0, 0, Header, 0, 1, 384
1, 0, Start_track
1, 0, Title_t, "Sonata in c, Op.13--Na          "
1, 0, Text_t, "2009 International Piano-e-Competition finals"
1, 0, Text_t, "captured June-July 2009"
1, 0, Text_t, "http://www.piano-e-competition.com/"
1, 0, Text_t, "standard-resolution version"
1, 0, Text_t, "File processed for distribution by software from Zenph Studios, Inc., http://www.zenph.com"
1, 0, Instrument_name_t, "Yamaha Disklavier Pro Mark IV concert grand piano, model DCFIIISM4PRO"
1, 0, Sequencer_specific, 39, 67, 113, 0, 1, 0, 1, 0, 83, 111, 110, 97, 116, 97, 32, 67, 109, 44, 32, 79, 112, 46, 49, 51, 72, 111, 119, 97, 114, 100, 32, 78, 97, 32, 32, 32, 32, 32, 32, 32
1, 0, Sequencer_specific, 6, 67, 113, 0, 0, 0, 69
1, 0, System_exclusive, 21, 67, 113, 126, 21, 0, 2, 2, 1, 1, 13, 3, 4, 10, 4, 13, 4, 10, 14, 7, 6, 247
1, 0, Sequencer_specific, 5, 67, 123, 12, 2, 1
1, 0, Tempo, 512820
1, 0, Time_signature, 4, 2, 24, 8
1, 0, System_exclusive, 5, 126, 127, 9, 1, 247
1, 1, System_exclusive, 8, 67, 16, 76, 0, 0, 126, 0, 247
1, 2, System_exclusive, 8, 67, 16, 76, 8, 9, 7, 1, 247
1, 3, Control_c, 0, 0, 0
1, 3, Control_c, 1, 0, 0
1, 3, Control_c, 2, 0, 0
1, 3, Control_c, 3, 0, 0
1, 3, Control_c, 4, 0, 0
1, 3, Control_c, 5, 0, 0
1, 3, Control_c, 6, 0, 0
1, 3, Control_c, 7, 0, 0
1, 3, Control_c, 8, 0, 0
1, 3, Control_c, 9, 0, 127
1, 3, Control_c, 10, 0, 0
1, 3, Control_c, 11, 0, 0
1, 3, Control_c, 12, 0, 0
1, 3, Control_c, 13, 0, 0
1, 3, Control_c, 14, 0, 0
1, 3, Control_c, 15, 0, 0
1, 4, Control_c, 0, 32, 0
1, 4, Control_c, 1, 32, 0
1, 4, Control_c, 2, 32, 0
1, 4, Control_c, 3, 32, 0
1, 4, Control_c, 4, 32, 0
1, 4, Control_c, 5, 32, 0
1, 4, Control_c, 6, 32, 0
1, 4, Control_c, 7, 32, 0
1, 4, Control_c, 8, 32, 0
1, 4, Control_c, 9, 32, 0
1, 4, Control_c, 10, 32, 0
1, 4, Control_c, 11, 32, 0
1, 4, Control_c, 12, 32, 0
1, 4, Control_c, 13, 32, 0
1, 4, Control_c, 14, 32, 0
1, 4, Control_c, 15, 32, 0
1, 5, Program_c, 0, 0
1, 5, Program_c, 1, 0
1, 5, Program_c, 2, 0
1, 5, Program_c, 3, 0
1, 5, Program_c, 4, 0
1, 5, Program_c, 5, 0
1, 5, Program_c, 6, 0
1, 5, Program_c, 7, 0
1, 5, Program_c, 8, 0
1, 5, Program_c, 9, 0
1, 5, Program_c, 10, 0
1, 5, Program_c, 11, 0
1, 5, Program_c, 12, 0
1, 5, Program_c, 13, 0
1, 5, Program_c, 14, 0
1, 5, Program_c, 15, 0
1, 6, Control_c, 0, 7, 100
1, 6, Control_c, 1, 7, 100
1, 6, Control_c, 2, 7, 100
1, 6, Control_c, 3, 7, 100
1, 6, Control_c, 4, 7, 100
1, 6, Control_c, 5, 7, 100
1, 6, Control_c, 6, 7, 100
1, 6, Control_c, 7, 7, 100
1, 6, Control_c, 8, 7, 100
1, 6, Control_c, 9, 7, 100
1, 6, Control_c, 10, 7, 100
1, 6, Control_c, 11, 7, 100
1, 6, Control_c, 12, 7, 100
1, 6, Control_c, 13, 7, 100
1, 6, Control_c, 14, 7, 100
1, 6, Control_c, 15, 7, 100
1, 117, Control_c, 0, 64, 15
1, 229, Control_c, 0, 64, 31
1, 341, Control_c, 0, 64, 46
1, 452, Control_c, 0, 64, 63
1, 564, Control_c, 0, 64, 77
1, 676, Control_c, 0, 64, 94
1, 787, Control_c, 0, 64, 108
1, 899, Control_c, 0, 64, 127
1, 1129, Note_on_c, 0, 60, 82
1, 1130, Note_on_c, 0, 48, 92
1, 1130, Note_on_c, 0, 51, 91
1, 1137, Note_on_c, 0, 36, 76
1, 1138, Note_on_c, 0, 55, 77
1, 1140, Note_on_c, 0, 39, 76
1, 1141, Note_on_c, 0, 43, 75
1, 1527, Poly_aftertouch_c, 0, 59, 127
1, 2318, Control_c, 0, 67, 18
1, 2333, Control_c, 0, 67, 36
1, 2348, Control_c, 0, 67, 57
1, 2363, Control_c, 0, 67, 79
1, 2378, Control_c, 0, 67, 100
1, 2392, Control_c, 0, 67, 126
1, 2407, Control_c, 0, 67, 127
1, 2658, Poly_aftertouch_c, 0, 59, 0
1, 2672, Note_off_c, 0, 51, 52
1, 2791, Note_off_c, 0, 36, 32
1, 2800, Note_off_c, 0, 55, 21
1, 2909, Note_off_c, 0, 43, 19
1, 2956, Note_off_c, 0, 39, 24
1, 3013, Note_off_c, 0, 48, 35
1, 3229, Note_off_c, 0, 60, 57
1, 3593, Control_c, 0, 64, 110
1, 3608, Control_c, 0, 64, 97
1, 3622, Control_c, 0, 64, 87
1, 3637, Control_c, 0, 64, 79
1, 3652, Control_c, 0, 64, 74
1, 3666, Control_c, 0, 64, 72
1, 3681, Control_c, 0, 64, 70
1, 3696, Control_c, 0, 64, 69
1, 3711, Control_c, 0, 64, 68
1, 3726, Control_c, 0, 64, 67
1, 3740, Control_c, 0, 64, 66
1, 3755, Control_c, 0, 64, 65
1, 3770, Control_c, 0, 64, 64
1, 3785, Control_c, 0, 64, 64
1, 3800, Control_c, 0, 64, 63
1, 3830, Control_c, 0, 64, 63
1, 3874, Control_c, 0, 64, 62
1, 3889, Control_c, 0, 64, 62
1, 3904, Control_c, 0, 64, 61
1, 3907, Note_on_c, 0, 60, 53
1, 3917, Note_on_c, 0, 51, 39
1, 3919, Control_c, 0, 64, 60
1, 3934, Control_c, 0, 64, 59
1, 3943, Note_on_c, 0, 55, 10
1, 3949, Control_c, 0, 64, 56
1, 3964, Control_c, 0, 64, 50
1, 3968, Note_off_c, 0, 60, 55
1, 3979, Control_c, 0, 64, 44
1, 3994, Note_off_c, 0, 55, 35
1, 3994, Control_c, 0, 64, 36
1, 4008, Control_c, 0, 64, 14
1, 4023, Note_off_c, 0, 51, 44
1, 4023, Control_c, 0, 64, 0
1, 4039, Note_on_c, 0, 62, 55
1, 4047, Note_on_c, 0, 50, 44
1, 4054, Note_on_c, 0, 55, 32
1, 4056, Note_on_c, 0, 59, 42
1, 4134, Note_off_c, 0, 55, 0
1, 4134, Note_on_c, 0, 55, 15
1, 4245, Control_c, 0, 64, 38
1, 4260, Control_c, 0, 64, 53
1, 4275, Control_c, 0, 64, 60
1, 4289, Control_c, 0, 64, 63
1, 4312, Control_c, 0, 64, 64
1, 4327, Control_c, 0, 64, 66
1, 4342, Control_c, 0, 64, 68
1, 4357, Control_c, 0, 64, 70
1, 4371, Control_c, 0, 64, 74
1, 4386, Control_c, 0, 64, 78
1, 4401, Control_c, 0, 64, 82
1, 4416, Control_c, 0, 64, 86
1, 4431, Control_c, 0, 64, 89
1, 4441, Note_off_c, 0, 62, 35
1, 4445, Control_c, 0, 64, 91
1, 4447, Note_off_c, 0, 55, 40
1, 4454, Note_off_c, 0, 59, 55
1, 4460, Control_c, 0, 64, 93
1, 4475, Control_c, 0, 64, 94
1, 4489, Control_c, 0, 64, 96
1, 4504, Control_c, 0, 64, 98
1, 4519, Control_c, 0, 64, 100
1, 4534, Control_c, 0, 64, 102
1, 4549, Control_c, 0, 64, 103
1, 4563, Control_c, 0, 64, 104
1, 4593, Control_c, 0, 64, 104
1, 4608, Control_c, 0, 64, 105
1, 4637, Note_on_c, 0, 63, 62
1, 4637, Control_c, 0, 64, 105
1, 4658, Note_on_c, 0, 48, 47
1, 4670, Note_on_c, 0, 60, 45
1, 4698, Poly_aftertouch_c, 0, 55, 127
1, 4708, Note_off_c, 0, 60, 50
1, 4713, Note_off_c, 0, 63, 62
1, 4740, Poly_aftertouch_c, 0, 55, 0
1, 4742, Control_c, 0, 64, 101
1, 4757, Control_c, 0, 64, 91
1, 4772, Control_c, 0, 64, 80
1, 4786, Note_on_c, 0, 63, 68
1, 4786, Control_c, 0, 64, 69
1, 4801, Note_on_c, 0, 54, 55
1, 4801, Control_c, 0, 64, 59
1, 4811, Note_on_c, 0, 57, 49
1, 4813, Note_on_c, 0, 60, 54
1, 4815, Note_off_c, 0, 50, 35
1, 4816, Control_c, 0, 64, 0
1, 4854, Note_off_c, 0, 48, 36
1, 5624, Control_c, 0, 64, 36
1, 5639, Control_c, 0, 64, 53
1, 5654, Control_c, 0, 64, 60
1, 5669, Control_c, 0, 64, 64
1, 5683, Control_c, 0, 64, 68
1, 5698, Control_c, 0, 64, 73
1, 5713, Control_c, 0, 64, 79
1, 5728, Control_c, 0, 64, 87
1, 5742, Control_c, 0, 64, 94
1, 5757, Control_c, 0, 64, 103
1, 5772, Control_c, 0, 64, 121
1, 5787, Control_c, 0, 64, 127
1, 6012, Note_off_c, 0, 57, 39
1, 6050, Note_off_c, 0, 60, 35
1, 6090, Note_off_c, 0, 54, 29
1, 6221, Note_off_c, 0, 63, 32
1, 6492, Control_c, 0, 64, 99
1, 6506, Control_c, 0, 64, 81
1, 6510, Note_on_c, 0, 62, 38
1, 6521, Control_c, 0, 64, 69
1, 6524, Note_on_c, 0, 59, 31
1, 6530, Note_on_c, 0, 55, 32
1, 6536, Control_c, 0, 64, 56
1, 6551, Control_c, 0, 64, 0
1, 7245, Note_off_c, 0, 59, 53
1, 7251, Note_off_c, 0, 55, 56
1, 7252, Note_off_c, 0, 62, 53
1, 7826, Control_c, 0, 67, 117
1, 7840, Control_c, 0, 67, 90
1, 7855, Control_c, 0, 64, 46
1, 7855, Control_c, 0, 67, 63
1, 7870, Control_c, 0, 64, 63
1, 7870, Control_c, 0, 67, 34
1, 7886, Control_c, 0, 64, 69
1, 7886, Control_c, 0, 67, 8
1, 7901, Control_c, 0, 64, 75
1, 7901, Control_c, 0, 67, 0
1, 7916, Control_c, 0, 64, 85
1, 7930, Control_c, 0, 64, 107
1, 7945, Control_c, 0, 64, 127
1, 7955, Note_on_c, 0, 44, 86
1, 8143, Note_on_c, 0, 65, 91
1, 8149, Note_on_c, 0, 62, 90
1, 8149, Note_on_c, 0, 59, 86
1, 8150, Note_on_c, 0, 56, 86
1, 8200, Note_off_c, 0, 44, 54
1, 9248, Control_c, 0, 67, 9
1, 9263, Control_c, 0, 67, 19
1, 9277, Control_c, 0, 67, 28
1, 9292, Control_c, 0, 67, 39
1, 9307, Control_c, 0, 67, 49
1, 9322, Control_c, 0, 67, 56
1, 9337, Control_c, 0, 67, 62
1, 9351, Control_c, 0, 67, 68
1, 9366, Control_c, 0, 67, 73
1, 9381, Control_c, 0, 67, 77
1, 9396, Control_c, 0, 67, 79
1, 9410, Control_c, 0, 67, 82
1, 9425, Control_c, 0, 67, 84
1, 9440, Control_c, 0, 67, 86
1, 9455, Control_c, 0, 67, 88
1, 9470, Control_c, 0, 67, 90
1, 9486, Control_c, 0, 67, 91
1, 9500, Control_c, 0, 67, 93
1, 9515, Control_c, 0, 67, 96
1, 9530, Control_c, 0, 67, 98
1, 9546, Control_c, 0, 67, 100
1, 9568, Control_c, 0, 67, 101
1, 9583, Control_c, 0, 67, 103
1, 9598, Control_c, 0, 67, 105
1, 9613, Control_c, 0, 67, 107
1, 9627, Control_c, 0, 67, 109
1, 9642, Control_c, 0, 67, 110
1, 9657, Control_c, 0, 67, 111
1, 9672, Control_c, 0, 67, 111
1, 9702, Control_c, 0, 67, 112
1, 9716, Control_c, 0, 67, 112
1, 9731, Control_c, 0, 67, 113
1, 9746, Control_c, 0, 67, 114
1, 9761, Control_c, 0, 67, 114
1, 9776, Control_c, 0, 67, 115
1, 9790, Control_c, 0, 67, 116
1, 9805, Control_c, 0, 67, 117
1, 9820, Control_c, 0, 67, 118
1, 9834, Control_c, 0, 67, 118
1, 9849, Control_c, 0, 67, 119
1, 9881, Note_off_c, 0, 59, 36
1, 9923, Control_c, 0, 67, 119
1, 9958, Note_off_c, 0, 56, 22
1, 9973, Note_off_c, 0, 62, 28
1, 9974, Note_off_c, 0, 65, 30
1, 10012, Control_c, 0, 67, 120
1, 10087, Control_c, 0, 64, 113
1, 10101, Control_c, 0, 64, 106
1, 10116, Control_c, 0, 64, 99
1, 10131, Control_c, 0, 64, 92
1, 10146, Control_c, 0, 64, 87
1, 10146, Control_c, 0, 67, 120
1, 10161, Control_c, 0, 64, 84
1, 10175, Control_c, 0, 64, 82
1, 10190, Control_c, 0, 64, 80
1, 10190, Control_c, 0, 67, 121
1, 10205, Control_c, 0, 64, 79
1, 10205, Control_c, 0, 67, 122
1, 10219, Control_c, 0, 64, 77
1, 10219, Control_c, 0, 67, 124
1, 10234, Control_c, 0, 64, 75
1, 10234, Control_c, 0, 67, 126
1, 10249, Control_c, 0, 64, 74
1, 10249, Control_c, 0, 67, 127
1, 10264, Control_c, 0, 64, 73
1, 10280, Control_c, 0, 64, 72
1, 10317, Control_c, 0, 64, 72
1, 10331, Control_c, 0, 64, 71
1, 10346, Control_c, 0, 64, 70
1, 10361, Control_c, 0, 64, 70
1, 10376, Control_c, 0, 64, 69
1, 10405, Control_c, 0, 64, 69
1, 10420, Control_c, 0, 64, 68
1, 10435, Control_c, 0, 64, 67
1, 10450, Control_c, 0, 64, 67
1, 10554, Control_c, 0, 64, 66
1, 10584, Control_c, 0, 64, 66
1, 10613, Control_c, 0, 64, 65
1, 10640, Note_on_c, 0, 65, 61
1, 10643, Control_c, 0, 64, 64
1, 10650, Note_on_c, 0, 62, 51
1, 10651, Note_on_c, 0, 56, 37
1, 10657, Note_on_c, 0, 59, 41
1, 10657, Control_c, 0, 64, 64
1, 10672, Control_c, 0, 64, 63
1, 10687, Control_c, 0, 64, 62
1, 10702, Control_c, 0, 64, 61
1, 10703, Note_off_c, 0, 62, 54
1, 10710, Note_off_c, 0, 59, 59
1, 10717, Control_c, 0, 64, 58
1, 10731, Control_c, 0, 64, 55
1, 10746, Control_c, 0, 64, 47
1, 10761, Control_c, 0, 64, 36
1, 10776, Control_c, 0, 64, 21
1, 10781, Note_off_c, 0, 65, 33
1, 10782, Note_off_c, 0, 56, 52
1, 10791, Note_on_c, 0, 67, 63
1, 10791, Control_c, 0, 64, 0
1, 10808, Note_on_c, 0, 59, 55
1, 10808, Note_on_c, 0, 62, 45
1, 10811, Note_on_c, 0, 55, 39
1, 10968, Control_c, 0, 64, 34
1, 10983, Control_c, 0, 64, 53
1, 10998, Control_c, 0, 64, 60
1, 11013, Control_c, 0, 64, 62
1, 11028, Control_c, 0, 64, 64
1, 11040, Note_off_c, 0, 67, 58
1, 11043, Control_c, 0, 64, 66
1, 11064, Control_c, 0, 64, 69
1, 11080, Control_c, 0, 64, 74
1, 11095, Control_c, 0, 64, 79
1, 11110, Control_c, 0, 64, 83
1, 11125, Control_c, 0, 64, 86
1, 11140, Control_c, 0, 64, 89
1, 11154, Control_c, 0, 64, 92
1, 11160, Note_off_c, 0, 59, 42
1, 11169, Control_c, 0, 64, 95
1, 11182, Note_off_c, 0, 62, 37
1, 11184, Control_c, 0, 64, 97
1, 11199, Control_c, 0, 64, 99
1, 11214, Control_c, 0, 64, 100
1, 11214, Control_c, 0, 67, 127
1, 11228, Control_c, 0, 64, 102
1, 11243, Control_c, 0, 64, 103
1, 11258, Control_c, 0, 64, 104
1, 11273, Control_c, 0, 64, 105
1, 11288, Control_c, 0, 64, 106
1, 11303, Control_c, 0, 64, 107
1, 11318, Control_c, 0, 64, 110
1, 11333, Control_c, 0, 64, 112
1, 11347, Control_c, 0, 64, 114
1, 11362, Control_c, 0, 64, 115
1, 11392, Control_c, 0, 64, 116
1, 11407, Note_on_c, 0, 68, 72
1, 11422, Note_on_c, 0, 62, 52
1, 11425, Note_on_c, 0, 59, 49
1, 11437, Note_on_c, 0, 53, 37
1, 11465, Note_off_c, 0, 62, 53
1, 11467, Note_off_c, 0, 59, 61
1, 11481, Note_off_c, 0, 68, 64
1, 11508, Note_off_c, 0, 55, 26
1, 11540, Control_c, 0, 64, 110
1, 11554, Control_c, 0, 64, 95
1, 11568, Note_on_c, 0, 68, 80
1, 11569, Control_c, 0, 64, 82
1, 11583, Note_on_c, 0, 59, 51
1, 11584, Control_c, 0, 64, 70
1, 11586, Note_on_c, 0, 62, 50
1, 11592, Note_on_c, 0, 51, 40
1, 11598, Control_c, 0, 64, 60
1, 11598, Control_c, 0, 67, 126
1, 11601, Note_off_c, 0, 53, 43
1, 11613, Control_c, 0, 64, 36
1, 11628, Control_c, 0, 64, 0
1, 11902, Control_c, 0, 67, 127
1, 12243, Control_c, 0, 67, 127
1, 12435, Control_c, 0, 64, 36
1, 12450, Control_c, 0, 64, 54
1, 12465, Control_c, 0, 64, 61
1, 12480, Control_c, 0, 64, 63
1, 12495, Control_c, 0, 64, 64
1, 12510, Control_c, 0, 64, 65
1, 12525, Control_c, 0, 64, 68
1, 12540, Control_c, 0, 64, 72
1, 12563, Control_c, 0, 64, 80
1, 12577, Control_c, 0, 64, 89
1, 12590, Note_off_c, 0, 59, 35
1, 12592, Control_c, 0, 64, 99
1, 12607, Control_c, 0, 64, 114
1, 12622, Control_c, 0, 64, 127
1, 12748, Note_off_c, 0, 62, 34
1, 13067, Note_off_c, 0, 68, 34
1, 13288, Note_on_c, 0, 67, 44
1, 13312, Control_c, 0, 64, 102
1, 13321, Note_on_c, 0, 63, 39
1, 13324, Note_on_c, 0, 60, 40
1, 13326, Control_c, 0, 64, 83
1, 13341, Control_c, 0, 64, 70
1, 13356, Control_c, 0, 64, 61
1, 13371, Control_c, 0, 64, 30
1, 13385, Control_c, 0, 64, 0
1, 13992, Note_off_c, 0, 60, 57
1, 14000, Note_off_c, 0, 67, 61
1, 14010, Note_off_c, 0, 51, 61
1, 14012, Note_off_c, 0, 63, 55
1, 14476, Control_c, 0, 67, 120
1, 14491, Control_c, 0, 67, 97
1, 14505, Control_c, 0, 67, 65
1, 14520, Control_c, 0, 67, 36
1, 14535, Control_c, 0, 64, 21
1, 14535, Control_c, 0, 67, 0
1, 14550, Control_c, 0, 64, 57
1, 14565, Control_c, 0, 64, 66
1, 14579, Control_c, 0, 64, 72
1, 14594, Control_c, 0, 64, 84
1, 14609, Note_on_c, 0, 51, 73
1, 14609, Control_c, 0, 64, 111
1, 14623, Control_c, 0, 64, 127
1, 14811, Note_on_c, 0, 72, 93
1, 14816, Note_on_c, 0, 63, 84
1, 14820, Note_on_c, 0, 66, 76
1, 14821, Note_on_c, 0, 69, 80
1, 14862, Note_off_c, 0, 51, 58
1, 14987, Control_c, 0, 64, 89
1, 15002, Control_c, 0, 64, 72
1, 15017, Control_c, 0, 64, 62
1, 15031, Control_c, 0, 64, 45
1, 15046, Control_c, 0, 64, 0
1, 15646, Control_c, 0, 64, 35
1, 15661, Control_c, 0, 64, 44
1, 15676, Control_c, 0, 64, 48
1, 15691, Control_c, 0, 64, 49
1, 15706, Control_c, 0, 64, 50
1, 15720, Control_c, 0, 64, 53
1, 15735, Control_c, 0, 64, 57
1, 15750, Control_c, 0, 64, 60
1, 15764, Control_c, 0, 64, 62
1, 15779, Control_c, 0, 64, 64
1, 15794, Control_c, 0, 64, 65
1, 15809, Control_c, 0, 64, 68
1, 15824, Control_c, 0, 64, 72
1, 15839, Control_c, 0, 64, 79
1, 15853, Control_c, 0, 64, 85
1, 15869, Control_c, 0, 64, 89
1, 15884, Control_c, 0, 64, 90
1, 16062, Control_c, 0, 67, 8
1, 16076, Control_c, 0, 67, 10
1, 16091, Control_c, 0, 67, 13
1, 16106, Control_c, 0, 67, 17
1, 16121, Control_c, 0, 67, 23
1, 16136, Control_c, 0, 67, 27
1, 16150, Control_c, 0, 67, 30
1, 16165, Control_c, 0, 67, 33
1, 16180, Control_c, 0, 67, 36
1, 16194, Control_c, 0, 67, 38
1, 16209, Control_c, 0, 67, 39
1, 16224, Control_c, 0, 67, 39
1, 16239, Control_c, 0, 67, 40
1, 16254, Control_c, 0, 67, 41
1, 16269, Control_c, 0, 67, 42
1, 16298, Note_off_c, 0, 66, 34
1, 16322, Control_c, 0, 67, 42
1, 16359, Note_off_c, 0, 69, 38
1, 16366, Control_c, 0, 64, 90
1, 16372, Note_off_c, 0, 72, 47
1, 16381, Control_c, 0, 64, 89
1, 16390, Note_off_c, 0, 63, 33
1, 16395, Control_c, 0, 64, 87
1, 16410, Control_c, 0, 64, 86
1, 16425, Control_c, 0, 64, 85
1, 16440, Control_c, 0, 64, 84
1, 16455, Control_c, 0, 64, 84
1, 16499, Control_c, 0, 64, 83
1, 16514, Control_c, 0, 64, 83
1, 16529, Control_c, 0, 64, 82
1, 16543, Control_c, 0, 64, 81
1, 16558, Control_c, 0, 64, 81
1, 16573, Control_c, 0, 64, 79
1, 16588, Control_c, 0, 64, 78
1, 16603, Control_c, 0, 64, 77
1, 16618, Control_c, 0, 64, 76
1, 16633, Control_c, 0, 64, 75
1, 16663, Control_c, 0, 64, 75
1, 16678, Control_c, 0, 64, 74
1, 16692, Control_c, 0, 64, 73
1, 16707, Control_c, 0, 64, 72
1, 16722, Control_c, 0, 64, 71
1, 16722, Control_c, 0, 67, 42
1, 16737, Control_c, 0, 64, 70
1, 16752, Control_c, 0, 64, 69
1, 16767, Control_c, 0, 64, 68
1, 16782, Control_c, 0, 64, 68
1, 16797, Control_c, 0, 64, 67
1, 16805, Note_on_c, 0, 72, 58
1, 16811, Control_c, 0, 64, 67
1, 16811, Control_c, 0, 67, 41
1, 16824, Note_on_c, 0, 66, 48
1, 16826, Control_c, 0, 64, 66
1, 16826, Control_c, 0, 67, 41
1, 16829, Note_on_c, 0, 63, 44
1, 16831, Note_on_c, 0, 69, 44
1, 16841, Control_c, 0, 64, 65
1, 16856, Control_c, 0, 64, 64
1, 16868, Note_off_c, 0, 66, 49
1, 16871, Control_c, 0, 64, 63
1, 16871, Control_c, 0, 67, 40
1, 16886, Control_c, 0, 64, 62
1, 16886, Control_c, 0, 67, 40
1, 16889, Note_off_c, 0, 69, 42
1, 16900, Control_c, 0, 64, 60
1, 16915, Control_c, 0, 64, 58
1, 16915, Control_c, 0, 67, 39
1, 16919, Note_off_c, 0, 72, 58
1, 16930, Control_c, 0, 64, 53
1, 16945, Control_c, 0, 64, 42
1, 16945, Control_c, 0, 67, 39
1, 16960, Control_c, 0, 64, 0
1, 16960, Control_c, 0, 67, 38
1, 16966, Note_on_c, 0, 74, 66
1, 16973, Note_off_c, 0, 63, 42
1, 16974, Control_c, 0, 67, 38
1, 16980, Note_on_c, 0, 69, 34
1, 16981, Note_on_c, 0, 66, 47
1, 16984, Note_on_c, 0, 62, 38
1, 16989, Control_c, 0, 67, 37
1, 17018, Control_c, 0, 67, 37
1, 17033, Control_c, 0, 67, 36
1, 17050, Note_off_c, 0, 62, 0
1, 17050, Note_on_c, 0, 62, 9
1, 17056, Control_c, 0, 67, 36
1, 17071, Control_c, 0, 67, 35
1, 17086, Control_c, 0, 67, 34
1, 17100, Control_c, 0, 67, 32
1, 17115, Control_c, 0, 67, 31
1, 17130, Control_c, 0, 64, 36
1, 17130, Control_c, 0, 67, 29
1, 17145, Control_c, 0, 64, 57
1, 17145, Control_c, 0, 67, 24
1, 17154, Note_off_c, 0, 66, 38
1, 17160, Control_c, 0, 64, 64
1, 17160, Control_c, 0, 67, 16
1, 17174, Control_c, 0, 64, 67
1, 17174, Control_c, 0, 67, 0
1, 17189, Control_c, 0, 64, 70
1, 17202, Note_off_c, 0, 69, 37
1, 17204, Control_c, 0, 64, 76
1, 17210, Note_off_c, 0, 74, 61
1, 17218, Control_c, 0, 64, 86
1, 17233, Control_c, 0, 64, 104
1, 17248, Control_c, 0, 64, 127
1, 17542, Note_on_c, 0, 75, 80
1, 17557, Note_on_c, 0, 69, 57
1, 17560, Note_on_c, 0, 66, 53
1, 17562, Note_on_c, 0, 60, 47
1, 17598, Note_off_c, 0, 66, 63
1, 17602, Note_off_c, 0, 60, 58
1, 17611, Note_off_c, 0, 69, 62
1, 17633, Note_off_c, 0, 62, 39
1, 17633, Note_off_c, 0, 75, 62
1, 17719, Note_on_c, 0, 75, 84
1, 17725, Note_on_c, 0, 60, 53
1, 17729, Note_on_c, 0, 66, 60
1, 17730, Note_on_c, 0, 69, 61
1, 17738, Control_c, 0, 64, 118
1, 17753, Control_c, 0, 64, 87
1, 17767, Control_c, 0, 64, 71
1, 17782, Control_c, 0, 64, 62
1, 17804, Control_c, 0, 64, 43
1, 17819, Control_c, 0, 64, 0
1, 18487, Control_c, 0, 64, 15
1, 18502, Control_c, 0, 64, 38
1, 18517, Control_c, 0, 64, 45
1, 18538, Control_c, 0, 64, 48
1, 18553, Control_c, 0, 64, 53
1, 18568, Control_c, 0, 64, 59
1, 18583, Control_c, 0, 64, 64
1, 18597, Control_c, 0, 64, 66
1, 18612, Control_c, 0, 64, 70
1, 18627, Control_c, 0, 64, 77
1, 18642, Control_c, 0, 64, 88
1, 18657, Control_c, 0, 64, 100
1, 18672, Control_c, 0, 64, 113
1, 18672, Control_c, 0, 67, 22
1, 18686, Control_c, 0, 64, 127
1, 18686, Control_c, 0, 67, 36
1, 18701, Control_c, 0, 67, 48
1, 18716, Control_c, 0, 67, 61
1, 18731, Control_c, 0, 67, 75
1, 18746, Control_c, 0, 67, 91
1, 18761, Control_c, 0, 67, 110
1, 18776, Control_c, 0, 67, 126
1, 18790, Control_c, 0, 67, 127
1, 18798, Note_off_c, 0, 66, 37
1, 18904, Note_off_c, 0, 75, 32
1, 19044, Note_off_c, 0, 69, 35
1, 19049, Note_off_c, 0, 60, 30
1, 19147, Control_c, 0, 64, 99
1, 19161, Control_c, 0, 64, 79
1, 19169, Note_on_c, 0, 74, 43
1, 19176, Note_on_c, 0, 59, 38
1, 19176, Control_c, 0, 64, 67
1, 19186, Note_on_c, 0, 67, 36
1, 19191, Control_c, 0, 64, 54
1, 19199, Note_on_c, 0, 62, 36
1, 19206, Control_c, 0, 64, 0
1, 19451, Control_c, 0, 64, 25
1, 19466, Control_c, 0, 64, 32
1, 19481, Control_c, 0, 64, 36
1, 19495, Control_c, 0, 64, 39
1, 19500, Note_off_c, 0, 67, 52
1, 19510, Control_c, 0, 64, 39
1, 19535, Note_off_c, 0, 62, 43
1, 19539, Control_c, 0, 64, 40
1, 19563, Note_off_c, 0, 59, 54
1, 19569, Control_c, 0, 64, 39
1, 19584, Control_c, 0, 64, 38
1, 19592, Note_off_c, 0, 74, 61
1, 19599, Control_c, 0, 64, 35
1, 19614, Control_c, 0, 64, 29
1, 19628, Control_c, 0, 64, 12
1, 19643, Control_c, 0, 64, 0
1, 19697, Note_on_c, 0, 72, 53
1, 19716, Note_on_c, 0, 69, 43
1, 19719, Note_on_c, 0, 63, 26
1, 19731, Note_on_c, 0, 66, 46
1, 19762, Control_c, 0, 67, 115
1, 19777, Control_c, 0, 67, 101
1, 19784, Note_off_c, 0, 66, 58
1, 19792, Control_c, 0, 67, 85
1, 19807, Control_c, 0, 67, 69
1, 19821, Control_c, 0, 67, 54
1, 19836, Control_c, 0, 67, 38
1, 19850, Note_off_c, 0, 63, 45
1, 19851, Control_c, 0, 67, 23
1, 19866, Note_off_c, 0, 72, 38
1, 19867, Control_c, 0, 67, 0
1, 19872, Note_on_c, 0, 74, 68
1, 19888, Note_on_c, 0, 62, 43
1, 19913, Note_on_c, 0, 66, 42
1, 19926, Control_c, 0, 64, 15
1, 19941, Control_c, 0, 64, 47
1, 19956, Control_c, 0, 64, 57
1, 19971, Control_c, 0, 64, 61
1, 19985, Control_c, 0, 64, 62
1, 20000, Control_c, 0, 64, 64
1, 20015, Control_c, 0, 64, 66
1, 20029, Control_c, 0, 64, 70
1, 20051, Control_c, 0, 64, 75
1, 20066, Control_c, 0, 64, 81
1, 20081, Control_c, 0, 64, 85
1, 20090, Note_off_c, 0, 66, 45
1, 20096, Control_c, 0, 64, 90
1, 20103, Note_off_c, 0, 69, 45
1, 20111, Control_c, 0, 64, 96
1, 20114, Note_off_c, 0, 74, 61
1, 20125, Control_c, 0, 64, 106
1, 20140, Control_c, 0, 64, 127
1, 20392, Note_off_c, 0, 62, 30
1, 20447, Note_on_c, 0, 75, 77
1, 20455, Note_on_c, 0, 66, 60
1, 20462, Note_on_c, 0, 69, 58
1, 20464, Note_on_c, 0, 60, 49
1, 20516, Note_off_c, 0, 66, 60
1, 20517, Note_off_c, 0, 69, 62
1, 20522, Note_off_c, 0, 60, 60
1, 20529, Note_off_c, 0, 75, 63
1, 20613, Note_on_c, 0, 75, 86
1, 20625, Note_on_c, 0, 66, 69
1, 20629, Note_on_c, 0, 69, 65
1, 20629, Control_c, 0, 64, 96
1, 20636, Note_on_c, 0, 60, 58
1, 20643, Control_c, 0, 64, 73
1, 20659, Control_c, 0, 64, 60
1, 20674, Control_c, 0, 64, 0
1, 21170, Control_c, 0, 64, 26
1, 21184, Control_c, 0, 64, 36
1, 21199, Control_c, 0, 64, 45
1, 21214, Control_c, 0, 64, 51
1, 21229, Control_c, 0, 64, 56
1, 21244, Control_c, 0, 64, 60
1, 21258, Control_c, 0, 64, 63
1, 21273, Control_c, 0, 64, 65
1, 21288, Control_c, 0, 64, 67
1, 21302, Control_c, 0, 64, 72
1, 21317, Control_c, 0, 64, 80
1, 21332, Control_c, 0, 64, 92
1, 21347, Control_c, 0, 64, 127
1, 21568, Note_off_c, 0, 69, 52
1, 21585, Note_off_c, 0, 66, 37
1, 21895, Note_off_c, 0, 75, 56
1, 21922, Note_off_c, 0, 60, 36
1, 22080, Note_on_c, 0, 74, 79
1, 22091, Note_on_c, 0, 62, 57
1, 22096, Control_c, 0, 64, 94
1, 22097, Note_on_c, 0, 59, 54
1, 22104, Note_on_c, 0, 67, 54
1, 22111, Control_c, 0, 64, 73
1, 22126, Control_c, 0, 64, 57
1, 22140, Control_c, 0, 64, 0
1, 22281, Control_c, 0, 64, 48
1, 22296, Control_c, 0, 64, 63
1, 22311, Control_c, 0, 64, 69
1, 22326, Control_c, 0, 64, 74
1, 22341, Control_c, 0, 64, 79
1, 22356, Control_c, 0, 64, 85
1, 22370, Control_c, 0, 64, 93
1, 22385, Control_c, 0, 64, 108
1, 22400, Control_c, 0, 64, 127
1, 22532, Note_off_c, 0, 67, 36
1, 22560, Note_off_c, 0, 59, 36
1, 22650, Note_off_c, 0, 62, 35
1, 22712, Note_off_c, 0, 74, 52
1, 22861, Note_on_c, 0, 76, 94
1, 22874, Note_on_c, 0, 67, 82
1, 22875, Note_on_c, 0, 64, 73
1, 22875, Note_on_c, 0, 72, 77
1, 22885, Note_on_c, 0, 60, 57
1, 22886, Note_on_c, 0, 58, 62
1, 22889, Control_c, 0, 64, 90
1, 22903, Control_c, 0, 64, 68
1, 22918, Control_c, 0, 64, 44
1, 22933, Control_c, 0, 64, 0
1, 23030, Control_c, 0, 64, 41
1, 23045, Control_c, 0, 64, 54
1, 23060, Control_c, 0, 64, 59
1, 23075, Control_c, 0, 64, 62
1, 23090, Control_c, 0, 64, 66
1, 23105, Control_c, 0, 64, 72
1, 23120, Control_c, 0, 64, 82
1, 23134, Control_c, 0, 64, 98
1, 23149, Control_c, 0, 64, 127
1, 23310, Note_off_c, 0, 76, 60
1, 23311, Note_off_c, 0, 67, 37
1, 23398, Note_off_c, 0, 64, 37
1, 23410, Note_off_c, 0, 60, 27
1, 23422, Note_off_c, 0, 72, 57
1, 23513, Note_off_c, 0, 58, 33
1, 23662, Note_on_c, 0, 77, 87
1, 23668, Note_on_c, 0, 68, 85
1, 23674, Note_on_c, 0, 72, 78
1, 23676, Note_on_c, 0, 65, 76
1, 23678, Note_on_c, 0, 56, 65
1, 23682, Control_c, 0, 64, 108
1, 23688, Note_on_c, 0, 60, 60
1, 23697, Control_c, 0, 64, 71
1, 23712, Control_c, 0, 64, 30
1, 23727, Control_c, 0, 64, 0
1, 23823, Control_c, 0, 64, 54
1, 23838, Control_c, 0, 64, 67
1, 23853, Control_c, 0, 64, 75
1, 23869, Control_c, 0, 64, 87
1, 23883, Control_c, 0, 64, 105
1, 23898, Control_c, 0, 64, 127
1, 23955, Note_off_c, 0, 77, 54
1, 23986, Note_off_c, 0, 68, 62
1, 24020, Note_off_c, 0, 72, 61
1, 24150, Control_c, 0, 64, 125
1, 24165, Control_c, 0, 64, 81
1, 24180, Control_c, 0, 64, 64
1, 24195, Control_c, 0, 64, 15
1, 24209, Control_c, 0, 64, 0
1, 24273, Note_off_c, 0, 56, 57
1, 24275, Note_off_c, 0, 60, 53
1, 24282, Note_off_c, 0, 65, 55
1, 24445, Note_on_c, 0, 80, 86
1, 24914, Control_c, 0, 64, 20
1, 24928, Control_c, 0, 64, 39
1, 24943, Control_c, 0, 64, 41
1, 24958, Control_c, 0, 64, 42
1, 24973, Control_c, 0, 64, 46
1, 24988, Control_c, 0, 64, 53
1, 25003, Control_c, 0, 64, 57
1, 25018, Control_c, 0, 64, 59
1, 25032, Control_c, 0, 64, 61
1, 25047, Control_c, 0, 64, 62
1, 25062, Control_c, 0, 64, 63
1, 25077, Control_c, 0, 64, 65
1, 25092, Control_c, 0, 64, 66
1, 25106, Control_c, 0, 64, 68
1, 25121, Control_c, 0, 64, 69
1, 25136, Control_c, 0, 64, 70
1, 25150, Control_c, 0, 64, 71
1, 25165, Control_c, 0, 64, 71
1, 25195, Control_c, 0, 64, 72
1, 25210, Control_c, 0, 64, 72
1, 25224, Control_c, 0, 64, 73
1, 25239, Control_c, 0, 64, 74
1, 25254, Control_c, 0, 64, 75
1, 25298, Note_on_c, 0, 46, 87
1, 25304, Note_on_c, 0, 34, 73
1, 25321, Control_c, 0, 64, 74
1, 25336, Control_c, 0, 64, 72
1, 25351, Control_c, 0, 64, 69
1, 25365, Control_c, 0, 64, 65
1, 25380, Control_c, 0, 64, 61
1, 25395, Control_c, 0, 64, 53
1, 25410, Control_c, 0, 64, 43
1, 25425, Control_c, 0, 64, 33
1, 25439, Control_c, 0, 64, 35
1, 25455, Control_c, 0, 64, 38
1, 25470, Control_c, 0, 64, 39
1, 25500, Control_c, 0, 64, 41
1, 25515, Control_c, 0, 64, 43
1, 25529, Control_c, 0, 64, 45
1, 25544, Control_c, 0, 64, 47
1, 25559, Control_c, 0, 64, 49
1, 25574, Control_c, 0, 64, 51
1, 25588, Control_c, 0, 64, 53
1, 25599, Note_off_c, 0, 80, 25
1, 25603, Control_c, 0, 64, 54
1, 25610, Note_on_c, 0, 79, 72
1, 25633, Control_c, 0, 64, 55
1, 25648, Control_c, 0, 64, 55
1, 25662, Control_c, 0, 64, 56
1, 25677, Control_c, 0, 64, 57
1, 25692, Control_c, 0, 64, 57
1, 25707, Control_c, 0, 64, 58
1, 25722, Control_c, 0, 64, 59
1, 25736, Control_c, 0, 64, 60
1, 25751, Control_c, 0, 64, 61
1, 25766, Control_c, 0, 64, 62
1, 25767, Note_on_c, 0, 80, 78
1, 25781, Control_c, 0, 64, 63
1, 25796, Control_c, 0, 64, 64
1, 25811, Control_c, 0, 64, 66
1, 25826, Control_c, 0, 64, 69
1, 25841, Control_c, 0, 64, 73
1, 25855, Note_off_c, 0, 79, 53
1, 25855, Control_c, 0, 64, 79
1, 25867, Note_on_c, 0, 82, 77
1, 25870, Control_c, 0, 64, 86
1, 25875, Note_off_c, 0, 80, 64
1, 25885, Control_c, 0, 64, 93
1, 25899, Control_c, 0, 64, 100
1, 25914, Control_c, 0, 64, 106
1, 25929, Control_c, 0, 64, 107
1, 25954, Note_on_c, 0, 80, 82
1, 26007, Poly_aftertouch_c, 0, 35, 127
1, 26008, Note_off_c, 0, 82, 58
1, 26028, Note_on_c, 0, 79, 80
1, 26054, Note_off_c, 0, 80, 62
1, 26055, Control_c, 0, 64, 107
1, 26064, Note_off_c, 0, 79, 55
1, 26085, Control_c, 0, 64, 106
1, 26094, Note_on_c, 0, 77, 76
1, 26100, Control_c, 0, 64, 106
1, 26114, Control_c, 0, 64, 105
1, 26129, Control_c, 0, 64, 104
1, 26144, Control_c, 0, 64, 102
1, 26148, Note_off_c, 0, 77, 51
1, 26154, Note_on_c, 0, 75, 76
1, 26159, Control_c, 0, 64, 98
1, 26174, Control_c, 0, 64, 94
1, 26188, Control_c, 0, 64, 89
1, 26203, Control_c, 0, 64, 84
1, 26211, Note_on_c, 0, 74, 69
1, 26218, Control_c, 0, 64, 79
1, 26219, Note_off_c, 0, 75, 65
1, 26233, Control_c, 0, 64, 72
1, 26241, Note_off_c, 0, 74, 65
1, 26248, Control_c, 0, 64, 67
1, 26264, Control_c, 0, 64, 63
1, 26271, Note_on_c, 0, 72, 68
1, 26278, Control_c, 0, 64, 60
1, 26293, Control_c, 0, 64, 56
1, 26308, Control_c, 0, 64, 52
1, 26321, Note_off_c, 0, 72, 62
1, 26323, Control_c, 0, 64, 46
1, 26325, Note_on_c, 0, 70, 74
1, 26337, Control_c, 0, 64, 34
1, 26352, Control_c, 0, 64, 0
1, 26377, Note_on_c, 0, 68, 76
1, 26413, Note_off_c, 0, 70, 61
1, 26445, Note_on_c, 0, 67, 70
1, 26468, Note_off_c, 0, 68, 60
1, 26488, Note_off_c, 0, 67, 54
1, 26514, Note_on_c, 0, 65, 71
1, 26596, Note_off_c, 0, 65, 60
1, 26601, Note_on_c, 0, 63, 64
1, 26675, Note_off_c, 0, 63, 60
1, 26689, Note_on_c, 0, 62, 66
1, 26722, Control_c, 0, 67, 9
1, 26737, Control_c, 0, 67, 12
1, 26752, Control_c, 0, 67, 16
1, 26774, Control_c, 0, 67, 21
1, 26789, Control_c, 0, 67, 26
1, 26803, Control_c, 0, 67, 31
1, 26818, Control_c, 0, 67, 36
1, 26828, Note_on_c, 0, 65, 53
1, 26833, Control_c, 0, 67, 42
1, 26848, Control_c, 0, 67, 46
1, 26863, Note_off_c, 0, 62, 53
1, 26863, Control_c, 0, 67, 49
1, 26878, Control_c, 0, 67, 50
1, 26893, Control_c, 0, 67, 51
1, 26908, Control_c, 0, 67, 52
1, 26923, Control_c, 0, 67, 53
1, 26937, Control_c, 0, 67, 56
1, 26946, Note_off_c, 0, 65, 61
1, 26952, Control_c, 0, 67, 59
1, 26958, Note_on_c, 0, 68, 64
1, 26967, Control_c, 0, 67, 61
1, 26982, Control_c, 0, 67, 63
1, 26997, Control_c, 0, 67, 65
1, 27011, Control_c, 0, 67, 67
1, 27026, Control_c, 0, 67, 70
1, 27041, Control_c, 0, 67, 75
1, 27050, Poly_aftertouch_c, 0, 35, 0
1, 27057, Control_c, 0, 67, 79
1, 27072, Control_c, 0, 67, 84
1, 27087, Control_c, 0, 67, 87
1, 27101, Control_c, 0, 64, 44
1, 27101, Control_c, 0, 67, 90
1, 27112, Note_on_c, 0, 65, 47
1, 27116, Control_c, 0, 64, 60
1, 27116, Control_c, 0, 67, 93
1, 27131, Control_c, 0, 64, 64
1, 27131, Control_c, 0, 67, 96
1, 27146, Control_c, 0, 64, 67
1, 27146, Control_c, 0, 67, 99
1, 27158, Note_off_c, 0, 34, 60
1, 27160, Control_c, 0, 64, 69
1, 27160, Control_c, 0, 67, 103
1, 27175, Control_c, 0, 64, 70
1, 27175, Control_c, 0, 67, 106
1, 27190, Control_c, 0, 64, 71
1, 27190, Control_c, 0, 67, 110
1, 27197, Note_off_c, 0, 46, 44
1, 27200, Note_off_c, 0, 68, 30
1, 27205, Control_c, 0, 64, 72
1, 27205, Control_c, 0, 67, 113
1, 27220, Control_c, 0, 67, 116
1, 27234, Control_c, 0, 67, 118
1, 27249, Control_c, 0, 67, 119
1, 27250, Note_off_c, 0, 65, 58
1, 27264, Control_c, 0, 67, 120
1, 27268, Note_on_c, 0, 62, 56
1, 27279, Control_c, 0, 67, 121
1, 27294, Control_c, 0, 67, 121
1, 27308, Control_c, 0, 64, 71
1, 27308, Control_c, 0, 67, 122
1, 27323, Control_c, 0, 67, 122
1, 27338, Control_c, 0, 67, 123
1, 27352, Control_c, 0, 64, 71
1, 27352, Control_c, 0, 67, 125
1, 27367, Control_c, 0, 64, 70
1, 27367, Control_c, 0, 67, 126
1, 27382, Control_c, 0, 64, 69
1, 27382, Control_c, 0, 67, 127
1, 27397, Control_c, 0, 64, 68
1, 27397, Control_c, 0, 67, 127
1, 27412, Control_c, 0, 64, 65
1, 27426, Control_c, 0, 64, 61
1, 27441, Control_c, 0, 64, 50
1, 27456, Control_c, 0, 64, 0
1, 27465, Note_off_c, 0, 62, 58
1, 27473, Note_on_c, 0, 51, 37
1, 27477, Note_on_c, 0, 39, 37
1, 27493, Note_on_c, 0, 63, 52
1, 27612, Control_c, 0, 64, 34
1, 27626, Control_c, 0, 64, 60
1, 27641, Control_c, 0, 64, 66
1, 27656, Control_c, 0, 64, 71
1, 27670, Note_off_c, 0, 39, 56
1, 27671, Control_c, 0, 64, 76
1, 27686, Control_c, 0, 64, 82
1, 27701, Control_c, 0, 64, 87
1, 27704, Note_off_c, 0, 51, 59
1, 27707, Note_off_c, 0, 63, 61
1, 27716, Control_c, 0, 64, 91
1, 27731, Control_c, 0, 64, 94
1, 27745, Control_c, 0, 64, 97
1, 27760, Control_c, 0, 64, 98
1, 27972, Note_on_c, 0, 51, 31
1, 27972, Note_on_c, 0, 55, 17
1, 27975, Note_on_c, 0, 58, 29
1, 28127, Note_off_c, 0, 58, 38
1, 28142, Note_off_c, 0, 51, 37
1, 28176, Note_off_c, 0, 55, 38
1, 28325, Note_on_c, 0, 75, 70
1, 28342, Note_on_c, 0, 63, 41
1, 28346, Note_on_c, 0, 55, 27
1, 28346, Control_c, 0, 64, 96
1, 28359, Note_on_c, 0, 51, 26
1, 28361, Control_c, 0, 64, 90
1, 28364, Note_on_c, 0, 58, 25
1, 28375, Control_c, 0, 64, 80
1, 28386, Note_off_c, 0, 63, 0
1, 28386, Note_on_c, 0, 63, 8
1, 28390, Control_c, 0, 64, 70
1, 28405, Control_c, 0, 64, 62
1, 28420, Control_c, 0, 64, 55
1, 28435, Control_c, 0, 64, 54
1, 28449, Control_c, 0, 64, 56
1, 28464, Control_c, 0, 64, 58
1, 28479, Control_c, 0, 64, 61
1, 28494, Control_c, 0, 64, 63
1, 28509, Control_c, 0, 64, 66
1, 28523, Control_c, 0, 64, 71
1, 28534, Note_off_c, 0, 51, 38
1, 28535, Note_off_c, 0, 58, 41
1, 28538, Control_c, 0, 64, 75
1, 28550, Note_off_c, 0, 55, 37
1, 28553, Control_c, 0, 64, 78
1, 28568, Control_c, 0, 64, 81
1, 28583, Control_c, 0, 64, 85
1, 28598, Control_c, 0, 64, 92
1, 28613, Control_c, 0, 64, 104
1, 28628, Control_c, 0, 64, 116
1, 28643, Control_c, 0, 64, 127
1, 28664, Note_on_c, 0, 51, 34
1, 28664, Note_on_c, 0, 55, 13
1, 28672, Note_on_c, 0, 58, 25
1, 28837, Note_off_c, 0, 51, 36
1, 28864, Note_off_c, 0, 55, 37
1, 28872, Note_off_c, 0, 58, 37
1, 28983, Note_on_c, 0, 58, 33
1, 28991, Note_on_c, 0, 51, 36
1, 28999, Note_on_c, 0, 55, 29
1, 29068, Note_off_c, 0, 63, 42
1, 29114, Note_off_c, 0, 75, 25
1, 29194, Note_off_c, 0, 58, 39
1, 29203, Note_off_c, 0, 51, 36
1, 29219, Note_off_c, 0, 55, 35
1, 29299, Note_on_c, 0, 55, 19
1, 29308, Note_on_c, 0, 51, 24
1, 29308, Note_on_c, 0, 58, 36
1, 29461, Note_on_c, 0, 75, 59
1, 29464, Note_on_c, 0, 63, 44
1, 29476, Note_off_c, 0, 58, 40
1, 29486, Note_off_c, 0, 51, 35
1, 29487, Note_off_c, 0, 55, 40
1, 29531, Note_off_c, 0, 63, 57
1, 29593, Note_off_c, 0, 75, 62
1, 29625, Note_on_c, 0, 77, 67
1, 29644, Control_c, 0, 64, 108
1, 29648, Note_on_c, 0, 51, 33
1, 29648, Note_on_c, 0, 58, 32
1, 29652, Note_on_c, 0, 55, 36
1, 29652, Note_on_c, 0, 65, 49
1, 29659, Control_c, 0, 64, 81
1, 29674, Control_c, 0, 64, 63
1, 29688, Control_c, 0, 64, 10
1, 29703, Control_c, 0, 64, 0
1, 29763, Control_c, 0, 64, 52
1, 29785, Control_c, 0, 64, 63
1, 29800, Control_c, 0, 64, 68
1, 29815, Control_c, 0, 64, 73
1, 29829, Control_c, 0, 64, 79
1, 29844, Control_c, 0, 64, 84
1, 29859, Note_off_c, 0, 58, 41
1, 29859, Control_c, 0, 64, 88
1, 29860, Note_off_c, 0, 51, 36
1, 29867, Note_off_c, 0, 55, 39
1, 29874, Control_c, 0, 64, 93
1, 29889, Control_c, 0, 64, 98
1, 29904, Control_c, 0, 64, 101
1, 29904, Note_off_c, 0, 65, 52
1, 29918, Control_c, 0, 64, 102
1, 29933, Control_c, 0, 64, 102
1, 29961, Note_on_c, 0, 55, 8
1, 29962, Note_on_c, 0, 51, 32
1, 29966, Note_on_c, 0, 58, 35
1, 30000, Note_off_c, 0, 77, 54
1, 30041, Note_off_c, 0, 55, 40
1, 30047, Note_off_c, 0, 51, 37
1, 30048, Note_off_c, 0, 58, 42
1, 30126, Note_on_c, 0, 79, 69
1, 30142, Note_on_c, 0, 67, 59
1, 30180, Note_off_c, 0, 67, 58
1, 30208, Note_off_c, 0, 79, 53
1, 30290, Control_c, 0, 64, 102
1, 30304, Control_c, 0, 64, 97
1, 30312, Note_on_c, 0, 79, 74
1, 30319, Control_c, 0, 64, 88
1, 30320, Note_on_c, 0, 56, 40
1, 30320, Note_on_c, 0, 60, 36
1, 30324, Note_on_c, 0, 67, 41
1, 30334, Control_c, 0, 64, 76
1, 30349, Control_c, 0, 64, 65
1, 30364, Control_c, 0, 64, 45
1, 30378, Control_c, 0, 64, 0
1, 30423, Control_c, 0, 64, 25
1, 30438, Control_c, 0, 64, 58
1, 30452, Control_c, 0, 64, 65
1, 30456, Note_off_c, 0, 56, 58
1, 30467, Control_c, 0, 64, 71
1, 30482, Control_c, 0, 64, 77
1, 30497, Control_c, 0, 64, 82
1, 30503, Note_off_c, 0, 60, 36
1, 30518, Control_c, 0, 64, 85
1, 30533, Control_c, 0, 64, 90
1, 30548, Control_c, 0, 64, 93
1, 30563, Control_c, 0, 64, 95
1, 30577, Control_c, 0, 64, 96
1, 30622, Control_c, 0, 64, 96
1, 30655, Note_on_c, 0, 60, 23
1, 30655, Note_on_c, 0, 56, 26
1, 30683, Note_on_c, 0, 51, 19
1, 30772, Note_off_c, 0, 51, 33
1, 30784, Note_off_c, 0, 67, 37
1, 30798, Note_off_c, 0, 56, 26
1, 30824, Note_off_c, 0, 60, 39
1, 31015, Note_on_c, 0, 60, 23
1, 31019, Note_off_c, 0, 79, 53
1, 31021, Control_c, 0, 64, 92
1, 31033, Note_on_c, 0, 77, 55
1, 31036, Control_c, 0, 64, 82
1, 31045, Note_on_c, 0, 51, 30
1, 31045, Note_on_c, 0, 56, 28
1, 31046, Note_on_c, 0, 65, 42
1, 31053, Control_c, 0, 64, 70
1, 31067, Control_c, 0, 64, 58
1, 31082, Note_off_c, 0, 65, 0
1, 31082, Note_on_c, 0, 65, 15
1, 31082, Control_c, 0, 64, 0
1, 31156, Control_c, 0, 64, 52
1, 31171, Control_c, 0, 64, 64
1, 31186, Control_c, 0, 64, 69
1, 31200, Control_c, 0, 64, 73
1, 31215, Control_c, 0, 64, 76
1, 31219, Note_off_c, 0, 77, 59
1, 31230, Control_c, 0, 64, 79
1, 31245, Control_c, 0, 64, 83
1, 31260, Control_c, 0, 64, 87
1, 31282, Control_c, 0, 64, 91
1, 31295, Note_off_c, 0, 51, 37
1, 31297, Control_c, 0, 64, 92
1, 31304, Note_off_c, 0, 56, 37
1, 31310, Note_off_c, 0, 60, 36
1, 31312, Control_c, 0, 64, 92
1, 31331, Note_off_c, 0, 65, 55
1, 31341, Control_c, 0, 64, 93
1, 31341, Control_c, 0, 67, 123
1, 31356, Control_c, 0, 67, 114
1, 31371, Control_c, 0, 67, 104
1, 31386, Control_c, 0, 67, 93
1, 31400, Control_c, 0, 67, 84
1, 31415, Control_c, 0, 67, 75
1, 31430, Control_c, 0, 67, 66
1, 31439, Note_on_c, 0, 60, 36
1, 31444, Note_on_c, 0, 51, 39
1, 31445, Note_on_c, 0, 56, 21
1, 31445, Control_c, 0, 67, 59
1, 31460, Control_c, 0, 67, 52
1, 31475, Control_c, 0, 64, 93
1, 31475, Control_c, 0, 67, 45
1, 31489, Control_c, 0, 64, 94
1, 31489, Control_c, 0, 67, 36
1, 31492, Note_off_c, 0, 60, 61
1, 31504, Control_c, 0, 67, 24
1, 31511, Note_off_c, 0, 51, 54
1, 31519, Control_c, 0, 64, 89
1, 31519, Control_c, 0, 67, 0
1, 31534, Control_c, 0, 64, 76
1, 31549, Control_c, 0, 64, 59
1, 31551, Note_off_c, 0, 56, 41
1, 31564, Control_c, 0, 64, 0
1, 31591, Note_on_c, 0, 65, 87
1, 31652, Control_c, 0, 64, 53
1, 31667, Control_c, 0, 64, 68
1, 31682, Control_c, 0, 64, 89
1, 31697, Control_c, 0, 64, 127
1, 31702, Note_off_c, 0, 65, 57
1, 31757, Note_on_c, 0, 65, 83
1, 31761, Note_on_c, 0, 56, 93
1, 31763, Note_on_c, 0, 53, 93
1, 31764, Note_on_c, 0, 59, 86
1, 31774, Note_on_c, 0, 50, 83
1, 31775, Note_on_c, 0, 38, 78
1, 31846, Control_c, 0, 64, 102
1, 31861, Control_c, 0, 64, 100
1, 31876, Control_c, 0, 64, 106
1, 31890, Control_c, 0, 64, 127
1, 31985, Note_off_c, 0, 50, 55
1, 31994, Note_off_c, 0, 38, 58
1, 32066, Poly_aftertouch_c, 0, 62, 127
1, 32090, Note_on_c, 0, 38, 70
1, 32094, Note_on_c, 0, 50, 85
1, 32139, Note_off_c, 0, 53, 59
1, 32156, Note_off_c, 0, 56, 53
1, 32167, Note_off_c, 0, 65, 47
1, 32206, Note_off_c, 0, 59, 32
1, 32206, Poly_aftertouch_c, 0, 62, 0
1, 32238, Note_on_c, 0, 59, 64
1, 32239, Note_on_c, 0, 53, 91
1, 32241, Note_on_c, 0, 65, 83
1, 32244, Note_on_c, 0, 56, 80
1, 32247, Note_off_c, 0, 38, 60
1, 32248, Note_off_c, 0, 50, 58
1, 32321, Note_off_c, 0, 59, 56
1, 32324, Note_off_c, 0, 56, 59
1, 32339, Note_off_c, 0, 53, 58
1, 32345, Note_off_c, 0, 65, 57
1, 32413, Note_on_c, 0, 65, 88
1, 32417, Note_on_c, 0, 48, 96
1, 32418, Note_on_c, 0, 36, 88
1, 32419, Note_on_c, 0, 53, 91
1, 32424, Note_on_c, 0, 56, 90
1, 32431, Note_on_c, 0, 60, 84
1, 32446, Control_c, 0, 64, 62
1, 32460, Control_c, 0, 64, 0
1, 32528, Poly_aftertouch_c, 0, 62, 127
1, 32535, Control_c, 0, 64, 58
1, 32549, Control_c, 0, 64, 67
1, 32564, Control_c, 0, 64, 74
1, 32579, Control_c, 0, 64, 81
1, 32594, Control_c, 0, 64, 87
1, 32609, Control_c, 0, 64, 98
1, 32623, Control_c, 0, 64, 127
1, 32666, Note_off_c, 0, 36, 60
1, 32682, Note_off_c, 0, 48, 58
1, 32753, Note_on_c, 0, 48, 89
1, 32753, Note_on_c, 0, 36, 79
1, 32769, Note_off_c, 0, 53, 55
1, 32805, Note_off_c, 0, 60, 52
1, 32821, Note_off_c, 0, 56, 55
1, 32822, Note_off_c, 0, 65, 36
1, 32858, Poly_aftertouch_c, 0, 62, 0
1, 32873, Note_off_c, 0, 36, 59
1, 32890, Note_off_c, 0, 48, 57
1, 32906, Note_on_c, 0, 60, 85
1, 32907, Note_on_c, 0, 53, 91
1, 32910, Note_on_c, 0, 65, 87
1, 32915, Note_on_c, 0, 56, 80
1, 32995, Note_off_c, 0, 53, 62
1, 33001, Note_off_c, 0, 65, 55
1, 33001, Note_off_c, 0, 56, 59
1, 33030, Note_off_c, 0, 60, 59
1, 33062, Control_c, 0, 64, 101
1, 33068, Note_on_c, 0, 65, 85
1, 33073, Note_on_c, 0, 53, 96
1, 33075, Note_on_c, 0, 56, 82
1, 33077, Control_c, 0, 64, 52
1, 33078, Note_on_c, 0, 62, 84
1, 33082, Note_on_c, 0, 47, 81
1, 33083, Note_on_c, 0, 35, 75
1, 33091, Control_c, 0, 64, 0
1, 33165, Control_c, 0, 64, 62
1, 33180, Control_c, 0, 64, 70
1, 33184, Note_off_c, 0, 35, 65
1, 33195, Control_c, 0, 64, 76
1, 33210, Control_c, 0, 64, 82
1, 33225, Control_c, 0, 64, 88
1, 33229, Note_off_c, 0, 47, 63
1, 33239, Control_c, 0, 64, 99
1, 33254, Control_c, 0, 64, 108
1, 33263, Note_off_c, 0, 53, 60
1, 33293, Note_off_c, 0, 65, 55
1, 33346, Note_off_c, 0, 56, 60
1, 33346, Note_off_c, 0, 62, 54
1, 33478, Control_c, 0, 64, 105
1, 33493, Control_c, 0, 64, 91
1, 33506, Control_c, 0, 64, 73
1, 33528, Control_c, 0, 64, 55
1, 33543, Control_c, 0, 64, 0
1, 33553, Note_on_c, 0, 56, 33
1, 33556, Note_on_c, 0, 50, 31
1, 33568, Note_on_c, 0, 53, 27
1, 33573, Note_on_c, 0, 47, 40
1, 33632, Control_c, 0, 64, 31
1, 33647, Control_c, 0, 64, 62
1, 33662, Control_c, 0, 64, 67
1, 33676, Control_c, 0, 64, 71
1, 33691, Control_c, 0, 64, 78
1, 33706, Control_c, 0, 64, 83
1, 33720, Control_c, 0, 64, 85
1, 33735, Control_c, 0, 64, 85
1, 33748, Note_off_c, 0, 47, 44
1, 33749, Note_off_c, 0, 53, 40
1, 33749, Note_off_c, 0, 50, 33
1, 33750, Control_c, 0, 64, 87
1, 33755, Note_off_c, 0, 56, 40
1, 33765, Control_c, 0, 64, 92
1, 33780, Control_c, 0, 64, 97
1, 33794, Control_c, 0, 64, 100
1, 33809, Control_c, 0, 64, 101
1, 33838, Control_c, 0, 64, 101
1, 33853, Control_c, 0, 64, 89
1, 33856, Note_on_c, 0, 77, 69
1, 33868, Control_c, 0, 64, 73
1, 33874, Note_on_c, 0, 56, 36
1, 33877, Note_on_c, 0, 65, 46
1, 33882, Note_on_c, 0, 47, 41
1, 33882, Note_on_c, 0, 53, 28
1, 33883, Control_c, 0, 64, 49
1, 33892, Poly_aftertouch_c, 0, 50, 127
1, 33898, Control_c, 0, 64, 0
1, 33958, Control_c, 0, 64, 24
1, 33973, Control_c, 0, 64, 64
1, 33987, Control_c, 0, 64, 75
1, 34002, Control_c, 0, 64, 92
1, 34017, Control_c, 0, 64, 104
1, 34032, Control_c, 0, 64, 107
1, 34046, Control_c, 0, 64, 127
1, 34066, Note_off_c, 0, 47, 36
1, 34090, Note_off_c, 0, 53, 39
1, 34098, Poly_aftertouch_c, 0, 50, 0
1, 34109, Note_off_c, 0, 56, 30
1, 34135, Control_c, 0, 64, 90
1, 34150, Control_c, 0, 64, 74
1, 34161, Note_on_c, 0, 56, 27
1, 34165, Control_c, 0, 64, 69
1, 34180, Control_c, 0, 64, 69
1, 34182, Note_on_c, 0, 53, 20
1, 34185, Note_on_c, 0, 47, 41
1, 34194, Control_c, 0, 64, 74
1, 34201, Poly_aftertouch_c, 0, 50, 127
1, 34209, Control_c, 0, 64, 88
1, 34224, Control_c, 0, 64, 127
1, 34274, Note_off_c, 0, 47, 52
1, 34345, Poly_aftertouch_c, 0, 50, 0
1, 34347, Note_off_c, 0, 53, 40
1, 34350, Note_off_c, 0, 56, 42
1, 34514, Control_c, 0, 64, 75
1, 34518, Note_on_c, 0, 56, 35
1, 34521, Note_on_c, 0, 46, 46
1, 34529, Control_c, 0, 64, 48
1, 34537, Note_on_c, 0, 50, 31
1, 34540, Note_on_c, 0, 53, 15
1, 34543, Control_c, 0, 64, 0
1, 34603, Control_c, 0, 64, 30
1, 34617, Control_c, 0, 64, 61
1, 34632, Control_c, 0, 64, 67
1, 34647, Control_c, 0, 64, 71
1, 34661, Control_c, 0, 64, 73
1, 34676, Control_c, 0, 64, 77
1, 34691, Control_c, 0, 64, 84
1, 34692, Note_off_c, 0, 46, 41
1, 34706, Control_c, 0, 64, 92
1, 34721, Control_c, 0, 64, 97
1, 34734, Note_off_c, 0, 56, 34
1, 34736, Control_c, 0, 64, 97
1, 34740, Note_off_c, 0, 53, 35
1, 34750, Note_off_c, 0, 50, 26
1, 34751, Control_c, 0, 64, 98
1, 34756, Note_off_c, 0, 77, 56
1, 34758, Note_off_c, 0, 65, 51
1, 34765, Control_c, 0, 64, 101
1, 34780, Control_c, 0, 64, 105
1, 34795, Control_c, 0, 64, 110
1, 34810, Control_c, 0, 64, 111
1, 34822, Note_on_c, 0, 46, 52
1, 34825, Control_c, 0, 64, 113
1, 34826, Note_on_c, 0, 50, 6
1, 34827, Note_on_c, 0, 56, 34
1, 34835, Note_on_c, 0, 53, 21
1, 34840, Control_c, 0, 64, 116
1, 34855, Control_c, 0, 64, 119
1, 34869, Control_c, 0, 64, 125
1, 34884, Control_c, 0, 64, 127
1, 34977, Note_on_c, 0, 77, 70
1, 34987, Note_off_c, 0, 46, 32
1, 34989, Note_off_c, 0, 56, 37
1, 34997, Note_on_c, 0, 65, 47
1, 34999, Note_off_c, 0, 50, 33
1, 35005, Note_off_c, 0, 53, 40
1, 35032, Note_off_c, 0, 65, 55
1, 35145, Note_off_c, 0, 77, 57
1, 35152, Note_on_c, 0, 79, 71
1, 35159, Control_c, 0, 64, 99
1, 35174, Control_c, 0, 64, 78
1, 35181, Note_on_c, 0, 67, 52
1, 35188, Note_on_c, 0, 46, 17
1, 35188, Note_on_c, 0, 56, 26
1, 35189, Control_c, 0, 64, 63
1, 35192, Note_on_c, 0, 50, 27
1, 35204, Control_c, 0, 64, 0
1, 35225, Poly_aftertouch_c, 0, 53, 127
1, 35292, Control_c, 0, 64, 50
1, 35307, Control_c, 0, 64, 65
1, 35322, Control_c, 0, 64, 74
1, 35332, Note_off_c, 0, 46, 35
1, 35337, Control_c, 0, 64, 81
1, 35352, Control_c, 0, 64, 87
1, 35353, Note_off_c, 0, 56, 39
1, 35366, Control_c, 0, 64, 94
1, 35381, Control_c, 0, 64, 110
1, 35385, Poly_aftertouch_c, 0, 53, 0
1, 35396, Control_c, 0, 64, 127
1, 35439, Note_off_c, 0, 50, 0
1, 35451, Note_off_c, 0, 67, 52
1, 35453, Note_off_c, 0, 79, 58
1, 35467, Note_on_c, 0, 56, 35
1, 35477, Poly_aftertouch_c, 0, 50, 127
1, 35478, Poly_aftertouch_c, 0, 53, 127
1, 35486, Note_on_c, 0, 46, 30
1, 35563, Note_off_c, 0, 46, 37
1, 35574, Poly_aftertouch_c, 0, 50, 0
1, 35596, Poly_aftertouch_c, 0, 53, 0
1, 35639, Note_on_c, 0, 80, 61
1, 35655, Note_off_c, 0, 56, 40
1, 35689, Poly_aftertouch_c, 0, 68, 127
1, 35704, Note_off_c, 0, 80, 61
1, 35735, Poly_aftertouch_c, 0, 68, 0
1, 35822, Note_on_c, 0, 80, 67
1, 35833, Control_c, 0, 64, 85
1, 35842, Note_on_c, 0, 49, 37
1, 35845, Note_on_c, 0, 55, 35
1, 35849, Control_c, 0, 64, 66
1, 35860, Note_on_c, 0, 68, 39
1, 35863, Note_on_c, 0, 52, 30
1, 35863, Control_c, 0, 64, 0
1, 35874, Note_on_c, 0, 46, 22
1, 35967, Control_c, 0, 64, 54
1, 35982, Control_c, 0, 64, 64
1, 35997, Control_c, 0, 64, 68
1, 36011, Control_c, 0, 64, 70
1, 36026, Control_c, 0, 64, 75
1, 36041, Control_c, 0, 64, 82
1, 36056, Control_c, 0, 64, 93
1, 36071, Control_c, 0, 64, 107
1, 36071, Note_off_c, 0, 46, 37
1, 36086, Control_c, 0, 64, 110
1, 36104, Note_off_c, 0, 55, 39
1, 36157, Note_off_c, 0, 52, 0
1, 36169, Note_off_c, 0, 49, 0
1, 36181, Note_on_c, 0, 52, 15
1, 36187, Note_on_c, 0, 49, 17
1, 36193, Note_on_c, 0, 55, 6
1, 36226, Note_on_c, 0, 46, 22
1, 36233, Control_c, 0, 64, 111
1, 36315, Note_off_c, 0, 46, 31
1, 36375, Note_off_c, 0, 49, 32
1, 36380, Note_off_c, 0, 52, 36
1, 36382, Note_off_c, 0, 55, 37
1, 36400, Note_off_c, 0, 68, 44
1, 36522, Control_c, 0, 64, 107
1, 36530, Note_on_c, 0, 55, 24
1, 36536, Note_on_c, 0, 79, 46
1, 36537, Control_c, 0, 64, 94
1, 36541, Note_on_c, 0, 49, 24
1, 36546, Note_on_c, 0, 52, 19
1, 36552, Control_c, 0, 64, 75
1, 36554, Note_on_c, 0, 67, 36
1, 36557, Note_on_c, 0, 46, 34
1, 36567, Control_c, 0, 64, 62
1, 36582, Control_c, 0, 64, 0
1, 36657, Control_c, 0, 64, 20
1, 36671, Control_c, 0, 64, 60
1, 36686, Control_c, 0, 64, 69
1, 36697, Note_off_c, 0, 79, 58
1, 36701, Control_c, 0, 64, 77
1, 36716, Control_c, 0, 64, 80
1, 36719, Note_off_c, 0, 80, 43
1, 36731, Control_c, 0, 64, 80
1, 36745, Control_c, 0, 64, 83
1, 36760, Control_c, 0, 64, 89
1, 36775, Control_c, 0, 64, 96
1, 36781, Note_off_c, 0, 46, 41
1, 36790, Control_c, 0, 64, 101
1, 36791, Note_off_c, 0, 55, 42
1, 36792, Note_off_c, 0, 67, 53
1, 36796, Note_off_c, 0, 49, 36
1, 36805, Control_c, 0, 64, 103
1, 36810, Note_off_c, 0, 52, 35
1, 36819, Control_c, 0, 64, 105
1, 36834, Control_c, 0, 64, 109
1, 36849, Control_c, 0, 64, 115
1, 36864, Control_c, 0, 64, 118
1, 36879, Control_c, 0, 64, 119
1, 36887, Note_on_c, 0, 55, 49
1, 36890, Note_on_c, 0, 49, 25
1, 36893, Note_on_c, 0, 46, 45
1, 36894, Control_c, 0, 64, 127
1, 36949, Note_off_c, 0, 55, 58
1, 36952, Poly_aftertouch_c, 0, 52, 127
1, 36981, Note_off_c, 0, 46, 51
1, 36991, Poly_aftertouch_c, 0, 52, 0
1, 37012, Control_c, 0, 64, 85
1, 37027, Control_c, 0, 64, 21
1, 37028, Note_off_c, 0, 49, 39
1, 37036, Note_on_c, 0, 67, 85
1, 37040, Note_on_c, 0, 55, 88
1, 37041, Note_on_c, 0, 61, 77
1, 37042, Control_c, 0, 64, 0
1, 37043, Note_on_c, 0, 64, 74
1, 37101, Control_c, 0, 64, 29
1, 37114, Note_off_c, 0, 55, 62
1, 37116, Control_c, 0, 64, 68
1, 37126, Note_off_c, 0, 67, 60
1, 37130, Control_c, 0, 64, 127
1, 37132, Note_off_c, 0, 61, 61
1, 37142, Note_off_c, 0, 64, 59
1, 37189, Note_on_c, 0, 64, 73
1, 37195, Note_on_c, 0, 69, 89
1, 37195, Note_on_c, 0, 57, 96
1, 37198, Note_on_c, 0, 45, 82
1, 37200, Note_on_c, 0, 33, 80
1, 37201, Note_on_c, 0, 61, 79
1, 37242, Note_on_c, 0, 66, 51
1, 37249, Control_c, 0, 64, 125
1, 37271, Control_c, 0, 64, 63
1, 37286, Control_c, 0, 64, 0
1, 37331, Control_c, 0, 64, 62
1, 37345, Control_c, 0, 64, 82
1, 37360, Control_c, 0, 64, 127
1, 37387, Note_off_c, 0, 66, 33
1, 37457, Note_off_c, 0, 33, 61
1, 37465, Note_off_c, 0, 45, 59
1, 37535, Note_on_c, 0, 45, 89
1, 37540, Note_on_c, 0, 33, 75
1, 37552, Note_off_c, 0, 57, 57
1, 37559, Note_off_c, 0, 69, 55
1, 37576, Note_off_c, 0, 61, 57
1, 37603, Note_off_c, 0, 64, 36
1, 37632, Note_off_c, 0, 33, 60
1, 37641, Note_off_c, 0, 45, 62
1, 37664, Note_on_c, 0, 57, 87
1, 37665, Note_on_c, 0, 61, 89
1, 37665, Note_on_c, 0, 69, 86
1, 37667, Note_on_c, 0, 64, 76
1, 37726, Note_off_c, 0, 69, 63
1, 37737, Note_off_c, 0, 57, 60
1, 37753, Note_off_c, 0, 61, 61
1, 37774, Note_off_c, 0, 64, 63
1, 37821, Note_on_c, 0, 58, 96
1, 37821, Note_on_c, 0, 64, 72
1, 37821, Note_on_c, 0, 70, 92
1, 37826, Note_on_c, 0, 43, 88
1, 37828, Note_on_c, 0, 31, 80
1, 37828, Note_on_c, 0, 61, 88
1, 37850, Control_c, 0, 64, 72
1, 37865, Control_c, 0, 64, 0
1, 38035, Control_c, 0, 64, 51
1, 38050, Control_c, 0, 64, 64
1, 38065, Control_c, 0, 64, 72
1, 38079, Control_c, 0, 64, 99
1, 38080, Note_off_c, 0, 31, 63
1, 38088, Note_off_c, 0, 43, 57
1, 38094, Control_c, 0, 64, 127
1, 38151, Note_off_c, 0, 70, 54
1, 38154, Note_off_c, 0, 58, 57
1, 38155, Note_on_c, 0, 43, 86
1, 38157, Note_on_c, 0, 31, 77
1, 38182, Note_off_c, 0, 64, 60
1, 38205, Note_off_c, 0, 61, 58
1, 38221, Note_off_c, 0, 31, 63
1, 38233, Note_off_c, 0, 43, 60
1, 38292, Note_on_c, 0, 64, 81
1, 38295, Note_on_c, 0, 61, 87
1, 38295, Note_on_c, 0, 58, 91
1, 38298, Note_on_c, 0, 70, 84
1, 38388, Note_off_c, 0, 70, 56
1, 38394, Note_off_c, 0, 61, 59
1, 38399, Note_off_c, 0, 58, 60
1, 38422, Note_off_c, 0, 64, 60
1, 38476, Note_on_c, 0, 57, 93
1, 38477, Note_on_c, 0, 69, 91
1, 38480, Note_on_c, 0, 62, 83
1, 38480, Control_c, 0, 64, 106
1, 38482, Note_on_c, 0, 66, 86
1, 38490, Note_on_c, 0, 42, 90
1, 38492, Note_on_c, 0, 30, 82
1, 38495, Control_c, 0, 64, 54
1, 38509, Control_c, 0, 64, 0
1, 38599, Control_c, 0, 64, 62
1, 38610, Note_off_c, 0, 30, 64
1, 38614, Control_c, 0, 64, 68
1, 38628, Control_c, 0, 64, 73
1, 38643, Control_c, 0, 64, 81
1, 38644, Note_off_c, 0, 42, 62
1, 38658, Control_c, 0, 64, 93
1, 38668, Note_off_c, 0, 57, 58
1, 38673, Control_c, 0, 64, 114
1, 38687, Note_off_c, 0, 69, 60
1, 38688, Control_c, 0, 64, 127
1, 38733, Note_off_c, 0, 62, 55
1, 38759, Note_off_c, 0, 66, 58
1, 38962, Control_c, 0, 64, 77
1, 38970, Note_on_c, 0, 57, 38
1, 38977, Control_c, 0, 64, 51
1, 38990, Note_on_c, 0, 54, 22
1, 38991, Control_c, 0, 64, 0
1, 38997, Note_on_c, 0, 62, 28
1, 39037, Control_c, 0, 64, 32
1, 39052, Control_c, 0, 64, 65
1, 39066, Control_c, 0, 64, 84
1, 39081, Control_c, 0, 64, 127
1, 39147, Note_off_c, 0, 57, 40
1, 39156, Note_off_c, 0, 54, 39
1, 39183, Note_off_c, 0, 62, 41
1, 39283, Note_on_c, 0, 81, 73
1, 39288, Control_c, 0, 64, 119
1, 39303, Control_c, 0, 64, 78
1, 39305, Note_on_c, 0, 54, 33
1, 39305, Note_on_c, 0, 57, 31
1, 39315, Note_on_c, 0, 69, 50
1, 39318, Control_c, 0, 64, 59
1, 39321, Note_on_c, 0, 62, 37
1, 39332, Control_c, 0, 64, 0
1, 39407, Control_c, 0, 64, 57
1, 39422, Control_c, 0, 64, 69
1, 39437, Control_c, 0, 64, 77
1, 39451, Control_c, 0, 64, 83
1, 39466, Control_c, 0, 64, 88
1, 39481, Control_c, 0, 64, 99
1, 39496, Control_c, 0, 64, 127
1, 39525, Note_off_c, 0, 62, 38
1, 39527, Note_off_c, 0, 54, 30
1, 39563, Control_c, 0, 64, 102
1, 39578, Control_c, 0, 64, 80
1, 39579, Note_off_c, 0, 57, 0
1, 39592, Control_c, 0, 64, 71
1, 39606, Note_on_c, 0, 62, 31
1, 39607, Control_c, 0, 64, 70
1, 39612, Note_on_c, 0, 54, 15
1, 39615, Poly_aftertouch_c, 0, 57, 127
1, 39622, Control_c, 0, 64, 74
1, 39637, Control_c, 0, 64, 83
1, 39652, Control_c, 0, 64, 127
1, 39765, Note_off_c, 0, 54, 37
1, 39776, Poly_aftertouch_c, 0, 57, 0
1, 39798, Note_off_c, 0, 62, 40
1, 39920, Note_on_c, 0, 54, 28
1, 39922, Note_on_c, 0, 57, 29
1, 39925, Note_on_c, 0, 62, 39
1, 40065, Note_off_c, 0, 81, 55
1, 40092, Note_off_c, 0, 54, 38
1, 40099, Note_off_c, 0, 62, 37
1, 40104, Note_off_c, 0, 57, 37
1, 40200, Note_off_c, 0, 69, 45
1, 40245, Note_on_c, 0, 54, 23
1, 40262, Note_on_c, 0, 57, 30
1, 40274, Note_on_c, 0, 62, 25
1, 40391, Note_off_c, 0, 54, 37
1, 40394, Note_off_c, 0, 62, 34
1, 40401, Note_on_c, 0, 81, 60
1, 40410, Note_off_c, 0, 57, 37
1, 40411, Note_on_c, 0, 69, 35
1, 40452, Note_off_c, 0, 69, 51
1, 40548, Note_off_c, 0, 81, 59
1, 40551, Note_on_c, 0, 83, 66
1, 40563, Control_c, 0, 64, 89
1, 40564, Note_on_c, 0, 54, 28
1, 40570, Note_on_c, 0, 57, 26
1, 40578, Note_on_c, 0, 62, 28
1, 40578, Control_c, 0, 64, 65
1, 40592, Note_on_c, 0, 71, 42
1, 40593, Control_c, 0, 64, 46
1, 40608, Control_c, 0, 64, 26
1, 40623, Control_c, 0, 64, 36
1, 40638, Control_c, 0, 64, 49
1, 40653, Control_c, 0, 64, 60
1, 40668, Control_c, 0, 64, 65
1, 40683, Control_c, 0, 64, 70
1, 40698, Control_c, 0, 64, 77
1, 40712, Control_c, 0, 64, 86
1, 40727, Control_c, 0, 64, 100
1, 40742, Control_c, 0, 64, 127
1, 40757, Note_off_c, 0, 54, 39
1, 40767, Note_off_c, 0, 62, 41
1, 40769, Note_off_c, 0, 57, 38
1, 40809, Note_off_c, 0, 71, 43
1, 40893, Note_on_c, 0, 54, 23
1, 40894, Note_on_c, 0, 62, 31
1, 40912, Note_on_c, 0, 57, 20
1, 40949, Note_off_c, 0, 83, 48
1, 40957, Note_off_c, 0, 57, 50
1, 41030, Note_off_c, 0, 54, 33
1, 41032, Note_on_c, 0, 84, 62
1, 41047, Note_off_c, 0, 62, 41
1, 41051, Note_on_c, 0, 72, 43
1, 41103, Note_off_c, 0, 72, 61
1, 41123, Note_off_c, 0, 84, 63
1, 41246, Note_on_c, 0, 84, 70
1, 41252, Note_on_c, 0, 62, 35
1, 41252, Control_c, 0, 64, 104
1, 41253, Note_on_c, 0, 72, 51
1, 41254, Note_on_c, 0, 53, 31
1, 41258, Note_on_c, 0, 56, 31
1, 41267, Control_c, 0, 64, 78
1, 41282, Control_c, 0, 64, 63
1, 41297, Control_c, 0, 64, 31
1, 41311, Control_c, 0, 64, 0
1, 41371, Control_c, 0, 64, 43
1, 41386, Control_c, 0, 64, 63
1, 41401, Control_c, 0, 64, 71
1, 41416, Control_c, 0, 64, 80
1, 41431, Control_c, 0, 64, 95
1, 41446, Control_c, 0, 64, 127
1, 41536, Note_off_c, 0, 56, 38
1, 41540, Note_off_c, 0, 53, 38
1, 41595, Control_c, 0, 67, 8
1, 41600, Note_off_c, 0, 62, 0
1, 41609, Control_c, 0, 67, 13
1, 41619, Note_on_c, 0, 62, 23
1, 41623, Note_on_c, 0, 53, 28
1, 41624, Control_c, 0, 67, 18
1, 41635, Note_on_c, 0, 56, 34
1, 41639, Control_c, 0, 67, 24
1, 41653, Control_c, 0, 67, 29
1, 41668, Control_c, 0, 67, 35
1, 41683, Control_c, 0, 67, 41
1, 41697, Note_off_c, 0, 72, 30
1, 41698, Control_c, 0, 67, 45
1, 41713, Control_c, 0, 67, 48
1, 41727, Control_c, 0, 67, 50
1, 41742, Control_c, 0, 67, 51
1, 41812, Note_off_c, 0, 56, 37
1, 41826, Note_off_c, 0, 53, 40
1, 41837, Note_off_c, 0, 62, 39
1, 41953, Note_on_c, 0, 83, 57
1, 41958, Note_on_c, 0, 53, 23
1, 41958, Note_on_c, 0, 62, 31
1, 41964, Note_on_c, 0, 56, 33
1, 41977, Note_on_c, 0, 71, 36
1, 41985, Note_off_c, 0, 84, 36
1, 41986, Control_c, 0, 64, 92
1, 42001, Control_c, 0, 64, 68
1, 42016, Control_c, 0, 64, 50
1, 42031, Control_c, 0, 64, 0
1, 42075, Control_c, 0, 67, 52
1, 42090, Control_c, 0, 64, 40
1, 42105, Control_c, 0, 64, 58
1, 42120, Control_c, 0, 64, 64
1, 42134, Control_c, 0, 64, 67
1, 42149, Control_c, 0, 64, 71
1, 42164, Control_c, 0, 64, 76
1, 42173, Note_off_c, 0, 53, 39
1, 42179, Control_c, 0, 64, 81
1, 42184, Note_off_c, 0, 62, 41
1, 42185, Note_off_c, 0, 56, 37
1, 42194, Control_c, 0, 64, 91
1, 42209, Control_c, 0, 64, 101
1, 42224, Control_c, 0, 64, 119
1, 42239, Control_c, 0, 64, 127
1, 42268, Note_on_c, 0, 56, 33
1, 42269, Control_c, 0, 67, 51
1, 42276, Note_on_c, 0, 53, 31
1, 42283, Control_c, 0, 67, 51
1, 42290, Note_on_c, 0, 62, 40
1, 42313, Control_c, 0, 67, 50
1, 42343, Control_c, 0, 67, 50
1, 42388, Control_c, 0, 67, 49
1, 42395, Note_off_c, 0, 53, 36
1, 42402, Control_c, 0, 67, 49
1, 42413, Note_off_c, 0, 56, 36
1, 42413, Note_off_c, 0, 62, 41
1, 42432, Control_c, 0, 67, 48
1, 42462, Control_c, 0, 67, 48
1, 42549, Note_off_c, 0, 83, 51
1, 42558, Control_c, 0, 67, 47
1, 42572, Control_c, 0, 67, 47
1, 42578, Note_off_c, 0, 71, 42
1, 42587, Note_on_c, 0, 59, 47
1, 42587, Control_c, 0, 64, 114
1, 42587, Control_c, 0, 67, 46
1, 42596, Note_on_c, 0, 53, 38
1, 42600, Note_on_c, 0, 50, 38
1, 42602, Control_c, 0, 64, 85
1, 42602, Control_c, 0, 67, 45
1, 42617, Control_c, 0, 64, 67
1, 42617, Control_c, 0, 67, 44
1, 42632, Control_c, 0, 64, 43
1, 42632, Control_c, 0, 67, 43
1, 42647, Control_c, 0, 64, 0
1, 42647, Control_c, 0, 67, 42
1, 42662, Control_c, 0, 67, 41
1, 42676, Control_c, 0, 67, 37
1, 42691, Control_c, 0, 64, 35
1, 42691, Control_c, 0, 67, 32
1, 42706, Control_c, 0, 64, 56
1, 42706, Control_c, 0, 67, 28
1, 42721, Control_c, 0, 64, 63
1, 42721, Control_c, 0, 67, 24
1, 42736, Control_c, 0, 64, 65
1, 42736, Control_c, 0, 67, 19
1, 42750, Control_c, 0, 64, 68
1, 42750, Control_c, 0, 67, 13
1, 42765, Control_c, 0, 64, 73
1, 42765, Control_c, 0, 67, 0
1, 42780, Control_c, 0, 64, 80
1, 42795, Control_c, 0, 64, 91
1, 42807, Note_off_c, 0, 50, 40
1, 42809, Control_c, 0, 64, 103
1, 42823, Note_off_c, 0, 59, 37
1, 42824, Control_c, 0, 64, 118
1, 42828, Note_off_c, 0, 53, 34
1, 42839, Control_c, 0, 64, 127
1, 42899, Note_on_c, 0, 59, 49
1, 42900, Note_on_c, 0, 53, 37
1, 42907, Note_on_c, 0, 50, 46
1, 43127, Note_off_c, 0, 59, 37
1, 43141, Note_off_c, 0, 53, 39
1, 43142, Note_off_c, 0, 50, 34
1, 43201, Note_on_c, 0, 83, 81
1, 43210, Note_on_c, 0, 53, 34
1, 43214, Note_on_c, 0, 50, 27
1, 43218, Note_on_c, 0, 71, 59
1, 43227, Note_on_c, 0, 59, 47
1, 43434, Note_off_c, 0, 53, 40
1, 43440, Note_off_c, 0, 50, 37
1, 43446, Note_off_c, 0, 59, 36
1, 43499, Note_off_c, 0, 71, 47
1, 43538, Note_on_c, 0, 50, 34
1, 43538, Note_on_c, 0, 59, 45
1, 43544, Note_on_c, 0, 53, 45
1, 43589, Note_off_c, 0, 53, 62
1, 43610, Note_off_c, 0, 50, 54
1, 43610, Note_off_c, 0, 59, 54
1, 43666, Note_on_c, 0, 84, 79
1, 43681, Note_off_c, 0, 83, 57
1, 43689, Note_on_c, 0, 72, 56
1, 43726, Note_off_c, 0, 72, 61
1, 43842, Note_on_c, 0, 85, 92
1, 43847, Note_on_c, 0, 73, 78
1, 43866, Note_on_c, 0, 56, 41
1, 43869, Note_on_c, 0, 50, 46
1, 43874, Note_on_c, 0, 47, 39
1, 43887, Control_c, 0, 64, 83
1, 43890, Note_off_c, 0, 84, 59
1, 43902, Control_c, 0, 64, 63
1, 43917, Control_c, 0, 64, 0
1, 43976, Control_c, 0, 64, 39
1, 43991, Control_c, 0, 64, 60
1, 44012, Control_c, 0, 64, 69
1, 44027, Control_c, 0, 64, 78
1, 44042, Control_c, 0, 64, 87
1, 44057, Control_c, 0, 64, 93
1, 44072, Control_c, 0, 64, 103
1, 44084, Note_off_c, 0, 56, 58
1, 44087, Control_c, 0, 64, 127
1, 44102, Note_off_c, 0, 47, 42
1, 44135, Note_off_c, 0, 50, 0
1, 44155, Note_on_c, 0, 50, 27
1, 44155, Note_on_c, 0, 56, 58
1, 44164, Note_on_c, 0, 47, 58
1, 44286, Note_off_c, 0, 73, 37
1, 44375, Note_off_c, 0, 47, 36
1, 44391, Note_off_c, 0, 56, 37
1, 44409, Note_off_c, 0, 50, 37
1, 44472, Note_on_c, 0, 86, 86
1, 44481, Note_on_c, 0, 56, 50
1, 44483, Note_on_c, 0, 50, 39
1, 44484, Note_on_c, 0, 74, 66
1, 44489, Note_on_c, 0, 47, 54
1, 44594, Note_off_c, 0, 85, 34
1, 44653, Note_off_c, 0, 47, 56
1, 44688, Note_off_c, 0, 56, 55
1, 44709, Note_off_c, 0, 50, 39
1, 44787, Note_on_c, 0, 56, 70
1, 44793, Note_on_c, 0, 47, 63
1, 44802, Note_on_c, 0, 50, 56
1, 44868, Note_off_c, 0, 47, 63
1, 44930, Note_off_c, 0, 56, 53
1, 44966, Note_off_c, 0, 50, 30
1, 45076, Note_on_c, 0, 53, 76
1, 45081, Note_on_c, 0, 44, 63
1, 45084, Note_on_c, 0, 47, 68
1, 45101, Control_c, 0, 64, 82
1, 45116, Control_c, 0, 64, 55
1, 45131, Control_c, 0, 64, 0
1, 45175, Control_c, 0, 64, 34
1, 45190, Control_c, 0, 64, 63
1, 45205, Control_c, 0, 64, 72
1, 45219, Control_c, 0, 64, 89
1, 45234, Control_c, 0, 64, 127
1, 45235, Note_off_c, 0, 86, 37
1, 45244, Note_off_c, 0, 74, 46
1, 45294, Note_off_c, 0, 44, 55
1, 45307, Note_off_c, 0, 53, 61
1, 45324, Note_off_c, 0, 47, 59
1, 45390, Note_on_c, 0, 53, 81
1, 45393, Note_on_c, 0, 47, 64
1, 45401, Note_on_c, 0, 44, 65
1, 45624, Note_off_c, 0, 53, 60
1, 45658, Note_off_c, 0, 47, 54
1, 45664, Note_off_c, 0, 44, 38
1, 45698, Note_on_c, 0, 86, 92
1, 45710, Note_on_c, 0, 74, 78
1, 45711, Note_on_c, 0, 44, 42
1, 45720, Note_on_c, 0, 47, 42
1, 45722, Note_on_c, 0, 53, 58
1, 45880, Note_off_c, 0, 53, 58
1, 45891, Note_off_c, 0, 47, 51
1, 45906, Note_off_c, 0, 44, 36
1, 45983, Note_on_c, 0, 44, 51
1, 45993, Note_off_c, 0, 74, 62
1, 45994, Note_on_c, 0, 53, 71
1, 46003, Note_on_c, 0, 47, 69
1, 46102, Note_off_c, 0, 44, 53
1, 46124, Note_off_c, 0, 86, 60
1, 46138, Note_on_c, 0, 87, 86
1, 46144, Note_on_c, 0, 75, 87
1, 46189, Note_off_c, 0, 47, 35
1, 46194, Note_off_c, 0, 53, 61
1, 46270, Note_off_c, 0, 75, 62
1, 46319, Note_on_c, 0, 88, 96
1, 46320, Note_on_c, 0, 53, 74
1, 46321, Note_on_c, 0, 76, 89
1, 46328, Note_on_c, 0, 43, 69
1, 46331, Note_on_c, 0, 47, 67
1, 46333, Control_c, 0, 64, 91
1, 46348, Control_c, 0, 64, 62
1, 46363, Note_off_c, 0, 87, 58
1, 46363, Control_c, 0, 64, 0
1, 46422, Control_c, 0, 64, 55
1, 46437, Control_c, 0, 64, 70
1, 46451, Control_c, 0, 64, 94
1, 46466, Control_c, 0, 64, 127
1, 46533, Note_off_c, 0, 43, 56
1, 46538, Note_off_c, 0, 53, 63
1, 46549, Note_off_c, 0, 47, 59
1, 46614, Note_on_c, 0, 47, 60
1, 46615, Note_on_c, 0, 53, 69
1, 46625, Note_on_c, 0, 43, 63
1, 46652, Note_off_c, 0, 76, 57
1, 46844, Note_off_c, 0, 53, 58
1, 46845, Note_off_c, 0, 43, 51
1, 46851, Note_off_c, 0, 47, 53
1, 46919, Note_on_c, 0, 89, 93
1, 46926, Note_on_c, 0, 77, 97
1, 46933, Note_on_c, 0, 53, 71
1, 46940, Note_on_c, 0, 43, 53
1, 46942, Note_on_c, 0, 47, 60
1, 47021, Control_c, 0, 64, 89
1, 47036, Control_c, 0, 64, 65
1, 47051, Control_c, 0, 64, 45
1, 47066, Control_c, 0, 64, 43
1, 47080, Control_c, 0, 64, 55
1, 47095, Control_c, 0, 64, 64
1, 47110, Control_c, 0, 64, 72
1, 47125, Control_c, 0, 64, 90
1, 47136, Note_off_c, 0, 88, 0
1, 47140, Control_c, 0, 64, 127
1, 47151, Note_off_c, 0, 43, 58
1, 47161, Note_off_c, 0, 53, 62
1, 47170, Note_off_c, 0, 47, 60
1, 47173, Poly_aftertouch_c, 0, 88, 127
1, 47238, Note_on_c, 0, 53, 67
1, 47241, Note_on_c, 0, 47, 58
1, 47250, Note_on_c, 0, 43, 65
1, 47360, Note_off_c, 0, 47, 60
1, 47419, Note_off_c, 0, 43, 47
1, 47420, Note_off_c, 0, 53, 56
1, 47445, Poly_aftertouch_c, 0, 88, 0
1, 47541, Note_on_c, 0, 53, 86
1, 47551, Note_on_c, 0, 44, 77
1, 47554, Note_on_c, 0, 48, 68
1, 47554, Control_c, 0, 64, 71
1, 47569, Control_c, 0, 64, 0
1, 47628, Control_c, 0, 64, 29
1, 47643, Control_c, 0, 64, 67
1, 47658, Control_c, 0, 64, 90
1, 47673, Control_c, 0, 64, 127
1, 47754, Note_off_c, 0, 53, 62
1, 47762, Note_off_c, 0, 44, 60
1, 47774, Note_off_c, 0, 48, 58
1, 47821, Note_off_c, 0, 77, 56
1, 47828, Note_off_c, 0, 89, 58
1, 47846, Note_on_c, 0, 53, 77
1, 47858, Note_on_c, 0, 44, 70
1, 47861, Note_on_c, 0, 48, 52
1, 48068, Note_off_c, 0, 53, 57
1, 48090, Note_off_c, 0, 44, 39
1, 48120, Note_off_c, 0, 48, 35
1, 48172, Note_on_c, 0, 89, 95
1, 48177, Note_on_c, 0, 77, 95
1, 48183, Note_on_c, 0, 53, 73
1, 48191, Note_on_c, 0, 44, 64
1, 48194, Note_on_c, 0, 48, 61
1, 48229, Control_c, 0, 64, 89
1, 48244, Control_c, 0, 64, 84
1, 48259, Control_c, 0, 64, 85
1, 48274, Control_c, 0, 64, 92
1, 48288, Control_c, 0, 64, 113
1, 48303, Control_c, 0, 64, 127
1, 48376, Note_off_c, 0, 44, 58
1, 48382, Note_off_c, 0, 53, 58
1, 48424, Note_off_c, 0, 48, 36
1, 48472, Poly_aftertouch_c, 0, 88, 127
1, 48519, Note_off_c, 0, 77, 56
1, 48520, Note_on_c, 0, 53, 81
1, 48528, Note_on_c, 0, 44, 65
1, 48528, Poly_aftertouch_c, 0, 83, 127
1, 48528, Note_on_c, 0, 48, 68
1, 48537, Note_off_c, 0, 89, 58
1, 48567, Poly_aftertouch_c, 0, 88, 0
1, 48570, Poly_aftertouch_c, 0, 83, 0
1, 48714, Note_off_c, 0, 44, 51
1, 48741, Note_off_c, 0, 48, 47
1, 48785, Note_off_c, 0, 53, 34
1, 48938, Note_on_c, 0, 89, 98
1, 48943, Note_on_c, 0, 77, 95
1, 48944, Note_on_c, 0, 53, 78
1, 48951, Note_on_c, 0, 47, 71
1, 48957, Note_on_c, 0, 43, 64
1, 48978, Control_c, 0, 64, 78
1, 48993, Control_c, 0, 64, 54
1, 49008, Control_c, 0, 64, 0
1, 49698, Note_off_c, 0, 43, 61
1, 49716, Note_off_c, 0, 53, 59
1, 49739, Note_off_c, 0, 47, 60
1, 50011, Note_on_c, 0, 87, 58
1, 50072, Note_off_c, 0, 77, 53
1, 50097, Note_off_c, 0, 87, 61
1, 50100, Note_off_c, 0, 89, 54
1, 50105, Note_on_c, 0, 86, 58
1, 50192, Note_on_c, 0, 89, 61
1, 50219, Note_off_c, 0, 86, 61
1, 50271, Note_on_c, 0, 87, 72
1, 50331, Note_off_c, 0, 89, 57
1, 50347, Note_on_c, 0, 86, 68
1, 50373, Note_off_c, 0, 87, 61
1, 50410, Note_off_c, 0, 86, 60
1, 50438, Note_on_c, 0, 84, 58
1, 50530, Note_on_c, 0, 83, 61
1, 50587, Note_off_c, 0, 84, 30
1, 50654, Control_c, 0, 64, 43
1, 50669, Control_c, 0, 64, 59
1, 50683, Control_c, 0, 64, 63
1, 50698, Control_c, 0, 64, 66
1, 50713, Control_c, 0, 64, 71
1, 50728, Control_c, 0, 64, 78
1, 50750, Control_c, 0, 64, 84
1, 50765, Control_c, 0, 64, 87
1, 50770, Note_off_c, 0, 83, 62
1, 50780, Control_c, 0, 64, 89
1, 50795, Control_c, 0, 64, 90
1, 50810, Control_c, 0, 64, 90
1, 50854, Control_c, 0, 64, 89
1, 50869, Control_c, 0, 64, 82
1, 50884, Control_c, 0, 64, 71
1, 50891, Note_on_c, 0, 83, 69
1, 50898, Control_c, 0, 64, 58
1, 50913, Control_c, 0, 64, 0
1, 50958, Control_c, 0, 64, 28
1, 50973, Control_c, 0, 64, 51
1, 50988, Control_c, 0, 64, 59
1, 51002, Control_c, 0, 64, 62
1, 51018, Control_c, 0, 64, 65
1, 51033, Control_c, 0, 64, 70
1, 51047, Control_c, 0, 64, 75
1, 51062, Control_c, 0, 64, 79
1, 51077, Control_c, 0, 64, 81
1, 51092, Control_c, 0, 64, 84
1, 51095, Note_off_c, 0, 83, 60
1, 51107, Control_c, 0, 64, 84
1, 51226, Control_c, 0, 64, 81
1, 51240, Control_c, 0, 64, 75
1, 51255, Control_c, 0, 64, 67
1, 51268, Note_on_c, 0, 83, 54
1, 51270, Control_c, 0, 64, 56
1, 51282, Note_on_c, 0, 74, 26
1, 51285, Control_c, 0, 64, 24
1, 51286, Note_on_c, 0, 77, 58
1, 51288, Note_on_c, 0, 67, 31
1, 51300, Control_c, 0, 64, 26
1, 51314, Control_c, 0, 64, 40
1, 51329, Control_c, 0, 64, 53
1, 51344, Control_c, 0, 64, 62
1, 51358, Control_c, 0, 64, 66
1, 51373, Control_c, 0, 64, 71
1, 51373, Control_c, 0, 67, 11
1, 51388, Control_c, 0, 64, 74
1, 51388, Control_c, 0, 67, 12
1, 51403, Control_c, 0, 64, 75
1, 51418, Control_c, 0, 64, 76
1, 51432, Control_c, 0, 64, 77
1, 51441, Note_off_c, 0, 77, 55
1, 51447, Control_c, 0, 64, 79
1, 51462, Control_c, 0, 64, 81
1, 51462, Control_c, 0, 67, 12
1, 51468, Note_off_c, 0, 83, 62
1, 51473, Note_off_c, 0, 67, 41
1, 51499, Control_c, 0, 67, 12
1, 51508, Note_off_c, 0, 74, 37
1, 51513, Control_c, 0, 67, 13
1, 51572, Control_c, 0, 67, 13
1, 51587, Control_c, 0, 67, 14
1, 51602, Control_c, 0, 67, 15
1, 51617, Control_c, 0, 67, 18
1, 51632, Control_c, 0, 67, 21
1, 51646, Control_c, 0, 67, 23
1, 51661, Control_c, 0, 64, 80
1, 51661, Control_c, 0, 67, 24
1, 51676, Control_c, 0, 64, 75
1, 51691, Control_c, 0, 64, 67
1, 51691, Control_c, 0, 67, 25
1, 51704, Note_on_c, 0, 83, 59
1, 51706, Control_c, 0, 64, 56
1, 51718, Note_on_c, 0, 74, 32
1, 51721, Control_c, 0, 64, 0
1, 51721, Control_c, 0, 67, 25
1, 51722, Note_on_c, 0, 67, 33
1, 51736, Control_c, 0, 67, 26
1, 51744, Note_on_c, 0, 77, 32
1, 51751, Control_c, 0, 67, 26
1, 51765, Control_c, 0, 67, 28
1, 51780, Control_c, 0, 64, 36
1, 51780, Control_c, 0, 67, 29
1, 51795, Control_c, 0, 64, 59
1, 51795, Control_c, 0, 67, 30
1, 51810, Control_c, 0, 64, 65
1, 51810, Control_c, 0, 67, 31
1, 51825, Control_c, 0, 64, 68
1, 51825, Control_c, 0, 67, 31
1, 51840, Control_c, 0, 64, 70
1, 51840, Control_c, 0, 67, 32
1, 51855, Control_c, 0, 64, 73
1, 51855, Control_c, 0, 67, 32
1, 51870, Control_c, 0, 64, 77
1, 51870, Control_c, 0, 67, 33
1, 51871, Note_off_c, 0, 77, 48
1, 51885, Control_c, 0, 64, 86
1, 51885, Control_c, 0, 67, 35
1, 51900, Control_c, 0, 64, 95
1, 51900, Control_c, 0, 67, 37
1, 51908, Note_off_c, 0, 83, 58
1, 51915, Control_c, 0, 64, 99
1, 51915, Control_c, 0, 67, 40
1, 51929, Control_c, 0, 64, 100
1, 51929, Control_c, 0, 67, 42
1, 51944, Control_c, 0, 67, 44
1, 51959, Control_c, 0, 67, 45
1, 51974, Control_c, 0, 67, 47
1, 51987, Note_off_c, 0, 67, 36
1, 51988, Control_c, 0, 67, 49
1, 52003, Control_c, 0, 67, 50
1, 52018, Control_c, 0, 67, 53
1, 52033, Control_c, 0, 67, 56
1, 52040, Note_off_c, 0, 74, 34
1, 52048, Control_c, 0, 67, 59
1, 52062, Control_c, 0, 67, 62
1, 52077, Control_c, 0, 67, 65
1, 52092, Control_c, 0, 67, 68
1, 52106, Control_c, 0, 67, 71
1, 52121, Control_c, 0, 67, 73
1, 52136, Control_c, 0, 67, 75
1, 52151, Control_c, 0, 67, 76
1, 52166, Control_c, 0, 67, 77
1, 52181, Control_c, 0, 64, 99
1, 52181, Control_c, 0, 67, 77
1, 52195, Control_c, 0, 64, 98
1, 52195, Control_c, 0, 67, 78
1, 52210, Control_c, 0, 64, 97
1, 52225, Control_c, 0, 64, 96
1, 52248, Control_c, 0, 64, 94
1, 52262, Control_c, 0, 64, 91
1, 52277, Control_c, 0, 64, 88
1, 52292, Control_c, 0, 64, 84
1, 52307, Control_c, 0, 64, 78
1, 52311, Note_on_c, 0, 84, 40
1, 52321, Control_c, 0, 64, 70
1, 52335, Note_on_c, 0, 68, 26
1, 52336, Control_c, 0, 64, 62
1, 52338, Note_on_c, 0, 75, 34
1, 52344, Note_on_c, 0, 72, 27
1, 52351, Control_c, 0, 64, 45
1, 52366, Control_c, 0, 64, 0
1, 53075, Note_off_c, 0, 72, 44
1, 53077, Note_off_c, 0, 84, 46
1, 53084, Note_off_c, 0, 75, 48
1, 53089, Note_off_c, 0, 68, 45
1, 55449, Note_on_c, 0, 84, 69
1, 55495, Control_c, 0, 67, 78
1, 55524, Control_c, 0, 67, 79
1, 55569, Control_c, 0, 67, 79
1, 55628, Control_c, 0, 67, 80
1, 55836, Control_c, 0, 64, 28
1, 55851, Control_c, 0, 64, 56
1, 55866, Control_c, 0, 64, 64
1, 55881, Control_c, 0, 64, 67
1, 55896, Control_c, 0, 64, 70
1, 55910, Control_c, 0, 64, 77
1, 55925, Control_c, 0, 64, 86
1, 55940, Control_c, 0, 64, 100
1, 55940, Control_c, 0, 67, 80
1, 55954, Control_c, 0, 64, 127
1, 55954, Control_c, 0, 67, 83
1, 55969, Control_c, 0, 67, 87
1, 55992, Control_c, 0, 67, 90
1, 56007, Control_c, 0, 67, 91
1, 56022, Control_c, 0, 67, 94
1, 56036, Control_c, 0, 67, 95
1, 56051, Control_c, 0, 67, 97
1, 56066, Control_c, 0, 67, 98
1, 56081, Control_c, 0, 67, 100
1, 56096, Control_c, 0, 67, 102
1, 56110, Control_c, 0, 67, 107
1, 56125, Control_c, 0, 67, 113
1, 56140, Control_c, 0, 67, 117
1, 56154, Control_c, 0, 67, 123
1, 56169, Control_c, 0, 67, 127
1, 56311, Note_off_c, 0, 84, 53
1, 56485, Note_on_c, 0, 83, 45
1, 56577, Note_on_c, 0, 84, 54
1, 56615, Note_off_c, 0, 83, 33
1, 56630, Note_off_c, 0, 84, 63
1, 56642, Note_on_c, 0, 86, 60
1, 56713, Note_on_c, 0, 84, 64
1, 56758, Note_off_c, 0, 86, 59
1, 56766, Note_on_c, 0, 82, 69
1, 56771, Control_c, 0, 64, 107
1, 56785, Control_c, 0, 64, 91
1, 56791, Note_off_c, 0, 84, 61
1, 56800, Control_c, 0, 64, 78
1, 56815, Control_c, 0, 64, 69
1, 56830, Control_c, 0, 64, 61
1, 56838, Note_off_c, 0, 82, 63
1, 56842, Note_on_c, 0, 80, 56
1, 56845, Control_c, 0, 64, 48
1, 56860, Control_c, 0, 64, 24
1, 56875, Control_c, 0, 64, 0
1, 56884, Note_off_c, 0, 80, 61
1, 56900, Note_on_c, 0, 79, 55
1, 56954, Note_on_c, 0, 82, 62
1, 56969, Note_off_c, 0, 79, 56
1, 57019, Note_on_c, 0, 80, 57
1, 57054, Note_off_c, 0, 82, 60
1, 57185, Control_c, 0, 64, 20
1, 57200, Control_c, 0, 64, 61
1, 57215, Control_c, 0, 64, 68
1, 57230, Control_c, 0, 64, 74
1, 57245, Control_c, 0, 64, 77
1, 57259, Control_c, 0, 64, 79
1, 57274, Control_c, 0, 64, 83
1, 57280, Note_off_c, 0, 80, 61
1, 57289, Control_c, 0, 64, 89
1, 57304, Control_c, 0, 64, 94
1, 57319, Control_c, 0, 64, 95
1, 57364, Control_c, 0, 64, 96
1, 57378, Control_c, 0, 64, 97
1, 57406, Note_on_c, 0, 80, 62
1, 57438, Control_c, 0, 64, 97
1, 57453, Control_c, 0, 64, 98
1, 57475, Control_c, 0, 64, 100
1, 57490, Control_c, 0, 64, 103
1, 57505, Control_c, 0, 64, 105
1, 57520, Control_c, 0, 64, 106
1, 57534, Control_c, 0, 64, 107
1, 57549, Control_c, 0, 64, 107
1, 57564, Control_c, 0, 64, 109
1, 57605, Note_off_c, 0, 80, 62
1, 57802, Control_c, 0, 64, 108
1, 57816, Control_c, 0, 64, 98
1, 57826, Note_on_c, 0, 80, 57
1, 57831, Control_c, 0, 64, 82
1, 57846, Control_c, 0, 64, 67
1, 57850, Note_on_c, 0, 60, 31
1, 57853, Note_on_c, 0, 53, 29
1, 57856, Note_on_c, 0, 62, 33
1, 57861, Control_c, 0, 64, 43
1, 57875, Control_c, 0, 64, 0
1, 57920, Control_c, 0, 64, 28
1, 57934, Control_c, 0, 64, 57
1, 57949, Control_c, 0, 64, 64
1, 57964, Control_c, 0, 64, 67
1, 57979, Control_c, 0, 64, 69
1, 57994, Control_c, 0, 64, 72
1, 58008, Control_c, 0, 64, 78
1, 58023, Control_c, 0, 64, 85
1, 58038, Control_c, 0, 64, 89
1, 58052, Control_c, 0, 64, 91
1, 58085, Note_off_c, 0, 80, 62
1, 58086, Note_off_c, 0, 53, 41
1, 58099, Note_off_c, 0, 60, 40
1, 58115, Note_off_c, 0, 62, 40
1, 58284, Control_c, 0, 64, 85
1, 58299, Control_c, 0, 64, 73
1, 58313, Control_c, 0, 64, 62
1, 58322, Note_on_c, 0, 62, 40
1, 58322, Note_on_c, 0, 80, 58
1, 58328, Control_c, 0, 64, 0
1, 58351, Note_on_c, 0, 53, 28
1, 58353, Note_on_c, 0, 60, 25
1, 58387, Control_c, 0, 64, 28
1, 58402, Control_c, 0, 64, 59
1, 58417, Control_c, 0, 64, 67
1, 58431, Control_c, 0, 64, 75
1, 58446, Control_c, 0, 64, 85
1, 58461, Control_c, 0, 64, 88
1, 58476, Control_c, 0, 64, 89
1, 58479, Note_off_c, 0, 53, 37
1, 58490, Control_c, 0, 64, 91
1, 58505, Control_c, 0, 64, 94
1, 58520, Control_c, 0, 64, 97
1, 58534, Note_off_c, 0, 80, 57
1, 58535, Control_c, 0, 64, 99
1, 58543, Note_off_c, 0, 62, 34
1, 58572, Note_off_c, 0, 60, 40
1, 58846, Control_c, 0, 64, 97
1, 58861, Control_c, 0, 64, 92
1, 58875, Control_c, 0, 64, 85
1, 58890, Control_c, 0, 64, 76
1, 58905, Control_c, 0, 64, 67
1, 58906, Note_on_c, 0, 79, 45
1, 58913, Note_on_c, 0, 63, 47
1, 58920, Control_c, 0, 64, 55
1, 58921, Note_on_c, 0, 60, 35
1, 58928, Note_on_c, 0, 55, 32
1, 58935, Control_c, 0, 64, 10
1, 58950, Control_c, 0, 64, 0
1, 59656, Note_on_c, 0, 87, 47
1, 59847, Note_off_c, 0, 79, 41
1, 60245, Note_off_c, 0, 55, 42
1, 60247, Note_off_c, 0, 63, 54
1, 60267, Note_off_c, 0, 60, 35
1, 60401, Control_c, 0, 64, 44
1, 60416, Control_c, 0, 64, 56
1, 60428, Note_on_c, 0, 86, 53
1, 60431, Control_c, 0, 64, 61
1, 60446, Control_c, 0, 64, 63
1, 60461, Control_c, 0, 64, 63
1, 60484, Control_c, 0, 64, 64
1, 60499, Control_c, 0, 64, 65
1, 60514, Control_c, 0, 64, 67
1, 60528, Control_c, 0, 64, 69
1, 60543, Control_c, 0, 64, 71
1, 60558, Control_c, 0, 64, 74
1, 60568, Note_on_c, 0, 85, 67
1, 60573, Control_c, 0, 64, 77
1, 60588, Control_c, 0, 64, 80
1, 60604, Control_c, 0, 64, 83
1, 60619, Control_c, 0, 64, 86
1, 60622, Note_off_c, 0, 87, 28
1, 60627, Note_off_c, 0, 86, 49
1, 60633, Control_c, 0, 64, 89
1, 60648, Control_c, 0, 64, 94
1, 60659, Note_on_c, 0, 84, 71
1, 60663, Control_c, 0, 64, 99
1, 60677, Control_c, 0, 64, 105
1, 60687, Note_off_c, 0, 85, 52
1, 60692, Control_c, 0, 64, 110
1, 60707, Control_c, 0, 64, 119
1, 60722, Control_c, 0, 64, 127
1, 60738, Note_off_c, 0, 84, 61
1, 60751, Note_on_c, 0, 83, 68
1, 60821, Note_on_c, 0, 82, 65
1, 60866, Note_off_c, 0, 83, 59
1, 60875, Note_on_c, 0, 81, 72
1, 60941, Note_on_c, 0, 80, 73
1, 60957, Note_off_c, 0, 81, 57
1, 60965, Note_off_c, 0, 82, 51
1, 60990, Note_off_c, 0, 80, 61
1, 60991, Note_on_c, 0, 79, 77
1, 61048, Note_on_c, 0, 78, 75
1, 61048, Note_off_c, 0, 79, 60
1, 61101, Note_on_c, 0, 77, 76
1, 61130, Note_off_c, 0, 78, 64
1, 61155, Note_off_c, 0, 77, 62
1, 61160, Note_on_c, 0, 76, 81
1, 61211, Control_c, 0, 67, 127
1, 61213, Note_on_c, 0, 53, 85
1, 61216, Note_on_c, 0, 50, 85
1, 61226, Note_on_c, 0, 43, 82
1, 61232, Note_on_c, 0, 75, 69
1, 61233, Control_c, 0, 67, 113
1, 61248, Control_c, 0, 64, 110
1, 61248, Control_c, 0, 67, 94
1, 61263, Control_c, 0, 64, 92
1, 61263, Control_c, 0, 67, 73
1, 61263, Note_off_c, 0, 76, 53
1, 61264, Note_on_c, 0, 74, 73
1, 61277, Control_c, 0, 64, 79
1, 61277, Control_c, 0, 67, 48
1, 61292, Control_c, 0, 64, 67
1, 61292, Control_c, 0, 67, 25
1, 61307, Control_c, 0, 64, 57
1, 61307, Control_c, 0, 67, 0
1, 61322, Control_c, 0, 64, 8
1, 61323, Note_on_c, 0, 73, 74
1, 61337, Control_c, 0, 64, 0
1, 61340, Note_off_c, 0, 75, 53
1, 61346, Note_off_c, 0, 74, 65
1, 61370, Note_off_c, 0, 73, 62
1, 61376, Note_on_c, 0, 72, 79
1, 61412, Control_c, 0, 64, 26
1, 61427, Control_c, 0, 64, 36
1, 61436, Note_off_c, 0, 72, 65
1, 61437, Note_on_c, 0, 71, 72
1, 61442, Control_c, 0, 64, 42
1, 61456, Control_c, 0, 64, 45
1, 61471, Control_c, 0, 64, 49
1, 61483, Note_on_c, 0, 70, 77
1, 61486, Control_c, 0, 64, 54
1, 61499, Note_off_c, 0, 71, 61
1, 61500, Control_c, 0, 64, 58
1, 61526, Note_off_c, 0, 70, 62
1, 61537, Note_on_c, 0, 69, 75
1, 61560, Control_c, 0, 64, 57
1, 61574, Control_c, 0, 64, 56
1, 61585, Note_on_c, 0, 68, 80
1, 61589, Control_c, 0, 64, 53
1, 61597, Note_off_c, 0, 69, 67
1, 61604, Control_c, 0, 64, 38
1, 61619, Control_c, 0, 64, 0
1, 61629, Note_on_c, 0, 67, 85
1, 61681, Note_on_c, 0, 66, 81
1, 61682, Note_off_c, 0, 68, 61
1, 61710, Note_off_c, 0, 67, 63
1, 61729, Note_on_c, 0, 65, 86
1, 61733, Note_off_c, 0, 66, 69
1, 61788, Note_on_c, 0, 64, 85
1, 61802, Note_off_c, 0, 65, 60
1, 61836, Note_on_c, 0, 63, 81
1, 61848, Note_off_c, 0, 64, 65
1, 61871, Control_c, 0, 64, 41
1, 61876, Note_off_c, 0, 63, 65
1, 61881, Note_on_c, 0, 62, 91
1, 61886, Control_c, 0, 64, 58
1, 61900, Control_c, 0, 64, 60
1, 61936, Note_on_c, 0, 61, 83
1, 61945, Control_c, 0, 64, 61
1, 61946, Note_off_c, 0, 62, 61
1, 61959, Control_c, 0, 64, 62
1, 61981, Control_c, 0, 64, 62
1, 61996, Control_c, 0, 64, 63
1, 62001, Note_on_c, 0, 60, 78
1, 62036, Note_off_c, 0, 61, 62
1, 62062, Note_on_c, 0, 59, 83
1, 62071, Note_off_c, 0, 60, 62
1, 62085, Control_c, 0, 64, 62
1, 62092, Note_off_c, 0, 50, 61
1, 62099, Control_c, 0, 64, 60
1, 62114, Control_c, 0, 64, 54
1, 62118, Note_off_c, 0, 53, 61
1, 62129, Note_on_c, 0, 68, 95
1, 62129, Control_c, 0, 64, 32
1, 62132, Note_off_c, 0, 43, 60
1, 62144, Control_c, 0, 64, 0
1, 62147, Note_off_c, 0, 59, 57
1, 62693, Control_c, 0, 64, 46
1, 62708, Control_c, 0, 64, 64
1, 62729, Control_c, 0, 64, 74
1, 62744, Control_c, 0, 64, 87
1, 62759, Control_c, 0, 64, 107
1, 62774, Control_c, 0, 64, 127
1, 62878, Control_c, 0, 67, 21
1, 62893, Control_c, 0, 67, 33
1, 62900, Note_off_c, 0, 68, 57
1, 62908, Control_c, 0, 67, 41
1, 62922, Control_c, 0, 67, 48
1, 62937, Control_c, 0, 67, 55
1, 62952, Control_c, 0, 67, 62
1, 62967, Control_c, 0, 67, 71
1, 62982, Control_c, 0, 67, 81
1, 62998, Control_c, 0, 67, 93
1, 63012, Control_c, 0, 67, 105
1, 63027, Control_c, 0, 67, 119
1, 63042, Control_c, 0, 67, 127
1, 63128, Note_on_c, 0, 59, 60
1, 63190, Control_c, 0, 64, 85
1, 63197, Note_on_c, 0, 60, 78
1, 63199, Note_on_c, 0, 36, 68
1, 63205, Control_c, 0, 64, 63
1, 63209, Note_off_c, 0, 59, 60
1, 63219, Control_c, 0, 64, 0
1, 63233, Note_off_c, 0, 36, 65
1, 63258, Note_on_c, 0, 48, 53
1, 63299, Note_off_c, 0, 48, 62
1, 63315, Note_on_c, 0, 36, 63
1, 63348, Note_off_c, 0, 36, 63
1, 63383, Note_on_c, 0, 48, 51
1, 63411, Note_off_c, 0, 48, 53
1, 63435, Note_on_c, 0, 36, 64
1, 63485, Note_off_c, 0, 36, 63
1, 63493, Note_on_c, 0, 48, 70
1, 63536, Note_off_c, 0, 48, 61
1, 63541, Note_off_c, 0, 60, 55
1, 63578, Note_on_c, 0, 36, 64
1, 63585, Note_on_c, 0, 58, 72
1, 63590, Note_on_c, 0, 64, 69
1, 63608, Note_off_c, 0, 36, 65
1, 63626, Note_on_c, 0, 48, 67
1, 63628, Note_off_c, 0, 58, 54
1, 63633, Note_off_c, 0, 64, 54
1, 63665, Note_off_c, 0, 48, 62
1, 63698, Note_on_c, 0, 36, 70
1, 63707, Note_on_c, 0, 65, 67
1, 63708, Note_on_c, 0, 56, 65
1, 63737, Note_off_c, 0, 56, 65
1, 63742, Note_off_c, 0, 65, 61
1, 63743, Note_off_c, 0, 36, 63
1, 63765, Note_on_c, 0, 48, 62
1, 63799, Note_off_c, 0, 48, 62
1, 63835, Note_on_c, 0, 67, 77
1, 63838, Note_on_c, 0, 36, 64
1, 63847, Note_on_c, 0, 64, 56
1, 63864, Note_off_c, 0, 67, 60
1, 63868, Note_off_c, 0, 36, 65
1, 63873, Note_off_c, 0, 64, 66
1, 63886, Note_on_c, 0, 48, 69
1, 63925, Note_off_c, 0, 48, 62
1, 63955, Note_on_c, 0, 36, 68
1, 63962, Note_on_c, 0, 68, 68
1, 63966, Note_on_c, 0, 65, 59
1, 63984, Control_c, 0, 67, 125
1, 63990, Note_off_c, 0, 65, 65
1, 63992, Note_off_c, 0, 68, 64
1, 63993, Note_off_c, 0, 36, 65
1, 63999, Control_c, 0, 67, 114
1, 64014, Control_c, 0, 67, 108
1, 64023, Note_on_c, 0, 48, 62
1, 64029, Control_c, 0, 67, 106
1, 64043, Control_c, 0, 67, 105
1, 64052, Note_off_c, 0, 48, 63
1, 64077, Note_on_c, 0, 36, 71
1, 64084, Note_on_c, 0, 62, 68
1, 64087, Note_on_c, 0, 71, 65
1, 64088, Control_c, 0, 67, 105
1, 64102, Control_c, 0, 67, 104
1, 64109, Note_off_c, 0, 62, 67
1, 64115, Note_off_c, 0, 36, 65
1, 64117, Control_c, 0, 67, 103
1, 64132, Control_c, 0, 67, 101
1, 64136, Note_on_c, 0, 48, 69
1, 64139, Note_off_c, 0, 71, 61
1, 64147, Control_c, 0, 67, 99
1, 64161, Control_c, 0, 67, 98
1, 64173, Note_off_c, 0, 48, 62
1, 64176, Control_c, 0, 67, 96
1, 64191, Control_c, 0, 67, 94
1, 64205, Note_on_c, 0, 36, 64
1, 64206, Control_c, 0, 67, 88
1, 64224, Note_on_c, 0, 72, 74
1, 64228, Control_c, 0, 67, 82
1, 64229, Note_on_c, 0, 63, 65
1, 64243, Control_c, 0, 67, 74
1, 64247, Note_off_c, 0, 63, 64
1, 64250, Note_off_c, 0, 72, 65
1, 64253, Note_off_c, 0, 36, 65
1, 64258, Control_c, 0, 67, 67
1, 64273, Control_c, 0, 67, 59
1, 64279, Note_on_c, 0, 48, 59
1, 64288, Control_c, 0, 67, 50
1, 64302, Control_c, 0, 67, 42
1, 64308, Note_off_c, 0, 48, 62
1, 64317, Control_c, 0, 67, 37
1, 64347, Control_c, 0, 64, 46
1, 64347, Control_c, 0, 67, 38
1, 64358, Note_on_c, 0, 36, 61
1, 64362, Control_c, 0, 64, 64
1, 64362, Control_c, 0, 67, 40
1, 64363, Note_on_c, 0, 72, 81
1, 64365, Note_on_c, 0, 64, 70
1, 64376, Control_c, 0, 64, 79
1, 64376, Control_c, 0, 67, 42
1, 64391, Control_c, 0, 64, 127
1, 64391, Control_c, 0, 67, 43
1, 64405, Note_off_c, 0, 36, 64
1, 64406, Control_c, 0, 67, 46
1, 64415, Note_on_c, 0, 48, 59
1, 64420, Control_c, 0, 67, 49
1, 64431, Note_off_c, 0, 72, 66
1, 64435, Control_c, 0, 67, 51
1, 64446, Note_off_c, 0, 64, 65
1, 64450, Control_c, 0, 67, 52
1, 64455, Note_off_c, 0, 48, 62
1, 64489, Note_on_c, 0, 36, 72
1, 64494, Control_c, 0, 67, 51
1, 64509, Control_c, 0, 67, 51
1, 64523, Note_off_c, 0, 36, 65
1, 64546, Note_on_c, 0, 48, 74
1, 64554, Control_c, 0, 64, 94
1, 64569, Control_c, 0, 64, 68
1, 64569, Control_c, 0, 67, 52
1, 64579, Note_off_c, 0, 48, 62
1, 64583, Control_c, 0, 64, 34
1, 64583, Control_c, 0, 67, 55
1, 64599, Control_c, 0, 64, 0
1, 64599, Control_c, 0, 67, 59
1, 64609, Note_on_c, 0, 36, 68
1, 64611, Note_on_c, 0, 70, 74
1, 64613, Note_on_c, 0, 76, 76
1, 64614, Control_c, 0, 67, 62
1, 64644, Note_off_c, 0, 36, 67
1, 64649, Note_off_c, 0, 70, 52
1, 64660, Note_off_c, 0, 76, 63
1, 64675, Note_on_c, 0, 48, 66
1, 64688, Control_c, 0, 67, 62
1, 64703, Control_c, 0, 67, 61
1, 64707, Note_off_c, 0, 48, 64
1, 64718, Control_c, 0, 67, 61
1, 64725, Note_on_c, 0, 77, 77
1, 64726, Note_on_c, 0, 68, 73
1, 64727, Note_on_c, 0, 36, 74
1, 64732, Control_c, 0, 67, 60
1, 64747, Control_c, 0, 67, 59
1, 64748, Note_off_c, 0, 68, 71
1, 64762, Control_c, 0, 67, 59
1, 64768, Note_off_c, 0, 36, 65
1, 64771, Note_off_c, 0, 77, 62
1, 64777, Control_c, 0, 67, 58
1, 64786, Note_on_c, 0, 48, 76
1, 64792, Control_c, 0, 67, 58
1, 64822, Control_c, 0, 67, 58
1, 64831, Note_off_c, 0, 48, 60
1, 64836, Control_c, 0, 67, 59
1, 64852, Note_on_c, 0, 79, 78
1, 64855, Note_on_c, 0, 36, 72
1, 64861, Note_on_c, 0, 76, 67
1, 64881, Control_c, 0, 67, 58
1, 64884, Note_off_c, 0, 79, 63
1, 64885, Note_off_c, 0, 76, 69
1, 64893, Note_off_c, 0, 36, 66
1, 64910, Control_c, 0, 67, 58
1, 64917, Note_on_c, 0, 48, 67
1, 64925, Control_c, 0, 67, 57
1, 64940, Control_c, 0, 67, 57
1, 64952, Note_off_c, 0, 48, 65
1, 64976, Note_on_c, 0, 80, 79
1, 64977, Control_c, 0, 67, 56
1, 64985, Note_on_c, 0, 36, 71
1, 64988, Note_on_c, 0, 77, 71
1, 64992, Control_c, 0, 67, 56
1, 65010, Note_off_c, 0, 77, 67
1, 65022, Control_c, 0, 67, 55
1, 65025, Note_off_c, 0, 80, 64
1, 65026, Note_off_c, 0, 36, 63
1, 65048, Note_on_c, 0, 48, 64
1, 65051, Control_c, 0, 67, 54
1, 65081, Control_c, 0, 67, 54
1, 65082, Note_off_c, 0, 48, 63
1, 65099, Note_on_c, 0, 83, 77
1, 65102, Note_on_c, 0, 74, 70
1, 65106, Note_on_c, 0, 36, 69
1, 65125, Note_off_c, 0, 74, 71
1, 65125, Control_c, 0, 67, 53
1, 65129, Note_off_c, 0, 83, 62
1, 65138, Note_off_c, 0, 36, 63
1, 65140, Control_c, 0, 67, 51
1, 65155, Control_c, 0, 67, 49
1, 65170, Control_c, 0, 67, 47
1, 65171, Note_on_c, 0, 48, 58
1, 65193, Note_off_c, 0, 48, 60
1, 65214, Control_c, 0, 67, 47
1, 65219, Note_on_c, 0, 36, 72
1, 65229, Control_c, 0, 64, 47
1, 65229, Control_c, 0, 67, 46
1, 65230, Note_on_c, 0, 84, 88
1, 65243, Control_c, 0, 64, 61
1, 65243, Control_c, 0, 67, 45
1, 65244, Note_on_c, 0, 79, 61
1, 65246, Note_on_c, 0, 75, 64
1, 65247, Note_on_c, 0, 72, 66
1, 65258, Control_c, 0, 64, 63
1, 65258, Control_c, 0, 67, 43
1, 65261, Note_off_c, 0, 36, 62
1, 65272, Note_on_c, 0, 48, 69
1, 65273, Control_c, 0, 64, 64
1, 65273, Control_c, 0, 67, 41
1, 65288, Control_c, 0, 64, 67
1, 65288, Control_c, 0, 67, 38
1, 65303, Control_c, 0, 64, 69
1, 65303, Control_c, 0, 67, 34
1, 65305, Note_off_c, 0, 48, 64
1, 65317, Control_c, 0, 64, 70
1, 65317, Control_c, 0, 67, 26
1, 65332, Control_c, 0, 67, 16
1, 65341, Note_on_c, 0, 36, 66
1, 65347, Control_c, 0, 67, 0
1, 65350, Note_off_c, 0, 84, 62
1, 65357, Note_off_c, 0, 79, 62
1, 65361, Note_off_c, 0, 75, 65
1, 65362, Note_off_c, 0, 72, 64
1, 65369, Note_off_c, 0, 36, 64
1, 65393, Control_c, 0, 64, 69
1, 65400, Note_on_c, 0, 48, 64
1, 65408, Control_c, 0, 64, 67
1, 65422, Control_c, 0, 64, 61
1, 65431, Note_off_c, 0, 48, 65
1, 65437, Control_c, 0, 64, 36
1, 65452, Control_c, 0, 64, 0
1, 65465, Note_on_c, 0, 38, 76
1, 65472, Note_on_c, 0, 79, 84
1, 65487, Note_on_c, 0, 77, 68
1, 65497, Note_on_c, 0, 67, 61
1, 65498, Note_on_c, 0, 71, 61
1, 65533, Note_off_c, 0, 38, 63
1, 65542, Note_on_c, 0, 50, 64
1, 65575, Note_off_c, 0, 50, 63
1, 65598, Note_on_c, 0, 38, 70
1, 65619, Note_off_c, 0, 71, 61
1, 65628, Note_off_c, 0, 77, 58
1, 65637, Note_off_c, 0, 79, 63
1, 65645, Note_off_c, 0, 67, 59
1, 65655, Note_off_c, 0, 38, 64
1, 65657, Note_on_c, 0, 50, 69
1, 65689, Note_off_c, 0, 50, 63
1, 65733, Note_on_c, 0, 39, 75
1, 65742, Note_on_c, 0, 75, 88
1, 65744, Note_on_c, 0, 72, 78
1, 65749, Note_on_c, 0, 67, 80
1, 65785, Control_c, 0, 64, 49
1, 65800, Control_c, 0, 64, 55
1, 65807, Note_on_c, 0, 51, 77
1, 65809, Note_off_c, 0, 39, 62
1, 65814, Control_c, 0, 64, 56
1, 65829, Control_c, 0, 64, 59
1, 65844, Control_c, 0, 64, 61
1, 65859, Control_c, 0, 64, 63
1, 65860, Note_off_c, 0, 51, 57
1, 65863, Note_off_c, 0, 72, 63
1, 65866, Note_on_c, 0, 39, 69
1, 65873, Control_c, 0, 64, 63
1, 65898, Note_off_c, 0, 75, 66
1, 65903, Note_off_c, 0, 67, 62
1, 65903, Control_c, 0, 64, 64
1, 65917, Note_off_c, 0, 39, 61
1, 65918, Control_c, 0, 64, 62
1, 65929, Note_on_c, 0, 51, 62
1, 65933, Control_c, 0, 64, 54
1, 65947, Control_c, 0, 64, 0
1, 65958, Note_off_c, 0, 51, 65
1, 65986, Note_on_c, 0, 74, 91
1, 65993, Note_on_c, 0, 65, 88
1, 65995, Note_on_c, 0, 41, 85
1, 65997, Note_on_c, 0, 68, 82
1, 66036, Control_c, 0, 64, 31
1, 66051, Control_c, 0, 64, 58
1, 66059, Note_on_c, 0, 53, 79
1, 66065, Control_c, 0, 64, 63
1, 66070, Note_off_c, 0, 41, 64
1, 66098, Note_off_c, 0, 74, 63
1, 66110, Control_c, 0, 64, 63
1, 66112, Note_off_c, 0, 53, 65
1, 66125, Control_c, 0, 64, 64
1, 66128, Note_on_c, 0, 41, 77
1, 66129, Note_off_c, 0, 65, 60
1, 66139, Control_c, 0, 64, 66
1, 66145, Note_off_c, 0, 68, 65
1, 66154, Control_c, 0, 64, 67
1, 66169, Control_c, 0, 64, 67
1, 66184, Note_off_c, 0, 41, 65
1, 66186, Note_on_c, 0, 53, 65
1, 66200, Control_c, 0, 64, 65
1, 66215, Control_c, 0, 64, 56
1, 66226, Note_off_c, 0, 53, 62
1, 66230, Control_c, 0, 64, 0
1, 66247, Note_on_c, 0, 43, 96
1, 66250, Note_on_c, 0, 72, 96
1, 66253, Note_on_c, 0, 67, 81
1, 66253, Note_on_c, 0, 63, 95
1, 66311, Note_on_c, 0, 55, 80
1, 66321, Note_off_c, 0, 43, 63
1, 66367, Note_off_c, 0, 55, 61
1, 66379, Note_on_c, 0, 43, 82
1, 66387, Note_off_c, 0, 67, 58
1, 66429, Note_on_c, 0, 55, 69
1, 66440, Note_off_c, 0, 43, 62
1, 66487, Note_off_c, 0, 55, 62
1, 66503, Control_c, 0, 64, 45
1, 66511, Note_on_c, 0, 44, 82
1, 66515, Note_on_c, 0, 66, 88
1, 66518, Control_c, 0, 64, 67
1, 66533, Control_c, 0, 64, 74
1, 66548, Control_c, 0, 64, 77
1, 66578, Note_off_c, 0, 44, 64
1, 66579, Note_on_c, 0, 56, 82
1, 66637, Control_c, 0, 64, 77
1, 66642, Note_on_c, 0, 44, 76
1, 66652, Control_c, 0, 64, 79
1, 66655, Note_off_c, 0, 56, 60
1, 66667, Control_c, 0, 64, 80
1, 66682, Control_c, 0, 64, 82
1, 66696, Control_c, 0, 64, 84
1, 66697, Note_on_c, 0, 56, 54
1, 66711, Control_c, 0, 64, 85
1, 66712, Note_off_c, 0, 44, 64
1, 66741, Note_off_c, 0, 56, 63
1, 66741, Control_c, 0, 64, 78
1, 66744, Note_off_c, 0, 66, 62
1, 66756, Control_c, 0, 64, 63
1, 66770, Control_c, 0, 64, 0
1, 66771, Note_on_c, 0, 69, 89
1, 66772, Note_on_c, 0, 42, 85
1, 66813, Note_off_c, 0, 72, 58
1, 66836, Note_on_c, 0, 54, 81
1, 66844, Control_c, 0, 64, 55
1, 66846, Note_off_c, 0, 42, 62
1, 66859, Control_c, 0, 64, 67
1, 66874, Control_c, 0, 64, 71
1, 66888, Control_c, 0, 64, 73
1, 66892, Note_on_c, 0, 42, 67
1, 66897, Note_off_c, 0, 54, 62
1, 66903, Control_c, 0, 64, 76
1, 66918, Control_c, 0, 64, 85
1, 66925, Note_off_c, 0, 63, 61
1, 66933, Control_c, 0, 64, 119
1, 66948, Note_off_c, 0, 42, 64
1, 66948, Control_c, 0, 64, 127
1, 66949, Note_on_c, 0, 54, 69
1, 66956, Note_off_c, 0, 69, 55
1, 66977, Control_c, 0, 64, 80
1, 66993, Control_c, 0, 64, 48
1, 66997, Note_off_c, 0, 54, 61
1, 67008, Control_c, 0, 64, 0
1, 67032, Note_on_c, 0, 43, 82
1, 67037, Note_on_c, 0, 71, 87
1, 67038, Note_on_c, 0, 62, 92
1, 67044, Note_on_c, 0, 65, 81
1, 67067, Control_c, 0, 64, 55
1, 67082, Control_c, 0, 64, 73
1, 67092, Note_off_c, 0, 43, 61
1, 67097, Control_c, 0, 64, 102
1, 67102, Note_on_c, 0, 55, 68
1, 67111, Control_c, 0, 64, 127
1, 67130, Note_off_c, 0, 62, 63
1, 67133, Note_off_c, 0, 65, 59
1, 67141, Note_off_c, 0, 55, 65
1, 67149, Note_off_c, 0, 71, 61
1, 67152, Poly_aftertouch_c, 0, 72, 0
1, 67171, Note_on_c, 0, 43, 67
1, 67229, Note_off_c, 0, 43, 60
1, 67283, Control_c, 0, 64, 76
1, 67298, Control_c, 0, 64, 53
1, 67311, Note_on_c, 0, 72, 81
1, 67312, Control_c, 0, 64, 0
1, 67317, Note_on_c, 0, 36, 72
1, 67317, Note_on_c, 0, 63, 76
1, 67320, Note_on_c, 0, 60, 75
1, 67332, Note_off_c, 0, 72, 70
1, 67339, Note_off_c, 0, 63, 69
1, 67345, Note_off_c, 0, 60, 65
1, 67352, Note_off_c, 0, 36, 66
1, 67357, Control_c, 0, 67, 8
1, 67372, Control_c, 0, 67, 10
1, 67374, Note_on_c, 0, 48, 70
1, 67386, Control_c, 0, 67, 14
1, 67401, Control_c, 0, 67, 18
1, 67409, Note_off_c, 0, 48, 65
1, 67416, Control_c, 0, 67, 24
1, 67431, Control_c, 0, 67, 30
1, 67442, Note_on_c, 0, 36, 68
1, 67445, Control_c, 0, 67, 37
1, 67454, Note_on_c, 0, 60, 80
1, 67460, Control_c, 0, 67, 44
1, 67475, Control_c, 0, 67, 51
1, 67484, Note_off_c, 0, 36, 62
1, 67490, Control_c, 0, 67, 56
1, 67505, Control_c, 0, 67, 62
1, 67508, Note_on_c, 0, 48, 62
1, 67520, Control_c, 0, 67, 67
1, 67535, Control_c, 0, 67, 71
1, 67543, Note_off_c, 0, 48, 65
1, 67549, Control_c, 0, 67, 72
1, 67570, Note_on_c, 0, 36, 70
1, 67594, Control_c, 0, 67, 71
1, 67606, Note_off_c, 0, 36, 66
1, 67609, Control_c, 0, 67, 70
1, 67615, Note_off_c, 0, 60, 59
1, 67624, Control_c, 0, 67, 69
1, 67625, Note_on_c, 0, 48, 71
1, 67657, Note_off_c, 0, 48, 65
1, 67668, Control_c, 0, 67, 70
1, 67687, Note_on_c, 0, 36, 75
1, 67692, Note_on_c, 0, 64, 68
1, 67696, Note_on_c, 0, 58, 62
1, 67722, Note_off_c, 0, 58, 65
1, 67725, Note_off_c, 0, 36, 64
1, 67739, Note_off_c, 0, 64, 61
1, 67749, Note_on_c, 0, 48, 65
1, 67784, Note_off_c, 0, 48, 63
1, 67803, Control_c, 0, 67, 71
1, 67816, Note_on_c, 0, 36, 73
1, 67821, Note_on_c, 0, 56, 63
1, 67833, Note_on_c, 0, 64, 49
1, 67841, Note_off_c, 0, 56, 64
1, 67842, Note_on_c, 0, 65, 48
1, 67856, Note_off_c, 0, 36, 64
1, 67856, Note_off_c, 0, 64, 63
1, 67861, Control_c, 0, 67, 70
1, 67867, Note_off_c, 0, 65, 57
1, 67883, Note_on_c, 0, 48, 65
1, 67891, Control_c, 0, 67, 69
1, 67906, Control_c, 0, 67, 69
1, 67916, Note_off_c, 0, 48, 65
1, 67937, Note_on_c, 0, 64, 68
1, 67941, Note_on_c, 0, 36, 71
1, 67943, Note_on_c, 0, 67, 71
1, 67950, Control_c, 0, 67, 68
1, 67973, Control_c, 0, 67, 68
1, 67978, Note_off_c, 0, 67, 63
1, 67980, Note_off_c, 0, 36, 63
1, 67985, Note_off_c, 0, 64, 59
1, 67988, Control_c, 0, 67, 67
1, 68002, Control_c, 0, 67, 66
1, 68007, Note_on_c, 0, 48, 67
1, 68017, Control_c, 0, 67, 65
1, 68032, Control_c, 0, 67, 64
1, 68044, Note_off_c, 0, 48, 63
1, 68047, Control_c, 0, 67, 64
1, 68065, Note_on_c, 0, 68, 75
1, 68066, Note_on_c, 0, 36, 71
1, 68076, Control_c, 0, 67, 62
1, 68077, Note_on_c, 0, 65, 62
1, 68091, Control_c, 0, 67, 60
1, 68104, Note_off_c, 0, 65, 66
1, 68106, Control_c, 0, 67, 57
1, 68116, Note_off_c, 0, 36, 63
1, 68118, Note_off_c, 0, 68, 64
1, 68121, Control_c, 0, 67, 54
1, 68134, Note_on_c, 0, 48, 70
1, 68135, Control_c, 0, 67, 51
1, 68150, Control_c, 0, 67, 49
1, 68165, Control_c, 0, 67, 44
1, 68173, Note_off_c, 0, 48, 60
1, 68180, Control_c, 0, 67, 38
1, 68189, Note_on_c, 0, 71, 82
1, 68195, Control_c, 0, 67, 33
1, 68196, Note_on_c, 0, 36, 68
1, 68198, Note_on_c, 0, 62, 60
1, 68209, Control_c, 0, 67, 29
1, 68218, Note_off_c, 0, 62, 62
1, 68224, Control_c, 0, 67, 26
1, 68232, Note_off_c, 0, 36, 66
1, 68236, Note_off_c, 0, 71, 62
1, 68239, Control_c, 0, 67, 24
1, 68254, Control_c, 0, 67, 22
1, 68266, Note_on_c, 0, 48, 63
1, 68268, Control_c, 0, 67, 20
1, 68283, Control_c, 0, 67, 18
1, 68295, Note_off_c, 0, 48, 63
1, 68298, Control_c, 0, 67, 17
1, 68315, Note_on_c, 0, 36, 73
1, 68318, Note_on_c, 0, 63, 79
1, 68318, Note_on_c, 0, 72, 81
1, 68339, Note_off_c, 0, 63, 70
1, 68351, Note_off_c, 0, 36, 66
1, 68360, Note_off_c, 0, 72, 64
1, 68372, Control_c, 0, 67, 17
1, 68375, Note_on_c, 0, 48, 68
1, 68387, Control_c, 0, 67, 18
1, 68402, Control_c, 0, 67, 18
1, 68411, Note_off_c, 0, 48, 61
1, 68417, Control_c, 0, 67, 19
1, 68432, Control_c, 0, 67, 20
1, 68437, Note_on_c, 0, 36, 73
1, 68447, Control_c, 0, 67, 22
1, 68454, Note_on_c, 0, 72, 85
1, 68456, Note_on_c, 0, 64, 82
1, 68461, Control_c, 0, 67, 24
1, 68476, Control_c, 0, 64, 56
1, 68476, Control_c, 0, 67, 26
1, 68481, Note_off_c, 0, 36, 62
1, 68491, Control_c, 0, 64, 71
1, 68491, Control_c, 0, 67, 28
1, 68501, Note_on_c, 0, 48, 78
1, 68506, Control_c, 0, 64, 86
1, 68506, Control_c, 0, 67, 29
1, 68521, Control_c, 0, 64, 98
1, 68521, Control_c, 0, 67, 30
1, 68535, Control_c, 0, 64, 99
1, 68549, Note_off_c, 0, 64, 65
1, 68550, Control_c, 0, 64, 100
1, 68550, Control_c, 0, 67, 29
1, 68551, Note_off_c, 0, 48, 55
1, 68554, Note_off_c, 0, 72, 66
1, 68557, Poly_aftertouch_c, 0, 70, 127
1, 68557, Note_on_c, 0, 36, 77
1, 68565, Control_c, 0, 64, 101
1, 68565, Control_c, 0, 67, 28
1, 68581, Control_c, 0, 67, 27
1, 68587, Poly_aftertouch_c, 0, 70, 0
1, 68596, Control_c, 0, 64, 98
1, 68596, Control_c, 0, 67, 26
1, 68610, Control_c, 0, 64, 88
1, 68610, Control_c, 0, 67, 26
1, 68612, Note_off_c, 0, 36, 63
1, 68625, Control_c, 0, 64, 77
1, 68625, Control_c, 0, 67, 25
1, 68628, Note_on_c, 0, 48, 72
1, 68640, Control_c, 0, 64, 65
1, 68655, Control_c, 0, 64, 40
1, 68667, Note_off_c, 0, 48, 61
1, 68670, Control_c, 0, 64, 0
1, 68670, Control_c, 0, 67, 26
1, 68682, Note_on_c, 0, 36, 72
1, 68684, Control_c, 0, 67, 27
1, 68689, Note_on_c, 0, 70, 78
1, 68694, Note_on_c, 0, 76, 78
1, 68699, Control_c, 0, 67, 29
1, 68721, Control_c, 0, 67, 29
1, 68739, Note_off_c, 0, 36, 65
1, 68743, Note_off_c, 0, 70, 64
1, 68751, Control_c, 0, 67, 30
1, 68758, Note_off_c, 0, 76, 64
1, 68769, Note_on_c, 0, 48, 64
1, 68781, Control_c, 0, 67, 29
1, 68792, Note_off_c, 0, 48, 62
1, 68795, Control_c, 0, 67, 29
1, 68810, Control_c, 0, 67, 28
1, 68819, Note_on_c, 0, 77, 82
1, 68821, Note_on_c, 0, 36, 77
1, 68825, Control_c, 0, 67, 28
1, 68863, Note_off_c, 0, 36, 63
1, 68863, Note_off_c, 0, 77, 61
1, 68870, Control_c, 0, 67, 27
1, 68884, Note_on_c, 0, 48, 70
1, 68885, Control_c, 0, 67, 27
1, 68914, Control_c, 0, 67, 26
1, 68924, Note_off_c, 0, 48, 62
1, 68944, Control_c, 0, 67, 26
1, 68945, Note_on_c, 0, 79, 71
1, 68946, Note_on_c, 0, 76, 73
1, 68949, Note_on_c, 0, 36, 72
1, 68971, Note_off_c, 0, 76, 68
1, 68977, Note_off_c, 0, 79, 62
1, 68984, Note_off_c, 0, 36, 66
1, 68988, Control_c, 0, 67, 25
1, 69003, Control_c, 0, 67, 25
1, 69020, Note_on_c, 0, 48, 63
1, 69047, Control_c, 0, 67, 24
1, 69052, Note_off_c, 0, 48, 65
1, 69054, Note_on_c, 0, 80, 73
1, 69062, Control_c, 0, 67, 24
1, 69063, Note_on_c, 0, 36, 76
1, 69070, Note_on_c, 0, 77, 68
1, 69094, Note_off_c, 0, 77, 67
1, 69104, Note_off_c, 0, 80, 65
1, 69104, Note_off_c, 0, 36, 63
1, 69132, Note_on_c, 0, 48, 67
1, 69151, Control_c, 0, 67, 23
1, 69165, Note_off_c, 0, 48, 64
1, 69180, Note_on_c, 0, 83, 81
1, 69180, Control_c, 0, 67, 24
1, 69185, Note_on_c, 0, 74, 68
1, 69192, Note_on_c, 0, 36, 65
1, 69195, Control_c, 0, 67, 24
1, 69210, Control_c, 0, 67, 25
1, 69210, Note_off_c, 0, 74, 68
1, 69212, Note_off_c, 0, 83, 61
1, 69225, Control_c, 0, 67, 26
1, 69231, Note_off_c, 0, 36, 65
1, 69254, Control_c, 0, 67, 26
1, 69257, Note_on_c, 0, 48, 63
1, 69284, Control_c, 0, 67, 26
1, 69287, Note_off_c, 0, 48, 63
1, 69317, Note_on_c, 0, 36, 68
1, 69318, Note_on_c, 0, 84, 85
1, 69329, Control_c, 0, 64, 54
1, 69329, Control_c, 0, 67, 25
1, 69332, Note_on_c, 0, 79, 65
1, 69338, Note_on_c, 0, 72, 70
1, 69340, Note_on_c, 0, 75, 71
1, 69344, Control_c, 0, 64, 62
1, 69352, Note_off_c, 0, 36, 61
1, 69358, Control_c, 0, 64, 62
1, 69358, Control_c, 0, 67, 24
1, 69368, Note_on_c, 0, 48, 67
1, 69373, Control_c, 0, 64, 63
1, 69373, Control_c, 0, 67, 24
1, 69389, Control_c, 0, 64, 63
1, 69389, Control_c, 0, 67, 23
1, 69404, Control_c, 0, 64, 64
1, 69404, Control_c, 0, 67, 22
1, 69407, Note_off_c, 0, 48, 61
1, 69418, Control_c, 0, 64, 65
1, 69418, Control_c, 0, 67, 22
1, 69436, Note_on_c, 0, 36, 66
1, 69460, Note_off_c, 0, 84, 63
1, 69471, Note_off_c, 0, 75, 65
1, 69471, Note_off_c, 0, 79, 61
1, 69472, Note_off_c, 0, 72, 63
1, 69483, Note_off_c, 0, 36, 63
1, 69485, Control_c, 0, 64, 65
1, 69485, Control_c, 0, 67, 22
1, 69500, Control_c, 0, 67, 23
1, 69523, Note_on_c, 0, 48, 54
1, 69529, Control_c, 0, 67, 22
1, 69544, Control_c, 0, 64, 61
1, 69544, Control_c, 0, 67, 21
1, 69552, Note_off_c, 0, 48, 53
1, 69559, Control_c, 0, 64, 43
1, 69559, Control_c, 0, 67, 19
1, 69574, Control_c, 0, 64, 0
1, 69574, Control_c, 0, 67, 15
1, 69581, Note_on_c, 0, 38, 72
1, 69588, Control_c, 0, 67, 0
1, 69589, Note_on_c, 0, 79, 85
1, 69601, Note_on_c, 0, 77, 71
1, 69602, Note_on_c, 0, 71, 67
1, 69612, Note_on_c, 0, 67, 58
1, 69643, Note_off_c, 0, 38, 64
1, 69663, Note_on_c, 0, 50, 66
1, 69697, Note_off_c, 0, 50, 59
1, 69707, Control_c, 0, 64, 44
1, 69715, Note_on_c, 0, 38, 69
1, 69720, Note_off_c, 0, 71, 60
1, 69722, Control_c, 0, 64, 53
1, 69737, Control_c, 0, 64, 56
1, 69752, Note_off_c, 0, 77, 61
1, 69752, Control_c, 0, 64, 58
1, 69761, Note_off_c, 0, 67, 60
1, 69766, Note_off_c, 0, 79, 60
1, 69767, Control_c, 0, 64, 59
1, 69767, Note_off_c, 0, 38, 64
1, 69778, Note_on_c, 0, 50, 62
1, 69782, Control_c, 0, 64, 59
1, 69796, Control_c, 0, 64, 51
1, 69800, Note_off_c, 0, 50, 63
1, 69811, Control_c, 0, 64, 0
1, 69840, Note_on_c, 0, 39, 79
1, 69848, Note_on_c, 0, 75, 86
1, 69851, Note_on_c, 0, 72, 74
1, 69854, Note_on_c, 0, 67, 80
1, 69900, Control_c, 0, 64, 41
1, 69912, Note_on_c, 0, 51, 72
1, 69912, Note_off_c, 0, 39, 62
1, 69914, Control_c, 0, 64, 64
1, 69929, Control_c, 0, 64, 70
1, 69944, Control_c, 0, 64, 75
1, 69959, Control_c, 0, 64, 76
1, 69964, Note_off_c, 0, 51, 60
1, 69971, Note_off_c, 0, 72, 62
1, 69973, Note_on_c, 0, 39, 73
1, 69974, Control_c, 0, 64, 77
1, 69988, Control_c, 0, 64, 79
1, 70001, Note_off_c, 0, 67, 60
1, 70001, Note_off_c, 0, 75, 63
1, 70003, Control_c, 0, 64, 82
1, 70018, Control_c, 0, 64, 84
1, 70027, Note_off_c, 0, 39, 62
1, 70033, Control_c, 0, 64, 85
1, 70038, Note_on_c, 0, 51, 62
1, 70062, Note_off_c, 0, 51, 68
1, 70062, Control_c, 0, 64, 78
1, 70077, Control_c, 0, 64, 65
1, 70092, Control_c, 0, 64, 0
1, 70095, Note_on_c, 0, 74, 87
1, 70104, Note_on_c, 0, 41, 86
1, 70108, Note_on_c, 0, 65, 81
1, 70108, Note_on_c, 0, 68, 79
1, 70166, Note_on_c, 0, 53, 78
1, 70173, Note_off_c, 0, 41, 64
1, 70183, Control_c, 0, 64, 54
1, 70198, Control_c, 0, 64, 65
1, 70204, Note_off_c, 0, 74, 65
1, 70220, Control_c, 0, 64, 71
1, 70230, Note_off_c, 0, 53, 63
1, 70235, Control_c, 0, 64, 74
1, 70244, Note_on_c, 0, 41, 84
1, 70250, Control_c, 0, 64, 75
1, 70250, Note_off_c, 0, 65, 60
1, 70264, Control_c, 0, 64, 76
1, 70267, Note_off_c, 0, 68, 63
1, 70279, Control_c, 0, 64, 78
1, 70294, Control_c, 0, 64, 81
1, 70301, Note_on_c, 0, 53, 72
1, 70305, Note_off_c, 0, 41, 65
1, 70309, Control_c, 0, 64, 81
1, 70324, Control_c, 0, 64, 76
1, 70338, Control_c, 0, 64, 64
1, 70345, Note_off_c, 0, 53, 66
1, 70353, Control_c, 0, 64, 0
1, 70366, Note_on_c, 0, 43, 90
1, 70369, Note_on_c, 0, 72, 84
1, 70371, Note_on_c, 0, 67, 81
1, 70374, Note_on_c, 0, 63, 93
1, 70388, Note_on_c, 0, 71, 53
1, 70432, Note_on_c, 0, 55, 74
1, 70434, Note_off_c, 0, 43, 63
1, 70477, Note_off_c, 0, 55, 62
1, 70496, Note_on_c, 0, 43, 74
1, 70515, Note_off_c, 0, 67, 54
1, 70516, Control_c, 0, 64, 48
1, 70530, Control_c, 0, 64, 63
1, 70545, Control_c, 0, 64, 66
1, 70548, Note_on_c, 0, 55, 75
1, 70554, Note_off_c, 0, 43, 61
1, 70560, Control_c, 0, 64, 67
1, 70575, Control_c, 0, 64, 67
1, 70590, Control_c, 0, 64, 66
1, 70596, Note_off_c, 0, 55, 63
1, 70605, Control_c, 0, 64, 62
1, 70620, Note_on_c, 0, 44, 82
1, 70620, Control_c, 0, 64, 35
1, 70635, Control_c, 0, 64, 0
1, 70635, Note_on_c, 0, 66, 93
1, 70686, Note_off_c, 0, 44, 64
1, 70691, Note_on_c, 0, 56, 83
1, 70694, Control_c, 0, 64, 29
1, 70709, Control_c, 0, 64, 53
1, 70724, Note_off_c, 0, 71, 7
1, 70724, Control_c, 0, 64, 57
1, 70736, Note_off_c, 0, 56, 63
1, 70738, Control_c, 0, 64, 58
1, 70753, Control_c, 0, 64, 59
1, 70760, Note_on_c, 0, 44, 76
1, 70768, Control_c, 0, 64, 62
1, 70782, Control_c, 0, 64, 64
1, 70797, Control_c, 0, 64, 64
1, 70809, Note_on_c, 0, 56, 68
1, 70822, Note_off_c, 0, 44, 64
1, 70827, Control_c, 0, 64, 63
1, 70842, Control_c, 0, 64, 52
1, 70854, Note_off_c, 0, 56, 64
1, 70856, Control_c, 0, 64, 0
1, 70887, Note_on_c, 0, 42, 89
1, 70891, Note_on_c, 0, 69, 84
1, 70898, Note_off_c, 0, 66, 38
1, 70945, Control_c, 0, 64, 57
1, 70958, Note_off_c, 0, 42, 62
1, 70963, Note_on_c, 0, 54, 79
1, 70968, Control_c, 0, 64, 66
1, 70983, Control_c, 0, 64, 68
1, 71008, Note_off_c, 0, 54, 62
1, 71022, Note_on_c, 0, 42, 83
1, 71028, Control_c, 0, 64, 67
1, 71043, Control_c, 0, 64, 67
1, 71076, Note_on_c, 0, 54, 81
1, 71087, Control_c, 0, 64, 68
1, 71088, Note_off_c, 0, 42, 62
1, 71102, Control_c, 0, 64, 72
1, 71117, Control_c, 0, 64, 78
1, 71123, Note_off_c, 0, 54, 63
1, 71132, Control_c, 0, 64, 89
1, 71142, Note_on_c, 0, 42, 77
1, 71147, Control_c, 0, 64, 107
1, 71153, Note_off_c, 0, 63, 59
1, 71161, Control_c, 0, 64, 127
1, 71174, Note_off_c, 0, 69, 39
1, 71194, Note_on_c, 0, 54, 84
1, 71204, Note_off_c, 0, 42, 62
1, 71237, Note_off_c, 0, 54, 62
1, 71258, Note_on_c, 0, 42, 78
1, 71310, Note_on_c, 0, 54, 69
1, 71341, Note_off_c, 0, 42, 63
1, 71341, Note_off_c, 0, 54, 64
1, 71365, Note_off_c, 0, 72, 14
1, 71398, Control_c, 0, 64, 93
1, 71409, Note_on_c, 0, 71, 86
1, 71410, Note_on_c, 0, 67, 80
1, 71411, Note_on_c, 0, 62, 83
1, 71413, Control_c, 0, 64, 62
1, 71419, Note_on_c, 0, 55, 83
1, 71422, Note_on_c, 0, 43, 78
1, 71428, Control_c, 0, 64, 0
1, 71434, Note_off_c, 0, 62, 66
1, 71442, Note_off_c, 0, 67, 61
1, 71448, Note_off_c, 0, 55, 67
1, 71449, Note_off_c, 0, 43, 65
1, 71462, Note_off_c, 0, 71, 62
1, 71545, Note_on_c, 0, 62, 85
1, 71549, Note_on_c, 0, 59, 74
1, 71568, Note_off_c, 0, 62, 65
1, 71575, Note_off_c, 0, 59, 66
1, 71670, Note_on_c, 0, 79, 100
1, 71675, Note_on_c, 0, 67, 88
1, 71676, Note_on_c, 0, 62, 81
1, 71687, Note_on_c, 0, 59, 64
1, 71714, Note_off_c, 0, 62, 61
1, 71723, Note_off_c, 0, 59, 67
1, 71800, Note_on_c, 0, 59, 74
1, 71815, Note_on_c, 0, 62, 70
1, 71833, Note_off_c, 0, 59, 61
1, 71835, Note_off_c, 0, 62, 66
1, 71935, Note_on_c, 0, 55, 88
1, 71985, Note_off_c, 0, 55, 64
1, 72060, Note_on_c, 0, 63, 89
1, 72062, Note_on_c, 0, 60, 79
1, 72089, Note_off_c, 0, 79, 47
1, 72098, Note_off_c, 0, 67, 56
1, 72106, Note_off_c, 0, 63, 65
1, 72113, Note_off_c, 0, 60, 63
1, 72185, Note_on_c, 0, 79, 98
1, 72188, Note_on_c, 0, 67, 92
1, 72194, Note_on_c, 0, 60, 81
1, 72198, Note_on_c, 0, 63, 88
1, 72238, Note_off_c, 0, 63, 63
1, 72241, Note_off_c, 0, 60, 63
1, 72312, Note_on_c, 0, 63, 84
1, 72315, Note_on_c, 0, 60, 78
1, 72342, Note_off_c, 0, 60, 64
1, 72350, Note_off_c, 0, 63, 64
1, 72354, Control_c, 0, 64, 29
1, 72369, Control_c, 0, 64, 49
1, 72384, Control_c, 0, 64, 52
1, 72399, Control_c, 0, 64, 51
1, 72414, Control_c, 0, 64, 50
1, 72435, Note_off_c, 0, 79, 53
1, 72441, Note_on_c, 0, 62, 105
1, 72447, Note_on_c, 0, 65, 85
1, 72479, Note_off_c, 0, 65, 66
1, 72482, Note_off_c, 0, 62, 66
1, 72494, Control_c, 0, 64, 50
1, 72502, Note_off_c, 0, 67, 45
1, 72508, Control_c, 0, 64, 50
1, 72523, Control_c, 0, 64, 51
1, 72528, Note_on_c, 0, 77, 81
1, 72538, Control_c, 0, 64, 52
1, 72552, Control_c, 0, 64, 51
1, 72567, Control_c, 0, 64, 50
1, 72583, Control_c, 0, 64, 51
1, 72589, Note_on_c, 0, 74, 78
1, 72598, Control_c, 0, 64, 51
1, 72613, Control_c, 0, 64, 51
1, 72628, Control_c, 0, 64, 48
1, 72643, Control_c, 0, 64, 41
1, 72649, Note_on_c, 0, 71, 80
1, 72652, Note_off_c, 0, 77, 53
1, 72657, Control_c, 0, 64, 31
1, 72662, Note_off_c, 0, 74, 65
1, 72672, Control_c, 0, 64, 14
1, 72687, Control_c, 0, 64, 0
1, 72691, Note_off_c, 0, 71, 65
1, 72711, Note_on_c, 0, 67, 79
1, 72752, Note_off_c, 0, 67, 57
1, 72768, Note_on_c, 0, 65, 79
1, 72815, Note_on_c, 0, 62, 81
1, 72852, Note_off_c, 0, 65, 57
1, 72882, Note_off_c, 0, 62, 62
1, 72884, Note_on_c, 0, 59, 75
1, 72933, Note_off_c, 0, 59, 61
1, 72939, Note_on_c, 0, 60, 83
1, 73000, Note_on_c, 0, 63, 76
1, 73016, Note_off_c, 0, 60, 61
1, 73065, Note_on_c, 0, 60, 58
1, 73080, Note_off_c, 0, 63, 62
1, 73106, Note_off_c, 0, 60, 61
1, 73133, Note_on_c, 0, 55, 75
1, 73175, Note_on_c, 0, 32, 71
1, 73215, Note_on_c, 0, 54, 68
1, 73215, Note_off_c, 0, 32, 64
1, 73231, Note_off_c, 0, 55, 58
1, 73236, Note_on_c, 0, 44, 59
1, 73270, Note_off_c, 0, 44, 66
1, 73272, Note_off_c, 0, 54, 62
1, 73280, Note_on_c, 0, 60, 61
1, 73292, Note_on_c, 0, 32, 72
1, 73318, Note_on_c, 0, 56, 67
1, 73336, Note_off_c, 0, 32, 61
1, 73346, Control_c, 0, 67, 8
1, 73349, Note_off_c, 0, 60, 52
1, 73377, Note_on_c, 0, 44, 13
1, 73378, Note_off_c, 0, 44, 47
1, 73392, Control_c, 0, 67, 0
1, 73422, Note_on_c, 0, 55, 20
1, 73426, Note_on_c, 0, 31, 72
1, 73437, Note_on_c, 0, 43, 77
1, 73437, Note_off_c, 0, 56, 50
1, 73452, Note_off_c, 0, 31, 66
1, 73461, Note_off_c, 0, 43, 65
1, 73486, Note_off_c, 0, 55, 64
1, 73568, Note_on_c, 0, 59, 70
1, 73571, Note_on_c, 0, 62, 73
1, 73590, Note_off_c, 0, 62, 66
1, 73593, Note_off_c, 0, 59, 66
1, 73687, Note_on_c, 0, 79, 96
1, 73696, Note_on_c, 0, 62, 70
1, 73696, Note_on_c, 0, 67, 85
1, 73697, Note_on_c, 0, 59, 57
1, 73722, Note_off_c, 0, 62, 66
1, 73735, Note_off_c, 0, 59, 64
1, 73815, Note_on_c, 0, 62, 75
1, 73817, Note_on_c, 0, 59, 72
1, 73837, Note_off_c, 0, 62, 69
1, 73846, Note_off_c, 0, 59, 65
1, 73954, Note_on_c, 0, 55, 85
1, 74010, Note_off_c, 0, 55, 63
1, 74033, Poly_aftertouch_c, 0, 77, 0
1, 74079, Note_off_c, 0, 79, 49
1, 74079, Note_on_c, 0, 63, 77
1, 74084, Note_off_c, 0, 67, 54
1, 74086, Note_on_c, 0, 60, 64
1, 74096, Note_on_c, 0, 59, 58
1, 74112, Note_off_c, 0, 63, 60
1, 74119, Note_off_c, 0, 60, 64
1, 74120, Note_off_c, 0, 59, 64
1, 74203, Note_on_c, 0, 79, 93
1, 74207, Note_on_c, 0, 67, 93
1, 74215, Note_on_c, 0, 60, 78
1, 74215, Control_c, 0, 64, 30
1, 74216, Note_on_c, 0, 63, 84
1, 74230, Control_c, 0, 64, 44
1, 74245, Control_c, 0, 64, 50
1, 74259, Control_c, 0, 64, 54
1, 74261, Note_off_c, 0, 63, 66
1, 74264, Note_off_c, 0, 60, 64
1, 74274, Control_c, 0, 64, 56
1, 74289, Control_c, 0, 64, 56
1, 74341, Note_on_c, 0, 60, 76
1, 74343, Note_on_c, 0, 63, 68
1, 74367, Note_off_c, 0, 63, 67
1, 74372, Note_off_c, 0, 60, 62
1, 74393, Control_c, 0, 64, 56
1, 74408, Control_c, 0, 64, 53
1, 74423, Control_c, 0, 64, 44
1, 74437, Control_c, 0, 64, 0
1, 74446, Note_off_c, 0, 79, 53
1, 74465, Note_on_c, 0, 62, 98
1, 74467, Note_on_c, 0, 65, 93
1, 74497, Note_off_c, 0, 65, 61
1, 74501, Note_off_c, 0, 62, 67
1, 74543, Note_off_c, 0, 67, 55
1, 74548, Note_on_c, 0, 77, 86
1, 74606, Note_on_c, 0, 74, 78
1, 74665, Note_off_c, 0, 77, 54
1, 74666, Note_on_c, 0, 71, 83
1, 74683, Note_off_c, 0, 74, 64
1, 74689, Control_c, 0, 64, 25
1, 74711, Control_c, 0, 64, 38
1, 74724, Note_off_c, 0, 71, 63
1, 74726, Control_c, 0, 64, 45
1, 74734, Note_on_c, 0, 67, 83
1, 74741, Control_c, 0, 64, 50
1, 74755, Control_c, 0, 64, 51
1, 74770, Control_c, 0, 64, 49
1, 74784, Note_off_c, 0, 67, 61
1, 74785, Control_c, 0, 64, 48
1, 74799, Note_on_c, 0, 65, 79
1, 74800, Control_c, 0, 64, 46
1, 74815, Control_c, 0, 64, 45
1, 74829, Control_c, 0, 64, 46
1, 74837, Note_on_c, 0, 62, 71
1, 74844, Control_c, 0, 64, 47
1, 74859, Control_c, 0, 64, 48
1, 74871, Note_off_c, 0, 65, 61
1, 74905, Note_on_c, 0, 59, 77
1, 74908, Note_off_c, 0, 62, 62
1, 74933, Control_c, 0, 64, 47
1, 74948, Control_c, 0, 64, 45
1, 74950, Note_off_c, 0, 59, 59
1, 74960, Note_on_c, 0, 60, 86
1, 74963, Control_c, 0, 64, 39
1, 74978, Control_c, 0, 64, 22
1, 74993, Control_c, 0, 64, 0
1, 75020, Note_on_c, 0, 63, 80
1, 75027, Note_off_c, 0, 60, 60
1, 75091, Note_on_c, 0, 60, 68
1, 75100, Note_off_c, 0, 63, 62
1, 75136, Note_off_c, 0, 60, 60
1, 75142, Control_c, 0, 67, 8
1, 75157, Control_c, 0, 67, 14
1, 75160, Note_on_c, 0, 55, 70
1, 75171, Control_c, 0, 67, 21
1, 75186, Control_c, 0, 67, 29
1, 75201, Control_c, 0, 67, 36
1, 75216, Note_on_c, 0, 32, 74
1, 75216, Control_c, 0, 67, 44
1, 75222, Note_on_c, 0, 54, 79
1, 75231, Control_c, 0, 67, 52
1, 75245, Control_c, 0, 67, 60
1, 75252, Note_off_c, 0, 32, 60
1, 75255, Note_off_c, 0, 55, 60
1, 75260, Control_c, 0, 67, 68
1, 75266, Note_on_c, 0, 44, 60
1, 75275, Control_c, 0, 67, 76
1, 75289, Note_off_c, 0, 54, 61
1, 75290, Control_c, 0, 67, 81
1, 75303, Note_on_c, 0, 60, 71
1, 75303, Note_off_c, 0, 44, 65
1, 75305, Control_c, 0, 67, 86
1, 75320, Control_c, 0, 67, 93
1, 75328, Note_on_c, 0, 32, 75
1, 75334, Control_c, 0, 67, 99
1, 75344, Note_on_c, 0, 56, 70
1, 75349, Control_c, 0, 67, 104
1, 75364, Control_c, 0, 67, 108
1, 75365, Note_off_c, 0, 60, 60
1, 75377, Note_off_c, 0, 32, 63
1, 75378, Control_c, 0, 67, 112
1, 75382, Note_on_c, 0, 44, 68
1, 75393, Control_c, 0, 67, 115
1, 75400, Note_on_c, 0, 54, 70
1, 75407, Note_off_c, 0, 56, 63
1, 75408, Control_c, 0, 67, 117
1, 75416, Note_off_c, 0, 44, 65
1, 75436, Note_off_c, 0, 54, 64
1, 75467, Note_on_c, 0, 31, 79
1, 75467, Note_on_c, 0, 55, 86
1, 75475, Control_c, 0, 67, 115
1, 75505, Note_off_c, 0, 55, 61
1, 75505, Control_c, 0, 67, 115
1, 75516, Note_off_c, 0, 31, 63
1, 75528, Note_on_c, 0, 43, 61
1, 75560, Note_off_c, 0, 43, 62
1, 75595, Note_on_c, 0, 66, 78
1, 75595, Note_on_c, 0, 31, 69
1, 75623, Control_c, 0, 67, 114
1, 75629, Note_off_c, 0, 31, 65
1, 75639, Note_off_c, 0, 66, 59
1, 75652, Control_c, 0, 67, 113
1, 75660, Note_on_c, 0, 43, 55
1, 75667, Control_c, 0, 67, 112
1, 75682, Control_c, 0, 67, 112
1, 75692, Note_off_c, 0, 43, 56
1, 75711, Control_c, 0, 67, 111
1, 75716, Note_on_c, 0, 31, 76
1, 75717, Note_on_c, 0, 67, 74
1, 75726, Control_c, 0, 67, 110
1, 75741, Control_c, 0, 67, 110
1, 75742, Note_off_c, 0, 67, 63
1, 75756, Note_off_c, 0, 31, 62
1, 75756, Control_c, 0, 67, 109
1, 75776, Note_on_c, 0, 43, 67
1, 75815, Note_off_c, 0, 43, 61
1, 75831, Control_c, 0, 67, 108
1, 75841, Note_on_c, 0, 31, 77
1, 75842, Note_on_c, 0, 72, 76
1, 75846, Control_c, 0, 67, 107
1, 75853, Note_on_c, 0, 66, 70
1, 75861, Control_c, 0, 67, 105
1, 75872, Note_off_c, 0, 66, 69
1, 75875, Control_c, 0, 67, 103
1, 75876, Note_off_c, 0, 31, 64
1, 75890, Control_c, 0, 67, 100
1, 75891, Note_off_c, 0, 72, 66
1, 75903, Note_on_c, 0, 43, 70
1, 75905, Control_c, 0, 67, 94
1, 75920, Control_c, 0, 67, 81
1, 75935, Control_c, 0, 67, 66
1, 75941, Note_off_c, 0, 43, 63
1, 75950, Control_c, 0, 67, 49
1, 75963, Note_on_c, 0, 31, 82
1, 75965, Note_on_c, 0, 67, 84
1, 75965, Control_c, 0, 67, 29
1, 75967, Note_on_c, 0, 71, 77
1, 75979, Control_c, 0, 67, 9
1, 75988, Note_off_c, 0, 71, 68
1, 75994, Control_c, 0, 67, 0
1, 76004, Note_off_c, 0, 31, 62
1, 76004, Note_off_c, 0, 67, 60
1, 76025, Note_on_c, 0, 43, 73
1, 76080, Note_off_c, 0, 43, 57
1, 76081, Note_on_c, 0, 31, 84
1, 76087, Note_on_c, 0, 78, 91
1, 76103, Note_on_c, 0, 72, 67
1, 76119, Note_off_c, 0, 72, 67
1, 76125, Note_off_c, 0, 31, 64
1, 76137, Note_off_c, 0, 78, 65
1, 76140, Note_on_c, 0, 43, 72
1, 76206, Note_on_c, 0, 31, 87
1, 76206, Note_off_c, 0, 43, 60
1, 76213, Note_on_c, 0, 79, 89
1, 76218, Note_on_c, 0, 71, 83
1, 76245, Note_off_c, 0, 71, 66
1, 76252, Note_off_c, 0, 79, 63
1, 76258, Note_off_c, 0, 31, 65
1, 76277, Note_on_c, 0, 43, 81
1, 76334, Note_on_c, 0, 31, 89
1, 76334, Note_on_c, 0, 84, 98
1, 76342, Note_on_c, 0, 78, 86
1, 76342, Note_off_c, 0, 43, 56
1, 76356, Control_c, 0, 64, 18
1, 76360, Note_off_c, 0, 78, 72
1, 76371, Note_on_c, 0, 86, 38
1, 76371, Control_c, 0, 64, 28
1, 76386, Note_off_c, 0, 31, 64
1, 76386, Control_c, 0, 64, 32
1, 76396, Note_off_c, 0, 84, 63
1, 76400, Note_on_c, 0, 43, 78
1, 76400, Control_c, 0, 64, 36
1, 76402, Note_off_c, 0, 86, 34
1, 76415, Control_c, 0, 64, 41
1, 76430, Control_c, 0, 64, 44
1, 76445, Control_c, 0, 64, 45
1, 76457, Note_off_c, 0, 43, 61
1, 76460, Control_c, 0, 64, 45
1, 76462, Note_on_c, 0, 79, 98
1, 76463, Note_on_c, 0, 31, 91
1, 76463, Note_on_c, 0, 83, 92
1, 76474, Control_c, 0, 64, 44
1, 76489, Control_c, 0, 64, 43
1, 76504, Control_c, 0, 64, 40
1, 76519, Control_c, 0, 64, 32
1, 76522, Note_off_c, 0, 31, 64
1, 76525, Note_off_c, 0, 83, 55
1, 76525, Note_on_c, 0, 43, 80
1, 76534, Note_off_c, 0, 79, 56
1, 76534, Control_c, 0, 64, 0
1, 76585, Note_off_c, 0, 43, 62
1, 76593, Note_on_c, 0, 31, 79
1, 76649, Note_off_c, 0, 31, 64
1, 76653, Note_on_c, 0, 43, 75
1, 76707, Note_off_c, 0, 43, 61
1, 76719, Note_on_c, 0, 31, 74
1, 76773, Note_off_c, 0, 31, 63
1, 76777, Note_on_c, 0, 43, 78
1, 76838, Note_on_c, 0, 31, 78
1, 76845, Note_off_c, 0, 43, 55
1, 76876, Control_c, 0, 64, 18
1, 76890, Control_c, 0, 64, 22
1, 76905, Control_c, 0, 64, 24
1, 76907, Note_on_c, 0, 43, 76
1, 76912, Note_off_c, 0, 31, 62
1, 76920, Control_c, 0, 64, 25
1, 76957, Control_c, 0, 64, 26
1, 76972, Control_c, 0, 64, 29
1, 76978, Note_on_c, 0, 31, 80
1, 76987, Control_c, 0, 64, 32
1, 76996, Note_on_c, 0, 63, 82
1, 76996, Note_on_c, 0, 58, 97
1, 76996, Note_off_c, 0, 43, 62
1, 76999, Note_on_c, 0, 61, 96
1, 77002, Control_c, 0, 64, 37
1, 77017, Control_c, 0, 64, 44
1, 77032, Control_c, 0, 64, 53
1, 77047, Control_c, 0, 64, 59
1, 77054, Note_on_c, 0, 43, 72
1, 77061, Control_c, 0, 64, 60
1, 77064, Note_off_c, 0, 31, 63
1, 77091, Control_c, 0, 64, 60
1, 77106, Control_c, 0, 64, 59
1, 77115, Note_on_c, 0, 31, 68
1, 77121, Control_c, 0, 64, 58
1, 77133, Note_off_c, 0, 43, 61
1, 77136, Control_c, 0, 64, 57
1, 77150, Control_c, 0, 64, 56
1, 77183, Note_off_c, 0, 31, 63
1, 77190, Note_on_c, 0, 43, 61
1, 77195, Control_c, 0, 64, 57
1, 77210, Control_c, 0, 64, 58
1, 77224, Control_c, 0, 64, 59
1, 77239, Control_c, 0, 64, 61
1, 77246, Note_on_c, 0, 31, 67
1, 77248, Note_off_c, 0, 43, 61
1, 77254, Control_c, 0, 64, 63
1, 77269, Control_c, 0, 64, 66
1, 77284, Control_c, 0, 64, 68
1, 77298, Control_c, 0, 64, 68
1, 77307, Note_off_c, 0, 31, 62
1, 77313, Note_on_c, 0, 43, 62
1, 77313, Control_c, 0, 64, 69
1, 77326, Poly_aftertouch_c, 0, 64, 127
1, 77328, Control_c, 0, 64, 70
1, 77340, Note_off_c, 0, 58, 62
1, 77343, Control_c, 0, 64, 71
1, 77357, Control_c, 0, 64, 72
1, 77360, Note_off_c, 0, 43, 62
1, 77373, Control_c, 0, 64, 72
1, 77377, Note_on_c, 0, 31, 74
1, 77388, Control_c, 0, 64, 73
1, 77403, Control_c, 0, 64, 76
1, 77418, Control_c, 0, 64, 83
1, 77422, Note_off_c, 0, 31, 62
1, 77433, Control_c, 0, 64, 99
1, 77437, Note_on_c, 0, 43, 69
1, 77447, Control_c, 0, 64, 127
1, 77452, Poly_aftertouch_c, 0, 64, 0
1, 77467, Note_off_c, 0, 43, 65
1, 77492, Control_c, 0, 64, 118
1, 77507, Control_c, 0, 64, 76
1, 77512, Note_on_c, 0, 32, 89
1, 77513, Note_on_c, 0, 60, 83
1, 77521, Control_c, 0, 64, 53
1, 77527, Note_off_c, 0, 63, 40
1, 77532, Note_off_c, 0, 61, 59
1, 77536, Control_c, 0, 64, 0
1, 77546, Note_off_c, 0, 60, 60
1, 77562, Note_off_c, 0, 32, 64
1, 77569, Note_on_c, 0, 44, 78
1, 77624, Note_off_c, 0, 44, 60
1, 77634, Note_on_c, 0, 32, 81
1, 77639, Note_on_c, 0, 67, 74
1, 77650, Note_on_c, 0, 73, 65
1, 77671, Note_off_c, 0, 67, 61
1, 77678, Note_off_c, 0, 73, 65
1, 77684, Note_off_c, 0, 32, 63
1, 77708, Note_on_c, 0, 44, 68
1, 77721, Control_c, 0, 67, 8
1, 77736, Control_c, 0, 67, 9
1, 77751, Control_c, 0, 67, 10
1, 77755, Note_off_c, 0, 44, 60
1, 77764, Note_on_c, 0, 32, 80
1, 77772, Note_on_c, 0, 68, 68
1, 77774, Note_on_c, 0, 72, 63
1, 77796, Note_off_c, 0, 68, 70
1, 77804, Note_off_c, 0, 72, 69
1, 77817, Note_off_c, 0, 32, 64
1, 77843, Note_on_c, 0, 44, 66
1, 77854, Control_c, 0, 67, 10
1, 77884, Control_c, 0, 67, 9
1, 77885, Note_off_c, 0, 44, 55
1, 77895, Note_on_c, 0, 32, 75
1, 77897, Note_on_c, 0, 77, 71
1, 77899, Control_c, 0, 67, 8
1, 77914, Control_c, 0, 67, 0
1, 77934, Note_off_c, 0, 77, 61
1, 77941, Note_off_c, 0, 32, 61
1, 77962, Note_on_c, 0, 44, 71
1, 78011, Note_off_c, 0, 44, 60
1, 78018, Note_on_c, 0, 32, 79
1, 78022, Note_on_c, 0, 80, 72
1, 78024, Note_on_c, 0, 72, 65
1, 78039, Note_off_c, 0, 80, 67
1, 78041, Note_off_c, 0, 72, 67
1, 78070, Note_off_c, 0, 32, 63
1, 78087, Note_on_c, 0, 44, 66
1, 78141, Note_on_c, 0, 79, 81
1, 78141, Note_on_c, 0, 85, 83
1, 78144, Note_on_c, 0, 32, 76
1, 78150, Note_off_c, 0, 44, 57
1, 78173, Note_off_c, 0, 79, 63
1, 78190, Note_off_c, 0, 85, 60
1, 78195, Note_off_c, 0, 32, 62
1, 78211, Note_on_c, 0, 44, 57
1, 78260, Note_on_c, 0, 80, 86
1, 78260, Note_on_c, 0, 84, 89
1, 78260, Note_off_c, 0, 44, 62
1, 78265, Note_on_c, 0, 32, 82
1, 78297, Note_off_c, 0, 80, 64
1, 78302, Note_off_c, 0, 84, 67
1, 78316, Note_off_c, 0, 32, 64
1, 78337, Note_on_c, 0, 44, 69
1, 78381, Note_on_c, 0, 79, 88
1, 78385, Note_on_c, 0, 85, 87
1, 78387, Note_on_c, 0, 32, 81
1, 78400, Note_off_c, 0, 44, 57
1, 78418, Note_off_c, 0, 79, 62
1, 78434, Note_off_c, 0, 85, 64
1, 78450, Note_off_c, 0, 32, 64
1, 78467, Note_on_c, 0, 44, 66
1, 78519, Note_on_c, 0, 84, 93
1, 78519, Note_off_c, 0, 44, 52
1, 78520, Note_on_c, 0, 32, 82
1, 78522, Note_on_c, 0, 80, 92
1, 78568, Note_off_c, 0, 80, 63
1, 78568, Note_off_c, 0, 84, 64
1, 78573, Note_off_c, 0, 32, 64
1, 78586, Note_on_c, 0, 44, 72
1, 78641, Note_on_c, 0, 32, 84
1, 78654, Note_off_c, 0, 44, 61
1, 78704, Note_off_c, 0, 32, 64
1, 78705, Note_on_c, 0, 44, 69
1, 78761, Note_off_c, 0, 44, 61
1, 78762, Note_on_c, 0, 32, 78
1, 78811, Control_c, 0, 64, 28
1, 78826, Control_c, 0, 64, 51
1, 78829, Note_off_c, 0, 32, 63
1, 78835, Note_on_c, 0, 44, 70
1, 78841, Control_c, 0, 64, 57
1, 78856, Control_c, 0, 64, 58
1, 78870, Control_c, 0, 64, 59
1, 78885, Control_c, 0, 64, 60
1, 78886, Note_off_c, 0, 44, 57
1, 78886, Note_on_c, 0, 32, 81
1, 78900, Control_c, 0, 64, 60
1, 78914, Control_c, 0, 64, 61
1, 78929, Control_c, 0, 64, 62
1, 78944, Note_on_c, 0, 44, 58
1, 78944, Control_c, 0, 64, 64
1, 78949, Note_off_c, 0, 32, 63
1, 79002, Note_off_c, 0, 44, 60
1, 79019, Control_c, 0, 64, 62
1, 79034, Control_c, 0, 64, 55
1, 79043, Note_on_c, 0, 66, 94
1, 79045, Note_on_c, 0, 63, 95
1, 79047, Note_on_c, 0, 33, 90
1, 79048, Note_on_c, 0, 60, 92
1, 79049, Control_c, 0, 64, 0
1, 79121, Note_on_c, 0, 45, 80
1, 79129, Note_off_c, 0, 33, 65
1, 79152, Control_c, 0, 64, 52
1, 79167, Control_c, 0, 64, 59
1, 79182, Control_c, 0, 64, 58
1, 79184, Note_off_c, 0, 45, 60
1, 79196, Note_on_c, 0, 33, 73
1, 79205, Control_c, 0, 64, 58
1, 79220, Control_c, 0, 64, 58
1, 79255, Note_on_c, 0, 45, 73
1, 79257, Note_off_c, 0, 33, 65
1, 79264, Control_c, 0, 64, 59
1, 79279, Control_c, 0, 64, 60
1, 79294, Control_c, 0, 64, 63
1, 79305, Note_off_c, 0, 45, 64
1, 79308, Control_c, 0, 64, 66
1, 79313, Note_on_c, 0, 33, 75
1, 79323, Control_c, 0, 64, 69
1, 79338, Control_c, 0, 64, 73
1, 79352, Control_c, 0, 64, 76
1, 79367, Control_c, 0, 64, 78
1, 79372, Note_off_c, 0, 33, 63
1, 79376, Note_on_c, 0, 45, 79
1, 79382, Control_c, 0, 64, 81
1, 79397, Control_c, 0, 64, 83
1, 79412, Control_c, 0, 64, 84
1, 79419, Note_off_c, 0, 45, 63
1, 79426, Control_c, 0, 64, 85
1, 79440, Note_on_c, 0, 33, 77
1, 79441, Control_c, 0, 64, 88
1, 79455, Note_off_c, 0, 63, 38
1, 79456, Control_c, 0, 64, 96
1, 79471, Control_c, 0, 64, 127
1, 79491, Note_off_c, 0, 60, 45
1, 79497, Note_on_c, 0, 45, 75
1, 79500, Note_off_c, 0, 33, 66
1, 79533, Note_off_c, 0, 66, 62
1, 79548, Note_off_c, 0, 45, 63
1, 79568, Note_on_c, 0, 65, 86
1, 79580, Note_on_c, 0, 34, 89
1, 79589, Control_c, 0, 64, 85
1, 79598, Note_off_c, 0, 65, 62
1, 79604, Control_c, 0, 64, 61
1, 79619, Control_c, 0, 64, 0
1, 79630, Note_off_c, 0, 34, 64
1, 79636, Note_on_c, 0, 46, 81
1, 79690, Note_off_c, 0, 46, 63
1, 79699, Note_on_c, 0, 69, 77
1, 79699, Note_on_c, 0, 75, 86
1, 79704, Note_on_c, 0, 34, 79
1, 79729, Note_off_c, 0, 69, 66
1, 79751, Note_off_c, 0, 75, 65
1, 79753, Note_off_c, 0, 34, 63
1, 79772, Note_on_c, 0, 46, 74
1, 79821, Note_on_c, 0, 74, 73
1, 79826, Note_on_c, 0, 70, 69
1, 79827, Note_off_c, 0, 46, 56
1, 79830, Note_on_c, 0, 34, 77
1, 79846, Note_off_c, 0, 74, 64
1, 79850, Note_off_c, 0, 70, 69
1, 79881, Note_off_c, 0, 34, 66
1, 79901, Note_on_c, 0, 46, 73
1, 79902, Control_c, 0, 67, 8
1, 79916, Control_c, 0, 67, 8
1, 79931, Control_c, 0, 67, 9
1, 79947, Note_on_c, 0, 81, 84
1, 79953, Control_c, 0, 67, 11
1, 79956, Note_off_c, 0, 46, 60
1, 79965, Note_on_c, 0, 75, 64
1, 79965, Note_on_c, 0, 34, 72
1, 79968, Control_c, 0, 67, 12
1, 79983, Control_c, 0, 67, 13
1, 79986, Note_off_c, 0, 75, 65
1, 79992, Note_off_c, 0, 81, 63
1, 80013, Note_off_c, 0, 34, 65
1, 80042, Note_on_c, 0, 46, 78
1, 80072, Note_on_c, 0, 82, 87
1, 80072, Control_c, 0, 67, 12
1, 80074, Note_on_c, 0, 74, 73
1, 80078, Note_off_c, 0, 46, 60
1, 80090, Note_on_c, 0, 34, 78
1, 80095, Note_off_c, 0, 74, 73
1, 80102, Control_c, 0, 67, 11
1, 80117, Control_c, 0, 67, 8
1, 80120, Note_off_c, 0, 82, 63
1, 80131, Control_c, 0, 67, 0
1, 80141, Note_off_c, 0, 34, 66
1, 80159, Note_on_c, 0, 46, 81
1, 80200, Note_off_c, 0, 46, 59
1, 80201, Note_on_c, 0, 81, 81
1, 80203, Note_on_c, 0, 87, 87
1, 80210, Note_on_c, 0, 34, 78
1, 80229, Note_off_c, 0, 81, 60
1, 80254, Note_off_c, 0, 87, 60
1, 80257, Note_off_c, 0, 34, 65
1, 80276, Note_on_c, 0, 46, 72
1, 80319, Note_on_c, 0, 82, 95
1, 80319, Note_on_c, 0, 86, 88
1, 80322, Note_on_c, 0, 34, 79
1, 80325, Note_off_c, 0, 46, 46
1, 80357, Note_off_c, 0, 82, 65
1, 80363, Note_off_c, 0, 86, 64
1, 80375, Note_off_c, 0, 34, 65
1, 80388, Note_on_c, 0, 46, 74
1, 80439, Note_on_c, 0, 81, 91
1, 80441, Note_on_c, 0, 87, 89
1, 80442, Control_c, 0, 64, 12
1, 80444, Note_on_c, 0, 34, 81
1, 80457, Control_c, 0, 64, 31
1, 80459, Note_off_c, 0, 46, 55
1, 80472, Control_c, 0, 64, 43
1, 80480, Note_off_c, 0, 81, 62
1, 80486, Control_c, 0, 64, 48
1, 80496, Note_off_c, 0, 34, 65
1, 80501, Control_c, 0, 64, 49
1, 80503, Note_off_c, 0, 87, 63
1, 80505, Note_on_c, 0, 46, 68
1, 80531, Control_c, 0, 64, 48
1, 80561, Note_on_c, 0, 86, 94
1, 80561, Control_c, 0, 64, 47
1, 80563, Note_off_c, 0, 46, 53
1, 80564, Note_on_c, 0, 34, 83
1, 80564, Note_on_c, 0, 82, 95
1, 80576, Control_c, 0, 64, 43
1, 80591, Control_c, 0, 64, 34
1, 80599, Note_off_c, 0, 82, 67
1, 80601, Note_off_c, 0, 86, 66
1, 80606, Control_c, 0, 64, 0
1, 80623, Note_off_c, 0, 34, 65
1, 80630, Note_on_c, 0, 46, 82
1, 80684, Note_on_c, 0, 34, 81
1, 80714, Note_off_c, 0, 46, 62
1, 80758, Note_on_c, 0, 46, 67
1, 80761, Note_off_c, 0, 34, 65
1, 80811, Poly_aftertouch_c, 0, 41, 127
1, 80817, Note_on_c, 0, 34, 76
1, 80820, Note_on_c, 0, 81, 94
1, 80826, Note_on_c, 0, 75, 90
1, 80833, Poly_aftertouch_c, 0, 41, 0
1, 80840, Note_off_c, 0, 46, 63
1, 80870, Poly_aftertouch_c, 0, 41, 127
1, 80882, Note_off_c, 0, 34, 65
1, 80886, Note_on_c, 0, 46, 73
1, 80910, Control_c, 0, 64, 32
1, 80924, Control_c, 0, 64, 36
1, 80939, Control_c, 0, 64, 37
1, 80948, Note_on_c, 0, 34, 79
1, 80954, Control_c, 0, 64, 40
1, 80968, Note_off_c, 0, 46, 59
1, 80969, Control_c, 0, 64, 43
1, 80984, Control_c, 0, 64, 45
1, 80987, Poly_aftertouch_c, 0, 41, 0
1, 81013, Control_c, 0, 64, 44
1, 81014, Note_off_c, 0, 34, 65
1, 81021, Note_on_c, 0, 46, 72
1, 81023, Poly_aftertouch_c, 0, 41, 127
1, 81028, Control_c, 0, 64, 43
1, 81043, Control_c, 0, 64, 42
1, 81058, Control_c, 0, 64, 40
1, 81072, Control_c, 0, 64, 37
1, 81081, Note_on_c, 0, 82, 80
1, 81082, Note_off_c, 0, 46, 56
1, 81084, Note_on_c, 0, 34, 79
1, 81087, Note_on_c, 0, 74, 75
1, 81087, Control_c, 0, 64, 34
1, 81102, Control_c, 0, 64, 28
1, 81116, Control_c, 0, 64, 22
1, 81130, Poly_aftertouch_c, 0, 41, 0
1, 81131, Control_c, 0, 64, 20
1, 81145, Note_off_c, 0, 34, 66
1, 81146, Control_c, 0, 64, 17
1, 81152, Note_off_c, 0, 75, 63
1, 81154, Note_off_c, 0, 81, 50
1, 81157, Note_on_c, 0, 46, 81
1, 81161, Control_c, 0, 64, 14
1, 81167, Note_off_c, 0, 82, 61
1, 81167, Poly_aftertouch_c, 0, 41, 127
1, 81176, Note_off_c, 0, 74, 65
1, 81176, Control_c, 0, 64, 10
1, 81190, Control_c, 0, 64, 0
1, 81214, Note_on_c, 0, 34, 84
1, 81219, Poly_aftertouch_c, 0, 41, 0
1, 81235, Note_off_c, 0, 46, 64
1, 81285, Note_off_c, 0, 34, 66
1, 81287, Note_on_c, 0, 46, 73
1, 81332, Note_on_c, 0, 69, 91
1, 81336, Note_on_c, 0, 75, 95
1, 81341, Note_on_c, 0, 34, 79
1, 81361, Note_off_c, 0, 46, 64
1, 81411, Note_off_c, 0, 34, 65
1, 81417, Note_on_c, 0, 46, 77
1, 81485, Note_on_c, 0, 34, 76
1, 81500, Note_off_c, 0, 46, 60
1, 81552, Note_off_c, 0, 34, 65
1, 81560, Note_on_c, 0, 46, 70
1, 81601, Note_on_c, 0, 74, 69
1, 81605, Note_on_c, 0, 70, 78
1, 81618, Note_off_c, 0, 46, 58
1, 81619, Note_on_c, 0, 34, 73
1, 81625, Note_off_c, 0, 69, 64
1, 81640, Note_off_c, 0, 75, 56
1, 81673, Control_c, 0, 64, 32
1, 81680, Note_off_c, 0, 34, 65
1, 81680, Note_off_c, 0, 74, 64
1, 81682, Note_off_c, 0, 70, 62
1, 81688, Control_c, 0, 64, 44
1, 81690, Note_on_c, 0, 46, 81
1, 81703, Control_c, 0, 64, 50
1, 81718, Control_c, 0, 64, 52
1, 81747, Note_on_c, 0, 34, 77
1, 81762, Control_c, 0, 64, 53
1, 81765, Note_off_c, 0, 46, 62
1, 81777, Control_c, 0, 64, 55
1, 81792, Control_c, 0, 64, 57
1, 81794, Note_on_c, 0, 37, 27
1, 81807, Control_c, 0, 64, 59
1, 81821, Note_on_c, 0, 46, 79
1, 81822, Note_off_c, 0, 34, 65
1, 81822, Control_c, 0, 64, 60
1, 81837, Control_c, 0, 64, 62
1, 81839, Note_off_c, 0, 37, 28
1, 81852, Control_c, 0, 64, 64
1, 81863, Note_on_c, 0, 69, 94
1, 81867, Note_on_c, 0, 63, 97
1, 81867, Control_c, 0, 64, 65
1, 81873, Note_on_c, 0, 34, 73
1, 81882, Control_c, 0, 64, 66
1, 81896, Control_c, 0, 64, 65
1, 81899, Note_off_c, 0, 46, 62
1, 81911, Control_c, 0, 64, 61
1, 81926, Control_c, 0, 64, 43
1, 81940, Control_c, 0, 64, 0
1, 81947, Note_on_c, 0, 46, 75
1, 81953, Note_off_c, 0, 34, 66
1, 82009, Note_on_c, 0, 34, 71
1, 82029, Note_off_c, 0, 46, 63
1, 82044, Control_c, 0, 64, 33
1, 82059, Control_c, 0, 64, 57
1, 82073, Control_c, 0, 64, 61
1, 82081, Note_off_c, 0, 34, 65
1, 82086, Note_on_c, 0, 46, 73
1, 82088, Control_c, 0, 64, 61
1, 82118, Control_c, 0, 64, 62
1, 82138, Note_on_c, 0, 70, 83
1, 82138, Note_on_c, 0, 62, 81
1, 82148, Note_on_c, 0, 34, 76
1, 82163, Note_off_c, 0, 46, 61
1, 82163, Control_c, 0, 64, 61
1, 82167, Note_off_c, 0, 69, 59
1, 82178, Control_c, 0, 64, 61
1, 82201, Control_c, 0, 64, 60
1, 82221, Note_off_c, 0, 34, 65
1, 82224, Note_on_c, 0, 46, 74
1, 82225, Note_off_c, 0, 63, 61
1, 82228, Note_off_c, 0, 70, 60
1, 82241, Note_off_c, 0, 62, 62
1, 82275, Control_c, 0, 64, 61
1, 82284, Note_on_c, 0, 34, 80
1, 82297, Note_off_c, 0, 46, 58
1, 82305, Control_c, 0, 64, 62
1, 82319, Control_c, 0, 64, 63
1, 82334, Control_c, 0, 64, 64
1, 82349, Control_c, 0, 64, 67
1, 82353, Note_off_c, 0, 34, 65
1, 82362, Note_on_c, 0, 46, 76
1, 82363, Control_c, 0, 64, 67
1, 82378, Control_c, 0, 64, 65
1, 82393, Control_c, 0, 64, 54
1, 82408, Control_c, 0, 64, 0
1, 82410, Note_on_c, 0, 57, 90
1, 82411, Note_on_c, 0, 63, 94
1, 82412, Note_on_c, 0, 34, 79
1, 82430, Note_off_c, 0, 46, 63
1, 82467, Control_c, 0, 64, 61
1, 82481, Note_off_c, 0, 34, 64
1, 82482, Note_on_c, 0, 46, 75
1, 82482, Control_c, 0, 64, 76
1, 82497, Control_c, 0, 64, 110
1, 82511, Control_c, 0, 64, 127
1, 82531, Note_on_c, 0, 34, 74
1, 82578, Poly_aftertouch_c, 0, 41, 127
1, 82601, Note_off_c, 0, 34, 64
1, 82610, Note_off_c, 0, 46, 0
1, 82610, Note_on_c, 0, 46, 10
1, 82669, Note_on_c, 0, 62, 88
1, 82669, Note_off_c, 0, 57, 38
1, 82671, Note_on_c, 0, 58, 84
1, 82675, Note_on_c, 0, 34, 80
1, 82702, Note_off_c, 0, 63, 60
1, 82719, Control_c, 0, 64, 93
1, 82734, Control_c, 0, 64, 60
1, 82734, Control_c, 0, 67, 11
1, 82749, Control_c, 0, 64, 0
1, 82749, Control_c, 0, 67, 32
1, 82763, Control_c, 0, 67, 56
1, 82764, Note_off_c, 0, 46, 51
1, 82778, Control_c, 0, 67, 75
1, 82785, Note_off_c, 0, 62, 62
1, 82792, Note_off_c, 0, 34, 58
1, 82793, Control_c, 0, 67, 86
1, 82808, Control_c, 0, 67, 90
1, 82811, Note_off_c, 0, 58, 62
1, 82812, Note_on_c, 0, 57, 66
1, 82819, Poly_aftertouch_c, 0, 41, 0
1, 82823, Control_c, 0, 67, 94
1, 82837, Control_c, 0, 67, 102
1, 82852, Control_c, 0, 67, 109
1, 82867, Control_c, 0, 67, 112
1, 82896, Control_c, 0, 67, 113
1, 82911, Control_c, 0, 67, 117
1, 82922, Note_off_c, 0, 57, 59
1, 82926, Control_c, 0, 67, 122
1, 82941, Note_on_c, 0, 58, 63
1, 82949, Control_c, 0, 67, 125
1, 83008, Control_c, 0, 67, 126
1, 83023, Control_c, 0, 67, 127
1, 83068, Note_off_c, 0, 58, 61
1, 83071, Note_on_c, 0, 57, 50
1, 83189, Note_off_c, 0, 57, 58
1, 83199, Note_on_c, 0, 58, 54
1, 83330, Note_off_c, 0, 58, 54
1, 83336, Note_on_c, 0, 57, 49
1, 83463, Note_off_c, 0, 57, 38
1, 83464, Note_on_c, 0, 58, 52
1, 83592, Note_on_c, 0, 57, 49
1, 83674, Note_off_c, 0, 57, 61
1, 83691, Note_off_c, 0, 58, 33
1, 83740, Note_on_c, 0, 58, 36
1, 83853, Note_on_c, 0, 46, 69
1, 83862, Note_on_c, 0, 66, 46
1, 83865, Note_on_c, 0, 63, 47
1, 83887, Note_off_c, 0, 46, 63
1, 83891, Note_off_c, 0, 66, 63
1, 83898, Note_off_c, 0, 63, 63
1, 83977, Note_on_c, 0, 51, 71
1, 83983, Note_on_c, 0, 66, 58
1, 84001, Note_on_c, 0, 63, 54
1, 84016, Note_off_c, 0, 66, 66
1, 84024, Note_off_c, 0, 51, 58
1, 84027, Note_off_c, 0, 63, 64
1, 84100, Note_on_c, 0, 53, 70
1, 84114, Note_on_c, 0, 63, 62
1, 84121, Note_on_c, 0, 66, 43
1, 84125, Note_off_c, 0, 58, 57
1, 84145, Note_off_c, 0, 63, 63
1, 84149, Note_off_c, 0, 66, 57
1, 84152, Note_off_c, 0, 53, 57
1, 84213, Note_on_c, 0, 54, 80
1, 84231, Note_on_c, 0, 58, 70
1, 84236, Note_off_c, 0, 54, 69
1, 84358, Note_on_c, 0, 63, 58
1, 84365, Note_on_c, 0, 66, 53
1, 84367, Note_on_c, 0, 70, 56
1, 84393, Note_off_c, 0, 66, 67
1, 84394, Note_off_c, 0, 63, 59
1, 84415, Note_off_c, 0, 70, 49
1, 84478, Note_on_c, 0, 75, 82
1, 84488, Note_on_c, 0, 66, 62
1, 84507, Note_on_c, 0, 63, 51
1, 84523, Note_off_c, 0, 66, 64
1, 84535, Note_off_c, 0, 63, 62
1, 84536, Note_off_c, 0, 75, 64
1, 84612, Note_on_c, 0, 77, 82
1, 84633, Note_on_c, 0, 63, 56
1, 84644, Note_on_c, 0, 66, 19
1, 84648, Note_off_c, 0, 58, 59
1, 84663, Note_off_c, 0, 63, 62
1, 84669, Control_c, 0, 64, 28
1, 84684, Control_c, 0, 64, 36
1, 84685, Note_off_c, 0, 66, 45
1, 84693, Note_off_c, 0, 77, 53
1, 84699, Control_c, 0, 64, 38
1, 84713, Note_on_c, 0, 70, 66
1, 84713, Control_c, 0, 64, 41
1, 84728, Control_c, 0, 64, 44
1, 84740, Note_on_c, 0, 78, 81
1, 84743, Control_c, 0, 64, 45
1, 84752, Note_on_c, 0, 58, 53
1, 84758, Control_c, 0, 64, 44
1, 84773, Control_c, 0, 64, 41
1, 84788, Control_c, 0, 64, 37
1, 84803, Control_c, 0, 64, 29
1, 84818, Control_c, 0, 64, 0
1, 84843, Note_off_c, 0, 70, 59
1, 84874, Note_on_c, 0, 63, 52
1, 84880, Note_on_c, 0, 66, 47
1, 84904, Note_off_c, 0, 66, 63
1, 84911, Note_off_c, 0, 63, 62
1, 84993, Note_on_c, 0, 66, 58
1, 85012, Note_on_c, 0, 63, 57
1, 85034, Note_off_c, 0, 66, 61
1, 85046, Note_off_c, 0, 63, 61
1, 85123, Note_on_c, 0, 75, 66
1, 85143, Control_c, 0, 64, 31
1, 85149, Note_on_c, 0, 63, 48
1, 85158, Note_off_c, 0, 58, 60
1, 85158, Control_c, 0, 64, 44
1, 85159, Note_off_c, 0, 78, 62
1, 85173, Control_c, 0, 64, 52
1, 85174, Note_off_c, 0, 63, 59
1, 85195, Control_c, 0, 64, 56
1, 85205, Note_off_c, 0, 75, 64
1, 85210, Control_c, 0, 64, 57
1, 85225, Control_c, 0, 64, 56
1, 85238, Note_on_c, 0, 70, 61
1, 85239, Control_c, 0, 64, 53
1, 85254, Control_c, 0, 64, 43
1, 85269, Control_c, 0, 64, 0
1, 85273, Note_on_c, 0, 78, 84
1, 85282, Note_on_c, 0, 58, 60
1, 85399, Note_on_c, 0, 63, 56
1, 85403, Note_off_c, 0, 70, 44
1, 85404, Note_on_c, 0, 66, 53
1, 85435, Note_off_c, 0, 66, 67
1, 85438, Note_off_c, 0, 63, 62
1, 85521, Note_on_c, 0, 66, 63
1, 85536, Note_on_c, 0, 63, 55
1, 85557, Note_off_c, 0, 66, 62
1, 85566, Control_c, 0, 64, 38
1, 85567, Note_off_c, 0, 63, 65
1, 85581, Control_c, 0, 64, 43
1, 85596, Control_c, 0, 64, 44
1, 85611, Control_c, 0, 64, 46
1, 85626, Control_c, 0, 64, 49
1, 85641, Control_c, 0, 64, 53
1, 85644, Note_on_c, 0, 75, 67
1, 85650, Note_on_c, 0, 63, 60
1, 85655, Control_c, 0, 64, 55
1, 85665, Note_on_c, 0, 66, 48
1, 85670, Control_c, 0, 64, 55
1, 85679, Note_off_c, 0, 58, 37
1, 85685, Control_c, 0, 64, 54
1, 85694, Note_off_c, 0, 63, 59
1, 85694, Note_off_c, 0, 66, 63
1, 85700, Control_c, 0, 64, 52
1, 85714, Control_c, 0, 64, 48
1, 85729, Control_c, 0, 64, 34
1, 85737, Note_off_c, 0, 78, 54
1, 85744, Control_c, 0, 64, 0
1, 85769, Note_on_c, 0, 74, 70
1, 85777, Note_off_c, 0, 75, 40
1, 85784, Note_on_c, 0, 58, 58
1, 85790, Note_off_c, 0, 74, 73
1, 85916, Note_on_c, 0, 46, 81
1, 85921, Note_on_c, 0, 68, 66
1, 85921, Note_on_c, 0, 65, 60
1, 85954, Note_off_c, 0, 46, 65
1, 85959, Note_off_c, 0, 68, 64
1, 85970, Note_off_c, 0, 65, 60
1, 86052, Note_on_c, 0, 53, 75
1, 86059, Note_on_c, 0, 68, 72
1, 86063, Note_on_c, 0, 65, 60
1, 86067, Note_on_c, 0, 52, 64
1, 86082, Note_off_c, 0, 68, 68
1, 86089, Note_off_c, 0, 52, 62
1, 86094, Note_off_c, 0, 53, 64
1, 86100, Note_off_c, 0, 65, 61
1, 86175, Note_on_c, 0, 54, 79
1, 86181, Note_on_c, 0, 68, 68
1, 86185, Note_on_c, 0, 65, 60
1, 86198, Note_off_c, 0, 58, 56
1, 86206, Note_off_c, 0, 68, 67
1, 86217, Note_off_c, 0, 65, 64
1, 86233, Note_off_c, 0, 54, 60
1, 86290, Note_on_c, 0, 56, 82
1, 86302, Note_on_c, 0, 58, 74
1, 86321, Note_off_c, 0, 56, 62
1, 86428, Note_on_c, 0, 65, 62
1, 86430, Note_on_c, 0, 68, 70
1, 86430, Note_on_c, 0, 70, 83
1, 86454, Note_off_c, 0, 68, 68
1, 86471, Note_off_c, 0, 65, 60
1, 86553, Note_on_c, 0, 80, 84
1, 86553, Note_on_c, 0, 68, 63
1, 86568, Note_on_c, 0, 65, 59
1, 86579, Note_off_c, 0, 70, 62
1, 86580, Note_off_c, 0, 68, 68
1, 86599, Note_off_c, 0, 65, 65
1, 86666, Note_off_c, 0, 80, 64
1, 86667, Note_on_c, 0, 78, 82
1, 86691, Note_on_c, 0, 68, 56
1, 86694, Note_on_c, 0, 65, 51
1, 86700, Note_off_c, 0, 78, 65
1, 86711, Note_off_c, 0, 68, 62
1, 86716, Note_off_c, 0, 58, 56
1, 86720, Note_off_c, 0, 65, 61
1, 86806, Note_on_c, 0, 78, 78
1, 86815, Note_on_c, 0, 58, 71
1, 86840, Note_on_c, 0, 80, 70
1, 86857, Note_off_c, 0, 78, 65
1, 86883, Note_on_c, 0, 78, 60
1, 86924, Note_on_c, 0, 77, 76
1, 86926, Note_on_c, 0, 68, 63
1, 86926, Note_off_c, 0, 80, 62
1, 86930, Note_on_c, 0, 65, 57
1, 86954, Note_off_c, 0, 68, 68
1, 86961, Note_off_c, 0, 78, 63
1, 86967, Note_off_c, 0, 65, 61
1, 86971, Note_off_c, 0, 77, 64
1, 87065, Note_on_c, 0, 68, 60
1, 87071, Note_on_c, 0, 77, 78
1, 87076, Note_on_c, 0, 65, 55
1, 87087, Note_off_c, 0, 68, 66
1, 87089, Note_on_c, 0, 78, 75
1, 87102, Note_off_c, 0, 65, 62
1, 87138, Note_off_c, 0, 77, 0
1, 87151, Note_on_c, 0, 77, 52
1, 87191, Note_on_c, 0, 75, 78
1, 87194, Note_on_c, 0, 65, 58
1, 87197, Note_off_c, 0, 78, 63
1, 87200, Note_on_c, 0, 68, 55
1, 87208, Note_off_c, 0, 77, 62
1, 87212, Note_off_c, 0, 75, 72
1, 87224, Note_off_c, 0, 58, 49
1, 87226, Note_off_c, 0, 68, 66
1, 87229, Note_off_c, 0, 65, 62
1, 87320, Note_on_c, 0, 75, 71
1, 87329, Note_on_c, 0, 58, 69
1, 87346, Note_off_c, 0, 75, 68
1, 87346, Note_on_c, 0, 77, 62
1, 87390, Note_on_c, 0, 75, 63
1, 87399, Note_off_c, 0, 77, 61
1, 87456, Note_on_c, 0, 74, 70
1, 87468, Note_off_c, 0, 75, 64
1, 87471, Note_on_c, 0, 65, 61
1, 87476, Note_on_c, 0, 68, 56
1, 87483, Note_off_c, 0, 74, 67
1, 87495, Note_off_c, 0, 68, 64
1, 87500, Note_off_c, 0, 65, 65
1, 87588, Note_on_c, 0, 68, 58
1, 87591, Note_on_c, 0, 72, 78
1, 87602, Note_on_c, 0, 65, 57
1, 87625, Note_off_c, 0, 72, 64
1, 87626, Note_off_c, 0, 68, 63
1, 87633, Note_off_c, 0, 65, 65
1, 87715, Note_on_c, 0, 74, 73
1, 87737, Note_on_c, 0, 65, 45
1, 87737, Note_off_c, 0, 58, 42
1, 87741, Note_on_c, 0, 68, 33
1, 87764, Note_off_c, 0, 65, 57
1, 87775, Note_off_c, 0, 68, 33
1, 87779, Note_off_c, 0, 74, 62
1, 87846, Note_on_c, 0, 58, 57
1, 87848, Note_on_c, 0, 75, 65
1, 87867, Note_off_c, 0, 75, 67
1, 87986, Note_on_c, 0, 63, 65
1, 87994, Note_on_c, 0, 66, 57
1, 87997, Note_on_c, 0, 46, 82
1, 88027, Note_off_c, 0, 66, 66
1, 88034, Note_off_c, 0, 46, 57
1, 88045, Note_off_c, 0, 63, 61
1, 88121, Note_on_c, 0, 51, 80
1, 88125, Note_on_c, 0, 63, 56
1, 88131, Note_on_c, 0, 66, 65
1, 88157, Note_off_c, 0, 66, 69
1, 88173, Note_off_c, 0, 51, 61
1, 88175, Note_off_c, 0, 63, 61
1, 88246, Note_on_c, 0, 53, 83
1, 88247, Note_on_c, 0, 63, 66
1, 88254, Note_on_c, 0, 66, 65
1, 88268, Note_off_c, 0, 58, 55
1, 88280, Note_off_c, 0, 66, 68
1, 88299, Note_off_c, 0, 63, 63
1, 88300, Note_off_c, 0, 53, 64
1, 88368, Note_on_c, 0, 54, 81
1, 88371, Note_on_c, 0, 58, 75
1, 88392, Note_off_c, 0, 54, 69
1, 88497, Note_on_c, 0, 70, 84
1, 88500, Note_on_c, 0, 63, 67
1, 88502, Note_on_c, 0, 66, 65
1, 88526, Note_off_c, 0, 66, 70
1, 88542, Note_off_c, 0, 63, 59
1, 88543, Note_off_c, 0, 70, 63
1, 88625, Note_on_c, 0, 75, 79
1, 88630, Note_on_c, 0, 66, 64
1, 88634, Note_on_c, 0, 63, 60
1, 88657, Note_off_c, 0, 66, 69
1, 88668, Note_off_c, 0, 63, 62
1, 88676, Note_off_c, 0, 75, 65
1, 88710, Control_c, 0, 67, 121
1, 88725, Control_c, 0, 67, 112
1, 88739, Control_c, 0, 67, 103
1, 88746, Note_on_c, 0, 77, 79
1, 88754, Control_c, 0, 67, 93
1, 88758, Note_on_c, 0, 66, 58
1, 88762, Note_on_c, 0, 63, 61
1, 88769, Control_c, 0, 67, 86
1, 88782, Note_off_c, 0, 66, 65
1, 88784, Control_c, 0, 67, 81
1, 88791, Note_off_c, 0, 58, 59
1, 88794, Note_off_c, 0, 63, 64
1, 88798, Control_c, 0, 67, 78
1, 88801, Note_off_c, 0, 77, 60
1, 88813, Control_c, 0, 64, 25
1, 88813, Control_c, 0, 67, 77
1, 88828, Control_c, 0, 64, 33
1, 88843, Control_c, 0, 64, 39
1, 88843, Control_c, 0, 67, 78
1, 88851, Note_on_c, 0, 70, 63
1, 88857, Control_c, 0, 64, 43
1, 88857, Control_c, 0, 67, 78
1, 88872, Control_c, 0, 64, 44
1, 88872, Control_c, 0, 67, 79
1, 88887, Control_c, 0, 67, 80
1, 88888, Note_on_c, 0, 78, 86
1, 88893, Note_on_c, 0, 58, 61
1, 88902, Control_c, 0, 67, 81
1, 88917, Control_c, 0, 64, 42
1, 88917, Control_c, 0, 67, 83
1, 88939, Control_c, 0, 64, 36
1, 88939, Control_c, 0, 67, 85
1, 88954, Control_c, 0, 64, 18
1, 88954, Control_c, 0, 67, 87
1, 88955, Note_on_c, 0, 79, 35
1, 88955, Note_off_c, 0, 70, 50
1, 88969, Control_c, 0, 64, 0
1, 88969, Control_c, 0, 67, 89
1, 88984, Control_c, 0, 67, 94
1, 88999, Control_c, 0, 67, 100
1, 89004, Note_off_c, 0, 79, 42
1, 89013, Control_c, 0, 67, 108
1, 89023, Note_on_c, 0, 63, 57
1, 89028, Control_c, 0, 67, 115
1, 89043, Control_c, 0, 67, 123
1, 89044, Note_on_c, 0, 66, 42
1, 89057, Control_c, 0, 67, 127
1, 89064, Note_off_c, 0, 63, 58
1, 89071, Note_off_c, 0, 66, 59
1, 89152, Note_on_c, 0, 66, 63
1, 89168, Note_on_c, 0, 63, 60
1, 89193, Note_off_c, 0, 66, 60
1, 89201, Note_off_c, 0, 63, 63
1, 89269, Note_on_c, 0, 75, 67
1, 89302, Note_off_c, 0, 58, 56
1, 89316, Note_on_c, 0, 63, 39
1, 89323, Note_off_c, 0, 78, 55
1, 89327, Note_on_c, 0, 66, 13
1, 89328, Note_off_c, 0, 66, 40
1, 89339, Control_c, 0, 64, 26
1, 89344, Note_off_c, 0, 63, 54
1, 89354, Note_off_c, 0, 75, 60
1, 89355, Control_c, 0, 64, 28
1, 89370, Control_c, 0, 64, 23
1, 89381, Note_on_c, 0, 70, 70
1, 89385, Control_c, 0, 64, 0
1, 89414, Note_on_c, 0, 78, 82
1, 89417, Note_on_c, 0, 58, 62
1, 89511, Note_off_c, 0, 70, 38
1, 89539, Note_on_c, 0, 63, 61
1, 89545, Note_on_c, 0, 66, 57
1, 89569, Note_off_c, 0, 66, 67
1, 89575, Note_off_c, 0, 63, 60
1, 89660, Note_on_c, 0, 66, 61
1, 89684, Note_on_c, 0, 63, 55
1, 89695, Note_off_c, 0, 66, 67
1, 89703, Control_c, 0, 64, 23
1, 89708, Note_off_c, 0, 63, 64
1, 89718, Control_c, 0, 64, 35
1, 89733, Control_c, 0, 64, 41
1, 89748, Control_c, 0, 64, 45
1, 89762, Control_c, 0, 64, 48
1, 89777, Control_c, 0, 64, 50
1, 89792, Control_c, 0, 64, 51
1, 89798, Note_on_c, 0, 75, 62
1, 89801, Note_on_c, 0, 63, 59
1, 89807, Control_c, 0, 64, 53
1, 89808, Note_on_c, 0, 66, 47
1, 89836, Control_c, 0, 64, 52
1, 89839, Note_off_c, 0, 58, 39
1, 89851, Control_c, 0, 64, 51
1, 89856, Note_off_c, 0, 66, 62
1, 89865, Note_off_c, 0, 63, 61
1, 89866, Control_c, 0, 64, 48
1, 89868, Note_off_c, 0, 78, 55
1, 89880, Control_c, 0, 64, 44
1, 89895, Control_c, 0, 64, 30
1, 89910, Control_c, 0, 64, 0
1, 89916, Note_off_c, 0, 75, 62
1, 89930, Note_on_c, 0, 72, 59
1, 89950, Note_off_c, 0, 72, 66
1, 89953, Note_on_c, 0, 56, 55
1, 90078, Note_on_c, 0, 44, 72
1, 90083, Note_on_c, 0, 66, 53
1, 90088, Note_on_c, 0, 63, 51
1, 90106, Note_off_c, 0, 66, 65
1, 90112, Note_off_c, 0, 63, 61
1, 90113, Note_off_c, 0, 44, 62
1, 90195, Note_on_c, 0, 63, 65
1, 90197, Note_on_c, 0, 66, 65
1, 90204, Note_on_c, 0, 51, 75
1, 90225, Note_off_c, 0, 66, 67
1, 90237, Note_off_c, 0, 63, 60
1, 90250, Note_off_c, 0, 51, 59
1, 90309, Note_on_c, 0, 53, 82
1, 90321, Note_on_c, 0, 63, 65
1, 90324, Note_on_c, 0, 66, 65
1, 90335, Note_off_c, 0, 56, 57
1, 90342, Note_off_c, 0, 66, 67
1, 90356, Note_off_c, 0, 63, 62
1, 90376, Note_off_c, 0, 53, 59
1, 90445, Note_on_c, 0, 56, 72
1, 90449, Note_on_c, 0, 54, 79
1, 90474, Note_off_c, 0, 54, 68
1, 90573, Note_on_c, 0, 63, 68
1, 90584, Note_on_c, 0, 68, 79
1, 90585, Note_on_c, 0, 66, 54
1, 90608, Note_off_c, 0, 66, 63
1, 90615, Note_off_c, 0, 63, 59
1, 90675, Control_c, 0, 67, 124
1, 90690, Control_c, 0, 67, 122
1, 90696, Note_on_c, 0, 66, 58
1, 90705, Note_on_c, 0, 78, 76
1, 90708, Note_on_c, 0, 63, 60
1, 90715, Note_off_c, 0, 68, 62
1, 90728, Note_off_c, 0, 66, 66
1, 90734, Control_c, 0, 67, 123
1, 90741, Note_off_c, 0, 63, 64
1, 90749, Control_c, 0, 67, 124
1, 90764, Control_c, 0, 67, 125
1, 90778, Control_c, 0, 67, 126
1, 90793, Control_c, 0, 67, 127
1, 90797, Note_off_c, 0, 78, 64
1, 90808, Control_c, 0, 67, 127
1, 90827, Note_on_c, 0, 77, 72
1, 90835, Note_on_c, 0, 63, 65
1, 90845, Note_on_c, 0, 66, 42
1, 90853, Note_off_c, 0, 77, 65
1, 90860, Note_off_c, 0, 56, 57
1, 90865, Note_off_c, 0, 63, 64
1, 90873, Note_off_c, 0, 66, 57
1, 90960, Note_on_c, 0, 77, 79
1, 90967, Note_on_c, 0, 56, 66
1, 90986, Note_on_c, 0, 78, 72
1, 91011, Note_off_c, 0, 77, 63
1, 91039, Note_on_c, 0, 77, 58
1, 91061, Control_c, 0, 67, 127
1, 91077, Note_on_c, 0, 63, 62
1, 91086, Note_on_c, 0, 66, 52
1, 91090, Note_off_c, 0, 78, 60
1, 91094, Note_on_c, 0, 75, 60
1, 91094, Note_off_c, 0, 77, 63
1, 91108, Note_off_c, 0, 66, 62
1, 91111, Note_off_c, 0, 63, 61
1, 91113, Note_off_c, 0, 75, 65
1, 91119, Control_c, 0, 67, 127
1, 91216, Note_on_c, 0, 66, 57
1, 91222, Note_on_c, 0, 63, 66
1, 91244, Note_on_c, 0, 77, 68
1, 91247, Note_off_c, 0, 66, 68
1, 91254, Note_off_c, 0, 63, 61
1, 91293, Note_on_c, 0, 75, 44
1, 91334, Note_off_c, 0, 77, 61
1, 91352, Note_on_c, 0, 63, 65
1, 91355, Note_on_c, 0, 66, 50
1, 91355, Note_on_c, 0, 73, 76
1, 91367, Note_off_c, 0, 75, 64
1, 91376, Note_off_c, 0, 73, 70
1, 91379, Note_off_c, 0, 66, 61
1, 91379, Note_off_c, 0, 56, 56
1, 91388, Note_off_c, 0, 63, 61
1, 91481, Note_on_c, 0, 56, 66
1, 91483, Note_on_c, 0, 73, 70
1, 91515, Note_on_c, 0, 75, 63
1, 91519, Note_off_c, 0, 73, 57
1, 91557, Note_on_c, 0, 73, 57
1, 91581, Note_off_c, 0, 75, 57
1, 91617, Note_on_c, 0, 63, 64
1, 91620, Note_on_c, 0, 72, 65
1, 91626, Note_on_c, 0, 66, 53
1, 91629, Note_off_c, 0, 73, 62
1, 91644, Note_off_c, 0, 72, 70
1, 91648, Note_off_c, 0, 66, 63
1, 91653, Note_off_c, 0, 63, 62
1, 91738, Note_on_c, 0, 66, 57
1, 91747, Note_on_c, 0, 63, 62
1, 91748, Note_on_c, 0, 70, 77
1, 91769, Note_off_c, 0, 66, 67
1, 91769, Note_off_c, 0, 70, 70
1, 91778, Note_off_c, 0, 63, 65
1, 91868, Note_on_c, 0, 63, 65
1, 91874, Note_on_c, 0, 66, 55
1, 91875, Note_on_c, 0, 72, 65
1, 91886, Note_off_c, 0, 56, 50
1, 91899, Note_off_c, 0, 66, 65
1, 91907, Note_off_c, 0, 63, 59
1, 91937, Note_off_c, 0, 72, 65
1, 92006, Note_on_c, 0, 56, 61
1, 92007, Note_on_c, 0, 73, 67
1, 92027, Note_off_c, 0, 73, 67
1, 92157, Note_on_c, 0, 65, 51
1, 92158, Note_on_c, 0, 61, 57
1, 92163, Note_on_c, 0, 44, 70
1, 92191, Note_off_c, 0, 44, 66
1, 92193, Note_off_c, 0, 65, 63
1, 92197, Note_off_c, 0, 61, 59
1, 92272, Note_on_c, 0, 49, 81
1, 92285, Note_on_c, 0, 65, 60
1, 92296, Note_on_c, 0, 61, 55
1, 92312, Note_off_c, 0, 65, 65
1, 92325, Note_off_c, 0, 49, 61
1, 92327, Note_off_c, 0, 61, 65
1, 92389, Note_on_c, 0, 51, 81
1, 92397, Note_on_c, 0, 65, 60
1, 92401, Note_on_c, 0, 61, 67
1, 92421, Note_off_c, 0, 56, 54
1, 92427, Note_off_c, 0, 65, 65
1, 92440, Note_off_c, 0, 61, 57
1, 92452, Note_off_c, 0, 51, 58
1, 92513, Note_on_c, 0, 53, 84
1, 92531, Note_on_c, 0, 56, 67
1, 92536, Note_off_c, 0, 53, 73
1, 92650, Note_on_c, 0, 61, 63
1, 92652, Note_on_c, 0, 68, 78
1, 92681, Note_on_c, 0, 65, 38
1, 92696, Note_off_c, 0, 68, 58
1, 92710, Note_off_c, 0, 65, 52
1, 92711, Note_off_c, 0, 61, 59
1, 92786, Note_on_c, 0, 73, 78
1, 92792, Note_on_c, 0, 65, 55
1, 92798, Note_on_c, 0, 61, 50
1, 92822, Note_off_c, 0, 65, 65
1, 92830, Note_off_c, 0, 73, 58
1, 92833, Note_off_c, 0, 61, 63
1, 92913, Note_on_c, 0, 61, 62
1, 92920, Note_on_c, 0, 65, 47
1, 92923, Note_on_c, 0, 75, 68
1, 92945, Note_off_c, 0, 65, 57
1, 92950, Note_off_c, 0, 61, 57
1, 92959, Note_off_c, 0, 56, 37
1, 92990, Note_off_c, 0, 75, 60
1, 93032, Note_on_c, 0, 68, 69
1, 93046, Note_on_c, 0, 77, 78
1, 93051, Note_on_c, 0, 56, 47
1, 93135, Note_off_c, 0, 68, 58
1, 93176, Note_on_c, 0, 61, 50
1, 93185, Note_on_c, 0, 65, 34
1, 93222, Note_off_c, 0, 65, 54
1, 93227, Note_off_c, 0, 61, 56
1, 93318, Note_on_c, 0, 65, 56
1, 93323, Note_on_c, 0, 61, 42
1, 93341, Note_off_c, 0, 65, 63
1, 93361, Note_off_c, 0, 61, 62
1, 93445, Note_on_c, 0, 73, 67
1, 93464, Note_off_c, 0, 77, 61
1, 93474, Note_on_c, 0, 61, 37
1, 93478, Note_off_c, 0, 56, 25
1, 93501, Note_off_c, 0, 61, 52
1, 93520, Poly_aftertouch_c, 0, 65, 0
1, 93537, Control_c, 0, 64, 19
1, 93552, Control_c, 0, 64, 18
1, 93559, Note_on_c, 0, 68, 62
1, 93567, Control_c, 0, 64, 0
1, 93582, Note_on_c, 0, 77, 83
1, 93586, Note_on_c, 0, 56, 51
1, 93617, Note_off_c, 0, 73, 34
1, 93697, Note_off_c, 0, 68, 56
1, 93710, Note_on_c, 0, 61, 51
1, 93713, Note_on_c, 0, 65, 48
1, 93740, Note_off_c, 0, 65, 59
1, 93751, Note_off_c, 0, 61, 59
1, 93835, Note_on_c, 0, 65, 55
1, 93848, Note_on_c, 0, 61, 54
1, 93862, Note_off_c, 0, 65, 65
1, 93880, Note_off_c, 0, 61, 65
1, 93907, Control_c, 0, 64, 29
1, 93921, Control_c, 0, 64, 39
1, 93963, Note_on_c, 0, 73, 64
1, 93965, Note_on_c, 0, 61, 58
1, 93966, Control_c, 0, 64, 40
1, 93974, Note_on_c, 0, 65, 37
1, 93981, Control_c, 0, 64, 41
1, 93994, Note_off_c, 0, 56, 24
1, 93996, Control_c, 0, 64, 42
1, 94011, Control_c, 0, 64, 41
1, 94020, Note_off_c, 0, 65, 50
1, 94026, Control_c, 0, 64, 40
1, 94030, Note_off_c, 0, 61, 61
1, 94036, Note_off_c, 0, 77, 53
1, 94041, Control_c, 0, 64, 36
1, 94055, Control_c, 0, 64, 28
1, 94070, Control_c, 0, 64, 0
1, 94086, Note_on_c, 0, 72, 70
1, 94097, Note_on_c, 0, 56, 55
1, 94107, Note_off_c, 0, 73, 55
1, 94108, Note_off_c, 0, 72, 71
1, 94246, Note_on_c, 0, 63, 58
1, 94249, Note_on_c, 0, 66, 59
1, 94255, Note_on_c, 0, 44, 64
1, 94276, Note_off_c, 0, 66, 68
1, 94279, Note_off_c, 0, 63, 64
1, 94286, Note_off_c, 0, 44, 63
1, 94369, Note_on_c, 0, 51, 77
1, 94371, Note_on_c, 0, 66, 67
1, 94375, Note_on_c, 0, 63, 68
1, 94398, Note_off_c, 0, 66, 67
1, 94406, Note_off_c, 0, 63, 62
1, 94423, Note_off_c, 0, 51, 62
1, 94483, Note_on_c, 0, 53, 77
1, 94497, Note_on_c, 0, 63, 66
1, 94500, Note_on_c, 0, 66, 65
1, 94515, Note_off_c, 0, 56, 53
1, 94527, Note_off_c, 0, 66, 68
1, 94536, Note_off_c, 0, 63, 59
1, 94544, Note_off_c, 0, 53, 63
1, 94608, Note_on_c, 0, 54, 79
1, 94619, Note_on_c, 0, 56, 72
1, 94643, Note_off_c, 0, 54, 63
1, 94742, Note_on_c, 0, 63, 66
1, 94746, Note_on_c, 0, 68, 80
1, 94751, Note_on_c, 0, 66, 57
1, 94780, Note_off_c, 0, 66, 67
1, 94798, Note_off_c, 0, 63, 61
1, 94871, Note_on_c, 0, 66, 63
1, 94873, Note_on_c, 0, 78, 82
1, 94875, Note_on_c, 0, 63, 56
1, 94884, Note_off_c, 0, 68, 60
1, 94902, Note_off_c, 0, 66, 66
1, 94923, Note_off_c, 0, 63, 62
1, 94987, Note_off_c, 0, 78, 64
1, 95000, Note_on_c, 0, 77, 84
1, 95018, Note_on_c, 0, 63, 62
1, 95028, Note_on_c, 0, 66, 48
1, 95031, Note_off_c, 0, 56, 55
1, 95038, Note_off_c, 0, 77, 61
1, 95048, Note_off_c, 0, 63, 65
1, 95052, Note_off_c, 0, 66, 59
1, 95134, Note_on_c, 0, 77, 80
1, 95138, Note_on_c, 0, 56, 67
1, 95157, Note_on_c, 0, 78, 76
1, 95181, Note_off_c, 0, 77, 65
1, 95216, Note_on_c, 0, 77, 64
1, 95260, Note_on_c, 0, 63, 65
1, 95264, Note_on_c, 0, 66, 62
1, 95268, Note_on_c, 0, 75, 71
1, 95272, Note_off_c, 0, 77, 63
1, 95272, Note_off_c, 0, 78, 64
1, 95290, Note_off_c, 0, 66, 69
1, 95290, Note_off_c, 0, 75, 71
1, 95298, Note_off_c, 0, 63, 59
1, 95385, Note_on_c, 0, 66, 71
1, 95388, Note_on_c, 0, 75, 81
1, 95396, Note_on_c, 0, 63, 67
1, 95411, Note_on_c, 0, 77, 69
1, 95412, Note_off_c, 0, 66, 68
1, 95422, Note_off_c, 0, 63, 65
1, 95456, Note_off_c, 0, 75, 0
1, 95456, Note_on_c, 0, 75, 52
1, 95486, Note_off_c, 0, 77, 61
1, 95500, Note_on_c, 0, 73, 75
1, 95517, Note_on_c, 0, 66, 67
1, 95523, Note_on_c, 0, 63, 67
1, 95532, Note_off_c, 0, 75, 64
1, 95538, Note_off_c, 0, 73, 60
1, 95540, Note_off_c, 0, 66, 70
1, 95551, Note_off_c, 0, 63, 66
1, 95564, Note_off_c, 0, 56, 62
1, 95629, Note_on_c, 0, 73, 79
1, 95635, Note_on_c, 0, 56, 70
1, 95661, Note_on_c, 0, 75, 64
1, 95691, Note_off_c, 0, 73, 0
1, 95707, Note_on_c, 0, 73, 55
1, 95744, Note_off_c, 0, 75, 63
1, 95778, Note_on_c, 0, 63, 69
1, 95785, Note_on_c, 0, 72, 74
1, 95790, Note_on_c, 0, 66, 57
1, 95795, Note_off_c, 0, 73, 62
1, 95805, Note_off_c, 0, 72, 72
1, 95813, Note_off_c, 0, 66, 66
1, 95825, Note_off_c, 0, 63, 58
1, 95905, Note_on_c, 0, 70, 81
1, 95906, Note_on_c, 0, 66, 62
1, 95910, Note_on_c, 0, 63, 61
1, 95934, Note_off_c, 0, 66, 67
1, 95943, Note_off_c, 0, 63, 62
1, 95954, Note_off_c, 0, 70, 62
1, 96020, Control_c, 0, 67, 127
1, 96025, Note_on_c, 0, 72, 79
1, 96035, Note_on_c, 0, 63, 72
1, 96035, Control_c, 0, 67, 109
1, 96039, Note_on_c, 0, 66, 56
1, 96050, Control_c, 0, 67, 89
1, 96059, Note_off_c, 0, 66, 64
1, 96063, Note_off_c, 0, 56, 46
1, 96065, Control_c, 0, 67, 67
1, 96066, Note_off_c, 0, 63, 61
1, 96076, Note_off_c, 0, 72, 64
1, 96080, Control_c, 0, 64, 12
1, 96080, Control_c, 0, 67, 44
1, 96095, Control_c, 0, 64, 23
1, 96095, Control_c, 0, 67, 22
1, 96109, Control_c, 0, 64, 26
1, 96109, Control_c, 0, 67, 0
1, 96124, Control_c, 0, 64, 27
1, 96155, Note_on_c, 0, 73, 72
1, 96165, Note_on_c, 0, 61, 77
1, 96169, Control_c, 0, 64, 23
1, 96177, Note_off_c, 0, 73, 67
1, 96184, Control_c, 0, 64, 12
1, 96198, Control_c, 0, 64, 0
1, 96286, Note_on_c, 0, 65, 69
1, 96287, Note_on_c, 0, 68, 68
1, 96310, Note_on_c, 0, 49, 86
1, 96421, Note_off_c, 0, 68, 56
1, 96431, Note_off_c, 0, 49, 57
1, 96431, Note_on_c, 0, 59, 72
1, 96437, Note_on_c, 0, 56, 76
1, 96441, Note_off_c, 0, 65, 61
1, 96464, Note_off_c, 0, 56, 64
1, 96555, Note_on_c, 0, 68, 65
1, 96557, Note_off_c, 0, 61, 36
1, 96557, Note_on_c, 0, 47, 83
1, 96563, Note_on_c, 0, 65, 68
1, 96579, Note_off_c, 0, 59, 61
1, 96600, Note_off_c, 0, 47, 61
1, 96622, Note_off_c, 0, 65, 57
1, 96644, Note_off_c, 0, 68, 57
1, 96681, Note_on_c, 0, 46, 86
1, 96684, Note_on_c, 0, 58, 80
1, 96705, Note_off_c, 0, 46, 66
1, 96813, Note_on_c, 0, 65, 63
1, 96823, Note_on_c, 0, 68, 65
1, 96828, Note_on_c, 0, 70, 82
1, 96853, Note_off_c, 0, 68, 63
1, 96869, Note_off_c, 0, 65, 61
1, 96941, Note_on_c, 0, 80, 75
1, 96953, Note_on_c, 0, 68, 64
1, 96963, Note_on_c, 0, 65, 55
1, 96992, Note_off_c, 0, 70, 63
1, 96994, Note_off_c, 0, 68, 61
1, 97010, Note_off_c, 0, 65, 62
1, 97051, Control_c, 0, 64, 8
1, 97051, Control_c, 0, 67, 10
1, 97065, Note_on_c, 0, 78, 78
1, 97065, Control_c, 0, 64, 20
1, 97065, Control_c, 0, 67, 17
1, 97070, Note_off_c, 0, 80, 64
1, 97080, Control_c, 0, 64, 23
1, 97080, Control_c, 0, 67, 26
1, 97090, Note_off_c, 0, 78, 66
1, 97093, Note_on_c, 0, 68, 42
1, 97093, Note_on_c, 0, 65, 49
1, 97095, Control_c, 0, 64, 23
1, 97095, Control_c, 0, 67, 36
1, 97110, Note_off_c, 0, 58, 59
1, 97110, Control_c, 0, 67, 43
1, 97125, Note_off_c, 0, 68, 53
1, 97125, Control_c, 0, 64, 22
1, 97125, Control_c, 0, 67, 51
1, 97127, Note_off_c, 0, 65, 62
1, 97139, Control_c, 0, 64, 21
1, 97139, Control_c, 0, 67, 56
1, 97155, Control_c, 0, 67, 59
1, 97177, Control_c, 0, 64, 24
1, 97177, Control_c, 0, 67, 62
1, 97192, Control_c, 0, 64, 30
1, 97192, Control_c, 0, 67, 66
1, 97196, Note_on_c, 0, 78, 84
1, 97206, Control_c, 0, 64, 35
1, 97206, Control_c, 0, 67, 70
1, 97216, Note_on_c, 0, 58, 74
1, 97221, Control_c, 0, 64, 38
1, 97221, Control_c, 0, 67, 73
1, 97232, Note_on_c, 0, 80, 70
1, 97236, Control_c, 0, 64, 38
1, 97236, Control_c, 0, 67, 74
1, 97244, Note_off_c, 0, 78, 63
1, 97251, Control_c, 0, 64, 37
1, 97266, Control_c, 0, 64, 36
1, 97278, Note_on_c, 0, 78, 67
1, 97281, Control_c, 0, 64, 34
1, 97281, Control_c, 0, 67, 73
1, 97296, Control_c, 0, 64, 33
1, 97296, Control_c, 0, 67, 72
1, 97311, Control_c, 0, 64, 30
1, 97311, Control_c, 0, 67, 71
1, 97319, Note_off_c, 0, 80, 62
1, 97323, Note_on_c, 0, 65, 65
1, 97326, Control_c, 0, 64, 28
1, 97329, Note_on_c, 0, 68, 58
1, 97342, Note_on_c, 0, 77, 54
1, 97355, Note_off_c, 0, 78, 65
1, 97356, Control_c, 0, 64, 28
1, 97360, Note_off_c, 0, 68, 64
1, 97365, Note_off_c, 0, 77, 59
1, 97370, Control_c, 0, 64, 29
1, 97370, Control_c, 0, 67, 71
1, 97375, Note_off_c, 0, 65, 60
1, 97385, Control_c, 0, 67, 72
1, 97415, Control_c, 0, 64, 28
1, 97430, Control_c, 0, 64, 28
1, 97445, Control_c, 0, 64, 27
1, 97452, Note_on_c, 0, 68, 68
1, 97458, Note_on_c, 0, 77, 78
1, 97459, Note_on_c, 0, 65, 61
1, 97460, Control_c, 0, 64, 28
1, 97475, Control_c, 0, 64, 28
1, 97478, Note_on_c, 0, 78, 76
1, 97484, Note_off_c, 0, 68, 63
1, 97489, Control_c, 0, 64, 29
1, 97491, Note_off_c, 0, 65, 63
1, 97511, Note_off_c, 0, 77, 63
1, 97519, Control_c, 0, 64, 29
1, 97549, Note_on_c, 0, 77, 53
1, 97578, Note_on_c, 0, 68, 69
1, 97589, Note_on_c, 0, 65, 62
1, 97593, Control_c, 0, 64, 29
1, 97593, Control_c, 0, 67, 74
1, 97595, Note_on_c, 0, 75, 68
1, 97597, Note_off_c, 0, 78, 63
1, 97604, Note_off_c, 0, 77, 62
1, 97608, Control_c, 0, 64, 29
1, 97608, Control_c, 0, 67, 75
1, 97615, Note_off_c, 0, 58, 61
1, 97621, Note_off_c, 0, 75, 67
1, 97622, Control_c, 0, 67, 78
1, 97632, Note_off_c, 0, 65, 58
1, 97637, Control_c, 0, 64, 30
1, 97637, Control_c, 0, 67, 85
1, 97643, Note_off_c, 0, 68, 58
1, 97652, Control_c, 0, 64, 31
1, 97652, Control_c, 0, 67, 91
1, 97667, Control_c, 0, 67, 95
1, 97682, Control_c, 0, 64, 32
1, 97682, Control_c, 0, 67, 97
1, 97701, Note_on_c, 0, 75, 77
1, 97716, Note_on_c, 0, 58, 74
1, 97745, Note_on_c, 0, 77, 58
1, 97751, Note_off_c, 0, 75, 65
1, 97756, Control_c, 0, 64, 33
1, 97770, Control_c, 0, 64, 33
1, 97774, Note_on_c, 0, 75, 55
1, 97785, Control_c, 0, 64, 34
1, 97800, Control_c, 0, 67, 97
1, 97808, Note_off_c, 0, 77, 61
1, 97815, Control_c, 0, 67, 96
1, 97829, Control_c, 0, 64, 32
1, 97835, Note_on_c, 0, 65, 64
1, 97837, Note_on_c, 0, 74, 79
1, 97844, Note_on_c, 0, 68, 62
1, 97844, Control_c, 0, 64, 29
1, 97844, Control_c, 0, 67, 95
1, 97853, Note_off_c, 0, 75, 65
1, 97859, Control_c, 0, 64, 26
1, 97866, Note_off_c, 0, 74, 65
1, 97874, Note_off_c, 0, 68, 66
1, 97874, Control_c, 0, 64, 20
1, 97889, Control_c, 0, 64, 0
1, 97890, Note_off_c, 0, 65, 58
1, 97970, Note_on_c, 0, 68, 67
1, 97970, Control_c, 0, 67, 95
1, 97973, Note_on_c, 0, 72, 82
1, 97975, Note_on_c, 0, 65, 63
1, 97985, Control_c, 0, 67, 94
1, 98000, Control_c, 0, 67, 93
1, 98002, Note_off_c, 0, 68, 64
1, 98008, Note_off_c, 0, 65, 63
1, 98013, Note_off_c, 0, 72, 62
1, 98015, Control_c, 0, 67, 92
1, 98029, Control_c, 0, 67, 91
1, 98044, Control_c, 0, 67, 89
1, 98059, Control_c, 0, 67, 88
1, 98074, Control_c, 0, 67, 84
1, 98087, Note_on_c, 0, 74, 83
1, 98089, Control_c, 0, 67, 78
1, 98099, Note_on_c, 0, 65, 61
1, 98104, Note_on_c, 0, 68, 61
1, 98104, Control_c, 0, 67, 71
1, 98119, Control_c, 0, 67, 62
1, 98123, Note_off_c, 0, 74, 59
1, 98133, Note_off_c, 0, 65, 61
1, 98133, Control_c, 0, 67, 54
1, 98136, Note_off_c, 0, 58, 58
1, 98136, Note_off_c, 0, 68, 61
1, 98149, Control_c, 0, 67, 45
1, 98164, Control_c, 0, 67, 39
1, 98179, Control_c, 0, 67, 33
1, 98193, Control_c, 0, 67, 28
1, 98208, Control_c, 0, 67, 23
1, 98217, Note_on_c, 0, 75, 78
1, 98223, Control_c, 0, 67, 20
1, 98230, Note_on_c, 0, 63, 71
1, 98238, Note_off_c, 0, 75, 71
1, 98238, Control_c, 0, 67, 17
1, 98253, Control_c, 0, 67, 12
1, 98268, Control_c, 0, 67, 0
1, 98358, Note_on_c, 0, 66, 73
1, 98365, Note_on_c, 0, 70, 67
1, 98372, Note_on_c, 0, 51, 90
1, 98489, Note_off_c, 0, 66, 63
1, 98492, Note_on_c, 0, 61, 77
1, 98499, Note_on_c, 0, 56, 62
1, 98501, Note_off_c, 0, 70, 60
1, 98503, Note_off_c, 0, 51, 62
1, 98518, Note_on_c, 0, 57, 45
1, 98527, Note_off_c, 0, 56, 52
1, 98547, Note_off_c, 0, 57, 52
1, 98558, Note_off_c, 0, 63, 58
1, 98579, Control_c, 0, 67, 9
1, 98593, Control_c, 0, 67, 16
1, 98608, Control_c, 0, 67, 22
1, 98612, Note_on_c, 0, 49, 91
1, 98619, Note_on_c, 0, 70, 65
1, 98621, Note_off_c, 0, 61, 60
1, 98622, Note_on_c, 0, 65, 64
1, 98623, Control_c, 0, 67, 23
1, 98637, Control_c, 0, 67, 24
1, 98651, Control_c, 0, 67, 23
1, 98655, Note_off_c, 0, 49, 59
1, 98673, Control_c, 0, 67, 24
1, 98688, Control_c, 0, 67, 26
1, 98703, Control_c, 0, 67, 28
1, 98715, Note_off_c, 0, 70, 60
1, 98718, Control_c, 0, 67, 29
1, 98727, Note_off_c, 0, 65, 59
1, 98733, Control_c, 0, 67, 30
1, 98743, Note_on_c, 0, 48, 84
1, 98751, Note_on_c, 0, 60, 75
1, 98762, Control_c, 0, 67, 30
1, 98765, Note_off_c, 0, 48, 67
1, 98777, Control_c, 0, 67, 31
1, 98822, Control_c, 0, 67, 30
1, 98873, Note_on_c, 0, 67, 66
1, 98878, Note_on_c, 0, 70, 63
1, 98888, Note_on_c, 0, 72, 87
1, 98905, Note_off_c, 0, 70, 67
1, 98911, Control_c, 0, 67, 30
1, 98934, Note_off_c, 0, 67, 60
1, 98956, Control_c, 0, 67, 30
1, 98986, Control_c, 0, 67, 31
1, 98998, Note_on_c, 0, 70, 64
1, 99003, Note_on_c, 0, 82, 85
1, 99010, Note_on_c, 0, 67, 63
1, 99031, Note_off_c, 0, 72, 55
1, 99049, Note_off_c, 0, 70, 60
1, 99059, Control_c, 0, 67, 31
1, 99074, Note_off_c, 0, 67, 62
1, 99074, Control_c, 0, 67, 32
1, 99089, Control_c, 0, 67, 33
1, 99104, Control_c, 0, 67, 35
1, 99119, Control_c, 0, 67, 40
1, 99132, Note_on_c, 0, 80, 73
1, 99133, Control_c, 0, 67, 46
1, 99139, Note_off_c, 0, 82, 50
1, 99144, Poly_aftertouch_c, 0, 83, 0
1, 99144, Note_on_c, 0, 67, 58
1, 99144, Note_off_c, 0, 60, 59
1, 99148, Control_c, 0, 67, 51
1, 99150, Note_on_c, 0, 70, 59
1, 99158, Note_off_c, 0, 80, 66
1, 99163, Control_c, 0, 67, 55
1, 99178, Control_c, 0, 67, 59
1, 99180, Note_off_c, 0, 67, 62
1, 99180, Note_off_c, 0, 70, 61
1, 99192, Control_c, 0, 67, 65
1, 99207, Control_c, 0, 67, 71
1, 99222, Control_c, 0, 67, 77
1, 99237, Control_c, 0, 67, 82
1, 99252, Control_c, 0, 67, 89
1, 99256, Note_on_c, 0, 60, 72
1, 99258, Note_on_c, 0, 80, 85
1, 99266, Control_c, 0, 67, 96
1, 99281, Control_c, 0, 67, 100
1, 99292, Note_on_c, 0, 82, 63
1, 99296, Control_c, 0, 67, 103
1, 99311, Control_c, 0, 67, 104
1, 99379, Note_on_c, 0, 67, 57
1, 99379, Note_on_c, 0, 79, 78
1, 99381, Note_on_c, 0, 70, 49
1, 99385, Note_off_c, 0, 82, 63
1, 99400, Control_c, 0, 67, 105
1, 99420, Note_off_c, 0, 70, 65
1, 99421, Note_off_c, 0, 80, 62
1, 99421, Note_off_c, 0, 79, 62
1, 99422, Control_c, 0, 67, 105
1, 99437, Control_c, 0, 67, 108
1, 99439, Note_off_c, 0, 67, 60
1, 99452, Control_c, 0, 67, 112
1, 99466, Control_c, 0, 67, 116
1, 99481, Control_c, 0, 67, 119
1, 99496, Control_c, 0, 67, 122
1, 99507, Note_on_c, 0, 70, 64
1, 99511, Control_c, 0, 67, 124
1, 99514, Note_on_c, 0, 67, 61
1, 99520, Note_on_c, 0, 79, 79
1, 99526, Control_c, 0, 67, 126
1, 99535, Note_off_c, 0, 70, 66
1, 99540, Note_on_c, 0, 80, 76
1, 99540, Control_c, 0, 67, 127
1, 99558, Note_off_c, 0, 67, 57
1, 99569, Note_off_c, 0, 79, 63
1, 99601, Note_on_c, 0, 79, 62
1, 99630, Control_c, 0, 67, 127
1, 99637, Note_on_c, 0, 70, 64
1, 99639, Note_on_c, 0, 67, 60
1, 99641, Note_on_c, 0, 77, 78
1, 99649, Note_off_c, 0, 80, 61
1, 99660, Control_c, 0, 64, 17
1, 99666, Note_off_c, 0, 79, 61
1, 99666, Note_off_c, 0, 77, 64
1, 99674, Control_c, 0, 64, 26
1, 99675, Note_off_c, 0, 70, 56
1, 99679, Note_off_c, 0, 60, 59
1, 99689, Control_c, 0, 64, 29
1, 99702, Note_off_c, 0, 67, 59
1, 99704, Control_c, 0, 64, 29
1, 99734, Control_c, 0, 64, 28
1, 99749, Control_c, 0, 64, 27
1, 99764, Control_c, 0, 64, 26
1, 99770, Note_on_c, 0, 60, 71
1, 99773, Note_on_c, 0, 77, 79
1, 99794, Note_on_c, 0, 79, 74
1, 99809, Control_c, 0, 64, 27
1, 99823, Control_c, 0, 64, 28
1, 99838, Control_c, 0, 64, 28
1, 99884, Note_on_c, 0, 76, 70
1, 99886, Note_off_c, 0, 79, 60
1, 99892, Note_on_c, 0, 70, 57
1, 99894, Note_on_c, 0, 67, 57
1, 99897, Control_c, 0, 64, 28
1, 99912, Control_c, 0, 64, 23
1, 99913, Note_off_c, 0, 77, 60
1, 99920, Note_off_c, 0, 76, 64
1, 99927, Control_c, 0, 64, 0
1, 99931, Note_off_c, 0, 70, 60
1, 99956, Note_off_c, 0, 67, 61
1, 100026, Note_on_c, 0, 74, 77
1, 100026, Note_on_c, 0, 67, 49
1, 100033, Note_on_c, 0, 70, 56
1, 100059, Note_off_c, 0, 70, 63
1, 100082, Note_off_c, 0, 67, 55
1, 100121, Note_off_c, 0, 74, 62
1, 100140, Note_on_c, 0, 76, 79
1, 100163, Note_on_c, 0, 70, 55
1, 100172, Note_on_c, 0, 67, 47
1, 100173, Note_off_c, 0, 76, 66
1, 100192, Note_off_c, 0, 60, 60
1, 100211, Note_off_c, 0, 67, 62
1, 100235, Note_off_c, 0, 70, 61
1, 100283, Note_on_c, 0, 79, 76
1, 100300, Note_on_c, 0, 65, 65
1, 100314, Note_on_c, 0, 80, 73
1, 100336, Note_off_c, 0, 79, 63
1, 100366, Note_on_c, 0, 79, 59
1, 100414, Note_on_c, 0, 77, 69
1, 100419, Note_on_c, 0, 68, 62
1, 100420, Note_off_c, 0, 80, 61
1, 100423, Note_off_c, 0, 79, 61
1, 100425, Note_on_c, 0, 72, 57
1, 100439, Note_off_c, 0, 77, 67
1, 100446, Note_off_c, 0, 72, 65
1, 100462, Note_off_c, 0, 68, 58
1, 100536, Note_on_c, 0, 72, 69
1, 100537, Note_on_c, 0, 77, 79
1, 100558, Note_on_c, 0, 68, 52
1, 100569, Note_off_c, 0, 72, 62
1, 100572, Note_on_c, 0, 79, 71
1, 100581, Note_off_c, 0, 68, 60
1, 100597, Note_off_c, 0, 77, 60
1, 100637, Note_on_c, 0, 77, 62
1, 100644, Note_off_c, 0, 79, 60
1, 100658, Note_on_c, 0, 68, 63
1, 100667, Note_on_c, 0, 75, 77
1, 100675, Note_off_c, 0, 77, 63
1, 100685, Note_off_c, 0, 65, 61
1, 100700, Note_off_c, 0, 75, 61
1, 100706, Note_off_c, 0, 68, 61
1, 100789, Note_on_c, 0, 75, 68
1, 100811, Note_on_c, 0, 58, 54
1, 100820, Note_off_c, 0, 75, 63
1, 100825, Note_on_c, 0, 78, 55
1, 100846, Note_on_c, 0, 77, 76
1, 100847, Note_off_c, 0, 78, 62
1, 100875, Note_on_c, 0, 75, 63
1, 100915, Note_off_c, 0, 77, 65
1, 100937, Note_on_c, 0, 68, 60
1, 100941, Note_on_c, 0, 65, 53
1, 100946, Note_on_c, 0, 74, 74
1, 100963, Note_off_c, 0, 75, 62
1, 100990, Note_off_c, 0, 74, 63
1, 100994, Note_off_c, 0, 68, 59
1, 101055, Control_c, 0, 64, 18
1, 101056, Note_on_c, 0, 59, 71
1, 101066, Note_on_c, 0, 72, 76
1, 101070, Control_c, 0, 64, 44
1, 101085, Control_c, 0, 64, 54
1, 101099, Control_c, 0, 64, 59
1, 101114, Control_c, 0, 64, 61
1, 101123, Note_off_c, 0, 65, 45
1, 101129, Control_c, 0, 64, 62
1, 101144, Control_c, 0, 64, 63
1, 101158, Control_c, 0, 64, 64
1, 101171, Note_off_c, 0, 58, 58
1, 101173, Control_c, 0, 64, 66
1, 101186, Note_on_c, 0, 74, 77
1, 101186, Note_off_c, 0, 72, 61
1, 101188, Control_c, 0, 64, 67
1, 101195, Note_on_c, 0, 65, 59
1, 101197, Note_on_c, 0, 68, 52
1, 101203, Control_c, 0, 64, 69
1, 101218, Control_c, 0, 64, 72
1, 101228, Note_off_c, 0, 74, 62
1, 101233, Control_c, 0, 64, 76
1, 101234, Note_off_c, 0, 59, 62
1, 101247, Control_c, 0, 64, 80
1, 101262, Control_c, 0, 64, 83
1, 101277, Control_c, 0, 64, 85
1, 101307, Control_c, 0, 64, 84
1, 101312, Note_off_c, 0, 68, 60
1, 101315, Note_on_c, 0, 77, 79
1, 101321, Control_c, 0, 64, 82
1, 101335, Note_on_c, 0, 60, 70
1, 101337, Control_c, 0, 64, 76
1, 101341, Note_on_c, 0, 79, 68
1, 101352, Control_c, 0, 64, 69
1, 101353, Note_off_c, 0, 65, 28
1, 101367, Control_c, 0, 64, 62
1, 101382, Control_c, 0, 64, 38
1, 101396, Control_c, 0, 64, 0
1, 101424, Note_off_c, 0, 79, 60
1, 101434, Note_on_c, 0, 75, 77
1, 101441, Note_off_c, 0, 77, 63
1, 101446, Note_on_c, 0, 67, 63
1, 101457, Note_on_c, 0, 63, 56
1, 101461, Note_off_c, 0, 75, 66
1, 101472, Note_off_c, 0, 67, 66
1, 101495, Note_off_c, 0, 63, 59
1, 101567, Note_on_c, 0, 75, 74
1, 101576, Note_on_c, 0, 67, 58
1, 101589, Note_on_c, 0, 63, 67
1, 101589, Note_off_c, 0, 75, 71
1, 101604, Note_on_c, 0, 77, 68
1, 101619, Note_off_c, 0, 63, 62
1, 101631, Note_off_c, 0, 67, 51
1, 101665, Note_on_c, 0, 75, 70
1, 101699, Note_off_c, 0, 77, 60
1, 101705, Note_on_c, 0, 74, 64
1, 101720, Note_on_c, 0, 67, 46
1, 101725, Note_on_c, 0, 63, 63
1, 101732, Note_off_c, 0, 75, 63
1, 101737, Note_off_c, 0, 60, 60
1, 101738, Note_off_c, 0, 74, 65
1, 101746, Note_off_c, 0, 67, 61
1, 101752, Note_off_c, 0, 63, 68
1, 101835, Note_on_c, 0, 74, 65
1, 101847, Note_on_c, 0, 56, 61
1, 101874, Note_on_c, 0, 75, 66
1, 101875, Note_off_c, 0, 74, 64
1, 101922, Note_on_c, 0, 74, 53
1, 101959, Note_on_c, 0, 72, 71
1, 101961, Note_off_c, 0, 75, 64
1, 101978, Note_on_c, 0, 63, 51
1, 101979, Note_off_c, 0, 74, 63
1, 101981, Note_on_c, 0, 65, 50
1, 101989, Note_off_c, 0, 72, 64
1, 102015, Note_off_c, 0, 65, 63
1, 102020, Note_off_c, 0, 63, 62
1, 102095, Note_on_c, 0, 72, 69
1, 102101, Note_on_c, 0, 65, 64
1, 102117, Note_on_c, 0, 63, 49
1, 102131, Note_on_c, 0, 74, 59
1, 102134, Note_off_c, 0, 65, 63
1, 102137, Note_off_c, 0, 72, 63
1, 102151, Note_off_c, 0, 63, 54
1, 102168, Poly_aftertouch_c, 0, 72, 0
1, 102178, Note_on_c, 0, 72, 52
1, 102194, Note_off_c, 0, 74, 64
1, 102213, Note_on_c, 0, 71, 74
1, 102224, Note_off_c, 0, 72, 63
1, 102232, Note_on_c, 0, 65, 47
1, 102235, Note_off_c, 0, 71, 70
1, 102242, Note_on_c, 0, 63, 52
1, 102244, Note_off_c, 0, 56, 62
1, 102267, Note_off_c, 0, 63, 59
1, 102269, Note_off_c, 0, 65, 48
1, 102340, Note_on_c, 0, 72, 69
1, 102354, Note_on_c, 0, 58, 64
1, 102379, Note_on_c, 0, 74, 67
1, 102380, Note_off_c, 0, 72, 63
1, 102444, Note_on_c, 0, 72, 54
1, 102459, Note_off_c, 0, 74, 62
1, 102487, Note_on_c, 0, 67, 57
1, 102488, Note_off_c, 0, 72, 64
1, 102490, Note_on_c, 0, 63, 52
1, 102491, Note_on_c, 0, 70, 68
1, 102514, Note_off_c, 0, 70, 69
1, 102515, Note_off_c, 0, 67, 65
1, 102521, Note_off_c, 0, 63, 60
1, 102617, Note_on_c, 0, 67, 52
1, 102620, Note_on_c, 0, 63, 53
1, 102621, Note_on_c, 0, 70, 61
1, 102644, Note_off_c, 0, 63, 60
1, 102648, Note_off_c, 0, 70, 68
1, 102649, Note_off_c, 0, 67, 65
1, 102742, Note_on_c, 0, 70, 59
1, 102750, Note_on_c, 0, 63, 43
1, 102763, Note_on_c, 0, 67, 41
1, 102769, Note_off_c, 0, 58, 61
1, 102769, Note_off_c, 0, 70, 68
1, 102790, Note_off_c, 0, 67, 56
1, 102793, Note_off_c, 0, 63, 49
1, 102867, Note_on_c, 0, 72, 65
1, 102882, Note_on_c, 0, 58, 58
1, 102910, Note_on_c, 0, 74, 57
1, 102972, Note_off_c, 0, 74, 62
1, 103001, Note_off_c, 0, 72, 64
1, 103014, Note_on_c, 0, 62, 52
1, 103014, Note_on_c, 0, 65, 50
1, 103016, Note_on_c, 0, 70, 46
1, 103038, Note_off_c, 0, 65, 59
1, 103040, Note_off_c, 0, 70, 59
1, 103044, Note_off_c, 0, 62, 61
1, 103134, Note_on_c, 0, 70, 57
1, 103145, Note_on_c, 0, 62, 52
1, 103148, Note_on_c, 0, 65, 42
1, 103173, Note_off_c, 0, 70, 65
1, 103177, Note_off_c, 0, 62, 62
1, 103181, Note_off_c, 0, 65, 58
1, 103269, Note_on_c, 0, 70, 68
1, 103271, Note_on_c, 0, 65, 51
1, 103275, Note_on_c, 0, 62, 48
1, 103293, Note_off_c, 0, 70, 70
1, 103294, Note_off_c, 0, 65, 62
1, 103300, Note_off_c, 0, 62, 57
1, 103312, Note_off_c, 0, 58, 58
1, 103408, Note_on_c, 0, 51, 62
1, 103439, Note_on_c, 0, 63, 50
1, 103475, Note_off_c, 0, 63, 52
1, 103510, Note_on_c, 0, 58, 39
1, 103547, Note_on_c, 0, 67, 14
1, 103555, Note_off_c, 0, 58, 62
1, 103571, Note_on_c, 0, 55, 46
1, 103574, Note_on_c, 0, 63, 52
1, 103592, Note_off_c, 0, 67, 42
1, 103606, Note_off_c, 0, 55, 62
1, 103635, Note_on_c, 0, 58, 43
1, 103660, Note_off_c, 0, 63, 56
1, 103671, Control_c, 0, 64, 37
1, 103684, Note_on_c, 0, 75, 82
1, 103686, Control_c, 0, 64, 59
1, 103701, Control_c, 0, 64, 65
1, 103705, Note_off_c, 0, 58, 60
1, 103713, Note_on_c, 0, 55, 54
1, 103715, Control_c, 0, 64, 70
1, 103731, Control_c, 0, 64, 78
1, 103746, Control_c, 0, 64, 89
1, 103761, Note_off_c, 0, 55, 62
1, 103761, Control_c, 0, 64, 104
1, 103767, Note_on_c, 0, 58, 50
1, 103775, Control_c, 0, 64, 127
1, 103790, Note_on_c, 0, 63, 52
1, 103829, Note_off_c, 0, 63, 48
1, 103836, Note_on_c, 0, 67, 56
1, 103841, Note_off_c, 0, 58, 52
1, 103864, Note_on_c, 0, 55, 44
1, 103873, Note_off_c, 0, 67, 58
1, 103895, Note_on_c, 0, 58, 36
1, 103897, Note_off_c, 0, 55, 61
1, 103919, Note_on_c, 0, 63, 49
1, 103962, Note_off_c, 0, 63, 47
1, 103968, Note_off_c, 0, 58, 62
1, 103973, Note_on_c, 0, 67, 52
1, 104008, Note_on_c, 0, 55, 36
1, 104015, Note_off_c, 0, 67, 56
1, 104031, Note_on_c, 0, 63, 46
1, 104032, Note_on_c, 0, 58, 39
1, 104080, Note_off_c, 0, 55, 0
1, 104091, Note_off_c, 0, 63, 42
1, 104096, Note_off_c, 0, 51, 40
1, 104097, Note_on_c, 0, 55, 34
1, 104106, Note_on_c, 0, 67, 35
1, 104130, Note_off_c, 0, 75, 33
1, 104131, Note_off_c, 0, 55, 54
1, 104141, Note_off_c, 0, 58, 0
1, 104164, Note_on_c, 0, 63, 37
1, 104178, Poly_aftertouch_c, 0, 58, 127
1, 104206, Note_off_c, 0, 67, 37
1, 104227, Poly_aftertouch_c, 0, 58, 0
1, 104229, Note_on_c, 0, 51, 49
1, 104241, Note_off_c, 0, 63, 38
1, 104247, Note_on_c, 0, 75, 64
1, 104325, Note_on_c, 0, 58, 48
1, 104340, Note_on_c, 0, 63, 40
1, 104357, Note_off_c, 0, 51, 36
1, 104359, Note_off_c, 0, 58, 54
1, 104375, Note_on_c, 0, 55, 52
1, 104382, Note_on_c, 0, 67, 52
1, 104382, Note_off_c, 0, 63, 47
1, 104400, Note_off_c, 0, 55, 64
1, 104433, Note_on_c, 0, 63, 55
1, 104435, Control_c, 0, 64, 95
1, 104450, Control_c, 0, 64, 77
1, 104454, Note_on_c, 0, 58, 50
1, 104464, Control_c, 0, 64, 64
1, 104467, Note_off_c, 0, 75, 31
1, 104471, Note_off_c, 0, 63, 61
1, 104473, Note_off_c, 0, 67, 43
1, 104479, Control_c, 0, 64, 17
1, 104484, Note_off_c, 0, 58, 54
1, 104494, Control_c, 0, 64, 0
1, 104503, Note_on_c, 0, 49, 63
1, 104560, Note_on_c, 0, 63, 62
1, 104567, Note_on_c, 0, 58, 55
1, 104599, Control_c, 0, 64, 28
1, 104613, Control_c, 0, 64, 56
1, 104619, Note_off_c, 0, 63, 53
1, 104628, Control_c, 0, 64, 63
1, 104630, Note_off_c, 0, 58, 59
1, 104638, Note_on_c, 0, 67, 45
1, 104644, Control_c, 0, 64, 65
1, 104666, Control_c, 0, 64, 67
1, 104668, Note_on_c, 0, 55, 40
1, 104680, Control_c, 0, 64, 70
1, 104681, Note_on_c, 0, 63, 35
1, 104681, Note_off_c, 0, 67, 57
1, 104695, Control_c, 0, 64, 75
1, 104697, Note_off_c, 0, 55, 57
1, 104710, Control_c, 0, 64, 80
1, 104712, Note_on_c, 0, 58, 55
1, 104725, Control_c, 0, 64, 85
1, 104740, Control_c, 0, 64, 89
1, 104754, Control_c, 0, 64, 92
1, 104769, Control_c, 0, 64, 96
1, 104780, Note_off_c, 0, 58, 61
1, 104784, Control_c, 0, 64, 99
1, 104788, Note_on_c, 0, 75, 80
1, 104797, Note_off_c, 0, 63, 36
1, 104799, Control_c, 0, 64, 100
1, 104800, Note_on_c, 0, 55, 50
1, 104838, Note_off_c, 0, 55, 61
1, 104857, Note_on_c, 0, 58, 38
1, 104873, Note_on_c, 0, 63, 38
1, 104906, Note_off_c, 0, 58, 60
1, 104906, Note_off_c, 0, 63, 51
1, 104914, Note_on_c, 0, 67, 57
1, 104945, Note_on_c, 0, 55, 41
1, 104957, Note_off_c, 0, 67, 53
1, 104970, Note_off_c, 0, 55, 58
1, 104987, Note_on_c, 0, 63, 64
1, 104993, Note_on_c, 0, 58, 51
1, 105022, Note_off_c, 0, 63, 56
1, 105027, Note_off_c, 0, 58, 56
1, 105045, Note_on_c, 0, 67, 61
1, 105055, Note_on_c, 0, 55, 49
1, 105079, Note_off_c, 0, 67, 57
1, 105082, Note_off_c, 0, 55, 55
1, 105106, Note_on_c, 0, 63, 67
1, 105115, Note_off_c, 0, 75, 13
1, 105117, Note_on_c, 0, 58, 58
1, 105156, Note_off_c, 0, 58, 52
1, 105158, Note_off_c, 0, 49, 37
1, 105193, Note_on_c, 0, 55, 52
1, 105199, Note_off_c, 0, 63, 0
1, 105203, Note_on_c, 0, 67, 43
1, 105219, Note_off_c, 0, 55, 65
1, 105236, Poly_aftertouch_c, 0, 63, 127
1, 105255, Note_on_c, 0, 58, 52
1, 105283, Note_off_c, 0, 58, 55
1, 105304, Poly_aftertouch_c, 0, 63, 0
1, 105328, Note_on_c, 0, 75, 73
1, 105333, Note_on_c, 0, 49, 68
1, 105338, Note_off_c, 0, 67, 41
1, 105389, Note_on_c, 0, 58, 46
1, 105392, Control_c, 0, 64, 99
1, 105394, Note_off_c, 0, 49, 60
1, 105406, Note_on_c, 0, 63, 47
1, 105410, Note_off_c, 0, 75, 56
1, 105414, Control_c, 0, 64, 98
1, 105429, Control_c, 0, 64, 97
1, 105435, Note_off_c, 0, 58, 54
1, 105443, Control_c, 0, 64, 97
1, 105445, Note_on_c, 0, 67, 60
1, 105446, Note_off_c, 0, 63, 48
1, 105458, Note_on_c, 0, 55, 43
1, 105458, Control_c, 0, 64, 96
1, 105473, Control_c, 0, 64, 95
1, 105478, Note_off_c, 0, 67, 59
1, 105485, Note_off_c, 0, 55, 55
1, 105488, Control_c, 0, 64, 86
1, 105503, Control_c, 0, 64, 73
1, 105517, Control_c, 0, 64, 62
1, 105526, Note_on_c, 0, 58, 41
1, 105532, Control_c, 0, 64, 0
1, 105539, Note_on_c, 0, 63, 47
1, 105553, Note_off_c, 0, 58, 56
1, 105568, Note_off_c, 0, 63, 57
1, 105588, Note_on_c, 0, 48, 72
1, 105592, Note_on_c, 0, 75, 82
1, 105622, Note_off_c, 0, 48, 60
1, 105641, Note_on_c, 0, 56, 59
1, 105648, Note_off_c, 0, 75, 64
1, 105651, Control_c, 0, 67, 103
1, 105651, Note_on_c, 0, 63, 55
1, 105666, Control_c, 0, 67, 67
1, 105678, Note_off_c, 0, 56, 59
1, 105681, Note_off_c, 0, 63, 55
1, 105681, Control_c, 0, 67, 31
1, 105696, Control_c, 0, 67, 0
1, 105715, Note_on_c, 0, 51, 45
1, 105720, Note_on_c, 0, 68, 52
1, 105744, Note_off_c, 0, 51, 52
1, 105751, Note_off_c, 0, 68, 57
1, 105767, Note_on_c, 0, 63, 61
1, 105782, Note_on_c, 0, 56, 37
1, 105806, Note_off_c, 0, 63, 61
1, 105815, Note_off_c, 0, 56, 49
1, 105851, Note_on_c, 0, 76, 88
1, 105854, Note_on_c, 0, 46, 77
1, 105896, Note_off_c, 0, 46, 55
1, 105905, Note_off_c, 0, 76, 65
1, 105918, Note_on_c, 0, 55, 58
1, 105921, Note_on_c, 0, 64, 57
1, 105955, Note_off_c, 0, 64, 65
1, 105970, Note_off_c, 0, 55, 61
1, 105993, Note_on_c, 0, 48, 45
1, 105997, Note_on_c, 0, 72, 34
1, 106021, Note_off_c, 0, 48, 52
1, 106026, Note_off_c, 0, 72, 50
1, 106054, Note_on_c, 0, 64, 58
1, 106084, Note_off_c, 0, 64, 66
1, 106104, Note_on_c, 0, 44, 78
1, 106106, Note_on_c, 0, 77, 91
1, 106160, Note_on_c, 0, 56, 73
1, 106167, Note_off_c, 0, 44, 59
1, 106184, Note_off_c, 0, 77, 56
1, 106212, Note_off_c, 0, 56, 62
1, 106215, Note_on_c, 0, 65, 4
1, 106239, Note_on_c, 0, 48, 67
1, 106241, Note_on_c, 0, 73, 74
1, 106268, Note_off_c, 0, 65, 37
1, 106273, Note_off_c, 0, 48, 64
1, 106294, Note_off_c, 0, 73, 60
1, 106296, Note_on_c, 0, 56, 64
1, 106335, Note_off_c, 0, 56, 61
1, 106365, Note_on_c, 0, 43, 90
1, 106369, Note_on_c, 0, 79, 86
1, 106414, Note_on_c, 0, 67, 66
1, 106423, Note_on_c, 0, 55, 72
1, 106424, Note_off_c, 0, 43, 63
1, 106442, Note_off_c, 0, 79, 57
1, 106476, Note_off_c, 0, 55, 63
1, 106481, Note_off_c, 0, 67, 62
1, 106484, Note_on_c, 0, 72, 67
1, 106486, Note_on_c, 0, 48, 61
1, 106516, Note_off_c, 0, 72, 65
1, 106524, Note_off_c, 0, 48, 64
1, 106548, Note_on_c, 0, 55, 66
1, 106557, Note_on_c, 0, 67, 49
1, 106582, Note_off_c, 0, 55, 66
1, 106584, Note_off_c, 0, 67, 58
1, 106613, Note_on_c, 0, 41, 96
1, 106624, Note_on_c, 0, 80, 90
1, 106677, Note_on_c, 0, 53, 72
1, 106678, Note_off_c, 0, 41, 64
1, 106681, Note_on_c, 0, 68, 74
1, 106706, Note_off_c, 0, 68, 64
1, 106718, Note_off_c, 0, 53, 63
1, 106743, Note_on_c, 0, 48, 66
1, 106765, Note_off_c, 0, 80, 56
1, 106768, Note_on_c, 0, 72, 55
1, 106778, Note_off_c, 0, 48, 61
1, 106799, Note_on_c, 0, 53, 67
1, 106799, Note_off_c, 0, 72, 63
1, 106801, Note_on_c, 0, 68, 73
1, 106833, Note_off_c, 0, 53, 69
1, 106853, Note_off_c, 0, 68, 65
1, 106874, Note_on_c, 0, 39, 86
1, 106878, Note_on_c, 0, 81, 96
1, 106928, Note_on_c, 0, 38, 39
1, 106935, Note_on_c, 0, 80, 17
1, 106939, Note_on_c, 0, 51, 70
1, 106943, Note_on_c, 0, 69, 58
1, 106957, Note_off_c, 0, 39, 62
1, 106969, Note_off_c, 0, 38, 33
1, 106974, Note_off_c, 0, 81, 52
1, 106985, Note_off_c, 0, 51, 61
1, 106988, Note_off_c, 0, 80, 46
1, 106994, Note_on_c, 0, 48, 66
1, 107000, Note_on_c, 0, 72, 66
1, 107000, Note_off_c, 0, 69, 64
1, 107042, Note_off_c, 0, 72, 63
1, 107048, Note_off_c, 0, 48, 61
1, 107053, Note_on_c, 0, 51, 71
1, 107061, Note_on_c, 0, 69, 61
1, 107097, Note_off_c, 0, 51, 61
1, 107115, Note_off_c, 0, 69, 66
1, 107145, Note_on_c, 0, 82, 89
1, 107148, Note_on_c, 0, 36, 77
1, 107148, Note_on_c, 0, 38, 76
1, 107180, Note_off_c, 0, 36, 65
1, 107189, Note_on_c, 0, 50, 66
1, 107195, Note_on_c, 0, 70, 66
1, 107201, Note_off_c, 0, 38, 63
1, 107237, Note_off_c, 0, 50, 60
1, 107237, Note_off_c, 0, 70, 55
1, 107249, Note_on_c, 0, 41, 67
1, 107253, Note_off_c, 0, 82, 54
1, 107265, Note_on_c, 0, 77, 67
1, 107285, Note_off_c, 0, 41, 64
1, 107311, Note_on_c, 0, 50, 73
1, 107311, Note_on_c, 0, 70, 70
1, 107324, Note_off_c, 0, 77, 60
1, 107326, Control_c, 0, 64, 8
1, 107338, Note_off_c, 0, 70, 67
1, 107340, Note_off_c, 0, 50, 64
1, 107341, Control_c, 0, 64, 14
1, 107386, Control_c, 0, 64, 12
1, 107387, Note_on_c, 0, 36, 93
1, 107389, Note_on_c, 0, 84, 100
1, 107400, Control_c, 0, 64, 8
1, 107445, Control_c, 0, 64, 10
1, 107448, Note_off_c, 0, 36, 63
1, 107452, Note_on_c, 0, 48, 67
1, 107457, Note_on_c, 0, 72, 61
1, 107460, Control_c, 0, 64, 8
1, 107474, Control_c, 0, 64, 0
1, 107496, Note_off_c, 0, 48, 61
1, 107499, Note_off_c, 0, 72, 62
1, 107502, Note_on_c, 0, 41, 71
1, 107505, Note_off_c, 0, 84, 54
1, 107506, Note_on_c, 0, 77, 76
1, 107540, Note_off_c, 0, 41, 66
1, 107563, Control_c, 0, 64, 12
1, 107567, Note_on_c, 0, 48, 65
1, 107567, Note_on_c, 0, 72, 65
1, 107578, Control_c, 0, 64, 21
1, 107592, Control_c, 0, 64, 24
1, 107595, Note_off_c, 0, 77, 55
1, 107600, Note_off_c, 0, 48, 65
1, 107607, Control_c, 0, 64, 25
1, 107623, Note_off_c, 0, 72, 64
1, 107638, Control_c, 0, 64, 26
1, 107654, Note_on_c, 0, 85, 93
1, 107655, Note_on_c, 0, 34, 95
1, 107660, Control_c, 0, 64, 26
1, 107705, Control_c, 0, 64, 26
1, 107719, Note_on_c, 0, 46, 84
1, 107719, Note_on_c, 0, 73, 81
1, 107735, Note_off_c, 0, 34, 66
1, 107737, Note_off_c, 0, 85, 59
1, 107765, Control_c, 0, 64, 26
1, 107776, Note_off_c, 0, 46, 63
1, 107780, Control_c, 0, 64, 27
1, 107783, Note_on_c, 0, 41, 62
1, 107786, Note_off_c, 0, 73, 58
1, 107795, Control_c, 0, 64, 28
1, 107801, Note_on_c, 0, 77, 70
1, 107809, Control_c, 0, 64, 31
1, 107824, Control_c, 0, 64, 35
1, 107836, Note_off_c, 0, 41, 63
1, 107838, Note_on_c, 0, 46, 74
1, 107839, Control_c, 0, 64, 39
1, 107843, Note_on_c, 0, 73, 72
1, 107849, Note_off_c, 0, 77, 55
1, 107854, Control_c, 0, 64, 42
1, 107869, Control_c, 0, 64, 44
1, 107883, Note_off_c, 0, 46, 62
1, 107884, Control_c, 0, 64, 44
1, 107887, Note_off_c, 0, 73, 64
1, 107899, Control_c, 0, 64, 43
1, 107913, Control_c, 0, 64, 41
1, 107918, Note_on_c, 0, 32, 96
1, 107922, Note_on_c, 0, 86, 101
1, 107928, Control_c, 0, 64, 40
1, 107943, Control_c, 0, 64, 39
1, 107953, Note_on_c, 0, 85, 49
1, 107957, Control_c, 0, 64, 38
1, 107962, Note_on_c, 0, 31, 40
1, 107973, Note_on_c, 0, 44, 75
1, 107977, Note_off_c, 0, 85, 60
1, 107983, Note_on_c, 0, 74, 65
1, 107984, Note_off_c, 0, 32, 64
1, 108003, Note_off_c, 0, 31, 33
1, 108008, Note_off_c, 0, 86, 53
1, 108017, Control_c, 0, 64, 39
1, 108028, Note_on_c, 0, 77, 81
1, 108029, Note_off_c, 0, 44, 63
1, 108031, Control_c, 0, 64, 40
1, 108034, Note_off_c, 0, 74, 65
1, 108044, Note_on_c, 0, 41, 67
1, 108046, Control_c, 0, 64, 40
1, 108061, Control_c, 0, 64, 42
1, 108076, Control_c, 0, 64, 44
1, 108085, Note_off_c, 0, 77, 59
1, 108091, Control_c, 0, 64, 48
1, 108094, Note_on_c, 0, 74, 69
1, 108096, Note_on_c, 0, 44, 73
1, 108097, Note_off_c, 0, 41, 64
1, 108105, Control_c, 0, 64, 52
1, 108120, Control_c, 0, 64, 55
1, 108135, Control_c, 0, 64, 56
1, 108143, Note_off_c, 0, 74, 65
1, 108145, Note_off_c, 0, 44, 63
1, 108149, Control_c, 0, 64, 55
1, 108164, Control_c, 0, 64, 46
1, 108168, Note_on_c, 0, 87, 101
1, 108176, Note_on_c, 0, 31, 77
1, 108179, Control_c, 0, 64, 0
1, 108187, Note_on_c, 0, 29, 69
1, 108204, Note_on_c, 0, 85, 36
1, 108205, Note_off_c, 0, 85, 127
1, 108218, Note_off_c, 0, 29, 36
1, 108221, Note_on_c, 0, 32, 11
1, 108230, Note_on_c, 0, 75, 75
1, 108232, Note_on_c, 0, 43, 73
1, 108234, Note_off_c, 0, 31, 64
1, 108241, Note_off_c, 0, 87, 63
1, 108270, Note_off_c, 0, 32, 39
1, 108274, Note_off_c, 0, 43, 57
1, 108279, Note_on_c, 0, 39, 75
1, 108289, Note_off_c, 0, 75, 63
1, 108291, Note_on_c, 0, 82, 79
1, 108336, Note_off_c, 0, 39, 62
1, 108340, Note_off_c, 0, 82, 63
1, 108352, Note_on_c, 0, 75, 76
1, 108358, Note_on_c, 0, 43, 62
1, 108383, Note_off_c, 0, 43, 58
1, 108391, Note_off_c, 0, 75, 64
1, 108416, Note_on_c, 0, 31, 85
1, 108427, Note_on_c, 0, 83, 95
1, 108438, Control_c, 0, 64, 29
1, 108439, Note_on_c, 0, 43, 89
1, 108453, Control_c, 0, 64, 39
1, 108466, Note_off_c, 0, 31, 63
1, 108468, Control_c, 0, 64, 36
1, 108472, Note_on_c, 0, 39, 66
1, 108483, Control_c, 0, 64, 36
1, 108486, Note_on_c, 0, 71, 75
1, 108508, Note_off_c, 0, 43, 62
1, 108510, Note_off_c, 0, 39, 52
1, 108513, Control_c, 0, 64, 35
1, 108538, Note_off_c, 0, 83, 49
1, 108543, Control_c, 0, 64, 36
1, 108549, Note_off_c, 0, 71, 60
1, 108554, Note_on_c, 0, 75, 77
1, 108558, Control_c, 0, 64, 37
1, 108573, Control_c, 0, 64, 39
1, 108588, Control_c, 0, 64, 42
1, 108602, Control_c, 0, 64, 47
1, 108612, Note_off_c, 0, 75, 65
1, 108616, Note_on_c, 0, 71, 76
1, 108617, Control_c, 0, 64, 52
1, 108632, Control_c, 0, 64, 55
1, 108647, Control_c, 0, 64, 56
1, 108662, Control_c, 0, 64, 55
1, 108677, Control_c, 0, 64, 51
1, 108680, Note_off_c, 0, 71, 59
1, 108681, Note_on_c, 0, 44, 99
1, 108684, Note_on_c, 0, 32, 95
1, 108692, Control_c, 0, 64, 35
1, 108707, Control_c, 0, 64, 0
1, 108737, Note_off_c, 0, 32, 61
1, 108764, Note_on_c, 0, 72, 75
1, 108765, Note_off_c, 0, 44, 60
1, 108822, Note_off_c, 0, 72, 63
1, 108828, Note_on_c, 0, 75, 80
1, 108885, Note_on_c, 0, 72, 79
1, 108886, Note_off_c, 0, 75, 63
1, 108943, Note_on_c, 0, 84, 71
1, 108945, Note_off_c, 0, 72, 66
1, 108964, Note_on_c, 0, 83, 51
1, 109000, Note_on_c, 0, 72, 64
1, 109030, Note_off_c, 0, 84, 51
1, 109049, Note_off_c, 0, 83, 28
1, 109070, Note_off_c, 0, 72, 63
1, 109073, Note_on_c, 0, 75, 75
1, 109115, Note_on_c, 0, 72, 66
1, 109136, Control_c, 0, 64, 17
1, 109149, Note_off_c, 0, 75, 64
1, 109158, Control_c, 0, 64, 30
1, 109170, Note_off_c, 0, 72, 66
1, 109173, Control_c, 0, 64, 37
1, 109187, Control_c, 0, 64, 42
1, 109200, Note_on_c, 0, 46, 100
1, 109202, Note_on_c, 0, 34, 93
1, 109202, Control_c, 0, 64, 43
1, 109217, Control_c, 0, 64, 43
1, 109232, Control_c, 0, 64, 42
1, 109247, Control_c, 0, 64, 41
1, 109261, Control_c, 0, 64, 39
1, 109276, Control_c, 0, 64, 36
1, 109282, Note_off_c, 0, 34, 63
1, 109290, Note_on_c, 0, 65, 70
1, 109291, Control_c, 0, 64, 21
1, 109306, Note_off_c, 0, 46, 61
1, 109306, Control_c, 0, 64, 0
1, 109345, Note_on_c, 0, 68, 72
1, 109346, Note_off_c, 0, 65, 61
1, 109406, Note_off_c, 0, 68, 63
1, 109415, Note_on_c, 0, 65, 67
1, 109458, Note_on_c, 0, 74, 78
1, 109466, Note_off_c, 0, 65, 62
1, 109500, Control_c, 0, 67, 9
1, 109515, Control_c, 0, 67, 19
1, 109529, Control_c, 0, 67, 28
1, 109532, Note_on_c, 0, 65, 72
1, 109544, Control_c, 0, 67, 37
1, 109559, Control_c, 0, 67, 45
1, 109560, Note_off_c, 0, 74, 57
1, 109574, Control_c, 0, 67, 48
1, 109589, Note_off_c, 0, 65, 58
1, 109607, Note_on_c, 0, 68, 64
1, 109633, Control_c, 0, 67, 49
1, 109645, Note_on_c, 0, 65, 60
1, 109648, Control_c, 0, 67, 51
1, 109662, Note_off_c, 0, 68, 59
1, 109663, Control_c, 0, 67, 57
1, 109673, Note_off_c, 0, 65, 65
1, 109677, Control_c, 0, 67, 64
1, 109692, Control_c, 0, 67, 72
1, 109707, Control_c, 0, 67, 80
1, 109721, Control_c, 0, 67, 89
1, 109734, Note_on_c, 0, 51, 62
1, 109736, Control_c, 0, 67, 96
1, 109751, Control_c, 0, 67, 101
1, 109766, Control_c, 0, 67, 106
1, 109781, Control_c, 0, 67, 111
1, 109795, Control_c, 0, 67, 117
1, 109805, Note_on_c, 0, 63, 55
1, 109810, Control_c, 0, 67, 123
1, 109814, Note_on_c, 0, 58, 44
1, 109825, Control_c, 0, 67, 127
1, 109867, Note_on_c, 0, 67, 56
1, 109869, Note_off_c, 0, 63, 50
1, 109872, Note_off_c, 0, 58, 44
1, 109906, Control_c, 0, 64, 18
1, 109914, Note_on_c, 0, 55, 44
1, 109921, Control_c, 0, 64, 40
1, 109935, Note_on_c, 0, 63, 45
1, 109935, Control_c, 0, 64, 48
1, 109950, Control_c, 0, 64, 52
1, 109953, Note_off_c, 0, 67, 53
1, 109965, Control_c, 0, 64, 55
1, 109980, Control_c, 0, 64, 58
1, 109983, Note_off_c, 0, 55, 61
1, 109995, Control_c, 0, 64, 59
1, 109999, Note_on_c, 0, 58, 50
1, 110009, Control_c, 0, 64, 62
1, 110012, Note_off_c, 0, 63, 61
1, 110019, Note_on_c, 0, 75, 81
1, 110024, Control_c, 0, 64, 63
1, 110039, Control_c, 0, 64, 65
1, 110054, Control_c, 0, 64, 67
1, 110065, Note_off_c, 0, 58, 58
1, 110069, Control_c, 0, 64, 69
1, 110079, Note_on_c, 0, 55, 49
1, 110084, Control_c, 0, 64, 71
1, 110099, Control_c, 0, 64, 73
1, 110104, Note_on_c, 0, 63, 49
1, 110114, Control_c, 0, 64, 75
1, 110126, Note_off_c, 0, 55, 62
1, 110129, Control_c, 0, 64, 76
1, 110144, Control_c, 0, 64, 77
1, 110145, Note_on_c, 0, 58, 52
1, 110155, Note_on_c, 0, 67, 57
1, 110158, Control_c, 0, 64, 77
1, 110173, Control_c, 0, 64, 78
1, 110188, Control_c, 0, 64, 78
1, 110189, Note_off_c, 0, 58, 57
1, 110201, Note_off_c, 0, 63, 0
1, 110203, Control_c, 0, 64, 79
1, 110210, Note_off_c, 0, 67, 54
1, 110214, Note_on_c, 0, 63, 40
1, 110218, Control_c, 0, 64, 80
1, 110223, Note_on_c, 0, 55, 50
1, 110233, Control_c, 0, 64, 81
1, 110248, Control_c, 0, 64, 83
1, 110261, Note_off_c, 0, 55, 64
1, 110263, Control_c, 0, 64, 86
1, 110269, Note_on_c, 0, 58, 48
1, 110272, Note_on_c, 0, 67, 43
1, 110278, Control_c, 0, 64, 89
1, 110292, Control_c, 0, 64, 91
1, 110305, Note_off_c, 0, 63, 0
1, 110307, Control_c, 0, 64, 93
1, 110317, Note_off_c, 0, 58, 50
1, 110322, Control_c, 0, 64, 93
1, 110325, Note_on_c, 0, 63, 30
1, 110328, Note_off_c, 0, 75, 0
1, 110337, Control_c, 0, 64, 94
1, 110359, Note_off_c, 0, 67, 0
1, 110361, Note_on_c, 0, 55, 49
1, 110365, Poly_aftertouch_c, 0, 75, 127
1, 110382, Note_off_c, 0, 63, 54
1, 110382, Note_on_c, 0, 67, 30
1, 110401, Note_off_c, 0, 55, 61
1, 110402, Note_off_c, 0, 51, 56
1, 110416, Note_on_c, 0, 58, 49
1, 110433, Poly_aftertouch_c, 0, 75, 0
1, 110457, Note_on_c, 0, 63, 51
1, 110468, Note_off_c, 0, 58, 45
1, 110507, Note_off_c, 0, 63, 59
1, 110514, Control_c, 0, 64, 93
1, 110528, Note_on_c, 0, 51, 55
1, 110535, Note_off_c, 0, 67, 36
1, 110542, Note_on_c, 0, 75, 61
1, 110543, Control_c, 0, 64, 92
1, 110558, Control_c, 0, 64, 91
1, 110573, Control_c, 0, 64, 90
1, 110588, Control_c, 0, 64, 90
1, 110595, Note_on_c, 0, 58, 41
1, 110603, Control_c, 0, 64, 89
1, 110615, Note_on_c, 0, 63, 33
1, 110618, Control_c, 0, 64, 88
1, 110632, Control_c, 0, 64, 87
1, 110633, Note_off_c, 0, 58, 50
1, 110655, Control_c, 0, 64, 86
1, 110658, Note_on_c, 0, 67, 56
1, 110660, Note_off_c, 0, 51, 33
1, 110662, Note_off_c, 0, 63, 50
1, 110667, Note_on_c, 0, 55, 45
1, 110670, Control_c, 0, 64, 85
1, 110685, Control_c, 0, 64, 83
1, 110695, Note_off_c, 0, 55, 56
1, 110699, Control_c, 0, 64, 82
1, 110714, Control_c, 0, 64, 81
1, 110721, Note_on_c, 0, 63, 46
1, 110729, Control_c, 0, 64, 78
1, 110731, Note_on_c, 0, 58, 56
1, 110744, Control_c, 0, 64, 74
1, 110748, Note_off_c, 0, 75, 25
1, 110758, Control_c, 0, 64, 68
1, 110766, Note_off_c, 0, 58, 58
1, 110770, Note_off_c, 0, 63, 59
1, 110770, Note_off_c, 0, 67, 45
1, 110773, Control_c, 0, 64, 62
1, 110788, Control_c, 0, 64, 48
1, 110803, Note_on_c, 0, 49, 63
1, 110803, Control_c, 0, 64, 0
1, 110866, Note_on_c, 0, 58, 53
1, 110880, Note_on_c, 0, 63, 52
1, 110919, Note_off_c, 0, 63, 50
1, 110931, Note_off_c, 0, 58, 57
1, 110937, Note_on_c, 0, 67, 52
1, 110952, Control_c, 0, 64, 44
1, 110954, Note_on_c, 0, 55, 47
1, 110967, Control_c, 0, 64, 58
1, 110981, Control_c, 0, 64, 63
1, 110996, Control_c, 0, 64, 64
1, 111004, Note_off_c, 0, 55, 63
1, 111011, Control_c, 0, 64, 65
1, 111013, Note_off_c, 0, 67, 49
1, 111019, Note_on_c, 0, 63, 51
1, 111024, Note_on_c, 0, 58, 47
1, 111026, Control_c, 0, 64, 66
1, 111041, Control_c, 0, 64, 68
1, 111056, Control_c, 0, 64, 70
1, 111068, Note_off_c, 0, 63, 58
1, 111071, Control_c, 0, 64, 73
1, 111086, Control_c, 0, 64, 76
1, 111087, Note_on_c, 0, 75, 71
1, 111092, Note_off_c, 0, 58, 60
1, 111100, Control_c, 0, 64, 78
1, 111110, Note_on_c, 0, 55, 55
1, 111115, Control_c, 0, 64, 79
1, 111130, Control_c, 0, 64, 80
1, 111145, Control_c, 0, 64, 81
1, 111145, Note_off_c, 0, 55, 65
1, 111160, Control_c, 0, 64, 82
1, 111163, Note_on_c, 0, 63, 49
1, 111174, Note_on_c, 0, 58, 46
1, 111174, Control_c, 0, 64, 82
1, 111189, Control_c, 0, 64, 83
1, 111204, Note_off_c, 0, 63, 47
1, 111204, Control_c, 0, 64, 83
1, 111219, Note_off_c, 0, 58, 59
1, 111220, Note_on_c, 0, 67, 56
1, 111242, Note_on_c, 0, 55, 46
1, 111264, Note_off_c, 0, 67, 56
1, 111273, Note_off_c, 0, 55, 56
1, 111278, Control_c, 0, 64, 84
1, 111293, Note_on_c, 0, 58, 50
1, 111305, Note_on_c, 0, 63, 37
1, 111332, Note_off_c, 0, 58, 60
1, 111339, Note_off_c, 0, 63, 51
1, 111347, Note_on_c, 0, 67, 47
1, 111376, Note_on_c, 0, 55, 33
1, 111396, Note_off_c, 0, 67, 58
1, 111410, Note_off_c, 0, 55, 58
1, 111426, Note_on_c, 0, 58, 56
1, 111428, Note_on_c, 0, 63, 45
1, 111452, Note_off_c, 0, 58, 58
1, 111470, Note_off_c, 0, 63, 46
1, 111473, Note_off_c, 0, 75, 14
1, 111482, Note_on_c, 0, 67, 50
1, 111484, Note_off_c, 0, 49, 35
1, 111515, Note_on_c, 0, 55, 27
1, 111539, Note_on_c, 0, 58, 52
1, 111540, Note_off_c, 0, 67, 48
1, 111550, Note_off_c, 0, 55, 53
1, 111562, Note_on_c, 0, 63, 43
1, 111574, Note_off_c, 0, 58, 60
1, 111611, Note_on_c, 0, 49, 59
1, 111613, Note_off_c, 0, 63, 44
1, 111619, Note_on_c, 0, 75, 64
1, 111655, Control_c, 0, 64, 83
1, 111670, Control_c, 0, 64, 83
1, 111682, Note_off_c, 0, 49, 53
1, 111685, Control_c, 0, 64, 82
1, 111691, Note_on_c, 0, 58, 38
1, 111691, Note_on_c, 0, 63, 37
1, 111700, Control_c, 0, 64, 82
1, 111711, Note_off_c, 0, 75, 57
1, 111722, Note_off_c, 0, 63, 54
1, 111726, Note_off_c, 0, 58, 55
1, 111730, Control_c, 0, 64, 81
1, 111746, Note_on_c, 0, 67, 50
1, 111761, Note_on_c, 0, 55, 19
1, 111782, Note_off_c, 0, 67, 63
1, 111803, Note_off_c, 0, 55, 53
1, 111804, Control_c, 0, 64, 79
1, 111808, Note_on_c, 0, 63, 57
1, 111819, Control_c, 0, 64, 74
1, 111834, Control_c, 0, 64, 65
1, 111842, Note_off_c, 0, 63, 54
1, 111849, Control_c, 0, 64, 35
1, 111864, Control_c, 0, 64, 0
1, 111868, Note_on_c, 0, 48, 77
1, 111875, Note_on_c, 0, 75, 73
1, 111912, Note_off_c, 0, 48, 58
1, 111920, Note_off_c, 0, 75, 53
1, 111923, Note_on_c, 0, 56, 61
1, 111923, Control_c, 0, 67, 104
1, 111928, Note_on_c, 0, 63, 61
1, 111938, Control_c, 0, 67, 57
1, 111953, Control_c, 0, 67, 0
1, 111955, Note_off_c, 0, 56, 64
1, 111955, Note_off_c, 0, 63, 57
1, 111991, Note_on_c, 0, 51, 49
1, 112009, Note_on_c, 0, 68, 43
1, 112018, Note_off_c, 0, 51, 59
1, 112042, Note_off_c, 0, 68, 53
1, 112045, Note_on_c, 0, 63, 54
1, 112071, Note_on_c, 0, 56, 29
1, 112083, Note_off_c, 0, 63, 62
1, 112102, Note_off_c, 0, 56, 48
1, 112129, Note_on_c, 0, 46, 76
1, 112129, Note_on_c, 0, 76, 80
1, 112182, Note_off_c, 0, 46, 55
1, 112192, Note_off_c, 0, 76, 63
1, 112197, Note_on_c, 0, 55, 63
1, 112206, Note_on_c, 0, 64, 54
1, 112237, Note_off_c, 0, 55, 61
1, 112242, Note_off_c, 0, 64, 64
1, 112265, Note_on_c, 0, 72, 52
1, 112266, Note_on_c, 0, 48, 61
1, 112299, Note_off_c, 0, 72, 66
1, 112299, Note_off_c, 0, 48, 64
1, 112329, Note_on_c, 0, 64, 59
1, 112368, Note_off_c, 0, 64, 63
1, 112388, Note_on_c, 0, 44, 77
1, 112393, Note_on_c, 0, 77, 84
1, 112437, Note_on_c, 0, 56, 73
1, 112446, Note_off_c, 0, 77, 61
1, 112448, Note_off_c, 0, 44, 62
1, 112498, Note_off_c, 0, 56, 60
1, 112522, Note_on_c, 0, 72, 59
1, 112524, Note_on_c, 0, 48, 67
1, 112561, Note_off_c, 0, 48, 64
1, 112563, Note_off_c, 0, 72, 59
1, 112584, Note_on_c, 0, 65, 60
1, 112588, Note_on_c, 0, 56, 58
1, 112616, Note_off_c, 0, 65, 60
1, 112621, Note_off_c, 0, 56, 64
1, 112643, Note_on_c, 0, 79, 82
1, 112647, Note_on_c, 0, 43, 88
1, 112701, Note_on_c, 0, 67, 70
1, 112707, Note_off_c, 0, 43, 62
1, 112710, Note_on_c, 0, 55, 66
1, 112717, Note_off_c, 0, 79, 57
1, 112746, Note_off_c, 0, 67, 57
1, 112755, Note_off_c, 0, 55, 61
1, 112770, Note_on_c, 0, 48, 70
1, 112779, Note_on_c, 0, 72, 53
1, 112808, Note_off_c, 0, 48, 64
1, 112818, Note_on_c, 0, 67, 60
1, 112839, Note_on_c, 0, 55, 67
1, 112843, Note_off_c, 0, 72, 60
1, 112868, Note_off_c, 0, 55, 64
1, 112874, Note_off_c, 0, 67, 62
1, 112905, Note_on_c, 0, 41, 89
1, 112907, Note_on_c, 0, 80, 95
1, 112972, Note_off_c, 0, 41, 63
1, 112972, Note_on_c, 0, 53, 67
1, 112989, Note_on_c, 0, 68, 71
1, 113005, Note_off_c, 0, 53, 65
1, 113011, Note_off_c, 0, 80, 58
1, 113018, Note_off_c, 0, 68, 58
1, 113047, Note_on_c, 0, 48, 57
1, 113070, Note_on_c, 0, 72, 63
1, 113082, Note_on_c, 0, 53, 77
1, 113091, Note_off_c, 0, 48, 59
1, 113098, Note_off_c, 0, 72, 64
1, 113105, Note_on_c, 0, 68, 77
1, 113116, Note_off_c, 0, 53, 62
1, 113138, Note_off_c, 0, 68, 63
1, 113166, Note_on_c, 0, 39, 90
1, 113175, Note_on_c, 0, 81, 93
1, 113229, Note_on_c, 0, 51, 77
1, 113241, Note_on_c, 0, 69, 44
1, 113244, Note_off_c, 0, 39, 61
1, 113271, Note_off_c, 0, 51, 58
1, 113278, Note_off_c, 0, 81, 53
1, 113281, Note_off_c, 0, 69, 57
1, 113283, Note_on_c, 0, 72, 76
1, 113288, Note_on_c, 0, 48, 47
1, 113327, Note_off_c, 0, 72, 59
1, 113339, Note_off_c, 0, 48, 62
1, 113348, Note_on_c, 0, 51, 72
1, 113354, Note_on_c, 0, 69, 71
1, 113383, Note_off_c, 0, 51, 60
1, 113393, Note_off_c, 0, 69, 61
1, 113425, Note_on_c, 0, 82, 92
1, 113426, Note_on_c, 0, 38, 92
1, 113479, Note_on_c, 0, 50, 67
1, 113479, Note_on_c, 0, 70, 75
1, 113481, Note_off_c, 0, 38, 63
1, 113493, Note_off_c, 0, 82, 61
1, 113526, Note_off_c, 0, 70, 58
1, 113536, Note_off_c, 0, 50, 63
1, 113539, Note_on_c, 0, 77, 67
1, 113542, Note_on_c, 0, 41, 73
1, 113584, Note_off_c, 0, 41, 65
1, 113598, Note_on_c, 0, 70, 79
1, 113603, Note_on_c, 0, 50, 71
1, 113603, Note_off_c, 0, 77, 60
1, 113617, Note_off_c, 0, 70, 73
1, 113646, Note_off_c, 0, 50, 63
1, 113681, Note_on_c, 0, 84, 100
1, 113682, Note_on_c, 0, 36, 94
1, 113741, Note_on_c, 0, 48, 83
1, 113748, Note_off_c, 0, 36, 61
1, 113750, Note_on_c, 0, 72, 71
1, 113762, Note_off_c, 0, 84, 60
1, 113792, Note_off_c, 0, 48, 62
1, 113793, Note_on_c, 0, 41, 69
1, 113798, Note_on_c, 0, 77, 72
1, 113802, Note_off_c, 0, 72, 65
1, 113834, Note_off_c, 0, 41, 66
1, 113852, Note_on_c, 0, 48, 76
1, 113866, Note_off_c, 0, 77, 45
1, 113871, Note_on_c, 0, 72, 74
1, 113891, Note_off_c, 0, 48, 60
1, 113917, Note_off_c, 0, 72, 64
1, 113935, Note_on_c, 0, 85, 95
1, 113936, Note_on_c, 0, 34, 93
1, 114001, Note_on_c, 0, 46, 80
1, 114005, Control_c, 0, 64, 14
1, 114009, Note_on_c, 0, 73, 75
1, 114013, Note_off_c, 0, 34, 63
1, 114016, Note_off_c, 0, 85, 62
1, 114020, Control_c, 0, 64, 20
1, 114035, Control_c, 0, 64, 22
1, 114049, Note_off_c, 0, 46, 60
1, 114049, Control_c, 0, 64, 23
1, 114052, Note_off_c, 0, 73, 60
1, 114062, Note_on_c, 0, 41, 71
1, 114064, Control_c, 0, 64, 24
1, 114067, Note_on_c, 0, 77, 56
1, 114079, Control_c, 0, 64, 28
1, 114093, Control_c, 0, 64, 33
1, 114109, Control_c, 0, 64, 36
1, 114114, Note_on_c, 0, 46, 77
1, 114114, Note_on_c, 0, 73, 77
1, 114117, Note_off_c, 0, 77, 58
1, 114118, Note_off_c, 0, 41, 62
1, 114124, Control_c, 0, 64, 38
1, 114139, Control_c, 0, 64, 38
1, 114154, Control_c, 0, 64, 38
1, 114162, Note_off_c, 0, 46, 63
1, 114174, Note_off_c, 0, 73, 64
1, 114183, Control_c, 0, 64, 37
1, 114193, Note_on_c, 0, 86, 103
1, 114198, Note_on_c, 0, 32, 88
1, 114198, Control_c, 0, 64, 36
1, 114213, Control_c, 0, 64, 35
1, 114217, Note_on_c, 0, 34, 53
1, 114228, Control_c, 0, 64, 34
1, 114243, Control_c, 0, 64, 33
1, 114245, Note_on_c, 0, 44, 78
1, 114248, Note_off_c, 0, 34, 37
1, 114258, Control_c, 0, 64, 32
1, 114261, Note_off_c, 0, 32, 64
1, 114263, Note_on_c, 0, 74, 72
1, 114272, Control_c, 0, 64, 32
1, 114276, Note_off_c, 0, 86, 59
1, 114287, Control_c, 0, 64, 31
1, 114306, Note_off_c, 0, 44, 64
1, 114308, Note_on_c, 0, 41, 77
1, 114312, Note_off_c, 0, 74, 65
1, 114317, Note_on_c, 0, 77, 72
1, 114332, Control_c, 0, 64, 32
1, 114343, Note_off_c, 0, 77, 64
1, 114347, Control_c, 0, 64, 34
1, 114362, Control_c, 0, 64, 35
1, 114368, Note_on_c, 0, 44, 67
1, 114369, Note_off_c, 0, 41, 65
1, 114377, Control_c, 0, 64, 37
1, 114384, Note_on_c, 0, 74, 68
1, 114399, Control_c, 0, 64, 37
1, 114415, Note_off_c, 0, 44, 64
1, 114420, Note_off_c, 0, 74, 68
1, 114444, Control_c, 0, 64, 38
1, 114449, Note_on_c, 0, 87, 99
1, 114451, Note_on_c, 0, 31, 91
1, 114459, Control_c, 0, 64, 39
1, 114473, Control_c, 0, 64, 40
1, 114477, Note_on_c, 0, 32, 40
1, 114506, Note_on_c, 0, 43, 77
1, 114507, Note_on_c, 0, 75, 80
1, 114508, Note_off_c, 0, 31, 62
1, 114513, Note_off_c, 0, 32, 54
1, 114514, Note_off_c, 0, 87, 62
1, 114517, Control_c, 0, 64, 40
1, 114543, Note_off_c, 0, 43, 61
1, 114545, Note_off_c, 0, 75, 60
1, 114547, Control_c, 0, 64, 39
1, 114558, Note_on_c, 0, 39, 73
1, 114567, Note_on_c, 0, 82, 75
1, 114577, Control_c, 0, 64, 40
1, 114591, Control_c, 0, 64, 41
1, 114606, Control_c, 0, 64, 42
1, 114616, Note_off_c, 0, 39, 61
1, 114618, Note_off_c, 0, 82, 59
1, 114620, Note_on_c, 0, 75, 82
1, 114621, Note_on_c, 0, 43, 76
1, 114621, Control_c, 0, 64, 44
1, 114636, Control_c, 0, 64, 45
1, 114650, Note_off_c, 0, 43, 64
1, 114651, Control_c, 0, 64, 47
1, 114665, Note_off_c, 0, 75, 66
1, 114666, Control_c, 0, 64, 48
1, 114680, Control_c, 0, 64, 49
1, 114681, Note_on_c, 0, 31, 86
1, 114688, Note_on_c, 0, 88, 103
1, 114695, Control_c, 0, 64, 49
1, 114710, Note_on_c, 0, 43, 87
1, 114710, Control_c, 0, 64, 50
1, 114718, Note_on_c, 0, 87, 50
1, 114731, Note_off_c, 0, 31, 63
1, 114740, Control_c, 0, 64, 50
1, 114744, Note_off_c, 0, 87, 37
1, 114750, Note_on_c, 0, 76, 75
1, 114776, Note_on_c, 0, 39, 68
1, 114780, Note_off_c, 0, 43, 62
1, 114782, Note_off_c, 0, 88, 52
1, 114799, Control_c, 0, 64, 50
1, 114806, Note_off_c, 0, 39, 64
1, 114813, Note_off_c, 0, 76, 63
1, 114814, Control_c, 0, 64, 51
1, 114818, Note_on_c, 0, 82, 75
1, 114829, Control_c, 0, 64, 53
1, 114843, Control_c, 0, 64, 55
1, 114858, Control_c, 0, 64, 57
1, 114860, Note_off_c, 0, 82, 62
1, 114873, Control_c, 0, 64, 59
1, 114874, Note_on_c, 0, 76, 71
1, 114888, Control_c, 0, 64, 60
1, 114903, Control_c, 0, 64, 61
1, 114920, Note_off_c, 0, 76, 65
1, 114933, Control_c, 0, 64, 60
1, 114948, Control_c, 0, 64, 56
1, 114949, Note_on_c, 0, 44, 97
1, 114950, Note_on_c, 0, 32, 97
1, 114963, Control_c, 0, 64, 38
1, 114978, Control_c, 0, 64, 0
1, 115011, Note_on_c, 0, 87, 32
1, 115017, Note_off_c, 0, 32, 59
1, 115034, Note_off_c, 0, 44, 63
1, 115047, Note_on_c, 0, 80, 80
1, 115061, Note_off_c, 0, 87, 44
1, 115106, Note_off_c, 0, 80, 64
1, 115108, Note_on_c, 0, 84, 78
1, 115171, Note_on_c, 0, 80, 83
1, 115177, Note_off_c, 0, 84, 64
1, 115220, Note_on_c, 0, 89, 84
1, 115229, Note_off_c, 0, 80, 63
1, 115294, Note_on_c, 0, 80, 76
1, 115322, Note_off_c, 0, 89, 57
1, 115326, Control_c, 0, 64, 29
1, 115340, Control_c, 0, 64, 43
1, 115354, Note_on_c, 0, 84, 77
1, 115355, Control_c, 0, 64, 51
1, 115359, Note_off_c, 0, 80, 65
1, 115370, Control_c, 0, 64, 56
1, 115385, Control_c, 0, 64, 58
1, 115400, Control_c, 0, 64, 60
1, 115407, Note_off_c, 0, 84, 64
1, 115414, Control_c, 0, 64, 61
1, 115416, Note_on_c, 0, 80, 76
1, 115429, Control_c, 0, 64, 63
1, 115444, Control_c, 0, 64, 64
1, 115457, Note_off_c, 0, 80, 62
1, 115459, Control_c, 0, 64, 64
1, 115467, Note_on_c, 0, 46, 98
1, 115468, Note_on_c, 0, 34, 92
1, 115503, Control_c, 0, 64, 64
1, 115518, Control_c, 0, 64, 62
1, 115533, Control_c, 0, 64, 60
1, 115534, Note_off_c, 0, 34, 54
1, 115548, Control_c, 0, 64, 56
1, 115563, Note_on_c, 0, 77, 84
1, 115563, Control_c, 0, 64, 49
1, 115564, Note_off_c, 0, 46, 59
1, 115578, Control_c, 0, 64, 37
1, 115593, Control_c, 0, 64, 8
1, 115608, Control_c, 0, 64, 0
1, 115614, Note_off_c, 0, 77, 62
1, 115620, Note_on_c, 0, 80, 73
1, 115661, Note_off_c, 0, 80, 63
1, 115673, Note_on_c, 0, 77, 80
1, 115730, Note_on_c, 0, 86, 85
1, 115742, Note_off_c, 0, 77, 62
1, 115757, Control_c, 0, 64, 30
1, 115771, Control_c, 0, 64, 48
1, 115786, Control_c, 0, 64, 53
1, 115801, Control_c, 0, 64, 54
1, 115802, Note_off_c, 0, 86, 61
1, 115807, Note_on_c, 0, 77, 58
1, 115816, Control_c, 0, 64, 56
1, 115831, Control_c, 0, 64, 58
1, 115845, Control_c, 0, 64, 61
1, 115859, Note_on_c, 0, 80, 67
1, 115860, Control_c, 0, 64, 63
1, 115874, Control_c, 0, 64, 65
1, 115875, Note_off_c, 0, 77, 61
1, 115896, Control_c, 0, 64, 66
1, 115911, Control_c, 0, 64, 69
1, 115915, Note_off_c, 0, 80, 63
1, 115926, Control_c, 0, 64, 69
1, 115927, Note_on_c, 0, 77, 64
1, 115941, Control_c, 0, 64, 69
1, 115956, Control_c, 0, 64, 65
1, 115970, Control_c, 0, 64, 59
1, 115982, Note_on_c, 0, 79, 64
1, 115984, Note_on_c, 0, 39, 58
1, 115985, Control_c, 0, 64, 24
1, 115986, Note_off_c, 0, 77, 62
1, 115992, Note_on_c, 0, 51, 54
1, 116000, Control_c, 0, 64, 0
1, 116011, Note_off_c, 0, 39, 36
1, 116016, Note_off_c, 0, 51, 58
1, 116019, Note_off_c, 0, 79, 63
1, 116074, Control_c, 0, 67, 19
1, 116088, Control_c, 0, 67, 34
1, 116103, Control_c, 0, 67, 49
1, 116118, Control_c, 0, 67, 67
1, 116120, Note_on_c, 0, 87, 83
1, 116129, Note_on_c, 0, 63, 65
1, 116133, Control_c, 0, 67, 88
1, 116143, Note_on_c, 0, 67, 52
1, 116148, Control_c, 0, 67, 101
1, 116154, Note_off_c, 0, 63, 63
1, 116159, Note_on_c, 0, 88, 57
1, 116162, Control_c, 0, 67, 109
1, 116167, Note_off_c, 0, 67, 58
1, 116177, Control_c, 0, 64, 37
1, 116177, Control_c, 0, 67, 112
1, 116192, Control_c, 0, 64, 57
1, 116192, Control_c, 0, 67, 113
1, 116207, Control_c, 0, 64, 59
1, 116222, Control_c, 0, 64, 60
1, 116237, Control_c, 0, 64, 63
1, 116251, Control_c, 0, 64, 67
1, 116252, Note_on_c, 0, 67, 50
1, 116253, Note_on_c, 0, 63, 63
1, 116266, Control_c, 0, 64, 74
1, 116278, Note_off_c, 0, 67, 59
1, 116281, Note_off_c, 0, 63, 65
1, 116281, Note_off_c, 0, 87, 57
1, 116281, Control_c, 0, 64, 83
1, 116296, Control_c, 0, 64, 84
1, 116319, Note_off_c, 0, 88, 37
1, 116365, Note_on_c, 0, 67, 57
1, 116369, Note_on_c, 0, 63, 62
1, 116385, Control_c, 0, 67, 113
1, 116390, Note_on_c, 0, 86, 58
1, 116393, Note_off_c, 0, 63, 63
1, 116396, Note_off_c, 0, 67, 63
1, 116400, Control_c, 0, 67, 114
1, 116414, Control_c, 0, 64, 83
1, 116414, Control_c, 0, 67, 116
1, 116429, Control_c, 0, 64, 79
1, 116429, Control_c, 0, 67, 120
1, 116442, Note_on_c, 0, 87, 71
1, 116444, Control_c, 0, 64, 74
1, 116444, Control_c, 0, 67, 123
1, 116457, Note_off_c, 0, 86, 54
1, 116459, Control_c, 0, 64, 67
1, 116459, Control_c, 0, 67, 126
1, 116474, Control_c, 0, 64, 55
1, 116474, Control_c, 0, 67, 127
1, 116488, Control_c, 0, 64, 19
1, 116502, Note_on_c, 0, 89, 73
1, 116503, Control_c, 0, 64, 0
1, 116505, Note_off_c, 0, 87, 64
1, 116514, Note_on_c, 0, 60, 53
1, 116573, Note_on_c, 0, 87, 63
1, 116588, Note_off_c, 0, 89, 62
1, 116615, Note_off_c, 0, 87, 58
1, 116641, Note_on_c, 0, 86, 75
1, 116652, Note_on_c, 0, 63, 55
1, 116670, Note_on_c, 0, 67, 29
1, 116679, Note_off_c, 0, 63, 56
1, 116681, Note_off_c, 0, 86, 60
1, 116705, Note_on_c, 0, 84, 72
1, 116708, Note_off_c, 0, 67, 47
1, 116747, Note_off_c, 0, 84, 60
1, 116761, Note_on_c, 0, 83, 74
1, 116767, Note_on_c, 0, 63, 58
1, 116802, Note_off_c, 0, 63, 64
1, 116808, Control_c, 0, 64, 33
1, 116823, Control_c, 0, 64, 36
1, 116827, Note_off_c, 0, 83, 60
1, 116830, Note_on_c, 0, 84, 66
1, 116838, Control_c, 0, 64, 38
1, 116853, Control_c, 0, 64, 42
1, 116867, Control_c, 0, 64, 48
1, 116879, Note_off_c, 0, 84, 64
1, 116881, Note_off_c, 0, 60, 62
1, 116882, Control_c, 0, 64, 51
1, 116887, Note_on_c, 0, 86, 77
1, 116892, Note_on_c, 0, 63, 54
1, 116897, Control_c, 0, 64, 52
1, 116915, Note_off_c, 0, 63, 59
1, 116926, Control_c, 0, 64, 51
1, 116956, Control_c, 0, 64, 50
1, 116964, Note_on_c, 0, 84, 63
1, 116971, Control_c, 0, 64, 48
1, 116985, Control_c, 0, 64, 46
1, 116998, Note_off_c, 0, 86, 54
1, 117000, Note_on_c, 0, 82, 77
1, 117000, Control_c, 0, 64, 45
1, 117015, Control_c, 0, 64, 44
1, 117029, Control_c, 0, 64, 42
1, 117030, Note_on_c, 0, 56, 52
1, 117041, Note_off_c, 0, 84, 61
1, 117044, Control_c, 0, 64, 39
1, 117059, Control_c, 0, 64, 30
1, 117074, Control_c, 0, 64, 0
1, 117101, Note_on_c, 0, 81, 48
1, 117101, Note_off_c, 0, 82, 60
1, 117126, Note_off_c, 0, 81, 55
1, 117134, Note_on_c, 0, 79, 73
1, 117135, Note_on_c, 0, 63, 61
1, 117148, Note_on_c, 0, 65, 49
1, 117174, Note_off_c, 0, 65, 60
1, 117190, Note_on_c, 0, 77, 76
1, 117193, Note_off_c, 0, 79, 40
1, 117193, Note_off_c, 0, 63, 63
1, 117241, Note_off_c, 0, 77, 62
1, 117247, Note_on_c, 0, 76, 80
1, 117261, Note_on_c, 0, 63, 60
1, 117266, Note_on_c, 0, 65, 51
1, 117295, Note_off_c, 0, 63, 63
1, 117296, Note_off_c, 0, 65, 62
1, 117324, Note_on_c, 0, 77, 69
1, 117363, Note_off_c, 0, 76, 40
1, 117367, Note_off_c, 0, 77, 63
1, 117390, Note_on_c, 0, 65, 58
1, 117391, Note_on_c, 0, 79, 62
1, 117401, Note_on_c, 0, 63, 53
1, 117415, Note_off_c, 0, 65, 62
1, 117428, Note_off_c, 0, 63, 54
1, 117437, Note_on_c, 0, 77, 59
1, 117450, Note_off_c, 0, 56, 62
1, 117491, Note_off_c, 0, 79, 53
1, 117497, Note_on_c, 0, 75, 70
1, 117520, Note_on_c, 0, 58, 79
1, 117525, Note_off_c, 0, 77, 59
1, 117551, Note_on_c, 0, 74, 70
1, 117585, Note_off_c, 0, 75, 64
1, 117606, Note_off_c, 0, 74, 62
1, 117621, Note_on_c, 0, 72, 77
1, 117653, Note_on_c, 0, 62, 61
1, 117655, Note_on_c, 0, 65, 55
1, 117679, Note_off_c, 0, 72, 61
1, 117685, Note_off_c, 0, 65, 65
1, 117686, Note_on_c, 0, 70, 74
1, 117703, Note_off_c, 0, 62, 60
1, 117739, Note_off_c, 0, 70, 63
1, 117751, Note_on_c, 0, 69, 68
1, 117772, Note_on_c, 0, 65, 60
1, 117778, Note_on_c, 0, 62, 53
1, 117805, Note_off_c, 0, 65, 62
1, 117808, Note_off_c, 0, 69, 65
1, 117810, Note_on_c, 0, 70, 69
1, 117810, Note_off_c, 0, 62, 63
1, 117867, Control_c, 0, 67, 111
1, 117873, Note_on_c, 0, 72, 68
1, 117882, Control_c, 0, 67, 88
1, 117887, Note_on_c, 0, 62, 45
1, 117887, Note_off_c, 0, 58, 63
1, 117897, Control_c, 0, 67, 59
1, 117912, Control_c, 0, 67, 28
1, 117916, Note_off_c, 0, 62, 54
1, 117927, Control_c, 0, 67, 0
1, 117932, Note_on_c, 0, 68, 70
1, 117943, Note_off_c, 0, 72, 64
1, 117946, Note_off_c, 0, 70, 55
1, 117993, Note_off_c, 0, 68, 65
1, 118012, Note_on_c, 0, 51, 63
1, 118013, Note_on_c, 0, 67, 61
1, 118034, Note_off_c, 0, 67, 63
1, 118171, Note_on_c, 0, 55, 49
1, 118177, Note_on_c, 0, 87, 89
1, 118177, Note_on_c, 0, 63, 59
1, 118188, Control_c, 0, 64, 62
1, 118197, Note_on_c, 0, 75, 62
1, 118201, Note_on_c, 0, 88, 72
1, 118203, Control_c, 0, 64, 80
1, 118212, Note_off_c, 0, 63, 63
1, 118218, Control_c, 0, 64, 127
1, 118239, Note_off_c, 0, 55, 61
1, 118246, Note_off_c, 0, 75, 63
1, 118289, Note_off_c, 0, 88, 58
1, 118296, Note_on_c, 0, 63, 79
1, 118304, Note_on_c, 0, 55, 61
1, 118323, Note_off_c, 0, 63, 64
1, 118340, Note_off_c, 0, 55, 65
1, 118343, Note_off_c, 0, 51, 61
1, 118360, Note_off_c, 0, 87, 60
1, 118419, Note_on_c, 0, 55, 68
1, 118419, Note_on_c, 0, 63, 56
1, 118424, Note_on_c, 0, 86, 75
1, 118442, Note_off_c, 0, 63, 60
1, 118445, Note_off_c, 0, 55, 67
1, 118481, Note_on_c, 0, 87, 86
1, 118484, Control_c, 0, 64, 106
1, 118499, Control_c, 0, 64, 78
1, 118514, Control_c, 0, 64, 63
1, 118517, Note_off_c, 0, 86, 63
1, 118529, Control_c, 0, 64, 0
1, 118537, Note_on_c, 0, 89, 86
1, 118540, Note_on_c, 0, 48, 82
1, 118550, Note_off_c, 0, 87, 66
1, 118622, Note_on_c, 0, 86, 80
1, 118647, Note_off_c, 0, 89, 62
1, 118650, Note_on_c, 0, 60, 72
1, 118660, Note_on_c, 0, 51, 63
1, 118664, Note_on_c, 0, 55, 56
1, 118679, Note_off_c, 0, 60, 63
1, 118695, Note_off_c, 0, 55, 65
1, 118699, Note_off_c, 0, 51, 59
1, 118708, Note_off_c, 0, 86, 65
1, 118737, Note_on_c, 0, 84, 86
1, 118773, Note_on_c, 0, 60, 65
1, 118774, Note_on_c, 0, 55, 63
1, 118778, Note_on_c, 0, 51, 55
1, 118788, Note_off_c, 0, 84, 66
1, 118789, Note_on_c, 0, 83, 85
1, 118800, Note_off_c, 0, 60, 66
1, 118802, Note_off_c, 0, 55, 67
1, 118813, Note_off_c, 0, 51, 64
1, 118854, Control_c, 0, 64, 31
1, 118857, Note_on_c, 0, 84, 78
1, 118869, Control_c, 0, 64, 36
1, 118876, Note_on_c, 0, 60, 67
1, 118891, Note_on_c, 0, 55, 54
1, 118898, Note_on_c, 0, 51, 67
1, 118901, Note_off_c, 0, 48, 59
1, 118906, Control_c, 0, 64, 42
1, 118909, Note_off_c, 0, 60, 66
1, 118910, Note_off_c, 0, 84, 66
1, 118916, Note_off_c, 0, 55, 60
1, 118920, Note_off_c, 0, 83, 59
1, 118922, Control_c, 0, 64, 50
1, 118924, Note_on_c, 0, 86, 83
1, 118927, Note_off_c, 0, 51, 65
1, 118937, Control_c, 0, 64, 54
1, 118967, Control_c, 0, 64, 52
1, 118982, Control_c, 0, 64, 39
1, 118985, Note_on_c, 0, 84, 64
1, 118996, Control_c, 0, 64, 0
1, 119012, Note_on_c, 0, 44, 85
1, 119030, Note_on_c, 0, 82, 84
1, 119031, Note_off_c, 0, 86, 54
1, 119069, Note_off_c, 0, 84, 64
1, 119093, Note_on_c, 0, 80, 85
1, 119122, Note_off_c, 0, 82, 61
1, 119128, Note_on_c, 0, 56, 69
1, 119131, Poly_aftertouch_c, 0, 43, 0
1, 119140, Note_on_c, 0, 48, 61
1, 119140, Note_on_c, 0, 51, 62
1, 119151, Note_off_c, 0, 80, 63
1, 119155, Note_on_c, 0, 79, 79
1, 119165, Note_off_c, 0, 56, 56
1, 119184, Note_off_c, 0, 51, 60
1, 119197, Note_off_c, 0, 79, 58
1, 119203, Note_off_c, 0, 48, 61
1, 119212, Note_on_c, 0, 77, 74
1, 119247, Control_c, 0, 64, 41
1, 119256, Note_on_c, 0, 56, 70
1, 119259, Note_on_c, 0, 76, 83
1, 119262, Control_c, 0, 64, 34
1, 119264, Note_off_c, 0, 77, 62
1, 119265, Note_on_c, 0, 48, 54
1, 119267, Note_on_c, 0, 51, 59
1, 119277, Control_c, 0, 64, 24
1, 119286, Note_off_c, 0, 56, 62
1, 119292, Control_c, 0, 64, 34
1, 119298, Note_off_c, 0, 51, 63
1, 119307, Control_c, 0, 64, 47
1, 119309, Note_off_c, 0, 48, 60
1, 119322, Note_on_c, 0, 77, 79
1, 119322, Control_c, 0, 64, 55
1, 119337, Control_c, 0, 64, 56
1, 119363, Note_on_c, 0, 48, 63
1, 119375, Note_on_c, 0, 51, 60
1, 119375, Note_on_c, 0, 56, 58
1, 119381, Control_c, 0, 64, 57
1, 119381, Note_off_c, 0, 76, 61
1, 119382, Note_off_c, 0, 77, 63
1, 119384, Note_on_c, 0, 79, 78
1, 119387, Note_off_c, 0, 44, 63
1, 119396, Control_c, 0, 64, 57
1, 119399, Note_off_c, 0, 48, 63
1, 119405, Note_off_c, 0, 51, 63
1, 119408, Note_off_c, 0, 56, 64
1, 119411, Control_c, 0, 64, 57
1, 119426, Control_c, 0, 64, 53
1, 119440, Control_c, 0, 64, 12
1, 119441, Note_on_c, 0, 77, 58
1, 119455, Control_c, 0, 64, 0
1, 119495, Note_on_c, 0, 75, 80
1, 119499, Note_on_c, 0, 46, 90
1, 119505, Note_off_c, 0, 79, 56
1, 119529, Note_off_c, 0, 77, 60
1, 119554, Note_on_c, 0, 74, 81
1, 119587, Note_off_c, 0, 75, 63
1, 119600, Note_on_c, 0, 50, 62
1, 119611, Note_on_c, 0, 53, 61
1, 119612, Note_on_c, 0, 58, 68
1, 119620, Note_on_c, 0, 72, 80
1, 119623, Note_off_c, 0, 74, 62
1, 119652, Note_off_c, 0, 58, 62
1, 119668, Note_off_c, 0, 53, 61
1, 119693, Note_on_c, 0, 70, 80
1, 119701, Note_off_c, 0, 72, 63
1, 119717, Note_off_c, 0, 50, 0
1, 119730, Note_on_c, 0, 53, 49
1, 119730, Note_on_c, 0, 58, 68
1, 119732, Note_on_c, 0, 50, 27
1, 119749, Note_on_c, 0, 69, 83
1, 119755, Note_off_c, 0, 70, 64
1, 119760, Control_c, 0, 64, 38
1, 119763, Note_off_c, 0, 58, 62
1, 119774, Note_off_c, 0, 53, 66
1, 119775, Control_c, 0, 64, 44
1, 119790, Control_c, 0, 64, 52
1, 119790, Note_off_c, 0, 50, 61
1, 119804, Control_c, 0, 64, 58
1, 119814, Note_on_c, 0, 70, 80
1, 119819, Control_c, 0, 64, 62
1, 119831, Note_off_c, 0, 69, 63
1, 119852, Note_on_c, 0, 58, 72
1, 119862, Note_on_c, 0, 50, 52
1, 119872, Note_on_c, 0, 72, 70
1, 119875, Note_off_c, 0, 58, 69
1, 119879, Note_off_c, 0, 70, 65
1, 119885, Note_off_c, 0, 46, 55
1, 119893, Control_c, 0, 64, 62
1, 119894, Note_off_c, 0, 50, 65
1, 119908, Control_c, 0, 64, 63
1, 119929, Note_on_c, 0, 70, 74
1, 119932, Note_off_c, 0, 72, 66
1, 119952, Control_c, 0, 64, 62
1, 119967, Control_c, 0, 64, 58
1, 119982, Control_c, 0, 64, 28
1, 119997, Control_c, 0, 64, 0
1, 120000, Note_on_c, 0, 75, 84
1, 120001, Note_on_c, 0, 39, 76
1, 120001, Note_off_c, 0, 70, 64
1, 120019, Note_off_c, 0, 75, 74
1, 120060, Note_off_c, 0, 39, 57
1, 120068, Note_on_c, 0, 51, 67
1, 120118, Note_off_c, 0, 51, 59
1, 120138, Note_on_c, 0, 63, 89
1, 120146, Note_on_c, 0, 39, 71
1, 120187, Note_off_c, 0, 39, 61
1, 120199, Note_on_c, 0, 51, 70
1, 120246, Note_off_c, 0, 51, 62
1, 120256, Note_on_c, 0, 39, 79
1, 120308, Note_off_c, 0, 39, 61
1, 120317, Note_on_c, 0, 51, 68
1, 120327, Note_off_c, 0, 63, 63
1, 120365, Note_off_c, 0, 51, 62
1, 120382, Note_on_c, 0, 61, 76
1, 120386, Note_on_c, 0, 67, 70
1, 120389, Note_on_c, 0, 39, 64
1, 120407, Note_off_c, 0, 61, 65
1, 120412, Note_off_c, 0, 67, 65
1, 120430, Note_off_c, 0, 39, 62
1, 120446, Note_on_c, 0, 51, 65
1, 120498, Note_off_c, 0, 51, 61
1, 120502, Note_on_c, 0, 68, 79
1, 120506, Note_on_c, 0, 39, 73
1, 120508, Note_on_c, 0, 60, 66
1, 120535, Note_off_c, 0, 60, 66
1, 120547, Note_off_c, 0, 68, 60
1, 120553, Note_off_c, 0, 39, 61
1, 120571, Note_on_c, 0, 51, 62
1, 120616, Note_off_c, 0, 51, 58
1, 120630, Note_on_c, 0, 70, 80
1, 120634, Note_on_c, 0, 67, 63
1, 120635, Note_on_c, 0, 39, 69
1, 120657, Note_off_c, 0, 67, 59
1, 120662, Note_on_c, 0, 69, 41
1, 120677, Note_off_c, 0, 39, 62
1, 120679, Note_off_c, 0, 70, 62
1, 120693, Note_off_c, 0, 69, 34
1, 120695, Note_on_c, 0, 51, 67
1, 120748, Note_off_c, 0, 51, 56
1, 120756, Note_on_c, 0, 39, 78
1, 120759, Note_on_c, 0, 68, 81
1, 120760, Note_on_c, 0, 72, 75
1, 120785, Note_off_c, 0, 68, 65
1, 120791, Note_off_c, 0, 72, 64
1, 120809, Note_off_c, 0, 39, 61
1, 120828, Note_on_c, 0, 51, 69
1, 120875, Note_on_c, 0, 39, 77
1, 120877, Note_off_c, 0, 51, 52
1, 120881, Note_on_c, 0, 74, 76
1, 120891, Note_on_c, 0, 68, 68
1, 120914, Note_off_c, 0, 68, 69
1, 120931, Note_off_c, 0, 74, 64
1, 120934, Note_off_c, 0, 39, 62
1, 120953, Note_on_c, 0, 51, 76
1, 121006, Note_on_c, 0, 39, 78
1, 121012, Note_on_c, 0, 67, 77
1, 121019, Note_off_c, 0, 51, 58
1, 121021, Note_on_c, 0, 75, 68
1, 121041, Note_off_c, 0, 67, 61
1, 121041, Note_off_c, 0, 75, 68
1, 121067, Note_off_c, 0, 39, 62
1, 121075, Note_on_c, 0, 51, 73
1, 121145, Note_on_c, 0, 39, 83
1, 121149, Note_off_c, 0, 51, 55
1, 121155, Note_on_c, 0, 75, 89
1, 121167, Control_c, 0, 64, 56
1, 121182, Control_c, 0, 64, 64
1, 121197, Control_c, 0, 64, 70
1, 121209, Note_off_c, 0, 39, 62
1, 121212, Control_c, 0, 64, 79
1, 121218, Note_on_c, 0, 51, 80
1, 121227, Control_c, 0, 64, 87
1, 121241, Control_c, 0, 64, 89
1, 121273, Note_on_c, 0, 39, 80
1, 121284, Note_off_c, 0, 51, 58
1, 121331, Control_c, 0, 64, 88
1, 121333, Note_off_c, 0, 39, 63
1, 121336, Note_off_c, 0, 75, 61
1, 121342, Note_on_c, 0, 51, 78
1, 121346, Control_c, 0, 64, 86
1, 121361, Control_c, 0, 64, 83
1, 121376, Control_c, 0, 64, 77
1, 121390, Control_c, 0, 64, 68
1, 121393, Note_on_c, 0, 79, 83
1, 121395, Note_off_c, 0, 51, 62
1, 121401, Note_on_c, 0, 39, 77
1, 121405, Control_c, 0, 64, 56
1, 121406, Note_on_c, 0, 73, 71
1, 121420, Control_c, 0, 64, 0
1, 121431, Note_off_c, 0, 73, 65
1, 121456, Note_off_c, 0, 39, 62
1, 121456, Note_off_c, 0, 79, 58
1, 121465, Note_on_c, 0, 51, 76
1, 121514, Note_on_c, 0, 80, 93
1, 121516, Note_off_c, 0, 51, 60
1, 121520, Note_on_c, 0, 72, 75
1, 121523, Note_on_c, 0, 39, 83
1, 121541, Note_off_c, 0, 72, 71
1, 121562, Note_off_c, 0, 80, 64
1, 121578, Note_off_c, 0, 39, 62
1, 121588, Note_on_c, 0, 51, 75
1, 121641, Note_on_c, 0, 79, 90
1, 121647, Note_on_c, 0, 39, 83
1, 121653, Note_off_c, 0, 51, 55
1, 121665, Note_on_c, 0, 83, 59
1, 121681, Note_off_c, 0, 79, 60
1, 121685, Note_on_c, 0, 81, 26
1, 121686, Note_off_c, 0, 81, 127
1, 121692, Note_off_c, 0, 83, 64
1, 121703, Note_off_c, 0, 39, 62
1, 121712, Note_on_c, 0, 51, 70
1, 121766, Note_on_c, 0, 39, 81
1, 121766, Note_on_c, 0, 84, 91
1, 121766, Note_off_c, 0, 51, 59
1, 121769, Note_on_c, 0, 80, 90
1, 121805, Note_off_c, 0, 80, 67
1, 121811, Note_off_c, 0, 84, 64
1, 121825, Note_off_c, 0, 39, 62
1, 121838, Note_on_c, 0, 51, 76
1, 121893, Note_on_c, 0, 86, 91
1, 121898, Note_on_c, 0, 39, 79
1, 121900, Note_on_c, 0, 80, 85
1, 121913, Note_off_c, 0, 51, 60
1, 121921, Note_off_c, 0, 80, 67
1, 121922, Note_on_c, 0, 85, 39
1, 121940, Note_off_c, 0, 86, 66
1, 121951, Note_off_c, 0, 85, 35
1, 121963, Note_off_c, 0, 39, 62
1, 121972, Note_on_c, 0, 51, 61
1, 122024, Note_on_c, 0, 39, 82
1, 122024, Note_on_c, 0, 87, 103
1, 122028, Note_on_c, 0, 79, 95
1, 122028, Note_off_c, 0, 51, 59
1, 122094, Note_off_c, 0, 39, 62
1, 122097, Note_on_c, 0, 51, 78
1, 122110, Control_c, 0, 64, 14
1, 122125, Control_c, 0, 64, 35
1, 122139, Control_c, 0, 64, 38
1, 122154, Control_c, 0, 64, 46
1, 122155, Note_on_c, 0, 39, 68
1, 122164, Note_off_c, 0, 51, 62
1, 122169, Control_c, 0, 64, 58
1, 122184, Control_c, 0, 64, 65
1, 122199, Control_c, 0, 64, 70
1, 122213, Control_c, 0, 64, 75
1, 122214, Note_off_c, 0, 39, 62
1, 122225, Note_on_c, 0, 51, 65
1, 122228, Control_c, 0, 64, 77
1, 122243, Control_c, 0, 64, 79
1, 122258, Control_c, 0, 64, 83
1, 122260, Note_off_c, 0, 79, 56
1, 122267, Note_off_c, 0, 87, 58
1, 122273, Control_c, 0, 64, 86
1, 122279, Note_on_c, 0, 39, 74
1, 122279, Note_off_c, 0, 51, 54
1, 122288, Control_c, 0, 64, 87
1, 122331, Note_off_c, 0, 39, 63
1, 122349, Note_on_c, 0, 51, 66
1, 122404, Note_on_c, 0, 39, 76
1, 122411, Note_off_c, 0, 51, 58
1, 122462, Note_on_c, 0, 51, 40
1, 122467, Note_off_c, 0, 39, 63
1, 122517, Note_off_c, 0, 51, 61
1, 122524, Control_c, 0, 64, 86
1, 122539, Control_c, 0, 64, 80
1, 122544, Note_on_c, 0, 75, 102
1, 122545, Note_on_c, 0, 38, 87
1, 122546, Note_on_c, 0, 67, 100
1, 122554, Control_c, 0, 64, 67
1, 122569, Control_c, 0, 64, 18
1, 122584, Control_c, 0, 64, 0
1, 122609, Note_on_c, 0, 50, 71
1, 122622, Note_off_c, 0, 38, 64
1, 122693, Note_on_c, 0, 38, 74
1, 122695, Control_c, 0, 64, 49
1, 122697, Note_off_c, 0, 50, 62
1, 122710, Control_c, 0, 64, 61
1, 122725, Control_c, 0, 64, 65
1, 122739, Control_c, 0, 64, 69
1, 122754, Control_c, 0, 64, 71
1, 122756, Note_on_c, 0, 50, 60
1, 122766, Note_off_c, 0, 38, 61
1, 122769, Control_c, 0, 64, 72
1, 122783, Control_c, 0, 64, 73
1, 122798, Control_c, 0, 64, 76
1, 122813, Control_c, 0, 64, 79
1, 122819, Note_off_c, 0, 50, 61
1, 122828, Control_c, 0, 64, 80
1, 122830, Note_on_c, 0, 38, 62
1, 122843, Control_c, 0, 64, 81
1, 122862, Note_off_c, 0, 67, 59
1, 122880, Note_off_c, 0, 38, 61
1, 122882, Note_on_c, 0, 50, 65
1, 122887, Control_c, 0, 64, 82
1, 122903, Control_c, 0, 64, 82
1, 122917, Note_off_c, 0, 75, 61
1, 122918, Control_c, 0, 64, 83
1, 122933, Control_c, 0, 64, 84
1, 122948, Control_c, 0, 64, 89
1, 122951, Note_off_c, 0, 50, 51
1, 122957, Note_on_c, 0, 38, 71
1, 122962, Control_c, 0, 64, 98
1, 122977, Control_c, 0, 64, 127
1, 123011, Note_on_c, 0, 50, 53
1, 123015, Note_off_c, 0, 38, 63
1, 123057, Note_off_c, 0, 50, 59
1, 123066, Control_c, 0, 64, 83
1, 123072, Note_on_c, 0, 36, 90
1, 123072, Note_on_c, 0, 87, 107
1, 123078, Note_on_c, 0, 79, 97
1, 123081, Control_c, 0, 64, 32
1, 123096, Control_c, 0, 64, 0
1, 123113, Note_on_c, 0, 88, 42
1, 123145, Note_on_c, 0, 48, 79
1, 123152, Note_off_c, 0, 36, 62
1, 123170, Control_c, 0, 64, 42
1, 123185, Control_c, 0, 64, 48
1, 123200, Control_c, 0, 64, 53
1, 123215, Note_off_c, 0, 48, 59
1, 123215, Control_c, 0, 64, 63
1, 123219, Note_on_c, 0, 36, 67
1, 123229, Control_c, 0, 64, 73
1, 123244, Control_c, 0, 64, 103
1, 123258, Note_on_c, 0, 48, 61
1, 123259, Control_c, 0, 64, 127
1, 123276, Note_off_c, 0, 36, 58
1, 123322, Note_off_c, 0, 48, 61
1, 123331, Note_on_c, 0, 36, 58
1, 123369, Note_off_c, 0, 88, 12
1, 123389, Note_off_c, 0, 36, 61
1, 123399, Note_on_c, 0, 48, 69
1, 123427, Note_off_c, 0, 87, 58
1, 123438, Note_off_c, 0, 79, 59
1, 123443, Note_off_c, 0, 48, 59
1, 123462, Note_on_c, 0, 36, 69
1, 123510, Note_on_c, 0, 48, 63
1, 123525, Note_off_c, 0, 36, 61
1, 123543, Note_off_c, 0, 48, 65
1, 123599, Note_on_c, 0, 34, 94
1, 123602, Note_on_c, 0, 75, 102
1, 123607, Note_on_c, 0, 67, 96
1, 123621, Control_c, 0, 64, 91
1, 123636, Control_c, 0, 64, 42
1, 123651, Control_c, 0, 64, 0
1, 123666, Note_on_c, 0, 46, 76
1, 123678, Note_off_c, 0, 34, 66
1, 123711, Control_c, 0, 64, 51
1, 123726, Control_c, 0, 64, 65
1, 123740, Note_on_c, 0, 34, 74
1, 123741, Control_c, 0, 64, 75
1, 123755, Note_off_c, 0, 46, 63
1, 123756, Control_c, 0, 64, 88
1, 123771, Control_c, 0, 64, 121
1, 123785, Control_c, 0, 64, 127
1, 123799, Note_on_c, 0, 46, 60
1, 123799, Note_off_c, 0, 34, 64
1, 123843, Note_off_c, 0, 67, 59
1, 123865, Note_on_c, 0, 34, 74
1, 123871, Note_off_c, 0, 46, 56
1, 123880, Note_off_c, 0, 75, 63
1, 123927, Note_off_c, 0, 34, 64
1, 123937, Note_on_c, 0, 46, 69
1, 123979, Note_off_c, 0, 46, 59
1, 123993, Note_on_c, 0, 34, 74
1, 124058, Note_off_c, 0, 34, 65
1, 124060, Note_on_c, 0, 46, 71
1, 124101, Note_off_c, 0, 46, 62
1, 124128, Note_on_c, 0, 32, 96
1, 124128, Note_on_c, 0, 84, 97
1, 124128, Note_on_c, 0, 87, 95
1, 124147, Control_c, 0, 64, 88
1, 124162, Control_c, 0, 64, 0
1, 124202, Note_on_c, 0, 44, 78
1, 124213, Note_off_c, 0, 32, 63
1, 124264, Note_on_c, 0, 32, 72
1, 124280, Control_c, 0, 64, 63
1, 124285, Note_off_c, 0, 44, 65
1, 124294, Control_c, 0, 64, 89
1, 124309, Control_c, 0, 64, 127
1, 124333, Note_on_c, 0, 44, 61
1, 124335, Note_off_c, 0, 32, 63
1, 124354, Note_off_c, 0, 84, 61
1, 124395, Note_off_c, 0, 87, 61
1, 124398, Note_on_c, 0, 32, 73
1, 124417, Note_off_c, 0, 44, 60
1, 124454, Note_off_c, 0, 32, 63
1, 124462, Note_on_c, 0, 44, 55
1, 124464, Poly_aftertouch_c, 0, 38, 127
1, 124528, Note_on_c, 0, 32, 74
1, 124545, Note_off_c, 0, 44, 0
1, 124583, Poly_aftertouch_c, 0, 44, 127
1, 124595, Note_off_c, 0, 32, 63
1, 124643, Note_on_c, 0, 72, 94
1, 124646, Note_on_c, 0, 75, 99
1, 124651, Note_on_c, 0, 31, 89
1, 124666, Control_c, 0, 64, 88
1, 124675, Poly_aftertouch_c, 0, 44, 0
1, 124681, Control_c, 0, 64, 0
1, 124714, Note_on_c, 0, 43, 84
1, 124721, Note_off_c, 0, 31, 62
1, 124755, Control_c, 0, 64, 14
1, 124770, Control_c, 0, 64, 62
1, 124777, Note_off_c, 0, 43, 57
1, 124783, Note_on_c, 0, 31, 76
1, 124785, Control_c, 0, 64, 74
1, 124799, Control_c, 0, 64, 127
1, 124835, Note_on_c, 0, 43, 68
1, 124843, Note_off_c, 0, 31, 63
1, 124862, Poly_aftertouch_c, 0, 38, 0
1, 124901, Note_off_c, 0, 43, 61
1, 124911, Note_on_c, 0, 31, 78
1, 124922, Note_off_c, 0, 72, 55
1, 124932, Note_off_c, 0, 75, 64
1, 124959, Note_on_c, 0, 32, 16
1, 124972, Note_on_c, 0, 43, 77
1, 124974, Note_off_c, 0, 31, 63
1, 124988, Note_off_c, 0, 32, 55
1, 125011, Poly_aftertouch_c, 0, 38, 0
1, 125012, Note_off_c, 0, 43, 63
1, 125037, Note_on_c, 0, 31, 69
1, 125091, Note_on_c, 0, 43, 73
1, 125117, Note_off_c, 0, 43, 62
1, 125121, Note_off_c, 0, 31, 62
1, 125192, Note_on_c, 0, 81, 100
1, 125194, Note_on_c, 0, 86, 98
1, 125194, Note_on_c, 0, 84, 95
1, 125201, Note_on_c, 0, 42, 99
1, 125205, Note_on_c, 0, 30, 98
1, 125207, Control_c, 0, 64, 73
1, 125222, Control_c, 0, 64, 0
1, 125327, Control_c, 0, 64, 43
1, 125341, Control_c, 0, 64, 70
1, 125356, Control_c, 0, 64, 127
1, 125425, Note_off_c, 0, 86, 53
1, 125445, Note_off_c, 0, 30, 56
1, 125479, Note_off_c, 0, 84, 61
1, 125507, Note_off_c, 0, 81, 58
1, 125551, Note_off_c, 0, 42, 56
1, 125891, Note_on_c, 0, 54, 99
1, 125891, Note_on_c, 0, 57, 97
1, 125892, Note_on_c, 0, 60, 91
1, 125892, Note_on_c, 0, 42, 94
1, 125892, Note_on_c, 0, 62, 91
1, 125956, Control_c, 0, 64, 65
1, 125971, Control_c, 0, 64, 0
1, 127231, Control_c, 0, 64, 17
1, 127245, Control_c, 0, 64, 50
1, 127260, Control_c, 0, 64, 61
1, 127275, Control_c, 0, 64, 64
1, 127290, Control_c, 0, 64, 68
1, 127305, Control_c, 0, 64, 74
1, 127320, Control_c, 0, 64, 90
1, 127334, Control_c, 0, 64, 127
1, 127402, Note_off_c, 0, 57, 59
1, 127410, Note_off_c, 0, 60, 57
1, 127411, Note_off_c, 0, 62, 68
1, 127423, Note_off_c, 0, 54, 60
1, 127468, Note_off_c, 0, 42, 57
1, 127868, Note_on_c, 0, 62, 83
1, 127870, Note_on_c, 0, 67, 89
1, 127871, Note_on_c, 0, 58, 90
1, 127874, Note_on_c, 0, 55, 92
1, 127875, Note_on_c, 0, 43, 94
1, 127879, Note_on_c, 0, 38, 83
1, 127881, Note_on_c, 0, 31, 84
1, 127883, Note_on_c, 0, 34, 74
1, 127937, Control_c, 0, 64, 91
1, 127951, Control_c, 0, 64, 58
1, 127966, Control_c, 0, 64, 0
1, 128036, Poly_aftertouch_c, 0, 64, 127
1, 128870, Poly_aftertouch_c, 0, 33, 127
1, 129293, Control_c, 0, 64, 31
1, 129308, Control_c, 0, 64, 45
1, 129323, Control_c, 0, 64, 53
1, 129338, Control_c, 0, 64, 56
1, 129352, Control_c, 0, 64, 58
1, 129375, Control_c, 0, 64, 61
1, 129390, Control_c, 0, 64, 64
1, 129404, Control_c, 0, 64, 68
1, 129419, Control_c, 0, 64, 71
1, 129434, Control_c, 0, 64, 73
1, 129448, Control_c, 0, 64, 74
1, 129463, Control_c, 0, 64, 77
1, 129478, Control_c, 0, 64, 83
1, 129493, Control_c, 0, 64, 91
1, 129508, Control_c, 0, 64, 101
1, 129522, Control_c, 0, 64, 111
1, 129537, Control_c, 0, 64, 127
1, 129812, Note_off_c, 0, 31, 30
1, 129814, Poly_aftertouch_c, 0, 33, 0
1, 129820, Note_off_c, 0, 55, 58
1, 129892, Note_off_c, 0, 34, 38
1, 129919, Note_off_c, 0, 38, 32
1, 129929, Note_off_c, 0, 58, 47
1, 129935, Note_off_c, 0, 43, 37
1, 129984, Poly_aftertouch_c, 0, 64, 0
1, 129985, Note_off_c, 0, 62, 33
1, 130261, Note_off_c, 0, 67, 38
1, 130286, Control_c, 0, 64, 114
1, 130301, Control_c, 0, 64, 105
1, 130316, Control_c, 0, 64, 99
1, 130331, Control_c, 0, 64, 95
1, 130345, Control_c, 0, 64, 90
1, 130360, Control_c, 0, 64, 85
1, 130375, Control_c, 0, 64, 80
1, 130390, Control_c, 0, 64, 75
1, 130405, Control_c, 0, 64, 71
1, 130420, Control_c, 0, 64, 69
1, 130435, Control_c, 0, 64, 69
1, 130449, Control_c, 0, 64, 68
1, 130464, Control_c, 0, 64, 68
1, 130479, Control_c, 0, 64, 67
1, 130494, Control_c, 0, 64, 66
1, 130509, Control_c, 0, 64, 65
1, 130524, Control_c, 0, 64, 64
1, 130538, Control_c, 0, 64, 63
1, 130553, Control_c, 0, 64, 63
1, 130568, Control_c, 0, 64, 62
1, 130612, Control_c, 0, 64, 62
1, 130627, Control_c, 0, 64, 61
1, 130642, Control_c, 0, 64, 61
1, 130724, Note_on_c, 0, 67, 59
1, 130742, Note_on_c, 0, 62, 44
1, 130744, Note_on_c, 0, 58, 45
1, 130819, Control_c, 0, 64, 60
1, 130834, Note_off_c, 0, 67, 48
1, 130849, Control_c, 0, 64, 60
1, 130849, Note_off_c, 0, 62, 34
1, 130870, Control_c, 0, 64, 58
1, 130885, Note_off_c, 0, 58, 60
1, 130885, Control_c, 0, 64, 54
1, 130901, Control_c, 0, 64, 46
1, 130906, Note_on_c, 0, 69, 58
1, 130909, Note_on_c, 0, 62, 39
1, 130916, Control_c, 0, 64, 33
1, 130925, Note_on_c, 0, 66, 49
1, 130929, Note_on_c, 0, 57, 40
1, 130931, Control_c, 0, 64, 19
1, 130946, Control_c, 0, 64, 8
1, 131019, Control_c, 0, 64, 20
1, 131034, Control_c, 0, 64, 30
1, 131049, Control_c, 0, 64, 40
1, 131064, Control_c, 0, 64, 50
1, 131079, Control_c, 0, 64, 59
1, 131093, Control_c, 0, 64, 62
1, 131108, Control_c, 0, 64, 64
1, 131123, Control_c, 0, 64, 66
1, 131138, Control_c, 0, 64, 68
1, 131153, Control_c, 0, 64, 71
1, 131168, Control_c, 0, 64, 74
1, 131183, Control_c, 0, 64, 77
1, 131198, Control_c, 0, 64, 81
1, 131212, Control_c, 0, 64, 84
1, 131227, Control_c, 0, 64, 87
1, 131242, Control_c, 0, 64, 90
1, 131257, Control_c, 0, 64, 92
1, 131272, Control_c, 0, 64, 93
1, 131286, Control_c, 0, 64, 94
1, 131292, Note_off_c, 0, 69, 38
1, 131301, Control_c, 0, 64, 94
1, 131307, Note_off_c, 0, 62, 38
1, 131327, Note_off_c, 0, 66, 37
1, 131331, Control_c, 0, 64, 95
1, 131476, Note_on_c, 0, 70, 63
1, 131487, Note_on_c, 0, 55, 46
1, 131510, Note_on_c, 0, 67, 42
1, 131514, Note_on_c, 0, 62, 33
1, 131541, Note_off_c, 0, 57, 27
1, 131552, Note_off_c, 0, 62, 50
1, 131562, Note_off_c, 0, 70, 58
1, 131570, Note_off_c, 0, 67, 42
1, 131598, Control_c, 0, 64, 93
1, 131620, Control_c, 0, 64, 91
1, 131635, Control_c, 0, 64, 86
1, 131650, Control_c, 0, 64, 79
1, 131665, Control_c, 0, 64, 71
1, 131671, Note_on_c, 0, 70, 70
1, 131680, Control_c, 0, 64, 62
1, 131690, Note_on_c, 0, 67, 49
1, 131695, Control_c, 0, 64, 45
1, 131697, Note_on_c, 0, 61, 43
1, 131710, Control_c, 0, 64, 0
1, 131713, Note_on_c, 0, 64, 29
1, 131726, Note_off_c, 0, 55, 37
1, 131814, Control_c, 0, 67, 8
1, 131843, Control_c, 0, 67, 8
1, 131858, Control_c, 0, 67, 9
1, 131873, Control_c, 0, 67, 10
1, 131888, Control_c, 0, 67, 12
1, 131903, Control_c, 0, 67, 14
1, 131917, Control_c, 0, 67, 16
1, 131932, Control_c, 0, 67, 17
1, 131947, Control_c, 0, 67, 19
1, 131961, Control_c, 0, 67, 20
1, 131976, Control_c, 0, 67, 22
1, 131991, Control_c, 0, 67, 24
1, 132006, Control_c, 0, 67, 25
1, 132021, Control_c, 0, 67, 26
1, 132035, Control_c, 0, 67, 27
1, 132050, Control_c, 0, 67, 29
1, 132065, Control_c, 0, 67, 30
1, 132080, Control_c, 0, 67, 32
1, 132095, Control_c, 0, 67, 32
1, 132110, Control_c, 0, 67, 33
1, 132125, Control_c, 0, 67, 33
1, 132140, Control_c, 0, 67, 34
1, 132303, Control_c, 0, 67, 33
1, 132347, Control_c, 0, 64, 8
1, 132369, Control_c, 0, 64, 19
1, 132384, Control_c, 0, 64, 26
1, 132399, Control_c, 0, 64, 31
1, 132399, Control_c, 0, 67, 34
1, 132414, Control_c, 0, 64, 37
1, 132429, Control_c, 0, 64, 44
1, 132443, Control_c, 0, 64, 51
1, 132443, Control_c, 0, 67, 34
1, 132458, Control_c, 0, 64, 57
1, 132458, Control_c, 0, 67, 35
1, 132473, Control_c, 0, 64, 61
1, 132473, Control_c, 0, 67, 36
1, 132488, Control_c, 0, 64, 64
1, 132488, Control_c, 0, 67, 41
1, 132503, Control_c, 0, 64, 66
1, 132503, Control_c, 0, 67, 46
1, 132518, Control_c, 0, 64, 69
1, 132518, Control_c, 0, 67, 51
1, 132533, Control_c, 0, 64, 73
1, 132533, Control_c, 0, 67, 55
1, 132548, Control_c, 0, 64, 80
1, 132548, Control_c, 0, 67, 58
1, 132563, Control_c, 0, 64, 87
1, 132563, Control_c, 0, 67, 62
1, 132578, Control_c, 0, 64, 96
1, 132578, Control_c, 0, 67, 65
1, 132592, Control_c, 0, 64, 106
1, 132592, Control_c, 0, 67, 70
1, 132607, Control_c, 0, 64, 127
1, 132607, Control_c, 0, 67, 73
1, 132622, Control_c, 0, 67, 77
1, 132637, Control_c, 0, 67, 80
1, 132652, Control_c, 0, 67, 84
1, 132666, Control_c, 0, 67, 88
1, 132681, Control_c, 0, 67, 93
1, 132696, Control_c, 0, 67, 99
1, 132711, Control_c, 0, 67, 104
1, 132726, Control_c, 0, 67, 109
1, 132740, Control_c, 0, 67, 114
1, 132755, Control_c, 0, 67, 118
1, 132770, Control_c, 0, 67, 122
1, 132784, Note_off_c, 0, 61, 31
1, 132784, Control_c, 0, 67, 126
1, 132799, Control_c, 0, 67, 127
1, 132828, Note_off_c, 0, 64, 41
1, 132932, Note_off_c, 0, 67, 48
1, 133141, Note_off_c, 0, 70, 36
1, 133207, Control_c, 0, 64, 99
1, 133214, Note_on_c, 0, 69, 37
1, 133222, Control_c, 0, 64, 84
1, 133232, Note_on_c, 0, 62, 36
1, 133234, Note_on_c, 0, 66, 36
1, 133237, Control_c, 0, 64, 73
1, 133252, Control_c, 0, 64, 65
1, 133266, Control_c, 0, 64, 53
1, 133281, Control_c, 0, 64, 0
1, 133296, Note_off_c, 0, 62, 0
1, 133296, Note_on_c, 0, 62, 8
1, 133901, Note_off_c, 0, 69, 62
1, 133913, Note_off_c, 0, 66, 50
1, 133921, Note_off_c, 0, 62, 51
1, 134430, Control_c, 0, 67, 118
1, 134445, Control_c, 0, 67, 108
1, 134460, Control_c, 0, 67, 97
1, 134475, Control_c, 0, 67, 86
1, 134490, Control_c, 0, 67, 72
1, 134504, Control_c, 0, 64, 26
1, 134504, Control_c, 0, 67, 51
1, 134519, Control_c, 0, 64, 48
1, 134519, Control_c, 0, 67, 29
1, 134534, Control_c, 0, 64, 57
1, 134534, Control_c, 0, 67, 8
1, 134549, Control_c, 0, 64, 61
1, 134549, Control_c, 0, 67, 0
1, 134563, Control_c, 0, 64, 62
1, 134578, Control_c, 0, 64, 64
1, 134593, Control_c, 0, 64, 66
1, 134616, Control_c, 0, 64, 71
1, 134631, Control_c, 0, 64, 78
1, 134645, Control_c, 0, 64, 89
1, 134660, Control_c, 0, 64, 102
1, 134675, Control_c, 0, 64, 127
1, 134707, Note_on_c, 0, 51, 81
1, 134860, Note_on_c, 0, 72, 90
1, 134865, Note_on_c, 0, 63, 87
1, 134865, Note_on_c, 0, 66, 86
1, 134867, Note_on_c, 0, 69, 88
1, 134914, Note_off_c, 0, 51, 58
1, 135913, Control_c, 0, 67, 9
1, 135928, Control_c, 0, 67, 15
1, 135943, Control_c, 0, 67, 21
1, 135958, Control_c, 0, 67, 25
1, 135973, Control_c, 0, 67, 29
1, 135988, Control_c, 0, 67, 34
1, 136002, Control_c, 0, 67, 39
1, 136017, Control_c, 0, 67, 46
1, 136032, Control_c, 0, 67, 53
1, 136047, Control_c, 0, 67, 62
1, 136062, Control_c, 0, 67, 71
1, 136076, Control_c, 0, 67, 81
1, 136091, Control_c, 0, 67, 91
1, 136113, Control_c, 0, 67, 101
1, 136128, Control_c, 0, 67, 114
1, 136143, Control_c, 0, 67, 125
1, 136158, Control_c, 0, 67, 127
1, 136469, Control_c, 0, 64, 125
1, 136485, Control_c, 0, 64, 118
1, 136500, Control_c, 0, 64, 112
1, 136514, Control_c, 0, 64, 107
1, 136529, Control_c, 0, 64, 104
1, 136544, Control_c, 0, 64, 100
1, 136558, Control_c, 0, 64, 98
1, 136573, Control_c, 0, 64, 95
1, 136588, Control_c, 0, 64, 93
1, 136603, Control_c, 0, 64, 91
1, 136618, Control_c, 0, 64, 88
1, 136630, Note_off_c, 0, 63, 35
1, 136630, Note_off_c, 0, 66, 38
1, 136632, Control_c, 0, 64, 85
1, 136642, Note_off_c, 0, 69, 36
1, 136647, Control_c, 0, 64, 81
1, 136662, Control_c, 0, 64, 79
1, 136677, Control_c, 0, 64, 77
1, 136689, Note_off_c, 0, 72, 28
1, 136692, Control_c, 0, 64, 76
1, 136706, Control_c, 0, 64, 75
1, 136721, Control_c, 0, 64, 74
1, 136736, Control_c, 0, 64, 73
1, 136751, Control_c, 0, 64, 71
1, 136766, Control_c, 0, 64, 70
1, 136781, Control_c, 0, 64, 69
1, 136796, Control_c, 0, 64, 69
1, 136825, Control_c, 0, 64, 68
1, 136840, Control_c, 0, 64, 68
1, 136862, Control_c, 0, 64, 67
1, 136877, Control_c, 0, 64, 67
1, 136892, Control_c, 0, 64, 66
1, 136906, Control_c, 0, 64, 66
1, 136996, Control_c, 0, 64, 65
1, 137310, Note_on_c, 0, 72, 47
1, 137323, Note_on_c, 0, 69, 39
1, 137327, Note_on_c, 0, 63, 37
1, 137335, Note_on_c, 0, 66, 38
1, 137425, Note_off_c, 0, 66, 35
1, 137426, Note_off_c, 0, 72, 61
1, 137465, Note_off_c, 0, 63, 49
1, 137470, Control_c, 0, 64, 65
1, 137481, Note_off_c, 0, 69, 0
1, 137485, Control_c, 0, 64, 63
1, 137496, Note_on_c, 0, 62, 48
1, 137497, Note_on_c, 0, 74, 57
1, 137500, Control_c, 0, 64, 61
1, 137507, Note_on_c, 0, 66, 52
1, 137514, Note_on_c, 0, 69, 5
1, 137515, Control_c, 0, 64, 52
1, 137530, Control_c, 0, 64, 0
1, 137625, Control_c, 0, 64, 34
1, 137640, Control_c, 0, 64, 52
1, 137654, Control_c, 0, 64, 60
1, 137669, Control_c, 0, 64, 62
1, 137684, Control_c, 0, 64, 63
1, 137699, Control_c, 0, 64, 65
1, 137714, Control_c, 0, 64, 67
1, 137729, Control_c, 0, 64, 72
1, 137744, Control_c, 0, 64, 78
1, 137753, Note_off_c, 0, 66, 34
1, 137759, Control_c, 0, 64, 84
1, 137774, Control_c, 0, 64, 89
1, 137788, Note_off_c, 0, 69, 47
1, 137788, Control_c, 0, 64, 94
1, 137803, Control_c, 0, 64, 101
1, 137815, Note_off_c, 0, 74, 59
1, 137818, Control_c, 0, 64, 110
1, 137833, Control_c, 0, 64, 127
1, 138147, Note_on_c, 0, 75, 58
1, 138167, Note_on_c, 0, 69, 52
1, 138175, Note_on_c, 0, 66, 46
1, 138182, Note_on_c, 0, 60, 39
1, 138209, Note_off_c, 0, 69, 62
1, 138214, Note_off_c, 0, 66, 62
1, 138231, Note_off_c, 0, 75, 65
1, 138241, Note_off_c, 0, 60, 52
1, 138260, Note_off_c, 0, 62, 38
1, 138337, Note_on_c, 0, 75, 73
1, 138337, Control_c, 0, 64, 104
1, 138356, Note_on_c, 0, 66, 55
1, 138360, Control_c, 0, 64, 89
1, 138361, Note_on_c, 0, 69, 52
1, 138375, Control_c, 0, 64, 75
1, 138377, Note_on_c, 0, 58, 39
1, 138390, Control_c, 0, 64, 65
1, 138404, Control_c, 0, 64, 55
1, 138419, Control_c, 0, 64, 20
1, 138434, Control_c, 0, 64, 0
1, 138863, Control_c, 0, 64, 22
1, 138879, Control_c, 0, 64, 29
1, 138894, Control_c, 0, 64, 36
1, 138909, Control_c, 0, 64, 42
1, 138924, Control_c, 0, 64, 47
1, 138939, Control_c, 0, 64, 51
1, 138953, Control_c, 0, 64, 55
1, 138968, Control_c, 0, 64, 58
1, 138983, Control_c, 0, 64, 59
1, 138998, Control_c, 0, 64, 61
1, 139013, Control_c, 0, 64, 62
1, 139027, Control_c, 0, 64, 63
1, 139042, Control_c, 0, 64, 65
1, 139057, Control_c, 0, 64, 66
1, 139072, Control_c, 0, 64, 68
1, 139087, Control_c, 0, 64, 70
1, 139109, Control_c, 0, 64, 74
1, 139124, Control_c, 0, 64, 78
1, 139139, Control_c, 0, 64, 83
1, 139153, Control_c, 0, 64, 88
1, 139168, Control_c, 0, 64, 94
1, 139183, Control_c, 0, 64, 101
1, 139198, Control_c, 0, 64, 112
1, 139213, Control_c, 0, 64, 127
1, 139320, Note_off_c, 0, 66, 37
1, 139389, Note_off_c, 0, 69, 36
1, 139975, Note_off_c, 0, 75, 36
1, 140080, Control_c, 0, 64, 125
1, 140095, Control_c, 0, 64, 105
1, 140109, Control_c, 0, 64, 95
1, 140124, Control_c, 0, 64, 86
1, 140139, Note_on_c, 0, 74, 40
1, 140139, Control_c, 0, 64, 77
1, 140150, Note_on_c, 0, 70, 35
1, 140154, Control_c, 0, 64, 69
1, 140161, Note_on_c, 0, 67, 23
1, 140169, Control_c, 0, 64, 63
1, 140183, Control_c, 0, 64, 48
1, 140198, Control_c, 0, 64, 0
1, 140793, Note_off_c, 0, 70, 60
1, 140795, Note_off_c, 0, 74, 62
1, 140797, Note_off_c, 0, 67, 53
1, 140802, Note_off_c, 0, 58, 62
1, 141289, Control_c, 0, 64, 37
1, 141303, Control_c, 0, 64, 54
1, 141318, Control_c, 0, 64, 60
1, 141333, Control_c, 0, 64, 63
1, 141355, Control_c, 0, 64, 65
1, 141370, Control_c, 0, 64, 68
1, 141385, Control_c, 0, 64, 73
1, 141385, Control_c, 0, 67, 115
1, 141400, Control_c, 0, 64, 81
1, 141400, Control_c, 0, 67, 91
1, 141415, Control_c, 0, 64, 94
1, 141415, Control_c, 0, 67, 64
1, 141429, Control_c, 0, 64, 119
1, 141429, Control_c, 0, 67, 36
1, 141444, Control_c, 0, 64, 127
1, 141444, Control_c, 0, 67, 8
1, 141459, Control_c, 0, 67, 0
1, 141566, Note_on_c, 0, 51, 78
1, 141762, Note_on_c, 0, 72, 90
1, 141771, Note_on_c, 0, 66, 75
1, 141772, Note_on_c, 0, 63, 83
1, 141772, Note_on_c, 0, 69, 79
1, 141843, Note_off_c, 0, 51, 53
1, 142800, Control_c, 0, 67, 9
1, 142815, Control_c, 0, 67, 14
1, 142830, Control_c, 0, 67, 20
1, 142852, Control_c, 0, 67, 25
1, 142867, Control_c, 0, 67, 30
1, 142883, Control_c, 0, 67, 33
1, 142898, Control_c, 0, 67, 37
1, 142913, Control_c, 0, 67, 41
1, 142927, Control_c, 0, 67, 45
1, 142942, Control_c, 0, 67, 51
1, 142957, Control_c, 0, 67, 59
1, 142972, Control_c, 0, 67, 68
1, 142987, Control_c, 0, 67, 79
1, 143001, Control_c, 0, 67, 86
1, 143016, Control_c, 0, 67, 94
1, 143031, Control_c, 0, 67, 102
1, 143046, Control_c, 0, 67, 112
1, 143061, Control_c, 0, 67, 122
1, 143075, Control_c, 0, 67, 127
1, 143401, Control_c, 0, 64, 121
1, 143410, Note_off_c, 0, 63, 6
1, 143416, Control_c, 0, 64, 112
1, 143431, Control_c, 0, 64, 106
1, 143445, Control_c, 0, 64, 101
1, 143460, Control_c, 0, 64, 98
1, 143475, Control_c, 0, 64, 95
1, 143490, Control_c, 0, 64, 93
1, 143505, Control_c, 0, 64, 91
1, 143519, Control_c, 0, 64, 89
1, 143534, Control_c, 0, 64, 87
1, 143542, Note_off_c, 0, 66, 43
1, 143549, Control_c, 0, 64, 85
1, 143564, Control_c, 0, 64, 84
1, 143575, Note_off_c, 0, 69, 41
1, 143579, Control_c, 0, 64, 83
1, 143601, Control_c, 0, 64, 81
1, 143616, Control_c, 0, 64, 81
1, 143631, Control_c, 0, 64, 80
1, 143646, Control_c, 0, 64, 79
1, 143648, Note_off_c, 0, 72, 25
1, 143660, Control_c, 0, 64, 78
1, 143676, Control_c, 0, 64, 77
1, 143691, Control_c, 0, 64, 75
1, 143706, Control_c, 0, 64, 74
1, 143720, Control_c, 0, 64, 72
1, 143735, Control_c, 0, 64, 71
1, 143750, Control_c, 0, 64, 70
1, 143765, Control_c, 0, 64, 70
1, 143780, Control_c, 0, 64, 69
1, 143868, Control_c, 0, 64, 69
1, 143883, Control_c, 0, 64, 68
1, 143942, Control_c, 0, 64, 68
1, 144016, Control_c, 0, 64, 67
1, 144061, Control_c, 0, 64, 67
1, 144090, Control_c, 0, 64, 66
1, 144296, Note_on_c, 0, 72, 50
1, 144320, Note_on_c, 0, 66, 39
1, 144321, Note_on_c, 0, 63, 30
1, 144333, Note_on_c, 0, 69, 41
1, 144382, Note_off_c, 0, 66, 42
1, 144409, Note_off_c, 0, 69, 46
1, 144425, Note_off_c, 0, 72, 61
1, 144469, Control_c, 0, 64, 66
1, 144477, Note_off_c, 0, 63, 42
1, 144484, Control_c, 0, 64, 65
1, 144498, Note_on_c, 0, 74, 58
1, 144498, Control_c, 0, 64, 64
1, 144504, Note_on_c, 0, 62, 43
1, 144513, Control_c, 0, 64, 62
1, 144526, Note_on_c, 0, 66, 44
1, 144528, Note_on_c, 0, 69, 27
1, 144528, Control_c, 0, 64, 57
1, 144543, Control_c, 0, 64, 49
1, 144558, Control_c, 0, 64, 37
1, 144570, Note_off_c, 0, 62, 0
1, 144570, Note_on_c, 0, 62, 9
1, 144573, Control_c, 0, 64, 23
1, 144588, Control_c, 0, 64, 0
1, 144706, Control_c, 0, 64, 8
1, 144721, Control_c, 0, 64, 45
1, 144736, Control_c, 0, 64, 58
1, 144751, Control_c, 0, 64, 63
1, 144765, Control_c, 0, 64, 65
1, 144780, Control_c, 0, 64, 68
1, 144788, Note_off_c, 0, 66, 46
1, 144795, Control_c, 0, 64, 72
1, 144810, Control_c, 0, 64, 77
1, 144814, Note_off_c, 0, 69, 45
1, 144825, Control_c, 0, 64, 85
1, 144832, Note_off_c, 0, 74, 60
1, 144839, Control_c, 0, 64, 91
1, 144854, Control_c, 0, 64, 97
1, 144869, Control_c, 0, 64, 103
1, 144884, Control_c, 0, 64, 107
1, 144898, Control_c, 0, 64, 113
1, 144913, Control_c, 0, 64, 121
1, 144928, Control_c, 0, 64, 127
1, 145123, Note_on_c, 0, 75, 59
1, 145139, Note_on_c, 0, 66, 42
1, 145147, Note_on_c, 0, 69, 41
1, 145162, Note_on_c, 0, 60, 35
1, 145190, Note_off_c, 0, 69, 54
1, 145193, Note_off_c, 0, 66, 46
1, 145196, Note_off_c, 0, 60, 57
1, 145211, Note_off_c, 0, 75, 64
1, 145232, Note_off_c, 0, 62, 39
1, 145292, Control_c, 0, 64, 118
1, 145307, Control_c, 0, 64, 107
1, 145321, Control_c, 0, 64, 98
1, 145324, Note_on_c, 0, 75, 74
1, 145336, Control_c, 0, 64, 89
1, 145342, Note_on_c, 0, 66, 48
1, 145348, Note_on_c, 0, 69, 45
1, 145351, Control_c, 0, 64, 78
1, 145366, Note_on_c, 0, 60, 29
1, 145366, Control_c, 0, 64, 69
1, 145381, Control_c, 0, 64, 62
1, 145396, Control_c, 0, 64, 48
1, 145411, Control_c, 0, 64, 12
1, 145426, Control_c, 0, 64, 0
1, 145574, Control_c, 0, 64, 15
1, 145588, Control_c, 0, 64, 22
1, 145603, Control_c, 0, 64, 26
1, 145618, Control_c, 0, 64, 30
1, 145633, Control_c, 0, 64, 34
1, 145647, Control_c, 0, 64, 39
1, 145662, Control_c, 0, 64, 43
1, 145677, Control_c, 0, 64, 48
1, 145692, Control_c, 0, 64, 53
1, 145707, Control_c, 0, 64, 57
1, 145721, Control_c, 0, 64, 59
1, 145736, Control_c, 0, 64, 62
1, 145751, Control_c, 0, 64, 64
1, 145766, Control_c, 0, 64, 65
1, 145781, Control_c, 0, 64, 68
1, 145795, Control_c, 0, 64, 71
1, 145810, Control_c, 0, 64, 74
1, 145825, Control_c, 0, 64, 78
1, 145847, Control_c, 0, 64, 80
1, 145862, Control_c, 0, 64, 82
1, 145877, Control_c, 0, 64, 82
1, 145892, Control_c, 0, 64, 83
1, 145907, Control_c, 0, 64, 83
1, 146293, Control_c, 0, 64, 83
1, 146308, Control_c, 0, 64, 82
1, 146323, Control_c, 0, 64, 81
1, 146337, Control_c, 0, 64, 79
1, 146344, Note_on_c, 0, 59, 32
1, 146352, Control_c, 0, 64, 76
1, 146367, Control_c, 0, 64, 70
1, 146382, Control_c, 0, 64, 64
1, 146397, Control_c, 0, 64, 53
1, 146403, Note_off_c, 0, 60, 26
1, 146411, Control_c, 0, 64, 31
1, 146426, Control_c, 0, 64, 0
1, 146515, Control_c, 0, 64, 8
1, 146530, Control_c, 0, 64, 29
1, 146544, Control_c, 0, 64, 43
1, 146559, Control_c, 0, 64, 53
1, 146574, Control_c, 0, 64, 59
1, 146597, Control_c, 0, 64, 63
1, 146612, Control_c, 0, 64, 64
1, 146626, Control_c, 0, 64, 66
1, 146641, Control_c, 0, 64, 68
1, 146656, Control_c, 0, 64, 71
1, 146670, Control_c, 0, 64, 74
1, 146685, Control_c, 0, 64, 79
1, 146700, Control_c, 0, 64, 81
1, 146715, Control_c, 0, 64, 83
1, 146730, Control_c, 0, 64, 85
1, 146743, Note_off_c, 0, 69, 36
1, 146744, Control_c, 0, 64, 86
1, 146759, Control_c, 0, 64, 87
1, 146774, Control_c, 0, 64, 87
1, 146789, Control_c, 0, 64, 88
1, 146804, Control_c, 0, 64, 88
1, 146845, Note_off_c, 0, 66, 41
1, 147041, Control_c, 0, 64, 88
1, 147056, Control_c, 0, 64, 86
1, 147071, Control_c, 0, 64, 82
1, 147086, Control_c, 0, 64, 77
1, 147098, Note_on_c, 0, 76, 63
1, 147101, Control_c, 0, 64, 71
1, 147116, Control_c, 0, 64, 66
1, 147122, Note_on_c, 0, 64, 46
1, 147122, Note_on_c, 0, 67, 45
1, 147131, Control_c, 0, 64, 59
1, 147145, Note_off_c, 0, 75, 21
1, 147145, Control_c, 0, 64, 45
1, 147160, Control_c, 0, 64, 8
1, 147175, Control_c, 0, 64, 0
1, 147264, Control_c, 0, 64, 22
1, 147279, Control_c, 0, 64, 43
1, 147293, Control_c, 0, 64, 55
1, 147308, Control_c, 0, 64, 61
1, 147323, Control_c, 0, 64, 63
1, 147345, Control_c, 0, 64, 64
1, 147360, Control_c, 0, 64, 66
1, 147375, Control_c, 0, 64, 68
1, 147390, Control_c, 0, 64, 71
1, 147405, Control_c, 0, 64, 74
1, 147419, Control_c, 0, 64, 78
1, 147434, Control_c, 0, 64, 81
1, 147449, Control_c, 0, 64, 83
1, 147464, Control_c, 0, 64, 85
1, 147479, Control_c, 0, 64, 86
1, 147493, Control_c, 0, 64, 87
1, 147508, Control_c, 0, 64, 88
1, 147523, Control_c, 0, 64, 88
1, 147538, Control_c, 0, 64, 89
1, 147553, Control_c, 0, 64, 90
1, 147567, Control_c, 0, 64, 91
1, 147614, Note_off_c, 0, 59, 39
1, 147820, Control_c, 0, 64, 90
1, 147835, Control_c, 0, 64, 88
1, 147849, Control_c, 0, 64, 85
1, 147855, Note_on_c, 0, 59, 46
1, 147864, Control_c, 0, 64, 80
1, 147879, Control_c, 0, 64, 73
1, 147894, Control_c, 0, 64, 65
1, 147909, Control_c, 0, 64, 55
1, 147924, Control_c, 0, 64, 34
1, 147938, Control_c, 0, 64, 14
1, 147953, Control_c, 0, 64, 12
1, 147998, Control_c, 0, 64, 19
1, 148013, Control_c, 0, 64, 29
1, 148028, Control_c, 0, 64, 44
1, 148042, Control_c, 0, 64, 55
1, 148057, Control_c, 0, 64, 61
1, 148072, Control_c, 0, 64, 63
1, 148094, Control_c, 0, 64, 64
1, 148109, Control_c, 0, 64, 65
1, 148123, Control_c, 0, 64, 68
1, 148138, Control_c, 0, 64, 71
1, 148153, Control_c, 0, 64, 74
1, 148168, Control_c, 0, 64, 78
1, 148183, Control_c, 0, 64, 82
1, 148198, Control_c, 0, 64, 85
1, 148213, Control_c, 0, 64, 87
1, 148222, Note_off_c, 0, 76, 48
1, 148228, Control_c, 0, 64, 89
1, 148242, Control_c, 0, 64, 90
1, 148257, Control_c, 0, 64, 91
1, 148272, Control_c, 0, 64, 91
1, 148287, Control_c, 0, 64, 92
1, 148316, Control_c, 0, 64, 92
1, 148369, Note_off_c, 0, 67, 36
1, 148457, Note_off_c, 0, 64, 53
1, 148613, Control_c, 0, 64, 90
1, 148628, Control_c, 0, 64, 86
1, 148633, Note_on_c, 0, 69, 54
1, 148633, Note_on_c, 0, 63, 50
1, 148639, Note_on_c, 0, 66, 52
1, 148643, Control_c, 0, 64, 81
1, 148657, Control_c, 0, 64, 75
1, 148672, Control_c, 0, 64, 68
1, 148687, Control_c, 0, 64, 62
1, 148702, Control_c, 0, 64, 51
1, 148717, Control_c, 0, 64, 33
1, 148731, Control_c, 0, 64, 0
1, 148791, Control_c, 0, 64, 21
1, 148806, Control_c, 0, 64, 34
1, 148821, Control_c, 0, 64, 46
1, 148844, Control_c, 0, 64, 55
1, 148859, Control_c, 0, 64, 60
1, 148873, Control_c, 0, 64, 63
1, 148888, Control_c, 0, 64, 64
1, 148903, Control_c, 0, 64, 66
1, 148918, Control_c, 0, 64, 67
1, 148933, Control_c, 0, 64, 69
1, 148947, Control_c, 0, 64, 72
1, 148962, Control_c, 0, 64, 75
1, 148977, Control_c, 0, 64, 77
1, 148992, Control_c, 0, 64, 80
1, 149007, Control_c, 0, 64, 81
1, 149021, Control_c, 0, 64, 83
1, 149036, Control_c, 0, 64, 84
1, 149051, Control_c, 0, 64, 85
1, 149065, Control_c, 0, 64, 85
1, 149080, Control_c, 0, 64, 86
1, 149378, Control_c, 0, 64, 85
1, 149393, Control_c, 0, 64, 83
1, 149408, Control_c, 0, 64, 79
1, 149420, Note_on_c, 0, 47, 60
1, 149423, Control_c, 0, 64, 73
1, 149437, Control_c, 0, 64, 66
1, 149452, Control_c, 0, 64, 58
1, 149467, Control_c, 0, 64, 31
1, 149471, Note_off_c, 0, 59, 34
1, 149481, Control_c, 0, 64, 0
1, 149569, Control_c, 0, 64, 40
1, 149592, Control_c, 0, 64, 55
1, 149607, Control_c, 0, 64, 62
1, 149621, Control_c, 0, 64, 64
1, 149636, Control_c, 0, 64, 65
1, 149651, Control_c, 0, 64, 67
1, 149666, Control_c, 0, 64, 70
1, 149681, Control_c, 0, 64, 73
1, 149695, Control_c, 0, 64, 77
1, 149710, Control_c, 0, 64, 80
1, 149725, Control_c, 0, 64, 84
1, 149740, Control_c, 0, 64, 86
1, 149755, Control_c, 0, 64, 89
1, 149769, Control_c, 0, 64, 91
1, 149784, Control_c, 0, 64, 93
1, 149799, Note_off_c, 0, 69, 30
1, 149799, Control_c, 0, 64, 95
1, 149813, Control_c, 0, 64, 97
1, 149828, Control_c, 0, 64, 99
1, 149843, Control_c, 0, 64, 100
1, 149858, Control_c, 0, 64, 101
1, 149873, Control_c, 0, 64, 102
1, 149888, Control_c, 0, 64, 103
1, 149891, Note_off_c, 0, 66, 44
1, 149969, Note_off_c, 0, 63, 39
1, 150171, Control_c, 0, 64, 101
1, 150185, Control_c, 0, 64, 98
1, 150199, Note_on_c, 0, 67, 66
1, 150200, Control_c, 0, 64, 91
1, 150213, Note_on_c, 0, 59, 53
1, 150215, Note_on_c, 0, 64, 48
1, 150215, Control_c, 0, 64, 81
1, 150229, Control_c, 0, 64, 68
1, 150244, Control_c, 0, 64, 57
1, 150259, Control_c, 0, 64, 22
1, 150274, Control_c, 0, 64, 0
1, 150317, Control_c, 0, 64, 33
1, 150340, Control_c, 0, 64, 47
1, 150355, Control_c, 0, 64, 57
1, 150370, Control_c, 0, 64, 62
1, 150384, Control_c, 0, 64, 64
1, 150399, Control_c, 0, 64, 66
1, 150414, Control_c, 0, 64, 68
1, 150429, Control_c, 0, 64, 71
1, 150443, Control_c, 0, 64, 75
1, 150458, Control_c, 0, 64, 80
1, 150473, Control_c, 0, 64, 84
1, 150488, Control_c, 0, 64, 88
1, 150503, Control_c, 0, 64, 91
1, 150517, Control_c, 0, 64, 94
1, 150532, Control_c, 0, 64, 97
1, 150547, Control_c, 0, 64, 99
1, 150555, Note_off_c, 0, 47, 50
1, 150562, Control_c, 0, 64, 103
1, 150577, Control_c, 0, 64, 106
1, 150591, Control_c, 0, 64, 110
1, 150606, Control_c, 0, 64, 113
1, 150621, Control_c, 0, 64, 116
1, 150621, Control_c, 0, 67, 127
1, 150636, Control_c, 0, 64, 118
1, 150636, Control_c, 0, 67, 119
1, 150651, Control_c, 0, 64, 121
1, 150651, Control_c, 0, 67, 111
1, 150666, Control_c, 0, 64, 125
1, 150666, Control_c, 0, 67, 102
1, 150681, Control_c, 0, 64, 127
1, 150681, Control_c, 0, 67, 95
1, 150696, Control_c, 0, 67, 90
1, 150710, Control_c, 0, 67, 86
1, 150725, Control_c, 0, 67, 84
1, 150740, Control_c, 0, 67, 83
1, 150874, Control_c, 0, 67, 83
1, 150948, Control_c, 0, 67, 84
1, 151022, Control_c, 0, 67, 84
1, 151037, Note_on_c, 0, 47, 65
1, 151037, Control_c, 0, 64, 113
1, 151051, Control_c, 0, 64, 102
1, 151066, Control_c, 0, 64, 89
1, 151089, Control_c, 0, 64, 74
1, 151104, Control_c, 0, 64, 64
1, 151119, Control_c, 0, 64, 48
1, 151133, Control_c, 0, 64, 0
1, 151207, Control_c, 0, 64, 29
1, 151207, Control_c, 0, 67, 84
1, 151222, Control_c, 0, 64, 49
1, 151237, Control_c, 0, 64, 60
1, 151237, Control_c, 0, 67, 83
1, 151252, Control_c, 0, 64, 64
1, 151266, Control_c, 0, 64, 66
1, 151281, Control_c, 0, 64, 68
1, 151296, Control_c, 0, 64, 70
1, 151311, Control_c, 0, 64, 73
1, 151326, Control_c, 0, 64, 77
1, 151340, Control_c, 0, 64, 81
1, 151355, Control_c, 0, 64, 86
1, 151370, Control_c, 0, 64, 90
1, 151370, Control_c, 0, 67, 84
1, 151384, Control_c, 0, 64, 93
1, 151399, Control_c, 0, 64, 97
1, 151414, Control_c, 0, 64, 101
1, 151429, Control_c, 0, 64, 106
1, 151429, Control_c, 0, 67, 84
1, 151444, Control_c, 0, 64, 110
1, 151459, Control_c, 0, 64, 115
1, 151459, Control_c, 0, 67, 85
1, 151474, Control_c, 0, 64, 119
1, 151489, Control_c, 0, 64, 125
1, 151489, Control_c, 0, 67, 85
1, 151504, Control_c, 0, 64, 127
1, 151518, Control_c, 0, 67, 86
1, 151521, Note_off_c, 0, 64, 37
1, 151578, Control_c, 0, 67, 86
1, 151607, Control_c, 0, 67, 87
1, 151608, Note_off_c, 0, 59, 32
1, 151630, Note_off_c, 0, 67, 31
1, 151727, Control_c, 0, 67, 87
1, 151861, Note_on_c, 0, 66, 71
1, 151867, Control_c, 0, 64, 110
1, 151870, Note_on_c, 0, 63, 62
1, 151874, Note_on_c, 0, 57, 54
1, 151882, Control_c, 0, 64, 98
1, 151897, Control_c, 0, 64, 86
1, 151897, Control_c, 0, 67, 87
1, 151897, Note_on_c, 0, 60, 42
1, 151912, Control_c, 0, 64, 76
1, 151927, Control_c, 0, 64, 68
1, 151942, Control_c, 0, 64, 61
1, 151956, Control_c, 0, 64, 49
1, 151971, Control_c, 0, 64, 40
1, 151986, Control_c, 0, 64, 43
1, 152001, Control_c, 0, 64, 46
1, 152001, Control_c, 0, 67, 87
1, 152015, Control_c, 0, 64, 49
1, 152015, Control_c, 0, 67, 88
1, 152030, Control_c, 0, 64, 53
1, 152045, Control_c, 0, 64, 58
1, 152045, Control_c, 0, 67, 89
1, 152060, Control_c, 0, 64, 61
1, 152060, Control_c, 0, 67, 89
1, 152075, Control_c, 0, 64, 63
1, 152075, Control_c, 0, 67, 91
1, 152089, Control_c, 0, 64, 65
1, 152089, Control_c, 0, 67, 92
1, 152104, Control_c, 0, 64, 67
1, 152104, Control_c, 0, 67, 94
1, 152119, Control_c, 0, 64, 69
1, 152119, Control_c, 0, 67, 95
1, 152134, Control_c, 0, 64, 72
1, 152134, Control_c, 0, 67, 98
1, 152149, Control_c, 0, 64, 75
1, 152149, Control_c, 0, 67, 103
1, 152163, Control_c, 0, 64, 77
1, 152163, Control_c, 0, 67, 108
1, 152178, Control_c, 0, 64, 79
1, 152178, Control_c, 0, 67, 116
1, 152193, Control_c, 0, 64, 81
1, 152193, Control_c, 0, 67, 123
1, 152207, Control_c, 0, 64, 83
1, 152207, Control_c, 0, 67, 127
1, 152222, Control_c, 0, 64, 83
1, 152237, Control_c, 0, 64, 84
1, 152586, Control_c, 0, 64, 83
1, 152631, Control_c, 0, 64, 83
1, 152690, Control_c, 0, 64, 82
1, 152705, Control_c, 0, 64, 82
1, 152720, Control_c, 0, 64, 81
1, 152735, Control_c, 0, 64, 79
1, 152750, Control_c, 0, 64, 76
1, 152762, Note_on_c, 0, 35, 41
1, 152765, Control_c, 0, 64, 71
1, 152779, Control_c, 0, 64, 64
1, 152794, Control_c, 0, 64, 52
1, 152809, Control_c, 0, 64, 0
1, 152927, Control_c, 0, 64, 41
1, 152942, Control_c, 0, 64, 57
1, 152957, Control_c, 0, 64, 62
1, 152972, Control_c, 0, 64, 64
1, 152986, Control_c, 0, 64, 65
1, 153001, Control_c, 0, 64, 67
1, 153016, Control_c, 0, 64, 69
1, 153030, Control_c, 0, 64, 72
1, 153045, Control_c, 0, 64, 76
1, 153060, Control_c, 0, 64, 78
1, 153064, Note_off_c, 0, 57, 46
1, 153075, Control_c, 0, 64, 79
1, 153090, Control_c, 0, 64, 80
1, 153103, Note_off_c, 0, 66, 37
1, 153113, Note_off_c, 0, 60, 51
1, 153134, Control_c, 0, 64, 80
1, 153158, Note_off_c, 0, 63, 37
1, 153283, Control_c, 0, 64, 80
1, 153313, Control_c, 0, 64, 79
1, 153380, Control_c, 0, 64, 79
1, 153424, Control_c, 0, 64, 78
1, 153468, Control_c, 0, 64, 78
1, 153528, Control_c, 0, 64, 77
1, 153617, Control_c, 0, 64, 77
1, 153647, Control_c, 0, 64, 76
1, 153661, Control_c, 0, 64, 74
1, 153670, Note_on_c, 0, 63, 39
1, 153676, Control_c, 0, 64, 71
1, 153691, Control_c, 0, 64, 65
1, 153694, Note_on_c, 0, 57, 36
1, 153706, Control_c, 0, 64, 59
1, 153708, Note_on_c, 0, 54, 29
1, 153721, Control_c, 0, 64, 45
1, 153735, Control_c, 0, 64, 21
1, 153750, Control_c, 0, 64, 0
1, 153779, Control_c, 0, 64, 15
1, 153794, Control_c, 0, 64, 26
1, 153809, Control_c, 0, 64, 37
1, 153824, Control_c, 0, 64, 48
1, 153839, Control_c, 0, 64, 56
1, 153853, Control_c, 0, 64, 61
1, 153868, Control_c, 0, 64, 63
1, 153883, Control_c, 0, 64, 64
1, 153898, Control_c, 0, 64, 65
1, 153913, Control_c, 0, 64, 67
1, 153927, Control_c, 0, 64, 70
1, 153942, Control_c, 0, 64, 73
1, 153957, Control_c, 0, 64, 75
1, 153972, Control_c, 0, 64, 77
1, 153987, Control_c, 0, 64, 78
1, 154002, Control_c, 0, 64, 79
1, 154016, Control_c, 0, 64, 80
1, 154031, Control_c, 0, 64, 80
1, 154079, Note_off_c, 0, 47, 30
1, 154082, Note_off_c, 0, 35, 28
1, 154202, Control_c, 0, 64, 80
1, 154217, Control_c, 0, 64, 79
1, 154247, Control_c, 0, 64, 79
1, 154291, Control_c, 0, 64, 78
1, 154321, Control_c, 0, 64, 78
1, 154351, Control_c, 0, 64, 77
1, 154425, Control_c, 0, 64, 77
1, 154499, Control_c, 0, 64, 76
1, 154544, Control_c, 0, 64, 76
1, 154632, Control_c, 0, 64, 75
1, 154761, Note_on_c, 0, 35, 27
1, 155396, Control_c, 0, 64, 76
1, 155425, Control_c, 0, 64, 76
1, 155455, Control_c, 0, 64, 77
1, 155485, Control_c, 0, 64, 77
1, 155499, Control_c, 0, 64, 78
1, 155514, Control_c, 0, 64, 78
1, 155529, Control_c, 0, 64, 79
1, 155543, Control_c, 0, 64, 79
1, 155558, Control_c, 0, 64, 80
1, 155581, Control_c, 0, 64, 81
1, 155596, Control_c, 0, 64, 82
1, 155611, Control_c, 0, 64, 83
1, 155625, Control_c, 0, 64, 84
1, 155640, Control_c, 0, 64, 86
1, 155655, Control_c, 0, 64, 88
1, 155671, Control_c, 0, 64, 90
1, 155686, Control_c, 0, 64, 93
1, 155701, Control_c, 0, 64, 95
1, 155716, Control_c, 0, 64, 97
1, 155730, Control_c, 0, 64, 99
1, 155745, Control_c, 0, 64, 103
1, 155760, Control_c, 0, 64, 106
1, 155767, Note_off_c, 0, 54, 38
1, 155775, Control_c, 0, 64, 115
1, 155784, Note_off_c, 0, 35, 37
1, 155790, Control_c, 0, 64, 127
1, 155841, Note_off_c, 0, 57, 49
1, 155861, Note_off_c, 0, 63, 44
1, 156026, Control_c, 0, 64, 114
1, 156041, Control_c, 0, 64, 92
1, 156055, Control_c, 0, 64, 72
1, 156070, Control_c, 0, 64, 58
1, 156073, Note_on_c, 0, 40, 53
1, 156074, Note_on_c, 0, 64, 61
1, 156085, Control_c, 0, 64, 0
1, 156106, Note_off_c, 0, 64, 65
1, 156112, Note_off_c, 0, 40, 63
1, 156141, Note_on_c, 0, 52, 62
1, 156187, Note_off_c, 0, 52, 64
1, 156205, Note_on_c, 0, 40, 56
1, 156210, Note_on_c, 0, 69, 69
1, 156233, Note_off_c, 0, 69, 73
1, 156243, Note_off_c, 0, 40, 64
1, 156273, Note_on_c, 0, 52, 64
1, 156313, Note_off_c, 0, 52, 62
1, 156345, Note_on_c, 0, 40, 60
1, 156348, Note_on_c, 0, 67, 67
1, 156380, Note_off_c, 0, 67, 61
1, 156386, Note_off_c, 0, 40, 63
1, 156389, Control_c, 0, 67, 124
1, 156404, Control_c, 0, 67, 110
1, 156411, Note_on_c, 0, 52, 66
1, 156419, Control_c, 0, 67, 87
1, 156434, Control_c, 0, 67, 64
1, 156449, Note_off_c, 0, 52, 66
1, 156449, Control_c, 0, 67, 40
1, 156464, Control_c, 0, 67, 19
1, 156476, Note_on_c, 0, 75, 70
1, 156479, Control_c, 0, 67, 0
1, 156483, Note_on_c, 0, 40, 67
1, 156484, Note_on_c, 0, 69, 59
1, 156504, Note_off_c, 0, 69, 64
1, 156512, Note_off_c, 0, 75, 62
1, 156524, Note_off_c, 0, 40, 62
1, 156543, Note_on_c, 0, 52, 69
1, 156583, Note_off_c, 0, 52, 66
1, 156595, Note_on_c, 0, 76, 83
1, 156606, Note_on_c, 0, 40, 78
1, 156612, Note_on_c, 0, 67, 59
1, 156632, Note_off_c, 0, 76, 65
1, 156633, Note_off_c, 0, 67, 62
1, 156664, Note_off_c, 0, 40, 63
1, 156684, Note_on_c, 0, 52, 61
1, 156714, Note_off_c, 0, 52, 67
1, 156738, Note_on_c, 0, 40, 80
1, 156741, Note_on_c, 0, 79, 66
1, 156747, Note_on_c, 0, 81, 65
1, 156767, Note_off_c, 0, 81, 63
1, 156771, Note_off_c, 0, 79, 63
1, 156791, Note_off_c, 0, 40, 62
1, 156798, Note_on_c, 0, 52, 74
1, 156849, Note_off_c, 0, 52, 66
1, 156860, Note_on_c, 0, 79, 92
1, 156866, Note_on_c, 0, 40, 80
1, 156877, Note_on_c, 0, 76, 60
1, 156896, Note_off_c, 0, 76, 64
1, 156897, Note_off_c, 0, 79, 60
1, 156918, Note_on_c, 0, 52, 81
1, 156938, Note_off_c, 0, 40, 63
1, 156938, Control_c, 0, 64, 25
1, 156953, Control_c, 0, 64, 36
1, 156968, Control_c, 0, 64, 42
1, 156970, Note_off_c, 0, 52, 64
1, 156982, Control_c, 0, 64, 46
1, 156991, Note_on_c, 0, 87, 91
1, 156997, Control_c, 0, 64, 51
1, 157012, Control_c, 0, 64, 57
1, 157014, Note_on_c, 0, 81, 57
1, 157017, Note_on_c, 0, 40, 68
1, 157027, Control_c, 0, 64, 60
1, 157034, Note_off_c, 0, 81, 61
1, 157038, Note_on_c, 0, 52, 64
1, 157038, Note_on_c, 0, 85, 13
1, 157038, Note_off_c, 0, 87, 64
1, 157042, Control_c, 0, 64, 61
1, 157057, Control_c, 0, 64, 62
1, 157059, Note_off_c, 0, 40, 65
1, 157075, Note_off_c, 0, 52, 68
1, 157078, Control_c, 0, 64, 62
1, 157093, Note_off_c, 0, 85, 29
1, 157093, Control_c, 0, 64, 63
1, 157108, Control_c, 0, 64, 64
1, 157123, Control_c, 0, 64, 64
1, 157128, Note_on_c, 0, 88, 97
1, 157134, Note_on_c, 0, 79, 91
1, 157136, Note_on_c, 0, 52, 92
1, 157140, Note_on_c, 0, 40, 74
1, 157152, Control_c, 0, 64, 63
1, 157166, Note_off_c, 0, 40, 66
1, 157167, Control_c, 0, 64, 60
1, 157170, Note_off_c, 0, 79, 66
1, 157180, Note_off_c, 0, 88, 65
1, 157182, Control_c, 0, 64, 51
1, 157184, Note_off_c, 0, 52, 68
1, 157197, Control_c, 0, 64, 0
1, 157283, Note_on_c, 0, 57, 56
1, 157284, Note_on_c, 0, 60, 61
1, 157290, Note_on_c, 0, 55, 56
1, 157302, Note_off_c, 0, 60, 62
1, 157306, Note_off_c, 0, 57, 59
1, 157313, Note_off_c, 0, 55, 60
1, 157421, Note_on_c, 0, 55, 54
1, 157422, Note_on_c, 0, 76, 94
1, 157430, Note_on_c, 0, 59, 41
1, 157444, Note_on_c, 0, 64, 68
1, 157454, Note_off_c, 0, 55, 64
1, 157462, Note_off_c, 0, 59, 53
1, 157477, Note_on_c, 0, 65, 39
1, 157478, Note_off_c, 0, 65, 127
1, 157547, Note_off_c, 0, 64, 64
1, 157548, Note_on_c, 0, 59, 50
1, 157549, Note_on_c, 0, 55, 57
1, 157557, Note_off_c, 0, 76, 65
1, 157571, Note_off_c, 0, 55, 62
1, 157573, Note_off_c, 0, 59, 58
1, 157667, Note_on_c, 0, 52, 75
1, 157701, Control_c, 0, 67, 11
1, 157708, Note_off_c, 0, 52, 63
1, 157716, Control_c, 0, 67, 15
1, 157746, Control_c, 0, 67, 14
1, 157760, Control_c, 0, 67, 14
1, 157810, Note_on_c, 0, 55, 56
1, 157811, Note_on_c, 0, 59, 52
1, 157811, Note_on_c, 0, 76, 77
1, 157829, Note_on_c, 0, 64, 58
1, 157842, Note_off_c, 0, 59, 62
1, 157848, Note_off_c, 0, 64, 63
1, 157850, Note_off_c, 0, 55, 65
1, 157850, Note_off_c, 0, 76, 65
1, 157857, Control_c, 0, 67, 15
1, 157872, Control_c, 0, 67, 16
1, 157887, Control_c, 0, 67, 20
1, 157901, Control_c, 0, 67, 27
1, 157916, Control_c, 0, 67, 34
1, 157931, Control_c, 0, 67, 41
1, 157946, Control_c, 0, 67, 53
1, 157951, Note_on_c, 0, 78, 69
1, 157953, Note_on_c, 0, 66, 61
1, 157954, Note_on_c, 0, 59, 44
1, 157957, Note_on_c, 0, 55, 47
1, 157960, Control_c, 0, 67, 63
1, 157975, Control_c, 0, 67, 72
1, 157981, Note_off_c, 0, 66, 68
1, 157981, Note_off_c, 0, 59, 58
1, 157986, Note_off_c, 0, 55, 65
1, 157988, Note_off_c, 0, 78, 58
1, 157990, Control_c, 0, 67, 79
1, 158005, Control_c, 0, 67, 81
1, 158020, Control_c, 0, 67, 82
1, 158050, Control_c, 0, 67, 81
1, 158065, Control_c, 0, 67, 80
1, 158080, Control_c, 0, 67, 79
1, 158082, Note_on_c, 0, 79, 73
1, 158091, Note_on_c, 0, 55, 47
1, 158091, Note_on_c, 0, 59, 34
1, 158100, Note_on_c, 0, 67, 46
1, 158120, Note_off_c, 0, 55, 58
1, 158124, Note_off_c, 0, 59, 48
1, 158124, Note_off_c, 0, 67, 58
1, 158129, Note_off_c, 0, 79, 58
1, 158233, Note_on_c, 0, 52, 59
1, 158238, Note_on_c, 0, 79, 81
1, 158251, Note_on_c, 0, 67, 53
1, 158283, Note_off_c, 0, 52, 61
1, 158317, Control_c, 0, 67, 79
1, 158332, Control_c, 0, 67, 78
1, 158347, Control_c, 0, 67, 77
1, 158362, Control_c, 0, 67, 77
1, 158372, Note_on_c, 0, 60, 49
1, 158379, Note_on_c, 0, 57, 47
1, 158382, Note_off_c, 0, 67, 61
1, 158391, Control_c, 0, 67, 78
1, 158402, Note_off_c, 0, 60, 60
1, 158406, Note_off_c, 0, 57, 57
1, 158406, Control_c, 0, 67, 80
1, 158421, Control_c, 0, 67, 81
1, 158436, Control_c, 0, 67, 82
1, 158450, Control_c, 0, 67, 83
1, 158464, Note_off_c, 0, 79, 59
1, 158465, Control_c, 0, 67, 83
1, 158480, Control_c, 0, 67, 84
1, 158495, Control_c, 0, 67, 85
1, 158499, Note_on_c, 0, 57, 59
1, 158503, Note_on_c, 0, 60, 52
1, 158512, Note_on_c, 0, 78, 69
1, 158512, Note_on_c, 0, 66, 67
1, 158536, Note_off_c, 0, 57, 60
1, 158541, Note_off_c, 0, 60, 63
1, 158553, Note_off_c, 0, 66, 62
1, 158580, Note_off_c, 0, 78, 62
1, 158648, Note_on_c, 0, 57, 64
1, 158655, Note_on_c, 0, 60, 57
1, 158678, Note_off_c, 0, 57, 65
1, 158687, Note_off_c, 0, 60, 64
1, 158778, Note_on_c, 0, 51, 66
1, 158820, Note_off_c, 0, 51, 56
1, 158899, Note_on_c, 0, 78, 70
1, 158900, Note_on_c, 0, 66, 66
1, 158919, Note_on_c, 0, 60, 53
1, 158920, Note_on_c, 0, 57, 52
1, 158929, Note_off_c, 0, 66, 65
1, 158936, Note_off_c, 0, 78, 57
1, 158941, Note_off_c, 0, 60, 60
1, 158942, Note_off_c, 0, 57, 59
1, 159007, Control_c, 0, 67, 84
1, 159015, Note_on_c, 0, 57, 68
1, 159020, Note_on_c, 0, 60, 62
1, 159022, Control_c, 0, 67, 83
1, 159034, Note_on_c, 0, 79, 70
1, 159037, Control_c, 0, 67, 83
1, 159040, Note_on_c, 0, 67, 59
1, 159050, Note_off_c, 0, 60, 65
1, 159052, Control_c, 0, 67, 82
1, 159056, Note_off_c, 0, 57, 61
1, 159063, Note_off_c, 0, 67, 65
1, 159067, Control_c, 0, 67, 81
1, 159077, Note_off_c, 0, 79, 56
1, 159081, Control_c, 0, 67, 81
1, 159096, Control_c, 0, 67, 80
1, 159111, Control_c, 0, 67, 80
1, 159141, Control_c, 0, 67, 79
1, 159150, Note_on_c, 0, 60, 59
1, 159162, Note_on_c, 0, 81, 68
1, 159165, Note_on_c, 0, 57, 47
1, 159165, Note_on_c, 0, 69, 54
1, 159182, Note_off_c, 0, 60, 64
1, 159188, Note_off_c, 0, 69, 64
1, 159190, Note_off_c, 0, 57, 55
1, 159207, Note_off_c, 0, 81, 54
1, 159215, Control_c, 0, 67, 79
1, 159245, Control_c, 0, 67, 77
1, 159260, Control_c, 0, 67, 75
1, 159274, Control_c, 0, 67, 71
1, 159283, Note_on_c, 0, 81, 68
1, 159286, Note_on_c, 0, 38, 73
1, 159289, Control_c, 0, 67, 64
1, 159292, Note_on_c, 0, 69, 52
1, 159304, Control_c, 0, 67, 52
1, 159307, Note_off_c, 0, 81, 67
1, 159326, Control_c, 0, 67, 38
1, 159328, Note_off_c, 0, 69, 67
1, 159339, Note_off_c, 0, 38, 62
1, 159341, Control_c, 0, 67, 22
1, 159355, Control_c, 0, 67, 0
1, 159373, Note_on_c, 0, 50, 61
1, 159407, Note_off_c, 0, 50, 63
1, 159424, Note_on_c, 0, 67, 73
1, 159439, Note_on_c, 0, 38, 65
1, 159467, Note_off_c, 0, 67, 57
1, 159469, Note_off_c, 0, 38, 65
1, 159489, Note_on_c, 0, 50, 73
1, 159524, Note_off_c, 0, 50, 62
1, 159551, Note_on_c, 0, 66, 82
1, 159555, Note_on_c, 0, 38, 71
1, 159591, Note_off_c, 0, 66, 65
1, 159591, Note_off_c, 0, 38, 64
1, 159616, Note_on_c, 0, 50, 69
1, 159650, Note_off_c, 0, 50, 65
1, 159677, Note_on_c, 0, 38, 80
1, 159679, Note_on_c, 0, 73, 80
1, 159680, Note_on_c, 0, 67, 75
1, 159720, Note_off_c, 0, 38, 62
1, 159728, Note_off_c, 0, 67, 61
1, 159735, Note_on_c, 0, 50, 76
1, 159736, Note_off_c, 0, 73, 56
1, 159785, Note_off_c, 0, 50, 61
1, 159799, Note_on_c, 0, 38, 87
1, 159805, Note_on_c, 0, 74, 76
1, 159852, Note_off_c, 0, 38, 64
1, 159858, Note_off_c, 0, 74, 66
1, 159861, Note_on_c, 0, 50, 77
1, 159875, Control_c, 0, 64, 10
1, 159889, Control_c, 0, 64, 12
1, 159904, Control_c, 0, 64, 14
1, 159913, Note_off_c, 0, 50, 63
1, 159919, Control_c, 0, 64, 18
1, 159928, Note_on_c, 0, 38, 86
1, 159934, Control_c, 0, 64, 22
1, 159936, Note_on_c, 0, 79, 87
1, 159946, Note_on_c, 0, 73, 86
1, 159948, Control_c, 0, 64, 27
1, 159963, Control_c, 0, 64, 29
1, 159972, Note_off_c, 0, 73, 62
1, 159978, Control_c, 0, 64, 32
1, 159984, Note_off_c, 0, 38, 64
1, 159987, Note_off_c, 0, 79, 62
1, 159993, Note_on_c, 0, 50, 77
1, 159993, Control_c, 0, 64, 34
1, 160008, Control_c, 0, 64, 36
1, 160023, Control_c, 0, 64, 36
1, 160041, Note_off_c, 0, 50, 64
1, 160052, Control_c, 0, 64, 37
1, 160056, Note_on_c, 0, 38, 87
1, 160060, Note_on_c, 0, 78, 95
1, 160073, Note_on_c, 0, 74, 74
1, 160074, Control_c, 0, 64, 39
1, 160089, Control_c, 0, 64, 39
1, 160093, Note_off_c, 0, 74, 73
1, 160103, Control_c, 0, 64, 39
1, 160115, Note_off_c, 0, 78, 66
1, 160116, Note_on_c, 0, 50, 80
1, 160118, Control_c, 0, 64, 39
1, 160120, Note_on_c, 0, 76, 14
1, 160121, Note_off_c, 0, 76, 127
1, 160126, Note_off_c, 0, 38, 63
1, 160133, Control_c, 0, 64, 41
1, 160148, Control_c, 0, 64, 43
1, 160163, Control_c, 0, 64, 45
1, 160172, Note_off_c, 0, 50, 63
1, 160178, Control_c, 0, 64, 45
1, 160193, Control_c, 0, 64, 46
1, 160198, Note_on_c, 0, 38, 86
1, 160199, Note_on_c, 0, 79, 96
1, 160201, Note_on_c, 0, 85, 89
1, 160208, Control_c, 0, 64, 48
1, 160222, Control_c, 0, 64, 51
1, 160232, Note_off_c, 0, 79, 62
1, 160236, Note_on_c, 0, 50, 60
1, 160237, Control_c, 0, 64, 54
1, 160252, Control_c, 0, 64, 57
1, 160253, Note_off_c, 0, 85, 64
1, 160256, Note_off_c, 0, 38, 63
1, 160266, Note_off_c, 0, 50, 61
1, 160267, Control_c, 0, 64, 58
1, 160282, Control_c, 0, 64, 59
1, 160286, Poly_aftertouch_c, 0, 45, 0
1, 160296, Control_c, 0, 64, 60
1, 160311, Control_c, 0, 64, 61
1, 160324, Note_on_c, 0, 86, 97
1, 160325, Note_on_c, 0, 38, 72
1, 160330, Note_on_c, 0, 50, 88
1, 160330, Note_on_c, 0, 78, 101
1, 160354, Note_off_c, 0, 38, 65
1, 160355, Control_c, 0, 64, 58
1, 160370, Control_c, 0, 64, 49
1, 160372, Note_off_c, 0, 86, 66
1, 160372, Note_off_c, 0, 50, 64
1, 160385, Control_c, 0, 64, 0
1, 160388, Note_off_c, 0, 78, 64
1, 160461, Note_on_c, 0, 60, 78
1, 160467, Note_on_c, 0, 57, 69
1, 160494, Note_off_c, 0, 60, 59
1, 160514, Note_off_c, 0, 57, 60
1, 160602, Note_on_c, 0, 60, 72
1, 160609, Note_on_c, 0, 78, 100
1, 160613, Note_on_c, 0, 66, 87
1, 160616, Note_on_c, 0, 57, 60
1, 160635, Note_off_c, 0, 60, 59
1, 160644, Note_off_c, 0, 57, 65
1, 160652, Control_c, 0, 67, 13
1, 160667, Control_c, 0, 67, 21
1, 160673, Note_off_c, 0, 66, 60
1, 160682, Control_c, 0, 67, 32
1, 160697, Control_c, 0, 67, 48
1, 160700, Note_off_c, 0, 78, 51
1, 160712, Control_c, 0, 67, 65
1, 160721, Note_on_c, 0, 57, 68
1, 160726, Control_c, 0, 67, 80
1, 160732, Note_on_c, 0, 60, 67
1, 160741, Control_c, 0, 67, 90
1, 160756, Control_c, 0, 67, 96
1, 160758, Note_off_c, 0, 60, 67
1, 160765, Note_off_c, 0, 57, 62
1, 160771, Control_c, 0, 67, 99
1, 160786, Control_c, 0, 67, 99
1, 160838, Control_c, 0, 67, 98
1, 160852, Control_c, 0, 67, 97
1, 160867, Note_on_c, 0, 50, 72
1, 160867, Control_c, 0, 67, 96
1, 160882, Control_c, 0, 67, 95
1, 160897, Control_c, 0, 67, 94
1, 160905, Note_off_c, 0, 50, 58
1, 160912, Control_c, 0, 67, 93
1, 160971, Control_c, 0, 67, 93
1, 160986, Control_c, 0, 67, 95
1, 160997, Note_on_c, 0, 57, 63
1, 161001, Note_on_c, 0, 60, 56
1, 161001, Control_c, 0, 67, 96
1, 161010, Note_on_c, 0, 78, 67
1, 161010, Note_on_c, 0, 66, 61
1, 161016, Control_c, 0, 67, 99
1, 161025, Note_off_c, 0, 57, 66
1, 161031, Control_c, 0, 67, 102
1, 161034, Note_off_c, 0, 60, 65
1, 161044, Note_off_c, 0, 66, 65
1, 161045, Control_c, 0, 67, 110
1, 161057, Note_off_c, 0, 78, 57
1, 161060, Control_c, 0, 67, 121
1, 161075, Control_c, 0, 67, 127
1, 161132, Note_on_c, 0, 57, 60
1, 161136, Note_on_c, 0, 79, 74
1, 161152, Note_on_c, 0, 67, 45
1, 161153, Note_on_c, 0, 60, 29
1, 161161, Note_off_c, 0, 57, 65
1, 161177, Note_off_c, 0, 67, 57
1, 161183, Note_off_c, 0, 60, 47
1, 161185, Note_off_c, 0, 79, 57
1, 161261, Note_on_c, 0, 81, 79
1, 161264, Note_on_c, 0, 57, 53
1, 161268, Note_on_c, 0, 60, 52
1, 161269, Note_on_c, 0, 69, 71
1, 161298, Note_off_c, 0, 57, 64
1, 161300, Note_off_c, 0, 60, 61
1, 161300, Note_off_c, 0, 69, 68
1, 161320, Note_off_c, 0, 81, 59
1, 161411, Note_on_c, 0, 50, 50
1, 161415, Note_on_c, 0, 81, 87
1, 161416, Control_c, 0, 64, 8
1, 161429, Note_on_c, 0, 69, 59
1, 161431, Control_c, 0, 64, 10
1, 161446, Control_c, 0, 64, 12
1, 161460, Control_c, 0, 64, 14
1, 161469, Note_off_c, 0, 50, 57
1, 161475, Control_c, 0, 64, 12
1, 161490, Control_c, 0, 64, 10
1, 161505, Control_c, 0, 64, 0
1, 161537, Note_on_c, 0, 58, 63
1, 161549, Note_on_c, 0, 55, 51
1, 161575, Note_off_c, 0, 58, 64
1, 161576, Note_off_c, 0, 69, 63
1, 161589, Note_off_c, 0, 55, 65
1, 161641, Note_off_c, 0, 81, 59
1, 161685, Note_on_c, 0, 79, 67
1, 161689, Note_on_c, 0, 55, 52
1, 161689, Note_on_c, 0, 67, 66
1, 161692, Note_on_c, 0, 58, 55
1, 161719, Note_off_c, 0, 58, 65
1, 161725, Note_off_c, 0, 55, 65
1, 161732, Note_off_c, 0, 67, 58
1, 161738, Note_off_c, 0, 79, 62
1, 161818, Note_on_c, 0, 55, 57
1, 161822, Note_on_c, 0, 58, 51
1, 161852, Note_off_c, 0, 58, 66
1, 161855, Note_off_c, 0, 55, 65
1, 161944, Note_on_c, 0, 49, 73
1, 162003, Note_off_c, 0, 49, 59
1, 162067, Note_on_c, 0, 67, 74
1, 162074, Note_on_c, 0, 79, 70
1, 162085, Note_on_c, 0, 58, 66
1, 162088, Note_on_c, 0, 55, 59
1, 162101, Note_off_c, 0, 67, 59
1, 162111, Note_off_c, 0, 58, 68
1, 162122, Note_off_c, 0, 79, 56
1, 162123, Note_off_c, 0, 55, 65
1, 162205, Note_on_c, 0, 58, 64
1, 162208, Note_on_c, 0, 81, 79
1, 162209, Note_on_c, 0, 55, 65
1, 162216, Note_on_c, 0, 69, 61
1, 162232, Note_off_c, 0, 58, 67
1, 162240, Note_off_c, 0, 81, 61
1, 162241, Note_off_c, 0, 69, 71
1, 162246, Note_off_c, 0, 55, 65
1, 162330, Note_on_c, 0, 55, 56
1, 162336, Control_c, 0, 67, 119
1, 162338, Note_on_c, 0, 70, 75
1, 162345, Note_on_c, 0, 82, 72
1, 162351, Control_c, 0, 67, 100
1, 162359, Note_off_c, 0, 55, 67
1, 162366, Control_c, 0, 67, 80
1, 162371, Note_off_c, 0, 70, 59
1, 162377, Note_off_c, 0, 82, 61
1, 162381, Control_c, 0, 67, 65
1, 162396, Control_c, 0, 67, 53
1, 162411, Control_c, 0, 67, 43
1, 162425, Control_c, 0, 67, 32
1, 162440, Control_c, 0, 67, 19
1, 162455, Control_c, 0, 67, 0
1, 162469, Note_on_c, 0, 48, 77
1, 162470, Note_on_c, 0, 70, 70
1, 162485, Note_on_c, 0, 36, 45
1, 162486, Note_off_c, 0, 36, 127
1, 162495, Note_off_c, 0, 48, 68
1, 162510, Note_off_c, 0, 70, 59
1, 162542, Note_on_c, 0, 82, 52
1, 162572, Note_off_c, 0, 82, 61
1, 162601, Note_on_c, 0, 49, 79
1, 162607, Note_on_c, 0, 70, 69
1, 162640, Note_off_c, 0, 70, 62
1, 162658, Note_on_c, 0, 82, 61
1, 162703, Note_off_c, 0, 82, 59
1, 162724, Note_on_c, 0, 48, 81
1, 162728, Note_on_c, 0, 70, 76
1, 162754, Note_off_c, 0, 49, 62
1, 162771, Note_off_c, 0, 70, 61
1, 162771, Note_off_c, 0, 48, 62
1, 162802, Note_on_c, 0, 82, 63
1, 162830, Note_off_c, 0, 82, 64
1, 162860, Note_on_c, 0, 53, 86
1, 162862, Note_on_c, 0, 70, 72
1, 162909, Note_on_c, 0, 82, 64
1, 162922, Note_off_c, 0, 70, 61
1, 162959, Control_c, 0, 64, 18
1, 162974, Control_c, 0, 64, 23
1, 162981, Note_on_c, 0, 52, 83
1, 162982, Note_off_c, 0, 82, 60
1, 162989, Control_c, 0, 64, 28
1, 162989, Note_on_c, 0, 70, 72
1, 162991, Note_off_c, 0, 53, 66
1, 163004, Control_c, 0, 64, 32
1, 163019, Control_c, 0, 64, 35
1, 163020, Note_off_c, 0, 52, 63
1, 163033, Control_c, 0, 64, 38
1, 163046, Note_on_c, 0, 82, 64
1, 163048, Control_c, 0, 64, 39
1, 163058, Note_off_c, 0, 70, 63
1, 163085, Control_c, 0, 64, 38
1, 163100, Control_c, 0, 64, 38
1, 163120, Note_off_c, 0, 82, 61
1, 163129, Note_on_c, 0, 70, 72
1, 163129, Control_c, 0, 64, 36
1, 163130, Note_on_c, 0, 61, 91
1, 163144, Control_c, 0, 64, 34
1, 163159, Control_c, 0, 64, 33
1, 163186, Note_on_c, 0, 82, 63
1, 163200, Note_off_c, 0, 70, 61
1, 163233, Control_c, 0, 64, 33
1, 163248, Control_c, 0, 64, 31
1, 163252, Note_on_c, 0, 60, 81
1, 163261, Note_off_c, 0, 82, 62
1, 163263, Control_c, 0, 64, 29
1, 163271, Note_on_c, 0, 70, 73
1, 163275, Note_off_c, 0, 61, 63
1, 163278, Control_c, 0, 64, 28
1, 163293, Control_c, 0, 64, 27
1, 163298, Note_off_c, 0, 60, 63
1, 163308, Control_c, 0, 64, 26
1, 163322, Control_c, 0, 64, 24
1, 163328, Note_on_c, 0, 82, 66
1, 163329, Note_off_c, 0, 70, 62
1, 163337, Control_c, 0, 64, 23
1, 163352, Control_c, 0, 64, 21
1, 163366, Control_c, 0, 64, 19
1, 163381, Control_c, 0, 64, 15
1, 163393, Note_off_c, 0, 82, 54
1, 163396, Control_c, 0, 64, 12
1, 163397, Note_on_c, 0, 65, 87
1, 163397, Note_on_c, 0, 70, 74
1, 163411, Control_c, 0, 64, 10
1, 163455, Control_c, 0, 64, 12
1, 163457, Note_on_c, 0, 82, 62
1, 163466, Note_off_c, 0, 70, 62
1, 163470, Control_c, 0, 64, 14
1, 163484, Control_c, 0, 64, 15
1, 163499, Control_c, 0, 64, 18
1, 163510, Note_on_c, 0, 64, 89
1, 163514, Control_c, 0, 64, 21
1, 163526, Note_off_c, 0, 65, 62
1, 163529, Note_on_c, 0, 70, 74
1, 163529, Note_off_c, 0, 82, 58
1, 163529, Control_c, 0, 64, 22
1, 163544, Control_c, 0, 64, 21
1, 163558, Control_c, 0, 64, 19
1, 163559, Note_off_c, 0, 64, 65
1, 163588, Control_c, 0, 64, 21
1, 163595, Note_on_c, 0, 82, 65
1, 163597, Note_off_c, 0, 70, 61
1, 163603, Control_c, 0, 64, 23
1, 163618, Control_c, 0, 64, 25
1, 163654, Note_on_c, 0, 66, 95
1, 163657, Note_off_c, 0, 82, 59
1, 163663, Control_c, 0, 64, 26
1, 163666, Note_on_c, 0, 70, 73
1, 163678, Control_c, 0, 64, 26
1, 163681, Poly_aftertouch_c, 0, 76, 127
1, 163693, Control_c, 0, 64, 28
1, 163708, Control_c, 0, 64, 33
1, 163722, Note_on_c, 0, 82, 61
1, 163723, Note_off_c, 0, 70, 63
1, 163723, Control_c, 0, 64, 36
1, 163737, Control_c, 0, 64, 38
1, 163752, Control_c, 0, 64, 39
1, 163767, Control_c, 0, 64, 40
1, 163779, Note_off_c, 0, 82, 62
1, 163782, Control_c, 0, 64, 42
1, 163783, Note_on_c, 0, 67, 92
1, 163792, Note_on_c, 0, 70, 74
1, 163795, Control_c, 0, 64, 43
1, 163818, Control_c, 0, 64, 42
1, 163824, Note_off_c, 0, 66, 63
1, 163833, Control_c, 0, 64, 42
1, 163848, Control_c, 0, 64, 41
1, 163854, Note_on_c, 0, 82, 66
1, 163862, Control_c, 0, 64, 40
1, 163862, Note_off_c, 0, 70, 63
1, 163892, Control_c, 0, 64, 39
1, 163907, Control_c, 0, 64, 38
1, 163912, Note_off_c, 0, 82, 63
1, 163922, Control_c, 0, 64, 35
1, 163927, Note_on_c, 0, 70, 69
1, 163936, Control_c, 0, 64, 29
1, 163951, Control_c, 0, 64, 23
1, 163958, Note_off_c, 0, 67, 50
1, 163966, Control_c, 0, 64, 15
1, 163977, Note_on_c, 0, 82, 67
1, 163981, Note_off_c, 0, 70, 63
1, 163981, Control_c, 0, 64, 0
1, 164031, Note_off_c, 0, 82, 63
1, 164053, Note_on_c, 0, 70, 69
1, 164099, Note_off_c, 0, 70, 59
1, 164100, Note_on_c, 0, 82, 65
1, 164143, Control_c, 0, 67, 16
1, 164155, Note_off_c, 0, 82, 62
1, 164158, Control_c, 0, 67, 34
1, 164173, Control_c, 0, 67, 49
1, 164178, Note_on_c, 0, 70, 71
1, 164187, Control_c, 0, 67, 59
1, 164202, Control_c, 0, 67, 66
1, 164212, Note_off_c, 0, 70, 59
1, 164217, Control_c, 0, 67, 71
1, 164224, Note_on_c, 0, 82, 55
1, 164232, Control_c, 0, 67, 76
1, 164247, Control_c, 0, 67, 80
1, 164262, Control_c, 0, 67, 82
1, 164283, Note_off_c, 0, 82, 63
1, 164306, Control_c, 0, 67, 81
1, 164309, Note_on_c, 0, 70, 62
1, 164321, Control_c, 0, 67, 80
1, 164330, Note_off_c, 0, 70, 67
1, 164336, Control_c, 0, 67, 79
1, 164351, Control_c, 0, 67, 78
1, 164354, Note_on_c, 0, 82, 60
1, 164366, Control_c, 0, 67, 78
1, 164380, Control_c, 0, 64, 31
1, 164393, Note_off_c, 0, 82, 61
1, 164395, Control_c, 0, 64, 40
1, 164405, Note_on_c, 0, 70, 67
1, 164410, Control_c, 0, 64, 43
1, 164425, Control_c, 0, 64, 44
1, 164441, Control_c, 0, 64, 46
1, 164456, Control_c, 0, 64, 46
1, 164473, Note_off_c, 0, 70, 61
1, 164485, Control_c, 0, 64, 46
1, 164491, Note_on_c, 0, 82, 64
1, 164492, Poly_aftertouch_c, 0, 76, 0
1, 164500, Control_c, 0, 64, 45
1, 164515, Control_c, 0, 64, 44
1, 164518, Note_off_c, 0, 82, 63
1, 164529, Control_c, 0, 64, 44
1, 164544, Control_c, 0, 64, 42
1, 164548, Note_on_c, 0, 69, 68
1, 164566, Control_c, 0, 64, 40
1, 164581, Control_c, 0, 64, 37
1, 164581, Control_c, 0, 67, 77
1, 164596, Control_c, 0, 64, 32
1, 164596, Control_c, 0, 67, 77
1, 164603, Note_off_c, 0, 69, 59
1, 164611, Control_c, 0, 64, 25
1, 164611, Control_c, 0, 67, 76
1, 164622, Note_on_c, 0, 81, 58
1, 164626, Control_c, 0, 64, 18
1, 164626, Control_c, 0, 67, 75
1, 164640, Control_c, 0, 64, 8
1, 164640, Control_c, 0, 67, 74
1, 164655, Control_c, 0, 64, 0
1, 164655, Control_c, 0, 67, 73
1, 164658, Note_on_c, 0, 42, 79
1, 164665, Note_off_c, 0, 81, 55
1, 164670, Control_c, 0, 67, 72
1, 164678, Note_on_c, 0, 69, 70
1, 164685, Control_c, 0, 67, 71
1, 164700, Control_c, 0, 67, 69
1, 164715, Control_c, 0, 67, 67
1, 164730, Control_c, 0, 67, 62
1, 164733, Note_off_c, 0, 69, 65
1, 164736, Note_on_c, 0, 81, 69
1, 164744, Control_c, 0, 67, 55
1, 164759, Control_c, 0, 67, 45
1, 164774, Control_c, 0, 67, 34
1, 164789, Control_c, 0, 67, 22
1, 164794, Note_off_c, 0, 81, 60
1, 164795, Note_on_c, 0, 41, 73
1, 164800, Note_on_c, 0, 69, 69
1, 164804, Control_c, 0, 67, 0
1, 164816, Note_off_c, 0, 42, 63
1, 164829, Note_off_c, 0, 41, 64
1, 164858, Note_on_c, 0, 81, 64
1, 164858, Note_off_c, 0, 69, 64
1, 164916, Note_off_c, 0, 81, 60
1, 164920, Note_on_c, 0, 69, 67
1, 164930, Note_on_c, 0, 49, 85
1, 164975, Note_off_c, 0, 69, 65
1, 164976, Note_on_c, 0, 81, 66
1, 165037, Note_off_c, 0, 81, 60
1, 165049, Note_on_c, 0, 69, 75
1, 165052, Note_on_c, 0, 48, 89
1, 165070, Note_off_c, 0, 49, 61
1, 165097, Poly_aftertouch_c, 0, 74, 127
1, 165104, Note_off_c, 0, 48, 64
1, 165105, Note_on_c, 0, 81, 75
1, 165109, Note_off_c, 0, 69, 64
1, 165144, Control_c, 0, 64, 8
1, 165159, Control_c, 0, 64, 10
1, 165173, Note_off_c, 0, 81, 58
1, 165174, Control_c, 0, 64, 12
1, 165180, Note_on_c, 0, 69, 76
1, 165197, Note_on_c, 0, 54, 79
1, 165218, Control_c, 0, 64, 14
1, 165236, Note_off_c, 0, 69, 66
1, 165242, Note_on_c, 0, 81, 64
1, 165263, Control_c, 0, 64, 15
1, 165294, Control_c, 0, 64, 14
1, 165308, Note_off_c, 0, 81, 61
1, 165324, Note_on_c, 0, 69, 75
1, 165328, Note_on_c, 0, 53, 86
1, 165363, Note_off_c, 0, 54, 62
1, 165371, Note_on_c, 0, 81, 74
1, 165373, Note_off_c, 0, 53, 67
1, 165379, Note_off_c, 0, 69, 67
1, 165450, Note_off_c, 0, 81, 60
1, 165451, Note_on_c, 0, 69, 75
1, 165460, Note_on_c, 0, 61, 93
1, 165509, Control_c, 0, 64, 17
1, 165511, Note_off_c, 0, 69, 65
1, 165519, Note_on_c, 0, 81, 67
1, 165523, Control_c, 0, 64, 21
1, 165538, Control_c, 0, 64, 23
1, 165553, Control_c, 0, 64, 25
1, 165555, Note_on_c, 0, 79, 14
1, 165567, Control_c, 0, 64, 26
1, 165579, Poly_aftertouch_c, 0, 80, 0
1, 165582, Control_c, 0, 64, 28
1, 165585, Note_on_c, 0, 69, 76
1, 165588, Note_on_c, 0, 60, 86
1, 165589, Note_off_c, 0, 81, 60
1, 165597, Control_c, 0, 64, 29
1, 165603, Note_off_c, 0, 79, 27
1, 165612, Note_off_c, 0, 61, 55
1, 165612, Control_c, 0, 64, 31
1, 165635, Note_on_c, 0, 81, 66
1, 165639, Note_off_c, 0, 60, 64
1, 165655, Note_off_c, 0, 69, 64
1, 165672, Control_c, 0, 64, 32
1, 165687, Control_c, 0, 64, 33
1, 165702, Control_c, 0, 64, 33
1, 165711, Note_on_c, 0, 69, 67
1, 165720, Note_off_c, 0, 81, 60
1, 165723, Note_on_c, 0, 64, 93
1, 165731, Control_c, 0, 64, 34
1, 165746, Control_c, 0, 64, 35
1, 165760, Control_c, 0, 64, 36
1, 165771, Note_on_c, 0, 81, 70
1, 165775, Control_c, 0, 64, 39
1, 165782, Note_off_c, 0, 69, 66
1, 165790, Control_c, 0, 64, 41
1, 165805, Control_c, 0, 64, 42
1, 165820, Control_c, 0, 64, 42
1, 165834, Control_c, 0, 64, 43
1, 165844, Note_off_c, 0, 81, 61
1, 165845, Note_on_c, 0, 69, 68
1, 165849, Control_c, 0, 64, 44
1, 165858, Note_on_c, 0, 65, 94
1, 165864, Control_c, 0, 64, 45
1, 165878, Control_c, 0, 64, 45
1, 165896, Note_off_c, 0, 64, 60
1, 165908, Control_c, 0, 64, 46
1, 165909, Note_on_c, 0, 81, 69
1, 165916, Note_off_c, 0, 69, 65
1, 165923, Control_c, 0, 64, 46
1, 165938, Control_c, 0, 64, 47
1, 165970, Note_off_c, 0, 81, 59
1, 165976, Note_on_c, 0, 69, 63
1, 165982, Control_c, 0, 64, 46
1, 165997, Control_c, 0, 64, 46
1, 166012, Control_c, 0, 64, 45
1, 166028, Control_c, 0, 64, 45
1, 166033, Note_on_c, 0, 81, 71
1, 166039, Note_off_c, 0, 69, 65
1, 166042, Control_c, 0, 64, 43
1, 166064, Control_c, 0, 64, 41
1, 166064, Control_c, 0, 67, 15
1, 166079, Control_c, 0, 64, 38
1, 166079, Control_c, 0, 67, 27
1, 166086, Note_off_c, 0, 65, 59
1, 166094, Control_c, 0, 64, 36
1, 166094, Control_c, 0, 67, 41
1, 166099, Note_off_c, 0, 81, 61
1, 166107, Note_on_c, 0, 69, 69
1, 166108, Control_c, 0, 64, 36
1, 166108, Control_c, 0, 67, 55
1, 166123, Control_c, 0, 64, 35
1, 166123, Control_c, 0, 67, 70
1, 166138, Control_c, 0, 67, 80
1, 166153, Control_c, 0, 64, 34
1, 166153, Control_c, 0, 67, 86
1, 166164, Note_on_c, 0, 81, 69
1, 166168, Control_c, 0, 64, 32
1, 166168, Control_c, 0, 67, 90
1, 166176, Note_off_c, 0, 69, 65
1, 166182, Control_c, 0, 64, 32
1, 166182, Control_c, 0, 67, 91
1, 166197, Control_c, 0, 64, 32
1, 166212, Control_c, 0, 64, 34
1, 166227, Control_c, 0, 64, 35
1, 166231, Note_on_c, 0, 69, 65
1, 166235, Note_off_c, 0, 81, 55
1, 166242, Control_c, 0, 64, 36
1, 166242, Control_c, 0, 67, 90
1, 166257, Control_c, 0, 64, 37
1, 166257, Control_c, 0, 67, 89
1, 166271, Control_c, 0, 64, 40
1, 166271, Control_c, 0, 67, 89
1, 166278, Note_on_c, 0, 81, 58
1, 166286, Control_c, 0, 64, 47
1, 166286, Control_c, 0, 67, 88
1, 166287, Note_off_c, 0, 69, 65
1, 166301, Control_c, 0, 64, 53
1, 166301, Control_c, 0, 67, 87
1, 166316, Control_c, 0, 64, 57
1, 166316, Control_c, 0, 67, 85
1, 166331, Control_c, 0, 64, 58
1, 166331, Control_c, 0, 67, 85
1, 166345, Control_c, 0, 64, 59
1, 166345, Control_c, 0, 67, 84
1, 166352, Note_on_c, 0, 69, 70
1, 166360, Control_c, 0, 64, 61
1, 166360, Control_c, 0, 67, 84
1, 166366, Note_off_c, 0, 81, 58
1, 166375, Control_c, 0, 64, 62
1, 166375, Control_c, 0, 67, 83
1, 166390, Control_c, 0, 64, 64
1, 166390, Control_c, 0, 67, 82
1, 166405, Control_c, 0, 64, 64
1, 166405, Control_c, 0, 67, 82
1, 166407, Note_off_c, 0, 69, 65
1, 166420, Control_c, 0, 64, 65
1, 166420, Control_c, 0, 67, 81
1, 166422, Note_on_c, 0, 81, 52
1, 166435, Control_c, 0, 64, 66
1, 166435, Control_c, 0, 67, 81
1, 166450, Control_c, 0, 64, 66
1, 166464, Control_c, 0, 64, 67
1, 166474, Note_on_c, 0, 69, 70
1, 166507, Note_off_c, 0, 81, 0
1, 166521, Note_on_c, 0, 81, 41
1, 166523, Control_c, 0, 67, 81
1, 166526, Note_off_c, 0, 69, 64
1, 166538, Control_c, 0, 64, 66
1, 166553, Control_c, 0, 64, 66
1, 166553, Control_c, 0, 67, 82
1, 166568, Control_c, 0, 64, 65
1, 166568, Control_c, 0, 67, 82
1, 166572, Note_off_c, 0, 81, 61
1, 166582, Control_c, 0, 64, 64
1, 166582, Control_c, 0, 67, 83
1, 166597, Control_c, 0, 64, 63
1, 166600, Note_on_c, 0, 68, 72
1, 166612, Control_c, 0, 64, 62
1, 166627, Control_c, 0, 64, 60
1, 166642, Control_c, 0, 64, 57
1, 166642, Control_c, 0, 67, 83
1, 166656, Control_c, 0, 64, 54
1, 166656, Control_c, 0, 67, 84
1, 166661, Note_off_c, 0, 68, 59
1, 166667, Note_on_c, 0, 80, 70
1, 166671, Control_c, 0, 64, 48
1, 166686, Control_c, 0, 64, 44
1, 166686, Control_c, 0, 67, 84
1, 166700, Control_c, 0, 64, 40
1, 166715, Control_c, 0, 64, 35
1, 166716, Note_off_c, 0, 80, 58
1, 166723, Note_on_c, 0, 48, 71
1, 166730, Note_on_c, 0, 68, 65
1, 166730, Control_c, 0, 64, 26
1, 166745, Control_c, 0, 64, 10
1, 166745, Control_c, 0, 67, 85
1, 166760, Control_c, 0, 64, 0
1, 166784, Note_off_c, 0, 68, 60
1, 166790, Note_on_c, 0, 80, 69
1, 166854, Note_off_c, 0, 80, 63
1, 166866, Note_on_c, 0, 47, 82
1, 166868, Note_on_c, 0, 68, 70
1, 166902, Control_c, 0, 67, 84
1, 166917, Control_c, 0, 67, 84
1, 166923, Note_off_c, 0, 48, 55
1, 166927, Note_on_c, 0, 80, 73
1, 166927, Note_off_c, 0, 68, 60
1, 166983, Note_off_c, 0, 80, 62
1, 166997, Note_on_c, 0, 68, 64
1, 167004, Note_on_c, 0, 50, 85
1, 167044, Note_off_c, 0, 68, 59
1, 167049, Note_on_c, 0, 80, 69
1, 167093, Note_off_c, 0, 47, 58
1, 167109, Control_c, 0, 64, 39
1, 167113, Note_off_c, 0, 80, 64
1, 167122, Note_on_c, 0, 68, 76
1, 167123, Note_on_c, 0, 53, 87
1, 167124, Control_c, 0, 64, 49
1, 167124, Control_c, 0, 67, 83
1, 167132, Note_off_c, 0, 50, 63
1, 167138, Control_c, 0, 64, 53
1, 167138, Control_c, 0, 67, 82
1, 167153, Control_c, 0, 64, 54
1, 167153, Control_c, 0, 67, 81
1, 167168, Control_c, 0, 64, 55
1, 167168, Control_c, 0, 67, 80
1, 167169, Note_off_c, 0, 53, 67
1, 167174, Note_off_c, 0, 68, 63
1, 167183, Note_on_c, 0, 80, 72
1, 167183, Control_c, 0, 67, 78
1, 167198, Control_c, 0, 64, 56
1, 167198, Control_c, 0, 67, 76
1, 167213, Control_c, 0, 67, 73
1, 167228, Control_c, 0, 64, 55
1, 167228, Control_c, 0, 67, 69
1, 167243, Control_c, 0, 64, 55
1, 167243, Control_c, 0, 67, 64
1, 167246, Note_off_c, 0, 80, 62
1, 167246, Note_on_c, 0, 68, 75
1, 167258, Control_c, 0, 64, 54
1, 167258, Control_c, 0, 67, 58
1, 167263, Note_on_c, 0, 60, 89
1, 167273, Control_c, 0, 64, 54
1, 167273, Control_c, 0, 67, 50
1, 167287, Control_c, 0, 64, 52
1, 167287, Control_c, 0, 67, 44
1, 167302, Control_c, 0, 64, 50
1, 167302, Control_c, 0, 67, 40
1, 167303, Note_on_c, 0, 80, 70
1, 167305, Note_off_c, 0, 68, 62
1, 167317, Control_c, 0, 64, 49
1, 167317, Control_c, 0, 67, 39
1, 167331, Control_c, 0, 64, 47
1, 167331, Control_c, 0, 67, 38
1, 167346, Control_c, 0, 64, 45
1, 167346, Control_c, 0, 67, 36
1, 167361, Control_c, 0, 64, 42
1, 167361, Control_c, 0, 67, 34
1, 167367, Note_off_c, 0, 80, 63
1, 167376, Note_on_c, 0, 68, 75
1, 167376, Control_c, 0, 64, 36
1, 167376, Control_c, 0, 67, 29
1, 167389, Note_on_c, 0, 59, 88
1, 167391, Control_c, 0, 64, 10
1, 167391, Control_c, 0, 67, 20
1, 167405, Control_c, 0, 64, 0
1, 167405, Control_c, 0, 67, 0
1, 167419, Note_off_c, 0, 60, 61
1, 167432, Note_off_c, 0, 68, 61
1, 167437, Note_on_c, 0, 80, 72
1, 167492, Note_off_c, 0, 80, 63
1, 167502, Note_on_c, 0, 68, 75
1, 167511, Note_on_c, 0, 62, 91
1, 167566, Note_on_c, 0, 80, 69
1, 167568, Note_off_c, 0, 68, 63
1, 167623, Note_off_c, 0, 59, 33
1, 167634, Note_off_c, 0, 80, 63
1, 167649, Note_on_c, 0, 68, 76
1, 167657, Note_on_c, 0, 65, 93
1, 167687, Note_off_c, 0, 62, 65
1, 167703, Note_off_c, 0, 65, 65
1, 167707, Note_off_c, 0, 68, 63
1, 167711, Note_on_c, 0, 80, 70
1, 167770, Note_off_c, 0, 80, 62
1, 167785, Note_on_c, 0, 68, 69
1, 167831, Note_off_c, 0, 68, 60
1, 167836, Note_on_c, 0, 80, 69
1, 167905, Note_off_c, 0, 80, 63
1, 167928, Note_on_c, 0, 68, 77
1, 167934, Note_on_c, 0, 62, 97
1, 167980, Note_off_c, 0, 68, 61
1, 167985, Note_off_c, 0, 62, 65
1, 167985, Note_on_c, 0, 80, 65
1, 168051, Note_off_c, 0, 80, 60
1, 168054, Note_on_c, 0, 68, 68
1, 168095, Note_off_c, 0, 68, 59
1, 168120, Note_on_c, 0, 80, 62
1, 168172, Note_off_c, 0, 80, 61
1, 168191, Note_on_c, 0, 68, 65
1, 168204, Note_on_c, 0, 59, 96
1, 168240, Note_on_c, 0, 80, 72
1, 168249, Note_off_c, 0, 68, 56
1, 168263, Note_off_c, 0, 59, 68
1, 168264, Poly_aftertouch_c, 0, 74, 0
1, 168316, Note_on_c, 0, 67, 73
1, 168323, Note_off_c, 0, 80, 63
1, 168375, Note_off_c, 0, 67, 61
1, 168381, Note_on_c, 0, 79, 75
1, 168447, Note_off_c, 0, 79, 54
1, 168456, Note_on_c, 0, 67, 76
1, 168476, Note_on_c, 0, 55, 99
1, 168489, Control_c, 0, 64, 8
1, 168503, Control_c, 0, 64, 23
1, 168518, Note_off_c, 0, 67, 61
1, 168518, Control_c, 0, 64, 28
1, 168520, Note_on_c, 0, 79, 71
1, 168524, Note_off_c, 0, 55, 67
1, 168533, Control_c, 0, 64, 31
1, 168548, Control_c, 0, 64, 34
1, 168563, Control_c, 0, 64, 36
1, 168569, Note_off_c, 0, 79, 62
1, 168585, Note_on_c, 0, 65, 80
1, 168592, Control_c, 0, 64, 37
1, 168607, Control_c, 0, 64, 37
1, 168622, Control_c, 0, 64, 36
1, 168637, Control_c, 0, 64, 35
1, 168646, Note_on_c, 0, 77, 81
1, 168650, Note_off_c, 0, 65, 61
1, 168666, Control_c, 0, 64, 36
1, 168710, Control_c, 0, 64, 37
1, 168725, Control_c, 0, 64, 39
1, 168729, Note_on_c, 0, 65, 81
1, 168739, Note_off_c, 0, 77, 52
1, 168740, Control_c, 0, 64, 40
1, 168748, Note_on_c, 0, 61, 97
1, 168751, Note_on_c, 0, 49, 89
1, 168755, Control_c, 0, 64, 44
1, 168770, Control_c, 0, 64, 49
1, 168784, Control_c, 0, 64, 51
1, 168793, Note_on_c, 0, 77, 70
1, 168799, Control_c, 0, 64, 53
1, 168805, Note_off_c, 0, 65, 62
1, 168814, Control_c, 0, 64, 54
1, 168829, Control_c, 0, 64, 55
1, 168853, Note_off_c, 0, 77, 63
1, 168858, Control_c, 0, 64, 54
1, 168863, Note_off_c, 0, 61, 60
1, 168868, Note_off_c, 0, 49, 59
1, 168872, Note_on_c, 0, 64, 84
1, 168873, Control_c, 0, 64, 52
1, 168888, Control_c, 0, 64, 51
1, 168903, Control_c, 0, 64, 50
1, 168918, Control_c, 0, 64, 48
1, 168930, Note_on_c, 0, 76, 81
1, 168933, Control_c, 0, 64, 44
1, 168942, Note_off_c, 0, 64, 64
1, 168948, Control_c, 0, 64, 39
1, 168963, Control_c, 0, 64, 36
1, 168977, Control_c, 0, 64, 38
1, 168983, Note_on_c, 0, 73, 24
1, 168992, Control_c, 0, 64, 40
1, 168997, Note_off_c, 0, 76, 62
1, 169007, Note_on_c, 0, 64, 79
1, 169007, Control_c, 0, 64, 40
1, 169010, Note_on_c, 0, 58, 98
1, 169013, Note_on_c, 0, 46, 88
1, 169024, Note_off_c, 0, 73, 41
1, 169037, Control_c, 0, 64, 41
1, 169059, Control_c, 0, 64, 43
1, 169070, Note_on_c, 0, 76, 67
1, 169074, Control_c, 0, 64, 44
1, 169075, Note_off_c, 0, 64, 66
1, 169089, Control_c, 0, 64, 44
1, 169103, Control_c, 0, 64, 42
1, 169123, Note_off_c, 0, 76, 66
1, 169133, Control_c, 0, 64, 40
1, 169142, Note_off_c, 0, 58, 59
1, 169145, Note_off_c, 0, 46, 62
1, 169148, Note_on_c, 0, 61, 83
1, 169148, Control_c, 0, 64, 36
1, 169163, Control_c, 0, 64, 19
1, 169178, Control_c, 0, 64, 0
1, 169197, Note_on_c, 0, 73, 65
1, 169204, Note_off_c, 0, 61, 57
1, 169250, Note_on_c, 0, 74, 37
1, 169277, Note_on_c, 0, 61, 85
1, 169277, Poly_aftertouch_c, 0, 66, 0
1, 169277, Note_off_c, 0, 74, 57
1, 169280, Note_off_c, 0, 73, 62
1, 169291, Note_on_c, 0, 55, 91
1, 169292, Note_on_c, 0, 43, 90
1, 169314, Poly_aftertouch_c, 0, 66, 127
1, 169320, Note_on_c, 0, 57, 31
1, 169321, Note_off_c, 0, 57, 127
1, 169342, Note_on_c, 0, 73, 80
1, 169365, Note_off_c, 0, 61, 61
1, 169377, Poly_aftertouch_c, 0, 66, 0
1, 169395, Note_off_c, 0, 55, 59
1, 169400, Note_off_c, 0, 73, 64
1, 169416, Note_off_c, 0, 43, 62
1, 169419, Note_on_c, 0, 60, 82
1, 169484, Note_off_c, 0, 60, 61
1, 169494, Note_on_c, 0, 72, 57
1, 169551, Note_on_c, 0, 52, 96
1, 169553, Note_on_c, 0, 40, 88
1, 169561, Note_on_c, 0, 60, 74
1, 169592, Note_off_c, 0, 72, 0
1, 169609, Note_on_c, 0, 72, 50
1, 169613, Note_off_c, 0, 40, 62
1, 169614, Note_off_c, 0, 60, 62
1, 169636, Note_off_c, 0, 52, 62
1, 169666, Note_off_c, 0, 72, 65
1, 169693, Note_on_c, 0, 58, 72
1, 169728, Note_off_c, 0, 58, 60
1, 169744, Poly_aftertouch_c, 0, 64, 127
1, 169759, Note_on_c, 0, 70, 65
1, 169815, Note_off_c, 0, 70, 52
1, 169824, Note_on_c, 0, 58, 77
1, 169838, Note_on_c, 0, 41, 74
1, 169839, Note_on_c, 0, 53, 66
1, 169869, Note_off_c, 0, 58, 61
1, 169881, Note_off_c, 0, 53, 60
1, 169892, Note_on_c, 0, 70, 61
1, 169897, Poly_aftertouch_c, 0, 64, 0
1, 169920, Note_off_c, 0, 70, 67
1, 169926, Note_off_c, 0, 41, 59
1, 169952, Note_on_c, 0, 56, 68
1, 169987, Note_off_c, 0, 56, 59
1, 170009, Note_on_c, 0, 68, 67
1, 170042, Note_off_c, 0, 68, 64
1, 170076, Note_on_c, 0, 56, 67
1, 170128, Note_off_c, 0, 56, 49
1, 170140, Note_on_c, 0, 68, 61
1, 170172, Note_off_c, 0, 68, 63
1, 170199, Note_on_c, 0, 55, 64
1, 170248, Note_off_c, 0, 55, 59
1, 170253, Control_c, 0, 67, 21
1, 170262, Note_on_c, 0, 67, 71
1, 170268, Control_c, 0, 67, 34
1, 170283, Control_c, 0, 67, 48
1, 170298, Control_c, 0, 67, 63
1, 170313, Control_c, 0, 67, 80
1, 170325, Note_off_c, 0, 67, 59
1, 170328, Control_c, 0, 67, 96
1, 170338, Note_on_c, 0, 55, 56
1, 170343, Control_c, 0, 67, 109
1, 170357, Control_c, 0, 67, 119
1, 170361, Note_on_c, 0, 29, 60
1, 170364, Note_on_c, 0, 41, 55
1, 170372, Control_c, 0, 67, 123
1, 170377, Note_off_c, 0, 55, 63
1, 170387, Control_c, 0, 67, 124
1, 170396, Note_on_c, 0, 67, 61
1, 170417, Control_c, 0, 67, 124
1, 170431, Control_c, 0, 67, 125
1, 170438, Note_off_c, 0, 29, 59
1, 170441, Note_off_c, 0, 67, 58
1, 170446, Control_c, 0, 67, 126
1, 170453, Note_off_c, 0, 41, 57
1, 170461, Control_c, 0, 67, 127
1, 170470, Note_on_c, 0, 53, 58
1, 170506, Note_off_c, 0, 53, 63
1, 170528, Note_on_c, 0, 65, 63
1, 170568, Note_off_c, 0, 65, 60
1, 170599, Note_on_c, 0, 53, 63
1, 170662, Note_off_c, 0, 53, 62
1, 170677, Note_on_c, 0, 65, 53
1, 170713, Note_off_c, 0, 65, 58
1, 170760, Note_on_c, 0, 51, 60
1, 170793, Note_off_c, 0, 51, 65
1, 170816, Note_on_c, 0, 63, 73
1, 170846, Note_off_c, 0, 63, 63
1, 170867, Note_on_c, 0, 42, 66
1, 170868, Note_on_c, 0, 30, 64
1, 170884, Note_on_c, 0, 51, 68
1, 170919, Note_off_c, 0, 51, 61
1, 170920, Note_off_c, 0, 42, 57
1, 170925, Note_off_c, 0, 30, 61
1, 170945, Note_on_c, 0, 63, 55
1, 170966, Note_off_c, 0, 63, 63
1, 171011, Note_on_c, 0, 50, 57
1, 171039, Note_off_c, 0, 50, 64
1, 171064, Note_on_c, 0, 62, 59
1, 171094, Note_off_c, 0, 62, 63
1, 171124, Note_on_c, 0, 50, 67
1, 171160, Note_off_c, 0, 50, 66
1, 171196, Note_on_c, 0, 62, 48
1, 171224, Note_off_c, 0, 62, 56
1, 171249, Note_on_c, 0, 51, 72
1, 171301, Note_off_c, 0, 51, 55
1, 171325, Note_on_c, 0, 63, 54
1, 171359, Note_off_c, 0, 63, 64
1, 171395, Note_on_c, 0, 42, 64
1, 171399, Note_on_c, 0, 30, 60
1, 171399, Note_on_c, 0, 51, 61
1, 171438, Note_off_c, 0, 51, 60
1, 171446, Note_off_c, 0, 42, 56
1, 171446, Note_off_c, 0, 30, 60
1, 171449, Note_on_c, 0, 63, 64
1, 171481, Note_off_c, 0, 63, 62
1, 171523, Note_on_c, 0, 50, 64
1, 171559, Note_off_c, 0, 50, 64
1, 171584, Note_on_c, 0, 62, 61
1, 171619, Note_off_c, 0, 62, 60
1, 171647, Note_on_c, 0, 50, 62
1, 171683, Note_off_c, 0, 50, 63
1, 171718, Note_on_c, 0, 62, 61
1, 171744, Note_off_c, 0, 62, 65
1, 171784, Note_on_c, 0, 48, 57
1, 171818, Note_off_c, 0, 48, 63
1, 171851, Note_on_c, 0, 60, 51
1, 171903, Note_off_c, 0, 60, 50
1, 171956, Note_on_c, 0, 31, 48
1, 171959, Note_on_c, 0, 59, 62
1, 171961, Note_on_c, 0, 47, 45
1, 172000, Note_off_c, 0, 31, 61
1, 172018, Note_on_c, 0, 43, 52
1, 172018, Note_off_c, 0, 59, 62
1, 172072, Note_off_c, 0, 43, 61
1, 172119, Note_on_c, 0, 31, 50
1, 172135, Note_off_c, 0, 47, 56
1, 172147, Note_off_c, 0, 31, 53
1, 172179, Note_on_c, 0, 43, 47
1, 172209, Note_off_c, 0, 43, 51
1, 172231, Note_on_c, 0, 31, 62
1, 172239, Note_on_c, 0, 49, 48
1, 172268, Note_off_c, 0, 31, 63
1, 172277, Note_on_c, 0, 56, 46
1, 172288, Note_off_c, 0, 49, 61
1, 172297, Note_on_c, 0, 43, 51
1, 172329, Note_off_c, 0, 56, 56
1, 172329, Note_off_c, 0, 43, 52
1, 172332, Note_on_c, 0, 52, 58
1, 172369, Note_on_c, 0, 31, 53
1, 172400, Note_off_c, 0, 31, 62
1, 172405, Note_on_c, 0, 49, 48
1, 172415, Note_off_c, 0, 52, 58
1, 172421, Note_on_c, 0, 43, 58
1, 172464, Note_off_c, 0, 43, 55
1, 172477, Note_on_c, 0, 50, 60
1, 172479, Note_off_c, 0, 49, 55
1, 172492, Note_on_c, 0, 31, 57
1, 172528, Note_off_c, 0, 31, 64
1, 172546, Note_on_c, 0, 56, 57
1, 172557, Note_off_c, 0, 50, 56
1, 172561, Note_on_c, 0, 43, 49
1, 172594, Note_off_c, 0, 43, 49
1, 172615, Note_on_c, 0, 53, 52
1, 172632, Note_on_c, 0, 31, 54
1, 172658, Note_off_c, 0, 56, 37
1, 172662, Note_off_c, 0, 31, 61
1, 172687, Note_on_c, 0, 50, 53
1, 172688, Note_on_c, 0, 43, 51
1, 172698, Note_off_c, 0, 53, 56
1, 172728, Note_off_c, 0, 43, 49
1, 172743, Note_off_c, 0, 50, 60
1, 172745, Note_on_c, 0, 48, 64
1, 172751, Note_on_c, 0, 31, 60
1, 172805, Note_off_c, 0, 31, 61
1, 172814, Note_on_c, 0, 56, 53
1, 172817, Note_off_c, 0, 48, 59
1, 172834, Note_on_c, 0, 43, 48
1, 172864, Note_off_c, 0, 43, 52
1, 172873, Note_on_c, 0, 51, 55
1, 172912, Note_on_c, 0, 31, 51
1, 172915, Note_off_c, 0, 56, 56
1, 172941, Note_off_c, 0, 31, 55
1, 172945, Note_on_c, 0, 48, 60
1, 172948, Note_off_c, 0, 51, 57
1, 172951, Note_on_c, 0, 43, 56
1, 172991, Note_off_c, 0, 43, 62
1, 173025, Note_on_c, 0, 31, 58
1, 173034, Note_on_c, 0, 47, 63
1, 173039, Note_off_c, 0, 48, 56
1, 173078, Note_off_c, 0, 31, 62
1, 173105, Note_on_c, 0, 43, 44
1, 173108, Note_on_c, 0, 55, 50
1, 173126, Note_off_c, 0, 47, 60
1, 173141, Note_off_c, 0, 43, 49
1, 173164, Note_on_c, 0, 50, 50
1, 173174, Note_on_c, 0, 31, 49
1, 173184, Note_off_c, 0, 55, 54
1, 173205, Note_off_c, 0, 31, 59
1, 173206, Note_off_c, 0, 50, 63
1, 173228, Note_on_c, 0, 43, 58
1, 173232, Note_on_c, 0, 47, 64
1, 173266, Note_off_c, 0, 43, 60
1, 173292, Note_on_c, 0, 31, 61
1, 173308, Note_on_c, 0, 49, 58
1, 173308, Note_off_c, 0, 47, 61
1, 173334, Note_off_c, 0, 31, 61
1, 173363, Note_on_c, 0, 43, 51
1, 173383, Note_off_c, 0, 49, 59
1, 173389, Note_on_c, 0, 56, 51
1, 173393, Note_off_c, 0, 43, 53
1, 173433, Note_on_c, 0, 31, 57
1, 173440, Note_on_c, 0, 52, 60
1, 173466, Note_off_c, 0, 31, 63
1, 173474, Note_off_c, 0, 56, 56
1, 173486, Note_on_c, 0, 43, 58
1, 173521, Note_off_c, 0, 52, 61
1, 173525, Note_off_c, 0, 43, 62
1, 173552, Note_on_c, 0, 50, 41
1, 173568, Note_on_c, 0, 31, 59
1, 173610, Note_off_c, 0, 31, 62
1, 173643, Note_on_c, 0, 43, 48
1, 173658, Note_on_c, 0, 56, 56
1, 173660, Note_off_c, 0, 50, 60
1, 173675, Note_off_c, 0, 43, 51
1, 173698, Note_on_c, 0, 31, 53
1, 173732, Note_on_c, 0, 53, 41
1, 173732, Note_off_c, 0, 31, 62
1, 173750, Note_on_c, 0, 50, 49
1, 173766, Note_on_c, 0, 43, 47
1, 173786, Note_off_c, 0, 56, 35
1, 173795, Note_off_c, 0, 43, 52
1, 173806, Note_off_c, 0, 53, 34
1, 173825, Note_on_c, 0, 31, 66
1, 173825, Note_off_c, 0, 50, 60
1, 173832, Note_on_c, 0, 48, 75
1, 173875, Note_off_c, 0, 31, 64
1, 173894, Note_on_c, 0, 43, 50
1, 173902, Note_on_c, 0, 56, 58
1, 173902, Note_off_c, 0, 48, 61
1, 173926, Note_off_c, 0, 43, 57
1, 173944, Note_on_c, 0, 51, 57
1, 173974, Note_on_c, 0, 31, 46
1, 173984, Note_off_c, 0, 56, 57
1, 174003, Note_off_c, 0, 31, 52
1, 174015, Note_off_c, 0, 51, 57
1, 174018, Note_on_c, 0, 43, 61
1, 174020, Note_on_c, 0, 48, 65
1, 174059, Note_off_c, 0, 48, 61
1, 174060, Note_off_c, 0, 43, 63
1, 174100, Note_on_c, 0, 31, 69
1, 174104, Note_on_c, 0, 47, 59
1, 174104, Note_on_c, 0, 55, 67
1, 174115, Note_on_c, 0, 50, 53
1, 174127, Note_off_c, 0, 47, 59
1, 174131, Control_c, 0, 67, 116
1, 174138, Note_off_c, 0, 55, 67
1, 174139, Note_off_c, 0, 50, 56
1, 174146, Control_c, 0, 67, 103
1, 174150, Note_off_c, 0, 31, 64
1, 174161, Control_c, 0, 67, 90
1, 174173, Note_on_c, 0, 43, 68
1, 174176, Control_c, 0, 67, 79
1, 174190, Control_c, 0, 67, 70
1, 174205, Control_c, 0, 67, 62
1, 174220, Control_c, 0, 67, 54
1, 174221, Note_off_c, 0, 43, 59
1, 174235, Control_c, 0, 67, 46
1, 174249, Control_c, 0, 67, 36
1, 174251, Note_on_c, 0, 31, 68
1, 174257, Note_on_c, 0, 64, 66
1, 174264, Control_c, 0, 67, 27
1, 174278, Control_c, 0, 67, 18
1, 174298, Note_off_c, 0, 31, 63
1, 174298, Note_off_c, 0, 64, 63
1, 174301, Control_c, 0, 67, 0
1, 174331, Note_on_c, 0, 43, 67
1, 174363, Note_off_c, 0, 43, 63
1, 174394, Note_on_c, 0, 31, 69
1, 174406, Note_on_c, 0, 65, 68
1, 174430, Note_off_c, 0, 31, 64
1, 174430, Note_off_c, 0, 65, 67
1, 174451, Note_on_c, 0, 73, 13
1, 174458, Note_on_c, 0, 43, 67
1, 174498, Note_off_c, 0, 43, 63
1, 174501, Note_off_c, 0, 73, 37
1, 174519, Note_on_c, 0, 31, 77
1, 174528, Note_on_c, 0, 64, 80
1, 174549, Note_on_c, 0, 73, 37
1, 174561, Note_off_c, 0, 64, 61
1, 174564, Note_off_c, 0, 31, 64
1, 174582, Control_c, 0, 64, 32
1, 174583, Note_off_c, 0, 73, 53
1, 174590, Note_on_c, 0, 43, 72
1, 174597, Control_c, 0, 64, 45
1, 174612, Control_c, 0, 64, 51
1, 174626, Note_off_c, 0, 43, 64
1, 174626, Control_c, 0, 64, 54
1, 174641, Control_c, 0, 64, 56
1, 174641, Note_on_c, 0, 31, 79
1, 174647, Note_on_c, 0, 74, 85
1, 174656, Control_c, 0, 64, 58
1, 174671, Control_c, 0, 64, 59
1, 174674, Note_on_c, 0, 65, 42
1, 174686, Control_c, 0, 64, 60
1, 174698, Note_off_c, 0, 31, 64
1, 174701, Control_c, 0, 64, 62
1, 174702, Note_off_c, 0, 74, 66
1, 174707, Note_off_c, 0, 65, 34
1, 174716, Control_c, 0, 64, 62
1, 174716, Note_on_c, 0, 43, 75
1, 174745, Control_c, 0, 64, 62
1, 174760, Control_c, 0, 64, 61
1, 174769, Note_off_c, 0, 43, 59
1, 174772, Note_on_c, 0, 31, 78
1, 174775, Control_c, 0, 64, 60
1, 174784, Note_on_c, 0, 76, 88
1, 174787, Note_on_c, 0, 73, 87
1, 174790, Control_c, 0, 64, 57
1, 174804, Control_c, 0, 64, 48
1, 174820, Control_c, 0, 64, 14
1, 174823, Note_off_c, 0, 73, 58
1, 174826, Note_off_c, 0, 31, 63
1, 174835, Control_c, 0, 64, 0
1, 174838, Note_off_c, 0, 76, 66
1, 174844, Note_on_c, 0, 43, 72
1, 174895, Note_off_c, 0, 43, 60
1, 174903, Note_on_c, 0, 31, 83
1, 174910, Note_on_c, 0, 77, 95
1, 174916, Note_on_c, 0, 74, 86
1, 174941, Note_off_c, 0, 74, 68
1, 174955, Note_off_c, 0, 77, 65
1, 174962, Note_off_c, 0, 31, 63
1, 174969, Note_on_c, 0, 43, 77
1, 175029, Note_on_c, 0, 31, 84
1, 175048, Note_on_c, 0, 76, 94
1, 175049, Note_on_c, 0, 85, 95
1, 175065, Note_off_c, 0, 43, 0
1, 175078, Note_off_c, 0, 76, 67
1, 175083, Note_on_c, 0, 43, 40
1, 175097, Note_off_c, 0, 31, 64
1, 175102, Note_off_c, 0, 85, 65
1, 175153, Control_c, 0, 64, 14
1, 175166, Note_off_c, 0, 43, 61
1, 175168, Control_c, 0, 64, 31
1, 175177, Note_on_c, 0, 86, 94
1, 175178, Note_on_c, 0, 31, 90
1, 175180, Note_on_c, 0, 77, 99
1, 175183, Control_c, 0, 64, 37
1, 175198, Control_c, 0, 64, 40
1, 175212, Note_off_c, 0, 77, 68
1, 175213, Control_c, 0, 64, 41
1, 175227, Control_c, 0, 64, 42
1, 175234, Note_off_c, 0, 86, 63
1, 175242, Control_c, 0, 64, 43
1, 175257, Control_c, 0, 64, 44
1, 175271, Control_c, 0, 64, 45
1, 175286, Control_c, 0, 64, 46
1, 175305, Note_on_c, 0, 43, 77
1, 175311, Note_on_c, 0, 88, 98
1, 175316, Note_on_c, 0, 85, 89
1, 175332, Note_off_c, 0, 85, 74
1, 175359, Note_off_c, 0, 88, 65
1, 175360, Control_c, 0, 64, 47
1, 175375, Control_c, 0, 64, 47
1, 175390, Control_c, 0, 64, 48
1, 175405, Control_c, 0, 64, 49
1, 175434, Control_c, 0, 64, 48
1, 175449, Control_c, 0, 64, 41
1, 175463, Note_on_c, 0, 35, 89
1, 175464, Control_c, 0, 64, 0
1, 175469, Note_on_c, 0, 89, 103
1, 175470, Note_on_c, 0, 86, 100
1, 175470, Note_off_c, 0, 43, 58
1, 175475, Note_off_c, 0, 31, 65
1, 175579, Note_on_c, 0, 43, 72
1, 175735, Note_on_c, 0, 36, 93
1, 175741, Note_off_c, 0, 43, 58
1, 175777, Control_c, 0, 64, 18
1, 175799, Control_c, 0, 64, 43
1, 175800, Note_off_c, 0, 35, 57
1, 175814, Control_c, 0, 64, 51
1, 175829, Control_c, 0, 64, 57
1, 175834, Note_off_c, 0, 89, 58
1, 175844, Control_c, 0, 64, 61
1, 175858, Control_c, 0, 64, 64
1, 175865, Note_off_c, 0, 86, 62
1, 175873, Note_on_c, 0, 43, 88
1, 175873, Control_c, 0, 64, 65
1, 175888, Control_c, 0, 64, 65
1, 175917, Control_c, 0, 64, 66
1, 175932, Control_c, 0, 64, 65
1, 175947, Control_c, 0, 64, 60
1, 175962, Control_c, 0, 64, 0
1, 176019, Note_off_c, 0, 43, 62
1, 176020, Note_on_c, 0, 87, 97
1, 176022, Note_on_c, 0, 30, 89
1, 176024, Note_on_c, 0, 84, 87
1, 176067, Note_off_c, 0, 84, 67
1, 176081, Note_off_c, 0, 87, 68
1, 176092, Note_on_c, 0, 89, 85
1, 176111, Note_off_c, 0, 30, 64
1, 176125, Note_on_c, 0, 87, 79
1, 176140, Note_on_c, 0, 43, 74
1, 176170, Note_off_c, 0, 87, 61
1, 176179, Note_off_c, 0, 36, 62
1, 176183, Note_on_c, 0, 86, 67
1, 176184, Control_c, 0, 64, 8
1, 176199, Control_c, 0, 64, 10
1, 176208, Note_off_c, 0, 86, 66
1, 176213, Control_c, 0, 64, 15
1, 176225, Note_on_c, 0, 87, 73
1, 176228, Control_c, 0, 64, 27
1, 176243, Control_c, 0, 64, 43
1, 176244, Note_off_c, 0, 89, 65
1, 176258, Control_c, 0, 64, 59
1, 176260, Note_off_c, 0, 43, 60
1, 176270, Note_on_c, 0, 31, 90
1, 176273, Control_c, 0, 64, 67
1, 176287, Note_on_c, 0, 86, 85
1, 176287, Control_c, 0, 64, 78
1, 176288, Note_on_c, 0, 83, 82
1, 176294, Note_on_c, 0, 84, 79
1, 176302, Control_c, 0, 64, 94
1, 176314, Note_off_c, 0, 84, 72
1, 176317, Note_off_c, 0, 87, 65
1, 176317, Control_c, 0, 64, 100
1, 176347, Control_c, 0, 64, 99
1, 176348, Note_off_c, 0, 86, 63
1, 176356, Note_off_c, 0, 83, 61
1, 176361, Control_c, 0, 64, 94
1, 176375, Note_off_c, 0, 31, 60
1, 176376, Note_on_c, 0, 43, 76
1, 176376, Control_c, 0, 64, 84
1, 176391, Control_c, 0, 64, 73
1, 176406, Control_c, 0, 64, 64
1, 176422, Control_c, 0, 64, 41
1, 176437, Control_c, 0, 64, 0
1, 176452, Note_off_c, 0, 43, 59
1, 176481, Control_c, 0, 67, 8
1, 176488, Note_on_c, 0, 31, 67
1, 176496, Control_c, 0, 67, 16
1, 176510, Control_c, 0, 67, 20
1, 176524, Control_c, 0, 67, 22
1, 176525, Note_off_c, 0, 31, 60
1, 176546, Control_c, 0, 67, 23
1, 176550, Note_on_c, 0, 43, 63
1, 176561, Control_c, 0, 67, 25
1, 176572, Note_on_c, 0, 49, 63
1, 176576, Control_c, 0, 67, 28
1, 176591, Control_c, 0, 67, 32
1, 176597, Note_off_c, 0, 43, 58
1, 176606, Control_c, 0, 67, 35
1, 176621, Control_c, 0, 67, 38
1, 176626, Note_on_c, 0, 31, 58
1, 176630, Note_on_c, 0, 56, 51
1, 176636, Note_off_c, 0, 49, 60
1, 176636, Control_c, 0, 67, 40
1, 176650, Control_c, 0, 67, 43
1, 176657, Note_off_c, 0, 31, 64
1, 176665, Control_c, 0, 67, 45
1, 176680, Control_c, 0, 67, 47
1, 176681, Note_on_c, 0, 43, 62
1, 176695, Control_c, 0, 67, 49
1, 176700, Note_on_c, 0, 52, 50
1, 176707, Note_off_c, 0, 56, 60
1, 176710, Control_c, 0, 67, 54
1, 176716, Note_off_c, 0, 43, 61
1, 176724, Control_c, 0, 67, 64
1, 176739, Control_c, 0, 67, 73
1, 176745, Note_on_c, 0, 31, 63
1, 176751, Note_on_c, 0, 49, 61
1, 176754, Control_c, 0, 67, 82
1, 176769, Control_c, 0, 67, 90
1, 176779, Note_off_c, 0, 31, 63
1, 176784, Control_c, 0, 67, 96
1, 176788, Note_off_c, 0, 52, 60
1, 176798, Control_c, 0, 67, 102
1, 176800, Note_on_c, 0, 43, 65
1, 176813, Control_c, 0, 67, 106
1, 176814, Note_off_c, 0, 49, 59
1, 176835, Note_on_c, 0, 50, 65
1, 176838, Note_off_c, 0, 43, 62
1, 176873, Note_on_c, 0, 31, 67
1, 176887, Control_c, 0, 67, 105
1, 176901, Note_on_c, 0, 56, 54
1, 176902, Note_off_c, 0, 50, 62
1, 176902, Control_c, 0, 67, 103
1, 176909, Note_off_c, 0, 31, 64
1, 176916, Control_c, 0, 67, 103
1, 176937, Note_on_c, 0, 43, 57
1, 176957, Note_on_c, 0, 53, 57
1, 176969, Note_off_c, 0, 43, 59
1, 176990, Note_off_c, 0, 56, 54
1, 177001, Note_on_c, 0, 31, 60
1, 177005, Control_c, 0, 67, 104
1, 177022, Note_on_c, 0, 50, 58
1, 177041, Note_off_c, 0, 31, 62
1, 177043, Note_off_c, 0, 53, 50
1, 177066, Note_on_c, 0, 43, 60
1, 177073, Note_off_c, 0, 50, 62
1, 177091, Note_on_c, 0, 48, 68
1, 177104, Note_off_c, 0, 43, 62
1, 177124, Control_c, 0, 67, 103
1, 177133, Note_on_c, 0, 31, 65
1, 177139, Control_c, 0, 67, 103
1, 177148, Note_off_c, 0, 48, 59
1, 177173, Note_off_c, 0, 31, 63
1, 177178, Note_on_c, 0, 56, 46
1, 177183, Control_c, 0, 67, 102
1, 177190, Note_on_c, 0, 51, 61
1, 177198, Control_c, 0, 67, 102
1, 177206, Note_on_c, 0, 43, 57
1, 177239, Note_off_c, 0, 43, 60
1, 177247, Note_off_c, 0, 56, 50
1, 177256, Note_off_c, 0, 51, 50
1, 177270, Note_on_c, 0, 48, 64
1, 177289, Note_on_c, 0, 31, 62
1, 177330, Note_off_c, 0, 31, 63
1, 177350, Note_on_c, 0, 47, 76
1, 177354, Control_c, 0, 67, 101
1, 177355, Note_on_c, 0, 43, 61
1, 177365, Note_off_c, 0, 48, 56
1, 177399, Control_c, 0, 67, 101
1, 177401, Note_off_c, 0, 43, 60
1, 177423, Note_off_c, 0, 47, 64
1, 177423, Note_on_c, 0, 31, 66
1, 177443, Note_on_c, 0, 55, 54
1, 177469, Note_off_c, 0, 31, 62
1, 177485, Note_on_c, 0, 50, 43
1, 177494, Note_off_c, 0, 55, 57
1, 177514, Note_off_c, 0, 50, 57
1, 177518, Note_on_c, 0, 43, 41
1, 177548, Note_on_c, 0, 47, 61
1, 177551, Note_off_c, 0, 43, 48
1, 177570, Note_on_c, 0, 31, 61
1, 177603, Note_off_c, 0, 31, 63
1, 177622, Note_on_c, 0, 49, 59
1, 177626, Note_off_c, 0, 47, 61
1, 177629, Note_on_c, 0, 43, 64
1, 177662, Note_off_c, 0, 43, 61
1, 177687, Note_off_c, 0, 49, 61
1, 177691, Note_on_c, 0, 31, 60
1, 177701, Note_on_c, 0, 56, 54
1, 177710, Control_c, 0, 67, 100
1, 177727, Note_off_c, 0, 31, 64
1, 177756, Note_on_c, 0, 43, 63
1, 177760, Note_off_c, 0, 56, 48
1, 177762, Note_on_c, 0, 52, 46
1, 177793, Note_off_c, 0, 43, 61
1, 177799, Control_c, 0, 67, 101
1, 177805, Note_on_c, 0, 49, 66
1, 177816, Note_off_c, 0, 52, 57
1, 177819, Note_on_c, 0, 31, 65
1, 177855, Note_off_c, 0, 31, 64
1, 177858, Note_off_c, 0, 49, 59
1, 177882, Note_on_c, 0, 43, 63
1, 177888, Note_on_c, 0, 50, 66
1, 177917, Control_c, 0, 67, 100
1, 177923, Note_off_c, 0, 43, 59
1, 177932, Control_c, 0, 67, 100
1, 177942, Note_on_c, 0, 31, 68
1, 177959, Note_off_c, 0, 50, 63
1, 177962, Control_c, 0, 67, 99
1, 177988, Note_off_c, 0, 31, 64
1, 177993, Note_on_c, 0, 57, 38
1, 178006, Note_on_c, 0, 53, 59
1, 178016, Note_on_c, 0, 43, 63
1, 178026, Note_off_c, 0, 57, 51
1, 178044, Control_c, 0, 67, 100
1, 178053, Note_off_c, 0, 43, 62
1, 178074, Control_c, 0, 67, 100
1, 178075, Note_off_c, 0, 53, 63
1, 178079, Note_on_c, 0, 50, 58
1, 178090, Note_on_c, 0, 31, 66
1, 178129, Note_off_c, 0, 31, 63
1, 178141, Note_off_c, 0, 50, 62
1, 178146, Note_on_c, 0, 48, 72
1, 178148, Control_c, 0, 67, 100
1, 178153, Note_on_c, 0, 43, 65
1, 178162, Control_c, 0, 67, 99
1, 178177, Control_c, 0, 67, 98
1, 178186, Note_off_c, 0, 43, 58
1, 178192, Control_c, 0, 67, 97
1, 178207, Note_on_c, 0, 56, 70
1, 178207, Control_c, 0, 67, 97
1, 178212, Note_off_c, 0, 48, 62
1, 178217, Note_on_c, 0, 31, 65
1, 178222, Control_c, 0, 67, 96
1, 178236, Control_c, 0, 67, 94
1, 178251, Control_c, 0, 67, 93
1, 178255, Note_off_c, 0, 31, 64
1, 178257, Note_on_c, 0, 51, 60
1, 178266, Control_c, 0, 67, 91
1, 178280, Note_on_c, 0, 43, 67
1, 178281, Control_c, 0, 67, 91
1, 178289, Note_off_c, 0, 56, 55
1, 178296, Control_c, 0, 67, 90
1, 178318, Note_off_c, 0, 51, 54
1, 178319, Note_off_c, 0, 43, 60
1, 178320, Note_on_c, 0, 48, 70
1, 178326, Control_c, 0, 67, 89
1, 178341, Control_c, 0, 67, 88
1, 178350, Note_on_c, 0, 31, 64
1, 178356, Control_c, 0, 67, 87
1, 178370, Control_c, 0, 67, 85
1, 178375, Note_off_c, 0, 48, 58
1, 178379, Note_off_c, 0, 31, 64
1, 178385, Control_c, 0, 67, 82
1, 178400, Control_c, 0, 67, 77
1, 178400, Note_on_c, 0, 43, 74
1, 178412, Note_on_c, 0, 47, 63
1, 178414, Note_on_c, 0, 50, 73
1, 178414, Control_c, 0, 67, 70
1, 178416, Note_on_c, 0, 55, 65
1, 178429, Control_c, 0, 67, 61
1, 178437, Note_off_c, 0, 47, 58
1, 178437, Note_off_c, 0, 50, 66
1, 178444, Control_c, 0, 67, 50
1, 178447, Note_off_c, 0, 55, 66
1, 178457, Note_off_c, 0, 43, 57
1, 178457, Note_on_c, 0, 31, 69
1, 178459, Control_c, 0, 67, 41
1, 178474, Control_c, 0, 67, 37
1, 178488, Control_c, 0, 67, 36
1, 178507, Note_off_c, 0, 31, 64
1, 178528, Note_on_c, 0, 43, 64
1, 178533, Control_c, 0, 67, 37
1, 178555, Note_on_c, 0, 64, 76
1, 178570, Note_off_c, 0, 43, 57
1, 178577, Control_c, 0, 67, 37
1, 178592, Control_c, 0, 67, 38
1, 178593, Note_on_c, 0, 31, 70
1, 178597, Note_off_c, 0, 64, 63
1, 178633, Note_off_c, 0, 31, 62
1, 178636, Control_c, 0, 67, 37
1, 178663, Note_on_c, 0, 43, 71
1, 178666, Control_c, 0, 67, 36
1, 178681, Control_c, 0, 67, 34
1, 178683, Note_on_c, 0, 65, 81
1, 178695, Control_c, 0, 67, 30
1, 178697, Note_off_c, 0, 43, 55
1, 178710, Note_off_c, 0, 65, 65
1, 178710, Control_c, 0, 67, 24
1, 178711, Note_on_c, 0, 31, 79
1, 178725, Control_c, 0, 67, 18
1, 178740, Control_c, 0, 67, 10
1, 178747, Note_off_c, 0, 31, 65
1, 178755, Control_c, 0, 67, 0
1, 178774, Note_on_c, 0, 43, 72
1, 178815, Note_on_c, 0, 64, 78
1, 178825, Note_off_c, 0, 43, 59
1, 178833, Note_on_c, 0, 73, 40
1, 178839, Note_on_c, 0, 72, 58
1, 178843, Note_on_c, 0, 31, 75
1, 178845, Note_off_c, 0, 64, 64
1, 178859, Note_off_c, 0, 72, 67
1, 178865, Note_off_c, 0, 73, 36
1, 178887, Note_off_c, 0, 31, 64
1, 178919, Note_on_c, 0, 43, 72
1, 178944, Note_on_c, 0, 74, 85
1, 178956, Note_on_c, 0, 31, 88
1, 178964, Note_on_c, 0, 67, 55
1, 178970, Note_off_c, 0, 43, 60
1, 178987, Note_off_c, 0, 67, 59
1, 178990, Note_off_c, 0, 74, 67
1, 179008, Note_off_c, 0, 31, 64
1, 179029, Note_on_c, 0, 43, 67
1, 179071, Note_on_c, 0, 76, 88
1, 179075, Note_on_c, 0, 73, 87
1, 179082, Note_on_c, 0, 31, 79
1, 179089, Note_off_c, 0, 43, 58
1, 179102, Note_off_c, 0, 73, 61
1, 179116, Note_off_c, 0, 76, 68
1, 179131, Note_off_c, 0, 31, 64
1, 179156, Note_on_c, 0, 43, 68
1, 179199, Note_off_c, 0, 43, 58
1, 179200, Note_on_c, 0, 31, 85
1, 179201, Note_on_c, 0, 77, 92
1, 179202, Note_on_c, 0, 74, 85
1, 179224, Note_off_c, 0, 74, 69
1, 179241, Note_off_c, 0, 77, 64
1, 179247, Note_off_c, 0, 31, 64
1, 179268, Control_c, 0, 64, 14
1, 179271, Note_on_c, 0, 43, 81
1, 179283, Control_c, 0, 64, 25
1, 179298, Control_c, 0, 64, 31
1, 179312, Control_c, 0, 64, 34
1, 179321, Note_on_c, 0, 31, 89
1, 179323, Note_on_c, 0, 76, 92
1, 179326, Note_on_c, 0, 85, 90
1, 179327, Control_c, 0, 64, 38
1, 179342, Control_c, 0, 64, 42
1, 179343, Note_on_c, 0, 82, 61
1, 179355, Note_off_c, 0, 76, 67
1, 179355, Note_off_c, 0, 85, 66
1, 179357, Control_c, 0, 64, 46
1, 179362, Note_off_c, 0, 82, 65
1, 179372, Control_c, 0, 64, 51
1, 179380, Note_off_c, 0, 31, 64
1, 179387, Control_c, 0, 64, 55
1, 179402, Control_c, 0, 64, 57
1, 179411, Note_off_c, 0, 43, 0
1, 179411, Note_on_c, 0, 43, 3
1, 179417, Control_c, 0, 64, 59
1, 179432, Control_c, 0, 64, 60
1, 179445, Note_off_c, 0, 43, 59
1, 179449, Note_on_c, 0, 31, 86
1, 179449, Note_on_c, 0, 86, 93
1, 179455, Note_on_c, 0, 77, 81
1, 179462, Note_on_c, 0, 79, 79
1, 179475, Note_off_c, 0, 77, 69
1, 179482, Note_off_c, 0, 79, 69
1, 179499, Note_off_c, 0, 86, 66
1, 179572, Control_c, 0, 64, 60
1, 179590, Note_on_c, 0, 88, 95
1, 179591, Note_on_c, 0, 43, 78
1, 179594, Note_on_c, 0, 85, 92
1, 179602, Control_c, 0, 64, 61
1, 179633, Note_off_c, 0, 85, 65
1, 179647, Note_off_c, 0, 88, 64
1, 179647, Control_c, 0, 64, 61
1, 179676, Control_c, 0, 64, 62
1, 179691, Control_c, 0, 64, 62
1, 179706, Control_c, 0, 64, 63
1, 179721, Control_c, 0, 64, 62
1, 179734, Note_on_c, 0, 35, 90
1, 179736, Control_c, 0, 64, 60
1, 179737, Note_on_c, 0, 86, 102
1, 179739, Note_on_c, 0, 89, 97
1, 179751, Control_c, 0, 64, 51
1, 179751, Note_off_c, 0, 31, 64
1, 179759, Note_off_c, 0, 43, 61
1, 179766, Control_c, 0, 64, 0
1, 179860, Note_on_c, 0, 43, 80
1, 179998, Note_on_c, 0, 36, 92
1, 180014, Note_off_c, 0, 43, 60
1, 180032, Control_c, 0, 64, 42
1, 180047, Control_c, 0, 64, 67
1, 180061, Note_off_c, 0, 89, 56
1, 180061, Control_c, 0, 64, 76
1, 180076, Control_c, 0, 64, 85
1, 180091, Control_c, 0, 64, 90
1, 180106, Control_c, 0, 64, 92
1, 180114, Note_off_c, 0, 35, 61
1, 180120, Note_off_c, 0, 86, 62
1, 180121, Control_c, 0, 64, 94
1, 180133, Note_on_c, 0, 43, 89
1, 180135, Control_c, 0, 64, 95
1, 180150, Control_c, 0, 64, 101
1, 180165, Control_c, 0, 64, 114
1, 180180, Control_c, 0, 64, 127
1, 180239, Control_c, 0, 64, 89
1, 180254, Control_c, 0, 64, 62
1, 180262, Note_off_c, 0, 43, 63
1, 180269, Control_c, 0, 64, 0
1, 180271, Note_on_c, 0, 30, 92
1, 180275, Note_on_c, 0, 87, 98
1, 180288, Note_on_c, 0, 84, 83
1, 180317, Note_off_c, 0, 84, 62
1, 180321, Control_c, 0, 64, 36
1, 180336, Note_off_c, 0, 87, 67
1, 180336, Control_c, 0, 64, 64
1, 180350, Control_c, 0, 64, 76
1, 180351, Note_on_c, 0, 89, 89
1, 180365, Control_c, 0, 64, 82
1, 180377, Note_off_c, 0, 30, 64
1, 180383, Note_on_c, 0, 87, 70
1, 180392, Note_on_c, 0, 43, 75
1, 180409, Control_c, 0, 64, 83
1, 180426, Control_c, 0, 64, 86
1, 180428, Note_off_c, 0, 36, 61
1, 180439, Note_off_c, 0, 87, 64
1, 180440, Control_c, 0, 64, 96
1, 180441, Note_on_c, 0, 86, 75
1, 180455, Control_c, 0, 64, 109
1, 180465, Note_off_c, 0, 86, 67
1, 180467, Note_on_c, 0, 87, 71
1, 180470, Control_c, 0, 64, 127
1, 180472, Note_off_c, 0, 89, 33
1, 180529, Control_c, 0, 64, 97
1, 180543, Note_on_c, 0, 31, 90
1, 180544, Note_on_c, 0, 86, 102
1, 180544, Control_c, 0, 64, 71
1, 180552, Note_on_c, 0, 83, 83
1, 180558, Note_off_c, 0, 43, 61
1, 180559, Control_c, 0, 64, 39
1, 180573, Control_c, 0, 64, 0
1, 180577, Note_off_c, 0, 87, 64
1, 180580, Note_off_c, 0, 83, 60
1, 180583, Note_off_c, 0, 86, 67
1, 180675, Note_on_c, 0, 88, 96
1, 180678, Note_on_c, 0, 85, 94
1, 180681, Note_on_c, 0, 43, 76
1, 180700, Note_off_c, 0, 85, 68
1, 180721, Note_off_c, 0, 88, 67
1, 180824, Note_on_c, 0, 35, 91
1, 180826, Note_on_c, 0, 89, 102
1, 180827, Note_on_c, 0, 86, 97
1, 180847, Note_off_c, 0, 31, 64
1, 180851, Note_off_c, 0, 43, 62
1, 180956, Note_on_c, 0, 43, 76
1, 181107, Note_on_c, 0, 36, 94
1, 181120, Note_off_c, 0, 43, 62
1, 181128, Control_c, 0, 64, 46
1, 181143, Control_c, 0, 64, 70
1, 181158, Control_c, 0, 64, 77
1, 181173, Control_c, 0, 64, 79
1, 181187, Control_c, 0, 64, 84
1, 181202, Control_c, 0, 64, 104
1, 181218, Control_c, 0, 64, 127
1, 181225, Note_off_c, 0, 89, 55
1, 181236, Note_off_c, 0, 35, 32
1, 181250, Note_on_c, 0, 43, 89
1, 181262, Note_off_c, 0, 86, 61
1, 181381, Control_c, 0, 64, 73
1, 181385, Note_on_c, 0, 87, 94
1, 181387, Note_on_c, 0, 30, 90
1, 181390, Note_on_c, 0, 84, 87
1, 181396, Control_c, 0, 64, 0
1, 181414, Note_off_c, 0, 43, 60
1, 181431, Note_on_c, 0, 32, 39
1, 181441, Note_off_c, 0, 84, 64
1, 181444, Note_off_c, 0, 87, 64
1, 181456, Note_on_c, 0, 89, 85
1, 181474, Note_off_c, 0, 32, 50
1, 181491, Note_on_c, 0, 87, 73
1, 181518, Note_on_c, 0, 43, 82
1, 181533, Note_off_c, 0, 30, 62
1, 181546, Note_off_c, 0, 87, 64
1, 181551, Note_on_c, 0, 86, 56
1, 181567, Note_on_c, 0, 91, 52
1, 181569, Note_on_c, 0, 87, 62
1, 181574, Note_off_c, 0, 86, 64
1, 181599, Note_off_c, 0, 89, 62
1, 181604, Note_off_c, 0, 91, 60
1, 181611, Note_off_c, 0, 36, 57
1, 181632, Control_c, 0, 64, 17
1, 181638, Note_on_c, 0, 31, 94
1, 181638, Note_on_c, 0, 86, 93
1, 181647, Control_c, 0, 64, 46
1, 181650, Note_on_c, 0, 83, 85
1, 181662, Control_c, 0, 64, 33
1, 181665, Note_off_c, 0, 43, 60
1, 181677, Control_c, 0, 64, 0
1, 181678, Note_off_c, 0, 87, 63
1, 181702, Note_off_c, 0, 86, 64
1, 181711, Note_off_c, 0, 83, 58
1, 181776, Note_on_c, 0, 43, 81
1, 181787, Note_on_c, 0, 88, 98
1, 181792, Note_on_c, 0, 85, 86
1, 181834, Note_off_c, 0, 85, 65
1, 181864, Note_off_c, 0, 88, 61
1, 181915, Note_on_c, 0, 35, 89
1, 181924, Note_on_c, 0, 89, 98
1, 181926, Note_on_c, 0, 86, 100
1, 181927, Note_on_c, 0, 33, 39
1, 181945, Note_off_c, 0, 31, 64
1, 181948, Note_off_c, 0, 43, 63
1, 181980, Note_off_c, 0, 33, 53
1, 182049, Note_on_c, 0, 43, 73
1, 182100, Control_c, 0, 64, 38
1, 182115, Control_c, 0, 64, 32
1, 182129, Control_c, 0, 64, 36
1, 182144, Control_c, 0, 64, 50
1, 182159, Control_c, 0, 64, 64
1, 182174, Control_c, 0, 64, 74
1, 182178, Note_on_c, 0, 36, 93
1, 182189, Control_c, 0, 64, 92
1, 182192, Note_off_c, 0, 43, 62
1, 182204, Control_c, 0, 64, 127
1, 182299, Note_off_c, 0, 89, 53
1, 182309, Note_off_c, 0, 35, 60
1, 182320, Note_on_c, 0, 43, 93
1, 182336, Note_off_c, 0, 86, 61
1, 182441, Control_c, 0, 64, 89
1, 182451, Note_on_c, 0, 30, 98
1, 182452, Note_on_c, 0, 87, 100
1, 182454, Note_on_c, 0, 84, 86
1, 182455, Control_c, 0, 64, 50
1, 182469, Note_off_c, 0, 43, 46
1, 182470, Control_c, 0, 64, 0
1, 182487, Note_on_c, 0, 29, 56
1, 182489, Note_off_c, 0, 84, 65
1, 182516, Control_c, 0, 64, 35
1, 182522, Note_off_c, 0, 87, 67
1, 182524, Note_on_c, 0, 89, 86
1, 182525, Note_off_c, 0, 29, 49
1, 182538, Control_c, 0, 64, 62
1, 182553, Control_c, 0, 64, 64
1, 182558, Note_on_c, 0, 43, 62
1, 182564, Note_off_c, 0, 30, 64
1, 182568, Control_c, 0, 64, 65
1, 182574, Note_on_c, 0, 87, 69
1, 182582, Control_c, 0, 64, 66
1, 182594, Note_off_c, 0, 36, 62
1, 182597, Control_c, 0, 64, 71
1, 182608, Note_on_c, 0, 86, 76
1, 182612, Control_c, 0, 64, 82
1, 182614, Note_off_c, 0, 89, 63
1, 182619, Note_off_c, 0, 87, 61
1, 182627, Control_c, 0, 64, 96
1, 182642, Control_c, 0, 64, 101
1, 182656, Control_c, 0, 64, 102
1, 182661, Note_on_c, 0, 87, 67
1, 182666, Note_off_c, 0, 86, 62
1, 182686, Control_c, 0, 64, 98
1, 182701, Control_c, 0, 64, 80
1, 182716, Control_c, 0, 64, 62
1, 182721, Note_on_c, 0, 31, 93
1, 182730, Control_c, 0, 64, 0
1, 182737, Note_on_c, 0, 86, 82
1, 182746, Note_on_c, 0, 83, 84
1, 182748, Note_on_c, 0, 84, 71
1, 182764, Note_off_c, 0, 87, 63
1, 182767, Note_off_c, 0, 43, 50
1, 182817, Note_off_c, 0, 86, 58
1, 182820, Note_on_c, 0, 89, 87
1, 182839, Note_off_c, 0, 83, 61
1, 182842, Note_off_c, 0, 84, 27
1, 182887, Note_on_c, 0, 86, 76
1, 182892, Note_on_c, 0, 88, 66
1, 182941, Note_on_c, 0, 84, 81
1, 182944, Note_off_c, 0, 89, 63
1, 182958, Note_off_c, 0, 88, 58
1, 182978, Note_off_c, 0, 86, 62
1, 183006, Note_on_c, 0, 83, 87
1, 183009, Note_off_c, 0, 31, 53
1, 183024, Note_off_c, 0, 84, 64
1, 183068, Note_on_c, 0, 89, 74
1, 183101, Note_off_c, 0, 83, 53
1, 183134, Note_on_c, 0, 86, 79
1, 183146, Control_c, 0, 67, 9
1, 183161, Control_c, 0, 67, 11
1, 183176, Control_c, 0, 67, 15
1, 183191, Control_c, 0, 67, 19
1, 183200, Note_on_c, 0, 84, 80
1, 183200, Note_off_c, 0, 89, 52
1, 183205, Control_c, 0, 67, 23
1, 183220, Control_c, 0, 67, 26
1, 183235, Control_c, 0, 67, 30
1, 183237, Note_off_c, 0, 86, 60
1, 183250, Control_c, 0, 67, 36
1, 183265, Control_c, 0, 67, 41
1, 183268, Note_on_c, 0, 83, 81
1, 183268, Note_off_c, 0, 84, 62
1, 183286, Control_c, 0, 67, 46
1, 183301, Control_c, 0, 67, 52
1, 183316, Control_c, 0, 67, 57
1, 183331, Control_c, 0, 67, 62
1, 183335, Note_on_c, 0, 89, 74
1, 183346, Control_c, 0, 64, 23
1, 183346, Control_c, 0, 67, 67
1, 183351, Note_off_c, 0, 83, 59
1, 183360, Control_c, 0, 64, 32
1, 183360, Control_c, 0, 67, 71
1, 183375, Control_c, 0, 64, 35
1, 183375, Control_c, 0, 67, 75
1, 183390, Control_c, 0, 64, 38
1, 183390, Control_c, 0, 67, 76
1, 183397, Note_on_c, 0, 86, 76
1, 183405, Control_c, 0, 64, 41
1, 183420, Control_c, 0, 64, 43
1, 183435, Control_c, 0, 64, 44
1, 183450, Control_c, 0, 64, 44
1, 183462, Note_on_c, 0, 84, 77
1, 183468, Note_off_c, 0, 89, 52
1, 183486, Note_off_c, 0, 86, 58
1, 183494, Control_c, 0, 64, 44
1, 183509, Control_c, 0, 64, 42
1, 183509, Control_c, 0, 67, 76
1, 183524, Control_c, 0, 64, 39
1, 183532, Note_off_c, 0, 84, 63
1, 183536, Note_on_c, 0, 83, 78
1, 183538, Control_c, 0, 64, 36
1, 183553, Control_c, 0, 64, 29
1, 183568, Control_c, 0, 64, 0
1, 183598, Note_on_c, 0, 86, 73
1, 183598, Control_c, 0, 67, 75
1, 183606, Note_off_c, 0, 83, 61
1, 183614, Control_c, 0, 67, 74
1, 183628, Control_c, 0, 67, 73
1, 183655, Note_on_c, 0, 83, 60
1, 183658, Control_c, 0, 67, 72
1, 183673, Control_c, 0, 67, 71
1, 183688, Control_c, 0, 67, 71
1, 183699, Note_off_c, 0, 86, 57
1, 183711, Note_off_c, 0, 83, 62
1, 183718, Note_on_c, 0, 79, 73
1, 183732, Control_c, 0, 67, 71
1, 183747, Control_c, 0, 67, 72
1, 183762, Control_c, 0, 67, 73
1, 183776, Control_c, 0, 67, 74
1, 183791, Note_on_c, 0, 80, 70
1, 183791, Control_c, 0, 67, 75
1, 183799, Note_off_c, 0, 79, 55
1, 183806, Control_c, 0, 67, 76
1, 183821, Control_c, 0, 67, 78
1, 183827, Note_on_c, 0, 82, 72
1, 183835, Control_c, 0, 67, 81
1, 183850, Note_off_c, 0, 80, 63
1, 183850, Control_c, 0, 67, 87
1, 183865, Control_c, 0, 67, 94
1, 183880, Control_c, 0, 67, 101
1, 183895, Note_on_c, 0, 80, 66
1, 183895, Control_c, 0, 67, 110
1, 183909, Control_c, 0, 64, 22
1, 183909, Control_c, 0, 67, 119
1, 183924, Control_c, 0, 64, 38
1, 183924, Control_c, 0, 67, 126
1, 183934, Note_off_c, 0, 82, 61
1, 183939, Control_c, 0, 64, 41
1, 183939, Control_c, 0, 67, 127
1, 183954, Control_c, 0, 64, 40
1, 183957, Note_on_c, 0, 79, 77
1, 183984, Control_c, 0, 64, 40
1, 183987, Note_off_c, 0, 80, 61
1, 183998, Control_c, 0, 64, 39
1, 184013, Control_c, 0, 64, 37
1, 184015, Note_off_c, 0, 79, 59
1, 184035, Control_c, 0, 64, 36
1, 184037, Note_on_c, 0, 77, 79
1, 184050, Control_c, 0, 64, 34
1, 184065, Control_c, 0, 64, 33
1, 184080, Control_c, 0, 64, 31
1, 184095, Control_c, 0, 64, 29
1, 184099, Note_on_c, 0, 80, 75
1, 184109, Control_c, 0, 64, 28
1, 184111, Note_off_c, 0, 77, 57
1, 184124, Control_c, 0, 64, 27
1, 184146, Note_on_c, 0, 77, 62
1, 184177, Note_off_c, 0, 80, 65
1, 184183, Control_c, 0, 64, 26
1, 184221, Note_on_c, 0, 75, 75
1, 184234, Note_off_c, 0, 77, 59
1, 184258, Control_c, 0, 64, 28
1, 184273, Control_c, 0, 64, 28
1, 184285, Note_on_c, 0, 74, 72
1, 184288, Control_c, 0, 64, 29
1, 184288, Note_off_c, 0, 75, 65
1, 184302, Control_c, 0, 64, 31
1, 184317, Control_c, 0, 64, 33
1, 184332, Control_c, 0, 64, 34
1, 184346, Note_on_c, 0, 77, 77
1, 184353, Note_off_c, 0, 74, 64
1, 184361, Control_c, 0, 64, 35
1, 184376, Control_c, 0, 64, 35
1, 184391, Control_c, 0, 64, 36
1, 184407, Note_on_c, 0, 74, 62
1, 184437, Control_c, 0, 64, 34
1, 184451, Control_c, 0, 64, 34
1, 184460, Note_off_c, 0, 77, 50
1, 184466, Control_c, 0, 64, 33
1, 184470, Note_on_c, 0, 72, 76
1, 184481, Control_c, 0, 64, 32
1, 184485, Note_off_c, 0, 74, 63
1, 184496, Control_c, 0, 64, 31
1, 184511, Control_c, 0, 64, 31
1, 184532, Note_off_c, 0, 72, 65
1, 184534, Note_on_c, 0, 71, 76
1, 184555, Control_c, 0, 64, 32
1, 184570, Control_c, 0, 64, 34
1, 184584, Control_c, 0, 64, 36
1, 184594, Note_on_c, 0, 74, 63
1, 184598, Note_off_c, 0, 71, 61
1, 184599, Control_c, 0, 64, 39
1, 184614, Control_c, 0, 64, 42
1, 184629, Control_c, 0, 64, 45
1, 184641, Note_on_c, 0, 71, 56
1, 184644, Control_c, 0, 64, 47
1, 184658, Control_c, 0, 64, 48
1, 184673, Control_c, 0, 64, 49
1, 184700, Note_off_c, 0, 71, 63
1, 184714, Note_on_c, 0, 67, 71
1, 184719, Note_off_c, 0, 74, 56
1, 184762, Control_c, 0, 64, 48
1, 184783, Note_on_c, 0, 68, 73
1, 184783, Control_c, 0, 64, 47
1, 184798, Control_c, 0, 64, 44
1, 184803, Note_off_c, 0, 67, 53
1, 184813, Control_c, 0, 64, 41
1, 184828, Control_c, 0, 64, 34
1, 184837, Note_on_c, 0, 70, 74
1, 184843, Control_c, 0, 64, 10
1, 184850, Note_off_c, 0, 68, 64
1, 184857, Control_c, 0, 64, 0
1, 184887, Note_on_c, 0, 68, 66
1, 184932, Note_off_c, 0, 70, 61
1, 184955, Note_on_c, 0, 67, 76
1, 184989, Note_off_c, 0, 68, 63
1, 185017, Note_off_c, 0, 67, 60
1, 185021, Control_c, 0, 67, 126
1, 185021, Note_on_c, 0, 65, 76
1, 185036, Control_c, 0, 67, 123
1, 185051, Control_c, 0, 67, 120
1, 185065, Control_c, 0, 67, 115
1, 185080, Control_c, 0, 67, 111
1, 185083, Note_on_c, 0, 68, 71
1, 185089, Note_off_c, 0, 65, 58
1, 185095, Control_c, 0, 67, 107
1, 185110, Control_c, 0, 67, 102
1, 185125, Control_c, 0, 67, 97
1, 185131, Note_on_c, 0, 65, 60
1, 185139, Control_c, 0, 67, 91
1, 185154, Control_c, 0, 67, 86
1, 185163, Note_off_c, 0, 68, 65
1, 185169, Control_c, 0, 67, 83
1, 185183, Control_c, 0, 67, 82
1, 185196, Note_on_c, 0, 63, 79
1, 185214, Control_c, 0, 67, 83
1, 185221, Note_off_c, 0, 65, 60
1, 185229, Control_c, 0, 67, 84
1, 185244, Control_c, 0, 67, 86
1, 185259, Control_c, 0, 67, 90
1, 185268, Note_off_c, 0, 63, 65
1, 185271, Note_on_c, 0, 62, 70
1, 185273, Control_c, 0, 67, 94
1, 185288, Control_c, 0, 67, 100
1, 185303, Control_c, 0, 67, 108
1, 185318, Control_c, 0, 67, 115
1, 185333, Control_c, 0, 67, 121
1, 185338, Note_off_c, 0, 62, 59
1, 185340, Note_on_c, 0, 65, 57
1, 185347, Control_c, 0, 67, 127
1, 185354, Note_on_c, 0, 64, 49
1, 185380, Note_off_c, 0, 64, 57
1, 185388, Note_on_c, 0, 62, 57
1, 185436, Control_c, 0, 64, 23
1, 185441, Note_off_c, 0, 65, 45
1, 185446, Note_on_c, 0, 60, 67
1, 185451, Control_c, 0, 64, 36
1, 185453, Note_off_c, 0, 62, 60
1, 185466, Control_c, 0, 64, 44
1, 185480, Control_c, 0, 64, 49
1, 185495, Control_c, 0, 64, 52
1, 185503, Note_off_c, 0, 60, 61
1, 185506, Note_on_c, 0, 59, 68
1, 185511, Control_c, 0, 64, 54
1, 185563, Control_c, 0, 64, 53
1, 185572, Note_off_c, 0, 59, 58
1, 185577, Note_on_c, 0, 62, 59
1, 185578, Control_c, 0, 64, 53
1, 185593, Control_c, 0, 64, 51
1, 185607, Control_c, 0, 64, 48
1, 185608, Note_on_c, 0, 59, 47
1, 185622, Control_c, 0, 64, 45
1, 185637, Control_c, 0, 64, 43
1, 185652, Control_c, 0, 64, 41
1, 185667, Note_off_c, 0, 59, 62
1, 185667, Control_c, 0, 64, 39
1, 185681, Control_c, 0, 64, 37
1, 185689, Note_on_c, 0, 55, 65
1, 185696, Control_c, 0, 64, 36
1, 185707, Note_off_c, 0, 62, 47
1, 185711, Control_c, 0, 64, 35
1, 185726, Control_c, 0, 64, 32
1, 185741, Control_c, 0, 64, 22
1, 185754, Note_on_c, 0, 56, 67
1, 185755, Control_c, 0, 64, 0
1, 185774, Note_off_c, 0, 55, 57
1, 185818, Note_on_c, 0, 58, 64
1, 185826, Note_off_c, 0, 56, 62
1, 185864, Note_on_c, 0, 56, 57
1, 185904, Note_off_c, 0, 58, 61
1, 185934, Note_on_c, 0, 55, 69
1, 185954, Note_off_c, 0, 56, 63
1, 185980, Note_off_c, 0, 55, 53
1, 185985, Note_on_c, 0, 53, 78
1, 186043, Note_off_c, 0, 53, 56
1, 186063, Note_on_c, 0, 51, 76
1, 186112, Note_on_c, 0, 50, 74
1, 186171, Note_on_c, 0, 48, 82
1, 186177, Note_off_c, 0, 51, 40
1, 186195, Note_off_c, 0, 50, 60
1, 186226, Note_on_c, 0, 47, 80
1, 186242, Note_off_c, 0, 48, 60
1, 186282, Note_on_c, 0, 48, 61
1, 186282, Control_c, 0, 67, 126
1, 186287, Note_off_c, 0, 47, 63
1, 186297, Control_c, 0, 67, 109
1, 186312, Control_c, 0, 67, 90
1, 186326, Control_c, 0, 67, 68
1, 186341, Control_c, 0, 67, 47
1, 186353, Note_on_c, 0, 47, 67
1, 186356, Note_off_c, 0, 48, 62
1, 186356, Control_c, 0, 67, 26
1, 186371, Control_c, 0, 67, 8
1, 186386, Control_c, 0, 67, 0
1, 186411, Note_on_c, 0, 44, 71
1, 186413, Note_off_c, 0, 47, 63
1, 186446, Note_off_c, 0, 44, 65
1, 186490, Note_on_c, 0, 43, 69
1, 186547, Note_on_c, 0, 41, 68
1, 186551, Note_off_c, 0, 43, 60
1, 186613, Note_off_c, 0, 41, 64
1, 186616, Note_on_c, 0, 39, 50
1, 186662, Note_off_c, 0, 39, 62
1, 186667, Control_c, 0, 67, 8
1, 186671, Note_on_c, 0, 38, 56
1, 186682, Control_c, 0, 67, 10
1, 186696, Control_c, 0, 67, 11
1, 186711, Control_c, 0, 67, 13
1, 186718, Note_off_c, 0, 38, 63
1, 186722, Note_on_c, 0, 36, 63
1, 186726, Control_c, 0, 67, 16
1, 186741, Note_on_c, 0, 60, 65
1, 186741, Control_c, 0, 67, 20
1, 186754, Note_off_c, 0, 36, 64
1, 186756, Control_c, 0, 67, 24
1, 186771, Control_c, 0, 67, 30
1, 186786, Control_c, 0, 67, 36
1, 186791, Note_on_c, 0, 48, 59
1, 186801, Control_c, 0, 67, 42
1, 186816, Control_c, 0, 67, 49
1, 186828, Note_off_c, 0, 48, 63
1, 186831, Control_c, 0, 67, 55
1, 186846, Control_c, 0, 67, 62
1, 186847, Note_on_c, 0, 36, 61
1, 186860, Control_c, 0, 67, 70
1, 186875, Control_c, 0, 67, 76
1, 186886, Note_off_c, 0, 36, 65
1, 186890, Control_c, 0, 67, 81
1, 186905, Control_c, 0, 67, 85
1, 186920, Control_c, 0, 67, 86
1, 186922, Note_on_c, 0, 48, 58
1, 186953, Note_off_c, 0, 48, 64
1, 186979, Control_c, 0, 67, 85
1, 186982, Note_on_c, 0, 36, 65
1, 186994, Control_c, 0, 67, 85
1, 187009, Control_c, 0, 67, 84
1, 187027, Note_off_c, 0, 36, 66
1, 187046, Control_c, 0, 67, 83
1, 187048, Note_on_c, 0, 48, 68
1, 187072, Note_off_c, 0, 60, 59
1, 187080, Note_off_c, 0, 48, 63
1, 187105, Control_c, 0, 67, 83
1, 187109, Note_on_c, 0, 58, 73
1, 187116, Note_on_c, 0, 64, 66
1, 187120, Control_c, 0, 67, 84
1, 187121, Note_on_c, 0, 36, 60
1, 187134, Control_c, 0, 67, 84
1, 187144, Note_off_c, 0, 58, 58
1, 187147, Note_off_c, 0, 36, 62
1, 187150, Note_off_c, 0, 64, 59
1, 187176, Note_on_c, 0, 48, 62
1, 187208, Note_off_c, 0, 48, 64
1, 187209, Control_c, 0, 67, 84
1, 187235, Note_on_c, 0, 65, 71
1, 187236, Note_on_c, 0, 36, 70
1, 187237, Note_on_c, 0, 56, 70
1, 187260, Note_off_c, 0, 56, 67
1, 187267, Note_off_c, 0, 65, 62
1, 187275, Note_off_c, 0, 36, 64
1, 187283, Control_c, 0, 67, 83
1, 187295, Note_on_c, 0, 48, 72
1, 187298, Control_c, 0, 67, 83
1, 187313, Control_c, 0, 67, 82
1, 187327, Control_c, 0, 67, 82
1, 187343, Note_off_c, 0, 48, 60
1, 187357, Control_c, 0, 67, 81
1, 187367, Note_on_c, 0, 36, 72
1, 187369, Note_on_c, 0, 67, 78
1, 187370, Note_on_c, 0, 64, 70
1, 187397, Note_off_c, 0, 64, 67
1, 187397, Note_off_c, 0, 67, 63
1, 187404, Note_off_c, 0, 36, 65
1, 187444, Note_on_c, 0, 48, 60
1, 187467, Note_off_c, 0, 48, 60
1, 187475, Control_c, 0, 67, 81
1, 187495, Note_on_c, 0, 36, 75
1, 187496, Note_on_c, 0, 68, 73
1, 187501, Note_on_c, 0, 65, 68
1, 187519, Control_c, 0, 67, 80
1, 187525, Note_off_c, 0, 65, 68
1, 187534, Note_off_c, 0, 36, 65
1, 187546, Note_off_c, 0, 68, 63
1, 187556, Note_on_c, 0, 48, 66
1, 187594, Control_c, 0, 67, 79
1, 187613, Note_off_c, 0, 48, 50
1, 187624, Note_on_c, 0, 62, 62
1, 187624, Control_c, 0, 67, 79
1, 187626, Note_on_c, 0, 71, 72
1, 187632, Note_on_c, 0, 36, 67
1, 187651, Note_off_c, 0, 62, 61
1, 187666, Note_off_c, 0, 71, 58
1, 187668, Note_off_c, 0, 36, 65
1, 187694, Note_on_c, 0, 48, 54
1, 187737, Note_off_c, 0, 48, 55
1, 187750, Note_on_c, 0, 36, 71
1, 187753, Note_on_c, 0, 63, 78
1, 187756, Note_on_c, 0, 72, 73
1, 187757, Control_c, 0, 67, 78
1, 187780, Control_c, 0, 67, 77
1, 187785, Note_off_c, 0, 63, 66
1, 187795, Control_c, 0, 67, 76
1, 187801, Note_off_c, 0, 36, 63
1, 187807, Note_off_c, 0, 72, 63
1, 187809, Control_c, 0, 67, 74
1, 187824, Control_c, 0, 67, 72
1, 187835, Note_on_c, 0, 48, 65
1, 187839, Control_c, 0, 67, 70
1, 187854, Control_c, 0, 67, 69
1, 187862, Note_off_c, 0, 48, 61
1, 187869, Control_c, 0, 67, 70
1, 187883, Control_c, 0, 67, 72
1, 187888, Note_on_c, 0, 36, 72
1, 187898, Control_c, 0, 64, 55
1, 187898, Control_c, 0, 67, 73
1, 187904, Note_on_c, 0, 64, 83
1, 187905, Note_on_c, 0, 72, 87
1, 187913, Control_c, 0, 64, 66
1, 187913, Control_c, 0, 67, 75
1, 187928, Control_c, 0, 64, 76
1, 187928, Control_c, 0, 67, 76
1, 187939, Note_off_c, 0, 36, 63
1, 187943, Control_c, 0, 64, 97
1, 187943, Control_c, 0, 67, 77
1, 187957, Control_c, 0, 64, 127
1, 187957, Control_c, 0, 67, 78
1, 187960, Note_on_c, 0, 48, 71
1, 187984, Note_off_c, 0, 72, 65
1, 187985, Note_off_c, 0, 64, 64
1, 188009, Note_on_c, 0, 36, 75
1, 188016, Note_off_c, 0, 48, 54
1, 188017, Control_c, 0, 67, 77
1, 188032, Control_c, 0, 67, 77
1, 188046, Control_c, 0, 67, 76
1, 188068, Note_off_c, 0, 36, 63
1, 188076, Control_c, 0, 67, 75
1, 188085, Note_on_c, 0, 48, 73
1, 188121, Control_c, 0, 64, 87
1, 188132, Note_off_c, 0, 48, 60
1, 188135, Control_c, 0, 64, 69
1, 188135, Control_c, 0, 67, 76
1, 188150, Control_c, 0, 64, 49
1, 188154, Note_on_c, 0, 36, 70
1, 188165, Control_c, 0, 64, 0
1, 188165, Control_c, 0, 67, 76
1, 188166, Note_on_c, 0, 70, 82
1, 188175, Note_on_c, 0, 76, 78
1, 188180, Control_c, 0, 67, 77
1, 188187, Note_off_c, 0, 36, 67
1, 188212, Note_off_c, 0, 70, 62
1, 188217, Note_on_c, 0, 48, 67
1, 188224, Control_c, 0, 67, 76
1, 188227, Note_off_c, 0, 76, 62
1, 188239, Control_c, 0, 67, 76
1, 188259, Note_off_c, 0, 48, 61
1, 188278, Note_on_c, 0, 36, 81
1, 188282, Note_on_c, 0, 77, 83
1, 188283, Control_c, 0, 67, 75
1, 188287, Note_on_c, 0, 68, 82
1, 188298, Control_c, 0, 67, 75
1, 188306, Note_off_c, 0, 68, 73
1, 188327, Control_c, 0, 67, 75
1, 188329, Note_off_c, 0, 77, 64
1, 188330, Note_off_c, 0, 36, 64
1, 188342, Control_c, 0, 67, 76
1, 188353, Note_on_c, 0, 48, 71
1, 188357, Control_c, 0, 67, 76
1, 188372, Control_c, 0, 67, 77
1, 188383, Note_off_c, 0, 48, 62
1, 188401, Note_on_c, 0, 36, 75
1, 188435, Note_on_c, 0, 79, 52
1, 188445, Note_on_c, 0, 76, 46
1, 188449, Note_on_c, 0, 77, 51
1, 188455, Note_off_c, 0, 36, 64
1, 188456, Note_on_c, 0, 74, 15
1, 188457, Note_off_c, 0, 79, 61
1, 188462, Note_on_c, 0, 78, 15
1, 188462, Control_c, 0, 67, 77
1, 188470, Note_off_c, 0, 76, 56
1, 188474, Note_off_c, 0, 77, 51
1, 188476, Note_on_c, 0, 48, 74
1, 188488, Note_off_c, 0, 78, 32
1, 188500, Note_off_c, 0, 74, 30
1, 188524, Note_off_c, 0, 48, 54
1, 188533, Note_on_c, 0, 36, 77
1, 188544, Note_on_c, 0, 80, 81
1, 188544, Control_c, 0, 67, 77
1, 188553, Note_on_c, 0, 77, 78
1, 188573, Control_c, 0, 67, 76
1, 188577, Note_off_c, 0, 77, 65
1, 188592, Note_off_c, 0, 36, 64
1, 188593, Note_off_c, 0, 80, 65
1, 188616, Note_on_c, 0, 48, 75
1, 188618, Control_c, 0, 67, 77
1, 188647, Control_c, 0, 67, 77
1, 188657, Note_off_c, 0, 48, 52
1, 188658, Note_on_c, 0, 36, 71
1, 188662, Control_c, 0, 67, 78
1, 188669, Note_on_c, 0, 83, 84
1, 188670, Note_on_c, 0, 74, 74
1, 188694, Note_off_c, 0, 74, 69
1, 188714, Note_off_c, 0, 36, 64
1, 188714, Note_off_c, 0, 83, 62
1, 188736, Control_c, 0, 67, 77
1, 188747, Note_on_c, 0, 48, 57
1, 188750, Control_c, 0, 67, 77
1, 188771, Note_off_c, 0, 48, 60
1, 188798, Note_on_c, 0, 84, 91
1, 188801, Note_on_c, 0, 36, 69
1, 188810, Control_c, 0, 64, 20
1, 188810, Control_c, 0, 67, 76
1, 188813, Note_on_c, 0, 72, 70
1, 188819, Note_on_c, 0, 79, 53
1, 188824, Note_on_c, 0, 75, 59
1, 188824, Control_c, 0, 64, 48
1, 188824, Control_c, 0, 67, 75
1, 188839, Control_c, 0, 64, 56
1, 188839, Control_c, 0, 67, 74
1, 188849, Note_off_c, 0, 36, 63
1, 188854, Control_c, 0, 64, 60
1, 188854, Control_c, 0, 67, 74
1, 188857, Note_on_c, 0, 48, 67
1, 188869, Control_c, 0, 64, 62
1, 188869, Control_c, 0, 67, 73
1, 188884, Control_c, 0, 64, 64
1, 188884, Control_c, 0, 67, 72
1, 188899, Control_c, 0, 64, 64
1, 188901, Note_off_c, 0, 48, 61
1, 188914, Control_c, 0, 67, 71
1, 188923, Note_off_c, 0, 84, 62
1, 188932, Note_on_c, 0, 36, 61
1, 188943, Note_off_c, 0, 79, 57
1, 188944, Note_off_c, 0, 72, 62
1, 188946, Note_off_c, 0, 75, 64
1, 188958, Control_c, 0, 67, 72
1, 188962, Note_off_c, 0, 36, 62
1, 188988, Control_c, 0, 64, 64
1, 189003, Control_c, 0, 64, 61
1, 189003, Control_c, 0, 67, 71
1, 189013, Note_on_c, 0, 48, 29
1, 189018, Control_c, 0, 64, 47
1, 189018, Control_c, 0, 67, 71
1, 189032, Control_c, 0, 64, 0
1, 189032, Control_c, 0, 67, 70
1, 189047, Control_c, 0, 67, 69
1, 189051, Note_off_c, 0, 48, 38
1, 189052, Note_on_c, 0, 38, 71
1, 189059, Note_on_c, 0, 79, 80
1, 189062, Control_c, 0, 67, 69
1, 189077, Control_c, 0, 67, 67
1, 189081, Note_on_c, 0, 71, 66
1, 189090, Note_on_c, 0, 67, 54
1, 189092, Control_c, 0, 67, 64
1, 189093, Note_on_c, 0, 77, 49
1, 189106, Control_c, 0, 67, 61
1, 189111, Note_off_c, 0, 38, 62
1, 189121, Control_c, 0, 67, 57
1, 189136, Control_c, 0, 67, 51
1, 189139, Note_on_c, 0, 50, 55
1, 189150, Control_c, 0, 67, 42
1, 189165, Control_c, 0, 67, 32
1, 189169, Note_off_c, 0, 50, 63
1, 189180, Control_c, 0, 67, 22
1, 189185, Note_on_c, 0, 38, 67
1, 189196, Control_c, 0, 64, 29
1, 189196, Control_c, 0, 67, 13
1, 189201, Note_off_c, 0, 71, 56
1, 189211, Control_c, 0, 64, 51
1, 189211, Control_c, 0, 67, 0
1, 189226, Control_c, 0, 64, 59
1, 189233, Note_off_c, 0, 77, 61
1, 189234, Note_off_c, 0, 38, 63
1, 189235, Note_off_c, 0, 67, 62
1, 189237, Note_off_c, 0, 79, 63
1, 189240, Control_c, 0, 64, 60
1, 189254, Control_c, 0, 64, 59
1, 189256, Note_on_c, 0, 50, 63
1, 189277, Control_c, 0, 64, 53
1, 189290, Note_off_c, 0, 50, 64
1, 189292, Control_c, 0, 64, 0
1, 189321, Note_on_c, 0, 39, 71
1, 189326, Note_on_c, 0, 75, 85
1, 189337, Note_on_c, 0, 67, 77
1, 189337, Note_on_c, 0, 72, 73
1, 189394, Note_on_c, 0, 51, 72
1, 189395, Control_c, 0, 64, 39
1, 189396, Note_off_c, 0, 39, 61
1, 189410, Control_c, 0, 64, 60
1, 189425, Control_c, 0, 64, 63
1, 189440, Control_c, 0, 64, 64
1, 189456, Note_on_c, 0, 39, 68
1, 189458, Note_off_c, 0, 51, 59
1, 189460, Note_off_c, 0, 72, 64
1, 189469, Control_c, 0, 64, 65
1, 189484, Control_c, 0, 64, 67
1, 189498, Note_off_c, 0, 67, 62
1, 189499, Control_c, 0, 64, 68
1, 189500, Note_off_c, 0, 75, 66
1, 189508, Note_off_c, 0, 39, 62
1, 189514, Note_on_c, 0, 51, 56
1, 189528, Control_c, 0, 64, 67
1, 189543, Control_c, 0, 64, 60
1, 189552, Note_off_c, 0, 51, 60
1, 189558, Control_c, 0, 64, 0
1, 189585, Note_on_c, 0, 41, 83
1, 189585, Note_on_c, 0, 74, 93
1, 189597, Note_on_c, 0, 65, 82
1, 189601, Note_on_c, 0, 68, 77
1, 189647, Control_c, 0, 64, 48
1, 189650, Note_on_c, 0, 53, 77
1, 189659, Note_off_c, 0, 41, 64
1, 189662, Control_c, 0, 64, 64
1, 189677, Control_c, 0, 64, 69
1, 189692, Control_c, 0, 64, 70
1, 189701, Note_off_c, 0, 74, 59
1, 189702, Note_off_c, 0, 53, 62
1, 189714, Note_on_c, 0, 41, 74
1, 189721, Control_c, 0, 64, 71
1, 189736, Note_off_c, 0, 65, 59
1, 189736, Control_c, 0, 64, 73
1, 189751, Control_c, 0, 64, 76
1, 189766, Control_c, 0, 64, 80
1, 189770, Note_on_c, 0, 53, 69
1, 189772, Note_off_c, 0, 68, 62
1, 189774, Note_off_c, 0, 41, 66
1, 189780, Control_c, 0, 64, 81
1, 189810, Control_c, 0, 64, 76
1, 189823, Note_off_c, 0, 53, 64
1, 189825, Control_c, 0, 64, 64
1, 189840, Control_c, 0, 64, 0
1, 189841, Note_on_c, 0, 43, 85
1, 189849, Note_on_c, 0, 72, 90
1, 189856, Note_on_c, 0, 67, 84
1, 189856, Note_on_c, 0, 63, 95
1, 189910, Note_on_c, 0, 55, 77
1, 189917, Note_off_c, 0, 43, 62
1, 189928, Control_c, 0, 64, 39
1, 189943, Control_c, 0, 64, 55
1, 189958, Control_c, 0, 64, 59
1, 189967, Note_off_c, 0, 55, 59
1, 189970, Note_on_c, 0, 43, 79
1, 189972, Control_c, 0, 64, 61
1, 189987, Control_c, 0, 64, 63
1, 190003, Control_c, 0, 64, 67
1, 190007, Note_off_c, 0, 67, 56
1, 190026, Control_c, 0, 64, 72
1, 190041, Control_c, 0, 64, 81
1, 190046, Note_on_c, 0, 55, 69
1, 190046, Note_off_c, 0, 43, 61
1, 190056, Control_c, 0, 64, 87
1, 190070, Control_c, 0, 64, 84
1, 190085, Control_c, 0, 64, 68
1, 190085, Note_off_c, 0, 55, 63
1, 190100, Control_c, 0, 64, 0
1, 190105, Note_on_c, 0, 44, 87
1, 190118, Note_on_c, 0, 66, 90
1, 190174, Control_c, 0, 64, 59
1, 190178, Note_off_c, 0, 44, 64
1, 190179, Note_on_c, 0, 56, 86
1, 190189, Control_c, 0, 64, 71
1, 190203, Control_c, 0, 64, 78
1, 190218, Control_c, 0, 64, 82
1, 190232, Note_on_c, 0, 44, 69
1, 190233, Control_c, 0, 64, 86
1, 190246, Note_off_c, 0, 56, 62
1, 190248, Control_c, 0, 64, 97
1, 190263, Control_c, 0, 64, 127
1, 190303, Note_off_c, 0, 66, 58
1, 190305, Note_off_c, 0, 44, 63
1, 190307, Note_on_c, 0, 56, 72
1, 190342, Note_off_c, 0, 56, 64
1, 190354, Note_off_c, 0, 72, 62
1, 190366, Control_c, 0, 64, 70
1, 190367, Note_on_c, 0, 42, 87
1, 190372, Note_on_c, 0, 69, 93
1, 190381, Control_c, 0, 64, 0
1, 190435, Note_on_c, 0, 54, 80
1, 190440, Control_c, 0, 64, 46
1, 190442, Note_off_c, 0, 42, 63
1, 190455, Control_c, 0, 64, 64
1, 190469, Note_off_c, 0, 63, 61
1, 190470, Control_c, 0, 64, 71
1, 190485, Control_c, 0, 64, 82
1, 190490, Note_on_c, 0, 42, 71
1, 190500, Control_c, 0, 64, 93
1, 190506, Note_off_c, 0, 54, 62
1, 190514, Control_c, 0, 64, 110
1, 190529, Control_c, 0, 64, 127
1, 190550, Note_on_c, 0, 54, 64
1, 190559, Note_off_c, 0, 42, 63
1, 190583, Note_off_c, 0, 69, 57
1, 190616, Note_off_c, 0, 54, 59
1, 190618, Control_c, 0, 64, 99
1, 190625, Note_on_c, 0, 43, 83
1, 190633, Control_c, 0, 64, 53
1, 190639, Note_on_c, 0, 62, 93
1, 190639, Note_on_c, 0, 71, 85
1, 190642, Note_on_c, 0, 65, 83
1, 190648, Control_c, 0, 64, 0
1, 190690, Note_on_c, 0, 55, 75
1, 190691, Note_off_c, 0, 43, 60
1, 190692, Control_c, 0, 64, 60
1, 190707, Control_c, 0, 64, 80
1, 190721, Control_c, 0, 64, 127
1, 190739, Note_off_c, 0, 55, 62
1, 190753, Note_on_c, 0, 43, 67
1, 190775, Note_off_c, 0, 62, 57
1, 190784, Note_off_c, 0, 65, 57
1, 190825, Note_off_c, 0, 43, 60
1, 190833, Note_off_c, 0, 71, 52
1, 190870, Poly_aftertouch_c, 0, 55, 127
1, 190878, Control_c, 0, 67, 8
1, 190892, Poly_aftertouch_c, 0, 55, 0
1, 190893, Control_c, 0, 64, 70
1, 190893, Control_c, 0, 67, 14
1, 190908, Note_on_c, 0, 72, 73
1, 190908, Control_c, 0, 64, 0
1, 190908, Control_c, 0, 67, 18
1, 190911, Note_on_c, 0, 36, 72
1, 190912, Note_on_c, 0, 63, 81
1, 190915, Note_on_c, 0, 60, 76
1, 190923, Control_c, 0, 67, 21
1, 190938, Control_c, 0, 67, 22
1, 190945, Note_off_c, 0, 63, 62
1, 190947, Note_off_c, 0, 72, 64
1, 190947, Note_off_c, 0, 60, 59
1, 190950, Note_off_c, 0, 36, 62
1, 190973, Note_on_c, 0, 48, 62
1, 190982, Control_c, 0, 67, 22
1, 190997, Control_c, 0, 67, 24
1, 191012, Control_c, 0, 67, 28
1, 191020, Note_off_c, 0, 48, 59
1, 191026, Control_c, 0, 67, 31
1, 191041, Control_c, 0, 67, 33
1, 191042, Note_on_c, 0, 36, 68
1, 191056, Note_on_c, 0, 60, 74
1, 191056, Control_c, 0, 67, 36
1, 191071, Control_c, 0, 67, 40
1, 191081, Note_off_c, 0, 36, 65
1, 191086, Control_c, 0, 67, 44
1, 191100, Control_c, 0, 67, 48
1, 191109, Note_on_c, 0, 48, 65
1, 191115, Control_c, 0, 67, 51
1, 191130, Control_c, 0, 67, 54
1, 191144, Control_c, 0, 67, 55
1, 191147, Note_off_c, 0, 48, 63
1, 191172, Note_on_c, 0, 36, 68
1, 191211, Note_off_c, 0, 36, 66
1, 191233, Control_c, 0, 67, 56
1, 191236, Note_on_c, 0, 48, 64
1, 191247, Note_off_c, 0, 60, 60
1, 191248, Control_c, 0, 67, 56
1, 191263, Control_c, 0, 67, 59
1, 191274, Note_off_c, 0, 48, 64
1, 191278, Control_c, 0, 67, 63
1, 191293, Control_c, 0, 67, 67
1, 191302, Note_on_c, 0, 36, 68
1, 191305, Note_on_c, 0, 64, 71
1, 191308, Control_c, 0, 67, 70
1, 191322, Control_c, 0, 67, 72
1, 191337, Control_c, 0, 67, 74
1, 191337, Note_off_c, 0, 36, 66
1, 191352, Control_c, 0, 67, 75
1, 191364, Note_off_c, 0, 64, 62
1, 191367, Control_c, 0, 67, 78
1, 191373, Note_on_c, 0, 48, 56
1, 191382, Control_c, 0, 67, 80
1, 191397, Control_c, 0, 67, 83
1, 191406, Note_off_c, 0, 48, 63
1, 191412, Control_c, 0, 67, 85
1, 191424, Note_on_c, 0, 36, 75
1, 191426, Control_c, 0, 67, 85
1, 191430, Note_on_c, 0, 65, 81
1, 191430, Note_on_c, 0, 56, 71
1, 191457, Note_off_c, 0, 56, 67
1, 191474, Note_off_c, 0, 36, 62
1, 191477, Note_off_c, 0, 65, 61
1, 191500, Note_on_c, 0, 48, 64
1, 191543, Note_off_c, 0, 48, 62
1, 191561, Note_on_c, 0, 67, 80
1, 191562, Note_on_c, 0, 64, 70
1, 191573, Note_on_c, 0, 36, 70
1, 191594, Note_off_c, 0, 64, 65
1, 191597, Note_off_c, 0, 67, 57
1, 191614, Note_off_c, 0, 36, 64
1, 191647, Note_on_c, 0, 48, 61
1, 191679, Note_off_c, 0, 48, 61
1, 191687, Note_on_c, 0, 68, 73
1, 191694, Note_on_c, 0, 65, 66
1, 191695, Note_on_c, 0, 36, 76
1, 191716, Control_c, 0, 67, 85
1, 191719, Note_off_c, 0, 65, 68
1, 191736, Note_off_c, 0, 36, 64
1, 191736, Note_off_c, 0, 68, 64
1, 191745, Control_c, 0, 67, 84
1, 191766, Note_on_c, 0, 48, 67
1, 191806, Note_off_c, 0, 48, 56
1, 191823, Note_on_c, 0, 62, 61
1, 191823, Note_on_c, 0, 71, 69
1, 191824, Note_on_c, 0, 36, 71
1, 191847, Note_off_c, 0, 62, 61
1, 191848, Control_c, 0, 67, 84
1, 191863, Note_off_c, 0, 71, 58
1, 191863, Note_off_c, 0, 36, 65
1, 191863, Control_c, 0, 67, 83
1, 191893, Control_c, 0, 67, 83
1, 191900, Note_on_c, 0, 48, 61
1, 191942, Note_off_c, 0, 48, 54
1, 191945, Note_on_c, 0, 36, 74
1, 191948, Note_on_c, 0, 63, 76
1, 191956, Note_on_c, 0, 72, 58
1, 191971, Note_off_c, 0, 63, 68
1, 191991, Note_off_c, 0, 72, 58
1, 191996, Control_c, 0, 67, 82
1, 191998, Note_off_c, 0, 36, 62
1, 192026, Note_on_c, 0, 48, 67
1, 192059, Note_off_c, 0, 48, 63
1, 192071, Control_c, 0, 67, 83
1, 192077, Note_on_c, 0, 36, 71
1, 192085, Note_on_c, 0, 64, 86
1, 192087, Note_on_c, 0, 72, 83
1, 192100, Control_c, 0, 67, 83
1, 192115, Control_c, 0, 64, 46
1, 192130, Control_c, 0, 64, 62
1, 192130, Control_c, 0, 67, 84
1, 192136, Note_off_c, 0, 36, 64
1, 192145, Control_c, 0, 64, 66
1, 192151, Note_on_c, 0, 48, 75
1, 192153, Note_off_c, 0, 72, 66
1, 192153, Note_off_c, 0, 64, 64
1, 192159, Control_c, 0, 64, 68
1, 192159, Control_c, 0, 67, 84
1, 192174, Control_c, 0, 64, 69
1, 192174, Control_c, 0, 67, 85
1, 192189, Control_c, 0, 64, 69
1, 192201, Note_on_c, 0, 36, 72
1, 192204, Control_c, 0, 67, 85
1, 192208, Note_off_c, 0, 48, 43
1, 192269, Note_off_c, 0, 36, 62
1, 192282, Note_on_c, 0, 48, 61
1, 192286, Control_c, 0, 64, 69
1, 192300, Control_c, 0, 64, 68
1, 192315, Control_c, 0, 64, 67
1, 192328, Note_off_c, 0, 48, 57
1, 192330, Control_c, 0, 64, 66
1, 192337, Note_on_c, 0, 36, 75
1, 192345, Control_c, 0, 64, 63
1, 192355, Note_on_c, 0, 70, 83
1, 192360, Control_c, 0, 64, 58
1, 192360, Control_c, 0, 67, 86
1, 192363, Note_on_c, 0, 76, 78
1, 192375, Control_c, 0, 64, 40
1, 192375, Control_c, 0, 67, 86
1, 192390, Control_c, 0, 64, 0
1, 192390, Control_c, 0, 67, 87
1, 192395, Note_off_c, 0, 36, 65
1, 192419, Note_off_c, 0, 70, 61
1, 192421, Note_on_c, 0, 48, 71
1, 192423, Note_off_c, 0, 76, 61
1, 192455, Note_off_c, 0, 48, 65
1, 192466, Note_on_c, 0, 36, 77
1, 192478, Note_on_c, 0, 77, 82
1, 192481, Note_on_c, 0, 68, 69
1, 192504, Note_off_c, 0, 68, 70
1, 192527, Note_off_c, 0, 77, 63
1, 192530, Note_off_c, 0, 36, 64
1, 192552, Note_on_c, 0, 48, 73
1, 192585, Note_off_c, 0, 48, 62
1, 192597, Note_on_c, 0, 79, 85
1, 192598, Note_on_c, 0, 36, 78
1, 192604, Note_on_c, 0, 76, 77
1, 192628, Note_off_c, 0, 76, 65
1, 192641, Note_off_c, 0, 79, 61
1, 192657, Note_off_c, 0, 36, 65
1, 192682, Note_on_c, 0, 48, 69
1, 192716, Note_on_c, 0, 80, 84
1, 192725, Note_on_c, 0, 36, 72
1, 192729, Note_on_c, 0, 77, 73
1, 192734, Note_off_c, 0, 48, 46
1, 192746, Control_c, 0, 67, 86
1, 192753, Note_off_c, 0, 77, 68
1, 192776, Control_c, 0, 67, 86
1, 192777, Note_off_c, 0, 80, 64
1, 192783, Note_off_c, 0, 36, 64
1, 192812, Note_on_c, 0, 48, 63
1, 192852, Note_on_c, 0, 83, 75
1, 192853, Note_off_c, 0, 48, 57
1, 192858, Note_on_c, 0, 74, 63
1, 192862, Note_on_c, 0, 36, 73
1, 192884, Note_off_c, 0, 74, 68
1, 192894, Control_c, 0, 67, 85
1, 192903, Note_off_c, 0, 83, 60
1, 192909, Control_c, 0, 67, 85
1, 192917, Note_off_c, 0, 36, 63
1, 192923, Control_c, 0, 67, 84
1, 192938, Control_c, 0, 67, 84
1, 192944, Note_on_c, 0, 48, 65
1, 192968, Control_c, 0, 67, 83
1, 192981, Note_off_c, 0, 48, 61
1, 192983, Control_c, 0, 67, 82
1, 192986, Note_on_c, 0, 84, 88
1, 192998, Control_c, 0, 67, 82
1, 193000, Note_on_c, 0, 36, 68
1, 193000, Note_on_c, 0, 79, 60
1, 193006, Note_on_c, 0, 72, 72
1, 193020, Control_c, 0, 67, 81
1, 193034, Note_on_c, 0, 75, 50
1, 193035, Control_c, 0, 64, 40
1, 193035, Control_c, 0, 67, 81
1, 193048, Note_off_c, 0, 36, 63
1, 193050, Control_c, 0, 64, 58
1, 193050, Control_c, 0, 67, 80
1, 193064, Control_c, 0, 64, 63
1, 193064, Control_c, 0, 67, 80
1, 193079, Control_c, 0, 64, 64
1, 193080, Note_on_c, 0, 48, 61
1, 193086, Note_off_c, 0, 75, 0
1, 193094, Control_c, 0, 64, 65
1, 193094, Control_c, 0, 67, 79
1, 193108, Note_off_c, 0, 84, 64
1, 193109, Control_c, 0, 64, 67
1, 193123, Poly_aftertouch_c, 0, 75, 127
1, 193123, Control_c, 0, 64, 69
1, 193124, Note_off_c, 0, 72, 56
1, 193133, Note_on_c, 0, 36, 66
1, 193137, Note_off_c, 0, 48, 47
1, 193138, Control_c, 0, 64, 72
1, 193138, Control_c, 0, 67, 80
1, 193153, Control_c, 0, 64, 77
1, 193153, Control_c, 0, 67, 81
1, 193168, Control_c, 0, 64, 81
1, 193168, Control_c, 0, 67, 82
1, 193174, Note_off_c, 0, 79, 42
1, 193178, Note_off_c, 0, 36, 63
1, 193181, Poly_aftertouch_c, 0, 75, 0
1, 193183, Control_c, 0, 64, 84
1, 193183, Control_c, 0, 67, 83
1, 193194, Note_on_c, 0, 48, 39
1, 193199, Control_c, 0, 64, 84
1, 193213, Control_c, 0, 64, 76
1, 193213, Control_c, 0, 67, 84
1, 193228, Control_c, 0, 64, 63
1, 193243, Control_c, 0, 64, 0
1, 193252, Note_off_c, 0, 48, 50
1, 193257, Note_on_c, 0, 80, 86
1, 193258, Control_c, 0, 67, 83
1, 193262, Note_on_c, 0, 36, 71
1, 193273, Note_on_c, 0, 68, 71
1, 193273, Control_c, 0, 67, 82
1, 193274, Note_on_c, 0, 75, 65
1, 193288, Control_c, 0, 67, 82
1, 193295, Note_off_c, 0, 36, 65
1, 193302, Control_c, 0, 64, 53
1, 193302, Control_c, 0, 67, 81
1, 193317, Control_c, 0, 64, 64
1, 193317, Control_c, 0, 67, 81
1, 193332, Note_on_c, 0, 48, 47
1, 193332, Control_c, 0, 64, 69
1, 193336, Note_off_c, 0, 75, 63
1, 193341, Note_off_c, 0, 80, 63
1, 193347, Control_c, 0, 64, 72
1, 193347, Control_c, 0, 67, 80
1, 193361, Control_c, 0, 64, 73
1, 193361, Control_c, 0, 67, 79
1, 193370, Note_on_c, 0, 36, 73
1, 193376, Control_c, 0, 64, 74
1, 193376, Control_c, 0, 67, 79
1, 193391, Control_c, 0, 64, 76
1, 193406, Control_c, 0, 64, 79
1, 193421, Control_c, 0, 64, 82
1, 193427, Note_off_c, 0, 68, 53
1, 193431, Note_off_c, 0, 36, 55
1, 193436, Control_c, 0, 64, 83
1, 193466, Control_c, 0, 64, 83
1, 193481, Control_c, 0, 64, 75
1, 193485, Note_off_c, 0, 48, 35
1, 193495, Control_c, 0, 64, 62
1, 193495, Control_c, 0, 67, 77
1, 193510, Control_c, 0, 64, 0
1, 193510, Control_c, 0, 67, 75
1, 193515, Note_on_c, 0, 77, 80
1, 193525, Control_c, 0, 67, 72
1, 193527, Note_on_c, 0, 68, 75
1, 193528, Note_on_c, 0, 37, 66
1, 193531, Note_on_c, 0, 73, 63
1, 193539, Control_c, 0, 67, 67
1, 193554, Control_c, 0, 67, 62
1, 193569, Control_c, 0, 64, 12
1, 193569, Control_c, 0, 67, 53
1, 193579, Note_on_c, 0, 49, 62
1, 193582, Note_off_c, 0, 37, 64
1, 193584, Control_c, 0, 64, 60
1, 193584, Control_c, 0, 67, 37
1, 193596, Note_off_c, 0, 77, 60
1, 193598, Note_off_c, 0, 73, 62
1, 193599, Control_c, 0, 64, 70
1, 193599, Control_c, 0, 67, 17
1, 193613, Control_c, 0, 64, 79
1, 193613, Control_c, 0, 67, 0
1, 193614, Note_off_c, 0, 49, 64
1, 193628, Control_c, 0, 64, 85
1, 193643, Control_c, 0, 64, 86
1, 193645, Note_on_c, 0, 37, 76
1, 193657, Note_off_c, 0, 68, 63
1, 193658, Control_c, 0, 64, 87
1, 193672, Control_c, 0, 64, 91
1, 193687, Control_c, 0, 64, 98
1, 193688, Note_off_c, 0, 37, 64
1, 193702, Control_c, 0, 64, 109
1, 193717, Control_c, 0, 64, 127
1, 193725, Note_on_c, 0, 49, 34
1, 193746, Control_c, 0, 64, 94
1, 193756, Note_off_c, 0, 49, 50
1, 193769, Control_c, 0, 64, 71
1, 193776, Note_on_c, 0, 39, 79
1, 193784, Control_c, 0, 64, 44
1, 193788, Note_on_c, 0, 72, 68
1, 193788, Note_on_c, 0, 66, 81
1, 193790, Note_on_c, 0, 75, 78
1, 193799, Control_c, 0, 64, 0
1, 193828, Control_c, 0, 64, 31
1, 193835, Note_off_c, 0, 39, 61
1, 193843, Note_off_c, 0, 72, 64
1, 193843, Control_c, 0, 64, 62
1, 193844, Note_on_c, 0, 51, 55
1, 193858, Control_c, 0, 64, 70
1, 193872, Control_c, 0, 64, 79
1, 193875, Note_off_c, 0, 75, 63
1, 193879, Note_off_c, 0, 51, 62
1, 193887, Control_c, 0, 64, 89
1, 193893, Note_on_c, 0, 39, 69
1, 193902, Control_c, 0, 64, 98
1, 193907, Note_off_c, 0, 66, 53
1, 193917, Control_c, 0, 64, 127
1, 193949, Note_on_c, 0, 51, 67
1, 193952, Note_off_c, 0, 39, 61
1, 193979, Note_off_c, 0, 51, 62
1, 194033, Note_on_c, 0, 41, 79
1, 194036, Control_c, 0, 64, 91
1, 194043, Note_on_c, 0, 73, 94
1, 194047, Note_on_c, 0, 65, 82
1, 194050, Note_on_c, 0, 68, 79
1, 194051, Control_c, 0, 64, 66
1, 194066, Control_c, 0, 64, 36
1, 194081, Control_c, 0, 64, 18
1, 194095, Note_off_c, 0, 41, 64
1, 194096, Control_c, 0, 64, 50
1, 194101, Note_on_c, 0, 53, 73
1, 194110, Control_c, 0, 64, 64
1, 194119, Note_off_c, 0, 65, 58
1, 194125, Control_c, 0, 64, 71
1, 194133, Note_off_c, 0, 53, 66
1, 194138, Note_off_c, 0, 68, 62
1, 194139, Note_off_c, 0, 73, 61
1, 194140, Control_c, 0, 64, 81
1, 194155, Control_c, 0, 64, 88
1, 194157, Note_on_c, 0, 41, 78
1, 194169, Control_c, 0, 64, 94
1, 194184, Control_c, 0, 64, 105
1, 194193, Note_on_c, 0, 42, 40
1, 194199, Control_c, 0, 64, 127
1, 194217, Note_off_c, 0, 41, 64
1, 194224, Note_off_c, 0, 42, 48
1, 194232, Note_on_c, 0, 53, 73
1, 194288, Control_c, 0, 64, 93
1, 194297, Note_on_c, 0, 42, 89
1, 194303, Note_on_c, 0, 70, 89
1, 194303, Control_c, 0, 64, 55
1, 194308, Note_on_c, 0, 61, 85
1, 194308, Note_on_c, 0, 66, 80
1, 194309, Note_off_c, 0, 53, 41
1, 194318, Control_c, 0, 64, 0
1, 194362, Control_c, 0, 64, 38
1, 194377, Control_c, 0, 64, 63
1, 194380, Note_off_c, 0, 42, 63
1, 194392, Control_c, 0, 64, 77
1, 194396, Note_on_c, 0, 54, 81
1, 194407, Control_c, 0, 64, 99
1, 194422, Control_c, 0, 64, 127
1, 194441, Note_on_c, 0, 42, 76
1, 194452, Note_off_c, 0, 54, 59
1, 194458, Note_off_c, 0, 61, 57
1, 194470, Note_off_c, 0, 70, 60
1, 194491, Note_off_c, 0, 66, 39
1, 194494, Note_off_c, 0, 42, 62
1, 194563, Control_c, 0, 64, 97
1, 194566, Note_on_c, 0, 61, 89
1, 194570, Note_on_c, 0, 44, 91
1, 194570, Note_on_c, 0, 68, 96
1, 194572, Note_on_c, 0, 65, 83
1, 194577, Control_c, 0, 64, 58
1, 194592, Control_c, 0, 64, 0
1, 194636, Note_off_c, 0, 44, 63
1, 194637, Control_c, 0, 64, 47
1, 194638, Note_on_c, 0, 56, 76
1, 194651, Control_c, 0, 64, 65
1, 194666, Control_c, 0, 64, 74
1, 194681, Control_c, 0, 64, 87
1, 194684, Note_off_c, 0, 56, 62
1, 194691, Note_on_c, 0, 44, 79
1, 194695, Control_c, 0, 64, 102
1, 194705, Note_off_c, 0, 65, 59
1, 194710, Control_c, 0, 64, 127
1, 194740, Note_off_c, 0, 61, 60
1, 194757, Note_off_c, 0, 44, 63
1, 194766, Note_on_c, 0, 56, 75
1, 194804, Note_off_c, 0, 56, 60
1, 194811, Note_on_c, 0, 44, 75
1, 194815, Control_c, 0, 64, 80
1, 194821, Note_on_c, 0, 63, 91
1, 194829, Note_on_c, 0, 60, 77
1, 194830, Control_c, 0, 64, 15
1, 194845, Control_c, 0, 64, 0
1, 194876, Note_off_c, 0, 44, 64
1, 194882, Note_on_c, 0, 56, 67
1, 194889, Control_c, 0, 64, 43
1, 194904, Control_c, 0, 64, 66
1, 194918, Control_c, 0, 64, 78
1, 194926, Note_off_c, 0, 56, 62
1, 194933, Control_c, 0, 64, 91
1, 194938, Note_on_c, 0, 44, 76
1, 194948, Control_c, 0, 64, 99
1, 194950, Note_off_c, 0, 63, 63
1, 194963, Note_off_c, 0, 60, 53
1, 194963, Control_c, 0, 64, 113
1, 194978, Control_c, 0, 64, 127
1, 194993, Note_off_c, 0, 44, 62
1, 195012, Note_off_c, 0, 68, 37
1, 195016, Note_on_c, 0, 56, 60
1, 195022, Control_c, 0, 64, 84
1, 195037, Control_c, 0, 64, 60
1, 195052, Note_off_c, 0, 56, 63
1, 195052, Control_c, 0, 64, 0
1, 195081, Note_on_c, 0, 44, 63
1, 195096, Note_on_c, 0, 70, 72
1, 195102, Note_on_c, 0, 62, 64
1, 195102, Note_on_c, 0, 65, 62
1, 195122, Note_off_c, 0, 62, 64
1, 195124, Note_off_c, 0, 44, 62
1, 195126, Control_c, 0, 64, 38
1, 195129, Note_off_c, 0, 65, 66
1, 195141, Control_c, 0, 64, 59
1, 195143, Note_off_c, 0, 70, 64
1, 195156, Control_c, 0, 64, 65
1, 195171, Control_c, 0, 64, 71
1, 195179, Note_on_c, 0, 56, 14
1, 195185, Control_c, 0, 64, 80
1, 195200, Control_c, 0, 64, 89
1, 195215, Control_c, 0, 64, 92
1, 195217, Note_on_c, 0, 44, 64
1, 195230, Control_c, 0, 64, 92
1, 195248, Note_off_c, 0, 44, 63
1, 195261, Note_off_c, 0, 56, 0
1, 195283, Note_on_c, 0, 56, 15
1, 195296, Control_c, 0, 64, 92
1, 195311, Control_c, 0, 64, 84
1, 195325, Control_c, 0, 64, 69
1, 195328, Note_off_c, 0, 56, 37
1, 195340, Control_c, 0, 64, 40
1, 195355, Control_c, 0, 64, 0
1, 195359, Note_on_c, 0, 82, 73
1, 195360, Note_on_c, 0, 38, 65
1, 195372, Note_on_c, 0, 70, 55
1, 195394, Note_on_c, 0, 77, 51
1, 195409, Note_off_c, 0, 38, 60
1, 195444, Control_c, 0, 64, 51
1, 195448, Note_on_c, 0, 50, 48
1, 195459, Control_c, 0, 64, 65
1, 195473, Control_c, 0, 64, 73
1, 195478, Note_off_c, 0, 50, 60
1, 195488, Control_c, 0, 64, 79
1, 195493, Note_on_c, 0, 38, 71
1, 195496, Note_off_c, 0, 70, 58
1, 195503, Control_c, 0, 64, 79
1, 195517, Control_c, 0, 64, 80
1, 195527, Note_off_c, 0, 38, 65
1, 195532, Note_off_c, 0, 77, 56
1, 195532, Control_c, 0, 64, 81
1, 195547, Control_c, 0, 64, 80
1, 195562, Control_c, 0, 64, 71
1, 195570, Note_on_c, 0, 50, 51
1, 195577, Control_c, 0, 64, 56
1, 195593, Control_c, 0, 64, 0
1, 195604, Note_off_c, 0, 50, 44
1, 195616, Note_on_c, 0, 78, 71
1, 195627, Note_on_c, 0, 39, 69
1, 195628, Note_on_c, 0, 70, 57
1, 195630, Note_on_c, 0, 75, 54
1, 195634, Note_off_c, 0, 82, 64
1, 195652, Control_c, 0, 64, 57
1, 195667, Control_c, 0, 64, 70
1, 195672, Note_off_c, 0, 39, 62
1, 195681, Control_c, 0, 64, 88
1, 195685, Note_on_c, 0, 51, 67
1, 195688, Note_off_c, 0, 75, 62
1, 195696, Control_c, 0, 64, 118
1, 195703, Note_off_c, 0, 78, 62
1, 195711, Control_c, 0, 64, 127
1, 195719, Note_off_c, 0, 51, 62
1, 195745, Note_off_c, 0, 70, 60
1, 195763, Note_on_c, 0, 39, 57
1, 195791, Note_off_c, 0, 39, 56
1, 195804, Note_on_c, 0, 51, 67
1, 195830, Control_c, 0, 64, 86
1, 195830, Note_off_c, 0, 51, 65
1, 195845, Control_c, 0, 64, 63
1, 195859, Control_c, 0, 64, 0
1, 195871, Note_on_c, 0, 41, 77
1, 195874, Note_on_c, 0, 77, 82
1, 195878, Note_on_c, 0, 74, 67
1, 195883, Note_on_c, 0, 68, 74
1, 195919, Control_c, 0, 64, 17
1, 195924, Note_off_c, 0, 41, 63
1, 195933, Control_c, 0, 64, 57
1, 195942, Note_on_c, 0, 53, 72
1, 195948, Control_c, 0, 64, 64
1, 195958, Note_off_c, 0, 77, 58
1, 195963, Control_c, 0, 64, 66
1, 195975, Note_off_c, 0, 53, 65
1, 195978, Control_c, 0, 64, 68
1, 195993, Note_off_c, 0, 74, 55
1, 195994, Control_c, 0, 64, 72
1, 195994, Note_on_c, 0, 41, 82
1, 196015, Control_c, 0, 64, 80
1, 196016, Note_off_c, 0, 68, 63
1, 196030, Control_c, 0, 64, 96
1, 196045, Control_c, 0, 64, 114
1, 196059, Note_off_c, 0, 41, 64
1, 196060, Control_c, 0, 64, 127
1, 196070, Note_on_c, 0, 53, 71
1, 196095, Note_off_c, 0, 53, 70
1, 196104, Control_c, 0, 64, 90
1, 196119, Control_c, 0, 64, 65
1, 196134, Control_c, 0, 64, 0
1, 196137, Note_on_c, 0, 42, 86
1, 196140, Note_on_c, 0, 75, 90
1, 196141, Note_on_c, 0, 66, 93
1, 196178, Note_on_c, 0, 71, 53
1, 196178, Control_c, 0, 64, 52
1, 196179, Note_on_c, 0, 70, 32
1, 196193, Control_c, 0, 64, 64
1, 196199, Note_off_c, 0, 42, 62
1, 196200, Note_on_c, 0, 54, 80
1, 196208, Note_off_c, 0, 71, 65
1, 196208, Control_c, 0, 64, 72
1, 196220, Note_off_c, 0, 75, 63
1, 196223, Control_c, 0, 64, 83
1, 196226, Note_off_c, 0, 70, 48
1, 196238, Control_c, 0, 64, 95
1, 196247, Note_off_c, 0, 54, 63
1, 196249, Note_off_c, 0, 66, 50
1, 196253, Control_c, 0, 64, 103
1, 196256, Note_on_c, 0, 42, 81
1, 196267, Control_c, 0, 64, 114
1, 196282, Control_c, 0, 64, 127
1, 196316, Note_on_c, 0, 54, 77
1, 196318, Note_off_c, 0, 42, 62
1, 196364, Note_off_c, 0, 54, 62
1, 196384, Note_on_c, 0, 44, 89
1, 196387, Control_c, 0, 64, 74
1, 196399, Note_on_c, 0, 63, 96
1, 196402, Control_c, 0, 64, 0
1, 196407, Note_on_c, 0, 68, 87
1, 196407, Note_on_c, 0, 71, 82
1, 196446, Control_c, 0, 64, 15
1, 196455, Note_on_c, 0, 56, 75
1, 196458, Note_off_c, 0, 44, 64
1, 196461, Control_c, 0, 64, 60
1, 196476, Control_c, 0, 64, 68
1, 196481, Note_on_c, 0, 51, 26
1, 196491, Control_c, 0, 64, 75
1, 196502, Note_off_c, 0, 71, 56
1, 196506, Control_c, 0, 64, 78
1, 196509, Note_on_c, 0, 44, 71
1, 196520, Note_off_c, 0, 51, 51
1, 196520, Control_c, 0, 64, 80
1, 196528, Note_off_c, 0, 56, 60
1, 196535, Control_c, 0, 64, 86
1, 196550, Control_c, 0, 64, 100
1, 196561, Note_on_c, 0, 56, 60
1, 196563, Note_off_c, 0, 63, 56
1, 196564, Control_c, 0, 64, 127
1, 196575, Note_off_c, 0, 44, 63
1, 196598, Note_off_c, 0, 68, 30
1, 196630, Note_off_c, 0, 56, 63
1, 196658, Note_on_c, 0, 46, 87
1, 196668, Control_c, 0, 64, 78
1, 196669, Note_on_c, 0, 70, 90
1, 196670, Note_on_c, 0, 63, 95
1, 196682, Control_c, 0, 64, 0
1, 196688, Note_on_c, 0, 66, 61
1, 196718, Note_on_c, 0, 58, 82
1, 196725, Note_off_c, 0, 46, 64
1, 196742, Control_c, 0, 64, 53
1, 196764, Control_c, 0, 64, 72
1, 196779, Control_c, 0, 64, 116
1, 196787, Note_on_c, 0, 46, 86
1, 196794, Control_c, 0, 64, 127
1, 196806, Note_off_c, 0, 58, 59
1, 196838, Note_off_c, 0, 66, 38
1, 196855, Note_off_c, 0, 46, 61
1, 196856, Note_on_c, 0, 58, 69
1, 196864, Note_off_c, 0, 63, 59
1, 196914, Note_on_c, 0, 46, 84
1, 196927, Control_c, 0, 64, 77
1, 196930, Note_off_c, 0, 58, 59
1, 196942, Control_c, 0, 64, 0
1, 196947, Note_on_c, 0, 65, 65
1, 196956, Note_on_c, 0, 62, 92
1, 196985, Note_off_c, 0, 46, 63
1, 196986, Note_on_c, 0, 58, 70
1, 197001, Control_c, 0, 64, 59
1, 197016, Control_c, 0, 64, 78
1, 197031, Control_c, 0, 64, 127
1, 197034, Poly_aftertouch_c, 0, 46, 0
1, 197040, Note_on_c, 0, 46, 77
1, 197065, Note_off_c, 0, 58, 63
1, 197090, Note_off_c, 0, 62, 50
1, 197108, Note_off_c, 0, 46, 63
1, 197109, Note_on_c, 0, 58, 52
1, 197139, Note_off_c, 0, 70, 51
1, 197141, Note_off_c, 0, 65, 36
1, 197162, Note_off_c, 0, 58, 63
1, 197175, Note_on_c, 0, 46, 79
1, 197179, Control_c, 0, 64, 69
1, 197195, Control_c, 0, 64, 0
1, 197209, Note_on_c, 0, 72, 83
1, 197212, Note_on_c, 0, 64, 79
1, 197217, Note_on_c, 0, 67, 68
1, 197233, Note_off_c, 0, 64, 71
1, 197240, Note_off_c, 0, 67, 69
1, 197243, Note_off_c, 0, 46, 62
1, 197254, Control_c, 0, 64, 61
1, 197257, Note_on_c, 0, 58, 54
1, 197257, Note_off_c, 0, 72, 67
1, 197269, Control_c, 0, 64, 73
1, 197284, Control_c, 0, 64, 88
1, 197290, Note_off_c, 0, 58, 64
1, 197299, Control_c, 0, 64, 106
1, 197313, Control_c, 0, 64, 116
1, 197328, Control_c, 0, 64, 127
1, 197331, Note_on_c, 0, 46, 59
1, 197362, Note_off_c, 0, 46, 62
1, 197374, Note_on_c, 0, 58, 56
1, 197393, Note_off_c, 0, 58, 63
1, 197402, Control_c, 0, 64, 115
1, 197417, Control_c, 0, 64, 80
1, 197432, Control_c, 0, 64, 58
1, 197447, Control_c, 0, 64, 0
1, 197461, Note_on_c, 0, 84, 77
1, 197462, Note_on_c, 0, 40, 69
1, 197478, Note_on_c, 0, 79, 62
1, 197483, Note_on_c, 0, 72, 60
1, 197512, Note_off_c, 0, 40, 61
1, 197551, Note_on_c, 0, 52, 54
1, 197558, Control_c, 0, 64, 48
1, 197573, Control_c, 0, 64, 61
1, 197587, Control_c, 0, 64, 66
1, 197588, Note_off_c, 0, 52, 66
1, 197596, Note_on_c, 0, 40, 71
1, 197602, Control_c, 0, 64, 72
1, 197617, Control_c, 0, 64, 89
1, 197632, Control_c, 0, 64, 127
1, 197633, Note_off_c, 0, 72, 55
1, 197636, Note_off_c, 0, 40, 64
1, 197683, Note_on_c, 0, 52, 53
1, 197686, Note_off_c, 0, 79, 60
1, 197700, Note_off_c, 0, 84, 63
1, 197705, Control_c, 0, 64, 78
1, 197707, Note_off_c, 0, 52, 60
1, 197720, Control_c, 0, 64, 59
1, 197731, Note_on_c, 0, 80, 78
1, 197734, Note_on_c, 0, 41, 72
1, 197735, Control_c, 0, 64, 8
1, 197739, Note_on_c, 0, 72, 74
1, 197744, Note_on_c, 0, 77, 55
1, 197750, Control_c, 0, 64, 43
1, 197765, Control_c, 0, 64, 60
1, 197769, Note_off_c, 0, 77, 64
1, 197779, Control_c, 0, 64, 66
1, 197782, Note_off_c, 0, 41, 59
1, 197794, Control_c, 0, 64, 73
1, 197798, Note_off_c, 0, 72, 64
1, 197805, Note_on_c, 0, 53, 67
1, 197805, Note_off_c, 0, 80, 63
1, 197809, Control_c, 0, 64, 81
1, 197824, Control_c, 0, 64, 91
1, 197839, Note_off_c, 0, 53, 64
1, 197839, Control_c, 0, 64, 113
1, 197854, Control_c, 0, 64, 127
1, 197857, Note_on_c, 0, 41, 72
1, 197893, Note_on_c, 0, 73, 36
1, 197901, Note_off_c, 0, 41, 63
1, 197927, Note_off_c, 0, 73, 52
1, 197935, Note_on_c, 0, 53, 60
1, 197954, Note_off_c, 0, 53, 67
1, 197958, Control_c, 0, 64, 119
1, 197973, Control_c, 0, 64, 71
1, 197988, Control_c, 0, 64, 0
1, 197991, Note_on_c, 0, 43, 85
1, 197999, Note_on_c, 0, 70, 84
1, 198000, Note_on_c, 0, 79, 74
1, 198001, Note_on_c, 0, 72, 76
1, 198003, Note_on_c, 0, 77, 79
1, 198047, Control_c, 0, 64, 58
1, 198056, Note_on_c, 0, 55, 71
1, 198056, Note_off_c, 0, 43, 62
1, 198062, Control_c, 0, 64, 70
1, 198077, Control_c, 0, 64, 84
1, 198087, Note_off_c, 0, 55, 64
1, 198092, Control_c, 0, 64, 118
1, 198102, Note_off_c, 0, 79, 47
1, 198105, Note_on_c, 0, 43, 74
1, 198107, Control_c, 0, 64, 127
1, 198107, Note_off_c, 0, 70, 58
1, 198107, Note_off_c, 0, 77, 52
1, 198121, Poly_aftertouch_c, 0, 75, 127
1, 198166, Note_off_c, 0, 43, 63
1, 198170, Note_off_c, 0, 72, 34
1, 198173, Note_on_c, 0, 55, 71
1, 198192, Poly_aftertouch_c, 0, 75, 0
1, 198202, Note_off_c, 0, 55, 64
1, 198240, Control_c, 0, 64, 84
1, 198245, Note_on_c, 0, 44, 94
1, 198250, Note_on_c, 0, 77, 90
1, 198262, Note_on_c, 0, 68, 95
1, 198262, Note_on_c, 0, 72, 71
1, 198262, Control_c, 0, 64, 56
1, 198277, Control_c, 0, 64, 0
1, 198322, Control_c, 0, 64, 58
1, 198325, Note_off_c, 0, 44, 64
1, 198328, Note_on_c, 0, 56, 80
1, 198336, Control_c, 0, 64, 69
1, 198351, Control_c, 0, 64, 79
1, 198357, Note_off_c, 0, 77, 61
1, 198366, Control_c, 0, 64, 90
1, 198372, Note_off_c, 0, 56, 64
1, 198381, Control_c, 0, 64, 95
1, 198383, Note_on_c, 0, 44, 82
1, 198386, Note_off_c, 0, 72, 62
1, 198391, Note_off_c, 0, 68, 58
1, 198396, Control_c, 0, 64, 106
1, 198410, Control_c, 0, 64, 127
1, 198447, Note_off_c, 0, 44, 63
1, 198450, Note_on_c, 0, 56, 73
1, 198490, Note_off_c, 0, 56, 60
1, 198514, Control_c, 0, 64, 83
1, 198515, Note_on_c, 0, 46, 85
1, 198521, Note_on_c, 0, 73, 104
1, 198524, Note_on_c, 0, 65, 90
1, 198528, Control_c, 0, 64, 46
1, 198543, Control_c, 0, 64, 0
1, 198578, Note_on_c, 0, 58, 78
1, 198581, Note_off_c, 0, 46, 64
1, 198588, Control_c, 0, 64, 54
1, 198602, Control_c, 0, 64, 69
1, 198617, Control_c, 0, 64, 82
1, 198626, Note_off_c, 0, 58, 64
1, 198632, Control_c, 0, 64, 112
1, 198641, Note_on_c, 0, 46, 82
1, 198647, Control_c, 0, 64, 127
1, 198678, Note_off_c, 0, 65, 57
1, 198682, Note_off_c, 0, 73, 50
1, 198695, Note_on_c, 0, 58, 67
1, 198701, Note_off_c, 0, 46, 62
1, 198713, Poly_aftertouch_c, 0, 70, 0
1, 198743, Note_off_c, 0, 58, 64
1, 198787, Note_on_c, 0, 48, 86
1, 198795, Note_on_c, 0, 72, 97
1, 198796, Note_on_c, 0, 65, 90
1, 198796, Control_c, 0, 64, 72
1, 198811, Control_c, 0, 64, 0
1, 198849, Note_off_c, 0, 48, 62
1, 198864, Note_on_c, 0, 60, 77
1, 198870, Control_c, 0, 64, 55
1, 198885, Control_c, 0, 64, 79
1, 198889, Note_off_c, 0, 60, 64
1, 198900, Control_c, 0, 64, 127
1, 198916, Note_on_c, 0, 48, 83
1, 198945, Note_off_c, 0, 65, 59
1, 198974, Note_on_c, 0, 60, 80
1, 198978, Note_off_c, 0, 48, 64
1, 198985, Note_off_c, 0, 72, 60
1, 199028, Note_off_c, 0, 60, 61
1, 199055, Note_on_c, 0, 49, 84
1, 199070, Control_c, 0, 64, 94
1, 199077, Note_on_c, 0, 71, 97
1, 199079, Note_on_c, 0, 65, 94
1, 199085, Control_c, 0, 64, 0
1, 199112, Note_off_c, 0, 49, 63
1, 199125, Note_on_c, 0, 61, 77
1, 199129, Control_c, 0, 64, 25
1, 199144, Control_c, 0, 64, 65
1, 199159, Control_c, 0, 64, 111
1, 199174, Control_c, 0, 64, 127
1, 199178, Note_on_c, 0, 49, 80
1, 199198, Note_off_c, 0, 65, 61
1, 199212, Note_off_c, 0, 71, 58
1, 199255, Note_off_c, 0, 49, 60
1, 199264, Note_off_c, 0, 61, 60
1, 199350, Note_on_c, 0, 48, 88
1, 199356, Note_on_c, 0, 60, 84
1, 199356, Note_on_c, 0, 72, 87
1, 199359, Note_on_c, 0, 64, 84
1, 199366, Control_c, 0, 64, 94
1, 199381, Control_c, 0, 64, 65
1, 199396, Control_c, 0, 64, 0
1, 199407, Note_off_c, 0, 60, 61
1, 199415, Note_off_c, 0, 72, 66
1, 199437, Note_off_c, 0, 48, 62
1, 199490, Note_off_c, 0, 64, 61
1, 199499, Note_on_c, 0, 59, 75
1, 199589, Control_c, 0, 67, 15
1, 199604, Control_c, 0, 67, 27
1, 199619, Control_c, 0, 67, 39
1, 199622, Note_on_c, 0, 60, 68
1, 199627, Note_off_c, 0, 59, 58
1, 199634, Control_c, 0, 67, 47
1, 199648, Control_c, 0, 67, 53
1, 199663, Control_c, 0, 67, 58
1, 199678, Control_c, 0, 67, 65
1, 199693, Control_c, 0, 67, 75
1, 199708, Control_c, 0, 67, 83
1, 199723, Control_c, 0, 67, 88
1, 199735, Note_off_c, 0, 60, 58
1, 199738, Control_c, 0, 67, 92
1, 199741, Note_on_c, 0, 59, 63
1, 199760, Control_c, 0, 67, 96
1, 199775, Control_c, 0, 67, 101
1, 199789, Control_c, 0, 67, 108
1, 199804, Control_c, 0, 67, 117
1, 199819, Control_c, 0, 67, 126
1, 199834, Control_c, 0, 67, 127
1, 199891, Note_off_c, 0, 59, 59
1, 199899, Note_on_c, 0, 60, 55
1, 200005, Note_off_c, 0, 60, 53
1, 200029, Note_on_c, 0, 59, 49
1, 200165, Note_on_c, 0, 60, 51
1, 200197, Note_off_c, 0, 59, 37
1, 200313, Note_off_c, 0, 60, 56
1, 200313, Note_on_c, 0, 59, 52
1, 200396, Note_off_c, 0, 59, 63
1, 200423, Note_on_c, 0, 60, 50
1, 200587, Note_on_c, 0, 48, 56
1, 200594, Note_on_c, 0, 65, 47
1, 200602, Note_on_c, 0, 68, 47
1, 200625, Note_off_c, 0, 48, 62
1, 200625, Note_off_c, 0, 68, 61
1, 200628, Note_off_c, 0, 65, 61
1, 200709, Note_on_c, 0, 53, 71
1, 200715, Note_on_c, 0, 68, 51
1, 200720, Note_on_c, 0, 65, 58
1, 200744, Note_off_c, 0, 68, 65
1, 200753, Note_off_c, 0, 65, 63
1, 200761, Note_off_c, 0, 53, 62
1, 200835, Note_on_c, 0, 55, 65
1, 200835, Note_on_c, 0, 68, 61
1, 200844, Note_off_c, 0, 60, 58
1, 200853, Note_on_c, 0, 65, 49
1, 200867, Note_off_c, 0, 68, 63
1, 200876, Note_off_c, 0, 55, 61
1, 200880, Note_off_c, 0, 65, 58
1, 200949, Note_on_c, 0, 56, 74
1, 200972, Note_on_c, 0, 60, 57
1, 200972, Note_off_c, 0, 56, 67
1, 201094, Note_on_c, 0, 65, 47
1, 201096, Note_on_c, 0, 72, 74
1, 201100, Note_on_c, 0, 68, 58
1, 201129, Note_off_c, 0, 68, 66
1, 201130, Control_c, 0, 67, 123
1, 201136, Note_off_c, 0, 65, 61
1, 201136, Note_off_c, 0, 72, 61
1, 201145, Control_c, 0, 67, 107
1, 201160, Control_c, 0, 67, 85
1, 201176, Control_c, 0, 67, 68
1, 201191, Control_c, 0, 67, 55
1, 201206, Control_c, 0, 67, 48
1, 201220, Control_c, 0, 67, 45
1, 201222, Note_on_c, 0, 68, 57
1, 201224, Note_on_c, 0, 77, 76
1, 201235, Control_c, 0, 67, 42
1, 201237, Note_on_c, 0, 65, 43
1, 201258, Control_c, 0, 67, 38
1, 201260, Note_off_c, 0, 68, 66
1, 201273, Note_off_c, 0, 77, 58
1, 201273, Control_c, 0, 67, 32
1, 201276, Note_off_c, 0, 65, 55
1, 201287, Control_c, 0, 67, 27
1, 201302, Control_c, 0, 67, 25
1, 201317, Control_c, 0, 67, 24
1, 201345, Note_on_c, 0, 79, 75
1, 201366, Note_on_c, 0, 68, 43
1, 201374, Note_on_c, 0, 65, 43
1, 201385, Note_off_c, 0, 79, 59
1, 201392, Note_off_c, 0, 60, 54
1, 201393, Note_off_c, 0, 68, 57
1, 201401, Note_off_c, 0, 65, 56
1, 201469, Note_on_c, 0, 72, 65
1, 201479, Control_c, 0, 67, 24
1, 201488, Note_on_c, 0, 80, 78
1, 201491, Note_on_c, 0, 60, 45
1, 201494, Control_c, 0, 67, 25
1, 201509, Control_c, 0, 67, 26
1, 201524, Control_c, 0, 67, 27
1, 201539, Control_c, 0, 67, 29
1, 201553, Control_c, 0, 67, 32
1, 201567, Note_off_c, 0, 72, 39
1, 201568, Control_c, 0, 67, 36
1, 201583, Control_c, 0, 67, 44
1, 201598, Control_c, 0, 67, 57
1, 201613, Control_c, 0, 67, 78
1, 201624, Note_on_c, 0, 65, 47
1, 201627, Control_c, 0, 67, 102
1, 201632, Note_on_c, 0, 68, 49
1, 201642, Control_c, 0, 67, 125
1, 201657, Control_c, 0, 67, 127
1, 201666, Note_off_c, 0, 68, 64
1, 201675, Note_off_c, 0, 65, 60
1, 201687, Control_c, 0, 64, 31
1, 201702, Control_c, 0, 64, 34
1, 201717, Control_c, 0, 64, 34
1, 201732, Control_c, 0, 64, 35
1, 201765, Note_on_c, 0, 65, 38
1, 201765, Note_on_c, 0, 68, 53
1, 201791, Control_c, 0, 64, 35
1, 201794, Note_off_c, 0, 68, 64
1, 201806, Control_c, 0, 64, 34
1, 201812, Note_off_c, 0, 65, 60
1, 201821, Control_c, 0, 64, 33
1, 201835, Control_c, 0, 64, 32
1, 201850, Control_c, 0, 64, 30
1, 201872, Note_on_c, 0, 77, 56
1, 201879, Control_c, 0, 64, 31
1, 201890, Note_off_c, 0, 60, 58
1, 201892, Note_on_c, 0, 68, 44
1, 201894, Control_c, 0, 64, 33
1, 201905, Note_on_c, 0, 65, 39
1, 201909, Control_c, 0, 64, 35
1, 201917, Note_off_c, 0, 68, 59
1, 201924, Control_c, 0, 64, 39
1, 201928, Note_off_c, 0, 80, 59
1, 201935, Note_off_c, 0, 65, 57
1, 201953, Control_c, 0, 64, 20
1, 201968, Control_c, 0, 64, 0
1, 201979, Note_off_c, 0, 77, 44
1, 201988, Note_on_c, 0, 72, 63
1, 202030, Note_on_c, 0, 60, 51
1, 202034, Note_on_c, 0, 80, 81
1, 202146, Note_off_c, 0, 72, 35
1, 202157, Note_on_c, 0, 68, 48
1, 202167, Note_on_c, 0, 65, 39
1, 202190, Note_off_c, 0, 68, 64
1, 202202, Note_off_c, 0, 65, 53
1, 202214, Control_c, 0, 64, 14
1, 202229, Control_c, 0, 64, 29
1, 202244, Control_c, 0, 64, 36
1, 202258, Control_c, 0, 64, 40
1, 202273, Control_c, 0, 64, 44
1, 202288, Note_on_c, 0, 68, 51
1, 202288, Control_c, 0, 64, 50
1, 202296, Note_on_c, 0, 65, 44
1, 202302, Control_c, 0, 64, 58
1, 202310, Note_off_c, 0, 68, 62
1, 202317, Control_c, 0, 64, 63
1, 202323, Note_off_c, 0, 65, 57
1, 202332, Control_c, 0, 64, 66
1, 202347, Control_c, 0, 64, 67
1, 202362, Control_c, 0, 64, 68
1, 202376, Control_c, 0, 64, 69
1, 202391, Control_c, 0, 64, 73
1, 202403, Note_on_c, 0, 68, 44
1, 202404, Note_on_c, 0, 65, 54
1, 202406, Control_c, 0, 64, 77
1, 202413, Note_off_c, 0, 60, 28
1, 202421, Control_c, 0, 64, 78
1, 202426, Note_on_c, 0, 77, 58
1, 202429, Note_off_c, 0, 68, 57
1, 202434, Note_off_c, 0, 65, 56
1, 202510, Control_c, 0, 64, 77
1, 202516, Note_off_c, 0, 77, 57
1, 202525, Control_c, 0, 64, 74
1, 202540, Control_c, 0, 64, 70
1, 202546, Note_off_c, 0, 80, 26
1, 202549, Note_on_c, 0, 76, 70
1, 202553, Note_on_c, 0, 60, 50
1, 202555, Control_c, 0, 64, 64
1, 202569, Control_c, 0, 64, 50
1, 202570, Note_off_c, 0, 76, 69
1, 202584, Control_c, 0, 64, 0
1, 202689, Note_on_c, 0, 67, 58
1, 202698, Note_on_c, 0, 70, 59
1, 202699, Note_on_c, 0, 48, 72
1, 202729, Note_off_c, 0, 48, 62
1, 202729, Note_off_c, 0, 70, 66
1, 202754, Note_off_c, 0, 67, 57
1, 202823, Note_on_c, 0, 55, 79
1, 202832, Note_on_c, 0, 70, 62
1, 202835, Note_on_c, 0, 67, 50
1, 202861, Note_off_c, 0, 70, 67
1, 202869, Note_off_c, 0, 55, 63
1, 202876, Note_off_c, 0, 67, 62
1, 202941, Note_on_c, 0, 56, 76
1, 202954, Note_on_c, 0, 70, 68
1, 202959, Note_on_c, 0, 67, 58
1, 202970, Note_off_c, 0, 60, 54
1, 202981, Note_off_c, 0, 70, 65
1, 202993, Note_off_c, 0, 67, 63
1, 203011, Note_off_c, 0, 56, 58
1, 203069, Note_on_c, 0, 58, 83
1, 203081, Note_on_c, 0, 60, 69
1, 203088, Note_off_c, 0, 58, 73
1, 203209, Note_on_c, 0, 72, 77
1, 203210, Note_on_c, 0, 67, 61
1, 203217, Note_on_c, 0, 70, 60
1, 203245, Note_off_c, 0, 70, 68
1, 203256, Note_off_c, 0, 67, 58
1, 203332, Note_off_c, 0, 72, 59
1, 203333, Note_on_c, 0, 82, 80
1, 203336, Note_on_c, 0, 70, 63
1, 203346, Note_on_c, 0, 67, 54
1, 203368, Note_off_c, 0, 70, 65
1, 203382, Note_off_c, 0, 67, 62
1, 203447, Note_off_c, 0, 82, 63
1, 203452, Note_on_c, 0, 80, 75
1, 203476, Note_off_c, 0, 80, 66
1, 203482, Note_on_c, 0, 67, 47
1, 203486, Note_on_c, 0, 70, 41
1, 203501, Note_off_c, 0, 60, 57
1, 203517, Note_off_c, 0, 67, 57
1, 203520, Note_off_c, 0, 70, 57
1, 203597, Note_on_c, 0, 80, 81
1, 203616, Note_on_c, 0, 60, 61
1, 203634, Note_on_c, 0, 82, 59
1, 203637, Note_off_c, 0, 80, 65
1, 203668, Note_off_c, 0, 82, 48
1, 203673, Note_on_c, 0, 83, 56
1, 203696, Note_off_c, 0, 83, 58
1, 203711, Note_on_c, 0, 81, 49
1, 203723, Note_on_c, 0, 80, 40
1, 203726, Note_on_c, 0, 79, 75
1, 203732, Note_on_c, 0, 70, 61
1, 203732, Note_on_c, 0, 67, 58
1, 203741, Note_off_c, 0, 81, 58
1, 203749, Note_off_c, 0, 79, 66
1, 203751, Note_off_c, 0, 80, 56
1, 203759, Note_off_c, 0, 70, 68
1, 203767, Note_off_c, 0, 67, 64
1, 203852, Note_on_c, 0, 70, 59
1, 203856, Note_on_c, 0, 67, 55
1, 203857, Note_on_c, 0, 79, 73
1, 203878, Note_on_c, 0, 80, 72
1, 203878, Note_off_c, 0, 70, 67
1, 203887, Note_off_c, 0, 67, 64
1, 203913, Note_off_c, 0, 79, 62
1, 203951, Note_on_c, 0, 79, 62
1, 203982, Note_on_c, 0, 70, 49
1, 203984, Note_on_c, 0, 77, 75
1, 203986, Note_off_c, 0, 80, 63
1, 203998, Note_on_c, 0, 67, 46
1, 204002, Note_off_c, 0, 79, 63
1, 204006, Note_off_c, 0, 77, 66
1, 204019, Note_off_c, 0, 60, 58
1, 204024, Note_off_c, 0, 70, 61
1, 204033, Note_off_c, 0, 67, 63
1, 204111, Note_on_c, 0, 77, 81
1, 204122, Note_on_c, 0, 60, 66
1, 204134, Note_on_c, 0, 79, 72
1, 204166, Note_off_c, 0, 77, 0
1, 204187, Note_on_c, 0, 77, 53
1, 204212, Note_off_c, 0, 79, 59
1, 204237, Note_on_c, 0, 76, 74
1, 204254, Note_on_c, 0, 67, 59
1, 204256, Note_off_c, 0, 77, 62
1, 204263, Note_on_c, 0, 70, 55
1, 204267, Note_off_c, 0, 76, 70
1, 204290, Note_off_c, 0, 70, 67
1, 204295, Note_off_c, 0, 67, 59
1, 204380, Note_on_c, 0, 70, 55
1, 204385, Note_on_c, 0, 74, 81
1, 204391, Note_on_c, 0, 67, 53
1, 204409, Note_off_c, 0, 70, 67
1, 204414, Note_off_c, 0, 74, 65
1, 204416, Note_off_c, 0, 67, 62
1, 204498, Note_on_c, 0, 67, 63
1, 204506, Note_on_c, 0, 70, 51
1, 204509, Note_on_c, 0, 76, 78
1, 204533, Note_off_c, 0, 70, 66
1, 204538, Note_off_c, 0, 60, 36
1, 204543, Note_off_c, 0, 67, 57
1, 204564, Note_off_c, 0, 76, 62
1, 204640, Note_on_c, 0, 77, 79
1, 204645, Note_on_c, 0, 60, 57
1, 204659, Note_off_c, 0, 77, 70
1, 204789, Note_on_c, 0, 48, 77
1, 204790, Note_on_c, 0, 65, 54
1, 204794, Note_on_c, 0, 68, 61
1, 204820, Note_off_c, 0, 48, 62
1, 204824, Note_off_c, 0, 68, 64
1, 204838, Note_off_c, 0, 65, 59
1, 204917, Note_on_c, 0, 53, 82
1, 204928, Note_on_c, 0, 65, 54
1, 204933, Note_on_c, 0, 68, 62
1, 204954, Note_off_c, 0, 68, 66
1, 204964, Note_off_c, 0, 65, 64
1, 204965, Note_off_c, 0, 53, 65
1, 204978, Control_c, 0, 67, 124
1, 205000, Control_c, 0, 67, 119
1, 205015, Control_c, 0, 67, 109
1, 205029, Control_c, 0, 67, 100
1, 205044, Note_on_c, 0, 55, 81
1, 205044, Control_c, 0, 67, 93
1, 205046, Note_on_c, 0, 68, 65
1, 205056, Note_off_c, 0, 60, 59
1, 205059, Control_c, 0, 67, 89
1, 205064, Note_on_c, 0, 65, 50
1, 205074, Control_c, 0, 67, 88
1, 205078, Note_off_c, 0, 68, 64
1, 205089, Control_c, 0, 67, 90
1, 205094, Note_off_c, 0, 65, 60
1, 205096, Note_off_c, 0, 55, 64
1, 205103, Control_c, 0, 67, 92
1, 205118, Control_c, 0, 67, 94
1, 205133, Control_c, 0, 67, 96
1, 205148, Control_c, 0, 67, 99
1, 205163, Control_c, 0, 67, 103
1, 205169, Note_on_c, 0, 56, 82
1, 205169, Note_on_c, 0, 60, 67
1, 205179, Control_c, 0, 67, 108
1, 205190, Note_off_c, 0, 56, 71
1, 205194, Control_c, 0, 67, 115
1, 205208, Control_c, 0, 67, 124
1, 205223, Control_c, 0, 67, 127
1, 205302, Note_on_c, 0, 65, 59
1, 205304, Note_on_c, 0, 68, 66
1, 205324, Note_on_c, 0, 72, 65
1, 205336, Note_on_c, 0, 71, 32
1, 205351, Note_off_c, 0, 72, 68
1, 205361, Note_off_c, 0, 68, 63
1, 205369, Note_off_c, 0, 65, 61
1, 205369, Note_off_c, 0, 71, 48
1, 205430, Note_on_c, 0, 77, 78
1, 205450, Note_on_c, 0, 68, 55
1, 205458, Note_on_c, 0, 65, 42
1, 205471, Note_off_c, 0, 68, 62
1, 205473, Note_off_c, 0, 77, 55
1, 205488, Note_off_c, 0, 65, 57
1, 205534, Control_c, 0, 64, 37
1, 205546, Note_on_c, 0, 80, 76
1, 205549, Control_c, 0, 64, 48
1, 205550, Note_on_c, 0, 68, 59
1, 205559, Note_off_c, 0, 60, 60
1, 205564, Control_c, 0, 64, 51
1, 205570, Note_off_c, 0, 68, 63
1, 205577, Note_on_c, 0, 65, 43
1, 205579, Note_off_c, 0, 80, 60
1, 205579, Control_c, 0, 64, 52
1, 205593, Control_c, 0, 64, 53
1, 205605, Note_off_c, 0, 65, 35
1, 205608, Control_c, 0, 64, 54
1, 205623, Control_c, 0, 64, 54
1, 205638, Control_c, 0, 64, 55
1, 205644, Note_on_c, 0, 72, 62
1, 205652, Control_c, 0, 64, 54
1, 205667, Control_c, 0, 64, 51
1, 205682, Control_c, 0, 64, 42
1, 205686, Note_on_c, 0, 84, 85
1, 205697, Control_c, 0, 64, 0
1, 205699, Note_on_c, 0, 56, 48
1, 205765, Note_off_c, 0, 72, 61
1, 205834, Note_on_c, 0, 65, 57
1, 205840, Note_on_c, 0, 60, 49
1, 205851, Control_c, 0, 64, 36
1, 205866, Control_c, 0, 64, 59
1, 205868, Note_off_c, 0, 65, 61
1, 205879, Note_off_c, 0, 60, 61
1, 205881, Control_c, 0, 64, 63
1, 205896, Control_c, 0, 64, 65
1, 205911, Control_c, 0, 64, 68
1, 205926, Control_c, 0, 64, 71
1, 205941, Control_c, 0, 64, 76
1, 205956, Control_c, 0, 64, 80
1, 205971, Control_c, 0, 64, 82
1, 205973, Note_on_c, 0, 65, 58
1, 205974, Note_on_c, 0, 60, 57
1, 205986, Control_c, 0, 64, 83
1, 205997, Note_off_c, 0, 65, 62
1, 206004, Note_off_c, 0, 60, 63
1, 206014, Note_off_c, 0, 56, 50
1, 206057, Note_off_c, 0, 84, 52
1, 206142, Note_on_c, 0, 77, 22
1, 206241, Note_on_c, 0, 89, 85
1, 206260, Note_on_c, 0, 56, 50
1, 206267, Control_c, 0, 64, 79
1, 206282, Control_c, 0, 64, 72
1, 206297, Control_c, 0, 64, 64
1, 206312, Control_c, 0, 64, 46
1, 206326, Note_off_c, 0, 77, 41
1, 206327, Control_c, 0, 64, 0
1, 206386, Note_on_c, 0, 60, 49
1, 206400, Note_on_c, 0, 65, 33
1, 206437, Note_off_c, 0, 60, 57
1, 206440, Note_off_c, 0, 65, 49
1, 206543, Control_c, 0, 64, 43
1, 206545, Note_on_c, 0, 65, 43
1, 206556, Note_on_c, 0, 60, 36
1, 206557, Control_c, 0, 64, 50
1, 206572, Note_off_c, 0, 65, 57
1, 206572, Control_c, 0, 64, 54
1, 206585, Note_off_c, 0, 60, 51
1, 206587, Control_c, 0, 64, 58
1, 206601, Control_c, 0, 64, 62
1, 206616, Control_c, 0, 64, 64
1, 206631, Control_c, 0, 64, 65
1, 206647, Note_on_c, 0, 84, 63
1, 206658, Note_on_c, 0, 65, 52
1, 206661, Control_c, 0, 64, 65
1, 206666, Note_off_c, 0, 56, 59
1, 206667, Note_on_c, 0, 60, 53
1, 206675, Control_c, 0, 64, 66
1, 206690, Control_c, 0, 64, 67
1, 206699, Note_off_c, 0, 65, 56
1, 206701, Note_off_c, 0, 60, 63
1, 206710, Note_off_c, 0, 89, 34
1, 206764, Control_c, 0, 64, 66
1, 206780, Control_c, 0, 64, 65
1, 206783, Note_on_c, 0, 83, 56
1, 206786, Note_off_c, 0, 84, 57
1, 206795, Control_c, 0, 64, 62
1, 206804, Note_off_c, 0, 83, 64
1, 206810, Control_c, 0, 64, 56
1, 206815, Note_on_c, 0, 55, 46
1, 206824, Control_c, 0, 64, 20
1, 206839, Control_c, 0, 64, 0
1, 206931, Note_on_c, 0, 62, 63
1, 206934, Note_on_c, 0, 43, 75
1, 206950, Note_on_c, 0, 65, 42
1, 206966, Note_off_c, 0, 62, 59
1, 206972, Note_off_c, 0, 43, 61
1, 206976, Note_off_c, 0, 65, 56
1, 207065, Note_on_c, 0, 50, 77
1, 207067, Note_on_c, 0, 62, 63
1, 207067, Note_on_c, 0, 65, 52
1, 207097, Note_off_c, 0, 62, 64
1, 207101, Note_off_c, 0, 65, 63
1, 207103, Note_off_c, 0, 50, 60
1, 207184, Note_on_c, 0, 51, 80
1, 207193, Note_on_c, 0, 65, 54
1, 207205, Note_on_c, 0, 62, 49
1, 207208, Note_off_c, 0, 55, 57
1, 207229, Note_off_c, 0, 62, 57
1, 207233, Note_off_c, 0, 51, 61
1, 207249, Note_off_c, 0, 65, 52
1, 207320, Note_on_c, 0, 53, 82
1, 207336, Note_on_c, 0, 55, 64
1, 207341, Note_off_c, 0, 53, 72
1, 207454, Note_on_c, 0, 67, 78
1, 207461, Note_on_c, 0, 62, 60
1, 207467, Note_on_c, 0, 65, 56
1, 207497, Note_off_c, 0, 65, 63
1, 207506, Note_off_c, 0, 62, 60
1, 207587, Note_on_c, 0, 77, 82
1, 207596, Note_on_c, 0, 62, 53
1, 207597, Note_on_c, 0, 65, 47
1, 207605, Note_off_c, 0, 67, 36
1, 207628, Note_off_c, 0, 65, 57
1, 207630, Note_off_c, 0, 62, 61
1, 207696, Note_off_c, 0, 77, 58
1, 207706, Note_on_c, 0, 75, 81
1, 207717, Note_on_c, 0, 65, 49
1, 207722, Note_off_c, 0, 55, 61
1, 207724, Note_on_c, 0, 62, 49
1, 207731, Note_off_c, 0, 75, 68
1, 207746, Note_off_c, 0, 65, 55
1, 207750, Note_off_c, 0, 62, 58
1, 207842, Note_on_c, 0, 75, 83
1, 207847, Note_on_c, 0, 55, 61
1, 207880, Note_on_c, 0, 77, 61
1, 207881, Note_off_c, 0, 75, 62
1, 207925, Note_on_c, 0, 75, 64
1, 207954, Note_on_c, 0, 62, 67
1, 207961, Note_off_c, 0, 77, 61
1, 207965, Note_on_c, 0, 74, 69
1, 207979, Note_on_c, 0, 65, 44
1, 207995, Note_off_c, 0, 75, 65
1, 207998, Note_off_c, 0, 74, 69
1, 208012, Note_off_c, 0, 62, 59
1, 208012, Note_off_c, 0, 65, 55
1, 208104, Note_on_c, 0, 65, 52
1, 208114, Note_on_c, 0, 74, 78
1, 208123, Note_on_c, 0, 62, 47
1, 208131, Note_off_c, 0, 65, 60
1, 208144, Note_on_c, 0, 75, 68
1, 208151, Note_off_c, 0, 62, 55
1, 208163, Note_off_c, 0, 74, 68
1, 208212, Note_on_c, 0, 74, 63
1, 208236, Note_on_c, 0, 65, 51
1, 208239, Note_on_c, 0, 62, 50
1, 208242, Note_off_c, 0, 75, 63
1, 208247, Note_on_c, 0, 72, 77
1, 208265, Note_off_c, 0, 74, 66
1, 208266, Note_off_c, 0, 55, 58
1, 208267, Note_off_c, 0, 72, 72
1, 208287, Note_off_c, 0, 65, 56
1, 208290, Note_off_c, 0, 62, 59
1, 208382, Note_on_c, 0, 72, 78
1, 208389, Note_on_c, 0, 55, 63
1, 208413, Note_on_c, 0, 74, 69
1, 208425, Note_off_c, 0, 72, 67
1, 208458, Note_on_c, 0, 72, 58
1, 208479, Note_off_c, 0, 74, 63
1, 208503, Note_on_c, 0, 71, 72
1, 208508, Note_off_c, 0, 72, 66
1, 208520, Note_on_c, 0, 62, 55
1, 208523, Note_off_c, 0, 71, 69
1, 208524, Note_on_c, 0, 65, 53
1, 208547, Note_off_c, 0, 65, 59
1, 208552, Note_off_c, 0, 62, 59
1, 208642, Note_on_c, 0, 62, 59
1, 208643, Note_on_c, 0, 65, 51
1, 208650, Note_on_c, 0, 69, 76
1, 208669, Note_off_c, 0, 69, 74
1, 208677, Note_off_c, 0, 65, 63
1, 208681, Note_off_c, 0, 62, 59
1, 208784, Note_on_c, 0, 71, 74
1, 208787, Note_on_c, 0, 65, 50
1, 208798, Note_off_c, 0, 55, 57
1, 208805, Note_on_c, 0, 62, 44
1, 208822, Note_off_c, 0, 71, 59
1, 208823, Note_off_c, 0, 65, 57
1, 208832, Note_off_c, 0, 62, 57
1, 208914, Note_on_c, 0, 72, 72
1, 208923, Note_on_c, 0, 55, 58
1, 208937, Note_off_c, 0, 72, 70
1, 209060, Note_on_c, 0, 43, 75
1, 209062, Note_on_c, 0, 60, 57
1, 209067, Note_on_c, 0, 63, 61
1, 209090, Note_off_c, 0, 43, 65
1, 209098, Note_off_c, 0, 63, 66
1, 209101, Note_off_c, 0, 60, 61
1, 209189, Note_on_c, 0, 48, 85
1, 209194, Note_on_c, 0, 63, 70
1, 209198, Note_on_c, 0, 60, 58
1, 209223, Note_off_c, 0, 63, 64
1, 209235, Note_off_c, 0, 48, 60
1, 209235, Note_off_c, 0, 60, 61
1, 209310, Note_on_c, 0, 50, 84
1, 209324, Note_on_c, 0, 63, 60
1, 209325, Note_on_c, 0, 60, 55
1, 209327, Note_off_c, 0, 55, 62
1, 209344, Note_off_c, 0, 63, 64
1, 209353, Note_off_c, 0, 50, 59
1, 209360, Note_off_c, 0, 60, 64
1, 209434, Note_on_c, 0, 51, 82
1, 209450, Note_on_c, 0, 55, 64
1, 209456, Note_off_c, 0, 51, 70
1, 209589, Note_on_c, 0, 79, 77
1, 209593, Note_on_c, 0, 60, 61
1, 209595, Note_on_c, 0, 63, 65
1, 209620, Note_off_c, 0, 63, 68
1, 209631, Note_off_c, 0, 60, 60
1, 209634, Note_off_c, 0, 79, 62
1, 209715, Note_on_c, 0, 63, 63
1, 209715, Note_on_c, 0, 84, 81
1, 209738, Note_on_c, 0, 60, 42
1, 209744, Note_off_c, 0, 63, 67
1, 209752, Note_off_c, 0, 84, 64
1, 209762, Note_off_c, 0, 60, 57
1, 209833, Note_on_c, 0, 86, 78
1, 209838, Note_on_c, 0, 60, 61
1, 209846, Note_on_c, 0, 63, 57
1, 209864, Note_off_c, 0, 55, 57
1, 209867, Note_off_c, 0, 63, 62
1, 209867, Note_off_c, 0, 86, 54
1, 209875, Note_off_c, 0, 60, 60
1, 209950, Note_on_c, 0, 79, 63
1, 209980, Note_on_c, 0, 87, 82
1, 209988, Note_on_c, 0, 55, 53
1, 210031, Note_off_c, 0, 79, 56
1, 210112, Note_on_c, 0, 60, 47
1, 210117, Note_on_c, 0, 63, 54
1, 210153, Note_off_c, 0, 63, 64
1, 210158, Note_off_c, 0, 60, 61
1, 210248, Note_on_c, 0, 63, 60
1, 210255, Note_on_c, 0, 60, 49
1, 210257, Control_c, 0, 64, 14
1, 210272, Control_c, 0, 64, 35
1, 210281, Note_off_c, 0, 63, 64
1, 210287, Control_c, 0, 64, 44
1, 210293, Note_off_c, 0, 60, 62
1, 210302, Control_c, 0, 64, 49
1, 210316, Control_c, 0, 64, 50
1, 210331, Control_c, 0, 64, 50
1, 210346, Control_c, 0, 64, 51
1, 210361, Control_c, 0, 64, 53
1, 210376, Control_c, 0, 64, 55
1, 210382, Note_on_c, 0, 84, 61
1, 210388, Note_on_c, 0, 60, 47
1, 210390, Control_c, 0, 64, 56
1, 210391, Note_off_c, 0, 55, 56
1, 210397, Note_on_c, 0, 63, 29
1, 210404, Note_off_c, 0, 87, 54
1, 210405, Control_c, 0, 64, 56
1, 210413, Note_off_c, 0, 60, 59
1, 210432, Note_off_c, 0, 63, 46
1, 210434, Note_off_c, 0, 84, 54
1, 210464, Control_c, 0, 64, 56
1, 210479, Control_c, 0, 64, 51
1, 210481, Note_on_c, 0, 79, 62
1, 210494, Control_c, 0, 64, 33
1, 210509, Control_c, 0, 64, 0
1, 210518, Note_on_c, 0, 87, 80
1, 210526, Note_on_c, 0, 55, 52
1, 210593, Note_off_c, 0, 79, 49
1, 210644, Note_on_c, 0, 60, 51
1, 210654, Note_on_c, 0, 63, 50
1, 210687, Note_off_c, 0, 63, 59
1, 210690, Note_off_c, 0, 60, 60
1, 210788, Note_on_c, 0, 63, 54
1, 210790, Note_on_c, 0, 60, 51
1, 210810, Note_off_c, 0, 63, 59
1, 210822, Note_off_c, 0, 60, 65
1, 210835, Control_c, 0, 64, 17
1, 210850, Control_c, 0, 64, 31
1, 210855, Note_off_c, 0, 55, 57
1, 210865, Control_c, 0, 64, 36
1, 210880, Control_c, 0, 64, 41
1, 210895, Control_c, 0, 64, 46
1, 210901, Note_on_c, 0, 63, 50
1, 210904, Note_on_c, 0, 60, 55
1, 210906, Note_on_c, 0, 84, 67
1, 210910, Control_c, 0, 64, 48
1, 210925, Control_c, 0, 64, 49
1, 210925, Note_off_c, 0, 63, 59
1, 210940, Note_off_c, 0, 60, 62
1, 210948, Note_off_c, 0, 87, 63
1, 210969, Control_c, 0, 64, 48
1, 210990, Control_c, 0, 64, 47
1, 211005, Control_c, 0, 64, 45
1, 211017, Note_off_c, 0, 84, 57
1, 211020, Control_c, 0, 64, 39
1, 211035, Control_c, 0, 64, 17
1, 211042, Note_on_c, 0, 83, 62
1, 211050, Control_c, 0, 64, 0
1, 211065, Note_off_c, 0, 83, 64
1, 211068, Note_on_c, 0, 55, 49
1, 211186, Note_on_c, 0, 62, 66
1, 211204, Note_on_c, 0, 65, 45
1, 211207, Note_on_c, 0, 43, 63
1, 211225, Note_off_c, 0, 62, 55
1, 211231, Note_off_c, 0, 43, 58
1, 211242, Note_off_c, 0, 65, 48
1, 211287, Poly_aftertouch_c, 0, 45, 0
1, 211322, Note_on_c, 0, 50, 83
1, 211327, Note_on_c, 0, 62, 68
1, 211332, Note_on_c, 0, 65, 57
1, 211356, Note_off_c, 0, 62, 64
1, 211362, Note_off_c, 0, 65, 57
1, 211371, Note_off_c, 0, 50, 61
1, 211441, Note_on_c, 0, 51, 80
1, 211456, Note_on_c, 0, 65, 49
1, 211464, Note_off_c, 0, 55, 61
1, 211467, Note_on_c, 0, 62, 48
1, 211493, Note_off_c, 0, 62, 56
1, 211497, Note_off_c, 0, 51, 61
1, 211500, Note_off_c, 0, 65, 50
1, 211575, Note_on_c, 0, 53, 78
1, 211584, Note_on_c, 0, 55, 69
1, 211600, Note_off_c, 0, 53, 70
1, 211720, Note_on_c, 0, 62, 63
1, 211724, Note_on_c, 0, 77, 64
1, 211730, Note_on_c, 0, 65, 53
1, 211739, Note_on_c, 0, 79, 63
1, 211763, Note_off_c, 0, 65, 59
1, 211776, Note_off_c, 0, 62, 60
1, 211812, Note_off_c, 0, 77, 44
1, 211856, Note_on_c, 0, 65, 57
1, 211856, Note_on_c, 0, 89, 79
1, 211865, Note_on_c, 0, 62, 62
1, 211871, Note_off_c, 0, 79, 57
1, 211891, Note_off_c, 0, 65, 60
1, 211895, Note_off_c, 0, 62, 65
1, 211971, Note_off_c, 0, 89, 65
1, 211986, Note_on_c, 0, 87, 81
1, 211994, Note_on_c, 0, 62, 63
1, 212006, Note_on_c, 0, 65, 42
1, 212007, Note_off_c, 0, 55, 61
1, 212010, Note_off_c, 0, 87, 66
1, 212019, Note_off_c, 0, 62, 65
1, 212034, Note_off_c, 0, 65, 54
1, 212113, Note_on_c, 0, 87, 84
1, 212118, Note_on_c, 0, 55, 65
1, 212140, Note_on_c, 0, 89, 68
1, 212153, Note_off_c, 0, 87, 64
1, 212189, Note_on_c, 0, 87, 72
1, 212226, Note_off_c, 0, 89, 61
1, 212234, Note_on_c, 0, 62, 62
1, 212239, Note_on_c, 0, 86, 77
1, 212256, Note_on_c, 0, 65, 32
1, 212260, Note_off_c, 0, 86, 68
1, 212261, Note_off_c, 0, 87, 63
1, 212268, Note_off_c, 0, 62, 62
1, 212290, Note_off_c, 0, 65, 48
1, 212373, Note_on_c, 0, 65, 53
1, 212373, Note_on_c, 0, 86, 81
1, 212384, Note_on_c, 0, 62, 54
1, 212396, Note_off_c, 0, 65, 59
1, 212397, Note_on_c, 0, 87, 79
1, 212410, Note_off_c, 0, 62, 58
1, 212431, Note_off_c, 0, 86, 64
1, 212466, Note_on_c, 0, 86, 64
1, 212503, Note_on_c, 0, 65, 48
1, 212511, Note_on_c, 0, 62, 51
1, 212517, Note_on_c, 0, 84, 74
1, 212520, Note_off_c, 0, 87, 62
1, 212532, Note_off_c, 0, 86, 63
1, 212539, Note_off_c, 0, 84, 70
1, 212552, Note_off_c, 0, 55, 61
1, 212567, Note_off_c, 0, 65, 59
1, 212573, Note_off_c, 0, 62, 61
1, 212645, Note_on_c, 0, 84, 74
1, 212654, Note_on_c, 0, 55, 56
1, 212678, Note_on_c, 0, 86, 67
1, 212691, Note_off_c, 0, 84, 67
1, 212743, Note_on_c, 0, 84, 65
1, 212767, Note_on_c, 0, 83, 70
1, 212780, Note_off_c, 0, 86, 59
1, 212783, Note_on_c, 0, 62, 51
1, 212786, Note_on_c, 0, 65, 44
1, 212804, Note_off_c, 0, 84, 64
1, 212813, Note_off_c, 0, 65, 56
1, 212821, Note_off_c, 0, 62, 53
1, 212827, Note_off_c, 0, 83, 62
1, 212904, Note_on_c, 0, 81, 81
1, 212906, Note_on_c, 0, 65, 49
1, 212910, Note_on_c, 0, 62, 60
1, 212944, Note_off_c, 0, 62, 58
1, 212947, Note_off_c, 0, 65, 55
1, 212948, Control_c, 0, 64, 44
1, 212962, Control_c, 0, 64, 58
1, 212977, Control_c, 0, 64, 62
1, 212992, Control_c, 0, 64, 63
1, 213007, Control_c, 0, 64, 63
1, 213022, Control_c, 0, 64, 64
1, 213028, Note_on_c, 0, 62, 63
1, 213031, Note_off_c, 0, 81, 58
1, 213035, Note_on_c, 0, 83, 70
1, 213036, Control_c, 0, 64, 64
1, 213051, Control_c, 0, 64, 65
1, 213057, Note_off_c, 0, 83, 67
1, 213061, Note_on_c, 0, 65, 21
1, 213065, Note_off_c, 0, 62, 55
1, 213066, Control_c, 0, 64, 65
1, 213081, Control_c, 0, 64, 66
1, 213094, Note_off_c, 0, 55, 59
1, 213101, Note_off_c, 0, 65, 49
1, 213125, Control_c, 0, 64, 64
1, 213140, Control_c, 0, 64, 59
1, 213156, Control_c, 0, 64, 46
1, 213164, Note_on_c, 0, 86, 81
1, 213171, Control_c, 0, 64, 0
1, 213178, Note_on_c, 0, 60, 62
1, 213186, Note_on_c, 0, 87, 75
1, 213205, Note_off_c, 0, 86, 68
1, 213259, Note_on_c, 0, 86, 66
1, 213304, Note_on_c, 0, 63, 58
1, 213304, Note_off_c, 0, 87, 62
1, 213304, Note_on_c, 0, 84, 77
1, 213310, Note_off_c, 0, 86, 65
1, 213313, Note_on_c, 0, 67, 51
1, 213325, Note_off_c, 0, 84, 71
1, 213341, Note_off_c, 0, 67, 57
1, 213347, Note_off_c, 0, 63, 56
1, 213435, Note_on_c, 0, 67, 53
1, 213439, Note_on_c, 0, 84, 80
1, 213454, Note_on_c, 0, 63, 50
1, 213470, Note_off_c, 0, 67, 61
1, 213473, Note_on_c, 0, 86, 60
1, 213480, Note_off_c, 0, 63, 56
1, 213492, Note_off_c, 0, 84, 65
1, 213505, Control_c, 0, 64, 31
1, 213520, Control_c, 0, 64, 47
1, 213532, Note_on_c, 0, 84, 56
1, 213534, Control_c, 0, 64, 56
1, 213548, Note_off_c, 0, 86, 61
1, 213549, Control_c, 0, 64, 59
1, 213560, Note_on_c, 0, 82, 84
1, 213564, Control_c, 0, 64, 60
1, 213569, Note_on_c, 0, 67, 58
1, 213569, Note_off_c, 0, 84, 65
1, 213579, Control_c, 0, 64, 60
1, 213584, Note_off_c, 0, 82, 65
1, 213584, Note_on_c, 0, 63, 41
1, 213593, Control_c, 0, 64, 61
1, 213599, Note_off_c, 0, 60, 59
1, 213608, Control_c, 0, 64, 63
1, 213620, Note_off_c, 0, 67, 49
1, 213623, Control_c, 0, 64, 64
1, 213636, Note_off_c, 0, 63, 48
1, 213638, Control_c, 0, 64, 65
1, 213652, Control_c, 0, 64, 65
1, 213685, Note_on_c, 0, 82, 72
1, 213697, Control_c, 0, 64, 64
1, 213709, Note_on_c, 0, 53, 66
1, 213712, Control_c, 0, 64, 60
1, 213727, Control_c, 0, 64, 36
1, 213729, Note_on_c, 0, 84, 59
1, 213736, Note_off_c, 0, 82, 64
1, 213742, Control_c, 0, 64, 0
1, 213769, Note_on_c, 0, 82, 63
1, 213831, Note_on_c, 0, 65, 56
1, 213834, Note_on_c, 0, 81, 81
1, 213837, Note_on_c, 0, 63, 57
1, 213860, Control_c, 0, 64, 26
1, 213861, Note_off_c, 0, 84, 46
1, 213875, Note_off_c, 0, 63, 62
1, 213875, Control_c, 0, 64, 53
1, 213879, Note_off_c, 0, 65, 59
1, 213890, Control_c, 0, 64, 60
1, 213896, Note_off_c, 0, 81, 60
1, 213900, Note_off_c, 0, 82, 62
1, 213905, Control_c, 0, 64, 61
1, 213934, Control_c, 0, 64, 59
1, 213949, Control_c, 0, 64, 53
1, 213958, Note_on_c, 0, 79, 85
1, 213959, Note_on_c, 0, 63, 66
1, 213962, Note_on_c, 0, 65, 58
1, 213964, Control_c, 0, 64, 43
1, 213986, Control_c, 0, 64, 39
1, 213986, Control_c, 0, 67, 125
1, 214001, Control_c, 0, 64, 47
1, 214001, Control_c, 0, 67, 117
1, 214007, Note_off_c, 0, 65, 59
1, 214016, Control_c, 0, 64, 54
1, 214016, Control_c, 0, 67, 113
1, 214021, Note_off_c, 0, 63, 63
1, 214031, Control_c, 0, 64, 58
1, 214031, Control_c, 0, 67, 111
1, 214046, Control_c, 0, 64, 59
1, 214046, Control_c, 0, 67, 110
1, 214061, Control_c, 0, 64, 60
1, 214061, Control_c, 0, 67, 109
1, 214063, Note_off_c, 0, 79, 59
1, 214076, Control_c, 0, 64, 60
1, 214076, Control_c, 0, 67, 107
1, 214089, Note_on_c, 0, 81, 82
1, 214090, Control_c, 0, 64, 61
1, 214090, Control_c, 0, 67, 105
1, 214101, Note_on_c, 0, 63, 58
1, 214105, Control_c, 0, 67, 103
1, 214113, Note_on_c, 0, 65, 55
1, 214118, Note_off_c, 0, 81, 63
1, 214120, Control_c, 0, 64, 61
1, 214120, Control_c, 0, 67, 103
1, 214135, Control_c, 0, 64, 62
1, 214157, Note_off_c, 0, 53, 62
1, 214164, Control_c, 0, 64, 62
1, 214164, Control_c, 0, 67, 103
1, 214175, Note_off_c, 0, 63, 59
1, 214179, Control_c, 0, 67, 104
1, 214194, Control_c, 0, 64, 60
1, 214197, Note_off_c, 0, 65, 38
1, 214208, Control_c, 0, 64, 52
1, 214208, Control_c, 0, 67, 104
1, 214219, Note_on_c, 0, 84, 79
1, 214223, Control_c, 0, 64, 0
1, 214223, Control_c, 0, 67, 105
1, 214231, Note_on_c, 0, 58, 67
1, 214238, Control_c, 0, 67, 106
1, 214247, Note_on_c, 0, 85, 72
1, 214253, Control_c, 0, 67, 108
1, 214268, Control_c, 0, 67, 111
1, 214270, Note_off_c, 0, 84, 66
1, 214282, Control_c, 0, 67, 113
1, 214297, Control_c, 0, 67, 118
1, 214312, Control_c, 0, 67, 126
1, 214317, Note_on_c, 0, 84, 64
1, 214327, Control_c, 0, 67, 127
1, 214348, Note_on_c, 0, 82, 72
1, 214354, Note_off_c, 0, 84, 65
1, 214355, Note_on_c, 0, 65, 54
1, 214355, Note_off_c, 0, 85, 61
1, 214365, Note_on_c, 0, 61, 43
1, 214371, Note_off_c, 0, 82, 68
1, 214378, Note_off_c, 0, 65, 61
1, 214395, Note_off_c, 0, 61, 55
1, 214474, Note_on_c, 0, 82, 75
1, 214475, Note_on_c, 0, 65, 55
1, 214477, Note_on_c, 0, 61, 61
1, 214508, Note_on_c, 0, 84, 44
1, 214510, Note_off_c, 0, 61, 61
1, 214511, Note_off_c, 0, 65, 61
1, 214564, Control_c, 0, 64, 27
1, 214579, Control_c, 0, 64, 44
1, 214580, Note_off_c, 0, 84, 64
1, 214594, Control_c, 0, 64, 49
1, 214604, Note_on_c, 0, 80, 69
1, 214608, Control_c, 0, 64, 51
1, 214609, Note_on_c, 0, 65, 43
1, 214613, Note_off_c, 0, 82, 64
1, 214618, Note_on_c, 0, 61, 50
1, 214623, Control_c, 0, 64, 53
1, 214627, Note_off_c, 0, 80, 69
1, 214634, Note_off_c, 0, 58, 61
1, 214636, Note_off_c, 0, 65, 56
1, 214638, Control_c, 0, 64, 56
1, 214653, Control_c, 0, 64, 57
1, 214656, Note_off_c, 0, 61, 62
1, 214668, Control_c, 0, 64, 58
1, 214682, Control_c, 0, 64, 57
1, 214697, Control_c, 0, 64, 56
1, 214712, Control_c, 0, 64, 53
1, 214719, Note_on_c, 0, 80, 68
1, 214734, Control_c, 0, 64, 43
1, 214743, Note_on_c, 0, 51, 59
1, 214749, Control_c, 0, 64, 0
1, 214772, Note_on_c, 0, 82, 61
1, 214778, Note_off_c, 0, 80, 64
1, 214816, Note_on_c, 0, 80, 47
1, 214852, Note_on_c, 0, 79, 69
1, 214860, Note_off_c, 0, 82, 58
1, 214869, Note_on_c, 0, 61, 57
1, 214872, Note_on_c, 0, 63, 47
1, 214897, Note_off_c, 0, 79, 59
1, 214898, Note_off_c, 0, 80, 63
1, 214904, Note_off_c, 0, 63, 60
1, 214913, Note_off_c, 0, 61, 61
1, 214989, Note_on_c, 0, 77, 73
1, 215002, Note_on_c, 0, 63, 52
1, 215003, Note_on_c, 0, 61, 55
1, 215025, Note_off_c, 0, 63, 59
1, 215033, Note_off_c, 0, 61, 65
1, 215059, Note_off_c, 0, 77, 62
1, 215106, Note_on_c, 0, 79, 65
1, 215113, Note_on_c, 0, 61, 57
1, 215121, Note_on_c, 0, 63, 45
1, 215130, Note_off_c, 0, 79, 65
1, 215135, Control_c, 0, 64, 17
1, 215150, Control_c, 0, 64, 32
1, 215159, Note_off_c, 0, 51, 60
1, 215163, Note_off_c, 0, 63, 50
1, 215164, Control_c, 0, 64, 36
1, 215179, Control_c, 0, 64, 37
1, 215182, Note_off_c, 0, 61, 58
1, 215209, Control_c, 0, 64, 36
1, 215224, Control_c, 0, 64, 34
1, 215238, Control_c, 0, 64, 26
1, 215244, Note_on_c, 0, 82, 78
1, 215249, Note_on_c, 0, 56, 61
1, 215253, Control_c, 0, 64, 0
1, 215276, Note_on_c, 0, 84, 53
1, 215343, Note_off_c, 0, 84, 65
1, 215355, Note_on_c, 0, 80, 73
1, 215370, Note_off_c, 0, 82, 64
1, 215372, Note_on_c, 0, 60, 47
1, 215375, Note_off_c, 0, 80, 71
1, 215378, Note_on_c, 0, 63, 36
1, 215408, Note_off_c, 0, 60, 55
1, 215411, Note_off_c, 0, 63, 49
1, 215504, Note_on_c, 0, 80, 73
1, 215510, Note_on_c, 0, 60, 56
1, 215512, Note_on_c, 0, 63, 51
1, 215536, Note_off_c, 0, 63, 59
1, 215537, Note_on_c, 0, 82, 65
1, 215543, Note_off_c, 0, 60, 64
1, 215551, Note_off_c, 0, 80, 64
1, 215578, Note_on_c, 0, 80, 62
1, 215621, Note_off_c, 0, 82, 60
1, 215632, Note_on_c, 0, 79, 72
1, 215644, Note_on_c, 0, 60, 48
1, 215654, Note_on_c, 0, 63, 36
1, 215656, Note_off_c, 0, 80, 63
1, 215663, Note_off_c, 0, 79, 61
1, 215674, Note_off_c, 0, 56, 61
1, 215690, Note_off_c, 0, 60, 60
1, 215691, Note_off_c, 0, 63, 54
1, 215781, Note_on_c, 0, 79, 78
1, 215785, Note_on_c, 0, 56, 67
1, 215808, Note_on_c, 0, 80, 61
1, 215852, Note_off_c, 0, 79, 0
1, 215863, Note_on_c, 0, 79, 56
1, 215913, Note_off_c, 0, 80, 57
1, 215920, Note_off_c, 0, 79, 63
1, 215921, Note_on_c, 0, 60, 54
1, 215921, Note_on_c, 0, 63, 52
1, 215924, Note_on_c, 0, 78, 69
1, 215939, Note_off_c, 0, 78, 68
1, 215942, Note_off_c, 0, 63, 59
1, 215954, Note_off_c, 0, 60, 63
1, 216044, Note_on_c, 0, 60, 54
1, 216046, Note_on_c, 0, 63, 48
1, 216048, Note_on_c, 0, 78, 68
1, 216070, Note_off_c, 0, 78, 68
1, 216076, Note_off_c, 0, 63, 61
1, 216079, Note_off_c, 0, 60, 63
1, 216171, Note_on_c, 0, 78, 72
1, 216181, Note_on_c, 0, 63, 53
1, 216184, Note_on_c, 0, 60, 46
1, 216193, Note_off_c, 0, 78, 69
1, 216231, Note_off_c, 0, 60, 62
1, 216233, Note_off_c, 0, 63, 60
1, 216255, Note_off_c, 0, 56, 56
1, 216311, Note_on_c, 0, 80, 79
1, 216328, Note_on_c, 0, 55, 44
1, 216347, Note_on_c, 0, 82, 61
1, 216353, Note_off_c, 0, 80, 61
1, 216391, Note_on_c, 0, 80, 58
1, 216435, Note_off_c, 0, 82, 60
1, 216446, Note_on_c, 0, 79, 70
1, 216461, Note_on_c, 0, 60, 46
1, 216469, Note_on_c, 0, 63, 38
1, 216469, Note_off_c, 0, 80, 60
1, 216472, Note_off_c, 0, 79, 65
1, 216497, Note_off_c, 0, 60, 62
1, 216498, Note_off_c, 0, 63, 55
1, 216580, Note_on_c, 0, 79, 73
1, 216586, Note_on_c, 0, 63, 48
1, 216595, Note_on_c, 0, 60, 48
1, 216601, Note_off_c, 0, 79, 65
1, 216612, Note_off_c, 0, 63, 55
1, 216618, Note_off_c, 0, 60, 58
1, 216708, Note_on_c, 0, 60, 48
1, 216709, Note_on_c, 0, 79, 51
1, 216714, Note_on_c, 0, 63, 47
1, 216730, Note_off_c, 0, 79, 58
1, 216750, Note_off_c, 0, 55, 59
1, 216759, Note_off_c, 0, 63, 61
1, 216761, Note_off_c, 0, 60, 59
1, 216848, Note_on_c, 0, 55, 50
1, 216849, Note_on_c, 0, 80, 70
1, 216884, Note_on_c, 0, 82, 62
1, 216896, Note_on_c, 0, 83, 18
1, 216898, Note_off_c, 0, 80, 60
1, 216928, Note_on_c, 0, 80, 58
1, 216928, Note_off_c, 0, 83, 34
1, 216979, Note_off_c, 0, 82, 60
1, 216995, Note_on_c, 0, 62, 51
1, 216999, Note_on_c, 0, 59, 47
1, 217004, Note_on_c, 0, 79, 56
1, 217009, Note_off_c, 0, 80, 62
1, 217024, Note_off_c, 0, 79, 61
1, 217027, Note_off_c, 0, 62, 52
1, 217039, Note_off_c, 0, 59, 57
1, 217127, Note_on_c, 0, 79, 54
1, 217134, Note_on_c, 0, 62, 44
1, 217135, Note_on_c, 0, 59, 45
1, 217149, Note_off_c, 0, 79, 62
1, 217163, Note_off_c, 0, 62, 57
1, 217169, Note_off_c, 0, 59, 56
1, 217255, Note_on_c, 0, 62, 52
1, 217262, Note_on_c, 0, 59, 33
1, 217277, Note_on_c, 0, 79, 45
1, 217278, Note_off_c, 0, 62, 60
1, 217280, Note_off_c, 0, 55, 55
1, 217297, Note_off_c, 0, 59, 47
1, 217299, Note_off_c, 0, 79, 60
1, 217397, Note_on_c, 0, 48, 64
1, 217484, Note_on_c, 0, 60, 57
1, 217485, Control_c, 0, 67, 126
1, 217492, Note_on_c, 0, 55, 40
1, 217499, Control_c, 0, 67, 102
1, 217514, Control_c, 0, 67, 66
1, 217519, Note_off_c, 0, 60, 63
1, 217528, Note_off_c, 0, 55, 53
1, 217529, Control_c, 0, 67, 21
1, 217538, Note_on_c, 0, 51, 50
1, 217543, Note_on_c, 0, 63, 55
1, 217544, Control_c, 0, 67, 0
1, 217584, Note_off_c, 0, 63, 61
1, 217590, Note_off_c, 0, 51, 57
1, 217605, Note_on_c, 0, 60, 62
1, 217632, Control_c, 0, 64, 26
1, 217637, Note_on_c, 0, 55, 31
1, 217647, Control_c, 0, 64, 53
1, 217662, Control_c, 0, 64, 61
1, 217664, Note_off_c, 0, 60, 57
1, 217677, Control_c, 0, 64, 63
1, 217686, Note_on_c, 0, 72, 83
1, 217689, Note_off_c, 0, 55, 46
1, 217692, Control_c, 0, 64, 64
1, 217696, Note_on_c, 0, 51, 54
1, 217706, Control_c, 0, 64, 65
1, 217729, Control_c, 0, 64, 67
1, 217744, Control_c, 0, 64, 68
1, 217745, Note_off_c, 0, 51, 58
1, 217758, Control_c, 0, 64, 70
1, 217758, Control_c, 0, 67, 15
1, 217769, Note_on_c, 0, 55, 47
1, 217773, Control_c, 0, 64, 72
1, 217773, Control_c, 0, 67, 24
1, 217780, Note_on_c, 0, 60, 55
1, 217788, Control_c, 0, 64, 74
1, 217788, Control_c, 0, 67, 33
1, 217803, Control_c, 0, 64, 76
1, 217803, Control_c, 0, 67, 41
1, 217818, Control_c, 0, 64, 78
1, 217818, Control_c, 0, 67, 48
1, 217822, Note_on_c, 0, 51, 51
1, 217827, Note_on_c, 0, 63, 66
1, 217829, Note_off_c, 0, 60, 56
1, 217832, Control_c, 0, 64, 80
1, 217832, Control_c, 0, 67, 54
1, 217847, Control_c, 0, 64, 82
1, 217847, Control_c, 0, 67, 59
1, 217859, Note_off_c, 0, 51, 59
1, 217862, Note_off_c, 0, 55, 0
1, 217862, Control_c, 0, 64, 83
1, 217862, Control_c, 0, 67, 63
1, 217877, Control_c, 0, 64, 84
1, 217877, Control_c, 0, 67, 65
1, 217879, Note_off_c, 0, 63, 58
1, 217882, Note_on_c, 0, 55, 24
1, 217892, Control_c, 0, 64, 84
1, 217892, Control_c, 0, 67, 69
1, 217906, Control_c, 0, 64, 86
1, 217906, Control_c, 0, 67, 77
1, 217907, Note_on_c, 0, 60, 47
1, 217921, Control_c, 0, 64, 87
1, 217921, Control_c, 0, 67, 88
1, 217936, Control_c, 0, 64, 89
1, 217936, Control_c, 0, 67, 102
1, 217949, Note_on_c, 0, 51, 53
1, 217952, Control_c, 0, 64, 90
1, 217952, Control_c, 0, 67, 112
1, 217966, Note_off_c, 0, 55, 39
1, 217967, Note_off_c, 0, 60, 60
1, 217967, Control_c, 0, 64, 91
1, 217967, Control_c, 0, 67, 120
1, 217981, Control_c, 0, 64, 93
1, 217981, Control_c, 0, 67, 127
1, 217983, Note_on_c, 0, 63, 57
1, 217990, Note_off_c, 0, 51, 56
1, 217996, Control_c, 0, 64, 94
1, 218011, Control_c, 0, 64, 95
1, 218014, Note_on_c, 0, 55, 49
1, 218019, Note_off_c, 0, 63, 56
1, 218034, Note_on_c, 0, 60, 47
1, 218049, Note_off_c, 0, 48, 53
1, 218073, Note_off_c, 0, 60, 58
1, 218074, Note_off_c, 0, 55, 58
1, 218092, Note_on_c, 0, 51, 46
1, 218116, Note_off_c, 0, 72, 22
1, 218122, Note_off_c, 0, 51, 55
1, 218171, Note_on_c, 0, 60, 59
1, 218174, Note_on_c, 0, 55, 25
1, 218176, Poly_aftertouch_c, 0, 63, 127
1, 218213, Note_off_c, 0, 55, 51
1, 218219, Poly_aftertouch_c, 0, 63, 0
1, 218227, Note_off_c, 0, 60, 54
1, 218234, Control_c, 0, 64, 95
1, 218246, Note_on_c, 0, 48, 64
1, 218248, Control_c, 0, 64, 93
1, 218249, Note_on_c, 0, 72, 68
1, 218263, Control_c, 0, 64, 89
1, 218278, Control_c, 0, 64, 85
1, 218293, Control_c, 0, 64, 77
1, 218308, Control_c, 0, 64, 69
1, 218318, Note_on_c, 0, 55, 48
1, 218322, Control_c, 0, 64, 64
1, 218337, Control_c, 0, 64, 58
1, 218347, Note_on_c, 0, 60, 47
1, 218352, Control_c, 0, 64, 52
1, 218367, Control_c, 0, 64, 50
1, 218382, Note_off_c, 0, 55, 63
1, 218386, Note_on_c, 0, 51, 56
1, 218388, Note_off_c, 0, 48, 36
1, 218392, Note_off_c, 0, 60, 59
1, 218398, Note_off_c, 0, 72, 58
1, 218407, Note_on_c, 0, 63, 55
1, 218411, Control_c, 0, 64, 50
1, 218426, Control_c, 0, 64, 48
1, 218434, Note_off_c, 0, 51, 60
1, 218441, Control_c, 0, 64, 43
1, 218443, Note_on_c, 0, 60, 48
1, 218455, Control_c, 0, 64, 28
1, 218458, Note_on_c, 0, 55, 41
1, 218478, Control_c, 0, 64, 0
1, 218486, Note_off_c, 0, 60, 60
1, 218498, Note_off_c, 0, 63, 56
1, 218520, Note_off_c, 0, 55, 64
1, 218525, Note_on_c, 0, 46, 72
1, 218587, Note_on_c, 0, 61, 61
1, 218617, Note_on_c, 0, 55, 45
1, 218630, Note_off_c, 0, 61, 58
1, 218650, Note_on_c, 0, 64, 57
1, 218669, Note_off_c, 0, 55, 63
1, 218670, Control_c, 0, 67, 127
1, 218674, Note_on_c, 0, 52, 64
1, 218685, Control_c, 0, 64, 32
1, 218685, Control_c, 0, 67, 125
1, 218699, Control_c, 0, 64, 48
1, 218699, Control_c, 0, 67, 122
1, 218714, Control_c, 0, 64, 56
1, 218714, Control_c, 0, 67, 120
1, 218715, Note_on_c, 0, 61, 61
1, 218721, Note_off_c, 0, 52, 64
1, 218729, Control_c, 0, 64, 60
1, 218729, Control_c, 0, 67, 117
1, 218744, Control_c, 0, 64, 62
1, 218744, Control_c, 0, 67, 113
1, 218760, Control_c, 0, 64, 63
1, 218760, Control_c, 0, 67, 111
1, 218763, Note_on_c, 0, 55, 39
1, 218775, Control_c, 0, 64, 65
1, 218775, Control_c, 0, 67, 110
1, 218790, Control_c, 0, 64, 68
1, 218804, Control_c, 0, 64, 72
1, 218804, Control_c, 0, 67, 111
1, 218805, Note_off_c, 0, 61, 58
1, 218806, Note_on_c, 0, 73, 85
1, 218814, Note_off_c, 0, 55, 62
1, 218819, Control_c, 0, 64, 77
1, 218819, Control_c, 0, 67, 111
1, 218824, Note_on_c, 0, 52, 68
1, 218830, Note_off_c, 0, 64, 23
1, 218834, Control_c, 0, 64, 82
1, 218834, Control_c, 0, 67, 112
1, 218849, Control_c, 0, 64, 86
1, 218849, Control_c, 0, 67, 113
1, 218864, Note_off_c, 0, 52, 61
1, 218864, Control_c, 0, 64, 90
1, 218864, Control_c, 0, 67, 114
1, 218878, Control_c, 0, 64, 93
1, 218878, Control_c, 0, 67, 116
1, 218881, Note_on_c, 0, 55, 62
1, 218893, Control_c, 0, 64, 97
1, 218893, Control_c, 0, 67, 116
1, 218897, Note_on_c, 0, 61, 65
1, 218908, Control_c, 0, 64, 99
1, 218908, Control_c, 0, 67, 118
1, 218923, Control_c, 0, 64, 99
1, 218923, Control_c, 0, 67, 119
1, 218938, Control_c, 0, 67, 121
1, 218941, Note_on_c, 0, 64, 64
1, 218943, Note_off_c, 0, 55, 63
1, 218947, Note_off_c, 0, 61, 55
1, 218952, Note_on_c, 0, 52, 57
1, 218952, Control_c, 0, 67, 123
1, 218967, Control_c, 0, 67, 126
1, 218982, Control_c, 0, 67, 127
1, 218983, Note_off_c, 0, 52, 69
1, 219002, Note_off_c, 0, 64, 59
1, 219016, Note_on_c, 0, 61, 64
1, 219020, Note_on_c, 0, 55, 41
1, 219064, Note_off_c, 0, 61, 55
1, 219072, Note_on_c, 0, 52, 61
1, 219078, Note_on_c, 0, 64, 53
1, 219091, Note_off_c, 0, 55, 0
1, 219094, Note_off_c, 0, 46, 34
1, 219105, Note_off_c, 0, 52, 63
1, 219113, Note_on_c, 0, 55, 34
1, 219115, Note_off_c, 0, 64, 61
1, 219130, Control_c, 0, 64, 99
1, 219138, Note_on_c, 0, 61, 59
1, 219145, Control_c, 0, 64, 98
1, 219175, Control_c, 0, 64, 97
1, 219182, Note_off_c, 0, 61, 55
1, 219200, Note_off_c, 0, 55, 55
1, 219204, Control_c, 0, 64, 96
1, 219206, Note_off_c, 0, 73, 21
1, 219226, Note_on_c, 0, 64, 48
1, 219228, Note_on_c, 0, 52, 41
1, 219260, Note_off_c, 0, 52, 54
1, 219268, Note_off_c, 0, 64, 49
1, 219284, Note_on_c, 0, 61, 62
1, 219316, Control_c, 0, 64, 96
1, 219325, Note_off_c, 0, 61, 59
1, 219330, Control_c, 0, 64, 95
1, 219340, Note_on_c, 0, 46, 71
1, 219345, Control_c, 0, 64, 93
1, 219352, Note_on_c, 0, 73, 73
1, 219360, Control_c, 0, 64, 92
1, 219375, Control_c, 0, 64, 91
1, 219403, Note_off_c, 0, 46, 56
1, 219404, Control_c, 0, 64, 91
1, 219420, Note_on_c, 0, 61, 45
1, 219427, Note_on_c, 0, 55, 34
1, 219452, Note_off_c, 0, 61, 54
1, 219469, Note_off_c, 0, 55, 49
1, 219474, Note_on_c, 0, 64, 53
1, 219477, Note_off_c, 0, 73, 32
1, 219512, Note_off_c, 0, 64, 58
1, 219522, Control_c, 0, 64, 90
1, 219534, Note_on_c, 0, 61, 64
1, 219537, Poly_aftertouch_c, 0, 52, 127
1, 219537, Control_c, 0, 64, 82
1, 219553, Control_c, 0, 64, 68
1, 219556, Note_off_c, 0, 61, 70
1, 219564, Poly_aftertouch_c, 0, 52, 0
1, 219568, Control_c, 0, 64, 42
1, 219583, Control_c, 0, 64, 0
1, 219598, Control_c, 0, 67, 122
1, 219606, Note_on_c, 0, 44, 74
1, 219612, Note_on_c, 0, 72, 86
1, 219613, Control_c, 0, 67, 107
1, 219627, Control_c, 0, 67, 78
1, 219642, Control_c, 0, 67, 33
1, 219643, Note_on_c, 0, 56, 66
1, 219650, Note_off_c, 0, 44, 62
1, 219657, Control_c, 0, 67, 0
1, 219676, Note_off_c, 0, 72, 59
1, 219688, Note_on_c, 0, 60, 29
1, 219691, Note_off_c, 0, 56, 58
1, 219721, Note_off_c, 0, 60, 44
1, 219739, Note_on_c, 0, 65, 29
1, 219745, Note_on_c, 0, 48, 56
1, 219775, Note_off_c, 0, 65, 46
1, 219780, Note_off_c, 0, 48, 63
1, 219796, Note_on_c, 0, 60, 52
1, 219817, Note_off_c, 0, 60, 59
1, 219832, Note_on_c, 0, 56, 9
1, 219877, Note_on_c, 0, 76, 86
1, 219881, Note_on_c, 0, 46, 78
1, 219883, Note_off_c, 0, 56, 34
1, 219935, Note_off_c, 0, 46, 58
1, 219939, Note_on_c, 0, 64, 68
1, 219945, Note_off_c, 0, 76, 62
1, 219945, Note_on_c, 0, 58, 71
1, 219996, Note_off_c, 0, 58, 60
1, 220012, Note_off_c, 0, 64, 62
1, 220017, Note_on_c, 0, 72, 57
1, 220025, Note_on_c, 0, 48, 57
1, 220055, Note_off_c, 0, 72, 57
1, 220059, Note_off_c, 0, 48, 62
1, 220085, Note_on_c, 0, 64, 59
1, 220095, Note_on_c, 0, 58, 62
1, 220122, Note_off_c, 0, 58, 66
1, 220146, Note_off_c, 0, 64, 63
1, 220149, Note_on_c, 0, 44, 82
1, 220151, Note_on_c, 0, 77, 94
1, 220207, Note_off_c, 0, 44, 64
1, 220219, Note_off_c, 0, 77, 57
1, 220232, Note_on_c, 0, 65, 56
1, 220239, Note_on_c, 0, 56, 36
1, 220270, Note_off_c, 0, 56, 53
1, 220270, Note_off_c, 0, 65, 62
1, 220282, Note_on_c, 0, 72, 65
1, 220285, Note_on_c, 0, 48, 63
1, 220320, Note_off_c, 0, 48, 62
1, 220333, Note_on_c, 0, 56, 71
1, 220333, Note_off_c, 0, 72, 58
1, 220347, Note_on_c, 0, 65, 72
1, 220385, Note_off_c, 0, 56, 60
1, 220403, Note_off_c, 0, 65, 61
1, 220410, Note_on_c, 0, 43, 91
1, 220418, Note_on_c, 0, 79, 89
1, 220469, Note_off_c, 0, 43, 61
1, 220470, Note_on_c, 0, 55, 70
1, 220473, Note_on_c, 0, 67, 81
1, 220501, Note_off_c, 0, 79, 53
1, 220517, Note_off_c, 0, 55, 60
1, 220529, Note_off_c, 0, 67, 61
1, 220535, Note_on_c, 0, 48, 67
1, 220541, Note_on_c, 0, 72, 55
1, 220574, Note_off_c, 0, 48, 64
1, 220603, Note_on_c, 0, 55, 68
1, 220612, Note_off_c, 0, 72, 62
1, 220619, Note_on_c, 0, 67, 53
1, 220633, Note_off_c, 0, 55, 66
1, 220647, Note_off_c, 0, 67, 64
1, 220667, Note_on_c, 0, 41, 91
1, 220669, Note_on_c, 0, 80, 95
1, 220730, Note_on_c, 0, 53, 74
1, 220739, Note_off_c, 0, 41, 64
1, 220741, Note_on_c, 0, 68, 76
1, 220768, Note_off_c, 0, 53, 63
1, 220783, Note_off_c, 0, 68, 52
1, 220803, Note_on_c, 0, 48, 66
1, 220830, Note_off_c, 0, 80, 57
1, 220830, Note_on_c, 0, 72, 42
1, 220851, Note_on_c, 0, 53, 70
1, 220859, Note_on_c, 0, 68, 78
1, 220865, Note_off_c, 0, 72, 55
1, 220880, Note_off_c, 0, 48, 55
1, 220884, Note_off_c, 0, 53, 68
1, 220908, Note_off_c, 0, 68, 66
1, 220936, Note_on_c, 0, 39, 90
1, 220941, Note_on_c, 0, 81, 93
1, 220991, Note_on_c, 0, 51, 68
1, 221003, Note_off_c, 0, 81, 56
1, 221009, Note_off_c, 0, 39, 61
1, 221010, Note_on_c, 0, 69, 51
1, 221043, Note_off_c, 0, 51, 62
1, 221047, Note_on_c, 0, 72, 75
1, 221049, Note_on_c, 0, 48, 68
1, 221064, Note_off_c, 0, 69, 67
1, 221102, Note_off_c, 0, 72, 62
1, 221105, Note_on_c, 0, 51, 66
1, 221108, Note_off_c, 0, 48, 61
1, 221132, Note_on_c, 0, 69, 71
1, 221152, Note_off_c, 0, 51, 61
1, 221191, Note_off_c, 0, 69, 65
1, 221199, Note_on_c, 0, 38, 90
1, 221204, Note_on_c, 0, 83, 96
1, 221245, Note_on_c, 0, 50, 76
1, 221260, Note_off_c, 0, 38, 64
1, 221271, Note_off_c, 0, 83, 60
1, 221275, Note_on_c, 0, 71, 60
1, 221302, Note_off_c, 0, 50, 63
1, 221312, Note_on_c, 0, 43, 75
1, 221318, Note_off_c, 0, 71, 60
1, 221328, Note_on_c, 0, 77, 74
1, 221364, Note_off_c, 0, 43, 61
1, 221370, Note_off_c, 0, 77, 61
1, 221379, Note_on_c, 0, 50, 70
1, 221397, Note_on_c, 0, 71, 75
1, 221427, Note_off_c, 0, 50, 58
1, 221448, Note_off_c, 0, 71, 63
1, 221461, Note_on_c, 0, 84, 97
1, 221462, Note_on_c, 0, 36, 90
1, 221524, Note_on_c, 0, 72, 66
1, 221533, Note_off_c, 0, 84, 62
1, 221534, Note_on_c, 0, 48, 70
1, 221536, Note_off_c, 0, 36, 61
1, 221570, Note_off_c, 0, 48, 57
1, 221583, Note_off_c, 0, 72, 65
1, 221589, Note_on_c, 0, 43, 71
1, 221594, Note_on_c, 0, 77, 67
1, 221595, Note_on_c, 0, 76, 64
1, 221622, Note_off_c, 0, 76, 65
1, 221627, Note_off_c, 0, 77, 61
1, 221636, Note_off_c, 0, 43, 61
1, 221649, Note_on_c, 0, 48, 78
1, 221657, Note_on_c, 0, 72, 70
1, 221686, Note_off_c, 0, 48, 61
1, 221715, Note_off_c, 0, 72, 65
1, 221734, Note_on_c, 0, 86, 101
1, 221734, Note_on_c, 0, 35, 89
1, 221781, Note_on_c, 0, 74, 74
1, 221782, Note_on_c, 0, 47, 74
1, 221796, Note_off_c, 0, 35, 63
1, 221797, Note_off_c, 0, 86, 59
1, 221839, Note_off_c, 0, 47, 64
1, 221850, Note_on_c, 0, 77, 82
1, 221850, Note_off_c, 0, 74, 63
1, 221851, Note_on_c, 0, 43, 58
1, 221902, Note_off_c, 0, 77, 62
1, 221904, Note_off_c, 0, 43, 62
1, 221907, Note_on_c, 0, 47, 68
1, 221920, Note_on_c, 0, 74, 73
1, 221944, Note_off_c, 0, 47, 66
1, 221978, Control_c, 0, 64, 26
1, 221980, Note_off_c, 0, 74, 66
1, 221993, Control_c, 0, 64, 31
1, 221996, Note_on_c, 0, 34, 95
1, 221997, Note_on_c, 0, 88, 93
1, 222002, Note_on_c, 0, 86, 86
1, 222008, Control_c, 0, 64, 32
1, 222022, Control_c, 0, 64, 31
1, 222037, Control_c, 0, 64, 26
1, 222045, Note_on_c, 0, 76, 80
1, 222052, Control_c, 0, 64, 22
1, 222053, Note_on_c, 0, 46, 83
1, 222060, Note_off_c, 0, 88, 63
1, 222062, Note_off_c, 0, 86, 63
1, 222067, Control_c, 0, 64, 8
1, 222071, Note_off_c, 0, 34, 63
1, 222082, Control_c, 0, 64, 0
1, 222108, Note_off_c, 0, 46, 62
1, 222115, Note_off_c, 0, 76, 65
1, 222115, Note_on_c, 0, 79, 75
1, 222136, Note_on_c, 0, 36, 65
1, 222158, Note_off_c, 0, 79, 60
1, 222172, Note_off_c, 0, 36, 64
1, 222181, Note_on_c, 0, 46, 72
1, 222190, Note_on_c, 0, 76, 68
1, 222208, Note_on_c, 0, 77, 52
1, 222237, Control_c, 0, 64, 23
1, 222238, Note_off_c, 0, 46, 63
1, 222248, Note_off_c, 0, 76, 64
1, 222248, Note_off_c, 0, 77, 53
1, 222252, Control_c, 0, 64, 36
1, 222267, Control_c, 0, 64, 40
1, 222271, Note_on_c, 0, 89, 101
1, 222273, Note_on_c, 0, 32, 97
1, 222311, Control_c, 0, 64, 39
1, 222318, Note_on_c, 0, 31, 39
1, 222326, Control_c, 0, 64, 37
1, 222327, Note_on_c, 0, 44, 78
1, 222341, Note_on_c, 0, 77, 75
1, 222341, Note_off_c, 0, 89, 62
1, 222341, Control_c, 0, 64, 31
1, 222342, Note_off_c, 0, 32, 64
1, 222355, Control_c, 0, 64, 0
1, 222359, Note_off_c, 0, 31, 32
1, 222388, Note_off_c, 0, 44, 62
1, 222397, Note_on_c, 0, 80, 82
1, 222402, Note_off_c, 0, 77, 62
1, 222415, Note_on_c, 0, 36, 64
1, 222452, Note_off_c, 0, 36, 65
1, 222458, Note_on_c, 0, 44, 67
1, 222460, Note_off_c, 0, 80, 64
1, 222480, Note_on_c, 0, 77, 80
1, 222491, Note_off_c, 0, 44, 66
1, 222535, Note_on_c, 0, 29, 88
1, 222535, Note_on_c, 0, 86, 93
1, 222537, Note_off_c, 0, 77, 60
1, 222547, Control_c, 0, 64, 22
1, 222562, Control_c, 0, 64, 23
1, 222576, Note_on_c, 0, 41, 88
1, 222577, Control_c, 0, 64, 0
1, 222585, Note_on_c, 0, 77, 76
1, 222602, Note_off_c, 0, 29, 62
1, 222655, Note_on_c, 0, 36, 68
1, 222660, Note_off_c, 0, 41, 62
1, 222674, Note_off_c, 0, 86, 59
1, 222675, Note_on_c, 0, 80, 75
1, 222694, Note_off_c, 0, 36, 65
1, 222713, Note_off_c, 0, 77, 0
1, 222728, Note_on_c, 0, 77, 53
1, 222746, Note_off_c, 0, 80, 45
1, 222782, Note_off_c, 0, 77, 62
1, 222786, Control_c, 0, 64, 8
1, 222801, Control_c, 0, 64, 18
1, 222806, Note_on_c, 0, 31, 96
1, 222806, Note_on_c, 0, 43, 106
1, 222816, Control_c, 0, 64, 19
1, 222831, Control_c, 0, 64, 20
1, 222845, Control_c, 0, 64, 19
1, 222860, Control_c, 0, 64, 0
1, 222895, Note_off_c, 0, 31, 63
1, 222905, Note_on_c, 0, 75, 71
1, 222928, Note_off_c, 0, 43, 59
1, 222973, Note_on_c, 0, 79, 71
1, 222985, Note_off_c, 0, 75, 63
1, 223047, Note_on_c, 0, 75, 78
1, 223049, Note_off_c, 0, 79, 60
1, 223067, Note_on_c, 0, 84, 65
1, 223115, Note_off_c, 0, 75, 62
1, 223150, Control_c, 0, 64, 29
1, 223165, Control_c, 0, 64, 36
1, 223176, Note_on_c, 0, 75, 69
1, 223179, Control_c, 0, 64, 40
1, 223194, Control_c, 0, 64, 44
1, 223195, Note_off_c, 0, 84, 63
1, 223209, Control_c, 0, 64, 50
1, 223224, Control_c, 0, 64, 57
1, 223236, Note_on_c, 0, 79, 64
1, 223239, Control_c, 0, 64, 60
1, 223240, Note_off_c, 0, 75, 65
1, 223253, Control_c, 0, 64, 61
1, 223268, Control_c, 0, 64, 62
1, 223283, Control_c, 0, 64, 63
1, 223287, Note_on_c, 0, 75, 69
1, 223291, Note_off_c, 0, 79, 60
1, 223297, Control_c, 0, 64, 64
1, 223327, Control_c, 0, 64, 61
1, 223342, Control_c, 0, 64, 43
1, 223347, Note_off_c, 0, 75, 62
1, 223349, Note_on_c, 0, 43, 94
1, 223350, Note_on_c, 0, 55, 90
1, 223357, Control_c, 0, 64, 0
1, 223434, Note_on_c, 0, 74, 69
1, 223440, Note_off_c, 0, 43, 62
1, 223479, Note_off_c, 0, 55, 55
1, 223485, Note_on_c, 0, 77, 86
1, 223485, Note_off_c, 0, 74, 60
1, 223537, Note_off_c, 0, 77, 62
1, 223550, Note_on_c, 0, 74, 80
1, 223615, Note_on_c, 0, 83, 86
1, 223616, Note_off_c, 0, 74, 63
1, 223677, Note_on_c, 0, 74, 72
1, 223683, Control_c, 0, 64, 17
1, 223695, Note_off_c, 0, 83, 60
1, 223698, Control_c, 0, 64, 55
1, 223720, Control_c, 0, 64, 64
1, 223735, Control_c, 0, 64, 65
1, 223745, Note_off_c, 0, 74, 64
1, 223747, Note_on_c, 0, 77, 75
1, 223807, Note_off_c, 0, 77, 58
1, 223808, Note_on_c, 0, 74, 71
1, 223824, Control_c, 0, 64, 64
1, 223836, Note_off_c, 0, 74, 67
1, 223839, Control_c, 0, 64, 63
1, 223854, Control_c, 0, 64, 60
1, 223868, Control_c, 0, 64, 56
1, 223868, Control_c, 0, 67, 16
1, 223883, Control_c, 0, 64, 50
1, 223883, Control_c, 0, 67, 29
1, 223898, Control_c, 0, 64, 39
1, 223898, Control_c, 0, 67, 45
1, 223909, Note_on_c, 0, 48, 54
1, 223913, Control_c, 0, 64, 0
1, 223913, Control_c, 0, 67, 56
1, 223928, Control_c, 0, 67, 64
1, 223943, Control_c, 0, 67, 69
1, 223957, Control_c, 0, 67, 74
1, 223972, Control_c, 0, 67, 77
1, 223987, Control_c, 0, 67, 80
1, 223988, Note_on_c, 0, 60, 50
1, 223989, Note_on_c, 0, 55, 51
1, 224002, Control_c, 0, 67, 85
1, 224017, Control_c, 0, 67, 91
1, 224032, Control_c, 0, 67, 98
1, 224033, Note_off_c, 0, 60, 57
1, 224047, Control_c, 0, 67, 104
1, 224048, Note_off_c, 0, 55, 52
1, 224060, Note_on_c, 0, 63, 56
1, 224062, Control_c, 0, 67, 111
1, 224073, Note_on_c, 0, 51, 53
1, 224076, Control_c, 0, 67, 116
1, 224091, Control_c, 0, 67, 121
1, 224106, Control_c, 0, 67, 124
1, 224109, Note_off_c, 0, 63, 59
1, 224120, Control_c, 0, 67, 126
1, 224122, Note_off_c, 0, 51, 57
1, 224132, Note_on_c, 0, 60, 57
1, 224135, Control_c, 0, 67, 126
1, 224150, Control_c, 0, 67, 127
1, 224166, Note_on_c, 0, 55, 50
1, 224180, Control_c, 0, 67, 127
1, 224197, Note_off_c, 0, 60, 57
1, 224209, Control_c, 0, 64, 24
1, 224214, Note_on_c, 0, 72, 73
1, 224224, Control_c, 0, 64, 51
1, 224235, Note_off_c, 0, 55, 61
1, 224238, Control_c, 0, 64, 59
1, 224244, Note_on_c, 0, 51, 51
1, 224253, Control_c, 0, 64, 62
1, 224268, Control_c, 0, 64, 63
1, 224283, Control_c, 0, 64, 63
1, 224285, Note_off_c, 0, 51, 61
1, 224298, Control_c, 0, 64, 64
1, 224300, Note_on_c, 0, 60, 49
1, 224312, Control_c, 0, 64, 66
1, 224321, Note_on_c, 0, 55, 35
1, 224327, Control_c, 0, 64, 67
1, 224343, Control_c, 0, 64, 68
1, 224344, Note_off_c, 0, 60, 60
1, 224358, Note_on_c, 0, 63, 51
1, 224358, Control_c, 0, 64, 68
1, 224372, Note_off_c, 0, 55, 56
1, 224389, Note_on_c, 0, 51, 50
1, 224399, Note_off_c, 0, 63, 62
1, 224403, Control_c, 0, 64, 69
1, 224426, Note_off_c, 0, 51, 63
1, 224432, Control_c, 0, 64, 69
1, 224436, Note_on_c, 0, 60, 58
1, 224455, Note_on_c, 0, 55, 40
1, 224484, Control_c, 0, 64, 70
1, 224485, Note_off_c, 0, 60, 57
1, 224498, Control_c, 0, 64, 70
1, 224506, Note_on_c, 0, 63, 58
1, 224511, Note_off_c, 0, 55, 51
1, 224513, Control_c, 0, 64, 71
1, 224526, Note_on_c, 0, 51, 55
1, 224528, Control_c, 0, 64, 72
1, 224539, Note_off_c, 0, 63, 63
1, 224542, Control_c, 0, 64, 73
1, 224557, Control_c, 0, 64, 74
1, 224558, Note_off_c, 0, 51, 64
1, 224572, Control_c, 0, 64, 74
1, 224581, Note_on_c, 0, 60, 44
1, 224587, Control_c, 0, 64, 75
1, 224598, Note_on_c, 0, 55, 47
1, 224600, Note_off_c, 0, 72, 15
1, 224610, Note_off_c, 0, 60, 54
1, 224626, Note_off_c, 0, 48, 21
1, 224631, Note_on_c, 0, 63, 58
1, 224659, Note_on_c, 0, 51, 49
1, 224668, Note_off_c, 0, 63, 59
1, 224676, Note_off_c, 0, 55, 36
1, 224686, Note_off_c, 0, 51, 54
1, 224690, Note_on_c, 0, 60, 60
1, 224751, Note_off_c, 0, 60, 59
1, 224765, Note_on_c, 0, 48, 59
1, 224773, Note_on_c, 0, 72, 61
1, 224810, Control_c, 0, 64, 74
1, 224816, Note_off_c, 0, 48, 59
1, 224839, Control_c, 0, 64, 74
1, 224849, Note_on_c, 0, 55, 41
1, 224857, Note_on_c, 0, 60, 36
1, 224868, Control_c, 0, 64, 73
1, 224878, Note_off_c, 0, 55, 56
1, 224893, Note_off_c, 0, 60, 49
1, 224911, Note_on_c, 0, 51, 43
1, 224911, Note_off_c, 0, 72, 48
1, 224932, Note_on_c, 0, 63, 44
1, 224939, Note_off_c, 0, 51, 58
1, 224957, Control_c, 0, 64, 73
1, 224965, Note_on_c, 0, 60, 43
1, 224972, Control_c, 0, 64, 72
1, 224983, Note_off_c, 0, 63, 57
1, 224987, Control_c, 0, 64, 68
1, 224989, Note_off_c, 0, 60, 57
1, 224998, Note_on_c, 0, 57, 24
1, 225002, Note_on_c, 0, 55, 26
1, 225002, Control_c, 0, 64, 63
1, 225016, Control_c, 0, 64, 47
1, 225031, Control_c, 0, 64, 0
1, 225032, Note_off_c, 0, 55, 50
1, 225034, Note_off_c, 0, 57, 43
1, 225055, Note_on_c, 0, 47, 61
1, 225111, Note_on_c, 0, 61, 60
1, 225133, Note_on_c, 0, 55, 54
1, 225143, Note_off_c, 0, 47, 43
1, 225151, Note_off_c, 0, 61, 57
1, 225165, Control_c, 0, 64, 26
1, 225180, Note_on_c, 0, 64, 58
1, 225180, Control_c, 0, 64, 56
1, 225187, Note_on_c, 0, 52, 60
1, 225192, Note_off_c, 0, 55, 63
1, 225195, Control_c, 0, 64, 62
1, 225218, Control_c, 0, 64, 63
1, 225233, Control_c, 0, 64, 63
1, 225247, Control_c, 0, 64, 64
1, 225248, Note_off_c, 0, 64, 62
1, 225255, Note_on_c, 0, 61, 67
1, 225262, Control_c, 0, 64, 66
1, 225265, Note_off_c, 0, 52, 60
1, 225277, Control_c, 0, 64, 69
1, 225287, Note_on_c, 0, 46, 62
1, 225291, Control_c, 0, 64, 70
1, 225300, Note_on_c, 0, 55, 61
1, 225309, Note_off_c, 0, 61, 61
1, 225313, Note_on_c, 0, 73, 83
1, 225336, Control_c, 0, 64, 70
1, 225340, Note_off_c, 0, 55, 58
1, 225368, Note_on_c, 0, 52, 52
1, 225380, Note_on_c, 0, 61, 52
1, 225394, Note_off_c, 0, 52, 65
1, 225422, Note_on_c, 0, 55, 63
1, 225427, Note_on_c, 0, 64, 61
1, 225427, Note_off_c, 0, 61, 57
1, 225466, Note_off_c, 0, 55, 50
1, 225484, Note_off_c, 0, 64, 63
1, 225485, Note_on_c, 0, 52, 53
1, 225502, Note_on_c, 0, 61, 58
1, 225513, Control_c, 0, 64, 69
1, 225516, Note_off_c, 0, 52, 54
1, 225528, Control_c, 0, 64, 68
1, 225543, Control_c, 0, 64, 65
1, 225552, Note_off_c, 0, 61, 58
1, 225558, Control_c, 0, 64, 62
1, 225562, Note_on_c, 0, 64, 48
1, 225573, Control_c, 0, 64, 60
1, 225600, Note_on_c, 0, 52, 62
1, 225603, Control_c, 0, 64, 61
1, 225612, Note_off_c, 0, 64, 63
1, 225618, Control_c, 0, 64, 62
1, 225626, Note_on_c, 0, 61, 56
1, 225627, Note_off_c, 0, 52, 69
1, 225630, Poly_aftertouch_c, 0, 55, 0
1, 225633, Control_c, 0, 64, 63
1, 225647, Control_c, 0, 64, 64
1, 225662, Control_c, 0, 64, 64
1, 225666, Poly_aftertouch_c, 0, 55, 127
1, 225677, Control_c, 0, 64, 65
1, 225680, Note_off_c, 0, 61, 57
1, 225685, Note_on_c, 0, 55, 3
1, 225696, Note_on_c, 0, 64, 49
1, 225704, Note_on_c, 0, 52, 62
1, 225710, Note_off_c, 0, 55, 49
1, 225721, Control_c, 0, 64, 65
1, 225723, Note_off_c, 0, 73, 34
1, 225728, Note_off_c, 0, 46, 50
1, 225749, Note_off_c, 0, 52, 62
1, 225751, Control_c, 0, 64, 66
1, 225759, Note_off_c, 0, 64, 61
1, 225765, Control_c, 0, 64, 68
1, 225767, Note_on_c, 0, 61, 49
1, 225780, Control_c, 0, 64, 69
1, 225795, Control_c, 0, 64, 71
1, 225810, Control_c, 0, 64, 72
1, 225825, Control_c, 0, 64, 71
1, 225829, Note_off_c, 0, 61, 61
1, 225838, Note_on_c, 0, 73, 79
1, 225839, Control_c, 0, 64, 66
1, 225847, Note_on_c, 0, 46, 70
1, 225854, Control_c, 0, 64, 58
1, 225869, Control_c, 0, 64, 28
1, 225884, Control_c, 0, 64, 0
1, 225902, Note_on_c, 0, 61, 54
1, 225913, Control_c, 0, 64, 32
1, 225918, Note_off_c, 0, 46, 58
1, 225922, Note_off_c, 0, 73, 55
1, 225928, Control_c, 0, 64, 48
1, 225944, Note_on_c, 0, 55, 12
1, 225944, Control_c, 0, 64, 54
1, 225945, Note_off_c, 0, 61, 60
1, 225967, Control_c, 0, 64, 55
1, 225971, Note_on_c, 0, 64, 58
1, 225981, Control_c, 0, 64, 56
1, 225994, Note_off_c, 0, 55, 40
1, 225996, Control_c, 0, 64, 58
1, 226000, Note_on_c, 0, 52, 24
1, 226011, Control_c, 0, 64, 59
1, 226020, Note_off_c, 0, 64, 54
1, 226026, Control_c, 0, 64, 59
1, 226040, Note_off_c, 0, 52, 38
1, 226049, Note_on_c, 0, 61, 61
1, 226056, Control_c, 0, 64, 59
1, 226070, Control_c, 0, 64, 56
1, 226074, Note_off_c, 0, 61, 67
1, 226085, Control_c, 0, 64, 47
1, 226100, Control_c, 0, 64, 0
1, 226111, Note_on_c, 0, 44, 68
1, 226114, Control_c, 0, 67, 113
1, 226117, Note_on_c, 0, 72, 85
1, 226129, Control_c, 0, 67, 85
1, 226144, Control_c, 0, 67, 53
1, 226159, Control_c, 0, 67, 21
1, 226163, Note_on_c, 0, 56, 59
1, 226163, Note_off_c, 0, 44, 61
1, 226174, Control_c, 0, 67, 0
1, 226183, Note_off_c, 0, 72, 59
1, 226196, Note_off_c, 0, 56, 62
1, 226253, Note_on_c, 0, 65, 41
1, 226271, Note_on_c, 0, 48, 23
1, 226282, Note_off_c, 0, 65, 54
1, 226288, Note_on_c, 0, 56, 53
1, 226288, Note_on_c, 0, 60, 42
1, 226312, Note_off_c, 0, 48, 37
1, 226322, Note_off_c, 0, 56, 63
1, 226336, Note_off_c, 0, 60, 60
1, 226381, Note_on_c, 0, 46, 75
1, 226386, Note_on_c, 0, 76, 81
1, 226426, Note_off_c, 0, 46, 57
1, 226441, Note_off_c, 0, 76, 65
1, 226443, Note_on_c, 0, 64, 62
1, 226448, Note_on_c, 0, 58, 67
1, 226482, Note_off_c, 0, 64, 60
1, 226489, Note_off_c, 0, 58, 58
1, 226516, Note_on_c, 0, 72, 60
1, 226531, Note_on_c, 0, 48, 42
1, 226559, Note_off_c, 0, 72, 61
1, 226560, Note_off_c, 0, 48, 52
1, 226587, Note_on_c, 0, 58, 57
1, 226587, Note_on_c, 0, 64, 63
1, 226612, Note_off_c, 0, 58, 64
1, 226640, Note_off_c, 0, 64, 64
1, 226641, Note_on_c, 0, 44, 79
1, 226652, Note_on_c, 0, 77, 85
1, 226705, Note_on_c, 0, 56, 62
1, 226706, Note_off_c, 0, 44, 63
1, 226721, Note_off_c, 0, 77, 58
1, 226741, Note_on_c, 0, 65, 12
1, 226749, Note_off_c, 0, 56, 60
1, 226780, Note_on_c, 0, 72, 70
1, 226783, Note_on_c, 0, 48, 59
1, 226786, Note_off_c, 0, 65, 49
1, 226818, Note_off_c, 0, 48, 63
1, 226835, Note_on_c, 0, 56, 67
1, 226837, Note_off_c, 0, 72, 60
1, 226867, Note_on_c, 0, 65, 57
1, 226879, Note_off_c, 0, 56, 58
1, 226888, Note_off_c, 0, 65, 62
1, 226908, Note_on_c, 0, 43, 89
1, 226928, Note_on_c, 0, 79, 72
1, 226956, Note_on_c, 0, 81, 25
1, 226957, Note_off_c, 0, 81, 127
1, 226967, Note_off_c, 0, 43, 60
1, 226974, Note_on_c, 0, 55, 74
1, 226976, Note_on_c, 0, 67, 67
1, 226997, Note_off_c, 0, 79, 56
1, 227010, Note_off_c, 0, 67, 55
1, 227026, Note_off_c, 0, 55, 62
1, 227040, Note_on_c, 0, 72, 63
1, 227048, Note_on_c, 0, 48, 58
1, 227081, Note_off_c, 0, 48, 63
1, 227083, Note_on_c, 0, 67, 74
1, 227108, Note_on_c, 0, 55, 62
1, 227110, Note_off_c, 0, 72, 62
1, 227137, Note_off_c, 0, 55, 66
1, 227141, Note_off_c, 0, 67, 61
1, 227168, Note_on_c, 0, 41, 88
1, 227174, Note_on_c, 0, 80, 89
1, 227227, Note_off_c, 0, 41, 64
1, 227240, Note_on_c, 0, 53, 64
1, 227242, Note_on_c, 0, 68, 70
1, 227268, Note_off_c, 0, 53, 68
1, 227271, Note_off_c, 0, 68, 60
1, 227307, Note_on_c, 0, 48, 59
1, 227319, Note_on_c, 0, 72, 51
1, 227333, Note_off_c, 0, 80, 61
1, 227338, Note_on_c, 0, 53, 74
1, 227344, Note_off_c, 0, 72, 57
1, 227350, Note_off_c, 0, 48, 59
1, 227362, Note_on_c, 0, 68, 75
1, 227379, Note_off_c, 0, 53, 63
1, 227412, Note_off_c, 0, 68, 65
1, 227441, Note_on_c, 0, 39, 86
1, 227445, Note_on_c, 0, 81, 91
1, 227499, Note_on_c, 0, 51, 70
1, 227511, Note_on_c, 0, 69, 66
1, 227518, Note_off_c, 0, 81, 53
1, 227521, Note_off_c, 0, 39, 61
1, 227568, Note_off_c, 0, 51, 62
1, 227572, Note_on_c, 0, 72, 74
1, 227573, Note_off_c, 0, 69, 66
1, 227577, Note_on_c, 0, 48, 68
1, 227621, Note_off_c, 0, 48, 60
1, 227629, Note_off_c, 0, 72, 64
1, 227630, Note_on_c, 0, 51, 69
1, 227633, Note_on_c, 0, 69, 76
1, 227673, Note_off_c, 0, 51, 62
1, 227699, Note_off_c, 0, 69, 64
1, 227717, Note_on_c, 0, 83, 97
1, 227721, Note_on_c, 0, 38, 88
1, 227770, Note_on_c, 0, 50, 70
1, 227779, Note_off_c, 0, 38, 62
1, 227788, Note_on_c, 0, 71, 64
1, 227788, Note_off_c, 0, 83, 59
1, 227832, Note_off_c, 0, 50, 62
1, 227839, Note_on_c, 0, 43, 70
1, 227844, Note_off_c, 0, 71, 63
1, 227845, Note_on_c, 0, 76, 64
1, 227886, Note_off_c, 0, 76, 65
1, 227892, Note_off_c, 0, 43, 62
1, 227907, Note_on_c, 0, 50, 67
1, 227912, Note_on_c, 0, 71, 70
1, 227954, Note_off_c, 0, 50, 58
1, 227976, Note_off_c, 0, 71, 62
1, 227985, Note_on_c, 0, 36, 92
1, 227986, Note_on_c, 0, 84, 102
1, 228048, Note_on_c, 0, 48, 72
1, 228056, Note_off_c, 0, 84, 60
1, 228064, Note_on_c, 0, 72, 43
1, 228065, Note_off_c, 0, 36, 61
1, 228096, Note_on_c, 0, 76, 79
1, 228102, Note_on_c, 0, 43, 78
1, 228105, Note_off_c, 0, 48, 61
1, 228110, Note_off_c, 0, 72, 65
1, 228159, Note_off_c, 0, 76, 64
1, 228168, Note_off_c, 0, 43, 61
1, 228172, Note_on_c, 0, 48, 73
1, 228181, Note_on_c, 0, 72, 76
1, 228227, Note_off_c, 0, 48, 61
1, 228240, Note_off_c, 0, 72, 66
1, 228253, Note_on_c, 0, 35, 94
1, 228254, Note_on_c, 0, 86, 101
1, 228292, Note_on_c, 0, 37, 27
1, 228315, Note_on_c, 0, 47, 80
1, 228316, Note_on_c, 0, 74, 69
1, 228321, Note_off_c, 0, 35, 62
1, 228324, Note_off_c, 0, 86, 61
1, 228334, Note_off_c, 0, 37, 40
1, 228375, Note_on_c, 0, 43, 71
1, 228375, Note_off_c, 0, 47, 63
1, 228378, Note_on_c, 0, 77, 82
1, 228385, Note_off_c, 0, 74, 66
1, 228430, Note_on_c, 0, 47, 73
1, 228432, Note_off_c, 0, 43, 62
1, 228432, Note_off_c, 0, 77, 61
1, 228450, Note_on_c, 0, 74, 73
1, 228450, Control_c, 0, 64, 14
1, 228464, Control_c, 0, 64, 23
1, 228479, Control_c, 0, 64, 29
1, 228479, Note_off_c, 0, 47, 63
1, 228494, Control_c, 0, 64, 33
1, 228506, Note_off_c, 0, 74, 67
1, 228509, Control_c, 0, 64, 34
1, 228513, Note_on_c, 0, 34, 94
1, 228518, Note_on_c, 0, 88, 93
1, 228523, Control_c, 0, 64, 29
1, 228526, Note_on_c, 0, 86, 78
1, 228538, Control_c, 0, 64, 23
1, 228550, Note_on_c, 0, 33, 47
1, 228553, Control_c, 0, 64, 12
1, 228560, Note_off_c, 0, 86, 0
1, 228568, Control_c, 0, 64, 0
1, 228574, Note_on_c, 0, 46, 83
1, 228575, Note_on_c, 0, 86, 36
1, 228581, Note_on_c, 0, 76, 64
1, 228583, Note_off_c, 0, 33, 55
1, 228588, Note_off_c, 0, 88, 63
1, 228592, Note_off_c, 0, 34, 63
1, 228604, Note_off_c, 0, 86, 47
1, 228631, Note_off_c, 0, 46, 63
1, 228636, Note_on_c, 0, 79, 77
1, 228640, Note_off_c, 0, 76, 67
1, 228643, Note_on_c, 0, 36, 63
1, 228685, Note_off_c, 0, 79, 61
1, 228686, Control_c, 0, 64, 15
1, 228688, Note_off_c, 0, 36, 65
1, 228697, Note_on_c, 0, 46, 74
1, 228698, Note_on_c, 0, 76, 79
1, 228701, Control_c, 0, 64, 26
1, 228715, Control_c, 0, 64, 35
1, 228730, Control_c, 0, 64, 39
1, 228745, Note_off_c, 0, 46, 62
1, 228745, Control_c, 0, 64, 44
1, 228760, Note_off_c, 0, 76, 66
1, 228760, Control_c, 0, 64, 45
1, 228772, Note_on_c, 0, 89, 103
1, 228775, Note_on_c, 0, 32, 94
1, 228775, Control_c, 0, 64, 43
1, 228789, Control_c, 0, 64, 39
1, 228804, Control_c, 0, 64, 27
1, 228819, Control_c, 0, 64, 0
1, 228822, Note_on_c, 0, 44, 81
1, 228829, Note_on_c, 0, 31, 22
1, 228833, Note_on_c, 0, 77, 74
1, 228840, Note_off_c, 0, 32, 63
1, 228843, Note_off_c, 0, 89, 64
1, 228876, Note_off_c, 0, 31, 30
1, 228877, Note_off_c, 0, 44, 63
1, 228891, Note_on_c, 0, 80, 83
1, 228893, Note_off_c, 0, 77, 62
1, 228901, Note_on_c, 0, 36, 63
1, 228956, Note_off_c, 0, 36, 64
1, 228960, Control_c, 0, 64, 14
1, 228964, Note_off_c, 0, 80, 64
1, 228967, Note_on_c, 0, 44, 67
1, 228975, Control_c, 0, 64, 31
1, 228980, Note_on_c, 0, 77, 81
1, 228989, Control_c, 0, 64, 41
1, 228998, Note_off_c, 0, 44, 66
1, 229004, Control_c, 0, 64, 48
1, 229019, Control_c, 0, 64, 51
1, 229028, Note_on_c, 0, 29, 91
1, 229031, Note_off_c, 0, 77, 62
1, 229034, Control_c, 0, 64, 53
1, 229036, Note_on_c, 0, 86, 93
1, 229049, Control_c, 0, 64, 55
1, 229058, Note_on_c, 0, 85, 63
1, 229064, Control_c, 0, 64, 56
1, 229075, Note_on_c, 0, 41, 84
1, 229079, Control_c, 0, 64, 57
1, 229084, Note_off_c, 0, 85, 66
1, 229085, Note_off_c, 0, 29, 62
1, 229096, Note_on_c, 0, 77, 82
1, 229153, Control_c, 0, 64, 57
1, 229154, Note_on_c, 0, 36, 68
1, 229158, Note_off_c, 0, 41, 63
1, 229168, Control_c, 0, 64, 58
1, 229173, Note_on_c, 0, 80, 80
1, 229183, Note_off_c, 0, 77, 59
1, 229183, Control_c, 0, 64, 58
1, 229185, Note_off_c, 0, 36, 64
1, 229189, Note_off_c, 0, 86, 58
1, 229198, Control_c, 0, 64, 59
1, 229213, Control_c, 0, 64, 60
1, 229228, Control_c, 0, 64, 60
1, 229240, Note_on_c, 0, 77, 67
1, 229243, Control_c, 0, 64, 61
1, 229249, Note_off_c, 0, 80, 59
1, 229276, Note_off_c, 0, 77, 62
1, 229287, Control_c, 0, 64, 58
1, 229302, Control_c, 0, 64, 49
1, 229302, Note_on_c, 0, 31, 96
1, 229302, Note_on_c, 0, 43, 104
1, 229317, Control_c, 0, 64, 0
1, 229365, Note_on_c, 0, 82, 32
1, 229395, Note_on_c, 0, 75, 80
1, 229413, Note_off_c, 0, 82, 47
1, 229415, Note_off_c, 0, 31, 63
1, 229456, Note_on_c, 0, 79, 75
1, 229457, Note_off_c, 0, 43, 59
1, 229460, Note_off_c, 0, 75, 65
1, 229517, Note_on_c, 0, 75, 82
1, 229526, Note_off_c, 0, 79, 61
1, 229559, Note_on_c, 0, 84, 76
1, 229567, Note_off_c, 0, 75, 64
1, 229598, Control_c, 0, 64, 38
1, 229612, Control_c, 0, 64, 48
1, 229627, Control_c, 0, 64, 52
1, 229640, Note_on_c, 0, 75, 86
1, 229642, Control_c, 0, 64, 56
1, 229657, Control_c, 0, 64, 59
1, 229672, Control_c, 0, 64, 62
1, 229687, Control_c, 0, 64, 63
1, 229705, Note_off_c, 0, 84, 52
1, 229710, Control_c, 0, 64, 63
1, 229711, Note_on_c, 0, 79, 73
1, 229713, Note_off_c, 0, 75, 64
1, 229725, Control_c, 0, 64, 64
1, 229739, Control_c, 0, 64, 64
1, 229754, Control_c, 0, 64, 65
1, 229768, Note_off_c, 0, 79, 61
1, 229769, Control_c, 0, 64, 67
1, 229773, Note_on_c, 0, 75, 74
1, 229784, Control_c, 0, 64, 68
1, 229799, Control_c, 0, 64, 69
1, 229828, Control_c, 0, 64, 67
1, 229836, Note_off_c, 0, 75, 63
1, 229842, Note_on_c, 0, 43, 93
1, 229843, Note_on_c, 0, 55, 99
1, 229843, Control_c, 0, 64, 64
1, 229857, Control_c, 0, 64, 51
1, 229872, Control_c, 0, 64, 0
1, 229940, Note_on_c, 0, 74, 81
1, 229977, Note_off_c, 0, 43, 62
1, 229998, Note_off_c, 0, 74, 63
1, 230005, Note_on_c, 0, 77, 80
1, 230049, Note_off_c, 0, 55, 48
1, 230053, Note_off_c, 0, 77, 64
1, 230062, Note_on_c, 0, 74, 83
1, 230129, Note_on_c, 0, 83, 80
1, 230131, Note_on_c, 0, 81, 74
1, 230134, Note_off_c, 0, 74, 65
1, 230204, Note_on_c, 0, 74, 77
1, 230204, Note_off_c, 0, 81, 58
1, 230205, Note_off_c, 0, 83, 59
1, 230256, Note_off_c, 0, 74, 64
1, 230259, Control_c, 0, 64, 33
1, 230262, Note_on_c, 0, 77, 74
1, 230274, Control_c, 0, 64, 43
1, 230288, Control_c, 0, 64, 46
1, 230294, Note_off_c, 0, 77, 63
1, 230303, Control_c, 0, 64, 50
1, 230308, Note_on_c, 0, 74, 73
1, 230318, Control_c, 0, 64, 54
1, 230333, Control_c, 0, 64, 58
1, 230347, Control_c, 0, 64, 60
1, 230377, Control_c, 0, 64, 58
1, 230383, Note_on_c, 0, 72, 82
1, 230384, Note_on_c, 0, 48, 69
1, 230392, Control_c, 0, 64, 50
1, 230395, Note_off_c, 0, 74, 65
1, 230407, Control_c, 0, 64, 0
1, 230411, Note_off_c, 0, 48, 65
1, 230420, Note_off_c, 0, 72, 63
1, 230488, Control_c, 0, 67, 11
1, 230503, Control_c, 0, 67, 31
1, 230518, Control_c, 0, 67, 53
1, 230533, Control_c, 0, 67, 75
1, 230533, Note_on_c, 0, 84, 86
1, 230548, Control_c, 0, 67, 95
1, 230555, Note_on_c, 0, 63, 47
1, 230557, Note_on_c, 0, 60, 38
1, 230562, Control_c, 0, 67, 114
1, 230577, Control_c, 0, 67, 127
1, 230581, Note_off_c, 0, 63, 58
1, 230584, Note_off_c, 0, 60, 57
1, 230663, Note_on_c, 0, 63, 65
1, 230664, Note_on_c, 0, 60, 60
1, 230689, Note_off_c, 0, 63, 67
1, 230694, Note_off_c, 0, 60, 66
1, 230695, Control_c, 0, 64, 49
1, 230710, Control_c, 0, 64, 57
1, 230770, Note_off_c, 0, 84, 56
1, 230771, Control_c, 0, 64, 58
1, 230785, Control_c, 0, 64, 58
1, 230791, Note_on_c, 0, 60, 52
1, 230793, Note_on_c, 0, 63, 53
1, 230796, Note_on_c, 0, 83, 70
1, 230817, Note_off_c, 0, 63, 60
1, 230818, Note_off_c, 0, 60, 62
1, 230845, Control_c, 0, 64, 59
1, 230867, Note_on_c, 0, 84, 76
1, 230880, Note_off_c, 0, 83, 58
1, 230903, Control_c, 0, 64, 58
1, 230918, Note_on_c, 0, 56, 59
1, 230918, Control_c, 0, 64, 55
1, 230924, Note_off_c, 0, 84, 63
1, 230927, Note_on_c, 0, 86, 80
1, 230933, Control_c, 0, 64, 48
1, 230948, Control_c, 0, 64, 8
1, 230963, Control_c, 0, 64, 0
1, 230998, Note_on_c, 0, 84, 62
1, 231026, Note_off_c, 0, 86, 58
1, 231036, Note_on_c, 0, 82, 79
1, 231037, Note_on_c, 0, 60, 52
1, 231043, Note_on_c, 0, 63, 60
1, 231064, Note_off_c, 0, 84, 64
1, 231100, Note_off_c, 0, 63, 63
1, 231103, Note_on_c, 0, 80, 74
1, 231118, Note_off_c, 0, 60, 60
1, 231134, Note_off_c, 0, 82, 50
1, 231145, Note_off_c, 0, 80, 62
1, 231156, Control_c, 0, 64, 25
1, 231158, Note_on_c, 0, 79, 74
1, 231168, Note_on_c, 0, 63, 64
1, 231171, Control_c, 0, 64, 41
1, 231171, Note_on_c, 0, 60, 54
1, 231184, Control_c, 0, 64, 53
1, 231195, Note_off_c, 0, 63, 67
1, 231207, Control_c, 0, 64, 61
1, 231216, Note_off_c, 0, 60, 63
1, 231222, Control_c, 0, 64, 62
1, 231235, Note_on_c, 0, 80, 74
1, 231255, Note_off_c, 0, 79, 54
1, 231266, Control_c, 0, 67, 127
1, 231268, Note_off_c, 0, 56, 0
1, 231281, Control_c, 0, 64, 62
1, 231281, Control_c, 0, 67, 124
1, 231287, Note_on_c, 0, 82, 73
1, 231296, Control_c, 0, 67, 122
1, 231298, Note_off_c, 0, 80, 62
1, 231304, Note_on_c, 0, 60, 52
1, 231308, Note_on_c, 0, 63, 45
1, 231310, Control_c, 0, 67, 121
1, 231327, Poly_aftertouch_c, 0, 56, 0
1, 231331, Note_off_c, 0, 63, 59
1, 231338, Note_off_c, 0, 60, 64
1, 231347, Note_on_c, 0, 80, 67
1, 231370, Control_c, 0, 67, 123
1, 231384, Control_c, 0, 64, 61
1, 231384, Control_c, 0, 67, 124
1, 231398, Note_off_c, 0, 82, 58
1, 231399, Control_c, 0, 64, 58
1, 231399, Control_c, 0, 67, 125
1, 231414, Control_c, 0, 64, 49
1, 231414, Control_c, 0, 67, 126
1, 231416, Note_on_c, 0, 79, 77
1, 231421, Note_on_c, 0, 53, 73
1, 231428, Control_c, 0, 64, 19
1, 231428, Control_c, 0, 67, 127
1, 231443, Control_c, 0, 64, 0
1, 231451, Note_off_c, 0, 80, 62
1, 231471, Note_off_c, 0, 79, 63
1, 231492, Note_on_c, 0, 77, 76
1, 231517, Control_c, 0, 67, 126
1, 231548, Control_c, 0, 67, 125
1, 231550, Note_off_c, 0, 77, 61
1, 231550, Note_on_c, 0, 62, 61
1, 231553, Note_on_c, 0, 75, 77
1, 231553, Note_on_c, 0, 60, 59
1, 231563, Control_c, 0, 67, 125
1, 231578, Control_c, 0, 67, 124
1, 231583, Note_off_c, 0, 62, 62
1, 231596, Note_off_c, 0, 60, 56
1, 231607, Control_c, 0, 67, 124
1, 231612, Note_on_c, 0, 74, 74
1, 231637, Control_c, 0, 67, 123
1, 231666, Control_c, 0, 67, 122
1, 231679, Note_on_c, 0, 73, 82
1, 231681, Control_c, 0, 67, 122
1, 231689, Note_off_c, 0, 74, 63
1, 231692, Note_on_c, 0, 62, 53
1, 231693, Note_on_c, 0, 60, 65
1, 231696, Control_c, 0, 64, 25
1, 231696, Control_c, 0, 67, 121
1, 231705, Note_off_c, 0, 75, 60
1, 231711, Control_c, 0, 64, 40
1, 231711, Control_c, 0, 67, 120
1, 231717, Note_off_c, 0, 62, 57
1, 231722, Note_off_c, 0, 60, 65
1, 231726, Control_c, 0, 64, 42
1, 231726, Control_c, 0, 67, 120
1, 231738, Note_off_c, 0, 73, 62
1, 231741, Control_c, 0, 67, 118
1, 231750, Note_on_c, 0, 74, 70
1, 231755, Control_c, 0, 67, 115
1, 231770, Control_c, 0, 64, 43
1, 231770, Control_c, 0, 67, 110
1, 231785, Control_c, 0, 64, 45
1, 231785, Control_c, 0, 67, 106
1, 231797, Note_on_c, 0, 62, 64
1, 231800, Control_c, 0, 64, 46
1, 231800, Control_c, 0, 67, 101
1, 231809, Note_off_c, 0, 74, 63
1, 231809, Note_on_c, 0, 75, 75
1, 231812, Note_on_c, 0, 60, 60
1, 231815, Control_c, 0, 64, 47
1, 231815, Control_c, 0, 67, 97
1, 231821, Note_off_c, 0, 53, 59
1, 231830, Control_c, 0, 64, 49
1, 231830, Control_c, 0, 67, 94
1, 231840, Note_off_c, 0, 62, 53
1, 231842, Note_off_c, 0, 60, 65
1, 231845, Control_c, 0, 64, 50
1, 231845, Control_c, 0, 67, 92
1, 231859, Control_c, 0, 64, 52
1, 231859, Control_c, 0, 67, 90
1, 231876, Note_on_c, 0, 74, 70
1, 231889, Control_c, 0, 64, 50
1, 231889, Control_c, 0, 67, 91
1, 231904, Control_c, 0, 64, 42
1, 231904, Control_c, 0, 67, 92
1, 231910, Note_off_c, 0, 75, 63
1, 231919, Control_c, 0, 64, 0
1, 231919, Control_c, 0, 67, 93
1, 231931, Note_off_c, 0, 74, 65
1, 231933, Control_c, 0, 67, 94
1, 231940, Note_on_c, 0, 55, 72
1, 231956, Note_on_c, 0, 72, 78
1, 231970, Control_c, 0, 67, 95
1, 232000, Control_c, 0, 67, 95
1, 232006, Note_off_c, 0, 72, 65
1, 232015, Control_c, 0, 67, 96
1, 232034, Note_on_c, 0, 71, 67
1, 232059, Control_c, 0, 67, 95
1, 232063, Note_on_c, 0, 59, 64
1, 232065, Note_on_c, 0, 62, 61
1, 232073, Note_on_c, 0, 68, 80
1, 232074, Control_c, 0, 67, 94
1, 232078, Note_off_c, 0, 71, 62
1, 232089, Control_c, 0, 67, 93
1, 232098, Note_off_c, 0, 62, 62
1, 232104, Control_c, 0, 67, 92
1, 232115, Note_off_c, 0, 59, 61
1, 232119, Control_c, 0, 67, 90
1, 232122, Note_off_c, 0, 68, 64
1, 232133, Control_c, 0, 67, 89
1, 232146, Note_on_c, 0, 67, 80
1, 232148, Control_c, 0, 64, 29
1, 232148, Control_c, 0, 67, 87
1, 232163, Control_c, 0, 64, 44
1, 232163, Control_c, 0, 67, 81
1, 232177, Note_on_c, 0, 59, 67
1, 232178, Control_c, 0, 64, 44
1, 232178, Control_c, 0, 67, 68
1, 232187, Note_on_c, 0, 62, 66
1, 232193, Control_c, 0, 64, 45
1, 232193, Control_c, 0, 67, 52
1, 232200, Note_on_c, 0, 66, 73
1, 232207, Control_c, 0, 64, 49
1, 232207, Control_c, 0, 67, 32
1, 232215, Note_off_c, 0, 62, 64
1, 232216, Note_off_c, 0, 59, 64
1, 232216, Note_off_c, 0, 67, 57
1, 232222, Control_c, 0, 64, 54
1, 232222, Control_c, 0, 67, 13
1, 232233, Note_off_c, 0, 55, 59
1, 232237, Control_c, 0, 64, 58
1, 232237, Control_c, 0, 67, 0
1, 232251, Control_c, 0, 64, 58
1, 232262, Note_off_c, 0, 66, 66
1, 232271, Note_on_c, 0, 67, 65
1, 232296, Control_c, 0, 64, 59
1, 232297, Note_on_c, 0, 62, 69
1, 232310, Note_on_c, 0, 59, 60
1, 232316, Note_on_c, 0, 68, 60
1, 232327, Control_c, 0, 64, 58
1, 232328, Note_off_c, 0, 62, 62
1, 232331, Note_off_c, 0, 59, 64
1, 232342, Control_c, 0, 64, 55
1, 232346, Note_off_c, 0, 67, 59
1, 232356, Control_c, 0, 64, 45
1, 232364, Note_on_c, 0, 65, 74
1, 232371, Control_c, 0, 64, 0
1, 232436, Note_on_c, 0, 48, 79
1, 232442, Note_on_c, 0, 63, 83
1, 232455, Note_off_c, 0, 65, 56
1, 232459, Note_off_c, 0, 63, 73
1, 232459, Note_off_c, 0, 68, 39
1, 232577, Note_on_c, 0, 51, 67
1, 232577, Note_on_c, 0, 60, 63
1, 232588, Note_on_c, 0, 84, 89
1, 232599, Note_on_c, 0, 55, 40
1, 232606, Note_on_c, 0, 72, 66
1, 232609, Note_off_c, 0, 60, 63
1, 232623, Control_c, 0, 64, 17
1, 232628, Note_off_c, 0, 55, 58
1, 232638, Control_c, 0, 64, 54
1, 232648, Note_off_c, 0, 51, 60
1, 232653, Control_c, 0, 64, 62
1, 232668, Control_c, 0, 64, 64
1, 232682, Control_c, 0, 64, 65
1, 232701, Note_off_c, 0, 72, 65
1, 232704, Control_c, 0, 64, 69
1, 232719, Control_c, 0, 64, 75
1, 232722, Note_on_c, 0, 55, 61
1, 232728, Note_on_c, 0, 60, 56
1, 232729, Note_on_c, 0, 51, 51
1, 232734, Control_c, 0, 64, 89
1, 232749, Control_c, 0, 64, 105
1, 232751, Note_off_c, 0, 60, 61
1, 232755, Note_off_c, 0, 55, 65
1, 232763, Control_c, 0, 64, 115
1, 232777, Note_off_c, 0, 51, 59
1, 232778, Control_c, 0, 64, 125
1, 232793, Control_c, 0, 64, 127
1, 232817, Note_off_c, 0, 84, 61
1, 232828, Note_on_c, 0, 51, 60
1, 232829, Note_on_c, 0, 60, 61
1, 232844, Note_on_c, 0, 55, 47
1, 232847, Note_off_c, 0, 60, 64
1, 232848, Note_off_c, 0, 48, 28
1, 232863, Note_off_c, 0, 51, 64
1, 232868, Note_off_c, 0, 55, 60
1, 232873, Note_on_c, 0, 83, 80
1, 232936, Note_on_c, 0, 84, 80
1, 232964, Note_off_c, 0, 83, 54
1, 232971, Control_c, 0, 64, 112
1, 232986, Control_c, 0, 64, 95
1, 232994, Note_on_c, 0, 44, 79
1, 232997, Note_on_c, 0, 86, 86
1, 232998, Note_off_c, 0, 84, 66
1, 233000, Control_c, 0, 64, 80
1, 233015, Control_c, 0, 64, 65
1, 233030, Control_c, 0, 64, 44
1, 233045, Control_c, 0, 64, 0
1, 233068, Note_on_c, 0, 84, 72
1, 233100, Note_on_c, 0, 48, 65
1, 233105, Note_off_c, 0, 86, 60
1, 233107, Note_on_c, 0, 56, 68
1, 233110, Note_on_c, 0, 51, 60
1, 233112, Note_on_c, 0, 82, 82
1, 233139, Note_off_c, 0, 56, 64
1, 233141, Note_off_c, 0, 84, 62
1, 233155, Note_off_c, 0, 51, 61
1, 233169, Note_off_c, 0, 48, 62
1, 233173, Note_on_c, 0, 80, 78
1, 233192, Note_off_c, 0, 82, 61
1, 233221, Note_on_c, 0, 56, 73
1, 233225, Note_on_c, 0, 51, 61
1, 233228, Note_off_c, 0, 80, 64
1, 233229, Note_on_c, 0, 79, 77
1, 233238, Note_on_c, 0, 48, 47
1, 233246, Note_off_c, 0, 56, 68
1, 233254, Note_off_c, 0, 51, 64
1, 233278, Note_off_c, 0, 48, 62
1, 233300, Note_on_c, 0, 80, 77
1, 233322, Note_off_c, 0, 79, 57
1, 233344, Note_on_c, 0, 56, 66
1, 233345, Note_on_c, 0, 82, 80
1, 233353, Note_on_c, 0, 51, 62
1, 233356, Note_off_c, 0, 80, 64
1, 233357, Control_c, 0, 64, 28
1, 233362, Note_on_c, 0, 48, 66
1, 233368, Note_off_c, 0, 44, 63
1, 233371, Control_c, 0, 64, 38
1, 233386, Control_c, 0, 64, 43
1, 233397, Note_off_c, 0, 51, 55
1, 233401, Control_c, 0, 64, 49
1, 233404, Note_off_c, 0, 48, 62
1, 233407, Note_off_c, 0, 56, 57
1, 233412, Note_on_c, 0, 80, 77
1, 233416, Control_c, 0, 64, 54
1, 233431, Control_c, 0, 64, 56
1, 233454, Control_c, 0, 64, 55
1, 233458, Note_off_c, 0, 82, 59
1, 233469, Control_c, 0, 64, 53
1, 233474, Note_on_c, 0, 41, 88
1, 233481, Note_on_c, 0, 79, 82
1, 233484, Control_c, 0, 64, 46
1, 233499, Control_c, 0, 64, 0
1, 233521, Note_off_c, 0, 80, 59
1, 233536, Note_off_c, 0, 79, 63
1, 233548, Note_on_c, 0, 77, 78
1, 233586, Note_on_c, 0, 53, 77
1, 233598, Note_on_c, 0, 48, 66
1, 233601, Note_on_c, 0, 50, 59
1, 233612, Note_on_c, 0, 75, 84
1, 233617, Note_off_c, 0, 77, 59
1, 233633, Note_off_c, 0, 53, 62
1, 233642, Note_off_c, 0, 50, 61
1, 233666, Note_on_c, 0, 74, 78
1, 233668, Note_off_c, 0, 48, 60
1, 233720, Note_on_c, 0, 48, 49
1, 233720, Note_on_c, 0, 53, 70
1, 233726, Note_on_c, 0, 50, 59
1, 233732, Note_on_c, 0, 73, 86
1, 233735, Control_c, 0, 64, 15
1, 233741, Note_off_c, 0, 74, 65
1, 233743, Note_off_c, 0, 75, 58
1, 233750, Control_c, 0, 64, 40
1, 233751, Note_off_c, 0, 53, 67
1, 233755, Note_off_c, 0, 50, 65
1, 233765, Control_c, 0, 64, 53
1, 233771, Note_off_c, 0, 48, 62
1, 233779, Control_c, 0, 64, 57
1, 233788, Note_off_c, 0, 73, 61
1, 233803, Note_on_c, 0, 74, 80
1, 233824, Control_c, 0, 64, 58
1, 233827, Note_on_c, 0, 48, 69
1, 233833, Note_on_c, 0, 53, 75
1, 233839, Control_c, 0, 64, 60
1, 233842, Note_off_c, 0, 41, 65
1, 233848, Note_on_c, 0, 50, 55
1, 233854, Control_c, 0, 64, 62
1, 233857, Note_on_c, 0, 75, 78
1, 233868, Note_off_c, 0, 74, 62
1, 233869, Control_c, 0, 64, 64
1, 233873, Note_off_c, 0, 53, 56
1, 233878, Note_off_c, 0, 50, 64
1, 233884, Control_c, 0, 64, 65
1, 233886, Note_off_c, 0, 48, 63
1, 233898, Control_c, 0, 64, 66
1, 233909, Poly_aftertouch_c, 0, 74, 0
1, 233913, Control_c, 0, 64, 65
1, 233916, Note_on_c, 0, 74, 68
1, 233929, Control_c, 0, 64, 63
1, 233943, Control_c, 0, 64, 50
1, 233958, Note_off_c, 0, 75, 64
1, 233958, Control_c, 0, 64, 0
1, 233970, Note_on_c, 0, 43, 93
1, 233987, Note_off_c, 0, 74, 62
1, 234000, Note_on_c, 0, 71, 69
1, 234011, Note_on_c, 0, 72, 54
1, 234025, Note_off_c, 0, 71, 67
1, 234033, Note_off_c, 0, 72, 60
1, 234057, Note_on_c, 0, 71, 78
1, 234081, Note_on_c, 0, 55, 74
1, 234083, Note_on_c, 0, 50, 66
1, 234086, Note_on_c, 0, 47, 70
1, 234116, Note_off_c, 0, 55, 62
1, 234119, Note_off_c, 0, 50, 62
1, 234122, Note_off_c, 0, 71, 64
1, 234133, Note_on_c, 0, 67, 63
1, 234150, Note_off_c, 0, 47, 63
1, 234166, Control_c, 0, 64, 22
1, 234181, Control_c, 0, 64, 51
1, 234191, Note_on_c, 0, 47, 62
1, 234191, Note_on_c, 0, 50, 66
1, 234195, Note_on_c, 0, 55, 66
1, 234196, Control_c, 0, 64, 59
1, 234218, Control_c, 0, 64, 62
1, 234228, Note_off_c, 0, 67, 0
1, 234229, Note_off_c, 0, 55, 67
1, 234233, Control_c, 0, 64, 64
1, 234239, Note_off_c, 0, 50, 60
1, 234248, Control_c, 0, 64, 67
1, 234250, Note_on_c, 0, 66, 80
1, 234251, Note_off_c, 0, 47, 62
1, 234262, Control_c, 0, 64, 71
1, 234274, Poly_aftertouch_c, 0, 67, 0
1, 234277, Control_c, 0, 64, 77
1, 234290, Note_on_c, 0, 67, 24
1, 234292, Control_c, 0, 64, 81
1, 234301, Note_off_c, 0, 66, 67
1, 234307, Control_c, 0, 64, 84
1, 234310, Note_on_c, 0, 55, 71
1, 234322, Control_c, 0, 64, 85
1, 234322, Note_on_c, 0, 47, 66
1, 234334, Note_on_c, 0, 50, 47
1, 234334, Note_off_c, 0, 55, 70
1, 234350, Note_on_c, 0, 68, 68
1, 234355, Note_off_c, 0, 47, 65
1, 234357, Note_off_c, 0, 43, 36
1, 234367, Note_off_c, 0, 50, 44
1, 234377, Note_off_c, 0, 67, 61
1, 234400, Note_on_c, 0, 67, 70
1, 234400, Note_off_c, 0, 68, 66
1, 234410, Control_c, 0, 64, 84
1, 234425, Control_c, 0, 64, 77
1, 234440, Control_c, 0, 64, 67
1, 234454, Control_c, 0, 64, 44
1, 234456, Note_off_c, 0, 67, 63
1, 234469, Control_c, 0, 64, 0
1, 234483, Note_on_c, 0, 72, 82
1, 234486, Note_on_c, 0, 36, 78
1, 234516, Note_on_c, 0, 71, 24
1, 234517, Note_off_c, 0, 71, 127
1, 234517, Note_off_c, 0, 72, 66
1, 234535, Note_off_c, 0, 36, 62
1, 234561, Note_on_c, 0, 48, 69
1, 234609, Note_off_c, 0, 48, 60
1, 234624, Note_on_c, 0, 60, 85
1, 234631, Note_on_c, 0, 36, 69
1, 234667, Note_off_c, 0, 36, 66
1, 234689, Note_on_c, 0, 48, 62
1, 234725, Note_off_c, 0, 48, 63
1, 234752, Note_on_c, 0, 36, 73
1, 234794, Note_off_c, 0, 36, 64
1, 234812, Note_on_c, 0, 48, 70
1, 234848, Note_off_c, 0, 48, 59
1, 234853, Note_off_c, 0, 60, 61
1, 234881, Note_on_c, 0, 36, 70
1, 234886, Note_on_c, 0, 58, 78
1, 234892, Note_on_c, 0, 64, 69
1, 234914, Note_off_c, 0, 36, 63
1, 234920, Note_off_c, 0, 58, 58
1, 234930, Note_off_c, 0, 64, 57
1, 234957, Note_on_c, 0, 48, 56
1, 234989, Note_off_c, 0, 48, 64
1, 235008, Note_on_c, 0, 36, 74
1, 235019, Note_on_c, 0, 56, 66
1, 235020, Note_on_c, 0, 65, 67
1, 235044, Note_off_c, 0, 56, 66
1, 235047, Note_off_c, 0, 65, 66
1, 235051, Note_off_c, 0, 36, 63
1, 235077, Note_on_c, 0, 48, 68
1, 235118, Note_off_c, 0, 48, 62
1, 235142, Note_on_c, 0, 36, 72
1, 235144, Note_on_c, 0, 64, 66
1, 235145, Note_on_c, 0, 67, 72
1, 235182, Note_off_c, 0, 67, 57
1, 235182, Note_off_c, 0, 36, 65
1, 235185, Note_off_c, 0, 64, 61
1, 235217, Note_on_c, 0, 48, 67
1, 235254, Note_off_c, 0, 48, 59
1, 235268, Note_on_c, 0, 36, 76
1, 235268, Note_on_c, 0, 68, 80
1, 235275, Note_on_c, 0, 65, 65
1, 235301, Note_off_c, 0, 65, 67
1, 235308, Note_off_c, 0, 36, 64
1, 235316, Note_off_c, 0, 68, 64
1, 235341, Note_on_c, 0, 48, 72
1, 235387, Note_off_c, 0, 48, 53
1, 235394, Note_on_c, 0, 62, 69
1, 235395, Note_on_c, 0, 71, 76
1, 235396, Note_on_c, 0, 36, 72
1, 235426, Note_off_c, 0, 62, 60
1, 235444, Note_off_c, 0, 36, 64
1, 235448, Note_off_c, 0, 71, 60
1, 235474, Note_on_c, 0, 48, 63
1, 235516, Note_off_c, 0, 48, 55
1, 235520, Note_on_c, 0, 72, 81
1, 235521, Note_on_c, 0, 63, 79
1, 235524, Note_on_c, 0, 36, 73
1, 235545, Note_off_c, 0, 63, 68
1, 235568, Note_off_c, 0, 72, 62
1, 235572, Note_off_c, 0, 36, 63
1, 235599, Note_on_c, 0, 48, 71
1, 235637, Note_off_c, 0, 48, 60
1, 235659, Note_on_c, 0, 36, 78
1, 235659, Note_on_c, 0, 64, 86
1, 235659, Note_on_c, 0, 72, 90
1, 235679, Control_c, 0, 64, 54
1, 235700, Control_c, 0, 64, 67
1, 235715, Control_c, 0, 64, 77
1, 235730, Note_off_c, 0, 36, 64
1, 235730, Control_c, 0, 64, 99
1, 235744, Note_on_c, 0, 48, 80
1, 235745, Control_c, 0, 64, 127
1, 235765, Note_off_c, 0, 64, 65
1, 235772, Note_off_c, 0, 72, 63
1, 235793, Note_off_c, 0, 48, 52
1, 235795, Note_on_c, 0, 36, 80
1, 235849, Note_off_c, 0, 36, 64
1, 235864, Note_on_c, 0, 48, 79
1, 235908, Control_c, 0, 64, 104
1, 235921, Note_off_c, 0, 48, 59
1, 235923, Note_on_c, 0, 36, 73
1, 235923, Control_c, 0, 64, 75
1, 235936, Note_on_c, 0, 70, 87
1, 235938, Control_c, 0, 64, 57
1, 235942, Note_on_c, 0, 76, 82
1, 235953, Control_c, 0, 64, 0
1, 235978, Note_off_c, 0, 36, 64
1, 235985, Note_off_c, 0, 70, 63
1, 235998, Note_on_c, 0, 48, 75
1, 235998, Note_off_c, 0, 76, 61
1, 236047, Note_on_c, 0, 36, 83
1, 236053, Note_on_c, 0, 77, 90
1, 236055, Note_off_c, 0, 48, 55
1, 236059, Note_on_c, 0, 68, 81
1, 236077, Note_off_c, 0, 68, 73
1, 236103, Note_off_c, 0, 77, 63
1, 236110, Note_off_c, 0, 36, 65
1, 236123, Note_on_c, 0, 48, 77
1, 236178, Note_off_c, 0, 48, 57
1, 236181, Note_on_c, 0, 79, 94
1, 236183, Note_on_c, 0, 36, 74
1, 236198, Note_on_c, 0, 76, 68
1, 236218, Note_off_c, 0, 76, 69
1, 236230, Note_off_c, 0, 79, 60
1, 236239, Note_off_c, 0, 36, 65
1, 236258, Note_on_c, 0, 48, 79
1, 236299, Note_on_c, 0, 80, 88
1, 236307, Note_on_c, 0, 36, 79
1, 236307, Note_on_c, 0, 77, 81
1, 236310, Note_off_c, 0, 48, 56
1, 236335, Note_off_c, 0, 77, 63
1, 236359, Note_off_c, 0, 80, 63
1, 236365, Note_off_c, 0, 36, 64
1, 236379, Note_on_c, 0, 48, 77
1, 236433, Note_on_c, 0, 74, 80
1, 236436, Note_on_c, 0, 36, 78
1, 236436, Note_on_c, 0, 83, 70
1, 236439, Note_off_c, 0, 48, 56
1, 236449, Note_on_c, 0, 84, 79
1, 236469, Note_off_c, 0, 74, 64
1, 236472, Note_off_c, 0, 84, 67
1, 236499, Note_off_c, 0, 83, 61
1, 236507, Note_off_c, 0, 36, 64
1, 236521, Note_on_c, 0, 48, 71
1, 236564, Note_off_c, 0, 48, 61
1, 236576, Note_on_c, 0, 36, 83
1, 236577, Note_on_c, 0, 84, 96
1, 236577, Note_on_c, 0, 72, 100
1, 236582, Note_on_c, 0, 75, 90
1, 236647, Note_off_c, 0, 36, 63
1, 236651, Note_on_c, 0, 48, 79
1, 236672, Control_c, 0, 64, 39
1, 236687, Control_c, 0, 64, 63
1, 236702, Control_c, 0, 64, 70
1, 236704, Note_on_c, 0, 36, 71
1, 236708, Note_off_c, 0, 48, 60
1, 236717, Control_c, 0, 64, 79
1, 236732, Control_c, 0, 64, 90
1, 236746, Control_c, 0, 64, 102
1, 236761, Control_c, 0, 64, 114
1, 236764, Note_off_c, 0, 36, 64
1, 236773, Note_on_c, 0, 48, 73
1, 236776, Control_c, 0, 64, 127
1, 236780, Poly_aftertouch_c, 0, 79, 127
1, 236782, Note_off_c, 0, 84, 62
1, 236823, Note_off_c, 0, 48, 60
1, 236833, Note_on_c, 0, 36, 74
1, 236857, Note_off_c, 0, 72, 62
1, 236858, Poly_aftertouch_c, 0, 79, 0
1, 236864, Note_off_c, 0, 75, 63
1, 236884, Note_off_c, 0, 36, 61
1, 236904, Note_on_c, 0, 48, 71
1, 236955, Note_off_c, 0, 48, 48
1, 236961, Note_on_c, 0, 36, 67
1, 236996, Note_on_c, 0, 48, 53
1, 236998, Note_off_c, 0, 36, 62
1, 237048, Note_off_c, 0, 48, 61
1, 237100, Note_on_c, 0, 34, 91
1, 237101, Note_on_c, 0, 72, 91
1, 237102, Note_on_c, 0, 60, 96
1, 237103, Note_on_c, 0, 63, 93
1, 237133, Control_c, 0, 64, 71
1, 237144, Note_on_c, 0, 67, 44
1, 237147, Control_c, 0, 64, 0
1, 237165, Note_on_c, 0, 46, 77
1, 237176, Note_off_c, 0, 34, 64
1, 237214, Note_off_c, 0, 67, 0
1, 237244, Control_c, 0, 64, 10
1, 237248, Note_on_c, 0, 34, 77
1, 237250, Note_off_c, 0, 46, 56
1, 237250, Poly_aftertouch_c, 0, 67, 127
1, 237259, Control_c, 0, 64, 56
1, 237273, Control_c, 0, 64, 66
1, 237288, Control_c, 0, 64, 79
1, 237303, Control_c, 0, 64, 121
1, 237308, Note_off_c, 0, 34, 64
1, 237316, Note_on_c, 0, 46, 74
1, 237318, Control_c, 0, 64, 127
1, 237364, Note_off_c, 0, 60, 54
1, 237372, Note_off_c, 0, 46, 59
1, 237373, Note_on_c, 0, 34, 69
1, 237375, Note_off_c, 0, 63, 64
1, 237390, Note_off_c, 0, 72, 61
1, 237402, Poly_aftertouch_c, 0, 67, 0
1, 237432, Note_off_c, 0, 34, 63
1, 237450, Note_on_c, 0, 46, 71
1, 237484, Note_off_c, 0, 46, 60
1, 237501, Note_on_c, 0, 34, 73
1, 237574, Note_on_c, 0, 46, 77
1, 237577, Note_off_c, 0, 34, 65
1, 237628, Note_off_c, 0, 46, 62
1, 237646, Note_on_c, 0, 32, 89
1, 237649, Note_on_c, 0, 84, 97
1, 237650, Note_on_c, 0, 72, 97
1, 237654, Note_on_c, 0, 75, 97
1, 237673, Control_c, 0, 64, 87
1, 237688, Control_c, 0, 64, 0
1, 237691, Note_on_c, 0, 79, 44
1, 237723, Note_on_c, 0, 44, 79
1, 237726, Note_off_c, 0, 32, 62
1, 237735, Note_off_c, 0, 79, 0
1, 237784, Note_on_c, 0, 32, 76
1, 237789, Note_off_c, 0, 44, 60
1, 237791, Control_c, 0, 64, 62
1, 237795, Poly_aftertouch_c, 0, 79, 0
1, 237806, Control_c, 0, 64, 74
1, 237821, Control_c, 0, 64, 113
1, 237836, Control_c, 0, 64, 127
1, 237844, Note_off_c, 0, 84, 61
1, 237849, Note_on_c, 0, 44, 71
1, 237851, Note_off_c, 0, 32, 62
1, 237909, Note_off_c, 0, 44, 53
1, 237914, Note_on_c, 0, 32, 75
1, 237924, Note_off_c, 0, 72, 59
1, 237933, Note_off_c, 0, 75, 61
1, 237981, Note_off_c, 0, 32, 64
1, 237998, Note_on_c, 0, 44, 70
1, 238035, Note_off_c, 0, 44, 51
1, 238048, Note_on_c, 0, 32, 79
1, 238117, Note_off_c, 0, 32, 61
1, 238121, Note_on_c, 0, 44, 71
1, 238159, Poly_aftertouch_c, 0, 70, 127
1, 238171, Note_off_c, 0, 44, 62
1, 238183, Note_on_c, 0, 72, 92
1, 238184, Note_on_c, 0, 31, 90
1, 238184, Note_on_c, 0, 60, 101
1, 238185, Note_on_c, 0, 63, 98
1, 238195, Poly_aftertouch_c, 0, 70, 0
1, 238215, Control_c, 0, 64, 74
1, 238229, Control_c, 0, 64, 0
1, 238254, Note_on_c, 0, 43, 78
1, 238260, Note_off_c, 0, 31, 64
1, 238289, Control_c, 0, 64, 39
1, 238303, Control_c, 0, 64, 67
1, 238312, Note_off_c, 0, 43, 58
1, 238318, Control_c, 0, 64, 91
1, 238332, Note_on_c, 0, 31, 75
1, 238333, Control_c, 0, 64, 127
1, 238347, Note_on_c, 0, 33, 58
1, 238373, Note_off_c, 0, 33, 62
1, 238381, Note_off_c, 0, 31, 63
1, 238386, Note_on_c, 0, 43, 79
1, 238422, Note_off_c, 0, 60, 50
1, 238437, Note_off_c, 0, 43, 61
1, 238438, Poly_aftertouch_c, 0, 67, 127
1, 238445, Note_off_c, 0, 72, 53
1, 238456, Note_off_c, 0, 63, 61
1, 238458, Note_on_c, 0, 31, 78
1, 238471, Poly_aftertouch_c, 0, 67, 0
1, 238503, Note_off_c, 0, 31, 64
1, 238522, Note_on_c, 0, 32, 3
1, 238527, Note_on_c, 0, 43, 68
1, 238549, Note_off_c, 0, 32, 55
1, 238552, Note_off_c, 0, 43, 64
1, 238580, Note_on_c, 0, 31, 84
1, 238620, Note_on_c, 0, 43, 72
1, 238642, Note_off_c, 0, 31, 62
1, 238657, Note_off_c, 0, 43, 63
1, 238739, Note_on_c, 0, 42, 99
1, 238742, Note_on_c, 0, 75, 103
1, 238743, Note_on_c, 0, 87, 98
1, 238744, Note_on_c, 0, 30, 92
1, 238744, Note_on_c, 0, 81, 89
1, 238749, Note_on_c, 0, 84, 87
1, 238756, Control_c, 0, 64, 92
1, 238771, Control_c, 0, 64, 0
1, 238802, Note_on_c, 0, 29, 17
1, 238860, Control_c, 0, 64, 51
1, 238875, Control_c, 0, 64, 68
1, 238890, Control_c, 0, 64, 81
1, 238905, Control_c, 0, 64, 121
1, 238919, Control_c, 0, 64, 127
1, 238963, Note_off_c, 0, 29, 18
1, 238986, Note_off_c, 0, 30, 56
1, 238988, Note_off_c, 0, 87, 61
1, 238997, Poly_aftertouch_c, 0, 80, 127
1, 239008, Note_off_c, 0, 84, 59
1, 239029, Note_off_c, 0, 81, 57
1, 239057, Poly_aftertouch_c, 0, 74, 127
1, 239072, Note_off_c, 0, 75, 62
1, 239086, Poly_aftertouch_c, 0, 80, 0
1, 239101, Poly_aftertouch_c, 0, 74, 0
1, 239118, Note_off_c, 0, 42, 58
1, 239443, Note_on_c, 0, 63, 97
1, 239444, Note_on_c, 0, 54, 99
1, 239449, Note_on_c, 0, 57, 78
1, 239450, Note_on_c, 0, 51, 98
1, 239455, Note_on_c, 0, 60, 76
1, 239456, Note_on_c, 0, 48, 75
1, 239459, Note_on_c, 0, 45, 77
1, 239460, Note_on_c, 0, 42, 83
1, 239519, Control_c, 0, 64, 65
1, 239534, Control_c, 0, 64, 0
1, 241155, Note_off_c, 0, 42, 58
1, 241158, Note_off_c, 0, 54, 54
1, 241161, Note_off_c, 0, 57, 37
1, 241170, Note_off_c, 0, 63, 56
1, 241174, Note_off_c, 0, 51, 54
1, 241177, Note_off_c, 0, 60, 54
1, 241184, Note_off_c, 0, 48, 45
1, 241203, Note_off_c, 0, 45, 47
1, 243032, Control_c, 0, 64, 14
1, 243047, Control_c, 0, 64, 37
1, 243062, Control_c, 0, 64, 41
1, 243077, Control_c, 0, 64, 43
1, 243091, Control_c, 0, 64, 45
1, 243106, Control_c, 0, 64, 47
1, 243121, Control_c, 0, 64, 49
1, 243135, Control_c, 0, 64, 51
1, 243150, Control_c, 0, 64, 53
1, 243166, Control_c, 0, 64, 55
1, 243188, Control_c, 0, 64, 57
1, 243203, Control_c, 0, 64, 58
1, 243218, Control_c, 0, 64, 59
1, 243233, Control_c, 0, 64, 60
1, 243248, Control_c, 0, 64, 62
1, 243263, Control_c, 0, 64, 63
1, 243278, Control_c, 0, 64, 64
1, 243292, Control_c, 0, 64, 65
1, 243307, Control_c, 0, 64, 67
1, 243322, Control_c, 0, 64, 68
1, 243336, Control_c, 0, 64, 70
1, 243351, Control_c, 0, 64, 72
1, 243366, Control_c, 0, 64, 74
1, 243381, Control_c, 0, 64, 76
1, 243396, Control_c, 0, 64, 78
1, 243410, Control_c, 0, 64, 79
1, 243437, Note_on_c, 0, 72, 50
1, 243440, Control_c, 0, 64, 79
1, 243445, Note_on_c, 0, 63, 46
1, 243452, Note_on_c, 0, 69, 40
1, 243455, Control_c, 0, 64, 80
1, 243470, Control_c, 0, 64, 81
1, 243487, Note_on_c, 0, 66, 19
1, 243499, Control_c, 0, 64, 81
1, 243530, Control_c, 0, 64, 82
1, 243536, Note_off_c, 0, 66, 51
1, 243546, Note_off_c, 0, 72, 60
1, 243559, Control_c, 0, 64, 82
1, 243584, Note_off_c, 0, 63, 42
1, 243589, Control_c, 0, 64, 82
1, 243594, Note_on_c, 0, 74, 65
1, 243604, Control_c, 0, 64, 78
1, 243619, Control_c, 0, 64, 72
1, 243633, Control_c, 0, 64, 63
1, 243638, Note_on_c, 0, 66, 47
1, 243648, Note_on_c, 0, 62, 40
1, 243648, Control_c, 0, 64, 37
1, 243663, Control_c, 0, 64, 0
1, 243767, Control_c, 0, 64, 44
1, 243781, Control_c, 0, 64, 58
1, 243796, Control_c, 0, 64, 62
1, 243811, Control_c, 0, 64, 63
1, 243826, Control_c, 0, 64, 66
1, 243841, Control_c, 0, 64, 71
1, 243856, Control_c, 0, 64, 78
1, 243871, Control_c, 0, 64, 84
1, 243886, Control_c, 0, 64, 86
1, 243901, Control_c, 0, 64, 86
1, 243913, Note_off_c, 0, 66, 37
1, 243915, Control_c, 0, 64, 88
1, 243937, Control_c, 0, 64, 90
1, 243952, Control_c, 0, 64, 94
1, 243966, Control_c, 0, 64, 98
1, 243981, Control_c, 0, 64, 102
1, 243996, Control_c, 0, 64, 105
1, 243999, Note_off_c, 0, 69, 43
1, 244011, Control_c, 0, 64, 110
1, 244026, Control_c, 0, 64, 116
1, 244041, Control_c, 0, 64, 127
1, 244252, Note_off_c, 0, 74, 29
1, 244285, Note_on_c, 0, 75, 66
1, 244299, Note_on_c, 0, 66, 55
1, 244304, Note_on_c, 0, 69, 52
1, 244315, Note_on_c, 0, 60, 36
1, 244337, Note_off_c, 0, 66, 60
1, 244348, Note_off_c, 0, 69, 60
1, 244369, Note_off_c, 0, 60, 47
1, 244383, Note_off_c, 0, 75, 62
1, 244392, Note_off_c, 0, 62, 35
1, 244476, Note_on_c, 0, 75, 79
1, 244486, Control_c, 0, 64, 116
1, 244499, Note_on_c, 0, 69, 44
1, 244501, Note_on_c, 0, 66, 50
1, 244501, Control_c, 0, 64, 92
1, 244505, Note_on_c, 0, 60, 42
1, 244516, Control_c, 0, 64, 77
1, 244530, Control_c, 0, 64, 66
1, 244545, Control_c, 0, 64, 56
1, 244560, Control_c, 0, 64, 25
1, 244575, Control_c, 0, 64, 0
1, 244760, Control_c, 0, 64, 24
1, 244775, Control_c, 0, 64, 42
1, 244789, Control_c, 0, 64, 52
1, 244804, Control_c, 0, 64, 59
1, 244819, Control_c, 0, 64, 62
1, 244834, Control_c, 0, 64, 63
1, 244849, Control_c, 0, 64, 64
1, 244863, Control_c, 0, 64, 65
1, 244878, Control_c, 0, 64, 69
1, 244893, Control_c, 0, 64, 74
1, 244908, Control_c, 0, 64, 79
1, 244923, Control_c, 0, 64, 83
1, 244938, Control_c, 0, 64, 85
1, 244953, Control_c, 0, 64, 86
1, 244968, Control_c, 0, 64, 88
1, 244983, Control_c, 0, 64, 92
1, 244997, Control_c, 0, 64, 98
1, 245012, Control_c, 0, 64, 109
1, 245027, Control_c, 0, 64, 127
1, 245398, Note_off_c, 0, 66, 36
1, 245446, Note_off_c, 0, 69, 45
1, 245555, Note_off_c, 0, 60, 32
1, 245919, Note_off_c, 0, 75, 39
1, 246112, Note_on_c, 0, 74, 34
1, 246112, Note_on_c, 0, 67, 41
1, 246122, Note_on_c, 0, 71, 37
1, 246124, Note_on_c, 0, 59, 35
1, 246131, Control_c, 0, 64, 97
1, 246146, Control_c, 0, 64, 80
1, 246160, Control_c, 0, 64, 68
1, 246183, Control_c, 0, 64, 59
1, 246198, Control_c, 0, 64, 34
1, 246213, Control_c, 0, 64, 0
1, 246420, Control_c, 0, 67, 8
1, 246494, Control_c, 0, 67, 8
1, 246509, Control_c, 0, 67, 9
1, 246524, Control_c, 0, 67, 12
1, 246539, Control_c, 0, 67, 15
1, 246553, Control_c, 0, 67, 16
1, 246568, Control_c, 0, 67, 18
1, 246583, Control_c, 0, 67, 19
1, 246598, Control_c, 0, 67, 20
1, 246613, Control_c, 0, 67, 21
1, 246657, Control_c, 0, 67, 21
1, 246732, Control_c, 0, 67, 22
1, 246843, Note_off_c, 0, 67, 53
1, 246851, Note_off_c, 0, 74, 61
1, 246857, Note_off_c, 0, 59, 53
1, 246858, Note_off_c, 0, 71, 52
1, 246962, Control_c, 0, 67, 22
1, 247170, Control_c, 0, 67, 23
1, 247600, Control_c, 0, 67, 23
1, 248007, Control_c, 0, 67, 24
1, 248319, Control_c, 0, 67, 24
1, 248430, Control_c, 0, 67, 27
1, 248445, Control_c, 0, 67, 29
1, 248460, Control_c, 0, 67, 30
1, 248593, Control_c, 0, 67, 29
1, 248608, Control_c, 0, 67, 29
1, 248623, Control_c, 0, 67, 28
1, 248637, Control_c, 0, 67, 26
1, 248652, Control_c, 0, 67, 25
1, 248667, Control_c, 0, 67, 22
1, 248682, Control_c, 0, 67, 20
1, 248697, Control_c, 0, 67, 18
1, 248712, Control_c, 0, 67, 15
1, 248727, Control_c, 0, 67, 11
1, 248742, Control_c, 0, 67, 0
1, 248771, Control_c, 0, 64, 27
1, 248786, Control_c, 0, 64, 37
1, 248801, Control_c, 0, 64, 42
1, 248816, Control_c, 0, 64, 45
1, 248830, Control_c, 0, 64, 49
1, 248845, Control_c, 0, 64, 54
1, 248860, Control_c, 0, 64, 57
1, 248875, Control_c, 0, 64, 58
1, 248890, Control_c, 0, 64, 59
1, 248904, Control_c, 0, 64, 60
1, 248919, Control_c, 0, 64, 62
1, 248934, Control_c, 0, 64, 64
1, 248948, Control_c, 0, 64, 66
1, 248963, Control_c, 0, 64, 70
1, 248978, Control_c, 0, 64, 75
1, 248993, Control_c, 0, 64, 80
1, 249008, Control_c, 0, 64, 83
1, 249022, Control_c, 0, 64, 85
1, 249037, Control_c, 0, 64, 86
1, 249052, Control_c, 0, 64, 87
1, 249102, Note_on_c, 0, 77, 67
1, 249122, Note_on_c, 0, 68, 48
1, 249123, Note_on_c, 0, 74, 47
1, 249147, Note_on_c, 0, 71, 35
1, 249185, Note_off_c, 0, 74, 56
1, 249194, Note_off_c, 0, 71, 51
1, 249225, Note_off_c, 0, 77, 55
1, 249239, Note_off_c, 0, 68, 43
1, 249268, Control_c, 0, 64, 86
1, 249282, Note_on_c, 0, 79, 80
1, 249283, Control_c, 0, 64, 81
1, 249298, Control_c, 0, 64, 72
1, 249310, Note_on_c, 0, 67, 41
1, 249311, Note_on_c, 0, 71, 36
1, 249313, Control_c, 0, 64, 62
1, 249315, Note_on_c, 0, 74, 44
1, 249327, Control_c, 0, 64, 15
1, 249342, Control_c, 0, 64, 0
1, 249416, Control_c, 0, 64, 14
1, 249431, Control_c, 0, 64, 53
1, 249446, Control_c, 0, 64, 61
1, 249460, Control_c, 0, 64, 63
1, 249475, Control_c, 0, 64, 63
1, 249490, Control_c, 0, 64, 65
1, 249505, Control_c, 0, 64, 67
1, 249520, Control_c, 0, 64, 72
1, 249535, Control_c, 0, 64, 77
1, 249549, Control_c, 0, 64, 81
1, 249564, Control_c, 0, 64, 83
1, 249579, Control_c, 0, 64, 85
1, 249594, Control_c, 0, 64, 89
1, 249597, Note_off_c, 0, 79, 60
1, 249609, Control_c, 0, 64, 98
1, 249624, Control_c, 0, 64, 110
1, 249639, Control_c, 0, 64, 127
1, 249645, Note_off_c, 0, 71, 35
1, 249657, Note_off_c, 0, 74, 63
1, 249909, Note_on_c, 0, 80, 81
1, 249931, Note_on_c, 0, 71, 60
1, 249934, Note_on_c, 0, 74, 55
1, 249952, Note_on_c, 0, 65, 35
1, 249979, Note_off_c, 0, 71, 49
1, 250002, Note_off_c, 0, 65, 46
1, 250006, Note_off_c, 0, 74, 59
1, 250006, Note_off_c, 0, 67, 39
1, 250021, Note_off_c, 0, 80, 63
1, 250110, Note_on_c, 0, 80, 88
1, 250121, Control_c, 0, 64, 114
1, 250133, Note_on_c, 0, 71, 52
1, 250133, Note_on_c, 0, 74, 48
1, 250135, Control_c, 0, 64, 83
1, 250150, Note_on_c, 0, 65, 36
1, 250150, Control_c, 0, 64, 67
1, 250165, Control_c, 0, 64, 54
1, 250180, Control_c, 0, 64, 0
1, 250751, Control_c, 0, 64, 22
1, 250766, Control_c, 0, 64, 33
1, 250781, Control_c, 0, 64, 39
1, 250795, Control_c, 0, 64, 44
1, 250810, Control_c, 0, 64, 47
1, 250825, Control_c, 0, 64, 50
1, 250840, Control_c, 0, 64, 55
1, 250855, Control_c, 0, 64, 59
1, 250870, Control_c, 0, 64, 60
1, 250885, Control_c, 0, 64, 61
1, 250899, Control_c, 0, 64, 62
1, 250914, Control_c, 0, 64, 65
1, 250929, Control_c, 0, 64, 68
1, 250944, Control_c, 0, 64, 74
1, 250958, Control_c, 0, 64, 81
1, 250973, Control_c, 0, 64, 86
1, 250988, Control_c, 0, 64, 93
1, 250988, Control_c, 0, 67, 10
1, 251003, Control_c, 0, 64, 112
1, 251003, Control_c, 0, 67, 12
1, 251013, Note_off_c, 0, 71, 41
1, 251018, Control_c, 0, 64, 127
1, 251018, Control_c, 0, 67, 16
1, 251032, Control_c, 0, 67, 24
1, 251047, Control_c, 0, 67, 36
1, 251062, Control_c, 0, 67, 49
1, 251077, Control_c, 0, 67, 58
1, 251092, Control_c, 0, 67, 66
1, 251106, Control_c, 0, 67, 76
1, 251121, Control_c, 0, 67, 89
1, 251136, Control_c, 0, 67, 104
1, 251150, Control_c, 0, 67, 118
1, 251165, Control_c, 0, 67, 127
1, 251238, Note_off_c, 0, 74, 37
1, 251577, Note_off_c, 0, 80, 38
1, 251747, Note_off_c, 0, 65, 31
1, 251770, Note_on_c, 0, 79, 40
1, 251796, Control_c, 0, 64, 111
1, 251801, Note_on_c, 0, 63, 37
1, 251805, Note_on_c, 0, 72, 39
1, 251811, Control_c, 0, 64, 87
1, 251820, Note_on_c, 0, 75, 28
1, 251826, Control_c, 0, 64, 73
1, 251841, Control_c, 0, 64, 63
1, 251855, Control_c, 0, 64, 43
1, 251870, Control_c, 0, 64, 0
1, 252515, Note_off_c, 0, 72, 44
1, 252523, Note_off_c, 0, 63, 44
1, 252524, Note_off_c, 0, 79, 53
1, 252535, Note_off_c, 0, 75, 51
1, 253878, Control_c, 0, 64, 23
1, 253894, Control_c, 0, 64, 42
1, 253909, Control_c, 0, 64, 50
1, 253924, Control_c, 0, 64, 55
1, 253939, Control_c, 0, 64, 58
1, 253954, Control_c, 0, 64, 62
1, 253968, Control_c, 0, 64, 64
1, 253983, Control_c, 0, 64, 68
1, 253998, Control_c, 0, 64, 72
1, 254013, Control_c, 0, 64, 79
1, 254028, Control_c, 0, 64, 88
1, 254042, Control_c, 0, 64, 105
1, 254042, Control_c, 0, 67, 121
1, 254057, Control_c, 0, 64, 127
1, 254057, Control_c, 0, 67, 104
1, 254072, Control_c, 0, 67, 78
1, 254087, Control_c, 0, 67, 46
1, 254101, Control_c, 0, 67, 9
1, 254116, Control_c, 0, 67, 0
1, 254386, Note_on_c, 0, 82, 79
1, 254402, Note_on_c, 0, 61, 52
1, 254402, Note_on_c, 0, 70, 60
1, 254408, Note_on_c, 0, 76, 55
1, 254409, Note_on_c, 0, 67, 44
1, 254425, Note_on_c, 0, 79, 52
1, 254436, Note_on_c, 0, 64, 44
1, 254481, Note_off_c, 0, 64, 59
1, 254483, Note_off_c, 0, 70, 60
1, 254489, Note_off_c, 0, 67, 59
1, 254501, Note_off_c, 0, 61, 53
1, 254508, Note_off_c, 0, 79, 56
1, 254521, Note_off_c, 0, 82, 62
1, 254560, Note_off_c, 0, 76, 0
1, 254565, Note_on_c, 0, 84, 89
1, 254578, Note_on_c, 0, 76, 42
1, 254578, Note_on_c, 0, 79, 65
1, 254579, Note_on_c, 0, 64, 62
1, 254583, Note_on_c, 0, 60, 68
1, 254584, Note_on_c, 0, 72, 70
1, 254584, Note_on_c, 0, 67, 72
1, 254597, Control_c, 0, 64, 80
1, 254612, Control_c, 0, 64, 59
1, 254627, Control_c, 0, 64, 0
1, 254686, Control_c, 0, 64, 44
1, 254702, Control_c, 0, 64, 59
1, 254717, Control_c, 0, 64, 64
1, 254731, Control_c, 0, 64, 66
1, 254746, Control_c, 0, 64, 71
1, 254761, Control_c, 0, 64, 78
1, 254776, Control_c, 0, 64, 87
1, 254790, Control_c, 0, 64, 99
1, 254805, Control_c, 0, 64, 127
1, 254966, Note_off_c, 0, 84, 60
1, 254968, Note_off_c, 0, 60, 37
1, 254969, Note_off_c, 0, 72, 37
1, 255041, Note_off_c, 0, 76, 52
1, 255071, Note_off_c, 0, 67, 53
1, 255089, Note_off_c, 0, 79, 56
1, 255107, Note_off_c, 0, 64, 34
1, 255246, Note_on_c, 0, 85, 89
1, 255261, Note_on_c, 0, 58, 60
1, 255261, Note_on_c, 0, 73, 75
1, 255264, Note_on_c, 0, 67, 68
1, 255267, Note_on_c, 0, 76, 66
1, 255267, Note_on_c, 0, 79, 60
1, 255298, Note_on_c, 0, 64, 29
1, 255329, Note_off_c, 0, 58, 59
1, 255356, Note_off_c, 0, 73, 57
1, 255374, Note_off_c, 0, 67, 53
1, 255378, Note_off_c, 0, 76, 56
1, 255394, Note_off_c, 0, 64, 28
1, 255404, Note_off_c, 0, 85, 59
1, 255434, Note_off_c, 0, 79, 36
1, 255493, Note_on_c, 0, 85, 96
1, 255499, Note_on_c, 0, 73, 83
1, 255508, Note_on_c, 0, 76, 73
1, 255508, Note_on_c, 0, 67, 72
1, 255515, Note_on_c, 0, 79, 67
1, 255520, Note_on_c, 0, 58, 61
1, 255525, Control_c, 0, 64, 81
1, 255526, Note_on_c, 0, 56, 54
1, 255527, Note_on_c, 0, 64, 52
1, 255539, Control_c, 0, 64, 62
1, 255554, Control_c, 0, 64, 0
1, 255777, Control_c, 0, 64, 19
1, 255791, Control_c, 0, 64, 30
1, 255806, Control_c, 0, 64, 38
1, 255821, Control_c, 0, 64, 43
1, 255836, Control_c, 0, 64, 46
1, 255851, Control_c, 0, 64, 48
1, 255865, Control_c, 0, 64, 51
1, 255880, Control_c, 0, 64, 54
1, 255895, Control_c, 0, 64, 57
1, 255917, Control_c, 0, 64, 58
1, 255932, Control_c, 0, 64, 59
1, 255946, Control_c, 0, 64, 60
1, 255961, Control_c, 0, 64, 61
1, 255976, Control_c, 0, 64, 63
1, 255991, Control_c, 0, 64, 64
1, 256006, Control_c, 0, 64, 65
1, 256020, Control_c, 0, 64, 66
1, 256035, Control_c, 0, 64, 67
1, 256050, Control_c, 0, 64, 68
1, 256064, Control_c, 0, 64, 69
1, 256079, Control_c, 0, 64, 71
1, 256094, Control_c, 0, 64, 72
1, 256109, Control_c, 0, 64, 74
1, 256124, Control_c, 0, 64, 77
1, 256138, Control_c, 0, 64, 82
1, 256153, Control_c, 0, 64, 89
1, 256168, Control_c, 0, 64, 92
1, 256183, Control_c, 0, 64, 97
1, 256198, Control_c, 0, 64, 105
1, 256212, Control_c, 0, 64, 127
1, 256269, Note_off_c, 0, 73, 59
1, 256373, Note_off_c, 0, 67, 36
1, 256424, Note_off_c, 0, 58, 63
1, 256491, Note_off_c, 0, 64, 30
1, 256508, Note_off_c, 0, 76, 28
1, 256883, Note_off_c, 0, 85, 62
1, 257021, Note_on_c, 0, 84, 82
1, 257026, Note_on_c, 0, 65, 43
1, 257042, Note_on_c, 0, 68, 57
1, 257051, Note_on_c, 0, 60, 42
1, 257051, Note_on_c, 0, 72, 49
1, 257065, Control_c, 0, 64, 87
1, 257069, Note_off_c, 0, 79, 4
1, 257080, Control_c, 0, 64, 66
1, 257096, Control_c, 0, 64, 43
1, 257110, Control_c, 0, 64, 0
1, 257184, Control_c, 0, 64, 26
1, 257199, Control_c, 0, 64, 55
1, 257214, Control_c, 0, 64, 63
1, 257229, Control_c, 0, 64, 65
1, 257244, Control_c, 0, 64, 67
1, 257258, Control_c, 0, 64, 68
1, 257273, Control_c, 0, 64, 71
1, 257288, Control_c, 0, 64, 77
1, 257303, Control_c, 0, 64, 84
1, 257307, Note_off_c, 0, 60, 47
1, 257318, Control_c, 0, 64, 91
1, 257333, Control_c, 0, 64, 98
1, 257348, Control_c, 0, 64, 105
1, 257362, Control_c, 0, 64, 116
1, 257377, Control_c, 0, 64, 127
1, 257497, Note_off_c, 0, 72, 48
1, 257553, Note_off_c, 0, 68, 34
1, 257574, Note_off_c, 0, 56, 27
1, 257607, Note_off_c, 0, 65, 40
1, 257827, Note_on_c, 0, 82, 70
1, 257840, Note_on_c, 0, 70, 60
1, 257854, Note_on_c, 0, 60, 38
1, 257858, Note_on_c, 0, 64, 37
1, 257861, Note_on_c, 0, 55, 39
1, 257874, Control_c, 0, 64, 101
1, 257890, Control_c, 0, 64, 78
1, 257905, Control_c, 0, 64, 65
1, 257920, Control_c, 0, 64, 47
1, 257934, Control_c, 0, 64, 0
1, 258008, Control_c, 0, 64, 44
1, 258023, Control_c, 0, 64, 60
1, 258038, Control_c, 0, 64, 64
1, 258053, Control_c, 0, 64, 66
1, 258067, Control_c, 0, 64, 68
1, 258079, Note_off_c, 0, 84, 34
1, 258082, Control_c, 0, 64, 69
1, 258097, Control_c, 0, 64, 72
1, 258112, Control_c, 0, 64, 77
1, 258127, Control_c, 0, 64, 82
1, 258133, Note_off_c, 0, 55, 43
1, 258141, Control_c, 0, 64, 86
1, 258164, Control_c, 0, 64, 87
1, 258179, Control_c, 0, 64, 89
1, 258194, Control_c, 0, 64, 93
1, 258209, Control_c, 0, 64, 100
1, 258223, Control_c, 0, 64, 118
1, 258238, Control_c, 0, 64, 127
1, 258269, Note_off_c, 0, 60, 54
1, 258336, Note_off_c, 0, 64, 40
1, 258355, Note_off_c, 0, 70, 36
1, 258643, Note_on_c, 0, 80, 67
1, 258653, Control_c, 0, 64, 116
1, 258656, Note_on_c, 0, 68, 49
1, 258667, Control_c, 0, 64, 92
1, 258668, Note_on_c, 0, 53, 42
1, 258668, Note_on_c, 0, 65, 35
1, 258676, Note_on_c, 0, 60, 40
1, 258683, Control_c, 0, 64, 77
1, 258698, Control_c, 0, 64, 66
1, 258713, Control_c, 0, 64, 55
1, 258728, Control_c, 0, 64, 0
1, 258800, Note_off_c, 0, 82, 38
1, 258846, Control_c, 0, 64, 24
1, 258861, Control_c, 0, 64, 53
1, 258876, Control_c, 0, 64, 63
1, 258890, Control_c, 0, 64, 66
1, 258912, Control_c, 0, 64, 70
1, 258927, Control_c, 0, 64, 74
1, 258942, Control_c, 0, 64, 78
1, 258957, Control_c, 0, 64, 82
1, 258972, Control_c, 0, 64, 86
1, 258987, Control_c, 0, 64, 90
1, 259002, Control_c, 0, 64, 93
1, 259017, Control_c, 0, 64, 97
1, 259032, Control_c, 0, 64, 101
1, 259046, Control_c, 0, 64, 104
1, 259061, Control_c, 0, 64, 106
1, 259065, Note_off_c, 0, 53, 36
1, 259076, Control_c, 0, 64, 109
1, 259084, Note_off_c, 0, 65, 41
1, 259090, Control_c, 0, 64, 112
1, 259105, Control_c, 0, 64, 118
1, 259120, Control_c, 0, 64, 127
1, 259179, Control_c, 0, 67, 9
1, 259194, Control_c, 0, 67, 14
1, 259208, Control_c, 0, 67, 17
1, 259213, Note_off_c, 0, 60, 36
1, 259223, Control_c, 0, 67, 19
1, 259238, Control_c, 0, 67, 22
1, 259253, Control_c, 0, 67, 27
1, 259268, Control_c, 0, 67, 30
1, 259276, Note_off_c, 0, 68, 41
1, 259282, Control_c, 0, 67, 32
1, 259312, Control_c, 0, 67, 32
1, 259386, Control_c, 0, 67, 33
1, 259446, Control_c, 0, 64, 113
1, 259458, Note_on_c, 0, 79, 55
1, 259461, Control_c, 0, 64, 99
1, 259474, Note_on_c, 0, 67, 48
1, 259476, Control_c, 0, 64, 85
1, 259476, Control_c, 0, 67, 33
1, 259479, Note_on_c, 0, 51, 36
1, 259491, Note_on_c, 0, 60, 36
1, 259491, Control_c, 0, 64, 70
1, 259506, Control_c, 0, 64, 61
1, 259506, Control_c, 0, 67, 34
1, 259509, Note_on_c, 0, 55, 37
1, 259521, Control_c, 0, 64, 36
1, 259521, Control_c, 0, 67, 34
1, 259536, Control_c, 0, 64, 0
1, 259536, Control_c, 0, 67, 35
1, 259543, Note_off_c, 0, 80, 39
1, 259550, Control_c, 0, 67, 35
1, 259565, Control_c, 0, 67, 36
1, 259676, Control_c, 0, 64, 28
1, 259691, Control_c, 0, 64, 52
1, 259706, Control_c, 0, 64, 61
1, 259720, Control_c, 0, 64, 64
1, 259735, Control_c, 0, 64, 65
1, 259735, Control_c, 0, 67, 35
1, 259750, Control_c, 0, 64, 66
1, 259750, Control_c, 0, 67, 35
1, 259765, Control_c, 0, 64, 68
1, 259765, Control_c, 0, 67, 34
1, 259780, Control_c, 0, 64, 73
1, 259780, Control_c, 0, 67, 34
1, 259795, Control_c, 0, 64, 82
1, 259810, Control_c, 0, 64, 92
1, 259825, Control_c, 0, 64, 97
1, 259839, Control_c, 0, 64, 98
1, 259854, Control_c, 0, 64, 99
1, 259854, Control_c, 0, 67, 33
1, 259869, Control_c, 0, 64, 102
1, 259884, Control_c, 0, 64, 106
1, 259899, Control_c, 0, 64, 110
1, 259899, Control_c, 0, 67, 33
1, 259913, Control_c, 0, 64, 116
1, 259928, Control_c, 0, 64, 125
1, 259935, Note_off_c, 0, 60, 33
1, 259936, Note_off_c, 0, 51, 36
1, 259936, Note_off_c, 0, 55, 41
1, 259943, Control_c, 0, 64, 127
1, 260030, Note_off_c, 0, 67, 37
1, 260061, Control_c, 0, 67, 33
1, 260224, Control_c, 0, 67, 33
1, 260269, Control_c, 0, 64, 118
1, 260284, Control_c, 0, 64, 105
1, 260299, Control_c, 0, 64, 95
1, 260305, Note_on_c, 0, 77, 54
1, 260314, Control_c, 0, 64, 86
1, 260324, Note_on_c, 0, 59, 24
1, 260329, Control_c, 0, 64, 75
1, 260332, Note_on_c, 0, 65, 41
1, 260338, Note_on_c, 0, 55, 37
1, 260343, Control_c, 0, 64, 66
1, 260349, Note_on_c, 0, 50, 25
1, 260358, Control_c, 0, 64, 51
1, 260373, Control_c, 0, 64, 18
1, 260388, Control_c, 0, 64, 0
1, 260392, Note_off_c, 0, 79, 30
1, 260425, Control_c, 0, 67, 32
1, 260455, Control_c, 0, 64, 21
1, 260469, Control_c, 0, 64, 39
1, 260484, Control_c, 0, 64, 53
1, 260499, Control_c, 0, 64, 61
1, 260514, Control_c, 0, 64, 64
1, 260529, Control_c, 0, 64, 66
1, 260543, Control_c, 0, 64, 67
1, 260558, Control_c, 0, 64, 71
1, 260573, Control_c, 0, 64, 76
1, 260588, Control_c, 0, 64, 83
1, 260603, Control_c, 0, 64, 87
1, 260618, Control_c, 0, 64, 88
1, 260632, Control_c, 0, 64, 89
1, 260632, Control_c, 0, 67, 33
1, 260634, Note_off_c, 0, 50, 39
1, 260647, Control_c, 0, 64, 93
1, 260662, Control_c, 0, 64, 98
1, 260677, Control_c, 0, 64, 103
1, 260692, Control_c, 0, 64, 106
1, 260707, Control_c, 0, 64, 107
1, 260736, Control_c, 0, 67, 33
1, 260747, Note_off_c, 0, 55, 36
1, 260757, Note_off_c, 0, 59, 34
1, 260849, Note_off_c, 0, 65, 39
1, 260973, Control_c, 0, 67, 33
1, 261062, Control_c, 0, 64, 106
1, 261077, Control_c, 0, 64, 105
1, 261092, Control_c, 0, 64, 104
1, 261107, Control_c, 0, 64, 101
1, 261122, Control_c, 0, 64, 97
1, 261137, Control_c, 0, 64, 91
1, 261159, Control_c, 0, 64, 85
1, 261174, Control_c, 0, 64, 77
1, 261189, Control_c, 0, 64, 70
1, 261194, Note_on_c, 0, 63, 45
1, 261195, Note_on_c, 0, 48, 36
1, 261195, Note_on_c, 0, 75, 39
1, 261200, Note_on_c, 0, 60, 30
1, 261204, Control_c, 0, 64, 65
1, 261219, Control_c, 0, 64, 58
1, 261234, Control_c, 0, 64, 51
1, 261238, Note_on_c, 0, 55, 13
1, 261248, Control_c, 0, 64, 45
1, 261263, Control_c, 0, 64, 40
1, 261278, Control_c, 0, 64, 34
1, 261292, Control_c, 0, 64, 28
1, 261307, Control_c, 0, 64, 28
1, 261337, Control_c, 0, 64, 30
1, 261352, Control_c, 0, 64, 33
1, 261352, Control_c, 0, 67, 33
1, 261366, Control_c, 0, 64, 37
1, 261381, Control_c, 0, 64, 43
1, 261395, Note_off_c, 0, 77, 31
1, 261396, Control_c, 0, 64, 52
1, 261410, Control_c, 0, 64, 59
1, 261425, Control_c, 0, 64, 61
1, 261440, Control_c, 0, 64, 62
1, 261455, Control_c, 0, 64, 63
1, 261470, Control_c, 0, 64, 64
1, 261485, Control_c, 0, 64, 66
1, 261500, Control_c, 0, 64, 70
1, 261515, Control_c, 0, 64, 76
1, 261530, Control_c, 0, 64, 80
1, 261545, Control_c, 0, 64, 82
1, 261559, Control_c, 0, 64, 83
1, 261574, Control_c, 0, 64, 84
1, 261589, Control_c, 0, 64, 85
1, 261603, Control_c, 0, 64, 87
1, 261618, Control_c, 0, 64, 88
1, 261633, Control_c, 0, 64, 89
1, 261663, Control_c, 0, 64, 89
1, 261677, Control_c, 0, 64, 90
1, 261708, Note_off_c, 0, 55, 34
1, 261730, Note_off_c, 0, 60, 28
1, 261899, Note_off_c, 0, 48, 31
1, 262012, Control_c, 0, 67, 34
1, 262056, Control_c, 0, 64, 88
1, 262071, Control_c, 0, 64, 85
1, 262086, Control_c, 0, 64, 80
1, 262101, Control_c, 0, 64, 73
1, 262106, Note_on_c, 0, 53, 39
1, 262115, Control_c, 0, 64, 67
1, 262126, Note_off_c, 0, 63, 35
1, 262130, Control_c, 0, 64, 60
1, 262144, Note_off_c, 0, 75, 41
1, 262145, Control_c, 0, 64, 46
1, 262160, Control_c, 0, 64, 15
1, 262175, Control_c, 0, 64, 0
1, 262308, Control_c, 0, 67, 34
1, 263023, Note_on_c, 0, 74, 41
1, 263032, Note_on_c, 0, 68, 35
1, 263045, Note_off_c, 0, 53, 43
1, 263050, Note_on_c, 0, 65, 29
1, 263598, Control_c, 0, 67, 34
1, 263970, Note_on_c, 0, 43, 40
1, 263971, Note_off_c, 0, 74, 59
1, 263983, Note_on_c, 0, 31, 34
1, 264020, Note_off_c, 0, 65, 47
1, 264066, Note_off_c, 0, 68, 45
1, 264072, Control_c, 0, 67, 34
1, 264168, Control_c, 0, 67, 35
1, 264347, Control_c, 0, 67, 35
1, 264391, Control_c, 0, 67, 36
1, 264525, Control_c, 0, 67, 35
1, 265092, Note_off_c, 0, 31, 34
1, 265132, Note_on_c, 0, 59, 34
1, 265132, Note_off_c, 0, 43, 38
1, 265166, Note_on_c, 0, 53, 26
1, 265171, Note_on_c, 0, 50, 18
1, 265437, Control_c, 0, 64, 8
1, 265451, Control_c, 0, 64, 27
1, 265466, Control_c, 0, 64, 40
1, 265481, Control_c, 0, 64, 51
1, 265496, Control_c, 0, 64, 59
1, 265511, Control_c, 0, 64, 63
1, 265525, Control_c, 0, 64, 64
1, 265540, Control_c, 0, 64, 65
1, 265555, Control_c, 0, 64, 67
1, 265569, Control_c, 0, 64, 68
1, 265584, Control_c, 0, 64, 70
1, 265599, Control_c, 0, 64, 71
1, 265614, Control_c, 0, 64, 72
1, 265629, Control_c, 0, 64, 74
1, 265629, Control_c, 0, 67, 36
1, 265651, Control_c, 0, 64, 76
1, 265666, Control_c, 0, 64, 78
1, 265681, Control_c, 0, 64, 80
1, 265696, Control_c, 0, 64, 81
1, 265696, Control_c, 0, 67, 36
1, 265711, Control_c, 0, 64, 82
1, 265725, Control_c, 0, 64, 85
1, 265740, Control_c, 0, 64, 87
1, 265740, Control_c, 0, 67, 37
1, 265755, Control_c, 0, 64, 90
1, 265770, Control_c, 0, 64, 93
1, 265784, Control_c, 0, 64, 96
1, 265799, Control_c, 0, 64, 99
1, 265814, Control_c, 0, 64, 103
1, 265829, Control_c, 0, 64, 107
1, 265829, Control_c, 0, 67, 37
1, 265844, Control_c, 0, 64, 111
1, 265858, Control_c, 0, 64, 119
1, 265873, Control_c, 0, 64, 127
1, 265919, Control_c, 0, 67, 38
1, 265963, Control_c, 0, 67, 38
1, 265969, Note_off_c, 0, 53, 48
1, 265978, Control_c, 0, 67, 40
1, 265989, Note_off_c, 0, 59, 55
1, 265993, Control_c, 0, 67, 47
1, 266007, Control_c, 0, 67, 53
1, 266009, Note_off_c, 0, 50, 51
1, 266022, Control_c, 0, 67, 59
1, 266037, Control_c, 0, 67, 66
1, 266052, Control_c, 0, 67, 73
1, 266067, Control_c, 0, 67, 80
1, 266082, Control_c, 0, 67, 86
1, 266096, Control_c, 0, 67, 94
1, 266111, Control_c, 0, 67, 105
1, 266126, Control_c, 0, 67, 113
1, 266141, Control_c, 0, 67, 118
1, 266156, Control_c, 0, 67, 123
1, 266171, Control_c, 0, 67, 127
1, 266186, Control_c, 0, 67, 127
1, 266289, Control_c, 0, 64, 91
1, 266293, Note_on_c, 0, 36, 63
1, 266297, Note_on_c, 0, 60, 64
1, 266304, Control_c, 0, 64, 70
1, 266319, Control_c, 0, 64, 55
1, 266334, Control_c, 0, 64, 0
1, 266341, Note_off_c, 0, 36, 63
1, 266368, Note_on_c, 0, 48, 59
1, 266408, Note_off_c, 0, 48, 63
1, 266457, Note_on_c, 0, 36, 46
1, 266487, Note_off_c, 0, 36, 54
1, 266498, Note_on_c, 0, 48, 65
1, 266538, Note_off_c, 0, 48, 63
1, 266573, Note_on_c, 0, 36, 59
1, 266612, Note_off_c, 0, 36, 62
1, 266629, Note_on_c, 0, 48, 62
1, 266647, Note_off_c, 0, 60, 56
1, 266670, Note_off_c, 0, 48, 63
1, 266689, Note_on_c, 0, 58, 65
1, 266693, Note_on_c, 0, 64, 59
1, 266703, Note_on_c, 0, 36, 61
1, 266722, Note_off_c, 0, 58, 60
1, 266731, Note_off_c, 0, 36, 62
1, 266753, Note_off_c, 0, 64, 58
1, 266755, Note_on_c, 0, 48, 61
1, 266796, Note_off_c, 0, 48, 62
1, 266824, Note_on_c, 0, 65, 65
1, 266824, Note_on_c, 0, 36, 66
1, 266827, Note_on_c, 0, 56, 64
1, 266855, Note_off_c, 0, 56, 65
1, 266855, Note_off_c, 0, 65, 63
1, 266874, Note_off_c, 0, 36, 63
1, 266892, Note_on_c, 0, 48, 56
1, 266925, Note_off_c, 0, 48, 63
1, 266956, Note_on_c, 0, 67, 67
1, 266965, Note_on_c, 0, 36, 67
1, 266965, Note_on_c, 0, 64, 48
1, 266980, Note_off_c, 0, 67, 65
1, 266990, Note_off_c, 0, 64, 58
1, 266996, Note_off_c, 0, 36, 64
1, 267014, Note_on_c, 0, 48, 71
1, 267056, Note_off_c, 0, 48, 61
1, 267078, Note_on_c, 0, 36, 73
1, 267078, Note_on_c, 0, 68, 69
1, 267086, Note_on_c, 0, 65, 65
1, 267111, Note_off_c, 0, 65, 67
1, 267114, Note_off_c, 0, 68, 60
1, 267122, Note_off_c, 0, 36, 64
1, 267159, Note_on_c, 0, 48, 71
1, 267178, Control_c, 0, 67, 126
1, 267191, Note_off_c, 0, 48, 62
1, 267193, Control_c, 0, 67, 113
1, 267208, Note_on_c, 0, 71, 74
1, 267208, Control_c, 0, 67, 99
1, 267214, Note_on_c, 0, 36, 68
1, 267217, Note_on_c, 0, 62, 57
1, 267222, Control_c, 0, 67, 84
1, 267237, Control_c, 0, 67, 77
1, 267238, Note_off_c, 0, 62, 61
1, 267252, Control_c, 0, 67, 72
1, 267258, Note_off_c, 0, 36, 64
1, 267261, Note_off_c, 0, 71, 59
1, 267267, Control_c, 0, 67, 69
1, 267280, Note_on_c, 0, 48, 67
1, 267282, Control_c, 0, 67, 66
1, 267296, Control_c, 0, 67, 64
1, 267311, Control_c, 0, 67, 62
1, 267316, Note_off_c, 0, 48, 59
1, 267326, Control_c, 0, 67, 61
1, 267334, Note_on_c, 0, 72, 79
1, 267340, Note_on_c, 0, 63, 76
1, 267341, Note_on_c, 0, 36, 67
1, 267361, Note_off_c, 0, 63, 70
1, 267382, Note_off_c, 0, 36, 65
1, 267384, Note_off_c, 0, 72, 64
1, 267402, Note_on_c, 0, 48, 68
1, 267437, Note_off_c, 0, 48, 63
1, 267459, Control_c, 0, 64, 48
1, 267464, Note_on_c, 0, 36, 74
1, 267473, Note_on_c, 0, 64, 85
1, 267474, Note_on_c, 0, 72, 84
1, 267475, Control_c, 0, 64, 63
1, 267475, Control_c, 0, 67, 61
1, 267490, Control_c, 0, 64, 72
1, 267490, Control_c, 0, 67, 62
1, 267505, Control_c, 0, 64, 92
1, 267519, Control_c, 0, 64, 127
1, 267530, Note_off_c, 0, 36, 63
1, 267536, Note_on_c, 0, 48, 72
1, 267536, Note_off_c, 0, 64, 63
1, 267538, Note_off_c, 0, 72, 65
1, 267579, Control_c, 0, 67, 62
1, 267580, Note_off_c, 0, 48, 58
1, 267587, Note_on_c, 0, 36, 71
1, 267608, Control_c, 0, 67, 62
1, 267638, Control_c, 0, 67, 63
1, 267643, Note_off_c, 0, 36, 64
1, 267653, Control_c, 0, 64, 95
1, 267661, Note_on_c, 0, 48, 82
1, 267667, Control_c, 0, 64, 74
1, 267682, Control_c, 0, 64, 62
1, 267697, Control_c, 0, 64, 29
1, 267697, Control_c, 0, 67, 64
1, 267709, Note_off_c, 0, 48, 60
1, 267712, Control_c, 0, 64, 0
1, 267712, Control_c, 0, 67, 65
1, 267720, Note_on_c, 0, 36, 75
1, 267727, Control_c, 0, 67, 65
1, 267731, Note_on_c, 0, 70, 80
1, 267736, Note_on_c, 0, 76, 80
1, 267742, Control_c, 0, 67, 66
1, 267774, Note_off_c, 0, 36, 65
1, 267784, Note_off_c, 0, 70, 62
1, 267786, Note_on_c, 0, 48, 72
1, 267793, Note_off_c, 0, 76, 62
1, 267801, Control_c, 0, 67, 65
1, 267816, Control_c, 0, 67, 65
1, 267831, Control_c, 0, 67, 64
1, 267834, Note_off_c, 0, 48, 60
1, 267844, Note_on_c, 0, 36, 77
1, 267845, Control_c, 0, 67, 64
1, 267848, Note_on_c, 0, 77, 83
1, 267858, Note_on_c, 0, 68, 69
1, 267860, Control_c, 0, 67, 63
1, 267875, Note_off_c, 0, 68, 67
1, 267890, Control_c, 0, 67, 63
1, 267900, Note_off_c, 0, 77, 64
1, 267912, Note_off_c, 0, 36, 64
1, 267922, Note_on_c, 0, 48, 74
1, 267973, Note_on_c, 0, 36, 72
1, 267979, Note_on_c, 0, 79, 88
1, 267980, Note_off_c, 0, 48, 61
1, 267991, Note_on_c, 0, 76, 66
1, 268001, Control_c, 0, 64, 12
1, 268010, Note_off_c, 0, 76, 69
1, 268016, Control_c, 0, 64, 20
1, 268022, Note_off_c, 0, 79, 61
1, 268030, Note_off_c, 0, 36, 64
1, 268031, Control_c, 0, 64, 24
1, 268046, Control_c, 0, 64, 26
1, 268046, Note_on_c, 0, 48, 71
1, 268094, Note_off_c, 0, 48, 58
1, 268099, Note_on_c, 0, 36, 71
1, 268101, Note_on_c, 0, 80, 82
1, 268105, Control_c, 0, 64, 25
1, 268109, Note_on_c, 0, 77, 82
1, 268119, Control_c, 0, 64, 24
1, 268131, Note_off_c, 0, 77, 65
1, 268134, Control_c, 0, 64, 23
1, 268134, Control_c, 0, 67, 62
1, 268149, Control_c, 0, 67, 63
1, 268155, Note_off_c, 0, 36, 64
1, 268156, Note_off_c, 0, 80, 65
1, 268162, Note_on_c, 0, 48, 74
1, 268164, Control_c, 0, 64, 21
1, 268178, Control_c, 0, 64, 14
1, 268193, Control_c, 0, 64, 0
1, 268216, Note_off_c, 0, 48, 61
1, 268221, Note_on_c, 0, 36, 74
1, 268222, Note_on_c, 0, 83, 90
1, 268223, Control_c, 0, 67, 62
1, 268234, Note_on_c, 0, 74, 80
1, 268238, Control_c, 0, 67, 62
1, 268256, Note_off_c, 0, 74, 69
1, 268268, Control_c, 0, 67, 61
1, 268274, Note_off_c, 0, 83, 63
1, 268278, Note_off_c, 0, 36, 65
1, 268282, Note_on_c, 0, 48, 61
1, 268283, Control_c, 0, 67, 60
1, 268298, Control_c, 0, 67, 58
1, 268313, Control_c, 0, 67, 53
1, 268328, Control_c, 0, 67, 45
1, 268332, Note_off_c, 0, 48, 60
1, 268341, Note_on_c, 0, 36, 74
1, 268343, Control_c, 0, 67, 31
1, 268347, Note_on_c, 0, 84, 96
1, 268353, Note_on_c, 0, 75, 88
1, 268356, Note_on_c, 0, 72, 84
1, 268358, Control_c, 0, 67, 13
1, 268373, Control_c, 0, 67, 0
1, 268396, Note_off_c, 0, 36, 65
1, 268402, Control_c, 0, 64, 12
1, 268407, Note_on_c, 0, 48, 78
1, 268417, Control_c, 0, 64, 21
1, 268432, Control_c, 0, 64, 12
1, 268447, Control_c, 0, 64, 0
1, 268450, Note_off_c, 0, 48, 60
1, 268456, Note_on_c, 0, 36, 68
1, 268502, Note_off_c, 0, 36, 62
1, 268521, Note_off_c, 0, 72, 64
1, 268524, Note_off_c, 0, 75, 63
1, 268524, Note_off_c, 0, 84, 60
1, 268529, Note_on_c, 0, 48, 62
1, 268556, Note_off_c, 0, 48, 62
1, 268600, Note_on_c, 0, 34, 78
1, 268606, Note_on_c, 0, 84, 96
1, 268608, Note_on_c, 0, 75, 94
1, 268610, Note_on_c, 0, 72, 98
1, 268669, Note_on_c, 0, 46, 85
1, 268676, Control_c, 0, 64, 14
1, 268678, Note_off_c, 0, 34, 65
1, 268691, Control_c, 0, 64, 55
1, 268706, Control_c, 0, 64, 65
1, 268721, Control_c, 0, 64, 69
1, 268736, Note_off_c, 0, 46, 59
1, 268736, Control_c, 0, 64, 70
1, 268738, Note_on_c, 0, 34, 80
1, 268765, Control_c, 0, 64, 69
1, 268780, Control_c, 0, 64, 66
1, 268793, Note_off_c, 0, 84, 60
1, 268795, Note_off_c, 0, 72, 63
1, 268795, Control_c, 0, 64, 52
1, 268800, Note_off_c, 0, 34, 65
1, 268802, Note_off_c, 0, 75, 63
1, 268803, Note_on_c, 0, 46, 75
1, 268809, Control_c, 0, 64, 0
1, 268833, Note_off_c, 0, 46, 67
1, 268872, Note_on_c, 0, 32, 87
1, 268875, Note_on_c, 0, 84, 99
1, 268877, Note_on_c, 0, 75, 93
1, 268878, Note_on_c, 0, 72, 98
1, 268913, Control_c, 0, 64, 41
1, 268926, Note_on_c, 0, 44, 82
1, 268928, Control_c, 0, 64, 67
1, 268943, Control_c, 0, 64, 73
1, 268955, Note_off_c, 0, 32, 63
1, 268958, Control_c, 0, 64, 74
1, 268991, Poly_aftertouch_c, 0, 32, 0
1, 269000, Note_on_c, 0, 32, 71
1, 269002, Control_c, 0, 64, 73
1, 269004, Note_off_c, 0, 44, 64
1, 269017, Control_c, 0, 64, 66
1, 269032, Control_c, 0, 64, 29
1, 269047, Control_c, 0, 64, 0
1, 269057, Note_off_c, 0, 84, 60
1, 269060, Note_on_c, 0, 44, 70
1, 269068, Note_off_c, 0, 32, 61
1, 269071, Poly_aftertouch_c, 0, 81, 127
1, 269073, Note_off_c, 0, 72, 63
1, 269074, Note_off_c, 0, 75, 64
1, 269100, Poly_aftertouch_c, 0, 81, 0
1, 269106, Note_off_c, 0, 44, 63
1, 269127, Note_on_c, 0, 31, 90
1, 269135, Note_on_c, 0, 72, 100
1, 269137, Note_on_c, 0, 84, 102
1, 269140, Note_on_c, 0, 75, 89
1, 269152, Control_c, 0, 64, 44
1, 269166, Control_c, 0, 64, 87
1, 269168, Note_on_c, 0, 80, 49
1, 269181, Control_c, 0, 64, 127
1, 269182, Note_on_c, 0, 43, 82
1, 269190, Note_off_c, 0, 31, 63
1, 269194, Note_off_c, 0, 80, 58
1, 269229, Note_off_c, 0, 84, 67
1, 269231, Note_off_c, 0, 43, 60
1, 269237, Note_on_c, 0, 31, 75
1, 269240, Note_off_c, 0, 75, 68
1, 269256, Note_off_c, 0, 72, 63
1, 269273, Note_on_c, 0, 43, 57
1, 269304, Note_off_c, 0, 31, 61
1, 269319, Note_off_c, 0, 43, 62
1, 269406, Note_on_c, 0, 42, 103
1, 269406, Note_on_c, 0, 75, 102
1, 269406, Note_on_c, 0, 87, 100
1, 269411, Note_on_c, 0, 30, 94
1, 269414, Note_on_c, 0, 81, 84
1, 269415, Note_on_c, 0, 84, 69
1, 269426, Note_on_c, 0, 32, 67
1, 269428, Note_on_c, 0, 88, 78
1, 269440, Note_on_c, 0, 85, 52
1, 269440, Control_c, 0, 64, 64
1, 269453, Note_off_c, 0, 88, 60
1, 269453, Note_off_c, 0, 32, 55
1, 269455, Control_c, 0, 64, 0
1, 269466, Note_off_c, 0, 85, 36
1, 269468, Note_off_c, 0, 30, 65
1, 269488, Note_off_c, 0, 87, 62
1, 269493, Note_off_c, 0, 84, 65
1, 269495, Note_off_c, 0, 81, 62
1, 269495, Note_off_c, 0, 42, 63
1, 269524, Note_off_c, 0, 75, 62
1, 269545, Poly_aftertouch_c, 0, 43, 0
1, 269953, Note_on_c, 0, 63, 101
1, 269954, Note_on_c, 0, 66, 99
1, 269954, Note_on_c, 0, 75, 98
1, 269959, Note_on_c, 0, 69, 73
1, 269963, Note_on_c, 0, 54, 85
1, 269965, Note_on_c, 0, 72, 75
1, 269966, Note_on_c, 0, 57, 72
1, 269966, Note_on_c, 0, 60, 69
1, 269984, Note_on_c, 0, 55, 49
1, 269989, Control_c, 0, 64, 68
1, 270002, Note_on_c, 0, 61, 33
1, 270004, Control_c, 0, 64, 81
1, 270010, Note_off_c, 0, 55, 62
1, 270019, Control_c, 0, 64, 83
1, 270019, Note_off_c, 0, 54, 63
1, 270034, Control_c, 0, 64, 82
1, 270034, Note_off_c, 0, 57, 62
1, 270039, Note_off_c, 0, 61, 55
1, 270040, Note_off_c, 0, 63, 62
1, 270047, Note_off_c, 0, 60, 62
1, 270048, Control_c, 0, 64, 79
1, 270058, Note_off_c, 0, 66, 61
1, 270061, Note_off_c, 0, 72, 63
1, 270062, Note_off_c, 0, 69, 64
1, 270063, Control_c, 0, 64, 69
1, 270078, Control_c, 0, 64, 49
1, 270082, Note_off_c, 0, 75, 60
1, 270093, Control_c, 0, 64, 0
1, 270502, Note_on_c, 0, 67, 96
1, 270502, Note_on_c, 0, 79, 95
1, 270505, Note_on_c, 0, 63, 98
1, 270505, Note_on_c, 0, 75, 87
1, 270508, Note_on_c, 0, 72, 90
1, 270510, Note_on_c, 0, 60, 74
1, 270511, Note_on_c, 0, 55, 80
1, 270563, Note_off_c, 0, 79, 65
1, 270579, Note_off_c, 0, 55, 62
1, 270580, Note_off_c, 0, 63, 60
1, 270592, Note_off_c, 0, 60, 59
1, 270601, Note_off_c, 0, 72, 64
1, 270601, Note_off_c, 0, 75, 64
1, 270631, Poly_aftertouch_c, 0, 57, 0
1, 270636, Note_off_c, 0, 67, 58
1, 271062, Note_on_c, 0, 59, 92
1, 271064, Note_on_c, 0, 50, 97
1, 271069, Note_on_c, 0, 43, 106
1, 271071, Control_c, 0, 64, 53
1, 271072, Note_on_c, 0, 53, 89
1, 271073, Note_on_c, 0, 31, 88
1, 271074, Note_on_c, 0, 38, 80
1, 271074, Note_on_c, 0, 55, 79
1, 271076, Note_on_c, 0, 35, 75
1, 271082, Note_on_c, 0, 32, 72
1, 271086, Control_c, 0, 64, 63
1, 271101, Control_c, 0, 64, 65
1, 271104, Note_off_c, 0, 32, 67
1, 271116, Control_c, 0, 64, 63
1, 271120, Note_on_c, 0, 57, 36
1, 271120, Note_off_c, 0, 31, 64
1, 271131, Control_c, 0, 64, 52
1, 271145, Note_off_c, 0, 35, 64
1, 271145, Control_c, 0, 64, 0
1, 271146, Note_off_c, 0, 38, 64
1, 271151, Note_off_c, 0, 50, 60
1, 271153, Note_off_c, 0, 59, 61
1, 271155, Note_off_c, 0, 57, 52
1, 271161, Note_off_c, 0, 43, 61
1, 271179, Note_off_c, 0, 53, 65
1, 271185, Note_off_c, 0, 55, 62
1, 271630, Note_on_c, 0, 51, 104
1, 271639, Note_on_c, 0, 60, 87
1, 271641, Note_on_c, 0, 48, 108
1, 271644, Note_on_c, 0, 39, 80
1, 271646, Note_on_c, 0, 36, 94
1, 271647, Note_on_c, 0, 43, 83
1, 271647, Note_on_c, 0, 55, 82
1, 271680, Note_on_c, 0, 38, 54
1, 271692, Note_on_c, 0, 59, 40
1, 271769, Note_off_c, 0, 60, 61
1, 271770, Note_off_c, 0, 36, 62
1, 271786, Note_off_c, 0, 48, 55
1, 271786, Note_off_c, 0, 51, 58
1, 271795, Note_off_c, 0, 38, 36
1, 271805, Note_off_c, 0, 59, 40
1, 271808, Note_off_c, 0, 55, 59
1, 271817, Note_off_c, 0, 43, 58
1, 271821, Note_off_c, 0, 39, 60
1, 274156, Control_c, 0, 64, 8
1, 274171, Control_c, 0, 64, 14
1, 274186, Control_c, 0, 64, 18
1, 274201, Control_c, 0, 64, 20
1, 274215, Control_c, 0, 64, 21
1, 274230, Control_c, 0, 64, 23
1, 274245, Control_c, 0, 64, 23
1, 274260, Control_c, 0, 64, 24
1, 274275, Control_c, 0, 64, 25
1, 274304, Control_c, 0, 64, 26
1, 274319, Control_c, 0, 64, 26
1, 274348, Control_c, 0, 64, 27
1, 274363, Control_c, 0, 64, 28
1, 274393, Control_c, 0, 64, 28
1, 274437, Control_c, 0, 64, 29
1, 274482, Control_c, 0, 64, 29
1, 274497, Control_c, 0, 64, 30
1, 274526, Control_c, 0, 64, 31
1, 274556, Control_c, 0, 64, 31
1, 274601, Control_c, 0, 64, 32
1, 274615, Control_c, 0, 64, 32
1, 274652, Control_c, 0, 64, 33
1, 274682, Control_c, 0, 64, 33
1, 274697, Control_c, 0, 64, 34
1, 274741, Control_c, 0, 64, 34
1, 274860, Control_c, 0, 64, 35
1, 274919, Control_c, 0, 64, 35
1, 275023, Control_c, 0, 64, 36
1, 275052, Control_c, 0, 64, 36
1, 275082, Control_c, 0, 64, 37
1, 275097, Control_c, 0, 64, 37
1, 275126, Control_c, 0, 64, 38
1, 275230, Control_c, 0, 64, 38
1, 275668, Control_c, 0, 64, 38
1, 275772, Control_c, 0, 64, 38
1, 275979, Control_c, 0, 64, 39
1, 276269, Control_c, 0, 64, 39
1, 276328, Control_c, 0, 64, 40
1, 276342, Control_c, 0, 64, 40
1, 276357, Control_c, 0, 64, 41
1, 276372, Control_c, 0, 64, 41
1, 276387, Control_c, 0, 64, 42
1, 276402, Control_c, 0, 64, 42
1, 276416, Control_c, 0, 64, 43
1, 276446, Control_c, 0, 64, 44
1, 276535, Control_c, 0, 64, 44
1, 276683, Control_c, 0, 64, 44
1, 276698, Control_c, 0, 64, 43
1, 276713, Control_c, 0, 64, 42
1, 276727, Control_c, 0, 64, 41
1, 276742, Control_c, 0, 64, 40
1, 276757, Control_c, 0, 64, 39
1, 276772, Control_c, 0, 64, 38
1, 276787, Control_c, 0, 64, 36
1, 276801, Control_c, 0, 64, 34
1, 276816, Control_c, 0, 64, 31
1, 276831, Control_c, 0, 64, 27
1, 276846, Control_c, 0, 64, 24
1, 276861, Control_c, 0, 64, 21
1, 276883, Control_c, 0, 64, 12
1, 276898, Control_c, 0, 64, 0
1, 277329, Control_c, 0, 64, 12
1, 277343, Control_c, 0, 64, 44
1, 277358, Control_c, 0, 64, 51
1, 277373, Control_c, 0, 64, 55
1, 277388, Control_c, 0, 64, 58
1, 277403, Control_c, 0, 64, 60
1, 277418, Control_c, 0, 64, 62
1, 277432, Control_c, 0, 64, 63
1, 277447, Control_c, 0, 64, 64
1, 277462, Control_c, 0, 64, 66
1, 277477, Control_c, 0, 64, 68
1, 277492, Control_c, 0, 64, 70
1, 277506, Control_c, 0, 64, 74
1, 277521, Control_c, 0, 64, 78
1, 277536, Control_c, 0, 64, 82
1, 277536, Control_c, 0, 67, 12
1, 277550, Control_c, 0, 64, 85
1, 277550, Control_c, 0, 67, 26
1, 277565, Control_c, 0, 64, 88
1, 277565, Control_c, 0, 67, 38
1, 277580, Control_c, 0, 64, 90
1, 277580, Control_c, 0, 67, 48
1, 277595, Control_c, 0, 64, 92
1, 277595, Control_c, 0, 67, 56
1, 277610, Control_c, 0, 64, 95
1, 277610, Control_c, 0, 67, 64
1, 277633, Control_c, 0, 64, 98
1, 277633, Control_c, 0, 67, 72
1, 277647, Control_c, 0, 64, 100
1, 277647, Control_c, 0, 67, 78
1, 277662, Control_c, 0, 64, 103
1, 277662, Control_c, 0, 67, 82
1, 277677, Control_c, 0, 64, 104
1, 277677, Control_c, 0, 67, 86
1, 277692, Control_c, 0, 64, 106
1, 277692, Control_c, 0, 67, 89
1, 277707, Control_c, 0, 64, 107
1, 277707, Control_c, 0, 67, 90
1, 277722, Control_c, 0, 64, 110
1, 277737, Control_c, 0, 64, 115
1, 277752, Control_c, 0, 64, 127
1, 277752, Control_c, 0, 67, 89
1, 277766, Control_c, 0, 67, 87
1, 277781, Control_c, 0, 67, 86
1, 277796, Control_c, 0, 67, 85
1, 277811, Control_c, 0, 67, 83
1, 277826, Control_c, 0, 67, 81
1, 277840, Control_c, 0, 67, 81
1, 277856, Control_c, 0, 67, 80
1, 277871, Control_c, 0, 67, 79
1, 277960, Control_c, 0, 67, 78
1, 278249, Note_on_c, 0, 60, 59
1, 278268, Note_on_c, 0, 44, 36
1, 278288, Note_on_c, 0, 56, 34
1, 278441, Control_c, 0, 67, 79
1, 278470, Control_c, 0, 67, 79
1, 278485, Control_c, 0, 67, 80
1, 278500, Control_c, 0, 67, 80
1, 278515, Control_c, 0, 67, 81
1, 278545, Control_c, 0, 67, 81
1, 278560, Control_c, 0, 67, 82
1, 278589, Control_c, 0, 67, 82
1, 278604, Control_c, 0, 67, 83
1, 278619, Control_c, 0, 67, 83
1, 278634, Control_c, 0, 67, 84
1, 278694, Control_c, 0, 67, 84
1, 278753, Note_on_c, 0, 51, 33
1, 278887, Note_off_c, 0, 56, 40
1, 278975, Control_c, 0, 67, 85
1, 279093, Control_c, 0, 67, 85
1, 279094, Note_on_c, 0, 56, 37
1, 279253, Note_off_c, 0, 51, 40
1, 279461, Note_on_c, 0, 51, 36
1, 279569, Note_off_c, 0, 56, 37
1, 279815, Note_on_c, 0, 58, 59
1, 279827, Note_on_c, 0, 49, 43
1, 279856, Note_on_c, 0, 55, 37
1, 279856, Control_c, 0, 64, 113
1, 279871, Control_c, 0, 64, 92
1, 279892, Control_c, 0, 64, 78
1, 279907, Control_c, 0, 64, 68
1, 279922, Control_c, 0, 64, 61
1, 279937, Control_c, 0, 64, 45
1, 279952, Control_c, 0, 64, 0
1, 279981, Note_off_c, 0, 44, 41
1, 279990, Note_off_c, 0, 51, 41
1, 280041, Control_c, 0, 64, 12
1, 280056, Control_c, 0, 64, 20
1, 280071, Control_c, 0, 64, 26
1, 280085, Control_c, 0, 64, 35
1, 280100, Control_c, 0, 64, 44
1, 280115, Control_c, 0, 64, 50
1, 280123, Note_off_c, 0, 60, 25
1, 280130, Control_c, 0, 64, 55
1, 280145, Control_c, 0, 64, 58
1, 280159, Control_c, 0, 64, 59
1, 280174, Control_c, 0, 64, 60
1, 280189, Control_c, 0, 64, 62
1, 280190, Note_on_c, 0, 51, 33
1, 280204, Control_c, 0, 64, 63
1, 280219, Control_c, 0, 64, 63
1, 280233, Control_c, 0, 64, 64
1, 280235, Note_off_c, 0, 55, 41
1, 280249, Control_c, 0, 64, 66
1, 280264, Control_c, 0, 64, 68
1, 280279, Control_c, 0, 64, 71
1, 280294, Control_c, 0, 64, 74
1, 280308, Control_c, 0, 64, 77
1, 280323, Control_c, 0, 64, 79
1, 280338, Control_c, 0, 64, 81
1, 280353, Control_c, 0, 64, 83
1, 280368, Control_c, 0, 64, 85
1, 280382, Control_c, 0, 64, 87
1, 280397, Control_c, 0, 64, 89
1, 280412, Control_c, 0, 64, 90
1, 280427, Control_c, 0, 64, 91
1, 280442, Control_c, 0, 64, 92
1, 280456, Control_c, 0, 64, 93
1, 280471, Control_c, 0, 64, 93
1, 280565, Note_on_c, 0, 55, 28
1, 280692, Note_off_c, 0, 51, 34
1, 280879, Control_c, 0, 64, 93
1, 280920, Note_on_c, 0, 51, 36
1, 280923, Control_c, 0, 64, 92
1, 280985, Note_off_c, 0, 55, 42
1, 281043, Control_c, 0, 64, 92
1, 281132, Control_c, 0, 64, 91
1, 281177, Control_c, 0, 64, 91
1, 281206, Control_c, 0, 64, 90
1, 281221, Control_c, 0, 64, 90
1, 281236, Control_c, 0, 64, 89
1, 281251, Control_c, 0, 64, 88
1, 281266, Control_c, 0, 64, 87
1, 281278, Note_on_c, 0, 63, 63
1, 281280, Control_c, 0, 64, 85
1, 281295, Control_c, 0, 64, 81
1, 281301, Note_on_c, 0, 48, 48
1, 281308, Note_on_c, 0, 56, 41
1, 281310, Control_c, 0, 64, 76
1, 281324, Control_c, 0, 64, 69
1, 281339, Control_c, 0, 64, 63
1, 281354, Control_c, 0, 64, 55
1, 281356, Note_off_c, 0, 51, 54
1, 281376, Control_c, 0, 64, 40
1, 281380, Note_off_c, 0, 49, 34
1, 281391, Control_c, 0, 64, 15
1, 281405, Control_c, 0, 64, 0
1, 281421, Note_off_c, 0, 58, 36
1, 281479, Control_c, 0, 64, 10
1, 281494, Control_c, 0, 64, 19
1, 281509, Control_c, 0, 64, 26
1, 281524, Control_c, 0, 64, 33
1, 281538, Control_c, 0, 64, 40
1, 281553, Control_c, 0, 64, 46
1, 281568, Control_c, 0, 64, 50
1, 281583, Control_c, 0, 64, 54
1, 281598, Control_c, 0, 64, 57
1, 281612, Control_c, 0, 64, 59
1, 281627, Control_c, 0, 64, 60
1, 281642, Control_c, 0, 64, 61
1, 281657, Control_c, 0, 64, 62
1, 281666, Note_on_c, 0, 51, 42
1, 281672, Control_c, 0, 64, 63
1, 281687, Control_c, 0, 64, 65
1, 281693, Note_off_c, 0, 56, 52
1, 281702, Control_c, 0, 64, 66
1, 281716, Control_c, 0, 64, 67
1, 281731, Control_c, 0, 64, 69
1, 281746, Control_c, 0, 64, 71
1, 281761, Control_c, 0, 64, 72
1, 281776, Control_c, 0, 64, 74
1, 281791, Control_c, 0, 64, 76
1, 281805, Control_c, 0, 64, 77
1, 281820, Control_c, 0, 64, 78
1, 281835, Control_c, 0, 64, 78
1, 281851, Control_c, 0, 64, 79
1, 281880, Control_c, 0, 64, 79
1, 282058, Note_on_c, 0, 56, 39
1, 282143, Note_off_c, 0, 51, 35
1, 282228, Control_c, 0, 67, 85
1, 282287, Control_c, 0, 64, 79
1, 282346, Control_c, 0, 64, 78
1, 282406, Control_c, 0, 67, 84
1, 282418, Note_on_c, 0, 51, 34
1, 282421, Control_c, 0, 64, 78
1, 282584, Control_c, 0, 64, 77
1, 282628, Control_c, 0, 64, 77
1, 282658, Control_c, 0, 64, 76
1, 282688, Control_c, 0, 64, 76
1, 282718, Control_c, 0, 64, 75
1, 282733, Control_c, 0, 64, 74
1, 282748, Control_c, 0, 64, 73
1, 282763, Control_c, 0, 64, 72
1, 282777, Control_c, 0, 64, 70
1, 282787, Note_on_c, 0, 58, 39
1, 282792, Control_c, 0, 64, 67
1, 282795, Note_on_c, 0, 43, 54
1, 282807, Control_c, 0, 64, 64
1, 282822, Control_c, 0, 64, 57
1, 282837, Control_c, 0, 64, 50
1, 282851, Control_c, 0, 64, 42
1, 282857, Note_off_c, 0, 51, 37
1, 282873, Control_c, 0, 64, 34
1, 282888, Control_c, 0, 64, 26
1, 282903, Control_c, 0, 64, 17
1, 282918, Control_c, 0, 64, 0
1, 282927, Note_off_c, 0, 48, 39
1, 282962, Control_c, 0, 67, 84
1, 283051, Control_c, 0, 67, 83
1, 283066, Control_c, 0, 67, 83
1, 283110, Control_c, 0, 64, 10
1, 283125, Control_c, 0, 64, 27
1, 283125, Control_c, 0, 67, 82
1, 283140, Control_c, 0, 64, 40
1, 283155, Control_c, 0, 64, 51
1, 283165, Note_on_c, 0, 51, 32
1, 283169, Control_c, 0, 64, 57
1, 283184, Control_c, 0, 64, 61
1, 283199, Control_c, 0, 64, 63
1, 283213, Note_off_c, 0, 56, 31
1, 283214, Control_c, 0, 64, 64
1, 283229, Control_c, 0, 64, 66
1, 283243, Control_c, 0, 64, 68
1, 283258, Control_c, 0, 64, 71
1, 283273, Control_c, 0, 64, 74
1, 283273, Control_c, 0, 67, 82
1, 283288, Control_c, 0, 64, 77
1, 283302, Control_c, 0, 64, 79
1, 283314, Note_off_c, 0, 58, 36
1, 283317, Control_c, 0, 64, 81
1, 283332, Control_c, 0, 64, 82
1, 283347, Control_c, 0, 64, 83
1, 283362, Control_c, 0, 64, 84
1, 283377, Control_c, 0, 64, 84
1, 283529, Note_on_c, 0, 61, 58
1, 283554, Note_on_c, 0, 58, 44
1, 283556, Control_c, 0, 67, 81
1, 283571, Control_c, 0, 67, 80
1, 283585, Control_c, 0, 67, 79
1, 283600, Control_c, 0, 67, 78
1, 283615, Control_c, 0, 67, 77
1, 283637, Control_c, 0, 67, 77
1, 283650, Note_off_c, 0, 51, 40
1, 283652, Control_c, 0, 67, 75
1, 283667, Control_c, 0, 67, 68
1, 283681, Control_c, 0, 67, 56
1, 283696, Control_c, 0, 67, 38
1, 283711, Control_c, 0, 67, 22
1, 283726, Control_c, 0, 67, 0
1, 283931, Note_on_c, 0, 51, 42
1, 283959, Note_off_c, 0, 58, 31
1, 284170, Control_c, 0, 64, 84
1, 284214, Control_c, 0, 64, 83
1, 284245, Control_c, 0, 64, 83
1, 284260, Control_c, 0, 64, 82
1, 284275, Control_c, 0, 64, 81
1, 284280, Note_on_c, 0, 60, 57
1, 284289, Control_c, 0, 64, 79
1, 284304, Control_c, 0, 64, 76
1, 284305, Note_on_c, 0, 56, 45
1, 284315, Note_on_c, 0, 44, 42
1, 284319, Control_c, 0, 64, 72
1, 284330, Note_off_c, 0, 61, 29
1, 284334, Control_c, 0, 64, 67
1, 284349, Control_c, 0, 64, 62
1, 284359, Note_off_c, 0, 51, 35
1, 284364, Control_c, 0, 64, 54
1, 284387, Control_c, 0, 64, 36
1, 284402, Control_c, 0, 64, 0
1, 284465, Note_off_c, 0, 63, 33
1, 284478, Note_off_c, 0, 43, 32
1, 284505, Control_c, 0, 64, 18
1, 284520, Control_c, 0, 64, 37
1, 284535, Control_c, 0, 64, 49
1, 284549, Control_c, 0, 64, 57
1, 284564, Control_c, 0, 64, 61
1, 284579, Control_c, 0, 64, 63
1, 284594, Control_c, 0, 64, 64
1, 284609, Control_c, 0, 64, 65
1, 284623, Control_c, 0, 64, 67
1, 284638, Control_c, 0, 64, 70
1, 284653, Control_c, 0, 64, 73
1, 284667, Note_on_c, 0, 51, 31
1, 284668, Control_c, 0, 64, 76
1, 284682, Control_c, 0, 64, 78
1, 284697, Control_c, 0, 64, 81
1, 284712, Control_c, 0, 64, 82
1, 284716, Note_off_c, 0, 56, 36
1, 284727, Control_c, 0, 64, 84
1, 284742, Control_c, 0, 64, 84
1, 284757, Control_c, 0, 64, 85
1, 284994, Control_c, 0, 64, 84
1, 285001, Note_on_c, 0, 63, 64
1, 285009, Control_c, 0, 64, 81
1, 285022, Note_on_c, 0, 58, 51
1, 285023, Control_c, 0, 64, 75
1, 285029, Note_on_c, 0, 43, 57
1, 285039, Control_c, 0, 64, 68
1, 285054, Control_c, 0, 64, 61
1, 285058, Note_off_c, 0, 51, 41
1, 285069, Control_c, 0, 64, 42
1, 285084, Control_c, 0, 64, 0
1, 285120, Control_c, 0, 64, 20
1, 285130, Note_off_c, 0, 44, 36
1, 285135, Control_c, 0, 64, 36
1, 285150, Control_c, 0, 64, 48
1, 285165, Control_c, 0, 64, 56
1, 285179, Control_c, 0, 64, 61
1, 285194, Control_c, 0, 64, 63
1, 285209, Control_c, 0, 64, 64
1, 285224, Control_c, 0, 64, 66
1, 285239, Control_c, 0, 64, 67
1, 285253, Control_c, 0, 64, 69
1, 285261, Note_off_c, 0, 60, 30
1, 285268, Control_c, 0, 64, 71
1, 285283, Control_c, 0, 64, 74
1, 285297, Control_c, 0, 64, 77
1, 285312, Control_c, 0, 64, 79
1, 285327, Control_c, 0, 64, 79
1, 285342, Control_c, 0, 64, 80
1, 285357, Control_c, 0, 64, 80
1, 285384, Note_on_c, 0, 51, 33
1, 285386, Control_c, 0, 64, 81
1, 285452, Note_off_c, 0, 58, 36
1, 285530, Note_off_c, 0, 51, 58
1, 285727, Control_c, 0, 64, 80
1, 285739, Note_on_c, 0, 68, 67
1, 285742, Control_c, 0, 64, 78
1, 285757, Control_c, 0, 64, 75
1, 285764, Note_on_c, 0, 41, 47
1, 285766, Note_on_c, 0, 60, 45
1, 285771, Control_c, 0, 64, 70
1, 285786, Control_c, 0, 64, 64
1, 285798, Note_off_c, 0, 63, 60
1, 285801, Control_c, 0, 64, 56
1, 285815, Control_c, 0, 64, 29
1, 285830, Control_c, 0, 64, 0
1, 285882, Note_off_c, 0, 43, 31
1, 285928, Control_c, 0, 64, 19
1, 285943, Control_c, 0, 64, 47
1, 285958, Control_c, 0, 64, 58
1, 285973, Control_c, 0, 64, 63
1, 285988, Control_c, 0, 64, 64
1, 286002, Control_c, 0, 64, 65
1, 286017, Control_c, 0, 64, 66
1, 286032, Control_c, 0, 64, 67
1, 286046, Control_c, 0, 64, 69
1, 286061, Control_c, 0, 64, 72
1, 286076, Control_c, 0, 64, 75
1, 286091, Control_c, 0, 64, 76
1, 286106, Control_c, 0, 64, 77
1, 286120, Control_c, 0, 64, 78
1, 286135, Control_c, 0, 64, 79
1, 286150, Control_c, 0, 64, 79
1, 286152, Note_on_c, 0, 56, 42
1, 286165, Control_c, 0, 64, 80
1, 286180, Control_c, 0, 64, 80
1, 286197, Note_off_c, 0, 60, 49
1, 286209, Control_c, 0, 64, 81
1, 286446, Control_c, 0, 64, 80
1, 286461, Control_c, 0, 64, 80
1, 286476, Control_c, 0, 64, 79
1, 286491, Control_c, 0, 64, 78
1, 286506, Control_c, 0, 64, 76
1, 286510, Note_on_c, 0, 70, 65
1, 286521, Control_c, 0, 64, 74
1, 286536, Control_c, 0, 64, 69
1, 286538, Note_on_c, 0, 53, 37
1, 286545, Note_on_c, 0, 62, 41
1, 286551, Control_c, 0, 64, 63
1, 286566, Control_c, 0, 64, 52
1, 286569, Note_off_c, 0, 56, 56
1, 286581, Control_c, 0, 64, 27
1, 286595, Control_c, 0, 64, 0
1, 286623, Note_off_c, 0, 41, 32
1, 286692, Control_c, 0, 64, 19
1, 286707, Control_c, 0, 64, 42
1, 286722, Control_c, 0, 64, 53
1, 286737, Control_c, 0, 64, 59
1, 286742, Note_off_c, 0, 68, 45
1, 286751, Control_c, 0, 64, 62
1, 286766, Control_c, 0, 64, 63
1, 286781, Control_c, 0, 64, 63
1, 286796, Control_c, 0, 64, 65
1, 286811, Control_c, 0, 64, 66
1, 286826, Control_c, 0, 64, 68
1, 286841, Control_c, 0, 64, 70
1, 286855, Control_c, 0, 64, 72
1, 286870, Control_c, 0, 64, 73
1, 286885, Control_c, 0, 64, 75
1, 286900, Control_c, 0, 64, 76
1, 286930, Control_c, 0, 64, 76
1, 286950, Note_on_c, 0, 56, 31
1, 286959, Control_c, 0, 64, 77
1, 287062, Control_c, 0, 67, 12
1, 287077, Control_c, 0, 67, 18
1, 287092, Control_c, 0, 67, 22
1, 287107, Note_off_c, 0, 56, 37
1, 287107, Control_c, 0, 67, 25
1, 287122, Control_c, 0, 67, 26
1, 287137, Control_c, 0, 67, 27
1, 287240, Control_c, 0, 64, 76
1, 287270, Control_c, 0, 64, 76
1, 287315, Control_c, 0, 64, 75
1, 287344, Control_c, 0, 64, 75
1, 287359, Control_c, 0, 64, 74
1, 287382, Control_c, 0, 64, 73
1, 287393, Note_on_c, 0, 63, 56
1, 287396, Control_c, 0, 64, 71
1, 287411, Control_c, 0, 64, 69
1, 287419, Note_on_c, 0, 55, 38
1, 287426, Control_c, 0, 64, 67
1, 287439, Note_on_c, 0, 51, 35
1, 287441, Control_c, 0, 64, 64
1, 287457, Control_c, 0, 64, 61
1, 287457, Control_c, 0, 67, 27
1, 287472, Control_c, 0, 64, 56
1, 287478, Note_off_c, 0, 62, 42
1, 287487, Control_c, 0, 64, 51
1, 287487, Control_c, 0, 67, 28
1, 287501, Control_c, 0, 64, 45
1, 287516, Control_c, 0, 64, 40
1, 287531, Control_c, 0, 64, 36
1, 287546, Control_c, 0, 64, 31
1, 287561, Control_c, 0, 64, 23
1, 287575, Control_c, 0, 64, 0
1, 287580, Note_off_c, 0, 53, 36
1, 287589, Note_off_c, 0, 70, 36
1, 287620, Control_c, 0, 67, 28
1, 287664, Control_c, 0, 67, 29
1, 287693, Control_c, 0, 67, 30
1, 287708, Control_c, 0, 67, 32
1, 287723, Control_c, 0, 64, 10
1, 287723, Control_c, 0, 67, 34
1, 287738, Control_c, 0, 64, 19
1, 287738, Control_c, 0, 67, 35
1, 287753, Control_c, 0, 64, 27
1, 287753, Control_c, 0, 67, 35
1, 287768, Control_c, 0, 64, 36
1, 287768, Control_c, 0, 67, 36
1, 287783, Control_c, 0, 64, 45
1, 287783, Control_c, 0, 67, 36
1, 287797, Control_c, 0, 64, 53
1, 287797, Control_c, 0, 67, 37
1, 287812, Control_c, 0, 64, 57
1, 287812, Control_c, 0, 67, 38
1, 287827, Control_c, 0, 64, 59
1, 287827, Control_c, 0, 67, 39
1, 287833, Note_on_c, 0, 58, 35
1, 287842, Control_c, 0, 64, 60
1, 287842, Control_c, 0, 67, 40
1, 287857, Control_c, 0, 64, 62
1, 287857, Control_c, 0, 67, 42
1, 287872, Control_c, 0, 64, 63
1, 287872, Control_c, 0, 67, 44
1, 287886, Control_c, 0, 64, 64
1, 287886, Control_c, 0, 67, 45
1, 287901, Control_c, 0, 64, 65
1, 287901, Control_c, 0, 67, 47
1, 287916, Control_c, 0, 64, 66
1, 287916, Control_c, 0, 67, 49
1, 287923, Note_off_c, 0, 55, 41
1, 287931, Control_c, 0, 64, 67
1, 287931, Control_c, 0, 67, 52
1, 287946, Control_c, 0, 64, 68
1, 287946, Control_c, 0, 67, 54
1, 287960, Control_c, 0, 64, 70
1, 287960, Control_c, 0, 67, 55
1, 287975, Control_c, 0, 64, 71
1, 287975, Control_c, 0, 67, 57
1, 287990, Control_c, 0, 64, 72
1, 287990, Control_c, 0, 67, 58
1, 288005, Control_c, 0, 64, 73
1, 288005, Control_c, 0, 67, 59
1, 288019, Control_c, 0, 64, 74
1, 288019, Control_c, 0, 67, 60
1, 288034, Control_c, 0, 64, 75
1, 288034, Control_c, 0, 67, 62
1, 288049, Control_c, 0, 67, 63
1, 288064, Control_c, 0, 64, 75
1, 288064, Control_c, 0, 67, 64
1, 288079, Control_c, 0, 67, 66
1, 288093, Control_c, 0, 67, 68
1, 288108, Control_c, 0, 67, 69
1, 288131, Control_c, 0, 67, 72
1, 288146, Control_c, 0, 67, 74
1, 288161, Control_c, 0, 67, 76
1, 288175, Control_c, 0, 67, 78
1, 288190, Control_c, 0, 67, 80
1, 288191, Note_on_c, 0, 55, 38
1, 288200, Note_off_c, 0, 58, 40
1, 288205, Control_c, 0, 67, 82
1, 288219, Control_c, 0, 67, 83
1, 288234, Control_c, 0, 67, 84
1, 288251, Control_c, 0, 67, 84
1, 288265, Control_c, 0, 67, 85
1, 288413, Control_c, 0, 64, 75
1, 288472, Control_c, 0, 64, 74
1, 288533, Note_on_c, 0, 58, 31
1, 288561, Control_c, 0, 64, 74
1, 288577, Note_off_c, 0, 55, 42
1, 288695, Control_c, 0, 64, 73
1, 288769, Control_c, 0, 64, 73
1, 288842, Control_c, 0, 64, 72
1, 288880, Control_c, 0, 64, 72
1, 288897, Note_on_c, 0, 55, 37
1, 288898, Note_on_c, 0, 39, 43
1, 288909, Control_c, 0, 64, 71
1, 288909, Control_c, 0, 67, 84
1, 288924, Control_c, 0, 64, 70
1, 288939, Control_c, 0, 64, 69
1, 288954, Control_c, 0, 64, 68
1, 288961, Note_off_c, 0, 58, 34
1, 288969, Control_c, 0, 64, 66
1, 288984, Control_c, 0, 64, 63
1, 288998, Control_c, 0, 64, 60
1, 289013, Control_c, 0, 64, 59
1, 289043, Control_c, 0, 64, 59
1, 289058, Control_c, 0, 64, 60
1, 289073, Control_c, 0, 64, 60
1, 289073, Control_c, 0, 67, 84
1, 289088, Control_c, 0, 64, 61
1, 289103, Control_c, 0, 64, 62
1, 289118, Control_c, 0, 64, 63
1, 289133, Control_c, 0, 64, 64
1, 289147, Control_c, 0, 64, 65
1, 289162, Control_c, 0, 64, 66
1, 289162, Control_c, 0, 67, 83
1, 289177, Control_c, 0, 64, 66
1, 289177, Control_c, 0, 67, 83
1, 289192, Control_c, 0, 64, 67
1, 289207, Control_c, 0, 64, 68
1, 289221, Control_c, 0, 64, 69
1, 289221, Control_c, 0, 67, 82
1, 289236, Control_c, 0, 64, 70
1, 289236, Control_c, 0, 67, 82
1, 289243, Note_on_c, 0, 58, 37
1, 289251, Control_c, 0, 64, 71
1, 289265, Control_c, 0, 64, 72
1, 289265, Control_c, 0, 67, 81
1, 289280, Control_c, 0, 64, 73
1, 289280, Control_c, 0, 67, 81
1, 289295, Control_c, 0, 64, 74
1, 289299, Note_off_c, 0, 51, 0
1, 289310, Control_c, 0, 64, 75
1, 289310, Control_c, 0, 67, 80
1, 289311, Note_off_c, 0, 55, 42
1, 289325, Control_c, 0, 64, 75
1, 289325, Control_c, 0, 67, 80
1, 289336, Poly_aftertouch_c, 0, 51, 127
1, 289339, Control_c, 0, 64, 76
1, 289339, Control_c, 0, 67, 79
1, 289354, Control_c, 0, 64, 77
1, 289354, Control_c, 0, 67, 78
1, 289369, Control_c, 0, 64, 77
1, 289384, Control_c, 0, 64, 78
1, 289384, Control_c, 0, 67, 77
1, 289399, Control_c, 0, 64, 79
1, 289399, Control_c, 0, 67, 77
1, 289413, Control_c, 0, 64, 79
1, 289428, Control_c, 0, 64, 80
1, 289443, Control_c, 0, 64, 80
1, 289598, Note_on_c, 0, 64, 62
1, 289637, Note_off_c, 0, 58, 42
1, 289646, Note_on_c, 0, 55, 36
1, 289652, Poly_aftertouch_c, 0, 51, 0
1, 289746, Control_c, 0, 67, 76
1, 289776, Control_c, 0, 67, 76
1, 289940, Control_c, 0, 64, 80
1, 289973, Note_off_c, 0, 55, 41
1, 289980, Note_on_c, 0, 58, 35
1, 289984, Control_c, 0, 64, 79
1, 290029, Control_c, 0, 64, 79
1, 290087, Control_c, 0, 67, 76
1, 290090, Note_off_c, 0, 63, 10
1, 290161, Control_c, 0, 64, 78
1, 290161, Control_c, 0, 67, 77
1, 290236, Control_c, 0, 64, 78
1, 290281, Control_c, 0, 64, 77
1, 290310, Control_c, 0, 64, 77
1, 290325, Control_c, 0, 64, 76
1, 290334, Note_on_c, 0, 65, 67
1, 290340, Control_c, 0, 64, 76
1, 290355, Control_c, 0, 64, 74
1, 290355, Note_on_c, 0, 37, 43
1, 290376, Control_c, 0, 64, 72
1, 290379, Note_off_c, 0, 58, 37
1, 290379, Note_on_c, 0, 55, 38
1, 290391, Control_c, 0, 64, 69
1, 290391, Control_c, 0, 67, 77
1, 290406, Control_c, 0, 64, 65
1, 290421, Control_c, 0, 64, 62
1, 290430, Note_off_c, 0, 39, 41
1, 290433, Note_off_c, 0, 64, 32
1, 290436, Control_c, 0, 64, 56
1, 290450, Control_c, 0, 64, 50
1, 290465, Control_c, 0, 64, 40
1, 290480, Control_c, 0, 64, 20
1, 290495, Control_c, 0, 64, 0
1, 290555, Control_c, 0, 67, 78
1, 290644, Control_c, 0, 64, 28
1, 290659, Control_c, 0, 64, 42
1, 290674, Control_c, 0, 64, 51
1, 290689, Control_c, 0, 64, 56
1, 290704, Control_c, 0, 64, 58
1, 290718, Control_c, 0, 64, 60
1, 290726, Note_on_c, 0, 58, 35
1, 290733, Control_c, 0, 64, 61
1, 290748, Control_c, 0, 64, 62
1, 290760, Note_off_c, 0, 55, 41
1, 290763, Control_c, 0, 64, 63
1, 290778, Control_c, 0, 64, 63
1, 290792, Control_c, 0, 64, 64
1, 290807, Control_c, 0, 64, 65
1, 290807, Control_c, 0, 67, 77
1, 290822, Control_c, 0, 64, 66
1, 290836, Control_c, 0, 64, 66
1, 290851, Control_c, 0, 64, 67
1, 290866, Control_c, 0, 64, 68
1, 290866, Control_c, 0, 67, 77
1, 290881, Control_c, 0, 64, 69
1, 290896, Control_c, 0, 64, 69
1, 290910, Control_c, 0, 64, 70
1, 290925, Control_c, 0, 64, 71
1, 290940, Control_c, 0, 64, 71
1, 290955, Control_c, 0, 64, 72
1, 290970, Control_c, 0, 64, 72
1, 290984, Control_c, 0, 64, 73
1, 290999, Control_c, 0, 64, 73
1, 291014, Control_c, 0, 64, 74
1, 291029, Control_c, 0, 64, 74
1, 291044, Control_c, 0, 64, 75
1, 291073, Control_c, 0, 64, 75
1, 291079, Note_off_c, 0, 58, 37
1, 291079, Note_on_c, 0, 55, 36
1, 291088, Control_c, 0, 64, 76
1, 291104, Control_c, 0, 64, 76
1, 291141, Control_c, 0, 64, 77
1, 291156, Control_c, 0, 64, 77
1, 291156, Control_c, 0, 67, 77
1, 291186, Control_c, 0, 64, 78
1, 291230, Control_c, 0, 64, 78
1, 291274, Control_c, 0, 67, 78
1, 291431, Note_on_c, 0, 58, 37
1, 291522, Note_off_c, 0, 65, 34
1, 291525, Note_off_c, 0, 55, 38
1, 291616, Control_c, 0, 67, 78
1, 291623, Note_off_c, 0, 58, 37
1, 291690, Control_c, 0, 67, 79
1, 291764, Control_c, 0, 64, 78
1, 291779, Control_c, 0, 64, 77
1, 291794, Control_c, 0, 64, 76
1, 291801, Note_on_c, 0, 58, 56
1, 291808, Control_c, 0, 64, 75
1, 291823, Control_c, 0, 64, 73
1, 291832, Note_on_c, 0, 55, 37
1, 291838, Control_c, 0, 64, 70
1, 291845, Note_on_c, 0, 49, 32
1, 291853, Control_c, 0, 64, 67
1, 291853, Control_c, 0, 67, 79
1, 291875, Control_c, 0, 64, 64
1, 291890, Control_c, 0, 64, 61
1, 291905, Control_c, 0, 64, 58
1, 291920, Control_c, 0, 64, 54
1, 291935, Control_c, 0, 64, 51
1, 291949, Control_c, 0, 64, 47
1, 291964, Control_c, 0, 64, 43
1, 291979, Control_c, 0, 64, 40
1, 291993, Control_c, 0, 64, 37
1, 292008, Control_c, 0, 64, 35
1, 292023, Control_c, 0, 64, 34
1, 292023, Control_c, 0, 67, 80
1, 292082, Control_c, 0, 64, 35
1, 292097, Control_c, 0, 64, 36
1, 292112, Control_c, 0, 64, 38
1, 292127, Control_c, 0, 64, 39
1, 292141, Control_c, 0, 64, 40
1, 292156, Control_c, 0, 64, 42
1, 292171, Control_c, 0, 64, 45
1, 292179, Note_on_c, 0, 51, 37
1, 292185, Control_c, 0, 64, 47
1, 292192, Note_off_c, 0, 37, 34
1, 292200, Control_c, 0, 64, 49
1, 292215, Control_c, 0, 64, 51
1, 292230, Control_c, 0, 64, 53
1, 292246, Control_c, 0, 64, 55
1, 292261, Control_c, 0, 64, 58
1, 292276, Control_c, 0, 64, 59
1, 292290, Control_c, 0, 64, 61
1, 292302, Note_off_c, 0, 55, 41
1, 292305, Control_c, 0, 64, 62
1, 292320, Control_c, 0, 64, 63
1, 292335, Control_c, 0, 64, 64
1, 292350, Control_c, 0, 64, 65
1, 292364, Control_c, 0, 64, 66
1, 292379, Control_c, 0, 64, 67
1, 292394, Control_c, 0, 64, 69
1, 292409, Control_c, 0, 64, 70
1, 292424, Control_c, 0, 64, 71
1, 292439, Control_c, 0, 64, 73
1, 292454, Control_c, 0, 64, 74
1, 292469, Control_c, 0, 64, 75
1, 292483, Control_c, 0, 64, 75
1, 292498, Control_c, 0, 64, 76
1, 292557, Control_c, 0, 64, 76
1, 292576, Note_on_c, 0, 55, 36
1, 292658, Note_off_c, 0, 51, 30
1, 292783, Note_off_c, 0, 55, 41
1, 292937, Note_on_c, 0, 60, 53
1, 292942, Note_off_c, 0, 58, 59
1, 292977, Note_on_c, 0, 51, 40
1, 293023, Control_c, 0, 64, 76
1, 293084, Control_c, 0, 64, 75
1, 293111, Note_off_c, 0, 60, 57
1, 293131, Note_on_c, 0, 61, 61
1, 293247, Control_c, 0, 64, 75
1, 293261, Control_c, 0, 64, 74
1, 293276, Control_c, 0, 64, 74
1, 293291, Control_c, 0, 64, 72
1, 293306, Control_c, 0, 64, 69
1, 293321, Control_c, 0, 64, 66
1, 293336, Control_c, 0, 64, 62
1, 293342, Note_on_c, 0, 63, 66
1, 293357, Control_c, 0, 64, 57
1, 293370, Note_on_c, 0, 48, 42
1, 293372, Control_c, 0, 64, 51
1, 293386, Control_c, 0, 64, 44
1, 293390, Note_off_c, 0, 61, 60
1, 293393, Note_on_c, 0, 56, 33
1, 293401, Control_c, 0, 64, 36
1, 293416, Control_c, 0, 64, 25
1, 293430, Control_c, 0, 64, 0
1, 293434, Note_off_c, 0, 51, 30
1, 293462, Note_off_c, 0, 49, 36
1, 293697, Control_c, 0, 64, 25
1, 293712, Control_c, 0, 64, 38
1, 293726, Control_c, 0, 64, 48
1, 293741, Control_c, 0, 64, 52
1, 293741, Control_c, 0, 67, 79
1, 293743, Note_on_c, 0, 51, 35
1, 293756, Control_c, 0, 64, 55
1, 293771, Control_c, 0, 64, 57
1, 293786, Control_c, 0, 64, 59
1, 293790, Note_off_c, 0, 56, 41
1, 293801, Control_c, 0, 64, 60
1, 293801, Control_c, 0, 67, 79
1, 293816, Control_c, 0, 64, 61
1, 293831, Control_c, 0, 64, 61
1, 293846, Control_c, 0, 64, 62
1, 293861, Control_c, 0, 64, 63
1, 293876, Control_c, 0, 64, 64
1, 293890, Control_c, 0, 64, 64
1, 293905, Control_c, 0, 64, 65
1, 293920, Control_c, 0, 64, 66
1, 293935, Control_c, 0, 64, 67
1, 293950, Control_c, 0, 64, 68
1, 293965, Control_c, 0, 64, 69
1, 293980, Control_c, 0, 64, 69
1, 293995, Control_c, 0, 64, 70
1, 294009, Control_c, 0, 64, 71
1, 294024, Control_c, 0, 64, 72
1, 294039, Control_c, 0, 64, 72
1, 294053, Control_c, 0, 64, 73
1, 294083, Control_c, 0, 64, 73
1, 294084, Note_on_c, 0, 56, 41
1, 294106, Control_c, 0, 64, 74
1, 294121, Control_c, 0, 64, 75
1, 294121, Control_c, 0, 67, 79
1, 294150, Control_c, 0, 64, 75
1, 294150, Control_c, 0, 67, 80
1, 294161, Note_off_c, 0, 51, 33
1, 294254, Control_c, 0, 67, 80
1, 294284, Control_c, 0, 67, 81
1, 294328, Control_c, 0, 67, 82
1, 294358, Control_c, 0, 67, 82
1, 294373, Control_c, 0, 67, 83
1, 294387, Control_c, 0, 67, 83
1, 294402, Control_c, 0, 67, 84
1, 294417, Control_c, 0, 67, 84
1, 294432, Control_c, 0, 67, 85
1, 294469, Note_on_c, 0, 51, 37
1, 294476, Control_c, 0, 67, 85
1, 294506, Control_c, 0, 67, 86
1, 294526, Note_off_c, 0, 63, 33
1, 294551, Note_off_c, 0, 56, 37
1, 294648, Note_off_c, 0, 51, 41
1, 294714, Control_c, 0, 64, 75
1, 294758, Control_c, 0, 64, 74
1, 294788, Control_c, 0, 64, 74
1, 294817, Control_c, 0, 64, 73
1, 294832, Control_c, 0, 64, 73
1, 294847, Control_c, 0, 64, 71
1, 294859, Note_on_c, 0, 57, 52
1, 294870, Control_c, 0, 64, 68
1, 294884, Control_c, 0, 64, 65
1, 294892, Note_on_c, 0, 51, 32
1, 294894, Note_on_c, 0, 41, 39
1, 294899, Control_c, 0, 64, 63
1, 294914, Control_c, 0, 64, 60
1, 294929, Control_c, 0, 64, 55
1, 294929, Control_c, 0, 67, 85
1, 294944, Control_c, 0, 64, 46
1, 294958, Control_c, 0, 64, 32
1, 294973, Control_c, 0, 64, 0
1, 295017, Control_c, 0, 67, 85
1, 295036, Note_off_c, 0, 48, 35
1, 295107, Control_c, 0, 67, 84
1, 295136, Control_c, 0, 64, 25
1, 295151, Control_c, 0, 64, 38
1, 295151, Control_c, 0, 67, 84
1, 295166, Control_c, 0, 64, 48
1, 295181, Control_c, 0, 64, 52
1, 295196, Control_c, 0, 64, 55
1, 295196, Control_c, 0, 67, 83
1, 295210, Control_c, 0, 64, 58
1, 295225, Control_c, 0, 64, 60
1, 295225, Control_c, 0, 67, 83
1, 295231, Note_off_c, 0, 51, 39
1, 295240, Note_on_c, 0, 48, 38
1, 295240, Control_c, 0, 64, 61
1, 295255, Control_c, 0, 64, 63
1, 295270, Control_c, 0, 64, 64
1, 295284, Control_c, 0, 64, 65
1, 295299, Control_c, 0, 64, 66
1, 295314, Control_c, 0, 64, 67
1, 295328, Control_c, 0, 64, 68
1, 295343, Control_c, 0, 64, 69
1, 295358, Control_c, 0, 64, 70
1, 295373, Control_c, 0, 64, 71
1, 295388, Control_c, 0, 64, 72
1, 295402, Control_c, 0, 64, 72
1, 295433, Control_c, 0, 64, 73
1, 295595, Note_on_c, 0, 51, 36
1, 295661, Note_off_c, 0, 48, 33
1, 295795, Control_c, 0, 64, 72
1, 295958, Control_c, 0, 64, 72
1, 295971, Note_on_c, 0, 48, 37
1, 296019, Note_off_c, 0, 51, 33
1, 296285, Control_c, 0, 64, 71
1, 296329, Control_c, 0, 64, 71
1, 296367, Control_c, 0, 64, 70
1, 296370, Note_on_c, 0, 61, 59
1, 296381, Control_c, 0, 64, 69
1, 296396, Control_c, 0, 64, 65
1, 296398, Note_on_c, 0, 34, 37
1, 296406, Note_on_c, 0, 53, 38
1, 296411, Control_c, 0, 64, 60
1, 296426, Control_c, 0, 64, 53
1, 296441, Control_c, 0, 64, 44
1, 296455, Control_c, 0, 64, 35
1, 296470, Control_c, 0, 64, 20
1, 296485, Control_c, 0, 64, 0
1, 296491, Note_off_c, 0, 48, 43
1, 296622, Note_off_c, 0, 41, 24
1, 296648, Control_c, 0, 64, 27
1, 296663, Control_c, 0, 64, 38
1, 296678, Control_c, 0, 64, 46
1, 296692, Control_c, 0, 64, 52
1, 296707, Control_c, 0, 64, 56
1, 296722, Control_c, 0, 64, 58
1, 296737, Control_c, 0, 64, 59
1, 296752, Control_c, 0, 64, 61
1, 296767, Control_c, 0, 64, 62
1, 296781, Control_c, 0, 64, 63
1, 296783, Note_on_c, 0, 49, 29
1, 296796, Control_c, 0, 64, 63
1, 296811, Control_c, 0, 64, 64
1, 296826, Control_c, 0, 64, 65
1, 296841, Control_c, 0, 64, 65
1, 296855, Control_c, 0, 64, 66
1, 296856, Note_off_c, 0, 53, 42
1, 296870, Control_c, 0, 64, 67
1, 296885, Control_c, 0, 64, 68
1, 296900, Control_c, 0, 64, 68
1, 296915, Control_c, 0, 64, 69
1, 296944, Control_c, 0, 64, 69
1, 296959, Control_c, 0, 64, 70
1, 296973, Control_c, 0, 64, 70
1, 296988, Control_c, 0, 64, 71
1, 297019, Control_c, 0, 64, 71
1, 297049, Control_c, 0, 64, 72
1, 297116, Control_c, 0, 64, 72
1, 297124, Note_off_c, 0, 57, 27
1, 297147, Note_on_c, 0, 53, 39
1, 297175, Control_c, 0, 64, 73
1, 297204, Control_c, 0, 64, 73
1, 297234, Control_c, 0, 64, 74
1, 297298, Note_off_c, 0, 49, 40
1, 297523, Note_on_c, 0, 49, 40
1, 297667, Note_off_c, 0, 61, 32
1, 297688, Note_off_c, 0, 49, 47
1, 297737, Control_c, 0, 67, 82
1, 297783, Note_off_c, 0, 53, 28
1, 297827, Control_c, 0, 64, 73
1, 297924, Control_c, 0, 64, 73
1, 297939, Control_c, 0, 64, 72
1, 297954, Control_c, 0, 64, 71
1, 297956, Note_on_c, 0, 60, 53
1, 297969, Control_c, 0, 64, 68
1, 297983, Control_c, 0, 64, 64
1, 297984, Note_on_c, 0, 39, 31
1, 297989, Note_on_c, 0, 49, 32
1, 297998, Control_c, 0, 64, 58
1, 298013, Control_c, 0, 64, 42
1, 298028, Control_c, 0, 64, 0
1, 298117, Control_c, 0, 64, 34
1, 298132, Control_c, 0, 64, 52
1, 298146, Control_c, 0, 64, 60
1, 298146, Control_c, 0, 67, 82
1, 298149, Note_off_c, 0, 34, 40
1, 298161, Control_c, 0, 64, 63
1, 298176, Control_c, 0, 64, 64
1, 298191, Control_c, 0, 64, 64
1, 298206, Control_c, 0, 64, 65
1, 298221, Control_c, 0, 64, 66
1, 298235, Control_c, 0, 64, 67
1, 298250, Control_c, 0, 64, 68
1, 298254, Note_off_c, 0, 49, 47
1, 298278, Note_off_c, 0, 60, 56
1, 298383, Control_c, 0, 64, 67
1, 298398, Control_c, 0, 64, 65
1, 298409, Note_on_c, 0, 58, 59
1, 298413, Control_c, 0, 64, 61
1, 298423, Note_on_c, 0, 49, 37
1, 298427, Control_c, 0, 64, 46
1, 298442, Control_c, 0, 64, 0
1, 298502, Control_c, 0, 64, 19
1, 298517, Control_c, 0, 64, 43
1, 298517, Control_c, 0, 67, 81
1, 298532, Control_c, 0, 64, 57
1, 298546, Control_c, 0, 64, 63
1, 298561, Control_c, 0, 64, 65
1, 298576, Control_c, 0, 64, 67
1, 298576, Control_c, 0, 67, 81
1, 298591, Control_c, 0, 64, 68
1, 298613, Control_c, 0, 64, 69
1, 298629, Control_c, 0, 64, 71
1, 298644, Control_c, 0, 64, 74
1, 298658, Control_c, 0, 64, 75
1, 298666, Note_off_c, 0, 49, 40
1, 298673, Control_c, 0, 64, 76
1, 298693, Note_off_c, 0, 58, 49
1, 298732, Control_c, 0, 67, 80
1, 298776, Control_c, 0, 64, 74
1, 298780, Note_on_c, 0, 56, 62
1, 298791, Control_c, 0, 64, 69
1, 298794, Note_on_c, 0, 49, 34
1, 298806, Control_c, 0, 64, 62
1, 298821, Control_c, 0, 64, 47
1, 298821, Control_c, 0, 67, 80
1, 298836, Control_c, 0, 64, 14
1, 298851, Control_c, 0, 64, 20
1, 298866, Control_c, 0, 64, 36
1, 298866, Control_c, 0, 67, 79
1, 298880, Control_c, 0, 64, 50
1, 298895, Control_c, 0, 64, 60
1, 298910, Control_c, 0, 64, 63
1, 298925, Control_c, 0, 64, 65
1, 298940, Control_c, 0, 64, 66
1, 298955, Control_c, 0, 64, 68
1, 298969, Control_c, 0, 64, 69
1, 298969, Control_c, 0, 67, 79
1, 298984, Control_c, 0, 64, 71
1, 298993, Note_off_c, 0, 49, 53
1, 298999, Control_c, 0, 64, 71
1, 299012, Note_off_c, 0, 56, 59
1, 299029, Control_c, 0, 64, 72
1, 299118, Control_c, 0, 64, 71
1, 299132, Control_c, 0, 64, 69
1, 299137, Note_on_c, 0, 55, 62
1, 299147, Control_c, 0, 64, 65
1, 299152, Note_on_c, 0, 49, 41
1, 299162, Control_c, 0, 64, 57
1, 299176, Control_c, 0, 64, 23
1, 299191, Control_c, 0, 64, 0
1, 299236, Control_c, 0, 64, 21
1, 299250, Control_c, 0, 64, 46
1, 299265, Control_c, 0, 64, 59
1, 299280, Control_c, 0, 64, 63
1, 299295, Control_c, 0, 64, 64
1, 299310, Control_c, 0, 64, 65
1, 299325, Control_c, 0, 64, 66
1, 299340, Control_c, 0, 64, 67
1, 299351, Note_off_c, 0, 49, 55
1, 299362, Control_c, 0, 64, 69
1, 299376, Control_c, 0, 64, 69
1, 299401, Note_off_c, 0, 55, 53
1, 299507, Note_on_c, 0, 32, 33
1, 299541, Control_c, 0, 64, 68
1, 299551, Note_on_c, 0, 58, 63
1, 299555, Control_c, 0, 64, 66
1, 299566, Note_off_c, 0, 39, 31
1, 299570, Control_c, 0, 64, 64
1, 299581, Note_on_c, 0, 55, 37
1, 299585, Control_c, 0, 64, 59
1, 299599, Control_c, 0, 64, 45
1, 299603, Note_on_c, 0, 49, 38
1, 299614, Control_c, 0, 64, 0
1, 299718, Control_c, 0, 64, 46
1, 299733, Control_c, 0, 64, 59
1, 299748, Control_c, 0, 64, 63
1, 299778, Control_c, 0, 64, 63
1, 299793, Control_c, 0, 64, 64
1, 299807, Control_c, 0, 64, 65
1, 299822, Control_c, 0, 64, 66
1, 299837, Control_c, 0, 64, 67
1, 299852, Control_c, 0, 64, 68
1, 299866, Control_c, 0, 64, 68
1, 299866, Control_c, 0, 67, 79
1, 299881, Control_c, 0, 67, 80
1, 299896, Control_c, 0, 64, 69
1, 299935, Note_on_c, 0, 51, 35
1, 300007, Note_off_c, 0, 49, 40
1, 300244, Control_c, 0, 67, 80
1, 300259, Control_c, 0, 67, 81
1, 300289, Control_c, 0, 64, 68
1, 300303, Control_c, 0, 64, 68
1, 300314, Note_on_c, 0, 44, 34
1, 300318, Control_c, 0, 64, 67
1, 300318, Control_c, 0, 67, 81
1, 300328, Note_on_c, 0, 49, 35
1, 300333, Control_c, 0, 64, 64
1, 300348, Control_c, 0, 64, 55
1, 300348, Control_c, 0, 67, 82
1, 300362, Note_off_c, 0, 51, 32
1, 300363, Control_c, 0, 64, 0
1, 300368, Note_off_c, 0, 32, 40
1, 300392, Control_c, 0, 67, 82
1, 300407, Control_c, 0, 67, 83
1, 300451, Control_c, 0, 64, 37
1, 300451, Control_c, 0, 67, 83
1, 300466, Control_c, 0, 64, 56
1, 300466, Control_c, 0, 67, 84
1, 300481, Control_c, 0, 64, 62
1, 300496, Control_c, 0, 64, 63
1, 300511, Control_c, 0, 64, 64
1, 300526, Control_c, 0, 64, 64
1, 300541, Control_c, 0, 64, 65
1, 300555, Control_c, 0, 64, 66
1, 300570, Control_c, 0, 64, 67
1, 300585, Control_c, 0, 64, 68
1, 300585, Control_c, 0, 67, 84
1, 300600, Control_c, 0, 64, 68
1, 300615, Control_c, 0, 67, 85
1, 300659, Control_c, 0, 67, 85
1, 300674, Control_c, 0, 67, 86
1, 300696, Note_off_c, 0, 49, 39
1, 300697, Note_on_c, 0, 51, 34
1, 300703, Control_c, 0, 67, 86
1, 300718, Control_c, 0, 67, 87
1, 300733, Control_c, 0, 67, 88
1, 300747, Control_c, 0, 67, 92
1, 300762, Control_c, 0, 67, 100
1, 300777, Control_c, 0, 67, 106
1, 300782, Note_off_c, 0, 55, 42
1, 300792, Control_c, 0, 67, 112
1, 300807, Control_c, 0, 67, 117
1, 300821, Control_c, 0, 67, 122
1, 300844, Control_c, 0, 67, 125
1, 300859, Control_c, 0, 67, 127
1, 300903, Control_c, 0, 64, 68
1, 300992, Control_c, 0, 64, 67
1, 301038, Control_c, 0, 64, 67
1, 301075, Note_off_c, 0, 51, 31
1, 301097, Control_c, 0, 64, 66
1, 301112, Control_c, 0, 64, 66
1, 301126, Control_c, 0, 64, 65
1, 301138, Note_on_c, 0, 56, 42
1, 301141, Control_c, 0, 64, 63
1, 301156, Note_on_c, 0, 32, 39
1, 301156, Control_c, 0, 64, 61
1, 301164, Note_on_c, 0, 48, 38
1, 301170, Control_c, 0, 64, 56
1, 301176, Note_off_c, 0, 44, 40
1, 301185, Control_c, 0, 64, 46
1, 301200, Control_c, 0, 64, 23
1, 301215, Control_c, 0, 64, 0
1, 301277, Note_off_c, 0, 56, 58
1, 301292, Note_off_c, 0, 58, 48
1, 301317, Note_off_c, 0, 48, 56
1, 301420, Note_on_c, 0, 51, 40
1, 301503, Note_off_c, 0, 51, 52
1, 301680, Note_on_c, 0, 56, 55
1, 301793, Note_off_c, 0, 56, 62
1, 301932, Note_on_c, 0, 60, 48
1, 302016, Note_off_c, 0, 32, 47
1, 302064, Note_off_c, 0, 60, 38
1, 302183, Note_on_c, 0, 63, 50
1, 302297, Note_off_c, 0, 63, 62
1, 302467, Note_on_c, 0, 68, 55
1, 302568, Note_off_c, 0, 68, 61
1, 302812, Note_on_c, 0, 72, 66
1, 302839, Note_on_c, 0, 44, 35
1, 302839, Note_on_c, 0, 56, 36
1, 302841, Note_on_c, 0, 60, 47
1, 303069, Control_c, 0, 64, 14
1, 303084, Control_c, 0, 64, 42
1, 303106, Control_c, 0, 64, 53
1, 303121, Control_c, 0, 64, 60
1, 303136, Control_c, 0, 64, 62
1, 303150, Control_c, 0, 64, 63
1, 303165, Control_c, 0, 64, 64
1, 303180, Control_c, 0, 64, 65
1, 303195, Control_c, 0, 64, 68
1, 303210, Control_c, 0, 64, 72
1, 303224, Control_c, 0, 64, 77
1, 303239, Control_c, 0, 64, 81
1, 303254, Control_c, 0, 64, 84
1, 303266, Note_on_c, 0, 63, 35
1, 303269, Control_c, 0, 64, 88
1, 303274, Note_on_c, 0, 51, 35
1, 303284, Control_c, 0, 64, 95
1, 303298, Control_c, 0, 64, 100
1, 303313, Control_c, 0, 64, 103
1, 303328, Control_c, 0, 64, 105
1, 303331, Note_off_c, 0, 63, 0
1, 303331, Note_on_c, 0, 63, 3
1, 303337, Note_off_c, 0, 60, 35
1, 303343, Control_c, 0, 64, 107
1, 303350, Note_off_c, 0, 56, 34
1, 303358, Control_c, 0, 64, 110
1, 303373, Control_c, 0, 64, 114
1, 303388, Control_c, 0, 64, 119
1, 303402, Control_c, 0, 64, 121
1, 303418, Control_c, 0, 64, 125
1, 303477, Control_c, 0, 64, 127
1, 303599, Note_on_c, 0, 56, 37
1, 303616, Note_on_c, 0, 60, 37
1, 303649, Note_off_c, 0, 51, 38
1, 303689, Note_off_c, 0, 63, 41
1, 303972, Note_on_c, 0, 63, 44
1, 303978, Note_off_c, 0, 56, 35
1, 303983, Note_off_c, 0, 60, 36
1, 303990, Note_on_c, 0, 51, 34
1, 304330, Note_off_c, 0, 51, 40
1, 304331, Note_on_c, 0, 70, 64
1, 304336, Note_on_c, 0, 49, 49
1, 304344, Control_c, 0, 64, 105
1, 304354, Note_on_c, 0, 58, 43
1, 304359, Control_c, 0, 64, 90
1, 304361, Note_on_c, 0, 55, 36
1, 304374, Control_c, 0, 64, 78
1, 304388, Control_c, 0, 64, 69
1, 304395, Note_off_c, 0, 63, 41
1, 304403, Control_c, 0, 64, 63
1, 304418, Control_c, 0, 64, 55
1, 304433, Control_c, 0, 64, 37
1, 304448, Control_c, 0, 64, 0
1, 304526, Note_off_c, 0, 44, 39
1, 304528, Note_off_c, 0, 72, 36
1, 304604, Control_c, 0, 64, 21
1, 304619, Control_c, 0, 64, 40
1, 304634, Control_c, 0, 64, 53
1, 304649, Control_c, 0, 64, 58
1, 304663, Control_c, 0, 64, 60
1, 304678, Control_c, 0, 64, 62
1, 304693, Control_c, 0, 64, 63
1, 304708, Control_c, 0, 64, 64
1, 304710, Note_on_c, 0, 63, 44
1, 304717, Note_on_c, 0, 51, 38
1, 304722, Control_c, 0, 64, 66
1, 304737, Control_c, 0, 64, 68
1, 304752, Control_c, 0, 64, 71
1, 304767, Control_c, 0, 64, 73
1, 304782, Control_c, 0, 64, 74
1, 304783, Note_off_c, 0, 55, 29
1, 304796, Control_c, 0, 64, 76
1, 304811, Control_c, 0, 64, 77
1, 304826, Control_c, 0, 64, 78
1, 304841, Control_c, 0, 64, 79
1, 304856, Control_c, 0, 64, 80
1, 304869, Note_off_c, 0, 58, 37
1, 304870, Control_c, 0, 64, 81
1, 304885, Control_c, 0, 64, 81
1, 304900, Control_c, 0, 64, 82
1, 304914, Control_c, 0, 64, 83
1, 304929, Control_c, 0, 64, 84
1, 304944, Control_c, 0, 64, 85
1, 304959, Control_c, 0, 64, 86
1, 304974, Control_c, 0, 64, 87
1, 304988, Control_c, 0, 64, 87
1, 305003, Control_c, 0, 64, 88
1, 305019, Control_c, 0, 64, 89
1, 305049, Control_c, 0, 64, 89
1, 305060, Note_on_c, 0, 58, 39
1, 305081, Note_on_c, 0, 55, 39
1, 305093, Control_c, 0, 64, 90
1, 305122, Note_off_c, 0, 63, 29
1, 305123, Note_off_c, 0, 51, 30
1, 305182, Control_c, 0, 64, 90
1, 305242, Control_c, 0, 64, 91
1, 305272, Control_c, 0, 64, 91
1, 305301, Control_c, 0, 64, 92
1, 305337, Control_c, 0, 64, 92
1, 305367, Control_c, 0, 64, 93
1, 305382, Control_c, 0, 64, 93
1, 305415, Note_off_c, 0, 58, 36
1, 305450, Note_on_c, 0, 63, 33
1, 305452, Note_off_c, 0, 55, 36
1, 305454, Note_on_c, 0, 51, 35
1, 305632, Note_off_c, 0, 63, 43
1, 305683, Note_off_c, 0, 70, 38
1, 305797, Control_c, 0, 64, 92
1, 305813, Control_c, 0, 64, 90
1, 305825, Note_on_c, 0, 75, 72
1, 305828, Control_c, 0, 64, 86
1, 305842, Control_c, 0, 64, 81
1, 305844, Note_on_c, 0, 63, 46
1, 305846, Note_on_c, 0, 56, 38
1, 305850, Note_on_c, 0, 48, 48
1, 305857, Control_c, 0, 64, 73
1, 305869, Note_off_c, 0, 51, 37
1, 305872, Control_c, 0, 64, 67
1, 305887, Control_c, 0, 64, 61
1, 305902, Control_c, 0, 64, 48
1, 305916, Control_c, 0, 64, 21
1, 305931, Control_c, 0, 64, 0
1, 305933, Note_off_c, 0, 49, 27
1, 306050, Control_c, 0, 64, 24
1, 306064, Control_c, 0, 64, 37
1, 306078, Control_c, 0, 64, 48
1, 306100, Control_c, 0, 64, 55
1, 306115, Control_c, 0, 64, 59
1, 306130, Control_c, 0, 64, 61
1, 306145, Control_c, 0, 64, 62
1, 306160, Control_c, 0, 64, 63
1, 306174, Control_c, 0, 64, 64
1, 306189, Control_c, 0, 64, 65
1, 306204, Control_c, 0, 64, 67
1, 306219, Control_c, 0, 64, 69
1, 306228, Note_on_c, 0, 68, 37
1, 306234, Control_c, 0, 64, 71
1, 306248, Control_c, 0, 64, 73
1, 306250, Note_on_c, 0, 51, 30
1, 306263, Control_c, 0, 64, 75
1, 306278, Control_c, 0, 64, 77
1, 306292, Control_c, 0, 64, 78
1, 306307, Control_c, 0, 64, 79
1, 306322, Control_c, 0, 64, 80
1, 306327, Note_off_c, 0, 56, 40
1, 306337, Control_c, 0, 64, 81
1, 306352, Control_c, 0, 64, 82
1, 306366, Control_c, 0, 64, 83
1, 306369, Note_off_c, 0, 63, 37
1, 306380, Poly_aftertouch_c, 0, 72, 127
1, 306381, Control_c, 0, 64, 84
1, 306396, Control_c, 0, 64, 85
1, 306411, Control_c, 0, 64, 85
1, 306426, Control_c, 0, 64, 86
1, 306455, Control_c, 0, 64, 86
1, 306515, Control_c, 0, 64, 87
1, 306577, Note_on_c, 0, 63, 43
1, 306591, Note_on_c, 0, 56, 38
1, 306622, Note_off_c, 0, 51, 36
1, 306690, Note_off_c, 0, 68, 42
1, 306956, Note_on_c, 0, 51, 38
1, 306959, Note_on_c, 0, 68, 42
1, 307014, Note_off_c, 0, 56, 30
1, 307041, Note_off_c, 0, 63, 35
1, 307194, Note_off_c, 0, 48, 36
1, 307278, Control_c, 0, 64, 86
1, 307307, Note_off_c, 0, 51, 34
1, 307307, Control_c, 0, 64, 86
1, 307322, Note_on_c, 0, 63, 45
1, 307322, Control_c, 0, 64, 84
1, 307328, Note_on_c, 0, 55, 53
1, 307331, Note_on_c, 0, 43, 53
1, 307337, Control_c, 0, 64, 82
1, 307352, Control_c, 0, 64, 80
1, 307367, Control_c, 0, 64, 75
1, 307382, Control_c, 0, 64, 68
1, 307397, Control_c, 0, 64, 59
1, 307412, Control_c, 0, 64, 42
1, 307427, Control_c, 0, 64, 0
1, 307516, Control_c, 0, 64, 28
1, 307531, Control_c, 0, 64, 44
1, 307546, Control_c, 0, 64, 54
1, 307561, Control_c, 0, 64, 59
1, 307576, Control_c, 0, 64, 62
1, 307598, Control_c, 0, 64, 63
1, 307612, Control_c, 0, 64, 64
1, 307627, Control_c, 0, 64, 66
1, 307642, Control_c, 0, 64, 68
1, 307657, Control_c, 0, 64, 70
1, 307672, Control_c, 0, 64, 72
1, 307686, Control_c, 0, 64, 74
1, 307701, Control_c, 0, 64, 75
1, 307703, Note_on_c, 0, 70, 49
1, 307712, Note_on_c, 0, 51, 32
1, 307716, Control_c, 0, 64, 76
1, 307731, Control_c, 0, 64, 77
1, 307736, Poly_aftertouch_c, 0, 72, 0
1, 307746, Control_c, 0, 64, 78
1, 307761, Control_c, 0, 64, 79
1, 307767, Note_off_c, 0, 63, 40
1, 307775, Control_c, 0, 64, 81
1, 307790, Control_c, 0, 64, 82
1, 307805, Control_c, 0, 64, 83
1, 307820, Control_c, 0, 64, 84
1, 307835, Control_c, 0, 64, 85
1, 307850, Control_c, 0, 64, 85
1, 307852, Note_off_c, 0, 55, 34
1, 307865, Control_c, 0, 64, 86
1, 307880, Control_c, 0, 64, 86
1, 307881, Note_off_c, 0, 68, 54
1, 307894, Control_c, 0, 64, 87
1, 307938, Control_c, 0, 64, 87
1, 307945, Note_off_c, 0, 70, 38
1, 308075, Note_on_c, 0, 73, 67
1, 308082, Note_off_c, 0, 51, 40
1, 308097, Note_on_c, 0, 55, 45
1, 308097, Note_on_c, 0, 63, 45
1, 308250, Control_c, 0, 64, 88
1, 308265, Control_c, 0, 64, 90
1, 308279, Control_c, 0, 64, 91
1, 308294, Control_c, 0, 64, 94
1, 308309, Control_c, 0, 64, 96
1, 308309, Control_c, 0, 67, 124
1, 308333, Control_c, 0, 64, 99
1, 308333, Control_c, 0, 67, 110
1, 308348, Control_c, 0, 64, 103
1, 308348, Control_c, 0, 67, 96
1, 308362, Control_c, 0, 64, 107
1, 308362, Control_c, 0, 67, 81
1, 308377, Control_c, 0, 64, 111
1, 308377, Control_c, 0, 67, 65
1, 308392, Control_c, 0, 64, 116
1, 308392, Control_c, 0, 67, 53
1, 308407, Control_c, 0, 64, 121
1, 308407, Control_c, 0, 67, 42
1, 308422, Control_c, 0, 64, 127
1, 308422, Control_c, 0, 67, 35
1, 308436, Control_c, 0, 67, 30
1, 308449, Note_on_c, 0, 70, 43
1, 308451, Control_c, 0, 67, 28
1, 308466, Control_c, 0, 67, 25
1, 308481, Control_c, 0, 67, 22
1, 308495, Control_c, 0, 67, 17
1, 308499, Note_on_c, 0, 51, 27
1, 308510, Control_c, 0, 67, 13
1, 308525, Control_c, 0, 67, 9
1, 308534, Note_off_c, 0, 63, 38
1, 308540, Control_c, 0, 67, 0
1, 308545, Note_off_c, 0, 43, 35
1, 308558, Note_off_c, 0, 55, 37
1, 308624, Note_off_c, 0, 70, 55
1, 308703, Note_off_c, 0, 51, 38
1, 308781, Note_off_c, 0, 73, 61
1, 308814, Note_on_c, 0, 72, 62
1, 308822, Control_c, 0, 64, 107
1, 308834, Note_on_c, 0, 44, 43
1, 308836, Control_c, 0, 64, 94
1, 308840, Note_on_c, 0, 56, 51
1, 308843, Note_on_c, 0, 63, 44
1, 308851, Control_c, 0, 64, 83
1, 308866, Control_c, 0, 64, 72
1, 308880, Control_c, 0, 64, 64
1, 308895, Control_c, 0, 64, 50
1, 308898, Note_off_c, 0, 63, 0
1, 308898, Note_on_c, 0, 63, 20
1, 308910, Control_c, 0, 64, 18
1, 308925, Control_c, 0, 64, 0
1, 308969, Control_c, 0, 64, 20
1, 308982, Note_off_c, 0, 75, 32
1, 308984, Control_c, 0, 64, 36
1, 308999, Control_c, 0, 64, 49
1, 309015, Control_c, 0, 64, 59
1, 309030, Control_c, 0, 64, 62
1, 309045, Control_c, 0, 64, 64
1, 309059, Control_c, 0, 64, 65
1, 309081, Control_c, 0, 64, 66
1, 309096, Control_c, 0, 64, 69
1, 309111, Control_c, 0, 64, 72
1, 309126, Control_c, 0, 64, 77
1, 309141, Control_c, 0, 64, 81
1, 309156, Control_c, 0, 64, 85
1, 309171, Control_c, 0, 64, 88
1, 309185, Control_c, 0, 64, 93
1, 309197, Note_on_c, 0, 68, 48
1, 309200, Control_c, 0, 64, 99
1, 309215, Control_c, 0, 64, 104
1, 309217, Note_on_c, 0, 51, 36
1, 309230, Control_c, 0, 64, 107
1, 309245, Control_c, 0, 64, 112
1, 309259, Control_c, 0, 64, 118
1, 309274, Control_c, 0, 64, 125
1, 309289, Control_c, 0, 64, 127
1, 309318, Note_off_c, 0, 63, 44
1, 309432, Note_off_c, 0, 44, 33
1, 309445, Note_off_c, 0, 56, 36
1, 309550, Note_on_c, 0, 75, 75
1, 309570, Control_c, 0, 64, 104
1, 309571, Note_on_c, 0, 43, 56
1, 309571, Note_on_c, 0, 55, 52
1, 309576, Note_on_c, 0, 63, 48
1, 309585, Control_c, 0, 64, 87
1, 309594, Note_off_c, 0, 51, 36
1, 309600, Control_c, 0, 64, 74
1, 309615, Note_off_c, 0, 63, 0
1, 309615, Note_on_c, 0, 63, 15
1, 309615, Control_c, 0, 64, 64
1, 309625, Note_off_c, 0, 68, 36
1, 309630, Control_c, 0, 64, 48
1, 309637, Note_off_c, 0, 72, 36
1, 309644, Control_c, 0, 64, 21
1, 309659, Control_c, 0, 64, 20
1, 309674, Control_c, 0, 64, 28
1, 309689, Control_c, 0, 64, 36
1, 309703, Control_c, 0, 64, 45
1, 309718, Control_c, 0, 64, 54
1, 309733, Control_c, 0, 64, 60
1, 309748, Control_c, 0, 64, 63
1, 309763, Control_c, 0, 64, 65
1, 309777, Control_c, 0, 64, 68
1, 309792, Control_c, 0, 64, 72
1, 309808, Control_c, 0, 64, 77
1, 309823, Control_c, 0, 64, 82
1, 309845, Control_c, 0, 64, 86
1, 309860, Control_c, 0, 64, 88
1, 309875, Control_c, 0, 64, 92
1, 309889, Control_c, 0, 64, 96
1, 309904, Control_c, 0, 64, 102
1, 309919, Control_c, 0, 64, 109
1, 309929, Note_on_c, 0, 70, 51
1, 309934, Control_c, 0, 64, 119
1, 309949, Control_c, 0, 64, 127
1, 309956, Note_on_c, 0, 51, 37
1, 309957, Note_off_c, 0, 63, 42
1, 310035, Note_off_c, 0, 43, 39
1, 310080, Note_off_c, 0, 55, 37
1, 310288, Note_on_c, 0, 80, 77
1, 310301, Note_on_c, 0, 41, 52
1, 310303, Note_on_c, 0, 53, 49
1, 310304, Control_c, 0, 64, 103
1, 310306, Note_off_c, 0, 51, 36
1, 310311, Note_on_c, 0, 68, 53
1, 310319, Control_c, 0, 64, 83
1, 310330, Note_off_c, 0, 70, 55
1, 310333, Control_c, 0, 64, 68
1, 310339, Note_off_c, 0, 75, 65
1, 310348, Control_c, 0, 64, 56
1, 310363, Control_c, 0, 64, 0
1, 310437, Control_c, 0, 64, 36
1, 310452, Control_c, 0, 64, 54
1, 310467, Control_c, 0, 64, 61
1, 310482, Control_c, 0, 64, 63
1, 310497, Control_c, 0, 64, 64
1, 310512, Control_c, 0, 64, 66
1, 310526, Control_c, 0, 64, 69
1, 310541, Control_c, 0, 64, 74
1, 310556, Control_c, 0, 64, 80
1, 310570, Control_c, 0, 64, 84
1, 310592, Control_c, 0, 64, 87
1, 310608, Control_c, 0, 64, 89
1, 310623, Control_c, 0, 64, 91
1, 310637, Control_c, 0, 64, 94
1, 310652, Control_c, 0, 64, 96
1, 310657, Note_on_c, 0, 44, 34
1, 310663, Note_on_c, 0, 72, 44
1, 310667, Control_c, 0, 64, 98
1, 310682, Control_c, 0, 64, 100
1, 310697, Control_c, 0, 64, 101
1, 310712, Control_c, 0, 64, 101
1, 310727, Control_c, 0, 64, 102
1, 310759, Note_off_c, 0, 41, 37
1, 310779, Note_off_c, 0, 53, 35
1, 310783, Note_off_c, 0, 68, 35
1, 311049, Note_on_c, 0, 82, 72
1, 311051, Note_off_c, 0, 44, 38
1, 311052, Control_c, 0, 64, 101
1, 311065, Note_on_c, 0, 68, 51
1, 311067, Control_c, 0, 64, 97
1, 311069, Note_on_c, 0, 41, 41
1, 311076, Note_on_c, 0, 53, 42
1, 311081, Control_c, 0, 64, 90
1, 311086, Note_off_c, 0, 72, 42
1, 311096, Control_c, 0, 64, 81
1, 311111, Control_c, 0, 64, 70
1, 311126, Control_c, 0, 64, 59
1, 311141, Control_c, 0, 64, 32
1, 311156, Control_c, 0, 64, 0
1, 311215, Control_c, 0, 64, 28
1, 311230, Control_c, 0, 64, 48
1, 311245, Control_c, 0, 64, 58
1, 311260, Control_c, 0, 64, 62
1, 311274, Control_c, 0, 64, 64
1, 311289, Control_c, 0, 64, 65
1, 311303, Note_off_c, 0, 80, 24
1, 311304, Control_c, 0, 64, 68
1, 311320, Control_c, 0, 64, 71
1, 311342, Control_c, 0, 64, 75
1, 311356, Control_c, 0, 64, 77
1, 311371, Control_c, 0, 64, 79
1, 311386, Control_c, 0, 64, 80
1, 311401, Control_c, 0, 64, 82
1, 311417, Control_c, 0, 64, 83
1, 311432, Control_c, 0, 64, 84
1, 311447, Control_c, 0, 64, 85
1, 311461, Control_c, 0, 64, 85
1, 311476, Note_on_c, 0, 44, 38
1, 311476, Control_c, 0, 64, 86
1, 311484, Note_off_c, 0, 68, 38
1, 311485, Note_off_c, 0, 41, 34
1, 311492, Note_on_c, 0, 74, 37
1, 311552, Note_off_c, 0, 53, 32
1, 311891, Control_c, 0, 64, 85
1, 311905, Control_c, 0, 64, 84
1, 311920, Control_c, 0, 64, 82
1, 311931, Note_on_c, 0, 75, 61
1, 311935, Control_c, 0, 64, 80
1, 311937, Note_on_c, 0, 39, 37
1, 311950, Control_c, 0, 64, 76
1, 311958, Note_on_c, 0, 67, 35
1, 311965, Control_c, 0, 64, 71
1, 311979, Control_c, 0, 64, 65
1, 311982, Note_off_c, 0, 44, 25
1, 311994, Control_c, 0, 64, 61
1, 312009, Control_c, 0, 64, 53
1, 312016, Note_off_c, 0, 67, 0
1, 312016, Note_on_c, 0, 67, 3
1, 312016, Note_off_c, 0, 74, 40
1, 312023, Control_c, 0, 64, 41
1, 312038, Control_c, 0, 64, 28
1, 312053, Control_c, 0, 64, 0
1, 312240, Control_c, 0, 64, 17
1, 312255, Control_c, 0, 64, 31
1, 312270, Control_c, 0, 64, 41
1, 312284, Control_c, 0, 64, 50
1, 312299, Control_c, 0, 64, 53
1, 312314, Control_c, 0, 64, 56
1, 312328, Control_c, 0, 64, 58
1, 312343, Control_c, 0, 64, 59
1, 312358, Control_c, 0, 64, 61
1, 312365, Note_on_c, 0, 43, 27
1, 312373, Control_c, 0, 64, 62
1, 312381, Note_on_c, 0, 70, 47
1, 312388, Control_c, 0, 64, 62
1, 312402, Control_c, 0, 64, 63
1, 312432, Control_c, 0, 64, 64
1, 312447, Control_c, 0, 64, 64
1, 312462, Control_c, 0, 64, 65
1, 312476, Control_c, 0, 64, 65
1, 312491, Control_c, 0, 64, 66
1, 312497, Note_off_c, 0, 67, 42
1, 312506, Control_c, 0, 64, 67
1, 312521, Control_c, 0, 64, 68
1, 312536, Control_c, 0, 64, 69
1, 312551, Control_c, 0, 64, 70
1, 312566, Control_c, 0, 64, 73
1, 312566, Note_off_c, 0, 39, 30
1, 312581, Control_c, 0, 64, 75
1, 312596, Control_c, 0, 64, 77
1, 312610, Control_c, 0, 64, 79
1, 312625, Control_c, 0, 64, 80
1, 312640, Control_c, 0, 64, 81
1, 312669, Control_c, 0, 64, 81
1, 312669, Control_c, 0, 67, 10
1, 312684, Control_c, 0, 64, 82
1, 312684, Control_c, 0, 67, 14
1, 312699, Control_c, 0, 67, 18
1, 312704, Note_off_c, 0, 82, 34
1, 312713, Note_on_c, 0, 46, 45
1, 312714, Note_on_c, 0, 67, 47
1, 312714, Control_c, 0, 67, 23
1, 312728, Control_c, 0, 67, 28
1, 312743, Control_c, 0, 64, 82
1, 312743, Control_c, 0, 67, 33
1, 312748, Note_off_c, 0, 70, 38
1, 312758, Control_c, 0, 67, 37
1, 312773, Control_c, 0, 67, 42
1, 312788, Control_c, 0, 67, 46
1, 312802, Control_c, 0, 67, 49
1, 312817, Control_c, 0, 67, 53
1, 312840, Control_c, 0, 67, 56
1, 312854, Control_c, 0, 67, 60
1, 312869, Control_c, 0, 67, 64
1, 312884, Control_c, 0, 67, 69
1, 312885, Note_off_c, 0, 43, 28
1, 312899, Control_c, 0, 67, 74
1, 312914, Control_c, 0, 67, 79
1, 312928, Control_c, 0, 67, 84
1, 312943, Control_c, 0, 67, 88
1, 312958, Control_c, 0, 67, 93
1, 312973, Control_c, 0, 64, 83
1, 312973, Control_c, 0, 67, 97
1, 312988, Control_c, 0, 67, 102
1, 313004, Control_c, 0, 64, 83
1, 313004, Control_c, 0, 67, 106
1, 313019, Control_c, 0, 64, 84
1, 313019, Control_c, 0, 67, 111
1, 313033, Control_c, 0, 64, 85
1, 313033, Control_c, 0, 67, 115
1, 313048, Control_c, 0, 64, 86
1, 313048, Control_c, 0, 67, 119
1, 313063, Control_c, 0, 64, 87
1, 313063, Control_c, 0, 67, 122
1, 313077, Control_c, 0, 64, 88
1, 313077, Control_c, 0, 67, 125
1, 313078, Note_on_c, 0, 51, 47
1, 313084, Note_on_c, 0, 70, 40
1, 313092, Control_c, 0, 64, 89
1, 313092, Control_c, 0, 67, 127
1, 313107, Control_c, 0, 64, 90
1, 313107, Control_c, 0, 67, 127
1, 313108, Note_off_c, 0, 46, 36
1, 313133, Note_off_c, 0, 67, 36
1, 313137, Control_c, 0, 64, 90
1, 313344, Control_c, 0, 64, 90
1, 313359, Control_c, 0, 64, 89
1, 313374, Control_c, 0, 64, 88
1, 313389, Control_c, 0, 64, 87
1, 313403, Control_c, 0, 64, 85
1, 313418, Control_c, 0, 64, 83
1, 313433, Control_c, 0, 64, 80
1, 313439, Note_on_c, 0, 67, 46
1, 313440, Note_on_c, 0, 55, 48
1, 313448, Control_c, 0, 64, 77
1, 313463, Control_c, 0, 64, 74
1, 313477, Control_c, 0, 64, 72
1, 313482, Note_off_c, 0, 51, 52
1, 313492, Control_c, 0, 64, 69
1, 313500, Note_off_c, 0, 70, 32
1, 313507, Control_c, 0, 64, 67
1, 313522, Control_c, 0, 64, 66
1, 313618, Control_c, 0, 64, 67
1, 313663, Control_c, 0, 64, 67
1, 313737, Control_c, 0, 64, 68
1, 313766, Control_c, 0, 64, 68
1, 313781, Control_c, 0, 64, 69
1, 313797, Control_c, 0, 64, 70
1, 313800, Note_on_c, 0, 58, 45
1, 313809, Note_on_c, 0, 70, 44
1, 313812, Control_c, 0, 64, 71
1, 313827, Control_c, 0, 64, 72
1, 313842, Control_c, 0, 64, 73
1, 313854, Note_off_c, 0, 67, 36
1, 313856, Control_c, 0, 64, 73
1, 313871, Control_c, 0, 64, 74
1, 313877, Note_off_c, 0, 55, 36
1, 313974, Control_c, 0, 64, 74
1, 313989, Control_c, 0, 67, 127
1, 314019, Control_c, 0, 67, 126
1, 314034, Control_c, 0, 67, 126
1, 314063, Control_c, 0, 67, 125
1, 314078, Control_c, 0, 67, 124
1, 314093, Control_c, 0, 67, 124
1, 314107, Control_c, 0, 64, 75
1, 314107, Control_c, 0, 67, 123
1, 314122, Control_c, 0, 67, 122
1, 314137, Control_c, 0, 64, 75
1, 314137, Control_c, 0, 67, 121
1, 314152, Control_c, 0, 67, 120
1, 314164, Note_on_c, 0, 76, 73
1, 314167, Control_c, 0, 67, 119
1, 314181, Control_c, 0, 64, 74
1, 314181, Control_c, 0, 67, 119
1, 314195, Note_on_c, 0, 67, 38
1, 314196, Control_c, 0, 64, 72
1, 314196, Control_c, 0, 67, 118
1, 314198, Note_on_c, 0, 55, 40
1, 314198, Note_off_c, 0, 70, 51
1, 314203, Note_off_c, 0, 58, 37
1, 314211, Control_c, 0, 64, 71
1, 314211, Control_c, 0, 67, 116
1, 314226, Control_c, 0, 64, 69
1, 314226, Control_c, 0, 67, 114
1, 314241, Control_c, 0, 64, 68
1, 314241, Control_c, 0, 67, 112
1, 314256, Control_c, 0, 64, 68
1, 314256, Control_c, 0, 67, 110
1, 314271, Control_c, 0, 67, 109
1, 314286, Control_c, 0, 64, 69
1, 314286, Control_c, 0, 67, 105
1, 314296, Note_off_c, 0, 75, 37
1, 314300, Control_c, 0, 64, 70
1, 314300, Control_c, 0, 67, 98
1, 314314, Control_c, 0, 64, 72
1, 314314, Control_c, 0, 67, 85
1, 314336, Control_c, 0, 64, 75
1, 314336, Control_c, 0, 67, 69
1, 314351, Control_c, 0, 64, 77
1, 314351, Control_c, 0, 67, 52
1, 314366, Control_c, 0, 64, 79
1, 314366, Control_c, 0, 67, 35
1, 314381, Control_c, 0, 64, 80
1, 314381, Control_c, 0, 67, 20
1, 314396, Control_c, 0, 64, 81
1, 314396, Control_c, 0, 67, 0
1, 314411, Control_c, 0, 64, 83
1, 314425, Control_c, 0, 64, 84
1, 314440, Control_c, 0, 64, 85
1, 314455, Control_c, 0, 64, 86
1, 314470, Control_c, 0, 64, 87
1, 314499, Control_c, 0, 64, 88
1, 314509, Note_off_c, 0, 67, 48
1, 314528, Note_on_c, 0, 70, 41
1, 314529, Control_c, 0, 64, 88
1, 314557, Note_on_c, 0, 58, 37
1, 314559, Control_c, 0, 64, 89
1, 314577, Note_off_c, 0, 55, 42
1, 314588, Control_c, 0, 64, 89
1, 314634, Control_c, 0, 64, 90
1, 314697, Note_off_c, 0, 58, 35
1, 314870, Control_c, 0, 64, 89
1, 314885, Control_c, 0, 64, 88
1, 314900, Control_c, 0, 64, 87
1, 314915, Control_c, 0, 64, 85
1, 314930, Control_c, 0, 64, 83
1, 314945, Control_c, 0, 64, 81
1, 314947, Note_on_c, 0, 77, 72
1, 314959, Control_c, 0, 64, 77
1, 314963, Note_on_c, 0, 37, 40
1, 314974, Control_c, 0, 64, 72
1, 314978, Note_on_c, 0, 67, 37
1, 314982, Note_off_c, 0, 70, 44
1, 314989, Control_c, 0, 64, 68
1, 315004, Control_c, 0, 64, 65
1, 315019, Control_c, 0, 64, 62
1, 315025, Note_off_c, 0, 76, 53
1, 315034, Control_c, 0, 64, 60
1, 315048, Control_c, 0, 64, 58
1, 315064, Control_c, 0, 64, 57
1, 315086, Control_c, 0, 64, 56
1, 315101, Control_c, 0, 64, 55
1, 315116, Control_c, 0, 64, 52
1, 315130, Control_c, 0, 64, 48
1, 315145, Control_c, 0, 64, 43
1, 315160, Control_c, 0, 64, 40
1, 315204, Control_c, 0, 64, 41
1, 315219, Control_c, 0, 64, 42
1, 315234, Control_c, 0, 64, 44
1, 315249, Control_c, 0, 64, 48
1, 315263, Control_c, 0, 64, 53
1, 315278, Control_c, 0, 64, 58
1, 315293, Control_c, 0, 64, 60
1, 315308, Control_c, 0, 64, 61
1, 315323, Control_c, 0, 64, 62
1, 315338, Control_c, 0, 64, 64
1, 315353, Control_c, 0, 64, 66
1, 315368, Control_c, 0, 64, 68
1, 315382, Note_on_c, 0, 70, 40
1, 315383, Control_c, 0, 64, 70
1, 315385, Note_on_c, 0, 43, 34
1, 315398, Control_c, 0, 64, 71
1, 315413, Control_c, 0, 64, 72
1, 315427, Control_c, 0, 64, 73
1, 315442, Control_c, 0, 64, 75
1, 315454, Note_off_c, 0, 67, 36
1, 315457, Control_c, 0, 64, 75
1, 315472, Control_c, 0, 64, 76
1, 315614, Note_off_c, 0, 37, 39
1, 315635, Control_c, 0, 64, 76
1, 315694, Control_c, 0, 64, 77
1, 315719, Note_off_c, 0, 70, 38
1, 315734, Note_on_c, 0, 46, 43
1, 315734, Note_on_c, 0, 67, 40
1, 315753, Control_c, 0, 64, 77
1, 315798, Control_c, 0, 64, 78
1, 315835, Control_c, 0, 67, 9
1, 315850, Control_c, 0, 64, 78
1, 315850, Control_c, 0, 67, 15
1, 315865, Control_c, 0, 64, 79
1, 315865, Control_c, 0, 67, 21
1, 315879, Control_c, 0, 67, 26
1, 315894, Control_c, 0, 64, 79
1, 315894, Control_c, 0, 67, 30
1, 315909, Control_c, 0, 64, 80
1, 315909, Control_c, 0, 67, 34
1, 315913, Note_off_c, 0, 43, 35
1, 315924, Control_c, 0, 64, 81
1, 315924, Control_c, 0, 67, 36
1, 315939, Control_c, 0, 64, 81
1, 315939, Control_c, 0, 67, 38
1, 315953, Control_c, 0, 64, 82
1, 315953, Control_c, 0, 67, 41
1, 315968, Control_c, 0, 64, 82
1, 315968, Control_c, 0, 67, 44
1, 315983, Control_c, 0, 64, 83
1, 315983, Control_c, 0, 67, 48
1, 315997, Control_c, 0, 64, 83
1, 315997, Control_c, 0, 67, 52
1, 316012, Control_c, 0, 67, 57
1, 316027, Control_c, 0, 64, 84
1, 316027, Control_c, 0, 67, 62
1, 316042, Control_c, 0, 67, 66
1, 316057, Control_c, 0, 67, 70
1, 316071, Control_c, 0, 67, 75
1, 316086, Control_c, 0, 67, 79
1, 316098, Note_on_c, 0, 49, 40
1, 316101, Control_c, 0, 64, 84
1, 316101, Control_c, 0, 67, 82
1, 316109, Note_on_c, 0, 70, 44
1, 316116, Control_c, 0, 67, 85
1, 316127, Note_off_c, 0, 46, 40
1, 316131, Control_c, 0, 64, 85
1, 316131, Control_c, 0, 67, 87
1, 316146, Control_c, 0, 67, 88
1, 316157, Note_off_c, 0, 77, 38
1, 316161, Control_c, 0, 67, 89
1, 316176, Control_c, 0, 67, 90
1, 316206, Control_c, 0, 64, 85
1, 316235, Note_off_c, 0, 67, 37
1, 316268, Note_off_c, 0, 70, 56
1, 316309, Note_off_c, 0, 49, 35
1, 316443, Control_c, 0, 64, 85
1, 316458, Control_c, 0, 64, 84
1, 316473, Control_c, 0, 64, 83
1, 316477, Note_on_c, 0, 55, 36
1, 316483, Note_on_c, 0, 70, 64
1, 316488, Control_c, 0, 64, 82
1, 316502, Control_c, 0, 64, 80
1, 316510, Note_on_c, 0, 67, 48
1, 316517, Control_c, 0, 64, 79
1, 316532, Control_c, 0, 64, 78
1, 316547, Control_c, 0, 64, 77
1, 316562, Control_c, 0, 64, 75
1, 316584, Control_c, 0, 64, 73
1, 316599, Control_c, 0, 64, 71
1, 316614, Control_c, 0, 64, 70
1, 316628, Control_c, 0, 64, 68
1, 316643, Control_c, 0, 64, 68
1, 316673, Control_c, 0, 64, 67
1, 316688, Control_c, 0, 64, 67
1, 316702, Control_c, 0, 64, 66
1, 316732, Control_c, 0, 64, 66
1, 316776, Control_c, 0, 64, 65
1, 316820, Control_c, 0, 64, 65
1, 316865, Note_on_c, 0, 58, 35
1, 316889, Note_on_c, 0, 63, 40
1, 316944, Note_off_c, 0, 55, 40
1, 316954, Control_c, 0, 64, 65
1, 316980, Note_off_c, 0, 67, 33
1, 317014, Control_c, 0, 64, 66
1, 317014, Control_c, 0, 67, 90
1, 317029, Control_c, 0, 64, 66
1, 317029, Control_c, 0, 67, 91
1, 317043, Control_c, 0, 64, 67
1, 317058, Control_c, 0, 64, 68
1, 317073, Control_c, 0, 64, 68
1, 317073, Control_c, 0, 67, 91
1, 317088, Control_c, 0, 64, 69
1, 317088, Control_c, 0, 67, 93
1, 317103, Control_c, 0, 64, 70
1, 317103, Control_c, 0, 67, 96
1, 317118, Control_c, 0, 64, 71
1, 317118, Control_c, 0, 67, 99
1, 317133, Control_c, 0, 64, 72
1, 317133, Control_c, 0, 67, 101
1, 317147, Control_c, 0, 64, 73
1, 317147, Control_c, 0, 67, 103
1, 317162, Control_c, 0, 64, 75
1, 317162, Control_c, 0, 67, 105
1, 317177, Control_c, 0, 64, 76
1, 317177, Control_c, 0, 67, 107
1, 317192, Control_c, 0, 64, 77
1, 317192, Control_c, 0, 67, 110
1, 317207, Control_c, 0, 64, 78
1, 317207, Control_c, 0, 67, 112
1, 317222, Control_c, 0, 64, 78
1, 317222, Control_c, 0, 67, 116
1, 317237, Control_c, 0, 64, 79
1, 317237, Control_c, 0, 67, 120
1, 317242, Note_on_c, 0, 67, 42
1, 317251, Control_c, 0, 64, 81
1, 317251, Control_c, 0, 67, 123
1, 317255, Note_on_c, 0, 55, 40
1, 317266, Control_c, 0, 64, 82
1, 317266, Control_c, 0, 67, 126
1, 317281, Control_c, 0, 64, 83
1, 317281, Control_c, 0, 67, 127
1, 317296, Control_c, 0, 64, 84
1, 317297, Note_off_c, 0, 63, 31
1, 317311, Control_c, 0, 64, 86
1, 317332, Control_c, 0, 64, 87
1, 317347, Control_c, 0, 64, 88
1, 317362, Control_c, 0, 64, 88
1, 317392, Note_off_c, 0, 67, 53
1, 317441, Note_off_c, 0, 58, 39
1, 317570, Control_c, 0, 64, 88
1, 317599, Control_c, 0, 64, 87
1, 317601, Note_off_c, 0, 70, 59
1, 317622, Note_on_c, 0, 72, 64
1, 317651, Note_on_c, 0, 49, 35
1, 317666, Note_on_c, 0, 63, 42
1, 317673, Control_c, 0, 64, 87
1, 317731, Note_off_c, 0, 55, 46
1, 317732, Control_c, 0, 64, 86
1, 317762, Control_c, 0, 64, 86
1, 317793, Control_c, 0, 64, 85
1, 317816, Note_off_c, 0, 72, 58
1, 317822, Control_c, 0, 64, 85
1, 317831, Note_on_c, 0, 73, 64
1, 317852, Control_c, 0, 64, 84
1, 317866, Control_c, 0, 64, 84
1, 317940, Control_c, 0, 64, 83
1, 318000, Control_c, 0, 64, 83
1, 318015, Control_c, 0, 64, 81
1, 318030, Control_c, 0, 64, 78
1, 318042, Note_on_c, 0, 75, 72
1, 318045, Control_c, 0, 64, 75
1, 318057, Note_on_c, 0, 48, 43
1, 318060, Control_c, 0, 64, 72
1, 318077, Note_off_c, 0, 73, 58
1, 318082, Control_c, 0, 64, 69
1, 318093, Note_on_c, 0, 68, 35
1, 318097, Control_c, 0, 64, 66
1, 318112, Control_c, 0, 64, 63
1, 318127, Control_c, 0, 64, 59
1, 318137, Note_off_c, 0, 49, 39
1, 318142, Control_c, 0, 64, 54
1, 318155, Note_off_c, 0, 63, 41
1, 318156, Control_c, 0, 64, 48
1, 318171, Control_c, 0, 64, 42
1, 318186, Control_c, 0, 64, 39
1, 318201, Control_c, 0, 64, 37
1, 318216, Control_c, 0, 64, 34
1, 318230, Control_c, 0, 64, 30
1, 318245, Control_c, 0, 64, 28
1, 318260, Control_c, 0, 64, 27
1, 318274, Control_c, 0, 64, 26
1, 318289, Control_c, 0, 64, 26
1, 318304, Control_c, 0, 64, 25
1, 318319, Control_c, 0, 64, 26
1, 318334, Control_c, 0, 64, 28
1, 318349, Control_c, 0, 64, 31
1, 318364, Control_c, 0, 64, 32
1, 318379, Control_c, 0, 64, 34
1, 318393, Control_c, 0, 64, 39
1, 318408, Control_c, 0, 64, 47
1, 318423, Control_c, 0, 64, 53
1, 318438, Control_c, 0, 64, 58
1, 318453, Control_c, 0, 64, 61
1, 318467, Control_c, 0, 64, 62
1, 318482, Note_on_c, 0, 63, 37
1, 318482, Control_c, 0, 64, 63
1, 318489, Note_on_c, 0, 51, 27
1, 318497, Control_c, 0, 64, 65
1, 318512, Control_c, 0, 64, 66
1, 318527, Control_c, 0, 64, 67
1, 318542, Control_c, 0, 64, 68
1, 318544, Note_off_c, 0, 68, 45
1, 318548, Note_off_c, 0, 63, 0
1, 318548, Note_on_c, 0, 63, 3
1, 318556, Control_c, 0, 64, 69
1, 318571, Control_c, 0, 64, 70
1, 318587, Control_c, 0, 64, 71
1, 318602, Control_c, 0, 64, 72
1, 318616, Control_c, 0, 64, 73
1, 318631, Control_c, 0, 64, 74
1, 318639, Note_off_c, 0, 48, 35
1, 318646, Control_c, 0, 64, 75
1, 318661, Control_c, 0, 64, 76
1, 318676, Control_c, 0, 64, 77
1, 318690, Control_c, 0, 64, 79
1, 318705, Control_c, 0, 64, 81
1, 318720, Control_c, 0, 64, 83
1, 318735, Control_c, 0, 64, 84
1, 318750, Control_c, 0, 64, 86
1, 318764, Control_c, 0, 64, 86
1, 318779, Control_c, 0, 64, 87
1, 318794, Control_c, 0, 64, 88
1, 318808, Control_c, 0, 64, 88
1, 318835, Note_on_c, 0, 68, 44
1, 318839, Note_on_c, 0, 48, 36
1, 318845, Control_c, 0, 64, 89
1, 318860, Control_c, 0, 64, 89
1, 318890, Control_c, 0, 64, 90
1, 318912, Note_off_c, 0, 51, 27
1, 318925, Note_off_c, 0, 63, 36
1, 319198, Note_off_c, 0, 75, 36
1, 319199, Note_off_c, 0, 48, 38
1, 319210, Note_on_c, 0, 63, 40
1, 319213, Note_on_c, 0, 51, 35
1, 319335, Note_off_c, 0, 68, 37
1, 319468, Control_c, 0, 64, 89
1, 319472, Note_off_c, 0, 63, 42
1, 319483, Control_c, 0, 64, 89
1, 319498, Control_c, 0, 64, 88
1, 319527, Control_c, 0, 64, 87
1, 319542, Control_c, 0, 64, 86
1, 319556, Control_c, 0, 64, 85
1, 319579, Control_c, 0, 64, 83
1, 319592, Note_on_c, 0, 69, 57
1, 319594, Control_c, 0, 64, 81
1, 319606, Note_on_c, 0, 41, 28
1, 319608, Note_on_c, 0, 63, 38
1, 319608, Control_c, 0, 64, 78
1, 319623, Control_c, 0, 64, 74
1, 319625, Note_on_c, 0, 48, 36
1, 319638, Control_c, 0, 64, 70
1, 319652, Control_c, 0, 64, 65
1, 319667, Control_c, 0, 64, 62
1, 319682, Control_c, 0, 64, 58
1, 319697, Control_c, 0, 64, 54
1, 319699, Note_off_c, 0, 51, 36
1, 319712, Control_c, 0, 64, 50
1, 319741, Control_c, 0, 64, 51
1, 319771, Control_c, 0, 64, 52
1, 319786, Control_c, 0, 64, 53
1, 319800, Control_c, 0, 64, 54
1, 319815, Control_c, 0, 64, 55
1, 319830, Control_c, 0, 64, 57
1, 319845, Control_c, 0, 64, 57
1, 319860, Control_c, 0, 64, 58
1, 319875, Control_c, 0, 64, 58
1, 319890, Control_c, 0, 64, 59
1, 319905, Control_c, 0, 64, 60
1, 319919, Control_c, 0, 64, 61
1, 319934, Control_c, 0, 64, 62
1, 319949, Control_c, 0, 64, 62
1, 319964, Control_c, 0, 64, 63
1, 319979, Control_c, 0, 64, 64
1, 319983, Note_on_c, 0, 60, 37
1, 319986, Note_on_c, 0, 53, 31
1, 319993, Control_c, 0, 64, 65
1, 319997, Note_off_c, 0, 63, 44
1, 320008, Control_c, 0, 64, 66
1, 320023, Control_c, 0, 64, 67
1, 320037, Control_c, 0, 64, 69
1, 320052, Control_c, 0, 64, 70
1, 320057, Note_off_c, 0, 48, 23
1, 320067, Control_c, 0, 64, 71
1, 320082, Control_c, 0, 64, 72
1, 320097, Control_c, 0, 64, 73
1, 320111, Control_c, 0, 64, 73
1, 320126, Control_c, 0, 64, 74
1, 320141, Control_c, 0, 64, 74
1, 320156, Control_c, 0, 64, 75
1, 320170, Control_c, 0, 64, 75
1, 320202, Control_c, 0, 64, 76
1, 320216, Control_c, 0, 64, 76
1, 320231, Control_c, 0, 64, 77
1, 320260, Control_c, 0, 64, 77
1, 320290, Control_c, 0, 64, 78
1, 320364, Note_on_c, 0, 48, 39
1, 320368, Note_on_c, 0, 63, 33
1, 320372, Control_c, 0, 64, 78
1, 320420, Note_off_c, 0, 60, 34
1, 320438, Note_off_c, 0, 53, 39
1, 320553, Note_off_c, 0, 41, 36
1, 320735, Note_on_c, 0, 60, 32
1, 320738, Note_on_c, 0, 53, 35
1, 320784, Note_off_c, 0, 63, 42
1, 320820, Note_off_c, 0, 48, 35
1, 320920, Control_c, 0, 64, 78
1, 321024, Control_c, 0, 64, 77
1, 321053, Control_c, 0, 64, 77
1, 321076, Control_c, 0, 64, 76
1, 321090, Control_c, 0, 64, 76
1, 321105, Control_c, 0, 64, 75
1, 321120, Control_c, 0, 64, 74
1, 321125, Note_on_c, 0, 73, 61
1, 321135, Control_c, 0, 64, 72
1, 321147, Note_on_c, 0, 46, 35
1, 321150, Control_c, 0, 64, 69
1, 321151, Note_on_c, 0, 65, 37
1, 321157, Note_on_c, 0, 49, 33
1, 321164, Control_c, 0, 64, 66
1, 321179, Control_c, 0, 64, 62
1, 321194, Control_c, 0, 64, 57
1, 321208, Note_off_c, 0, 53, 37
1, 321209, Control_c, 0, 64, 49
1, 321216, Note_off_c, 0, 60, 46
1, 321223, Control_c, 0, 64, 37
1, 321238, Control_c, 0, 64, 25
1, 321253, Control_c, 0, 64, 22
1, 321268, Control_c, 0, 64, 23
1, 321283, Control_c, 0, 64, 26
1, 321297, Control_c, 0, 64, 29
1, 321312, Control_c, 0, 64, 35
1, 321327, Control_c, 0, 64, 42
1, 321342, Control_c, 0, 64, 48
1, 321356, Control_c, 0, 64, 50
1, 321401, Control_c, 0, 64, 51
1, 321416, Control_c, 0, 64, 52
1, 321431, Control_c, 0, 64, 54
1, 321446, Control_c, 0, 64, 56
1, 321461, Control_c, 0, 64, 58
1, 321476, Control_c, 0, 64, 60
1, 321490, Control_c, 0, 64, 61
1, 321505, Control_c, 0, 64, 62
1, 321517, Note_on_c, 0, 61, 44
1, 321520, Control_c, 0, 64, 63
1, 321530, Note_on_c, 0, 53, 31
1, 321535, Control_c, 0, 64, 64
1, 321550, Control_c, 0, 64, 64
1, 321564, Control_c, 0, 64, 65
1, 321579, Control_c, 0, 64, 67
1, 321584, Note_off_c, 0, 49, 38
1, 321594, Control_c, 0, 64, 68
1, 321598, Note_off_c, 0, 65, 40
1, 321608, Control_c, 0, 64, 69
1, 321623, Control_c, 0, 64, 71
1, 321638, Control_c, 0, 64, 72
1, 321653, Control_c, 0, 64, 74
1, 321668, Control_c, 0, 64, 75
1, 321682, Control_c, 0, 64, 77
1, 321697, Control_c, 0, 64, 78
1, 321712, Control_c, 0, 64, 79
1, 321727, Control_c, 0, 64, 80
1, 321742, Control_c, 0, 64, 80
1, 321756, Control_c, 0, 64, 81
1, 321771, Control_c, 0, 64, 81
1, 321787, Control_c, 0, 64, 82
1, 321803, Control_c, 0, 64, 82
1, 321825, Control_c, 0, 64, 83
1, 321839, Control_c, 0, 64, 83
1, 321854, Control_c, 0, 64, 84
1, 321859, Note_off_c, 0, 69, 1
1, 321893, Note_on_c, 0, 65, 39
1, 321898, Note_on_c, 0, 49, 31
1, 321914, Control_c, 0, 64, 84
1, 321917, Note_off_c, 0, 53, 36
1, 321979, Note_off_c, 0, 61, 37
1, 322263, Note_on_c, 0, 61, 38
1, 322278, Note_on_c, 0, 53, 32
1, 322292, Note_off_c, 0, 46, 41
1, 322330, Note_off_c, 0, 49, 36
1, 322397, Note_off_c, 0, 73, 58
1, 322464, Note_off_c, 0, 61, 37
1, 322510, Note_off_c, 0, 65, 42
1, 322618, Control_c, 0, 64, 84
1, 322633, Control_c, 0, 64, 83
1, 322648, Control_c, 0, 64, 82
1, 322662, Control_c, 0, 64, 79
1, 322677, Note_on_c, 0, 72, 61
1, 322677, Control_c, 0, 64, 74
1, 322692, Control_c, 0, 64, 68
1, 322693, Note_on_c, 0, 39, 26
1, 322702, Note_on_c, 0, 61, 38
1, 322707, Control_c, 0, 64, 61
1, 322711, Note_on_c, 0, 46, 31
1, 322722, Control_c, 0, 64, 51
1, 322737, Control_c, 0, 64, 42
1, 322752, Control_c, 0, 64, 40
1, 322763, Note_off_c, 0, 53, 35
1, 322766, Control_c, 0, 64, 43
1, 322781, Control_c, 0, 64, 46
1, 322796, Control_c, 0, 64, 51
1, 322811, Control_c, 0, 64, 57
1, 322826, Control_c, 0, 64, 62
1, 322841, Control_c, 0, 64, 64
1, 322856, Control_c, 0, 64, 65
1, 322870, Control_c, 0, 64, 66
1, 322885, Control_c, 0, 64, 68
1, 322900, Control_c, 0, 64, 70
1, 322915, Control_c, 0, 64, 72
1, 322930, Control_c, 0, 64, 73
1, 322944, Control_c, 0, 64, 73
1, 322959, Control_c, 0, 64, 74
1, 322965, Note_off_c, 0, 61, 57
1, 322974, Control_c, 0, 64, 74
1, 322981, Note_off_c, 0, 72, 58
1, 322988, Control_c, 0, 64, 75
1, 323003, Control_c, 0, 64, 75
1, 323018, Control_c, 0, 64, 76
1, 323048, Control_c, 0, 64, 76
1, 323077, Control_c, 0, 64, 77
1, 323107, Control_c, 0, 64, 76
1, 323122, Control_c, 0, 64, 74
1, 323133, Note_on_c, 0, 70, 63
1, 323136, Control_c, 0, 64, 71
1, 323142, Note_on_c, 0, 51, 26
1, 323151, Control_c, 0, 64, 67
1, 323163, Note_on_c, 0, 61, 34
1, 323166, Control_c, 0, 64, 64
1, 323181, Control_c, 0, 64, 62
1, 323183, Note_off_c, 0, 46, 36
1, 323225, Control_c, 0, 64, 63
1, 323230, Note_off_c, 0, 51, 0
1, 323230, Note_on_c, 0, 51, 3
1, 323240, Control_c, 0, 64, 64
1, 323255, Control_c, 0, 64, 66
1, 323270, Control_c, 0, 64, 68
1, 323285, Control_c, 0, 64, 71
1, 323300, Control_c, 0, 64, 72
1, 323322, Control_c, 0, 64, 73
1, 323336, Control_c, 0, 64, 74
1, 323348, Note_off_c, 0, 61, 59
1, 323376, Note_off_c, 0, 70, 60
1, 323485, Control_c, 0, 64, 73
1, 323500, Control_c, 0, 64, 72
1, 323515, Control_c, 0, 64, 69
1, 323516, Note_on_c, 0, 68, 65
1, 323530, Note_on_c, 0, 61, 39
1, 323530, Control_c, 0, 64, 64
1, 323532, Note_on_c, 0, 46, 35
1, 323538, Note_off_c, 0, 51, 29
1, 323545, Control_c, 0, 64, 51
1, 323559, Control_c, 0, 64, 0
1, 323619, Control_c, 0, 64, 36
1, 323634, Control_c, 0, 64, 54
1, 323649, Control_c, 0, 64, 62
1, 323664, Control_c, 0, 64, 64
1, 323679, Control_c, 0, 64, 65
1, 323693, Control_c, 0, 64, 66
1, 323708, Control_c, 0, 64, 67
1, 323723, Control_c, 0, 64, 68
1, 323728, Note_off_c, 0, 61, 59
1, 323738, Control_c, 0, 64, 70
1, 323753, Control_c, 0, 64, 71
1, 323759, Note_off_c, 0, 68, 62
1, 323767, Control_c, 0, 64, 72
1, 323782, Control_c, 0, 64, 73
1, 323793, Note_off_c, 0, 39, 38
1, 323811, Control_c, 0, 64, 73
1, 323856, Control_c, 0, 64, 73
1, 323871, Control_c, 0, 64, 70
1, 323884, Note_on_c, 0, 67, 63
1, 323885, Control_c, 0, 64, 66
1, 323900, Control_c, 0, 64, 61
1, 323906, Note_on_c, 0, 51, 31
1, 323909, Note_on_c, 0, 61, 45
1, 323915, Control_c, 0, 64, 49
1, 323930, Control_c, 0, 64, 35
1, 323945, Control_c, 0, 64, 38
1, 323959, Control_c, 0, 64, 44
1, 323974, Control_c, 0, 64, 53
1, 323989, Control_c, 0, 64, 61
1, 324004, Control_c, 0, 64, 65
1, 324014, Note_off_c, 0, 46, 41
1, 324018, Control_c, 0, 64, 68
1, 324033, Control_c, 0, 64, 73
1, 324048, Control_c, 0, 64, 75
1, 324071, Control_c, 0, 64, 77
1, 324072, Note_off_c, 0, 61, 53
1, 324100, Control_c, 0, 64, 77
1, 324122, Note_off_c, 0, 67, 52
1, 324249, Control_c, 0, 64, 77
1, 324264, Control_c, 0, 64, 76
1, 324279, Control_c, 0, 64, 74
1, 324294, Control_c, 0, 64, 72
1, 324299, Note_off_c, 0, 51, 34
1, 324301, Note_on_c, 0, 44, 14
1, 324308, Control_c, 0, 64, 70
1, 324322, Note_on_c, 0, 70, 69
1, 324323, Control_c, 0, 64, 66
1, 324338, Control_c, 0, 64, 64
1, 324345, Note_on_c, 0, 61, 39
1, 324353, Control_c, 0, 64, 61
1, 324354, Note_on_c, 0, 67, 37
1, 324368, Control_c, 0, 64, 56
1, 324382, Control_c, 0, 64, 51
1, 324397, Control_c, 0, 64, 45
1, 324412, Control_c, 0, 64, 39
1, 324427, Control_c, 0, 64, 33
1, 324442, Control_c, 0, 64, 29
1, 324457, Control_c, 0, 64, 27
1, 324472, Control_c, 0, 64, 25
1, 324486, Control_c, 0, 64, 22
1, 324501, Control_c, 0, 64, 18
1, 324516, Control_c, 0, 64, 14
1, 324605, Control_c, 0, 64, 17
1, 324620, Control_c, 0, 64, 18
1, 324634, Control_c, 0, 64, 19
1, 324649, Control_c, 0, 64, 20
1, 324679, Control_c, 0, 64, 21
1, 324714, Note_on_c, 0, 63, 34
1, 324752, Note_on_c, 0, 51, 27
1, 324758, Note_off_c, 0, 61, 44
1, 324767, Control_c, 0, 64, 22
1, 324983, Control_c, 0, 64, 21
1, 325117, Control_c, 0, 64, 22
1, 325120, Note_on_c, 0, 55, 35
1, 325125, Note_on_c, 0, 61, 34
1, 325131, Control_c, 0, 64, 23
1, 325146, Note_off_c, 0, 51, 39
1, 325146, Control_c, 0, 64, 24
1, 325161, Control_c, 0, 64, 25
1, 325169, Note_off_c, 0, 63, 43
1, 325176, Control_c, 0, 64, 27
1, 325190, Control_c, 0, 64, 28
1, 325205, Control_c, 0, 64, 31
1, 325220, Control_c, 0, 64, 34
1, 325235, Control_c, 0, 64, 38
1, 325250, Control_c, 0, 64, 42
1, 325264, Control_c, 0, 64, 45
1, 325279, Control_c, 0, 64, 50
1, 325294, Control_c, 0, 64, 54
1, 325309, Control_c, 0, 64, 57
1, 325324, Control_c, 0, 64, 60
1, 325339, Control_c, 0, 64, 61
1, 325354, Control_c, 0, 64, 62
1, 325369, Control_c, 0, 64, 63
1, 325383, Control_c, 0, 64, 64
1, 325398, Control_c, 0, 64, 66
1, 325413, Control_c, 0, 64, 68
1, 325428, Control_c, 0, 64, 70
1, 325443, Control_c, 0, 64, 73
1, 325457, Control_c, 0, 64, 76
1, 325472, Control_c, 0, 64, 80
1, 325487, Control_c, 0, 64, 82
1, 325502, Control_c, 0, 64, 84
1, 325511, Note_off_c, 0, 61, 32
1, 325515, Note_off_c, 0, 55, 42
1, 325517, Control_c, 0, 64, 85
1, 325521, Note_on_c, 0, 63, 29
1, 325529, Note_on_c, 0, 51, 26
1, 325531, Control_c, 0, 64, 85
1, 325568, Control_c, 0, 64, 86
1, 325598, Note_off_c, 0, 67, 40
1, 325761, Control_c, 0, 64, 85
1, 325776, Control_c, 0, 64, 85
1, 325792, Control_c, 0, 64, 84
1, 325806, Control_c, 0, 64, 84
1, 325821, Control_c, 0, 64, 83
1, 325836, Control_c, 0, 64, 83
1, 325851, Control_c, 0, 64, 82
1, 325866, Control_c, 0, 64, 82
1, 325880, Control_c, 0, 64, 81
1, 325895, Control_c, 0, 64, 81
1, 325925, Control_c, 0, 64, 80
1, 325940, Control_c, 0, 64, 79
1, 325954, Control_c, 0, 64, 77
1, 325969, Control_c, 0, 64, 75
1, 325984, Control_c, 0, 64, 73
1, 325998, Control_c, 0, 64, 69
1, 326013, Control_c, 0, 64, 65
1, 326015, Note_on_c, 0, 68, 44
1, 326028, Control_c, 0, 64, 62
1, 326031, Note_off_c, 0, 63, 31
1, 326038, Note_on_c, 0, 60, 32
1, 326043, Note_on_c, 0, 56, 23
1, 326043, Control_c, 0, 64, 54
1, 326058, Control_c, 0, 64, 44
1, 326073, Control_c, 0, 64, 28
1, 326087, Control_c, 0, 64, 0
1, 326133, Note_off_c, 0, 51, 39
1, 326214, Note_off_c, 0, 70, 33
1, 326781, Note_off_c, 0, 60, 41
1, 326791, Note_off_c, 0, 68, 53
1, 326791, Note_off_c, 0, 44, 42
1, 326808, Note_off_c, 0, 56, 40
1, 327362, Control_c, 0, 64, 26
1, 327378, Control_c, 0, 64, 39
1, 327393, Control_c, 0, 64, 43
1, 327408, Control_c, 0, 64, 46
1, 327423, Control_c, 0, 64, 47
1, 327438, Control_c, 0, 64, 48
1, 327467, Control_c, 0, 64, 48
1, 327482, Control_c, 0, 64, 50
1, 327497, Control_c, 0, 64, 52
1, 327512, Control_c, 0, 64, 55
1, 327526, Note_on_c, 0, 60, 42
1, 327526, Control_c, 0, 64, 57
1, 327541, Control_c, 0, 64, 58
1, 327556, Control_c, 0, 64, 59
1, 327571, Control_c, 0, 64, 59
1, 327585, Control_c, 0, 64, 60
1, 327649, Note_off_c, 0, 60, 56
1, 327659, Control_c, 0, 64, 59
1, 327674, Control_c, 0, 64, 59
1, 327689, Control_c, 0, 64, 58
1, 327704, Control_c, 0, 64, 57
1, 327719, Control_c, 0, 64, 56
1, 327724, Note_on_c, 0, 72, 61
1, 327733, Control_c, 0, 64, 52
1, 327748, Control_c, 0, 64, 44
1, 327763, Control_c, 0, 64, 31
1, 327777, Control_c, 0, 64, 0
1, 327889, Control_c, 0, 64, 18
1, 327903, Control_c, 0, 64, 35
1, 327918, Control_c, 0, 64, 46
1, 327933, Control_c, 0, 64, 54
1, 327948, Control_c, 0, 64, 59
1, 327963, Control_c, 0, 64, 62
1, 327977, Control_c, 0, 64, 63
1, 327992, Control_c, 0, 64, 64
1, 328007, Control_c, 0, 64, 65
1, 328022, Control_c, 0, 64, 66
1, 328037, Control_c, 0, 64, 67
1, 328052, Control_c, 0, 64, 69
1, 328058, Note_on_c, 0, 60, 30
1, 328066, Control_c, 0, 64, 70
1, 328096, Control_c, 0, 64, 70
1, 328126, Control_c, 0, 64, 71
1, 328141, Control_c, 0, 64, 71
1, 328156, Control_c, 0, 64, 72
1, 328171, Control_c, 0, 64, 72
1, 328201, Control_c, 0, 64, 73
1, 328204, Note_off_c, 0, 60, 49
1, 328320, Control_c, 0, 64, 72
1, 328335, Control_c, 0, 64, 72
1, 328349, Control_c, 0, 64, 70
1, 328364, Control_c, 0, 64, 67
1, 328379, Control_c, 0, 64, 64
1, 328394, Control_c, 0, 64, 60
1, 328401, Note_on_c, 0, 60, 38
1, 328408, Control_c, 0, 64, 53
1, 328423, Control_c, 0, 64, 40
1, 328438, Control_c, 0, 64, 0
1, 328542, Control_c, 0, 64, 15
1, 328564, Control_c, 0, 64, 38
1, 328579, Control_c, 0, 64, 51
1, 328594, Control_c, 0, 64, 58
1, 328596, Note_off_c, 0, 60, 57
1, 328609, Control_c, 0, 64, 59
1, 328683, Control_c, 0, 64, 58
1, 328698, Control_c, 0, 64, 57
1, 328713, Control_c, 0, 64, 56
1, 328736, Note_on_c, 0, 60, 40
1, 328757, Control_c, 0, 64, 56
1, 328772, Control_c, 0, 64, 57
1, 328787, Control_c, 0, 64, 59
1, 328801, Control_c, 0, 64, 60
1, 328816, Control_c, 0, 64, 62
1, 328831, Control_c, 0, 64, 63
1, 328861, Control_c, 0, 64, 64
1, 328890, Control_c, 0, 64, 64
1, 328920, Control_c, 0, 64, 65
1, 328934, Control_c, 0, 64, 65
1, 328949, Note_off_c, 0, 60, 51
1, 328949, Control_c, 0, 64, 66
1, 329010, Control_c, 0, 64, 65
1, 329024, Control_c, 0, 64, 63
1, 329039, Control_c, 0, 64, 61
1, 329054, Control_c, 0, 64, 56
1, 329069, Control_c, 0, 64, 52
1, 329078, Note_on_c, 0, 60, 42
1, 329084, Control_c, 0, 64, 51
1, 329098, Control_c, 0, 64, 53
1, 329113, Control_c, 0, 64, 55
1, 329128, Control_c, 0, 64, 56
1, 329143, Control_c, 0, 64, 57
1, 329157, Control_c, 0, 64, 59
1, 329172, Control_c, 0, 64, 60
1, 329187, Control_c, 0, 64, 61
1, 329202, Control_c, 0, 64, 63
1, 329217, Control_c, 0, 64, 63
1, 329232, Control_c, 0, 64, 64
1, 329247, Control_c, 0, 64, 64
1, 329262, Control_c, 0, 64, 65
1, 329277, Control_c, 0, 64, 66
1, 329291, Control_c, 0, 64, 67
1, 329307, Note_off_c, 0, 60, 54
1, 329312, Control_c, 0, 64, 67
1, 329327, Control_c, 0, 64, 68
1, 329342, Control_c, 0, 64, 68
1, 329372, Control_c, 0, 64, 68
1, 329387, Control_c, 0, 64, 66
1, 329402, Control_c, 0, 64, 62
1, 329416, Note_on_c, 0, 80, 68
1, 329417, Control_c, 0, 64, 54
1, 329431, Control_c, 0, 64, 39
1, 329436, Note_on_c, 0, 60, 45
1, 329446, Control_c, 0, 64, 31
1, 329461, Control_c, 0, 64, 36
1, 329476, Control_c, 0, 64, 42
1, 329491, Control_c, 0, 64, 51
1, 329505, Control_c, 0, 64, 57
1, 329520, Control_c, 0, 64, 60
1, 329535, Control_c, 0, 64, 61
1, 329549, Control_c, 0, 64, 62
1, 329564, Control_c, 0, 64, 63
1, 329578, Note_off_c, 0, 72, 37
1, 329579, Control_c, 0, 64, 64
1, 329594, Control_c, 0, 64, 65
1, 329609, Control_c, 0, 64, 66
1, 329623, Control_c, 0, 64, 67
1, 329638, Control_c, 0, 64, 67
1, 329653, Control_c, 0, 64, 68
1, 329659, Note_off_c, 0, 60, 53
1, 329668, Control_c, 0, 64, 69
1, 329682, Control_c, 0, 64, 71
1, 329697, Control_c, 0, 64, 73
1, 329712, Control_c, 0, 64, 73
1, 329727, Control_c, 0, 64, 72
1, 329742, Control_c, 0, 64, 69
1, 329745, Note_on_c, 0, 79, 72
1, 329757, Control_c, 0, 64, 65
1, 329763, Note_on_c, 0, 60, 45
1, 329772, Control_c, 0, 64, 59
1, 329787, Control_c, 0, 64, 56
1, 329802, Control_c, 0, 64, 57
1, 329817, Control_c, 0, 64, 59
1, 329832, Control_c, 0, 64, 62
1, 329838, Note_off_c, 0, 80, 54
1, 329846, Control_c, 0, 64, 64
1, 329861, Control_c, 0, 64, 65
1, 329876, Control_c, 0, 64, 66
1, 329891, Control_c, 0, 64, 68
1, 329906, Control_c, 0, 64, 69
1, 329921, Control_c, 0, 64, 71
1, 329936, Control_c, 0, 64, 74
1, 329936, Control_c, 0, 67, 125
1, 329942, Note_off_c, 0, 60, 56
1, 329950, Control_c, 0, 64, 75
1, 329950, Control_c, 0, 67, 113
1, 329965, Control_c, 0, 64, 77
1, 329965, Control_c, 0, 67, 102
1, 329980, Control_c, 0, 67, 90
1, 329995, Control_c, 0, 64, 76
1, 329995, Control_c, 0, 67, 76
1, 330010, Control_c, 0, 64, 72
1, 330010, Control_c, 0, 67, 61
1, 330025, Control_c, 0, 64, 68
1, 330025, Control_c, 0, 67, 49
1, 330040, Control_c, 0, 64, 65
1, 330040, Control_c, 0, 67, 40
1, 330061, Control_c, 0, 64, 62
1, 330061, Control_c, 0, 67, 37
1, 330076, Control_c, 0, 64, 62
1, 330082, Note_on_c, 0, 77, 72
1, 330091, Control_c, 0, 64, 63
1, 330100, Note_on_c, 0, 60, 41
1, 330106, Control_c, 0, 64, 64
1, 330121, Control_c, 0, 64, 66
1, 330121, Control_c, 0, 67, 37
1, 330135, Control_c, 0, 64, 69
1, 330135, Control_c, 0, 67, 38
1, 330150, Control_c, 0, 64, 73
1, 330165, Control_c, 0, 64, 75
1, 330170, Note_off_c, 0, 79, 56
1, 330180, Control_c, 0, 64, 76
1, 330195, Control_c, 0, 64, 76
1, 330240, Control_c, 0, 64, 77
1, 330254, Control_c, 0, 64, 77
1, 330254, Control_c, 0, 67, 38
1, 330269, Control_c, 0, 67, 39
1, 330298, Control_c, 0, 67, 39
1, 330305, Note_off_c, 0, 60, 37
1, 330343, Control_c, 0, 67, 40
1, 330372, Control_c, 0, 67, 41
1, 330387, Control_c, 0, 64, 77
1, 330387, Control_c, 0, 67, 42
1, 330402, Control_c, 0, 64, 75
1, 330402, Control_c, 0, 67, 42
1, 330417, Control_c, 0, 64, 72
1, 330417, Control_c, 0, 67, 43
1, 330432, Control_c, 0, 64, 67
1, 330444, Note_on_c, 0, 84, 74
1, 330445, Note_on_c, 0, 60, 32
1, 330446, Control_c, 0, 64, 62
1, 330460, Note_on_c, 0, 52, 42
1, 330461, Control_c, 0, 64, 55
1, 330461, Control_c, 0, 67, 43
1, 330474, Note_on_c, 0, 55, 36
1, 330476, Control_c, 0, 64, 46
1, 330491, Control_c, 0, 64, 30
1, 330491, Control_c, 0, 67, 44
1, 330505, Control_c, 0, 64, 0
1, 330506, Note_off_c, 0, 77, 58
1, 330520, Control_c, 0, 67, 45
1, 330595, Control_c, 0, 64, 29
1, 330610, Control_c, 0, 64, 47
1, 330625, Control_c, 0, 64, 56
1, 330640, Control_c, 0, 64, 61
1, 330655, Control_c, 0, 64, 63
1, 330669, Control_c, 0, 64, 65
1, 330684, Control_c, 0, 64, 66
1, 330699, Control_c, 0, 64, 68
1, 330714, Control_c, 0, 64, 69
1, 330725, Note_off_c, 0, 60, 46
1, 330729, Control_c, 0, 64, 70
1, 330742, Note_off_c, 0, 55, 40
1, 330744, Control_c, 0, 64, 68
1, 330758, Control_c, 0, 64, 66
1, 330773, Control_c, 0, 64, 64
1, 330774, Note_off_c, 0, 52, 0
1, 330788, Control_c, 0, 64, 63
1, 330801, Note_on_c, 0, 52, 31
1, 330805, Note_on_c, 0, 55, 40
1, 330808, Note_on_c, 0, 60, 48
1, 330810, Control_c, 0, 67, 44
1, 330825, Control_c, 0, 64, 64
1, 330825, Control_c, 0, 67, 44
1, 330840, Control_c, 0, 64, 65
1, 330855, Control_c, 0, 64, 68
1, 330870, Control_c, 0, 64, 71
1, 330884, Control_c, 0, 64, 72
1, 330899, Control_c, 0, 64, 73
1, 330958, Control_c, 0, 67, 43
1, 331018, Control_c, 0, 67, 44
1, 331021, Note_off_c, 0, 60, 56
1, 331047, Note_off_c, 0, 52, 41
1, 331059, Note_off_c, 0, 55, 34
1, 331077, Control_c, 0, 64, 71
1, 331092, Control_c, 0, 64, 68
1, 331107, Control_c, 0, 64, 64
1, 331121, Control_c, 0, 64, 59
1, 331126, Note_on_c, 0, 52, 52
1, 331126, Note_on_c, 0, 55, 41
1, 331127, Note_on_c, 0, 60, 49
1, 331136, Control_c, 0, 64, 45
1, 331151, Control_c, 0, 64, 29
1, 331166, Control_c, 0, 64, 31
1, 331181, Control_c, 0, 64, 38
1, 331195, Control_c, 0, 64, 45
1, 331210, Control_c, 0, 64, 54
1, 331225, Control_c, 0, 64, 58
1, 331240, Control_c, 0, 64, 60
1, 331255, Control_c, 0, 64, 61
1, 331269, Control_c, 0, 64, 61
1, 331284, Control_c, 0, 64, 62
1, 331299, Control_c, 0, 64, 63
1, 331314, Control_c, 0, 64, 63
1, 331358, Control_c, 0, 64, 64
1, 331368, Note_off_c, 0, 60, 59
1, 331369, Note_off_c, 0, 52, 58
1, 331374, Control_c, 0, 64, 64
1, 331404, Control_c, 0, 64, 63
1, 331418, Control_c, 0, 64, 61
1, 331433, Control_c, 0, 64, 58
1, 331437, Note_off_c, 0, 55, 0
1, 331448, Control_c, 0, 64, 51
1, 331450, Note_on_c, 0, 60, 57
1, 331452, Note_on_c, 0, 55, 41
1, 331458, Note_on_c, 0, 52, 47
1, 331463, Control_c, 0, 64, 44
1, 331478, Control_c, 0, 64, 42
1, 331492, Control_c, 0, 64, 46
1, 331507, Control_c, 0, 64, 50
1, 331522, Control_c, 0, 64, 56
1, 331538, Control_c, 0, 64, 61
1, 331560, Control_c, 0, 64, 63
1, 331575, Control_c, 0, 64, 63
1, 331605, Control_c, 0, 64, 64
1, 331620, Control_c, 0, 64, 65
1, 331634, Control_c, 0, 64, 65
1, 331649, Control_c, 0, 64, 66
1, 331664, Control_c, 0, 64, 66
1, 331682, Note_off_c, 0, 60, 57
1, 331690, Note_off_c, 0, 55, 60
1, 331693, Note_off_c, 0, 52, 54
1, 331694, Control_c, 0, 64, 67
1, 331708, Control_c, 0, 67, 44
1, 331752, Control_c, 0, 64, 66
1, 331767, Control_c, 0, 64, 64
1, 331782, Control_c, 0, 64, 58
1, 331797, Control_c, 0, 64, 46
1, 331801, Note_on_c, 0, 60, 55
1, 331804, Note_on_c, 0, 53, 49
1, 331810, Note_on_c, 0, 56, 46
1, 331812, Control_c, 0, 64, 24
1, 331826, Control_c, 0, 64, 14
1, 331841, Control_c, 0, 64, 23
1, 331856, Control_c, 0, 64, 32
1, 331871, Control_c, 0, 64, 42
1, 331886, Control_c, 0, 64, 51
1, 331900, Control_c, 0, 64, 55
1, 331915, Control_c, 0, 64, 57
1, 331930, Control_c, 0, 64, 58
1, 331945, Control_c, 0, 64, 59
1, 331960, Control_c, 0, 64, 61
1, 331960, Control_c, 0, 67, 44
1, 331974, Control_c, 0, 64, 62
1, 331989, Control_c, 0, 64, 63
1, 332004, Control_c, 0, 64, 63
1, 332019, Control_c, 0, 64, 64
1, 332019, Control_c, 0, 67, 44
1, 332044, Note_off_c, 0, 60, 60
1, 332046, Note_off_c, 0, 53, 59
1, 332048, Note_off_c, 0, 56, 59
1, 332093, Control_c, 0, 64, 63
1, 332108, Control_c, 0, 64, 60
1, 332123, Control_c, 0, 64, 52
1, 332132, Note_on_c, 0, 80, 67
1, 332136, Note_on_c, 0, 60, 53
1, 332138, Control_c, 0, 64, 15
1, 332138, Control_c, 0, 67, 45
1, 332141, Note_on_c, 0, 56, 43
1, 332141, Note_on_c, 0, 53, 51
1, 332152, Control_c, 0, 64, 0
1, 332257, Control_c, 0, 64, 28
1, 332272, Control_c, 0, 64, 39
1, 332285, Control_c, 0, 64, 46
1, 332308, Control_c, 0, 64, 51
1, 332322, Control_c, 0, 64, 55
1, 332337, Control_c, 0, 64, 58
1, 332352, Control_c, 0, 64, 59
1, 332367, Control_c, 0, 64, 61
1, 332381, Control_c, 0, 64, 62
1, 332389, Note_off_c, 0, 60, 60
1, 332391, Note_off_c, 0, 53, 61
1, 332392, Note_off_c, 0, 56, 56
1, 332396, Control_c, 0, 64, 63
1, 332411, Control_c, 0, 64, 63
1, 332441, Control_c, 0, 64, 62
1, 332455, Control_c, 0, 64, 59
1, 332464, Note_on_c, 0, 79, 78
1, 332469, Note_on_c, 0, 56, 40
1, 332470, Control_c, 0, 64, 52
1, 332474, Note_on_c, 0, 60, 48
1, 332482, Note_on_c, 0, 53, 38
1, 332485, Control_c, 0, 64, 28
1, 332500, Control_c, 0, 64, 0
1, 332529, Control_c, 0, 67, 44
1, 332536, Note_off_c, 0, 84, 50
1, 332544, Control_c, 0, 64, 24
1, 332559, Control_c, 0, 64, 48
1, 332559, Control_c, 0, 67, 44
1, 332574, Control_c, 0, 64, 59
1, 332589, Control_c, 0, 64, 63
1, 332589, Control_c, 0, 67, 43
1, 332603, Control_c, 0, 67, 43
1, 332633, Control_c, 0, 64, 63
1, 332633, Control_c, 0, 67, 42
1, 332648, Control_c, 0, 64, 64
1, 332663, Control_c, 0, 64, 65
1, 332678, Control_c, 0, 64, 67
1, 332692, Control_c, 0, 64, 67
1, 332705, Note_off_c, 0, 60, 56
1, 332714, Note_off_c, 0, 53, 54
1, 332722, Note_off_c, 0, 56, 37
1, 332722, Control_c, 0, 64, 67
1, 332737, Control_c, 0, 64, 65
1, 332752, Control_c, 0, 64, 61
1, 332752, Control_c, 0, 67, 42
1, 332767, Control_c, 0, 64, 55
1, 332781, Control_c, 0, 64, 44
1, 332795, Note_on_c, 0, 77, 81
1, 332796, Control_c, 0, 64, 35
1, 332811, Control_c, 0, 64, 38
1, 332812, Note_on_c, 0, 60, 53
1, 332815, Note_on_c, 0, 53, 36
1, 332817, Note_on_c, 0, 56, 37
1, 332826, Control_c, 0, 64, 46
1, 332840, Control_c, 0, 64, 54
1, 332855, Control_c, 0, 64, 61
1, 332859, Note_off_c, 0, 80, 40
1, 332870, Control_c, 0, 64, 62
1, 332881, Note_off_c, 0, 79, 57
1, 332885, Control_c, 0, 64, 63
1, 332914, Control_c, 0, 64, 63
1, 332929, Control_c, 0, 64, 64
1, 332944, Control_c, 0, 64, 65
1, 332945, Note_off_c, 0, 53, 56
1, 332959, Control_c, 0, 64, 66
1, 332964, Note_off_c, 0, 56, 59
1, 332973, Note_off_c, 0, 60, 56
1, 333116, Control_c, 0, 64, 66
1, 333130, Control_c, 0, 64, 65
1, 333145, Control_c, 0, 64, 64
1, 333154, Note_on_c, 0, 64, 53
1, 333158, Note_on_c, 0, 72, 73
1, 333160, Control_c, 0, 64, 62
1, 333175, Control_c, 0, 64, 57
1, 333182, Note_on_c, 0, 58, 37
1, 333185, Note_on_c, 0, 55, 31
1, 333190, Control_c, 0, 64, 46
1, 333190, Control_c, 0, 67, 41
1, 333204, Control_c, 0, 64, 25
1, 333219, Control_c, 0, 64, 0
1, 333264, Control_c, 0, 67, 41
1, 333271, Note_off_c, 0, 77, 58
1, 333293, Control_c, 0, 67, 40
1, 333308, Control_c, 0, 67, 40
1, 333337, Control_c, 0, 64, 19
1, 333337, Control_c, 0, 67, 39
1, 333352, Control_c, 0, 64, 34
1, 333367, Control_c, 0, 64, 44
1, 333367, Control_c, 0, 67, 39
1, 333382, Control_c, 0, 64, 52
1, 333382, Control_c, 0, 67, 38
1, 333396, Control_c, 0, 64, 56
1, 333396, Control_c, 0, 67, 37
1, 333411, Control_c, 0, 64, 57
1, 333411, Control_c, 0, 67, 36
1, 333412, Note_off_c, 0, 64, 60
1, 333418, Note_off_c, 0, 55, 42
1, 333426, Control_c, 0, 67, 35
1, 333441, Control_c, 0, 67, 33
1, 333443, Note_off_c, 0, 58, 40
1, 333456, Control_c, 0, 67, 28
1, 333471, Control_c, 0, 67, 24
1, 333486, Control_c, 0, 64, 57
1, 333486, Control_c, 0, 67, 19
1, 333492, Note_on_c, 0, 64, 50
1, 333501, Control_c, 0, 64, 59
1, 333501, Control_c, 0, 67, 14
1, 333510, Note_on_c, 0, 58, 44
1, 333515, Control_c, 0, 64, 60
1, 333515, Control_c, 0, 67, 10
1, 333519, Note_on_c, 0, 55, 55
1, 333530, Control_c, 0, 64, 61
1, 333530, Control_c, 0, 67, 0
1, 333545, Control_c, 0, 64, 62
1, 333560, Control_c, 0, 64, 62
1, 333575, Control_c, 0, 64, 63
1, 333589, Control_c, 0, 64, 64
1, 333604, Control_c, 0, 64, 65
1, 333619, Control_c, 0, 64, 66
1, 333721, Note_off_c, 0, 55, 52
1, 333732, Note_off_c, 0, 64, 57
1, 333736, Note_off_c, 0, 58, 46
1, 333768, Control_c, 0, 64, 65
1, 333783, Control_c, 0, 64, 64
1, 333805, Control_c, 0, 64, 62
1, 333820, Control_c, 0, 64, 59
1, 333823, Note_on_c, 0, 64, 61
1, 333835, Control_c, 0, 64, 51
1, 333848, Note_on_c, 0, 55, 50
1, 333849, Control_c, 0, 64, 41
1, 333850, Note_on_c, 0, 58, 41
1, 333864, Control_c, 0, 64, 37
1, 333879, Control_c, 0, 64, 41
1, 333894, Control_c, 0, 64, 47
1, 333909, Control_c, 0, 64, 54
1, 333924, Control_c, 0, 64, 60
1, 333939, Control_c, 0, 64, 62
1, 333953, Control_c, 0, 64, 63
1, 333968, Control_c, 0, 64, 64
1, 333983, Control_c, 0, 64, 65
1, 333998, Control_c, 0, 64, 66
1, 334013, Control_c, 0, 64, 67
1, 334042, Control_c, 0, 64, 68
1, 334061, Note_off_c, 0, 64, 62
1, 334067, Note_off_c, 0, 55, 56
1, 334072, Control_c, 0, 64, 68
1, 334079, Note_off_c, 0, 58, 54
1, 334101, Control_c, 0, 64, 67
1, 334116, Control_c, 0, 64, 64
1, 334131, Control_c, 0, 64, 60
1, 334145, Control_c, 0, 64, 52
1, 334149, Note_on_c, 0, 64, 64
1, 334159, Note_on_c, 0, 58, 41
1, 334160, Control_c, 0, 64, 43
1, 334163, Note_on_c, 0, 55, 48
1, 334175, Control_c, 0, 64, 45
1, 334190, Control_c, 0, 64, 51
1, 334205, Control_c, 0, 64, 57
1, 334219, Control_c, 0, 64, 62
1, 334234, Control_c, 0, 64, 65
1, 334249, Control_c, 0, 64, 66
1, 334264, Control_c, 0, 64, 66
1, 334279, Control_c, 0, 64, 67
1, 334294, Control_c, 0, 64, 67
1, 334308, Control_c, 0, 64, 69
1, 334314, Note_off_c, 0, 55, 61
1, 334323, Control_c, 0, 64, 70
1, 334338, Control_c, 0, 64, 71
1, 334353, Control_c, 0, 64, 71
1, 334368, Control_c, 0, 64, 72
1, 334373, Note_off_c, 0, 64, 63
1, 334374, Note_off_c, 0, 58, 55
1, 334398, Control_c, 0, 64, 72
1, 334457, Control_c, 0, 64, 70
1, 334471, Control_c, 0, 64, 65
1, 334478, Note_on_c, 0, 65, 63
1, 334486, Control_c, 0, 64, 59
1, 334493, Note_on_c, 0, 56, 51
1, 334501, Control_c, 0, 64, 45
1, 334505, Note_on_c, 0, 60, 45
1, 334516, Control_c, 0, 64, 40
1, 334531, Control_c, 0, 64, 44
1, 334553, Control_c, 0, 64, 51
1, 334568, Control_c, 0, 64, 59
1, 334583, Control_c, 0, 64, 64
1, 334598, Control_c, 0, 64, 67
1, 334613, Control_c, 0, 64, 69
1, 334628, Control_c, 0, 64, 70
1, 334657, Control_c, 0, 64, 71
1, 334672, Control_c, 0, 64, 71
1, 334717, Control_c, 0, 64, 72
1, 334726, Note_off_c, 0, 60, 53
1, 334727, Note_off_c, 0, 65, 57
1, 334729, Note_off_c, 0, 56, 54
1, 334747, Control_c, 0, 64, 73
1, 334791, Control_c, 0, 64, 71
1, 334806, Control_c, 0, 64, 67
1, 334810, Note_on_c, 0, 80, 75
1, 334816, Note_on_c, 0, 65, 56
1, 334821, Control_c, 0, 64, 61
1, 334821, Note_on_c, 0, 56, 38
1, 334829, Note_on_c, 0, 60, 31
1, 334836, Control_c, 0, 64, 44
1, 334850, Control_c, 0, 64, 21
1, 334865, Control_c, 0, 64, 25
1, 334880, Control_c, 0, 64, 35
1, 334894, Control_c, 0, 64, 46
1, 334909, Control_c, 0, 64, 56
1, 334924, Control_c, 0, 64, 62
1, 334939, Control_c, 0, 64, 64
1, 334946, Note_off_c, 0, 72, 37
1, 334954, Control_c, 0, 64, 64
1, 334968, Control_c, 0, 64, 65
1, 334983, Control_c, 0, 64, 66
1, 334998, Control_c, 0, 64, 66
1, 335013, Control_c, 0, 64, 67
1, 335028, Control_c, 0, 64, 68
1, 335042, Control_c, 0, 64, 69
1, 335057, Control_c, 0, 64, 71
1, 335063, Note_off_c, 0, 65, 57
1, 335066, Note_off_c, 0, 60, 55
1, 335072, Control_c, 0, 64, 72
1, 335087, Control_c, 0, 64, 74
1, 335087, Note_off_c, 0, 56, 44
1, 335101, Control_c, 0, 64, 76
1, 335116, Control_c, 0, 64, 77
1, 335131, Control_c, 0, 64, 74
1, 335137, Note_on_c, 0, 79, 77
1, 335143, Note_on_c, 0, 65, 63
1, 335146, Control_c, 0, 64, 66
1, 335161, Control_c, 0, 64, 53
1, 335163, Note_on_c, 0, 56, 48
1, 335165, Note_on_c, 0, 60, 41
1, 335176, Control_c, 0, 64, 0
1, 335191, Control_c, 0, 64, 10
1, 335206, Control_c, 0, 64, 36
1, 335221, Control_c, 0, 64, 57
1, 335235, Control_c, 0, 64, 65
1, 335250, Control_c, 0, 64, 71
1, 335255, Note_off_c, 0, 80, 34
1, 335265, Control_c, 0, 64, 79
1, 335280, Control_c, 0, 64, 83
1, 335301, Control_c, 0, 64, 85
1, 335316, Control_c, 0, 64, 87
1, 335331, Control_c, 0, 64, 92
1, 335346, Note_off_c, 0, 60, 53
1, 335346, Control_c, 0, 64, 99
1, 335350, Note_off_c, 0, 56, 56
1, 335355, Note_off_c, 0, 65, 56
1, 335361, Control_c, 0, 64, 110
1, 335377, Control_c, 0, 64, 127
1, 335469, Note_on_c, 0, 77, 83
1, 335480, Note_on_c, 0, 65, 51
1, 335484, Note_on_c, 0, 60, 53
1, 335488, Note_on_c, 0, 56, 49
1, 335522, Note_off_c, 0, 79, 54
1, 335534, Note_off_c, 0, 60, 56
1, 335552, Note_off_c, 0, 65, 52
1, 335553, Note_off_c, 0, 56, 55
1, 335791, Control_c, 0, 64, 115
1, 335806, Control_c, 0, 64, 95
1, 335821, Control_c, 0, 64, 78
1, 335822, Note_on_c, 0, 68, 55
1, 335823, Note_on_c, 0, 75, 75
1, 335836, Control_c, 0, 64, 64
1, 335838, Note_on_c, 0, 58, 43
1, 335850, Note_on_c, 0, 65, 42
1, 335851, Control_c, 0, 64, 40
1, 335865, Control_c, 0, 64, 0
1, 335884, Note_off_c, 0, 77, 59
1, 335924, Control_c, 0, 64, 40
1, 335939, Control_c, 0, 64, 58
1, 335954, Control_c, 0, 64, 64
1, 335969, Control_c, 0, 64, 66
1, 335984, Control_c, 0, 64, 68
1, 335999, Control_c, 0, 64, 71
1, 336014, Control_c, 0, 64, 74
1, 336028, Control_c, 0, 64, 79
1, 336050, Control_c, 0, 64, 84
1, 336065, Control_c, 0, 64, 86
1, 336080, Control_c, 0, 64, 87
1, 336095, Control_c, 0, 64, 88
1, 336100, Note_off_c, 0, 58, 37
1, 336103, Note_off_c, 0, 68, 56
1, 336110, Control_c, 0, 64, 88
1, 336124, Control_c, 0, 64, 89
1, 336139, Control_c, 0, 64, 89
1, 336144, Note_off_c, 0, 65, 0
1, 336158, Note_on_c, 0, 68, 54
1, 336163, Note_on_c, 0, 65, 28
1, 336183, Note_on_c, 0, 58, 58
1, 336214, Control_c, 0, 64, 90
1, 336259, Control_c, 0, 64, 90
1, 336389, Note_off_c, 0, 68, 54
1, 336400, Note_off_c, 0, 58, 37
1, 336406, Note_off_c, 0, 65, 41
1, 336467, Control_c, 0, 64, 89
1, 336482, Control_c, 0, 64, 86
1, 336496, Control_c, 0, 64, 78
1, 336504, Note_on_c, 0, 68, 52
1, 336511, Control_c, 0, 64, 68
1, 336513, Note_on_c, 0, 74, 77
1, 336518, Note_on_c, 0, 58, 37
1, 336520, Note_on_c, 0, 65, 42
1, 336526, Control_c, 0, 64, 56
1, 336540, Control_c, 0, 64, 0
1, 336593, Note_off_c, 0, 75, 58
1, 336600, Control_c, 0, 64, 44
1, 336614, Control_c, 0, 64, 59
1, 336629, Control_c, 0, 64, 64
1, 336644, Control_c, 0, 64, 66
1, 336658, Control_c, 0, 64, 67
1, 336673, Control_c, 0, 64, 67
1, 336688, Control_c, 0, 64, 68
1, 336703, Control_c, 0, 64, 70
1, 336718, Control_c, 0, 64, 72
1, 336729, Note_off_c, 0, 58, 41
1, 336732, Control_c, 0, 64, 72
1, 336747, Control_c, 0, 64, 73
1, 336750, Note_off_c, 0, 68, 36
1, 336762, Note_off_c, 0, 65, 33
1, 336762, Control_c, 0, 64, 73
1, 336800, Control_c, 0, 64, 74
1, 336844, Control_c, 0, 64, 74
1, 336845, Note_on_c, 0, 65, 28
1, 336851, Note_on_c, 0, 58, 43
1, 336855, Note_on_c, 0, 68, 52
1, 336859, Control_c, 0, 64, 75
1, 336903, Control_c, 0, 64, 75
1, 336985, Note_off_c, 0, 58, 37
1, 337012, Note_off_c, 0, 68, 51
1, 337024, Note_off_c, 0, 65, 38
1, 337170, Control_c, 0, 64, 72
1, 337185, Control_c, 0, 64, 65
1, 337188, Note_on_c, 0, 68, 52
1, 337190, Note_on_c, 0, 59, 53
1, 337200, Control_c, 0, 64, 51
1, 337206, Note_on_c, 0, 65, 56
1, 337215, Control_c, 0, 64, 0
1, 337289, Control_c, 0, 64, 56
1, 337304, Control_c, 0, 64, 66
1, 337319, Control_c, 0, 64, 72
1, 337334, Control_c, 0, 64, 76
1, 337349, Control_c, 0, 64, 77
1, 337378, Control_c, 0, 64, 77
1, 337393, Control_c, 0, 64, 78
1, 337408, Control_c, 0, 64, 78
1, 337412, Note_off_c, 0, 59, 38
1, 337445, Note_off_c, 0, 68, 38
1, 337453, Note_off_c, 0, 65, 36
1, 337460, Note_off_c, 0, 74, 58
1, 337515, Note_on_c, 0, 68, 45
1, 337524, Note_on_c, 0, 65, 27
1, 337537, Note_on_c, 0, 59, 47
1, 337595, Note_on_c, 0, 75, 62
1, 337623, Control_c, 0, 64, 78
1, 337667, Control_c, 0, 64, 77
1, 337668, Note_on_c, 0, 74, 74
1, 337681, Note_off_c, 0, 68, 57
1, 337696, Control_c, 0, 64, 77
1, 337708, Note_off_c, 0, 65, 41
1, 337726, Control_c, 0, 64, 76
1, 337731, Note_off_c, 0, 75, 60
1, 337731, Note_off_c, 0, 59, 30
1, 337739, Note_off_c, 0, 74, 63
1, 337741, Control_c, 0, 64, 76
1, 337745, Note_on_c, 0, 72, 73
1, 337756, Control_c, 0, 64, 75
1, 337772, Control_c, 0, 64, 75
1, 337786, Control_c, 0, 64, 74
1, 337799, Note_off_c, 0, 72, 62
1, 337801, Control_c, 0, 64, 74
1, 337815, Note_on_c, 0, 74, 72
1, 337816, Control_c, 0, 64, 73
1, 337831, Control_c, 0, 64, 72
1, 337846, Control_c, 0, 64, 71
1, 337860, Control_c, 0, 64, 69
1, 337875, Control_c, 0, 64, 67
1, 337885, Note_on_c, 0, 59, 34
1, 337890, Control_c, 0, 64, 65
1, 337897, Note_on_c, 0, 68, 53
1, 337905, Control_c, 0, 64, 62
1, 337906, Note_on_c, 0, 62, 41
1, 337919, Control_c, 0, 64, 56
1, 337920, Note_on_c, 0, 77, 80
1, 337934, Control_c, 0, 64, 38
1, 337949, Control_c, 0, 64, 0
1, 337963, Note_off_c, 0, 74, 62
1, 338091, Note_off_c, 0, 68, 57
1, 338095, Note_off_c, 0, 59, 47
1, 338097, Control_c, 0, 64, 54
1, 338112, Control_c, 0, 64, 63
1, 338123, Note_off_c, 0, 62, 38
1, 338127, Control_c, 0, 64, 65
1, 338142, Control_c, 0, 64, 66
1, 338157, Control_c, 0, 64, 68
1, 338172, Control_c, 0, 64, 73
1, 338186, Control_c, 0, 64, 81
1, 338187, Note_on_c, 0, 68, 34
1, 338194, Note_on_c, 0, 62, 30
1, 338199, Note_on_c, 0, 59, 47
1, 338201, Control_c, 0, 64, 87
1, 338216, Control_c, 0, 64, 90
1, 338231, Control_c, 0, 64, 91
1, 338246, Control_c, 0, 64, 92
1, 338260, Control_c, 0, 64, 93
1, 338276, Control_c, 0, 64, 95
1, 338313, Control_c, 0, 64, 95
1, 338377, Note_off_c, 0, 68, 41
1, 338389, Note_on_c, 0, 75, 69
1, 338403, Note_off_c, 0, 62, 37
1, 338415, Note_off_c, 0, 59, 30
1, 338424, Note_off_c, 0, 77, 58
1, 338490, Note_off_c, 0, 75, 63
1, 338550, Control_c, 0, 64, 95
1, 338565, Control_c, 0, 64, 93
1, 338580, Control_c, 0, 64, 91
1, 338595, Control_c, 0, 64, 87
1, 338598, Note_on_c, 0, 67, 41
1, 338610, Control_c, 0, 64, 80
1, 338619, Note_on_c, 0, 60, 30
1, 338625, Control_c, 0, 64, 72
1, 338627, Note_on_c, 0, 63, 22
1, 338640, Control_c, 0, 64, 64
1, 338648, Note_on_c, 0, 75, 67
1, 338655, Control_c, 0, 64, 54
1, 338670, Control_c, 0, 64, 10
1, 338684, Control_c, 0, 64, 0
1, 338803, Control_c, 0, 64, 14
1, 338817, Control_c, 0, 64, 39
1, 338832, Control_c, 0, 64, 49
1, 338847, Control_c, 0, 64, 55
1, 338861, Control_c, 0, 64, 57
1, 338871, Note_off_c, 0, 67, 46
1, 338891, Note_off_c, 0, 60, 38
1, 338891, Control_c, 0, 64, 57
1, 338897, Note_off_c, 0, 63, 37
1, 338906, Control_c, 0, 64, 56
1, 338906, Control_c, 0, 67, 9
1, 338921, Control_c, 0, 64, 55
1, 338921, Control_c, 0, 67, 15
1, 338935, Control_c, 0, 64, 55
1, 338935, Control_c, 0, 67, 23
1, 338950, Control_c, 0, 67, 31
1, 338962, Note_on_c, 0, 63, 24
1, 338963, Note_on_c, 0, 67, 35
1, 338965, Control_c, 0, 67, 38
1, 338966, Note_on_c, 0, 60, 23
1, 338980, Control_c, 0, 64, 55
1, 338980, Control_c, 0, 67, 44
1, 338995, Control_c, 0, 64, 56
1, 338995, Control_c, 0, 67, 50
1, 339009, Control_c, 0, 64, 57
1, 339009, Control_c, 0, 67, 56
1, 339024, Control_c, 0, 64, 57
1, 339024, Control_c, 0, 67, 61
1, 339047, Control_c, 0, 67, 66
1, 339061, Control_c, 0, 67, 71
1, 339076, Control_c, 0, 67, 75
1, 339091, Control_c, 0, 64, 58
1, 339091, Control_c, 0, 67, 79
1, 339106, Control_c, 0, 64, 58
1, 339106, Control_c, 0, 67, 83
1, 339121, Control_c, 0, 64, 59
1, 339121, Control_c, 0, 67, 86
1, 339135, Control_c, 0, 64, 59
1, 339135, Control_c, 0, 67, 90
1, 339150, Control_c, 0, 64, 60
1, 339150, Control_c, 0, 67, 93
1, 339165, Control_c, 0, 64, 60
1, 339165, Control_c, 0, 67, 96
1, 339180, Control_c, 0, 67, 99
1, 339191, Note_off_c, 0, 67, 53
1, 339195, Control_c, 0, 64, 61
1, 339195, Control_c, 0, 67, 101
1, 339210, Note_off_c, 0, 60, 40
1, 339210, Control_c, 0, 67, 102
1, 339213, Note_off_c, 0, 63, 40
1, 339224, Control_c, 0, 64, 60
1, 339224, Control_c, 0, 67, 102
1, 339239, Control_c, 0, 64, 59
1, 339254, Control_c, 0, 64, 57
1, 339254, Control_c, 0, 67, 103
1, 339269, Control_c, 0, 64, 54
1, 339284, Control_c, 0, 64, 51
1, 339293, Note_on_c, 0, 63, 34
1, 339293, Note_on_c, 0, 67, 38
1, 339295, Note_on_c, 0, 60, 40
1, 339299, Control_c, 0, 64, 49
1, 339299, Control_c, 0, 67, 103
1, 339313, Control_c, 0, 67, 104
1, 339328, Control_c, 0, 64, 51
1, 339328, Control_c, 0, 67, 105
1, 339343, Control_c, 0, 64, 52
1, 339343, Control_c, 0, 67, 107
1, 339358, Control_c, 0, 64, 53
1, 339358, Control_c, 0, 67, 108
1, 339373, Control_c, 0, 67, 108
1, 339388, Control_c, 0, 64, 53
1, 339418, Control_c, 0, 64, 54
1, 339433, Control_c, 0, 64, 56
1, 339448, Control_c, 0, 64, 59
1, 339462, Control_c, 0, 64, 60
1, 339477, Control_c, 0, 64, 61
1, 339492, Control_c, 0, 64, 63
1, 339501, Note_off_c, 0, 67, 53
1, 339502, Note_off_c, 0, 60, 51
1, 339507, Control_c, 0, 64, 65
1, 339522, Control_c, 0, 64, 67
1, 339522, Note_off_c, 0, 63, 42
1, 339537, Control_c, 0, 64, 70
1, 339552, Control_c, 0, 64, 74
1, 339566, Control_c, 0, 64, 77
1, 339581, Control_c, 0, 64, 79
1, 339595, Note_off_c, 0, 75, 57
1, 339596, Control_c, 0, 64, 80
1, 339635, Note_on_c, 0, 67, 50
1, 339638, Note_on_c, 0, 63, 34
1, 339641, Note_on_c, 0, 60, 46
1, 339655, Control_c, 0, 67, 108
1, 339758, Control_c, 0, 67, 107
1, 339787, Note_off_c, 0, 67, 52
1, 339804, Note_off_c, 0, 60, 37
1, 339825, Control_c, 0, 64, 79
1, 339839, Control_c, 0, 64, 79
1, 339840, Note_off_c, 0, 63, 41
1, 339883, Control_c, 0, 64, 78
1, 339913, Control_c, 0, 64, 78
1, 339928, Control_c, 0, 64, 77
1, 339943, Control_c, 0, 64, 77
1, 339957, Control_c, 0, 64, 76
1, 339972, Control_c, 0, 64, 74
1, 339987, Control_c, 0, 64, 71
1, 339989, Note_on_c, 0, 63, 26
1, 340002, Control_c, 0, 64, 67
1, 340002, Control_c, 0, 67, 108
1, 340003, Note_on_c, 0, 65, 66
1, 340017, Note_on_c, 0, 56, 39
1, 340017, Control_c, 0, 64, 61
1, 340032, Control_c, 0, 64, 45
1, 340047, Control_c, 0, 64, 0
1, 340047, Control_c, 0, 67, 108
1, 340077, Control_c, 0, 67, 109
1, 340166, Control_c, 0, 64, 37
1, 340181, Control_c, 0, 64, 51
1, 340196, Control_c, 0, 64, 59
1, 340205, Note_off_c, 0, 56, 37
1, 340211, Control_c, 0, 64, 61
1, 340226, Control_c, 0, 64, 63
1, 340231, Note_off_c, 0, 63, 43
1, 340240, Control_c, 0, 64, 64
1, 340255, Control_c, 0, 64, 65
1, 340270, Control_c, 0, 64, 67
1, 340285, Control_c, 0, 64, 69
1, 340300, Control_c, 0, 64, 72
1, 340314, Control_c, 0, 64, 73
1, 340314, Control_c, 0, 67, 109
1, 340329, Note_on_c, 0, 63, 43
1, 340329, Control_c, 0, 64, 75
1, 340329, Control_c, 0, 67, 110
1, 340344, Control_c, 0, 64, 77
1, 340344, Control_c, 0, 67, 110
1, 340347, Note_on_c, 0, 56, 37
1, 340359, Control_c, 0, 64, 79
1, 340359, Control_c, 0, 67, 111
1, 340374, Control_c, 0, 64, 80
1, 340374, Control_c, 0, 67, 115
1, 340388, Control_c, 0, 64, 81
1, 340388, Control_c, 0, 67, 118
1, 340403, Control_c, 0, 64, 81
1, 340403, Control_c, 0, 67, 121
1, 340418, Control_c, 0, 67, 123
1, 340433, Control_c, 0, 67, 125
1, 340448, Control_c, 0, 67, 126
1, 340462, Control_c, 0, 67, 126
1, 340477, Control_c, 0, 67, 127
1, 340493, Note_off_c, 0, 56, 50
1, 340562, Note_off_c, 0, 63, 43
1, 340595, Note_off_c, 0, 65, 55
1, 340603, Control_c, 0, 64, 81
1, 340618, Control_c, 0, 64, 80
1, 340632, Control_c, 0, 64, 79
1, 340647, Control_c, 0, 64, 79
1, 340662, Control_c, 0, 64, 78
1, 340677, Control_c, 0, 64, 78
1, 340689, Note_on_c, 0, 63, 38
1, 340691, Note_on_c, 0, 56, 40
1, 340692, Control_c, 0, 64, 77
1, 340706, Control_c, 0, 64, 76
1, 340721, Control_c, 0, 64, 75
1, 340736, Control_c, 0, 64, 74
1, 340743, Note_on_c, 0, 67, 46
1, 340751, Control_c, 0, 64, 74
1, 340780, Control_c, 0, 64, 73
1, 340783, Note_off_c, 0, 56, 53
1, 340792, Note_off_c, 0, 63, 37
1, 340793, Note_on_c, 0, 65, 61
1, 340795, Control_c, 0, 64, 73
1, 340810, Control_c, 0, 64, 72
1, 340811, Note_off_c, 0, 67, 57
1, 340825, Control_c, 0, 64, 71
1, 340840, Control_c, 0, 64, 71
1, 340845, Note_off_c, 0, 65, 63
1, 340855, Control_c, 0, 64, 70
1, 340869, Control_c, 0, 64, 70
1, 340880, Note_on_c, 0, 64, 53
1, 340884, Control_c, 0, 64, 69
1, 340899, Control_c, 0, 64, 68
1, 340905, Note_off_c, 0, 64, 58
1, 340914, Control_c, 0, 64, 68
1, 340929, Control_c, 0, 64, 67
1, 340930, Note_on_c, 0, 65, 60
1, 340944, Control_c, 0, 64, 66
1, 340959, Control_c, 0, 64, 64
1, 340974, Control_c, 0, 64, 62
1, 340989, Control_c, 0, 64, 58
1, 341004, Control_c, 0, 64, 45
1, 341019, Control_c, 0, 64, 0
1, 341023, Note_on_c, 0, 56, 37
1, 341035, Note_on_c, 0, 63, 37
1, 341036, Note_on_c, 0, 68, 66
1, 341088, Note_off_c, 0, 65, 48
1, 341137, Control_c, 0, 64, 24
1, 341152, Control_c, 0, 64, 59
1, 341167, Control_c, 0, 64, 65
1, 341182, Control_c, 0, 64, 66
1, 341197, Control_c, 0, 64, 67
1, 341205, Note_off_c, 0, 68, 63
1, 341206, Note_on_c, 0, 72, 59
1, 341226, Control_c, 0, 64, 67
1, 341236, Note_off_c, 0, 72, 66
1, 341329, Note_off_c, 0, 56, 36
1, 341337, Control_c, 0, 64, 67
1, 341345, Note_on_c, 0, 71, 62
1, 341352, Control_c, 0, 64, 65
1, 341367, Control_c, 0, 64, 63
1, 341382, Control_c, 0, 64, 60
1, 341394, Note_on_c, 0, 72, 61
1, 341397, Control_c, 0, 64, 53
1, 341398, Note_off_c, 0, 71, 61
1, 341411, Control_c, 0, 64, 36
1, 341422, Note_off_c, 0, 63, 43
1, 341426, Control_c, 0, 64, 0
1, 341450, Note_off_c, 0, 72, 65
1, 341455, Note_on_c, 0, 74, 62
1, 341522, Note_off_c, 0, 74, 63
1, 341534, Note_on_c, 0, 72, 76
1, 341574, Control_c, 0, 67, 127
1, 341729, Note_on_c, 0, 70, 78
1, 341755, Note_off_c, 0, 72, 53
1, 341934, Note_on_c, 0, 67, 36
1, 341941, Note_on_c, 0, 79, 73
1, 341957, Note_on_c, 0, 63, 23
1, 341957, Note_on_c, 0, 58, 26
1, 341997, Note_off_c, 0, 70, 58
1, 342146, Control_c, 0, 64, 49
1, 342160, Control_c, 0, 64, 58
1, 342181, Note_off_c, 0, 67, 48
1, 342193, Note_off_c, 0, 58, 41
1, 342205, Control_c, 0, 64, 58
1, 342214, Note_off_c, 0, 63, 40
1, 342220, Control_c, 0, 64, 57
1, 342235, Control_c, 0, 64, 57
1, 342250, Control_c, 0, 64, 56
1, 342265, Control_c, 0, 64, 56
1, 342277, Note_on_c, 0, 67, 42
1, 342279, Control_c, 0, 64, 55
1, 342287, Note_on_c, 0, 58, 43
1, 342288, Note_on_c, 0, 63, 37
1, 342339, Control_c, 0, 64, 56
1, 342353, Control_c, 0, 64, 56
1, 342383, Control_c, 0, 64, 57
1, 342412, Control_c, 0, 64, 57
1, 342472, Control_c, 0, 64, 57
1, 342481, Note_off_c, 0, 58, 53
1, 342501, Control_c, 0, 64, 56
1, 342509, Note_off_c, 0, 67, 47
1, 342531, Control_c, 0, 64, 56
1, 342533, Note_off_c, 0, 63, 41
1, 342546, Control_c, 0, 64, 55
1, 342621, Control_c, 0, 64, 54
1, 342634, Note_on_c, 0, 77, 66
1, 342636, Control_c, 0, 64, 53
1, 342643, Note_on_c, 0, 58, 30
1, 342650, Control_c, 0, 64, 52
1, 342658, Note_on_c, 0, 63, 25
1, 342661, Note_on_c, 0, 67, 38
1, 342665, Control_c, 0, 64, 51
1, 342680, Control_c, 0, 64, 50
1, 342695, Control_c, 0, 64, 50
1, 342709, Control_c, 0, 64, 49
1, 342724, Control_c, 0, 64, 49
1, 342739, Control_c, 0, 64, 47
1, 342754, Control_c, 0, 64, 46
1, 342769, Control_c, 0, 64, 46
1, 342791, Control_c, 0, 64, 45
1, 342806, Control_c, 0, 64, 44
1, 342821, Control_c, 0, 64, 42
1, 342827, Note_on_c, 0, 75, 71
1, 342831, Note_off_c, 0, 67, 38
1, 342836, Control_c, 0, 64, 41
1, 342851, Control_c, 0, 64, 40
1, 342865, Control_c, 0, 64, 39
1, 342895, Control_c, 0, 64, 38
1, 342909, Control_c, 0, 64, 38
1, 342911, Note_off_c, 0, 63, 51
1, 342924, Control_c, 0, 64, 37
1, 342939, Control_c, 0, 64, 37
1, 342954, Control_c, 0, 64, 36
1, 342955, Note_off_c, 0, 79, 35
1, 342966, Note_off_c, 0, 58, 57
1, 342969, Control_c, 0, 64, 36
1, 342983, Control_c, 0, 64, 35
1, 342998, Control_c, 0, 64, 35
1, 343013, Control_c, 0, 64, 34
1, 343016, Note_on_c, 0, 74, 71
1, 343032, Note_off_c, 0, 77, 32
1, 343043, Control_c, 0, 64, 34
1, 343072, Control_c, 0, 64, 34
1, 343096, Note_off_c, 0, 75, 57
1, 343102, Control_c, 0, 64, 35
1, 343162, Control_c, 0, 64, 34
1, 343180, Note_on_c, 0, 72, 72
1, 343183, Note_off_c, 0, 74, 61
1, 343191, Control_c, 0, 64, 34
1, 343221, Control_c, 0, 64, 33
1, 343235, Control_c, 0, 64, 32
1, 343265, Control_c, 0, 64, 32
1, 343295, Control_c, 0, 64, 31
1, 343324, Control_c, 0, 64, 31
1, 343357, Note_on_c, 0, 46, 37
1, 343361, Note_on_c, 0, 56, 33
1, 343364, Note_on_c, 0, 70, 67
1, 343370, Control_c, 0, 64, 31
1, 343377, Note_on_c, 0, 50, 31
1, 343392, Note_off_c, 0, 72, 58
1, 343414, Control_c, 0, 64, 32
1, 343517, Control_c, 0, 64, 31
1, 343536, Note_on_c, 0, 69, 65
1, 343539, Control_c, 0, 64, 31
1, 343554, Control_c, 0, 64, 30
1, 343569, Control_c, 0, 64, 29
1, 343584, Control_c, 0, 64, 29
1, 343599, Control_c, 0, 64, 28
1, 343609, Note_off_c, 0, 70, 55
1, 343621, Note_off_c, 0, 46, 40
1, 343640, Note_off_c, 0, 50, 37
1, 343643, Control_c, 0, 64, 28
1, 343645, Note_off_c, 0, 56, 36
1, 343730, Note_on_c, 0, 72, 68
1, 343737, Note_on_c, 0, 46, 38
1, 343737, Note_on_c, 0, 56, 23
1, 343747, Note_on_c, 0, 50, 19
1, 343768, Note_off_c, 0, 69, 57
1, 343865, Control_c, 0, 64, 27
1, 343880, Control_c, 0, 64, 26
1, 343895, Control_c, 0, 64, 26
1, 343910, Control_c, 0, 64, 23
1, 343917, Note_on_c, 0, 70, 63
1, 343925, Control_c, 0, 64, 20
1, 343939, Control_c, 0, 64, 15
1, 343943, Note_off_c, 0, 56, 41
1, 343945, Note_off_c, 0, 46, 41
1, 343947, Note_off_c, 0, 50, 38
1, 343954, Control_c, 0, 64, 0
1, 343962, Note_off_c, 0, 72, 54
1, 344119, Note_on_c, 0, 56, 22
1, 344124, Note_on_c, 0, 68, 52
1, 344128, Note_on_c, 0, 46, 23
1, 344137, Note_on_c, 0, 50, 15
1, 344249, Note_off_c, 0, 70, 33
1, 344312, Note_off_c, 0, 46, 35
1, 344316, Note_off_c, 0, 50, 35
1, 344326, Note_off_c, 0, 56, 37
1, 344345, Note_on_c, 0, 65, 49
1, 344363, Note_off_c, 0, 68, 56
1, 344626, Note_on_c, 0, 63, 37
1, 344631, Note_on_c, 0, 55, 27
1, 344635, Note_on_c, 0, 51, 27
1, 344722, Note_off_c, 0, 65, 34
1, 345354, Note_off_c, 0, 63, 57
1, 345365, Note_off_c, 0, 55, 42
1, 345368, Note_off_c, 0, 51, 40
1, 345852, Note_on_c, 0, 58, 52
1, 346111, Control_c, 0, 67, 120
1, 346125, Control_c, 0, 67, 110
1, 346140, Control_c, 0, 67, 99
1, 346155, Control_c, 0, 67, 88
1, 346170, Control_c, 0, 67, 76
1, 346185, Control_c, 0, 67, 66
1, 346199, Control_c, 0, 67, 55
1, 346214, Control_c, 0, 67, 42
1, 346229, Control_c, 0, 67, 31
1, 346244, Control_c, 0, 67, 22
1, 346259, Control_c, 0, 67, 15
1, 346274, Control_c, 0, 67, 10
1, 346289, Control_c, 0, 67, 0
1, 346313, Note_on_c, 0, 55, 55
1, 346404, Note_off_c, 0, 58, 62
1, 346422, Control_c, 0, 64, 15
1, 346437, Control_c, 0, 64, 23
1, 346451, Control_c, 0, 64, 28
1, 346466, Control_c, 0, 64, 29
1, 346481, Control_c, 0, 64, 31
1, 346496, Control_c, 0, 64, 32
1, 346511, Control_c, 0, 64, 34
1, 346533, Control_c, 0, 64, 35
1, 346548, Control_c, 0, 64, 36
1, 346563, Control_c, 0, 64, 36
1, 346578, Control_c, 0, 64, 37
1, 346593, Control_c, 0, 64, 38
1, 346608, Control_c, 0, 64, 39
1, 346638, Control_c, 0, 64, 39
1, 346677, Note_on_c, 0, 58, 57
1, 346748, Note_off_c, 0, 55, 55
1, 346830, Control_c, 0, 64, 39
1, 346845, Control_c, 0, 64, 38
1, 346874, Control_c, 0, 64, 38
1, 346934, Control_c, 0, 64, 37
1, 346948, Control_c, 0, 64, 37
1, 346963, Control_c, 0, 64, 36
1, 347016, Note_on_c, 0, 55, 68
1, 347111, Control_c, 0, 64, 37
1, 347126, Control_c, 0, 64, 38
1, 347144, Note_off_c, 0, 58, 36
1, 347156, Control_c, 0, 64, 38
1, 347171, Control_c, 0, 64, 39
1, 347186, Control_c, 0, 64, 41
1, 347200, Control_c, 0, 64, 44
1, 347215, Control_c, 0, 64, 47
1, 347230, Control_c, 0, 64, 51
1, 347245, Control_c, 0, 64, 54
1, 347260, Control_c, 0, 64, 57
1, 347281, Control_c, 0, 64, 59
1, 347296, Control_c, 0, 64, 60
1, 347311, Control_c, 0, 64, 61
1, 347326, Control_c, 0, 64, 62
1, 347341, Control_c, 0, 64, 63
1, 347357, Control_c, 0, 64, 64
1, 347362, Note_on_c, 0, 51, 71
1, 347371, Control_c, 0, 64, 66
1, 347386, Control_c, 0, 64, 69
1, 347401, Control_c, 0, 64, 72
1, 347410, Note_off_c, 0, 55, 61
1, 347416, Control_c, 0, 64, 77
1, 347430, Control_c, 0, 64, 81
1, 347445, Control_c, 0, 64, 85
1, 347460, Control_c, 0, 64, 89
1, 347475, Control_c, 0, 64, 91
1, 347490, Control_c, 0, 64, 92
1, 347505, Control_c, 0, 64, 93
1, 347535, Control_c, 0, 64, 94
1, 347579, Note_off_c, 0, 51, 55
1, 347712, Control_c, 0, 64, 92
1, 347727, Control_c, 0, 64, 88
1, 347734, Note_on_c, 0, 56, 60
1, 347742, Control_c, 0, 64, 80
1, 347745, Note_on_c, 0, 53, 48
1, 347753, Note_on_c, 0, 51, 50
1, 347757, Control_c, 0, 64, 72
1, 347765, Note_on_c, 0, 34, 47
1, 347771, Control_c, 0, 64, 64
1, 347786, Control_c, 0, 64, 48
1, 347801, Control_c, 0, 64, 0
1, 348194, Note_on_c, 0, 50, 51
1, 348244, Note_off_c, 0, 51, 54
1, 348283, Control_c, 0, 64, 40
1, 348298, Control_c, 0, 64, 58
1, 348313, Control_c, 0, 64, 64
1, 348328, Control_c, 0, 64, 67
1, 348343, Control_c, 0, 64, 69
1, 348357, Control_c, 0, 64, 72
1, 348372, Control_c, 0, 64, 74
1, 348387, Control_c, 0, 64, 75
1, 348390, Note_off_c, 0, 56, 38
1, 348402, Control_c, 0, 64, 76
1, 348402, Note_off_c, 0, 50, 58
1, 348412, Note_off_c, 0, 53, 57
1, 348502, Note_on_c, 0, 56, 61
1, 348506, Control_c, 0, 64, 75
1, 348512, Note_on_c, 0, 53, 49
1, 348520, Control_c, 0, 64, 72
1, 348529, Note_on_c, 0, 50, 57
1, 348535, Control_c, 0, 64, 68
1, 348550, Control_c, 0, 64, 64
1, 348565, Control_c, 0, 64, 57
1, 348579, Control_c, 0, 64, 46
1, 348594, Control_c, 0, 64, 25
1, 348609, Control_c, 0, 64, 0
1, 348810, Control_c, 0, 64, 23
1, 348825, Control_c, 0, 64, 46
1, 348840, Control_c, 0, 64, 55
1, 348854, Control_c, 0, 64, 59
1, 348869, Control_c, 0, 64, 61
1, 348871, Note_on_c, 0, 48, 54
1, 348884, Control_c, 0, 64, 62
1, 348899, Control_c, 0, 64, 64
1, 348906, Note_off_c, 0, 56, 46
1, 348914, Control_c, 0, 64, 66
1, 348928, Control_c, 0, 64, 68
1, 348944, Control_c, 0, 64, 70
1, 348948, Note_off_c, 0, 50, 61
1, 348951, Note_off_c, 0, 53, 63
1, 348959, Control_c, 0, 64, 71
1, 348974, Control_c, 0, 64, 72
1, 348989, Control_c, 0, 64, 73
1, 349004, Control_c, 0, 64, 73
1, 349033, Control_c, 0, 64, 74
1, 349049, Note_off_c, 0, 48, 61
1, 349137, Control_c, 0, 64, 73
1, 349151, Control_c, 0, 64, 72
1, 349166, Control_c, 0, 64, 70
1, 349181, Control_c, 0, 64, 66
1, 349183, Note_on_c, 0, 48, 61
1, 349189, Note_on_c, 0, 56, 58
1, 349195, Control_c, 0, 64, 62
1, 349199, Note_on_c, 0, 53, 57
1, 349210, Control_c, 0, 64, 55
1, 349225, Control_c, 0, 64, 40
1, 349240, Control_c, 0, 64, 0
1, 349554, Note_on_c, 0, 47, 43
1, 349663, Control_c, 0, 64, 40
1, 349677, Control_c, 0, 64, 58
1, 349692, Control_c, 0, 64, 63
1, 349694, Note_off_c, 0, 48, 35
1, 349707, Control_c, 0, 64, 65
1, 349722, Control_c, 0, 64, 67
1, 349737, Control_c, 0, 64, 69
1, 349753, Control_c, 0, 64, 70
1, 349767, Control_c, 0, 64, 71
1, 349781, Note_off_c, 0, 47, 63
1, 349788, Note_off_c, 0, 53, 57
1, 349800, Note_off_c, 0, 56, 37
1, 349841, Control_c, 0, 64, 70
1, 349856, Control_c, 0, 64, 68
1, 349871, Control_c, 0, 64, 66
1, 349886, Control_c, 0, 64, 64
1, 349900, Control_c, 0, 64, 60
1, 349905, Note_on_c, 0, 47, 66
1, 349915, Control_c, 0, 64, 52
1, 349917, Note_on_c, 0, 56, 51
1, 349930, Control_c, 0, 64, 34
1, 349945, Control_c, 0, 64, 0
1, 349949, Note_on_c, 0, 50, 37
1, 349955, Note_on_c, 0, 53, 31
1, 350290, Note_off_c, 0, 47, 58
1, 350291, Note_on_c, 0, 46, 54
1, 350367, Control_c, 0, 64, 39
1, 350371, Note_off_c, 0, 50, 50
1, 350381, Control_c, 0, 64, 57
1, 350396, Control_c, 0, 64, 62
1, 350411, Control_c, 0, 64, 64
1, 350425, Control_c, 0, 64, 65
1, 350440, Control_c, 0, 64, 66
1, 350455, Control_c, 0, 64, 67
1, 350470, Control_c, 0, 64, 68
1, 350485, Control_c, 0, 64, 69
1, 350498, Note_off_c, 0, 56, 60
1, 350542, Note_off_c, 0, 46, 49
1, 350619, Control_c, 0, 64, 68
1, 350648, Control_c, 0, 64, 68
1, 350663, Control_c, 0, 64, 67
1, 350678, Control_c, 0, 64, 66
1, 350693, Control_c, 0, 64, 66
1, 350708, Control_c, 0, 64, 64
1, 350722, Control_c, 0, 64, 61
1, 350730, Note_on_c, 0, 55, 47
1, 350735, Note_off_c, 0, 53, 19
1, 350737, Control_c, 0, 64, 54
1, 350739, Note_on_c, 0, 46, 37
1, 350748, Note_on_c, 0, 51, 43
1, 350752, Control_c, 0, 64, 38
1, 350760, Note_on_c, 0, 39, 35
1, 350766, Control_c, 0, 64, 0
1, 350960, Note_off_c, 0, 34, 41
1, 351499, Note_off_c, 0, 46, 50
1, 351503, Note_off_c, 0, 55, 36
1, 351539, Note_off_c, 0, 39, 44
1, 351551, Note_off_c, 0, 51, 55
1, 351871, Note_on_c, 0, 46, 57
1, 352299, Note_on_c, 0, 43, 64
1, 352379, Note_off_c, 0, 46, 54
1, 352668, Note_on_c, 0, 46, 66
1, 352748, Note_off_c, 0, 43, 58
1, 353013, Note_on_c, 0, 43, 54
1, 353014, Note_on_c, 0, 58, 70
1, 353362, Control_c, 0, 64, 29
1, 353371, Note_on_c, 0, 39, 60
1, 353377, Control_c, 0, 64, 47
1, 353392, Control_c, 0, 64, 56
1, 353407, Control_c, 0, 64, 60
1, 353422, Control_c, 0, 64, 62
1, 353436, Control_c, 0, 64, 63
1, 353451, Control_c, 0, 64, 65
1, 353466, Control_c, 0, 64, 66
1, 353472, Note_off_c, 0, 43, 44
1, 353481, Control_c, 0, 64, 68
1, 353496, Control_c, 0, 64, 71
1, 353510, Control_c, 0, 64, 73
1, 353525, Control_c, 0, 64, 76
1, 353540, Control_c, 0, 64, 78
1, 353555, Control_c, 0, 64, 80
1, 353561, Note_on_c, 0, 63, 67
1, 353569, Control_c, 0, 64, 81
1, 353584, Control_c, 0, 64, 82
1, 353595, Note_off_c, 0, 46, 14
1, 353599, Control_c, 0, 64, 83
1, 353618, Note_off_c, 0, 58, 61
1, 353666, Note_off_c, 0, 63, 64
1, 353763, Control_c, 0, 64, 81
1, 353778, Control_c, 0, 64, 79
1, 353792, Control_c, 0, 64, 74
1, 353793, Note_on_c, 0, 63, 70
1, 353798, Note_on_c, 0, 34, 46
1, 353807, Control_c, 0, 64, 68
1, 353822, Control_c, 0, 64, 61
1, 353829, Note_on_c, 0, 53, 46
1, 353830, Note_on_c, 0, 56, 48
1, 353837, Control_c, 0, 64, 51
1, 353852, Control_c, 0, 64, 36
1, 353854, Note_off_c, 0, 39, 57
1, 353866, Control_c, 0, 64, 0
1, 354226, Note_on_c, 0, 62, 55
1, 354303, Control_c, 0, 64, 50
1, 354318, Control_c, 0, 64, 62
1, 354331, Note_off_c, 0, 63, 36
1, 354332, Control_c, 0, 64, 65
1, 354347, Control_c, 0, 64, 68
1, 354362, Control_c, 0, 64, 69
1, 354377, Control_c, 0, 64, 69
1, 354388, Note_off_c, 0, 62, 58
1, 354391, Control_c, 0, 64, 70
1, 354421, Control_c, 0, 64, 71
1, 354495, Control_c, 0, 64, 70
1, 354510, Control_c, 0, 64, 70
1, 354525, Control_c, 0, 64, 68
1, 354541, Control_c, 0, 64, 66
1, 354544, Note_on_c, 0, 62, 70
1, 354555, Control_c, 0, 64, 64
1, 354570, Control_c, 0, 64, 61
1, 354585, Control_c, 0, 64, 56
1, 354600, Control_c, 0, 64, 46
1, 354614, Control_c, 0, 64, 26
1, 354629, Control_c, 0, 64, 0
1, 354749, Control_c, 0, 64, 14
1, 354770, Control_c, 0, 64, 40
1, 354785, Control_c, 0, 64, 52
1, 354800, Control_c, 0, 64, 59
1, 354814, Control_c, 0, 64, 61
1, 354829, Control_c, 0, 64, 63
1, 354844, Control_c, 0, 64, 65
1, 354859, Control_c, 0, 64, 66
1, 354874, Control_c, 0, 64, 69
1, 354886, Note_on_c, 0, 60, 63
1, 354889, Control_c, 0, 64, 71
1, 354904, Control_c, 0, 64, 74
1, 354918, Control_c, 0, 64, 76
1, 354933, Control_c, 0, 64, 77
1, 354948, Control_c, 0, 64, 78
1, 354963, Control_c, 0, 64, 79
1, 354966, Note_off_c, 0, 62, 37
1, 354978, Control_c, 0, 64, 80
1, 354993, Control_c, 0, 64, 80
1, 355041, Note_off_c, 0, 53, 36
1, 355044, Note_off_c, 0, 56, 55
1, 355066, Note_off_c, 0, 60, 59
1, 355214, Control_c, 0, 64, 80
1, 355225, Note_on_c, 0, 60, 73
1, 355229, Control_c, 0, 64, 78
1, 355244, Control_c, 0, 64, 74
1, 355251, Note_on_c, 0, 46, 48
1, 355252, Note_on_c, 0, 53, 50
1, 355259, Control_c, 0, 64, 70
1, 355261, Note_on_c, 0, 56, 49
1, 355274, Control_c, 0, 64, 64
1, 355288, Control_c, 0, 64, 58
1, 355303, Control_c, 0, 64, 38
1, 355318, Control_c, 0, 64, 0
1, 355610, Note_off_c, 0, 34, 38
1, 355612, Note_on_c, 0, 59, 65
1, 355624, Control_c, 0, 64, 21
1, 355638, Control_c, 0, 64, 46
1, 355653, Control_c, 0, 64, 57
1, 355661, Note_off_c, 0, 60, 55
1, 355668, Control_c, 0, 64, 61
1, 355683, Control_c, 0, 64, 64
1, 355698, Control_c, 0, 64, 65
1, 355712, Control_c, 0, 64, 67
1, 355727, Control_c, 0, 64, 70
1, 355742, Control_c, 0, 64, 73
1, 355756, Control_c, 0, 64, 75
1, 355771, Control_c, 0, 64, 76
1, 355786, Control_c, 0, 64, 77
1, 355804, Note_off_c, 0, 59, 62
1, 355920, Control_c, 0, 64, 75
1, 355935, Control_c, 0, 64, 73
1, 355935, Note_on_c, 0, 59, 67
1, 355950, Control_c, 0, 64, 69
1, 355964, Control_c, 0, 64, 63
1, 355979, Control_c, 0, 64, 54
1, 355994, Control_c, 0, 64, 26
1, 356009, Control_c, 0, 64, 0
1, 356112, Control_c, 0, 64, 18
1, 356128, Control_c, 0, 64, 39
1, 356143, Control_c, 0, 64, 49
1, 356158, Control_c, 0, 64, 55
1, 356173, Control_c, 0, 64, 59
1, 356187, Control_c, 0, 64, 61
1, 356202, Control_c, 0, 64, 62
1, 356217, Control_c, 0, 64, 63
1, 356232, Control_c, 0, 64, 65
1, 356247, Control_c, 0, 64, 66
1, 356269, Control_c, 0, 64, 69
1, 356284, Control_c, 0, 64, 72
1, 356299, Control_c, 0, 64, 75
1, 356313, Note_on_c, 0, 58, 67
1, 356314, Control_c, 0, 64, 79
1, 356328, Control_c, 0, 64, 82
1, 356343, Control_c, 0, 64, 85
1, 356358, Control_c, 0, 64, 88
1, 356373, Control_c, 0, 64, 91
1, 356387, Control_c, 0, 64, 93
1, 356389, Note_off_c, 0, 59, 34
1, 356402, Control_c, 0, 64, 95
1, 356417, Control_c, 0, 64, 95
1, 356424, Note_off_c, 0, 53, 31
1, 356439, Note_off_c, 0, 58, 63
1, 356447, Control_c, 0, 64, 96
1, 356454, Note_off_c, 0, 56, 62
1, 356719, Note_on_c, 0, 53, 68
1, 356722, Note_on_c, 0, 58, 65
1, 356728, Control_c, 0, 64, 92
1, 356740, Note_on_c, 0, 55, 50
1, 356743, Control_c, 0, 64, 86
1, 356758, Control_c, 0, 64, 77
1, 356773, Note_on_c, 0, 39, 41
1, 356773, Control_c, 0, 64, 69
1, 356787, Control_c, 0, 64, 62
1, 356802, Control_c, 0, 64, 48
1, 356817, Control_c, 0, 64, 0
1, 357045, Note_off_c, 0, 46, 29
1, 357112, Poly_aftertouch_c, 0, 57, 127
1, 357211, Note_on_c, 0, 52, 63
1, 357260, Note_off_c, 0, 53, 59
1, 357270, Control_c, 0, 64, 45
1, 357284, Control_c, 0, 64, 58
1, 357299, Control_c, 0, 64, 63
1, 357314, Control_c, 0, 64, 65
1, 357328, Control_c, 0, 64, 67
1, 357343, Control_c, 0, 64, 69
1, 357358, Control_c, 0, 64, 72
1, 357373, Control_c, 0, 64, 74
1, 357388, Control_c, 0, 64, 75
1, 357401, Note_off_c, 0, 52, 65
1, 357506, Control_c, 0, 64, 75
1, 357521, Control_c, 0, 64, 74
1, 357536, Control_c, 0, 64, 72
1, 357551, Control_c, 0, 64, 70
1, 357561, Note_on_c, 0, 52, 62
1, 357566, Control_c, 0, 64, 67
1, 357580, Control_c, 0, 64, 64
1, 357595, Control_c, 0, 64, 58
1, 357610, Control_c, 0, 64, 50
1, 357625, Control_c, 0, 64, 39
1, 357640, Control_c, 0, 64, 29
1, 357655, Control_c, 0, 64, 19
1, 357670, Control_c, 0, 64, 0
1, 357923, Note_on_c, 0, 51, 53
1, 357968, Note_off_c, 0, 52, 56
1, 357974, Control_c, 0, 64, 25
1, 357989, Control_c, 0, 64, 46
1, 358004, Control_c, 0, 64, 57
1, 358019, Control_c, 0, 64, 61
1, 358028, Poly_aftertouch_c, 0, 57, 0
1, 358033, Control_c, 0, 64, 63
1, 358048, Control_c, 0, 64, 64
1, 358063, Control_c, 0, 64, 64
1, 358078, Control_c, 0, 64, 66
1, 358093, Control_c, 0, 64, 67
1, 358107, Control_c, 0, 64, 67
1, 358131, Note_off_c, 0, 51, 58
1, 358151, Control_c, 0, 64, 68
1, 358211, Control_c, 0, 64, 67
1, 358225, Control_c, 0, 64, 67
1, 358240, Control_c, 0, 64, 66
1, 358255, Control_c, 0, 64, 64
1, 358260, Note_on_c, 0, 51, 52
1, 358270, Control_c, 0, 64, 62
1, 358285, Control_c, 0, 64, 58
1, 358299, Control_c, 0, 64, 50
1, 358314, Control_c, 0, 64, 37
1, 358329, Control_c, 0, 64, 21
1, 358344, Control_c, 0, 64, 8
1, 358358, Control_c, 0, 64, 0
1, 358573, Control_c, 0, 67, 8
1, 358588, Control_c, 0, 67, 9
1, 358603, Control_c, 0, 64, 8
1, 358603, Control_c, 0, 67, 11
1, 358618, Control_c, 0, 64, 17
1, 358618, Control_c, 0, 67, 12
1, 358633, Control_c, 0, 64, 23
1, 358633, Control_c, 0, 67, 12
1, 358645, Note_on_c, 0, 50, 44
1, 358648, Control_c, 0, 64, 32
1, 358648, Control_c, 0, 67, 13
1, 358662, Control_c, 0, 64, 40
1, 358677, Control_c, 0, 64, 48
1, 358692, Control_c, 0, 64, 54
1, 358707, Control_c, 0, 64, 59
1, 358713, Note_off_c, 0, 51, 37
1, 358722, Control_c, 0, 64, 62
1, 358736, Control_c, 0, 64, 63
1, 358751, Control_c, 0, 64, 65
1, 358766, Control_c, 0, 64, 68
1, 358780, Control_c, 0, 64, 70
1, 358795, Control_c, 0, 64, 73
1, 358810, Control_c, 0, 64, 74
1, 358812, Note_off_c, 0, 50, 62
1, 358884, Control_c, 0, 67, 12
1, 358899, Control_c, 0, 64, 72
1, 358913, Control_c, 0, 64, 70
1, 358928, Control_c, 0, 64, 68
1, 358928, Control_c, 0, 67, 12
1, 358943, Control_c, 0, 64, 64
1, 358958, Control_c, 0, 64, 61
1, 358961, Note_on_c, 0, 50, 54
1, 358972, Control_c, 0, 64, 56
1, 358972, Control_c, 0, 67, 11
1, 358987, Control_c, 0, 64, 49
1, 359002, Control_c, 0, 64, 40
1, 359017, Control_c, 0, 64, 29
1, 359032, Control_c, 0, 64, 10
1, 359047, Control_c, 0, 64, 0
1, 359092, Control_c, 0, 67, 11
1, 359225, Control_c, 0, 67, 10
1, 359336, Note_on_c, 0, 51, 44
1, 359354, Note_off_c, 0, 50, 52
1, 359411, Control_c, 0, 64, 23
1, 359426, Control_c, 0, 64, 44
1, 359441, Control_c, 0, 64, 56
1, 359456, Control_c, 0, 64, 61
1, 359456, Control_c, 0, 67, 10
1, 359471, Control_c, 0, 64, 63
1, 359485, Control_c, 0, 64, 64
1, 359500, Control_c, 0, 64, 65
1, 359515, Control_c, 0, 64, 66
1, 359530, Control_c, 0, 64, 67
1, 359545, Control_c, 0, 64, 67
1, 359563, Note_off_c, 0, 51, 58
1, 359604, Control_c, 0, 64, 67
1, 359619, Control_c, 0, 64, 66
1, 359634, Control_c, 0, 64, 65
1, 359649, Control_c, 0, 64, 63
1, 359664, Control_c, 0, 64, 61
1, 359678, Control_c, 0, 64, 58
1, 359687, Note_on_c, 0, 51, 57
1, 359693, Control_c, 0, 64, 52
1, 359693, Control_c, 0, 67, 10
1, 359708, Control_c, 0, 64, 45
1, 359708, Control_c, 0, 67, 11
1, 359723, Control_c, 0, 64, 36
1, 359737, Control_c, 0, 64, 28
1, 359752, Control_c, 0, 64, 21
1, 359767, Control_c, 0, 64, 12
1, 359782, Control_c, 0, 64, 0
1, 359811, Control_c, 0, 67, 11
1, 359826, Control_c, 0, 67, 12
1, 359841, Control_c, 0, 67, 12
1, 359856, Control_c, 0, 67, 13
1, 359885, Control_c, 0, 67, 13
1, 359900, Control_c, 0, 67, 14
1, 359929, Control_c, 0, 67, 15
1, 359944, Control_c, 0, 67, 16
1, 359959, Control_c, 0, 67, 22
1, 359974, Control_c, 0, 67, 28
1, 359989, Control_c, 0, 67, 33
1, 360011, Control_c, 0, 67, 38
1, 360026, Control_c, 0, 67, 42
1, 360041, Control_c, 0, 67, 45
1, 360056, Control_c, 0, 67, 49
1, 360071, Control_c, 0, 67, 50
1, 360075, Note_off_c, 0, 51, 52
1, 360080, Note_on_c, 0, 52, 48
1, 360085, Control_c, 0, 67, 52
1, 360100, Control_c, 0, 67, 53
1, 360115, Control_c, 0, 67, 54
1, 360131, Control_c, 0, 67, 55
1, 360146, Control_c, 0, 67, 55
1, 360160, Control_c, 0, 64, 32
1, 360175, Control_c, 0, 64, 51
1, 360190, Control_c, 0, 64, 59
1, 360205, Control_c, 0, 64, 62
1, 360220, Control_c, 0, 64, 63
1, 360234, Control_c, 0, 64, 64
1, 360249, Control_c, 0, 64, 65
1, 360264, Note_off_c, 0, 52, 62
1, 360264, Control_c, 0, 64, 65
1, 360279, Control_c, 0, 64, 66
1, 360338, Control_c, 0, 67, 55
1, 360382, Control_c, 0, 64, 65
1, 360397, Control_c, 0, 64, 64
1, 360412, Control_c, 0, 64, 63
1, 360412, Control_c, 0, 67, 54
1, 360427, Note_on_c, 0, 52, 47
1, 360427, Control_c, 0, 64, 61
1, 360442, Control_c, 0, 64, 57
1, 360457, Control_c, 0, 64, 47
1, 360472, Control_c, 0, 64, 26
1, 360487, Control_c, 0, 64, 0
1, 360516, Control_c, 0, 67, 55
1, 360560, Control_c, 0, 64, 27
1, 360575, Control_c, 0, 64, 44
1, 360590, Control_c, 0, 64, 55
1, 360605, Control_c, 0, 64, 59
1, 360620, Control_c, 0, 64, 61
1, 360620, Control_c, 0, 67, 55
1, 360634, Control_c, 0, 64, 62
1, 360649, Control_c, 0, 64, 62
1, 360679, Control_c, 0, 64, 63
1, 360694, Control_c, 0, 67, 56
1, 360737, Control_c, 0, 67, 56
1, 360759, Control_c, 0, 64, 62
1, 360759, Control_c, 0, 67, 57
1, 360774, Control_c, 0, 64, 61
1, 360789, Control_c, 0, 64, 59
1, 360794, Note_on_c, 0, 51, 39
1, 360804, Control_c, 0, 64, 53
1, 360804, Control_c, 0, 67, 58
1, 360819, Control_c, 0, 64, 44
1, 360819, Control_c, 0, 67, 60
1, 360832, Note_off_c, 0, 52, 37
1, 360833, Control_c, 0, 64, 38
1, 360833, Control_c, 0, 67, 60
1, 360848, Control_c, 0, 64, 41
1, 360848, Control_c, 0, 67, 61
1, 360863, Control_c, 0, 64, 46
1, 360877, Control_c, 0, 64, 52
1, 360892, Control_c, 0, 64, 58
1, 360907, Control_c, 0, 64, 62
1, 360923, Control_c, 0, 64, 63
1, 360938, Control_c, 0, 64, 64
1, 360953, Control_c, 0, 64, 64
1, 360982, Control_c, 0, 64, 65
1, 361000, Note_off_c, 0, 51, 57
1, 361056, Control_c, 0, 67, 60
1, 361071, Control_c, 0, 64, 64
1, 361086, Control_c, 0, 67, 60
1, 361101, Control_c, 0, 64, 64
1, 361116, Control_c, 0, 64, 63
1, 361131, Control_c, 0, 64, 62
1, 361146, Control_c, 0, 64, 59
1, 361149, Note_on_c, 0, 51, 40
1, 361160, Control_c, 0, 64, 52
1, 361175, Control_c, 0, 64, 41
1, 361190, Control_c, 0, 64, 34
1, 361205, Control_c, 0, 64, 37
1, 361220, Control_c, 0, 64, 41
1, 361235, Control_c, 0, 64, 46
1, 361249, Control_c, 0, 64, 52
1, 361264, Control_c, 0, 64, 58
1, 361264, Control_c, 0, 67, 60
1, 361279, Control_c, 0, 64, 61
1, 361293, Control_c, 0, 64, 62
1, 361308, Control_c, 0, 64, 62
1, 361323, Control_c, 0, 64, 63
1, 361353, Control_c, 0, 64, 63
1, 361353, Control_c, 0, 67, 61
1, 361412, Control_c, 0, 67, 61
1, 361456, Control_c, 0, 67, 62
1, 361471, Control_c, 0, 64, 63
1, 361486, Control_c, 0, 64, 61
1, 361508, Control_c, 0, 64, 58
1, 361523, Control_c, 0, 64, 47
1, 361529, Note_on_c, 0, 50, 38
1, 361538, Control_c, 0, 64, 31
1, 361538, Control_c, 0, 67, 62
1, 361553, Control_c, 0, 64, 28
1, 361568, Control_c, 0, 64, 34
1, 361582, Control_c, 0, 64, 40
1, 361582, Control_c, 0, 67, 64
1, 361597, Control_c, 0, 64, 49
1, 361597, Control_c, 0, 67, 65
1, 361607, Note_off_c, 0, 51, 32
1, 361612, Control_c, 0, 64, 58
1, 361612, Control_c, 0, 67, 65
1, 361627, Control_c, 0, 64, 62
1, 361627, Control_c, 0, 67, 66
1, 361642, Control_c, 0, 64, 63
1, 361656, Control_c, 0, 64, 64
1, 361671, Control_c, 0, 64, 65
1, 361686, Control_c, 0, 64, 65
1, 361700, Control_c, 0, 64, 66
1, 361715, Control_c, 0, 64, 66
1, 361731, Control_c, 0, 64, 67
1, 361733, Note_off_c, 0, 50, 53
1, 361761, Control_c, 0, 67, 66
1, 361865, Control_c, 0, 67, 67
1, 361879, Control_c, 0, 64, 66
1, 361894, Control_c, 0, 64, 65
1, 361909, Note_on_c, 0, 50, 36
1, 361909, Control_c, 0, 64, 63
1, 361909, Control_c, 0, 67, 67
1, 361924, Control_c, 0, 64, 57
1, 361924, Control_c, 0, 67, 68
1, 361938, Control_c, 0, 64, 43
1, 361938, Control_c, 0, 67, 71
1, 361953, Control_c, 0, 64, 0
1, 361953, Control_c, 0, 67, 76
1, 361968, Control_c, 0, 67, 80
1, 361983, Control_c, 0, 67, 84
1, 361998, Control_c, 0, 64, 26
1, 361998, Control_c, 0, 67, 90
1, 362013, Control_c, 0, 64, 40
1, 362013, Control_c, 0, 67, 97
1, 362028, Control_c, 0, 64, 51
1, 362028, Control_c, 0, 67, 106
1, 362043, Control_c, 0, 64, 59
1, 362043, Control_c, 0, 67, 115
1, 362058, Control_c, 0, 64, 63
1, 362058, Control_c, 0, 67, 125
1, 362069, Note_off_c, 0, 55, 41
1, 362072, Control_c, 0, 64, 64
1, 362072, Control_c, 0, 67, 127
1, 362087, Control_c, 0, 64, 65
1, 362102, Control_c, 0, 64, 66
1, 362116, Control_c, 0, 64, 66
1, 362131, Control_c, 0, 64, 67
1, 362146, Control_c, 0, 64, 68
1, 362161, Control_c, 0, 64, 68
1, 362176, Control_c, 0, 64, 69
1, 362303, Note_off_c, 0, 50, 40
1, 362317, Note_on_c, 0, 49, 40
1, 362523, Note_off_c, 0, 49, 56
1, 362560, Note_off_c, 0, 58, 42
1, 362762, Control_c, 0, 64, 68
1, 362777, Control_c, 0, 64, 68
1, 362792, Control_c, 0, 64, 67
1, 362800, Note_on_c, 0, 60, 50
1, 362807, Control_c, 0, 64, 66
1, 362812, Note_on_c, 0, 44, 30
1, 362820, Note_on_c, 0, 32, 29
1, 362821, Control_c, 0, 64, 64
1, 362836, Control_c, 0, 64, 61
1, 362847, Note_on_c, 0, 48, 35
1, 362850, Note_on_c, 0, 56, 22
1, 362851, Control_c, 0, 64, 54
1, 362866, Control_c, 0, 64, 40
1, 362881, Control_c, 0, 64, 0
1, 362892, Note_off_c, 0, 39, 26
1, 362909, Note_off_c, 0, 48, 0
1, 362909, Note_on_c, 0, 48, 3
1, 362917, Note_off_c, 0, 56, 38
1, 363007, Control_c, 0, 64, 32
1, 363021, Control_c, 0, 64, 47
1, 363036, Control_c, 0, 64, 54
1, 363051, Control_c, 0, 64, 58
1, 363066, Control_c, 0, 64, 60
1, 363080, Control_c, 0, 64, 61
1, 363095, Control_c, 0, 64, 62
1, 363110, Control_c, 0, 64, 63
1, 363125, Control_c, 0, 64, 64
1, 363140, Control_c, 0, 64, 64
1, 363155, Control_c, 0, 64, 65
1, 363170, Control_c, 0, 64, 66
1, 363185, Control_c, 0, 64, 67
1, 363199, Control_c, 0, 64, 67
1, 363214, Control_c, 0, 64, 68
1, 363244, Control_c, 0, 64, 69
1, 363259, Control_c, 0, 64, 69
1, 363283, Note_on_c, 0, 51, 26
1, 363288, Control_c, 0, 64, 70
1, 363303, Control_c, 0, 64, 70
1, 363334, Control_c, 0, 64, 71
1, 363387, Note_off_c, 0, 32, 42
1, 363393, Control_c, 0, 64, 71
1, 363399, Note_off_c, 0, 48, 35
1, 363467, Control_c, 0, 64, 72
1, 363611, Note_on_c, 0, 56, 35
1, 363726, Note_off_c, 0, 51, 40
1, 363830, Control_c, 0, 64, 71
1, 363963, Control_c, 0, 64, 71
1, 363968, Note_on_c, 0, 51, 44
1, 364068, Note_off_c, 0, 56, 37
1, 364261, Control_c, 0, 64, 70
1, 364290, Control_c, 0, 64, 70
1, 364305, Control_c, 0, 64, 69
1, 364309, Note_on_c, 0, 58, 59
1, 364319, Control_c, 0, 64, 68
1, 364332, Note_on_c, 0, 49, 43
1, 364334, Control_c, 0, 64, 66
1, 364347, Note_on_c, 0, 55, 37
1, 364349, Control_c, 0, 64, 62
1, 364364, Control_c, 0, 64, 55
1, 364379, Control_c, 0, 64, 40
1, 364393, Control_c, 0, 64, 28
1, 364408, Control_c, 0, 64, 22
1, 364423, Control_c, 0, 64, 19
1, 364438, Control_c, 0, 64, 12
1, 364453, Control_c, 0, 64, 0
1, 364475, Note_off_c, 0, 44, 39
1, 364477, Note_off_c, 0, 60, 37
1, 364504, Note_off_c, 0, 51, 37
1, 364533, Control_c, 0, 64, 10
1, 364548, Control_c, 0, 64, 15
1, 364563, Control_c, 0, 64, 19
1, 364578, Control_c, 0, 64, 25
1, 364592, Control_c, 0, 64, 31
1, 364607, Control_c, 0, 64, 37
1, 364622, Control_c, 0, 64, 42
1, 364637, Control_c, 0, 64, 45
1, 364652, Control_c, 0, 64, 47
1, 364667, Control_c, 0, 64, 50
1, 364678, Note_on_c, 0, 51, 35
1, 364681, Control_c, 0, 64, 52
1, 364696, Control_c, 0, 64, 54
1, 364711, Control_c, 0, 64, 56
1, 364726, Control_c, 0, 64, 57
1, 364738, Note_off_c, 0, 55, 41
1, 364741, Control_c, 0, 64, 59
1, 364755, Control_c, 0, 64, 60
1, 364770, Control_c, 0, 64, 62
1, 364785, Control_c, 0, 64, 63
1, 364800, Control_c, 0, 64, 64
1, 364815, Control_c, 0, 64, 64
1, 364830, Control_c, 0, 64, 65
1, 364844, Control_c, 0, 64, 66
1, 364859, Control_c, 0, 64, 68
1, 364874, Control_c, 0, 64, 69
1, 364889, Control_c, 0, 64, 70
1, 364904, Control_c, 0, 64, 71
1, 364919, Control_c, 0, 64, 71
1, 364934, Control_c, 0, 64, 72
1, 364949, Control_c, 0, 64, 72
1, 364964, Control_c, 0, 64, 73
1, 365009, Control_c, 0, 64, 73
1, 365016, Note_on_c, 0, 55, 38
1, 365038, Control_c, 0, 64, 74
1, 365119, Note_off_c, 0, 51, 51
1, 365371, Note_on_c, 0, 51, 41
1, 365430, Note_off_c, 0, 55, 40
1, 365593, Control_c, 0, 64, 73
1, 365667, Control_c, 0, 64, 73
1, 365697, Control_c, 0, 64, 72
1, 365707, Note_on_c, 0, 63, 63
1, 365712, Control_c, 0, 64, 72
1, 365727, Control_c, 0, 64, 71
1, 365739, Note_on_c, 0, 48, 42
1, 365742, Note_on_c, 0, 56, 42
1, 365742, Control_c, 0, 64, 69
1, 365757, Control_c, 0, 64, 66
1, 365772, Control_c, 0, 64, 61
1, 365787, Control_c, 0, 64, 51
1, 365802, Control_c, 0, 64, 34
1, 365817, Control_c, 0, 64, 0
1, 365823, Note_off_c, 0, 51, 37
1, 365858, Note_off_c, 0, 49, 34
1, 365905, Control_c, 0, 64, 8
1, 365920, Control_c, 0, 64, 24
1, 365935, Control_c, 0, 64, 37
1, 365950, Control_c, 0, 64, 48
1, 365954, Note_off_c, 0, 58, 32
1, 365964, Control_c, 0, 64, 55
1, 365980, Control_c, 0, 64, 59
1, 366002, Control_c, 0, 64, 61
1, 366017, Control_c, 0, 64, 62
1, 366032, Control_c, 0, 64, 62
1, 366046, Control_c, 0, 64, 63
1, 366061, Control_c, 0, 64, 64
1, 366076, Control_c, 0, 64, 65
1, 366091, Control_c, 0, 64, 66
1, 366103, Note_on_c, 0, 51, 35
1, 366106, Control_c, 0, 64, 66
1, 366121, Control_c, 0, 64, 67
1, 366136, Control_c, 0, 64, 68
1, 366151, Control_c, 0, 64, 68
1, 366154, Note_off_c, 0, 56, 53
1, 366165, Control_c, 0, 64, 69
1, 366210, Control_c, 0, 64, 69
1, 366240, Control_c, 0, 64, 70
1, 366284, Control_c, 0, 64, 70
1, 366402, Control_c, 0, 64, 71
1, 366435, Note_on_c, 0, 56, 39
1, 366550, Note_off_c, 0, 51, 34
1, 366714, Control_c, 0, 64, 70
1, 366789, Note_on_c, 0, 51, 29
1, 366958, Control_c, 0, 64, 70
1, 367047, Control_c, 0, 64, 69
1, 367121, Control_c, 0, 64, 69
1, 367140, Note_on_c, 0, 58, 38
1, 367148, Note_on_c, 0, 43, 53
1, 367151, Control_c, 0, 64, 68
1, 367166, Control_c, 0, 64, 68
1, 367181, Control_c, 0, 64, 67
1, 367195, Control_c, 0, 64, 65
1, 367210, Control_c, 0, 64, 62
1, 367225, Control_c, 0, 64, 55
1, 367239, Control_c, 0, 64, 45
1, 367254, Note_off_c, 0, 51, 38
1, 367254, Control_c, 0, 64, 39
1, 367269, Control_c, 0, 64, 40
1, 367284, Control_c, 0, 64, 42
1, 367299, Control_c, 0, 64, 44
1, 367315, Control_c, 0, 64, 49
1, 367325, Note_off_c, 0, 48, 34
1, 367330, Control_c, 0, 64, 56
1, 367344, Control_c, 0, 64, 60
1, 367359, Control_c, 0, 64, 62
1, 367374, Control_c, 0, 64, 63
1, 367389, Control_c, 0, 64, 64
1, 367404, Control_c, 0, 64, 65
1, 367418, Control_c, 0, 64, 66
1, 367433, Control_c, 0, 64, 68
1, 367448, Control_c, 0, 64, 69
1, 367462, Control_c, 0, 64, 70
1, 367477, Control_c, 0, 64, 71
1, 367500, Control_c, 0, 64, 73
1, 367507, Note_on_c, 0, 51, 36
1, 367515, Control_c, 0, 64, 74
1, 367530, Control_c, 0, 64, 75
1, 367544, Control_c, 0, 64, 76
1, 367558, Note_off_c, 0, 56, 36
1, 367559, Control_c, 0, 64, 77
1, 367571, Note_off_c, 0, 58, 53
1, 367574, Control_c, 0, 64, 77
1, 367589, Control_c, 0, 64, 78
1, 367604, Control_c, 0, 64, 78
1, 367618, Control_c, 0, 64, 79
1, 367648, Control_c, 0, 64, 79
1, 367662, Control_c, 0, 64, 80
1, 367707, Control_c, 0, 64, 80
1, 367841, Control_c, 0, 67, 123
1, 367855, Note_on_c, 0, 61, 59
1, 367856, Control_c, 0, 67, 115
1, 367870, Control_c, 0, 67, 106
1, 367884, Note_on_c, 0, 58, 38
1, 367885, Control_c, 0, 67, 97
1, 367900, Control_c, 0, 67, 89
1, 367915, Control_c, 0, 67, 81
1, 367930, Control_c, 0, 67, 74
1, 367944, Control_c, 0, 67, 67
1, 367959, Control_c, 0, 67, 60
1, 367969, Note_off_c, 0, 51, 35
1, 367974, Control_c, 0, 67, 51
1, 367989, Control_c, 0, 67, 42
1, 368004, Control_c, 0, 67, 34
1, 368018, Control_c, 0, 67, 26
1, 368033, Control_c, 0, 67, 21
1, 368048, Control_c, 0, 67, 15
1, 368062, Control_c, 0, 67, 9
1, 368077, Control_c, 0, 67, 0
1, 368210, Note_on_c, 0, 51, 29
1, 368217, Note_off_c, 0, 58, 37
1, 368441, Control_c, 0, 64, 80
1, 368530, Control_c, 0, 64, 79
1, 368545, Control_c, 0, 64, 79
1, 368559, Control_c, 0, 64, 78
1, 368574, Control_c, 0, 64, 76
1, 368580, Note_on_c, 0, 60, 57
1, 368589, Control_c, 0, 64, 72
1, 368604, Control_c, 0, 64, 67
1, 368605, Note_on_c, 0, 44, 46
1, 368605, Note_on_c, 0, 56, 45
1, 368619, Control_c, 0, 64, 63
1, 368627, Note_off_c, 0, 61, 58
1, 368634, Control_c, 0, 64, 55
1, 368649, Control_c, 0, 64, 41
1, 368663, Control_c, 0, 64, 0
1, 368666, Note_off_c, 0, 51, 41
1, 368706, Note_off_c, 0, 63, 30
1, 368767, Control_c, 0, 64, 28
1, 368782, Control_c, 0, 64, 48
1, 368797, Control_c, 0, 64, 57
1, 368804, Note_off_c, 0, 43, 30
1, 368811, Control_c, 0, 64, 61
1, 368826, Control_c, 0, 64, 62
1, 368841, Control_c, 0, 64, 63
1, 368856, Control_c, 0, 64, 64
1, 368871, Control_c, 0, 64, 66
1, 368885, Control_c, 0, 64, 68
1, 368900, Control_c, 0, 64, 71
1, 368916, Control_c, 0, 64, 73
1, 368931, Control_c, 0, 64, 75
1, 368943, Note_on_c, 0, 51, 46
1, 368946, Control_c, 0, 64, 77
1, 368961, Control_c, 0, 64, 79
1, 368976, Control_c, 0, 64, 81
1, 368997, Control_c, 0, 64, 83
1, 369012, Control_c, 0, 64, 84
1, 369027, Control_c, 0, 64, 85
1, 369042, Control_c, 0, 64, 86
1, 369057, Control_c, 0, 64, 87
1, 369080, Note_off_c, 0, 56, 33
1, 369087, Control_c, 0, 64, 87
1, 369264, Control_c, 0, 64, 87
1, 369279, Control_c, 0, 64, 85
1, 369290, Note_on_c, 0, 63, 68
1, 369294, Control_c, 0, 64, 82
1, 369309, Control_c, 0, 64, 77
1, 369316, Note_on_c, 0, 43, 52
1, 369323, Note_on_c, 0, 58, 45
1, 369323, Control_c, 0, 64, 69
1, 369338, Control_c, 0, 64, 62
1, 369353, Control_c, 0, 64, 48
1, 369368, Control_c, 0, 64, 40
1, 369372, Note_off_c, 0, 51, 36
1, 369382, Control_c, 0, 64, 43
1, 369397, Control_c, 0, 64, 46
1, 369398, Note_off_c, 0, 60, 37
1, 369412, Control_c, 0, 64, 49
1, 369427, Control_c, 0, 64, 53
1, 369441, Control_c, 0, 64, 59
1, 369449, Note_off_c, 0, 44, 32
1, 369456, Control_c, 0, 64, 63
1, 369471, Control_c, 0, 64, 64
1, 369486, Control_c, 0, 64, 65
1, 369501, Control_c, 0, 64, 66
1, 369516, Control_c, 0, 64, 68
1, 369531, Control_c, 0, 64, 70
1, 369546, Control_c, 0, 64, 74
1, 369561, Control_c, 0, 64, 76
1, 369576, Control_c, 0, 64, 78
1, 369590, Control_c, 0, 64, 79
1, 369605, Control_c, 0, 64, 80
1, 369620, Control_c, 0, 64, 82
1, 369634, Control_c, 0, 64, 84
1, 369642, Note_on_c, 0, 51, 39
1, 369649, Control_c, 0, 64, 86
1, 369664, Control_c, 0, 64, 87
1, 369679, Control_c, 0, 64, 88
1, 369694, Control_c, 0, 64, 89
1, 369704, Note_off_c, 0, 58, 35
1, 369710, Control_c, 0, 64, 90
1, 369725, Control_c, 0, 64, 90
1, 369761, Control_c, 0, 64, 91
1, 369775, Note_off_c, 0, 51, 59
1, 369984, Control_c, 0, 64, 90
1, 369999, Control_c, 0, 64, 85
1, 370002, Note_on_c, 0, 68, 66
1, 370011, Note_on_c, 0, 41, 47
1, 370013, Control_c, 0, 64, 77
1, 370026, Note_on_c, 0, 60, 44
1, 370028, Control_c, 0, 64, 67
1, 370038, Note_off_c, 0, 63, 60
1, 370043, Control_c, 0, 64, 57
1, 370058, Control_c, 0, 64, 34
1, 370072, Control_c, 0, 64, 0
1, 370099, Note_off_c, 0, 43, 40
1, 370102, Control_c, 0, 64, 23
1, 370117, Control_c, 0, 64, 36
1, 370132, Control_c, 0, 64, 47
1, 370146, Control_c, 0, 64, 55
1, 370161, Control_c, 0, 64, 61
1, 370176, Control_c, 0, 64, 63
1, 370191, Control_c, 0, 64, 64
1, 370206, Control_c, 0, 64, 65
1, 370220, Control_c, 0, 64, 67
1, 370235, Control_c, 0, 64, 69
1, 370250, Control_c, 0, 64, 72
1, 370264, Control_c, 0, 64, 75
1, 370279, Control_c, 0, 64, 76
1, 370294, Control_c, 0, 64, 78
1, 370309, Control_c, 0, 64, 79
1, 370324, Control_c, 0, 64, 80
1, 370339, Control_c, 0, 64, 81
1, 370354, Control_c, 0, 64, 81
1, 370368, Control_c, 0, 64, 82
1, 370381, Note_on_c, 0, 56, 47
1, 370398, Control_c, 0, 64, 82
1, 370413, Control_c, 0, 64, 83
1, 370429, Note_off_c, 0, 60, 37
1, 370702, Control_c, 0, 64, 82
1, 370717, Control_c, 0, 64, 81
1, 370732, Control_c, 0, 64, 80
1, 370747, Control_c, 0, 64, 78
1, 370757, Note_on_c, 0, 70, 62
1, 370762, Control_c, 0, 64, 75
1, 370777, Control_c, 0, 64, 71
1, 370792, Control_c, 0, 64, 64
1, 370793, Note_on_c, 0, 62, 45
1, 370798, Note_on_c, 0, 53, 40
1, 370807, Control_c, 0, 64, 53
1, 370807, Note_off_c, 0, 56, 52
1, 370822, Control_c, 0, 64, 0
1, 370899, Note_off_c, 0, 41, 34
1, 370925, Control_c, 0, 64, 40
1, 370926, Note_off_c, 0, 68, 38
1, 370940, Control_c, 0, 64, 54
1, 370955, Control_c, 0, 64, 59
1, 370969, Control_c, 0, 64, 61
1, 370984, Control_c, 0, 64, 62
1, 370999, Control_c, 0, 64, 64
1, 371014, Control_c, 0, 64, 65
1, 371029, Control_c, 0, 64, 68
1, 371043, Control_c, 0, 64, 71
1, 371058, Control_c, 0, 64, 74
1, 371073, Control_c, 0, 64, 76
1, 371087, Control_c, 0, 64, 78
1, 371102, Control_c, 0, 64, 79
1, 371117, Control_c, 0, 64, 81
1, 371132, Control_c, 0, 64, 82
1, 371147, Control_c, 0, 64, 83
1, 371152, Note_on_c, 0, 56, 29
1, 371161, Control_c, 0, 64, 83
1, 371176, Control_c, 0, 64, 84
1, 371206, Control_c, 0, 64, 84
1, 371374, Note_off_c, 0, 56, 31
1, 371554, Control_c, 0, 64, 84
1, 371569, Control_c, 0, 64, 83
1, 371582, Note_on_c, 0, 63, 51
1, 371583, Control_c, 0, 64, 81
1, 371598, Control_c, 0, 64, 78
1, 371611, Note_on_c, 0, 51, 38
1, 371612, Note_on_c, 0, 55, 39
1, 371613, Control_c, 0, 64, 75
1, 371627, Control_c, 0, 64, 71
1, 371642, Control_c, 0, 64, 65
1, 371657, Control_c, 0, 64, 60
1, 371672, Control_c, 0, 64, 52
1, 371683, Note_off_c, 0, 62, 31
1, 371687, Control_c, 0, 64, 42
1, 371701, Control_c, 0, 64, 36
1, 371716, Control_c, 0, 64, 33
1, 371731, Control_c, 0, 64, 32
1, 371746, Control_c, 0, 64, 29
1, 371757, Note_off_c, 0, 70, 36
1, 371761, Control_c, 0, 64, 26
1, 371776, Control_c, 0, 64, 22
1, 371790, Control_c, 0, 64, 18
1, 371805, Control_c, 0, 64, 14
1, 371820, Control_c, 0, 64, 12
1, 371826, Note_off_c, 0, 53, 37
1, 371895, Control_c, 0, 64, 15
1, 371909, Control_c, 0, 64, 19
1, 371924, Control_c, 0, 64, 23
1, 371939, Control_c, 0, 64, 28
1, 371954, Control_c, 0, 64, 32
1, 371969, Control_c, 0, 64, 35
1, 371990, Control_c, 0, 64, 38
1, 372005, Control_c, 0, 64, 43
1, 372020, Control_c, 0, 64, 49
1, 372035, Control_c, 0, 64, 55
1, 372047, Note_on_c, 0, 58, 29
1, 372050, Control_c, 0, 64, 58
1, 372065, Control_c, 0, 64, 60
1, 372080, Control_c, 0, 64, 62
1, 372080, Control_c, 0, 67, 8
1, 372094, Control_c, 0, 64, 63
1, 372094, Control_c, 0, 67, 18
1, 372110, Control_c, 0, 64, 64
1, 372110, Control_c, 0, 67, 27
1, 372125, Control_c, 0, 64, 65
1, 372125, Control_c, 0, 67, 36
1, 372132, Note_off_c, 0, 55, 42
1, 372139, Control_c, 0, 64, 67
1, 372139, Control_c, 0, 67, 44
1, 372154, Control_c, 0, 64, 69
1, 372154, Control_c, 0, 67, 52
1, 372169, Control_c, 0, 64, 71
1, 372169, Control_c, 0, 67, 59
1, 372184, Control_c, 0, 64, 73
1, 372184, Control_c, 0, 67, 64
1, 372199, Control_c, 0, 64, 74
1, 372199, Control_c, 0, 67, 68
1, 372214, Control_c, 0, 64, 75
1, 372214, Control_c, 0, 67, 70
1, 372229, Control_c, 0, 64, 77
1, 372229, Control_c, 0, 67, 72
1, 372243, Control_c, 0, 64, 78
1, 372243, Control_c, 0, 67, 74
1, 372258, Control_c, 0, 64, 79
1, 372258, Control_c, 0, 67, 75
1, 372273, Control_c, 0, 64, 80
1, 372273, Control_c, 0, 67, 76
1, 372288, Control_c, 0, 64, 80
1, 372288, Control_c, 0, 67, 77
1, 372303, Control_c, 0, 64, 81
1, 372303, Control_c, 0, 67, 78
1, 372318, Control_c, 0, 64, 81
1, 372318, Control_c, 0, 67, 80
1, 372332, Control_c, 0, 67, 82
1, 372347, Control_c, 0, 64, 82
1, 372347, Control_c, 0, 67, 85
1, 372362, Control_c, 0, 67, 88
1, 372377, Control_c, 0, 67, 91
1, 372392, Control_c, 0, 67, 93
1, 372399, Note_on_c, 0, 55, 29
1, 372406, Control_c, 0, 67, 95
1, 372421, Control_c, 0, 67, 96
1, 372436, Control_c, 0, 67, 97
1, 372449, Note_off_c, 0, 58, 40
1, 372450, Control_c, 0, 67, 98
1, 372584, Control_c, 0, 67, 97
1, 372613, Control_c, 0, 67, 97
1, 372744, Note_on_c, 0, 58, 34
1, 372755, Control_c, 0, 64, 81
1, 372781, Note_off_c, 0, 55, 40
1, 372858, Control_c, 0, 64, 81
1, 372949, Control_c, 0, 67, 96
1, 372963, Control_c, 0, 64, 80
1, 373008, Control_c, 0, 64, 80
1, 373037, Control_c, 0, 64, 79
1, 373037, Control_c, 0, 67, 96
1, 373067, Control_c, 0, 64, 79
1, 373081, Control_c, 0, 64, 78
1, 373096, Control_c, 0, 64, 77
1, 373105, Note_on_c, 0, 39, 47
1, 373108, Note_on_c, 0, 55, 33
1, 373111, Control_c, 0, 64, 76
1, 373111, Control_c, 0, 67, 95
1, 373126, Control_c, 0, 64, 74
1, 373141, Control_c, 0, 64, 72
1, 373156, Control_c, 0, 64, 69
1, 373164, Note_off_c, 0, 58, 42
1, 373171, Control_c, 0, 64, 65
1, 373185, Control_c, 0, 64, 59
1, 373185, Control_c, 0, 67, 95
1, 373200, Control_c, 0, 64, 54
1, 373215, Control_c, 0, 64, 53
1, 373230, Control_c, 0, 64, 54
1, 373245, Control_c, 0, 64, 54
1, 373260, Control_c, 0, 64, 55
1, 373274, Control_c, 0, 64, 57
1, 373274, Control_c, 0, 67, 94
1, 373289, Control_c, 0, 64, 60
1, 373289, Control_c, 0, 67, 94
1, 373304, Control_c, 0, 64, 62
1, 373319, Control_c, 0, 64, 63
1, 373319, Control_c, 0, 67, 93
1, 373334, Control_c, 0, 64, 64
1, 373334, Control_c, 0, 67, 93
1, 373349, Control_c, 0, 64, 65
1, 373349, Control_c, 0, 67, 92
1, 373363, Control_c, 0, 64, 67
1, 373363, Control_c, 0, 67, 91
1, 373378, Control_c, 0, 64, 69
1, 373378, Control_c, 0, 67, 90
1, 373393, Control_c, 0, 64, 71
1, 373407, Control_c, 0, 64, 73
1, 373407, Control_c, 0, 67, 89
1, 373422, Control_c, 0, 64, 75
1, 373422, Control_c, 0, 67, 87
1, 373437, Control_c, 0, 64, 77
1, 373437, Control_c, 0, 67, 85
1, 373446, Note_on_c, 0, 58, 38
1, 373452, Control_c, 0, 64, 79
1, 373452, Control_c, 0, 67, 83
1, 373467, Control_c, 0, 64, 80
1, 373467, Control_c, 0, 67, 79
1, 373489, Control_c, 0, 64, 82
1, 373489, Control_c, 0, 67, 76
1, 373504, Control_c, 0, 64, 83
1, 373504, Control_c, 0, 67, 70
1, 373519, Control_c, 0, 64, 85
1, 373519, Control_c, 0, 67, 62
1, 373534, Control_c, 0, 64, 86
1, 373534, Control_c, 0, 67, 54
1, 373549, Control_c, 0, 64, 87
1, 373549, Control_c, 0, 67, 47
1, 373563, Note_off_c, 0, 55, 43
1, 373563, Control_c, 0, 64, 88
1, 373563, Control_c, 0, 67, 40
1, 373578, Control_c, 0, 64, 89
1, 373578, Control_c, 0, 67, 32
1, 373593, Control_c, 0, 64, 90
1, 373593, Control_c, 0, 67, 27
1, 373607, Control_c, 0, 64, 90
1, 373607, Control_c, 0, 67, 22
1, 373622, Control_c, 0, 67, 19
1, 373637, Control_c, 0, 67, 15
1, 373652, Control_c, 0, 67, 11
1, 373667, Control_c, 0, 67, 0
1, 373856, Note_on_c, 0, 64, 61
1, 373874, Note_off_c, 0, 51, 34
1, 373901, Note_off_c, 0, 58, 41
1, 373907, Note_on_c, 0, 55, 32
1, 373978, Note_off_c, 0, 55, 0
1, 373978, Note_on_c, 0, 55, 4
1, 374237, Note_on_c, 0, 58, 39
1, 374241, Note_off_c, 0, 63, 12
1, 374256, Note_off_c, 0, 55, 43
1, 374430, Control_c, 0, 64, 90
1, 374445, Control_c, 0, 64, 89
1, 374490, Control_c, 0, 64, 89
1, 374521, Control_c, 0, 64, 88
1, 374535, Control_c, 0, 64, 87
1, 374565, Control_c, 0, 64, 86
1, 374580, Control_c, 0, 64, 86
1, 374595, Control_c, 0, 64, 84
1, 374605, Note_on_c, 0, 65, 63
1, 374609, Control_c, 0, 64, 82
1, 374615, Note_on_c, 0, 37, 42
1, 374624, Control_c, 0, 64, 78
1, 374639, Control_c, 0, 64, 73
1, 374644, Note_on_c, 0, 55, 33
1, 374650, Note_off_c, 0, 58, 41
1, 374653, Control_c, 0, 64, 69
1, 374668, Control_c, 0, 64, 65
1, 374683, Control_c, 0, 64, 62
1, 374685, Note_off_c, 0, 39, 25
1, 374694, Note_off_c, 0, 64, 37
1, 374698, Control_c, 0, 64, 58
1, 374713, Control_c, 0, 64, 49
1, 374727, Control_c, 0, 64, 39
1, 374742, Control_c, 0, 64, 28
1, 374757, Control_c, 0, 64, 14
1, 374772, Control_c, 0, 64, 0
1, 374891, Control_c, 0, 64, 24
1, 374905, Control_c, 0, 64, 44
1, 374920, Control_c, 0, 64, 55
1, 374935, Control_c, 0, 64, 60
1, 374950, Control_c, 0, 64, 62
1, 374964, Control_c, 0, 64, 63
1, 374986, Control_c, 0, 64, 64
1, 374997, Note_on_c, 0, 58, 38
1, 375001, Control_c, 0, 64, 65
1, 375016, Control_c, 0, 64, 66
1, 375031, Control_c, 0, 64, 67
1, 375046, Control_c, 0, 64, 69
1, 375060, Control_c, 0, 64, 70
1, 375075, Control_c, 0, 64, 72
1, 375090, Control_c, 0, 64, 73
1, 375092, Note_off_c, 0, 55, 42
1, 375105, Control_c, 0, 64, 75
1, 375120, Control_c, 0, 64, 76
1, 375134, Control_c, 0, 64, 77
1, 375149, Control_c, 0, 64, 78
1, 375164, Control_c, 0, 64, 79
1, 375178, Control_c, 0, 64, 80
1, 375178, Control_c, 0, 67, 11
1, 375193, Control_c, 0, 64, 81
1, 375193, Control_c, 0, 67, 17
1, 375208, Control_c, 0, 64, 82
1, 375208, Control_c, 0, 67, 22
1, 375223, Control_c, 0, 64, 83
1, 375223, Control_c, 0, 67, 25
1, 375238, Control_c, 0, 64, 83
1, 375238, Control_c, 0, 67, 26
1, 375252, Control_c, 0, 64, 84
1, 375267, Control_c, 0, 64, 85
1, 375282, Control_c, 0, 64, 85
1, 375298, Control_c, 0, 64, 86
1, 375313, Control_c, 0, 64, 87
1, 375328, Control_c, 0, 64, 87
1, 375343, Control_c, 0, 64, 88
1, 375350, Note_off_c, 0, 58, 50
1, 375357, Control_c, 0, 64, 89
1, 375360, Note_on_c, 0, 55, 36
1, 375372, Control_c, 0, 64, 89
1, 375417, Control_c, 0, 64, 90
1, 375669, Control_c, 0, 67, 26
1, 375708, Note_on_c, 0, 58, 41
1, 375713, Control_c, 0, 67, 27
1, 375751, Control_c, 0, 67, 27
1, 375758, Note_off_c, 0, 65, 31
1, 375765, Control_c, 0, 64, 90
1, 375765, Control_c, 0, 67, 28
1, 375780, Control_c, 0, 67, 29
1, 375795, Control_c, 0, 67, 32
1, 375809, Control_c, 0, 67, 35
1, 375819, Note_off_c, 0, 55, 42
1, 375824, Control_c, 0, 67, 36
1, 375839, Control_c, 0, 67, 38
1, 375854, Control_c, 0, 67, 40
1, 375869, Control_c, 0, 67, 41
1, 375883, Control_c, 0, 67, 42
1, 375898, Control_c, 0, 67, 42
1, 375901, Note_off_c, 0, 58, 37
1, 375913, Control_c, 0, 67, 43
1, 375928, Control_c, 0, 67, 44
1, 375943, Control_c, 0, 67, 44
1, 375958, Control_c, 0, 67, 45
1, 375973, Control_c, 0, 67, 45
1, 375987, Control_c, 0, 67, 46
1, 376017, Control_c, 0, 67, 46
1, 376032, Control_c, 0, 67, 47
1, 376062, Control_c, 0, 64, 89
1, 376076, Control_c, 0, 64, 87
1, 376076, Control_c, 0, 67, 47
1, 376091, Control_c, 0, 64, 85
1, 376092, Note_on_c, 0, 58, 61
1, 376107, Control_c, 0, 64, 81
1, 376107, Control_c, 0, 67, 48
1, 376122, Control_c, 0, 64, 76
1, 376122, Control_c, 0, 67, 48
1, 376132, Note_on_c, 0, 55, 37
1, 376135, Note_on_c, 0, 49, 35
1, 376137, Control_c, 0, 64, 71
1, 376137, Control_c, 0, 67, 49
1, 376151, Control_c, 0, 64, 65
1, 376151, Control_c, 0, 67, 50
1, 376166, Control_c, 0, 64, 60
1, 376166, Control_c, 0, 67, 52
1, 376181, Control_c, 0, 64, 54
1, 376181, Control_c, 0, 67, 53
1, 376196, Control_c, 0, 64, 46
1, 376196, Control_c, 0, 67, 54
1, 376211, Control_c, 0, 64, 39
1, 376211, Control_c, 0, 67, 55
1, 376225, Control_c, 0, 64, 35
1, 376240, Control_c, 0, 64, 32
1, 376240, Control_c, 0, 67, 55
1, 376255, Control_c, 0, 64, 29
1, 376255, Control_c, 0, 67, 56
1, 376270, Control_c, 0, 64, 27
1, 376285, Control_c, 0, 64, 26
1, 376285, Control_c, 0, 67, 56
1, 376299, Control_c, 0, 67, 57
1, 376329, Control_c, 0, 64, 28
1, 376329, Control_c, 0, 67, 58
1, 376344, Control_c, 0, 64, 31
1, 376344, Control_c, 0, 67, 59
1, 376359, Control_c, 0, 64, 34
1, 376359, Control_c, 0, 67, 61
1, 376373, Control_c, 0, 64, 36
1, 376373, Control_c, 0, 67, 62
1, 376388, Control_c, 0, 64, 39
1, 376388, Control_c, 0, 67, 63
1, 376401, Note_off_c, 0, 37, 28
1, 376403, Control_c, 0, 64, 43
1, 376403, Control_c, 0, 67, 66
1, 376418, Control_c, 0, 64, 48
1, 376418, Control_c, 0, 67, 69
1, 376432, Control_c, 0, 64, 53
1, 376432, Control_c, 0, 67, 72
1, 376447, Control_c, 0, 64, 55
1, 376447, Control_c, 0, 67, 75
1, 376462, Control_c, 0, 64, 57
1, 376462, Control_c, 0, 67, 80
1, 376478, Note_on_c, 0, 51, 32
1, 376485, Control_c, 0, 64, 58
1, 376485, Control_c, 0, 67, 85
1, 376500, Control_c, 0, 64, 60
1, 376500, Control_c, 0, 67, 90
1, 376514, Control_c, 0, 64, 61
1, 376514, Control_c, 0, 67, 98
1, 376529, Control_c, 0, 64, 63
1, 376529, Control_c, 0, 67, 105
1, 376544, Control_c, 0, 64, 64
1, 376544, Control_c, 0, 67, 111
1, 376559, Control_c, 0, 64, 65
1, 376559, Control_c, 0, 67, 117
1, 376563, Note_off_c, 0, 55, 42
1, 376574, Control_c, 0, 64, 66
1, 376574, Control_c, 0, 67, 123
1, 376588, Control_c, 0, 64, 67
1, 376588, Control_c, 0, 67, 127
1, 376603, Control_c, 0, 64, 69
1, 376618, Control_c, 0, 64, 72
1, 376632, Control_c, 0, 64, 74
1, 376647, Control_c, 0, 64, 75
1, 376662, Control_c, 0, 64, 76
1, 376677, Control_c, 0, 64, 77
1, 376692, Control_c, 0, 64, 78
1, 376706, Control_c, 0, 64, 79
1, 376721, Control_c, 0, 64, 80
1, 376736, Control_c, 0, 64, 80
1, 376751, Control_c, 0, 64, 81
1, 376780, Control_c, 0, 64, 81
1, 376858, Note_on_c, 0, 55, 38
1, 376891, Note_off_c, 0, 51, 35
1, 377023, Note_off_c, 0, 55, 37
1, 377184, Note_off_c, 0, 58, 50
1, 377244, Note_on_c, 0, 60, 50
1, 377269, Note_on_c, 0, 51, 29
1, 377308, Control_c, 0, 64, 81
1, 377388, Note_off_c, 0, 60, 56
1, 377425, Note_on_c, 0, 61, 60
1, 377426, Control_c, 0, 64, 80
1, 377455, Control_c, 0, 64, 80
1, 377470, Control_c, 0, 64, 79
1, 377500, Control_c, 0, 64, 79
1, 377544, Control_c, 0, 64, 78
1, 377559, Control_c, 0, 64, 78
1, 377573, Control_c, 0, 64, 77
1, 377588, Control_c, 0, 64, 77
1, 377603, Control_c, 0, 64, 75
1, 377618, Control_c, 0, 64, 73
1, 377633, Control_c, 0, 64, 70
1, 377637, Note_on_c, 0, 63, 69
1, 377648, Control_c, 0, 64, 66
1, 377663, Control_c, 0, 64, 63
1, 377664, Note_on_c, 0, 48, 34
1, 377676, Note_on_c, 0, 56, 39
1, 377678, Control_c, 0, 64, 60
1, 377684, Note_off_c, 0, 61, 55
1, 377693, Control_c, 0, 64, 57
1, 377708, Control_c, 0, 64, 53
1, 377716, Note_off_c, 0, 51, 38
1, 377723, Control_c, 0, 64, 51
1, 377738, Control_c, 0, 64, 49
1, 377752, Control_c, 0, 64, 47
1, 377767, Control_c, 0, 64, 45
1, 377770, Note_off_c, 0, 49, 36
1, 377782, Control_c, 0, 64, 41
1, 377797, Control_c, 0, 64, 36
1, 377812, Control_c, 0, 64, 29
1, 377827, Control_c, 0, 64, 23
1, 377842, Control_c, 0, 64, 18
1, 377857, Control_c, 0, 64, 10
1, 377871, Control_c, 0, 64, 0
1, 378029, Note_on_c, 0, 51, 34
1, 378056, Note_off_c, 0, 56, 52
1, 378145, Control_c, 0, 64, 18
1, 378160, Control_c, 0, 64, 33
1, 378175, Control_c, 0, 64, 43
1, 378190, Control_c, 0, 64, 50
1, 378204, Control_c, 0, 64, 53
1, 378219, Control_c, 0, 64, 55
1, 378234, Control_c, 0, 64, 55
1, 378278, Control_c, 0, 64, 56
1, 378323, Control_c, 0, 64, 56
1, 378357, Note_on_c, 0, 56, 39
1, 378367, Control_c, 0, 64, 57
1, 378382, Control_c, 0, 64, 58
1, 378396, Control_c, 0, 64, 58
1, 378411, Control_c, 0, 64, 59
1, 378426, Control_c, 0, 64, 60
1, 378441, Control_c, 0, 64, 61
1, 378456, Control_c, 0, 64, 62
1, 378461, Note_off_c, 0, 51, 36
1, 378471, Control_c, 0, 64, 63
1, 378485, Control_c, 0, 64, 64
1, 378501, Control_c, 0, 64, 65
1, 378516, Control_c, 0, 64, 66
1, 378531, Control_c, 0, 64, 67
1, 378546, Control_c, 0, 64, 69
1, 378561, Control_c, 0, 64, 70
1, 378575, Control_c, 0, 64, 71
1, 378590, Control_c, 0, 64, 72
1, 378605, Control_c, 0, 64, 73
1, 378620, Control_c, 0, 64, 75
1, 378635, Control_c, 0, 64, 75
1, 378649, Control_c, 0, 64, 76
1, 378664, Control_c, 0, 64, 77
1, 378679, Control_c, 0, 64, 78
1, 378694, Control_c, 0, 64, 79
1, 378709, Control_c, 0, 64, 80
1, 378731, Control_c, 0, 64, 81
1, 378739, Note_on_c, 0, 51, 36
1, 378746, Control_c, 0, 64, 82
1, 378761, Control_c, 0, 64, 82
1, 378775, Control_c, 0, 64, 83
1, 378795, Note_off_c, 0, 63, 28
1, 378805, Control_c, 0, 64, 83
1, 378846, Note_off_c, 0, 56, 37
1, 378968, Note_off_c, 0, 51, 36
1, 379072, Control_c, 0, 64, 82
1, 379087, Control_c, 0, 64, 81
1, 379101, Note_on_c, 0, 57, 53
1, 379101, Control_c, 0, 64, 79
1, 379116, Control_c, 0, 64, 76
1, 379120, Note_on_c, 0, 51, 37
1, 379126, Note_on_c, 0, 41, 37
1, 379131, Control_c, 0, 64, 73
1, 379145, Control_c, 0, 64, 69
1, 379160, Control_c, 0, 64, 65
1, 379175, Control_c, 0, 64, 61
1, 379190, Control_c, 0, 64, 55
1, 379205, Control_c, 0, 64, 43
1, 379219, Control_c, 0, 64, 37
1, 379249, Control_c, 0, 64, 37
1, 379259, Note_off_c, 0, 48, 38
1, 379279, Control_c, 0, 64, 38
1, 379310, Control_c, 0, 64, 38
1, 379324, Control_c, 0, 64, 39
1, 379339, Control_c, 0, 64, 39
1, 379354, Control_c, 0, 64, 40
1, 379369, Control_c, 0, 64, 41
1, 379384, Control_c, 0, 64, 43
1, 379398, Control_c, 0, 64, 44
1, 379413, Control_c, 0, 64, 46
1, 379428, Control_c, 0, 64, 49
1, 379442, Control_c, 0, 64, 53
1, 379454, Note_off_c, 0, 51, 40
1, 379457, Control_c, 0, 64, 56
1, 379479, Note_on_c, 0, 48, 35
1, 379480, Control_c, 0, 64, 58
1, 379495, Control_c, 0, 64, 60
1, 379510, Control_c, 0, 64, 61
1, 379524, Control_c, 0, 64, 62
1, 379539, Control_c, 0, 64, 63
1, 379554, Control_c, 0, 64, 64
1, 379569, Control_c, 0, 64, 64
1, 379583, Control_c, 0, 64, 65
1, 379598, Control_c, 0, 64, 66
1, 379613, Control_c, 0, 64, 67
1, 379628, Control_c, 0, 64, 68
1, 379642, Control_c, 0, 64, 69
1, 379657, Control_c, 0, 64, 69
1, 379672, Control_c, 0, 64, 70
1, 379687, Control_c, 0, 64, 71
1, 379717, Control_c, 0, 64, 71
1, 379806, Control_c, 0, 64, 72
1, 379830, Note_on_c, 0, 51, 38
1, 379863, Note_off_c, 0, 48, 36
1, 380185, Note_on_c, 0, 48, 38
1, 380249, Note_off_c, 0, 51, 34
1, 380480, Control_c, 0, 64, 71
1, 380525, Control_c, 0, 64, 71
1, 380540, Control_c, 0, 64, 70
1, 380554, Control_c, 0, 64, 69
1, 380569, Control_c, 0, 64, 68
1, 380571, Note_on_c, 0, 61, 57
1, 380584, Control_c, 0, 64, 66
1, 380585, Note_on_c, 0, 34, 42
1, 380596, Note_on_c, 0, 53, 40
1, 380599, Control_c, 0, 64, 64
1, 380614, Control_c, 0, 64, 60
1, 380629, Control_c, 0, 64, 53
1, 380644, Control_c, 0, 64, 37
1, 380659, Control_c, 0, 64, 0
1, 380674, Note_off_c, 0, 48, 49
1, 380714, Note_off_c, 0, 41, 36
1, 380777, Control_c, 0, 64, 14
1, 380791, Control_c, 0, 64, 31
1, 380806, Control_c, 0, 64, 40
1, 380821, Control_c, 0, 64, 48
1, 380836, Control_c, 0, 64, 51
1, 380851, Control_c, 0, 64, 53
1, 380865, Control_c, 0, 64, 53
1, 380926, Control_c, 0, 64, 54
1, 380941, Control_c, 0, 64, 54
1, 380956, Control_c, 0, 64, 55
1, 380978, Control_c, 0, 64, 56
1, 380992, Control_c, 0, 64, 57
1, 380998, Note_on_c, 0, 49, 31
1, 381007, Control_c, 0, 64, 58
1, 381022, Control_c, 0, 64, 60
1, 381037, Control_c, 0, 64, 61
1, 381052, Control_c, 0, 64, 61
1, 381067, Control_c, 0, 64, 62
1, 381069, Note_off_c, 0, 53, 37
1, 381082, Control_c, 0, 64, 63
1, 381096, Control_c, 0, 64, 64
1, 381111, Control_c, 0, 64, 65
1, 381126, Control_c, 0, 64, 66
1, 381141, Control_c, 0, 64, 68
1, 381156, Control_c, 0, 64, 70
1, 381170, Control_c, 0, 64, 71
1, 381185, Control_c, 0, 64, 72
1, 381200, Control_c, 0, 64, 73
1, 381215, Control_c, 0, 64, 74
1, 381229, Control_c, 0, 64, 75
1, 381244, Control_c, 0, 64, 75
1, 381282, Note_off_c, 0, 57, 1
1, 381289, Control_c, 0, 64, 76
1, 381303, Control_c, 0, 64, 76
1, 381333, Control_c, 0, 64, 77
1, 381344, Note_on_c, 0, 53, 41
1, 381362, Control_c, 0, 64, 77
1, 381392, Control_c, 0, 64, 78
1, 381422, Control_c, 0, 64, 78
1, 381476, Note_off_c, 0, 49, 39
1, 381701, Note_on_c, 0, 49, 37
1, 381768, Note_off_c, 0, 61, 41
1, 381905, Note_off_c, 0, 49, 41
1, 381923, Note_off_c, 0, 53, 41
1, 382052, Control_c, 0, 64, 78
1, 382067, Control_c, 0, 64, 77
1, 382082, Control_c, 0, 64, 75
1, 382097, Control_c, 0, 64, 72
1, 382112, Control_c, 0, 64, 69
1, 382118, Note_on_c, 0, 60, 55
1, 382126, Control_c, 0, 64, 64
1, 382141, Control_c, 0, 64, 55
1, 382145, Note_on_c, 0, 39, 32
1, 382154, Note_on_c, 0, 49, 28
1, 382156, Control_c, 0, 64, 28
1, 382170, Control_c, 0, 64, 0
1, 382227, Note_off_c, 0, 34, 42
1, 382244, Control_c, 0, 64, 34
1, 382259, Control_c, 0, 64, 54
1, 382274, Control_c, 0, 64, 61
1, 382289, Control_c, 0, 64, 63
1, 382304, Control_c, 0, 64, 64
1, 382319, Control_c, 0, 64, 65
1, 382334, Control_c, 0, 64, 66
1, 382349, Control_c, 0, 64, 67
1, 382363, Control_c, 0, 64, 68
1, 382378, Control_c, 0, 64, 69
1, 382383, Note_off_c, 0, 49, 40
1, 382392, Note_off_c, 0, 60, 58
1, 382393, Control_c, 0, 64, 70
1, 382423, Control_c, 0, 64, 70
1, 382437, Control_c, 0, 64, 71
1, 382506, Control_c, 0, 64, 70
1, 382521, Control_c, 0, 64, 68
1, 382536, Control_c, 0, 64, 65
1, 382537, Note_on_c, 0, 58, 60
1, 382550, Control_c, 0, 64, 60
1, 382563, Note_on_c, 0, 49, 38
1, 382565, Control_c, 0, 64, 58
1, 382594, Control_c, 0, 64, 59
1, 382609, Control_c, 0, 64, 60
1, 382624, Control_c, 0, 64, 62
1, 382639, Control_c, 0, 64, 63
1, 382654, Control_c, 0, 64, 64
1, 382668, Control_c, 0, 64, 65
1, 382683, Control_c, 0, 64, 66
1, 382698, Control_c, 0, 64, 67
1, 382713, Control_c, 0, 64, 68
1, 382742, Control_c, 0, 64, 68
1, 382771, Note_off_c, 0, 49, 42
1, 382772, Control_c, 0, 64, 69
1, 382821, Note_off_c, 0, 58, 37
1, 382876, Control_c, 0, 64, 68
1, 382891, Control_c, 0, 64, 65
1, 382900, Note_on_c, 0, 56, 61
1, 382906, Control_c, 0, 64, 61
1, 382918, Note_on_c, 0, 49, 35
1, 382921, Control_c, 0, 64, 52
1, 382936, Control_c, 0, 64, 46
1, 382950, Control_c, 0, 64, 48
1, 382965, Control_c, 0, 64, 52
1, 382980, Control_c, 0, 64, 57
1, 382994, Control_c, 0, 64, 61
1, 383009, Control_c, 0, 64, 63
1, 383024, Control_c, 0, 64, 65
1, 383039, Control_c, 0, 64, 67
1, 383054, Control_c, 0, 64, 69
1, 383068, Control_c, 0, 64, 71
1, 383083, Control_c, 0, 64, 72
1, 383098, Control_c, 0, 64, 73
1, 383113, Control_c, 0, 64, 74
1, 383116, Note_off_c, 0, 49, 45
1, 383127, Control_c, 0, 64, 75
1, 383131, Note_off_c, 0, 56, 49
1, 383157, Control_c, 0, 64, 76
1, 383172, Control_c, 0, 64, 76
1, 383186, Control_c, 0, 64, 77
1, 383253, Control_c, 0, 64, 74
1, 383267, Control_c, 0, 64, 69
1, 383270, Note_on_c, 0, 55, 63
1, 383282, Control_c, 0, 64, 63
1, 383292, Note_on_c, 0, 49, 35
1, 383298, Control_c, 0, 64, 53
1, 383313, Control_c, 0, 64, 44
1, 383328, Control_c, 0, 64, 48
1, 383343, Control_c, 0, 64, 52
1, 383358, Control_c, 0, 64, 58
1, 383372, Control_c, 0, 64, 62
1, 383387, Control_c, 0, 64, 64
1, 383402, Control_c, 0, 64, 66
1, 383416, Control_c, 0, 64, 68
1, 383431, Control_c, 0, 64, 69
1, 383446, Control_c, 0, 64, 71
1, 383461, Note_off_c, 0, 49, 53
1, 383461, Control_c, 0, 64, 72
1, 383490, Note_off_c, 0, 55, 58
1, 383490, Control_c, 0, 64, 72
1, 383621, Note_on_c, 0, 32, 27
1, 383639, Control_c, 0, 64, 72
1, 383654, Control_c, 0, 64, 71
1, 383669, Control_c, 0, 64, 69
1, 383677, Note_on_c, 0, 58, 63
1, 383683, Note_on_c, 0, 55, 37
1, 383683, Control_c, 0, 64, 66
1, 383698, Control_c, 0, 64, 63
1, 383703, Note_on_c, 0, 49, 44
1, 383713, Control_c, 0, 64, 59
1, 383728, Control_c, 0, 64, 50
1, 383741, Note_off_c, 0, 39, 41
1, 383742, Control_c, 0, 64, 41
1, 383757, Control_c, 0, 64, 35
1, 383772, Control_c, 0, 64, 34
1, 383787, Control_c, 0, 64, 33
1, 383802, Control_c, 0, 64, 31
1, 383816, Control_c, 0, 64, 31
1, 383846, Control_c, 0, 64, 31
1, 383861, Control_c, 0, 64, 32
1, 383876, Control_c, 0, 64, 34
1, 383890, Control_c, 0, 64, 35
1, 383905, Control_c, 0, 64, 36
1, 383920, Control_c, 0, 64, 36
1, 384066, Note_on_c, 0, 51, 43
1, 384101, Note_off_c, 0, 49, 48
1, 384120, Control_c, 0, 64, 37
1, 384135, Control_c, 0, 64, 38
1, 384150, Control_c, 0, 64, 38
1, 384283, Control_c, 0, 64, 38
1, 384328, Control_c, 0, 64, 37
1, 384343, Control_c, 0, 64, 36
1, 384387, Control_c, 0, 64, 36
1, 384402, Control_c, 0, 64, 35
1, 384417, Control_c, 0, 64, 35
1, 384431, Control_c, 0, 64, 34
1, 384446, Control_c, 0, 64, 34
1, 384451, Note_on_c, 0, 44, 37
1, 384453, Note_on_c, 0, 49, 32
1, 384461, Control_c, 0, 64, 33
1, 384462, Note_off_c, 0, 51, 50
1, 384476, Control_c, 0, 64, 33
1, 384575, Note_off_c, 0, 32, 42
1, 384764, Control_c, 0, 64, 33
1, 384779, Control_c, 0, 64, 34
1, 384794, Control_c, 0, 64, 36
1, 384809, Control_c, 0, 64, 39
1, 384824, Control_c, 0, 64, 43
1, 384838, Control_c, 0, 64, 52
1, 384844, Note_on_c, 0, 51, 37
1, 384853, Control_c, 0, 64, 58
1, 384868, Control_c, 0, 64, 62
1, 384880, Note_off_c, 0, 55, 35
1, 384883, Control_c, 0, 64, 64
1, 384899, Control_c, 0, 64, 66
1, 384914, Control_c, 0, 64, 67
1, 384929, Control_c, 0, 64, 69
1, 384933, Note_off_c, 0, 49, 36
1, 384943, Control_c, 0, 64, 71
1, 384958, Control_c, 0, 64, 73
1, 384973, Control_c, 0, 64, 74
1, 384987, Control_c, 0, 64, 74
1, 385002, Control_c, 0, 64, 75
1, 385181, Control_c, 0, 64, 74
1, 385195, Control_c, 0, 64, 74
1, 385210, Control_c, 0, 64, 73
1, 385225, Control_c, 0, 64, 72
1, 385228, Note_off_c, 0, 51, 35
1, 385240, Control_c, 0, 64, 71
1, 385254, Control_c, 0, 64, 69
1, 385269, Control_c, 0, 64, 66
1, 385284, Control_c, 0, 64, 63
1, 385299, Control_c, 0, 64, 59
1, 385303, Note_on_c, 0, 56, 41
1, 385309, Note_off_c, 0, 44, 40
1, 385311, Note_on_c, 0, 32, 34
1, 385313, Control_c, 0, 64, 51
1, 385321, Note_on_c, 0, 48, 35
1, 385328, Control_c, 0, 64, 36
1, 385343, Control_c, 0, 64, 0
1, 385392, Note_off_c, 0, 58, 47
1, 385557, Control_c, 0, 64, 43
1, 385572, Control_c, 0, 64, 60
1, 385586, Control_c, 0, 64, 65
1, 385601, Control_c, 0, 64, 68
1, 385616, Control_c, 0, 64, 71
1, 385631, Control_c, 0, 64, 75
1, 385633, Note_off_c, 0, 56, 59
1, 385646, Control_c, 0, 64, 79
1, 385661, Control_c, 0, 64, 83
1, 385675, Control_c, 0, 64, 86
1, 385691, Control_c, 0, 64, 87
1, 385695, Note_off_c, 0, 48, 40
1, 385706, Control_c, 0, 64, 88
1, 385943, Control_c, 0, 64, 88
1, 385958, Control_c, 0, 64, 87
1, 385973, Control_c, 0, 64, 87
1, 385988, Control_c, 0, 64, 86
1, 386003, Control_c, 0, 64, 85
1, 386017, Control_c, 0, 64, 84
1, 386032, Control_c, 0, 64, 83
1, 386047, Control_c, 0, 64, 81
1, 386062, Control_c, 0, 64, 78
1, 386077, Control_c, 0, 64, 73
1, 386091, Control_c, 0, 64, 68
1, 386106, Control_c, 0, 64, 63
1, 386121, Control_c, 0, 64, 55
1, 386125, Note_off_c, 0, 32, 42
1, 386135, Control_c, 0, 64, 38
1, 386143, Note_on_c, 0, 63, 47
1, 386150, Control_c, 0, 64, 0
1, 386322, Control_c, 0, 64, 46
1, 386336, Control_c, 0, 64, 60
1, 386351, Control_c, 0, 64, 64
1, 386366, Control_c, 0, 64, 67
1, 386381, Control_c, 0, 64, 69
1, 386396, Control_c, 0, 64, 72
1, 386410, Control_c, 0, 64, 76
1, 386425, Control_c, 0, 64, 81
1, 386440, Control_c, 0, 64, 85
1, 386455, Control_c, 0, 64, 88
1, 386470, Control_c, 0, 64, 90
1, 386486, Control_c, 0, 64, 92
1, 386501, Control_c, 0, 64, 93
1, 386515, Control_c, 0, 64, 94
1, 386530, Control_c, 0, 64, 95
1, 386544, Note_off_c, 0, 63, 55
1, 386545, Control_c, 0, 64, 95
1, 386559, Control_c, 0, 64, 96
1, 386574, Control_c, 0, 64, 97
1, 386871, Control_c, 0, 64, 96
1, 386886, Control_c, 0, 64, 92
1, 386901, Control_c, 0, 64, 86
1, 386915, Control_c, 0, 64, 77
1, 386921, Note_on_c, 0, 68, 60
1, 386930, Control_c, 0, 64, 68
1, 386939, Note_on_c, 0, 44, 39
1, 386944, Note_on_c, 0, 56, 35
1, 386945, Control_c, 0, 64, 56
1, 386948, Note_on_c, 0, 59, 33
1, 386961, Note_on_c, 0, 63, 37
1, 386966, Control_c, 0, 64, 0
1, 387018, Note_off_c, 0, 63, 44
1, 387027, Note_off_c, 0, 59, 45
1, 387170, Note_on_c, 0, 59, 35
1, 387180, Note_on_c, 0, 63, 40
1, 387224, Note_off_c, 0, 59, 55
1, 387231, Note_off_c, 0, 63, 54
1, 387400, Note_on_c, 0, 59, 41
1, 387402, Note_on_c, 0, 63, 35
1, 387444, Note_off_c, 0, 59, 52
1, 387473, Note_off_c, 0, 63, 42
1, 387621, Note_on_c, 0, 71, 60
1, 387629, Note_on_c, 0, 59, 46
1, 387637, Note_on_c, 0, 63, 36
1, 387679, Note_off_c, 0, 59, 57
1, 387679, Note_off_c, 0, 63, 51
1, 387708, Note_off_c, 0, 68, 38
1, 387850, Note_on_c, 0, 59, 19
1, 387854, Note_on_c, 0, 63, 16
1, 387895, Note_off_c, 0, 59, 41
1, 387895, Note_off_c, 0, 63, 47
1, 388050, Note_on_c, 0, 59, 35
1, 388053, Note_on_c, 0, 63, 34
1, 388104, Note_off_c, 0, 59, 45
1, 388107, Note_off_c, 0, 63, 43
1, 388272, Note_on_c, 0, 70, 58
1, 388288, Note_on_c, 0, 59, 34
1, 388292, Note_on_c, 0, 63, 35
1, 388303, Note_off_c, 0, 71, 60
1, 388327, Note_off_c, 0, 44, 41
1, 388346, Note_off_c, 0, 63, 47
1, 388355, Note_off_c, 0, 59, 43
1, 388367, Note_off_c, 0, 56, 36
1, 388485, Note_on_c, 0, 59, 43
1, 388500, Note_on_c, 0, 63, 34
1, 388543, Note_off_c, 0, 59, 57
1, 388554, Note_off_c, 0, 63, 55
1, 388693, Note_on_c, 0, 59, 48
1, 388700, Note_on_c, 0, 63, 39
1, 388751, Note_off_c, 0, 59, 53
1, 388754, Note_off_c, 0, 63, 60
1, 388916, Note_on_c, 0, 68, 59
1, 388942, Note_on_c, 0, 59, 34
1, 388957, Note_on_c, 0, 63, 26
1, 389014, Note_off_c, 0, 63, 46
1, 389023, Note_off_c, 0, 59, 41
1, 389028, Note_off_c, 0, 70, 50
1, 389123, Note_on_c, 0, 63, 49
1, 389128, Note_on_c, 0, 59, 51
1, 389169, Note_off_c, 0, 59, 62
1, 389178, Note_off_c, 0, 63, 58
1, 389330, Note_on_c, 0, 63, 42
1, 389348, Note_on_c, 0, 59, 38
1, 389386, Note_off_c, 0, 59, 52
1, 389438, Note_off_c, 0, 63, 56
1, 389550, Note_on_c, 0, 67, 52
1, 389554, Note_on_c, 0, 58, 59
1, 389583, Note_on_c, 0, 63, 28
1, 389586, Note_on_c, 0, 61, 32
1, 389622, Note_off_c, 0, 68, 36
1, 389626, Note_off_c, 0, 61, 52
1, 389642, Note_off_c, 0, 63, 45
1, 389762, Note_on_c, 0, 63, 46
1, 389788, Note_on_c, 0, 61, 34
1, 389846, Note_off_c, 0, 61, 50
1, 389860, Note_off_c, 0, 63, 59
1, 389988, Note_on_c, 0, 61, 35
1, 390001, Note_on_c, 0, 63, 47
1, 390062, Note_off_c, 0, 61, 54
1, 390084, Note_off_c, 0, 63, 57
1, 390197, Note_on_c, 0, 73, 60
1, 390242, Note_on_c, 0, 61, 4
1, 390247, Note_on_c, 0, 63, 26
1, 390271, Note_off_c, 0, 58, 52
1, 390273, Note_off_c, 0, 61, 48
1, 390281, Note_off_c, 0, 67, 35
1, 390285, Note_off_c, 0, 63, 51
1, 390397, Note_on_c, 0, 63, 43
1, 390399, Note_on_c, 0, 61, 41
1, 390410, Note_on_c, 0, 58, 42
1, 390509, Note_off_c, 0, 63, 51
1, 390518, Note_off_c, 0, 61, 37
1, 390614, Note_on_c, 0, 57, 52
1, 390618, Note_on_c, 0, 63, 47
1, 390622, Note_off_c, 0, 58, 50
1, 390636, Note_on_c, 0, 61, 36
1, 390707, Note_off_c, 0, 61, 46
1, 390718, Note_off_c, 0, 63, 58
1, 390823, Note_on_c, 0, 58, 58
1, 390827, Note_on_c, 0, 63, 37
1, 390844, Note_off_c, 0, 57, 54
1, 390846, Note_on_c, 0, 61, 23
1, 390882, Note_off_c, 0, 61, 52
1, 390898, Note_off_c, 0, 63, 57
1, 390924, Note_off_c, 0, 58, 59
1, 391034, Note_on_c, 0, 63, 49
1, 391038, Note_on_c, 0, 58, 58
1, 391038, Note_on_c, 0, 61, 30
1, 391096, Note_off_c, 0, 61, 42
1, 391107, Note_off_c, 0, 63, 49
1, 391123, Note_off_c, 0, 58, 55
1, 391242, Note_on_c, 0, 61, 34
1, 391245, Note_on_c, 0, 63, 43
1, 391251, Note_on_c, 0, 56, 49
1, 391316, Note_off_c, 0, 61, 57
1, 391340, Note_off_c, 0, 63, 49
1, 391353, Note_off_c, 0, 56, 54
1, 391462, Note_on_c, 0, 61, 33
1, 391469, Note_on_c, 0, 63, 42
1, 391474, Note_on_c, 0, 55, 43
1, 391551, Note_off_c, 0, 63, 55
1, 391556, Note_off_c, 0, 61, 42
1, 391581, Note_off_c, 0, 55, 58
1, 391667, Note_on_c, 0, 61, 43
1, 391679, Note_on_c, 0, 53, 45
1, 391681, Note_on_c, 0, 63, 44
1, 391750, Note_off_c, 0, 61, 51
1, 391765, Note_off_c, 0, 63, 56
1, 391774, Note_off_c, 0, 53, 59
1, 391885, Note_on_c, 0, 61, 39
1, 391887, Note_on_c, 0, 51, 45
1, 391891, Note_on_c, 0, 63, 41
1, 391960, Note_off_c, 0, 61, 55
1, 391977, Note_off_c, 0, 63, 53
1, 392013, Note_off_c, 0, 73, 46
1, 392052, Note_off_c, 0, 51, 37
1, 392102, Note_on_c, 0, 68, 66
1, 392117, Note_on_c, 0, 56, 45
1, 392123, Note_on_c, 0, 59, 43
1, 392132, Note_on_c, 0, 63, 29
1, 392210, Note_off_c, 0, 59, 56
1, 392234, Note_off_c, 0, 63, 44
1, 392348, Note_on_c, 0, 59, 27
1, 392353, Note_on_c, 0, 63, 39
1, 392387, Note_off_c, 0, 59, 51
1, 392390, Note_off_c, 0, 63, 54
1, 392553, Note_on_c, 0, 59, 44
1, 392558, Note_on_c, 0, 63, 41
1, 392607, Note_off_c, 0, 59, 56
1, 392626, Note_off_c, 0, 63, 54
1, 392770, Note_on_c, 0, 71, 62
1, 392786, Note_on_c, 0, 59, 53
1, 392786, Note_on_c, 0, 63, 43
1, 392827, Note_off_c, 0, 56, 51
1, 392836, Note_off_c, 0, 68, 26
1, 392841, Note_off_c, 0, 63, 58
1, 392857, Note_off_c, 0, 59, 59
1, 392990, Note_on_c, 0, 63, 42
1, 393005, Note_on_c, 0, 59, 29
1, 393043, Note_off_c, 0, 59, 53
1, 393055, Note_off_c, 0, 63, 56
1, 393199, Note_on_c, 0, 59, 48
1, 393200, Note_on_c, 0, 63, 43
1, 393247, Note_off_c, 0, 59, 56
1, 393265, Note_off_c, 0, 63, 51
1, 393414, Note_on_c, 0, 70, 58
1, 393418, Note_on_c, 0, 63, 41
1, 393421, Note_on_c, 0, 59, 40
1, 393443, Note_off_c, 0, 71, 52
1, 393506, Note_off_c, 0, 59, 59
1, 393507, Note_off_c, 0, 63, 54
1, 393630, Note_on_c, 0, 59, 45
1, 393636, Note_on_c, 0, 63, 40
1, 393679, Note_off_c, 0, 59, 49
1, 393697, Note_off_c, 0, 63, 45
1, 393828, Note_on_c, 0, 63, 43
1, 393838, Note_on_c, 0, 59, 42
1, 393920, Note_off_c, 0, 59, 62
1, 393927, Note_off_c, 0, 63, 57
1, 394037, Note_on_c, 0, 68, 61
1, 394061, Note_on_c, 0, 59, 43
1, 394080, Note_on_c, 0, 63, 38
1, 394105, Note_off_c, 0, 59, 53
1, 394113, Note_off_c, 0, 63, 55
1, 394127, Note_off_c, 0, 70, 39
1, 394242, Note_on_c, 0, 59, 43
1, 394243, Note_on_c, 0, 63, 42
1, 394284, Control_c, 0, 64, 32
1, 394297, Note_off_c, 0, 59, 60
1, 394299, Control_c, 0, 64, 54
1, 394314, Control_c, 0, 64, 59
1, 394315, Note_off_c, 0, 63, 58
1, 394329, Control_c, 0, 64, 60
1, 394373, Control_c, 0, 64, 60
1, 394388, Control_c, 0, 64, 61
1, 394403, Control_c, 0, 64, 62
1, 394417, Control_c, 0, 64, 62
1, 394432, Control_c, 0, 64, 63
1, 394454, Control_c, 0, 64, 64
1, 394466, Note_on_c, 0, 59, 43
1, 394469, Note_on_c, 0, 63, 49
1, 394470, Control_c, 0, 64, 65
1, 394485, Control_c, 0, 64, 66
1, 394499, Control_c, 0, 64, 67
1, 394514, Control_c, 0, 64, 68
1, 394527, Note_off_c, 0, 59, 58
1, 394529, Control_c, 0, 64, 70
1, 394544, Control_c, 0, 64, 71
1, 394559, Control_c, 0, 64, 72
1, 394568, Note_off_c, 0, 63, 59
1, 394594, Note_off_c, 0, 68, 60
1, 394692, Control_c, 0, 64, 72
1, 394707, Control_c, 0, 64, 70
1, 394711, Note_on_c, 0, 68, 63
1, 394717, Note_on_c, 0, 51, 63
1, 394722, Note_on_c, 0, 63, 40
1, 394722, Control_c, 0, 64, 68
1, 394737, Control_c, 0, 64, 65
1, 394743, Note_on_c, 0, 58, 33
1, 394752, Control_c, 0, 64, 62
1, 394766, Control_c, 0, 64, 58
1, 394781, Control_c, 0, 64, 51
1, 394788, Note_off_c, 0, 58, 53
1, 394796, Control_c, 0, 64, 43
1, 394804, Note_off_c, 0, 63, 47
1, 394811, Control_c, 0, 64, 34
1, 394826, Control_c, 0, 64, 26
1, 394840, Control_c, 0, 64, 17
1, 394855, Control_c, 0, 64, 0
1, 394943, Note_on_c, 0, 63, 50
1, 394955, Note_on_c, 0, 58, 31
1, 395012, Note_off_c, 0, 58, 48
1, 395040, Note_off_c, 0, 63, 44
1, 395154, Note_on_c, 0, 58, 29
1, 395160, Note_on_c, 0, 63, 43
1, 395262, Note_off_c, 0, 58, 42
1, 395322, Control_c, 0, 64, 25
1, 395337, Control_c, 0, 64, 44
1, 395346, Note_off_c, 0, 63, 0
1, 395352, Control_c, 0, 64, 54
1, 395366, Note_on_c, 0, 63, 25
1, 395367, Control_c, 0, 64, 59
1, 395374, Note_on_c, 0, 58, 41
1, 395374, Note_on_c, 0, 67, 52
1, 395382, Control_c, 0, 64, 61
1, 395396, Control_c, 0, 64, 62
1, 395399, Note_off_c, 0, 68, 56
1, 395411, Control_c, 0, 64, 63
1, 395449, Note_off_c, 0, 58, 59
1, 395465, Note_off_c, 0, 51, 59
1, 395469, Note_off_c, 0, 63, 54
1, 395471, Control_c, 0, 64, 62
1, 395486, Control_c, 0, 64, 62
1, 395500, Control_c, 0, 64, 61
1, 395515, Control_c, 0, 64, 61
1, 395530, Control_c, 0, 64, 60
1, 395545, Control_c, 0, 64, 58
1, 395560, Control_c, 0, 64, 57
1, 395575, Control_c, 0, 64, 55
1, 395577, Note_on_c, 0, 58, 46
1, 395589, Note_on_c, 0, 51, 58
1, 395589, Control_c, 0, 64, 53
1, 395591, Note_on_c, 0, 63, 45
1, 395604, Control_c, 0, 64, 52
1, 395619, Control_c, 0, 64, 50
1, 395624, Note_off_c, 0, 63, 58
1, 395633, Note_off_c, 0, 58, 55
1, 395634, Control_c, 0, 64, 49
1, 395648, Control_c, 0, 64, 48
1, 395663, Control_c, 0, 64, 46
1, 395678, Control_c, 0, 64, 46
1, 395737, Control_c, 0, 64, 45
1, 395769, Note_on_c, 0, 63, 42
1, 395785, Note_on_c, 0, 58, 38
1, 395788, Note_on_c, 0, 50, 62
1, 395808, Note_off_c, 0, 63, 63
1, 395826, Control_c, 0, 64, 45
1, 395828, Note_off_c, 0, 58, 55
1, 395839, Note_off_c, 0, 51, 34
1, 395840, Control_c, 0, 64, 44
1, 395855, Control_c, 0, 64, 43
1, 395870, Control_c, 0, 64, 41
1, 395885, Control_c, 0, 64, 38
1, 395900, Control_c, 0, 64, 34
1, 395915, Control_c, 0, 64, 28
1, 395930, Control_c, 0, 64, 15
1, 395952, Control_c, 0, 64, 0
1, 396003, Note_on_c, 0, 58, 40
1, 396007, Note_on_c, 0, 51, 60
1, 396010, Note_on_c, 0, 63, 44
1, 396016, Note_on_c, 0, 55, 33
1, 396055, Note_off_c, 0, 50, 59
1, 396090, Note_off_c, 0, 55, 48
1, 396103, Note_off_c, 0, 58, 61
1, 396117, Note_off_c, 0, 63, 57
1, 396133, Note_off_c, 0, 51, 60
1, 396219, Note_on_c, 0, 52, 64
1, 396224, Note_on_c, 0, 63, 26
1, 396228, Note_on_c, 0, 55, 31
1, 396236, Note_on_c, 0, 58, 39
1, 396297, Note_off_c, 0, 58, 58
1, 396311, Note_off_c, 0, 52, 62
1, 396330, Note_off_c, 0, 63, 38
1, 396336, Note_off_c, 0, 55, 37
1, 396418, Note_on_c, 0, 51, 48
1, 396422, Note_on_c, 0, 58, 38
1, 396439, Note_on_c, 0, 55, 34
1, 396446, Note_on_c, 0, 63, 42
1, 396511, Note_off_c, 0, 55, 57
1, 396514, Note_off_c, 0, 63, 55
1, 396517, Note_off_c, 0, 58, 58
1, 396533, Note_off_c, 0, 51, 58
1, 396632, Note_on_c, 0, 49, 47
1, 396653, Note_on_c, 0, 58, 43
1, 396655, Note_on_c, 0, 55, 36
1, 396657, Note_on_c, 0, 63, 36
1, 396712, Note_off_c, 0, 55, 46
1, 396715, Note_off_c, 0, 58, 56
1, 396738, Note_off_c, 0, 49, 58
1, 396749, Note_off_c, 0, 63, 39
1, 396835, Note_on_c, 0, 55, 45
1, 396842, Note_on_c, 0, 58, 43
1, 396842, Note_on_c, 0, 47, 42
1, 396859, Note_on_c, 0, 63, 36
1, 396903, Note_off_c, 0, 55, 56
1, 396913, Note_off_c, 0, 58, 55
1, 396928, Note_off_c, 0, 63, 39
1, 396943, Note_off_c, 0, 47, 51
1, 397048, Note_on_c, 0, 63, 45
1, 397059, Note_on_c, 0, 58, 41
1, 397062, Note_on_c, 0, 46, 47
1, 397072, Note_on_c, 0, 55, 25
1, 397105, Note_off_c, 0, 58, 61
1, 397107, Note_off_c, 0, 67, 34
1, 397122, Note_off_c, 0, 55, 47
1, 397137, Note_off_c, 0, 63, 60
1, 397167, Note_off_c, 0, 46, 55
1, 397267, Note_on_c, 0, 68, 58
1, 397277, Note_on_c, 0, 44, 41
1, 397287, Note_on_c, 0, 63, 33
1, 397340, Poly_aftertouch_c, 0, 59, 127
1, 397396, Poly_aftertouch_c, 0, 59, 0
1, 397398, Note_off_c, 0, 63, 49
1, 397492, Note_on_c, 0, 63, 46
1, 397501, Note_on_c, 0, 59, 39
1, 397538, Note_off_c, 0, 59, 51
1, 397555, Note_off_c, 0, 63, 50
1, 397685, Note_on_c, 0, 63, 57
1, 397697, Note_on_c, 0, 59, 34
1, 397766, Note_off_c, 0, 63, 59
1, 397778, Note_off_c, 0, 59, 44
1, 397893, Note_on_c, 0, 71, 64
1, 397906, Note_on_c, 0, 63, 42
1, 397912, Note_off_c, 0, 44, 57
1, 397912, Note_on_c, 0, 59, 27
1, 397924, Control_c, 0, 67, 122
1, 397939, Control_c, 0, 67, 109
1, 397950, Note_off_c, 0, 68, 27
1, 397954, Control_c, 0, 67, 95
1, 397969, Control_c, 0, 67, 79
1, 397979, Note_off_c, 0, 63, 40
1, 397984, Control_c, 0, 67, 63
1, 397998, Control_c, 0, 67, 49
1, 398011, Note_off_c, 0, 59, 38
1, 398013, Control_c, 0, 67, 34
1, 398028, Control_c, 0, 67, 25
1, 398042, Control_c, 0, 67, 17
1, 398057, Control_c, 0, 67, 11
1, 398072, Control_c, 0, 67, 0
1, 398106, Note_on_c, 0, 63, 43
1, 398110, Note_on_c, 0, 59, 42
1, 398162, Note_off_c, 0, 59, 46
1, 398165, Note_off_c, 0, 63, 61
1, 398300, Note_on_c, 0, 63, 55
1, 398306, Note_on_c, 0, 59, 38
1, 398390, Note_off_c, 0, 59, 56
1, 398400, Note_off_c, 0, 63, 55
1, 398514, Note_on_c, 0, 70, 70
1, 398532, Note_on_c, 0, 59, 41
1, 398537, Note_on_c, 0, 63, 37
1, 398544, Note_off_c, 0, 71, 57
1, 398613, Note_off_c, 0, 59, 61
1, 398618, Note_off_c, 0, 63, 39
1, 398733, Note_on_c, 0, 63, 53
1, 398738, Note_on_c, 0, 59, 44
1, 398802, Note_off_c, 0, 59, 57
1, 398809, Note_off_c, 0, 63, 62
1, 398940, Note_on_c, 0, 63, 56
1, 398943, Note_on_c, 0, 59, 38
1, 399006, Control_c, 0, 64, 10
1, 399021, Control_c, 0, 64, 17
1, 399036, Control_c, 0, 64, 19
1, 399048, Note_off_c, 0, 63, 51
1, 399051, Control_c, 0, 64, 21
1, 399059, Note_off_c, 0, 59, 37
1, 399065, Control_c, 0, 64, 23
1, 399080, Control_c, 0, 64, 23
1, 399095, Control_c, 0, 64, 24
1, 399135, Note_on_c, 0, 68, 76
1, 399154, Control_c, 0, 64, 25
1, 399174, Note_on_c, 0, 59, 34
1, 399190, Note_on_c, 0, 63, 38
1, 399238, Note_off_c, 0, 70, 38
1, 399244, Note_off_c, 0, 63, 45
1, 399257, Note_off_c, 0, 59, 52
1, 399288, Control_c, 0, 64, 26
1, 399303, Control_c, 0, 64, 28
1, 399318, Control_c, 0, 64, 30
1, 399333, Control_c, 0, 64, 33
1, 399344, Note_on_c, 0, 63, 61
1, 399348, Control_c, 0, 64, 36
1, 399350, Note_on_c, 0, 59, 42
1, 399362, Control_c, 0, 64, 40
1, 399377, Control_c, 0, 64, 46
1, 399392, Control_c, 0, 64, 52
1, 399396, Note_off_c, 0, 59, 58
1, 399407, Control_c, 0, 64, 57
1, 399410, Note_off_c, 0, 63, 62
1, 399422, Control_c, 0, 64, 61
1, 399436, Control_c, 0, 64, 63
1, 399451, Control_c, 0, 64, 64
1, 399466, Control_c, 0, 64, 68
1, 399481, Control_c, 0, 64, 73
1, 399495, Control_c, 0, 64, 80
1, 399510, Control_c, 0, 64, 88
1, 399525, Control_c, 0, 64, 99
1, 399540, Control_c, 0, 64, 119
1, 399543, Note_on_c, 0, 63, 57
1, 399553, Note_on_c, 0, 59, 52
1, 399555, Control_c, 0, 64, 127
1, 399578, Note_off_c, 0, 59, 61
1, 399611, Note_off_c, 0, 68, 62
1, 399615, Note_off_c, 0, 63, 62
1, 399784, Note_on_c, 0, 78, 91
1, 399785, Control_c, 0, 64, 105
1, 399791, Note_on_c, 0, 45, 53
1, 399798, Note_on_c, 0, 54, 50
1, 399799, Note_on_c, 0, 47, 50
1, 399800, Note_on_c, 0, 66, 71
1, 399800, Control_c, 0, 64, 87
1, 399803, Note_on_c, 0, 51, 49
1, 399814, Control_c, 0, 64, 74
1, 399829, Control_c, 0, 64, 65
1, 399844, Control_c, 0, 64, 55
1, 399859, Control_c, 0, 64, 31
1, 399874, Control_c, 0, 64, 0
1, 399883, Poly_aftertouch_c, 0, 79, 127
1, 399927, Note_off_c, 0, 51, 54
1, 399927, Poly_aftertouch_c, 0, 79, 0
1, 399930, Note_off_c, 0, 45, 56
1, 399930, Note_off_c, 0, 54, 54
1, 399984, Note_off_c, 0, 47, 0
1, 399999, Note_on_c, 0, 54, 42
1, 400004, Note_on_c, 0, 47, 33
1, 400010, Note_on_c, 0, 45, 33
1, 400012, Note_on_c, 0, 51, 40
1, 400129, Note_off_c, 0, 54, 57
1, 400178, Note_off_c, 0, 51, 0
1, 400180, Note_off_c, 0, 45, 0
1, 400181, Note_off_c, 0, 47, 0
1, 400193, Note_on_c, 0, 54, 52
1, 400195, Note_on_c, 0, 51, 28
1, 400198, Note_on_c, 0, 45, 31
1, 400203, Note_on_c, 0, 47, 30
1, 400338, Note_off_c, 0, 54, 57
1, 400344, Note_off_c, 0, 45, 51
1, 400355, Note_off_c, 0, 51, 46
1, 400402, Note_on_c, 0, 54, 55
1, 400405, Note_off_c, 0, 47, 0
1, 400405, Note_on_c, 0, 47, 20
1, 400407, Note_on_c, 0, 45, 44
1, 400414, Note_on_c, 0, 51, 47
1, 400504, Control_c, 0, 64, 15
1, 400518, Control_c, 0, 64, 32
1, 400533, Control_c, 0, 64, 40
1, 400548, Control_c, 0, 64, 46
1, 400549, Note_off_c, 0, 45, 59
1, 400558, Note_off_c, 0, 54, 57
1, 400559, Note_off_c, 0, 51, 53
1, 400563, Control_c, 0, 64, 52
1, 400578, Control_c, 0, 64, 58
1, 400592, Control_c, 0, 64, 61
1, 400604, Note_on_c, 0, 75, 74
1, 400607, Control_c, 0, 64, 63
1, 400609, Note_on_c, 0, 54, 57
1, 400610, Note_on_c, 0, 45, 49
1, 400614, Note_on_c, 0, 51, 42
1, 400619, Note_off_c, 0, 47, 0
1, 400619, Note_on_c, 0, 47, 27
1, 400622, Control_c, 0, 64, 65
1, 400637, Control_c, 0, 64, 67
1, 400651, Control_c, 0, 64, 72
1, 400656, Note_off_c, 0, 66, 61
1, 400666, Control_c, 0, 64, 79
1, 400670, Note_off_c, 0, 78, 52
1, 400681, Control_c, 0, 64, 88
1, 400696, Control_c, 0, 64, 96
1, 400711, Control_c, 0, 64, 110
1, 400726, Note_off_c, 0, 51, 59
1, 400726, Control_c, 0, 64, 127
1, 400727, Note_off_c, 0, 54, 59
1, 400791, Note_off_c, 0, 45, 0
1, 400791, Note_on_c, 0, 45, 21
1, 400805, Note_off_c, 0, 47, 0
1, 400805, Note_on_c, 0, 47, 15
1, 400808, Note_on_c, 0, 71, 74
1, 400810, Note_on_c, 0, 54, 66
1, 400822, Note_on_c, 0, 51, 58
1, 400842, Note_off_c, 0, 71, 61
1, 400879, Note_off_c, 0, 45, 56
1, 400890, Note_off_c, 0, 75, 34
1, 400896, Note_off_c, 0, 54, 51
1, 400940, Note_off_c, 0, 51, 50
1, 400970, Note_off_c, 0, 47, 40
1, 401042, Note_on_c, 0, 83, 93
1, 401051, Note_on_c, 0, 71, 84
1, 401051, Note_on_c, 0, 47, 51
1, 401056, Note_on_c, 0, 56, 69
1, 401067, Control_c, 0, 64, 99
1, 401068, Note_on_c, 0, 44, 57
1, 401080, Note_on_c, 0, 52, 65
1, 401082, Control_c, 0, 64, 81
1, 401097, Control_c, 0, 64, 67
1, 401112, Control_c, 0, 64, 57
1, 401126, Control_c, 0, 64, 28
1, 401141, Control_c, 0, 64, 0
1, 401190, Note_off_c, 0, 56, 59
1, 401201, Note_off_c, 0, 44, 58
1, 401203, Note_off_c, 0, 52, 63
1, 401229, Note_off_c, 0, 47, 0
1, 401257, Note_on_c, 0, 47, 27
1, 401262, Note_on_c, 0, 56, 66
1, 401269, Note_on_c, 0, 44, 46
1, 401275, Note_on_c, 0, 52, 52
1, 401316, Poly_aftertouch_c, 0, 81, 127
1, 401341, Control_c, 0, 64, 39
1, 401356, Control_c, 0, 64, 48
1, 401371, Control_c, 0, 64, 53
1, 401379, Note_off_c, 0, 44, 58
1, 401386, Control_c, 0, 64, 56
1, 401393, Note_off_c, 0, 52, 60
1, 401394, Note_off_c, 0, 56, 57
1, 401401, Control_c, 0, 64, 58
1, 401415, Control_c, 0, 64, 59
1, 401430, Control_c, 0, 64, 59
1, 401433, Note_off_c, 0, 47, 0
1, 401445, Control_c, 0, 64, 60
1, 401454, Note_on_c, 0, 47, 38
1, 401459, Control_c, 0, 64, 61
1, 401461, Note_on_c, 0, 56, 66
1, 401462, Note_on_c, 0, 44, 56
1, 401473, Note_on_c, 0, 52, 49
1, 401474, Control_c, 0, 64, 63
1, 401489, Control_c, 0, 64, 64
1, 401504, Control_c, 0, 64, 66
1, 401519, Control_c, 0, 64, 69
1, 401534, Control_c, 0, 64, 71
1, 401549, Control_c, 0, 64, 74
1, 401564, Control_c, 0, 64, 77
1, 401579, Control_c, 0, 64, 80
1, 401592, Note_off_c, 0, 44, 60
1, 401593, Note_off_c, 0, 56, 59
1, 401593, Control_c, 0, 64, 83
1, 401594, Note_off_c, 0, 52, 56
1, 401608, Control_c, 0, 64, 85
1, 401618, Note_off_c, 0, 47, 0
1, 401623, Control_c, 0, 64, 88
1, 401638, Control_c, 0, 64, 90
1, 401652, Note_on_c, 0, 44, 50
1, 401652, Note_on_c, 0, 47, 40
1, 401653, Control_c, 0, 64, 93
1, 401657, Note_on_c, 0, 56, 68
1, 401666, Note_on_c, 0, 52, 56
1, 401668, Control_c, 0, 64, 98
1, 401683, Control_c, 0, 64, 105
1, 401698, Control_c, 0, 64, 116
1, 401713, Control_c, 0, 64, 127
1, 401772, Note_off_c, 0, 44, 62
1, 401784, Note_off_c, 0, 52, 62
1, 401784, Note_off_c, 0, 56, 56
1, 401798, Note_off_c, 0, 47, 55
1, 401809, Poly_aftertouch_c, 0, 81, 0
1, 401859, Note_on_c, 0, 80, 91
1, 401862, Note_on_c, 0, 56, 70
1, 401863, Note_on_c, 0, 47, 53
1, 401873, Note_on_c, 0, 52, 60
1, 401876, Note_on_c, 0, 44, 56
1, 401882, Note_off_c, 0, 83, 52
1, 401911, Note_off_c, 0, 71, 59
1, 401936, Note_off_c, 0, 44, 54
1, 401944, Note_off_c, 0, 56, 58
1, 401952, Note_off_c, 0, 52, 58
1, 401973, Note_off_c, 0, 47, 60
1, 402028, Note_off_c, 0, 80, 53
1, 402050, Note_on_c, 0, 52, 51
1, 402050, Note_on_c, 0, 76, 85
1, 402052, Note_on_c, 0, 56, 68
1, 402054, Note_on_c, 0, 44, 62
1, 402082, Note_off_c, 0, 52, 68
1, 402087, Note_off_c, 0, 76, 67
1, 402093, Note_off_c, 0, 44, 64
1, 402121, Note_off_c, 0, 56, 59
1, 402278, Note_on_c, 0, 52, 63
1, 402279, Note_on_c, 0, 58, 70
1, 402279, Note_on_c, 0, 88, 98
1, 402285, Note_on_c, 0, 76, 95
1, 402294, Note_on_c, 0, 49, 61
1, 402303, Note_on_c, 0, 54, 50
1, 402312, Control_c, 0, 64, 91
1, 402327, Control_c, 0, 64, 74
1, 402342, Control_c, 0, 64, 63
1, 402357, Control_c, 0, 64, 51
1, 402371, Control_c, 0, 64, 35
1, 402386, Control_c, 0, 64, 19
1, 402401, Control_c, 0, 64, 0
1, 402403, Note_off_c, 0, 58, 62
1, 402410, Note_off_c, 0, 54, 61
1, 402411, Note_off_c, 0, 49, 59
1, 402411, Note_off_c, 0, 52, 61
1, 402485, Note_on_c, 0, 58, 68
1, 402485, Note_on_c, 0, 49, 44
1, 402490, Note_on_c, 0, 52, 44
1, 402498, Note_on_c, 0, 54, 47
1, 402535, Control_c, 0, 64, 24
1, 402550, Control_c, 0, 64, 39
1, 402565, Control_c, 0, 64, 50
1, 402580, Control_c, 0, 64, 57
1, 402589, Note_off_c, 0, 49, 59
1, 402595, Control_c, 0, 64, 60
1, 402598, Note_off_c, 0, 58, 59
1, 402603, Note_off_c, 0, 52, 59
1, 402610, Control_c, 0, 64, 62
1, 402614, Note_off_c, 0, 54, 55
1, 402624, Control_c, 0, 64, 64
1, 402639, Control_c, 0, 64, 67
1, 402654, Control_c, 0, 64, 71
1, 402669, Control_c, 0, 64, 77
1, 402670, Note_on_c, 0, 54, 39
1, 402673, Note_on_c, 0, 58, 74
1, 402681, Note_on_c, 0, 52, 38
1, 402691, Control_c, 0, 64, 82
1, 402693, Note_on_c, 0, 49, 61
1, 402706, Control_c, 0, 64, 85
1, 402720, Control_c, 0, 64, 87
1, 402735, Control_c, 0, 64, 87
1, 402781, Note_off_c, 0, 49, 54
1, 402795, Control_c, 0, 64, 88
1, 402798, Note_off_c, 0, 58, 59
1, 402801, Note_off_c, 0, 54, 59
1, 402802, Note_off_c, 0, 52, 58
1, 402883, Note_on_c, 0, 58, 80
1, 402887, Note_on_c, 0, 49, 72
1, 402891, Note_on_c, 0, 54, 59
1, 402895, Note_on_c, 0, 52, 61
1, 402987, Control_c, 0, 64, 89
1, 402991, Note_off_c, 0, 49, 54
1, 403002, Control_c, 0, 64, 92
1, 403006, Note_off_c, 0, 52, 62
1, 403008, Note_off_c, 0, 58, 59
1, 403010, Note_off_c, 0, 54, 59
1, 403017, Control_c, 0, 64, 96
1, 403031, Control_c, 0, 64, 103
1, 403046, Control_c, 0, 64, 114
1, 403061, Control_c, 0, 64, 127
1, 403078, Note_on_c, 0, 85, 95
1, 403081, Note_on_c, 0, 58, 71
1, 403084, Note_on_c, 0, 54, 52
1, 403087, Note_on_c, 0, 49, 66
1, 403090, Note_off_c, 0, 88, 59
1, 403092, Note_on_c, 0, 52, 54
1, 403146, Note_off_c, 0, 49, 59
1, 403158, Note_off_c, 0, 54, 60
1, 403162, Note_off_c, 0, 58, 56
1, 403164, Note_off_c, 0, 52, 60
1, 403257, Note_on_c, 0, 58, 70
1, 403258, Note_off_c, 0, 76, 53
1, 403265, Note_on_c, 0, 49, 61
1, 403272, Note_on_c, 0, 54, 54
1, 403276, Note_on_c, 0, 82, 90
1, 403299, Note_on_c, 0, 76, 21
1, 403300, Note_on_c, 0, 52, 38
1, 403309, Note_off_c, 0, 85, 63
1, 403325, Note_off_c, 0, 49, 56
1, 403332, Note_off_c, 0, 82, 62
1, 403339, Note_off_c, 0, 76, 53
1, 403343, Note_off_c, 0, 54, 59
1, 403368, Note_off_c, 0, 58, 56
1, 403424, Note_off_c, 0, 52, 36
1, 403492, Note_on_c, 0, 59, 83
1, 403494, Note_on_c, 0, 47, 76
1, 403495, Note_on_c, 0, 83, 99
1, 403497, Note_on_c, 0, 52, 54
1, 403500, Note_on_c, 0, 71, 97
1, 403500, Control_c, 0, 64, 81
1, 403508, Note_on_c, 0, 56, 67
1, 403515, Control_c, 0, 64, 52
1, 403530, Control_c, 0, 64, 0
1, 403641, Note_off_c, 0, 47, 61
1, 403646, Note_off_c, 0, 56, 61
1, 403648, Note_off_c, 0, 59, 60
1, 403655, Note_off_c, 0, 52, 57
1, 403656, Note_off_c, 0, 83, 59
1, 403701, Note_on_c, 0, 59, 77
1, 403707, Control_c, 0, 64, 17
1, 403709, Note_on_c, 0, 47, 67
1, 403715, Note_on_c, 0, 52, 50
1, 403715, Note_off_c, 0, 71, 62
1, 403716, Note_on_c, 0, 56, 59
1, 403722, Control_c, 0, 64, 28
1, 403737, Control_c, 0, 64, 41
1, 403752, Control_c, 0, 64, 55
1, 403767, Control_c, 0, 64, 63
1, 403781, Control_c, 0, 64, 66
1, 403796, Control_c, 0, 64, 69
1, 403802, Note_off_c, 0, 47, 61
1, 403811, Control_c, 0, 64, 73
1, 403813, Note_off_c, 0, 59, 61
1, 403818, Note_off_c, 0, 56, 62
1, 403826, Control_c, 0, 64, 79
1, 403829, Note_off_c, 0, 52, 58
1, 403841, Control_c, 0, 64, 85
1, 403855, Control_c, 0, 64, 90
1, 403870, Control_c, 0, 64, 92
1, 403885, Control_c, 0, 64, 95
1, 403891, Note_on_c, 0, 52, 37
1, 403895, Note_on_c, 0, 59, 71
1, 403898, Note_on_c, 0, 47, 73
1, 403900, Control_c, 0, 64, 101
1, 403907, Note_on_c, 0, 56, 44
1, 403915, Control_c, 0, 64, 110
1, 403929, Control_c, 0, 64, 115
1, 403933, Note_off_c, 0, 52, 65
1, 403936, Note_off_c, 0, 56, 63
1, 403959, Control_c, 0, 64, 116
1, 403974, Note_off_c, 0, 47, 63
1, 403974, Control_c, 0, 64, 119
1, 403979, Note_off_c, 0, 59, 38
1, 403988, Control_c, 0, 64, 127
1, 404104, Note_on_c, 0, 63, 91
1, 404106, Note_on_c, 0, 54, 91
1, 404108, Control_c, 0, 64, 93
1, 404109, Note_on_c, 0, 57, 82
1, 404111, Note_on_c, 0, 59, 59
1, 404115, Note_on_c, 0, 35, 80
1, 404116, Note_on_c, 0, 47, 82
1, 404123, Control_c, 0, 64, 68
1, 404138, Control_c, 0, 64, 0
1, 404233, Control_c, 0, 64, 58
1, 404248, Note_off_c, 0, 47, 60
1, 404248, Control_c, 0, 64, 66
1, 404250, Note_off_c, 0, 35, 62
1, 404263, Control_c, 0, 64, 68
1, 404291, Note_off_c, 0, 63, 59
1, 404307, Control_c, 0, 64, 69
1, 404311, Note_off_c, 0, 54, 61
1, 404313, Note_on_c, 0, 47, 75
1, 404314, Note_on_c, 0, 35, 63
1, 404322, Control_c, 0, 64, 69
1, 404324, Note_off_c, 0, 57, 61
1, 404334, Note_off_c, 0, 59, 62
1, 404337, Control_c, 0, 64, 71
1, 404352, Control_c, 0, 64, 71
1, 404366, Control_c, 0, 64, 72
1, 404381, Control_c, 0, 64, 73
1, 404396, Control_c, 0, 64, 74
1, 404409, Note_off_c, 0, 35, 65
1, 404410, Control_c, 0, 64, 75
1, 404430, Note_off_c, 0, 47, 60
1, 404470, Control_c, 0, 64, 75
1, 404514, Note_on_c, 0, 47, 75
1, 404520, Note_on_c, 0, 35, 61
1, 404551, Note_off_c, 0, 35, 67
1, 404573, Note_off_c, 0, 47, 60
1, 404574, Control_c, 0, 64, 76
1, 404648, Control_c, 0, 64, 76
1, 404663, Control_c, 0, 64, 77
1, 404677, Control_c, 0, 64, 78
1, 404692, Control_c, 0, 64, 79
1, 404722, Control_c, 0, 64, 78
1, 404731, Note_on_c, 0, 64, 90
1, 404737, Control_c, 0, 64, 72
1, 404739, Note_on_c, 0, 56, 79
1, 404741, Note_on_c, 0, 59, 76
1, 404748, Note_on_c, 0, 52, 87
1, 404749, Note_on_c, 0, 40, 83
1, 404751, Control_c, 0, 64, 62
1, 404766, Control_c, 0, 64, 0
1, 404871, Control_c, 0, 64, 34
1, 404874, Note_off_c, 0, 56, 61
1, 404886, Control_c, 0, 64, 53
1, 404890, Note_off_c, 0, 59, 59
1, 404900, Control_c, 0, 64, 57
1, 404915, Control_c, 0, 64, 57
1, 404938, Control_c, 0, 64, 58
1, 404953, Control_c, 0, 64, 58
1, 404965, Note_on_c, 0, 59, 51
1, 404973, Note_on_c, 0, 56, 50
1, 404982, Control_c, 0, 64, 59
1, 404997, Control_c, 0, 64, 60
1, 405012, Control_c, 0, 64, 61
1, 405026, Control_c, 0, 64, 61
1, 405041, Control_c, 0, 64, 62
1, 405047, Note_off_c, 0, 56, 61
1, 405056, Control_c, 0, 67, 13
1, 405071, Control_c, 0, 64, 62
1, 405071, Control_c, 0, 67, 29
1, 405072, Note_off_c, 0, 59, 58
1, 405086, Control_c, 0, 67, 48
1, 405101, Control_c, 0, 67, 71
1, 405115, Control_c, 0, 67, 89
1, 405130, Control_c, 0, 67, 105
1, 405145, Control_c, 0, 67, 120
1, 405156, Note_on_c, 0, 59, 47
1, 405159, Note_on_c, 0, 56, 51
1, 405160, Control_c, 0, 67, 127
1, 405175, Control_c, 0, 64, 63
1, 405224, Note_off_c, 0, 56, 55
1, 405260, Note_off_c, 0, 59, 55
1, 405351, Note_on_c, 0, 56, 46
1, 405352, Control_c, 0, 64, 62
1, 405356, Note_on_c, 0, 59, 50
1, 405412, Control_c, 0, 64, 62
1, 405428, Note_off_c, 0, 56, 61
1, 405457, Note_off_c, 0, 59, 58
1, 405476, Note_off_c, 0, 64, 3
1, 405500, Control_c, 0, 64, 61
1, 405515, Control_c, 0, 64, 61
1, 405537, Note_off_c, 0, 40, 40
1, 405545, Control_c, 0, 64, 60
1, 405557, Note_on_c, 0, 59, 42
1, 405570, Note_on_c, 0, 56, 47
1, 405589, Control_c, 0, 64, 60
1, 405601, Note_off_c, 0, 52, 36
1, 405628, Note_off_c, 0, 56, 53
1, 405649, Control_c, 0, 64, 60
1, 405653, Note_off_c, 0, 59, 58
1, 405768, Note_on_c, 0, 59, 42
1, 405777, Note_on_c, 0, 56, 37
1, 405832, Note_off_c, 0, 56, 56
1, 405860, Note_off_c, 0, 59, 56
1, 405964, Note_on_c, 0, 59, 38
1, 405975, Note_on_c, 0, 56, 23
1, 405982, Control_c, 0, 64, 61
1, 406029, Note_off_c, 0, 56, 47
1, 406056, Control_c, 0, 64, 61
1, 406072, Note_off_c, 0, 59, 37
1, 406163, Note_on_c, 0, 59, 38
1, 406166, Note_on_c, 0, 56, 35
1, 406205, Control_c, 0, 64, 62
1, 406221, Note_off_c, 0, 56, 52
1, 406241, Note_off_c, 0, 59, 48
1, 406366, Note_on_c, 0, 56, 35
1, 406366, Note_on_c, 0, 59, 38
1, 406405, Note_off_c, 0, 56, 51
1, 406431, Note_off_c, 0, 59, 54
1, 406577, Note_on_c, 0, 56, 40
1, 406578, Note_on_c, 0, 59, 42
1, 406622, Note_off_c, 0, 56, 57
1, 406631, Note_off_c, 0, 59, 55
1, 406733, Control_c, 0, 64, 61
1, 406771, Note_on_c, 0, 59, 41
1, 406783, Note_on_c, 0, 56, 36
1, 406830, Note_off_c, 0, 56, 50
1, 406847, Note_off_c, 0, 59, 50
1, 406994, Note_on_c, 0, 59, 39
1, 406995, Note_on_c, 0, 56, 20
1, 407050, Note_off_c, 0, 56, 45
1, 407058, Control_c, 0, 64, 61
1, 407081, Note_off_c, 0, 59, 39
1, 407162, Control_c, 0, 64, 60
1, 407184, Control_c, 0, 64, 60
1, 407199, Control_c, 0, 64, 59
1, 407212, Note_on_c, 0, 64, 52
1, 407213, Control_c, 0, 64, 58
1, 407228, Control_c, 0, 64, 55
1, 407230, Note_on_c, 0, 56, 31
1, 407235, Note_on_c, 0, 52, 42
1, 407236, Note_on_c, 0, 59, 36
1, 407236, Note_on_c, 0, 40, 37
1, 407243, Control_c, 0, 64, 53
1, 407259, Control_c, 0, 64, 51
1, 407274, Control_c, 0, 64, 50
1, 407289, Control_c, 0, 64, 49
1, 407293, Note_off_c, 0, 56, 53
1, 407303, Control_c, 0, 64, 49
1, 407317, Note_off_c, 0, 59, 39
1, 407333, Control_c, 0, 64, 49
1, 407363, Control_c, 0, 64, 50
1, 407377, Control_c, 0, 64, 50
1, 407392, Control_c, 0, 64, 51
1, 407407, Control_c, 0, 64, 52
1, 407422, Control_c, 0, 64, 53
1, 407426, Note_on_c, 0, 59, 39
1, 407436, Control_c, 0, 64, 53
1, 407440, Note_on_c, 0, 56, 31
1, 407451, Control_c, 0, 64, 55
1, 407466, Control_c, 0, 64, 56
1, 407481, Control_c, 0, 64, 57
1, 407492, Note_off_c, 0, 56, 45
1, 407496, Control_c, 0, 64, 58
1, 407508, Note_off_c, 0, 59, 52
1, 407585, Control_c, 0, 64, 57
1, 407600, Control_c, 0, 64, 57
1, 407626, Note_on_c, 0, 56, 32
1, 407629, Control_c, 0, 64, 56
1, 407640, Note_on_c, 0, 59, 37
1, 407659, Control_c, 0, 64, 56
1, 407674, Control_c, 0, 64, 55
1, 407689, Control_c, 0, 64, 55
1, 407693, Note_off_c, 0, 56, 43
1, 407695, Note_off_c, 0, 59, 48
1, 407703, Control_c, 0, 64, 54
1, 407718, Control_c, 0, 64, 54
1, 407733, Control_c, 0, 64, 53
1, 407747, Control_c, 0, 64, 53
1, 407762, Control_c, 0, 64, 52
1, 407777, Control_c, 0, 64, 51
1, 407792, Control_c, 0, 64, 51
1, 407807, Control_c, 0, 64, 50
1, 407821, Control_c, 0, 64, 49
1, 407836, Control_c, 0, 64, 48
1, 407844, Note_on_c, 0, 68, 58
1, 407851, Control_c, 0, 64, 47
1, 407865, Note_on_c, 0, 59, 32
1, 407866, Control_c, 0, 64, 46
1, 407881, Control_c, 0, 64, 45
1, 407885, Note_on_c, 0, 56, 21
1, 407895, Control_c, 0, 64, 44
1, 407910, Control_c, 0, 64, 43
1, 407933, Control_c, 0, 64, 42
1, 407934, Note_off_c, 0, 64, 38
1, 407948, Note_off_c, 0, 56, 45
1, 407948, Control_c, 0, 64, 41
1, 407952, Note_off_c, 0, 59, 51
1, 407962, Control_c, 0, 64, 40
1, 407977, Control_c, 0, 64, 39
1, 407992, Control_c, 0, 64, 37
1, 408007, Control_c, 0, 64, 36
1, 408022, Control_c, 0, 64, 34
1, 408036, Control_c, 0, 64, 34
1, 408052, Control_c, 0, 64, 33
1, 408061, Note_on_c, 0, 56, 41
1, 408067, Control_c, 0, 64, 32
1, 408074, Note_on_c, 0, 59, 36
1, 408082, Control_c, 0, 64, 31
1, 408097, Control_c, 0, 64, 31
1, 408106, Note_off_c, 0, 56, 59
1, 408112, Control_c, 0, 64, 29
1, 408119, Note_off_c, 0, 59, 55
1, 408126, Control_c, 0, 64, 28
1, 408141, Control_c, 0, 64, 25
1, 408156, Control_c, 0, 64, 22
1, 408171, Control_c, 0, 64, 17
1, 408185, Control_c, 0, 64, 8
1, 408200, Control_c, 0, 64, 0
1, 408247, Note_on_c, 0, 59, 43
1, 408264, Note_on_c, 0, 56, 24
1, 408315, Note_off_c, 0, 56, 44
1, 408337, Note_off_c, 0, 59, 54
1, 408473, Note_on_c, 0, 66, 60
1, 408491, Note_on_c, 0, 56, 25
1, 408500, Note_on_c, 0, 59, 13
1, 408520, Note_off_c, 0, 68, 56
1, 408556, Note_off_c, 0, 56, 52
1, 408566, Note_off_c, 0, 59, 43
1, 408631, Note_off_c, 0, 40, 39
1, 408685, Note_on_c, 0, 59, 42
1, 408686, Note_off_c, 0, 52, 34
1, 408691, Note_on_c, 0, 56, 39
1, 408750, Note_off_c, 0, 56, 58
1, 408776, Note_off_c, 0, 59, 58
1, 408902, Note_on_c, 0, 56, 34
1, 408906, Note_on_c, 0, 59, 32
1, 408953, Note_off_c, 0, 56, 53
1, 408974, Note_off_c, 0, 59, 53
1, 409106, Note_on_c, 0, 64, 55
1, 409126, Note_on_c, 0, 56, 37
1, 409126, Note_on_c, 0, 59, 26
1, 409173, Note_off_c, 0, 56, 57
1, 409190, Note_off_c, 0, 59, 42
1, 409236, Note_off_c, 0, 66, 35
1, 409314, Note_on_c, 0, 56, 34
1, 409315, Note_on_c, 0, 59, 45
1, 409334, Control_c, 0, 64, 12
1, 409348, Control_c, 0, 64, 23
1, 409363, Control_c, 0, 64, 29
1, 409371, Note_off_c, 0, 59, 56
1, 409377, Note_off_c, 0, 56, 48
1, 409378, Control_c, 0, 64, 34
1, 409392, Control_c, 0, 64, 39
1, 409407, Control_c, 0, 64, 44
1, 409430, Control_c, 0, 64, 49
1, 409445, Control_c, 0, 64, 54
1, 409460, Control_c, 0, 64, 58
1, 409474, Control_c, 0, 64, 60
1, 409489, Control_c, 0, 64, 62
1, 409504, Control_c, 0, 64, 63
1, 409519, Control_c, 0, 64, 63
1, 409526, Note_on_c, 0, 56, 28
1, 409526, Note_on_c, 0, 59, 35
1, 409533, Control_c, 0, 64, 64
1, 409548, Control_c, 0, 64, 64
1, 409563, Control_c, 0, 64, 65
1, 409612, Note_off_c, 0, 56, 51
1, 409657, Note_off_c, 0, 59, 36
1, 409712, Control_c, 0, 64, 64
1, 409742, Control_c, 0, 64, 64
1, 409757, Control_c, 0, 64, 63
1, 409771, Control_c, 0, 64, 63
1, 409774, Note_on_c, 0, 63, 53
1, 409786, Control_c, 0, 64, 62
1, 409794, Note_on_c, 0, 54, 57
1, 409794, Note_on_c, 0, 59, 32
1, 409800, Note_on_c, 0, 57, 31
1, 409801, Control_c, 0, 64, 61
1, 409816, Control_c, 0, 64, 60
1, 409830, Control_c, 0, 64, 58
1, 409845, Control_c, 0, 64, 55
1, 409860, Control_c, 0, 64, 51
1, 409875, Control_c, 0, 64, 48
1, 409884, Note_off_c, 0, 57, 40
1, 409890, Control_c, 0, 64, 44
1, 409904, Control_c, 0, 64, 42
1, 409911, Note_off_c, 0, 59, 32
1, 409919, Control_c, 0, 64, 38
1, 409934, Control_c, 0, 64, 35
1, 409949, Control_c, 0, 64, 32
1, 409964, Control_c, 0, 64, 28
1, 409979, Control_c, 0, 64, 21
1, 409980, Note_off_c, 0, 64, 43
1, 409994, Control_c, 0, 64, 0
1, 410000, Note_on_c, 0, 57, 40
1, 410008, Note_on_c, 0, 59, 35
1, 410105, Note_off_c, 0, 57, 49
1, 410178, Control_c, 0, 64, 10
1, 410188, Note_off_c, 0, 59, 0
1, 410193, Control_c, 0, 64, 19
1, 410208, Note_on_c, 0, 59, 27
1, 410208, Control_c, 0, 64, 25
1, 410223, Control_c, 0, 64, 31
1, 410238, Control_c, 0, 64, 38
1, 410239, Note_on_c, 0, 57, 30
1, 410253, Control_c, 0, 64, 45
1, 410268, Control_c, 0, 64, 50
1, 410283, Control_c, 0, 64, 53
1, 410297, Control_c, 0, 64, 54
1, 410304, Note_off_c, 0, 57, 51
1, 410312, Control_c, 0, 64, 54
1, 410327, Control_c, 0, 64, 55
1, 410342, Control_c, 0, 64, 55
1, 410356, Control_c, 0, 64, 56
1, 410357, Note_off_c, 0, 59, 46
1, 410371, Control_c, 0, 64, 59
1, 410386, Control_c, 0, 64, 60
1, 410401, Control_c, 0, 64, 62
1, 410415, Note_on_c, 0, 69, 58
1, 410416, Control_c, 0, 64, 63
1, 410430, Control_c, 0, 64, 64
1, 410446, Control_c, 0, 64, 64
1, 410453, Note_on_c, 0, 57, 14
1, 410476, Control_c, 0, 64, 65
1, 410491, Poly_aftertouch_c, 0, 59, 127
1, 410500, Note_off_c, 0, 54, 45
1, 410503, Note_off_c, 0, 57, 48
1, 410527, Poly_aftertouch_c, 0, 59, 0
1, 410579, Control_c, 0, 64, 64
1, 410611, Note_on_c, 0, 57, 42
1, 410635, Note_on_c, 0, 59, 45
1, 410639, Note_on_c, 0, 54, 43
1, 410639, Control_c, 0, 64, 64
1, 410683, Control_c, 0, 64, 63
1, 410701, Note_off_c, 0, 59, 55
1, 410709, Note_off_c, 0, 57, 36
1, 410727, Control_c, 0, 64, 63
1, 410772, Control_c, 0, 64, 62
1, 410787, Control_c, 0, 64, 62
1, 410816, Control_c, 0, 64, 61
1, 410831, Control_c, 0, 64, 61
1, 410836, Note_on_c, 0, 57, 46
1, 410837, Note_on_c, 0, 59, 45
1, 410843, Note_on_c, 0, 53, 54
1, 410846, Control_c, 0, 64, 60
1, 410861, Control_c, 0, 64, 59
1, 410870, Note_off_c, 0, 54, 38
1, 410876, Control_c, 0, 64, 58
1, 410891, Control_c, 0, 64, 57
1, 410905, Control_c, 0, 64, 56
1, 410913, Note_off_c, 0, 57, 55
1, 410927, Control_c, 0, 64, 55
1, 410942, Control_c, 0, 64, 54
1, 410948, Note_off_c, 0, 59, 59
1, 410956, Control_c, 0, 64, 53
1, 410971, Control_c, 0, 64, 53
1, 410986, Control_c, 0, 64, 51
1, 411001, Control_c, 0, 64, 49
1, 411016, Control_c, 0, 64, 44
1, 411024, Note_off_c, 0, 53, 64
1, 411031, Control_c, 0, 64, 35
1, 411044, Note_on_c, 0, 54, 52
1, 411045, Control_c, 0, 64, 25
1, 411049, Note_on_c, 0, 59, 43
1, 411054, Note_on_c, 0, 57, 26
1, 411060, Control_c, 0, 64, 10
1, 411075, Control_c, 0, 64, 0
1, 411116, Note_off_c, 0, 57, 56
1, 411121, Note_off_c, 0, 69, 36
1, 411135, Note_off_c, 0, 54, 61
1, 411145, Note_off_c, 0, 59, 54
1, 411245, Note_on_c, 0, 57, 42
1, 411257, Note_on_c, 0, 59, 32
1, 411266, Note_on_c, 0, 54, 49
1, 411318, Note_off_c, 0, 54, 54
1, 411322, Note_off_c, 0, 57, 54
1, 411358, Note_off_c, 0, 59, 50
1, 411461, Note_on_c, 0, 57, 32
1, 411466, Note_on_c, 0, 52, 49
1, 411466, Note_on_c, 0, 59, 31
1, 411536, Note_off_c, 0, 52, 56
1, 411546, Note_off_c, 0, 63, 14
1, 411561, Note_off_c, 0, 57, 40
1, 411562, Note_off_c, 0, 59, 50
1, 411677, Note_on_c, 0, 59, 24
1, 411680, Note_on_c, 0, 57, 38
1, 411689, Note_on_c, 0, 51, 41
1, 411742, Note_off_c, 0, 57, 56
1, 411770, Note_off_c, 0, 59, 50
1, 411782, Note_off_c, 0, 51, 38
1, 411884, Note_on_c, 0, 49, 43
1, 411886, Note_on_c, 0, 59, 36
1, 411892, Note_on_c, 0, 57, 37
1, 411949, Note_off_c, 0, 57, 57
1, 411988, Note_off_c, 0, 59, 37
1, 412004, Note_off_c, 0, 49, 35
1, 412097, Note_on_c, 0, 59, 45
1, 412103, Note_on_c, 0, 57, 39
1, 412107, Note_on_c, 0, 47, 36
1, 412140, Note_off_c, 0, 57, 59
1, 412169, Note_off_c, 0, 59, 53
1, 412259, Note_off_c, 0, 47, 35
1, 412311, Note_on_c, 0, 64, 49
1, 412315, Note_on_c, 0, 59, 38
1, 412334, Note_on_c, 0, 52, 38
1, 412337, Note_on_c, 0, 56, 38
1, 412393, Note_off_c, 0, 56, 60
1, 412428, Note_off_c, 0, 59, 53
1, 412524, Note_on_c, 0, 56, 42
1, 412537, Note_on_c, 0, 59, 30
1, 412565, Note_off_c, 0, 56, 53
1, 412597, Note_off_c, 0, 59, 55
1, 412739, Note_on_c, 0, 59, 36
1, 412751, Note_on_c, 0, 56, 33
1, 412805, Note_off_c, 0, 56, 42
1, 412844, Note_off_c, 0, 59, 60
1, 412960, Note_on_c, 0, 68, 60
1, 412963, Note_off_c, 0, 64, 34
1, 412983, Note_on_c, 0, 59, 36
1, 412988, Note_on_c, 0, 56, 18
1, 413043, Note_off_c, 0, 56, 46
1, 413138, Note_off_c, 0, 59, 0
1, 413166, Note_on_c, 0, 59, 24
1, 413170, Note_on_c, 0, 56, 32
1, 413231, Note_off_c, 0, 52, 43
1, 413251, Note_off_c, 0, 56, 50
1, 413279, Note_off_c, 0, 59, 56
1, 413386, Note_on_c, 0, 56, 30
1, 413392, Note_on_c, 0, 59, 38
1, 413450, Note_off_c, 0, 56, 56
1, 413520, Note_off_c, 0, 59, 36
1, 413598, Note_on_c, 0, 64, 63
1, 413619, Note_on_c, 0, 59, 31
1, 413621, Note_on_c, 0, 56, 35
1, 413650, Note_off_c, 0, 68, 56
1, 413714, Note_off_c, 0, 56, 58
1, 413821, Note_off_c, 0, 59, 0
1, 413821, Note_on_c, 0, 59, 3
1, 413832, Note_on_c, 0, 56, 38
1, 413884, Note_off_c, 0, 56, 58
1, 413946, Note_off_c, 0, 59, 40
1, 414045, Note_on_c, 0, 59, 43
1, 414057, Note_on_c, 0, 56, 25
1, 414116, Note_off_c, 0, 56, 44
1, 414152, Note_off_c, 0, 59, 49
1, 414240, Note_on_c, 0, 63, 65
1, 414276, Note_on_c, 0, 56, 36
1, 414288, Note_on_c, 0, 59, 35
1, 414348, Note_off_c, 0, 56, 57
1, 414381, Note_off_c, 0, 59, 38
1, 414457, Control_c, 0, 64, 38
1, 414462, Note_on_c, 0, 59, 35
1, 414466, Note_on_c, 0, 56, 40
1, 414472, Control_c, 0, 64, 56
1, 414486, Control_c, 0, 64, 61
1, 414501, Control_c, 0, 64, 62
1, 414513, Note_off_c, 0, 56, 59
1, 414516, Control_c, 0, 64, 63
1, 414531, Control_c, 0, 64, 65
1, 414535, Note_off_c, 0, 59, 56
1, 414545, Control_c, 0, 64, 66
1, 414560, Control_c, 0, 64, 69
1, 414575, Control_c, 0, 64, 72
1, 414590, Control_c, 0, 64, 74
1, 414605, Control_c, 0, 64, 75
1, 414620, Control_c, 0, 64, 76
1, 414635, Control_c, 0, 64, 76
1, 414642, Note_off_c, 0, 64, 33
1, 414669, Note_on_c, 0, 59, 41
1, 414686, Note_on_c, 0, 56, 36
1, 414730, Note_off_c, 0, 56, 61
1, 414734, Note_off_c, 0, 59, 61
1, 414744, Note_off_c, 0, 63, 38
1, 414864, Control_c, 0, 64, 76
1, 414879, Control_c, 0, 64, 75
1, 414893, Control_c, 0, 64, 75
1, 414908, Control_c, 0, 64, 74
1, 414923, Control_c, 0, 64, 73
1, 414934, Note_on_c, 0, 62, 60
1, 414937, Control_c, 0, 64, 72
1, 414941, Note_on_c, 0, 59, 54
1, 414950, Note_on_c, 0, 56, 44
1, 414952, Control_c, 0, 64, 70
1, 414958, Note_on_c, 0, 50, 36
1, 414967, Control_c, 0, 64, 68
1, 414982, Control_c, 0, 64, 66
1, 414997, Control_c, 0, 64, 64
1, 415011, Control_c, 0, 64, 63
1, 415026, Control_c, 0, 64, 62
1, 415056, Control_c, 0, 64, 61
1, 415067, Note_off_c, 0, 50, 55
1, 415071, Control_c, 0, 64, 61
1, 415078, Note_off_c, 0, 56, 56
1, 415100, Control_c, 0, 64, 60
1, 415112, Note_off_c, 0, 59, 0
1, 415115, Control_c, 0, 64, 59
1, 415130, Control_c, 0, 64, 58
1, 415144, Note_on_c, 0, 59, 17
1, 415145, Control_c, 0, 64, 57
1, 415156, Note_on_c, 0, 29, 41
1, 415160, Control_c, 0, 64, 56
1, 415163, Note_on_c, 0, 56, 24
1, 415168, Note_on_c, 0, 50, 34
1, 415174, Control_c, 0, 64, 55
1, 415189, Control_c, 0, 64, 54
1, 415204, Control_c, 0, 64, 53
1, 415219, Control_c, 0, 64, 53
1, 415247, Note_off_c, 0, 50, 55
1, 415249, Control_c, 0, 64, 52
1, 415255, Note_off_c, 0, 56, 53
1, 415286, Note_off_c, 0, 59, 41
1, 415352, Note_on_c, 0, 59, 39
1, 415353, Control_c, 0, 64, 53
1, 415362, Note_on_c, 0, 35, 46
1, 415368, Note_on_c, 0, 56, 41
1, 415368, Control_c, 0, 64, 53
1, 415383, Control_c, 0, 64, 54
1, 415398, Control_c, 0, 64, 55
1, 415400, Note_on_c, 0, 50, 27
1, 415401, Note_off_c, 0, 29, 29
1, 415420, Control_c, 0, 64, 56
1, 415435, Control_c, 0, 64, 57
1, 415444, Note_off_c, 0, 50, 52
1, 415449, Control_c, 0, 64, 58
1, 415456, Note_off_c, 0, 56, 54
1, 415464, Control_c, 0, 64, 59
1, 415471, Note_off_c, 0, 59, 53
1, 415509, Note_off_c, 0, 35, 46
1, 415523, Control_c, 0, 64, 59
1, 415538, Control_c, 0, 64, 60
1, 415553, Control_c, 0, 64, 61
1, 415561, Note_on_c, 0, 50, 48
1, 415565, Note_on_c, 0, 56, 42
1, 415568, Control_c, 0, 64, 61
1, 415583, Control_c, 0, 64, 62
1, 415589, Note_on_c, 0, 59, 29
1, 415598, Control_c, 0, 64, 63
1, 415598, Note_off_c, 0, 50, 57
1, 415613, Control_c, 0, 64, 63
1, 415628, Control_c, 0, 64, 64
1, 415634, Note_off_c, 0, 56, 53
1, 415642, Control_c, 0, 64, 65
1, 415657, Control_c, 0, 64, 65
1, 415668, Note_off_c, 0, 59, 54
1, 415672, Control_c, 0, 64, 66
1, 415749, Note_on_c, 0, 38, 59
1, 415757, Note_on_c, 0, 59, 31
1, 415771, Note_on_c, 0, 56, 40
1, 415779, Note_on_c, 0, 50, 31
1, 415783, Note_off_c, 0, 38, 64
1, 415818, Note_off_c, 0, 50, 48
1, 415839, Note_off_c, 0, 56, 39
1, 415896, Note_off_c, 0, 59, 33
1, 415955, Note_on_c, 0, 59, 36
1, 415967, Note_on_c, 0, 56, 41
1, 415973, Note_on_c, 0, 41, 48
1, 415976, Note_on_c, 0, 50, 34
1, 416051, Note_off_c, 0, 56, 53
1, 416061, Note_off_c, 0, 50, 34
1, 416066, Note_off_c, 0, 59, 55
1, 416070, Note_off_c, 0, 41, 55
1, 416172, Note_on_c, 0, 59, 32
1, 416197, Note_on_c, 0, 56, 42
1, 416198, Control_c, 0, 64, 65
1, 416204, Note_on_c, 0, 44, 40
1, 416204, Note_on_c, 0, 50, 36
1, 416213, Control_c, 0, 64, 64
1, 416228, Control_c, 0, 64, 62
1, 416243, Control_c, 0, 64, 61
1, 416277, Note_off_c, 0, 50, 56
1, 416277, Note_off_c, 0, 56, 54
1, 416287, Control_c, 0, 64, 62
1, 416302, Control_c, 0, 64, 63
1, 416316, Control_c, 0, 64, 65
1, 416331, Control_c, 0, 64, 67
1, 416346, Control_c, 0, 64, 69
1, 416361, Control_c, 0, 64, 71
1, 416376, Control_c, 0, 64, 73
1, 416390, Note_on_c, 0, 56, 35
1, 416391, Control_c, 0, 64, 75
1, 416405, Note_on_c, 0, 50, 28
1, 416406, Control_c, 0, 64, 77
1, 416420, Control_c, 0, 64, 79
1, 416435, Control_c, 0, 64, 80
1, 416450, Control_c, 0, 64, 81
1, 416451, Note_off_c, 0, 50, 45
1, 416462, Note_off_c, 0, 56, 53
1, 416465, Control_c, 0, 64, 82
1, 416480, Control_c, 0, 64, 83
1, 416485, Note_off_c, 0, 59, 50
1, 416509, Control_c, 0, 64, 83
1, 416593, Note_on_c, 0, 59, 47
1, 416606, Note_on_c, 0, 56, 49
1, 416609, Note_off_c, 0, 44, 36
1, 416629, Note_on_c, 0, 50, 8
1, 416666, Note_off_c, 0, 56, 46
1, 416677, Note_off_c, 0, 50, 47
1, 416682, Note_off_c, 0, 59, 54
1, 416705, Note_off_c, 0, 62, 33
1, 416818, Note_on_c, 0, 62, 65
1, 416820, Control_c, 0, 64, 83
1, 416836, Control_c, 0, 64, 81
1, 416841, Note_on_c, 0, 59, 43
1, 416851, Control_c, 0, 64, 79
1, 416853, Note_on_c, 0, 50, 45
1, 416861, Note_on_c, 0, 56, 39
1, 416866, Control_c, 0, 64, 73
1, 416880, Control_c, 0, 64, 69
1, 416896, Control_c, 0, 64, 68
1, 416934, Note_off_c, 0, 50, 57
1, 416939, Note_off_c, 0, 56, 54
1, 416948, Control_c, 0, 64, 68
1, 416963, Control_c, 0, 64, 69
1, 416978, Control_c, 0, 64, 71
1, 416993, Control_c, 0, 64, 73
1, 416995, Note_off_c, 0, 59, 0
1, 417007, Control_c, 0, 64, 75
1, 417011, Note_on_c, 0, 59, 35
1, 417011, Note_on_c, 0, 56, 37
1, 417022, Control_c, 0, 64, 77
1, 417030, Note_on_c, 0, 50, 29
1, 417037, Control_c, 0, 64, 79
1, 417052, Control_c, 0, 64, 81
1, 417067, Control_c, 0, 64, 83
1, 417082, Control_c, 0, 64, 85
1, 417096, Control_c, 0, 64, 86
1, 417105, Note_off_c, 0, 50, 53
1, 417111, Control_c, 0, 64, 86
1, 417112, Note_off_c, 0, 56, 56
1, 417121, Note_off_c, 0, 59, 46
1, 417126, Control_c, 0, 67, 121
1, 417140, Control_c, 0, 67, 107
1, 417155, Control_c, 0, 67, 96
1, 417170, Control_c, 0, 67, 89
1, 417185, Control_c, 0, 67, 84
1, 417200, Control_c, 0, 67, 81
1, 417214, Control_c, 0, 67, 78
1, 417229, Control_c, 0, 67, 77
1, 417231, Note_on_c, 0, 59, 46
1, 417237, Note_on_c, 0, 56, 42
1, 417244, Control_c, 0, 67, 77
1, 417256, Note_on_c, 0, 50, 36
1, 417274, Control_c, 0, 67, 76
1, 417288, Control_c, 0, 67, 75
1, 417294, Note_off_c, 0, 50, 49
1, 417296, Note_off_c, 0, 62, 48
1, 417301, Note_off_c, 0, 56, 56
1, 417303, Control_c, 0, 67, 75
1, 417306, Note_off_c, 0, 59, 57
1, 417392, Control_c, 0, 67, 75
1, 417407, Control_c, 0, 67, 76
1, 417422, Control_c, 0, 64, 85
1, 417422, Control_c, 0, 67, 76
1, 417437, Control_c, 0, 64, 84
1, 417437, Control_c, 0, 67, 77
1, 417452, Control_c, 0, 64, 82
1, 417466, Control_c, 0, 64, 80
1, 417472, Note_on_c, 0, 62, 68
1, 417481, Control_c, 0, 64, 79
1, 417481, Control_c, 0, 67, 77
1, 417494, Note_on_c, 0, 50, 46
1, 417495, Note_on_c, 0, 59, 47
1, 417496, Control_c, 0, 64, 77
1, 417496, Control_c, 0, 67, 78
1, 417500, Note_on_c, 0, 56, 46
1, 417511, Control_c, 0, 64, 76
1, 417511, Control_c, 0, 67, 78
1, 417526, Control_c, 0, 64, 74
1, 417540, Control_c, 0, 64, 72
1, 417540, Control_c, 0, 67, 79
1, 417555, Control_c, 0, 64, 70
1, 417570, Control_c, 0, 64, 69
1, 417581, Note_off_c, 0, 56, 53
1, 417585, Control_c, 0, 64, 67
1, 417585, Control_c, 0, 67, 80
1, 417592, Note_off_c, 0, 59, 54
1, 417600, Control_c, 0, 64, 65
1, 417601, Note_off_c, 0, 50, 27
1, 417614, Control_c, 0, 64, 64
1, 417630, Control_c, 0, 64, 64
1, 417630, Control_c, 0, 67, 80
1, 417645, Control_c, 0, 64, 63
1, 417668, Note_on_c, 0, 29, 40
1, 417669, Note_on_c, 0, 59, 35
1, 417672, Note_on_c, 0, 56, 29
1, 417682, Control_c, 0, 64, 63
1, 417682, Control_c, 0, 67, 81
1, 417711, Control_c, 0, 67, 81
1, 417713, Poly_aftertouch_c, 0, 50, 127
1, 417726, Control_c, 0, 64, 62
1, 417726, Control_c, 0, 67, 82
1, 417778, Poly_aftertouch_c, 0, 50, 0
1, 417779, Note_off_c, 0, 56, 48
1, 417810, Note_off_c, 0, 59, 36
1, 417846, Note_off_c, 0, 29, 34
1, 417875, Note_on_c, 0, 59, 46
1, 417875, Control_c, 0, 67, 81
1, 417887, Note_on_c, 0, 32, 52
1, 417891, Note_on_c, 0, 56, 35
1, 417893, Note_on_c, 0, 50, 28
1, 417969, Note_off_c, 0, 56, 54
1, 417975, Note_off_c, 0, 50, 52
1, 417978, Note_off_c, 0, 59, 55
1, 418023, Control_c, 0, 64, 62
1, 418037, Control_c, 0, 67, 81
1, 418073, Note_on_c, 0, 59, 48
1, 418082, Note_off_c, 0, 32, 31
1, 418090, Note_on_c, 0, 35, 58
1, 418103, Note_on_c, 0, 50, 34
1, 418106, Note_on_c, 0, 56, 38
1, 418167, Note_off_c, 0, 50, 52
1, 418170, Note_off_c, 0, 56, 56
1, 418179, Note_off_c, 0, 59, 56
1, 418215, Control_c, 0, 64, 62
1, 418245, Note_off_c, 0, 35, 56
1, 418245, Control_c, 0, 64, 63
1, 418275, Control_c, 0, 64, 63
1, 418280, Note_on_c, 0, 59, 40
1, 418297, Note_on_c, 0, 38, 53
1, 418299, Note_on_c, 0, 56, 36
1, 418304, Control_c, 0, 64, 64
1, 418305, Note_on_c, 0, 50, 39
1, 418319, Control_c, 0, 64, 64
1, 418349, Control_c, 0, 64, 65
1, 418364, Note_off_c, 0, 50, 53
1, 418373, Note_off_c, 0, 56, 53
1, 418386, Note_off_c, 0, 59, 54
1, 418394, Note_off_c, 0, 38, 56
1, 418486, Note_on_c, 0, 59, 41
1, 418501, Note_on_c, 0, 56, 34
1, 418510, Note_on_c, 0, 50, 39
1, 418514, Note_on_c, 0, 41, 55
1, 418573, Note_off_c, 0, 50, 51
1, 418593, Note_off_c, 0, 56, 56
1, 418608, Note_off_c, 0, 59, 49
1, 418654, Note_off_c, 0, 41, 36
1, 418712, Control_c, 0, 67, 81
1, 418713, Note_on_c, 0, 59, 29
1, 418725, Note_on_c, 0, 56, 39
1, 418731, Note_on_c, 0, 50, 42
1, 418742, Note_on_c, 0, 44, 57
1, 418742, Control_c, 0, 64, 64
1, 418757, Control_c, 0, 64, 63
1, 418772, Control_c, 0, 64, 61
1, 418786, Control_c, 0, 64, 59
1, 418801, Control_c, 0, 64, 59
1, 418821, Note_off_c, 0, 56, 57
1, 418824, Note_off_c, 0, 50, 54
1, 418831, Control_c, 0, 64, 59
1, 418846, Control_c, 0, 64, 60
1, 418860, Control_c, 0, 64, 62
1, 418875, Control_c, 0, 64, 63
1, 418890, Control_c, 0, 64, 65
1, 418904, Control_c, 0, 64, 66
1, 418904, Control_c, 0, 67, 81
1, 418919, Control_c, 0, 64, 68
1, 418934, Control_c, 0, 64, 69
1, 418938, Note_on_c, 0, 56, 45
1, 418945, Note_on_c, 0, 50, 20
1, 418949, Control_c, 0, 64, 71
1, 418964, Control_c, 0, 64, 73
1, 418978, Control_c, 0, 64, 74
1, 418993, Control_c, 0, 64, 75
1, 419008, Control_c, 0, 64, 76
1, 419023, Note_off_c, 0, 56, 58
1, 419023, Control_c, 0, 64, 77
1, 419038, Control_c, 0, 64, 77
1, 419051, Note_off_c, 0, 50, 35
1, 419053, Control_c, 0, 64, 78
1, 419112, Control_c, 0, 64, 78
1, 419133, Note_on_c, 0, 56, 48
1, 419157, Note_on_c, 0, 50, 34
1, 419205, Note_off_c, 0, 62, 36
1, 419211, Note_off_c, 0, 50, 41
1, 419228, Note_off_c, 0, 56, 57
1, 419233, Note_off_c, 0, 59, 41
1, 419386, Control_c, 0, 64, 77
1, 419391, Note_on_c, 0, 62, 74
1, 419401, Control_c, 0, 64, 77
1, 419405, Note_on_c, 0, 59, 55
1, 419407, Note_on_c, 0, 50, 55
1, 419412, Note_on_c, 0, 56, 50
1, 419476, Control_c, 0, 64, 77
1, 419476, Control_c, 0, 67, 80
1, 419490, Control_c, 0, 64, 78
1, 419490, Control_c, 0, 67, 80
1, 419505, Control_c, 0, 64, 78
1, 419511, Note_off_c, 0, 56, 56
1, 419520, Control_c, 0, 64, 79
1, 419520, Control_c, 0, 67, 79
1, 419521, Note_off_c, 0, 44, 55
1, 419524, Note_off_c, 0, 50, 58
1, 419549, Control_c, 0, 67, 78
1, 419564, Control_c, 0, 67, 77
1, 419579, Control_c, 0, 67, 77
1, 419598, Note_on_c, 0, 56, 41
1, 419608, Control_c, 0, 67, 76
1, 419616, Note_on_c, 0, 50, 45
1, 419623, Control_c, 0, 67, 76
1, 419638, Control_c, 0, 67, 75
1, 419653, Control_c, 0, 67, 75
1, 419665, Note_off_c, 0, 50, 57
1, 419676, Note_off_c, 0, 56, 59
1, 419712, Control_c, 0, 67, 74
1, 419771, Note_off_c, 0, 59, 31
1, 419786, Control_c, 0, 67, 75
1, 419804, Note_on_c, 0, 56, 52
1, 419819, Note_on_c, 0, 50, 46
1, 419826, Note_off_c, 0, 62, 59
1, 419831, Control_c, 0, 67, 75
1, 419846, Control_c, 0, 67, 76
1, 419908, Note_off_c, 0, 50, 59
1, 419913, Control_c, 0, 67, 76
1, 419941, Note_off_c, 0, 56, 62
1, 419942, Control_c, 0, 67, 77
1, 420062, Control_c, 0, 64, 77
1, 420066, Note_on_c, 0, 61, 76
1, 420077, Control_c, 0, 64, 73
1, 420077, Control_c, 0, 67, 77
1, 420079, Note_on_c, 0, 49, 61
1, 420082, Note_on_c, 0, 58, 57
1, 420085, Note_on_c, 0, 56, 50
1, 420092, Control_c, 0, 64, 67
1, 420106, Control_c, 0, 64, 62
1, 420121, Control_c, 0, 64, 51
1, 420136, Control_c, 0, 64, 43
1, 420151, Control_c, 0, 64, 40
1, 420165, Control_c, 0, 64, 43
1, 420180, Control_c, 0, 64, 47
1, 420195, Control_c, 0, 64, 52
1, 420195, Control_c, 0, 67, 78
1, 420197, Note_off_c, 0, 58, 57
1, 420200, Note_off_c, 0, 56, 58
1, 420205, Note_off_c, 0, 49, 58
1, 420210, Control_c, 0, 64, 59
1, 420225, Control_c, 0, 64, 62
1, 420239, Control_c, 0, 64, 63
1, 420254, Control_c, 0, 64, 64
1, 420254, Control_c, 0, 67, 77
1, 420269, Control_c, 0, 64, 65
1, 420284, Note_on_c, 0, 40, 54
1, 420284, Control_c, 0, 64, 66
1, 420289, Note_on_c, 0, 58, 52
1, 420290, Note_on_c, 0, 49, 43
1, 420299, Control_c, 0, 64, 68
1, 420302, Note_on_c, 0, 56, 47
1, 420314, Control_c, 0, 64, 70
1, 420328, Control_c, 0, 64, 73
1, 420343, Control_c, 0, 64, 74
1, 420358, Control_c, 0, 64, 75
1, 420373, Control_c, 0, 64, 76
1, 420382, Note_off_c, 0, 58, 58
1, 420386, Note_off_c, 0, 56, 56
1, 420388, Control_c, 0, 64, 76
1, 420390, Note_off_c, 0, 49, 49
1, 420403, Control_c, 0, 64, 77
1, 420498, Note_on_c, 0, 49, 52
1, 420499, Note_off_c, 0, 40, 38
1, 420504, Note_on_c, 0, 44, 60
1, 420505, Note_on_c, 0, 58, 57
1, 420506, Control_c, 0, 67, 78
1, 420513, Note_on_c, 0, 56, 52
1, 420580, Control_c, 0, 67, 78
1, 420606, Note_off_c, 0, 49, 53
1, 420613, Note_off_c, 0, 56, 56
1, 420619, Note_off_c, 0, 44, 62
1, 420622, Note_off_c, 0, 58, 55
1, 420677, Control_c, 0, 67, 79
1, 420721, Control_c, 0, 64, 76
1, 420735, Note_on_c, 0, 58, 58
1, 420736, Control_c, 0, 64, 74
1, 420739, Note_on_c, 0, 49, 58
1, 420740, Note_on_c, 0, 46, 77
1, 420744, Note_on_c, 0, 56, 57
1, 420751, Control_c, 0, 64, 69
1, 420765, Control_c, 0, 64, 64
1, 420780, Control_c, 0, 64, 55
1, 420795, Control_c, 0, 64, 41
1, 420810, Control_c, 0, 64, 40
1, 420810, Control_c, 0, 67, 79
1, 420826, Control_c, 0, 64, 44
1, 420840, Note_off_c, 0, 49, 58
1, 420841, Control_c, 0, 64, 48
1, 420841, Control_c, 0, 67, 80
1, 420846, Note_off_c, 0, 56, 55
1, 420855, Control_c, 0, 64, 51
1, 420870, Control_c, 0, 64, 55
1, 420873, Note_off_c, 0, 58, 51
1, 420885, Control_c, 0, 64, 59
1, 420900, Control_c, 0, 64, 61
1, 420914, Control_c, 0, 64, 63
1, 420914, Control_c, 0, 67, 79
1, 420929, Control_c, 0, 64, 64
1, 420944, Control_c, 0, 64, 65
1, 420949, Note_on_c, 0, 58, 44
1, 420953, Note_on_c, 0, 56, 50
1, 420959, Control_c, 0, 64, 67
1, 420969, Note_on_c, 0, 49, 40
1, 420974, Control_c, 0, 64, 69
1, 420988, Control_c, 0, 64, 72
1, 421003, Control_c, 0, 64, 74
1, 421018, Control_c, 0, 64, 75
1, 421033, Control_c, 0, 64, 75
1, 421035, Note_off_c, 0, 49, 56
1, 421039, Note_off_c, 0, 56, 57
1, 421048, Control_c, 0, 67, 79
1, 421050, Note_off_c, 0, 58, 53
1, 421051, Note_off_c, 0, 46, 55
1, 421077, Control_c, 0, 64, 76
1, 421106, Control_c, 0, 67, 78
1, 421151, Control_c, 0, 67, 78
1, 421164, Note_on_c, 0, 58, 50
1, 421165, Note_on_c, 0, 49, 53
1, 421169, Note_on_c, 0, 56, 56
1, 421232, Note_off_c, 0, 58, 56
1, 421250, Note_off_c, 0, 49, 59
1, 421250, Note_off_c, 0, 56, 53
1, 421285, Control_c, 0, 67, 77
1, 421314, Control_c, 0, 67, 77
1, 421359, Control_c, 0, 64, 70
1, 421372, Note_on_c, 0, 58, 68
1, 421373, Control_c, 0, 64, 62
1, 421378, Note_on_c, 0, 49, 64
1, 421387, Note_on_c, 0, 55, 60
1, 421388, Control_c, 0, 64, 0
1, 421388, Control_c, 0, 67, 76
1, 421410, Control_c, 0, 67, 76
1, 421425, Control_c, 0, 67, 75
1, 421470, Control_c, 0, 64, 33
1, 421485, Control_c, 0, 64, 58
1, 421500, Control_c, 0, 64, 64
1, 421514, Control_c, 0, 64, 66
1, 421526, Note_off_c, 0, 49, 58
1, 421529, Control_c, 0, 64, 67
1, 421529, Control_c, 0, 67, 75
1, 421534, Note_off_c, 0, 55, 60
1, 421539, Note_off_c, 0, 58, 56
1, 421544, Control_c, 0, 64, 68
1, 421559, Control_c, 0, 64, 70
1, 421574, Control_c, 0, 64, 72
1, 421574, Control_c, 0, 67, 74
1, 421588, Control_c, 0, 64, 74
1, 421598, Note_on_c, 0, 58, 51
1, 421602, Note_on_c, 0, 55, 47
1, 421603, Control_c, 0, 64, 76
1, 421606, Note_on_c, 0, 39, 59
1, 421608, Note_on_c, 0, 49, 59
1, 421618, Control_c, 0, 64, 77
1, 421618, Control_c, 0, 67, 75
1, 421634, Control_c, 0, 64, 78
1, 421649, Control_c, 0, 64, 78
1, 421664, Control_c, 0, 64, 79
1, 421678, Control_c, 0, 64, 80
1, 421693, Control_c, 0, 64, 80
1, 421708, Control_c, 0, 64, 81
1, 421722, Note_off_c, 0, 55, 56
1, 421725, Note_off_c, 0, 49, 56
1, 421752, Control_c, 0, 64, 81
1, 421781, Note_off_c, 0, 58, 36
1, 421846, Note_on_c, 0, 49, 67
1, 421849, Note_on_c, 0, 43, 66
1, 421852, Note_on_c, 0, 58, 66
1, 421853, Note_on_c, 0, 55, 59
1, 421865, Note_off_c, 0, 39, 54
1, 421885, Control_c, 0, 67, 75
1, 421906, Note_off_c, 0, 55, 61
1, 421977, Note_off_c, 0, 61, 39
1, 421979, Note_off_c, 0, 58, 56
1, 421983, Note_off_c, 0, 49, 58
1, 422048, Control_c, 0, 67, 76
1, 422093, Control_c, 0, 64, 81
1, 422108, Control_c, 0, 64, 78
1, 422108, Control_c, 0, 67, 76
1, 422121, Note_on_c, 0, 61, 77
1, 422122, Control_c, 0, 64, 69
1, 422132, Note_on_c, 0, 46, 60
1, 422135, Note_on_c, 0, 58, 61
1, 422136, Note_on_c, 0, 49, 55
1, 422137, Control_c, 0, 64, 60
1, 422140, Note_on_c, 0, 51, 49
1, 422156, Note_on_c, 0, 55, 47
1, 422159, Control_c, 0, 64, 18
1, 422162, Note_off_c, 0, 43, 52
1, 422174, Control_c, 0, 64, 0
1, 422189, Control_c, 0, 67, 77
1, 422218, Control_c, 0, 64, 39
1, 422233, Control_c, 0, 64, 56
1, 422248, Control_c, 0, 64, 63
1, 422248, Control_c, 0, 67, 77
1, 422263, Control_c, 0, 64, 66
1, 422278, Control_c, 0, 64, 68
1, 422290, Note_off_c, 0, 49, 54
1, 422293, Control_c, 0, 64, 70
1, 422293, Control_c, 0, 67, 77
1, 422308, Control_c, 0, 64, 72
1, 422323, Control_c, 0, 64, 73
1, 422329, Note_off_c, 0, 51, 36
1, 422337, Control_c, 0, 64, 75
1, 422342, Note_off_c, 0, 58, 37
1, 422352, Control_c, 0, 64, 76
1, 422367, Control_c, 0, 64, 77
1, 422382, Control_c, 0, 64, 78
1, 422416, Note_off_c, 0, 46, 37
1, 422421, Note_off_c, 0, 55, 0
1, 422427, Note_on_c, 0, 58, 46
1, 422436, Note_on_c, 0, 49, 50
1, 422442, Control_c, 0, 64, 79
1, 422448, Note_on_c, 0, 51, 39
1, 422460, Poly_aftertouch_c, 0, 55, 127
1, 422471, Control_c, 0, 64, 79
1, 422471, Control_c, 0, 67, 77
1, 422486, Control_c, 0, 64, 80
1, 422486, Control_c, 0, 67, 78
1, 422501, Control_c, 0, 64, 80
1, 422546, Control_c, 0, 67, 78
1, 422560, Control_c, 0, 67, 79
1, 422575, Control_c, 0, 67, 79
1, 422577, Note_off_c, 0, 49, 35
1, 422590, Control_c, 0, 67, 80
1, 422594, Note_off_c, 0, 51, 39
1, 422605, Control_c, 0, 64, 81
1, 422605, Control_c, 0, 67, 81
1, 422619, Control_c, 0, 67, 82
1, 422634, Control_c, 0, 67, 83
1, 422649, Control_c, 0, 67, 84
1, 422664, Control_c, 0, 67, 84
1, 422678, Control_c, 0, 67, 85
1, 422686, Note_off_c, 0, 58, 0
1, 422689, Poly_aftertouch_c, 0, 55, 0
1, 422693, Control_c, 0, 67, 87
1, 422708, Control_c, 0, 67, 89
1, 422723, Poly_aftertouch_c, 0, 58, 127
1, 422723, Control_c, 0, 67, 90
1, 422726, Poly_aftertouch_c, 0, 55, 127
1, 422730, Note_on_c, 0, 51, 39
1, 422738, Control_c, 0, 67, 92
1, 422752, Control_c, 0, 67, 94
1, 422765, Note_on_c, 0, 49, 18
1, 422767, Control_c, 0, 67, 97
1, 422782, Control_c, 0, 64, 81
1, 422782, Control_c, 0, 67, 99
1, 422797, Control_c, 0, 67, 101
1, 422812, Control_c, 0, 67, 103
1, 422822, Note_off_c, 0, 49, 40
1, 422826, Control_c, 0, 67, 105
1, 422831, Poly_aftertouch_c, 0, 55, 0
1, 422835, Note_off_c, 0, 61, 60
1, 422841, Control_c, 0, 67, 108
1, 422856, Control_c, 0, 67, 111
1, 422871, Control_c, 0, 67, 114
1, 422874, Note_off_c, 0, 51, 30
1, 422884, Control_c, 0, 67, 115
1, 422907, Control_c, 0, 67, 116
1, 422922, Control_c, 0, 67, 117
1, 422949, Poly_aftertouch_c, 0, 58, 0
1, 422981, Control_c, 0, 67, 117
1, 423011, Control_c, 0, 67, 118
1, 423055, Control_c, 0, 67, 118
1, 423070, Control_c, 0, 67, 119
1, 423099, Control_c, 0, 67, 119
1, 423129, Control_c, 0, 64, 81
1, 423129, Control_c, 0, 67, 120
1, 423144, Control_c, 0, 64, 80
1, 423158, Control_c, 0, 64, 78
1, 423173, Control_c, 0, 64, 73
1, 423181, Note_on_c, 0, 60, 64
1, 423188, Control_c, 0, 64, 68
1, 423202, Control_c, 0, 64, 63
1, 423211, Note_on_c, 0, 32, 35
1, 423216, Note_on_c, 0, 48, 46
1, 423217, Control_c, 0, 64, 54
1, 423220, Note_on_c, 0, 44, 33
1, 423231, Note_on_c, 0, 56, 24
1, 423234, Control_c, 0, 64, 34
1, 423248, Control_c, 0, 64, 0
1, 423411, Control_c, 0, 64, 34
1, 423426, Control_c, 0, 64, 49
1, 423426, Control_c, 0, 67, 120
1, 423441, Control_c, 0, 64, 56
1, 423441, Control_c, 0, 67, 121
1, 423455, Control_c, 0, 64, 60
1, 423470, Control_c, 0, 64, 62
1, 423470, Control_c, 0, 67, 121
1, 423485, Control_c, 0, 64, 63
1, 423485, Control_c, 0, 67, 123
1, 423500, Control_c, 0, 64, 64
1, 423500, Control_c, 0, 67, 126
1, 423515, Control_c, 0, 64, 65
1, 423515, Control_c, 0, 67, 127
1, 423530, Control_c, 0, 64, 66
1, 423545, Control_c, 0, 64, 68
1, 423547, Note_off_c, 0, 56, 16
1, 423560, Control_c, 0, 64, 69
1, 423574, Control_c, 0, 64, 70
1, 423578, Note_on_c, 0, 51, 37
1, 423589, Control_c, 0, 64, 72
1, 423604, Control_c, 0, 64, 72
1, 423619, Control_c, 0, 64, 73
1, 423634, Control_c, 0, 64, 74
1, 423656, Control_c, 0, 64, 74
1, 423671, Control_c, 0, 64, 75
1, 423682, Note_off_c, 0, 51, 60
1, 423700, Note_off_c, 0, 48, 36
1, 423725, Note_off_c, 0, 32, 42
1, 423829, Note_on_c, 0, 51, 40
1, 423879, Control_c, 0, 64, 74
1, 423898, Note_off_c, 0, 51, 44
1, 423923, Control_c, 0, 64, 74
1, 423997, Control_c, 0, 64, 73
1, 424087, Control_c, 0, 64, 73
1, 424093, Note_on_c, 0, 56, 42
1, 424102, Control_c, 0, 64, 72
1, 424117, Control_c, 0, 64, 71
1, 424131, Control_c, 0, 64, 68
1, 424146, Control_c, 0, 64, 64
1, 424161, Control_c, 0, 64, 61
1, 424176, Control_c, 0, 64, 60
1, 424191, Control_c, 0, 64, 61
1, 424205, Control_c, 0, 64, 61
1, 424220, Control_c, 0, 64, 62
1, 424235, Control_c, 0, 64, 63
1, 424250, Control_c, 0, 64, 64
1, 424265, Control_c, 0, 64, 66
1, 424279, Control_c, 0, 64, 67
1, 424294, Control_c, 0, 64, 68
1, 424309, Control_c, 0, 64, 69
1, 424316, Note_on_c, 0, 51, 31
1, 424323, Control_c, 0, 64, 70
1, 424338, Control_c, 0, 64, 70
1, 424366, Note_off_c, 0, 51, 44
1, 424540, Note_on_c, 0, 51, 38
1, 424544, Note_off_c, 0, 56, 22
1, 424568, Control_c, 0, 64, 70
1, 424642, Control_c, 0, 64, 69
1, 424668, Note_off_c, 0, 51, 23
1, 424731, Control_c, 0, 64, 69
1, 424761, Control_c, 0, 64, 68
1, 424764, Note_on_c, 0, 58, 58
1, 424776, Control_c, 0, 64, 67
1, 424791, Control_c, 0, 64, 65
1, 424793, Note_on_c, 0, 55, 44
1, 424801, Note_on_c, 0, 49, 37
1, 424805, Control_c, 0, 64, 63
1, 424821, Control_c, 0, 64, 60
1, 424836, Control_c, 0, 64, 55
1, 424850, Control_c, 0, 64, 51
1, 424857, Note_off_c, 0, 60, 38
1, 424865, Control_c, 0, 64, 47
1, 424880, Control_c, 0, 64, 43
1, 424895, Control_c, 0, 64, 39
1, 424910, Control_c, 0, 64, 38
1, 424916, Note_off_c, 0, 44, 39
1, 424940, Control_c, 0, 64, 38
1, 424954, Control_c, 0, 64, 39
1, 424969, Control_c, 0, 64, 40
1, 424984, Control_c, 0, 64, 43
1, 424999, Control_c, 0, 64, 48
1, 425011, Note_on_c, 0, 51, 34
1, 425014, Control_c, 0, 64, 52
1, 425028, Control_c, 0, 64, 55
1, 425043, Control_c, 0, 64, 57
1, 425058, Control_c, 0, 64, 57
1, 425064, Note_off_c, 0, 51, 47
1, 425072, Control_c, 0, 64, 58
1, 425213, Control_c, 0, 64, 58
1, 425225, Note_on_c, 0, 51, 37
1, 425227, Control_c, 0, 64, 59
1, 425242, Control_c, 0, 64, 60
1, 425257, Control_c, 0, 64, 61
1, 425271, Control_c, 0, 64, 62
1, 425286, Control_c, 0, 64, 63
1, 425289, Note_off_c, 0, 55, 15
1, 425301, Control_c, 0, 64, 64
1, 425316, Control_c, 0, 64, 64
1, 425331, Control_c, 0, 64, 65
1, 425340, Note_off_c, 0, 51, 55
1, 425345, Control_c, 0, 64, 65
1, 425450, Control_c, 0, 64, 64
1, 425458, Note_on_c, 0, 55, 41
1, 425465, Control_c, 0, 64, 64
1, 425479, Control_c, 0, 64, 63
1, 425494, Control_c, 0, 64, 62
1, 425509, Control_c, 0, 64, 62
1, 425539, Control_c, 0, 64, 62
1, 425553, Control_c, 0, 64, 63
1, 425568, Control_c, 0, 64, 63
1, 425583, Control_c, 0, 64, 64
1, 425597, Control_c, 0, 64, 65
1, 425612, Control_c, 0, 64, 66
1, 425628, Control_c, 0, 64, 66
1, 425643, Control_c, 0, 64, 68
1, 425658, Control_c, 0, 64, 69
1, 425673, Control_c, 0, 64, 71
1, 425680, Note_on_c, 0, 51, 36
1, 425688, Control_c, 0, 64, 72
1, 425702, Control_c, 0, 64, 74
1, 425717, Control_c, 0, 64, 75
1, 425732, Control_c, 0, 64, 76
1, 425737, Note_off_c, 0, 51, 57
1, 425747, Control_c, 0, 64, 77
1, 425776, Control_c, 0, 64, 77
1, 425796, Note_off_c, 0, 55, 0
1, 425834, Poly_aftertouch_c, 0, 55, 127
1, 425895, Note_on_c, 0, 51, 43
1, 425930, Poly_aftertouch_c, 0, 55, 0
1, 426124, Control_c, 0, 64, 76
1, 426132, Note_on_c, 0, 63, 62
1, 426139, Control_c, 0, 64, 75
1, 426154, Control_c, 0, 64, 72
1, 426160, Note_on_c, 0, 48, 48
1, 426165, Note_off_c, 0, 51, 41
1, 426165, Note_on_c, 0, 56, 46
1, 426168, Control_c, 0, 64, 69
1, 426183, Control_c, 0, 64, 65
1, 426198, Control_c, 0, 64, 60
1, 426213, Control_c, 0, 64, 53
1, 426228, Control_c, 0, 64, 40
1, 426242, Note_off_c, 0, 49, 40
1, 426243, Control_c, 0, 64, 29
1, 426257, Control_c, 0, 64, 26
1, 426272, Control_c, 0, 64, 28
1, 426287, Control_c, 0, 64, 31
1, 426302, Control_c, 0, 64, 34
1, 426311, Note_off_c, 0, 58, 38
1, 426317, Control_c, 0, 64, 39
1, 426332, Control_c, 0, 64, 46
1, 426347, Control_c, 0, 64, 52
1, 426362, Control_c, 0, 64, 56
1, 426371, Note_on_c, 0, 51, 38
1, 426376, Control_c, 0, 64, 57
1, 426391, Control_c, 0, 64, 58
1, 426406, Control_c, 0, 64, 58
1, 426421, Control_c, 0, 64, 59
1, 426427, Note_off_c, 0, 51, 58
1, 426436, Control_c, 0, 64, 59
1, 426451, Control_c, 0, 64, 60
1, 426466, Control_c, 0, 64, 60
1, 426481, Control_c, 0, 64, 61
1, 426496, Control_c, 0, 64, 62
1, 426502, Note_off_c, 0, 56, 33
1, 426511, Control_c, 0, 64, 63
1, 426525, Control_c, 0, 64, 63
1, 426540, Control_c, 0, 64, 64
1, 426570, Control_c, 0, 64, 64
1, 426571, Note_on_c, 0, 51, 45
1, 426585, Control_c, 0, 64, 65
1, 426782, Note_off_c, 0, 51, 30
1, 426806, Note_on_c, 0, 56, 46
1, 426933, Control_c, 0, 64, 65
1, 427022, Control_c, 0, 64, 66
1, 427039, Note_on_c, 0, 51, 26
1, 427066, Control_c, 0, 64, 66
1, 427088, Note_off_c, 0, 51, 45
1, 427111, Control_c, 0, 64, 67
1, 427249, Note_on_c, 0, 51, 38
1, 427430, Control_c, 0, 64, 66
1, 427431, Note_off_c, 0, 51, 41
1, 427445, Control_c, 0, 64, 66
1, 427460, Control_c, 0, 64, 65
1, 427474, Control_c, 0, 64, 64
1, 427489, Note_on_c, 0, 58, 48
1, 427489, Control_c, 0, 64, 62
1, 427492, Note_on_c, 0, 43, 50
1, 427504, Control_c, 0, 64, 59
1, 427519, Control_c, 0, 64, 53
1, 427534, Control_c, 0, 64, 42
1, 427548, Control_c, 0, 64, 26
1, 427563, Control_c, 0, 64, 0
1, 427631, Note_off_c, 0, 48, 34
1, 427667, Control_c, 0, 64, 10
1, 427682, Control_c, 0, 64, 19
1, 427697, Control_c, 0, 64, 28
1, 427703, Note_on_c, 0, 51, 40
1, 427712, Control_c, 0, 64, 37
1, 427727, Control_c, 0, 64, 46
1, 427741, Control_c, 0, 64, 55
1, 427753, Note_off_c, 0, 56, 6
1, 427755, Note_off_c, 0, 51, 42
1, 427756, Control_c, 0, 64, 60
1, 427771, Control_c, 0, 64, 62
1, 427786, Control_c, 0, 64, 63
1, 427801, Control_c, 0, 64, 64
1, 427815, Control_c, 0, 64, 65
1, 427830, Control_c, 0, 64, 67
1, 427845, Control_c, 0, 64, 68
1, 427860, Control_c, 0, 64, 69
1, 427874, Control_c, 0, 64, 70
1, 427889, Control_c, 0, 64, 71
1, 427904, Control_c, 0, 64, 71
1, 427915, Note_on_c, 0, 51, 44
1, 427934, Control_c, 0, 64, 72
1, 427939, Note_off_c, 0, 58, 56
1, 428127, Control_c, 0, 64, 71
1, 428150, Control_c, 0, 64, 69
1, 428158, Note_on_c, 0, 61, 64
1, 428164, Control_c, 0, 64, 67
1, 428177, Note_on_c, 0, 58, 44
1, 428179, Control_c, 0, 64, 64
1, 428187, Note_off_c, 0, 51, 49
1, 428194, Control_c, 0, 64, 60
1, 428209, Control_c, 0, 64, 59
1, 428238, Control_c, 0, 64, 60
1, 428253, Control_c, 0, 64, 61
1, 428268, Control_c, 0, 64, 62
1, 428283, Control_c, 0, 64, 63
1, 428297, Control_c, 0, 64, 65
1, 428312, Control_c, 0, 64, 66
1, 428327, Control_c, 0, 64, 68
1, 428342, Control_c, 0, 64, 70
1, 428357, Control_c, 0, 64, 72
1, 428371, Control_c, 0, 64, 74
1, 428386, Control_c, 0, 64, 76
1, 428392, Note_on_c, 0, 51, 45
1, 428401, Control_c, 0, 64, 78
1, 428401, Control_c, 0, 67, 120
1, 428416, Control_c, 0, 64, 79
1, 428416, Control_c, 0, 67, 104
1, 428431, Control_c, 0, 64, 81
1, 428431, Control_c, 0, 67, 91
1, 428436, Note_off_c, 0, 51, 45
1, 428445, Control_c, 0, 64, 82
1, 428445, Control_c, 0, 67, 82
1, 428460, Control_c, 0, 64, 82
1, 428460, Control_c, 0, 67, 76
1, 428475, Control_c, 0, 64, 83
1, 428475, Control_c, 0, 67, 73
1, 428490, Control_c, 0, 67, 71
1, 428505, Control_c, 0, 67, 69
1, 428520, Control_c, 0, 67, 67
1, 428564, Note_off_c, 0, 58, 28
1, 428594, Control_c, 0, 67, 68
1, 428604, Note_on_c, 0, 51, 44
1, 428668, Control_c, 0, 67, 68
1, 428697, Control_c, 0, 67, 69
1, 428769, Note_off_c, 0, 61, 57
1, 428786, Control_c, 0, 67, 69
1, 428803, Note_off_c, 0, 51, 31
1, 428817, Control_c, 0, 64, 81
1, 428832, Control_c, 0, 64, 78
1, 428836, Note_on_c, 0, 60, 60
1, 428846, Control_c, 0, 64, 74
1, 428846, Control_c, 0, 67, 70
1, 428852, Note_on_c, 0, 56, 51
1, 428858, Note_on_c, 0, 44, 46
1, 428861, Control_c, 0, 64, 68
1, 428876, Control_c, 0, 64, 62
1, 428899, Control_c, 0, 64, 52
1, 428907, Note_off_c, 0, 63, 38
1, 428913, Control_c, 0, 64, 31
1, 428928, Control_c, 0, 64, 23
1, 428943, Control_c, 0, 64, 25
1, 428958, Control_c, 0, 64, 28
1, 428973, Control_c, 0, 64, 32
1, 428973, Control_c, 0, 67, 69
1, 428988, Control_c, 0, 64, 37
1, 429002, Control_c, 0, 64, 44
1, 429002, Control_c, 0, 67, 69
1, 429012, Note_off_c, 0, 43, 34
1, 429017, Control_c, 0, 64, 52
1, 429032, Control_c, 0, 64, 57
1, 429046, Control_c, 0, 64, 60
1, 429061, Control_c, 0, 64, 62
1, 429061, Control_c, 0, 67, 68
1, 429076, Control_c, 0, 64, 63
1, 429084, Note_on_c, 0, 51, 42
1, 429091, Control_c, 0, 64, 64
1, 429091, Control_c, 0, 67, 68
1, 429106, Control_c, 0, 64, 66
1, 429120, Control_c, 0, 64, 68
1, 429135, Control_c, 0, 64, 71
1, 429150, Control_c, 0, 64, 74
1, 429157, Note_off_c, 0, 51, 61
1, 429165, Control_c, 0, 64, 77
1, 429180, Control_c, 0, 64, 79
1, 429194, Control_c, 0, 64, 81
1, 429209, Control_c, 0, 64, 83
1, 429210, Note_off_c, 0, 56, 36
1, 429224, Control_c, 0, 64, 83
1, 429238, Control_c, 0, 64, 84
1, 429253, Control_c, 0, 64, 85
1, 429283, Control_c, 0, 64, 85
1, 429298, Note_on_c, 0, 51, 47
1, 429313, Control_c, 0, 64, 86
1, 429478, Note_off_c, 0, 60, 49
1, 429491, Control_c, 0, 67, 68
1, 429506, Control_c, 0, 64, 85
1, 429514, Note_on_c, 0, 63, 70
1, 429520, Control_c, 0, 64, 83
1, 429531, Note_off_c, 0, 51, 32
1, 429533, Note_on_c, 0, 43, 57
1, 429535, Control_c, 0, 64, 78
1, 429538, Note_on_c, 0, 58, 54
1, 429550, Control_c, 0, 64, 71
1, 429564, Control_c, 0, 64, 64
1, 429579, Control_c, 0, 64, 53
1, 429594, Control_c, 0, 64, 33
1, 429610, Control_c, 0, 64, 24
1, 429620, Note_off_c, 0, 44, 38
1, 429624, Control_c, 0, 64, 30
1, 429647, Control_c, 0, 64, 35
1, 429647, Control_c, 0, 67, 69
1, 429662, Control_c, 0, 64, 40
1, 429676, Control_c, 0, 64, 50
1, 429691, Control_c, 0, 64, 58
1, 429706, Control_c, 0, 64, 62
1, 429721, Control_c, 0, 64, 64
1, 429736, Control_c, 0, 64, 65
1, 429747, Note_on_c, 0, 51, 45
1, 429750, Control_c, 0, 64, 66
1, 429765, Control_c, 0, 64, 68
1, 429780, Control_c, 0, 64, 72
1, 429795, Control_c, 0, 64, 75
1, 429810, Control_c, 0, 64, 79
1, 429810, Control_c, 0, 67, 68
1, 429819, Note_off_c, 0, 51, 52
1, 429824, Control_c, 0, 64, 81
1, 429839, Control_c, 0, 64, 82
1, 429854, Control_c, 0, 64, 83
1, 429868, Control_c, 0, 64, 84
1, 429883, Control_c, 0, 64, 85
1, 429898, Control_c, 0, 64, 86
1, 429928, Control_c, 0, 64, 86
1, 429928, Control_c, 0, 67, 69
1, 429942, Control_c, 0, 64, 87
1, 429954, Note_on_c, 0, 51, 48
1, 429956, Note_off_c, 0, 58, 22
1, 430029, Note_off_c, 0, 51, 58
1, 430165, Control_c, 0, 64, 85
1, 430180, Control_c, 0, 64, 82
1, 430184, Note_on_c, 0, 68, 70
1, 430194, Control_c, 0, 64, 77
1, 430198, Note_on_c, 0, 41, 52
1, 430207, Note_on_c, 0, 60, 46
1, 430209, Control_c, 0, 64, 70
1, 430224, Note_off_c, 0, 63, 62
1, 430224, Control_c, 0, 64, 64
1, 430239, Control_c, 0, 64, 55
1, 430246, Note_off_c, 0, 43, 59
1, 430254, Control_c, 0, 64, 34
1, 430268, Control_c, 0, 64, 0
1, 430328, Control_c, 0, 64, 10
1, 430342, Control_c, 0, 64, 25
1, 430357, Control_c, 0, 64, 36
1, 430373, Control_c, 0, 64, 48
1, 430395, Control_c, 0, 64, 56
1, 430395, Control_c, 0, 67, 69
1, 430410, Control_c, 0, 64, 61
1, 430426, Control_c, 0, 64, 62
1, 430434, Note_on_c, 0, 56, 35
1, 430440, Control_c, 0, 64, 64
1, 430455, Control_c, 0, 64, 65
1, 430470, Control_c, 0, 64, 66
1, 430485, Control_c, 0, 64, 68
1, 430499, Control_c, 0, 64, 70
1, 430499, Control_c, 0, 67, 69
1, 430514, Control_c, 0, 64, 72
1, 430521, Note_off_c, 0, 56, 59
1, 430529, Control_c, 0, 64, 73
1, 430544, Control_c, 0, 64, 74
1, 430559, Control_c, 0, 64, 75
1, 430589, Control_c, 0, 64, 75
1, 430642, Note_on_c, 0, 56, 52
1, 430650, Note_off_c, 0, 60, 22
1, 430737, Control_c, 0, 67, 69
1, 430825, Control_c, 0, 64, 75
1, 430825, Control_c, 0, 67, 70
1, 430840, Control_c, 0, 64, 74
1, 430855, Control_c, 0, 64, 74
1, 430870, Control_c, 0, 64, 73
1, 430884, Note_off_c, 0, 56, 36
1, 430884, Control_c, 0, 64, 71
1, 430896, Note_on_c, 0, 70, 67
1, 430899, Control_c, 0, 64, 69
1, 430914, Note_on_c, 0, 53, 45
1, 430914, Control_c, 0, 64, 65
1, 430929, Control_c, 0, 64, 61
1, 430943, Note_on_c, 0, 62, 38
1, 430944, Control_c, 0, 64, 52
1, 430944, Control_c, 0, 67, 70
1, 430958, Control_c, 0, 64, 36
1, 430973, Control_c, 0, 64, 0
1, 430990, Note_off_c, 0, 68, 62
1, 431003, Control_c, 0, 67, 71
1, 431017, Note_off_c, 0, 62, 0
1, 431017, Note_on_c, 0, 62, 3
1, 431043, Note_off_c, 0, 41, 34
1, 431063, Control_c, 0, 64, 25
1, 431078, Control_c, 0, 64, 39
1, 431092, Control_c, 0, 64, 50
1, 431107, Control_c, 0, 64, 58
1, 431107, Control_c, 0, 67, 71
1, 431122, Control_c, 0, 64, 61
1, 431144, Control_c, 0, 64, 62
1, 431159, Control_c, 0, 64, 64
1, 431159, Control_c, 0, 67, 72
1, 431173, Control_c, 0, 64, 65
1, 431178, Note_on_c, 0, 56, 27
1, 431188, Control_c, 0, 64, 67
1, 431203, Control_c, 0, 64, 69
1, 431203, Control_c, 0, 67, 72
1, 431219, Control_c, 0, 64, 72
1, 431219, Control_c, 0, 67, 73
1, 431234, Control_c, 0, 64, 74
1, 431234, Control_c, 0, 67, 73
1, 431244, Note_off_c, 0, 56, 54
1, 431248, Control_c, 0, 64, 76
1, 431248, Control_c, 0, 67, 74
1, 431263, Control_c, 0, 64, 78
1, 431278, Control_c, 0, 64, 80
1, 431278, Control_c, 0, 67, 74
1, 431293, Control_c, 0, 64, 81
1, 431308, Control_c, 0, 64, 83
1, 431308, Control_c, 0, 67, 75
1, 431322, Control_c, 0, 64, 83
1, 431352, Control_c, 0, 64, 84
1, 431382, Control_c, 0, 67, 75
1, 431397, Control_c, 0, 64, 84
1, 431402, Note_on_c, 0, 56, 46
1, 431411, Control_c, 0, 64, 85
1, 431411, Control_c, 0, 67, 76
1, 431426, Control_c, 0, 64, 85
1, 431441, Control_c, 0, 64, 86
1, 431456, Control_c, 0, 67, 76
1, 431501, Control_c, 0, 67, 77
1, 431567, Note_off_c, 0, 56, 35
1, 431604, Control_c, 0, 67, 77
1, 431633, Control_c, 0, 67, 78
1, 431678, Control_c, 0, 64, 85
1, 431693, Control_c, 0, 64, 84
1, 431707, Control_c, 0, 64, 82
1, 431715, Note_on_c, 0, 63, 56
1, 431722, Control_c, 0, 64, 79
1, 431722, Control_c, 0, 67, 78
1, 431737, Control_c, 0, 64, 75
1, 431743, Note_on_c, 0, 51, 39
1, 431748, Note_on_c, 0, 55, 40
1, 431752, Control_c, 0, 64, 70
1, 431752, Control_c, 0, 67, 79
1, 431765, Note_off_c, 0, 70, 41
1, 431767, Control_c, 0, 64, 66
1, 431767, Control_c, 0, 67, 79
1, 431781, Control_c, 0, 64, 62
1, 431781, Control_c, 0, 67, 80
1, 431790, Note_off_c, 0, 62, 44
1, 431796, Control_c, 0, 64, 56
1, 431796, Control_c, 0, 67, 80
1, 431811, Control_c, 0, 64, 50
1, 431811, Control_c, 0, 67, 81
1, 431826, Control_c, 0, 64, 43
1, 431826, Control_c, 0, 67, 82
1, 431841, Control_c, 0, 64, 37
1, 431841, Control_c, 0, 67, 84
1, 431856, Control_c, 0, 64, 34
1, 431856, Control_c, 0, 67, 85
1, 431870, Control_c, 0, 64, 31
1, 431870, Control_c, 0, 67, 87
1, 431893, Control_c, 0, 64, 29
1, 431893, Control_c, 0, 67, 88
1, 431904, Note_off_c, 0, 53, 32
1, 431908, Control_c, 0, 67, 90
1, 431922, Control_c, 0, 67, 92
1, 431937, Control_c, 0, 67, 94
1, 431952, Control_c, 0, 64, 30
1, 431952, Control_c, 0, 67, 98
1, 431966, Control_c, 0, 64, 32
1, 431966, Control_c, 0, 67, 100
1, 431981, Control_c, 0, 64, 33
1, 431981, Control_c, 0, 67, 103
1, 431996, Control_c, 0, 64, 34
1, 431996, Control_c, 0, 67, 107
1, 432012, Note_on_c, 0, 58, 41
1, 432012, Control_c, 0, 64, 35
1, 432012, Control_c, 0, 67, 111
1, 432027, Control_c, 0, 64, 36
1, 432027, Control_c, 0, 67, 117
1, 432042, Control_c, 0, 64, 37
1, 432042, Control_c, 0, 67, 124
1, 432057, Control_c, 0, 64, 39
1, 432057, Control_c, 0, 67, 127
1, 432071, Control_c, 0, 64, 41
1, 432086, Control_c, 0, 64, 44
1, 432092, Note_off_c, 0, 58, 59
1, 432097, Note_off_c, 0, 55, 39
1, 432101, Control_c, 0, 64, 48
1, 432116, Control_c, 0, 64, 51
1, 432131, Control_c, 0, 64, 55
1, 432145, Control_c, 0, 64, 58
1, 432160, Control_c, 0, 64, 60
1, 432175, Control_c, 0, 64, 63
1, 432190, Control_c, 0, 64, 64
1, 432205, Control_c, 0, 64, 66
1, 432219, Control_c, 0, 64, 67
1, 432226, Note_on_c, 0, 58, 42
1, 432234, Control_c, 0, 64, 69
1, 432249, Control_c, 0, 64, 70
1, 432334, Note_off_c, 0, 58, 36
1, 432412, Control_c, 0, 64, 70
1, 432427, Control_c, 0, 64, 69
1, 432435, Note_on_c, 0, 55, 47
1, 432442, Control_c, 0, 64, 68
1, 432471, Control_c, 0, 64, 68
1, 432501, Control_c, 0, 64, 67
1, 432619, Control_c, 0, 64, 68
1, 432642, Control_c, 0, 64, 68
1, 432654, Note_on_c, 0, 58, 39
1, 432657, Control_c, 0, 64, 69
1, 432671, Control_c, 0, 64, 70
1, 432686, Control_c, 0, 64, 71
1, 432701, Control_c, 0, 64, 72
1, 432714, Note_off_c, 0, 55, 32
1, 432714, Note_off_c, 0, 58, 57
1, 432716, Control_c, 0, 64, 73
1, 432731, Control_c, 0, 64, 73
1, 432745, Control_c, 0, 64, 74
1, 432775, Control_c, 0, 64, 74
1, 432881, Note_on_c, 0, 58, 37
1, 433012, Control_c, 0, 64, 74
1, 433042, Control_c, 0, 64, 73
1, 433057, Control_c, 0, 64, 73
1, 433072, Control_c, 0, 64, 72
1, 433087, Control_c, 0, 64, 71
1, 433102, Control_c, 0, 64, 70
1, 433111, Note_on_c, 0, 55, 42
1, 433112, Note_on_c, 0, 39, 47
1, 433117, Control_c, 0, 64, 68
1, 433119, Note_off_c, 0, 58, 40
1, 433131, Control_c, 0, 64, 65
1, 433146, Control_c, 0, 64, 63
1, 433161, Control_c, 0, 64, 60
1, 433176, Control_c, 0, 64, 57
1, 433191, Control_c, 0, 64, 54
1, 433205, Control_c, 0, 64, 49
1, 433220, Control_c, 0, 64, 45
1, 433235, Control_c, 0, 64, 44
1, 433265, Control_c, 0, 64, 45
1, 433275, Note_off_c, 0, 51, 26
1, 433279, Control_c, 0, 64, 45
1, 433294, Control_c, 0, 64, 47
1, 433309, Control_c, 0, 64, 49
1, 433324, Control_c, 0, 64, 53
1, 433334, Note_on_c, 0, 58, 39
1, 433339, Control_c, 0, 64, 56
1, 433353, Control_c, 0, 64, 59
1, 433368, Control_c, 0, 64, 61
1, 433391, Control_c, 0, 64, 62
1, 433406, Control_c, 0, 64, 64
1, 433420, Control_c, 0, 64, 65
1, 433435, Control_c, 0, 64, 67
1, 433435, Note_off_c, 0, 58, 60
1, 433450, Control_c, 0, 64, 68
1, 433464, Note_off_c, 0, 55, 36
1, 433465, Control_c, 0, 64, 69
1, 433480, Control_c, 0, 64, 70
1, 433494, Control_c, 0, 64, 71
1, 433509, Control_c, 0, 64, 71
1, 433570, Note_on_c, 0, 58, 47
1, 433732, Control_c, 0, 64, 71
1, 433743, Note_off_c, 0, 58, 30
1, 433751, Note_off_c, 0, 63, 33
1, 433777, Control_c, 0, 64, 70
1, 433791, Control_c, 0, 64, 69
1, 433802, Note_on_c, 0, 64, 65
1, 433806, Control_c, 0, 64, 68
1, 433821, Control_c, 0, 64, 65
1, 433827, Note_on_c, 0, 55, 40
1, 433835, Control_c, 0, 64, 62
1, 433850, Control_c, 0, 64, 58
1, 433865, Control_c, 0, 64, 53
1, 433880, Control_c, 0, 64, 53
1, 433895, Control_c, 0, 64, 54
1, 433909, Control_c, 0, 64, 55
1, 433924, Control_c, 0, 64, 57
1, 433939, Control_c, 0, 64, 59
1, 433954, Control_c, 0, 64, 62
1, 433969, Control_c, 0, 64, 63
1, 433984, Control_c, 0, 64, 64
1, 433999, Control_c, 0, 64, 65
1, 434014, Control_c, 0, 64, 66
1, 434026, Note_on_c, 0, 58, 47
1, 434029, Control_c, 0, 64, 67
1, 434043, Control_c, 0, 64, 68
1, 434058, Control_c, 0, 64, 70
1, 434073, Control_c, 0, 64, 73
1, 434088, Control_c, 0, 64, 74
1, 434102, Control_c, 0, 64, 75
1, 434108, Note_off_c, 0, 58, 58
1, 434117, Control_c, 0, 64, 76
1, 434118, Note_off_c, 0, 55, 37
1, 434139, Control_c, 0, 64, 77
1, 434154, Control_c, 0, 64, 77
1, 434254, Note_on_c, 0, 58, 48
1, 434437, Control_c, 0, 64, 77
1, 434466, Control_c, 0, 64, 76
1, 434481, Control_c, 0, 64, 76
1, 434496, Control_c, 0, 64, 75
1, 434509, Note_on_c, 0, 65, 68
1, 434511, Control_c, 0, 64, 74
1, 434521, Note_on_c, 0, 37, 44
1, 434526, Control_c, 0, 64, 72
1, 434529, Note_off_c, 0, 58, 35
1, 434540, Control_c, 0, 64, 69
1, 434545, Note_off_c, 0, 64, 56
1, 434550, Note_on_c, 0, 55, 36
1, 434555, Control_c, 0, 64, 65
1, 434570, Control_c, 0, 64, 61
1, 434584, Control_c, 0, 64, 55
1, 434599, Control_c, 0, 64, 47
1, 434601, Note_off_c, 0, 39, 40
1, 434614, Control_c, 0, 64, 41
1, 434629, Control_c, 0, 64, 39
1, 434644, Control_c, 0, 64, 38
1, 434703, Control_c, 0, 64, 39
1, 434718, Control_c, 0, 64, 40
1, 434732, Control_c, 0, 64, 41
1, 434747, Control_c, 0, 64, 44
1, 434762, Control_c, 0, 64, 47
1, 434776, Note_on_c, 0, 58, 35
1, 434777, Control_c, 0, 64, 51
1, 434792, Control_c, 0, 64, 56
1, 434807, Control_c, 0, 64, 60
1, 434822, Control_c, 0, 64, 62
1, 434836, Control_c, 0, 64, 64
1, 434851, Control_c, 0, 64, 65
1, 434856, Note_off_c, 0, 58, 59
1, 434866, Control_c, 0, 64, 66
1, 434888, Control_c, 0, 64, 67
1, 434903, Control_c, 0, 64, 69
1, 434918, Control_c, 0, 64, 70
1, 434933, Control_c, 0, 64, 70
1, 434937, Note_off_c, 0, 55, 39
1, 434995, Note_on_c, 0, 58, 41
1, 435051, Control_c, 0, 64, 71
1, 435065, Note_off_c, 0, 58, 57
1, 435081, Control_c, 0, 64, 71
1, 435111, Control_c, 0, 64, 72
1, 435216, Note_on_c, 0, 55, 46
1, 435230, Control_c, 0, 64, 71
1, 435245, Control_c, 0, 64, 70
1, 435260, Control_c, 0, 64, 70
1, 435275, Control_c, 0, 64, 69
1, 435319, Control_c, 0, 64, 70
1, 435334, Control_c, 0, 64, 70
1, 435349, Control_c, 0, 64, 71
1, 435363, Control_c, 0, 64, 71
1, 435378, Control_c, 0, 64, 72
1, 435435, Note_on_c, 0, 58, 43
1, 435437, Control_c, 0, 64, 72
1, 435467, Control_c, 0, 64, 73
1, 435481, Control_c, 0, 64, 73
1, 435496, Control_c, 0, 64, 74
1, 435502, Note_off_c, 0, 65, 37
1, 435511, Control_c, 0, 64, 75
1, 435522, Note_off_c, 0, 58, 61
1, 435526, Control_c, 0, 64, 77
1, 435541, Control_c, 0, 64, 78
1, 435543, Note_off_c, 0, 55, 37
1, 435555, Control_c, 0, 64, 80
1, 435570, Control_c, 0, 64, 81
1, 435585, Control_c, 0, 64, 82
1, 435600, Control_c, 0, 64, 84
1, 435615, Control_c, 0, 64, 85
1, 435637, Control_c, 0, 64, 85
1, 435652, Control_c, 0, 64, 86
1, 435656, Note_on_c, 0, 58, 48
1, 435667, Control_c, 0, 64, 86
1, 435696, Control_c, 0, 64, 87
1, 435737, Note_off_c, 0, 58, 60
1, 435889, Control_c, 0, 64, 86
1, 435897, Note_on_c, 0, 58, 63
1, 435904, Control_c, 0, 64, 83
1, 435919, Control_c, 0, 64, 77
1, 435932, Note_on_c, 0, 55, 38
1, 435933, Control_c, 0, 64, 71
1, 435941, Note_on_c, 0, 49, 41
1, 435948, Control_c, 0, 64, 65
1, 435963, Control_c, 0, 64, 58
1, 435978, Control_c, 0, 64, 46
1, 435993, Control_c, 0, 64, 38
1, 436023, Control_c, 0, 64, 39
1, 436038, Control_c, 0, 64, 40
1, 436053, Control_c, 0, 64, 43
1, 436068, Control_c, 0, 64, 47
1, 436083, Control_c, 0, 64, 51
1, 436097, Control_c, 0, 64, 53
1, 436112, Control_c, 0, 64, 55
1, 436127, Control_c, 0, 64, 58
1, 436139, Note_on_c, 0, 51, 44
1, 436140, Note_off_c, 0, 37, 41
1, 436142, Control_c, 0, 64, 60
1, 436157, Control_c, 0, 64, 62
1, 436172, Control_c, 0, 64, 63
1, 436186, Control_c, 0, 64, 64
1, 436201, Control_c, 0, 64, 65
1, 436208, Note_off_c, 0, 51, 54
1, 436216, Control_c, 0, 64, 66
1, 436230, Control_c, 0, 64, 67
1, 436245, Control_c, 0, 64, 68
1, 436260, Control_c, 0, 64, 68
1, 436275, Control_c, 0, 64, 69
1, 436304, Control_c, 0, 64, 70
1, 436319, Note_off_c, 0, 55, 33
1, 436319, Control_c, 0, 64, 70
1, 436348, Note_on_c, 0, 51, 41
1, 436349, Control_c, 0, 64, 71
1, 436384, Control_c, 0, 64, 71
1, 436399, Control_c, 0, 64, 72
1, 436414, Control_c, 0, 64, 72
1, 436428, Control_c, 0, 64, 73
1, 436458, Control_c, 0, 64, 73
1, 436488, Control_c, 0, 64, 74
1, 436515, Note_off_c, 0, 51, 39
1, 436593, Note_on_c, 0, 55, 45
1, 436819, Note_on_c, 0, 51, 42
1, 436874, Note_off_c, 0, 51, 57
1, 436939, Note_off_c, 0, 55, 37
1, 437004, Note_off_c, 0, 58, 37
1, 437034, Note_on_c, 0, 60, 57
1, 437071, Note_on_c, 0, 51, 42
1, 437214, Note_off_c, 0, 60, 58
1, 437246, Note_on_c, 0, 61, 60
1, 437282, Control_c, 0, 64, 73
1, 437341, Control_c, 0, 64, 73
1, 437385, Control_c, 0, 64, 72
1, 437400, Control_c, 0, 64, 72
1, 437415, Control_c, 0, 64, 71
1, 437430, Control_c, 0, 64, 70
1, 437445, Control_c, 0, 64, 69
1, 437460, Control_c, 0, 64, 67
1, 437469, Note_on_c, 0, 63, 70
1, 437475, Control_c, 0, 64, 65
1, 437489, Control_c, 0, 64, 61
1, 437493, Note_on_c, 0, 48, 39
1, 437504, Control_c, 0, 64, 55
1, 437513, Note_off_c, 0, 61, 59
1, 437519, Note_on_c, 0, 56, 35
1, 437519, Control_c, 0, 64, 46
1, 437526, Note_off_c, 0, 51, 51
1, 437534, Control_c, 0, 64, 41
1, 437549, Control_c, 0, 64, 39
1, 437564, Control_c, 0, 64, 38
1, 437578, Control_c, 0, 64, 38
1, 437593, Control_c, 0, 64, 37
1, 437609, Note_off_c, 0, 49, 34
1, 437624, Control_c, 0, 64, 38
1, 437653, Control_c, 0, 64, 39
1, 437668, Control_c, 0, 64, 41
1, 437683, Control_c, 0, 64, 44
1, 437698, Control_c, 0, 64, 49
1, 437713, Control_c, 0, 64, 53
1, 437719, Note_on_c, 0, 51, 36
1, 437728, Control_c, 0, 64, 56
1, 437743, Control_c, 0, 64, 58
1, 437757, Control_c, 0, 64, 60
1, 437772, Control_c, 0, 64, 61
1, 437776, Note_off_c, 0, 51, 58
1, 437787, Control_c, 0, 64, 62
1, 437801, Control_c, 0, 64, 62
1, 437805, Note_off_c, 0, 56, 54
1, 437816, Control_c, 0, 64, 63
1, 437831, Control_c, 0, 64, 63
1, 437846, Control_c, 0, 64, 64
1, 437861, Control_c, 0, 64, 64
1, 437898, Control_c, 0, 64, 65
1, 437913, Control_c, 0, 64, 66
1, 437914, Note_on_c, 0, 51, 44
1, 437928, Control_c, 0, 64, 67
1, 437943, Control_c, 0, 64, 67
1, 437957, Control_c, 0, 64, 68
1, 437972, Control_c, 0, 64, 69
1, 437987, Control_c, 0, 64, 70
1, 438001, Control_c, 0, 64, 71
1, 438016, Control_c, 0, 64, 71
1, 438031, Control_c, 0, 64, 72
1, 438046, Control_c, 0, 64, 73
1, 438061, Control_c, 0, 64, 74
1, 438075, Control_c, 0, 64, 75
1, 438077, Note_off_c, 0, 51, 20
1, 438090, Control_c, 0, 64, 75
1, 438105, Control_c, 0, 64, 76
1, 438120, Control_c, 0, 64, 77
1, 438134, Control_c, 0, 64, 78
1, 438136, Note_on_c, 0, 56, 52
1, 438149, Control_c, 0, 64, 80
1, 438164, Control_c, 0, 64, 81
1, 438179, Control_c, 0, 64, 82
1, 438194, Control_c, 0, 64, 83
1, 438208, Control_c, 0, 64, 84
1, 438223, Control_c, 0, 64, 85
1, 438238, Control_c, 0, 64, 86
1, 438253, Control_c, 0, 64, 87
1, 438268, Control_c, 0, 64, 87
1, 438312, Control_c, 0, 64, 88
1, 438354, Note_off_c, 0, 63, 35
1, 438362, Note_on_c, 0, 51, 47
1, 438425, Note_off_c, 0, 51, 38
1, 438578, Note_on_c, 0, 51, 42
1, 438646, Note_off_c, 0, 56, 51
1, 438676, Note_off_c, 0, 51, 51
1, 438765, Control_c, 0, 64, 87
1, 438780, Control_c, 0, 64, 86
1, 438795, Control_c, 0, 64, 84
1, 438810, Control_c, 0, 64, 81
1, 438811, Note_on_c, 0, 57, 59
1, 438824, Control_c, 0, 64, 76
1, 438839, Control_c, 0, 64, 71
1, 438842, Note_on_c, 0, 41, 47
1, 438844, Note_on_c, 0, 51, 29
1, 438854, Control_c, 0, 64, 64
1, 438869, Control_c, 0, 64, 57
1, 438884, Control_c, 0, 64, 44
1, 438898, Control_c, 0, 64, 27
1, 438913, Control_c, 0, 64, 18
1, 438928, Control_c, 0, 64, 19
1, 438929, Note_off_c, 0, 48, 35
1, 438943, Control_c, 0, 64, 21
1, 438972, Control_c, 0, 64, 22
1, 438987, Control_c, 0, 64, 23
1, 439002, Control_c, 0, 64, 23
1, 439017, Control_c, 0, 64, 25
1, 439031, Control_c, 0, 64, 26
1, 439046, Control_c, 0, 64, 28
1, 439053, Note_on_c, 0, 48, 47
1, 439061, Control_c, 0, 64, 31
1, 439076, Control_c, 0, 64, 34
1, 439091, Control_c, 0, 64, 39
1, 439105, Control_c, 0, 64, 43
1, 439111, Note_off_c, 0, 48, 59
1, 439120, Control_c, 0, 64, 47
1, 439121, Note_off_c, 0, 51, 41
1, 439135, Control_c, 0, 64, 51
1, 439150, Control_c, 0, 64, 55
1, 439165, Control_c, 0, 64, 58
1, 439180, Control_c, 0, 64, 60
1, 439195, Control_c, 0, 64, 61
1, 439210, Control_c, 0, 64, 62
1, 439225, Control_c, 0, 64, 63
1, 439251, Note_on_c, 0, 48, 43
1, 439254, Control_c, 0, 64, 63
1, 439350, Note_off_c, 0, 48, 49
1, 439410, Control_c, 0, 64, 63
1, 439454, Control_c, 0, 64, 62
1, 439469, Control_c, 0, 64, 62
1, 439484, Control_c, 0, 64, 61
1, 439498, Note_on_c, 0, 51, 43
1, 439558, Control_c, 0, 64, 62
1, 439573, Control_c, 0, 64, 62
1, 439588, Control_c, 0, 64, 63
1, 439603, Control_c, 0, 64, 63
1, 439618, Control_c, 0, 64, 64
1, 439633, Control_c, 0, 64, 64
1, 439648, Control_c, 0, 64, 65
1, 439662, Control_c, 0, 64, 66
1, 439677, Control_c, 0, 64, 68
1, 439692, Control_c, 0, 64, 69
1, 439707, Control_c, 0, 64, 71
1, 439716, Note_on_c, 0, 48, 43
1, 439721, Control_c, 0, 64, 72
1, 439736, Control_c, 0, 64, 74
1, 439751, Control_c, 0, 64, 75
1, 439780, Control_c, 0, 64, 75
1, 439797, Note_off_c, 0, 48, 58
1, 439866, Note_off_c, 0, 51, 35
1, 439942, Note_on_c, 0, 48, 47
1, 440077, Control_c, 0, 64, 75
1, 440130, Control_c, 0, 64, 74
1, 440141, Note_off_c, 0, 48, 36
1, 440145, Control_c, 0, 64, 74
1, 440159, Control_c, 0, 64, 73
1, 440174, Note_on_c, 0, 61, 60
1, 440174, Control_c, 0, 64, 72
1, 440186, Note_on_c, 0, 34, 39
1, 440189, Control_c, 0, 64, 70
1, 440198, Note_on_c, 0, 53, 37
1, 440203, Control_c, 0, 64, 67
1, 440218, Control_c, 0, 64, 64
1, 440233, Control_c, 0, 64, 59
1, 440248, Control_c, 0, 64, 52
1, 440263, Control_c, 0, 64, 43
1, 440277, Control_c, 0, 64, 36
1, 440292, Control_c, 0, 64, 36
1, 440321, Note_off_c, 0, 57, 28
1, 440322, Control_c, 0, 64, 36
1, 440339, Note_off_c, 0, 41, 36
1, 440381, Control_c, 0, 64, 37
1, 440396, Control_c, 0, 64, 38
1, 440413, Note_on_c, 0, 49, 33
1, 440455, Control_c, 0, 64, 38
1, 440470, Control_c, 0, 64, 39
1, 440470, Note_off_c, 0, 49, 56
1, 440485, Control_c, 0, 64, 39
1, 440500, Control_c, 0, 64, 40
1, 440515, Control_c, 0, 64, 41
1, 440529, Control_c, 0, 64, 43
1, 440544, Control_c, 0, 64, 45
1, 440559, Control_c, 0, 64, 48
1, 440574, Control_c, 0, 64, 51
1, 440589, Control_c, 0, 64, 54
1, 440603, Control_c, 0, 64, 56
1, 440607, Note_on_c, 0, 49, 42
1, 440618, Control_c, 0, 64, 58
1, 440633, Control_c, 0, 64, 59
1, 440644, Note_off_c, 0, 53, 42
1, 440648, Control_c, 0, 64, 59
1, 440663, Control_c, 0, 64, 60
1, 440677, Control_c, 0, 64, 60
1, 440766, Note_off_c, 0, 49, 36
1, 440766, Control_c, 0, 64, 60
1, 440781, Control_c, 0, 64, 59
1, 440797, Control_c, 0, 64, 59
1, 440812, Control_c, 0, 64, 58
1, 440840, Note_on_c, 0, 53, 41
1, 440908, Control_c, 0, 64, 59
1, 440923, Control_c, 0, 64, 60
1, 440938, Control_c, 0, 64, 60
1, 440952, Control_c, 0, 64, 61
1, 440967, Control_c, 0, 64, 62
1, 440982, Control_c, 0, 64, 63
1, 440997, Control_c, 0, 64, 63
1, 441012, Control_c, 0, 64, 64
1, 441026, Control_c, 0, 64, 65
1, 441041, Control_c, 0, 64, 66
1, 441056, Control_c, 0, 64, 67
1, 441065, Note_on_c, 0, 49, 45
1, 441071, Control_c, 0, 64, 68
1, 441086, Control_c, 0, 64, 69
1, 441100, Control_c, 0, 64, 71
1, 441115, Control_c, 0, 64, 72
1, 441130, Note_off_c, 0, 49, 55
1, 441130, Control_c, 0, 64, 73
1, 441144, Control_c, 0, 64, 74
1, 441159, Control_c, 0, 64, 75
1, 441174, Control_c, 0, 64, 76
1, 441189, Control_c, 0, 64, 77
1, 441219, Control_c, 0, 64, 77
1, 441236, Note_off_c, 0, 61, 28
1, 441280, Note_off_c, 0, 53, 22
1, 441288, Note_on_c, 0, 49, 40
1, 441515, Control_c, 0, 64, 77
1, 441530, Control_c, 0, 64, 76
1, 441544, Control_c, 0, 64, 75
1, 441557, Note_off_c, 0, 49, 23
1, 441559, Control_c, 0, 64, 73
1, 441565, Note_on_c, 0, 61, 64
1, 441574, Control_c, 0, 64, 69
1, 441580, Note_on_c, 0, 55, 42
1, 441590, Control_c, 0, 64, 64
1, 441605, Control_c, 0, 64, 58
1, 441622, Note_on_c, 0, 39, 35
1, 441627, Control_c, 0, 64, 48
1, 441642, Control_c, 0, 64, 43
1, 441657, Control_c, 0, 64, 45
1, 441672, Control_c, 0, 64, 48
1, 441687, Control_c, 0, 64, 51
1, 441702, Control_c, 0, 64, 56
1, 441716, Control_c, 0, 64, 60
1, 441731, Control_c, 0, 64, 63
1, 441746, Control_c, 0, 64, 63
1, 441761, Control_c, 0, 64, 64
1, 441775, Control_c, 0, 64, 65
1, 441790, Control_c, 0, 64, 67
1, 441805, Control_c, 0, 64, 68
1, 441809, Note_off_c, 0, 34, 39
1, 441820, Control_c, 0, 64, 70
1, 441845, Note_off_c, 0, 61, 51
1, 441864, Control_c, 0, 64, 68
1, 441879, Control_c, 0, 64, 66
1, 441894, Control_c, 0, 64, 63
1, 441905, Note_on_c, 0, 60, 57
1, 441909, Control_c, 0, 64, 59
1, 441923, Control_c, 0, 64, 58
1, 441937, Note_on_c, 0, 49, 30
1, 441938, Control_c, 0, 64, 59
1, 441953, Control_c, 0, 64, 61
1, 441967, Control_c, 0, 64, 63
1, 441982, Control_c, 0, 64, 64
1, 441997, Control_c, 0, 64, 65
1, 442012, Note_off_c, 0, 49, 53
1, 442012, Control_c, 0, 64, 67
1, 442027, Control_c, 0, 64, 69
1, 442041, Control_c, 0, 64, 71
1, 442056, Control_c, 0, 64, 73
1, 442059, Note_off_c, 0, 60, 57
1, 442086, Control_c, 0, 64, 72
1, 442101, Control_c, 0, 64, 70
1, 442116, Control_c, 0, 64, 69
1, 442126, Note_on_c, 0, 58, 65
1, 442141, Note_on_c, 0, 49, 51
1, 442175, Control_c, 0, 64, 70
1, 442190, Control_c, 0, 64, 72
1, 442205, Control_c, 0, 64, 74
1, 442220, Control_c, 0, 64, 75
1, 442227, Note_off_c, 0, 55, 6
1, 442229, Note_off_c, 0, 49, 52
1, 442235, Control_c, 0, 64, 76
1, 442235, Note_off_c, 0, 58, 60
1, 442249, Control_c, 0, 64, 76
1, 442323, Control_c, 0, 64, 76
1, 442338, Control_c, 0, 64, 74
1, 442353, Control_c, 0, 64, 70
1, 442354, Note_on_c, 0, 58, 65
1, 442375, Control_c, 0, 64, 64
1, 442381, Note_on_c, 0, 49, 43
1, 442390, Control_c, 0, 64, 53
1, 442405, Control_c, 0, 64, 45
1, 442420, Control_c, 0, 64, 47
1, 442435, Control_c, 0, 64, 51
1, 442450, Control_c, 0, 64, 56
1, 442465, Control_c, 0, 64, 60
1, 442480, Control_c, 0, 64, 63
1, 442494, Control_c, 0, 64, 65
1, 442496, Note_off_c, 0, 49, 59
1, 442509, Control_c, 0, 64, 67
1, 442524, Control_c, 0, 64, 69
1, 442539, Control_c, 0, 64, 71
1, 442569, Control_c, 0, 64, 70
1, 442584, Control_c, 0, 64, 67
1, 442585, Note_on_c, 0, 56, 62
1, 442598, Control_c, 0, 64, 63
1, 442606, Note_on_c, 0, 49, 40
1, 442613, Control_c, 0, 64, 59
1, 442628, Control_c, 0, 64, 57
1, 442638, Note_off_c, 0, 58, 25
1, 442643, Control_c, 0, 64, 58
1, 442658, Control_c, 0, 64, 60
1, 442668, Note_off_c, 0, 49, 59
1, 442672, Control_c, 0, 64, 63
1, 442687, Control_c, 0, 64, 65
1, 442702, Control_c, 0, 64, 67
1, 442716, Control_c, 0, 64, 69
1, 442731, Control_c, 0, 64, 70
1, 442745, Note_off_c, 0, 56, 60
1, 442746, Control_c, 0, 64, 71
1, 442776, Control_c, 0, 64, 71
1, 442791, Note_on_c, 0, 55, 63
1, 442808, Note_on_c, 0, 49, 38
1, 442885, Note_off_c, 0, 49, 38
1, 442920, Note_off_c, 0, 55, 60
1, 442983, Control_c, 0, 64, 70
1, 442998, Control_c, 0, 64, 69
1, 443003, Note_on_c, 0, 32, 40
1, 443013, Control_c, 0, 64, 68
1, 443028, Control_c, 0, 64, 65
1, 443043, Control_c, 0, 64, 62
1, 443055, Note_on_c, 0, 58, 63
1, 443058, Control_c, 0, 64, 57
1, 443072, Control_c, 0, 64, 48
1, 443074, Note_on_c, 0, 49, 40
1, 443074, Note_on_c, 0, 55, 45
1, 443087, Control_c, 0, 64, 33
1, 443102, Control_c, 0, 64, 20
1, 443119, Note_off_c, 0, 39, 31
1, 443123, Control_c, 0, 64, 22
1, 443138, Control_c, 0, 64, 25
1, 443153, Control_c, 0, 64, 27
1, 443168, Control_c, 0, 64, 32
1, 443183, Control_c, 0, 64, 39
1, 443199, Control_c, 0, 64, 47
1, 443214, Control_c, 0, 64, 55
1, 443228, Control_c, 0, 64, 59
1, 443243, Control_c, 0, 64, 61
1, 443258, Control_c, 0, 64, 62
1, 443273, Control_c, 0, 64, 62
1, 443287, Note_on_c, 0, 51, 35
1, 443288, Control_c, 0, 64, 63
1, 443302, Control_c, 0, 64, 64
1, 443317, Control_c, 0, 64, 66
1, 443332, Control_c, 0, 64, 67
1, 443347, Control_c, 0, 64, 68
1, 443351, Note_off_c, 0, 51, 49
1, 443362, Control_c, 0, 64, 69
1, 443377, Control_c, 0, 64, 70
1, 443380, Note_off_c, 0, 49, 39
1, 443392, Control_c, 0, 64, 71
1, 443407, Control_c, 0, 64, 71
1, 443436, Control_c, 0, 64, 72
1, 443451, Control_c, 0, 64, 72
1, 443487, Note_on_c, 0, 51, 42
1, 443643, Control_c, 0, 64, 72
1, 443673, Control_c, 0, 64, 71
1, 443687, Control_c, 0, 64, 70
1, 443702, Control_c, 0, 64, 68
1, 443705, Note_on_c, 0, 49, 47
1, 443714, Note_on_c, 0, 44, 40
1, 443717, Control_c, 0, 64, 65
1, 443732, Note_off_c, 0, 51, 40
1, 443732, Control_c, 0, 64, 57
1, 443743, Note_off_c, 0, 32, 40
1, 443746, Control_c, 0, 64, 39
1, 443761, Control_c, 0, 64, 14
1, 443776, Control_c, 0, 64, 12
1, 443791, Control_c, 0, 64, 21
1, 443806, Control_c, 0, 64, 29
1, 443821, Control_c, 0, 64, 40
1, 443836, Control_c, 0, 64, 51
1, 443851, Control_c, 0, 64, 59
1, 443873, Control_c, 0, 64, 63
1, 443888, Control_c, 0, 64, 64
1, 443902, Control_c, 0, 64, 64
1, 443917, Control_c, 0, 64, 65
1, 443932, Control_c, 0, 64, 66
1, 443946, Control_c, 0, 64, 66
1, 443948, Note_on_c, 0, 51, 36
1, 443976, Control_c, 0, 64, 67
1, 443980, Note_off_c, 0, 49, 36
1, 444007, Note_off_c, 0, 51, 56
1, 444123, Note_off_c, 0, 55, 31
1, 444162, Note_on_c, 0, 51, 36
1, 444229, Control_c, 0, 64, 66
1, 444294, Note_off_c, 0, 51, 56
1, 444304, Control_c, 0, 64, 66
1, 444348, Control_c, 0, 64, 65
1, 444362, Control_c, 0, 64, 65
1, 444377, Control_c, 0, 64, 64
1, 444390, Note_off_c, 0, 44, 53
1, 444392, Control_c, 0, 64, 63
1, 444407, Control_c, 0, 64, 61
1, 444418, Note_on_c, 0, 56, 42
1, 444422, Control_c, 0, 64, 56
1, 444429, Note_on_c, 0, 48, 40
1, 444430, Note_on_c, 0, 32, 42
1, 444436, Control_c, 0, 64, 45
1, 444451, Control_c, 0, 64, 12
1, 444466, Control_c, 0, 64, 0
1, 444536, Note_off_c, 0, 56, 57
1, 444554, Note_off_c, 0, 58, 41
1, 444594, Note_off_c, 0, 48, 50
1, 444658, Note_on_c, 0, 51, 47
1, 444752, Note_off_c, 0, 51, 56
1, 444885, Note_on_c, 0, 56, 47
1, 444966, Note_off_c, 0, 56, 60
1, 445101, Note_on_c, 0, 60, 52
1, 445124, Note_off_c, 0, 32, 42
1, 445198, Note_off_c, 0, 60, 55
1, 445323, Note_on_c, 0, 63, 53
1, 445435, Note_off_c, 0, 63, 60
1, 445571, Note_on_c, 0, 68, 56
1, 445687, Note_off_c, 0, 68, 58
1, 445873, Note_on_c, 0, 72, 69
1, 445893, Note_on_c, 0, 44, 29
1, 445896, Note_on_c, 0, 56, 35
1, 445904, Note_on_c, 0, 60, 44
1, 446068, Control_c, 0, 64, 31
1, 446083, Control_c, 0, 64, 52
1, 446097, Control_c, 0, 64, 61
1, 446119, Control_c, 0, 64, 64
1, 446134, Control_c, 0, 64, 65
1, 446149, Control_c, 0, 64, 68
1, 446164, Control_c, 0, 64, 71
1, 446179, Control_c, 0, 64, 75
1, 446194, Control_c, 0, 64, 79
1, 446209, Control_c, 0, 64, 84
1, 446220, Note_on_c, 0, 63, 34
1, 446223, Control_c, 0, 64, 88
1, 446238, Control_c, 0, 64, 92
1, 446244, Note_on_c, 0, 51, 30
1, 446253, Control_c, 0, 64, 97
1, 446267, Control_c, 0, 64, 104
1, 446282, Control_c, 0, 64, 114
1, 446297, Control_c, 0, 64, 127
1, 446335, Note_off_c, 0, 60, 31
1, 446339, Note_off_c, 0, 56, 39
1, 446340, Note_off_c, 0, 63, 41
1, 446370, Note_off_c, 0, 51, 31
1, 446462, Note_on_c, 0, 51, 37
1, 446463, Note_on_c, 0, 63, 42
1, 446646, Note_off_c, 0, 51, 17
1, 446692, Note_off_c, 0, 63, 35
1, 446694, Note_on_c, 0, 56, 46
1, 446703, Note_on_c, 0, 60, 50
1, 446928, Note_on_c, 0, 63, 41
1, 446945, Note_on_c, 0, 51, 34
1, 446960, Note_off_c, 0, 60, 50
1, 446987, Control_c, 0, 67, 121
1, 446992, Note_off_c, 0, 56, 38
1, 447002, Control_c, 0, 67, 107
1, 447005, Note_off_c, 0, 51, 42
1, 447016, Control_c, 0, 67, 91
1, 447025, Note_off_c, 0, 63, 37
1, 447031, Control_c, 0, 67, 79
1, 447046, Control_c, 0, 67, 70
1, 447061, Control_c, 0, 67, 63
1, 447076, Control_c, 0, 67, 57
1, 447090, Control_c, 0, 67, 53
1, 447105, Control_c, 0, 67, 49
1, 447120, Control_c, 0, 67, 45
1, 447135, Control_c, 0, 67, 42
1, 447150, Control_c, 0, 67, 39
1, 447160, Note_on_c, 0, 51, 36
1, 447164, Control_c, 0, 67, 37
1, 447169, Note_on_c, 0, 63, 37
1, 447179, Control_c, 0, 67, 34
1, 447195, Control_c, 0, 67, 31
1, 447210, Control_c, 0, 67, 28
1, 447225, Control_c, 0, 67, 26
1, 447240, Control_c, 0, 67, 24
1, 447255, Control_c, 0, 67, 23
1, 447259, Note_off_c, 0, 44, 41
1, 447264, Note_off_c, 0, 51, 34
1, 447269, Control_c, 0, 67, 22
1, 447284, Control_c, 0, 67, 21
1, 447299, Control_c, 0, 67, 20
1, 447313, Control_c, 0, 67, 18
1, 447328, Control_c, 0, 67, 17
1, 447343, Control_c, 0, 67, 16
1, 447356, Note_off_c, 0, 63, 26
1, 447358, Control_c, 0, 67, 15
1, 447373, Control_c, 0, 67, 14
1, 447387, Control_c, 0, 67, 14
1, 447391, Note_on_c, 0, 70, 67
1, 447402, Control_c, 0, 64, 110
1, 447409, Note_on_c, 0, 58, 44
1, 447417, Control_c, 0, 64, 95
1, 447417, Control_c, 0, 67, 13
1, 447419, Note_on_c, 0, 49, 43
1, 447422, Note_on_c, 0, 55, 41
1, 447432, Control_c, 0, 64, 83
1, 447447, Control_c, 0, 64, 72
1, 447447, Control_c, 0, 67, 13
1, 447461, Control_c, 0, 64, 62
1, 447476, Control_c, 0, 64, 51
1, 447491, Control_c, 0, 64, 34
1, 447505, Control_c, 0, 64, 26
1, 447520, Control_c, 0, 64, 26
1, 447520, Control_c, 0, 67, 12
1, 447535, Control_c, 0, 64, 28
1, 447550, Control_c, 0, 64, 33
1, 447550, Control_c, 0, 67, 12
1, 447565, Control_c, 0, 64, 38
1, 447580, Control_c, 0, 64, 45
1, 447595, Control_c, 0, 64, 53
1, 447595, Control_c, 0, 67, 11
1, 447618, Control_c, 0, 64, 59
1, 447618, Control_c, 0, 67, 8
1, 447633, Control_c, 0, 64, 62
1, 447633, Control_c, 0, 67, 0
1, 447647, Note_on_c, 0, 63, 43
1, 447648, Control_c, 0, 64, 63
1, 447658, Note_on_c, 0, 51, 33
1, 447663, Control_c, 0, 64, 65
1, 447677, Control_c, 0, 64, 66
1, 447692, Control_c, 0, 64, 69
1, 447707, Control_c, 0, 64, 71
1, 447713, Note_off_c, 0, 51, 42
1, 447721, Control_c, 0, 64, 74
1, 447726, Note_off_c, 0, 63, 56
1, 447736, Control_c, 0, 64, 76
1, 447751, Control_c, 0, 64, 78
1, 447766, Control_c, 0, 64, 79
1, 447781, Control_c, 0, 64, 80
1, 447795, Control_c, 0, 64, 81
1, 447808, Note_off_c, 0, 55, 35
1, 447810, Control_c, 0, 64, 82
1, 447825, Control_c, 0, 64, 83
1, 447839, Control_c, 0, 64, 84
1, 447853, Note_on_c, 0, 63, 37
1, 447854, Control_c, 0, 64, 84
1, 447857, Note_on_c, 0, 51, 24
1, 447859, Note_off_c, 0, 58, 21
1, 447869, Control_c, 0, 64, 85
1, 447884, Control_c, 0, 64, 86
1, 447914, Control_c, 0, 64, 86
1, 447929, Control_c, 0, 64, 87
1, 447944, Control_c, 0, 64, 87
1, 447973, Control_c, 0, 64, 88
1, 447989, Control_c, 0, 64, 88
1, 448004, Control_c, 0, 64, 89
1, 448016, Note_off_c, 0, 63, 31
1, 448018, Control_c, 0, 64, 89
1, 448033, Control_c, 0, 64, 91
1, 448048, Control_c, 0, 64, 91
1, 448063, Control_c, 0, 64, 92
1, 448070, Note_off_c, 0, 51, 38
1, 448073, Note_on_c, 0, 58, 44
1, 448078, Control_c, 0, 64, 93
1, 448085, Note_on_c, 0, 55, 42
1, 448093, Control_c, 0, 64, 94
1, 448107, Control_c, 0, 64, 95
1, 448122, Control_c, 0, 64, 97
1, 448137, Control_c, 0, 64, 98
1, 448152, Control_c, 0, 64, 100
1, 448167, Control_c, 0, 64, 101
1, 448182, Control_c, 0, 64, 103
1, 448197, Control_c, 0, 64, 105
1, 448211, Control_c, 0, 64, 106
1, 448217, Note_off_c, 0, 72, 32
1, 448226, Control_c, 0, 64, 108
1, 448241, Control_c, 0, 64, 109
1, 448256, Control_c, 0, 64, 110
1, 448271, Control_c, 0, 64, 111
1, 448300, Control_c, 0, 64, 112
1, 448315, Note_on_c, 0, 51, 35
1, 448316, Note_on_c, 0, 63, 41
1, 448329, Control_c, 0, 64, 113
1, 448332, Note_off_c, 0, 58, 37
1, 448343, Note_off_c, 0, 55, 34
1, 448386, Note_off_c, 0, 51, 49
1, 448419, Note_off_c, 0, 63, 36
1, 448531, Note_on_c, 0, 51, 37
1, 448537, Note_on_c, 0, 63, 45
1, 448649, Note_off_c, 0, 63, 37
1, 448672, Note_off_c, 0, 51, 39
1, 448672, Note_off_c, 0, 70, 38
1, 448752, Note_off_c, 0, 49, 30
1, 448791, Note_on_c, 0, 75, 72
1, 448794, Note_on_c, 0, 48, 51
1, 448796, Control_c, 0, 64, 106
1, 448811, Note_on_c, 0, 56, 48
1, 448811, Control_c, 0, 64, 98
1, 448817, Note_on_c, 0, 63, 43
1, 448826, Control_c, 0, 64, 88
1, 448841, Control_c, 0, 64, 77
1, 448856, Control_c, 0, 64, 67
1, 448865, Note_off_c, 0, 63, 0
1, 448865, Note_on_c, 0, 63, 11
1, 448871, Control_c, 0, 64, 58
1, 448885, Control_c, 0, 64, 39
1, 448900, Control_c, 0, 64, 0
1, 448974, Control_c, 0, 64, 19
1, 448989, Control_c, 0, 64, 38
1, 449004, Control_c, 0, 64, 48
1, 449019, Control_c, 0, 64, 55
1, 449033, Control_c, 0, 64, 59
1, 449047, Note_on_c, 0, 68, 23
1, 449048, Control_c, 0, 64, 62
1, 449063, Control_c, 0, 64, 64
1, 449077, Control_c, 0, 64, 67
1, 449091, Poly_aftertouch_c, 0, 51, 127
1, 449091, Control_c, 0, 64, 70
1, 449094, Note_off_c, 0, 68, 48
1, 449114, Control_c, 0, 64, 73
1, 449129, Control_c, 0, 64, 77
1, 449139, Poly_aftertouch_c, 0, 51, 0
1, 449144, Control_c, 0, 64, 80
1, 449158, Control_c, 0, 64, 83
1, 449173, Control_c, 0, 64, 86
1, 449188, Control_c, 0, 64, 90
1, 449203, Control_c, 0, 64, 94
1, 449218, Control_c, 0, 64, 97
1, 449227, Note_off_c, 0, 63, 31
1, 449232, Control_c, 0, 64, 101
1, 449247, Control_c, 0, 64, 104
1, 449258, Note_on_c, 0, 51, 42
1, 449262, Control_c, 0, 64, 106
1, 449273, Note_on_c, 0, 68, 37
1, 449277, Control_c, 0, 64, 110
1, 449282, Note_off_c, 0, 56, 34
1, 449291, Control_c, 0, 64, 113
1, 449306, Control_c, 0, 64, 118
1, 449321, Control_c, 0, 64, 121
1, 449334, Note_off_c, 0, 51, 0
1, 449336, Control_c, 0, 64, 127
1, 449371, Poly_aftertouch_c, 0, 51, 127
1, 449470, Poly_aftertouch_c, 0, 51, 0
1, 449490, Note_on_c, 0, 56, 48
1, 449496, Note_on_c, 0, 63, 42
1, 449503, Note_off_c, 0, 68, 38
1, 449726, Note_on_c, 0, 51, 34
1, 449727, Note_on_c, 0, 68, 34
1, 449767, Note_off_c, 0, 68, 50
1, 449770, Note_off_c, 0, 63, 42
1, 449806, Note_off_c, 0, 51, 39
1, 449838, Note_off_c, 0, 56, 32
1, 449950, Note_on_c, 0, 68, 42
1, 449953, Note_on_c, 0, 51, 36
1, 450016, Note_off_c, 0, 48, 40
1, 450083, Note_off_c, 0, 51, 32
1, 450172, Note_on_c, 0, 43, 50
1, 450173, Note_on_c, 0, 55, 51
1, 450174, Control_c, 0, 64, 115
1, 450179, Note_on_c, 0, 63, 37
1, 450188, Control_c, 0, 64, 103
1, 450203, Control_c, 0, 64, 90
1, 450218, Control_c, 0, 64, 77
1, 450233, Control_c, 0, 64, 65
1, 450248, Control_c, 0, 64, 54
1, 450263, Control_c, 0, 64, 36
1, 450278, Control_c, 0, 64, 32
1, 450292, Control_c, 0, 64, 37
1, 450307, Control_c, 0, 64, 43
1, 450322, Control_c, 0, 64, 50
1, 450337, Control_c, 0, 64, 57
1, 450352, Control_c, 0, 64, 62
1, 450367, Control_c, 0, 64, 64
1, 450376, Note_on_c, 0, 51, 42
1, 450382, Control_c, 0, 64, 65
1, 450397, Control_c, 0, 64, 67
1, 450403, Note_on_c, 0, 70, 45
1, 450412, Control_c, 0, 64, 70
1, 450427, Control_c, 0, 64, 76
1, 450442, Control_c, 0, 64, 82
1, 450450, Note_off_c, 0, 51, 58
1, 450456, Control_c, 0, 64, 87
1, 450464, Note_off_c, 0, 63, 41
1, 450465, Note_off_c, 0, 70, 50
1, 450471, Control_c, 0, 64, 90
1, 450486, Control_c, 0, 64, 93
1, 450498, Note_off_c, 0, 68, 39
1, 450501, Control_c, 0, 64, 96
1, 450516, Control_c, 0, 64, 100
1, 450530, Control_c, 0, 64, 103
1, 450545, Control_c, 0, 64, 105
1, 450560, Control_c, 0, 64, 107
1, 450575, Control_c, 0, 64, 108
1, 450590, Note_on_c, 0, 51, 45
1, 450590, Control_c, 0, 64, 110
1, 450608, Note_on_c, 0, 70, 53
1, 450611, Control_c, 0, 64, 111
1, 450626, Control_c, 0, 64, 113
1, 450641, Control_c, 0, 64, 115
1, 450656, Control_c, 0, 64, 116
1, 450661, Note_off_c, 0, 70, 53
1, 450671, Control_c, 0, 64, 118
1, 450686, Control_c, 0, 64, 119
1, 450710, Note_off_c, 0, 55, 36
1, 450784, Note_off_c, 0, 51, 31
1, 450853, Note_on_c, 0, 73, 67
1, 450874, Note_on_c, 0, 55, 38
1, 450876, Note_on_c, 0, 63, 46
1, 451088, Note_on_c, 0, 70, 40
1, 451142, Note_off_c, 0, 70, 53
1, 451160, Note_off_c, 0, 63, 41
1, 451286, Note_on_c, 0, 70, 44
1, 451292, Note_on_c, 0, 51, 42
1, 451297, Note_off_c, 0, 43, 39
1, 451303, Note_off_c, 0, 55, 41
1, 451412, Note_off_c, 0, 51, 0
1, 451413, Note_off_c, 0, 70, 53
1, 451446, Poly_aftertouch_c, 0, 51, 0
1, 451467, Note_off_c, 0, 73, 57
1, 451538, Control_c, 0, 64, 110
1, 451542, Note_on_c, 0, 72, 72
1, 451553, Control_c, 0, 64, 98
1, 451558, Note_on_c, 0, 56, 55
1, 451566, Note_on_c, 0, 44, 50
1, 451568, Control_c, 0, 64, 83
1, 451574, Note_on_c, 0, 63, 49
1, 451577, Note_off_c, 0, 75, 21
1, 451583, Control_c, 0, 64, 71
1, 451598, Control_c, 0, 64, 63
1, 451613, Control_c, 0, 64, 46
1, 451628, Control_c, 0, 64, 0
1, 451672, Control_c, 0, 64, 21
1, 451686, Control_c, 0, 64, 34
1, 451701, Control_c, 0, 64, 48
1, 451716, Control_c, 0, 64, 57
1, 451731, Control_c, 0, 64, 62
1, 451746, Control_c, 0, 64, 64
1, 451752, Note_on_c, 0, 68, 52
1, 451760, Control_c, 0, 64, 67
1, 451766, Note_on_c, 0, 51, 42
1, 451775, Control_c, 0, 64, 70
1, 451790, Control_c, 0, 64, 74
1, 451805, Control_c, 0, 64, 81
1, 451820, Control_c, 0, 64, 87
1, 451833, Note_off_c, 0, 51, 49
1, 451834, Note_off_c, 0, 68, 58
1, 451834, Control_c, 0, 64, 94
1, 451849, Control_c, 0, 64, 100
1, 451864, Control_c, 0, 64, 105
1, 451878, Control_c, 0, 64, 112
1, 451893, Control_c, 0, 64, 127
1, 451908, Note_off_c, 0, 63, 34
1, 451970, Note_on_c, 0, 68, 52
1, 451986, Note_on_c, 0, 51, 39
1, 452061, Note_off_c, 0, 68, 57
1, 452091, Note_off_c, 0, 44, 36
1, 452102, Note_off_c, 0, 56, 36
1, 452107, Note_off_c, 0, 72, 55
1, 452159, Note_off_c, 0, 51, 36
1, 452207, Note_on_c, 0, 75, 77
1, 452227, Note_on_c, 0, 55, 56
1, 452228, Note_on_c, 0, 43, 56
1, 452238, Note_on_c, 0, 63, 51
1, 452243, Control_c, 0, 64, 104
1, 452257, Control_c, 0, 64, 83
1, 452272, Control_c, 0, 64, 67
1, 452287, Control_c, 0, 64, 53
1, 452302, Control_c, 0, 64, 0
1, 452346, Control_c, 0, 64, 12
1, 452361, Control_c, 0, 64, 34
1, 452376, Control_c, 0, 64, 50
1, 452391, Control_c, 0, 64, 61
1, 452406, Control_c, 0, 64, 65
1, 452421, Control_c, 0, 64, 69
1, 452435, Control_c, 0, 64, 74
1, 452440, Note_on_c, 0, 70, 53
1, 452445, Note_on_c, 0, 51, 51
1, 452450, Control_c, 0, 64, 80
1, 452465, Control_c, 0, 64, 88
1, 452476, Note_off_c, 0, 63, 37
1, 452480, Control_c, 0, 64, 99
1, 452495, Control_c, 0, 64, 121
1, 452495, Note_off_c, 0, 51, 55
1, 452509, Control_c, 0, 64, 127
1, 452519, Note_off_c, 0, 70, 55
1, 452655, Note_on_c, 0, 70, 61
1, 452661, Note_off_c, 0, 75, 60
1, 452668, Note_on_c, 0, 51, 44
1, 452732, Note_off_c, 0, 55, 36
1, 452740, Note_off_c, 0, 43, 32
1, 452754, Note_off_c, 0, 51, 55
1, 452792, Note_off_c, 0, 70, 53
1, 452889, Note_on_c, 0, 80, 81
1, 452907, Note_on_c, 0, 53, 54
1, 452913, Note_on_c, 0, 41, 52
1, 452915, Note_on_c, 0, 68, 59
1, 452918, Control_c, 0, 64, 104
1, 452932, Control_c, 0, 64, 81
1, 452947, Control_c, 0, 64, 66
1, 452962, Control_c, 0, 64, 52
1, 452977, Control_c, 0, 64, 0
1, 453036, Control_c, 0, 64, 10
1, 453050, Control_c, 0, 64, 38
1, 453065, Control_c, 0, 64, 53
1, 453080, Control_c, 0, 64, 61
1, 453095, Control_c, 0, 64, 64
1, 453110, Control_c, 0, 64, 66
1, 453124, Control_c, 0, 64, 69
1, 453133, Note_on_c, 0, 72, 51
1, 453139, Control_c, 0, 64, 73
1, 453142, Note_on_c, 0, 44, 44
1, 453154, Control_c, 0, 64, 81
1, 453169, Control_c, 0, 64, 91
1, 453184, Control_c, 0, 64, 100
1, 453199, Control_c, 0, 64, 107
1, 453214, Control_c, 0, 64, 114
1, 453219, Note_off_c, 0, 44, 52
1, 453229, Control_c, 0, 64, 127
1, 453241, Note_off_c, 0, 72, 52
1, 453245, Note_off_c, 0, 68, 37
1, 453358, Note_on_c, 0, 72, 49
1, 453360, Note_on_c, 0, 44, 43
1, 453396, Note_off_c, 0, 72, 52
1, 453422, Note_off_c, 0, 53, 41
1, 453430, Note_off_c, 0, 41, 33
1, 453469, Note_off_c, 0, 80, 60
1, 453482, Note_off_c, 0, 44, 36
1, 453611, Note_on_c, 0, 82, 78
1, 453637, Control_c, 0, 64, 101
1, 453640, Note_on_c, 0, 53, 43
1, 453640, Note_on_c, 0, 68, 56
1, 453642, Note_on_c, 0, 41, 40
1, 453652, Control_c, 0, 64, 84
1, 453667, Control_c, 0, 64, 70
1, 453681, Control_c, 0, 64, 58
1, 453696, Control_c, 0, 64, 37
1, 453711, Control_c, 0, 64, 26
1, 453715, Note_off_c, 0, 68, 0
1, 453715, Note_on_c, 0, 68, 7
1, 453726, Control_c, 0, 64, 33
1, 453741, Control_c, 0, 64, 40
1, 453755, Control_c, 0, 64, 49
1, 453770, Control_c, 0, 64, 59
1, 453785, Control_c, 0, 64, 63
1, 453800, Control_c, 0, 64, 64
1, 453815, Control_c, 0, 64, 66
1, 453829, Control_c, 0, 64, 68
1, 453844, Control_c, 0, 64, 71
1, 453859, Control_c, 0, 64, 74
1, 453861, Note_on_c, 0, 44, 32
1, 453873, Control_c, 0, 64, 78
1, 453885, Note_on_c, 0, 74, 35
1, 453888, Control_c, 0, 64, 81
1, 453903, Control_c, 0, 64, 83
1, 453918, Control_c, 0, 64, 86
1, 453933, Control_c, 0, 64, 89
1, 453947, Control_c, 0, 64, 93
1, 453952, Note_off_c, 0, 44, 55
1, 453962, Control_c, 0, 64, 98
1, 453968, Note_off_c, 0, 68, 43
1, 453977, Control_c, 0, 64, 102
1, 453978, Note_off_c, 0, 74, 39
1, 453992, Control_c, 0, 64, 105
1, 454007, Control_c, 0, 64, 109
1, 454022, Control_c, 0, 64, 114
1, 454033, Poly_aftertouch_c, 0, 80, 127
1, 454036, Control_c, 0, 64, 121
1, 454051, Control_c, 0, 64, 127
1, 454068, Note_off_c, 0, 41, 31
1, 454109, Note_on_c, 0, 44, 35
1, 454110, Note_on_c, 0, 74, 43
1, 454190, Note_off_c, 0, 53, 42
1, 454234, Note_off_c, 0, 74, 56
1, 454300, Note_off_c, 0, 44, 35
1, 454370, Control_c, 0, 64, 119
1, 454385, Control_c, 0, 64, 107
1, 454400, Control_c, 0, 64, 96
1, 454401, Note_on_c, 0, 75, 65
1, 454415, Control_c, 0, 64, 85
1, 454424, Note_on_c, 0, 67, 49
1, 454430, Note_on_c, 0, 39, 44
1, 454430, Control_c, 0, 64, 73
1, 454445, Control_c, 0, 64, 64
1, 454460, Control_c, 0, 64, 53
1, 454475, Control_c, 0, 64, 31
1, 454490, Control_c, 0, 64, 0
1, 454564, Control_c, 0, 64, 20
1, 454578, Control_c, 0, 64, 38
1, 454593, Control_c, 0, 64, 51
1, 454608, Control_c, 0, 64, 59
1, 454622, Control_c, 0, 64, 62
1, 454637, Control_c, 0, 64, 63
1, 454648, Poly_aftertouch_c, 0, 80, 0
1, 454652, Control_c, 0, 64, 64
1, 454664, Note_on_c, 0, 70, 43
1, 454667, Control_c, 0, 64, 65
1, 454680, Note_on_c, 0, 43, 43
1, 454682, Control_c, 0, 64, 67
1, 454697, Control_c, 0, 64, 68
1, 454711, Control_c, 0, 64, 71
1, 454720, Note_off_c, 0, 82, 25
1, 454723, Note_off_c, 0, 39, 36
1, 454726, Control_c, 0, 64, 73
1, 454735, Note_off_c, 0, 70, 56
1, 454741, Control_c, 0, 64, 76
1, 454756, Control_c, 0, 64, 78
1, 454761, Note_off_c, 0, 67, 35
1, 454770, Control_c, 0, 64, 81
1, 454785, Control_c, 0, 64, 81
1, 454864, Note_on_c, 0, 70, 49
1, 454886, Note_on_c, 0, 46, 49
1, 454913, Note_off_c, 0, 43, 37
1, 454964, Control_c, 0, 64, 81
1, 454993, Control_c, 0, 64, 80
1, 454996, Note_off_c, 0, 46, 51
1, 455008, Control_c, 0, 64, 79
1, 455022, Control_c, 0, 64, 79
1, 455076, Note_off_c, 0, 70, 24
1, 455084, Note_on_c, 0, 51, 48
1, 455089, Note_on_c, 0, 67, 45
1, 455163, Note_off_c, 0, 51, 50
1, 455297, Control_c, 0, 64, 78
1, 455299, Note_on_c, 0, 70, 48
1, 455316, Note_on_c, 0, 55, 49
1, 455327, Control_c, 0, 64, 78
1, 455357, Control_c, 0, 64, 77
1, 455372, Control_c, 0, 64, 77
1, 455372, Note_off_c, 0, 70, 58
1, 455378, Note_off_c, 0, 67, 34
1, 455387, Control_c, 0, 64, 76
1, 455401, Control_c, 0, 64, 75
1, 455431, Control_c, 0, 64, 75
1, 455446, Control_c, 0, 64, 74
1, 455460, Control_c, 0, 64, 73
1, 455475, Control_c, 0, 64, 73
1, 455490, Control_c, 0, 64, 72
1, 455505, Control_c, 0, 64, 72
1, 455512, Note_on_c, 0, 70, 43
1, 455515, Note_on_c, 0, 58, 53
1, 455534, Control_c, 0, 64, 71
1, 455564, Control_c, 0, 64, 71
1, 455575, Note_off_c, 0, 55, 25
1, 455608, Control_c, 0, 64, 70
1, 455652, Control_c, 0, 64, 70
1, 455667, Control_c, 0, 64, 69
1, 455712, Control_c, 0, 64, 69
1, 455727, Control_c, 0, 64, 68
1, 455742, Note_off_c, 0, 58, 23
1, 455742, Control_c, 0, 64, 68
1, 455756, Control_c, 0, 64, 67
1, 455759, Note_on_c, 0, 67, 43
1, 455761, Note_on_c, 0, 63, 60
1, 455771, Control_c, 0, 64, 66
1, 455786, Control_c, 0, 64, 66
1, 455798, Note_off_c, 0, 70, 37
1, 455801, Control_c, 0, 64, 65
1, 455816, Control_c, 0, 64, 64
1, 455831, Control_c, 0, 64, 63
1, 455852, Control_c, 0, 64, 63
1, 455867, Control_c, 0, 64, 62
1, 455882, Control_c, 0, 64, 62
1, 455987, Control_c, 0, 64, 62
1, 455988, Note_on_c, 0, 70, 43
1, 456002, Control_c, 0, 64, 63
1, 456031, Control_c, 0, 64, 64
1, 456046, Control_c, 0, 64, 65
1, 456061, Control_c, 0, 64, 67
1, 456075, Control_c, 0, 64, 70
1, 456086, Note_off_c, 0, 70, 62
1, 456090, Control_c, 0, 64, 73
1, 456099, Note_off_c, 0, 67, 35
1, 456105, Control_c, 0, 64, 75
1, 456120, Control_c, 0, 64, 77
1, 456135, Control_c, 0, 64, 79
1, 456150, Control_c, 0, 64, 82
1, 456165, Control_c, 0, 64, 84
1, 456180, Control_c, 0, 64, 85
1, 456195, Control_c, 0, 64, 86
1, 456210, Control_c, 0, 64, 87
1, 456216, Note_on_c, 0, 70, 49
1, 456239, Control_c, 0, 64, 87
1, 456302, Note_off_c, 0, 70, 51
1, 456399, Note_off_c, 0, 75, 29
1, 456431, Control_c, 0, 64, 85
1, 456443, Note_on_c, 0, 76, 72
1, 456446, Control_c, 0, 64, 83
1, 456461, Control_c, 0, 64, 78
1, 456473, Note_on_c, 0, 67, 45
1, 456475, Control_c, 0, 64, 72
1, 456490, Control_c, 0, 64, 66
1, 456505, Control_c, 0, 64, 61
1, 456520, Control_c, 0, 64, 56
1, 456535, Control_c, 0, 64, 55
1, 456549, Control_c, 0, 64, 56
1, 456564, Control_c, 0, 64, 58
1, 456579, Control_c, 0, 64, 60
1, 456601, Control_c, 0, 64, 63
1, 456616, Control_c, 0, 64, 66
1, 456631, Control_c, 0, 64, 69
1, 456646, Control_c, 0, 64, 73
1, 456661, Control_c, 0, 64, 77
1, 456676, Control_c, 0, 64, 81
1, 456682, Note_on_c, 0, 70, 48
1, 456690, Control_c, 0, 64, 86
1, 456705, Control_c, 0, 64, 91
1, 456720, Control_c, 0, 64, 97
1, 456735, Control_c, 0, 64, 103
1, 456749, Control_c, 0, 64, 105
1, 456764, Control_c, 0, 64, 106
1, 456766, Note_off_c, 0, 63, 60
1, 456767, Note_off_c, 0, 70, 53
1, 456780, Control_c, 0, 64, 108
1, 456787, Note_off_c, 0, 67, 37
1, 456795, Control_c, 0, 64, 110
1, 456810, Control_c, 0, 64, 113
1, 456825, Control_c, 0, 64, 114
1, 456901, Note_on_c, 0, 70, 52
1, 456943, Control_c, 0, 67, 10
1, 456958, Control_c, 0, 67, 13
1, 456973, Control_c, 0, 67, 16
1, 456983, Note_off_c, 0, 70, 56
1, 456988, Control_c, 0, 67, 19
1, 457002, Control_c, 0, 67, 22
1, 457017, Control_c, 0, 67, 23
1, 457032, Control_c, 0, 67, 24
1, 457047, Control_c, 0, 64, 113
1, 457047, Control_c, 0, 67, 25
1, 457057, Note_off_c, 0, 76, 49
1, 457062, Control_c, 0, 67, 25
1, 457077, Control_c, 0, 64, 111
1, 457077, Control_c, 0, 67, 26
1, 457091, Control_c, 0, 64, 110
1, 457106, Control_c, 0, 64, 109
1, 457106, Control_c, 0, 67, 26
1, 457121, Control_c, 0, 64, 106
1, 457121, Control_c, 0, 67, 27
1, 457136, Control_c, 0, 64, 103
1, 457136, Control_c, 0, 67, 28
1, 457150, Note_on_c, 0, 77, 74
1, 457151, Control_c, 0, 64, 99
1, 457151, Control_c, 0, 67, 29
1, 457166, Control_c, 0, 64, 94
1, 457166, Control_c, 0, 67, 29
1, 457180, Note_on_c, 0, 37, 42
1, 457180, Control_c, 0, 64, 89
1, 457180, Control_c, 0, 67, 30
1, 457195, Control_c, 0, 64, 83
1, 457195, Control_c, 0, 67, 31
1, 457196, Note_on_c, 0, 67, 44
1, 457210, Control_c, 0, 64, 75
1, 457210, Control_c, 0, 67, 33
1, 457224, Control_c, 0, 64, 70
1, 457224, Control_c, 0, 67, 35
1, 457239, Control_c, 0, 64, 65
1, 457239, Control_c, 0, 67, 38
1, 457254, Control_c, 0, 64, 60
1, 457254, Control_c, 0, 67, 41
1, 457269, Control_c, 0, 64, 53
1, 457269, Control_c, 0, 67, 44
1, 457284, Control_c, 0, 64, 47
1, 457284, Control_c, 0, 67, 48
1, 457298, Control_c, 0, 64, 47
1, 457298, Control_c, 0, 67, 51
1, 457313, Control_c, 0, 64, 49
1, 457313, Control_c, 0, 67, 53
1, 457329, Control_c, 0, 64, 50
1, 457329, Control_c, 0, 67, 53
1, 457351, Control_c, 0, 64, 52
1, 457366, Control_c, 0, 64, 55
1, 457381, Control_c, 0, 64, 58
1, 457396, Control_c, 0, 64, 62
1, 457411, Control_c, 0, 64, 64
1, 457411, Control_c, 0, 67, 53
1, 457413, Note_on_c, 0, 70, 25
1, 457415, Note_on_c, 0, 43, 35
1, 457425, Control_c, 0, 64, 66
1, 457425, Control_c, 0, 67, 52
1, 457440, Control_c, 0, 64, 68
1, 457440, Control_c, 0, 67, 52
1, 457455, Control_c, 0, 64, 72
1, 457455, Control_c, 0, 67, 51
1, 457465, Note_off_c, 0, 37, 41
1, 457469, Note_off_c, 0, 70, 44
1, 457470, Control_c, 0, 64, 77
1, 457470, Control_c, 0, 67, 51
1, 457485, Control_c, 0, 64, 83
1, 457485, Control_c, 0, 67, 50
1, 457499, Control_c, 0, 64, 88
1, 457499, Control_c, 0, 67, 50
1, 457514, Control_c, 0, 64, 91
1, 457529, Control_c, 0, 64, 92
1, 457544, Note_off_c, 0, 67, 36
1, 457544, Control_c, 0, 64, 93
1, 457575, Control_c, 0, 64, 94
1, 457596, Note_on_c, 0, 70, 45
1, 457620, Note_on_c, 0, 46, 48
1, 457663, Control_c, 0, 67, 49
1, 457677, Note_off_c, 0, 43, 35
1, 457690, Note_off_c, 0, 70, 56
1, 457693, Control_c, 0, 67, 49
1, 457708, Control_c, 0, 67, 48
1, 457722, Control_c, 0, 67, 48
1, 457767, Control_c, 0, 67, 47
1, 457796, Control_c, 0, 67, 47
1, 457810, Note_off_c, 0, 46, 40
1, 457819, Note_on_c, 0, 49, 48
1, 457837, Note_on_c, 0, 67, 48
1, 457882, Note_off_c, 0, 49, 51
1, 458055, Note_on_c, 0, 55, 44
1, 458056, Note_on_c, 0, 70, 44
1, 458123, Note_off_c, 0, 70, 49
1, 458131, Note_off_c, 0, 67, 36
1, 458159, Control_c, 0, 67, 47
1, 458231, Note_off_c, 0, 77, 32
1, 458263, Control_c, 0, 67, 48
1, 458267, Note_on_c, 0, 70, 45
1, 458268, Note_on_c, 0, 58, 46
1, 458293, Control_c, 0, 64, 93
1, 458320, Note_off_c, 0, 70, 45
1, 458412, Control_c, 0, 64, 93
1, 458427, Control_c, 0, 64, 92
1, 458457, Control_c, 0, 64, 92
1, 458471, Control_c, 0, 64, 91
1, 458486, Control_c, 0, 64, 90
1, 458501, Control_c, 0, 64, 89
1, 458504, Note_on_c, 0, 70, 67
1, 458516, Control_c, 0, 64, 87
1, 458531, Note_on_c, 0, 61, 46
1, 458531, Control_c, 0, 64, 85
1, 458538, Note_on_c, 0, 67, 44
1, 458545, Control_c, 0, 64, 82
1, 458560, Control_c, 0, 64, 79
1, 458560, Control_c, 0, 67, 48
1, 458575, Control_c, 0, 64, 74
1, 458575, Control_c, 0, 67, 49
1, 458590, Control_c, 0, 64, 70
1, 458605, Control_c, 0, 64, 66
1, 458612, Note_off_c, 0, 58, 25
1, 458619, Control_c, 0, 64, 63
1, 458619, Control_c, 0, 67, 49
1, 458634, Control_c, 0, 64, 59
1, 458634, Control_c, 0, 67, 50
1, 458649, Control_c, 0, 64, 56
1, 458649, Control_c, 0, 67, 50
1, 458663, Control_c, 0, 64, 54
1, 458663, Control_c, 0, 67, 51
1, 458678, Control_c, 0, 64, 54
1, 458708, Control_c, 0, 64, 54
1, 458708, Control_c, 0, 67, 51
1, 458723, Control_c, 0, 64, 55
1, 458723, Control_c, 0, 67, 52
1, 458737, Control_c, 0, 64, 56
1, 458737, Control_c, 0, 67, 52
1, 458740, Note_on_c, 0, 63, 40
1, 458752, Control_c, 0, 64, 58
1, 458752, Control_c, 0, 67, 53
1, 458767, Control_c, 0, 64, 59
1, 458767, Control_c, 0, 67, 54
1, 458782, Control_c, 0, 64, 60
1, 458797, Control_c, 0, 64, 61
1, 458797, Control_c, 0, 67, 54
1, 458812, Control_c, 0, 64, 63
1, 458812, Control_c, 0, 67, 55
1, 458826, Control_c, 0, 64, 63
1, 458826, Control_c, 0, 67, 56
1, 458842, Note_off_c, 0, 63, 42
1, 458848, Control_c, 0, 64, 65
1, 458848, Control_c, 0, 67, 59
1, 458863, Control_c, 0, 64, 66
1, 458863, Control_c, 0, 67, 63
1, 458877, Control_c, 0, 64, 67
1, 458877, Control_c, 0, 67, 67
1, 458891, Note_off_c, 0, 55, 1
1, 458892, Control_c, 0, 64, 69
1, 458892, Control_c, 0, 67, 71
1, 458907, Control_c, 0, 64, 71
1, 458907, Control_c, 0, 67, 75
1, 458922, Control_c, 0, 64, 73
1, 458922, Control_c, 0, 67, 79
1, 458937, Control_c, 0, 64, 75
1, 458937, Control_c, 0, 67, 82
1, 458951, Note_on_c, 0, 63, 45
1, 458952, Control_c, 0, 64, 77
1, 458952, Control_c, 0, 67, 84
1, 458967, Note_off_c, 0, 67, 33
1, 458967, Control_c, 0, 64, 79
1, 458967, Control_c, 0, 67, 85
1, 458982, Control_c, 0, 64, 81
1, 458982, Control_c, 0, 67, 86
1, 458996, Control_c, 0, 64, 83
1, 458996, Control_c, 0, 67, 86
1, 459011, Control_c, 0, 64, 84
1, 459011, Control_c, 0, 67, 87
1, 459026, Control_c, 0, 64, 86
1, 459026, Control_c, 0, 67, 87
1, 459041, Control_c, 0, 64, 88
1, 459041, Control_c, 0, 67, 88
1, 459056, Control_c, 0, 64, 89
1, 459056, Control_c, 0, 67, 89
1, 459070, Control_c, 0, 64, 90
1, 459070, Control_c, 0, 67, 91
1, 459085, Control_c, 0, 64, 90
1, 459085, Control_c, 0, 67, 93
1, 459100, Control_c, 0, 64, 91
1, 459100, Control_c, 0, 67, 95
1, 459103, Note_off_c, 0, 63, 35
1, 459115, Control_c, 0, 64, 91
1, 459115, Control_c, 0, 67, 98
1, 459130, Control_c, 0, 64, 92
1, 459130, Control_c, 0, 67, 101
1, 459144, Control_c, 0, 67, 105
1, 459159, Control_c, 0, 64, 92
1, 459159, Control_c, 0, 67, 109
1, 459175, Control_c, 0, 67, 113
1, 459190, Control_c, 0, 67, 118
1, 459200, Note_on_c, 0, 67, 47
1, 459205, Control_c, 0, 67, 122
1, 459219, Control_c, 0, 67, 125
1, 459234, Control_c, 0, 67, 127
1, 459416, Note_on_c, 0, 63, 49
1, 459467, Note_off_c, 0, 63, 44
1, 459533, Note_off_c, 0, 67, 41
1, 459584, Note_off_c, 0, 70, 38
1, 459599, Note_on_c, 0, 72, 59
1, 459653, Note_on_c, 0, 63, 43
1, 459686, Control_c, 0, 64, 92
1, 459730, Control_c, 0, 64, 91
1, 459760, Control_c, 0, 64, 91
1, 459772, Note_off_c, 0, 72, 59
1, 459775, Control_c, 0, 64, 90
1, 459786, Note_on_c, 0, 73, 63
1, 459805, Control_c, 0, 64, 90
1, 459834, Control_c, 0, 64, 89
1, 459849, Control_c, 0, 64, 89
1, 459879, Control_c, 0, 64, 88
1, 459893, Control_c, 0, 64, 88
1, 459908, Control_c, 0, 64, 87
1, 459923, Control_c, 0, 64, 87
1, 459937, Control_c, 0, 64, 86
1, 459952, Control_c, 0, 64, 85
1, 459968, Control_c, 0, 64, 84
1, 459983, Control_c, 0, 64, 82
1, 459998, Control_c, 0, 64, 80
1, 460007, Note_on_c, 0, 75, 72
1, 460013, Control_c, 0, 64, 78
1, 460028, Control_c, 0, 64, 75
1, 460042, Control_c, 0, 64, 72
1, 460043, Note_off_c, 0, 73, 59
1, 460047, Note_on_c, 0, 60, 36
1, 460055, Note_on_c, 0, 68, 31
1, 460055, Note_off_c, 0, 63, 39
1, 460057, Control_c, 0, 64, 68
1, 460072, Control_c, 0, 64, 65
1, 460087, Control_c, 0, 64, 61
1, 460102, Control_c, 0, 64, 58
1, 460116, Control_c, 0, 64, 55
1, 460131, Control_c, 0, 64, 54
1, 460146, Control_c, 0, 64, 53
1, 460161, Control_c, 0, 64, 52
1, 460183, Note_off_c, 0, 61, 33
1, 460284, Note_on_c, 0, 63, 38
1, 460323, Control_c, 0, 64, 53
1, 460346, Control_c, 0, 64, 54
1, 460361, Control_c, 0, 64, 56
1, 460376, Control_c, 0, 64, 58
1, 460382, Note_off_c, 0, 63, 49
1, 460390, Control_c, 0, 64, 61
1, 460405, Control_c, 0, 64, 63
1, 460420, Control_c, 0, 64, 65
1, 460435, Control_c, 0, 64, 67
1, 460449, Control_c, 0, 64, 70
1, 460464, Control_c, 0, 64, 74
1, 460479, Control_c, 0, 64, 77
1, 460494, Control_c, 0, 64, 79
1, 460496, Note_on_c, 0, 63, 43
1, 460506, Note_off_c, 0, 68, 43
1, 460509, Control_c, 0, 64, 79
1, 460538, Control_c, 0, 64, 80
1, 460553, Control_c, 0, 64, 81
1, 460568, Control_c, 0, 64, 81
1, 460583, Control_c, 0, 64, 82
1, 460597, Control_c, 0, 64, 82
1, 460624, Note_off_c, 0, 63, 37
1, 460627, Control_c, 0, 64, 83
1, 460642, Control_c, 0, 64, 83
1, 460657, Control_c, 0, 64, 84
1, 460672, Control_c, 0, 64, 84
1, 460687, Control_c, 0, 64, 85
1, 460702, Control_c, 0, 64, 86
1, 460716, Control_c, 0, 64, 87
1, 460726, Note_on_c, 0, 68, 42
1, 460731, Control_c, 0, 64, 88
1, 460746, Control_c, 0, 64, 90
1, 460761, Control_c, 0, 64, 91
1, 460776, Control_c, 0, 64, 94
1, 460791, Control_c, 0, 64, 97
1, 460806, Control_c, 0, 64, 100
1, 460821, Control_c, 0, 64, 105
1, 460836, Control_c, 0, 64, 111
1, 460851, Control_c, 0, 64, 121
1, 460865, Control_c, 0, 64, 127
1, 460940, Note_on_c, 0, 63, 33
1, 460991, Note_off_c, 0, 63, 43
1, 461141, Note_off_c, 0, 75, 35
1, 461158, Note_on_c, 0, 63, 41
1, 461223, Note_off_c, 0, 68, 39
1, 461292, Note_off_c, 0, 63, 42
1, 461384, Note_on_c, 0, 69, 59
1, 461411, Note_on_c, 0, 53, 52
1, 461415, Note_on_c, 0, 63, 50
1, 461421, Control_c, 0, 64, 111
1, 461436, Control_c, 0, 64, 97
1, 461451, Control_c, 0, 64, 85
1, 461465, Control_c, 0, 64, 74
1, 461480, Control_c, 0, 64, 67
1, 461495, Control_c, 0, 64, 62
1, 461510, Control_c, 0, 64, 57
1, 461525, Control_c, 0, 64, 54
1, 461533, Note_off_c, 0, 60, 38
1, 461539, Control_c, 0, 64, 54
1, 461600, Control_c, 0, 64, 54
1, 461614, Control_c, 0, 64, 55
1, 461629, Control_c, 0, 64, 56
1, 461644, Control_c, 0, 64, 58
1, 461652, Note_on_c, 0, 60, 44
1, 461659, Control_c, 0, 64, 60
1, 461674, Control_c, 0, 64, 61
1, 461688, Control_c, 0, 64, 62
1, 461698, Note_off_c, 0, 60, 51
1, 461703, Control_c, 0, 64, 63
1, 461718, Control_c, 0, 64, 64
1, 461733, Control_c, 0, 64, 65
1, 461742, Note_off_c, 0, 63, 36
1, 461748, Control_c, 0, 64, 66
1, 461763, Control_c, 0, 64, 67
1, 461778, Control_c, 0, 64, 68
1, 461858, Note_on_c, 0, 60, 39
1, 462000, Note_off_c, 0, 60, 32
1, 462006, Control_c, 0, 64, 69
1, 462020, Control_c, 0, 64, 69
1, 462035, Control_c, 0, 64, 70
1, 462050, Control_c, 0, 64, 70
1, 462065, Control_c, 0, 64, 71
1, 462080, Control_c, 0, 64, 72
1, 462090, Note_on_c, 0, 63, 45
1, 462094, Control_c, 0, 64, 73
1, 462109, Control_c, 0, 64, 75
1, 462124, Control_c, 0, 64, 77
1, 462139, Control_c, 0, 64, 79
1, 462154, Control_c, 0, 64, 82
1, 462168, Control_c, 0, 64, 85
1, 462183, Control_c, 0, 64, 89
1, 462198, Control_c, 0, 64, 92
1, 462213, Control_c, 0, 64, 95
1, 462228, Control_c, 0, 64, 97
1, 462243, Control_c, 0, 64, 98
1, 462258, Control_c, 0, 64, 99
1, 462273, Control_c, 0, 64, 101
1, 462287, Control_c, 0, 64, 103
1, 462302, Control_c, 0, 64, 105
1, 462305, Note_on_c, 0, 60, 47
1, 462317, Control_c, 0, 64, 108
1, 462331, Control_c, 0, 64, 111
1, 462346, Control_c, 0, 64, 114
1, 462362, Control_c, 0, 64, 118
1, 462377, Control_c, 0, 64, 127
1, 462378, Note_off_c, 0, 60, 47
1, 462531, Note_on_c, 0, 60, 41
1, 462534, Note_off_c, 0, 63, 42
1, 462776, Note_on_c, 0, 73, 65
1, 462793, Note_off_c, 0, 60, 34
1, 462799, Control_c, 0, 64, 107
1, 462807, Note_on_c, 0, 46, 47
1, 462812, Note_on_c, 0, 65, 39
1, 462814, Control_c, 0, 64, 95
1, 462829, Control_c, 0, 64, 85
1, 462843, Control_c, 0, 64, 76
1, 462858, Control_c, 0, 64, 67
1, 462873, Control_c, 0, 64, 61
1, 462888, Control_c, 0, 64, 51
1, 462903, Control_c, 0, 64, 41
1, 462917, Control_c, 0, 64, 42
1, 462926, Note_off_c, 0, 53, 35
1, 462932, Control_c, 0, 64, 44
1, 462976, Control_c, 0, 64, 45
1, 462991, Control_c, 0, 64, 48
1, 463006, Control_c, 0, 64, 53
1, 463021, Control_c, 0, 64, 57
1, 463036, Control_c, 0, 64, 60
1, 463043, Note_on_c, 0, 61, 39
1, 463051, Control_c, 0, 64, 61
1, 463066, Control_c, 0, 64, 62
1, 463081, Control_c, 0, 64, 63
1, 463095, Control_c, 0, 64, 65
1, 463110, Control_c, 0, 64, 66
1, 463111, Note_off_c, 0, 61, 57
1, 463125, Control_c, 0, 64, 68
1, 463140, Control_c, 0, 64, 71
1, 463155, Control_c, 0, 64, 74
1, 463170, Control_c, 0, 64, 76
1, 463185, Control_c, 0, 64, 78
1, 463200, Control_c, 0, 64, 81
1, 463215, Control_c, 0, 64, 83
1, 463230, Control_c, 0, 64, 85
1, 463241, Note_on_c, 0, 61, 48
1, 463244, Control_c, 0, 64, 87
1, 463259, Control_c, 0, 64, 89
1, 463274, Control_c, 0, 64, 91
1, 463289, Control_c, 0, 64, 93
1, 463297, Note_off_c, 0, 65, 36
1, 463304, Control_c, 0, 64, 95
1, 463319, Control_c, 0, 64, 97
1, 463340, Control_c, 0, 64, 98
1, 463355, Control_c, 0, 64, 99
1, 463370, Control_c, 0, 64, 99
1, 463371, Note_off_c, 0, 69, 2
1, 463385, Control_c, 0, 64, 100
1, 463414, Control_c, 0, 64, 100
1, 463429, Control_c, 0, 64, 101
1, 463468, Note_on_c, 0, 65, 43
1, 463506, Note_off_c, 0, 61, 39
1, 463709, Note_on_c, 0, 61, 41
1, 463790, Note_off_c, 0, 46, 37
1, 463821, Note_off_c, 0, 73, 29
1, 463823, Note_off_c, 0, 65, 40
1, 463827, Note_off_c, 0, 61, 38
1, 463955, Note_on_c, 0, 61, 43
1, 464045, Note_off_c, 0, 61, 48
1, 464179, Control_c, 0, 64, 99
1, 464194, Control_c, 0, 64, 96
1, 464205, Note_on_c, 0, 39, 32
1, 464208, Control_c, 0, 64, 91
1, 464216, Note_on_c, 0, 73, 61
1, 464216, Note_on_c, 0, 46, 35
1, 464223, Control_c, 0, 64, 83
1, 464238, Control_c, 0, 64, 73
1, 464253, Control_c, 0, 64, 65
1, 464268, Note_on_c, 0, 67, 21
1, 464268, Control_c, 0, 64, 60
1, 464282, Control_c, 0, 64, 57
1, 464297, Control_c, 0, 64, 58
1, 464312, Control_c, 0, 64, 59
1, 464327, Control_c, 0, 64, 60
1, 464342, Control_c, 0, 64, 61
1, 464356, Control_c, 0, 64, 63
1, 464371, Control_c, 0, 64, 65
1, 464386, Control_c, 0, 64, 67
1, 464401, Control_c, 0, 64, 68
1, 464416, Control_c, 0, 64, 70
1, 464431, Control_c, 0, 64, 73
1, 464446, Control_c, 0, 64, 75
1, 464454, Note_off_c, 0, 73, 48
1, 464461, Control_c, 0, 64, 77
1, 464472, Note_off_c, 0, 67, 38
1, 464476, Control_c, 0, 64, 79
1, 464490, Control_c, 0, 64, 80
1, 464505, Control_c, 0, 64, 81
1, 464507, Note_on_c, 0, 51, 37
1, 464507, Note_on_c, 0, 72, 65
1, 464520, Control_c, 0, 64, 82
1, 464534, Control_c, 0, 64, 83
1, 464545, Note_on_c, 0, 61, 26
1, 464549, Control_c, 0, 64, 83
1, 464551, Note_off_c, 0, 51, 46
1, 464564, Control_c, 0, 64, 84
1, 464579, Control_c, 0, 64, 86
1, 464594, Control_c, 0, 64, 87
1, 464599, Note_off_c, 0, 61, 43
1, 464608, Control_c, 0, 64, 88
1, 464623, Control_c, 0, 64, 89
1, 464638, Control_c, 0, 64, 90
1, 464653, Control_c, 0, 64, 91
1, 464682, Control_c, 0, 64, 92
1, 464695, Note_off_c, 0, 72, 49
1, 464721, Note_off_c, 0, 39, 37
1, 464732, Note_on_c, 0, 70, 69
1, 464739, Note_on_c, 0, 51, 31
1, 464762, Note_on_c, 0, 61, 40
1, 464815, Note_off_c, 0, 61, 56
1, 464863, Note_off_c, 0, 70, 61
1, 464907, Note_off_c, 0, 46, 28
1, 464914, Note_off_c, 0, 51, 35
1, 464944, Note_on_c, 0, 39, 32
1, 464956, Control_c, 0, 64, 90
1, 464971, Control_c, 0, 64, 86
1, 464981, Note_on_c, 0, 70, 68
1, 464986, Control_c, 0, 64, 79
1, 465001, Control_c, 0, 64, 71
1, 465009, Note_on_c, 0, 61, 51
1, 465016, Control_c, 0, 64, 63
1, 465030, Control_c, 0, 64, 50
1, 465045, Control_c, 0, 64, 33
1, 465060, Control_c, 0, 64, 37
1, 465075, Control_c, 0, 64, 42
1, 465090, Control_c, 0, 64, 48
1, 465105, Control_c, 0, 64, 54
1, 465119, Control_c, 0, 64, 59
1, 465134, Control_c, 0, 64, 62
1, 465136, Note_off_c, 0, 61, 54
1, 465149, Control_c, 0, 64, 64
1, 465164, Control_c, 0, 64, 65
1, 465179, Control_c, 0, 64, 67
1, 465194, Control_c, 0, 64, 69
1, 465209, Control_c, 0, 64, 70
1, 465224, Control_c, 0, 64, 69
1, 465224, Note_on_c, 0, 68, 69
1, 465238, Note_on_c, 0, 51, 34
1, 465238, Control_c, 0, 64, 66
1, 465253, Control_c, 0, 64, 63
1, 465265, Note_off_c, 0, 70, 35
1, 465268, Control_c, 0, 64, 62
1, 465269, Note_on_c, 0, 61, 42
1, 465298, Control_c, 0, 64, 63
1, 465312, Control_c, 0, 64, 64
1, 465327, Control_c, 0, 64, 67
1, 465328, Note_off_c, 0, 51, 48
1, 465338, Note_off_c, 0, 61, 58
1, 465342, Control_c, 0, 64, 70
1, 465356, Control_c, 0, 64, 73
1, 465371, Control_c, 0, 64, 74
1, 465386, Control_c, 0, 64, 75
1, 465401, Control_c, 0, 64, 76
1, 465415, Note_off_c, 0, 39, 39
1, 465416, Control_c, 0, 64, 77
1, 465430, Control_c, 0, 64, 77
1, 465445, Control_c, 0, 64, 78
1, 465460, Control_c, 0, 64, 79
1, 465472, Note_on_c, 0, 67, 69
1, 465475, Control_c, 0, 64, 80
1, 465489, Note_on_c, 0, 51, 28
1, 465490, Control_c, 0, 64, 80
1, 465498, Note_off_c, 0, 68, 35
1, 465519, Control_c, 0, 64, 81
1, 465521, Note_on_c, 0, 61, 27
1, 465606, Note_off_c, 0, 61, 36
1, 465651, Note_off_c, 0, 51, 27
1, 465654, Note_off_c, 0, 67, 56
1, 465735, Control_c, 0, 64, 80
1, 465744, Note_on_c, 0, 44, 34
1, 465750, Control_c, 0, 64, 79
1, 465765, Control_c, 0, 64, 77
1, 465780, Control_c, 0, 64, 73
1, 465787, Note_on_c, 0, 68, 65
1, 465794, Control_c, 0, 64, 68
1, 465809, Control_c, 0, 64, 64
1, 465817, Note_on_c, 0, 60, 41
1, 465824, Control_c, 0, 64, 56
1, 465839, Control_c, 0, 64, 47
1, 465853, Control_c, 0, 64, 37
1, 465868, Control_c, 0, 64, 26
1, 465883, Control_c, 0, 64, 14
1, 465898, Control_c, 0, 64, 12
1, 465913, Control_c, 0, 64, 17
1, 465928, Control_c, 0, 64, 25
1, 465942, Control_c, 0, 64, 35
1, 465957, Control_c, 0, 64, 46
1, 465972, Control_c, 0, 64, 56
1, 465987, Control_c, 0, 64, 60
1, 466002, Control_c, 0, 64, 62
1, 466017, Control_c, 0, 64, 64
1, 466032, Control_c, 0, 64, 65
1, 466047, Control_c, 0, 64, 67
1, 466061, Control_c, 0, 64, 71
1, 466076, Control_c, 0, 64, 74
1, 466091, Control_c, 0, 64, 78
1, 466105, Control_c, 0, 64, 81
1, 466120, Control_c, 0, 64, 83
1, 466127, Note_on_c, 0, 51, 36
1, 466135, Control_c, 0, 64, 84
1, 466150, Control_c, 0, 64, 84
1, 466154, Note_off_c, 0, 44, 33
1, 466165, Control_c, 0, 64, 85
1, 466179, Control_c, 0, 64, 85
1, 466194, Control_c, 0, 64, 86
1, 466209, Control_c, 0, 64, 86
1, 466238, Note_off_c, 0, 51, 37
1, 466357, Note_on_c, 0, 51, 42
1, 466428, Note_off_c, 0, 60, 33
1, 466434, Note_off_c, 0, 51, 0
1, 466434, Note_on_c, 0, 51, 3
1, 466471, Note_off_c, 0, 51, 47
1, 466573, Control_c, 0, 64, 85
1, 466583, Note_on_c, 0, 51, 50
1, 466588, Note_off_c, 0, 68, 38
1, 466588, Control_c, 0, 64, 80
1, 466603, Control_c, 0, 64, 71
1, 466617, Control_c, 0, 64, 63
1, 466632, Control_c, 0, 64, 49
1, 466647, Control_c, 0, 64, 28
1, 466662, Control_c, 0, 64, 33
1, 466677, Control_c, 0, 64, 43
1, 466691, Control_c, 0, 64, 51
1, 466706, Control_c, 0, 64, 59
1, 466721, Control_c, 0, 64, 63
1, 466733, Note_off_c, 0, 51, 59
1, 466735, Control_c, 0, 64, 65
1, 466750, Control_c, 0, 64, 66
1, 466765, Control_c, 0, 64, 68
1, 466780, Control_c, 0, 64, 70
1, 466795, Control_c, 0, 64, 73
1, 466810, Note_on_c, 0, 51, 46
1, 466810, Control_c, 0, 64, 75
1, 466825, Control_c, 0, 64, 77
1, 466839, Control_c, 0, 64, 78
1, 466854, Control_c, 0, 64, 79
1, 466869, Control_c, 0, 64, 80
1, 466884, Control_c, 0, 64, 81
1, 466899, Control_c, 0, 64, 82
1, 466914, Control_c, 0, 64, 82
1, 466958, Control_c, 0, 64, 83
1, 466964, Note_off_c, 0, 51, 35
1, 467055, Note_on_c, 0, 51, 38
1, 467062, Control_c, 0, 64, 83
1, 467099, Control_c, 0, 64, 84
1, 467114, Control_c, 0, 64, 84
1, 467121, Note_off_c, 0, 51, 38
1, 467128, Control_c, 0, 64, 85
1, 467143, Control_c, 0, 64, 86
1, 467159, Control_c, 0, 64, 87
1, 467174, Control_c, 0, 64, 88
1, 467188, Control_c, 0, 64, 88
1, 467203, Control_c, 0, 64, 89
1, 467218, Control_c, 0, 64, 89
1, 467233, Control_c, 0, 64, 90
1, 467248, Control_c, 0, 64, 91
1, 467263, Control_c, 0, 64, 91
1, 467263, Control_c, 0, 67, 121
1, 467278, Control_c, 0, 64, 92
1, 467278, Control_c, 0, 67, 114
1, 467279, Note_on_c, 0, 51, 43
1, 467293, Control_c, 0, 64, 92
1, 467293, Control_c, 0, 67, 106
1, 467307, Control_c, 0, 64, 93
1, 467307, Control_c, 0, 67, 96
1, 467322, Control_c, 0, 67, 88
1, 467337, Control_c, 0, 64, 93
1, 467337, Control_c, 0, 67, 81
1, 467351, Control_c, 0, 67, 75
1, 467366, Control_c, 0, 67, 69
1, 467381, Control_c, 0, 67, 64
1, 467388, Note_off_c, 0, 51, 41
1, 467396, Control_c, 0, 67, 58
1, 467411, Control_c, 0, 67, 51
1, 467426, Control_c, 0, 67, 46
1, 467440, Control_c, 0, 67, 43
1, 467455, Control_c, 0, 67, 40
1, 467470, Control_c, 0, 67, 37
1, 467485, Control_c, 0, 67, 35
1, 467500, Control_c, 0, 67, 33
1, 467505, Note_on_c, 0, 51, 38
1, 467514, Control_c, 0, 67, 31
1, 467529, Control_c, 0, 67, 29
1, 467544, Control_c, 0, 67, 28
1, 467558, Control_c, 0, 67, 27
1, 467573, Control_c, 0, 67, 26
1, 467588, Control_c, 0, 67, 25
1, 467603, Control_c, 0, 67, 23
1, 467606, Note_off_c, 0, 51, 35
1, 467618, Control_c, 0, 67, 21
1, 467632, Control_c, 0, 67, 19
1, 467647, Control_c, 0, 67, 17
1, 467662, Control_c, 0, 67, 15
1, 467677, Control_c, 0, 67, 13
1, 467692, Control_c, 0, 67, 11
1, 467707, Control_c, 0, 67, 10
1, 467722, Control_c, 0, 67, 10
1, 467727, Note_on_c, 0, 51, 44
1, 467751, Control_c, 0, 67, 9
1, 467845, Note_off_c, 0, 51, 26
1, 467989, Note_on_c, 0, 75, 66
1, 467995, Note_on_c, 0, 51, 36
1, 468134, Note_off_c, 0, 51, 44
1, 468243, Note_on_c, 0, 51, 50
1, 468353, Note_off_c, 0, 51, 44
1, 468512, Note_on_c, 0, 51, 34
1, 468602, Note_on_c, 0, 76, 67
1, 468666, Note_off_c, 0, 51, 37
1, 468686, Control_c, 0, 64, 93
1, 468715, Control_c, 0, 64, 92
1, 468716, Note_off_c, 0, 75, 54
1, 468776, Control_c, 0, 64, 92
1, 468805, Control_c, 0, 64, 91
1, 468820, Control_c, 0, 64, 91
1, 468835, Control_c, 0, 64, 89
1, 468850, Control_c, 0, 64, 87
1, 468865, Control_c, 0, 64, 81
1, 468879, Note_on_c, 0, 77, 72
1, 468879, Control_c, 0, 64, 73
1, 468884, Note_on_c, 0, 39, 23
1, 468886, Note_on_c, 0, 49, 37
1, 468890, Note_on_c, 0, 51, 30
1, 468894, Control_c, 0, 64, 65
1, 468909, Control_c, 0, 64, 58
1, 468924, Control_c, 0, 64, 40
1, 468939, Control_c, 0, 64, 0
1, 468947, Note_off_c, 0, 76, 59
1, 468968, Control_c, 0, 67, 10
1, 469013, Control_c, 0, 64, 23
1, 469027, Control_c, 0, 64, 46
1, 469027, Control_c, 0, 67, 10
1, 469042, Control_c, 0, 64, 58
1, 469042, Control_c, 0, 67, 11
1, 469057, Control_c, 0, 64, 63
1, 469072, Control_c, 0, 64, 65
1, 469072, Control_c, 0, 67, 12
1, 469087, Control_c, 0, 64, 67
1, 469087, Control_c, 0, 67, 12
1, 469102, Control_c, 0, 64, 69
1, 469102, Control_c, 0, 67, 13
1, 469117, Control_c, 0, 64, 72
1, 469117, Control_c, 0, 67, 14
1, 469131, Control_c, 0, 64, 76
1, 469131, Control_c, 0, 67, 15
1, 469137, Note_off_c, 0, 39, 40
1, 469141, Note_off_c, 0, 51, 41
1, 469146, Control_c, 0, 64, 79
1, 469146, Control_c, 0, 67, 16
1, 469151, Note_off_c, 0, 49, 37
1, 469161, Control_c, 0, 64, 81
1, 469161, Control_c, 0, 67, 18
1, 469176, Control_c, 0, 64, 82
1, 469176, Control_c, 0, 67, 19
1, 469191, Control_c, 0, 64, 83
1, 469191, Control_c, 0, 67, 22
1, 469205, Control_c, 0, 64, 84
1, 469205, Control_c, 0, 67, 26
1, 469220, Control_c, 0, 67, 32
1, 469226, Note_on_c, 0, 39, 35
1, 469227, Note_on_c, 0, 49, 25
1, 469235, Control_c, 0, 67, 38
1, 469248, Note_on_c, 0, 51, 33
1, 469250, Control_c, 0, 67, 46
1, 469265, Control_c, 0, 67, 57
1, 469279, Control_c, 0, 67, 67
1, 469294, Control_c, 0, 67, 76
1, 469308, Control_c, 0, 67, 81
1, 469330, Control_c, 0, 67, 85
1, 469345, Control_c, 0, 67, 86
1, 469375, Control_c, 0, 67, 86
1, 469394, Note_off_c, 0, 39, 34
1, 469394, Note_off_c, 0, 51, 39
1, 469408, Note_off_c, 0, 49, 33
1, 469495, Note_on_c, 0, 39, 39
1, 469497, Note_on_c, 0, 51, 44
1, 469499, Note_on_c, 0, 49, 28
1, 469508, Control_c, 0, 64, 83
1, 469523, Control_c, 0, 64, 83
1, 469553, Control_c, 0, 64, 82
1, 469568, Control_c, 0, 64, 82
1, 469598, Control_c, 0, 64, 81
1, 469613, Control_c, 0, 64, 81
1, 469624, Note_off_c, 0, 39, 37
1, 469636, Note_off_c, 0, 51, 34
1, 469640, Note_off_c, 0, 49, 33
1, 469672, Control_c, 0, 64, 80
1, 469701, Control_c, 0, 64, 80
1, 469731, Note_on_c, 0, 39, 44
1, 469731, Note_on_c, 0, 49, 42
1, 469731, Control_c, 0, 64, 79
1, 469740, Note_on_c, 0, 51, 43
1, 469761, Control_c, 0, 64, 79
1, 469776, Control_c, 0, 67, 86
1, 469791, Control_c, 0, 64, 78
1, 469805, Control_c, 0, 64, 78
1, 469820, Control_c, 0, 64, 77
1, 469835, Control_c, 0, 64, 77
1, 469850, Control_c, 0, 64, 76
1, 469865, Control_c, 0, 64, 75
1, 469880, Control_c, 0, 64, 75
1, 469887, Note_off_c, 0, 51, 36
1, 469892, Note_off_c, 0, 39, 36
1, 469894, Control_c, 0, 64, 74
1, 469909, Note_off_c, 0, 49, 30
1, 469909, Control_c, 0, 64, 73
1, 469924, Control_c, 0, 64, 72
1, 469939, Control_c, 0, 64, 72
1, 469953, Control_c, 0, 64, 71
1, 469963, Note_on_c, 0, 49, 22
1, 469968, Control_c, 0, 64, 70
1, 469972, Note_on_c, 0, 51, 40
1, 469972, Note_on_c, 0, 39, 32
1, 469976, Note_on_c, 0, 75, 55
1, 469983, Control_c, 0, 64, 70
1, 469998, Control_c, 0, 64, 69
1, 470013, Control_c, 0, 64, 69
1, 470042, Control_c, 0, 64, 68
1, 470080, Control_c, 0, 64, 68
1, 470109, Control_c, 0, 64, 67
1, 470124, Control_c, 0, 64, 67
1, 470129, Note_off_c, 0, 51, 35
1, 470139, Control_c, 0, 64, 66
1, 470142, Note_off_c, 0, 39, 35
1, 470148, Note_off_c, 0, 49, 34
1, 470153, Control_c, 0, 64, 66
1, 470183, Control_c, 0, 64, 65
1, 470195, Note_on_c, 0, 73, 62
1, 470198, Control_c, 0, 64, 65
1, 470208, Note_on_c, 0, 39, 26
1, 470209, Note_on_c, 0, 49, 22
1, 470210, Note_off_c, 0, 77, 26
1, 470213, Control_c, 0, 64, 64
1, 470215, Note_on_c, 0, 51, 33
1, 470346, Note_off_c, 0, 75, 38
1, 470369, Note_off_c, 0, 51, 36
1, 470384, Note_off_c, 0, 49, 38
1, 470387, Note_off_c, 0, 39, 38
1, 470428, Note_on_c, 0, 72, 60
1, 470446, Note_on_c, 0, 39, 33
1, 470449, Note_on_c, 0, 51, 39
1, 470449, Note_off_c, 0, 73, 60
1, 470451, Note_on_c, 0, 49, 32
1, 470569, Control_c, 0, 64, 64
1, 470598, Note_off_c, 0, 51, 52
1, 470632, Note_off_c, 0, 39, 37
1, 470643, Control_c, 0, 64, 63
1, 470658, Control_c, 0, 64, 63
1, 470673, Note_on_c, 0, 70, 63
1, 470676, Note_off_c, 0, 49, 0
1, 470681, Note_on_c, 0, 39, 32
1, 470684, Note_on_c, 0, 51, 30
1, 470692, Note_on_c, 0, 49, 25
1, 470702, Control_c, 0, 67, 85
1, 470715, Note_off_c, 0, 72, 64
1, 470776, Control_c, 0, 67, 85
1, 470844, Control_c, 0, 67, 84
1, 470867, Note_off_c, 0, 49, 34
1, 470903, Note_off_c, 0, 51, 0
1, 470906, Note_off_c, 0, 39, 0
1, 470920, Note_on_c, 0, 39, 27
1, 470921, Note_on_c, 0, 51, 26
1, 470923, Note_on_c, 0, 68, 64
1, 470923, Note_on_c, 0, 49, 26
1, 470932, Control_c, 0, 64, 63
1, 470977, Control_c, 0, 64, 64
1, 470992, Control_c, 0, 64, 64
1, 471031, Note_off_c, 0, 70, 59
1, 471037, Control_c, 0, 64, 65
1, 471088, Note_off_c, 0, 51, 41
1, 471091, Note_off_c, 0, 39, 41
1, 471095, Note_off_c, 0, 49, 40
1, 471140, Control_c, 0, 64, 64
1, 471156, Control_c, 0, 64, 64
1, 471171, Control_c, 0, 64, 63
1, 471184, Note_on_c, 0, 49, 34
1, 471186, Control_c, 0, 64, 61
1, 471186, Note_on_c, 0, 39, 38
1, 471190, Note_on_c, 0, 51, 42
1, 471200, Control_c, 0, 64, 57
1, 471201, Note_on_c, 0, 67, 56
1, 471215, Control_c, 0, 64, 52
1, 471230, Control_c, 0, 64, 49
1, 471260, Control_c, 0, 64, 50
1, 471272, Note_off_c, 0, 68, 59
1, 471274, Control_c, 0, 64, 50
1, 471289, Control_c, 0, 64, 51
1, 471304, Control_c, 0, 64, 53
1, 471319, Control_c, 0, 64, 54
1, 471333, Control_c, 0, 64, 56
1, 471348, Control_c, 0, 64, 57
1, 471363, Control_c, 0, 64, 58
1, 471378, Control_c, 0, 64, 60
1, 471393, Control_c, 0, 64, 61
1, 471407, Control_c, 0, 64, 63
1, 471408, Note_off_c, 0, 51, 52
1, 471420, Note_off_c, 0, 39, 41
1, 471422, Control_c, 0, 64, 64
1, 471424, Note_on_c, 0, 73, 58
1, 471437, Control_c, 0, 64, 66
1, 471452, Control_c, 0, 64, 69
1, 471466, Control_c, 0, 64, 73
1, 471481, Control_c, 0, 64, 77
1, 471495, Note_off_c, 0, 49, 0
1, 471496, Control_c, 0, 64, 81
1, 471511, Note_on_c, 0, 49, 22
1, 471511, Control_c, 0, 64, 85
1, 471518, Note_on_c, 0, 51, 33
1, 471525, Control_c, 0, 64, 88
1, 471526, Note_on_c, 0, 39, 46
1, 471540, Control_c, 0, 64, 91
1, 471555, Control_c, 0, 64, 93
1, 471555, Control_c, 0, 67, 84
1, 471654, Note_on_c, 0, 70, 62
1, 471669, Note_off_c, 0, 39, 43
1, 471669, Note_off_c, 0, 67, 49
1, 471686, Note_off_c, 0, 49, 39
1, 471693, Note_off_c, 0, 51, 34
1, 471770, Control_c, 0, 64, 93
1, 471771, Note_on_c, 0, 39, 25
1, 471785, Control_c, 0, 64, 92
1, 471789, Note_on_c, 0, 49, 17
1, 471806, Note_on_c, 0, 51, 37
1, 471815, Control_c, 0, 64, 92
1, 471844, Control_c, 0, 64, 91
1, 471852, Note_off_c, 0, 73, 29
1, 471874, Control_c, 0, 64, 91
1, 471886, Note_off_c, 0, 51, 39
1, 471888, Note_on_c, 0, 67, 61
1, 471889, Control_c, 0, 64, 90
1, 471904, Note_off_c, 0, 49, 32
1, 471904, Control_c, 0, 64, 90
1, 471918, Control_c, 0, 64, 89
1, 471925, Note_off_c, 0, 39, 36
1, 471949, Control_c, 0, 64, 89
1, 471952, Note_off_c, 0, 70, 55
1, 471979, Control_c, 0, 64, 88
1, 472023, Control_c, 0, 64, 88
1, 472023, Control_c, 0, 67, 84
1, 472053, Control_c, 0, 64, 87
1, 472068, Control_c, 0, 64, 86
1, 472068, Control_c, 0, 67, 85
1, 472083, Control_c, 0, 64, 83
1, 472097, Control_c, 0, 64, 79
1, 472097, Control_c, 0, 67, 85
1, 472112, Control_c, 0, 64, 72
1, 472122, Note_on_c, 0, 51, 26
1, 472124, Note_on_c, 0, 44, 30
1, 472127, Control_c, 0, 64, 63
1, 472127, Control_c, 0, 67, 86
1, 472142, Control_c, 0, 64, 49
1, 472147, Note_on_c, 0, 48, 36
1, 472156, Control_c, 0, 64, 0
1, 472156, Control_c, 0, 67, 87
1, 472171, Control_c, 0, 67, 88
1, 472178, Note_on_c, 0, 68, 64
1, 472186, Control_c, 0, 67, 89
1, 472201, Control_c, 0, 67, 93
1, 472216, Control_c, 0, 67, 100
1, 472230, Control_c, 0, 67, 107
1, 472245, Control_c, 0, 67, 114
1, 472260, Control_c, 0, 64, 41
1, 472260, Control_c, 0, 67, 123
1, 472268, Note_off_c, 0, 51, 48
1, 472275, Control_c, 0, 64, 57
1, 472275, Control_c, 0, 67, 127
1, 472290, Control_c, 0, 64, 63
1, 472304, Control_c, 0, 64, 66
1, 472309, Note_off_c, 0, 67, 55
1, 472327, Control_c, 0, 64, 69
1, 472342, Control_c, 0, 64, 71
1, 472356, Control_c, 0, 64, 73
1, 472371, Control_c, 0, 64, 75
1, 472375, Note_off_c, 0, 44, 36
1, 472386, Control_c, 0, 64, 77
1, 472397, Note_off_c, 0, 68, 63
1, 472401, Control_c, 0, 64, 78
1, 472416, Control_c, 0, 64, 78
1, 472419, Note_on_c, 0, 51, 40
1, 472429, Note_off_c, 0, 48, 38
1, 472521, Note_on_c, 0, 70, 59
1, 472535, Note_off_c, 0, 51, 36
1, 472590, Note_on_c, 0, 68, 61
1, 472590, Note_off_c, 0, 70, 53
1, 472608, Control_c, 0, 64, 78
1, 472622, Control_c, 0, 64, 77
1, 472625, Note_off_c, 0, 68, 60
1, 472637, Control_c, 0, 64, 76
1, 472652, Note_on_c, 0, 67, 58
1, 472652, Control_c, 0, 64, 75
1, 472667, Control_c, 0, 64, 73
1, 472682, Control_c, 0, 64, 70
1, 472697, Control_c, 0, 64, 66
1, 472712, Control_c, 0, 64, 63
1, 472715, Note_off_c, 0, 67, 51
1, 472727, Control_c, 0, 64, 59
1, 472735, Note_on_c, 0, 68, 61
1, 472742, Control_c, 0, 64, 53
1, 472751, Note_on_c, 0, 51, 44
1, 472757, Control_c, 0, 64, 47
1, 472771, Control_c, 0, 64, 42
1, 472786, Control_c, 0, 64, 39
1, 472801, Control_c, 0, 64, 37
1, 472816, Control_c, 0, 64, 37
1, 472831, Note_on_c, 0, 72, 54
1, 472831, Control_c, 0, 64, 37
1, 472846, Note_off_c, 0, 68, 54
1, 472846, Control_c, 0, 64, 38
1, 472873, Note_off_c, 0, 51, 49
1, 472876, Control_c, 0, 64, 38
1, 472891, Control_c, 0, 64, 39
1, 472965, Note_on_c, 0, 63, 56
1, 472966, Note_on_c, 0, 51, 33
1, 472979, Control_c, 0, 64, 38
1, 472994, Control_c, 0, 64, 38
1, 473087, Note_off_c, 0, 72, 30
1, 473105, Note_off_c, 0, 51, 35
1, 473119, Control_c, 0, 64, 39
1, 473134, Control_c, 0, 64, 40
1, 473149, Control_c, 0, 64, 41
1, 473164, Control_c, 0, 64, 42
1, 473178, Control_c, 0, 64, 45
1, 473186, Note_on_c, 0, 51, 44
1, 473193, Control_c, 0, 64, 49
1, 473208, Control_c, 0, 64, 55
1, 473223, Control_c, 0, 64, 60
1, 473238, Control_c, 0, 64, 63
1, 473252, Control_c, 0, 64, 66
1, 473267, Control_c, 0, 64, 70
1, 473282, Note_off_c, 0, 51, 57
1, 473282, Control_c, 0, 64, 75
1, 473296, Control_c, 0, 64, 79
1, 473311, Control_c, 0, 64, 82
1, 473421, Note_on_c, 0, 51, 45
1, 473488, Note_off_c, 0, 63, 37
1, 473504, Control_c, 0, 64, 81
1, 473534, Control_c, 0, 64, 81
1, 473541, Note_off_c, 0, 51, 36
1, 473564, Control_c, 0, 64, 79
1, 473579, Control_c, 0, 64, 76
1, 473594, Control_c, 0, 64, 73
1, 473609, Control_c, 0, 64, 68
1, 473624, Control_c, 0, 64, 64
1, 473639, Control_c, 0, 64, 58
1, 473654, Control_c, 0, 64, 41
1, 473663, Note_on_c, 0, 51, 41
1, 473668, Control_c, 0, 64, 0
1, 473742, Control_c, 0, 64, 21
1, 473757, Control_c, 0, 64, 40
1, 473772, Control_c, 0, 64, 53
1, 473785, Note_off_c, 0, 51, 53
1, 473787, Control_c, 0, 64, 59
1, 473801, Control_c, 0, 64, 62
1, 473824, Control_c, 0, 64, 63
1, 473839, Control_c, 0, 64, 65
1, 473854, Control_c, 0, 64, 67
1, 473868, Control_c, 0, 64, 70
1, 473870, Note_on_c, 0, 51, 45
1, 473883, Control_c, 0, 64, 73
1, 473898, Control_c, 0, 64, 75
1, 473913, Control_c, 0, 64, 76
1, 473927, Control_c, 0, 64, 77
1, 473942, Control_c, 0, 64, 78
1, 473957, Control_c, 0, 64, 79
1, 473972, Control_c, 0, 64, 79
1, 473984, Note_off_c, 0, 51, 54
1, 474113, Note_on_c, 0, 51, 46
1, 474119, Control_c, 0, 64, 79
1, 474134, Control_c, 0, 64, 78
1, 474149, Control_c, 0, 64, 78
1, 474164, Control_c, 0, 64, 77
1, 474193, Control_c, 0, 64, 77
1, 474207, Note_off_c, 0, 51, 51
1, 474223, Control_c, 0, 64, 76
1, 474238, Control_c, 0, 64, 76
1, 474268, Control_c, 0, 64, 75
1, 474283, Control_c, 0, 64, 75
1, 474298, Control_c, 0, 64, 74
1, 474313, Control_c, 0, 64, 72
1, 474327, Control_c, 0, 64, 69
1, 474342, Control_c, 0, 64, 65
1, 474343, Note_on_c, 0, 87, 71
1, 474354, Note_on_c, 0, 51, 40
1, 474357, Control_c, 0, 64, 59
1, 474366, Note_on_c, 0, 75, 43
1, 474372, Control_c, 0, 64, 49
1, 474387, Control_c, 0, 64, 40
1, 474402, Control_c, 0, 64, 41
1, 474417, Control_c, 0, 64, 45
1, 474432, Control_c, 0, 64, 50
1, 474447, Control_c, 0, 64, 58
1, 474462, Control_c, 0, 64, 63
1, 474477, Control_c, 0, 64, 66
1, 474477, Note_off_c, 0, 51, 46
1, 474491, Control_c, 0, 64, 70
1, 474506, Control_c, 0, 64, 74
1, 474521, Control_c, 0, 64, 76
1, 474535, Control_c, 0, 64, 79
1, 474551, Control_c, 0, 64, 81
1, 474573, Control_c, 0, 64, 84
1, 474588, Control_c, 0, 64, 86
1, 474603, Control_c, 0, 64, 89
1, 474617, Note_off_c, 0, 75, 56
1, 474617, Control_c, 0, 64, 91
1, 474623, Note_on_c, 0, 51, 43
1, 474632, Control_c, 0, 64, 94
1, 474647, Control_c, 0, 64, 95
1, 474662, Control_c, 0, 64, 97
1, 474676, Note_off_c, 0, 51, 42
1, 474677, Control_c, 0, 64, 98
1, 474692, Control_c, 0, 64, 99
1, 474706, Control_c, 0, 64, 101
1, 474721, Control_c, 0, 64, 102
1, 474736, Control_c, 0, 64, 103
1, 474751, Control_c, 0, 64, 104
1, 474766, Control_c, 0, 64, 104
1, 474777, Note_off_c, 0, 87, 35
1, 474873, Note_on_c, 0, 51, 42
1, 474923, Note_off_c, 0, 51, 43
1, 474974, Note_on_c, 0, 88, 75
1, 475006, Note_on_c, 0, 76, 54
1, 475076, Control_c, 0, 64, 104
1, 475089, Note_off_c, 0, 76, 57
1, 475091, Control_c, 0, 64, 103
1, 475121, Control_c, 0, 64, 103
1, 475152, Control_c, 0, 64, 102
1, 475166, Control_c, 0, 64, 101
1, 475181, Control_c, 0, 64, 98
1, 475196, Control_c, 0, 64, 95
1, 475211, Control_c, 0, 64, 91
1, 475217, Note_on_c, 0, 51, 39
1, 475220, Note_on_c, 0, 49, 36
1, 475226, Control_c, 0, 64, 84
1, 475228, Note_on_c, 0, 39, 39
1, 475240, Control_c, 0, 64, 76
1, 475243, Note_on_c, 0, 89, 79
1, 475255, Control_c, 0, 64, 68
1, 475257, Note_on_c, 0, 77, 62
1, 475270, Control_c, 0, 64, 61
1, 475285, Control_c, 0, 64, 51
1, 475290, Note_off_c, 0, 88, 59
1, 475299, Control_c, 0, 64, 44
1, 475335, Control_c, 0, 64, 47
1, 475350, Control_c, 0, 64, 50
1, 475365, Control_c, 0, 64, 56
1, 475380, Control_c, 0, 64, 61
1, 475395, Control_c, 0, 64, 63
1, 475410, Control_c, 0, 64, 65
1, 475424, Control_c, 0, 64, 66
1, 475439, Control_c, 0, 64, 68
1, 475454, Control_c, 0, 64, 71
1, 475469, Control_c, 0, 64, 75
1, 475478, Note_off_c, 0, 39, 39
1, 475482, Note_off_c, 0, 51, 40
1, 475484, Control_c, 0, 64, 79
1, 475490, Note_off_c, 0, 49, 37
1, 475498, Control_c, 0, 64, 82
1, 475513, Control_c, 0, 64, 85
1, 475528, Control_c, 0, 64, 87
1, 475543, Control_c, 0, 64, 89
1, 475558, Control_c, 0, 64, 92
1, 475569, Note_on_c, 0, 49, 30
1, 475572, Control_c, 0, 64, 95
1, 475573, Note_on_c, 0, 51, 42
1, 475574, Note_on_c, 0, 39, 39
1, 475587, Control_c, 0, 64, 98
1, 475602, Control_c, 0, 64, 99
1, 475617, Control_c, 0, 64, 100
1, 475632, Control_c, 0, 64, 100
1, 475743, Note_off_c, 0, 51, 40
1, 475746, Note_off_c, 0, 39, 37
1, 475752, Note_off_c, 0, 49, 38
1, 475758, Note_off_c, 0, 77, 52
1, 475823, Note_on_c, 0, 39, 41
1, 475825, Note_on_c, 0, 49, 36
1, 475829, Note_on_c, 0, 51, 43
1, 475984, Note_off_c, 0, 39, 34
1, 475985, Note_off_c, 0, 51, 34
1, 475987, Note_off_c, 0, 49, 33
1, 476069, Control_c, 0, 64, 100
1, 476084, Control_c, 0, 64, 95
1, 476086, Note_on_c, 0, 49, 38
1, 476096, Note_on_c, 0, 51, 45
1, 476099, Control_c, 0, 64, 90
1, 476102, Note_on_c, 0, 39, 41
1, 476113, Control_c, 0, 64, 84
1, 476128, Control_c, 0, 64, 79
1, 476143, Control_c, 0, 64, 77
1, 476202, Control_c, 0, 64, 78
1, 476217, Control_c, 0, 64, 80
1, 476223, Note_off_c, 0, 51, 35
1, 476232, Control_c, 0, 64, 82
1, 476241, Note_off_c, 0, 39, 35
1, 476247, Control_c, 0, 64, 83
1, 476262, Control_c, 0, 64, 84
1, 476292, Control_c, 0, 64, 83
1, 476307, Note_off_c, 0, 49, 0
1, 476307, Control_c, 0, 64, 78
1, 476321, Control_c, 0, 64, 72
1, 476332, Note_on_c, 0, 87, 63
1, 476334, Note_on_c, 0, 39, 32
1, 476336, Control_c, 0, 64, 67
1, 476342, Note_on_c, 0, 51, 23
1, 476343, Note_on_c, 0, 49, 3
1, 476349, Note_on_c, 0, 75, 44
1, 476351, Control_c, 0, 64, 65
1, 476381, Control_c, 0, 64, 66
1, 476395, Control_c, 0, 64, 67
1, 476410, Control_c, 0, 64, 69
1, 476425, Control_c, 0, 64, 72
1, 476437, Note_off_c, 0, 89, 50
1, 476439, Control_c, 0, 64, 73
1, 476454, Control_c, 0, 64, 76
1, 476459, Note_off_c, 0, 75, 62
1, 476469, Control_c, 0, 64, 79
1, 476477, Note_off_c, 0, 51, 40
1, 476484, Note_off_c, 0, 49, 40
1, 476484, Control_c, 0, 64, 82
1, 476487, Note_off_c, 0, 39, 40
1, 476499, Control_c, 0, 64, 86
1, 476513, Control_c, 0, 64, 87
1, 476528, Control_c, 0, 64, 86
1, 476543, Control_c, 0, 64, 80
1, 476558, Control_c, 0, 64, 72
1, 476573, Control_c, 0, 64, 65
1, 476581, Note_on_c, 0, 85, 66
1, 476587, Control_c, 0, 64, 62
1, 476602, Control_c, 0, 64, 63
1, 476608, Note_on_c, 0, 73, 44
1, 476614, Note_on_c, 0, 39, 36
1, 476614, Note_on_c, 0, 49, 30
1, 476617, Note_off_c, 0, 87, 35
1, 476617, Control_c, 0, 64, 64
1, 476620, Note_on_c, 0, 51, 21
1, 476632, Control_c, 0, 64, 66
1, 476647, Control_c, 0, 64, 69
1, 476662, Control_c, 0, 64, 72
1, 476676, Control_c, 0, 64, 75
1, 476691, Control_c, 0, 64, 78
1, 476706, Control_c, 0, 64, 80
1, 476721, Control_c, 0, 64, 82
1, 476732, Note_off_c, 0, 73, 46
1, 476736, Note_off_c, 0, 85, 57
1, 476736, Control_c, 0, 64, 83
1, 476749, Note_off_c, 0, 51, 40
1, 476751, Control_c, 0, 64, 84
1, 476763, Note_off_c, 0, 39, 33
1, 476766, Control_c, 0, 64, 84
1, 476772, Note_off_c, 0, 49, 32
1, 476796, Control_c, 0, 64, 83
1, 476818, Control_c, 0, 64, 79
1, 476833, Control_c, 0, 64, 72
1, 476848, Control_c, 0, 64, 65
1, 476859, Note_on_c, 0, 84, 60
1, 476863, Note_on_c, 0, 49, 20
1, 476863, Control_c, 0, 64, 60
1, 476865, Note_on_c, 0, 39, 22
1, 476878, Control_c, 0, 64, 59
1, 476884, Note_on_c, 0, 51, 31
1, 476886, Note_on_c, 0, 72, 41
1, 476892, Control_c, 0, 64, 61
1, 476907, Control_c, 0, 64, 63
1, 476922, Control_c, 0, 64, 65
1, 476937, Control_c, 0, 64, 69
1, 476951, Control_c, 0, 64, 73
1, 476966, Control_c, 0, 64, 76
1, 476972, Note_off_c, 0, 72, 62
1, 476981, Control_c, 0, 64, 77
1, 476996, Control_c, 0, 64, 79
1, 477011, Control_c, 0, 64, 81
1, 477025, Control_c, 0, 64, 83
1, 477034, Note_off_c, 0, 51, 35
1, 477037, Note_off_c, 0, 39, 39
1, 477040, Control_c, 0, 64, 85
1, 477050, Note_off_c, 0, 49, 37
1, 477055, Control_c, 0, 64, 86
1, 477070, Control_c, 0, 64, 87
1, 477085, Control_c, 0, 64, 86
1, 477091, Note_off_c, 0, 84, 39
1, 477100, Control_c, 0, 64, 81
1, 477115, Control_c, 0, 64, 74
1, 477130, Control_c, 0, 64, 67
1, 477144, Control_c, 0, 64, 60
1, 477147, Note_on_c, 0, 49, 13
1, 477147, Note_on_c, 0, 82, 56
1, 477150, Note_on_c, 0, 39, 28
1, 477154, Note_on_c, 0, 70, 49
1, 477159, Control_c, 0, 64, 56
1, 477161, Note_on_c, 0, 51, 24
1, 477174, Control_c, 0, 64, 58
1, 477189, Control_c, 0, 64, 60
1, 477204, Control_c, 0, 64, 63
1, 477218, Control_c, 0, 64, 65
1, 477233, Control_c, 0, 64, 68
1, 477248, Control_c, 0, 64, 72
1, 477262, Control_c, 0, 64, 75
1, 477269, Note_off_c, 0, 70, 58
1, 477277, Control_c, 0, 64, 77
1, 477292, Control_c, 0, 64, 79
1, 477307, Control_c, 0, 64, 80
1, 477314, Note_off_c, 0, 51, 37
1, 477317, Note_off_c, 0, 39, 39
1, 477317, Note_off_c, 0, 82, 45
1, 477322, Control_c, 0, 64, 82
1, 477327, Note_off_c, 0, 49, 37
1, 477336, Control_c, 0, 64, 83
1, 477351, Control_c, 0, 64, 84
1, 477366, Control_c, 0, 64, 85
1, 477396, Control_c, 0, 64, 83
1, 477410, Control_c, 0, 64, 77
1, 477425, Control_c, 0, 64, 70
1, 477438, Note_on_c, 0, 49, 26
1, 477440, Control_c, 0, 64, 64
1, 477443, Note_on_c, 0, 80, 54
1, 477454, Note_on_c, 0, 39, 34
1, 477455, Control_c, 0, 64, 62
1, 477457, Note_on_c, 0, 51, 31
1, 477460, Note_on_c, 0, 68, 42
1, 477469, Control_c, 0, 64, 62
1, 477484, Control_c, 0, 64, 64
1, 477499, Control_c, 0, 64, 66
1, 477514, Control_c, 0, 64, 70
1, 477530, Control_c, 0, 64, 75
1, 477546, Control_c, 0, 64, 80
1, 477568, Control_c, 0, 64, 83
1, 477583, Control_c, 0, 64, 84
1, 477598, Control_c, 0, 64, 86
1, 477612, Control_c, 0, 64, 87
1, 477620, Note_off_c, 0, 80, 38
1, 477626, Note_off_c, 0, 68, 57
1, 477627, Control_c, 0, 64, 88
1, 477642, Control_c, 0, 64, 89
1, 477648, Note_off_c, 0, 39, 40
1, 477648, Note_off_c, 0, 49, 39
1, 477649, Note_off_c, 0, 51, 38
1, 477657, Control_c, 0, 64, 89
1, 477687, Control_c, 0, 64, 90
1, 477731, Control_c, 0, 64, 87
1, 477746, Control_c, 0, 64, 80
1, 477761, Control_c, 0, 64, 70
1, 477775, Control_c, 0, 64, 63
1, 477782, Note_on_c, 0, 79, 49
1, 477787, Note_on_c, 0, 49, 29
1, 477788, Note_on_c, 0, 67, 39
1, 477789, Note_on_c, 0, 39, 35
1, 477790, Control_c, 0, 64, 58
1, 477807, Note_on_c, 0, 51, 14
1, 477820, Control_c, 0, 64, 60
1, 477835, Control_c, 0, 64, 62
1, 477849, Control_c, 0, 64, 64
1, 477864, Control_c, 0, 64, 68
1, 477879, Control_c, 0, 64, 72
1, 477887, Note_off_c, 0, 79, 50
1, 477893, Control_c, 0, 64, 75
1, 477904, Note_off_c, 0, 67, 49
1, 477908, Control_c, 0, 64, 77
1, 477923, Control_c, 0, 64, 78
1, 477938, Control_c, 0, 64, 79
1, 477953, Control_c, 0, 64, 80
1, 477973, Note_off_c, 0, 39, 36
1, 477982, Note_off_c, 0, 51, 36
1, 477995, Note_off_c, 0, 49, 34
1, 477997, Control_c, 0, 64, 80
1, 478027, Control_c, 0, 64, 81
1, 478086, Control_c, 0, 64, 79
1, 478101, Control_c, 0, 64, 74
1, 478116, Control_c, 0, 64, 67
1, 478129, Note_on_c, 0, 49, 30
1, 478131, Control_c, 0, 64, 61
1, 478139, Note_on_c, 0, 39, 31
1, 478144, Note_on_c, 0, 73, 38
1, 478145, Note_on_c, 0, 85, 47
1, 478146, Control_c, 0, 64, 58
1, 478149, Note_on_c, 0, 51, 21
1, 478160, Control_c, 0, 64, 60
1, 478175, Control_c, 0, 64, 62
1, 478190, Control_c, 0, 64, 65
1, 478205, Control_c, 0, 64, 69
1, 478220, Control_c, 0, 64, 77
1, 478234, Control_c, 0, 64, 92
1, 478249, Control_c, 0, 64, 105
1, 478264, Control_c, 0, 64, 113
1, 478265, Note_off_c, 0, 85, 59
1, 478278, Control_c, 0, 64, 115
1, 478293, Control_c, 0, 64, 118
1, 478299, Note_off_c, 0, 73, 40
1, 478366, Note_off_c, 0, 39, 33
1, 478393, Note_off_c, 0, 51, 35
1, 478402, Note_off_c, 0, 49, 33
1, 478495, Control_c, 0, 64, 114
1, 478510, Control_c, 0, 64, 106
1, 478524, Control_c, 0, 64, 93
1, 478539, Control_c, 0, 64, 81
1, 478548, Note_on_c, 0, 79, 51
1, 478550, Note_on_c, 0, 49, 28
1, 478554, Control_c, 0, 64, 69
1, 478565, Note_on_c, 0, 67, 34
1, 478569, Control_c, 0, 64, 60
1, 478572, Note_on_c, 0, 39, 23
1, 478581, Note_on_c, 0, 51, 7
1, 478584, Control_c, 0, 64, 42
1, 478598, Control_c, 0, 64, 19
1, 478613, Control_c, 0, 64, 23
1, 478628, Control_c, 0, 64, 34
1, 478643, Control_c, 0, 64, 44
1, 478658, Control_c, 0, 64, 54
1, 478672, Control_c, 0, 64, 61
1, 478687, Control_c, 0, 64, 65
1, 478702, Control_c, 0, 64, 68
1, 478716, Control_c, 0, 64, 71
1, 478731, Control_c, 0, 64, 74
1, 478736, Note_off_c, 0, 39, 35
1, 478738, Note_off_c, 0, 51, 37
1, 478746, Control_c, 0, 64, 75
1, 478748, Note_off_c, 0, 79, 53
1, 478761, Control_c, 0, 64, 77
1, 478766, Note_off_c, 0, 49, 31
1, 478776, Control_c, 0, 64, 79
1, 478790, Control_c, 0, 64, 80
1, 478805, Note_off_c, 0, 67, 41
1, 478805, Control_c, 0, 64, 81
1, 478850, Control_c, 0, 64, 81
1, 478983, Control_c, 0, 64, 81
1, 478998, Control_c, 0, 64, 80
1, 479013, Control_c, 0, 64, 78
1, 479028, Control_c, 0, 64, 75
1, 479042, Control_c, 0, 64, 70
1, 479064, Control_c, 0, 64, 65
1, 479071, Note_on_c, 0, 80, 44
1, 479079, Control_c, 0, 64, 59
1, 479082, Note_on_c, 0, 68, 36
1, 479089, Note_on_c, 0, 44, 29
1, 479094, Control_c, 0, 64, 47
1, 479100, Note_on_c, 0, 48, 35
1, 479109, Control_c, 0, 64, 22
1, 479117, Note_on_c, 0, 51, 15
1, 479124, Control_c, 0, 64, 0
1, 479941, Note_off_c, 0, 80, 59
1, 479946, Note_off_c, 0, 48, 36
1, 479949, Note_off_c, 0, 51, 41
1, 479957, Note_off_c, 0, 68, 50
1, 479963, Note_off_c, 0, 44, 42
1, 480525, Control_c, 0, 67, 125
1, 480540, Control_c, 0, 67, 111
1, 480561, Control_c, 0, 67, 95
1, 480576, Control_c, 0, 64, 17
1, 480576, Control_c, 0, 67, 76
1, 480591, Control_c, 0, 64, 46
1, 480591, Control_c, 0, 67, 55
1, 480606, Control_c, 0, 64, 55
1, 480606, Control_c, 0, 67, 35
1, 480620, Control_c, 0, 64, 58
1, 480620, Control_c, 0, 67, 17
1, 480635, Control_c, 0, 64, 59
1, 480635, Control_c, 0, 67, 0
1, 480650, Control_c, 0, 64, 60
1, 480665, Control_c, 0, 64, 62
1, 480680, Control_c, 0, 64, 63
1, 480695, Control_c, 0, 64, 63
1, 480725, Control_c, 0, 64, 64
1, 480784, Control_c, 0, 64, 64
1, 480829, Control_c, 0, 64, 65
1, 480990, Note_on_c, 0, 75, 56
1, 481015, Note_on_c, 0, 67, 44
1, 481020, Note_on_c, 0, 63, 42
1, 481022, Control_c, 0, 64, 64
1, 481027, Note_on_c, 0, 73, 58
1, 481037, Control_c, 0, 64, 64
1, 481051, Control_c, 0, 64, 63
1, 481066, Control_c, 0, 64, 63
1, 481081, Control_c, 0, 64, 62
1, 481096, Control_c, 0, 64, 61
1, 481110, Control_c, 0, 64, 60
1, 481125, Control_c, 0, 64, 60
1, 481140, Control_c, 0, 64, 58
1, 481155, Control_c, 0, 64, 57
1, 481170, Control_c, 0, 64, 55
1, 481184, Control_c, 0, 64, 53
1, 481199, Control_c, 0, 64, 49
1, 481214, Control_c, 0, 64, 47
1, 481228, Control_c, 0, 64, 45
1, 481243, Control_c, 0, 64, 44
1, 481258, Control_c, 0, 64, 43
1, 481371, Note_on_c, 0, 72, 65
1, 481428, Note_off_c, 0, 73, 59
1, 481450, Note_off_c, 0, 75, 10
1, 481549, Control_c, 0, 64, 44
1, 481608, Control_c, 0, 64, 44
1, 481628, Note_on_c, 0, 73, 71
1, 481667, Control_c, 0, 64, 45
1, 481727, Control_c, 0, 64, 45
1, 481755, Note_off_c, 0, 72, 55
1, 481856, Note_on_c, 0, 77, 57
1, 481920, Control_c, 0, 64, 46
1, 481949, Control_c, 0, 64, 45
1, 481964, Control_c, 0, 64, 45
1, 481979, Control_c, 0, 64, 44
1, 481994, Control_c, 0, 64, 44
1, 482008, Control_c, 0, 64, 43
1, 482023, Control_c, 0, 64, 40
1, 482038, Control_c, 0, 64, 37
1, 482060, Control_c, 0, 64, 33
1, 482075, Control_c, 0, 64, 26
1, 482090, Control_c, 0, 64, 17
1, 482105, Control_c, 0, 64, 0
1, 482132, Note_on_c, 0, 75, 50
1, 482136, Note_off_c, 0, 77, 52
1, 482149, Note_off_c, 0, 73, 30
1, 482236, Note_off_c, 0, 75, 63
1, 482409, Note_on_c, 0, 73, 47
1, 482542, Note_off_c, 0, 73, 57
1, 482747, Note_off_c, 0, 67, 31
1, 482755, Note_on_c, 0, 72, 40
1, 482767, Note_on_c, 0, 56, 27
1, 482769, Note_on_c, 0, 68, 29
1, 482903, Note_off_c, 0, 63, 36
1, 483472, Note_off_c, 0, 72, 60
1, 483478, Note_off_c, 0, 56, 40
1, 483488, Note_off_c, 0, 68, 46
1, 484477, Note_on_c, 0, 72, 57
1, 484504, Note_on_c, 0, 61, 37
1, 484510, Note_on_c, 0, 67, 49
1, 484512, Note_on_c, 0, 70, 55
1, 484516, Note_on_c, 0, 51, 34
1, 484592, Note_off_c, 0, 72, 56
1, 484838, Note_on_c, 0, 69, 61
1, 484916, Note_off_c, 0, 70, 59
1, 485090, Note_on_c, 0, 70, 65
1, 485145, Note_off_c, 0, 69, 60
1, 485366, Note_on_c, 0, 73, 60
1, 485386, Note_off_c, 0, 70, 55
1, 485619, Control_c, 0, 67, 10
1, 485621, Note_off_c, 0, 73, 54
1, 485627, Note_on_c, 0, 72, 42
1, 485634, Control_c, 0, 67, 19
1, 485649, Control_c, 0, 67, 26
1, 485664, Control_c, 0, 67, 32
1, 485679, Control_c, 0, 67, 37
1, 485693, Control_c, 0, 67, 43
1, 485708, Control_c, 0, 67, 48
1, 485723, Control_c, 0, 67, 52
1, 485738, Control_c, 0, 67, 55
1, 485753, Control_c, 0, 67, 56
1, 485767, Control_c, 0, 67, 57
1, 485768, Note_off_c, 0, 72, 61
1, 485782, Control_c, 0, 67, 58
1, 485819, Control_c, 0, 67, 58
1, 485939, Note_on_c, 0, 70, 43
1, 485982, Control_c, 0, 67, 58
1, 486012, Control_c, 0, 67, 57
1, 486026, Control_c, 0, 67, 57
1, 486056, Control_c, 0, 67, 56
1, 486066, Note_off_c, 0, 70, 59
1, 486071, Control_c, 0, 67, 56
1, 486115, Control_c, 0, 67, 55
1, 486174, Control_c, 0, 67, 55
1, 486279, Note_off_c, 0, 61, 34
1, 486294, Note_on_c, 0, 68, 44
1, 486303, Note_on_c, 0, 60, 35
1, 486305, Note_on_c, 0, 56, 27
1, 486388, Note_off_c, 0, 67, 34
1, 486447, Note_off_c, 0, 51, 29
1, 487044, Note_off_c, 0, 60, 52
1, 487045, Note_off_c, 0, 68, 37
1, 487057, Note_off_c, 0, 56, 46
1, 487280, Control_c, 0, 67, 54
1, 487302, Control_c, 0, 67, 54
1, 487361, Control_c, 0, 67, 53
1, 487376, Control_c, 0, 67, 53
1, 487391, Control_c, 0, 67, 52
1, 487405, Control_c, 0, 67, 51
1, 487420, Control_c, 0, 67, 50
1, 487435, Control_c, 0, 67, 49
1, 487450, Control_c, 0, 67, 48
1, 487465, Control_c, 0, 67, 46
1, 487479, Control_c, 0, 67, 41
1, 487494, Control_c, 0, 67, 37
1, 487509, Control_c, 0, 67, 30
1, 487524, Control_c, 0, 67, 22
1, 487539, Control_c, 0, 67, 14
1, 487554, Control_c, 0, 67, 0
1, 488048, Note_on_c, 0, 60, 54
1, 488072, Note_on_c, 0, 39, 32
1, 488081, Note_on_c, 0, 49, 42
1, 488081, Note_on_c, 0, 55, 50
1, 488084, Note_on_c, 0, 58, 64
1, 488269, Note_off_c, 0, 60, 37
1, 488466, Note_on_c, 0, 57, 56
1, 488532, Note_off_c, 0, 58, 50
1, 488737, Note_on_c, 0, 58, 62
1, 488820, Note_off_c, 0, 57, 52
1, 489032, Note_on_c, 0, 61, 54
1, 489128, Note_off_c, 0, 58, 37
1, 489286, Note_off_c, 0, 61, 54
1, 489312, Note_on_c, 0, 60, 42
1, 489472, Note_off_c, 0, 60, 55
1, 489593, Control_c, 0, 67, 10
1, 489607, Control_c, 0, 67, 12
1, 489622, Control_c, 0, 67, 15
1, 489637, Control_c, 0, 67, 16
1, 489650, Note_on_c, 0, 58, 40
1, 489652, Control_c, 0, 67, 16
1, 489667, Control_c, 0, 67, 17
1, 489799, Control_c, 0, 67, 17
1, 489803, Note_off_c, 0, 58, 52
1, 489844, Control_c, 0, 67, 18
1, 489933, Control_c, 0, 67, 18
1, 489977, Control_c, 0, 67, 19
1, 489992, Control_c, 0, 67, 20
1, 490007, Control_c, 0, 67, 20
1, 490017, Note_on_c, 0, 56, 35
1, 490022, Control_c, 0, 67, 21
1, 490028, Note_on_c, 0, 44, 22
1, 490034, Note_on_c, 0, 48, 28
1, 490040, Note_off_c, 0, 49, 34
1, 490109, Note_off_c, 0, 39, 32
1, 490126, Control_c, 0, 67, 20
1, 490141, Note_off_c, 0, 55, 33
1, 490170, Control_c, 0, 67, 21
1, 490229, Control_c, 0, 67, 21
1, 490259, Control_c, 0, 67, 22
1, 490295, Control_c, 0, 67, 22
1, 490303, Note_off_c, 0, 48, 53
1, 490309, Note_off_c, 0, 56, 57
1, 490310, Control_c, 0, 67, 25
1, 490326, Control_c, 0, 67, 27
1, 490341, Control_c, 0, 67, 28
1, 490343, Note_off_c, 0, 44, 46
1, 490356, Control_c, 0, 67, 29
1, 490370, Control_c, 0, 67, 30
1, 490385, Control_c, 0, 67, 30
1, 490400, Control_c, 0, 67, 31
1, 490503, Control_c, 0, 67, 31
1, 490518, Control_c, 0, 67, 32
1, 490548, Control_c, 0, 67, 33
1, 490563, Control_c, 0, 67, 36
1, 490577, Control_c, 0, 67, 40
1, 490592, Control_c, 0, 67, 44
1, 490607, Control_c, 0, 67, 49
1, 490621, Control_c, 0, 67, 53
1, 490636, Control_c, 0, 67, 57
1, 490651, Control_c, 0, 67, 61
1, 490666, Control_c, 0, 67, 64
1, 490681, Control_c, 0, 67, 67
1, 490696, Control_c, 0, 67, 70
1, 490711, Control_c, 0, 67, 72
1, 490725, Control_c, 0, 67, 75
1, 490740, Control_c, 0, 67, 78
1, 490755, Control_c, 0, 67, 80
1, 490770, Control_c, 0, 67, 82
1, 490785, Control_c, 0, 67, 85
1, 490800, Control_c, 0, 67, 88
1, 490814, Control_c, 0, 67, 91
1, 490829, Control_c, 0, 67, 93
1, 490844, Control_c, 0, 67, 96
1, 490859, Control_c, 0, 67, 99
1, 490874, Control_c, 0, 67, 100
1, 490888, Control_c, 0, 67, 102
1, 490903, Control_c, 0, 67, 103
1, 490918, Control_c, 0, 67, 105
1, 490933, Control_c, 0, 67, 106
1, 490947, Control_c, 0, 67, 108
1, 490962, Control_c, 0, 67, 110
1, 490977, Control_c, 0, 67, 111
1, 490992, Control_c, 0, 67, 112
1, 491007, Control_c, 0, 67, 113
1, 491022, Control_c, 0, 67, 114
1, 491027, Note_on_c, 0, 56, 35
1, 491044, Note_on_c, 0, 48, 27
1, 491044, Control_c, 0, 67, 115
1, 491047, Note_on_c, 0, 51, 30
1, 491058, Note_on_c, 0, 32, 32
1, 491059, Control_c, 0, 67, 115
1, 491074, Control_c, 0, 67, 116
1, 491283, Control_c, 0, 67, 116
1, 491342, Control_c, 0, 67, 117
1, 491345, Note_off_c, 0, 51, 40
1, 491348, Note_off_c, 0, 48, 40
1, 491354, Note_off_c, 0, 56, 36
1, 491357, Note_off_c, 0, 32, 42
1, 491386, Control_c, 0, 67, 117
1, 491401, Control_c, 0, 67, 118
1, 491416, Control_c, 0, 67, 121
1, 491431, Control_c, 0, 67, 124
1, 491445, Control_c, 0, 67, 126
1, 491460, Control_c, 0, 67, 127
1, 492303, Note_on_c, 0, 56, 34
1, 492310, Note_on_c, 0, 48, 42
1, 492311, Note_on_c, 0, 32, 29
1, 492315, Note_on_c, 0, 44, 24
1, 495618, Note_off_c, 0, 44, 41
1, 495625, Note_off_c, 0, 48, 37
1, 495632, Note_off_c, 0, 32, 43
1, 495662, Note_off_c, 0, 56, 37
1, 496102, Control_c, 0, 67, 120
1, 496116, Control_c, 0, 67, 109
1, 496131, Control_c, 0, 67, 97
1, 496146, Control_c, 0, 67, 86
1, 496160, Control_c, 0, 67, 74
1, 496175, Control_c, 0, 67, 61
1, 496190, Control_c, 0, 67, 47
1, 496205, Control_c, 0, 67, 35
1, 496220, Control_c, 0, 67, 26
1, 496234, Control_c, 0, 67, 18
1, 496249, Control_c, 0, 67, 10
1, 496264, Control_c, 0, 67, 0
1, 496331, Control_c, 0, 64, 12
1, 496346, Control_c, 0, 64, 28
1, 496360, Control_c, 0, 64, 36
1, 496375, Control_c, 0, 64, 42
1, 496390, Control_c, 0, 64, 46
1, 496405, Control_c, 0, 64, 49
1, 496420, Control_c, 0, 64, 53
1, 496434, Control_c, 0, 64, 57
1, 496449, Control_c, 0, 64, 59
1, 496464, Control_c, 0, 64, 61
1, 496479, Control_c, 0, 64, 62
1, 496494, Control_c, 0, 64, 63
1, 496508, Control_c, 0, 64, 63
1, 496523, Control_c, 0, 64, 64
1, 496538, Control_c, 0, 64, 64
1, 496553, Control_c, 0, 64, 65
1, 496568, Control_c, 0, 64, 66
1, 496583, Control_c, 0, 64, 66
1, 496598, Control_c, 0, 64, 67
1, 496613, Control_c, 0, 64, 68
1, 496628, Control_c, 0, 64, 69
1, 496657, Control_c, 0, 64, 69
1, 496747, Control_c, 0, 64, 68
1, 496762, Control_c, 0, 64, 65
1, 496762, Control_c, 0, 67, 15
1, 496776, Control_c, 0, 64, 60
1, 496776, Control_c, 0, 67, 37
1, 496791, Control_c, 0, 64, 38
1, 496791, Control_c, 0, 67, 65
1, 496806, Control_c, 0, 64, 0
1, 496806, Control_c, 0, 67, 92
1, 496821, Control_c, 0, 67, 121
1, 496836, Control_c, 0, 67, 127
1, 496935, Note_on_c, 0, 67, 65
1, 496966, Note_off_c, 0, 67, 63
1, 497042, Note_on_c, 0, 72, 70
1, 497084, Note_off_c, 0, 72, 61
1, 497147, Note_on_c, 0, 74, 69
1, 497174, Note_off_c, 0, 74, 65
1, 497254, Note_on_c, 0, 75, 80
1, 497266, Note_on_c, 0, 48, 44
1, 497379, Note_on_c, 0, 51, 53
1, 497399, Note_off_c, 0, 48, 37
1, 497475, Note_on_c, 0, 55, 54
1, 497526, Note_off_c, 0, 51, 36
1, 497582, Note_on_c, 0, 77, 69
1, 497583, Note_off_c, 0, 55, 59
1, 497584, Note_on_c, 0, 60, 50
1, 497605, Note_off_c, 0, 75, 61
1, 497682, Note_off_c, 0, 60, 55
1, 497689, Note_on_c, 0, 74, 70
1, 497695, Note_on_c, 0, 48, 51
1, 497785, Note_off_c, 0, 77, 51
1, 497797, Note_off_c, 0, 48, 53
1, 497814, Note_on_c, 0, 53, 46
1, 497905, Note_off_c, 0, 53, 56
1, 497913, Note_on_c, 0, 55, 49
1, 498020, Note_on_c, 0, 59, 42
1, 498023, Note_off_c, 0, 55, 54
1, 498026, Note_on_c, 0, 75, 63
1, 498142, Note_off_c, 0, 59, 33
1, 498142, Note_on_c, 0, 48, 41
1, 498151, Note_on_c, 0, 72, 60
1, 498163, Note_off_c, 0, 74, 38
1, 498194, Note_off_c, 0, 75, 56
1, 498250, Note_on_c, 0, 51, 47
1, 498296, Note_off_c, 0, 48, 34
1, 498318, Control_c, 0, 64, 30
1, 498333, Control_c, 0, 64, 50
1, 498348, Control_c, 0, 64, 58
1, 498357, Note_on_c, 0, 55, 58
1, 498363, Control_c, 0, 64, 62
1, 498377, Control_c, 0, 64, 63
1, 498407, Control_c, 0, 64, 64
1, 498411, Note_off_c, 0, 51, 38
1, 498420, Note_off_c, 0, 55, 64
1, 498437, Control_c, 0, 64, 64
1, 498460, Note_off_c, 0, 72, 63
1, 498467, Note_on_c, 0, 60, 58
1, 498539, Note_off_c, 0, 60, 56
1, 498562, Control_c, 0, 64, 64
1, 498572, Note_on_c, 0, 74, 64
1, 498577, Control_c, 0, 64, 63
1, 498589, Note_on_c, 0, 63, 64
1, 498592, Control_c, 0, 64, 63
1, 498594, Note_on_c, 0, 72, 71
1, 498607, Control_c, 0, 64, 62
1, 498622, Control_c, 0, 64, 60
1, 498637, Control_c, 0, 64, 58
1, 498652, Control_c, 0, 64, 56
1, 498667, Control_c, 0, 64, 52
1, 498680, Note_off_c, 0, 63, 61
1, 498681, Control_c, 0, 64, 47
1, 498696, Control_c, 0, 64, 36
1, 498705, Note_on_c, 0, 67, 61
1, 498711, Control_c, 0, 64, 18
1, 498711, Note_on_c, 0, 71, 71
1, 498717, Note_off_c, 0, 74, 60
1, 498726, Control_c, 0, 64, 0
1, 498732, Note_off_c, 0, 72, 62
1, 498800, Note_off_c, 0, 71, 60
1, 498804, Note_on_c, 0, 72, 73
1, 498808, Note_on_c, 0, 63, 62
1, 498843, Note_off_c, 0, 67, 47
1, 498888, Note_on_c, 0, 74, 73
1, 498911, Note_on_c, 0, 62, 62
1, 498940, Note_off_c, 0, 72, 62
1, 498951, Note_off_c, 0, 63, 58
1, 498991, Note_on_c, 0, 77, 73
1, 499002, Note_on_c, 0, 75, 80
1, 499004, Note_on_c, 0, 60, 61
1, 499014, Note_off_c, 0, 74, 63
1, 499042, Note_off_c, 0, 62, 59
1, 499051, Control_c, 0, 67, 123
1, 499066, Control_c, 0, 67, 111
1, 499072, Note_off_c, 0, 77, 60
1, 499078, Note_off_c, 0, 60, 58
1, 499081, Control_c, 0, 67, 101
1, 499091, Note_on_c, 0, 67, 65
1, 499093, Note_off_c, 0, 75, 66
1, 499096, Control_c, 0, 67, 90
1, 499101, Note_on_c, 0, 74, 80
1, 499112, Control_c, 0, 67, 75
1, 499126, Control_c, 0, 67, 54
1, 499141, Control_c, 0, 67, 34
1, 499156, Control_c, 0, 67, 18
1, 499171, Control_c, 0, 67, 0
1, 499194, Note_off_c, 0, 67, 57
1, 499194, Note_on_c, 0, 75, 83
1, 499199, Note_on_c, 0, 63, 62
1, 499204, Note_on_c, 0, 60, 58
1, 499219, Note_off_c, 0, 74, 58
1, 499266, Note_off_c, 0, 60, 61
1, 499292, Note_off_c, 0, 63, 61
1, 499304, Note_on_c, 0, 67, 64
1, 499309, Note_on_c, 0, 77, 76
1, 499360, Note_off_c, 0, 75, 61
1, 499392, Note_off_c, 0, 67, 60
1, 499406, Note_on_c, 0, 79, 81
1, 499407, Note_on_c, 0, 59, 49
1, 499412, Note_off_c, 0, 77, 60
1, 499414, Note_on_c, 0, 62, 49
1, 499428, Note_off_c, 0, 79, 67
1, 499462, Note_off_c, 0, 59, 60
1, 499473, Note_off_c, 0, 62, 55
1, 499510, Note_on_c, 0, 67, 61
1, 499622, Note_off_c, 0, 67, 59
1, 499623, Note_on_c, 0, 79, 78
1, 499641, Note_on_c, 0, 60, 49
1, 499656, Note_on_c, 0, 56, 33
1, 499662, Note_off_c, 0, 79, 62
1, 499718, Note_off_c, 0, 56, 43
1, 499749, Note_off_c, 0, 60, 52
1, 499753, Note_on_c, 0, 67, 53
1, 499906, Note_on_c, 0, 79, 75
1, 499918, Note_on_c, 0, 55, 41
1, 500037, Note_on_c, 0, 59, 45
1, 500037, Note_off_c, 0, 67, 35
1, 500046, Control_c, 0, 64, 12
1, 500061, Control_c, 0, 64, 23
1, 500071, Note_off_c, 0, 55, 36
1, 500076, Control_c, 0, 64, 26
1, 500090, Control_c, 0, 64, 28
1, 500105, Control_c, 0, 64, 30
1, 500120, Control_c, 0, 64, 31
1, 500134, Control_c, 0, 64, 30
1, 500148, Note_on_c, 0, 62, 51
1, 500149, Control_c, 0, 64, 29
1, 500164, Control_c, 0, 64, 28
1, 500179, Control_c, 0, 64, 26
1, 500193, Note_off_c, 0, 59, 58
1, 500194, Control_c, 0, 64, 25
1, 500208, Control_c, 0, 64, 23
1, 500223, Control_c, 0, 64, 19
1, 500238, Note_on_c, 0, 67, 53
1, 500238, Control_c, 0, 64, 0
1, 500298, Note_off_c, 0, 62, 34
1, 500346, Note_on_c, 0, 55, 60
1, 500407, Note_off_c, 0, 67, 41
1, 500416, Control_c, 0, 67, 9
1, 500431, Control_c, 0, 67, 10
1, 500444, Note_on_c, 0, 59, 56
1, 500444, Note_off_c, 0, 79, 59
1, 500446, Control_c, 0, 67, 11
1, 500472, Note_off_c, 0, 55, 39
1, 500490, Control_c, 0, 67, 11
1, 500543, Note_on_c, 0, 77, 80
1, 500549, Control_c, 0, 67, 11
1, 500562, Note_on_c, 0, 62, 54
1, 500564, Control_c, 0, 67, 10
1, 500579, Control_c, 0, 67, 9
1, 500593, Note_off_c, 0, 59, 39
1, 500594, Control_c, 0, 67, 8
1, 500608, Control_c, 0, 67, 0
1, 500640, Note_on_c, 0, 79, 76
1, 500643, Note_on_c, 0, 67, 54
1, 500649, Note_off_c, 0, 77, 62
1, 500658, Note_off_c, 0, 62, 52
1, 500669, Note_off_c, 0, 79, 59
1, 500747, Note_off_c, 0, 67, 53
1, 500753, Note_on_c, 0, 77, 71
1, 500777, Note_on_c, 0, 53, 51
1, 500798, Note_on_c, 0, 79, 73
1, 500831, Note_off_c, 0, 77, 60
1, 500837, Control_c, 0, 67, 9
1, 500851, Note_on_c, 0, 80, 79
1, 500852, Control_c, 0, 67, 10
1, 500867, Control_c, 0, 67, 11
1, 500882, Control_c, 0, 64, 17
1, 500882, Control_c, 0, 67, 13
1, 500897, Control_c, 0, 64, 24
1, 500897, Control_c, 0, 67, 16
1, 500911, Control_c, 0, 64, 28
1, 500911, Control_c, 0, 67, 21
1, 500914, Note_on_c, 0, 56, 54
1, 500926, Control_c, 0, 64, 31
1, 500926, Control_c, 0, 67, 25
1, 500935, Note_off_c, 0, 79, 54
1, 500941, Control_c, 0, 64, 34
1, 500941, Control_c, 0, 67, 29
1, 500956, Control_c, 0, 64, 34
1, 500956, Control_c, 0, 67, 33
1, 500956, Note_off_c, 0, 53, 38
1, 500971, Control_c, 0, 64, 35
1, 500971, Control_c, 0, 67, 36
1, 500986, Control_c, 0, 67, 39
1, 501001, Control_c, 0, 67, 41
1, 501016, Control_c, 0, 64, 34
1, 501016, Control_c, 0, 67, 44
1, 501021, Note_on_c, 0, 59, 45
1, 501030, Control_c, 0, 64, 34
1, 501030, Control_c, 0, 67, 47
1, 501040, Note_off_c, 0, 56, 52
1, 501045, Control_c, 0, 64, 33
1, 501045, Control_c, 0, 67, 51
1, 501060, Control_c, 0, 64, 32
1, 501060, Control_c, 0, 67, 53
1, 501075, Control_c, 0, 64, 31
1, 501075, Control_c, 0, 67, 55
1, 501090, Control_c, 0, 64, 29
1, 501090, Control_c, 0, 67, 56
1, 501104, Control_c, 0, 64, 28
1, 501104, Control_c, 0, 67, 57
1, 501119, Control_c, 0, 64, 26
1, 501121, Note_on_c, 0, 62, 54
1, 501128, Note_off_c, 0, 59, 59
1, 501134, Control_c, 0, 64, 23
1, 501148, Control_c, 0, 64, 17
1, 501163, Control_c, 0, 64, 0
1, 501224, Note_on_c, 0, 74, 57
1, 501245, Note_on_c, 0, 53, 42
1, 501266, Note_off_c, 0, 62, 35
1, 501309, Note_off_c, 0, 80, 60
1, 501342, Note_on_c, 0, 56, 54
1, 501344, Note_off_c, 0, 74, 65
1, 501373, Note_off_c, 0, 53, 58
1, 501400, Control_c, 0, 67, 56
1, 501415, Control_c, 0, 67, 55
1, 501427, Note_on_c, 0, 59, 52
1, 501430, Control_c, 0, 67, 54
1, 501439, Note_on_c, 0, 75, 75
1, 501445, Control_c, 0, 67, 53
1, 501450, Note_off_c, 0, 56, 50
1, 501460, Control_c, 0, 67, 52
1, 501474, Control_c, 0, 67, 51
1, 501490, Control_c, 0, 67, 50
1, 501506, Control_c, 0, 67, 49
1, 501528, Control_c, 0, 67, 49
1, 501533, Note_on_c, 0, 62, 61
1, 501536, Note_on_c, 0, 77, 77
1, 501549, Note_off_c, 0, 75, 64
1, 501571, Note_off_c, 0, 59, 47
1, 501584, Note_off_c, 0, 77, 62
1, 501632, Control_c, 0, 67, 49
1, 501647, Control_c, 0, 67, 50
1, 501656, Note_on_c, 0, 75, 66
1, 501661, Control_c, 0, 67, 50
1, 501676, Control_c, 0, 67, 51
1, 501679, Note_on_c, 0, 51, 52
1, 501691, Control_c, 0, 67, 53
1, 501696, Note_off_c, 0, 62, 37
1, 501699, Note_on_c, 0, 77, 79
1, 501705, Control_c, 0, 67, 54
1, 501720, Control_c, 0, 67, 56
1, 501735, Control_c, 0, 67, 57
1, 501743, Note_on_c, 0, 79, 85
1, 501750, Control_c, 0, 67, 61
1, 501752, Note_off_c, 0, 75, 62
1, 501765, Control_c, 0, 64, 10
1, 501765, Control_c, 0, 67, 68
1, 501778, Note_on_c, 0, 55, 54
1, 501779, Control_c, 0, 64, 19
1, 501779, Control_c, 0, 67, 78
1, 501794, Control_c, 0, 64, 23
1, 501794, Control_c, 0, 67, 88
1, 501809, Control_c, 0, 64, 26
1, 501809, Control_c, 0, 67, 97
1, 501824, Control_c, 0, 64, 28
1, 501824, Control_c, 0, 67, 107
1, 501839, Control_c, 0, 64, 31
1, 501839, Control_c, 0, 67, 115
1, 501848, Note_off_c, 0, 51, 45
1, 501848, Note_off_c, 0, 77, 39
1, 501853, Control_c, 0, 64, 32
1, 501853, Control_c, 0, 67, 124
1, 501868, Control_c, 0, 64, 33
1, 501868, Control_c, 0, 67, 127
1, 501882, Note_on_c, 0, 60, 59
1, 501915, Note_off_c, 0, 55, 57
1, 501928, Control_c, 0, 64, 32
1, 501943, Control_c, 0, 64, 31
1, 501957, Control_c, 0, 64, 29
1, 501962, Note_off_c, 0, 60, 61
1, 501970, Note_on_c, 0, 63, 63
1, 501972, Control_c, 0, 64, 28
1, 501987, Control_c, 0, 64, 25
1, 502002, Control_c, 0, 64, 22
1, 502017, Control_c, 0, 64, 15
1, 502032, Control_c, 0, 64, 0
1, 502078, Note_off_c, 0, 63, 53
1, 502083, Note_on_c, 0, 56, 61
1, 502095, Note_on_c, 0, 72, 63
1, 502123, Note_off_c, 0, 79, 57
1, 502129, Note_off_c, 0, 72, 65
1, 502191, Note_on_c, 0, 60, 55
1, 502193, Note_off_c, 0, 56, 58
1, 502298, Note_on_c, 0, 63, 65
1, 502306, Note_on_c, 0, 72, 75
1, 502328, Note_off_c, 0, 60, 57
1, 502385, Note_off_c, 0, 72, 60
1, 502394, Note_off_c, 0, 63, 62
1, 502397, Note_on_c, 0, 74, 67
1, 502398, Note_on_c, 0, 66, 61
1, 502431, Note_off_c, 0, 66, 63
1, 502431, Note_off_c, 0, 74, 62
1, 502498, Note_on_c, 0, 55, 66
1, 502501, Note_on_c, 0, 75, 81
1, 502550, Note_off_c, 0, 75, 66
1, 502601, Note_on_c, 0, 60, 63
1, 502624, Note_off_c, 0, 55, 57
1, 502696, Note_on_c, 0, 63, 60
1, 502715, Note_on_c, 0, 75, 77
1, 502736, Note_off_c, 0, 60, 54
1, 502790, Note_off_c, 0, 63, 62
1, 502795, Note_on_c, 0, 67, 56
1, 502810, Note_on_c, 0, 77, 67
1, 502810, Note_off_c, 0, 75, 55
1, 502882, Note_off_c, 0, 77, 59
1, 502910, Note_on_c, 0, 74, 74
1, 502925, Note_on_c, 0, 55, 60
1, 502943, Note_off_c, 0, 67, 35
1, 502960, Note_off_c, 0, 74, 63
1, 503031, Note_on_c, 0, 59, 57
1, 503043, Note_off_c, 0, 55, 60
1, 503118, Note_off_c, 0, 59, 59
1, 503134, Note_on_c, 0, 62, 58
1, 503144, Note_on_c, 0, 74, 71
1, 503232, Note_off_c, 0, 62, 56
1, 503244, Note_on_c, 0, 67, 56
1, 503244, Note_on_c, 0, 75, 61
1, 503251, Note_off_c, 0, 74, 55
1, 503302, Note_off_c, 0, 67, 52
1, 503362, Note_off_c, 0, 75, 59
1, 503364, Note_on_c, 0, 72, 62
1, 503473, Note_on_c, 0, 48, 44
1, 503543, Control_c, 0, 67, 124
1, 503558, Control_c, 0, 67, 119
1, 503573, Control_c, 0, 67, 114
1, 503583, Note_on_c, 0, 51, 56
1, 503588, Control_c, 0, 67, 106
1, 503603, Control_c, 0, 67, 97
1, 503618, Control_c, 0, 67, 86
1, 503619, Note_off_c, 0, 48, 53
1, 503633, Control_c, 0, 67, 75
1, 503648, Control_c, 0, 67, 63
1, 503663, Control_c, 0, 67, 46
1, 503677, Control_c, 0, 67, 31
1, 503684, Note_on_c, 0, 55, 57
1, 503692, Control_c, 0, 67, 16
1, 503707, Control_c, 0, 67, 0
1, 503725, Note_off_c, 0, 72, 62
1, 503737, Note_off_c, 0, 51, 51
1, 503804, Note_on_c, 0, 60, 72
1, 503815, Note_off_c, 0, 55, 61
1, 503960, Note_off_c, 0, 60, 60
1, 504026, Note_on_c, 0, 77, 72
1, 504119, Note_on_c, 0, 79, 75
1, 504163, Note_off_c, 0, 77, 61
1, 504188, Note_off_c, 0, 79, 57
1, 504247, Note_on_c, 0, 80, 88
1, 504263, Note_on_c, 0, 68, 70
1, 504373, Note_on_c, 0, 41, 59
1, 504491, Note_on_c, 0, 47, 63
1, 504527, Note_off_c, 0, 41, 60
1, 504557, Note_off_c, 0, 47, 65
1, 504588, Note_on_c, 0, 50, 64
1, 504652, Note_off_c, 0, 50, 60
1, 504705, Note_on_c, 0, 53, 64
1, 504709, Note_on_c, 0, 74, 72
1, 504786, Note_off_c, 0, 68, 62
1, 504795, Note_off_c, 0, 80, 53
1, 504809, Note_on_c, 0, 56, 61
1, 504813, Note_off_c, 0, 74, 63
1, 504818, Note_off_c, 0, 53, 56
1, 504897, Note_off_c, 0, 56, 62
1, 504914, Note_on_c, 0, 55, 72
1, 504935, Note_on_c, 0, 75, 77
1, 505028, Note_on_c, 0, 77, 77
1, 505028, Note_on_c, 0, 53, 70
1, 505031, Note_off_c, 0, 55, 61
1, 505045, Note_off_c, 0, 75, 64
1, 505086, Note_off_c, 0, 53, 64
1, 505088, Note_off_c, 0, 77, 61
1, 505129, Control_c, 0, 64, 8
1, 505144, Note_on_c, 0, 79, 91
1, 505144, Control_c, 0, 64, 12
1, 505159, Control_c, 0, 64, 14
1, 505161, Note_on_c, 0, 67, 73
1, 505204, Control_c, 0, 64, 15
1, 505253, Note_on_c, 0, 39, 69
1, 505315, Control_c, 0, 64, 18
1, 505330, Control_c, 0, 64, 20
1, 505345, Control_c, 0, 64, 22
1, 505360, Control_c, 0, 64, 23
1, 505369, Note_on_c, 0, 43, 68
1, 505375, Control_c, 0, 64, 25
1, 505390, Control_c, 0, 64, 26
1, 505404, Control_c, 0, 64, 25
1, 505410, Note_off_c, 0, 39, 59
1, 505419, Control_c, 0, 64, 23
1, 505427, Note_off_c, 0, 43, 63
1, 505434, Control_c, 0, 64, 21
1, 505448, Control_c, 0, 64, 18
1, 505451, Note_on_c, 0, 48, 71
1, 505463, Control_c, 0, 64, 15
1, 505478, Control_c, 0, 64, 8
1, 505494, Control_c, 0, 64, 0
1, 505494, Control_c, 0, 67, 10
1, 505509, Control_c, 0, 67, 17
1, 505524, Control_c, 0, 67, 24
1, 505526, Note_off_c, 0, 48, 59
1, 505539, Control_c, 0, 67, 30
1, 505553, Control_c, 0, 67, 36
1, 505567, Note_on_c, 0, 72, 76
1, 505568, Control_c, 0, 67, 41
1, 505574, Note_on_c, 0, 51, 67
1, 505583, Control_c, 0, 67, 44
1, 505597, Note_off_c, 0, 67, 56
1, 505598, Control_c, 0, 67, 47
1, 505611, Note_off_c, 0, 79, 58
1, 505613, Control_c, 0, 67, 48
1, 505622, Note_off_c, 0, 72, 64
1, 505627, Control_c, 0, 67, 49
1, 505642, Control_c, 0, 67, 49
1, 505657, Control_c, 0, 67, 50
1, 505672, Control_c, 0, 67, 50
1, 505678, Note_on_c, 0, 55, 69
1, 505687, Control_c, 0, 67, 51
1, 505688, Note_off_c, 0, 51, 60
1, 505702, Control_c, 0, 67, 53
1, 505716, Control_c, 0, 67, 56
1, 505731, Control_c, 0, 67, 60
1, 505746, Control_c, 0, 67, 65
1, 505753, Note_off_c, 0, 55, 63
1, 505761, Control_c, 0, 67, 70
1, 505776, Control_c, 0, 67, 76
1, 505776, Note_on_c, 0, 56, 64
1, 505781, Note_on_c, 0, 72, 78
1, 505791, Control_c, 0, 67, 82
1, 505806, Control_c, 0, 67, 87
1, 505820, Control_c, 0, 67, 91
1, 505835, Control_c, 0, 67, 94
1, 505850, Control_c, 0, 67, 97
1, 505864, Control_c, 0, 67, 98
1, 505868, Note_off_c, 0, 56, 53
1, 505876, Note_on_c, 0, 54, 67
1, 505879, Note_on_c, 0, 74, 67
1, 505879, Control_c, 0, 67, 99
1, 505894, Control_c, 0, 67, 99
1, 505909, Control_c, 0, 67, 100
1, 505920, Note_off_c, 0, 72, 31
1, 505922, Note_off_c, 0, 54, 56
1, 505924, Control_c, 0, 67, 100
1, 505926, Note_off_c, 0, 74, 63
1, 505938, Control_c, 0, 67, 101
1, 505953, Control_c, 0, 67, 101
1, 505968, Control_c, 0, 67, 103
1, 505983, Control_c, 0, 67, 106
1, 505989, Note_on_c, 0, 43, 70
1, 505990, Note_on_c, 0, 75, 77
1, 505998, Control_c, 0, 67, 109
1, 506020, Control_c, 0, 67, 113
1, 506035, Control_c, 0, 67, 118
1, 506045, Note_off_c, 0, 75, 65
1, 506050, Control_c, 0, 67, 122
1, 506065, Note_off_c, 0, 43, 62
1, 506065, Control_c, 0, 67, 127
1, 506079, Control_c, 0, 67, 127
1, 506105, Note_on_c, 0, 55, 61
1, 506199, Note_off_c, 0, 55, 42
1, 506202, Note_on_c, 0, 60, 69
1, 506208, Note_on_c, 0, 75, 77
1, 506268, Note_off_c, 0, 60, 59
1, 506306, Note_on_c, 0, 77, 76
1, 506317, Note_on_c, 0, 55, 62
1, 506321, Note_off_c, 0, 75, 61
1, 506363, Note_off_c, 0, 55, 56
1, 506363, Note_off_c, 0, 77, 57
1, 506412, Note_on_c, 0, 74, 75
1, 506413, Note_on_c, 0, 43, 68
1, 506442, Note_off_c, 0, 74, 64
1, 506476, Note_off_c, 0, 43, 61
1, 506515, Note_on_c, 0, 55, 60
1, 506612, Note_off_c, 0, 55, 57
1, 506614, Control_c, 0, 67, 127
1, 506617, Note_on_c, 0, 59, 68
1, 506627, Note_on_c, 0, 74, 74
1, 506629, Control_c, 0, 67, 125
1, 506643, Control_c, 0, 67, 123
1, 506658, Control_c, 0, 67, 121
1, 506673, Control_c, 0, 67, 117
1, 506687, Control_c, 0, 67, 111
1, 506702, Control_c, 0, 67, 101
1, 506705, Note_off_c, 0, 59, 61
1, 506717, Control_c, 0, 67, 86
1, 506724, Note_on_c, 0, 55, 62
1, 506724, Note_on_c, 0, 75, 71
1, 506732, Control_c, 0, 67, 65
1, 506747, Control_c, 0, 67, 43
1, 506754, Note_off_c, 0, 74, 55
1, 506769, Control_c, 0, 67, 24
1, 506784, Control_c, 0, 67, 10
1, 506797, Note_off_c, 0, 75, 66
1, 506798, Control_c, 0, 67, 0
1, 506821, Note_off_c, 0, 55, 61
1, 506823, Note_on_c, 0, 48, 70
1, 506838, Note_on_c, 0, 72, 69
1, 506891, Note_off_c, 0, 48, 61
1, 506926, Note_off_c, 0, 72, 61
1, 506929, Note_on_c, 0, 60, 64
1, 507026, Note_off_c, 0, 60, 60
1, 507035, Note_on_c, 0, 82, 88
1, 507046, Note_on_c, 0, 59, 58
1, 507104, Note_off_c, 0, 59, 60
1, 507146, Note_on_c, 0, 60, 65
1, 507170, Control_c, 0, 64, 14
1, 507184, Control_c, 0, 64, 26
1, 507199, Control_c, 0, 64, 36
1, 507214, Control_c, 0, 64, 45
1, 507229, Control_c, 0, 64, 52
1, 507244, Control_c, 0, 64, 58
1, 507252, Note_off_c, 0, 60, 57
1, 507253, Note_on_c, 0, 52, 62
1, 507259, Control_c, 0, 64, 62
1, 507273, Control_c, 0, 64, 63
1, 507288, Control_c, 0, 64, 64
1, 507303, Control_c, 0, 64, 64
1, 507317, Control_c, 0, 64, 65
1, 507332, Control_c, 0, 64, 67
1, 507335, Note_off_c, 0, 82, 57
1, 507347, Control_c, 0, 64, 69
1, 507362, Control_c, 0, 64, 70
1, 507364, Note_off_c, 0, 52, 65
1, 507365, Note_on_c, 0, 60, 63
1, 507377, Control_c, 0, 64, 71
1, 507392, Control_c, 0, 64, 72
1, 507407, Control_c, 0, 64, 72
1, 507421, Control_c, 0, 64, 73
1, 507445, Note_off_c, 0, 60, 59
1, 507451, Control_c, 0, 64, 72
1, 507463, Note_on_c, 0, 55, 60
1, 507466, Note_on_c, 0, 82, 91
1, 507466, Control_c, 0, 64, 71
1, 507481, Control_c, 0, 64, 68
1, 507496, Control_c, 0, 64, 64
1, 507517, Control_c, 0, 64, 61
1, 507532, Control_c, 0, 64, 55
1, 507547, Note_off_c, 0, 55, 62
1, 507547, Control_c, 0, 64, 51
1, 507562, Control_c, 0, 64, 48
1, 507573, Note_on_c, 0, 60, 64
1, 507577, Control_c, 0, 64, 47
1, 507591, Control_c, 0, 64, 45
1, 507621, Control_c, 0, 64, 46
1, 507636, Control_c, 0, 64, 47
1, 507651, Control_c, 0, 64, 48
1, 507666, Control_c, 0, 64, 49
1, 507674, Note_off_c, 0, 60, 58
1, 507681, Control_c, 0, 64, 50
1, 507683, Note_on_c, 0, 53, 60
1, 507696, Control_c, 0, 64, 51
1, 507711, Control_c, 0, 64, 52
1, 507725, Control_c, 0, 64, 53
1, 507740, Control_c, 0, 64, 54
1, 507755, Control_c, 0, 64, 54
1, 507765, Note_off_c, 0, 53, 57
1, 507783, Note_on_c, 0, 60, 64
1, 507799, Note_on_c, 0, 80, 67
1, 507799, Control_c, 0, 64, 54
1, 507814, Control_c, 0, 64, 53
1, 507843, Control_c, 0, 64, 53
1, 507858, Control_c, 0, 64, 51
1, 507863, Note_off_c, 0, 60, 58
1, 507873, Note_off_c, 0, 82, 58
1, 507873, Control_c, 0, 64, 49
1, 507887, Note_on_c, 0, 56, 51
1, 507889, Control_c, 0, 64, 46
1, 507892, Note_off_c, 0, 80, 63
1, 507904, Note_on_c, 0, 79, 67
1, 507904, Control_c, 0, 64, 42
1, 507919, Control_c, 0, 64, 37
1, 507934, Control_c, 0, 64, 29
1, 507948, Control_c, 0, 64, 14
1, 507958, Note_off_c, 0, 56, 59
1, 507963, Control_c, 0, 64, 0
1, 507988, Note_on_c, 0, 60, 59
1, 507998, Note_on_c, 0, 77, 81
1, 508014, Note_off_c, 0, 79, 61
1, 508022, Control_c, 0, 67, 13
1, 508037, Control_c, 0, 67, 20
1, 508052, Control_c, 0, 67, 28
1, 508058, Note_off_c, 0, 60, 56
1, 508066, Control_c, 0, 67, 35
1, 508081, Control_c, 0, 67, 42
1, 508094, Note_on_c, 0, 55, 65
1, 508096, Control_c, 0, 67, 46
1, 508106, Note_on_c, 0, 75, 80
1, 508111, Control_c, 0, 67, 49
1, 508136, Note_off_c, 0, 77, 56
1, 508170, Control_c, 0, 67, 48
1, 508185, Control_c, 0, 67, 47
1, 508188, Note_off_c, 0, 75, 62
1, 508200, Note_on_c, 0, 65, 62
1, 508200, Control_c, 0, 67, 45
1, 508202, Note_on_c, 0, 74, 73
1, 508207, Note_off_c, 0, 55, 62
1, 508214, Control_c, 0, 67, 44
1, 508229, Control_c, 0, 67, 43
1, 508245, Control_c, 0, 67, 42
1, 508267, Control_c, 0, 67, 40
1, 508282, Control_c, 0, 67, 38
1, 508286, Note_off_c, 0, 65, 58
1, 508297, Control_c, 0, 67, 35
1, 508305, Note_on_c, 0, 59, 61
1, 508311, Note_on_c, 0, 72, 72
1, 508312, Control_c, 0, 67, 31
1, 508313, Note_off_c, 0, 74, 62
1, 508327, Control_c, 0, 67, 26
1, 508341, Control_c, 0, 67, 19
1, 508345, Note_off_c, 0, 59, 59
1, 508356, Control_c, 0, 67, 10
1, 508371, Control_c, 0, 67, 0
1, 508397, Note_on_c, 0, 65, 62
1, 508419, Note_on_c, 0, 71, 69
1, 508438, Note_off_c, 0, 72, 62
1, 508472, Note_off_c, 0, 65, 61
1, 508492, Note_off_c, 0, 71, 57
1, 508507, Note_on_c, 0, 56, 68
1, 508513, Note_on_c, 0, 72, 71
1, 508547, Note_off_c, 0, 72, 61
1, 508608, Note_off_c, 0, 56, 57
1, 508614, Note_on_c, 0, 63, 70
1, 508704, Note_off_c, 0, 63, 63
1, 508713, Note_on_c, 0, 84, 95
1, 508718, Note_on_c, 0, 60, 66
1, 508728, Note_on_c, 0, 72, 80
1, 508802, Control_c, 0, 64, 17
1, 508814, Note_off_c, 0, 60, 62
1, 508817, Control_c, 0, 64, 33
1, 508823, Note_on_c, 0, 63, 71
1, 508831, Control_c, 0, 64, 42
1, 508846, Control_c, 0, 64, 46
1, 508861, Control_c, 0, 64, 48
1, 508876, Control_c, 0, 64, 50
1, 508890, Control_c, 0, 64, 51
1, 508905, Control_c, 0, 64, 53
1, 508911, Note_off_c, 0, 63, 55
1, 508916, Note_on_c, 0, 55, 69
1, 508920, Control_c, 0, 64, 57
1, 508935, Control_c, 0, 64, 60
1, 508950, Control_c, 0, 64, 61
1, 508951, Note_off_c, 0, 72, 57
1, 508964, Control_c, 0, 64, 61
1, 508979, Control_c, 0, 64, 62
1, 508993, Control_c, 0, 64, 63
1, 509016, Control_c, 0, 64, 64
1, 509027, Note_on_c, 0, 64, 74
1, 509031, Control_c, 0, 64, 64
1, 509056, Note_off_c, 0, 55, 59
1, 509075, Control_c, 0, 64, 65
1, 509122, Note_off_c, 0, 64, 62
1, 509124, Note_on_c, 0, 82, 91
1, 509129, Note_on_c, 0, 60, 69
1, 509149, Control_c, 0, 64, 64
1, 509178, Control_c, 0, 64, 64
1, 509193, Control_c, 0, 64, 63
1, 509206, Note_off_c, 0, 84, 0
1, 509208, Control_c, 0, 64, 63
1, 509222, Note_off_c, 0, 60, 59
1, 509230, Note_on_c, 0, 64, 76
1, 509237, Control_c, 0, 64, 62
1, 509243, Poly_aftertouch_c, 0, 84, 127
1, 509252, Control_c, 0, 64, 62
1, 509267, Control_c, 0, 64, 61
1, 509296, Control_c, 0, 64, 61
1, 509311, Control_c, 0, 64, 60
1, 509312, Note_off_c, 0, 64, 59
1, 509325, Poly_aftertouch_c, 0, 84, 0
1, 509326, Control_c, 0, 64, 59
1, 509327, Note_on_c, 0, 53, 79
1, 509341, Control_c, 0, 64, 58
1, 509356, Control_c, 0, 64, 56
1, 509371, Control_c, 0, 64, 52
1, 509386, Control_c, 0, 64, 47
1, 509401, Control_c, 0, 64, 42
1, 509415, Control_c, 0, 64, 36
1, 509430, Note_off_c, 0, 53, 61
1, 509430, Control_c, 0, 64, 30
1, 509431, Note_on_c, 0, 65, 70
1, 509444, Note_on_c, 0, 80, 81
1, 509445, Control_c, 0, 64, 23
1, 509460, Control_c, 0, 64, 10
1, 509475, Control_c, 0, 64, 0
1, 509532, Note_off_c, 0, 65, 60
1, 509545, Note_on_c, 0, 60, 65
1, 509553, Note_on_c, 0, 79, 80
1, 509555, Note_off_c, 0, 80, 62
1, 509562, Note_off_c, 0, 82, 56
1, 509611, Note_off_c, 0, 60, 59
1, 509647, Note_on_c, 0, 65, 69
1, 509656, Note_on_c, 0, 77, 86
1, 509672, Note_off_c, 0, 79, 60
1, 509698, Control_c, 0, 67, 10
1, 509712, Control_c, 0, 67, 19
1, 509722, Note_off_c, 0, 65, 58
1, 509727, Control_c, 0, 67, 31
1, 509742, Control_c, 0, 67, 42
1, 509754, Note_on_c, 0, 55, 75
1, 509764, Control_c, 0, 67, 52
1, 509766, Note_on_c, 0, 75, 90
1, 509779, Control_c, 0, 67, 61
1, 509794, Control_c, 0, 67, 67
1, 509799, Note_off_c, 0, 77, 56
1, 509809, Control_c, 0, 67, 69
1, 509824, Control_c, 0, 67, 70
1, 509836, Note_off_c, 0, 55, 62
1, 509838, Control_c, 0, 67, 70
1, 509859, Note_on_c, 0, 67, 73
1, 509863, Note_on_c, 0, 74, 85
1, 509873, Note_off_c, 0, 75, 61
1, 509937, Note_off_c, 0, 67, 59
1, 509959, Note_on_c, 0, 72, 84
1, 509972, Control_c, 0, 67, 70
1, 509973, Note_off_c, 0, 74, 63
1, 509974, Note_on_c, 0, 55, 68
1, 509986, Control_c, 0, 67, 69
1, 510001, Control_c, 0, 67, 68
1, 510016, Control_c, 0, 67, 67
1, 510031, Control_c, 0, 67, 66
1, 510045, Control_c, 0, 67, 65
1, 510049, Note_on_c, 0, 71, 82
1, 510052, Note_on_c, 0, 67, 66
1, 510060, Control_c, 0, 67, 64
1, 510075, Control_c, 0, 67, 63
1, 510080, Note_off_c, 0, 72, 60
1, 510086, Note_off_c, 0, 55, 55
1, 510105, Control_c, 0, 67, 63
1, 510119, Note_off_c, 0, 67, 58
1, 510134, Control_c, 0, 67, 62
1, 510149, Control_c, 0, 67, 61
1, 510158, Note_on_c, 0, 72, 93
1, 510161, Note_off_c, 0, 71, 45
1, 510164, Control_c, 0, 67, 58
1, 510166, Note_on_c, 0, 60, 71
1, 510179, Control_c, 0, 67, 49
1, 510193, Note_off_c, 0, 60, 64
1, 510194, Control_c, 0, 67, 35
1, 510196, Note_off_c, 0, 72, 69
1, 510209, Control_c, 0, 67, 16
1, 510224, Control_c, 0, 67, 0
1, 510346, Note_on_c, 0, 75, 84
1, 510382, Note_on_c, 0, 55, 72
1, 510382, Note_on_c, 0, 59, 70
1, 510390, Note_off_c, 0, 75, 63
1, 510399, Note_on_c, 0, 74, 74
1, 510412, Note_off_c, 0, 59, 63
1, 510420, Note_off_c, 0, 55, 64
1, 510429, Note_off_c, 0, 74, 59
1, 510444, Note_on_c, 0, 75, 55
1, 510473, Note_off_c, 0, 75, 68
1, 510480, Note_on_c, 0, 74, 34
1, 510516, Note_off_c, 0, 74, 55
1, 510527, Note_on_c, 0, 72, 66
1, 510551, Note_on_c, 0, 74, 73
1, 510555, Note_off_c, 0, 72, 64
1, 510582, Note_on_c, 0, 75, 95
1, 510588, Note_on_c, 0, 60, 81
1, 510592, Note_on_c, 0, 48, 76
1, 510603, Note_off_c, 0, 74, 68
1, 510608, Note_off_c, 0, 60, 69
1, 510617, Note_off_c, 0, 75, 70
1, 510620, Note_off_c, 0, 48, 66
1, 510798, Note_on_c, 0, 71, 87
1, 510799, Note_on_c, 0, 74, 80
1, 510799, Note_on_c, 0, 83, 89
1, 510803, Note_on_c, 0, 43, 88
1, 510806, Note_on_c, 0, 55, 80
1, 510817, Note_off_c, 0, 74, 72
1, 510829, Note_off_c, 0, 55, 70
1, 510835, Note_off_c, 0, 43, 65
1, 510847, Note_off_c, 0, 83, 60
1, 510849, Note_off_c, 0, 71, 53
1, 511031, Note_on_c, 0, 84, 95
1, 511034, Note_on_c, 0, 72, 93
1, 511037, Note_on_c, 0, 75, 94
1, 511038, Note_on_c, 0, 48, 94
1, 511040, Note_on_c, 0, 36, 91
1, 511102, Note_off_c, 0, 36, 60
1, 511110, Note_off_c, 0, 84, 61
1, 511112, Note_off_c, 0, 48, 55
1, 511130, Note_off_c, 0, 72, 64
1, 511166, Note_off_c, 0, 75, 63
1, 511985, Note_on_c, 0, 64, 86
1, 512000, Note_on_c, 0, 60, 76
1, 512002, Note_on_c, 0, 55, 71
1, 512005, Note_on_c, 0, 46, 75
1, 512021, Note_on_c, 0, 34, 62
1, 512426, Control_c, 0, 64, 32
1, 512441, Control_c, 0, 64, 56
1, 512456, Control_c, 0, 64, 63
1, 512471, Control_c, 0, 64, 65
1, 512486, Control_c, 0, 64, 68
1, 512501, Control_c, 0, 64, 72
1, 512515, Control_c, 0, 64, 79
1, 512530, Control_c, 0, 64, 89
1, 512545, Control_c, 0, 64, 103
1, 512560, Control_c, 0, 64, 127
1, 512560, Control_c, 0, 67, 13
1, 512575, Control_c, 0, 67, 20
1, 512584, Note_off_c, 0, 55, 57
1, 512589, Control_c, 0, 67, 27
1, 512604, Control_c, 0, 67, 35
1, 512619, Control_c, 0, 67, 44
1, 512633, Control_c, 0, 67, 53
1, 512648, Control_c, 0, 67, 62
1, 512663, Control_c, 0, 67, 68
1, 512669, Note_off_c, 0, 46, 56
1, 512679, Control_c, 0, 67, 74
1, 512694, Control_c, 0, 67, 81
1, 512709, Control_c, 0, 67, 90
1, 512714, Note_off_c, 0, 60, 53
1, 512723, Control_c, 0, 67, 99
1, 512737, Control_c, 0, 67, 108
1, 512760, Control_c, 0, 67, 119
1, 512775, Control_c, 0, 67, 127
1, 512786, Note_off_c, 0, 64, 60
1, 512937, Control_c, 0, 64, 100
1, 512948, Note_on_c, 0, 32, 48
1, 512948, Note_on_c, 0, 65, 61
1, 512950, Note_on_c, 0, 44, 48
1, 512952, Control_c, 0, 64, 78
1, 512955, Note_off_c, 0, 34, 56
1, 512967, Control_c, 0, 64, 66
1, 512982, Control_c, 0, 64, 53
1, 512997, Control_c, 0, 64, 0
1, 513057, Note_on_c, 0, 72, 59
1, 513098, Note_off_c, 0, 65, 50
1, 513151, Note_on_c, 0, 68, 70
1, 513173, Note_off_c, 0, 72, 55
1, 513264, Note_on_c, 0, 77, 46
1, 513264, Note_off_c, 0, 68, 63
1, 513333, Note_off_c, 0, 77, 61
1, 513359, Note_on_c, 0, 72, 70
1, 513469, Note_on_c, 0, 80, 75
1, 513470, Note_off_c, 0, 32, 52
1, 513556, Note_off_c, 0, 44, 58
1, 513559, Note_off_c, 0, 72, 58
1, 513571, Note_on_c, 0, 77, 78
1, 513634, Note_off_c, 0, 80, 56
1, 513666, Note_on_c, 0, 84, 81
1, 513702, Note_off_c, 0, 77, 60
1, 513771, Note_on_c, 0, 82, 82
1, 513874, Note_on_c, 0, 79, 78
1, 513880, Note_off_c, 0, 84, 52
1, 513929, Note_off_c, 0, 82, 60
1, 513975, Note_on_c, 0, 76, 82
1, 513979, Note_off_c, 0, 79, 58
1, 513991, Note_on_c, 0, 60, 55
1, 513994, Note_on_c, 0, 52, 56
1, 514014, Note_off_c, 0, 60, 63
1, 514022, Note_off_c, 0, 52, 66
1, 514036, Note_off_c, 0, 76, 63
1, 514079, Note_on_c, 0, 72, 72
1, 514194, Note_on_c, 0, 70, 75
1, 514202, Note_on_c, 0, 60, 55
1, 514208, Note_off_c, 0, 72, 60
1, 514210, Note_on_c, 0, 52, 50
1, 514224, Note_off_c, 0, 60, 63
1, 514235, Note_off_c, 0, 52, 60
1, 514273, Note_on_c, 0, 69, 31
1, 514290, Note_on_c, 0, 71, 68
1, 514305, Note_off_c, 0, 69, 51
1, 514328, Note_off_c, 0, 70, 46
1, 514403, Note_on_c, 0, 72, 65
1, 514418, Note_on_c, 0, 52, 51
1, 514426, Note_off_c, 0, 71, 56
1, 514430, Note_on_c, 0, 60, 45
1, 514453, Note_off_c, 0, 52, 65
1, 514455, Note_off_c, 0, 60, 57
1, 514480, Note_off_c, 0, 72, 54
1, 514503, Note_on_c, 0, 67, 62
1, 514557, Note_off_c, 0, 67, 59
1, 514657, Note_on_c, 0, 70, 70
1, 514675, Note_on_c, 0, 60, 42
1, 514680, Note_on_c, 0, 53, 27
1, 515116, Note_on_c, 0, 68, 59
1, 515210, Note_off_c, 0, 70, 39
1, 515237, Note_off_c, 0, 60, 60
1, 515287, Control_c, 0, 67, 126
1, 515302, Control_c, 0, 67, 109
1, 515307, Note_off_c, 0, 68, 64
1, 515308, Note_off_c, 0, 53, 61
1, 515317, Control_c, 0, 67, 88
1, 515331, Control_c, 0, 67, 64
1, 515346, Control_c, 0, 67, 36
1, 515361, Control_c, 0, 67, 9
1, 515376, Control_c, 0, 67, 0
1, 515617, Note_on_c, 0, 62, 87
1, 515627, Note_on_c, 0, 53, 76
1, 515627, Note_on_c, 0, 58, 80
1, 515629, Note_on_c, 0, 44, 72
1, 515631, Note_on_c, 0, 32, 72
1, 515738, Poly_aftertouch_c, 0, 63, 0
1, 516066, Control_c, 0, 64, 41
1, 516080, Control_c, 0, 64, 58
1, 516095, Control_c, 0, 64, 66
1, 516110, Control_c, 0, 64, 76
1, 516125, Control_c, 0, 64, 102
1, 516140, Control_c, 0, 64, 127
1, 516179, Note_off_c, 0, 53, 63
1, 516254, Note_off_c, 0, 58, 62
1, 516272, Note_off_c, 0, 32, 38
1, 516275, Note_off_c, 0, 62, 60
1, 516330, Note_off_c, 0, 44, 49
1, 516332, Control_c, 0, 67, 15
1, 516346, Control_c, 0, 67, 24
1, 516361, Control_c, 0, 67, 34
1, 516376, Control_c, 0, 67, 44
1, 516391, Control_c, 0, 67, 56
1, 516406, Control_c, 0, 67, 66
1, 516421, Control_c, 0, 67, 77
1, 516436, Control_c, 0, 67, 87
1, 516451, Control_c, 0, 67, 98
1, 516466, Control_c, 0, 67, 108
1, 516480, Control_c, 0, 67, 117
1, 516502, Control_c, 0, 67, 127
1, 516576, Control_c, 0, 64, 91
1, 516591, Control_c, 0, 64, 70
1, 516600, Note_on_c, 0, 31, 55
1, 516606, Control_c, 0, 64, 52
1, 516607, Note_on_c, 0, 63, 67
1, 516611, Note_on_c, 0, 43, 54
1, 516621, Control_c, 0, 64, 0
1, 516704, Note_on_c, 0, 70, 61
1, 516742, Note_off_c, 0, 63, 53
1, 516793, Note_on_c, 0, 67, 71
1, 516874, Control_c, 0, 64, 23
1, 516889, Control_c, 0, 64, 44
1, 516899, Note_off_c, 0, 70, 38
1, 516900, Note_off_c, 0, 67, 59
1, 516903, Note_on_c, 0, 75, 64
1, 516903, Control_c, 0, 64, 53
1, 516918, Control_c, 0, 64, 58
1, 516933, Control_c, 0, 64, 60
1, 516948, Control_c, 0, 64, 60
1, 516963, Control_c, 0, 64, 60
1, 516969, Note_off_c, 0, 75, 66
1, 516977, Control_c, 0, 64, 59
1, 516992, Control_c, 0, 64, 57
1, 517002, Note_on_c, 0, 70, 71
1, 517007, Control_c, 0, 64, 55
1, 517014, Note_off_c, 0, 31, 54
1, 517021, Control_c, 0, 64, 48
1, 517036, Control_c, 0, 64, 31
1, 517051, Control_c, 0, 64, 0
1, 517081, Note_off_c, 0, 43, 52
1, 517112, Note_on_c, 0, 79, 65
1, 517226, Note_off_c, 0, 79, 59
1, 517229, Note_on_c, 0, 75, 70
1, 517231, Note_off_c, 0, 70, 48
1, 517325, Note_on_c, 0, 82, 73
1, 517338, Note_off_c, 0, 75, 60
1, 517438, Note_on_c, 0, 80, 71
1, 517542, Note_off_c, 0, 82, 36
1, 517554, Note_on_c, 0, 79, 71
1, 517592, Note_off_c, 0, 80, 55
1, 517637, Note_off_c, 0, 79, 60
1, 517667, Note_on_c, 0, 58, 58
1, 517669, Note_on_c, 0, 50, 57
1, 517671, Note_on_c, 0, 77, 68
1, 517691, Note_off_c, 0, 58, 64
1, 517699, Note_off_c, 0, 50, 65
1, 517771, Note_off_c, 0, 77, 60
1, 517780, Note_on_c, 0, 75, 63
1, 517880, Note_on_c, 0, 58, 62
1, 517884, Note_on_c, 0, 50, 52
1, 517887, Note_on_c, 0, 74, 69
1, 517908, Note_off_c, 0, 58, 66
1, 517909, Note_off_c, 0, 50, 62
1, 517925, Note_off_c, 0, 75, 60
1, 517962, Note_off_c, 0, 74, 62
1, 518001, Note_on_c, 0, 72, 68
1, 518106, Note_on_c, 0, 58, 52
1, 518106, Note_off_c, 0, 72, 64
1, 518107, Note_on_c, 0, 50, 52
1, 518108, Note_on_c, 0, 70, 67
1, 518131, Note_off_c, 0, 50, 61
1, 518134, Note_off_c, 0, 58, 64
1, 518209, Note_on_c, 0, 68, 62
1, 518218, Note_off_c, 0, 70, 53
1, 518319, Note_off_c, 0, 68, 60
1, 518323, Note_on_c, 0, 67, 60
1, 518335, Note_on_c, 0, 51, 58
1, 518364, Note_off_c, 0, 67, 61
1, 518432, Note_on_c, 0, 58, 54
1, 518525, Note_off_c, 0, 58, 62
1, 518556, Note_on_c, 0, 70, 67
1, 518561, Note_on_c, 0, 63, 45
1, 518564, Control_c, 0, 64, 15
1, 518579, Control_c, 0, 64, 51
1, 518593, Control_c, 0, 64, 61
1, 518608, Control_c, 0, 64, 64
1, 518623, Control_c, 0, 64, 65
1, 518638, Control_c, 0, 64, 66
1, 518653, Control_c, 0, 64, 68
1, 518657, Note_on_c, 0, 58, 53
1, 518658, Note_off_c, 0, 63, 53
1, 518667, Control_c, 0, 64, 69
1, 518682, Control_c, 0, 64, 70
1, 518712, Control_c, 0, 64, 71
1, 518728, Control_c, 0, 64, 72
1, 518749, Control_c, 0, 64, 72
1, 518774, Note_off_c, 0, 58, 62
1, 518778, Note_on_c, 0, 56, 63
1, 518779, Control_c, 0, 64, 71
1, 518794, Control_c, 0, 64, 67
1, 518797, Note_off_c, 0, 51, 35
1, 518809, Control_c, 0, 64, 61
1, 518823, Control_c, 0, 64, 46
1, 518838, Note_off_c, 0, 70, 61
1, 518838, Control_c, 0, 64, 0
1, 518883, Control_c, 0, 64, 28
1, 518887, Note_on_c, 0, 58, 71
1, 518898, Control_c, 0, 64, 45
1, 518913, Control_c, 0, 64, 54
1, 518928, Control_c, 0, 64, 56
1, 518943, Control_c, 0, 64, 57
1, 518957, Control_c, 0, 64, 58
1, 518971, Note_off_c, 0, 58, 61
1, 518972, Control_c, 0, 64, 60
1, 518987, Control_c, 0, 64, 62
1, 519001, Control_c, 0, 64, 63
1, 519010, Note_on_c, 0, 62, 51
1, 519011, Note_on_c, 0, 70, 66
1, 519016, Control_c, 0, 64, 65
1, 519031, Control_c, 0, 64, 66
1, 519046, Control_c, 0, 64, 68
1, 519061, Control_c, 0, 64, 71
1, 519077, Control_c, 0, 64, 72
1, 519092, Control_c, 0, 64, 72
1, 519101, Note_on_c, 0, 58, 61
1, 519105, Note_off_c, 0, 62, 56
1, 519166, Control_c, 0, 64, 71
1, 519180, Control_c, 0, 64, 69
1, 519195, Control_c, 0, 64, 65
1, 519210, Control_c, 0, 64, 61
1, 519217, Note_off_c, 0, 58, 63
1, 519221, Note_on_c, 0, 55, 65
1, 519224, Control_c, 0, 64, 51
1, 519239, Control_c, 0, 64, 36
1, 519250, Note_off_c, 0, 70, 59
1, 519254, Control_c, 0, 64, 0
1, 519267, Note_off_c, 0, 56, 56
1, 519320, Note_on_c, 0, 72, 55
1, 519342, Note_on_c, 0, 58, 58
1, 519398, Note_off_c, 0, 58, 60
1, 519432, Note_off_c, 0, 72, 65
1, 519434, Note_on_c, 0, 74, 60
1, 519436, Note_on_c, 0, 63, 45
1, 519533, Note_on_c, 0, 58, 51
1, 519542, Control_c, 0, 64, 28
1, 519556, Note_on_c, 0, 75, 67
1, 519557, Control_c, 0, 64, 39
1, 519568, Note_off_c, 0, 55, 54
1, 519572, Control_c, 0, 64, 45
1, 519578, Note_off_c, 0, 74, 62
1, 519587, Control_c, 0, 64, 47
1, 519605, Note_off_c, 0, 63, 42
1, 519608, Note_off_c, 0, 75, 64
1, 519616, Control_c, 0, 64, 46
1, 519631, Control_c, 0, 64, 43
1, 519646, Control_c, 0, 64, 34
1, 519649, Note_off_c, 0, 58, 63
1, 519650, Note_on_c, 0, 77, 74
1, 519661, Note_on_c, 0, 50, 61
1, 519661, Control_c, 0, 64, 0
1, 519761, Note_on_c, 0, 79, 68
1, 519764, Control_c, 0, 64, 43
1, 519768, Note_off_c, 0, 77, 55
1, 519769, Note_on_c, 0, 58, 65
1, 519779, Control_c, 0, 64, 60
1, 519794, Control_c, 0, 64, 65
1, 519809, Control_c, 0, 64, 67
1, 519823, Control_c, 0, 64, 68
1, 519828, Note_off_c, 0, 58, 63
1, 519838, Control_c, 0, 64, 69
1, 519853, Control_c, 0, 64, 71
1, 519859, Note_on_c, 0, 80, 75
1, 519869, Control_c, 0, 64, 73
1, 519873, Note_on_c, 0, 62, 56
1, 519874, Note_off_c, 0, 79, 57
1, 519884, Control_c, 0, 64, 73
1, 519912, Note_off_c, 0, 50, 59
1, 519948, Note_off_c, 0, 80, 61
1, 519954, Note_on_c, 0, 58, 55
1, 519966, Note_on_c, 0, 77, 66
1, 519988, Control_c, 0, 64, 72
1, 519998, Note_off_c, 0, 62, 54
1, 520002, Control_c, 0, 64, 71
1, 520017, Control_c, 0, 64, 68
1, 520032, Control_c, 0, 64, 64
1, 520046, Control_c, 0, 64, 58
1, 520060, Note_off_c, 0, 58, 61
1, 520061, Control_c, 0, 64, 41
1, 520073, Note_on_c, 0, 51, 62
1, 520075, Note_on_c, 0, 80, 76
1, 520076, Control_c, 0, 64, 0
1, 520113, Note_off_c, 0, 77, 52
1, 520183, Note_on_c, 0, 79, 70
1, 520195, Note_on_c, 0, 58, 54
1, 520246, Control_c, 0, 64, 39
1, 520261, Control_c, 0, 64, 59
1, 520276, Control_c, 0, 64, 64
1, 520284, Note_off_c, 0, 58, 62
1, 520291, Control_c, 0, 64, 66
1, 520303, Note_on_c, 0, 77, 70
1, 520306, Control_c, 0, 64, 69
1, 520308, Note_off_c, 0, 80, 59
1, 520314, Note_on_c, 0, 63, 59
1, 520317, Note_off_c, 0, 79, 56
1, 520321, Control_c, 0, 64, 72
1, 520335, Control_c, 0, 64, 74
1, 520350, Control_c, 0, 64, 75
1, 520384, Note_off_c, 0, 77, 59
1, 520394, Note_on_c, 0, 75, 66
1, 520402, Note_on_c, 0, 58, 62
1, 520410, Note_off_c, 0, 63, 53
1, 520441, Note_off_c, 0, 51, 52
1, 520454, Control_c, 0, 64, 75
1, 520456, Note_off_c, 0, 75, 62
1, 520469, Control_c, 0, 64, 72
1, 520484, Control_c, 0, 64, 68
1, 520499, Control_c, 0, 64, 63
1, 520500, Note_off_c, 0, 58, 62
1, 520514, Control_c, 0, 64, 53
1, 520517, Note_on_c, 0, 56, 54
1, 520522, Note_on_c, 0, 75, 65
1, 520528, Control_c, 0, 64, 14
1, 520543, Control_c, 0, 64, 0
1, 520624, Note_on_c, 0, 58, 64
1, 520626, Note_on_c, 0, 74, 73
1, 520690, Note_off_c, 0, 75, 56
1, 520711, Note_off_c, 0, 58, 60
1, 520724, Note_off_c, 0, 74, 63
1, 520734, Note_on_c, 0, 72, 67
1, 520748, Note_on_c, 0, 65, 52
1, 520836, Note_off_c, 0, 65, 59
1, 520840, Note_on_c, 0, 58, 51
1, 520841, Note_on_c, 0, 74, 65
1, 520864, Note_off_c, 0, 72, 63
1, 520947, Note_off_c, 0, 58, 63
1, 520954, Note_on_c, 0, 77, 68
1, 520958, Note_off_c, 0, 74, 59
1, 520963, Note_on_c, 0, 55, 54
1, 521014, Note_off_c, 0, 56, 45
1, 521077, Note_on_c, 0, 75, 63
1, 521081, Note_on_c, 0, 58, 53
1, 521113, Note_off_c, 0, 77, 60
1, 521122, Note_off_c, 0, 58, 62
1, 521175, Note_on_c, 0, 74, 57
1, 521177, Note_on_c, 0, 63, 48
1, 521188, Note_off_c, 0, 75, 61
1, 521232, Note_off_c, 0, 74, 61
1, 521277, Note_off_c, 0, 55, 62
1, 521280, Note_on_c, 0, 58, 48
1, 521282, Note_on_c, 0, 72, 58
1, 521285, Note_off_c, 0, 63, 55
1, 521372, Note_off_c, 0, 58, 62
1, 521384, Note_off_c, 0, 72, 59
1, 521395, Note_on_c, 0, 68, 64
1, 521399, Note_on_c, 0, 50, 44
1, 521405, Note_on_c, 0, 70, 49
1, 521422, Note_off_c, 0, 68, 68
1, 521433, Note_off_c, 0, 70, 66
1, 521485, Note_off_c, 0, 50, 55
1, 521500, Note_on_c, 0, 58, 55
1, 521593, Note_off_c, 0, 58, 49
1, 521614, Note_on_c, 0, 50, 64
1, 521625, Note_on_c, 0, 70, 58
1, 521627, Note_on_c, 0, 68, 62
1, 521655, Note_off_c, 0, 68, 67
1, 521657, Note_off_c, 0, 70, 67
1, 521684, Note_off_c, 0, 50, 62
1, 521708, Note_on_c, 0, 58, 55
1, 521818, Note_off_c, 0, 58, 54
1, 521852, Note_on_c, 0, 68, 64
1, 521855, Note_on_c, 0, 70, 54
1, 521858, Note_on_c, 0, 51, 51
1, 521944, Note_off_c, 0, 51, 61
1, 521959, Note_on_c, 0, 67, 63
1, 521965, Note_on_c, 0, 58, 51
1, 522049, Note_off_c, 0, 58, 55
1, 522064, Note_on_c, 0, 65, 66
1, 522065, Note_off_c, 0, 67, 58
1, 522077, Note_off_c, 0, 68, 37
1, 522079, Note_on_c, 0, 51, 55
1, 522142, Note_off_c, 0, 65, 61
1, 522150, Note_on_c, 0, 63, 70
1, 522157, Note_off_c, 0, 51, 61
1, 522168, Note_on_c, 0, 58, 59
1, 522222, Note_off_c, 0, 63, 60
1, 522268, Note_off_c, 0, 58, 57
1, 522269, Note_on_c, 0, 63, 63
1, 522281, Note_on_c, 0, 56, 61
1, 522378, Note_on_c, 0, 62, 73
1, 522383, Note_on_c, 0, 58, 61
1, 522386, Note_off_c, 0, 56, 62
1, 522463, Note_off_c, 0, 63, 47
1, 522471, Note_off_c, 0, 58, 63
1, 522473, Note_off_c, 0, 62, 55
1, 522480, Note_on_c, 0, 60, 71
1, 522502, Note_on_c, 0, 56, 59
1, 522502, Note_off_c, 0, 70, 0
1, 522502, Note_on_c, 0, 70, 7
1, 522597, Note_on_c, 0, 62, 72
1, 522605, Note_on_c, 0, 58, 67
1, 522606, Note_off_c, 0, 56, 61
1, 522607, Note_off_c, 0, 60, 61
1, 522656, Note_off_c, 0, 62, 62
1, 522678, Note_off_c, 0, 70, 20
1, 522702, Control_c, 0, 67, 117
1, 522708, Note_off_c, 0, 58, 63
1, 522711, Note_on_c, 0, 63, 78
1, 522716, Control_c, 0, 67, 103
1, 522730, Note_on_c, 0, 54, 56
1, 522731, Control_c, 0, 67, 87
1, 522746, Control_c, 0, 67, 71
1, 522761, Control_c, 0, 67, 50
1, 522775, Control_c, 0, 67, 33
1, 522790, Control_c, 0, 67, 20
1, 522805, Control_c, 0, 67, 12
1, 522820, Control_c, 0, 67, 8
1, 522821, Note_on_c, 0, 72, 62
1, 522828, Note_off_c, 0, 54, 62
1, 522831, Note_on_c, 0, 58, 69
1, 522835, Control_c, 0, 67, 0
1, 522847, Note_off_c, 0, 63, 57
1, 522913, Note_off_c, 0, 58, 62
1, 522925, Note_on_c, 0, 74, 70
1, 522929, Note_off_c, 0, 72, 64
1, 522937, Note_on_c, 0, 54, 51
1, 522953, Control_c, 0, 64, 8
1, 522967, Control_c, 0, 64, 12
1, 522982, Control_c, 0, 64, 17
1, 522997, Control_c, 0, 64, 19
1, 523012, Note_off_c, 0, 54, 61
1, 523012, Control_c, 0, 64, 21
1, 523027, Control_c, 0, 64, 23
1, 523032, Note_on_c, 0, 58, 60
1, 523038, Note_on_c, 0, 75, 77
1, 523041, Control_c, 0, 64, 23
1, 523054, Note_off_c, 0, 74, 61
1, 523056, Control_c, 0, 64, 24
1, 523072, Control_c, 0, 64, 25
1, 523088, Note_off_c, 0, 75, 64
1, 523113, Note_off_c, 0, 58, 58
1, 523131, Note_on_c, 0, 77, 80
1, 523135, Note_on_c, 0, 50, 73
1, 523146, Control_c, 0, 64, 24
1, 523161, Control_c, 0, 64, 23
1, 523176, Control_c, 0, 64, 23
1, 523216, Note_off_c, 0, 50, 61
1, 523232, Note_on_c, 0, 58, 69
1, 523250, Note_on_c, 0, 78, 74
1, 523265, Note_off_c, 0, 77, 52
1, 523271, Control_c, 0, 64, 23
1, 523317, Note_off_c, 0, 58, 59
1, 523331, Control_c, 0, 64, 25
1, 523340, Note_on_c, 0, 80, 76
1, 523345, Control_c, 0, 64, 26
1, 523348, Note_off_c, 0, 78, 62
1, 523354, Note_on_c, 0, 50, 72
1, 523360, Control_c, 0, 64, 27
1, 523390, Control_c, 0, 64, 28
1, 523420, Note_off_c, 0, 50, 63
1, 523432, Note_off_c, 0, 80, 60
1, 523433, Note_on_c, 0, 77, 73
1, 523439, Note_on_c, 0, 58, 72
1, 523464, Control_c, 0, 64, 26
1, 523479, Control_c, 0, 64, 23
1, 523494, Control_c, 0, 64, 19
1, 523509, Control_c, 0, 64, 15
1, 523524, Control_c, 0, 64, 12
1, 523535, Note_off_c, 0, 58, 53
1, 523538, Control_c, 0, 64, 0
1, 523540, Note_on_c, 0, 78, 82
1, 523546, Note_on_c, 0, 51, 71
1, 523553, Note_off_c, 0, 77, 57
1, 523579, Note_off_c, 0, 78, 62
1, 523619, Note_off_c, 0, 51, 62
1, 523646, Note_on_c, 0, 58, 64
1, 523701, Control_c, 0, 64, 8
1, 523715, Control_c, 0, 64, 12
1, 523730, Control_c, 0, 64, 17
1, 523745, Note_off_c, 0, 58, 62
1, 523745, Control_c, 0, 64, 21
1, 523760, Note_on_c, 0, 82, 91
1, 523760, Control_c, 0, 64, 23
1, 523764, Note_on_c, 0, 54, 58
1, 523775, Control_c, 0, 64, 24
1, 523790, Control_c, 0, 64, 25
1, 523829, Note_off_c, 0, 54, 60
1, 523849, Control_c, 0, 64, 26
1, 523864, Note_on_c, 0, 58, 64
1, 523865, Control_c, 0, 64, 28
1, 523879, Control_c, 0, 64, 32
1, 523894, Control_c, 0, 64, 35
1, 523909, Control_c, 0, 64, 39
1, 523924, Control_c, 0, 64, 44
1, 523939, Control_c, 0, 64, 51
1, 523954, Control_c, 0, 64, 56
1, 523963, Note_on_c, 0, 46, 72
1, 523968, Note_off_c, 0, 58, 62
1, 523968, Control_c, 0, 64, 58
1, 523991, Control_c, 0, 64, 59
1, 524035, Control_c, 0, 64, 59
1, 524050, Control_c, 0, 64, 58
1, 524055, Note_off_c, 0, 82, 59
1, 524057, Note_off_c, 0, 46, 62
1, 524065, Control_c, 0, 64, 56
1, 524080, Control_c, 0, 64, 54
1, 524082, Note_on_c, 0, 58, 71
1, 524094, Control_c, 0, 64, 51
1, 524109, Control_c, 0, 64, 48
1, 524124, Control_c, 0, 64, 47
1, 524168, Control_c, 0, 64, 48
1, 524173, Note_off_c, 0, 58, 58
1, 524189, Note_on_c, 0, 82, 93
1, 524192, Note_on_c, 0, 50, 56
1, 524198, Control_c, 0, 64, 48
1, 524228, Control_c, 0, 64, 49
1, 524243, Control_c, 0, 64, 49
1, 524258, Control_c, 0, 64, 50
1, 524262, Note_off_c, 0, 50, 62
1, 524273, Control_c, 0, 64, 50
1, 524287, Control_c, 0, 64, 51
1, 524288, Note_on_c, 0, 58, 67
1, 524302, Control_c, 0, 64, 52
1, 524317, Control_c, 0, 64, 54
1, 524332, Control_c, 0, 64, 55
1, 524389, Note_on_c, 0, 47, 73
1, 524391, Control_c, 0, 64, 54
1, 524394, Note_off_c, 0, 58, 58
1, 524406, Control_c, 0, 64, 53
1, 524420, Control_c, 0, 64, 52
1, 524435, Control_c, 0, 64, 49
1, 524450, Control_c, 0, 64, 47
1, 524457, Note_off_c, 0, 47, 63
1, 524501, Note_on_c, 0, 58, 64
1, 524509, Control_c, 0, 64, 48
1, 524524, Control_c, 0, 64, 49
1, 524538, Control_c, 0, 64, 50
1, 524553, Control_c, 0, 64, 51
1, 524568, Control_c, 0, 64, 52
1, 524583, Control_c, 0, 64, 53
1, 524589, Note_off_c, 0, 58, 58
1, 524598, Control_c, 0, 64, 54
1, 524609, Note_on_c, 0, 51, 56
1, 524612, Control_c, 0, 64, 55
1, 524619, Note_on_c, 0, 87, 96
1, 524627, Control_c, 0, 64, 56
1, 524667, Note_off_c, 0, 82, 52
1, 524688, Control_c, 0, 64, 56
1, 524690, Note_off_c, 0, 51, 60
1, 524719, Note_on_c, 0, 58, 61
1, 524813, Note_off_c, 0, 58, 56
1, 524814, Control_c, 0, 64, 57
1, 524838, Note_on_c, 0, 47, 65
1, 524913, Note_off_c, 0, 47, 61
1, 524917, Control_c, 0, 64, 56
1, 524932, Control_c, 0, 64, 56
1, 524946, Note_on_c, 0, 57, 70
1, 524961, Control_c, 0, 64, 55
1, 524976, Control_c, 0, 64, 54
1, 524991, Control_c, 0, 64, 50
1, 525003, Note_off_c, 0, 57, 61
1, 525006, Control_c, 0, 64, 44
1, 525021, Control_c, 0, 64, 34
1, 525036, Control_c, 0, 64, 0
1, 525044, Note_on_c, 0, 51, 56
1, 525059, Note_on_c, 0, 81, 74
1, 525095, Control_c, 0, 67, 9
1, 525097, Note_off_c, 0, 51, 59
1, 525105, Note_off_c, 0, 87, 56
1, 525110, Control_c, 0, 67, 11
1, 525125, Control_c, 0, 67, 12
1, 525140, Control_c, 0, 67, 15
1, 525142, Note_on_c, 0, 57, 57
1, 525155, Control_c, 0, 67, 21
1, 525169, Control_c, 0, 67, 27
1, 525184, Control_c, 0, 67, 35
1, 525194, Note_off_c, 0, 57, 59
1, 525199, Control_c, 0, 67, 40
1, 525214, Control_c, 0, 67, 45
1, 525215, Note_off_c, 0, 81, 57
1, 525229, Control_c, 0, 67, 49
1, 525243, Control_c, 0, 67, 51
1, 525258, Control_c, 0, 67, 52
1, 525265, Note_on_c, 0, 46, 64
1, 525270, Note_on_c, 0, 82, 68
1, 525288, Control_c, 0, 67, 53
1, 525296, Note_off_c, 0, 46, 64
1, 525303, Control_c, 0, 67, 54
1, 525317, Control_c, 0, 67, 55
1, 525332, Control_c, 0, 67, 58
1, 525347, Control_c, 0, 67, 61
1, 525361, Control_c, 0, 67, 64
1, 525376, Control_c, 0, 67, 66
1, 525391, Control_c, 0, 67, 66
1, 525435, Control_c, 0, 67, 66
1, 525450, Control_c, 0, 67, 65
1, 525489, Control_c, 0, 67, 65
1, 525498, Note_on_c, 0, 65, 64
1, 525506, Note_on_c, 0, 62, 55
1, 525515, Note_on_c, 0, 58, 43
1, 525525, Note_off_c, 0, 65, 66
1, 525530, Note_off_c, 0, 62, 58
1, 525542, Note_off_c, 0, 58, 57
1, 525545, Note_off_c, 0, 82, 38
1, 525578, Control_c, 0, 67, 65
1, 525593, Control_c, 0, 67, 66
1, 525608, Control_c, 0, 67, 67
1, 525623, Control_c, 0, 67, 68
1, 525638, Control_c, 0, 67, 71
1, 525653, Control_c, 0, 67, 75
1, 525667, Control_c, 0, 67, 79
1, 525682, Control_c, 0, 67, 85
1, 525697, Control_c, 0, 67, 90
1, 525712, Control_c, 0, 67, 95
1, 525727, Control_c, 0, 67, 99
1, 525730, Note_on_c, 0, 66, 81
1, 525741, Control_c, 0, 67, 101
1, 525746, Note_on_c, 0, 58, 55
1, 525756, Control_c, 0, 67, 102
1, 525760, Note_on_c, 0, 63, 49
1, 525771, Control_c, 0, 67, 104
1, 525785, Control_c, 0, 67, 104
1, 525800, Control_c, 0, 67, 105
1, 525809, Note_on_c, 0, 81, 51
1, 525815, Control_c, 0, 67, 106
1, 525830, Control_c, 0, 67, 106
1, 525845, Control_c, 0, 67, 107
1, 525874, Control_c, 0, 67, 108
1, 525900, Note_off_c, 0, 81, 57
1, 525904, Note_on_c, 0, 82, 65
1, 525966, Note_off_c, 0, 82, 63
1, 525978, Note_on_c, 0, 84, 70
1, 526007, Control_c, 0, 67, 107
1, 526022, Control_c, 0, 67, 107
1, 526037, Control_c, 0, 67, 106
1, 526052, Control_c, 0, 67, 106
1, 526055, Note_on_c, 0, 82, 61
1, 526055, Note_off_c, 0, 84, 59
1, 526067, Control_c, 0, 67, 105
1, 526082, Control_c, 0, 67, 105
1, 526097, Note_off_c, 0, 82, 62
1, 526097, Control_c, 0, 67, 104
1, 526111, Control_c, 0, 67, 104
1, 526120, Note_on_c, 0, 81, 68
1, 526164, Note_off_c, 0, 58, 58
1, 526179, Note_off_c, 0, 63, 62
1, 526184, Note_off_c, 0, 66, 60
1, 526195, Note_on_c, 0, 82, 84
1, 526198, Note_off_c, 0, 81, 36
1, 526215, Control_c, 0, 67, 104
1, 526218, Poly_aftertouch_c, 0, 86, 127
1, 526237, Control_c, 0, 67, 105
1, 526252, Control_c, 0, 67, 106
1, 526255, Poly_aftertouch_c, 0, 86, 0
1, 526268, Control_c, 0, 67, 106
1, 526283, Control_c, 0, 67, 107
1, 526297, Control_c, 0, 67, 108
1, 526416, Note_on_c, 0, 65, 65
1, 526416, Control_c, 0, 67, 107
1, 526426, Note_on_c, 0, 58, 50
1, 526435, Note_on_c, 0, 62, 32
1, 526440, Note_off_c, 0, 65, 66
1, 526450, Note_off_c, 0, 58, 60
1, 526472, Note_off_c, 0, 62, 48
1, 526475, Control_c, 0, 67, 108
1, 526490, Control_c, 0, 67, 109
1, 526505, Control_c, 0, 67, 110
1, 526520, Control_c, 0, 67, 111
1, 526534, Control_c, 0, 67, 114
1, 526549, Control_c, 0, 67, 117
1, 526564, Control_c, 0, 67, 120
1, 526579, Control_c, 0, 67, 123
1, 526594, Control_c, 0, 67, 127
1, 526608, Control_c, 0, 67, 127
1, 526627, Note_off_c, 0, 82, 60
1, 526636, Note_on_c, 0, 66, 86
1, 526650, Note_on_c, 0, 63, 66
1, 526651, Note_on_c, 0, 58, 63
1, 526715, Note_on_c, 0, 81, 65
1, 526791, Note_off_c, 0, 81, 55
1, 526794, Note_on_c, 0, 82, 73
1, 526844, Note_off_c, 0, 82, 64
1, 526859, Note_on_c, 0, 84, 75
1, 526928, Note_on_c, 0, 82, 76
1, 526934, Note_off_c, 0, 84, 65
1, 526957, Note_off_c, 0, 58, 57
1, 526960, Note_off_c, 0, 66, 54
1, 526972, Note_off_c, 0, 63, 62
1, 527007, Note_on_c, 0, 81, 71
1, 527043, Note_off_c, 0, 82, 57
1, 527069, Note_off_c, 0, 81, 60
1, 527088, Note_on_c, 0, 65, 83
1, 527090, Note_on_c, 0, 58, 69
1, 527097, Note_on_c, 0, 62, 66
1, 527167, Note_on_c, 0, 82, 78
1, 527223, Note_off_c, 0, 82, 63
1, 527223, Control_c, 0, 64, 29
1, 527238, Control_c, 0, 64, 39
1, 527244, Note_on_c, 0, 84, 79
1, 527252, Control_c, 0, 64, 44
1, 527267, Control_c, 0, 64, 47
1, 527282, Control_c, 0, 64, 52
1, 527297, Control_c, 0, 64, 56
1, 527310, Note_on_c, 0, 86, 84
1, 527311, Control_c, 0, 64, 58
1, 527311, Control_c, 0, 67, 127
1, 527326, Control_c, 0, 67, 114
1, 527327, Note_off_c, 0, 84, 32
1, 527341, Control_c, 0, 67, 98
1, 527351, Note_off_c, 0, 65, 52
1, 527355, Control_c, 0, 64, 58
1, 527355, Control_c, 0, 67, 79
1, 527370, Control_c, 0, 64, 59
1, 527370, Control_c, 0, 67, 58
1, 527376, Note_on_c, 0, 84, 66
1, 527377, Note_off_c, 0, 58, 61
1, 527385, Control_c, 0, 64, 60
1, 527385, Control_c, 0, 67, 38
1, 527398, Note_off_c, 0, 62, 55
1, 527400, Control_c, 0, 64, 61
1, 527400, Control_c, 0, 67, 18
1, 527411, Note_off_c, 0, 86, 61
1, 527415, Control_c, 0, 64, 61
1, 527415, Control_c, 0, 67, 8
1, 527429, Control_c, 0, 64, 62
1, 527429, Control_c, 0, 67, 0
1, 527444, Control_c, 0, 64, 63
1, 527447, Note_on_c, 0, 82, 77
1, 527453, Note_off_c, 0, 84, 65
1, 527459, Control_c, 0, 64, 63
1, 527489, Note_off_c, 0, 82, 60
1, 527489, Control_c, 0, 64, 63
1, 527504, Control_c, 0, 64, 59
1, 527519, Control_c, 0, 64, 49
1, 527519, Control_c, 0, 67, 11
1, 527522, Note_on_c, 0, 68, 84
1, 527525, Note_on_c, 0, 65, 70
1, 527531, Note_on_c, 0, 58, 66
1, 527534, Control_c, 0, 64, 0
1, 527534, Control_c, 0, 67, 16
1, 527549, Control_c, 0, 67, 24
1, 527563, Control_c, 0, 67, 36
1, 527578, Control_c, 0, 67, 49
1, 527578, Note_on_c, 0, 86, 80
1, 527593, Control_c, 0, 67, 63
1, 527608, Control_c, 0, 67, 76
1, 527623, Control_c, 0, 67, 85
1, 527637, Control_c, 0, 67, 92
1, 527652, Control_c, 0, 64, 20
1, 527652, Control_c, 0, 67, 96
1, 527657, Note_off_c, 0, 86, 56
1, 527658, Note_on_c, 0, 87, 79
1, 527667, Control_c, 0, 64, 50
1, 527667, Control_c, 0, 67, 99
1, 527681, Control_c, 0, 64, 59
1, 527681, Control_c, 0, 67, 99
1, 527696, Control_c, 0, 64, 62
1, 527710, Note_on_c, 0, 89, 78
1, 527711, Control_c, 0, 64, 64
1, 527711, Control_c, 0, 67, 98
1, 527715, Note_off_c, 0, 87, 64
1, 527733, Control_c, 0, 67, 96
1, 527748, Control_c, 0, 67, 93
1, 527763, Control_c, 0, 67, 90
1, 527778, Control_c, 0, 67, 87
1, 527782, Note_on_c, 0, 87, 82
1, 527792, Note_off_c, 0, 58, 56
1, 527793, Control_c, 0, 67, 81
1, 527800, Note_off_c, 0, 89, 65
1, 527808, Control_c, 0, 67, 74
1, 527819, Note_off_c, 0, 68, 60
1, 527823, Control_c, 0, 67, 69
1, 527832, Note_off_c, 0, 87, 64
1, 527837, Control_c, 0, 67, 65
1, 527838, Note_off_c, 0, 65, 59
1, 527852, Control_c, 0, 64, 64
1, 527852, Control_c, 0, 67, 61
1, 527863, Note_on_c, 0, 86, 82
1, 527868, Control_c, 0, 64, 65
1, 527868, Control_c, 0, 67, 58
1, 527882, Control_c, 0, 64, 66
1, 527882, Control_c, 0, 67, 57
1, 527897, Control_c, 0, 64, 66
1, 527897, Control_c, 0, 67, 57
1, 527912, Control_c, 0, 67, 56
1, 527927, Control_c, 0, 64, 65
1, 527935, Note_on_c, 0, 89, 92
1, 527942, Control_c, 0, 64, 62
1, 527955, Note_on_c, 0, 68, 87
1, 527957, Control_c, 0, 64, 43
1, 527959, Note_off_c, 0, 86, 55
1, 527962, Note_on_c, 0, 65, 69
1, 527967, Note_on_c, 0, 58, 68
1, 527972, Control_c, 0, 64, 0
1, 527980, Note_on_c, 0, 62, 59
1, 528020, Note_on_c, 0, 87, 83
1, 528046, Control_c, 0, 67, 56
1, 528056, Note_off_c, 0, 89, 64
1, 528075, Control_c, 0, 67, 55
1, 528084, Note_on_c, 0, 86, 74
1, 528119, Note_off_c, 0, 87, 59
1, 528134, Control_c, 0, 67, 56
1, 528142, Note_off_c, 0, 86, 63
1, 528157, Note_on_c, 0, 84, 81
1, 528193, Control_c, 0, 67, 57
1, 528208, Control_c, 0, 67, 58
1, 528218, Note_off_c, 0, 84, 59
1, 528223, Control_c, 0, 67, 59
1, 528228, Note_on_c, 0, 82, 78
1, 528238, Control_c, 0, 67, 60
1, 528252, Control_c, 0, 67, 62
1, 528267, Control_c, 0, 67, 63
1, 528282, Control_c, 0, 67, 65
1, 528291, Note_on_c, 0, 80, 76
1, 528297, Control_c, 0, 67, 68
1, 528312, Control_c, 0, 67, 74
1, 528323, Note_off_c, 0, 82, 58
1, 528327, Control_c, 0, 67, 81
1, 528339, Note_off_c, 0, 80, 65
1, 528340, Note_off_c, 0, 68, 61
1, 528341, Control_c, 0, 67, 88
1, 528356, Note_on_c, 0, 79, 83
1, 528356, Control_c, 0, 67, 94
1, 528371, Control_c, 0, 67, 99
1, 528382, Note_off_c, 0, 65, 60
1, 528384, Note_off_c, 0, 58, 60
1, 528386, Control_c, 0, 67, 102
1, 528398, Note_off_c, 0, 62, 59
1, 528401, Control_c, 0, 67, 104
1, 528410, Note_off_c, 0, 79, 61
1, 528430, Note_on_c, 0, 77, 72
1, 528450, Note_on_c, 0, 78, 28
1, 528483, Control_c, 0, 67, 104
1, 528493, Note_off_c, 0, 78, 51
1, 528494, Note_on_c, 0, 75, 74
1, 528498, Control_c, 0, 67, 105
1, 528499, Note_off_c, 0, 77, 62
1, 528527, Control_c, 0, 67, 106
1, 528531, Note_off_c, 0, 75, 57
1, 528542, Control_c, 0, 64, 20
1, 528542, Control_c, 0, 67, 107
1, 528555, Note_on_c, 0, 74, 69
1, 528557, Control_c, 0, 64, 41
1, 528557, Control_c, 0, 67, 109
1, 528572, Control_c, 0, 64, 47
1, 528572, Control_c, 0, 67, 111
1, 528586, Control_c, 0, 64, 48
1, 528586, Control_c, 0, 67, 113
1, 528601, Control_c, 0, 64, 48
1, 528601, Control_c, 0, 67, 117
1, 528605, Note_on_c, 0, 72, 66
1, 528607, Note_off_c, 0, 74, 64
1, 528616, Control_c, 0, 64, 47
1, 528616, Control_c, 0, 67, 122
1, 528631, Control_c, 0, 67, 127
1, 528646, Control_c, 0, 64, 47
1, 528646, Control_c, 0, 67, 127
1, 528657, Note_on_c, 0, 70, 76
1, 528672, Note_off_c, 0, 72, 62
1, 528711, Note_on_c, 0, 68, 69
1, 528720, Note_off_c, 0, 70, 61
1, 528735, Control_c, 0, 64, 46
1, 528742, Note_off_c, 0, 68, 63
1, 528750, Control_c, 0, 64, 45
1, 528765, Control_c, 0, 64, 43
1, 528768, Note_on_c, 0, 67, 73
1, 528769, Note_on_c, 0, 51, 68
1, 528780, Control_c, 0, 64, 39
1, 528795, Control_c, 0, 64, 31
1, 528809, Control_c, 0, 64, 0
1, 528845, Note_on_c, 0, 63, 71
1, 528846, Note_off_c, 0, 67, 55
1, 528925, Note_on_c, 0, 65, 55
1, 528935, Note_off_c, 0, 63, 59
1, 528971, Note_on_c, 0, 67, 71
1, 529006, Note_off_c, 0, 51, 55
1, 529012, Note_off_c, 0, 65, 0
1, 529030, Note_on_c, 0, 65, 30
1, 529039, Note_off_c, 0, 67, 62
1, 529062, Control_c, 0, 67, 126
1, 529076, Control_c, 0, 67, 124
1, 529091, Control_c, 0, 67, 119
1, 529104, Note_on_c, 0, 63, 69
1, 529106, Note_off_c, 0, 65, 60
1, 529106, Control_c, 0, 67, 106
1, 529121, Control_c, 0, 67, 88
1, 529135, Control_c, 0, 67, 65
1, 529150, Control_c, 0, 67, 39
1, 529165, Control_c, 0, 67, 13
1, 529169, Note_on_c, 0, 68, 83
1, 529180, Control_c, 0, 67, 0
1, 529209, Note_off_c, 0, 63, 59
1, 529265, Note_on_c, 0, 58, 58
1, 529291, Control_c, 0, 64, 10
1, 529306, Control_c, 0, 64, 38
1, 529321, Control_c, 0, 64, 47
1, 529325, Note_on_c, 0, 60, 66
1, 529329, Note_off_c, 0, 58, 59
1, 529335, Control_c, 0, 64, 52
1, 529335, Control_c, 0, 67, 10
1, 529350, Control_c, 0, 64, 58
1, 529350, Control_c, 0, 67, 14
1, 529354, Note_off_c, 0, 60, 66
1, 529365, Control_c, 0, 64, 62
1, 529365, Control_c, 0, 67, 17
1, 529380, Control_c, 0, 64, 64
1, 529380, Control_c, 0, 67, 19
1, 529395, Control_c, 0, 64, 67
1, 529395, Control_c, 0, 67, 20
1, 529404, Note_on_c, 0, 62, 64
1, 529409, Control_c, 0, 64, 71
1, 529424, Control_c, 0, 64, 75
1, 529424, Control_c, 0, 67, 20
1, 529439, Control_c, 0, 64, 80
1, 529455, Note_on_c, 0, 60, 64
1, 529455, Control_c, 0, 64, 83
1, 529459, Note_off_c, 0, 62, 60
1, 529461, Note_off_c, 0, 68, 63
1, 529470, Control_c, 0, 64, 85
1, 529485, Control_c, 0, 64, 88
1, 529499, Control_c, 0, 64, 89
1, 529499, Control_c, 0, 67, 19
1, 529514, Control_c, 0, 64, 90
1, 529514, Control_c, 0, 67, 19
1, 529523, Note_on_c, 0, 58, 69
1, 529531, Note_off_c, 0, 60, 55
1, 529544, Control_c, 0, 64, 89
1, 529544, Control_c, 0, 67, 18
1, 529558, Control_c, 0, 64, 84
1, 529558, Control_c, 0, 67, 18
1, 529573, Control_c, 0, 64, 74
1, 529573, Control_c, 0, 67, 17
1, 529588, Control_c, 0, 64, 62
1, 529588, Control_c, 0, 67, 17
1, 529597, Note_on_c, 0, 63, 84
1, 529603, Control_c, 0, 64, 0
1, 529615, Note_off_c, 0, 58, 60
1, 529619, Note_on_c, 0, 67, 76
1, 529647, Control_c, 0, 67, 17
1, 529662, Control_c, 0, 67, 18
1, 529677, Control_c, 0, 67, 19
1, 529692, Control_c, 0, 67, 20
1, 529693, Note_on_c, 0, 75, 78
1, 529703, Note_off_c, 0, 67, 57
1, 529749, Note_off_c, 0, 75, 64
1, 529766, Control_c, 0, 67, 19
1, 529781, Control_c, 0, 67, 18
1, 529784, Note_on_c, 0, 77, 49
1, 529796, Control_c, 0, 67, 18
1, 529803, Note_on_c, 0, 79, 76
1, 529811, Control_c, 0, 67, 16
1, 529818, Note_off_c, 0, 77, 64
1, 529825, Control_c, 0, 67, 15
1, 529840, Control_c, 0, 67, 14
1, 529855, Control_c, 0, 67, 14
1, 529867, Note_on_c, 0, 77, 74
1, 529870, Control_c, 0, 67, 12
1, 529871, Note_off_c, 0, 79, 62
1, 529884, Control_c, 0, 67, 9
1, 529899, Control_c, 0, 67, 0
1, 529924, Note_off_c, 0, 63, 60
1, 529945, Note_off_c, 0, 77, 62
1, 529953, Note_on_c, 0, 75, 69
1, 530016, Note_on_c, 0, 80, 90
1, 530067, Note_off_c, 0, 75, 61
1, 530118, Note_on_c, 0, 58, 53
1, 530160, Note_off_c, 0, 58, 63
1, 530161, Note_on_c, 0, 60, 68
1, 530172, Control_c, 0, 64, 41
1, 530187, Note_off_c, 0, 60, 67
1, 530187, Control_c, 0, 64, 51
1, 530202, Control_c, 0, 64, 55
1, 530217, Control_c, 0, 64, 58
1, 530228, Note_on_c, 0, 62, 68
1, 530231, Control_c, 0, 64, 60
1, 530246, Control_c, 0, 64, 63
1, 530262, Control_c, 0, 64, 64
1, 530295, Note_off_c, 0, 62, 59
1, 530297, Note_on_c, 0, 60, 61
1, 530307, Control_c, 0, 64, 65
1, 530322, Control_c, 0, 64, 66
1, 530336, Control_c, 0, 64, 68
1, 530351, Control_c, 0, 64, 72
1, 530360, Note_off_c, 0, 80, 64
1, 530366, Control_c, 0, 64, 75
1, 530374, Note_on_c, 0, 58, 65
1, 530380, Control_c, 0, 64, 77
1, 530392, Note_off_c, 0, 60, 51
1, 530425, Control_c, 0, 64, 74
1, 530440, Control_c, 0, 64, 64
1, 530446, Note_on_c, 0, 63, 85
1, 530446, Note_on_c, 0, 79, 87
1, 530455, Control_c, 0, 64, 20
1, 530467, Note_off_c, 0, 58, 58
1, 530470, Control_c, 0, 64, 0
1, 530512, Note_off_c, 0, 79, 55
1, 530528, Note_on_c, 0, 75, 73
1, 530544, Note_off_c, 0, 63, 63
1, 530565, Note_off_c, 0, 75, 55
1, 530577, Note_on_c, 0, 77, 86
1, 530645, Note_off_c, 0, 77, 45
1, 530649, Note_on_c, 0, 79, 72
1, 530711, Note_on_c, 0, 77, 71
1, 530714, Note_off_c, 0, 79, 62
1, 530770, Note_off_c, 0, 77, 61
1, 530787, Note_on_c, 0, 75, 67
1, 530839, Note_off_c, 0, 75, 62
1, 530848, Control_c, 0, 64, 15
1, 530859, Note_on_c, 0, 63, 86
1, 530862, Control_c, 0, 64, 24
1, 530863, Note_on_c, 0, 82, 87
1, 530877, Control_c, 0, 64, 26
1, 530892, Control_c, 0, 64, 23
1, 530901, Note_on_c, 0, 83, 51
1, 530906, Control_c, 0, 64, 0
1, 530914, Note_off_c, 0, 63, 60
1, 530923, Note_off_c, 0, 82, 61
1, 530934, Note_off_c, 0, 83, 61
1, 530942, Note_on_c, 0, 79, 77
1, 531000, Note_on_c, 0, 80, 78
1, 531011, Note_off_c, 0, 79, 57
1, 531049, Note_off_c, 0, 80, 62
1, 531066, Note_on_c, 0, 82, 80
1, 531149, Note_on_c, 0, 80, 69
1, 531175, Note_off_c, 0, 82, 59
1, 531180, Note_on_c, 0, 79, 73
1, 531195, Note_off_c, 0, 80, 55
1, 531203, Control_c, 0, 64, 19
1, 531218, Control_c, 0, 64, 26
1, 531233, Control_c, 0, 64, 28
1, 531248, Control_c, 0, 64, 29
1, 531263, Control_c, 0, 64, 31
1, 531278, Control_c, 0, 64, 31
1, 531284, Note_on_c, 0, 63, 87
1, 531285, Note_on_c, 0, 85, 59
1, 531287, Note_on_c, 0, 55, 78
1, 531293, Note_on_c, 0, 58, 71
1, 531297, Note_on_c, 0, 86, 75
1, 531299, Note_off_c, 0, 79, 51
1, 531307, Note_on_c, 0, 61, 63
1, 531337, Control_c, 0, 64, 32
1, 531340, Note_on_c, 0, 84, 71
1, 531352, Control_c, 0, 64, 33
1, 531367, Control_c, 0, 64, 34
1, 531415, Note_off_c, 0, 86, 33
1, 531423, Note_on_c, 0, 82, 80
1, 531441, Control_c, 0, 64, 33
1, 531445, Note_off_c, 0, 85, 51
1, 531456, Control_c, 0, 64, 32
1, 531457, Note_off_c, 0, 84, 62
1, 531477, Control_c, 0, 64, 31
1, 531490, Note_on_c, 0, 80, 72
1, 531507, Control_c, 0, 64, 29
1, 531521, Note_off_c, 0, 82, 59
1, 531522, Control_c, 0, 64, 28
1, 531537, Control_c, 0, 64, 26
1, 531551, Note_off_c, 0, 80, 65
1, 531552, Control_c, 0, 64, 23
1, 531555, Note_on_c, 0, 79, 77
1, 531567, Control_c, 0, 64, 14
1, 531582, Control_c, 0, 64, 0
1, 531615, Note_off_c, 0, 55, 38
1, 531625, Note_off_c, 0, 79, 57
1, 531635, Note_on_c, 0, 77, 83
1, 531645, Note_off_c, 0, 63, 62
1, 531689, Note_off_c, 0, 61, 58
1, 531701, Note_on_c, 0, 75, 82
1, 531706, Note_off_c, 0, 77, 63
1, 531725, Note_off_c, 0, 58, 61
1, 531758, Note_on_c, 0, 74, 80
1, 531762, Note_off_c, 0, 75, 63
1, 531832, Note_on_c, 0, 75, 73
1, 531847, Note_off_c, 0, 74, 64
1, 531907, Note_on_c, 0, 76, 76
1, 531931, Note_off_c, 0, 75, 59
1, 531938, Control_c, 0, 64, 17
1, 531952, Control_c, 0, 64, 28
1, 531967, Control_c, 0, 64, 36
1, 531969, Note_on_c, 0, 77, 80
1, 531982, Control_c, 0, 64, 40
1, 531997, Control_c, 0, 64, 42
1, 532010, Note_off_c, 0, 76, 58
1, 532012, Control_c, 0, 64, 43
1, 532026, Control_c, 0, 64, 45
1, 532035, Note_on_c, 0, 73, 78
1, 532041, Control_c, 0, 64, 48
1, 532056, Control_c, 0, 64, 49
1, 532068, Note_off_c, 0, 77, 61
1, 532071, Control_c, 0, 64, 50
1, 532085, Control_c, 0, 64, 49
1, 532100, Control_c, 0, 64, 48
1, 532103, Note_on_c, 0, 44, 79
1, 532109, Note_off_c, 0, 73, 61
1, 532115, Control_c, 0, 64, 44
1, 532130, Control_c, 0, 64, 32
1, 532145, Control_c, 0, 64, 0
1, 532181, Note_on_c, 0, 48, 73
1, 532255, Note_on_c, 0, 51, 70
1, 532312, Note_off_c, 0, 48, 55
1, 532316, Note_on_c, 0, 60, 67
1, 532319, Note_on_c, 0, 56, 73
1, 532369, Note_off_c, 0, 44, 63
1, 532375, Note_on_c, 0, 63, 80
1, 532375, Note_on_c, 0, 71, 35
1, 532388, Note_off_c, 0, 60, 63
1, 532405, Note_off_c, 0, 71, 52
1, 532432, Note_off_c, 0, 56, 56
1, 532439, Note_on_c, 0, 68, 77
1, 532440, Note_off_c, 0, 51, 54
1, 532440, Note_off_c, 0, 63, 66
1, 532449, Control_c, 0, 64, 33
1, 532464, Control_c, 0, 64, 40
1, 532479, Control_c, 0, 64, 43
1, 532482, Note_off_c, 0, 68, 62
1, 532509, Control_c, 0, 64, 36
1, 532524, Control_c, 0, 64, 0
1, 532527, Note_on_c, 0, 72, 71
1, 532592, Note_on_c, 0, 75, 59
1, 532616, Note_off_c, 0, 72, 59
1, 532631, Note_on_c, 0, 74, 40
1, 532651, Note_on_c, 0, 80, 74
1, 532660, Note_off_c, 0, 74, 55
1, 532695, Note_off_c, 0, 75, 47
1, 532720, Note_off_c, 0, 80, 62
1, 532732, Note_on_c, 0, 84, 82
1, 532773, Note_off_c, 0, 84, 66
1, 532850, Note_on_c, 0, 84, 80
1, 532873, Note_off_c, 0, 84, 67
1, 532947, Note_on_c, 0, 67, 74
1, 532956, Note_on_c, 0, 84, 80
1, 532957, Note_on_c, 0, 58, 60
1, 532957, Note_on_c, 0, 63, 65
1, 533032, Note_off_c, 0, 84, 62
1, 533088, Note_on_c, 0, 82, 63
1, 533113, Note_off_c, 0, 82, 65
1, 533137, Note_off_c, 0, 67, 56
1, 533146, Note_off_c, 0, 58, 60
1, 533181, Note_on_c, 0, 80, 73
1, 533188, Note_off_c, 0, 63, 59
1, 533203, Note_off_c, 0, 80, 70
1, 533284, Note_on_c, 0, 79, 74
1, 533334, Note_off_c, 0, 79, 62
1, 533392, Note_on_c, 0, 79, 79
1, 533399, Note_on_c, 0, 68, 69
1, 533406, Note_on_c, 0, 65, 55
1, 533413, Note_on_c, 0, 58, 48
1, 533454, Note_off_c, 0, 79, 63
1, 533505, Note_off_c, 0, 65, 50
1, 533516, Note_off_c, 0, 58, 57
1, 533531, Note_on_c, 0, 77, 66
1, 533537, Note_off_c, 0, 68, 38
1, 533550, Note_off_c, 0, 77, 65
1, 533648, Note_on_c, 0, 75, 47
1, 533674, Note_off_c, 0, 75, 56
1, 533713, Note_on_c, 0, 74, 70
1, 533750, Note_off_c, 0, 74, 66
1, 533860, Note_on_c, 0, 63, 54
1, 533864, Note_on_c, 0, 67, 57
1, 533866, Note_on_c, 0, 75, 81
1, 534015, Note_off_c, 0, 67, 57
1, 534035, Note_off_c, 0, 75, 66
1, 534041, Note_off_c, 0, 63, 57
1, 534436, Control_c, 0, 64, 28
1, 534451, Control_c, 0, 64, 50
1, 534473, Control_c, 0, 64, 59
1, 534488, Control_c, 0, 64, 60
1, 534518, Control_c, 0, 64, 61
1, 534533, Control_c, 0, 64, 64
1, 534542, Note_on_c, 0, 58, 42
1, 534547, Control_c, 0, 64, 67
1, 534562, Control_c, 0, 64, 72
1, 534577, Control_c, 0, 64, 77
1, 534592, Control_c, 0, 64, 80
1, 534607, Control_c, 0, 64, 83
1, 534621, Control_c, 0, 64, 85
1, 534636, Control_c, 0, 64, 86
1, 534651, Control_c, 0, 64, 86
1, 534666, Control_c, 0, 64, 87
1, 534680, Control_c, 0, 64, 88
1, 534695, Control_c, 0, 64, 88
1, 534710, Control_c, 0, 64, 89
1, 534740, Control_c, 0, 64, 89
1, 534754, Control_c, 0, 64, 90
1, 534756, Note_off_c, 0, 58, 0
1, 534779, Note_on_c, 0, 65, 62
1, 534782, Note_on_c, 0, 62, 53
1, 534783, Note_on_c, 0, 58, 16
1, 534799, Control_c, 0, 64, 90
1, 534801, Note_on_c, 0, 56, 38
1, 534814, Control_c, 0, 64, 91
1, 534828, Control_c, 0, 64, 92
1, 534843, Control_c, 0, 64, 94
1, 534852, Note_off_c, 0, 65, 60
1, 534858, Control_c, 0, 64, 95
1, 534868, Note_off_c, 0, 62, 52
1, 534873, Control_c, 0, 64, 97
1, 534888, Control_c, 0, 64, 98
1, 534902, Control_c, 0, 64, 100
1, 534917, Control_c, 0, 64, 100
1, 534932, Note_off_c, 0, 58, 45
1, 534935, Note_off_c, 0, 56, 43
1, 534992, Control_c, 0, 64, 101
1, 535016, Note_on_c, 0, 65, 74
1, 535031, Note_on_c, 0, 62, 53
1, 535039, Note_on_c, 0, 56, 45
1, 535040, Note_on_c, 0, 58, 46
1, 535066, Control_c, 0, 64, 101
1, 535081, Control_c, 0, 64, 102
1, 535096, Control_c, 0, 64, 104
1, 535111, Control_c, 0, 64, 105
1, 535126, Control_c, 0, 64, 105
1, 535141, Control_c, 0, 64, 106
1, 535149, Note_off_c, 0, 65, 57
1, 535153, Note_off_c, 0, 58, 53
1, 535155, Note_off_c, 0, 56, 54
1, 535165, Note_off_c, 0, 62, 42
1, 535170, Control_c, 0, 64, 107
1, 535185, Control_c, 0, 64, 107
1, 535201, Control_c, 0, 64, 108
1, 535223, Control_c, 0, 64, 110
1, 535238, Control_c, 0, 64, 110
1, 535252, Note_on_c, 0, 65, 82
1, 535252, Control_c, 0, 64, 111
1, 535265, Note_on_c, 0, 62, 60
1, 535267, Control_c, 0, 64, 112
1, 535275, Note_on_c, 0, 56, 47
1, 535282, Note_on_c, 0, 58, 52
1, 535282, Control_c, 0, 64, 114
1, 535297, Control_c, 0, 64, 115
1, 535311, Control_c, 0, 64, 119
1, 535326, Control_c, 0, 64, 127
1, 535339, Note_off_c, 0, 62, 51
1, 535356, Note_off_c, 0, 58, 50
1, 535370, Note_off_c, 0, 65, 55
1, 535391, Note_off_c, 0, 56, 37
1, 535494, Note_on_c, 0, 65, 78
1, 535502, Note_on_c, 0, 56, 54
1, 535507, Note_on_c, 0, 62, 64
1, 535534, Note_off_c, 0, 62, 62
1, 535560, Note_off_c, 0, 65, 61
1, 535626, Note_off_c, 0, 56, 36
1, 535775, Note_on_c, 0, 70, 85
1, 535783, Note_on_c, 0, 58, 57
1, 535785, Control_c, 0, 64, 90
1, 535792, Note_on_c, 0, 63, 68
1, 535794, Note_on_c, 0, 55, 52
1, 535800, Control_c, 0, 64, 73
1, 535815, Control_c, 0, 64, 63
1, 535829, Control_c, 0, 64, 49
1, 535846, Control_c, 0, 64, 0
1, 535949, Control_c, 0, 64, 8
1, 535972, Control_c, 0, 64, 26
1, 535987, Control_c, 0, 64, 38
1, 536001, Control_c, 0, 64, 48
1, 536016, Control_c, 0, 64, 57
1, 536031, Control_c, 0, 64, 61
1, 536045, Control_c, 0, 64, 62
1, 536060, Control_c, 0, 64, 62
1, 536075, Control_c, 0, 64, 64
1, 536090, Control_c, 0, 64, 66
1, 536105, Control_c, 0, 64, 68
1, 536119, Control_c, 0, 64, 71
1, 536134, Control_c, 0, 64, 74
1, 536149, Control_c, 0, 64, 78
1, 536164, Control_c, 0, 64, 84
1, 536179, Control_c, 0, 64, 90
1, 536193, Control_c, 0, 64, 93
1, 536208, Control_c, 0, 64, 97
1, 536223, Control_c, 0, 64, 99
1, 536238, Control_c, 0, 64, 103
1, 536253, Control_c, 0, 64, 105
1, 536268, Control_c, 0, 64, 106
1, 536283, Control_c, 0, 64, 107
1, 536288, Note_off_c, 0, 63, 61
1, 536300, Note_off_c, 0, 55, 37
1, 536329, Note_off_c, 0, 70, 56
1, 536495, Note_off_c, 0, 58, 26
1, 536510, Note_on_c, 0, 70, 82
1, 536521, Note_on_c, 0, 55, 48
1, 536532, Note_on_c, 0, 63, 47
1, 536591, Note_off_c, 0, 63, 41
1, 536622, Note_off_c, 0, 70, 55
1, 536696, Note_off_c, 0, 55, 56
1, 536765, Control_c, 0, 64, 105
1, 536780, Control_c, 0, 64, 93
1, 536795, Control_c, 0, 64, 77
1, 536797, Note_on_c, 0, 68, 85
1, 536810, Control_c, 0, 64, 63
1, 536815, Note_on_c, 0, 60, 55
1, 536823, Note_on_c, 0, 63, 47
1, 536824, Control_c, 0, 64, 0
1, 536913, Control_c, 0, 64, 26
1, 536928, Control_c, 0, 64, 58
1, 536942, Control_c, 0, 64, 65
1, 536957, Control_c, 0, 64, 66
1, 536972, Control_c, 0, 64, 67
1, 536987, Control_c, 0, 64, 70
1, 537002, Control_c, 0, 64, 77
1, 537016, Control_c, 0, 64, 94
1, 537031, Control_c, 0, 64, 127
1, 537098, Note_off_c, 0, 63, 37
1, 537147, Note_off_c, 0, 68, 56
1, 537298, Control_c, 0, 64, 96
1, 537313, Control_c, 0, 64, 75
1, 537316, Note_on_c, 0, 69, 80
1, 537328, Control_c, 0, 64, 58
1, 537335, Note_off_c, 0, 60, 55
1, 537337, Note_on_c, 0, 59, 48
1, 537341, Note_on_c, 0, 63, 59
1, 537342, Control_c, 0, 64, 0
1, 537343, Note_on_c, 0, 65, 50
1, 537416, Control_c, 0, 64, 43
1, 537431, Control_c, 0, 64, 60
1, 537447, Control_c, 0, 64, 65
1, 537469, Control_c, 0, 64, 66
1, 537484, Control_c, 0, 64, 67
1, 537499, Control_c, 0, 64, 68
1, 537514, Control_c, 0, 64, 71
1, 537529, Control_c, 0, 64, 75
1, 537544, Control_c, 0, 64, 80
1, 537554, Note_off_c, 0, 63, 35
1, 537558, Control_c, 0, 64, 82
1, 537623, Note_off_c, 0, 65, 34
1, 537648, Note_off_c, 0, 69, 59
1, 537840, Control_c, 0, 64, 81
1, 537854, Control_c, 0, 64, 78
1, 537869, Control_c, 0, 64, 73
1, 537880, Note_on_c, 0, 70, 81
1, 537884, Control_c, 0, 64, 66
1, 537898, Control_c, 0, 64, 47
1, 537903, Note_on_c, 0, 58, 52
1, 537904, Note_on_c, 0, 65, 49
1, 537907, Note_on_c, 0, 62, 51
1, 537913, Control_c, 0, 64, 0
1, 537934, Note_off_c, 0, 59, 37
1, 538378, Note_off_c, 0, 62, 60
1, 538395, Note_off_c, 0, 65, 61
1, 538407, Note_off_c, 0, 70, 57
1, 538422, Note_off_c, 0, 58, 62
1, 538587, Control_c, 0, 64, 47
1, 538602, Control_c, 0, 64, 57
1, 538617, Control_c, 0, 64, 59
1, 538632, Note_on_c, 0, 70, 44
1, 538632, Control_c, 0, 64, 61
1, 538646, Control_c, 0, 64, 63
1, 538661, Control_c, 0, 64, 67
1, 538676, Control_c, 0, 64, 71
1, 538691, Control_c, 0, 64, 74
1, 538706, Control_c, 0, 64, 75
1, 538721, Control_c, 0, 64, 76
1, 538736, Control_c, 0, 64, 77
1, 538745, Note_off_c, 0, 70, 58
1, 538751, Control_c, 0, 64, 78
1, 538766, Control_c, 0, 64, 79
1, 538781, Control_c, 0, 64, 80
1, 538795, Control_c, 0, 64, 80
1, 538825, Control_c, 0, 64, 80
1, 538839, Control_c, 0, 64, 77
1, 538854, Control_c, 0, 64, 71
1, 538869, Control_c, 0, 64, 67
1, 538879, Note_on_c, 0, 56, 28
1, 538880, Note_on_c, 0, 62, 35
1, 538884, Note_on_c, 0, 77, 45
1, 538884, Control_c, 0, 64, 64
1, 538890, Note_on_c, 0, 70, 33
1, 538899, Control_c, 0, 64, 63
1, 538913, Control_c, 0, 64, 64
1, 538928, Control_c, 0, 64, 65
1, 538944, Control_c, 0, 64, 67
1, 538959, Control_c, 0, 64, 69
1, 538981, Control_c, 0, 64, 72
1, 538995, Control_c, 0, 64, 75
1, 539010, Control_c, 0, 64, 77
1, 539022, Note_off_c, 0, 70, 43
1, 539024, Note_off_c, 0, 77, 56
1, 539025, Control_c, 0, 64, 78
1, 539041, Control_c, 0, 64, 79
1, 539045, Note_off_c, 0, 56, 42
1, 539055, Note_off_c, 0, 62, 40
1, 539056, Control_c, 0, 64, 80
1, 539070, Control_c, 0, 64, 80
1, 539124, Note_on_c, 0, 70, 50
1, 539125, Note_on_c, 0, 77, 56
1, 539130, Control_c, 0, 64, 81
1, 539136, Note_on_c, 0, 62, 35
1, 539144, Control_c, 0, 64, 82
1, 539145, Note_on_c, 0, 56, 27
1, 539159, Control_c, 0, 64, 83
1, 539174, Control_c, 0, 64, 85
1, 539189, Control_c, 0, 64, 88
1, 539204, Control_c, 0, 64, 91
1, 539206, Note_off_c, 0, 70, 57
1, 539219, Control_c, 0, 64, 94
1, 539234, Control_c, 0, 64, 97
1, 539240, Note_off_c, 0, 77, 58
1, 539248, Note_off_c, 0, 56, 37
1, 539249, Control_c, 0, 64, 100
1, 539255, Note_off_c, 0, 62, 42
1, 539263, Control_c, 0, 64, 105
1, 539278, Control_c, 0, 64, 112
1, 539293, Control_c, 0, 64, 127
1, 539352, Note_on_c, 0, 77, 78
1, 539358, Note_on_c, 0, 70, 57
1, 539363, Note_on_c, 0, 62, 52
1, 539369, Note_on_c, 0, 56, 47
1, 539441, Note_off_c, 0, 56, 51
1, 539444, Note_off_c, 0, 70, 59
1, 539463, Note_off_c, 0, 77, 54
1, 539478, Note_off_c, 0, 62, 34
1, 539578, Note_on_c, 0, 77, 81
1, 539582, Note_on_c, 0, 70, 65
1, 539588, Note_on_c, 0, 62, 61
1, 539590, Note_on_c, 0, 56, 50
1, 539642, Note_off_c, 0, 77, 61
1, 539701, Note_off_c, 0, 56, 49
1, 539701, Note_off_c, 0, 70, 60
1, 539767, Note_off_c, 0, 62, 35
1, 539833, Note_on_c, 0, 82, 90
1, 539841, Note_on_c, 0, 70, 76
1, 539848, Control_c, 0, 64, 97
1, 539852, Note_on_c, 0, 63, 70
1, 539856, Note_on_c, 0, 55, 61
1, 539863, Control_c, 0, 64, 72
1, 539878, Control_c, 0, 64, 53
1, 539892, Control_c, 0, 64, 0
1, 539997, Control_c, 0, 64, 34
1, 540012, Control_c, 0, 64, 48
1, 540027, Control_c, 0, 64, 54
1, 540041, Control_c, 0, 64, 59
1, 540056, Control_c, 0, 64, 63
1, 540071, Control_c, 0, 64, 66
1, 540085, Control_c, 0, 64, 70
1, 540100, Control_c, 0, 64, 75
1, 540115, Control_c, 0, 64, 79
1, 540130, Control_c, 0, 64, 84
1, 540145, Control_c, 0, 64, 91
1, 540159, Control_c, 0, 64, 100
1, 540174, Control_c, 0, 64, 113
1, 540189, Control_c, 0, 64, 127
1, 540314, Note_on_c, 0, 73, 85
1, 540372, Note_off_c, 0, 70, 61
1, 540386, Note_off_c, 0, 82, 51
1, 540451, Note_off_c, 0, 73, 56
1, 540501, Note_off_c, 0, 63, 55
1, 540531, Note_on_c, 0, 83, 86
1, 540579, Note_off_c, 0, 83, 63
1, 540760, Note_on_c, 0, 84, 95
1, 540764, Note_on_c, 0, 63, 86
1, 540765, Note_on_c, 0, 72, 90
1, 540772, Note_on_c, 0, 56, 76
1, 540781, Note_off_c, 0, 55, 63
1, 540804, Control_c, 0, 64, 77
1, 540819, Control_c, 0, 64, 55
1, 540834, Note_off_c, 0, 84, 62
1, 540834, Control_c, 0, 64, 0
1, 540846, Note_off_c, 0, 63, 63
1, 540848, Note_off_c, 0, 56, 62
1, 540853, Note_off_c, 0, 72, 59
1, 541237, Note_on_c, 0, 74, 88
1, 541246, Note_on_c, 0, 65, 82
1, 541246, Note_on_c, 0, 68, 80
1, 541252, Note_on_c, 0, 58, 85
1, 541255, Note_on_c, 0, 46, 84
1, 541298, Note_off_c, 0, 65, 62
1, 541320, Note_off_c, 0, 74, 66
1, 541320, Note_off_c, 0, 68, 64
1, 541340, Note_off_c, 0, 46, 60
1, 541386, Note_off_c, 0, 58, 60
1, 541627, Control_c, 0, 67, 17
1, 541642, Control_c, 0, 67, 34
1, 541656, Control_c, 0, 67, 50
1, 541671, Control_c, 0, 67, 66
1, 541686, Control_c, 0, 67, 82
1, 541701, Control_c, 0, 67, 97
1, 541716, Control_c, 0, 67, 108
1, 541730, Control_c, 0, 67, 116
1, 541732, Note_on_c, 0, 75, 59
1, 541745, Control_c, 0, 67, 121
1, 541758, Note_on_c, 0, 67, 42
1, 541760, Control_c, 0, 67, 122
1, 541818, Note_on_c, 0, 63, 57
1, 541819, Control_c, 0, 67, 121
1, 541834, Control_c, 0, 67, 119
1, 541839, Note_off_c, 0, 67, 54
1, 541849, Control_c, 0, 67, 119
1, 541863, Control_c, 0, 67, 118
1, 541878, Control_c, 0, 67, 118
1, 541887, Note_on_c, 0, 65, 62
1, 541890, Note_off_c, 0, 63, 57
1, 541922, Note_off_c, 0, 65, 61
1, 541969, Note_on_c, 0, 67, 67
1, 541989, Control_c, 0, 67, 117
1, 542004, Control_c, 0, 67, 117
1, 542019, Control_c, 0, 64, 17
1, 542019, Control_c, 0, 67, 116
1, 542033, Note_off_c, 0, 67, 61
1, 542034, Control_c, 0, 64, 23
1, 542034, Control_c, 0, 67, 116
1, 542042, Note_on_c, 0, 65, 63
1, 542049, Control_c, 0, 64, 24
1, 542049, Control_c, 0, 67, 115
1, 542063, Control_c, 0, 67, 114
1, 542078, Control_c, 0, 64, 23
1, 542078, Control_c, 0, 67, 112
1, 542093, Control_c, 0, 64, 21
1, 542093, Control_c, 0, 67, 111
1, 542095, Note_on_c, 0, 63, 69
1, 542097, Note_off_c, 0, 65, 59
1, 542108, Control_c, 0, 64, 18
1, 542108, Control_c, 0, 67, 108
1, 542123, Control_c, 0, 64, 10
1, 542123, Control_c, 0, 67, 104
1, 542137, Control_c, 0, 64, 0
1, 542137, Control_c, 0, 67, 98
1, 542152, Control_c, 0, 67, 93
1, 542166, Note_on_c, 0, 68, 84
1, 542167, Control_c, 0, 67, 91
1, 542168, Note_off_c, 0, 75, 32
1, 542170, Note_off_c, 0, 63, 61
1, 542182, Control_c, 0, 67, 90
1, 542212, Control_c, 0, 67, 91
1, 542227, Control_c, 0, 67, 93
1, 542234, Note_on_c, 0, 70, 61
1, 542242, Control_c, 0, 67, 95
1, 542257, Control_c, 0, 67, 98
1, 542272, Control_c, 0, 67, 99
1, 542286, Control_c, 0, 64, 8
1, 542286, Control_c, 0, 67, 101
1, 542301, Control_c, 0, 67, 103
1, 542307, Note_on_c, 0, 72, 53
1, 542316, Control_c, 0, 64, 10
1, 542316, Control_c, 0, 67, 106
1, 542331, Control_c, 0, 64, 12
1, 542331, Control_c, 0, 67, 110
1, 542337, Note_off_c, 0, 70, 59
1, 542346, Control_c, 0, 64, 14
1, 542346, Control_c, 0, 67, 113
1, 542361, Control_c, 0, 67, 115
1, 542362, Note_off_c, 0, 72, 61
1, 542376, Control_c, 0, 64, 17
1, 542376, Control_c, 0, 67, 117
1, 542380, Note_on_c, 0, 74, 55
1, 542390, Control_c, 0, 67, 118
1, 542405, Control_c, 0, 67, 119
1, 542420, Control_c, 0, 64, 15
1, 542450, Note_off_c, 0, 74, 61
1, 542450, Control_c, 0, 64, 14
1, 542465, Control_c, 0, 67, 119
1, 542476, Note_on_c, 0, 72, 44
1, 542480, Control_c, 0, 67, 120
1, 542494, Control_c, 0, 67, 120
1, 542509, Control_c, 0, 64, 15
1, 542509, Control_c, 0, 67, 122
1, 542524, Control_c, 0, 64, 17
1, 542524, Control_c, 0, 67, 124
1, 542529, Note_on_c, 0, 70, 59
1, 542539, Control_c, 0, 64, 20
1, 542539, Control_c, 0, 67, 126
1, 542547, Note_off_c, 0, 72, 59
1, 542553, Control_c, 0, 64, 24
1, 542553, Control_c, 0, 67, 127
1, 542568, Control_c, 0, 64, 29
1, 542583, Control_c, 0, 64, 32
1, 542598, Control_c, 0, 64, 33
1, 542609, Note_on_c, 0, 75, 76
1, 542629, Note_on_c, 0, 67, 57
1, 542635, Note_off_c, 0, 68, 53
1, 542657, Control_c, 0, 64, 32
1, 542672, Control_c, 0, 64, 32
1, 542673, Note_off_c, 0, 70, 55
1, 542695, Note_on_c, 0, 63, 61
1, 542696, Note_off_c, 0, 67, 61
1, 542754, Control_c, 0, 64, 32
1, 542769, Control_c, 0, 64, 33
1, 542778, Note_off_c, 0, 63, 57
1, 542784, Control_c, 0, 64, 34
1, 542786, Note_on_c, 0, 65, 49
1, 542799, Control_c, 0, 64, 36
1, 542813, Control_c, 0, 64, 37
1, 542828, Control_c, 0, 64, 38
1, 542837, Note_off_c, 0, 65, 61
1, 542843, Control_c, 0, 64, 39
1, 542844, Note_on_c, 0, 67, 67
1, 542858, Control_c, 0, 64, 39
1, 542873, Control_c, 0, 64, 40
1, 542887, Control_c, 0, 64, 41
1, 542887, Control_c, 0, 67, 127
1, 542902, Control_c, 0, 64, 41
1, 542913, Note_off_c, 0, 67, 62
1, 542923, Note_on_c, 0, 65, 51
1, 542932, Control_c, 0, 64, 42
1, 542947, Control_c, 0, 64, 42
1, 542954, Note_off_c, 0, 75, 59
1, 542961, Control_c, 0, 64, 43
1, 542976, Control_c, 0, 64, 44
1, 542977, Note_on_c, 0, 63, 77
1, 542979, Note_off_c, 0, 65, 62
1, 542991, Control_c, 0, 64, 45
1, 542991, Control_c, 0, 67, 126
1, 543005, Control_c, 0, 64, 45
1, 543020, Control_c, 0, 64, 46
1, 543036, Control_c, 0, 64, 47
1, 543049, Note_on_c, 0, 68, 90
1, 543051, Control_c, 0, 64, 48
1, 543066, Control_c, 0, 64, 49
1, 543076, Note_off_c, 0, 63, 54
1, 543081, Control_c, 0, 64, 50
1, 543096, Control_c, 0, 64, 51
1, 543096, Control_c, 0, 67, 127
1, 543110, Control_c, 0, 67, 127
1, 543116, Note_on_c, 0, 70, 69
1, 543140, Control_c, 0, 64, 50
1, 543184, Control_c, 0, 64, 50
1, 543192, Note_on_c, 0, 72, 60
1, 543214, Control_c, 0, 64, 50
1, 543225, Note_off_c, 0, 70, 61
1, 543247, Note_off_c, 0, 72, 65
1, 543258, Control_c, 0, 64, 50
1, 543259, Note_on_c, 0, 74, 67
1, 543273, Control_c, 0, 64, 49
1, 543288, Control_c, 0, 64, 49
1, 543303, Control_c, 0, 64, 48
1, 543303, Control_c, 0, 67, 127
1, 543318, Control_c, 0, 67, 126
1, 543332, Control_c, 0, 67, 126
1, 543335, Note_off_c, 0, 74, 64
1, 543338, Note_on_c, 0, 72, 69
1, 543347, Control_c, 0, 64, 49
1, 543362, Control_c, 0, 64, 49
1, 543377, Control_c, 0, 64, 50
1, 543386, Note_off_c, 0, 72, 59
1, 543392, Control_c, 0, 64, 51
1, 543398, Note_on_c, 0, 70, 70
1, 543436, Control_c, 0, 64, 48
1, 543458, Control_c, 0, 64, 42
1, 543458, Control_c, 0, 67, 125
1, 543468, Note_on_c, 0, 67, 83
1, 543473, Control_c, 0, 64, 0
1, 543473, Control_c, 0, 67, 123
1, 543477, Note_on_c, 0, 63, 73
1, 543481, Note_on_c, 0, 75, 66
1, 543488, Control_c, 0, 67, 121
1, 543490, Note_off_c, 0, 68, 63
1, 543498, Note_off_c, 0, 67, 63
1, 543503, Control_c, 0, 67, 119
1, 543506, Note_off_c, 0, 70, 60
1, 543507, Note_off_c, 0, 75, 54
1, 543508, Note_off_c, 0, 63, 65
1, 543517, Control_c, 0, 67, 117
1, 543524, Note_on_c, 0, 74, 37
1, 543552, Note_on_c, 0, 79, 68
1, 543553, Note_off_c, 0, 74, 57
1, 543622, Note_on_c, 0, 77, 71
1, 543622, Control_c, 0, 67, 116
1, 543636, Control_c, 0, 67, 115
1, 543651, Control_c, 0, 67, 112
1, 543666, Control_c, 0, 67, 106
1, 543673, Note_on_c, 0, 60, 78
1, 543681, Control_c, 0, 67, 98
1, 543681, Note_on_c, 0, 75, 70
1, 543696, Control_c, 0, 67, 82
1, 543710, Control_c, 0, 67, 60
1, 543718, Note_off_c, 0, 60, 61
1, 543723, Note_off_c, 0, 77, 59
1, 543725, Control_c, 0, 67, 35
1, 543739, Note_off_c, 0, 75, 63
1, 543740, Control_c, 0, 67, 13
1, 543751, Note_on_c, 0, 74, 74
1, 543754, Control_c, 0, 67, 0
1, 543768, Note_off_c, 0, 79, 37
1, 543818, Note_off_c, 0, 74, 60
1, 543824, Note_on_c, 0, 72, 73
1, 543885, Note_on_c, 0, 56, 89
1, 543895, Note_off_c, 0, 72, 63
1, 543902, Note_on_c, 0, 71, 72
1, 543924, Note_off_c, 0, 56, 62
1, 543962, Note_off_c, 0, 71, 60
1, 543967, Note_on_c, 0, 72, 57
1, 544042, Note_on_c, 0, 70, 76
1, 544076, Note_off_c, 0, 72, 61
1, 544099, Note_on_c, 0, 58, 91
1, 544116, Note_on_c, 0, 68, 74
1, 544119, Note_off_c, 0, 58, 68
1, 544149, Note_off_c, 0, 70, 61
1, 544158, Note_off_c, 0, 68, 60
1, 544182, Note_on_c, 0, 67, 74
1, 544261, Note_off_c, 0, 67, 36
1, 544273, Note_on_c, 0, 65, 68
1, 544336, Note_on_c, 0, 63, 84
1, 544370, Note_off_c, 0, 65, 61
1, 544429, Note_on_c, 0, 39, 61
1, 544507, Note_off_c, 0, 39, 54
1, 544527, Note_on_c, 0, 43, 66
1, 544602, Note_off_c, 0, 43, 63
1, 544606, Note_on_c, 0, 41, 67
1, 544681, Control_c, 0, 64, 15
1, 544692, Note_on_c, 0, 39, 59
1, 544711, Control_c, 0, 64, 0
1, 544715, Note_off_c, 0, 41, 46
1, 544742, Note_on_c, 0, 44, 85
1, 544750, Note_off_c, 0, 39, 61
1, 544751, Note_off_c, 0, 63, 37
1, 544825, Note_on_c, 0, 58, 67
1, 544891, Note_on_c, 0, 60, 70
1, 544918, Note_off_c, 0, 58, 58
1, 544962, Note_off_c, 0, 60, 62
1, 544972, Note_on_c, 0, 62, 66
1, 545047, Note_off_c, 0, 62, 57
1, 545059, Note_on_c, 0, 60, 58
1, 545118, Note_on_c, 0, 58, 51
1, 545140, Note_off_c, 0, 60, 53
1, 545200, Note_on_c, 0, 63, 71
1, 545201, Note_on_c, 0, 43, 60
1, 545228, Note_off_c, 0, 44, 61
1, 545237, Note_off_c, 0, 58, 49
1, 545273, Note_on_c, 0, 39, 60
1, 545281, Note_off_c, 0, 43, 60
1, 545342, Note_on_c, 0, 41, 70
1, 545393, Note_off_c, 0, 39, 36
1, 545408, Note_off_c, 0, 41, 65
1, 545410, Note_on_c, 0, 43, 73
1, 545494, Note_off_c, 0, 43, 62
1, 545495, Note_on_c, 0, 41, 67
1, 545524, Note_on_c, 0, 39, 66
1, 545557, Note_off_c, 0, 63, 31
1, 545574, Note_off_c, 0, 41, 44
1, 545621, Note_on_c, 0, 44, 89
1, 545642, Note_off_c, 0, 39, 58
1, 545696, Note_on_c, 0, 58, 68
1, 545787, Note_on_c, 0, 60, 53
1, 545808, Note_off_c, 0, 58, 51
1, 545837, Note_off_c, 0, 60, 60
1, 545845, Note_on_c, 0, 62, 62
1, 545928, Note_off_c, 0, 62, 59
1, 545940, Note_on_c, 0, 60, 57
1, 545982, Note_on_c, 0, 58, 44
1, 546017, Note_off_c, 0, 60, 52
1, 546086, Note_on_c, 0, 43, 73
1, 546090, Note_on_c, 0, 63, 71
1, 546123, Note_off_c, 0, 44, 45
1, 546151, Note_off_c, 0, 58, 62
1, 546164, Note_on_c, 0, 39, 62
1, 546171, Note_off_c, 0, 43, 61
1, 546220, Note_on_c, 0, 41, 72
1, 546251, Note_off_c, 0, 39, 49
1, 546286, Note_on_c, 0, 43, 83
1, 546289, Note_off_c, 0, 41, 64
1, 546362, Note_on_c, 0, 41, 77
1, 546374, Note_off_c, 0, 43, 61
1, 546436, Note_on_c, 0, 39, 76
1, 546456, Note_off_c, 0, 41, 62
1, 546522, Note_on_c, 0, 44, 88
1, 546543, Note_off_c, 0, 39, 61
1, 546571, Note_off_c, 0, 63, 32
1, 546607, Note_on_c, 0, 59, 69
1, 546693, Note_on_c, 0, 60, 68
1, 546716, Note_off_c, 0, 59, 54
1, 546755, Note_off_c, 0, 60, 61
1, 546775, Note_on_c, 0, 62, 71
1, 546847, Note_on_c, 0, 60, 66
1, 546847, Note_off_c, 0, 62, 59
1, 546877, Note_off_c, 0, 60, 64
1, 546904, Note_on_c, 0, 59, 70
1, 546969, Note_off_c, 0, 59, 62
1, 546974, Note_on_c, 0, 65, 73
1, 547040, Note_off_c, 0, 65, 63
1, 547047, Note_on_c, 0, 63, 72
1, 547097, Note_off_c, 0, 63, 64
1, 547106, Note_on_c, 0, 62, 72
1, 547175, Note_off_c, 0, 62, 59
1, 547176, Note_on_c, 0, 68, 71
1, 547252, Note_on_c, 0, 67, 70
1, 547252, Note_off_c, 0, 68, 66
1, 547282, Note_off_c, 0, 67, 63
1, 547309, Note_on_c, 0, 65, 79
1, 547336, Control_c, 0, 64, 8
1, 547351, Control_c, 0, 64, 10
1, 547375, Note_off_c, 0, 65, 61
1, 547380, Control_c, 0, 64, 8
1, 547381, Note_on_c, 0, 74, 86
1, 547410, Control_c, 0, 64, 0
1, 547442, Note_on_c, 0, 72, 86
1, 547459, Note_off_c, 0, 74, 66
1, 547491, Note_off_c, 0, 72, 66
1, 547499, Control_c, 0, 64, 10
1, 547514, Control_c, 0, 64, 12
1, 547517, Note_on_c, 0, 71, 80
1, 547529, Control_c, 0, 64, 14
1, 547544, Control_c, 0, 64, 17
1, 547558, Control_c, 0, 64, 21
1, 547568, Note_off_c, 0, 44, 62
1, 547573, Control_c, 0, 64, 24
1, 547577, Note_off_c, 0, 71, 61
1, 547586, Note_on_c, 0, 77, 94
1, 547588, Control_c, 0, 64, 26
1, 547647, Control_c, 0, 64, 28
1, 547655, Note_on_c, 0, 75, 80
1, 547655, Note_off_c, 0, 77, 64
1, 547662, Control_c, 0, 64, 29
1, 547676, Control_c, 0, 64, 30
1, 547699, Note_off_c, 0, 75, 64
1, 547720, Control_c, 0, 64, 31
1, 547724, Note_on_c, 0, 74, 70
1, 547735, Control_c, 0, 64, 32
1, 547750, Control_c, 0, 64, 34
1, 547765, Control_c, 0, 64, 37
1, 547780, Control_c, 0, 64, 39
1, 547795, Control_c, 0, 64, 41
1, 547801, Note_off_c, 0, 74, 62
1, 547810, Control_c, 0, 64, 44
1, 547825, Control_c, 0, 64, 48
1, 547840, Control_c, 0, 64, 51
1, 547860, Note_on_c, 0, 89, 105
1, 547861, Note_on_c, 0, 31, 80
1, 547863, Note_on_c, 0, 43, 85
1, 547870, Control_c, 0, 64, 50
1, 547885, Control_c, 0, 64, 49
1, 547899, Control_c, 0, 64, 47
1, 547914, Control_c, 0, 64, 45
1, 547929, Control_c, 0, 64, 43
1, 547952, Control_c, 0, 64, 39
1, 547967, Control_c, 0, 64, 27
1, 547981, Control_c, 0, 64, 0
1, 548514, Control_c, 0, 64, 12
1, 548529, Control_c, 0, 64, 14
1, 548558, Control_c, 0, 64, 15
1, 548573, Control_c, 0, 64, 17
1, 548588, Control_c, 0, 64, 18
1, 548603, Control_c, 0, 64, 20
1, 548619, Control_c, 0, 64, 21
1, 548648, Control_c, 0, 64, 22
1, 548663, Control_c, 0, 64, 23
1, 548715, Note_on_c, 0, 87, 82
1, 548729, Control_c, 0, 64, 23
1, 548759, Control_c, 0, 64, 24
1, 548773, Control_c, 0, 64, 26
1, 548788, Control_c, 0, 64, 28
1, 548803, Control_c, 0, 64, 28
1, 548818, Control_c, 0, 64, 29
1, 548833, Control_c, 0, 64, 32
1, 548843, Note_on_c, 0, 86, 85
1, 548844, Note_off_c, 0, 89, 61
1, 548847, Control_c, 0, 64, 34
1, 548862, Control_c, 0, 64, 35
1, 548877, Control_c, 0, 64, 36
1, 548892, Control_c, 0, 64, 37
1, 548907, Control_c, 0, 64, 38
1, 548922, Control_c, 0, 64, 40
1, 548928, Note_off_c, 0, 87, 57
1, 548937, Control_c, 0, 64, 42
1, 548948, Note_on_c, 0, 84, 92
1, 548950, Note_off_c, 0, 86, 62
1, 548951, Control_c, 0, 64, 45
1, 548966, Control_c, 0, 64, 48
1, 548981, Control_c, 0, 64, 53
1, 548996, Control_c, 0, 64, 57
1, 549011, Control_c, 0, 64, 58
1, 549044, Note_on_c, 0, 83, 88
1, 549060, Note_off_c, 0, 84, 63
1, 549115, Control_c, 0, 64, 58
1, 549125, Note_on_c, 0, 80, 90
1, 549143, Note_off_c, 0, 83, 61
1, 549144, Control_c, 0, 64, 58
1, 549194, Note_off_c, 0, 80, 62
1, 549202, Note_on_c, 0, 79, 88
1, 549247, Control_c, 0, 64, 58
1, 549262, Note_off_c, 0, 79, 59
1, 549262, Control_c, 0, 64, 57
1, 549265, Note_on_c, 0, 77, 86
1, 549292, Control_c, 0, 64, 57
1, 549327, Note_on_c, 0, 75, 85
1, 549342, Note_off_c, 0, 77, 61
1, 549385, Note_on_c, 0, 74, 83
1, 549386, Note_off_c, 0, 75, 65
1, 549396, Control_c, 0, 64, 56
1, 549410, Control_c, 0, 64, 55
1, 549427, Control_c, 0, 64, 54
1, 549449, Control_c, 0, 64, 51
1, 549454, Note_on_c, 0, 72, 82
1, 549464, Control_c, 0, 64, 48
1, 549468, Note_off_c, 0, 74, 63
1, 549479, Control_c, 0, 64, 45
1, 549494, Control_c, 0, 64, 44
1, 549499, Note_on_c, 0, 71, 84
1, 549509, Control_c, 0, 64, 44
1, 549524, Control_c, 0, 64, 46
1, 549533, Note_off_c, 0, 72, 65
1, 549539, Control_c, 0, 64, 49
1, 549553, Control_c, 0, 64, 55
1, 549554, Note_on_c, 0, 68, 85
1, 549568, Note_off_c, 0, 71, 64
1, 549568, Control_c, 0, 64, 61
1, 549580, Note_off_c, 0, 31, 61
1, 549583, Control_c, 0, 64, 63
1, 549593, Note_off_c, 0, 68, 68
1, 549597, Control_c, 0, 64, 65
1, 549599, Note_on_c, 0, 67, 82
1, 549612, Control_c, 0, 64, 68
1, 549627, Control_c, 0, 64, 70
1, 549642, Control_c, 0, 64, 73
1, 549648, Note_on_c, 0, 65, 85
1, 549651, Note_off_c, 0, 67, 60
1, 549657, Control_c, 0, 64, 76
1, 549671, Control_c, 0, 64, 78
1, 549674, Note_off_c, 0, 43, 61
1, 549686, Control_c, 0, 64, 79
1, 549701, Control_c, 0, 64, 79
1, 549708, Note_on_c, 0, 63, 86
1, 549716, Control_c, 0, 64, 80
1, 549729, Note_off_c, 0, 65, 61
1, 549731, Control_c, 0, 64, 81
1, 549745, Control_c, 0, 64, 82
1, 549758, Note_on_c, 0, 62, 87
1, 549760, Control_c, 0, 64, 82
1, 549768, Note_off_c, 0, 63, 65
1, 549775, Control_c, 0, 64, 83
1, 549818, Note_on_c, 0, 60, 89
1, 549829, Note_off_c, 0, 62, 61
1, 549834, Control_c, 0, 64, 82
1, 549849, Control_c, 0, 64, 75
1, 549864, Control_c, 0, 64, 65
1, 549876, Note_on_c, 0, 59, 91
1, 549878, Control_c, 0, 64, 34
1, 549879, Note_on_c, 0, 50, 83
1, 549879, Note_on_c, 0, 53, 89
1, 549883, Note_on_c, 0, 43, 80
1, 549893, Control_c, 0, 64, 0
1, 549923, Note_off_c, 0, 60, 61
1, 551709, Control_c, 0, 67, 14
1, 551724, Control_c, 0, 67, 23
1, 551739, Control_c, 0, 67, 36
1, 551754, Control_c, 0, 67, 47
1, 551768, Control_c, 0, 67, 59
1, 551783, Control_c, 0, 67, 71
1, 551798, Control_c, 0, 67, 84
1, 551801, Note_off_c, 0, 59, 62
1, 551813, Control_c, 0, 67, 97
1, 551829, Control_c, 0, 67, 109
1, 551844, Control_c, 0, 67, 122
1, 551846, Note_off_c, 0, 43, 58
1, 551859, Control_c, 0, 67, 127
1, 551899, Note_off_c, 0, 53, 56
1, 551920, Note_off_c, 0, 50, 55
1, 552061, Note_on_c, 0, 67, 68
1, 552099, Note_off_c, 0, 67, 58
1, 552178, Note_on_c, 0, 72, 70
1, 552218, Note_off_c, 0, 72, 58
1, 552278, Note_on_c, 0, 74, 69
1, 552310, Note_off_c, 0, 74, 62
1, 552390, Note_on_c, 0, 75, 73
1, 552411, Note_on_c, 0, 48, 44
1, 552529, Note_on_c, 0, 51, 48
1, 552568, Note_off_c, 0, 48, 31
1, 552638, Note_on_c, 0, 55, 42
1, 552671, Note_off_c, 0, 51, 36
1, 552741, Note_off_c, 0, 55, 58
1, 552751, Note_on_c, 0, 60, 42
1, 552752, Note_on_c, 0, 77, 62
1, 552768, Note_off_c, 0, 75, 55
1, 552853, Note_off_c, 0, 60, 46
1, 552856, Note_on_c, 0, 74, 61
1, 552869, Note_on_c, 0, 48, 46
1, 552957, Note_off_c, 0, 77, 38
1, 552968, Note_off_c, 0, 48, 54
1, 552981, Note_on_c, 0, 53, 44
1, 553092, Note_off_c, 0, 53, 58
1, 553107, Note_on_c, 0, 55, 43
1, 553198, Note_on_c, 0, 75, 56
1, 553205, Note_on_c, 0, 59, 33
1, 553205, Note_off_c, 0, 55, 52
1, 553289, Note_off_c, 0, 74, 37
1, 553301, Note_off_c, 0, 59, 38
1, 553322, Note_on_c, 0, 48, 38
1, 553322, Note_on_c, 0, 72, 59
1, 553351, Note_off_c, 0, 75, 56
1, 553439, Note_on_c, 0, 51, 47
1, 553482, Note_off_c, 0, 48, 34
1, 553518, Control_c, 0, 64, 47
1, 553533, Control_c, 0, 64, 57
1, 553545, Note_on_c, 0, 55, 49
1, 553548, Control_c, 0, 64, 60
1, 553563, Control_c, 0, 64, 60
1, 553578, Control_c, 0, 64, 61
1, 553583, Note_off_c, 0, 51, 37
1, 553608, Control_c, 0, 64, 61
1, 553615, Note_off_c, 0, 55, 64
1, 553623, Control_c, 0, 64, 62
1, 553655, Note_on_c, 0, 60, 57
1, 553656, Note_off_c, 0, 72, 64
1, 553711, Control_c, 0, 64, 61
1, 553725, Note_off_c, 0, 60, 55
1, 553726, Control_c, 0, 64, 60
1, 553741, Control_c, 0, 64, 58
1, 553745, Note_on_c, 0, 74, 60
1, 553756, Control_c, 0, 64, 55
1, 553770, Control_c, 0, 64, 49
1, 553776, Note_on_c, 0, 72, 68
1, 553783, Note_on_c, 0, 63, 54
1, 553785, Control_c, 0, 64, 41
1, 553800, Control_c, 0, 64, 28
1, 553815, Control_c, 0, 64, 0
1, 553862, Note_off_c, 0, 63, 62
1, 553876, Note_on_c, 0, 71, 65
1, 553888, Note_on_c, 0, 67, 65
1, 553896, Note_off_c, 0, 74, 58
1, 553905, Note_off_c, 0, 72, 58
1, 553981, Note_off_c, 0, 71, 61
1, 553983, Note_on_c, 0, 72, 68
1, 553995, Note_on_c, 0, 63, 64
1, 554055, Note_off_c, 0, 67, 37
1, 554082, Note_on_c, 0, 74, 72
1, 554100, Note_on_c, 0, 62, 58
1, 554130, Note_off_c, 0, 72, 64
1, 554153, Note_off_c, 0, 63, 54
1, 554190, Note_on_c, 0, 60, 63
1, 554190, Note_on_c, 0, 77, 70
1, 554207, Note_on_c, 0, 75, 75
1, 554228, Note_off_c, 0, 74, 63
1, 554231, Note_off_c, 0, 62, 59
1, 554275, Note_off_c, 0, 60, 60
1, 554282, Note_off_c, 0, 77, 59
1, 554291, Note_on_c, 0, 67, 65
1, 554313, Note_off_c, 0, 75, 65
1, 554316, Note_on_c, 0, 74, 73
1, 554396, Note_off_c, 0, 67, 57
1, 554401, Note_on_c, 0, 63, 54
1, 554410, Note_on_c, 0, 75, 73
1, 554413, Note_on_c, 0, 60, 51
1, 554460, Note_off_c, 0, 60, 59
1, 554462, Note_off_c, 0, 74, 56
1, 554490, Note_off_c, 0, 63, 54
1, 554507, Note_on_c, 0, 67, 61
1, 554510, Note_on_c, 0, 77, 73
1, 554566, Note_off_c, 0, 75, 57
1, 554611, Note_on_c, 0, 59, 56
1, 554612, Note_on_c, 0, 79, 73
1, 554615, Note_off_c, 0, 67, 46
1, 554619, Note_on_c, 0, 62, 50
1, 554619, Note_off_c, 0, 77, 61
1, 554635, Note_off_c, 0, 79, 66
1, 554668, Note_off_c, 0, 59, 61
1, 554690, Note_off_c, 0, 62, 57
1, 554730, Note_on_c, 0, 67, 50
1, 554850, Note_off_c, 0, 67, 57
1, 554854, Note_on_c, 0, 79, 75
1, 554870, Note_on_c, 0, 60, 46
1, 554872, Note_on_c, 0, 56, 45
1, 554891, Note_off_c, 0, 79, 60
1, 554930, Note_off_c, 0, 56, 54
1, 554946, Note_off_c, 0, 60, 58
1, 554979, Note_on_c, 0, 67, 53
1, 555122, Note_on_c, 0, 55, 43
1, 555122, Note_on_c, 0, 79, 78
1, 555197, Note_off_c, 0, 67, 28
1, 555231, Note_on_c, 0, 59, 46
1, 555268, Note_off_c, 0, 55, 33
1, 555352, Note_on_c, 0, 62, 48
1, 555411, Note_off_c, 0, 59, 37
1, 555447, Note_on_c, 0, 67, 47
1, 555505, Note_off_c, 0, 62, 36
1, 555566, Note_on_c, 0, 55, 46
1, 555635, Note_off_c, 0, 67, 37
1, 555656, Note_off_c, 0, 55, 54
1, 555668, Note_on_c, 0, 59, 56
1, 555687, Note_off_c, 0, 79, 56
1, 555767, Note_off_c, 0, 59, 57
1, 555778, Note_on_c, 0, 77, 76
1, 555779, Note_on_c, 0, 62, 47
1, 555855, Note_on_c, 0, 67, 46
1, 555855, Note_off_c, 0, 62, 60
1, 555867, Note_on_c, 0, 79, 75
1, 555883, Control_c, 0, 67, 125
1, 555888, Note_off_c, 0, 77, 61
1, 555898, Control_c, 0, 67, 123
1, 555912, Control_c, 0, 67, 122
1, 555918, Note_off_c, 0, 79, 60
1, 555927, Control_c, 0, 67, 122
1, 555942, Control_c, 0, 67, 121
1, 555957, Control_c, 0, 67, 121
1, 555966, Note_off_c, 0, 67, 48
1, 555977, Note_on_c, 0, 77, 63
1, 555999, Note_on_c, 0, 53, 50
1, 556023, Note_on_c, 0, 79, 75
1, 556031, Control_c, 0, 67, 121
1, 556046, Control_c, 0, 67, 122
1, 556046, Note_off_c, 0, 77, 58
1, 556061, Control_c, 0, 67, 122
1, 556075, Note_on_c, 0, 80, 75
1, 556076, Control_c, 0, 67, 123
1, 556091, Control_c, 0, 67, 124
1, 556105, Control_c, 0, 67, 125
1, 556120, Control_c, 0, 67, 126
1, 556132, Note_on_c, 0, 56, 46
1, 556132, Note_off_c, 0, 79, 55
1, 556135, Control_c, 0, 67, 127
1, 556175, Note_off_c, 0, 53, 37
1, 556259, Note_on_c, 0, 59, 53
1, 556273, Note_off_c, 0, 56, 53
1, 556346, Note_on_c, 0, 62, 49
1, 556401, Note_off_c, 0, 59, 37
1, 556474, Note_off_c, 0, 62, 50
1, 556475, Note_on_c, 0, 74, 56
1, 556477, Note_on_c, 0, 53, 42
1, 556577, Note_off_c, 0, 80, 61
1, 556589, Note_off_c, 0, 53, 58
1, 556590, Note_on_c, 0, 56, 45
1, 556618, Note_off_c, 0, 74, 63
1, 556648, Control_c, 0, 67, 127
1, 556662, Control_c, 0, 67, 126
1, 556677, Control_c, 0, 67, 125
1, 556684, Note_on_c, 0, 59, 53
1, 556692, Control_c, 0, 67, 125
1, 556693, Note_off_c, 0, 56, 57
1, 556694, Note_on_c, 0, 75, 75
1, 556754, Note_on_c, 0, 62, 50
1, 556791, Note_on_c, 0, 77, 72
1, 556809, Note_off_c, 0, 75, 61
1, 556812, Note_off_c, 0, 59, 35
1, 556847, Note_off_c, 0, 77, 62
1, 556884, Control_c, 0, 67, 125
1, 556894, Note_off_c, 0, 62, 43
1, 556899, Control_c, 0, 67, 126
1, 556902, Note_on_c, 0, 75, 63
1, 556907, Note_on_c, 0, 51, 49
1, 556946, Note_on_c, 0, 77, 76
1, 556951, Control_c, 0, 67, 126
1, 556981, Control_c, 0, 67, 127
1, 556988, Note_off_c, 0, 75, 60
1, 556995, Control_c, 0, 67, 127
1, 556997, Note_on_c, 0, 79, 76
1, 557039, Note_on_c, 0, 55, 49
1, 557068, Note_off_c, 0, 77, 54
1, 557074, Note_off_c, 0, 51, 49
1, 557143, Note_on_c, 0, 60, 52
1, 557168, Note_off_c, 0, 55, 51
1, 557231, Note_off_c, 0, 60, 61
1, 557255, Note_on_c, 0, 63, 52
1, 557355, Note_off_c, 0, 63, 59
1, 557364, Note_on_c, 0, 56, 54
1, 557384, Note_on_c, 0, 72, 52
1, 557431, Note_off_c, 0, 79, 54
1, 557453, Note_off_c, 0, 72, 63
1, 557469, Note_off_c, 0, 56, 55
1, 557478, Note_on_c, 0, 60, 55
1, 557587, Note_on_c, 0, 63, 59
1, 557594, Note_on_c, 0, 72, 65
1, 557605, Note_off_c, 0, 60, 51
1, 557665, Note_off_c, 0, 63, 58
1, 557689, Note_off_c, 0, 72, 59
1, 557691, Note_on_c, 0, 66, 52
1, 557697, Note_on_c, 0, 74, 57
1, 557764, Note_off_c, 0, 74, 59
1, 557792, Note_on_c, 0, 55, 56
1, 557806, Note_on_c, 0, 75, 73
1, 557820, Note_off_c, 0, 66, 36
1, 557835, Note_off_c, 0, 75, 66
1, 557900, Note_on_c, 0, 60, 60
1, 557909, Note_off_c, 0, 55, 56
1, 558019, Note_on_c, 0, 75, 74
1, 558026, Note_on_c, 0, 63, 50
1, 558064, Note_off_c, 0, 60, 51
1, 558113, Note_on_c, 0, 67, 49
1, 558118, Note_on_c, 0, 77, 73
1, 558118, Note_off_c, 0, 63, 38
1, 558124, Note_off_c, 0, 75, 51
1, 558174, Note_off_c, 0, 77, 60
1, 558222, Note_on_c, 0, 55, 53
1, 558234, Note_off_c, 0, 67, 49
1, 558243, Note_on_c, 0, 74, 65
1, 558306, Note_off_c, 0, 74, 68
1, 558340, Note_on_c, 0, 59, 60
1, 558362, Note_off_c, 0, 55, 58
1, 558454, Note_off_c, 0, 59, 57
1, 558457, Note_on_c, 0, 74, 62
1, 558470, Note_on_c, 0, 62, 51
1, 558544, Note_off_c, 0, 62, 61
1, 558557, Note_off_c, 0, 74, 61
1, 558562, Note_on_c, 0, 75, 55
1, 558578, Note_on_c, 0, 67, 53
1, 558643, Note_off_c, 0, 67, 60
1, 558671, Note_on_c, 0, 72, 65
1, 558688, Note_off_c, 0, 75, 54
1, 558774, Note_on_c, 0, 48, 57
1, 558878, Control_c, 0, 67, 123
1, 558882, Note_on_c, 0, 51, 63
1, 558893, Control_c, 0, 67, 116
1, 558902, Note_off_c, 0, 48, 50
1, 558908, Control_c, 0, 67, 107
1, 558923, Control_c, 0, 67, 99
1, 558937, Control_c, 0, 67, 91
1, 558952, Control_c, 0, 67, 83
1, 558967, Control_c, 0, 67, 76
1, 558982, Control_c, 0, 67, 70
1, 558991, Note_on_c, 0, 55, 58
1, 558997, Control_c, 0, 67, 63
1, 559012, Control_c, 0, 67, 54
1, 559027, Control_c, 0, 67, 44
1, 559042, Control_c, 0, 67, 34
1, 559046, Note_off_c, 0, 72, 60
1, 559048, Note_off_c, 0, 51, 53
1, 559057, Control_c, 0, 67, 24
1, 559072, Control_c, 0, 67, 16
1, 559087, Control_c, 0, 67, 0
1, 559113, Note_on_c, 0, 60, 69
1, 559157, Note_off_c, 0, 55, 57
1, 559294, Note_off_c, 0, 60, 59
1, 559343, Note_on_c, 0, 77, 74
1, 559390, Control_c, 0, 64, 20
1, 559405, Control_c, 0, 64, 30
1, 559420, Control_c, 0, 64, 36
1, 559433, Note_on_c, 0, 79, 68
1, 559435, Control_c, 0, 64, 41
1, 559450, Control_c, 0, 64, 44
1, 559464, Control_c, 0, 64, 46
1, 559479, Control_c, 0, 64, 48
1, 559480, Note_off_c, 0, 77, 61
1, 559494, Control_c, 0, 64, 50
1, 559508, Control_c, 0, 64, 52
1, 559510, Note_off_c, 0, 79, 59
1, 559523, Control_c, 0, 64, 53
1, 559557, Note_on_c, 0, 80, 87
1, 559577, Note_on_c, 0, 68, 68
1, 559582, Control_c, 0, 64, 52
1, 559597, Control_c, 0, 64, 51
1, 559612, Control_c, 0, 64, 50
1, 559627, Control_c, 0, 64, 48
1, 559642, Control_c, 0, 64, 46
1, 559656, Control_c, 0, 64, 44
1, 559671, Control_c, 0, 64, 40
1, 559686, Control_c, 0, 64, 34
1, 559687, Note_on_c, 0, 41, 61
1, 559701, Control_c, 0, 64, 26
1, 559715, Control_c, 0, 64, 14
1, 559730, Control_c, 0, 64, 0
1, 559805, Note_on_c, 0, 47, 67
1, 559850, Control_c, 0, 64, 12
1, 559855, Note_off_c, 0, 41, 57
1, 559865, Control_c, 0, 64, 17
1, 559876, Note_off_c, 0, 47, 64
1, 559879, Control_c, 0, 64, 19
1, 559894, Control_c, 0, 64, 21
1, 559905, Note_on_c, 0, 50, 63
1, 559909, Control_c, 0, 64, 23
1, 559909, Control_c, 0, 67, 16
1, 559931, Control_c, 0, 64, 23
1, 559931, Control_c, 0, 67, 25
1, 559946, Control_c, 0, 67, 31
1, 559961, Control_c, 0, 64, 23
1, 559961, Control_c, 0, 67, 35
1, 559976, Control_c, 0, 64, 22
1, 559976, Control_c, 0, 67, 38
1, 559991, Control_c, 0, 64, 21
1, 560005, Note_off_c, 0, 50, 56
1, 560006, Control_c, 0, 64, 20
1, 560013, Note_on_c, 0, 74, 65
1, 560033, Note_on_c, 0, 53, 64
1, 560036, Control_c, 0, 64, 19
1, 560036, Control_c, 0, 67, 37
1, 560051, Control_c, 0, 67, 37
1, 560066, Control_c, 0, 67, 36
1, 560080, Control_c, 0, 67, 35
1, 560083, Note_off_c, 0, 80, 59
1, 560095, Control_c, 0, 67, 35
1, 560106, Note_off_c, 0, 74, 63
1, 560110, Control_c, 0, 64, 18
1, 560110, Control_c, 0, 67, 34
1, 560112, Note_off_c, 0, 68, 63
1, 560124, Note_on_c, 0, 56, 69
1, 560125, Control_c, 0, 64, 17
1, 560139, Control_c, 0, 64, 14
1, 560139, Control_c, 0, 67, 33
1, 560152, Note_off_c, 0, 53, 59
1, 560154, Control_c, 0, 64, 12
1, 560169, Control_c, 0, 64, 10
1, 560169, Control_c, 0, 67, 33
1, 560210, Note_off_c, 0, 56, 63
1, 560233, Note_on_c, 0, 55, 65
1, 560243, Control_c, 0, 64, 12
1, 560262, Note_on_c, 0, 75, 76
1, 560273, Control_c, 0, 64, 14
1, 560273, Control_c, 0, 67, 33
1, 560288, Control_c, 0, 64, 15
1, 560288, Control_c, 0, 67, 34
1, 560338, Note_on_c, 0, 53, 72
1, 560347, Note_on_c, 0, 77, 76
1, 560359, Note_off_c, 0, 55, 56
1, 560363, Note_off_c, 0, 75, 63
1, 560377, Control_c, 0, 64, 17
1, 560377, Control_c, 0, 67, 34
1, 560392, Control_c, 0, 64, 19
1, 560392, Control_c, 0, 67, 35
1, 560401, Note_off_c, 0, 53, 64
1, 560406, Control_c, 0, 64, 20
1, 560418, Note_off_c, 0, 77, 59
1, 560421, Control_c, 0, 64, 21
1, 560421, Control_c, 0, 67, 35
1, 560451, Control_c, 0, 64, 22
1, 560451, Control_c, 0, 67, 36
1, 560455, Note_on_c, 0, 79, 89
1, 560465, Control_c, 0, 64, 23
1, 560471, Note_on_c, 0, 67, 71
1, 560480, Control_c, 0, 67, 36
1, 560495, Control_c, 0, 64, 24
1, 560495, Control_c, 0, 67, 37
1, 560525, Control_c, 0, 67, 37
1, 560539, Control_c, 0, 64, 23
1, 560539, Control_c, 0, 67, 38
1, 560554, Control_c, 0, 64, 22
1, 560569, Control_c, 0, 64, 21
1, 560577, Note_on_c, 0, 39, 67
1, 560584, Control_c, 0, 64, 18
1, 560584, Control_c, 0, 67, 39
1, 560600, Control_c, 0, 64, 14
1, 560600, Control_c, 0, 67, 39
1, 560615, Control_c, 0, 64, 8
1, 560615, Control_c, 0, 67, 41
1, 560629, Control_c, 0, 64, 0
1, 560629, Control_c, 0, 67, 44
1, 560644, Control_c, 0, 67, 46
1, 560659, Control_c, 0, 67, 47
1, 560681, Control_c, 0, 67, 48
1, 560698, Note_on_c, 0, 43, 70
1, 560711, Control_c, 0, 67, 47
1, 560726, Control_c, 0, 67, 46
1, 560736, Note_off_c, 0, 39, 58
1, 560741, Control_c, 0, 67, 44
1, 560755, Control_c, 0, 67, 43
1, 560756, Note_off_c, 0, 43, 63
1, 560770, Control_c, 0, 67, 42
1, 560785, Control_c, 0, 67, 41
1, 560786, Note_on_c, 0, 48, 71
1, 560800, Control_c, 0, 67, 40
1, 560815, Control_c, 0, 67, 39
1, 560829, Control_c, 0, 67, 37
1, 560844, Control_c, 0, 67, 35
1, 560859, Control_c, 0, 67, 32
1, 560862, Note_off_c, 0, 48, 54
1, 560874, Control_c, 0, 67, 30
1, 560887, Note_on_c, 0, 72, 66
1, 560888, Control_c, 0, 67, 28
1, 560902, Note_on_c, 0, 51, 63
1, 560903, Control_c, 0, 67, 26
1, 560908, Note_off_c, 0, 67, 39
1, 560918, Control_c, 0, 67, 23
1, 560933, Control_c, 0, 67, 19
1, 560947, Note_off_c, 0, 79, 57
1, 560948, Control_c, 0, 67, 15
1, 560962, Control_c, 0, 67, 11
1, 560963, Note_off_c, 0, 72, 65
1, 560977, Control_c, 0, 67, 0
1, 561001, Note_on_c, 0, 55, 74
1, 561020, Note_off_c, 0, 51, 59
1, 561078, Note_off_c, 0, 55, 62
1, 561102, Note_on_c, 0, 56, 62
1, 561111, Note_on_c, 0, 72, 70
1, 561200, Note_on_c, 0, 74, 69
1, 561212, Note_off_c, 0, 56, 60
1, 561217, Note_on_c, 0, 54, 59
1, 561218, Note_off_c, 0, 72, 62
1, 561244, Control_c, 0, 67, 8
1, 561259, Control_c, 0, 67, 10
1, 561264, Note_off_c, 0, 74, 63
1, 561266, Note_off_c, 0, 54, 59
1, 561274, Control_c, 0, 67, 13
1, 561288, Control_c, 0, 67, 15
1, 561303, Control_c, 0, 67, 17
1, 561317, Note_on_c, 0, 75, 77
1, 561318, Control_c, 0, 67, 19
1, 561325, Note_on_c, 0, 43, 65
1, 561333, Control_c, 0, 67, 20
1, 561349, Note_off_c, 0, 75, 64
1, 561362, Control_c, 0, 67, 20
1, 561388, Note_off_c, 0, 43, 62
1, 561408, Control_c, 0, 67, 21
1, 561423, Control_c, 0, 67, 22
1, 561441, Note_on_c, 0, 55, 61
1, 561445, Control_c, 0, 67, 24
1, 561459, Control_c, 0, 67, 26
1, 561474, Control_c, 0, 67, 28
1, 561489, Control_c, 0, 67, 29
1, 561504, Control_c, 0, 67, 30
1, 561537, Note_off_c, 0, 55, 37
1, 561541, Note_on_c, 0, 60, 62
1, 561549, Note_on_c, 0, 75, 74
1, 561595, Note_off_c, 0, 60, 58
1, 561639, Note_on_c, 0, 77, 72
1, 561652, Control_c, 0, 67, 30
1, 561657, Note_off_c, 0, 75, 56
1, 561660, Note_on_c, 0, 55, 51
1, 561697, Control_c, 0, 67, 30
1, 561705, Note_off_c, 0, 77, 55
1, 561713, Note_off_c, 0, 55, 60
1, 561726, Control_c, 0, 67, 29
1, 561741, Control_c, 0, 67, 29
1, 561759, Note_on_c, 0, 43, 59
1, 561759, Note_on_c, 0, 74, 69
1, 561771, Control_c, 0, 67, 28
1, 561785, Control_c, 0, 67, 28
1, 561808, Note_off_c, 0, 74, 66
1, 561825, Note_off_c, 0, 43, 61
1, 561830, Control_c, 0, 67, 28
1, 561859, Control_c, 0, 67, 29
1, 561860, Note_on_c, 0, 55, 57
1, 561903, Control_c, 0, 67, 28
1, 561933, Control_c, 0, 67, 28
1, 561969, Note_off_c, 0, 55, 55
1, 561972, Note_on_c, 0, 59, 62
1, 561978, Control_c, 0, 67, 27
1, 561981, Note_on_c, 0, 74, 71
1, 561993, Control_c, 0, 67, 27
1, 562008, Control_c, 0, 67, 26
1, 562038, Control_c, 0, 67, 25
1, 562052, Control_c, 0, 67, 24
1, 562059, Note_off_c, 0, 59, 62
1, 562067, Control_c, 0, 67, 23
1, 562082, Control_c, 0, 67, 22
1, 562085, Note_on_c, 0, 55, 45
1, 562088, Note_on_c, 0, 75, 68
1, 562096, Control_c, 0, 67, 20
1, 562100, Note_off_c, 0, 74, 55
1, 562111, Control_c, 0, 67, 18
1, 562126, Control_c, 0, 67, 13
1, 562141, Control_c, 0, 67, 0
1, 562155, Note_off_c, 0, 75, 64
1, 562163, Note_off_c, 0, 55, 58
1, 562180, Note_on_c, 0, 48, 65
1, 562203, Note_on_c, 0, 72, 68
1, 562259, Note_off_c, 0, 48, 61
1, 562300, Note_on_c, 0, 60, 62
1, 562300, Note_off_c, 0, 72, 61
1, 562384, Note_off_c, 0, 60, 61
1, 562402, Note_on_c, 0, 82, 86
1, 562404, Note_on_c, 0, 59, 52
1, 562465, Note_off_c, 0, 59, 62
1, 562511, Note_on_c, 0, 60, 58
1, 562520, Control_c, 0, 64, 23
1, 562534, Control_c, 0, 64, 34
1, 562549, Control_c, 0, 64, 44
1, 562564, Control_c, 0, 64, 54
1, 562579, Control_c, 0, 64, 61
1, 562594, Control_c, 0, 64, 64
1, 562608, Control_c, 0, 64, 66
1, 562610, Note_off_c, 0, 60, 56
1, 562622, Note_on_c, 0, 52, 61
1, 562623, Control_c, 0, 64, 70
1, 562638, Control_c, 0, 64, 75
1, 562652, Control_c, 0, 64, 80
1, 562667, Control_c, 0, 64, 81
1, 562682, Control_c, 0, 64, 81
1, 562697, Control_c, 0, 64, 82
1, 562712, Control_c, 0, 64, 84
1, 562726, Note_on_c, 0, 60, 65
1, 562726, Note_off_c, 0, 52, 61
1, 562726, Note_off_c, 0, 82, 62
1, 562726, Control_c, 0, 64, 85
1, 562741, Control_c, 0, 64, 85
1, 562825, Note_off_c, 0, 60, 58
1, 562831, Control_c, 0, 64, 83
1, 562832, Note_on_c, 0, 82, 89
1, 562842, Note_on_c, 0, 55, 55
1, 562845, Control_c, 0, 64, 77
1, 562860, Control_c, 0, 64, 69
1, 562875, Control_c, 0, 64, 63
1, 562890, Control_c, 0, 64, 51
1, 562905, Control_c, 0, 64, 10
1, 562915, Note_off_c, 0, 55, 60
1, 562926, Control_c, 0, 64, 0
1, 562948, Note_on_c, 0, 60, 64
1, 563046, Control_c, 0, 64, 26
1, 563055, Note_on_c, 0, 53, 61
1, 563057, Note_off_c, 0, 60, 58
1, 563061, Control_c, 0, 64, 42
1, 563076, Control_c, 0, 64, 48
1, 563090, Control_c, 0, 64, 51
1, 563105, Control_c, 0, 64, 51
1, 563120, Control_c, 0, 64, 52
1, 563150, Control_c, 0, 64, 52
1, 563151, Note_off_c, 0, 53, 63
1, 563155, Note_on_c, 0, 80, 67
1, 563168, Note_on_c, 0, 60, 63
1, 563227, Note_off_c, 0, 82, 56
1, 563239, Control_c, 0, 64, 52
1, 563245, Note_off_c, 0, 60, 57
1, 563252, Note_off_c, 0, 80, 62
1, 563254, Control_c, 0, 64, 51
1, 563265, Note_on_c, 0, 79, 68
1, 563269, Control_c, 0, 64, 49
1, 563270, Note_on_c, 0, 56, 60
1, 563283, Control_c, 0, 64, 47
1, 563298, Control_c, 0, 64, 44
1, 563313, Control_c, 0, 64, 42
1, 563328, Control_c, 0, 64, 36
1, 563341, Note_off_c, 0, 56, 59
1, 563343, Control_c, 0, 64, 28
1, 563357, Control_c, 0, 64, 0
1, 563366, Note_on_c, 0, 60, 57
1, 563367, Note_on_c, 0, 77, 78
1, 563388, Note_off_c, 0, 79, 59
1, 563440, Note_off_c, 0, 60, 60
1, 563471, Note_on_c, 0, 55, 56
1, 563474, Note_on_c, 0, 75, 71
1, 563497, Note_off_c, 0, 77, 55
1, 563553, Note_off_c, 0, 75, 60
1, 563576, Note_on_c, 0, 74, 60
1, 563593, Note_on_c, 0, 65, 53
1, 563600, Note_off_c, 0, 55, 60
1, 563681, Note_off_c, 0, 65, 60
1, 563687, Note_on_c, 0, 72, 68
1, 563699, Note_on_c, 0, 59, 49
1, 563704, Note_off_c, 0, 74, 55
1, 563752, Note_off_c, 0, 59, 57
1, 563808, Note_on_c, 0, 71, 61
1, 563808, Note_on_c, 0, 65, 51
1, 563813, Note_off_c, 0, 72, 62
1, 563875, Note_off_c, 0, 65, 57
1, 563890, Note_off_c, 0, 71, 58
1, 563898, Note_on_c, 0, 72, 75
1, 563901, Note_on_c, 0, 56, 54
1, 563961, Note_off_c, 0, 72, 65
1, 564002, Control_c, 0, 64, 28
1, 564015, Note_on_c, 0, 63, 68
1, 564017, Control_c, 0, 64, 36
1, 564019, Note_off_c, 0, 56, 62
1, 564032, Control_c, 0, 64, 41
1, 564047, Control_c, 0, 64, 44
1, 564062, Control_c, 0, 64, 45
1, 564077, Control_c, 0, 64, 47
1, 564091, Control_c, 0, 64, 50
1, 564103, Note_off_c, 0, 63, 62
1, 564106, Control_c, 0, 64, 52
1, 564110, Note_on_c, 0, 84, 93
1, 564121, Control_c, 0, 64, 53
1, 564123, Note_on_c, 0, 60, 59
1, 564124, Note_on_c, 0, 72, 79
1, 564151, Control_c, 0, 64, 54
1, 564166, Control_c, 0, 64, 54
1, 564223, Note_off_c, 0, 60, 59
1, 564226, Note_on_c, 0, 63, 66
1, 564313, Control_c, 0, 64, 54
1, 564325, Note_on_c, 0, 55, 64
1, 564328, Note_off_c, 0, 63, 59
1, 564355, Note_off_c, 0, 72, 56
1, 564372, Control_c, 0, 64, 53
1, 564440, Note_on_c, 0, 64, 75
1, 564454, Control_c, 0, 64, 53
1, 564498, Note_off_c, 0, 55, 37
1, 564528, Control_c, 0, 64, 52
1, 564536, Note_on_c, 0, 82, 92
1, 564547, Note_off_c, 0, 64, 61
1, 564548, Note_on_c, 0, 60, 66
1, 564558, Control_c, 0, 64, 52
1, 564603, Control_c, 0, 64, 51
1, 564649, Note_off_c, 0, 60, 61
1, 564651, Note_on_c, 0, 64, 75
1, 564750, Note_on_c, 0, 53, 76
1, 564755, Note_off_c, 0, 64, 64
1, 564765, Note_off_c, 0, 84, 27
1, 564766, Control_c, 0, 64, 51
1, 564795, Control_c, 0, 64, 50
1, 564810, Control_c, 0, 64, 49
1, 564825, Control_c, 0, 64, 49
1, 564840, Control_c, 0, 64, 48
1, 564851, Note_on_c, 0, 80, 81
1, 564855, Control_c, 0, 64, 46
1, 564858, Note_off_c, 0, 53, 62
1, 564862, Note_on_c, 0, 65, 65
1, 564869, Control_c, 0, 64, 44
1, 564884, Control_c, 0, 64, 43
1, 564899, Control_c, 0, 64, 42
1, 564914, Control_c, 0, 64, 42
1, 564929, Control_c, 0, 64, 40
1, 564944, Control_c, 0, 64, 38
1, 564952, Note_off_c, 0, 65, 61
1, 564956, Note_on_c, 0, 79, 82
1, 564959, Control_c, 0, 64, 34
1, 564959, Control_c, 0, 67, 9
1, 564959, Note_off_c, 0, 80, 58
1, 564963, Note_on_c, 0, 60, 69
1, 564974, Control_c, 0, 64, 29
1, 564974, Control_c, 0, 67, 14
1, 564974, Note_off_c, 0, 82, 60
1, 564989, Control_c, 0, 64, 26
1, 564989, Control_c, 0, 67, 19
1, 565003, Control_c, 0, 64, 24
1, 565003, Control_c, 0, 67, 24
1, 565018, Control_c, 0, 64, 22
1, 565018, Control_c, 0, 67, 31
1, 565024, Note_off_c, 0, 60, 61
1, 565033, Control_c, 0, 64, 19
1, 565033, Control_c, 0, 67, 38
1, 565047, Control_c, 0, 64, 14
1, 565047, Control_c, 0, 67, 45
1, 565062, Control_c, 0, 64, 10
1, 565062, Control_c, 0, 67, 50
1, 565063, Note_on_c, 0, 65, 72
1, 565063, Note_on_c, 0, 77, 84
1, 565077, Note_off_c, 0, 79, 60
1, 565077, Control_c, 0, 67, 56
1, 565092, Control_c, 0, 67, 61
1, 565107, Control_c, 0, 67, 66
1, 565121, Control_c, 0, 64, 8
1, 565121, Control_c, 0, 67, 70
1, 565136, Control_c, 0, 67, 74
1, 565147, Note_off_c, 0, 65, 57
1, 565151, Control_c, 0, 67, 77
1, 565166, Control_c, 0, 64, 10
1, 565166, Control_c, 0, 67, 79
1, 565176, Note_on_c, 0, 75, 88
1, 565183, Note_on_c, 0, 55, 79
1, 565206, Note_off_c, 0, 77, 58
1, 565218, Control_c, 0, 64, 12
1, 565233, Control_c, 0, 64, 10
1, 565267, Note_off_c, 0, 55, 62
1, 565274, Note_on_c, 0, 74, 84
1, 565280, Note_off_c, 0, 75, 61
1, 565286, Note_on_c, 0, 67, 73
1, 565307, Control_c, 0, 64, 12
1, 565353, Note_off_c, 0, 67, 60
1, 565378, Note_on_c, 0, 72, 86
1, 565381, Control_c, 0, 64, 10
1, 565397, Control_c, 0, 67, 78
1, 565400, Note_on_c, 0, 55, 73
1, 565412, Control_c, 0, 67, 78
1, 565419, Note_off_c, 0, 74, 59
1, 565426, Control_c, 0, 64, 12
1, 565426, Control_c, 0, 67, 77
1, 565441, Control_c, 0, 67, 76
1, 565456, Control_c, 0, 67, 75
1, 565470, Note_on_c, 0, 71, 88
1, 565470, Control_c, 0, 64, 14
1, 565479, Note_on_c, 0, 67, 64
1, 565485, Control_c, 0, 64, 15
1, 565485, Control_c, 0, 67, 76
1, 565499, Note_off_c, 0, 72, 55
1, 565500, Control_c, 0, 64, 17
1, 565515, Control_c, 0, 64, 20
1, 565529, Note_off_c, 0, 55, 56
1, 565530, Control_c, 0, 64, 24
1, 565544, Control_c, 0, 64, 29
1, 565555, Note_off_c, 0, 67, 58
1, 565555, Note_off_c, 0, 71, 61
1, 565559, Control_c, 0, 64, 32
1, 565574, Control_c, 0, 64, 31
1, 565574, Control_c, 0, 67, 75
1, 565582, Note_on_c, 0, 72, 95
1, 565585, Note_on_c, 0, 60, 76
1, 565589, Control_c, 0, 64, 22
1, 565589, Control_c, 0, 67, 73
1, 565604, Control_c, 0, 64, 0
1, 565604, Control_c, 0, 67, 72
1, 565618, Note_off_c, 0, 60, 58
1, 565618, Control_c, 0, 67, 70
1, 565623, Note_off_c, 0, 72, 67
1, 565633, Control_c, 0, 67, 69
1, 565648, Control_c, 0, 67, 68
1, 565663, Control_c, 0, 67, 68
1, 565752, Control_c, 0, 67, 68
1, 565759, Note_on_c, 0, 75, 83
1, 565782, Control_c, 0, 67, 67
1, 565797, Control_c, 0, 67, 64
1, 565804, Note_off_c, 0, 75, 62
1, 565808, Note_on_c, 0, 59, 71
1, 565811, Note_on_c, 0, 55, 65
1, 565811, Control_c, 0, 67, 59
1, 565819, Note_on_c, 0, 74, 79
1, 565826, Control_c, 0, 67, 50
1, 565831, Note_off_c, 0, 59, 69
1, 565841, Control_c, 0, 67, 40
1, 565841, Note_off_c, 0, 55, 68
1, 565846, Note_off_c, 0, 74, 64
1, 565856, Control_c, 0, 67, 30
1, 565870, Control_c, 0, 67, 16
1, 565883, Note_on_c, 0, 74, 61
1, 565885, Control_c, 0, 67, 0
1, 565914, Poly_aftertouch_c, 0, 75, 0
1, 565937, Control_c, 0, 64, 10
1, 565951, Control_c, 0, 64, 0
1, 565952, Note_on_c, 0, 72, 44
1, 565971, Note_on_c, 0, 76, 33
1, 565978, Note_off_c, 0, 72, 57
1, 565995, Note_on_c, 0, 75, 95
1, 566002, Note_on_c, 0, 60, 86
1, 566011, Note_on_c, 0, 47, 76
1, 566011, Note_off_c, 0, 75, 72
1, 566013, Note_on_c, 0, 48, 71
1, 566019, Note_off_c, 0, 74, 68
1, 566020, Note_off_c, 0, 76, 0
1, 566020, Note_on_c, 0, 76, 59
1, 566028, Note_off_c, 0, 60, 63
1, 566035, Note_off_c, 0, 47, 67
1, 566038, Note_off_c, 0, 76, 66
1, 566042, Note_off_c, 0, 48, 65
1, 566220, Note_on_c, 0, 43, 92
1, 566222, Note_on_c, 0, 55, 86
1, 566223, Note_on_c, 0, 83, 87
1, 566223, Note_on_c, 0, 71, 84
1, 566229, Note_on_c, 0, 74, 60
1, 566247, Note_off_c, 0, 74, 66
1, 566248, Note_off_c, 0, 55, 66
1, 566257, Note_off_c, 0, 43, 61
1, 566270, Note_off_c, 0, 83, 58
1, 566275, Note_off_c, 0, 71, 57
1, 566469, Note_on_c, 0, 84, 93
1, 566474, Note_on_c, 0, 72, 91
1, 566476, Note_on_c, 0, 75, 91
1, 566480, Note_on_c, 0, 36, 92
1, 566480, Note_on_c, 0, 48, 92
1, 566558, Note_off_c, 0, 84, 62
1, 566559, Note_off_c, 0, 36, 58
1, 566566, Note_off_c, 0, 72, 64
1, 566574, Note_off_c, 0, 48, 59
1, 566621, Note_off_c, 0, 75, 62
1, 566967, Control_c, 0, 67, 11
1, 566981, Control_c, 0, 67, 20
1, 566997, Control_c, 0, 67, 33
1, 567012, Control_c, 0, 67, 43
1, 567027, Control_c, 0, 67, 51
1, 567042, Control_c, 0, 67, 56
1, 567056, Control_c, 0, 67, 61
1, 567071, Control_c, 0, 67, 65
1, 567081, Note_on_c, 0, 44, 41
1, 567086, Control_c, 0, 67, 70
1, 567101, Control_c, 0, 67, 76
1, 567115, Control_c, 0, 67, 80
1, 567130, Control_c, 0, 67, 84
1, 567145, Control_c, 0, 67, 87
1, 567160, Control_c, 0, 67, 89
1, 567175, Control_c, 0, 67, 90
1, 567189, Control_c, 0, 67, 91
1, 567202, Note_on_c, 0, 48, 50
1, 567204, Control_c, 0, 67, 92
1, 567219, Control_c, 0, 67, 92
1, 567235, Note_off_c, 0, 44, 49
1, 567309, Note_on_c, 0, 51, 50
1, 567323, Control_c, 0, 67, 91
1, 567338, Control_c, 0, 67, 91
1, 567353, Control_c, 0, 67, 90
1, 567364, Note_off_c, 0, 48, 35
1, 567397, Control_c, 0, 67, 89
1, 567434, Control_c, 0, 67, 88
1, 567455, Note_off_c, 0, 51, 57
1, 567457, Note_on_c, 0, 56, 49
1, 567458, Note_on_c, 0, 60, 51
1, 567463, Control_c, 0, 67, 88
1, 567612, Control_c, 0, 67, 88
1, 567641, Control_c, 0, 67, 89
1, 567656, Control_c, 0, 67, 89
1, 567943, Note_on_c, 0, 49, 45
1, 567954, Note_on_c, 0, 65, 49
1, 567970, Note_off_c, 0, 56, 56
1, 567998, Note_off_c, 0, 60, 36
1, 568086, Control_c, 0, 67, 89
1, 568160, Control_c, 0, 67, 88
1, 568446, Note_on_c, 0, 58, 51
1, 568464, Note_on_c, 0, 55, 49
1, 568478, Note_off_c, 0, 65, 55
1, 568499, Note_off_c, 0, 49, 59
1, 568945, Note_on_c, 0, 48, 50
1, 568948, Note_on_c, 0, 63, 54
1, 568976, Control_c, 0, 67, 89
1, 568984, Note_off_c, 0, 58, 54
1, 569001, Note_off_c, 0, 55, 54
1, 569433, Note_on_c, 0, 53, 44
1, 569436, Note_on_c, 0, 56, 51
1, 569440, Note_off_c, 0, 48, 58
1, 569498, Note_off_c, 0, 63, 54
1, 569675, Note_on_c, 0, 46, 59
1, 569718, Note_off_c, 0, 53, 35
1, 569904, Note_on_c, 0, 61, 58
1, 570042, Note_off_c, 0, 56, 36
1, 570140, Note_on_c, 0, 60, 59
1, 570146, Note_on_c, 0, 48, 55
1, 570349, Note_off_c, 0, 46, 25
1, 570378, Note_on_c, 0, 58, 55
1, 570380, Note_on_c, 0, 49, 55
1, 570446, Note_off_c, 0, 61, 35
1, 570459, Note_off_c, 0, 60, 36
1, 570459, Control_c, 0, 67, 89
1, 570480, Note_off_c, 0, 48, 35
1, 570488, Control_c, 0, 67, 90
1, 570612, Note_on_c, 0, 56, 53
1, 570628, Note_on_c, 0, 50, 43
1, 570678, Note_off_c, 0, 58, 53
1, 570681, Note_off_c, 0, 49, 50
1, 570839, Note_off_c, 0, 50, 56
1, 570854, Note_on_c, 0, 51, 45
1, 570870, Note_on_c, 0, 55, 49
1, 570890, Note_off_c, 0, 56, 57
1, 570948, Control_c, 0, 67, 89
1, 570962, Control_c, 0, 67, 89
1, 570977, Control_c, 0, 67, 88
1, 570993, Control_c, 0, 67, 88
1, 571023, Control_c, 0, 67, 87
1, 571052, Control_c, 0, 67, 87
1, 571067, Control_c, 0, 67, 86
1, 571082, Control_c, 0, 67, 86
1, 571085, Note_off_c, 0, 51, 55
1, 571091, Note_on_c, 0, 39, 45
1, 571097, Control_c, 0, 67, 85
1, 571111, Control_c, 0, 67, 84
1, 571126, Control_c, 0, 67, 83
1, 571141, Control_c, 0, 67, 82
1, 571163, Control_c, 0, 67, 78
1, 571178, Control_c, 0, 67, 70
1, 571183, Note_off_c, 0, 55, 56
1, 571193, Control_c, 0, 67, 59
1, 571208, Control_c, 0, 67, 46
1, 571220, Note_off_c, 0, 39, 58
1, 571222, Control_c, 0, 67, 33
1, 571237, Control_c, 0, 67, 15
1, 571252, Control_c, 0, 67, 0
1, 571348, Note_on_c, 0, 44, 54
1, 571586, Note_on_c, 0, 72, 67
1, 571833, Note_on_c, 0, 49, 48
1, 571874, Note_off_c, 0, 44, 39
1, 572074, Note_on_c, 0, 65, 62
1, 572125, Note_off_c, 0, 72, 61
1, 572301, Note_on_c, 0, 43, 45
1, 572395, Note_off_c, 0, 49, 37
1, 572539, Note_on_c, 0, 70, 72
1, 572614, Note_off_c, 0, 65, 45
1, 572787, Note_on_c, 0, 48, 55
1, 572852, Note_off_c, 0, 43, 40
1, 573019, Note_on_c, 0, 63, 67
1, 573115, Note_off_c, 0, 70, 53
1, 573255, Note_on_c, 0, 41, 50
1, 573262, Note_off_c, 0, 48, 53
1, 573484, Note_on_c, 0, 68, 60
1, 573717, Note_on_c, 0, 67, 60
1, 573724, Note_on_c, 0, 43, 52
1, 573770, Note_off_c, 0, 63, 41
1, 573895, Note_off_c, 0, 41, 23
1, 573942, Note_on_c, 0, 65, 66
1, 573943, Note_on_c, 0, 44, 50
1, 574081, Note_off_c, 0, 43, 35
1, 574182, Note_on_c, 0, 63, 67
1, 574184, Note_on_c, 0, 45, 60
1, 574248, Note_off_c, 0, 44, 51
1, 574280, Note_off_c, 0, 68, 30
1, 574281, Note_off_c, 0, 65, 36
1, 574312, Note_off_c, 0, 67, 38
1, 574412, Note_on_c, 0, 62, 63
1, 574413, Note_on_c, 0, 46, 56
1, 574429, Note_off_c, 0, 45, 54
1, 574453, Note_off_c, 0, 63, 56
1, 574638, Note_off_c, 0, 46, 57
1, 574649, Note_on_c, 0, 65, 52
1, 574670, Note_on_c, 0, 39, 41
1, 574712, Note_off_c, 0, 62, 36
1, 574882, Note_on_c, 0, 63, 49
1, 574977, Note_off_c, 0, 65, 37
1, 574995, Note_off_c, 0, 63, 63
1, 575036, Note_off_c, 0, 39, 51
1, 575157, Note_on_c, 0, 72, 73
1, 575377, Note_on_c, 0, 60, 66
1, 575392, Note_on_c, 0, 56, 51
1, 575626, Note_on_c, 0, 77, 76
1, 575668, Note_on_c, 0, 65, 40
1, 575710, Note_off_c, 0, 72, 54
1, 575840, Note_off_c, 0, 56, 49
1, 575851, Note_on_c, 0, 53, 53
1, 575855, Note_on_c, 0, 49, 55
1, 575882, Note_off_c, 0, 60, 51
1, 576090, Note_on_c, 0, 70, 73
1, 576120, Note_off_c, 0, 65, 52
1, 576181, Note_off_c, 0, 77, 58
1, 576310, Note_on_c, 0, 58, 64
1, 576316, Note_on_c, 0, 55, 49
1, 576348, Note_off_c, 0, 53, 34
1, 576356, Note_off_c, 0, 49, 61
1, 576567, Note_on_c, 0, 75, 75
1, 576601, Note_on_c, 0, 63, 37
1, 576632, Note_off_c, 0, 70, 57
1, 576787, Note_on_c, 0, 48, 58
1, 576793, Note_off_c, 0, 55, 52
1, 576801, Note_on_c, 0, 51, 52
1, 576913, Note_off_c, 0, 58, 38
1, 577027, Note_on_c, 0, 68, 71
1, 577052, Note_off_c, 0, 63, 57
1, 577091, Note_off_c, 0, 75, 56
1, 577211, Note_off_c, 0, 48, 60
1, 577257, Note_on_c, 0, 56, 43
1, 577257, Note_off_c, 0, 51, 57
1, 577258, Control_c, 0, 64, 26
1, 577270, Note_on_c, 0, 60, 48
1, 577273, Control_c, 0, 64, 53
1, 577280, Note_on_c, 0, 53, 31
1, 577288, Control_c, 0, 64, 61
1, 577303, Control_c, 0, 64, 62
1, 577317, Control_c, 0, 64, 63
1, 577332, Control_c, 0, 64, 63
1, 577347, Control_c, 0, 64, 64
1, 577361, Control_c, 0, 64, 66
1, 577377, Control_c, 0, 64, 67
1, 577392, Control_c, 0, 64, 68
1, 577407, Control_c, 0, 64, 68
1, 577422, Control_c, 0, 64, 69
1, 577441, Note_off_c, 0, 53, 45
1, 577466, Control_c, 0, 64, 67
1, 577478, Note_off_c, 0, 56, 55
1, 577481, Control_c, 0, 64, 61
1, 577484, Note_off_c, 0, 60, 46
1, 577495, Note_on_c, 0, 46, 54
1, 577496, Control_c, 0, 64, 38
1, 577500, Note_on_c, 0, 73, 65
1, 577511, Control_c, 0, 64, 0
1, 577537, Note_on_c, 0, 65, 37
1, 577559, Note_off_c, 0, 68, 38
1, 577570, Control_c, 0, 64, 47
1, 577584, Control_c, 0, 64, 61
1, 577599, Control_c, 0, 64, 64
1, 577614, Control_c, 0, 64, 66
1, 577644, Control_c, 0, 64, 66
1, 577658, Control_c, 0, 64, 67
1, 577673, Control_c, 0, 64, 68
1, 577688, Control_c, 0, 64, 68
1, 577703, Control_c, 0, 64, 69
1, 577718, Note_on_c, 0, 72, 65
1, 577718, Control_c, 0, 64, 69
1, 577724, Note_on_c, 0, 48, 61
1, 577726, Note_off_c, 0, 65, 56
1, 577729, Note_on_c, 0, 63, 60
1, 577732, Control_c, 0, 64, 70
1, 577747, Control_c, 0, 64, 73
1, 577762, Control_c, 0, 64, 77
1, 577777, Control_c, 0, 64, 80
1, 577792, Control_c, 0, 64, 83
1, 577807, Control_c, 0, 64, 86
1, 577808, Note_off_c, 0, 73, 51
1, 577812, Note_off_c, 0, 72, 64
1, 577821, Control_c, 0, 64, 89
1, 577836, Control_c, 0, 64, 91
1, 577851, Control_c, 0, 64, 92
1, 577866, Control_c, 0, 64, 93
1, 577880, Control_c, 0, 64, 93
1, 577947, Control_c, 0, 64, 89
1, 577952, Note_on_c, 0, 70, 74
1, 577952, Note_off_c, 0, 63, 28
1, 577953, Note_on_c, 0, 49, 57
1, 577962, Control_c, 0, 64, 78
1, 577963, Note_on_c, 0, 61, 59
1, 577976, Control_c, 0, 64, 67
1, 577991, Control_c, 0, 64, 50
1, 577999, Note_off_c, 0, 46, 47
1, 578006, Control_c, 0, 64, 0
1, 578033, Note_off_c, 0, 48, 39
1, 578095, Control_c, 0, 64, 46
1, 578110, Control_c, 0, 64, 62
1, 578125, Control_c, 0, 64, 65
1, 578139, Control_c, 0, 64, 66
1, 578154, Control_c, 0, 64, 66
1, 578169, Note_on_c, 0, 68, 54
1, 578169, Control_c, 0, 64, 67
1, 578181, Note_on_c, 0, 50, 61
1, 578185, Control_c, 0, 64, 69
1, 578194, Note_on_c, 0, 60, 61
1, 578195, Note_off_c, 0, 70, 34
1, 578200, Control_c, 0, 64, 71
1, 578203, Note_off_c, 0, 61, 43
1, 578214, Control_c, 0, 64, 72
1, 578225, Note_off_c, 0, 49, 58
1, 578259, Control_c, 0, 64, 72
1, 578291, Note_off_c, 0, 68, 61
1, 578362, Control_c, 0, 64, 71
1, 578377, Control_c, 0, 64, 69
1, 578392, Control_c, 0, 64, 65
1, 578406, Control_c, 0, 64, 58
1, 578410, Note_on_c, 0, 67, 63
1, 578421, Control_c, 0, 64, 28
1, 578425, Note_on_c, 0, 51, 53
1, 578427, Note_on_c, 0, 58, 52
1, 578430, Note_off_c, 0, 60, 58
1, 578436, Control_c, 0, 64, 0
1, 578467, Note_off_c, 0, 50, 53
1, 578480, Control_c, 0, 67, 9
1, 578495, Control_c, 0, 67, 11
1, 578510, Control_c, 0, 67, 14
1, 578525, Control_c, 0, 67, 17
1, 578540, Control_c, 0, 64, 8
1, 578540, Control_c, 0, 67, 18
1, 578552, Note_off_c, 0, 58, 54
1, 578555, Control_c, 0, 64, 53
1, 578555, Control_c, 0, 67, 19
1, 578570, Control_c, 0, 64, 61
1, 578585, Control_c, 0, 64, 63
1, 578614, Control_c, 0, 64, 63
1, 578628, Control_c, 0, 64, 64
1, 578629, Note_off_c, 0, 51, 61
1, 578650, Control_c, 0, 64, 65
1, 578665, Note_on_c, 0, 63, 63
1, 578665, Control_c, 0, 64, 65
1, 578665, Control_c, 0, 67, 18
1, 578680, Control_c, 0, 64, 66
1, 578695, Control_c, 0, 64, 66
1, 578695, Control_c, 0, 67, 18
1, 578739, Control_c, 0, 67, 17
1, 578754, Control_c, 0, 67, 17
1, 578769, Control_c, 0, 67, 16
1, 578770, Note_off_c, 0, 67, 27
1, 578784, Control_c, 0, 64, 65
1, 578784, Control_c, 0, 67, 16
1, 578799, Control_c, 0, 64, 63
1, 578799, Control_c, 0, 67, 15
1, 578799, Note_off_c, 0, 63, 63
1, 578813, Control_c, 0, 64, 56
1, 578813, Control_c, 0, 67, 13
1, 578828, Control_c, 0, 64, 34
1, 578828, Control_c, 0, 67, 11
1, 578843, Control_c, 0, 64, 0
1, 578843, Control_c, 0, 67, 8
1, 578858, Control_c, 0, 67, 0
1, 578893, Note_on_c, 0, 60, 53
1, 578896, Note_on_c, 0, 56, 48
1, 579136, Note_on_c, 0, 84, 81
1, 579183, Note_on_c, 0, 72, 30
1, 579340, Note_off_c, 0, 56, 51
1, 579348, Note_on_c, 0, 65, 50
1, 579357, Note_off_c, 0, 60, 51
1, 579363, Note_on_c, 0, 61, 42
1, 579622, Note_on_c, 0, 77, 72
1, 579682, Note_off_c, 0, 72, 59
1, 579706, Note_off_c, 0, 84, 58
1, 579826, Note_on_c, 0, 58, 51
1, 579835, Note_on_c, 0, 55, 44
1, 579911, Note_off_c, 0, 61, 36
1, 579944, Note_off_c, 0, 65, 42
1, 580058, Note_on_c, 0, 82, 78
1, 580077, Note_on_c, 0, 70, 60
1, 580100, Note_off_c, 0, 77, 61
1, 580312, Note_on_c, 0, 63, 55
1, 580322, Note_on_c, 0, 60, 50
1, 580341, Note_off_c, 0, 55, 59
1, 580394, Note_off_c, 0, 58, 51
1, 580534, Note_on_c, 0, 75, 62
1, 580567, Note_off_c, 0, 70, 60
1, 580734, Note_off_c, 0, 60, 59
1, 580752, Note_off_c, 0, 63, 53
1, 580764, Note_on_c, 0, 53, 51
1, 580776, Note_on_c, 0, 72, 61
1, 580786, Control_c, 0, 67, 8
1, 580800, Control_c, 0, 67, 10
1, 580815, Control_c, 0, 67, 12
1, 580830, Control_c, 0, 67, 15
1, 580845, Control_c, 0, 67, 17
1, 580860, Control_c, 0, 67, 20
1, 580874, Control_c, 0, 64, 49
1, 580874, Control_c, 0, 67, 23
1, 580889, Control_c, 0, 64, 61
1, 580889, Control_c, 0, 67, 27
1, 580912, Control_c, 0, 64, 65
1, 580912, Control_c, 0, 67, 32
1, 580927, Control_c, 0, 64, 68
1, 580927, Control_c, 0, 67, 38
1, 580942, Control_c, 0, 64, 73
1, 580942, Control_c, 0, 67, 42
1, 580956, Control_c, 0, 64, 78
1, 580956, Control_c, 0, 67, 46
1, 580971, Control_c, 0, 64, 81
1, 580971, Control_c, 0, 67, 49
1, 580984, Note_on_c, 0, 80, 68
1, 580986, Control_c, 0, 64, 83
1, 580986, Control_c, 0, 67, 52
1, 581000, Control_c, 0, 64, 85
1, 581000, Control_c, 0, 67, 55
1, 581015, Control_c, 0, 64, 88
1, 581015, Control_c, 0, 67, 56
1, 581030, Control_c, 0, 64, 90
1, 581030, Control_c, 0, 67, 57
1, 581044, Note_off_c, 0, 75, 62
1, 581045, Control_c, 0, 64, 91
1, 581045, Control_c, 0, 67, 58
1, 581049, Note_off_c, 0, 82, 54
1, 581103, Note_off_c, 0, 80, 61
1, 581193, Control_c, 0, 64, 89
1, 581208, Control_c, 0, 64, 84
1, 581223, Control_c, 0, 64, 77
1, 581230, Note_on_c, 0, 79, 65
1, 581238, Control_c, 0, 64, 70
1, 581238, Note_on_c, 0, 55, 51
1, 581242, Note_on_c, 0, 70, 54
1, 581242, Note_off_c, 0, 72, 58
1, 581253, Control_c, 0, 64, 64
1, 581267, Control_c, 0, 64, 58
1, 581282, Control_c, 0, 64, 51
1, 581286, Note_off_c, 0, 53, 56
1, 581297, Control_c, 0, 64, 44
1, 581312, Control_c, 0, 64, 35
1, 581326, Control_c, 0, 64, 29
1, 581326, Control_c, 0, 67, 58
1, 581341, Control_c, 0, 64, 29
1, 581356, Control_c, 0, 64, 33
1, 581372, Control_c, 0, 64, 38
1, 581387, Control_c, 0, 64, 44
1, 581402, Control_c, 0, 64, 49
1, 581416, Control_c, 0, 64, 52
1, 581431, Control_c, 0, 64, 56
1, 581431, Control_c, 0, 67, 59
1, 581440, Note_on_c, 0, 56, 56
1, 581446, Control_c, 0, 64, 60
1, 581446, Note_off_c, 0, 70, 64
1, 581451, Note_on_c, 0, 77, 68
1, 581454, Note_off_c, 0, 79, 61
1, 581457, Note_on_c, 0, 68, 67
1, 581461, Control_c, 0, 64, 62
1, 581476, Control_c, 0, 64, 63
1, 581490, Control_c, 0, 64, 65
1, 581505, Control_c, 0, 64, 68
1, 581520, Control_c, 0, 64, 73
1, 581524, Note_off_c, 0, 55, 37
1, 581535, Control_c, 0, 64, 78
1, 581548, Note_off_c, 0, 77, 61
1, 581549, Control_c, 0, 64, 79
1, 581549, Control_c, 0, 67, 59
1, 581564, Control_c, 0, 64, 80
1, 581564, Control_c, 0, 67, 60
1, 581579, Control_c, 0, 64, 82
1, 581594, Control_c, 0, 64, 84
1, 581594, Control_c, 0, 67, 60
1, 581609, Control_c, 0, 64, 85
1, 581609, Control_c, 0, 67, 61
1, 581661, Control_c, 0, 64, 84
1, 581676, Control_c, 0, 64, 79
1, 581682, Note_on_c, 0, 75, 72
1, 581686, Note_on_c, 0, 57, 61
1, 581691, Control_c, 0, 64, 72
1, 581691, Control_c, 0, 67, 61
1, 581696, Note_on_c, 0, 67, 59
1, 581705, Control_c, 0, 64, 66
1, 581705, Control_c, 0, 67, 62
1, 581720, Control_c, 0, 64, 59
1, 581731, Note_off_c, 0, 68, 59
1, 581735, Control_c, 0, 64, 49
1, 581735, Control_c, 0, 67, 63
1, 581741, Note_off_c, 0, 56, 49
1, 581749, Control_c, 0, 64, 37
1, 581749, Control_c, 0, 67, 65
1, 581764, Control_c, 0, 64, 34
1, 581764, Control_c, 0, 67, 68
1, 581779, Control_c, 0, 64, 39
1, 581779, Control_c, 0, 67, 72
1, 581794, Control_c, 0, 64, 43
1, 581794, Control_c, 0, 67, 76
1, 581809, Control_c, 0, 64, 47
1, 581809, Control_c, 0, 67, 81
1, 581823, Control_c, 0, 64, 51
1, 581823, Control_c, 0, 67, 85
1, 581838, Control_c, 0, 64, 55
1, 581838, Control_c, 0, 67, 90
1, 581853, Control_c, 0, 64, 55
1, 581853, Control_c, 0, 67, 94
1, 581868, Control_c, 0, 67, 97
1, 581883, Control_c, 0, 64, 54
1, 581883, Control_c, 0, 67, 99
1, 581897, Control_c, 0, 67, 101
1, 581902, Note_off_c, 0, 75, 54
1, 581908, Note_on_c, 0, 58, 51
1, 581912, Note_on_c, 0, 74, 62
1, 581912, Control_c, 0, 67, 102
1, 581914, Note_off_c, 0, 67, 60
1, 581927, Control_c, 0, 64, 53
1, 581927, Control_c, 0, 67, 104
1, 581928, Note_on_c, 0, 65, 55
1, 581939, Note_off_c, 0, 57, 56
1, 581942, Control_c, 0, 64, 51
1, 581942, Control_c, 0, 67, 105
1, 581956, Control_c, 0, 64, 48
1, 581956, Control_c, 0, 67, 106
1, 581971, Control_c, 0, 64, 44
1, 581971, Control_c, 0, 67, 107
1, 581986, Control_c, 0, 64, 40
1, 581986, Control_c, 0, 67, 108
1, 582001, Control_c, 0, 64, 36
1, 582001, Control_c, 0, 67, 109
1, 582016, Control_c, 0, 64, 26
1, 582016, Control_c, 0, 67, 110
1, 582031, Control_c, 0, 64, 0
1, 582031, Control_c, 0, 67, 112
1, 582045, Control_c, 0, 67, 114
1, 582060, Control_c, 0, 67, 115
1, 582075, Control_c, 0, 67, 117
1, 582090, Control_c, 0, 67, 117
1, 582105, Control_c, 0, 67, 118
1, 582121, Note_off_c, 0, 58, 54
1, 582138, Note_off_c, 0, 74, 55
1, 582144, Note_on_c, 0, 77, 55
1, 582156, Note_on_c, 0, 51, 48
1, 582156, Note_off_c, 0, 65, 38
1, 582171, Note_on_c, 0, 68, 36
1, 582180, Control_c, 0, 67, 118
1, 582298, Note_off_c, 0, 51, 48
1, 582368, Note_off_c, 0, 68, 47
1, 582381, Note_on_c, 0, 63, 49
1, 582385, Note_on_c, 0, 75, 46
1, 582387, Note_on_c, 0, 67, 33
1, 582595, Note_off_c, 0, 67, 45
1, 582611, Note_on_c, 0, 62, 63
1, 582613, Note_off_c, 0, 77, 36
1, 582626, Note_off_c, 0, 63, 49
1, 582632, Control_c, 0, 67, 118
1, 582676, Control_c, 0, 67, 117
1, 582677, Note_off_c, 0, 75, 38
1, 582705, Control_c, 0, 67, 117
1, 582720, Control_c, 0, 67, 116
1, 582735, Control_c, 0, 67, 116
1, 582765, Control_c, 0, 67, 115
1, 582831, Note_on_c, 0, 63, 72
1, 582866, Note_off_c, 0, 62, 58
1, 582988, Control_c, 0, 67, 115
1, 583053, Note_on_c, 0, 66, 59
1, 583086, Note_off_c, 0, 63, 59
1, 583189, Control_c, 0, 67, 115
1, 583203, Control_c, 0, 67, 116
1, 583233, Control_c, 0, 67, 116
1, 583248, Control_c, 0, 67, 117
1, 583277, Control_c, 0, 67, 117
1, 583292, Control_c, 0, 67, 118
1, 583294, Note_on_c, 0, 57, 34
1, 583299, Note_on_c, 0, 75, 55
1, 583321, Control_c, 0, 67, 118
1, 583336, Control_c, 0, 67, 119
1, 583434, Note_off_c, 0, 66, 30
1, 583525, Note_off_c, 0, 57, 47
1, 583530, Note_on_c, 0, 72, 50
1, 583534, Note_on_c, 0, 58, 44
1, 583638, Note_off_c, 0, 75, 38
1, 583646, Note_off_c, 0, 58, 49
1, 583767, Note_on_c, 0, 73, 61
1, 583847, Note_off_c, 0, 72, 58
1, 584013, Note_on_c, 0, 77, 63
1, 584114, Note_off_c, 0, 73, 35
1, 584229, Note_on_c, 0, 61, 49
1, 584238, Note_on_c, 0, 67, 51
1, 584245, Note_on_c, 0, 51, 42
1, 584354, Note_off_c, 0, 77, 29
1, 584479, Note_on_c, 0, 70, 50
1, 584484, Note_on_c, 0, 60, 37
1, 584487, Note_on_c, 0, 56, 39
1, 584496, Note_off_c, 0, 61, 50
1, 584499, Control_c, 0, 67, 119
1, 584513, Note_off_c, 0, 67, 50
1, 584541, Note_off_c, 0, 51, 34
1, 584543, Control_c, 0, 67, 120
1, 584627, Note_off_c, 0, 56, 50
1, 584633, Note_off_c, 0, 60, 60
1, 584710, Note_on_c, 0, 68, 52
1, 584789, Control_c, 0, 67, 121
1, 584804, Control_c, 0, 67, 121
1, 584819, Control_c, 0, 67, 126
1, 584834, Control_c, 0, 67, 127
1, 584939, Note_on_c, 0, 72, 48
1, 584961, Note_off_c, 0, 70, 38
1, 585024, Note_off_c, 0, 68, 51
1, 585159, Note_on_c, 0, 56, 46
1, 585160, Note_on_c, 0, 62, 44
1, 585166, Note_on_c, 0, 46, 47
1, 585314, Note_off_c, 0, 72, 45
1, 585404, Note_off_c, 0, 62, 57
1, 585413, Note_on_c, 0, 63, 49
1, 585423, Note_on_c, 0, 55, 47
1, 585426, Note_on_c, 0, 51, 47
1, 585441, Note_off_c, 0, 56, 59
1, 585446, Note_off_c, 0, 63, 65
1, 585511, Note_off_c, 0, 46, 42
1, 585606, Note_off_c, 0, 51, 51
1, 585643, Note_on_c, 0, 82, 72
1, 585651, Note_off_c, 0, 55, 61
1, 585858, Note_on_c, 0, 87, 77
1, 585900, Note_off_c, 0, 82, 55
1, 585971, Note_on_c, 0, 75, 62
1, 586007, Note_off_c, 0, 75, 61
1, 586074, Note_on_c, 0, 77, 75
1, 586085, Note_on_c, 0, 85, 72
1, 586100, Note_off_c, 0, 77, 64
1, 586181, Note_on_c, 0, 79, 78
1, 586211, Note_off_c, 0, 79, 58
1, 586302, Note_on_c, 0, 80, 79
1, 586307, Note_on_c, 0, 84, 87
1, 586307, Note_off_c, 0, 87, 20
1, 586326, Note_off_c, 0, 85, 45
1, 586335, Note_off_c, 0, 80, 64
1, 586409, Note_on_c, 0, 79, 73
1, 586443, Note_off_c, 0, 79, 61
1, 586514, Note_on_c, 0, 77, 77
1, 586549, Note_off_c, 0, 77, 60
1, 586623, Note_on_c, 0, 75, 69
1, 586654, Note_off_c, 0, 75, 62
1, 586731, Note_on_c, 0, 73, 68
1, 586741, Note_on_c, 0, 89, 86
1, 586755, Note_off_c, 0, 73, 66
1, 586762, Note_off_c, 0, 84, 57
1, 586831, Note_on_c, 0, 72, 75
1, 586866, Note_off_c, 0, 72, 60
1, 586952, Note_on_c, 0, 70, 78
1, 586997, Note_off_c, 0, 70, 61
1, 587057, Note_on_c, 0, 68, 75
1, 587085, Note_off_c, 0, 68, 61
1, 587168, Note_on_c, 0, 82, 86
1, 587173, Note_on_c, 0, 67, 81
1, 587196, Note_off_c, 0, 89, 64
1, 587225, Note_off_c, 0, 67, 59
1, 587277, Note_on_c, 0, 65, 75
1, 587312, Note_off_c, 0, 65, 59
1, 587392, Note_on_c, 0, 63, 70
1, 587423, Note_off_c, 0, 63, 61
1, 587501, Note_on_c, 0, 61, 65
1, 587519, Note_off_c, 0, 61, 64
1, 587608, Note_on_c, 0, 87, 87
1, 587611, Note_on_c, 0, 60, 71
1, 587658, Note_off_c, 0, 82, 60
1, 587667, Note_off_c, 0, 60, 60
1, 587724, Note_on_c, 0, 58, 79
1, 587762, Note_off_c, 0, 58, 59
1, 587837, Note_on_c, 0, 56, 75
1, 587863, Note_off_c, 0, 56, 65
1, 587942, Note_on_c, 0, 55, 70
1, 587972, Note_off_c, 0, 55, 67
1, 588041, Note_on_c, 0, 53, 78
1, 588049, Note_on_c, 0, 80, 84
1, 588072, Note_off_c, 0, 53, 67
1, 588086, Note_off_c, 0, 87, 54
1, 588151, Note_on_c, 0, 51, 69
1, 588182, Note_off_c, 0, 51, 61
1, 588250, Note_on_c, 0, 49, 69
1, 588277, Note_off_c, 0, 49, 65
1, 588359, Note_on_c, 0, 48, 70
1, 588397, Note_off_c, 0, 48, 63
1, 588469, Note_on_c, 0, 46, 84
1, 588476, Note_on_c, 0, 85, 80
1, 588481, Note_on_c, 0, 73, 69
1, 588488, Control_c, 0, 67, 117
1, 588503, Control_c, 0, 67, 101
1, 588505, Note_off_c, 0, 80, 62
1, 588515, Note_off_c, 0, 46, 61
1, 588517, Control_c, 0, 67, 89
1, 588532, Control_c, 0, 67, 78
1, 588547, Control_c, 0, 67, 64
1, 588563, Control_c, 0, 67, 48
1, 588569, Note_off_c, 0, 85, 0
1, 588571, Note_off_c, 0, 73, 55
1, 588571, Note_on_c, 0, 45, 84
1, 588578, Control_c, 0, 67, 34
1, 588593, Control_c, 0, 67, 27
1, 588600, Poly_aftertouch_c, 0, 85, 0
1, 588604, Note_off_c, 0, 45, 65
1, 588608, Control_c, 0, 67, 25
1, 588682, Control_c, 0, 67, 25
1, 588688, Note_on_c, 0, 46, 84
1, 588696, Control_c, 0, 67, 24
1, 588697, Note_on_c, 0, 84, 81
1, 588708, Note_on_c, 0, 72, 65
1, 588711, Control_c, 0, 67, 24
1, 588726, Control_c, 0, 67, 23
1, 588736, Note_off_c, 0, 46, 62
1, 588739, Note_off_c, 0, 72, 67
1, 588755, Control_c, 0, 67, 22
1, 588770, Control_c, 0, 67, 22
1, 588788, Note_off_c, 0, 84, 62
1, 588789, Note_on_c, 0, 48, 77
1, 588814, Note_off_c, 0, 48, 66
1, 588860, Control_c, 0, 67, 21
1, 588904, Control_c, 0, 67, 20
1, 588906, Note_on_c, 0, 49, 82
1, 588907, Note_on_c, 0, 82, 76
1, 588915, Note_on_c, 0, 70, 69
1, 588919, Control_c, 0, 67, 18
1, 588933, Control_c, 0, 67, 14
1, 588942, Note_off_c, 0, 49, 60
1, 588948, Control_c, 0, 67, 8
1, 588963, Control_c, 0, 67, 0
1, 588979, Note_off_c, 0, 70, 61
1, 588986, Note_off_c, 0, 82, 60
1, 589009, Note_on_c, 0, 48, 76
1, 589045, Note_off_c, 0, 48, 65
1, 589122, Note_on_c, 0, 49, 78
1, 589140, Note_on_c, 0, 80, 74
1, 589153, Note_on_c, 0, 68, 67
1, 589167, Note_off_c, 0, 49, 61
1, 589233, Note_off_c, 0, 68, 54
1, 589239, Note_on_c, 0, 50, 73
1, 589268, Note_off_c, 0, 80, 31
1, 589276, Note_off_c, 0, 50, 62
1, 589350, Note_on_c, 0, 51, 75
1, 589353, Note_on_c, 0, 79, 78
1, 589366, Note_on_c, 0, 67, 62
1, 589397, Note_off_c, 0, 51, 60
1, 589407, Note_off_c, 0, 67, 56
1, 589433, Note_off_c, 0, 79, 52
1, 589459, Note_on_c, 0, 53, 80
1, 589487, Note_off_c, 0, 53, 69
1, 589561, Note_on_c, 0, 54, 76
1, 589573, Note_on_c, 0, 73, 78
1, 589612, Note_off_c, 0, 54, 54
1, 589624, Note_off_c, 0, 73, 62
1, 589671, Note_on_c, 0, 55, 69
1, 589709, Note_off_c, 0, 55, 59
1, 589772, Note_on_c, 0, 44, 85
1, 589784, Note_on_c, 0, 84, 84
1, 589829, Note_off_c, 0, 84, 64
1, 589896, Note_on_c, 0, 82, 77
1, 589946, Note_off_c, 0, 82, 64
1, 589998, Note_on_c, 0, 80, 74
1, 590044, Note_off_c, 0, 80, 60
1, 590103, Note_on_c, 0, 79, 66
1, 590132, Note_off_c, 0, 79, 62
1, 590208, Note_on_c, 0, 49, 87
1, 590213, Note_on_c, 0, 77, 68
1, 590225, Control_c, 0, 64, 8
1, 590240, Control_c, 0, 64, 10
1, 590246, Note_off_c, 0, 77, 61
1, 590247, Note_off_c, 0, 44, 63
1, 590299, Control_c, 0, 64, 8
1, 590313, Control_c, 0, 64, 0
1, 590316, Note_on_c, 0, 75, 74
1, 590347, Note_off_c, 0, 75, 64
1, 590418, Note_on_c, 0, 73, 78
1, 590456, Note_off_c, 0, 73, 57
1, 590517, Note_on_c, 0, 72, 77
1, 590550, Control_c, 0, 64, 8
1, 590565, Note_off_c, 0, 72, 63
1, 590565, Control_c, 0, 64, 10
1, 590595, Control_c, 0, 64, 12
1, 590610, Control_c, 0, 64, 14
1, 590624, Control_c, 0, 64, 17
1, 590625, Note_on_c, 0, 70, 80
1, 590641, Note_on_c, 0, 43, 90
1, 590645, Note_off_c, 0, 49, 60
1, 590661, Control_c, 0, 64, 15
1, 590676, Control_c, 0, 64, 12
1, 590686, Note_off_c, 0, 70, 60
1, 590691, Control_c, 0, 64, 8
1, 590705, Control_c, 0, 64, 0
1, 590732, Note_on_c, 0, 68, 81
1, 590780, Note_off_c, 0, 68, 65
1, 590842, Note_on_c, 0, 67, 75
1, 590884, Note_off_c, 0, 67, 58
1, 590947, Note_on_c, 0, 65, 74
1, 591004, Note_off_c, 0, 65, 58
1, 591063, Note_on_c, 0, 64, 80
1, 591080, Note_on_c, 0, 48, 94
1, 591110, Note_off_c, 0, 64, 64
1, 591129, Note_off_c, 0, 43, 61
1, 591169, Note_on_c, 0, 61, 80
1, 591216, Note_off_c, 0, 61, 63
1, 591283, Note_on_c, 0, 60, 75
1, 591334, Note_off_c, 0, 60, 60
1, 591398, Note_on_c, 0, 58, 79
1, 591452, Note_off_c, 0, 58, 63
1, 591517, Note_on_c, 0, 56, 88
1, 591522, Note_on_c, 0, 41, 97
1, 591569, Note_off_c, 0, 48, 60
1, 591573, Note_off_c, 0, 56, 64
1, 591635, Note_on_c, 0, 55, 80
1, 591637, Note_off_c, 0, 41, 64
1, 591678, Note_off_c, 0, 55, 61
1, 591751, Note_on_c, 0, 53, 76
1, 591817, Note_off_c, 0, 53, 64
1, 591862, Note_on_c, 0, 52, 82
1, 591918, Note_off_c, 0, 52, 67
1, 591989, Note_on_c, 0, 29, 96
1, 591990, Note_on_c, 0, 41, 96
1, 591993, Note_on_c, 0, 53, 73
1, 592025, Note_on_c, 0, 55, 22
1, 592026, Note_off_c, 0, 55, 127
1, 592061, Note_off_c, 0, 53, 58
1, 592098, Note_on_c, 0, 55, 62
1, 592160, Note_off_c, 0, 55, 64
1, 592218, Note_on_c, 0, 56, 78
1, 592267, Note_off_c, 0, 56, 63
1, 592330, Note_on_c, 0, 55, 79
1, 592369, Note_off_c, 0, 55, 61
1, 592437, Note_on_c, 0, 53, 81
1, 592487, Note_off_c, 0, 53, 66
1, 592538, Note_on_c, 0, 51, 77
1, 592574, Note_off_c, 0, 51, 57
1, 592645, Note_on_c, 0, 50, 74
1, 592679, Note_off_c, 0, 50, 64
1, 592696, Note_off_c, 0, 41, 56
1, 592755, Note_on_c, 0, 48, 69
1, 592805, Note_off_c, 0, 48, 59
1, 592881, Note_on_c, 0, 47, 66
1, 592883, Note_on_c, 0, 42, 70
1, 592888, Note_on_c, 0, 30, 70
1, 592900, Note_off_c, 0, 29, 54
1, 592914, Note_off_c, 0, 47, 66
1, 592985, Note_on_c, 0, 48, 73
1, 593015, Note_off_c, 0, 48, 65
1, 593109, Note_on_c, 0, 50, 63
1, 593128, Note_off_c, 0, 30, 46
1, 593149, Note_off_c, 0, 50, 63
1, 593153, Note_off_c, 0, 42, 59
1, 593198, Note_on_c, 0, 48, 67
1, 593238, Note_off_c, 0, 48, 61
1, 593313, Note_on_c, 0, 31, 78
1, 593343, Note_off_c, 0, 31, 66
1, 593382, Note_on_c, 0, 43, 59
1, 593416, Note_on_c, 0, 47, 63
1, 593429, Note_off_c, 0, 43, 58
1, 593469, Note_on_c, 0, 50, 66
1, 593516, Note_on_c, 0, 55, 61
1, 593530, Note_off_c, 0, 47, 56
1, 593551, Note_off_c, 0, 50, 61
1, 593599, Note_off_c, 0, 55, 60
1, 593679, Note_on_c, 0, 38, 50
1, 593698, Note_on_c, 0, 35, 65
1, 593766, Note_on_c, 0, 31, 83
1, 593782, Note_off_c, 0, 38, 59
1, 593792, Note_off_c, 0, 35, 65
1, 593820, Note_off_c, 0, 31, 63
1, 593848, Note_on_c, 0, 43, 51
1, 593908, Note_off_c, 0, 43, 58
1, 593911, Note_on_c, 0, 48, 59
1, 593951, Note_on_c, 0, 51, 62
1, 594005, Note_on_c, 0, 55, 60
1, 594008, Note_off_c, 0, 48, 57
1, 594058, Note_off_c, 0, 51, 56
1, 594095, Note_off_c, 0, 55, 56
1, 594113, Note_on_c, 0, 39, 63
1, 594163, Note_on_c, 0, 36, 65
1, 594209, Note_on_c, 0, 31, 86
1, 594229, Note_off_c, 0, 39, 62
1, 594249, Note_off_c, 0, 36, 64
1, 594260, Note_on_c, 0, 43, 50
1, 594272, Note_off_c, 0, 31, 63
1, 594309, Note_on_c, 0, 50, 68
1, 594364, Note_on_c, 0, 53, 63
1, 594408, Note_off_c, 0, 43, 28
1, 594422, Note_off_c, 0, 50, 61
1, 594431, Note_on_c, 0, 55, 65
1, 594507, Note_off_c, 0, 53, 59
1, 594528, Note_off_c, 0, 55, 54
1, 594538, Note_on_c, 0, 41, 73
1, 594595, Note_on_c, 0, 38, 71
1, 594643, Note_on_c, 0, 31, 90
1, 594663, Note_off_c, 0, 41, 59
1, 594689, Note_off_c, 0, 38, 62
1, 594697, Note_on_c, 0, 43, 70
1, 594724, Note_off_c, 0, 31, 63
1, 594741, Note_on_c, 0, 48, 63
1, 594775, Note_off_c, 0, 43, 56
1, 594782, Note_on_c, 0, 51, 71
1, 594852, Note_on_c, 0, 55, 74
1, 594902, Note_off_c, 0, 48, 55
1, 594940, Note_off_c, 0, 51, 62
1, 594947, Note_on_c, 0, 39, 70
1, 594962, Note_off_c, 0, 55, 63
1, 595006, Note_on_c, 0, 36, 72
1, 595061, Note_on_c, 0, 31, 91
1, 595078, Note_off_c, 0, 39, 62
1, 595087, Note_off_c, 0, 36, 65
1, 595119, Note_off_c, 0, 31, 63
1, 595129, Note_on_c, 0, 55, 63
1, 595161, Note_on_c, 0, 59, 71
1, 595214, Note_off_c, 0, 55, 57
1, 595218, Note_on_c, 0, 62, 75
1, 595274, Note_on_c, 0, 67, 81
1, 595340, Note_off_c, 0, 62, 57
1, 595357, Note_off_c, 0, 59, 55
1, 595394, Note_on_c, 0, 50, 73
1, 595411, Note_off_c, 0, 67, 52
1, 595432, Note_on_c, 0, 47, 78
1, 595491, Note_on_c, 0, 43, 92
1, 595513, Note_off_c, 0, 50, 63
1, 595528, Note_off_c, 0, 47, 65
1, 595540, Note_on_c, 0, 55, 66
1, 595570, Note_off_c, 0, 43, 60
1, 595599, Note_on_c, 0, 60, 70
1, 595650, Note_on_c, 0, 63, 73
1, 595656, Note_off_c, 0, 55, 39
1, 595714, Note_on_c, 0, 67, 77
1, 595745, Note_off_c, 0, 60, 60
1, 595796, Note_off_c, 0, 63, 57
1, 595823, Note_on_c, 0, 51, 58
1, 595879, Note_on_c, 0, 48, 74
1, 595917, Control_c, 0, 64, 23
1, 595927, Note_on_c, 0, 43, 91
1, 595931, Control_c, 0, 64, 42
1, 595945, Note_off_c, 0, 51, 62
1, 595946, Control_c, 0, 64, 49
1, 595953, Note_on_c, 0, 55, 58
1, 595961, Control_c, 0, 64, 54
1, 595966, Note_off_c, 0, 48, 62
1, 595976, Control_c, 0, 64, 55
1, 595990, Note_off_c, 0, 67, 25
1, 595991, Control_c, 0, 64, 54
1, 595993, Note_on_c, 0, 62, 79
1, 596005, Control_c, 0, 64, 52
1, 596020, Control_c, 0, 64, 45
1, 596024, Note_off_c, 0, 43, 62
1, 596035, Control_c, 0, 64, 34
1, 596044, Note_on_c, 0, 65, 70
1, 596050, Control_c, 0, 64, 19
1, 596055, Note_off_c, 0, 55, 60
1, 596065, Control_c, 0, 64, 0
1, 596109, Note_on_c, 0, 67, 80
1, 596124, Control_c, 0, 64, 12
1, 596133, Note_off_c, 0, 62, 60
1, 596139, Control_c, 0, 64, 23
1, 596154, Control_c, 0, 64, 31
1, 596169, Control_c, 0, 64, 38
1, 596184, Control_c, 0, 64, 44
1, 596198, Control_c, 0, 64, 48
1, 596204, Note_off_c, 0, 65, 55
1, 596213, Control_c, 0, 64, 51
1, 596228, Control_c, 0, 64, 52
1, 596243, Control_c, 0, 64, 54
1, 596251, Note_on_c, 0, 53, 70
1, 596257, Control_c, 0, 64, 55
1, 596272, Control_c, 0, 64, 56
1, 596287, Control_c, 0, 64, 57
1, 596291, Note_on_c, 0, 50, 78
1, 596298, Note_off_c, 0, 67, 52
1, 596302, Control_c, 0, 64, 58
1, 596316, Control_c, 0, 64, 59
1, 596321, Note_off_c, 0, 53, 65
1, 596331, Control_c, 0, 64, 60
1, 596350, Note_on_c, 0, 43, 94
1, 596361, Control_c, 0, 64, 59
1, 596376, Control_c, 0, 64, 53
1, 596381, Note_off_c, 0, 50, 64
1, 596391, Control_c, 0, 64, 28
1, 596405, Control_c, 0, 64, 0
1, 596407, Note_on_c, 0, 55, 74
1, 596461, Note_off_c, 0, 43, 60
1, 596462, Note_on_c, 0, 60, 74
1, 596522, Note_on_c, 0, 63, 79
1, 596552, Note_off_c, 0, 55, 54
1, 596569, Control_c, 0, 64, 8
1, 596584, Note_on_c, 0, 67, 85
1, 596584, Control_c, 0, 64, 34
1, 596599, Control_c, 0, 64, 43
1, 596615, Control_c, 0, 64, 47
1, 596637, Control_c, 0, 64, 51
1, 596652, Control_c, 0, 64, 54
1, 596667, Control_c, 0, 64, 56
1, 596676, Note_off_c, 0, 60, 56
1, 596679, Note_on_c, 0, 51, 66
1, 596681, Control_c, 0, 64, 58
1, 596691, Poly_aftertouch_c, 0, 65, 127
1, 596696, Control_c, 0, 64, 59
1, 596711, Control_c, 0, 64, 61
1, 596711, Note_off_c, 0, 63, 65
1, 596724, Note_off_c, 0, 67, 57
1, 596726, Control_c, 0, 64, 62
1, 596730, Note_on_c, 0, 48, 80
1, 596731, Poly_aftertouch_c, 0, 65, 0
1, 596741, Control_c, 0, 64, 62
1, 596745, Note_off_c, 0, 51, 61
1, 596755, Control_c, 0, 64, 63
1, 596787, Note_on_c, 0, 43, 96
1, 596800, Control_c, 0, 64, 59
1, 596815, Control_c, 0, 64, 42
1, 596820, Note_off_c, 0, 48, 63
1, 596829, Control_c, 0, 64, 0
1, 596869, Note_off_c, 0, 43, 63
1, 596879, Note_on_c, 0, 67, 69
1, 596919, Note_on_c, 0, 71, 75
1, 596977, Note_on_c, 0, 74, 78
1, 596980, Note_off_c, 0, 67, 54
1, 597017, Note_on_c, 0, 79, 89
1, 597100, Note_off_c, 0, 71, 60
1, 597110, Note_off_c, 0, 74, 63
1, 597117, Note_on_c, 0, 62, 75
1, 597141, Control_c, 0, 64, 23
1, 597155, Control_c, 0, 64, 48
1, 597159, Note_on_c, 0, 59, 71
1, 597169, Note_off_c, 0, 79, 58
1, 597170, Control_c, 0, 64, 61
1, 597185, Control_c, 0, 64, 63
1, 597209, Note_on_c, 0, 55, 90
1, 597218, Note_off_c, 0, 62, 57
1, 597240, Note_off_c, 0, 59, 64
1, 597259, Control_c, 0, 64, 62
1, 597273, Control_c, 0, 64, 58
1, 597288, Control_c, 0, 64, 45
1, 597290, Note_off_c, 0, 55, 60
1, 597291, Note_on_c, 0, 67, 70
1, 597303, Control_c, 0, 64, 0
1, 597346, Note_on_c, 0, 72, 74
1, 597403, Note_on_c, 0, 75, 76
1, 597408, Note_off_c, 0, 67, 38
1, 597444, Note_on_c, 0, 79, 93
1, 597515, Note_off_c, 0, 72, 62
1, 597539, Note_on_c, 0, 63, 76
1, 597551, Note_off_c, 0, 75, 63
1, 597593, Note_on_c, 0, 60, 78
1, 597609, Note_off_c, 0, 79, 50
1, 597637, Control_c, 0, 64, 33
1, 597643, Note_on_c, 0, 55, 91
1, 597652, Control_c, 0, 64, 57
1, 597656, Note_off_c, 0, 63, 65
1, 597667, Control_c, 0, 64, 59
1, 597676, Note_off_c, 0, 60, 64
1, 597711, Control_c, 0, 64, 59
1, 597715, Note_on_c, 0, 67, 70
1, 597726, Control_c, 0, 64, 57
1, 597728, Note_off_c, 0, 55, 62
1, 597741, Control_c, 0, 64, 54
1, 597756, Control_c, 0, 64, 48
1, 597769, Note_on_c, 0, 74, 72
1, 597770, Control_c, 0, 64, 36
1, 597781, Note_off_c, 0, 67, 54
1, 597785, Control_c, 0, 64, 15
1, 597800, Control_c, 0, 64, 0
1, 597817, Note_on_c, 0, 77, 83
1, 597870, Note_on_c, 0, 79, 89
1, 597889, Note_off_c, 0, 74, 65
1, 597952, Note_off_c, 0, 77, 55
1, 597969, Note_on_c, 0, 65, 73
1, 597998, Note_off_c, 0, 79, 54
1, 598017, Note_on_c, 0, 62, 85
1, 598041, Note_off_c, 0, 65, 61
1, 598070, Note_on_c, 0, 55, 85
1, 598091, Note_on_c, 0, 57, 44
1, 598100, Note_off_c, 0, 62, 63
1, 598122, Note_off_c, 0, 57, 36
1, 598133, Note_on_c, 0, 67, 72
1, 598157, Note_off_c, 0, 55, 60
1, 598185, Note_on_c, 0, 72, 74
1, 598226, Note_off_c, 0, 67, 51
1, 598236, Note_on_c, 0, 75, 82
1, 598286, Note_on_c, 0, 79, 86
1, 598363, Note_off_c, 0, 72, 60
1, 598372, Control_c, 0, 64, 35
1, 598374, Note_on_c, 0, 63, 73
1, 598387, Control_c, 0, 64, 50
1, 598393, Note_off_c, 0, 79, 59
1, 598401, Note_off_c, 0, 75, 63
1, 598401, Control_c, 0, 64, 55
1, 598416, Control_c, 0, 64, 57
1, 598431, Control_c, 0, 64, 58
1, 598431, Note_on_c, 0, 60, 75
1, 598445, Control_c, 0, 64, 60
1, 598460, Control_c, 0, 64, 61
1, 598475, Control_c, 0, 64, 62
1, 598485, Note_on_c, 0, 55, 90
1, 598494, Note_off_c, 0, 63, 41
1, 598512, Note_off_c, 0, 60, 64
1, 598519, Control_c, 0, 64, 61
1, 598534, Control_c, 0, 64, 60
1, 598549, Control_c, 0, 64, 56
1, 598561, Note_on_c, 0, 67, 80
1, 598564, Control_c, 0, 64, 49
1, 598571, Note_off_c, 0, 55, 63
1, 598579, Control_c, 0, 64, 28
1, 598593, Control_c, 0, 64, 0
1, 598629, Note_off_c, 0, 67, 60
1, 598633, Note_on_c, 0, 66, 79
1, 598681, Note_off_c, 0, 66, 66
1, 598705, Note_on_c, 0, 67, 77
1, 598765, Note_on_c, 0, 71, 79
1, 598801, Note_off_c, 0, 67, 56
1, 598851, Note_on_c, 0, 74, 71
1, 598854, Note_on_c, 0, 76, 68
1, 598905, Note_off_c, 0, 76, 57
1, 598915, Note_on_c, 0, 79, 97
1, 598923, Note_off_c, 0, 74, 65
1, 598929, Note_off_c, 0, 71, 51
1, 598941, Control_c, 0, 64, 45
1, 598956, Control_c, 0, 64, 59
1, 598971, Control_c, 0, 64, 64
1, 598986, Control_c, 0, 64, 67
1, 598989, Note_on_c, 0, 74, 78
1, 599001, Control_c, 0, 64, 68
1, 599016, Control_c, 0, 64, 70
1, 599031, Control_c, 0, 64, 72
1, 599046, Control_c, 0, 64, 74
1, 599051, Note_on_c, 0, 76, 20
1, 599059, Note_on_c, 0, 71, 82
1, 599060, Control_c, 0, 64, 75
1, 599083, Note_off_c, 0, 79, 51
1, 599093, Note_off_c, 0, 76, 51
1, 599096, Note_off_c, 0, 74, 58
1, 599126, Note_on_c, 0, 55, 80
1, 599128, Note_on_c, 0, 67, 80
1, 599144, Note_off_c, 0, 71, 59
1, 599195, Note_on_c, 0, 50, 82
1, 599218, Note_off_c, 0, 55, 59
1, 599251, Note_on_c, 0, 47, 80
1, 599253, Control_c, 0, 64, 74
1, 599263, Note_off_c, 0, 50, 62
1, 599267, Control_c, 0, 64, 73
1, 599272, Note_off_c, 0, 67, 38
1, 599282, Control_c, 0, 64, 70
1, 599297, Control_c, 0, 64, 64
1, 599306, Note_on_c, 0, 43, 97
1, 599312, Control_c, 0, 64, 40
1, 599327, Control_c, 0, 64, 0
1, 599331, Note_off_c, 0, 47, 63
1, 599376, Note_off_c, 0, 43, 63
1, 599407, Note_on_c, 0, 71, 68
1, 599463, Note_on_c, 0, 70, 72
1, 599471, Note_off_c, 0, 71, 62
1, 599514, Note_off_c, 0, 70, 65
1, 599527, Note_on_c, 0, 71, 73
1, 599598, Note_on_c, 0, 74, 79
1, 599645, Note_off_c, 0, 71, 56
1, 599673, Note_on_c, 0, 79, 79
1, 599744, Note_on_c, 0, 83, 93
1, 599754, Note_off_c, 0, 79, 61
1, 599766, Note_off_c, 0, 74, 52
1, 599807, Note_on_c, 0, 79, 80
1, 599873, Note_on_c, 0, 74, 78
1, 599895, Note_off_c, 0, 83, 57
1, 599912, Note_off_c, 0, 79, 61
1, 599949, Note_on_c, 0, 71, 80
1, 599967, Note_off_c, 0, 74, 66
1, 599970, Note_on_c, 0, 55, 81
1, 599972, Control_c, 0, 64, 35
1, 599987, Control_c, 0, 64, 51
1, 600002, Control_c, 0, 64, 57
1, 600016, Control_c, 0, 64, 59
1, 600031, Control_c, 0, 64, 60
1, 600034, Note_on_c, 0, 50, 80
1, 600046, Control_c, 0, 64, 62
1, 600061, Control_c, 0, 64, 64
1, 600074, Note_off_c, 0, 55, 60
1, 600076, Control_c, 0, 64, 68
1, 600086, Note_off_c, 0, 71, 59
1, 600090, Control_c, 0, 64, 70
1, 600101, Note_on_c, 0, 47, 72
1, 600104, Note_off_c, 0, 50, 64
1, 600105, Control_c, 0, 64, 72
1, 600120, Control_c, 0, 64, 73
1, 600135, Control_c, 0, 64, 77
1, 600150, Control_c, 0, 64, 83
1, 600156, Note_on_c, 0, 43, 105
1, 600164, Control_c, 0, 64, 91
1, 600179, Control_c, 0, 64, 92
1, 600186, Note_off_c, 0, 47, 63
1, 600202, Poly_aftertouch_c, 0, 48, 0
1, 600209, Control_c, 0, 64, 85
1, 600223, Control_c, 0, 64, 68
1, 600226, Note_off_c, 0, 43, 64
1, 600238, Control_c, 0, 64, 28
1, 600250, Note_on_c, 0, 74, 75
1, 600253, Control_c, 0, 64, 0
1, 600313, Note_on_c, 0, 73, 82
1, 600320, Note_off_c, 0, 74, 64
1, 600384, Note_off_c, 0, 73, 61
1, 600393, Note_on_c, 0, 74, 83
1, 600458, Note_on_c, 0, 77, 83
1, 600524, Note_on_c, 0, 83, 76
1, 600527, Note_off_c, 0, 74, 55
1, 600593, Note_on_c, 0, 86, 98
1, 600611, Note_off_c, 0, 83, 59
1, 600615, Note_off_c, 0, 77, 60
1, 600618, Control_c, 0, 64, 61
1, 600633, Control_c, 0, 64, 74
1, 600647, Control_c, 0, 64, 84
1, 600656, Note_on_c, 0, 83, 75
1, 600662, Control_c, 0, 64, 85
1, 600727, Note_on_c, 0, 77, 84
1, 600737, Note_off_c, 0, 86, 53
1, 600758, Note_off_c, 0, 83, 63
1, 600766, Control_c, 0, 64, 83
1, 600781, Control_c, 0, 64, 82
1, 600795, Control_c, 0, 64, 81
1, 600804, Note_on_c, 0, 74, 85
1, 600806, Note_off_c, 0, 77, 62
1, 600810, Control_c, 0, 64, 78
1, 600812, Note_on_c, 0, 43, 88
1, 600825, Control_c, 0, 64, 76
1, 600840, Control_c, 0, 64, 74
1, 600855, Control_c, 0, 64, 72
1, 600870, Control_c, 0, 64, 70
1, 600885, Control_c, 0, 64, 69
1, 600885, Note_on_c, 0, 38, 80
1, 600900, Control_c, 0, 64, 67
1, 600901, Note_off_c, 0, 74, 64
1, 600914, Control_c, 0, 64, 67
1, 600929, Note_on_c, 0, 35, 84
1, 600960, Note_off_c, 0, 43, 54
1, 600963, Note_off_c, 0, 38, 62
1, 600974, Control_c, 0, 64, 67
1, 600988, Control_c, 0, 64, 68
1, 600998, Note_on_c, 0, 31, 94
1, 601003, Control_c, 0, 64, 69
1, 601018, Control_c, 0, 64, 71
1, 601020, Note_on_c, 0, 33, 58
1, 601028, Note_off_c, 0, 35, 66
1, 601047, Control_c, 0, 64, 69
1, 601062, Control_c, 0, 64, 64
1, 601073, Note_off_c, 0, 33, 40
1, 601076, Note_on_c, 0, 77, 85
1, 601077, Control_c, 0, 64, 41
1, 601092, Control_c, 0, 64, 0
1, 601156, Note_off_c, 0, 31, 64
1, 601161, Note_on_c, 0, 76, 76
1, 601197, Note_off_c, 0, 77, 0
1, 601201, Note_off_c, 0, 76, 66
1, 601207, Note_on_c, 0, 77, 69
1, 601290, Note_on_c, 0, 83, 88
1, 601331, Note_off_c, 0, 77, 60
1, 601346, Note_on_c, 0, 86, 79
1, 601389, Note_off_c, 0, 83, 59
1, 601408, Note_on_c, 0, 89, 95
1, 601424, Note_off_c, 0, 86, 65
1, 601475, Note_on_c, 0, 86, 88
1, 601502, Note_off_c, 0, 89, 66
1, 601542, Note_on_c, 0, 83, 90
1, 601546, Note_off_c, 0, 86, 63
1, 601616, Note_on_c, 0, 89, 96
1, 601624, Note_off_c, 0, 83, 60
1, 601693, Note_on_c, 0, 86, 89
1, 601729, Note_off_c, 0, 89, 63
1, 601771, Note_on_c, 0, 83, 87
1, 601790, Note_off_c, 0, 86, 62
1, 601918, Note_on_c, 0, 89, 99
1, 601925, Note_on_c, 0, 43, 96
1, 601926, Note_on_c, 0, 31, 96
1, 601968, Note_off_c, 0, 83, 58
1, 602789, Control_c, 0, 64, 34
1, 602804, Control_c, 0, 64, 43
1, 602818, Control_c, 0, 64, 44
1, 602843, Note_on_c, 0, 87, 86
1, 602863, Control_c, 0, 64, 46
1, 602878, Control_c, 0, 64, 49
1, 602892, Control_c, 0, 64, 50
1, 602907, Control_c, 0, 64, 50
1, 602980, Note_on_c, 0, 86, 81
1, 602983, Control_c, 0, 64, 49
1, 603000, Note_off_c, 0, 89, 48
1, 603027, Control_c, 0, 64, 49
1, 603056, Control_c, 0, 64, 48
1, 603057, Note_off_c, 0, 87, 60
1, 603061, Note_on_c, 0, 84, 84
1, 603061, Note_off_c, 0, 86, 63
1, 603086, Control_c, 0, 64, 48
1, 603101, Control_c, 0, 64, 47
1, 603115, Control_c, 0, 64, 46
1, 603130, Control_c, 0, 64, 46
1, 603145, Note_on_c, 0, 83, 88
1, 603145, Control_c, 0, 64, 45
1, 603154, Note_off_c, 0, 84, 61
1, 603175, Control_c, 0, 64, 45
1, 603204, Control_c, 0, 64, 45
1, 603225, Note_on_c, 0, 80, 88
1, 603240, Note_off_c, 0, 83, 61
1, 603249, Control_c, 0, 64, 46
1, 603263, Control_c, 0, 64, 47
1, 603278, Control_c, 0, 64, 50
1, 603285, Note_off_c, 0, 80, 66
1, 603293, Control_c, 0, 64, 52
1, 603294, Note_on_c, 0, 79, 79
1, 603308, Control_c, 0, 64, 53
1, 603323, Control_c, 0, 64, 54
1, 603338, Control_c, 0, 64, 55
1, 603353, Control_c, 0, 64, 57
1, 603368, Note_off_c, 0, 79, 62
1, 603371, Note_on_c, 0, 77, 81
1, 603375, Control_c, 0, 64, 59
1, 603390, Control_c, 0, 64, 61
1, 603405, Control_c, 0, 64, 62
1, 603427, Note_on_c, 0, 75, 83
1, 603435, Control_c, 0, 64, 63
1, 603437, Note_off_c, 0, 77, 63
1, 603449, Control_c, 0, 64, 63
1, 603464, Control_c, 0, 64, 64
1, 603479, Control_c, 0, 64, 64
1, 603481, Note_off_c, 0, 75, 68
1, 603485, Note_on_c, 0, 74, 72
1, 603523, Control_c, 0, 64, 64
1, 603538, Control_c, 0, 64, 59
1, 603542, Note_on_c, 0, 72, 86
1, 603553, Control_c, 0, 64, 36
1, 603559, Note_off_c, 0, 74, 68
1, 603568, Control_c, 0, 64, 0
1, 603600, Note_on_c, 0, 71, 87
1, 603632, Note_off_c, 0, 72, 64
1, 603656, Note_on_c, 0, 68, 86
1, 603657, Control_c, 0, 64, 51
1, 603669, Note_off_c, 0, 71, 63
1, 603672, Control_c, 0, 64, 61
1, 603687, Control_c, 0, 64, 62
1, 603696, Note_off_c, 0, 68, 68
1, 603698, Note_on_c, 0, 67, 83
1, 603699, Note_off_c, 0, 31, 63
1, 603702, Control_c, 0, 64, 63
1, 603716, Control_c, 0, 64, 65
1, 603732, Control_c, 0, 64, 70
1, 603746, Control_c, 0, 64, 78
1, 603755, Note_on_c, 0, 65, 86
1, 603761, Control_c, 0, 64, 87
1, 603770, Note_off_c, 0, 67, 55
1, 603776, Control_c, 0, 64, 87
1, 603777, Note_off_c, 0, 43, 61
1, 603806, Control_c, 0, 64, 88
1, 603815, Note_on_c, 0, 63, 89
1, 603821, Control_c, 0, 64, 90
1, 603836, Note_off_c, 0, 65, 63
1, 603836, Control_c, 0, 64, 94
1, 603851, Control_c, 0, 64, 99
1, 603865, Note_on_c, 0, 62, 88
1, 603865, Control_c, 0, 64, 104
1, 603875, Note_off_c, 0, 63, 65
1, 603880, Control_c, 0, 64, 108
1, 603895, Control_c, 0, 64, 125
1, 603910, Control_c, 0, 64, 127
1, 603929, Note_on_c, 0, 60, 92
1, 603946, Note_off_c, 0, 62, 61
1, 603991, Note_on_c, 0, 59, 98
1, 603994, Note_on_c, 0, 53, 89
1, 603995, Note_on_c, 0, 50, 85
1, 603996, Note_on_c, 0, 43, 82
1, 603998, Control_c, 0, 64, 91
1, 604013, Control_c, 0, 64, 67
1, 604028, Control_c, 0, 64, 34
1, 604043, Control_c, 0, 64, 0
1, 604053, Note_off_c, 0, 60, 58
1, 605621, Control_c, 0, 64, 14
1, 605635, Control_c, 0, 64, 29
1, 605650, Control_c, 0, 64, 37
1, 605665, Control_c, 0, 64, 40
1, 605680, Control_c, 0, 64, 40
1, 605695, Control_c, 0, 64, 41
1, 605709, Control_c, 0, 64, 42
1, 605724, Control_c, 0, 64, 44
1, 605739, Control_c, 0, 64, 46
1, 605754, Control_c, 0, 64, 48
1, 605768, Control_c, 0, 64, 49
1, 605798, Control_c, 0, 64, 48
1, 605813, Control_c, 0, 64, 48
1, 605828, Control_c, 0, 64, 47
1, 605842, Control_c, 0, 64, 45
1, 605857, Control_c, 0, 64, 42
1, 605872, Control_c, 0, 64, 27
1, 605887, Control_c, 0, 64, 0
1, 605904, Note_off_c, 0, 43, 54
1, 605909, Note_off_c, 0, 59, 60
1, 605972, Note_off_c, 0, 53, 58
1, 605981, Note_off_c, 0, 50, 56
1, 606095, Control_c, 0, 67, 10
1, 606109, Control_c, 0, 67, 32
1, 606124, Control_c, 0, 67, 57
1, 606140, Control_c, 0, 67, 80
1, 606155, Control_c, 0, 67, 98
1, 606158, Note_on_c, 0, 67, 56
1, 606170, Control_c, 0, 67, 112
1, 606184, Control_c, 0, 67, 122
1, 606188, Note_off_c, 0, 67, 65
1, 606199, Control_c, 0, 67, 125
1, 606271, Note_on_c, 0, 72, 65
1, 606288, Control_c, 0, 67, 125
1, 606309, Note_off_c, 0, 72, 60
1, 606378, Note_on_c, 0, 74, 66
1, 606409, Note_off_c, 0, 74, 63
1, 606414, Control_c, 0, 67, 125
1, 606429, Control_c, 0, 67, 124
1, 606504, Note_on_c, 0, 75, 75
1, 606528, Note_on_c, 0, 48, 36
1, 606562, Control_c, 0, 67, 125
1, 606615, Note_on_c, 0, 51, 45
1, 606683, Note_off_c, 0, 48, 34
1, 606742, Note_on_c, 0, 55, 47
1, 606780, Note_off_c, 0, 51, 37
1, 606829, Control_c, 0, 67, 125
1, 606844, Control_c, 0, 67, 126
1, 606855, Note_off_c, 0, 55, 52
1, 606856, Note_on_c, 0, 60, 42
1, 606873, Control_c, 0, 67, 126
1, 606873, Note_on_c, 0, 77, 65
1, 606900, Note_off_c, 0, 75, 53
1, 606903, Control_c, 0, 67, 127
1, 606933, Control_c, 0, 67, 127
1, 606986, Note_on_c, 0, 48, 39
1, 606990, Note_on_c, 0, 74, 62
1, 606995, Note_off_c, 0, 60, 51
1, 607124, Note_on_c, 0, 53, 44
1, 607126, Note_off_c, 0, 48, 37
1, 607139, Note_off_c, 0, 77, 31
1, 607215, Note_off_c, 0, 53, 62
1, 607234, Note_on_c, 0, 55, 48
1, 607332, Note_on_c, 0, 75, 55
1, 607342, Note_on_c, 0, 59, 36
1, 607347, Note_off_c, 0, 55, 50
1, 607434, Note_off_c, 0, 74, 39
1, 607445, Note_on_c, 0, 72, 54
1, 607454, Note_off_c, 0, 59, 36
1, 607459, Note_on_c, 0, 48, 41
1, 607483, Note_off_c, 0, 75, 57
1, 607576, Note_on_c, 0, 51, 47
1, 607618, Note_off_c, 0, 48, 34
1, 607637, Control_c, 0, 64, 26
1, 607652, Control_c, 0, 64, 45
1, 607667, Control_c, 0, 64, 54
1, 607681, Control_c, 0, 64, 58
1, 607686, Note_on_c, 0, 55, 49
1, 607696, Control_c, 0, 64, 59
1, 607711, Control_c, 0, 64, 60
1, 607727, Control_c, 0, 64, 61
1, 607732, Note_off_c, 0, 51, 37
1, 607742, Control_c, 0, 64, 62
1, 607757, Control_c, 0, 64, 63
1, 607763, Note_off_c, 0, 55, 64
1, 607772, Control_c, 0, 64, 63
1, 607786, Control_c, 0, 64, 64
1, 607798, Note_on_c, 0, 60, 56
1, 607804, Note_off_c, 0, 72, 62
1, 607868, Control_c, 0, 64, 63
1, 607881, Note_off_c, 0, 60, 55
1, 607883, Control_c, 0, 64, 62
1, 607888, Note_on_c, 0, 74, 65
1, 607898, Control_c, 0, 64, 59
1, 607912, Control_c, 0, 64, 54
1, 607920, Note_on_c, 0, 72, 70
1, 607924, Note_on_c, 0, 63, 62
1, 607927, Control_c, 0, 64, 43
1, 607942, Control_c, 0, 64, 19
1, 607956, Control_c, 0, 64, 0
1, 608010, Note_off_c, 0, 63, 61
1, 608020, Note_on_c, 0, 71, 70
1, 608029, Note_on_c, 0, 67, 68
1, 608037, Note_off_c, 0, 74, 60
1, 608054, Note_off_c, 0, 72, 60
1, 608108, Note_off_c, 0, 71, 62
1, 608117, Note_on_c, 0, 72, 65
1, 608136, Note_on_c, 0, 63, 66
1, 608198, Note_off_c, 0, 67, 35
1, 608209, Note_on_c, 0, 74, 73
1, 608245, Note_on_c, 0, 62, 60
1, 608270, Note_off_c, 0, 72, 63
1, 608298, Note_off_c, 0, 63, 52
1, 608317, Note_on_c, 0, 77, 75
1, 608329, Note_on_c, 0, 60, 65
1, 608340, Note_on_c, 0, 75, 69
1, 608347, Note_off_c, 0, 74, 62
1, 608401, Note_off_c, 0, 62, 38
1, 608410, Note_off_c, 0, 60, 61
1, 608411, Note_off_c, 0, 77, 60
1, 608422, Note_on_c, 0, 67, 67
1, 608444, Note_off_c, 0, 75, 65
1, 608447, Note_on_c, 0, 74, 73
1, 608530, Note_off_c, 0, 67, 56
1, 608542, Note_on_c, 0, 63, 53
1, 608543, Note_on_c, 0, 60, 55
1, 608546, Note_on_c, 0, 75, 69
1, 608587, Note_off_c, 0, 74, 59
1, 608611, Note_off_c, 0, 60, 59
1, 608640, Note_off_c, 0, 63, 57
1, 608654, Note_on_c, 0, 67, 55
1, 608662, Note_on_c, 0, 77, 68
1, 608688, Note_off_c, 0, 75, 53
1, 608759, Note_off_c, 0, 67, 53
1, 608764, Note_on_c, 0, 59, 46
1, 608771, Note_off_c, 0, 77, 58
1, 608772, Note_on_c, 0, 79, 71
1, 608775, Note_on_c, 0, 62, 51
1, 608800, Note_off_c, 0, 79, 62
1, 608811, Note_off_c, 0, 59, 60
1, 608835, Note_off_c, 0, 62, 53
1, 608883, Note_on_c, 0, 67, 46
1, 609005, Note_off_c, 0, 67, 49
1, 609008, Note_on_c, 0, 79, 66
1, 609023, Note_on_c, 0, 60, 42
1, 609029, Note_on_c, 0, 56, 29
1, 609039, Note_off_c, 0, 79, 61
1, 609112, Note_off_c, 0, 60, 53
1, 609128, Note_on_c, 0, 67, 50
1, 609130, Note_off_c, 0, 56, 34
1, 609296, Note_on_c, 0, 79, 69
1, 609297, Note_on_c, 0, 55, 38
1, 609336, Note_off_c, 0, 67, 32
1, 609415, Note_on_c, 0, 59, 47
1, 609446, Note_off_c, 0, 55, 35
1, 609534, Note_on_c, 0, 62, 51
1, 609591, Note_off_c, 0, 59, 35
1, 609629, Note_on_c, 0, 67, 50
1, 609683, Note_off_c, 0, 62, 35
1, 609750, Note_on_c, 0, 55, 48
1, 609818, Note_off_c, 0, 67, 34
1, 609834, Note_off_c, 0, 79, 59
1, 609851, Note_on_c, 0, 59, 53
1, 609854, Note_off_c, 0, 55, 59
1, 609965, Note_on_c, 0, 77, 71
1, 609974, Note_on_c, 0, 62, 45
1, 609981, Note_off_c, 0, 59, 55
1, 610048, Note_off_c, 0, 62, 58
1, 610052, Note_on_c, 0, 67, 42
1, 610066, Note_on_c, 0, 79, 70
1, 610084, Note_off_c, 0, 77, 60
1, 610124, Note_off_c, 0, 79, 60
1, 610181, Note_off_c, 0, 67, 50
1, 610196, Note_on_c, 0, 77, 59
1, 610201, Note_on_c, 0, 53, 43
1, 610240, Note_on_c, 0, 79, 70
1, 610269, Note_off_c, 0, 77, 61
1, 610298, Note_on_c, 0, 80, 73
1, 610340, Note_on_c, 0, 56, 45
1, 610382, Note_off_c, 0, 53, 33
1, 610394, Note_off_c, 0, 79, 55
1, 610443, Note_on_c, 0, 59, 55
1, 610466, Note_off_c, 0, 56, 50
1, 610548, Note_on_c, 0, 62, 50
1, 610574, Note_off_c, 0, 59, 49
1, 610674, Note_on_c, 0, 53, 42
1, 610687, Note_on_c, 0, 74, 57
1, 610701, Note_off_c, 0, 62, 35
1, 610791, Note_on_c, 0, 56, 49
1, 610796, Note_off_c, 0, 80, 58
1, 610799, Note_off_c, 0, 53, 56
1, 610835, Note_off_c, 0, 74, 63
1, 610878, Note_on_c, 0, 59, 52
1, 610897, Note_off_c, 0, 56, 51
1, 610918, Note_on_c, 0, 75, 66
1, 610968, Note_on_c, 0, 62, 55
1, 610989, Note_off_c, 0, 59, 50
1, 611008, Note_on_c, 0, 77, 69
1, 611026, Note_off_c, 0, 75, 64
1, 611057, Note_off_c, 0, 77, 60
1, 611126, Note_on_c, 0, 75, 65
1, 611132, Note_on_c, 0, 51, 48
1, 611145, Note_off_c, 0, 62, 36
1, 611173, Note_on_c, 0, 77, 71
1, 611211, Note_on_c, 0, 79, 76
1, 611230, Note_on_c, 0, 55, 45
1, 611231, Note_off_c, 0, 75, 56
1, 611286, Note_off_c, 0, 77, 51
1, 611295, Note_off_c, 0, 51, 43
1, 611333, Note_on_c, 0, 60, 54
1, 611370, Note_off_c, 0, 55, 47
1, 611439, Note_off_c, 0, 60, 62
1, 611460, Note_on_c, 0, 63, 54
1, 611562, Note_off_c, 0, 63, 58
1, 611568, Note_on_c, 0, 56, 55
1, 611584, Note_on_c, 0, 72, 57
1, 611628, Note_off_c, 0, 79, 55
1, 611642, Note_off_c, 0, 72, 58
1, 611676, Note_off_c, 0, 56, 56
1, 611688, Note_on_c, 0, 60, 61
1, 611799, Note_on_c, 0, 63, 58
1, 611811, Note_off_c, 0, 60, 51
1, 611821, Note_on_c, 0, 72, 60
1, 611881, Note_off_c, 0, 63, 63
1, 611899, Note_on_c, 0, 66, 54
1, 611902, Note_on_c, 0, 74, 67
1, 611908, Note_off_c, 0, 72, 64
1, 611963, Note_off_c, 0, 74, 62
1, 612009, Note_on_c, 0, 55, 60
1, 612025, Note_on_c, 0, 75, 76
1, 612038, Note_off_c, 0, 66, 38
1, 612079, Note_off_c, 0, 75, 64
1, 612135, Note_on_c, 0, 60, 51
1, 612147, Note_off_c, 0, 55, 52
1, 612231, Note_on_c, 0, 63, 58
1, 612237, Note_off_c, 0, 60, 54
1, 612240, Note_on_c, 0, 75, 75
1, 612319, Note_off_c, 0, 63, 62
1, 612336, Note_on_c, 0, 67, 49
1, 612352, Note_on_c, 0, 77, 70
1, 612358, Note_off_c, 0, 75, 33
1, 612433, Note_off_c, 0, 77, 59
1, 612456, Note_on_c, 0, 74, 68
1, 612472, Note_on_c, 0, 55, 57
1, 612480, Note_off_c, 0, 67, 37
1, 612534, Note_off_c, 0, 74, 63
1, 612582, Note_on_c, 0, 59, 59
1, 612607, Note_off_c, 0, 55, 57
1, 612627, Control_c, 0, 64, 32
1, 612642, Control_c, 0, 64, 41
1, 612657, Control_c, 0, 64, 46
1, 612667, Note_off_c, 0, 59, 60
1, 612672, Control_c, 0, 64, 49
1, 612681, Note_on_c, 0, 62, 53
1, 612687, Control_c, 0, 64, 51
1, 612698, Note_on_c, 0, 74, 52
1, 612761, Control_c, 0, 64, 52
1, 612770, Note_off_c, 0, 62, 58
1, 612776, Control_c, 0, 64, 52
1, 612782, Note_on_c, 0, 75, 63
1, 612782, Note_off_c, 0, 74, 58
1, 612790, Control_c, 0, 64, 53
1, 612801, Note_on_c, 0, 67, 56
1, 612831, Note_off_c, 0, 67, 65
1, 612880, Control_c, 0, 64, 52
1, 612889, Note_off_c, 0, 75, 51
1, 612894, Control_c, 0, 64, 51
1, 612902, Note_on_c, 0, 72, 59
1, 612909, Control_c, 0, 64, 51
1, 612924, Control_c, 0, 64, 50
1, 612939, Control_c, 0, 64, 48
1, 612953, Control_c, 0, 64, 47
1, 612968, Control_c, 0, 64, 44
1, 612983, Control_c, 0, 64, 42
1, 612998, Control_c, 0, 64, 39
1, 613012, Control_c, 0, 64, 36
1, 613013, Note_on_c, 0, 36, 52
1, 613027, Control_c, 0, 64, 34
1, 613042, Control_c, 0, 64, 33
1, 613057, Control_c, 0, 64, 32
1, 613071, Control_c, 0, 64, 31
1, 613108, Control_c, 0, 67, 120
1, 613123, Control_c, 0, 67, 110
1, 613138, Control_c, 0, 64, 32
1, 613138, Control_c, 0, 67, 97
1, 613139, Note_on_c, 0, 39, 61
1, 613152, Control_c, 0, 67, 80
1, 613158, Poly_aftertouch_c, 0, 79, 127
1, 613167, Control_c, 0, 64, 32
1, 613167, Control_c, 0, 67, 66
1, 613175, Note_off_c, 0, 36, 56
1, 613182, Control_c, 0, 64, 33
1, 613182, Control_c, 0, 67, 53
1, 613197, Control_c, 0, 67, 42
1, 613212, Control_c, 0, 64, 32
1, 613212, Control_c, 0, 67, 32
1, 613226, Control_c, 0, 64, 31
1, 613226, Control_c, 0, 67, 23
1, 613241, Control_c, 0, 64, 31
1, 613241, Control_c, 0, 67, 14
1, 613252, Note_on_c, 0, 43, 62
1, 613256, Control_c, 0, 67, 0
1, 613270, Control_c, 0, 64, 30
1, 613282, Note_off_c, 0, 39, 59
1, 613285, Control_c, 0, 64, 29
1, 613297, Poly_aftertouch_c, 0, 79, 0
1, 613300, Control_c, 0, 64, 28
1, 613326, Note_off_c, 0, 43, 62
1, 613346, Control_c, 0, 64, 29
1, 613357, Note_on_c, 0, 48, 74
1, 613361, Control_c, 0, 64, 30
1, 613375, Control_c, 0, 64, 31
1, 613390, Control_c, 0, 64, 31
1, 613405, Control_c, 0, 64, 32
1, 613420, Control_c, 0, 64, 33
1, 613435, Control_c, 0, 64, 34
1, 613449, Control_c, 0, 64, 35
1, 613464, Control_c, 0, 64, 35
1, 613467, Note_on_c, 0, 51, 72
1, 613467, Note_off_c, 0, 48, 62
1, 613479, Control_c, 0, 64, 36
1, 613483, Note_off_c, 0, 72, 60
1, 613494, Control_c, 0, 64, 37
1, 613509, Control_c, 0, 64, 38
1, 613524, Control_c, 0, 64, 39
1, 613568, Control_c, 0, 64, 39
1, 613576, Note_on_c, 0, 53, 77
1, 613612, Note_off_c, 0, 51, 58
1, 613661, Note_off_c, 0, 53, 65
1, 613676, Note_on_c, 0, 55, 76
1, 613687, Control_c, 0, 64, 39
1, 613701, Control_c, 0, 64, 38
1, 613716, Control_c, 0, 64, 38
1, 613746, Control_c, 0, 64, 36
1, 613761, Control_c, 0, 64, 35
1, 613775, Control_c, 0, 64, 33
1, 613790, Control_c, 0, 64, 31
1, 613797, Note_on_c, 0, 56, 83
1, 613805, Control_c, 0, 64, 29
1, 613820, Control_c, 0, 64, 28
1, 613824, Note_off_c, 0, 55, 60
1, 613836, Control_c, 0, 64, 27
1, 613858, Control_c, 0, 64, 26
1, 613873, Control_c, 0, 64, 24
1, 613887, Control_c, 0, 64, 23
1, 613932, Control_c, 0, 64, 24
1, 613938, Note_on_c, 0, 59, 54
1, 613976, Control_c, 0, 64, 23
1, 613991, Control_c, 0, 64, 20
1, 614006, Control_c, 0, 64, 14
1, 614021, Control_c, 0, 64, 8
1, 614036, Control_c, 0, 64, 0
1, 614053, Note_on_c, 0, 62, 60
1, 614058, Note_off_c, 0, 59, 61
1, 614147, Note_on_c, 0, 65, 61
1, 614182, Note_off_c, 0, 62, 58
1, 614212, Note_off_c, 0, 65, 62
1, 614261, Note_on_c, 0, 50, 57
1, 614302, Note_off_c, 0, 56, 61
1, 614347, Note_off_c, 0, 50, 63
1, 614381, Note_on_c, 0, 77, 53
1, 614487, Note_on_c, 0, 74, 55
1, 614493, Note_on_c, 0, 51, 54
1, 614553, Note_off_c, 0, 77, 35
1, 614606, Note_on_c, 0, 53, 56
1, 614614, Note_off_c, 0, 51, 51
1, 614620, Note_on_c, 0, 71, 52
1, 614621, Note_off_c, 0, 74, 58
1, 614661, Note_off_c, 0, 71, 63
1, 614729, Note_on_c, 0, 55, 66
1, 614760, Note_off_c, 0, 53, 53
1, 614855, Note_on_c, 0, 60, 56
1, 614962, Note_on_c, 0, 63, 57
1, 615052, Control_c, 0, 64, 8
1, 615061, Note_on_c, 0, 67, 55
1, 615065, Note_off_c, 0, 60, 41
1, 615067, Control_c, 0, 64, 23
1, 615082, Control_c, 0, 64, 31
1, 615096, Control_c, 0, 64, 34
1, 615111, Control_c, 0, 64, 35
1, 615118, Note_off_c, 0, 63, 61
1, 615126, Control_c, 0, 64, 36
1, 615140, Control_c, 0, 64, 39
1, 615148, Note_off_c, 0, 67, 61
1, 615155, Control_c, 0, 64, 41
1, 615170, Control_c, 0, 64, 42
1, 615178, Note_on_c, 0, 48, 60
1, 615215, Control_c, 0, 64, 40
1, 615229, Control_c, 0, 64, 38
1, 615244, Control_c, 0, 64, 38
1, 615250, Note_off_c, 0, 55, 62
1, 615258, Note_off_c, 0, 48, 62
1, 615274, Control_c, 0, 64, 37
1, 615288, Control_c, 0, 64, 36
1, 615306, Note_on_c, 0, 79, 64
1, 615333, Control_c, 0, 64, 36
1, 615355, Control_c, 0, 64, 35
1, 615370, Control_c, 0, 64, 35
1, 615385, Control_c, 0, 64, 34
1, 615411, Note_on_c, 0, 58, 72
1, 615417, Note_on_c, 0, 75, 63
1, 615429, Control_c, 0, 64, 34
1, 615444, Control_c, 0, 64, 32
1, 615459, Control_c, 0, 64, 31
1, 615473, Control_c, 0, 64, 30
1, 615518, Control_c, 0, 64, 29
1, 615527, Note_on_c, 0, 60, 77
1, 615527, Note_on_c, 0, 72, 60
1, 615533, Control_c, 0, 64, 28
1, 615548, Control_c, 0, 64, 27
1, 615551, Note_off_c, 0, 58, 60
1, 615551, Note_off_c, 0, 79, 44
1, 615563, Control_c, 0, 64, 26
1, 615584, Note_off_c, 0, 75, 61
1, 615601, Note_off_c, 0, 72, 65
1, 615622, Control_c, 0, 64, 26
1, 615659, Note_on_c, 0, 61, 80
1, 615666, Control_c, 0, 64, 24
1, 615681, Control_c, 0, 64, 23
1, 615694, Note_off_c, 0, 60, 62
1, 615696, Control_c, 0, 64, 22
1, 615742, Control_c, 0, 64, 25
1, 615756, Control_c, 0, 64, 26
1, 615771, Control_c, 0, 64, 28
1, 615774, Note_on_c, 0, 64, 64
1, 615786, Control_c, 0, 64, 31
1, 615801, Control_c, 0, 64, 34
1, 615816, Control_c, 0, 64, 38
1, 615831, Control_c, 0, 64, 42
1, 615845, Control_c, 0, 64, 43
1, 615860, Control_c, 0, 64, 44
1, 615885, Note_on_c, 0, 67, 55
1, 615889, Control_c, 0, 64, 45
1, 615904, Control_c, 0, 64, 45
1, 615919, Control_c, 0, 64, 46
1, 615945, Note_off_c, 0, 64, 55
1, 615983, Note_on_c, 0, 70, 66
1, 616008, Control_c, 0, 64, 46
1, 616033, Note_off_c, 0, 67, 61
1, 616042, Note_off_c, 0, 70, 64
1, 616123, Note_on_c, 0, 55, 65
1, 616208, Control_c, 0, 64, 46
1, 616216, Note_off_c, 0, 61, 56
1, 616223, Control_c, 0, 64, 47
1, 616230, Note_off_c, 0, 55, 64
1, 616230, Note_on_c, 0, 82, 66
1, 616252, Control_c, 0, 64, 47
1, 616267, Control_c, 0, 64, 48
1, 616282, Control_c, 0, 64, 48
1, 616311, Control_c, 0, 64, 49
1, 616326, Control_c, 0, 64, 49
1, 616341, Note_on_c, 0, 79, 64
1, 616341, Control_c, 0, 64, 50
1, 616342, Note_on_c, 0, 56, 63
1, 616356, Control_c, 0, 64, 51
1, 616371, Control_c, 0, 64, 52
1, 616400, Control_c, 0, 64, 53
1, 616430, Control_c, 0, 64, 53
1, 616445, Note_on_c, 0, 58, 77
1, 616445, Control_c, 0, 64, 54
1, 616459, Note_on_c, 0, 76, 63
1, 616459, Note_off_c, 0, 82, 55
1, 616460, Control_c, 0, 64, 55
1, 616475, Control_c, 0, 64, 55
1, 616483, Note_off_c, 0, 56, 59
1, 616490, Note_off_c, 0, 79, 59
1, 616523, Note_off_c, 0, 76, 65
1, 616564, Control_c, 0, 64, 54
1, 616566, Note_on_c, 0, 60, 83
1, 616579, Control_c, 0, 64, 52
1, 616594, Control_c, 0, 64, 48
1, 616605, Note_off_c, 0, 58, 62
1, 616609, Control_c, 0, 64, 39
1, 616624, Control_c, 0, 64, 26
1, 616639, Control_c, 0, 64, 15
1, 616668, Control_c, 0, 64, 20
1, 616678, Note_on_c, 0, 65, 74
1, 616683, Control_c, 0, 64, 25
1, 616698, Control_c, 0, 64, 29
1, 616712, Control_c, 0, 64, 34
1, 616727, Control_c, 0, 64, 41
1, 616742, Control_c, 0, 64, 49
1, 616757, Control_c, 0, 64, 56
1, 616772, Control_c, 0, 64, 59
1, 616785, Note_on_c, 0, 68, 72
1, 616786, Control_c, 0, 64, 61
1, 616801, Control_c, 0, 64, 62
1, 616816, Control_c, 0, 64, 64
1, 616839, Control_c, 0, 64, 65
1, 616844, Note_off_c, 0, 65, 54
1, 616854, Control_c, 0, 64, 67
1, 616868, Control_c, 0, 64, 69
1, 616883, Control_c, 0, 64, 70
1, 616898, Note_on_c, 0, 72, 64
1, 616898, Control_c, 0, 64, 71
1, 616913, Note_off_c, 0, 68, 65
1, 616960, Note_off_c, 0, 72, 66
1, 616988, Note_on_c, 0, 53, 58
1, 617025, Note_on_c, 0, 77, 70
1, 617032, Control_c, 0, 64, 70
1, 617047, Control_c, 0, 64, 70
1, 617062, Control_c, 0, 64, 69
1, 617076, Control_c, 0, 64, 68
1, 617091, Control_c, 0, 64, 67
1, 617106, Control_c, 0, 64, 66
1, 617120, Control_c, 0, 64, 65
1, 617127, Note_on_c, 0, 80, 81
1, 617135, Control_c, 0, 64, 64
1, 617150, Control_c, 0, 64, 62
1, 617160, Note_off_c, 0, 53, 60
1, 617165, Control_c, 0, 64, 61
1, 617180, Control_c, 0, 64, 60
1, 617194, Control_c, 0, 64, 58
1, 617209, Control_c, 0, 64, 58
1, 617224, Control_c, 0, 64, 57
1, 617226, Note_off_c, 0, 77, 34
1, 617238, Control_c, 0, 64, 56
1, 617243, Note_on_c, 0, 84, 82
1, 617253, Control_c, 0, 64, 55
1, 617268, Control_c, 0, 64, 53
1, 617281, Note_off_c, 0, 60, 55
1, 617283, Control_c, 0, 64, 53
1, 617292, Note_off_c, 0, 80, 61
1, 617298, Control_c, 0, 64, 52
1, 617329, Control_c, 0, 64, 52
1, 617358, Control_c, 0, 64, 51
1, 617367, Note_on_c, 0, 89, 89
1, 617422, Note_off_c, 0, 84, 60
1, 617504, Note_on_c, 0, 56, 49
1, 617509, Note_on_c, 0, 60, 43
1, 617521, Control_c, 0, 64, 52
1, 617551, Control_c, 0, 64, 52
1, 617566, Control_c, 0, 64, 53
1, 617579, Control_c, 0, 64, 53
1, 617616, Control_c, 0, 64, 54
1, 617631, Control_c, 0, 64, 55
1, 617646, Control_c, 0, 64, 56
1, 617661, Control_c, 0, 64, 57
1, 617720, Control_c, 0, 64, 57
1, 617735, Control_c, 0, 64, 58
1, 617735, Control_c, 0, 67, 12
1, 617746, Note_on_c, 0, 87, 71
1, 617747, Note_on_c, 0, 65, 47
1, 617749, Control_c, 0, 64, 59
1, 617749, Control_c, 0, 67, 17
1, 617764, Control_c, 0, 64, 59
1, 617764, Control_c, 0, 67, 24
1, 617779, Control_c, 0, 64, 60
1, 617779, Control_c, 0, 67, 30
1, 617794, Control_c, 0, 64, 61
1, 617794, Control_c, 0, 67, 35
1, 617809, Control_c, 0, 64, 62
1, 617809, Control_c, 0, 67, 39
1, 617823, Control_c, 0, 64, 63
1, 617823, Control_c, 0, 67, 43
1, 617829, Note_off_c, 0, 56, 54
1, 617836, Note_off_c, 0, 60, 35
1, 617838, Control_c, 0, 64, 64
1, 617838, Control_c, 0, 67, 49
1, 617853, Control_c, 0, 64, 64
1, 617853, Control_c, 0, 67, 56
1, 617867, Control_c, 0, 67, 63
1, 617882, Control_c, 0, 67, 70
1, 617897, Control_c, 0, 67, 78
1, 617912, Control_c, 0, 67, 86
1, 617927, Control_c, 0, 67, 93
1, 617941, Control_c, 0, 67, 99
1, 617956, Control_c, 0, 64, 64
1, 617956, Control_c, 0, 67, 104
1, 617971, Control_c, 0, 64, 63
1, 617971, Control_c, 0, 67, 108
1, 617984, Note_on_c, 0, 56, 43
1, 617986, Control_c, 0, 67, 113
1, 617988, Note_on_c, 0, 60, 36
1, 617991, Note_on_c, 0, 86, 67
1, 618001, Control_c, 0, 64, 63
1, 618001, Control_c, 0, 67, 118
1, 618007, Note_off_c, 0, 65, 51
1, 618016, Control_c, 0, 64, 62
1, 618016, Control_c, 0, 67, 122
1, 618031, Control_c, 0, 64, 62
1, 618031, Control_c, 0, 67, 124
1, 618046, Control_c, 0, 64, 61
1, 618046, Control_c, 0, 67, 126
1, 618052, Note_off_c, 0, 89, 30
1, 618061, Control_c, 0, 64, 60
1, 618061, Control_c, 0, 67, 127
1, 618075, Control_c, 0, 64, 59
1, 618086, Note_off_c, 0, 87, 53
1, 618090, Control_c, 0, 64, 58
1, 618105, Control_c, 0, 64, 55
1, 618120, Control_c, 0, 64, 53
1, 618135, Control_c, 0, 64, 51
1, 618150, Control_c, 0, 64, 48
1, 618165, Control_c, 0, 64, 44
1, 618180, Control_c, 0, 64, 38
1, 618195, Control_c, 0, 64, 32
1, 618209, Note_off_c, 0, 86, 58
1, 618210, Control_c, 0, 64, 26
1, 618223, Note_on_c, 0, 84, 60
1, 618225, Control_c, 0, 64, 19
1, 618231, Note_on_c, 0, 66, 45
1, 618239, Control_c, 0, 64, 0
1, 618356, Note_off_c, 0, 56, 35
1, 618414, Note_off_c, 0, 60, 30
1, 618448, Note_off_c, 0, 84, 60
1, 618460, Note_on_c, 0, 83, 56
1, 618475, Note_off_c, 0, 66, 36
1, 618490, Note_on_c, 0, 55, 37
1, 618503, Note_off_c, 0, 83, 63
1, 618733, Note_on_c, 0, 79, 54
1, 618734, Note_on_c, 0, 67, 40
1, 618735, Control_c, 0, 64, 22
1, 618750, Control_c, 0, 64, 43
1, 618764, Control_c, 0, 64, 53
1, 618779, Control_c, 0, 64, 58
1, 618788, Note_off_c, 0, 55, 41
1, 618794, Control_c, 0, 64, 60
1, 618809, Control_c, 0, 64, 61
1, 618854, Control_c, 0, 64, 61
1, 618869, Control_c, 0, 64, 62
1, 618883, Control_c, 0, 64, 62
1, 618973, Control_c, 0, 64, 62
1, 618977, Note_on_c, 0, 65, 41
1, 618988, Control_c, 0, 64, 61
1, 619035, Note_off_c, 0, 67, 36
1, 619047, Control_c, 0, 64, 61
1, 619053, Note_off_c, 0, 79, 59
1, 619062, Control_c, 0, 64, 62
1, 619077, Control_c, 0, 64, 63
1, 619099, Control_c, 0, 64, 64
1, 619113, Control_c, 0, 64, 65
1, 619128, Control_c, 0, 64, 65
1, 619214, Note_on_c, 0, 67, 34
1, 619220, Note_on_c, 0, 79, 47
1, 619381, Control_c, 0, 64, 65
1, 619395, Control_c, 0, 64, 64
1, 619410, Control_c, 0, 64, 62
1, 619425, Control_c, 0, 64, 58
1, 619439, Control_c, 0, 64, 55
1, 619445, Note_on_c, 0, 64, 41
1, 619447, Note_off_c, 0, 65, 37
1, 619469, Control_c, 0, 64, 56
1, 619484, Control_c, 0, 64, 58
1, 619496, Note_off_c, 0, 67, 42
1, 619498, Note_off_c, 0, 79, 53
1, 619499, Control_c, 0, 64, 61
1, 619513, Control_c, 0, 64, 64
1, 619528, Control_c, 0, 64, 65
1, 619543, Control_c, 0, 64, 67
1, 619548, Note_on_c, 0, 81, 55
1, 619558, Control_c, 0, 64, 68
1, 619667, Note_on_c, 0, 83, 59
1, 619668, Note_on_c, 0, 67, 48
1, 619694, Note_off_c, 0, 64, 35
1, 619696, Note_off_c, 0, 81, 51
1, 619727, Note_off_c, 0, 83, 59
1, 619736, Control_c, 0, 64, 68
1, 619778, Note_on_c, 0, 84, 60
1, 619781, Control_c, 0, 64, 67
1, 619810, Control_c, 0, 64, 67
1, 619825, Control_c, 0, 64, 66
1, 619847, Control_c, 0, 64, 66
1, 619861, Control_c, 0, 64, 64
1, 619876, Control_c, 0, 64, 61
1, 619879, Note_off_c, 0, 67, 37
1, 619891, Control_c, 0, 64, 53
1, 619900, Note_on_c, 0, 86, 65
1, 619904, Note_off_c, 0, 84, 64
1, 619906, Control_c, 0, 64, 34
1, 619921, Control_c, 0, 64, 0
1, 619927, Note_on_c, 0, 60, 48
1, 619951, Control_c, 0, 64, 12
1, 619966, Control_c, 0, 64, 30
1, 619980, Control_c, 0, 64, 47
1, 619995, Control_c, 0, 64, 59
1, 620007, Note_on_c, 0, 88, 56
1, 620010, Control_c, 0, 64, 63
1, 620025, Control_c, 0, 64, 65
1, 620040, Control_c, 0, 64, 65
1, 620055, Note_off_c, 0, 86, 57
1, 620055, Control_c, 0, 64, 66
1, 620069, Control_c, 0, 64, 67
1, 620083, Note_off_c, 0, 88, 61
1, 620084, Control_c, 0, 64, 69
1, 620099, Note_on_c, 0, 89, 60
1, 620099, Control_c, 0, 64, 71
1, 620114, Control_c, 0, 64, 74
1, 620118, Note_on_c, 0, 67, 38
1, 620127, Note_off_c, 0, 60, 60
1, 620129, Control_c, 0, 64, 77
1, 620143, Control_c, 0, 64, 79
1, 620158, Control_c, 0, 64, 79
1, 620173, Control_c, 0, 64, 80
1, 620188, Note_off_c, 0, 89, 57
1, 620203, Control_c, 0, 64, 80
1, 620207, Note_on_c, 0, 86, 59
1, 620229, Note_off_c, 0, 67, 41
1, 620306, Control_c, 0, 64, 79
1, 620321, Control_c, 0, 64, 74
1, 620329, Note_off_c, 0, 86, 49
1, 620335, Control_c, 0, 64, 67
1, 620350, Control_c, 0, 64, 60
1, 620362, Note_on_c, 0, 89, 68
1, 620365, Control_c, 0, 64, 52
1, 620380, Control_c, 0, 64, 51
1, 620394, Note_on_c, 0, 59, 36
1, 620395, Control_c, 0, 64, 56
1, 620410, Control_c, 0, 64, 60
1, 620425, Control_c, 0, 64, 63
1, 620439, Control_c, 0, 64, 65
1, 620454, Control_c, 0, 64, 67
1, 620469, Control_c, 0, 64, 67
1, 620483, Note_on_c, 0, 88, 70
1, 620484, Control_c, 0, 64, 68
1, 620499, Control_c, 0, 64, 70
1, 620514, Control_c, 0, 64, 73
1, 620529, Control_c, 0, 64, 77
1, 620535, Note_off_c, 0, 59, 40
1, 620540, Note_on_c, 0, 67, 51
1, 620544, Control_c, 0, 64, 81
1, 620559, Control_c, 0, 64, 84
1, 620574, Control_c, 0, 64, 87
1, 620587, Note_off_c, 0, 89, 32
1, 620590, Note_off_c, 0, 67, 59
1, 620597, Control_c, 0, 64, 87
1, 620603, Note_on_c, 0, 86, 67
1, 620626, Note_off_c, 0, 88, 54
1, 620693, Note_off_c, 0, 86, 58
1, 620701, Note_on_c, 0, 84, 69
1, 620750, Note_off_c, 0, 84, 52
1, 620760, Control_c, 0, 64, 86
1, 620774, Control_c, 0, 64, 83
1, 620789, Control_c, 0, 64, 77
1, 620804, Control_c, 0, 64, 70
1, 620818, Note_on_c, 0, 74, 57
1, 620819, Control_c, 0, 64, 64
1, 620828, Note_on_c, 0, 65, 47
1, 620831, Note_on_c, 0, 84, 47
1, 620833, Control_c, 0, 64, 55
1, 620848, Control_c, 0, 64, 43
1, 620863, Control_c, 0, 64, 32
1, 620878, Control_c, 0, 64, 31
1, 620893, Control_c, 0, 64, 33
1, 620907, Control_c, 0, 64, 38
1, 620922, Control_c, 0, 64, 46
1, 620925, Note_on_c, 0, 83, 64
1, 620937, Control_c, 0, 64, 55
1, 620943, Note_off_c, 0, 84, 56
1, 620952, Control_c, 0, 64, 60
1, 620967, Control_c, 0, 64, 63
1, 620982, Control_c, 0, 64, 64
1, 620997, Control_c, 0, 64, 65
1, 621003, Note_off_c, 0, 83, 59
1, 621012, Control_c, 0, 64, 66
1, 621027, Control_c, 0, 64, 67
1, 621033, Note_on_c, 0, 67, 51
1, 621041, Control_c, 0, 64, 68
1, 621042, Note_on_c, 0, 81, 63
1, 621056, Control_c, 0, 64, 69
1, 621071, Control_c, 0, 64, 70
1, 621080, Note_off_c, 0, 74, 59
1, 621084, Note_off_c, 0, 65, 31
1, 621085, Control_c, 0, 64, 71
1, 621093, Note_off_c, 0, 67, 60
1, 621147, Note_on_c, 0, 83, 58
1, 621157, Note_off_c, 0, 81, 59
1, 621203, Control_c, 0, 64, 70
1, 621218, Control_c, 0, 64, 69
1, 621233, Control_c, 0, 64, 67
1, 621244, Note_off_c, 0, 83, 50
1, 621248, Control_c, 0, 64, 64
1, 621259, Note_on_c, 0, 72, 55
1, 621259, Note_on_c, 0, 86, 71
1, 621263, Control_c, 0, 64, 56
1, 621273, Note_on_c, 0, 64, 40
1, 621277, Control_c, 0, 64, 48
1, 621292, Control_c, 0, 64, 47
1, 621308, Control_c, 0, 64, 49
1, 621323, Control_c, 0, 64, 54
1, 621346, Control_c, 0, 64, 59
1, 621361, Control_c, 0, 64, 63
1, 621375, Control_c, 0, 64, 66
1, 621377, Note_on_c, 0, 84, 69
1, 621390, Control_c, 0, 64, 67
1, 621405, Control_c, 0, 64, 68
1, 621420, Control_c, 0, 64, 69
1, 621435, Control_c, 0, 64, 70
1, 621438, Note_off_c, 0, 86, 53
1, 621450, Control_c, 0, 64, 71
1, 621464, Control_c, 0, 64, 72
1, 621479, Control_c, 0, 64, 72
1, 621483, Note_off_c, 0, 64, 36
1, 621485, Note_on_c, 0, 83, 68
1, 621486, Note_on_c, 0, 67, 50
1, 621490, Note_off_c, 0, 84, 62
1, 621494, Control_c, 0, 64, 73
1, 621544, Note_off_c, 0, 83, 60
1, 621557, Note_off_c, 0, 72, 46
1, 621566, Note_off_c, 0, 67, 59
1, 621594, Note_on_c, 0, 81, 65
1, 621642, Control_c, 0, 64, 72
1, 621657, Control_c, 0, 64, 72
1, 621671, Control_c, 0, 64, 70
1, 621686, Control_c, 0, 64, 68
1, 621701, Control_c, 0, 64, 66
1, 621703, Note_off_c, 0, 81, 39
1, 621713, Note_on_c, 0, 77, 64
1, 621714, Note_on_c, 0, 59, 50
1, 621715, Control_c, 0, 64, 63
1, 621719, Note_on_c, 0, 79, 56
1, 621730, Control_c, 0, 64, 59
1, 621745, Note_off_c, 0, 77, 63
1, 621745, Control_c, 0, 64, 51
1, 621753, Note_off_c, 0, 79, 62
1, 621760, Control_c, 0, 64, 46
1, 621775, Control_c, 0, 64, 45
1, 621820, Control_c, 0, 64, 45
1, 621849, Control_c, 0, 64, 46
1, 621864, Control_c, 0, 64, 47
1, 621879, Control_c, 0, 64, 48
1, 621894, Control_c, 0, 64, 49
1, 621938, Control_c, 0, 64, 48
1, 621939, Note_on_c, 0, 79, 63
1, 621939, Note_off_c, 0, 59, 57
1, 621948, Note_on_c, 0, 77, 60
1, 621954, Note_on_c, 0, 67, 49
1, 621975, Note_off_c, 0, 77, 65
1, 621982, Note_off_c, 0, 79, 59
1, 621982, Control_c, 0, 64, 48
1, 621997, Control_c, 0, 64, 47
1, 622012, Control_c, 0, 64, 47
1, 622026, Control_c, 0, 64, 46
1, 622041, Control_c, 0, 64, 45
1, 622056, Control_c, 0, 64, 44
1, 622071, Control_c, 0, 64, 44
1, 622094, Control_c, 0, 64, 43
1, 622109, Control_c, 0, 64, 42
1, 622124, Control_c, 0, 64, 40
1, 622139, Control_c, 0, 64, 38
1, 622153, Control_c, 0, 64, 36
1, 622168, Control_c, 0, 64, 36
1, 622179, Note_on_c, 0, 60, 45
1, 622192, Note_on_c, 0, 79, 62
1, 622198, Control_c, 0, 64, 35
1, 622200, Note_on_c, 0, 77, 63
1, 622212, Note_off_c, 0, 67, 35
1, 622213, Control_c, 0, 64, 35
1, 622228, Control_c, 0, 64, 34
1, 622243, Control_c, 0, 64, 34
1, 622287, Control_c, 0, 64, 34
1, 622302, Control_c, 0, 64, 36
1, 622303, Note_on_c, 0, 76, 67
1, 622317, Control_c, 0, 64, 40
1, 622331, Control_c, 0, 64, 46
1, 622346, Control_c, 0, 64, 54
1, 622361, Control_c, 0, 64, 59
1, 622376, Control_c, 0, 64, 61
1, 622387, Note_off_c, 0, 77, 36
1, 622391, Control_c, 0, 64, 62
1, 622405, Control_c, 0, 64, 63
1, 622408, Note_on_c, 0, 67, 39
1, 622413, Note_on_c, 0, 74, 68
1, 622420, Control_c, 0, 64, 64
1, 622429, Note_off_c, 0, 76, 52
1, 622435, Control_c, 0, 64, 64
1, 622450, Control_c, 0, 64, 65
1, 622491, Note_off_c, 0, 74, 63
1, 622498, Note_on_c, 0, 72, 63
1, 622509, Control_c, 0, 64, 65
1, 622541, Note_off_c, 0, 72, 50
1, 622568, Control_c, 0, 64, 65
1, 622583, Control_c, 0, 64, 64
1, 622598, Control_c, 0, 64, 63
1, 622610, Note_off_c, 0, 67, 57
1, 622613, Control_c, 0, 64, 62
1, 622616, Note_off_c, 0, 60, 30
1, 622620, Note_on_c, 0, 65, 54
1, 622627, Control_c, 0, 64, 58
1, 622629, Note_on_c, 0, 72, 64
1, 622642, Control_c, 0, 64, 51
1, 622657, Control_c, 0, 64, 43
1, 622672, Control_c, 0, 64, 41
1, 622687, Control_c, 0, 64, 41
1, 622702, Control_c, 0, 64, 42
1, 622717, Control_c, 0, 64, 44
1, 622717, Note_on_c, 0, 71, 69
1, 622731, Control_c, 0, 64, 47
1, 622746, Control_c, 0, 64, 52
1, 622761, Control_c, 0, 64, 57
1, 622776, Control_c, 0, 64, 60
1, 622791, Control_c, 0, 64, 62
1, 622805, Note_off_c, 0, 71, 57
1, 622805, Control_c, 0, 64, 63
1, 622819, Note_on_c, 0, 67, 44
1, 622819, Note_off_c, 0, 72, 35
1, 622820, Control_c, 0, 64, 64
1, 622823, Note_on_c, 0, 69, 59
1, 622842, Control_c, 0, 64, 65
1, 622857, Control_c, 0, 64, 67
1, 622863, Note_off_c, 0, 65, 61
1, 622872, Control_c, 0, 64, 67
1, 622915, Note_off_c, 0, 69, 64
1, 622942, Note_on_c, 0, 71, 59
1, 623006, Control_c, 0, 64, 67
1, 623008, Note_off_c, 0, 71, 64
1, 623021, Control_c, 0, 64, 66
1, 623029, Note_off_c, 0, 67, 46
1, 623036, Control_c, 0, 64, 65
1, 623040, Note_off_c, 0, 79, 57
1, 623051, Control_c, 0, 64, 63
1, 623066, Control_c, 0, 64, 60
1, 623069, Note_on_c, 0, 64, 46
1, 623072, Note_on_c, 0, 72, 58
1, 623080, Control_c, 0, 64, 54
1, 623095, Control_c, 0, 64, 46
1, 623110, Control_c, 0, 64, 35
1, 623125, Control_c, 0, 64, 22
1, 623140, Control_c, 0, 64, 0
1, 623165, Note_on_c, 0, 81, 68
1, 623214, Control_c, 0, 64, 17
1, 623228, Control_c, 0, 64, 30
1, 623243, Control_c, 0, 64, 45
1, 623258, Control_c, 0, 64, 56
1, 623273, Control_c, 0, 64, 61
1, 623274, Note_off_c, 0, 81, 61
1, 623277, Note_on_c, 0, 67, 52
1, 623280, Note_on_c, 0, 83, 70
1, 623287, Control_c, 0, 64, 62
1, 623300, Note_off_c, 0, 64, 57
1, 623302, Control_c, 0, 64, 63
1, 623317, Control_c, 0, 64, 64
1, 623328, Note_off_c, 0, 72, 55
1, 623332, Control_c, 0, 64, 64
1, 623361, Control_c, 0, 64, 65
1, 623396, Note_on_c, 0, 84, 71
1, 623425, Note_off_c, 0, 83, 58
1, 623450, Control_c, 0, 64, 64
1, 623457, Note_off_c, 0, 84, 62
1, 623465, Control_c, 0, 64, 63
1, 623480, Control_c, 0, 64, 62
1, 623495, Control_c, 0, 64, 59
1, 623498, Note_on_c, 0, 59, 53
1, 623498, Note_off_c, 0, 67, 52
1, 623502, Note_on_c, 0, 86, 71
1, 623510, Control_c, 0, 64, 54
1, 623525, Control_c, 0, 64, 44
1, 623540, Control_c, 0, 64, 32
1, 623569, Control_c, 0, 64, 36
1, 623591, Control_c, 0, 64, 44
1, 623606, Control_c, 0, 64, 53
1, 623620, Control_c, 0, 64, 60
1, 623629, Note_on_c, 0, 88, 75
1, 623632, Note_off_c, 0, 86, 60
1, 623635, Control_c, 0, 64, 63
1, 623650, Control_c, 0, 64, 64
1, 623665, Control_c, 0, 64, 64
1, 623680, Control_c, 0, 64, 65
1, 623695, Control_c, 0, 64, 65
1, 623710, Control_c, 0, 64, 66
1, 623719, Note_off_c, 0, 59, 59
1, 623721, Note_on_c, 0, 89, 76
1, 623727, Note_on_c, 0, 67, 58
1, 623740, Control_c, 0, 64, 66
1, 623752, Note_off_c, 0, 88, 59
1, 623817, Note_off_c, 0, 89, 63
1, 623830, Note_on_c, 0, 86, 73
1, 623873, Control_c, 0, 64, 66
1, 623888, Control_c, 0, 64, 65
1, 623903, Control_c, 0, 64, 64
1, 623918, Control_c, 0, 64, 60
1, 623933, Control_c, 0, 64, 47
1, 623944, Note_on_c, 0, 89, 78
1, 623948, Control_c, 0, 64, 21
1, 623951, Note_on_c, 0, 60, 61
1, 623962, Note_off_c, 0, 86, 60
1, 623963, Control_c, 0, 64, 0
1, 623977, Control_c, 0, 64, 15
1, 623992, Control_c, 0, 64, 31
1, 624007, Control_c, 0, 64, 47
1, 624022, Control_c, 0, 64, 59
1, 624027, Note_off_c, 0, 67, 36
1, 624036, Control_c, 0, 64, 64
1, 624051, Control_c, 0, 64, 66
1, 624065, Note_on_c, 0, 88, 76
1, 624066, Control_c, 0, 64, 67
1, 624096, Control_c, 0, 64, 68
1, 624110, Control_c, 0, 64, 70
1, 624125, Control_c, 0, 64, 73
1, 624140, Control_c, 0, 64, 75
1, 624155, Control_c, 0, 64, 76
1, 624157, Note_off_c, 0, 89, 54
1, 624161, Note_on_c, 0, 67, 44
1, 624170, Control_c, 0, 64, 76
1, 624172, Note_on_c, 0, 86, 83
1, 624181, Note_off_c, 0, 60, 54
1, 624205, Note_off_c, 0, 88, 60
1, 624267, Note_off_c, 0, 86, 61
1, 624269, Note_off_c, 0, 67, 60
1, 624282, Note_on_c, 0, 84, 71
1, 624340, Control_c, 0, 64, 76
1, 624355, Control_c, 0, 64, 73
1, 624370, Control_c, 0, 64, 69
1, 624384, Control_c, 0, 64, 63
1, 624393, Note_on_c, 0, 83, 77
1, 624395, Note_on_c, 0, 64, 68
1, 624399, Control_c, 0, 64, 54
1, 624403, Note_on_c, 0, 72, 63
1, 624407, Note_off_c, 0, 84, 62
1, 624414, Control_c, 0, 64, 38
1, 624429, Control_c, 0, 64, 32
1, 624443, Control_c, 0, 64, 35
1, 624458, Control_c, 0, 64, 41
1, 624473, Control_c, 0, 64, 51
1, 624488, Control_c, 0, 64, 60
1, 624504, Control_c, 0, 64, 65
1, 624517, Note_on_c, 0, 84, 73
1, 624519, Control_c, 0, 64, 67
1, 624533, Control_c, 0, 64, 70
1, 624548, Control_c, 0, 64, 71
1, 624562, Note_off_c, 0, 83, 56
1, 624563, Control_c, 0, 64, 73
1, 624578, Control_c, 0, 64, 75
1, 624593, Control_c, 0, 64, 76
1, 624602, Note_on_c, 0, 67, 52
1, 624606, Note_on_c, 0, 88, 74
1, 624607, Control_c, 0, 64, 77
1, 624622, Control_c, 0, 64, 77
1, 624637, Control_c, 0, 64, 78
1, 624641, Note_off_c, 0, 84, 59
1, 624660, Note_off_c, 0, 72, 55
1, 624666, Control_c, 0, 64, 78
1, 624674, Note_off_c, 0, 64, 59
1, 624715, Note_on_c, 0, 84, 76
1, 624754, Note_off_c, 0, 67, 57
1, 624791, Note_off_c, 0, 88, 51
1, 624800, Control_c, 0, 64, 77
1, 624815, Control_c, 0, 64, 70
1, 624825, Note_on_c, 0, 83, 84
1, 624830, Control_c, 0, 64, 63
1, 624836, Note_on_c, 0, 65, 70
1, 624844, Note_on_c, 0, 72, 76
1, 624845, Control_c, 0, 64, 45
1, 624853, Note_off_c, 0, 84, 62
1, 624859, Control_c, 0, 64, 19
1, 624874, Control_c, 0, 64, 27
1, 624889, Control_c, 0, 64, 43
1, 624904, Control_c, 0, 64, 56
1, 624919, Control_c, 0, 64, 62
1, 624933, Control_c, 0, 64, 64
1, 624933, Control_c, 0, 67, 110
1, 624938, Note_on_c, 0, 81, 83
1, 624948, Control_c, 0, 64, 64
1, 624948, Control_c, 0, 67, 80
1, 624963, Control_c, 0, 64, 65
1, 624963, Control_c, 0, 67, 45
1, 624973, Note_off_c, 0, 83, 58
1, 624978, Control_c, 0, 64, 66
1, 624978, Control_c, 0, 67, 17
1, 624993, Control_c, 0, 64, 67
1, 624993, Control_c, 0, 67, 0
1, 625007, Control_c, 0, 64, 68
1, 625022, Control_c, 0, 64, 70
1, 625037, Control_c, 0, 64, 71
1, 625051, Control_c, 0, 64, 72
1, 625056, Note_on_c, 0, 84, 82
1, 625066, Control_c, 0, 64, 72
1, 625082, Note_on_c, 0, 69, 65
1, 625089, Note_off_c, 0, 81, 59
1, 625106, Note_off_c, 0, 65, 51
1, 625110, Note_off_c, 0, 72, 40
1, 625159, Note_off_c, 0, 84, 60
1, 625161, Note_on_c, 0, 81, 79
1, 625177, Control_c, 0, 64, 73
1, 625192, Control_c, 0, 64, 73
1, 625237, Control_c, 0, 64, 72
1, 625251, Control_c, 0, 64, 67
1, 625266, Control_c, 0, 64, 60
1, 625281, Control_c, 0, 64, 10
1, 625287, Note_on_c, 0, 79, 85
1, 625288, Note_on_c, 0, 73, 69
1, 625294, Note_on_c, 0, 65, 67
1, 625296, Control_c, 0, 64, 0
1, 625308, Note_off_c, 0, 69, 54
1, 625322, Note_off_c, 0, 81, 59
1, 625342, Control_c, 0, 64, 30
1, 625356, Control_c, 0, 64, 56
1, 625371, Control_c, 0, 64, 64
1, 625386, Control_c, 0, 64, 66
1, 625391, Note_on_c, 0, 77, 86
1, 625416, Control_c, 0, 64, 66
1, 625430, Control_c, 0, 64, 67
1, 625432, Note_off_c, 0, 79, 61
1, 625445, Control_c, 0, 64, 69
1, 625460, Control_c, 0, 64, 73
1, 625474, Control_c, 0, 64, 75
1, 625498, Note_on_c, 0, 69, 68
1, 625504, Note_on_c, 0, 81, 87
1, 625533, Note_off_c, 0, 77, 62
1, 625534, Control_c, 0, 64, 76
1, 625573, Note_off_c, 0, 65, 30
1, 625580, Note_off_c, 0, 73, 36
1, 625604, Note_on_c, 0, 77, 77
1, 625606, Note_off_c, 0, 81, 55
1, 625623, Note_off_c, 0, 69, 51
1, 625697, Control_c, 0, 64, 75
1, 625712, Control_c, 0, 64, 70
1, 625715, Note_on_c, 0, 76, 88
1, 625724, Note_on_c, 0, 74, 63
1, 625725, Note_on_c, 0, 65, 64
1, 625727, Control_c, 0, 64, 61
1, 625728, Note_off_c, 0, 77, 62
1, 625742, Control_c, 0, 64, 10
1, 625756, Control_c, 0, 64, 0
1, 625800, Control_c, 0, 64, 23
1, 625815, Control_c, 0, 64, 58
1, 625838, Control_c, 0, 64, 64
1, 625849, Note_off_c, 0, 76, 64
1, 625853, Control_c, 0, 64, 66
1, 625868, Control_c, 0, 64, 66
1, 625882, Control_c, 0, 64, 67
1, 625897, Control_c, 0, 64, 70
1, 625912, Control_c, 0, 64, 73
1, 625927, Control_c, 0, 64, 76
1, 625935, Note_on_c, 0, 77, 86
1, 625942, Control_c, 0, 64, 77
1, 625951, Note_on_c, 0, 69, 67
1, 625952, Note_off_c, 0, 74, 65
1, 625968, Note_off_c, 0, 65, 53
1, 625971, Control_c, 0, 64, 78
1, 625986, Control_c, 0, 64, 79
1, 626040, Note_on_c, 0, 74, 80
1, 626080, Note_off_c, 0, 77, 59
1, 626165, Note_on_c, 0, 81, 90
1, 626165, Control_c, 0, 64, 76
1, 626176, Note_on_c, 0, 65, 71
1, 626179, Control_c, 0, 64, 69
1, 626194, Control_c, 0, 64, 60
1, 626199, Note_off_c, 0, 74, 63
1, 626209, Note_off_c, 0, 69, 39
1, 626209, Control_c, 0, 64, 14
1, 626223, Control_c, 0, 64, 0
1, 626275, Note_on_c, 0, 77, 79
1, 626298, Control_c, 0, 64, 32
1, 626298, Control_c, 0, 67, 27
1, 626312, Control_c, 0, 64, 55
1, 626312, Control_c, 0, 67, 49
1, 626326, Note_off_c, 0, 81, 56
1, 626327, Control_c, 0, 64, 60
1, 626327, Control_c, 0, 67, 69
1, 626342, Control_c, 0, 67, 86
1, 626357, Control_c, 0, 64, 60
1, 626357, Control_c, 0, 67, 100
1, 626371, Control_c, 0, 64, 61
1, 626371, Control_c, 0, 67, 113
1, 626385, Note_on_c, 0, 74, 72
1, 626386, Control_c, 0, 64, 63
1, 626386, Control_c, 0, 67, 121
1, 626401, Note_on_c, 0, 66, 68
1, 626401, Control_c, 0, 64, 64
1, 626401, Control_c, 0, 67, 125
1, 626404, Note_off_c, 0, 77, 59
1, 626416, Control_c, 0, 64, 65
1, 626416, Control_c, 0, 67, 127
1, 626431, Control_c, 0, 64, 65
1, 626431, Note_off_c, 0, 65, 59
1, 626464, Note_off_c, 0, 74, 63
1, 626472, Note_off_c, 0, 66, 64
1, 626479, Note_on_c, 0, 72, 71
1, 626587, Note_off_c, 0, 72, 61
1, 626601, Control_c, 0, 64, 65
1, 626613, Note_on_c, 0, 71, 67
1, 626616, Control_c, 0, 64, 62
1, 626618, Note_on_c, 0, 67, 67
1, 626631, Control_c, 0, 64, 53
1, 626639, Note_off_c, 0, 67, 66
1, 626646, Control_c, 0, 64, 0
1, 626694, Note_off_c, 0, 71, 57
1, 626696, Note_on_c, 0, 67, 60
1, 626716, Note_off_c, 0, 67, 64
1, 626762, Note_on_c, 0, 69, 76
1, 626822, Note_off_c, 0, 69, 63
1, 626828, Note_on_c, 0, 71, 73
1, 626895, Note_on_c, 0, 69, 71
1, 626904, Note_off_c, 0, 71, 60
1, 626953, Note_off_c, 0, 69, 65
1, 626964, Note_on_c, 0, 67, 72
1, 627033, Note_off_c, 0, 67, 59
1, 627045, Note_on_c, 0, 72, 84
1, 627129, Note_on_c, 0, 62, 61
1, 627165, Control_c, 0, 64, 30
1, 627167, Note_off_c, 0, 62, 62
1, 627180, Control_c, 0, 64, 37
1, 627195, Control_c, 0, 64, 38
1, 627198, Note_on_c, 0, 64, 61
1, 627209, Control_c, 0, 64, 39
1, 627224, Control_c, 0, 64, 43
1, 627239, Control_c, 0, 64, 48
1, 627254, Control_c, 0, 64, 54
1, 627264, Note_off_c, 0, 64, 64
1, 627269, Control_c, 0, 64, 56
1, 627273, Note_on_c, 0, 66, 65
1, 627284, Control_c, 0, 64, 58
1, 627299, Control_c, 0, 64, 58
1, 627314, Control_c, 0, 64, 60
1, 627336, Control_c, 0, 64, 61
1, 627351, Control_c, 0, 64, 61
1, 627352, Note_on_c, 0, 64, 63
1, 627366, Control_c, 0, 64, 62
1, 627378, Note_off_c, 0, 66, 52
1, 627396, Control_c, 0, 64, 62
1, 627425, Control_c, 0, 64, 63
1, 627427, Note_on_c, 0, 62, 62
1, 627431, Note_off_c, 0, 64, 63
1, 627469, Control_c, 0, 64, 62
1, 627484, Control_c, 0, 64, 61
1, 627489, Note_off_c, 0, 62, 62
1, 627491, Note_off_c, 0, 72, 59
1, 627493, Note_on_c, 0, 67, 79
1, 627495, Note_on_c, 0, 71, 69
1, 627499, Control_c, 0, 64, 57
1, 627511, Note_off_c, 0, 67, 71
1, 627514, Control_c, 0, 64, 49
1, 627528, Control_c, 0, 64, 34
1, 627543, Control_c, 0, 64, 0
1, 627559, Note_on_c, 0, 67, 65
1, 627568, Note_off_c, 0, 71, 60
1, 627603, Control_c, 0, 64, 24
1, 627615, Note_off_c, 0, 67, 63
1, 627617, Control_c, 0, 64, 40
1, 627632, Control_c, 0, 64, 50
1, 627633, Note_on_c, 0, 69, 71
1, 627647, Control_c, 0, 64, 54
1, 627647, Control_c, 0, 67, 126
1, 627662, Control_c, 0, 64, 55
1, 627662, Control_c, 0, 67, 103
1, 627677, Control_c, 0, 67, 69
1, 627690, Note_off_c, 0, 69, 62
1, 627692, Control_c, 0, 67, 22
1, 627699, Note_on_c, 0, 71, 70
1, 627707, Control_c, 0, 64, 56
1, 627707, Control_c, 0, 67, 0
1, 627722, Control_c, 0, 64, 57
1, 627752, Control_c, 0, 64, 56
1, 627758, Note_on_c, 0, 69, 70
1, 627773, Note_off_c, 0, 71, 61
1, 627796, Control_c, 0, 64, 56
1, 627813, Note_on_c, 0, 67, 73
1, 627820, Note_off_c, 0, 69, 66
1, 627826, Control_c, 0, 64, 55
1, 627841, Control_c, 0, 64, 54
1, 627856, Control_c, 0, 64, 53
1, 627870, Control_c, 0, 64, 51
1, 627885, Control_c, 0, 64, 49
1, 627900, Control_c, 0, 64, 48
1, 627903, Note_on_c, 0, 72, 89
1, 627904, Note_off_c, 0, 67, 55
1, 627915, Control_c, 0, 64, 49
1, 627930, Control_c, 0, 64, 51
1, 627944, Control_c, 0, 64, 54
1, 627959, Control_c, 0, 64, 58
1, 627974, Note_on_c, 0, 62, 66
1, 627974, Control_c, 0, 64, 61
1, 627989, Control_c, 0, 64, 62
1, 628003, Control_c, 0, 64, 63
1, 628026, Note_off_c, 0, 62, 63
1, 628033, Control_c, 0, 64, 64
1, 628048, Control_c, 0, 64, 64
1, 628050, Note_on_c, 0, 64, 75
1, 628062, Control_c, 0, 64, 65
1, 628129, Note_on_c, 0, 66, 79
1, 628150, Note_off_c, 0, 64, 63
1, 628185, Note_on_c, 0, 64, 56
1, 628202, Control_c, 0, 64, 66
1, 628264, Note_on_c, 0, 62, 70
1, 628269, Note_off_c, 0, 66, 39
1, 628281, Note_off_c, 0, 64, 64
1, 628309, Note_off_c, 0, 72, 56
1, 628321, Control_c, 0, 64, 65
1, 628327, Note_off_c, 0, 62, 62
1, 628328, Note_on_c, 0, 67, 84
1, 628331, Note_on_c, 0, 71, 82
1, 628336, Control_c, 0, 64, 64
1, 628349, Note_off_c, 0, 67, 67
1, 628351, Control_c, 0, 64, 63
1, 628366, Control_c, 0, 64, 60
1, 628381, Control_c, 0, 64, 55
1, 628395, Control_c, 0, 64, 46
1, 628403, Note_on_c, 0, 67, 75
1, 628410, Control_c, 0, 64, 33
1, 628413, Note_off_c, 0, 71, 61
1, 628425, Control_c, 0, 64, 28
1, 628440, Control_c, 0, 64, 29
1, 628455, Control_c, 0, 64, 31
1, 628458, Note_off_c, 0, 67, 62
1, 628469, Control_c, 0, 64, 32
1, 628474, Note_on_c, 0, 69, 75
1, 628484, Control_c, 0, 64, 31
1, 628515, Control_c, 0, 64, 32
1, 628520, Note_off_c, 0, 69, 44
1, 628530, Control_c, 0, 64, 34
1, 628530, Note_on_c, 0, 71, 76
1, 628545, Control_c, 0, 64, 38
1, 628559, Control_c, 0, 64, 41
1, 628574, Control_c, 0, 64, 42
1, 628589, Control_c, 0, 64, 43
1, 628590, Note_on_c, 0, 69, 75
1, 628600, Note_off_c, 0, 71, 61
1, 628604, Control_c, 0, 64, 44
1, 628618, Control_c, 0, 64, 47
1, 628633, Control_c, 0, 64, 50
1, 628643, Note_on_c, 0, 67, 79
1, 628643, Note_off_c, 0, 69, 67
1, 628648, Control_c, 0, 64, 53
1, 628663, Control_c, 0, 64, 54
1, 628678, Control_c, 0, 64, 55
1, 628692, Control_c, 0, 64, 55
1, 628695, Note_off_c, 0, 67, 63
1, 628707, Control_c, 0, 64, 55
1, 628722, Control_c, 0, 64, 51
1, 628736, Note_on_c, 0, 67, 77
1, 628736, Note_on_c, 0, 74, 87
1, 628737, Control_c, 0, 64, 36
1, 628752, Control_c, 0, 64, 0
1, 628825, Note_on_c, 0, 71, 85
1, 628831, Note_off_c, 0, 74, 65
1, 628845, Note_off_c, 0, 67, 39
1, 628863, Control_c, 0, 64, 20
1, 628873, Note_off_c, 0, 71, 63
1, 628878, Control_c, 0, 64, 23
1, 628893, Control_c, 0, 64, 24
1, 628896, Note_on_c, 0, 72, 82
1, 628907, Control_c, 0, 64, 31
1, 628922, Control_c, 0, 64, 39
1, 628937, Control_c, 0, 64, 48
1, 628952, Control_c, 0, 64, 56
1, 628957, Note_off_c, 0, 72, 61
1, 628959, Note_on_c, 0, 74, 77
1, 628967, Control_c, 0, 64, 58
1, 628996, Control_c, 0, 64, 59
1, 629027, Note_on_c, 0, 72, 73
1, 629033, Note_off_c, 0, 74, 64
1, 629070, Control_c, 0, 64, 58
1, 629079, Note_off_c, 0, 72, 66
1, 629085, Control_c, 0, 64, 59
1, 629087, Note_on_c, 0, 71, 71
1, 629099, Control_c, 0, 64, 60
1, 629114, Control_c, 0, 64, 61
1, 629129, Control_c, 0, 64, 62
1, 629158, Note_off_c, 0, 71, 61
1, 629169, Note_on_c, 0, 77, 90
1, 629174, Control_c, 0, 64, 58
1, 629179, Note_on_c, 0, 65, 84
1, 629188, Note_on_c, 0, 59, 70
1, 629188, Control_c, 0, 64, 43
1, 629189, Note_on_c, 0, 55, 69
1, 629191, Note_on_c, 0, 62, 72
1, 629203, Control_c, 0, 64, 0
1, 629242, Note_on_c, 0, 76, 78
1, 629311, Note_on_c, 0, 74, 80
1, 629317, Note_off_c, 0, 77, 59
1, 629327, Note_off_c, 0, 76, 64
1, 629373, Note_off_c, 0, 74, 63
1, 629373, Note_on_c, 0, 72, 83
1, 629382, Control_c, 0, 64, 8
1, 629397, Control_c, 0, 64, 14
1, 629399, Note_off_c, 0, 65, 38
1, 629412, Control_c, 0, 64, 17
1, 629427, Control_c, 0, 64, 18
1, 629441, Control_c, 0, 64, 19
1, 629453, Note_on_c, 0, 71, 80
1, 629454, Note_off_c, 0, 72, 63
1, 629471, Control_c, 0, 64, 15
1, 629486, Control_c, 0, 64, 10
1, 629501, Control_c, 0, 64, 0
1, 629516, Note_on_c, 0, 69, 83
1, 629536, Note_off_c, 0, 71, 60
1, 629584, Note_off_c, 0, 69, 65
1, 629594, Note_on_c, 0, 67, 81
1, 629627, Note_off_c, 0, 62, 50
1, 629641, Note_off_c, 0, 55, 62
1, 629648, Note_off_c, 0, 67, 61
1, 629659, Note_on_c, 0, 69, 78
1, 629660, Note_off_c, 0, 59, 59
1, 629716, Control_c, 0, 67, 9
1, 629730, Control_c, 0, 67, 19
1, 629738, Note_on_c, 0, 67, 74
1, 629745, Control_c, 0, 67, 28
1, 629760, Note_off_c, 0, 69, 56
1, 629760, Control_c, 0, 67, 36
1, 629774, Control_c, 0, 67, 41
1, 629789, Note_on_c, 0, 65, 78
1, 629789, Control_c, 0, 67, 44
1, 629803, Note_off_c, 0, 67, 62
1, 629804, Control_c, 0, 67, 45
1, 629834, Control_c, 0, 67, 45
1, 629841, Note_off_c, 0, 65, 62
1, 629848, Control_c, 0, 67, 44
1, 629865, Note_on_c, 0, 64, 70
1, 629878, Control_c, 0, 67, 43
1, 629908, Control_c, 0, 67, 43
1, 629922, Note_off_c, 0, 64, 62
1, 629943, Note_on_c, 0, 62, 73
1, 629952, Control_c, 0, 67, 42
1, 629996, Control_c, 0, 67, 43
1, 630002, Note_off_c, 0, 62, 61
1, 630005, Note_on_c, 0, 64, 73
1, 630007, Note_on_c, 0, 60, 71
1, 630011, Control_c, 0, 67, 44
1, 630026, Control_c, 0, 64, 15
1, 630026, Control_c, 0, 67, 45
1, 630032, Note_off_c, 0, 60, 68
1, 630041, Control_c, 0, 64, 30
1, 630041, Control_c, 0, 67, 47
1, 630056, Control_c, 0, 64, 41
1, 630056, Control_c, 0, 67, 50
1, 630071, Control_c, 0, 64, 46
1, 630071, Control_c, 0, 67, 54
1, 630086, Control_c, 0, 64, 49
1, 630086, Control_c, 0, 67, 58
1, 630088, Note_on_c, 0, 60, 59
1, 630088, Note_off_c, 0, 64, 62
1, 630101, Control_c, 0, 67, 61
1, 630115, Note_off_c, 0, 60, 57
1, 630139, Note_on_c, 0, 62, 73
1, 630145, Control_c, 0, 64, 49
1, 630145, Control_c, 0, 67, 60
1, 630160, Control_c, 0, 64, 48
1, 630160, Control_c, 0, 67, 58
1, 630175, Control_c, 0, 64, 47
1, 630175, Control_c, 0, 67, 55
1, 630190, Control_c, 0, 64, 46
1, 630190, Control_c, 0, 67, 53
1, 630194, Note_off_c, 0, 62, 60
1, 630205, Control_c, 0, 64, 45
1, 630205, Control_c, 0, 67, 51
1, 630212, Note_on_c, 0, 64, 70
1, 630220, Control_c, 0, 64, 44
1, 630220, Control_c, 0, 67, 47
1, 630235, Control_c, 0, 64, 43
1, 630235, Control_c, 0, 67, 43
1, 630250, Control_c, 0, 64, 41
1, 630250, Control_c, 0, 67, 36
1, 630264, Control_c, 0, 64, 38
1, 630264, Control_c, 0, 67, 27
1, 630274, Note_off_c, 0, 64, 64
1, 630279, Control_c, 0, 64, 32
1, 630279, Control_c, 0, 67, 14
1, 630282, Note_on_c, 0, 62, 65
1, 630294, Control_c, 0, 64, 23
1, 630294, Control_c, 0, 67, 0
1, 630308, Control_c, 0, 64, 0
1, 630340, Note_off_c, 0, 62, 60
1, 630342, Note_on_c, 0, 60, 66
1, 630400, Note_off_c, 0, 60, 56
1, 630421, Note_on_c, 0, 65, 84
1, 630499, Note_on_c, 0, 55, 56
1, 630538, Control_c, 0, 64, 42
1, 630551, Note_off_c, 0, 55, 63
1, 630552, Control_c, 0, 64, 53
1, 630567, Control_c, 0, 64, 60
1, 630573, Note_on_c, 0, 57, 73
1, 630582, Control_c, 0, 64, 63
1, 630596, Control_c, 0, 64, 63
1, 630626, Control_c, 0, 64, 64
1, 630641, Control_c, 0, 64, 65
1, 630651, Note_on_c, 0, 59, 77
1, 630651, Note_off_c, 0, 57, 56
1, 630656, Control_c, 0, 64, 66
1, 630670, Control_c, 0, 64, 67
1, 630672, Note_off_c, 0, 65, 63
1, 630685, Control_c, 0, 64, 68
1, 630712, Note_on_c, 0, 57, 57
1, 630715, Control_c, 0, 64, 68
1, 630730, Control_c, 0, 64, 69
1, 630744, Control_c, 0, 64, 70
1, 630759, Control_c, 0, 64, 72
1, 630762, Note_off_c, 0, 59, 58
1, 630774, Control_c, 0, 64, 73
1, 630788, Note_on_c, 0, 55, 74
1, 630789, Control_c, 0, 64, 74
1, 630814, Note_off_c, 0, 57, 61
1, 630819, Control_c, 0, 64, 73
1, 630834, Control_c, 0, 64, 70
1, 630849, Note_on_c, 0, 60, 86
1, 630849, Control_c, 0, 64, 65
1, 630858, Note_off_c, 0, 55, 64
1, 630860, Note_on_c, 0, 64, 75
1, 630864, Control_c, 0, 64, 49
1, 630878, Control_c, 0, 64, 0
1, 630885, Note_off_c, 0, 60, 60
1, 630938, Note_on_c, 0, 72, 77
1, 630945, Note_off_c, 0, 64, 64
1, 631005, Note_on_c, 0, 74, 70
1, 631008, Note_off_c, 0, 72, 66
1, 631055, Note_on_c, 0, 76, 77
1, 631077, Note_off_c, 0, 74, 64
1, 631108, Control_c, 0, 64, 20
1, 631123, Control_c, 0, 64, 30
1, 631126, Note_on_c, 0, 74, 62
1, 631128, Note_off_c, 0, 76, 65
1, 631138, Control_c, 0, 64, 34
1, 631199, Note_on_c, 0, 72, 81
1, 631209, Note_off_c, 0, 74, 63
1, 631212, Control_c, 0, 64, 33
1, 631227, Control_c, 0, 64, 33
1, 631242, Control_c, 0, 64, 32
1, 631257, Control_c, 0, 64, 31
1, 631266, Note_on_c, 0, 77, 94
1, 631272, Control_c, 0, 64, 28
1, 631287, Control_c, 0, 64, 23
1, 631301, Control_c, 0, 64, 22
1, 631316, Control_c, 0, 64, 23
1, 631331, Control_c, 0, 64, 23
1, 631332, Note_on_c, 0, 55, 58
1, 631375, Control_c, 0, 64, 24
1, 631385, Note_off_c, 0, 72, 29
1, 631390, Control_c, 0, 64, 29
1, 631391, Note_off_c, 0, 55, 64
1, 631405, Control_c, 0, 64, 38
1, 631414, Note_on_c, 0, 57, 72
1, 631419, Control_c, 0, 64, 49
1, 631434, Control_c, 0, 64, 57
1, 631449, Control_c, 0, 64, 61
1, 631464, Control_c, 0, 64, 63
1, 631479, Control_c, 0, 64, 64
1, 631481, Note_on_c, 0, 59, 73
1, 631486, Note_off_c, 0, 57, 57
1, 631493, Control_c, 0, 64, 65
1, 631508, Control_c, 0, 64, 66
1, 631523, Control_c, 0, 64, 68
1, 631536, Note_on_c, 0, 57, 59
1, 631537, Control_c, 0, 64, 69
1, 631567, Control_c, 0, 64, 69
1, 631580, Note_off_c, 0, 59, 62
1, 631582, Control_c, 0, 64, 70
1, 631597, Control_c, 0, 64, 70
1, 631612, Control_c, 0, 64, 71
1, 631614, Note_on_c, 0, 55, 72
1, 631646, Note_off_c, 0, 57, 62
1, 631657, Control_c, 0, 64, 70
1, 631672, Control_c, 0, 64, 67
1, 631672, Note_on_c, 0, 60, 85
1, 631683, Note_on_c, 0, 76, 81
1, 631683, Note_off_c, 0, 55, 65
1, 631687, Control_c, 0, 64, 60
1, 631688, Note_off_c, 0, 77, 36
1, 631702, Control_c, 0, 64, 0
1, 631707, Note_off_c, 0, 60, 60
1, 631759, Note_on_c, 0, 72, 76
1, 631769, Note_off_c, 0, 76, 64
1, 631815, Note_off_c, 0, 72, 66
1, 631828, Note_on_c, 0, 74, 80
1, 631886, Note_off_c, 0, 74, 62
1, 631894, Note_on_c, 0, 76, 83
1, 631964, Note_on_c, 0, 74, 75
1, 631966, Note_off_c, 0, 76, 64
1, 632014, Note_off_c, 0, 74, 64
1, 632016, Note_on_c, 0, 72, 81
1, 632080, Note_off_c, 0, 72, 65
1, 632094, Note_on_c, 0, 60, 84
1, 632097, Note_on_c, 0, 79, 92
1, 632168, Control_c, 0, 64, 44
1, 632171, Note_on_c, 0, 76, 79
1, 632181, Note_off_c, 0, 79, 62
1, 632183, Control_c, 0, 64, 46
1, 632197, Note_off_c, 0, 60, 60
1, 632198, Control_c, 0, 64, 44
1, 632213, Control_c, 0, 64, 43
1, 632224, Note_off_c, 0, 76, 65
1, 632228, Control_c, 0, 64, 42
1, 632235, Note_on_c, 0, 77, 86
1, 632242, Control_c, 0, 64, 41
1, 632272, Control_c, 0, 64, 42
1, 632287, Control_c, 0, 64, 42
1, 632289, Note_off_c, 0, 77, 56
1, 632302, Control_c, 0, 64, 43
1, 632307, Note_on_c, 0, 79, 76
1, 632316, Control_c, 0, 64, 44
1, 632331, Control_c, 0, 64, 46
1, 632346, Control_c, 0, 64, 47
1, 632378, Note_off_c, 0, 79, 62
1, 632381, Note_on_c, 0, 77, 69
1, 632405, Control_c, 0, 64, 47
1, 632420, Note_off_c, 0, 77, 59
1, 632420, Control_c, 0, 64, 48
1, 632425, Note_on_c, 0, 76, 76
1, 632435, Control_c, 0, 64, 50
1, 632450, Control_c, 0, 64, 51
1, 632464, Control_c, 0, 64, 52
1, 632495, Control_c, 0, 64, 51
1, 632505, Note_on_c, 0, 82, 87
1, 632510, Control_c, 0, 64, 51
1, 632515, Note_off_c, 0, 76, 58
1, 632523, Note_on_c, 0, 60, 88
1, 632525, Control_c, 0, 64, 49
1, 632526, Note_on_c, 0, 55, 74
1, 632527, Note_on_c, 0, 52, 82
1, 632535, Note_on_c, 0, 58, 78
1, 632539, Control_c, 0, 64, 41
1, 632554, Control_c, 0, 64, 22
1, 632577, Control_c, 0, 64, 0
1, 632603, Note_on_c, 0, 81, 85
1, 632670, Note_on_c, 0, 79, 82
1, 632700, Note_off_c, 0, 81, 60
1, 632712, Note_off_c, 0, 82, 38
1, 632744, Note_off_c, 0, 79, 59
1, 632745, Note_on_c, 0, 77, 86
1, 632807, Note_on_c, 0, 76, 83
1, 632816, Note_off_c, 0, 60, 58
1, 632828, Note_off_c, 0, 52, 59
1, 632866, Note_off_c, 0, 55, 58
1, 632870, Note_off_c, 0, 58, 61
1, 632870, Note_off_c, 0, 77, 27
1, 632878, Note_on_c, 0, 74, 77
1, 632912, Note_off_c, 0, 76, 66
1, 632941, Note_on_c, 0, 72, 84
1, 632957, Note_off_c, 0, 74, 65
1, 633000, Note_off_c, 0, 72, 63
1, 633006, Note_on_c, 0, 71, 80
1, 633076, Note_on_c, 0, 72, 77
1, 633126, Note_on_c, 0, 73, 80
1, 633150, Note_off_c, 0, 72, 64
1, 633152, Note_off_c, 0, 71, 59
1, 633183, Control_c, 0, 64, 15
1, 633198, Control_c, 0, 64, 36
1, 633210, Note_on_c, 0, 74, 79
1, 633213, Control_c, 0, 64, 49
1, 633228, Control_c, 0, 64, 54
1, 633243, Control_c, 0, 64, 56
1, 633252, Note_on_c, 0, 70, 75
1, 633257, Control_c, 0, 64, 57
1, 633272, Control_c, 0, 64, 59
1, 633274, Note_off_c, 0, 73, 55
1, 633288, Control_c, 0, 64, 60
1, 633303, Control_c, 0, 64, 61
1, 633308, Note_off_c, 0, 74, 65
1, 633342, Note_off_c, 0, 70, 66
1, 633343, Note_on_c, 0, 41, 91
1, 633356, Control_c, 0, 64, 58
1, 633370, Control_c, 0, 64, 51
1, 633385, Control_c, 0, 64, 15
1, 633400, Control_c, 0, 64, 0
1, 633419, Note_on_c, 0, 45, 78
1, 633476, Note_on_c, 0, 48, 81
1, 633518, Control_c, 0, 64, 29
1, 633533, Control_c, 0, 64, 45
1, 633548, Control_c, 0, 64, 50
1, 633552, Note_on_c, 0, 53, 73
1, 633560, Note_on_c, 0, 57, 76
1, 633563, Control_c, 0, 64, 52
1, 633577, Control_c, 0, 64, 55
1, 633592, Control_c, 0, 64, 57
1, 633607, Control_c, 0, 64, 58
1, 633618, Note_on_c, 0, 60, 83
1, 633627, Note_off_c, 0, 57, 63
1, 633640, Note_off_c, 0, 41, 57
1, 633666, Control_c, 0, 64, 58
1, 633681, Control_c, 0, 64, 59
1, 633682, Note_off_c, 0, 45, 56
1, 633696, Note_on_c, 0, 65, 77
1, 633701, Note_off_c, 0, 60, 62
1, 633708, Note_off_c, 0, 48, 53
1, 633710, Control_c, 0, 64, 57
1, 633712, Note_off_c, 0, 53, 61
1, 633725, Control_c, 0, 64, 52
1, 633733, Note_off_c, 0, 65, 62
1, 633740, Control_c, 0, 64, 28
1, 633755, Control_c, 0, 64, 0
1, 633769, Note_on_c, 0, 69, 84
1, 633831, Note_on_c, 0, 72, 85
1, 633849, Note_off_c, 0, 69, 61
1, 633904, Note_on_c, 0, 77, 82
1, 633928, Note_off_c, 0, 72, 60
1, 633972, Note_on_c, 0, 81, 83
1, 633986, Note_off_c, 0, 77, 63
1, 634011, Note_off_c, 0, 81, 61
1, 634096, Note_on_c, 0, 81, 86
1, 634137, Note_off_c, 0, 81, 63
1, 634211, Note_on_c, 0, 81, 92
1, 634213, Note_on_c, 0, 55, 65
1, 634214, Note_on_c, 0, 64, 65
1, 634222, Note_on_c, 0, 60, 61
1, 634323, Note_on_c, 0, 79, 80
1, 634333, Note_off_c, 0, 81, 59
1, 634360, Note_off_c, 0, 79, 58
1, 634393, Note_off_c, 0, 64, 61
1, 634403, Note_off_c, 0, 55, 61
1, 634417, Note_off_c, 0, 60, 60
1, 634432, Note_on_c, 0, 77, 83
1, 634465, Note_off_c, 0, 77, 60
1, 634538, Note_on_c, 0, 76, 82
1, 634584, Note_off_c, 0, 76, 66
1, 634654, Note_on_c, 0, 76, 91
1, 634661, Note_on_c, 0, 62, 64
1, 634662, Note_on_c, 0, 55, 58
1, 634663, Note_on_c, 0, 65, 65
1, 634732, Note_off_c, 0, 76, 61
1, 634751, Note_off_c, 0, 55, 63
1, 634752, Note_off_c, 0, 65, 59
1, 634761, Note_on_c, 0, 74, 84
1, 634764, Note_off_c, 0, 62, 61
1, 634810, Note_off_c, 0, 74, 66
1, 634890, Note_on_c, 0, 72, 69
1, 634917, Note_off_c, 0, 72, 64
1, 634991, Note_on_c, 0, 71, 73
1, 635034, Note_off_c, 0, 71, 57
1, 635130, Note_on_c, 0, 72, 78
1, 635134, Note_on_c, 0, 64, 44
1, 635139, Note_on_c, 0, 60, 52
1, 635337, Note_off_c, 0, 72, 66
1, 635343, Note_off_c, 0, 60, 62
1, 635344, Note_off_c, 0, 64, 64
1, 635913, Control_c, 0, 64, 34
1, 635928, Control_c, 0, 64, 56
1, 635943, Control_c, 0, 64, 62
1, 635956, Note_on_c, 0, 67, 43
1, 635957, Control_c, 0, 64, 64
1, 635972, Control_c, 0, 64, 65
1, 635987, Control_c, 0, 64, 69
1, 636002, Control_c, 0, 64, 72
1, 636016, Control_c, 0, 64, 76
1, 636031, Control_c, 0, 64, 79
1, 636046, Control_c, 0, 64, 80
1, 636061, Control_c, 0, 64, 82
1, 636076, Control_c, 0, 64, 85
1, 636090, Control_c, 0, 64, 87
1, 636105, Control_c, 0, 64, 89
1, 636110, Note_off_c, 0, 67, 45
1, 636120, Control_c, 0, 64, 89
1, 636134, Control_c, 0, 64, 90
1, 636202, Note_on_c, 0, 74, 51
1, 636222, Note_on_c, 0, 65, 38
1, 636226, Note_on_c, 0, 71, 45
1, 636229, Note_on_c, 0, 67, 41
1, 636268, Control_c, 0, 64, 90
1, 636283, Control_c, 0, 64, 91
1, 636285, Note_off_c, 0, 71, 59
1, 636298, Control_c, 0, 64, 92
1, 636312, Note_off_c, 0, 74, 63
1, 636320, Control_c, 0, 64, 92
1, 636334, Control_c, 0, 64, 93
1, 636342, Note_off_c, 0, 67, 54
1, 636349, Control_c, 0, 64, 93
1, 636371, Note_off_c, 0, 65, 36
1, 636408, Control_c, 0, 64, 94
1, 636423, Control_c, 0, 64, 94
1, 636438, Control_c, 0, 64, 95
1, 636449, Note_on_c, 0, 74, 67
1, 636453, Control_c, 0, 64, 95
1, 636468, Control_c, 0, 64, 97
1, 636479, Note_on_c, 0, 67, 30
1, 636483, Control_c, 0, 64, 99
1, 636489, Note_on_c, 0, 71, 35
1, 636498, Note_on_c, 0, 65, 29
1, 636499, Control_c, 0, 64, 102
1, 636513, Control_c, 0, 64, 106
1, 636525, Note_off_c, 0, 71, 51
1, 636528, Control_c, 0, 64, 110
1, 636539, Note_off_c, 0, 67, 42
1, 636542, Note_off_c, 0, 65, 47
1, 636542, Note_off_c, 0, 74, 62
1, 636543, Control_c, 0, 64, 114
1, 636558, Control_c, 0, 64, 125
1, 636572, Control_c, 0, 64, 127
1, 636679, Note_on_c, 0, 74, 75
1, 636709, Note_on_c, 0, 71, 49
1, 636718, Note_on_c, 0, 67, 35
1, 636719, Note_on_c, 0, 65, 25
1, 636756, Note_off_c, 0, 71, 61
1, 636766, Note_off_c, 0, 74, 64
1, 636775, Note_off_c, 0, 67, 44
1, 636785, Note_off_c, 0, 65, 41
1, 636921, Note_on_c, 0, 74, 70
1, 636936, Note_on_c, 0, 71, 53
1, 636943, Note_on_c, 0, 65, 37
1, 636966, Note_on_c, 0, 67, 27
1, 636995, Note_off_c, 0, 71, 61
1, 637004, Note_off_c, 0, 74, 63
1, 637050, Note_off_c, 0, 67, 36
1, 637116, Note_off_c, 0, 65, 38
1, 637202, Control_c, 0, 64, 114
1, 637207, Note_on_c, 0, 79, 78
1, 637217, Control_c, 0, 64, 87
1, 637219, Note_on_c, 0, 67, 34
1, 637225, Note_on_c, 0, 64, 33
1, 637232, Control_c, 0, 64, 69
1, 637239, Note_on_c, 0, 72, 49
1, 637246, Control_c, 0, 64, 57
1, 637261, Control_c, 0, 64, 0
1, 637395, Control_c, 0, 64, 23
1, 637410, Control_c, 0, 64, 39
1, 637425, Control_c, 0, 64, 49
1, 637440, Control_c, 0, 64, 56
1, 637455, Control_c, 0, 64, 61
1, 637469, Control_c, 0, 64, 64
1, 637484, Control_c, 0, 64, 65
1, 637499, Control_c, 0, 64, 67
1, 637514, Control_c, 0, 64, 71
1, 637529, Control_c, 0, 64, 76
1, 637544, Control_c, 0, 64, 80
1, 637559, Control_c, 0, 64, 84
1, 637574, Control_c, 0, 64, 87
1, 637588, Control_c, 0, 64, 90
1, 637603, Control_c, 0, 64, 92
1, 637618, Control_c, 0, 64, 94
1, 637633, Control_c, 0, 64, 95
1, 637662, Control_c, 0, 64, 95
1, 637678, Note_off_c, 0, 64, 42
1, 637678, Note_off_c, 0, 72, 54
1, 637701, Note_off_c, 0, 79, 55
1, 637934, Note_off_c, 0, 67, 39
1, 637941, Note_on_c, 0, 64, 41
1, 637952, Note_on_c, 0, 79, 66
1, 637991, Note_on_c, 0, 72, 35
1, 638041, Control_c, 0, 64, 95
1, 638055, Control_c, 0, 64, 94
1, 638063, Note_off_c, 0, 72, 37
1, 638086, Control_c, 0, 64, 93
1, 638101, Control_c, 0, 64, 92
1, 638116, Control_c, 0, 64, 90
1, 638131, Control_c, 0, 64, 87
1, 638146, Control_c, 0, 64, 84
1, 638160, Control_c, 0, 64, 80
1, 638175, Control_c, 0, 64, 74
1, 638176, Note_off_c, 0, 64, 38
1, 638190, Control_c, 0, 64, 66
1, 638204, Control_c, 0, 64, 59
1, 638219, Control_c, 0, 64, 40
1, 638225, Note_on_c, 0, 78, 70
1, 638234, Control_c, 0, 64, 0
1, 638247, Note_on_c, 0, 69, 35
1, 638257, Note_off_c, 0, 79, 48
1, 638259, Note_on_c, 0, 75, 43
1, 638276, Note_on_c, 0, 72, 25
1, 638352, Control_c, 0, 64, 50
1, 638367, Control_c, 0, 64, 63
1, 638382, Control_c, 0, 64, 66
1, 638397, Control_c, 0, 64, 69
1, 638411, Control_c, 0, 64, 71
1, 638426, Control_c, 0, 64, 74
1, 638441, Control_c, 0, 64, 77
1, 638448, Note_off_c, 0, 72, 40
1, 638452, Note_off_c, 0, 75, 55
1, 638456, Control_c, 0, 64, 80
1, 638471, Control_c, 0, 64, 81
1, 638480, Note_off_c, 0, 78, 63
1, 638486, Control_c, 0, 64, 82
1, 638496, Note_off_c, 0, 69, 37
1, 638700, Control_c, 0, 64, 81
1, 638715, Control_c, 0, 64, 79
1, 638729, Control_c, 0, 64, 75
1, 638744, Control_c, 0, 64, 68
1, 638746, Note_on_c, 0, 78, 61
1, 638759, Control_c, 0, 64, 58
1, 638774, Control_c, 0, 64, 24
1, 638782, Note_on_c, 0, 69, 29
1, 638782, Note_on_c, 0, 74, 41
1, 638784, Note_on_c, 0, 72, 38
1, 638789, Control_c, 0, 64, 0
1, 638848, Control_c, 0, 64, 41
1, 638863, Control_c, 0, 64, 60
1, 638879, Control_c, 0, 64, 66
1, 638894, Control_c, 0, 64, 71
1, 638908, Control_c, 0, 64, 76
1, 638923, Control_c, 0, 64, 79
1, 638924, Note_off_c, 0, 72, 40
1, 638938, Control_c, 0, 64, 80
1, 638948, Note_off_c, 0, 74, 38
1, 638952, Control_c, 0, 64, 82
1, 638967, Control_c, 0, 64, 83
1, 638982, Control_c, 0, 64, 84
1, 639011, Note_off_c, 0, 78, 59
1, 639127, Note_off_c, 0, 69, 34
1, 639189, Control_c, 0, 64, 83
1, 639204, Control_c, 0, 64, 83
1, 639219, Control_c, 0, 64, 82
1, 639234, Control_c, 0, 64, 82
1, 639249, Control_c, 0, 64, 81
1, 639264, Control_c, 0, 64, 80
1, 639279, Control_c, 0, 64, 79
1, 639294, Control_c, 0, 64, 77
1, 639315, Control_c, 0, 64, 75
1, 639330, Control_c, 0, 64, 70
1, 639345, Control_c, 0, 64, 66
1, 639359, Control_c, 0, 64, 62
1, 639362, Note_on_c, 0, 79, 49
1, 639374, Control_c, 0, 64, 55
1, 639389, Note_on_c, 0, 71, 36
1, 639389, Control_c, 0, 64, 43
1, 639395, Note_on_c, 0, 67, 30
1, 639399, Note_on_c, 0, 74, 31
1, 639404, Control_c, 0, 64, 8
1, 639419, Control_c, 0, 64, 0
1, 639831, Note_off_c, 0, 79, 61
1, 639837, Note_off_c, 0, 71, 45
1, 639839, Note_off_c, 0, 74, 64
1, 639860, Note_off_c, 0, 67, 52
1, 640168, Control_c, 0, 64, 8
1, 640182, Control_c, 0, 64, 45
1, 640197, Control_c, 0, 64, 56
1, 640212, Control_c, 0, 64, 59
1, 640215, Note_on_c, 0, 55, 40
1, 640227, Control_c, 0, 64, 60
1, 640242, Control_c, 0, 64, 61
1, 640257, Control_c, 0, 64, 63
1, 640271, Control_c, 0, 64, 65
1, 640286, Control_c, 0, 64, 67
1, 640301, Control_c, 0, 64, 68
1, 640316, Control_c, 0, 64, 68
1, 640331, Control_c, 0, 64, 69
1, 640346, Control_c, 0, 64, 69
1, 640361, Control_c, 0, 64, 70
1, 640376, Control_c, 0, 64, 70
1, 640395, Note_off_c, 0, 55, 53
1, 640405, Control_c, 0, 64, 71
1, 640477, Note_on_c, 0, 59, 42
1, 640477, Note_on_c, 0, 62, 53
1, 640477, Note_on_c, 0, 53, 34
1, 640483, Note_on_c, 0, 55, 17
1, 640510, Control_c, 0, 64, 71
1, 640524, Control_c, 0, 64, 72
1, 640539, Control_c, 0, 64, 73
1, 640554, Control_c, 0, 64, 74
1, 640564, Note_off_c, 0, 59, 57
1, 640569, Control_c, 0, 64, 76
1, 640578, Note_off_c, 0, 62, 58
1, 640584, Control_c, 0, 64, 77
1, 640598, Control_c, 0, 64, 77
1, 640613, Control_c, 0, 64, 78
1, 640615, Note_off_c, 0, 55, 52
1, 640628, Control_c, 0, 64, 78
1, 640629, Note_off_c, 0, 53, 39
1, 640658, Control_c, 0, 64, 79
1, 640672, Control_c, 0, 64, 79
1, 640687, Control_c, 0, 64, 80
1, 640702, Control_c, 0, 64, 81
1, 640703, Note_on_c, 0, 62, 64
1, 640717, Control_c, 0, 64, 81
1, 640731, Note_on_c, 0, 59, 40
1, 640731, Control_c, 0, 64, 82
1, 640740, Note_on_c, 0, 55, 43
1, 640745, Note_on_c, 0, 53, 45
1, 640746, Control_c, 0, 64, 83
1, 640761, Control_c, 0, 64, 84
1, 640776, Control_c, 0, 64, 85
1, 640792, Control_c, 0, 64, 85
1, 640814, Control_c, 0, 64, 86
1, 640819, Note_off_c, 0, 53, 54
1, 640829, Note_off_c, 0, 59, 50
1, 640830, Note_off_c, 0, 55, 53
1, 640830, Note_off_c, 0, 62, 57
1, 640944, Note_on_c, 0, 62, 71
1, 640955, Note_on_c, 0, 59, 58
1, 640971, Note_on_c, 0, 55, 51
1, 640975, Note_on_c, 0, 53, 45
1, 641049, Note_off_c, 0, 53, 50
1, 641058, Note_off_c, 0, 59, 57
1, 641060, Note_off_c, 0, 55, 47
1, 641065, Note_off_c, 0, 62, 58
1, 641139, Control_c, 0, 64, 85
1, 641154, Control_c, 0, 64, 85
1, 641186, Note_on_c, 0, 62, 72
1, 641194, Note_on_c, 0, 59, 61
1, 641199, Control_c, 0, 64, 84
1, 641200, Note_on_c, 0, 53, 44
1, 641205, Note_on_c, 0, 55, 47
1, 641213, Control_c, 0, 64, 84
1, 641243, Control_c, 0, 64, 83
1, 641267, Note_off_c, 0, 53, 58
1, 641273, Control_c, 0, 64, 82
1, 641280, Note_off_c, 0, 55, 49
1, 641289, Control_c, 0, 64, 82
1, 641318, Note_off_c, 0, 59, 58
1, 641318, Control_c, 0, 64, 81
1, 641339, Note_off_c, 0, 62, 61
1, 641348, Control_c, 0, 64, 81
1, 641362, Control_c, 0, 64, 80
1, 641377, Control_c, 0, 64, 78
1, 641392, Control_c, 0, 64, 76
1, 641407, Control_c, 0, 64, 72
1, 641422, Note_on_c, 0, 67, 76
1, 641422, Control_c, 0, 64, 68
1, 641435, Note_on_c, 0, 55, 48
1, 641437, Control_c, 0, 64, 63
1, 641440, Note_on_c, 0, 51, 49
1, 641452, Control_c, 0, 64, 55
1, 641467, Control_c, 0, 64, 31
1, 641482, Control_c, 0, 64, 0
1, 641661, Note_on_c, 0, 59, 75
1, 641755, Control_c, 0, 64, 36
1, 641770, Control_c, 0, 64, 47
1, 641785, Control_c, 0, 64, 52
1, 641800, Control_c, 0, 64, 53
1, 641815, Control_c, 0, 64, 54
1, 641826, Note_off_c, 0, 67, 33
1, 641829, Control_c, 0, 64, 55
1, 641833, Note_off_c, 0, 51, 51
1, 641844, Control_c, 0, 64, 56
1, 641873, Control_c, 0, 64, 55
1, 641913, Note_on_c, 0, 60, 78
1, 641918, Control_c, 0, 64, 55
1, 641933, Control_c, 0, 64, 53
1, 641947, Control_c, 0, 64, 52
1, 641977, Control_c, 0, 64, 53
1, 641984, Note_off_c, 0, 59, 62
1, 641992, Control_c, 0, 64, 54
1, 642007, Control_c, 0, 64, 57
1, 642022, Control_c, 0, 64, 60
1, 642024, Note_off_c, 0, 55, 38
1, 642036, Control_c, 0, 64, 63
1, 642051, Control_c, 0, 64, 65
1, 642066, Control_c, 0, 64, 66
1, 642082, Control_c, 0, 64, 66
1, 642126, Control_c, 0, 64, 64
1, 642141, Control_c, 0, 64, 58
1, 642143, Note_on_c, 0, 67, 62
1, 642156, Control_c, 0, 64, 36
1, 642171, Control_c, 0, 64, 0
1, 642175, Note_on_c, 0, 51, 47
1, 642230, Control_c, 0, 64, 48
1, 642245, Control_c, 0, 64, 61
1, 642257, Note_off_c, 0, 60, 56
1, 642260, Control_c, 0, 64, 66
1, 642275, Control_c, 0, 64, 69
1, 642289, Control_c, 0, 64, 72
1, 642310, Control_c, 0, 64, 74
1, 642325, Control_c, 0, 64, 76
1, 642355, Control_c, 0, 64, 73
1, 642370, Control_c, 0, 64, 67
1, 642385, Control_c, 0, 64, 56
1, 642394, Note_on_c, 0, 56, 44
1, 642399, Note_on_c, 0, 65, 61
1, 642400, Control_c, 0, 64, 31
1, 642406, Note_on_c, 0, 60, 42
1, 642415, Control_c, 0, 64, 25
1, 642430, Control_c, 0, 64, 42
1, 642444, Control_c, 0, 64, 55
1, 642459, Control_c, 0, 64, 63
1, 642474, Control_c, 0, 64, 66
1, 642489, Control_c, 0, 64, 71
1, 642503, Control_c, 0, 64, 75
1, 642518, Control_c, 0, 64, 79
1, 642522, Note_off_c, 0, 60, 56
1, 642528, Note_off_c, 0, 56, 60
1, 642533, Control_c, 0, 64, 81
1, 642539, Note_off_c, 0, 51, 36
1, 642551, Note_off_c, 0, 65, 56
1, 642555, Note_off_c, 0, 67, 38
1, 642563, Control_c, 0, 64, 76
1, 642577, Control_c, 0, 64, 66
1, 642592, Control_c, 0, 64, 57
1, 642607, Control_c, 0, 64, 50
1, 642612, Note_on_c, 0, 56, 58
1, 642614, Note_on_c, 0, 65, 62
1, 642622, Control_c, 0, 64, 52
1, 642634, Note_on_c, 0, 60, 57
1, 642637, Control_c, 0, 64, 57
1, 642651, Control_c, 0, 64, 62
1, 642666, Control_c, 0, 64, 65
1, 642681, Control_c, 0, 64, 67
1, 642729, Note_off_c, 0, 60, 59
1, 642750, Note_off_c, 0, 65, 62
1, 642755, Control_c, 0, 64, 66
1, 642760, Note_off_c, 0, 56, 62
1, 642769, Control_c, 0, 64, 65
1, 642784, Control_c, 0, 64, 61
1, 642799, Control_c, 0, 64, 48
1, 642814, Control_c, 0, 64, 0
1, 642847, Note_on_c, 0, 56, 51
1, 642851, Note_on_c, 0, 65, 68
1, 642854, Note_on_c, 0, 58, 64
1, 642861, Note_on_c, 0, 62, 61
1, 642904, Control_c, 0, 64, 35
1, 642918, Control_c, 0, 64, 58
1, 642933, Control_c, 0, 64, 63
1, 642948, Control_c, 0, 64, 64
1, 642963, Control_c, 0, 64, 65
1, 642978, Control_c, 0, 64, 68
1, 642993, Note_off_c, 0, 62, 59
1, 642993, Control_c, 0, 64, 72
1, 642997, Note_off_c, 0, 56, 61
1, 643001, Note_off_c, 0, 58, 63
1, 643002, Note_off_c, 0, 65, 60
1, 643008, Control_c, 0, 64, 78
1, 643023, Control_c, 0, 64, 79
1, 643038, Control_c, 0, 64, 75
1, 643060, Control_c, 0, 64, 64
1, 643075, Control_c, 0, 64, 39
1, 643087, Note_on_c, 0, 65, 76
1, 643089, Control_c, 0, 64, 0
1, 643094, Note_on_c, 0, 56, 61
1, 643094, Note_on_c, 0, 58, 61
1, 643107, Note_on_c, 0, 62, 68
1, 643133, Control_c, 0, 64, 35
1, 643148, Control_c, 0, 64, 60
1, 643163, Control_c, 0, 64, 65
1, 643178, Control_c, 0, 64, 66
1, 643193, Control_c, 0, 64, 66
1, 643208, Control_c, 0, 64, 68
1, 643223, Control_c, 0, 64, 71
1, 643228, Note_off_c, 0, 58, 63
1, 643234, Note_off_c, 0, 62, 60
1, 643237, Note_off_c, 0, 65, 61
1, 643237, Control_c, 0, 64, 76
1, 643244, Note_off_c, 0, 56, 61
1, 643252, Control_c, 0, 64, 78
1, 643282, Control_c, 0, 64, 78
1, 643297, Control_c, 0, 64, 74
1, 643312, Control_c, 0, 64, 68
1, 643326, Control_c, 0, 64, 60
1, 643334, Note_on_c, 0, 70, 80
1, 643335, Note_on_c, 0, 55, 61
1, 643340, Note_on_c, 0, 58, 66
1, 643341, Control_c, 0, 64, 0
1, 643560, Note_on_c, 0, 62, 81
1, 643780, Note_off_c, 0, 55, 62
1, 643801, Note_off_c, 0, 70, 32
1, 643804, Note_on_c, 0, 63, 85
1, 643837, Control_c, 0, 64, 52
1, 643852, Control_c, 0, 64, 63
1, 643867, Control_c, 0, 64, 67
1, 643882, Control_c, 0, 64, 68
1, 643911, Control_c, 0, 64, 68
1, 643916, Note_off_c, 0, 62, 57
1, 643926, Control_c, 0, 64, 69
1, 643941, Control_c, 0, 64, 69
1, 643985, Note_off_c, 0, 58, 60
1, 644030, Note_on_c, 0, 70, 75
1, 644035, Note_on_c, 0, 55, 52
1, 644054, Note_off_c, 0, 63, 58
1, 644163, Control_c, 0, 64, 70
1, 644178, Control_c, 0, 64, 69
1, 644193, Control_c, 0, 64, 67
1, 644208, Control_c, 0, 64, 56
1, 644222, Control_c, 0, 64, 0
1, 644243, Note_on_c, 0, 69, 68
1, 644255, Note_off_c, 0, 55, 36
1, 644257, Note_on_c, 0, 60, 55
1, 644261, Note_on_c, 0, 63, 54
1, 644296, Control_c, 0, 64, 45
1, 644311, Control_c, 0, 64, 63
1, 644317, Note_off_c, 0, 69, 64
1, 644326, Control_c, 0, 64, 66
1, 644331, Note_off_c, 0, 70, 26
1, 644340, Control_c, 0, 64, 67
1, 644355, Control_c, 0, 64, 69
1, 644370, Control_c, 0, 64, 73
1, 644385, Control_c, 0, 64, 80
1, 644394, Note_off_c, 0, 63, 62
1, 644400, Control_c, 0, 64, 86
1, 644404, Note_off_c, 0, 60, 59
1, 644415, Control_c, 0, 64, 88
1, 644445, Control_c, 0, 64, 84
1, 644460, Control_c, 0, 64, 72
1, 644475, Control_c, 0, 64, 58
1, 644480, Note_on_c, 0, 69, 78
1, 644490, Note_on_c, 0, 66, 68
1, 644490, Control_c, 0, 64, 0
1, 644493, Note_on_c, 0, 60, 43
1, 644501, Note_on_c, 0, 63, 62
1, 644534, Control_c, 0, 64, 12
1, 644557, Control_c, 0, 64, 56
1, 644571, Control_c, 0, 64, 64
1, 644586, Control_c, 0, 64, 66
1, 644601, Control_c, 0, 64, 66
1, 644615, Note_off_c, 0, 66, 64
1, 644616, Control_c, 0, 64, 67
1, 644619, Note_off_c, 0, 69, 62
1, 644631, Control_c, 0, 64, 69
1, 644635, Note_off_c, 0, 63, 61
1, 644638, Note_off_c, 0, 60, 55
1, 644645, Control_c, 0, 64, 73
1, 644660, Control_c, 0, 64, 79
1, 644675, Control_c, 0, 64, 86
1, 644690, Control_c, 0, 64, 93
1, 644704, Control_c, 0, 64, 93
1, 644715, Note_on_c, 0, 69, 84
1, 644719, Control_c, 0, 64, 88
1, 644727, Note_on_c, 0, 66, 77
1, 644728, Note_on_c, 0, 63, 66
1, 644734, Control_c, 0, 64, 73
1, 644736, Note_on_c, 0, 60, 54
1, 644749, Control_c, 0, 64, 60
1, 644764, Control_c, 0, 64, 0
1, 644793, Control_c, 0, 64, 27
1, 644808, Control_c, 0, 64, 54
1, 644823, Control_c, 0, 64, 64
1, 644828, Note_off_c, 0, 60, 56
1, 644833, Note_off_c, 0, 66, 62
1, 644836, Note_off_c, 0, 63, 59
1, 644838, Control_c, 0, 64, 68
1, 644853, Control_c, 0, 64, 70
1, 644857, Note_off_c, 0, 69, 62
1, 644868, Control_c, 0, 64, 71
1, 644883, Control_c, 0, 64, 74
1, 644897, Control_c, 0, 64, 77
1, 644912, Control_c, 0, 64, 80
1, 644927, Control_c, 0, 64, 80
1, 644946, Note_on_c, 0, 69, 87
1, 644950, Note_on_c, 0, 66, 75
1, 644953, Note_on_c, 0, 63, 67
1, 644954, Note_on_c, 0, 60, 65
1, 645046, Note_off_c, 0, 66, 64
1, 645063, Note_off_c, 0, 63, 55
1, 645086, Note_off_c, 0, 69, 61
1, 645092, Note_off_c, 0, 60, 38
1, 645134, Control_c, 0, 64, 79
1, 645149, Control_c, 0, 64, 75
1, 645163, Control_c, 0, 64, 68
1, 645178, Control_c, 0, 64, 61
1, 645193, Control_c, 0, 64, 43
1, 645196, Note_on_c, 0, 59, 59
1, 645202, Note_on_c, 0, 62, 61
1, 645208, Control_c, 0, 64, 0
1, 645209, Note_on_c, 0, 74, 86
1, 645490, Note_on_c, 0, 66, 80
1, 645735, Note_on_c, 0, 67, 83
1, 645794, Control_c, 0, 64, 20
1, 645805, Note_off_c, 0, 66, 63
1, 645809, Control_c, 0, 64, 35
1, 645824, Control_c, 0, 64, 50
1, 645838, Control_c, 0, 64, 60
1, 645853, Control_c, 0, 64, 62
1, 645881, Note_off_c, 0, 59, 37
1, 645899, Note_off_c, 0, 62, 47
1, 645913, Control_c, 0, 64, 63
1, 645927, Control_c, 0, 64, 62
1, 645942, Control_c, 0, 64, 61
1, 645952, Note_off_c, 0, 67, 59
1, 645957, Control_c, 0, 64, 60
1, 645958, Note_on_c, 0, 66, 62
1, 645958, Note_on_c, 0, 69, 69
1, 645962, Note_off_c, 0, 74, 59
1, 645969, Note_on_c, 0, 63, 48
1, 645971, Note_on_c, 0, 60, 51
1, 645972, Control_c, 0, 64, 59
1, 645987, Control_c, 0, 64, 57
1, 646001, Control_c, 0, 64, 54
1, 646016, Control_c, 0, 64, 49
1, 646031, Control_c, 0, 64, 44
1, 646053, Control_c, 0, 64, 41
1, 646069, Control_c, 0, 64, 38
1, 646084, Control_c, 0, 64, 35
1, 646099, Control_c, 0, 64, 27
1, 646114, Control_c, 0, 64, 0
1, 646125, Note_off_c, 0, 66, 54
1, 646203, Note_on_c, 0, 74, 68
1, 646209, Note_off_c, 0, 60, 54
1, 646209, Note_on_c, 0, 62, 48
1, 646215, Note_on_c, 0, 59, 43
1, 646220, Note_off_c, 0, 63, 48
1, 646227, Note_off_c, 0, 69, 62
1, 646466, Note_on_c, 0, 66, 50
1, 646573, Control_c, 0, 64, 48
1, 646588, Control_c, 0, 64, 64
1, 646603, Control_c, 0, 64, 68
1, 646617, Control_c, 0, 64, 72
1, 646632, Control_c, 0, 64, 75
1, 646647, Control_c, 0, 64, 77
1, 646661, Control_c, 0, 64, 79
1, 646676, Control_c, 0, 64, 81
1, 646685, Note_on_c, 0, 67, 57
1, 646691, Control_c, 0, 64, 81
1, 646703, Note_off_c, 0, 59, 60
1, 646719, Note_off_c, 0, 62, 53
1, 646725, Note_off_c, 0, 66, 63
1, 646766, Note_off_c, 0, 67, 60
1, 646801, Note_off_c, 0, 74, 58
1, 646862, Control_c, 0, 64, 80
1, 646877, Control_c, 0, 64, 77
1, 646892, Control_c, 0, 64, 70
1, 646907, Control_c, 0, 64, 64
1, 646916, Note_on_c, 0, 68, 41
1, 646916, Note_on_c, 0, 74, 65
1, 646922, Control_c, 0, 64, 54
1, 646928, Note_on_c, 0, 71, 45
1, 646930, Note_on_c, 0, 65, 43
1, 646937, Control_c, 0, 64, 32
1, 646952, Control_c, 0, 64, 0
1, 647110, Note_off_c, 0, 71, 54
1, 647170, Note_on_c, 0, 79, 65
1, 647171, Note_off_c, 0, 65, 34
1, 647172, Note_on_c, 0, 63, 45
1, 647184, Note_off_c, 0, 74, 61
1, 647190, Note_on_c, 0, 67, 36
1, 647248, Note_off_c, 0, 68, 40
1, 647414, Note_on_c, 0, 71, 53
1, 647658, Note_on_c, 0, 72, 53
1, 647675, Note_off_c, 0, 71, 56
1, 647701, Control_c, 0, 67, 8
1, 647716, Control_c, 0, 67, 10
1, 647730, Control_c, 0, 67, 12
1, 647742, Note_off_c, 0, 63, 35
1, 647745, Control_c, 0, 67, 14
1, 647760, Control_c, 0, 67, 16
1, 647775, Control_c, 0, 67, 18
1, 647790, Control_c, 0, 67, 20
1, 647804, Control_c, 0, 67, 22
1, 647817, Note_off_c, 0, 67, 43
1, 647819, Control_c, 0, 67, 23
1, 647834, Control_c, 0, 67, 23
1, 647849, Control_c, 0, 67, 24
1, 647855, Note_off_c, 0, 79, 56
1, 647864, Control_c, 0, 67, 24
1, 647870, Note_off_c, 0, 72, 59
1, 647873, Note_on_c, 0, 74, 55
1, 647879, Control_c, 0, 67, 25
1, 647889, Note_on_c, 0, 68, 32
1, 647894, Control_c, 0, 67, 27
1, 647908, Control_c, 0, 67, 29
1, 647911, Note_on_c, 0, 71, 32
1, 647920, Note_on_c, 0, 65, 15
1, 647923, Control_c, 0, 67, 32
1, 647938, Control_c, 0, 67, 35
1, 647953, Control_c, 0, 67, 38
1, 647968, Control_c, 0, 67, 42
1, 647983, Control_c, 0, 67, 46
1, 647997, Control_c, 0, 67, 51
1, 648012, Control_c, 0, 67, 56
1, 648027, Control_c, 0, 67, 61
1, 648042, Control_c, 0, 67, 65
1, 648057, Control_c, 0, 67, 68
1, 648071, Control_c, 0, 67, 72
1, 648086, Control_c, 0, 67, 74
1, 648087, Note_off_c, 0, 71, 43
1, 648101, Control_c, 0, 67, 76
1, 648115, Control_c, 0, 67, 77
1, 648130, Control_c, 0, 67, 79
1, 648133, Note_on_c, 0, 63, 34
1, 648139, Note_off_c, 0, 65, 38
1, 648141, Note_on_c, 0, 79, 53
1, 648145, Control_c, 0, 67, 81
1, 648147, Note_on_c, 0, 67, 20
1, 648160, Control_c, 0, 67, 82
1, 648161, Note_off_c, 0, 74, 55
1, 648175, Control_c, 0, 67, 84
1, 648189, Control_c, 0, 67, 86
1, 648201, Note_off_c, 0, 68, 36
1, 648345, Control_c, 0, 67, 85
1, 648375, Control_c, 0, 67, 85
1, 648389, Control_c, 0, 67, 84
1, 648393, Note_on_c, 0, 71, 43
1, 648404, Control_c, 0, 67, 84
1, 648465, Control_c, 0, 67, 83
1, 648509, Control_c, 0, 67, 83
1, 648553, Control_c, 0, 67, 82
1, 648583, Control_c, 0, 67, 82
1, 648606, Note_off_c, 0, 71, 54
1, 648613, Control_c, 0, 67, 81
1, 648627, Control_c, 0, 67, 81
1, 648636, Note_on_c, 0, 72, 40
1, 648835, Note_off_c, 0, 79, 56
1, 648835, Control_c, 0, 67, 81
1, 648852, Note_off_c, 0, 72, 53
1, 648853, Note_on_c, 0, 74, 46
1, 648858, Note_off_c, 0, 63, 34
1, 648864, Control_c, 0, 67, 82
1, 648877, Note_on_c, 0, 68, 30
1, 648880, Note_on_c, 0, 65, 20
1, 648898, Note_on_c, 0, 71, 17
1, 648899, Note_off_c, 0, 67, 34
1, 648909, Control_c, 0, 67, 82
1, 648938, Control_c, 0, 67, 83
1, 648968, Control_c, 0, 67, 83
1, 649026, Control_c, 0, 67, 84
1, 649055, Note_off_c, 0, 71, 36
1, 649122, Note_on_c, 0, 80, 66
1, 649128, Note_off_c, 0, 74, 56
1, 649137, Control_c, 0, 67, 83
1, 649256, Control_c, 0, 67, 84
1, 649286, Control_c, 0, 67, 84
1, 649301, Control_c, 0, 67, 85
1, 649316, Control_c, 0, 67, 85
1, 649318, Note_off_c, 0, 65, 39
1, 649330, Note_off_c, 0, 68, 44
1, 649331, Control_c, 0, 67, 86
1, 649346, Control_c, 0, 67, 86
1, 649360, Control_c, 0, 67, 87
1, 649362, Note_on_c, 0, 70, 38
1, 649390, Control_c, 0, 67, 87
1, 649420, Control_c, 0, 67, 88
1, 649465, Control_c, 0, 67, 90
1, 649479, Control_c, 0, 67, 90
1, 649494, Control_c, 0, 67, 91
1, 649577, Note_off_c, 0, 70, 59
1, 649611, Note_on_c, 0, 71, 44
1, 649613, Control_c, 0, 67, 91
1, 649672, Control_c, 0, 67, 92
1, 649716, Control_c, 0, 67, 92
1, 649731, Control_c, 0, 67, 93
1, 649746, Control_c, 0, 67, 95
1, 649760, Control_c, 0, 67, 96
1, 649775, Control_c, 0, 67, 97
1, 649827, Control_c, 0, 67, 97
1, 649847, Note_on_c, 0, 74, 44
1, 649872, Control_c, 0, 67, 98
1, 649879, Note_off_c, 0, 71, 52
1, 649960, Control_c, 0, 67, 98
1, 650005, Note_off_c, 0, 80, 62
1, 650091, Note_on_c, 0, 79, 61
1, 650124, Control_c, 0, 67, 99
1, 650135, Note_off_c, 0, 74, 57
1, 650323, Note_on_c, 0, 70, 41
1, 650377, Control_c, 0, 67, 99
1, 650391, Control_c, 0, 67, 100
1, 650421, Control_c, 0, 67, 101
1, 650435, Control_c, 0, 67, 104
1, 650450, Control_c, 0, 67, 108
1, 650465, Control_c, 0, 67, 112
1, 650480, Control_c, 0, 67, 116
1, 650495, Control_c, 0, 67, 120
1, 650509, Control_c, 0, 67, 125
1, 650524, Control_c, 0, 67, 127
1, 650568, Note_on_c, 0, 71, 44
1, 650573, Note_off_c, 0, 70, 56
1, 650803, Note_on_c, 0, 74, 47
1, 650886, Note_off_c, 0, 71, 36
1, 651043, Note_on_c, 0, 78, 60
1, 651071, Note_off_c, 0, 79, 53
1, 651142, Note_off_c, 0, 74, 35
1, 651309, Note_on_c, 0, 70, 37
1, 651542, Note_off_c, 0, 70, 60
1, 651557, Note_on_c, 0, 71, 39
1, 651790, Note_on_c, 0, 74, 48
1, 651930, Note_off_c, 0, 71, 36
1, 652060, Note_on_c, 0, 77, 60
1, 652070, Note_off_c, 0, 74, 57
1, 652113, Note_off_c, 0, 78, 61
1, 652319, Note_on_c, 0, 70, 53
1, 652589, Note_off_c, 0, 70, 60
1, 652605, Note_on_c, 0, 71, 51
1, 652793, Control_c, 0, 64, 51
1, 652808, Control_c, 0, 64, 62
1, 652823, Control_c, 0, 64, 64
1, 652837, Control_c, 0, 64, 66
1, 652852, Control_c, 0, 64, 69
1, 652867, Control_c, 0, 64, 72
1, 652882, Control_c, 0, 64, 77
1, 652897, Note_on_c, 0, 43, 49
1, 652897, Control_c, 0, 64, 82
1, 652910, Note_off_c, 0, 71, 45
1, 652911, Control_c, 0, 64, 87
1, 652926, Control_c, 0, 64, 90
1, 652941, Control_c, 0, 64, 92
1, 652956, Control_c, 0, 64, 94
1, 652970, Note_off_c, 0, 43, 55
1, 652971, Control_c, 0, 64, 94
1, 652985, Control_c, 0, 64, 95
1, 653208, Control_c, 0, 64, 89
1, 653223, Control_c, 0, 64, 75
1, 653237, Control_c, 0, 64, 61
1, 653241, Note_on_c, 0, 75, 73
1, 653252, Control_c, 0, 64, 0
1, 653258, Note_on_c, 0, 48, 36
1, 653269, Note_on_c, 0, 67, 44
1, 653277, Note_on_c, 0, 72, 44
1, 653289, Note_off_c, 0, 77, 60
1, 653328, Control_c, 0, 64, 52
1, 653342, Control_c, 0, 64, 65
1, 653343, Note_off_c, 0, 67, 62
1, 653357, Control_c, 0, 64, 72
1, 653372, Control_c, 0, 64, 79
1, 653378, Note_on_c, 0, 51, 47
1, 653387, Control_c, 0, 64, 83
1, 653387, Note_off_c, 0, 48, 37
1, 653402, Control_c, 0, 64, 84
1, 653408, Note_off_c, 0, 72, 55
1, 653448, Note_off_c, 0, 75, 62
1, 653474, Note_on_c, 0, 55, 46
1, 653508, Note_off_c, 0, 51, 32
1, 653548, Note_on_c, 0, 77, 64
1, 653571, Note_on_c, 0, 60, 46
1, 653592, Note_off_c, 0, 55, 37
1, 653608, Note_on_c, 0, 74, 58
1, 653616, Control_c, 0, 64, 82
1, 653630, Note_off_c, 0, 74, 67
1, 653631, Control_c, 0, 64, 78
1, 653646, Note_on_c, 0, 75, 70
1, 653646, Control_c, 0, 64, 70
1, 653660, Control_c, 0, 64, 61
1, 653662, Note_off_c, 0, 60, 49
1, 653675, Control_c, 0, 64, 0
1, 653685, Note_on_c, 0, 48, 61
1, 653686, Note_off_c, 0, 77, 45
1, 653701, Note_on_c, 0, 74, 69
1, 653733, Note_off_c, 0, 75, 62
1, 653832, Note_off_c, 0, 74, 62
1, 653832, Note_on_c, 0, 72, 69
1, 653845, Note_on_c, 0, 53, 48
1, 653852, Note_off_c, 0, 48, 50
1, 653921, Note_off_c, 0, 72, 63
1, 653927, Note_on_c, 0, 74, 68
1, 653948, Note_off_c, 0, 53, 58
1, 653954, Note_on_c, 0, 55, 47
1, 654026, Note_off_c, 0, 55, 63
1, 654042, Note_off_c, 0, 74, 60
1, 654043, Note_on_c, 0, 75, 64
1, 654051, Note_on_c, 0, 59, 46
1, 654114, Note_off_c, 0, 59, 48
1, 654157, Note_on_c, 0, 72, 66
1, 654158, Note_on_c, 0, 48, 41
1, 654189, Note_off_c, 0, 75, 57
1, 654225, Control_c, 0, 64, 21
1, 654239, Control_c, 0, 64, 55
1, 654254, Control_c, 0, 64, 63
1, 654270, Control_c, 0, 64, 65
1, 654282, Note_on_c, 0, 51, 55
1, 654291, Control_c, 0, 64, 68
1, 654306, Control_c, 0, 64, 72
1, 654321, Control_c, 0, 64, 75
1, 654336, Control_c, 0, 64, 77
1, 654337, Note_off_c, 0, 48, 35
1, 654343, Note_off_c, 0, 72, 65
1, 654351, Control_c, 0, 64, 77
1, 654365, Control_c, 0, 64, 78
1, 654380, Control_c, 0, 64, 78
1, 654389, Note_on_c, 0, 55, 58
1, 654423, Note_off_c, 0, 51, 56
1, 654449, Note_off_c, 0, 55, 64
1, 654486, Note_on_c, 0, 60, 54
1, 654544, Control_c, 0, 64, 78
1, 654557, Note_off_c, 0, 60, 58
1, 654558, Control_c, 0, 64, 75
1, 654573, Control_c, 0, 64, 69
1, 654588, Control_c, 0, 64, 62
1, 654592, Note_on_c, 0, 74, 70
1, 654601, Note_on_c, 0, 72, 71
1, 654602, Note_on_c, 0, 63, 65
1, 654602, Control_c, 0, 64, 36
1, 654617, Control_c, 0, 64, 0
1, 654687, Note_off_c, 0, 63, 62
1, 654706, Note_on_c, 0, 67, 69
1, 654711, Note_off_c, 0, 74, 60
1, 654723, Note_on_c, 0, 71, 73
1, 654732, Note_off_c, 0, 72, 62
1, 654792, Note_off_c, 0, 71, 60
1, 654811, Note_on_c, 0, 72, 77
1, 654812, Note_on_c, 0, 63, 64
1, 654869, Note_off_c, 0, 67, 35
1, 654896, Note_on_c, 0, 74, 74
1, 654916, Note_on_c, 0, 62, 59
1, 654926, Note_off_c, 0, 72, 61
1, 654994, Note_off_c, 0, 74, 60
1, 654995, Note_off_c, 0, 63, 37
1, 655008, Note_on_c, 0, 60, 69
1, 655009, Note_on_c, 0, 77, 74
1, 655025, Note_on_c, 0, 75, 79
1, 655051, Note_off_c, 0, 62, 38
1, 655100, Note_off_c, 0, 77, 59
1, 655113, Note_off_c, 0, 60, 60
1, 655125, Note_off_c, 0, 75, 66
1, 655128, Note_on_c, 0, 74, 77
1, 655132, Note_on_c, 0, 67, 62
1, 655227, Note_on_c, 0, 75, 83
1, 655235, Note_on_c, 0, 63, 64
1, 655241, Note_off_c, 0, 67, 55
1, 655245, Note_off_c, 0, 74, 52
1, 655255, Note_on_c, 0, 60, 55
1, 655277, Control_c, 0, 67, 124
1, 655292, Control_c, 0, 67, 108
1, 655295, Note_off_c, 0, 60, 60
1, 655307, Control_c, 0, 67, 88
1, 655321, Note_off_c, 0, 63, 58
1, 655322, Control_c, 0, 67, 68
1, 655336, Note_on_c, 0, 77, 78
1, 655337, Control_c, 0, 67, 53
1, 655346, Note_on_c, 0, 67, 60
1, 655352, Control_c, 0, 67, 42
1, 655367, Note_off_c, 0, 75, 62
1, 655367, Control_c, 0, 67, 38
1, 655381, Control_c, 0, 67, 37
1, 655396, Control_c, 0, 67, 36
1, 655411, Control_c, 0, 67, 36
1, 655414, Note_off_c, 0, 77, 53
1, 655425, Control_c, 0, 67, 35
1, 655432, Note_off_c, 0, 67, 58
1, 655436, Note_on_c, 0, 79, 80
1, 655446, Note_on_c, 0, 62, 50
1, 655463, Note_off_c, 0, 79, 62
1, 655468, Note_on_c, 0, 59, 15
1, 655513, Note_off_c, 0, 59, 45
1, 655523, Note_off_c, 0, 62, 60
1, 655546, Note_on_c, 0, 67, 66
1, 655559, Control_c, 0, 67, 35
1, 655573, Control_c, 0, 67, 36
1, 655603, Control_c, 0, 67, 36
1, 655632, Control_c, 0, 67, 37
1, 655668, Note_on_c, 0, 79, 76
1, 655672, Note_off_c, 0, 67, 52
1, 655673, Note_on_c, 0, 56, 45
1, 655689, Note_off_c, 0, 79, 69
1, 655699, Note_on_c, 0, 60, 50
1, 655708, Control_c, 0, 67, 37
1, 655737, Control_c, 0, 67, 38
1, 655742, Note_off_c, 0, 56, 61
1, 655762, Note_off_c, 0, 60, 61
1, 655802, Note_on_c, 0, 67, 53
1, 655819, Control_c, 0, 67, 38
1, 655849, Control_c, 0, 67, 39
1, 655893, Control_c, 0, 67, 40
1, 655923, Control_c, 0, 67, 40
1, 655925, Note_on_c, 0, 79, 86
1, 655926, Note_on_c, 0, 55, 43
1, 655937, Control_c, 0, 67, 41
1, 655967, Control_c, 0, 67, 42
1, 655982, Control_c, 0, 67, 43
1, 655997, Control_c, 0, 67, 44
1, 656002, Note_off_c, 0, 67, 37
1, 656011, Control_c, 0, 67, 45
1, 656026, Control_c, 0, 67, 48
1, 656040, Note_on_c, 0, 59, 57
1, 656041, Control_c, 0, 67, 51
1, 656055, Control_c, 0, 67, 56
1, 656058, Note_off_c, 0, 55, 37
1, 656070, Control_c, 0, 67, 65
1, 656085, Control_c, 0, 67, 74
1, 656100, Control_c, 0, 67, 83
1, 656115, Control_c, 0, 67, 91
1, 656130, Control_c, 0, 67, 97
1, 656136, Note_on_c, 0, 62, 60
1, 656145, Control_c, 0, 67, 101
1, 656160, Control_c, 0, 67, 104
1, 656175, Control_c, 0, 67, 106
1, 656180, Note_off_c, 0, 59, 52
1, 656219, Note_on_c, 0, 67, 58
1, 656234, Control_c, 0, 67, 105
1, 656249, Control_c, 0, 67, 105
1, 656263, Control_c, 0, 67, 104
1, 656278, Note_off_c, 0, 62, 36
1, 656278, Control_c, 0, 67, 104
1, 656293, Control_c, 0, 67, 103
1, 656323, Control_c, 0, 64, 8
1, 656323, Control_c, 0, 67, 102
1, 656337, Control_c, 0, 64, 19
1, 656337, Control_c, 0, 67, 102
1, 656340, Note_on_c, 0, 55, 64
1, 656352, Control_c, 0, 64, 27
1, 656352, Control_c, 0, 67, 101
1, 656367, Control_c, 0, 64, 31
1, 656367, Control_c, 0, 67, 100
1, 656381, Control_c, 0, 64, 35
1, 656381, Control_c, 0, 67, 99
1, 656396, Control_c, 0, 64, 37
1, 656411, Control_c, 0, 64, 37
1, 656411, Control_c, 0, 67, 98
1, 656419, Note_off_c, 0, 67, 37
1, 656426, Note_off_c, 0, 79, 61
1, 656441, Control_c, 0, 67, 97
1, 656442, Note_on_c, 0, 59, 56
1, 656457, Control_c, 0, 67, 96
1, 656471, Control_c, 0, 64, 37
1, 656471, Control_c, 0, 67, 95
1, 656474, Note_off_c, 0, 55, 50
1, 656486, Control_c, 0, 67, 94
1, 656501, Control_c, 0, 64, 36
1, 656501, Control_c, 0, 67, 93
1, 656514, Control_c, 0, 67, 92
1, 656537, Control_c, 0, 64, 37
1, 656537, Control_c, 0, 67, 91
1, 656547, Note_on_c, 0, 62, 53
1, 656551, Control_c, 0, 64, 38
1, 656551, Control_c, 0, 67, 90
1, 656563, Note_on_c, 0, 77, 82
1, 656566, Control_c, 0, 64, 39
1, 656566, Control_c, 0, 67, 89
1, 656574, Note_off_c, 0, 59, 51
1, 656581, Control_c, 0, 64, 40
1, 656581, Control_c, 0, 67, 87
1, 656596, Control_c, 0, 64, 42
1, 656596, Control_c, 0, 67, 86
1, 656610, Control_c, 0, 64, 44
1, 656610, Control_c, 0, 67, 85
1, 656625, Control_c, 0, 64, 46
1, 656625, Control_c, 0, 67, 84
1, 656632, Note_on_c, 0, 67, 54
1, 656640, Control_c, 0, 64, 49
1, 656640, Control_c, 0, 67, 83
1, 656650, Note_off_c, 0, 62, 56
1, 656655, Control_c, 0, 64, 51
1, 656655, Control_c, 0, 67, 82
1, 656657, Note_on_c, 0, 79, 73
1, 656663, Note_off_c, 0, 77, 61
1, 656670, Control_c, 0, 64, 52
1, 656670, Control_c, 0, 67, 81
1, 656684, Control_c, 0, 64, 53
1, 656684, Control_c, 0, 67, 80
1, 656686, Note_off_c, 0, 79, 63
1, 656699, Control_c, 0, 64, 53
1, 656714, Control_c, 0, 64, 54
1, 656714, Control_c, 0, 67, 79
1, 656729, Control_c, 0, 64, 55
1, 656729, Control_c, 0, 67, 80
1, 656744, Control_c, 0, 64, 56
1, 656759, Control_c, 0, 64, 56
1, 656759, Control_c, 0, 67, 80
1, 656759, Note_on_c, 0, 77, 64
1, 656768, Note_off_c, 0, 67, 38
1, 656774, Control_c, 0, 67, 81
1, 656780, Note_on_c, 0, 53, 58
1, 656789, Control_c, 0, 67, 82
1, 656798, Note_on_c, 0, 79, 78
1, 656803, Control_c, 0, 67, 83
1, 656818, Control_c, 0, 64, 56
1, 656818, Control_c, 0, 67, 85
1, 656832, Note_off_c, 0, 77, 59
1, 656833, Control_c, 0, 64, 54
1, 656833, Control_c, 0, 67, 87
1, 656848, Note_on_c, 0, 80, 82
1, 656848, Control_c, 0, 64, 51
1, 656848, Control_c, 0, 67, 89
1, 656863, Control_c, 0, 64, 45
1, 656863, Control_c, 0, 67, 92
1, 656877, Control_c, 0, 64, 37
1, 656877, Control_c, 0, 67, 97
1, 656892, Control_c, 0, 64, 33
1, 656892, Control_c, 0, 67, 102
1, 656907, Control_c, 0, 64, 33
1, 656907, Control_c, 0, 67, 107
1, 656915, Note_off_c, 0, 79, 57
1, 656922, Note_on_c, 0, 56, 55
1, 656922, Control_c, 0, 64, 34
1, 656922, Control_c, 0, 67, 112
1, 656929, Note_off_c, 0, 53, 56
1, 656937, Control_c, 0, 67, 118
1, 656951, Control_c, 0, 67, 122
1, 656966, Control_c, 0, 67, 125
1, 656981, Control_c, 0, 67, 126
1, 657010, Control_c, 0, 67, 126
1, 657012, Note_on_c, 0, 59, 54
1, 657025, Control_c, 0, 67, 125
1, 657034, Note_off_c, 0, 56, 54
1, 657040, Control_c, 0, 64, 33
1, 657040, Control_c, 0, 67, 123
1, 657055, Control_c, 0, 64, 33
1, 657055, Control_c, 0, 67, 121
1, 657070, Control_c, 0, 64, 32
1, 657070, Control_c, 0, 67, 119
1, 657084, Control_c, 0, 64, 31
1, 657084, Control_c, 0, 67, 117
1, 657099, Control_c, 0, 64, 29
1, 657099, Control_c, 0, 67, 116
1, 657114, Note_on_c, 0, 62, 57
1, 657114, Control_c, 0, 64, 26
1, 657114, Control_c, 0, 67, 113
1, 657129, Control_c, 0, 64, 22
1, 657129, Control_c, 0, 67, 111
1, 657143, Note_off_c, 0, 59, 58
1, 657144, Control_c, 0, 64, 19
1, 657144, Control_c, 0, 67, 110
1, 657158, Control_c, 0, 64, 15
1, 657158, Control_c, 0, 67, 109
1, 657173, Control_c, 0, 64, 14
1, 657188, Control_c, 0, 64, 12
1, 657203, Control_c, 0, 67, 110
1, 657218, Control_c, 0, 67, 111
1, 657233, Control_c, 0, 67, 112
1, 657245, Note_on_c, 0, 53, 53
1, 657248, Control_c, 0, 64, 15
1, 657248, Control_c, 0, 67, 113
1, 657252, Note_on_c, 0, 74, 64
1, 657263, Control_c, 0, 64, 18
1, 657263, Control_c, 0, 67, 115
1, 657286, Control_c, 0, 64, 20
1, 657286, Control_c, 0, 67, 116
1, 657297, Note_off_c, 0, 62, 36
1, 657300, Control_c, 0, 64, 23
1, 657300, Control_c, 0, 67, 118
1, 657315, Control_c, 0, 64, 26
1, 657315, Control_c, 0, 67, 119
1, 657319, Note_off_c, 0, 80, 55
1, 657330, Control_c, 0, 64, 30
1, 657330, Control_c, 0, 67, 121
1, 657345, Control_c, 0, 64, 34
1, 657345, Control_c, 0, 67, 123
1, 657360, Control_c, 0, 64, 37
1, 657360, Control_c, 0, 67, 126
1, 657374, Control_c, 0, 64, 39
1, 657374, Control_c, 0, 67, 127
1, 657376, Note_off_c, 0, 74, 63
1, 657384, Note_on_c, 0, 56, 51
1, 657389, Control_c, 0, 64, 40
1, 657404, Control_c, 0, 64, 42
1, 657418, Note_off_c, 0, 53, 58
1, 657463, Control_c, 0, 64, 41
1, 657472, Note_on_c, 0, 59, 59
1, 657477, Note_on_c, 0, 75, 77
1, 657478, Control_c, 0, 64, 40
1, 657486, Note_off_c, 0, 56, 60
1, 657493, Control_c, 0, 64, 39
1, 657507, Control_c, 0, 64, 37
1, 657522, Control_c, 0, 64, 33
1, 657537, Control_c, 0, 64, 26
1, 657552, Control_c, 0, 64, 0
1, 657573, Note_on_c, 0, 77, 74
1, 657579, Note_off_c, 0, 59, 53
1, 657582, Note_on_c, 0, 62, 56
1, 657613, Note_off_c, 0, 75, 58
1, 657669, Note_on_c, 0, 79, 78
1, 657681, Note_off_c, 0, 77, 34
1, 657685, Note_on_c, 0, 51, 63
1, 657700, Note_off_c, 0, 62, 53
1, 657778, Note_on_c, 0, 75, 66
1, 657795, Note_off_c, 0, 51, 60
1, 657796, Note_on_c, 0, 55, 55
1, 657841, Note_off_c, 0, 79, 48
1, 657877, Note_off_c, 0, 55, 62
1, 657877, Note_on_c, 0, 77, 63
1, 657881, Note_on_c, 0, 60, 64
1, 657892, Note_off_c, 0, 75, 58
1, 657951, Note_off_c, 0, 60, 61
1, 657952, Note_off_c, 0, 77, 60
1, 657984, Note_on_c, 0, 74, 64
1, 657985, Note_on_c, 0, 63, 54
1, 658065, Note_off_c, 0, 74, 58
1, 658073, Note_off_c, 0, 63, 53
1, 658095, Note_on_c, 0, 72, 67
1, 658097, Note_on_c, 0, 56, 60
1, 658141, Note_off_c, 0, 72, 63
1, 658203, Note_off_c, 0, 56, 60
1, 658223, Note_on_c, 0, 60, 53
1, 658321, Note_on_c, 0, 63, 61
1, 658329, Note_on_c, 0, 72, 71
1, 658351, Note_off_c, 0, 60, 56
1, 658415, Note_on_c, 0, 74, 69
1, 658416, Note_off_c, 0, 63, 61
1, 658427, Note_off_c, 0, 72, 58
1, 658428, Note_on_c, 0, 66, 52
1, 658479, Note_off_c, 0, 74, 63
1, 658535, Note_off_c, 0, 66, 56
1, 658536, Note_on_c, 0, 75, 79
1, 658538, Note_on_c, 0, 55, 61
1, 658624, Note_off_c, 0, 75, 62
1, 658644, Note_on_c, 0, 74, 74
1, 658646, Note_off_c, 0, 55, 62
1, 658662, Note_on_c, 0, 60, 53
1, 658748, Note_on_c, 0, 75, 74
1, 658749, Note_on_c, 0, 63, 62
1, 658755, Note_off_c, 0, 60, 56
1, 658778, Note_off_c, 0, 74, 57
1, 658842, Note_on_c, 0, 67, 58
1, 658857, Note_off_c, 0, 75, 48
1, 658863, Note_off_c, 0, 63, 56
1, 658867, Note_on_c, 0, 77, 70
1, 658971, Note_on_c, 0, 55, 57
1, 658974, Note_on_c, 0, 74, 67
1, 658984, Note_off_c, 0, 67, 36
1, 659003, Note_off_c, 0, 77, 56
1, 659059, Note_off_c, 0, 74, 62
1, 659069, Note_on_c, 0, 72, 70
1, 659076, Note_on_c, 0, 59, 54
1, 659088, Note_off_c, 0, 55, 54
1, 659162, Note_on_c, 0, 74, 66
1, 659173, Note_on_c, 0, 62, 59
1, 659174, Note_off_c, 0, 72, 62
1, 659196, Note_off_c, 0, 59, 38
1, 659236, Note_off_c, 0, 62, 60
1, 659268, Note_on_c, 0, 75, 73
1, 659270, Note_on_c, 0, 67, 63
1, 659274, Note_off_c, 0, 74, 63
1, 659362, Note_off_c, 0, 75, 59
1, 659387, Note_on_c, 0, 60, 70
1, 659387, Note_on_c, 0, 72, 68
1, 659391, Note_off_c, 0, 67, 38
1, 659480, Control_c, 0, 67, 126
1, 659494, Note_on_c, 0, 71, 79
1, 659495, Control_c, 0, 67, 111
1, 659507, Note_off_c, 0, 72, 64
1, 659509, Control_c, 0, 67, 97
1, 659531, Control_c, 0, 67, 82
1, 659546, Control_c, 0, 67, 70
1, 659561, Control_c, 0, 67, 60
1, 659576, Control_c, 0, 67, 52
1, 659591, Control_c, 0, 67, 47
1, 659603, Note_on_c, 0, 72, 80
1, 659605, Control_c, 0, 67, 41
1, 659620, Control_c, 0, 67, 37
1, 659625, Note_off_c, 0, 71, 60
1, 659635, Control_c, 0, 67, 33
1, 659650, Control_c, 0, 67, 31
1, 659665, Control_c, 0, 67, 29
1, 659672, Note_off_c, 0, 72, 64
1, 659680, Control_c, 0, 67, 25
1, 659695, Control_c, 0, 67, 19
1, 659707, Note_on_c, 0, 74, 78
1, 659710, Control_c, 0, 67, 11
1, 659725, Control_c, 0, 67, 0
1, 659770, Control_c, 0, 64, 10
1, 659784, Control_c, 0, 64, 14
1, 659799, Control_c, 0, 64, 15
1, 659818, Note_on_c, 0, 75, 84
1, 659827, Note_off_c, 0, 60, 59
1, 659838, Note_off_c, 0, 74, 62
1, 659843, Control_c, 0, 64, 17
1, 659858, Control_c, 0, 64, 18
1, 659873, Control_c, 0, 64, 19
1, 659888, Control_c, 0, 64, 21
1, 659902, Control_c, 0, 64, 23
1, 659915, Note_on_c, 0, 76, 85
1, 659917, Control_c, 0, 64, 24
1, 659932, Control_c, 0, 64, 26
1, 659944, Note_off_c, 0, 75, 64
1, 659947, Control_c, 0, 64, 26
1, 659962, Control_c, 0, 64, 28
1, 659976, Control_c, 0, 64, 29
1, 659991, Note_off_c, 0, 76, 64
1, 659991, Control_c, 0, 64, 29
1, 660020, Note_on_c, 0, 77, 80
1, 660020, Control_c, 0, 64, 30
1, 660109, Control_c, 0, 64, 29
1, 660121, Note_on_c, 0, 79, 82
1, 660151, Note_off_c, 0, 77, 60
1, 660219, Note_on_c, 0, 41, 62
1, 660223, Note_on_c, 0, 80, 87
1, 660228, Control_c, 0, 64, 30
1, 660233, Note_off_c, 0, 79, 60
1, 660243, Control_c, 0, 64, 31
1, 660258, Control_c, 0, 64, 32
1, 660280, Control_c, 0, 64, 32
1, 660294, Control_c, 0, 64, 33
1, 660309, Control_c, 0, 64, 34
1, 660336, Note_on_c, 0, 44, 56
1, 660336, Note_off_c, 0, 80, 59
1, 660338, Note_off_c, 0, 41, 58
1, 660339, Note_on_c, 0, 79, 79
1, 660339, Control_c, 0, 64, 35
1, 660354, Control_c, 0, 64, 36
1, 660369, Control_c, 0, 64, 37
1, 660384, Control_c, 0, 64, 37
1, 660398, Control_c, 0, 64, 38
1, 660441, Note_on_c, 0, 47, 67
1, 660442, Note_on_c, 0, 82, 81
1, 660443, Control_c, 0, 64, 39
1, 660458, Control_c, 0, 64, 39
1, 660461, Note_off_c, 0, 44, 61
1, 660482, Note_off_c, 0, 79, 56
1, 660518, Control_c, 0, 64, 40
1, 660525, Note_on_c, 0, 50, 62
1, 660542, Note_off_c, 0, 47, 62
1, 660548, Control_c, 0, 64, 40
1, 660553, Note_on_c, 0, 80, 87
1, 660607, Control_c, 0, 64, 41
1, 660622, Control_c, 0, 64, 41
1, 660637, Control_c, 0, 64, 42
1, 660645, Note_on_c, 0, 41, 74
1, 660654, Note_off_c, 0, 82, 54
1, 660657, Note_on_c, 0, 79, 83
1, 660663, Note_off_c, 0, 80, 62
1, 660696, Control_c, 0, 64, 41
1, 660697, Note_off_c, 0, 50, 50
1, 660711, Control_c, 0, 64, 41
1, 660725, Control_c, 0, 64, 40
1, 660740, Control_c, 0, 64, 39
1, 660754, Note_on_c, 0, 77, 82
1, 660755, Control_c, 0, 64, 39
1, 660756, Note_on_c, 0, 44, 66
1, 660768, Note_off_c, 0, 79, 60
1, 660769, Control_c, 0, 64, 38
1, 660784, Control_c, 0, 64, 36
1, 660794, Note_off_c, 0, 41, 59
1, 660799, Control_c, 0, 64, 35
1, 660814, Control_c, 0, 64, 33
1, 660829, Control_c, 0, 64, 31
1, 660832, Note_on_c, 0, 47, 66
1, 660844, Control_c, 0, 64, 29
1, 660858, Note_on_c, 0, 75, 82
1, 660858, Control_c, 0, 64, 28
1, 660885, Note_off_c, 0, 77, 58
1, 660903, Control_c, 0, 64, 28
1, 660908, Note_off_c, 0, 44, 60
1, 660917, Control_c, 0, 64, 29
1, 660944, Note_on_c, 0, 50, 74
1, 660948, Note_on_c, 0, 74, 77
1, 660959, Note_off_c, 0, 75, 61
1, 660962, Control_c, 0, 64, 30
1, 660992, Note_off_c, 0, 47, 60
1, 661071, Note_on_c, 0, 79, 79
1, 661075, Note_on_c, 0, 39, 72
1, 661089, Control_c, 0, 64, 29
1, 661104, Control_c, 0, 64, 28
1, 661111, Note_off_c, 0, 50, 54
1, 661119, Control_c, 0, 64, 26
1, 661133, Control_c, 0, 64, 23
1, 661147, Note_off_c, 0, 74, 57
1, 661148, Control_c, 0, 64, 19
1, 661163, Control_c, 0, 64, 15
1, 661177, Note_on_c, 0, 78, 83
1, 661177, Control_c, 0, 64, 12
1, 661188, Note_on_c, 0, 43, 72
1, 661192, Control_c, 0, 64, 10
1, 661208, Note_off_c, 0, 79, 60
1, 661225, Note_off_c, 0, 39, 61
1, 661253, Control_c, 0, 64, 12
1, 661267, Control_c, 0, 64, 14
1, 661281, Note_on_c, 0, 80, 85
1, 661282, Control_c, 0, 64, 17
1, 661288, Note_on_c, 0, 48, 77
1, 661297, Control_c, 0, 64, 19
1, 661304, Note_off_c, 0, 78, 62
1, 661312, Control_c, 0, 64, 22
1, 661315, Note_off_c, 0, 43, 60
1, 661327, Control_c, 0, 64, 23
1, 661356, Control_c, 0, 64, 24
1, 661384, Note_on_c, 0, 79, 76
1, 661389, Note_off_c, 0, 48, 62
1, 661392, Note_on_c, 0, 51, 69
1, 661430, Control_c, 0, 64, 23
1, 661445, Control_c, 0, 64, 23
1, 661460, Control_c, 0, 64, 22
1, 661475, Control_c, 0, 64, 21
1, 661487, Note_on_c, 0, 77, 85
1, 661489, Control_c, 0, 64, 19
1, 661494, Note_on_c, 0, 44, 85
1, 661498, Note_off_c, 0, 80, 30
1, 661521, Note_off_c, 0, 51, 57
1, 661526, Note_off_c, 0, 79, 58
1, 661549, Control_c, 0, 64, 20
1, 661564, Control_c, 0, 64, 22
1, 661579, Control_c, 0, 64, 23
1, 661588, Note_on_c, 0, 75, 86
1, 661594, Control_c, 0, 64, 26
1, 661598, Note_on_c, 0, 48, 74
1, 661607, Note_off_c, 0, 77, 61
1, 661608, Control_c, 0, 64, 26
1, 661614, Note_off_c, 0, 44, 61
1, 661623, Control_c, 0, 64, 27
1, 661638, Control_c, 0, 64, 28
1, 661660, Note_off_c, 0, 75, 65
1, 661684, Note_on_c, 0, 51, 72
1, 661686, Note_on_c, 0, 74, 82
1, 661697, Control_c, 0, 64, 28
1, 661750, Note_off_c, 0, 48, 38
1, 661794, Control_c, 0, 64, 27
1, 661796, Note_on_c, 0, 54, 66
1, 661796, Note_on_c, 0, 72, 76
1, 661796, Note_off_c, 0, 51, 61
1, 661808, Control_c, 0, 64, 26
1, 661810, Note_off_c, 0, 74, 60
1, 661823, Control_c, 0, 64, 23
1, 661838, Control_c, 0, 64, 22
1, 661853, Control_c, 0, 64, 20
1, 661868, Control_c, 0, 64, 19
1, 661882, Control_c, 0, 64, 18
1, 661893, Note_on_c, 0, 43, 83
1, 661902, Note_on_c, 0, 75, 83
1, 661912, Control_c, 0, 64, 17
1, 661916, Note_off_c, 0, 72, 62
1, 661921, Note_off_c, 0, 54, 54
1, 661941, Control_c, 0, 64, 18
1, 661971, Control_c, 0, 64, 19
1, 661995, Note_on_c, 0, 74, 76
1, 662000, Control_c, 0, 64, 20
1, 662005, Note_off_c, 0, 75, 61
1, 662007, Note_on_c, 0, 48, 69
1, 662030, Control_c, 0, 64, 21
1, 662060, Note_off_c, 0, 43, 45
1, 662090, Control_c, 0, 64, 22
1, 662095, Note_on_c, 0, 51, 70
1, 662105, Control_c, 0, 64, 23
1, 662112, Note_on_c, 0, 77, 84
1, 662120, Control_c, 0, 64, 23
1, 662164, Note_off_c, 0, 74, 63
1, 662168, Note_off_c, 0, 48, 53
1, 662194, Control_c, 0, 64, 24
1, 662198, Note_off_c, 0, 51, 62
1, 662203, Note_on_c, 0, 55, 65
1, 662209, Control_c, 0, 64, 26
1, 662216, Note_on_c, 0, 75, 81
1, 662223, Control_c, 0, 64, 26
1, 662266, Note_off_c, 0, 77, 54
1, 662283, Control_c, 0, 64, 26
1, 662297, Control_c, 0, 64, 23
1, 662307, Note_off_c, 0, 55, 54
1, 662312, Control_c, 0, 64, 0
1, 662313, Note_on_c, 0, 74, 80
1, 662321, Note_on_c, 0, 43, 81
1, 662342, Note_off_c, 0, 75, 62
1, 662399, Note_off_c, 0, 43, 61
1, 662408, Note_on_c, 0, 73, 83
1, 662417, Note_off_c, 0, 74, 61
1, 662428, Note_on_c, 0, 55, 68
1, 662511, Note_off_c, 0, 55, 61
1, 662530, Note_on_c, 0, 75, 75
1, 662532, Note_on_c, 0, 43, 74
1, 662545, Note_off_c, 0, 73, 57
1, 662601, Note_off_c, 0, 43, 62
1, 662624, Note_on_c, 0, 74, 73
1, 662632, Note_on_c, 0, 55, 66
1, 662658, Note_off_c, 0, 55, 66
1, 662680, Note_off_c, 0, 75, 59
1, 662739, Note_on_c, 0, 48, 75
1, 662740, Note_on_c, 0, 72, 76
1, 662783, Note_off_c, 0, 74, 60
1, 662806, Note_off_c, 0, 48, 61
1, 662831, Note_on_c, 0, 60, 70
1, 662888, Note_off_c, 0, 72, 63
1, 662923, Note_off_c, 0, 60, 56
1, 662947, Note_on_c, 0, 59, 64
1, 662998, Note_off_c, 0, 59, 60
1, 663037, Note_on_c, 0, 60, 65
1, 663123, Note_off_c, 0, 60, 57
1, 663161, Note_on_c, 0, 58, 72
1, 663212, Note_off_c, 0, 58, 62
1, 663237, Note_on_c, 0, 84, 55
1, 663251, Note_on_c, 0, 60, 65
1, 663272, Note_off_c, 0, 84, 65
1, 663297, Note_on_c, 0, 86, 71
1, 663299, Note_off_c, 0, 60, 54
1, 663347, Note_off_c, 0, 86, 62
1, 663356, Note_on_c, 0, 88, 65
1, 663382, Note_on_c, 0, 55, 49
1, 663416, Note_off_c, 0, 88, 62
1, 663421, Note_on_c, 0, 86, 66
1, 663432, Note_off_c, 0, 55, 63
1, 663467, Note_off_c, 0, 86, 59
1, 663489, Note_on_c, 0, 60, 46
1, 663500, Note_on_c, 0, 84, 69
1, 663553, Note_off_c, 0, 60, 54
1, 663581, Note_on_c, 0, 89, 93
1, 663585, Note_on_c, 0, 56, 61
1, 663619, Note_off_c, 0, 84, 65
1, 663647, Control_c, 0, 64, 10
1, 663656, Note_off_c, 0, 56, 60
1, 663676, Control_c, 0, 64, 8
1, 663690, Note_off_c, 0, 89, 62
1, 663692, Note_on_c, 0, 60, 56
1, 663706, Control_c, 0, 64, 10
1, 663736, Control_c, 0, 64, 0
1, 663778, Note_off_c, 0, 60, 52
1, 663812, Note_on_c, 0, 53, 58
1, 663875, Note_off_c, 0, 53, 63
1, 663911, Note_on_c, 0, 60, 54
1, 664007, Note_off_c, 0, 60, 60
1, 664019, Note_on_c, 0, 58, 73
1, 664073, Note_off_c, 0, 58, 63
1, 664083, Note_on_c, 0, 84, 56
1, 664125, Note_on_c, 0, 60, 62
1, 664135, Note_off_c, 0, 84, 64
1, 664165, Note_on_c, 0, 86, 57
1, 664194, Note_off_c, 0, 86, 56
1, 664196, Note_off_c, 0, 60, 58
1, 664205, Note_on_c, 0, 88, 73
1, 664228, Note_on_c, 0, 55, 51
1, 664274, Note_off_c, 0, 55, 64
1, 664285, Note_off_c, 0, 88, 62
1, 664287, Note_on_c, 0, 86, 64
1, 664326, Note_on_c, 0, 60, 51
1, 664338, Note_on_c, 0, 84, 73
1, 664347, Note_off_c, 0, 86, 62
1, 664414, Note_on_c, 0, 89, 100
1, 664422, Note_off_c, 0, 60, 62
1, 664423, Note_on_c, 0, 56, 67
1, 664469, Note_off_c, 0, 84, 62
1, 664470, Control_c, 0, 64, 19
1, 664499, Control_c, 0, 64, 15
1, 664500, Note_off_c, 0, 56, 61
1, 664514, Control_c, 0, 64, 10
1, 664529, Control_c, 0, 64, 8
1, 664537, Note_on_c, 0, 60, 66
1, 664559, Control_c, 0, 64, 0
1, 664575, Note_off_c, 0, 89, 66
1, 664636, Note_on_c, 0, 53, 75
1, 664645, Note_off_c, 0, 60, 61
1, 664715, Note_off_c, 0, 53, 63
1, 664734, Note_on_c, 0, 60, 65
1, 664835, Note_on_c, 0, 58, 84
1, 664836, Note_off_c, 0, 60, 59
1, 664848, Control_c, 0, 64, 23
1, 664863, Control_c, 0, 64, 0
1, 664888, Note_off_c, 0, 58, 63
1, 664911, Note_on_c, 0, 84, 68
1, 664935, Note_on_c, 0, 60, 67
1, 664965, Note_off_c, 0, 84, 64
1, 664986, Note_on_c, 0, 86, 77
1, 665006, Note_off_c, 0, 60, 60
1, 665016, Poly_aftertouch_c, 0, 91, 0
1, 665037, Note_off_c, 0, 86, 61
1, 665049, Note_on_c, 0, 55, 61
1, 665058, Note_on_c, 0, 88, 78
1, 665085, Note_off_c, 0, 55, 64
1, 665127, Note_off_c, 0, 88, 62
1, 665130, Note_on_c, 0, 60, 69
1, 665136, Note_on_c, 0, 86, 69
1, 665195, Note_off_c, 0, 86, 62
1, 665196, Note_on_c, 0, 84, 51
1, 665241, Note_on_c, 0, 89, 97
1, 665242, Note_on_c, 0, 56, 72
1, 665243, Note_off_c, 0, 56, 127
1, 665252, Note_on_c, 0, 57, 82
1, 665260, Note_off_c, 0, 84, 65
1, 665262, Note_off_c, 0, 60, 49
1, 665263, Control_c, 0, 64, 62
1, 665272, Note_off_c, 0, 57, 71
1, 665274, Note_off_c, 0, 89, 65
1, 665278, Control_c, 0, 64, 59
1, 665293, Control_c, 0, 64, 0
1, 665443, Note_on_c, 0, 72, 95
1, 665445, Note_on_c, 0, 84, 95
1, 665447, Note_on_c, 0, 56, 101
1, 665448, Note_on_c, 0, 78, 93
1, 665451, Note_on_c, 0, 75, 87
1, 665454, Note_on_c, 0, 44, 77
1, 665456, Note_on_c, 0, 48, 75
1, 665458, Note_on_c, 0, 51, 73
1, 665520, Note_on_c, 0, 43, 10
1, 665522, Note_off_c, 0, 75, 65
1, 665526, Note_off_c, 0, 44, 63
1, 665532, Note_off_c, 0, 43, 37
1, 665540, Note_off_c, 0, 51, 60
1, 665545, Note_off_c, 0, 72, 62
1, 665548, Note_off_c, 0, 48, 55
1, 665551, Note_off_c, 0, 84, 61
1, 665555, Note_off_c, 0, 56, 58
1, 665609, Note_off_c, 0, 78, 54
1, 665654, Note_on_c, 0, 84, 98
1, 665656, Note_on_c, 0, 72, 92
1, 665657, Note_on_c, 0, 79, 86
1, 665658, Note_on_c, 0, 75, 89
1, 665660, Note_on_c, 0, 48, 89
1, 665660, Note_on_c, 0, 55, 98
1, 665663, Note_on_c, 0, 43, 84
1, 665665, Note_on_c, 0, 51, 84
1, 665734, Note_off_c, 0, 43, 62
1, 665737, Note_off_c, 0, 84, 60
1, 665749, Note_off_c, 0, 51, 61
1, 665751, Note_off_c, 0, 55, 60
1, 665755, Note_off_c, 0, 48, 60
1, 665763, Note_off_c, 0, 72, 62
1, 665765, Note_off_c, 0, 79, 58
1, 665773, Note_off_c, 0, 75, 62
1, 665862, Note_on_c, 0, 79, 92
1, 665863, Note_on_c, 0, 74, 86
1, 665864, Note_on_c, 0, 71, 95
1, 665865, Note_on_c, 0, 55, 91
1, 665865, Note_on_c, 0, 83, 77
1, 665865, Note_on_c, 0, 47, 86
1, 665869, Note_on_c, 0, 50, 83
1, 665883, Note_on_c, 0, 43, 74
1, 665892, Note_on_c, 0, 81, 47
1, 665893, Note_off_c, 0, 81, 127
1, 665901, Note_on_c, 0, 45, 58
1, 665917, Note_off_c, 0, 74, 67
1, 665923, Note_off_c, 0, 55, 62
1, 665925, Note_off_c, 0, 79, 63
1, 665928, Note_off_c, 0, 45, 56
1, 665928, Note_off_c, 0, 50, 62
1, 665937, Note_off_c, 0, 47, 63
1, 665949, Note_off_c, 0, 83, 61
1, 665950, Note_off_c, 0, 43, 63
1, 665983, Note_off_c, 0, 71, 60
1, 666026, Control_c, 0, 64, 47
1, 666042, Control_c, 0, 64, 57
1, 666056, Control_c, 0, 64, 56
1, 666068, Note_on_c, 0, 36, 90
1, 666071, Note_on_c, 0, 79, 86
1, 666071, Control_c, 0, 64, 54
1, 666072, Note_on_c, 0, 84, 96
1, 666073, Note_on_c, 0, 72, 93
1, 666077, Note_on_c, 0, 75, 93
1, 666086, Control_c, 0, 64, 53
1, 666101, Control_c, 0, 64, 52
1, 666131, Control_c, 0, 64, 51
1, 666146, Control_c, 0, 64, 44
1, 666161, Control_c, 0, 64, 18
1, 666175, Control_c, 0, 64, 0
1, 666176, Note_on_c, 0, 48, 77
1, 666178, Note_off_c, 0, 36, 63
1, 666181, Note_off_c, 0, 84, 61
1, 666219, Note_on_c, 0, 81, 4
1, 666223, Note_off_c, 0, 72, 64
1, 666266, Note_off_c, 0, 79, 58
1, 666275, Note_off_c, 0, 81, 34
1, 666280, Note_off_c, 0, 48, 60
1, 666293, Note_on_c, 0, 47, 69
1, 666300, Note_off_c, 0, 75, 63
1, 666353, Note_off_c, 0, 47, 62
1, 666387, Note_on_c, 0, 48, 63
1, 666463, Note_off_c, 0, 48, 61
1, 666490, Note_on_c, 0, 46, 69
1, 666551, Note_off_c, 0, 46, 63
1, 666575, Note_on_c, 0, 72, 58
1, 666585, Note_on_c, 0, 48, 70
1, 666614, Poly_aftertouch_c, 0, 79, 127
1, 666616, Note_off_c, 0, 72, 63
1, 666623, Note_off_c, 0, 48, 56
1, 666645, Note_on_c, 0, 74, 69
1, 666667, Poly_aftertouch_c, 0, 79, 0
1, 666697, Note_on_c, 0, 43, 53
1, 666700, Note_off_c, 0, 74, 63
1, 666703, Note_on_c, 0, 76, 70
1, 666763, Note_off_c, 0, 43, 61
1, 666768, Note_off_c, 0, 76, 63
1, 666772, Note_on_c, 0, 74, 65
1, 666804, Note_on_c, 0, 48, 66
1, 666820, Note_on_c, 0, 72, 71
1, 666830, Note_off_c, 0, 74, 64
1, 666886, Note_on_c, 0, 77, 97
1, 666890, Note_on_c, 0, 44, 71
1, 666890, Note_off_c, 0, 48, 62
1, 666909, Control_c, 0, 64, 12
1, 666924, Control_c, 0, 64, 21
1, 666939, Control_c, 0, 64, 22
1, 666953, Note_off_c, 0, 72, 59
1, 666953, Control_c, 0, 64, 20
1, 666968, Control_c, 0, 64, 12
1, 666983, Control_c, 0, 64, 0
1, 666986, Note_off_c, 0, 44, 63
1, 667003, Note_on_c, 0, 48, 72
1, 667060, Note_off_c, 0, 77, 60
1, 667076, Note_off_c, 0, 48, 58
1, 667107, Note_on_c, 0, 41, 75
1, 667177, Note_off_c, 0, 41, 64
1, 667202, Note_on_c, 0, 48, 67
1, 667305, Note_on_c, 0, 46, 82
1, 667307, Note_off_c, 0, 48, 61
1, 667375, Note_on_c, 0, 72, 63
1, 667377, Note_off_c, 0, 46, 62
1, 667404, Note_on_c, 0, 48, 70
1, 667422, Note_off_c, 0, 72, 63
1, 667443, Note_on_c, 0, 74, 72
1, 667495, Note_off_c, 0, 48, 60
1, 667499, Note_off_c, 0, 74, 60
1, 667503, Note_on_c, 0, 76, 73
1, 667514, Note_on_c, 0, 43, 56
1, 667574, Note_off_c, 0, 76, 65
1, 667578, Note_on_c, 0, 74, 61
1, 667582, Note_off_c, 0, 43, 62
1, 667614, Note_on_c, 0, 48, 66
1, 667621, Note_off_c, 0, 74, 60
1, 667633, Note_on_c, 0, 72, 66
1, 667688, Control_c, 0, 64, 57
1, 667698, Note_on_c, 0, 77, 98
1, 667702, Note_on_c, 0, 44, 67
1, 667702, Control_c, 0, 64, 63
1, 667711, Note_off_c, 0, 48, 61
1, 667717, Control_c, 0, 64, 59
1, 667729, Note_on_c, 0, 45, 68
1, 667732, Control_c, 0, 64, 58
1, 667746, Note_off_c, 0, 72, 62
1, 667747, Control_c, 0, 64, 58
1, 667784, Control_c, 0, 64, 57
1, 667794, Note_off_c, 0, 45, 64
1, 667799, Control_c, 0, 64, 55
1, 667809, Note_off_c, 0, 44, 45
1, 667814, Note_on_c, 0, 48, 82
1, 667814, Control_c, 0, 64, 47
1, 667829, Control_c, 0, 64, 29
1, 667843, Control_c, 0, 64, 0
1, 667877, Note_off_c, 0, 48, 59
1, 667877, Note_off_c, 0, 77, 61
1, 667920, Note_on_c, 0, 41, 79
1, 668013, Note_on_c, 0, 48, 79
1, 668032, Note_off_c, 0, 41, 61
1, 668099, Note_off_c, 0, 48, 55
1, 668112, Note_on_c, 0, 46, 83
1, 668169, Note_on_c, 0, 60, 66
1, 668194, Note_off_c, 0, 46, 57
1, 668208, Note_on_c, 0, 48, 77
1, 668225, Note_off_c, 0, 60, 62
1, 668247, Note_on_c, 0, 62, 71
1, 668270, Note_off_c, 0, 48, 60
1, 668299, Note_off_c, 0, 62, 62
1, 668308, Note_on_c, 0, 43, 75
1, 668313, Note_on_c, 0, 64, 75
1, 668367, Note_off_c, 0, 43, 54
1, 668375, Note_on_c, 0, 62, 63
1, 668383, Note_off_c, 0, 64, 62
1, 668393, Note_on_c, 0, 48, 66
1, 668427, Note_on_c, 0, 60, 69
1, 668439, Note_off_c, 0, 62, 60
1, 668454, Note_off_c, 0, 48, 54
1, 668481, Note_on_c, 0, 44, 73
1, 668498, Note_off_c, 0, 60, 61
1, 668518, Note_on_c, 0, 65, 84
1, 668521, Note_off_c, 0, 44, 66
1, 668594, Note_off_c, 0, 65, 62
1, 668604, Note_on_c, 0, 60, 60
1, 668647, Note_off_c, 0, 60, 60
1, 668665, Note_on_c, 0, 62, 71
1, 668705, Note_on_c, 0, 56, 96
1, 668709, Note_on_c, 0, 44, 86
1, 668718, Note_off_c, 0, 62, 55
1, 668727, Note_on_c, 0, 63, 72
1, 668742, Note_off_c, 0, 44, 66
1, 668746, Note_off_c, 0, 56, 65
1, 668806, Note_on_c, 0, 62, 54
1, 668808, Note_off_c, 0, 63, 59
1, 668844, Note_off_c, 0, 62, 59
1, 668857, Note_on_c, 0, 60, 66
1, 668913, Note_off_c, 0, 60, 61
1, 668927, Note_on_c, 0, 66, 92
1, 669016, Note_on_c, 0, 60, 66
1, 669021, Note_off_c, 0, 66, 64
1, 669052, Note_off_c, 0, 60, 59
1, 669077, Note_on_c, 0, 62, 77
1, 669127, Note_off_c, 0, 62, 61
1, 669140, Note_on_c, 0, 56, 99
1, 669145, Note_on_c, 0, 48, 78
1, 669149, Note_on_c, 0, 51, 81
1, 669150, Note_on_c, 0, 44, 78
1, 669151, Note_on_c, 0, 63, 85
1, 669176, Note_off_c, 0, 51, 64
1, 669190, Note_off_c, 0, 56, 61
1, 669200, Note_off_c, 0, 44, 62
1, 669204, Note_off_c, 0, 48, 61
1, 669222, Note_on_c, 0, 62, 69
1, 669246, Note_off_c, 0, 63, 56
1, 669286, Note_on_c, 0, 60, 66
1, 669293, Note_off_c, 0, 62, 60
1, 669338, Note_off_c, 0, 60, 62
1, 669374, Note_on_c, 0, 67, 96
1, 669451, Note_on_c, 0, 60, 78
1, 669464, Note_off_c, 0, 67, 55
1, 669499, Note_off_c, 0, 60, 59
1, 669526, Note_on_c, 0, 62, 77
1, 669579, Note_off_c, 0, 62, 54
1, 669582, Note_on_c, 0, 55, 101
1, 669586, Note_on_c, 0, 43, 93
1, 669588, Note_on_c, 0, 48, 81
1, 669593, Note_on_c, 0, 63, 90
1, 669595, Note_on_c, 0, 51, 81
1, 669628, Note_off_c, 0, 43, 62
1, 669631, Note_off_c, 0, 55, 59
1, 669654, Note_off_c, 0, 48, 61
1, 669657, Note_off_c, 0, 51, 59
1, 669663, Note_on_c, 0, 62, 73
1, 669701, Note_off_c, 0, 63, 59
1, 669723, Note_off_c, 0, 62, 64
1, 669727, Note_on_c, 0, 60, 74
1, 669782, Note_off_c, 0, 60, 62
1, 669815, Note_on_c, 0, 69, 95
1, 669891, Note_on_c, 0, 60, 76
1, 669925, Note_off_c, 0, 69, 57
1, 669951, Note_off_c, 0, 60, 62
1, 669973, Note_on_c, 0, 62, 69
1, 670009, Note_off_c, 0, 62, 61
1, 670024, Note_on_c, 0, 64, 10
1, 670025, Note_off_c, 0, 64, 127
1, 670031, Note_on_c, 0, 54, 101
1, 670037, Note_on_c, 0, 48, 81
1, 670038, Note_on_c, 0, 42, 84
1, 670038, Note_on_c, 0, 51, 83
1, 670041, Note_on_c, 0, 63, 85
1, 670059, Control_c, 0, 64, 14
1, 670074, Control_c, 0, 64, 23
1, 670085, Note_off_c, 0, 42, 62
1, 670089, Control_c, 0, 64, 23
1, 670101, Note_on_c, 0, 62, 75
1, 670102, Note_off_c, 0, 54, 58
1, 670104, Control_c, 0, 64, 22
1, 670113, Note_off_c, 0, 48, 61
1, 670114, Note_off_c, 0, 63, 63
1, 670117, Note_off_c, 0, 51, 60
1, 670118, Control_c, 0, 64, 19
1, 670133, Control_c, 0, 64, 12
1, 670148, Control_c, 0, 64, 0
1, 670170, Note_off_c, 0, 62, 57
1, 670171, Note_on_c, 0, 60, 72
1, 670223, Note_off_c, 0, 60, 62
1, 670256, Note_on_c, 0, 71, 98
1, 670331, Note_off_c, 0, 71, 51
1, 670332, Note_on_c, 0, 59, 71
1, 670370, Control_c, 0, 64, 10
1, 670385, Control_c, 0, 64, 21
1, 670399, Note_on_c, 0, 60, 70
1, 670399, Control_c, 0, 64, 28
1, 670413, Note_off_c, 0, 59, 64
1, 670414, Control_c, 0, 64, 29
1, 670429, Control_c, 0, 64, 30
1, 670445, Note_off_c, 0, 60, 48
1, 670453, Note_on_c, 0, 62, 85
1, 670459, Control_c, 0, 64, 29
1, 670460, Note_on_c, 0, 47, 88
1, 670460, Note_on_c, 0, 53, 95
1, 670462, Note_on_c, 0, 50, 86
1, 670462, Note_on_c, 0, 41, 87
1, 670473, Control_c, 0, 64, 24
1, 670488, Control_c, 0, 64, 20
1, 670503, Control_c, 0, 64, 15
1, 670510, Note_off_c, 0, 53, 63
1, 670514, Note_off_c, 0, 41, 64
1, 670518, Control_c, 0, 64, 0
1, 670522, Note_on_c, 0, 60, 79
1, 670523, Note_off_c, 0, 62, 63
1, 670528, Note_off_c, 0, 50, 61
1, 670545, Note_off_c, 0, 47, 64
1, 670555, Note_off_c, 0, 60, 60
1, 670588, Note_on_c, 0, 59, 64
1, 670646, Note_off_c, 0, 59, 60
1, 670681, Note_on_c, 0, 72, 99
1, 670710, Control_c, 0, 64, 14
1, 670725, Control_c, 0, 64, 28
1, 670740, Control_c, 0, 64, 36
1, 670745, Note_off_c, 0, 72, 57
1, 670762, Control_c, 0, 64, 41
1, 670773, Note_on_c, 0, 60, 71
1, 670777, Control_c, 0, 64, 44
1, 670792, Control_c, 0, 64, 45
1, 670822, Control_c, 0, 64, 46
1, 670832, Note_on_c, 0, 62, 75
1, 670838, Control_c, 0, 64, 47
1, 670851, Note_off_c, 0, 60, 62
1, 670853, Control_c, 0, 64, 48
1, 670871, Note_off_c, 0, 62, 51
1, 670882, Control_c, 0, 64, 46
1, 670897, Control_c, 0, 64, 38
1, 670898, Note_on_c, 0, 51, 97
1, 670899, Note_on_c, 0, 48, 87
1, 670899, Note_on_c, 0, 63, 78
1, 670901, Note_on_c, 0, 43, 84
1, 670905, Note_on_c, 0, 39, 76
1, 670911, Control_c, 0, 64, 0
1, 670934, Note_off_c, 0, 39, 67
1, 670959, Note_off_c, 0, 63, 66
1, 670964, Note_on_c, 0, 62, 78
1, 670964, Note_off_c, 0, 43, 61
1, 670966, Note_off_c, 0, 48, 59
1, 670981, Note_off_c, 0, 51, 49
1, 671005, Note_off_c, 0, 62, 60
1, 671031, Note_on_c, 0, 60, 70
1, 671092, Note_off_c, 0, 60, 60
1, 671124, Note_on_c, 0, 74, 89
1, 671138, Note_on_c, 0, 72, 62
1, 671148, Control_c, 0, 64, 65
1, 671163, Control_c, 0, 64, 69
1, 671174, Note_off_c, 0, 72, 0
1, 671192, Note_on_c, 0, 62, 78
1, 671192, Note_on_c, 0, 72, 19
1, 671230, Note_off_c, 0, 74, 57
1, 671234, Note_off_c, 0, 72, 50
1, 671300, Note_off_c, 0, 62, 61
1, 671311, Control_c, 0, 64, 68
1, 671324, Note_on_c, 0, 50, 87
1, 671326, Note_on_c, 0, 65, 74
1, 671326, Control_c, 0, 64, 64
1, 671326, Note_on_c, 0, 53, 89
1, 671327, Note_on_c, 0, 44, 82
1, 671329, Note_on_c, 0, 41, 83
1, 671341, Control_c, 0, 64, 43
1, 671356, Control_c, 0, 64, 0
1, 671365, Note_off_c, 0, 41, 63
1, 671380, Note_off_c, 0, 53, 63
1, 671386, Note_off_c, 0, 44, 61
1, 671387, Note_off_c, 0, 50, 56
1, 671428, Note_on_c, 0, 62, 51
1, 671433, Note_off_c, 0, 65, 56
1, 671476, Note_off_c, 0, 62, 0
1, 671476, Note_on_c, 0, 62, 51
1, 671540, Note_off_c, 0, 62, 63
1, 671571, Control_c, 0, 64, 44
1, 671576, Note_on_c, 0, 71, 100
1, 671586, Control_c, 0, 64, 71
1, 671601, Control_c, 0, 64, 81
1, 671616, Control_c, 0, 64, 85
1, 671645, Note_off_c, 0, 71, 59
1, 671660, Note_on_c, 0, 59, 81
1, 671720, Control_c, 0, 64, 77
1, 671735, Note_on_c, 0, 60, 63
1, 671735, Control_c, 0, 64, 58
1, 671738, Note_off_c, 0, 59, 65
1, 671750, Control_c, 0, 64, 0
1, 671760, Note_off_c, 0, 60, 54
1, 671778, Note_on_c, 0, 50, 80
1, 671779, Note_on_c, 0, 55, 80
1, 671780, Note_on_c, 0, 43, 73
1, 671782, Note_on_c, 0, 62, 80
1, 671795, Note_on_c, 0, 47, 55
1, 671802, Note_off_c, 0, 55, 70
1, 671804, Note_off_c, 0, 50, 68
1, 671809, Note_on_c, 0, 48, 46
1, 671819, Note_off_c, 0, 47, 62
1, 671821, Note_off_c, 0, 43, 62
1, 671840, Note_off_c, 0, 48, 34
1, 671843, Note_on_c, 0, 60, 72
1, 671844, Note_off_c, 0, 62, 62
1, 671869, Note_on_c, 0, 59, 31
1, 671870, Note_off_c, 0, 59, 127
1, 671898, Note_off_c, 0, 60, 61
1, 671899, Note_on_c, 0, 59, 12
1, 671948, Note_off_c, 0, 59, 62
1, 671997, Note_on_c, 0, 39, 85
1, 671999, Note_on_c, 0, 50, 86
1, 672002, Note_on_c, 0, 72, 95
1, 672006, Note_on_c, 0, 60, 92
1, 672008, Note_on_c, 0, 48, 70
1, 672023, Note_off_c, 0, 50, 69
1, 672024, Note_on_c, 0, 37, 43
1, 672025, Note_off_c, 0, 37, 127
1, 672025, Note_off_c, 0, 39, 65
1, 672029, Note_off_c, 0, 48, 63
1, 672174, Note_off_c, 0, 60, 60
1, 672275, Note_on_c, 0, 60, 100
1, 672284, Note_off_c, 0, 72, 63
1, 672287, Note_on_c, 0, 51, 82
1, 672288, Note_on_c, 0, 55, 74
1, 672546, Note_on_c, 0, 79, 98
1, 672573, Control_c, 0, 64, 65
1, 672588, Control_c, 0, 64, 108
1, 672603, Control_c, 0, 64, 127
1, 672737, Note_off_c, 0, 51, 55
1, 672739, Note_off_c, 0, 55, 56
1, 672763, Note_off_c, 0, 60, 53
1, 672778, Note_off_c, 0, 79, 56
1, 672780, Note_on_c, 0, 77, 80
1, 672836, Note_on_c, 0, 75, 84
1, 672860, Note_off_c, 0, 77, 58
1, 672878, Note_on_c, 0, 74, 81
1, 672918, Note_off_c, 0, 75, 60
1, 672931, Note_on_c, 0, 72, 86
1, 672938, Note_off_c, 0, 74, 68
1, 672944, Control_c, 0, 64, 83
1, 672958, Control_c, 0, 64, 60
1, 672973, Control_c, 0, 64, 0
1, 672976, Note_off_c, 0, 72, 63
1, 672979, Note_on_c, 0, 62, 77
1, 672984, Note_on_c, 0, 53, 63
1, 672991, Note_on_c, 0, 60, 55
1, 673001, Note_on_c, 0, 56, 58
1, 673005, Note_on_c, 0, 74, 92
1, 673019, Note_off_c, 0, 60, 63
1, 673026, Note_off_c, 0, 53, 67
1, 673028, Note_off_c, 0, 62, 56
1, 673030, Note_off_c, 0, 56, 65
1, 673226, Note_on_c, 0, 62, 92
1, 673233, Note_on_c, 0, 55, 79
1, 673234, Note_on_c, 0, 59, 81
1, 673257, Note_off_c, 0, 74, 67
1, 673466, Note_on_c, 0, 77, 99
1, 673486, Control_c, 0, 64, 44
1, 673500, Control_c, 0, 64, 60
1, 673515, Control_c, 0, 64, 60
1, 673530, Control_c, 0, 64, 64
1, 673545, Control_c, 0, 64, 74
1, 673560, Control_c, 0, 64, 127
1, 673692, Note_on_c, 0, 75, 73
1, 673698, Note_off_c, 0, 62, 56
1, 673706, Note_off_c, 0, 55, 62
1, 673711, Note_off_c, 0, 59, 62
1, 673780, Note_on_c, 0, 74, 78
1, 673784, Note_off_c, 0, 77, 53
1, 673823, Note_on_c, 0, 72, 73
1, 673836, Note_off_c, 0, 75, 58
1, 673849, Note_off_c, 0, 74, 60
1, 673858, Note_on_c, 0, 71, 77
1, 673871, Note_off_c, 0, 72, 62
1, 673903, Note_off_c, 0, 71, 62
1, 673906, Control_c, 0, 64, 78
1, 673921, Control_c, 0, 64, 56
1, 673924, Note_on_c, 0, 60, 76
1, 673927, Note_on_c, 0, 72, 88
1, 673930, Note_on_c, 0, 51, 64
1, 673936, Control_c, 0, 64, 0
1, 673944, Note_on_c, 0, 55, 56
1, 673971, Note_off_c, 0, 51, 57
1, 673983, Note_off_c, 0, 60, 61
1, 673984, Note_off_c, 0, 55, 63
1, 674139, Note_on_c, 0, 60, 92
1, 674147, Note_off_c, 0, 72, 60
1, 674150, Note_on_c, 0, 51, 82
1, 674152, Note_on_c, 0, 55, 72
1, 674396, Control_c, 0, 64, 51
1, 674398, Note_on_c, 0, 79, 100
1, 674411, Control_c, 0, 64, 72
1, 674426, Control_c, 0, 64, 127
1, 674608, Note_off_c, 0, 55, 62
1, 674609, Note_off_c, 0, 51, 51
1, 674623, Note_off_c, 0, 79, 52
1, 674625, Note_on_c, 0, 77, 80
1, 674645, Note_off_c, 0, 60, 56
1, 674686, Note_on_c, 0, 75, 77
1, 674703, Note_off_c, 0, 77, 52
1, 674730, Note_on_c, 0, 74, 79
1, 674762, Note_off_c, 0, 75, 63
1, 674781, Note_on_c, 0, 72, 77
1, 674781, Note_off_c, 0, 74, 65
1, 674804, Control_c, 0, 64, 72
1, 674806, Note_off_c, 0, 72, 66
1, 674819, Control_c, 0, 64, 33
1, 674827, Note_on_c, 0, 62, 75
1, 674830, Note_on_c, 0, 53, 65
1, 674835, Control_c, 0, 64, 0
1, 674841, Note_on_c, 0, 74, 91
1, 674842, Note_on_c, 0, 56, 59
1, 674849, Note_on_c, 0, 60, 45
1, 674861, Note_off_c, 0, 53, 66
1, 674863, Note_off_c, 0, 62, 57
1, 674869, Note_off_c, 0, 56, 66
1, 674881, Note_off_c, 0, 60, 47
1, 675066, Note_on_c, 0, 62, 92
1, 675069, Note_on_c, 0, 55, 83
1, 675071, Note_on_c, 0, 59, 82
1, 675143, Note_off_c, 0, 74, 62
1, 675336, Note_on_c, 0, 77, 96
1, 675346, Control_c, 0, 64, 62
1, 675361, Control_c, 0, 64, 79
1, 675376, Control_c, 0, 64, 119
1, 675390, Control_c, 0, 64, 127
1, 675555, Note_off_c, 0, 62, 54
1, 675558, Note_on_c, 0, 75, 75
1, 675561, Note_off_c, 0, 59, 57
1, 675577, Note_off_c, 0, 55, 61
1, 675625, Note_on_c, 0, 74, 82
1, 675658, Note_off_c, 0, 77, 41
1, 675662, Note_off_c, 0, 75, 63
1, 675674, Note_on_c, 0, 72, 69
1, 675689, Note_off_c, 0, 74, 64
1, 675708, Note_on_c, 0, 71, 80
1, 675722, Note_off_c, 0, 72, 63
1, 675760, Note_off_c, 0, 71, 61
1, 675776, Control_c, 0, 64, 80
1, 675781, Note_on_c, 0, 72, 88
1, 675791, Control_c, 0, 64, 57
1, 675792, Note_on_c, 0, 60, 79
1, 675795, Note_on_c, 0, 51, 72
1, 675806, Control_c, 0, 64, 0
1, 675807, Note_on_c, 0, 55, 62
1, 675848, Note_off_c, 0, 51, 57
1, 675856, Note_off_c, 0, 55, 61
1, 675856, Note_off_c, 0, 60, 59
1, 676017, Note_on_c, 0, 60, 93
1, 676019, Note_off_c, 0, 72, 67
1, 676022, Note_on_c, 0, 51, 87
1, 676032, Note_on_c, 0, 55, 72
1, 676277, Note_on_c, 0, 79, 102
1, 676317, Control_c, 0, 64, 67
1, 676332, Control_c, 0, 64, 89
1, 676347, Control_c, 0, 64, 127
1, 676506, Note_off_c, 0, 51, 52
1, 676508, Note_on_c, 0, 77, 78
1, 676532, Note_off_c, 0, 60, 56
1, 676550, Note_off_c, 0, 79, 0
1, 676574, Note_on_c, 0, 75, 74
1, 676578, Note_off_c, 0, 77, 60
1, 676580, Note_on_c, 0, 79, 10
1, 676618, Note_off_c, 0, 75, 64
1, 676625, Note_on_c, 0, 74, 81
1, 676645, Note_off_c, 0, 79, 43
1, 676675, Note_off_c, 0, 55, 27
1, 676687, Note_on_c, 0, 72, 77
1, 676690, Note_off_c, 0, 74, 64
1, 676712, Note_on_c, 0, 53, 52
1, 676717, Note_on_c, 0, 61, 74
1, 676726, Note_on_c, 0, 73, 95
1, 676730, Note_on_c, 0, 56, 52
1, 676732, Control_c, 0, 64, 88
1, 676755, Control_c, 0, 64, 63
1, 676765, Note_off_c, 0, 72, 66
1, 676770, Control_c, 0, 64, 0
1, 676772, Note_off_c, 0, 56, 55
1, 676780, Note_off_c, 0, 53, 62
1, 676800, Note_off_c, 0, 61, 53
1, 676933, Note_off_c, 0, 73, 64
1, 676976, Note_on_c, 0, 56, 75
1, 676976, Note_on_c, 0, 61, 97
1, 676982, Note_on_c, 0, 53, 80
1, 677262, Note_on_c, 0, 89, 100
1, 677274, Control_c, 0, 64, 38
1, 677289, Control_c, 0, 64, 48
1, 677304, Control_c, 0, 64, 51
1, 677319, Control_c, 0, 64, 58
1, 677334, Control_c, 0, 64, 64
1, 677348, Control_c, 0, 64, 69
1, 677363, Control_c, 0, 64, 73
1, 677378, Control_c, 0, 64, 78
1, 677393, Control_c, 0, 64, 82
1, 677408, Control_c, 0, 64, 86
1, 677422, Control_c, 0, 64, 88
1, 677437, Control_c, 0, 64, 89
1, 677450, Note_off_c, 0, 61, 57
1, 677452, Control_c, 0, 64, 91
1, 677460, Note_off_c, 0, 53, 50
1, 677464, Note_off_c, 0, 56, 57
1, 677466, Control_c, 0, 64, 98
1, 677481, Control_c, 0, 64, 118
1, 677504, Control_c, 0, 64, 127
1, 677584, Note_on_c, 0, 61, 94
1, 677584, Note_on_c, 0, 56, 69
1, 677590, Note_on_c, 0, 53, 77
1, 677641, Note_off_c, 0, 53, 63
1, 677690, Note_off_c, 0, 61, 59
1, 677718, Note_off_c, 0, 56, 52
1, 678032, Note_on_c, 0, 63, 96
1, 678040, Note_on_c, 0, 55, 83
1, 678040, Note_on_c, 0, 58, 75
1, 678043, Note_on_c, 0, 61, 80
1, 678067, Control_c, 0, 64, 82
1, 678082, Control_c, 0, 64, 63
1, 678097, Control_c, 0, 64, 0
1, 678867, Note_on_c, 0, 87, 89
1, 678890, Control_c, 0, 64, 46
1, 678905, Control_c, 0, 64, 65
1, 678920, Control_c, 0, 64, 79
1, 678926, Note_off_c, 0, 89, 60
1, 678935, Control_c, 0, 64, 127
1, 679000, Note_on_c, 0, 85, 88
1, 679045, Note_off_c, 0, 87, 59
1, 679095, Note_off_c, 0, 85, 66
1, 679109, Note_on_c, 0, 84, 86
1, 679200, Note_on_c, 0, 82, 90
1, 679224, Note_off_c, 0, 84, 62
1, 679289, Note_on_c, 0, 80, 91
1, 679327, Note_off_c, 0, 82, 61
1, 679361, Note_on_c, 0, 79, 85
1, 679398, Note_off_c, 0, 80, 58
1, 679421, Note_off_c, 0, 79, 62
1, 679439, Note_on_c, 0, 77, 88
1, 679492, Note_off_c, 0, 77, 53
1, 679501, Note_on_c, 0, 75, 89
1, 679560, Note_on_c, 0, 73, 85
1, 679582, Note_off_c, 0, 75, 63
1, 679617, Note_off_c, 0, 73, 62
1, 679617, Note_on_c, 0, 72, 83
1, 679668, Note_on_c, 0, 70, 77
1, 679670, Note_off_c, 0, 72, 64
1, 679704, Note_on_c, 0, 68, 84
1, 679721, Note_off_c, 0, 63, 60
1, 679743, Note_off_c, 0, 70, 63
1, 679760, Note_on_c, 0, 67, 84
1, 679772, Note_off_c, 0, 68, 68
1, 679790, Note_off_c, 0, 61, 57
1, 679798, Note_off_c, 0, 67, 57
1, 679811, Note_on_c, 0, 65, 82
1, 679817, Note_off_c, 0, 55, 60
1, 679829, Note_off_c, 0, 58, 60
1, 679850, Note_off_c, 0, 65, 54
1, 679853, Note_on_c, 0, 63, 81
1, 679901, Note_on_c, 0, 61, 84
1, 679918, Note_off_c, 0, 63, 64
1, 679943, Note_off_c, 0, 61, 62
1, 679954, Note_on_c, 0, 60, 80
1, 680003, Note_off_c, 0, 60, 59
1, 680029, Note_on_c, 0, 56, 82
1, 680032, Note_on_c, 0, 59, 45
1, 680062, Note_off_c, 0, 59, 54
1, 680080, Note_on_c, 0, 55, 75
1, 680082, Note_off_c, 0, 56, 65
1, 680105, Note_off_c, 0, 55, 69
1, 680127, Note_on_c, 0, 53, 78
1, 680174, Note_off_c, 0, 53, 60
1, 680179, Note_on_c, 0, 51, 78
1, 680244, Note_on_c, 0, 49, 93
1, 680249, Note_on_c, 0, 43, 89
1, 680249, Note_on_c, 0, 31, 81
1, 680249, Note_on_c, 0, 39, 76
1, 680254, Control_c, 0, 64, 83
1, 680268, Control_c, 0, 64, 58
1, 680282, Note_off_c, 0, 51, 63
1, 680283, Control_c, 0, 64, 0
1, 682421, Note_off_c, 0, 31, 59
1, 682456, Control_c, 0, 67, 20
1, 682470, Control_c, 0, 67, 36
1, 682482, Note_off_c, 0, 43, 56
1, 682485, Control_c, 0, 67, 51
1, 682486, Note_off_c, 0, 49, 59
1, 682500, Control_c, 0, 67, 64
1, 682512, Note_off_c, 0, 39, 58
1, 682515, Control_c, 0, 67, 75
1, 682530, Control_c, 0, 67, 87
1, 682545, Control_c, 0, 67, 95
1, 682560, Control_c, 0, 67, 103
1, 682574, Control_c, 0, 67, 109
1, 682589, Control_c, 0, 67, 113
1, 682604, Control_c, 0, 67, 115
1, 682619, Control_c, 0, 67, 115
1, 682698, Note_on_c, 0, 56, 49
1, 682759, Control_c, 0, 67, 115
1, 682788, Control_c, 0, 67, 114
1, 682803, Control_c, 0, 67, 114
1, 682816, Note_on_c, 0, 58, 51
1, 682827, Note_off_c, 0, 56, 51
1, 682938, Note_on_c, 0, 51, 43
1, 682944, Note_on_c, 0, 60, 52
1, 682965, Note_on_c, 0, 44, 31
1, 682994, Note_off_c, 0, 58, 36
1, 682997, Control_c, 0, 67, 114
1, 683011, Control_c, 0, 67, 115
1, 683026, Control_c, 0, 67, 115
1, 683174, Control_c, 0, 67, 116
1, 683248, Control_c, 0, 67, 116
1, 683263, Control_c, 0, 67, 117
1, 683317, Note_on_c, 0, 61, 50
1, 683323, Control_c, 0, 67, 117
1, 683338, Control_c, 0, 67, 118
1, 683352, Control_c, 0, 67, 119
1, 683358, Note_off_c, 0, 60, 32
1, 683382, Control_c, 0, 67, 119
1, 683397, Control_c, 0, 67, 120
1, 683411, Control_c, 0, 67, 121
1, 683426, Control_c, 0, 67, 121
1, 683430, Note_on_c, 0, 58, 44
1, 683434, Note_off_c, 0, 61, 50
1, 683441, Control_c, 0, 67, 122
1, 683442, Note_on_c, 0, 49, 39
1, 683471, Control_c, 0, 67, 122
1, 683489, Note_off_c, 0, 51, 37
1, 683552, Control_c, 0, 67, 123
1, 683834, Note_on_c, 0, 60, 37
1, 683887, Note_off_c, 0, 58, 30
1, 683944, Note_off_c, 0, 49, 39
1, 683956, Note_off_c, 0, 60, 49
1, 683967, Note_on_c, 0, 56, 33
1, 683971, Note_on_c, 0, 48, 31
1, 684181, Note_off_c, 0, 56, 60
1, 684192, Note_off_c, 0, 48, 55
1, 684195, Note_off_c, 0, 44, 50
1, 684509, Control_c, 0, 67, 122
1, 684524, Control_c, 0, 67, 121
1, 684538, Control_c, 0, 67, 121
1, 684553, Control_c, 0, 67, 120
1, 684568, Control_c, 0, 67, 120
1, 684642, Control_c, 0, 67, 119
1, 684656, Control_c, 0, 67, 119
1, 684686, Control_c, 0, 67, 118
1, 684701, Control_c, 0, 67, 118
1, 684760, Control_c, 0, 67, 117
1, 684775, Control_c, 0, 67, 117
1, 684804, Control_c, 0, 67, 116
1, 684825, Note_on_c, 0, 68, 52
1, 684834, Control_c, 0, 67, 116
1, 684849, Control_c, 0, 67, 115
1, 684864, Control_c, 0, 67, 115
1, 684879, Control_c, 0, 67, 114
1, 684894, Control_c, 0, 67, 114
1, 684908, Control_c, 0, 67, 113
1, 684923, Control_c, 0, 67, 111
1, 684938, Control_c, 0, 67, 109
1, 684946, Note_on_c, 0, 70, 62
1, 684953, Control_c, 0, 67, 105
1, 684968, Control_c, 0, 67, 102
1, 684990, Control_c, 0, 67, 99
1, 684995, Note_off_c, 0, 68, 56
1, 685005, Control_c, 0, 67, 96
1, 685020, Control_c, 0, 67, 94
1, 685035, Control_c, 0, 67, 91
1, 685050, Control_c, 0, 67, 89
1, 685057, Note_on_c, 0, 63, 47
1, 685063, Note_on_c, 0, 72, 67
1, 685064, Control_c, 0, 67, 85
1, 685075, Note_on_c, 0, 56, 28
1, 685079, Control_c, 0, 67, 80
1, 685094, Control_c, 0, 67, 74
1, 685109, Control_c, 0, 67, 68
1, 685114, Note_off_c, 0, 70, 57
1, 685124, Control_c, 0, 67, 63
1, 685138, Control_c, 0, 67, 58
1, 685153, Control_c, 0, 67, 55
1, 685168, Control_c, 0, 67, 53
1, 685183, Control_c, 0, 67, 52
1, 685214, Control_c, 0, 67, 52
1, 685229, Control_c, 0, 67, 53
1, 685243, Control_c, 0, 67, 54
1, 685258, Control_c, 0, 67, 55
1, 685273, Control_c, 0, 67, 56
1, 685287, Control_c, 0, 67, 57
1, 685302, Control_c, 0, 67, 59
1, 685317, Control_c, 0, 67, 60
1, 685332, Control_c, 0, 67, 60
1, 685347, Control_c, 0, 67, 61
1, 685391, Control_c, 0, 67, 61
1, 685424, Note_on_c, 0, 73, 58
1, 685460, Note_off_c, 0, 72, 59
1, 685466, Control_c, 0, 67, 62
1, 685495, Control_c, 0, 67, 62
1, 685510, Control_c, 0, 67, 63
1, 685525, Control_c, 0, 67, 65
1, 685540, Control_c, 0, 67, 67
1, 685549, Note_on_c, 0, 70, 55
1, 685554, Note_on_c, 0, 61, 42
1, 685554, Control_c, 0, 67, 70
1, 685569, Control_c, 0, 67, 73
1, 685579, Note_off_c, 0, 73, 54
1, 685584, Control_c, 0, 67, 76
1, 685598, Control_c, 0, 67, 79
1, 685613, Control_c, 0, 67, 82
1, 685626, Note_off_c, 0, 63, 33
1, 685628, Control_c, 0, 67, 86
1, 685643, Control_c, 0, 67, 91
1, 685658, Control_c, 0, 67, 96
1, 685673, Control_c, 0, 67, 100
1, 685687, Control_c, 0, 67, 105
1, 685702, Control_c, 0, 67, 109
1, 685717, Control_c, 0, 67, 114
1, 685740, Control_c, 0, 67, 119
1, 685755, Control_c, 0, 67, 124
1, 685769, Control_c, 0, 67, 127
1, 685979, Note_on_c, 0, 72, 39
1, 686065, Note_off_c, 0, 61, 48
1, 686110, Note_on_c, 0, 60, 31
1, 686114, Note_on_c, 0, 68, 43
1, 686141, Note_off_c, 0, 72, 35
1, 686152, Note_off_c, 0, 70, 19
1, 686318, Note_off_c, 0, 68, 60
1, 686326, Note_off_c, 0, 60, 62
1, 686329, Note_off_c, 0, 56, 52
1, 686930, Note_on_c, 0, 72, 38
1, 687193, Note_on_c, 0, 78, 47
1, 687217, Note_on_c, 0, 68, 41
1, 687219, Note_on_c, 0, 75, 37
1, 687275, Note_off_c, 0, 72, 36
1, 687386, Note_off_c, 0, 75, 59
1, 687389, Note_off_c, 0, 68, 55
1, 687389, Note_off_c, 0, 78, 62
1, 688005, Note_on_c, 0, 72, 43
1, 688287, Note_on_c, 0, 79, 51
1, 688307, Note_on_c, 0, 67, 36
1, 688316, Note_on_c, 0, 75, 35
1, 688429, Note_off_c, 0, 72, 46
1, 688460, Note_off_c, 0, 75, 61
1, 688465, Note_off_c, 0, 79, 62
1, 688468, Note_off_c, 0, 67, 60
1, 689016, Control_c, 0, 67, 100
1, 689031, Control_c, 0, 67, 58
1, 689046, Control_c, 0, 67, 0
1, 689104, Note_on_c, 0, 87, 91
1, 689180, Note_on_c, 0, 86, 89
1, 689239, Note_off_c, 0, 87, 49
1, 689256, Note_on_c, 0, 84, 82
1, 689260, Note_off_c, 0, 86, 61
1, 689328, Control_c, 0, 64, 56
1, 689329, Note_on_c, 0, 47, 96
1, 689332, Note_on_c, 0, 55, 94
1, 689332, Note_on_c, 0, 43, 91
1, 689336, Note_on_c, 0, 50, 85
1, 689336, Note_on_c, 0, 89, 94
1, 689343, Control_c, 0, 64, 68
1, 689358, Control_c, 0, 64, 82
1, 689372, Control_c, 0, 64, 115
1, 689379, Note_off_c, 0, 84, 54
1, 689387, Control_c, 0, 64, 127
1, 689416, Note_on_c, 0, 87, 87
1, 689484, Note_off_c, 0, 89, 55
1, 689492, Note_on_c, 0, 86, 84
1, 689499, Control_c, 0, 64, 113
1, 689514, Control_c, 0, 64, 73
1, 689520, Note_off_c, 0, 55, 58
1, 689528, Control_c, 0, 64, 39
1, 689534, Note_off_c, 0, 87, 62
1, 689543, Control_c, 0, 64, 0
1, 689548, Note_off_c, 0, 86, 63
1, 689549, Note_off_c, 0, 50, 60
1, 689553, Note_off_c, 0, 47, 56
1, 689555, Note_on_c, 0, 84, 87
1, 689566, Note_off_c, 0, 43, 57
1, 689629, Note_on_c, 0, 83, 84
1, 689630, Note_off_c, 0, 84, 38
1, 689708, Note_on_c, 0, 80, 87
1, 689720, Note_off_c, 0, 83, 59
1, 689762, Note_off_c, 0, 80, 65
1, 689771, Note_on_c, 0, 79, 86
1, 689840, Note_on_c, 0, 77, 88
1, 689844, Note_off_c, 0, 79, 57
1, 689910, Note_on_c, 0, 75, 85
1, 689928, Note_off_c, 0, 77, 60
1, 689970, Note_on_c, 0, 74, 85
1, 689970, Note_off_c, 0, 75, 67
1, 690040, Note_on_c, 0, 72, 88
1, 690048, Note_off_c, 0, 74, 61
1, 690110, Note_off_c, 0, 72, 65
1, 690113, Note_on_c, 0, 71, 80
1, 690165, Note_off_c, 0, 71, 63
1, 690200, Note_on_c, 0, 48, 104
1, 690202, Note_on_c, 0, 72, 98
1, 690207, Note_on_c, 0, 36, 90
1, 690207, Note_on_c, 0, 43, 87
1, 690208, Note_on_c, 0, 39, 86
1, 690247, Control_c, 0, 64, 45
1, 690262, Control_c, 0, 64, 63
1, 690277, Control_c, 0, 64, 72
1, 690292, Control_c, 0, 64, 84
1, 690307, Control_c, 0, 64, 89
1, 690322, Control_c, 0, 64, 88
1, 690337, Control_c, 0, 64, 79
1, 690351, Control_c, 0, 64, 67
1, 690366, Control_c, 0, 64, 48
1, 690378, Note_off_c, 0, 72, 68
1, 690381, Control_c, 0, 64, 0
1, 690384, Note_off_c, 0, 48, 56
1, 690387, Note_off_c, 0, 43, 60
1, 690394, Note_off_c, 0, 36, 62
1, 690399, Note_off_c, 0, 39, 60
1, 690474, End_track
0, 0, End_of_file
