0, 0, Header, 0, 1, 384
1, 0, Start_track
1, 0, Title_t, "Lullaby--Howard Na              "
1, 0, Text_t, "2006 International Piano-e-Competition Recital Round"
1, 0, Text_t, "St. Paul, Minnesota, July 2006"
1, 0, Text_t, "http://www.piano-e-competition.com/"
1, 0, Instrument_name_t, "Yamaha Disklavier Pro Mark IV concert grand piano"
1, 0, Sequencer_specific, 39, 67, 113, 0, 1, 0, 1, 0, 76, 117, 108, 108, 97, 98, 121, 32, 32, 32, 32, 32, 32, 32, 32, 32, 72, 111, 119, 97, 114, 100, 32, 78, 97, 32, 32, 32, 32, 32, 32, 32
1, 0, Sequencer_specific, 6, 67, 113, 0, 0, 0, 69
1, 0, System_exclusive, 21, 67, 113, 126, 21, 0, 2, 2, 0, 14, 5, 1, 4, 4, 10, 9, 6, 8, 1, 2, 6, 247
1, 0, Sequencer_specific, 5, 67, 123, 12, 2, 1
1, 0, Tempo, 512820
1, 0, Time_signature, 4, 2, 24, 8
1, 0, System_exclusive, 5, 126, 127, 9, 1, 247
1, 1, System_exclusive, 8, 67, 16, 76, 0, 0, 126, 0, 247
1, 2, System_exclusive, 8, 67, 16, 76, 8, 9, 7, 1, 247
1, 3, Control_c, 0, 0, 0
1, 4, Control_c, 0, 32, 0
1, 5, Program_c, 0, 0
1, 6, Control_c, 0, 7, 100
1, 95, Control_c, 0, 64, 10
1, 95, Control_c, 0, 67, 15
1, 184, Control_c, 0, 64, 21
1, 184, Control_c, 0, 67, 31
1, 273, Control_c, 0, 64, 31
1, 273, Control_c, 0, 67, 46
1, 362, Control_c, 0, 64, 43
1, 362, Control_c, 0, 67, 63
1, 452, Control_c, 0, 64, 52
1, 452, Control_c, 0, 67, 77
1, 541, Control_c, 0, 64, 64
1, 541, Control_c, 0, 67, 94
1, 630, Control_c, 0, 64, 73
1, 630, Control_c, 0, 67, 108
1, 719, Control_c, 0, 64, 86
1, 719, Control_c, 0, 67, 127
1, 911, Note_on_c, 0, 59, 39
1, 1147, Note_on_c, 0, 68, 40
1, 1161, Note_on_c, 0, 63, 31
1, 1343, Note_on_c, 0, 44, 32
1, 1352, Note_on_c, 0, 51, 32
1, 1404, Note_off_c, 0, 68, 34
1, 1410, Note_off_c, 0, 63, 40
1, 1557, Note_on_c, 0, 56, 34
1, 1586, Note_off_c, 0, 44, 38
1, 1698, Note_off_c, 0, 51, 43
1, 1713, Control_c, 0, 64, 86
1, 1763, Note_on_c, 0, 64, 42
1, 1781, Note_off_c, 0, 56, 42
1, 1789, Note_off_c, 0, 59, 40
1, 1945, Note_off_c, 0, 64, 37
1, 1979, Note_on_c, 0, 68, 25
1, 1980, Note_on_c, 0, 71, 44
1, 2143, Control_c, 0, 64, 85
1, 2171, Note_on_c, 0, 63, 34
1, 2173, Control_c, 0, 64, 85
1, 2181, Note_on_c, 0, 56, 37
1, 2188, Control_c, 0, 64, 84
1, 2202, Control_c, 0, 64, 81
1, 2217, Control_c, 0, 64, 76
1, 2232, Control_c, 0, 64, 72
1, 2247, Control_c, 0, 64, 67
1, 2262, Control_c, 0, 64, 63
1, 2276, Control_c, 0, 64, 59
1, 2291, Control_c, 0, 64, 56
1, 2306, Control_c, 0, 64, 55
1, 2336, Control_c, 0, 64, 55
1, 2358, Note_off_c, 0, 68, 38
1, 2358, Control_c, 0, 64, 57
1, 2373, Control_c, 0, 64, 59
1, 2388, Control_c, 0, 64, 61
1, 2397, Note_on_c, 0, 59, 40
1, 2402, Control_c, 0, 64, 63
1, 2417, Control_c, 0, 64, 65
1, 2432, Control_c, 0, 64, 67
1, 2447, Control_c, 0, 64, 69
1, 2457, Note_off_c, 0, 63, 36
1, 2462, Control_c, 0, 64, 70
1, 2476, Control_c, 0, 64, 71
1, 2506, Control_c, 0, 64, 71
1, 2529, Note_off_c, 0, 59, 55
1, 2580, Note_off_c, 0, 56, 55
1, 2612, Note_on_c, 0, 59, 34
1, 2780, Note_off_c, 0, 71, 29
1, 2830, Note_on_c, 0, 68, 38
1, 2850, Note_on_c, 0, 63, 26
1, 3038, Note_on_c, 0, 51, 30
1, 3056, Note_on_c, 0, 44, 25
1, 3063, Note_off_c, 0, 63, 36
1, 3122, Control_c, 0, 64, 72
1, 3152, Control_c, 0, 64, 72
1, 3196, Control_c, 0, 64, 73
1, 3253, Note_on_c, 0, 56, 29
1, 3274, Note_off_c, 0, 44, 40
1, 3285, Control_c, 0, 64, 73
1, 3463, Note_off_c, 0, 59, 38
1, 3466, Note_off_c, 0, 51, 42
1, 3468, Note_on_c, 0, 64, 42
1, 3485, Note_off_c, 0, 68, 16
1, 3521, Note_off_c, 0, 56, 40
1, 3679, Note_on_c, 0, 68, 28
1, 3693, Note_on_c, 0, 71, 42
1, 3725, Note_off_c, 0, 64, 30
1, 3856, Control_c, 0, 64, 73
1, 3892, Note_off_c, 0, 71, 48
1, 3896, Note_on_c, 0, 63, 32
1, 3919, Note_on_c, 0, 56, 30
1, 4098, Note_off_c, 0, 63, 46
1, 4123, Note_on_c, 0, 59, 40
1, 4183, Note_off_c, 0, 59, 58
1, 4249, Note_off_c, 0, 56, 52
1, 4377, Note_off_c, 0, 68, 12
1, 4397, Note_on_c, 0, 62, 51
1, 4410, Note_on_c, 0, 56, 35
1, 4419, Control_c, 0, 64, 72
1, 4434, Control_c, 0, 64, 72
1, 4448, Control_c, 0, 64, 71
1, 4463, Control_c, 0, 64, 69
1, 4478, Control_c, 0, 64, 65
1, 4493, Control_c, 0, 64, 62
1, 4508, Control_c, 0, 64, 59
1, 4524, Control_c, 0, 64, 57
1, 4583, Control_c, 0, 64, 57
1, 4605, Control_c, 0, 64, 58
1, 4620, Control_c, 0, 64, 59
1, 4635, Control_c, 0, 64, 60
1, 4644, Note_on_c, 0, 68, 38
1, 4650, Control_c, 0, 64, 62
1, 4653, Note_on_c, 0, 70, 41
1, 4665, Control_c, 0, 64, 64
1, 4679, Control_c, 0, 64, 66
1, 4694, Control_c, 0, 64, 67
1, 4709, Control_c, 0, 64, 69
1, 4724, Control_c, 0, 64, 71
1, 4739, Control_c, 0, 64, 72
1, 4753, Control_c, 0, 64, 73
1, 4768, Control_c, 0, 64, 74
1, 4783, Control_c, 0, 64, 74
1, 4797, Control_c, 0, 64, 75
1, 4812, Control_c, 0, 64, 75
1, 4827, Control_c, 0, 64, 76
1, 4859, Note_on_c, 0, 52, 36
1, 4873, Note_on_c, 0, 44, 28
1, 4919, Note_off_c, 0, 56, 36
1, 4933, Note_off_c, 0, 62, 38
1, 4985, Note_off_c, 0, 44, 57
1, 5042, Note_off_c, 0, 52, 55
1, 5061, Note_on_c, 0, 61, 42
1, 5200, Note_off_c, 0, 68, 34
1, 5271, Control_c, 0, 64, 75
1, 5280, Note_on_c, 0, 60, 43
1, 5283, Note_on_c, 0, 64, 44
1, 5289, Note_off_c, 0, 61, 54
1, 5317, Control_c, 0, 64, 75
1, 5332, Control_c, 0, 64, 74
1, 5355, Control_c, 0, 64, 73
1, 5369, Control_c, 0, 64, 71
1, 5384, Control_c, 0, 64, 68
1, 5399, Control_c, 0, 64, 64
1, 5414, Control_c, 0, 64, 61
1, 5428, Control_c, 0, 64, 58
1, 5443, Control_c, 0, 64, 57
1, 5488, Control_c, 0, 64, 57
1, 5493, Note_on_c, 0, 68, 40
1, 5502, Control_c, 0, 64, 58
1, 5517, Control_c, 0, 64, 60
1, 5532, Control_c, 0, 64, 61
1, 5546, Control_c, 0, 64, 63
1, 5561, Control_c, 0, 64, 64
1, 5576, Control_c, 0, 64, 66
1, 5591, Control_c, 0, 64, 68
1, 5606, Control_c, 0, 64, 70
1, 5620, Control_c, 0, 64, 71
1, 5635, Control_c, 0, 64, 72
1, 5650, Control_c, 0, 64, 72
1, 5664, Note_off_c, 0, 60, 38
1, 5665, Control_c, 0, 64, 73
1, 5680, Control_c, 0, 64, 73
1, 5700, Note_on_c, 0, 56, 32
1, 5706, Note_off_c, 0, 64, 58
1, 5712, Note_on_c, 0, 63, 34
1, 5811, Note_off_c, 0, 63, 63
1, 5874, Note_off_c, 0, 56, 46
1, 5925, Note_on_c, 0, 59, 43
1, 5979, Note_off_c, 0, 70, 32
1, 6005, Control_c, 0, 64, 73
1, 6064, Control_c, 0, 64, 72
1, 6065, Note_off_c, 0, 68, 22
1, 6101, Control_c, 0, 64, 72
1, 6116, Control_c, 0, 64, 71
1, 6132, Control_c, 0, 64, 70
1, 6146, Note_on_c, 0, 62, 50
1, 6147, Control_c, 0, 64, 68
1, 6159, Note_on_c, 0, 56, 39
1, 6162, Control_c, 0, 64, 65
1, 6176, Control_c, 0, 64, 62
1, 6191, Control_c, 0, 64, 59
1, 6206, Control_c, 0, 64, 58
1, 6221, Control_c, 0, 64, 57
1, 6280, Control_c, 0, 64, 58
1, 6295, Control_c, 0, 64, 58
1, 6310, Control_c, 0, 64, 59
1, 6319, Note_off_c, 0, 59, 36
1, 6324, Control_c, 0, 64, 61
1, 6339, Control_c, 0, 64, 62
1, 6354, Control_c, 0, 64, 63
1, 6367, Note_on_c, 0, 70, 41
1, 6368, Control_c, 0, 64, 64
1, 6377, Note_on_c, 0, 68, 40
1, 6383, Control_c, 0, 64, 65
1, 6398, Control_c, 0, 64, 67
1, 6413, Control_c, 0, 64, 68
1, 6428, Control_c, 0, 64, 69
1, 6443, Control_c, 0, 64, 70
1, 6458, Control_c, 0, 64, 71
1, 6473, Control_c, 0, 64, 72
1, 6488, Control_c, 0, 64, 72
1, 6517, Control_c, 0, 64, 73
1, 6580, Note_on_c, 0, 52, 35
1, 6601, Note_on_c, 0, 44, 31
1, 6610, Note_off_c, 0, 62, 25
1, 6681, Note_off_c, 0, 56, 40
1, 6691, Note_off_c, 0, 44, 52
1, 6753, Note_off_c, 0, 52, 57
1, 6784, Control_c, 0, 64, 72
1, 6791, Note_on_c, 0, 61, 48
1, 6884, Note_off_c, 0, 68, 29
1, 6917, Note_off_c, 0, 61, 61
1, 6970, Control_c, 0, 64, 72
1, 7015, Control_c, 0, 64, 71
1, 7016, Note_on_c, 0, 60, 41
1, 7022, Note_on_c, 0, 64, 42
1, 7030, Control_c, 0, 64, 71
1, 7045, Control_c, 0, 64, 69
1, 7060, Control_c, 0, 64, 66
1, 7074, Control_c, 0, 64, 63
1, 7089, Control_c, 0, 64, 59
1, 7104, Control_c, 0, 64, 56
1, 7119, Control_c, 0, 64, 55
1, 7178, Control_c, 0, 64, 55
1, 7192, Control_c, 0, 64, 56
1, 7207, Control_c, 0, 64, 58
1, 7212, Note_on_c, 0, 68, 39
1, 7222, Control_c, 0, 64, 60
1, 7237, Control_c, 0, 64, 62
1, 7252, Control_c, 0, 64, 63
1, 7266, Control_c, 0, 64, 64
1, 7281, Control_c, 0, 64, 66
1, 7296, Control_c, 0, 64, 67
1, 7311, Control_c, 0, 64, 69
1, 7326, Control_c, 0, 64, 70
1, 7339, Note_off_c, 0, 70, 29
1, 7340, Control_c, 0, 64, 71
1, 7348, Note_off_c, 0, 60, 28
1, 7355, Control_c, 0, 64, 72
1, 7370, Control_c, 0, 64, 72
1, 7385, Control_c, 0, 64, 73
1, 7399, Control_c, 0, 64, 73
1, 7434, Note_off_c, 0, 64, 53
1, 7438, Note_on_c, 0, 63, 31
1, 7441, Note_on_c, 0, 56, 28
1, 7522, Note_off_c, 0, 63, 63
1, 7597, Note_off_c, 0, 56, 53
1, 7653, Note_on_c, 0, 59, 38
1, 7674, Note_off_c, 0, 68, 48
1, 7778, Control_c, 0, 64, 73
1, 7823, Control_c, 0, 64, 72
1, 7853, Control_c, 0, 64, 71
1, 7867, Note_on_c, 0, 52, 36
1, 7867, Control_c, 0, 64, 70
1, 7877, Note_on_c, 0, 58, 46
1, 7882, Control_c, 0, 64, 69
1, 7897, Control_c, 0, 64, 66
1, 7912, Control_c, 0, 64, 62
1, 7927, Control_c, 0, 64, 58
1, 7942, Control_c, 0, 64, 55
1, 7957, Control_c, 0, 64, 55
1, 7970, Note_off_c, 0, 59, 35
1, 8001, Control_c, 0, 64, 55
1, 8015, Control_c, 0, 64, 56
1, 8030, Control_c, 0, 64, 57
1, 8045, Control_c, 0, 64, 59
1, 8060, Control_c, 0, 64, 61
1, 8075, Control_c, 0, 64, 62
1, 8088, Note_on_c, 0, 61, 35
1, 8089, Control_c, 0, 64, 63
1, 8104, Control_c, 0, 64, 65
1, 8106, Note_on_c, 0, 67, 31
1, 8119, Control_c, 0, 64, 66
1, 8134, Control_c, 0, 64, 67
1, 8148, Control_c, 0, 64, 68
1, 8163, Control_c, 0, 64, 69
1, 8178, Control_c, 0, 64, 70
1, 8193, Control_c, 0, 64, 71
1, 8194, Note_off_c, 0, 58, 50
1, 8208, Control_c, 0, 64, 72
1, 8222, Control_c, 0, 64, 72
1, 8234, Note_off_c, 0, 61, 50
1, 8267, Control_c, 0, 64, 73
1, 8308, Note_on_c, 0, 44, 19
1, 8315, Note_on_c, 0, 51, 31
1, 8352, Note_off_c, 0, 52, 35
1, 8434, Note_off_c, 0, 44, 38
1, 8467, Control_c, 0, 64, 72
1, 8479, Note_off_c, 0, 51, 35
1, 8509, Note_off_c, 0, 67, 41
1, 8520, Note_on_c, 0, 68, 33
1, 8525, Note_on_c, 0, 59, 36
1, 8557, Control_c, 0, 64, 72
1, 8616, Control_c, 0, 64, 71
1, 8660, Control_c, 0, 64, 71
1, 8678, Note_off_c, 0, 68, 31
1, 8689, Control_c, 0, 64, 70
1, 8718, Control_c, 0, 64, 70
1, 8733, Control_c, 0, 64, 69
1, 8747, Note_on_c, 0, 64, 40
1, 8748, Control_c, 0, 64, 68
1, 8762, Control_c, 0, 64, 67
1, 8764, Note_on_c, 0, 61, 39
1, 8777, Control_c, 0, 64, 66
1, 8792, Control_c, 0, 64, 64
1, 8802, Note_off_c, 0, 59, 34
1, 8807, Control_c, 0, 64, 63
1, 8822, Control_c, 0, 64, 61
1, 8836, Control_c, 0, 64, 60
1, 8851, Control_c, 0, 64, 59
1, 8866, Control_c, 0, 64, 59
1, 8881, Control_c, 0, 64, 58
1, 8896, Control_c, 0, 64, 58
1, 8911, Control_c, 0, 64, 57
1, 8926, Control_c, 0, 64, 57
1, 8941, Control_c, 0, 64, 56
1, 8968, Note_on_c, 0, 70, 41
1, 8975, Note_on_c, 0, 67, 32
1, 9030, Control_c, 0, 64, 57
1, 9044, Control_c, 0, 64, 58
1, 9059, Control_c, 0, 64, 59
1, 9074, Control_c, 0, 64, 60
1, 9096, Control_c, 0, 64, 61
1, 9111, Control_c, 0, 64, 62
1, 9125, Control_c, 0, 64, 63
1, 9140, Control_c, 0, 64, 64
1, 9142, Note_off_c, 0, 64, 37
1, 9155, Control_c, 0, 64, 66
1, 9170, Control_c, 0, 64, 67
1, 9185, Control_c, 0, 64, 68
1, 9200, Control_c, 0, 64, 69
1, 9207, Note_on_c, 0, 63, 27
1, 9209, Note_on_c, 0, 56, 30
1, 9215, Control_c, 0, 64, 69
1, 9230, Control_c, 0, 64, 70
1, 9244, Control_c, 0, 64, 70
1, 9256, Note_off_c, 0, 67, 43
1, 9259, Control_c, 0, 64, 71
1, 9299, Note_off_c, 0, 61, 35
1, 9359, Note_off_c, 0, 63, 51
1, 9472, Note_on_c, 0, 71, 46
1, 9497, Control_c, 0, 64, 70
1, 9525, Note_off_c, 0, 70, 56
1, 9556, Control_c, 0, 64, 70
1, 9600, Control_c, 0, 64, 69
1, 9630, Control_c, 0, 64, 69
1, 9659, Control_c, 0, 64, 68
1, 9674, Control_c, 0, 64, 67
1, 9689, Control_c, 0, 64, 66
1, 9704, Note_off_c, 0, 56, 38
1, 9704, Control_c, 0, 64, 65
1, 9719, Control_c, 0, 64, 63
1, 9720, Note_on_c, 0, 59, 42
1, 9733, Control_c, 0, 64, 60
1, 9748, Control_c, 0, 64, 58
1, 9763, Control_c, 0, 64, 56
1, 9778, Control_c, 0, 64, 55
1, 9860, Control_c, 0, 64, 56
1, 9874, Control_c, 0, 64, 57
1, 9889, Control_c, 0, 64, 58
1, 9904, Control_c, 0, 64, 60
1, 9918, Control_c, 0, 64, 61
1, 9933, Control_c, 0, 64, 63
1, 9948, Control_c, 0, 64, 64
1, 9963, Control_c, 0, 64, 65
1, 9978, Control_c, 0, 64, 67
1, 9980, Note_on_c, 0, 68, 33
1, 9993, Control_c, 0, 64, 68
1, 9996, Note_on_c, 0, 63, 34
1, 10008, Control_c, 0, 64, 70
1, 10011, Note_off_c, 0, 71, 36
1, 10023, Control_c, 0, 64, 71
1, 10038, Control_c, 0, 64, 72
1, 10052, Control_c, 0, 64, 72
1, 10067, Control_c, 0, 64, 73
1, 10112, Note_off_c, 0, 59, 26
1, 10112, Control_c, 0, 64, 73
1, 10193, Note_off_c, 0, 63, 35
1, 10219, Note_on_c, 0, 51, 34
1, 10228, Note_on_c, 0, 44, 19
1, 10348, Note_off_c, 0, 44, 35
1, 10421, Note_on_c, 0, 56, 38
1, 10506, Note_off_c, 0, 56, 59
1, 10658, Note_on_c, 0, 63, 40
1, 10732, Note_off_c, 0, 51, 40
1, 10741, Note_off_c, 0, 68, 28
1, 10872, Note_on_c, 0, 59, 29
1, 11057, Note_off_c, 0, 59, 47
1, 11075, Note_on_c, 0, 56, 31
1, 11099, Note_on_c, 0, 51, 18
1, 11138, Note_off_c, 0, 63, 40
1, 11218, Control_c, 0, 64, 73
1, 11295, Note_on_c, 0, 68, 34
1, 11510, Note_on_c, 0, 59, 31
1, 11560, Note_off_c, 0, 51, 37
1, 11617, Note_off_c, 0, 56, 40
1, 11731, Note_on_c, 0, 63, 36
1, 11789, Note_off_c, 0, 59, 40
1, 11817, Control_c, 0, 64, 73
1, 11862, Control_c, 0, 64, 74
1, 11877, Control_c, 0, 64, 74
1, 11892, Control_c, 0, 64, 75
1, 11909, Note_off_c, 0, 63, 31
1, 11921, Control_c, 0, 64, 75
1, 11932, Note_on_c, 0, 51, 35
1, 11936, Control_c, 0, 64, 76
1, 11948, Note_on_c, 0, 44, 10
1, 11951, Control_c, 0, 64, 76
1, 11980, Control_c, 0, 64, 77
1, 12010, Control_c, 0, 64, 77
1, 12040, Control_c, 0, 64, 78
1, 12091, Control_c, 0, 64, 78
1, 12109, Note_off_c, 0, 44, 41
1, 12154, Note_on_c, 0, 56, 25
1, 12181, Control_c, 0, 64, 79
1, 12270, Note_off_c, 0, 56, 40
1, 12386, Note_on_c, 0, 63, 42
1, 12452, Note_off_c, 0, 63, 0
1, 12452, Note_on_c, 0, 63, 5
1, 12508, Note_off_c, 0, 51, 42
1, 12587, Note_on_c, 0, 59, 29
1, 12674, Note_off_c, 0, 68, 37
1, 12713, Note_off_c, 0, 59, 36
1, 12810, Note_on_c, 0, 56, 30
1, 12817, Note_on_c, 0, 51, 27
1, 12840, Note_off_c, 0, 63, 36
1, 13054, Note_on_c, 0, 68, 20
1, 13297, Note_on_c, 0, 59, 22
1, 13340, Note_off_c, 0, 51, 28
1, 13409, Note_on_c, 0, 75, 61
1, 13506, Note_off_c, 0, 56, 28
1, 13707, Note_on_c, 0, 63, 39
1, 13741, Note_off_c, 0, 59, 37
1, 13773, Note_off_c, 0, 75, 62
1, 13845, Note_off_c, 0, 63, 58
1, 13845, Note_off_c, 0, 68, 41
1, 13914, Note_on_c, 0, 51, 40
1, 13925, Note_on_c, 0, 44, 23
1, 14068, Note_off_c, 0, 44, 36
1, 14117, Note_on_c, 0, 56, 39
1, 14196, Note_off_c, 0, 56, 54
1, 14349, Note_on_c, 0, 63, 39
1, 14458, Note_off_c, 0, 51, 31
1, 14558, Note_on_c, 0, 59, 41
1, 14768, Note_off_c, 0, 59, 39
1, 14769, Note_on_c, 0, 68, 49
1, 14776, Note_off_c, 0, 63, 39
1, 14781, Note_on_c, 0, 56, 23
1, 14794, Note_on_c, 0, 51, 19
1, 14980, Note_on_c, 0, 63, 42
1, 14998, Note_off_c, 0, 68, 38
1, 15022, Note_off_c, 0, 63, 51
1, 15134, Note_off_c, 0, 51, 34
1, 15208, Note_on_c, 0, 68, 57
1, 15227, Note_on_c, 0, 59, 34
1, 15236, Control_c, 0, 64, 78
1, 15310, Control_c, 0, 64, 78
1, 15323, Note_off_c, 0, 56, 37
1, 15433, Note_on_c, 0, 63, 40
1, 15487, Control_c, 0, 64, 77
1, 15511, Note_off_c, 0, 59, 38
1, 15576, Control_c, 0, 64, 77
1, 15606, Control_c, 0, 64, 76
1, 15611, Note_off_c, 0, 68, 38
1, 15621, Control_c, 0, 64, 76
1, 15626, Note_on_c, 0, 67, 52
1, 15635, Note_on_c, 0, 51, 40
1, 15636, Control_c, 0, 64, 75
1, 15645, Note_on_c, 0, 44, 31
1, 15650, Control_c, 0, 64, 73
1, 15665, Control_c, 0, 64, 71
1, 15674, Note_off_c, 0, 63, 26
1, 15680, Control_c, 0, 64, 67
1, 15695, Control_c, 0, 64, 63
1, 15710, Control_c, 0, 64, 59
1, 15725, Control_c, 0, 64, 56
1, 15740, Control_c, 0, 64, 55
1, 15785, Control_c, 0, 64, 56
1, 15800, Control_c, 0, 64, 58
1, 15815, Control_c, 0, 64, 60
1, 15829, Note_off_c, 0, 44, 53
1, 15836, Control_c, 0, 64, 62
1, 15850, Note_on_c, 0, 58, 29
1, 15851, Control_c, 0, 64, 63
1, 15866, Control_c, 0, 64, 65
1, 15881, Control_c, 0, 64, 66
1, 15896, Control_c, 0, 64, 67
1, 15910, Control_c, 0, 64, 68
1, 15925, Control_c, 0, 64, 69
1, 15940, Control_c, 0, 64, 69
1, 15986, Note_off_c, 0, 58, 34
1, 16060, Note_on_c, 0, 68, 49
1, 16074, Control_c, 0, 64, 69
1, 16088, Control_c, 0, 64, 67
1, 16093, Note_off_c, 0, 67, 26
1, 16096, Note_on_c, 0, 63, 40
1, 16103, Control_c, 0, 64, 65
1, 16118, Control_c, 0, 64, 63
1, 16133, Control_c, 0, 64, 59
1, 16148, Control_c, 0, 64, 56
1, 16162, Control_c, 0, 64, 54
1, 16177, Note_off_c, 0, 51, 28
1, 16177, Control_c, 0, 64, 54
1, 16207, Control_c, 0, 64, 55
1, 16222, Control_c, 0, 64, 56
1, 16236, Control_c, 0, 64, 58
1, 16251, Control_c, 0, 64, 60
1, 16266, Control_c, 0, 64, 62
1, 16272, Note_on_c, 0, 59, 36
1, 16280, Control_c, 0, 64, 64
1, 16295, Control_c, 0, 64, 66
1, 16310, Control_c, 0, 64, 67
1, 16325, Control_c, 0, 64, 68
1, 16340, Control_c, 0, 64, 69
1, 16354, Control_c, 0, 64, 70
1, 16369, Control_c, 0, 64, 71
1, 16387, Note_off_c, 0, 59, 44
1, 16399, Control_c, 0, 64, 71
1, 16458, Note_off_c, 0, 68, 56
1, 16494, Note_on_c, 0, 51, 28
1, 16498, Note_on_c, 0, 56, 26
1, 16512, Note_off_c, 0, 63, 37
1, 16630, Control_c, 0, 64, 71
1, 16733, Note_on_c, 0, 63, 32
1, 16867, Control_c, 0, 64, 70
1, 16882, Control_c, 0, 64, 70
1, 16897, Control_c, 0, 64, 69
1, 16911, Control_c, 0, 64, 67
1, 16914, Note_on_c, 0, 75, 59
1, 16926, Control_c, 0, 64, 66
1, 16938, Note_off_c, 0, 51, 33
1, 16941, Control_c, 0, 64, 65
1, 16942, Note_on_c, 0, 59, 33
1, 17015, Control_c, 0, 64, 66
1, 17030, Control_c, 0, 64, 66
1, 17034, Note_off_c, 0, 63, 34
1, 17052, Note_off_c, 0, 56, 40
1, 17059, Control_c, 0, 64, 67
1, 17074, Control_c, 0, 64, 67
1, 17089, Control_c, 0, 64, 68
1, 17103, Control_c, 0, 64, 69
1, 17118, Control_c, 0, 64, 69
1, 17133, Control_c, 0, 64, 70
1, 17148, Control_c, 0, 64, 70
1, 17156, Note_on_c, 0, 68, 40
1, 17163, Control_c, 0, 64, 71
1, 17177, Control_c, 0, 64, 71
1, 17245, Note_off_c, 0, 59, 29
1, 17341, Note_on_c, 0, 76, 60
1, 17353, Note_on_c, 0, 44, 27
1, 17366, Note_on_c, 0, 51, 25
1, 17439, Note_off_c, 0, 75, 38
1, 17449, Note_off_c, 0, 44, 32
1, 17507, Note_off_c, 0, 68, 18
1, 17556, Control_c, 0, 64, 71
1, 17558, Note_off_c, 0, 51, 41
1, 17592, Note_on_c, 0, 62, 29
1, 17615, Control_c, 0, 64, 70
1, 17645, Control_c, 0, 64, 70
1, 17675, Control_c, 0, 64, 69
1, 17704, Control_c, 0, 64, 69
1, 17719, Control_c, 0, 64, 68
1, 17734, Control_c, 0, 64, 68
1, 17749, Control_c, 0, 64, 67
1, 17764, Control_c, 0, 64, 66
1, 17779, Control_c, 0, 64, 65
1, 17794, Control_c, 0, 64, 63
1, 17808, Control_c, 0, 64, 61
1, 17809, Note_on_c, 0, 75, 56
1, 17823, Control_c, 0, 64, 59
1, 17827, Note_off_c, 0, 62, 41
1, 17830, Note_on_c, 0, 63, 26
1, 17838, Control_c, 0, 64, 58
1, 17852, Control_c, 0, 64, 57
1, 17867, Control_c, 0, 64, 57
1, 17882, Control_c, 0, 64, 56
1, 17941, Control_c, 0, 64, 57
1, 17956, Control_c, 0, 64, 58
1, 17971, Control_c, 0, 64, 59
1, 17986, Control_c, 0, 64, 61
1, 18000, Control_c, 0, 64, 62
1, 18015, Control_c, 0, 64, 64
1, 18030, Control_c, 0, 64, 66
1, 18034, Note_off_c, 0, 76, 57
1, 18044, Control_c, 0, 64, 67
1, 18050, Note_on_c, 0, 68, 29
1, 18059, Control_c, 0, 64, 69
1, 18082, Control_c, 0, 64, 71
1, 18097, Control_c, 0, 64, 72
1, 18113, Control_c, 0, 64, 72
1, 18128, Control_c, 0, 64, 73
1, 18143, Control_c, 0, 64, 73
1, 18157, Control_c, 0, 64, 74
1, 18187, Control_c, 0, 64, 74
1, 18221, Note_on_c, 0, 59, 33
1, 18256, Note_on_c, 0, 51, 14
1, 18283, Note_off_c, 0, 63, 40
1, 18409, Note_off_c, 0, 59, 43
1, 18411, Note_on_c, 0, 63, 41
1, 18468, Note_off_c, 0, 68, 11
1, 18482, Control_c, 0, 64, 74
1, 18587, Control_c, 0, 64, 73
1, 18602, Control_c, 0, 64, 72
1, 18617, Control_c, 0, 64, 69
1, 18631, Control_c, 0, 64, 65
1, 18639, Note_on_c, 0, 73, 54
1, 18643, Note_off_c, 0, 63, 33
1, 18646, Control_c, 0, 64, 59
1, 18655, Note_on_c, 0, 58, 27
1, 18661, Control_c, 0, 64, 55
1, 18675, Control_c, 0, 64, 53
1, 18705, Control_c, 0, 64, 54
1, 18720, Control_c, 0, 64, 54
1, 18735, Control_c, 0, 64, 55
1, 18740, Note_off_c, 0, 75, 35
1, 18749, Control_c, 0, 64, 57
1, 18754, Note_off_c, 0, 51, 41
1, 18764, Control_c, 0, 64, 59
1, 18779, Control_c, 0, 64, 62
1, 18794, Control_c, 0, 64, 63
1, 18809, Control_c, 0, 64, 65
1, 18831, Control_c, 0, 64, 66
1, 18846, Control_c, 0, 64, 68
1, 18855, Note_on_c, 0, 64, 42
1, 18861, Control_c, 0, 64, 69
1, 18875, Control_c, 0, 64, 71
1, 18890, Control_c, 0, 64, 72
1, 18906, Control_c, 0, 64, 72
1, 18936, Control_c, 0, 64, 73
1, 18985, Note_off_c, 0, 64, 37
1, 19051, Note_on_c, 0, 75, 58
1, 19069, Note_on_c, 0, 49, 31
1, 19069, Note_on_c, 0, 56, 26
1, 19098, Note_off_c, 0, 58, 35
1, 19129, Note_off_c, 0, 49, 55
1, 19189, Note_off_c, 0, 73, 31
1, 19232, Control_c, 0, 64, 72
1, 19250, Note_off_c, 0, 56, 41
1, 19274, Note_on_c, 0, 63, 34
1, 19291, Control_c, 0, 64, 72
1, 19335, Control_c, 0, 64, 71
1, 19365, Control_c, 0, 64, 71
1, 19380, Control_c, 0, 64, 70
1, 19395, Control_c, 0, 64, 70
1, 19409, Control_c, 0, 64, 69
1, 19424, Control_c, 0, 64, 68
1, 19439, Control_c, 0, 64, 67
1, 19454, Control_c, 0, 64, 66
1, 19469, Control_c, 0, 64, 66
1, 19484, Control_c, 0, 64, 65
1, 19498, Control_c, 0, 64, 64
1, 19513, Control_c, 0, 64, 64
1, 19528, Control_c, 0, 64, 63
1, 19543, Control_c, 0, 64, 62
1, 19548, Note_on_c, 0, 73, 53
1, 19558, Control_c, 0, 64, 61
1, 19562, Note_on_c, 0, 64, 30
1, 19567, Note_off_c, 0, 63, 39
1, 19579, Control_c, 0, 64, 61
1, 19594, Control_c, 0, 64, 60
1, 19609, Control_c, 0, 64, 59
1, 19624, Control_c, 0, 64, 58
1, 19639, Control_c, 0, 64, 58
1, 19669, Control_c, 0, 64, 57
1, 19728, Control_c, 0, 64, 58
1, 19758, Control_c, 0, 64, 58
1, 19773, Control_c, 0, 64, 59
1, 19788, Control_c, 0, 64, 60
1, 19800, Note_on_c, 0, 68, 42
1, 19803, Control_c, 0, 64, 62
1, 19809, Note_off_c, 0, 75, 60
1, 19818, Control_c, 0, 64, 63
1, 19833, Control_c, 0, 64, 64
1, 19848, Control_c, 0, 64, 65
1, 19863, Control_c, 0, 64, 66
1, 19877, Control_c, 0, 64, 68
1, 19892, Control_c, 0, 64, 69
1, 19907, Control_c, 0, 64, 70
1, 19921, Control_c, 0, 64, 71
1, 19936, Control_c, 0, 64, 71
1, 19966, Control_c, 0, 64, 72
1, 20002, Note_on_c, 0, 58, 36
1, 20006, Note_on_c, 0, 56, 37
1, 20077, Note_off_c, 0, 64, 44
1, 20199, Note_off_c, 0, 58, 41
1, 20216, Note_off_c, 0, 56, 39
1, 20220, Note_on_c, 0, 61, 34
1, 20262, Control_c, 0, 64, 71
1, 20328, Control_c, 0, 64, 71
1, 20358, Control_c, 0, 64, 70
1, 20383, Note_off_c, 0, 61, 35
1, 20388, Control_c, 0, 64, 70
1, 20411, Note_off_c, 0, 68, 25
1, 20417, Control_c, 0, 64, 69
1, 20447, Control_c, 0, 64, 69
1, 20477, Control_c, 0, 64, 68
1, 20492, Control_c, 0, 64, 67
1, 20507, Control_c, 0, 64, 67
1, 20519, Note_on_c, 0, 71, 61
1, 20522, Note_on_c, 0, 63, 39
1, 20522, Control_c, 0, 64, 66
1, 20537, Control_c, 0, 64, 65
1, 20551, Control_c, 0, 64, 64
1, 20566, Control_c, 0, 64, 63
1, 20581, Control_c, 0, 64, 62
1, 20596, Control_c, 0, 64, 61
1, 20611, Control_c, 0, 64, 60
1, 20626, Control_c, 0, 64, 60
1, 20641, Control_c, 0, 64, 59
1, 20656, Control_c, 0, 64, 59
1, 20670, Control_c, 0, 64, 58
1, 20685, Control_c, 0, 64, 57
1, 20757, Note_on_c, 0, 68, 39
1, 20774, Control_c, 0, 64, 57
1, 20789, Control_c, 0, 64, 58
1, 20799, Note_off_c, 0, 73, 34
1, 20804, Control_c, 0, 64, 59
1, 20818, Control_c, 0, 64, 60
1, 20833, Control_c, 0, 64, 61
1, 20848, Control_c, 0, 64, 62
1, 20863, Control_c, 0, 64, 63
1, 20877, Control_c, 0, 64, 64
1, 20892, Control_c, 0, 64, 65
1, 20907, Control_c, 0, 64, 66
1, 20922, Control_c, 0, 64, 67
1, 20937, Control_c, 0, 64, 69
1, 20951, Control_c, 0, 64, 70
1, 20966, Note_on_c, 0, 59, 33
1, 20966, Control_c, 0, 64, 71
1, 20981, Control_c, 0, 64, 71
1, 20996, Control_c, 0, 64, 72
1, 21152, Note_off_c, 0, 63, 33
1, 21186, Note_on_c, 0, 64, 32
1, 21345, Control_c, 0, 64, 71
1, 21360, Control_c, 0, 64, 71
1, 21374, Control_c, 0, 64, 69
1, 21378, Note_off_c, 0, 59, 38
1, 21389, Note_on_c, 0, 63, 27
1, 21389, Control_c, 0, 64, 66
1, 21400, Note_on_c, 0, 55, 28
1, 21404, Control_c, 0, 64, 63
1, 21419, Control_c, 0, 64, 59
1, 21434, Control_c, 0, 64, 58
1, 21448, Control_c, 0, 64, 57
1, 21463, Control_c, 0, 64, 58
1, 21478, Control_c, 0, 64, 58
1, 21493, Control_c, 0, 64, 59
1, 21508, Control_c, 0, 64, 61
1, 21523, Control_c, 0, 64, 62
1, 21538, Control_c, 0, 64, 64
1, 21553, Control_c, 0, 64, 65
1, 21567, Control_c, 0, 64, 66
1, 21582, Control_c, 0, 64, 68
1, 21597, Control_c, 0, 64, 69
1, 21602, Note_on_c, 0, 59, 32
1, 21612, Control_c, 0, 64, 70
1, 21627, Control_c, 0, 64, 71
1, 21627, Note_off_c, 0, 64, 45
1, 21641, Control_c, 0, 64, 72
1, 21671, Control_c, 0, 64, 72
1, 21792, Note_on_c, 0, 56, 43
1, 21793, Note_on_c, 0, 75, 54
1, 21809, Note_off_c, 0, 63, 40
1, 21812, Note_off_c, 0, 55, 41
1, 21945, Control_c, 0, 64, 72
1, 21962, Note_off_c, 0, 68, 54
1, 21965, Note_off_c, 0, 75, 56
1, 21967, Note_off_c, 0, 59, 42
1, 21997, Note_off_c, 0, 71, 35
1, 22014, Note_on_c, 0, 65, 41
1, 22019, Control_c, 0, 64, 71
1, 22048, Control_c, 0, 64, 71
1, 22094, Control_c, 0, 64, 70
1, 22123, Control_c, 0, 64, 70
1, 22153, Control_c, 0, 64, 69
1, 22167, Control_c, 0, 64, 69
1, 22182, Control_c, 0, 64, 68
1, 22196, Control_c, 0, 64, 68
1, 22211, Control_c, 0, 64, 67
1, 22226, Control_c, 0, 64, 65
1, 22232, Note_on_c, 0, 70, 58
1, 22234, Note_off_c, 0, 65, 52
1, 22241, Control_c, 0, 64, 64
1, 22256, Control_c, 0, 64, 63
1, 22270, Control_c, 0, 64, 61
1, 22273, Note_on_c, 0, 62, 30
1, 22276, Note_on_c, 0, 67, 36
1, 22285, Control_c, 0, 64, 60
1, 22300, Control_c, 0, 64, 59
1, 22314, Control_c, 0, 64, 58
1, 22329, Control_c, 0, 64, 58
1, 22351, Note_off_c, 0, 56, 33
1, 22374, Control_c, 0, 64, 57
1, 22479, Note_on_c, 0, 68, 43
1, 22633, Control_c, 0, 64, 57
1, 22670, Note_on_c, 0, 51, 41
1, 22690, Note_on_c, 0, 71, 53
1, 22694, Note_off_c, 0, 67, 41
1, 22751, Note_off_c, 0, 70, 35
1, 22769, Note_off_c, 0, 62, 41
1, 22781, Control_c, 0, 64, 57
1, 22796, Control_c, 0, 64, 58
1, 22811, Control_c, 0, 64, 58
1, 22826, Control_c, 0, 64, 60
1, 22841, Control_c, 0, 64, 61
1, 22855, Control_c, 0, 64, 63
1, 22870, Control_c, 0, 64, 64
1, 22885, Control_c, 0, 64, 66
1, 22898, Note_on_c, 0, 64, 47
1, 22900, Control_c, 0, 64, 67
1, 22916, Control_c, 0, 64, 68
1, 22921, Note_off_c, 0, 68, 58
1, 22931, Control_c, 0, 64, 69
1, 23079, Control_c, 0, 64, 69
1, 23106, Note_on_c, 0, 70, 55
1, 23109, Control_c, 0, 64, 68
1, 23124, Control_c, 0, 64, 67
1, 23126, Note_on_c, 0, 61, 32
1, 23135, Note_on_c, 0, 66, 49
1, 23138, Control_c, 0, 64, 65
1, 23153, Control_c, 0, 64, 64
1, 23168, Control_c, 0, 64, 62
1, 23183, Control_c, 0, 64, 61
1, 23189, Note_off_c, 0, 64, 37
1, 23198, Control_c, 0, 64, 60
1, 23212, Control_c, 0, 64, 58
1, 23227, Control_c, 0, 64, 58
1, 23242, Control_c, 0, 64, 57
1, 23244, Note_off_c, 0, 51, 49
1, 23271, Control_c, 0, 64, 56
1, 23286, Control_c, 0, 64, 56
1, 23296, Note_off_c, 0, 71, 28
1, 23323, Control_c, 0, 64, 55
1, 23349, Note_on_c, 0, 67, 49
1, 23353, Control_c, 0, 64, 55
1, 23383, Control_c, 0, 64, 54
1, 23413, Control_c, 0, 64, 54
1, 23431, Note_off_c, 0, 66, 56
1, 23442, Control_c, 0, 64, 53
1, 23457, Control_c, 0, 64, 53
1, 23486, Control_c, 0, 64, 52
1, 23516, Control_c, 0, 64, 52
1, 23547, Note_on_c, 0, 51, 31
1, 23560, Control_c, 0, 64, 51
1, 23571, Note_on_c, 0, 71, 55
1, 23603, Note_off_c, 0, 61, 42
1, 23604, Control_c, 0, 64, 51
1, 23654, Note_off_c, 0, 70, 37
1, 23678, Control_c, 0, 64, 51
1, 23694, Control_c, 0, 64, 52
1, 23709, Control_c, 0, 64, 54
1, 23724, Control_c, 0, 64, 56
1, 23739, Control_c, 0, 64, 58
1, 23754, Control_c, 0, 64, 61
1, 23768, Control_c, 0, 64, 63
1, 23783, Control_c, 0, 64, 64
1, 23788, Note_on_c, 0, 63, 45
1, 23798, Control_c, 0, 64, 66
1, 23813, Control_c, 0, 64, 67
1, 23828, Control_c, 0, 64, 69
1, 23837, Note_off_c, 0, 67, 37
1, 23842, Control_c, 0, 64, 70
1, 23857, Control_c, 0, 64, 70
1, 23872, Control_c, 0, 64, 71
1, 23887, Control_c, 0, 64, 71
1, 24036, Note_off_c, 0, 63, 57
1, 24051, Note_on_c, 0, 68, 52
1, 24072, Control_c, 0, 64, 71
1, 24073, Note_on_c, 0, 59, 38
1, 24087, Control_c, 0, 64, 70
1, 24101, Control_c, 0, 64, 69
1, 24116, Control_c, 0, 64, 67
1, 24131, Control_c, 0, 64, 65
1, 24146, Control_c, 0, 64, 62
1, 24155, Note_off_c, 0, 51, 41
1, 24161, Control_c, 0, 64, 59
1, 24176, Control_c, 0, 64, 57
1, 24220, Control_c, 0, 64, 58
1, 24235, Control_c, 0, 64, 59
1, 24243, Note_off_c, 0, 71, 58
1, 24250, Control_c, 0, 64, 60
1, 24265, Control_c, 0, 64, 61
1, 24280, Control_c, 0, 64, 63
1, 24294, Control_c, 0, 64, 64
1, 24306, Note_on_c, 0, 63, 40
1, 24309, Control_c, 0, 64, 65
1, 24324, Control_c, 0, 64, 67
1, 24339, Control_c, 0, 64, 68
1, 24354, Control_c, 0, 64, 69
1, 24368, Control_c, 0, 64, 70
1, 24383, Control_c, 0, 64, 71
1, 24398, Control_c, 0, 64, 72
1, 24412, Control_c, 0, 64, 72
1, 24427, Control_c, 0, 64, 73
1, 24442, Control_c, 0, 64, 73
1, 24457, Control_c, 0, 64, 74
1, 24488, Control_c, 0, 64, 74
1, 24495, Note_off_c, 0, 59, 27
1, 24510, Note_on_c, 0, 44, 17
1, 24510, Note_off_c, 0, 63, 27
1, 24517, Control_c, 0, 64, 75
1, 24519, Note_on_c, 0, 51, 31
1, 24547, Control_c, 0, 64, 75
1, 24606, Control_c, 0, 64, 76
1, 24649, Note_off_c, 0, 44, 39
1, 24709, Note_on_c, 0, 56, 38
1, 24817, Note_off_c, 0, 56, 57
1, 24942, Note_on_c, 0, 63, 44
1, 25050, Note_off_c, 0, 51, 42
1, 25100, Note_off_c, 0, 68, 24
1, 25134, Note_on_c, 0, 59, 42
1, 25339, Note_on_c, 0, 56, 35
1, 25341, Note_on_c, 0, 51, 34
1, 25368, Note_off_c, 0, 59, 34
1, 25400, Note_off_c, 0, 63, 54
1, 25544, Note_on_c, 0, 68, 45
1, 25770, Note_on_c, 0, 59, 44
1, 25886, Note_off_c, 0, 51, 33
1, 25899, Note_off_c, 0, 56, 37
1, 25983, Note_on_c, 0, 63, 46
1, 26198, Note_on_c, 0, 44, 30
1, 26203, Note_on_c, 0, 51, 37
1, 26203, Note_off_c, 0, 59, 38
1, 26323, Note_off_c, 0, 44, 50
1, 26394, Note_on_c, 0, 56, 42
1, 26484, Note_off_c, 0, 56, 51
1, 26499, Note_off_c, 0, 63, 34
1, 26617, Note_on_c, 0, 63, 54
1, 26768, Note_off_c, 0, 51, 37
1, 26841, Note_on_c, 0, 59, 43
1, 26847, Note_off_c, 0, 68, 37
1, 26919, Note_off_c, 0, 59, 60
1, 27049, Note_on_c, 0, 56, 36
1, 27062, Note_on_c, 0, 51, 33
1, 27097, Note_off_c, 0, 63, 31
1, 27272, Note_on_c, 0, 68, 38
1, 27557, Note_on_c, 0, 59, 31
1, 27621, Note_off_c, 0, 51, 22
1, 27629, Note_on_c, 0, 75, 65
1, 27772, Note_off_c, 0, 56, 21
1, 27905, Control_c, 0, 64, 76
1, 27975, Note_on_c, 0, 63, 38
1, 28039, Note_off_c, 0, 75, 62
1, 28093, Note_off_c, 0, 68, 51
1, 28098, Control_c, 0, 64, 77
1, 28111, Note_off_c, 0, 59, 32
1, 28112, Note_off_c, 0, 63, 55
1, 28188, Note_on_c, 0, 44, 34
1, 28190, Note_on_c, 0, 51, 36
1, 28201, Control_c, 0, 64, 77
1, 28260, Control_c, 0, 64, 78
1, 28334, Note_off_c, 0, 44, 33
1, 28334, Control_c, 0, 64, 78
1, 28391, Note_on_c, 0, 56, 39
1, 28409, Control_c, 0, 64, 79
1, 28492, Note_off_c, 0, 56, 37
1, 28635, Note_on_c, 0, 63, 44
1, 28764, Note_off_c, 0, 51, 40
1, 28857, Note_on_c, 0, 59, 35
1, 29048, Note_on_c, 0, 68, 54
1, 29088, Note_on_c, 0, 51, 24
1, 29093, Note_on_c, 0, 56, 24
1, 29112, Note_off_c, 0, 63, 39
1, 29172, Note_off_c, 0, 59, 44
1, 29264, Note_on_c, 0, 63, 36
1, 29279, Note_off_c, 0, 68, 53
1, 29333, Note_off_c, 0, 63, 58
1, 29488, Note_on_c, 0, 68, 64
1, 29527, Note_off_c, 0, 51, 28
1, 29528, Note_on_c, 0, 59, 24
1, 29607, Note_off_c, 0, 59, 0
1, 29607, Note_on_c, 0, 59, 3
1, 29628, Note_off_c, 0, 56, 39
1, 29712, Note_on_c, 0, 63, 39
1, 29827, Note_off_c, 0, 59, 39
1, 29906, Note_on_c, 0, 67, 55
1, 29926, Note_off_c, 0, 68, 39
1, 29936, Note_on_c, 0, 51, 35
1, 29944, Note_on_c, 0, 44, 23
1, 29946, Note_off_c, 0, 63, 35
1, 29951, Control_c, 0, 64, 78
1, 29966, Control_c, 0, 64, 76
1, 29981, Control_c, 0, 64, 73
1, 29996, Control_c, 0, 64, 70
1, 30011, Control_c, 0, 64, 66
1, 30025, Control_c, 0, 64, 63
1, 30040, Control_c, 0, 64, 62
1, 30063, Control_c, 0, 64, 63
1, 30078, Control_c, 0, 64, 63
1, 30093, Control_c, 0, 64, 64
1, 30108, Control_c, 0, 64, 65
1, 30123, Note_on_c, 0, 58, 35
1, 30123, Control_c, 0, 64, 66
1, 30126, Note_off_c, 0, 44, 38
1, 30138, Control_c, 0, 64, 67
1, 30153, Control_c, 0, 64, 68
1, 30168, Control_c, 0, 64, 69
1, 30182, Control_c, 0, 64, 70
1, 30197, Control_c, 0, 64, 70
1, 30227, Control_c, 0, 64, 71
1, 30275, Note_off_c, 0, 58, 36
1, 30345, Control_c, 0, 64, 70
1, 30349, Note_on_c, 0, 68, 49
1, 30359, Note_off_c, 0, 67, 30
1, 30360, Control_c, 0, 64, 69
1, 30375, Control_c, 0, 64, 67
1, 30376, Note_on_c, 0, 63, 40
1, 30390, Control_c, 0, 64, 64
1, 30403, Control_c, 0, 64, 60
1, 30418, Control_c, 0, 64, 56
1, 30433, Control_c, 0, 64, 54
1, 30448, Control_c, 0, 64, 53
1, 30478, Control_c, 0, 64, 54
1, 30488, Note_off_c, 0, 51, 44
1, 30492, Control_c, 0, 64, 55
1, 30507, Control_c, 0, 64, 58
1, 30522, Control_c, 0, 64, 61
1, 30537, Control_c, 0, 64, 63
1, 30548, Note_on_c, 0, 59, 44
1, 30552, Control_c, 0, 64, 65
1, 30567, Control_c, 0, 64, 66
1, 30581, Control_c, 0, 64, 68
1, 30596, Control_c, 0, 64, 70
1, 30611, Control_c, 0, 64, 71
1, 30626, Control_c, 0, 64, 72
1, 30641, Control_c, 0, 64, 73
1, 30652, Note_off_c, 0, 59, 59
1, 30655, Control_c, 0, 64, 73
1, 30670, Control_c, 0, 64, 74
1, 30685, Control_c, 0, 64, 74
1, 30729, Control_c, 0, 64, 75
1, 30755, Note_off_c, 0, 68, 57
1, 30774, Note_on_c, 0, 51, 34
1, 30776, Note_on_c, 0, 56, 33
1, 30789, Note_off_c, 0, 63, 52
1, 31017, Note_on_c, 0, 63, 42
1, 31167, Control_c, 0, 64, 74
1, 31182, Control_c, 0, 64, 74
1, 31197, Control_c, 0, 64, 72
1, 31206, Note_on_c, 0, 75, 64
1, 31211, Control_c, 0, 64, 68
1, 31226, Note_off_c, 0, 51, 30
1, 31226, Control_c, 0, 64, 64
1, 31230, Note_on_c, 0, 60, 31
1, 31241, Control_c, 0, 64, 60
1, 31256, Control_c, 0, 64, 58
1, 31272, Note_off_c, 0, 56, 39
1, 31285, Control_c, 0, 64, 59
1, 31300, Control_c, 0, 64, 61
1, 31315, Note_off_c, 0, 63, 37
1, 31315, Control_c, 0, 64, 62
1, 31330, Control_c, 0, 64, 64
1, 31345, Control_c, 0, 64, 66
1, 31360, Control_c, 0, 64, 69
1, 31375, Control_c, 0, 64, 71
1, 31390, Control_c, 0, 64, 73
1, 31404, Control_c, 0, 64, 74
1, 31419, Control_c, 0, 64, 75
1, 31424, Note_off_c, 0, 60, 39
1, 31426, Note_on_c, 0, 66, 51
1, 31434, Control_c, 0, 64, 77
1, 31434, Control_c, 0, 67, 112
1, 31449, Control_c, 0, 64, 78
1, 31449, Control_c, 0, 67, 81
1, 31464, Control_c, 0, 64, 79
1, 31464, Control_c, 0, 67, 51
1, 31478, Control_c, 0, 64, 79
1, 31478, Control_c, 0, 67, 0
1, 31493, Control_c, 0, 64, 80
1, 31538, Control_c, 0, 64, 80
1, 31623, Note_on_c, 0, 76, 65
1, 31639, Note_on_c, 0, 44, 27
1, 31657, Note_on_c, 0, 54, 24
1, 31667, Note_off_c, 0, 66, 35
1, 31674, Note_off_c, 0, 75, 57
1, 31709, Note_off_c, 0, 44, 43
1, 31795, Note_off_c, 0, 54, 47
1, 31859, Note_on_c, 0, 60, 34
1, 31983, Note_off_c, 0, 60, 41
1, 32020, Control_c, 0, 64, 80
1, 32076, Note_on_c, 0, 75, 60
1, 32079, Control_c, 0, 64, 79
1, 32090, Note_on_c, 0, 66, 40
1, 32094, Control_c, 0, 64, 79
1, 32108, Control_c, 0, 64, 78
1, 32123, Control_c, 0, 64, 76
1, 32138, Control_c, 0, 64, 74
1, 32153, Control_c, 0, 64, 71
1, 32168, Control_c, 0, 64, 66
1, 32183, Control_c, 0, 64, 62
1, 32198, Control_c, 0, 64, 58
1, 32212, Control_c, 0, 64, 57
1, 32257, Control_c, 0, 64, 58
1, 32272, Control_c, 0, 64, 59
1, 32287, Control_c, 0, 64, 60
1, 32308, Control_c, 0, 64, 62
1, 32317, Note_off_c, 0, 76, 38
1, 32323, Control_c, 0, 64, 63
1, 32338, Control_c, 0, 64, 64
1, 32353, Control_c, 0, 64, 65
1, 32363, Note_on_c, 0, 68, 22
1, 32367, Control_c, 0, 64, 66
1, 32382, Control_c, 0, 64, 67
1, 32397, Control_c, 0, 64, 69
1, 32412, Control_c, 0, 64, 70
1, 32427, Control_c, 0, 64, 71
1, 32442, Control_c, 0, 64, 72
1, 32457, Control_c, 0, 64, 73
1, 32472, Control_c, 0, 64, 73
1, 32487, Control_c, 0, 64, 74
1, 32502, Control_c, 0, 64, 74
1, 32531, Control_c, 0, 64, 75
1, 32531, Control_c, 0, 67, 48
1, 32539, Note_on_c, 0, 60, 35
1, 32546, Control_c, 0, 64, 75
1, 32546, Control_c, 0, 67, 71
1, 32561, Control_c, 0, 67, 94
1, 32576, Control_c, 0, 67, 117
1, 32591, Control_c, 0, 64, 76
1, 32591, Control_c, 0, 67, 127
1, 32615, Note_off_c, 0, 66, 51
1, 32652, Note_off_c, 0, 68, 0
1, 32689, Poly_aftertouch_c, 0, 68, 127
1, 32734, Note_on_c, 0, 63, 49
1, 32775, Note_off_c, 0, 60, 36
1, 32776, Poly_aftertouch_c, 0, 68, 0
1, 32946, Note_on_c, 0, 73, 64
1, 32947, Control_c, 0, 64, 75
1, 32962, Control_c, 0, 64, 74
1, 32971, Note_on_c, 0, 64, 40
1, 32976, Control_c, 0, 64, 72
1, 32991, Control_c, 0, 64, 69
1, 33002, Note_off_c, 0, 63, 55
1, 33006, Control_c, 0, 64, 65
1, 33021, Control_c, 0, 64, 60
1, 33036, Control_c, 0, 64, 55
1, 33058, Control_c, 0, 64, 53
1, 33103, Control_c, 0, 64, 54
1, 33118, Control_c, 0, 64, 55
1, 33132, Control_c, 0, 64, 57
1, 33147, Control_c, 0, 64, 60
1, 33162, Control_c, 0, 64, 62
1, 33177, Control_c, 0, 64, 64
1, 33187, Note_on_c, 0, 68, 44
1, 33191, Control_c, 0, 64, 66
1, 33199, Note_off_c, 0, 75, 36
1, 33206, Control_c, 0, 64, 69
1, 33221, Control_c, 0, 64, 71
1, 33236, Control_c, 0, 64, 72
1, 33251, Control_c, 0, 64, 73
1, 33265, Control_c, 0, 64, 74
1, 33296, Control_c, 0, 64, 74
1, 33311, Control_c, 0, 64, 75
1, 33341, Control_c, 0, 64, 75
1, 33393, Note_on_c, 0, 49, 36
1, 33400, Note_on_c, 0, 56, 42
1, 33593, Note_off_c, 0, 64, 38
1, 33595, Note_on_c, 0, 61, 45
1, 33658, Note_off_c, 0, 68, 28
1, 33824, Note_on_c, 0, 58, 58
1, 33867, Control_c, 0, 64, 75
1, 34039, Note_off_c, 0, 61, 35
1, 34044, Note_on_c, 0, 68, 51
1, 34067, Note_off_c, 0, 56, 32
1, 34222, Control_c, 0, 64, 74
1, 34237, Control_c, 0, 64, 73
1, 34241, Note_on_c, 0, 75, 63
1, 34252, Control_c, 0, 64, 69
1, 34262, Note_on_c, 0, 59, 44
1, 34267, Control_c, 0, 64, 64
1, 34282, Control_c, 0, 64, 60
1, 34290, Note_off_c, 0, 58, 54
1, 34296, Control_c, 0, 64, 57
1, 34326, Control_c, 0, 64, 58
1, 34341, Control_c, 0, 64, 60
1, 34356, Control_c, 0, 64, 62
1, 34371, Control_c, 0, 64, 64
1, 34374, Note_off_c, 0, 68, 31
1, 34386, Control_c, 0, 64, 66
1, 34400, Control_c, 0, 64, 67
1, 34408, Note_off_c, 0, 49, 60
1, 34415, Control_c, 0, 64, 69
1, 34430, Control_c, 0, 64, 71
1, 34436, Note_on_c, 0, 64, 46
1, 34445, Control_c, 0, 64, 72
1, 34460, Control_c, 0, 64, 73
1, 34475, Control_c, 0, 64, 73
1, 34645, Control_c, 0, 64, 73
1, 34660, Control_c, 0, 64, 71
1, 34675, Control_c, 0, 64, 66
1, 34685, Note_on_c, 0, 68, 54
1, 34690, Control_c, 0, 64, 62
1, 34704, Control_c, 0, 64, 60
1, 34707, Note_on_c, 0, 51, 27
1, 34719, Control_c, 0, 64, 60
1, 34726, Note_off_c, 0, 73, 13
1, 34734, Control_c, 0, 64, 60
1, 34748, Control_c, 0, 64, 61
1, 34763, Control_c, 0, 64, 62
1, 34770, Note_off_c, 0, 75, 61
1, 34778, Control_c, 0, 64, 64
1, 34793, Control_c, 0, 64, 65
1, 34808, Control_c, 0, 64, 67
1, 34818, Note_off_c, 0, 64, 39
1, 34823, Control_c, 0, 64, 69
1, 34836, Note_off_c, 0, 59, 58
1, 34837, Control_c, 0, 64, 70
1, 34852, Control_c, 0, 64, 72
1, 34867, Control_c, 0, 64, 72
1, 34871, Note_off_c, 0, 51, 52
1, 34883, Control_c, 0, 64, 73
1, 34892, Note_on_c, 0, 63, 50
1, 34905, Note_off_c, 0, 68, 58
1, 34911, Control_c, 0, 64, 73
1, 35089, Control_c, 0, 64, 73
1, 35101, Note_off_c, 0, 63, 57
1, 35104, Control_c, 0, 64, 71
1, 35105, Note_on_c, 0, 68, 53
1, 35118, Control_c, 0, 64, 68
1, 35119, Note_on_c, 0, 59, 45
1, 35131, Note_on_c, 0, 39, 35
1, 35133, Control_c, 0, 64, 63
1, 35148, Control_c, 0, 64, 58
1, 35163, Control_c, 0, 64, 54
1, 35177, Control_c, 0, 64, 53
1, 35192, Control_c, 0, 64, 54
1, 35207, Control_c, 0, 64, 55
1, 35222, Control_c, 0, 64, 56
1, 35237, Control_c, 0, 64, 59
1, 35251, Control_c, 0, 64, 61
1, 35266, Control_c, 0, 64, 63
1, 35281, Control_c, 0, 64, 65
1, 35304, Control_c, 0, 64, 66
1, 35319, Control_c, 0, 64, 68
1, 35333, Control_c, 0, 64, 69
1, 35336, Note_off_c, 0, 39, 42
1, 35348, Control_c, 0, 64, 70
1, 35349, Note_off_c, 0, 59, 56
1, 35350, Note_on_c, 0, 61, 46
1, 35351, Note_on_c, 0, 46, 42
1, 35363, Control_c, 0, 64, 70
1, 35377, Control_c, 0, 64, 71
1, 35407, Control_c, 0, 64, 71
1, 35555, Control_c, 0, 64, 71
1, 35562, Note_off_c, 0, 61, 54
1, 35569, Control_c, 0, 64, 69
1, 35578, Note_on_c, 0, 70, 60
1, 35584, Note_off_c, 0, 46, 51
1, 35584, Control_c, 0, 64, 64
1, 35599, Control_c, 0, 64, 60
1, 35601, Note_on_c, 0, 53, 41
1, 35603, Note_on_c, 0, 62, 40
1, 35614, Control_c, 0, 64, 57
1, 35629, Control_c, 0, 64, 56
1, 35644, Control_c, 0, 64, 57
1, 35659, Control_c, 0, 64, 58
1, 35675, Control_c, 0, 64, 59
1, 35689, Note_off_c, 0, 68, 30
1, 35690, Control_c, 0, 64, 61
1, 35705, Control_c, 0, 64, 63
1, 35720, Control_c, 0, 64, 64
1, 35735, Control_c, 0, 64, 64
1, 35749, Control_c, 0, 64, 65
1, 35764, Control_c, 0, 64, 66
1, 35779, Control_c, 0, 64, 67
1, 35794, Control_c, 0, 64, 69
1, 35808, Control_c, 0, 64, 70
1, 35818, Note_off_c, 0, 53, 56
1, 35819, Note_on_c, 0, 63, 52
1, 35822, Note_off_c, 0, 62, 57
1, 35823, Control_c, 0, 64, 71
1, 35836, Note_on_c, 0, 56, 41
1, 35838, Control_c, 0, 64, 71
1, 35857, Note_off_c, 0, 70, 38
1, 35868, Control_c, 0, 64, 72
1, 35912, Control_c, 0, 64, 72
1, 36082, Control_c, 0, 64, 72
1, 36089, Note_off_c, 0, 63, 59
1, 36097, Control_c, 0, 64, 71
1, 36104, Note_on_c, 0, 71, 53
1, 36112, Control_c, 0, 64, 68
1, 36127, Control_c, 0, 64, 64
1, 36129, Note_on_c, 0, 61, 37
1, 36132, Note_on_c, 0, 51, 31
1, 36137, Note_on_c, 0, 55, 32
1, 36142, Control_c, 0, 64, 59
1, 36156, Control_c, 0, 64, 55
1, 36160, Note_off_c, 0, 56, 25
1, 36171, Control_c, 0, 64, 53
1, 36201, Control_c, 0, 64, 54
1, 36216, Control_c, 0, 64, 55
1, 36231, Control_c, 0, 64, 57
1, 36246, Control_c, 0, 64, 60
1, 36261, Control_c, 0, 64, 62
1, 36275, Control_c, 0, 64, 64
1, 36290, Control_c, 0, 64, 66
1, 36305, Control_c, 0, 64, 67
1, 36319, Control_c, 0, 64, 69
1, 36334, Control_c, 0, 64, 71
1, 36349, Control_c, 0, 64, 72
1, 36364, Control_c, 0, 64, 73
1, 36366, Note_off_c, 0, 71, 55
1, 36380, Note_off_c, 0, 61, 54
1, 36389, Note_off_c, 0, 55, 41
1, 36393, Control_c, 0, 64, 73
1, 36394, Note_on_c, 0, 63, 45
1, 36500, Note_off_c, 0, 51, 39
1, 36687, Note_off_c, 0, 63, 55
1, 36691, Control_c, 0, 64, 73
1, 36691, Note_on_c, 0, 68, 51
1, 36701, Note_on_c, 0, 56, 40
1, 36705, Control_c, 0, 64, 72
1, 36715, Note_on_c, 0, 59, 32
1, 36720, Control_c, 0, 64, 71
1, 36735, Control_c, 0, 64, 69
1, 36750, Control_c, 0, 64, 66
1, 36765, Control_c, 0, 64, 63
1, 36779, Control_c, 0, 64, 59
1, 36802, Control_c, 0, 64, 57
1, 36817, Control_c, 0, 64, 56
1, 36876, Control_c, 0, 64, 57
1, 36891, Control_c, 0, 64, 58
1, 36905, Control_c, 0, 64, 59
1, 36920, Control_c, 0, 64, 61
1, 36935, Control_c, 0, 64, 62
1, 36949, Control_c, 0, 64, 64
1, 36952, Note_on_c, 0, 63, 36
1, 36964, Control_c, 0, 64, 65
1, 36979, Control_c, 0, 64, 67
1, 36994, Control_c, 0, 64, 68
1, 37009, Control_c, 0, 64, 70
1, 37024, Control_c, 0, 64, 71
1, 37039, Control_c, 0, 64, 72
1, 37053, Control_c, 0, 64, 73
1, 37068, Control_c, 0, 64, 74
1, 37083, Control_c, 0, 64, 74
1, 37086, Note_off_c, 0, 68, 49
1, 37098, Control_c, 0, 64, 75
1, 37113, Control_c, 0, 64, 75
1, 37141, Control_c, 0, 64, 76
1, 37164, Note_on_c, 0, 44, 18
1, 37167, Note_on_c, 0, 51, 34
1, 37196, Note_off_c, 0, 56, 36
1, 37239, Note_off_c, 0, 63, 57
1, 37353, Note_on_c, 0, 56, 39
1, 37395, Note_off_c, 0, 44, 41
1, 37410, Note_off_c, 0, 59, 35
1, 37565, Note_off_c, 0, 51, 41
1, 37586, Note_on_c, 0, 64, 47
1, 37633, Note_off_c, 0, 56, 37
1, 37713, Control_c, 0, 64, 75
1, 37766, Note_off_c, 0, 64, 51
1, 37799, Note_on_c, 0, 71, 48
1, 37808, Note_on_c, 0, 68, 31
1, 38003, Note_on_c, 0, 56, 31
1, 38009, Control_c, 0, 64, 75
1, 38012, Note_on_c, 0, 63, 29
1, 38024, Control_c, 0, 64, 73
1, 38039, Control_c, 0, 64, 67
1, 38053, Control_c, 0, 64, 62
1, 38069, Control_c, 0, 64, 56
1, 38084, Control_c, 0, 64, 55
1, 38086, Note_off_c, 0, 71, 56
1, 38099, Control_c, 0, 64, 56
1, 38114, Control_c, 0, 64, 58
1, 38129, Control_c, 0, 64, 60
1, 38143, Control_c, 0, 64, 63
1, 38158, Control_c, 0, 64, 65
1, 38168, Note_off_c, 0, 68, 55
1, 38173, Control_c, 0, 64, 67
1, 38187, Control_c, 0, 64, 69
1, 38202, Control_c, 0, 64, 70
1, 38217, Control_c, 0, 64, 71
1, 38232, Control_c, 0, 64, 72
1, 38235, Note_on_c, 0, 59, 37
1, 38247, Control_c, 0, 64, 73
1, 38298, Note_off_c, 0, 63, 36
1, 38352, Note_off_c, 0, 59, 57
1, 38399, Note_off_c, 0, 56, 53
1, 38463, Note_on_c, 0, 59, 40
1, 38506, Control_c, 0, 64, 72
1, 38565, Control_c, 0, 64, 72
1, 38678, Note_on_c, 0, 68, 40
1, 38679, Note_on_c, 0, 63, 36
1, 38699, Control_c, 0, 64, 71
1, 38892, Note_on_c, 0, 44, 31
1, 38901, Note_on_c, 0, 51, 30
1, 38911, Note_off_c, 0, 68, 37
1, 38995, Note_off_c, 0, 63, 58
1, 39097, Note_on_c, 0, 56, 39
1, 39119, Note_off_c, 0, 44, 40
1, 39301, Note_off_c, 0, 51, 42
1, 39323, Note_on_c, 0, 64, 42
1, 39374, Note_off_c, 0, 59, 40
1, 39381, Note_off_c, 0, 56, 36
1, 39539, Note_on_c, 0, 68, 42
1, 39547, Note_on_c, 0, 71, 44
1, 39675, Note_off_c, 0, 64, 23
1, 39715, Control_c, 0, 64, 71
1, 39730, Control_c, 0, 64, 70
1, 39745, Control_c, 0, 64, 68
1, 39751, Note_on_c, 0, 63, 36
1, 39759, Note_on_c, 0, 56, 34
1, 39760, Control_c, 0, 64, 66
1, 39775, Control_c, 0, 64, 63
1, 39797, Control_c, 0, 64, 62
1, 39818, Note_off_c, 0, 71, 36
1, 39827, Control_c, 0, 64, 62
1, 39841, Control_c, 0, 64, 63
1, 39856, Control_c, 0, 64, 64
1, 39871, Control_c, 0, 64, 65
1, 39886, Control_c, 0, 64, 66
1, 39901, Control_c, 0, 64, 66
1, 39915, Control_c, 0, 64, 67
1, 39930, Control_c, 0, 64, 68
1, 39939, Note_off_c, 0, 63, 63
1, 39945, Control_c, 0, 64, 69
1, 39960, Control_c, 0, 64, 69
1, 39975, Note_on_c, 0, 59, 45
1, 39975, Control_c, 0, 64, 70
1, 40005, Control_c, 0, 64, 71
1, 40042, Note_off_c, 0, 59, 56
1, 40088, Note_off_c, 0, 56, 48
1, 40234, Note_on_c, 0, 62, 53
1, 40241, Control_c, 0, 64, 70
1, 40256, Control_c, 0, 64, 69
1, 40261, Note_off_c, 0, 68, 52
1, 40261, Note_on_c, 0, 53, 32
1, 40271, Control_c, 0, 64, 67
1, 40286, Control_c, 0, 64, 63
1, 40301, Control_c, 0, 64, 59
1, 40315, Control_c, 0, 64, 57
1, 40330, Control_c, 0, 64, 56
1, 40359, Control_c, 0, 64, 57
1, 40374, Control_c, 0, 64, 57
1, 40389, Control_c, 0, 64, 58
1, 40404, Control_c, 0, 64, 60
1, 40419, Control_c, 0, 64, 61
1, 40434, Control_c, 0, 64, 63
1, 40449, Control_c, 0, 64, 64
1, 40461, Note_on_c, 0, 70, 45
1, 40461, Note_on_c, 0, 68, 37
1, 40464, Control_c, 0, 64, 65
1, 40479, Control_c, 0, 64, 66
1, 40494, Control_c, 0, 64, 68
1, 40509, Control_c, 0, 64, 69
1, 40524, Control_c, 0, 64, 71
1, 40546, Control_c, 0, 64, 71
1, 40561, Control_c, 0, 64, 72
1, 40591, Control_c, 0, 64, 73
1, 40605, Control_c, 0, 64, 73
1, 40688, Note_on_c, 0, 52, 42
1, 40706, Note_on_c, 0, 44, 26
1, 40750, Note_off_c, 0, 53, 26
1, 40773, Note_off_c, 0, 44, 54
1, 40856, Note_off_c, 0, 62, 38
1, 40887, Note_off_c, 0, 52, 56
1, 40895, Note_on_c, 0, 61, 46
1, 40997, Note_off_c, 0, 68, 35
1, 41110, Note_off_c, 0, 61, 59
1, 41114, Note_on_c, 0, 60, 48
1, 41122, Control_c, 0, 64, 73
1, 41129, Note_on_c, 0, 64, 52
1, 41137, Control_c, 0, 64, 71
1, 41152, Control_c, 0, 64, 67
1, 41167, Control_c, 0, 64, 61
1, 41182, Control_c, 0, 64, 55
1, 41197, Control_c, 0, 64, 51
1, 41212, Control_c, 0, 64, 50
1, 41242, Control_c, 0, 64, 50
1, 41257, Control_c, 0, 64, 52
1, 41272, Control_c, 0, 64, 54
1, 41294, Control_c, 0, 64, 58
1, 41309, Control_c, 0, 64, 61
1, 41324, Control_c, 0, 64, 63
1, 41339, Control_c, 0, 64, 64
1, 41346, Note_on_c, 0, 68, 40
1, 41353, Control_c, 0, 64, 66
1, 41368, Control_c, 0, 64, 67
1, 41383, Control_c, 0, 64, 68
1, 41398, Control_c, 0, 64, 69
1, 41402, Note_off_c, 0, 60, 31
1, 41413, Control_c, 0, 64, 70
1, 41427, Control_c, 0, 64, 71
1, 41457, Control_c, 0, 64, 71
1, 41501, Control_c, 0, 64, 72
1, 41541, Note_on_c, 0, 63, 37
1, 41544, Note_off_c, 0, 64, 62
1, 41564, Note_on_c, 0, 56, 33
1, 41608, Note_off_c, 0, 56, 61
1, 41644, Note_off_c, 0, 63, 63
1, 41776, Note_on_c, 0, 59, 40
1, 41812, Control_c, 0, 64, 71
1, 41856, Note_off_c, 0, 70, 24
1, 41975, Control_c, 0, 64, 71
1, 41986, Note_on_c, 0, 62, 47
1, 41999, Note_on_c, 0, 77, 63
1, 42005, Control_c, 0, 64, 70
1, 42010, Note_off_c, 0, 68, 37
1, 42020, Control_c, 0, 64, 67
1, 42042, Control_c, 0, 64, 63
1, 42057, Control_c, 0, 64, 58
1, 42073, Control_c, 0, 64, 53
1, 42088, Control_c, 0, 64, 52
1, 42117, Control_c, 0, 64, 53
1, 42132, Control_c, 0, 64, 55
1, 42147, Control_c, 0, 64, 58
1, 42157, Note_off_c, 0, 59, 31
1, 42162, Control_c, 0, 64, 60
1, 42176, Control_c, 0, 64, 62
1, 42191, Control_c, 0, 64, 63
1, 42206, Control_c, 0, 64, 65
1, 42221, Control_c, 0, 64, 66
1, 42234, Note_on_c, 0, 68, 40
1, 42236, Control_c, 0, 64, 67
1, 42242, Note_on_c, 0, 70, 40
1, 42250, Control_c, 0, 64, 69
1, 42265, Control_c, 0, 64, 70
1, 42280, Control_c, 0, 64, 71
1, 42295, Control_c, 0, 64, 72
1, 42309, Control_c, 0, 64, 73
1, 42324, Control_c, 0, 64, 73
1, 42339, Control_c, 0, 64, 74
1, 42354, Control_c, 0, 64, 74
1, 42384, Control_c, 0, 64, 75
1, 42414, Control_c, 0, 64, 75
1, 42420, Note_on_c, 0, 76, 51
1, 42468, Note_off_c, 0, 77, 51
1, 42477, Note_off_c, 0, 62, 20
1, 42510, Note_off_c, 0, 76, 59
1, 42634, Note_on_c, 0, 61, 33
1, 42739, Note_off_c, 0, 61, 55
1, 42771, Note_off_c, 0, 68, 30
1, 42881, Control_c, 0, 64, 75
1, 42892, Note_on_c, 0, 64, 40
1, 42902, Note_on_c, 0, 60, 31
1, 42911, Control_c, 0, 64, 74
1, 42926, Control_c, 0, 64, 72
1, 42941, Control_c, 0, 64, 68
1, 42956, Control_c, 0, 64, 61
1, 42971, Control_c, 0, 64, 54
1, 42985, Control_c, 0, 64, 51
1, 43015, Control_c, 0, 64, 52
1, 43030, Control_c, 0, 64, 54
1, 43045, Control_c, 0, 64, 57
1, 43059, Control_c, 0, 64, 60
1, 43074, Control_c, 0, 64, 62
1, 43089, Control_c, 0, 64, 64
1, 43104, Control_c, 0, 64, 65
1, 43111, Note_on_c, 0, 68, 38
1, 43118, Control_c, 0, 64, 67
1, 43133, Control_c, 0, 64, 68
1, 43148, Control_c, 0, 64, 69
1, 43163, Control_c, 0, 64, 70
1, 43178, Control_c, 0, 64, 71
1, 43192, Control_c, 0, 64, 72
1, 43206, Note_off_c, 0, 70, 28
1, 43222, Control_c, 0, 64, 72
1, 43281, Control_c, 0, 64, 73
1, 43301, Note_off_c, 0, 60, 40
1, 43307, Note_on_c, 0, 63, 43
1, 43346, Note_on_c, 0, 56, 23
1, 43399, Note_off_c, 0, 64, 36
1, 43426, Note_off_c, 0, 63, 60
1, 43474, Control_c, 0, 64, 72
1, 43492, Note_off_c, 0, 56, 52
1, 43516, Note_on_c, 0, 59, 45
1, 43557, Note_off_c, 0, 68, 53
1, 43689, Control_c, 0, 64, 72
1, 43719, Control_c, 0, 64, 71
1, 43734, Control_c, 0, 64, 71
1, 43743, Note_on_c, 0, 58, 50
1, 43749, Control_c, 0, 64, 69
1, 43760, Note_on_c, 0, 52, 35
1, 43763, Control_c, 0, 64, 66
1, 43778, Control_c, 0, 64, 61
1, 43793, Control_c, 0, 64, 56
1, 43808, Control_c, 0, 64, 53
1, 43823, Control_c, 0, 64, 52
1, 43838, Control_c, 0, 64, 53
1, 43850, Note_off_c, 0, 59, 36
1, 43853, Control_c, 0, 64, 53
1, 43868, Control_c, 0, 64, 54
1, 43882, Control_c, 0, 64, 56
1, 43897, Control_c, 0, 64, 58
1, 43912, Control_c, 0, 64, 60
1, 43927, Control_c, 0, 64, 62
1, 43941, Control_c, 0, 64, 63
1, 43956, Control_c, 0, 64, 64
1, 43969, Note_on_c, 0, 61, 41
1, 43971, Control_c, 0, 64, 65
1, 43986, Control_c, 0, 64, 67
1, 43987, Note_on_c, 0, 67, 38
1, 44001, Control_c, 0, 64, 68
1, 44015, Control_c, 0, 64, 69
1, 44030, Control_c, 0, 64, 70
1, 44043, Note_off_c, 0, 58, 49
1, 44045, Control_c, 0, 64, 71
1, 44060, Control_c, 0, 64, 72
1, 44089, Control_c, 0, 64, 72
1, 44107, Note_off_c, 0, 61, 36
1, 44119, Control_c, 0, 64, 73
1, 44177, Note_on_c, 0, 51, 34
1, 44197, Note_on_c, 0, 44, 19
1, 44229, Note_off_c, 0, 52, 37
1, 44300, Note_off_c, 0, 44, 57
1, 44357, Note_off_c, 0, 51, 47
1, 44384, Note_on_c, 0, 68, 45
1, 44388, Note_on_c, 0, 59, 45
1, 44437, Control_c, 0, 64, 72
1, 44542, Control_c, 0, 64, 72
1, 44583, Note_off_c, 0, 68, 34
1, 44589, Note_off_c, 0, 67, 13
1, 44601, Control_c, 0, 64, 71
1, 44613, Note_on_c, 0, 61, 53
1, 44615, Note_on_c, 0, 64, 49
1, 44631, Control_c, 0, 64, 71
1, 44646, Control_c, 0, 64, 70
1, 44661, Control_c, 0, 64, 69
1, 44676, Control_c, 0, 64, 67
1, 44691, Control_c, 0, 64, 66
1, 44705, Control_c, 0, 64, 64
1, 44720, Control_c, 0, 64, 62
1, 44735, Control_c, 0, 64, 60
1, 44740, Note_off_c, 0, 59, 31
1, 44750, Control_c, 0, 64, 59
1, 44764, Control_c, 0, 64, 59
1, 44779, Control_c, 0, 64, 58
1, 44809, Control_c, 0, 64, 58
1, 44824, Control_c, 0, 64, 57
1, 44838, Note_on_c, 0, 70, 45
1, 44838, Control_c, 0, 64, 56
1, 44843, Note_on_c, 0, 67, 37
1, 44853, Control_c, 0, 64, 56
1, 44883, Control_c, 0, 64, 55
1, 44942, Control_c, 0, 64, 56
1, 44971, Control_c, 0, 64, 57
1, 44986, Control_c, 0, 64, 58
1, 45001, Control_c, 0, 64, 59
1, 45016, Control_c, 0, 64, 61
1, 45038, Control_c, 0, 64, 62
1, 45053, Control_c, 0, 64, 64
1, 45063, Note_on_c, 0, 63, 39
1, 45068, Control_c, 0, 64, 65
1, 45072, Note_on_c, 0, 56, 44
1, 45079, Note_off_c, 0, 64, 37
1, 45083, Control_c, 0, 64, 67
1, 45097, Control_c, 0, 64, 69
1, 45112, Control_c, 0, 64, 71
1, 45127, Control_c, 0, 64, 72
1, 45142, Control_c, 0, 64, 73
1, 45157, Control_c, 0, 64, 73
1, 45171, Control_c, 0, 64, 74
1, 45202, Note_off_c, 0, 63, 59
1, 45265, Note_off_c, 0, 61, 43
1, 45286, Note_on_c, 0, 71, 54
1, 45290, Note_off_c, 0, 56, 59
1, 45350, Note_off_c, 0, 67, 38
1, 45360, Note_off_c, 0, 70, 62
1, 45386, Note_off_c, 0, 71, 62
1, 45497, Note_on_c, 0, 59, 52
1, 45498, Control_c, 0, 64, 73
1, 45513, Control_c, 0, 64, 73
1, 45528, Control_c, 0, 64, 71
1, 45543, Control_c, 0, 64, 70
1, 45558, Control_c, 0, 64, 67
1, 45573, Control_c, 0, 64, 65
1, 45587, Control_c, 0, 64, 62
1, 45602, Control_c, 0, 64, 59
1, 45617, Control_c, 0, 64, 58
1, 45647, Control_c, 0, 64, 57
1, 45691, Control_c, 0, 64, 57
1, 45705, Control_c, 0, 64, 56
1, 45717, Note_on_c, 0, 68, 45
1, 45731, Note_on_c, 0, 63, 38
1, 45765, Control_c, 0, 64, 57
1, 45802, Control_c, 0, 64, 58
1, 45817, Control_c, 0, 64, 58
1, 45832, Control_c, 0, 64, 59
1, 45847, Control_c, 0, 64, 60
1, 45861, Control_c, 0, 64, 61
1, 45876, Control_c, 0, 64, 61
1, 45891, Control_c, 0, 64, 62
1, 45905, Control_c, 0, 64, 63
1, 45920, Control_c, 0, 64, 64
1, 45935, Control_c, 0, 64, 65
1, 45937, Note_on_c, 0, 44, 35
1, 45950, Control_c, 0, 64, 66
1, 45965, Control_c, 0, 64, 67
1, 45979, Control_c, 0, 64, 68
1, 45994, Control_c, 0, 64, 69
1, 46009, Control_c, 0, 64, 70
1, 46024, Control_c, 0, 64, 71
1, 46039, Control_c, 0, 64, 71
1, 46054, Control_c, 0, 64, 72
1, 46070, Control_c, 0, 64, 72
1, 46084, Control_c, 0, 64, 73
1, 46114, Control_c, 0, 64, 73
1, 46143, Control_c, 0, 64, 74
1, 46159, Note_on_c, 0, 56, 50
1, 46173, Control_c, 0, 64, 74
1, 46203, Control_c, 0, 64, 75
1, 46232, Control_c, 0, 64, 75
1, 46285, Note_off_c, 0, 59, 30
1, 46291, Control_c, 0, 64, 76
1, 46294, Note_off_c, 0, 63, 0
1, 46357, Poly_aftertouch_c, 0, 63, 0
1, 46371, Note_on_c, 0, 51, 45
1, 46381, Control_c, 0, 64, 76
1, 46381, Control_c, 0, 67, 118
1, 46396, Control_c, 0, 67, 110
1, 46400, Note_off_c, 0, 56, 55
1, 46410, Control_c, 0, 67, 104
1, 46425, Control_c, 0, 67, 98
1, 46434, Note_off_c, 0, 44, 36
1, 46440, Control_c, 0, 67, 91
1, 46455, Control_c, 0, 67, 85
1, 46470, Control_c, 0, 67, 77
1, 46484, Control_c, 0, 67, 66
1, 46499, Control_c, 0, 67, 58
1, 46514, Control_c, 0, 67, 51
1, 46536, Control_c, 0, 67, 45
1, 46551, Control_c, 0, 67, 40
1, 46566, Control_c, 0, 67, 0
1, 46600, Note_on_c, 0, 63, 52
1, 46724, Note_off_c, 0, 68, 28
1, 46811, Note_on_c, 0, 59, 52
1, 46863, Control_c, 0, 64, 77
1, 46938, Note_off_c, 0, 51, 35
1, 47020, Note_on_c, 0, 68, 55
1, 47162, Note_off_c, 0, 63, 37
1, 47241, Note_on_c, 0, 51, 49
1, 47367, Note_off_c, 0, 59, 31
1, 47457, Note_on_c, 0, 63, 53
1, 47654, Control_c, 0, 64, 76
1, 47669, Control_c, 0, 64, 75
1, 47676, Note_on_c, 0, 42, 54
1, 47684, Control_c, 0, 64, 72
1, 47698, Control_c, 0, 64, 67
1, 47713, Control_c, 0, 64, 61
1, 47728, Control_c, 0, 64, 56
1, 47743, Control_c, 0, 64, 54
1, 47758, Control_c, 0, 64, 55
1, 47773, Control_c, 0, 64, 56
1, 47788, Control_c, 0, 64, 58
1, 47803, Control_c, 0, 64, 61
1, 47818, Control_c, 0, 64, 63
1, 47832, Control_c, 0, 64, 65
1, 47847, Control_c, 0, 64, 68
1, 47862, Control_c, 0, 64, 70
1, 47877, Control_c, 0, 64, 72
1, 47883, Note_off_c, 0, 51, 30
1, 47892, Control_c, 0, 64, 73
1, 47905, Note_on_c, 0, 56, 46
1, 47906, Control_c, 0, 64, 73
1, 47921, Control_c, 0, 64, 74
1, 47936, Control_c, 0, 64, 75
1, 47951, Control_c, 0, 64, 76
1, 47966, Control_c, 0, 64, 77
1, 47980, Control_c, 0, 64, 77
1, 47995, Control_c, 0, 64, 78
1, 48010, Control_c, 0, 64, 78
1, 48032, Control_c, 0, 64, 79
1, 48047, Control_c, 0, 64, 79
1, 48062, Control_c, 0, 64, 80
1, 48077, Control_c, 0, 64, 80
1, 48092, Control_c, 0, 64, 81
1, 48103, Note_off_c, 0, 63, 30
1, 48106, Control_c, 0, 64, 81
1, 48121, Control_c, 0, 64, 82
1, 48137, Note_on_c, 0, 52, 57
1, 48151, Control_c, 0, 64, 82
1, 48161, Note_off_c, 0, 56, 48
1, 48166, Control_c, 0, 64, 83
1, 48180, Note_off_c, 0, 42, 61
1, 48186, Poly_aftertouch_c, 0, 49, 127
1, 48189, Poly_aftertouch_c, 0, 46, 127
1, 48195, Control_c, 0, 64, 83
1, 48210, Control_c, 0, 64, 84
1, 48240, Control_c, 0, 64, 84
1, 48253, Poly_aftertouch_c, 0, 49, 0
1, 48254, Control_c, 0, 64, 85
1, 48269, Control_c, 0, 64, 85
1, 48273, Poly_aftertouch_c, 0, 46, 0
1, 48284, Control_c, 0, 64, 86
1, 48299, Control_c, 0, 64, 86
1, 48313, Control_c, 0, 64, 87
1, 48328, Control_c, 0, 64, 87
1, 48343, Control_c, 0, 64, 88
1, 48358, Control_c, 0, 64, 89
1, 48372, Control_c, 0, 64, 89
1, 48387, Control_c, 0, 64, 90
1, 48388, Note_on_c, 0, 63, 48
1, 48402, Control_c, 0, 64, 90
1, 48417, Control_c, 0, 64, 91
1, 48430, Note_off_c, 0, 68, 25
1, 48432, Control_c, 0, 64, 92
1, 48448, Control_c, 0, 64, 92
1, 48463, Control_c, 0, 64, 93
1, 48477, Control_c, 0, 64, 94
1, 48492, Control_c, 0, 64, 95
1, 48507, Control_c, 0, 64, 95
1, 48551, Control_c, 0, 64, 98
1, 48596, Control_c, 0, 64, 100
1, 48640, Control_c, 0, 64, 102
1, 48685, Control_c, 0, 64, 104
1, 48700, Note_on_c, 0, 58, 71
1, 48744, Control_c, 0, 64, 106
1, 48810, Control_c, 0, 64, 109
1, 48870, Control_c, 0, 64, 111
1, 48989, Note_off_c, 0, 58, 63
1, 49029, Note_on_c, 0, 68, 38
1, 49095, Note_off_c, 0, 52, 55
1, 49112, Note_off_c, 0, 63, 35
1, 49367, Note_on_c, 0, 59, 72
1, 49390, Control_c, 0, 64, 109
1, 49419, Control_c, 0, 64, 106
1, 49434, Control_c, 0, 64, 103
1, 49449, Control_c, 0, 64, 99
1, 49464, Control_c, 0, 64, 96
1, 49479, Control_c, 0, 64, 92
1, 49493, Control_c, 0, 64, 88
1, 49508, Control_c, 0, 64, 84
1, 49531, Control_c, 0, 64, 81
1, 49546, Control_c, 0, 64, 78
1, 49560, Control_c, 0, 64, 76
1, 49575, Control_c, 0, 64, 74
1, 49590, Control_c, 0, 64, 72
1, 49605, Control_c, 0, 64, 69
1, 49620, Control_c, 0, 64, 66
1, 49634, Control_c, 0, 64, 64
1, 49649, Control_c, 0, 64, 62
1, 49664, Control_c, 0, 64, 60
1, 49678, Control_c, 0, 64, 60
1, 49691, Note_on_c, 0, 35, 38
1, 49693, Control_c, 0, 64, 59
1, 49723, Control_c, 0, 64, 59
1, 49725, Note_on_c, 0, 63, 52
1, 49738, Control_c, 0, 64, 58
1, 49752, Control_c, 0, 64, 58
1, 49767, Control_c, 0, 64, 57
1, 49768, Note_off_c, 0, 68, 55
1, 49797, Control_c, 0, 64, 57
1, 49842, Control_c, 0, 64, 57
1, 49856, Control_c, 0, 64, 58
1, 49871, Control_c, 0, 64, 59
1, 49886, Control_c, 0, 64, 60
1, 49901, Control_c, 0, 64, 62
1, 49916, Control_c, 0, 64, 63
1, 49931, Control_c, 0, 64, 64
1, 49946, Control_c, 0, 64, 66
1, 49960, Control_c, 0, 64, 68
1, 49974, Note_on_c, 0, 42, 48
1, 49975, Control_c, 0, 64, 69
1, 49978, Note_on_c, 0, 66, 57
1, 49990, Control_c, 0, 64, 71
1, 50005, Control_c, 0, 64, 73
1, 50020, Control_c, 0, 64, 73
1, 50029, Note_off_c, 0, 35, 36
1, 50034, Control_c, 0, 64, 74
1, 50050, Control_c, 0, 64, 75
1, 50080, Control_c, 0, 64, 75
1, 50124, Control_c, 0, 64, 76
1, 50164, Note_off_c, 0, 42, 60
1, 50192, Note_on_c, 0, 58, 63
1, 50202, Note_on_c, 0, 51, 54
1, 50214, Note_off_c, 0, 59, 56
1, 50427, Note_on_c, 0, 56, 72
1, 50427, Note_on_c, 0, 59, 56
1, 50444, Note_off_c, 0, 58, 57
1, 50451, Note_off_c, 0, 63, 37
1, 50500, Note_off_c, 0, 51, 36
1, 50501, Control_c, 0, 64, 75
1, 50516, Control_c, 0, 64, 73
1, 50531, Control_c, 0, 64, 72
1, 50546, Control_c, 0, 64, 69
1, 50561, Control_c, 0, 64, 67
1, 50575, Control_c, 0, 64, 64
1, 50590, Control_c, 0, 64, 62
1, 50605, Control_c, 0, 64, 60
1, 50620, Control_c, 0, 64, 60
1, 50623, Note_off_c, 0, 66, 35
1, 50635, Control_c, 0, 64, 59
1, 50649, Control_c, 0, 64, 58
1, 50652, Note_on_c, 0, 54, 70
1, 50653, Note_on_c, 0, 64, 56
1, 50664, Control_c, 0, 64, 57
1, 50679, Control_c, 0, 64, 57
1, 50683, Note_off_c, 0, 56, 63
1, 50694, Control_c, 0, 64, 56
1, 50783, Control_c, 0, 64, 56
1, 50798, Control_c, 0, 64, 57
1, 50813, Control_c, 0, 64, 59
1, 50827, Control_c, 0, 64, 61
1, 50842, Control_c, 0, 64, 62
1, 50858, Control_c, 0, 64, 64
1, 50873, Control_c, 0, 64, 66
1, 50888, Note_on_c, 0, 66, 55
1, 50888, Control_c, 0, 64, 69
1, 50897, Note_off_c, 0, 59, 60
1, 50899, Note_on_c, 0, 61, 73
1, 50903, Control_c, 0, 64, 72
1, 50918, Control_c, 0, 64, 75
1, 50932, Control_c, 0, 64, 76
1, 50945, Note_off_c, 0, 54, 57
1, 50947, Note_off_c, 0, 64, 34
1, 50947, Control_c, 0, 64, 77
1, 50962, Control_c, 0, 64, 79
1, 50977, Control_c, 0, 64, 80
1, 50992, Control_c, 0, 64, 82
1, 51004, Note_off_c, 0, 61, 63
1, 51006, Control_c, 0, 64, 85
1, 51028, Control_c, 0, 64, 87
1, 51043, Control_c, 0, 64, 89
1, 51058, Control_c, 0, 64, 90
1, 51073, Control_c, 0, 64, 91
1, 51088, Control_c, 0, 64, 92
1, 51102, Control_c, 0, 64, 93
1, 51117, Control_c, 0, 64, 93
1, 51146, Note_on_c, 0, 58, 52
1, 51147, Control_c, 0, 64, 94
1, 51171, Note_off_c, 0, 66, 58
1, 51302, Note_on_c, 0, 35, 56
1, 51310, Control_c, 0, 64, 92
1, 51324, Control_c, 0, 64, 84
1, 51339, Control_c, 0, 64, 74
1, 51354, Control_c, 0, 64, 65
1, 51368, Control_c, 0, 64, 60
1, 51379, Note_on_c, 0, 63, 77
1, 51383, Control_c, 0, 64, 58
1, 51398, Control_c, 0, 64, 59
1, 51400, Note_off_c, 0, 58, 55
1, 51412, Note_on_c, 0, 54, 45
1, 51412, Control_c, 0, 64, 62
1, 51427, Control_c, 0, 64, 66
1, 51428, Note_off_c, 0, 35, 63
1, 51442, Control_c, 0, 64, 70
1, 51457, Control_c, 0, 64, 74
1, 51472, Control_c, 0, 64, 76
1, 51485, Note_off_c, 0, 54, 61
1, 51487, Control_c, 0, 64, 77
1, 51502, Control_c, 0, 64, 78
1, 51516, Note_off_c, 0, 63, 61
1, 51516, Control_c, 0, 64, 79
1, 51531, Control_c, 0, 64, 80
1, 51546, Control_c, 0, 64, 80
1, 51561, Control_c, 0, 64, 81
1, 51605, Control_c, 0, 64, 81
1, 51649, Note_on_c, 0, 54, 49
1, 51662, Note_on_c, 0, 71, 54
1, 51776, Control_c, 0, 64, 82
1, 51872, Note_on_c, 0, 66, 83
1, 51914, Note_on_c, 0, 63, 44
1, 51937, Note_off_c, 0, 54, 40
1, 52095, Note_on_c, 0, 70, 55
1, 52104, Note_on_c, 0, 54, 46
1, 52122, Note_off_c, 0, 66, 60
1, 52137, Note_off_c, 0, 63, 58
1, 52328, Note_on_c, 0, 61, 74
1, 52340, Control_c, 0, 64, 81
1, 52353, Note_on_c, 0, 68, 45
1, 52354, Control_c, 0, 64, 79
1, 52360, Note_on_c, 0, 59, 42
1, 52363, Note_on_c, 0, 64, 47
1, 52369, Control_c, 0, 64, 73
1, 52384, Control_c, 0, 64, 66
1, 52399, Control_c, 0, 64, 57
1, 52414, Control_c, 0, 64, 50
1, 52414, Note_off_c, 0, 71, 38
1, 52429, Control_c, 0, 64, 48
1, 52459, Control_c, 0, 64, 48
1, 52474, Control_c, 0, 64, 49
1, 52489, Control_c, 0, 64, 52
1, 52501, Note_off_c, 0, 70, 37
1, 52503, Control_c, 0, 64, 55
1, 52526, Control_c, 0, 64, 59
1, 52533, Note_off_c, 0, 59, 44
1, 52541, Control_c, 0, 64, 61
1, 52556, Control_c, 0, 64, 63
1, 52564, Note_on_c, 0, 66, 54
1, 52571, Note_on_c, 0, 58, 48
1, 52571, Control_c, 0, 64, 65
1, 52585, Control_c, 0, 64, 67
1, 52600, Control_c, 0, 64, 69
1, 52615, Control_c, 0, 64, 72
1, 52630, Control_c, 0, 64, 74
1, 52645, Control_c, 0, 64, 76
1, 52659, Control_c, 0, 64, 77
1, 52674, Control_c, 0, 64, 78
1, 52689, Control_c, 0, 64, 80
1, 52703, Control_c, 0, 64, 81
1, 52709, Note_off_c, 0, 61, 63
1, 52718, Control_c, 0, 64, 83
1, 52733, Control_c, 0, 64, 84
1, 52748, Control_c, 0, 64, 86
1, 52763, Control_c, 0, 64, 87
1, 52778, Control_c, 0, 64, 89
1, 52787, Note_off_c, 0, 58, 59
1, 52793, Control_c, 0, 64, 91
1, 52795, Note_on_c, 0, 73, 58
1, 52808, Control_c, 0, 64, 93
1, 52822, Control_c, 0, 64, 94
1, 52837, Control_c, 0, 64, 95
1, 52840, Note_off_c, 0, 64, 51
1, 52850, Note_off_c, 0, 54, 36
1, 52867, Control_c, 0, 64, 97
1, 52954, Note_off_c, 0, 68, 25
1, 52982, Note_off_c, 0, 66, 57
1, 52993, Note_on_c, 0, 54, 39
1, 53085, Note_off_c, 0, 54, 61
1, 53238, Control_c, 0, 64, 89
1, 53248, Note_off_c, 0, 73, 28
1, 53253, Control_c, 0, 64, 76
1, 53259, Note_on_c, 0, 35, 55
1, 53273, Note_on_c, 0, 66, 76
1, 53275, Control_c, 0, 64, 66
1, 53290, Control_c, 0, 64, 59
1, 53305, Control_c, 0, 64, 57
1, 53310, Note_on_c, 0, 63, 47
1, 53319, Control_c, 0, 64, 58
1, 53334, Control_c, 0, 64, 60
1, 53349, Control_c, 0, 64, 64
1, 53358, Note_off_c, 0, 35, 63
1, 53364, Control_c, 0, 64, 69
1, 53379, Control_c, 0, 64, 74
1, 53393, Control_c, 0, 64, 78
1, 53408, Control_c, 0, 64, 80
1, 53423, Control_c, 0, 64, 82
1, 53438, Control_c, 0, 64, 84
1, 53453, Control_c, 0, 64, 87
1, 53468, Control_c, 0, 64, 89
1, 53482, Control_c, 0, 64, 91
1, 53497, Control_c, 0, 64, 93
1, 53505, Note_off_c, 0, 63, 50
1, 53512, Control_c, 0, 64, 94
1, 53526, Control_c, 0, 64, 95
1, 53541, Control_c, 0, 64, 95
1, 53553, Note_on_c, 0, 71, 43
1, 53556, Control_c, 0, 64, 96
1, 53565, Note_on_c, 0, 75, 60
1, 53591, Note_on_c, 0, 54, 48
1, 53630, Control_c, 0, 64, 98
1, 53669, Note_off_c, 0, 66, 61
1, 53715, Note_off_c, 0, 71, 60
1, 53759, Note_off_c, 0, 75, 64
1, 53782, Note_on_c, 0, 66, 76
1, 53819, Note_on_c, 0, 63, 49
1, 53863, Note_off_c, 0, 63, 62
1, 54006, Note_on_c, 0, 78, 57
1, 54011, Note_on_c, 0, 61, 54
1, 54027, Note_on_c, 0, 70, 41
1, 54083, Note_off_c, 0, 70, 58
1, 54084, Note_off_c, 0, 66, 60
1, 54216, Control_c, 0, 64, 94
1, 54229, Note_on_c, 0, 64, 74
1, 54231, Control_c, 0, 64, 84
1, 54246, Control_c, 0, 64, 73
1, 54250, Note_on_c, 0, 80, 59
1, 54259, Note_off_c, 0, 78, 37
1, 54261, Control_c, 0, 64, 64
1, 54262, Note_on_c, 0, 68, 39
1, 54275, Control_c, 0, 64, 58
1, 54283, Note_on_c, 0, 76, 35
1, 54305, Control_c, 0, 64, 60
1, 54320, Control_c, 0, 64, 63
1, 54335, Control_c, 0, 64, 66
1, 54349, Control_c, 0, 64, 70
1, 54356, Note_off_c, 0, 68, 59
1, 54364, Control_c, 0, 64, 74
1, 54375, Note_off_c, 0, 64, 63
1, 54379, Control_c, 0, 64, 76
1, 54394, Control_c, 0, 64, 77
1, 54409, Control_c, 0, 64, 78
1, 54423, Control_c, 0, 64, 79
1, 54432, Note_off_c, 0, 61, 58
1, 54438, Control_c, 0, 64, 79
1, 54453, Control_c, 0, 64, 80
1, 54462, Note_on_c, 0, 78, 65
1, 54468, Control_c, 0, 64, 80
1, 54473, Note_on_c, 0, 66, 53
1, 54474, Note_on_c, 0, 63, 74
1, 54487, Note_on_c, 0, 59, 49
1, 54501, Note_off_c, 0, 76, 42
1, 54503, Note_off_c, 0, 66, 52
1, 54507, Note_off_c, 0, 78, 52
1, 54513, Control_c, 0, 64, 81
1, 54519, Note_off_c, 0, 80, 57
1, 54587, Control_c, 0, 64, 81
1, 54593, Note_off_c, 0, 63, 59
1, 54616, Control_c, 0, 64, 82
1, 54646, Control_c, 0, 64, 81
1, 54661, Control_c, 0, 64, 79
1, 54674, Note_on_c, 0, 61, 64
1, 54675, Control_c, 0, 64, 71
1, 54690, Control_c, 0, 64, 63
1, 54697, Note_on_c, 0, 80, 65
1, 54702, Poly_aftertouch_c, 0, 76, 127
1, 54705, Control_c, 0, 64, 57
1, 54715, Note_on_c, 0, 68, 51
1, 54715, Note_off_c, 0, 54, 61
1, 54720, Control_c, 0, 64, 55
1, 54735, Control_c, 0, 64, 57
1, 54749, Control_c, 0, 64, 60
1, 54772, Control_c, 0, 64, 65
1, 54783, Note_off_c, 0, 68, 59
1, 54787, Control_c, 0, 64, 71
1, 54789, Note_off_c, 0, 59, 0
1, 54801, Control_c, 0, 64, 77
1, 54816, Control_c, 0, 64, 80
1, 54826, Poly_aftertouch_c, 0, 59, 127
1, 54831, Control_c, 0, 64, 81
1, 54846, Control_c, 0, 64, 83
1, 54861, Control_c, 0, 64, 84
1, 54876, Control_c, 0, 64, 85
1, 54881, Note_on_c, 0, 58, 39
1, 54885, Note_off_c, 0, 61, 61
1, 54891, Control_c, 0, 64, 86
1, 54902, Poly_aftertouch_c, 0, 59, 0
1, 54911, Note_off_c, 0, 58, 47
1, 54951, Note_on_c, 0, 85, 63
1, 54975, Note_on_c, 0, 73, 43
1, 55050, Note_off_c, 0, 85, 57
1, 55053, Poly_aftertouch_c, 0, 76, 0
1, 55065, Note_on_c, 0, 47, 55
1, 55079, Note_off_c, 0, 80, 38
1, 55086, Note_off_c, 0, 73, 62
1, 55145, Note_on_c, 0, 54, 57
1, 55202, Control_c, 0, 64, 84
1, 55210, Note_on_c, 0, 63, 77
1, 55217, Control_c, 0, 64, 78
1, 55232, Control_c, 0, 64, 70
1, 55246, Control_c, 0, 64, 61
1, 55261, Control_c, 0, 64, 53
1, 55276, Control_c, 0, 64, 51
1, 55291, Control_c, 0, 64, 53
1, 55306, Control_c, 0, 64, 56
1, 55320, Control_c, 0, 64, 60
1, 55335, Control_c, 0, 64, 64
1, 55350, Control_c, 0, 64, 68
1, 55365, Control_c, 0, 64, 72
1, 55380, Control_c, 0, 64, 76
1, 55395, Control_c, 0, 64, 78
1, 55410, Control_c, 0, 64, 79
1, 55424, Control_c, 0, 64, 80
1, 55439, Note_on_c, 0, 56, 49
1, 55439, Control_c, 0, 64, 80
1, 55449, Note_off_c, 0, 63, 59
1, 55449, Note_on_c, 0, 78, 57
1, 55454, Control_c, 0, 64, 81
1, 55475, Note_on_c, 0, 71, 41
1, 55484, Control_c, 0, 64, 82
1, 55485, Note_on_c, 0, 66, 36
1, 55595, Note_off_c, 0, 66, 52
1, 55650, Note_off_c, 0, 47, 57
1, 55655, Control_c, 0, 67, 47
1, 55669, Note_off_c, 0, 54, 55
1, 55669, Control_c, 0, 67, 61
1, 55672, Note_on_c, 0, 59, 68
1, 55684, Control_c, 0, 67, 79
1, 55698, Note_off_c, 0, 56, 62
1, 55699, Control_c, 0, 67, 98
1, 55714, Control_c, 0, 67, 119
1, 55729, Control_c, 0, 67, 127
1, 55901, Note_off_c, 0, 71, 22
1, 55913, Note_on_c, 0, 80, 51
1, 55917, Note_on_c, 0, 54, 46
1, 55918, Note_on_c, 0, 68, 44
1, 55951, Note_off_c, 0, 68, 51
1, 55954, Note_off_c, 0, 80, 61
1, 55957, Note_off_c, 0, 78, 41
1, 55970, Note_off_c, 0, 59, 56
1, 56128, Control_c, 0, 64, 81
1, 56143, Control_c, 0, 64, 78
1, 56154, Note_on_c, 0, 82, 58
1, 56158, Control_c, 0, 64, 72
1, 56159, Note_on_c, 0, 61, 64
1, 56173, Note_on_c, 0, 70, 33
1, 56173, Control_c, 0, 64, 64
1, 56183, Note_on_c, 0, 76, 32
1, 56188, Control_c, 0, 64, 53
1, 56203, Control_c, 0, 64, 45
1, 56218, Control_c, 0, 64, 43
1, 56233, Control_c, 0, 64, 44
1, 56247, Control_c, 0, 64, 48
1, 56269, Control_c, 0, 64, 54
1, 56284, Control_c, 0, 64, 60
1, 56295, Note_off_c, 0, 70, 58
1, 56299, Control_c, 0, 64, 64
1, 56314, Control_c, 0, 64, 67
1, 56328, Control_c, 0, 64, 68
1, 56343, Control_c, 0, 64, 70
1, 56358, Control_c, 0, 64, 71
1, 56373, Control_c, 0, 64, 71
1, 56380, Note_off_c, 0, 76, 39
1, 56388, Control_c, 0, 64, 72
1, 56411, Note_on_c, 0, 83, 53
1, 56417, Control_c, 0, 64, 73
1, 56419, Note_on_c, 0, 71, 32
1, 56427, Note_on_c, 0, 64, 36
1, 56448, Control_c, 0, 64, 73
1, 56450, Note_off_c, 0, 82, 51
1, 56461, Note_off_c, 0, 71, 46
1, 56552, Control_c, 0, 64, 74
1, 56611, Control_c, 0, 64, 73
1, 56626, Control_c, 0, 64, 69
1, 56641, Control_c, 0, 64, 63
1, 56656, Control_c, 0, 64, 56
1, 56670, Control_c, 0, 64, 54
1, 56677, Note_on_c, 0, 70, 37
1, 56685, Control_c, 0, 64, 55
1, 56695, Note_on_c, 0, 80, 54
1, 56700, Control_c, 0, 64, 57
1, 56710, Note_off_c, 0, 83, 56
1, 56715, Control_c, 0, 64, 63
1, 56730, Control_c, 0, 64, 67
1, 56744, Control_c, 0, 64, 72
1, 56759, Control_c, 0, 64, 74
1, 56769, Note_off_c, 0, 70, 64
1, 56774, Control_c, 0, 64, 75
1, 56789, Control_c, 0, 64, 76
1, 56805, Note_off_c, 0, 64, 43
1, 56827, Note_off_c, 0, 61, 62
1, 56833, Control_c, 0, 64, 76
1, 56873, Note_off_c, 0, 54, 61
1, 56951, Control_c, 0, 64, 76
1, 57001, Note_on_c, 0, 85, 56
1, 57002, Note_off_c, 0, 80, 63
1, 57040, Note_on_c, 0, 73, 31
1, 57048, Control_c, 0, 64, 75
1, 57062, Control_c, 0, 64, 75
1, 57089, Note_off_c, 0, 73, 53
1, 57092, Control_c, 0, 64, 74
1, 57107, Control_c, 0, 64, 74
1, 57136, Control_c, 0, 64, 73
1, 57151, Control_c, 0, 64, 73
1, 57166, Control_c, 0, 64, 72
1, 57181, Control_c, 0, 64, 71
1, 57195, Control_c, 0, 64, 70
1, 57210, Control_c, 0, 64, 70
1, 57225, Note_on_c, 0, 46, 16
1, 57225, Control_c, 0, 64, 69
1, 57241, Control_c, 0, 64, 68
1, 57256, Control_c, 0, 64, 67
1, 57271, Control_c, 0, 64, 66
1, 57286, Control_c, 0, 64, 65
1, 57300, Control_c, 0, 64, 64
1, 57315, Control_c, 0, 64, 64
1, 57324, Note_on_c, 0, 55, 19
1, 57330, Control_c, 0, 64, 63
1, 57360, Control_c, 0, 64, 63
1, 57404, Control_c, 0, 64, 62
1, 57464, Control_c, 0, 64, 62
1, 57472, Note_on_c, 0, 87, 55
1, 57488, Note_on_c, 0, 75, 42
1, 57490, Note_on_c, 0, 79, 31
1, 57493, Control_c, 0, 64, 61
1, 57523, Control_c, 0, 64, 61
1, 57553, Control_c, 0, 64, 60
1, 57626, Control_c, 0, 64, 61
1, 57641, Control_c, 0, 64, 61
1, 57656, Control_c, 0, 64, 62
1, 57671, Control_c, 0, 64, 63
1, 57683, Poly_aftertouch_c, 0, 49, 127
1, 57685, Control_c, 0, 64, 64
1, 57700, Control_c, 0, 64, 65
1, 57715, Control_c, 0, 64, 66
1, 57730, Control_c, 0, 64, 68
1, 57745, Control_c, 0, 64, 69
1, 57767, Control_c, 0, 64, 71
1, 57782, Control_c, 0, 64, 72
1, 57797, Control_c, 0, 64, 72
1, 57811, Control_c, 0, 64, 73
1, 57826, Control_c, 0, 64, 74
1, 57831, Note_on_c, 0, 63, 51
1, 57841, Control_c, 0, 64, 75
1, 57856, Control_c, 0, 64, 76
1, 57871, Control_c, 0, 64, 77
1, 57885, Control_c, 0, 64, 78
1, 57900, Control_c, 0, 64, 79
1, 57903, Note_off_c, 0, 46, 40
1, 57915, Control_c, 0, 64, 81
1, 57930, Control_c, 0, 64, 82
1, 57932, Poly_aftertouch_c, 0, 49, 0
1, 57945, Control_c, 0, 64, 84
1, 57959, Control_c, 0, 64, 86
1, 57974, Control_c, 0, 64, 89
1, 57989, Control_c, 0, 64, 91
1, 57995, Note_off_c, 0, 55, 40
1, 58004, Control_c, 0, 64, 93
1, 58018, Control_c, 0, 64, 96
1, 58033, Control_c, 0, 64, 98
1, 58049, Control_c, 0, 64, 102
1, 58064, Control_c, 0, 64, 105
1, 58079, Control_c, 0, 64, 109
1, 58094, Control_c, 0, 64, 114
1, 58109, Control_c, 0, 64, 119
1, 58123, Control_c, 0, 64, 127
1, 58167, Note_off_c, 0, 87, 39
1, 58182, Note_off_c, 0, 75, 59
1, 58206, Note_off_c, 0, 63, 37
1, 58240, Note_off_c, 0, 85, 36
1, 58312, Note_on_c, 0, 55, 31
1, 58331, Note_off_c, 0, 79, 52
1, 58588, Note_on_c, 0, 61, 32
1, 58599, Note_on_c, 0, 67, 18
1, 58710, Note_off_c, 0, 67, 40
1, 58756, Note_off_c, 0, 55, 41
1, 58769, Note_off_c, 0, 61, 54
1, 58844, Note_on_c, 0, 63, 55
1, 59079, Note_on_c, 0, 39, 39
1, 59112, Note_on_c, 0, 61, 57
1, 59138, Note_off_c, 0, 39, 46
1, 59196, Note_off_c, 0, 63, 36
1, 59360, Note_on_c, 0, 64, 61
1, 59371, Note_off_c, 0, 61, 59
1, 59388, Note_on_c, 0, 67, 14
1, 59397, Note_on_c, 0, 51, 26
1, 59434, Note_off_c, 0, 67, 51
1, 59473, Control_c, 0, 64, 124
1, 59488, Control_c, 0, 64, 122
1, 59532, Control_c, 0, 64, 119
1, 59562, Control_c, 0, 64, 113
1, 59577, Control_c, 0, 64, 105
1, 59589, Note_off_c, 0, 64, 54
1, 59591, Control_c, 0, 64, 95
1, 59592, Note_on_c, 0, 61, 45
1, 59593, Note_on_c, 0, 63, 62
1, 59605, Control_c, 0, 64, 86
1, 59620, Control_c, 0, 64, 79
1, 59622, Note_on_c, 0, 68, 46
1, 59623, Note_off_c, 0, 51, 43
1, 59636, Control_c, 0, 64, 74
1, 59651, Control_c, 0, 64, 71
1, 59666, Control_c, 0, 64, 70
1, 59725, Control_c, 0, 64, 71
1, 59740, Control_c, 0, 64, 71
1, 59754, Control_c, 0, 64, 72
1, 59769, Control_c, 0, 64, 72
1, 59771, Note_off_c, 0, 61, 57
1, 59784, Control_c, 0, 64, 73
1, 59799, Control_c, 0, 64, 73
1, 59814, Control_c, 0, 64, 74
1, 59829, Control_c, 0, 64, 74
1, 59831, Note_on_c, 0, 51, 31
1, 59835, Note_on_c, 0, 70, 52
1, 59843, Control_c, 0, 64, 75
1, 59858, Control_c, 0, 64, 75
1, 59873, Control_c, 0, 64, 76
1, 59887, Control_c, 0, 64, 76
1, 59900, Note_off_c, 0, 51, 53
1, 59917, Control_c, 0, 64, 77
1, 60011, Note_off_c, 0, 63, 28
1, 60073, Control_c, 0, 64, 76
1, 60078, Note_on_c, 0, 56, 58
1, 60084, Note_on_c, 0, 71, 55
1, 60087, Control_c, 0, 64, 72
1, 60101, Note_off_c, 0, 68, 32
1, 60102, Control_c, 0, 64, 67
1, 60117, Control_c, 0, 64, 61
1, 60132, Control_c, 0, 64, 55
1, 60147, Control_c, 0, 64, 53
1, 60152, Note_off_c, 0, 70, 43
1, 60176, Control_c, 0, 64, 54
1, 60191, Control_c, 0, 64, 57
1, 60206, Control_c, 0, 64, 59
1, 60221, Control_c, 0, 64, 62
1, 60236, Control_c, 0, 64, 64
1, 60251, Control_c, 0, 64, 66
1, 60266, Control_c, 0, 64, 68
1, 60281, Control_c, 0, 64, 70
1, 60295, Control_c, 0, 64, 72
1, 60309, Note_on_c, 0, 44, 35
1, 60310, Control_c, 0, 64, 73
1, 60314, Note_on_c, 0, 63, 40
1, 60325, Control_c, 0, 64, 74
1, 60329, Note_on_c, 0, 59, 34
1, 60340, Control_c, 0, 64, 75
1, 60354, Control_c, 0, 64, 76
1, 60359, Note_off_c, 0, 56, 51
1, 60368, Control_c, 0, 64, 76
1, 60383, Control_c, 0, 64, 77
1, 60398, Control_c, 0, 64, 77
1, 60412, Control_c, 0, 64, 78
1, 60428, Control_c, 0, 64, 78
1, 60458, Control_c, 0, 64, 79
1, 60464, Note_off_c, 0, 59, 35
1, 60480, Note_off_c, 0, 44, 49
1, 60507, Note_off_c, 0, 71, 36
1, 60515, Note_on_c, 0, 56, 58
1, 60532, Control_c, 0, 64, 79
1, 60537, Note_on_c, 0, 65, 46
1, 60598, Note_off_c, 0, 56, 59
1, 60737, Note_off_c, 0, 65, 53
1, 60740, Note_on_c, 0, 66, 53
1, 60767, Note_off_c, 0, 63, 20
1, 60768, Note_on_c, 0, 51, 34
1, 60771, Note_on_c, 0, 59, 42
1, 60825, Note_off_c, 0, 51, 43
1, 60835, Note_off_c, 0, 66, 57
1, 60879, Note_off_c, 0, 59, 52
1, 60910, Control_c, 0, 64, 79
1, 60999, Note_on_c, 0, 63, 64
1, 61023, Note_on_c, 0, 67, 39
1, 61073, Control_c, 0, 64, 78
1, 61103, Control_c, 0, 64, 78
1, 61117, Control_c, 0, 64, 77
1, 61132, Control_c, 0, 64, 77
1, 61147, Control_c, 0, 64, 76
1, 61161, Control_c, 0, 64, 75
1, 61176, Control_c, 0, 64, 73
1, 61191, Control_c, 0, 64, 71
1, 61206, Control_c, 0, 64, 68
1, 61221, Note_on_c, 0, 70, 45
1, 61221, Control_c, 0, 64, 64
1, 61223, Note_on_c, 0, 59, 40
1, 61237, Control_c, 0, 64, 61
1, 61252, Control_c, 0, 64, 58
1, 61266, Control_c, 0, 64, 56
1, 61281, Control_c, 0, 64, 55
1, 61296, Control_c, 0, 64, 54
1, 61311, Control_c, 0, 64, 52
1, 61325, Control_c, 0, 64, 50
1, 61340, Control_c, 0, 64, 49
1, 61385, Control_c, 0, 64, 49
1, 61399, Control_c, 0, 64, 51
1, 61414, Control_c, 0, 64, 55
1, 61429, Control_c, 0, 64, 59
1, 61444, Control_c, 0, 64, 63
1, 61457, Note_on_c, 0, 68, 46
1, 61458, Control_c, 0, 64, 66
1, 61473, Control_c, 0, 64, 68
1, 61488, Control_c, 0, 64, 71
1, 61511, Control_c, 0, 64, 73
1, 61519, Note_off_c, 0, 67, 34
1, 61526, Control_c, 0, 64, 74
1, 61540, Control_c, 0, 64, 75
1, 61555, Control_c, 0, 64, 76
1, 61570, Control_c, 0, 64, 77
1, 61585, Control_c, 0, 64, 77
1, 61600, Control_c, 0, 64, 78
1, 61614, Control_c, 0, 64, 78
1, 61631, Note_off_c, 0, 63, 35
1, 61672, Note_off_c, 0, 59, 34
1, 61687, Note_on_c, 0, 71, 46
1, 61704, Note_off_c, 0, 68, 53
1, 61718, Control_c, 0, 64, 79
1, 61756, Note_off_c, 0, 71, 61
1, 61769, Note_off_c, 0, 70, 43
1, 61905, Note_on_c, 0, 70, 44
1, 61915, Note_on_c, 0, 61, 55
1, 61940, Control_c, 0, 64, 78
1, 61970, Control_c, 0, 64, 78
1, 61984, Control_c, 0, 64, 76
1, 61999, Control_c, 0, 64, 73
1, 62014, Control_c, 0, 64, 67
1, 62030, Control_c, 0, 64, 59
1, 62045, Control_c, 0, 64, 53
1, 62060, Control_c, 0, 64, 50
1, 62089, Control_c, 0, 64, 51
1, 62104, Control_c, 0, 64, 52
1, 62119, Control_c, 0, 64, 54
1, 62127, Note_on_c, 0, 73, 50
1, 62134, Control_c, 0, 64, 57
1, 62136, Note_on_c, 0, 68, 40
1, 62148, Control_c, 0, 64, 60
1, 62162, Note_off_c, 0, 70, 53
1, 62163, Control_c, 0, 64, 62
1, 62178, Control_c, 0, 64, 64
1, 62193, Control_c, 0, 64, 65
1, 62207, Control_c, 0, 64, 67
1, 62222, Control_c, 0, 64, 69
1, 62237, Control_c, 0, 64, 71
1, 62260, Control_c, 0, 64, 73
1, 62275, Control_c, 0, 64, 74
1, 62289, Control_c, 0, 64, 74
1, 62304, Control_c, 0, 64, 75
1, 62319, Control_c, 0, 64, 75
1, 62334, Control_c, 0, 64, 76
1, 62349, Control_c, 0, 64, 76
1, 62349, Note_on_c, 0, 58, 45
1, 62355, Note_off_c, 0, 68, 38
1, 62370, Note_on_c, 0, 80, 52
1, 62375, Note_off_c, 0, 73, 58
1, 62393, Control_c, 0, 64, 77
1, 62423, Note_off_c, 0, 61, 55
1, 62476, Note_off_c, 0, 58, 57
1, 62559, Note_on_c, 0, 75, 57
1, 62565, Note_on_c, 0, 71, 60
1, 62661, Note_off_c, 0, 80, 25
1, 62704, Control_c, 0, 64, 76
1, 62782, Note_off_c, 0, 75, 62
1, 62788, Note_on_c, 0, 70, 59
1, 62791, Note_on_c, 0, 73, 53
1, 62796, Note_off_c, 0, 71, 56
1, 62822, Control_c, 0, 64, 76
1, 62883, Control_c, 0, 64, 75
1, 62927, Control_c, 0, 64, 75
1, 62957, Control_c, 0, 64, 74
1, 63008, Control_c, 0, 64, 74
1, 63009, Note_on_c, 0, 76, 55
1, 63020, Note_on_c, 0, 80, 61
1, 63038, Control_c, 0, 64, 73
1, 63053, Control_c, 0, 64, 73
1, 63068, Control_c, 0, 64, 72
1, 63083, Control_c, 0, 64, 71
1, 63093, Note_off_c, 0, 73, 59
1, 63098, Control_c, 0, 64, 69
1, 63112, Control_c, 0, 64, 67
1, 63127, Control_c, 0, 64, 64
1, 63142, Control_c, 0, 64, 62
1, 63157, Control_c, 0, 64, 61
1, 63172, Control_c, 0, 64, 60
1, 63186, Control_c, 0, 64, 59
1, 63201, Control_c, 0, 64, 59
1, 63220, Note_on_c, 0, 85, 48
1, 63230, Control_c, 0, 64, 58
1, 63239, Note_on_c, 0, 66, 47
1, 63245, Control_c, 0, 64, 57
1, 63260, Control_c, 0, 64, 57
1, 63304, Control_c, 0, 64, 57
1, 63319, Control_c, 0, 64, 58
1, 63334, Control_c, 0, 64, 59
1, 63348, Control_c, 0, 64, 61
1, 63351, Note_off_c, 0, 76, 54
1, 63363, Control_c, 0, 64, 62
1, 63378, Control_c, 0, 64, 64
1, 63393, Control_c, 0, 64, 65
1, 63408, Control_c, 0, 64, 66
1, 63423, Control_c, 0, 64, 66
1, 63435, Note_off_c, 0, 85, 56
1, 63440, Note_off_c, 0, 80, 59
1, 63441, Note_on_c, 0, 82, 51
1, 63444, Note_on_c, 0, 78, 38
1, 63452, Control_c, 0, 64, 67
1, 63497, Control_c, 0, 64, 67
1, 63676, Control_c, 0, 64, 67
1, 63733, Note_on_c, 0, 80, 51
1, 63761, Note_off_c, 0, 78, 37
1, 63763, Note_on_c, 0, 76, 37
1, 63772, Control_c, 0, 64, 66
1, 63787, Control_c, 0, 64, 66
1, 63802, Control_c, 0, 64, 65
1, 63816, Control_c, 0, 64, 64
1, 63831, Control_c, 0, 64, 63
1, 63846, Control_c, 0, 64, 62
1, 63861, Control_c, 0, 64, 61
1, 63876, Control_c, 0, 64, 60
1, 63891, Control_c, 0, 64, 59
1, 63905, Control_c, 0, 64, 58
1, 63935, Control_c, 0, 64, 58
1, 63935, Note_off_c, 0, 66, 24
1, 63950, Control_c, 0, 64, 57
1, 63959, Note_off_c, 0, 70, 38
1, 63965, Control_c, 0, 64, 57
1, 63977, Note_off_c, 0, 82, 29
1, 63979, Control_c, 0, 64, 56
1, 63980, Note_on_c, 0, 79, 50
1, 63988, Note_on_c, 0, 75, 50
1, 64009, Control_c, 0, 64, 56
1, 64083, Control_c, 0, 64, 55
1, 64128, Note_off_c, 0, 80, 38
1, 64177, Note_off_c, 0, 76, 41
1, 64191, Note_on_c, 0, 70, 43
1, 64206, Note_on_c, 0, 86, 48
1, 64245, Control_c, 0, 64, 56
1, 64275, Control_c, 0, 64, 57
1, 64290, Control_c, 0, 64, 58
1, 64305, Control_c, 0, 64, 59
1, 64320, Control_c, 0, 64, 61
1, 64335, Control_c, 0, 64, 62
1, 64350, Control_c, 0, 64, 63
1, 64365, Control_c, 0, 64, 64
1, 64379, Control_c, 0, 64, 66
1, 64392, Note_off_c, 0, 79, 57
1, 64394, Control_c, 0, 64, 67
1, 64408, Note_on_c, 0, 63, 43
1, 64408, Note_on_c, 0, 87, 50
1, 64409, Control_c, 0, 64, 68
1, 64420, Note_off_c, 0, 75, 38
1, 64424, Control_c, 0, 64, 69
1, 64439, Control_c, 0, 64, 69
1, 64454, Control_c, 0, 64, 70
1, 64612, Note_off_c, 0, 87, 60
1, 64648, Note_on_c, 0, 74, 56
1, 64683, Control_c, 0, 64, 69
1, 64684, Note_off_c, 0, 70, 52
1, 64686, Note_off_c, 0, 86, 39
1, 64698, Control_c, 0, 64, 68
1, 64713, Control_c, 0, 64, 66
1, 64728, Control_c, 0, 64, 64
1, 64743, Control_c, 0, 64, 63
1, 64817, Control_c, 0, 64, 63
1, 64847, Control_c, 0, 64, 64
1, 64862, Control_c, 0, 64, 64
1, 64864, Note_on_c, 0, 75, 53
1, 64877, Control_c, 0, 64, 65
1, 64884, Note_off_c, 0, 63, 56
1, 64892, Control_c, 0, 64, 64
1, 64907, Control_c, 0, 64, 64
1, 64910, Note_off_c, 0, 74, 58
1, 64922, Control_c, 0, 64, 63
1, 64937, Control_c, 0, 64, 63
1, 64966, Control_c, 0, 64, 62
1, 65010, Control_c, 0, 64, 63
1, 65055, Control_c, 0, 64, 63
1, 65070, Control_c, 0, 64, 64
1, 65084, Control_c, 0, 64, 64
1, 65097, Note_on_c, 0, 62, 46
1, 65099, Control_c, 0, 64, 66
1, 65114, Control_c, 0, 64, 67
1, 65128, Control_c, 0, 64, 69
1, 65143, Control_c, 0, 64, 71
1, 65158, Control_c, 0, 64, 72
1, 65172, Note_off_c, 0, 75, 62
1, 65173, Control_c, 0, 64, 73
1, 65188, Control_c, 0, 64, 74
1, 65202, Control_c, 0, 64, 75
1, 65218, Control_c, 0, 64, 76
1, 65233, Control_c, 0, 64, 76
1, 65286, Control_c, 0, 64, 77
1, 65315, Control_c, 0, 67, 112
1, 65330, Control_c, 0, 67, 85
1, 65338, Note_on_c, 0, 61, 47
1, 65345, Control_c, 0, 67, 57
1, 65360, Control_c, 0, 67, 0
1, 65395, Note_off_c, 0, 62, 35
1, 65670, Control_c, 0, 64, 76
1, 65673, Note_off_c, 0, 61, 25
1, 65686, Note_on_c, 0, 59, 34
1, 65696, Note_on_c, 0, 75, 65
1, 65715, Control_c, 0, 64, 75
1, 65730, Control_c, 0, 64, 74
1, 65745, Control_c, 0, 64, 72
1, 65759, Control_c, 0, 64, 68
1, 65774, Control_c, 0, 64, 64
1, 65789, Control_c, 0, 64, 60
1, 65804, Control_c, 0, 64, 57
1, 65833, Control_c, 0, 64, 58
1, 65848, Control_c, 0, 64, 59
1, 65863, Control_c, 0, 64, 60
1, 65878, Control_c, 0, 64, 62
1, 65893, Control_c, 0, 64, 64
1, 65907, Control_c, 0, 64, 66
1, 65922, Control_c, 0, 64, 68
1, 65937, Control_c, 0, 64, 70
1, 65951, Control_c, 0, 64, 72
1, 65966, Control_c, 0, 64, 73
1, 65981, Control_c, 0, 64, 74
1, 66004, Control_c, 0, 64, 75
1, 66019, Control_c, 0, 64, 75
1, 66029, Note_on_c, 0, 44, 23
1, 66034, Control_c, 0, 64, 76
1, 66049, Control_c, 0, 64, 77
1, 66060, Note_on_c, 0, 63, 34
1, 66064, Control_c, 0, 64, 77
1, 66079, Control_c, 0, 64, 78
1, 66093, Control_c, 0, 64, 78
1, 66108, Control_c, 0, 64, 79
1, 66123, Control_c, 0, 64, 79
1, 66138, Control_c, 0, 64, 80
1, 66153, Control_c, 0, 64, 80
1, 66156, Note_off_c, 0, 59, 38
1, 66180, Poly_aftertouch_c, 0, 73, 127
1, 66182, Control_c, 0, 64, 81
1, 66212, Control_c, 0, 64, 81
1, 66242, Control_c, 0, 64, 82
1, 66271, Control_c, 0, 64, 82
1, 66297, Note_on_c, 0, 51, 44
1, 66301, Control_c, 0, 64, 83
1, 66316, Poly_aftertouch_c, 0, 73, 0
1, 66318, Note_off_c, 0, 44, 39
1, 66326, Note_off_c, 0, 63, 37
1, 66344, Control_c, 0, 64, 83
1, 66389, Control_c, 0, 64, 84
1, 66433, Control_c, 0, 64, 84
1, 66492, Note_on_c, 0, 56, 43
1, 66493, Control_c, 0, 67, 46
1, 66508, Control_c, 0, 67, 75
1, 66511, Note_on_c, 0, 59, 32
1, 66522, Control_c, 0, 67, 111
1, 66526, Note_off_c, 0, 51, 50
1, 66537, Control_c, 0, 64, 85
1, 66537, Control_c, 0, 67, 127
1, 66552, Note_off_c, 0, 59, 52
1, 66555, Note_off_c, 0, 56, 58
1, 66709, Note_on_c, 0, 64, 53
1, 66911, Note_on_c, 0, 56, 44
1, 66922, Note_on_c, 0, 59, 42
1, 66953, Note_off_c, 0, 64, 38
1, 67085, Note_off_c, 0, 59, 37
1, 67139, Note_on_c, 0, 68, 60
1, 67140, Note_on_c, 0, 63, 45
1, 67209, Note_off_c, 0, 75, 60
1, 67284, Note_off_c, 0, 63, 53
1, 67302, Note_off_c, 0, 68, 62
1, 67330, Note_on_c, 0, 59, 38
1, 67353, Note_on_c, 0, 51, 17
1, 67390, Note_off_c, 0, 56, 42
1, 67411, Note_off_c, 0, 59, 49
1, 67419, Control_c, 0, 64, 84
1, 67430, Note_off_c, 0, 51, 37
1, 67530, Control_c, 0, 64, 84
1, 67552, Note_on_c, 0, 59, 49
1, 67561, Note_on_c, 0, 68, 64
1, 67575, Control_c, 0, 64, 83
1, 67590, Control_c, 0, 64, 83
1, 67619, Control_c, 0, 64, 82
1, 67649, Control_c, 0, 64, 82
1, 67664, Control_c, 0, 64, 81
1, 67694, Control_c, 0, 64, 81
1, 67724, Control_c, 0, 64, 80
1, 67754, Control_c, 0, 64, 80
1, 67769, Control_c, 0, 64, 79
1, 67783, Control_c, 0, 64, 79
1, 67795, Note_on_c, 0, 63, 51
1, 67798, Control_c, 0, 64, 78
1, 67801, Note_on_c, 0, 44, 45
1, 67813, Control_c, 0, 64, 78
1, 67827, Control_c, 0, 64, 77
1, 67842, Control_c, 0, 64, 77
1, 67857, Control_c, 0, 64, 76
1, 67872, Control_c, 0, 64, 75
1, 67887, Control_c, 0, 64, 73
1, 67901, Control_c, 0, 64, 71
1, 67916, Control_c, 0, 64, 68
1, 67931, Control_c, 0, 64, 65
1, 67946, Control_c, 0, 64, 61
1, 67961, Control_c, 0, 64, 57
1, 67975, Control_c, 0, 64, 55
1, 67977, Note_off_c, 0, 59, 38
1, 67988, Note_on_c, 0, 67, 65
1, 68005, Control_c, 0, 64, 56
1, 68019, Control_c, 0, 64, 56
1, 68034, Control_c, 0, 64, 58
1, 68049, Control_c, 0, 64, 60
1, 68064, Control_c, 0, 64, 62
1, 68072, Note_off_c, 0, 68, 54
1, 68079, Control_c, 0, 64, 64
1, 68094, Control_c, 0, 64, 65
1, 68109, Control_c, 0, 64, 66
1, 68123, Control_c, 0, 64, 67
1, 68138, Control_c, 0, 64, 69
1, 68153, Control_c, 0, 64, 70
1, 68168, Control_c, 0, 64, 71
1, 68183, Control_c, 0, 64, 72
1, 68186, Note_on_c, 0, 58, 47
1, 68198, Control_c, 0, 64, 72
1, 68209, Note_off_c, 0, 44, 63
1, 68213, Control_c, 0, 64, 73
1, 68213, Note_on_c, 0, 51, 46
1, 68266, Note_off_c, 0, 51, 60
1, 68269, Note_off_c, 0, 58, 56
1, 68279, Control_c, 0, 64, 73
1, 68320, Note_off_c, 0, 63, 52
1, 68428, Control_c, 0, 64, 73
1, 68433, Note_on_c, 0, 64, 56
1, 68441, Note_on_c, 0, 68, 62
1, 68443, Control_c, 0, 64, 72
1, 68457, Control_c, 0, 64, 70
1, 68472, Control_c, 0, 64, 66
1, 68487, Control_c, 0, 64, 62
1, 68502, Control_c, 0, 64, 57
1, 68517, Control_c, 0, 64, 54
1, 68531, Note_off_c, 0, 67, 35
1, 68532, Control_c, 0, 64, 54
1, 68547, Control_c, 0, 64, 54
1, 68562, Control_c, 0, 64, 55
1, 68576, Control_c, 0, 64, 55
1, 68591, Control_c, 0, 64, 56
1, 68606, Control_c, 0, 64, 58
1, 68621, Control_c, 0, 64, 60
1, 68636, Control_c, 0, 64, 61
1, 68648, Note_on_c, 0, 56, 45
1, 68651, Control_c, 0, 64, 63
1, 68663, Note_on_c, 0, 59, 46
1, 68666, Control_c, 0, 64, 64
1, 68681, Control_c, 0, 64, 66
1, 68696, Control_c, 0, 64, 67
1, 68705, Note_off_c, 0, 64, 58
1, 68711, Control_c, 0, 64, 69
1, 68725, Control_c, 0, 64, 71
1, 68740, Control_c, 0, 64, 73
1, 68755, Control_c, 0, 64, 75
1, 68769, Control_c, 0, 64, 76
1, 68784, Control_c, 0, 64, 77
1, 68799, Control_c, 0, 64, 78
1, 68814, Control_c, 0, 64, 79
1, 68818, Note_off_c, 0, 59, 53
1, 68829, Control_c, 0, 64, 80
1, 68843, Control_c, 0, 64, 80
1, 68851, Note_on_c, 0, 63, 57
1, 68858, Control_c, 0, 64, 81
1, 68866, Note_off_c, 0, 68, 53
1, 68873, Control_c, 0, 64, 81
1, 68903, Control_c, 0, 64, 82
1, 68999, Control_c, 0, 67, 110
1, 69014, Control_c, 0, 67, 96
1, 69023, Note_off_c, 0, 63, 59
1, 69029, Control_c, 0, 67, 84
1, 69043, Control_c, 0, 67, 73
1, 69058, Control_c, 0, 67, 64
1, 69068, Note_on_c, 0, 59, 44
1, 69071, Note_on_c, 0, 51, 45
1, 69073, Control_c, 0, 67, 54
1, 69088, Control_c, 0, 67, 45
1, 69103, Control_c, 0, 67, 0
1, 69106, Note_off_c, 0, 56, 47
1, 69131, Note_off_c, 0, 59, 57
1, 69268, Note_off_c, 0, 51, 33
1, 69277, Note_on_c, 0, 75, 75
1, 69281, Control_c, 0, 64, 80
1, 69296, Control_c, 0, 64, 77
1, 69299, Note_on_c, 0, 57, 45
1, 69311, Control_c, 0, 64, 72
1, 69326, Control_c, 0, 64, 65
1, 69341, Control_c, 0, 64, 59
1, 69355, Control_c, 0, 64, 54
1, 69385, Control_c, 0, 64, 56
1, 69399, Control_c, 0, 64, 58
1, 69414, Control_c, 0, 64, 61
1, 69429, Control_c, 0, 64, 64
1, 69444, Control_c, 0, 64, 67
1, 69459, Control_c, 0, 64, 70
1, 69474, Control_c, 0, 64, 72
1, 69483, Note_on_c, 0, 61, 41
1, 69486, Note_on_c, 0, 66, 54
1, 69489, Control_c, 0, 64, 74
1, 69499, Note_on_c, 0, 51, 45
1, 69504, Control_c, 0, 64, 75
1, 69518, Control_c, 0, 64, 76
1, 69533, Control_c, 0, 64, 77
1, 69548, Control_c, 0, 64, 78
1, 69563, Control_c, 0, 64, 78
1, 69572, Note_off_c, 0, 61, 59
1, 69578, Control_c, 0, 64, 79
1, 69592, Control_c, 0, 64, 79
1, 69671, Note_off_c, 0, 66, 39
1, 69697, Note_on_c, 0, 76, 66
1, 69701, Note_on_c, 0, 56, 45
1, 69706, Note_off_c, 0, 57, 35
1, 69786, Note_off_c, 0, 75, 53
1, 69871, Note_off_c, 0, 51, 0
1, 69906, Note_on_c, 0, 44, 36
1, 69914, Poly_aftertouch_c, 0, 51, 0
1, 69920, Note_on_c, 0, 66, 35
1, 69941, Note_on_c, 0, 60, 30
1, 69951, Note_off_c, 0, 66, 54
1, 69954, Note_off_c, 0, 44, 47
1, 69975, Note_off_c, 0, 56, 45
1, 69983, Note_off_c, 0, 60, 46
1, 70133, Control_c, 0, 64, 79
1, 70156, Note_on_c, 0, 75, 68
1, 70177, Control_c, 0, 64, 78
1, 70186, Note_on_c, 0, 68, 52
1, 70207, Control_c, 0, 64, 77
1, 70222, Control_c, 0, 64, 75
1, 70237, Control_c, 0, 64, 71
1, 70252, Control_c, 0, 64, 65
1, 70267, Control_c, 0, 64, 59
1, 70282, Control_c, 0, 64, 53
1, 70296, Control_c, 0, 64, 50
1, 70311, Control_c, 0, 64, 51
1, 70319, Note_off_c, 0, 76, 40
1, 70326, Control_c, 0, 64, 51
1, 70340, Control_c, 0, 64, 53
1, 70355, Control_c, 0, 64, 55
1, 70370, Control_c, 0, 64, 58
1, 70385, Control_c, 0, 64, 61
1, 70387, Note_on_c, 0, 63, 40
1, 70398, Note_on_c, 0, 61, 39
1, 70400, Control_c, 0, 64, 63
1, 70414, Control_c, 0, 64, 65
1, 70416, Note_off_c, 0, 68, 55
1, 70429, Control_c, 0, 64, 66
1, 70444, Control_c, 0, 64, 68
1, 70459, Control_c, 0, 64, 70
1, 70474, Control_c, 0, 64, 72
1, 70496, Control_c, 0, 64, 73
1, 70511, Control_c, 0, 64, 74
1, 70541, Control_c, 0, 64, 74
1, 70551, Note_off_c, 0, 61, 35
1, 70555, Control_c, 0, 64, 75
1, 70587, Note_on_c, 0, 66, 48
1, 70600, Control_c, 0, 64, 75
1, 70616, Note_off_c, 0, 63, 37
1, 70644, Control_c, 0, 64, 76
1, 70681, Note_off_c, 0, 75, 62
1, 70741, Note_off_c, 0, 66, 58
1, 70793, Note_on_c, 0, 60, 34
1, 70809, Note_on_c, 0, 56, 39
1, 70842, Note_off_c, 0, 60, 51
1, 70904, Note_off_c, 0, 56, 50
1, 71015, Control_c, 0, 64, 75
1, 71042, Note_on_c, 0, 73, 68
1, 71075, Control_c, 0, 64, 75
1, 71078, Note_on_c, 0, 57, 45
1, 71089, Control_c, 0, 64, 74
1, 71104, Control_c, 0, 64, 72
1, 71119, Control_c, 0, 64, 70
1, 71134, Control_c, 0, 64, 66
1, 71149, Control_c, 0, 64, 62
1, 71163, Control_c, 0, 64, 57
1, 71178, Control_c, 0, 64, 54
1, 71193, Control_c, 0, 64, 52
1, 71208, Control_c, 0, 64, 52
1, 71223, Control_c, 0, 64, 52
1, 71244, Control_c, 0, 64, 53
1, 71259, Control_c, 0, 64, 54
1, 71274, Control_c, 0, 64, 55
1, 71289, Control_c, 0, 64, 57
1, 71304, Control_c, 0, 64, 59
1, 71316, Note_on_c, 0, 49, 36
1, 71319, Control_c, 0, 64, 61
1, 71322, Note_on_c, 0, 61, 33
1, 71334, Control_c, 0, 64, 62
1, 71349, Control_c, 0, 64, 63
1, 71364, Control_c, 0, 64, 64
1, 71378, Control_c, 0, 64, 65
1, 71393, Control_c, 0, 64, 65
1, 71408, Control_c, 0, 64, 66
1, 71423, Control_c, 0, 64, 66
1, 71438, Control_c, 0, 64, 67
1, 71452, Control_c, 0, 64, 67
1, 71467, Control_c, 0, 64, 68
1, 71482, Control_c, 0, 64, 68
1, 71496, Control_c, 0, 64, 69
1, 71504, Note_off_c, 0, 61, 43
1, 71511, Control_c, 0, 64, 69
1, 71526, Control_c, 0, 64, 70
1, 71527, Note_on_c, 0, 56, 45
1, 71527, Note_on_c, 0, 64, 45
1, 71541, Control_c, 0, 64, 70
1, 71556, Note_off_c, 0, 57, 32
1, 71556, Control_c, 0, 64, 71
1, 71570, Control_c, 0, 64, 71
1, 71586, Control_c, 0, 64, 72
1, 71617, Control_c, 0, 64, 72
1, 71626, Note_off_c, 0, 49, 54
1, 71632, Control_c, 0, 64, 73
1, 71706, Control_c, 0, 64, 73
1, 71734, Note_off_c, 0, 56, 62
1, 71738, Note_on_c, 0, 61, 40
1, 71763, Note_off_c, 0, 64, 60
1, 71810, Note_off_c, 0, 61, 61
1, 71939, Note_on_c, 0, 66, 66
1, 71972, Control_c, 0, 64, 73
1, 71994, Control_c, 0, 64, 71
1, 72009, Control_c, 0, 64, 69
1, 72024, Control_c, 0, 64, 66
1, 72039, Control_c, 0, 64, 62
1, 72054, Control_c, 0, 64, 62
1, 72098, Control_c, 0, 64, 62
1, 72113, Control_c, 0, 64, 63
1, 72127, Control_c, 0, 64, 64
1, 72142, Note_on_c, 0, 58, 37
1, 72142, Control_c, 0, 64, 66
1, 72148, Note_on_c, 0, 61, 35
1, 72157, Control_c, 0, 64, 67
1, 72172, Control_c, 0, 64, 68
1, 72187, Control_c, 0, 64, 69
1, 72201, Control_c, 0, 64, 70
1, 72216, Control_c, 0, 64, 72
1, 72231, Control_c, 0, 64, 72
1, 72246, Control_c, 0, 64, 73
1, 72253, Note_off_c, 0, 66, 64
1, 72261, Control_c, 0, 64, 74
1, 72276, Control_c, 0, 64, 74
1, 72291, Control_c, 0, 64, 75
1, 72357, Note_on_c, 0, 64, 53
1, 72553, Note_on_c, 0, 56, 50
1, 72604, Note_off_c, 0, 64, 38
1, 72618, Note_off_c, 0, 58, 38
1, 72788, Control_c, 0, 64, 74
1, 72793, Note_on_c, 0, 71, 68
1, 72805, Note_on_c, 0, 64, 50
1, 72815, Note_off_c, 0, 61, 41
1, 72832, Control_c, 0, 64, 74
1, 72847, Control_c, 0, 64, 73
1, 72862, Control_c, 0, 64, 71
1, 72877, Control_c, 0, 64, 69
1, 72891, Control_c, 0, 64, 66
1, 72906, Control_c, 0, 64, 62
1, 72921, Control_c, 0, 64, 59
1, 72935, Control_c, 0, 64, 57
1, 72950, Control_c, 0, 64, 56
1, 73023, Note_on_c, 0, 68, 43
1, 73039, Note_on_c, 0, 59, 39
1, 73039, Control_c, 0, 64, 57
1, 73054, Control_c, 0, 64, 57
1, 73063, Note_off_c, 0, 56, 48
1, 73069, Control_c, 0, 64, 58
1, 73083, Control_c, 0, 64, 59
1, 73097, Control_c, 0, 64, 59
1, 73112, Control_c, 0, 64, 60
1, 73127, Control_c, 0, 64, 60
1, 73141, Control_c, 0, 64, 61
1, 73156, Control_c, 0, 64, 61
1, 73171, Control_c, 0, 64, 62
1, 73184, Note_off_c, 0, 73, 38
1, 73186, Control_c, 0, 64, 63
1, 73201, Control_c, 0, 64, 64
1, 73217, Control_c, 0, 64, 65
1, 73232, Control_c, 0, 64, 66
1, 73239, Note_on_c, 0, 63, 48
1, 73246, Control_c, 0, 64, 68
1, 73261, Control_c, 0, 64, 70
1, 73276, Control_c, 0, 64, 72
1, 73291, Control_c, 0, 64, 73
1, 73306, Control_c, 0, 64, 74
1, 73320, Control_c, 0, 64, 75
1, 73328, Note_off_c, 0, 64, 27
1, 73335, Control_c, 0, 64, 76
1, 73350, Control_c, 0, 64, 78
1, 73364, Control_c, 0, 64, 79
1, 73379, Control_c, 0, 64, 79
1, 73394, Control_c, 0, 64, 80
1, 73409, Control_c, 0, 64, 81
1, 73424, Control_c, 0, 64, 81
1, 73444, Note_on_c, 0, 56, 46
1, 73453, Control_c, 0, 64, 82
1, 73466, Note_off_c, 0, 68, 32
1, 73498, Note_off_c, 0, 63, 60
1, 73506, Control_c, 0, 64, 82
1, 73522, Note_off_c, 0, 59, 43
1, 73525, Note_off_c, 0, 56, 58
1, 73668, Note_on_c, 0, 52, 65
1, 73698, Control_c, 0, 64, 83
1, 73903, Note_on_c, 0, 59, 46
1, 73905, Control_c, 0, 64, 83
1, 73909, Note_on_c, 0, 68, 49
1, 73949, Note_off_c, 0, 59, 61
1, 73950, Control_c, 0, 64, 84
1, 74008, Note_off_c, 0, 52, 62
1, 74094, Note_on_c, 0, 75, 66
1, 74130, Note_on_c, 0, 51, 55
1, 74184, Note_off_c, 0, 75, 63
1, 74273, Note_off_c, 0, 71, 51
1, 74339, Note_on_c, 0, 59, 42
1, 74341, Note_off_c, 0, 68, 35
1, 74351, Note_on_c, 0, 39, 52
1, 74371, Note_off_c, 0, 59, 51
1, 74432, Note_off_c, 0, 51, 33
1, 74487, Note_off_c, 0, 39, 35
1, 74574, Note_on_c, 0, 70, 73
1, 74599, Note_on_c, 0, 53, 45
1, 74625, Control_c, 0, 64, 82
1, 74640, Control_c, 0, 64, 78
1, 74655, Control_c, 0, 64, 73
1, 74669, Control_c, 0, 64, 68
1, 74684, Control_c, 0, 64, 62
1, 74699, Control_c, 0, 64, 58
1, 74709, Poly_aftertouch_c, 0, 52, 0
1, 74714, Control_c, 0, 64, 57
1, 74744, Control_c, 0, 64, 58
1, 74759, Control_c, 0, 64, 59
1, 74774, Control_c, 0, 64, 61
1, 74788, Control_c, 0, 64, 63
1, 74803, Control_c, 0, 64, 65
1, 74810, Note_on_c, 0, 62, 41
1, 74819, Control_c, 0, 64, 68
1, 74822, Note_on_c, 0, 68, 45
1, 74828, Note_on_c, 0, 46, 38
1, 74833, Control_c, 0, 64, 71
1, 74848, Control_c, 0, 64, 73
1, 74863, Control_c, 0, 64, 75
1, 74878, Control_c, 0, 64, 75
1, 74893, Control_c, 0, 64, 76
1, 74908, Control_c, 0, 64, 77
1, 74923, Control_c, 0, 64, 78
1, 74950, Note_off_c, 0, 62, 49
1, 74967, Control_c, 0, 64, 78
1, 75005, Note_off_c, 0, 53, 35
1, 75006, Note_off_c, 0, 68, 57
1, 75007, Note_on_c, 0, 71, 73
1, 75008, Note_on_c, 0, 52, 45
1, 75039, Note_off_c, 0, 70, 64
1, 75120, Note_off_c, 0, 52, 36
1, 75181, Note_off_c, 0, 46, 54
1, 75223, Note_on_c, 0, 61, 40
1, 75224, Note_on_c, 0, 39, 53
1, 75224, Note_on_c, 0, 68, 48
1, 75256, Note_off_c, 0, 39, 56
1, 75271, Note_off_c, 0, 61, 62
1, 75457, Note_on_c, 0, 70, 65
1, 75482, Note_on_c, 0, 64, 72
1, 75492, Control_c, 0, 64, 78
1, 75507, Control_c, 0, 64, 74
1, 75519, Note_off_c, 0, 71, 52
1, 75520, Note_off_c, 0, 68, 38
1, 75522, Control_c, 0, 64, 68
1, 75537, Control_c, 0, 64, 60
1, 75552, Control_c, 0, 64, 52
1, 75567, Control_c, 0, 64, 49
1, 75597, Control_c, 0, 64, 50
1, 75612, Control_c, 0, 64, 53
1, 75626, Control_c, 0, 64, 58
1, 75641, Control_c, 0, 64, 62
1, 75656, Control_c, 0, 64, 65
1, 75671, Control_c, 0, 64, 68
1, 75686, Control_c, 0, 64, 70
1, 75701, Control_c, 0, 64, 73
1, 75716, Control_c, 0, 64, 75
1, 75738, Control_c, 0, 64, 77
1, 75748, Note_on_c, 0, 61, 49
1, 75753, Control_c, 0, 64, 79
1, 75756, Note_on_c, 0, 58, 43
1, 75761, Note_on_c, 0, 68, 56
1, 75767, Control_c, 0, 64, 81
1, 75782, Control_c, 0, 64, 83
1, 75797, Control_c, 0, 64, 85
1, 75812, Note_off_c, 0, 64, 63
1, 75812, Control_c, 0, 64, 86
1, 75827, Control_c, 0, 64, 87
1, 75841, Control_c, 0, 64, 88
1, 75856, Control_c, 0, 64, 88
1, 75871, Control_c, 0, 64, 89
1, 75901, Control_c, 0, 64, 89
1, 75930, Control_c, 0, 64, 90
1, 75964, Note_on_c, 0, 75, 68
1, 75971, Note_on_c, 0, 63, 57
1, 76101, Note_off_c, 0, 63, 56
1, 76200, Note_on_c, 0, 51, 64
1, 76211, Note_on_c, 0, 67, 66
1, 76241, Note_off_c, 0, 61, 51
1, 76243, Poly_aftertouch_c, 0, 73, 0
1, 76270, Note_off_c, 0, 58, 40
1, 76285, Control_c, 0, 64, 90
1, 76297, Note_off_c, 0, 51, 60
1, 76327, Note_off_c, 0, 75, 33
1, 76357, Note_off_c, 0, 68, 44
1, 76378, Note_off_c, 0, 70, 38
1, 76390, Note_off_c, 0, 67, 61
1, 76516, Control_c, 0, 64, 90
1, 76546, Control_c, 0, 64, 89
1, 76561, Control_c, 0, 64, 89
1, 76576, Control_c, 0, 64, 88
1, 76590, Control_c, 0, 64, 87
1, 76605, Control_c, 0, 64, 86
1, 76613, Note_on_c, 0, 63, 87
1, 76620, Control_c, 0, 64, 85
1, 76635, Control_c, 0, 64, 83
1, 76650, Control_c, 0, 64, 82
1, 76664, Control_c, 0, 64, 80
1, 76679, Control_c, 0, 64, 78
1, 76694, Control_c, 0, 64, 77
1, 76708, Control_c, 0, 64, 75
1, 76723, Control_c, 0, 64, 73
1, 76738, Control_c, 0, 64, 71
1, 76753, Control_c, 0, 64, 69
1, 76768, Control_c, 0, 64, 67
1, 76783, Control_c, 0, 64, 65
1, 76798, Control_c, 0, 64, 64
1, 76813, Control_c, 0, 64, 64
1, 76842, Control_c, 0, 64, 63
1, 76960, Control_c, 0, 64, 63
1, 76977, Note_on_c, 0, 68, 70
1, 77001, Note_on_c, 0, 65, 62
1, 77004, Control_c, 0, 64, 62
1, 77019, Note_on_c, 0, 59, 43
1, 77049, Control_c, 0, 64, 62
1, 77078, Control_c, 0, 64, 61
1, 77093, Control_c, 0, 64, 61
1, 77138, Control_c, 0, 64, 60
1, 77197, Control_c, 0, 64, 60
1, 77310, Note_on_c, 0, 62, 60
1, 77368, Control_c, 0, 64, 60
1, 77383, Control_c, 0, 64, 61
1, 77398, Control_c, 0, 64, 62
1, 77403, Note_off_c, 0, 59, 50
1, 77412, Control_c, 0, 64, 64
1, 77427, Control_c, 0, 64, 67
1, 77442, Control_c, 0, 64, 72
1, 77457, Control_c, 0, 64, 77
1, 77472, Control_c, 0, 64, 80
1, 77486, Control_c, 0, 64, 82
1, 77501, Control_c, 0, 64, 84
1, 77516, Control_c, 0, 64, 84
1, 77531, Control_c, 0, 64, 85
1, 77541, Note_on_c, 0, 66, 75
1, 77546, Control_c, 0, 64, 86
1, 77549, Note_on_c, 0, 60, 56
1, 77585, Note_off_c, 0, 63, 35
1, 77589, Note_off_c, 0, 62, 59
1, 77641, Note_off_c, 0, 65, 56
1, 77695, Note_off_c, 0, 60, 59
1, 77746, Note_on_c, 0, 62, 81
1, 77768, Control_c, 0, 64, 85
1, 77812, Control_c, 0, 64, 85
1, 77823, Note_off_c, 0, 68, 32
1, 77827, Control_c, 0, 64, 84
1, 77842, Control_c, 0, 64, 84
1, 77871, Control_c, 0, 64, 83
1, 77901, Control_c, 0, 64, 82
1, 77916, Control_c, 0, 64, 81
1, 77931, Control_c, 0, 64, 81
1, 77946, Control_c, 0, 64, 80
1, 77960, Control_c, 0, 64, 79
1, 77983, Control_c, 0, 64, 78
1, 77998, Control_c, 0, 64, 78
1, 78014, Control_c, 0, 64, 77
1, 78029, Control_c, 0, 64, 76
1, 78043, Control_c, 0, 64, 75
1, 78048, Note_on_c, 0, 68, 69
1, 78057, Note_on_c, 0, 64, 61
1, 78058, Control_c, 0, 64, 74
1, 78073, Control_c, 0, 64, 73
1, 78074, Note_on_c, 0, 58, 54
1, 78088, Control_c, 0, 64, 72
1, 78103, Control_c, 0, 64, 71
1, 78117, Control_c, 0, 64, 69
1, 78132, Control_c, 0, 64, 67
1, 78147, Control_c, 0, 64, 65
1, 78161, Control_c, 0, 64, 63
1, 78169, Note_off_c, 0, 66, 55
1, 78176, Control_c, 0, 64, 61
1, 78191, Control_c, 0, 64, 60
1, 78206, Control_c, 0, 64, 59
1, 78221, Control_c, 0, 64, 58
1, 78235, Control_c, 0, 64, 57
1, 78250, Control_c, 0, 64, 57
1, 78265, Control_c, 0, 64, 56
1, 78279, Control_c, 0, 64, 55
1, 78294, Control_c, 0, 64, 54
1, 78309, Note_on_c, 0, 61, 58
1, 78309, Control_c, 0, 64, 53
1, 78325, Control_c, 0, 64, 53
1, 78384, Control_c, 0, 64, 54
1, 78399, Control_c, 0, 64, 55
1, 78414, Control_c, 0, 64, 56
1, 78428, Control_c, 0, 64, 58
1, 78443, Control_c, 0, 64, 61
1, 78449, Note_off_c, 0, 62, 54
1, 78458, Control_c, 0, 64, 63
1, 78472, Note_off_c, 0, 58, 50
1, 78473, Control_c, 0, 64, 65
1, 78488, Control_c, 0, 64, 67
1, 78503, Control_c, 0, 64, 69
1, 78518, Control_c, 0, 64, 71
1, 78521, Note_on_c, 0, 59, 55
1, 78525, Note_on_c, 0, 65, 62
1, 78533, Control_c, 0, 64, 72
1, 78547, Control_c, 0, 64, 73
1, 78562, Control_c, 0, 64, 73
1, 78604, Note_off_c, 0, 61, 59
1, 78648, Note_off_c, 0, 64, 37
1, 78664, Note_off_c, 0, 68, 53
1, 78714, Note_off_c, 0, 59, 57
1, 78748, Note_on_c, 0, 61, 74
1, 78792, Control_c, 0, 64, 73
1, 78807, Control_c, 0, 64, 72
1, 78822, Control_c, 0, 64, 72
1, 78837, Control_c, 0, 64, 71
1, 78852, Control_c, 0, 64, 70
1, 78867, Control_c, 0, 64, 70
1, 78882, Control_c, 0, 64, 68
1, 78896, Control_c, 0, 64, 67
1, 78911, Control_c, 0, 64, 66
1, 78926, Control_c, 0, 64, 65
1, 78941, Control_c, 0, 64, 65
1, 78956, Control_c, 0, 64, 64
1, 78971, Control_c, 0, 64, 63
1, 78975, Note_on_c, 0, 68, 65
1, 78985, Note_on_c, 0, 63, 55
1, 78985, Control_c, 0, 64, 63
1, 78993, Note_on_c, 0, 57, 49
1, 79000, Control_c, 0, 64, 62
1, 79015, Control_c, 0, 64, 61
1, 79030, Control_c, 0, 64, 60
1, 79045, Control_c, 0, 64, 59
1, 79059, Control_c, 0, 64, 58
1, 79074, Control_c, 0, 64, 58
1, 79089, Control_c, 0, 64, 57
1, 79115, Note_off_c, 0, 65, 55
1, 79118, Control_c, 0, 64, 56
1, 79148, Control_c, 0, 64, 57
1, 79163, Control_c, 0, 64, 57
1, 79177, Control_c, 0, 64, 58
1, 79192, Control_c, 0, 64, 59
1, 79197, Note_on_c, 0, 60, 56
1, 79207, Control_c, 0, 64, 61
1, 79222, Control_c, 0, 64, 63
1, 79236, Note_off_c, 0, 57, 62
1, 79237, Control_c, 0, 64, 65
1, 79251, Control_c, 0, 64, 66
1, 79266, Control_c, 0, 64, 68
1, 79281, Control_c, 0, 64, 69
1, 79296, Control_c, 0, 64, 71
1, 79311, Control_c, 0, 64, 72
1, 79326, Control_c, 0, 64, 72
1, 79341, Control_c, 0, 64, 73
1, 79355, Control_c, 0, 64, 73
1, 79385, Control_c, 0, 64, 74
1, 79398, Note_on_c, 0, 64, 58
1, 79400, Control_c, 0, 64, 74
1, 79417, Note_off_c, 0, 63, 50
1, 79428, Note_on_c, 0, 58, 47
1, 79430, Control_c, 0, 64, 75
1, 79450, Note_off_c, 0, 61, 25
1, 79457, Note_off_c, 0, 60, 58
1, 79496, Control_c, 0, 67, 40
1, 79510, Control_c, 0, 67, 45
1, 79525, Control_c, 0, 67, 49
1, 79540, Control_c, 0, 67, 52
1, 79554, Note_off_c, 0, 58, 58
1, 79555, Control_c, 0, 67, 54
1, 79570, Control_c, 0, 67, 54
1, 79600, Control_c, 0, 67, 55
1, 79609, Note_on_c, 0, 60, 65
1, 79630, Control_c, 0, 67, 56
1, 79636, Note_off_c, 0, 64, 62
1, 79645, Control_c, 0, 67, 56
1, 79660, Control_c, 0, 67, 57
1, 79692, Note_off_c, 0, 68, 22
1, 79704, Control_c, 0, 64, 74
1, 79719, Control_c, 0, 64, 74
1, 79794, Control_c, 0, 67, 56
1, 79808, Control_c, 0, 67, 56
1, 79818, Note_on_c, 0, 68, 63
1, 79823, Control_c, 0, 67, 55
1, 79832, Note_on_c, 0, 63, 60
1, 79838, Note_on_c, 0, 57, 44
1, 79838, Control_c, 0, 67, 54
1, 79853, Control_c, 0, 67, 53
1, 79868, Control_c, 0, 67, 51
1, 79882, Control_c, 0, 67, 49
1, 79897, Control_c, 0, 67, 45
1, 79912, Control_c, 0, 67, 42
1, 79926, Control_c, 0, 67, 39
1, 79941, Control_c, 0, 67, 0
1, 80039, Note_on_c, 0, 59, 64
1, 80053, Note_off_c, 0, 60, 62
1, 80068, Note_off_c, 0, 57, 62
1, 80220, Note_off_c, 0, 59, 40
1, 80230, Control_c, 0, 64, 74
1, 80262, Note_off_c, 0, 68, 52
1, 80272, Note_on_c, 0, 58, 53
1, 80283, Note_on_c, 0, 62, 60
1, 80301, Note_on_c, 0, 56, 50
1, 80333, Control_c, 0, 64, 75
1, 80335, Note_off_c, 0, 56, 64
1, 80361, Note_off_c, 0, 63, 61
1, 80395, Note_off_c, 0, 62, 63
1, 80547, Note_off_c, 0, 58, 35
1, 80586, Note_on_c, 0, 75, 81
1, 80587, Note_on_c, 0, 61, 43
1, 80588, Note_on_c, 0, 57, 45
1, 80616, Control_c, 0, 64, 74
1, 80630, Control_c, 0, 64, 72
1, 80645, Control_c, 0, 64, 67
1, 80660, Control_c, 0, 64, 60
1, 80674, Control_c, 0, 64, 51
1, 80689, Control_c, 0, 64, 45
1, 80704, Control_c, 0, 64, 45
1, 80719, Control_c, 0, 64, 46
1, 80734, Control_c, 0, 64, 48
1, 80748, Control_c, 0, 64, 53
1, 80763, Control_c, 0, 64, 58
1, 80778, Control_c, 0, 64, 62
1, 80793, Control_c, 0, 64, 64
1, 80808, Control_c, 0, 64, 66
1, 80822, Control_c, 0, 64, 67
1, 80837, Control_c, 0, 64, 69
1, 80852, Control_c, 0, 64, 72
1, 80858, Note_on_c, 0, 66, 48
1, 80866, Note_on_c, 0, 51, 31
1, 80867, Control_c, 0, 64, 73
1, 80882, Note_off_c, 0, 61, 58
1, 80882, Control_c, 0, 64, 75
1, 80897, Control_c, 0, 64, 76
1, 80904, Note_off_c, 0, 57, 58
1, 80911, Control_c, 0, 64, 77
1, 80926, Control_c, 0, 64, 78
1, 80941, Control_c, 0, 64, 78
1, 80956, Control_c, 0, 64, 79
1, 80978, Control_c, 0, 64, 80
1, 80993, Control_c, 0, 64, 81
1, 81002, Note_off_c, 0, 75, 52
1, 81008, Control_c, 0, 64, 81
1, 81023, Control_c, 0, 64, 82
1, 81037, Control_c, 0, 64, 82
1, 81047, Note_off_c, 0, 51, 44
1, 81063, Note_on_c, 0, 56, 57
1, 81067, Control_c, 0, 64, 83
1, 81111, Control_c, 0, 64, 83
1, 81263, Note_on_c, 0, 44, 43
1, 81274, Note_on_c, 0, 60, 55
1, 81312, Note_off_c, 0, 56, 59
1, 81438, Note_off_c, 0, 60, 54
1, 81458, Note_on_c, 0, 51, 47
1, 81480, Note_off_c, 0, 44, 61
1, 81493, Note_off_c, 0, 51, 62
1, 81651, Note_on_c, 0, 59, 55
1, 81665, Note_off_c, 0, 66, 38
1, 81667, Note_on_c, 0, 32, 49
1, 81833, Note_off_c, 0, 59, 57
1, 81839, Note_off_c, 0, 32, 49
1, 81864, Note_on_c, 0, 68, 69
1, 81881, Note_on_c, 0, 44, 34
1, 81889, Note_on_c, 0, 66, 62
1, 81926, Note_off_c, 0, 44, 47
1, 82084, Note_on_c, 0, 60, 49
1, 82088, Note_on_c, 0, 51, 49
1, 82121, Note_off_c, 0, 68, 52
1, 82131, Note_off_c, 0, 60, 58
1, 82137, Note_off_c, 0, 66, 61
1, 82288, Note_on_c, 0, 68, 72
1, 82293, Note_on_c, 0, 52, 46
1, 82307, Control_c, 0, 64, 82
1, 82321, Control_c, 0, 64, 79
1, 82322, Note_off_c, 0, 51, 48
1, 82336, Control_c, 0, 64, 73
1, 82351, Control_c, 0, 64, 65
1, 82366, Control_c, 0, 64, 58
1, 82381, Control_c, 0, 64, 52
1, 82395, Control_c, 0, 64, 52
1, 82410, Control_c, 0, 64, 52
1, 82425, Control_c, 0, 64, 54
1, 82440, Control_c, 0, 64, 57
1, 82454, Control_c, 0, 64, 61
1, 82476, Control_c, 0, 64, 64
1, 82491, Control_c, 0, 64, 67
1, 82506, Control_c, 0, 64, 69
1, 82509, Note_on_c, 0, 61, 49
1, 82521, Note_on_c, 0, 57, 40
1, 82521, Control_c, 0, 64, 71
1, 82530, Note_on_c, 0, 44, 41
1, 82536, Control_c, 0, 64, 72
1, 82551, Control_c, 0, 64, 73
1, 82566, Control_c, 0, 64, 74
1, 82581, Control_c, 0, 64, 74
1, 82596, Control_c, 0, 64, 75
1, 82654, Control_c, 0, 64, 75
1, 82689, Note_off_c, 0, 57, 32
1, 82691, Note_off_c, 0, 44, 48
1, 82710, Note_on_c, 0, 67, 66
1, 82721, Note_off_c, 0, 61, 61
1, 82722, Note_on_c, 0, 51, 48
1, 82739, Note_off_c, 0, 68, 47
1, 82743, Note_off_c, 0, 52, 35
1, 82863, Control_c, 0, 64, 76
1, 82918, Note_on_c, 0, 56, 49
1, 82930, Note_on_c, 0, 60, 19
1, 82941, Note_on_c, 0, 44, 25
1, 82950, Note_off_c, 0, 56, 62
1, 82970, Note_off_c, 0, 60, 54
1, 82979, Note_off_c, 0, 51, 46
1, 82980, Note_off_c, 0, 44, 41
1, 83135, Note_on_c, 0, 68, 65
1, 83144, Control_c, 0, 64, 75
1, 83147, Note_on_c, 0, 66, 56
1, 83159, Control_c, 0, 64, 73
1, 83171, Note_off_c, 0, 67, 35
1, 83174, Control_c, 0, 64, 68
1, 83189, Control_c, 0, 64, 61
1, 83204, Control_c, 0, 64, 54
1, 83225, Control_c, 0, 64, 51
1, 83255, Control_c, 0, 64, 52
1, 83270, Control_c, 0, 64, 55
1, 83284, Control_c, 0, 64, 58
1, 83299, Control_c, 0, 64, 62
1, 83314, Control_c, 0, 64, 65
1, 83329, Control_c, 0, 64, 67
1, 83336, Note_on_c, 0, 56, 42
1, 83344, Note_on_c, 0, 59, 40
1, 83344, Control_c, 0, 64, 70
1, 83359, Control_c, 0, 64, 71
1, 83374, Control_c, 0, 64, 73
1, 83386, Note_off_c, 0, 66, 63
1, 83389, Control_c, 0, 64, 74
1, 83404, Control_c, 0, 64, 75
1, 83418, Control_c, 0, 64, 75
1, 83433, Control_c, 0, 64, 76
1, 83448, Control_c, 0, 64, 76
1, 83477, Control_c, 0, 64, 77
1, 83492, Control_c, 0, 67, 53
1, 83507, Control_c, 0, 64, 77
1, 83507, Control_c, 0, 67, 88
1, 83522, Control_c, 0, 67, 127
1, 83524, Note_off_c, 0, 59, 34
1, 83532, Note_off_c, 0, 56, 37
1, 83553, Note_on_c, 0, 64, 57
1, 83747, Note_off_c, 0, 68, 35
1, 83763, Note_on_c, 0, 59, 44
1, 83784, Note_off_c, 0, 64, 64
1, 83816, Note_off_c, 0, 59, 60
1, 83989, Control_c, 0, 64, 76
1, 83992, Note_on_c, 0, 75, 75
1, 84004, Control_c, 0, 64, 72
1, 84009, Note_on_c, 0, 61, 50
1, 84019, Control_c, 0, 64, 65
1, 84034, Control_c, 0, 64, 57
1, 84048, Control_c, 0, 64, 50
1, 84063, Control_c, 0, 64, 49
1, 84078, Control_c, 0, 64, 50
1, 84092, Control_c, 0, 64, 54
1, 84107, Control_c, 0, 64, 59
1, 84122, Control_c, 0, 64, 63
1, 84137, Control_c, 0, 64, 65
1, 84152, Control_c, 0, 64, 67
1, 84167, Control_c, 0, 64, 69
1, 84182, Control_c, 0, 64, 72
1, 84196, Control_c, 0, 64, 73
1, 84211, Control_c, 0, 64, 74
1, 84213, Note_on_c, 0, 66, 54
1, 84224, Note_on_c, 0, 51, 37
1, 84226, Control_c, 0, 64, 75
1, 84232, Note_on_c, 0, 54, 26
1, 84235, Note_on_c, 0, 63, 43
1, 84241, Control_c, 0, 64, 76
1, 84256, Control_c, 0, 64, 76
1, 84271, Control_c, 0, 64, 77
1, 84292, Note_off_c, 0, 61, 37
1, 84297, Note_off_c, 0, 63, 52
1, 84300, Control_c, 0, 64, 77
1, 84331, Note_off_c, 0, 66, 57
1, 84357, Note_off_c, 0, 51, 32
1, 84408, Note_on_c, 0, 60, 40
1, 84417, Note_on_c, 0, 76, 68
1, 84438, Note_off_c, 0, 60, 54
1, 84522, Note_off_c, 0, 54, 40
1, 84575, Note_off_c, 0, 76, 57
1, 84590, Note_off_c, 0, 75, 62
1, 84610, Note_on_c, 0, 44, 43
1, 84640, Note_off_c, 0, 44, 61
1, 84642, Note_on_c, 0, 66, 40
1, 84647, Note_on_c, 0, 68, 40
1, 84664, Poly_aftertouch_c, 0, 51, 127
1, 84697, Poly_aftertouch_c, 0, 51, 0
1, 84726, Note_off_c, 0, 66, 35
1, 84756, Note_off_c, 0, 68, 35
1, 84856, Control_c, 0, 64, 77
1, 84884, Note_on_c, 0, 75, 56
1, 84921, Note_on_c, 0, 81, 68
1, 84975, Control_c, 0, 64, 76
1, 84989, Control_c, 0, 64, 74
1, 85004, Control_c, 0, 64, 67
1, 85019, Control_c, 0, 64, 60
1, 85034, Control_c, 0, 64, 51
1, 85049, Control_c, 0, 64, 47
1, 85064, Control_c, 0, 64, 46
1, 85079, Control_c, 0, 64, 47
1, 85094, Control_c, 0, 64, 49
1, 85109, Control_c, 0, 64, 54
1, 85123, Control_c, 0, 64, 58
1, 85132, Note_on_c, 0, 73, 54
1, 85138, Control_c, 0, 64, 61
1, 85142, Note_on_c, 0, 66, 41
1, 85153, Control_c, 0, 64, 63
1, 85168, Control_c, 0, 64, 64
1, 85183, Control_c, 0, 64, 66
1, 85187, Note_on_c, 0, 63, 8
1, 85198, Control_c, 0, 64, 68
1, 85213, Control_c, 0, 64, 70
1, 85228, Control_c, 0, 64, 72
1, 85243, Control_c, 0, 64, 73
1, 85254, Note_off_c, 0, 63, 40
1, 85258, Control_c, 0, 64, 74
1, 85272, Control_c, 0, 64, 75
1, 85287, Control_c, 0, 64, 77
1, 85302, Control_c, 0, 64, 78
1, 85317, Control_c, 0, 64, 78
1, 85332, Control_c, 0, 64, 79
1, 85335, Note_on_c, 0, 80, 54
1, 85346, Control_c, 0, 64, 80
1, 85361, Control_c, 0, 64, 81
1, 85367, Note_off_c, 0, 81, 58
1, 85376, Control_c, 0, 64, 82
1, 85391, Control_c, 0, 64, 83
1, 85406, Control_c, 0, 64, 83
1, 85435, Control_c, 0, 64, 84
1, 85444, Note_off_c, 0, 80, 65
1, 85478, Note_off_c, 0, 73, 56
1, 85557, Note_on_c, 0, 72, 53
1, 85568, Note_off_c, 0, 75, 62
1, 85586, Note_on_c, 0, 63, 36
1, 85664, Note_off_c, 0, 66, 58
1, 85692, Note_off_c, 0, 63, 37
1, 85798, Control_c, 0, 64, 81
1, 85800, Note_on_c, 0, 73, 68
1, 85809, Note_on_c, 0, 60, 49
1, 85812, Control_c, 0, 64, 72
1, 85824, Note_on_c, 0, 65, 48
1, 85826, Note_on_c, 0, 61, 41
1, 85827, Control_c, 0, 64, 64
1, 85842, Control_c, 0, 64, 56
1, 85857, Control_c, 0, 64, 54
1, 85871, Control_c, 0, 64, 55
1, 85886, Control_c, 0, 64, 58
1, 85901, Control_c, 0, 64, 62
1, 85916, Control_c, 0, 64, 66
1, 85927, Note_off_c, 0, 61, 53
1, 85931, Control_c, 0, 64, 70
1, 85943, Note_off_c, 0, 65, 53
1, 85945, Control_c, 0, 64, 74
1, 85960, Control_c, 0, 64, 76
1, 85975, Note_off_c, 0, 60, 59
1, 85975, Control_c, 0, 64, 77
1, 85991, Control_c, 0, 64, 78
1, 86006, Control_c, 0, 64, 80
1, 86021, Control_c, 0, 64, 81
1, 86036, Control_c, 0, 64, 82
1, 86050, Control_c, 0, 64, 83
1, 86052, Note_on_c, 0, 65, 40
1, 86060, Note_on_c, 0, 53, 26
1, 86065, Control_c, 0, 64, 84
1, 86074, Note_on_c, 0, 61, 45
1, 86080, Note_on_c, 0, 44, 38
1, 86094, Control_c, 0, 64, 84
1, 86198, Control_c, 0, 64, 83
1, 86220, Control_c, 0, 64, 81
1, 86235, Control_c, 0, 64, 79
1, 86277, Note_off_c, 0, 44, 55
1, 86285, Note_on_c, 0, 59, 49
1, 86293, Note_off_c, 0, 61, 39
1, 86324, Control_c, 0, 64, 80
1, 86339, Control_c, 0, 64, 80
1, 86368, Control_c, 0, 64, 81
1, 86385, Note_off_c, 0, 59, 55
1, 86483, Note_off_c, 0, 72, 30
1, 86492, Note_off_c, 0, 53, 39
1, 86498, Note_on_c, 0, 49, 47
1, 86507, Note_on_c, 0, 68, 46
1, 86508, Note_on_c, 0, 61, 40
1, 86536, Note_off_c, 0, 61, 55
1, 86539, Note_off_c, 0, 49, 62
1, 86556, Note_off_c, 0, 65, 41
1, 86584, Note_off_c, 0, 68, 42
1, 86792, Note_on_c, 0, 82, 70
1, 86925, Note_off_c, 0, 82, 59
1, 87029, Note_on_c, 0, 65, 42
1, 87034, Note_on_c, 0, 70, 46
1, 87036, Note_off_c, 0, 73, 38
1, 87296, Control_c, 0, 64, 80
1, 87309, Note_on_c, 0, 80, 60
1, 87310, Control_c, 0, 64, 78
1, 87314, Note_on_c, 0, 75, 58
1, 87324, Control_c, 0, 64, 74
1, 87337, Note_off_c, 0, 65, 56
1, 87339, Control_c, 0, 64, 67
1, 87354, Control_c, 0, 64, 61
1, 87369, Control_c, 0, 64, 58
1, 87371, Note_off_c, 0, 70, 33
1, 87398, Control_c, 0, 64, 60
1, 87413, Control_c, 0, 64, 61
1, 87428, Control_c, 0, 64, 64
1, 87443, Control_c, 0, 64, 67
1, 87458, Control_c, 0, 64, 70
1, 87472, Control_c, 0, 64, 73
1, 87487, Control_c, 0, 64, 73
1, 87517, Control_c, 0, 64, 74
1, 87524, Note_off_c, 0, 80, 65
1, 87574, Note_on_c, 0, 68, 45
1, 87581, Note_on_c, 0, 64, 44
1, 87695, Note_off_c, 0, 64, 57
1, 87846, Note_on_c, 0, 64, 54
1, 87975, Note_off_c, 0, 68, 60
1, 88097, Note_on_c, 0, 59, 40
1, 88100, Note_on_c, 0, 56, 43
1, 88143, Note_off_c, 0, 64, 56
1, 88289, Note_off_c, 0, 59, 37
1, 88319, Note_on_c, 0, 63, 48
1, 88327, Note_on_c, 0, 68, 58
1, 88413, Note_off_c, 0, 75, 58
1, 88482, Note_off_c, 0, 63, 60
1, 88546, Note_on_c, 0, 59, 30
1, 88553, Note_on_c, 0, 51, 34
1, 88613, Note_off_c, 0, 59, 43
1, 88665, Note_off_c, 0, 56, 40
1, 88702, Note_off_c, 0, 51, 44
1, 88766, Note_on_c, 0, 70, 61
1, 88778, Control_c, 0, 64, 73
1, 88781, Note_off_c, 0, 68, 56
1, 88793, Control_c, 0, 64, 71
1, 88807, Note_on_c, 0, 53, 45
1, 88808, Control_c, 0, 64, 66
1, 88823, Control_c, 0, 64, 61
1, 88838, Control_c, 0, 64, 57
1, 88853, Control_c, 0, 64, 56
1, 88882, Control_c, 0, 64, 57
1, 88897, Control_c, 0, 64, 58
1, 88912, Control_c, 0, 64, 60
1, 88927, Control_c, 0, 64, 62
1, 88942, Control_c, 0, 64, 64
1, 88957, Control_c, 0, 64, 65
1, 88971, Control_c, 0, 64, 67
1, 88986, Control_c, 0, 64, 68
1, 89001, Control_c, 0, 64, 69
1, 89015, Control_c, 0, 64, 69
1, 89028, Note_on_c, 0, 68, 41
1, 89045, Control_c, 0, 64, 70
1, 89054, Note_on_c, 0, 39, 37
1, 89061, Note_on_c, 0, 62, 13
1, 89086, Note_off_c, 0, 53, 30
1, 89291, Control_c, 0, 64, 68
1, 89297, Note_off_c, 0, 62, 42
1, 89306, Control_c, 0, 64, 65
1, 89309, Note_on_c, 0, 71, 51
1, 89312, Note_off_c, 0, 68, 50
1, 89320, Control_c, 0, 64, 60
1, 89321, Note_on_c, 0, 52, 37
1, 89335, Control_c, 0, 64, 53
1, 89350, Control_c, 0, 64, 49
1, 89360, Note_off_c, 0, 70, 25
1, 89380, Control_c, 0, 64, 50
1, 89394, Control_c, 0, 64, 53
1, 89409, Control_c, 0, 64, 58
1, 89424, Control_c, 0, 64, 62
1, 89438, Control_c, 0, 64, 65
1, 89453, Control_c, 0, 64, 67
1, 89468, Control_c, 0, 64, 69
1, 89483, Control_c, 0, 64, 70
1, 89498, Control_c, 0, 64, 71
1, 89506, Note_off_c, 0, 39, 53
1, 89512, Control_c, 0, 64, 72
1, 89527, Control_c, 0, 64, 73
1, 89542, Control_c, 0, 64, 74
1, 89557, Control_c, 0, 64, 74
1, 89572, Control_c, 0, 64, 75
1, 89601, Control_c, 0, 64, 75
1, 89624, Note_on_c, 0, 67, 36
1, 89645, Note_on_c, 0, 61, 22
1, 89660, Control_c, 0, 64, 76
1, 89693, Note_off_c, 0, 52, 33
1, 89771, Note_off_c, 0, 61, 51
1, 89912, Note_off_c, 0, 67, 27
1, 90018, Note_on_c, 0, 68, 45
1, 90024, Note_on_c, 0, 59, 40
1, 90024, Control_c, 0, 64, 75
1, 90054, Control_c, 0, 64, 72
1, 90057, Note_off_c, 0, 71, 34
1, 90069, Control_c, 0, 64, 66
1, 90084, Control_c, 0, 64, 59
1, 90099, Control_c, 0, 64, 52
1, 90114, Control_c, 0, 64, 50
1, 90128, Control_c, 0, 64, 51
1, 90143, Control_c, 0, 64, 53
1, 90158, Control_c, 0, 64, 57
1, 90173, Control_c, 0, 64, 61
1, 90188, Control_c, 0, 64, 64
1, 90203, Control_c, 0, 64, 66
1, 90217, Control_c, 0, 64, 69
1, 90221, Note_on_c, 0, 56, 42
1, 90222, Note_off_c, 0, 68, 64
1, 90232, Control_c, 0, 64, 71
1, 90247, Control_c, 0, 64, 73
1, 90261, Control_c, 0, 64, 73
1, 90276, Control_c, 0, 64, 74
1, 90291, Control_c, 0, 64, 74
1, 90350, Control_c, 0, 64, 75
1, 90361, Note_off_c, 0, 59, 44
1, 90365, Note_on_c, 0, 51, 52
1, 90471, Note_off_c, 0, 56, 21
1, 90495, Note_on_c, 0, 74, 50
1, 90505, Note_on_c, 0, 70, 41
1, 90515, Note_on_c, 0, 44, 44
1, 90558, Note_off_c, 0, 70, 59
1, 90566, Note_off_c, 0, 74, 60
1, 90617, Note_off_c, 0, 44, 58
1, 90644, Note_on_c, 0, 75, 48
1, 90658, Note_on_c, 0, 71, 58
1, 90683, Note_off_c, 0, 75, 65
1, 90713, Control_c, 0, 64, 74
1, 90719, Note_off_c, 0, 51, 37
1, 90809, Note_off_c, 0, 71, 37
1, 90819, Note_on_c, 0, 76, 52
1, 90823, Note_on_c, 0, 72, 50
1, 90880, Note_off_c, 0, 72, 49
1, 90935, Note_off_c, 0, 76, 37
1, 90937, Note_on_c, 0, 75, 60
1, 90939, Note_on_c, 0, 71, 53
1, 90941, Note_on_c, 0, 51, 45
1, 91008, Note_off_c, 0, 75, 63
1, 91036, Note_on_c, 0, 56, 46
1, 91051, Note_on_c, 0, 76, 58
1, 91057, Note_off_c, 0, 71, 45
1, 91061, Note_on_c, 0, 72, 57
1, 91112, Note_off_c, 0, 72, 52
1, 91114, Note_off_c, 0, 51, 34
1, 91114, Note_off_c, 0, 76, 59
1, 91120, Note_off_c, 0, 56, 61
1, 91166, Note_on_c, 0, 59, 49
1, 91193, Note_on_c, 0, 71, 56
1, 91193, Note_on_c, 0, 75, 62
1, 91249, Note_off_c, 0, 71, 46
1, 91255, Note_off_c, 0, 59, 36
1, 91285, Note_off_c, 0, 75, 61
1, 91320, Note_on_c, 0, 74, 60
1, 91325, Note_on_c, 0, 62, 47
1, 91365, Note_on_c, 0, 70, 26
1, 91425, Note_off_c, 0, 74, 61
1, 91452, Note_on_c, 0, 75, 70
1, 91476, Note_off_c, 0, 62, 52
1, 91509, Note_off_c, 0, 70, 35
1, 91511, Note_off_c, 0, 75, 64
1, 91521, Note_on_c, 0, 63, 39
1, 91646, Note_off_c, 0, 63, 62
1, 91673, Note_on_c, 0, 64, 55
1, 91759, Control_c, 0, 64, 74
1, 91774, Control_c, 0, 64, 72
1, 91780, Note_off_c, 0, 64, 57
1, 91789, Control_c, 0, 64, 68
1, 91793, Note_on_c, 0, 71, 71
1, 91804, Control_c, 0, 64, 64
1, 91819, Control_c, 0, 64, 60
1, 91831, Note_on_c, 0, 68, 49
1, 91833, Control_c, 0, 64, 59
1, 91848, Control_c, 0, 64, 59
1, 91863, Control_c, 0, 64, 60
1, 91878, Control_c, 0, 64, 62
1, 91893, Control_c, 0, 64, 64
1, 91907, Control_c, 0, 64, 66
1, 91922, Control_c, 0, 64, 68
1, 91937, Control_c, 0, 64, 70
1, 91952, Control_c, 0, 64, 72
1, 91967, Control_c, 0, 64, 73
1, 91977, Note_off_c, 0, 68, 57
1, 91981, Control_c, 0, 64, 74
1, 91989, Note_on_c, 0, 56, 46
1, 91996, Control_c, 0, 64, 76
1, 92011, Control_c, 0, 64, 77
1, 92012, Note_on_c, 0, 59, 47
1, 92026, Control_c, 0, 64, 78
1, 92040, Control_c, 0, 64, 80
1, 92055, Control_c, 0, 64, 82
1, 92070, Control_c, 0, 64, 83
1, 92085, Control_c, 0, 64, 84
1, 92100, Control_c, 0, 64, 85
1, 92114, Control_c, 0, 64, 86
1, 92117, Note_off_c, 0, 59, 63
1, 92129, Control_c, 0, 64, 87
1, 92144, Control_c, 0, 64, 88
1, 92152, Note_on_c, 0, 62, 59
1, 92159, Control_c, 0, 64, 89
1, 92174, Control_c, 0, 64, 90
1, 92221, Note_off_c, 0, 62, 62
1, 92226, Control_c, 0, 64, 90
1, 92257, Note_off_c, 0, 71, 61
1, 92269, Note_on_c, 0, 63, 58
1, 92281, Note_off_c, 0, 56, 35
1, 92396, Note_on_c, 0, 78, 68
1, 92402, Note_on_c, 0, 74, 56
1, 92463, Note_off_c, 0, 63, 55
1, 92465, Note_on_c, 0, 51, 43
1, 92476, Note_on_c, 0, 59, 31
1, 92492, Note_off_c, 0, 78, 55
1, 92531, Note_off_c, 0, 74, 50
1, 92559, Note_on_c, 0, 77, 73
1, 92579, Note_on_c, 0, 73, 55
1, 92592, Note_off_c, 0, 59, 37
1, 92633, Note_off_c, 0, 77, 61
1, 92641, Note_off_c, 0, 73, 61
1, 92661, Note_off_c, 0, 51, 60
1, 92712, Note_on_c, 0, 76, 71
1, 92731, Note_on_c, 0, 72, 59
1, 92853, Note_off_c, 0, 72, 54
1, 92853, Note_on_c, 0, 75, 73
1, 92867, Note_on_c, 0, 71, 62
1, 92871, Note_off_c, 0, 76, 56
1, 92876, Note_on_c, 0, 44, 40
1, 92892, Note_on_c, 0, 51, 48
1, 92967, Note_off_c, 0, 75, 57
1, 92987, Note_on_c, 0, 76, 78
1, 92993, Note_on_c, 0, 72, 66
1, 93009, Note_off_c, 0, 71, 56
1, 93011, Note_off_c, 0, 44, 57
1, 93027, Note_on_c, 0, 56, 55
1, 93040, Note_off_c, 0, 51, 48
1, 93094, Note_off_c, 0, 72, 54
1, 93106, Note_off_c, 0, 56, 58
1, 93116, Note_on_c, 0, 75, 77
1, 93124, Note_on_c, 0, 71, 74
1, 93128, Note_on_c, 0, 59, 58
1, 93152, Control_c, 0, 64, 90
1, 93155, Note_off_c, 0, 76, 56
1, 93202, Note_off_c, 0, 59, 58
1, 93246, Note_on_c, 0, 74, 77
1, 93249, Note_on_c, 0, 54, 52
1, 93253, Note_off_c, 0, 75, 62
1, 93255, Note_on_c, 0, 70, 73
1, 93255, Note_off_c, 0, 71, 60
1, 93327, Note_off_c, 0, 54, 57
1, 93376, Note_on_c, 0, 75, 76
1, 93381, Note_off_c, 0, 74, 57
1, 93381, Note_on_c, 0, 53, 53
1, 93396, Note_off_c, 0, 70, 62
1, 93401, Note_on_c, 0, 71, 63
1, 93443, Note_off_c, 0, 75, 65
1, 93479, Control_c, 0, 64, 89
1, 93494, Note_off_c, 0, 53, 52
1, 93539, Control_c, 0, 64, 89
1, 93545, Note_on_c, 0, 44, 52
1, 93568, Note_on_c, 0, 52, 49
1, 93583, Control_c, 0, 64, 88
1, 93612, Control_c, 0, 64, 87
1, 93625, Note_on_c, 0, 74, 81
1, 93627, Control_c, 0, 64, 84
1, 93642, Control_c, 0, 64, 79
1, 93657, Control_c, 0, 64, 74
1, 93658, Note_on_c, 0, 70, 67
1, 93672, Control_c, 0, 64, 67
1, 93684, Note_off_c, 0, 71, 38
1, 93686, Control_c, 0, 64, 62
1, 93709, Control_c, 0, 64, 59
1, 93723, Control_c, 0, 64, 59
1, 93738, Control_c, 0, 64, 60
1, 93753, Control_c, 0, 64, 61
1, 93768, Control_c, 0, 64, 63
1, 93783, Control_c, 0, 64, 65
1, 93798, Control_c, 0, 64, 66
1, 93806, Note_off_c, 0, 52, 62
1, 93808, Note_on_c, 0, 73, 69
1, 93808, Note_off_c, 0, 44, 60
1, 93812, Note_on_c, 0, 69, 61
1, 93812, Control_c, 0, 64, 68
1, 93819, Note_off_c, 0, 70, 60
1, 93819, Note_off_c, 0, 74, 60
1, 93827, Control_c, 0, 64, 70
1, 93840, Note_on_c, 0, 55, 52
1, 93842, Control_c, 0, 64, 71
1, 93857, Control_c, 0, 64, 72
1, 93872, Control_c, 0, 64, 73
1, 93876, Note_off_c, 0, 73, 61
1, 93886, Control_c, 0, 64, 74
1, 93890, Note_off_c, 0, 55, 57
1, 93916, Control_c, 0, 64, 74
1, 93926, Note_on_c, 0, 74, 75
1, 93930, Note_off_c, 0, 69, 55
1, 93942, Note_on_c, 0, 70, 63
1, 93975, Control_c, 0, 64, 75
1, 93992, Note_on_c, 0, 58, 58
1, 94024, Note_off_c, 0, 70, 59
1, 94028, Note_on_c, 0, 73, 72
1, 94049, Note_on_c, 0, 69, 62
1, 94102, Note_on_c, 0, 61, 62
1, 94126, Note_off_c, 0, 74, 30
1, 94159, Note_on_c, 0, 68, 72
1, 94159, Note_on_c, 0, 72, 70
1, 94165, Note_off_c, 0, 58, 54
1, 94165, Note_off_c, 0, 73, 62
1, 94174, Note_off_c, 0, 69, 34
1, 94197, Note_off_c, 0, 61, 63
1, 94228, Note_on_c, 0, 62, 62
1, 94274, Note_on_c, 0, 73, 80
1, 94275, Note_off_c, 0, 72, 60
1, 94281, Note_off_c, 0, 68, 63
1, 94290, Note_on_c, 0, 69, 65
1, 94361, Control_c, 0, 64, 74
1, 94376, Note_on_c, 0, 63, 64
1, 94395, Note_off_c, 0, 62, 50
1, 94421, Control_c, 0, 64, 74
1, 94435, Control_c, 0, 64, 73
1, 94469, Note_off_c, 0, 69, 39
1, 94472, Control_c, 0, 64, 73
1, 94502, Control_c, 0, 64, 72
1, 94516, Control_c, 0, 64, 71
1, 94530, Note_on_c, 0, 72, 75
1, 94531, Control_c, 0, 64, 67
1, 94536, Note_on_c, 0, 68, 73
1, 94546, Control_c, 0, 64, 62
1, 94561, Control_c, 0, 64, 56
1, 94576, Control_c, 0, 64, 52
1, 94580, Note_off_c, 0, 73, 61
1, 94591, Control_c, 0, 64, 52
1, 94619, Note_on_c, 0, 64, 53
1, 94621, Control_c, 0, 64, 52
1, 94635, Control_c, 0, 64, 54
1, 94650, Control_c, 0, 64, 57
1, 94665, Control_c, 0, 64, 61
1, 94680, Note_off_c, 0, 63, 53
1, 94680, Control_c, 0, 64, 64
1, 94695, Control_c, 0, 64, 67
1, 94708, Note_off_c, 0, 68, 60
1, 94709, Control_c, 0, 64, 69
1, 94710, Note_on_c, 0, 67, 67
1, 94724, Control_c, 0, 64, 71
1, 94739, Control_c, 0, 64, 72
1, 94753, Control_c, 0, 64, 73
1, 94768, Control_c, 0, 64, 74
1, 94785, Control_c, 0, 64, 75
1, 94800, Control_c, 0, 64, 75
1, 94814, Control_c, 0, 64, 76
1, 94819, Note_off_c, 0, 67, 56
1, 94830, Note_on_c, 0, 60, 48
1, 94832, Note_on_c, 0, 68, 67
1, 94842, Note_off_c, 0, 64, 65
1, 94859, Control_c, 0, 64, 76
1, 94895, Note_off_c, 0, 60, 58
1, 94922, Note_off_c, 0, 72, 59
1, 94939, Note_off_c, 0, 68, 60
1, 94954, Note_on_c, 0, 71, 74
1, 94978, Note_on_c, 0, 63, 54
1, 95065, Note_on_c, 0, 76, 70
1, 95070, Note_off_c, 0, 63, 62
1, 95071, Note_on_c, 0, 72, 68
1, 95075, Note_off_c, 0, 71, 57
1, 95113, Note_on_c, 0, 59, 45
1, 95121, Note_on_c, 0, 51, 49
1, 95138, Note_off_c, 0, 76, 57
1, 95140, Note_off_c, 0, 59, 55
1, 95171, Note_off_c, 0, 72, 60
1, 95184, Note_off_c, 0, 51, 60
1, 95193, Note_on_c, 0, 75, 73
1, 95208, Note_on_c, 0, 71, 64
1, 95281, Control_c, 0, 64, 76
1, 95296, Control_c, 0, 64, 73
1, 95297, Note_off_c, 0, 75, 54
1, 95311, Control_c, 0, 64, 66
1, 95321, Note_on_c, 0, 70, 68
1, 95321, Note_on_c, 0, 74, 67
1, 95322, Note_off_c, 0, 71, 59
1, 95326, Control_c, 0, 64, 58
1, 95340, Control_c, 0, 64, 54
1, 95342, Note_on_c, 0, 44, 44
1, 95350, Note_on_c, 0, 52, 49
1, 95355, Control_c, 0, 64, 54
1, 95370, Control_c, 0, 64, 56
1, 95384, Control_c, 0, 64, 60
1, 95399, Control_c, 0, 64, 64
1, 95414, Control_c, 0, 64, 68
1, 95425, Note_off_c, 0, 52, 62
1, 95426, Note_on_c, 0, 75, 68
1, 95426, Note_off_c, 0, 44, 62
1, 95429, Control_c, 0, 64, 71
1, 95435, Note_off_c, 0, 74, 52
1, 95436, Note_off_c, 0, 70, 61
1, 95442, Note_on_c, 0, 71, 66
1, 95444, Control_c, 0, 64, 74
1, 95458, Note_on_c, 0, 55, 59
1, 95458, Control_c, 0, 64, 75
1, 95473, Control_c, 0, 64, 75
1, 95488, Control_c, 0, 64, 76
1, 95497, Note_off_c, 0, 75, 62
1, 95516, Note_off_c, 0, 71, 59
1, 95518, Control_c, 0, 64, 76
1, 95525, Note_off_c, 0, 55, 50
1, 95555, Note_on_c, 0, 74, 78
1, 95558, Note_on_c, 0, 70, 73
1, 95600, Note_on_c, 0, 58, 52
1, 95623, Note_off_c, 0, 70, 63
1, 95669, Note_on_c, 0, 73, 70
1, 95670, Note_off_c, 0, 74, 60
1, 95673, Note_on_c, 0, 69, 58
1, 95706, Note_on_c, 0, 61, 64
1, 95751, Note_off_c, 0, 73, 62
1, 95771, Note_off_c, 0, 58, 34
1, 95785, Note_on_c, 0, 74, 77
1, 95797, Note_on_c, 0, 70, 73
1, 95798, Note_off_c, 0, 61, 63
1, 95812, Note_off_c, 0, 69, 34
1, 95834, Note_on_c, 0, 62, 62
1, 95844, Control_c, 0, 64, 76
1, 95902, Note_on_c, 0, 73, 74
1, 95905, Note_off_c, 0, 70, 60
1, 95915, Note_on_c, 0, 69, 67
1, 95918, Control_c, 0, 64, 75
1, 95920, Note_off_c, 0, 74, 54
1, 95944, Note_off_c, 0, 62, 61
1, 95947, Note_off_c, 0, 69, 62
1, 95955, Control_c, 0, 64, 75
1, 95962, Note_on_c, 0, 63, 63
1, 95985, Control_c, 0, 64, 74
1, 96014, Control_c, 0, 64, 74
1, 96044, Control_c, 0, 64, 73
1, 96059, Control_c, 0, 64, 73
1, 96073, Control_c, 0, 64, 72
1, 96088, Control_c, 0, 64, 72
1, 96103, Control_c, 0, 64, 71
1, 96118, Control_c, 0, 64, 70
1, 96133, Control_c, 0, 64, 69
1, 96135, Note_off_c, 0, 63, 59
1, 96138, Note_on_c, 0, 64, 66
1, 96147, Control_c, 0, 64, 68
1, 96161, Note_on_c, 0, 72, 74
1, 96162, Control_c, 0, 64, 66
1, 96177, Control_c, 0, 64, 64
1, 96183, Note_on_c, 0, 68, 54
1, 96192, Control_c, 0, 64, 61
1, 96207, Control_c, 0, 64, 59
1, 96221, Control_c, 0, 64, 55
1, 96236, Control_c, 0, 64, 53
1, 96251, Control_c, 0, 64, 51
1, 96296, Control_c, 0, 64, 52
1, 96306, Note_off_c, 0, 68, 55
1, 96311, Control_c, 0, 64, 54
1, 96325, Control_c, 0, 64, 56
1, 96340, Control_c, 0, 64, 58
1, 96355, Control_c, 0, 64, 60
1, 96364, Note_on_c, 0, 67, 52
1, 96365, Note_off_c, 0, 73, 19
1, 96370, Control_c, 0, 64, 63
1, 96385, Control_c, 0, 64, 64
1, 96390, Note_on_c, 0, 60, 47
1, 96400, Control_c, 0, 64, 66
1, 96415, Control_c, 0, 64, 67
1, 96430, Control_c, 0, 64, 69
1, 96445, Control_c, 0, 64, 70
1, 96460, Control_c, 0, 64, 71
1, 96472, Note_off_c, 0, 64, 64
1, 96475, Note_off_c, 0, 72, 58
1, 96490, Control_c, 0, 64, 72
1, 96501, Note_off_c, 0, 60, 63
1, 96505, Note_on_c, 0, 68, 61
1, 96578, Control_c, 0, 64, 72
1, 96625, Note_on_c, 0, 63, 68
1, 96647, Note_on_c, 0, 71, 56
1, 96715, Note_off_c, 0, 67, 34
1, 96794, Note_off_c, 0, 63, 62
1, 96797, Note_off_c, 0, 71, 57
1, 96801, Note_on_c, 0, 70, 60
1, 96807, Note_on_c, 0, 59, 50
1, 96823, Control_c, 0, 64, 72
1, 96828, Note_on_c, 0, 51, 44
1, 96840, Note_off_c, 0, 68, 15
1, 96895, Note_off_c, 0, 59, 57
1, 96934, Note_off_c, 0, 70, 62
1, 96944, Note_on_c, 0, 71, 64
1, 96985, Note_off_c, 0, 51, 59
1, 97098, Note_off_c, 0, 71, 56
1, 97102, Note_on_c, 0, 70, 65
1, 97103, Note_on_c, 0, 52, 67
1, 97134, Control_c, 0, 64, 70
1, 97148, Control_c, 0, 64, 64
1, 97163, Control_c, 0, 64, 58
1, 97179, Control_c, 0, 64, 54
1, 97194, Control_c, 0, 64, 53
1, 97208, Control_c, 0, 64, 54
1, 97223, Control_c, 0, 64, 56
1, 97238, Control_c, 0, 64, 59
1, 97241, Note_on_c, 0, 69, 59
1, 97253, Control_c, 0, 64, 62
1, 97268, Control_c, 0, 64, 63
1, 97281, Note_on_c, 0, 61, 44
1, 97283, Control_c, 0, 64, 64
1, 97287, Note_off_c, 0, 70, 38
1, 97298, Control_c, 0, 64, 65
1, 97312, Control_c, 0, 64, 66
1, 97327, Control_c, 0, 64, 67
1, 97342, Control_c, 0, 64, 68
1, 97348, Note_on_c, 0, 44, 38
1, 97349, Note_off_c, 0, 69, 59
1, 97357, Control_c, 0, 64, 69
1, 97362, Note_on_c, 0, 68, 59
1, 97371, Control_c, 0, 64, 69
1, 97401, Control_c, 0, 64, 70
1, 97454, Note_off_c, 0, 61, 59
1, 97464, Note_on_c, 0, 70, 59
1, 97497, Control_c, 0, 64, 69
1, 97512, Note_off_c, 0, 68, 56
1, 97512, Control_c, 0, 64, 66
1, 97527, Control_c, 0, 64, 63
1, 97542, Control_c, 0, 64, 60
1, 97557, Control_c, 0, 64, 60
1, 97572, Control_c, 0, 64, 60
1, 97581, Note_on_c, 0, 51, 54
1, 97581, Note_on_c, 0, 71, 61
1, 97586, Control_c, 0, 64, 62
1, 97596, Note_off_c, 0, 70, 54
1, 97601, Control_c, 0, 64, 64
1, 97616, Control_c, 0, 64, 67
1, 97631, Control_c, 0, 64, 69
1, 97646, Control_c, 0, 64, 70
1, 97660, Control_c, 0, 64, 72
1, 97673, Note_off_c, 0, 44, 60
1, 97675, Control_c, 0, 64, 72
1, 97677, Note_off_c, 0, 52, 56
1, 97685, Note_off_c, 0, 71, 48
1, 97705, Control_c, 0, 64, 73
1, 97720, Control_c, 0, 67, 120
1, 97724, Note_on_c, 0, 70, 58
1, 97727, Note_on_c, 0, 66, 63
1, 97734, Control_c, 0, 64, 73
1, 97734, Control_c, 0, 67, 104
1, 97749, Control_c, 0, 67, 86
1, 97763, Note_off_c, 0, 51, 62
1, 97764, Control_c, 0, 67, 70
1, 97778, Control_c, 0, 67, 51
1, 97794, Control_c, 0, 67, 0
1, 97820, Note_off_c, 0, 70, 59
1, 97831, Note_off_c, 0, 66, 50
1, 97852, Note_on_c, 0, 67, 59
1, 97853, Note_on_c, 0, 71, 54
1, 97898, Control_c, 0, 64, 73
1, 97942, Control_c, 0, 64, 72
1, 97944, Note_off_c, 0, 71, 53
1, 97957, Control_c, 0, 64, 72
1, 97973, Control_c, 0, 64, 71
1, 97987, Note_off_c, 0, 67, 52
1, 97988, Control_c, 0, 64, 70
1, 97989, Note_on_c, 0, 72, 52
1, 98000, Note_on_c, 0, 64, 67
1, 98002, Control_c, 0, 64, 67
1, 98010, Note_on_c, 0, 68, 55
1, 98017, Control_c, 0, 64, 63
1, 98032, Control_c, 0, 64, 60
1, 98047, Control_c, 0, 64, 57
1, 98062, Control_c, 0, 64, 56
1, 98091, Control_c, 0, 64, 56
1, 98106, Control_c, 0, 64, 58
1, 98114, Note_off_c, 0, 72, 55
1, 98121, Control_c, 0, 64, 59
1, 98136, Control_c, 0, 64, 61
1, 98140, Note_off_c, 0, 68, 62
1, 98148, Note_on_c, 0, 73, 58
1, 98150, Note_on_c, 0, 69, 54
1, 98150, Control_c, 0, 64, 63
1, 98165, Control_c, 0, 64, 65
1, 98180, Control_c, 0, 64, 66
1, 98202, Control_c, 0, 64, 67
1, 98217, Control_c, 0, 64, 68
1, 98232, Control_c, 0, 64, 69
1, 98238, Note_on_c, 0, 61, 48
1, 98247, Control_c, 0, 64, 69
1, 98262, Control_c, 0, 64, 70
1, 98267, Note_off_c, 0, 64, 61
1, 98309, Note_on_c, 0, 70, 57
1, 98309, Note_off_c, 0, 73, 52
1, 98329, Note_on_c, 0, 74, 54
1, 98376, Note_off_c, 0, 69, 37
1, 98541, Note_off_c, 0, 61, 36
1, 98543, Control_c, 0, 64, 69
1, 98549, Note_on_c, 0, 63, 41
1, 98553, Note_on_c, 0, 75, 62
1, 98558, Note_off_c, 0, 70, 53
1, 98558, Control_c, 0, 64, 68
1, 98559, Note_on_c, 0, 71, 45
1, 98573, Control_c, 0, 64, 66
1, 98588, Control_c, 0, 64, 62
1, 98594, Note_off_c, 0, 74, 36
1, 98602, Control_c, 0, 64, 58
1, 98617, Control_c, 0, 64, 53
1, 98632, Control_c, 0, 64, 52
1, 98662, Control_c, 0, 64, 52
1, 98676, Control_c, 0, 64, 53
1, 98691, Control_c, 0, 64, 55
1, 98706, Control_c, 0, 64, 58
1, 98720, Control_c, 0, 64, 62
1, 98735, Control_c, 0, 64, 65
1, 98750, Control_c, 0, 64, 68
1, 98766, Control_c, 0, 64, 70
1, 98777, Note_off_c, 0, 71, 49
1, 98781, Control_c, 0, 64, 72
1, 98796, Control_c, 0, 64, 73
1, 98811, Control_c, 0, 64, 75
1, 98825, Control_c, 0, 64, 76
1, 98830, Note_off_c, 0, 63, 54
1, 98840, Control_c, 0, 64, 77
1, 98855, Control_c, 0, 64, 78
1, 98860, Note_on_c, 0, 49, 43
1, 98867, Note_off_c, 0, 75, 60
1, 98870, Control_c, 0, 64, 78
1, 98885, Control_c, 0, 64, 79
1, 98899, Control_c, 0, 64, 80
1, 98914, Control_c, 0, 64, 80
1, 98929, Control_c, 0, 64, 81
1, 99085, Note_off_c, 0, 49, 57
1, 99151, Note_on_c, 0, 59, 62
1, 99247, Control_c, 0, 64, 80
1, 99277, Control_c, 0, 64, 80
1, 99292, Control_c, 0, 64, 79
1, 99307, Control_c, 0, 64, 79
1, 99322, Control_c, 0, 64, 78
1, 99336, Control_c, 0, 64, 77
1, 99351, Control_c, 0, 64, 76
1, 99363, Note_on_c, 0, 68, 55
1, 99366, Control_c, 0, 64, 75
1, 99381, Control_c, 0, 64, 74
1, 99396, Control_c, 0, 64, 72
1, 99411, Control_c, 0, 64, 70
1, 99425, Control_c, 0, 64, 68
1, 99440, Control_c, 0, 64, 66
1, 99455, Control_c, 0, 64, 65
1, 99470, Control_c, 0, 64, 64
1, 99485, Control_c, 0, 64, 63
1, 99499, Control_c, 0, 64, 63
1, 99514, Control_c, 0, 64, 62
1, 99558, Control_c, 0, 64, 62
1, 99584, Note_on_c, 0, 44, 47
1, 99589, Control_c, 0, 64, 61
1, 99604, Control_c, 0, 64, 61
1, 99619, Control_c, 0, 64, 60
1, 99634, Control_c, 0, 64, 60
1, 99648, Control_c, 0, 64, 59
1, 99678, Control_c, 0, 64, 58
1, 99715, Control_c, 0, 64, 59
1, 99745, Control_c, 0, 64, 59
1, 99760, Control_c, 0, 64, 60
1, 99774, Control_c, 0, 64, 61
1, 99789, Control_c, 0, 64, 62
1, 99804, Control_c, 0, 64, 64
1, 99813, Note_on_c, 0, 56, 60
1, 99819, Control_c, 0, 64, 65
1, 99834, Control_c, 0, 64, 66
1, 99848, Control_c, 0, 64, 67
1, 99863, Control_c, 0, 64, 69
1, 99878, Control_c, 0, 64, 70
1, 99893, Control_c, 0, 64, 72
1, 99908, Control_c, 0, 64, 73
1, 99922, Control_c, 0, 64, 73
1, 99937, Control_c, 0, 64, 74
1, 99952, Control_c, 0, 64, 75
1, 99967, Control_c, 0, 64, 75
1, 99981, Control_c, 0, 64, 76
1, 99996, Control_c, 0, 64, 77
1, 100011, Control_c, 0, 64, 78
1, 100026, Control_c, 0, 64, 78
1, 100028, Note_on_c, 0, 51, 61
1, 100055, Control_c, 0, 64, 79
1, 100070, Control_c, 0, 64, 80
1, 100085, Control_c, 0, 64, 80
1, 100096, Note_off_c, 0, 44, 59
1, 100100, Control_c, 0, 64, 81
1, 100115, Control_c, 0, 64, 82
1, 100118, Note_off_c, 0, 56, 59
1, 100129, Control_c, 0, 64, 82
1, 100138, Note_off_c, 0, 59, 34
1, 100144, Control_c, 0, 64, 83
1, 100159, Control_c, 0, 64, 83
1, 100174, Control_c, 0, 64, 84
1, 100189, Control_c, 0, 64, 84
1, 100204, Control_c, 0, 64, 85
1, 100219, Control_c, 0, 64, 86
1, 100234, Control_c, 0, 64, 86
1, 100240, Note_on_c, 0, 63, 73
1, 100248, Control_c, 0, 64, 87
1, 100263, Control_c, 0, 64, 87
1, 100278, Control_c, 0, 64, 88
1, 100293, Control_c, 0, 64, 89
1, 100308, Control_c, 0, 64, 89
1, 100322, Control_c, 0, 64, 90
1, 100337, Control_c, 0, 64, 91
1, 100352, Control_c, 0, 64, 92
1, 100368, Control_c, 0, 64, 93
1, 100383, Control_c, 0, 64, 94
1, 100397, Control_c, 0, 64, 94
1, 100411, Note_off_c, 0, 68, 34
1, 100412, Control_c, 0, 64, 95
1, 100427, Control_c, 0, 64, 95
1, 100449, Control_c, 0, 64, 96
1, 100466, Note_on_c, 0, 59, 73
1, 100541, Note_off_c, 0, 51, 53
1, 100671, Note_on_c, 0, 68, 72
1, 100740, Note_off_c, 0, 63, 58
1, 100884, Note_on_c, 0, 51, 77
1, 100956, Note_off_c, 0, 59, 37
1, 101012, Control_c, 0, 64, 98
1, 101107, Note_on_c, 0, 63, 82
1, 101116, Control_c, 0, 64, 100
1, 101199, Control_c, 0, 64, 102
1, 101302, Control_c, 0, 64, 104
1, 101331, Note_on_c, 0, 42, 75
1, 101376, Control_c, 0, 64, 106
1, 101406, Control_c, 0, 64, 108
1, 101420, Control_c, 0, 64, 110
1, 101435, Control_c, 0, 64, 114
1, 101450, Control_c, 0, 64, 119
1, 101465, Control_c, 0, 64, 127
1, 101483, Note_off_c, 0, 51, 49
1, 101556, Note_on_c, 0, 57, 80
1, 101562, Note_off_c, 0, 42, 59
1, 101721, Note_off_c, 0, 63, 55
1, 101783, Note_on_c, 0, 49, 88
1, 101853, Note_off_c, 0, 68, 7
1, 101906, Note_off_c, 0, 57, 56
1, 101980, Note_off_c, 0, 49, 58
1, 102046, Note_on_c, 0, 63, 89
1, 102308, Note_on_c, 0, 59, 85
1, 102369, Note_off_c, 0, 59, 64
1, 102587, Note_on_c, 0, 68, 85
1, 102607, Note_off_c, 0, 63, 61
1, 102952, Note_on_c, 0, 40, 49
1, 103006, Note_on_c, 0, 64, 83
1, 103046, Note_on_c, 0, 56, 59
1, 103051, Control_c, 0, 64, 98
1, 103057, Note_off_c, 0, 68, 57
1, 103066, Control_c, 0, 64, 76
1, 103080, Control_c, 0, 64, 65
1, 103095, Control_c, 0, 64, 57
1, 103110, Control_c, 0, 64, 56
1, 103125, Control_c, 0, 64, 57
1, 103140, Control_c, 0, 64, 60
1, 103155, Control_c, 0, 64, 64
1, 103170, Control_c, 0, 64, 71
1, 103185, Control_c, 0, 64, 78
1, 103199, Control_c, 0, 64, 82
1, 103214, Control_c, 0, 64, 84
1, 103229, Control_c, 0, 64, 86
1, 103244, Control_c, 0, 64, 89
1, 103259, Control_c, 0, 64, 93
1, 103273, Control_c, 0, 64, 98
1, 103288, Control_c, 0, 64, 102
1, 103303, Control_c, 0, 64, 105
1, 103317, Control_c, 0, 64, 107
1, 103347, Control_c, 0, 64, 110
1, 103355, Note_on_c, 0, 47, 50
1, 103362, Control_c, 0, 64, 112
1, 103376, Note_on_c, 0, 68, 50
1, 103391, Control_c, 0, 64, 115
1, 103421, Control_c, 0, 64, 119
1, 103459, Control_c, 0, 64, 122
1, 103468, Note_off_c, 0, 56, 56
1, 103473, Control_c, 0, 64, 124
1, 103503, Control_c, 0, 64, 127
1, 103528, Note_off_c, 0, 40, 48
1, 103623, Note_on_c, 0, 56, 67
1, 103629, Note_on_c, 0, 71, 61
1, 103668, Note_off_c, 0, 64, 58
1, 103739, Note_off_c, 0, 47, 58
1, 103836, Note_on_c, 0, 63, 80
1, 103890, Note_off_c, 0, 56, 60
1, 103987, Note_off_c, 0, 68, 8
1, 104071, Note_on_c, 0, 61, 72
1, 104088, Note_on_c, 0, 64, 65
1, 104090, Note_on_c, 0, 57, 56
1, 104092, Note_on_c, 0, 54, 58
1, 104127, Control_c, 0, 64, 113
1, 104141, Control_c, 0, 64, 96
1, 104156, Control_c, 0, 64, 84
1, 104171, Control_c, 0, 64, 75
1, 104191, Note_off_c, 0, 63, 58
1, 104193, Control_c, 0, 64, 71
1, 104208, Control_c, 0, 64, 70
1, 104222, Control_c, 0, 64, 71
1, 104231, Note_off_c, 0, 71, 36
1, 104237, Control_c, 0, 64, 73
1, 104252, Control_c, 0, 64, 77
1, 104267, Control_c, 0, 64, 81
1, 104278, Note_off_c, 0, 57, 31
1, 104279, Note_off_c, 0, 54, 49
1, 104282, Control_c, 0, 64, 84
1, 104297, Control_c, 0, 64, 88
1, 104312, Control_c, 0, 64, 90
1, 104313, Note_on_c, 0, 59, 78
1, 104313, Note_on_c, 0, 69, 71
1, 104326, Control_c, 0, 64, 93
1, 104341, Control_c, 0, 64, 96
1, 104348, Note_off_c, 0, 61, 63
1, 104356, Control_c, 0, 64, 99
1, 104371, Control_c, 0, 64, 101
1, 104386, Control_c, 0, 64, 103
1, 104398, Note_off_c, 0, 69, 60
1, 104416, Control_c, 0, 64, 106
1, 104446, Control_c, 0, 64, 110
1, 104461, Control_c, 0, 64, 114
1, 104476, Note_off_c, 0, 59, 64
1, 104476, Control_c, 0, 64, 120
1, 104490, Control_c, 0, 64, 127
1, 104547, Note_on_c, 0, 47, 62
1, 104550, Note_on_c, 0, 57, 54
1, 104550, Control_c, 0, 64, 117
1, 104556, Note_on_c, 0, 71, 80
1, 104559, Note_on_c, 0, 66, 84
1, 104565, Control_c, 0, 64, 91
1, 104580, Control_c, 0, 64, 73
1, 104595, Control_c, 0, 64, 61
1, 104598, Note_off_c, 0, 64, 63
1, 104610, Control_c, 0, 64, 54
1, 104625, Control_c, 0, 64, 55
1, 104639, Control_c, 0, 64, 59
1, 104654, Control_c, 0, 64, 66
1, 104669, Control_c, 0, 64, 75
1, 104679, Note_off_c, 0, 57, 61
1, 104684, Control_c, 0, 64, 86
1, 104699, Control_c, 0, 64, 93
1, 104706, Note_off_c, 0, 71, 58
1, 104713, Control_c, 0, 64, 97
1, 104728, Control_c, 0, 64, 101
1, 104743, Control_c, 0, 64, 107
1, 104753, Note_off_c, 0, 47, 60
1, 104758, Control_c, 0, 64, 118
1, 104772, Control_c, 0, 64, 127
1, 104831, Note_on_c, 0, 63, 63
1, 104916, Note_on_c, 0, 40, 63
1, 104970, Note_off_c, 0, 63, 60
1, 105002, Control_c, 0, 64, 119
1, 105017, Control_c, 0, 64, 83
1, 105018, Note_on_c, 0, 47, 71
1, 105018, Note_off_c, 0, 66, 61
1, 105032, Control_c, 0, 64, 68
1, 105046, Control_c, 0, 64, 59
1, 105057, Note_on_c, 0, 68, 85
1, 105061, Control_c, 0, 64, 57
1, 105064, Note_on_c, 0, 64, 48
1, 105068, Note_off_c, 0, 40, 60
1, 105076, Control_c, 0, 64, 59
1, 105090, Note_on_c, 0, 56, 58
1, 105090, Control_c, 0, 64, 63
1, 105105, Note_off_c, 0, 47, 63
1, 105105, Control_c, 0, 64, 69
1, 105120, Control_c, 0, 64, 77
1, 105135, Control_c, 0, 64, 81
1, 105150, Control_c, 0, 64, 84
1, 105154, Note_off_c, 0, 56, 62
1, 105161, Note_off_c, 0, 64, 48
1, 105165, Poly_aftertouch_c, 0, 66, 127
1, 105166, Control_c, 0, 64, 86
1, 105181, Control_c, 0, 64, 90
1, 105195, Control_c, 0, 64, 94
1, 105206, Note_off_c, 0, 68, 60
1, 105210, Control_c, 0, 64, 97
1, 105213, Poly_aftertouch_c, 0, 66, 0
1, 105225, Control_c, 0, 64, 100
1, 105240, Control_c, 0, 64, 102
1, 105255, Control_c, 0, 64, 104
1, 105269, Control_c, 0, 64, 106
1, 105299, Control_c, 0, 64, 108
1, 105322, Note_on_c, 0, 76, 69
1, 105325, Note_on_c, 0, 61, 64
1, 105329, Control_c, 0, 64, 110
1, 105343, Control_c, 0, 64, 112
1, 105373, Control_c, 0, 64, 115
1, 105387, Note_off_c, 0, 61, 52
1, 105403, Control_c, 0, 64, 119
1, 105418, Control_c, 0, 64, 122
1, 105432, Control_c, 0, 64, 127
1, 105540, Note_on_c, 0, 71, 89
1, 105579, Note_on_c, 0, 68, 54
1, 105773, Note_on_c, 0, 59, 58
1, 105781, Note_on_c, 0, 75, 68
1, 105784, Note_off_c, 0, 71, 58
1, 105808, Note_off_c, 0, 68, 57
1, 106004, Control_c, 0, 64, 112
1, 106018, Control_c, 0, 64, 87
1, 106025, Note_on_c, 0, 66, 90
1, 106032, Control_c, 0, 64, 66
1, 106034, Note_on_c, 0, 69, 47
1, 106036, Note_on_c, 0, 64, 52
1, 106038, Note_on_c, 0, 73, 60
1, 106047, Control_c, 0, 64, 53
1, 106062, Control_c, 0, 64, 48
1, 106065, Note_off_c, 0, 76, 42
1, 106077, Control_c, 0, 64, 50
1, 106091, Control_c, 0, 64, 54
1, 106106, Control_c, 0, 64, 62
1, 106108, Note_off_c, 0, 75, 58
1, 106121, Control_c, 0, 64, 69
1, 106136, Control_c, 0, 64, 81
1, 106151, Control_c, 0, 64, 90
1, 106166, Control_c, 0, 64, 95
1, 106181, Control_c, 0, 64, 102
1, 106196, Control_c, 0, 64, 113
1, 106199, Note_off_c, 0, 59, 62
1, 106210, Control_c, 0, 64, 127
1, 106231, Note_on_c, 0, 63, 56
1, 106249, Note_on_c, 0, 71, 66
1, 106262, Note_off_c, 0, 66, 62
1, 106313, Note_off_c, 0, 69, 62
1, 106377, Note_on_c, 0, 57, 62
1, 106378, Note_off_c, 0, 73, 34
1, 106401, Note_off_c, 0, 63, 57
1, 106431, Note_off_c, 0, 57, 60
1, 106446, Note_off_c, 0, 64, 44
1, 106487, Note_on_c, 0, 78, 76
1, 106581, Note_on_c, 0, 40, 60
1, 106588, Control_c, 0, 64, 114
1, 106603, Control_c, 0, 64, 87
1, 106617, Control_c, 0, 64, 74
1, 106632, Control_c, 0, 64, 68
1, 106647, Control_c, 0, 64, 67
1, 106649, Note_off_c, 0, 71, 21
1, 106651, Note_on_c, 0, 63, 67
1, 106661, Control_c, 0, 64, 71
1, 106666, Note_on_c, 0, 47, 60
1, 106667, Note_off_c, 0, 40, 63
1, 106676, Control_c, 0, 64, 78
1, 106691, Control_c, 0, 64, 87
1, 106706, Note_off_c, 0, 63, 63
1, 106706, Control_c, 0, 64, 93
1, 106707, Note_off_c, 0, 78, 51
1, 106714, Note_on_c, 0, 71, 60
1, 106721, Control_c, 0, 64, 97
1, 106735, Control_c, 0, 64, 101
1, 106740, Note_off_c, 0, 47, 62
1, 106741, Note_on_c, 0, 56, 68
1, 106750, Control_c, 0, 64, 105
1, 106766, Control_c, 0, 64, 109
1, 106781, Control_c, 0, 64, 112
1, 106785, Note_on_c, 0, 76, 71
1, 106789, Note_off_c, 0, 71, 61
1, 106796, Control_c, 0, 64, 115
1, 106800, Note_off_c, 0, 56, 62
1, 106825, Note_off_c, 0, 76, 63
1, 106826, Control_c, 0, 64, 118
1, 106859, Note_on_c, 0, 76, 68
1, 106929, Note_on_c, 0, 64, 70
1, 106932, Note_on_c, 0, 83, 77
1, 107152, Control_c, 0, 64, 116
1, 107160, Note_on_c, 0, 71, 93
1, 107166, Control_c, 0, 64, 101
1, 107188, Control_c, 0, 64, 82
1, 107190, Note_on_c, 0, 88, 82
1, 107194, Note_on_c, 0, 68, 57
1, 107203, Control_c, 0, 64, 67
1, 107218, Control_c, 0, 64, 56
1, 107233, Control_c, 0, 64, 50
1, 107236, Note_off_c, 0, 64, 64
1, 107248, Control_c, 0, 64, 51
1, 107263, Control_c, 0, 64, 55
1, 107278, Control_c, 0, 64, 60
1, 107292, Control_c, 0, 64, 65
1, 107307, Control_c, 0, 64, 69
1, 107322, Control_c, 0, 64, 73
1, 107337, Control_c, 0, 64, 76
1, 107352, Control_c, 0, 64, 77
1, 107366, Control_c, 0, 64, 79
1, 107381, Control_c, 0, 64, 81
1, 107396, Control_c, 0, 64, 83
1, 107411, Control_c, 0, 64, 84
1, 107426, Control_c, 0, 64, 86
1, 107440, Control_c, 0, 64, 87
1, 107454, Note_on_c, 0, 61, 57
1, 107455, Control_c, 0, 64, 88
1, 107470, Control_c, 0, 64, 90
1, 107484, Control_c, 0, 64, 91
1, 107496, Note_off_c, 0, 71, 57
1, 107499, Control_c, 0, 64, 92
1, 107514, Control_c, 0, 64, 93
1, 107530, Control_c, 0, 64, 93
1, 107534, Note_off_c, 0, 68, 36
1, 107545, Control_c, 0, 64, 94
1, 107561, Control_c, 0, 64, 95
1, 107590, Control_c, 0, 64, 95
1, 107620, Control_c, 0, 64, 96
1, 107667, Note_on_c, 0, 71, 89
1, 107671, Note_off_c, 0, 76, 60
1, 107678, Note_on_c, 0, 68, 44
1, 107742, Note_off_c, 0, 61, 60
1, 107797, Control_c, 0, 64, 98
1, 107841, Note_off_c, 0, 88, 63
1, 107896, Note_on_c, 0, 87, 63
1, 107902, Note_on_c, 0, 59, 66
1, 107906, Note_off_c, 0, 83, 60
1, 107916, Note_on_c, 0, 75, 59
1, 107943, Note_off_c, 0, 71, 57
1, 107959, Note_off_c, 0, 68, 61
1, 107987, Note_off_c, 0, 87, 63
1, 108019, Note_off_c, 0, 75, 62
1, 108119, Note_on_c, 0, 85, 62
1, 108127, Note_on_c, 0, 69, 80
1, 108130, Control_c, 0, 64, 95
1, 108142, Note_on_c, 0, 81, 51
1, 108145, Note_on_c, 0, 73, 53
1, 108145, Control_c, 0, 64, 86
1, 108160, Control_c, 0, 64, 74
1, 108170, Note_on_c, 0, 64, 57
1, 108175, Control_c, 0, 64, 63
1, 108190, Control_c, 0, 64, 59
1, 108220, Control_c, 0, 64, 62
1, 108234, Control_c, 0, 64, 66
1, 108244, Note_off_c, 0, 73, 62
1, 108249, Control_c, 0, 64, 72
1, 108264, Control_c, 0, 64, 80
1, 108267, Note_off_c, 0, 85, 59
1, 108279, Control_c, 0, 64, 87
1, 108294, Control_c, 0, 64, 90
1, 108308, Control_c, 0, 64, 93
1, 108323, Note_off_c, 0, 81, 54
1, 108323, Control_c, 0, 64, 95
1, 108338, Control_c, 0, 64, 97
1, 108369, Control_c, 0, 64, 100
1, 108371, Note_on_c, 0, 68, 69
1, 108373, Note_on_c, 0, 83, 71
1, 108380, Note_on_c, 0, 71, 76
1, 108393, Note_off_c, 0, 59, 54
1, 108428, Control_c, 0, 64, 102
1, 108434, Note_off_c, 0, 71, 55
1, 108435, Note_off_c, 0, 69, 59
1, 108456, Note_off_c, 0, 64, 62
1, 108469, Note_off_c, 0, 83, 61
1, 108489, Note_off_c, 0, 68, 64
1, 108546, Control_c, 0, 64, 104
1, 108591, Control_c, 0, 64, 102
1, 108598, Note_on_c, 0, 66, 78
1, 108605, Control_c, 0, 64, 91
1, 108607, Note_on_c, 0, 85, 76
1, 108612, Note_on_c, 0, 81, 61
1, 108616, Note_on_c, 0, 73, 71
1, 108620, Control_c, 0, 64, 80
1, 108635, Control_c, 0, 64, 72
1, 108650, Control_c, 0, 64, 69
1, 108687, Control_c, 0, 64, 72
1, 108697, Note_on_c, 0, 64, 41
1, 108702, Control_c, 0, 64, 77
1, 108716, Note_off_c, 0, 66, 64
1, 108717, Control_c, 0, 64, 82
1, 108732, Control_c, 0, 64, 84
1, 108746, Control_c, 0, 64, 87
1, 108753, Note_off_c, 0, 73, 61
1, 108758, Note_off_c, 0, 64, 61
1, 108761, Control_c, 0, 64, 88
1, 108776, Control_c, 0, 64, 90
1, 108791, Control_c, 0, 64, 92
1, 108792, Note_on_c, 0, 57, 24
1, 108806, Control_c, 0, 64, 93
1, 108820, Control_c, 0, 64, 94
1, 108830, Note_off_c, 0, 57, 41
1, 108835, Control_c, 0, 64, 96
1, 108850, Control_c, 0, 64, 98
1, 108865, Control_c, 0, 64, 100
1, 108892, Note_on_c, 0, 90, 72
1, 108894, Control_c, 0, 64, 102
1, 108921, Note_on_c, 0, 78, 60
1, 108924, Control_c, 0, 64, 105
1, 108941, Note_on_c, 0, 40, 50
1, 108953, Control_c, 0, 64, 107
1, 108973, Note_off_c, 0, 90, 64
1, 108983, Control_c, 0, 64, 109
1, 108996, Note_off_c, 0, 78, 57
1, 109001, Note_off_c, 0, 81, 61
1, 109005, Note_off_c, 0, 40, 59
1, 109017, Note_off_c, 0, 85, 61
1, 109027, Control_c, 0, 64, 111
1, 109034, Note_on_c, 0, 47, 60
1, 109072, Note_off_c, 0, 47, 63
1, 109102, Note_on_c, 0, 56, 69
1, 109138, Note_off_c, 0, 56, 61
1, 109291, Note_on_c, 0, 85, 71
1, 109299, Note_on_c, 0, 68, 82
1, 109299, Note_on_c, 0, 80, 63
1, 109305, Note_on_c, 0, 73, 55
1, 109325, Control_c, 0, 64, 103
1, 109340, Control_c, 0, 64, 90
1, 109354, Control_c, 0, 64, 77
1, 109369, Control_c, 0, 64, 68
1, 109384, Control_c, 0, 64, 62
1, 109399, Control_c, 0, 64, 61
1, 109414, Control_c, 0, 64, 62
1, 109436, Control_c, 0, 64, 65
1, 109451, Control_c, 0, 64, 69
1, 109466, Control_c, 0, 64, 74
1, 109480, Control_c, 0, 64, 77
1, 109495, Control_c, 0, 64, 80
1, 109510, Control_c, 0, 64, 83
1, 109525, Control_c, 0, 64, 85
1, 109540, Control_c, 0, 64, 88
1, 109555, Control_c, 0, 64, 90
1, 109569, Control_c, 0, 64, 92
1, 109584, Control_c, 0, 64, 94
1, 109585, Note_on_c, 0, 61, 56
1, 109599, Control_c, 0, 64, 95
1, 109614, Control_c, 0, 64, 96
1, 109660, Note_off_c, 0, 68, 55
1, 109667, Note_off_c, 0, 61, 62
1, 109673, Control_c, 0, 64, 98
1, 109735, Note_off_c, 0, 73, 52
1, 109744, Note_off_c, 0, 85, 38
1, 109802, Note_on_c, 0, 64, 82
1, 110030, Note_on_c, 0, 84, 64
1, 110038, Note_on_c, 0, 56, 44
1, 110041, Note_on_c, 0, 72, 54
1, 110067, Note_off_c, 0, 64, 58
1, 110100, Note_off_c, 0, 56, 52
1, 110101, Note_off_c, 0, 80, 40
1, 110147, Note_off_c, 0, 72, 55
1, 110173, Note_off_c, 0, 84, 56
1, 110347, Control_c, 0, 64, 95
1, 110351, Note_on_c, 0, 83, 66
1, 110362, Control_c, 0, 64, 92
1, 110377, Control_c, 0, 64, 86
1, 110380, Note_on_c, 0, 78, 46
1, 110384, Note_on_c, 0, 66, 78
1, 110391, Control_c, 0, 64, 77
1, 110392, Note_on_c, 0, 64, 36
1, 110402, Note_on_c, 0, 57, 57
1, 110405, Note_on_c, 0, 71, 36
1, 110406, Control_c, 0, 64, 67
1, 110421, Control_c, 0, 64, 56
1, 110436, Control_c, 0, 64, 50
1, 110451, Control_c, 0, 64, 49
1, 110465, Control_c, 0, 64, 50
1, 110480, Control_c, 0, 64, 52
1, 110495, Control_c, 0, 64, 55
1, 110509, Control_c, 0, 64, 59
1, 110525, Control_c, 0, 64, 63
1, 110540, Control_c, 0, 64, 65
1, 110555, Control_c, 0, 64, 68
1, 110557, Note_off_c, 0, 71, 53
1, 110570, Control_c, 0, 64, 71
1, 110584, Control_c, 0, 64, 73
1, 110599, Control_c, 0, 64, 74
1, 110614, Control_c, 0, 64, 74
1, 110629, Control_c, 0, 64, 75
1, 110658, Control_c, 0, 64, 76
1, 110732, Control_c, 0, 67, 73
1, 110744, Note_on_c, 0, 82, 61
1, 110748, Control_c, 0, 67, 111
1, 110763, Control_c, 0, 64, 74
1, 110763, Control_c, 0, 67, 127
1, 110770, Note_on_c, 0, 61, 39
1, 110776, Note_on_c, 0, 70, 49
1, 110778, Control_c, 0, 64, 71
1, 110793, Control_c, 0, 64, 65
1, 110807, Control_c, 0, 64, 60
1, 110822, Control_c, 0, 64, 58
1, 110828, Note_off_c, 0, 64, 42
1, 110837, Control_c, 0, 64, 59
1, 110852, Control_c, 0, 64, 61
1, 110867, Control_c, 0, 64, 64
1, 110882, Control_c, 0, 64, 67
1, 110896, Control_c, 0, 64, 70
1, 110909, Note_off_c, 0, 78, 36
1, 110911, Control_c, 0, 64, 73
1, 110933, Control_c, 0, 64, 73
1, 110938, Note_off_c, 0, 70, 63
1, 110944, Note_off_c, 0, 82, 62
1, 110948, Control_c, 0, 64, 74
1, 111004, Note_off_c, 0, 83, 38
1, 111022, Control_c, 0, 64, 73
1, 111024, Note_on_c, 0, 78, 53
1, 111028, Note_on_c, 0, 81, 53
1, 111037, Control_c, 0, 64, 73
1, 111038, Note_on_c, 0, 69, 49
1, 111075, Note_off_c, 0, 57, 32
1, 111104, Note_off_c, 0, 69, 49
1, 111126, Control_c, 0, 64, 73
1, 111141, Control_c, 0, 64, 74
1, 111215, Control_c, 0, 64, 74
1, 111269, Note_on_c, 0, 63, 46
1, 111269, Note_off_c, 0, 81, 62
1, 111271, Note_on_c, 0, 83, 60
1, 111273, Note_on_c, 0, 71, 52
1, 111292, Note_off_c, 0, 66, 56
1, 111314, Note_off_c, 0, 61, 35
1, 111331, Note_off_c, 0, 71, 55
1, 111344, Note_off_c, 0, 78, 60
1, 111358, Note_off_c, 0, 63, 60
1, 111496, Control_c, 0, 64, 73
1, 111510, Control_c, 0, 64, 68
1, 111525, Control_c, 0, 64, 61
1, 111527, Note_on_c, 0, 80, 62
1, 111536, Note_on_c, 0, 68, 71
1, 111540, Control_c, 0, 64, 52
1, 111543, Note_off_c, 0, 83, 56
1, 111555, Control_c, 0, 64, 49
1, 111585, Control_c, 0, 64, 51
1, 111600, Control_c, 0, 64, 55
1, 111615, Control_c, 0, 64, 61
1, 111630, Control_c, 0, 64, 66
1, 111645, Control_c, 0, 64, 71
1, 111660, Control_c, 0, 64, 75
1, 111682, Control_c, 0, 64, 77
1, 111684, Note_off_c, 0, 80, 63
1, 111697, Control_c, 0, 64, 78
1, 111711, Control_c, 0, 64, 79
1, 111726, Control_c, 0, 64, 80
1, 111741, Control_c, 0, 64, 81
1, 111745, Note_off_c, 0, 68, 0
1, 111755, Control_c, 0, 64, 82
1, 111767, Note_on_c, 0, 68, 34
1, 111770, Control_c, 0, 64, 83
1, 111781, Note_on_c, 0, 66, 49
1, 111785, Control_c, 0, 64, 83
1, 111800, Control_c, 0, 64, 84
1, 111943, Note_off_c, 0, 66, 60
1, 112001, Note_on_c, 0, 70, 59
1, 112002, Note_on_c, 0, 56, 47
1, 112035, Note_off_c, 0, 68, 38
1, 112051, Control_c, 0, 64, 84
1, 112057, Note_off_c, 0, 56, 57
1, 112080, Control_c, 0, 64, 85
1, 112095, Control_c, 0, 64, 85
1, 112125, Control_c, 0, 64, 86
1, 112214, Note_off_c, 0, 70, 37
1, 112221, Note_on_c, 0, 68, 67
1, 112246, Note_on_c, 0, 71, 50
1, 112250, Note_on_c, 0, 50, 42
1, 112329, Note_off_c, 0, 50, 47
1, 112393, Note_off_c, 0, 71, 33
1, 112452, Note_on_c, 0, 51, 28
1, 112459, Control_c, 0, 64, 81
1, 112462, Note_on_c, 0, 44, 49
1, 112470, Note_on_c, 0, 66, 70
1, 112472, Note_on_c, 0, 72, 57
1, 112474, Control_c, 0, 64, 74
1, 112484, Note_off_c, 0, 68, 56
1, 112489, Control_c, 0, 64, 65
1, 112503, Control_c, 0, 64, 59
1, 112518, Control_c, 0, 64, 58
1, 112533, Control_c, 0, 64, 60
1, 112548, Control_c, 0, 64, 64
1, 112549, Note_off_c, 0, 44, 62
1, 112563, Control_c, 0, 64, 69
1, 112571, Note_off_c, 0, 51, 57
1, 112578, Control_c, 0, 64, 74
1, 112593, Control_c, 0, 64, 77
1, 112607, Control_c, 0, 64, 78
1, 112622, Control_c, 0, 64, 79
1, 112652, Control_c, 0, 64, 80
1, 112667, Control_c, 0, 64, 80
1, 112695, Note_off_c, 0, 72, 57
1, 112700, Note_on_c, 0, 69, 68
1, 112703, Note_on_c, 0, 54, 44
1, 112707, Note_on_c, 0, 73, 63
1, 112726, Control_c, 0, 64, 81
1, 112756, Note_off_c, 0, 66, 59
1, 112918, Control_c, 0, 64, 80
1, 112920, Note_off_c, 0, 73, 56
1, 112933, Control_c, 0, 64, 76
1, 112943, Note_on_c, 0, 68, 75
1, 112948, Control_c, 0, 64, 68
1, 112955, Note_on_c, 0, 64, 49
1, 112961, Note_off_c, 0, 69, 51
1, 112963, Control_c, 0, 64, 58
1, 112977, Note_on_c, 0, 56, 37
1, 112977, Control_c, 0, 64, 44
1, 112992, Control_c, 0, 64, 40
1, 113007, Control_c, 0, 64, 41
1, 113022, Control_c, 0, 64, 45
1, 113037, Control_c, 0, 64, 52
1, 113052, Control_c, 0, 64, 59
1, 113067, Control_c, 0, 64, 63
1, 113081, Control_c, 0, 64, 66
1, 113096, Control_c, 0, 64, 67
1, 113111, Control_c, 0, 64, 69
1, 113126, Control_c, 0, 64, 71
1, 113141, Control_c, 0, 64, 73
1, 113156, Control_c, 0, 64, 74
1, 113166, Note_off_c, 0, 54, 39
1, 113178, Note_on_c, 0, 75, 53
1, 113179, Control_c, 0, 64, 75
1, 113183, Note_off_c, 0, 64, 56
1, 113186, Note_on_c, 0, 60, 44
1, 113194, Control_c, 0, 64, 76
1, 113223, Control_c, 0, 64, 76
1, 113248, Note_off_c, 0, 60, 55
1, 113266, Note_off_c, 0, 68, 56
1, 113268, Control_c, 0, 64, 77
1, 113273, Note_off_c, 0, 56, 34
1, 113425, Note_on_c, 0, 76, 55
1, 113443, Note_on_c, 0, 61, 68
1, 113445, Control_c, 0, 64, 75
1, 113460, Control_c, 0, 64, 70
1, 113466, Note_off_c, 0, 75, 32
1, 113475, Control_c, 0, 64, 62
1, 113490, Control_c, 0, 64, 50
1, 113505, Control_c, 0, 64, 48
1, 113520, Control_c, 0, 64, 48
1, 113534, Control_c, 0, 64, 51
1, 113549, Control_c, 0, 64, 56
1, 113564, Control_c, 0, 64, 61
1, 113579, Control_c, 0, 64, 64
1, 113594, Control_c, 0, 64, 67
1, 113608, Control_c, 0, 64, 69
1, 113623, Control_c, 0, 64, 70
1, 113638, Control_c, 0, 64, 71
1, 113652, Control_c, 0, 64, 73
1, 113666, Note_on_c, 0, 68, 46
1, 113667, Control_c, 0, 64, 74
1, 113673, Note_on_c, 0, 49, 39
1, 113682, Control_c, 0, 64, 75
1, 113684, Note_on_c, 0, 64, 37
1, 113697, Control_c, 0, 64, 76
1, 113700, Note_off_c, 0, 61, 59
1, 113712, Control_c, 0, 64, 77
1, 113726, Control_c, 0, 64, 77
1, 113741, Control_c, 0, 64, 78
1, 113756, Control_c, 0, 64, 78
1, 113771, Control_c, 0, 64, 79
1, 113815, Control_c, 0, 64, 79
1, 113827, Note_off_c, 0, 64, 43
1, 113842, Note_off_c, 0, 49, 33
1, 113893, Note_off_c, 0, 76, 41
1, 113902, Note_on_c, 0, 61, 63
1, 113902, Note_on_c, 0, 70, 54
1, 113985, Note_off_c, 0, 61, 59
1, 114016, Note_off_c, 0, 68, 39
1, 114142, Note_on_c, 0, 71, 37
1, 114169, Note_on_c, 0, 64, 41
1, 114171, Note_off_c, 0, 70, 23
1, 114176, Note_on_c, 0, 56, 36
1, 114234, Note_off_c, 0, 56, 42
1, 114272, Note_off_c, 0, 64, 61
1, 114283, Control_c, 0, 64, 79
1, 114345, Note_off_c, 0, 71, 33
1, 114387, Control_c, 0, 64, 78
1, 114417, Control_c, 0, 64, 78
1, 114432, Control_c, 0, 64, 77
1, 114447, Control_c, 0, 64, 77
1, 114462, Control_c, 0, 64, 76
1, 114471, Note_on_c, 0, 72, 30
1, 114476, Control_c, 0, 64, 76
1, 114485, Note_on_c, 0, 68, 63
1, 114491, Control_c, 0, 64, 75
1, 114506, Control_c, 0, 64, 75
1, 114521, Control_c, 0, 64, 74
1, 114536, Control_c, 0, 64, 74
1, 114550, Control_c, 0, 64, 73
1, 114565, Control_c, 0, 64, 72
1, 114580, Control_c, 0, 64, 71
1, 114595, Control_c, 0, 64, 70
1, 114610, Control_c, 0, 64, 69
1, 114624, Control_c, 0, 64, 68
1, 114639, Control_c, 0, 64, 67
1, 114654, Control_c, 0, 64, 67
1, 114676, Control_c, 0, 64, 66
1, 114691, Control_c, 0, 64, 66
1, 114706, Control_c, 0, 64, 65
1, 114721, Control_c, 0, 64, 65
1, 114766, Control_c, 0, 64, 64
1, 114810, Control_c, 0, 64, 64
1, 114862, Note_on_c, 0, 64, 35
1, 114863, Note_on_c, 0, 75, 36
1, 114870, Control_c, 0, 64, 63
1, 114914, Control_c, 0, 64, 63
1, 114959, Control_c, 0, 64, 62
1, 115018, Control_c, 0, 64, 62
1, 115047, Control_c, 0, 64, 61
1, 115062, Control_c, 0, 64, 61
1, 115077, Control_c, 0, 64, 60
1, 115092, Control_c, 0, 64, 60
1, 115106, Control_c, 0, 64, 59
1, 115121, Control_c, 0, 64, 59
1, 115136, Note_on_c, 0, 73, 38
1, 115136, Control_c, 0, 64, 58
1, 115151, Control_c, 0, 64, 58
1, 115162, Note_off_c, 0, 72, 38
1, 115166, Control_c, 0, 64, 57
1, 115180, Control_c, 0, 64, 57
1, 115195, Control_c, 0, 64, 56
1, 115210, Control_c, 0, 64, 56
1, 115225, Control_c, 0, 64, 55
1, 115254, Control_c, 0, 64, 55
1, 115269, Control_c, 0, 64, 54
1, 115284, Control_c, 0, 64, 54
1, 115314, Control_c, 0, 64, 53
1, 115359, Control_c, 0, 64, 53
1, 115491, Note_on_c, 0, 76, 42
1, 115544, Control_c, 0, 64, 52
1, 115581, Note_off_c, 0, 75, 36
1, 115582, Note_off_c, 0, 73, 36
1, 115633, Control_c, 0, 64, 52
1, 115822, Note_off_c, 0, 64, 38
1, 115846, Note_off_c, 0, 76, 34
1, 115855, Control_c, 0, 64, 51
1, 116262, Control_c, 0, 64, 52
1, 116292, Control_c, 0, 64, 52
1, 116307, Control_c, 0, 64, 53
1, 116322, Control_c, 0, 64, 53
1, 116337, Control_c, 0, 64, 54
1, 116352, Control_c, 0, 64, 55
1, 116367, Control_c, 0, 64, 56
1, 116382, Control_c, 0, 64, 56
1, 116397, Control_c, 0, 64, 57
1, 116412, Control_c, 0, 64, 57
1, 116426, Control_c, 0, 64, 58
1, 116441, Control_c, 0, 64, 58
1, 116446, Note_on_c, 0, 66, 36
1, 116456, Control_c, 0, 64, 59
1, 116471, Control_c, 0, 64, 59
1, 116486, Control_c, 0, 64, 60
1, 116501, Control_c, 0, 64, 60
1, 116515, Control_c, 0, 64, 61
1, 116544, Control_c, 0, 64, 61
1, 116559, Control_c, 0, 64, 62
1, 116574, Control_c, 0, 64, 62
1, 116618, Control_c, 0, 64, 63
1, 116681, Note_on_c, 0, 73, 41
1, 116707, Note_on_c, 0, 64, 36
1, 116722, Control_c, 0, 64, 63
1, 116867, Note_off_c, 0, 68, 33
1, 116933, Note_on_c, 0, 63, 44
1, 116944, Note_on_c, 0, 71, 48
1, 116951, Control_c, 0, 64, 64
1, 117011, Control_c, 0, 64, 64
1, 117025, Control_c, 0, 64, 65
1, 117040, Control_c, 0, 64, 65
1, 117055, Control_c, 0, 64, 66
1, 117070, Control_c, 0, 64, 68
1, 117085, Control_c, 0, 64, 69
1, 117100, Control_c, 0, 64, 69
1, 117115, Control_c, 0, 64, 70
1, 117145, Control_c, 0, 64, 71
1, 117174, Control_c, 0, 64, 71
1, 117219, Note_on_c, 0, 69, 50
1, 117222, Note_off_c, 0, 73, 33
1, 117231, Note_on_c, 0, 61, 39
1, 117260, Note_off_c, 0, 71, 59
1, 117264, Control_c, 0, 64, 72
1, 117293, Control_c, 0, 64, 72
1, 117307, Note_off_c, 0, 66, 20
1, 117317, Note_off_c, 0, 63, 35
1, 117321, Note_off_c, 0, 64, 45
1, 117323, Control_c, 0, 64, 73
1, 117338, Control_c, 0, 64, 73
1, 117353, Control_c, 0, 64, 74
1, 117368, Control_c, 0, 64, 74
1, 117381, Note_off_c, 0, 61, 59
1, 117383, Control_c, 0, 64, 75
1, 117413, Control_c, 0, 64, 75
1, 117457, Control_c, 0, 64, 76
1, 117530, Note_on_c, 0, 68, 49
1, 117535, Note_on_c, 0, 70, 51
1, 117544, Note_on_c, 0, 62, 48
1, 117553, Note_off_c, 0, 69, 38
1, 117575, Control_c, 0, 64, 75
1, 117590, Control_c, 0, 64, 74
1, 117605, Control_c, 0, 64, 71
1, 117620, Control_c, 0, 64, 68
1, 117635, Control_c, 0, 64, 64
1, 117649, Control_c, 0, 64, 62
1, 117672, Control_c, 0, 64, 61
1, 117701, Control_c, 0, 64, 62
1, 117716, Control_c, 0, 64, 62
1, 117731, Control_c, 0, 64, 63
1, 117746, Control_c, 0, 64, 65
1, 117761, Control_c, 0, 64, 67
1, 117775, Control_c, 0, 64, 71
1, 117790, Control_c, 0, 64, 73
1, 117803, Note_on_c, 0, 56, 42
1, 117805, Control_c, 0, 64, 75
1, 117819, Control_c, 0, 64, 76
1, 117824, Note_off_c, 0, 62, 32
1, 117834, Control_c, 0, 64, 77
1, 117849, Control_c, 0, 64, 78
1, 117864, Control_c, 0, 64, 79
1, 117879, Control_c, 0, 64, 81
1, 117893, Control_c, 0, 64, 82
1, 117908, Control_c, 0, 64, 83
1, 117923, Control_c, 0, 64, 84
1, 117938, Control_c, 0, 64, 85
1, 117954, Control_c, 0, 64, 85
1, 117969, Control_c, 0, 64, 86
1, 117984, Control_c, 0, 64, 86
1, 117998, Control_c, 0, 64, 87
1, 118028, Control_c, 0, 64, 87
1, 118046, Note_on_c, 0, 46, 40
1, 118048, Note_on_c, 0, 58, 43
1, 118069, Note_off_c, 0, 56, 33
1, 118087, Control_c, 0, 64, 88
1, 118131, Control_c, 0, 64, 88
1, 118139, Note_off_c, 0, 58, 62
1, 118161, Control_c, 0, 64, 89
1, 118162, Note_off_c, 0, 46, 60
1, 118197, Note_off_c, 0, 70, 47
1, 118203, Note_off_c, 0, 68, 50
1, 118381, Note_on_c, 0, 39, 48
1, 118387, Note_on_c, 0, 63, 39
1, 118398, Control_c, 0, 64, 88
1, 118420, Control_c, 0, 64, 86
1, 118435, Control_c, 0, 64, 82
1, 118450, Control_c, 0, 64, 77
1, 118465, Control_c, 0, 64, 72
1, 118480, Control_c, 0, 64, 66
1, 118495, Control_c, 0, 64, 61
1, 118510, Control_c, 0, 64, 58
1, 118539, Control_c, 0, 64, 59
1, 118554, Control_c, 0, 64, 60
1, 118569, Control_c, 0, 64, 61
1, 118584, Control_c, 0, 64, 63
1, 118598, Control_c, 0, 64, 65
1, 118613, Control_c, 0, 64, 68
1, 118626, Note_on_c, 0, 70, 52
1, 118628, Control_c, 0, 64, 71
1, 118640, Note_off_c, 0, 39, 53
1, 118643, Control_c, 0, 64, 73
1, 118657, Note_on_c, 0, 46, 43
1, 118657, Control_c, 0, 64, 75
1, 118664, Note_on_c, 0, 56, 41
1, 118672, Control_c, 0, 64, 77
1, 118680, Note_off_c, 0, 63, 57
1, 118687, Control_c, 0, 64, 78
1, 118702, Control_c, 0, 64, 80
1, 118716, Control_c, 0, 64, 81
1, 118728, Poly_aftertouch_c, 0, 67, 127
1, 118731, Control_c, 0, 64, 82
1, 118747, Control_c, 0, 64, 83
1, 118762, Control_c, 0, 64, 84
1, 118777, Control_c, 0, 64, 84
1, 118820, Note_off_c, 0, 46, 37
1, 118821, Control_c, 0, 64, 85
1, 118840, Note_on_c, 0, 75, 59
1, 118840, Poly_aftertouch_c, 0, 67, 0
1, 118858, Note_off_c, 0, 70, 36
1, 118899, Note_off_c, 0, 56, 61
1, 119059, Note_on_c, 0, 70, 60
1, 119094, Note_on_c, 0, 55, 41
1, 119135, Note_off_c, 0, 70, 63
1, 119149, Note_off_c, 0, 75, 60
1, 119218, Note_off_c, 0, 55, 37
1, 119309, Note_on_c, 0, 68, 58
1, 119317, Control_c, 0, 64, 84
1, 119320, Note_on_c, 0, 75, 54
1, 119329, Note_on_c, 0, 58, 49
1, 119332, Control_c, 0, 64, 82
1, 119347, Control_c, 0, 64, 76
1, 119362, Control_c, 0, 64, 69
1, 119377, Control_c, 0, 64, 62
1, 119391, Control_c, 0, 64, 58
1, 119406, Control_c, 0, 64, 59
1, 119421, Control_c, 0, 64, 61
1, 119436, Control_c, 0, 64, 64
1, 119451, Control_c, 0, 64, 67
1, 119464, Note_off_c, 0, 68, 50
1, 119466, Control_c, 0, 64, 71
1, 119480, Control_c, 0, 64, 75
1, 119495, Control_c, 0, 64, 77
1, 119510, Control_c, 0, 64, 78
1, 119525, Control_c, 0, 64, 79
1, 119541, Control_c, 0, 64, 80
1, 119552, Note_on_c, 0, 82, 55
1, 119556, Control_c, 0, 64, 81
1, 119562, Note_off_c, 0, 75, 61
1, 119565, Note_off_c, 0, 58, 60
1, 119567, Note_on_c, 0, 67, 51
1, 119570, Control_c, 0, 64, 81
1, 119585, Control_c, 0, 64, 82
1, 119600, Control_c, 0, 64, 82
1, 119613, Note_off_c, 0, 67, 57
1, 119644, Control_c, 0, 64, 83
1, 119837, Note_on_c, 0, 87, 49
1, 119863, Note_on_c, 0, 80, 39
1, 119918, Control_c, 0, 64, 82
1, 119933, Control_c, 0, 64, 79
1, 119940, Note_on_c, 0, 75, 74
1, 119948, Control_c, 0, 64, 73
1, 119963, Control_c, 0, 64, 65
1, 119977, Control_c, 0, 64, 59
1, 119992, Control_c, 0, 64, 56
1, 120007, Control_c, 0, 64, 56
1, 120021, Control_c, 0, 64, 58
1, 120036, Control_c, 0, 64, 62
1, 120051, Control_c, 0, 64, 65
1, 120066, Control_c, 0, 64, 71
1, 120081, Control_c, 0, 64, 77
1, 120095, Control_c, 0, 64, 81
1, 120110, Control_c, 0, 64, 83
1, 120125, Control_c, 0, 64, 85
1, 120140, Control_c, 0, 64, 86
1, 120155, Note_off_c, 0, 87, 25
1, 120155, Control_c, 0, 64, 88
1, 120170, Control_c, 0, 64, 89
1, 120185, Control_c, 0, 64, 90
1, 120185, Note_off_c, 0, 75, 62
1, 120214, Control_c, 0, 64, 91
1, 120230, Note_on_c, 0, 79, 33
1, 120260, Note_off_c, 0, 80, 64
1, 120260, Note_off_c, 0, 82, 42
1, 120286, Note_off_c, 0, 79, 60
1, 120383, Note_on_c, 0, 63, 37
1, 120444, Note_off_c, 0, 63, 50
1, 120520, Note_on_c, 0, 67, 43
1, 120671, Note_on_c, 0, 70, 47
1, 120743, Note_off_c, 0, 67, 37
1, 120817, Note_on_c, 0, 64, 47
1, 120836, Note_off_c, 0, 70, 42
1, 120848, Note_on_c, 0, 75, 73
1, 120974, Note_on_c, 0, 68, 39
1, 121021, Note_off_c, 0, 64, 37
1, 121096, Note_off_c, 0, 68, 35
1, 121110, Note_on_c, 0, 71, 36
1, 121164, Note_off_c, 0, 71, 48
1, 121172, Control_c, 0, 64, 90
1, 121213, Note_on_c, 0, 65, 45
1, 121231, Control_c, 0, 67, 106
1, 121246, Control_c, 0, 67, 70
1, 121260, Control_c, 0, 67, 0
1, 121333, Note_on_c, 0, 69, 51
1, 121338, Note_off_c, 0, 65, 53
1, 121355, Note_off_c, 0, 75, 47
1, 121425, Note_on_c, 0, 73, 52
1, 121462, Note_off_c, 0, 69, 38
1, 121505, Control_c, 0, 64, 90
1, 121505, Note_off_c, 0, 73, 61
1, 121520, Control_c, 0, 64, 86
1, 121535, Control_c, 0, 64, 79
1, 121549, Control_c, 0, 64, 72
1, 121560, Note_on_c, 0, 75, 82
1, 121562, Note_on_c, 0, 66, 47
1, 121564, Control_c, 0, 64, 69
1, 121594, Control_c, 0, 64, 69
1, 121605, Note_off_c, 0, 75, 64
1, 121609, Control_c, 0, 64, 71
1, 121623, Control_c, 0, 64, 74
1, 121638, Control_c, 0, 64, 76
1, 121653, Control_c, 0, 64, 78
1, 121667, Control_c, 0, 64, 80
1, 121682, Control_c, 0, 64, 82
1, 121697, Control_c, 0, 64, 84
1, 121703, Note_off_c, 0, 66, 47
1, 121710, Note_on_c, 0, 70, 55
1, 121712, Control_c, 0, 64, 87
1, 121727, Control_c, 0, 64, 90
1, 121741, Control_c, 0, 64, 93
1, 121756, Control_c, 0, 64, 97
1, 121771, Control_c, 0, 64, 99
1, 121786, Control_c, 0, 64, 101
1, 121801, Control_c, 0, 64, 103
1, 121812, Note_on_c, 0, 75, 52
1, 121830, Control_c, 0, 64, 105
1, 121863, Note_off_c, 0, 70, 38
1, 121890, Control_c, 0, 64, 107
1, 121921, Note_on_c, 0, 67, 48
1, 121960, Note_off_c, 0, 75, 30
1, 122015, Note_on_c, 0, 71, 52
1, 122042, Note_off_c, 0, 67, 53
1, 122115, Note_on_c, 0, 76, 51
1, 122184, Note_off_c, 0, 71, 53
1, 122218, Note_off_c, 0, 76, 55
1, 122236, Note_on_c, 0, 68, 57
1, 122242, Note_on_c, 0, 75, 78
1, 122269, Control_c, 0, 64, 93
1, 122283, Control_c, 0, 64, 80
1, 122298, Control_c, 0, 64, 69
1, 122313, Control_c, 0, 64, 62
1, 122328, Control_c, 0, 64, 59
1, 122343, Control_c, 0, 64, 60
1, 122358, Control_c, 0, 64, 62
1, 122365, Note_on_c, 0, 72, 53
1, 122372, Control_c, 0, 64, 66
1, 122387, Control_c, 0, 64, 70
1, 122398, Note_off_c, 0, 68, 56
1, 122402, Control_c, 0, 64, 75
1, 122416, Control_c, 0, 64, 77
1, 122431, Control_c, 0, 64, 78
1, 122446, Control_c, 0, 64, 79
1, 122461, Control_c, 0, 64, 79
1, 122467, Note_on_c, 0, 77, 53
1, 122471, Note_off_c, 0, 75, 59
1, 122476, Control_c, 0, 64, 80
1, 122490, Control_c, 0, 64, 80
1, 122505, Control_c, 0, 64, 81
1, 122520, Control_c, 0, 64, 82
1, 122534, Note_off_c, 0, 72, 54
1, 122535, Control_c, 0, 64, 82
1, 122550, Control_c, 0, 64, 83
1, 122556, Note_off_c, 0, 77, 55
1, 122564, Control_c, 0, 64, 84
1, 122579, Control_c, 0, 64, 85
1, 122593, Note_on_c, 0, 75, 70
1, 122594, Note_on_c, 0, 69, 54
1, 122608, Control_c, 0, 64, 83
1, 122623, Control_c, 0, 64, 77
1, 122638, Control_c, 0, 64, 68
1, 122653, Control_c, 0, 64, 60
1, 122668, Control_c, 0, 64, 57
1, 122683, Control_c, 0, 64, 58
1, 122698, Control_c, 0, 64, 61
1, 122713, Control_c, 0, 64, 64
1, 122728, Control_c, 0, 64, 67
1, 122743, Note_on_c, 0, 73, 52
1, 122743, Control_c, 0, 64, 70
1, 122748, Note_off_c, 0, 69, 53
1, 122758, Control_c, 0, 64, 73
1, 122773, Control_c, 0, 64, 75
1, 122787, Control_c, 0, 64, 76
1, 122802, Control_c, 0, 64, 76
1, 122811, Note_off_c, 0, 75, 60
1, 122817, Control_c, 0, 64, 77
1, 122832, Control_c, 0, 64, 78
1, 122847, Control_c, 0, 64, 78
1, 122862, Control_c, 0, 64, 79
1, 122890, Note_on_c, 0, 78, 51
1, 122892, Control_c, 0, 64, 80
1, 122928, Control_c, 0, 64, 80
1, 122943, Control_c, 0, 64, 81
1, 122958, Control_c, 0, 64, 82
1, 122958, Control_c, 0, 67, 53
1, 122964, Note_off_c, 0, 73, 0
1, 122973, Control_c, 0, 67, 72
1, 122987, Control_c, 0, 67, 98
1, 122998, Note_on_c, 0, 75, 66
1, 123001, Poly_aftertouch_c, 0, 73, 127
1, 123002, Control_c, 0, 64, 81
1, 123002, Control_c, 0, 67, 122
1, 123017, Control_c, 0, 64, 78
1, 123017, Control_c, 0, 67, 127
1, 123025, Note_on_c, 0, 70, 53
1, 123032, Control_c, 0, 64, 70
1, 123039, Note_off_c, 0, 78, 53
1, 123047, Poly_aftertouch_c, 0, 73, 0
1, 123047, Control_c, 0, 64, 63
1, 123061, Control_c, 0, 64, 58
1, 123091, Control_c, 0, 64, 59
1, 123106, Control_c, 0, 64, 62
1, 123121, Control_c, 0, 64, 65
1, 123136, Control_c, 0, 64, 69
1, 123151, Control_c, 0, 64, 73
1, 123166, Control_c, 0, 64, 75
1, 123172, Note_on_c, 0, 74, 52
1, 123181, Control_c, 0, 64, 75
1, 123187, Note_off_c, 0, 75, 61
1, 123195, Control_c, 0, 64, 76
1, 123198, Note_off_c, 0, 70, 61
1, 123210, Control_c, 0, 64, 77
1, 123225, Control_c, 0, 64, 77
1, 123239, Control_c, 0, 64, 78
1, 123254, Control_c, 0, 64, 78
1, 123318, Note_on_c, 0, 79, 51
1, 123434, Note_off_c, 0, 74, 35
1, 123450, Note_off_c, 0, 79, 54
1, 123483, Note_on_c, 0, 71, 63
1, 123707, Control_c, 0, 64, 77
1, 123722, Control_c, 0, 64, 73
1, 123736, Control_c, 0, 64, 64
1, 123751, Control_c, 0, 64, 55
1, 123759, Note_on_c, 0, 75, 73
1, 123766, Control_c, 0, 64, 51
1, 123783, Note_off_c, 0, 71, 39
1, 123796, Control_c, 0, 64, 53
1, 123810, Control_c, 0, 64, 57
1, 123825, Control_c, 0, 64, 62
1, 123840, Control_c, 0, 64, 66
1, 123855, Control_c, 0, 64, 70
1, 123869, Control_c, 0, 64, 74
1, 123884, Control_c, 0, 64, 76
1, 123899, Control_c, 0, 64, 78
1, 123914, Control_c, 0, 64, 79
1, 123929, Control_c, 0, 64, 81
1, 123944, Control_c, 0, 64, 82
1, 123959, Control_c, 0, 64, 83
1, 123964, Note_on_c, 0, 87, 42
1, 123971, Note_on_c, 0, 71, 38
1, 123988, Control_c, 0, 64, 83
1, 124030, Note_off_c, 0, 71, 41
1, 124058, Note_off_c, 0, 75, 51
1, 124064, Note_on_c, 0, 80, 45
1, 124114, Note_on_c, 0, 63, 35
1, 124155, Note_off_c, 0, 63, 47
1, 124179, Note_on_c, 0, 82, 47
1, 124183, Note_off_c, 0, 87, 32
1, 124219, Note_on_c, 0, 56, 45
1, 124227, Note_off_c, 0, 80, 55
1, 124231, Note_off_c, 0, 82, 57
1, 124290, Note_off_c, 0, 56, 54
1, 124295, Note_on_c, 0, 75, 50
1, 124325, Note_on_c, 0, 63, 39
1, 124346, Note_off_c, 0, 75, 47
1, 124389, Note_on_c, 0, 80, 47
1, 124448, Note_on_c, 0, 71, 44
1, 124509, Note_on_c, 0, 70, 55
1, 124517, Note_off_c, 0, 71, 60
1, 124646, Note_on_c, 0, 75, 60
1, 124648, Note_off_c, 0, 63, 34
1, 124745, Note_on_c, 0, 71, 61
1, 124796, Note_off_c, 0, 70, 36
1, 124837, Note_off_c, 0, 80, 36
1, 124859, Note_on_c, 0, 68, 69
1, 124885, Note_off_c, 0, 71, 57
1, 125005, Note_on_c, 0, 59, 51
1, 125033, Control_c, 0, 64, 83
1, 125053, Note_off_c, 0, 75, 52
1, 125114, Note_on_c, 0, 63, 63
1, 125143, Note_off_c, 0, 68, 52
1, 125210, Note_off_c, 0, 59, 37
1, 125234, Control_c, 0, 64, 81
1, 125249, Control_c, 0, 64, 77
1, 125264, Control_c, 0, 64, 71
1, 125265, Note_on_c, 0, 68, 73
1, 125279, Control_c, 0, 64, 65
1, 125294, Control_c, 0, 64, 61
1, 125308, Control_c, 0, 64, 59
1, 125323, Control_c, 0, 64, 60
1, 125338, Control_c, 0, 64, 61
1, 125353, Control_c, 0, 64, 63
1, 125368, Control_c, 0, 64, 66
1, 125382, Control_c, 0, 64, 68
1, 125397, Control_c, 0, 64, 71
1, 125402, Note_on_c, 0, 80, 49
1, 125412, Control_c, 0, 64, 72
1, 125413, Note_off_c, 0, 63, 59
1, 125427, Control_c, 0, 64, 73
1, 125441, Control_c, 0, 64, 74
1, 125471, Control_c, 0, 64, 75
1, 125486, Control_c, 0, 64, 75
1, 125498, Note_on_c, 0, 75, 59
1, 125553, Note_off_c, 0, 68, 60
1, 125561, Note_off_c, 0, 80, 52
1, 125629, Note_on_c, 0, 67, 58
1, 125694, Note_off_c, 0, 75, 62
1, 125750, Note_on_c, 0, 71, 56
1, 125753, Note_off_c, 0, 67, 53
1, 125843, Note_on_c, 0, 63, 59
1, 125867, Note_off_c, 0, 71, 54
1, 125886, Control_c, 0, 64, 75
1, 125908, Control_c, 0, 64, 71
1, 125923, Control_c, 0, 64, 65
1, 125938, Control_c, 0, 64, 60
1, 125953, Control_c, 0, 64, 59
1, 125960, Note_on_c, 0, 68, 63
1, 125968, Control_c, 0, 64, 59
1, 125983, Control_c, 0, 64, 61
1, 125998, Control_c, 0, 64, 64
1, 126013, Control_c, 0, 64, 67
1, 126027, Control_c, 0, 64, 72
1, 126042, Control_c, 0, 64, 76
1, 126052, Note_off_c, 0, 63, 62
1, 126057, Control_c, 0, 64, 77
1, 126058, Note_on_c, 0, 75, 60
1, 126072, Control_c, 0, 64, 78
1, 126087, Control_c, 0, 64, 78
1, 126102, Control_c, 0, 64, 79
1, 126117, Control_c, 0, 64, 79
1, 126146, Control_c, 0, 64, 80
1, 126175, Note_on_c, 0, 63, 59
1, 126247, Note_off_c, 0, 75, 51
1, 126259, Note_off_c, 0, 63, 62
1, 126287, Note_on_c, 0, 59, 42
1, 126326, Note_off_c, 0, 68, 57
1, 126394, Note_on_c, 0, 51, 60
1, 126395, Note_off_c, 0, 59, 59
1, 126427, Control_c, 0, 64, 80
1, 126457, Control_c, 0, 64, 81
1, 126472, Control_c, 0, 64, 82
1, 126487, Control_c, 0, 64, 83
1, 126499, Note_on_c, 0, 44, 51
1, 126501, Control_c, 0, 64, 84
1, 126516, Control_c, 0, 64, 84
1, 126575, Control_c, 0, 64, 85
1, 126580, Note_off_c, 0, 44, 62
1, 126590, Control_c, 0, 64, 85
1, 126590, Control_c, 0, 67, 98
1, 126605, Control_c, 0, 64, 86
1, 126605, Control_c, 0, 67, 64
1, 126609, Note_on_c, 0, 75, 72
1, 126620, Control_c, 0, 64, 86
1, 126620, Control_c, 0, 67, 0
1, 126628, Note_off_c, 0, 51, 59
1, 126635, Control_c, 0, 64, 87
1, 126656, Control_c, 0, 64, 88
1, 126671, Control_c, 0, 64, 89
1, 126686, Control_c, 0, 64, 89
1, 126701, Control_c, 0, 64, 90
1, 126716, Control_c, 0, 64, 91
1, 126732, Control_c, 0, 64, 92
1, 126747, Control_c, 0, 64, 93
1, 126758, Note_on_c, 0, 83, 54
1, 126761, Control_c, 0, 64, 93
1, 126776, Control_c, 0, 64, 94
1, 126805, Control_c, 0, 64, 94
1, 126853, Note_on_c, 0, 71, 66
1, 126875, Note_off_c, 0, 75, 61
1, 126902, Note_off_c, 0, 71, 59
1, 126935, Note_off_c, 0, 83, 55
1, 126948, Note_on_c, 0, 76, 74
1, 127085, Note_on_c, 0, 72, 58
1, 127160, Note_off_c, 0, 76, 51
1, 127201, Note_on_c, 0, 67, 54
1, 127234, Note_off_c, 0, 72, 51
1, 127235, Control_c, 0, 64, 94
1, 127343, Note_on_c, 0, 75, 74
1, 127354, Control_c, 0, 64, 93
1, 127369, Control_c, 0, 64, 89
1, 127384, Control_c, 0, 64, 82
1, 127405, Control_c, 0, 64, 75
1, 127420, Control_c, 0, 64, 69
1, 127433, Note_off_c, 0, 67, 35
1, 127435, Control_c, 0, 64, 64
1, 127450, Control_c, 0, 64, 63
1, 127479, Control_c, 0, 64, 64
1, 127485, Note_on_c, 0, 80, 53
1, 127494, Control_c, 0, 64, 65
1, 127509, Control_c, 0, 64, 66
1, 127524, Control_c, 0, 64, 67
1, 127540, Control_c, 0, 64, 69
1, 127540, Control_c, 0, 67, 45
1, 127555, Control_c, 0, 64, 72
1, 127555, Control_c, 0, 67, 61
1, 127570, Control_c, 0, 64, 74
1, 127570, Control_c, 0, 67, 87
1, 127584, Control_c, 0, 64, 76
1, 127584, Control_c, 0, 67, 115
1, 127587, Note_on_c, 0, 70, 60
1, 127599, Control_c, 0, 64, 76
1, 127599, Control_c, 0, 67, 127
1, 127614, Control_c, 0, 64, 77
1, 127628, Control_c, 0, 64, 78
1, 127643, Control_c, 0, 64, 78
1, 127658, Control_c, 0, 64, 79
1, 127673, Control_c, 0, 64, 80
1, 127688, Control_c, 0, 64, 80
1, 127700, Note_off_c, 0, 80, 56
1, 127705, Note_on_c, 0, 71, 52
1, 127711, Note_off_c, 0, 70, 59
1, 127718, Control_c, 0, 64, 81
1, 127747, Control_c, 0, 64, 81
1, 127757, Note_off_c, 0, 75, 61
1, 127792, Control_c, 0, 64, 82
1, 127803, Note_on_c, 0, 63, 61
1, 127807, Control_c, 0, 64, 82
1, 127813, Note_off_c, 0, 71, 58
1, 127836, Control_c, 0, 64, 83
1, 127851, Control_c, 0, 64, 83
1, 127866, Control_c, 0, 64, 84
1, 127907, Note_on_c, 0, 56, 59
1, 127910, Control_c, 0, 64, 83
1, 127910, Control_c, 0, 67, 124
1, 127925, Control_c, 0, 64, 78
1, 127925, Control_c, 0, 67, 98
1, 127940, Control_c, 0, 64, 69
1, 127940, Control_c, 0, 67, 68
1, 127954, Control_c, 0, 64, 61
1, 127954, Control_c, 0, 67, 39
1, 127969, Control_c, 0, 64, 57
1, 127969, Control_c, 0, 67, 0
1, 127999, Control_c, 0, 64, 59
1, 128012, Note_on_c, 0, 73, 74
1, 128014, Control_c, 0, 64, 62
1, 128028, Control_c, 0, 64, 66
1, 128029, Note_off_c, 0, 56, 61
1, 128043, Control_c, 0, 64, 70
1, 128058, Control_c, 0, 64, 74
1, 128073, Control_c, 0, 64, 77
1, 128087, Note_off_c, 0, 63, 60
1, 128088, Control_c, 0, 64, 79
1, 128102, Control_c, 0, 64, 80
1, 128117, Control_c, 0, 64, 81
1, 128132, Control_c, 0, 64, 83
1, 128136, Note_on_c, 0, 80, 60
1, 128154, Control_c, 0, 64, 84
1, 128169, Control_c, 0, 64, 85
1, 128184, Control_c, 0, 64, 85
1, 128199, Control_c, 0, 64, 86
1, 128228, Control_c, 0, 64, 86
1, 128233, Note_on_c, 0, 71, 64
1, 128290, Note_off_c, 0, 73, 61
1, 128294, Note_off_c, 0, 80, 60
1, 128296, Note_off_c, 0, 71, 63
1, 128302, Control_c, 0, 64, 87
1, 128339, Note_on_c, 0, 75, 78
1, 128449, Note_on_c, 0, 70, 67
1, 128466, Control_c, 0, 67, 39
1, 128481, Control_c, 0, 67, 46
1, 128496, Control_c, 0, 67, 51
1, 128511, Control_c, 0, 67, 58
1, 128525, Control_c, 0, 64, 86
1, 128525, Control_c, 0, 67, 66
1, 128534, Note_off_c, 0, 75, 54
1, 128540, Control_c, 0, 67, 77
1, 128555, Control_c, 0, 67, 93
1, 128563, Note_on_c, 0, 64, 55
1, 128570, Control_c, 0, 67, 110
1, 128585, Control_c, 0, 67, 127
1, 128682, Note_off_c, 0, 70, 38
1, 128701, Note_on_c, 0, 73, 71
1, 128704, Control_c, 0, 64, 84
1, 128719, Control_c, 0, 64, 77
1, 128733, Control_c, 0, 64, 68
1, 128748, Control_c, 0, 64, 61
1, 128763, Control_c, 0, 64, 57
1, 128777, Control_c, 0, 64, 56
1, 128791, Note_off_c, 0, 64, 59
1, 128792, Control_c, 0, 64, 57
1, 128807, Control_c, 0, 64, 60
1, 128817, Note_on_c, 0, 76, 53
1, 128822, Control_c, 0, 64, 63
1, 128837, Control_c, 0, 64, 65
1, 128851, Control_c, 0, 64, 68
1, 128866, Control_c, 0, 64, 70
1, 128881, Control_c, 0, 64, 72
1, 128904, Control_c, 0, 64, 74
1, 128919, Control_c, 0, 64, 76
1, 128926, Note_on_c, 0, 69, 56
1, 128933, Control_c, 0, 64, 77
1, 128948, Control_c, 0, 64, 77
1, 128963, Control_c, 0, 64, 78
1, 128977, Control_c, 0, 64, 78
1, 128992, Control_c, 0, 64, 79
1, 129007, Control_c, 0, 64, 79
1, 129024, Note_on_c, 0, 70, 66
1, 129073, Note_off_c, 0, 76, 51
1, 129098, Note_off_c, 0, 69, 48
1, 129134, Note_on_c, 0, 64, 57
1, 129135, Note_off_c, 0, 70, 59
1, 129196, Note_off_c, 0, 64, 61
1, 129214, Note_on_c, 0, 61, 63
1, 129311, Note_off_c, 0, 73, 37
1, 129318, Note_on_c, 0, 63, 74
1, 129319, Control_c, 0, 64, 80
1, 129360, Note_off_c, 0, 61, 56
1, 129378, Control_c, 0, 67, 122
1, 129393, Control_c, 0, 67, 110
1, 129408, Control_c, 0, 67, 102
1, 129411, Note_on_c, 0, 65, 66
1, 129423, Control_c, 0, 67, 97
1, 129438, Control_c, 0, 67, 92
1, 129453, Control_c, 0, 67, 86
1, 129467, Control_c, 0, 67, 80
1, 129482, Control_c, 0, 67, 71
1, 129497, Control_c, 0, 67, 62
1, 129503, Note_off_c, 0, 65, 63
1, 129506, Note_on_c, 0, 66, 74
1, 129512, Control_c, 0, 67, 51
1, 129527, Control_c, 0, 64, 80
1, 129527, Control_c, 0, 67, 40
1, 129542, Control_c, 0, 67, 0
1, 129551, Note_off_c, 0, 63, 35
1, 129556, Control_c, 0, 64, 81
1, 129571, Control_c, 0, 64, 81
1, 129586, Control_c, 0, 64, 82
1, 129600, Control_c, 0, 64, 83
1, 129614, Note_on_c, 0, 68, 68
1, 129614, Note_on_c, 0, 71, 77
1, 129615, Control_c, 0, 64, 82
1, 129616, Note_on_c, 0, 67, 65
1, 129630, Control_c, 0, 64, 80
1, 129652, Control_c, 0, 64, 74
1, 129656, Note_off_c, 0, 66, 50
1, 129667, Control_c, 0, 64, 68
1, 129682, Control_c, 0, 64, 63
1, 129697, Control_c, 0, 64, 62
1, 129712, Control_c, 0, 64, 63
1, 129716, Note_on_c, 0, 62, 68
1, 129726, Control_c, 0, 64, 67
1, 129727, Note_off_c, 0, 67, 57
1, 129741, Control_c, 0, 64, 73
1, 129756, Control_c, 0, 64, 81
1, 129771, Control_c, 0, 64, 86
1, 129786, Control_c, 0, 64, 89
1, 129801, Control_c, 0, 64, 93
1, 129815, Control_c, 0, 64, 97
1, 129823, Note_off_c, 0, 62, 63
1, 129825, Note_on_c, 0, 63, 76
1, 129830, Control_c, 0, 64, 104
1, 129845, Control_c, 0, 64, 110
1, 129860, Control_c, 0, 64, 120
1, 129867, Note_off_c, 0, 68, 55
1, 129875, Control_c, 0, 64, 127
1, 129900, Note_off_c, 0, 63, 59
1, 129914, Note_on_c, 0, 66, 77
1, 129996, Note_on_c, 0, 61, 64
1, 130034, Note_off_c, 0, 66, 49
1, 130093, Note_on_c, 0, 62, 67
1, 130123, Note_off_c, 0, 61, 62
1, 130162, Note_off_c, 0, 62, 62
1, 130168, Note_on_c, 0, 75, 78
1, 130186, Note_off_c, 0, 71, 56
1, 130198, Note_on_c, 0, 65, 71
1, 130219, Note_off_c, 0, 75, 63
1, 130278, Note_off_c, 0, 65, 60
1, 130287, Note_on_c, 0, 58, 76
1, 130346, Note_off_c, 0, 58, 63
1, 130390, Note_on_c, 0, 59, 70
1, 130524, Note_on_c, 0, 60, 65
1, 130528, Note_off_c, 0, 59, 61
1, 130529, Note_on_c, 0, 39, 73
1, 130530, Note_on_c, 0, 70, 79
1, 130550, Control_c, 0, 64, 93
1, 130564, Control_c, 0, 64, 75
1, 130579, Control_c, 0, 64, 65
1, 130594, Control_c, 0, 64, 63
1, 130609, Control_c, 0, 64, 63
1, 130624, Note_on_c, 0, 46, 65
1, 130624, Control_c, 0, 64, 67
1, 130639, Control_c, 0, 64, 76
1, 130640, Note_on_c, 0, 61, 63
1, 130654, Control_c, 0, 64, 84
1, 130663, Note_off_c, 0, 39, 61
1, 130663, Note_off_c, 0, 60, 62
1, 130669, Control_c, 0, 64, 89
1, 130684, Control_c, 0, 64, 91
1, 130690, Note_off_c, 0, 46, 61
1, 130695, Note_off_c, 0, 70, 38
1, 130699, Control_c, 0, 64, 93
1, 130705, Note_off_c, 0, 61, 62
1, 130713, Control_c, 0, 64, 94
1, 130719, Note_on_c, 0, 53, 61
1, 130728, Control_c, 0, 64, 95
1, 130734, Note_on_c, 0, 62, 65
1, 130761, Note_off_c, 0, 53, 62
1, 130826, Note_off_c, 0, 62, 52
1, 130828, Note_on_c, 0, 71, 81
1, 130832, Control_c, 0, 64, 97
1, 130836, Note_on_c, 0, 63, 72
1, 130838, Note_on_c, 0, 56, 64
1, 130898, Note_off_c, 0, 63, 61
1, 130921, Note_on_c, 0, 64, 64
1, 130936, Note_on_c, 0, 61, 71
1, 130943, Note_off_c, 0, 56, 62
1, 130955, Note_off_c, 0, 71, 38
1, 130958, Note_off_c, 0, 64, 64
1, 130993, Note_on_c, 0, 65, 73
1, 131000, Note_off_c, 0, 61, 62
1, 131009, Control_c, 0, 64, 99
1, 131023, Note_on_c, 0, 62, 66
1, 131039, Control_c, 0, 64, 104
1, 131053, Control_c, 0, 64, 108
1, 131068, Control_c, 0, 64, 114
1, 131098, Note_on_c, 0, 70, 86
1, 131104, Note_on_c, 0, 51, 80
1, 131111, Note_off_c, 0, 62, 51
1, 131113, Control_c, 0, 64, 102
1, 131128, Control_c, 0, 64, 83
1, 131150, Control_c, 0, 64, 65
1, 131165, Note_off_c, 0, 65, 57
1, 131165, Control_c, 0, 64, 57
1, 131179, Control_c, 0, 64, 55
1, 131194, Control_c, 0, 64, 58
1, 131209, Control_c, 0, 64, 63
1, 131211, Note_on_c, 0, 61, 70
1, 131213, Note_on_c, 0, 66, 82
1, 131224, Control_c, 0, 64, 70
1, 131239, Control_c, 0, 64, 78
1, 131240, Note_off_c, 0, 70, 60
1, 131253, Control_c, 0, 64, 84
1, 131268, Control_c, 0, 64, 86
1, 131283, Control_c, 0, 64, 89
1, 131285, Note_off_c, 0, 61, 63
1, 131296, Note_off_c, 0, 51, 59
1, 131298, Control_c, 0, 64, 93
1, 131299, Note_on_c, 0, 60, 70
1, 131313, Control_c, 0, 64, 98
1, 131319, Note_off_c, 0, 66, 51
1, 131326, Note_on_c, 0, 74, 88
1, 131328, Control_c, 0, 64, 104
1, 131342, Control_c, 0, 64, 110
1, 131357, Control_c, 0, 64, 127
1, 131380, Note_off_c, 0, 60, 57
1, 131394, Note_on_c, 0, 61, 74
1, 131422, Note_on_c, 0, 71, 82
1, 131444, Note_off_c, 0, 74, 61
1, 131514, Note_on_c, 0, 62, 65
1, 131518, Note_off_c, 0, 71, 61
1, 131528, Note_on_c, 0, 67, 79
1, 131563, Note_off_c, 0, 61, 62
1, 131577, Note_on_c, 0, 63, 35
1, 131581, Note_off_c, 0, 62, 62
1, 131608, Note_off_c, 0, 63, 49
1, 131653, Note_on_c, 0, 75, 88
1, 131679, Note_off_c, 0, 67, 61
1, 131730, Note_on_c, 0, 44, 75
1, 131788, Control_c, 0, 64, 106
1, 131791, Note_on_c, 0, 51, 76
1, 131802, Control_c, 0, 64, 73
1, 131817, Control_c, 0, 64, 54
1, 131832, Control_c, 0, 64, 38
1, 131847, Control_c, 0, 64, 39
1, 131862, Control_c, 0, 64, 50
1, 131876, Control_c, 0, 64, 63
1, 131888, Note_off_c, 0, 44, 63
1, 131897, Note_on_c, 0, 68, 89
1, 131898, Note_on_c, 0, 59, 65
1, 131899, Control_c, 0, 64, 77
1, 131914, Control_c, 0, 64, 98
1, 131926, Note_off_c, 0, 51, 61
1, 131929, Control_c, 0, 64, 127
1, 131986, Note_off_c, 0, 59, 63
1, 132015, Note_off_c, 0, 68, 60
1, 132027, Note_off_c, 0, 75, 60
1, 132073, Note_on_c, 0, 63, 72
1, 132082, Note_on_c, 0, 71, 75
1, 132177, Note_on_c, 0, 68, 82
1, 132186, Note_on_c, 0, 75, 81
1, 132201, Note_off_c, 0, 71, 60
1, 132217, Note_off_c, 0, 63, 61
1, 132248, Note_off_c, 0, 68, 61
1, 132255, Note_on_c, 0, 71, 75
1, 132264, Note_on_c, 0, 80, 84
1, 132287, Note_off_c, 0, 75, 64
1, 132302, Note_off_c, 0, 71, 63
1, 132318, Note_off_c, 0, 80, 67
1, 132354, Note_on_c, 0, 76, 86
1, 132354, Note_on_c, 0, 83, 90
1, 132426, Note_on_c, 0, 75, 83
1, 132433, Note_on_c, 0, 87, 92
1, 132449, Note_on_c, 0, 74, 82
1, 132477, Note_off_c, 0, 83, 59
1, 132510, Note_off_c, 0, 76, 60
1, 132513, Note_on_c, 0, 88, 91
1, 132523, Note_on_c, 0, 73, 16
1, 132547, Note_off_c, 0, 87, 65
1, 132564, Note_off_c, 0, 74, 58
1, 132586, Note_off_c, 0, 75, 64
1, 132610, Note_on_c, 0, 84, 88
1, 132610, Note_off_c, 0, 88, 66
1, 132614, Note_on_c, 0, 74, 40
1, 132616, Note_on_c, 0, 80, 82
1, 132630, Note_off_c, 0, 73, 50
1, 132639, Note_off_c, 0, 74, 54
1, 132695, Note_off_c, 0, 80, 60
1, 132708, Note_on_c, 0, 96, 100
1, 132717, Note_on_c, 0, 76, 80
1, 132745, Note_off_c, 0, 84, 61
1, 132778, Note_on_c, 0, 94, 40
1, 132795, Note_on_c, 0, 87, 91
1, 132796, Control_c, 0, 64, 84
1, 132808, Note_off_c, 0, 94, 61
1, 132809, Note_on_c, 0, 74, 74
1, 132811, Control_c, 0, 64, 64
1, 132825, Note_off_c, 0, 76, 56
1, 132825, Control_c, 0, 64, 56
1, 132840, Control_c, 0, 64, 58
1, 132848, Note_off_c, 0, 96, 60
1, 132855, Control_c, 0, 64, 66
1, 132870, Note_on_c, 0, 83, 94
1, 132870, Control_c, 0, 64, 84
1, 132885, Control_c, 0, 64, 127
1, 132889, Note_on_c, 0, 79, 74
1, 132895, Note_off_c, 0, 87, 67
1, 132896, Note_off_c, 0, 74, 64
1, 132949, Note_on_c, 0, 95, 90
1, 132953, Note_off_c, 0, 79, 55
1, 132958, Note_on_c, 0, 75, 65
1, 132976, Note_off_c, 0, 83, 59
1, 133024, Note_on_c, 0, 86, 89
1, 133029, Note_on_c, 0, 72, 84
1, 133033, Note_off_c, 0, 95, 67
1, 133039, Note_off_c, 0, 75, 65
1, 133095, Note_on_c, 0, 82, 92
1, 133101, Note_off_c, 0, 86, 64
1, 133113, Note_on_c, 0, 78, 75
1, 133141, Note_off_c, 0, 72, 59
1, 133168, Note_on_c, 0, 74, 77
1, 133178, Note_off_c, 0, 78, 62
1, 133181, Note_on_c, 0, 94, 94
1, 133235, Note_off_c, 0, 82, 58
1, 133242, Note_on_c, 0, 85, 84
1, 133244, Note_on_c, 0, 71, 83
1, 133270, Note_off_c, 0, 74, 63
1, 133307, Note_off_c, 0, 94, 58
1, 133324, Note_on_c, 0, 77, 77
1, 133325, Note_on_c, 0, 81, 86
1, 133333, Note_off_c, 0, 71, 61
1, 133338, Note_off_c, 0, 85, 62
1, 133387, Note_on_c, 0, 73, 71
1, 133406, Note_on_c, 0, 93, 82
1, 133414, Note_off_c, 0, 81, 61
1, 133416, Note_off_c, 0, 77, 49
1, 133468, Note_on_c, 0, 70, 81
1, 133471, Note_on_c, 0, 84, 82
1, 133480, Note_off_c, 0, 93, 63
1, 133488, Note_off_c, 0, 73, 61
1, 133550, Note_off_c, 0, 84, 58
1, 133553, Note_on_c, 0, 80, 80
1, 133554, Note_on_c, 0, 76, 70
1, 133563, Note_off_c, 0, 70, 61
1, 133615, Note_on_c, 0, 72, 65
1, 133626, Note_on_c, 0, 92, 79
1, 133653, Note_off_c, 0, 76, 62
1, 133665, Note_off_c, 0, 80, 61
1, 133699, Note_off_c, 0, 72, 60
1, 133700, Note_on_c, 0, 71, 64
1, 133709, Note_on_c, 0, 83, 74
1, 133757, Note_off_c, 0, 92, 62
1, 133788, Note_on_c, 0, 79, 71
1, 133808, Note_on_c, 0, 75, 61
1, 133831, Note_off_c, 0, 83, 57
1, 133876, Note_off_c, 0, 71, 34
1, 133912, Note_off_c, 0, 79, 58
1, 133919, Note_off_c, 0, 75, 62
1, 133921, Note_on_c, 0, 91, 85
1, 133972, Note_off_c, 0, 91, 66
1, 134159, Note_on_c, 0, 75, 89
1, 134176, Control_c, 0, 64, 94
1, 134191, Control_c, 0, 64, 74
1, 134205, Control_c, 0, 64, 65
1, 134220, Control_c, 0, 64, 63
1, 134235, Control_c, 0, 64, 65
1, 134250, Control_c, 0, 64, 72
1, 134262, Note_on_c, 0, 71, 52
1, 134265, Control_c, 0, 64, 84
1, 134279, Control_c, 0, 64, 99
1, 134286, Note_on_c, 0, 82, 74
1, 134294, Control_c, 0, 64, 105
1, 134309, Control_c, 0, 64, 113
1, 134316, Note_off_c, 0, 75, 56
1, 134323, Control_c, 0, 64, 127
1, 134353, Note_on_c, 0, 63, 56
1, 134353, Note_off_c, 0, 71, 60
1, 134373, Note_on_c, 0, 75, 59
1, 134404, Note_off_c, 0, 82, 60
1, 134431, Note_on_c, 0, 59, 56
1, 134449, Note_off_c, 0, 63, 60
1, 134452, Note_on_c, 0, 80, 72
1, 134471, Note_off_c, 0, 59, 65
1, 134505, Note_off_c, 0, 75, 65
1, 134514, Note_off_c, 0, 80, 64
1, 134538, Note_on_c, 0, 70, 74
1, 134560, Note_on_c, 0, 63, 45
1, 134567, Note_off_c, 0, 70, 58
1, 134603, Note_on_c, 0, 75, 88
1, 134605, Note_off_c, 0, 63, 58
1, 134608, Note_on_c, 0, 59, 62
1, 134675, Note_off_c, 0, 59, 64
1, 134681, Note_on_c, 0, 68, 80
1, 134684, Note_on_c, 0, 51, 65
1, 134696, Note_off_c, 0, 75, 61
1, 134729, Note_off_c, 0, 51, 61
1, 134762, Note_on_c, 0, 75, 77
1, 134791, Note_on_c, 0, 59, 46
1, 134818, Note_off_c, 0, 68, 58
1, 134830, Note_on_c, 0, 63, 80
1, 134831, Note_off_c, 0, 75, 62
1, 134833, Note_off_c, 0, 59, 61
1, 134837, Note_on_c, 0, 51, 70
1, 134883, Note_off_c, 0, 63, 63
1, 134929, Note_on_c, 0, 68, 91
1, 134948, Note_off_c, 0, 51, 58
1, 134952, Note_on_c, 0, 44, 68
1, 135024, Note_on_c, 0, 59, 81
1, 135029, Note_on_c, 0, 43, 25
1, 135065, Note_on_c, 0, 51, 62
1, 135072, Note_off_c, 0, 43, 38
1, 135072, Note_off_c, 0, 44, 58
1, 135095, Note_off_c, 0, 51, 63
1, 135100, Note_on_c, 0, 56, 64
1, 135105, Note_on_c, 0, 63, 82
1, 135117, Note_off_c, 0, 59, 61
1, 135125, Note_off_c, 0, 68, 57
1, 135175, Note_off_c, 0, 56, 59
1, 135206, Note_on_c, 0, 68, 96
1, 135213, Note_on_c, 0, 42, 80
1, 135219, Note_off_c, 0, 63, 58
1, 135235, Control_c, 0, 64, 76
1, 135250, Control_c, 0, 64, 57
1, 135265, Control_c, 0, 64, 48
1, 135277, Note_on_c, 0, 66, 27
1, 135280, Control_c, 0, 64, 53
1, 135294, Control_c, 0, 64, 64
1, 135298, Poly_aftertouch_c, 0, 44, 127
1, 135307, Note_on_c, 0, 60, 75
1, 135309, Control_c, 0, 64, 81
1, 135322, Note_on_c, 0, 51, 67
1, 135324, Control_c, 0, 64, 127
1, 135336, Poly_aftertouch_c, 0, 44, 0
1, 135375, Note_off_c, 0, 42, 61
1, 135401, Note_on_c, 0, 63, 73
1, 135409, Note_off_c, 0, 68, 57
1, 135414, Note_off_c, 0, 60, 63
1, 135415, Note_off_c, 0, 66, 44
1, 135429, Note_off_c, 0, 63, 63
1, 135435, Note_on_c, 0, 56, 67
1, 135460, Note_off_c, 0, 51, 60
1, 135501, Note_on_c, 0, 67, 95
1, 135507, Note_on_c, 0, 59, 81
1, 135528, Note_off_c, 0, 56, 57
1, 135580, Note_off_c, 0, 59, 57
1, 135603, Note_on_c, 0, 51, 67
1, 135614, Note_on_c, 0, 62, 73
1, 135714, Note_on_c, 0, 56, 70
1, 135714, Note_on_c, 0, 63, 89
1, 135721, Note_off_c, 0, 67, 62
1, 135724, Note_off_c, 0, 62, 62
1, 135751, Note_off_c, 0, 51, 52
1, 135754, Note_off_c, 0, 63, 67
1, 135814, Note_off_c, 0, 56, 63
1, 135831, Note_on_c, 0, 68, 94
1, 135835, Note_on_c, 0, 60, 63
1, 135888, Note_off_c, 0, 60, 60
1, 135953, Note_on_c, 0, 63, 73
1, 135953, Note_on_c, 0, 72, 87
1, 135995, Note_off_c, 0, 68, 53
1, 136059, Note_on_c, 0, 76, 84
1, 136070, Note_off_c, 0, 63, 63
1, 136076, Note_off_c, 0, 72, 59
1, 136082, Note_on_c, 0, 67, 86
1, 136122, Note_off_c, 0, 76, 61
1, 136224, Note_on_c, 0, 68, 86
1, 136230, Note_on_c, 0, 75, 95
1, 136259, Note_off_c, 0, 67, 60
1, 136376, Note_on_c, 0, 78, 89
1, 136396, Note_on_c, 0, 70, 87
1, 136404, Note_off_c, 0, 68, 61
1, 136427, Note_off_c, 0, 70, 68
1, 136500, Note_off_c, 0, 75, 49
1, 136568, Note_off_c, 0, 78, 54
1, 136653, Note_on_c, 0, 79, 96
1, 136663, Note_on_c, 0, 71, 79
1, 136703, Control_c, 0, 64, 97
1, 136717, Control_c, 0, 64, 68
1, 136733, Control_c, 0, 64, 49
1, 136748, Control_c, 0, 64, 39
1, 136763, Control_c, 0, 64, 44
1, 136778, Control_c, 0, 64, 56
1, 136792, Control_c, 0, 64, 66
1, 136807, Control_c, 0, 64, 78
1, 136822, Control_c, 0, 64, 93
1, 136837, Control_c, 0, 64, 99
1, 136852, Control_c, 0, 64, 102
1, 136866, Control_c, 0, 64, 108
1, 136881, Control_c, 0, 64, 127
1, 136884, Note_on_c, 0, 28, 90
1, 136885, Note_on_c, 0, 40, 79
1, 137030, Note_off_c, 0, 28, 62
1, 137097, Note_off_c, 0, 40, 62
1, 137119, Note_off_c, 0, 79, 55
1, 137203, Note_off_c, 0, 71, 48
1, 137309, Note_on_c, 0, 48, 63
1, 137389, Note_on_c, 0, 54, 62
1, 137403, Note_off_c, 0, 48, 60
1, 137413, Note_on_c, 0, 56, 71
1, 137455, Note_on_c, 0, 58, 75
1, 137507, Note_on_c, 0, 60, 62
1, 137510, Note_off_c, 0, 54, 57
1, 137526, Note_on_c, 0, 64, 69
1, 137531, Note_off_c, 0, 56, 61
1, 137544, Note_off_c, 0, 58, 62
1, 137561, Note_off_c, 0, 60, 62
1, 137578, Note_on_c, 0, 68, 79
1, 137637, Note_on_c, 0, 70, 84
1, 137637, Note_off_c, 0, 64, 61
1, 137681, Note_on_c, 0, 72, 79
1, 137695, Note_off_c, 0, 68, 60
1, 137726, Note_on_c, 0, 76, 81
1, 137763, Note_off_c, 0, 70, 56
1, 137781, Note_on_c, 0, 80, 98
1, 137828, Note_off_c, 0, 80, 60
1, 137888, Control_c, 0, 67, 49
1, 137903, Control_c, 0, 67, 85
1, 137918, Control_c, 0, 67, 127
1, 138000, Note_off_c, 0, 76, 58
1, 138038, Note_off_c, 0, 72, 51
1, 138408, Note_on_c, 0, 64, 55
1, 138411, Note_on_c, 0, 56, 50
1, 138482, Note_off_c, 0, 56, 60
1, 138498, Note_off_c, 0, 64, 62
1, 138529, Note_on_c, 0, 60, 45
1, 138538, Note_on_c, 0, 68, 52
1, 138557, Note_off_c, 0, 60, 64
1, 138616, Note_on_c, 0, 70, 66
1, 138642, Note_off_c, 0, 68, 61
1, 138672, Note_on_c, 0, 66, 58
1, 138673, Note_off_c, 0, 70, 60
1, 138737, Note_on_c, 0, 72, 53
1, 138768, Note_on_c, 0, 68, 56
1, 138834, Note_on_c, 0, 76, 63
1, 138843, Note_off_c, 0, 72, 59
1, 138875, Note_on_c, 0, 70, 58
1, 138905, Control_c, 0, 64, 99
1, 138919, Control_c, 0, 64, 86
1, 138934, Control_c, 0, 64, 76
1, 138949, Control_c, 0, 64, 70
1, 138964, Control_c, 0, 64, 65
1, 138972, Note_on_c, 0, 80, 64
1, 138979, Control_c, 0, 64, 64
1, 138985, Note_on_c, 0, 72, 45
1, 138993, Control_c, 0, 64, 65
1, 139008, Control_c, 0, 64, 66
1, 139023, Control_c, 0, 64, 66
1, 139038, Control_c, 0, 64, 67
1, 139053, Control_c, 0, 64, 69
1, 139067, Control_c, 0, 64, 71
1, 139082, Control_c, 0, 64, 75
1, 139095, Note_off_c, 0, 76, 51
1, 139097, Control_c, 0, 64, 78
1, 139111, Control_c, 0, 64, 80
1, 139126, Control_c, 0, 64, 82
1, 139141, Control_c, 0, 64, 83
1, 139143, Note_off_c, 0, 66, 55
1, 139156, Control_c, 0, 64, 85
1, 139171, Control_c, 0, 64, 86
1, 139176, Note_off_c, 0, 70, 34
1, 139182, Note_off_c, 0, 68, 34
1, 139185, Control_c, 0, 64, 88
1, 139200, Control_c, 0, 64, 89
1, 139215, Control_c, 0, 64, 91
1, 139230, Control_c, 0, 64, 92
1, 139260, Control_c, 0, 64, 92
1, 139354, Note_off_c, 0, 72, 27
1, 139391, Note_off_c, 0, 80, 39
1, 139464, Note_on_c, 0, 60, 50
1, 139474, Control_c, 0, 64, 92
1, 139489, Control_c, 0, 64, 88
1, 139504, Control_c, 0, 64, 80
1, 139520, Control_c, 0, 64, 71
1, 139534, Control_c, 0, 64, 65
1, 139549, Control_c, 0, 64, 64
1, 139564, Control_c, 0, 64, 65
1, 139579, Control_c, 0, 64, 67
1, 139594, Control_c, 0, 64, 72
1, 139608, Control_c, 0, 64, 78
1, 139617, Note_on_c, 0, 64, 53
1, 139623, Control_c, 0, 64, 84
1, 139638, Control_c, 0, 64, 87
1, 139650, Note_off_c, 0, 60, 55
1, 139653, Control_c, 0, 64, 89
1, 139668, Control_c, 0, 64, 91
1, 139680, Note_on_c, 0, 66, 58
1, 139683, Control_c, 0, 64, 92
1, 139698, Control_c, 0, 64, 94
1, 139713, Control_c, 0, 64, 95
1, 139728, Note_off_c, 0, 64, 61
1, 139728, Control_c, 0, 64, 96
1, 139736, Note_on_c, 0, 68, 53
1, 139744, Note_on_c, 0, 70, 56
1, 139753, Note_off_c, 0, 66, 60
1, 139774, Note_off_c, 0, 68, 59
1, 139792, Note_off_c, 0, 70, 63
1, 139805, Note_on_c, 0, 72, 52
1, 139835, Note_on_c, 0, 74, 58
1, 139893, Note_on_c, 0, 76, 68
1, 139901, Note_off_c, 0, 72, 58
1, 139929, Note_off_c, 0, 74, 63
1, 139945, Note_off_c, 0, 76, 64
1, 139966, Note_on_c, 0, 78, 52
1, 140008, Note_on_c, 0, 80, 59
1, 140019, Note_off_c, 0, 78, 48
1, 140049, Note_off_c, 0, 80, 62
1, 140065, Note_on_c, 0, 82, 55
1, 140087, Note_on_c, 0, 84, 56
1, 140136, Note_on_c, 0, 86, 58
1, 140146, Note_off_c, 0, 82, 59
1, 140204, Note_on_c, 0, 88, 62
1, 140208, Note_off_c, 0, 84, 57
1, 140233, Note_on_c, 0, 72, 49
1, 140233, Note_off_c, 0, 86, 57
1, 140258, Note_off_c, 0, 88, 60
1, 140268, Control_c, 0, 64, 95
1, 140283, Control_c, 0, 64, 93
1, 140285, Note_on_c, 0, 76, 51
1, 140298, Control_c, 0, 64, 86
1, 140314, Control_c, 0, 64, 76
1, 140329, Control_c, 0, 64, 68
1, 140344, Control_c, 0, 64, 66
1, 140346, Note_on_c, 0, 78, 55
1, 140358, Control_c, 0, 64, 66
1, 140373, Control_c, 0, 64, 69
1, 140388, Control_c, 0, 64, 74
1, 140391, Note_off_c, 0, 72, 35
1, 140398, Note_off_c, 0, 76, 52
1, 140403, Control_c, 0, 64, 80
1, 140407, Note_on_c, 0, 82, 51
1, 140418, Control_c, 0, 64, 83
1, 140419, Note_on_c, 0, 80, 46
1, 140428, Note_off_c, 0, 78, 58
1, 140432, Control_c, 0, 64, 84
1, 140454, Note_off_c, 0, 80, 63
1, 140456, Note_off_c, 0, 82, 62
1, 140486, Note_on_c, 0, 84, 46
1, 140506, Note_on_c, 0, 86, 61
1, 140556, Note_off_c, 0, 84, 39
1, 140562, Note_on_c, 0, 88, 66
1, 140605, Note_off_c, 0, 86, 61
1, 140614, Note_off_c, 0, 88, 61
1, 140640, Control_c, 0, 64, 84
1, 140643, Note_on_c, 0, 90, 42
1, 140655, Control_c, 0, 64, 83
1, 140670, Control_c, 0, 64, 82
1, 140684, Control_c, 0, 64, 81
1, 140692, Note_on_c, 0, 92, 53
1, 140699, Control_c, 0, 64, 80
1, 140714, Control_c, 0, 64, 78
1, 140729, Control_c, 0, 64, 75
1, 140744, Control_c, 0, 64, 72
1, 140758, Control_c, 0, 64, 69
1, 140762, Note_on_c, 0, 94, 52
1, 140773, Control_c, 0, 64, 67
1, 140779, Note_off_c, 0, 90, 34
1, 140788, Control_c, 0, 64, 66
1, 140825, Note_on_c, 0, 96, 55
1, 140846, Note_off_c, 0, 92, 58
1, 140847, Control_c, 0, 64, 65
1, 140866, Note_off_c, 0, 94, 59
1, 140899, Control_c, 0, 64, 65
1, 140944, Note_on_c, 0, 98, 57
1, 141045, Note_off_c, 0, 96, 33
1, 141101, Note_off_c, 0, 98, 36
1, 141107, Control_c, 0, 64, 64
1, 141167, Control_c, 0, 64, 64
1, 141196, Control_c, 0, 64, 63
1, 141210, Note_on_c, 0, 102, 50
1, 141211, Control_c, 0, 64, 63
1, 141240, Control_c, 0, 64, 62
1, 141284, Control_c, 0, 64, 62
1, 141314, Control_c, 0, 64, 61
1, 141373, Control_c, 0, 64, 61
1, 141477, Control_c, 0, 64, 60
1, 141551, Control_c, 0, 64, 60
1, 141583, Note_on_c, 0, 104, 48
1, 141595, Control_c, 0, 64, 59
1, 141647, Control_c, 0, 64, 59
1, 141662, Control_c, 0, 64, 58
1, 141692, Control_c, 0, 64, 58
1, 141721, Control_c, 0, 64, 57
1, 141751, Control_c, 0, 64, 57
1, 141780, Control_c, 0, 64, 56
1, 141810, Control_c, 0, 64, 56
1, 141854, Control_c, 0, 64, 55
1, 141857, Note_off_c, 0, 102, 37
1, 142048, Control_c, 0, 64, 56
1, 142063, Control_c, 0, 64, 56
1, 142077, Control_c, 0, 64, 57
1, 142092, Control_c, 0, 64, 57
1, 142107, Control_c, 0, 64, 58
1, 142122, Control_c, 0, 64, 58
1, 142151, Control_c, 0, 64, 59
1, 142166, Control_c, 0, 64, 59
1, 142181, Control_c, 0, 64, 60
1, 142196, Control_c, 0, 64, 60
1, 142211, Control_c, 0, 64, 61
1, 142226, Control_c, 0, 64, 62
1, 142241, Control_c, 0, 64, 62
1, 142256, Control_c, 0, 64, 63
1, 142270, Control_c, 0, 64, 64
1, 142285, Control_c, 0, 64, 64
1, 142300, Control_c, 0, 64, 65
1, 142315, Control_c, 0, 64, 66
1, 142329, Control_c, 0, 64, 66
1, 142344, Control_c, 0, 64, 67
1, 142359, Control_c, 0, 64, 68
1, 142381, Control_c, 0, 64, 69
1, 142390, Note_off_c, 0, 104, 53
1, 142396, Control_c, 0, 64, 70
1, 142411, Control_c, 0, 64, 71
1, 142425, Control_c, 0, 64, 72
1, 142440, Control_c, 0, 64, 73
1, 142455, Control_c, 0, 64, 74
1, 142470, Control_c, 0, 64, 74
1, 142648, Control_c, 0, 64, 75
1, 142677, Control_c, 0, 64, 75
1, 142692, Control_c, 0, 64, 76
1, 142708, Control_c, 0, 64, 77
1, 142723, Control_c, 0, 64, 78
1, 142738, Control_c, 0, 64, 79
1, 142752, Control_c, 0, 64, 80
1, 142782, Control_c, 0, 64, 81
1, 142797, Control_c, 0, 64, 81
1, 142812, Control_c, 0, 64, 82
1, 142827, Control_c, 0, 64, 84
1, 142841, Control_c, 0, 64, 86
1, 142856, Control_c, 0, 64, 88
1, 142871, Control_c, 0, 64, 90
1, 142885, Control_c, 0, 64, 93
1, 142900, Control_c, 0, 64, 95
1, 142930, Control_c, 0, 64, 99
1, 142959, Control_c, 0, 64, 102
1, 142974, Control_c, 0, 64, 104
1, 143004, Control_c, 0, 64, 106
1, 143063, Control_c, 0, 64, 108
1, 143311, Note_on_c, 0, 55, 35
1, 143558, Note_on_c, 0, 56, 47
1, 143747, Note_on_c, 0, 59, 50
1, 143779, Note_off_c, 0, 55, 40
1, 143843, Control_c, 0, 64, 106
1, 143895, Control_c, 0, 64, 104
1, 143898, Note_off_c, 0, 56, 37
1, 143931, Note_off_c, 0, 59, 63
1, 143942, Note_on_c, 0, 62, 59
1, 143969, Control_c, 0, 64, 102
1, 144028, Control_c, 0, 64, 99
1, 144087, Control_c, 0, 64, 97
1, 144116, Note_on_c, 0, 64, 61
1, 144116, Control_c, 0, 64, 95
1, 144131, Control_c, 0, 64, 94
1, 144146, Control_c, 0, 64, 93
1, 144161, Control_c, 0, 64, 92
1, 144175, Control_c, 0, 64, 90
1, 144190, Control_c, 0, 64, 89
1, 144196, Note_off_c, 0, 62, 52
1, 144205, Control_c, 0, 64, 88
1, 144220, Control_c, 0, 64, 87
1, 144235, Control_c, 0, 64, 85
1, 144250, Control_c, 0, 64, 84
1, 144265, Control_c, 0, 64, 83
1, 144280, Control_c, 0, 64, 82
1, 144294, Control_c, 0, 64, 80
1, 144303, Note_on_c, 0, 63, 67
1, 144310, Control_c, 0, 64, 79
1, 144324, Control_c, 0, 64, 77
1, 144339, Control_c, 0, 64, 76
1, 144354, Control_c, 0, 64, 75
1, 144369, Control_c, 0, 64, 73
1, 144384, Control_c, 0, 64, 71
1, 144399, Control_c, 0, 64, 70
1, 144414, Control_c, 0, 64, 68
1, 144429, Control_c, 0, 64, 66
1, 144443, Control_c, 0, 64, 65
1, 144452, Note_off_c, 0, 64, 38
1, 144458, Control_c, 0, 64, 65
1, 144473, Control_c, 0, 64, 64
1, 144484, Note_on_c, 0, 67, 47
1, 144503, Control_c, 0, 64, 64
1, 144532, Control_c, 0, 64, 63
1, 144562, Control_c, 0, 64, 63
1, 144577, Control_c, 0, 64, 62
1, 144592, Control_c, 0, 64, 62
1, 144606, Control_c, 0, 64, 61
1, 144621, Control_c, 0, 64, 60
1, 144643, Control_c, 0, 64, 60
1, 144658, Control_c, 0, 64, 59
1, 144661, Note_on_c, 0, 70, 47
1, 144703, Control_c, 0, 64, 59
1, 144754, Note_off_c, 0, 67, 58
1, 144836, Control_c, 0, 64, 59
1, 144844, Note_on_c, 0, 75, 61
1, 144895, Control_c, 0, 64, 60
1, 144925, Control_c, 0, 64, 61
1, 144939, Control_c, 0, 64, 62
1, 144954, Control_c, 0, 64, 63
1, 144969, Control_c, 0, 64, 65
1, 144984, Control_c, 0, 64, 67
1, 144998, Control_c, 0, 64, 69
1, 145013, Control_c, 0, 64, 73
1, 145028, Control_c, 0, 64, 76
1, 145036, Note_on_c, 0, 71, 43
1, 145043, Control_c, 0, 64, 77
1, 145058, Control_c, 0, 64, 78
1, 145072, Control_c, 0, 64, 78
1, 145102, Note_off_c, 0, 70, 28
1, 145103, Control_c, 0, 64, 79
1, 145118, Control_c, 0, 64, 79
1, 145207, Control_c, 0, 64, 80
1, 145219, Note_on_c, 0, 68, 44
1, 145275, Note_off_c, 0, 75, 29
1, 145355, Control_c, 0, 64, 79
1, 145368, Note_off_c, 0, 63, 56
1, 145377, Control_c, 0, 64, 78
1, 145385, Note_on_c, 0, 65, 53
1, 145392, Control_c, 0, 64, 74
1, 145407, Control_c, 0, 64, 70
1, 145422, Control_c, 0, 64, 65
1, 145436, Control_c, 0, 64, 61
1, 145460, Note_off_c, 0, 71, 36
1, 145466, Control_c, 0, 64, 62
1, 145481, Control_c, 0, 64, 64
1, 145496, Control_c, 0, 64, 66
1, 145511, Control_c, 0, 64, 70
1, 145526, Control_c, 0, 64, 74
1, 145540, Control_c, 0, 64, 77
1, 145555, Control_c, 0, 64, 78
1, 145570, Control_c, 0, 64, 78
1, 145584, Note_on_c, 0, 61, 38
1, 145600, Control_c, 0, 64, 79
1, 145726, Note_off_c, 0, 68, 36
1, 145755, Note_on_c, 0, 62, 48
1, 145761, Control_c, 0, 64, 78
1, 145821, Control_c, 0, 64, 78
1, 145836, Control_c, 0, 64, 77
1, 145850, Control_c, 0, 64, 76
1, 145865, Control_c, 0, 64, 75
1, 145880, Control_c, 0, 64, 73
1, 145895, Control_c, 0, 64, 70
1, 145910, Control_c, 0, 64, 66
1, 145925, Control_c, 0, 64, 62
1, 145940, Control_c, 0, 64, 59
1, 145955, Control_c, 0, 64, 57
1, 145957, Note_on_c, 0, 72, 48
1, 145967, Note_on_c, 0, 64, 43
1, 145971, Note_off_c, 0, 65, 37
1, 145985, Control_c, 0, 64, 57
1, 146014, Control_c, 0, 64, 56
1, 146044, Control_c, 0, 64, 56
1, 146089, Note_off_c, 0, 62, 53
1, 146155, Control_c, 0, 64, 56
1, 146175, Note_on_c, 0, 67, 39
1, 146184, Control_c, 0, 64, 57
1, 146199, Control_c, 0, 64, 59
1, 146214, Control_c, 0, 64, 61
1, 146229, Control_c, 0, 64, 64
1, 146244, Control_c, 0, 64, 66
1, 146259, Control_c, 0, 64, 71
1, 146274, Control_c, 0, 64, 74
1, 146289, Control_c, 0, 64, 76
1, 146303, Control_c, 0, 64, 77
1, 146333, Note_on_c, 0, 68, 41
1, 146348, Control_c, 0, 64, 77
1, 146376, Note_off_c, 0, 61, 38
1, 146464, Note_off_c, 0, 72, 34
1, 146482, Control_c, 0, 64, 77
1, 146491, Note_off_c, 0, 64, 59
1, 146511, Note_off_c, 0, 67, 35
1, 146511, Control_c, 0, 64, 76
1, 146516, Note_on_c, 0, 65, 48
1, 146526, Control_c, 0, 64, 73
1, 146541, Control_c, 0, 64, 68
1, 146556, Control_c, 0, 64, 60
1, 146571, Control_c, 0, 64, 54
1, 146585, Control_c, 0, 64, 53
1, 146615, Control_c, 0, 64, 53
1, 146629, Control_c, 0, 64, 55
1, 146644, Control_c, 0, 64, 57
1, 146659, Control_c, 0, 64, 61
1, 146674, Control_c, 0, 64, 64
1, 146689, Control_c, 0, 64, 66
1, 146705, Control_c, 0, 64, 69
1, 146719, Control_c, 0, 64, 72
1, 146727, Note_on_c, 0, 60, 31
1, 146734, Control_c, 0, 64, 73
1, 146749, Control_c, 0, 64, 74
1, 146764, Control_c, 0, 64, 74
1, 146930, Note_on_c, 0, 61, 36
1, 147067, Control_c, 0, 64, 74
1, 147097, Control_c, 0, 64, 73
1, 147112, Control_c, 0, 64, 73
1, 147126, Control_c, 0, 64, 72
1, 147129, Note_off_c, 0, 68, 29
1, 147136, Note_off_c, 0, 60, 27
1, 147141, Control_c, 0, 64, 70
1, 147151, Note_on_c, 0, 71, 43
1, 147156, Control_c, 0, 64, 68
1, 147171, Control_c, 0, 64, 64
1, 147185, Note_on_c, 0, 64, 31
1, 147186, Control_c, 0, 64, 61
1, 147201, Control_c, 0, 64, 58
1, 147206, Note_off_c, 0, 65, 33
1, 147216, Control_c, 0, 64, 56
1, 147231, Control_c, 0, 64, 55
1, 147245, Control_c, 0, 64, 55
1, 147260, Control_c, 0, 64, 54
1, 147305, Control_c, 0, 64, 55
1, 147405, Note_on_c, 0, 66, 37
1, 147467, Control_c, 0, 64, 54
1, 147498, Control_c, 0, 64, 54
1, 147528, Control_c, 0, 64, 53
1, 147557, Control_c, 0, 64, 53
1, 147587, Control_c, 0, 64, 52
1, 147602, Control_c, 0, 64, 52
1, 147639, Control_c, 0, 64, 51
1, 147669, Control_c, 0, 64, 51
1, 147683, Control_c, 0, 64, 50
1, 147696, Note_on_c, 0, 67, 29
1, 147698, Control_c, 0, 64, 50
1, 147713, Control_c, 0, 64, 49
1, 147728, Control_c, 0, 64, 49
1, 147743, Control_c, 0, 64, 48
1, 147749, Note_off_c, 0, 66, 34
1, 147757, Control_c, 0, 64, 47
1, 147772, Control_c, 0, 64, 46
1, 147787, Control_c, 0, 64, 45
1, 147802, Control_c, 0, 64, 44
1, 147817, Control_c, 0, 64, 43
1, 147831, Control_c, 0, 64, 42
1, 147875, Control_c, 0, 64, 43
1, 147890, Control_c, 0, 64, 45
1, 147905, Control_c, 0, 64, 49
1, 147920, Control_c, 0, 64, 55
1, 147935, Control_c, 0, 64, 61
1, 147949, Control_c, 0, 64, 64
1, 147964, Control_c, 0, 64, 67
1, 147979, Control_c, 0, 64, 69
1, 147994, Control_c, 0, 64, 70
1, 147997, Note_off_c, 0, 71, 36
1, 148009, Control_c, 0, 64, 70
1, 148023, Note_off_c, 0, 64, 45
1, 148082, Note_off_c, 0, 67, 42
1, 148097, Note_off_c, 0, 61, 40
1, 148187, Control_c, 0, 64, 70
1, 148201, Control_c, 0, 64, 69
1, 148216, Control_c, 0, 64, 68
1, 148231, Control_c, 0, 64, 66
1, 148246, Control_c, 0, 64, 65
1, 148261, Control_c, 0, 64, 63
1, 148275, Control_c, 0, 64, 60
1, 148291, Control_c, 0, 64, 58
1, 148306, Control_c, 0, 64, 57
1, 148321, Control_c, 0, 64, 56
1, 148336, Control_c, 0, 64, 55
1, 148351, Control_c, 0, 64, 55
1, 148366, Control_c, 0, 64, 54
1, 148387, Control_c, 0, 64, 54
1, 148402, Control_c, 0, 64, 53
1, 148432, Control_c, 0, 64, 53
1, 148492, Control_c, 0, 64, 53
1, 148506, Control_c, 0, 64, 54
1, 148521, Control_c, 0, 64, 54
1, 148536, Control_c, 0, 64, 55
1, 148551, Control_c, 0, 64, 57
1, 148566, Control_c, 0, 64, 59
1, 148580, Control_c, 0, 64, 61
1, 148595, Control_c, 0, 64, 63
1, 148610, Control_c, 0, 64, 64
1, 148612, Note_on_c, 0, 44, 18
1, 148612, Note_on_c, 0, 51, 34
1, 148625, Control_c, 0, 64, 66
1, 148640, Control_c, 0, 64, 67
1, 148643, Note_on_c, 0, 59, 18
1, 148654, Control_c, 0, 64, 69
1, 148669, Control_c, 0, 64, 71
1, 148684, Control_c, 0, 64, 72
1, 148698, Control_c, 0, 64, 74
1, 148713, Control_c, 0, 64, 75
1, 148728, Control_c, 0, 64, 76
1, 148743, Control_c, 0, 64, 78
1, 148758, Control_c, 0, 64, 79
1, 148772, Control_c, 0, 64, 81
1, 148787, Control_c, 0, 64, 82
1, 148802, Control_c, 0, 64, 84
1, 148803, Note_on_c, 0, 63, 47
1, 148816, Control_c, 0, 64, 84
1, 148818, Note_on_c, 0, 56, 50
1, 148822, Note_off_c, 0, 59, 44
1, 148831, Control_c, 0, 64, 85
1, 148846, Note_off_c, 0, 44, 41
1, 148846, Control_c, 0, 64, 86
1, 148876, Control_c, 0, 64, 86
1, 148906, Control_c, 0, 64, 87
1, 148946, Note_off_c, 0, 51, 42
1, 148963, Note_off_c, 0, 56, 62
1, 148971, Note_off_c, 0, 63, 38
1, 148973, Note_on_c, 0, 68, 48
1, 148986, Note_on_c, 0, 59, 34
1, 149056, Note_off_c, 0, 68, 60
1, 149147, Note_off_c, 0, 59, 53
1, 149162, Note_on_c, 0, 71, 57
1, 149170, Note_on_c, 0, 64, 53
1, 149230, Note_off_c, 0, 71, 53
1, 149309, Note_on_c, 0, 80, 51
1, 149321, Note_off_c, 0, 64, 56
1, 149345, Note_on_c, 0, 63, 47
1, 149398, Note_off_c, 0, 80, 60
1, 149422, Note_off_c, 0, 63, 49
1, 149544, Note_on_c, 0, 88, 84
1, 149549, Note_on_c, 0, 62, 31
1, 149576, Note_on_c, 0, 83, 54
1, 149586, Note_on_c, 0, 59, 39
1, 149586, Note_on_c, 0, 76, 37
1, 149627, Note_off_c, 0, 62, 0
1, 149627, Note_on_c, 0, 62, 3
1, 149759, Note_on_c, 0, 64, 41
1, 149763, Note_off_c, 0, 62, 41
1, 149792, Note_off_c, 0, 59, 54
1, 149795, Note_off_c, 0, 88, 64
1, 149797, Note_off_c, 0, 83, 59
1, 149872, Note_off_c, 0, 64, 64
1, 149931, Note_on_c, 0, 67, 38
1, 149948, Note_off_c, 0, 76, 53
1, 150084, Note_on_c, 0, 87, 77
1, 150113, Note_on_c, 0, 80, 58
1, 150120, Note_on_c, 0, 75, 48
1, 150124, Note_on_c, 0, 63, 34
1, 150127, Note_on_c, 0, 70, 40
1, 150137, Note_off_c, 0, 67, 37
1, 150270, Note_off_c, 0, 87, 62
1, 150284, Note_on_c, 0, 71, 50
1, 150315, Note_off_c, 0, 75, 56
1, 150328, Note_off_c, 0, 70, 35
1, 150339, Note_off_c, 0, 71, 50
1, 150408, Note_off_c, 0, 63, 51
1, 150432, Note_on_c, 0, 79, 53
1, 150481, Note_off_c, 0, 79, 59
1, 150498, Note_off_c, 0, 80, 37
1, 150627, Note_on_c, 0, 83, 78
1, 150647, Control_c, 0, 64, 86
1, 150661, Note_on_c, 0, 76, 49
1, 150662, Control_c, 0, 64, 85
1, 150668, Note_on_c, 0, 71, 25
1, 150677, Control_c, 0, 64, 83
1, 150692, Control_c, 0, 64, 80
1, 150707, Control_c, 0, 64, 77
1, 150722, Control_c, 0, 64, 75
1, 150737, Control_c, 0, 64, 74
1, 150796, Control_c, 0, 64, 74
1, 150818, Note_on_c, 0, 44, 34
1, 150821, Note_off_c, 0, 71, 37
1, 150826, Note_on_c, 0, 51, 38
1, 150826, Control_c, 0, 64, 75
1, 150831, Note_on_c, 0, 75, 50
1, 150841, Control_c, 0, 64, 76
1, 150855, Control_c, 0, 64, 76
1, 150870, Control_c, 0, 64, 77
1, 150879, Note_off_c, 0, 83, 52
1, 150885, Control_c, 0, 64, 77
1, 150897, Note_off_c, 0, 76, 37
1, 150900, Control_c, 0, 64, 78
1, 150930, Control_c, 0, 64, 78
1, 150945, Control_c, 0, 64, 79
1, 150954, Note_off_c, 0, 75, 61
1, 150960, Control_c, 0, 64, 80
1, 150974, Control_c, 0, 64, 81
1, 150976, Note_on_c, 0, 56, 50
1, 150986, Note_off_c, 0, 44, 35
1, 150989, Control_c, 0, 64, 83
1, 151001, Note_on_c, 0, 71, 39
1, 151004, Control_c, 0, 64, 84
1, 151019, Control_c, 0, 64, 86
1, 151034, Control_c, 0, 64, 89
1, 151048, Control_c, 0, 64, 91
1, 151063, Control_c, 0, 64, 93
1, 151073, Note_off_c, 0, 51, 38
1, 151078, Control_c, 0, 64, 94
1, 151092, Control_c, 0, 64, 96
1, 151107, Note_off_c, 0, 56, 60
1, 151156, Note_on_c, 0, 59, 45
1, 151156, Note_on_c, 0, 70, 52
1, 151156, Note_off_c, 0, 71, 53
1, 151285, Note_off_c, 0, 70, 35
1, 151303, Note_off_c, 0, 59, 51
1, 151327, Note_on_c, 0, 71, 51
1, 151331, Note_on_c, 0, 64, 49
1, 151444, Note_off_c, 0, 71, 58
1, 151485, Note_on_c, 0, 68, 58
1, 151508, Note_on_c, 0, 63, 53
1, 151517, Note_off_c, 0, 68, 67
1, 151535, Note_off_c, 0, 64, 39
1, 151553, Note_off_c, 0, 63, 57
1, 151676, Note_on_c, 0, 88, 81
1, 151699, Note_on_c, 0, 62, 41
1, 151705, Note_on_c, 0, 76, 45
1, 151715, Note_on_c, 0, 83, 41
1, 151723, Note_on_c, 0, 59, 40
1, 151765, Note_off_c, 0, 83, 0
1, 151765, Note_on_c, 0, 83, 5
1, 151857, Note_off_c, 0, 62, 53
1, 151868, Note_off_c, 0, 83, 55
1, 151870, Note_on_c, 0, 64, 50
1, 151894, Note_off_c, 0, 59, 56
1, 151897, Note_off_c, 0, 88, 64
1, 151959, Note_off_c, 0, 64, 64
1, 152000, Note_off_c, 0, 76, 63
1, 152029, Note_on_c, 0, 67, 51
1, 152188, Note_on_c, 0, 87, 74
1, 152201, Note_off_c, 0, 67, 57
1, 152204, Note_on_c, 0, 80, 63
1, 152212, Note_on_c, 0, 63, 45
1, 152219, Note_on_c, 0, 70, 45
1, 152223, Note_on_c, 0, 75, 49
1, 152338, Note_off_c, 0, 80, 57
1, 152343, Note_off_c, 0, 75, 60
1, 152378, Note_on_c, 0, 71, 51
1, 152380, Note_off_c, 0, 87, 62
1, 152411, Note_off_c, 0, 70, 57
1, 152430, Note_off_c, 0, 71, 59
1, 152456, Control_c, 0, 64, 95
1, 152471, Control_c, 0, 64, 95
1, 152478, Note_off_c, 0, 63, 55
1, 152486, Control_c, 0, 64, 94
1, 152516, Control_c, 0, 64, 94
1, 152546, Note_on_c, 0, 83, 60
1, 152575, Control_c, 0, 64, 93
1, 152590, Note_off_c, 0, 83, 61
1, 152619, Control_c, 0, 64, 93
1, 152723, Control_c, 0, 64, 92
1, 152767, Control_c, 0, 64, 91
1, 152776, Note_on_c, 0, 52, 42
1, 152779, Note_on_c, 0, 86, 80
1, 152781, Control_c, 0, 64, 88
1, 152786, Note_on_c, 0, 44, 45
1, 152796, Control_c, 0, 64, 84
1, 152807, Note_on_c, 0, 74, 54
1, 152808, Note_on_c, 0, 79, 52
1, 152811, Control_c, 0, 64, 78
1, 152826, Control_c, 0, 64, 73
1, 152841, Control_c, 0, 64, 68
1, 152863, Control_c, 0, 64, 64
1, 152878, Control_c, 0, 64, 63
1, 152893, Control_c, 0, 64, 64
1, 152908, Control_c, 0, 64, 65
1, 152923, Control_c, 0, 64, 67
1, 152937, Control_c, 0, 64, 69
1, 152952, Control_c, 0, 64, 73
1, 152953, Note_off_c, 0, 79, 61
1, 152967, Control_c, 0, 64, 76
1, 152978, Note_off_c, 0, 52, 61
1, 152982, Control_c, 0, 64, 80
1, 152990, Note_on_c, 0, 82, 49
1, 152996, Control_c, 0, 64, 84
1, 153008, Note_on_c, 0, 55, 48
1, 153011, Control_c, 0, 64, 87
1, 153026, Control_c, 0, 64, 91
1, 153030, Note_off_c, 0, 44, 58
1, 153041, Control_c, 0, 64, 94
1, 153056, Control_c, 0, 64, 98
1, 153070, Control_c, 0, 64, 101
1, 153085, Control_c, 0, 64, 105
1, 153101, Control_c, 0, 64, 108
1, 153116, Control_c, 0, 64, 110
1, 153122, Note_off_c, 0, 55, 60
1, 153131, Control_c, 0, 64, 112
1, 153148, Note_on_c, 0, 78, 64
1, 153160, Control_c, 0, 64, 114
1, 153178, Note_off_c, 0, 82, 35
1, 153181, Note_off_c, 0, 86, 58
1, 153189, Note_on_c, 0, 58, 44
1, 153267, Note_off_c, 0, 74, 37
1, 153285, Note_off_c, 0, 58, 48
1, 153305, Note_off_c, 0, 78, 59
1, 153306, Note_on_c, 0, 81, 68
1, 153335, Note_on_c, 0, 62, 48
1, 153354, Note_off_c, 0, 81, 52
1, 153437, Note_off_c, 0, 62, 54
1, 153471, Note_on_c, 0, 85, 76
1, 153490, Note_on_c, 0, 61, 37
1, 153492, Note_on_c, 0, 77, 53
1, 153496, Note_on_c, 0, 51, 37
1, 153505, Note_on_c, 0, 73, 47
1, 153550, Note_off_c, 0, 51, 56
1, 153583, Note_off_c, 0, 61, 56
1, 153643, Note_on_c, 0, 80, 61
1, 153648, Note_on_c, 0, 65, 47
1, 153654, Note_off_c, 0, 77, 57
1, 153663, Note_off_c, 0, 73, 60
1, 153679, Note_off_c, 0, 80, 58
1, 153681, Note_off_c, 0, 85, 59
1, 153714, Note_off_c, 0, 65, 47
1, 153776, Control_c, 0, 64, 111
1, 153791, Control_c, 0, 64, 106
1, 153806, Control_c, 0, 64, 94
1, 153809, Note_on_c, 0, 64, 47
1, 153811, Note_on_c, 0, 84, 80
1, 153812, Note_on_c, 0, 56, 46
1, 153820, Control_c, 0, 64, 82
1, 153835, Control_c, 0, 64, 72
1, 153837, Note_on_c, 0, 72, 55
1, 153837, Note_on_c, 0, 76, 49
1, 153850, Control_c, 0, 64, 64
1, 153865, Control_c, 0, 64, 57
1, 153880, Control_c, 0, 64, 56
1, 153896, Control_c, 0, 64, 58
1, 153902, Note_off_c, 0, 76, 56
1, 153910, Control_c, 0, 64, 61
1, 153925, Control_c, 0, 64, 65
1, 153940, Control_c, 0, 64, 69
1, 153955, Control_c, 0, 64, 74
1, 153970, Control_c, 0, 64, 78
1, 153985, Note_on_c, 0, 80, 57
1, 153985, Control_c, 0, 64, 79
1, 153997, Note_on_c, 0, 66, 47
1, 153999, Control_c, 0, 64, 80
1, 154014, Control_c, 0, 64, 81
1, 154029, Control_c, 0, 64, 82
1, 154043, Control_c, 0, 64, 82
1, 154057, Note_off_c, 0, 66, 51
1, 154073, Control_c, 0, 64, 83
1, 154084, Note_off_c, 0, 80, 48
1, 154092, Note_off_c, 0, 64, 30
1, 154115, Note_off_c, 0, 56, 53
1, 154120, Note_off_c, 0, 84, 36
1, 154147, Note_on_c, 0, 76, 48
1, 154164, Note_on_c, 0, 67, 45
1, 154218, Note_off_c, 0, 72, 35
1, 154316, Note_on_c, 0, 70, 49
1, 154325, Note_on_c, 0, 79, 48
1, 154334, Note_off_c, 0, 67, 38
1, 154349, Note_off_c, 0, 76, 33
1, 154388, Note_off_c, 0, 79, 61
1, 154480, Note_off_c, 0, 70, 52
1, 154488, Note_on_c, 0, 83, 69
1, 154498, Note_on_c, 0, 63, 46
1, 154502, Note_on_c, 0, 71, 63
1, 154511, Note_on_c, 0, 75, 57
1, 154541, Note_off_c, 0, 63, 60
1, 154544, Poly_aftertouch_c, 0, 68, 127
1, 154577, Poly_aftertouch_c, 0, 68, 0
1, 154611, Note_off_c, 0, 83, 54
1, 154683, Note_on_c, 0, 80, 56
1, 154690, Note_off_c, 0, 71, 41
1, 154713, Note_off_c, 0, 75, 63
1, 154719, Note_off_c, 0, 80, 63
1, 154807, Control_c, 0, 64, 82
1, 154827, Note_on_c, 0, 44, 42
1, 154833, Note_on_c, 0, 52, 43
1, 154852, Control_c, 0, 64, 79
1, 154866, Control_c, 0, 64, 73
1, 154881, Control_c, 0, 64, 63
1, 154896, Control_c, 0, 64, 55
1, 154909, Note_on_c, 0, 74, 82
1, 154911, Control_c, 0, 64, 52
1, 154918, Note_on_c, 0, 86, 66
1, 154926, Control_c, 0, 64, 52
1, 154940, Note_on_c, 0, 82, 49
1, 154940, Control_c, 0, 64, 54
1, 154955, Control_c, 0, 64, 57
1, 154970, Control_c, 0, 64, 61
1, 154984, Control_c, 0, 64, 64
1, 154999, Control_c, 0, 64, 67
1, 155014, Control_c, 0, 64, 71
1, 155029, Control_c, 0, 64, 75
1, 155044, Note_off_c, 0, 82, 51
1, 155044, Control_c, 0, 64, 76
1, 155049, Note_off_c, 0, 86, 55
1, 155056, Note_off_c, 0, 52, 62
1, 155058, Control_c, 0, 64, 78
1, 155073, Control_c, 0, 64, 79
1, 155088, Control_c, 0, 64, 79
1, 155094, Note_on_c, 0, 81, 57
1, 155095, Note_off_c, 0, 44, 60
1, 155109, Note_on_c, 0, 55, 51
1, 155111, Control_c, 0, 64, 80
1, 155116, Note_on_c, 0, 85, 55
1, 155126, Control_c, 0, 64, 81
1, 155139, Note_off_c, 0, 81, 60
1, 155140, Control_c, 0, 64, 81
1, 155157, Note_off_c, 0, 85, 56
1, 155170, Control_c, 0, 64, 82
1, 155189, Note_off_c, 0, 55, 60
1, 155199, Control_c, 0, 64, 82
1, 155264, Note_on_c, 0, 58, 44
1, 155284, Note_on_c, 0, 84, 54
1, 155289, Note_on_c, 0, 80, 54
1, 155345, Note_off_c, 0, 80, 56
1, 155406, Note_off_c, 0, 84, 33
1, 155408, Note_off_c, 0, 74, 59
1, 155427, Note_on_c, 0, 62, 45
1, 155429, Note_on_c, 0, 79, 42
1, 155430, Note_on_c, 0, 83, 51
1, 155449, Note_off_c, 0, 58, 25
1, 155474, Note_off_c, 0, 83, 51
1, 155481, Note_off_c, 0, 79, 59
1, 155575, Note_off_c, 0, 62, 34
1, 155584, Note_on_c, 0, 51, 45
1, 155586, Note_on_c, 0, 73, 73
1, 155611, Note_on_c, 0, 61, 37
1, 155654, Note_off_c, 0, 51, 54
1, 155686, Poly_aftertouch_c, 0, 81, 127
1, 155726, Note_off_c, 0, 61, 35
1, 155729, Note_on_c, 0, 81, 8
1, 155744, Note_off_c, 0, 73, 60
1, 155753, Note_on_c, 0, 77, 28
1, 155769, Note_on_c, 0, 65, 43
1, 155815, Note_off_c, 0, 77, 39
1, 155933, Note_on_c, 0, 64, 44
1, 155958, Note_off_c, 0, 65, 36
1, 155963, Note_on_c, 0, 56, 41
1, 155963, Control_c, 0, 64, 80
1, 155973, Note_off_c, 0, 81, 30
1, 155978, Control_c, 0, 64, 75
1, 155993, Control_c, 0, 64, 67
1, 155994, Note_on_c, 0, 72, 69
1, 156008, Control_c, 0, 64, 59
1, 156022, Control_c, 0, 64, 53
1, 156037, Control_c, 0, 64, 52
1, 156052, Control_c, 0, 64, 54
1, 156067, Control_c, 0, 64, 56
1, 156081, Control_c, 0, 64, 60
1, 156096, Control_c, 0, 64, 64
1, 156111, Control_c, 0, 64, 67
1, 156126, Control_c, 0, 64, 71
1, 156141, Control_c, 0, 64, 75
1, 156155, Control_c, 0, 64, 77
1, 156170, Control_c, 0, 64, 78
1, 156181, Note_on_c, 0, 80, 51
1, 156185, Note_on_c, 0, 76, 52
1, 156185, Control_c, 0, 64, 79
1, 156200, Control_c, 0, 64, 80
1, 156215, Control_c, 0, 64, 81
1, 156230, Control_c, 0, 64, 82
1, 156245, Control_c, 0, 64, 82
1, 156260, Control_c, 0, 64, 83
1, 156264, Note_on_c, 0, 60, 41
1, 156289, Note_off_c, 0, 64, 48
1, 156290, Control_c, 0, 64, 83
1, 156298, Note_off_c, 0, 56, 48
1, 156313, Note_off_c, 0, 80, 32
1, 156319, Note_off_c, 0, 76, 59
1, 156325, Note_off_c, 0, 72, 54
1, 156349, Note_off_c, 0, 60, 63
1, 156356, Note_on_c, 0, 75, 54
1, 156359, Note_on_c, 0, 79, 44
1, 156451, Note_off_c, 0, 79, 52
1, 156506, Note_off_c, 0, 75, 60
1, 156519, Note_on_c, 0, 71, 65
1, 156523, Note_on_c, 0, 63, 49
1, 156557, Control_c, 0, 64, 83
1, 156564, Note_on_c, 0, 51, 39
1, 156586, Control_c, 0, 64, 82
1, 156609, Control_c, 0, 64, 81
1, 156623, Control_c, 0, 64, 81
1, 156673, Note_on_c, 0, 78, 48
1, 156686, Note_on_c, 0, 74, 47
1, 156723, Note_on_c, 0, 59, 39
1, 156739, Note_off_c, 0, 63, 54
1, 156805, Note_off_c, 0, 71, 52
1, 156817, Note_off_c, 0, 78, 32
1, 156850, Note_on_c, 0, 73, 48
1, 156858, Note_on_c, 0, 77, 50
1, 156880, Note_off_c, 0, 74, 33
1, 156911, Note_off_c, 0, 59, 33
1, 156970, Note_off_c, 0, 77, 53
1, 157022, Note_on_c, 0, 58, 48
1, 157030, Note_off_c, 0, 73, 60
1, 157038, Control_c, 0, 64, 80
1, 157039, Note_on_c, 0, 70, 65
1, 157053, Control_c, 0, 64, 78
1, 157068, Control_c, 0, 64, 73
1, 157083, Control_c, 0, 64, 66
1, 157098, Control_c, 0, 64, 61
1, 157113, Note_off_c, 0, 51, 36
1, 157113, Control_c, 0, 64, 58
1, 157127, Control_c, 0, 64, 59
1, 157142, Control_c, 0, 64, 60
1, 157157, Control_c, 0, 64, 62
1, 157172, Control_c, 0, 64, 65
1, 157187, Control_c, 0, 64, 67
1, 157202, Control_c, 0, 64, 70
1, 157206, Note_on_c, 0, 76, 46
1, 157209, Note_on_c, 0, 61, 32
1, 157217, Control_c, 0, 64, 73
1, 157232, Control_c, 0, 64, 74
1, 157232, Note_on_c, 0, 72, 33
1, 157246, Control_c, 0, 64, 75
1, 157261, Control_c, 0, 64, 76
1, 157276, Control_c, 0, 64, 77
1, 157291, Control_c, 0, 64, 78
1, 157306, Control_c, 0, 64, 78
1, 157339, Note_off_c, 0, 70, 38
1, 157357, Control_c, 0, 64, 79
1, 157359, Note_on_c, 0, 51, 38
1, 157363, Note_on_c, 0, 73, 45
1, 157373, Note_off_c, 0, 58, 34
1, 157386, Note_off_c, 0, 61, 35
1, 157389, Note_on_c, 0, 77, 53
1, 157431, Note_off_c, 0, 72, 29
1, 157434, Note_off_c, 0, 76, 23
1, 157465, Note_off_c, 0, 77, 51
1, 157473, Note_off_c, 0, 73, 46
1, 157511, Note_off_c, 0, 51, 35
1, 157545, Note_on_c, 0, 59, 51
1, 157552, Note_on_c, 0, 71, 67
1, 157565, Control_c, 0, 64, 78
1, 157579, Control_c, 0, 64, 75
1, 157594, Control_c, 0, 64, 70
1, 157609, Control_c, 0, 64, 65
1, 157624, Control_c, 0, 64, 61
1, 157639, Control_c, 0, 64, 60
1, 157654, Control_c, 0, 64, 61
1, 157668, Control_c, 0, 64, 63
1, 157683, Control_c, 0, 64, 65
1, 157698, Control_c, 0, 64, 67
1, 157711, Note_off_c, 0, 59, 52
1, 157713, Control_c, 0, 64, 69
1, 157717, Note_on_c, 0, 78, 47
1, 157723, Note_on_c, 0, 51, 40
1, 157724, Note_on_c, 0, 74, 41
1, 157728, Control_c, 0, 64, 71
1, 157742, Control_c, 0, 64, 73
1, 157757, Control_c, 0, 64, 73
1, 157772, Control_c, 0, 64, 74
1, 157780, Note_off_c, 0, 71, 54
1, 157786, Control_c, 0, 64, 74
1, 157816, Control_c, 0, 64, 75
1, 157891, Control_c, 0, 64, 75
1, 157901, Note_on_c, 0, 79, 47
1, 157903, Note_on_c, 0, 75, 38
1, 157909, Note_on_c, 0, 44, 31
1, 157926, Note_off_c, 0, 74, 31
1, 157944, Note_off_c, 0, 44, 49
1, 157952, Note_off_c, 0, 51, 33
1, 157957, Note_off_c, 0, 79, 54
1, 157999, Note_off_c, 0, 78, 20
1, 158026, Note_off_c, 0, 75, 61
1, 158089, Note_on_c, 0, 73, 60
1, 158108, Note_on_c, 0, 61, 42
1, 158136, Control_c, 0, 64, 74
1, 158151, Control_c, 0, 64, 71
1, 158165, Control_c, 0, 64, 66
1, 158180, Control_c, 0, 64, 60
1, 158195, Control_c, 0, 64, 57
1, 158224, Control_c, 0, 64, 58
1, 158239, Control_c, 0, 64, 60
1, 158254, Control_c, 0, 64, 62
1, 158269, Control_c, 0, 64, 64
1, 158279, Note_on_c, 0, 80, 49
1, 158284, Control_c, 0, 64, 66
1, 158288, Note_on_c, 0, 76, 43
1, 158298, Note_on_c, 0, 58, 38
1, 158299, Control_c, 0, 64, 68
1, 158314, Control_c, 0, 64, 70
1, 158329, Control_c, 0, 64, 72
1, 158343, Control_c, 0, 64, 73
1, 158358, Control_c, 0, 64, 75
1, 158373, Control_c, 0, 64, 75
1, 158373, Note_off_c, 0, 61, 31
1, 158379, Note_off_c, 0, 73, 58
1, 158388, Control_c, 0, 64, 76
1, 158417, Control_c, 0, 64, 76
1, 158477, Note_on_c, 0, 77, 42
1, 158482, Note_on_c, 0, 81, 55
1, 158484, Note_on_c, 0, 51, 38
1, 158526, Note_off_c, 0, 51, 49
1, 158532, Note_off_c, 0, 58, 21
1, 158537, Note_off_c, 0, 76, 39
1, 158540, Note_off_c, 0, 77, 58
1, 158594, Note_off_c, 0, 80, 33
1, 158600, Note_off_c, 0, 81, 57
1, 158700, Note_on_c, 0, 75, 65
1, 158729, Control_c, 0, 64, 76
1, 158743, Note_on_c, 0, 63, 55
1, 158744, Control_c, 0, 64, 74
1, 158759, Control_c, 0, 64, 70
1, 158773, Control_c, 0, 64, 64
1, 158788, Control_c, 0, 64, 58
1, 158803, Control_c, 0, 64, 54
1, 158832, Control_c, 0, 64, 55
1, 158855, Control_c, 0, 64, 57
1, 158870, Control_c, 0, 64, 60
1, 158885, Control_c, 0, 64, 63
1, 158900, Control_c, 0, 64, 67
1, 158914, Control_c, 0, 64, 71
1, 158929, Control_c, 0, 64, 73
1, 158933, Note_on_c, 0, 82, 54
1, 158944, Control_c, 0, 64, 74
1, 158945, Note_on_c, 0, 78, 47
1, 158959, Control_c, 0, 64, 75
1, 158960, Note_on_c, 0, 73, 41
1, 158974, Control_c, 0, 64, 76
1, 158988, Control_c, 0, 64, 77
1, 159003, Control_c, 0, 64, 78
1, 159018, Control_c, 0, 64, 79
1, 159032, Control_c, 0, 64, 80
1, 159038, Note_off_c, 0, 75, 61
1, 159047, Control_c, 0, 64, 80
1, 159071, Note_off_c, 0, 73, 62
1, 159077, Control_c, 0, 64, 81
1, 159086, Note_off_c, 0, 78, 52
1, 159136, Control_c, 0, 64, 81
1, 159153, Note_off_c, 0, 82, 27
1, 159203, Note_on_c, 0, 67, 25
1, 159206, Note_off_c, 0, 63, 63
1, 159263, Note_off_c, 0, 67, 0
1, 159263, Note_on_c, 0, 67, 8
1, 159278, Note_on_c, 0, 83, 55
1, 159310, Note_on_c, 0, 79, 28
1, 159359, Note_off_c, 0, 67, 52
1, 159428, Note_off_c, 0, 79, 44
1, 159509, Control_c, 0, 64, 81
1, 159667, Note_off_c, 0, 83, 26
1, 159699, Note_on_c, 0, 68, 64
1, 159709, Control_c, 0, 64, 79
1, 159724, Control_c, 0, 64, 73
1, 159738, Control_c, 0, 64, 64
1, 159753, Control_c, 0, 64, 58
1, 159768, Control_c, 0, 64, 56
1, 159782, Control_c, 0, 64, 57
1, 159797, Control_c, 0, 64, 59
1, 159812, Control_c, 0, 64, 63
1, 159827, Control_c, 0, 64, 68
1, 159842, Control_c, 0, 64, 73
1, 159848, Note_off_c, 0, 68, 64
1, 159856, Control_c, 0, 64, 76
1, 159871, Control_c, 0, 64, 78
1, 159886, Control_c, 0, 64, 78
1, 159901, Control_c, 0, 64, 79
1, 159916, Control_c, 0, 64, 80
1, 159922, Note_on_c, 0, 32, 45
1, 159930, Control_c, 0, 64, 81
1, 159959, Control_c, 0, 64, 82
1, 160019, Control_c, 0, 64, 82
1, 160019, Note_on_c, 0, 86, 45
1, 160023, Note_on_c, 0, 82, 42
1, 160087, Note_off_c, 0, 82, 48
1, 160108, Note_off_c, 0, 32, 45
1, 160111, Note_off_c, 0, 86, 56
1, 160171, Note_on_c, 0, 44, 42
1, 160185, Note_on_c, 0, 87, 56
1, 160200, Note_on_c, 0, 83, 50
1, 160204, Note_off_c, 0, 44, 57
1, 160234, Note_off_c, 0, 87, 54
1, 160367, Note_on_c, 0, 91, 56
1, 160375, Note_on_c, 0, 87, 38
1, 160387, Note_off_c, 0, 83, 24
1, 160403, Note_on_c, 0, 51, 41
1, 160416, Note_off_c, 0, 87, 47
1, 160439, Note_off_c, 0, 91, 58
1, 160472, Control_c, 0, 64, 83
1, 160520, Note_on_c, 0, 88, 57
1, 160533, Note_on_c, 0, 92, 46
1, 160547, Note_on_c, 0, 59, 48
1, 160560, Control_c, 0, 64, 83
1, 160576, Note_off_c, 0, 92, 57
1, 160584, Note_off_c, 0, 88, 53
1, 160590, Control_c, 0, 64, 84
1, 160600, Note_off_c, 0, 51, 33
1, 160634, Control_c, 0, 64, 84
1, 160650, Note_off_c, 0, 59, 62
1, 160654, Note_on_c, 0, 93, 59
1, 160662, Note_on_c, 0, 63, 58
1, 160666, Note_on_c, 0, 89, 44
1, 160678, Control_c, 0, 64, 85
1, 160687, Note_off_c, 0, 93, 59
1, 160694, Note_off_c, 0, 63, 64
1, 160717, Note_off_c, 0, 89, 51
1, 160738, Control_c, 0, 64, 85
1, 160782, Control_c, 0, 64, 86
1, 160798, Note_on_c, 0, 94, 59
1, 160805, Note_on_c, 0, 90, 43
1, 160844, Note_off_c, 0, 90, 47
1, 160845, Note_off_c, 0, 94, 56
1, 160882, Note_on_c, 0, 68, 31
1, 160886, Control_c, 0, 64, 86
1, 160937, Note_on_c, 0, 95, 55
1, 160950, Note_on_c, 0, 91, 43
1, 160985, Note_off_c, 0, 91, 58
1, 160994, Note_off_c, 0, 95, 61
1, 161013, Note_on_c, 0, 75, 44
1, 161079, Note_on_c, 0, 96, 53
1, 161087, Note_on_c, 0, 92, 52
1, 161140, Note_off_c, 0, 92, 61
1, 161168, Note_off_c, 0, 96, 59
1, 161175, Note_on_c, 0, 80, 41
1, 161224, Note_on_c, 0, 97, 58
1, 161231, Note_on_c, 0, 93, 55
1, 161248, Note_off_c, 0, 68, 37
1, 161290, Note_off_c, 0, 93, 51
1, 161373, Note_off_c, 0, 97, 36
1, 161379, Note_on_c, 0, 94, 43
1, 161384, Note_on_c, 0, 98, 47
1, 161421, Note_off_c, 0, 75, 36
1, 161448, Note_off_c, 0, 80, 38
1, 161458, Note_off_c, 0, 94, 50
1, 161557, Note_off_c, 0, 98, 46
1, 161576, Note_on_c, 0, 100, 58
1, 161601, Note_on_c, 0, 96, 36
1, 161827, Control_c, 0, 64, 87
1, 161862, Note_off_c, 0, 96, 41
1, 161863, Note_on_c, 0, 95, 50
1, 161864, Note_on_c, 0, 99, 56
1, 161930, Note_off_c, 0, 100, 34
1, 162043, Note_off_c, 0, 95, 62
1, 162049, Note_off_c, 0, 99, 61
1, 162079, Note_on_c, 0, 91, 51
1, 162092, Note_on_c, 0, 88, 51
1, 162206, Control_c, 0, 64, 87
1, 162239, Note_on_c, 0, 94, 53
1, 162242, Note_off_c, 0, 88, 52
1, 162245, Note_off_c, 0, 91, 57
1, 162250, Control_c, 0, 64, 88
1, 162251, Note_on_c, 0, 87, 48
1, 162264, Note_on_c, 0, 90, 29
1, 162265, Control_c, 0, 64, 88
1, 162280, Control_c, 0, 64, 89
1, 162310, Control_c, 0, 64, 89
1, 162318, Note_off_c, 0, 90, 41
1, 162321, Note_off_c, 0, 87, 63
1, 162324, Control_c, 0, 64, 90
1, 162348, Note_off_c, 0, 94, 64
1, 162368, Note_on_c, 0, 95, 52
1, 162370, Note_on_c, 0, 91, 59
1, 162375, Note_on_c, 0, 86, 50
1, 162422, Note_off_c, 0, 91, 63
1, 162454, Note_off_c, 0, 86, 58
1, 162459, Note_off_c, 0, 95, 61
1, 162472, Control_c, 0, 64, 90
1, 162478, Note_on_c, 0, 88, 59
1, 162483, Note_on_c, 0, 85, 48
1, 162518, Note_off_c, 0, 85, 61
1, 162567, Note_off_c, 0, 88, 57
1, 162574, Note_on_c, 0, 83, 53
1, 162576, Note_on_c, 0, 86, 51
1, 162582, Note_on_c, 0, 90, 45
1, 162618, Note_off_c, 0, 83, 47
1, 162674, Note_off_c, 0, 86, 60
1, 162679, Note_on_c, 0, 82, 50
1, 162682, Note_off_c, 0, 90, 62
1, 162686, Note_on_c, 0, 87, 56
1, 162699, Note_on_c, 0, 91, 43
1, 162745, Note_off_c, 0, 91, 57
1, 162746, Note_off_c, 0, 87, 59
1, 162755, Note_off_c, 0, 82, 59
1, 162778, Note_on_c, 0, 83, 62
1, 162787, Note_on_c, 0, 80, 47
1, 162814, Note_off_c, 0, 80, 54
1, 162874, Note_off_c, 0, 83, 57
1, 162875, Note_on_c, 0, 82, 59
1, 162886, Note_on_c, 0, 86, 49
1, 162896, Note_on_c, 0, 79, 29
1, 162947, Note_off_c, 0, 79, 44
1, 162976, Note_on_c, 0, 78, 48
1, 162977, Note_on_c, 0, 87, 63
1, 162982, Note_off_c, 0, 82, 52
1, 162982, Note_off_c, 0, 86, 50
1, 163012, Note_off_c, 0, 78, 63
1, 163051, Note_off_c, 0, 87, 58
1, 163073, Note_on_c, 0, 76, 54
1, 163090, Note_on_c, 0, 79, 47
1, 163105, Note_off_c, 0, 76, 56
1, 163159, Note_on_c, 0, 75, 51
1, 163166, Note_off_c, 0, 79, 58
1, 163173, Note_on_c, 0, 82, 55
1, 163178, Note_on_c, 0, 78, 48
1, 163211, Note_off_c, 0, 75, 52
1, 163220, Note_off_c, 0, 78, 54
1, 163260, Note_on_c, 0, 83, 59
1, 163263, Note_on_c, 0, 74, 48
1, 163284, Note_on_c, 0, 79, 45
1, 163293, Note_off_c, 0, 82, 62
1, 163308, Note_off_c, 0, 79, 61
1, 163325, Note_off_c, 0, 74, 59
1, 163327, Note_off_c, 0, 83, 58
1, 163355, Note_on_c, 0, 73, 40
1, 163363, Note_on_c, 0, 76, 61
1, 163385, Note_off_c, 0, 73, 57
1, 163441, Note_off_c, 0, 76, 56
1, 163444, Note_on_c, 0, 71, 47
1, 163453, Note_on_c, 0, 78, 52
1, 163458, Note_on_c, 0, 74, 54
1, 163474, Note_off_c, 0, 71, 52
1, 163524, Note_off_c, 0, 74, 51
1, 163528, Note_on_c, 0, 70, 54
1, 163543, Note_on_c, 0, 75, 57
1, 163569, Note_on_c, 0, 79, 46
1, 163586, Note_off_c, 0, 78, 52
1, 163599, Note_off_c, 0, 70, 56
1, 163608, Note_off_c, 0, 75, 61
1, 163617, Note_off_c, 0, 79, 55
1, 163631, Note_on_c, 0, 68, 47
1, 163656, Note_on_c, 0, 71, 52
1, 163658, Control_c, 0, 64, 90
1, 163672, Note_off_c, 0, 68, 56
1, 163730, Note_on_c, 0, 70, 54
1, 163741, Note_off_c, 0, 71, 50
1, 163748, Note_on_c, 0, 74, 53
1, 163748, Note_on_c, 0, 67, 22
1, 163799, Note_off_c, 0, 67, 45
1, 163816, Note_off_c, 0, 70, 63
1, 163831, Note_on_c, 0, 75, 61
1, 163840, Note_on_c, 0, 66, 38
1, 163861, Note_on_c, 0, 71, 34
1, 163875, Note_off_c, 0, 66, 53
1, 163910, Control_c, 0, 64, 89
1, 163916, Note_off_c, 0, 71, 56
1, 163926, Note_off_c, 0, 75, 53
1, 163943, Note_on_c, 0, 64, 52
1, 163955, Note_off_c, 0, 74, 42
1, 163979, Note_on_c, 0, 67, 50
1, 163999, Control_c, 0, 64, 89
1, 164058, Control_c, 0, 64, 88
1, 164067, Note_off_c, 0, 64, 48
1, 164108, Note_on_c, 0, 63, 47
1, 164108, Note_on_c, 0, 70, 49
1, 164127, Note_on_c, 0, 66, 39
1, 164129, Note_off_c, 0, 67, 36
1, 164169, Control_c, 0, 64, 88
1, 164192, Note_off_c, 0, 66, 52
1, 164224, Note_off_c, 0, 63, 61
1, 164228, Control_c, 0, 64, 87
1, 164236, Note_on_c, 0, 71, 52
1, 164243, Control_c, 0, 64, 86
1, 164255, Note_on_c, 0, 67, 47
1, 164257, Note_on_c, 0, 62, 49
1, 164258, Control_c, 0, 64, 84
1, 164274, Control_c, 0, 64, 81
1, 164289, Control_c, 0, 64, 78
1, 164304, Control_c, 0, 64, 74
1, 164305, Note_off_c, 0, 70, 51
1, 164319, Control_c, 0, 64, 69
1, 164333, Control_c, 0, 64, 65
1, 164348, Control_c, 0, 64, 63
1, 164363, Control_c, 0, 64, 62
1, 164371, Note_off_c, 0, 67, 30
1, 164407, Control_c, 0, 64, 63
1, 164423, Note_off_c, 0, 62, 48
1, 164433, Note_on_c, 0, 61, 29
1, 164436, Note_on_c, 0, 64, 50
1, 164437, Control_c, 0, 64, 63
1, 164451, Control_c, 0, 64, 64
1, 164466, Control_c, 0, 64, 65
1, 164481, Control_c, 0, 64, 66
1, 164496, Control_c, 0, 64, 67
1, 164511, Control_c, 0, 64, 70
1, 164526, Control_c, 0, 64, 73
1, 164541, Control_c, 0, 64, 74
1, 164556, Control_c, 0, 64, 76
1, 164558, Note_off_c, 0, 71, 19
1, 164570, Control_c, 0, 64, 76
1, 164585, Control_c, 0, 64, 77
1, 164606, Note_off_c, 0, 61, 53
1, 164615, Control_c, 0, 64, 77
1, 164626, Note_off_c, 0, 64, 58
1, 164668, Note_on_c, 0, 67, 43
1, 164678, Note_on_c, 0, 59, 25
1, 164683, Note_on_c, 0, 63, 37
1, 164824, Note_off_c, 0, 67, 52
1, 164857, Note_off_c, 0, 59, 48
1, 164907, Note_off_c, 0, 63, 33
1, 164933, Control_c, 0, 64, 76
1, 164935, Note_on_c, 0, 44, 43
1, 164948, Control_c, 0, 64, 75
1, 164963, Control_c, 0, 64, 71
1, 164977, Control_c, 0, 64, 66
1, 164992, Control_c, 0, 64, 60
1, 165007, Control_c, 0, 64, 54
1, 165022, Control_c, 0, 64, 49
1, 165037, Control_c, 0, 64, 47
1, 165051, Control_c, 0, 64, 46
1, 165097, Control_c, 0, 64, 47
1, 165112, Control_c, 0, 64, 50
1, 165119, Note_on_c, 0, 59, 49
1, 165127, Control_c, 0, 64, 54
1, 165142, Control_c, 0, 64, 59
1, 165155, Note_on_c, 0, 51, 39
1, 165156, Control_c, 0, 64, 62
1, 165171, Control_c, 0, 64, 64
1, 165186, Control_c, 0, 64, 66
1, 165200, Control_c, 0, 64, 68
1, 165215, Control_c, 0, 64, 71
1, 165230, Control_c, 0, 64, 74
1, 165245, Control_c, 0, 64, 76
1, 165260, Control_c, 0, 64, 77
1, 165274, Control_c, 0, 64, 78
1, 165275, Note_off_c, 0, 59, 40
1, 165289, Control_c, 0, 64, 80
1, 165304, Control_c, 0, 64, 81
1, 165316, Note_off_c, 0, 44, 36
1, 165319, Control_c, 0, 64, 83
1, 165334, Control_c, 0, 64, 84
1, 165349, Control_c, 0, 64, 86
1, 165363, Control_c, 0, 64, 87
1, 165378, Control_c, 0, 64, 89
1, 165393, Control_c, 0, 64, 90
1, 165408, Control_c, 0, 64, 92
1, 165423, Control_c, 0, 64, 93
1, 165438, Control_c, 0, 64, 95
1, 165453, Control_c, 0, 64, 98
1, 165467, Control_c, 0, 64, 100
1, 165482, Control_c, 0, 64, 104
1, 165497, Control_c, 0, 64, 108
1, 165511, Control_c, 0, 64, 114
1, 165512, Note_on_c, 0, 68, 56
1, 165524, Note_on_c, 0, 59, 32
1, 165526, Control_c, 0, 64, 127
1, 165625, Note_off_c, 0, 68, 55
1, 165636, Note_off_c, 0, 51, 36
1, 165652, Note_off_c, 0, 59, 59
1, 165981, Note_on_c, 0, 63, 34
1, 165998, Note_on_c, 0, 71, 44
1, 166029, Note_off_c, 0, 63, 57
1, 166032, Note_off_c, 0, 71, 63
1, 166057, Note_on_c, 0, 70, 51
1, 166060, Note_on_c, 0, 79, 43
1, 166100, Note_off_c, 0, 70, 65
1, 166142, Note_on_c, 0, 80, 56
1, 166150, Note_off_c, 0, 79, 61
1, 166171, Note_off_c, 0, 80, 66
1, 166183, Poly_aftertouch_c, 0, 71, 127
1, 166219, Poly_aftertouch_c, 0, 71, 0
1, 166224, Note_on_c, 0, 83, 67
1, 166241, Note_on_c, 0, 75, 53
1, 166272, Note_off_c, 0, 75, 56
1, 166279, Note_off_c, 0, 83, 57
1, 166317, Note_on_c, 0, 82, 49
1, 166317, Note_on_c, 0, 91, 45
1, 166345, Note_off_c, 0, 82, 62
1, 166403, Note_off_c, 0, 91, 65
1, 166411, Note_on_c, 0, 92, 36
1, 166443, Note_off_c, 0, 92, 46
1, 166468, Note_on_c, 0, 95, 63
1, 166508, Note_on_c, 0, 87, 18
1, 166525, Note_off_c, 0, 95, 58
1, 166538, Note_off_c, 0, 87, 43
1, 166562, Note_on_c, 0, 103, 48
1, 166571, Note_on_c, 0, 94, 52
1, 166618, Note_off_c, 0, 94, 56
1, 166639, Note_off_c, 0, 103, 55
1, 166671, Note_on_c, 0, 104, 56
1, 166679, Note_on_c, 0, 95, 38
1, 166865, Note_off_c, 0, 104, 55
1, 166954, Note_off_c, 0, 95, 45
1, 167253, Control_c, 0, 67, 104
1, 167268, Control_c, 0, 67, 40
1, 167283, Control_c, 0, 67, 0
1, 167492, Control_c, 0, 64, 116
1, 167507, Control_c, 0, 64, 99
1, 167522, Control_c, 0, 64, 87
1, 167536, Control_c, 0, 64, 75
1, 167551, Control_c, 0, 64, 64
1, 167566, Control_c, 0, 64, 48
1, 167581, Control_c, 0, 64, 0
1, 167634, Note_on_c, 0, 40, 58
1, 167640, Control_c, 0, 64, 29
1, 167655, Control_c, 0, 64, 41
1, 167669, Control_c, 0, 64, 54
1, 167684, Control_c, 0, 64, 64
1, 167699, Control_c, 0, 64, 67
1, 167713, Control_c, 0, 64, 70
1, 167724, Note_on_c, 0, 47, 64
1, 167728, Control_c, 0, 64, 73
1, 167743, Control_c, 0, 64, 78
1, 167758, Control_c, 0, 64, 86
1, 167763, Note_off_c, 0, 40, 60
1, 167773, Control_c, 0, 64, 99
1, 167787, Control_c, 0, 64, 127
1, 167801, Note_on_c, 0, 55, 64
1, 167829, Note_off_c, 0, 47, 63
1, 167885, Note_off_c, 0, 55, 61
1, 167887, Note_on_c, 0, 59, 56
1, 167957, Note_on_c, 0, 62, 63
1, 167995, Note_off_c, 0, 59, 62
1, 167995, Poly_aftertouch_c, 0, 60, 127
1, 168021, Note_on_c, 0, 71, 80
1, 168033, Poly_aftertouch_c, 0, 60, 0
1, 168110, Note_on_c, 0, 66, 87
1, 168125, Note_off_c, 0, 62, 53
1, 169136, Note_on_c, 0, 64, 59
1, 169209, Note_off_c, 0, 66, 55
1, 169483, Note_off_c, 0, 71, 53
1, 169664, Control_c, 0, 67, 54
1, 169679, Control_c, 0, 67, 79
1, 169693, Control_c, 0, 67, 107
1, 169708, Control_c, 0, 67, 127
1, 169861, Note_off_c, 0, 64, 55
1, 170100, Note_on_c, 0, 39, 53
1, 170102, Control_c, 0, 64, 109
1, 170116, Control_c, 0, 64, 84
1, 170131, Control_c, 0, 64, 68
1, 170146, Control_c, 0, 64, 55
1, 170161, Control_c, 0, 64, 50
1, 170176, Control_c, 0, 64, 52
1, 170190, Control_c, 0, 64, 58
1, 170205, Control_c, 0, 64, 64
1, 170220, Control_c, 0, 64, 71
1, 170235, Control_c, 0, 64, 79
1, 170250, Control_c, 0, 64, 85
1, 170264, Control_c, 0, 64, 87
1, 170279, Control_c, 0, 64, 90
1, 170294, Control_c, 0, 64, 93
1, 170309, Control_c, 0, 64, 96
1, 170309, Note_on_c, 0, 46, 55
1, 170314, Note_off_c, 0, 39, 62
1, 170324, Control_c, 0, 64, 98
1, 170339, Control_c, 0, 64, 101
1, 170354, Control_c, 0, 64, 103
1, 170419, Note_on_c, 0, 55, 48
1, 170455, Note_off_c, 0, 55, 63
1, 170483, Note_off_c, 0, 46, 56
1, 170547, Note_on_c, 0, 55, 45
1, 170662, Note_on_c, 0, 61, 48
1, 170678, Note_off_c, 0, 55, 33
1, 170810, Note_on_c, 0, 66, 56
1, 171024, Note_on_c, 0, 71, 54
1, 171134, Note_off_c, 0, 61, 32
1, 171468, Note_on_c, 0, 78, 58
1, 171728, Note_off_c, 0, 71, 36
1, 171746, Note_off_c, 0, 66, 42
1, 171820, Note_off_c, 0, 78, 60
1, 172555, Control_c, 0, 64, 101
1, 172574, Note_on_c, 0, 76, 41
1, 172787, Note_off_c, 0, 76, 47
1, 172792, Control_c, 0, 64, 99
1, 172926, Control_c, 0, 64, 97
1, 172985, Control_c, 0, 64, 96
1, 173000, Control_c, 0, 64, 95
1, 173029, Control_c, 0, 64, 95
1, 173060, Control_c, 0, 64, 94
1, 173112, Control_c, 0, 64, 94
1, 173141, Control_c, 0, 64, 93
1, 173156, Control_c, 0, 64, 92
1, 173171, Control_c, 0, 64, 88
1, 173186, Control_c, 0, 64, 83
1, 173197, Note_on_c, 0, 32, 47
1, 173201, Control_c, 0, 64, 75
1, 173215, Control_c, 0, 64, 67
1, 173230, Control_c, 0, 64, 59
1, 173245, Control_c, 0, 64, 51
1, 173260, Control_c, 0, 64, 47
1, 173275, Control_c, 0, 64, 45
1, 173304, Note_on_c, 0, 59, 34
1, 173312, Note_on_c, 0, 68, 43
1, 173320, Control_c, 0, 64, 46
1, 173334, Control_c, 0, 64, 48
1, 173349, Control_c, 0, 64, 53
1, 173364, Control_c, 0, 64, 58
1, 173379, Control_c, 0, 64, 63
1, 173394, Control_c, 0, 64, 67
1, 173408, Control_c, 0, 64, 73
1, 173423, Control_c, 0, 64, 76
1, 173438, Control_c, 0, 64, 78
1, 173453, Control_c, 0, 64, 80
1, 173457, Note_off_c, 0, 32, 48
1, 173468, Control_c, 0, 64, 83
1, 173482, Control_c, 0, 64, 85
1, 173497, Control_c, 0, 64, 87
1, 173512, Control_c, 0, 64, 91
1, 173527, Control_c, 0, 64, 93
1, 173541, Control_c, 0, 64, 95
1, 173556, Control_c, 0, 64, 97
1, 173562, Poly_aftertouch_c, 0, 66, 127
1, 173586, Control_c, 0, 64, 99
1, 173615, Control_c, 0, 64, 101
1, 173659, Control_c, 0, 64, 103
1, 173705, Note_on_c, 0, 51, 42
1, 173808, Note_off_c, 0, 51, 59
1, 174390, Note_off_c, 0, 59, 43
1, 174409, Control_c, 0, 64, 105
1, 174533, Poly_aftertouch_c, 0, 66, 0
1, 174598, Note_off_c, 0, 68, 31
1, 175336, Note_on_c, 0, 76, 47
1, 175342, Control_c, 0, 64, 103
1, 175372, Control_c, 0, 64, 101
1, 175386, Control_c, 0, 64, 99
1, 175413, Note_on_c, 0, 75, 50
1, 175416, Control_c, 0, 64, 95
1, 175426, Note_off_c, 0, 76, 51
1, 175430, Control_c, 0, 64, 93
1, 175445, Control_c, 0, 64, 91
1, 175462, Control_c, 0, 64, 89
1, 175477, Note_on_c, 0, 80, 42
1, 175477, Control_c, 0, 64, 87
1, 175484, Note_off_c, 0, 75, 46
1, 175491, Control_c, 0, 64, 86
1, 175506, Control_c, 0, 64, 84
1, 175521, Control_c, 0, 64, 82
1, 175535, Control_c, 0, 64, 81
1, 175550, Control_c, 0, 64, 80
1, 175553, Note_on_c, 0, 83, 41
1, 175565, Control_c, 0, 64, 78
1, 175580, Control_c, 0, 64, 77
1, 175595, Control_c, 0, 64, 76
1, 175609, Control_c, 0, 64, 75
1, 175616, Note_off_c, 0, 80, 38
1, 175624, Control_c, 0, 64, 74
1, 175630, Note_on_c, 0, 92, 48
1, 175639, Control_c, 0, 64, 73
1, 175654, Control_c, 0, 64, 72
1, 175669, Control_c, 0, 64, 71
1, 175683, Control_c, 0, 64, 69
1, 175698, Control_c, 0, 64, 68
1, 175713, Control_c, 0, 64, 67
1, 175728, Control_c, 0, 64, 66
1, 175742, Note_off_c, 0, 83, 32
1, 175743, Control_c, 0, 64, 65
1, 175950, Control_c, 0, 64, 66
1, 175965, Control_c, 0, 64, 66
1, 175994, Control_c, 0, 64, 67
1, 176024, Control_c, 0, 64, 67
1, 176039, Control_c, 0, 64, 68
1, 176053, Control_c, 0, 64, 68
1, 176076, Control_c, 0, 64, 69
1, 176091, Control_c, 0, 64, 69
1, 176106, Control_c, 0, 64, 70
1, 176165, Control_c, 0, 64, 70
1, 176388, Control_c, 0, 64, 70
1, 176551, Control_c, 0, 64, 69
1, 177152, Control_c, 0, 64, 69
1, 177254, Control_c, 0, 64, 68
1, 177284, Control_c, 0, 64, 68
1, 177314, Control_c, 0, 64, 67
1, 177344, Control_c, 0, 64, 67
1, 177373, Control_c, 0, 64, 66
1, 177388, Control_c, 0, 64, 66
1, 177418, Control_c, 0, 64, 65
1, 177462, Control_c, 0, 64, 65
1, 177536, Control_c, 0, 64, 64
1, 177588, Control_c, 0, 64, 64
1, 177632, Control_c, 0, 64, 63
1, 177662, Control_c, 0, 64, 63
1, 177692, Control_c, 0, 64, 62
1, 177706, Control_c, 0, 64, 62
1, 177736, Control_c, 0, 64, 61
1, 177766, Control_c, 0, 64, 61
1, 177795, Control_c, 0, 64, 60
1, 177810, Control_c, 0, 64, 60
1, 177824, Control_c, 0, 64, 59
1, 177856, Control_c, 0, 64, 59
1, 177885, Control_c, 0, 64, 58
1, 177915, Control_c, 0, 64, 58
1, 177944, Control_c, 0, 64, 57
1, 178003, Control_c, 0, 64, 57
1, 178247, Note_off_c, 0, 92, 18
1, 178300, Control_c, 0, 64, 56
1, 179924, Control_c, 0, 64, 56
1, 179954, Control_c, 0, 64, 55
1, 179983, Control_c, 0, 64, 55
1, 180027, Control_c, 0, 64, 54
1, 180057, Control_c, 0, 64, 54
1, 180057, Control_c, 0, 67, 107
1, 180072, Control_c, 0, 67, 80
1, 180087, Control_c, 0, 64, 53
1, 180087, Control_c, 0, 67, 50
1, 180101, Control_c, 0, 64, 53
1, 180101, Control_c, 0, 67, 0
1, 180116, Control_c, 0, 64, 52
1, 180131, Control_c, 0, 64, 52
1, 180146, Control_c, 0, 64, 51
1, 180176, Control_c, 0, 64, 51
1, 180205, Control_c, 0, 64, 50
1, 180235, Control_c, 0, 64, 50
1, 180266, Control_c, 0, 64, 49
1, 180310, Control_c, 0, 64, 49
1, 180532, Control_c, 0, 64, 48
1, 180569, Control_c, 0, 64, 48
1, 180614, Control_c, 0, 64, 47
1, 180643, Control_c, 0, 64, 47
1, 180747, Control_c, 0, 64, 46
1, 181510, Control_c, 0, 64, 47
1, 181554, Control_c, 0, 64, 47
1, 181584, Control_c, 0, 64, 48
1, 181613, Control_c, 0, 64, 48
1, 181643, Control_c, 0, 64, 49
1, 181658, Control_c, 0, 64, 49
1, 181672, Control_c, 0, 64, 50
1, 181687, Control_c, 0, 64, 50
1, 181702, Control_c, 0, 64, 51
1, 181717, Control_c, 0, 64, 52
1, 181732, Control_c, 0, 64, 53
1, 181747, Control_c, 0, 64, 53
1, 181761, Control_c, 0, 64, 54
1, 181776, Control_c, 0, 64, 54
1, 181791, Control_c, 0, 64, 55
1, 181821, Control_c, 0, 64, 55
1, 181866, Control_c, 0, 64, 56
1, 181910, Control_c, 0, 64, 56
1, 181970, Control_c, 0, 64, 57
1, 182259, Control_c, 0, 64, 57
1, 182496, Control_c, 0, 64, 57
1, 183127, Control_c, 0, 64, 56
1, 183142, Control_c, 0, 64, 56
1, 183156, Control_c, 0, 64, 55
1, 183171, Control_c, 0, 64, 54
1, 183186, Control_c, 0, 64, 53
1, 183201, Control_c, 0, 64, 52
1, 183216, Control_c, 0, 64, 52
1, 183231, Control_c, 0, 64, 51
1, 183275, Control_c, 0, 64, 51
1, 183305, Control_c, 0, 64, 50
1, 183364, Control_c, 0, 64, 51
1, 183393, Control_c, 0, 64, 51
1, 183513, Control_c, 0, 64, 52
1, 183654, Control_c, 0, 64, 52
1, 184128, Control_c, 0, 64, 53
1, 184186, Control_c, 0, 64, 53
1, 184201, Control_c, 0, 64, 54
1, 184232, Control_c, 0, 64, 54
1, 184247, Control_c, 0, 64, 55
1, 184277, Control_c, 0, 64, 55
1, 184313, Control_c, 0, 64, 56
1, 184358, Control_c, 0, 64, 56
1, 184565, Control_c, 0, 64, 57
1, 184758, Control_c, 0, 64, 57
1, 185092, Control_c, 0, 64, 58
1, 185151, Control_c, 0, 64, 58
1, 185240, Control_c, 0, 64, 59
1, 185788, Control_c, 0, 64, 59
1, 186738, Control_c, 0, 64, 60
1, 186797, Control_c, 0, 64, 60
1, 186841, Control_c, 0, 64, 61
1, 186871, Control_c, 0, 64, 61
1, 186886, Control_c, 0, 64, 62
1, 186901, Control_c, 0, 64, 63
1, 186915, Control_c, 0, 64, 64
1, 186930, Control_c, 0, 64, 66
1, 186945, Control_c, 0, 64, 68
1, 186960, Control_c, 0, 64, 70
1, 186975, Control_c, 0, 64, 72
1, 186990, Control_c, 0, 64, 73
1, 187004, Control_c, 0, 64, 74
1, 187019, Control_c, 0, 64, 75
1, 187034, Control_c, 0, 64, 77
1, 187049, Control_c, 0, 64, 78
1, 187064, Control_c, 0, 64, 79
1, 187078, Control_c, 0, 64, 81
1, 187093, Control_c, 0, 64, 82
1, 187108, Control_c, 0, 64, 83
1, 187123, Control_c, 0, 64, 84
1, 187138, Control_c, 0, 64, 85
1, 187152, Control_c, 0, 64, 85
1, 187167, Control_c, 0, 64, 86
1, 187197, Control_c, 0, 64, 86
1, 187308, Control_c, 0, 64, 86
1, 187323, Control_c, 0, 64, 81
1, 187338, Control_c, 0, 64, 73
1, 187353, Control_c, 0, 64, 62
1, 187367, Control_c, 0, 64, 41
1, 187382, Control_c, 0, 64, 0
1, 187382, End_track
0, 0, End_of_file
