0, 0, Header, 0, 1, 384
1, 0, Start_track
1, 0, Title_t, "Islamey--Howard Na              "
1, 0, Text_t, "2006 International Piano-e-Competition Recital Round"
1, 0, Text_t, "St. Paul, Minnesota, July 2006"
1, 0, Text_t, "http://www.piano-e-competition.com/"
1, 0, Instrument_name_t, "Yamaha Disklavier Pro Mark IV concert grand piano"
1, 0, Sequencer_specific, 39, 67, 113, 0, 1, 0, 1, 0, 73, 115, 108, 97, 109, 101, 121, 32, 32, 32, 32, 32, 32, 32, 32, 32, 72, 111, 119, 97, 114, 100, 32, 78, 97, 32, 32, 32, 32, 32, 32, 32
1, 0, Sequencer_specific, 6, 67, 113, 0, 0, 0, 69
1, 0, System_exclusive, 21, 67, 113, 126, 21, 0, 2, 2, 0, 14, 5, 1, 4, 4, 10, 9, 6, 8, 1, 2, 6, 247
1, 0, Sequencer_specific, 5, 67, 123, 12, 2, 1
1, 0, Tempo, 512820
1, 0, Time_signature, 4, 2, 24, 8
1, 0, System_exclusive, 5, 126, 127, 9, 1, 247
1, 1, System_exclusive, 8, 67, 16, 76, 0, 0, 126, 0, 247
1, 2, System_exclusive, 8, 67, 16, 76, 8, 9, 7, 1, 247
1, 3, Control_c, 0, 0, 0
1, 4, Control_c, 0, 32, 0
1, 5, Program_c, 0, 0
1, 6, Control_c, 0, 7, 100
1, 95, Control_c, 0, 64, 5
1, 184, Control_c, 0, 64, 10
1, 273, Control_c, 0, 64, 15
1, 362, Control_c, 0, 64, 21
1, 452, Control_c, 0, 64, 25
1, 541, Control_c, 0, 64, 31
1, 630, Control_c, 0, 64, 35
1, 719, Control_c, 0, 64, 42
1, 902, Note_on_c, 0, 58, 103
1, 903, Control_c, 0, 64, 52
1, 917, Control_c, 0, 64, 58
1, 932, Control_c, 0, 64, 61
1, 937, Note_off_c, 0, 58, 68
1, 947, Control_c, 0, 64, 62
1, 961, Control_c, 0, 64, 62
1, 976, Control_c, 0, 64, 63
1, 982, Note_on_c, 0, 58, 84
1, 991, Control_c, 0, 64, 63
1, 1006, Control_c, 0, 64, 64
1, 1007, Note_off_c, 0, 58, 67
1, 1021, Control_c, 0, 64, 65
1, 1035, Control_c, 0, 64, 65
1, 1060, Note_on_c, 0, 58, 92
1, 1065, Control_c, 0, 64, 66
1, 1097, Note_off_c, 0, 58, 65
1, 1140, Control_c, 0, 64, 65
1, 1143, Note_on_c, 0, 58, 99
1, 1154, Control_c, 0, 64, 63
1, 1169, Control_c, 0, 64, 60
1, 1178, Note_off_c, 0, 58, 65
1, 1184, Control_c, 0, 64, 58
1, 1214, Control_c, 0, 64, 60
1, 1222, Note_on_c, 0, 57, 86
1, 1228, Control_c, 0, 64, 62
1, 1243, Control_c, 0, 64, 64
1, 1258, Control_c, 0, 64, 66
1, 1265, Note_off_c, 0, 57, 65
1, 1273, Control_c, 0, 64, 67
1, 1287, Control_c, 0, 64, 68
1, 1298, Note_on_c, 0, 58, 94
1, 1332, Control_c, 0, 64, 66
1, 1341, Note_off_c, 0, 58, 66
1, 1347, Control_c, 0, 64, 60
1, 1361, Control_c, 0, 64, 42
1, 1384, Control_c, 0, 64, 0
1, 1387, Note_on_c, 0, 54, 99
1, 1421, Note_off_c, 0, 54, 63
1, 1443, Control_c, 0, 64, 42
1, 1453, Poly_aftertouch_c, 0, 54, 0
1, 1458, Note_on_c, 0, 54, 78
1, 1458, Control_c, 0, 64, 58
1, 1473, Control_c, 0, 64, 66
1, 1487, Control_c, 0, 64, 69
1, 1493, Note_off_c, 0, 54, 67
1, 1502, Control_c, 0, 64, 71
1, 1517, Control_c, 0, 64, 72
1, 1532, Control_c, 0, 64, 73
1, 1540, Note_on_c, 0, 57, 95
1, 1547, Control_c, 0, 64, 74
1, 1563, Control_c, 0, 64, 75
1, 1578, Control_c, 0, 64, 75
1, 1581, Note_off_c, 0, 57, 66
1, 1592, Control_c, 0, 64, 75
1, 1607, Control_c, 0, 64, 70
1, 1620, Note_on_c, 0, 58, 103
1, 1622, Control_c, 0, 64, 60
1, 1637, Control_c, 0, 64, 0
1, 1657, Note_off_c, 0, 58, 66
1, 1694, Note_on_c, 0, 61, 90
1, 1696, Control_c, 0, 64, 48
1, 1711, Control_c, 0, 64, 62
1, 1726, Control_c, 0, 64, 69
1, 1739, Note_off_c, 0, 61, 67
1, 1739, Control_c, 0, 64, 72
1, 1754, Control_c, 0, 64, 74
1, 1769, Control_c, 0, 64, 75
1, 1770, Note_on_c, 0, 60, 96
1, 1784, Control_c, 0, 64, 75
1, 1808, Note_off_c, 0, 60, 68
1, 1828, Control_c, 0, 64, 71
1, 1843, Control_c, 0, 64, 54
1, 1852, Note_on_c, 0, 56, 102
1, 1858, Control_c, 0, 64, 0
1, 1886, Note_off_c, 0, 56, 68
1, 1917, Control_c, 0, 64, 46
1, 1924, Note_on_c, 0, 56, 82
1, 1932, Control_c, 0, 64, 62
1, 1947, Control_c, 0, 64, 69
1, 1962, Control_c, 0, 64, 72
1, 1962, Note_off_c, 0, 56, 65
1, 1977, Control_c, 0, 64, 74
1, 1991, Control_c, 0, 64, 75
1, 1998, Note_on_c, 0, 56, 90
1, 2006, Control_c, 0, 64, 77
1, 2021, Control_c, 0, 64, 78
1, 2041, Note_off_c, 0, 56, 67
1, 2051, Control_c, 0, 64, 73
1, 2065, Control_c, 0, 64, 61
1, 2075, Note_on_c, 0, 56, 99
1, 2080, Control_c, 0, 64, 0
1, 2107, Note_off_c, 0, 56, 68
1, 2124, Control_c, 0, 64, 30
1, 2147, Control_c, 0, 64, 53
1, 2162, Control_c, 0, 64, 65
1, 2166, Note_on_c, 0, 53, 88
1, 2177, Control_c, 0, 64, 70
1, 2191, Control_c, 0, 64, 72
1, 2206, Control_c, 0, 64, 74
1, 2221, Control_c, 0, 64, 76
1, 2236, Control_c, 0, 64, 79
1, 2238, Note_on_c, 0, 54, 91
1, 2249, Note_off_c, 0, 53, 59
1, 2251, Control_c, 0, 64, 80
1, 2265, Control_c, 0, 64, 80
1, 2275, Note_off_c, 0, 54, 64
1, 2280, Control_c, 0, 64, 75
1, 2295, Control_c, 0, 64, 60
1, 2309, Control_c, 0, 64, 0
1, 2310, Note_on_c, 0, 56, 108
1, 2349, Note_off_c, 0, 56, 67
1, 2398, Note_on_c, 0, 58, 92
1, 2460, Note_off_c, 0, 58, 65
1, 2464, Note_on_c, 0, 56, 96
1, 2488, Control_c, 0, 64, 59
1, 2503, Control_c, 0, 64, 73
1, 2518, Control_c, 0, 64, 85
1, 2523, Note_off_c, 0, 56, 65
1, 2532, Control_c, 0, 64, 101
1, 2539, Note_on_c, 0, 53, 98
1, 2547, Control_c, 0, 64, 127
1, 2606, Control_c, 0, 64, 104
1, 2608, Note_off_c, 0, 53, 64
1, 2621, Control_c, 0, 64, 67
1, 2621, Control_c, 0, 67, 70
1, 2636, Control_c, 0, 64, 0
1, 2636, Control_c, 0, 67, 127
1, 2790, Note_on_c, 0, 58, 81
1, 2811, Note_off_c, 0, 58, 67
1, 2863, Note_on_c, 0, 58, 74
1, 2900, Note_off_c, 0, 58, 68
1, 2952, Note_on_c, 0, 58, 68
1, 2985, Note_off_c, 0, 58, 68
1, 3065, Note_on_c, 0, 58, 54
1, 3083, Note_off_c, 0, 58, 41
1, 3117, Note_on_c, 0, 57, 73
1, 3159, Note_off_c, 0, 57, 59
1, 3194, Note_on_c, 0, 58, 66
1, 3226, Note_off_c, 0, 58, 68
1, 3273, Note_on_c, 0, 54, 80
1, 3294, Note_off_c, 0, 54, 68
1, 3343, Note_on_c, 0, 54, 72
1, 3389, Note_off_c, 0, 54, 60
1, 3423, Note_on_c, 0, 57, 76
1, 3448, Note_off_c, 0, 57, 68
1, 3504, Note_on_c, 0, 58, 82
1, 3525, Note_off_c, 0, 58, 68
1, 3584, Note_on_c, 0, 61, 69
1, 3620, Note_off_c, 0, 61, 66
1, 3659, Note_on_c, 0, 60, 73
1, 3682, Note_off_c, 0, 60, 69
1, 3740, Note_on_c, 0, 56, 80
1, 3765, Note_off_c, 0, 56, 68
1, 3821, Note_on_c, 0, 56, 66
1, 3840, Note_off_c, 0, 56, 63
1, 3885, Note_on_c, 0, 56, 72
1, 3913, Note_off_c, 0, 56, 66
1, 3962, Note_on_c, 0, 56, 95
1, 3981, Note_off_c, 0, 56, 71
1, 4043, Note_on_c, 0, 53, 69
1, 4076, Note_off_c, 0, 53, 60
1, 4105, Note_on_c, 0, 54, 72
1, 4129, Note_off_c, 0, 54, 68
1, 4178, Note_on_c, 0, 56, 88
1, 4200, Note_off_c, 0, 56, 71
1, 4261, Note_on_c, 0, 58, 77
1, 4308, Note_off_c, 0, 58, 62
1, 4325, Note_on_c, 0, 56, 69
1, 4361, Note_off_c, 0, 56, 63
1, 4421, Note_on_c, 0, 53, 88
1, 4438, Control_c, 0, 64, 33
1, 4453, Control_c, 0, 64, 43
1, 4453, Control_c, 0, 67, 78
1, 4467, Control_c, 0, 64, 0
1, 4467, Control_c, 0, 67, 0
1, 4475, Note_off_c, 0, 53, 66
1, 4680, Note_on_c, 0, 54, 103
1, 4690, Control_c, 0, 64, 54
1, 4704, Control_c, 0, 64, 88
1, 4711, Note_off_c, 0, 54, 68
1, 4719, Control_c, 0, 64, 127
1, 4758, Note_on_c, 0, 54, 92
1, 4797, Note_off_c, 0, 54, 64
1, 4833, Note_on_c, 0, 57, 85
1, 4875, Note_off_c, 0, 57, 65
1, 4912, Control_c, 0, 64, 95
1, 4914, Note_on_c, 0, 58, 110
1, 4926, Control_c, 0, 64, 69
1, 4941, Control_c, 0, 64, 51
1, 4949, Note_off_c, 0, 58, 68
1, 4956, Control_c, 0, 64, 43
1, 4971, Control_c, 0, 64, 49
1, 4986, Control_c, 0, 64, 61
1, 4988, Note_on_c, 0, 58, 84
1, 5000, Control_c, 0, 64, 74
1, 5015, Control_c, 0, 64, 94
1, 5030, Control_c, 0, 64, 127
1, 5037, Note_off_c, 0, 58, 64
1, 5063, Note_on_c, 0, 60, 89
1, 5101, Note_off_c, 0, 60, 67
1, 5159, Note_on_c, 0, 63, 104
1, 5171, Control_c, 0, 64, 81
1, 5186, Control_c, 0, 64, 56
1, 5191, Note_off_c, 0, 63, 70
1, 5200, Control_c, 0, 64, 0
1, 5215, Control_c, 0, 64, 34
1, 5230, Control_c, 0, 64, 53
1, 5235, Note_on_c, 0, 63, 89
1, 5245, Control_c, 0, 64, 69
1, 5260, Control_c, 0, 64, 85
1, 5274, Control_c, 0, 64, 114
1, 5289, Control_c, 0, 64, 127
1, 5307, Note_on_c, 0, 61, 90
1, 5351, Note_off_c, 0, 61, 66
1, 5352, Note_off_c, 0, 63, 61
1, 5389, Note_on_c, 0, 60, 103
1, 5393, Control_c, 0, 64, 122
1, 5408, Control_c, 0, 64, 70
1, 5421, Note_off_c, 0, 60, 69
1, 5423, Control_c, 0, 64, 0
1, 5467, Control_c, 0, 64, 41
1, 5472, Note_on_c, 0, 60, 87
1, 5483, Control_c, 0, 64, 61
1, 5498, Control_c, 0, 64, 72
1, 5513, Control_c, 0, 64, 84
1, 5527, Control_c, 0, 64, 91
1, 5539, Note_on_c, 0, 58, 98
1, 5542, Control_c, 0, 64, 95
1, 5553, Note_off_c, 0, 60, 56
1, 5557, Control_c, 0, 64, 99
1, 5581, Note_off_c, 0, 58, 67
1, 5602, Control_c, 0, 64, 78
1, 5617, Control_c, 0, 64, 43
1, 5620, Note_on_c, 0, 56, 115
1, 5632, Control_c, 0, 64, 0
1, 5653, Note_off_c, 0, 56, 68
1, 5677, Control_c, 0, 64, 52
1, 5692, Control_c, 0, 64, 66
1, 5705, Note_on_c, 0, 56, 84
1, 5706, Control_c, 0, 64, 73
1, 5721, Control_c, 0, 64, 79
1, 5736, Control_c, 0, 64, 82
1, 5750, Control_c, 0, 64, 85
1, 5751, Note_off_c, 0, 56, 64
1, 5765, Control_c, 0, 64, 89
1, 5778, Note_on_c, 0, 56, 76
1, 5780, Control_c, 0, 64, 93
1, 5795, Control_c, 0, 64, 95
1, 5806, Note_off_c, 0, 56, 66
1, 5824, Control_c, 0, 64, 96
1, 5839, Control_c, 0, 64, 84
1, 5854, Control_c, 0, 64, 62
1, 5864, Note_on_c, 0, 61, 110
1, 5876, Control_c, 0, 64, 0
1, 5903, Note_off_c, 0, 61, 70
1, 5936, Control_c, 0, 64, 55
1, 5947, Note_on_c, 0, 61, 79
1, 5950, Control_c, 0, 64, 66
1, 5965, Control_c, 0, 64, 70
1, 5980, Control_c, 0, 64, 72
1, 5995, Control_c, 0, 64, 74
1, 6010, Control_c, 0, 64, 78
1, 6017, Note_on_c, 0, 60, 90
1, 6021, Note_off_c, 0, 61, 61
1, 6024, Control_c, 0, 64, 84
1, 6039, Control_c, 0, 64, 90
1, 6054, Control_c, 0, 64, 95
1, 6061, Note_off_c, 0, 60, 64
1, 6083, Control_c, 0, 64, 89
1, 6098, Control_c, 0, 64, 67
1, 6106, Note_on_c, 0, 58, 104
1, 6113, Control_c, 0, 64, 0
1, 6138, Note_off_c, 0, 58, 68
1, 6157, Control_c, 0, 64, 36
1, 6172, Control_c, 0, 64, 61
1, 6177, Note_on_c, 0, 56, 88
1, 6187, Control_c, 0, 64, 73
1, 6202, Control_c, 0, 64, 83
1, 6217, Control_c, 0, 64, 94
1, 6231, Control_c, 0, 64, 107
1, 6246, Control_c, 0, 64, 127
1, 6250, Note_off_c, 0, 56, 61
1, 6256, Note_on_c, 0, 58, 96
1, 6315, Note_off_c, 0, 58, 63
1, 6320, Control_c, 0, 64, 122
1, 6335, Control_c, 0, 64, 65
1, 6347, Note_on_c, 0, 53, 98
1, 6351, Control_c, 0, 64, 0
1, 6395, Control_c, 0, 67, 41
1, 6410, Control_c, 0, 67, 92
1, 6425, Control_c, 0, 67, 127
1, 6439, Note_off_c, 0, 53, 64
1, 6604, Note_on_c, 0, 54, 85
1, 6631, Note_off_c, 0, 54, 69
1, 6684, Note_on_c, 0, 54, 73
1, 6750, Note_off_c, 0, 54, 59
1, 6759, Note_on_c, 0, 57, 77
1, 6785, Note_off_c, 0, 57, 69
1, 6845, Note_on_c, 0, 58, 77
1, 6871, Note_off_c, 0, 58, 68
1, 6936, Note_on_c, 0, 58, 71
1, 6976, Note_off_c, 0, 58, 54
1, 6998, Note_on_c, 0, 60, 74
1, 7032, Note_off_c, 0, 60, 66
1, 7090, Note_on_c, 0, 63, 79
1, 7111, Note_off_c, 0, 63, 71
1, 7174, Note_on_c, 0, 63, 75
1, 7236, Note_on_c, 0, 61, 69
1, 7265, Note_off_c, 0, 63, 61
1, 7277, Note_off_c, 0, 61, 64
1, 7322, Note_on_c, 0, 60, 68
1, 7343, Note_off_c, 0, 60, 65
1, 7405, Note_on_c, 0, 60, 79
1, 7471, Note_off_c, 0, 60, 58
1, 7478, Note_on_c, 0, 58, 79
1, 7508, Note_off_c, 0, 58, 67
1, 7558, Note_on_c, 0, 56, 93
1, 7578, Note_off_c, 0, 56, 72
1, 7643, Note_on_c, 0, 56, 83
1, 7672, Note_off_c, 0, 56, 67
1, 7712, Note_on_c, 0, 56, 74
1, 7742, Note_off_c, 0, 56, 67
1, 7797, Note_on_c, 0, 61, 92
1, 7818, Note_off_c, 0, 61, 71
1, 7875, Note_on_c, 0, 61, 70
1, 7918, Note_off_c, 0, 61, 63
1, 7949, Note_on_c, 0, 60, 74
1, 7976, Note_off_c, 0, 60, 67
1, 8037, Note_on_c, 0, 58, 89
1, 8058, Note_off_c, 0, 58, 71
1, 8124, Note_on_c, 0, 56, 73
1, 8178, Note_off_c, 0, 56, 58
1, 8192, Note_on_c, 0, 58, 63
1, 8242, Note_off_c, 0, 58, 62
1, 8285, Control_c, 0, 67, 58
1, 8294, Note_on_c, 0, 53, 86
1, 8300, Control_c, 0, 64, 39
1, 8300, Control_c, 0, 67, 0
1, 8315, Control_c, 0, 64, 68
1, 8330, Control_c, 0, 64, 80
1, 8336, Note_off_c, 0, 53, 60
1, 8345, Control_c, 0, 64, 89
1, 8359, Control_c, 0, 64, 92
1, 8374, Control_c, 0, 64, 96
1, 8389, Control_c, 0, 64, 100
1, 8419, Control_c, 0, 64, 102
1, 8449, Control_c, 0, 64, 107
1, 8464, Control_c, 0, 64, 118
1, 8479, Control_c, 0, 64, 127
1, 8583, Note_on_c, 0, 70, 98
1, 8583, Control_c, 0, 64, 94
1, 8583, Note_on_c, 0, 66, 97
1, 8587, Note_on_c, 0, 61, 84
1, 8592, Note_on_c, 0, 56, 78
1, 8597, Note_off_c, 0, 70, 74
1, 8598, Control_c, 0, 64, 62
1, 8606, Note_off_c, 0, 66, 69
1, 8613, Control_c, 0, 64, 0
1, 8619, Note_off_c, 0, 56, 67
1, 8625, Note_off_c, 0, 61, 61
1, 8664, Note_on_c, 0, 70, 77
1, 8666, Note_on_c, 0, 66, 83
1, 8690, Note_off_c, 0, 70, 66
1, 8697, Note_off_c, 0, 66, 65
1, 8756, Note_on_c, 0, 66, 76
1, 8762, Note_on_c, 0, 70, 75
1, 8780, Note_off_c, 0, 66, 69
1, 8782, Note_off_c, 0, 70, 72
1, 8842, Note_on_c, 0, 70, 85
1, 8845, Note_on_c, 0, 56, 99
1, 8848, Note_on_c, 0, 67, 83
1, 8849, Note_on_c, 0, 49, 88
1, 8851, Control_c, 0, 64, 44
1, 8873, Control_c, 0, 64, 81
1, 8888, Control_c, 0, 64, 127
1, 8906, Note_off_c, 0, 67, 62
1, 8926, Note_off_c, 0, 70, 59
1, 8938, Note_on_c, 0, 65, 84
1, 9020, Note_on_c, 0, 70, 83
1, 9022, Note_off_c, 0, 65, 60
1, 9030, Note_on_c, 0, 66, 76
1, 9030, Note_off_c, 0, 49, 60
1, 9030, Note_off_c, 0, 56, 58
1, 9072, Note_off_c, 0, 70, 62
1, 9080, Note_off_c, 0, 66, 58
1, 9099, Note_on_c, 0, 62, 90
1, 9179, Note_off_c, 0, 62, 60
1, 9182, Note_on_c, 0, 66, 84
1, 9183, Note_on_c, 0, 63, 83
1, 9230, Note_off_c, 0, 63, 63
1, 9239, Note_off_c, 0, 66, 63
1, 9264, Note_on_c, 0, 65, 88
1, 9301, Control_c, 0, 64, 94
1, 9316, Control_c, 0, 64, 59
1, 9322, Note_off_c, 0, 65, 58
1, 9331, Control_c, 0, 64, 0
1, 9343, Note_on_c, 0, 49, 91
1, 9344, Note_on_c, 0, 66, 99
1, 9348, Note_on_c, 0, 37, 81
1, 9348, Note_on_c, 0, 70, 95
1, 9376, Control_c, 0, 64, 51
1, 9378, Note_off_c, 0, 37, 67
1, 9389, Note_off_c, 0, 49, 64
1, 9391, Control_c, 0, 64, 72
1, 9406, Control_c, 0, 64, 99
1, 9406, Note_off_c, 0, 66, 63
1, 9420, Control_c, 0, 64, 127
1, 9431, Note_on_c, 0, 73, 80
1, 9435, Note_off_c, 0, 70, 62
1, 9500, Note_off_c, 0, 73, 62
1, 9505, Note_on_c, 0, 72, 84
1, 9509, Note_on_c, 0, 68, 90
1, 9539, Note_off_c, 0, 68, 61
1, 9548, Note_off_c, 0, 72, 63
1, 9579, Note_on_c, 0, 68, 94
1, 9585, Note_on_c, 0, 56, 90
1, 9586, Note_on_c, 0, 65, 84
1, 9590, Note_on_c, 0, 61, 79
1, 9605, Note_off_c, 0, 65, 72
1, 9611, Note_off_c, 0, 68, 63
1, 9621, Control_c, 0, 64, 104
1, 9636, Control_c, 0, 64, 69
1, 9641, Note_off_c, 0, 61, 62
1, 9643, Note_off_c, 0, 56, 59
1, 9651, Control_c, 0, 64, 35
1, 9666, Control_c, 0, 64, 0
1, 9669, Note_on_c, 0, 68, 81
1, 9672, Note_on_c, 0, 65, 79
1, 9692, Note_off_c, 0, 68, 63
1, 9695, Note_off_c, 0, 65, 68
1, 9747, Note_on_c, 0, 68, 72
1, 9751, Note_on_c, 0, 65, 74
1, 9781, Note_off_c, 0, 68, 57
1, 9790, Note_off_c, 0, 65, 65
1, 9838, Note_on_c, 0, 56, 98
1, 9838, Note_on_c, 0, 68, 87
1, 9844, Control_c, 0, 64, 63
1, 9844, Note_on_c, 0, 49, 89
1, 9845, Note_on_c, 0, 65, 78
1, 9858, Control_c, 0, 64, 72
1, 9873, Control_c, 0, 64, 73
1, 9898, Note_off_c, 0, 65, 63
1, 9913, Note_off_c, 0, 68, 60
1, 9933, Note_on_c, 0, 61, 88
1, 9985, Note_off_c, 0, 61, 62
1, 9992, Control_c, 0, 64, 73
1, 10014, Note_on_c, 0, 66, 87
1, 10017, Note_on_c, 0, 63, 85
1, 10021, Control_c, 0, 64, 74
1, 10050, Note_off_c, 0, 63, 61
1, 10050, Control_c, 0, 64, 74
1, 10056, Note_off_c, 0, 66, 63
1, 10059, Note_off_c, 0, 56, 59
1, 10061, Note_off_c, 0, 49, 60
1, 10088, Note_on_c, 0, 65, 93
1, 10124, Control_c, 0, 64, 75
1, 10139, Control_c, 0, 64, 75
1, 10145, Note_off_c, 0, 65, 60
1, 10154, Control_c, 0, 64, 76
1, 10169, Control_c, 0, 64, 78
1, 10184, Note_on_c, 0, 66, 58
1, 10184, Control_c, 0, 64, 80
1, 10192, Note_on_c, 0, 71, 66
1, 10193, Note_on_c, 0, 67, 71
1, 10199, Note_on_c, 0, 70, 50
1, 10199, Control_c, 0, 64, 83
1, 10214, Control_c, 0, 64, 90
1, 10214, Note_off_c, 0, 66, 50
1, 10221, Note_off_c, 0, 67, 65
1, 10222, Note_off_c, 0, 70, 60
1, 10223, Note_off_c, 0, 71, 62
1, 10228, Control_c, 0, 64, 97
1, 10243, Control_c, 0, 64, 106
1, 10250, Note_on_c, 0, 65, 87
1, 10258, Control_c, 0, 64, 114
1, 10273, Control_c, 0, 64, 111
1, 10288, Control_c, 0, 64, 86
1, 10297, Note_off_c, 0, 65, 66
1, 10303, Control_c, 0, 64, 59
1, 10317, Control_c, 0, 64, 0
1, 10341, Note_on_c, 0, 49, 87
1, 10342, Note_on_c, 0, 37, 85
1, 10343, Note_on_c, 0, 65, 88
1, 10344, Note_on_c, 0, 61, 96
1, 10363, Control_c, 0, 64, 52
1, 10382, Note_off_c, 0, 37, 71
1, 10385, Control_c, 0, 64, 70
1, 10392, Note_off_c, 0, 65, 58
1, 10398, Note_off_c, 0, 61, 67
1, 10400, Control_c, 0, 64, 89
1, 10402, Note_off_c, 0, 49, 63
1, 10415, Control_c, 0, 64, 127
1, 10488, Control_c, 0, 67, 48
1, 10503, Control_c, 0, 67, 85
1, 10518, Control_c, 0, 67, 127
1, 10547, Control_c, 0, 64, 106
1, 10562, Control_c, 0, 64, 74
1, 10577, Control_c, 0, 64, 50
1, 10592, Control_c, 0, 64, 0
1, 10624, Note_on_c, 0, 70, 88
1, 10625, Note_on_c, 0, 66, 79
1, 10628, Note_on_c, 0, 56, 78
1, 10634, Note_on_c, 0, 61, 69
1, 10642, Note_off_c, 0, 70, 73
1, 10648, Note_off_c, 0, 66, 71
1, 10657, Note_off_c, 0, 56, 67
1, 10663, Note_off_c, 0, 61, 66
1, 10697, Note_on_c, 0, 66, 76
1, 10701, Note_on_c, 0, 70, 62
1, 10722, Note_off_c, 0, 66, 69
1, 10726, Note_off_c, 0, 70, 64
1, 10782, Note_on_c, 0, 66, 74
1, 10792, Note_on_c, 0, 70, 62
1, 10817, Note_off_c, 0, 66, 62
1, 10840, Note_off_c, 0, 70, 0
1, 10856, Note_on_c, 0, 66, 68
1, 10872, Note_on_c, 0, 56, 77
1, 10876, Poly_aftertouch_c, 0, 70, 127
1, 10879, Note_on_c, 0, 49, 69
1, 10926, Note_off_c, 0, 66, 63
1, 10939, Poly_aftertouch_c, 0, 70, 0
1, 10947, Control_c, 0, 64, 34
1, 10948, Note_on_c, 0, 65, 75
1, 10962, Control_c, 0, 64, 44
1, 10977, Control_c, 0, 64, 55
1, 10992, Control_c, 0, 64, 60
1, 11007, Control_c, 0, 64, 61
1, 11015, Note_off_c, 0, 65, 60
1, 11021, Control_c, 0, 64, 62
1, 11029, Note_on_c, 0, 70, 74
1, 11036, Note_on_c, 0, 66, 71
1, 11051, Control_c, 0, 64, 62
1, 11069, Note_off_c, 0, 66, 65
1, 11073, Note_off_c, 0, 70, 62
1, 11102, Note_on_c, 0, 62, 83
1, 11109, Note_off_c, 0, 56, 61
1, 11111, Control_c, 0, 64, 63
1, 11123, Note_off_c, 0, 49, 62
1, 11164, Control_c, 0, 64, 63
1, 11178, Control_c, 0, 64, 64
1, 11179, Note_off_c, 0, 62, 60
1, 11185, Note_on_c, 0, 66, 77
1, 11190, Note_on_c, 0, 63, 71
1, 11208, Control_c, 0, 64, 64
1, 11223, Control_c, 0, 64, 65
1, 11237, Note_off_c, 0, 66, 63
1, 11238, Control_c, 0, 64, 64
1, 11242, Note_off_c, 0, 63, 51
1, 11252, Control_c, 0, 64, 62
1, 11266, Note_on_c, 0, 65, 75
1, 11267, Control_c, 0, 64, 54
1, 11282, Control_c, 0, 64, 28
1, 11296, Control_c, 0, 64, 0
1, 11354, Note_on_c, 0, 66, 76
1, 11356, Control_c, 0, 64, 37
1, 11361, Note_on_c, 0, 70, 74
1, 11370, Control_c, 0, 64, 54
1, 11372, Note_on_c, 0, 49, 60
1, 11375, Note_on_c, 0, 37, 51
1, 11385, Control_c, 0, 64, 64
1, 11390, Note_off_c, 0, 65, 54
1, 11400, Control_c, 0, 64, 69
1, 11409, Note_off_c, 0, 37, 57
1, 11415, Control_c, 0, 64, 74
1, 11422, Note_off_c, 0, 49, 58
1, 11424, Note_off_c, 0, 66, 62
1, 11430, Control_c, 0, 64, 78
1, 11445, Control_c, 0, 64, 86
1, 11451, Note_on_c, 0, 73, 70
1, 11453, Note_off_c, 0, 70, 60
1, 11460, Control_c, 0, 64, 96
1, 11475, Control_c, 0, 64, 110
1, 11490, Control_c, 0, 64, 127
1, 11515, Note_on_c, 0, 72, 82
1, 11518, Note_on_c, 0, 68, 84
1, 11540, Note_off_c, 0, 73, 61
1, 11542, Note_off_c, 0, 68, 66
1, 11556, Note_off_c, 0, 72, 60
1, 11579, Control_c, 0, 67, 102
1, 11594, Control_c, 0, 67, 54
1, 11603, Note_on_c, 0, 68, 90
1, 11605, Note_on_c, 0, 56, 87
1, 11609, Control_c, 0, 67, 0
1, 11614, Note_on_c, 0, 65, 65
1, 11615, Note_on_c, 0, 61, 72
1, 11620, Note_off_c, 0, 68, 72
1, 11635, Note_off_c, 0, 65, 65
1, 11641, Note_off_c, 0, 61, 69
1, 11642, Note_off_c, 0, 56, 54
1, 11653, Control_c, 0, 64, 97
1, 11668, Control_c, 0, 64, 78
1, 11683, Control_c, 0, 64, 65
1, 11686, Note_on_c, 0, 65, 78
1, 11691, Note_on_c, 0, 68, 78
1, 11697, Control_c, 0, 64, 53
1, 11707, Note_off_c, 0, 68, 72
1, 11712, Note_off_c, 0, 65, 61
1, 11712, Control_c, 0, 64, 43
1, 11727, Control_c, 0, 64, 41
1, 11742, Control_c, 0, 64, 42
1, 11757, Control_c, 0, 64, 43
1, 11768, Note_on_c, 0, 68, 64
1, 11769, Note_on_c, 0, 65, 67
1, 11771, Control_c, 0, 64, 43
1, 11797, Note_off_c, 0, 68, 66
1, 11803, Note_off_c, 0, 65, 63
1, 11840, Note_on_c, 0, 56, 84
1, 11844, Note_on_c, 0, 68, 78
1, 11845, Note_on_c, 0, 49, 74
1, 11848, Note_on_c, 0, 65, 66
1, 11916, Note_off_c, 0, 65, 64
1, 11920, Note_off_c, 0, 68, 62
1, 11938, Note_on_c, 0, 61, 77
1, 11942, Control_c, 0, 64, 44
1, 11957, Control_c, 0, 64, 44
1, 11972, Control_c, 0, 64, 45
1, 11977, Note_off_c, 0, 61, 60
1, 12002, Control_c, 0, 64, 45
1, 12014, Note_on_c, 0, 66, 77
1, 12017, Control_c, 0, 64, 45
1, 12018, Note_on_c, 0, 63, 73
1, 12047, Control_c, 0, 64, 44
1, 12048, Note_off_c, 0, 63, 64
1, 12054, Note_off_c, 0, 66, 64
1, 12062, Note_off_c, 0, 56, 61
1, 12062, Control_c, 0, 64, 43
1, 12072, Note_off_c, 0, 49, 62
1, 12076, Control_c, 0, 64, 42
1, 12091, Control_c, 0, 64, 37
1, 12095, Note_on_c, 0, 65, 79
1, 12106, Control_c, 0, 64, 0
1, 12157, Note_off_c, 0, 65, 58
1, 12169, Note_on_c, 0, 70, 76
1, 12170, Note_on_c, 0, 66, 76
1, 12208, Note_off_c, 0, 66, 63
1, 12220, Note_off_c, 0, 70, 58
1, 12254, Note_on_c, 0, 65, 75
1, 12288, Note_off_c, 0, 65, 62
1, 12333, Note_on_c, 0, 65, 65
1, 12342, Control_c, 0, 64, 45
1, 12343, Note_on_c, 0, 61, 62
1, 12355, Note_on_c, 0, 37, 53
1, 12357, Control_c, 0, 64, 63
1, 12361, Note_on_c, 0, 49, 49
1, 12372, Control_c, 0, 64, 67
1, 12379, Note_off_c, 0, 65, 61
1, 12382, Note_off_c, 0, 61, 63
1, 12387, Control_c, 0, 64, 71
1, 12392, Note_off_c, 0, 37, 64
1, 12402, Control_c, 0, 64, 74
1, 12416, Control_c, 0, 64, 80
1, 12419, Note_off_c, 0, 49, 62
1, 12431, Control_c, 0, 64, 88
1, 12446, Control_c, 0, 64, 101
1, 12461, Control_c, 0, 64, 127
1, 12580, Control_c, 0, 64, 104
1, 12594, Control_c, 0, 64, 77
1, 12599, Note_on_c, 0, 62, 66
1, 12604, Note_on_c, 0, 58, 54
1, 12609, Control_c, 0, 64, 63
1, 12622, Note_on_c, 0, 49, 47
1, 12622, Note_on_c, 0, 54, 54
1, 12631, Control_c, 0, 64, 55
1, 12646, Control_c, 0, 64, 55
1, 12661, Control_c, 0, 64, 60
1, 12664, Note_off_c, 0, 62, 61
1, 12676, Control_c, 0, 64, 66
1, 12686, Note_on_c, 0, 66, 68
1, 12689, Note_on_c, 0, 63, 56
1, 12691, Control_c, 0, 64, 73
1, 12691, Note_off_c, 0, 58, 63
1, 12700, Note_off_c, 0, 54, 59
1, 12706, Control_c, 0, 64, 81
1, 12717, Note_off_c, 0, 49, 62
1, 12720, Control_c, 0, 64, 87
1, 12723, Note_off_c, 0, 63, 64
1, 12723, Note_off_c, 0, 66, 62
1, 12735, Control_c, 0, 64, 91
1, 12750, Control_c, 0, 64, 94
1, 12754, Note_on_c, 0, 65, 80
1, 12765, Control_c, 0, 64, 100
1, 12780, Control_c, 0, 64, 107
1, 12795, Control_c, 0, 64, 127
1, 12824, Note_off_c, 0, 65, 48
1, 12826, Note_on_c, 0, 66, 85
1, 12828, Note_on_c, 0, 70, 85
1, 12837, Note_on_c, 0, 49, 78
1, 12840, Note_on_c, 0, 37, 66
1, 12877, Note_on_c, 0, 69, 36
1, 12880, Note_off_c, 0, 37, 63
1, 12893, Note_off_c, 0, 66, 60
1, 12894, Note_off_c, 0, 70, 63
1, 12898, Note_off_c, 0, 49, 62
1, 12900, Note_off_c, 0, 69, 0
1, 12900, Note_on_c, 0, 69, 24
1, 12980, Note_on_c, 0, 70, 96
1, 12981, Note_on_c, 0, 73, 86
1, 12998, Note_off_c, 0, 69, 60
1, 13040, Note_off_c, 0, 70, 63
1, 13046, Control_c, 0, 64, 117
1, 13051, Note_off_c, 0, 73, 60
1, 13061, Control_c, 0, 64, 80
1, 13064, Note_on_c, 0, 71, 98
1, 13069, Note_on_c, 0, 66, 82
1, 13070, Note_on_c, 0, 56, 71
1, 13074, Note_on_c, 0, 63, 72
1, 13076, Control_c, 0, 64, 68
1, 13091, Control_c, 0, 64, 70
1, 13106, Control_c, 0, 64, 86
1, 13121, Control_c, 0, 64, 127
1, 13125, Note_on_c, 0, 55, 41
1, 13129, Note_off_c, 0, 66, 65
1, 13144, Note_on_c, 0, 72, 88
1, 13144, Note_off_c, 0, 63, 56
1, 13145, Note_on_c, 0, 75, 82
1, 13152, Note_off_c, 0, 71, 63
1, 13162, Note_off_c, 0, 56, 62
1, 13163, Note_off_c, 0, 55, 62
1, 13188, Note_on_c, 0, 73, 76
1, 13218, Note_off_c, 0, 72, 58
1, 13233, Note_on_c, 0, 70, 98
1, 13242, Note_off_c, 0, 75, 53
1, 13254, Note_off_c, 0, 73, 61
1, 13273, Note_off_c, 0, 70, 70
1, 13301, Note_on_c, 0, 49, 74
1, 13310, Note_on_c, 0, 37, 63
1, 13313, Note_on_c, 0, 72, 91
1, 13316, Note_on_c, 0, 68, 91
1, 13320, Note_on_c, 0, 51, 47
1, 13330, Note_off_c, 0, 49, 62
1, 13343, Note_off_c, 0, 37, 61
1, 13350, Note_off_c, 0, 51, 58
1, 13378, Poly_aftertouch_c, 0, 39, 127
1, 13398, Note_on_c, 0, 67, 93
1, 13399, Note_off_c, 0, 68, 59
1, 13414, Note_off_c, 0, 72, 61
1, 13424, Poly_aftertouch_c, 0, 39, 0
1, 13470, Note_on_c, 0, 70, 85
1, 13475, Note_on_c, 0, 66, 87
1, 13479, Note_off_c, 0, 67, 62
1, 13528, Control_c, 0, 64, 101
1, 13540, Note_off_c, 0, 66, 63
1, 13544, Control_c, 0, 64, 70
1, 13552, Note_off_c, 0, 70, 65
1, 13552, Note_on_c, 0, 56, 83
1, 13555, Note_on_c, 0, 61, 87
1, 13558, Note_on_c, 0, 64, 94
1, 13559, Control_c, 0, 64, 43
1, 13561, Note_on_c, 0, 49, 71
1, 13573, Control_c, 0, 64, 0
1, 13582, Note_off_c, 0, 56, 62
1, 13594, Note_off_c, 0, 49, 64
1, 13604, Note_off_c, 0, 61, 62
1, 13642, Note_on_c, 0, 65, 79
1, 13643, Note_off_c, 0, 64, 64
1, 13646, Note_on_c, 0, 68, 73
1, 13680, Note_off_c, 0, 65, 64
1, 13713, Note_off_c, 0, 68, 63
1, 13729, Note_on_c, 0, 67, 89
1, 13791, Note_on_c, 0, 63, 88
1, 13792, Note_on_c, 0, 66, 100
1, 13796, Control_c, 0, 64, 57
1, 13800, Note_on_c, 0, 61, 76
1, 13801, Note_on_c, 0, 73, 95
1, 13804, Note_off_c, 0, 67, 49
1, 13811, Note_on_c, 0, 68, 81
1, 13811, Control_c, 0, 64, 75
1, 13826, Control_c, 0, 64, 95
1, 13840, Control_c, 0, 64, 127
1, 13865, Note_off_c, 0, 68, 61
1, 13884, Note_on_c, 0, 69, 92
1, 13888, Note_off_c, 0, 73, 62
1, 13952, Note_off_c, 0, 66, 58
1, 13964, Note_on_c, 0, 72, 85
1, 13973, Note_off_c, 0, 69, 38
1, 14032, Control_c, 0, 64, 110
1, 14033, Note_on_c, 0, 70, 84
1, 14042, Note_on_c, 0, 65, 80
1, 14047, Control_c, 0, 64, 74
1, 14062, Note_off_c, 0, 63, 50
1, 14062, Note_off_c, 0, 72, 59
1, 14062, Control_c, 0, 64, 47
1, 14077, Control_c, 0, 64, 0
1, 14092, Note_off_c, 0, 65, 62
1, 14096, Note_off_c, 0, 61, 62
1, 14130, Note_on_c, 0, 68, 86
1, 14139, Note_off_c, 0, 70, 64
1, 14219, Note_off_c, 0, 68, 59
1, 14228, Note_on_c, 0, 71, 70
1, 14257, Note_on_c, 0, 70, 13
1, 14277, Control_c, 0, 64, 30
1, 14279, Note_off_c, 0, 71, 61
1, 14290, Note_on_c, 0, 59, 101
1, 14291, Note_on_c, 0, 62, 97
1, 14291, Control_c, 0, 64, 66
1, 14292, Note_on_c, 0, 65, 91
1, 14293, Note_on_c, 0, 56, 87
1, 14303, Note_on_c, 0, 49, 75
1, 14304, Note_off_c, 0, 70, 40
1, 14306, Control_c, 0, 64, 82
1, 14321, Control_c, 0, 64, 97
1, 14337, Control_c, 0, 64, 106
1, 14352, Control_c, 0, 64, 127
1, 14382, Control_c, 0, 67, 60
1, 14396, Control_c, 0, 67, 127
1, 14398, Note_off_c, 0, 59, 57
1, 14402, Note_off_c, 0, 62, 59
1, 14411, Note_off_c, 0, 49, 60
1, 14431, Note_off_c, 0, 56, 60
1, 14447, Note_off_c, 0, 65, 62
1, 14515, Control_c, 0, 64, 114
1, 14530, Control_c, 0, 64, 86
1, 14545, Control_c, 0, 64, 67
1, 14560, Control_c, 0, 64, 48
1, 14575, Control_c, 0, 64, 0
1, 14621, Note_on_c, 0, 58, 52
1, 14625, Note_on_c, 0, 54, 46
1, 14625, Note_on_c, 0, 49, 44
1, 14634, Note_on_c, 0, 62, 61
1, 14678, Control_c, 0, 64, 40
1, 14693, Control_c, 0, 64, 53
1, 14702, Note_off_c, 0, 58, 61
1, 14702, Note_off_c, 0, 62, 63
1, 14708, Control_c, 0, 64, 61
1, 14716, Note_on_c, 0, 63, 62
1, 14720, Note_off_c, 0, 54, 63
1, 14721, Note_on_c, 0, 66, 65
1, 14722, Control_c, 0, 64, 63
1, 14727, Note_off_c, 0, 49, 63
1, 14737, Control_c, 0, 64, 64
1, 14752, Control_c, 0, 64, 64
1, 14753, Note_off_c, 0, 63, 64
1, 14757, Note_off_c, 0, 66, 65
1, 14767, Control_c, 0, 64, 65
1, 14782, Control_c, 0, 64, 66
1, 14791, Note_on_c, 0, 65, 73
1, 14796, Control_c, 0, 64, 68
1, 14811, Control_c, 0, 64, 69
1, 14846, Note_off_c, 0, 65, 59
1, 14852, Note_on_c, 0, 37, 60
1, 14855, Control_c, 0, 64, 66
1, 14867, Note_on_c, 0, 49, 57
1, 14873, Note_on_c, 0, 66, 66
1, 14874, Note_on_c, 0, 70, 65
1, 14878, Control_c, 0, 64, 59
1, 14893, Control_c, 0, 64, 44
1, 14899, Note_off_c, 0, 37, 63
1, 14908, Control_c, 0, 64, 35
1, 14911, Note_off_c, 0, 66, 63
1, 14912, Note_off_c, 0, 49, 63
1, 14922, Control_c, 0, 64, 41
1, 14927, Note_off_c, 0, 70, 60
1, 14937, Control_c, 0, 64, 54
1, 14944, Note_on_c, 0, 69, 79
1, 14952, Control_c, 0, 64, 66
1, 14967, Control_c, 0, 64, 76
1, 14982, Control_c, 0, 64, 90
1, 14996, Control_c, 0, 64, 98
1, 15008, Note_off_c, 0, 69, 60
1, 15013, Note_on_c, 0, 73, 72
1, 15024, Note_on_c, 0, 70, 70
1, 15040, Control_c, 0, 64, 96
1, 15055, Control_c, 0, 64, 87
1, 15058, Note_off_c, 0, 70, 58
1, 15070, Control_c, 0, 64, 76
1, 15072, Note_off_c, 0, 73, 62
1, 15085, Control_c, 0, 64, 69
1, 15090, Note_on_c, 0, 56, 57
1, 15099, Note_on_c, 0, 66, 50
1, 15100, Control_c, 0, 64, 68
1, 15101, Note_on_c, 0, 71, 79
1, 15104, Note_on_c, 0, 63, 45
1, 15114, Control_c, 0, 64, 69
1, 15123, Note_off_c, 0, 66, 58
1, 15129, Note_off_c, 0, 63, 57
1, 15129, Control_c, 0, 64, 72
1, 15145, Control_c, 0, 64, 75
1, 15153, Note_off_c, 0, 56, 61
1, 15159, Note_off_c, 0, 71, 64
1, 15160, Control_c, 0, 64, 79
1, 15170, Note_on_c, 0, 75, 62
1, 15173, Note_on_c, 0, 72, 69
1, 15175, Control_c, 0, 64, 81
1, 15190, Control_c, 0, 64, 82
1, 15205, Control_c, 0, 64, 83
1, 15218, Control_c, 0, 64, 84
1, 15227, Note_on_c, 0, 73, 60
1, 15239, Note_off_c, 0, 72, 62
1, 15248, Note_on_c, 0, 70, 85
1, 15248, Control_c, 0, 64, 84
1, 15257, Note_off_c, 0, 75, 59
1, 15261, Note_off_c, 0, 73, 64
1, 15293, Note_off_c, 0, 70, 66
1, 15323, Note_on_c, 0, 49, 71
1, 15328, Note_on_c, 0, 72, 88
1, 15333, Note_on_c, 0, 68, 79
1, 15335, Note_on_c, 0, 37, 59
1, 15352, Control_c, 0, 64, 84
1, 15365, Note_off_c, 0, 37, 62
1, 15368, Note_off_c, 0, 49, 59
1, 15391, Note_off_c, 0, 68, 62
1, 15400, Note_on_c, 0, 67, 83
1, 15415, Note_off_c, 0, 72, 62
1, 15475, Note_on_c, 0, 70, 82
1, 15478, Note_off_c, 0, 67, 59
1, 15481, Note_on_c, 0, 66, 76
1, 15529, Control_c, 0, 64, 81
1, 15543, Note_off_c, 0, 66, 63
1, 15544, Control_c, 0, 64, 71
1, 15555, Note_off_c, 0, 70, 64
1, 15558, Note_on_c, 0, 64, 88
1, 15558, Note_on_c, 0, 61, 76
1, 15559, Control_c, 0, 64, 57
1, 15561, Note_on_c, 0, 56, 66
1, 15562, Note_on_c, 0, 49, 60
1, 15574, Control_c, 0, 64, 0
1, 15583, Note_off_c, 0, 49, 60
1, 15585, Note_off_c, 0, 61, 66
1, 15591, Note_off_c, 0, 56, 64
1, 15645, Note_off_c, 0, 64, 63
1, 15651, Note_on_c, 0, 68, 72
1, 15655, Note_on_c, 0, 65, 66
1, 15681, Note_off_c, 0, 65, 68
1, 15701, Note_off_c, 0, 68, 60
1, 15731, Note_on_c, 0, 67, 76
1, 15783, Note_off_c, 0, 67, 59
1, 15807, Note_on_c, 0, 66, 59
1, 15807, Note_on_c, 0, 73, 70
1, 15818, Note_on_c, 0, 63, 52
1, 15818, Note_on_c, 0, 61, 48
1, 15824, Note_on_c, 0, 68, 55
1, 15857, Note_off_c, 0, 68, 65
1, 15879, Note_off_c, 0, 73, 60
1, 15901, Note_on_c, 0, 69, 69
1, 15953, Note_off_c, 0, 66, 62
1, 15988, Note_on_c, 0, 72, 62
1, 16002, Note_off_c, 0, 69, 36
1, 16091, Note_on_c, 0, 70, 62
1, 16091, Note_off_c, 0, 72, 57
1, 16092, Note_on_c, 0, 65, 47
1, 16158, Note_off_c, 0, 65, 58
1, 16178, Note_off_c, 0, 63, 57
1, 16193, Note_on_c, 0, 68, 61
1, 16199, Note_off_c, 0, 70, 61
1, 16202, Note_off_c, 0, 61, 63
1, 16313, Note_off_c, 0, 68, 51
1, 16317, Note_on_c, 0, 70, 61
1, 16444, Note_on_c, 0, 55, 30
1, 16449, Note_on_c, 0, 46, 20
1, 16474, Note_on_c, 0, 61, 49
1, 16479, Note_on_c, 0, 65, 48
1, 16479, Control_c, 0, 64, 34
1, 16485, Note_off_c, 0, 46, 51
1, 16493, Control_c, 0, 64, 47
1, 16495, Note_off_c, 0, 70, 49
1, 16508, Control_c, 0, 64, 58
1, 16523, Control_c, 0, 64, 64
1, 16538, Control_c, 0, 64, 67
1, 16553, Control_c, 0, 64, 71
1, 16560, Note_off_c, 0, 55, 57
1, 16567, Control_c, 0, 64, 75
1, 16569, Note_off_c, 0, 61, 64
1, 16582, Control_c, 0, 64, 81
1, 16597, Control_c, 0, 64, 87
1, 16611, Note_off_c, 0, 65, 62
1, 16611, Control_c, 0, 64, 94
1, 16626, Control_c, 0, 64, 103
1, 16641, Control_c, 0, 64, 118
1, 16656, Control_c, 0, 64, 127
1, 16707, Note_on_c, 0, 41, 63
1, 16757, Note_on_c, 0, 53, 68
1, 16766, Note_off_c, 0, 41, 64
1, 16792, Note_off_c, 0, 53, 63
1, 16807, Note_on_c, 0, 65, 90
1, 16813, Note_on_c, 0, 60, 76
1, 16820, Control_c, 0, 64, 120
1, 16834, Control_c, 0, 64, 86
1, 16840, Note_off_c, 0, 60, 65
1, 16849, Control_c, 0, 64, 64
1, 16853, Note_off_c, 0, 65, 63
1, 16864, Control_c, 0, 64, 40
1, 16879, Control_c, 0, 64, 0
1, 16896, Note_on_c, 0, 60, 72
1, 16900, Note_on_c, 0, 53, 71
1, 16918, Note_off_c, 0, 60, 69
1, 16924, Note_off_c, 0, 53, 66
1, 16971, Note_on_c, 0, 65, 74
1, 16973, Note_on_c, 0, 60, 76
1, 16994, Note_off_c, 0, 65, 69
1, 16995, Note_off_c, 0, 60, 70
1, 17043, Note_on_c, 0, 65, 73
1, 17047, Note_on_c, 0, 58, 78
1, 17077, Note_off_c, 0, 58, 66
1, 17079, Note_off_c, 0, 65, 65
1, 17141, Note_on_c, 0, 58, 63
1, 17149, Note_on_c, 0, 53, 64
1, 17170, Note_off_c, 0, 58, 65
1, 17177, Note_off_c, 0, 53, 63
1, 17224, Note_on_c, 0, 65, 70
1, 17225, Note_on_c, 0, 60, 69
1, 17246, Note_off_c, 0, 65, 69
1, 17250, Note_off_c, 0, 60, 68
1, 17305, Note_on_c, 0, 65, 80
1, 17308, Note_on_c, 0, 61, 70
1, 17325, Note_off_c, 0, 65, 72
1, 17333, Note_off_c, 0, 61, 67
1, 17386, Note_on_c, 0, 61, 70
1, 17395, Note_on_c, 0, 53, 69
1, 17412, Note_off_c, 0, 61, 67
1, 17424, Note_off_c, 0, 53, 66
1, 17470, Note_on_c, 0, 63, 72
1, 17488, Note_on_c, 0, 65, 51
1, 17495, Note_off_c, 0, 63, 68
1, 17512, Note_off_c, 0, 65, 36
1, 17544, Note_on_c, 0, 60, 72
1, 17545, Note_on_c, 0, 65, 65
1, 17574, Note_off_c, 0, 60, 65
1, 17582, Note_off_c, 0, 65, 66
1, 17637, Note_on_c, 0, 53, 78
1, 17643, Note_on_c, 0, 60, 62
1, 17658, Note_off_c, 0, 53, 69
1, 17663, Note_off_c, 0, 60, 64
1, 17712, Note_on_c, 0, 61, 82
1, 17727, Note_on_c, 0, 65, 56
1, 17741, Note_off_c, 0, 61, 65
1, 17747, Note_off_c, 0, 65, 60
1, 17789, Note_on_c, 0, 63, 78
1, 17790, Note_on_c, 0, 58, 84
1, 17820, Note_off_c, 0, 63, 63
1, 17824, Note_off_c, 0, 58, 59
1, 17867, Note_on_c, 0, 58, 84
1, 17879, Note_on_c, 0, 51, 76
1, 17889, Note_off_c, 0, 58, 68
1, 17904, Note_off_c, 0, 51, 66
1, 17944, Note_on_c, 0, 56, 78
1, 17955, Note_on_c, 0, 63, 72
1, 17979, Note_off_c, 0, 56, 62
1, 17979, Note_off_c, 0, 63, 67
1, 18029, Note_on_c, 0, 63, 87
1, 18062, Note_off_c, 0, 63, 62
1, 18077, Note_on_c, 0, 60, 11
1, 18077, Note_off_c, 0, 60, 127
1, 18113, Note_on_c, 0, 61, 56
1, 18117, Note_on_c, 0, 51, 79
1, 18137, Note_off_c, 0, 61, 66
1, 18143, Note_off_c, 0, 51, 66
1, 18190, Note_on_c, 0, 63, 77
1, 18192, Note_on_c, 0, 60, 79
1, 18215, Note_off_c, 0, 63, 69
1, 18220, Note_off_c, 0, 60, 67
1, 18273, Note_on_c, 0, 63, 88
1, 18276, Note_on_c, 0, 58, 74
1, 18301, Note_off_c, 0, 63, 62
1, 18306, Note_off_c, 0, 58, 65
1, 18354, Note_on_c, 0, 51, 72
1, 18357, Note_on_c, 0, 58, 69
1, 18375, Note_off_c, 0, 58, 63
1, 18380, Note_off_c, 0, 51, 65
1, 18432, Note_on_c, 0, 60, 69
1, 18436, Note_on_c, 0, 63, 67
1, 18456, Note_off_c, 0, 63, 65
1, 18457, Note_off_c, 0, 60, 67
1, 18517, Note_on_c, 0, 61, 59
1, 18520, Note_on_c, 0, 63, 65
1, 18538, Note_off_c, 0, 61, 62
1, 18541, Note_off_c, 0, 63, 65
1, 18581, Note_on_c, 0, 51, 69
1, 18617, Note_off_c, 0, 51, 64
1, 18667, Note_on_c, 0, 63, 55
1, 18680, Note_on_c, 0, 58, 49
1, 18700, Note_off_c, 0, 63, 65
1, 18703, Note_off_c, 0, 58, 57
1, 18752, Note_on_c, 0, 65, 66
1, 18757, Note_on_c, 0, 60, 69
1, 18784, Note_off_c, 0, 60, 65
1, 18786, Note_off_c, 0, 65, 62
1, 18827, Note_on_c, 0, 53, 68
1, 18844, Control_c, 0, 67, 96
1, 18850, Note_on_c, 0, 60, 36
1, 18853, Note_off_c, 0, 53, 66
1, 18859, Control_c, 0, 67, 53
1, 18874, Control_c, 0, 67, 0
1, 18882, Note_off_c, 0, 60, 34
1, 18903, Control_c, 0, 64, 31
1, 18911, Note_on_c, 0, 60, 57
1, 18915, Note_on_c, 0, 65, 71
1, 18918, Control_c, 0, 64, 39
1, 18933, Control_c, 0, 64, 49
1, 18939, Note_off_c, 0, 65, 69
1, 18942, Note_off_c, 0, 60, 68
1, 18948, Control_c, 0, 64, 57
1, 18962, Control_c, 0, 64, 60
1, 18977, Control_c, 0, 64, 62
1, 18980, Note_on_c, 0, 65, 89
1, 18983, Note_on_c, 0, 58, 82
1, 18992, Control_c, 0, 64, 63
1, 19007, Control_c, 0, 64, 64
1, 19021, Note_off_c, 0, 58, 61
1, 19022, Control_c, 0, 64, 66
1, 19026, Note_off_c, 0, 65, 64
1, 19037, Control_c, 0, 64, 67
1, 19052, Control_c, 0, 64, 67
1, 19058, Note_on_c, 0, 58, 76
1, 19059, Note_on_c, 0, 53, 85
1, 19081, Control_c, 0, 64, 68
1, 19100, Note_off_c, 0, 58, 62
1, 19101, Note_off_c, 0, 53, 60
1, 19111, Control_c, 0, 64, 67
1, 19126, Control_c, 0, 67, 60
1, 19141, Control_c, 0, 64, 66
1, 19141, Control_c, 0, 67, 126
1, 19154, Note_on_c, 0, 60, 74
1, 19156, Note_on_c, 0, 65, 76
1, 19156, Control_c, 0, 64, 64
1, 19171, Control_c, 0, 64, 59
1, 19177, Note_off_c, 0, 65, 71
1, 19179, Note_off_c, 0, 60, 69
1, 19186, Control_c, 0, 64, 52
1, 19201, Control_c, 0, 64, 43
1, 19216, Control_c, 0, 64, 36
1, 19230, Control_c, 0, 64, 30
1, 19234, Note_on_c, 0, 65, 80
1, 19237, Note_on_c, 0, 61, 70
1, 19245, Control_c, 0, 64, 0
1, 19258, Note_off_c, 0, 65, 66
1, 19264, Note_off_c, 0, 61, 66
1, 19319, Note_on_c, 0, 61, 74
1, 19326, Note_on_c, 0, 53, 71
1, 19347, Note_off_c, 0, 61, 66
1, 19359, Note_off_c, 0, 53, 66
1, 19404, Note_on_c, 0, 63, 71
1, 19413, Note_on_c, 0, 65, 65
1, 19429, Note_off_c, 0, 63, 68
1, 19434, Note_off_c, 0, 65, 64
1, 19493, Note_on_c, 0, 65, 79
1, 19495, Note_on_c, 0, 60, 59
1, 19522, Note_off_c, 0, 65, 60
1, 19523, Note_off_c, 0, 60, 66
1, 19565, Note_on_c, 0, 53, 64
1, 19595, Note_off_c, 0, 53, 66
1, 19647, Note_on_c, 0, 61, 70
1, 19654, Note_on_c, 0, 65, 54
1, 19674, Note_off_c, 0, 61, 67
1, 19677, Note_off_c, 0, 65, 59
1, 19724, Note_on_c, 0, 58, 79
1, 19725, Note_on_c, 0, 63, 72
1, 19741, Control_c, 0, 64, 29
1, 19755, Note_off_c, 0, 58, 64
1, 19755, Control_c, 0, 67, 105
1, 19761, Note_off_c, 0, 63, 64
1, 19770, Control_c, 0, 64, 32
1, 19770, Control_c, 0, 67, 49
1, 19785, Control_c, 0, 64, 35
1, 19785, Control_c, 0, 67, 0
1, 19795, Note_on_c, 0, 58, 67
1, 19800, Control_c, 0, 64, 39
1, 19800, Note_on_c, 0, 51, 74
1, 19815, Control_c, 0, 64, 43
1, 19824, Note_off_c, 0, 58, 65
1, 19827, Note_off_c, 0, 51, 65
1, 19829, Control_c, 0, 64, 49
1, 19844, Control_c, 0, 64, 54
1, 19859, Control_c, 0, 64, 58
1, 19872, Note_on_c, 0, 56, 80
1, 19874, Control_c, 0, 64, 59
1, 19882, Note_on_c, 0, 63, 73
1, 19889, Control_c, 0, 64, 59
1, 19903, Control_c, 0, 64, 60
1, 19906, Note_off_c, 0, 63, 67
1, 19917, Note_off_c, 0, 56, 61
1, 19918, Control_c, 0, 64, 61
1, 19934, Control_c, 0, 64, 61
1, 19949, Control_c, 0, 64, 62
1, 19949, Note_on_c, 0, 63, 94
1, 19964, Control_c, 0, 64, 63
1, 19974, Note_on_c, 0, 60, 58
1, 19977, Note_on_c, 0, 61, 31
1, 19979, Control_c, 0, 64, 64
1, 19994, Control_c, 0, 64, 65
1, 19996, Note_off_c, 0, 60, 61
1, 20003, Note_off_c, 0, 63, 64
1, 20008, Control_c, 0, 64, 66
1, 20012, Note_off_c, 0, 61, 52
1, 20023, Control_c, 0, 64, 67
1, 20038, Control_c, 0, 67, 74
1, 20042, Note_on_c, 0, 61, 68
1, 20043, Note_on_c, 0, 51, 81
1, 20052, Control_c, 0, 67, 127
1, 20066, Note_off_c, 0, 61, 67
1, 20069, Note_off_c, 0, 51, 65
1, 20082, Control_c, 0, 64, 66
1, 20104, Control_c, 0, 64, 65
1, 20117, Note_on_c, 0, 60, 60
1, 20119, Control_c, 0, 64, 63
1, 20121, Note_on_c, 0, 63, 77
1, 20134, Control_c, 0, 64, 59
1, 20146, Note_off_c, 0, 63, 68
1, 20149, Control_c, 0, 64, 54
1, 20153, Note_off_c, 0, 60, 66
1, 20164, Control_c, 0, 64, 49
1, 20179, Control_c, 0, 64, 44
1, 20194, Control_c, 0, 64, 40
1, 20202, Note_on_c, 0, 58, 78
1, 20206, Note_on_c, 0, 63, 80
1, 20208, Control_c, 0, 64, 37
1, 20223, Control_c, 0, 64, 35
1, 20228, Note_off_c, 0, 58, 68
1, 20232, Note_off_c, 0, 63, 67
1, 20238, Control_c, 0, 64, 33
1, 20253, Control_c, 0, 64, 31
1, 20267, Control_c, 0, 64, 29
1, 20282, Control_c, 0, 64, 0
1, 20286, Note_on_c, 0, 58, 72
1, 20289, Note_on_c, 0, 51, 67
1, 20307, Note_off_c, 0, 58, 64
1, 20319, Note_off_c, 0, 51, 64
1, 20368, Note_on_c, 0, 60, 68
1, 20378, Note_on_c, 0, 63, 45
1, 20394, Note_off_c, 0, 60, 67
1, 20402, Note_off_c, 0, 63, 53
1, 20444, Note_on_c, 0, 61, 76
1, 20446, Note_on_c, 0, 63, 73
1, 20470, Note_off_c, 0, 61, 67
1, 20471, Note_off_c, 0, 63, 67
1, 20514, Note_on_c, 0, 61, 69
1, 20515, Note_on_c, 0, 51, 81
1, 20540, Note_off_c, 0, 61, 69
1, 20542, Note_off_c, 0, 51, 67
1, 20548, Control_c, 0, 64, 29
1, 20563, Control_c, 0, 64, 31
1, 20578, Control_c, 0, 64, 35
1, 20593, Control_c, 0, 64, 41
1, 20608, Control_c, 0, 64, 47
1, 20614, Note_on_c, 0, 63, 81
1, 20616, Note_on_c, 0, 58, 75
1, 20623, Control_c, 0, 64, 53
1, 20638, Control_c, 0, 64, 55
1, 20641, Note_off_c, 0, 63, 63
1, 20644, Note_off_c, 0, 58, 66
1, 20667, Control_c, 0, 64, 55
1, 20682, Control_c, 0, 64, 54
1, 20696, Note_on_c, 0, 53, 84
1, 20697, Note_on_c, 0, 60, 81
1, 20697, Control_c, 0, 64, 51
1, 20712, Control_c, 0, 64, 47
1, 20712, Control_c, 0, 67, 79
1, 20716, Note_off_c, 0, 53, 71
1, 20717, Note_off_c, 0, 60, 72
1, 20727, Control_c, 0, 64, 38
1, 20727, Control_c, 0, 67, 0
1, 20742, Control_c, 0, 64, 0
1, 20769, Note_on_c, 0, 60, 76
1, 20840, Note_off_c, 0, 60, 58
1, 20857, Note_on_c, 0, 72, 73
1, 20858, Note_on_c, 0, 65, 77
1, 20888, Note_off_c, 0, 72, 57
1, 20916, Note_off_c, 0, 65, 63
1, 20939, Note_on_c, 0, 53, 83
1, 20940, Note_on_c, 0, 58, 84
1, 20960, Note_off_c, 0, 53, 71
1, 20961, Note_off_c, 0, 58, 69
1, 21001, Note_on_c, 0, 58, 85
1, 21003, Note_on_c, 0, 70, 79
1, 21020, Note_on_c, 0, 65, 54
1, 21036, Note_off_c, 0, 58, 61
1, 21045, Note_off_c, 0, 65, 63
1, 21052, Note_off_c, 0, 70, 62
1, 21089, Note_on_c, 0, 60, 78
1, 21090, Note_on_c, 0, 72, 84
1, 21097, Note_on_c, 0, 65, 72
1, 21117, Note_off_c, 0, 60, 62
1, 21138, Note_off_c, 0, 72, 62
1, 21148, Note_off_c, 0, 65, 60
1, 21165, Note_on_c, 0, 61, 90
1, 21169, Note_on_c, 0, 53, 88
1, 21201, Note_off_c, 0, 53, 67
1, 21203, Note_off_c, 0, 61, 62
1, 21237, Poly_aftertouch_c, 0, 61, 0
1, 21243, Note_on_c, 0, 61, 71
1, 21245, Note_on_c, 0, 73, 82
1, 21246, Note_on_c, 0, 65, 79
1, 21264, Note_off_c, 0, 73, 71
1, 21269, Control_c, 0, 64, 29
1, 21270, Note_off_c, 0, 61, 65
1, 21271, Note_off_c, 0, 65, 65
1, 21283, Control_c, 0, 64, 32
1, 21298, Control_c, 0, 64, 34
1, 21313, Control_c, 0, 64, 37
1, 21324, Note_on_c, 0, 63, 89
1, 21326, Note_on_c, 0, 65, 76
1, 21328, Control_c, 0, 64, 39
1, 21329, Note_on_c, 0, 75, 84
1, 21343, Control_c, 0, 64, 40
1, 21355, Note_on_c, 0, 73, 40
1, 21357, Control_c, 0, 64, 40
1, 21372, Control_c, 0, 64, 41
1, 21374, Note_off_c, 0, 75, 64
1, 21380, Note_off_c, 0, 63, 62
1, 21384, Note_off_c, 0, 65, 63
1, 21385, Note_off_c, 0, 73, 34
1, 21400, Note_on_c, 0, 53, 92
1, 21402, Note_on_c, 0, 60, 85
1, 21416, Control_c, 0, 64, 40
1, 21425, Note_off_c, 0, 60, 69
1, 21431, Control_c, 0, 64, 39
1, 21435, Note_off_c, 0, 53, 64
1, 21446, Control_c, 0, 64, 37
1, 21461, Control_c, 0, 64, 33
1, 21475, Control_c, 0, 64, 30
1, 21480, Note_on_c, 0, 65, 79
1, 21489, Note_on_c, 0, 72, 63
1, 21490, Control_c, 0, 64, 28
1, 21493, Note_on_c, 0, 60, 60
1, 21505, Control_c, 0, 64, 0
1, 21507, Note_off_c, 0, 65, 64
1, 21513, Note_off_c, 0, 60, 63
1, 21513, Note_off_c, 0, 72, 64
1, 21556, Note_on_c, 0, 61, 88
1, 21558, Note_on_c, 0, 73, 91
1, 21580, Control_c, 0, 64, 29
1, 21612, Note_off_c, 0, 73, 65
1, 21617, Note_off_c, 0, 61, 63
1, 21636, Note_on_c, 0, 64, 3
1, 21644, Note_on_c, 0, 58, 100
1, 21649, Note_on_c, 0, 51, 85
1, 21669, Note_off_c, 0, 58, 68
1, 21674, Note_off_c, 0, 64, 39
1, 21679, Note_off_c, 0, 51, 62
1, 21720, Note_on_c, 0, 70, 77
1, 21722, Note_on_c, 0, 58, 74
1, 21725, Note_on_c, 0, 63, 66
1, 21742, Note_off_c, 0, 70, 70
1, 21746, Note_off_c, 0, 58, 66
1, 21754, Note_off_c, 0, 63, 66
1, 21766, Control_c, 0, 64, 31
1, 21780, Control_c, 0, 64, 32
1, 21788, Note_on_c, 0, 56, 91
1, 21790, Note_on_c, 0, 68, 87
1, 21795, Control_c, 0, 64, 33
1, 21804, Note_on_c, 0, 63, 72
1, 21809, Note_off_c, 0, 56, 71
1, 21837, Note_off_c, 0, 63, 66
1, 21845, Note_off_c, 0, 68, 64
1, 21878, Note_on_c, 0, 51, 95
1, 21878, Note_on_c, 0, 61, 94
1, 21903, Note_off_c, 0, 61, 66
1, 21906, Note_off_c, 0, 51, 61
1, 21943, Control_c, 0, 64, 33
1, 21946, Note_on_c, 0, 61, 83
1, 21950, Note_on_c, 0, 73, 78
1, 21954, Note_on_c, 0, 63, 73
1, 21958, Control_c, 0, 64, 34
1, 21973, Control_c, 0, 64, 34
1, 21977, Note_off_c, 0, 73, 60
1, 21978, Note_off_c, 0, 63, 66
1, 21981, Note_off_c, 0, 61, 59
1, 21988, Control_c, 0, 64, 35
1, 22003, Control_c, 0, 64, 35
1, 22028, Note_on_c, 0, 72, 84
1, 22029, Note_on_c, 0, 63, 82
1, 22034, Note_on_c, 0, 60, 81
1, 22080, Note_off_c, 0, 60, 63
1, 22083, Note_off_c, 0, 72, 62
1, 22098, Note_off_c, 0, 63, 64
1, 22116, Note_on_c, 0, 58, 94
1, 22119, Note_on_c, 0, 51, 89
1, 22138, Note_off_c, 0, 58, 68
1, 22150, Control_c, 0, 64, 36
1, 22151, Note_off_c, 0, 51, 62
1, 22165, Control_c, 0, 64, 36
1, 22180, Control_c, 0, 64, 37
1, 22189, Note_on_c, 0, 58, 82
1, 22194, Note_on_c, 0, 70, 77
1, 22195, Control_c, 0, 64, 39
1, 22210, Control_c, 0, 64, 41
1, 22212, Note_off_c, 0, 58, 71
1, 22215, Note_off_c, 0, 70, 72
1, 22224, Control_c, 0, 64, 43
1, 22239, Control_c, 0, 64, 44
1, 22254, Control_c, 0, 64, 45
1, 22263, Note_on_c, 0, 60, 84
1, 22270, Note_on_c, 0, 72, 83
1, 22306, Note_on_c, 0, 71, 33
1, 22307, Note_off_c, 0, 60, 67
1, 22320, Note_off_c, 0, 72, 62
1, 22329, Control_c, 0, 64, 45
1, 22340, Note_off_c, 0, 71, 31
1, 22356, Note_on_c, 0, 61, 96
1, 22360, Note_on_c, 0, 51, 98
1, 22392, Note_off_c, 0, 61, 68
1, 22399, Note_off_c, 0, 51, 53
1, 22426, Control_c, 0, 64, 45
1, 22434, Note_on_c, 0, 73, 57
1, 22437, Note_on_c, 0, 61, 57
1, 22441, Control_c, 0, 64, 46
1, 22447, Note_on_c, 0, 75, 38
1, 22451, Note_off_c, 0, 61, 69
1, 22453, Note_off_c, 0, 73, 63
1, 22455, Control_c, 0, 64, 48
1, 22470, Control_c, 0, 64, 51
1, 22477, Note_off_c, 0, 75, 35
1, 22485, Control_c, 0, 64, 53
1, 22500, Control_c, 0, 64, 55
1, 22501, Note_on_c, 0, 70, 87
1, 22504, Note_on_c, 0, 58, 91
1, 22515, Control_c, 0, 64, 55
1, 22546, Note_off_c, 0, 58, 66
1, 22566, Note_off_c, 0, 70, 61
1, 22574, Control_c, 0, 64, 54
1, 22588, Control_c, 0, 64, 53
1, 22589, Note_on_c, 0, 60, 94
1, 22592, Note_on_c, 0, 53, 96
1, 22603, Control_c, 0, 64, 49
1, 22618, Control_c, 0, 64, 44
1, 22623, Note_off_c, 0, 60, 68
1, 22629, Note_on_c, 0, 62, 16
1, 22629, Note_off_c, 0, 62, 127
1, 22633, Control_c, 0, 64, 36
1, 22635, Note_off_c, 0, 53, 64
1, 22648, Control_c, 0, 64, 33
1, 22677, Control_c, 0, 64, 33
1, 22682, Note_on_c, 0, 60, 74
1, 22692, Control_c, 0, 64, 35
1, 22707, Control_c, 0, 64, 36
1, 22722, Control_c, 0, 64, 39
1, 22736, Control_c, 0, 64, 41
1, 22751, Control_c, 0, 64, 43
1, 22753, Note_off_c, 0, 60, 60
1, 22755, Note_on_c, 0, 53, 90
1, 22756, Note_on_c, 0, 72, 83
1, 22760, Note_on_c, 0, 41, 74
1, 22766, Note_on_c, 0, 65, 79
1, 22766, Control_c, 0, 64, 44
1, 22781, Control_c, 0, 64, 45
1, 22781, Note_off_c, 0, 41, 61
1, 22784, Note_off_c, 0, 53, 67
1, 22811, Note_off_c, 0, 72, 61
1, 22816, Note_off_c, 0, 65, 61
1, 22826, Control_c, 0, 64, 44
1, 22835, Note_on_c, 0, 52, 92
1, 22845, Note_on_c, 0, 58, 66
1, 22845, Note_off_c, 0, 58, 127
1, 22852, Note_on_c, 0, 57, 77
1, 22871, Note_off_c, 0, 52, 64
1, 22880, Note_off_c, 0, 57, 67
1, 22885, Control_c, 0, 64, 45
1, 22900, Control_c, 0, 64, 45
1, 22903, Note_on_c, 0, 58, 73
1, 22905, Note_on_c, 0, 70, 77
1, 22909, Note_on_c, 0, 65, 64
1, 22915, Control_c, 0, 64, 47
1, 22926, Note_off_c, 0, 58, 66
1, 22928, Note_off_c, 0, 70, 67
1, 22929, Control_c, 0, 64, 49
1, 22938, Note_off_c, 0, 65, 66
1, 22944, Control_c, 0, 64, 51
1, 22959, Control_c, 0, 64, 52
1, 22973, Control_c, 0, 64, 53
1, 22981, Note_on_c, 0, 53, 88
1, 22987, Note_on_c, 0, 60, 85
1, 22987, Note_on_c, 0, 72, 84
1, 22993, Note_on_c, 0, 65, 83
1, 22996, Note_on_c, 0, 43, 63
1, 23011, Note_off_c, 0, 53, 67
1, 23023, Note_off_c, 0, 43, 57
1, 23027, Note_off_c, 0, 60, 63
1, 23033, Control_c, 0, 64, 52
1, 23040, Note_off_c, 0, 72, 63
1, 23047, Control_c, 0, 64, 51
1, 23048, Note_off_c, 0, 65, 64
1, 23062, Control_c, 0, 64, 49
1, 23065, Note_on_c, 0, 61, 102
1, 23066, Note_on_c, 0, 53, 92
1, 23077, Control_c, 0, 64, 47
1, 23092, Control_c, 0, 64, 44
1, 23106, Note_off_c, 0, 61, 72
1, 23109, Note_off_c, 0, 53, 65
1, 23115, Control_c, 0, 64, 44
1, 23145, Control_c, 0, 64, 44
1, 23151, Note_on_c, 0, 73, 77
1, 23151, Note_on_c, 0, 61, 69
1, 23154, Note_on_c, 0, 65, 73
1, 23160, Control_c, 0, 64, 46
1, 23172, Note_off_c, 0, 73, 70
1, 23175, Note_off_c, 0, 61, 68
1, 23175, Control_c, 0, 64, 50
1, 23177, Note_off_c, 0, 65, 68
1, 23189, Control_c, 0, 64, 53
1, 23204, Control_c, 0, 64, 54
1, 23219, Control_c, 0, 64, 55
1, 23225, Note_on_c, 0, 53, 91
1, 23228, Note_on_c, 0, 63, 89
1, 23231, Note_on_c, 0, 41, 69
1, 23234, Control_c, 0, 64, 55
1, 23235, Note_on_c, 0, 75, 78
1, 23239, Note_on_c, 0, 65, 73
1, 23249, Note_off_c, 0, 53, 69
1, 23261, Note_off_c, 0, 41, 36
1, 23277, Note_on_c, 0, 73, 13
1, 23278, Control_c, 0, 64, 55
1, 23280, Note_off_c, 0, 65, 57
1, 23281, Note_off_c, 0, 63, 63
1, 23284, Note_off_c, 0, 75, 65
1, 23302, Note_on_c, 0, 60, 97
1, 23308, Note_on_c, 0, 53, 90
1, 23308, Control_c, 0, 64, 54
1, 23319, Note_off_c, 0, 73, 30
1, 23323, Control_c, 0, 64, 53
1, 23333, Note_off_c, 0, 60, 67
1, 23338, Control_c, 0, 64, 51
1, 23341, Note_off_c, 0, 53, 66
1, 23352, Control_c, 0, 64, 50
1, 23377, Note_on_c, 0, 60, 61
1, 23378, Note_on_c, 0, 72, 64
1, 23379, Note_on_c, 0, 65, 69
1, 23402, Note_off_c, 0, 72, 67
1, 23404, Note_off_c, 0, 60, 69
1, 23406, Note_off_c, 0, 65, 66
1, 23441, Control_c, 0, 64, 51
1, 23443, Note_on_c, 0, 41, 82
1, 23453, Note_on_c, 0, 53, 77
1, 23454, Note_on_c, 0, 61, 92
1, 23454, Note_on_c, 0, 73, 86
1, 23462, Note_off_c, 0, 41, 68
1, 23475, Note_off_c, 0, 53, 69
1, 23502, Note_off_c, 0, 61, 62
1, 23505, Note_off_c, 0, 73, 62
1, 23529, Control_c, 0, 64, 50
1, 23534, Note_on_c, 0, 58, 97
1, 23536, Note_on_c, 0, 51, 90
1, 23544, Control_c, 0, 64, 50
1, 23559, Control_c, 0, 64, 48
1, 23562, Note_on_c, 0, 59, 56
1, 23566, Note_off_c, 0, 58, 66
1, 23574, Control_c, 0, 64, 45
1, 23577, Note_off_c, 0, 51, 62
1, 23588, Note_off_c, 0, 59, 38
1, 23589, Control_c, 0, 64, 45
1, 23603, Note_on_c, 0, 58, 79
1, 23603, Control_c, 0, 64, 46
1, 23605, Note_on_c, 0, 63, 80
1, 23607, Note_on_c, 0, 70, 69
1, 23618, Control_c, 0, 64, 48
1, 23625, Note_off_c, 0, 70, 68
1, 23628, Note_off_c, 0, 63, 68
1, 23629, Note_off_c, 0, 58, 67
1, 23633, Control_c, 0, 64, 52
1, 23648, Control_c, 0, 64, 55
1, 23663, Control_c, 0, 64, 57
1, 23677, Control_c, 0, 64, 57
1, 23681, Note_on_c, 0, 39, 71
1, 23681, Note_on_c, 0, 68, 91
1, 23681, Note_on_c, 0, 49, 63
1, 23685, Note_on_c, 0, 56, 86
1, 23689, Note_on_c, 0, 63, 77
1, 23705, Note_off_c, 0, 39, 60
1, 23705, Note_off_c, 0, 49, 60
1, 23707, Note_off_c, 0, 56, 70
1, 23715, Note_on_c, 0, 50, 28
1, 23717, Note_off_c, 0, 63, 63
1, 23721, Control_c, 0, 64, 57
1, 23728, Note_off_c, 0, 68, 63
1, 23736, Control_c, 0, 64, 56
1, 23751, Control_c, 0, 64, 55
1, 23762, Note_off_c, 0, 50, 50
1, 23765, Note_on_c, 0, 61, 89
1, 23766, Control_c, 0, 64, 53
1, 23768, Note_on_c, 0, 51, 98
1, 23781, Control_c, 0, 64, 53
1, 23784, Note_on_c, 0, 62, 68
1, 23784, Note_off_c, 0, 62, 127
1, 23792, Note_off_c, 0, 61, 67
1, 23798, Note_off_c, 0, 51, 62
1, 23810, Control_c, 0, 64, 53
1, 23825, Control_c, 0, 64, 54
1, 23835, Note_on_c, 0, 61, 78
1, 23840, Note_on_c, 0, 73, 73
1, 23840, Control_c, 0, 64, 54
1, 23868, Note_off_c, 0, 61, 66
1, 23871, Note_off_c, 0, 73, 68
1, 23892, Control_c, 0, 64, 55
1, 23907, Note_on_c, 0, 51, 88
1, 23907, Control_c, 0, 64, 54
1, 23923, Note_on_c, 0, 72, 91
1, 23928, Note_off_c, 0, 51, 69
1, 23930, Note_on_c, 0, 60, 85
1, 23937, Note_on_c, 0, 39, 34
1, 23938, Control_c, 0, 64, 54
1, 23953, Control_c, 0, 64, 53
1, 23967, Note_off_c, 0, 60, 64
1, 23967, Control_c, 0, 64, 52
1, 23976, Note_off_c, 0, 72, 64
1, 23982, Control_c, 0, 64, 51
1, 23982, Note_off_c, 0, 39, 34
1, 23991, Note_on_c, 0, 51, 87
1, 23996, Note_on_c, 0, 58, 105
1, 24012, Control_c, 0, 64, 52
1, 24013, Note_off_c, 0, 58, 74
1, 24026, Control_c, 0, 64, 52
1, 24033, Note_off_c, 0, 51, 65
1, 24041, Control_c, 0, 64, 53
1, 24056, Control_c, 0, 64, 53
1, 24071, Control_c, 0, 64, 54
1, 24072, Note_on_c, 0, 70, 78
1, 24076, Note_on_c, 0, 58, 80
1, 24086, Control_c, 0, 64, 55
1, 24097, Note_off_c, 0, 58, 70
1, 24100, Control_c, 0, 64, 55
1, 24106, Note_off_c, 0, 70, 64
1, 24115, Control_c, 0, 64, 56
1, 24143, Note_on_c, 0, 39, 64
1, 24143, Note_on_c, 0, 49, 58
1, 24152, Note_on_c, 0, 72, 92
1, 24153, Note_on_c, 0, 60, 86
1, 24160, Control_c, 0, 64, 55
1, 24168, Note_on_c, 0, 50, 34
1, 24170, Note_off_c, 0, 49, 59
1, 24170, Note_off_c, 0, 39, 59
1, 24174, Control_c, 0, 64, 48
1, 24179, Note_off_c, 0, 60, 66
1, 24189, Control_c, 0, 64, 0
1, 24201, Note_off_c, 0, 72, 64
1, 24209, Note_off_c, 0, 50, 53
1, 24242, Note_on_c, 0, 58, 106
1, 24246, Note_on_c, 0, 61, 100
1, 24249, Note_on_c, 0, 51, 87
1, 24278, Control_c, 0, 64, 47
1, 24290, Note_off_c, 0, 61, 59
1, 24293, Control_c, 0, 64, 70
1, 24307, Note_off_c, 0, 51, 54
1, 24307, Control_c, 0, 64, 90
1, 24310, Note_off_c, 0, 58, 66
1, 24311, Note_on_c, 0, 52, 16
1, 24320, Note_on_c, 0, 57, 63
1, 24322, Control_c, 0, 64, 127
1, 24334, Note_off_c, 0, 52, 0
1, 24336, Note_on_c, 0, 61, 82
1, 24340, Note_off_c, 0, 57, 64
1, 24359, Poly_aftertouch_c, 0, 52, 0
1, 24382, Note_off_c, 0, 61, 63
1, 24410, Note_on_c, 0, 73, 69
1, 24440, Note_on_c, 0, 63, 49
1, 24465, Note_off_c, 0, 63, 60
1, 24465, Note_off_c, 0, 73, 63
1, 24505, Note_on_c, 0, 70, 77
1, 24507, Note_on_c, 0, 61, 93
1, 24510, Note_on_c, 0, 66, 101
1, 24515, Control_c, 0, 64, 76
1, 24522, Poly_aftertouch_c, 0, 72, 0
1, 24530, Control_c, 0, 64, 37
1, 24540, Note_off_c, 0, 70, 66
1, 24544, Control_c, 0, 64, 0
1, 24548, Note_off_c, 0, 66, 63
1, 24567, Note_off_c, 0, 61, 63
1, 24581, Poly_aftertouch_c, 0, 66, 0
1, 24584, Note_on_c, 0, 70, 87
1, 24587, Note_on_c, 0, 66, 80
1, 24601, Note_on_c, 0, 54, 73
1, 24620, Note_off_c, 0, 66, 64
1, 24629, Note_off_c, 0, 70, 66
1, 24674, Note_off_c, 0, 54, 62
1, 24675, Note_on_c, 0, 51, 78
1, 24680, Note_on_c, 0, 66, 94
1, 24683, Note_on_c, 0, 70, 85
1, 24702, Note_off_c, 0, 51, 68
1, 24713, Note_off_c, 0, 66, 64
1, 24723, Note_off_c, 0, 70, 64
1, 24760, Control_c, 0, 64, 69
1, 24770, Note_on_c, 0, 66, 96
1, 24772, Note_on_c, 0, 70, 92
1, 24773, Note_on_c, 0, 44, 100
1, 24775, Note_on_c, 0, 37, 98
1, 24775, Control_c, 0, 64, 117
1, 24790, Control_c, 0, 64, 127
1, 24799, Note_off_c, 0, 37, 69
1, 24811, Note_off_c, 0, 44, 63
1, 24859, Note_off_c, 0, 70, 62
1, 24868, Note_on_c, 0, 65, 87
1, 24882, Note_off_c, 0, 66, 60
1, 24922, Note_off_c, 0, 65, 62
1, 24930, Note_on_c, 0, 63, 83
1, 24953, Note_on_c, 0, 70, 86
1, 24958, Note_on_c, 0, 66, 81
1, 24990, Note_off_c, 0, 63, 62
1, 25000, Note_off_c, 0, 70, 62
1, 25011, Note_off_c, 0, 66, 62
1, 25014, Note_on_c, 0, 56, 79
1, 25035, Note_on_c, 0, 62, 90
1, 25043, Control_c, 0, 64, 91
1, 25057, Control_c, 0, 64, 65
1, 25072, Control_c, 0, 64, 33
1, 25087, Control_c, 0, 64, 0
1, 25093, Note_off_c, 0, 56, 64
1, 25098, Note_on_c, 0, 54, 70
1, 25103, Note_on_c, 0, 58, 88
1, 25109, Note_on_c, 0, 66, 88
1, 25110, Note_on_c, 0, 63, 84
1, 25112, Note_off_c, 0, 62, 60
1, 25151, Note_off_c, 0, 63, 63
1, 25160, Note_off_c, 0, 66, 64
1, 25160, Note_off_c, 0, 54, 38
1, 25182, Note_on_c, 0, 53, 72
1, 25182, Note_on_c, 0, 65, 93
1, 25187, Note_on_c, 0, 56, 88
1, 25189, Note_off_c, 0, 58, 63
1, 25255, Note_on_c, 0, 54, 81
1, 25259, Note_on_c, 0, 66, 93
1, 25264, Note_on_c, 0, 70, 88
1, 25266, Note_on_c, 0, 51, 75
1, 25275, Note_off_c, 0, 56, 61
1, 25279, Note_off_c, 0, 65, 56
1, 25289, Note_off_c, 0, 53, 57
1, 25294, Control_c, 0, 64, 63
1, 25309, Control_c, 0, 64, 79
1, 25320, Note_on_c, 0, 50, 32
1, 25324, Control_c, 0, 64, 98
1, 25332, Note_on_c, 0, 58, 87
1, 25339, Note_off_c, 0, 51, 61
1, 25339, Control_c, 0, 64, 114
1, 25340, Note_on_c, 0, 73, 87
1, 25341, Note_off_c, 0, 54, 60
1, 25342, Note_off_c, 0, 66, 60
1, 25354, Note_off_c, 0, 70, 63
1, 25361, Control_c, 0, 64, 127
1, 25365, Note_off_c, 0, 50, 49
1, 25407, Note_off_c, 0, 58, 62
1, 25420, Note_on_c, 0, 72, 84
1, 25423, Note_on_c, 0, 56, 82
1, 25423, Note_on_c, 0, 68, 81
1, 25437, Note_off_c, 0, 73, 61
1, 25441, Note_off_c, 0, 72, 67
1, 25442, Note_off_c, 0, 68, 72
1, 25482, Note_off_c, 0, 56, 61
1, 25509, Control_c, 0, 64, 93
1, 25513, Note_on_c, 0, 61, 92
1, 25513, Note_on_c, 0, 65, 88
1, 25514, Note_on_c, 0, 68, 95
1, 25525, Control_c, 0, 64, 57
1, 25540, Control_c, 0, 64, 0
1, 25541, Note_off_c, 0, 65, 66
1, 25542, Note_off_c, 0, 68, 63
1, 25574, Note_off_c, 0, 61, 64
1, 25590, Note_on_c, 0, 65, 79
1, 25591, Note_on_c, 0, 56, 75
1, 25593, Note_on_c, 0, 68, 79
1, 25619, Note_off_c, 0, 65, 65
1, 25627, Note_off_c, 0, 68, 62
1, 25654, Note_off_c, 0, 56, 63
1, 25659, Note_on_c, 0, 53, 68
1, 25677, Note_on_c, 0, 65, 88
1, 25677, Note_on_c, 0, 68, 85
1, 25687, Note_off_c, 0, 53, 65
1, 25708, Note_off_c, 0, 65, 63
1, 25717, Note_off_c, 0, 68, 62
1, 25717, Control_c, 0, 64, 63
1, 25732, Control_c, 0, 64, 94
1, 25747, Control_c, 0, 64, 127
1, 25758, Note_on_c, 0, 37, 97
1, 25758, Note_on_c, 0, 44, 96
1, 25759, Note_on_c, 0, 68, 90
1, 25763, Note_on_c, 0, 65, 93
1, 25782, Note_off_c, 0, 44, 70
1, 25783, Note_off_c, 0, 37, 67
1, 25819, Note_off_c, 0, 65, 58
1, 25835, Note_off_c, 0, 68, 57
1, 25860, Note_on_c, 0, 61, 91
1, 25875, Note_on_c, 0, 53, 79
1, 25900, Note_off_c, 0, 53, 68
1, 25923, Note_off_c, 0, 61, 53
1, 25932, Note_on_c, 0, 56, 86
1, 25935, Note_on_c, 0, 63, 78
1, 25935, Note_on_c, 0, 66, 83
1, 25969, Control_c, 0, 64, 82
1, 25978, Note_off_c, 0, 56, 60
1, 25984, Note_off_c, 0, 63, 60
1, 25984, Control_c, 0, 64, 59
1, 25994, Note_off_c, 0, 66, 62
1, 25998, Control_c, 0, 64, 0
1, 26009, Note_on_c, 0, 65, 94
1, 26011, Note_on_c, 0, 61, 86
1, 26077, Note_off_c, 0, 61, 63
1, 26084, Note_off_c, 0, 65, 48
1, 26088, Note_on_c, 0, 49, 82
1, 26089, Note_on_c, 0, 70, 82
1, 26105, Note_on_c, 0, 66, 76
1, 26164, Note_off_c, 0, 66, 64
1, 26170, Note_on_c, 0, 68, 79
1, 26182, Note_off_c, 0, 70, 63
1, 26184, Control_c, 0, 64, 44
1, 26184, Control_c, 0, 67, 64
1, 26194, Note_on_c, 0, 56, 79
1, 26198, Control_c, 0, 64, 60
1, 26198, Control_c, 0, 67, 127
1, 26201, Note_off_c, 0, 49, 60
1, 26213, Control_c, 0, 64, 65
1, 26228, Control_c, 0, 64, 68
1, 26243, Control_c, 0, 64, 73
1, 26258, Control_c, 0, 64, 82
1, 26260, Note_on_c, 0, 61, 102
1, 26266, Note_on_c, 0, 65, 84
1, 26272, Control_c, 0, 64, 99
1, 26281, Note_off_c, 0, 56, 62
1, 26284, Note_off_c, 0, 68, 59
1, 26287, Control_c, 0, 64, 127
1, 26296, Note_off_c, 0, 61, 68
1, 26331, Note_off_c, 0, 65, 63
1, 26421, Control_c, 0, 64, 95
1, 26436, Control_c, 0, 64, 77
1, 26451, Control_c, 0, 64, 61
1, 26466, Control_c, 0, 64, 40
1, 26481, Control_c, 0, 64, 0
1, 26549, Note_on_c, 0, 81, 81
1, 26551, Note_on_c, 0, 73, 70
1, 26571, Note_off_c, 0, 81, 66
1, 26592, Note_off_c, 0, 73, 62
1, 26624, Note_on_c, 0, 78, 54
1, 26632, Note_on_c, 0, 81, 65
1, 26635, Note_on_c, 0, 66, 68
1, 26655, Note_off_c, 0, 78, 64
1, 26656, Note_off_c, 0, 81, 66
1, 26683, Note_off_c, 0, 66, 63
1, 26695, Note_on_c, 0, 63, 61
1, 26706, Note_on_c, 0, 81, 84
1, 26711, Note_on_c, 0, 78, 71
1, 26716, Note_off_c, 0, 63, 63
1, 26733, Note_off_c, 0, 78, 70
1, 26739, Note_off_c, 0, 81, 65
1, 26762, Control_c, 0, 64, 37
1, 26777, Control_c, 0, 64, 51
1, 26784, Note_on_c, 0, 56, 89
1, 26788, Note_on_c, 0, 81, 80
1, 26790, Note_on_c, 0, 49, 78
1, 26792, Note_on_c, 0, 78, 79
1, 26792, Control_c, 0, 64, 60
1, 26807, Control_c, 0, 64, 64
1, 26808, Note_off_c, 0, 56, 69
1, 26814, Note_off_c, 0, 49, 67
1, 26821, Control_c, 0, 64, 64
1, 26828, Note_off_c, 0, 78, 56
1, 26836, Control_c, 0, 64, 65
1, 26849, Note_off_c, 0, 81, 64
1, 26859, Control_c, 0, 64, 65
1, 26890, Note_on_c, 0, 77, 78
1, 26957, Note_on_c, 0, 75, 72
1, 26961, Note_on_c, 0, 81, 85
1, 26973, Note_off_c, 0, 77, 61
1, 26975, Note_on_c, 0, 78, 73
1, 26994, Note_off_c, 0, 75, 61
1, 27006, Note_off_c, 0, 78, 57
1, 27014, Note_off_c, 0, 81, 63
1, 27028, Note_on_c, 0, 68, 69
1, 27036, Control_c, 0, 64, 64
1, 27051, Control_c, 0, 64, 61
1, 27052, Note_on_c, 0, 74, 88
1, 27066, Control_c, 0, 64, 53
1, 27081, Control_c, 0, 64, 42
1, 27091, Note_off_c, 0, 68, 62
1, 27095, Control_c, 0, 64, 0
1, 27117, Note_on_c, 0, 69, 79
1, 27118, Note_on_c, 0, 66, 62
1, 27127, Note_on_c, 0, 78, 74
1, 27131, Note_off_c, 0, 74, 61
1, 27136, Note_on_c, 0, 75, 76
1, 27148, Note_on_c, 0, 65, 50
1, 27151, Note_off_c, 0, 66, 67
1, 27157, Note_off_c, 0, 75, 72
1, 27159, Note_on_c, 0, 79, 51
1, 27160, Note_off_c, 0, 78, 48
1, 27178, Note_off_c, 0, 79, 62
1, 27201, Note_on_c, 0, 77, 95
1, 27202, Note_off_c, 0, 69, 60
1, 27219, Note_on_c, 0, 68, 79
1, 27259, Control_c, 0, 64, 36
1, 27260, Note_on_c, 0, 63, 67
1, 27266, Note_on_c, 0, 66, 85
1, 27274, Control_c, 0, 64, 50
1, 27278, Note_on_c, 0, 78, 90
1, 27282, Note_off_c, 0, 68, 61
1, 27284, Note_on_c, 0, 81, 79
1, 27289, Control_c, 0, 64, 62
1, 27295, Note_off_c, 0, 77, 56
1, 27304, Note_on_c, 0, 82, 52
1, 27304, Control_c, 0, 64, 67
1, 27318, Control_c, 0, 64, 70
1, 27322, Note_off_c, 0, 82, 39
1, 27327, Note_off_c, 0, 65, 34
1, 27333, Control_c, 0, 64, 72
1, 27348, Control_c, 0, 64, 74
1, 27351, Note_off_c, 0, 81, 63
1, 27354, Note_on_c, 0, 69, 82
1, 27357, Note_off_c, 0, 66, 59
1, 27360, Note_on_c, 0, 85, 89
1, 27363, Control_c, 0, 64, 77
1, 27369, Note_off_c, 0, 78, 58
1, 27378, Control_c, 0, 64, 79
1, 27383, Note_off_c, 0, 63, 56
1, 27392, Control_c, 0, 64, 82
1, 27407, Control_c, 0, 64, 85
1, 27413, Note_off_c, 0, 69, 63
1, 27422, Control_c, 0, 64, 87
1, 27437, Note_on_c, 0, 68, 80
1, 27437, Control_c, 0, 64, 90
1, 27439, Note_on_c, 0, 84, 78
1, 27452, Control_c, 0, 64, 91
1, 27453, Note_off_c, 0, 85, 61
1, 27461, Note_off_c, 0, 84, 65
1, 27489, Note_off_c, 0, 68, 65
1, 27497, Control_c, 0, 64, 89
1, 27512, Control_c, 0, 64, 84
1, 27526, Note_on_c, 0, 73, 88
1, 27527, Control_c, 0, 64, 75
1, 27529, Note_on_c, 0, 80, 92
1, 27530, Note_on_c, 0, 76, 78
1, 27542, Control_c, 0, 64, 65
1, 27550, Note_off_c, 0, 76, 72
1, 27556, Control_c, 0, 64, 51
1, 27567, Note_off_c, 0, 80, 62
1, 27571, Control_c, 0, 64, 0
1, 27576, Note_off_c, 0, 73, 64
1, 27607, Note_on_c, 0, 68, 69
1, 27613, Poly_aftertouch_c, 0, 80, 0
1, 27615, Note_on_c, 0, 76, 91
1, 27619, Note_on_c, 0, 80, 69
1, 27642, Note_off_c, 0, 76, 64
1, 27648, Note_off_c, 0, 80, 65
1, 27664, Note_off_c, 0, 68, 64
1, 27681, Note_on_c, 0, 64, 54
1, 27702, Note_on_c, 0, 76, 79
1, 27702, Note_off_c, 0, 64, 62
1, 27703, Note_on_c, 0, 80, 87
1, 27712, Control_c, 0, 64, 41
1, 27726, Note_off_c, 0, 76, 65
1, 27726, Control_c, 0, 64, 55
1, 27738, Note_off_c, 0, 80, 64
1, 27741, Control_c, 0, 64, 63
1, 27756, Control_c, 0, 64, 66
1, 27765, Note_on_c, 0, 56, 87
1, 27770, Note_on_c, 0, 49, 76
1, 27771, Control_c, 0, 64, 67
1, 27776, Poly_aftertouch_c, 0, 80, 0
1, 27780, Note_on_c, 0, 80, 85
1, 27783, Note_on_c, 0, 76, 89
1, 27786, Control_c, 0, 64, 68
1, 27788, Note_off_c, 0, 56, 70
1, 27788, Note_off_c, 0, 49, 67
1, 27801, Control_c, 0, 64, 69
1, 27809, Note_off_c, 0, 76, 66
1, 27833, Note_off_c, 0, 80, 66
1, 27845, Control_c, 0, 64, 69
1, 27860, Control_c, 0, 64, 69
1, 27871, Note_on_c, 0, 73, 88
1, 27881, Note_on_c, 0, 65, 70
1, 27890, Control_c, 0, 64, 68
1, 27904, Control_c, 0, 64, 67
1, 27905, Note_off_c, 0, 65, 69
1, 27920, Control_c, 0, 64, 64
1, 27934, Note_on_c, 0, 78, 77
1, 27935, Note_off_c, 0, 73, 64
1, 27935, Control_c, 0, 64, 58
1, 27936, Note_on_c, 0, 68, 75
1, 27943, Note_on_c, 0, 75, 71
1, 27949, Control_c, 0, 64, 49
1, 27964, Control_c, 0, 64, 40
1, 27966, Note_off_c, 0, 68, 63
1, 27974, Note_off_c, 0, 75, 63
1, 27979, Control_c, 0, 64, 30
1, 27986, Note_off_c, 0, 78, 61
1, 27993, Control_c, 0, 64, 0
1, 28009, Note_on_c, 0, 76, 92
1, 28011, Note_on_c, 0, 73, 71
1, 28049, Note_off_c, 0, 73, 64
1, 28060, Note_off_c, 0, 76, 59
1, 28083, Note_on_c, 0, 81, 81
1, 28087, Note_on_c, 0, 61, 75
1, 28095, Note_on_c, 0, 78, 64
1, 28159, Note_off_c, 0, 78, 54
1, 28162, Note_on_c, 0, 80, 80
1, 28165, Note_off_c, 0, 81, 63
1, 28168, Note_off_c, 0, 61, 61
1, 28179, Note_on_c, 0, 68, 72
1, 28186, Control_c, 0, 64, 28
1, 28200, Control_c, 0, 64, 39
1, 28215, Control_c, 0, 64, 54
1, 28230, Control_c, 0, 64, 64
1, 28245, Control_c, 0, 64, 70
1, 28251, Note_on_c, 0, 76, 93
1, 28255, Note_off_c, 0, 80, 58
1, 28260, Control_c, 0, 64, 76
1, 28260, Note_on_c, 0, 73, 94
1, 28275, Control_c, 0, 64, 82
1, 28290, Note_off_c, 0, 76, 67
1, 28290, Control_c, 0, 64, 88
1, 28305, Control_c, 0, 64, 93
1, 28305, Note_off_c, 0, 73, 63
1, 28314, Note_off_c, 0, 68, 62
1, 28319, Control_c, 0, 64, 95
1, 28371, Control_c, 0, 64, 97
1, 28489, Control_c, 0, 64, 92
1, 28504, Control_c, 0, 64, 75
1, 28519, Control_c, 0, 64, 55
1, 28529, Note_on_c, 0, 56, 72
1, 28533, Note_on_c, 0, 59, 72
1, 28534, Control_c, 0, 64, 0
1, 28540, Note_on_c, 0, 62, 88
1, 28549, Control_c, 0, 67, 120
1, 28563, Note_off_c, 0, 59, 67
1, 28564, Control_c, 0, 67, 0
1, 28585, Note_off_c, 0, 56, 58
1, 28593, Control_c, 0, 64, 30
1, 28607, Note_off_c, 0, 62, 61
1, 28608, Control_c, 0, 64, 43
1, 28615, Note_on_c, 0, 66, 80
1, 28621, Note_on_c, 0, 54, 56
1, 28621, Note_on_c, 0, 63, 74
1, 28623, Control_c, 0, 64, 56
1, 28638, Control_c, 0, 64, 62
1, 28647, Note_on_c, 0, 58, 67
1, 28653, Control_c, 0, 64, 65
1, 28653, Note_off_c, 0, 63, 63
1, 28659, Note_off_c, 0, 54, 63
1, 28665, Note_off_c, 0, 66, 64
1, 28667, Control_c, 0, 64, 66
1, 28682, Control_c, 0, 64, 68
1, 28684, Note_on_c, 0, 65, 88
1, 28697, Control_c, 0, 64, 70
1, 28704, Note_on_c, 0, 53, 44
1, 28704, Note_on_c, 0, 56, 76
1, 28712, Control_c, 0, 64, 71
1, 28715, Note_off_c, 0, 58, 58
1, 28728, Control_c, 0, 64, 72
1, 28743, Control_c, 0, 64, 71
1, 28758, Control_c, 0, 64, 69
1, 28760, Note_on_c, 0, 54, 77
1, 28764, Note_on_c, 0, 66, 93
1, 28764, Note_off_c, 0, 56, 65
1, 28766, Note_off_c, 0, 65, 59
1, 28767, Note_off_c, 0, 53, 64
1, 28772, Control_c, 0, 64, 60
1, 28778, Note_on_c, 0, 69, 69
1, 28783, Note_off_c, 0, 54, 69
1, 28787, Control_c, 0, 64, 32
1, 28802, Control_c, 0, 64, 0
1, 28806, Note_on_c, 0, 70, 36
1, 28821, Note_off_c, 0, 66, 63
1, 28821, Note_off_c, 0, 69, 63
1, 28840, Note_off_c, 0, 70, 56
1, 28846, Note_on_c, 0, 69, 73
1, 28890, Control_c, 0, 64, 50
1, 28905, Control_c, 0, 64, 72
1, 28907, Note_on_c, 0, 37, 95
1, 28908, Note_on_c, 0, 49, 98
1, 28919, Note_on_c, 0, 70, 87
1, 28920, Control_c, 0, 64, 102
1, 28925, Note_on_c, 0, 73, 86
1, 28933, Note_off_c, 0, 69, 62
1, 28934, Note_off_c, 0, 37, 70
1, 28935, Control_c, 0, 64, 127
1, 28949, Note_off_c, 0, 49, 64
1, 28976, Note_off_c, 0, 70, 63
1, 28987, Note_off_c, 0, 73, 60
1, 29010, Note_on_c, 0, 71, 92
1, 29018, Note_on_c, 0, 55, 85
1, 29070, Note_off_c, 0, 71, 62
1, 29071, Note_off_c, 0, 55, 61
1, 29099, Note_on_c, 0, 72, 75
1, 29100, Note_on_c, 0, 75, 75
1, 29103, Note_on_c, 0, 56, 82
1, 29130, Note_on_c, 0, 73, 65
1, 29153, Note_off_c, 0, 56, 61
1, 29163, Note_off_c, 0, 72, 63
1, 29167, Note_on_c, 0, 57, 81
1, 29173, Note_on_c, 0, 70, 91
1, 29177, Note_off_c, 0, 75, 54
1, 29192, Note_off_c, 0, 73, 63
1, 29214, Note_off_c, 0, 70, 68
1, 29237, Note_off_c, 0, 57, 58
1, 29241, Note_on_c, 0, 58, 88
1, 29252, Note_on_c, 0, 72, 85
1, 29256, Note_on_c, 0, 68, 81
1, 29314, Note_on_c, 0, 59, 78
1, 29320, Note_on_c, 0, 67, 95
1, 29321, Note_off_c, 0, 68, 62
1, 29337, Note_off_c, 0, 72, 62
1, 29349, Note_off_c, 0, 58, 62
1, 29363, Note_off_c, 0, 59, 65
1, 29373, Note_on_c, 0, 60, 86
1, 29399, Note_on_c, 0, 70, 87
1, 29401, Note_off_c, 0, 60, 66
1, 29403, Note_on_c, 0, 66, 85
1, 29404, Note_off_c, 0, 67, 39
1, 29446, Control_c, 0, 64, 80
1, 29459, Note_off_c, 0, 66, 63
1, 29461, Control_c, 0, 64, 50
1, 29461, Note_off_c, 0, 70, 65
1, 29468, Note_on_c, 0, 61, 94
1, 29476, Control_c, 0, 64, 0
1, 29479, Note_on_c, 0, 64, 84
1, 29488, Note_on_c, 0, 62, 73
1, 29505, Control_c, 0, 64, 49
1, 29509, Note_off_c, 0, 62, 39
1, 29521, Control_c, 0, 64, 68
1, 29536, Control_c, 0, 64, 94
1, 29551, Control_c, 0, 64, 127
1, 29557, Note_on_c, 0, 56, 79
1, 29562, Note_on_c, 0, 65, 77
1, 29563, Note_on_c, 0, 68, 75
1, 29565, Note_off_c, 0, 64, 67
1, 29578, Note_off_c, 0, 61, 56
1, 29608, Note_off_c, 0, 65, 62
1, 29623, Note_off_c, 0, 68, 60
1, 29633, Note_on_c, 0, 49, 74
1, 29642, Note_on_c, 0, 67, 89
1, 29645, Note_off_c, 0, 56, 59
1, 29684, Control_c, 0, 64, 97
1, 29694, Note_off_c, 0, 67, 61
1, 29697, Note_on_c, 0, 63, 92
1, 29699, Control_c, 0, 64, 61
1, 29708, Note_on_c, 0, 73, 88
1, 29713, Control_c, 0, 64, 0
1, 29720, Note_on_c, 0, 68, 77
1, 29740, Note_off_c, 0, 49, 62
1, 29747, Note_off_c, 0, 68, 57
1, 29758, Control_c, 0, 64, 41
1, 29760, Note_on_c, 0, 51, 3
1, 29772, Control_c, 0, 64, 60
1, 29773, Note_off_c, 0, 63, 64
1, 29777, Note_on_c, 0, 54, 69
1, 29785, Note_on_c, 0, 69, 91
1, 29786, Note_off_c, 0, 73, 61
1, 29787, Control_c, 0, 64, 69
1, 29798, Note_off_c, 0, 51, 40
1, 29802, Control_c, 0, 64, 75
1, 29817, Control_c, 0, 64, 80
1, 29829, Note_off_c, 0, 69, 66
1, 29832, Control_c, 0, 64, 82
1, 29853, Note_on_c, 0, 49, 83
1, 29854, Control_c, 0, 64, 83
1, 29860, Note_on_c, 0, 72, 90
1, 29869, Control_c, 0, 64, 84
1, 29872, Note_off_c, 0, 54, 61
1, 29879, Note_on_c, 0, 48, 77
1, 29914, Control_c, 0, 64, 82
1, 29926, Note_off_c, 0, 48, 53
1, 29928, Control_c, 0, 64, 70
1, 29931, Note_on_c, 0, 70, 88
1, 29933, Note_on_c, 0, 61, 92
1, 29943, Control_c, 0, 64, 54
1, 29948, Note_on_c, 0, 65, 82
1, 29958, Control_c, 0, 64, 0
1, 29962, Note_off_c, 0, 72, 61
1, 29966, Note_on_c, 0, 51, 36
1, 29986, Note_off_c, 0, 49, 62
1, 30010, Note_on_c, 0, 53, 68
1, 30014, Note_off_c, 0, 51, 51
1, 30018, Note_on_c, 0, 68, 83
1, 30022, Note_off_c, 0, 70, 64
1, 30023, Note_off_c, 0, 61, 61
1, 30045, Note_off_c, 0, 65, 59
1, 30083, Note_on_c, 0, 49, 82
1, 30105, Note_on_c, 0, 69, 75
1, 30149, Note_off_c, 0, 68, 60
1, 30165, Control_c, 0, 64, 44
1, 30171, Note_on_c, 0, 59, 98
1, 30171, Note_off_c, 0, 69, 62
1, 30174, Note_on_c, 0, 56, 90
1, 30174, Note_on_c, 0, 62, 89
1, 30177, Note_on_c, 0, 65, 90
1, 30180, Control_c, 0, 64, 62
1, 30180, Control_c, 0, 67, 74
1, 30183, Note_off_c, 0, 53, 60
1, 30194, Control_c, 0, 64, 69
1, 30194, Control_c, 0, 67, 127
1, 30209, Control_c, 0, 64, 74
1, 30209, Note_off_c, 0, 49, 63
1, 30221, Note_off_c, 0, 62, 64
1, 30224, Control_c, 0, 64, 78
1, 30236, Note_off_c, 0, 65, 66
1, 30238, Control_c, 0, 64, 82
1, 30250, Note_off_c, 0, 59, 54
1, 30251, Note_on_c, 0, 64, 2
1, 30253, Control_c, 0, 64, 84
1, 30263, Note_off_c, 0, 56, 59
1, 30268, Control_c, 0, 64, 84
1, 30283, Control_c, 0, 64, 85
1, 30297, Note_off_c, 0, 64, 48
1, 30329, Control_c, 0, 64, 84
1, 30358, Control_c, 0, 64, 83
1, 30373, Control_c, 0, 64, 79
1, 30387, Control_c, 0, 64, 72
1, 30402, Control_c, 0, 64, 64
1, 30417, Control_c, 0, 64, 52
1, 30432, Control_c, 0, 64, 31
1, 30437, Note_on_c, 0, 68, 73
1, 30438, Note_on_c, 0, 71, 68
1, 30442, Note_on_c, 0, 74, 90
1, 30447, Control_c, 0, 64, 0
1, 30460, Note_off_c, 0, 71, 63
1, 30493, Note_off_c, 0, 68, 59
1, 30511, Note_off_c, 0, 74, 62
1, 30522, Note_on_c, 0, 78, 73
1, 30523, Note_on_c, 0, 75, 73
1, 30524, Note_on_c, 0, 69, 76
1, 30532, Note_on_c, 0, 66, 65
1, 30545, Note_off_c, 0, 75, 71
1, 30560, Note_off_c, 0, 78, 61
1, 30564, Note_off_c, 0, 66, 63
1, 30600, Note_on_c, 0, 77, 86
1, 30606, Note_on_c, 0, 68, 77
1, 30610, Note_off_c, 0, 69, 61
1, 30611, Note_on_c, 0, 65, 44
1, 30641, Note_off_c, 0, 77, 62
1, 30663, Note_on_c, 0, 66, 75
1, 30670, Note_off_c, 0, 68, 62
1, 30678, Note_on_c, 0, 81, 84
1, 30680, Note_off_c, 0, 65, 63
1, 30684, Note_on_c, 0, 78, 79
1, 30692, Note_off_c, 0, 66, 68
1, 30702, Note_off_c, 0, 81, 64
1, 30706, Control_c, 0, 64, 36
1, 30714, Note_off_c, 0, 78, 60
1, 30720, Control_c, 0, 64, 46
1, 30722, Note_on_c, 0, 64, 10
1, 30735, Control_c, 0, 64, 59
1, 30750, Control_c, 0, 64, 64
1, 30765, Control_c, 0, 64, 66
1, 30770, Note_on_c, 0, 80, 83
1, 30773, Note_off_c, 0, 64, 29
1, 30780, Control_c, 0, 64, 70
1, 30794, Control_c, 0, 64, 74
1, 30809, Control_c, 0, 64, 80
1, 30821, Note_on_c, 0, 61, 78
1, 30824, Control_c, 0, 64, 87
1, 30829, Note_off_c, 0, 80, 65
1, 30831, Note_on_c, 0, 85, 83
1, 30838, Note_on_c, 0, 81, 71
1, 30839, Control_c, 0, 64, 93
1, 30844, Note_on_c, 0, 49, 42
1, 30847, Note_off_c, 0, 61, 69
1, 30854, Control_c, 0, 64, 93
1, 30859, Note_off_c, 0, 81, 71
1, 30875, Note_off_c, 0, 49, 51
1, 30884, Note_off_c, 0, 85, 63
1, 30898, Control_c, 0, 64, 93
1, 30910, Note_on_c, 0, 83, 94
1, 30913, Control_c, 0, 64, 91
1, 30925, Note_on_c, 0, 67, 82
1, 30928, Control_c, 0, 64, 89
1, 30943, Control_c, 0, 64, 89
1, 30970, Note_off_c, 0, 83, 60
1, 30986, Note_on_c, 0, 87, 80
1, 30986, Note_on_c, 0, 84, 83
1, 30996, Note_on_c, 0, 68, 79
1, 30999, Note_on_c, 0, 85, 70
1, 31010, Note_off_c, 0, 67, 40
1, 31032, Control_c, 0, 64, 88
1, 31037, Note_off_c, 0, 85, 57
1, 31040, Note_off_c, 0, 84, 64
1, 31047, Control_c, 0, 64, 83
1, 31052, Note_off_c, 0, 87, 63
1, 31054, Note_off_c, 0, 68, 62
1, 31059, Note_on_c, 0, 81, 91
1, 31062, Control_c, 0, 64, 81
1, 31067, Note_on_c, 0, 69, 79
1, 31077, Control_c, 0, 64, 80
1, 31098, Note_off_c, 0, 81, 67
1, 31107, Control_c, 0, 64, 81
1, 31135, Note_on_c, 0, 84, 86
1, 31136, Note_on_c, 0, 80, 88
1, 31137, Control_c, 0, 64, 82
1, 31141, Note_on_c, 0, 70, 82
1, 31152, Control_c, 0, 64, 83
1, 31153, Note_off_c, 0, 69, 61
1, 31158, Poly_aftertouch_c, 0, 83, 0
1, 31166, Control_c, 0, 64, 84
1, 31195, Note_off_c, 0, 80, 62
1, 31204, Note_on_c, 0, 79, 86
1, 31211, Control_c, 0, 64, 84
1, 31215, Note_on_c, 0, 71, 73
1, 31223, Note_off_c, 0, 84, 65
1, 31226, Control_c, 0, 64, 85
1, 31229, Note_off_c, 0, 70, 57
1, 31241, Control_c, 0, 64, 87
1, 31255, Note_off_c, 0, 71, 59
1, 31256, Control_c, 0, 64, 90
1, 31269, Note_on_c, 0, 72, 82
1, 31271, Control_c, 0, 64, 94
1, 31285, Control_c, 0, 64, 98
1, 31292, Note_on_c, 0, 83, 62
1, 31296, Note_off_c, 0, 72, 63
1, 31309, Note_off_c, 0, 83, 66
1, 31321, Note_off_c, 0, 79, 63
1, 31330, Control_c, 0, 64, 80
1, 31351, Control_c, 0, 64, 56
1, 31366, Control_c, 0, 64, 0
1, 31373, Note_on_c, 0, 75, 92
1, 31386, Note_on_c, 0, 73, 78
1, 31411, Control_c, 0, 64, 38
1, 31426, Control_c, 0, 64, 56
1, 31441, Control_c, 0, 64, 65
1, 31446, Note_on_c, 0, 80, 71
1, 31455, Note_on_c, 0, 76, 76
1, 31455, Control_c, 0, 64, 67
1, 31461, Note_on_c, 0, 68, 65
1, 31461, Note_off_c, 0, 75, 61
1, 31464, Note_off_c, 0, 73, 59
1, 31470, Control_c, 0, 64, 68
1, 31485, Control_c, 0, 64, 69
1, 31500, Control_c, 0, 64, 70
1, 31515, Control_c, 0, 64, 72
1, 31530, Control_c, 0, 64, 74
1, 31530, Note_on_c, 0, 78, 74
1, 31536, Note_off_c, 0, 80, 64
1, 31538, Note_off_c, 0, 76, 66
1, 31544, Control_c, 0, 64, 77
1, 31547, Note_off_c, 0, 68, 57
1, 31551, Note_off_c, 0, 78, 70
1, 31557, Note_on_c, 0, 61, 60
1, 31559, Control_c, 0, 64, 78
1, 31574, Control_c, 0, 64, 80
1, 31589, Control_c, 0, 64, 82
1, 31593, Note_off_c, 0, 61, 63
1, 31604, Control_c, 0, 64, 84
1, 31618, Control_c, 0, 64, 86
1, 31633, Control_c, 0, 64, 88
1, 31648, Control_c, 0, 64, 88
1, 31663, Control_c, 0, 64, 88
1, 31678, Control_c, 0, 64, 79
1, 31688, Note_on_c, 0, 85, 85
1, 31692, Control_c, 0, 64, 65
1, 31707, Control_c, 0, 64, 44
1, 31712, Note_on_c, 0, 74, 64
1, 31721, Note_on_c, 0, 76, 53
1, 31722, Control_c, 0, 64, 0
1, 31751, Control_c, 0, 64, 42
1, 31766, Control_c, 0, 64, 58
1, 31779, Poly_aftertouch_c, 0, 79, 127
1, 31781, Control_c, 0, 64, 66
1, 31796, Control_c, 0, 64, 70
1, 31810, Control_c, 0, 64, 72
1, 31825, Control_c, 0, 64, 74
1, 31831, Note_on_c, 0, 68, 59
1, 31832, Note_on_c, 0, 80, 73
1, 31836, Note_off_c, 0, 85, 61
1, 31840, Control_c, 0, 64, 76
1, 31855, Control_c, 0, 64, 78
1, 31864, Note_off_c, 0, 74, 51
1, 31870, Poly_aftertouch_c, 0, 79, 0
1, 31870, Control_c, 0, 64, 79
1, 31885, Control_c, 0, 64, 79
1, 31888, Note_off_c, 0, 80, 63
1, 31894, Note_off_c, 0, 76, 37
1, 31900, Control_c, 0, 64, 80
1, 31908, Note_off_c, 0, 68, 62
1, 31929, Note_on_c, 0, 64, 45
1, 31933, Note_on_c, 0, 83, 81
1, 31955, Note_off_c, 0, 64, 57
1, 31974, Control_c, 0, 64, 79
1, 31989, Note_on_c, 0, 73, 70
1, 31989, Control_c, 0, 64, 72
1, 32004, Note_on_c, 0, 81, 74
1, 32004, Control_c, 0, 64, 61
1, 32010, Note_on_c, 0, 76, 62
1, 32019, Control_c, 0, 64, 32
1, 32022, Note_off_c, 0, 73, 62
1, 32026, Note_off_c, 0, 83, 61
1, 32034, Control_c, 0, 64, 0
1, 32076, Note_on_c, 0, 64, 46
1, 32077, Note_on_c, 0, 80, 83
1, 32090, Note_off_c, 0, 76, 62
1, 32091, Note_off_c, 0, 81, 65
1, 32128, Note_off_c, 0, 64, 62
1, 32143, Note_on_c, 0, 57, 66
1, 32152, Note_on_c, 0, 81, 80
1, 32157, Note_off_c, 0, 80, 56
1, 32213, Note_off_c, 0, 81, 63
1, 32222, Note_on_c, 0, 76, 81
1, 32225, Note_on_c, 0, 73, 88
1, 32230, Note_on_c, 0, 64, 73
1, 32235, Note_on_c, 0, 69, 81
1, 32248, Control_c, 0, 64, 88
1, 32260, Note_off_c, 0, 69, 65
1, 32263, Control_c, 0, 64, 127
1, 32272, Note_off_c, 0, 76, 65
1, 32272, Note_off_c, 0, 64, 65
1, 32280, Note_off_c, 0, 73, 61
1, 32281, Note_off_c, 0, 57, 65
1, 32293, Control_c, 0, 67, 85
1, 32308, Control_c, 0, 67, 0
1, 32412, Control_c, 0, 64, 79
1, 32427, Control_c, 0, 64, 34
1, 32441, Control_c, 0, 64, 0
1, 32475, Note_on_c, 0, 50, 92
1, 32476, Note_on_c, 0, 54, 98
1, 32482, Note_on_c, 0, 45, 72
1, 32487, Note_on_c, 0, 42, 75
1, 32509, Note_off_c, 0, 42, 67
1, 32510, Note_off_c, 0, 45, 65
1, 32511, Note_off_c, 0, 50, 66
1, 32515, Control_c, 0, 64, 67
1, 32520, Note_off_c, 0, 54, 64
1, 32530, Control_c, 0, 64, 127
1, 32539, Note_on_c, 0, 57, 72
1, 32561, Note_on_c, 0, 62, 80
1, 32588, Note_off_c, 0, 57, 63
1, 32653, Note_on_c, 0, 69, 63
1, 32656, Note_on_c, 0, 66, 68
1, 32679, Note_off_c, 0, 62, 60
1, 32727, Note_on_c, 0, 74, 106
1, 32728, Note_on_c, 0, 78, 102
1, 32729, Note_off_c, 0, 66, 63
1, 32742, Note_off_c, 0, 69, 58
1, 32749, Note_off_c, 0, 78, 62
1, 32756, Note_off_c, 0, 74, 68
1, 32800, Note_on_c, 0, 65, 68
1, 32822, Note_on_c, 0, 61, 62
1, 32862, Note_off_c, 0, 65, 61
1, 32867, Note_off_c, 0, 61, 61
1, 32889, Note_on_c, 0, 66, 80
1, 32898, Note_on_c, 0, 62, 74
1, 32923, Control_c, 0, 64, 85
1, 32938, Control_c, 0, 64, 58
1, 32942, Note_off_c, 0, 66, 63
1, 32947, Note_off_c, 0, 62, 61
1, 32953, Control_c, 0, 64, 0
1, 32979, Note_on_c, 0, 61, 94
1, 32980, Note_on_c, 0, 58, 95
1, 33000, Note_off_c, 0, 58, 71
1, 33009, Note_off_c, 0, 61, 66
1, 33048, Note_on_c, 0, 62, 81
1, 33049, Note_on_c, 0, 59, 81
1, 33096, Note_off_c, 0, 62, 59
1, 33124, Note_on_c, 0, 65, 75
1, 33128, Note_on_c, 0, 61, 79
1, 33137, Note_off_c, 0, 59, 62
1, 33150, Note_off_c, 0, 61, 71
1, 33181, Note_off_c, 0, 65, 63
1, 33202, Note_on_c, 0, 62, 99
1, 33207, Note_on_c, 0, 66, 85
1, 33226, Note_off_c, 0, 66, 71
1, 33229, Note_off_c, 0, 62, 68
1, 33283, Note_on_c, 0, 66, 60
1, 33292, Note_on_c, 0, 69, 72
1, 33360, Note_on_c, 0, 64, 66
1, 33378, Note_on_c, 0, 67, 61
1, 33387, Note_off_c, 0, 69, 61
1, 33391, Note_off_c, 0, 66, 63
1, 33407, Note_off_c, 0, 67, 67
1, 33419, Note_off_c, 0, 64, 62
1, 33427, Control_c, 0, 64, 36
1, 33441, Note_on_c, 0, 56, 99
1, 33442, Control_c, 0, 64, 78
1, 33446, Note_on_c, 0, 51, 79
1, 33447, Note_on_c, 0, 44, 85
1, 33456, Control_c, 0, 64, 127
1, 33465, Note_off_c, 0, 51, 63
1, 33474, Note_off_c, 0, 44, 68
1, 33477, Note_off_c, 0, 56, 57
1, 33483, Note_on_c, 0, 46, 24
1, 33512, Note_on_c, 0, 57, 44
1, 33520, Note_off_c, 0, 46, 44
1, 33527, Note_on_c, 0, 60, 69
1, 33528, Note_on_c, 0, 63, 76
1, 33528, Note_off_c, 0, 57, 0
1, 33563, Poly_aftertouch_c, 0, 57, 0
1, 33615, Note_on_c, 0, 72, 74
1, 33620, Note_on_c, 0, 66, 86
1, 33651, Note_off_c, 0, 60, 36
1, 33661, Note_off_c, 0, 63, 55
1, 33682, Note_off_c, 0, 72, 62
1, 33687, Note_on_c, 0, 75, 110
1, 33688, Note_on_c, 0, 78, 103
1, 33698, Note_off_c, 0, 66, 61
1, 33711, Note_off_c, 0, 78, 64
1, 33712, Note_off_c, 0, 75, 66
1, 33773, Note_on_c, 0, 60, 73
1, 33782, Note_on_c, 0, 63, 70
1, 33815, Note_off_c, 0, 63, 65
1, 33855, Note_on_c, 0, 64, 80
1, 33857, Note_on_c, 0, 61, 76
1, 33867, Note_off_c, 0, 60, 62
1, 33877, Note_off_c, 0, 61, 68
1, 33891, Note_off_c, 0, 64, 63
1, 33924, Note_on_c, 0, 63, 100
1, 33924, Control_c, 0, 64, 95
1, 33928, Note_on_c, 0, 66, 89
1, 33938, Control_c, 0, 64, 62
1, 33944, Note_off_c, 0, 63, 69
1, 33947, Note_off_c, 0, 66, 71
1, 33953, Control_c, 0, 64, 0
1, 34004, Note_on_c, 0, 64, 68
1, 34006, Note_on_c, 0, 68, 70
1, 34045, Note_off_c, 0, 64, 62
1, 34082, Note_on_c, 0, 66, 79
1, 34085, Note_on_c, 0, 63, 73
1, 34092, Note_off_c, 0, 68, 59
1, 34114, Note_off_c, 0, 63, 66
1, 34138, Note_off_c, 0, 66, 67
1, 34145, Control_c, 0, 64, 37
1, 34150, Note_on_c, 0, 63, 87
1, 34153, Note_on_c, 0, 60, 86
1, 34160, Control_c, 0, 64, 52
1, 34175, Control_c, 0, 64, 58
1, 34175, Control_c, 0, 67, 92
1, 34190, Control_c, 0, 64, 57
1, 34190, Control_c, 0, 67, 127
1, 34196, Note_off_c, 0, 63, 63
1, 34198, Note_off_c, 0, 60, 59
1, 34204, Control_c, 0, 64, 50
1, 34219, Control_c, 0, 64, 0
1, 34413, Note_on_c, 0, 66, 87
1, 34414, Note_on_c, 0, 62, 66
1, 34421, Control_c, 0, 64, 52
1, 34427, Note_on_c, 0, 54, 47
1, 34429, Note_on_c, 0, 57, 44
1, 34435, Control_c, 0, 64, 69
1, 34436, Note_off_c, 0, 66, 66
1, 34439, Note_off_c, 0, 62, 66
1, 34450, Control_c, 0, 64, 76
1, 34451, Note_off_c, 0, 54, 56
1, 34454, Note_off_c, 0, 57, 52
1, 34465, Control_c, 0, 64, 81
1, 34472, Note_on_c, 0, 69, 71
1, 34480, Control_c, 0, 64, 85
1, 34495, Control_c, 0, 64, 91
1, 34508, Note_on_c, 0, 74, 58
1, 34509, Control_c, 0, 64, 103
1, 34524, Control_c, 0, 64, 127
1, 34533, Note_off_c, 0, 69, 61
1, 34594, Note_on_c, 0, 81, 66
1, 34603, Note_on_c, 0, 78, 60
1, 34620, Note_off_c, 0, 74, 60
1, 34647, Note_on_c, 0, 90, 96
1, 34649, Note_on_c, 0, 86, 95
1, 34662, Note_off_c, 0, 78, 60
1, 34662, Note_off_c, 0, 90, 75
1, 34665, Note_off_c, 0, 86, 72
1, 34673, Note_off_c, 0, 81, 60
1, 34728, Note_on_c, 0, 77, 65
1, 34749, Note_on_c, 0, 73, 57
1, 34776, Note_off_c, 0, 77, 58
1, 34786, Note_off_c, 0, 73, 59
1, 34816, Note_on_c, 0, 74, 82
1, 34816, Note_on_c, 0, 78, 76
1, 34851, Control_c, 0, 64, 107
1, 34866, Control_c, 0, 64, 81
1, 34869, Note_off_c, 0, 74, 63
1, 34869, Note_off_c, 0, 78, 60
1, 34880, Control_c, 0, 64, 63
1, 34887, Note_on_c, 0, 70, 89
1, 34891, Note_on_c, 0, 73, 80
1, 34895, Control_c, 0, 64, 37
1, 34904, Note_off_c, 0, 70, 73
1, 34910, Control_c, 0, 64, 0
1, 34910, Note_off_c, 0, 73, 71
1, 34963, Note_on_c, 0, 74, 78
1, 34970, Note_on_c, 0, 71, 71
1, 35003, Note_off_c, 0, 74, 54
1, 35029, Note_on_c, 0, 77, 69
1, 35037, Note_on_c, 0, 73, 73
1, 35044, Note_off_c, 0, 71, 62
1, 35058, Note_off_c, 0, 73, 71
1, 35089, Note_off_c, 0, 77, 63
1, 35122, Note_on_c, 0, 74, 100
1, 35124, Note_on_c, 0, 78, 86
1, 35141, Note_off_c, 0, 74, 69
1, 35141, Note_off_c, 0, 78, 70
1, 35199, Note_on_c, 0, 81, 72
1, 35204, Note_on_c, 0, 78, 67
1, 35275, Note_on_c, 0, 76, 77
1, 35277, Note_on_c, 0, 80, 78
1, 35289, Note_off_c, 0, 81, 59
1, 35304, Note_off_c, 0, 78, 58
1, 35319, Note_off_c, 0, 76, 58
1, 35322, Note_off_c, 0, 80, 58
1, 35348, Control_c, 0, 64, 48
1, 35352, Note_on_c, 0, 68, 91
1, 35354, Note_on_c, 0, 63, 80
1, 35359, Note_on_c, 0, 56, 75
1, 35363, Control_c, 0, 64, 62
1, 35371, Note_off_c, 0, 68, 69
1, 35376, Note_off_c, 0, 63, 71
1, 35378, Control_c, 0, 64, 64
1, 35378, Note_off_c, 0, 56, 65
1, 35392, Control_c, 0, 64, 65
1, 35407, Control_c, 0, 64, 66
1, 35422, Control_c, 0, 64, 69
1, 35428, Note_on_c, 0, 72, 67
1, 35428, Note_on_c, 0, 75, 71
1, 35437, Control_c, 0, 64, 73
1, 35452, Control_c, 0, 64, 77
1, 35466, Control_c, 0, 64, 82
1, 35481, Control_c, 0, 64, 86
1, 35496, Control_c, 0, 64, 90
1, 35510, Control_c, 0, 64, 94
1, 35511, Note_on_c, 0, 78, 77
1, 35525, Control_c, 0, 64, 98
1, 35527, Note_on_c, 0, 84, 50
1, 35533, Note_off_c, 0, 72, 47
1, 35540, Control_c, 0, 64, 104
1, 35548, Note_off_c, 0, 75, 59
1, 35555, Control_c, 0, 64, 110
1, 35560, Note_off_c, 0, 84, 55
1, 35570, Control_c, 0, 64, 117
1, 35574, Note_off_c, 0, 78, 58
1, 35583, Note_on_c, 0, 87, 106
1, 35584, Control_c, 0, 64, 124
1, 35587, Note_on_c, 0, 90, 91
1, 35599, Control_c, 0, 64, 127
1, 35603, Note_off_c, 0, 90, 75
1, 35606, Note_off_c, 0, 87, 64
1, 35659, Note_on_c, 0, 72, 72
1, 35676, Note_on_c, 0, 75, 61
1, 35701, Note_off_c, 0, 75, 69
1, 35745, Note_on_c, 0, 76, 80
1, 35748, Note_off_c, 0, 72, 59
1, 35749, Note_on_c, 0, 73, 69
1, 35763, Control_c, 0, 64, 124
1, 35772, Note_off_c, 0, 73, 70
1, 35777, Note_off_c, 0, 76, 61
1, 35777, Control_c, 0, 64, 114
1, 35792, Control_c, 0, 64, 98
1, 35807, Control_c, 0, 64, 82
1, 35822, Control_c, 0, 64, 69
1, 35822, Note_on_c, 0, 75, 94
1, 35824, Note_on_c, 0, 78, 87
1, 35844, Control_c, 0, 64, 52
1, 35846, Note_off_c, 0, 75, 76
1, 35852, Note_off_c, 0, 78, 70
1, 35858, Control_c, 0, 64, 0
1, 35906, Note_on_c, 0, 76, 68
1, 35914, Note_on_c, 0, 80, 73
1, 35936, Note_off_c, 0, 76, 63
1, 35980, Note_off_c, 0, 80, 54
1, 35987, Note_on_c, 0, 78, 71
1, 35988, Note_on_c, 0, 75, 72
1, 36007, Control_c, 0, 64, 40
1, 36016, Note_off_c, 0, 75, 64
1, 36022, Control_c, 0, 64, 55
1, 36030, Note_off_c, 0, 78, 53
1, 36037, Control_c, 0, 64, 64
1, 36052, Control_c, 0, 64, 69
1, 36055, Note_on_c, 0, 73, 96
1, 36062, Note_on_c, 0, 75, 80
1, 36067, Control_c, 0, 64, 72
1, 36082, Note_off_c, 0, 75, 73
1, 36082, Control_c, 0, 64, 73
1, 36086, Note_off_c, 0, 73, 67
1, 36097, Control_c, 0, 64, 74
1, 36112, Control_c, 0, 64, 75
1, 36127, Control_c, 0, 64, 76
1, 36245, Control_c, 0, 64, 75
1, 36260, Control_c, 0, 64, 70
1, 36275, Control_c, 0, 64, 61
1, 36289, Control_c, 0, 64, 39
1, 36300, Note_on_c, 0, 57, 94
1, 36304, Control_c, 0, 64, 0
1, 36309, Note_on_c, 0, 42, 79
1, 36317, Note_on_c, 0, 50, 60
1, 36332, Note_off_c, 0, 42, 67
1, 36341, Note_off_c, 0, 50, 59
1, 36343, Note_off_c, 0, 57, 62
1, 36348, Control_c, 0, 67, 108
1, 36363, Control_c, 0, 67, 43
1, 36378, Control_c, 0, 67, 0
1, 36395, Note_on_c, 0, 62, 66
1, 36398, Note_on_c, 0, 57, 43
1, 36420, Note_off_c, 0, 57, 59
1, 36422, Note_off_c, 0, 62, 65
1, 36455, Note_on_c, 0, 61, 79
1, 36465, Note_on_c, 0, 64, 71
1, 36478, Note_off_c, 0, 61, 68
1, 36490, Note_off_c, 0, 64, 68
1, 36526, Note_on_c, 0, 62, 92
1, 36530, Note_on_c, 0, 50, 99
1, 36556, Note_off_c, 0, 50, 69
1, 36567, Note_off_c, 0, 62, 66
1, 36619, Note_on_c, 0, 62, 68
1, 36621, Note_on_c, 0, 66, 75
1, 36653, Note_off_c, 0, 66, 60
1, 36666, Control_c, 0, 64, 38
1, 36680, Note_on_c, 0, 68, 82
1, 36681, Control_c, 0, 64, 49
1, 36689, Note_on_c, 0, 64, 84
1, 36696, Control_c, 0, 64, 57
1, 36697, Note_off_c, 0, 62, 63
1, 36712, Control_c, 0, 64, 61
1, 36723, Note_off_c, 0, 64, 65
1, 36727, Control_c, 0, 64, 64
1, 36742, Control_c, 0, 64, 67
1, 36747, Note_off_c, 0, 68, 62
1, 36749, Note_on_c, 0, 66, 40
1, 36753, Note_on_c, 0, 62, 96
1, 36756, Control_c, 0, 64, 71
1, 36771, Control_c, 0, 64, 73
1, 36772, Note_off_c, 0, 62, 66
1, 36784, Note_off_c, 0, 66, 67
1, 36786, Control_c, 0, 64, 75
1, 36801, Control_c, 0, 64, 76
1, 36816, Control_c, 0, 64, 76
1, 36841, Note_on_c, 0, 69, 70
1, 36845, Note_on_c, 0, 66, 76
1, 36905, Control_c, 0, 64, 76
1, 36909, Note_on_c, 0, 64, 77
1, 36910, Note_on_c, 0, 68, 69
1, 36914, Note_off_c, 0, 69, 53
1, 36916, Note_off_c, 0, 66, 57
1, 36919, Control_c, 0, 64, 74
1, 36934, Control_c, 0, 64, 71
1, 36949, Note_off_c, 0, 64, 64
1, 36949, Control_c, 0, 64, 65
1, 36957, Note_off_c, 0, 68, 58
1, 36964, Control_c, 0, 64, 56
1, 36979, Control_c, 0, 64, 45
1, 36994, Note_on_c, 0, 62, 84
1, 36994, Control_c, 0, 64, 33
1, 36996, Note_on_c, 0, 57, 81
1, 37009, Control_c, 0, 64, 0
1, 37018, Note_off_c, 0, 62, 67
1, 37020, Note_on_c, 0, 59, 53
1, 37020, Note_off_c, 0, 57, 69
1, 37045, Note_off_c, 0, 59, 37
1, 37061, Note_on_c, 0, 66, 74
1, 37071, Note_on_c, 0, 62, 63
1, 37129, Note_off_c, 0, 62, 60
1, 37134, Note_on_c, 0, 64, 65
1, 37139, Note_on_c, 0, 61, 78
1, 37167, Note_off_c, 0, 66, 61
1, 37177, Note_off_c, 0, 64, 66
1, 37187, Note_off_c, 0, 61, 61
1, 37209, Note_on_c, 0, 56, 99
1, 37215, Note_on_c, 0, 44, 82
1, 37238, Note_off_c, 0, 56, 62
1, 37241, Note_off_c, 0, 44, 67
1, 37288, Note_on_c, 0, 60, 74
1, 37296, Note_on_c, 0, 68, 65
1, 37335, Note_off_c, 0, 68, 64
1, 37346, Note_on_c, 0, 63, 62
1, 37352, Note_off_c, 0, 60, 63
1, 37375, Note_on_c, 0, 70, 84
1, 37396, Note_off_c, 0, 63, 63
1, 37417, Note_off_c, 0, 70, 64
1, 37435, Note_on_c, 0, 68, 93
1, 37446, Note_on_c, 0, 56, 73
1, 37472, Note_off_c, 0, 68, 65
1, 37474, Note_off_c, 0, 56, 66
1, 37518, Note_on_c, 0, 68, 67
1, 37521, Note_on_c, 0, 72, 79
1, 37557, Note_off_c, 0, 68, 63
1, 37565, Control_c, 0, 64, 31
1, 37579, Control_c, 0, 64, 35
1, 37586, Note_on_c, 0, 73, 81
1, 37590, Note_on_c, 0, 70, 64
1, 37594, Control_c, 0, 64, 35
1, 37599, Note_off_c, 0, 72, 60
1, 37609, Control_c, 0, 64, 35
1, 37610, Note_off_c, 0, 73, 66
1, 37611, Note_off_c, 0, 70, 65
1, 37624, Control_c, 0, 64, 30
1, 37639, Control_c, 0, 64, 0
1, 37652, Note_on_c, 0, 68, 101
1, 37652, Note_on_c, 0, 72, 82
1, 37667, Note_off_c, 0, 68, 77
1, 37671, Note_off_c, 0, 72, 71
1, 37737, Note_on_c, 0, 72, 75
1, 37737, Note_on_c, 0, 75, 74
1, 37759, Note_off_c, 0, 75, 71
1, 37767, Note_off_c, 0, 72, 58
1, 37805, Note_on_c, 0, 73, 70
1, 37805, Note_on_c, 0, 76, 79
1, 37828, Note_off_c, 0, 73, 70
1, 37847, Control_c, 0, 64, 41
1, 37861, Control_c, 0, 64, 59
1, 37870, Note_off_c, 0, 76, 55
1, 37875, Note_on_c, 0, 75, 99
1, 37875, Note_on_c, 0, 78, 99
1, 37876, Control_c, 0, 64, 71
1, 37891, Control_c, 0, 64, 82
1, 37900, Note_off_c, 0, 75, 65
1, 37906, Control_c, 0, 64, 93
1, 37906, Note_off_c, 0, 78, 61
1, 37921, Control_c, 0, 64, 96
1, 37951, Control_c, 0, 64, 98
1, 37951, Control_c, 0, 67, 61
1, 37966, Control_c, 0, 67, 121
1, 37980, Control_c, 0, 67, 127
1, 38069, Control_c, 0, 64, 93
1, 38091, Control_c, 0, 64, 83
1, 38106, Control_c, 0, 64, 72
1, 38121, Control_c, 0, 64, 61
1, 38130, Note_on_c, 0, 54, 73
1, 38133, Note_on_c, 0, 69, 72
1, 38136, Control_c, 0, 64, 47
1, 38151, Control_c, 0, 64, 30
1, 38154, Note_off_c, 0, 54, 66
1, 38157, Note_off_c, 0, 69, 66
1, 38165, Control_c, 0, 64, 0
1, 38203, Note_on_c, 0, 74, 58
1, 38231, Note_off_c, 0, 74, 61
1, 38264, Note_on_c, 0, 73, 69
1, 38273, Note_on_c, 0, 76, 62
1, 38291, Note_off_c, 0, 73, 68
1, 38297, Note_off_c, 0, 76, 65
1, 38345, Note_on_c, 0, 74, 84
1, 38361, Note_on_c, 0, 64, 52
1, 38365, Note_off_c, 0, 74, 71
1, 38367, Note_on_c, 0, 62, 46
1, 38384, Note_off_c, 0, 64, 60
1, 38395, Note_off_c, 0, 62, 37
1, 38425, Note_on_c, 0, 78, 57
1, 38431, Note_on_c, 0, 74, 58
1, 38452, Note_off_c, 0, 78, 59
1, 38459, Note_off_c, 0, 74, 58
1, 38481, Note_on_c, 0, 80, 75
1, 38487, Note_on_c, 0, 76, 68
1, 38513, Note_off_c, 0, 76, 69
1, 38522, Note_off_c, 0, 80, 61
1, 38556, Note_on_c, 0, 78, 94
1, 38565, Note_on_c, 0, 74, 82
1, 38572, Note_off_c, 0, 78, 71
1, 38586, Note_off_c, 0, 74, 72
1, 38643, Note_on_c, 0, 78, 71
1, 38643, Note_on_c, 0, 81, 63
1, 38676, Note_off_c, 0, 81, 61
1, 38697, Note_off_c, 0, 78, 56
1, 38709, Note_on_c, 0, 76, 71
1, 38717, Note_on_c, 0, 80, 68
1, 38735, Note_off_c, 0, 76, 66
1, 38751, Note_off_c, 0, 80, 63
1, 38791, Note_on_c, 0, 74, 81
1, 38796, Note_on_c, 0, 69, 72
1, 38812, Note_off_c, 0, 74, 72
1, 38817, Note_off_c, 0, 69, 65
1, 38872, Note_on_c, 0, 78, 64
1, 38875, Note_on_c, 0, 74, 68
1, 38904, Note_off_c, 0, 74, 64
1, 38928, Note_on_c, 0, 76, 62
1, 38951, Note_on_c, 0, 73, 76
1, 38964, Note_off_c, 0, 78, 35
1, 38965, Note_off_c, 0, 76, 63
1, 38979, Note_off_c, 0, 73, 64
1, 39008, Note_on_c, 0, 68, 90
1, 39018, Note_on_c, 0, 56, 76
1, 39030, Note_off_c, 0, 68, 65
1, 39046, Note_off_c, 0, 56, 68
1, 39090, Note_on_c, 0, 80, 69
1, 39096, Note_on_c, 0, 72, 65
1, 39120, Poly_aftertouch_c, 0, 69, 0
1, 39123, Note_off_c, 0, 72, 65
1, 39124, Note_off_c, 0, 80, 63
1, 39129, Note_on_c, 0, 75, 69
1, 39160, Note_on_c, 0, 82, 82
1, 39164, Note_off_c, 0, 75, 68
1, 39196, Note_off_c, 0, 82, 66
1, 39227, Note_on_c, 0, 80, 84
1, 39244, Note_on_c, 0, 68, 55
1, 39251, Note_on_c, 0, 78, 57
1, 39257, Note_off_c, 0, 80, 66
1, 39265, Note_off_c, 0, 68, 61
1, 39271, Note_off_c, 0, 78, 39
1, 39306, Note_on_c, 0, 80, 54
1, 39310, Note_on_c, 0, 84, 67
1, 39329, Control_c, 0, 67, 109
1, 39331, Note_off_c, 0, 84, 60
1, 39336, Note_off_c, 0, 80, 69
1, 39344, Control_c, 0, 67, 0
1, 39373, Note_on_c, 0, 82, 56
1, 39373, Note_on_c, 0, 85, 76
1, 39392, Note_off_c, 0, 85, 71
1, 39393, Note_off_c, 0, 82, 60
1, 39440, Note_on_c, 0, 80, 91
1, 39440, Note_on_c, 0, 84, 91
1, 39456, Note_off_c, 0, 84, 76
1, 39459, Note_off_c, 0, 80, 73
1, 39524, Note_on_c, 0, 87, 66
1, 39525, Note_on_c, 0, 84, 63
1, 39550, Note_off_c, 0, 87, 68
1, 39588, Control_c, 0, 64, 28
1, 39590, Note_on_c, 0, 85, 67
1, 39591, Note_off_c, 0, 84, 62
1, 39595, Note_on_c, 0, 88, 72
1, 39603, Control_c, 0, 64, 37
1, 39615, Note_off_c, 0, 85, 69
1, 39618, Control_c, 0, 64, 49
1, 39632, Control_c, 0, 64, 58
1, 39632, Control_c, 0, 67, 60
1, 39645, Note_off_c, 0, 88, 59
1, 39647, Control_c, 0, 64, 63
1, 39647, Control_c, 0, 67, 118
1, 39662, Control_c, 0, 64, 66
1, 39662, Control_c, 0, 67, 127
1, 39667, Note_on_c, 0, 87, 93
1, 39667, Note_on_c, 0, 90, 92
1, 39677, Control_c, 0, 64, 67
1, 39686, Note_off_c, 0, 87, 68
1, 39692, Control_c, 0, 64, 68
1, 39692, Note_off_c, 0, 90, 62
1, 39707, Control_c, 0, 64, 69
1, 39721, Control_c, 0, 64, 71
1, 39736, Control_c, 0, 64, 73
1, 39751, Control_c, 0, 64, 74
1, 39796, Control_c, 0, 64, 74
1, 39884, Control_c, 0, 64, 74
1, 39915, Control_c, 0, 64, 73
1, 39915, Note_on_c, 0, 81, 83
1, 39919, Note_on_c, 0, 66, 80
1, 39930, Control_c, 0, 64, 71
1, 39934, Note_off_c, 0, 81, 71
1, 39942, Note_off_c, 0, 66, 72
1, 39945, Control_c, 0, 64, 68
1, 39960, Control_c, 0, 64, 64
1, 39974, Control_c, 0, 64, 58
1, 39981, Note_on_c, 0, 81, 55
1, 39989, Control_c, 0, 64, 51
1, 39990, Note_on_c, 0, 86, 59
1, 40004, Control_c, 0, 64, 45
1, 40014, Note_off_c, 0, 81, 64
1, 40019, Control_c, 0, 64, 40
1, 40020, Note_off_c, 0, 86, 66
1, 40034, Control_c, 0, 64, 35
1, 40048, Control_c, 0, 64, 32
1, 40049, Note_on_c, 0, 85, 75
1, 40055, Note_on_c, 0, 88, 73
1, 40063, Control_c, 0, 64, 29
1, 40068, Note_off_c, 0, 85, 71
1, 40076, Note_off_c, 0, 88, 72
1, 40078, Control_c, 0, 64, 0
1, 40139, Note_on_c, 0, 86, 92
1, 40141, Note_on_c, 0, 74, 93
1, 40157, Note_off_c, 0, 74, 75
1, 40165, Note_off_c, 0, 86, 64
1, 40213, Note_on_c, 0, 86, 66
1, 40245, Note_on_c, 0, 91, 50
1, 40270, Note_off_c, 0, 91, 48
1, 40273, Note_off_c, 0, 86, 57
1, 40285, Control_c, 0, 64, 33
1, 40290, Note_on_c, 0, 88, 76
1, 40293, Note_on_c, 0, 92, 73
1, 40300, Control_c, 0, 64, 41
1, 40314, Note_off_c, 0, 92, 59
1, 40315, Control_c, 0, 64, 49
1, 40318, Note_off_c, 0, 88, 62
1, 40337, Control_c, 0, 64, 56
1, 40338, Note_on_c, 0, 93, 44
1, 40352, Control_c, 0, 64, 58
1, 40367, Control_c, 0, 64, 60
1, 40368, Note_off_c, 0, 93, 52
1, 40374, Note_on_c, 0, 90, 93
1, 40375, Note_on_c, 0, 86, 95
1, 40381, Control_c, 0, 64, 62
1, 40387, Note_off_c, 0, 90, 78
1, 40396, Control_c, 0, 64, 63
1, 40401, Note_off_c, 0, 86, 68
1, 40411, Control_c, 0, 64, 64
1, 40426, Control_c, 0, 64, 65
1, 40437, Note_on_c, 0, 93, 90
1, 40441, Control_c, 0, 64, 66
1, 40443, Note_on_c, 0, 90, 83
1, 40455, Control_c, 0, 64, 66
1, 40470, Control_c, 0, 64, 67
1, 40501, Note_on_c, 0, 88, 78
1, 40502, Note_off_c, 0, 90, 61
1, 40508, Note_on_c, 0, 92, 78
1, 40536, Note_off_c, 0, 93, 61
1, 40559, Control_c, 0, 64, 66
1, 40565, Note_off_c, 0, 88, 64
1, 40572, Note_off_c, 0, 92, 66
1, 40577, Note_on_c, 0, 86, 86
1, 40617, Note_off_c, 0, 86, 65
1, 40661, Note_on_c, 0, 88, 73
1, 40664, Note_on_c, 0, 85, 71
1, 40732, Note_on_c, 0, 86, 70
1, 40733, Note_on_c, 0, 83, 65
1, 40735, Note_off_c, 0, 88, 57
1, 40756, Note_off_c, 0, 85, 40
1, 40767, Control_c, 0, 64, 65
1, 40782, Control_c, 0, 64, 62
1, 40787, Note_off_c, 0, 83, 62
1, 40792, Note_off_c, 0, 86, 64
1, 40796, Control_c, 0, 64, 56
1, 40804, Note_on_c, 0, 79, 70
1, 40805, Note_on_c, 0, 76, 75
1, 40811, Control_c, 0, 64, 48
1, 40826, Control_c, 0, 64, 45
1, 40841, Control_c, 0, 64, 46
1, 40845, Note_off_c, 0, 79, 63
1, 40854, Note_off_c, 0, 76, 60
1, 40856, Control_c, 0, 64, 49
1, 40870, Control_c, 0, 64, 55
1, 40872, Note_on_c, 0, 85, 72
1, 40881, Note_on_c, 0, 82, 70
1, 40885, Control_c, 0, 64, 61
1, 40897, Note_off_c, 0, 85, 65
1, 40900, Control_c, 0, 64, 64
1, 40902, Note_off_c, 0, 82, 71
1, 40915, Control_c, 0, 64, 65
1, 40943, Note_on_c, 0, 77, 67
1, 40944, Note_on_c, 0, 86, 86
1, 40944, Note_on_c, 0, 80, 69
1, 40945, Note_on_c, 0, 83, 73
1, 40959, Control_c, 0, 67, 114
1, 40971, Note_off_c, 0, 77, 64
1, 40974, Note_off_c, 0, 83, 62
1, 40974, Control_c, 0, 67, 95
1, 40984, Note_off_c, 0, 80, 60
1, 40989, Control_c, 0, 64, 65
1, 40989, Control_c, 0, 67, 71
1, 41000, Note_off_c, 0, 86, 65
1, 41003, Control_c, 0, 64, 66
1, 41003, Control_c, 0, 67, 49
1, 41018, Control_c, 0, 64, 67
1, 41018, Control_c, 0, 67, 0
1, 41033, Control_c, 0, 64, 68
1, 41041, Note_on_c, 0, 81, 76
1, 41048, Note_on_c, 0, 78, 65
1, 41048, Control_c, 0, 64, 70
1, 41063, Control_c, 0, 64, 71
1, 41081, Note_off_c, 0, 78, 67
1, 41085, Control_c, 0, 64, 71
1, 41100, Control_c, 0, 64, 72
1, 41103, Note_on_c, 0, 87, 79
1, 41105, Note_off_c, 0, 81, 63
1, 41106, Note_on_c, 0, 84, 79
1, 41115, Control_c, 0, 64, 72
1, 41129, Control_c, 0, 64, 73
1, 41131, Note_off_c, 0, 87, 66
1, 41144, Control_c, 0, 64, 74
1, 41145, Note_off_c, 0, 84, 63
1, 41159, Control_c, 0, 64, 74
1, 41173, Note_on_c, 0, 88, 91
1, 41174, Note_on_c, 0, 79, 70
1, 41174, Control_c, 0, 64, 75
1, 41178, Note_on_c, 0, 82, 75
1, 41184, Note_on_c, 0, 85, 81
1, 41189, Control_c, 0, 64, 75
1, 41203, Control_c, 0, 64, 76
1, 41211, Note_off_c, 0, 79, 62
1, 41214, Note_off_c, 0, 85, 54
1, 41218, Control_c, 0, 64, 77
1, 41231, Note_off_c, 0, 82, 64
1, 41233, Control_c, 0, 64, 78
1, 41238, Note_off_c, 0, 88, 65
1, 41248, Control_c, 0, 64, 79
1, 41263, Control_c, 0, 64, 80
1, 41277, Note_on_c, 0, 80, 79
1, 41278, Control_c, 0, 64, 81
1, 41279, Note_on_c, 0, 83, 84
1, 41292, Control_c, 0, 64, 81
1, 41307, Control_c, 0, 64, 82
1, 41318, Note_off_c, 0, 80, 62
1, 41322, Control_c, 0, 64, 82
1, 41328, Note_off_c, 0, 83, 64
1, 41337, Note_on_c, 0, 89, 88
1, 41345, Note_on_c, 0, 86, 75
1, 41352, Control_c, 0, 64, 83
1, 41361, Note_off_c, 0, 89, 66
1, 41369, Note_off_c, 0, 86, 68
1, 41382, Control_c, 0, 64, 83
1, 41393, Note_on_c, 0, 81, 85
1, 41394, Note_on_c, 0, 84, 85
1, 41396, Control_c, 0, 64, 84
1, 41406, Note_on_c, 0, 90, 91
1, 41409, Note_on_c, 0, 87, 88
1, 41411, Control_c, 0, 64, 85
1, 41415, Note_off_c, 0, 81, 65
1, 41421, Note_off_c, 0, 84, 63
1, 41426, Control_c, 0, 64, 86
1, 41441, Control_c, 0, 64, 88
1, 41454, Note_off_c, 0, 87, 61
1, 41455, Control_c, 0, 64, 90
1, 41462, Note_off_c, 0, 90, 64
1, 41470, Control_c, 0, 64, 91
1, 41485, Control_c, 0, 64, 92
1, 41492, Note_on_c, 0, 82, 86
1, 41494, Note_on_c, 0, 85, 92
1, 41501, Control_c, 0, 64, 93
1, 41516, Control_c, 0, 64, 93
1, 41531, Control_c, 0, 64, 94
1, 41543, Note_off_c, 0, 82, 64
1, 41543, Note_off_c, 0, 85, 64
1, 41547, Note_on_c, 0, 91, 95
1, 41551, Note_on_c, 0, 88, 82
1, 41560, Control_c, 0, 64, 94
1, 41569, Note_off_c, 0, 88, 74
1, 41575, Control_c, 0, 64, 95
1, 41583, Note_off_c, 0, 91, 66
1, 41605, Control_c, 0, 64, 98
1, 41617, Note_on_c, 0, 92, 102
1, 41619, Note_on_c, 0, 89, 85
1, 41619, Control_c, 0, 64, 100
1, 41626, Note_on_c, 0, 86, 90
1, 41629, Note_on_c, 0, 83, 86
1, 41634, Control_c, 0, 64, 103
1, 41649, Control_c, 0, 64, 108
1, 41662, Note_off_c, 0, 89, 63
1, 41664, Control_c, 0, 64, 115
1, 41669, Note_off_c, 0, 86, 65
1, 41672, Note_off_c, 0, 83, 63
1, 41678, Control_c, 0, 64, 127
1, 41681, Note_off_c, 0, 92, 66
1, 41727, Note_on_c, 0, 87, 95
1, 41728, Note_on_c, 0, 84, 85
1, 41773, Note_off_c, 0, 84, 64
1, 41784, Note_off_c, 0, 87, 63
1, 41793, Note_on_c, 0, 93, 102
1, 41796, Note_on_c, 0, 90, 85
1, 41822, Note_off_c, 0, 90, 71
1, 41841, Note_off_c, 0, 93, 65
1, 41865, Note_on_c, 0, 88, 90
1, 41866, Note_on_c, 0, 85, 76
1, 41868, Note_on_c, 0, 94, 103
1, 41870, Note_on_c, 0, 91, 92
1, 41887, Note_off_c, 0, 85, 71
1, 41909, Note_off_c, 0, 88, 67
1, 41909, Note_off_c, 0, 91, 66
1, 41924, Note_off_c, 0, 94, 64
1, 41966, Note_on_c, 0, 89, 87
1, 41967, Note_on_c, 0, 86, 83
1, 42001, Note_off_c, 0, 89, 63
1, 42011, Note_off_c, 0, 86, 63
1, 42026, Note_on_c, 0, 95, 101
1, 42039, Note_on_c, 0, 92, 78
1, 42060, Note_off_c, 0, 92, 67
1, 42066, Note_off_c, 0, 95, 66
1, 42078, Note_on_c, 0, 87, 74
1, 42080, Note_on_c, 0, 90, 92
1, 42088, Note_on_c, 0, 96, 58
1, 42097, Note_on_c, 0, 93, 96
1, 42115, Note_off_c, 0, 96, 68
1, 42121, Note_off_c, 0, 87, 63
1, 42125, Note_off_c, 0, 90, 66
1, 42130, Note_on_c, 0, 97, 66
1, 42142, Note_off_c, 0, 93, 65
1, 42174, Note_on_c, 0, 94, 91
1, 42200, Note_on_c, 0, 88, 98
1, 42208, Note_on_c, 0, 98, 83
1, 42214, Note_on_c, 0, 93, 86
1, 42215, Note_on_c, 0, 91, 77
1, 42224, Note_off_c, 0, 97, 64
1, 42228, Note_off_c, 0, 94, 61
1, 42237, Note_on_c, 0, 95, 34
1, 42238, Note_off_c, 0, 91, 67
1, 42245, Note_off_c, 0, 93, 61
1, 42267, Note_off_c, 0, 95, 51
1, 42267, Note_on_c, 0, 99, 80
1, 42282, Note_on_c, 0, 96, 79
1, 42284, Note_off_c, 0, 99, 64
1, 42321, Note_off_c, 0, 98, 64
1, 42352, Note_off_c, 0, 88, 62
1, 42358, Note_off_c, 0, 96, 68
1, 42370, Note_on_c, 0, 100, 100
1, 42375, Note_on_c, 0, 97, 104
1, 42385, Note_on_c, 0, 91, 97
1, 42389, Note_on_c, 0, 94, 111
1, 42422, Note_off_c, 0, 97, 67
1, 42426, Note_off_c, 0, 100, 68
1, 42442, Control_c, 0, 64, 82
1, 42445, Note_off_c, 0, 91, 66
1, 42450, Note_off_c, 0, 94, 65
1, 42457, Control_c, 0, 64, 54
1, 42472, Control_c, 0, 64, 0
1, 43265, Control_c, 0, 64, 35
1, 43280, Control_c, 0, 64, 41
1, 43295, Control_c, 0, 64, 44
1, 43316, Control_c, 0, 64, 48
1, 43331, Control_c, 0, 64, 54
1, 43346, Control_c, 0, 64, 57
1, 43361, Control_c, 0, 64, 58
1, 43391, Control_c, 0, 64, 59
1, 43406, Control_c, 0, 64, 60
1, 43421, Control_c, 0, 64, 61
1, 43436, Control_c, 0, 64, 61
1, 43465, Control_c, 0, 64, 62
1, 43480, Control_c, 0, 64, 62
1, 43495, Control_c, 0, 64, 63
1, 43510, Control_c, 0, 64, 64
1, 43524, Control_c, 0, 64, 65
1, 43539, Control_c, 0, 64, 65
1, 43554, Control_c, 0, 64, 66
1, 43584, Control_c, 0, 64, 66
1, 43594, Note_on_c, 0, 42, 37
1, 43603, Note_on_c, 0, 60, 47
1, 43613, Control_c, 0, 64, 67
1, 43628, Control_c, 0, 64, 68
1, 43642, Control_c, 0, 64, 68
1, 43657, Control_c, 0, 64, 69
1, 43657, Control_c, 0, 67, 39
1, 43672, Control_c, 0, 67, 66
1, 43687, Control_c, 0, 64, 69
1, 43687, Control_c, 0, 67, 99
1, 43702, Control_c, 0, 64, 70
1, 43702, Control_c, 0, 67, 127
1, 43716, Control_c, 0, 64, 70
1, 43731, Control_c, 0, 64, 71
1, 43746, Control_c, 0, 64, 72
1, 43761, Control_c, 0, 64, 73
1, 43776, Control_c, 0, 64, 74
1, 43790, Control_c, 0, 64, 75
1, 43805, Control_c, 0, 64, 76
1, 43820, Control_c, 0, 64, 77
1, 43835, Control_c, 0, 64, 78
1, 43865, Control_c, 0, 64, 78
1, 43908, Note_on_c, 0, 44, 36
1, 43925, Note_off_c, 0, 60, 60
1, 44022, Note_on_c, 0, 60, 63
1, 44106, Note_on_c, 0, 56, 35
1, 44151, Note_off_c, 0, 44, 37
1, 44152, Note_on_c, 0, 58, 65
1, 44214, Note_off_c, 0, 60, 58
1, 44257, Note_off_c, 0, 42, 40
1, 44288, Control_c, 0, 64, 78
1, 44294, Note_on_c, 0, 44, 44
1, 44353, Note_off_c, 0, 56, 42
1, 44354, Note_on_c, 0, 60, 67
1, 44399, Note_off_c, 0, 58, 58
1, 44404, Note_on_c, 0, 42, 35
1, 44405, Note_off_c, 0, 44, 58
1, 44407, Control_c, 0, 64, 76
1, 44421, Control_c, 0, 64, 71
1, 44436, Control_c, 0, 64, 64
1, 44446, Note_on_c, 0, 61, 69
1, 44451, Control_c, 0, 64, 54
1, 44465, Control_c, 0, 64, 43
1, 44480, Control_c, 0, 64, 40
1, 44495, Control_c, 0, 64, 42
1, 44510, Control_c, 0, 64, 48
1, 44521, Note_off_c, 0, 60, 60
1, 44525, Control_c, 0, 64, 55
1, 44539, Control_c, 0, 64, 62
1, 44554, Control_c, 0, 64, 66
1, 44569, Control_c, 0, 64, 68
1, 44584, Note_on_c, 0, 44, 41
1, 44584, Control_c, 0, 64, 69
1, 44598, Control_c, 0, 64, 69
1, 44613, Control_c, 0, 64, 70
1, 44651, Note_on_c, 0, 63, 68
1, 44675, Note_off_c, 0, 44, 60
1, 44695, Note_on_c, 0, 56, 42
1, 44733, Control_c, 0, 64, 69
1, 44739, Note_on_c, 0, 60, 66
1, 44751, Note_off_c, 0, 61, 53
1, 44772, Note_off_c, 0, 63, 63
1, 44785, Note_off_c, 0, 42, 41
1, 44829, Note_off_c, 0, 56, 37
1, 44833, Note_on_c, 0, 44, 38
1, 44859, Control_c, 0, 64, 69
1, 44937, Note_off_c, 0, 60, 64
1, 44939, Note_on_c, 0, 42, 38
1, 44945, Note_on_c, 0, 61, 73
1, 44992, Note_off_c, 0, 44, 31
1, 45007, Control_c, 0, 64, 68
1, 45022, Control_c, 0, 64, 67
1, 45036, Control_c, 0, 64, 64
1, 45042, Note_off_c, 0, 42, 56
1, 45048, Note_on_c, 0, 58, 77
1, 45051, Note_on_c, 0, 41, 52
1, 45051, Control_c, 0, 64, 57
1, 45066, Control_c, 0, 64, 44
1, 45081, Control_c, 0, 64, 0
1, 45124, Note_off_c, 0, 61, 60
1, 45153, Note_on_c, 0, 44, 49
1, 45200, Control_c, 0, 64, 30
1, 45214, Control_c, 0, 64, 37
1, 45229, Control_c, 0, 64, 43
1, 45242, Note_on_c, 0, 56, 73
1, 45244, Control_c, 0, 64, 48
1, 45259, Control_c, 0, 64, 53
1, 45274, Control_c, 0, 64, 57
1, 45275, Note_off_c, 0, 44, 61
1, 45288, Control_c, 0, 64, 60
1, 45303, Control_c, 0, 64, 61
1, 45318, Note_on_c, 0, 61, 71
1, 45318, Control_c, 0, 64, 62
1, 45333, Control_c, 0, 64, 63
1, 45348, Control_c, 0, 64, 65
1, 45362, Control_c, 0, 64, 67
1, 45377, Control_c, 0, 64, 69
1, 45392, Control_c, 0, 64, 70
1, 45399, Note_off_c, 0, 58, 59
1, 45407, Control_c, 0, 64, 71
1, 45412, Note_off_c, 0, 41, 55
1, 45421, Control_c, 0, 64, 71
1, 45423, Note_off_c, 0, 56, 58
1, 45428, Note_on_c, 0, 44, 51
1, 45436, Control_c, 0, 64, 72
1, 45451, Control_c, 0, 64, 72
1, 45466, Control_c, 0, 64, 73
1, 45497, Control_c, 0, 64, 73
1, 45516, Note_on_c, 0, 60, 72
1, 45526, Control_c, 0, 64, 74
1, 45526, Control_c, 0, 67, 119
1, 45541, Control_c, 0, 64, 74
1, 45541, Control_c, 0, 67, 96
1, 45544, Note_on_c, 0, 41, 63
1, 45554, Note_off_c, 0, 44, 52
1, 45556, Control_c, 0, 64, 75
1, 45556, Control_c, 0, 67, 71
1, 45579, Control_c, 0, 64, 75
1, 45579, Control_c, 0, 67, 41
1, 45593, Control_c, 0, 67, 0
1, 45608, Control_c, 0, 64, 75
1, 45623, Control_c, 0, 64, 69
1, 45630, Note_on_c, 0, 56, 76
1, 45632, Note_on_c, 0, 58, 75
1, 45638, Control_c, 0, 64, 57
1, 45652, Control_c, 0, 64, 31
1, 45667, Control_c, 0, 64, 0
1, 45677, Note_off_c, 0, 60, 59
1, 45683, Note_off_c, 0, 61, 50
1, 45697, Control_c, 0, 64, 29
1, 45712, Control_c, 0, 64, 43
1, 45726, Control_c, 0, 64, 57
1, 45741, Control_c, 0, 64, 65
1, 45749, Note_off_c, 0, 41, 60
1, 45756, Control_c, 0, 64, 69
1, 45764, Note_on_c, 0, 44, 48
1, 45771, Control_c, 0, 64, 71
1, 45786, Control_c, 0, 64, 71
1, 45800, Control_c, 0, 64, 72
1, 45815, Control_c, 0, 64, 73
1, 45830, Control_c, 0, 64, 74
1, 45844, Control_c, 0, 64, 76
1, 45845, Note_off_c, 0, 56, 61
1, 45859, Note_on_c, 0, 60, 61
1, 45859, Control_c, 0, 64, 78
1, 45871, Note_off_c, 0, 44, 58
1, 45874, Control_c, 0, 64, 81
1, 45889, Control_c, 0, 64, 84
1, 45916, Note_on_c, 0, 56, 40
1, 45919, Control_c, 0, 64, 83
1, 45934, Control_c, 0, 64, 76
1, 45947, Note_on_c, 0, 55, 79
1, 45949, Control_c, 0, 64, 65
1, 45962, Note_on_c, 0, 61, 61
1, 45964, Control_c, 0, 64, 53
1, 45978, Control_c, 0, 64, 46
1, 45993, Control_c, 0, 64, 49
1, 46005, Note_off_c, 0, 58, 0
1, 46007, Note_off_c, 0, 56, 60
1, 46008, Control_c, 0, 64, 56
1, 46017, Note_off_c, 0, 60, 55
1, 46023, Note_on_c, 0, 44, 40
1, 46023, Control_c, 0, 64, 63
1, 46037, Control_c, 0, 64, 67
1, 46050, Poly_aftertouch_c, 0, 58, 0
1, 46052, Control_c, 0, 64, 70
1, 46062, Note_off_c, 0, 61, 59
1, 46067, Control_c, 0, 64, 71
1, 46082, Control_c, 0, 64, 72
1, 46097, Control_c, 0, 64, 73
1, 46111, Control_c, 0, 64, 74
1, 46126, Control_c, 0, 64, 75
1, 46131, Note_on_c, 0, 40, 43
1, 46156, Control_c, 0, 64, 75
1, 46166, Note_off_c, 0, 40, 52
1, 46189, Note_on_c, 0, 61, 65
1, 46197, Note_on_c, 0, 58, 6
1, 46199, Note_off_c, 0, 55, 60
1, 46201, Note_off_c, 0, 44, 50
1, 46331, Note_on_c, 0, 39, 55
1, 46339, Note_off_c, 0, 58, 23
1, 46342, Control_c, 0, 64, 75
1, 46348, Note_on_c, 0, 60, 60
1, 46351, Note_on_c, 0, 54, 76
1, 46357, Control_c, 0, 64, 71
1, 46372, Control_c, 0, 64, 61
1, 46387, Control_c, 0, 64, 40
1, 46402, Control_c, 0, 64, 0
1, 46461, Control_c, 0, 64, 46
1, 46475, Control_c, 0, 64, 61
1, 46490, Control_c, 0, 64, 68
1, 46501, Note_off_c, 0, 60, 55
1, 46505, Control_c, 0, 64, 70
1, 46535, Control_c, 0, 64, 71
1, 46536, Note_off_c, 0, 61, 37
1, 46558, Note_on_c, 0, 44, 45
1, 46564, Note_off_c, 0, 39, 58
1, 46564, Control_c, 0, 64, 71
1, 46579, Control_c, 0, 64, 72
1, 46613, Note_on_c, 0, 60, 66
1, 46623, Control_c, 0, 64, 72
1, 46661, Note_off_c, 0, 54, 60
1, 46697, Note_on_c, 0, 58, 73
1, 46710, Note_off_c, 0, 44, 58
1, 46714, Note_on_c, 0, 56, 55
1, 46730, Note_off_c, 0, 60, 52
1, 46813, Note_off_c, 0, 56, 61
1, 46841, Note_on_c, 0, 44, 52
1, 46860, Control_c, 0, 64, 73
1, 46888, Note_on_c, 0, 60, 72
1, 46890, Control_c, 0, 64, 73
1, 46905, Control_c, 0, 64, 74
1, 46920, Control_c, 0, 64, 75
1, 46933, Note_on_c, 0, 39, 66
1, 46934, Control_c, 0, 64, 75
1, 46964, Control_c, 0, 64, 72
1, 46966, Note_off_c, 0, 44, 55
1, 46972, Note_on_c, 0, 61, 75
1, 46979, Control_c, 0, 64, 63
1, 46993, Control_c, 0, 64, 44
1, 46994, Note_on_c, 0, 54, 73
1, 46995, Note_off_c, 0, 58, 41
1, 47008, Control_c, 0, 64, 0
1, 47019, Note_off_c, 0, 60, 52
1, 47038, Control_c, 0, 64, 31
1, 47053, Control_c, 0, 64, 46
1, 47075, Control_c, 0, 64, 62
1, 47090, Control_c, 0, 64, 68
1, 47105, Control_c, 0, 64, 72
1, 47117, Note_on_c, 0, 44, 62
1, 47120, Control_c, 0, 64, 73
1, 47135, Control_c, 0, 64, 73
1, 47138, Note_off_c, 0, 39, 61
1, 47150, Control_c, 0, 64, 74
1, 47151, Note_on_c, 0, 63, 75
1, 47164, Note_off_c, 0, 54, 60
1, 47165, Control_c, 0, 64, 75
1, 47178, Note_off_c, 0, 61, 61
1, 47180, Control_c, 0, 64, 76
1, 47195, Control_c, 0, 64, 76
1, 47210, Control_c, 0, 64, 77
1, 47224, Control_c, 0, 64, 77
1, 47239, Control_c, 0, 64, 78
1, 47242, Note_on_c, 0, 60, 77
1, 47249, Note_off_c, 0, 63, 61
1, 47254, Control_c, 0, 64, 78
1, 47254, Note_on_c, 0, 54, 76
1, 47263, Note_on_c, 0, 56, 63
1, 47263, Note_off_c, 0, 44, 54
1, 47269, Control_c, 0, 64, 79
1, 47284, Control_c, 0, 64, 79
1, 47297, Note_off_c, 0, 56, 62
1, 47298, Control_c, 0, 64, 80
1, 47313, Control_c, 0, 64, 80
1, 47321, Note_off_c, 0, 54, 56
1, 47328, Control_c, 0, 64, 81
1, 47343, Control_c, 0, 64, 81
1, 47353, Note_on_c, 0, 44, 59
1, 47366, Note_off_c, 0, 60, 61
1, 47372, Control_c, 0, 64, 82
1, 47402, Control_c, 0, 64, 82
1, 47409, Note_on_c, 0, 39, 73
1, 47414, Note_on_c, 0, 61, 74
1, 47432, Control_c, 0, 64, 83
1, 47440, Note_off_c, 0, 44, 61
1, 47447, Control_c, 0, 64, 83
1, 47457, Note_off_c, 0, 39, 63
1, 47462, Control_c, 0, 64, 84
1, 47477, Control_c, 0, 64, 84
1, 47491, Control_c, 0, 64, 85
1, 47536, Control_c, 0, 64, 81
1, 47538, Note_on_c, 0, 37, 71
1, 47540, Note_on_c, 0, 58, 83
1, 47548, Note_on_c, 0, 53, 71
1, 47551, Control_c, 0, 64, 68
1, 47565, Control_c, 0, 64, 46
1, 47580, Control_c, 0, 64, 0
1, 47582, Note_off_c, 0, 61, 56
1, 47639, Control_c, 0, 64, 45
1, 47650, Note_on_c, 0, 44, 66
1, 47650, Note_off_c, 0, 37, 62
1, 47654, Control_c, 0, 64, 61
1, 47669, Control_c, 0, 64, 69
1, 47683, Control_c, 0, 64, 73
1, 47698, Control_c, 0, 64, 74
1, 47713, Control_c, 0, 64, 75
1, 47715, Note_off_c, 0, 58, 58
1, 47728, Control_c, 0, 64, 76
1, 47739, Note_on_c, 0, 56, 82
1, 47743, Control_c, 0, 64, 78
1, 47758, Control_c, 0, 64, 79
1, 47773, Control_c, 0, 64, 81
1, 47788, Control_c, 0, 64, 83
1, 47793, Note_off_c, 0, 44, 62
1, 47803, Control_c, 0, 64, 84
1, 47806, Note_off_c, 0, 56, 57
1, 47823, Note_on_c, 0, 61, 85
1, 47824, Control_c, 0, 64, 86
1, 47833, Note_off_c, 0, 53, 0
1, 47839, Control_c, 0, 64, 88
1, 47854, Control_c, 0, 64, 90
1, 47869, Control_c, 0, 64, 92
1, 47884, Control_c, 0, 64, 94
1, 47899, Poly_aftertouch_c, 0, 53, 0
1, 47900, Control_c, 0, 64, 96
1, 47907, Note_on_c, 0, 57, 71
1, 47929, Control_c, 0, 64, 99
1, 47959, Control_c, 0, 64, 103
1, 47962, Note_off_c, 0, 57, 63
1, 47974, Control_c, 0, 64, 106
1, 47988, Control_c, 0, 64, 117
1, 48003, Control_c, 0, 64, 127
1, 48012, Note_on_c, 0, 60, 81
1, 48026, Note_on_c, 0, 45, 49
1, 48050, Note_off_c, 0, 61, 59
1, 48092, Note_on_c, 0, 37, 76
1, 48092, Control_c, 0, 64, 74
1, 48098, Note_on_c, 0, 58, 92
1, 48101, Note_off_c, 0, 45, 62
1, 48106, Note_on_c, 0, 53, 83
1, 48107, Control_c, 0, 64, 49
1, 48122, Control_c, 0, 64, 0
1, 48137, Control_c, 0, 64, 29
1, 48148, Note_off_c, 0, 60, 56
1, 48151, Control_c, 0, 64, 45
1, 48166, Control_c, 0, 64, 62
1, 48181, Control_c, 0, 64, 74
1, 48188, Note_off_c, 0, 37, 62
1, 48196, Control_c, 0, 64, 95
1, 48210, Note_on_c, 0, 46, 70
1, 48211, Control_c, 0, 64, 127
1, 48263, Note_off_c, 0, 53, 55
1, 48273, Note_on_c, 0, 60, 86
1, 48303, Note_off_c, 0, 58, 61
1, 48359, Note_on_c, 0, 58, 70
1, 48366, Note_on_c, 0, 61, 86
1, 48369, Note_on_c, 0, 53, 80
1, 48401, Note_off_c, 0, 60, 59
1, 48420, Note_off_c, 0, 58, 60
1, 48470, Note_off_c, 0, 61, 60
1, 48472, Note_off_c, 0, 46, 37
1, 48511, Note_on_c, 0, 58, 66
1, 48540, Note_off_c, 0, 58, 64
1, 48581, Note_on_c, 0, 63, 89
1, 48597, Note_off_c, 0, 53, 48
1, 48619, Note_on_c, 0, 46, 55
1, 48648, Note_off_c, 0, 63, 59
1, 48725, Note_off_c, 0, 46, 61
1, 48735, Note_on_c, 0, 37, 73
1, 48797, Control_c, 0, 64, 97
1, 48798, Note_on_c, 0, 65, 87
1, 48808, Note_on_c, 0, 59, 79
1, 48811, Control_c, 0, 64, 61
1, 48826, Control_c, 0, 64, 0
1, 48870, Control_c, 0, 64, 42
1, 48885, Control_c, 0, 64, 60
1, 48900, Control_c, 0, 64, 72
1, 48915, Control_c, 0, 64, 84
1, 48930, Control_c, 0, 64, 89
1, 48930, Note_off_c, 0, 37, 61
1, 48944, Control_c, 0, 64, 91
1, 48959, Control_c, 0, 64, 94
1, 48974, Control_c, 0, 64, 98
1, 48982, Note_on_c, 0, 49, 62
1, 48989, Control_c, 0, 64, 102
1, 48998, Note_off_c, 0, 65, 59
1, 49003, Control_c, 0, 64, 106
1, 49018, Control_c, 0, 64, 109
1, 49022, Note_off_c, 0, 49, 60
1, 49033, Control_c, 0, 64, 114
1, 49048, Control_c, 0, 64, 122
1, 49062, Control_c, 0, 64, 127
1, 49066, Note_on_c, 0, 65, 82
1, 49163, Note_on_c, 0, 63, 89
1, 49170, Note_on_c, 0, 61, 60
1, 49178, Note_off_c, 0, 59, 57
1, 49194, Note_off_c, 0, 65, 62
1, 49229, Note_off_c, 0, 61, 63
1, 49290, Note_on_c, 0, 49, 63
1, 49341, Note_on_c, 0, 65, 80
1, 49382, Note_off_c, 0, 63, 58
1, 49396, Note_on_c, 0, 47, 64
1, 49429, Note_on_c, 0, 66, 92
1, 49429, Note_off_c, 0, 49, 58
1, 49440, Control_c, 0, 64, 89
1, 49442, Note_on_c, 0, 56, 79
1, 49455, Control_c, 0, 64, 65
1, 49469, Control_c, 0, 64, 40
1, 49485, Control_c, 0, 64, 0
1, 49500, Control_c, 0, 64, 35
1, 49515, Control_c, 0, 64, 53
1, 49530, Control_c, 0, 64, 65
1, 49535, Note_off_c, 0, 65, 38
1, 49545, Control_c, 0, 64, 75
1, 49557, Note_off_c, 0, 56, 60
1, 49559, Control_c, 0, 64, 85
1, 49564, Note_on_c, 0, 49, 54
1, 49574, Control_c, 0, 64, 88
1, 49589, Control_c, 0, 64, 90
1, 49594, Note_on_c, 0, 59, 56
1, 49600, Note_on_c, 0, 68, 86
1, 49604, Control_c, 0, 64, 93
1, 49606, Note_off_c, 0, 49, 61
1, 49612, Note_off_c, 0, 47, 55
1, 49618, Control_c, 0, 64, 97
1, 49633, Control_c, 0, 64, 100
1, 49640, Note_off_c, 0, 66, 57
1, 49648, Control_c, 0, 64, 105
1, 49663, Control_c, 0, 64, 112
1, 49678, Note_off_c, 0, 59, 62
1, 49678, Control_c, 0, 64, 127
1, 49682, Note_on_c, 0, 65, 86
1, 49702, Note_on_c, 0, 49, 64
1, 49713, Note_off_c, 0, 68, 59
1, 49778, Note_off_c, 0, 65, 62
1, 49787, Note_on_c, 0, 47, 66
1, 49813, Note_off_c, 0, 49, 57
1, 49839, Note_off_c, 0, 47, 63
1, 49867, Note_on_c, 0, 66, 87
1, 49952, Note_on_c, 0, 46, 66
1, 49959, Note_on_c, 0, 63, 87
1, 49961, Note_on_c, 0, 54, 67
1, 49974, Control_c, 0, 64, 106
1, 49989, Control_c, 0, 64, 66
1, 50003, Control_c, 0, 64, 0
1, 50018, Note_off_c, 0, 66, 51
1, 50048, Control_c, 0, 64, 43
1, 50065, Note_on_c, 0, 49, 61
1, 50071, Control_c, 0, 64, 60
1, 50085, Control_c, 0, 64, 70
1, 50100, Note_off_c, 0, 54, 60
1, 50100, Control_c, 0, 64, 78
1, 50115, Control_c, 0, 64, 83
1, 50130, Control_c, 0, 64, 86
1, 50131, Note_on_c, 0, 61, 79
1, 50145, Control_c, 0, 64, 88
1, 50153, Note_off_c, 0, 63, 58
1, 50159, Control_c, 0, 64, 90
1, 50169, Note_on_c, 0, 58, 59
1, 50174, Control_c, 0, 64, 92
1, 50179, Note_off_c, 0, 49, 62
1, 50189, Control_c, 0, 64, 93
1, 50204, Control_c, 0, 64, 95
1, 50214, Note_on_c, 0, 66, 92
1, 50233, Control_c, 0, 64, 98
1, 50263, Control_c, 0, 64, 100
1, 50272, Note_off_c, 0, 61, 49
1, 50289, Note_off_c, 0, 58, 61
1, 50293, Note_off_c, 0, 46, 60
1, 50305, Note_on_c, 0, 50, 66
1, 50308, Control_c, 0, 64, 102
1, 50338, Control_c, 0, 64, 105
1, 50353, Control_c, 0, 64, 108
1, 50368, Control_c, 0, 64, 112
1, 50372, Note_off_c, 0, 66, 54
1, 50382, Control_c, 0, 64, 122
1, 50392, Note_on_c, 0, 46, 77
1, 50397, Control_c, 0, 64, 127
1, 50402, Note_on_c, 0, 65, 78
1, 50405, Note_off_c, 0, 50, 56
1, 50472, Control_c, 0, 64, 88
1, 50487, Control_c, 0, 64, 65
1, 50494, Note_on_c, 0, 63, 91
1, 50498, Note_on_c, 0, 54, 84
1, 50502, Control_c, 0, 64, 46
1, 50516, Control_c, 0, 64, 43
1, 50527, Note_off_c, 0, 65, 58
1, 50531, Control_c, 0, 64, 50
1, 50546, Control_c, 0, 64, 62
1, 50561, Control_c, 0, 64, 72
1, 50576, Control_c, 0, 64, 86
1, 50590, Control_c, 0, 64, 96
1, 50602, Note_off_c, 0, 54, 62
1, 50611, Note_on_c, 0, 51, 71
1, 50635, Control_c, 0, 64, 98
1, 50638, Note_off_c, 0, 63, 61
1, 50694, Note_on_c, 0, 65, 80
1, 50709, Control_c, 0, 64, 100
1, 50739, Note_off_c, 0, 51, 56
1, 50739, Control_c, 0, 64, 102
1, 50755, Note_on_c, 0, 58, 66
1, 50769, Control_c, 0, 64, 105
1, 50783, Control_c, 0, 64, 107
1, 50801, Note_on_c, 0, 66, 79
1, 50816, Note_on_c, 0, 63, 82
1, 50831, Note_off_c, 0, 65, 53
1, 50930, Note_off_c, 0, 66, 62
1, 50948, Note_off_c, 0, 46, 61
1, 50951, Note_on_c, 0, 51, 75
1, 51031, Note_off_c, 0, 58, 36
1, 51043, Note_on_c, 0, 46, 75
1, 51057, Note_on_c, 0, 66, 89
1, 51079, Note_off_c, 0, 51, 56
1, 51123, Note_off_c, 0, 63, 54
1, 51221, Note_on_c, 0, 61, 82
1, 51223, Note_on_c, 0, 67, 83
1, 51251, Control_c, 0, 64, 100
1, 51265, Control_c, 0, 64, 86
1, 51270, Note_off_c, 0, 66, 56
1, 51280, Control_c, 0, 64, 69
1, 51295, Control_c, 0, 64, 49
1, 51310, Control_c, 0, 64, 0
1, 51354, Note_on_c, 0, 52, 65
1, 51369, Control_c, 0, 64, 47
1, 51376, Note_off_c, 0, 67, 62
1, 51383, Control_c, 0, 64, 63
1, 51398, Control_c, 0, 64, 72
1, 51413, Control_c, 0, 64, 83
1, 51428, Control_c, 0, 64, 90
1, 51435, Note_on_c, 0, 67, 79
1, 51443, Control_c, 0, 64, 92
1, 51457, Control_c, 0, 64, 94
1, 51472, Control_c, 0, 64, 96
1, 51481, Note_on_c, 0, 58, 69
1, 51483, Note_off_c, 0, 52, 59
1, 51502, Control_c, 0, 64, 99
1, 51529, Note_on_c, 0, 65, 84
1, 51566, Note_off_c, 0, 67, 61
1, 51583, Control_c, 0, 64, 101
1, 51585, Note_off_c, 0, 61, 58
1, 51623, Note_on_c, 0, 52, 68
1, 51630, Note_off_c, 0, 46, 60
1, 51669, Note_off_c, 0, 58, 57
1, 51707, Note_on_c, 0, 67, 82
1, 51714, Note_on_c, 0, 46, 74
1, 51717, Control_c, 0, 64, 103
1, 51746, Note_off_c, 0, 52, 50
1, 51761, Control_c, 0, 64, 95
1, 51776, Control_c, 0, 64, 79
1, 51786, Note_on_c, 0, 68, 85
1, 51791, Control_c, 0, 64, 65
1, 51794, Note_on_c, 0, 61, 81
1, 51797, Note_off_c, 0, 65, 59
1, 51806, Control_c, 0, 64, 55
1, 51821, Control_c, 0, 64, 54
1, 51836, Control_c, 0, 64, 58
1, 51851, Control_c, 0, 64, 64
1, 51865, Control_c, 0, 64, 74
1, 51881, Control_c, 0, 64, 87
1, 51881, Note_off_c, 0, 67, 53
1, 51887, Note_on_c, 0, 52, 67
1, 51896, Control_c, 0, 64, 111
1, 51910, Control_c, 0, 64, 127
1, 51966, Note_on_c, 0, 58, 77
1, 51967, Note_on_c, 0, 70, 87
1, 51971, Note_off_c, 0, 52, 63
1, 51976, Poly_aftertouch_c, 0, 48, 127
1, 52012, Note_off_c, 0, 68, 53
1, 52033, Poly_aftertouch_c, 0, 48, 0
1, 52053, Note_on_c, 0, 67, 86
1, 52056, Note_off_c, 0, 61, 59
1, 52078, Note_off_c, 0, 70, 61
1, 52116, Note_on_c, 0, 52, 69
1, 52125, Note_off_c, 0, 46, 60
1, 52184, Note_off_c, 0, 67, 61
1, 52203, Poly_aftertouch_c, 0, 48, 127
1, 52211, Note_off_c, 0, 58, 52
1, 52214, Note_on_c, 0, 68, 79
1, 52225, Note_on_c, 0, 46, 80
1, 52270, Note_off_c, 0, 52, 52
1, 52334, Note_on_c, 0, 65, 88
1, 52340, Note_on_c, 0, 61, 79
1, 52348, Control_c, 0, 64, 112
1, 52355, Note_off_c, 0, 68, 59
1, 52362, Control_c, 0, 64, 73
1, 52377, Control_c, 0, 64, 42
1, 52392, Control_c, 0, 64, 0
1, 52421, Control_c, 0, 64, 32
1, 52430, Note_on_c, 0, 53, 70
1, 52436, Control_c, 0, 64, 49
1, 52451, Control_c, 0, 64, 63
1, 52466, Control_c, 0, 64, 73
1, 52480, Control_c, 0, 64, 84
1, 52495, Control_c, 0, 64, 90
1, 52510, Control_c, 0, 64, 93
1, 52516, Note_on_c, 0, 64, 79
1, 52525, Control_c, 0, 64, 96
1, 52536, Note_on_c, 0, 58, 70
1, 52537, Note_off_c, 0, 53, 62
1, 52539, Control_c, 0, 64, 99
1, 52550, Note_off_c, 0, 65, 58
1, 52554, Control_c, 0, 64, 102
1, 52569, Control_c, 0, 64, 105
1, 52582, Note_off_c, 0, 61, 58
1, 52584, Control_c, 0, 64, 108
1, 52596, Note_on_c, 0, 68, 85
1, 52614, Control_c, 0, 64, 111
1, 52644, Control_c, 0, 64, 114
1, 52650, Poly_aftertouch_c, 0, 48, 0
1, 52674, Control_c, 0, 64, 119
1, 52688, Control_c, 0, 64, 127
1, 52697, Note_off_c, 0, 58, 61
1, 52701, Note_off_c, 0, 46, 57
1, 52707, Note_on_c, 0, 53, 66
1, 52760, Note_on_c, 0, 67, 80
1, 52816, Note_off_c, 0, 64, 35
1, 52820, Note_on_c, 0, 46, 68
1, 52846, Note_off_c, 0, 53, 58
1, 52863, Note_on_c, 0, 61, 76
1, 52866, Control_c, 0, 64, 91
1, 52867, Note_on_c, 0, 65, 78
1, 52881, Note_off_c, 0, 68, 47
1, 52881, Control_c, 0, 64, 59
1, 52896, Control_c, 0, 64, 0
1, 52899, Note_off_c, 0, 67, 54
1, 52925, Control_c, 0, 64, 32
1, 52940, Control_c, 0, 64, 52
1, 52955, Control_c, 0, 64, 66
1, 52955, Control_c, 0, 67, 53
1, 52970, Control_c, 0, 64, 77
1, 52970, Control_c, 0, 67, 90
1, 52984, Control_c, 0, 64, 92
1, 52984, Control_c, 0, 67, 127
1, 52990, Note_on_c, 0, 53, 63
1, 52999, Control_c, 0, 64, 98
1, 53014, Control_c, 0, 64, 103
1, 53028, Control_c, 0, 64, 108
1, 53043, Control_c, 0, 64, 116
1, 53066, Control_c, 0, 64, 127
1, 53088, Note_on_c, 0, 67, 70
1, 53092, Note_off_c, 0, 65, 61
1, 53097, Note_on_c, 0, 64, 50
1, 53105, Note_off_c, 0, 53, 61
1, 53109, Note_on_c, 0, 58, 74
1, 53124, Poly_aftertouch_c, 0, 48, 127
1, 53124, Note_off_c, 0, 64, 66
1, 53135, Note_off_c, 0, 67, 59
1, 53193, Note_off_c, 0, 46, 54
1, 53220, Note_off_c, 0, 58, 62
1, 53221, Poly_aftertouch_c, 0, 48, 0
1, 53231, Note_on_c, 0, 68, 78
1, 53234, Note_on_c, 0, 65, 67
1, 53287, Note_on_c, 0, 52, 62
1, 53428, Note_off_c, 0, 52, 58
1, 53434, Note_on_c, 0, 51, 56
1, 53435, Note_on_c, 0, 46, 49
1, 53470, Note_off_c, 0, 46, 63
1, 53474, Note_off_c, 0, 51, 62
1, 53524, Note_on_c, 0, 70, 70
1, 53528, Note_on_c, 0, 67, 67
1, 53532, Note_off_c, 0, 68, 61
1, 53589, Note_off_c, 0, 65, 57
1, 53731, Note_off_c, 0, 61, 41
1, 53732, Control_c, 0, 64, 116
1, 53747, Control_c, 0, 64, 80
1, 53748, Note_off_c, 0, 70, 50
1, 53758, Note_off_c, 0, 67, 57
1, 53759, Note_on_c, 0, 44, 79
1, 53762, Control_c, 0, 64, 58
1, 53765, Note_on_c, 0, 37, 78
1, 53776, Control_c, 0, 64, 0
1, 53873, Control_c, 0, 64, 39
1, 53888, Control_c, 0, 64, 57
1, 53903, Control_c, 0, 64, 66
1, 53918, Control_c, 0, 64, 72
1, 53932, Control_c, 0, 64, 75
1, 53947, Control_c, 0, 64, 78
1, 53949, Note_off_c, 0, 44, 64
1, 53953, Note_off_c, 0, 37, 61
1, 53962, Control_c, 0, 64, 81
1, 53976, Control_c, 0, 64, 85
1, 53991, Control_c, 0, 64, 89
1, 54006, Control_c, 0, 64, 92
1, 54021, Control_c, 0, 64, 94
1, 54022, Note_on_c, 0, 60, 47
1, 54030, Note_on_c, 0, 66, 47
1, 54031, Note_on_c, 0, 72, 47
1, 54036, Control_c, 0, 64, 97
1, 54042, Note_on_c, 0, 63, 40
1, 54051, Control_c, 0, 64, 99
1, 54066, Control_c, 0, 64, 101
1, 54095, Control_c, 0, 64, 104
1, 54108, Note_off_c, 0, 60, 48
1, 54121, Note_off_c, 0, 63, 50
1, 54125, Control_c, 0, 64, 106
1, 54131, Note_off_c, 0, 66, 54
1, 54149, Note_on_c, 0, 61, 61
1, 54155, Note_off_c, 0, 72, 36
1, 54185, Control_c, 0, 64, 109
1, 54215, Control_c, 0, 64, 114
1, 54230, Control_c, 0, 64, 122
1, 54244, Control_c, 0, 64, 127
1, 54245, Note_on_c, 0, 60, 57
1, 54247, Note_on_c, 0, 72, 57
1, 54253, Note_on_c, 0, 63, 59
1, 54254, Note_on_c, 0, 66, 61
1, 54259, Control_c, 0, 67, 115
1, 54274, Control_c, 0, 67, 73
1, 54289, Control_c, 0, 67, 0
1, 54307, Note_on_c, 0, 58, 74
1, 54315, Note_off_c, 0, 60, 55
1, 54328, Note_off_c, 0, 63, 53
1, 54335, Note_off_c, 0, 72, 56
1, 54340, Note_off_c, 0, 66, 53
1, 54386, Note_off_c, 0, 61, 59
1, 54406, Note_on_c, 0, 66, 60
1, 54410, Note_on_c, 0, 60, 69
1, 54412, Note_on_c, 0, 72, 53
1, 54416, Note_on_c, 0, 63, 61
1, 54475, Note_off_c, 0, 60, 61
1, 54477, Note_off_c, 0, 72, 61
1, 54481, Note_off_c, 0, 63, 62
1, 54486, Note_off_c, 0, 66, 64
1, 54489, Note_on_c, 0, 61, 81
1, 54593, Note_on_c, 0, 53, 9
1, 54598, Note_on_c, 0, 63, 77
1, 54599, Note_on_c, 0, 70, 70
1, 54601, Note_on_c, 0, 75, 70
1, 54602, Note_on_c, 0, 66, 76
1, 54617, Note_off_c, 0, 61, 62
1, 54674, Note_off_c, 0, 75, 63
1, 54676, Note_off_c, 0, 63, 62
1, 54679, Note_off_c, 0, 70, 64
1, 54685, Note_off_c, 0, 66, 64
1, 54686, Note_on_c, 0, 61, 81
1, 54750, Note_off_c, 0, 53, 42
1, 54762, Note_on_c, 0, 72, 72
1, 54763, Note_on_c, 0, 60, 70
1, 54765, Note_on_c, 0, 66, 72
1, 54766, Note_off_c, 0, 61, 62
1, 54771, Note_on_c, 0, 63, 71
1, 54829, Note_off_c, 0, 58, 0
1, 54850, Note_on_c, 0, 61, 82
1, 54851, Note_off_c, 0, 72, 53
1, 54853, Note_off_c, 0, 63, 58
1, 54864, Note_off_c, 0, 66, 59
1, 54865, Note_on_c, 0, 58, 7
1, 54876, Note_off_c, 0, 60, 34
1, 54897, Note_off_c, 0, 61, 62
1, 54907, Note_off_c, 0, 58, 56
1, 54926, Note_on_c, 0, 60, 66
1, 54931, Note_on_c, 0, 72, 72
1, 54932, Note_on_c, 0, 66, 72
1, 54933, Control_c, 0, 64, 112
1, 54935, Note_on_c, 0, 63, 69
1, 54948, Control_c, 0, 64, 82
1, 54963, Control_c, 0, 64, 61
1, 54978, Control_c, 0, 64, 0
1, 54992, Note_off_c, 0, 72, 61
1, 55009, Note_off_c, 0, 63, 62
1, 55011, Note_off_c, 0, 60, 61
1, 55019, Note_on_c, 0, 37, 81
1, 55019, Note_on_c, 0, 44, 80
1, 55022, Note_off_c, 0, 66, 60
1, 55037, Control_c, 0, 64, 29
1, 55052, Control_c, 0, 64, 46
1, 55052, Note_off_c, 0, 37, 65
1, 55067, Control_c, 0, 64, 62
1, 55077, Note_off_c, 0, 44, 63
1, 55082, Control_c, 0, 64, 70
1, 55097, Control_c, 0, 64, 78
1, 55110, Note_on_c, 0, 61, 65
1, 55112, Note_on_c, 0, 65, 60
1, 55112, Control_c, 0, 64, 83
1, 55115, Note_on_c, 0, 58, 68
1, 55117, Note_on_c, 0, 70, 67
1, 55127, Control_c, 0, 64, 87
1, 55142, Control_c, 0, 64, 90
1, 55157, Control_c, 0, 64, 93
1, 55165, Note_off_c, 0, 58, 59
1, 55171, Control_c, 0, 64, 95
1, 55172, Note_off_c, 0, 61, 64
1, 55173, Note_off_c, 0, 65, 61
1, 55186, Control_c, 0, 64, 97
1, 55194, Note_off_c, 0, 70, 60
1, 55195, Note_on_c, 0, 56, 81
1, 55216, Control_c, 0, 64, 101
1, 55245, Control_c, 0, 64, 104
1, 55275, Control_c, 0, 64, 107
1, 55282, Note_on_c, 0, 61, 75
1, 55283, Note_on_c, 0, 68, 67
1, 55288, Note_on_c, 0, 73, 66
1, 55289, Note_on_c, 0, 65, 70
1, 55290, Control_c, 0, 64, 109
1, 55312, Control_c, 0, 64, 113
1, 55327, Control_c, 0, 64, 119
1, 55341, Control_c, 0, 64, 127
1, 55356, Note_off_c, 0, 61, 61
1, 55371, Note_off_c, 0, 73, 59
1, 55380, Note_on_c, 0, 60, 79
1, 55382, Note_off_c, 0, 65, 52
1, 55392, Note_off_c, 0, 68, 55
1, 55422, Note_off_c, 0, 56, 62
1, 55455, Note_on_c, 0, 65, 54
1, 55465, Note_on_c, 0, 68, 56
1, 55468, Note_on_c, 0, 61, 73
1, 55473, Note_on_c, 0, 73, 70
1, 55529, Note_off_c, 0, 73, 61
1, 55546, Note_off_c, 0, 65, 59
1, 55550, Note_off_c, 0, 61, 64
1, 55551, Note_on_c, 0, 57, 83
1, 55564, Note_off_c, 0, 68, 60
1, 55592, Note_off_c, 0, 60, 58
1, 55643, Note_on_c, 0, 58, 81
1, 55644, Note_on_c, 0, 64, 68
1, 55644, Note_on_c, 0, 70, 71
1, 55645, Note_on_c, 0, 67, 65
1, 55667, Control_c, 0, 64, 93
1, 55682, Control_c, 0, 64, 78
1, 55696, Control_c, 0, 64, 71
1, 55711, Control_c, 0, 64, 71
1, 55715, Note_off_c, 0, 58, 63
1, 55715, Note_off_c, 0, 70, 61
1, 55726, Control_c, 0, 64, 72
1, 55727, Note_on_c, 0, 60, 84
1, 55741, Note_off_c, 0, 57, 63
1, 55741, Control_c, 0, 64, 77
1, 55756, Control_c, 0, 64, 84
1, 55762, Note_off_c, 0, 67, 52
1, 55771, Control_c, 0, 64, 93
1, 55786, Control_c, 0, 64, 101
1, 55789, Note_off_c, 0, 60, 64
1, 55800, Control_c, 0, 64, 104
1, 55805, Note_on_c, 0, 67, 49
1, 55809, Note_on_c, 0, 73, 82
1, 55812, Note_on_c, 0, 61, 81
1, 55860, Control_c, 0, 64, 106
1, 55863, Note_off_c, 0, 73, 63
1, 55890, Note_on_c, 0, 60, 86
1, 55893, Note_off_c, 0, 61, 63
1, 55920, Note_off_c, 0, 64, 56
1, 55934, Note_off_c, 0, 60, 65
1, 55950, Control_c, 0, 64, 108
1, 55963, Note_on_c, 0, 64, 49
1, 55964, Control_c, 0, 64, 110
1, 55971, Note_on_c, 0, 58, 86
1, 55979, Note_on_c, 0, 70, 81
1, 55979, Control_c, 0, 64, 116
1, 55994, Control_c, 0, 64, 127
1, 56039, Control_c, 0, 64, 95
1, 56042, Note_off_c, 0, 58, 63
1, 56060, Control_c, 0, 64, 66
1, 56069, Note_off_c, 0, 67, 52
1, 56070, Note_on_c, 0, 37, 92
1, 56070, Note_on_c, 0, 44, 91
1, 56070, Note_off_c, 0, 64, 63
1, 56073, Note_off_c, 0, 70, 54
1, 56075, Control_c, 0, 64, 38
1, 56090, Control_c, 0, 64, 0
1, 56120, Control_c, 0, 64, 41
1, 56134, Control_c, 0, 64, 58
1, 56138, Note_off_c, 0, 37, 60
1, 56149, Control_c, 0, 64, 72
1, 56150, Note_off_c, 0, 44, 64
1, 56164, Control_c, 0, 64, 84
1, 56169, Note_on_c, 0, 60, 73
1, 56169, Note_on_c, 0, 72, 75
1, 56170, Note_on_c, 0, 66, 72
1, 56172, Note_on_c, 0, 63, 70
1, 56179, Control_c, 0, 64, 96
1, 56194, Control_c, 0, 64, 103
1, 56209, Control_c, 0, 64, 114
1, 56219, Note_on_c, 0, 70, 33
1, 56224, Control_c, 0, 64, 127
1, 56251, Note_off_c, 0, 70, 54
1, 56265, Note_off_c, 0, 60, 59
1, 56268, Note_on_c, 0, 61, 86
1, 56268, Note_off_c, 0, 72, 57
1, 56274, Note_off_c, 0, 63, 58
1, 56274, Note_off_c, 0, 66, 60
1, 56339, Note_on_c, 0, 72, 76
1, 56342, Note_on_c, 0, 66, 76
1, 56343, Note_on_c, 0, 60, 79
1, 56343, Note_on_c, 0, 63, 68
1, 56410, Note_on_c, 0, 58, 94
1, 56417, Note_off_c, 0, 60, 61
1, 56428, Note_off_c, 0, 72, 60
1, 56436, Note_off_c, 0, 63, 60
1, 56437, Note_off_c, 0, 61, 59
1, 56439, Note_off_c, 0, 66, 62
1, 56499, Note_on_c, 0, 66, 74
1, 56501, Note_on_c, 0, 63, 70
1, 56502, Note_on_c, 0, 60, 85
1, 56504, Note_on_c, 0, 72, 73
1, 56558, Note_off_c, 0, 60, 61
1, 56563, Note_on_c, 0, 61, 92
1, 56573, Note_off_c, 0, 72, 61
1, 56583, Note_off_c, 0, 63, 63
1, 56584, Note_off_c, 0, 66, 61
1, 56586, Note_on_c, 0, 53, 48
1, 56599, Note_off_c, 0, 58, 58
1, 56656, Note_on_c, 0, 63, 93
1, 56656, Note_off_c, 0, 61, 66
1, 56662, Note_on_c, 0, 66, 83
1, 56663, Note_on_c, 0, 70, 79
1, 56665, Note_on_c, 0, 75, 83
1, 56707, Note_off_c, 0, 70, 55
1, 56720, Note_off_c, 0, 75, 65
1, 56723, Note_off_c, 0, 63, 59
1, 56734, Note_on_c, 0, 61, 98
1, 56740, Note_off_c, 0, 66, 63
1, 56802, Note_off_c, 0, 61, 60
1, 56820, Note_on_c, 0, 60, 87
1, 56822, Note_off_c, 0, 53, 33
1, 56827, Note_on_c, 0, 72, 78
1, 56838, Note_on_c, 0, 64, 72
1, 56845, Note_on_c, 0, 67, 66
1, 56853, Note_on_c, 0, 62, 44
1, 56853, Note_off_c, 0, 62, 127
1, 56855, Note_on_c, 0, 70, 45
1, 56865, Note_on_c, 0, 63, 17
1, 56883, Note_off_c, 0, 63, 35
1, 56885, Note_off_c, 0, 70, 60
1, 56889, Note_off_c, 0, 64, 65
1, 56895, Note_off_c, 0, 60, 61
1, 56898, Note_on_c, 0, 61, 94
1, 56898, Note_off_c, 0, 67, 60
1, 56898, Note_off_c, 0, 72, 59
1, 56943, Note_off_c, 0, 61, 65
1, 56970, Note_on_c, 0, 72, 83
1, 56972, Note_on_c, 0, 63, 79
1, 56972, Note_on_c, 0, 60, 85
1, 56974, Note_on_c, 0, 66, 81
1, 57038, Note_off_c, 0, 72, 62
1, 57053, Note_off_c, 0, 60, 61
1, 57061, Control_c, 0, 64, 82
1, 57062, Note_on_c, 0, 44, 100
1, 57064, Note_on_c, 0, 37, 99
1, 57069, Note_off_c, 0, 63, 65
1, 57069, Note_off_c, 0, 66, 61
1, 57076, Control_c, 0, 64, 40
1, 57091, Control_c, 0, 64, 0
1, 57114, Note_off_c, 0, 37, 64
1, 57121, Control_c, 0, 64, 34
1, 57130, Note_off_c, 0, 44, 63
1, 57136, Control_c, 0, 64, 55
1, 57151, Control_c, 0, 64, 70
1, 57154, Note_on_c, 0, 58, 89
1, 57155, Note_on_c, 0, 61, 80
1, 57159, Note_on_c, 0, 70, 76
1, 57163, Note_on_c, 0, 65, 69
1, 57166, Control_c, 0, 64, 85
1, 57181, Control_c, 0, 64, 127
1, 57207, Note_on_c, 0, 71, 37
1, 57207, Note_off_c, 0, 58, 63
1, 57220, Note_off_c, 0, 61, 63
1, 57223, Note_off_c, 0, 65, 62
1, 57229, Note_on_c, 0, 56, 98
1, 57234, Note_off_c, 0, 70, 63
1, 57241, Note_off_c, 0, 71, 46
1, 57308, Note_on_c, 0, 61, 89
1, 57309, Note_on_c, 0, 73, 83
1, 57312, Note_on_c, 0, 68, 75
1, 57313, Note_on_c, 0, 65, 82
1, 57334, Note_off_c, 0, 56, 56
1, 57377, Note_off_c, 0, 61, 61
1, 57383, Note_on_c, 0, 60, 89
1, 57386, Note_off_c, 0, 73, 60
1, 57398, Note_off_c, 0, 65, 61
1, 57404, Note_off_c, 0, 68, 60
1, 57464, Note_on_c, 0, 65, 77
1, 57470, Note_on_c, 0, 61, 96
1, 57472, Note_on_c, 0, 68, 69
1, 57474, Note_on_c, 0, 73, 87
1, 57475, Note_off_c, 0, 60, 58
1, 57556, Note_on_c, 0, 57, 101
1, 57562, Note_off_c, 0, 73, 60
1, 57570, Note_off_c, 0, 61, 61
1, 57571, Note_off_c, 0, 65, 62
1, 57591, Note_off_c, 0, 68, 61
1, 57604, Control_c, 0, 64, 84
1, 57619, Control_c, 0, 64, 65
1, 57633, Control_c, 0, 64, 59
1, 57646, Note_on_c, 0, 58, 91
1, 57648, Control_c, 0, 64, 63
1, 57649, Note_on_c, 0, 70, 82
1, 57652, Note_on_c, 0, 64, 75
1, 57655, Note_on_c, 0, 67, 70
1, 57658, Note_off_c, 0, 57, 64
1, 57663, Control_c, 0, 64, 73
1, 57678, Control_c, 0, 64, 103
1, 57693, Control_c, 0, 64, 127
1, 57714, Note_off_c, 0, 58, 62
1, 57720, Note_off_c, 0, 70, 62
1, 57729, Note_on_c, 0, 60, 95
1, 57746, Note_off_c, 0, 64, 62
1, 57754, Note_off_c, 0, 67, 60
1, 57789, Note_off_c, 0, 60, 65
1, 57797, Note_on_c, 0, 64, 73
1, 57804, Note_on_c, 0, 61, 88
1, 57805, Note_on_c, 0, 73, 91
1, 57844, Note_on_c, 0, 67, 13
1, 57867, Note_off_c, 0, 73, 63
1, 57878, Note_off_c, 0, 61, 60
1, 57889, Note_on_c, 0, 60, 96
1, 57890, Note_off_c, 0, 67, 49
1, 57905, Note_off_c, 0, 64, 63
1, 57946, Note_off_c, 0, 60, 62
1, 57956, Note_on_c, 0, 58, 96
1, 57961, Note_on_c, 0, 66, 82
1, 57963, Note_on_c, 0, 70, 80
1, 57975, Note_on_c, 0, 68, 72
1, 58006, Note_off_c, 0, 68, 59
1, 58012, Note_off_c, 0, 58, 64
1, 58048, Note_off_c, 0, 70, 61
1, 58048, Control_c, 0, 64, 105
1, 58055, Note_on_c, 0, 49, 95
1, 58055, Note_off_c, 0, 66, 63
1, 58057, Note_on_c, 0, 59, 99
1, 58059, Note_on_c, 0, 56, 94
1, 58063, Control_c, 0, 64, 64
1, 58078, Control_c, 0, 64, 0
1, 58111, Note_on_c, 0, 51, 11
1, 58122, Control_c, 0, 64, 46
1, 58137, Control_c, 0, 64, 65
1, 58140, Note_off_c, 0, 49, 61
1, 58150, Note_off_c, 0, 51, 47
1, 58151, Control_c, 0, 64, 84
1, 58153, Note_off_c, 0, 59, 63
1, 58166, Control_c, 0, 64, 127
1, 58170, Note_on_c, 0, 77, 78
1, 58171, Note_on_c, 0, 65, 80
1, 58179, Note_off_c, 0, 56, 62
1, 58185, Note_on_c, 0, 72, 59
1, 58209, Poly_aftertouch_c, 0, 55, 0
1, 58211, Note_on_c, 0, 71, 41
1, 58217, Note_on_c, 0, 69, 33
1, 58249, Note_off_c, 0, 71, 31
1, 58251, Note_off_c, 0, 69, 53
1, 58257, Note_off_c, 0, 72, 58
1, 58266, Note_off_c, 0, 65, 58
1, 58272, Note_on_c, 0, 66, 94
1, 58275, Note_off_c, 0, 77, 61
1, 58349, Note_on_c, 0, 77, 76
1, 58352, Note_on_c, 0, 65, 83
1, 58352, Note_on_c, 0, 71, 80
1, 58357, Note_on_c, 0, 68, 81
1, 58401, Note_off_c, 0, 66, 59
1, 58425, Note_on_c, 0, 63, 99
1, 58433, Note_off_c, 0, 65, 62
1, 58439, Note_off_c, 0, 77, 61
1, 58443, Note_off_c, 0, 68, 60
1, 58450, Note_off_c, 0, 71, 59
1, 58501, Note_on_c, 0, 68, 80
1, 58502, Note_on_c, 0, 65, 91
1, 58506, Note_on_c, 0, 71, 70
1, 58514, Note_on_c, 0, 77, 79
1, 58568, Note_off_c, 0, 65, 61
1, 58571, Note_off_c, 0, 71, 62
1, 58582, Note_on_c, 0, 66, 104
1, 58584, Note_off_c, 0, 77, 63
1, 58585, Note_off_c, 0, 68, 63
1, 58599, Note_off_c, 0, 63, 59
1, 58656, Note_on_c, 0, 68, 91
1, 58656, Note_on_c, 0, 71, 95
1, 58661, Note_on_c, 0, 80, 85
1, 58670, Note_off_c, 0, 66, 63
1, 58693, Poly_aftertouch_c, 0, 58, 127
1, 58732, Note_off_c, 0, 80, 63
1, 58737, Note_off_c, 0, 71, 61
1, 58738, Note_off_c, 0, 68, 61
1, 58741, Note_on_c, 0, 66, 101
1, 58799, Note_off_c, 0, 66, 60
1, 58816, Note_on_c, 0, 65, 98
1, 58817, Poly_aftertouch_c, 0, 58, 0
1, 58822, Note_on_c, 0, 77, 87
1, 58828, Note_on_c, 0, 68, 86
1, 58830, Note_on_c, 0, 71, 80
1, 58886, Note_off_c, 0, 65, 52
1, 58898, Note_on_c, 0, 66, 102
1, 58900, Note_off_c, 0, 77, 60
1, 58908, Note_off_c, 0, 68, 56
1, 58916, Note_off_c, 0, 71, 60
1, 58948, Note_off_c, 0, 66, 65
1, 58977, Note_on_c, 0, 65, 93
1, 58978, Note_on_c, 0, 77, 87
1, 58984, Note_on_c, 0, 68, 75
1, 58988, Note_on_c, 0, 71, 68
1, 59017, Note_on_c, 0, 72, 24
1, 59061, Note_off_c, 0, 77, 60
1, 59062, Note_off_c, 0, 72, 30
1, 59071, Note_off_c, 0, 65, 63
1, 59071, Control_c, 0, 64, 70
1, 59075, Note_on_c, 0, 58, 99
1, 59077, Note_on_c, 0, 49, 91
1, 59078, Note_off_c, 0, 71, 61
1, 59079, Note_on_c, 0, 54, 83
1, 59086, Control_c, 0, 64, 0
1, 59090, Note_on_c, 0, 56, 74
1, 59092, Note_off_c, 0, 68, 64
1, 59117, Note_off_c, 0, 56, 52
1, 59131, Control_c, 0, 64, 39
1, 59142, Note_off_c, 0, 49, 51
1, 59145, Control_c, 0, 64, 60
1, 59160, Note_on_c, 0, 53, 8
1, 59160, Note_off_c, 0, 53, 127
1, 59160, Control_c, 0, 64, 77
1, 59169, Note_on_c, 0, 63, 87
1, 59172, Note_off_c, 0, 54, 62
1, 59174, Note_on_c, 0, 75, 74
1, 59175, Control_c, 0, 64, 120
1, 59190, Note_on_c, 0, 67, 65
1, 59190, Control_c, 0, 64, 127
1, 59191, Note_on_c, 0, 76, 74
1, 59191, Note_off_c, 0, 58, 59
1, 59195, Note_on_c, 0, 71, 61
1, 59199, Poly_aftertouch_c, 0, 53, 0
1, 59217, Note_off_c, 0, 67, 67
1, 59220, Note_off_c, 0, 63, 62
1, 59234, Note_off_c, 0, 71, 58
1, 59244, Note_off_c, 0, 76, 60
1, 59250, Note_off_c, 0, 75, 60
1, 59267, Note_on_c, 0, 61, 90
1, 59331, Note_on_c, 0, 66, 95
1, 59332, Note_on_c, 0, 78, 90
1, 59338, Note_on_c, 0, 70, 76
1, 59339, Note_on_c, 0, 73, 74
1, 59339, Note_off_c, 0, 61, 61
1, 59395, Note_off_c, 0, 66, 62
1, 59405, Note_on_c, 0, 65, 81
1, 59410, Note_off_c, 0, 70, 62
1, 59416, Note_off_c, 0, 73, 59
1, 59420, Note_off_c, 0, 78, 57
1, 59476, Note_off_c, 0, 65, 63
1, 59485, Note_on_c, 0, 66, 99
1, 59485, Note_on_c, 0, 78, 92
1, 59489, Note_on_c, 0, 70, 78
1, 59491, Note_on_c, 0, 73, 72
1, 59560, Note_off_c, 0, 78, 58
1, 59562, Note_on_c, 0, 62, 103
1, 59562, Note_off_c, 0, 70, 63
1, 59565, Note_off_c, 0, 66, 63
1, 59570, Note_off_c, 0, 73, 61
1, 59623, Note_off_c, 0, 62, 65
1, 59639, Note_on_c, 0, 63, 98
1, 59643, Note_on_c, 0, 75, 92
1, 59649, Note_on_c, 0, 66, 85
1, 59657, Note_on_c, 0, 70, 73
1, 59695, Note_off_c, 0, 63, 62
1, 59703, Note_off_c, 0, 66, 63
1, 59721, Note_off_c, 0, 70, 63
1, 59726, Note_on_c, 0, 65, 103
1, 59729, Note_off_c, 0, 75, 62
1, 59779, Note_off_c, 0, 65, 68
1, 59807, Note_on_c, 0, 78, 100
1, 59810, Note_on_c, 0, 66, 100
1, 59816, Note_on_c, 0, 70, 85
1, 59846, Note_on_c, 0, 68, 40
1, 59872, Note_off_c, 0, 70, 62
1, 59874, Note_off_c, 0, 78, 58
1, 59878, Note_off_c, 0, 68, 52
1, 59881, Note_off_c, 0, 66, 62
1, 59885, Note_on_c, 0, 65, 90
1, 59935, Note_off_c, 0, 65, 65
1, 59960, Note_on_c, 0, 63, 98
1, 59961, Note_on_c, 0, 75, 97
1, 59967, Note_on_c, 0, 66, 84
1, 60000, Note_on_c, 0, 70, 45
1, 60007, Note_off_c, 0, 63, 65
1, 60041, Note_off_c, 0, 66, 64
1, 60051, Note_off_c, 0, 70, 63
1, 60057, Note_on_c, 0, 58, 106
1, 60057, Control_c, 0, 64, 86
1, 60059, Note_on_c, 0, 49, 99
1, 60066, Note_on_c, 0, 52, 91
1, 60072, Control_c, 0, 64, 53
1, 60073, Note_off_c, 0, 75, 59
1, 60087, Control_c, 0, 64, 0
1, 60110, Note_on_c, 0, 48, 36
1, 60131, Control_c, 0, 64, 54
1, 60146, Control_c, 0, 64, 68
1, 60153, Note_off_c, 0, 48, 49
1, 60161, Control_c, 0, 64, 84
1, 60163, Note_off_c, 0, 49, 59
1, 60176, Control_c, 0, 64, 127
1, 60179, Note_off_c, 0, 52, 62
1, 60182, Note_off_c, 0, 58, 59
1, 60189, Note_on_c, 0, 67, 87
1, 60190, Note_on_c, 0, 79, 77
1, 60195, Note_on_c, 0, 70, 74
1, 60198, Note_on_c, 0, 73, 70
1, 60252, Note_off_c, 0, 67, 59
1, 60262, Note_off_c, 0, 70, 60
1, 60263, Note_off_c, 0, 73, 60
1, 60271, Note_off_c, 0, 79, 59
1, 60285, Note_on_c, 0, 68, 95
1, 60339, Note_off_c, 0, 68, 64
1, 60352, Note_on_c, 0, 67, 96
1, 60356, Note_on_c, 0, 79, 81
1, 60359, Note_on_c, 0, 70, 86
1, 60361, Note_on_c, 0, 73, 81
1, 60411, Note_off_c, 0, 67, 58
1, 60415, Note_off_c, 0, 70, 58
1, 60425, Note_off_c, 0, 73, 59
1, 60425, Note_off_c, 0, 79, 61
1, 60427, Note_on_c, 0, 65, 90
1, 60490, Note_on_c, 0, 67, 95
1, 60491, Note_off_c, 0, 65, 65
1, 60492, Note_on_c, 0, 79, 77
1, 60494, Note_on_c, 0, 73, 82
1, 60498, Note_on_c, 0, 70, 86
1, 60555, Note_off_c, 0, 67, 63
1, 60565, Note_off_c, 0, 79, 62
1, 60571, Note_off_c, 0, 70, 64
1, 60575, Note_off_c, 0, 73, 62
1, 60579, Note_on_c, 0, 68, 102
1, 60633, Note_off_c, 0, 68, 64
1, 60653, Note_on_c, 0, 73, 97
1, 60654, Note_on_c, 0, 70, 101
1, 60655, Note_on_c, 0, 82, 87
1, 60714, Note_off_c, 0, 82, 63
1, 60719, Note_off_c, 0, 70, 60
1, 60723, Note_off_c, 0, 73, 63
1, 60727, Note_on_c, 0, 68, 98
1, 60761, Poly_aftertouch_c, 0, 80, 0
1, 60781, Note_off_c, 0, 68, 65
1, 60799, Note_on_c, 0, 67, 92
1, 60802, Note_on_c, 0, 79, 83
1, 60804, Note_on_c, 0, 70, 83
1, 60832, Note_on_c, 0, 69, 52
1, 60838, Note_on_c, 0, 74, 56
1, 60857, Note_off_c, 0, 69, 60
1, 60862, Note_off_c, 0, 74, 60
1, 60873, Note_off_c, 0, 67, 58
1, 60878, Note_off_c, 0, 79, 59
1, 60880, Note_on_c, 0, 68, 93
1, 60880, Note_off_c, 0, 70, 57
1, 60919, Note_off_c, 0, 68, 63
1, 60956, Note_on_c, 0, 67, 96
1, 60957, Note_on_c, 0, 79, 86
1, 60961, Note_on_c, 0, 70, 85
1, 60963, Note_on_c, 0, 73, 81
1, 61014, Control_c, 0, 64, 70
1, 61029, Control_c, 0, 64, 0
1, 61034, Note_on_c, 0, 49, 99
1, 61034, Note_on_c, 0, 58, 107
1, 61036, Note_off_c, 0, 79, 60
1, 61041, Note_off_c, 0, 67, 59
1, 61044, Note_on_c, 0, 53, 82
1, 61058, Note_off_c, 0, 70, 63
1, 61062, Note_off_c, 0, 73, 58
1, 61073, Control_c, 0, 64, 39
1, 61088, Control_c, 0, 64, 60
1, 61095, Note_off_c, 0, 49, 60
1, 61103, Control_c, 0, 64, 76
1, 61110, Note_off_c, 0, 53, 63
1, 61117, Control_c, 0, 64, 110
1, 61131, Note_off_c, 0, 58, 63
1, 61132, Control_c, 0, 64, 127
1, 61142, Note_on_c, 0, 65, 96
1, 61148, Note_on_c, 0, 77, 83
1, 61149, Note_on_c, 0, 73, 78
1, 61151, Note_on_c, 0, 70, 83
1, 61190, Note_off_c, 0, 65, 65
1, 61197, Note_off_c, 0, 77, 62
1, 61208, Note_off_c, 0, 70, 63
1, 61208, Note_off_c, 0, 73, 63
1, 61219, Note_on_c, 0, 64, 95
1, 61269, Note_off_c, 0, 64, 66
1, 61300, Note_on_c, 0, 68, 98
1, 61303, Note_on_c, 0, 80, 84
1, 61305, Note_on_c, 0, 70, 85
1, 61309, Note_on_c, 0, 73, 78
1, 61347, Note_off_c, 0, 68, 61
1, 61354, Note_off_c, 0, 70, 63
1, 61362, Note_off_c, 0, 80, 63
1, 61364, Note_off_c, 0, 73, 62
1, 61380, Note_on_c, 0, 67, 81
1, 61432, Note_off_c, 0, 67, 65
1, 61446, Note_on_c, 0, 68, 96
1, 61450, Note_on_c, 0, 70, 85
1, 61455, Note_on_c, 0, 73, 80
1, 61461, Note_on_c, 0, 80, 76
1, 61499, Note_off_c, 0, 68, 59
1, 61509, Note_off_c, 0, 70, 64
1, 61509, Note_off_c, 0, 80, 61
1, 61511, Note_off_c, 0, 73, 61
1, 61536, Note_on_c, 0, 64, 103
1, 61555, Control_c, 0, 64, 80
1, 61570, Control_c, 0, 64, 0
1, 61575, Note_off_c, 0, 64, 70
1, 61606, Note_on_c, 0, 77, 97
1, 61609, Note_on_c, 0, 65, 96
1, 61653, Note_on_c, 0, 75, 40
1, 61661, Note_off_c, 0, 65, 64
1, 61668, Note_off_c, 0, 77, 63
1, 61682, Note_off_c, 0, 75, 35
1, 61686, Note_on_c, 0, 66, 104
1, 61716, Note_off_c, 0, 66, 69
1, 61752, Note_on_c, 0, 79, 93
1, 61755, Note_on_c, 0, 67, 97
1, 61805, Note_off_c, 0, 67, 65
1, 61815, Note_off_c, 0, 79, 63
1, 61831, Note_on_c, 0, 68, 97
1, 61853, Note_off_c, 0, 68, 68
1, 61903, Note_on_c, 0, 81, 99
1, 61905, Note_on_c, 0, 69, 98
1, 61935, Note_off_c, 0, 81, 68
1, 61950, Note_off_c, 0, 69, 68
1, 61984, Control_c, 0, 64, 42
1, 61999, Control_c, 0, 64, 62
1, 62001, Note_on_c, 0, 54, 97
1, 62002, Note_on_c, 0, 49, 90
1, 62009, Note_on_c, 0, 44, 82
1, 62014, Control_c, 0, 64, 66
1, 62028, Note_off_c, 0, 49, 68
1, 62029, Control_c, 0, 64, 69
1, 62031, Note_off_c, 0, 54, 57
1, 62049, Note_off_c, 0, 44, 64
1, 62051, Control_c, 0, 64, 72
1, 62066, Control_c, 0, 64, 79
1, 62081, Control_c, 0, 64, 101
1, 62087, Note_on_c, 0, 58, 85
1, 62089, Note_on_c, 0, 61, 75
1, 62096, Control_c, 0, 64, 127
1, 62131, Note_off_c, 0, 58, 62
1, 62159, Note_off_c, 0, 61, 60
1, 62183, Note_on_c, 0, 70, 87
1, 62239, Note_off_c, 0, 70, 56
1, 62249, Note_on_c, 0, 71, 38
1, 62269, Note_on_c, 0, 78, 96
1, 62269, Note_on_c, 0, 82, 95
1, 62281, Note_off_c, 0, 71, 46
1, 62293, Note_off_c, 0, 78, 60
1, 62296, Note_off_c, 0, 82, 65
1, 62335, Note_on_c, 0, 65, 80
1, 62341, Note_on_c, 0, 69, 80
1, 62384, Note_off_c, 0, 69, 58
1, 62394, Note_off_c, 0, 65, 60
1, 62418, Note_on_c, 0, 70, 88
1, 62427, Note_on_c, 0, 66, 79
1, 62450, Note_off_c, 0, 66, 70
1, 62459, Note_off_c, 0, 70, 65
1, 62509, Note_on_c, 0, 62, 80
1, 62509, Note_on_c, 0, 67, 82
1, 62511, Control_c, 0, 64, 84
1, 62514, Note_on_c, 0, 64, 77
1, 62520, Note_on_c, 0, 65, 64
1, 62526, Control_c, 0, 64, 62
1, 62528, Note_off_c, 0, 67, 73
1, 62531, Note_off_c, 0, 62, 68
1, 62531, Note_off_c, 0, 64, 67
1, 62536, Note_off_c, 0, 65, 67
1, 62540, Control_c, 0, 64, 0
1, 62586, Note_on_c, 0, 66, 88
1, 62588, Note_on_c, 0, 63, 80
1, 62606, Note_off_c, 0, 66, 71
1, 62609, Note_off_c, 0, 63, 70
1, 62652, Note_on_c, 0, 65, 75
1, 62660, Note_on_c, 0, 69, 87
1, 62677, Note_off_c, 0, 69, 72
1, 62684, Note_off_c, 0, 65, 62
1, 62719, Control_c, 0, 64, 31
1, 62723, Note_on_c, 0, 66, 91
1, 62728, Note_on_c, 0, 70, 90
1, 62733, Control_c, 0, 64, 39
1, 62748, Control_c, 0, 64, 43
1, 62763, Control_c, 0, 64, 45
1, 62778, Control_c, 0, 64, 47
1, 62783, Note_off_c, 0, 66, 59
1, 62800, Control_c, 0, 64, 50
1, 62806, Note_on_c, 0, 73, 86
1, 62815, Control_c, 0, 64, 52
1, 62823, Note_off_c, 0, 70, 62
1, 62829, Control_c, 0, 64, 53
1, 62859, Control_c, 0, 64, 53
1, 62888, Note_on_c, 0, 72, 82
1, 62889, Note_on_c, 0, 68, 88
1, 62916, Note_off_c, 0, 73, 60
1, 62919, Control_c, 0, 64, 54
1, 62924, Note_off_c, 0, 72, 65
1, 62934, Control_c, 0, 64, 55
1, 62938, Note_off_c, 0, 68, 62
1, 62948, Control_c, 0, 64, 57
1, 62963, Control_c, 0, 64, 59
1, 62974, Note_on_c, 0, 49, 104
1, 62975, Note_on_c, 0, 53, 99
1, 62978, Control_c, 0, 64, 62
1, 62980, Note_on_c, 0, 44, 87
1, 62993, Control_c, 0, 64, 67
1, 62999, Note_off_c, 0, 53, 68
1, 63000, Note_off_c, 0, 49, 63
1, 63003, Note_off_c, 0, 44, 69
1, 63008, Control_c, 0, 64, 72
1, 63022, Control_c, 0, 64, 79
1, 63037, Control_c, 0, 64, 90
1, 63052, Control_c, 0, 64, 108
1, 63058, Note_on_c, 0, 56, 81
1, 63068, Control_c, 0, 64, 127
1, 63076, Note_on_c, 0, 60, 61
1, 63104, Note_off_c, 0, 56, 56
1, 63108, Note_off_c, 0, 60, 65
1, 63145, Note_on_c, 0, 68, 79
1, 63226, Note_on_c, 0, 80, 101
1, 63227, Note_on_c, 0, 77, 105
1, 63242, Note_off_c, 0, 77, 71
1, 63243, Note_off_c, 0, 80, 69
1, 63280, Note_off_c, 0, 68, 58
1, 63303, Note_on_c, 0, 61, 77
1, 63303, Note_on_c, 0, 65, 77
1, 63304, Control_c, 0, 64, 112
1, 63318, Control_c, 0, 64, 78
1, 63333, Control_c, 0, 64, 59
1, 63348, Control_c, 0, 64, 28
1, 63359, Note_off_c, 0, 61, 63
1, 63363, Control_c, 0, 64, 0
1, 63369, Note_on_c, 0, 66, 80
1, 63377, Note_on_c, 0, 63, 77
1, 63395, Note_off_c, 0, 65, 64
1, 63399, Note_off_c, 0, 63, 68
1, 63416, Note_off_c, 0, 66, 63
1, 63450, Note_on_c, 0, 66, 95
1, 63462, Note_on_c, 0, 68, 74
1, 63476, Note_off_c, 0, 66, 67
1, 63486, Note_off_c, 0, 68, 69
1, 63528, Note_on_c, 0, 70, 80
1, 63545, Note_on_c, 0, 66, 74
1, 63594, Note_off_c, 0, 66, 56
1, 63605, Note_on_c, 0, 68, 84
1, 63620, Note_on_c, 0, 65, 71
1, 63636, Note_off_c, 0, 70, 61
1, 63643, Note_off_c, 0, 65, 69
1, 63673, Note_off_c, 0, 68, 62
1, 63682, Control_c, 0, 64, 57
1, 63695, Note_on_c, 0, 61, 94
1, 63696, Control_c, 0, 64, 71
1, 63698, Note_on_c, 0, 65, 95
1, 63711, Control_c, 0, 64, 80
1, 63726, Control_c, 0, 64, 85
1, 63726, Control_c, 0, 67, 41
1, 63730, Note_off_c, 0, 65, 64
1, 63736, Note_off_c, 0, 61, 67
1, 63741, Control_c, 0, 64, 88
1, 63741, Control_c, 0, 67, 61
1, 63756, Control_c, 0, 64, 92
1, 63756, Control_c, 0, 67, 83
1, 63770, Control_c, 0, 64, 94
1, 63770, Control_c, 0, 67, 103
1, 63785, Control_c, 0, 67, 121
1, 63800, Control_c, 0, 64, 94
1, 63800, Control_c, 0, 67, 127
1, 63815, Control_c, 0, 64, 85
1, 63830, Control_c, 0, 64, 68
1, 63844, Control_c, 0, 64, 38
1, 63860, Control_c, 0, 64, 0
1, 63920, Control_c, 0, 67, 119
1, 63935, Control_c, 0, 64, 44
1, 63935, Control_c, 0, 67, 106
1, 63950, Control_c, 0, 64, 56
1, 63950, Control_c, 0, 67, 76
1, 63959, Note_on_c, 0, 66, 98
1, 63962, Note_on_c, 0, 56, 80
1, 63965, Control_c, 0, 64, 64
1, 63965, Control_c, 0, 67, 0
1, 63967, Note_on_c, 0, 61, 67
1, 63977, Note_off_c, 0, 66, 73
1, 63980, Control_c, 0, 64, 67
1, 63984, Note_off_c, 0, 61, 64
1, 63986, Note_off_c, 0, 56, 69
1, 63994, Control_c, 0, 64, 71
1, 64009, Control_c, 0, 64, 78
1, 64024, Control_c, 0, 64, 88
1, 64030, Note_on_c, 0, 73, 63
1, 64037, Note_on_c, 0, 70, 54
1, 64039, Control_c, 0, 64, 110
1, 64054, Control_c, 0, 64, 127
1, 64057, Note_off_c, 0, 70, 64
1, 64102, Note_on_c, 0, 82, 74
1, 64113, Note_off_c, 0, 73, 62
1, 64165, Note_off_c, 0, 82, 61
1, 64199, Note_on_c, 0, 94, 97
1, 64201, Note_on_c, 0, 90, 89
1, 64216, Note_off_c, 0, 94, 73
1, 64217, Note_off_c, 0, 90, 73
1, 64248, Note_on_c, 0, 77, 80
1, 64260, Note_on_c, 0, 81, 71
1, 64310, Note_off_c, 0, 77, 62
1, 64313, Note_off_c, 0, 81, 64
1, 64361, Note_on_c, 0, 82, 84
1, 64363, Note_on_c, 0, 78, 81
1, 64390, Note_off_c, 0, 78, 63
1, 64403, Note_off_c, 0, 82, 63
1, 64454, Note_on_c, 0, 74, 90
1, 64454, Note_on_c, 0, 77, 82
1, 64470, Note_off_c, 0, 74, 75
1, 64475, Control_c, 0, 64, 84
1, 64476, Note_off_c, 0, 77, 70
1, 64490, Control_c, 0, 64, 64
1, 64505, Control_c, 0, 64, 39
1, 64520, Control_c, 0, 64, 0
1, 64532, Note_on_c, 0, 78, 81
1, 64532, Note_on_c, 0, 75, 73
1, 64552, Note_off_c, 0, 78, 70
1, 64555, Note_off_c, 0, 75, 71
1, 64604, Note_on_c, 0, 77, 94
1, 64609, Note_on_c, 0, 81, 72
1, 64624, Note_off_c, 0, 81, 45
1, 64629, Note_off_c, 0, 77, 67
1, 64675, Note_on_c, 0, 78, 87
1, 64675, Note_on_c, 0, 82, 89
1, 64713, Control_c, 0, 64, 31
1, 64722, Note_off_c, 0, 78, 59
1, 64728, Control_c, 0, 64, 37
1, 64743, Control_c, 0, 64, 40
1, 64746, Note_on_c, 0, 85, 88
1, 64758, Control_c, 0, 64, 43
1, 64758, Note_off_c, 0, 82, 61
1, 64773, Control_c, 0, 64, 44
1, 64788, Control_c, 0, 64, 45
1, 64803, Control_c, 0, 64, 46
1, 64817, Control_c, 0, 64, 46
1, 64821, Note_on_c, 0, 84, 80
1, 64827, Note_on_c, 0, 80, 79
1, 64839, Note_off_c, 0, 85, 63
1, 64860, Note_off_c, 0, 80, 63
1, 64862, Note_off_c, 0, 84, 64
1, 64877, Control_c, 0, 64, 48
1, 64891, Control_c, 0, 64, 52
1, 64906, Control_c, 0, 64, 57
1, 64916, Note_on_c, 0, 65, 86
1, 64916, Note_on_c, 0, 56, 81
1, 64916, Note_on_c, 0, 61, 80
1, 64921, Control_c, 0, 64, 62
1, 64933, Note_off_c, 0, 56, 68
1, 64933, Note_off_c, 0, 65, 73
1, 64935, Control_c, 0, 64, 66
1, 64939, Note_off_c, 0, 61, 71
1, 64950, Control_c, 0, 64, 71
1, 64965, Control_c, 0, 64, 79
1, 64980, Control_c, 0, 64, 93
1, 64995, Control_c, 0, 64, 127
1, 64997, Note_on_c, 0, 68, 67
1, 64999, Note_on_c, 0, 73, 67
1, 65025, Note_off_c, 0, 68, 66
1, 65093, Note_on_c, 0, 80, 78
1, 65114, Note_off_c, 0, 73, 60
1, 65169, Note_on_c, 0, 92, 111
1, 65172, Note_on_c, 0, 89, 95
1, 65184, Note_on_c, 0, 90, 59
1, 65187, Note_off_c, 0, 89, 74
1, 65190, Note_off_c, 0, 92, 68
1, 65205, Note_off_c, 0, 90, 58
1, 65230, Note_off_c, 0, 80, 59
1, 65243, Note_on_c, 0, 77, 69
1, 65247, Note_on_c, 0, 73, 74
1, 65269, Control_c, 0, 64, 84
1, 65283, Control_c, 0, 64, 62
1, 65298, Control_c, 0, 64, 0
1, 65313, Note_off_c, 0, 73, 63
1, 65314, Note_on_c, 0, 78, 80
1, 65315, Note_on_c, 0, 76, 21
1, 65333, Note_off_c, 0, 77, 55
1, 65342, Note_off_c, 0, 76, 52
1, 65362, Note_off_c, 0, 78, 64
1, 65401, Note_on_c, 0, 80, 87
1, 65407, Note_on_c, 0, 76, 85
1, 65417, Note_off_c, 0, 80, 75
1, 65423, Note_off_c, 0, 76, 74
1, 65481, Note_on_c, 0, 82, 81
1, 65505, Note_on_c, 0, 78, 20
1, 65547, Note_off_c, 0, 78, 47
1, 65557, Note_on_c, 0, 80, 82
1, 65559, Note_off_c, 0, 82, 57
1, 65569, Note_on_c, 0, 77, 75
1, 65592, Note_off_c, 0, 77, 70
1, 65609, Note_off_c, 0, 80, 64
1, 65611, Control_c, 0, 64, 51
1, 65626, Control_c, 0, 64, 83
1, 65640, Control_c, 0, 64, 127
1, 65640, Note_on_c, 0, 73, 94
1, 65641, Note_on_c, 0, 77, 90
1, 65679, Note_off_c, 0, 77, 67
1, 65691, Note_off_c, 0, 73, 61
1, 65899, Control_c, 0, 64, 74
1, 65914, Control_c, 0, 64, 40
1, 65929, Control_c, 0, 64, 0
1, 65941, Note_on_c, 0, 63, 89
1, 65950, Note_on_c, 0, 58, 70
1, 65952, Note_on_c, 0, 54, 65
1, 65973, Control_c, 0, 64, 49
1, 65988, Control_c, 0, 64, 65
1, 66003, Control_c, 0, 64, 78
1, 66006, Note_on_c, 0, 78, 85
1, 66010, Note_on_c, 0, 66, 81
1, 66017, Note_off_c, 0, 63, 60
1, 66018, Control_c, 0, 64, 108
1, 66025, Note_off_c, 0, 78, 71
1, 66032, Control_c, 0, 64, 127
1, 66033, Note_off_c, 0, 66, 70
1, 66060, Note_on_c, 0, 49, 71
1, 66068, Note_off_c, 0, 54, 60
1, 66071, Note_on_c, 0, 68, 84
1, 66073, Note_on_c, 0, 80, 94
1, 66076, Note_off_c, 0, 58, 61
1, 66120, Note_off_c, 0, 49, 60
1, 66130, Note_off_c, 0, 68, 61
1, 66145, Note_off_c, 0, 80, 59
1, 66146, Note_on_c, 0, 63, 88
1, 66162, Note_on_c, 0, 54, 68
1, 66162, Note_on_c, 0, 58, 69
1, 66168, Note_off_c, 0, 63, 71
1, 66190, Note_off_c, 0, 58, 68
1, 66206, Note_off_c, 0, 54, 63
1, 66229, Note_on_c, 0, 69, 98
1, 66229, Note_on_c, 0, 75, 92
1, 66229, Note_on_c, 0, 81, 93
1, 66240, Note_on_c, 0, 78, 80
1, 66255, Note_off_c, 0, 81, 58
1, 66258, Note_off_c, 0, 69, 60
1, 66262, Note_off_c, 0, 78, 68
1, 66275, Note_off_c, 0, 75, 66
1, 66287, Note_on_c, 0, 37, 79
1, 66313, Note_off_c, 0, 37, 65
1, 66322, Note_on_c, 0, 82, 104
1, 66325, Note_on_c, 0, 70, 102
1, 66358, Note_off_c, 0, 70, 62
1, 66359, Poly_aftertouch_c, 0, 39, 127
1, 66390, Note_off_c, 0, 82, 61
1, 66401, Poly_aftertouch_c, 0, 39, 0
1, 66428, Poly_aftertouch_c, 0, 80, 0
1, 66438, Note_on_c, 0, 66, 97
1, 66447, Control_c, 0, 64, 70
1, 66449, Note_on_c, 0, 56, 75
1, 66449, Note_on_c, 0, 60, 70
1, 66461, Control_c, 0, 64, 35
1, 66471, Note_on_c, 0, 61, 49
1, 66476, Control_c, 0, 64, 0
1, 66491, Control_c, 0, 64, 47
1, 66502, Note_off_c, 0, 61, 34
1, 66505, Control_c, 0, 64, 67
1, 66508, Note_on_c, 0, 75, 105
1, 66508, Note_on_c, 0, 87, 97
1, 66517, Note_off_c, 0, 66, 63
1, 66520, Control_c, 0, 64, 109
1, 66535, Note_on_c, 0, 79, 66
1, 66540, Note_on_c, 0, 78, 45
1, 66543, Control_c, 0, 64, 127
1, 66558, Note_off_c, 0, 79, 70
1, 66567, Note_off_c, 0, 78, 52
1, 66575, Note_off_c, 0, 75, 58
1, 66582, Note_off_c, 0, 87, 62
1, 66609, Note_on_c, 0, 49, 68
1, 66630, Note_off_c, 0, 56, 57
1, 66634, Note_on_c, 0, 86, 86
1, 66641, Note_on_c, 0, 74, 88
1, 66651, Note_off_c, 0, 49, 60
1, 66667, Note_off_c, 0, 74, 65
1, 66676, Note_off_c, 0, 86, 65
1, 66731, Note_on_c, 0, 85, 75
1, 66731, Note_on_c, 0, 73, 91
1, 66737, Note_off_c, 0, 60, 0
1, 66746, Note_on_c, 0, 66, 79
1, 66749, Note_on_c, 0, 56, 72
1, 66759, Note_on_c, 0, 60, 11
1, 66761, Note_off_c, 0, 85, 62
1, 66774, Note_off_c, 0, 66, 68
1, 66774, Note_off_c, 0, 73, 64
1, 66794, Note_off_c, 0, 60, 45
1, 66801, Note_off_c, 0, 56, 60
1, 66816, Note_on_c, 0, 72, 92
1, 66816, Note_on_c, 0, 84, 87
1, 66831, Note_on_c, 0, 83, 64
1, 66849, Note_off_c, 0, 83, 63
1, 66851, Note_off_c, 0, 72, 66
1, 66855, Note_off_c, 0, 84, 67
1, 66897, Note_on_c, 0, 39, 68
1, 66901, Note_on_c, 0, 71, 85
1, 66901, Note_on_c, 0, 83, 92
1, 66920, Note_off_c, 0, 71, 71
1, 66924, Note_off_c, 0, 39, 64
1, 66931, Note_off_c, 0, 83, 63
1, 66979, Note_on_c, 0, 70, 89
1, 66982, Note_on_c, 0, 82, 86
1, 67006, Note_off_c, 0, 82, 59
1, 67021, Note_on_c, 0, 65, 76
1, 67025, Note_off_c, 0, 70, 64
1, 67028, Note_on_c, 0, 56, 75
1, 67033, Note_on_c, 0, 61, 63
1, 67036, Poly_aftertouch_c, 0, 75, 0
1, 67053, Note_on_c, 0, 75, 26
1, 67056, Note_on_c, 0, 69, 96
1, 67057, Note_on_c, 0, 80, 57
1, 67059, Note_on_c, 0, 81, 88
1, 67063, Control_c, 0, 64, 74
1, 67067, Note_off_c, 0, 65, 55
1, 67076, Note_off_c, 0, 75, 67
1, 67077, Control_c, 0, 64, 0
1, 67078, Note_off_c, 0, 69, 66
1, 67079, Note_off_c, 0, 80, 59
1, 67080, Note_off_c, 0, 61, 58
1, 67093, Note_off_c, 0, 56, 62
1, 67098, Note_off_c, 0, 81, 65
1, 67123, Note_on_c, 0, 49, 75
1, 67137, Control_c, 0, 64, 48
1, 67147, Note_on_c, 0, 68, 75
1, 67147, Note_on_c, 0, 70, 78
1, 67147, Note_on_c, 0, 82, 89
1, 67152, Control_c, 0, 64, 65
1, 67157, Note_off_c, 0, 49, 66
1, 67164, Note_off_c, 0, 82, 70
1, 67167, Control_c, 0, 64, 80
1, 67170, Note_on_c, 0, 80, 44
1, 67170, Note_off_c, 0, 68, 68
1, 67179, Note_off_c, 0, 70, 63
1, 67182, Control_c, 0, 64, 127
1, 67194, Note_off_c, 0, 80, 58
1, 67218, Note_on_c, 0, 85, 105
1, 67225, Note_on_c, 0, 73, 87
1, 67238, Note_on_c, 0, 78, 76
1, 67240, Note_on_c, 0, 86, 73
1, 67247, Note_on_c, 0, 75, 66
1, 67262, Note_off_c, 0, 86, 70
1, 67263, Note_off_c, 0, 75, 68
1, 67286, Note_on_c, 0, 66, 96
1, 67294, Note_on_c, 0, 57, 81
1, 67295, Note_on_c, 0, 63, 75
1, 67310, Note_off_c, 0, 85, 57
1, 67311, Note_off_c, 0, 73, 60
1, 67316, Note_off_c, 0, 78, 59
1, 67320, Note_off_c, 0, 63, 69
1, 67322, Note_off_c, 0, 66, 66
1, 67341, Note_off_c, 0, 57, 65
1, 67372, Note_on_c, 0, 84, 94
1, 67381, Note_on_c, 0, 72, 89
1, 67418, Note_off_c, 0, 72, 65
1, 67420, Note_off_c, 0, 84, 67
1, 67444, Note_on_c, 0, 37, 72
1, 67462, Note_on_c, 0, 39, 44
1, 67469, Note_off_c, 0, 37, 66
1, 67471, Note_on_c, 0, 83, 88
1, 67476, Note_on_c, 0, 71, 88
1, 67481, Note_on_c, 0, 82, 77
1, 67493, Note_off_c, 0, 71, 72
1, 67497, Note_off_c, 0, 39, 51
1, 67501, Note_off_c, 0, 82, 71
1, 67505, Note_on_c, 0, 77, 43
1, 67513, Note_off_c, 0, 83, 64
1, 67533, Note_off_c, 0, 77, 54
1, 67544, Control_c, 0, 64, 100
1, 67559, Control_c, 0, 64, 64
1, 67574, Control_c, 0, 64, 29
1, 67578, Note_on_c, 0, 65, 82
1, 67578, Note_on_c, 0, 82, 97
1, 67583, Note_on_c, 0, 58, 78
1, 67586, Note_on_c, 0, 70, 93
1, 67589, Control_c, 0, 64, 0
1, 67603, Control_c, 0, 64, 48
1, 67605, Note_on_c, 0, 61, 38
1, 67605, Note_off_c, 0, 70, 69
1, 67609, Note_on_c, 0, 80, 46
1, 67609, Note_off_c, 0, 80, 127
1, 67614, Note_off_c, 0, 65, 65
1, 67618, Control_c, 0, 64, 67
1, 67620, Note_off_c, 0, 82, 58
1, 67633, Control_c, 0, 64, 88
1, 67638, Note_off_c, 0, 58, 61
1, 67638, Note_off_c, 0, 61, 35
1, 67648, Control_c, 0, 64, 127
1, 67656, Note_on_c, 0, 80, 77
1, 67658, Note_on_c, 0, 68, 92
1, 67666, Note_on_c, 0, 78, 71
1, 67682, Note_off_c, 0, 78, 64
1, 67683, Note_on_c, 0, 49, 78
1, 67683, Note_off_c, 0, 68, 64
1, 67698, Note_off_c, 0, 80, 65
1, 67719, Note_on_c, 0, 48, 54
1, 67731, Note_on_c, 0, 82, 92
1, 67732, Note_on_c, 0, 70, 94
1, 67754, Note_off_c, 0, 48, 50
1, 67758, Note_off_c, 0, 82, 51
1, 67766, Note_off_c, 0, 70, 69
1, 67819, Note_on_c, 0, 77, 98
1, 67820, Note_on_c, 0, 65, 99
1, 67821, Note_on_c, 0, 56, 79
1, 67822, Note_on_c, 0, 62, 87
1, 67825, Note_on_c, 0, 59, 77
1, 67825, Control_c, 0, 64, 70
1, 67826, Note_on_c, 0, 68, 94
1, 67831, Note_on_c, 0, 74, 88
1, 67838, Poly_aftertouch_c, 0, 84, 0
1, 67840, Control_c, 0, 64, 0
1, 67861, Note_on_c, 0, 51, 21
1, 67880, Note_on_c, 0, 76, 14
1, 67886, Control_c, 0, 64, 37
1, 67897, Note_off_c, 0, 59, 61
1, 67900, Control_c, 0, 64, 57
1, 67908, Note_off_c, 0, 51, 28
1, 67915, Control_c, 0, 64, 67
1, 67916, Note_off_c, 0, 62, 59
1, 67923, Note_off_c, 0, 76, 29
1, 67924, Note_off_c, 0, 56, 61
1, 67930, Control_c, 0, 64, 71
1, 67945, Control_c, 0, 64, 74
1, 67960, Control_c, 0, 64, 81
1, 67966, Note_off_c, 0, 65, 55
1, 67975, Control_c, 0, 64, 104
1, 67989, Control_c, 0, 64, 127
1, 68004, Note_off_c, 0, 68, 65
1, 68012, Note_off_c, 0, 74, 58
1, 68016, Note_off_c, 0, 77, 62
1, 68085, Control_c, 0, 64, 98
1, 68087, Note_off_c, 0, 49, 62
1, 68094, Note_on_c, 0, 63, 101
1, 68097, Note_on_c, 0, 58, 93
1, 68098, Note_on_c, 0, 54, 80
1, 68100, Control_c, 0, 64, 54
1, 68115, Control_c, 0, 64, 0
1, 68145, Control_c, 0, 64, 38
1, 68159, Control_c, 0, 64, 59
1, 68161, Note_off_c, 0, 63, 63
1, 68162, Note_on_c, 0, 90, 89
1, 68166, Note_on_c, 0, 78, 83
1, 68174, Control_c, 0, 64, 75
1, 68179, Note_off_c, 0, 90, 74
1, 68185, Note_off_c, 0, 78, 71
1, 68189, Control_c, 0, 64, 127
1, 68207, Note_on_c, 0, 49, 78
1, 68225, Note_on_c, 0, 92, 103
1, 68226, Note_on_c, 0, 80, 95
1, 68228, Note_off_c, 0, 58, 61
1, 68240, Note_off_c, 0, 54, 55
1, 68271, Note_off_c, 0, 49, 62
1, 68277, Note_off_c, 0, 80, 63
1, 68296, Note_off_c, 0, 92, 63
1, 68307, Note_on_c, 0, 63, 94
1, 68314, Note_on_c, 0, 54, 72
1, 68323, Note_on_c, 0, 58, 73
1, 68342, Note_off_c, 0, 63, 61
1, 68350, Note_off_c, 0, 58, 65
1, 68362, Note_off_c, 0, 54, 63
1, 68385, Note_on_c, 0, 93, 95
1, 68386, Note_on_c, 0, 81, 94
1, 68418, Note_off_c, 0, 93, 61
1, 68419, Note_off_c, 0, 81, 64
1, 68437, Note_on_c, 0, 37, 80
1, 68460, Note_off_c, 0, 37, 66
1, 68471, Note_on_c, 0, 94, 108
1, 68474, Note_on_c, 0, 82, 109
1, 68480, Note_on_c, 0, 39, 23
1, 68506, Note_off_c, 0, 82, 65
1, 68524, Note_off_c, 0, 39, 54
1, 68544, Note_off_c, 0, 94, 61
1, 68577, Note_on_c, 0, 66, 100
1, 68580, Note_on_c, 0, 60, 77
1, 68586, Note_on_c, 0, 56, 69
1, 68589, Control_c, 0, 64, 89
1, 68604, Control_c, 0, 64, 56
1, 68615, Note_on_c, 0, 55, 55
1, 68619, Control_c, 0, 64, 42
1, 68633, Control_c, 0, 64, 55
1, 68641, Note_off_c, 0, 55, 57
1, 68649, Control_c, 0, 64, 75
1, 68651, Note_off_c, 0, 66, 65
1, 68658, Note_on_c, 0, 99, 103
1, 68659, Note_on_c, 0, 87, 104
1, 68664, Control_c, 0, 64, 127
1, 68670, Note_on_c, 0, 91, 76
1, 68685, Note_off_c, 0, 91, 70
1, 68686, Note_on_c, 0, 100, 60
1, 68691, Note_on_c, 0, 88, 52
1, 68705, Note_off_c, 0, 87, 68
1, 68705, Note_off_c, 0, 100, 63
1, 68713, Note_off_c, 0, 88, 60
1, 68722, Note_off_c, 0, 99, 62
1, 68729, Note_off_c, 0, 56, 58
1, 68729, Note_on_c, 0, 49, 72
1, 68730, Poly_aftertouch_c, 0, 64, 127
1, 68767, Poly_aftertouch_c, 0, 64, 0
1, 68771, Note_on_c, 0, 98, 90
1, 68781, Note_on_c, 0, 48, 42
1, 68783, Note_on_c, 0, 86, 85
1, 68800, Note_off_c, 0, 49, 63
1, 68809, Note_off_c, 0, 86, 65
1, 68811, Note_off_c, 0, 60, 0
1, 68811, Note_on_c, 0, 60, 15
1, 68823, Note_off_c, 0, 98, 67
1, 68824, Note_off_c, 0, 48, 42
1, 68872, Note_on_c, 0, 66, 83
1, 68875, Note_on_c, 0, 97, 97
1, 68877, Note_on_c, 0, 56, 71
1, 68880, Note_on_c, 0, 85, 92
1, 68896, Note_off_c, 0, 66, 68
1, 68908, Note_off_c, 0, 60, 58
1, 68911, Note_off_c, 0, 97, 57
1, 68917, Note_off_c, 0, 56, 61
1, 68921, Note_off_c, 0, 85, 62
1, 68964, Note_on_c, 0, 84, 87
1, 68964, Note_on_c, 0, 96, 91
1, 68997, Note_off_c, 0, 84, 61
1, 69002, Note_off_c, 0, 96, 69
1, 69013, Note_on_c, 0, 37, 74
1, 69039, Note_on_c, 0, 83, 85
1, 69039, Note_off_c, 0, 37, 66
1, 69041, Note_on_c, 0, 95, 77
1, 69054, Note_on_c, 0, 39, 4
1, 69056, Note_off_c, 0, 83, 71
1, 69063, Note_on_c, 0, 96, 44
1, 69080, Note_off_c, 0, 95, 65
1, 69092, Note_off_c, 0, 96, 53
1, 69115, Note_on_c, 0, 82, 89
1, 69115, Note_off_c, 0, 39, 47
1, 69122, Note_on_c, 0, 94, 82
1, 69132, Note_on_c, 0, 87, 55
1, 69145, Note_off_c, 0, 94, 70
1, 69150, Note_on_c, 0, 65, 78
1, 69153, Note_off_c, 0, 87, 61
1, 69157, Note_on_c, 0, 56, 70
1, 69159, Note_on_c, 0, 61, 70
1, 69163, Note_off_c, 0, 82, 63
1, 69181, Note_off_c, 0, 65, 60
1, 69190, Control_c, 0, 64, 79
1, 69191, Note_on_c, 0, 81, 95
1, 69198, Note_on_c, 0, 93, 85
1, 69202, Note_off_c, 0, 61, 61
1, 69205, Control_c, 0, 64, 41
1, 69212, Note_off_c, 0, 56, 63
1, 69215, Note_off_c, 0, 81, 67
1, 69218, Note_on_c, 0, 95, 42
1, 69220, Control_c, 0, 64, 0
1, 69235, Note_off_c, 0, 93, 58
1, 69246, Note_off_c, 0, 95, 56
1, 69249, Control_c, 0, 64, 44
1, 69261, Note_on_c, 0, 49, 72
1, 69264, Control_c, 0, 64, 67
1, 69277, Note_on_c, 0, 80, 83
1, 69279, Control_c, 0, 64, 110
1, 69283, Note_on_c, 0, 94, 88
1, 69286, Note_on_c, 0, 82, 76
1, 69288, Note_off_c, 0, 49, 66
1, 69294, Control_c, 0, 64, 127
1, 69295, Note_off_c, 0, 80, 75
1, 69301, Note_off_c, 0, 94, 70
1, 69307, Note_off_c, 0, 82, 71
1, 69350, Note_on_c, 0, 97, 106
1, 69352, Note_on_c, 0, 85, 99
1, 69407, Note_on_c, 0, 66, 99
1, 69413, Note_on_c, 0, 63, 81
1, 69419, Note_on_c, 0, 57, 80
1, 69436, Note_off_c, 0, 97, 65
1, 69438, Note_off_c, 0, 63, 66
1, 69439, Note_off_c, 0, 85, 58
1, 69443, Note_off_c, 0, 66, 66
1, 69460, Note_off_c, 0, 57, 65
1, 69513, Note_on_c, 0, 95, 94
1, 69517, Note_on_c, 0, 83, 87
1, 69563, Note_off_c, 0, 83, 65
1, 69563, Note_off_c, 0, 95, 67
1, 69572, Note_on_c, 0, 84, 22
1, 69572, Note_off_c, 0, 84, 127
1, 69574, Note_on_c, 0, 37, 72
1, 69604, Note_off_c, 0, 37, 65
1, 69609, Note_on_c, 0, 34, 18
1, 69618, Note_on_c, 0, 95, 91
1, 69626, Note_on_c, 0, 83, 87
1, 69634, Note_on_c, 0, 93, 63
1, 69654, Note_off_c, 0, 83, 63
1, 69656, Note_off_c, 0, 93, 57
1, 69662, Note_off_c, 0, 34, 51
1, 69665, Note_on_c, 0, 81, 5
1, 69665, Note_off_c, 0, 81, 127
1, 69676, Note_off_c, 0, 95, 66
1, 69702, Control_c, 0, 64, 75
1, 69717, Control_c, 0, 64, 42
1, 69719, Note_on_c, 0, 65, 94
1, 69724, Note_on_c, 0, 89, 95
1, 69727, Note_on_c, 0, 82, 102
1, 69727, Note_on_c, 0, 94, 101
1, 69730, Note_on_c, 0, 61, 76
1, 69731, Control_c, 0, 64, 0
1, 69732, Note_on_c, 0, 58, 77
1, 69746, Control_c, 0, 64, 30
1, 69761, Control_c, 0, 64, 55
1, 69765, Note_off_c, 0, 65, 65
1, 69776, Note_off_c, 0, 61, 56
1, 69776, Control_c, 0, 64, 72
1, 69778, Note_on_c, 0, 92, 25
1, 69784, Note_off_c, 0, 58, 60
1, 69791, Control_c, 0, 64, 88
1, 69793, Note_off_c, 0, 82, 62
1, 69802, Note_off_c, 0, 94, 61
1, 69805, Control_c, 0, 64, 114
1, 69814, Note_off_c, 0, 89, 61
1, 69816, Note_off_c, 0, 92, 0
1, 69820, Control_c, 0, 64, 127
1, 69829, Note_on_c, 0, 92, 57
1, 69854, Note_on_c, 0, 49, 83
1, 69860, Note_on_c, 0, 80, 84
1, 69883, Note_off_c, 0, 49, 68
1, 69894, Note_off_c, 0, 80, 59
1, 69929, Note_off_c, 0, 92, 66
1, 69940, Poly_aftertouch_c, 0, 51, 127
1, 69968, Note_on_c, 0, 82, 97
1, 69972, Note_on_c, 0, 94, 100
1, 69972, Poly_aftertouch_c, 0, 51, 0
1, 69998, Note_off_c, 0, 94, 61
1, 70004, Note_off_c, 0, 82, 67
1, 70231, Note_on_c, 0, 77, 100
1, 70231, Note_on_c, 0, 89, 98
1, 70235, Note_on_c, 0, 80, 98
1, 70235, Note_on_c, 0, 86, 92
1, 70237, Note_on_c, 0, 68, 79
1, 70239, Note_on_c, 0, 59, 83
1, 70240, Note_on_c, 0, 71, 96
1, 70246, Note_on_c, 0, 62, 79
1, 70266, Control_c, 0, 64, 68
1, 70288, Control_c, 0, 64, 0
1, 70436, Control_c, 0, 64, 37
1, 70451, Control_c, 0, 64, 60
1, 70466, Control_c, 0, 64, 70
1, 70480, Control_c, 0, 64, 79
1, 70495, Control_c, 0, 64, 93
1, 70510, Control_c, 0, 64, 127
1, 70511, Note_off_c, 0, 71, 57
1, 70548, Note_off_c, 0, 89, 59
1, 70581, Note_off_c, 0, 68, 61
1, 70594, Note_off_c, 0, 86, 60
1, 70598, Note_off_c, 0, 62, 58
1, 70606, Note_off_c, 0, 77, 59
1, 70622, Note_off_c, 0, 59, 62
1, 70628, Control_c, 0, 67, 77
1, 70643, Control_c, 0, 67, 127
1, 70647, Note_off_c, 0, 80, 62
1, 70880, Control_c, 0, 64, 112
1, 70895, Control_c, 0, 64, 103
1, 70910, Control_c, 0, 64, 99
1, 70925, Control_c, 0, 64, 95
1, 70940, Control_c, 0, 64, 93
1, 70954, Control_c, 0, 64, 90
1, 70969, Control_c, 0, 64, 88
1, 70984, Control_c, 0, 64, 86
1, 70999, Control_c, 0, 64, 84
1, 71014, Control_c, 0, 64, 81
1, 71036, Control_c, 0, 64, 76
1, 71051, Control_c, 0, 64, 69
1, 71066, Control_c, 0, 64, 59
1, 71081, Control_c, 0, 64, 46
1, 71096, Control_c, 0, 64, 29
1, 71110, Control_c, 0, 64, 0
1, 71116, Note_on_c, 0, 37, 43
1, 71134, Note_on_c, 0, 50, 30
1, 71155, Control_c, 0, 64, 32
1, 71170, Control_c, 0, 64, 44
1, 71176, Note_off_c, 0, 50, 61
1, 71185, Control_c, 0, 64, 57
1, 71197, Note_off_c, 0, 37, 58
1, 71200, Control_c, 0, 64, 64
1, 71214, Note_on_c, 0, 51, 45
1, 71215, Control_c, 0, 64, 67
1, 71224, Note_on_c, 0, 54, 36
1, 71228, Note_on_c, 0, 44, 37
1, 71230, Control_c, 0, 64, 69
1, 71245, Control_c, 0, 64, 70
1, 71252, Note_off_c, 0, 54, 55
1, 71253, Note_off_c, 0, 51, 62
1, 71259, Control_c, 0, 64, 70
1, 71260, Note_off_c, 0, 44, 60
1, 71297, Note_on_c, 0, 53, 56
1, 71298, Note_on_c, 0, 37, 46
1, 71333, Control_c, 0, 64, 71
1, 71339, Note_off_c, 0, 53, 59
1, 71355, Note_off_c, 0, 37, 61
1, 71358, Note_on_c, 0, 44, 56
1, 71361, Note_on_c, 0, 54, 53
1, 71373, Note_on_c, 0, 58, 58
1, 71407, Note_off_c, 0, 44, 62
1, 71412, Note_off_c, 0, 54, 58
1, 71420, Note_off_c, 0, 58, 60
1, 71448, Note_on_c, 0, 57, 72
1, 71450, Note_on_c, 0, 37, 68
1, 71481, Control_c, 0, 64, 71
1, 71496, Control_c, 0, 64, 72
1, 71510, Control_c, 0, 64, 73
1, 71513, Note_on_c, 0, 44, 72
1, 71517, Note_on_c, 0, 61, 68
1, 71519, Note_off_c, 0, 57, 63
1, 71521, Note_on_c, 0, 58, 72
1, 71525, Control_c, 0, 64, 74
1, 71530, Note_off_c, 0, 37, 60
1, 71555, Control_c, 0, 64, 73
1, 71570, Control_c, 0, 64, 66
1, 71582, Note_off_c, 0, 58, 62
1, 71584, Control_c, 0, 64, 57
1, 71591, Note_off_c, 0, 61, 63
1, 71599, Control_c, 0, 64, 52
1, 71601, Note_on_c, 0, 59, 85
1, 71611, Note_on_c, 0, 37, 77
1, 71613, Note_off_c, 0, 44, 64
1, 71614, Control_c, 0, 64, 56
1, 71629, Control_c, 0, 64, 63
1, 71644, Control_c, 0, 64, 69
1, 71659, Control_c, 0, 64, 74
1, 71669, Note_on_c, 0, 44, 64
1, 71674, Control_c, 0, 64, 78
1, 71674, Note_off_c, 0, 59, 65
1, 71675, Note_on_c, 0, 63, 74
1, 71677, Note_off_c, 0, 37, 63
1, 71683, Note_on_c, 0, 60, 79
1, 71736, Note_on_c, 0, 61, 56
1, 71760, Note_on_c, 0, 49, 68
1, 71778, Note_off_c, 0, 63, 58
1, 71780, Note_on_c, 0, 58, 82
1, 71780, Note_off_c, 0, 44, 61
1, 71780, Note_off_c, 0, 60, 58
1, 71784, Control_c, 0, 64, 76
1, 71799, Control_c, 0, 64, 74
1, 71808, Note_off_c, 0, 61, 63
1, 71814, Control_c, 0, 64, 70
1, 71816, Note_off_c, 0, 58, 62
1, 71829, Control_c, 0, 64, 64
1, 71835, Note_off_c, 0, 49, 62
1, 71844, Control_c, 0, 64, 58
1, 71851, Note_on_c, 0, 56, 62
1, 71860, Control_c, 0, 64, 52
1, 71868, Note_on_c, 0, 60, 72
1, 71874, Control_c, 0, 64, 49
1, 71879, Note_off_c, 0, 56, 64
1, 71889, Control_c, 0, 64, 48
1, 71927, Note_on_c, 0, 55, 64
1, 71933, Control_c, 0, 64, 47
1, 71963, Control_c, 0, 64, 47
1, 71967, Note_off_c, 0, 60, 53
1, 71978, Control_c, 0, 64, 46
1, 71993, Control_c, 0, 64, 46
1, 72004, Note_off_c, 0, 55, 61
1, 72005, Note_on_c, 0, 44, 49
1, 72008, Control_c, 0, 64, 45
1, 72013, Note_on_c, 0, 54, 57
1, 72014, Note_on_c, 0, 58, 59
1, 72043, Note_off_c, 0, 44, 61
1, 72065, Note_off_c, 0, 54, 55
1, 72067, Control_c, 0, 64, 45
1, 72082, Note_off_c, 0, 58, 63
1, 72089, Note_on_c, 0, 37, 55
1, 72106, Note_on_c, 0, 52, 67
1, 72136, Note_off_c, 0, 37, 61
1, 72158, Note_off_c, 0, 52, 58
1, 72164, Note_on_c, 0, 44, 41
1, 72181, Note_on_c, 0, 56, 55
1, 72191, Note_on_c, 0, 53, 41
1, 72203, Note_off_c, 0, 44, 62
1, 72219, Note_off_c, 0, 53, 59
1, 72229, Note_on_c, 0, 37, 58
1, 72231, Note_off_c, 0, 56, 61
1, 72244, Control_c, 0, 64, 45
1, 72259, Control_c, 0, 64, 46
1, 72260, Note_on_c, 0, 55, 68
1, 72274, Control_c, 0, 64, 46
1, 72283, Note_off_c, 0, 37, 60
1, 72289, Control_c, 0, 64, 47
1, 72301, Note_on_c, 0, 44, 58
1, 72301, Note_off_c, 0, 55, 62
1, 72304, Control_c, 0, 64, 49
1, 72318, Control_c, 0, 64, 51
1, 72333, Control_c, 0, 64, 54
1, 72335, Note_on_c, 0, 56, 60
1, 72346, Note_off_c, 0, 44, 61
1, 72348, Control_c, 0, 64, 56
1, 72354, Note_on_c, 0, 60, 28
1, 72363, Control_c, 0, 64, 57
1, 72376, Note_off_c, 0, 56, 61
1, 72378, Control_c, 0, 64, 58
1, 72383, Note_on_c, 0, 37, 66
1, 72388, Note_off_c, 0, 60, 56
1, 72393, Control_c, 0, 64, 59
1, 72402, Note_on_c, 0, 59, 72
1, 72422, Control_c, 0, 64, 59
1, 72432, Note_off_c, 0, 37, 60
1, 72437, Control_c, 0, 64, 60
1, 72448, Note_on_c, 0, 44, 62
1, 72452, Control_c, 0, 64, 61
1, 72467, Control_c, 0, 64, 62
1, 72470, Note_off_c, 0, 59, 63
1, 72471, Note_on_c, 0, 63, 76
1, 72472, Note_on_c, 0, 60, 70
1, 72482, Control_c, 0, 64, 64
1, 72497, Control_c, 0, 64, 65
1, 72501, Note_off_c, 0, 44, 60
1, 72511, Control_c, 0, 64, 66
1, 72525, Note_off_c, 0, 60, 61
1, 72533, Control_c, 0, 64, 67
1, 72535, Note_on_c, 0, 37, 77
1, 72548, Control_c, 0, 64, 68
1, 72552, Note_off_c, 0, 63, 63
1, 72558, Note_on_c, 0, 60, 74
1, 72563, Control_c, 0, 64, 68
1, 72578, Control_c, 0, 64, 69
1, 72593, Control_c, 0, 64, 70
1, 72606, Note_on_c, 0, 44, 75
1, 72607, Control_c, 0, 64, 72
1, 72616, Note_off_c, 0, 37, 63
1, 72622, Control_c, 0, 64, 74
1, 72634, Note_on_c, 0, 65, 72
1, 72637, Note_on_c, 0, 61, 82
1, 72637, Control_c, 0, 64, 76
1, 72642, Note_off_c, 0, 60, 65
1, 72653, Control_c, 0, 64, 79
1, 72668, Control_c, 0, 64, 82
1, 72682, Note_on_c, 0, 63, 78
1, 72682, Control_c, 0, 64, 86
1, 72693, Note_on_c, 0, 49, 72
1, 72697, Control_c, 0, 64, 90
1, 72712, Control_c, 0, 64, 92
1, 72714, Note_off_c, 0, 65, 62
1, 72717, Note_off_c, 0, 61, 63
1, 72727, Note_on_c, 0, 60, 88
1, 72727, Control_c, 0, 64, 93
1, 72728, Note_off_c, 0, 44, 61
1, 72734, Note_off_c, 0, 63, 63
1, 72742, Control_c, 0, 64, 94
1, 72756, Control_c, 0, 64, 95
1, 72771, Note_off_c, 0, 49, 61
1, 72777, Note_on_c, 0, 56, 75
1, 72786, Note_off_c, 0, 60, 46
1, 72787, Note_on_c, 0, 61, 79
1, 72798, Note_on_c, 0, 58, 85
1, 72834, Note_off_c, 0, 56, 62
1, 72852, Note_on_c, 0, 49, 71
1, 72854, Note_on_c, 0, 62, 14
1, 72863, Note_off_c, 0, 58, 62
1, 72866, Note_on_c, 0, 57, 89
1, 72884, Note_off_c, 0, 61, 59
1, 72900, Note_off_c, 0, 62, 51
1, 72905, Control_c, 0, 64, 94
1, 72929, Note_off_c, 0, 57, 54
1, 72933, Note_off_c, 0, 49, 62
1, 72935, Control_c, 0, 64, 94
1, 72938, Note_on_c, 0, 44, 62
1, 72943, Note_on_c, 0, 60, 65
1, 72948, Note_on_c, 0, 56, 76
1, 72949, Control_c, 0, 64, 92
1, 72964, Control_c, 0, 64, 89
1, 72979, Control_c, 0, 64, 84
1, 72994, Control_c, 0, 64, 76
1, 73009, Control_c, 0, 64, 69
1, 73009, Note_off_c, 0, 44, 61
1, 73015, Note_off_c, 0, 56, 61
1, 73023, Control_c, 0, 64, 62
1, 73028, Note_on_c, 0, 37, 63
1, 73031, Note_on_c, 0, 53, 78
1, 73038, Control_c, 0, 64, 52
1, 73042, Note_off_c, 0, 60, 58
1, 73053, Control_c, 0, 64, 45
1, 73067, Control_c, 0, 64, 41
1, 73082, Control_c, 0, 64, 41
1, 73089, Note_off_c, 0, 37, 58
1, 73095, Note_off_c, 0, 53, 61
1, 73114, Note_on_c, 0, 54, 61
1, 73117, Note_on_c, 0, 58, 67
1, 73123, Note_on_c, 0, 44, 55
1, 73127, Control_c, 0, 64, 40
1, 73139, Note_off_c, 0, 54, 65
1, 73159, Note_off_c, 0, 58, 62
1, 73160, Note_off_c, 0, 44, 63
1, 73185, Note_on_c, 0, 57, 73
1, 73197, Note_on_c, 0, 37, 50
1, 73233, Note_off_c, 0, 57, 60
1, 73244, Note_off_c, 0, 37, 62
1, 73256, Note_on_c, 0, 61, 65
1, 73269, Note_on_c, 0, 44, 50
1, 73288, Note_on_c, 0, 58, 43
1, 73307, Note_off_c, 0, 61, 59
1, 73313, Note_off_c, 0, 44, 62
1, 73315, Note_off_c, 0, 58, 56
1, 73341, Note_on_c, 0, 60, 74
1, 73345, Note_on_c, 0, 37, 58
1, 73396, Note_off_c, 0, 37, 60
1, 73405, Note_off_c, 0, 60, 60
1, 73412, Note_on_c, 0, 61, 68
1, 73413, Note_on_c, 0, 65, 65
1, 73417, Note_on_c, 0, 44, 54
1, 73462, Note_off_c, 0, 61, 58
1, 73468, Note_off_c, 0, 44, 60
1, 73476, Note_off_c, 0, 65, 61
1, 73476, Control_c, 0, 64, 41
1, 73491, Control_c, 0, 64, 43
1, 73496, Note_on_c, 0, 37, 66
1, 73498, Note_on_c, 0, 62, 75
1, 73505, Control_c, 0, 64, 48
1, 73520, Control_c, 0, 64, 55
1, 73535, Control_c, 0, 64, 60
1, 73549, Note_off_c, 0, 62, 62
1, 73550, Control_c, 0, 64, 65
1, 73564, Note_on_c, 0, 44, 68
1, 73565, Control_c, 0, 64, 69
1, 73569, Note_on_c, 0, 63, 81
1, 73570, Note_on_c, 0, 66, 77
1, 73576, Note_off_c, 0, 37, 60
1, 73579, Control_c, 0, 64, 73
1, 73594, Control_c, 0, 64, 77
1, 73609, Control_c, 0, 64, 82
1, 73624, Control_c, 0, 64, 85
1, 73629, Note_on_c, 0, 65, 63
1, 73639, Control_c, 0, 64, 89
1, 73648, Note_on_c, 0, 49, 75
1, 73653, Control_c, 0, 64, 91
1, 73656, Note_off_c, 0, 66, 59
1, 73657, Note_on_c, 0, 61, 86
1, 73668, Note_off_c, 0, 63, 63
1, 73668, Control_c, 0, 64, 93
1, 73669, Note_off_c, 0, 65, 62
1, 73698, Control_c, 0, 64, 93
1, 73698, Note_off_c, 0, 61, 67
1, 73704, Note_off_c, 0, 44, 38
1, 73725, Note_off_c, 0, 49, 60
1, 73731, Note_on_c, 0, 63, 84
1, 73737, Note_on_c, 0, 56, 76
1, 73739, Note_on_c, 0, 60, 81
1, 73757, Control_c, 0, 64, 93
1, 73805, Note_off_c, 0, 60, 65
1, 73807, Note_off_c, 0, 56, 60
1, 73809, Note_on_c, 0, 59, 90
1, 73813, Note_on_c, 0, 49, 66
1, 73816, Note_off_c, 0, 63, 58
1, 73876, Control_c, 0, 64, 92
1, 73885, Note_on_c, 0, 61, 82
1, 73886, Note_on_c, 0, 58, 83
1, 73886, Note_off_c, 0, 59, 56
1, 73889, Note_on_c, 0, 44, 68
1, 73889, Note_off_c, 0, 49, 59
1, 73890, Control_c, 0, 64, 86
1, 73905, Control_c, 0, 64, 76
1, 73907, Note_off_c, 0, 58, 71
1, 73920, Control_c, 0, 64, 62
1, 73924, Note_off_c, 0, 61, 58
1, 73935, Control_c, 0, 64, 38
1, 73950, Control_c, 0, 64, 0
1, 73963, Note_off_c, 0, 44, 62
1, 73972, Note_on_c, 0, 37, 72
1, 73974, Note_on_c, 0, 64, 94
1, 74052, Note_on_c, 0, 68, 77
1, 74056, Note_off_c, 0, 64, 62
1, 74056, Note_on_c, 0, 65, 80
1, 74063, Note_on_c, 0, 44, 62
1, 74064, Note_off_c, 0, 37, 65
1, 74091, Control_c, 0, 64, 38
1, 74105, Control_c, 0, 64, 51
1, 74106, Note_on_c, 0, 66, 78
1, 74118, Note_off_c, 0, 65, 59
1, 74120, Control_c, 0, 64, 60
1, 74135, Control_c, 0, 64, 63
1, 74139, Note_on_c, 0, 49, 68
1, 74143, Note_off_c, 0, 68, 57
1, 74144, Note_on_c, 0, 63, 92
1, 74150, Control_c, 0, 64, 64
1, 74158, Note_off_c, 0, 66, 65
1, 74165, Control_c, 0, 64, 65
1, 74168, Note_off_c, 0, 44, 62
1, 74179, Control_c, 0, 64, 66
1, 74184, Note_off_c, 0, 63, 67
1, 74194, Control_c, 0, 64, 67
1, 74209, Control_c, 0, 64, 68
1, 74212, Note_off_c, 0, 49, 63
1, 74218, Note_on_c, 0, 56, 77
1, 74221, Note_on_c, 0, 65, 85
1, 74223, Control_c, 0, 64, 68
1, 74238, Control_c, 0, 64, 69
1, 74242, Note_on_c, 0, 62, 70
1, 74248, Note_on_c, 0, 61, 47
1, 74255, Control_c, 0, 64, 69
1, 74269, Control_c, 0, 64, 70
1, 74276, Note_off_c, 0, 62, 63
1, 74279, Note_off_c, 0, 61, 53
1, 74284, Control_c, 0, 64, 71
1, 74293, Note_on_c, 0, 59, 88
1, 74304, Note_off_c, 0, 56, 60
1, 74309, Note_on_c, 0, 49, 66
1, 74312, Note_off_c, 0, 65, 61
1, 74314, Control_c, 0, 64, 71
1, 74328, Control_c, 0, 64, 72
1, 74343, Control_c, 0, 64, 73
1, 74356, Note_on_c, 0, 60, 28
1, 74358, Control_c, 0, 64, 74
1, 74371, Note_on_c, 0, 63, 83
1, 74371, Note_off_c, 0, 59, 66
1, 74373, Control_c, 0, 64, 75
1, 74384, Note_off_c, 0, 49, 59
1, 74386, Note_on_c, 0, 44, 71
1, 74388, Control_c, 0, 64, 77
1, 74402, Control_c, 0, 64, 79
1, 74405, Note_off_c, 0, 60, 65
1, 74417, Control_c, 0, 64, 80
1, 74423, Note_off_c, 0, 63, 64
1, 74432, Control_c, 0, 64, 79
1, 74446, Control_c, 0, 64, 74
1, 74455, Note_off_c, 0, 44, 61
1, 74460, Note_on_c, 0, 65, 96
1, 74461, Control_c, 0, 64, 64
1, 74464, Note_on_c, 0, 37, 82
1, 74476, Control_c, 0, 64, 44
1, 74491, Control_c, 0, 64, 0
1, 74533, Note_on_c, 0, 70, 73
1, 74535, Note_on_c, 0, 66, 85
1, 74535, Control_c, 0, 64, 40
1, 74539, Note_off_c, 0, 65, 64
1, 74550, Control_c, 0, 64, 52
1, 74550, Control_c, 0, 67, 90
1, 74553, Note_off_c, 0, 37, 61
1, 74554, Note_on_c, 0, 44, 70
1, 74565, Control_c, 0, 64, 60
1, 74565, Control_c, 0, 67, 0
1, 74571, Poly_aftertouch_c, 0, 39, 0
1, 74571, Note_on_c, 0, 68, 63
1, 74580, Control_c, 0, 64, 62
1, 74595, Control_c, 0, 64, 63
1, 74604, Note_off_c, 0, 66, 63
1, 74604, Note_off_c, 0, 68, 64
1, 74622, Note_off_c, 0, 70, 65
1, 74622, Note_on_c, 0, 49, 73
1, 74625, Control_c, 0, 64, 63
1, 74631, Note_on_c, 0, 64, 80
1, 74637, Note_on_c, 0, 65, 71
1, 74640, Control_c, 0, 64, 64
1, 74642, Note_off_c, 0, 44, 62
1, 74655, Control_c, 0, 64, 65
1, 74665, Note_off_c, 0, 65, 68
1, 74667, Note_off_c, 0, 64, 62
1, 74670, Control_c, 0, 64, 67
1, 74685, Control_c, 0, 64, 69
1, 74691, Note_off_c, 0, 49, 64
1, 74696, Note_on_c, 0, 63, 83
1, 74699, Control_c, 0, 64, 70
1, 74706, Note_on_c, 0, 56, 77
1, 74714, Control_c, 0, 64, 71
1, 74726, Note_on_c, 0, 65, 47
1, 74729, Control_c, 0, 64, 72
1, 74744, Control_c, 0, 64, 74
1, 74752, Note_off_c, 0, 63, 63
1, 74754, Note_off_c, 0, 65, 53
1, 74759, Control_c, 0, 64, 75
1, 74781, Control_c, 0, 64, 78
1, 74782, Note_on_c, 0, 62, 87
1, 74795, Note_off_c, 0, 56, 62
1, 74795, Control_c, 0, 64, 81
1, 74810, Note_on_c, 0, 49, 63
1, 74810, Control_c, 0, 64, 83
1, 74822, Poly_aftertouch_c, 0, 66, 0
1, 74825, Control_c, 0, 64, 85
1, 74840, Control_c, 0, 64, 87
1, 74854, Note_off_c, 0, 62, 46
1, 74854, Control_c, 0, 64, 87
1, 74855, Note_on_c, 0, 65, 70
1, 74869, Note_on_c, 0, 61, 72
1, 74876, Note_on_c, 0, 44, 59
1, 74876, Note_off_c, 0, 49, 60
1, 74899, Control_c, 0, 64, 86
1, 74914, Control_c, 0, 64, 80
1, 74926, Note_off_c, 0, 65, 58
1, 74927, Note_off_c, 0, 61, 61
1, 74929, Control_c, 0, 64, 70
1, 74944, Control_c, 0, 64, 52
1, 74959, Control_c, 0, 64, 0
1, 74963, Note_on_c, 0, 62, 71
1, 74963, Note_off_c, 0, 44, 58
1, 74964, Note_on_c, 0, 37, 67
1, 75027, Note_off_c, 0, 37, 59
1, 75030, Note_off_c, 0, 62, 61
1, 75040, Note_on_c, 0, 63, 64
1, 75052, Note_on_c, 0, 66, 66
1, 75064, Note_on_c, 0, 49, 56
1, 75081, Note_off_c, 0, 63, 62
1, 75090, Note_off_c, 0, 66, 65
1, 75106, Note_off_c, 0, 49, 65
1, 75123, Note_on_c, 0, 65, 79
1, 75127, Note_on_c, 0, 54, 78
1, 75152, Control_c, 0, 64, 29
1, 75167, Control_c, 0, 64, 41
1, 75179, Note_off_c, 0, 65, 62
1, 75182, Control_c, 0, 64, 53
1, 75182, Note_off_c, 0, 54, 62
1, 75197, Control_c, 0, 64, 61
1, 75199, Note_on_c, 0, 70, 77
1, 75200, Note_on_c, 0, 66, 73
1, 75211, Note_on_c, 0, 42, 65
1, 75212, Control_c, 0, 64, 65
1, 75226, Control_c, 0, 64, 66
1, 75233, Note_off_c, 0, 66, 63
1, 75241, Control_c, 0, 64, 67
1, 75244, Note_off_c, 0, 42, 64
1, 75254, Note_off_c, 0, 70, 63
1, 75256, Control_c, 0, 64, 68
1, 75270, Note_on_c, 0, 51, 87
1, 75270, Note_on_c, 0, 69, 89
1, 75270, Control_c, 0, 64, 69
1, 75285, Control_c, 0, 64, 71
1, 75300, Control_c, 0, 64, 74
1, 75315, Control_c, 0, 64, 75
1, 75330, Control_c, 0, 64, 77
1, 75338, Note_on_c, 0, 39, 67
1, 75344, Control_c, 0, 64, 78
1, 75347, Note_on_c, 0, 73, 67
1, 75347, Note_off_c, 0, 69, 60
1, 75351, Note_on_c, 0, 70, 78
1, 75359, Control_c, 0, 64, 78
1, 75361, Note_off_c, 0, 51, 60
1, 75371, Note_off_c, 0, 39, 65
1, 75374, Control_c, 0, 64, 79
1, 75391, Note_off_c, 0, 70, 56
1, 75392, Note_on_c, 0, 72, 26
1, 75404, Note_off_c, 0, 73, 36
1, 75429, Note_off_c, 0, 72, 44
1, 75432, Note_on_c, 0, 37, 90
1, 75433, Control_c, 0, 64, 75
1, 75434, Note_on_c, 0, 71, 89
1, 75448, Control_c, 0, 64, 60
1, 75463, Control_c, 0, 64, 0
1, 75507, Note_off_c, 0, 37, 62
1, 75507, Note_off_c, 0, 71, 63
1, 75519, Note_on_c, 0, 75, 63
1, 75524, Note_on_c, 0, 72, 73
1, 75542, Note_on_c, 0, 49, 70
1, 75559, Note_on_c, 0, 73, 47
1, 75574, Control_c, 0, 64, 38
1, 75582, Note_off_c, 0, 49, 60
1, 75589, Control_c, 0, 64, 54
1, 75599, Note_off_c, 0, 72, 63
1, 75603, Note_off_c, 0, 75, 64
1, 75604, Control_c, 0, 64, 61
1, 75613, Note_on_c, 0, 70, 85
1, 75617, Note_on_c, 0, 56, 91
1, 75618, Control_c, 0, 64, 62
1, 75629, Note_off_c, 0, 73, 64
1, 75647, Note_off_c, 0, 70, 66
1, 75663, Control_c, 0, 64, 63
1, 75668, Note_off_c, 0, 56, 62
1, 75677, Control_c, 0, 64, 65
1, 75687, Note_on_c, 0, 72, 90
1, 75692, Control_c, 0, 64, 68
1, 75694, Note_on_c, 0, 44, 80
1, 75698, Note_on_c, 0, 68, 76
1, 75707, Control_c, 0, 64, 70
1, 75722, Control_c, 0, 64, 73
1, 75737, Control_c, 0, 64, 76
1, 75740, Note_off_c, 0, 44, 62
1, 75752, Control_c, 0, 64, 80
1, 75758, Note_off_c, 0, 68, 62
1, 75767, Control_c, 0, 64, 84
1, 75767, Note_on_c, 0, 67, 95
1, 75781, Control_c, 0, 64, 87
1, 75785, Note_off_c, 0, 72, 61
1, 75787, Note_on_c, 0, 60, 88
1, 75796, Control_c, 0, 64, 88
1, 75826, Control_c, 0, 64, 87
1, 75841, Note_on_c, 0, 48, 77
1, 75841, Control_c, 0, 64, 84
1, 75843, Note_off_c, 0, 60, 65
1, 75844, Note_on_c, 0, 70, 84
1, 75848, Note_on_c, 0, 66, 88
1, 75855, Note_off_c, 0, 67, 64
1, 75856, Control_c, 0, 64, 79
1, 75870, Note_off_c, 0, 48, 64
1, 75871, Control_c, 0, 64, 73
1, 75886, Control_c, 0, 64, 68
1, 75901, Control_c, 0, 64, 64
1, 75912, Note_off_c, 0, 66, 62
1, 75916, Control_c, 0, 64, 60
1, 75920, Note_off_c, 0, 70, 65
1, 75931, Control_c, 0, 64, 57
1, 75933, Note_on_c, 0, 64, 93
1, 75945, Control_c, 0, 64, 52
1, 75954, Note_on_c, 0, 37, 73
1, 75960, Control_c, 0, 64, 45
1, 75969, Note_on_c, 0, 39, 52
1, 75975, Control_c, 0, 64, 39
1, 75988, Note_off_c, 0, 37, 67
1, 75990, Control_c, 0, 64, 36
1, 76005, Control_c, 0, 64, 37
1, 76019, Note_off_c, 0, 64, 64
1, 76020, Control_c, 0, 64, 39
1, 76024, Note_on_c, 0, 65, 69
1, 76024, Note_on_c, 0, 68, 74
1, 76026, Note_off_c, 0, 39, 55
1, 76035, Control_c, 0, 64, 42
1, 76037, Note_on_c, 0, 49, 50
1, 76049, Control_c, 0, 64, 48
1, 76053, Note_off_c, 0, 65, 65
1, 76064, Control_c, 0, 64, 54
1, 76070, Note_off_c, 0, 49, 52
1, 76079, Control_c, 0, 64, 57
1, 76080, Note_off_c, 0, 68, 63
1, 76093, Control_c, 0, 64, 58
1, 76098, Note_on_c, 0, 56, 96
1, 76099, Note_on_c, 0, 67, 93
1, 76108, Control_c, 0, 64, 54
1, 76123, Control_c, 0, 64, 45
1, 76138, Control_c, 0, 64, 31
1, 76160, Note_off_c, 0, 56, 64
1, 76167, Control_c, 0, 64, 41
1, 76176, Note_on_c, 0, 72, 83
1, 76178, Note_on_c, 0, 68, 88
1, 76181, Note_off_c, 0, 67, 62
1, 76182, Control_c, 0, 64, 56
1, 76183, Note_on_c, 0, 44, 78
1, 76197, Control_c, 0, 64, 67
1, 76212, Control_c, 0, 64, 78
1, 76225, Note_off_c, 0, 68, 62
1, 76226, Control_c, 0, 64, 91
1, 76231, Note_off_c, 0, 44, 60
1, 76235, Note_off_c, 0, 72, 63
1, 76241, Control_c, 0, 64, 96
1, 76253, Note_on_c, 0, 53, 87
1, 76269, Note_on_c, 0, 71, 95
1, 76322, Note_off_c, 0, 53, 62
1, 76330, Note_on_c, 0, 41, 81
1, 76345, Note_on_c, 0, 75, 82
1, 76351, Note_on_c, 0, 72, 81
1, 76352, Note_off_c, 0, 71, 64
1, 76354, Note_off_c, 0, 41, 68
1, 76400, Note_off_c, 0, 72, 60
1, 76412, Control_c, 0, 64, 92
1, 76414, Note_off_c, 0, 75, 64
1, 76426, Control_c, 0, 64, 77
1, 76428, Note_on_c, 0, 37, 97
1, 76431, Note_on_c, 0, 72, 83
1, 76441, Control_c, 0, 64, 58
1, 76456, Control_c, 0, 64, 0
1, 76496, Note_off_c, 0, 37, 62
1, 76511, Note_on_c, 0, 73, 80
1, 76514, Note_off_c, 0, 72, 63
1, 76518, Note_on_c, 0, 75, 75
1, 76518, Note_on_c, 0, 49, 72
1, 76521, Note_on_c, 0, 77, 52
1, 76530, Note_on_c, 0, 76, 59
1, 76551, Note_off_c, 0, 49, 67
1, 76565, Note_off_c, 0, 73, 60
1, 76574, Note_off_c, 0, 77, 63
1, 76577, Note_off_c, 0, 76, 58
1, 76580, Note_off_c, 0, 75, 59
1, 76591, Note_on_c, 0, 71, 88
1, 76599, Note_on_c, 0, 58, 99
1, 76604, Control_c, 0, 64, 61
1, 76608, Note_on_c, 0, 72, 58
1, 76619, Control_c, 0, 64, 82
1, 76628, Note_off_c, 0, 72, 60
1, 76634, Control_c, 0, 64, 127
1, 76652, Note_off_c, 0, 58, 65
1, 76664, Note_off_c, 0, 71, 41
1, 76664, Note_on_c, 0, 70, 89
1, 76668, Note_on_c, 0, 73, 76
1, 76682, Note_on_c, 0, 46, 84
1, 76721, Note_off_c, 0, 46, 61
1, 76742, Note_off_c, 0, 70, 59
1, 76747, Note_on_c, 0, 69, 90
1, 76752, Note_on_c, 0, 61, 95
1, 76756, Note_off_c, 0, 73, 63
1, 76815, Note_off_c, 0, 61, 65
1, 76817, Note_on_c, 0, 49, 79
1, 76821, Note_off_c, 0, 69, 43
1, 76822, Note_on_c, 0, 72, 84
1, 76831, Note_on_c, 0, 68, 83
1, 76843, Note_off_c, 0, 49, 68
1, 76887, Note_off_c, 0, 68, 64
1, 76887, Control_c, 0, 64, 90
1, 76902, Control_c, 0, 64, 57
1, 76910, Note_on_c, 0, 65, 94
1, 76917, Control_c, 0, 64, 0
1, 76920, Note_on_c, 0, 37, 87
1, 76935, Note_off_c, 0, 72, 61
1, 76966, Note_off_c, 0, 37, 60
1, 76990, Note_on_c, 0, 66, 85
1, 76998, Note_on_c, 0, 70, 79
1, 76999, Note_off_c, 0, 65, 61
1, 77007, Note_on_c, 0, 49, 47
1, 77028, Control_c, 0, 64, 53
1, 77041, Note_off_c, 0, 66, 65
1, 77043, Control_c, 0, 64, 64
1, 77051, Note_off_c, 0, 49, 54
1, 77057, Control_c, 0, 64, 67
1, 77064, Note_off_c, 0, 70, 63
1, 77072, Control_c, 0, 64, 71
1, 77079, Note_on_c, 0, 58, 97
1, 77080, Note_on_c, 0, 69, 96
1, 77087, Control_c, 0, 64, 81
1, 77102, Control_c, 0, 64, 117
1, 77117, Control_c, 0, 64, 127
1, 77130, Note_off_c, 0, 58, 65
1, 77153, Note_on_c, 0, 46, 86
1, 77153, Note_on_c, 0, 73, 86
1, 77158, Note_on_c, 0, 70, 83
1, 77162, Note_off_c, 0, 69, 60
1, 77182, Note_off_c, 0, 70, 66
1, 77190, Note_off_c, 0, 46, 57
1, 77206, Note_off_c, 0, 73, 62
1, 77224, Note_on_c, 0, 54, 91
1, 77233, Note_on_c, 0, 72, 96
1, 77289, Note_off_c, 0, 54, 63
1, 77299, Note_on_c, 0, 42, 83
1, 77306, Note_on_c, 0, 73, 91
1, 77306, Note_on_c, 0, 77, 92
1, 77313, Note_off_c, 0, 72, 66
1, 77326, Note_off_c, 0, 42, 66
1, 77351, Note_off_c, 0, 73, 62
1, 77356, Note_off_c, 0, 77, 62
1, 77369, Control_c, 0, 64, 98
1, 77384, Control_c, 0, 64, 55
1, 77398, Note_on_c, 0, 37, 98
1, 77398, Control_c, 0, 64, 0
1, 77401, Note_on_c, 0, 74, 100
1, 77442, Note_on_c, 0, 36, 42
1, 77458, Note_off_c, 0, 37, 66
1, 77459, Control_c, 0, 64, 47
1, 77473, Note_on_c, 0, 78, 87
1, 77473, Control_c, 0, 64, 66
1, 77477, Note_on_c, 0, 75, 83
1, 77481, Note_off_c, 0, 74, 65
1, 77482, Note_off_c, 0, 36, 32
1, 77488, Control_c, 0, 64, 80
1, 77492, Note_on_c, 0, 48, 61
1, 77503, Control_c, 0, 64, 96
1, 77518, Note_off_c, 0, 48, 56
1, 77518, Control_c, 0, 64, 108
1, 77524, Note_on_c, 0, 77, 70
1, 77533, Control_c, 0, 64, 127
1, 77543, Note_off_c, 0, 75, 57
1, 77562, Control_c, 0, 64, 103
1, 77570, Note_on_c, 0, 73, 95
1, 77573, Note_on_c, 0, 63, 100
1, 77577, Control_c, 0, 64, 85
1, 77582, Note_off_c, 0, 78, 55
1, 77585, Note_off_c, 0, 77, 64
1, 77592, Control_c, 0, 64, 81
1, 77607, Control_c, 0, 64, 87
1, 77609, Note_off_c, 0, 73, 68
1, 77621, Control_c, 0, 64, 127
1, 77623, Note_off_c, 0, 63, 66
1, 77637, Note_on_c, 0, 73, 81
1, 77637, Note_on_c, 0, 75, 91
1, 77651, Note_on_c, 0, 51, 82
1, 77672, Note_on_c, 0, 72, 66
1, 77683, Note_on_c, 0, 50, 44
1, 77687, Note_off_c, 0, 73, 64
1, 77703, Note_off_c, 0, 51, 63
1, 77710, Note_off_c, 0, 72, 57
1, 77715, Note_off_c, 0, 50, 55
1, 77723, Note_off_c, 0, 75, 61
1, 77724, Note_on_c, 0, 71, 96
1, 77726, Note_on_c, 0, 66, 95
1, 77785, Note_off_c, 0, 66, 68
1, 77791, Note_off_c, 0, 71, 0
1, 77794, Note_on_c, 0, 54, 81
1, 77809, Note_on_c, 0, 73, 87
1, 77811, Note_on_c, 0, 70, 88
1, 77815, Poly_aftertouch_c, 0, 71, 0
1, 77820, Note_off_c, 0, 54, 63
1, 77829, Note_off_c, 0, 70, 70
1, 77848, Note_off_c, 0, 73, 59
1, 77880, Control_c, 0, 64, 92
1, 77895, Control_c, 0, 64, 44
1, 77901, Note_on_c, 0, 76, 102
1, 77905, Note_on_c, 0, 37, 99
1, 77910, Control_c, 0, 64, 0
1, 77955, Control_c, 0, 64, 45
1, 77969, Control_c, 0, 64, 65
1, 77975, Note_off_c, 0, 37, 60
1, 77976, Note_off_c, 0, 76, 68
1, 77978, Note_on_c, 0, 80, 76
1, 77978, Note_on_c, 0, 77, 86
1, 77981, Note_on_c, 0, 48, 55
1, 77984, Control_c, 0, 64, 81
1, 77999, Control_c, 0, 64, 127
1, 78003, Note_on_c, 0, 78, 73
1, 78015, Note_off_c, 0, 48, 61
1, 78034, Note_off_c, 0, 77, 61
1, 78063, Note_on_c, 0, 75, 101
1, 78065, Note_on_c, 0, 58, 96
1, 78070, Note_off_c, 0, 78, 58
1, 78086, Note_off_c, 0, 80, 57
1, 78100, Note_off_c, 0, 75, 68
1, 78116, Note_off_c, 0, 58, 64
1, 78138, Note_on_c, 0, 77, 91
1, 78140, Note_on_c, 0, 73, 87
1, 78143, Note_on_c, 0, 46, 91
1, 78186, Note_off_c, 0, 46, 65
1, 78216, Note_on_c, 0, 71, 104
1, 78217, Note_on_c, 0, 60, 94
1, 78226, Note_off_c, 0, 73, 56
1, 78229, Note_off_c, 0, 77, 61
1, 78251, Control_c, 0, 64, 67
1, 78266, Control_c, 0, 64, 0
1, 78279, Note_off_c, 0, 60, 73
1, 78284, Note_on_c, 0, 50, 73
1, 78290, Note_on_c, 0, 72, 96
1, 78296, Note_on_c, 0, 75, 89
1, 78301, Note_off_c, 0, 71, 65
1, 78321, Note_off_c, 0, 50, 66
1, 78325, Control_c, 0, 64, 40
1, 78327, Note_off_c, 0, 72, 65
1, 78338, Note_off_c, 0, 75, 70
1, 78340, Control_c, 0, 64, 67
1, 78355, Control_c, 0, 64, 100
1, 78369, Control_c, 0, 64, 127
1, 78387, Note_on_c, 0, 77, 107
1, 78395, Note_on_c, 0, 37, 104
1, 78439, Note_on_c, 0, 36, 38
1, 78457, Note_on_c, 0, 48, 81
1, 78458, Note_off_c, 0, 37, 63
1, 78466, Note_on_c, 0, 82, 86
1, 78473, Note_on_c, 0, 78, 81
1, 78473, Note_off_c, 0, 77, 67
1, 78479, Note_on_c, 0, 80, 73
1, 78479, Note_off_c, 0, 48, 68
1, 78479, Note_off_c, 0, 36, 49
1, 78536, Note_off_c, 0, 80, 60
1, 78549, Note_off_c, 0, 78, 59
1, 78554, Note_on_c, 0, 60, 96
1, 78554, Note_off_c, 0, 82, 60
1, 78557, Note_on_c, 0, 77, 100
1, 78598, Note_off_c, 0, 77, 69
1, 78613, Note_off_c, 0, 60, 64
1, 78622, Note_on_c, 0, 48, 87
1, 78632, Note_on_c, 0, 78, 94
1, 78650, Note_on_c, 0, 75, 66
1, 78668, Note_off_c, 0, 48, 62
1, 78669, Note_off_c, 0, 75, 41
1, 78706, Note_off_c, 0, 78, 59
1, 78709, Note_on_c, 0, 74, 78
1, 78709, Note_on_c, 0, 61, 91
1, 78747, Control_c, 0, 64, 71
1, 78756, Note_off_c, 0, 74, 67
1, 78762, Control_c, 0, 64, 0
1, 78780, Note_on_c, 0, 49, 71
1, 78786, Note_off_c, 0, 61, 63
1, 78791, Note_on_c, 0, 77, 92
1, 78807, Control_c, 0, 64, 37
1, 78812, Note_on_c, 0, 74, 83
1, 78817, Note_on_c, 0, 51, 32
1, 78821, Control_c, 0, 64, 63
1, 78828, Note_off_c, 0, 77, 62
1, 78836, Note_off_c, 0, 74, 66
1, 78836, Control_c, 0, 64, 84
1, 78843, Note_off_c, 0, 49, 62
1, 78851, Control_c, 0, 64, 127
1, 78863, Note_off_c, 0, 51, 51
1, 78909, Control_c, 0, 64, 72
1, 78917, Note_on_c, 0, 66, 103
1, 78922, Note_on_c, 0, 62, 91
1, 78924, Control_c, 0, 64, 34
1, 78926, Note_on_c, 0, 57, 65
1, 78930, Note_on_c, 0, 54, 76
1, 78933, Note_on_c, 0, 49, 82
1, 78939, Control_c, 0, 64, 0
1, 78946, Note_on_c, 0, 68, 44
1, 78959, Note_off_c, 0, 57, 68
1, 78959, Note_off_c, 0, 62, 65
1, 78968, Control_c, 0, 64, 40
1, 78983, Control_c, 0, 64, 63
1, 78986, Note_off_c, 0, 54, 62
1, 78988, Note_off_c, 0, 66, 68
1, 78995, Note_on_c, 0, 75, 79
1, 78998, Control_c, 0, 64, 75
1, 79001, Note_off_c, 0, 49, 63
1, 79010, Note_off_c, 0, 75, 67
1, 79013, Control_c, 0, 64, 88
1, 79015, Note_on_c, 0, 78, 85
1, 79018, Note_on_c, 0, 74, 76
1, 79028, Control_c, 0, 64, 105
1, 79036, Note_off_c, 0, 74, 67
1, 79037, Note_off_c, 0, 68, 33
1, 79043, Control_c, 0, 64, 127
1, 79055, Note_off_c, 0, 78, 56
1, 79099, Note_on_c, 0, 78, 90
1, 79172, Note_on_c, 0, 90, 92
1, 79178, Note_on_c, 0, 49, 98
1, 79182, Note_on_c, 0, 92, 71
1, 79183, Note_on_c, 0, 37, 87
1, 79186, Poly_aftertouch_c, 0, 80, 127
1, 79199, Note_off_c, 0, 92, 65
1, 79200, Note_off_c, 0, 78, 63
1, 79210, Note_off_c, 0, 37, 73
1, 79220, Note_off_c, 0, 90, 66
1, 79221, Poly_aftertouch_c, 0, 80, 0
1, 79222, Note_off_c, 0, 49, 66
1, 79251, Note_on_c, 0, 77, 96
1, 79251, Note_on_c, 0, 89, 83
1, 79300, Note_off_c, 0, 77, 65
1, 79303, Note_off_c, 0, 89, 66
1, 79353, Note_on_c, 0, 61, 49
1, 79356, Note_on_c, 0, 78, 69
1, 79356, Note_on_c, 0, 90, 88
1, 79368, Note_on_c, 0, 86, 68
1, 79368, Note_off_c, 0, 90, 73
1, 79374, Note_off_c, 0, 78, 66
1, 79375, Note_on_c, 0, 91, 57
1, 79382, Note_off_c, 0, 86, 67
1, 79386, Note_off_c, 0, 61, 63
1, 79400, Note_off_c, 0, 91, 60
1, 79454, Note_on_c, 0, 68, 77
1, 79456, Note_on_c, 0, 62, 63
1, 79457, Note_on_c, 0, 66, 73
1, 79464, Note_on_c, 0, 56, 76
1, 79475, Note_off_c, 0, 68, 69
1, 79478, Note_on_c, 0, 73, 101
1, 79483, Note_on_c, 0, 85, 94
1, 79487, Note_off_c, 0, 62, 63
1, 79490, Note_on_c, 0, 82, 80
1, 79490, Note_off_c, 0, 66, 67
1, 79508, Note_off_c, 0, 82, 72
1, 79510, Note_off_c, 0, 85, 59
1, 79510, Control_c, 0, 64, 86
1, 79511, Note_off_c, 0, 73, 67
1, 79520, Note_off_c, 0, 56, 64
1, 79525, Control_c, 0, 64, 63
1, 79540, Control_c, 0, 64, 31
1, 79555, Control_c, 0, 64, 0
1, 79559, Note_on_c, 0, 74, 100
1, 79561, Note_on_c, 0, 86, 91
1, 79587, Note_off_c, 0, 74, 65
1, 79593, Note_on_c, 0, 85, 28
1, 79594, Note_off_c, 0, 86, 67
1, 79599, Note_off_c, 0, 85, 44
1, 79639, Note_on_c, 0, 86, 77
1, 79654, Note_on_c, 0, 76, 64
1, 79660, Note_off_c, 0, 86, 73
1, 79671, Note_off_c, 0, 76, 65
1, 79725, Note_on_c, 0, 78, 98
1, 79727, Note_on_c, 0, 90, 96
1, 79728, Note_on_c, 0, 49, 93
1, 79731, Note_on_c, 0, 37, 84
1, 79732, Control_c, 0, 64, 62
1, 79747, Control_c, 0, 64, 108
1, 79758, Note_off_c, 0, 78, 67
1, 79761, Control_c, 0, 64, 127
1, 79763, Note_off_c, 0, 37, 67
1, 79767, Note_off_c, 0, 90, 62
1, 79777, Note_off_c, 0, 49, 63
1, 79823, Note_on_c, 0, 81, 97
1, 79826, Note_on_c, 0, 91, 78
1, 79826, Note_on_c, 0, 93, 94
1, 79845, Note_off_c, 0, 81, 65
1, 79847, Note_off_c, 0, 91, 71
1, 79859, Note_off_c, 0, 93, 62
1, 79895, Note_on_c, 0, 80, 84
1, 79908, Note_on_c, 0, 92, 81
1, 79928, Note_off_c, 0, 92, 72
1, 79933, Note_off_c, 0, 80, 68
1, 79949, Note_on_c, 0, 90, 10
1, 79949, Note_off_c, 0, 90, 127
1, 80051, Note_on_c, 0, 61, 90
1, 80052, Control_c, 0, 64, 74
1, 80054, Note_on_c, 0, 57, 80
1, 80066, Control_c, 0, 64, 30
1, 80081, Control_c, 0, 64, 0
1, 80111, Control_c, 0, 64, 49
1, 80118, Note_on_c, 0, 64, 100
1, 80125, Note_off_c, 0, 61, 64
1, 80126, Control_c, 0, 64, 66
1, 80134, Note_off_c, 0, 64, 77
1, 80138, Note_off_c, 0, 57, 63
1, 80140, Control_c, 0, 64, 79
1, 80155, Control_c, 0, 64, 88
1, 80170, Control_c, 0, 64, 90
1, 80184, Control_c, 0, 64, 91
1, 80205, Note_on_c, 0, 76, 79
1, 80214, Control_c, 0, 64, 91
1, 80220, Note_on_c, 0, 72, 63
1, 80229, Control_c, 0, 64, 92
1, 80247, Note_off_c, 0, 72, 65
1, 80249, Note_off_c, 0, 76, 65
1, 80259, Control_c, 0, 64, 89
1, 80274, Control_c, 0, 64, 70
1, 80289, Control_c, 0, 64, 0
1, 80294, Note_on_c, 0, 76, 90
1, 80316, Note_on_c, 0, 74, 39
1, 80316, Note_off_c, 0, 74, 127
1, 80372, Note_off_c, 0, 76, 0
1, 80382, Note_on_c, 0, 88, 88
1, 80384, Note_on_c, 0, 86, 91
1, 80386, Note_on_c, 0, 85, 57
1, 80389, Note_on_c, 0, 49, 102
1, 80396, Note_on_c, 0, 37, 86
1, 80397, Note_on_c, 0, 87, 55
1, 80400, Poly_aftertouch_c, 0, 76, 0
1, 80402, Note_off_c, 0, 88, 69
1, 80405, Note_off_c, 0, 86, 67
1, 80406, Note_off_c, 0, 85, 45
1, 80407, Control_c, 0, 64, 57
1, 80420, Note_off_c, 0, 37, 67
1, 80421, Note_off_c, 0, 87, 56
1, 80422, Control_c, 0, 64, 127
1, 80429, Note_off_c, 0, 49, 67
1, 80486, Note_on_c, 0, 85, 86
1, 80488, Note_on_c, 0, 73, 97
1, 80507, Note_off_c, 0, 85, 67
1, 80521, Note_on_c, 0, 78, 46
1, 80521, Note_off_c, 0, 78, 127
1, 80528, Note_off_c, 0, 73, 64
1, 80534, Note_on_c, 0, 80, 22
1, 80534, Note_off_c, 0, 80, 127
1, 80563, Note_on_c, 0, 86, 66
1, 80569, Note_on_c, 0, 74, 96
1, 80602, Note_off_c, 0, 74, 62
1, 80609, Note_off_c, 0, 86, 66
1, 80650, Note_on_c, 0, 68, 91
1, 80650, Note_on_c, 0, 76, 95
1, 80653, Note_on_c, 0, 88, 86
1, 80655, Note_on_c, 0, 56, 80
1, 80661, Note_on_c, 0, 61, 45
1, 80667, Note_on_c, 0, 64, 47
1, 80667, Note_off_c, 0, 76, 70
1, 80670, Note_off_c, 0, 88, 73
1, 80678, Note_on_c, 0, 66, 58
1, 80700, Note_off_c, 0, 66, 59
1, 80730, Note_on_c, 0, 90, 89
1, 80731, Note_on_c, 0, 78, 91
1, 80734, Control_c, 0, 64, 76
1, 80746, Note_off_c, 0, 68, 61
1, 80747, Note_off_c, 0, 56, 55
1, 80749, Control_c, 0, 64, 44
1, 80763, Note_off_c, 0, 64, 44
1, 80768, Note_off_c, 0, 61, 48
1, 80771, Control_c, 0, 64, 0
1, 80781, Note_off_c, 0, 78, 62
1, 80783, Note_off_c, 0, 90, 63
1, 80812, Note_on_c, 0, 88, 96
1, 80816, Note_on_c, 0, 76, 90
1, 80846, Note_off_c, 0, 76, 67
1, 80849, Note_on_c, 0, 86, 45
1, 80864, Note_off_c, 0, 88, 65
1, 80878, Note_off_c, 0, 86, 53
1, 80899, Note_on_c, 0, 73, 104
1, 80902, Note_on_c, 0, 67, 99
1, 80903, Note_on_c, 0, 61, 87
1, 80903, Note_on_c, 0, 85, 88
1, 80904, Note_on_c, 0, 81, 81
1, 80904, Control_c, 0, 64, 32
1, 80905, Note_on_c, 0, 57, 85
1, 80905, Note_on_c, 0, 64, 90
1, 80919, Control_c, 0, 64, 62
1, 80934, Control_c, 0, 64, 69
1, 80938, Note_off_c, 0, 67, 68
1, 80949, Note_off_c, 0, 81, 62
1, 80949, Control_c, 0, 64, 72
1, 80952, Note_off_c, 0, 57, 62
1, 80955, Note_off_c, 0, 64, 61
1, 80956, Note_off_c, 0, 85, 62
1, 80959, Note_off_c, 0, 73, 60
1, 80963, Control_c, 0, 64, 77
1, 80973, Note_off_c, 0, 61, 64
1, 80978, Control_c, 0, 64, 83
1, 80993, Control_c, 0, 64, 87
1, 81007, Control_c, 0, 64, 88
1, 81082, Control_c, 0, 67, 58
1, 81096, Control_c, 0, 67, 127
1, 81111, Control_c, 0, 64, 88
1, 81126, Control_c, 0, 64, 86
1, 81141, Control_c, 0, 64, 83
1, 81156, Control_c, 0, 64, 78
1, 81171, Control_c, 0, 64, 72
1, 81186, Control_c, 0, 64, 65
1, 81201, Control_c, 0, 64, 56
1, 81215, Control_c, 0, 64, 46
1, 81217, Note_on_c, 0, 55, 58
1, 81227, Note_on_c, 0, 61, 67
1, 81230, Control_c, 0, 64, 39
1, 81234, Note_on_c, 0, 58, 43
1, 81245, Control_c, 0, 64, 37
1, 81272, Note_off_c, 0, 58, 65
1, 81275, Control_c, 0, 64, 36
1, 81280, Note_off_c, 0, 55, 59
1, 81287, Note_off_c, 0, 61, 64
1, 81289, Control_c, 0, 64, 34
1, 81295, Note_on_c, 0, 57, 63
1, 81302, Note_on_c, 0, 54, 61
1, 81304, Control_c, 0, 64, 32
1, 81319, Control_c, 0, 64, 30
1, 81334, Control_c, 0, 64, 28
1, 81344, Note_off_c, 0, 54, 59
1, 81347, Note_on_c, 0, 67, 32
1, 81349, Control_c, 0, 64, 0
1, 81372, Note_on_c, 0, 64, 76
1, 81376, Note_off_c, 0, 57, 56
1, 81380, Note_off_c, 0, 67, 48
1, 81383, Note_on_c, 0, 55, 69
1, 81386, Note_on_c, 0, 52, 26
1, 81401, Poly_aftertouch_c, 0, 66, 0
1, 81412, Note_off_c, 0, 64, 65
1, 81424, Note_off_c, 0, 55, 65
1, 81425, Note_on_c, 0, 50, 60
1, 81434, Note_off_c, 0, 52, 49
1, 81443, Note_on_c, 0, 54, 62
1, 81443, Note_on_c, 0, 69, 83
1, 81453, Note_off_c, 0, 50, 67
1, 81464, Note_off_c, 0, 54, 60
1, 81464, Note_off_c, 0, 69, 67
1, 81470, Note_on_c, 0, 66, 54
1, 81493, Note_off_c, 0, 66, 58
1, 81498, Control_c, 0, 64, 30
1, 81520, Control_c, 0, 64, 32
1, 81525, Note_on_c, 0, 68, 49
1, 81535, Control_c, 0, 64, 35
1, 81550, Control_c, 0, 64, 38
1, 81564, Control_c, 0, 64, 41
1, 81568, Note_off_c, 0, 68, 64
1, 81579, Control_c, 0, 64, 45
1, 81594, Control_c, 0, 64, 50
1, 81604, Note_on_c, 0, 49, 66
1, 81606, Note_on_c, 0, 74, 76
1, 81609, Control_c, 0, 64, 55
1, 81614, Note_on_c, 0, 70, 47
1, 81621, Note_on_c, 0, 69, 66
1, 81624, Control_c, 0, 64, 59
1, 81624, Note_on_c, 0, 37, 28
1, 81630, Note_off_c, 0, 49, 66
1, 81638, Control_c, 0, 64, 62
1, 81639, Note_off_c, 0, 70, 41
1, 81644, Note_off_c, 0, 69, 70
1, 81653, Control_c, 0, 64, 64
1, 81668, Control_c, 0, 64, 66
1, 81670, Note_off_c, 0, 74, 63
1, 81671, Note_off_c, 0, 37, 29
1, 81683, Control_c, 0, 64, 67
1, 81696, Note_on_c, 0, 71, 74
1, 81709, Note_on_c, 0, 55, 69
1, 81732, Note_off_c, 0, 71, 61
1, 81757, Control_c, 0, 64, 66
1, 81768, Note_off_c, 0, 55, 55
1, 81770, Note_on_c, 0, 72, 76
1, 81772, Control_c, 0, 64, 65
1, 81778, Note_on_c, 0, 56, 70
1, 81779, Note_on_c, 0, 75, 67
1, 81786, Control_c, 0, 64, 65
1, 81800, Poly_aftertouch_c, 0, 69, 0
1, 81826, Note_off_c, 0, 72, 61
1, 81830, Note_off_c, 0, 56, 64
1, 81842, Note_on_c, 0, 70, 87
1, 81850, Note_on_c, 0, 57, 76
1, 81850, Note_off_c, 0, 75, 60
1, 81859, Note_off_c, 0, 70, 74
1, 81860, Control_c, 0, 64, 66
1, 81875, Control_c, 0, 64, 67
1, 81890, Control_c, 0, 64, 69
1, 81904, Control_c, 0, 64, 70
1, 81907, Note_on_c, 0, 72, 84
1, 81917, Note_on_c, 0, 68, 82
1, 81919, Control_c, 0, 67, 115
1, 81925, Note_on_c, 0, 58, 79
1, 81933, Note_off_c, 0, 57, 63
1, 81934, Control_c, 0, 64, 69
1, 81934, Control_c, 0, 67, 48
1, 81949, Control_c, 0, 64, 66
1, 81949, Control_c, 0, 67, 0
1, 81964, Control_c, 0, 64, 61
1, 81979, Note_off_c, 0, 68, 62
1, 81979, Control_c, 0, 64, 52
1, 81990, Note_on_c, 0, 67, 78
1, 81994, Control_c, 0, 64, 51
1, 81997, Note_on_c, 0, 59, 78
1, 81997, Note_off_c, 0, 72, 63
1, 82006, Note_on_c, 0, 69, 61
1, 82009, Control_c, 0, 64, 55
1, 82024, Control_c, 0, 64, 62
1, 82027, Note_off_c, 0, 69, 62
1, 82038, Note_off_c, 0, 58, 56
1, 82038, Control_c, 0, 64, 69
1, 82049, Note_off_c, 0, 59, 65
1, 82053, Control_c, 0, 64, 82
1, 82058, Note_on_c, 0, 70, 80
1, 82061, Note_on_c, 0, 66, 89
1, 82062, Note_on_c, 0, 60, 83
1, 82068, Control_c, 0, 64, 117
1, 82068, Note_off_c, 0, 67, 61
1, 82083, Control_c, 0, 64, 127
1, 82087, Note_off_c, 0, 60, 67
1, 82111, Note_off_c, 0, 66, 62
1, 82133, Note_off_c, 0, 70, 57
1, 82138, Note_on_c, 0, 64, 92
1, 82157, Note_on_c, 0, 61, 93
1, 82171, Control_c, 0, 64, 87
1, 82186, Control_c, 0, 64, 55
1, 82201, Control_c, 0, 64, 0
1, 82215, Note_off_c, 0, 64, 58
1, 82216, Control_c, 0, 64, 34
1, 82226, Note_on_c, 0, 65, 77
1, 82232, Note_on_c, 0, 68, 70
1, 82232, Control_c, 0, 64, 53
1, 82234, Note_on_c, 0, 56, 79
1, 82247, Control_c, 0, 64, 69
1, 82259, Poly_aftertouch_c, 0, 71, 0
1, 82265, Note_off_c, 0, 61, 58
1, 82268, Note_off_c, 0, 65, 61
1, 82268, Control_c, 0, 64, 94
1, 82283, Control_c, 0, 64, 127
1, 82298, Note_off_c, 0, 68, 61
1, 82319, Note_off_c, 0, 56, 60
1, 82321, Note_on_c, 0, 49, 77
1, 82326, Note_on_c, 0, 69, 69
1, 82331, Note_on_c, 0, 67, 69
1, 82357, Control_c, 0, 64, 98
1, 82358, Note_off_c, 0, 67, 60
1, 82366, Note_off_c, 0, 69, 61
1, 82372, Control_c, 0, 64, 73
1, 82387, Control_c, 0, 64, 49
1, 82390, Note_on_c, 0, 63, 79
1, 82393, Note_on_c, 0, 73, 81
1, 82402, Control_c, 0, 64, 0
1, 82411, Note_off_c, 0, 49, 52
1, 82418, Note_on_c, 0, 68, 52
1, 82440, Note_off_c, 0, 68, 62
1, 82469, Note_off_c, 0, 63, 63
1, 82469, Note_off_c, 0, 73, 61
1, 82473, Note_on_c, 0, 69, 83
1, 82476, Note_on_c, 0, 54, 67
1, 82516, Note_off_c, 0, 69, 64
1, 82546, Note_on_c, 0, 49, 79
1, 82551, Note_on_c, 0, 72, 81
1, 82569, Note_off_c, 0, 54, 61
1, 82618, Note_on_c, 0, 70, 79
1, 82624, Note_on_c, 0, 61, 87
1, 82643, Note_on_c, 0, 65, 74
1, 82655, Note_off_c, 0, 72, 58
1, 82680, Note_off_c, 0, 49, 61
1, 82698, Note_on_c, 0, 53, 74
1, 82712, Note_off_c, 0, 61, 64
1, 82715, Note_on_c, 0, 68, 81
1, 82718, Note_off_c, 0, 70, 65
1, 82733, Note_off_c, 0, 65, 60
1, 82779, Note_on_c, 0, 49, 83
1, 82804, Note_on_c, 0, 70, 79
1, 82849, Note_off_c, 0, 68, 35
1, 82891, Control_c, 0, 64, 43
1, 82891, Note_off_c, 0, 70, 64
1, 82897, Note_on_c, 0, 59, 94
1, 82900, Note_on_c, 0, 56, 92
1, 82903, Note_on_c, 0, 65, 97
1, 82903, Note_on_c, 0, 62, 94
1, 82906, Control_c, 0, 64, 78
1, 82921, Control_c, 0, 64, 102
1, 82935, Control_c, 0, 64, 127
1, 82944, Note_off_c, 0, 49, 63
1, 82956, Note_off_c, 0, 62, 65
1, 82963, Note_off_c, 0, 53, 26
1, 82967, Note_off_c, 0, 59, 65
1, 82968, Note_off_c, 0, 65, 67
1, 82977, Note_off_c, 0, 56, 64
1, 83077, Control_c, 0, 64, 97
1, 83091, Control_c, 0, 64, 69
1, 83106, Control_c, 0, 64, 0
1, 83212, Note_on_c, 0, 66, 100
1, 83213, Note_on_c, 0, 62, 85
1, 83219, Note_on_c, 0, 57, 67
1, 83222, Note_on_c, 0, 78, 99
1, 83225, Note_on_c, 0, 54, 77
1, 83240, Control_c, 0, 64, 44
1, 83255, Control_c, 0, 64, 82
1, 83257, Note_off_c, 0, 66, 65
1, 83263, Note_off_c, 0, 62, 64
1, 83270, Control_c, 0, 64, 127
1, 83275, Note_off_c, 0, 57, 63
1, 83293, Note_off_c, 0, 54, 63
1, 83301, Note_off_c, 0, 78, 63
1, 83305, Note_on_c, 0, 86, 81
1, 83323, Note_on_c, 0, 90, 82
1, 83346, Note_off_c, 0, 86, 67
1, 83367, Note_off_c, 0, 90, 66
1, 83403, Note_on_c, 0, 90, 91
1, 83483, Note_on_c, 0, 49, 103
1, 83484, Note_on_c, 0, 102, 105
1, 83487, Note_on_c, 0, 37, 86
1, 83514, Poly_aftertouch_c, 0, 89, 0
1, 83515, Note_off_c, 0, 90, 67
1, 83520, Note_off_c, 0, 37, 65
1, 83532, Note_off_c, 0, 49, 66
1, 83550, Note_off_c, 0, 102, 61
1, 83571, Note_on_c, 0, 101, 94
1, 83575, Note_on_c, 0, 89, 100
1, 83589, Note_on_c, 0, 100, 52
1, 83609, Note_off_c, 0, 89, 66
1, 83614, Note_off_c, 0, 100, 54
1, 83617, Note_off_c, 0, 101, 68
1, 83666, Note_on_c, 0, 102, 90
1, 83681, Note_on_c, 0, 104, 66
1, 83683, Note_off_c, 0, 102, 66
1, 83684, Note_on_c, 0, 90, 57
1, 83687, Note_on_c, 0, 98, 49
1, 83687, Note_off_c, 0, 98, 127
1, 83700, Note_off_c, 0, 104, 61
1, 83707, Note_off_c, 0, 90, 42
1, 83766, Control_c, 0, 64, 108
1, 83769, Note_on_c, 0, 68, 95
1, 83775, Note_on_c, 0, 56, 84
1, 83779, Note_on_c, 0, 62, 68
1, 83779, Note_on_c, 0, 66, 75
1, 83781, Control_c, 0, 64, 69
1, 83787, Note_on_c, 0, 85, 102
1, 83791, Note_on_c, 0, 94, 101
1, 83791, Note_on_c, 0, 97, 95
1, 83792, Note_off_c, 0, 68, 65
1, 83796, Control_c, 0, 64, 39
1, 83800, Note_off_c, 0, 66, 72
1, 83809, Note_off_c, 0, 62, 65
1, 83810, Control_c, 0, 64, 0
1, 83815, Note_off_c, 0, 94, 62
1, 83819, Note_off_c, 0, 97, 60
1, 83824, Note_off_c, 0, 85, 67
1, 83833, Note_off_c, 0, 56, 65
1, 83870, Note_on_c, 0, 86, 92
1, 83871, Note_on_c, 0, 98, 95
1, 83903, Note_off_c, 0, 86, 67
1, 83913, Note_off_c, 0, 98, 67
1, 83949, Note_on_c, 0, 100, 94
1, 83953, Note_on_c, 0, 88, 84
1, 83971, Note_off_c, 0, 88, 74
1, 83987, Note_off_c, 0, 100, 66
1, 84033, Control_c, 0, 64, 51
1, 84037, Note_on_c, 0, 49, 97
1, 84040, Note_on_c, 0, 90, 99
1, 84045, Note_on_c, 0, 37, 75
1, 84045, Note_on_c, 0, 102, 92
1, 84048, Note_on_c, 0, 98, 85
1, 84048, Control_c, 0, 64, 83
1, 84063, Control_c, 0, 64, 127
1, 84070, Note_off_c, 0, 98, 72
1, 84073, Note_off_c, 0, 37, 65
1, 84073, Note_off_c, 0, 102, 62
1, 84073, Note_off_c, 0, 49, 68
1, 84078, Note_off_c, 0, 90, 67
1, 84132, Note_on_c, 0, 105, 99
1, 84137, Note_on_c, 0, 93, 90
1, 84155, Note_off_c, 0, 93, 70
1, 84165, Note_on_c, 0, 91, 31
1, 84173, Note_off_c, 0, 105, 67
1, 84203, Note_off_c, 0, 91, 33
1, 84214, Note_on_c, 0, 92, 100
1, 84214, Note_on_c, 0, 104, 93
1, 84233, Note_off_c, 0, 104, 67
1, 84242, Note_off_c, 0, 92, 66
1, 84299, Control_c, 0, 64, 85
1, 84313, Note_on_c, 0, 61, 80
1, 84313, Note_on_c, 0, 69, 91
1, 84314, Control_c, 0, 64, 45
1, 84316, Note_on_c, 0, 57, 83
1, 84317, Note_on_c, 0, 64, 73
1, 84329, Control_c, 0, 64, 0
1, 84346, Note_off_c, 0, 64, 68
1, 84350, Note_off_c, 0, 69, 64
1, 84355, Note_on_c, 0, 76, 103
1, 84358, Control_c, 0, 64, 48
1, 84369, Note_off_c, 0, 61, 67
1, 84373, Control_c, 0, 64, 65
1, 84375, Note_off_c, 0, 57, 64
1, 84388, Control_c, 0, 64, 77
1, 84403, Control_c, 0, 64, 86
1, 84414, Note_off_c, 0, 76, 58
1, 84418, Control_c, 0, 64, 88
1, 84432, Control_c, 0, 64, 89
1, 84440, Note_on_c, 0, 88, 77
1, 84441, Note_on_c, 0, 85, 94
1, 84447, Control_c, 0, 64, 92
1, 84462, Control_c, 0, 64, 98
1, 84476, Note_off_c, 0, 85, 64
1, 84477, Control_c, 0, 64, 127
1, 84482, Note_off_c, 0, 88, 66
1, 84544, Note_on_c, 0, 88, 90
1, 84596, Note_on_c, 0, 49, 106
1, 84601, Note_on_c, 0, 97, 87
1, 84603, Note_on_c, 0, 37, 83
1, 84604, Note_on_c, 0, 100, 84
1, 84614, Note_on_c, 0, 98, 87
1, 84614, Note_on_c, 0, 99, 62
1, 84619, Note_off_c, 0, 88, 64
1, 84624, Note_off_c, 0, 37, 68
1, 84626, Note_off_c, 0, 100, 71
1, 84634, Note_off_c, 0, 49, 68
1, 84634, Note_off_c, 0, 99, 62
1, 84637, Note_off_c, 0, 97, 43
1, 84638, Note_off_c, 0, 98, 71
1, 84699, Note_on_c, 0, 85, 94
1, 84700, Note_on_c, 0, 97, 89
1, 84721, Note_on_c, 0, 98, 71
1, 84730, Note_off_c, 0, 85, 66
1, 84733, Note_off_c, 0, 97, 63
1, 84739, Note_off_c, 0, 98, 64
1, 84784, Note_on_c, 0, 86, 90
1, 84785, Poly_aftertouch_c, 0, 37, 0
1, 84790, Note_on_c, 0, 98, 92
1, 84798, Note_on_c, 0, 100, 73
1, 84800, Poly_aftertouch_c, 0, 61, 127
1, 84802, Note_off_c, 0, 86, 67
1, 84812, Note_off_c, 0, 98, 70
1, 84823, Note_off_c, 0, 100, 68
1, 84834, Note_on_c, 0, 68, 93
1, 84844, Note_on_c, 0, 56, 79
1, 84845, Note_on_c, 0, 64, 45
1, 84860, Note_on_c, 0, 88, 98
1, 84868, Note_on_c, 0, 100, 87
1, 84874, Note_off_c, 0, 64, 63
1, 84876, Note_off_c, 0, 88, 72
1, 84887, Note_off_c, 0, 100, 72
1, 84930, Control_c, 0, 64, 77
1, 84935, Note_on_c, 0, 90, 95
1, 84936, Note_on_c, 0, 102, 95
1, 84944, Note_off_c, 0, 68, 59
1, 84945, Control_c, 0, 64, 34
1, 84948, Note_off_c, 0, 56, 57
1, 84960, Control_c, 0, 64, 0
1, 84960, Poly_aftertouch_c, 0, 61, 0
1, 84976, Note_off_c, 0, 90, 64
1, 84978, Note_off_c, 0, 102, 66
1, 85013, Note_on_c, 0, 100, 89
1, 85016, Note_on_c, 0, 88, 94
1, 85031, Note_on_c, 0, 98, 70
1, 85047, Note_off_c, 0, 88, 68
1, 85049, Note_off_c, 0, 98, 63
1, 85058, Note_off_c, 0, 100, 68
1, 85094, Note_on_c, 0, 67, 97
1, 85094, Note_on_c, 0, 94, 98
1, 85097, Note_on_c, 0, 57, 86
1, 85097, Note_on_c, 0, 61, 87
1, 85097, Note_on_c, 0, 64, 91
1, 85100, Note_on_c, 0, 85, 98
1, 85104, Note_on_c, 0, 97, 91
1, 85111, Note_off_c, 0, 94, 74
1, 85114, Note_on_c, 0, 87, 78
1, 85118, Note_on_c, 0, 93, 79
1, 85122, Control_c, 0, 64, 53
1, 85124, Note_on_c, 0, 98, 69
1, 85127, Note_off_c, 0, 87, 70
1, 85137, Control_c, 0, 64, 70
1, 85143, Note_off_c, 0, 98, 63
1, 85145, Note_off_c, 0, 57, 64
1, 85150, Note_off_c, 0, 93, 58
1, 85152, Control_c, 0, 64, 86
1, 85159, Note_off_c, 0, 97, 64
1, 85165, Note_off_c, 0, 67, 60
1, 85167, Control_c, 0, 64, 127
1, 85173, Note_off_c, 0, 85, 65
1, 85180, Note_off_c, 0, 61, 63
1, 85182, Note_off_c, 0, 64, 61
1, 85381, Control_c, 0, 67, 60
1, 85396, Control_c, 0, 67, 111
1, 85411, Control_c, 0, 64, 104
1, 85411, Control_c, 0, 67, 127
1, 85426, Control_c, 0, 64, 84
1, 85434, Note_on_c, 0, 67, 66
1, 85442, Control_c, 0, 64, 70
1, 85446, Note_on_c, 0, 70, 55
1, 85457, Control_c, 0, 64, 56
1, 85460, Note_on_c, 0, 73, 73
1, 85472, Control_c, 0, 64, 40
1, 85486, Control_c, 0, 64, 0
1, 85502, Note_off_c, 0, 70, 65
1, 85504, Note_off_c, 0, 67, 60
1, 85524, Note_on_c, 0, 69, 66
1, 85524, Note_off_c, 0, 73, 63
1, 85534, Note_on_c, 0, 66, 63
1, 85541, Note_on_c, 0, 78, 72
1, 85546, Note_on_c, 0, 74, 49
1, 85567, Note_off_c, 0, 74, 60
1, 85580, Note_off_c, 0, 66, 60
1, 85592, Note_on_c, 0, 64, 47
1, 85596, Note_off_c, 0, 78, 60
1, 85604, Note_on_c, 0, 67, 78
1, 85607, Note_on_c, 0, 76, 83
1, 85615, Note_off_c, 0, 69, 59
1, 85654, Note_off_c, 0, 76, 61
1, 85660, Note_off_c, 0, 64, 55
1, 85661, Note_on_c, 0, 62, 64
1, 85661, Note_off_c, 0, 67, 64
1, 85666, Note_on_c, 0, 66, 82
1, 85671, Note_on_c, 0, 81, 87
1, 85683, Note_on_c, 0, 78, 80
1, 85686, Note_off_c, 0, 62, 66
1, 85686, Note_off_c, 0, 66, 69
1, 85687, Note_off_c, 0, 81, 75
1, 85708, Control_c, 0, 64, 30
1, 85715, Note_off_c, 0, 78, 61
1, 85723, Control_c, 0, 64, 38
1, 85738, Control_c, 0, 64, 45
1, 85753, Control_c, 0, 64, 53
1, 85758, Note_on_c, 0, 80, 79
1, 85768, Control_c, 0, 64, 56
1, 85777, Note_off_c, 0, 80, 72
1, 85782, Control_c, 0, 64, 58
1, 85797, Control_c, 0, 64, 59
1, 85812, Control_c, 0, 64, 62
1, 85812, Note_on_c, 0, 49, 67
1, 85813, Note_on_c, 0, 61, 79
1, 85824, Note_on_c, 0, 86, 78
1, 85825, Note_on_c, 0, 81, 78
1, 85827, Control_c, 0, 64, 64
1, 85841, Note_off_c, 0, 61, 67
1, 85842, Note_off_c, 0, 49, 63
1, 85842, Control_c, 0, 64, 66
1, 85857, Control_c, 0, 64, 68
1, 85865, Note_off_c, 0, 81, 64
1, 85871, Control_c, 0, 64, 69
1, 85893, Note_off_c, 0, 86, 65
1, 85901, Control_c, 0, 64, 69
1, 85918, Note_on_c, 0, 83, 84
1, 85927, Note_on_c, 0, 67, 73
1, 85967, Note_off_c, 0, 83, 64
1, 85987, Note_off_c, 0, 67, 57
1, 85992, Note_on_c, 0, 68, 74
1, 86003, Note_on_c, 0, 84, 77
1, 86009, Note_on_c, 0, 87, 69
1, 86012, Control_c, 0, 64, 70
1, 86027, Control_c, 0, 64, 71
1, 86042, Control_c, 0, 64, 74
1, 86050, Note_off_c, 0, 84, 61
1, 86051, Note_off_c, 0, 68, 65
1, 86057, Control_c, 0, 64, 78
1, 86072, Control_c, 0, 64, 83
1, 86072, Note_on_c, 0, 82, 86
1, 86072, Note_off_c, 0, 87, 61
1, 86074, Note_on_c, 0, 69, 74
1, 86086, Control_c, 0, 64, 86
1, 86089, Note_off_c, 0, 82, 72
1, 86101, Control_c, 0, 64, 88
1, 86116, Control_c, 0, 64, 88
1, 86140, Note_on_c, 0, 84, 93
1, 86145, Note_on_c, 0, 70, 85
1, 86147, Note_off_c, 0, 69, 58
1, 86152, Note_on_c, 0, 80, 80
1, 86212, Note_off_c, 0, 80, 63
1, 86223, Note_on_c, 0, 79, 82
1, 86227, Note_on_c, 0, 71, 78
1, 86229, Note_off_c, 0, 70, 59
1, 86236, Note_off_c, 0, 84, 62
1, 86265, Control_c, 0, 64, 89
1, 86272, Note_off_c, 0, 71, 59
1, 86280, Control_c, 0, 64, 90
1, 86287, Note_on_c, 0, 72, 78
1, 86295, Control_c, 0, 64, 94
1, 86296, Note_on_c, 0, 82, 82
1, 86300, Note_on_c, 0, 78, 84
1, 86300, Poly_aftertouch_c, 0, 81, 127
1, 86301, Note_off_c, 0, 79, 58
1, 86309, Control_c, 0, 64, 100
1, 86310, Note_off_c, 0, 72, 67
1, 86323, Poly_aftertouch_c, 0, 81, 0
1, 86324, Control_c, 0, 64, 106
1, 86355, Control_c, 0, 64, 97
1, 86364, Note_off_c, 0, 78, 52
1, 86365, Note_off_c, 0, 82, 62
1, 86370, Control_c, 0, 64, 76
1, 86378, Note_on_c, 0, 76, 97
1, 86379, Note_on_c, 0, 73, 88
1, 86384, Control_c, 0, 64, 59
1, 86399, Control_c, 0, 64, 43
1, 86399, Control_c, 0, 67, 108
1, 86414, Control_c, 0, 67, 51
1, 86428, Control_c, 0, 64, 51
1, 86428, Control_c, 0, 67, 0
1, 86443, Control_c, 0, 64, 59
1, 86458, Control_c, 0, 64, 64
1, 86462, Note_on_c, 0, 68, 75
1, 86462, Note_off_c, 0, 76, 61
1, 86465, Note_on_c, 0, 80, 73
1, 86465, Note_on_c, 0, 77, 72
1, 86473, Control_c, 0, 64, 66
1, 86477, Note_off_c, 0, 73, 58
1, 86488, Note_off_c, 0, 77, 71
1, 86488, Control_c, 0, 64, 67
1, 86502, Control_c, 0, 64, 68
1, 86517, Control_c, 0, 64, 68
1, 86518, Note_off_c, 0, 80, 64
1, 86532, Control_c, 0, 64, 69
1, 86537, Note_on_c, 0, 61, 74
1, 86540, Note_off_c, 0, 68, 59
1, 86559, Note_on_c, 0, 79, 63
1, 86559, Note_on_c, 0, 81, 66
1, 86589, Note_off_c, 0, 79, 60
1, 86591, Control_c, 0, 64, 69
1, 86593, Note_off_c, 0, 81, 59
1, 86606, Control_c, 0, 64, 66
1, 86610, Note_on_c, 0, 75, 88
1, 86620, Control_c, 0, 64, 63
1, 86621, Note_on_c, 0, 85, 78
1, 86631, Note_on_c, 0, 80, 69
1, 86635, Control_c, 0, 64, 57
1, 86640, Note_off_c, 0, 61, 56
1, 86647, Note_on_c, 0, 86, 62
1, 86650, Control_c, 0, 64, 54
1, 86653, Note_off_c, 0, 80, 72
1, 86668, Note_off_c, 0, 85, 0
1, 86668, Note_on_c, 0, 85, 28
1, 86680, Note_off_c, 0, 86, 59
1, 86680, Control_c, 0, 64, 55
1, 86690, Note_off_c, 0, 75, 65
1, 86694, Note_on_c, 0, 66, 82
1, 86695, Control_c, 0, 64, 56
1, 86696, Note_off_c, 0, 85, 51
1, 86703, Note_on_c, 0, 81, 81
1, 86709, Control_c, 0, 64, 58
1, 86724, Control_c, 0, 64, 60
1, 86736, Note_off_c, 0, 81, 65
1, 86739, Control_c, 0, 64, 61
1, 86761, Control_c, 0, 64, 62
1, 86776, Control_c, 0, 64, 63
1, 86780, Note_on_c, 0, 61, 81
1, 86781, Note_on_c, 0, 84, 86
1, 86791, Control_c, 0, 64, 64
1, 86796, Note_off_c, 0, 66, 64
1, 86806, Control_c, 0, 64, 65
1, 86846, Note_on_c, 0, 73, 92
1, 86850, Control_c, 0, 64, 64
1, 86851, Note_on_c, 0, 82, 80
1, 86864, Note_on_c, 0, 77, 87
1, 86865, Control_c, 0, 64, 62
1, 86880, Control_c, 0, 64, 56
1, 86885, Note_off_c, 0, 84, 62
1, 86895, Control_c, 0, 64, 47
1, 86907, Note_off_c, 0, 61, 60
1, 86909, Control_c, 0, 64, 33
1, 86924, Control_c, 0, 64, 0
1, 86927, Note_off_c, 0, 73, 64
1, 86929, Note_on_c, 0, 65, 75
1, 86932, Note_on_c, 0, 80, 82
1, 86937, Note_off_c, 0, 82, 65
1, 86943, Note_off_c, 0, 77, 63
1, 87008, Note_on_c, 0, 82, 83
1, 87017, Note_on_c, 0, 61, 84
1, 87019, Note_off_c, 0, 80, 56
1, 87034, Note_off_c, 0, 65, 63
1, 87076, Note_off_c, 0, 82, 64
1, 87079, Note_on_c, 0, 69, 97
1, 87080, Note_on_c, 0, 73, 99
1, 87080, Note_on_c, 0, 77, 97
1, 87088, Control_c, 0, 64, 50
1, 87103, Control_c, 0, 64, 65
1, 87114, Note_off_c, 0, 61, 65
1, 87118, Control_c, 0, 64, 73
1, 87124, Note_off_c, 0, 73, 65
1, 87128, Note_off_c, 0, 77, 67
1, 87130, Note_off_c, 0, 69, 65
1, 87133, Control_c, 0, 64, 83
1, 87148, Control_c, 0, 64, 95
1, 87163, Control_c, 0, 64, 117
1, 87177, Control_c, 0, 64, 127
1, 87348, Note_on_c, 0, 94, 92
1, 87350, Note_on_c, 0, 85, 96
1, 87350, Note_on_c, 0, 82, 86
1, 87355, Control_c, 0, 64, 98
1, 87356, Note_on_c, 0, 92, 80
1, 87364, Note_on_c, 0, 78, 76
1, 87370, Control_c, 0, 64, 71
1, 87381, Note_on_c, 0, 93, 59
1, 87384, Control_c, 0, 64, 45
1, 87399, Control_c, 0, 64, 0
1, 87413, Note_off_c, 0, 93, 48
1, 87440, Note_off_c, 0, 94, 64
1, 87482, Note_off_c, 0, 85, 51
1, 87504, Note_on_c, 0, 91, 2
1, 87514, Note_on_c, 0, 94, 91
1, 87525, Control_c, 0, 64, 38
1, 87540, Control_c, 0, 64, 57
1, 87544, Note_off_c, 0, 91, 26
1, 87555, Control_c, 0, 64, 68
1, 87565, Note_off_c, 0, 92, 63
1, 87570, Control_c, 0, 64, 75
1, 87584, Control_c, 0, 64, 83
1, 87587, Note_on_c, 0, 90, 92
1, 87594, Note_on_c, 0, 85, 95
1, 87599, Control_c, 0, 64, 90
1, 87603, Note_on_c, 0, 73, 75
1, 87604, Note_on_c, 0, 80, 71
1, 87607, Note_off_c, 0, 78, 58
1, 87610, Note_off_c, 0, 82, 64
1, 87614, Note_off_c, 0, 94, 64
1, 87614, Control_c, 0, 64, 99
1, 87629, Control_c, 0, 64, 110
1, 87634, Note_off_c, 0, 80, 64
1, 87639, Note_off_c, 0, 90, 68
1, 87644, Control_c, 0, 64, 117
1, 87648, Note_off_c, 0, 85, 64
1, 87651, Note_off_c, 0, 73, 63
1, 87659, Control_c, 0, 64, 119
1, 87659, Control_c, 0, 67, 41
1, 87674, Control_c, 0, 67, 100
1, 87689, Control_c, 0, 67, 127
1, 87792, Control_c, 0, 64, 116
1, 87807, Control_c, 0, 64, 109
1, 87823, Control_c, 0, 64, 98
1, 87838, Control_c, 0, 64, 84
1, 87853, Control_c, 0, 64, 71
1, 87868, Control_c, 0, 64, 59
1, 87879, Note_on_c, 0, 70, 67
1, 87882, Control_c, 0, 64, 41
1, 87885, Note_on_c, 0, 65, 52
1, 87894, Note_on_c, 0, 58, 54
1, 87897, Control_c, 0, 64, 0
1, 87975, Note_on_c, 0, 68, 62
1, 87976, Note_off_c, 0, 70, 61
1, 87976, Note_off_c, 0, 58, 59
1, 88068, Note_on_c, 0, 70, 59
1, 88070, Note_off_c, 0, 68, 55
1, 88158, Note_off_c, 0, 65, 57
1, 88214, Note_on_c, 0, 65, 33
1, 88230, Note_on_c, 0, 58, 32
1, 88248, Note_on_c, 0, 55, 25
1, 88250, Note_on_c, 0, 61, 45
1, 88260, Control_c, 0, 64, 29
1, 88275, Control_c, 0, 64, 34
1, 88289, Control_c, 0, 64, 42
1, 88304, Control_c, 0, 64, 53
1, 88319, Control_c, 0, 64, 60
1, 88327, Note_off_c, 0, 70, 56
1, 88334, Control_c, 0, 64, 62
1, 88349, Control_c, 0, 64, 64
1, 88364, Control_c, 0, 64, 66
1, 88379, Control_c, 0, 64, 68
1, 88394, Control_c, 0, 64, 71
1, 88398, Note_off_c, 0, 65, 63
1, 88408, Control_c, 0, 64, 73
1, 88423, Control_c, 0, 64, 76
1, 88428, Note_off_c, 0, 61, 66
1, 88432, Note_off_c, 0, 58, 53
1, 88438, Control_c, 0, 64, 79
1, 88453, Control_c, 0, 64, 81
1, 88463, Note_off_c, 0, 55, 50
1, 88468, Control_c, 0, 64, 83
1, 88482, Control_c, 0, 64, 86
1, 88482, Control_c, 0, 67, 108
1, 88497, Control_c, 0, 64, 89
1, 88497, Control_c, 0, 67, 60
1, 88512, Control_c, 0, 64, 95
1, 88512, Control_c, 0, 67, 0
1, 88526, Control_c, 0, 64, 105
1, 88541, Control_c, 0, 64, 127
1, 88614, Control_c, 0, 64, 89
1, 88623, Poly_aftertouch_c, 0, 58, 0
1, 88630, Control_c, 0, 64, 69
1, 88645, Control_c, 0, 64, 59
1, 88646, Poly_aftertouch_c, 0, 58, 0
1, 88654, Note_on_c, 0, 53, 103
1, 88658, Note_on_c, 0, 41, 98
1, 88660, Note_on_c, 0, 29, 92
1, 88660, Control_c, 0, 64, 59
1, 88675, Control_c, 0, 64, 64
1, 88690, Control_c, 0, 64, 72
1, 88704, Control_c, 0, 64, 90
1, 88719, Control_c, 0, 64, 127
1, 88755, Note_off_c, 0, 41, 65
1, 88766, Note_off_c, 0, 29, 63
1, 88844, Note_on_c, 0, 51, 100
1, 88847, Note_on_c, 0, 39, 101
1, 88849, Note_on_c, 0, 27, 98
1, 88862, Note_off_c, 0, 53, 61
1, 88930, Note_off_c, 0, 27, 58
1, 88945, Note_off_c, 0, 39, 61
1, 88978, Note_off_c, 0, 51, 62
1, 89023, Note_on_c, 0, 29, 92
1, 89023, Note_on_c, 0, 41, 97
1, 89024, Note_on_c, 0, 53, 95
1, 89088, Note_off_c, 0, 41, 63
1, 89097, Note_off_c, 0, 29, 60
1, 89219, Poly_aftertouch_c, 0, 54, 127
1, 89222, Note_off_c, 0, 53, 49
1, 89258, Poly_aftertouch_c, 0, 54, 0
1, 89419, Note_on_c, 0, 49, 95
1, 89421, Note_on_c, 0, 37, 100
1, 89422, Note_on_c, 0, 25, 93
1, 89440, Control_c, 0, 64, 87
1, 89446, Note_on_c, 0, 27, 68
1, 89454, Control_c, 0, 64, 50
1, 89469, Control_c, 0, 64, 0
1, 89473, Note_off_c, 0, 27, 53
1, 89514, Control_c, 0, 64, 31
1, 89528, Control_c, 0, 64, 52
1, 89543, Control_c, 0, 64, 66
1, 89558, Control_c, 0, 64, 76
1, 89572, Control_c, 0, 64, 88
1, 89587, Control_c, 0, 64, 95
1, 89602, Control_c, 0, 64, 100
1, 89608, Poly_aftertouch_c, 0, 51, 127
1, 89617, Control_c, 0, 64, 107
1, 89632, Control_c, 0, 64, 127
1, 89673, Note_off_c, 0, 49, 62
1, 89703, Note_off_c, 0, 25, 57
1, 89726, Poly_aftertouch_c, 0, 51, 0
1, 89763, Note_off_c, 0, 37, 54
1, 90322, Note_on_c, 0, 85, 104
1, 90328, Note_on_c, 0, 73, 98
1, 90329, Note_on_c, 0, 65, 92
1, 90331, Note_on_c, 0, 61, 83
1, 90334, Note_on_c, 0, 53, 79
1, 90337, Note_on_c, 0, 56, 81
1, 90603, Note_off_c, 0, 65, 55
1, 90770, Note_off_c, 0, 53, 53
1, 90811, Note_off_c, 0, 61, 59
1, 90838, Note_off_c, 0, 85, 56
1, 90884, Note_off_c, 0, 56, 59
1, 90920, Note_off_c, 0, 73, 56
1, 91448, Control_c, 0, 67, 51
1, 91463, Control_c, 0, 67, 99
1, 91478, Control_c, 0, 67, 127
1, 91883, Poly_aftertouch_c, 0, 49, 127
1, 91887, Note_on_c, 0, 61, 4
1, 92092, Control_c, 0, 64, 119
1, 92107, Control_c, 0, 64, 115
1, 92121, Control_c, 0, 64, 113
1, 92151, Control_c, 0, 64, 110
1, 92180, Control_c, 0, 64, 107
1, 92195, Control_c, 0, 64, 104
1, 92210, Control_c, 0, 64, 102
1, 92225, Control_c, 0, 64, 99
1, 92240, Control_c, 0, 64, 97
1, 92254, Control_c, 0, 64, 95
1, 92269, Control_c, 0, 64, 92
1, 92284, Control_c, 0, 64, 90
1, 92299, Control_c, 0, 64, 88
1, 92314, Control_c, 0, 64, 86
1, 92328, Control_c, 0, 64, 84
1, 92343, Control_c, 0, 64, 83
1, 92358, Control_c, 0, 64, 81
1, 92373, Control_c, 0, 64, 79
1, 92388, Control_c, 0, 64, 77
1, 92403, Control_c, 0, 64, 74
1, 92418, Control_c, 0, 64, 71
1, 92433, Control_c, 0, 64, 68
1, 92447, Control_c, 0, 64, 66
1, 92462, Control_c, 0, 64, 65
1, 92477, Control_c, 0, 64, 64
1, 92491, Control_c, 0, 64, 63
1, 92506, Control_c, 0, 64, 62
1, 92551, Control_c, 0, 64, 62
1, 92565, Control_c, 0, 64, 61
1, 92580, Control_c, 0, 64, 61
1, 92595, Control_c, 0, 64, 60
1, 92611, Control_c, 0, 64, 60
1, 92626, Control_c, 0, 64, 59
1, 92641, Control_c, 0, 64, 59
1, 92656, Control_c, 0, 64, 58
1, 92685, Control_c, 0, 64, 58
1, 92715, Control_c, 0, 64, 57
1, 92752, Control_c, 0, 64, 57
1, 92782, Control_c, 0, 64, 56
1, 92811, Control_c, 0, 64, 56
1, 92826, Control_c, 0, 64, 55
1, 92856, Control_c, 0, 64, 55
1, 92885, Control_c, 0, 64, 54
1, 92900, Control_c, 0, 64, 54
1, 92974, Control_c, 0, 64, 53
1, 93018, Control_c, 0, 64, 53
1, 93048, Control_c, 0, 64, 52
1, 93108, Control_c, 0, 64, 52
1, 93679, Control_c, 0, 64, 52
1, 93709, Control_c, 0, 64, 53
1, 93738, Control_c, 0, 64, 53
1, 93768, Control_c, 0, 64, 54
1, 93783, Control_c, 0, 64, 54
1, 93798, Control_c, 0, 64, 55
1, 93813, Control_c, 0, 64, 56
1, 93827, Control_c, 0, 64, 57
1, 93842, Control_c, 0, 64, 58
1, 93857, Control_c, 0, 64, 59
1, 93867, Note_on_c, 0, 59, 45
1, 93872, Control_c, 0, 64, 60
1, 93876, Note_on_c, 0, 32, 36
1, 93887, Control_c, 0, 64, 62
1, 93901, Control_c, 0, 64, 63
1, 93908, Poly_aftertouch_c, 0, 44, 127
1, 93916, Control_c, 0, 64, 65
1, 93931, Control_c, 0, 64, 67
1, 93945, Control_c, 0, 64, 69
1, 93960, Control_c, 0, 64, 71
1, 93975, Control_c, 0, 64, 73
1, 93990, Control_c, 0, 64, 74
1, 94005, Control_c, 0, 64, 75
1, 94019, Control_c, 0, 64, 76
1, 94034, Control_c, 0, 64, 77
1, 94049, Control_c, 0, 64, 78
1, 94064, Control_c, 0, 64, 79
1, 94079, Control_c, 0, 64, 79
1, 94093, Control_c, 0, 64, 80
1, 94108, Control_c, 0, 64, 81
1, 94123, Control_c, 0, 64, 82
1, 94138, Control_c, 0, 64, 82
1, 94153, Control_c, 0, 64, 83
1, 94168, Control_c, 0, 64, 83
1, 94183, Control_c, 0, 64, 84
1, 94198, Control_c, 0, 64, 84
1, 94228, Control_c, 0, 64, 85
1, 94265, Control_c, 0, 64, 86
1, 94280, Control_c, 0, 64, 86
1, 94295, Control_c, 0, 64, 87
1, 94310, Control_c, 0, 64, 87
1, 94324, Control_c, 0, 64, 88
1, 94335, Poly_aftertouch_c, 0, 44, 0
1, 94339, Control_c, 0, 64, 88
1, 94354, Control_c, 0, 64, 89
1, 94697, Note_on_c, 0, 58, 59
1, 94723, Note_on_c, 0, 42, 30
1, 94726, Note_on_c, 0, 30, 35
1, 94738, Control_c, 0, 64, 88
1, 94753, Control_c, 0, 64, 86
1, 94767, Control_c, 0, 64, 82
1, 94782, Control_c, 0, 64, 77
1, 94797, Control_c, 0, 64, 70
1, 94812, Control_c, 0, 64, 64
1, 94827, Control_c, 0, 64, 57
1, 94841, Control_c, 0, 64, 52
1, 94847, Note_off_c, 0, 32, 35
1, 94856, Control_c, 0, 64, 52
1, 94871, Control_c, 0, 64, 52
1, 94886, Control_c, 0, 64, 54
1, 94901, Control_c, 0, 64, 55
1, 94916, Control_c, 0, 64, 58
1, 94928, Poly_aftertouch_c, 0, 49, 0
1, 94931, Control_c, 0, 64, 61
1, 94946, Control_c, 0, 64, 65
1, 94960, Control_c, 0, 64, 69
1, 94975, Control_c, 0, 64, 73
1, 94997, Control_c, 0, 64, 77
1, 95007, Note_off_c, 0, 61, 41
1, 95013, Control_c, 0, 64, 79
1, 95017, Note_off_c, 0, 59, 37
1, 95028, Control_c, 0, 64, 82
1, 95043, Control_c, 0, 64, 84
1, 95058, Control_c, 0, 64, 88
1, 95072, Control_c, 0, 64, 91
1, 95087, Control_c, 0, 64, 94
1, 95102, Control_c, 0, 64, 96
1, 95117, Control_c, 0, 64, 98
1, 95132, Control_c, 0, 64, 100
1, 95161, Control_c, 0, 64, 103
1, 95163, Note_off_c, 0, 42, 41
1, 95190, Control_c, 0, 64, 105
1, 95220, Control_c, 0, 64, 107
1, 95235, Control_c, 0, 67, 112
1, 95250, Control_c, 0, 67, 90
1, 95265, Control_c, 0, 67, 69
1, 95280, Control_c, 0, 67, 58
1, 95294, Control_c, 0, 67, 49
1, 95309, Control_c, 0, 67, 0
1, 95551, Note_off_c, 0, 30, 42
1, 95659, Note_on_c, 0, 62, 64
1, 95664, Note_on_c, 0, 57, 54
1, 95685, Note_on_c, 0, 50, 43
1, 95691, Note_on_c, 0, 41, 40
1, 95691, Note_on_c, 0, 29, 45
1, 95709, Control_c, 0, 64, 102
1, 95724, Control_c, 0, 64, 94
1, 95746, Control_c, 0, 64, 84
1, 95761, Control_c, 0, 64, 73
1, 95776, Control_c, 0, 64, 64
1, 95790, Note_off_c, 0, 58, 38
1, 95790, Control_c, 0, 64, 55
1, 95805, Control_c, 0, 64, 51
1, 95821, Control_c, 0, 64, 52
1, 95836, Control_c, 0, 64, 55
1, 95851, Control_c, 0, 64, 59
1, 95866, Control_c, 0, 64, 63
1, 95881, Control_c, 0, 64, 67
1, 95895, Control_c, 0, 64, 72
1, 95910, Control_c, 0, 64, 76
1, 95925, Control_c, 0, 64, 79
1, 95939, Control_c, 0, 64, 81
1, 95954, Control_c, 0, 64, 83
1, 95969, Control_c, 0, 64, 86
1, 95984, Control_c, 0, 64, 88
1, 95999, Control_c, 0, 64, 91
1, 96013, Control_c, 0, 64, 93
1, 96028, Control_c, 0, 64, 96
1, 96043, Control_c, 0, 64, 98
1, 96073, Control_c, 0, 64, 102
1, 96103, Control_c, 0, 64, 105
1, 96132, Control_c, 0, 64, 108
1, 96147, Control_c, 0, 64, 110
1, 96162, Control_c, 0, 64, 112
1, 96192, Control_c, 0, 64, 115
1, 96222, Control_c, 0, 64, 119
1, 96236, Control_c, 0, 64, 122
1, 96251, Control_c, 0, 64, 127
1, 96336, Note_off_c, 0, 62, 57
1, 96353, Note_off_c, 0, 50, 36
1, 96577, Note_off_c, 0, 41, 40
1, 96587, Note_off_c, 0, 29, 41
1, 96735, Note_off_c, 0, 57, 58
1, 96949, Note_on_c, 0, 64, 71
1, 96956, Note_on_c, 0, 59, 57
1, 96970, Note_on_c, 0, 56, 56
1, 96972, Note_on_c, 0, 50, 48
1, 96983, Note_on_c, 0, 28, 50
1, 97006, Note_on_c, 0, 40, 36
1, 97015, Control_c, 0, 64, 108
1, 97029, Control_c, 0, 64, 97
1, 97044, Control_c, 0, 64, 87
1, 97059, Control_c, 0, 64, 78
1, 97074, Control_c, 0, 64, 70
1, 97089, Control_c, 0, 64, 61
1, 97104, Control_c, 0, 64, 55
1, 97119, Control_c, 0, 64, 52
1, 97149, Control_c, 0, 64, 53
1, 97163, Control_c, 0, 64, 54
1, 97178, Control_c, 0, 64, 55
1, 97193, Control_c, 0, 64, 57
1, 97208, Control_c, 0, 64, 59
1, 97223, Control_c, 0, 64, 61
1, 97244, Control_c, 0, 64, 63
1, 97259, Control_c, 0, 64, 64
1, 97274, Control_c, 0, 64, 66
1, 97289, Control_c, 0, 64, 68
1, 97304, Control_c, 0, 64, 71
1, 97319, Control_c, 0, 64, 73
1, 97333, Control_c, 0, 64, 75
1, 97348, Control_c, 0, 64, 77
1, 97363, Control_c, 0, 64, 78
1, 97378, Control_c, 0, 64, 79
1, 97393, Control_c, 0, 64, 81
1, 97408, Control_c, 0, 64, 83
1, 97423, Control_c, 0, 64, 85
1, 97438, Control_c, 0, 64, 87
1, 97453, Control_c, 0, 64, 89
1, 97468, Control_c, 0, 64, 92
1, 97482, Control_c, 0, 64, 94
1, 97497, Control_c, 0, 64, 97
1, 97512, Control_c, 0, 64, 100
1, 97525, Poly_aftertouch_c, 0, 62, 127
1, 97527, Control_c, 0, 64, 103
1, 97542, Control_c, 0, 64, 105
1, 97557, Control_c, 0, 64, 108
1, 97572, Control_c, 0, 64, 112
1, 97586, Control_c, 0, 64, 119
1, 97601, Control_c, 0, 64, 127
1, 97869, Note_off_c, 0, 59, 55
1, 98185, Note_on_c, 0, 58, 50
1, 98631, Control_c, 0, 67, 39
1, 98646, Control_c, 0, 67, 64
1, 98661, Control_c, 0, 67, 92
1, 98676, Control_c, 0, 67, 117
1, 98690, Control_c, 0, 67, 127
1, 98691, Note_off_c, 0, 56, 36
1, 99393, Note_on_c, 0, 55, 40
1, 99454, Control_c, 0, 64, 122
1, 99469, Control_c, 0, 64, 105
1, 99491, Control_c, 0, 64, 95
1, 99506, Control_c, 0, 64, 88
1, 99521, Control_c, 0, 64, 82
1, 99536, Control_c, 0, 64, 76
1, 99551, Control_c, 0, 64, 67
1, 99565, Control_c, 0, 64, 61
1, 99580, Control_c, 0, 64, 57
1, 99595, Control_c, 0, 64, 57
1, 99610, Control_c, 0, 64, 57
1, 99625, Control_c, 0, 64, 58
1, 99639, Control_c, 0, 64, 60
1, 99654, Control_c, 0, 64, 63
1, 99669, Control_c, 0, 64, 65
1, 99683, Control_c, 0, 64, 69
1, 99698, Control_c, 0, 64, 74
1, 99713, Control_c, 0, 64, 77
1, 99728, Control_c, 0, 64, 79
1, 99743, Control_c, 0, 64, 80
1, 99757, Control_c, 0, 64, 82
1, 99772, Control_c, 0, 64, 84
1, 99787, Control_c, 0, 64, 86
1, 99797, Note_off_c, 0, 28, 49
1, 99803, Control_c, 0, 64, 89
1, 99818, Control_c, 0, 64, 92
1, 99833, Control_c, 0, 64, 95
1, 99848, Control_c, 0, 64, 98
1, 99862, Control_c, 0, 64, 101
1, 99877, Control_c, 0, 64, 104
1, 99887, Note_off_c, 0, 50, 34
1, 99892, Control_c, 0, 64, 106
1, 99906, Control_c, 0, 64, 108
1, 99972, Note_off_c, 0, 40, 40
1, 100029, Note_off_c, 0, 64, 51
1, 100163, Poly_aftertouch_c, 0, 62, 0
1, 100271, Note_on_c, 0, 33, 42
1, 100299, Control_c, 0, 64, 105
1, 100314, Control_c, 0, 64, 95
1, 100329, Control_c, 0, 64, 83
1, 100344, Control_c, 0, 64, 73
1, 100359, Control_c, 0, 64, 64
1, 100374, Control_c, 0, 64, 61
1, 100403, Control_c, 0, 64, 62
1, 100418, Control_c, 0, 64, 65
1, 100433, Control_c, 0, 64, 69
1, 100448, Control_c, 0, 64, 75
1, 100462, Control_c, 0, 64, 82
1, 100477, Control_c, 0, 64, 86
1, 100492, Control_c, 0, 64, 89
1, 100506, Control_c, 0, 64, 92
1, 100521, Control_c, 0, 64, 96
1, 100536, Control_c, 0, 64, 101
1, 100542, Note_on_c, 0, 45, 47
1, 100551, Control_c, 0, 64, 107
1, 100566, Control_c, 0, 64, 116
1, 100580, Control_c, 0, 64, 127
1, 100603, Note_off_c, 0, 33, 51
1, 100663, Note_off_c, 0, 58, 35
1, 100699, Note_off_c, 0, 55, 32
1, 100700, Note_off_c, 0, 45, 58
1, 100711, Note_on_c, 0, 49, 36
1, 100848, Control_c, 0, 67, 117
1, 100863, Control_c, 0, 67, 104
1, 100878, Control_c, 0, 67, 90
1, 100893, Control_c, 0, 67, 75
1, 100906, Note_on_c, 0, 55, 43
1, 100908, Control_c, 0, 67, 57
1, 100913, Note_off_c, 0, 49, 37
1, 100922, Control_c, 0, 67, 0
1, 101213, Note_on_c, 0, 57, 48
1, 101741, Note_on_c, 0, 65, 55
1, 101879, Note_off_c, 0, 65, 59
1, 102385, Note_off_c, 0, 55, 32
1, 102424, Note_off_c, 0, 57, 54
1, 103110, Control_c, 0, 64, 90
1, 103116, Note_on_c, 0, 26, 47
1, 103124, Control_c, 0, 64, 71
1, 103139, Control_c, 0, 64, 57
1, 103154, Control_c, 0, 64, 42
1, 103169, Control_c, 0, 64, 37
1, 103184, Control_c, 0, 64, 41
1, 103198, Control_c, 0, 64, 50
1, 103213, Control_c, 0, 64, 62
1, 103236, Control_c, 0, 64, 73
1, 103251, Control_c, 0, 64, 87
1, 103265, Control_c, 0, 64, 103
1, 103280, Control_c, 0, 64, 113
1, 103295, Control_c, 0, 64, 127
1, 103400, Note_off_c, 0, 26, 59
1, 103809, Note_on_c, 0, 66, 62
1, 104066, Note_on_c, 0, 38, 28
1, 104341, Note_on_c, 0, 64, 51
1, 104391, Note_on_c, 0, 57, 50
1, 104404, Note_on_c, 0, 54, 21
1, 104584, Note_off_c, 0, 66, 33
1, 104887, Note_on_c, 0, 66, 55
1, 104938, Note_off_c, 0, 64, 59
1, 105000, Control_c, 0, 64, 122
1, 105015, Control_c, 0, 64, 116
1, 105030, Control_c, 0, 64, 112
1, 105045, Control_c, 0, 64, 108
1, 105059, Control_c, 0, 64, 105
1, 105072, Control_c, 0, 64, 103
1, 105087, Control_c, 0, 64, 100
1, 105102, Control_c, 0, 64, 98
1, 105117, Control_c, 0, 64, 96
1, 105131, Control_c, 0, 64, 94
1, 105146, Control_c, 0, 64, 92
1, 105153, Note_on_c, 0, 62, 52
1, 105161, Control_c, 0, 64, 90
1, 105176, Control_c, 0, 64, 88
1, 105191, Control_c, 0, 64, 86
1, 105206, Control_c, 0, 64, 84
1, 105220, Control_c, 0, 64, 82
1, 105235, Control_c, 0, 64, 81
1, 105235, Control_c, 0, 67, 43
1, 105250, Control_c, 0, 64, 78
1, 105250, Control_c, 0, 67, 53
1, 105265, Control_c, 0, 64, 76
1, 105265, Control_c, 0, 67, 63
1, 105280, Control_c, 0, 64, 74
1, 105280, Control_c, 0, 67, 74
1, 105294, Control_c, 0, 64, 72
1, 105294, Control_c, 0, 67, 88
1, 105309, Control_c, 0, 64, 70
1, 105309, Control_c, 0, 67, 105
1, 105324, Control_c, 0, 64, 68
1, 105324, Control_c, 0, 67, 126
1, 105339, Control_c, 0, 64, 66
1, 105354, Control_c, 0, 64, 66
1, 105368, Control_c, 0, 64, 65
1, 105369, Note_off_c, 0, 66, 33
1, 105383, Control_c, 0, 64, 65
1, 105399, Control_c, 0, 64, 64
1, 105414, Control_c, 0, 64, 64
1, 105429, Control_c, 0, 64, 63
1, 105443, Control_c, 0, 64, 62
1, 105458, Control_c, 0, 64, 60
1, 105480, Control_c, 0, 64, 60
1, 105495, Control_c, 0, 64, 59
1, 105510, Control_c, 0, 64, 59
1, 105525, Control_c, 0, 64, 58
1, 105540, Control_c, 0, 64, 57
1, 105555, Control_c, 0, 64, 56
1, 105570, Control_c, 0, 64, 57
1, 105585, Control_c, 0, 64, 59
1, 105599, Control_c, 0, 64, 62
1, 105614, Control_c, 0, 64, 67
1, 105629, Control_c, 0, 64, 77
1, 105643, Control_c, 0, 64, 90
1, 105658, Control_c, 0, 64, 102
1, 105673, Control_c, 0, 64, 109
1, 105688, Control_c, 0, 64, 117
1, 105703, Control_c, 0, 64, 127
1, 105722, Note_off_c, 0, 62, 60
1, 106081, Note_off_c, 0, 57, 37
1, 106097, Note_on_c, 0, 69, 62
1, 106230, Note_off_c, 0, 69, 60
1, 106350, Note_on_c, 0, 69, 61
1, 106648, Note_off_c, 0, 69, 38
1, 106803, Note_on_c, 0, 71, 63
1, 106867, Note_off_c, 0, 71, 56
1, 106983, Note_on_c, 0, 69, 42
1, 107013, Note_off_c, 0, 69, 57
1, 107030, Note_on_c, 0, 71, 59
1, 107088, Note_on_c, 0, 69, 68
1, 107141, Note_off_c, 0, 71, 32
1, 107354, Note_off_c, 0, 38, 40
1, 107360, Note_off_c, 0, 54, 39
1, 107510, Note_off_c, 0, 69, 60
1, 107510, Note_on_c, 0, 67, 60
1, 107658, Note_on_c, 0, 66, 68
1, 107671, Note_off_c, 0, 67, 59
1, 107805, Note_on_c, 0, 38, 35
1, 108044, Note_on_c, 0, 69, 59
1, 108063, Note_on_c, 0, 64, 53
1, 108083, Control_c, 0, 64, 101
1, 108084, Note_on_c, 0, 54, 28
1, 108097, Note_on_c, 0, 57, 44
1, 108098, Control_c, 0, 64, 87
1, 108113, Control_c, 0, 64, 75
1, 108124, Note_off_c, 0, 66, 60
1, 108127, Control_c, 0, 64, 67
1, 108142, Control_c, 0, 64, 60
1, 108157, Control_c, 0, 64, 55
1, 108187, Control_c, 0, 64, 56
1, 108202, Control_c, 0, 64, 58
1, 108217, Control_c, 0, 64, 61
1, 108232, Control_c, 0, 64, 65
1, 108246, Control_c, 0, 64, 70
1, 108261, Control_c, 0, 64, 78
1, 108276, Control_c, 0, 64, 85
1, 108291, Control_c, 0, 64, 90
1, 108306, Control_c, 0, 64, 94
1, 108320, Control_c, 0, 64, 100
1, 108335, Control_c, 0, 64, 106
1, 108337, Note_off_c, 0, 57, 63
1, 108350, Control_c, 0, 64, 117
1, 108365, Control_c, 0, 64, 127
1, 108369, Note_off_c, 0, 54, 55
1, 108394, Control_c, 0, 67, 111
1, 108409, Control_c, 0, 67, 86
1, 108424, Control_c, 0, 67, 66
1, 108438, Control_c, 0, 67, 47
1, 108453, Control_c, 0, 67, 0
1, 108527, Note_off_c, 0, 38, 40
1, 108542, Note_on_c, 0, 66, 53
1, 108615, Note_off_c, 0, 64, 61
1, 108821, Note_on_c, 0, 62, 56
1, 108908, Note_off_c, 0, 66, 38
1, 109126, Note_on_c, 0, 26, 51
1, 109200, Note_off_c, 0, 69, 56
1, 109302, Note_off_c, 0, 26, 60
1, 109602, Note_on_c, 0, 66, 74
1, 109701, Note_off_c, 0, 62, 39
1, 109725, Note_on_c, 0, 38, 43
1, 109785, Note_off_c, 0, 66, 58
1, 109975, Note_on_c, 0, 66, 69
1, 109976, Note_on_c, 0, 70, 78
1, 110012, Note_on_c, 0, 58, 42
1, 110026, Note_on_c, 0, 54, 30
1, 110509, Note_on_c, 0, 64, 70
1, 110605, Note_off_c, 0, 66, 61
1, 110646, Note_off_c, 0, 64, 63
1, 110790, Note_off_c, 0, 54, 38
1, 110807, Note_on_c, 0, 64, 72
1, 110921, Note_off_c, 0, 38, 37
1, 110955, Note_off_c, 0, 58, 60
1, 111061, Poly_aftertouch_c, 0, 68, 127
1, 111096, Note_off_c, 0, 70, 54
1, 111415, Note_on_c, 0, 61, 76
1, 111562, Note_off_c, 0, 61, 62
1, 111564, Note_on_c, 0, 38, 34
1, 111626, Poly_aftertouch_c, 0, 68, 0
1, 111896, Note_on_c, 0, 62, 55
1, 111896, Note_on_c, 0, 71, 59
1, 111931, Note_on_c, 0, 59, 47
1, 111940, Note_on_c, 0, 54, 32
1, 111946, Control_c, 0, 64, 107
1, 111961, Control_c, 0, 64, 93
1, 111976, Control_c, 0, 64, 82
1, 111991, Control_c, 0, 64, 69
1, 112005, Control_c, 0, 64, 60
1, 112011, Note_off_c, 0, 64, 45
1, 112020, Control_c, 0, 64, 52
1, 112035, Control_c, 0, 64, 49
1, 112050, Control_c, 0, 64, 48
1, 112079, Control_c, 0, 64, 49
1, 112094, Control_c, 0, 64, 52
1, 112109, Control_c, 0, 64, 57
1, 112124, Control_c, 0, 64, 62
1, 112139, Control_c, 0, 64, 67
1, 112153, Control_c, 0, 64, 73
1, 112168, Control_c, 0, 64, 80
1, 112183, Control_c, 0, 64, 85
1, 112198, Control_c, 0, 64, 89
1, 112220, Control_c, 0, 64, 93
1, 112235, Control_c, 0, 64, 95
1, 112235, Control_c, 0, 67, 51
1, 112250, Control_c, 0, 64, 98
1, 112250, Control_c, 0, 67, 79
1, 112265, Control_c, 0, 64, 100
1, 112265, Control_c, 0, 67, 120
1, 112274, Note_off_c, 0, 54, 54
1, 112280, Control_c, 0, 64, 102
1, 112280, Control_c, 0, 67, 127
1, 112309, Control_c, 0, 64, 104
1, 112330, Note_off_c, 0, 59, 52
1, 112368, Note_off_c, 0, 62, 59
1, 112452, Note_off_c, 0, 38, 39
1, 112661, Note_on_c, 0, 61, 40
1, 112795, Note_on_c, 0, 59, 46
1, 112858, Control_c, 0, 64, 102
1, 112918, Control_c, 0, 64, 100
1, 112967, Note_off_c, 0, 61, 36
1, 112970, Control_c, 0, 64, 98
1, 112976, Note_off_c, 0, 71, 38
1, 113014, Control_c, 0, 64, 96
1, 113029, Control_c, 0, 64, 95
1, 113043, Control_c, 0, 64, 95
1, 113058, Control_c, 0, 64, 94
1, 113073, Control_c, 0, 64, 93
1, 113088, Control_c, 0, 64, 90
1, 113103, Control_c, 0, 64, 85
1, 113117, Control_c, 0, 64, 76
1, 113132, Control_c, 0, 64, 67
1, 113136, Note_on_c, 0, 26, 42
1, 113147, Control_c, 0, 64, 59
1, 113162, Control_c, 0, 64, 53
1, 113170, Note_off_c, 0, 59, 38
1, 113177, Control_c, 0, 64, 52
1, 113222, Control_c, 0, 64, 54
1, 113236, Control_c, 0, 64, 56
1, 113251, Control_c, 0, 64, 60
1, 113266, Control_c, 0, 64, 64
1, 113281, Control_c, 0, 64, 69
1, 113296, Control_c, 0, 64, 76
1, 113309, Control_c, 0, 64, 83
1, 113324, Control_c, 0, 64, 88
1, 113339, Control_c, 0, 64, 91
1, 113354, Control_c, 0, 64, 94
1, 113368, Control_c, 0, 64, 97
1, 113385, Control_c, 0, 64, 101
1, 113400, Control_c, 0, 64, 105
1, 113414, Control_c, 0, 64, 110
1, 113429, Control_c, 0, 64, 115
1, 113444, Control_c, 0, 64, 120
1, 113458, Control_c, 0, 64, 127
1, 113460, Note_off_c, 0, 26, 59
1, 113676, Note_on_c, 0, 66, 54
1, 113832, Note_off_c, 0, 66, 49
1, 113845, Note_on_c, 0, 38, 31
1, 114107, Note_on_c, 0, 70, 65
1, 114133, Note_on_c, 0, 66, 38
1, 114168, Note_on_c, 0, 54, 29
1, 114176, Note_on_c, 0, 58, 24
1, 114589, Note_on_c, 0, 64, 41
1, 114644, Note_off_c, 0, 66, 39
1, 114647, Note_off_c, 0, 64, 61
1, 114880, Note_on_c, 0, 64, 45
1, 115084, Note_off_c, 0, 58, 41
1, 115156, Note_off_c, 0, 70, 36
1, 115210, Note_off_c, 0, 38, 31
1, 115210, Note_off_c, 0, 54, 41
1, 115423, Control_c, 0, 64, 122
1, 115452, Control_c, 0, 64, 118
1, 115469, Note_on_c, 0, 61, 36
1, 115482, Control_c, 0, 64, 116
1, 115526, Control_c, 0, 64, 114
1, 115571, Control_c, 0, 64, 112
1, 115601, Control_c, 0, 64, 110
1, 115630, Control_c, 0, 64, 108
1, 115675, Control_c, 0, 64, 105
1, 115676, Note_on_c, 0, 38, 32
1, 115735, Control_c, 0, 64, 103
1, 115754, Note_off_c, 0, 61, 24
1, 115839, Control_c, 0, 64, 101
1, 115965, Note_on_c, 0, 71, 53
1, 115965, Control_c, 0, 64, 99
1, 115979, Control_c, 0, 64, 97
1, 115980, Note_on_c, 0, 62, 36
1, 115994, Control_c, 0, 64, 93
1, 115999, Note_on_c, 0, 59, 34
1, 116009, Control_c, 0, 64, 86
1, 116021, Note_on_c, 0, 54, 25
1, 116024, Control_c, 0, 64, 79
1, 116039, Control_c, 0, 64, 72
1, 116054, Control_c, 0, 64, 66
1, 116068, Control_c, 0, 64, 61
1, 116083, Control_c, 0, 64, 56
1, 116098, Control_c, 0, 64, 55
1, 116143, Control_c, 0, 64, 56
1, 116148, Note_off_c, 0, 64, 8
1, 116158, Control_c, 0, 64, 57
1, 116173, Control_c, 0, 64, 59
1, 116187, Control_c, 0, 64, 62
1, 116202, Control_c, 0, 64, 64
1, 116217, Control_c, 0, 64, 67
1, 116232, Control_c, 0, 64, 71
1, 116247, Control_c, 0, 64, 74
1, 116261, Control_c, 0, 64, 77
1, 116276, Control_c, 0, 64, 78
1, 116291, Control_c, 0, 64, 80
1, 116306, Control_c, 0, 64, 81
1, 116321, Control_c, 0, 64, 82
1, 116335, Control_c, 0, 64, 83
1, 116350, Control_c, 0, 64, 84
1, 116365, Control_c, 0, 64, 85
1, 116369, Note_off_c, 0, 59, 44
1, 116379, Control_c, 0, 64, 86
1, 116394, Control_c, 0, 64, 87
1, 116423, Note_off_c, 0, 62, 41
1, 116424, Control_c, 0, 64, 87
1, 116588, Control_c, 0, 64, 87
1, 116677, Control_c, 0, 64, 86
1, 116684, Note_on_c, 0, 61, 31
1, 116744, Control_c, 0, 64, 86
1, 116788, Control_c, 0, 64, 85
1, 116802, Control_c, 0, 64, 85
1, 116817, Control_c, 0, 64, 84
1, 116832, Control_c, 0, 64, 83
1, 116838, Note_on_c, 0, 59, 35
1, 116847, Control_c, 0, 64, 82
1, 116862, Control_c, 0, 64, 81
1, 116876, Control_c, 0, 64, 80
1, 116891, Control_c, 0, 64, 79
1, 116901, Note_off_c, 0, 61, 40
1, 116906, Control_c, 0, 64, 77
1, 116921, Control_c, 0, 64, 75
1, 116936, Control_c, 0, 64, 74
1, 116951, Control_c, 0, 64, 72
1, 116966, Control_c, 0, 64, 69
1, 116981, Control_c, 0, 64, 66
1, 116995, Control_c, 0, 64, 64
1, 117010, Control_c, 0, 64, 63
1, 117025, Control_c, 0, 64, 62
1, 117055, Control_c, 0, 64, 62
1, 117084, Control_c, 0, 64, 61
1, 117114, Control_c, 0, 64, 61
1, 117124, Note_off_c, 0, 71, 23
1, 117128, Control_c, 0, 64, 60
1, 117173, Control_c, 0, 64, 60
1, 117217, Control_c, 0, 64, 59
1, 117262, Control_c, 0, 64, 58
1, 117276, Control_c, 0, 64, 58
1, 117291, Control_c, 0, 64, 56
1, 117306, Control_c, 0, 64, 55
1, 117321, Control_c, 0, 64, 55
1, 117365, Control_c, 0, 64, 54
1, 117381, Control_c, 0, 64, 54
1, 117411, Control_c, 0, 64, 53
1, 117463, Control_c, 0, 64, 54
1, 117478, Control_c, 0, 64, 54
1, 117493, Control_c, 0, 64, 55
1, 117507, Control_c, 0, 64, 58
1, 117522, Control_c, 0, 64, 60
1, 117537, Control_c, 0, 64, 62
1, 117552, Control_c, 0, 64, 63
1, 117567, Control_c, 0, 64, 63
1, 117578, Note_off_c, 0, 54, 44
1, 117628, Note_off_c, 0, 59, 50
1, 117640, Note_off_c, 0, 38, 39
1, 117655, Control_c, 0, 64, 63
1, 117670, Control_c, 0, 64, 62
1, 117699, Control_c, 0, 64, 62
1, 117729, Control_c, 0, 64, 61
1, 117744, Control_c, 0, 64, 61
1, 117759, Control_c, 0, 64, 60
1, 117788, Control_c, 0, 64, 60
1, 117817, Control_c, 0, 64, 59
1, 117846, Control_c, 0, 64, 59
1, 117876, Control_c, 0, 64, 58
1, 117920, Control_c, 0, 64, 58
1, 117935, Control_c, 0, 64, 57
1, 117979, Control_c, 0, 64, 57
1, 117999, Note_on_c, 0, 57, 33
1, 118009, Control_c, 0, 64, 56
1, 118021, Note_on_c, 0, 45, 33
1, 118054, Control_c, 0, 64, 56
1, 118113, Control_c, 0, 64, 55
1, 118134, Note_off_c, 0, 57, 53
1, 118173, Note_off_c, 0, 45, 34
1, 118291, Note_on_c, 0, 47, 26
1, 118292, Note_on_c, 0, 59, 41
1, 118402, Control_c, 0, 64, 56
1, 118417, Control_c, 0, 64, 56
1, 118432, Control_c, 0, 64, 57
1, 118447, Control_c, 0, 64, 59
1, 118462, Control_c, 0, 64, 61
1, 118477, Control_c, 0, 64, 63
1, 118492, Control_c, 0, 64, 67
1, 118507, Control_c, 0, 64, 71
1, 118521, Control_c, 0, 64, 76
1, 118536, Control_c, 0, 64, 79
1, 118551, Control_c, 0, 64, 81
1, 118566, Control_c, 0, 64, 83
1, 118580, Control_c, 0, 64, 84
1, 118595, Control_c, 0, 64, 86
1, 118610, Control_c, 0, 64, 88
1, 118625, Control_c, 0, 64, 89
1, 118640, Control_c, 0, 64, 90
1, 118654, Control_c, 0, 64, 90
1, 118655, Note_off_c, 0, 59, 58
1, 118669, Control_c, 0, 64, 91
1, 118714, Control_c, 0, 64, 91
1, 119110, Note_off_c, 0, 47, 41
1, 119137, Control_c, 0, 64, 91
1, 119151, Control_c, 0, 64, 88
1, 119165, Note_on_c, 0, 45, 34
1, 119166, Control_c, 0, 64, 84
1, 119181, Control_c, 0, 64, 78
1, 119187, Note_on_c, 0, 38, 38
1, 119196, Control_c, 0, 64, 73
1, 119210, Control_c, 0, 64, 68
1, 119225, Control_c, 0, 64, 64
1, 119240, Control_c, 0, 64, 62
1, 119255, Control_c, 0, 64, 61
1, 119285, Control_c, 0, 64, 62
1, 119300, Control_c, 0, 64, 62
1, 119315, Control_c, 0, 64, 63
1, 119330, Control_c, 0, 64, 65
1, 119345, Control_c, 0, 64, 69
1, 119359, Control_c, 0, 64, 74
1, 119368, Note_off_c, 0, 38, 51
1, 119374, Control_c, 0, 64, 79
1, 119389, Control_c, 0, 64, 84
1, 119404, Control_c, 0, 64, 89
1, 119413, Note_off_c, 0, 45, 62
1, 119419, Control_c, 0, 64, 94
1, 119434, Control_c, 0, 64, 100
1, 119449, Control_c, 0, 64, 109
1, 119464, Control_c, 0, 64, 127
1, 119641, Control_c, 0, 67, 118
1, 119656, Control_c, 0, 67, 81
1, 119670, Control_c, 0, 67, 38
1, 119685, Control_c, 0, 67, 0
1, 119830, Note_on_c, 0, 57, 48
1, 119875, Note_on_c, 0, 61, 33
1, 119883, Note_on_c, 0, 69, 15
1, 119896, Note_on_c, 0, 67, 40
1, 119950, Note_off_c, 0, 61, 58
1, 120174, Note_off_c, 0, 69, 43
1, 120227, Note_on_c, 0, 61, 62
1, 120516, Note_off_c, 0, 67, 44
1, 120647, Note_on_c, 0, 62, 60
1, 120734, Note_off_c, 0, 61, 51
1, 120775, Note_on_c, 0, 64, 64
1, 120799, Note_on_c, 0, 67, 35
1, 120801, Note_on_c, 0, 69, 29
1, 120815, Note_off_c, 0, 62, 59
1, 120848, Note_off_c, 0, 57, 32
1, 120871, Control_c, 0, 64, 117
1, 120886, Control_c, 0, 64, 103
1, 120901, Control_c, 0, 64, 92
1, 120916, Control_c, 0, 64, 83
1, 120930, Control_c, 0, 64, 76
1, 120945, Control_c, 0, 64, 70
1, 120960, Control_c, 0, 64, 64
1, 120975, Control_c, 0, 64, 58
1, 120990, Control_c, 0, 64, 55
1, 121005, Control_c, 0, 64, 54
1, 121037, Note_on_c, 0, 61, 62
1, 121064, Control_c, 0, 64, 55
1, 121079, Control_c, 0, 64, 55
1, 121094, Control_c, 0, 64, 57
1, 121109, Control_c, 0, 64, 59
1, 121123, Control_c, 0, 64, 62
1, 121138, Control_c, 0, 64, 66
1, 121153, Note_off_c, 0, 64, 55
1, 121153, Control_c, 0, 64, 72
1, 121167, Control_c, 0, 64, 78
1, 121182, Control_c, 0, 64, 82
1, 121204, Control_c, 0, 64, 84
1, 121219, Control_c, 0, 64, 88
1, 121234, Control_c, 0, 64, 91
1, 121249, Control_c, 0, 64, 94
1, 121264, Control_c, 0, 64, 95
1, 121273, Note_off_c, 0, 69, 42
1, 121289, Note_off_c, 0, 61, 63
1, 121306, Note_off_c, 0, 67, 52
1, 121308, Control_c, 0, 64, 97
1, 121560, Note_on_c, 0, 57, 62
1, 121574, Note_on_c, 0, 61, 30
1, 121589, Note_on_c, 0, 67, 35
1, 121610, Note_on_c, 0, 69, 9
1, 121620, Control_c, 0, 64, 94
1, 121635, Control_c, 0, 64, 91
1, 121650, Control_c, 0, 64, 87
1, 121665, Control_c, 0, 64, 81
1, 121679, Control_c, 0, 64, 76
1, 121694, Control_c, 0, 64, 68
1, 121709, Control_c, 0, 64, 62
1, 121723, Control_c, 0, 64, 58
1, 121738, Control_c, 0, 64, 56
1, 121768, Control_c, 0, 64, 57
1, 121783, Control_c, 0, 64, 57
1, 121792, Note_off_c, 0, 69, 44
1, 121798, Control_c, 0, 64, 58
1, 121813, Control_c, 0, 64, 59
1, 121828, Control_c, 0, 64, 60
1, 121842, Control_c, 0, 64, 60
1, 121848, Note_off_c, 0, 67, 62
1, 121857, Control_c, 0, 64, 61
1, 121886, Note_on_c, 0, 59, 65
1, 121891, Note_off_c, 0, 61, 64
1, 121953, Control_c, 0, 64, 61
1, 121997, Control_c, 0, 64, 62
1, 122012, Control_c, 0, 64, 63
1, 122012, Control_c, 0, 67, 63
1, 122022, Note_off_c, 0, 57, 56
1, 122027, Control_c, 0, 64, 65
1, 122027, Control_c, 0, 67, 101
1, 122042, Control_c, 0, 64, 67
1, 122042, Control_c, 0, 67, 127
1, 122057, Control_c, 0, 64, 70
1, 122072, Control_c, 0, 64, 73
1, 122087, Control_c, 0, 64, 74
1, 122102, Control_c, 0, 64, 74
1, 122161, Control_c, 0, 64, 75
1, 122206, Control_c, 0, 64, 75
1, 122251, Control_c, 0, 64, 75
1, 122266, Control_c, 0, 64, 73
1, 122281, Control_c, 0, 64, 70
1, 122296, Control_c, 0, 64, 67
1, 122310, Control_c, 0, 64, 64
1, 122325, Control_c, 0, 64, 62
1, 122340, Control_c, 0, 64, 63
1, 122355, Control_c, 0, 64, 63
1, 122370, Control_c, 0, 64, 64
1, 122385, Control_c, 0, 64, 66
1, 122394, Note_on_c, 0, 62, 33
1, 122395, Note_on_c, 0, 67, 38
1, 122396, Note_on_c, 0, 38, 40
1, 122399, Note_on_c, 0, 69, 49
1, 122400, Control_c, 0, 64, 70
1, 122414, Control_c, 0, 64, 75
1, 122429, Control_c, 0, 64, 78
1, 122442, Poly_aftertouch_c, 0, 45, 127
1, 122444, Control_c, 0, 64, 80
1, 122459, Control_c, 0, 64, 81
1, 122474, Control_c, 0, 64, 82
1, 122477, Poly_aftertouch_c, 0, 45, 0
1, 122480, Note_off_c, 0, 38, 51
1, 122488, Control_c, 0, 64, 84
1, 122503, Control_c, 0, 64, 87
1, 122518, Control_c, 0, 64, 90
1, 122533, Control_c, 0, 64, 92
1, 122547, Control_c, 0, 64, 94
1, 122562, Control_c, 0, 64, 95
1, 122592, Control_c, 0, 64, 97
1, 122636, Control_c, 0, 64, 99
1, 122674, Note_on_c, 0, 26, 49
1, 122755, Note_off_c, 0, 26, 58
1, 122761, Note_off_c, 0, 67, 59
1, 122772, Note_off_c, 0, 69, 52
1, 122801, Poly_aftertouch_c, 0, 38, 127
1, 122819, Note_off_c, 0, 62, 40
1, 122844, Poly_aftertouch_c, 0, 38, 0
1, 122925, Note_off_c, 0, 59, 59
1, 123030, Control_c, 0, 64, 97
1, 123059, Control_c, 0, 64, 96
1, 123074, Control_c, 0, 64, 95
1, 123118, Control_c, 0, 64, 95
1, 123178, Control_c, 0, 64, 92
1, 123190, Note_on_c, 0, 57, 66
1, 123193, Control_c, 0, 64, 84
1, 123208, Control_c, 0, 64, 72
1, 123209, Note_on_c, 0, 61, 46
1, 123211, Note_on_c, 0, 67, 40
1, 123211, Note_on_c, 0, 69, 47
1, 123223, Control_c, 0, 64, 59
1, 123237, Control_c, 0, 64, 48
1, 123252, Control_c, 0, 64, 45
1, 123267, Control_c, 0, 64, 48
1, 123282, Control_c, 0, 64, 53
1, 123297, Control_c, 0, 64, 59
1, 123311, Control_c, 0, 64, 63
1, 123326, Control_c, 0, 64, 67
1, 123326, Control_c, 0, 67, 119
1, 123327, Note_off_c, 0, 61, 59
1, 123341, Control_c, 0, 64, 71
1, 123341, Control_c, 0, 67, 79
1, 123356, Control_c, 0, 64, 74
1, 123356, Control_c, 0, 67, 0
1, 123370, Control_c, 0, 64, 75
1, 123385, Control_c, 0, 64, 75
1, 123400, Control_c, 0, 64, 76
1, 123415, Control_c, 0, 64, 78
1, 123430, Control_c, 0, 64, 79
1, 123452, Control_c, 0, 64, 81
1, 123467, Control_c, 0, 64, 82
1, 123482, Control_c, 0, 64, 83
1, 123497, Control_c, 0, 64, 83
1, 123508, Note_on_c, 0, 61, 69
1, 123512, Control_c, 0, 64, 84
1, 123526, Control_c, 0, 64, 85
1, 123556, Control_c, 0, 64, 85
1, 123574, Note_off_c, 0, 69, 34
1, 123585, Control_c, 0, 64, 86
1, 123674, Control_c, 0, 67, 37
1, 123689, Control_c, 0, 67, 86
1, 123703, Control_c, 0, 67, 127
1, 123837, Control_c, 0, 64, 85
1, 123853, Note_off_c, 0, 67, 35
1, 123865, Note_on_c, 0, 62, 68
1, 123866, Control_c, 0, 64, 84
1, 123881, Control_c, 0, 64, 84
1, 123896, Control_c, 0, 64, 83
1, 123911, Control_c, 0, 64, 82
1, 123926, Control_c, 0, 64, 81
1, 123927, Note_off_c, 0, 61, 33
1, 123941, Control_c, 0, 64, 80
1, 123956, Control_c, 0, 64, 79
1, 123971, Control_c, 0, 64, 78
1, 123974, Note_on_c, 0, 64, 67
1, 123985, Control_c, 0, 64, 77
1, 123998, Note_off_c, 0, 62, 60
1, 124000, Control_c, 0, 64, 76
1, 124015, Control_c, 0, 64, 74
1, 124015, Note_on_c, 0, 69, 45
1, 124017, Note_on_c, 0, 67, 36
1, 124020, Note_off_c, 0, 57, 44
1, 124030, Control_c, 0, 64, 73
1, 124045, Control_c, 0, 64, 71
1, 124059, Control_c, 0, 64, 68
1, 124074, Control_c, 0, 64, 66
1, 124082, Note_off_c, 0, 64, 62
1, 124089, Control_c, 0, 64, 63
1, 124099, Note_on_c, 0, 61, 60
1, 124104, Control_c, 0, 64, 61
1, 124118, Control_c, 0, 64, 60
1, 124133, Control_c, 0, 64, 58
1, 124148, Control_c, 0, 64, 58
1, 124150, Note_off_c, 0, 61, 61
1, 124163, Control_c, 0, 64, 57
1, 124176, Note_on_c, 0, 62, 56
1, 124178, Control_c, 0, 64, 57
1, 124200, Control_c, 0, 64, 56
1, 124215, Control_c, 0, 64, 56
1, 124230, Note_on_c, 0, 61, 63
1, 124245, Control_c, 0, 64, 55
1, 124274, Control_c, 0, 64, 55
1, 124285, Note_off_c, 0, 69, 37
1, 124287, Note_off_c, 0, 62, 62
1, 124359, Note_off_c, 0, 61, 63
1, 124380, Note_off_c, 0, 67, 53
1, 124392, Control_c, 0, 64, 55
1, 124461, Note_on_c, 0, 59, 67
1, 124601, Control_c, 0, 64, 56
1, 124602, Note_off_c, 0, 59, 64
1, 124630, Control_c, 0, 64, 56
1, 124660, Control_c, 0, 64, 57
1, 124722, Note_on_c, 0, 57, 61
1, 124731, Note_on_c, 0, 67, 35
1, 124733, Note_on_c, 0, 61, 35
1, 124734, Control_c, 0, 64, 56
1, 124737, Note_on_c, 0, 69, 39
1, 124860, Note_off_c, 0, 57, 64
1, 125040, Note_off_c, 0, 69, 63
1, 125096, Note_on_c, 0, 59, 65
1, 125097, Control_c, 0, 64, 57
1, 125151, Note_off_c, 0, 67, 59
1, 125171, Control_c, 0, 64, 57
1, 125178, Note_off_c, 0, 61, 59
1, 125201, Control_c, 0, 64, 58
1, 125245, Control_c, 0, 64, 58
1, 125275, Control_c, 0, 64, 59
1, 125290, Control_c, 0, 64, 60
1, 125305, Control_c, 0, 64, 62
1, 125320, Control_c, 0, 64, 64
1, 125334, Control_c, 0, 64, 67
1, 125349, Control_c, 0, 64, 72
1, 125365, Control_c, 0, 64, 77
1, 125380, Control_c, 0, 64, 80
1, 125395, Control_c, 0, 64, 82
1, 125410, Control_c, 0, 64, 83
1, 125425, Control_c, 0, 64, 85
1, 125439, Control_c, 0, 64, 87
1, 125454, Control_c, 0, 64, 88
1, 125469, Control_c, 0, 64, 90
1, 125484, Control_c, 0, 64, 91
1, 125499, Control_c, 0, 64, 92
1, 125513, Control_c, 0, 64, 93
1, 125528, Control_c, 0, 64, 93
1, 125543, Control_c, 0, 64, 94
1, 125558, Control_c, 0, 64, 94
1, 125572, Control_c, 0, 64, 95
1, 125587, Control_c, 0, 64, 96
1, 125603, Note_on_c, 0, 67, 48
1, 125610, Note_on_c, 0, 62, 42
1, 125610, Note_on_c, 0, 38, 44
1, 125610, Note_on_c, 0, 69, 51
1, 125646, Control_c, 0, 64, 98
1, 125654, Note_on_c, 0, 45, 26
1, 125721, Note_off_c, 0, 45, 58
1, 125758, Control_c, 0, 64, 100
1, 125777, Note_off_c, 0, 38, 33
1, 125802, Control_c, 0, 64, 103
1, 125832, Control_c, 0, 64, 105
1, 125861, Control_c, 0, 64, 108
1, 125876, Control_c, 0, 64, 110
1, 125890, Control_c, 0, 64, 113
1, 125905, Control_c, 0, 64, 115
1, 125920, Control_c, 0, 64, 119
1, 125927, Note_on_c, 0, 26, 54
1, 125934, Note_on_c, 0, 38, 39
1, 125935, Control_c, 0, 64, 122
1, 125950, Control_c, 0, 64, 127
1, 125992, Note_off_c, 0, 69, 51
1, 125995, Note_off_c, 0, 26, 62
1, 125996, Note_off_c, 0, 67, 60
1, 126019, Note_off_c, 0, 38, 53
1, 126037, Note_off_c, 0, 62, 61
1, 126098, Control_c, 0, 67, 108
1, 126113, Control_c, 0, 67, 76
1, 126128, Control_c, 0, 67, 43
1, 126143, Control_c, 0, 67, 0
1, 126159, Note_off_c, 0, 59, 55
1, 126307, Control_c, 0, 64, 120
1, 126321, Control_c, 0, 64, 114
1, 126336, Control_c, 0, 64, 111
1, 126366, Control_c, 0, 64, 109
1, 126521, Control_c, 0, 64, 99
1, 126524, Note_on_c, 0, 57, 69
1, 126530, Note_on_c, 0, 61, 56
1, 126533, Note_on_c, 0, 67, 56
1, 126536, Control_c, 0, 64, 83
1, 126538, Note_on_c, 0, 69, 43
1, 126551, Control_c, 0, 64, 67
1, 126566, Control_c, 0, 64, 49
1, 126581, Control_c, 0, 64, 0
1, 126655, Control_c, 0, 64, 41
1, 126669, Control_c, 0, 64, 55
1, 126684, Control_c, 0, 64, 63
1, 126699, Control_c, 0, 64, 66
1, 126700, Note_off_c, 0, 61, 56
1, 126713, Control_c, 0, 64, 67
1, 126728, Control_c, 0, 64, 68
1, 126743, Control_c, 0, 64, 71
1, 126758, Control_c, 0, 64, 74
1, 126773, Control_c, 0, 64, 77
1, 126788, Control_c, 0, 64, 79
1, 126803, Control_c, 0, 64, 82
1, 126818, Control_c, 0, 64, 83
1, 126832, Control_c, 0, 64, 85
1, 126847, Control_c, 0, 64, 87
1, 126862, Control_c, 0, 64, 89
1, 126877, Control_c, 0, 64, 90
1, 126877, Note_off_c, 0, 69, 35
1, 126892, Control_c, 0, 64, 92
1, 126902, Note_on_c, 0, 61, 76
1, 126906, Control_c, 0, 64, 93
1, 126921, Control_c, 0, 64, 94
1, 126936, Control_c, 0, 64, 95
1, 126951, Control_c, 0, 64, 96
1, 126996, Control_c, 0, 64, 98
1, 127007, Note_off_c, 0, 67, 51
1, 127359, Note_on_c, 0, 62, 73
1, 127448, Control_c, 0, 64, 96
1, 127463, Control_c, 0, 64, 96
1, 127478, Control_c, 0, 64, 95
1, 127490, Note_on_c, 0, 64, 76
1, 127492, Control_c, 0, 64, 94
1, 127507, Control_c, 0, 64, 94
1, 127522, Control_c, 0, 64, 93
1, 127535, Note_off_c, 0, 61, 35
1, 127536, Control_c, 0, 64, 92
1, 127551, Control_c, 0, 64, 91
1, 127566, Control_c, 0, 64, 90
1, 127581, Control_c, 0, 64, 89
1, 127590, Note_off_c, 0, 62, 53
1, 127596, Control_c, 0, 64, 87
1, 127610, Control_c, 0, 64, 84
1, 127612, Note_off_c, 0, 57, 38
1, 127625, Control_c, 0, 64, 81
1, 127640, Control_c, 0, 64, 76
1, 127655, Control_c, 0, 64, 71
1, 127670, Control_c, 0, 64, 64
1, 127685, Control_c, 0, 64, 57
1, 127700, Control_c, 0, 64, 52
1, 127715, Control_c, 0, 64, 48
1, 127730, Control_c, 0, 64, 46
1, 127744, Control_c, 0, 64, 44
1, 127760, Control_c, 0, 64, 42
1, 127769, Note_on_c, 0, 61, 76
1, 127774, Control_c, 0, 64, 42
1, 127789, Control_c, 0, 64, 42
1, 127804, Control_c, 0, 64, 45
1, 127819, Control_c, 0, 64, 50
1, 127834, Control_c, 0, 64, 56
1, 127849, Control_c, 0, 64, 62
1, 127859, Note_off_c, 0, 64, 56
1, 127864, Control_c, 0, 64, 65
1, 127879, Control_c, 0, 64, 68
1, 127894, Control_c, 0, 64, 70
1, 127908, Control_c, 0, 64, 73
1, 127923, Control_c, 0, 64, 74
1, 127945, Control_c, 0, 64, 75
1, 127959, Control_c, 0, 64, 76
1, 127974, Control_c, 0, 64, 77
1, 127989, Control_c, 0, 64, 78
1, 128004, Control_c, 0, 64, 79
1, 128019, Control_c, 0, 64, 79
1, 128049, Control_c, 0, 64, 80
1, 128068, Note_on_c, 0, 59, 73
1, 128091, Note_off_c, 0, 61, 55
1, 128123, Control_c, 0, 64, 80
1, 128419, Control_c, 0, 64, 79
1, 128421, Note_on_c, 0, 57, 72
1, 128433, Control_c, 0, 64, 75
1, 128442, Note_on_c, 0, 49, 44
1, 128445, Note_on_c, 0, 52, 48
1, 128448, Control_c, 0, 64, 69
1, 128463, Control_c, 0, 64, 61
1, 128478, Control_c, 0, 64, 51
1, 128493, Control_c, 0, 64, 46
1, 128500, Note_off_c, 0, 59, 60
1, 128508, Control_c, 0, 64, 47
1, 128523, Control_c, 0, 64, 51
1, 128538, Control_c, 0, 64, 57
1, 128552, Control_c, 0, 64, 63
1, 128568, Control_c, 0, 64, 69
1, 128582, Control_c, 0, 64, 75
1, 128597, Control_c, 0, 64, 81
1, 128612, Control_c, 0, 64, 84
1, 128627, Control_c, 0, 64, 88
1, 128631, Note_off_c, 0, 52, 36
1, 128642, Control_c, 0, 64, 92
1, 128657, Control_c, 0, 64, 96
1, 128672, Control_c, 0, 64, 100
1, 128694, Control_c, 0, 64, 104
1, 128708, Control_c, 0, 64, 108
1, 128723, Control_c, 0, 64, 111
1, 128738, Control_c, 0, 64, 114
1, 128768, Control_c, 0, 64, 118
1, 128901, Note_off_c, 0, 49, 38
1, 129020, Control_c, 0, 64, 116
1, 129035, Control_c, 0, 64, 114
1, 129043, Note_on_c, 0, 59, 66
1, 129050, Control_c, 0, 64, 110
1, 129064, Control_c, 0, 64, 107
1, 129074, Note_on_c, 0, 47, 30
1, 129074, Note_on_c, 0, 50, 38
1, 129079, Control_c, 0, 64, 102
1, 129080, Note_on_c, 0, 54, 37
1, 129094, Control_c, 0, 64, 96
1, 129108, Control_c, 0, 64, 90
1, 129123, Control_c, 0, 64, 84
1, 129138, Control_c, 0, 64, 78
1, 129150, Note_off_c, 0, 57, 59
1, 129153, Control_c, 0, 64, 73
1, 129168, Control_c, 0, 64, 67
1, 129182, Control_c, 0, 64, 62
1, 129197, Control_c, 0, 64, 58
1, 129212, Control_c, 0, 64, 55
1, 129227, Control_c, 0, 64, 55
1, 129271, Control_c, 0, 64, 54
1, 129286, Control_c, 0, 64, 54
1, 129301, Control_c, 0, 64, 53
1, 129316, Control_c, 0, 64, 53
1, 129345, Control_c, 0, 64, 52
1, 129458, Control_c, 0, 64, 53
1, 129473, Control_c, 0, 64, 53
1, 129487, Control_c, 0, 64, 54
1, 129502, Control_c, 0, 64, 54
1, 129517, Control_c, 0, 64, 55
1, 129532, Control_c, 0, 64, 56
1, 129546, Control_c, 0, 64, 58
1, 129561, Control_c, 0, 64, 61
1, 129576, Control_c, 0, 64, 63
1, 129591, Control_c, 0, 64, 65
1, 129606, Control_c, 0, 64, 67
1, 129620, Control_c, 0, 64, 70
1, 129635, Control_c, 0, 64, 72
1, 129650, Control_c, 0, 64, 75
1, 129665, Control_c, 0, 64, 76
1, 129679, Control_c, 0, 64, 77
1, 129694, Control_c, 0, 64, 78
1, 129709, Control_c, 0, 64, 80
1, 129724, Control_c, 0, 64, 82
1, 129739, Control_c, 0, 64, 84
1, 129754, Control_c, 0, 64, 87
1, 129769, Control_c, 0, 64, 89
1, 129784, Control_c, 0, 64, 92
1, 129798, Control_c, 0, 64, 94
1, 129813, Control_c, 0, 64, 96
1, 129828, Control_c, 0, 64, 98
1, 129843, Control_c, 0, 64, 101
1, 129857, Control_c, 0, 64, 104
1, 129872, Control_c, 0, 64, 107
1, 129887, Control_c, 0, 64, 110
1, 129902, Control_c, 0, 64, 115
1, 129917, Control_c, 0, 64, 122
1, 129931, Control_c, 0, 64, 127
1, 129991, Control_c, 0, 67, 58
1, 130005, Control_c, 0, 67, 92
1, 130020, Control_c, 0, 67, 127
1, 130107, Note_off_c, 0, 47, 40
1, 130116, Note_off_c, 0, 59, 58
1, 130152, Note_off_c, 0, 50, 35
1, 130174, Note_off_c, 0, 54, 56
1, 130736, Note_on_c, 0, 71, 57
1, 130738, Note_on_c, 0, 66, 48
1, 130758, Note_on_c, 0, 59, 36
1, 130766, Note_on_c, 0, 62, 17
1, 130860, Note_off_c, 0, 66, 61
1, 130863, Note_off_c, 0, 59, 58
1, 130891, Note_off_c, 0, 62, 36
1, 130916, Control_c, 0, 64, 124
1, 130954, Control_c, 0, 64, 122
1, 131028, Control_c, 0, 64, 119
1, 131072, Control_c, 0, 64, 117
1, 131101, Note_on_c, 0, 74, 66
1, 131102, Control_c, 0, 64, 112
1, 131116, Control_c, 0, 64, 104
1, 131119, Note_on_c, 0, 59, 44
1, 131119, Note_on_c, 0, 68, 49
1, 131128, Note_on_c, 0, 64, 45
1, 131131, Control_c, 0, 64, 92
1, 131133, Note_on_c, 0, 62, 33
1, 131146, Control_c, 0, 64, 79
1, 131161, Control_c, 0, 64, 68
1, 131176, Control_c, 0, 64, 58
1, 131191, Control_c, 0, 64, 45
1, 131205, Control_c, 0, 64, 39
1, 131212, Note_off_c, 0, 71, 31
1, 131220, Control_c, 0, 64, 39
1, 131235, Control_c, 0, 64, 39
1, 131250, Control_c, 0, 64, 41
1, 131265, Control_c, 0, 64, 44
1, 131280, Control_c, 0, 64, 51
1, 131295, Control_c, 0, 64, 57
1, 131309, Control_c, 0, 64, 62
1, 131324, Control_c, 0, 64, 65
1, 131339, Control_c, 0, 64, 68
1, 131354, Control_c, 0, 64, 71
1, 131369, Control_c, 0, 64, 73
1, 131383, Control_c, 0, 64, 75
1, 131398, Control_c, 0, 64, 76
1, 131413, Control_c, 0, 64, 78
1, 131428, Control_c, 0, 64, 80
1, 131443, Control_c, 0, 64, 82
1, 131457, Control_c, 0, 64, 83
1, 131472, Control_c, 0, 64, 85
1, 131487, Control_c, 0, 64, 87
1, 131501, Control_c, 0, 64, 89
1, 131516, Control_c, 0, 64, 90
1, 131531, Control_c, 0, 64, 91
1, 131546, Control_c, 0, 64, 92
1, 131561, Control_c, 0, 64, 93
1, 131575, Control_c, 0, 64, 94
1, 131605, Control_c, 0, 64, 94
1, 131620, Control_c, 0, 64, 95
1, 131667, Note_off_c, 0, 74, 53
1, 131716, Control_c, 0, 64, 95
1, 131898, Note_off_c, 0, 64, 39
1, 131975, Note_off_c, 0, 62, 42
1, 132026, Note_off_c, 0, 59, 37
1, 132044, Control_c, 0, 64, 95
1, 132127, Note_off_c, 0, 68, 29
1, 132162, Control_c, 0, 64, 94
1, 132251, Control_c, 0, 64, 94
1, 132385, Control_c, 0, 64, 93
1, 132451, Control_c, 0, 64, 93
1, 132526, Control_c, 0, 64, 92
1, 132540, Control_c, 0, 64, 90
1, 132551, Note_on_c, 0, 76, 58
1, 132556, Control_c, 0, 64, 85
1, 132568, Note_on_c, 0, 58, 36
1, 132571, Control_c, 0, 64, 78
1, 132576, Note_on_c, 0, 67, 34
1, 132580, Note_on_c, 0, 64, 30
1, 132586, Control_c, 0, 64, 70
1, 132593, Note_on_c, 0, 62, 28
1, 132600, Control_c, 0, 64, 62
1, 132615, Control_c, 0, 64, 53
1, 132630, Control_c, 0, 64, 49
1, 132645, Control_c, 0, 64, 48
1, 132689, Control_c, 0, 64, 49
1, 132704, Control_c, 0, 64, 51
1, 132719, Control_c, 0, 64, 57
1, 132734, Control_c, 0, 64, 62
1, 132749, Control_c, 0, 64, 66
1, 132763, Control_c, 0, 64, 70
1, 132778, Control_c, 0, 64, 73
1, 132793, Control_c, 0, 64, 75
1, 132808, Control_c, 0, 64, 76
1, 132823, Control_c, 0, 64, 78
1, 132837, Control_c, 0, 64, 79
1, 132852, Control_c, 0, 64, 81
1, 132867, Control_c, 0, 64, 82
1, 132881, Control_c, 0, 64, 83
1, 132883, Note_off_c, 0, 62, 43
1, 132886, Note_off_c, 0, 58, 59
1, 132896, Control_c, 0, 64, 83
1, 132911, Control_c, 0, 64, 84
1, 132926, Control_c, 0, 64, 84
1, 132961, Poly_aftertouch_c, 0, 74, 127
1, 133042, Note_off_c, 0, 64, 42
1, 133149, Note_off_c, 0, 76, 58
1, 133229, Note_on_c, 0, 45, 42
1, 133235, Poly_aftertouch_c, 0, 74, 0
1, 133304, Control_c, 0, 64, 85
1, 133329, Note_off_c, 0, 45, 44
1, 133338, Note_off_c, 0, 67, 41
1, 133364, Control_c, 0, 64, 85
1, 133381, Note_on_c, 0, 55, 42
1, 133393, Control_c, 0, 64, 86
1, 133423, Control_c, 0, 64, 86
1, 133446, Note_on_c, 0, 57, 39
1, 133453, Control_c, 0, 64, 87
1, 133479, Note_off_c, 0, 55, 58
1, 133483, Control_c, 0, 64, 87
1, 133488, Note_off_c, 0, 57, 60
1, 133512, Control_c, 0, 64, 88
1, 133524, Note_on_c, 0, 61, 45
1, 133542, Control_c, 0, 64, 88
1, 133557, Control_c, 0, 64, 89
1, 133577, Note_on_c, 0, 73, 13
1, 133586, Control_c, 0, 64, 89
1, 133594, Note_on_c, 0, 67, 55
1, 133601, Control_c, 0, 64, 90
1, 133616, Control_c, 0, 64, 90
1, 133629, Note_off_c, 0, 61, 52
1, 133631, Control_c, 0, 64, 91
1, 133645, Control_c, 0, 64, 92
1, 133660, Control_c, 0, 64, 92
1, 133666, Note_on_c, 0, 69, 63
1, 133675, Control_c, 0, 64, 93
1, 133690, Control_c, 0, 64, 94
1, 133704, Control_c, 0, 64, 96
1, 133734, Control_c, 0, 64, 100
1, 133749, Control_c, 0, 64, 102
1, 133764, Control_c, 0, 64, 105
1, 133770, Note_on_c, 0, 77, 71
1, 133778, Control_c, 0, 64, 109
1, 133793, Control_c, 0, 64, 116
1, 133808, Control_c, 0, 64, 127
1, 133825, Note_off_c, 0, 77, 63
1, 134008, Control_c, 0, 67, 106
1, 134023, Control_c, 0, 67, 70
1, 134037, Control_c, 0, 67, 0
1, 134142, Note_off_c, 0, 67, 32
1, 134250, Note_off_c, 0, 69, 29
1, 134253, Note_off_c, 0, 73, 1
1, 134393, Note_on_c, 0, 45, 57
1, 134397, Note_on_c, 0, 38, 58
1, 134408, Control_c, 0, 64, 94
1, 134423, Control_c, 0, 64, 78
1, 134438, Control_c, 0, 64, 64
1, 134452, Control_c, 0, 64, 49
1, 134467, Control_c, 0, 64, 43
1, 134482, Control_c, 0, 64, 44
1, 134497, Control_c, 0, 64, 48
1, 134512, Control_c, 0, 64, 55
1, 134526, Control_c, 0, 64, 62
1, 134541, Control_c, 0, 64, 69
1, 134556, Control_c, 0, 64, 78
1, 134568, Note_off_c, 0, 38, 59
1, 134571, Control_c, 0, 64, 84
1, 134586, Control_c, 0, 64, 88
1, 134601, Control_c, 0, 64, 92
1, 134613, Note_off_c, 0, 45, 61
1, 134616, Control_c, 0, 64, 97
1, 134630, Control_c, 0, 64, 105
1, 134645, Control_c, 0, 64, 124
1, 134660, Control_c, 0, 64, 127
1, 134950, Note_on_c, 0, 66, 42
1, 135007, Note_on_c, 0, 62, 41
1, 135019, Note_off_c, 0, 66, 51
1, 135047, Note_on_c, 0, 57, 46
1, 135116, Note_on_c, 0, 90, 81
1, 135117, Note_off_c, 0, 57, 51
1, 135133, Note_on_c, 0, 54, 47
1, 135145, Note_on_c, 0, 78, 47
1, 135178, Note_off_c, 0, 62, 30
1, 135220, Poly_aftertouch_c, 0, 66, 0
1, 135233, Poly_aftertouch_c, 0, 87, 127
1, 135245, Note_off_c, 0, 78, 58
1, 135278, Note_off_c, 0, 90, 62
1, 135282, Poly_aftertouch_c, 0, 87, 0
1, 135459, Note_on_c, 0, 57, 38
1, 135479, Note_on_c, 0, 62, 34
1, 135488, Note_on_c, 0, 66, 30
1, 135524, Note_off_c, 0, 54, 36
1, 135593, Note_on_c, 0, 88, 76
1, 135644, Note_on_c, 0, 81, 41
1, 135655, Note_on_c, 0, 76, 37
1, 135768, Note_off_c, 0, 66, 39
1, 135859, Note_off_c, 0, 88, 57
1, 135868, Note_off_c, 0, 76, 48
1, 135880, Note_off_c, 0, 57, 29
1, 135966, Control_c, 0, 67, 38
1, 135968, Note_off_c, 0, 62, 30
1, 135981, Control_c, 0, 67, 66
1, 135990, Note_on_c, 0, 54, 39
1, 135996, Control_c, 0, 67, 106
1, 136003, Note_on_c, 0, 66, 41
1, 136011, Control_c, 0, 67, 127
1, 136075, Note_on_c, 0, 90, 58
1, 136079, Note_off_c, 0, 66, 58
1, 136106, Note_off_c, 0, 54, 37
1, 136127, Note_on_c, 0, 78, 22
1, 136139, Note_off_c, 0, 90, 65
1, 136173, Note_off_c, 0, 78, 39
1, 136213, Note_on_c, 0, 86, 62
1, 136218, Note_on_c, 0, 57, 39
1, 136227, Note_on_c, 0, 62, 22
1, 136243, Note_on_c, 0, 74, 43
1, 136267, Note_off_c, 0, 62, 44
1, 136276, Note_off_c, 0, 57, 61
1, 136471, Note_off_c, 0, 74, 38
1, 136541, Note_on_c, 0, 38, 57
1, 136541, Note_on_c, 0, 45, 46
1, 136595, Note_off_c, 0, 38, 63
1, 136604, Note_off_c, 0, 45, 60
1, 136649, Note_off_c, 0, 86, 59
1, 136669, Note_off_c, 0, 81, 45
1, 136902, Note_on_c, 0, 66, 48
1, 136968, Note_on_c, 0, 62, 34
1, 136981, Note_on_c, 0, 57, 38
1, 137034, Note_on_c, 0, 93, 74
1, 137045, Note_on_c, 0, 81, 48
1, 137073, Note_off_c, 0, 93, 60
1, 137075, Note_off_c, 0, 81, 64
1, 137087, Note_off_c, 0, 66, 36
1, 137090, Note_off_c, 0, 57, 47
1, 137097, Note_on_c, 0, 54, 50
1, 137150, Note_off_c, 0, 62, 36
1, 137185, Note_on_c, 0, 74, 61
1, 137215, Note_off_c, 0, 74, 65
1, 137220, Note_on_c, 0, 81, 59
1, 137255, Note_off_c, 0, 81, 64
1, 137257, Note_on_c, 0, 86, 65
1, 137291, Note_off_c, 0, 86, 61
1, 137312, Note_off_c, 0, 54, 37
1, 137340, Note_on_c, 0, 81, 55
1, 137361, Note_on_c, 0, 57, 38
1, 137373, Note_on_c, 0, 86, 73
1, 137373, Note_on_c, 0, 66, 35
1, 137379, Note_on_c, 0, 62, 35
1, 137426, Note_on_c, 0, 93, 88
1, 137458, Note_off_c, 0, 66, 54
1, 137527, Note_off_c, 0, 57, 33
1, 137603, Note_off_c, 0, 81, 58
1, 137621, Note_off_c, 0, 62, 39
1, 137644, Note_off_c, 0, 93, 60
1, 137647, Note_on_c, 0, 54, 45
1, 137678, Note_on_c, 0, 66, 48
1, 137712, Note_off_c, 0, 54, 54
1, 137717, Note_off_c, 0, 66, 65
1, 137830, Note_on_c, 0, 62, 46
1, 137841, Note_on_c, 0, 57, 43
1, 137897, Note_off_c, 0, 62, 61
1, 137927, Note_off_c, 0, 57, 63
1, 137944, Note_on_c, 0, 95, 71
1, 137958, Note_off_c, 0, 86, 57
1, 138006, Note_off_c, 0, 95, 58
1, 138051, Note_on_c, 0, 81, 58
1, 138082, Note_on_c, 0, 86, 61
1, 138150, Note_on_c, 0, 45, 40
1, 138151, Note_on_c, 0, 38, 47
1, 138157, Note_on_c, 0, 95, 67
1, 138189, Note_off_c, 0, 38, 59
1, 138194, Note_off_c, 0, 45, 61
1, 138234, Note_on_c, 0, 93, 82
1, 138278, Note_off_c, 0, 95, 62
1, 138286, Note_off_c, 0, 81, 63
1, 138384, Note_off_c, 0, 86, 63
1, 138409, Note_off_c, 0, 93, 61
1, 138435, Note_on_c, 0, 66, 53
1, 138514, Note_on_c, 0, 62, 44
1, 138524, Note_on_c, 0, 57, 46
1, 138563, Note_on_c, 0, 91, 78
1, 138622, Note_off_c, 0, 66, 35
1, 138640, Note_off_c, 0, 57, 53
1, 138656, Note_on_c, 0, 54, 50
1, 138663, Note_off_c, 0, 62, 46
1, 138679, Note_on_c, 0, 90, 82
1, 138685, Note_off_c, 0, 91, 58
1, 138697, Note_on_c, 0, 78, 66
1, 138736, Note_off_c, 0, 78, 53
1, 138797, Note_off_c, 0, 90, 63
1, 138919, Note_on_c, 0, 62, 29
1, 138930, Note_on_c, 0, 57, 39
1, 138936, Note_on_c, 0, 66, 40
1, 139015, Note_off_c, 0, 54, 36
1, 139045, Note_on_c, 0, 88, 71
1, 139069, Note_on_c, 0, 76, 61
1, 139080, Note_on_c, 0, 81, 55
1, 139246, Note_off_c, 0, 88, 62
1, 139249, Note_off_c, 0, 76, 43
1, 139338, Note_on_c, 0, 54, 36
1, 139367, Note_off_c, 0, 66, 0
1, 139403, Poly_aftertouch_c, 0, 66, 127
1, 139412, Note_on_c, 0, 90, 64
1, 139412, Note_off_c, 0, 57, 24
1, 139439, Note_on_c, 0, 78, 49
1, 139452, Note_off_c, 0, 62, 41
1, 139464, Note_off_c, 0, 54, 54
1, 139501, Note_off_c, 0, 90, 63
1, 139503, Note_off_c, 0, 78, 60
1, 139555, Poly_aftertouch_c, 0, 66, 0
1, 139589, Note_on_c, 0, 62, 38
1, 139594, Note_on_c, 0, 57, 35
1, 139671, Note_off_c, 0, 62, 56
1, 139682, Note_on_c, 0, 86, 62
1, 139695, Note_on_c, 0, 74, 43
1, 139696, Note_off_c, 0, 57, 60
1, 139760, Note_off_c, 0, 74, 0
1, 139760, Note_on_c, 0, 74, 23
1, 139939, Control_c, 0, 64, 116
1, 139954, Control_c, 0, 64, 85
1, 139964, Note_on_c, 0, 38, 58
1, 139969, Control_c, 0, 64, 67
1, 139984, Control_c, 0, 64, 57
1, 139999, Control_c, 0, 64, 54
1, 140014, Control_c, 0, 64, 56
1, 140029, Control_c, 0, 64, 61
1, 140044, Control_c, 0, 64, 67
1, 140059, Control_c, 0, 64, 79
1, 140073, Control_c, 0, 64, 108
1, 140077, Note_off_c, 0, 38, 62
1, 140088, Control_c, 0, 64, 127
1, 140121, Note_off_c, 0, 74, 42
1, 140147, Control_c, 0, 67, 111
1, 140154, Note_off_c, 0, 86, 60
1, 140162, Control_c, 0, 67, 88
1, 140177, Control_c, 0, 67, 62
1, 140192, Control_c, 0, 67, 0
1, 140237, Note_off_c, 0, 81, 62
1, 140270, Note_on_c, 0, 66, 55
1, 140353, Note_on_c, 0, 62, 49
1, 140388, Note_on_c, 0, 58, 52
1, 140422, Note_off_c, 0, 66, 0
1, 140440, Note_on_c, 0, 66, 30
1, 140449, Note_on_c, 0, 54, 52
1, 140478, Note_on_c, 0, 90, 77
1, 140488, Note_on_c, 0, 78, 62
1, 140576, Note_off_c, 0, 58, 29
1, 140594, Note_off_c, 0, 66, 35
1, 140611, Note_off_c, 0, 62, 53
1, 140623, Note_off_c, 0, 78, 59
1, 140654, Note_off_c, 0, 90, 63
1, 140691, Poly_aftertouch_c, 0, 87, 0
1, 140748, Note_on_c, 0, 58, 37
1, 140760, Note_on_c, 0, 62, 18
1, 140786, Note_on_c, 0, 66, 37
1, 140801, Note_on_c, 0, 90, 79
1, 140823, Note_on_c, 0, 82, 42
1, 140842, Note_on_c, 0, 78, 50
1, 140897, Note_off_c, 0, 54, 55
1, 140968, Note_off_c, 0, 66, 48
1, 141001, Note_on_c, 0, 87, 26
1, 141033, Note_on_c, 0, 54, 48
1, 141047, Note_off_c, 0, 58, 33
1, 141050, Note_off_c, 0, 87, 49
1, 141051, Note_off_c, 0, 90, 61
1, 141056, Note_off_c, 0, 78, 59
1, 141074, Note_on_c, 0, 66, 27
1, 141236, Note_on_c, 0, 58, 42
1, 141250, Note_on_c, 0, 88, 76
1, 141281, Note_on_c, 0, 76, 49
1, 141358, Note_off_c, 0, 76, 45
1, 141393, Note_off_c, 0, 88, 59
1, 141460, Note_off_c, 0, 66, 41
1, 141523, Note_on_c, 0, 88, 76
1, 141570, Note_on_c, 0, 76, 46
1, 141698, Note_off_c, 0, 58, 36
1, 141709, Note_off_c, 0, 62, 39
1, 141726, Note_off_c, 0, 76, 61
1, 141760, Note_on_c, 0, 66, 28
1, 141806, Note_off_c, 0, 54, 36
1, 141816, Note_on_c, 0, 62, 30
1, 141844, Note_off_c, 0, 88, 50
1, 141859, Note_on_c, 0, 58, 39
1, 141896, Note_off_c, 0, 66, 38
1, 141912, Control_c, 0, 67, 47
1, 141927, Control_c, 0, 67, 66
1, 141942, Control_c, 0, 67, 87
1, 141956, Control_c, 0, 67, 110
1, 141971, Control_c, 0, 67, 127
1, 141974, Note_off_c, 0, 82, 63
1, 141975, Note_on_c, 0, 85, 60
1, 141996, Note_on_c, 0, 54, 33
1, 142017, Note_on_c, 0, 73, 42
1, 142053, Note_off_c, 0, 58, 36
1, 142060, Note_off_c, 0, 73, 62
1, 142080, Note_off_c, 0, 62, 39
1, 142088, Note_off_c, 0, 85, 54
1, 142145, Note_on_c, 0, 74, 53
1, 142217, Note_on_c, 0, 78, 53
1, 142272, Note_on_c, 0, 88, 58
1, 142306, Control_c, 0, 64, 102
1, 142321, Control_c, 0, 64, 82
1, 142336, Control_c, 0, 64, 69
1, 142340, Note_on_c, 0, 86, 68
1, 142350, Control_c, 0, 64, 57
1, 142355, Note_on_c, 0, 59, 32
1, 142358, Note_on_c, 0, 62, 27
1, 142363, Note_on_c, 0, 66, 25
1, 142365, Control_c, 0, 64, 47
1, 142380, Control_c, 0, 64, 44
1, 142395, Control_c, 0, 64, 45
1, 142410, Control_c, 0, 64, 46
1, 142424, Control_c, 0, 64, 50
1, 142439, Control_c, 0, 64, 56
1, 142446, Note_off_c, 0, 54, 44
1, 142454, Control_c, 0, 64, 61
1, 142468, Control_c, 0, 64, 65
1, 142477, Note_off_c, 0, 88, 35
1, 142483, Control_c, 0, 64, 69
1, 142498, Control_c, 0, 64, 73
1, 142512, Control_c, 0, 64, 77
1, 142527, Control_c, 0, 64, 79
1, 142541, Note_off_c, 0, 74, 36
1, 142542, Control_c, 0, 64, 81
1, 142557, Control_c, 0, 64, 83
1, 142572, Control_c, 0, 64, 85
1, 142586, Control_c, 0, 64, 88
1, 142590, Note_off_c, 0, 86, 60
1, 142601, Control_c, 0, 64, 90
1, 142616, Control_c, 0, 64, 92
1, 142631, Control_c, 0, 64, 93
1, 142646, Control_c, 0, 64, 94
1, 142660, Control_c, 0, 64, 95
1, 142675, Control_c, 0, 64, 96
1, 142736, Note_on_c, 0, 54, 39
1, 142764, Note_off_c, 0, 59, 40
1, 142825, Note_off_c, 0, 62, 38
1, 142833, Note_off_c, 0, 66, 41
1, 142845, Note_off_c, 0, 54, 39
1, 142867, Note_on_c, 0, 85, 53
1, 142922, Note_off_c, 0, 85, 56
1, 142962, Poly_aftertouch_c, 0, 73, 0
1, 142981, Poly_aftertouch_c, 0, 73, 0
1, 142991, Note_on_c, 0, 59, 33
1, 142999, Note_on_c, 0, 62, 26
1, 143038, Note_on_c, 0, 83, 57
1, 143053, Note_off_c, 0, 62, 57
1, 143069, Note_on_c, 0, 71, 45
1, 143084, Note_off_c, 0, 59, 62
1, 143335, Control_c, 0, 64, 94
1, 143350, Control_c, 0, 64, 85
1, 143362, Note_on_c, 0, 38, 54
1, 143364, Control_c, 0, 64, 73
1, 143379, Control_c, 0, 64, 62
1, 143389, Note_off_c, 0, 71, 36
1, 143394, Control_c, 0, 64, 52
1, 143408, Control_c, 0, 64, 50
1, 143423, Control_c, 0, 64, 53
1, 143438, Control_c, 0, 64, 61
1, 143453, Control_c, 0, 64, 68
1, 143468, Control_c, 0, 64, 79
1, 143472, Note_off_c, 0, 38, 62
1, 143482, Control_c, 0, 64, 92
1, 143497, Control_c, 0, 64, 101
1, 143512, Control_c, 0, 64, 106
1, 143527, Control_c, 0, 64, 112
1, 143542, Control_c, 0, 64, 122
1, 143556, Control_c, 0, 64, 127
1, 143594, Note_off_c, 0, 83, 58
1, 143695, Note_off_c, 0, 78, 55
1, 143723, Note_on_c, 0, 66, 47
1, 143792, Note_on_c, 0, 62, 39
1, 143794, Note_off_c, 0, 66, 46
1, 143853, Note_on_c, 0, 58, 26
1, 143874, Note_on_c, 0, 78, 77
1, 143883, Note_off_c, 0, 62, 51
1, 143884, Note_on_c, 0, 54, 53
1, 143886, Note_on_c, 0, 90, 63
1, 143905, Note_off_c, 0, 58, 45
1, 144049, Note_off_c, 0, 78, 59
1, 144067, Note_off_c, 0, 90, 56
1, 144139, Note_on_c, 0, 58, 31
1, 144161, Note_on_c, 0, 62, 33
1, 144165, Note_on_c, 0, 66, 40
1, 144228, Note_on_c, 0, 82, 59
1, 144243, Note_on_c, 0, 90, 65
1, 144250, Note_on_c, 0, 78, 68
1, 144250, Note_off_c, 0, 54, 50
1, 144336, Note_off_c, 0, 66, 49
1, 144384, Note_off_c, 0, 58, 39
1, 144476, Note_off_c, 0, 90, 64
1, 144497, Note_on_c, 0, 54, 42
1, 144508, Note_on_c, 0, 66, 34
1, 144596, Note_off_c, 0, 78, 60
1, 144622, Note_off_c, 0, 66, 0
1, 144658, Poly_aftertouch_c, 0, 66, 127
1, 144705, Note_on_c, 0, 58, 34
1, 144735, Note_on_c, 0, 88, 58
1, 144744, Note_on_c, 0, 76, 58
1, 144852, Poly_aftertouch_c, 0, 66, 0
1, 144860, Note_off_c, 0, 76, 57
1, 144868, Note_off_c, 0, 88, 54
1, 144944, Note_off_c, 0, 54, 36
1, 145010, Note_on_c, 0, 88, 49
1, 145025, Note_on_c, 0, 76, 63
1, 145070, Note_off_c, 0, 58, 32
1, 145160, Note_off_c, 0, 62, 40
1, 145286, Note_off_c, 0, 88, 44
1, 145296, Note_off_c, 0, 76, 60
1, 145302, Note_on_c, 0, 66, 24
1, 145341, Note_on_c, 0, 62, 29
1, 145439, Note_on_c, 0, 58, 23
1, 145464, Note_off_c, 0, 66, 41
1, 145529, Note_on_c, 0, 54, 37
1, 145540, Note_on_c, 0, 85, 54
1, 145542, Note_off_c, 0, 58, 34
1, 145549, Note_on_c, 0, 73, 51
1, 145615, Note_off_c, 0, 62, 34
1, 145626, Note_off_c, 0, 82, 59
1, 145655, Control_c, 0, 64, 124
1, 145663, Note_off_c, 0, 73, 62
1, 145692, Note_off_c, 0, 85, 55
1, 145699, Control_c, 0, 64, 122
1, 145753, Note_on_c, 0, 59, 47
1, 145758, Control_c, 0, 64, 118
1, 145760, Note_on_c, 0, 66, 42
1, 145761, Note_on_c, 0, 62, 37
1, 145773, Control_c, 0, 64, 101
1, 145788, Control_c, 0, 64, 86
1, 145803, Control_c, 0, 64, 73
1, 145818, Control_c, 0, 64, 63
1, 145825, Note_on_c, 0, 74, 66
1, 145833, Control_c, 0, 64, 56
1, 145855, Note_off_c, 0, 54, 36
1, 145863, Control_c, 0, 64, 58
1, 145877, Control_c, 0, 64, 61
1, 145892, Control_c, 0, 64, 65
1, 145914, Control_c, 0, 64, 69
1, 145929, Control_c, 0, 64, 74
1, 145943, Control_c, 0, 64, 78
1, 145949, Note_on_c, 0, 88, 61
1, 145958, Control_c, 0, 64, 79
1, 145965, Note_off_c, 0, 74, 50
1, 145973, Control_c, 0, 64, 80
1, 145988, Control_c, 0, 64, 82
1, 146003, Control_c, 0, 64, 83
1, 146016, Note_off_c, 0, 66, 35
1, 146018, Control_c, 0, 64, 84
1, 146027, Note_on_c, 0, 86, 64
1, 146032, Control_c, 0, 64, 86
1, 146047, Note_off_c, 0, 88, 51
1, 146047, Control_c, 0, 64, 87
1, 146062, Control_c, 0, 64, 88
1, 146077, Control_c, 0, 64, 88
1, 146092, Control_c, 0, 64, 89
1, 146096, Note_off_c, 0, 86, 63
1, 146107, Control_c, 0, 64, 90
1, 146122, Control_c, 0, 64, 90
1, 146131, Note_on_c, 0, 73, 66
1, 146137, Control_c, 0, 64, 91
1, 146141, Note_on_c, 0, 54, 40
1, 146151, Note_off_c, 0, 59, 33
1, 146167, Control_c, 0, 64, 91
1, 146173, Note_off_c, 0, 62, 38
1, 146182, Note_on_c, 0, 66, 22
1, 146208, Note_on_c, 0, 86, 54
1, 146265, Note_off_c, 0, 86, 58
1, 146268, Note_on_c, 0, 85, 60
1, 146279, Note_off_c, 0, 73, 62
1, 146283, Note_off_c, 0, 66, 38
1, 146299, Note_off_c, 0, 85, 65
1, 146348, Note_off_c, 0, 54, 36
1, 146372, Note_on_c, 0, 59, 50
1, 146374, Note_on_c, 0, 83, 65
1, 146381, Note_on_c, 0, 71, 57
1, 146384, Note_on_c, 0, 62, 37
1, 146465, Note_off_c, 0, 62, 58
1, 146497, Note_off_c, 0, 59, 60
1, 146707, Control_c, 0, 64, 87
1, 146722, Control_c, 0, 64, 78
1, 146736, Note_on_c, 0, 38, 60
1, 146737, Control_c, 0, 64, 67
1, 146743, Note_on_c, 0, 50, 63
1, 146752, Control_c, 0, 64, 58
1, 146766, Control_c, 0, 64, 54
1, 146781, Control_c, 0, 64, 55
1, 146796, Control_c, 0, 64, 58
1, 146801, Note_off_c, 0, 71, 36
1, 146811, Control_c, 0, 64, 63
1, 146826, Control_c, 0, 64, 70
1, 146840, Control_c, 0, 64, 81
1, 146853, Note_off_c, 0, 38, 62
1, 146855, Control_c, 0, 64, 93
1, 146870, Control_c, 0, 64, 98
1, 146885, Control_c, 0, 64, 102
1, 146900, Control_c, 0, 64, 109
1, 146915, Control_c, 0, 64, 124
1, 146918, Note_off_c, 0, 50, 60
1, 146930, Control_c, 0, 64, 127
1, 146945, Control_c, 0, 67, 100
1, 146960, Control_c, 0, 67, 68
1, 146975, Control_c, 0, 67, 37
1, 146990, Control_c, 0, 67, 0
1, 147148, Note_on_c, 0, 66, 66
1, 147195, Note_on_c, 0, 62, 55
1, 147210, Note_on_c, 0, 57, 58
1, 147278, Note_on_c, 0, 81, 71
1, 147279, Note_on_c, 0, 78, 69
1, 147281, Note_on_c, 0, 69, 67
1, 147296, Note_on_c, 0, 54, 63
1, 147351, Note_off_c, 0, 57, 54
1, 147368, Note_off_c, 0, 83, 51
1, 147384, Note_off_c, 0, 69, 58
1, 147439, Note_off_c, 0, 78, 59
1, 147448, Note_off_c, 0, 81, 62
1, 147493, Note_off_c, 0, 66, 43
1, 147522, Note_off_c, 0, 62, 37
1, 147605, Note_off_c, 0, 54, 36
1, 147736, Note_on_c, 0, 56, 57
1, 147741, Note_on_c, 0, 83, 80
1, 147744, Note_on_c, 0, 66, 61
1, 147749, Note_on_c, 0, 62, 51
1, 147752, Note_on_c, 0, 71, 70
1, 147753, Control_c, 0, 64, 97
1, 147758, Note_on_c, 0, 78, 67
1, 147768, Control_c, 0, 64, 76
1, 147783, Control_c, 0, 64, 61
1, 147798, Control_c, 0, 64, 46
1, 147812, Control_c, 0, 64, 40
1, 147827, Control_c, 0, 64, 41
1, 147842, Control_c, 0, 64, 44
1, 147857, Control_c, 0, 64, 50
1, 147872, Control_c, 0, 64, 58
1, 147887, Control_c, 0, 64, 64
1, 147901, Control_c, 0, 64, 69
1, 147916, Control_c, 0, 64, 73
1, 147931, Control_c, 0, 64, 76
1, 147946, Control_c, 0, 64, 78
1, 147961, Control_c, 0, 64, 79
1, 147976, Control_c, 0, 64, 81
1, 147991, Control_c, 0, 64, 84
1, 148005, Control_c, 0, 64, 86
1, 148014, Note_off_c, 0, 66, 60
1, 148020, Control_c, 0, 64, 89
1, 148035, Control_c, 0, 64, 92
1, 148043, Note_off_c, 0, 56, 59
1, 148050, Control_c, 0, 64, 94
1, 148060, Note_off_c, 0, 62, 53
1, 148065, Control_c, 0, 64, 96
1, 148094, Control_c, 0, 64, 100
1, 148124, Control_c, 0, 64, 104
1, 148138, Note_on_c, 0, 66, 72
1, 148141, Note_on_c, 0, 62, 47
1, 148143, Note_on_c, 0, 54, 71
1, 148161, Control_c, 0, 64, 107
1, 148191, Control_c, 0, 64, 109
1, 148220, Control_c, 0, 64, 111
1, 148243, Note_off_c, 0, 71, 50
1, 148279, Control_c, 0, 64, 114
1, 148292, Note_off_c, 0, 54, 59
1, 148307, Note_off_c, 0, 66, 61
1, 148324, Control_c, 0, 64, 116
1, 148363, Note_off_c, 0, 62, 0
1, 148378, Note_on_c, 0, 62, 51
1, 148383, Control_c, 0, 64, 118
1, 148390, Note_on_c, 0, 56, 75
1, 148395, Note_on_c, 0, 66, 77
1, 148442, Control_c, 0, 64, 120
1, 148452, Note_off_c, 0, 66, 64
1, 148470, Note_off_c, 0, 62, 62
1, 148536, Note_off_c, 0, 56, 59
1, 148770, Control_c, 0, 64, 118
1, 148779, Note_on_c, 0, 85, 81
1, 148784, Control_c, 0, 64, 98
1, 148785, Note_on_c, 0, 73, 82
1, 148788, Note_on_c, 0, 49, 73
1, 148796, Note_on_c, 0, 37, 67
1, 148799, Control_c, 0, 64, 76
1, 148814, Control_c, 0, 64, 58
1, 148829, Control_c, 0, 64, 35
1, 148843, Control_c, 0, 64, 0
1, 148858, Control_c, 0, 64, 32
1, 148873, Control_c, 0, 64, 41
1, 148888, Control_c, 0, 64, 56
1, 148910, Control_c, 0, 64, 68
1, 148925, Control_c, 0, 64, 78
1, 148940, Control_c, 0, 64, 86
1, 148954, Control_c, 0, 64, 89
1, 148969, Control_c, 0, 64, 92
1, 148984, Control_c, 0, 64, 96
1, 148987, Note_off_c, 0, 85, 58
1, 148999, Control_c, 0, 64, 101
1, 149003, Note_off_c, 0, 37, 56
1, 149004, Note_off_c, 0, 83, 59
1, 149014, Control_c, 0, 64, 105
1, 149024, Note_off_c, 0, 73, 57
1, 149028, Control_c, 0, 64, 108
1, 149043, Control_c, 0, 64, 110
1, 149049, Note_off_c, 0, 78, 56
1, 149073, Control_c, 0, 64, 113
1, 149095, Note_off_c, 0, 49, 57
1, 149300, Note_on_c, 0, 73, 76
1, 149309, Note_on_c, 0, 61, 64
1, 149320, Note_on_c, 0, 70, 58
1, 149326, Note_on_c, 0, 49, 49
1, 149327, Note_on_c, 0, 58, 57
1, 149340, Control_c, 0, 64, 95
1, 149355, Control_c, 0, 64, 74
1, 149369, Control_c, 0, 64, 61
1, 149384, Control_c, 0, 64, 53
1, 149399, Control_c, 0, 64, 54
1, 149414, Control_c, 0, 64, 57
1, 149429, Control_c, 0, 64, 63
1, 149443, Control_c, 0, 64, 71
1, 149456, Note_off_c, 0, 61, 62
1, 149458, Control_c, 0, 64, 82
1, 149473, Control_c, 0, 64, 86
1, 149488, Control_c, 0, 64, 87
1, 149503, Control_c, 0, 64, 87
1, 149518, Control_c, 0, 64, 88
1, 149547, Control_c, 0, 64, 88
1, 149573, Note_on_c, 0, 65, 80
1, 149592, Control_c, 0, 64, 89
1, 149730, Note_off_c, 0, 58, 61
1, 149733, Note_off_c, 0, 49, 57
1, 149745, Note_off_c, 0, 70, 55
1, 149770, Note_off_c, 0, 73, 52
1, 149895, Note_on_c, 0, 66, 75
1, 149940, Note_off_c, 0, 65, 57
1, 149997, Note_on_c, 0, 73, 74
1, 150014, Control_c, 0, 64, 88
1, 150018, Note_on_c, 0, 68, 72
1, 150026, Note_on_c, 0, 56, 49
1, 150027, Note_on_c, 0, 59, 53
1, 150029, Control_c, 0, 64, 86
1, 150032, Note_on_c, 0, 49, 48
1, 150044, Control_c, 0, 64, 78
1, 150058, Control_c, 0, 64, 66
1, 150068, Note_off_c, 0, 66, 57
1, 150073, Control_c, 0, 64, 45
1, 150088, Control_c, 0, 64, 0
1, 150148, Control_c, 0, 64, 41
1, 150163, Control_c, 0, 64, 56
1, 150178, Control_c, 0, 64, 65
1, 150192, Control_c, 0, 64, 67
1, 150207, Control_c, 0, 64, 69
1, 150222, Control_c, 0, 64, 70
1, 150237, Control_c, 0, 64, 72
1, 150244, Note_on_c, 0, 65, 70
1, 150252, Control_c, 0, 64, 75
1, 150266, Control_c, 0, 64, 78
1, 150281, Control_c, 0, 64, 80
1, 150296, Control_c, 0, 64, 82
1, 150311, Control_c, 0, 64, 84
1, 150326, Control_c, 0, 64, 85
1, 150341, Control_c, 0, 64, 86
1, 150355, Control_c, 0, 64, 87
1, 150370, Control_c, 0, 64, 87
1, 150385, Control_c, 0, 64, 88
1, 150392, Note_off_c, 0, 49, 52
1, 150392, Note_off_c, 0, 68, 51
1, 150422, Note_off_c, 0, 59, 54
1, 150422, Note_off_c, 0, 65, 60
1, 150422, Control_c, 0, 64, 88
1, 150432, Poly_aftertouch_c, 0, 66, 127
1, 150439, Note_off_c, 0, 73, 49
1, 150483, Poly_aftertouch_c, 0, 66, 0
1, 150483, Note_off_c, 0, 56, 55
1, 150663, Note_on_c, 0, 61, 65
1, 150663, Note_on_c, 0, 73, 56
1, 150670, Note_on_c, 0, 71, 53
1, 150670, Note_on_c, 0, 49, 43
1, 150671, Note_on_c, 0, 68, 49
1, 150674, Control_c, 0, 64, 88
1, 150677, Note_on_c, 0, 56, 39
1, 150687, Note_on_c, 0, 59, 33
1, 150689, Control_c, 0, 64, 82
1, 150704, Control_c, 0, 64, 71
1, 150718, Control_c, 0, 64, 58
1, 150733, Control_c, 0, 64, 36
1, 150748, Control_c, 0, 64, 0
1, 150778, Control_c, 0, 64, 31
1, 150793, Control_c, 0, 64, 42
1, 150807, Control_c, 0, 64, 54
1, 150822, Control_c, 0, 64, 63
1, 150837, Control_c, 0, 64, 67
1, 150852, Control_c, 0, 64, 69
1, 150867, Control_c, 0, 64, 70
1, 150881, Control_c, 0, 64, 71
1, 150896, Control_c, 0, 64, 73
1, 150911, Control_c, 0, 64, 74
1, 150924, Note_on_c, 0, 63, 68
1, 150927, Control_c, 0, 64, 75
1, 150942, Control_c, 0, 64, 76
1, 150957, Control_c, 0, 64, 77
1, 150959, Note_off_c, 0, 68, 53
1, 150971, Control_c, 0, 64, 77
1, 150986, Control_c, 0, 64, 78
1, 150996, Note_off_c, 0, 59, 40
1, 151001, Control_c, 0, 64, 78
1, 151042, Note_off_c, 0, 73, 38
1, 151043, Note_off_c, 0, 56, 61
1, 151057, Note_off_c, 0, 71, 28
1, 151060, Control_c, 0, 64, 79
1, 151079, Note_off_c, 0, 61, 39
1, 151083, Note_off_c, 0, 49, 60
1, 151230, Control_c, 0, 64, 78
1, 151332, Note_on_c, 0, 49, 43
1, 151341, Note_on_c, 0, 41, 45
1, 151348, Control_c, 0, 64, 78
1, 151350, Note_on_c, 0, 73, 56
1, 151363, Control_c, 0, 64, 76
1, 151366, Note_on_c, 0, 68, 47
1, 151373, Note_on_c, 0, 71, 41
1, 151378, Control_c, 0, 64, 73
1, 151393, Control_c, 0, 64, 66
1, 151408, Control_c, 0, 64, 58
1, 151422, Control_c, 0, 64, 45
1, 151437, Control_c, 0, 64, 30
1, 151452, Control_c, 0, 64, 0
1, 151512, Control_c, 0, 64, 32
1, 151527, Control_c, 0, 64, 40
1, 151542, Control_c, 0, 64, 51
1, 151556, Control_c, 0, 64, 60
1, 151571, Control_c, 0, 64, 64
1, 151586, Control_c, 0, 64, 66
1, 151601, Control_c, 0, 64, 67
1, 151610, Note_on_c, 0, 42, 63
1, 151616, Control_c, 0, 64, 69
1, 151631, Control_c, 0, 64, 71
1, 151645, Control_c, 0, 64, 73
1, 151646, Note_off_c, 0, 41, 62
1, 151660, Control_c, 0, 64, 75
1, 151675, Control_c, 0, 64, 77
1, 151690, Control_c, 0, 64, 78
1, 151705, Control_c, 0, 64, 80
1, 151720, Control_c, 0, 64, 81
1, 151735, Control_c, 0, 64, 81
1, 151750, Control_c, 0, 64, 82
1, 151780, Control_c, 0, 64, 83
1, 151795, Note_off_c, 0, 42, 62
1, 151816, Note_off_c, 0, 63, 57
1, 151833, Note_off_c, 0, 71, 30
1, 151837, Note_off_c, 0, 49, 57
1, 151859, Note_off_c, 0, 68, 56
1, 151907, Note_off_c, 0, 73, 61
1, 151950, Control_c, 0, 64, 83
1, 151967, Note_on_c, 0, 49, 66
1, 152024, Control_c, 0, 64, 83
1, 152039, Control_c, 0, 64, 78
1, 152054, Control_c, 0, 64, 68
1, 152061, Note_on_c, 0, 73, 72
1, 152066, Note_on_c, 0, 58, 60
1, 152069, Control_c, 0, 64, 54
1, 152071, Note_on_c, 0, 61, 64
1, 152074, Note_on_c, 0, 70, 57
1, 152084, Control_c, 0, 64, 39
1, 152099, Control_c, 0, 64, 37
1, 152111, Poly_aftertouch_c, 0, 56, 127
1, 152113, Control_c, 0, 64, 42
1, 152128, Control_c, 0, 64, 53
1, 152143, Control_c, 0, 64, 64
1, 152152, Poly_aftertouch_c, 0, 56, 0
1, 152158, Control_c, 0, 64, 71
1, 152160, Note_off_c, 0, 61, 62
1, 152172, Control_c, 0, 64, 77
1, 152187, Control_c, 0, 64, 78
1, 152202, Control_c, 0, 64, 79
1, 152217, Control_c, 0, 64, 80
1, 152232, Control_c, 0, 64, 80
1, 152246, Control_c, 0, 64, 81
1, 152285, Note_on_c, 0, 65, 78
1, 152301, Note_off_c, 0, 70, 59
1, 152382, Note_off_c, 0, 49, 52
1, 152392, Note_off_c, 0, 58, 64
1, 152392, Poly_aftertouch_c, 0, 56, 127
1, 152405, Note_off_c, 0, 73, 35
1, 152498, Poly_aftertouch_c, 0, 56, 0
1, 152588, Control_c, 0, 64, 80
1, 152618, Note_on_c, 0, 66, 63
1, 152655, Control_c, 0, 64, 80
1, 152664, Note_off_c, 0, 65, 60
1, 152684, Control_c, 0, 64, 79
1, 152699, Control_c, 0, 64, 79
1, 152709, Note_on_c, 0, 73, 59
1, 152712, Note_on_c, 0, 56, 43
1, 152723, Note_on_c, 0, 68, 61
1, 152726, Note_on_c, 0, 49, 46
1, 152728, Note_on_c, 0, 59, 47
1, 152729, Control_c, 0, 64, 78
1, 152732, Note_off_c, 0, 66, 57
1, 152744, Control_c, 0, 64, 77
1, 152758, Control_c, 0, 64, 76
1, 152773, Control_c, 0, 64, 75
1, 152788, Control_c, 0, 64, 73
1, 152790, Note_on_c, 0, 65, 58
1, 152802, Control_c, 0, 64, 70
1, 152817, Control_c, 0, 64, 65
1, 152832, Control_c, 0, 64, 59
1, 152842, Note_off_c, 0, 65, 55
1, 152847, Control_c, 0, 64, 53
1, 152853, Note_on_c, 0, 66, 62
1, 152862, Control_c, 0, 64, 49
1, 152877, Control_c, 0, 64, 48
1, 152892, Control_c, 0, 64, 45
1, 152906, Control_c, 0, 64, 42
1, 152909, Note_off_c, 0, 68, 33
1, 152918, Note_on_c, 0, 65, 54
1, 152921, Control_c, 0, 64, 35
1, 152936, Control_c, 0, 64, 0
1, 152939, Note_off_c, 0, 66, 59
1, 152997, Note_off_c, 0, 49, 55
1, 153006, Note_off_c, 0, 59, 57
1, 153011, Note_off_c, 0, 73, 20
1, 153052, Note_off_c, 0, 65, 60
1, 153081, Note_off_c, 0, 56, 56
1, 153131, Note_on_c, 0, 63, 63
1, 153240, Note_off_c, 0, 63, 64
1, 153306, Control_c, 0, 64, 31
1, 153321, Control_c, 0, 64, 41
1, 153336, Control_c, 0, 64, 48
1, 153351, Control_c, 0, 64, 51
1, 153365, Control_c, 0, 64, 52
1, 153372, Note_on_c, 0, 73, 54
1, 153380, Control_c, 0, 64, 53
1, 153385, Note_on_c, 0, 65, 48
1, 153387, Note_on_c, 0, 71, 48
1, 153389, Note_on_c, 0, 61, 48
1, 153401, Note_on_c, 0, 59, 38
1, 153403, Control_c, 0, 64, 56
1, 153405, Note_on_c, 0, 53, 27
1, 153414, Note_on_c, 0, 49, 35
1, 153418, Control_c, 0, 64, 59
1, 153432, Control_c, 0, 64, 62
1, 153447, Control_c, 0, 64, 63
1, 153462, Control_c, 0, 64, 65
1, 153477, Control_c, 0, 64, 65
1, 153492, Control_c, 0, 64, 66
1, 153502, Note_off_c, 0, 61, 61
1, 153506, Control_c, 0, 64, 67
1, 153521, Control_c, 0, 64, 68
1, 153536, Control_c, 0, 64, 68
1, 153551, Note_off_c, 0, 65, 61
1, 153555, Note_off_c, 0, 71, 54
1, 153601, Note_off_c, 0, 73, 39
1, 153684, Control_c, 0, 64, 67
1, 153699, Control_c, 0, 64, 65
1, 153714, Control_c, 0, 64, 61
1, 153729, Control_c, 0, 64, 53
1, 153743, Control_c, 0, 64, 41
1, 153758, Control_c, 0, 64, 30
1, 153773, Control_c, 0, 64, 0
1, 153795, Note_on_c, 0, 63, 61
1, 153804, Note_off_c, 0, 59, 37
1, 153815, Note_off_c, 0, 49, 37
1, 153855, Note_off_c, 0, 53, 41
1, 154551, Note_on_c, 0, 66, 28
1, 154557, Note_on_c, 0, 73, 26
1, 154563, Note_on_c, 0, 71, 33
1, 154573, Note_on_c, 0, 59, 4
1, 154589, Note_on_c, 0, 54, 16
1, 154617, Poly_aftertouch_c, 0, 49, 127
1, 154621, Note_on_c, 0, 49, 3
1, 154760, Control_c, 0, 64, 41
1, 154774, Control_c, 0, 64, 53
1, 154789, Control_c, 0, 64, 60
1, 154804, Control_c, 0, 64, 63
1, 154819, Control_c, 0, 64, 64
1, 154834, Control_c, 0, 64, 65
1, 154848, Control_c, 0, 64, 67
1, 154863, Control_c, 0, 64, 70
1, 154878, Control_c, 0, 64, 73
1, 154900, Control_c, 0, 64, 76
1, 154916, Control_c, 0, 64, 78
1, 154931, Control_c, 0, 64, 80
1, 154931, Control_c, 0, 67, 61
1, 154945, Control_c, 0, 64, 82
1, 154945, Control_c, 0, 67, 105
1, 154960, Control_c, 0, 64, 84
1, 154960, Control_c, 0, 67, 127
1, 154975, Control_c, 0, 64, 86
1, 154990, Control_c, 0, 64, 87
1, 155005, Control_c, 0, 64, 88
1, 155020, Control_c, 0, 64, 89
1, 155035, Control_c, 0, 64, 90
1, 155050, Control_c, 0, 64, 91
1, 155052, Note_off_c, 0, 49, 31
1, 155064, Control_c, 0, 64, 91
1, 155079, Control_c, 0, 64, 92
1, 155121, Note_off_c, 0, 63, 34
1, 155124, Control_c, 0, 64, 92
1, 155154, Note_off_c, 0, 59, 41
1, 155183, Control_c, 0, 64, 93
1, 155194, Note_off_c, 0, 54, 37
1, 155223, Note_off_c, 0, 73, 28
1, 155332, Note_on_c, 0, 49, 34
1, 155419, Control_c, 0, 64, 92
1, 155449, Note_on_c, 0, 53, 19
1, 155523, Note_on_c, 0, 73, 48
1, 155538, Control_c, 0, 64, 92
1, 155539, Note_on_c, 0, 59, 30
1, 155545, Note_on_c, 0, 61, 46
1, 155553, Control_c, 0, 64, 91
1, 155559, Note_off_c, 0, 66, 41
1, 155564, Note_on_c, 0, 68, 43
1, 155568, Control_c, 0, 64, 87
1, 155583, Control_c, 0, 64, 79
1, 155597, Control_c, 0, 64, 70
1, 155612, Control_c, 0, 64, 62
1, 155627, Control_c, 0, 64, 54
1, 155649, Control_c, 0, 64, 52
1, 155664, Control_c, 0, 64, 53
1, 155679, Control_c, 0, 64, 56
1, 155694, Control_c, 0, 64, 60
1, 155708, Control_c, 0, 64, 64
1, 155724, Control_c, 0, 64, 66
1, 155739, Control_c, 0, 64, 69
1, 155753, Control_c, 0, 64, 71
1, 155768, Control_c, 0, 64, 73
1, 155783, Control_c, 0, 64, 74
1, 155798, Control_c, 0, 64, 74
1, 155813, Control_c, 0, 64, 75
1, 155843, Control_c, 0, 64, 75
1, 155858, Note_on_c, 0, 65, 55
1, 155887, Control_c, 0, 64, 76
1, 155896, Note_off_c, 0, 71, 37
1, 155932, Control_c, 0, 64, 76
1, 155934, Note_off_c, 0, 68, 50
1, 155950, Note_off_c, 0, 73, 34
1, 156002, Note_off_c, 0, 61, 57
1, 156179, Note_off_c, 0, 59, 43
1, 156257, Note_on_c, 0, 66, 62
1, 156300, Control_c, 0, 64, 76
1, 156320, Note_off_c, 0, 65, 49
1, 156359, Control_c, 0, 64, 75
1, 156398, Note_on_c, 0, 68, 64
1, 156402, Note_off_c, 0, 53, 37
1, 156412, Control_c, 0, 64, 75
1, 156426, Control_c, 0, 64, 74
1, 156431, Note_off_c, 0, 49, 32
1, 156441, Control_c, 0, 64, 74
1, 156448, Note_off_c, 0, 66, 56
1, 156456, Control_c, 0, 64, 73
1, 156471, Control_c, 0, 64, 72
1, 156486, Control_c, 0, 64, 71
1, 156500, Control_c, 0, 64, 68
1, 156516, Control_c, 0, 64, 65
1, 156531, Control_c, 0, 64, 61
1, 156546, Control_c, 0, 64, 57
1, 156561, Control_c, 0, 64, 54
1, 156575, Control_c, 0, 64, 53
1, 156590, Control_c, 0, 64, 53
1, 156605, Control_c, 0, 64, 52
1, 156620, Control_c, 0, 64, 51
1, 156635, Control_c, 0, 64, 50
1, 156649, Control_c, 0, 64, 48
1, 156664, Control_c, 0, 64, 47
1, 156679, Control_c, 0, 64, 46
1, 156685, Note_on_c, 0, 65, 52
1, 156694, Control_c, 0, 64, 46
1, 156722, Note_off_c, 0, 68, 57
1, 156723, Control_c, 0, 64, 47
1, 156738, Control_c, 0, 64, 49
1, 156753, Control_c, 0, 64, 53
1, 156767, Control_c, 0, 64, 58
1, 156782, Control_c, 0, 64, 62
1, 156797, Control_c, 0, 64, 66
1, 156812, Control_c, 0, 64, 68
1, 156827, Control_c, 0, 64, 71
1, 156841, Control_c, 0, 64, 72
1, 156856, Control_c, 0, 64, 73
1, 156871, Control_c, 0, 64, 74
1, 156886, Control_c, 0, 64, 74
1, 156901, Control_c, 0, 64, 75
1, 156973, Note_off_c, 0, 65, 58
1, 156975, Note_on_c, 0, 66, 16
1, 156980, Note_on_c, 0, 63, 61
1, 157048, Note_off_c, 0, 66, 42
1, 157335, Note_on_c, 0, 61, 56
1, 157339, Control_c, 0, 64, 72
1, 157345, Note_on_c, 0, 53, 39
1, 157348, Note_on_c, 0, 49, 39
1, 157354, Control_c, 0, 64, 66
1, 157360, Note_on_c, 0, 56, 43
1, 157366, Note_off_c, 0, 63, 37
1, 157369, Control_c, 0, 64, 56
1, 157384, Control_c, 0, 64, 45
1, 157398, Control_c, 0, 64, 37
1, 157413, Control_c, 0, 64, 36
1, 157428, Control_c, 0, 64, 40
1, 157443, Control_c, 0, 64, 46
1, 157458, Control_c, 0, 64, 54
1, 157472, Control_c, 0, 64, 62
1, 157487, Control_c, 0, 64, 67
1, 157502, Control_c, 0, 64, 70
1, 157510, Note_off_c, 0, 61, 58
1, 157516, Control_c, 0, 64, 72
1, 157531, Control_c, 0, 64, 72
1, 157546, Control_c, 0, 64, 73
1, 157561, Control_c, 0, 64, 74
1, 157576, Control_c, 0, 64, 74
1, 157605, Control_c, 0, 64, 75
1, 157783, Control_c, 0, 64, 74
1, 157828, Control_c, 0, 64, 74
1, 157843, Control_c, 0, 64, 73
1, 157854, Note_on_c, 0, 63, 57
1, 157858, Control_c, 0, 64, 72
1, 157863, Note_on_c, 0, 59, 47
1, 157872, Control_c, 0, 64, 69
1, 157874, Note_off_c, 0, 56, 60
1, 157879, Note_on_c, 0, 54, 29
1, 157894, Control_c, 0, 64, 66
1, 157909, Control_c, 0, 64, 61
1, 157914, Note_on_c, 0, 47, 27
1, 157923, Control_c, 0, 64, 55
1, 157938, Control_c, 0, 64, 51
1, 157953, Control_c, 0, 64, 49
1, 157968, Control_c, 0, 64, 49
1, 157983, Control_c, 0, 64, 48
1, 157991, Note_off_c, 0, 49, 38
1, 157994, Note_off_c, 0, 53, 19
1, 158102, Control_c, 0, 64, 49
1, 158117, Control_c, 0, 64, 49
1, 158132, Control_c, 0, 64, 51
1, 158147, Control_c, 0, 64, 52
1, 158162, Control_c, 0, 64, 55
1, 158177, Control_c, 0, 64, 57
1, 158192, Control_c, 0, 64, 60
1, 158206, Control_c, 0, 64, 62
1, 158221, Control_c, 0, 64, 64
1, 158236, Control_c, 0, 64, 67
1, 158251, Control_c, 0, 64, 69
1, 158266, Control_c, 0, 64, 71
1, 158281, Control_c, 0, 64, 73
1, 158296, Control_c, 0, 64, 74
1, 158311, Control_c, 0, 64, 76
1, 158326, Control_c, 0, 64, 77
1, 158340, Control_c, 0, 64, 79
1, 158355, Control_c, 0, 64, 81
1, 158370, Control_c, 0, 64, 82
1, 158385, Control_c, 0, 64, 84
1, 158400, Control_c, 0, 64, 85
1, 158414, Control_c, 0, 64, 86
1, 158429, Control_c, 0, 64, 87
1, 158444, Control_c, 0, 64, 88
1, 158459, Control_c, 0, 64, 89
1, 158474, Control_c, 0, 64, 89
1, 158488, Control_c, 0, 64, 90
1, 158503, Control_c, 0, 64, 90
1, 158518, Control_c, 0, 64, 91
1, 158532, Control_c, 0, 64, 91
1, 158547, Control_c, 0, 64, 92
1, 158562, Control_c, 0, 64, 92
1, 158577, Control_c, 0, 64, 93
1, 158606, Control_c, 0, 64, 93
1, 158621, Control_c, 0, 64, 94
1, 158659, Control_c, 0, 64, 94
1, 158674, Control_c, 0, 64, 95
1, 158703, Control_c, 0, 64, 95
1, 158718, Control_c, 0, 64, 96
1, 158784, Note_off_c, 0, 47, 40
1, 158831, Note_off_c, 0, 54, 34
1, 159068, Note_off_c, 0, 59, 31
1, 159106, Note_off_c, 0, 63, 54
1, 159452, Control_c, 0, 64, 95
1, 159458, Note_on_c, 0, 44, 29
1, 159485, Note_on_c, 0, 51, 29
1, 159511, Control_c, 0, 64, 95
1, 159545, Note_on_c, 0, 63, 41
1, 159548, Note_on_c, 0, 56, 21
1, 159555, Control_c, 0, 64, 94
1, 159563, Note_on_c, 0, 59, 36
1, 159600, Control_c, 0, 64, 94
1, 159645, Note_off_c, 0, 51, 40
1, 159659, Control_c, 0, 64, 93
1, 159666, Note_off_c, 0, 44, 41
1, 159688, Control_c, 0, 64, 93
1, 159697, Note_off_c, 0, 56, 40
1, 159726, Note_off_c, 0, 59, 36
1, 159748, Control_c, 0, 64, 92
1, 159792, Control_c, 0, 64, 92
1, 159827, Note_off_c, 0, 63, 30
1, 159844, Note_on_c, 0, 39, 34
1, 159867, Control_c, 0, 64, 91
1, 159918, Note_on_c, 0, 46, 36
1, 159926, Control_c, 0, 64, 91
1, 159956, Control_c, 0, 64, 90
1, 159971, Control_c, 0, 64, 90
1, 159985, Control_c, 0, 64, 89
1, 159998, Note_on_c, 0, 51, 35
1, 160000, Control_c, 0, 64, 89
1, 160006, Note_on_c, 0, 54, 25
1, 160015, Control_c, 0, 64, 87
1, 160030, Control_c, 0, 64, 86
1, 160045, Control_c, 0, 64, 83
1, 160049, Note_on_c, 0, 58, 45
1, 160059, Control_c, 0, 64, 79
1, 160074, Control_c, 0, 64, 71
1, 160089, Control_c, 0, 64, 63
1, 160103, Control_c, 0, 64, 55
1, 160118, Control_c, 0, 64, 49
1, 160141, Control_c, 0, 64, 49
1, 160149, Note_on_c, 0, 66, 48
1, 160156, Control_c, 0, 64, 49
1, 160171, Control_c, 0, 64, 51
1, 160185, Control_c, 0, 64, 54
1, 160200, Control_c, 0, 64, 58
1, 160215, Control_c, 0, 64, 61
1, 160226, Note_off_c, 0, 54, 42
1, 160230, Control_c, 0, 64, 65
1, 160245, Control_c, 0, 64, 68
1, 160259, Control_c, 0, 64, 71
1, 160265, Note_off_c, 0, 39, 43
1, 160274, Control_c, 0, 64, 74
1, 160289, Control_c, 0, 64, 76
1, 160304, Control_c, 0, 64, 77
1, 160318, Control_c, 0, 64, 78
1, 160323, Note_off_c, 0, 46, 52
1, 160333, Control_c, 0, 64, 79
1, 160335, Note_off_c, 0, 51, 44
1, 160348, Control_c, 0, 64, 79
1, 160362, Note_off_c, 0, 66, 53
1, 160363, Control_c, 0, 64, 80
1, 160373, Note_off_c, 0, 58, 27
1, 160615, Control_c, 0, 64, 79
1, 160794, Control_c, 0, 64, 79
1, 160836, Note_on_c, 0, 66, 51
1, 160844, Note_on_c, 0, 54, 41
1, 160853, Control_c, 0, 64, 78
1, 160889, Control_c, 0, 64, 78
1, 160919, Control_c, 0, 64, 77
1, 160949, Control_c, 0, 64, 77
1, 160979, Control_c, 0, 64, 76
1, 161008, Control_c, 0, 64, 76
1, 161023, Control_c, 0, 64, 75
1, 161053, Control_c, 0, 64, 75
1, 161067, Control_c, 0, 64, 74
1, 161097, Control_c, 0, 64, 74
1, 161112, Control_c, 0, 64, 73
1, 161127, Control_c, 0, 64, 72
1, 161141, Control_c, 0, 64, 71
1, 161156, Control_c, 0, 64, 71
1, 161171, Control_c, 0, 64, 70
1, 161186, Control_c, 0, 64, 69
1, 161201, Control_c, 0, 64, 68
1, 161215, Control_c, 0, 64, 67
1, 161231, Control_c, 0, 64, 65
1, 161246, Control_c, 0, 64, 63
1, 161260, Control_c, 0, 64, 62
1, 161275, Control_c, 0, 64, 61
1, 161306, Control_c, 0, 64, 62
1, 161321, Control_c, 0, 64, 62
1, 161336, Control_c, 0, 64, 63
1, 161351, Control_c, 0, 64, 65
1, 161365, Control_c, 0, 64, 67
1, 161380, Control_c, 0, 64, 70
1, 161395, Control_c, 0, 64, 73
1, 161410, Control_c, 0, 64, 75
1, 161424, Control_c, 0, 64, 76
1, 161439, Control_c, 0, 64, 77
1, 161454, Control_c, 0, 64, 77
1, 161469, Control_c, 0, 64, 78
1, 161498, Control_c, 0, 64, 78
1, 161521, Note_off_c, 0, 54, 55
1, 161560, Note_off_c, 0, 66, 56
1, 161817, Control_c, 0, 64, 78
1, 161843, Note_on_c, 0, 66, 28
1, 161861, Note_on_c, 0, 54, 38
1, 161861, Control_c, 0, 64, 77
1, 161876, Control_c, 0, 64, 77
1, 161891, Control_c, 0, 64, 76
1, 161906, Control_c, 0, 64, 76
1, 161921, Control_c, 0, 64, 75
1, 161936, Control_c, 0, 64, 74
1, 161950, Control_c, 0, 64, 72
1, 161965, Control_c, 0, 64, 71
1, 161980, Control_c, 0, 64, 68
1, 161995, Control_c, 0, 64, 65
1, 162010, Control_c, 0, 64, 62
1, 162025, Control_c, 0, 64, 60
1, 162039, Control_c, 0, 64, 59
1, 162054, Control_c, 0, 64, 58
1, 162069, Control_c, 0, 64, 58
1, 162083, Control_c, 0, 64, 57
1, 162098, Control_c, 0, 64, 57
1, 162114, Control_c, 0, 64, 56
1, 162129, Control_c, 0, 64, 56
1, 162188, Control_c, 0, 64, 57
1, 162203, Control_c, 0, 64, 58
1, 162218, Control_c, 0, 64, 62
1, 162233, Control_c, 0, 64, 65
1, 162248, Control_c, 0, 64, 69
1, 162262, Control_c, 0, 64, 74
1, 162277, Control_c, 0, 64, 78
1, 162292, Control_c, 0, 64, 80
1, 162306, Control_c, 0, 64, 82
1, 162321, Note_off_c, 0, 66, 59
1, 162321, Control_c, 0, 64, 85
1, 162336, Control_c, 0, 64, 87
1, 162351, Control_c, 0, 64, 90
1, 162366, Control_c, 0, 64, 92
1, 162388, Control_c, 0, 64, 94
1, 162403, Control_c, 0, 64, 95
1, 162430, Note_off_c, 0, 54, 60
1, 162448, Control_c, 0, 64, 97
1, 162652, Note_on_c, 0, 51, 37
1, 162716, Note_on_c, 0, 57, 35
1, 162799, Note_on_c, 0, 59, 43
1, 162818, Note_off_c, 0, 57, 52
1, 162872, Note_on_c, 0, 66, 51
1, 162877, Note_off_c, 0, 59, 57
1, 162925, Note_off_c, 0, 51, 42
1, 162958, Note_on_c, 0, 71, 56
1, 163036, Note_off_c, 0, 71, 55
1, 163086, Note_off_c, 0, 66, 35
1, 163329, Control_c, 0, 67, 112
1, 163344, Control_c, 0, 67, 94
1, 163359, Control_c, 0, 67, 76
1, 163374, Control_c, 0, 64, 96
1, 163374, Control_c, 0, 67, 59
1, 163389, Control_c, 0, 64, 95
1, 163389, Control_c, 0, 67, 39
1, 163403, Control_c, 0, 64, 91
1, 163403, Control_c, 0, 67, 0
1, 163418, Control_c, 0, 64, 85
1, 163433, Control_c, 0, 64, 76
1, 163447, Control_c, 0, 64, 66
1, 163462, Note_on_c, 0, 40, 42
1, 163462, Control_c, 0, 64, 57
1, 163477, Control_c, 0, 64, 51
1, 163492, Control_c, 0, 64, 50
1, 163507, Control_c, 0, 64, 51
1, 163521, Control_c, 0, 64, 53
1, 163536, Control_c, 0, 64, 57
1, 163551, Control_c, 0, 64, 62
1, 163566, Control_c, 0, 64, 66
1, 163581, Control_c, 0, 64, 71
1, 163596, Control_c, 0, 64, 76
1, 163610, Control_c, 0, 64, 80
1, 163625, Control_c, 0, 64, 84
1, 163640, Control_c, 0, 64, 88
1, 163654, Control_c, 0, 64, 94
1, 163669, Control_c, 0, 64, 101
1, 163684, Control_c, 0, 64, 114
1, 163700, Control_c, 0, 64, 127
1, 163772, Note_off_c, 0, 40, 60
1, 164025, Note_on_c, 0, 52, 41
1, 164106, Note_on_c, 0, 79, 70
1, 164134, Note_on_c, 0, 59, 32
1, 164188, Note_on_c, 0, 67, 28
1, 164194, Note_on_c, 0, 71, 38
1, 164365, Note_on_c, 0, 64, 42
1, 164608, Note_on_c, 0, 78, 69
1, 164756, Note_off_c, 0, 79, 54
1, 164759, Note_off_c, 0, 52, 39
1, 164800, Note_off_c, 0, 64, 34
1, 164837, Note_off_c, 0, 67, 41
1, 164908, Note_off_c, 0, 59, 42
1, 164940, Note_on_c, 0, 79, 68
1, 164967, Note_on_c, 0, 52, 38
1, 164989, Note_off_c, 0, 71, 28
1, 164994, Note_off_c, 0, 78, 54
1, 165098, Note_on_c, 0, 59, 47
1, 165123, Note_on_c, 0, 64, 57
1, 165168, Note_off_c, 0, 64, 64
1, 165179, Note_on_c, 0, 67, 64
1, 165212, Note_on_c, 0, 76, 69
1, 165225, Note_on_c, 0, 71, 46
1, 165443, Note_on_c, 0, 66, 81
1, 165504, Note_off_c, 0, 67, 56
1, 165539, Note_off_c, 0, 71, 60
1, 165602, Note_off_c, 0, 76, 62
1, 165623, Note_off_c, 0, 79, 34
1, 165663, Note_on_c, 0, 67, 75
1, 165674, Note_off_c, 0, 52, 34
1, 165697, Note_off_c, 0, 66, 64
1, 165730, Note_off_c, 0, 59, 59
1, 165801, Note_on_c, 0, 52, 49
1, 165847, Note_on_c, 0, 83, 83
1, 165871, Note_on_c, 0, 76, 56
1, 165889, Note_on_c, 0, 59, 41
1, 165960, Note_off_c, 0, 83, 63
1, 166046, Note_on_c, 0, 64, 44
1, 166154, Note_off_c, 0, 64, 57
1, 166176, Note_off_c, 0, 59, 63
1, 166232, Note_off_c, 0, 52, 60
1, 166243, Note_on_c, 0, 83, 89
1, 166335, Note_off_c, 0, 67, 59
1, 166526, Note_off_c, 0, 76, 57
1, 166590, Note_on_c, 0, 47, 50
1, 166631, Note_off_c, 0, 83, 59
1, 166798, Note_on_c, 0, 85, 63
1, 166824, Note_off_c, 0, 85, 68
1, 166842, Note_on_c, 0, 83, 73
1, 166879, Note_off_c, 0, 83, 56
1, 166884, Note_on_c, 0, 40, 48
1, 166907, Note_on_c, 0, 85, 76
1, 166944, Note_off_c, 0, 40, 60
1, 166967, Note_on_c, 0, 83, 85
1, 166986, Note_off_c, 0, 47, 50
1, 167046, Note_off_c, 0, 85, 46
1, 167191, Note_off_c, 0, 83, 63
1, 167319, Note_on_c, 0, 81, 80
1, 167349, Note_on_c, 0, 59, 36
1, 167360, Note_on_c, 0, 52, 47
1, 167423, Note_off_c, 0, 59, 62
1, 167447, Note_on_c, 0, 79, 75
1, 167449, Note_off_c, 0, 52, 61
1, 167578, Note_off_c, 0, 81, 49
1, 167679, Note_on_c, 0, 78, 69
1, 167685, Note_off_c, 0, 79, 61
1, 167723, Note_on_c, 0, 71, 82
1, 167951, Note_off_c, 0, 78, 54
1, 167963, Note_on_c, 0, 79, 52
1, 168054, Note_on_c, 0, 69, 59
1, 168094, Note_off_c, 0, 71, 59
1, 168165, Note_on_c, 0, 76, 61
1, 168179, Note_on_c, 0, 67, 69
1, 168185, Note_on_c, 0, 71, 44
1, 168373, Note_off_c, 0, 79, 38
1, 168393, Note_on_c, 0, 66, 79
1, 168404, Note_off_c, 0, 69, 22
1, 168410, Note_off_c, 0, 71, 58
1, 168466, Note_off_c, 0, 67, 56
1, 168523, Note_off_c, 0, 66, 65
1, 168603, Note_on_c, 0, 67, 77
1, 168743, Note_off_c, 0, 67, 59
1, 168808, Control_c, 0, 64, 117
1, 168809, Note_on_c, 0, 79, 81
1, 168818, Note_on_c, 0, 52, 61
1, 168819, Note_on_c, 0, 59, 60
1, 168821, Note_on_c, 0, 67, 75
1, 168822, Control_c, 0, 64, 88
1, 168827, Note_on_c, 0, 71, 69
1, 168837, Control_c, 0, 64, 76
1, 168852, Control_c, 0, 64, 68
1, 168866, Control_c, 0, 64, 66
1, 168881, Control_c, 0, 64, 67
1, 168893, Note_off_c, 0, 76, 32
1, 168896, Control_c, 0, 64, 70
1, 168911, Control_c, 0, 64, 77
1, 168926, Control_c, 0, 64, 86
1, 168941, Note_off_c, 0, 79, 62
1, 168941, Control_c, 0, 64, 94
1, 168956, Control_c, 0, 64, 100
1, 168970, Control_c, 0, 64, 104
1, 168985, Control_c, 0, 64, 109
1, 169000, Control_c, 0, 64, 116
1, 169015, Control_c, 0, 64, 127
1, 169180, Note_on_c, 0, 79, 86
1, 169194, Note_on_c, 0, 64, 58
1, 169200, Control_c, 0, 64, 112
1, 169215, Control_c, 0, 64, 84
1, 169230, Control_c, 0, 64, 67
1, 169245, Control_c, 0, 64, 55
1, 169260, Control_c, 0, 64, 51
1, 169274, Control_c, 0, 64, 53
1, 169289, Control_c, 0, 64, 58
1, 169304, Control_c, 0, 64, 65
1, 169319, Control_c, 0, 64, 75
1, 169334, Control_c, 0, 64, 88
1, 169349, Control_c, 0, 64, 97
1, 169364, Control_c, 0, 64, 100
1, 169379, Control_c, 0, 64, 104
1, 169394, Control_c, 0, 64, 110
1, 169396, Note_off_c, 0, 64, 62
1, 169409, Control_c, 0, 64, 118
1, 169424, Control_c, 0, 64, 127
1, 169536, Note_off_c, 0, 52, 29
1, 169554, Note_on_c, 0, 62, 54
1, 169593, Note_off_c, 0, 59, 60
1, 169619, Note_off_c, 0, 62, 56
1, 169633, Note_on_c, 0, 78, 77
1, 169680, Note_off_c, 0, 79, 58
1, 169719, Note_off_c, 0, 67, 58
1, 169742, Note_off_c, 0, 71, 60
1, 169777, Note_off_c, 0, 78, 63
1, 169787, Note_on_c, 0, 45, 57
1, 169870, Note_off_c, 0, 45, 62
1, 169928, Note_on_c, 0, 78, 86
1, 169974, Note_on_c, 0, 71, 51
1, 169987, Note_on_c, 0, 62, 55
1, 169994, Note_on_c, 0, 67, 35
1, 170235, Note_off_c, 0, 78, 58
1, 170372, Note_on_c, 0, 74, 76
1, 170389, Note_off_c, 0, 67, 33
1, 170392, Note_on_c, 0, 59, 44
1, 170413, Note_off_c, 0, 71, 62
1, 170452, Control_c, 0, 67, 43
1, 170460, Note_off_c, 0, 62, 39
1, 170467, Control_c, 0, 67, 58
1, 170482, Control_c, 0, 67, 75
1, 170497, Control_c, 0, 67, 96
1, 170512, Control_c, 0, 67, 117
1, 170527, Control_c, 0, 67, 127
1, 170623, Control_c, 0, 64, 120
1, 170638, Control_c, 0, 64, 106
1, 170652, Control_c, 0, 64, 97
1, 170656, Note_on_c, 0, 76, 75
1, 170667, Control_c, 0, 64, 89
1, 170679, Note_off_c, 0, 59, 50
1, 170682, Control_c, 0, 64, 81
1, 170696, Note_on_c, 0, 57, 38
1, 170697, Control_c, 0, 64, 71
1, 170702, Note_off_c, 0, 74, 57
1, 170712, Control_c, 0, 64, 63
1, 170718, Note_on_c, 0, 61, 33
1, 170726, Control_c, 0, 64, 55
1, 170728, Note_on_c, 0, 67, 30
1, 170741, Control_c, 0, 64, 49
1, 170756, Control_c, 0, 64, 45
1, 170760, Note_on_c, 0, 69, 40
1, 170771, Control_c, 0, 64, 43
1, 170786, Control_c, 0, 64, 41
1, 170801, Control_c, 0, 64, 40
1, 170816, Control_c, 0, 64, 42
1, 170831, Control_c, 0, 64, 47
1, 170845, Control_c, 0, 64, 53
1, 170860, Control_c, 0, 64, 59
1, 170875, Control_c, 0, 64, 63
1, 170890, Control_c, 0, 64, 66
1, 170905, Control_c, 0, 64, 70
1, 170920, Control_c, 0, 64, 74
1, 170935, Control_c, 0, 64, 76
1, 170950, Control_c, 0, 64, 77
1, 170965, Control_c, 0, 64, 78
1, 170980, Control_c, 0, 64, 79
1, 170995, Control_c, 0, 64, 81
1, 171010, Control_c, 0, 64, 81
1, 171015, Note_off_c, 0, 57, 57
1, 171024, Control_c, 0, 64, 82
1, 171033, Note_off_c, 0, 61, 54
1, 171090, Note_on_c, 0, 74, 50
1, 171092, Note_on_c, 0, 59, 34
1, 171159, Note_off_c, 0, 76, 26
1, 171192, Note_off_c, 0, 74, 54
1, 171196, Note_on_c, 0, 73, 53
1, 171205, Note_off_c, 0, 59, 34
1, 171207, Note_on_c, 0, 57, 33
1, 171257, Note_off_c, 0, 57, 59
1, 171287, Note_off_c, 0, 69, 36
1, 171321, Control_c, 0, 64, 82
1, 171335, Control_c, 0, 64, 83
1, 171350, Control_c, 0, 64, 84
1, 171373, Control_c, 0, 64, 86
1, 171388, Control_c, 0, 64, 86
1, 171402, Control_c, 0, 64, 86
1, 171417, Control_c, 0, 64, 83
1, 171425, Note_on_c, 0, 40, 61
1, 171432, Control_c, 0, 64, 75
1, 171447, Control_c, 0, 64, 67
1, 171462, Control_c, 0, 64, 61
1, 171476, Control_c, 0, 64, 59
1, 171491, Control_c, 0, 64, 61
1, 171506, Control_c, 0, 64, 66
1, 171516, Note_off_c, 0, 40, 63
1, 171521, Control_c, 0, 64, 74
1, 171536, Control_c, 0, 64, 84
1, 171550, Control_c, 0, 64, 91
1, 171565, Control_c, 0, 64, 93
1, 171576, Note_off_c, 0, 67, 43
1, 171580, Control_c, 0, 64, 95
1, 171594, Control_c, 0, 64, 96
1, 171644, Note_on_c, 0, 59, 72
1, 171655, Note_on_c, 0, 52, 60
1, 171858, Note_on_c, 0, 79, 67
1, 171880, Note_on_c, 0, 64, 73
1, 171880, Note_on_c, 0, 71, 56
1, 171901, Note_on_c, 0, 67, 41
1, 171995, Note_off_c, 0, 73, 34
1, 172005, Note_off_c, 0, 79, 59
1, 172010, Note_off_c, 0, 64, 63
1, 172196, Control_c, 0, 64, 93
1, 172205, Note_on_c, 0, 79, 69
1, 172211, Control_c, 0, 64, 83
1, 172225, Control_c, 0, 64, 67
1, 172226, Note_on_c, 0, 64, 78
1, 172240, Control_c, 0, 64, 50
1, 172255, Control_c, 0, 64, 32
1, 172270, Control_c, 0, 64, 29
1, 172285, Control_c, 0, 64, 32
1, 172299, Control_c, 0, 64, 39
1, 172314, Control_c, 0, 64, 51
1, 172329, Control_c, 0, 64, 65
1, 172344, Control_c, 0, 64, 72
1, 172359, Control_c, 0, 64, 77
1, 172373, Control_c, 0, 64, 79
1, 172388, Control_c, 0, 64, 80
1, 172403, Control_c, 0, 64, 81
1, 172417, Control_c, 0, 64, 82
1, 172432, Control_c, 0, 64, 82
1, 172447, Control_c, 0, 64, 83
1, 172482, Note_off_c, 0, 52, 51
1, 172490, Note_off_c, 0, 64, 63
1, 172613, Note_on_c, 0, 62, 57
1, 172620, Note_off_c, 0, 79, 58
1, 172652, Note_off_c, 0, 59, 61
1, 172667, Note_on_c, 0, 78, 64
1, 172702, Note_off_c, 0, 62, 62
1, 172767, Note_off_c, 0, 71, 47
1, 172768, Note_off_c, 0, 67, 42
1, 172808, Note_on_c, 0, 45, 63
1, 172832, Note_off_c, 0, 78, 38
1, 172898, Note_off_c, 0, 45, 61
1, 172959, Control_c, 0, 64, 83
1, 173001, Note_on_c, 0, 78, 74
1, 173019, Control_c, 0, 64, 83
1, 173019, Note_on_c, 0, 62, 67
1, 173033, Control_c, 0, 64, 82
1, 173036, Note_on_c, 0, 71, 56
1, 173048, Control_c, 0, 64, 76
1, 173053, Note_on_c, 0, 67, 39
1, 173063, Control_c, 0, 64, 67
1, 173078, Control_c, 0, 64, 56
1, 173093, Control_c, 0, 64, 44
1, 173108, Control_c, 0, 64, 43
1, 173122, Control_c, 0, 64, 45
1, 173137, Control_c, 0, 64, 52
1, 173152, Control_c, 0, 64, 61
1, 173166, Control_c, 0, 64, 68
1, 173181, Control_c, 0, 64, 75
1, 173196, Control_c, 0, 64, 79
1, 173211, Control_c, 0, 64, 80
1, 173226, Control_c, 0, 64, 80
1, 173240, Control_c, 0, 64, 81
1, 173255, Control_c, 0, 64, 81
1, 173270, Control_c, 0, 64, 82
1, 173290, Note_off_c, 0, 78, 57
1, 173364, Note_off_c, 0, 67, 41
1, 173374, Note_off_c, 0, 62, 54
1, 173530, Note_on_c, 0, 74, 58
1, 173536, Note_on_c, 0, 59, 52
1, 173620, Note_off_c, 0, 71, 57
1, 173634, Control_c, 0, 64, 81
1, 173752, Control_c, 0, 64, 81
1, 173797, Control_c, 0, 64, 80
1, 173826, Control_c, 0, 64, 80
1, 173856, Control_c, 0, 64, 79
1, 173871, Control_c, 0, 64, 79
1, 173886, Control_c, 0, 64, 78
1, 173901, Control_c, 0, 64, 78
1, 173904, Note_on_c, 0, 73, 56
1, 173916, Control_c, 0, 64, 76
1, 173928, Note_on_c, 0, 57, 42
1, 173931, Control_c, 0, 64, 74
1, 173940, Note_off_c, 0, 59, 36
1, 173942, Note_on_c, 0, 64, 46
1, 173945, Control_c, 0, 64, 70
1, 173947, Note_on_c, 0, 67, 41
1, 173960, Control_c, 0, 64, 64
1, 173975, Control_c, 0, 64, 56
1, 173989, Control_c, 0, 64, 47
1, 174004, Control_c, 0, 64, 41
1, 174019, Control_c, 0, 64, 37
1, 174034, Control_c, 0, 64, 32
1, 174049, Control_c, 0, 64, 0
1, 174147, Note_off_c, 0, 74, 12
1, 174154, Control_c, 0, 64, 33
1, 174168, Control_c, 0, 64, 38
1, 174183, Control_c, 0, 64, 43
1, 174198, Control_c, 0, 64, 48
1, 174212, Control_c, 0, 64, 52
1, 174227, Control_c, 0, 64, 55
1, 174242, Control_c, 0, 64, 56
1, 174257, Control_c, 0, 64, 57
1, 174427, Control_c, 0, 64, 57
1, 174457, Control_c, 0, 64, 56
1, 174472, Control_c, 0, 64, 54
1, 174476, Note_on_c, 0, 71, 45
1, 174486, Control_c, 0, 64, 50
1, 174491, Note_on_c, 0, 62, 33
1, 174501, Control_c, 0, 64, 43
1, 174515, Note_off_c, 0, 64, 38
1, 174516, Control_c, 0, 64, 0
1, 174540, Note_off_c, 0, 67, 42
1, 174568, Note_off_c, 0, 62, 51
1, 174597, Note_off_c, 0, 71, 56
1, 174604, Note_on_c, 0, 69, 52
1, 174617, Note_on_c, 0, 61, 39
1, 174619, Control_c, 0, 64, 34
1, 174634, Control_c, 0, 64, 51
1, 174637, Note_off_c, 0, 73, 36
1, 174649, Control_c, 0, 64, 63
1, 174652, Note_off_c, 0, 57, 33
1, 174657, Note_off_c, 0, 61, 64
1, 174664, Control_c, 0, 64, 67
1, 174679, Control_c, 0, 64, 69
1, 174694, Control_c, 0, 64, 70
1, 174709, Control_c, 0, 64, 71
1, 174724, Control_c, 0, 64, 71
1, 174739, Control_c, 0, 64, 72
1, 174768, Control_c, 0, 64, 73
1, 174855, Note_on_c, 0, 45, 49
1, 174884, Note_off_c, 0, 69, 59
1, 174888, Control_c, 0, 64, 72
1, 174902, Control_c, 0, 64, 72
1, 174917, Control_c, 0, 64, 71
1, 174947, Control_c, 0, 64, 71
1, 174948, Note_off_c, 0, 45, 61
1, 175117, Control_c, 0, 64, 70
1, 175132, Control_c, 0, 64, 70
1, 175147, Control_c, 0, 64, 69
1, 175162, Control_c, 0, 64, 67
1, 175177, Control_c, 0, 64, 65
1, 175191, Control_c, 0, 64, 63
1, 175206, Control_c, 0, 64, 60
1, 175221, Control_c, 0, 64, 57
1, 175235, Control_c, 0, 64, 55
1, 175250, Control_c, 0, 64, 53
1, 175265, Control_c, 0, 64, 52
1, 175280, Control_c, 0, 64, 49
1, 175281, Note_on_c, 0, 69, 50
1, 175295, Control_c, 0, 64, 43
1, 175298, Note_on_c, 0, 67, 40
1, 175309, Note_on_c, 0, 61, 28
1, 175309, Control_c, 0, 64, 31
1, 175324, Note_off_c, 0, 69, 62
1, 175324, Control_c, 0, 64, 0
1, 175329, Note_off_c, 0, 67, 62
1, 175340, Note_off_c, 0, 61, 46
1, 175355, Poly_aftertouch_c, 0, 64, 127
1, 175385, Poly_aftertouch_c, 0, 64, 0
1, 175559, Note_on_c, 0, 71, 56
1, 175578, Note_on_c, 0, 64, 10
1, 175587, Note_on_c, 0, 62, 27
1, 175591, Control_c, 0, 64, 43
1, 175600, Note_on_c, 0, 67, 30
1, 175606, Control_c, 0, 64, 56
1, 175621, Control_c, 0, 64, 63
1, 175635, Control_c, 0, 64, 66
1, 175647, Note_off_c, 0, 64, 60
1, 175650, Control_c, 0, 64, 66
1, 175654, Note_off_c, 0, 62, 62
1, 175665, Control_c, 0, 64, 67
1, 175681, Control_c, 0, 64, 67
1, 175695, Control_c, 0, 64, 68
1, 175710, Control_c, 0, 64, 69
1, 175895, Control_c, 0, 64, 68
1, 175910, Control_c, 0, 64, 67
1, 175925, Control_c, 0, 64, 65
1, 175940, Control_c, 0, 64, 62
1, 175955, Control_c, 0, 64, 57
1, 175970, Control_c, 0, 64, 52
1, 175975, Note_on_c, 0, 40, 37
1, 175984, Control_c, 0, 64, 47
1, 175999, Control_c, 0, 64, 42
1, 176008, Note_off_c, 0, 40, 58
1, 176014, Control_c, 0, 64, 35
1, 176029, Control_c, 0, 64, 0
1, 176207, Note_off_c, 0, 71, 58
1, 176223, Note_off_c, 0, 67, 44
1, 176228, Note_on_c, 0, 33, 46
1, 176234, Note_on_c, 0, 45, 40
1, 176310, Control_c, 0, 64, 42
1, 176324, Note_off_c, 0, 33, 62
1, 176325, Control_c, 0, 64, 57
1, 176339, Control_c, 0, 64, 64
1, 176354, Control_c, 0, 64, 67
1, 176369, Control_c, 0, 64, 69
1, 176384, Control_c, 0, 64, 70
1, 176396, Note_off_c, 0, 45, 63
1, 176399, Control_c, 0, 64, 74
1, 176414, Control_c, 0, 64, 78
1, 176429, Control_c, 0, 64, 83
1, 176444, Control_c, 0, 64, 87
1, 176458, Control_c, 0, 64, 90
1, 176473, Control_c, 0, 64, 93
1, 176488, Control_c, 0, 64, 95
1, 176503, Control_c, 0, 64, 99
1, 176518, Control_c, 0, 64, 104
1, 176533, Control_c, 0, 64, 108
1, 176548, Control_c, 0, 64, 114
1, 176548, Control_c, 0, 67, 121
1, 176563, Control_c, 0, 64, 127
1, 176563, Control_c, 0, 67, 104
1, 176578, Control_c, 0, 67, 88
1, 176593, Control_c, 0, 67, 72
1, 176614, Control_c, 0, 67, 56
1, 176629, Control_c, 0, 67, 38
1, 176644, Control_c, 0, 67, 0
1, 176661, Note_on_c, 0, 57, 47
1, 176670, Note_on_c, 0, 69, 35
1, 176673, Note_on_c, 0, 67, 47
1, 176907, Note_on_c, 0, 61, 70
1, 176950, Note_off_c, 0, 57, 59
1, 177083, Note_off_c, 0, 67, 37
1, 177085, Note_off_c, 0, 69, 36
1, 177093, Note_off_c, 0, 61, 63
1, 177219, Note_on_c, 0, 62, 61
1, 177315, Note_on_c, 0, 64, 73
1, 177326, Note_on_c, 0, 69, 55
1, 177326, Control_c, 0, 67, 68
1, 177334, Note_off_c, 0, 62, 61
1, 177341, Control_c, 0, 67, 112
1, 177342, Note_on_c, 0, 67, 72
1, 177364, Control_c, 0, 67, 127
1, 177526, Control_c, 0, 64, 108
1, 177541, Control_c, 0, 64, 83
1, 177551, Note_on_c, 0, 61, 78
1, 177553, Note_off_c, 0, 69, 37
1, 177556, Control_c, 0, 64, 67
1, 177571, Control_c, 0, 64, 55
1, 177573, Note_off_c, 0, 67, 37
1, 177585, Control_c, 0, 64, 50
1, 177600, Control_c, 0, 64, 51
1, 177615, Control_c, 0, 64, 55
1, 177630, Control_c, 0, 64, 61
1, 177645, Control_c, 0, 64, 65
1, 177660, Control_c, 0, 64, 69
1, 177675, Control_c, 0, 64, 74
1, 177690, Control_c, 0, 64, 77
1, 177705, Control_c, 0, 64, 78
1, 177719, Control_c, 0, 64, 79
1, 177734, Control_c, 0, 64, 81
1, 177749, Control_c, 0, 64, 83
1, 177764, Control_c, 0, 64, 84
1, 177779, Control_c, 0, 64, 85
1, 177794, Control_c, 0, 64, 86
1, 177809, Control_c, 0, 64, 87
1, 177809, Note_on_c, 0, 69, 56
1, 177838, Control_c, 0, 64, 87
1, 177842, Note_off_c, 0, 61, 35
1, 177853, Control_c, 0, 64, 88
1, 177871, Note_off_c, 0, 69, 62
1, 177877, Note_on_c, 0, 73, 70
1, 177883, Control_c, 0, 64, 88
1, 177927, Control_c, 0, 64, 89
1, 177928, Note_off_c, 0, 73, 64
1, 177956, Control_c, 0, 64, 89
1, 177960, Note_off_c, 0, 64, 42
1, 177967, Note_on_c, 0, 81, 41
1, 177975, Note_on_c, 0, 79, 15
1, 177976, Note_on_c, 0, 57, 52
1, 177986, Control_c, 0, 64, 90
1, 177989, Note_on_c, 0, 61, 47
1, 177993, Note_off_c, 0, 81, 54
1, 178001, Control_c, 0, 64, 90
1, 178016, Control_c, 0, 64, 91
1, 178029, Note_off_c, 0, 79, 0
1, 178030, Note_on_c, 0, 81, 51
1, 178030, Control_c, 0, 64, 92
1, 178045, Control_c, 0, 64, 93
1, 178050, Note_on_c, 0, 79, 23
1, 178050, Note_off_c, 0, 57, 49
1, 178053, Note_on_c, 0, 67, 8
1, 178060, Control_c, 0, 64, 94
1, 178073, Note_on_c, 0, 69, 8
1, 178076, Control_c, 0, 64, 95
1, 178079, Note_off_c, 0, 61, 58
1, 178089, Note_off_c, 0, 79, 54
1, 178091, Control_c, 0, 64, 98
1, 178093, Note_on_c, 0, 85, 74
1, 178113, Control_c, 0, 64, 102
1, 178118, Note_off_c, 0, 67, 47
1, 178128, Control_c, 0, 64, 108
1, 178133, Note_off_c, 0, 69, 50
1, 178143, Control_c, 0, 64, 122
1, 178158, Control_c, 0, 64, 127
1, 178162, Note_on_c, 0, 91, 69
1, 178176, Note_off_c, 0, 81, 63
1, 178177, Note_on_c, 0, 93, 55
1, 178188, Note_off_c, 0, 91, 70
1, 178190, Note_off_c, 0, 85, 64
1, 178197, Note_off_c, 0, 93, 61
1, 178202, Control_c, 0, 64, 102
1, 178217, Control_c, 0, 64, 78
1, 178232, Control_c, 0, 64, 62
1, 178232, Note_on_c, 0, 93, 81
1, 178238, Note_on_c, 0, 62, 59
1, 178240, Note_on_c, 0, 59, 68
1, 178241, Note_on_c, 0, 91, 90
1, 178247, Control_c, 0, 64, 52
1, 178253, Note_on_c, 0, 67, 38
1, 178261, Control_c, 0, 64, 54
1, 178267, Note_on_c, 0, 69, 31
1, 178276, Control_c, 0, 64, 58
1, 178280, Note_off_c, 0, 62, 64
1, 178283, Note_off_c, 0, 67, 55
1, 178291, Control_c, 0, 64, 63
1, 178306, Note_off_c, 0, 69, 44
1, 178306, Control_c, 0, 64, 67
1, 178308, Note_off_c, 0, 59, 63
1, 178312, Note_on_c, 0, 86, 80
1, 178321, Control_c, 0, 64, 69
1, 178324, Note_off_c, 0, 93, 62
1, 178329, Note_off_c, 0, 91, 62
1, 178335, Control_c, 0, 64, 70
1, 178350, Note_off_c, 0, 86, 64
1, 178365, Control_c, 0, 64, 69
1, 178372, Note_on_c, 0, 83, 68
1, 178388, Note_off_c, 0, 83, 68
1, 178429, Note_on_c, 0, 81, 63
1, 178444, Note_on_c, 0, 79, 62
1, 178453, Control_c, 0, 64, 70
1, 178501, Note_off_c, 0, 81, 64
1, 178505, Note_off_c, 0, 79, 58
1, 178524, Note_on_c, 0, 74, 29
1, 178542, Control_c, 0, 64, 69
1, 178556, Note_off_c, 0, 74, 45
1, 178557, Control_c, 0, 64, 69
1, 178560, Note_on_c, 0, 71, 70
1, 178584, Note_off_c, 0, 71, 69
1, 178586, Control_c, 0, 64, 68
1, 178587, Poly_aftertouch_c, 0, 76, 0
1, 178601, Control_c, 0, 64, 67
1, 178616, Control_c, 0, 64, 67
1, 178629, Note_on_c, 0, 69, 60
1, 178631, Control_c, 0, 64, 66
1, 178632, Note_on_c, 0, 40, 34
1, 178637, Note_on_c, 0, 67, 63
1, 178646, Control_c, 0, 64, 66
1, 178660, Control_c, 0, 64, 65
1, 178675, Control_c, 0, 64, 65
1, 178690, Control_c, 0, 64, 64
1, 178705, Control_c, 0, 64, 64
1, 178720, Control_c, 0, 64, 63
1, 178721, Note_on_c, 0, 62, 55
1, 178734, Control_c, 0, 64, 63
1, 178764, Control_c, 0, 64, 62
1, 178766, Note_off_c, 0, 67, 58
1, 178778, Note_on_c, 0, 59, 63
1, 178778, Control_c, 0, 64, 62
1, 178792, Note_off_c, 0, 69, 56
1, 178793, Control_c, 0, 64, 60
1, 178797, Note_off_c, 0, 62, 62
1, 178808, Control_c, 0, 64, 58
1, 178823, Control_c, 0, 64, 53
1, 178838, Control_c, 0, 64, 46
1, 178860, Control_c, 0, 64, 31
1, 178873, Note_on_c, 0, 33, 67
1, 178873, Note_on_c, 0, 45, 55
1, 178875, Control_c, 0, 64, 0
1, 178878, Note_off_c, 0, 40, 43
1, 178882, Note_off_c, 0, 59, 60
1, 178936, Control_c, 0, 64, 29
1, 178951, Control_c, 0, 64, 42
1, 178965, Control_c, 0, 64, 58
1, 178980, Control_c, 0, 64, 63
1, 178995, Control_c, 0, 64, 65
1, 179000, Note_off_c, 0, 33, 62
1, 179009, Control_c, 0, 64, 66
1, 179024, Control_c, 0, 64, 67
1, 179039, Control_c, 0, 64, 69
1, 179054, Note_off_c, 0, 45, 63
1, 179054, Control_c, 0, 64, 72
1, 179069, Control_c, 0, 64, 73
1, 179083, Control_c, 0, 64, 74
1, 179098, Control_c, 0, 64, 75
1, 179113, Control_c, 0, 64, 76
1, 179128, Control_c, 0, 64, 76
1, 179143, Control_c, 0, 64, 77
1, 179157, Control_c, 0, 64, 77
1, 179187, Control_c, 0, 64, 78
1, 179187, Control_c, 0, 67, 116
1, 179201, Control_c, 0, 67, 94
1, 179216, Control_c, 0, 67, 71
1, 179231, Control_c, 0, 67, 42
1, 179246, Control_c, 0, 64, 78
1, 179246, Control_c, 0, 67, 0
1, 179298, Note_on_c, 0, 57, 67
1, 179317, Note_on_c, 0, 69, 58
1, 179320, Note_on_c, 0, 67, 63
1, 179553, Note_on_c, 0, 61, 81
1, 179603, Poly_aftertouch_c, 0, 64, 127
1, 179612, Note_off_c, 0, 57, 58
1, 179654, Control_c, 0, 64, 79
1, 179661, Poly_aftertouch_c, 0, 64, 0
1, 179699, Note_off_c, 0, 67, 33
1, 179699, Control_c, 0, 64, 79
1, 179708, Note_off_c, 0, 69, 37
1, 179729, Control_c, 0, 64, 80
1, 179743, Control_c, 0, 64, 80
1, 179765, Note_off_c, 0, 61, 58
1, 179773, Control_c, 0, 64, 81
1, 179788, Control_c, 0, 64, 81
1, 179803, Control_c, 0, 64, 82
1, 179832, Control_c, 0, 64, 82
1, 179866, Note_on_c, 0, 62, 75
1, 179877, Control_c, 0, 64, 83
1, 179921, Control_c, 0, 64, 83
1, 179951, Control_c, 0, 64, 84
1, 179961, Note_on_c, 0, 64, 80
1, 179978, Note_on_c, 0, 69, 67
1, 179979, Note_on_c, 0, 67, 71
1, 179994, Note_off_c, 0, 62, 60
1, 180098, Control_c, 0, 64, 84
1, 180158, Control_c, 0, 64, 84
1, 180173, Control_c, 0, 64, 82
1, 180182, Note_on_c, 0, 61, 82
1, 180188, Control_c, 0, 64, 73
1, 180203, Control_c, 0, 64, 65
1, 180217, Control_c, 0, 64, 57
1, 180229, Note_off_c, 0, 64, 56
1, 180232, Control_c, 0, 64, 55
1, 180247, Control_c, 0, 64, 57
1, 180262, Control_c, 0, 64, 59
1, 180277, Control_c, 0, 64, 63
1, 180285, Note_off_c, 0, 69, 60
1, 180292, Control_c, 0, 64, 66
1, 180296, Note_off_c, 0, 67, 55
1, 180306, Control_c, 0, 64, 68
1, 180321, Control_c, 0, 64, 70
1, 180336, Control_c, 0, 64, 71
1, 180372, Control_c, 0, 64, 71
1, 180392, Note_on_c, 0, 69, 75
1, 180393, Note_on_c, 0, 59, 79
1, 180417, Note_off_c, 0, 61, 45
1, 180417, Control_c, 0, 64, 72
1, 180455, Note_on_c, 0, 73, 76
1, 180462, Control_c, 0, 64, 72
1, 180473, Note_off_c, 0, 69, 60
1, 180477, Control_c, 0, 64, 73
1, 180492, Control_c, 0, 64, 73
1, 180507, Control_c, 0, 64, 74
1, 180517, Note_on_c, 0, 79, 70
1, 180522, Control_c, 0, 64, 74
1, 180525, Note_off_c, 0, 73, 62
1, 180534, Note_on_c, 0, 81, 57
1, 180536, Control_c, 0, 64, 75
1, 180539, Note_off_c, 0, 59, 57
1, 180551, Note_off_c, 0, 79, 61
1, 180551, Control_c, 0, 64, 75
1, 180566, Note_off_c, 0, 81, 66
1, 180566, Control_c, 0, 64, 76
1, 180581, Control_c, 0, 64, 77
1, 180596, Control_c, 0, 64, 78
1, 180596, Note_on_c, 0, 57, 79
1, 180610, Note_on_c, 0, 81, 82
1, 180611, Control_c, 0, 64, 78
1, 180617, Note_on_c, 0, 67, 65
1, 180619, Note_on_c, 0, 69, 69
1, 180626, Control_c, 0, 64, 79
1, 180641, Control_c, 0, 64, 80
1, 180655, Control_c, 0, 64, 81
1, 180667, Note_on_c, 0, 85, 81
1, 180670, Control_c, 0, 64, 83
1, 180685, Control_c, 0, 64, 85
1, 180700, Control_c, 0, 64, 88
1, 180715, Control_c, 0, 64, 91
1, 180727, Note_off_c, 0, 69, 55
1, 180730, Note_off_c, 0, 57, 62
1, 180730, Control_c, 0, 64, 94
1, 180730, Note_on_c, 0, 91, 66
1, 180738, Note_on_c, 0, 93, 60
1, 180739, Note_off_c, 0, 67, 39
1, 180741, Note_off_c, 0, 81, 60
1, 180745, Control_c, 0, 64, 99
1, 180760, Note_off_c, 0, 85, 63
1, 180760, Control_c, 0, 64, 103
1, 180763, Note_off_c, 0, 91, 67
1, 180771, Note_off_c, 0, 93, 64
1, 180804, Control_c, 0, 64, 88
1, 180811, Note_on_c, 0, 59, 89
1, 180816, Note_on_c, 0, 91, 81
1, 180818, Note_on_c, 0, 93, 78
1, 180819, Control_c, 0, 64, 70
1, 180834, Control_c, 0, 64, 56
1, 180834, Note_on_c, 0, 67, 74
1, 180834, Note_on_c, 0, 69, 74
1, 180848, Control_c, 0, 64, 48
1, 180863, Control_c, 0, 64, 51
1, 180878, Control_c, 0, 64, 57
1, 180889, Note_on_c, 0, 86, 80
1, 180893, Control_c, 0, 64, 67
1, 180900, Note_off_c, 0, 69, 61
1, 180908, Note_off_c, 0, 67, 60
1, 180908, Control_c, 0, 64, 80
1, 180911, Note_off_c, 0, 93, 61
1, 180918, Note_off_c, 0, 91, 62
1, 180922, Control_c, 0, 64, 93
1, 180937, Note_off_c, 0, 86, 63
1, 180937, Control_c, 0, 64, 97
1, 180938, Note_off_c, 0, 59, 64
1, 180942, Note_on_c, 0, 83, 76
1, 180967, Control_c, 0, 64, 100
1, 180969, Note_off_c, 0, 83, 64
1, 180996, Control_c, 0, 64, 103
1, 181026, Note_on_c, 0, 79, 72
1, 181030, Note_on_c, 0, 81, 65
1, 181106, Note_on_c, 0, 74, 66
1, 181106, Note_off_c, 0, 81, 62
1, 181129, Note_off_c, 0, 79, 64
1, 181153, Note_off_c, 0, 74, 63
1, 181175, Note_on_c, 0, 71, 66
1, 181195, Note_off_c, 0, 71, 63
1, 181249, Note_on_c, 0, 69, 65
1, 181252, Note_on_c, 0, 67, 72
1, 181259, Note_on_c, 0, 40, 45
1, 181323, Note_on_c, 0, 62, 72
1, 181347, Note_off_c, 0, 67, 58
1, 181348, Note_on_c, 0, 33, 64
1, 181350, Note_off_c, 0, 69, 57
1, 181380, Note_off_c, 0, 62, 62
1, 181401, Note_on_c, 0, 59, 74
1, 181440, Note_on_c, 0, 45, 56
1, 181449, Control_c, 0, 64, 94
1, 181464, Control_c, 0, 64, 76
1, 181478, Control_c, 0, 64, 60
1, 181482, Note_on_c, 0, 57, 93
1, 181493, Control_c, 0, 64, 43
1, 181498, Note_off_c, 0, 59, 65
1, 181508, Control_c, 0, 64, 41
1, 181523, Control_c, 0, 64, 47
1, 181536, Note_off_c, 0, 40, 42
1, 181538, Control_c, 0, 64, 58
1, 181547, Note_off_c, 0, 33, 62
1, 181553, Control_c, 0, 64, 68
1, 181568, Control_c, 0, 64, 79
1, 181583, Control_c, 0, 64, 87
1, 181593, Note_off_c, 0, 45, 62
1, 181597, Control_c, 0, 64, 89
1, 181612, Control_c, 0, 64, 91
1, 181627, Control_c, 0, 64, 93
1, 181642, Control_c, 0, 64, 96
1, 181657, Control_c, 0, 64, 99
1, 181671, Control_c, 0, 64, 101
1, 181687, Note_off_c, 0, 57, 67
1, 181701, Control_c, 0, 64, 103
1, 181800, Note_on_c, 0, 45, 58
1, 181819, Control_c, 0, 64, 105
1, 181830, Note_on_c, 0, 52, 62
1, 181909, Note_on_c, 0, 69, 94
1, 181944, Note_off_c, 0, 52, 62
1, 181946, Note_off_c, 0, 45, 60
1, 181951, Note_on_c, 0, 67, 54
1, 181960, Note_on_c, 0, 57, 61
1, 182004, Control_c, 0, 64, 108
1, 182019, Control_c, 0, 64, 110
1, 182034, Control_c, 0, 64, 113
1, 182049, Control_c, 0, 64, 117
1, 182064, Control_c, 0, 64, 127
1, 182170, Note_on_c, 0, 73, 96
1, 182186, Note_off_c, 0, 69, 59
1, 182187, Note_on_c, 0, 61, 72
1, 182194, Note_on_c, 0, 76, 11
1, 182238, Note_off_c, 0, 76, 52
1, 182385, Note_off_c, 0, 73, 54
1, 182480, Note_on_c, 0, 74, 95
1, 182483, Note_on_c, 0, 62, 66
1, 182563, Note_on_c, 0, 76, 87
1, 182575, Note_off_c, 0, 62, 62
1, 182579, Note_off_c, 0, 61, 33
1, 182585, Note_off_c, 0, 74, 62
1, 182587, Note_on_c, 0, 64, 78
1, 182617, Note_off_c, 0, 67, 0
1, 182632, Note_off_c, 0, 76, 63
1, 182662, Poly_aftertouch_c, 0, 67, 0
1, 182668, Note_off_c, 0, 64, 56
1, 182725, Note_on_c, 0, 73, 61
1, 182751, Note_off_c, 0, 73, 68
1, 182756, Note_on_c, 0, 74, 87
1, 182808, Note_on_c, 0, 73, 97
1, 182811, Control_c, 0, 64, 79
1, 182815, Note_on_c, 0, 61, 95
1, 182826, Control_c, 0, 64, 56
1, 182838, Note_off_c, 0, 74, 65
1, 182841, Control_c, 0, 64, 0
1, 182859, Note_off_c, 0, 57, 58
1, 182871, Control_c, 0, 64, 37
1, 182886, Control_c, 0, 64, 56
1, 182901, Control_c, 0, 64, 68
1, 182915, Control_c, 0, 64, 78
1, 182930, Control_c, 0, 64, 88
1, 182944, Note_off_c, 0, 73, 60
1, 182945, Control_c, 0, 64, 92
1, 182960, Control_c, 0, 64, 97
1, 182975, Note_off_c, 0, 61, 58
1, 182975, Control_c, 0, 64, 104
1, 182990, Control_c, 0, 64, 114
1, 183005, Control_c, 0, 64, 127
1, 183090, Note_on_c, 0, 69, 67
1, 183108, Note_on_c, 0, 71, 93
1, 183125, Note_on_c, 0, 59, 81
1, 183150, Note_on_c, 0, 73, 78
1, 183169, Note_off_c, 0, 69, 61
1, 183219, Note_off_c, 0, 59, 58
1, 183219, Note_off_c, 0, 73, 64
1, 183222, Note_off_c, 0, 71, 58
1, 183227, Note_on_c, 0, 79, 70
1, 183227, Note_on_c, 0, 81, 65
1, 183249, Note_off_c, 0, 79, 70
1, 183256, Note_off_c, 0, 81, 66
1, 183309, Note_on_c, 0, 69, 93
1, 183309, Note_on_c, 0, 81, 80
1, 183324, Note_on_c, 0, 61, 69
1, 183380, Note_on_c, 0, 85, 85
1, 183401, Note_off_c, 0, 61, 61
1, 183408, Note_off_c, 0, 69, 56
1, 183437, Note_on_c, 0, 55, 84
1, 183452, Note_on_c, 0, 91, 76
1, 183468, Note_on_c, 0, 95, 66
1, 183469, Note_on_c, 0, 93, 65
1, 183471, Control_c, 0, 64, 75
1, 183486, Control_c, 0, 64, 52
1, 183487, Note_off_c, 0, 81, 54
1, 183496, Note_on_c, 0, 62, 77
1, 183500, Control_c, 0, 64, 33
1, 183515, Control_c, 0, 64, 38
1, 183529, Note_off_c, 0, 95, 66
1, 183530, Control_c, 0, 64, 54
1, 183538, Note_off_c, 0, 55, 58
1, 183544, Note_off_c, 0, 85, 58
1, 183545, Control_c, 0, 64, 69
1, 183552, Note_on_c, 0, 67, 89
1, 183553, Note_off_c, 0, 93, 62
1, 183560, Control_c, 0, 64, 89
1, 183569, Note_off_c, 0, 91, 63
1, 183574, Control_c, 0, 64, 108
1, 183585, Note_off_c, 0, 62, 63
1, 183589, Control_c, 0, 64, 115
1, 183604, Control_c, 0, 64, 127
1, 183632, Note_off_c, 0, 67, 65
1, 183633, Note_on_c, 0, 71, 100
1, 183656, Note_on_c, 0, 95, 70
1, 183664, Note_on_c, 0, 91, 74
1, 183690, Note_off_c, 0, 71, 67
1, 183746, Note_on_c, 0, 86, 76
1, 183755, Note_off_c, 0, 95, 62
1, 183778, Note_off_c, 0, 91, 64
1, 183798, Note_off_c, 0, 86, 66
1, 183814, Note_on_c, 0, 83, 79
1, 183833, Note_off_c, 0, 83, 72
1, 183883, Note_on_c, 0, 83, 71
1, 183887, Note_on_c, 0, 79, 76
1, 183950, Note_on_c, 0, 74, 89
1, 183956, Note_off_c, 0, 83, 62
1, 183982, Note_off_c, 0, 79, 63
1, 183997, Note_off_c, 0, 74, 66
1, 184019, Note_on_c, 0, 71, 72
1, 184039, Note_off_c, 0, 71, 65
1, 184078, Note_on_c, 0, 71, 61
1, 184080, Note_on_c, 0, 67, 77
1, 184162, Note_on_c, 0, 62, 67
1, 184241, Note_on_c, 0, 59, 56
1, 184285, Note_off_c, 0, 67, 53
1, 184366, Note_on_c, 0, 43, 84
1, 184377, Note_off_c, 0, 71, 49
1, 184413, Control_c, 0, 64, 80
1, 184428, Control_c, 0, 64, 56
1, 184433, Note_off_c, 0, 59, 56
1, 184442, Control_c, 0, 64, 0
1, 184452, Note_off_c, 0, 62, 16
1, 184488, Control_c, 0, 64, 49
1, 184502, Control_c, 0, 64, 64
1, 184517, Control_c, 0, 64, 70
1, 184532, Control_c, 0, 64, 75
1, 184546, Control_c, 0, 64, 78
1, 184547, Note_on_c, 0, 50, 66
1, 184561, Control_c, 0, 64, 81
1, 184576, Control_c, 0, 64, 84
1, 184591, Control_c, 0, 64, 88
1, 184606, Control_c, 0, 64, 93
1, 184612, Note_on_c, 0, 55, 72
1, 184620, Note_off_c, 0, 43, 61
1, 184620, Control_c, 0, 64, 97
1, 184635, Control_c, 0, 64, 102
1, 184650, Control_c, 0, 64, 107
1, 184652, Note_off_c, 0, 50, 62
1, 184657, Note_off_c, 0, 55, 59
1, 184665, Control_c, 0, 64, 116
1, 184677, Note_on_c, 0, 59, 79
1, 184680, Control_c, 0, 64, 127
1, 184724, Note_on_c, 0, 62, 81
1, 184726, Note_off_c, 0, 59, 67
1, 184787, Note_off_c, 0, 62, 63
1, 184789, Note_on_c, 0, 67, 82
1, 184793, Note_on_c, 0, 71, 77
1, 184809, Note_off_c, 0, 67, 71
1, 184819, Note_off_c, 0, 71, 63
1, 184867, Note_on_c, 0, 71, 86
1, 184918, Note_on_c, 0, 74, 96
1, 184928, Note_off_c, 0, 71, 64
1, 184971, Note_on_c, 0, 83, 85
1, 184973, Note_on_c, 0, 79, 83
1, 184999, Note_off_c, 0, 74, 59
1, 185023, Note_off_c, 0, 83, 63
1, 185035, Note_off_c, 0, 79, 63
1, 185064, Note_on_c, 0, 47, 92
1, 185102, Control_c, 0, 64, 114
1, 185117, Control_c, 0, 64, 67
1, 185132, Control_c, 0, 64, 36
1, 185146, Control_c, 0, 64, 0
1, 185174, Note_on_c, 0, 54, 79
1, 185176, Control_c, 0, 64, 49
1, 185191, Control_c, 0, 64, 66
1, 185206, Control_c, 0, 64, 75
1, 185220, Control_c, 0, 64, 80
1, 185235, Control_c, 0, 64, 81
1, 185242, Note_on_c, 0, 59, 81
1, 185250, Control_c, 0, 64, 82
1, 185266, Control_c, 0, 64, 83
1, 185276, Note_off_c, 0, 47, 54
1, 185281, Control_c, 0, 64, 84
1, 185287, Note_off_c, 0, 54, 60
1, 185296, Control_c, 0, 64, 85
1, 185302, Note_on_c, 0, 62, 83
1, 185311, Control_c, 0, 64, 86
1, 185325, Control_c, 0, 64, 88
1, 185330, Note_off_c, 0, 59, 58
1, 185340, Control_c, 0, 64, 90
1, 185351, Note_on_c, 0, 66, 87
1, 185355, Control_c, 0, 64, 93
1, 185369, Control_c, 0, 64, 97
1, 185370, Note_off_c, 0, 62, 63
1, 185384, Control_c, 0, 64, 106
1, 185399, Control_c, 0, 64, 127
1, 185410, Note_on_c, 0, 71, 87
1, 185413, Note_off_c, 0, 66, 66
1, 185416, Note_on_c, 0, 74, 75
1, 185432, Note_off_c, 0, 71, 67
1, 185440, Note_off_c, 0, 74, 65
1, 185483, Note_on_c, 0, 74, 88
1, 185541, Note_on_c, 0, 78, 92
1, 185582, Note_off_c, 0, 74, 62
1, 185603, Note_on_c, 0, 83, 86
1, 185610, Note_on_c, 0, 86, 90
1, 185632, Note_off_c, 0, 78, 61
1, 185674, Note_off_c, 0, 86, 64
1, 185681, Note_off_c, 0, 83, 67
1, 185698, Note_on_c, 0, 46, 98
1, 185762, Control_c, 0, 64, 73
1, 185777, Control_c, 0, 64, 48
1, 185792, Control_c, 0, 64, 32
1, 185807, Control_c, 0, 64, 44
1, 185809, Note_on_c, 0, 56, 82
1, 185811, Note_on_c, 0, 49, 17
1, 185822, Control_c, 0, 64, 62
1, 185836, Control_c, 0, 64, 80
1, 185849, Note_off_c, 0, 46, 59
1, 185851, Control_c, 0, 64, 105
1, 185855, Note_off_c, 0, 49, 51
1, 185866, Control_c, 0, 64, 127
1, 185888, Note_on_c, 0, 62, 81
1, 185938, Note_on_c, 0, 64, 86
1, 185953, Note_off_c, 0, 62, 61
1, 185976, Note_off_c, 0, 56, 53
1, 185990, Note_on_c, 0, 68, 91
1, 186013, Note_off_c, 0, 64, 63
1, 186044, Note_off_c, 0, 68, 66
1, 186047, Note_on_c, 0, 74, 87
1, 186059, Note_on_c, 0, 76, 65
1, 186087, Note_off_c, 0, 74, 64
1, 186087, Note_off_c, 0, 76, 68
1, 186123, Note_on_c, 0, 76, 95
1, 186175, Note_on_c, 0, 80, 92
1, 186209, Note_off_c, 0, 76, 60
1, 186223, Note_on_c, 0, 86, 87
1, 186224, Note_on_c, 0, 88, 92
1, 186245, Note_off_c, 0, 80, 64
1, 186291, Note_off_c, 0, 88, 67
1, 186304, Note_off_c, 0, 86, 66
1, 186308, Note_on_c, 0, 45, 100
1, 186348, Control_c, 0, 64, 111
1, 186363, Control_c, 0, 64, 69
1, 186378, Control_c, 0, 64, 49
1, 186392, Control_c, 0, 64, 47
1, 186407, Control_c, 0, 64, 59
1, 186422, Control_c, 0, 64, 80
1, 186437, Control_c, 0, 64, 127
1, 186474, Note_on_c, 0, 55, 79
1, 186486, Note_off_c, 0, 45, 63
1, 186552, Note_on_c, 0, 61, 91
1, 186609, Note_off_c, 0, 55, 57
1, 186626, Note_on_c, 0, 65, 89
1, 186645, Note_off_c, 0, 61, 62
1, 186684, Note_on_c, 0, 69, 89
1, 186706, Note_off_c, 0, 65, 64
1, 186749, Note_on_c, 0, 73, 85
1, 186756, Note_off_c, 0, 69, 65
1, 186758, Note_on_c, 0, 77, 79
1, 186795, Note_off_c, 0, 73, 66
1, 186804, Note_off_c, 0, 77, 64
1, 186848, Note_on_c, 0, 77, 92
1, 186946, Note_on_c, 0, 81, 90
1, 187022, Note_on_c, 0, 85, 94
1, 187027, Note_on_c, 0, 89, 78
1, 187037, Note_off_c, 0, 77, 38
1, 187048, Note_off_c, 0, 81, 63
1, 187151, Note_off_c, 0, 89, 52
1, 187160, Note_off_c, 0, 85, 52
1, 187261, Note_on_c, 0, 38, 99
1, 187263, Note_on_c, 0, 50, 100
1, 187304, Control_c, 0, 64, 71
1, 187319, Control_c, 0, 64, 0
1, 187393, Control_c, 0, 64, 47
1, 187408, Control_c, 0, 64, 65
1, 187422, Control_c, 0, 64, 77
1, 187438, Control_c, 0, 64, 95
1, 187453, Control_c, 0, 64, 127
1, 187556, Note_off_c, 0, 38, 62
1, 187607, Note_off_c, 0, 50, 60
1, 187639, Note_on_c, 0, 66, 83
1, 187714, Note_on_c, 0, 69, 77
1, 187729, Note_off_c, 0, 66, 61
1, 187784, Note_off_c, 0, 69, 61
1, 187786, Note_on_c, 0, 78, 80
1, 187825, Note_off_c, 0, 78, 59
1, 187854, Poly_aftertouch_c, 0, 70, 0
1, 187863, Note_on_c, 0, 66, 107
1, 187873, Note_on_c, 0, 57, 74
1, 187874, Note_on_c, 0, 54, 84
1, 187880, Note_on_c, 0, 78, 88
1, 187905, Note_on_c, 0, 55, 39
1, 187943, Note_off_c, 0, 55, 48
1, 187962, Note_on_c, 0, 81, 83
1, 187996, Note_off_c, 0, 78, 60
1, 188032, Note_off_c, 0, 54, 56
1, 188045, Note_off_c, 0, 66, 60
1, 188067, Note_on_c, 0, 90, 85
1, 188085, Note_off_c, 0, 81, 61
1, 188107, Note_off_c, 0, 57, 51
1, 188108, Note_off_c, 0, 90, 65
1, 188231, Note_on_c, 0, 57, 82
1, 188233, Note_on_c, 0, 64, 95
1, 188235, Note_on_c, 0, 52, 88
1, 188289, Note_on_c, 0, 88, 91
1, 188290, Note_on_c, 0, 86, 100
1, 188302, Note_on_c, 0, 55, 16
1, 188376, Note_on_c, 0, 82, 84
1, 188385, Note_off_c, 0, 55, 35
1, 188421, Note_on_c, 0, 81, 81
1, 188446, Note_off_c, 0, 82, 59
1, 188452, Note_on_c, 0, 76, 85
1, 188475, Note_off_c, 0, 86, 61
1, 188478, Note_off_c, 0, 81, 65
1, 188478, Note_off_c, 0, 88, 60
1, 188481, Note_off_c, 0, 52, 62
1, 188495, Note_off_c, 0, 76, 65
1, 188513, Note_off_c, 0, 64, 58
1, 188547, Note_on_c, 0, 76, 90
1, 188561, Note_off_c, 0, 57, 60
1, 188609, Note_off_c, 0, 76, 68
1, 188615, Note_on_c, 0, 81, 79
1, 188656, Note_on_c, 0, 57, 44
1, 188659, Note_on_c, 0, 66, 98
1, 188667, Note_on_c, 0, 90, 89
1, 188689, Note_on_c, 0, 78, 102
1, 188692, Note_on_c, 0, 54, 45
1, 188709, Note_off_c, 0, 81, 60
1, 188712, Note_off_c, 0, 66, 64
1, 188724, Note_off_c, 0, 54, 51
1, 188724, Note_off_c, 0, 90, 67
1, 188737, Note_off_c, 0, 57, 63
1, 188743, Note_off_c, 0, 78, 60
1, 188774, Note_on_c, 0, 57, 67
1, 188776, Note_on_c, 0, 62, 98
1, 188780, Note_on_c, 0, 50, 87
1, 188791, Note_on_c, 0, 86, 100
1, 188821, Note_off_c, 0, 62, 66
1, 188855, Note_off_c, 0, 57, 64
1, 188865, Note_off_c, 0, 50, 64
1, 188892, Note_on_c, 0, 81, 80
1, 188897, Note_on_c, 0, 78, 82
1, 188976, Note_off_c, 0, 86, 55
1, 189002, Note_on_c, 0, 74, 87
1, 189025, Note_off_c, 0, 81, 60
1, 189057, Note_off_c, 0, 78, 57
1, 189095, Note_off_c, 0, 74, 64
1, 189133, Note_on_c, 0, 26, 94
1, 189135, Note_on_c, 0, 38, 104
1, 189142, Control_c, 0, 64, 95
1, 189157, Control_c, 0, 64, 58
1, 189172, Control_c, 0, 64, 0
1, 189187, Control_c, 0, 64, 29
1, 189202, Control_c, 0, 64, 50
1, 189217, Control_c, 0, 64, 69
1, 189232, Control_c, 0, 64, 89
1, 189247, Control_c, 0, 64, 127
1, 189318, Note_off_c, 0, 26, 64
1, 189360, Note_off_c, 0, 38, 64
1, 189373, Note_on_c, 0, 34, 6
1, 189412, Note_on_c, 0, 69, 91
1, 189440, Note_off_c, 0, 34, 48
1, 189479, Note_on_c, 0, 74, 87
1, 189493, Note_off_c, 0, 69, 62
1, 189530, Note_on_c, 0, 78, 89
1, 189531, Note_on_c, 0, 81, 71
1, 189547, Note_off_c, 0, 74, 65
1, 189574, Note_off_c, 0, 78, 65
1, 189579, Note_off_c, 0, 81, 66
1, 189620, Note_on_c, 0, 62, 63
1, 189620, Note_on_c, 0, 81, 97
1, 189621, Note_on_c, 0, 69, 103
1, 189623, Note_on_c, 0, 57, 85
1, 189627, Note_on_c, 0, 66, 85
1, 189697, Note_on_c, 0, 86, 95
1, 189754, Note_off_c, 0, 81, 57
1, 189758, Note_on_c, 0, 90, 94
1, 189763, Note_on_c, 0, 93, 80
1, 189770, Note_off_c, 0, 57, 60
1, 189777, Note_off_c, 0, 69, 53
1, 189786, Note_off_c, 0, 66, 62
1, 189790, Note_off_c, 0, 86, 67
1, 189791, Note_off_c, 0, 93, 66
1, 189796, Note_off_c, 0, 62, 61
1, 189804, Note_off_c, 0, 90, 66
1, 189839, Poly_aftertouch_c, 0, 62, 0
1, 189840, Note_on_c, 0, 69, 99
1, 189843, Note_on_c, 0, 57, 94
1, 189846, Note_on_c, 0, 62, 72
1, 189846, Note_on_c, 0, 66, 85
1, 189846, Note_on_c, 0, 93, 97
1, 189857, Note_on_c, 0, 90, 90
1, 189874, Note_off_c, 0, 69, 66
1, 189887, Note_off_c, 0, 66, 64
1, 189897, Note_off_c, 0, 62, 64
1, 189909, Note_off_c, 0, 57, 64
1, 189914, Note_on_c, 0, 86, 88
1, 189941, Note_on_c, 0, 91, 5
1, 189961, Note_off_c, 0, 90, 61
1, 189965, Note_off_c, 0, 93, 63
1, 189974, Note_off_c, 0, 91, 28
1, 189981, Note_on_c, 0, 81, 84
1, 190022, Note_off_c, 0, 86, 61
1, 190025, Note_off_c, 0, 81, 63
1, 190047, Note_on_c, 0, 50, 95
1, 190048, Note_on_c, 0, 38, 87
1, 190068, Note_on_c, 0, 81, 82
1, 190072, Note_off_c, 0, 38, 67
1, 190095, Note_off_c, 0, 50, 66
1, 190125, Note_on_c, 0, 86, 85
1, 190183, Note_off_c, 0, 81, 58
1, 190200, Poly_aftertouch_c, 0, 38, 127
1, 190201, Note_on_c, 0, 90, 90
1, 190229, Note_off_c, 0, 86, 65
1, 190242, Poly_aftertouch_c, 0, 38, 0
1, 190243, Note_off_c, 0, 90, 65
1, 190287, Note_on_c, 0, 71, 98
1, 190290, Note_on_c, 0, 62, 73
1, 190291, Note_on_c, 0, 59, 85
1, 190294, Note_on_c, 0, 95, 100
1, 190295, Note_on_c, 0, 66, 85
1, 190299, Note_on_c, 0, 93, 95
1, 190374, Note_on_c, 0, 86, 92
1, 190409, Note_off_c, 0, 93, 62
1, 190410, Note_off_c, 0, 59, 53
1, 190415, Note_off_c, 0, 95, 66
1, 190429, Note_off_c, 0, 71, 53
1, 190469, Note_on_c, 0, 83, 91
1, 190478, Note_off_c, 0, 86, 60
1, 190493, Note_off_c, 0, 62, 50
1, 190508, Note_off_c, 0, 66, 62
1, 190602, Note_on_c, 0, 69, 101
1, 190603, Note_off_c, 0, 83, 60
1, 190603, Note_on_c, 0, 62, 88
1, 190605, Note_on_c, 0, 93, 108
1, 190606, Note_on_c, 0, 66, 93
1, 190613, Note_on_c, 0, 57, 87
1, 190627, Control_c, 0, 64, 71
1, 190641, Control_c, 0, 64, 45
1, 190656, Control_c, 0, 64, 33
1, 190671, Control_c, 0, 64, 47
1, 190683, Note_on_c, 0, 86, 85
1, 190685, Control_c, 0, 64, 65
1, 190700, Control_c, 0, 64, 112
1, 190715, Control_c, 0, 64, 127
1, 190761, Note_off_c, 0, 93, 61
1, 190766, Note_on_c, 0, 81, 88
1, 190771, Note_off_c, 0, 69, 60
1, 190776, Note_off_c, 0, 57, 58
1, 190776, Note_off_c, 0, 66, 63
1, 190784, Note_off_c, 0, 62, 62
1, 190802, Note_off_c, 0, 86, 63
1, 190852, Note_on_c, 0, 91, 97
1, 190854, Note_off_c, 0, 81, 64
1, 190856, Note_on_c, 0, 67, 100
1, 190864, Note_on_c, 0, 55, 89
1, 190930, Note_off_c, 0, 55, 58
1, 190936, Note_on_c, 0, 86, 83
1, 190938, Note_off_c, 0, 67, 54
1, 190955, Note_off_c, 0, 91, 69
1, 190961, Note_on_c, 0, 79, 63
1, 191024, Note_off_c, 0, 79, 63
1, 191032, Note_on_c, 0, 90, 94
1, 191038, Note_on_c, 0, 66, 103
1, 191038, Note_off_c, 0, 86, 65
1, 191048, Note_on_c, 0, 54, 83
1, 191073, Note_on_c, 0, 56, 45
1, 191079, Note_on_c, 0, 91, 51
1, 191101, Note_off_c, 0, 56, 56
1, 191107, Note_on_c, 0, 86, 71
1, 191107, Note_off_c, 0, 91, 52
1, 191123, Note_on_c, 0, 78, 89
1, 191136, Note_off_c, 0, 54, 60
1, 191142, Note_off_c, 0, 66, 60
1, 191155, Note_off_c, 0, 90, 59
1, 191157, Note_off_c, 0, 86, 66
1, 191183, Note_off_c, 0, 78, 59
1, 191190, Note_on_c, 0, 77, 51
1, 191214, Note_off_c, 0, 77, 58
1, 191220, Note_on_c, 0, 52, 87
1, 191220, Note_on_c, 0, 64, 97
1, 191226, Note_on_c, 0, 88, 101
1, 191229, Note_on_c, 0, 57, 76
1, 191247, Note_on_c, 0, 86, 81
1, 191294, Note_on_c, 0, 76, 63
1, 191305, Note_off_c, 0, 52, 62
1, 191323, Note_on_c, 0, 81, 84
1, 191326, Note_on_c, 0, 80, 34
1, 191328, Note_off_c, 0, 88, 66
1, 191333, Note_off_c, 0, 64, 62
1, 191341, Note_off_c, 0, 86, 63
1, 191354, Note_off_c, 0, 76, 65
1, 191363, Note_off_c, 0, 80, 58
1, 191418, Note_on_c, 0, 66, 102
1, 191419, Note_on_c, 0, 90, 98
1, 191430, Note_on_c, 0, 54, 78
1, 191432, Note_off_c, 0, 81, 64
1, 191445, Note_on_c, 0, 87, 57
1, 191453, Note_on_c, 0, 78, 69
1, 191489, Note_off_c, 0, 54, 58
1, 191490, Note_off_c, 0, 66, 66
1, 191524, Note_on_c, 0, 81, 73
1, 191530, Note_off_c, 0, 87, 63
1, 191536, Note_off_c, 0, 90, 60
1, 191552, Note_off_c, 0, 81, 63
1, 191563, Note_off_c, 0, 57, 59
1, 191564, Note_off_c, 0, 78, 60
1, 191604, Note_on_c, 0, 57, 74
1, 191612, Note_on_c, 0, 50, 85
1, 191613, Note_on_c, 0, 62, 91
1, 191619, Note_on_c, 0, 86, 94
1, 191632, Note_off_c, 0, 62, 73
1, 191691, Note_off_c, 0, 57, 59
1, 191692, Note_on_c, 0, 78, 85
1, 191695, Note_off_c, 0, 50, 63
1, 191768, Note_off_c, 0, 86, 58
1, 191781, Note_on_c, 0, 74, 87
1, 191833, Note_off_c, 0, 78, 57
1, 191873, Note_off_c, 0, 74, 63
1, 191922, Note_on_c, 0, 50, 96
1, 191924, Note_on_c, 0, 38, 98
1, 191946, Control_c, 0, 64, 88
1, 191961, Control_c, 0, 64, 55
1, 191976, Control_c, 0, 64, 0
1, 192020, Control_c, 0, 64, 44
1, 192035, Control_c, 0, 64, 64
1, 192050, Control_c, 0, 64, 79
1, 192065, Control_c, 0, 64, 110
1, 192079, Control_c, 0, 64, 127
1, 192128, Note_off_c, 0, 38, 63
1, 192143, Note_on_c, 0, 66, 86
1, 192168, Note_off_c, 0, 50, 65
1, 192210, Note_on_c, 0, 69, 79
1, 192233, Note_off_c, 0, 66, 62
1, 192269, Note_off_c, 0, 69, 62
1, 192270, Note_on_c, 0, 78, 87
1, 192297, Note_off_c, 0, 78, 60
1, 192362, Note_on_c, 0, 78, 88
1, 192391, Note_on_c, 0, 66, 84
1, 192393, Note_on_c, 0, 54, 68
1, 192396, Note_on_c, 0, 57, 53
1, 192425, Note_on_c, 0, 81, 90
1, 192463, Note_off_c, 0, 78, 58
1, 192472, Note_off_c, 0, 54, 59
1, 192488, Note_off_c, 0, 66, 61
1, 192496, Note_on_c, 0, 90, 76
1, 192509, Note_off_c, 0, 81, 60
1, 192517, Note_off_c, 0, 90, 71
1, 192549, Note_off_c, 0, 57, 0
1, 192567, Note_on_c, 0, 57, 47
1, 192568, Note_on_c, 0, 54, 83
1, 192568, Note_on_c, 0, 66, 93
1, 192568, Note_on_c, 0, 90, 104
1, 192606, Note_off_c, 0, 66, 66
1, 192629, Note_on_c, 0, 81, 90
1, 192630, Note_off_c, 0, 57, 64
1, 192635, Note_on_c, 0, 91, 4
1, 192635, Note_off_c, 0, 54, 59
1, 192686, Note_off_c, 0, 90, 61
1, 192693, Note_off_c, 0, 91, 31
1, 192701, Note_on_c, 0, 78, 92
1, 192727, Note_off_c, 0, 81, 64
1, 192742, Note_off_c, 0, 78, 64
1, 192764, Note_on_c, 0, 50, 92
1, 192776, Note_on_c, 0, 38, 79
1, 192793, Note_on_c, 0, 78, 97
1, 192798, Note_off_c, 0, 38, 67
1, 192811, Note_off_c, 0, 50, 65
1, 192848, Note_on_c, 0, 81, 74
1, 192868, Note_off_c, 0, 78, 59
1, 192897, Note_on_c, 0, 82, 14
1, 192901, Note_on_c, 0, 90, 94
1, 192904, Note_off_c, 0, 81, 65
1, 192937, Note_off_c, 0, 82, 45
1, 192938, Note_off_c, 0, 90, 64
1, 192973, Note_on_c, 0, 64, 95
1, 192978, Note_on_c, 0, 52, 77
1, 192982, Note_on_c, 0, 54, 68
1, 192984, Note_on_c, 0, 90, 85
1, 192985, Note_on_c, 0, 58, 79
1, 193041, Note_on_c, 0, 94, 96
1, 193099, Note_off_c, 0, 52, 60
1, 193105, Note_off_c, 0, 90, 64
1, 193107, Note_off_c, 0, 64, 61
1, 193119, Note_off_c, 0, 58, 63
1, 193125, Note_off_c, 0, 54, 61
1, 193125, Note_on_c, 0, 102, 89
1, 193130, Note_off_c, 0, 94, 66
1, 193158, Note_off_c, 0, 102, 0
1, 193181, Note_on_c, 0, 64, 98
1, 193187, Note_on_c, 0, 54, 72
1, 193187, Note_on_c, 0, 52, 85
1, 193189, Note_on_c, 0, 58, 80
1, 193195, Poly_aftertouch_c, 0, 102, 127
1, 193222, Note_off_c, 0, 64, 69
1, 193228, Note_on_c, 0, 94, 90
1, 193238, Note_on_c, 0, 103, 30
1, 193241, Note_off_c, 0, 58, 62
1, 193256, Note_off_c, 0, 52, 62
1, 193262, Note_off_c, 0, 54, 62
1, 193262, Poly_aftertouch_c, 0, 102, 0
1, 193281, Note_off_c, 0, 94, 63
1, 193285, Note_off_c, 0, 103, 37
1, 193286, Note_on_c, 0, 90, 71
1, 193301, Note_off_c, 0, 90, 66
1, 193364, Note_on_c, 0, 90, 97
1, 193384, Note_on_c, 0, 50, 92
1, 193384, Note_on_c, 0, 38, 88
1, 193414, Note_off_c, 0, 38, 68
1, 193419, Note_on_c, 0, 78, 85
1, 193436, Note_off_c, 0, 50, 65
1, 193446, Note_off_c, 0, 90, 61
1, 193504, Note_on_c, 0, 84, 76
1, 193506, Note_off_c, 0, 78, 60
1, 193549, Note_on_c, 0, 90, 84
1, 193562, Note_off_c, 0, 84, 60
1, 193584, Note_on_c, 0, 61, 103
1, 193590, Note_on_c, 0, 54, 81
1, 193593, Note_on_c, 0, 49, 82
1, 193602, Note_on_c, 0, 78, 99
1, 193640, Note_on_c, 0, 51, 19
1, 193676, Note_off_c, 0, 90, 62
1, 193686, Note_off_c, 0, 51, 43
1, 193691, Note_on_c, 0, 86, 85
1, 193692, Note_off_c, 0, 49, 58
1, 193699, Note_on_c, 0, 85, 41
1, 193713, Note_off_c, 0, 61, 56
1, 193728, Note_off_c, 0, 78, 56
1, 193733, Note_off_c, 0, 54, 59
1, 193778, Note_on_c, 0, 90, 91
1, 193784, Note_off_c, 0, 85, 38
1, 193787, Note_off_c, 0, 86, 57
1, 193921, Note_on_c, 0, 62, 108
1, 193923, Note_on_c, 0, 78, 102
1, 193926, Note_on_c, 0, 54, 90
1, 193927, Note_on_c, 0, 50, 94
1, 193955, Control_c, 0, 64, 66
1, 193970, Control_c, 0, 64, 0
1, 194014, Control_c, 0, 64, 37
1, 194028, Control_c, 0, 64, 59
1, 194029, Note_on_c, 0, 85, 81
1, 194030, Note_off_c, 0, 90, 61
1, 194043, Control_c, 0, 64, 77
1, 194060, Control_c, 0, 64, 127
1, 194095, Note_off_c, 0, 50, 59
1, 194114, Note_off_c, 0, 78, 55
1, 194119, Note_off_c, 0, 62, 59
1, 194135, Note_on_c, 0, 90, 85
1, 194151, Note_on_c, 0, 82, 11
1, 194195, Note_off_c, 0, 82, 37
1, 194204, Note_on_c, 0, 61, 95
1, 194214, Note_on_c, 0, 78, 97
1, 194220, Note_on_c, 0, 49, 74
1, 194258, Note_off_c, 0, 85, 59
1, 194260, Note_off_c, 0, 90, 62
1, 194276, Note_off_c, 0, 61, 62
1, 194281, Note_on_c, 0, 48, 12
1, 194285, Note_off_c, 0, 49, 61
1, 194292, Note_on_c, 0, 83, 80
1, 194303, Note_off_c, 0, 48, 0
1, 194305, Note_off_c, 0, 54, 60
1, 194323, Note_off_c, 0, 78, 57
1, 194329, Poly_aftertouch_c, 0, 48, 0
1, 194359, Note_on_c, 0, 90, 82
1, 194377, Note_off_c, 0, 83, 59
1, 194396, Note_on_c, 0, 47, 89
1, 194398, Note_on_c, 0, 59, 88
1, 194424, Note_on_c, 0, 78, 86
1, 194434, Note_off_c, 0, 59, 63
1, 194465, Note_off_c, 0, 90, 62
1, 194470, Note_off_c, 0, 47, 63
1, 194475, Note_on_c, 0, 81, 25
1, 194481, Note_on_c, 0, 83, 77
1, 194512, Note_off_c, 0, 81, 47
1, 194535, Note_off_c, 0, 78, 59
1, 194546, Note_on_c, 0, 90, 79
1, 194572, Note_off_c, 0, 83, 62
1, 194598, Note_off_c, 0, 90, 65
1, 194615, Control_c, 0, 64, 102
1, 194627, Note_on_c, 0, 26, 100
1, 194630, Note_on_c, 0, 38, 105
1, 194630, Control_c, 0, 64, 61
1, 194645, Control_c, 0, 64, 0
1, 194689, Control_c, 0, 64, 53
1, 194704, Control_c, 0, 64, 70
1, 194719, Control_c, 0, 64, 87
1, 194733, Control_c, 0, 64, 119
1, 194748, Control_c, 0, 64, 127
1, 194752, Note_off_c, 0, 26, 62
1, 194784, Note_off_c, 0, 38, 63
1, 194825, Note_on_c, 0, 66, 87
1, 194833, Poly_aftertouch_c, 0, 34, 127
1, 194869, Poly_aftertouch_c, 0, 34, 0
1, 194887, Note_on_c, 0, 69, 72
1, 194898, Note_off_c, 0, 66, 64
1, 194937, Note_off_c, 0, 69, 61
1, 194938, Note_on_c, 0, 78, 84
1, 194967, Note_off_c, 0, 78, 59
1, 195026, Note_on_c, 0, 78, 86
1, 195033, Note_on_c, 0, 66, 87
1, 195037, Note_on_c, 0, 57, 58
1, 195041, Note_on_c, 0, 54, 77
1, 195083, Note_on_c, 0, 81, 88
1, 195104, Note_off_c, 0, 78, 58
1, 195138, Note_off_c, 0, 54, 59
1, 195143, Note_off_c, 0, 66, 60
1, 195147, Poly_aftertouch_c, 0, 55, 127
1, 195153, Note_on_c, 0, 90, 69
1, 195179, Note_off_c, 0, 90, 69
1, 195182, Poly_aftertouch_c, 0, 55, 0
1, 195182, Note_off_c, 0, 81, 62
1, 195188, Note_off_c, 0, 57, 56
1, 195223, Note_on_c, 0, 90, 97
1, 195223, Note_on_c, 0, 66, 97
1, 195229, Note_on_c, 0, 54, 82
1, 195229, Note_on_c, 0, 57, 53
1, 195259, Note_off_c, 0, 66, 67
1, 195283, Note_on_c, 0, 80, 94
1, 195287, Note_off_c, 0, 57, 64
1, 195302, Note_off_c, 0, 54, 61
1, 195346, Note_off_c, 0, 90, 61
1, 195351, Note_off_c, 0, 80, 70
1, 195368, Note_on_c, 0, 81, 68
1, 195375, Note_on_c, 0, 78, 78
1, 195390, Note_off_c, 0, 81, 65
1, 195396, Note_off_c, 0, 78, 69
1, 195426, Note_on_c, 0, 50, 96
1, 195437, Note_on_c, 0, 38, 78
1, 195446, Note_on_c, 0, 78, 93
1, 195464, Note_off_c, 0, 38, 66
1, 195470, Note_off_c, 0, 50, 66
1, 195505, Note_on_c, 0, 81, 62
1, 195517, Note_off_c, 0, 78, 62
1, 195535, Note_on_c, 0, 82, 45
1, 195551, Note_on_c, 0, 90, 90
1, 195555, Note_off_c, 0, 81, 65
1, 195572, Note_off_c, 0, 82, 66
1, 195585, Note_off_c, 0, 90, 67
1, 195636, Note_on_c, 0, 90, 92
1, 195647, Note_on_c, 0, 64, 99
1, 195653, Note_on_c, 0, 58, 83
1, 195656, Note_on_c, 0, 52, 79
1, 195656, Note_on_c, 0, 54, 75
1, 195691, Note_on_c, 0, 94, 97
1, 195760, Note_off_c, 0, 90, 62
1, 195764, Note_off_c, 0, 52, 60
1, 195767, Note_off_c, 0, 64, 58
1, 195775, Note_on_c, 0, 102, 90
1, 195787, Note_off_c, 0, 58, 62
1, 195793, Note_off_c, 0, 54, 61
1, 195793, Note_off_c, 0, 94, 64
1, 195796, Note_off_c, 0, 102, 70
1, 195801, Note_on_c, 0, 101, 50
1, 195801, Note_off_c, 0, 101, 127
1, 195840, Note_on_c, 0, 102, 97
1, 195855, Note_on_c, 0, 64, 93
1, 195856, Note_on_c, 0, 58, 83
1, 195858, Note_on_c, 0, 52, 70
1, 195866, Note_on_c, 0, 50, 77
1, 195868, Note_on_c, 0, 62, 73
1, 195870, Note_on_c, 0, 54, 46
1, 195880, Note_on_c, 0, 53, 68
1, 195885, Note_on_c, 0, 94, 90
1, 195890, Note_off_c, 0, 62, 62
1, 195894, Note_off_c, 0, 64, 62
1, 195903, Note_off_c, 0, 58, 63
1, 195909, Note_off_c, 0, 54, 57
1, 195909, Note_off_c, 0, 53, 66
1, 195919, Note_off_c, 0, 102, 67
1, 195921, Note_off_c, 0, 52, 59
1, 195924, Note_off_c, 0, 50, 62
1, 195939, Note_on_c, 0, 90, 90
1, 195949, Note_off_c, 0, 94, 65
1, 195958, Note_off_c, 0, 90, 70
1, 196037, Note_on_c, 0, 90, 98
1, 196055, Note_on_c, 0, 50, 97
1, 196063, Note_on_c, 0, 38, 85
1, 196093, Note_off_c, 0, 38, 66
1, 196094, Note_on_c, 0, 78, 94
1, 196106, Note_off_c, 0, 50, 68
1, 196108, Note_off_c, 0, 90, 62
1, 196158, Note_off_c, 0, 78, 64
1, 196178, Note_on_c, 0, 90, 90
1, 196201, Note_off_c, 0, 90, 65
1, 196213, Note_on_c, 0, 91, 48
1, 196242, Note_off_c, 0, 91, 48
1, 196264, Note_on_c, 0, 85, 104
1, 196273, Note_on_c, 0, 61, 104
1, 196281, Note_on_c, 0, 49, 82
1, 196281, Note_on_c, 0, 54, 79
1, 196347, Note_on_c, 0, 90, 92
1, 196359, Poly_aftertouch_c, 0, 51, 127
1, 196386, Note_off_c, 0, 49, 58
1, 196392, Note_off_c, 0, 85, 61
1, 196410, Poly_aftertouch_c, 0, 51, 0
1, 196414, Note_off_c, 0, 61, 57
1, 196430, Note_off_c, 0, 54, 58
1, 196437, Note_on_c, 0, 97, 93
1, 196479, Note_off_c, 0, 90, 59
1, 196550, Note_off_c, 0, 97, 63
1, 196573, Note_on_c, 0, 86, 103
1, 196579, Note_on_c, 0, 62, 104
1, 196584, Note_on_c, 0, 54, 91
1, 196585, Note_on_c, 0, 50, 91
1, 196600, Control_c, 0, 64, 73
1, 196615, Control_c, 0, 64, 0
1, 196659, Note_on_c, 0, 90, 88
1, 196660, Control_c, 0, 64, 47
1, 196675, Control_c, 0, 64, 66
1, 196690, Control_c, 0, 64, 88
1, 196705, Control_c, 0, 64, 127
1, 196710, Note_off_c, 0, 50, 60
1, 196738, Note_off_c, 0, 86, 61
1, 196739, Note_off_c, 0, 62, 57
1, 196757, Note_on_c, 0, 98, 84
1, 196770, Poly_aftertouch_c, 0, 53, 127
1, 196806, Poly_aftertouch_c, 0, 53, 0
1, 196813, Note_off_c, 0, 90, 63
1, 196824, Note_off_c, 0, 54, 0
1, 196845, Note_on_c, 0, 85, 99
1, 196851, Note_on_c, 0, 61, 90
1, 196859, Note_on_c, 0, 49, 72
1, 196860, Poly_aftertouch_c, 0, 54, 127
1, 196870, Note_off_c, 0, 98, 64
1, 196913, Note_on_c, 0, 90, 84
1, 196937, Note_off_c, 0, 49, 60
1, 196945, Note_off_c, 0, 61, 61
1, 196960, Note_off_c, 0, 85, 57
1, 196974, Note_on_c, 0, 97, 90
1, 196996, Poly_aftertouch_c, 0, 54, 0
1, 196998, Note_off_c, 0, 90, 63
1, 197034, Note_off_c, 0, 97, 65
1, 197041, Note_on_c, 0, 59, 92
1, 197043, Note_on_c, 0, 54, 59
1, 197049, Note_on_c, 0, 47, 75
1, 197054, Note_on_c, 0, 83, 97
1, 197079, Note_off_c, 0, 59, 66
1, 197101, Note_on_c, 0, 90, 78
1, 197107, Note_off_c, 0, 47, 62
1, 197107, Note_off_c, 0, 54, 60
1, 197125, Note_on_c, 0, 95, 77
1, 197150, Note_off_c, 0, 83, 60
1, 197155, Note_on_c, 0, 89, 17
1, 197191, Note_off_c, 0, 90, 64
1, 197194, Note_off_c, 0, 95, 65
1, 197206, Note_off_c, 0, 89, 35
1, 197236, Note_on_c, 0, 45, 95
1, 197241, Note_on_c, 0, 38, 95
1, 197276, Control_c, 0, 64, 80
1, 197291, Control_c, 0, 64, 47
1, 197300, Note_off_c, 0, 45, 62
1, 197303, Note_on_c, 0, 46, 73
1, 197306, Control_c, 0, 64, 0
1, 197345, Note_off_c, 0, 38, 59
1, 197390, Note_on_c, 0, 49, 77
1, 197423, Note_off_c, 0, 46, 62
1, 197440, Note_off_c, 0, 49, 61
1, 197441, Note_on_c, 0, 90, 88
1, 197444, Note_on_c, 0, 78, 77
1, 197446, Note_on_c, 0, 50, 73
1, 197452, Note_on_c, 0, 86, 56
1, 197468, Note_off_c, 0, 78, 64
1, 197472, Note_off_c, 0, 90, 59
1, 197473, Note_off_c, 0, 86, 59
1, 197481, Note_off_c, 0, 50, 65
1, 197516, Note_on_c, 0, 52, 74
1, 197579, Note_on_c, 0, 53, 73
1, 197591, Note_off_c, 0, 52, 56
1, 197617, Note_on_c, 0, 80, 88
1, 197620, Note_on_c, 0, 92, 86
1, 197623, Note_on_c, 0, 90, 81
1, 197626, Note_on_c, 0, 54, 67
1, 197644, Note_off_c, 0, 80, 66
1, 197646, Note_off_c, 0, 53, 62
1, 197651, Note_off_c, 0, 92, 59
1, 197653, Note_off_c, 0, 90, 63
1, 197661, Note_off_c, 0, 54, 65
1, 197662, Note_on_c, 0, 55, 75
1, 197711, Note_off_c, 0, 55, 61
1, 197735, Note_on_c, 0, 56, 77
1, 197771, Note_on_c, 0, 95, 103
1, 197787, Note_on_c, 0, 93, 94
1, 197793, Note_off_c, 0, 56, 64
1, 197800, Note_on_c, 0, 57, 85
1, 197802, Control_c, 0, 64, 42
1, 197806, Note_on_c, 0, 81, 91
1, 197815, Note_on_c, 0, 90, 94
1, 197817, Control_c, 0, 64, 76
1, 197831, Note_on_c, 0, 83, 54
1, 197832, Control_c, 0, 64, 99
1, 197847, Control_c, 0, 64, 127
1, 197848, Note_off_c, 0, 57, 62
1, 197853, Note_off_c, 0, 83, 60
1, 197861, Note_on_c, 0, 58, 84
1, 197871, Note_off_c, 0, 95, 64
1, 197882, Note_off_c, 0, 93, 62
1, 197888, Note_off_c, 0, 81, 64
1, 197919, Note_on_c, 0, 61, 78
1, 197936, Note_off_c, 0, 90, 62
1, 197948, Note_off_c, 0, 58, 61
1, 197965, Control_c, 0, 64, 105
1, 197968, Note_off_c, 0, 61, 63
1, 197976, Note_on_c, 0, 62, 70
1, 197980, Control_c, 0, 64, 87
1, 197995, Control_c, 0, 64, 72
1, 197998, Note_on_c, 0, 92, 79
1, 198009, Control_c, 0, 64, 60
1, 198010, Note_on_c, 0, 80, 67
1, 198012, Note_off_c, 0, 62, 63
1, 198024, Control_c, 0, 64, 48
1, 198037, Note_off_c, 0, 80, 67
1, 198039, Control_c, 0, 64, 42
1, 198043, Note_off_c, 0, 92, 62
1, 198047, Note_on_c, 0, 64, 76
1, 198105, Note_on_c, 0, 65, 70
1, 198106, Note_off_c, 0, 64, 66
1, 198162, Note_on_c, 0, 66, 87
1, 198163, Note_off_c, 0, 65, 64
1, 198170, Note_on_c, 0, 90, 100
1, 198175, Note_on_c, 0, 78, 96
1, 198180, Note_off_c, 0, 66, 73
1, 198203, Control_c, 0, 64, 42
1, 198211, Note_on_c, 0, 91, 37
1, 198218, Control_c, 0, 64, 41
1, 198219, Note_off_c, 0, 90, 66
1, 198222, Note_off_c, 0, 78, 62
1, 198233, Control_c, 0, 64, 40
1, 198247, Note_off_c, 0, 91, 34
1, 198247, Control_c, 0, 64, 39
1, 198291, Control_c, 0, 64, 43
1, 198306, Control_c, 0, 64, 52
1, 198329, Control_c, 0, 64, 62
1, 198344, Control_c, 0, 64, 69
1, 198359, Control_c, 0, 64, 78
1, 198367, Note_on_c, 0, 50, 97
1, 198372, Note_on_c, 0, 38, 91
1, 198373, Control_c, 0, 64, 84
1, 198388, Control_c, 0, 64, 87
1, 198397, Note_off_c, 0, 38, 67
1, 198403, Control_c, 0, 64, 89
1, 198413, Note_off_c, 0, 50, 67
1, 198418, Control_c, 0, 64, 91
1, 198432, Control_c, 0, 64, 92
1, 198447, Control_c, 0, 64, 93
1, 198462, Control_c, 0, 64, 94
1, 198521, Control_c, 0, 64, 93
1, 198526, Note_on_c, 0, 66, 74
1, 198536, Control_c, 0, 64, 90
1, 198549, Note_on_c, 0, 64, 82
1, 198551, Note_on_c, 0, 52, 74
1, 198551, Control_c, 0, 64, 81
1, 198559, Note_off_c, 0, 66, 65
1, 198562, Note_on_c, 0, 54, 68
1, 198566, Control_c, 0, 64, 69
1, 198576, Note_off_c, 0, 64, 63
1, 198577, Note_off_c, 0, 52, 68
1, 198580, Control_c, 0, 64, 57
1, 198582, Note_on_c, 0, 67, 80
1, 198592, Note_off_c, 0, 54, 64
1, 198595, Control_c, 0, 64, 40
1, 198610, Control_c, 0, 64, 0
1, 198639, Note_on_c, 0, 70, 81
1, 198642, Note_off_c, 0, 67, 62
1, 198678, Note_on_c, 0, 71, 67
1, 198704, Note_on_c, 0, 73, 82
1, 198706, Note_off_c, 0, 70, 65
1, 198721, Note_off_c, 0, 71, 64
1, 198728, Note_on_c, 0, 61, 91
1, 198739, Note_on_c, 0, 49, 71
1, 198740, Note_off_c, 0, 73, 67
1, 198747, Note_on_c, 0, 54, 46
1, 198759, Note_on_c, 0, 74, 88
1, 198768, Note_off_c, 0, 49, 65
1, 198777, Note_off_c, 0, 61, 60
1, 198784, Note_off_c, 0, 54, 34
1, 198809, Note_on_c, 0, 76, 76
1, 198813, Note_off_c, 0, 74, 66
1, 198861, Note_on_c, 0, 78, 84
1, 198881, Note_off_c, 0, 76, 62
1, 198909, Note_off_c, 0, 78, 60
1, 198924, Note_on_c, 0, 79, 86
1, 198936, Note_on_c, 0, 62, 102
1, 198937, Control_c, 0, 64, 52
1, 198943, Note_on_c, 0, 50, 92
1, 198947, Note_on_c, 0, 54, 83
1, 198952, Control_c, 0, 64, 83
1, 198967, Control_c, 0, 64, 103
1, 198977, Note_on_c, 0, 53, 57
1, 198979, Note_on_c, 0, 82, 91
1, 198994, Note_off_c, 0, 79, 65
1, 199011, Control_c, 0, 64, 112
1, 199018, Note_off_c, 0, 50, 61
1, 199021, Note_on_c, 0, 83, 77
1, 199026, Control_c, 0, 64, 115
1, 199030, Note_off_c, 0, 62, 63
1, 199057, Note_on_c, 0, 85, 84
1, 199061, Note_off_c, 0, 54, 57
1, 199075, Note_off_c, 0, 82, 58
1, 199077, Note_off_c, 0, 53, 0
1, 199077, Note_on_c, 0, 53, 15
1, 199087, Note_off_c, 0, 83, 64
1, 199104, Note_off_c, 0, 85, 68
1, 199110, Note_off_c, 0, 53, 36
1, 199127, Note_on_c, 0, 86, 90
1, 199137, Control_c, 0, 64, 112
1, 199152, Control_c, 0, 64, 101
1, 199164, Note_on_c, 0, 61, 84
1, 199167, Control_c, 0, 64, 85
1, 199170, Note_on_c, 0, 49, 80
1, 199173, Note_on_c, 0, 88, 88
1, 199182, Control_c, 0, 64, 71
1, 199183, Note_off_c, 0, 86, 65
1, 199196, Control_c, 0, 64, 59
1, 199204, Note_off_c, 0, 49, 62
1, 199211, Control_c, 0, 64, 42
1, 199213, Note_off_c, 0, 61, 64
1, 199225, Note_on_c, 0, 90, 92
1, 199226, Control_c, 0, 64, 29
1, 199247, Note_off_c, 0, 88, 63
1, 199275, Note_off_c, 0, 90, 65
1, 199301, Note_on_c, 0, 91, 83
1, 199315, Control_c, 0, 64, 31
1, 199329, Control_c, 0, 64, 33
1, 199344, Control_c, 0, 64, 35
1, 199359, Note_on_c, 0, 94, 91
1, 199359, Control_c, 0, 64, 38
1, 199362, Note_off_c, 0, 91, 68
1, 199366, Note_on_c, 0, 59, 79
1, 199374, Note_on_c, 0, 47, 79
1, 199374, Control_c, 0, 64, 42
1, 199389, Control_c, 0, 64, 46
1, 199391, Note_off_c, 0, 59, 69
1, 199395, Note_on_c, 0, 95, 75
1, 199403, Control_c, 0, 64, 50
1, 199407, Note_off_c, 0, 47, 64
1, 199417, Control_c, 0, 64, 54
1, 199421, Note_on_c, 0, 97, 82
1, 199428, Note_off_c, 0, 94, 63
1, 199428, Note_off_c, 0, 95, 65
1, 199432, Control_c, 0, 64, 57
1, 199445, Note_off_c, 0, 97, 68
1, 199447, Control_c, 0, 64, 61
1, 199462, Control_c, 0, 64, 64
1, 199477, Control_c, 0, 64, 68
1, 199477, Note_on_c, 0, 98, 83
1, 199492, Control_c, 0, 64, 72
1, 199507, Control_c, 0, 64, 77
1, 199521, Control_c, 0, 64, 87
1, 199533, Note_off_c, 0, 98, 67
1, 199535, Note_on_c, 0, 100, 79
1, 199536, Control_c, 0, 64, 114
1, 199551, Control_c, 0, 64, 127
1, 199556, Note_on_c, 0, 102, 105
1, 199567, Note_on_c, 0, 45, 87
1, 199571, Note_on_c, 0, 38, 87
1, 199574, Note_off_c, 0, 100, 69
1, 199589, Note_off_c, 0, 102, 69
1, 199605, Note_on_c, 0, 46, 79
1, 199614, Note_off_c, 0, 45, 63
1, 199625, Note_off_c, 0, 38, 57
1, 199670, Control_c, 0, 64, 90
1, 199680, Poly_aftertouch_c, 0, 43, 0
1, 199680, Note_on_c, 0, 49, 79
1, 199685, Control_c, 0, 64, 70
1, 199700, Control_c, 0, 64, 58
1, 199709, Note_off_c, 0, 46, 62
1, 199715, Control_c, 0, 64, 45
1, 199719, Note_off_c, 0, 49, 59
1, 199729, Note_on_c, 0, 50, 76
1, 199730, Control_c, 0, 64, 39
1, 199735, Note_on_c, 0, 90, 92
1, 199743, Note_on_c, 0, 78, 74
1, 199759, Note_off_c, 0, 50, 68
1, 199759, Note_off_c, 0, 78, 66
1, 199766, Note_off_c, 0, 90, 65
1, 199789, Control_c, 0, 64, 38
1, 199802, Note_on_c, 0, 52, 70
1, 199804, Control_c, 0, 64, 37
1, 199826, Control_c, 0, 64, 35
1, 199841, Control_c, 0, 64, 33
1, 199852, Note_on_c, 0, 53, 68
1, 199856, Control_c, 0, 64, 31
1, 199871, Control_c, 0, 64, 29
1, 199885, Control_c, 0, 64, 0
1, 199891, Note_on_c, 0, 54, 72
1, 199913, Note_off_c, 0, 52, 46
1, 199915, Note_on_c, 0, 92, 102
1, 199917, Note_on_c, 0, 80, 91
1, 199919, Note_off_c, 0, 53, 63
1, 199928, Note_off_c, 0, 54, 61
1, 199938, Note_off_c, 0, 80, 67
1, 199942, Note_on_c, 0, 55, 78
1, 199946, Note_on_c, 0, 90, 34
1, 199946, Note_off_c, 0, 90, 127
1, 199954, Note_off_c, 0, 92, 68
1, 199969, Note_off_c, 0, 55, 67
1, 199974, Control_c, 0, 64, 29
1, 199989, Control_c, 0, 64, 32
1, 200002, Note_on_c, 0, 56, 82
1, 200004, Control_c, 0, 64, 35
1, 200019, Control_c, 0, 64, 41
1, 200033, Control_c, 0, 64, 49
1, 200048, Control_c, 0, 64, 55
1, 200052, Note_off_c, 0, 56, 65
1, 200063, Control_c, 0, 64, 58
1, 200066, Note_on_c, 0, 95, 91
1, 200067, Note_on_c, 0, 57, 80
1, 200072, Note_on_c, 0, 93, 88
1, 200077, Control_c, 0, 64, 58
1, 200092, Control_c, 0, 64, 59
1, 200094, Note_on_c, 0, 81, 83
1, 200100, Note_off_c, 0, 57, 62
1, 200101, Note_on_c, 0, 90, 88
1, 200107, Control_c, 0, 64, 59
1, 200110, Note_on_c, 0, 58, 89
1, 200122, Control_c, 0, 64, 60
1, 200135, Note_off_c, 0, 95, 66
1, 200136, Note_on_c, 0, 83, 25
1, 200136, Note_off_c, 0, 81, 65
1, 200137, Control_c, 0, 64, 60
1, 200140, Note_off_c, 0, 93, 62
1, 200151, Control_c, 0, 64, 61
1, 200167, Control_c, 0, 64, 61
1, 200169, Note_off_c, 0, 90, 64
1, 200174, Note_on_c, 0, 61, 84
1, 200174, Note_off_c, 0, 83, 35
1, 200182, Control_c, 0, 64, 62
1, 200192, Note_off_c, 0, 58, 62
1, 200197, Control_c, 0, 64, 62
1, 200212, Control_c, 0, 64, 63
1, 200213, Note_off_c, 0, 61, 63
1, 200218, Note_on_c, 0, 62, 79
1, 200226, Control_c, 0, 64, 63
1, 200252, Note_off_c, 0, 62, 64
1, 200266, Note_on_c, 0, 92, 84
1, 200275, Note_on_c, 0, 80, 70
1, 200300, Note_off_c, 0, 80, 67
1, 200300, Control_c, 0, 64, 63
1, 200301, Note_on_c, 0, 64, 79
1, 200324, Note_off_c, 0, 92, 64
1, 200330, Control_c, 0, 64, 62
1, 200345, Control_c, 0, 64, 61
1, 200354, Note_on_c, 0, 65, 74
1, 200359, Control_c, 0, 64, 61
1, 200374, Control_c, 0, 64, 60
1, 200402, Note_off_c, 0, 65, 65
1, 200404, Control_c, 0, 64, 61
1, 200407, Note_off_c, 0, 64, 35
1, 200413, Note_on_c, 0, 66, 98
1, 200427, Note_on_c, 0, 90, 91
1, 200431, Note_on_c, 0, 78, 94
1, 200436, Note_off_c, 0, 66, 71
1, 200466, Note_on_c, 0, 91, 43
1, 200466, Note_off_c, 0, 78, 61
1, 200474, Note_off_c, 0, 90, 64
1, 200479, Control_c, 0, 64, 60
1, 200494, Control_c, 0, 64, 59
1, 200500, Note_off_c, 0, 91, 37
1, 200508, Control_c, 0, 64, 57
1, 200523, Control_c, 0, 64, 54
1, 200538, Control_c, 0, 64, 51
1, 200575, Control_c, 0, 64, 52
1, 200590, Control_c, 0, 64, 55
1, 200605, Control_c, 0, 64, 60
1, 200616, Note_on_c, 0, 50, 99
1, 200620, Control_c, 0, 64, 63
1, 200627, Note_on_c, 0, 40, 70
1, 200635, Control_c, 0, 64, 65
1, 200641, Note_on_c, 0, 38, 53
1, 200649, Control_c, 0, 64, 68
1, 200651, Note_off_c, 0, 40, 65
1, 200657, Note_off_c, 0, 50, 66
1, 200664, Control_c, 0, 64, 70
1, 200674, Note_off_c, 0, 38, 54
1, 200679, Control_c, 0, 64, 72
1, 200693, Control_c, 0, 64, 74
1, 200708, Control_c, 0, 64, 75
1, 200723, Control_c, 0, 64, 76
1, 200738, Poly_aftertouch_c, 0, 70, 127
1, 200738, Control_c, 0, 64, 77
1, 200768, Control_c, 0, 64, 76
1, 200771, Note_on_c, 0, 66, 70
1, 200780, Poly_aftertouch_c, 0, 70, 0
1, 200783, Control_c, 0, 64, 75
1, 200785, Note_on_c, 0, 64, 85
1, 200798, Note_on_c, 0, 52, 59
1, 200798, Note_on_c, 0, 54, 65
1, 200798, Control_c, 0, 64, 69
1, 200798, Note_off_c, 0, 66, 69
1, 200810, Note_off_c, 0, 64, 66
1, 200813, Note_on_c, 0, 67, 82
1, 200813, Control_c, 0, 64, 61
1, 200821, Note_off_c, 0, 52, 60
1, 200826, Note_off_c, 0, 54, 67
1, 200827, Control_c, 0, 64, 48
1, 200842, Control_c, 0, 64, 34
1, 200851, Note_on_c, 0, 50, 3
1, 200857, Control_c, 0, 64, 30
1, 200871, Note_on_c, 0, 70, 85
1, 200872, Control_c, 0, 64, 32
1, 200875, Note_off_c, 0, 67, 63
1, 200887, Control_c, 0, 64, 34
1, 200887, Note_off_c, 0, 50, 44
1, 200901, Control_c, 0, 64, 35
1, 200904, Note_on_c, 0, 71, 71
1, 200916, Control_c, 0, 64, 35
1, 200931, Control_c, 0, 64, 36
1, 200932, Note_on_c, 0, 73, 79
1, 200934, Note_off_c, 0, 70, 63
1, 200946, Control_c, 0, 64, 36
1, 200950, Note_off_c, 0, 71, 63
1, 200961, Control_c, 0, 64, 37
1, 200966, Note_off_c, 0, 73, 66
1, 200969, Note_on_c, 0, 61, 92
1, 200975, Control_c, 0, 64, 38
1, 200982, Note_on_c, 0, 49, 70
1, 200983, Note_on_c, 0, 74, 86
1, 200987, Note_on_c, 0, 54, 66
1, 200990, Control_c, 0, 64, 39
1, 201005, Control_c, 0, 64, 39
1, 201012, Note_off_c, 0, 49, 65
1, 201015, Note_off_c, 0, 61, 59
1, 201016, Note_off_c, 0, 54, 66
1, 201019, Control_c, 0, 64, 40
1, 201029, Note_on_c, 0, 76, 83
1, 201033, Note_off_c, 0, 74, 67
1, 201049, Control_c, 0, 64, 41
1, 201064, Control_c, 0, 64, 42
1, 201075, Note_on_c, 0, 78, 91
1, 201079, Control_c, 0, 64, 44
1, 201093, Control_c, 0, 64, 47
1, 201097, Note_off_c, 0, 76, 63
1, 201108, Control_c, 0, 64, 55
1, 201123, Control_c, 0, 64, 62
1, 201126, Note_off_c, 0, 78, 62
1, 201137, Note_on_c, 0, 79, 87
1, 201138, Control_c, 0, 64, 66
1, 201153, Control_c, 0, 64, 68
1, 201155, Note_on_c, 0, 62, 101
1, 201160, Note_on_c, 0, 50, 93
1, 201161, Note_on_c, 0, 54, 92
1, 201167, Control_c, 0, 64, 69
1, 201194, Note_on_c, 0, 82, 93
1, 201197, Control_c, 0, 64, 69
1, 201213, Note_off_c, 0, 79, 63
1, 201221, Note_off_c, 0, 50, 59
1, 201228, Note_on_c, 0, 83, 80
1, 201242, Note_off_c, 0, 62, 59
1, 201264, Note_on_c, 0, 85, 87
1, 201268, Note_off_c, 0, 54, 59
1, 201272, Control_c, 0, 64, 70
1, 201273, Note_off_c, 0, 82, 59
1, 201285, Note_off_c, 0, 83, 63
1, 201302, Poly_aftertouch_c, 0, 53, 0
1, 201305, Note_off_c, 0, 85, 68
1, 201330, Note_on_c, 0, 86, 83
1, 201354, Control_c, 0, 64, 69
1, 201366, Note_on_c, 0, 61, 87
1, 201369, Control_c, 0, 64, 67
1, 201373, Note_on_c, 0, 49, 80
1, 201375, Note_on_c, 0, 88, 89
1, 201384, Control_c, 0, 64, 63
1, 201385, Note_off_c, 0, 86, 65
1, 201398, Control_c, 0, 64, 55
1, 201406, Note_off_c, 0, 49, 64
1, 201413, Control_c, 0, 64, 44
1, 201416, Note_off_c, 0, 61, 64
1, 201425, Note_on_c, 0, 90, 91
1, 201428, Control_c, 0, 64, 37
1, 201442, Control_c, 0, 64, 34
1, 201449, Note_off_c, 0, 88, 65
1, 201473, Note_off_c, 0, 90, 66
1, 201492, Note_on_c, 0, 91, 91
1, 201502, Control_c, 0, 64, 35
1, 201516, Control_c, 0, 64, 35
1, 201531, Control_c, 0, 64, 37
1, 201545, Note_on_c, 0, 94, 86
1, 201546, Control_c, 0, 64, 41
1, 201548, Note_on_c, 0, 60, 73
1, 201548, Note_off_c, 0, 91, 69
1, 201555, Note_on_c, 0, 48, 74
1, 201561, Control_c, 0, 64, 49
1, 201573, Note_on_c, 0, 59, 53
1, 201573, Note_off_c, 0, 60, 66
1, 201576, Control_c, 0, 64, 58
1, 201581, Note_on_c, 0, 95, 73
1, 201581, Note_off_c, 0, 48, 66
1, 201591, Control_c, 0, 64, 64
1, 201596, Note_off_c, 0, 59, 60
1, 201598, Note_on_c, 0, 97, 81
1, 201604, Note_off_c, 0, 95, 71
1, 201605, Control_c, 0, 64, 67
1, 201606, Note_off_c, 0, 94, 64
1, 201620, Control_c, 0, 64, 71
1, 201625, Note_off_c, 0, 97, 65
1, 201635, Control_c, 0, 64, 75
1, 201650, Control_c, 0, 64, 79
1, 201655, Note_on_c, 0, 98, 91
1, 201665, Control_c, 0, 64, 86
1, 201680, Control_c, 0, 64, 96
1, 201695, Control_c, 0, 64, 114
1, 201709, Note_on_c, 0, 100, 93
1, 201710, Note_on_c, 0, 102, 104
1, 201710, Control_c, 0, 64, 127
1, 201716, Note_off_c, 0, 98, 66
1, 201722, Note_on_c, 0, 42, 89
1, 201722, Note_on_c, 0, 49, 90
1, 201725, Note_off_c, 0, 100, 75
1, 201751, Note_off_c, 0, 102, 69
1, 201773, Note_on_c, 0, 50, 75
1, 201796, Note_off_c, 0, 42, 61
1, 201805, Note_off_c, 0, 49, 62
1, 201813, Control_c, 0, 64, 107
1, 201826, Note_on_c, 0, 53, 81
1, 201826, Note_off_c, 0, 50, 64
1, 201828, Control_c, 0, 64, 88
1, 201842, Control_c, 0, 64, 76
1, 201857, Control_c, 0, 64, 67
1, 201872, Control_c, 0, 64, 59
1, 201873, Note_off_c, 0, 53, 64
1, 201887, Control_c, 0, 64, 50
1, 201899, Note_on_c, 0, 94, 102
1, 201902, Control_c, 0, 64, 46
1, 201904, Note_on_c, 0, 82, 86
1, 201908, Note_on_c, 0, 54, 79
1, 201916, Control_c, 0, 64, 45
1, 201924, Note_off_c, 0, 82, 67
1, 201931, Control_c, 0, 64, 44
1, 201946, Control_c, 0, 64, 43
1, 201948, Note_off_c, 0, 94, 60
1, 201955, Note_on_c, 0, 95, 12
1, 201955, Note_off_c, 0, 95, 127
1, 201956, Note_on_c, 0, 56, 81
1, 201961, Control_c, 0, 64, 42
1, 201976, Control_c, 0, 64, 40
1, 201983, Note_off_c, 0, 54, 60
1, 201990, Control_c, 0, 64, 39
1, 201999, Note_off_c, 0, 56, 63
1, 202005, Control_c, 0, 64, 39
1, 202011, Note_on_c, 0, 57, 77
1, 202055, Note_off_c, 0, 57, 61
1, 202057, Note_on_c, 0, 96, 98
1, 202079, Note_on_c, 0, 58, 80
1, 202085, Note_on_c, 0, 83, 58
1, 202085, Note_on_c, 0, 84, 68
1, 202103, Note_off_c, 0, 84, 67
1, 202105, Note_off_c, 0, 96, 69
1, 202106, Note_off_c, 0, 83, 62
1, 202136, Note_on_c, 0, 59, 69
1, 202159, Note_off_c, 0, 58, 64
1, 202162, Control_c, 0, 64, 39
1, 202171, Note_off_c, 0, 59, 66
1, 202177, Control_c, 0, 64, 41
1, 202192, Control_c, 0, 64, 45
1, 202206, Note_on_c, 0, 62, 61
1, 202207, Control_c, 0, 64, 53
1, 202212, Note_on_c, 0, 60, 50
1, 202221, Control_c, 0, 64, 63
1, 202225, Note_off_c, 0, 62, 62
1, 202230, Note_on_c, 0, 99, 89
1, 202234, Note_on_c, 0, 97, 95
1, 202236, Control_c, 0, 64, 72
1, 202237, Note_off_c, 0, 60, 56
1, 202237, Note_on_c, 0, 85, 104
1, 202249, Note_on_c, 0, 61, 79
1, 202249, Note_on_c, 0, 94, 79
1, 202251, Control_c, 0, 64, 80
1, 202264, Note_on_c, 0, 98, 49
1, 202265, Control_c, 0, 64, 83
1, 202275, Note_off_c, 0, 99, 65
1, 202280, Control_c, 0, 64, 84
1, 202283, Note_on_c, 0, 62, 74
1, 202288, Note_off_c, 0, 98, 58
1, 202295, Control_c, 0, 64, 85
1, 202307, Note_off_c, 0, 61, 64
1, 202310, Control_c, 0, 64, 85
1, 202312, Note_off_c, 0, 97, 65
1, 202314, Note_off_c, 0, 62, 63
1, 202318, Note_off_c, 0, 85, 60
1, 202325, Note_off_c, 0, 94, 61
1, 202325, Control_c, 0, 64, 86
1, 202339, Note_on_c, 0, 65, 77
1, 202339, Control_c, 0, 64, 86
1, 202377, Note_off_c, 0, 65, 61
1, 202384, Control_c, 0, 64, 87
1, 202412, Note_on_c, 0, 66, 85
1, 202412, Note_on_c, 0, 96, 90
1, 202424, Note_on_c, 0, 84, 69
1, 202443, Control_c, 0, 64, 87
1, 202448, Note_off_c, 0, 84, 67
1, 202458, Control_c, 0, 64, 88
1, 202471, Note_on_c, 0, 68, 71
1, 202473, Note_off_c, 0, 96, 67
1, 202473, Control_c, 0, 64, 88
1, 202488, Control_c, 0, 64, 89
1, 202502, Note_off_c, 0, 66, 65
1, 202519, Note_off_c, 0, 68, 65
1, 202527, Note_on_c, 0, 69, 83
1, 202547, Control_c, 0, 64, 86
1, 202562, Control_c, 0, 64, 78
1, 202570, Note_on_c, 0, 94, 103
1, 202571, Note_on_c, 0, 82, 100
1, 202574, Note_on_c, 0, 70, 93
1, 202577, Note_off_c, 0, 69, 65
1, 202577, Control_c, 0, 64, 68
1, 202591, Control_c, 0, 64, 57
1, 202597, Note_off_c, 0, 70, 64
1, 202605, Note_off_c, 0, 94, 66
1, 202606, Control_c, 0, 64, 40
1, 202613, Note_off_c, 0, 82, 64
1, 202621, Control_c, 0, 64, 0
1, 202725, Control_c, 0, 64, 31
1, 202739, Control_c, 0, 64, 50
1, 202744, Note_on_c, 0, 54, 100
1, 202745, Note_on_c, 0, 42, 93
1, 202754, Control_c, 0, 64, 63
1, 202769, Note_off_c, 0, 42, 70
1, 202769, Control_c, 0, 64, 70
1, 202780, Note_off_c, 0, 54, 62
1, 202784, Control_c, 0, 64, 76
1, 202798, Control_c, 0, 64, 80
1, 202821, Control_c, 0, 64, 82
1, 202836, Control_c, 0, 64, 84
1, 202851, Control_c, 0, 64, 86
1, 202866, Control_c, 0, 64, 86
1, 202881, Control_c, 0, 64, 87
1, 202905, Note_on_c, 0, 70, 68
1, 202911, Control_c, 0, 64, 86
1, 202926, Control_c, 0, 64, 86
1, 202928, Note_on_c, 0, 68, 87
1, 202930, Note_off_c, 0, 70, 70
1, 202941, Control_c, 0, 64, 83
1, 202941, Note_on_c, 0, 58, 67
1, 202943, Note_on_c, 0, 71, 86
1, 202947, Note_on_c, 0, 56, 55
1, 202956, Control_c, 0, 64, 76
1, 202970, Control_c, 0, 64, 70
1, 202972, Note_off_c, 0, 56, 60
1, 202974, Note_off_c, 0, 58, 65
1, 202977, Note_off_c, 0, 68, 60
1, 202985, Control_c, 0, 64, 63
1, 203000, Control_c, 0, 64, 55
1, 203004, Note_off_c, 0, 71, 62
1, 203007, Note_on_c, 0, 74, 80
1, 203014, Control_c, 0, 64, 50
1, 203044, Control_c, 0, 64, 50
1, 203048, Note_on_c, 0, 75, 77
1, 203054, Note_off_c, 0, 74, 60
1, 203069, Note_off_c, 0, 75, 71
1, 203096, Note_on_c, 0, 77, 87
1, 203099, Note_on_c, 0, 65, 90
1, 203103, Control_c, 0, 64, 51
1, 203105, Note_on_c, 0, 53, 80
1, 203110, Note_on_c, 0, 58, 75
1, 203127, Note_off_c, 0, 65, 67
1, 203128, Note_off_c, 0, 53, 70
1, 203136, Note_off_c, 0, 58, 66
1, 203146, Note_off_c, 0, 77, 61
1, 203148, Control_c, 0, 64, 51
1, 203160, Note_on_c, 0, 78, 73
1, 203179, Note_on_c, 0, 80, 79
1, 203186, Note_off_c, 0, 78, 62
1, 203207, Control_c, 0, 64, 51
1, 203212, Note_off_c, 0, 80, 59
1, 203221, Control_c, 0, 64, 50
1, 203233, Note_on_c, 0, 81, 91
1, 203251, Control_c, 0, 64, 51
1, 203266, Control_c, 0, 64, 55
1, 203281, Control_c, 0, 64, 61
1, 203286, Note_on_c, 0, 82, 92
1, 203287, Note_off_c, 0, 81, 64
1, 203291, Note_on_c, 0, 66, 109
1, 203296, Control_c, 0, 64, 69
1, 203300, Note_on_c, 0, 54, 91
1, 203303, Note_on_c, 0, 58, 87
1, 203311, Control_c, 0, 64, 79
1, 203325, Control_c, 0, 64, 91
1, 203331, Note_off_c, 0, 82, 68
1, 203340, Control_c, 0, 64, 95
1, 203343, Note_on_c, 0, 83, 89
1, 203355, Control_c, 0, 64, 97
1, 203370, Note_off_c, 0, 54, 59
1, 203386, Note_off_c, 0, 58, 60
1, 203398, Note_off_c, 0, 83, 65
1, 203400, Control_c, 0, 64, 99
1, 203401, Note_on_c, 0, 84, 75
1, 203406, Note_off_c, 0, 66, 58
1, 203430, Note_on_c, 0, 85, 86
1, 203444, Control_c, 0, 64, 96
1, 203448, Note_off_c, 0, 84, 64
1, 203459, Control_c, 0, 64, 86
1, 203468, Note_off_c, 0, 85, 66
1, 203474, Control_c, 0, 64, 73
1, 203485, Note_on_c, 0, 65, 81
1, 203486, Note_on_c, 0, 53, 75
1, 203488, Note_on_c, 0, 58, 79
1, 203488, Control_c, 0, 64, 62
1, 203495, Note_on_c, 0, 86, 83
1, 203499, Note_on_c, 0, 88, 71
1, 203503, Control_c, 0, 64, 47
1, 203518, Control_c, 0, 64, 36
1, 203519, Note_off_c, 0, 65, 64
1, 203524, Note_off_c, 0, 53, 64
1, 203533, Note_off_c, 0, 58, 58
1, 203537, Note_off_c, 0, 88, 58
1, 203537, Note_off_c, 0, 86, 64
1, 203546, Note_on_c, 0, 87, 79
1, 203548, Control_c, 0, 64, 41
1, 203570, Control_c, 0, 64, 46
1, 203584, Note_on_c, 0, 88, 66
1, 203585, Control_c, 0, 64, 49
1, 203597, Note_off_c, 0, 87, 62
1, 203600, Control_c, 0, 64, 51
1, 203615, Control_c, 0, 64, 54
1, 203617, Note_off_c, 0, 88, 64
1, 203629, Control_c, 0, 64, 58
1, 203629, Note_on_c, 0, 89, 81
1, 203644, Control_c, 0, 64, 62
1, 203659, Control_c, 0, 64, 65
1, 203663, Note_on_c, 0, 63, 91
1, 203671, Note_on_c, 0, 51, 90
1, 203674, Control_c, 0, 64, 67
1, 203681, Note_on_c, 0, 90, 91
1, 203685, Note_off_c, 0, 63, 70
1, 203689, Control_c, 0, 64, 68
1, 203695, Note_off_c, 0, 89, 64
1, 203698, Note_off_c, 0, 51, 66
1, 203704, Control_c, 0, 64, 69
1, 203709, Note_on_c, 0, 91, 74
1, 203719, Control_c, 0, 64, 73
1, 203730, Note_on_c, 0, 92, 87
1, 203734, Control_c, 0, 64, 79
1, 203742, Note_on_c, 0, 93, 85
1, 203749, Control_c, 0, 64, 88
1, 203757, Note_off_c, 0, 90, 66
1, 203760, Note_off_c, 0, 91, 64
1, 203764, Control_c, 0, 64, 105
1, 203779, Control_c, 0, 64, 114
1, 203808, Control_c, 0, 64, 99
1, 203811, Note_off_c, 0, 93, 63
1, 203822, Note_off_c, 0, 92, 63
1, 203823, Control_c, 0, 64, 78
1, 203837, Control_c, 0, 64, 60
1, 203852, Control_c, 0, 64, 39
1, 203867, Control_c, 0, 64, 39
1, 203873, Note_on_c, 0, 42, 104
1, 203873, Note_on_c, 0, 94, 112
1, 203874, Note_on_c, 0, 30, 101
1, 203878, Note_on_c, 0, 82, 101
1, 203878, Note_on_c, 0, 90, 94
1, 203882, Control_c, 0, 64, 54
1, 203897, Control_c, 0, 64, 70
1, 203898, Note_off_c, 0, 30, 71
1, 203911, Control_c, 0, 64, 95
1, 203925, Note_off_c, 0, 42, 63
1, 203926, Control_c, 0, 64, 127
1, 203927, Note_off_c, 0, 94, 67
1, 203939, Note_off_c, 0, 90, 63
1, 203963, Note_off_c, 0, 82, 61
1, 204121, Note_on_c, 0, 66, 85
1, 204124, Note_on_c, 0, 54, 67
1, 204126, Note_on_c, 0, 61, 75
1, 204157, Note_off_c, 0, 54, 58
1, 204175, Note_off_c, 0, 66, 61
1, 204183, Note_off_c, 0, 61, 62
1, 204207, Note_on_c, 0, 70, 86
1, 204210, Note_on_c, 0, 82, 76
1, 204217, Note_on_c, 0, 78, 69
1, 204247, Note_off_c, 0, 78, 59
1, 204255, Note_off_c, 0, 70, 64
1, 204267, Note_off_c, 0, 82, 62
1, 204282, Note_on_c, 0, 60, 74
1, 204283, Note_on_c, 0, 66, 80
1, 204288, Note_on_c, 0, 54, 60
1, 204345, Note_off_c, 0, 66, 60
1, 204348, Note_off_c, 0, 54, 55
1, 204350, Note_off_c, 0, 60, 63
1, 204351, Note_on_c, 0, 72, 85
1, 204352, Note_on_c, 0, 84, 84
1, 204353, Note_on_c, 0, 78, 83
1, 204390, Note_off_c, 0, 72, 65
1, 204395, Note_off_c, 0, 84, 66
1, 204412, Note_off_c, 0, 78, 59
1, 204422, Note_on_c, 0, 58, 93
1, 204428, Note_on_c, 0, 66, 94
1, 204436, Note_on_c, 0, 54, 72
1, 204464, Note_off_c, 0, 54, 65
1, 204471, Note_off_c, 0, 66, 62
1, 204478, Note_on_c, 0, 85, 102
1, 204479, Note_on_c, 0, 73, 96
1, 204479, Note_off_c, 0, 58, 63
1, 204497, Note_on_c, 0, 75, 71
1, 204513, Note_off_c, 0, 75, 69
1, 204534, Note_off_c, 0, 73, 62
1, 204547, Note_off_c, 0, 85, 59
1, 204555, Note_on_c, 0, 66, 103
1, 204558, Note_on_c, 0, 60, 86
1, 204562, Note_on_c, 0, 54, 76
1, 204596, Note_off_c, 0, 66, 65
1, 204601, Note_off_c, 0, 60, 61
1, 204611, Note_on_c, 0, 84, 93
1, 204613, Note_on_c, 0, 72, 99
1, 204619, Note_off_c, 0, 54, 57
1, 204660, Note_off_c, 0, 72, 67
1, 204665, Note_off_c, 0, 84, 67
1, 204670, Note_on_c, 0, 66, 93
1, 204678, Note_on_c, 0, 61, 82
1, 204680, Note_on_c, 0, 54, 74
1, 204695, Note_off_c, 0, 66, 69
1, 204698, Note_off_c, 0, 61, 71
1, 204725, Note_off_c, 0, 54, 63
1, 204740, Note_on_c, 0, 82, 107
1, 204742, Note_on_c, 0, 70, 98
1, 204774, Note_off_c, 0, 70, 69
1, 204793, Note_off_c, 0, 82, 58
1, 204912, Control_c, 0, 64, 75
1, 204927, Control_c, 0, 64, 47
1, 204940, Note_on_c, 0, 42, 102
1, 204940, Note_on_c, 0, 84, 109
1, 204941, Control_c, 0, 64, 0
1, 204942, Note_on_c, 0, 88, 101
1, 204944, Note_on_c, 0, 96, 94
1, 204945, Note_on_c, 0, 30, 87
1, 204947, Note_on_c, 0, 94, 93
1, 204956, Control_c, 0, 64, 38
1, 204965, Note_on_c, 0, 98, 52
1, 204965, Note_off_c, 0, 98, 127
1, 204971, Note_on_c, 0, 95, 55
1, 204971, Control_c, 0, 64, 60
1, 204979, Note_off_c, 0, 30, 63
1, 204986, Control_c, 0, 64, 86
1, 204992, Note_off_c, 0, 95, 60
1, 205001, Control_c, 0, 64, 127
1, 205022, Note_off_c, 0, 42, 63
1, 205034, Note_off_c, 0, 96, 66
1, 205034, Poly_aftertouch_c, 0, 32, 127
1, 205080, Poly_aftertouch_c, 0, 32, 0
1, 205080, Note_off_c, 0, 84, 59
1, 205101, Note_off_c, 0, 94, 62
1, 205113, Note_off_c, 0, 88, 65
1, 205179, Note_on_c, 0, 66, 103
1, 205183, Note_on_c, 0, 54, 85
1, 205221, Note_off_c, 0, 66, 65
1, 205230, Note_off_c, 0, 54, 57
1, 205281, Note_on_c, 0, 68, 94
1, 205284, Note_on_c, 0, 80, 90
1, 205321, Note_off_c, 0, 68, 68
1, 205332, Note_off_c, 0, 80, 59
1, 205370, Note_on_c, 0, 70, 102
1, 205376, Note_on_c, 0, 58, 90
1, 205415, Note_on_c, 0, 57, 35
1, 205415, Note_off_c, 0, 70, 65
1, 205423, Note_off_c, 0, 58, 62
1, 205447, Note_off_c, 0, 57, 51
1, 205448, Note_on_c, 0, 83, 101
1, 205451, Note_on_c, 0, 71, 99
1, 205487, Note_off_c, 0, 71, 66
1, 205494, Note_off_c, 0, 83, 66
1, 205527, Note_on_c, 0, 72, 100
1, 205528, Note_on_c, 0, 60, 94
1, 205576, Note_off_c, 0, 72, 63
1, 205579, Note_on_c, 0, 71, 11
1, 205579, Note_off_c, 0, 71, 127
1, 205579, Note_off_c, 0, 60, 65
1, 205597, Note_on_c, 0, 85, 104
1, 205597, Note_on_c, 0, 73, 102
1, 205624, Poly_aftertouch_c, 0, 71, 0
1, 205633, Note_off_c, 0, 73, 67
1, 205636, Note_off_c, 0, 85, 64
1, 205674, Note_on_c, 0, 74, 101
1, 205678, Note_on_c, 0, 62, 92
1, 205716, Note_off_c, 0, 62, 65
1, 205722, Note_off_c, 0, 74, 64
1, 205723, Note_on_c, 0, 75, 108
1, 205723, Note_on_c, 0, 87, 98
1, 205737, Note_on_c, 0, 85, 77
1, 205750, Note_off_c, 0, 85, 69
1, 205761, Note_off_c, 0, 75, 67
1, 205780, Note_off_c, 0, 87, 66
1, 205794, Note_on_c, 0, 76, 105
1, 205798, Note_on_c, 0, 64, 102
1, 205831, Control_c, 0, 64, 93
1, 205835, Note_off_c, 0, 76, 72
1, 205846, Control_c, 0, 64, 65
1, 205847, Note_off_c, 0, 64, 70
1, 205861, Control_c, 0, 64, 33
1, 205876, Control_c, 0, 64, 0
1, 205997, Poly_aftertouch_c, 0, 97, 127
1, 206008, Control_c, 0, 64, 35
1, 206023, Control_c, 0, 64, 42
1, 206039, Control_c, 0, 64, 49
1, 206044, Poly_aftertouch_c, 0, 97, 0
1, 206054, Control_c, 0, 64, 54
1, 206069, Control_c, 0, 64, 57
1, 206084, Control_c, 0, 64, 59
1, 206099, Control_c, 0, 64, 59
1, 206113, Control_c, 0, 64, 60
1, 206128, Control_c, 0, 64, 61
1, 206136, Note_on_c, 0, 41, 98
1, 206139, Note_on_c, 0, 29, 96
1, 206139, Note_on_c, 0, 101, 103
1, 206139, Note_on_c, 0, 89, 95
1, 206139, Note_on_c, 0, 93, 102
1, 206143, Control_c, 0, 64, 62
1, 206158, Control_c, 0, 64, 66
1, 206169, Note_off_c, 0, 29, 67
1, 206173, Control_c, 0, 64, 71
1, 206183, Note_off_c, 0, 41, 67
1, 206187, Control_c, 0, 64, 76
1, 206202, Control_c, 0, 64, 79
1, 206217, Control_c, 0, 64, 79
1, 206229, Note_off_c, 0, 89, 56
1, 206235, Note_off_c, 0, 93, 60
1, 206243, Note_off_c, 0, 101, 65
1, 206277, Control_c, 0, 64, 79
1, 206291, Control_c, 0, 64, 77
1, 206306, Control_c, 0, 64, 74
1, 206321, Control_c, 0, 64, 69
1, 206336, Control_c, 0, 64, 66
1, 206351, Control_c, 0, 64, 62
1, 206366, Control_c, 0, 64, 57
1, 206381, Control_c, 0, 64, 53
1, 206395, Control_c, 0, 64, 49
1, 206410, Control_c, 0, 64, 42
1, 206425, Control_c, 0, 64, 34
1, 206429, Note_on_c, 0, 88, 97
1, 206439, Control_c, 0, 64, 0
1, 206440, Note_on_c, 0, 89, 93
1, 206443, Note_on_c, 0, 86, 70
1, 206456, Note_off_c, 0, 89, 75
1, 206458, Note_off_c, 0, 88, 68
1, 206461, Note_off_c, 0, 86, 40
1, 206512, Note_on_c, 0, 89, 65
1, 206607, Note_on_c, 0, 101, 78
1, 206610, Control_c, 0, 64, 31
1, 206621, Note_off_c, 0, 89, 64
1, 206625, Control_c, 0, 64, 35
1, 206637, Note_off_c, 0, 101, 68
1, 206639, Control_c, 0, 64, 38
1, 206654, Control_c, 0, 64, 39
1, 206681, Note_on_c, 0, 76, 87
1, 206684, Note_on_c, 0, 77, 99
1, 206698, Note_off_c, 0, 76, 75
1, 206706, Note_off_c, 0, 77, 70
1, 206713, Control_c, 0, 64, 38
1, 206728, Control_c, 0, 64, 37
1, 206743, Control_c, 0, 64, 36
1, 206757, Control_c, 0, 64, 35
1, 206777, Note_on_c, 0, 77, 73
1, 206833, Control_c, 0, 64, 36
1, 206848, Control_c, 0, 64, 38
1, 206862, Control_c, 0, 64, 39
1, 206866, Note_on_c, 0, 89, 69
1, 206867, Note_off_c, 0, 77, 55
1, 206891, Note_off_c, 0, 89, 67
1, 206892, Control_c, 0, 64, 39
1, 206935, Note_on_c, 0, 65, 93
1, 206951, Note_off_c, 0, 65, 75
1, 207011, Control_c, 0, 64, 40
1, 207025, Note_on_c, 0, 65, 58
1, 207026, Control_c, 0, 64, 41
1, 207041, Control_c, 0, 64, 41
1, 207055, Control_c, 0, 64, 42
1, 207058, Note_off_c, 0, 65, 62
1, 207085, Control_c, 0, 64, 42
1, 207100, Control_c, 0, 64, 43
1, 207115, Control_c, 0, 64, 44
1, 207116, Note_on_c, 0, 76, 74
1, 207117, Note_on_c, 0, 77, 76
1, 207129, Control_c, 0, 64, 45
1, 207137, Note_off_c, 0, 76, 72
1, 207139, Note_off_c, 0, 77, 69
1, 207144, Control_c, 0, 64, 46
1, 207174, Control_c, 0, 64, 46
1, 207199, Note_on_c, 0, 53, 85
1, 207218, Control_c, 0, 64, 46
1, 207221, Note_off_c, 0, 53, 70
1, 207233, Control_c, 0, 64, 46
1, 207248, Control_c, 0, 64, 45
1, 207263, Control_c, 0, 64, 43
1, 207278, Control_c, 0, 64, 42
1, 207315, Control_c, 0, 64, 43
1, 207317, Note_on_c, 0, 52, 44
1, 207330, Control_c, 0, 64, 42
1, 207344, Control_c, 0, 64, 41
1, 207349, Note_off_c, 0, 52, 53
1, 207359, Control_c, 0, 64, 39
1, 207374, Control_c, 0, 64, 36
1, 207376, Note_on_c, 0, 63, 50
1, 207388, Control_c, 0, 64, 32
1, 207397, Note_on_c, 0, 64, 70
1, 207402, Note_on_c, 0, 65, 61
1, 207403, Control_c, 0, 64, 0
1, 207409, Note_off_c, 0, 63, 48
1, 207418, Control_c, 0, 67, 37
1, 207421, Note_off_c, 0, 64, 67
1, 207421, Note_off_c, 0, 65, 63
1, 207433, Control_c, 0, 67, 39
1, 207448, Control_c, 0, 67, 40
1, 207463, Note_on_c, 0, 41, 92
1, 207463, Control_c, 0, 67, 46
1, 207478, Control_c, 0, 67, 61
1, 207493, Control_c, 0, 67, 80
1, 207493, Note_off_c, 0, 41, 67
1, 207508, Control_c, 0, 67, 100
1, 207523, Control_c, 0, 67, 120
1, 207537, Control_c, 0, 67, 127
1, 207562, Note_on_c, 0, 41, 74
1, 207598, Note_off_c, 0, 41, 66
1, 207654, Note_on_c, 0, 53, 81
1, 207661, Note_on_c, 0, 52, 72
1, 207683, Note_off_c, 0, 52, 66
1, 207695, Note_off_c, 0, 53, 65
1, 207726, Note_on_c, 0, 41, 93
1, 207730, Note_on_c, 0, 29, 92
1, 207753, Note_off_c, 0, 29, 66
1, 207761, Note_off_c, 0, 41, 68
1, 207830, Note_on_c, 0, 53, 82
1, 207847, Control_c, 0, 67, 125
1, 207862, Control_c, 0, 67, 103
1, 207867, Note_off_c, 0, 53, 65
1, 207877, Control_c, 0, 64, 29
1, 207877, Control_c, 0, 67, 75
1, 207892, Control_c, 0, 64, 33
1, 207892, Control_c, 0, 67, 49
1, 207907, Control_c, 0, 64, 35
1, 207907, Control_c, 0, 67, 0
1, 207922, Control_c, 0, 64, 36
1, 207928, Note_on_c, 0, 65, 85
1, 207937, Control_c, 0, 64, 36
1, 207951, Control_c, 0, 64, 37
1, 207953, Note_off_c, 0, 65, 63
1, 208010, Control_c, 0, 64, 36
1, 208025, Control_c, 0, 64, 36
1, 208034, Note_on_c, 0, 65, 100
1, 208040, Control_c, 0, 64, 35
1, 208062, Control_c, 0, 64, 33
1, 208069, Note_off_c, 0, 65, 66
1, 208077, Control_c, 0, 64, 30
1, 208092, Control_c, 0, 64, 0
1, 208147, Note_on_c, 0, 65, 78
1, 208184, Note_off_c, 0, 65, 63
1, 208238, Note_on_c, 0, 66, 89
1, 208273, Note_off_c, 0, 66, 65
1, 208299, Control_c, 0, 64, 30
1, 208323, Note_on_c, 0, 56, 80
1, 208343, Control_c, 0, 64, 32
1, 208357, Note_on_c, 0, 57, 86
1, 208376, Note_off_c, 0, 56, 63
1, 208377, Note_on_c, 0, 60, 71
1, 208401, Note_off_c, 0, 57, 66
1, 208414, Note_off_c, 0, 60, 64
1, 208414, Note_on_c, 0, 63, 91
1, 208414, Note_on_c, 0, 67, 88
1, 208451, Note_off_c, 0, 67, 61
1, 208458, Note_off_c, 0, 63, 63
1, 208501, Note_on_c, 0, 67, 83
1, 208507, Note_on_c, 0, 63, 78
1, 208539, Note_off_c, 0, 63, 65
1, 208540, Note_off_c, 0, 67, 66
1, 208599, Note_on_c, 0, 63, 82
1, 208602, Note_on_c, 0, 67, 82
1, 208628, Note_off_c, 0, 63, 64
1, 208647, Note_off_c, 0, 67, 60
1, 208655, Control_c, 0, 64, 32
1, 208673, Note_on_c, 0, 52, 81
1, 208685, Note_on_c, 0, 57, 81
1, 208686, Note_on_c, 0, 67, 78
1, 208688, Note_on_c, 0, 63, 89
1, 208689, Note_on_c, 0, 53, 78
1, 208698, Note_off_c, 0, 52, 67
1, 208709, Note_off_c, 0, 57, 70
1, 208711, Note_off_c, 0, 53, 67
1, 208754, Note_off_c, 0, 63, 61
1, 208772, Note_on_c, 0, 62, 86
1, 208774, Control_c, 0, 64, 33
1, 208775, Note_off_c, 0, 67, 60
1, 208789, Control_c, 0, 64, 33
1, 208811, Control_c, 0, 64, 34
1, 208826, Control_c, 0, 64, 35
1, 208840, Control_c, 0, 64, 36
1, 208855, Control_c, 0, 64, 37
1, 208864, Note_on_c, 0, 63, 87
1, 208870, Note_on_c, 0, 67, 79
1, 208870, Control_c, 0, 64, 39
1, 208877, Note_off_c, 0, 62, 64
1, 208885, Control_c, 0, 64, 41
1, 208900, Control_c, 0, 64, 44
1, 208912, Note_off_c, 0, 67, 60
1, 208915, Control_c, 0, 64, 46
1, 208924, Note_off_c, 0, 63, 64
1, 208930, Control_c, 0, 64, 45
1, 208944, Control_c, 0, 64, 45
1, 208947, Note_on_c, 0, 44, 70
1, 208955, Note_on_c, 0, 59, 94
1, 208959, Control_c, 0, 64, 43
1, 208959, Note_on_c, 0, 45, 81
1, 208971, Note_off_c, 0, 44, 66
1, 208974, Control_c, 0, 64, 39
1, 208983, Note_off_c, 0, 45, 65
1, 208989, Control_c, 0, 64, 32
1, 209004, Control_c, 0, 64, 0
1, 209042, Note_on_c, 0, 63, 68
1, 209048, Note_off_c, 0, 59, 66
1, 209053, Note_on_c, 0, 60, 75
1, 209070, Note_on_c, 0, 64, 59
1, 209078, Note_off_c, 0, 60, 68
1, 209083, Note_off_c, 0, 63, 46
1, 209099, Note_off_c, 0, 64, 65
1, 209128, Note_on_c, 0, 62, 88
1, 209196, Control_c, 0, 64, 29
1, 209202, Note_off_c, 0, 62, 57
1, 209210, Note_on_c, 0, 63, 94
1, 209211, Control_c, 0, 64, 40
1, 209219, Note_on_c, 0, 41, 71
1, 209220, Note_on_c, 0, 67, 81
1, 209222, Note_on_c, 0, 40, 63
1, 209226, Control_c, 0, 64, 51
1, 209242, Control_c, 0, 64, 58
1, 209249, Note_off_c, 0, 41, 64
1, 209254, Note_off_c, 0, 40, 63
1, 209256, Control_c, 0, 64, 59
1, 209271, Control_c, 0, 64, 60
1, 209272, Note_off_c, 0, 63, 61
1, 209286, Control_c, 0, 64, 61
1, 209301, Control_c, 0, 64, 62
1, 209302, Note_on_c, 0, 70, 84
1, 209304, Note_off_c, 0, 67, 63
1, 209316, Control_c, 0, 64, 64
1, 209330, Control_c, 0, 64, 65
1, 209345, Control_c, 0, 64, 67
1, 209360, Control_c, 0, 64, 68
1, 209374, Control_c, 0, 64, 70
1, 209380, Note_on_c, 0, 69, 90
1, 209389, Note_on_c, 0, 65, 77
1, 209389, Control_c, 0, 64, 71
1, 209402, Note_off_c, 0, 70, 62
1, 209407, Note_off_c, 0, 69, 66
1, 209411, Note_off_c, 0, 65, 71
1, 209463, Control_c, 0, 64, 69
1, 209472, Note_on_c, 0, 46, 84
1, 209478, Control_c, 0, 64, 66
1, 209480, Note_on_c, 0, 45, 60
1, 209483, Note_on_c, 0, 65, 96
1, 209486, Note_on_c, 0, 62, 89
1, 209493, Control_c, 0, 64, 61
1, 209497, Note_off_c, 0, 46, 68
1, 209506, Note_off_c, 0, 45, 59
1, 209508, Note_off_c, 0, 62, 69
1, 209508, Control_c, 0, 64, 54
1, 209514, Note_off_c, 0, 65, 60
1, 209523, Control_c, 0, 64, 46
1, 209538, Control_c, 0, 64, 41
1, 209560, Control_c, 0, 64, 40
1, 209573, Note_on_c, 0, 65, 88
1, 209579, Note_on_c, 0, 62, 84
1, 209603, Note_off_c, 0, 62, 68
1, 209611, Note_off_c, 0, 65, 63
1, 209660, Note_on_c, 0, 65, 86
1, 209669, Note_on_c, 0, 62, 78
1, 209692, Note_off_c, 0, 62, 68
1, 209699, Note_off_c, 0, 65, 65
1, 209737, Control_c, 0, 64, 40
1, 209740, Note_on_c, 0, 49, 83
1, 209746, Note_on_c, 0, 65, 87
1, 209749, Note_on_c, 0, 50, 90
1, 209749, Note_on_c, 0, 62, 82
1, 209752, Control_c, 0, 64, 39
1, 209768, Note_off_c, 0, 49, 66
1, 209776, Note_off_c, 0, 50, 67
1, 209803, Note_off_c, 0, 62, 63
1, 209826, Note_off_c, 0, 65, 60
1, 209832, Note_on_c, 0, 58, 85
1, 209886, Note_off_c, 0, 58, 55
1, 209915, Note_on_c, 0, 63, 85
1, 209918, Note_on_c, 0, 60, 77
1, 209930, Control_c, 0, 64, 40
1, 209945, Control_c, 0, 64, 40
1, 209952, Note_off_c, 0, 60, 65
1, 209974, Control_c, 0, 64, 41
1, 209985, Note_off_c, 0, 63, 60
1, 209999, Note_on_c, 0, 52, 88
1, 210015, Note_on_c, 0, 62, 89
1, 210025, Note_on_c, 0, 53, 76
1, 210029, Note_off_c, 0, 52, 68
1, 210044, Note_on_c, 0, 55, 38
1, 210050, Note_off_c, 0, 53, 67
1, 210083, Note_off_c, 0, 62, 51
1, 210095, Note_off_c, 0, 55, 49
1, 210098, Note_on_c, 0, 67, 83
1, 210105, Note_on_c, 0, 63, 72
1, 210139, Control_c, 0, 64, 41
1, 210153, Control_c, 0, 64, 42
1, 210160, Note_off_c, 0, 63, 63
1, 210168, Control_c, 0, 64, 43
1, 210173, Note_on_c, 0, 65, 73
1, 210183, Control_c, 0, 64, 45
1, 210190, Note_off_c, 0, 67, 60
1, 210198, Control_c, 0, 64, 48
1, 210212, Control_c, 0, 64, 51
1, 210227, Control_c, 0, 64, 53
1, 210227, Control_c, 0, 67, 43
1, 210237, Note_off_c, 0, 65, 64
1, 210242, Control_c, 0, 64, 56
1, 210242, Control_c, 0, 67, 60
1, 210255, Note_on_c, 0, 57, 81
1, 210257, Control_c, 0, 64, 60
1, 210257, Control_c, 0, 67, 89
1, 210267, Note_on_c, 0, 58, 98
1, 210268, Note_on_c, 0, 62, 93
1, 210271, Control_c, 0, 64, 64
1, 210271, Control_c, 0, 67, 127
1, 210283, Note_off_c, 0, 57, 65
1, 210286, Control_c, 0, 64, 70
1, 210292, Note_off_c, 0, 58, 68
1, 210309, Control_c, 0, 64, 79
1, 210312, Note_off_c, 0, 62, 63
1, 210324, Control_c, 0, 64, 91
1, 210339, Control_c, 0, 64, 103
1, 210353, Control_c, 0, 64, 108
1, 210412, Control_c, 0, 64, 102
1, 210427, Control_c, 0, 64, 91
1, 210442, Control_c, 0, 64, 81
1, 210457, Control_c, 0, 64, 71
1, 210472, Control_c, 0, 64, 64
1, 210486, Control_c, 0, 64, 56
1, 210501, Control_c, 0, 64, 50
1, 210516, Control_c, 0, 64, 49
1, 210537, Note_on_c, 0, 80, 82
1, 210544, Note_on_c, 0, 90, 87
1, 210546, Note_on_c, 0, 84, 71
1, 210551, Note_on_c, 0, 81, 54
1, 210551, Note_on_c, 0, 87, 75
1, 210556, Note_off_c, 0, 80, 69
1, 210560, Control_c, 0, 64, 48
1, 210568, Note_off_c, 0, 84, 69
1, 210569, Note_off_c, 0, 81, 61
1, 210574, Note_off_c, 0, 87, 71
1, 210574, Note_off_c, 0, 90, 64
1, 210590, Control_c, 0, 64, 48
1, 210605, Control_c, 0, 64, 47
1, 210632, Note_on_c, 0, 90, 76
1, 210636, Note_on_c, 0, 87, 73
1, 210661, Note_off_c, 0, 87, 66
1, 210666, Note_off_c, 0, 90, 61
1, 210708, Note_on_c, 0, 90, 76
1, 210709, Control_c, 0, 64, 48
1, 210720, Note_on_c, 0, 87, 67
1, 210738, Control_c, 0, 64, 48
1, 210744, Note_off_c, 0, 87, 71
1, 210751, Note_off_c, 0, 90, 64
1, 210753, Control_c, 0, 64, 49
1, 210768, Control_c, 0, 64, 50
1, 210782, Note_on_c, 0, 76, 79
1, 210783, Control_c, 0, 64, 50
1, 210797, Note_on_c, 0, 81, 60
1, 210797, Control_c, 0, 64, 51
1, 210801, Note_on_c, 0, 77, 62
1, 210803, Note_on_c, 0, 90, 74
1, 210807, Note_off_c, 0, 76, 60
1, 210809, Note_on_c, 0, 87, 76
1, 210812, Control_c, 0, 64, 51
1, 210815, Note_off_c, 0, 81, 65
1, 210819, Note_off_c, 0, 77, 65
1, 210858, Control_c, 0, 64, 52
1, 210863, Note_off_c, 0, 87, 60
1, 210870, Note_off_c, 0, 90, 61
1, 210873, Control_c, 0, 64, 52
1, 210886, Note_on_c, 0, 86, 80
1, 210888, Control_c, 0, 64, 54
1, 210902, Control_c, 0, 64, 55
1, 210917, Control_c, 0, 64, 57
1, 210932, Control_c, 0, 64, 58
1, 210947, Control_c, 0, 64, 59
1, 210962, Control_c, 0, 64, 60
1, 210965, Note_off_c, 0, 86, 62
1, 210971, Note_on_c, 0, 87, 74
1, 210971, Note_on_c, 0, 90, 79
1, 210976, Control_c, 0, 64, 61
1, 211006, Control_c, 0, 64, 61
1, 211020, Note_off_c, 0, 87, 60
1, 211021, Control_c, 0, 64, 60
1, 211026, Note_off_c, 0, 90, 64
1, 211035, Note_on_c, 0, 68, 72
1, 211035, Control_c, 0, 64, 58
1, 211058, Control_c, 0, 64, 56
1, 211061, Note_on_c, 0, 83, 93
1, 211065, Note_off_c, 0, 68, 70
1, 211073, Control_c, 0, 64, 54
1, 211080, Note_on_c, 0, 69, 45
1, 211088, Control_c, 0, 64, 53
1, 211088, Control_c, 0, 67, 102
1, 211103, Control_c, 0, 64, 54
1, 211103, Control_c, 0, 67, 73
1, 211107, Note_off_c, 0, 69, 58
1, 211117, Control_c, 0, 64, 54
1, 211117, Control_c, 0, 67, 57
1, 211132, Control_c, 0, 64, 55
1, 211132, Control_c, 0, 67, 49
1, 211141, Note_on_c, 0, 87, 76
1, 211143, Note_off_c, 0, 83, 61
1, 211147, Control_c, 0, 64, 55
1, 211147, Control_c, 0, 67, 48
1, 211157, Note_on_c, 0, 84, 62
1, 211161, Control_c, 0, 64, 56
1, 211185, Note_off_c, 0, 84, 69
1, 211191, Control_c, 0, 67, 47
1, 211203, Note_off_c, 0, 87, 64
1, 211206, Control_c, 0, 64, 56
1, 211206, Control_c, 0, 67, 46
1, 211221, Control_c, 0, 64, 57
1, 211221, Control_c, 0, 67, 45
1, 211225, Note_on_c, 0, 86, 86
1, 211235, Control_c, 0, 64, 57
1, 211235, Control_c, 0, 67, 43
1, 211250, Control_c, 0, 64, 58
1, 211250, Control_c, 0, 67, 41
1, 211265, Control_c, 0, 64, 60
1, 211265, Control_c, 0, 67, 0
1, 211280, Control_c, 0, 64, 61
1, 211295, Control_c, 0, 64, 64
1, 211296, Note_on_c, 0, 64, 76
1, 211301, Note_off_c, 0, 86, 50
1, 211302, Note_on_c, 0, 65, 63
1, 211304, Note_on_c, 0, 87, 80
1, 211309, Control_c, 0, 64, 67
1, 211311, Note_on_c, 0, 90, 65
1, 211323, Note_off_c, 0, 64, 68
1, 211324, Control_c, 0, 64, 71
1, 211329, Note_off_c, 0, 65, 64
1, 211330, Note_on_c, 0, 89, 63
1, 211339, Control_c, 0, 64, 74
1, 211344, Note_off_c, 0, 90, 46
1, 211350, Note_off_c, 0, 89, 59
1, 211353, Control_c, 0, 64, 75
1, 211357, Note_off_c, 0, 87, 63
1, 211368, Control_c, 0, 64, 76
1, 211383, Control_c, 0, 64, 77
1, 211387, Note_on_c, 0, 94, 71
1, 211398, Control_c, 0, 64, 79
1, 211413, Control_c, 0, 64, 82
1, 211416, Note_on_c, 0, 89, 68
1, 211428, Control_c, 0, 64, 86
1, 211440, Note_on_c, 0, 88, 53
1, 211442, Control_c, 0, 64, 92
1, 211452, Note_off_c, 0, 94, 62
1, 211457, Control_c, 0, 64, 99
1, 211463, Note_off_c, 0, 88, 61
1, 211467, Note_off_c, 0, 89, 63
1, 211472, Control_c, 0, 64, 111
1, 211487, Control_c, 0, 64, 127
1, 211541, Note_on_c, 0, 69, 74
1, 211557, Note_on_c, 0, 70, 76
1, 211557, Note_on_c, 0, 89, 96
1, 211560, Note_on_c, 0, 85, 85
1, 211561, Control_c, 0, 64, 97
1, 211564, Note_off_c, 0, 69, 68
1, 211576, Control_c, 0, 64, 79
1, 211578, Note_off_c, 0, 70, 72
1, 211582, Note_off_c, 0, 85, 65
1, 211591, Control_c, 0, 64, 65
1, 211596, Note_off_c, 0, 89, 60
1, 211606, Control_c, 0, 64, 52
1, 211621, Control_c, 0, 64, 38
1, 211636, Control_c, 0, 64, 34
1, 211645, Note_on_c, 0, 89, 85
1, 211647, Note_on_c, 0, 90, 58
1, 211647, Note_off_c, 0, 90, 127
1, 211659, Note_on_c, 0, 85, 72
1, 211666, Control_c, 0, 64, 35
1, 211681, Control_c, 0, 64, 35
1, 211682, Note_off_c, 0, 85, 64
1, 211687, Note_off_c, 0, 89, 63
1, 211696, Control_c, 0, 64, 36
1, 211711, Control_c, 0, 64, 37
1, 211725, Control_c, 0, 64, 38
1, 211732, Note_on_c, 0, 85, 79
1, 211732, Note_on_c, 0, 89, 62
1, 211740, Control_c, 0, 64, 39
1, 211751, Note_off_c, 0, 85, 71
1, 211755, Control_c, 0, 64, 39
1, 211787, Note_on_c, 0, 72, 78
1, 211812, Note_on_c, 0, 73, 62
1, 211813, Note_on_c, 0, 85, 75
1, 211830, Note_on_c, 0, 74, 68
1, 211832, Note_off_c, 0, 73, 62
1, 211833, Note_off_c, 0, 72, 64
1, 211847, Note_off_c, 0, 74, 66
1, 211857, Note_off_c, 0, 89, 58
1, 211887, Note_off_c, 0, 85, 61
1, 211898, Note_on_c, 0, 82, 72
1, 211966, Note_on_c, 0, 84, 77
1, 211970, Note_on_c, 0, 87, 74
1, 211970, Note_off_c, 0, 82, 63
1, 212008, Note_off_c, 0, 84, 65
1, 212030, Note_off_c, 0, 87, 65
1, 212057, Note_on_c, 0, 76, 59
1, 212059, Note_on_c, 0, 77, 66
1, 212059, Note_on_c, 0, 85, 83
1, 212065, Note_on_c, 0, 79, 59
1, 212073, Control_c, 0, 64, 39
1, 212076, Note_off_c, 0, 76, 63
1, 212077, Note_off_c, 0, 77, 66
1, 212084, Note_off_c, 0, 79, 65
1, 212146, Note_on_c, 0, 90, 65
1, 212147, Note_off_c, 0, 85, 59
1, 212149, Note_on_c, 0, 87, 56
1, 212162, Control_c, 0, 64, 40
1, 212176, Control_c, 0, 64, 41
1, 212191, Control_c, 0, 64, 44
1, 212194, Note_off_c, 0, 87, 60
1, 212206, Control_c, 0, 64, 47
1, 212221, Control_c, 0, 64, 50
1, 212228, Note_on_c, 0, 89, 70
1, 212236, Control_c, 0, 64, 53
1, 212250, Control_c, 0, 64, 56
1, 212265, Control_c, 0, 64, 58
1, 212280, Control_c, 0, 64, 59
1, 212295, Control_c, 0, 64, 60
1, 212310, Control_c, 0, 64, 61
1, 212313, Note_on_c, 0, 81, 71
1, 212325, Note_off_c, 0, 89, 62
1, 212325, Control_c, 0, 64, 63
1, 212326, Note_on_c, 0, 85, 91
1, 212330, Note_on_c, 0, 82, 91
1, 212334, Note_off_c, 0, 90, 37
1, 212337, Note_off_c, 0, 81, 67
1, 212340, Control_c, 0, 64, 64
1, 212347, Note_off_c, 0, 85, 68
1, 212351, Note_off_c, 0, 82, 67
1, 212369, Control_c, 0, 67, 79
1, 212384, Control_c, 0, 64, 63
1, 212384, Control_c, 0, 67, 127
1, 212399, Control_c, 0, 64, 62
1, 212414, Control_c, 0, 64, 60
1, 212429, Control_c, 0, 64, 56
1, 212444, Control_c, 0, 64, 53
1, 212459, Control_c, 0, 64, 52
1, 212474, Control_c, 0, 64, 51
1, 212519, Control_c, 0, 64, 50
1, 212533, Control_c, 0, 64, 48
1, 212555, Control_c, 0, 64, 45
1, 212570, Control_c, 0, 64, 42
1, 212585, Control_c, 0, 64, 37
1, 212589, Note_on_c, 0, 66, 81
1, 212599, Control_c, 0, 64, 31
1, 212602, Note_on_c, 0, 71, 83
1, 212614, Control_c, 0, 64, 0
1, 212626, Note_on_c, 0, 68, 41
1, 212656, Note_off_c, 0, 68, 59
1, 212674, Note_off_c, 0, 71, 60
1, 212683, Note_off_c, 0, 66, 61
1, 212689, Note_on_c, 0, 75, 70
1, 212691, Note_on_c, 0, 72, 62
1, 212697, Note_on_c, 0, 63, 64
1, 212697, Note_on_c, 0, 67, 71
1, 212716, Note_off_c, 0, 72, 67
1, 212733, Note_off_c, 0, 63, 60
1, 212739, Note_off_c, 0, 75, 63
1, 212755, Note_on_c, 0, 74, 87
1, 212769, Note_off_c, 0, 67, 60
1, 212783, Note_on_c, 0, 65, 65
1, 212814, Note_off_c, 0, 74, 61
1, 212815, Note_on_c, 0, 62, 3
1, 212827, Note_off_c, 0, 65, 63
1, 212831, Note_on_c, 0, 63, 74
1, 212833, Note_on_c, 0, 79, 82
1, 212843, Note_on_c, 0, 60, 63
1, 212846, Note_on_c, 0, 75, 70
1, 212847, Note_off_c, 0, 62, 52
1, 212852, Control_c, 0, 64, 37
1, 212855, Note_off_c, 0, 63, 67
1, 212861, Note_off_c, 0, 79, 60
1, 212863, Note_off_c, 0, 60, 65
1, 212867, Control_c, 0, 64, 49
1, 212870, Note_off_c, 0, 75, 71
1, 212881, Control_c, 0, 64, 59
1, 212897, Control_c, 0, 64, 63
1, 212912, Control_c, 0, 64, 63
1, 212926, Note_on_c, 0, 78, 86
1, 212956, Control_c, 0, 64, 62
1, 212971, Control_c, 0, 64, 59
1, 212986, Control_c, 0, 64, 50
1, 212994, Note_on_c, 0, 61, 69
1, 213000, Note_off_c, 0, 78, 60
1, 213000, Control_c, 0, 64, 29
1, 213004, Note_on_c, 0, 52, 54
1, 213005, Note_on_c, 0, 82, 80
1, 213015, Note_on_c, 0, 79, 53
1, 213015, Control_c, 0, 64, 0
1, 213024, Note_off_c, 0, 61, 65
1, 213028, Note_off_c, 0, 52, 58
1, 213034, Note_off_c, 0, 79, 63
1, 213060, Control_c, 0, 64, 34
1, 213068, Note_off_c, 0, 82, 63
1, 213074, Control_c, 0, 64, 48
1, 213082, Note_on_c, 0, 53, 80
1, 213087, Note_on_c, 0, 80, 86
1, 213089, Control_c, 0, 64, 60
1, 213091, Note_on_c, 0, 60, 69
1, 213104, Control_c, 0, 64, 65
1, 213119, Control_c, 0, 64, 67
1, 213122, Note_on_c, 0, 62, 32
1, 213133, Control_c, 0, 64, 67
1, 213139, Note_off_c, 0, 80, 65
1, 213148, Control_c, 0, 64, 68
1, 213156, Note_off_c, 0, 62, 51
1, 213161, Note_on_c, 0, 84, 72
1, 213163, Control_c, 0, 64, 69
1, 213174, Note_on_c, 0, 81, 71
1, 213178, Control_c, 0, 64, 71
1, 213193, Control_c, 0, 64, 73
1, 213207, Control_c, 0, 64, 75
1, 213220, Note_off_c, 0, 60, 59
1, 213223, Control_c, 0, 64, 77
1, 213232, Note_off_c, 0, 81, 63
1, 213238, Control_c, 0, 64, 78
1, 213253, Note_off_c, 0, 84, 63
1, 213253, Control_c, 0, 64, 80
1, 213255, Note_on_c, 0, 79, 76
1, 213268, Note_on_c, 0, 54, 67
1, 213268, Control_c, 0, 64, 80
1, 213283, Control_c, 0, 64, 80
1, 213287, Note_off_c, 0, 79, 61
1, 213305, Control_c, 0, 64, 76
1, 213312, Note_off_c, 0, 53, 38
1, 213320, Control_c, 0, 64, 69
1, 213335, Control_c, 0, 64, 62
1, 213338, Note_on_c, 0, 81, 80
1, 213340, Note_on_c, 0, 77, 82
1, 213343, Note_on_c, 0, 55, 73
1, 213350, Control_c, 0, 64, 58
1, 213365, Control_c, 0, 64, 60
1, 213379, Control_c, 0, 64, 63
1, 213394, Note_off_c, 0, 77, 63
1, 213394, Control_c, 0, 64, 68
1, 213400, Note_on_c, 0, 56, 73
1, 213405, Note_off_c, 0, 54, 36
1, 213409, Control_c, 0, 64, 74
1, 213411, Note_on_c, 0, 76, 91
1, 213416, Note_off_c, 0, 81, 63
1, 213423, Control_c, 0, 64, 80
1, 213436, Note_off_c, 0, 55, 60
1, 213438, Control_c, 0, 64, 85
1, 213452, Note_off_c, 0, 56, 62
1, 213453, Control_c, 0, 64, 89
1, 213458, Note_off_c, 0, 76, 66
1, 213459, Note_on_c, 0, 57, 78
1, 213468, Control_c, 0, 64, 93
1, 213483, Note_off_c, 0, 57, 70
1, 213483, Control_c, 0, 64, 96
1, 213490, Note_on_c, 0, 79, 79
1, 213495, Note_on_c, 0, 75, 89
1, 213497, Control_c, 0, 64, 98
1, 213525, Note_off_c, 0, 79, 58
1, 213541, Note_off_c, 0, 75, 64
1, 213556, Control_c, 0, 64, 81
1, 213559, Note_on_c, 0, 64, 85
1, 213571, Control_c, 0, 64, 61
1, 213574, Note_on_c, 0, 58, 72
1, 213580, Note_on_c, 0, 73, 80
1, 213586, Control_c, 0, 64, 29
1, 213595, Note_off_c, 0, 73, 43
1, 213599, Note_on_c, 0, 74, 79
1, 213601, Control_c, 0, 64, 0
1, 213604, Note_off_c, 0, 64, 63
1, 213630, Note_on_c, 0, 65, 77
1, 213645, Control_c, 0, 64, 41
1, 213658, Note_on_c, 0, 77, 56
1, 213660, Control_c, 0, 64, 57
1, 213674, Note_off_c, 0, 58, 61
1, 213675, Control_c, 0, 64, 64
1, 213690, Control_c, 0, 64, 66
1, 213690, Note_off_c, 0, 65, 59
1, 213704, Control_c, 0, 64, 67
1, 213707, Note_on_c, 0, 66, 86
1, 213719, Control_c, 0, 64, 69
1, 213726, Note_on_c, 0, 75, 76
1, 213730, Note_off_c, 0, 74, 64
1, 213730, Note_off_c, 0, 77, 62
1, 213734, Control_c, 0, 64, 70
1, 213743, Note_off_c, 0, 75, 63
1, 213748, Control_c, 0, 64, 72
1, 213753, Note_off_c, 0, 66, 65
1, 213763, Control_c, 0, 64, 73
1, 213793, Control_c, 0, 64, 71
1, 213808, Control_c, 0, 64, 64
1, 213810, Note_on_c, 0, 67, 66
1, 213820, Note_on_c, 0, 82, 87
1, 213821, Note_on_c, 0, 61, 70
1, 213822, Control_c, 0, 64, 47
1, 213828, Note_on_c, 0, 71, 80
1, 213837, Control_c, 0, 64, 0
1, 213854, Note_on_c, 0, 76, 49
1, 213881, Note_off_c, 0, 67, 60
1, 213911, Note_on_c, 0, 68, 55
1, 213914, Note_off_c, 0, 71, 56
1, 213915, Note_off_c, 0, 82, 58
1, 213933, Note_on_c, 0, 77, 72
1, 213994, Note_off_c, 0, 77, 63
1, 214006, Note_off_c, 0, 68, 60
1, 214015, Note_on_c, 0, 80, 71
1, 214015, Note_off_c, 0, 76, 51
1, 214058, Note_on_c, 0, 70, 71
1, 214063, Note_on_c, 0, 66, 69
1, 214063, Note_off_c, 0, 61, 60
1, 214082, Note_off_c, 0, 70, 70
1, 214089, Note_on_c, 0, 78, 78
1, 214091, Note_off_c, 0, 66, 67
1, 214095, Note_off_c, 0, 80, 65
1, 214130, Note_on_c, 0, 73, 33
1, 214162, Note_off_c, 0, 73, 49
1, 214164, Note_off_c, 0, 78, 60
1, 214167, Note_on_c, 0, 77, 71
1, 214242, Note_off_c, 0, 77, 61
1, 214244, Note_on_c, 0, 78, 74
1, 214319, Control_c, 0, 64, 40
1, 214330, Note_on_c, 0, 66, 78
1, 214331, Note_on_c, 0, 73, 79
1, 214334, Note_off_c, 0, 78, 57
1, 214334, Control_c, 0, 64, 59
1, 214339, Note_on_c, 0, 61, 56
1, 214339, Note_on_c, 0, 70, 58
1, 214340, Note_on_c, 0, 54, 52
1, 214349, Control_c, 0, 64, 65
1, 214355, Note_off_c, 0, 73, 67
1, 214356, Note_off_c, 0, 66, 68
1, 214359, Note_off_c, 0, 70, 64
1, 214364, Note_off_c, 0, 54, 57
1, 214364, Control_c, 0, 64, 68
1, 214364, Control_c, 0, 67, 116
1, 214365, Note_off_c, 0, 61, 64
1, 214379, Control_c, 0, 64, 71
1, 214379, Control_c, 0, 67, 92
1, 214394, Control_c, 0, 64, 73
1, 214394, Control_c, 0, 67, 81
1, 214408, Control_c, 0, 64, 74
1, 214423, Control_c, 0, 64, 75
1, 214438, Control_c, 0, 67, 82
1, 214453, Control_c, 0, 67, 83
1, 214468, Control_c, 0, 67, 83
1, 214527, Control_c, 0, 67, 81
1, 214542, Control_c, 0, 64, 74
1, 214542, Control_c, 0, 67, 79
1, 214557, Control_c, 0, 64, 71
1, 214557, Control_c, 0, 67, 77
1, 214571, Control_c, 0, 64, 64
1, 214571, Control_c, 0, 67, 75
1, 214581, Note_on_c, 0, 79, 80
1, 214586, Note_on_c, 0, 73, 75
1, 214586, Control_c, 0, 64, 52
1, 214586, Control_c, 0, 67, 66
1, 214590, Note_on_c, 0, 76, 69
1, 214601, Control_c, 0, 64, 34
1, 214601, Control_c, 0, 67, 50
1, 214616, Control_c, 0, 64, 0
1, 214616, Control_c, 0, 67, 0
1, 214636, Note_off_c, 0, 76, 50
1, 214650, Note_off_c, 0, 79, 63
1, 214663, Note_on_c, 0, 83, 79
1, 214665, Note_on_c, 0, 80, 71
1, 214666, Note_on_c, 0, 75, 68
1, 214680, Note_off_c, 0, 73, 60
1, 214688, Note_off_c, 0, 80, 69
1, 214688, Note_off_c, 0, 83, 64
1, 214691, Note_off_c, 0, 75, 70
1, 214693, Note_on_c, 0, 71, 36
1, 214719, Control_c, 0, 64, 29
1, 214726, Note_off_c, 0, 71, 47
1, 214734, Control_c, 0, 64, 36
1, 214744, Note_on_c, 0, 82, 86
1, 214749, Control_c, 0, 64, 41
1, 214764, Control_c, 0, 64, 46
1, 214765, Note_on_c, 0, 73, 78
1, 214778, Control_c, 0, 64, 49
1, 214801, Control_c, 0, 64, 51
1, 214801, Control_c, 0, 67, 51
1, 214815, Note_on_c, 0, 71, 73
1, 214816, Control_c, 0, 64, 52
1, 214816, Control_c, 0, 67, 96
1, 214818, Note_off_c, 0, 73, 63
1, 214832, Control_c, 0, 64, 55
1, 214832, Control_c, 0, 67, 127
1, 214836, Note_on_c, 0, 70, 60
1, 214844, Note_on_c, 0, 83, 65
1, 214847, Control_c, 0, 64, 59
1, 214849, Note_on_c, 0, 86, 64
1, 214854, Note_off_c, 0, 82, 65
1, 214856, Note_on_c, 0, 68, 75
1, 214862, Control_c, 0, 64, 62
1, 214864, Note_off_c, 0, 71, 61
1, 214864, Note_off_c, 0, 83, 66
1, 214865, Note_off_c, 0, 70, 67
1, 214873, Note_off_c, 0, 86, 69
1, 214875, Note_on_c, 0, 87, 36
1, 214876, Control_c, 0, 64, 63
1, 214876, Note_off_c, 0, 68, 70
1, 214891, Control_c, 0, 64, 64
1, 214906, Control_c, 0, 64, 64
1, 214909, Note_off_c, 0, 87, 47
1, 214918, Note_on_c, 0, 86, 83
1, 214921, Control_c, 0, 64, 65
1, 214936, Control_c, 0, 64, 67
1, 214950, Control_c, 0, 64, 68
1, 214965, Control_c, 0, 64, 69
1, 214993, Note_on_c, 0, 69, 71
1, 214996, Note_on_c, 0, 87, 74
1, 214997, Note_off_c, 0, 86, 60
1, 214999, Note_on_c, 0, 90, 81
1, 215009, Control_c, 0, 64, 67
1, 215024, Control_c, 0, 64, 62
1, 215032, Note_off_c, 0, 69, 61
1, 215039, Control_c, 0, 64, 47
1, 215046, Note_off_c, 0, 87, 64
1, 215049, Note_off_c, 0, 90, 63
1, 215054, Control_c, 0, 64, 0
1, 215075, Note_on_c, 0, 62, 29
1, 215084, Note_on_c, 0, 68, 85
1, 215085, Note_on_c, 0, 88, 94
1, 215086, Note_on_c, 0, 60, 21
1, 215094, Note_on_c, 0, 61, 78
1, 215107, Note_off_c, 0, 62, 51
1, 215124, Note_off_c, 0, 60, 40
1, 215128, Control_c, 0, 64, 35
1, 215142, Control_c, 0, 64, 50
1, 215157, Control_c, 0, 64, 61
1, 215160, Note_on_c, 0, 92, 78
1, 215166, Note_off_c, 0, 61, 62
1, 215169, Note_off_c, 0, 88, 0
1, 215171, Note_on_c, 0, 89, 71
1, 215172, Control_c, 0, 64, 66
1, 215176, Note_off_c, 0, 68, 53
1, 215182, Note_on_c, 0, 88, 59
1, 215187, Control_c, 0, 64, 68
1, 215201, Control_c, 0, 64, 70
1, 215214, Note_off_c, 0, 88, 60
1, 215216, Control_c, 0, 64, 72
1, 215219, Note_off_c, 0, 89, 62
1, 215225, Note_on_c, 0, 90, 56
1, 215231, Control_c, 0, 64, 74
1, 215246, Control_c, 0, 64, 74
1, 215249, Note_off_c, 0, 92, 63
1, 215257, Note_off_c, 0, 90, 67
1, 215259, Note_on_c, 0, 87, 83
1, 215261, Control_c, 0, 64, 74
1, 215276, Control_c, 0, 64, 69
1, 215283, Note_off_c, 0, 87, 67
1, 215291, Control_c, 0, 64, 55
1, 215292, Note_on_c, 0, 62, 69
1, 215306, Control_c, 0, 64, 34
1, 215320, Control_c, 0, 64, 0
1, 215331, Note_on_c, 0, 89, 84
1, 215335, Control_c, 0, 64, 32
1, 215343, Note_on_c, 0, 85, 78
1, 215350, Control_c, 0, 64, 45
1, 215356, Note_on_c, 0, 63, 71
1, 215365, Control_c, 0, 64, 60
1, 215371, Note_off_c, 0, 62, 61
1, 215380, Control_c, 0, 64, 69
1, 215394, Control_c, 0, 64, 76
1, 215404, Note_on_c, 0, 84, 90
1, 215407, Note_off_c, 0, 85, 62
1, 215409, Control_c, 0, 64, 79
1, 215416, Note_off_c, 0, 89, 59
1, 215424, Note_on_c, 0, 64, 77
1, 215424, Control_c, 0, 64, 80
1, 215439, Control_c, 0, 64, 82
1, 215453, Note_off_c, 0, 63, 63
1, 215454, Control_c, 0, 64, 83
1, 215461, Note_off_c, 0, 64, 62
1, 215468, Control_c, 0, 64, 86
1, 215483, Control_c, 0, 64, 89
1, 215485, Note_on_c, 0, 65, 71
1, 215487, Note_on_c, 0, 87, 79
1, 215496, Note_on_c, 0, 83, 79
1, 215498, Control_c, 0, 64, 94
1, 215499, Note_off_c, 0, 84, 0
1, 215508, Note_off_c, 0, 65, 69
1, 215513, Control_c, 0, 64, 100
1, 215519, Note_off_c, 0, 83, 63
1, 215527, Control_c, 0, 64, 103
1, 215547, Note_off_c, 0, 87, 63
1, 215565, Control_c, 0, 64, 93
1, 215575, Poly_aftertouch_c, 0, 84, 0
1, 215580, Control_c, 0, 64, 72
1, 215589, Note_on_c, 0, 66, 78
1, 215589, Note_on_c, 0, 81, 86
1, 215594, Control_c, 0, 64, 47
1, 215609, Control_c, 0, 64, 0
1, 215615, Note_on_c, 0, 72, 57
1, 215652, Note_on_c, 0, 82, 78
1, 215654, Control_c, 0, 64, 40
1, 215666, Note_off_c, 0, 66, 56
1, 215666, Note_off_c, 0, 81, 64
1, 215669, Control_c, 0, 64, 58
1, 215674, Note_on_c, 0, 84, 55
1, 215684, Control_c, 0, 64, 67
1, 215686, Note_off_c, 0, 72, 62
1, 215689, Note_on_c, 0, 73, 80
1, 215696, Note_on_c, 0, 85, 39
1, 215699, Control_c, 0, 64, 71
1, 215714, Control_c, 0, 64, 73
1, 215718, Poly_aftertouch_c, 0, 70, 0
1, 215726, Note_off_c, 0, 73, 59
1, 215729, Note_off_c, 0, 85, 33
1, 215729, Control_c, 0, 64, 76
1, 215738, Note_off_c, 0, 84, 62
1, 215738, Note_on_c, 0, 83, 60
1, 215744, Control_c, 0, 64, 79
1, 215748, Note_on_c, 0, 74, 74
1, 215756, Note_off_c, 0, 83, 63
1, 215758, Control_c, 0, 64, 82
1, 215762, Note_off_c, 0, 82, 62
1, 215773, Control_c, 0, 64, 87
1, 215780, Note_off_c, 0, 74, 60
1, 215788, Control_c, 0, 64, 90
1, 215803, Control_c, 0, 64, 91
1, 215818, Control_c, 0, 64, 89
1, 215832, Control_c, 0, 64, 80
1, 215839, Note_on_c, 0, 75, 73
1, 215842, Note_on_c, 0, 90, 87
1, 215843, Note_on_c, 0, 69, 72
1, 215847, Control_c, 0, 64, 65
1, 215860, Note_on_c, 0, 79, 55
1, 215862, Control_c, 0, 64, 38
1, 215866, Note_on_c, 0, 84, 45
1, 215877, Control_c, 0, 64, 0
1, 215878, Note_off_c, 0, 75, 61
1, 215893, Note_off_c, 0, 84, 55
1, 215896, Note_off_c, 0, 69, 59
1, 215899, Note_off_c, 0, 79, 53
1, 215918, Note_off_c, 0, 90, 62
1, 215920, Note_on_c, 0, 85, 64
1, 215946, Note_on_c, 0, 76, 15
1, 215972, Note_off_c, 0, 85, 59
1, 215986, Note_off_c, 0, 76, 31
1, 216002, Note_on_c, 0, 88, 80
1, 216091, Note_on_c, 0, 78, 62
1, 216096, Note_on_c, 0, 86, 73
1, 216097, Note_on_c, 0, 74, 57
1, 216109, Note_off_c, 0, 78, 62
1, 216111, Note_on_c, 0, 81, 42
1, 216117, Note_off_c, 0, 74, 61
1, 216134, Note_off_c, 0, 81, 57
1, 216141, Note_off_c, 0, 88, 36
1, 216164, Note_off_c, 0, 86, 63
1, 216173, Note_on_c, 0, 85, 69
1, 216209, Note_off_c, 0, 85, 57
1, 216257, Note_on_c, 0, 86, 72
1, 216298, Control_c, 0, 67, 85
1, 216313, Control_c, 0, 67, 0
1, 216322, Note_off_c, 0, 86, 60
1, 216328, Control_c, 0, 64, 52
1, 216343, Control_c, 0, 64, 73
1, 216349, Note_on_c, 0, 81, 87
1, 216350, Note_on_c, 0, 78, 92
1, 216358, Control_c, 0, 64, 80
1, 216370, Note_off_c, 0, 81, 68
1, 216373, Control_c, 0, 64, 85
1, 216378, Note_off_c, 0, 78, 61
1, 216388, Control_c, 0, 64, 87
1, 216403, Control_c, 0, 64, 95
1, 216418, Control_c, 0, 64, 102
1, 216433, Control_c, 0, 64, 105
1, 216552, Control_c, 0, 64, 92
1, 216566, Control_c, 0, 64, 71
1, 216581, Control_c, 0, 64, 46
1, 216596, Control_c, 0, 64, 0
1, 216618, Note_on_c, 0, 55, 96
1, 216620, Note_on_c, 0, 50, 95
1, 216621, Note_on_c, 0, 45, 98
1, 216641, Control_c, 0, 64, 38
1, 216644, Note_off_c, 0, 45, 70
1, 216652, Note_off_c, 0, 50, 64
1, 216656, Control_c, 0, 64, 57
1, 216662, Note_off_c, 0, 55, 66
1, 216671, Control_c, 0, 64, 67
1, 216686, Control_c, 0, 64, 72
1, 216697, Note_on_c, 0, 59, 67
1, 216701, Control_c, 0, 64, 76
1, 216716, Control_c, 0, 64, 82
1, 216717, Note_on_c, 0, 62, 75
1, 216728, Note_off_c, 0, 59, 67
1, 216730, Control_c, 0, 64, 97
1, 216745, Control_c, 0, 64, 127
1, 216795, Note_on_c, 0, 71, 76
1, 216799, Note_off_c, 0, 62, 60
1, 216857, Note_off_c, 0, 71, 60
1, 216860, Poly_aftertouch_c, 0, 67, 127
1, 216867, Note_on_c, 0, 83, 111
1, 216871, Note_on_c, 0, 79, 90
1, 216886, Note_off_c, 0, 79, 76
1, 216886, Note_off_c, 0, 83, 66
1, 216903, Poly_aftertouch_c, 0, 67, 0
1, 216953, Note_on_c, 0, 66, 75
1, 216978, Note_off_c, 0, 66, 69
1, 217023, Note_on_c, 0, 71, 26
1, 217029, Note_on_c, 0, 67, 79
1, 217081, Note_off_c, 0, 67, 60
1, 217089, Note_off_c, 0, 71, 62
1, 217107, Control_c, 0, 64, 92
1, 217116, Note_on_c, 0, 66, 100
1, 217121, Note_on_c, 0, 63, 83
1, 217122, Control_c, 0, 64, 64
1, 217136, Note_off_c, 0, 63, 69
1, 217137, Control_c, 0, 64, 0
1, 217143, Note_off_c, 0, 66, 66
1, 217203, Note_on_c, 0, 67, 86
1, 217208, Note_on_c, 0, 64, 76
1, 217233, Note_off_c, 0, 64, 70
1, 217234, Note_off_c, 0, 67, 60
1, 217270, Note_on_c, 0, 70, 86
1, 217272, Note_on_c, 0, 66, 85
1, 217287, Note_off_c, 0, 66, 71
1, 217288, Note_off_c, 0, 70, 73
1, 217345, Note_on_c, 0, 67, 88
1, 217348, Note_on_c, 0, 71, 88
1, 217427, Note_on_c, 0, 74, 84
1, 217433, Note_off_c, 0, 71, 64
1, 217435, Note_off_c, 0, 67, 61
1, 217512, Note_on_c, 0, 73, 79
1, 217517, Note_on_c, 0, 69, 77
1, 217520, Note_off_c, 0, 74, 63
1, 217550, Note_off_c, 0, 69, 61
1, 217567, Note_off_c, 0, 73, 60
1, 217590, Note_on_c, 0, 54, 93
1, 217595, Note_on_c, 0, 45, 80
1, 217595, Note_on_c, 0, 50, 80
1, 217612, Control_c, 0, 64, 61
1, 217616, Note_off_c, 0, 45, 68
1, 217622, Note_off_c, 0, 50, 67
1, 217627, Control_c, 0, 64, 76
1, 217631, Note_off_c, 0, 54, 66
1, 217642, Control_c, 0, 64, 90
1, 217657, Control_c, 0, 64, 106
1, 217671, Control_c, 0, 64, 127
1, 217675, Note_on_c, 0, 62, 81
1, 217749, Note_on_c, 0, 69, 70
1, 217768, Note_off_c, 0, 62, 57
1, 217854, Note_on_c, 0, 78, 105
1, 217854, Note_on_c, 0, 81, 96
1, 217857, Note_off_c, 0, 69, 58
1, 217879, Note_off_c, 0, 78, 57
1, 217880, Note_off_c, 0, 81, 64
1, 217923, Note_on_c, 0, 62, 72
1, 217940, Note_on_c, 0, 66, 60
1, 217960, Control_c, 0, 64, 88
1, 217971, Note_off_c, 0, 66, 66
1, 217975, Control_c, 0, 64, 68
1, 217989, Control_c, 0, 64, 53
1, 218004, Control_c, 0, 64, 36
1, 218005, Note_on_c, 0, 67, 80
1, 218006, Note_off_c, 0, 62, 59
1, 218009, Note_on_c, 0, 64, 78
1, 218020, Control_c, 0, 64, 29
1, 218033, Note_off_c, 0, 64, 71
1, 218035, Control_c, 0, 64, 0
1, 218050, Note_off_c, 0, 67, 64
1, 218107, Note_on_c, 0, 69, 87
1, 218110, Note_on_c, 0, 66, 78
1, 218120, Note_off_c, 0, 69, 72
1, 218125, Note_off_c, 0, 66, 71
1, 218169, Note_on_c, 0, 67, 66
1, 218173, Note_on_c, 0, 71, 77
1, 218195, Note_off_c, 0, 67, 67
1, 218217, Note_off_c, 0, 71, 54
1, 218240, Note_on_c, 0, 69, 56
1, 218251, Note_on_c, 0, 66, 73
1, 218301, Note_off_c, 0, 69, 62
1, 218302, Note_off_c, 0, 66, 66
1, 218316, Control_c, 0, 64, 53
1, 218331, Control_c, 0, 64, 67
1, 218345, Control_c, 0, 64, 77
1, 218345, Control_c, 0, 67, 83
1, 218351, Note_on_c, 0, 66, 91
1, 218358, Note_on_c, 0, 62, 81
1, 218360, Control_c, 0, 64, 87
1, 218360, Control_c, 0, 67, 127
1, 218375, Control_c, 0, 64, 90
1, 218390, Control_c, 0, 64, 91
1, 218394, Note_off_c, 0, 62, 61
1, 218395, Note_off_c, 0, 66, 66
1, 218405, Control_c, 0, 64, 93
1, 218419, Control_c, 0, 64, 93
1, 218434, Control_c, 0, 64, 94
1, 218464, Control_c, 0, 64, 93
1, 218479, Control_c, 0, 64, 89
1, 218493, Control_c, 0, 64, 76
1, 218508, Control_c, 0, 64, 60
1, 218523, Control_c, 0, 64, 0
1, 218605, Control_c, 0, 64, 42
1, 218619, Control_c, 0, 64, 56
1, 218631, Note_on_c, 0, 62, 82
1, 218632, Note_on_c, 0, 57, 74
1, 218634, Control_c, 0, 64, 63
1, 218637, Note_on_c, 0, 67, 84
1, 218649, Control_c, 0, 64, 66
1, 218653, Note_off_c, 0, 62, 70
1, 218656, Note_off_c, 0, 57, 67
1, 218662, Note_off_c, 0, 67, 66
1, 218664, Control_c, 0, 64, 67
1, 218678, Control_c, 0, 64, 69
1, 218693, Control_c, 0, 64, 71
1, 218708, Control_c, 0, 64, 74
1, 218711, Note_on_c, 0, 71, 67
1, 218723, Control_c, 0, 64, 78
1, 218727, Note_on_c, 0, 74, 65
1, 218738, Control_c, 0, 64, 82
1, 218741, Note_off_c, 0, 71, 64
1, 218752, Control_c, 0, 64, 85
1, 218767, Control_c, 0, 64, 89
1, 218782, Control_c, 0, 64, 93
1, 218797, Control_c, 0, 64, 97
1, 218813, Note_off_c, 0, 74, 59
1, 218813, Control_c, 0, 64, 99
1, 218815, Note_on_c, 0, 83, 66
1, 218828, Control_c, 0, 64, 103
1, 218842, Control_c, 0, 64, 106
1, 218850, Note_on_c, 0, 79, 9
1, 218857, Control_c, 0, 64, 109
1, 218860, Note_off_c, 0, 83, 52
1, 218872, Control_c, 0, 64, 112
1, 218881, Note_on_c, 0, 95, 96
1, 218883, Note_on_c, 0, 91, 99
1, 218894, Note_off_c, 0, 79, 53
1, 218898, Note_off_c, 0, 95, 69
1, 218903, Note_off_c, 0, 91, 69
1, 218959, Note_on_c, 0, 82, 66
1, 218972, Note_on_c, 0, 78, 56
1, 218981, Note_off_c, 0, 82, 70
1, 218996, Note_off_c, 0, 78, 62
1, 219038, Note_on_c, 0, 83, 80
1, 219041, Note_on_c, 0, 79, 72
1, 219065, Control_c, 0, 64, 110
1, 219079, Control_c, 0, 64, 101
1, 219089, Note_off_c, 0, 83, 63
1, 219090, Note_off_c, 0, 79, 61
1, 219094, Control_c, 0, 64, 89
1, 219109, Control_c, 0, 64, 75
1, 219115, Note_on_c, 0, 75, 94
1, 219116, Note_on_c, 0, 78, 82
1, 219124, Control_c, 0, 64, 63
1, 219131, Note_off_c, 0, 75, 73
1, 219139, Control_c, 0, 64, 49
1, 219139, Note_off_c, 0, 78, 64
1, 219154, Control_c, 0, 64, 33
1, 219168, Control_c, 0, 64, 0
1, 219201, Note_on_c, 0, 79, 76
1, 219209, Note_on_c, 0, 76, 60
1, 219220, Note_off_c, 0, 79, 70
1, 219229, Note_off_c, 0, 76, 65
1, 219265, Note_on_c, 0, 82, 88
1, 219269, Note_on_c, 0, 78, 87
1, 219291, Note_off_c, 0, 82, 68
1, 219293, Note_off_c, 0, 78, 73
1, 219354, Note_on_c, 0, 79, 72
1, 219354, Note_on_c, 0, 83, 87
1, 219368, Control_c, 0, 64, 29
1, 219383, Control_c, 0, 64, 32
1, 219398, Control_c, 0, 64, 36
1, 219413, Control_c, 0, 64, 41
1, 219428, Control_c, 0, 64, 49
1, 219431, Note_on_c, 0, 86, 78
1, 219438, Note_off_c, 0, 83, 64
1, 219442, Control_c, 0, 64, 56
1, 219446, Note_off_c, 0, 79, 60
1, 219457, Control_c, 0, 64, 60
1, 219472, Control_c, 0, 64, 61
1, 219509, Note_on_c, 0, 85, 74
1, 219516, Note_on_c, 0, 81, 70
1, 219520, Note_off_c, 0, 86, 60
1, 219531, Control_c, 0, 64, 59
1, 219543, Note_off_c, 0, 81, 64
1, 219546, Control_c, 0, 64, 55
1, 219561, Control_c, 0, 64, 50
1, 219563, Note_off_c, 0, 85, 63
1, 219575, Control_c, 0, 64, 48
1, 219590, Control_c, 0, 64, 49
1, 219591, Note_on_c, 0, 66, 86
1, 219599, Note_on_c, 0, 62, 69
1, 219600, Note_on_c, 0, 57, 69
1, 219605, Control_c, 0, 64, 52
1, 219621, Control_c, 0, 64, 57
1, 219625, Note_off_c, 0, 66, 65
1, 219626, Note_off_c, 0, 62, 66
1, 219631, Note_off_c, 0, 57, 67
1, 219637, Control_c, 0, 64, 62
1, 219652, Control_c, 0, 64, 65
1, 219666, Control_c, 0, 64, 68
1, 219673, Note_on_c, 0, 74, 67
1, 219681, Control_c, 0, 64, 70
1, 219696, Control_c, 0, 64, 72
1, 219710, Control_c, 0, 64, 73
1, 219725, Control_c, 0, 64, 74
1, 219729, Note_on_c, 0, 81, 71
1, 219740, Control_c, 0, 64, 76
1, 219755, Control_c, 0, 64, 77
1, 219770, Control_c, 0, 64, 79
1, 219772, Note_off_c, 0, 74, 55
1, 219784, Control_c, 0, 64, 81
1, 219799, Control_c, 0, 64, 82
1, 219814, Control_c, 0, 64, 83
1, 219845, Note_on_c, 0, 90, 96
1, 219848, Note_on_c, 0, 93, 94
1, 219850, Note_off_c, 0, 81, 52
1, 219863, Note_off_c, 0, 93, 73
1, 219863, Note_off_c, 0, 90, 68
1, 219873, Control_c, 0, 64, 82
1, 219888, Control_c, 0, 64, 80
1, 219903, Control_c, 0, 64, 76
1, 219917, Control_c, 0, 64, 71
1, 219924, Note_on_c, 0, 74, 62
1, 219932, Control_c, 0, 64, 66
1, 219941, Note_on_c, 0, 78, 55
1, 219947, Control_c, 0, 64, 61
1, 219962, Control_c, 0, 64, 57
1, 219971, Note_off_c, 0, 78, 63
1, 219977, Control_c, 0, 64, 55
1, 219992, Control_c, 0, 64, 54
1, 219996, Note_on_c, 0, 79, 76
1, 220003, Note_on_c, 0, 76, 74
1, 220003, Note_off_c, 0, 74, 67
1, 220021, Control_c, 0, 64, 54
1, 220025, Note_off_c, 0, 76, 71
1, 220044, Note_off_c, 0, 79, 62
1, 220044, Control_c, 0, 64, 53
1, 220059, Control_c, 0, 64, 52
1, 220073, Control_c, 0, 64, 51
1, 220088, Control_c, 0, 64, 49
1, 220096, Note_on_c, 0, 81, 88
1, 220103, Control_c, 0, 64, 46
1, 220111, Note_on_c, 0, 79, 63
1, 220117, Control_c, 0, 64, 44
1, 220122, Note_off_c, 0, 81, 59
1, 220129, Note_off_c, 0, 79, 67
1, 220132, Control_c, 0, 64, 41
1, 220147, Control_c, 0, 64, 39
1, 220162, Control_c, 0, 64, 36
1, 220177, Control_c, 0, 64, 35
1, 220181, Note_on_c, 0, 83, 82
1, 220186, Note_on_c, 0, 79, 71
1, 220207, Note_off_c, 0, 79, 71
1, 220222, Control_c, 0, 64, 36
1, 220237, Control_c, 0, 64, 37
1, 220252, Control_c, 0, 64, 39
1, 220256, Note_on_c, 0, 81, 76
1, 220260, Note_off_c, 0, 83, 62
1, 220261, Note_on_c, 0, 78, 76
1, 220266, Control_c, 0, 64, 45
1, 220277, Note_off_c, 0, 81, 69
1, 220281, Control_c, 0, 64, 54
1, 220283, Note_off_c, 0, 78, 68
1, 220296, Control_c, 0, 64, 65
1, 220311, Control_c, 0, 64, 75
1, 220326, Control_c, 0, 64, 87
1, 220340, Control_c, 0, 64, 97
1, 220350, Note_on_c, 0, 78, 89
1, 220355, Control_c, 0, 64, 107
1, 220358, Note_on_c, 0, 74, 82
1, 220370, Control_c, 0, 64, 127
1, 220387, Note_off_c, 0, 78, 60
1, 220391, Note_off_c, 0, 74, 59
1, 220592, Control_c, 0, 64, 94
1, 220606, Control_c, 0, 64, 72
1, 220621, Control_c, 0, 64, 61
1, 220636, Control_c, 0, 64, 56
1, 220651, Control_c, 0, 64, 58
1, 220666, Note_on_c, 0, 66, 78
1, 220666, Control_c, 0, 64, 62
1, 220670, Note_on_c, 0, 63, 82
1, 220677, Note_on_c, 0, 59, 63
1, 220680, Note_on_c, 0, 50, 62
1, 220680, Control_c, 0, 64, 66
1, 220682, Note_on_c, 0, 55, 60
1, 220695, Control_c, 0, 64, 72
1, 220710, Control_c, 0, 64, 78
1, 220718, Note_off_c, 0, 59, 60
1, 220724, Note_off_c, 0, 55, 64
1, 220725, Control_c, 0, 64, 80
1, 220734, Note_off_c, 0, 66, 61
1, 220740, Note_off_c, 0, 63, 64
1, 220740, Control_c, 0, 64, 81
1, 220752, Note_off_c, 0, 50, 61
1, 220753, Note_on_c, 0, 67, 74
1, 220755, Control_c, 0, 64, 82
1, 220770, Note_on_c, 0, 64, 66
1, 220770, Control_c, 0, 64, 83
1, 220792, Control_c, 0, 64, 85
1, 220807, Control_c, 0, 64, 87
1, 220821, Control_c, 0, 64, 91
1, 220831, Note_on_c, 0, 66, 81
1, 220836, Control_c, 0, 64, 93
1, 220840, Note_off_c, 0, 67, 60
1, 220843, Note_on_c, 0, 70, 69
1, 220847, Note_off_c, 0, 64, 65
1, 220851, Control_c, 0, 64, 92
1, 220865, Control_c, 0, 64, 86
1, 220874, Note_off_c, 0, 66, 63
1, 220880, Note_off_c, 0, 70, 61
1, 220880, Control_c, 0, 64, 74
1, 220895, Control_c, 0, 64, 62
1, 220910, Control_c, 0, 64, 50
1, 220931, Note_on_c, 0, 38, 70
1, 220937, Note_on_c, 0, 67, 78
1, 220937, Note_on_c, 0, 71, 80
1, 220940, Control_c, 0, 64, 55
1, 220943, Note_on_c, 0, 50, 60
1, 220954, Control_c, 0, 64, 61
1, 220969, Control_c, 0, 64, 67
1, 220984, Control_c, 0, 64, 75
1, 220986, Note_off_c, 0, 38, 61
1, 220999, Control_c, 0, 64, 82
1, 221003, Note_off_c, 0, 67, 60
1, 221008, Note_on_c, 0, 70, 80
1, 221011, Note_off_c, 0, 50, 62
1, 221014, Note_off_c, 0, 71, 56
1, 221014, Control_c, 0, 64, 85
1, 221014, Note_on_c, 0, 73, 77
1, 221029, Control_c, 0, 64, 87
1, 221044, Control_c, 0, 64, 89
1, 221050, Note_off_c, 0, 70, 61
1, 221058, Control_c, 0, 64, 92
1, 221061, Note_off_c, 0, 73, 64
1, 221073, Control_c, 0, 64, 97
1, 221088, Control_c, 0, 64, 105
1, 221103, Control_c, 0, 64, 119
1, 221108, Note_on_c, 0, 71, 76
1, 221112, Note_on_c, 0, 74, 76
1, 221118, Control_c, 0, 64, 127
1, 221133, Control_c, 0, 64, 108
1, 221147, Control_c, 0, 64, 78
1, 221153, Note_off_c, 0, 74, 60
1, 221162, Control_c, 0, 64, 55
1, 221168, Note_off_c, 0, 71, 58
1, 221177, Control_c, 0, 64, 0
1, 221185, Note_on_c, 0, 75, 83
1, 221191, Note_on_c, 0, 57, 67
1, 221191, Note_on_c, 0, 67, 70
1, 221194, Note_on_c, 0, 64, 59
1, 221196, Note_on_c, 0, 72, 74
1, 221208, Control_c, 0, 64, 43
1, 221223, Note_off_c, 0, 67, 63
1, 221223, Control_c, 0, 64, 64
1, 221229, Note_off_c, 0, 64, 66
1, 221235, Note_off_c, 0, 72, 55
1, 221237, Control_c, 0, 64, 79
1, 221252, Control_c, 0, 64, 99
1, 221260, Note_on_c, 0, 73, 80
1, 221264, Note_off_c, 0, 57, 62
1, 221267, Control_c, 0, 64, 127
1, 221270, Note_off_c, 0, 75, 63
1, 221283, Note_on_c, 0, 76, 76
1, 221333, Note_on_c, 0, 71, 79
1, 221336, Note_off_c, 0, 73, 61
1, 221348, Note_on_c, 0, 74, 69
1, 221385, Control_c, 0, 64, 124
1, 221400, Control_c, 0, 64, 75
1, 221409, Note_off_c, 0, 71, 61
1, 221415, Control_c, 0, 64, 52
1, 221430, Note_on_c, 0, 73, 76
1, 221430, Control_c, 0, 64, 0
1, 221437, Note_on_c, 0, 69, 78
1, 221444, Control_c, 0, 64, 30
1, 221449, Note_off_c, 0, 76, 57
1, 221452, Note_on_c, 0, 38, 59
1, 221452, Note_off_c, 0, 74, 61
1, 221459, Note_on_c, 0, 50, 55
1, 221459, Control_c, 0, 64, 46
1, 221474, Control_c, 0, 64, 61
1, 221478, Note_off_c, 0, 73, 59
1, 221479, Note_off_c, 0, 38, 61
1, 221489, Control_c, 0, 64, 67
1, 221501, Note_off_c, 0, 50, 65
1, 221504, Control_c, 0, 64, 69
1, 221521, Note_on_c, 0, 68, 77
1, 221527, Note_off_c, 0, 69, 60
1, 221583, Note_off_c, 0, 68, 57
1, 221650, Note_on_c, 0, 71, 86
1, 221674, Control_c, 0, 64, 69
1, 221680, Note_on_c, 0, 67, 45
1, 221688, Control_c, 0, 64, 65
1, 221703, Control_c, 0, 64, 56
1, 221713, Note_off_c, 0, 67, 50
1, 221718, Control_c, 0, 64, 37
1, 221733, Control_c, 0, 64, 0
1, 221744, Note_on_c, 0, 50, 45
1, 221748, Control_c, 0, 64, 30
1, 221762, Note_on_c, 0, 57, 47
1, 221762, Control_c, 0, 64, 42
1, 221770, Note_on_c, 0, 65, 76
1, 221777, Control_c, 0, 64, 57
1, 221792, Control_c, 0, 64, 67
1, 221807, Control_c, 0, 64, 73
1, 221822, Note_on_c, 0, 62, 49
1, 221822, Control_c, 0, 64, 76
1, 221835, Note_off_c, 0, 57, 63
1, 221837, Control_c, 0, 64, 78
1, 221852, Control_c, 0, 64, 79
1, 221864, Note_on_c, 0, 69, 69
1, 221866, Note_off_c, 0, 50, 62
1, 221867, Control_c, 0, 64, 80
1, 221868, Note_off_c, 0, 71, 57
1, 221873, Note_on_c, 0, 66, 74
1, 221877, Note_off_c, 0, 65, 60
1, 221881, Control_c, 0, 64, 82
1, 221896, Control_c, 0, 64, 83
1, 221903, Note_off_c, 0, 62, 63
1, 221911, Control_c, 0, 64, 85
1, 221926, Control_c, 0, 64, 87
1, 221932, Note_on_c, 0, 68, 81
1, 221938, Note_off_c, 0, 66, 63
1, 221939, Note_off_c, 0, 69, 63
1, 221941, Control_c, 0, 64, 90
1, 221955, Control_c, 0, 64, 93
1, 221970, Note_off_c, 0, 68, 57
1, 221970, Control_c, 0, 64, 93
1, 221985, Control_c, 0, 64, 93
1, 222000, Control_c, 0, 64, 84
1, 222016, Control_c, 0, 64, 67
1, 222031, Control_c, 0, 64, 38
1, 222035, Note_on_c, 0, 74, 83
1, 222041, Note_on_c, 0, 62, 49
1, 222045, Control_c, 0, 64, 0
1, 222050, Note_on_c, 0, 67, 54
1, 222057, Note_on_c, 0, 64, 43
1, 222057, Note_on_c, 0, 69, 57
1, 222086, Note_off_c, 0, 69, 66
1, 222090, Control_c, 0, 64, 45
1, 222105, Control_c, 0, 64, 61
1, 222119, Control_c, 0, 64, 70
1, 222134, Control_c, 0, 64, 78
1, 222135, Note_on_c, 0, 70, 84
1, 222148, Note_off_c, 0, 67, 63
1, 222149, Control_c, 0, 64, 82
1, 222157, Note_off_c, 0, 74, 61
1, 222164, Control_c, 0, 64, 85
1, 222179, Control_c, 0, 64, 88
1, 222193, Control_c, 0, 64, 91
1, 222208, Control_c, 0, 64, 92
1, 222223, Control_c, 0, 64, 91
1, 222224, Note_on_c, 0, 73, 83
1, 222238, Control_c, 0, 64, 79
1, 222242, Note_off_c, 0, 70, 62
1, 222253, Control_c, 0, 64, 63
1, 222267, Control_c, 0, 64, 37
1, 222272, Note_on_c, 0, 66, 60
1, 222290, Control_c, 0, 64, 0
1, 222309, Note_off_c, 0, 64, 62
1, 222314, Note_on_c, 0, 71, 82
1, 222317, Note_off_c, 0, 62, 60
1, 222319, Control_c, 0, 64, 46
1, 222334, Control_c, 0, 64, 62
1, 222349, Control_c, 0, 64, 73
1, 222350, Note_off_c, 0, 73, 61
1, 222354, Note_off_c, 0, 66, 64
1, 222364, Control_c, 0, 64, 79
1, 222379, Control_c, 0, 64, 80
1, 222395, Note_on_c, 0, 69, 85
1, 222395, Note_off_c, 0, 71, 64
1, 222457, Note_off_c, 0, 69, 62
1, 222467, Control_c, 0, 64, 81
1, 222482, Note_on_c, 0, 71, 80
1, 222511, Control_c, 0, 64, 80
1, 222526, Control_c, 0, 64, 76
1, 222541, Control_c, 0, 64, 62
1, 222556, Control_c, 0, 64, 29
1, 222560, Note_on_c, 0, 50, 51
1, 222571, Control_c, 0, 64, 0
1, 222578, Note_on_c, 0, 66, 85
1, 222582, Note_on_c, 0, 59, 47
1, 222587, Note_on_c, 0, 62, 60
1, 222613, Note_off_c, 0, 71, 57
1, 222631, Control_c, 0, 64, 37
1, 222646, Control_c, 0, 64, 57
1, 222648, Note_off_c, 0, 50, 62
1, 222660, Control_c, 0, 64, 67
1, 222675, Control_c, 0, 64, 72
1, 222676, Note_off_c, 0, 59, 62
1, 222685, Note_off_c, 0, 62, 62
1, 222690, Control_c, 0, 64, 76
1, 222704, Control_c, 0, 64, 77
1, 222719, Note_off_c, 0, 66, 67
1, 222719, Control_c, 0, 64, 78
1, 222734, Control_c, 0, 64, 79
1, 222749, Control_c, 0, 64, 81
1, 222764, Control_c, 0, 64, 83
1, 222773, Note_on_c, 0, 52, 60
1, 222779, Control_c, 0, 64, 85
1, 222794, Control_c, 0, 64, 86
1, 222806, Note_on_c, 0, 55, 47
1, 222809, Control_c, 0, 64, 87
1, 222824, Control_c, 0, 64, 86
1, 222834, Note_on_c, 0, 62, 53
1, 222839, Control_c, 0, 64, 84
1, 222854, Control_c, 0, 64, 69
1, 222869, Control_c, 0, 64, 52
1, 222883, Control_c, 0, 64, 0
1, 222888, Note_on_c, 0, 75, 76
1, 222890, Note_on_c, 0, 67, 59
1, 222890, Note_on_c, 0, 78, 79
1, 222913, Control_c, 0, 64, 32
1, 222922, Note_off_c, 0, 67, 65
1, 222928, Control_c, 0, 64, 48
1, 222943, Note_off_c, 0, 62, 62
1, 222943, Control_c, 0, 64, 62
1, 222951, Note_off_c, 0, 75, 65
1, 222951, Note_off_c, 0, 78, 61
1, 222958, Control_c, 0, 64, 71
1, 222965, Note_on_c, 0, 79, 70
1, 222973, Control_c, 0, 64, 76
1, 222977, Note_off_c, 0, 55, 60
1, 222987, Control_c, 0, 64, 79
1, 222988, Note_on_c, 0, 76, 57
1, 222990, Note_off_c, 0, 52, 62
1, 223002, Control_c, 0, 64, 81
1, 223017, Control_c, 0, 64, 84
1, 223039, Control_c, 0, 64, 87
1, 223047, Note_on_c, 0, 78, 79
1, 223054, Control_c, 0, 64, 90
1, 223062, Note_on_c, 0, 82, 68
1, 223062, Note_off_c, 0, 76, 64
1, 223063, Note_off_c, 0, 79, 59
1, 223069, Control_c, 0, 64, 92
1, 223084, Control_c, 0, 64, 92
1, 223092, Note_off_c, 0, 78, 62
1, 223095, Note_off_c, 0, 82, 62
1, 223113, Control_c, 0, 64, 93
1, 223145, Note_on_c, 0, 47, 68
1, 223146, Note_on_c, 0, 35, 72
1, 223154, Note_on_c, 0, 83, 80
1, 223158, Note_on_c, 0, 79, 74
1, 223184, Note_off_c, 0, 35, 65
1, 223223, Note_off_c, 0, 47, 63
1, 223234, Note_off_c, 0, 83, 63
1, 223236, Note_on_c, 0, 85, 74
1, 223247, Note_on_c, 0, 82, 72
1, 223259, Note_off_c, 0, 79, 56
1, 223306, Control_c, 0, 64, 93
1, 223315, Note_off_c, 0, 82, 63
1, 223333, Note_on_c, 0, 86, 87
1, 223335, Control_c, 0, 64, 94
1, 223350, Control_c, 0, 64, 94
1, 223360, Note_off_c, 0, 85, 59
1, 223365, Control_c, 0, 64, 95
1, 223380, Control_c, 0, 64, 95
1, 223390, Note_on_c, 0, 52, 43
1, 223395, Control_c, 0, 64, 93
1, 223401, Note_on_c, 0, 53, 52
1, 223409, Control_c, 0, 64, 80
1, 223417, Note_on_c, 0, 62, 46
1, 223418, Note_off_c, 0, 86, 60
1, 223424, Control_c, 0, 64, 63
1, 223432, Note_on_c, 0, 81, 87
1, 223439, Control_c, 0, 64, 42
1, 223453, Poly_aftertouch_c, 0, 55, 127
1, 223454, Control_c, 0, 64, 29
1, 223458, Note_on_c, 0, 67, 67
1, 223468, Control_c, 0, 64, 38
1, 223483, Control_c, 0, 64, 52
1, 223485, Note_off_c, 0, 53, 43
1, 223491, Note_off_c, 0, 67, 59
1, 223498, Control_c, 0, 64, 64
1, 223513, Control_c, 0, 64, 74
1, 223526, Note_off_c, 0, 62, 63
1, 223528, Control_c, 0, 64, 82
1, 223529, Note_on_c, 0, 86, 80
1, 223536, Note_on_c, 0, 82, 77
1, 223542, Control_c, 0, 64, 86
1, 223557, Control_c, 0, 64, 87
1, 223563, Note_off_c, 0, 81, 60
1, 223572, Control_c, 0, 64, 88
1, 223579, Note_off_c, 0, 52, 62
1, 223587, Control_c, 0, 64, 88
1, 223598, Poly_aftertouch_c, 0, 55, 0
1, 223618, Control_c, 0, 64, 89
1, 223627, Note_off_c, 0, 82, 62
1, 223628, Note_on_c, 0, 85, 78
1, 223634, Note_off_c, 0, 86, 65
1, 223647, Control_c, 0, 64, 89
1, 223662, Control_c, 0, 64, 90
1, 223676, Control_c, 0, 64, 91
1, 223679, Note_off_c, 0, 85, 64
1, 223691, Control_c, 0, 64, 91
1, 223706, Control_c, 0, 64, 91
1, 223721, Control_c, 0, 64, 86
1, 223736, Control_c, 0, 64, 72
1, 223742, Note_on_c, 0, 46, 61
1, 223747, Note_on_c, 0, 34, 63
1, 223750, Note_on_c, 0, 91, 85
1, 223751, Control_c, 0, 64, 58
1, 223754, Note_on_c, 0, 86, 70
1, 223765, Control_c, 0, 64, 41
1, 223788, Control_c, 0, 64, 43
1, 223803, Control_c, 0, 64, 52
1, 223818, Control_c, 0, 64, 62
1, 223825, Note_off_c, 0, 34, 62
1, 223832, Control_c, 0, 64, 70
1, 223847, Control_c, 0, 64, 75
1, 223851, Note_off_c, 0, 86, 58
1, 223851, Note_off_c, 0, 46, 60
1, 223862, Control_c, 0, 64, 77
1, 223877, Control_c, 0, 64, 78
1, 223888, Note_off_c, 0, 91, 66
1, 223889, Note_on_c, 0, 90, 78
1, 223891, Control_c, 0, 64, 79
1, 223891, Control_c, 0, 67, 104
1, 223906, Control_c, 0, 64, 80
1, 223906, Control_c, 0, 67, 50
1, 223921, Control_c, 0, 64, 80
1, 223921, Control_c, 0, 67, 0
1, 223936, Control_c, 0, 64, 81
1, 223965, Control_c, 0, 64, 81
1, 223995, Control_c, 0, 64, 82
1, 224031, Note_on_c, 0, 94, 76
1, 224055, Control_c, 0, 64, 82
1, 224066, Note_off_c, 0, 90, 64
1, 224084, Control_c, 0, 64, 83
1, 224099, Control_c, 0, 64, 84
1, 224114, Control_c, 0, 64, 84
1, 224127, Note_on_c, 0, 52, 59
1, 224157, Control_c, 0, 64, 84
1, 224172, Control_c, 0, 64, 75
1, 224180, Note_on_c, 0, 57, 56
1, 224187, Control_c, 0, 64, 62
1, 224202, Control_c, 0, 64, 34
1, 224217, Control_c, 0, 64, 0
1, 224259, Note_on_c, 0, 61, 59
1, 224286, Note_on_c, 0, 85, 71
1, 224350, Control_c, 0, 64, 33
1, 224365, Control_c, 0, 64, 52
1, 224380, Control_c, 0, 64, 65
1, 224394, Note_on_c, 0, 67, 64
1, 224394, Note_off_c, 0, 94, 56
1, 224394, Control_c, 0, 64, 72
1, 224410, Control_c, 0, 64, 83
1, 224425, Control_c, 0, 64, 103
1, 224440, Control_c, 0, 64, 127
1, 224478, Note_off_c, 0, 67, 64
1, 224499, Control_c, 0, 67, 83
1, 224514, Control_c, 0, 67, 127
1, 224523, Note_off_c, 0, 61, 63
1, 224523, Note_off_c, 0, 57, 63
1, 224550, Note_on_c, 0, 91, 58
1, 224554, Note_off_c, 0, 52, 62
1, 224567, Note_on_c, 0, 94, 38
1, 224690, Note_off_c, 0, 91, 61
1, 224704, Note_off_c, 0, 94, 42
1, 224710, Note_on_c, 0, 90, 54
1, 224734, Note_off_c, 0, 85, 52
1, 224833, Note_on_c, 0, 94, 39
1, 224835, Note_on_c, 0, 91, 46
1, 224849, Note_on_c, 0, 33, 45
1, 224935, Note_off_c, 0, 33, 58
1, 224939, Note_on_c, 0, 85, 56
1, 224944, Note_off_c, 0, 91, 54
1, 224987, Note_on_c, 0, 45, 47
1, 224991, Note_off_c, 0, 94, 34
1, 225020, Note_off_c, 0, 45, 64
1, 225043, Note_off_c, 0, 90, 16
1, 225059, Note_off_c, 0, 85, 61
1, 225065, Note_on_c, 0, 91, 43
1, 225071, Note_on_c, 0, 94, 13
1, 225129, Note_off_c, 0, 94, 58
1, 225132, Note_off_c, 0, 91, 65
1, 225149, Note_on_c, 0, 90, 60
1, 225190, Poly_aftertouch_c, 0, 49, 127
1, 225229, Note_off_c, 0, 90, 56
1, 225238, Note_on_c, 0, 91, 48
1, 225256, Note_on_c, 0, 94, 52
1, 225262, Poly_aftertouch_c, 0, 49, 0
1, 225271, Note_on_c, 0, 52, 48
1, 225304, Note_off_c, 0, 91, 61
1, 225320, Note_on_c, 0, 85, 64
1, 225323, Note_off_c, 0, 94, 61
1, 225386, Note_on_c, 0, 55, 50
1, 225396, Note_off_c, 0, 52, 51
1, 225402, Note_on_c, 0, 94, 50
1, 225414, Note_on_c, 0, 91, 51
1, 225433, Note_off_c, 0, 85, 62
1, 225453, Note_off_c, 0, 55, 62
1, 225474, Note_on_c, 0, 90, 65
1, 225482, Note_on_c, 0, 57, 52
1, 225489, Note_off_c, 0, 91, 64
1, 225503, Note_off_c, 0, 94, 64
1, 225536, Note_off_c, 0, 57, 59
1, 225574, Note_on_c, 0, 94, 45
1, 225576, Note_on_c, 0, 91, 50
1, 225606, Note_on_c, 0, 61, 52
1, 225617, Note_off_c, 0, 90, 59
1, 225649, Note_on_c, 0, 85, 66
1, 225655, Note_off_c, 0, 91, 62
1, 225664, Note_off_c, 0, 94, 63
1, 225732, Note_off_c, 0, 85, 62
1, 225738, Note_on_c, 0, 64, 59
1, 225739, Note_on_c, 0, 91, 50
1, 225742, Note_off_c, 0, 61, 61
1, 225743, Note_on_c, 0, 94, 46
1, 225814, Note_off_c, 0, 64, 64
1, 225822, Note_on_c, 0, 90, 63
1, 225830, Note_off_c, 0, 91, 64
1, 225845, Note_off_c, 0, 94, 62
1, 225863, Note_on_c, 0, 67, 49
1, 225902, Note_off_c, 0, 67, 63
1, 225910, Note_on_c, 0, 94, 49
1, 225928, Note_on_c, 0, 91, 46
1, 225945, Note_off_c, 0, 90, 54
1, 225992, Note_off_c, 0, 91, 59
1, 225995, Note_on_c, 0, 85, 59
1, 226013, Note_off_c, 0, 94, 59
1, 226035, Note_on_c, 0, 73, 35
1, 226088, Note_on_c, 0, 94, 35
1, 226093, Note_on_c, 0, 91, 50
1, 226118, Note_off_c, 0, 85, 58
1, 226172, Note_on_c, 0, 76, 52
1, 226176, Note_on_c, 0, 90, 55
1, 226190, Note_off_c, 0, 91, 60
1, 226199, Note_off_c, 0, 94, 49
1, 226272, Note_on_c, 0, 94, 24
1, 226279, Note_on_c, 0, 91, 27
1, 226309, Note_on_c, 0, 79, 55
1, 226319, Note_off_c, 0, 73, 41
1, 226322, Note_off_c, 0, 90, 37
1, 226431, Note_off_c, 0, 91, 43
1, 226434, Note_on_c, 0, 85, 51
1, 226447, Note_off_c, 0, 94, 40
1, 226501, Note_on_c, 0, 82, 65
1, 226542, Note_off_c, 0, 79, 60
1, 226550, Note_off_c, 0, 82, 63
1, 226566, Note_off_c, 0, 76, 42
1, 226601, Note_on_c, 0, 94, 48
1, 226614, Note_on_c, 0, 91, 44
1, 226622, Note_off_c, 0, 85, 58
1, 226724, Note_off_c, 0, 91, 59
1, 226749, Note_off_c, 0, 94, 49
1, 226750, Note_on_c, 0, 90, 51
1, 226891, Note_on_c, 0, 52, 48
1, 226892, Note_on_c, 0, 94, 59
1, 226902, Note_off_c, 0, 90, 56
1, 226931, Note_on_c, 0, 91, 37
1, 227006, Note_on_c, 0, 58, 57
1, 227036, Control_c, 0, 64, 118
1, 227050, Control_c, 0, 64, 94
1, 227065, Control_c, 0, 64, 78
1, 227080, Control_c, 0, 64, 66
1, 227082, Note_on_c, 0, 60, 63
1, 227095, Control_c, 0, 64, 56
1, 227100, Note_on_c, 0, 84, 69
1, 227109, Control_c, 0, 64, 49
1, 227124, Control_c, 0, 64, 48
1, 227139, Control_c, 0, 64, 49
1, 227154, Control_c, 0, 64, 50
1, 227169, Control_c, 0, 64, 53
1, 227183, Control_c, 0, 64, 57
1, 227185, Note_off_c, 0, 91, 40
1, 227198, Control_c, 0, 64, 62
1, 227213, Control_c, 0, 64, 67
1, 227225, Note_off_c, 0, 94, 33
1, 227226, Note_on_c, 0, 67, 77
1, 227228, Control_c, 0, 64, 72
1, 227243, Control_c, 0, 64, 79
1, 227257, Control_c, 0, 64, 84
1, 227272, Control_c, 0, 64, 88
1, 227287, Control_c, 0, 64, 93
1, 227301, Control_c, 0, 64, 99
1, 227316, Control_c, 0, 64, 106
1, 227323, Note_off_c, 0, 67, 63
1, 227331, Control_c, 0, 64, 116
1, 227346, Control_c, 0, 64, 127
1, 227366, Note_on_c, 0, 94, 49
1, 227389, Note_on_c, 0, 91, 49
1, 227390, Note_off_c, 0, 60, 62
1, 227410, Note_off_c, 0, 58, 60
1, 227434, Note_off_c, 0, 52, 53
1, 227442, Note_off_c, 0, 84, 57
1, 227512, Note_off_c, 0, 94, 51
1, 227516, Note_on_c, 0, 90, 59
1, 227517, Note_off_c, 0, 91, 61
1, 227648, Note_on_c, 0, 36, 42
1, 227656, Note_on_c, 0, 94, 50
1, 227662, Note_on_c, 0, 91, 50
1, 227732, Note_off_c, 0, 90, 33
1, 227739, Note_off_c, 0, 91, 61
1, 227743, Note_off_c, 0, 36, 53
1, 227751, Note_off_c, 0, 94, 60
1, 227754, Note_on_c, 0, 84, 60
1, 227797, Note_on_c, 0, 48, 55
1, 227829, Note_off_c, 0, 48, 65
1, 227852, Note_on_c, 0, 94, 53
1, 227858, Note_on_c, 0, 91, 43
1, 227867, Note_off_c, 0, 84, 55
1, 227918, Note_on_c, 0, 90, 63
1, 227924, Note_off_c, 0, 94, 62
1, 227927, Note_off_c, 0, 91, 59
1, 227939, Note_on_c, 0, 52, 41
1, 228015, Note_off_c, 0, 90, 63
1, 228016, Note_on_c, 0, 94, 55
1, 228023, Note_on_c, 0, 91, 44
1, 228060, Note_on_c, 0, 55, 50
1, 228090, Note_on_c, 0, 84, 66
1, 228090, Note_off_c, 0, 91, 60
1, 228097, Note_off_c, 0, 94, 62
1, 228103, Note_off_c, 0, 52, 36
1, 228174, Note_on_c, 0, 58, 54
1, 228183, Note_on_c, 0, 91, 50
1, 228183, Note_on_c, 0, 94, 49
1, 228190, Note_off_c, 0, 55, 57
1, 228192, Note_off_c, 0, 84, 62
1, 228239, Note_off_c, 0, 58, 61
1, 228258, Note_on_c, 0, 90, 64
1, 228264, Note_off_c, 0, 94, 64
1, 228266, Note_off_c, 0, 91, 62
1, 228282, Note_on_c, 0, 60, 44
1, 228326, Note_off_c, 0, 60, 61
1, 228353, Note_on_c, 0, 94, 51
1, 228360, Note_off_c, 0, 90, 63
1, 228361, Note_on_c, 0, 91, 45
1, 228417, Note_on_c, 0, 64, 47
1, 228434, Note_on_c, 0, 84, 63
1, 228439, Note_off_c, 0, 91, 55
1, 228445, Note_off_c, 0, 94, 59
1, 228520, Note_on_c, 0, 91, 37
1, 228521, Note_off_c, 0, 84, 59
1, 228529, Note_on_c, 0, 94, 42
1, 228551, Note_on_c, 0, 67, 47
1, 228602, Note_off_c, 0, 91, 63
1, 228609, Note_off_c, 0, 64, 35
1, 228618, Note_on_c, 0, 90, 50
1, 228620, Note_off_c, 0, 94, 58
1, 228671, Note_off_c, 0, 67, 54
1, 228678, Note_on_c, 0, 70, 31
1, 228690, Note_on_c, 0, 94, 28
1, 228706, Note_off_c, 0, 90, 62
1, 228714, Note_on_c, 0, 91, 24
1, 228764, Note_off_c, 0, 70, 64
1, 228784, Note_on_c, 0, 84, 58
1, 228790, Note_off_c, 0, 91, 45
1, 228794, Note_off_c, 0, 94, 54
1, 228818, Note_on_c, 0, 72, 40
1, 228861, Note_on_c, 0, 91, 34
1, 228873, Note_on_c, 0, 94, 45
1, 228882, Note_off_c, 0, 72, 57
1, 228905, Note_off_c, 0, 84, 36
1, 228952, Note_on_c, 0, 76, 51
1, 228956, Note_on_c, 0, 90, 57
1, 228973, Note_off_c, 0, 94, 54
1, 229000, Note_off_c, 0, 91, 35
1, 229052, Note_off_c, 0, 90, 58
1, 229068, Note_on_c, 0, 91, 32
1, 229068, Note_on_c, 0, 94, 21
1, 229118, Note_on_c, 0, 79, 49
1, 229156, Note_on_c, 0, 84, 56
1, 229181, Note_off_c, 0, 94, 48
1, 229182, Note_off_c, 0, 91, 34
1, 229198, Note_off_c, 0, 76, 33
1, 229296, Note_off_c, 0, 84, 48
1, 229298, Note_on_c, 0, 82, 47
1, 229310, Note_on_c, 0, 94, 48
1, 229316, Note_off_c, 0, 79, 62
1, 229323, Note_on_c, 0, 91, 41
1, 229333, Note_off_c, 0, 82, 67
1, 229406, Note_off_c, 0, 91, 59
1, 229447, Note_off_c, 0, 94, 34
1, 229450, Note_on_c, 0, 90, 44
1, 229489, Control_c, 0, 64, 120
1, 229504, Control_c, 0, 64, 116
1, 229519, Control_c, 0, 64, 114
1, 229534, Control_c, 0, 64, 112
1, 229548, Control_c, 0, 64, 109
1, 229578, Control_c, 0, 64, 107
1, 229608, Control_c, 0, 64, 103
1, 229615, Note_on_c, 0, 94, 41
1, 229623, Note_on_c, 0, 91, 39
1, 229635, Note_off_c, 0, 90, 35
1, 229637, Control_c, 0, 64, 99
1, 229667, Control_c, 0, 64, 95
1, 229668, Note_on_c, 0, 51, 41
1, 229682, Control_c, 0, 64, 93
1, 229696, Control_c, 0, 64, 91
1, 229711, Control_c, 0, 64, 87
1, 229726, Control_c, 0, 64, 83
1, 229741, Control_c, 0, 64, 78
1, 229756, Control_c, 0, 64, 73
1, 229778, Control_c, 0, 64, 68
1, 229787, Note_on_c, 0, 56, 46
1, 229793, Control_c, 0, 64, 63
1, 229808, Control_c, 0, 64, 60
1, 229823, Control_c, 0, 64, 58
1, 229897, Control_c, 0, 64, 58
1, 229911, Control_c, 0, 64, 57
1, 229915, Note_on_c, 0, 60, 44
1, 229927, Note_on_c, 0, 84, 44
1, 229941, Control_c, 0, 64, 57
1, 229971, Control_c, 0, 64, 56
1, 229988, Note_off_c, 0, 91, 42
1, 230001, Control_c, 0, 64, 57
1, 230016, Control_c, 0, 64, 58
1, 230031, Control_c, 0, 64, 59
1, 230041, Note_off_c, 0, 94, 39
1, 230045, Control_c, 0, 64, 62
1, 230060, Control_c, 0, 64, 65
1, 230075, Control_c, 0, 64, 69
1, 230090, Control_c, 0, 64, 75
1, 230105, Control_c, 0, 64, 82
1, 230119, Control_c, 0, 64, 85
1, 230134, Control_c, 0, 64, 87
1, 230149, Control_c, 0, 64, 90
1, 230164, Control_c, 0, 64, 93
1, 230179, Control_c, 0, 64, 96
1, 230193, Control_c, 0, 64, 99
1, 230208, Control_c, 0, 64, 102
1, 230223, Control_c, 0, 64, 105
1, 230238, Control_c, 0, 64, 108
1, 230243, Note_on_c, 0, 66, 61
1, 230252, Control_c, 0, 64, 110
1, 230267, Control_c, 0, 64, 114
1, 230282, Control_c, 0, 64, 122
1, 230297, Control_c, 0, 64, 127
1, 230392, Note_off_c, 0, 66, 64
1, 230464, Note_off_c, 0, 60, 60
1, 230465, Note_on_c, 0, 90, 39
1, 230478, Note_on_c, 0, 94, 41
1, 230524, Note_off_c, 0, 51, 56
1, 230540, Note_off_c, 0, 56, 39
1, 230629, Note_off_c, 0, 84, 38
1, 230666, Note_on_c, 0, 89, 49
1, 230693, Note_off_c, 0, 90, 46
1, 230702, Note_off_c, 0, 94, 37
1, 230874, Note_on_c, 0, 90, 43
1, 230882, Note_on_c, 0, 32, 49
1, 230892, Note_on_c, 0, 94, 47
1, 230939, Note_off_c, 0, 89, 36
1, 231063, Note_off_c, 0, 90, 57
1, 231068, Note_off_c, 0, 94, 51
1, 231075, Note_off_c, 0, 32, 41
1, 231076, Note_on_c, 0, 84, 52
1, 231131, Note_on_c, 0, 44, 47
1, 231192, Note_off_c, 0, 44, 61
1, 231221, Note_on_c, 0, 90, 52
1, 231221, Note_on_c, 0, 94, 52
1, 231298, Note_off_c, 0, 84, 53
1, 231344, Note_off_c, 0, 94, 52
1, 231351, Note_off_c, 0, 90, 58
1, 231362, Note_on_c, 0, 89, 50
1, 231382, Note_on_c, 0, 48, 24
1, 231460, Note_off_c, 0, 89, 51
1, 231480, Note_on_c, 0, 90, 43
1, 231483, Note_on_c, 0, 94, 44
1, 231522, Note_on_c, 0, 51, 45
1, 231537, Note_off_c, 0, 90, 58
1, 231570, Note_off_c, 0, 94, 57
1, 231584, Note_on_c, 0, 84, 58
1, 231628, Note_off_c, 0, 48, 39
1, 231663, Note_on_c, 0, 54, 45
1, 231669, Note_on_c, 0, 90, 50
1, 231683, Note_on_c, 0, 94, 47
1, 231728, Note_off_c, 0, 84, 54
1, 231760, Note_off_c, 0, 90, 61
1, 231764, Note_on_c, 0, 89, 48
1, 231769, Note_off_c, 0, 94, 52
1, 231775, Note_on_c, 0, 56, 43
1, 231813, Note_off_c, 0, 51, 31
1, 231848, Note_off_c, 0, 54, 57
1, 231856, Note_off_c, 0, 89, 56
1, 231861, Note_on_c, 0, 90, 45
1, 231884, Note_on_c, 0, 94, 22
1, 231886, Note_off_c, 0, 56, 62
1, 231918, Note_off_c, 0, 90, 59
1, 231924, Note_on_c, 0, 60, 36
1, 231934, Note_on_c, 0, 84, 62
1, 231936, Note_off_c, 0, 94, 60
1, 231957, Note_off_c, 0, 60, 55
1, 232040, Note_on_c, 0, 94, 53
1, 232043, Note_on_c, 0, 90, 51
1, 232063, Note_on_c, 0, 63, 47
1, 232070, Note_off_c, 0, 84, 53
1, 232120, Note_off_c, 0, 94, 60
1, 232123, Note_off_c, 0, 90, 62
1, 232130, Note_on_c, 0, 89, 54
1, 232207, Note_on_c, 0, 66, 55
1, 232216, Note_on_c, 0, 90, 43
1, 232220, Note_off_c, 0, 89, 55
1, 232231, Note_on_c, 0, 94, 41
1, 232281, Note_off_c, 0, 90, 55
1, 232297, Note_on_c, 0, 84, 59
1, 232298, Note_off_c, 0, 94, 57
1, 232301, Note_on_c, 0, 68, 50
1, 232380, Note_off_c, 0, 66, 52
1, 232381, Note_off_c, 0, 63, 35
1, 232398, Note_on_c, 0, 90, 56
1, 232400, Note_on_c, 0, 94, 51
1, 232416, Note_off_c, 0, 68, 62
1, 232422, Note_off_c, 0, 84, 55
1, 232444, Note_on_c, 0, 72, 49
1, 232479, Note_off_c, 0, 90, 63
1, 232485, Note_on_c, 0, 89, 51
1, 232485, Note_off_c, 0, 94, 59
1, 232573, Note_on_c, 0, 94, 37
1, 232579, Note_off_c, 0, 89, 57
1, 232584, Note_on_c, 0, 90, 35
1, 232587, Note_off_c, 0, 72, 36
1, 232623, Note_on_c, 0, 75, 46
1, 232635, Note_off_c, 0, 90, 52
1, 232663, Note_on_c, 0, 84, 58
1, 232670, Note_off_c, 0, 94, 51
1, 232761, Note_on_c, 0, 90, 51
1, 232793, Note_on_c, 0, 78, 53
1, 232793, Note_off_c, 0, 84, 54
1, 232799, Note_on_c, 0, 94, 30
1, 232875, Note_off_c, 0, 90, 49
1, 232891, Note_on_c, 0, 89, 43
1, 232894, Note_off_c, 0, 94, 34
1, 232931, Note_off_c, 0, 75, 29
1, 232940, Note_on_c, 0, 80, 57
1, 233001, Note_off_c, 0, 78, 46
1, 233020, Note_on_c, 0, 94, 40
1, 233024, Note_off_c, 0, 89, 53
1, 233025, Note_on_c, 0, 90, 39
1, 233101, Note_off_c, 0, 80, 64
1, 233158, Note_on_c, 0, 81, 50
1, 233158, Note_on_c, 0, 89, 56
1, 233182, Note_off_c, 0, 90, 39
1, 233204, Note_off_c, 0, 94, 38
1, 233278, Note_off_c, 0, 89, 57
1, 233297, Note_off_c, 0, 81, 64
1, 233300, Note_on_c, 0, 90, 47
1, 233307, Note_on_c, 0, 84, 57
1, 233354, Note_on_c, 0, 93, 18
1, 233382, Note_off_c, 0, 90, 61
1, 233409, Note_off_c, 0, 84, 56
1, 233411, Note_on_c, 0, 86, 60
1, 233412, Note_on_c, 0, 78, 57
1, 233414, Note_off_c, 0, 93, 43
1, 233475, Note_off_c, 0, 86, 63
1, 233504, Note_on_c, 0, 81, 54
1, 233507, Note_on_c, 0, 87, 44
1, 233535, Note_on_c, 0, 90, 37
1, 233562, Note_off_c, 0, 87, 60
1, 233578, Note_off_c, 0, 90, 57
1, 233594, Note_off_c, 0, 81, 63
1, 233604, Note_on_c, 0, 83, 65
1, 233609, Note_on_c, 0, 75, 59
1, 233611, Note_off_c, 0, 78, 56
1, 233645, Note_off_c, 0, 75, 61
1, 233654, Note_off_c, 0, 83, 62
1, 233685, Note_on_c, 0, 87, 55
1, 233698, Note_on_c, 0, 78, 60
1, 233710, Note_on_c, 0, 84, 52
1, 233747, Note_off_c, 0, 84, 64
1, 233753, Note_off_c, 0, 87, 60
1, 233784, Note_on_c, 0, 80, 66
1, 233793, Note_off_c, 0, 78, 57
1, 233808, Note_on_c, 0, 72, 44
1, 233811, Note_off_c, 0, 80, 67
1, 233852, Note_on_c, 0, 75, 59
1, 233861, Note_off_c, 0, 72, 55
1, 233876, Note_on_c, 0, 84, 55
1, 233922, Note_on_c, 0, 81, 7
1, 233926, Note_off_c, 0, 75, 61
1, 233942, Note_on_c, 0, 69, 44
1, 233960, Note_on_c, 0, 77, 67
1, 233960, Note_off_c, 0, 84, 58
1, 233968, Note_off_c, 0, 69, 60
1, 233968, Note_off_c, 0, 81, 53
1, 233997, Note_off_c, 0, 77, 58
1, 234008, Note_on_c, 0, 72, 53
1, 234026, Note_on_c, 0, 78, 70
1, 234079, Note_on_c, 0, 66, 69
1, 234085, Note_off_c, 0, 72, 57
1, 234092, Note_off_c, 0, 78, 59
1, 234108, Note_on_c, 0, 74, 76
1, 234158, Poly_aftertouch_c, 0, 81, 0
1, 234160, Note_off_c, 0, 74, 57
1, 234170, Note_on_c, 0, 69, 53
1, 234181, Note_on_c, 0, 75, 65
1, 234190, Note_on_c, 0, 78, 51
1, 234205, Note_off_c, 0, 69, 60
1, 234212, Note_off_c, 0, 75, 62
1, 234228, Note_off_c, 0, 78, 61
1, 234230, Note_off_c, 0, 66, 53
1, 234238, Note_on_c, 0, 63, 50
1, 234243, Note_on_c, 0, 71, 75
1, 234279, Note_off_c, 0, 63, 65
1, 234287, Note_off_c, 0, 71, 58
1, 234290, Note_on_c, 0, 66, 52
1, 234331, Note_on_c, 0, 75, 52
1, 234333, Note_on_c, 0, 72, 55
1, 234362, Note_off_c, 0, 72, 64
1, 234370, Note_off_c, 0, 75, 65
1, 234378, Note_on_c, 0, 68, 75
1, 234388, Note_off_c, 0, 66, 62
1, 234389, Note_on_c, 0, 60, 58
1, 234401, Note_off_c, 0, 68, 70
1, 234420, Note_on_c, 0, 63, 71
1, 234458, Note_on_c, 0, 72, 50
1, 234463, Note_off_c, 0, 60, 57
1, 234464, Note_on_c, 0, 69, 63
1, 234485, Note_off_c, 0, 63, 62
1, 234492, Note_off_c, 0, 69, 66
1, 234493, Note_on_c, 0, 57, 60
1, 234513, Note_on_c, 0, 65, 73
1, 234514, Note_off_c, 0, 72, 61
1, 234527, Note_off_c, 0, 57, 64
1, 234537, Control_c, 0, 64, 111
1, 234541, Note_off_c, 0, 65, 62
1, 234552, Control_c, 0, 64, 102
1, 234566, Note_on_c, 0, 60, 61
1, 234566, Control_c, 0, 64, 95
1, 234570, Note_on_c, 0, 66, 74
1, 234581, Control_c, 0, 64, 89
1, 234596, Control_c, 0, 64, 82
1, 234601, Note_on_c, 0, 69, 46
1, 234610, Control_c, 0, 64, 76
1, 234625, Control_c, 0, 64, 71
1, 234625, Note_on_c, 0, 54, 67
1, 234625, Note_off_c, 0, 60, 44
1, 234628, Note_off_c, 0, 66, 62
1, 234638, Note_on_c, 0, 62, 74
1, 234640, Control_c, 0, 64, 65
1, 234643, Note_off_c, 0, 69, 62
1, 234655, Control_c, 0, 64, 59
1, 234670, Control_c, 0, 64, 55
1, 234684, Note_off_c, 0, 62, 57
1, 234685, Control_c, 0, 64, 54
1, 234694, Note_on_c, 0, 57, 58
1, 234702, Note_on_c, 0, 63, 73
1, 234711, Note_on_c, 0, 66, 60
1, 234714, Control_c, 0, 64, 53
1, 234729, Control_c, 0, 64, 53
1, 234735, Note_off_c, 0, 63, 64
1, 234750, Note_off_c, 0, 54, 47
1, 234755, Note_off_c, 0, 57, 62
1, 234759, Note_off_c, 0, 66, 62
1, 234768, Note_on_c, 0, 51, 62
1, 234770, Note_on_c, 0, 59, 72
1, 234773, Control_c, 0, 64, 52
1, 234801, Note_off_c, 0, 59, 66
1, 234804, Note_off_c, 0, 51, 62
1, 234829, Note_on_c, 0, 54, 50
1, 234838, Note_on_c, 0, 60, 60
1, 234840, Note_on_c, 0, 63, 62
1, 234866, Note_off_c, 0, 60, 63
1, 234875, Note_off_c, 0, 54, 55
1, 234884, Note_off_c, 0, 63, 62
1, 234893, Control_c, 0, 64, 51
1, 234894, Note_on_c, 0, 56, 77
1, 234902, Note_on_c, 0, 49, 42
1, 234907, Control_c, 0, 64, 49
1, 234917, Note_off_c, 0, 56, 66
1, 234922, Control_c, 0, 64, 46
1, 234932, Note_on_c, 0, 48, 47
1, 234937, Control_c, 0, 64, 40
1, 234941, Note_on_c, 0, 51, 65
1, 234941, Note_off_c, 0, 49, 33
1, 234952, Control_c, 0, 64, 30
1, 234967, Control_c, 0, 64, 0
1, 234970, Note_off_c, 0, 48, 51
1, 234973, Note_on_c, 0, 60, 57
1, 234976, Note_on_c, 0, 57, 57
1, 234986, Note_off_c, 0, 51, 59
1, 235015, Note_off_c, 0, 57, 65
1, 235018, Note_on_c, 0, 45, 58
1, 235029, Note_on_c, 0, 53, 71
1, 235031, Note_off_c, 0, 60, 63
1, 235049, Note_off_c, 0, 45, 64
1, 235054, Note_off_c, 0, 53, 68
1, 235073, Note_on_c, 0, 48, 67
1, 235091, Note_on_c, 0, 54, 66
1, 235111, Note_on_c, 0, 57, 34
1, 235115, Note_off_c, 0, 48, 61
1, 235131, Note_off_c, 0, 54, 60
1, 235145, Note_on_c, 0, 42, 61
1, 235156, Note_on_c, 0, 50, 71
1, 235157, Note_off_c, 0, 57, 53
1, 235194, Note_off_c, 0, 50, 59
1, 235206, Note_on_c, 0, 45, 55
1, 235207, Note_off_c, 0, 42, 59
1, 235212, Note_on_c, 0, 51, 74
1, 235227, Note_on_c, 0, 54, 64
1, 235245, Note_off_c, 0, 45, 60
1, 235245, Note_off_c, 0, 51, 64
1, 235262, Note_off_c, 0, 54, 63
1, 235278, Note_on_c, 0, 39, 63
1, 235278, Note_on_c, 0, 47, 74
1, 235305, Note_off_c, 0, 39, 64
1, 235313, Note_off_c, 0, 47, 56
1, 235319, Note_on_c, 0, 42, 75
1, 235337, Note_on_c, 0, 48, 75
1, 235347, Note_on_c, 0, 51, 58
1, 235376, Note_off_c, 0, 48, 65
1, 235385, Note_off_c, 0, 51, 64
1, 235401, Note_on_c, 0, 44, 79
1, 235405, Note_on_c, 0, 36, 57
1, 235411, Note_off_c, 0, 42, 59
1, 235427, Note_off_c, 0, 44, 66
1, 235436, Note_on_c, 0, 39, 63
1, 235464, Note_off_c, 0, 36, 54
1, 235480, Note_on_c, 0, 48, 72
1, 235483, Note_on_c, 0, 45, 56
1, 235503, Note_off_c, 0, 39, 63
1, 235510, Note_on_c, 0, 33, 63
1, 235514, Note_off_c, 0, 45, 64
1, 235527, Note_off_c, 0, 48, 64
1, 235528, Note_on_c, 0, 41, 81
1, 235542, Note_off_c, 0, 33, 62
1, 235569, Note_off_c, 0, 41, 63
1, 235583, Note_on_c, 0, 36, 58
1, 235600, Note_on_c, 0, 42, 70
1, 235620, Note_on_c, 0, 45, 34
1, 235621, Note_off_c, 0, 36, 59
1, 235646, Note_off_c, 0, 42, 61
1, 235647, Note_on_c, 0, 30, 54
1, 235667, Note_off_c, 0, 45, 47
1, 235669, Note_on_c, 0, 38, 73
1, 235689, Note_off_c, 0, 30, 62
1, 235717, Note_on_c, 0, 33, 51
1, 235733, Note_off_c, 0, 38, 59
1, 235734, Note_on_c, 0, 42, 67
1, 235746, Note_on_c, 0, 39, 60
1, 235793, Note_off_c, 0, 39, 65
1, 235800, Note_off_c, 0, 33, 57
1, 235814, Note_on_c, 0, 32, 69
1, 235823, Note_off_c, 0, 42, 60
1, 235883, Note_off_c, 0, 32, 60
1, 235899, Note_on_c, 0, 31, 60
1, 235996, Note_off_c, 0, 31, 61
1, 236005, Note_on_c, 0, 32, 66
1, 236061, Note_off_c, 0, 32, 58
1, 236074, Note_on_c, 0, 44, 60
1, 236172, Note_on_c, 0, 32, 68
1, 236264, Note_off_c, 0, 32, 59
1, 236291, Note_on_c, 0, 31, 41
1, 236338, Note_off_c, 0, 31, 60
1, 236359, Note_on_c, 0, 32, 63
1, 236391, Control_c, 0, 64, 34
1, 236405, Control_c, 0, 64, 45
1, 236416, Note_off_c, 0, 32, 61
1, 236420, Control_c, 0, 64, 60
1, 236435, Control_c, 0, 64, 65
1, 236437, Note_on_c, 0, 31, 55
1, 236450, Control_c, 0, 64, 69
1, 236465, Control_c, 0, 64, 72
1, 236480, Control_c, 0, 64, 76
1, 236494, Control_c, 0, 64, 81
1, 236517, Note_off_c, 0, 44, 57
1, 236517, Control_c, 0, 64, 86
1, 236520, Note_off_c, 0, 31, 61
1, 236532, Control_c, 0, 64, 91
1, 236534, Note_on_c, 0, 32, 70
1, 236547, Control_c, 0, 64, 94
1, 236561, Control_c, 0, 64, 95
1, 236576, Control_c, 0, 64, 95
1, 236598, Note_off_c, 0, 32, 58
1, 236617, Note_on_c, 0, 44, 76
1, 236620, Control_c, 0, 64, 95
1, 236635, Control_c, 0, 64, 91
1, 236650, Control_c, 0, 64, 82
1, 236665, Control_c, 0, 64, 73
1, 236680, Control_c, 0, 64, 65
1, 236694, Control_c, 0, 64, 60
1, 236709, Control_c, 0, 64, 61
1, 236712, Note_on_c, 0, 32, 71
1, 236724, Control_c, 0, 64, 65
1, 236739, Control_c, 0, 64, 75
1, 236754, Control_c, 0, 64, 87
1, 236768, Control_c, 0, 64, 98
1, 236783, Control_c, 0, 64, 103
1, 236792, Note_off_c, 0, 32, 57
1, 236813, Control_c, 0, 64, 105
1, 236815, Note_on_c, 0, 31, 46
1, 236843, Control_c, 0, 64, 100
1, 236858, Control_c, 0, 64, 87
1, 236873, Note_off_c, 0, 31, 61
1, 236873, Control_c, 0, 64, 73
1, 236887, Control_c, 0, 64, 59
1, 236894, Note_on_c, 0, 32, 64
1, 236902, Control_c, 0, 64, 41
1, 236917, Control_c, 0, 64, 33
1, 236932, Control_c, 0, 64, 38
1, 236938, Note_off_c, 0, 32, 61
1, 236947, Control_c, 0, 64, 51
1, 236961, Control_c, 0, 64, 62
1, 236974, Note_on_c, 0, 31, 48
1, 236976, Control_c, 0, 64, 71
1, 236991, Control_c, 0, 64, 79
1, 237006, Control_c, 0, 64, 84
1, 237020, Control_c, 0, 64, 86
1, 237035, Control_c, 0, 64, 88
1, 237036, Note_off_c, 0, 44, 54
1, 237045, Note_on_c, 0, 32, 68
1, 237050, Control_c, 0, 64, 89
1, 237051, Note_off_c, 0, 31, 48
1, 237065, Control_c, 0, 64, 91
1, 237080, Control_c, 0, 64, 92
1, 237094, Control_c, 0, 64, 94
1, 237109, Control_c, 0, 64, 96
1, 237141, Note_on_c, 0, 44, 75
1, 237141, Note_off_c, 0, 32, 59
1, 237168, Control_c, 0, 64, 88
1, 237184, Control_c, 0, 64, 75
1, 237199, Control_c, 0, 64, 62
1, 237214, Control_c, 0, 64, 50
1, 237229, Control_c, 0, 64, 49
1, 237233, Note_on_c, 0, 32, 69
1, 237243, Control_c, 0, 64, 54
1, 237266, Control_c, 0, 64, 62
1, 237281, Control_c, 0, 64, 71
1, 237296, Control_c, 0, 64, 82
1, 237311, Control_c, 0, 64, 92
1, 237314, Note_off_c, 0, 32, 58
1, 237325, Control_c, 0, 64, 95
1, 237345, Note_on_c, 0, 31, 45
1, 237355, Control_c, 0, 64, 97
1, 237370, Control_c, 0, 64, 95
1, 237385, Control_c, 0, 64, 86
1, 237388, Note_off_c, 0, 31, 61
1, 237399, Control_c, 0, 64, 72
1, 237412, Note_on_c, 0, 32, 61
1, 237414, Control_c, 0, 64, 58
1, 237429, Control_c, 0, 64, 47
1, 237443, Control_c, 0, 64, 49
1, 237458, Control_c, 0, 64, 59
1, 237461, Note_off_c, 0, 32, 59
1, 237473, Control_c, 0, 64, 70
1, 237488, Control_c, 0, 64, 84
1, 237489, Note_on_c, 0, 31, 51
1, 237503, Control_c, 0, 64, 102
1, 237517, Control_c, 0, 64, 110
1, 237532, Control_c, 0, 64, 118
1, 237544, Note_off_c, 0, 44, 49
1, 237547, Control_c, 0, 64, 127
1, 237576, Note_on_c, 0, 32, 58
1, 237621, Control_c, 0, 64, 87
1, 237636, Control_c, 0, 64, 66
1, 237642, Note_off_c, 0, 31, 30
1, 237651, Control_c, 0, 64, 36
1, 237665, Control_c, 0, 64, 0
1, 237667, Note_on_c, 0, 44, 71
1, 237672, Note_off_c, 0, 32, 60
1, 237695, Control_c, 0, 64, 47
1, 237710, Control_c, 0, 64, 64
1, 237725, Control_c, 0, 64, 75
1, 237740, Control_c, 0, 64, 86
1, 237754, Control_c, 0, 64, 93
1, 237769, Control_c, 0, 64, 96
1, 237778, Note_on_c, 0, 32, 61
1, 237784, Control_c, 0, 64, 98
1, 237799, Control_c, 0, 64, 101
1, 237828, Control_c, 0, 64, 103
1, 237858, Control_c, 0, 64, 105
1, 237859, Note_off_c, 0, 32, 54
1, 237903, Control_c, 0, 64, 107
1, 237937, Note_on_c, 0, 31, 23
1, 237947, Control_c, 0, 64, 93
1, 237954, Note_on_c, 0, 60, 75
1, 237961, Control_c, 0, 64, 67
1, 237975, Note_on_c, 0, 54, 50
1, 237976, Control_c, 0, 64, 31
1, 237978, Note_on_c, 0, 51, 62
1, 237984, Note_off_c, 0, 31, 56
1, 237993, Control_c, 0, 64, 0
1, 237994, Note_on_c, 0, 32, 62
1, 238044, Control_c, 0, 64, 34
1, 238059, Control_c, 0, 64, 51
1, 238074, Control_c, 0, 64, 65
1, 238089, Control_c, 0, 64, 68
1, 238098, Note_off_c, 0, 32, 54
1, 238104, Control_c, 0, 64, 69
1, 238112, Note_on_c, 0, 31, 46
1, 238119, Control_c, 0, 64, 70
1, 238151, Note_off_c, 0, 60, 60
1, 238159, Note_off_c, 0, 44, 53
1, 238247, Note_on_c, 0, 60, 72
1, 238256, Note_on_c, 0, 32, 54
1, 238281, Control_c, 0, 64, 69
1, 238315, Note_off_c, 0, 31, 36
1, 238326, Control_c, 0, 64, 69
1, 238340, Control_c, 0, 64, 68
1, 238355, Note_on_c, 0, 58, 79
1, 238355, Control_c, 0, 64, 67
1, 238370, Control_c, 0, 64, 65
1, 238372, Note_off_c, 0, 60, 63
1, 238381, Note_on_c, 0, 44, 69
1, 238382, Note_off_c, 0, 32, 54
1, 238384, Control_c, 0, 64, 64
1, 238399, Control_c, 0, 64, 62
1, 238414, Control_c, 0, 64, 61
1, 238429, Control_c, 0, 64, 59
1, 238442, Note_on_c, 0, 60, 72
1, 238444, Control_c, 0, 64, 57
1, 238458, Control_c, 0, 64, 53
1, 238473, Control_c, 0, 64, 46
1, 238475, Note_on_c, 0, 32, 68
1, 238482, Note_off_c, 0, 54, 54
1, 238486, Note_off_c, 0, 58, 54
1, 238488, Control_c, 0, 64, 37
1, 238503, Control_c, 0, 64, 0
1, 238508, Note_on_c, 0, 56, 75
1, 238540, Note_off_c, 0, 60, 62
1, 238544, Note_off_c, 0, 32, 61
1, 238552, Note_on_c, 0, 31, 65
1, 238560, Note_off_c, 0, 56, 63
1, 238577, Control_c, 0, 67, 102
1, 238592, Control_c, 0, 67, 64
1, 238607, Control_c, 0, 67, 0
1, 238619, Note_off_c, 0, 31, 62
1, 238621, Note_on_c, 0, 32, 72
1, 238650, Note_on_c, 0, 63, 52
1, 238678, Note_off_c, 0, 63, 58
1, 238688, Note_off_c, 0, 32, 62
1, 238702, Note_on_c, 0, 31, 58
1, 238727, Note_off_c, 0, 51, 59
1, 238736, Note_off_c, 0, 44, 52
1, 238780, Note_on_c, 0, 63, 73
1, 238815, Note_on_c, 0, 32, 71
1, 238816, Note_off_c, 0, 63, 63
1, 238818, Note_off_c, 0, 31, 58
1, 238837, Control_c, 0, 64, 34
1, 238852, Control_c, 0, 64, 54
1, 238867, Control_c, 0, 64, 63
1, 238869, Note_on_c, 0, 63, 79
1, 238870, Note_on_c, 0, 57, 70
1, 238882, Control_c, 0, 64, 65
1, 238882, Control_c, 0, 67, 51
1, 238886, Note_on_c, 0, 54, 60
1, 238894, Note_off_c, 0, 32, 61
1, 238897, Control_c, 0, 64, 66
1, 238897, Control_c, 0, 67, 99
1, 238902, Note_on_c, 0, 44, 64
1, 238911, Control_c, 0, 67, 127
1, 238926, Control_c, 0, 64, 66
1, 238971, Control_c, 0, 64, 67
1, 238986, Control_c, 0, 64, 67
1, 238989, Note_on_c, 0, 32, 62
1, 239001, Control_c, 0, 64, 69
1, 239015, Control_c, 0, 64, 70
1, 239030, Control_c, 0, 64, 72
1, 239031, Note_off_c, 0, 54, 61
1, 239031, Note_off_c, 0, 57, 58
1, 239040, Note_off_c, 0, 63, 60
1, 239045, Control_c, 0, 64, 74
1, 239060, Note_off_c, 0, 32, 59
1, 239060, Control_c, 0, 64, 74
1, 239086, Note_on_c, 0, 65, 71
1, 239087, Note_on_c, 0, 31, 57
1, 239104, Control_c, 0, 64, 73
1, 239119, Control_c, 0, 64, 69
1, 239134, Control_c, 0, 64, 64
1, 239134, Control_c, 0, 67, 110
1, 239148, Note_on_c, 0, 63, 83
1, 239149, Control_c, 0, 64, 60
1, 239149, Control_c, 0, 67, 54
1, 239158, Note_off_c, 0, 31, 61
1, 239163, Control_c, 0, 64, 59
1, 239163, Control_c, 0, 67, 0
1, 239171, Note_on_c, 0, 32, 72
1, 239178, Control_c, 0, 64, 60
1, 239193, Control_c, 0, 64, 63
1, 239195, Note_off_c, 0, 65, 58
1, 239207, Control_c, 0, 64, 65
1, 239222, Control_c, 0, 64, 67
1, 239230, Note_on_c, 0, 61, 77
1, 239234, Note_off_c, 0, 44, 57
1, 239237, Control_c, 0, 64, 68
1, 239238, Note_off_c, 0, 63, 63
1, 239245, Note_off_c, 0, 32, 61
1, 239252, Control_c, 0, 64, 69
1, 239260, Note_on_c, 0, 31, 62
1, 239267, Control_c, 0, 64, 70
1, 239278, Note_off_c, 0, 61, 61
1, 239318, Note_on_c, 0, 60, 76
1, 239341, Control_c, 0, 64, 69
1, 239356, Control_c, 0, 64, 67
1, 239359, Note_on_c, 0, 32, 71
1, 239370, Control_c, 0, 64, 64
1, 239385, Control_c, 0, 64, 57
1, 239391, Note_off_c, 0, 31, 34
1, 239400, Control_c, 0, 64, 50
1, 239406, Note_on_c, 0, 58, 82
1, 239411, Note_on_c, 0, 54, 74
1, 239415, Control_c, 0, 64, 43
1, 239426, Note_off_c, 0, 60, 61
1, 239430, Control_c, 0, 64, 40
1, 239430, Control_c, 0, 67, 72
1, 239431, Note_on_c, 0, 44, 74
1, 239436, Note_off_c, 0, 32, 59
1, 239445, Control_c, 0, 67, 122
1, 239460, Control_c, 0, 64, 41
1, 239460, Control_c, 0, 67, 127
1, 239474, Control_c, 0, 64, 42
1, 239489, Control_c, 0, 64, 42
1, 239499, Note_on_c, 0, 60, 82
1, 239523, Note_on_c, 0, 32, 67
1, 239543, Note_off_c, 0, 54, 58
1, 239543, Note_off_c, 0, 58, 60
1, 239555, Control_c, 0, 64, 42
1, 239572, Note_on_c, 0, 56, 83
1, 239586, Control_c, 0, 64, 40
1, 239594, Note_off_c, 0, 32, 61
1, 239600, Note_off_c, 0, 60, 63
1, 239601, Control_c, 0, 64, 37
1, 239604, Note_on_c, 0, 31, 65
1, 239616, Control_c, 0, 64, 33
1, 239630, Control_c, 0, 64, 0
1, 239633, Note_off_c, 0, 56, 63
1, 239673, Note_on_c, 0, 32, 73
1, 239675, Note_off_c, 0, 31, 63
1, 239704, Control_c, 0, 67, 124
1, 239719, Control_c, 0, 67, 55
1, 239734, Control_c, 0, 67, 0
1, 239752, Note_off_c, 0, 32, 62
1, 239761, Note_on_c, 0, 31, 64
1, 239830, Note_off_c, 0, 44, 51
1, 239850, Note_on_c, 0, 60, 73
1, 239872, Note_on_c, 0, 32, 74
1, 239882, Note_off_c, 0, 31, 60
1, 239891, Note_off_c, 0, 60, 64
1, 239898, Control_c, 0, 64, 30
1, 239912, Control_c, 0, 64, 46
1, 239923, Note_on_c, 0, 60, 72
1, 239926, Note_on_c, 0, 54, 58
1, 239927, Control_c, 0, 64, 59
1, 239934, Note_on_c, 0, 51, 81
1, 239942, Control_c, 0, 64, 64
1, 239955, Note_on_c, 0, 44, 68
1, 239956, Control_c, 0, 64, 66
1, 239956, Control_c, 0, 67, 56
1, 239967, Note_off_c, 0, 32, 58
1, 239971, Control_c, 0, 64, 67
1, 239971, Control_c, 0, 67, 90
1, 239986, Control_c, 0, 64, 67
1, 239986, Control_c, 0, 67, 127
1, 240001, Control_c, 0, 64, 69
1, 240016, Control_c, 0, 64, 71
1, 240030, Control_c, 0, 64, 74
1, 240045, Control_c, 0, 64, 76
1, 240060, Control_c, 0, 64, 77
1, 240064, Note_on_c, 0, 32, 71
1, 240072, Note_off_c, 0, 60, 64
1, 240075, Control_c, 0, 64, 78
1, 240090, Control_c, 0, 64, 79
1, 240104, Control_c, 0, 64, 79
1, 240130, Note_on_c, 0, 58, 80
1, 240137, Note_off_c, 0, 51, 63
1, 240144, Note_off_c, 0, 32, 61
1, 240150, Note_off_c, 0, 54, 62
1, 240153, Note_on_c, 0, 31, 64
1, 240163, Note_off_c, 0, 58, 57
1, 240178, Control_c, 0, 64, 78
1, 240193, Control_c, 0, 64, 72
1, 240196, Note_on_c, 0, 58, 78
1, 240199, Note_on_c, 0, 52, 80
1, 240208, Control_c, 0, 64, 61
1, 240223, Control_c, 0, 64, 40
1, 240226, Note_off_c, 0, 31, 62
1, 240227, Note_on_c, 0, 32, 74
1, 240238, Control_c, 0, 64, 0
1, 240305, Control_c, 0, 64, 32
1, 240319, Control_c, 0, 64, 45
1, 240320, Note_off_c, 0, 32, 60
1, 240334, Control_c, 0, 64, 56
1, 240335, Note_on_c, 0, 31, 62
1, 240343, Note_off_c, 0, 52, 59
1, 240349, Control_c, 0, 64, 62
1, 240363, Control_c, 0, 64, 64
1, 240380, Control_c, 0, 64, 66
1, 240391, Note_off_c, 0, 44, 57
1, 240392, Note_on_c, 0, 55, 75
1, 240395, Control_c, 0, 64, 69
1, 240408, Note_off_c, 0, 58, 62
1, 240409, Control_c, 0, 64, 74
1, 240424, Control_c, 0, 64, 81
1, 240431, Note_on_c, 0, 32, 77
1, 240434, Note_off_c, 0, 31, 55
1, 240439, Control_c, 0, 64, 94
1, 240449, Note_off_c, 0, 55, 62
1, 240453, Control_c, 0, 64, 127
1, 240485, Note_on_c, 0, 56, 87
1, 240486, Note_on_c, 0, 53, 77
1, 240507, Note_on_c, 0, 44, 77
1, 240516, Note_off_c, 0, 32, 60
1, 240547, Note_off_c, 0, 53, 60
1, 240564, Note_on_c, 0, 55, 84
1, 240611, Note_on_c, 0, 32, 78
1, 240631, Poly_aftertouch_c, 0, 57, 127
1, 240631, Control_c, 0, 64, 98
1, 240639, Note_on_c, 0, 53, 90
1, 240646, Control_c, 0, 64, 81
1, 240651, Note_off_c, 0, 56, 58
1, 240661, Poly_aftertouch_c, 0, 57, 0
1, 240661, Control_c, 0, 64, 68
1, 240670, Note_off_c, 0, 55, 64
1, 240676, Control_c, 0, 64, 56
1, 240691, Control_c, 0, 64, 38
1, 240706, Control_c, 0, 64, 0
1, 240706, Note_off_c, 0, 32, 61
1, 240706, Note_off_c, 0, 53, 64
1, 240715, Note_on_c, 0, 31, 68
1, 240765, Control_c, 0, 67, 80
1, 240778, Note_on_c, 0, 32, 76
1, 240779, Control_c, 0, 67, 0
1, 240789, Note_off_c, 0, 31, 62
1, 240865, Note_off_c, 0, 32, 62
1, 240876, Note_on_c, 0, 31, 65
1, 240909, Note_off_c, 0, 44, 54
1, 240927, Note_on_c, 0, 60, 72
1, 240947, Note_on_c, 0, 54, 53
1, 240958, Note_off_c, 0, 60, 64
1, 240976, Note_on_c, 0, 32, 81
1, 240976, Note_off_c, 0, 54, 64
1, 240977, Note_off_c, 0, 31, 62
1, 241016, Note_on_c, 0, 60, 76
1, 241019, Note_on_c, 0, 51, 88
1, 241028, Note_on_c, 0, 54, 71
1, 241046, Note_on_c, 0, 44, 74
1, 241054, Control_c, 0, 64, 60
1, 241067, Note_off_c, 0, 32, 60
1, 241068, Control_c, 0, 64, 67
1, 241068, Control_c, 0, 67, 45
1, 241083, Control_c, 0, 64, 75
1, 241083, Control_c, 0, 67, 113
1, 241098, Control_c, 0, 64, 88
1, 241098, Control_c, 0, 67, 127
1, 241113, Control_c, 0, 64, 122
1, 241128, Control_c, 0, 64, 127
1, 241147, Note_off_c, 0, 60, 63
1, 241160, Note_on_c, 0, 32, 76
1, 241210, Note_on_c, 0, 58, 85
1, 241217, Note_off_c, 0, 51, 60
1, 241235, Note_off_c, 0, 32, 60
1, 241235, Note_off_c, 0, 54, 60
1, 241236, Note_on_c, 0, 31, 68
1, 241245, Note_off_c, 0, 58, 59
1, 241291, Control_c, 0, 64, 81
1, 241294, Note_on_c, 0, 58, 91
1, 241296, Note_on_c, 0, 52, 84
1, 241306, Control_c, 0, 64, 55
1, 241310, Note_off_c, 0, 31, 64
1, 241311, Note_on_c, 0, 32, 77
1, 241321, Control_c, 0, 64, 0
1, 241321, Control_c, 0, 67, 60
1, 241336, Control_c, 0, 67, 0
1, 241365, Control_c, 0, 64, 37
1, 241380, Control_c, 0, 64, 56
1, 241391, Note_off_c, 0, 32, 62
1, 241395, Control_c, 0, 64, 64
1, 241403, Note_on_c, 0, 31, 63
1, 241409, Control_c, 0, 64, 68
1, 241424, Control_c, 0, 64, 71
1, 241439, Note_off_c, 0, 52, 60
1, 241439, Control_c, 0, 64, 75
1, 241454, Control_c, 0, 64, 79
1, 241469, Control_c, 0, 64, 86
1, 241471, Note_off_c, 0, 44, 60
1, 241483, Note_on_c, 0, 55, 78
1, 241484, Control_c, 0, 64, 96
1, 241487, Note_on_c, 0, 32, 80
1, 241494, Note_off_c, 0, 31, 60
1, 241495, Note_off_c, 0, 58, 58
1, 241499, Control_c, 0, 64, 115
1, 241514, Control_c, 0, 64, 127
1, 241516, Note_off_c, 0, 55, 64
1, 241544, Control_c, 0, 64, 95
1, 241558, Control_c, 0, 64, 63
1, 241564, Note_off_c, 0, 32, 61
1, 241569, Note_on_c, 0, 44, 83
1, 241572, Note_on_c, 0, 53, 86
1, 241573, Control_c, 0, 64, 0
1, 241585, Note_on_c, 0, 56, 74
1, 241600, Note_on_c, 0, 55, 71
1, 241602, Control_c, 0, 64, 34
1, 241617, Control_c, 0, 64, 58
1, 241632, Control_c, 0, 64, 78
1, 241647, Control_c, 0, 64, 127
1, 241653, Note_on_c, 0, 32, 70
1, 241688, Note_on_c, 0, 34, 46
1, 241726, Note_off_c, 0, 55, 62
1, 241730, Note_off_c, 0, 34, 50
1, 241731, Note_off_c, 0, 32, 59
1, 241734, Note_on_c, 0, 31, 65
1, 241768, Note_off_c, 0, 56, 62
1, 241773, Note_off_c, 0, 53, 64
1, 241809, Note_on_c, 0, 32, 75
1, 241816, Note_off_c, 0, 31, 62
1, 241827, Note_off_c, 0, 44, 60
1, 241832, Control_c, 0, 64, 86
1, 241847, Control_c, 0, 64, 45
1, 241849, Note_on_c, 0, 34, 32
1, 241858, Note_on_c, 0, 65, 92
1, 241862, Control_c, 0, 64, 0
1, 241863, Note_on_c, 0, 56, 92
1, 241872, Note_on_c, 0, 31, 69
1, 241878, Note_on_c, 0, 59, 65
1, 241890, Note_off_c, 0, 32, 60
1, 241891, Note_off_c, 0, 34, 55
1, 241921, Control_c, 0, 64, 51
1, 241935, Control_c, 0, 64, 63
1, 241950, Control_c, 0, 64, 70
1, 241965, Control_c, 0, 64, 75
1, 241977, Note_off_c, 0, 65, 57
1, 241981, Control_c, 0, 64, 80
1, 241988, Note_on_c, 0, 32, 81
1, 241990, Note_off_c, 0, 59, 61
1, 241991, Note_off_c, 0, 56, 57
1, 241996, Control_c, 0, 64, 87
1, 241997, Poly_aftertouch_c, 0, 38, 127
1, 242011, Control_c, 0, 64, 97
1, 242019, Note_off_c, 0, 31, 62
1, 242025, Control_c, 0, 64, 112
1, 242040, Control_c, 0, 64, 127
1, 242041, Note_on_c, 0, 44, 77
1, 242045, Poly_aftertouch_c, 0, 38, 0
1, 242062, Note_off_c, 0, 32, 60
1, 242065, Note_on_c, 0, 65, 92
1, 242130, Control_c, 0, 64, 100
1, 242138, Note_off_c, 0, 65, 52
1, 242145, Control_c, 0, 64, 77
1, 242146, Note_on_c, 0, 63, 89
1, 242155, Note_on_c, 0, 43, 79
1, 242160, Control_c, 0, 64, 63
1, 242165, Note_off_c, 0, 44, 32
1, 242174, Control_c, 0, 64, 46
1, 242189, Control_c, 0, 64, 0
1, 242226, Note_on_c, 0, 44, 75
1, 242226, Note_on_c, 0, 65, 87
1, 242229, Note_off_c, 0, 43, 63
1, 242246, Note_off_c, 0, 63, 63
1, 242283, Note_off_c, 0, 44, 63
1, 242310, Note_on_c, 0, 53, 94
1, 242319, Note_on_c, 0, 61, 72
1, 242321, Note_off_c, 0, 65, 60
1, 242344, Note_off_c, 0, 61, 67
1, 242381, Control_c, 0, 64, 31
1, 242389, Note_on_c, 0, 51, 93
1, 242396, Note_off_c, 0, 53, 66
1, 242396, Control_c, 0, 64, 36
1, 242411, Control_c, 0, 64, 43
1, 242419, Note_off_c, 0, 51, 62
1, 242426, Control_c, 0, 64, 52
1, 242441, Control_c, 0, 64, 58
1, 242456, Control_c, 0, 64, 60
1, 242477, Note_on_c, 0, 53, 82
1, 242552, Control_c, 0, 64, 59
1, 242554, Note_on_c, 0, 49, 74
1, 242566, Control_c, 0, 64, 51
1, 242572, Note_on_c, 0, 68, 85
1, 242581, Control_c, 0, 64, 0
1, 242608, Note_off_c, 0, 68, 56
1, 242628, Note_off_c, 0, 53, 50
1, 242647, Note_on_c, 0, 44, 80
1, 242651, Note_on_c, 0, 68, 77
1, 242652, Note_on_c, 0, 59, 85
1, 242652, Note_on_c, 0, 62, 85
1, 242685, Control_c, 0, 64, 39
1, 242687, Note_on_c, 0, 69, 52
1, 242689, Note_off_c, 0, 49, 60
1, 242700, Control_c, 0, 64, 63
1, 242715, Control_c, 0, 64, 78
1, 242725, Note_on_c, 0, 43, 78
1, 242730, Control_c, 0, 64, 104
1, 242741, Note_off_c, 0, 44, 63
1, 242745, Control_c, 0, 64, 127
1, 242748, Note_off_c, 0, 69, 35
1, 242760, Note_off_c, 0, 43, 64
1, 242768, Note_off_c, 0, 59, 55
1, 242777, Note_off_c, 0, 62, 61
1, 242778, Note_off_c, 0, 68, 59
1, 242831, Note_on_c, 0, 70, 87
1, 242835, Note_on_c, 0, 44, 82
1, 242893, Control_c, 0, 64, 99
1, 242906, Note_on_c, 0, 68, 84
1, 242908, Control_c, 0, 64, 65
1, 242912, Note_on_c, 0, 32, 87
1, 242923, Control_c, 0, 64, 0
1, 242949, Note_off_c, 0, 44, 58
1, 242959, Note_off_c, 0, 70, 56
1, 242967, Control_c, 0, 64, 43
1, 242981, Control_c, 0, 64, 62
1, 242987, Note_on_c, 0, 31, 73
1, 242989, Note_off_c, 0, 32, 62
1, 242992, Note_on_c, 0, 66, 80
1, 242996, Control_c, 0, 64, 76
1, 243004, Note_off_c, 0, 68, 63
1, 243011, Control_c, 0, 64, 98
1, 243022, Note_off_c, 0, 66, 65
1, 243026, Control_c, 0, 64, 127
1, 243028, Poly_aftertouch_c, 0, 34, 0
1, 243060, Note_on_c, 0, 32, 84
1, 243079, Note_off_c, 0, 31, 60
1, 243085, Note_on_c, 0, 65, 92
1, 243129, Control_c, 0, 64, 82
1, 243138, Note_off_c, 0, 32, 61
1, 243141, Note_on_c, 0, 44, 83
1, 243144, Control_c, 0, 64, 59
1, 243159, Control_c, 0, 64, 0
1, 243161, Note_on_c, 0, 63, 88
1, 243165, Note_on_c, 0, 59, 90
1, 243171, Note_off_c, 0, 65, 60
1, 243203, Note_off_c, 0, 44, 59
1, 243229, Note_on_c, 0, 43, 75
1, 243240, Note_off_c, 0, 59, 62
1, 243246, Note_on_c, 0, 65, 90
1, 243284, Note_off_c, 0, 63, 63
1, 243302, Note_off_c, 0, 43, 63
1, 243303, Note_on_c, 0, 44, 81
1, 243329, Note_on_c, 0, 53, 82
1, 243329, Note_off_c, 0, 65, 63
1, 243329, Note_on_c, 0, 61, 74
1, 243333, Note_off_c, 0, 44, 67
1, 243355, Note_off_c, 0, 61, 68
1, 243363, Note_on_c, 0, 55, 30
1, 243381, Note_off_c, 0, 53, 61
1, 243389, Control_c, 0, 64, 34
1, 243404, Control_c, 0, 64, 44
1, 243408, Note_on_c, 0, 51, 101
1, 243410, Note_off_c, 0, 55, 32
1, 243419, Control_c, 0, 64, 51
1, 243434, Control_c, 0, 64, 53
1, 243448, Control_c, 0, 64, 54
1, 243451, Note_off_c, 0, 51, 64
1, 243452, Note_on_c, 0, 58, 23
1, 243452, Note_off_c, 0, 58, 127
1, 243478, Control_c, 0, 64, 54
1, 243496, Note_on_c, 0, 53, 75
1, 243568, Control_c, 0, 64, 55
1, 243568, Note_on_c, 0, 49, 77
1, 243583, Control_c, 0, 64, 56
1, 243588, Note_on_c, 0, 65, 90
1, 243598, Control_c, 0, 64, 56
1, 243612, Control_c, 0, 64, 57
1, 243627, Note_off_c, 0, 65, 62
1, 243627, Control_c, 0, 64, 58
1, 243637, Note_off_c, 0, 53, 47
1, 243656, Note_on_c, 0, 44, 73
1, 243657, Control_c, 0, 64, 56
1, 243659, Note_on_c, 0, 59, 53
1, 243666, Note_on_c, 0, 65, 76
1, 243668, Note_on_c, 0, 56, 98
1, 243672, Control_c, 0, 64, 38
1, 243687, Control_c, 0, 64, 0
1, 243705, Note_off_c, 0, 49, 59
1, 243722, Note_on_c, 0, 43, 72
1, 243746, Control_c, 0, 64, 47
1, 243755, Note_off_c, 0, 44, 64
1, 243761, Control_c, 0, 64, 63
1, 243767, Note_off_c, 0, 43, 62
1, 243767, Note_off_c, 0, 65, 60
1, 243776, Control_c, 0, 64, 74
1, 243782, Note_off_c, 0, 56, 61
1, 243791, Control_c, 0, 64, 83
1, 243805, Control_c, 0, 64, 89
1, 243807, Note_off_c, 0, 59, 64
1, 243820, Control_c, 0, 64, 94
1, 243824, Note_on_c, 0, 44, 78
1, 243835, Control_c, 0, 64, 100
1, 243841, Note_on_c, 0, 63, 84
1, 243850, Control_c, 0, 64, 106
1, 243865, Control_c, 0, 64, 115
1, 243879, Control_c, 0, 64, 127
1, 243891, Note_off_c, 0, 63, 59
1, 243894, Control_c, 0, 64, 124
1, 243909, Control_c, 0, 64, 103
1, 243919, Note_on_c, 0, 32, 84
1, 243922, Note_on_c, 0, 63, 80
1, 243924, Control_c, 0, 64, 73
1, 243939, Control_c, 0, 64, 33
1, 243940, Note_on_c, 0, 55, 75
1, 243942, Note_on_c, 0, 57, 71
1, 243943, Note_off_c, 0, 44, 60
1, 243953, Control_c, 0, 64, 0
1, 243967, Note_on_c, 0, 34, 32
1, 243975, Note_on_c, 0, 62, 74
1, 244002, Note_on_c, 0, 31, 72
1, 244005, Control_c, 0, 64, 43
1, 244006, Note_off_c, 0, 32, 62
1, 244020, Control_c, 0, 64, 62
1, 244021, Note_off_c, 0, 34, 41
1, 244035, Control_c, 0, 64, 74
1, 244042, Note_off_c, 0, 55, 61
1, 244050, Control_c, 0, 64, 91
1, 244055, Note_off_c, 0, 57, 63
1, 244065, Control_c, 0, 64, 127
1, 244083, Note_on_c, 0, 32, 78
1, 244087, Note_off_c, 0, 31, 60
1, 244095, Note_off_c, 0, 62, 59
1, 244100, Note_off_c, 0, 63, 61
1, 244104, Note_on_c, 0, 60, 77
1, 244137, Note_on_c, 0, 34, 5
1, 244138, Note_on_c, 0, 44, 75
1, 244149, Note_off_c, 0, 60, 64
1, 244153, Note_off_c, 0, 32, 61
1, 244192, Note_on_c, 0, 58, 97
1, 244196, Note_on_c, 0, 61, 91
1, 244203, Note_off_c, 0, 34, 49
1, 244212, Control_c, 0, 64, 75
1, 244227, Control_c, 0, 64, 42
1, 244234, Note_on_c, 0, 43, 77
1, 244237, Note_off_c, 0, 44, 48
1, 244242, Control_c, 0, 64, 0
1, 244256, Note_off_c, 0, 58, 59
1, 244271, Control_c, 0, 64, 42
1, 244285, Note_on_c, 0, 60, 82
1, 244286, Control_c, 0, 64, 64
1, 244296, Note_on_c, 0, 44, 69
1, 244301, Control_c, 0, 64, 78
1, 244304, Note_off_c, 0, 43, 61
1, 244316, Control_c, 0, 64, 102
1, 244331, Control_c, 0, 64, 127
1, 244353, Note_on_c, 0, 58, 91
1, 244364, Note_off_c, 0, 61, 61
1, 244370, Note_off_c, 0, 60, 64
1, 244375, Note_off_c, 0, 44, 61
1, 244441, Note_off_c, 0, 58, 65
1, 244447, Note_on_c, 0, 49, 102
1, 244480, Control_c, 0, 64, 93
1, 244489, Note_off_c, 0, 49, 67
1, 244495, Control_c, 0, 64, 61
1, 244510, Control_c, 0, 64, 0
1, 244531, Note_on_c, 0, 48, 80
1, 244607, Note_on_c, 0, 46, 79
1, 244611, Note_on_c, 0, 65, 86
1, 244647, Note_off_c, 0, 48, 56
1, 244649, Note_off_c, 0, 65, 60
1, 244665, Note_on_c, 0, 44, 70
1, 244674, Note_on_c, 0, 65, 64
1, 244682, Note_on_c, 0, 56, 101
1, 244688, Note_on_c, 0, 59, 74
1, 244738, Note_off_c, 0, 46, 63
1, 244754, Control_c, 0, 64, 53
1, 244754, Note_on_c, 0, 43, 80
1, 244769, Control_c, 0, 64, 66
1, 244784, Control_c, 0, 64, 70
1, 244792, Note_off_c, 0, 44, 61
1, 244799, Control_c, 0, 64, 76
1, 244802, Note_off_c, 0, 65, 59
1, 244805, Note_off_c, 0, 43, 62
1, 244811, Note_off_c, 0, 56, 58
1, 244814, Control_c, 0, 64, 82
1, 244828, Control_c, 0, 64, 91
1, 244835, Note_off_c, 0, 59, 61
1, 244843, Control_c, 0, 64, 105
1, 244855, Note_on_c, 0, 44, 79
1, 244858, Control_c, 0, 64, 127
1, 244881, Note_on_c, 0, 63, 88
1, 244929, Note_off_c, 0, 63, 61
1, 244966, Note_on_c, 0, 63, 88
1, 244968, Note_on_c, 0, 57, 88
1, 244973, Note_on_c, 0, 32, 83
1, 244976, Control_c, 0, 64, 82
1, 244991, Control_c, 0, 64, 44
1, 245006, Control_c, 0, 64, 0
1, 245007, Note_on_c, 0, 34, 57
1, 245011, Note_off_c, 0, 44, 53
1, 245040, Note_off_c, 0, 34, 60
1, 245063, Note_off_c, 0, 32, 60
1, 245065, Control_c, 0, 64, 58
1, 245073, Note_on_c, 0, 31, 74
1, 245080, Control_c, 0, 64, 69
1, 245095, Control_c, 0, 64, 78
1, 245103, Note_off_c, 0, 57, 59
1, 245109, Control_c, 0, 64, 90
1, 245124, Control_c, 0, 64, 104
1, 245129, Poly_aftertouch_c, 0, 37, 127
1, 245137, Note_on_c, 0, 32, 85
1, 245139, Control_c, 0, 64, 127
1, 245155, Note_on_c, 0, 60, 83
1, 245156, Note_off_c, 0, 31, 60
1, 245159, Note_off_c, 0, 63, 63
1, 245176, Poly_aftertouch_c, 0, 37, 0
1, 245201, Note_off_c, 0, 60, 66
1, 245214, Control_c, 0, 64, 114
1, 245224, Note_off_c, 0, 32, 61
1, 245224, Poly_aftertouch_c, 0, 34, 127
1, 245228, Note_on_c, 0, 44, 82
1, 245229, Control_c, 0, 64, 66
1, 245240, Note_on_c, 0, 58, 95
1, 245240, Note_on_c, 0, 61, 87
1, 245244, Control_c, 0, 64, 0
1, 245260, Poly_aftertouch_c, 0, 34, 0
1, 245288, Control_c, 0, 64, 47
1, 245295, Note_off_c, 0, 44, 57
1, 245303, Control_c, 0, 64, 65
1, 245317, Note_off_c, 0, 58, 62
1, 245318, Control_c, 0, 64, 85
1, 245322, Note_on_c, 0, 60, 85
1, 245329, Note_on_c, 0, 43, 77
1, 245332, Control_c, 0, 64, 127
1, 245370, Note_off_c, 0, 61, 57
1, 245390, Note_on_c, 0, 58, 90
1, 245410, Note_off_c, 0, 43, 61
1, 245413, Note_off_c, 0, 60, 64
1, 245430, Note_off_c, 0, 58, 66
1, 245436, Note_on_c, 0, 44, 80
1, 245532, Control_c, 0, 64, 94
1, 245547, Control_c, 0, 64, 61
1, 245550, Note_on_c, 0, 32, 91
1, 245562, Control_c, 0, 64, 0
1, 245568, Note_off_c, 0, 44, 58
1, 245579, Note_on_c, 0, 74, 95
1, 245581, Note_on_c, 0, 62, 91
1, 245583, Note_on_c, 0, 71, 88
1, 245583, Note_on_c, 0, 66, 85
1, 245621, Control_c, 0, 64, 46
1, 245636, Control_c, 0, 64, 63
1, 245651, Control_c, 0, 64, 74
1, 245656, Note_on_c, 0, 39, 29
1, 245666, Control_c, 0, 64, 92
1, 245681, Control_c, 0, 64, 127
1, 245687, Note_on_c, 0, 44, 84
1, 245699, Note_off_c, 0, 39, 57
1, 245699, Note_off_c, 0, 62, 60
1, 245704, Note_off_c, 0, 71, 60
1, 245711, Note_off_c, 0, 32, 60
1, 245717, Note_off_c, 0, 66, 62
1, 245720, Note_off_c, 0, 74, 61
1, 245736, Note_off_c, 0, 44, 64
1, 245814, Control_c, 0, 64, 85
1, 245818, Note_on_c, 0, 74, 95
1, 245821, Note_on_c, 0, 62, 82
1, 245827, Note_on_c, 0, 44, 70
1, 245829, Control_c, 0, 64, 51
1, 245843, Control_c, 0, 64, 0
1, 245851, Note_off_c, 0, 62, 65
1, 245868, Note_off_c, 0, 74, 63
1, 245887, Control_c, 0, 64, 43
1, 245892, Note_off_c, 0, 44, 60
1, 245902, Control_c, 0, 64, 61
1, 245907, Note_on_c, 0, 50, 51
1, 245911, Note_on_c, 0, 59, 65
1, 245917, Control_c, 0, 64, 75
1, 245926, Note_on_c, 0, 54, 67
1, 245926, Note_on_c, 0, 61, 89
1, 245931, Control_c, 0, 64, 91
1, 245934, Note_on_c, 0, 66, 81
1, 245935, Note_on_c, 0, 73, 79
1, 245946, Control_c, 0, 64, 114
1, 245947, Note_off_c, 0, 59, 64
1, 245961, Control_c, 0, 64, 127
1, 245962, Note_on_c, 0, 57, 11
1, 245987, Note_off_c, 0, 61, 64
1, 245991, Note_off_c, 0, 66, 63
1, 245991, Note_off_c, 0, 73, 57
1, 245996, Note_on_c, 0, 44, 77
1, 246000, Note_off_c, 0, 54, 62
1, 246003, Note_off_c, 0, 57, 39
1, 246006, Note_off_c, 0, 50, 62
1, 246021, Note_on_c, 0, 62, 89
1, 246023, Note_on_c, 0, 74, 92
1, 246054, Note_off_c, 0, 44, 64
1, 246063, Note_off_c, 0, 74, 64
1, 246064, Note_off_c, 0, 62, 64
1, 246104, Note_on_c, 0, 44, 74
1, 246110, Note_on_c, 0, 71, 97
1, 246112, Note_on_c, 0, 59, 96
1, 246125, Control_c, 0, 64, 107
1, 246140, Control_c, 0, 64, 80
1, 246154, Note_off_c, 0, 59, 65
1, 246155, Control_c, 0, 64, 62
1, 246170, Control_c, 0, 64, 33
1, 246179, Note_off_c, 0, 71, 64
1, 246182, Note_off_c, 0, 44, 63
1, 246185, Control_c, 0, 64, 0
1, 246187, Note_on_c, 0, 32, 109
1, 246222, Note_on_c, 0, 31, 53
1, 246251, Control_c, 0, 64, 38
1, 246266, Control_c, 0, 64, 56
1, 246268, Note_off_c, 0, 31, 63
1, 246280, Control_c, 0, 64, 68
1, 246283, Note_on_c, 0, 44, 94
1, 246295, Control_c, 0, 64, 78
1, 246298, Note_off_c, 0, 32, 61
1, 246310, Control_c, 0, 64, 91
1, 246325, Control_c, 0, 64, 101
1, 246331, Note_off_c, 0, 44, 64
1, 246340, Control_c, 0, 64, 118
1, 246355, Control_c, 0, 64, 127
1, 246389, Note_on_c, 0, 66, 100
1, 246389, Poly_aftertouch_c, 0, 42, 0
1, 246391, Note_on_c, 0, 78, 100
1, 246399, Note_on_c, 0, 50, 81
1, 246411, Note_off_c, 0, 78, 63
1, 246425, Note_off_c, 0, 66, 66
1, 246459, Control_c, 0, 64, 76
1, 246460, Note_on_c, 0, 66, 95
1, 246462, Note_on_c, 0, 78, 99
1, 246467, Note_on_c, 0, 71, 90
1, 246469, Note_on_c, 0, 54, 74
1, 246469, Note_on_c, 0, 62, 84
1, 246470, Note_on_c, 0, 59, 73
1, 246473, Control_c, 0, 64, 52
1, 246486, Note_off_c, 0, 50, 63
1, 246488, Control_c, 0, 64, 0
1, 246518, Control_c, 0, 64, 40
1, 246532, Control_c, 0, 64, 62
1, 246534, Note_off_c, 0, 62, 65
1, 246547, Control_c, 0, 64, 73
1, 246551, Note_off_c, 0, 66, 63
1, 246562, Control_c, 0, 64, 89
1, 246567, Note_on_c, 0, 50, 82
1, 246576, Note_off_c, 0, 59, 64
1, 246577, Control_c, 0, 64, 113
1, 246585, Note_off_c, 0, 71, 60
1, 246587, Note_off_c, 0, 78, 55
1, 246592, Control_c, 0, 64, 127
1, 246608, Note_off_c, 0, 54, 60
1, 246614, Note_off_c, 0, 50, 65
1, 246699, Note_on_c, 0, 44, 88
1, 246707, Note_on_c, 0, 80, 99
1, 246712, Note_on_c, 0, 68, 95
1, 246739, Control_c, 0, 64, 81
1, 246745, Note_off_c, 0, 80, 66
1, 246749, Note_off_c, 0, 68, 67
1, 246754, Control_c, 0, 64, 56
1, 246770, Control_c, 0, 64, 0
1, 246785, Control_c, 0, 64, 31
1, 246800, Control_c, 0, 64, 50
1, 246802, Note_off_c, 0, 44, 63
1, 246811, Note_on_c, 0, 32, 91
1, 246814, Control_c, 0, 64, 66
1, 246818, Note_on_c, 0, 78, 89
1, 246819, Note_on_c, 0, 66, 92
1, 246829, Note_on_c, 0, 71, 71
1, 246829, Control_c, 0, 64, 81
1, 246844, Control_c, 0, 64, 112
1, 246850, Note_on_c, 0, 34, 34
1, 246859, Note_off_c, 0, 71, 63
1, 246859, Control_c, 0, 64, 127
1, 246864, Note_off_c, 0, 78, 61
1, 246867, Note_off_c, 0, 66, 64
1, 246894, Note_off_c, 0, 34, 46
1, 246897, Note_on_c, 0, 44, 82
1, 246903, Note_off_c, 0, 32, 58
1, 246924, Note_on_c, 0, 76, 83
1, 246929, Note_on_c, 0, 64, 81
1, 246935, Note_off_c, 0, 44, 60
1, 246957, Note_off_c, 0, 64, 65
1, 246970, Note_off_c, 0, 76, 57
1, 247011, Note_on_c, 0, 74, 62
1, 247014, Note_on_c, 0, 44, 78
1, 247017, Note_on_c, 0, 76, 63
1, 247019, Note_on_c, 0, 62, 83
1, 247040, Note_off_c, 0, 62, 70
1, 247049, Note_off_c, 0, 76, 58
1, 247059, Control_c, 0, 64, 105
1, 247063, Note_off_c, 0, 74, 64
1, 247074, Control_c, 0, 64, 86
1, 247079, Note_on_c, 0, 50, 62
1, 247084, Note_off_c, 0, 44, 61
1, 247089, Control_c, 0, 64, 68
1, 247096, Note_on_c, 0, 61, 87
1, 247097, Note_on_c, 0, 66, 84
1, 247098, Note_on_c, 0, 73, 85
1, 247099, Note_on_c, 0, 59, 68
1, 247100, Note_on_c, 0, 54, 77
1, 247103, Control_c, 0, 64, 50
1, 247113, Note_on_c, 0, 57, 57
1, 247118, Control_c, 0, 64, 0
1, 247132, Note_off_c, 0, 59, 66
1, 247141, Note_off_c, 0, 66, 61
1, 247145, Note_off_c, 0, 61, 64
1, 247148, Note_off_c, 0, 57, 65
1, 247149, Note_off_c, 0, 73, 62
1, 247171, Note_off_c, 0, 54, 63
1, 247177, Note_on_c, 0, 44, 80
1, 247178, Note_on_c, 0, 62, 91
1, 247180, Note_on_c, 0, 74, 93
1, 247180, Note_off_c, 0, 50, 64
1, 247213, Note_off_c, 0, 62, 66
1, 247216, Note_off_c, 0, 44, 64
1, 247219, Note_off_c, 0, 74, 66
1, 247263, Note_on_c, 0, 59, 97
1, 247263, Note_on_c, 0, 71, 93
1, 247264, Note_on_c, 0, 44, 78
1, 247282, Control_c, 0, 64, 41
1, 247296, Control_c, 0, 64, 56
1, 247311, Control_c, 0, 64, 63
1, 247321, Note_off_c, 0, 59, 62
1, 247326, Control_c, 0, 64, 67
1, 247332, Note_off_c, 0, 44, 63
1, 247340, Note_off_c, 0, 71, 61
1, 247341, Control_c, 0, 64, 70
1, 247341, Note_on_c, 0, 32, 98
1, 247355, Control_c, 0, 64, 74
1, 247370, Control_c, 0, 64, 78
1, 247382, Note_on_c, 0, 31, 44
1, 247385, Control_c, 0, 64, 82
1, 247400, Control_c, 0, 64, 87
1, 247415, Control_c, 0, 64, 91
1, 247419, Note_on_c, 0, 44, 95
1, 247420, Note_off_c, 0, 31, 50
1, 247429, Control_c, 0, 64, 94
1, 247430, Note_off_c, 0, 32, 59
1, 247444, Control_c, 0, 64, 96
1, 247465, Poly_aftertouch_c, 0, 66, 127
1, 247466, Note_off_c, 0, 44, 64
1, 247474, Control_c, 0, 64, 99
1, 247505, Poly_aftertouch_c, 0, 66, 0
1, 247529, Note_on_c, 0, 44, 79
1, 247529, Note_on_c, 0, 62, 93
1, 247532, Note_on_c, 0, 66, 78
1, 247535, Note_on_c, 0, 71, 88
1, 247537, Note_on_c, 0, 74, 83
1, 247547, Control_c, 0, 64, 82
1, 247557, Note_off_c, 0, 71, 66
1, 247558, Note_off_c, 0, 66, 68
1, 247558, Note_off_c, 0, 74, 65
1, 247562, Control_c, 0, 64, 61
1, 247564, Note_off_c, 0, 62, 61
1, 247578, Note_on_c, 0, 51, 39
1, 247578, Control_c, 0, 64, 0
1, 247588, Note_off_c, 0, 44, 62
1, 247589, Note_on_c, 0, 50, 68
1, 247598, Note_on_c, 0, 59, 77
1, 247599, Note_on_c, 0, 54, 79
1, 247601, Note_on_c, 0, 74, 95
1, 247602, Note_on_c, 0, 62, 91
1, 247613, Note_on_c, 0, 66, 91
1, 247616, Note_on_c, 0, 57, 63
1, 247616, Note_on_c, 0, 71, 81
1, 247626, Note_off_c, 0, 51, 49
1, 247637, Control_c, 0, 64, 39
1, 247643, Note_off_c, 0, 57, 55
1, 247651, Note_off_c, 0, 59, 65
1, 247652, Control_c, 0, 64, 59
1, 247667, Control_c, 0, 64, 69
1, 247674, Note_off_c, 0, 74, 62
1, 247681, Note_off_c, 0, 54, 62
1, 247681, Note_on_c, 0, 44, 84
1, 247682, Note_off_c, 0, 71, 60
1, 247682, Control_c, 0, 64, 78
1, 247690, Note_off_c, 0, 62, 61
1, 247696, Note_off_c, 0, 50, 55
1, 247697, Control_c, 0, 64, 88
1, 247712, Control_c, 0, 64, 100
1, 247717, Note_off_c, 0, 66, 64
1, 247726, Control_c, 0, 64, 127
1, 247727, Note_off_c, 0, 44, 64
1, 247786, Note_on_c, 0, 44, 81
1, 247799, Note_on_c, 0, 61, 92
1, 247804, Note_on_c, 0, 73, 78
1, 247821, Note_off_c, 0, 61, 70
1, 247824, Note_off_c, 0, 73, 71
1, 247836, Note_off_c, 0, 44, 63
1, 247838, Control_c, 0, 64, 86
1, 247852, Control_c, 0, 64, 57
1, 247867, Control_c, 0, 64, 0
1, 247877, Note_on_c, 0, 44, 91
1, 247877, Note_on_c, 0, 60, 97
1, 247878, Note_on_c, 0, 72, 80
1, 247878, Note_on_c, 0, 32, 97
1, 247881, Note_on_c, 0, 68, 86
1, 247886, Note_on_c, 0, 63, 86
1, 247892, Note_on_c, 0, 66, 77
1, 247906, Note_on_c, 0, 71, 47
1, 247907, Note_on_c, 0, 34, 56
1, 247911, Control_c, 0, 64, 48
1, 247926, Control_c, 0, 64, 63
1, 247932, Note_off_c, 0, 72, 59
1, 247932, Note_off_c, 0, 71, 57
1, 247936, Note_on_c, 0, 31, 13
1, 247941, Control_c, 0, 64, 71
1, 247945, Note_off_c, 0, 34, 56
1, 247952, Note_off_c, 0, 32, 59
1, 247956, Control_c, 0, 64, 80
1, 247962, Note_off_c, 0, 44, 62
1, 247970, Control_c, 0, 64, 86
1, 247985, Note_off_c, 0, 60, 56
1, 247985, Note_off_c, 0, 68, 59
1, 247985, Control_c, 0, 64, 89
1, 247988, Note_off_c, 0, 31, 49
1, 247988, Note_off_c, 0, 66, 57
1, 247993, Note_off_c, 0, 63, 59
1, 248000, Control_c, 0, 64, 93
1, 248015, Control_c, 0, 64, 96
1, 248030, Control_c, 0, 64, 99
1, 248065, Note_on_c, 0, 48, 90
1, 248066, Note_on_c, 0, 36, 83
1, 248089, Control_c, 0, 64, 86
1, 248096, Note_off_c, 0, 48, 65
1, 248100, Note_off_c, 0, 36, 63
1, 248104, Control_c, 0, 64, 69
1, 248119, Control_c, 0, 64, 48
1, 248134, Control_c, 0, 64, 0
1, 248149, Note_on_c, 0, 56, 81
1, 248155, Note_on_c, 0, 54, 73
1, 248158, Note_on_c, 0, 51, 77
1, 248160, Note_on_c, 0, 46, 91
1, 248164, Note_on_c, 0, 34, 87
1, 248186, Note_off_c, 0, 51, 68
1, 248193, Control_c, 0, 64, 39
1, 248195, Note_off_c, 0, 34, 66
1, 248197, Note_off_c, 0, 54, 59
1, 248203, Note_off_c, 0, 46, 59
1, 248207, Note_off_c, 0, 56, 61
1, 248208, Control_c, 0, 64, 48
1, 248223, Control_c, 0, 64, 55
1, 248238, Control_c, 0, 64, 57
1, 248248, Note_on_c, 0, 48, 101
1, 248252, Control_c, 0, 64, 58
1, 248255, Note_on_c, 0, 36, 81
1, 248267, Control_c, 0, 64, 57
1, 248275, Note_off_c, 0, 48, 68
1, 248282, Control_c, 0, 64, 57
1, 248283, Note_off_c, 0, 36, 66
1, 248296, Control_c, 0, 64, 52
1, 248311, Control_c, 0, 64, 36
1, 248326, Control_c, 0, 64, 0
1, 248341, Note_on_c, 0, 44, 96
1, 248346, Note_on_c, 0, 32, 89
1, 248363, Note_on_c, 0, 42, 63
1, 248363, Note_off_c, 0, 42, 127
1, 248375, Note_on_c, 0, 30, 37
1, 248375, Note_off_c, 0, 30, 127
1, 248385, Note_off_c, 0, 32, 62
1, 248386, Note_on_c, 0, 31, 27
1, 248392, Poly_aftertouch_c, 0, 42, 0
1, 248399, Note_off_c, 0, 44, 63
1, 248413, Note_on_c, 0, 56, 102
1, 248415, Note_on_c, 0, 66, 79
1, 248415, Note_on_c, 0, 60, 77
1, 248415, Poly_aftertouch_c, 0, 30, 0
1, 248416, Note_on_c, 0, 68, 97
1, 248431, Note_off_c, 0, 31, 45
1, 248444, Note_on_c, 0, 58, 57
1, 248461, Control_c, 0, 64, 63
1, 248471, Note_off_c, 0, 58, 37
1, 248475, Control_c, 0, 64, 82
1, 248498, Control_c, 0, 64, 106
1, 248513, Control_c, 0, 64, 127
1, 248524, Note_off_c, 0, 56, 64
1, 248558, Note_off_c, 0, 60, 61
1, 248601, Note_off_c, 0, 68, 59
1, 248603, Note_off_c, 0, 66, 63
1, 248620, Note_on_c, 0, 51, 88
1, 248623, Note_on_c, 0, 39, 90
1, 248650, Note_off_c, 0, 51, 62
1, 248652, Note_off_c, 0, 39, 68
1, 248675, Control_c, 0, 64, 112
1, 248690, Control_c, 0, 64, 71
1, 248699, Note_on_c, 0, 51, 95
1, 248702, Note_on_c, 0, 39, 102
1, 248705, Control_c, 0, 64, 39
1, 248710, Note_on_c, 0, 68, 98
1, 248715, Note_on_c, 0, 80, 92
1, 248716, Note_on_c, 0, 78, 86
1, 248718, Note_on_c, 0, 72, 75
1, 248719, Control_c, 0, 64, 0
1, 248749, Control_c, 0, 64, 37
1, 248764, Control_c, 0, 64, 59
1, 248779, Control_c, 0, 64, 75
1, 248781, Note_off_c, 0, 68, 60
1, 248786, Note_off_c, 0, 72, 60
1, 248793, Control_c, 0, 64, 104
1, 248805, Note_off_c, 0, 39, 62
1, 248808, Control_c, 0, 64, 127
1, 248811, Note_off_c, 0, 51, 59
1, 248814, Note_off_c, 0, 78, 59
1, 248820, Note_off_c, 0, 80, 64
1, 248887, Note_on_c, 0, 41, 85
1, 248889, Note_on_c, 0, 53, 90
1, 248927, Note_off_c, 0, 53, 64
1, 248933, Note_off_c, 0, 41, 65
1, 248972, Control_c, 0, 64, 69
1, 248987, Control_c, 0, 64, 0
1, 248989, Note_on_c, 0, 51, 96
1, 248992, Note_on_c, 0, 80, 94
1, 248993, Note_on_c, 0, 39, 93
1, 248993, Note_on_c, 0, 84, 84
1, 248993, Note_on_c, 0, 92, 100
1, 248997, Note_on_c, 0, 90, 80
1, 249022, Note_off_c, 0, 39, 68
1, 249026, Note_off_c, 0, 80, 66
1, 249029, Note_off_c, 0, 84, 65
1, 249032, Control_c, 0, 64, 49
1, 249034, Note_off_c, 0, 51, 63
1, 249042, Note_on_c, 0, 38, 26
1, 249047, Control_c, 0, 64, 69
1, 249058, Note_off_c, 0, 90, 67
1, 249061, Control_c, 0, 64, 101
1, 249068, Note_off_c, 0, 92, 67
1, 249076, Control_c, 0, 64, 127
1, 249088, Note_on_c, 0, 49, 96
1, 249089, Note_on_c, 0, 37, 95
1, 249090, Note_off_c, 0, 38, 48
1, 249118, Note_off_c, 0, 49, 64
1, 249123, Note_off_c, 0, 37, 63
1, 249167, Note_on_c, 0, 36, 63
1, 249168, Note_on_c, 0, 48, 101
1, 249189, Note_on_c, 0, 38, 59
1, 249191, Poly_aftertouch_c, 0, 39, 0
1, 249204, Note_off_c, 0, 48, 66
1, 249206, Note_off_c, 0, 36, 65
1, 249219, Note_off_c, 0, 38, 54
1, 249225, Control_c, 0, 64, 64
1, 249247, Control_c, 0, 64, 0
1, 249264, Note_on_c, 0, 46, 98
1, 249268, Note_on_c, 0, 34, 97
1, 249268, Note_on_c, 0, 102, 77
1, 249270, Note_on_c, 0, 104, 113
1, 249271, Note_on_c, 0, 92, 97
1, 249275, Note_on_c, 0, 96, 83
1, 249279, Note_on_c, 0, 97, 56
1, 249292, Control_c, 0, 64, 49
1, 249293, Note_off_c, 0, 34, 70
1, 249294, Note_off_c, 0, 46, 65
1, 249296, Note_off_c, 0, 104, 62
1, 249298, Note_off_c, 0, 102, 67
1, 249299, Note_off_c, 0, 96, 68
1, 249303, Note_off_c, 0, 97, 63
1, 249306, Control_c, 0, 64, 71
1, 249312, Note_on_c, 0, 91, 72
1, 249320, Note_off_c, 0, 92, 67
1, 249321, Control_c, 0, 64, 127
1, 249327, Note_off_c, 0, 91, 68
1, 249348, Note_on_c, 0, 48, 105
1, 249363, Note_on_c, 0, 38, 73
1, 249364, Note_on_c, 0, 36, 72
1, 249374, Note_off_c, 0, 48, 67
1, 249388, Note_off_c, 0, 36, 64
1, 249392, Note_off_c, 0, 38, 64
1, 249440, Control_c, 0, 64, 70
1, 249442, Note_on_c, 0, 44, 104
1, 249449, Note_on_c, 0, 32, 90
1, 249455, Control_c, 0, 64, 0
1, 249493, Note_on_c, 0, 31, 34
1, 249514, Control_c, 0, 64, 52
1, 249529, Control_c, 0, 64, 67
1, 249532, Note_on_c, 0, 58, 104
1, 249538, Note_on_c, 0, 70, 86
1, 249543, Control_c, 0, 64, 71
1, 249558, Control_c, 0, 64, 72
1, 249562, Note_on_c, 0, 68, 51
1, 249562, Note_off_c, 0, 58, 69
1, 249567, Note_off_c, 0, 31, 35
1, 249569, Note_off_c, 0, 70, 66
1, 249587, Control_c, 0, 64, 73
1, 249588, Note_off_c, 0, 68, 57
1, 249602, Control_c, 0, 64, 74
1, 249616, Control_c, 0, 64, 76
1, 249622, Note_on_c, 0, 72, 82
1, 249628, Note_on_c, 0, 60, 84
1, 249631, Control_c, 0, 64, 78
1, 249637, Note_off_c, 0, 32, 60
1, 249641, Note_off_c, 0, 72, 66
1, 249646, Control_c, 0, 64, 81
1, 249648, Note_off_c, 0, 60, 71
1, 249661, Control_c, 0, 64, 84
1, 249667, Note_off_c, 0, 44, 63
1, 249675, Poly_aftertouch_c, 0, 41, 0
1, 249676, Control_c, 0, 64, 88
1, 249690, Control_c, 0, 64, 94
1, 249705, Note_on_c, 0, 68, 89
1, 249705, Control_c, 0, 64, 105
1, 249708, Note_on_c, 0, 56, 99
1, 249720, Control_c, 0, 64, 127
1, 249755, Note_off_c, 0, 56, 64
1, 249780, Control_c, 0, 64, 82
1, 249795, Control_c, 0, 64, 41
1, 249798, Note_off_c, 0, 68, 61
1, 249807, Note_on_c, 0, 57, 101
1, 249809, Control_c, 0, 64, 0
1, 249810, Note_on_c, 0, 45, 96
1, 249813, Note_on_c, 0, 54, 89
1, 249854, Control_c, 0, 64, 44
1, 249868, Control_c, 0, 64, 63
1, 249883, Control_c, 0, 64, 73
1, 249893, Note_off_c, 0, 45, 63
1, 249898, Control_c, 0, 64, 82
1, 249899, Note_off_c, 0, 57, 65
1, 249913, Control_c, 0, 64, 87
1, 249916, Note_off_c, 0, 54, 60
1, 249928, Control_c, 0, 64, 91
1, 249942, Control_c, 0, 64, 94
1, 249957, Control_c, 0, 64, 98
1, 249962, Note_on_c, 0, 59, 101
1, 249963, Note_on_c, 0, 47, 93
1, 249973, Control_c, 0, 64, 106
1, 249995, Control_c, 0, 64, 127
1, 250017, Note_off_c, 0, 59, 67
1, 250019, Note_off_c, 0, 47, 65
1, 250111, Note_on_c, 0, 56, 100
1, 250115, Note_on_c, 0, 44, 95
1, 250150, Note_off_c, 0, 56, 65
1, 250177, Note_off_c, 0, 44, 61
1, 250291, Control_c, 0, 64, 82
1, 250306, Control_c, 0, 64, 56
1, 250321, Control_c, 0, 64, 0
1, 250328, Note_on_c, 0, 74, 105
1, 250328, Note_on_c, 0, 78, 90
1, 250332, Note_on_c, 0, 32, 106
1, 250332, Note_on_c, 0, 83, 94
1, 250332, Note_on_c, 0, 86, 91
1, 250365, Control_c, 0, 64, 38
1, 250380, Control_c, 0, 64, 58
1, 250395, Control_c, 0, 64, 71
1, 250410, Control_c, 0, 64, 93
1, 250425, Control_c, 0, 64, 127
1, 250432, Poly_aftertouch_c, 0, 34, 127
1, 250451, Note_on_c, 0, 44, 92
1, 250456, Poly_aftertouch_c, 0, 35, 0
1, 250471, Note_off_c, 0, 74, 61
1, 250475, Note_off_c, 0, 32, 62
1, 250478, Note_off_c, 0, 83, 61
1, 250481, Note_off_c, 0, 86, 61
1, 250490, Poly_aftertouch_c, 0, 34, 0
1, 250495, Note_off_c, 0, 78, 58
1, 250496, Note_off_c, 0, 44, 64
1, 250564, Note_on_c, 0, 86, 94
1, 250567, Note_on_c, 0, 74, 96
1, 250591, Note_off_c, 0, 74, 64
1, 250598, Note_on_c, 0, 50, 58
1, 250601, Note_off_c, 0, 86, 68
1, 250620, Note_off_c, 0, 50, 62
1, 250621, Note_on_c, 0, 59, 56
1, 250626, Note_on_c, 0, 54, 71
1, 250647, Note_on_c, 0, 73, 103
1, 250650, Note_on_c, 0, 66, 91
1, 250651, Note_on_c, 0, 85, 92
1, 250653, Note_on_c, 0, 78, 91
1, 250662, Control_c, 0, 64, 109
1, 250677, Control_c, 0, 64, 64
1, 250689, Note_off_c, 0, 73, 67
1, 250691, Control_c, 0, 64, 0
1, 250696, Note_off_c, 0, 66, 67
1, 250696, Note_off_c, 0, 85, 63
1, 250698, Note_off_c, 0, 78, 61
1, 250704, Note_on_c, 0, 67, 20
1, 250706, Note_on_c, 0, 65, 6
1, 250712, Note_off_c, 0, 59, 63
1, 250730, Note_on_c, 0, 86, 93
1, 250733, Note_on_c, 0, 74, 97
1, 250733, Note_off_c, 0, 54, 60
1, 250743, Control_c, 0, 64, 43
1, 250755, Note_off_c, 0, 67, 30
1, 250758, Control_c, 0, 64, 64
1, 250764, Note_off_c, 0, 65, 41
1, 250774, Note_off_c, 0, 74, 64
1, 250774, Control_c, 0, 64, 80
1, 250781, Note_off_c, 0, 86, 65
1, 250788, Control_c, 0, 64, 127
1, 250817, Note_on_c, 0, 83, 97
1, 250818, Note_on_c, 0, 62, 102
1, 250820, Note_on_c, 0, 50, 90
1, 250823, Note_on_c, 0, 71, 98
1, 250833, Control_c, 0, 64, 80
1, 250848, Control_c, 0, 64, 45
1, 250859, Note_off_c, 0, 62, 67
1, 250859, Note_off_c, 0, 50, 64
1, 250863, Control_c, 0, 64, 0
1, 250874, Note_off_c, 0, 71, 60
1, 250892, Control_c, 0, 64, 40
1, 250904, Note_off_c, 0, 83, 58
1, 250907, Control_c, 0, 64, 65
1, 250912, Note_on_c, 0, 61, 101
1, 250921, Note_on_c, 0, 49, 93
1, 250921, Control_c, 0, 64, 101
1, 250936, Control_c, 0, 64, 127
1, 250968, Note_off_c, 0, 61, 65
1, 250970, Note_off_c, 0, 49, 63
1, 251008, Poly_aftertouch_c, 0, 48, 0
1, 251024, Note_on_c, 0, 62, 102
1, 251026, Note_on_c, 0, 50, 98
1, 251044, Poly_aftertouch_c, 0, 48, 0
1, 251071, Note_off_c, 0, 62, 67
1, 251080, Note_off_c, 0, 50, 65
1, 251189, Note_on_c, 0, 78, 102
1, 251190, Note_on_c, 0, 90, 107
1, 251196, Note_on_c, 0, 59, 103
1, 251201, Note_on_c, 0, 47, 94
1, 251214, Note_on_c, 0, 80, 69
1, 251217, Note_on_c, 0, 91, 66
1, 251229, Note_off_c, 0, 80, 67
1, 251236, Note_off_c, 0, 91, 62
1, 251303, Note_off_c, 0, 59, 60
1, 251304, Note_off_c, 0, 78, 53
1, 251309, Note_off_c, 0, 90, 57
1, 251312, Note_off_c, 0, 47, 59
1, 251392, Note_on_c, 0, 78, 105
1, 251394, Note_on_c, 0, 50, 84
1, 251394, Note_on_c, 0, 59, 104
1, 251395, Note_on_c, 0, 90, 116
1, 251395, Control_c, 0, 64, 75
1, 251401, Note_on_c, 0, 54, 87
1, 251407, Note_on_c, 0, 83, 77
1, 251408, Note_on_c, 0, 84, 71
1, 251410, Control_c, 0, 64, 44
1, 251425, Control_c, 0, 64, 0
1, 251430, Note_on_c, 0, 87, 35
1, 251430, Note_off_c, 0, 87, 127
1, 251431, Note_off_c, 0, 84, 68
1, 251440, Control_c, 0, 64, 47
1, 251455, Control_c, 0, 64, 68
1, 251470, Control_c, 0, 64, 102
1, 251492, Control_c, 0, 64, 127
1, 251519, Note_off_c, 0, 59, 56
1, 251537, Note_off_c, 0, 78, 55
1, 251539, Note_on_c, 0, 46, 68
1, 251544, Note_off_c, 0, 54, 63
1, 251553, Note_off_c, 0, 50, 64
1, 251559, Note_on_c, 0, 45, 67
1, 251564, Note_off_c, 0, 46, 60
1, 251569, Note_off_c, 0, 83, 63
1, 251571, Note_off_c, 0, 90, 60
1, 251583, Note_off_c, 0, 45, 61
1, 251637, Note_on_c, 0, 44, 92
1, 251655, Note_on_c, 0, 80, 102
1, 251655, Note_on_c, 0, 92, 108
1, 251694, Note_off_c, 0, 80, 67
1, 251694, Note_off_c, 0, 92, 67
1, 251711, Note_off_c, 0, 44, 61
1, 251744, Control_c, 0, 64, 89
1, 251753, Note_on_c, 0, 32, 105
1, 251759, Control_c, 0, 64, 61
1, 251771, Note_on_c, 0, 78, 103
1, 251771, Note_on_c, 0, 90, 99
1, 251774, Note_on_c, 0, 84, 81
1, 251774, Control_c, 0, 64, 43
1, 251783, Note_on_c, 0, 31, 56
1, 251789, Control_c, 0, 64, 51
1, 251790, Note_on_c, 0, 83, 71
1, 251804, Control_c, 0, 64, 67
1, 251808, Note_off_c, 0, 83, 40
1, 251816, Note_on_c, 0, 80, 25
1, 251819, Control_c, 0, 64, 102
1, 251825, Note_off_c, 0, 78, 57
1, 251829, Note_off_c, 0, 84, 64
1, 251831, Note_off_c, 0, 90, 63
1, 251834, Control_c, 0, 64, 127
1, 251844, Note_off_c, 0, 31, 58
1, 251852, Note_off_c, 0, 80, 53
1, 251855, Note_on_c, 0, 44, 89
1, 251869, Note_off_c, 0, 32, 63
1, 251881, Note_on_c, 0, 88, 88
1, 251884, Note_off_c, 0, 44, 67
1, 251885, Poly_aftertouch_c, 0, 34, 127
1, 251889, Note_on_c, 0, 76, 95
1, 251923, Note_off_c, 0, 76, 65
1, 251926, Note_off_c, 0, 88, 65
1, 251932, Poly_aftertouch_c, 0, 34, 0
1, 251965, Note_on_c, 0, 86, 89
1, 251968, Note_on_c, 0, 74, 97
1, 251974, Note_on_c, 0, 50, 80
1, 251990, Note_on_c, 0, 54, 72
1, 252000, Note_off_c, 0, 74, 67
1, 252001, Note_on_c, 0, 59, 54
1, 252006, Note_off_c, 0, 86, 68
1, 252021, Note_off_c, 0, 50, 62
1, 252042, Note_on_c, 0, 73, 97
1, 252044, Note_on_c, 0, 85, 95
1, 252060, Note_on_c, 0, 65, 68
1, 252068, Poly_aftertouch_c, 0, 52, 127
1, 252078, Note_on_c, 0, 79, 34
1, 252078, Note_off_c, 0, 65, 66
1, 252090, Note_off_c, 0, 73, 65
1, 252090, Note_off_c, 0, 85, 63
1, 252093, Poly_aftertouch_c, 0, 52, 0
1, 252094, Note_off_c, 0, 59, 61
1, 252108, Note_off_c, 0, 79, 57
1, 252117, Note_off_c, 0, 54, 61
1, 252126, Note_on_c, 0, 74, 106
1, 252129, Note_on_c, 0, 86, 101
1, 252141, Note_on_c, 0, 85, 51
1, 252156, Note_off_c, 0, 74, 71
1, 252161, Note_off_c, 0, 85, 56
1, 252167, Note_off_c, 0, 86, 64
1, 252190, Control_c, 0, 64, 98
1, 252204, Note_on_c, 0, 50, 89
1, 252205, Note_on_c, 0, 62, 95
1, 252205, Note_on_c, 0, 83, 102
1, 252205, Control_c, 0, 64, 59
1, 252212, Note_on_c, 0, 71, 99
1, 252219, Control_c, 0, 64, 0
1, 252252, Note_off_c, 0, 50, 65
1, 252252, Note_off_c, 0, 62, 66
1, 252256, Note_on_c, 0, 72, 31
1, 252271, Control_c, 0, 64, 36
1, 252286, Control_c, 0, 64, 61
1, 252292, Note_off_c, 0, 72, 37
1, 252292, Note_off_c, 0, 83, 64
1, 252297, Note_off_c, 0, 71, 61
1, 252298, Note_on_c, 0, 61, 100
1, 252301, Control_c, 0, 64, 77
1, 252308, Note_on_c, 0, 49, 95
1, 252316, Control_c, 0, 64, 120
1, 252331, Control_c, 0, 64, 127
1, 252338, Note_off_c, 0, 61, 64
1, 252339, Note_on_c, 0, 48, 56
1, 252347, Note_off_c, 0, 49, 60
1, 252371, Note_off_c, 0, 48, 53
1, 252392, Note_on_c, 0, 62, 100
1, 252397, Note_on_c, 0, 50, 82
1, 252397, Note_on_c, 0, 78, 41
1, 252430, Note_off_c, 0, 62, 67
1, 252430, Note_off_c, 0, 78, 52
1, 252442, Note_off_c, 0, 50, 62
1, 252487, Note_on_c, 0, 74, 107
1, 252489, Note_on_c, 0, 78, 98
1, 252491, Note_on_c, 0, 59, 100
1, 252491, Note_on_c, 0, 86, 92
1, 252493, Note_on_c, 0, 47, 92
1, 252495, Note_on_c, 0, 83, 91
1, 252505, Poly_aftertouch_c, 0, 52, 0
1, 252525, Note_off_c, 0, 78, 65
1, 252526, Note_off_c, 0, 74, 66
1, 252530, Note_off_c, 0, 59, 67
1, 252533, Note_off_c, 0, 47, 66
1, 252534, Note_off_c, 0, 86, 63
1, 252536, Note_off_c, 0, 83, 61
1, 252568, Control_c, 0, 64, 84
1, 252570, Note_on_c, 0, 86, 91
1, 252570, Note_on_c, 0, 74, 105
1, 252576, Note_on_c, 0, 83, 83
1, 252577, Note_on_c, 0, 78, 100
1, 252583, Note_on_c, 0, 50, 87
1, 252583, Note_on_c, 0, 59, 98
1, 252583, Control_c, 0, 64, 46
1, 252589, Note_on_c, 0, 54, 84
1, 252598, Control_c, 0, 64, 0
1, 252610, Note_on_c, 0, 51, 53
1, 252612, Note_off_c, 0, 51, 52
1, 252628, Control_c, 0, 64, 56
1, 252633, Note_off_c, 0, 59, 67
1, 252642, Control_c, 0, 64, 74
1, 252657, Control_c, 0, 64, 127
1, 252658, Note_off_c, 0, 86, 65
1, 252664, Note_off_c, 0, 83, 61
1, 252670, Note_off_c, 0, 74, 62
1, 252680, Note_on_c, 0, 44, 93
1, 252683, Note_off_c, 0, 54, 63
1, 252692, Note_off_c, 0, 50, 64
1, 252700, Note_off_c, 0, 78, 61
1, 252704, Note_off_c, 0, 44, 70
1, 252767, Note_on_c, 0, 73, 99
1, 252771, Note_on_c, 0, 85, 90
1, 252786, Note_on_c, 0, 42, 61
1, 252799, Note_on_c, 0, 44, 8
1, 252799, Note_off_c, 0, 44, 127
1, 252808, Note_off_c, 0, 73, 65
1, 252813, Note_off_c, 0, 85, 60
1, 252817, Note_off_c, 0, 42, 53
1, 252843, Note_on_c, 0, 32, 90
1, 252843, Note_on_c, 0, 44, 88
1, 252848, Note_on_c, 0, 84, 98
1, 252849, Note_on_c, 0, 72, 102
1, 252850, Control_c, 0, 64, 83
1, 252853, Note_on_c, 0, 75, 99
1, 252853, Note_on_c, 0, 78, 82
1, 252858, Note_on_c, 0, 80, 76
1, 252865, Control_c, 0, 64, 47
1, 252869, Note_off_c, 0, 32, 68
1, 252871, Note_off_c, 0, 44, 67
1, 252879, Note_off_c, 0, 80, 71
1, 252880, Control_c, 0, 64, 29
1, 252880, Note_off_c, 0, 84, 69
1, 252882, Note_on_c, 0, 76, 67
1, 252894, Control_c, 0, 64, 47
1, 252904, Note_off_c, 0, 72, 64
1, 252905, Note_off_c, 0, 78, 61
1, 252906, Note_off_c, 0, 76, 65
1, 252909, Control_c, 0, 64, 68
1, 252911, Note_off_c, 0, 75, 62
1, 252924, Control_c, 0, 64, 99
1, 252936, Note_on_c, 0, 51, 99
1, 252937, Note_on_c, 0, 39, 95
1, 252939, Control_c, 0, 64, 127
1, 252964, Note_off_c, 0, 51, 64
1, 252972, Note_off_c, 0, 39, 63
1, 253030, Note_on_c, 0, 41, 94
1, 253031, Note_on_c, 0, 53, 98
1, 253037, Note_on_c, 0, 72, 91
1, 253042, Note_on_c, 0, 60, 81
1, 253052, Note_on_c, 0, 59, 73
1, 253065, Note_off_c, 0, 53, 67
1, 253066, Note_off_c, 0, 41, 65
1, 253070, Note_off_c, 0, 59, 65
1, 253074, Note_off_c, 0, 60, 65
1, 253077, Note_off_c, 0, 72, 66
1, 253094, Control_c, 0, 64, 66
1, 253109, Control_c, 0, 64, 0
1, 253122, Note_on_c, 0, 54, 106
1, 253123, Note_on_c, 0, 42, 99
1, 253133, Note_on_c, 0, 70, 96
1, 253136, Note_on_c, 0, 58, 100
1, 253154, Control_c, 0, 64, 50
1, 253169, Control_c, 0, 64, 73
1, 253178, Note_on_c, 0, 44, 9
1, 253178, Note_off_c, 0, 58, 67
1, 253184, Control_c, 0, 64, 101
1, 253188, Note_off_c, 0, 70, 64
1, 253199, Control_c, 0, 64, 127
1, 253207, Note_on_c, 0, 68, 8
1, 253224, Note_off_c, 0, 44, 50
1, 253229, Poly_aftertouch_c, 0, 57, 127
1, 253235, Note_off_c, 0, 54, 56
1, 253236, Note_off_c, 0, 42, 61
1, 253250, Note_off_c, 0, 68, 42
1, 253253, Note_on_c, 0, 74, 92
1, 253256, Note_on_c, 0, 60, 82
1, 253256, Poly_aftertouch_c, 0, 57, 0
1, 253256, Note_on_c, 0, 72, 78
1, 253265, Note_on_c, 0, 62, 69
1, 253272, Note_off_c, 0, 74, 70
1, 253276, Note_off_c, 0, 72, 70
1, 253278, Note_off_c, 0, 60, 70
1, 253285, Note_off_c, 0, 62, 66
1, 253341, Note_on_c, 0, 60, 84
1, 253342, Note_on_c, 0, 48, 87
1, 253343, Note_on_c, 0, 68, 97
1, 253355, Note_on_c, 0, 56, 80
1, 253356, Note_on_c, 0, 54, 72
1, 253363, Note_off_c, 0, 60, 68
1, 253370, Note_off_c, 0, 54, 72
1, 253375, Note_off_c, 0, 48, 65
1, 253379, Note_off_c, 0, 56, 67
1, 253384, Note_off_c, 0, 68, 65
1, 253392, Note_on_c, 0, 66, 19
1, 253433, Note_on_c, 0, 58, 105
1, 253434, Note_off_c, 0, 66, 47
1, 253438, Note_on_c, 0, 46, 90
1, 253439, Note_on_c, 0, 68, 103
1, 253442, Note_on_c, 0, 80, 102
1, 253451, Note_on_c, 0, 78, 82
1, 253459, Note_off_c, 0, 46, 70
1, 253462, Note_off_c, 0, 58, 68
1, 253464, Note_off_c, 0, 78, 67
1, 253477, Note_off_c, 0, 68, 66
1, 253499, Note_on_c, 0, 67, 11
1, 253515, Note_off_c, 0, 80, 64
1, 253523, Note_on_c, 0, 60, 95
1, 253523, Poly_aftertouch_c, 0, 56, 0
1, 253530, Note_off_c, 0, 67, 0
1, 253533, Note_on_c, 0, 50, 77
1, 253543, Note_off_c, 0, 60, 73
1, 253547, Poly_aftertouch_c, 0, 67, 0
1, 253558, Note_on_c, 0, 52, 30
1, 253560, Note_off_c, 0, 50, 69
1, 253591, Note_off_c, 0, 52, 50
1, 253606, Note_on_c, 0, 44, 89
1, 253609, Note_on_c, 0, 56, 94
1, 253629, Note_off_c, 0, 56, 70
1, 253631, Note_off_c, 0, 44, 69
1, 253672, Control_c, 0, 64, 75
1, 253687, Control_c, 0, 64, 0
1, 253701, Note_on_c, 0, 92, 109
1, 253702, Note_on_c, 0, 80, 111
1, 253703, Note_on_c, 0, 84, 85
1, 253706, Note_on_c, 0, 90, 88
1, 253706, Note_on_c, 0, 51, 90
1, 253709, Note_on_c, 0, 63, 100
1, 253738, Note_on_c, 0, 93, 61
1, 253738, Control_c, 0, 64, 55
1, 253747, Note_on_c, 0, 64, 62
1, 253753, Control_c, 0, 64, 79
1, 253762, Note_off_c, 0, 93, 58
1, 253768, Note_off_c, 0, 64, 64
1, 253768, Control_c, 0, 64, 127
1, 253790, Note_off_c, 0, 80, 69
1, 253813, Note_off_c, 0, 84, 64
1, 253826, Note_on_c, 0, 93, 62
1, 253842, Note_off_c, 0, 92, 67
1, 253843, Note_off_c, 0, 51, 61
1, 253846, Note_off_c, 0, 93, 63
1, 253849, Note_off_c, 0, 90, 64
1, 253852, Note_off_c, 0, 63, 60
1, 253914, Note_on_c, 0, 65, 92
1, 253923, Note_on_c, 0, 53, 76
1, 253932, Note_on_c, 0, 55, 65
1, 253947, Note_off_c, 0, 53, 68
1, 253948, Note_off_c, 0, 65, 65
1, 253959, Note_off_c, 0, 55, 63
1, 253986, Note_on_c, 0, 104, 100
1, 253989, Note_on_c, 0, 92, 107
1, 253991, Note_on_c, 0, 102, 87
1, 253999, Note_on_c, 0, 96, 82
1, 254001, Note_on_c, 0, 63, 107
1, 254006, Note_on_c, 0, 51, 98
1, 254015, Note_on_c, 0, 95, 37
1, 254015, Note_off_c, 0, 95, 127
1, 254027, Note_off_c, 0, 51, 70
1, 254032, Note_off_c, 0, 63, 70
1, 254036, Note_off_c, 0, 104, 64
1, 254037, Note_off_c, 0, 96, 61
1, 254037, Note_off_c, 0, 102, 67
1, 254055, Note_off_c, 0, 92, 66
1, 254093, Note_on_c, 0, 61, 99
1, 254098, Note_on_c, 0, 49, 85
1, 254122, Note_off_c, 0, 61, 65
1, 254123, Note_off_c, 0, 49, 68
1, 254151, Note_on_c, 0, 48, 20
1, 254182, Note_on_c, 0, 60, 90
1, 254204, Note_on_c, 0, 50, 52
1, 254225, Note_off_c, 0, 60, 68
1, 254233, Note_off_c, 0, 50, 61
1, 254233, Note_off_c, 0, 48, 58
1, 254302, Note_on_c, 0, 58, 106
1, 254304, Note_on_c, 0, 80, 101
1, 254305, Note_on_c, 0, 92, 105
1, 254306, Note_on_c, 0, 84, 88
1, 254308, Note_on_c, 0, 90, 83
1, 254309, Note_on_c, 0, 46, 84
1, 254332, Note_on_c, 0, 56, 56
1, 254332, Control_c, 0, 64, 76
1, 254344, Note_on_c, 0, 45, 40
1, 254347, Control_c, 0, 64, 47
1, 254356, Note_off_c, 0, 56, 60
1, 254359, Note_off_c, 0, 46, 59
1, 254361, Control_c, 0, 64, 0
1, 254362, Note_off_c, 0, 58, 61
1, 254367, Note_off_c, 0, 92, 68
1, 254376, Control_c, 0, 64, 37
1, 254379, Note_off_c, 0, 45, 44
1, 254391, Note_on_c, 0, 79, 16
1, 254391, Control_c, 0, 64, 63
1, 254406, Note_off_c, 0, 90, 66
1, 254406, Control_c, 0, 64, 87
1, 254421, Control_c, 0, 64, 127
1, 254424, Note_on_c, 0, 60, 99
1, 254425, Note_off_c, 0, 80, 61
1, 254427, Note_on_c, 0, 48, 99
1, 254433, Note_off_c, 0, 79, 56
1, 254438, Note_off_c, 0, 84, 60
1, 254462, Note_off_c, 0, 60, 72
1, 254469, Note_off_c, 0, 48, 65
1, 254559, Note_on_c, 0, 56, 102
1, 254578, Note_on_c, 0, 46, 68
1, 254606, Note_off_c, 0, 56, 65
1, 254609, Note_off_c, 0, 46, 64
1, 254666, Poly_aftertouch_c, 0, 58, 0
1, 254702, Note_on_c, 0, 70, 104
1, 254703, Note_on_c, 0, 82, 90
1, 254705, Note_on_c, 0, 78, 97
1, 254710, Note_on_c, 0, 58, 95
1, 254718, Note_on_c, 0, 80, 77
1, 254739, Control_c, 0, 64, 92
1, 254743, Note_off_c, 0, 80, 59
1, 254754, Control_c, 0, 64, 62
1, 254770, Control_c, 0, 64, 31
1, 254785, Control_c, 0, 64, 33
1, 254800, Control_c, 0, 64, 56
1, 254810, Note_off_c, 0, 70, 62
1, 254815, Control_c, 0, 64, 74
1, 254829, Control_c, 0, 64, 122
1, 254834, Note_off_c, 0, 82, 61
1, 254844, Control_c, 0, 64, 127
1, 254875, Note_on_c, 0, 84, 103
1, 254881, Note_on_c, 0, 60, 91
1, 254886, Note_on_c, 0, 72, 84
1, 254894, Note_off_c, 0, 78, 58
1, 254899, Note_on_c, 0, 82, 64
1, 254903, Note_off_c, 0, 58, 60
1, 254914, Note_off_c, 0, 72, 62
1, 254927, Note_off_c, 0, 82, 68
1, 254962, Note_off_c, 0, 84, 62
1, 254983, Note_off_c, 0, 60, 56
1, 255055, Note_on_c, 0, 56, 102
1, 255058, Note_on_c, 0, 68, 98
1, 255058, Note_on_c, 0, 80, 92
1, 255085, Note_off_c, 0, 80, 62
1, 255095, Note_off_c, 0, 56, 66
1, 255104, Note_off_c, 0, 68, 58
1, 255310, Control_c, 0, 64, 97
1, 255312, Note_on_c, 0, 54, 97
1, 255313, Note_on_c, 0, 57, 95
1, 255315, Note_on_c, 0, 33, 98
1, 255315, Note_on_c, 0, 45, 99
1, 255325, Control_c, 0, 64, 62
1, 255340, Control_c, 0, 64, 0
1, 255355, Note_on_c, 0, 43, 41
1, 255384, Control_c, 0, 64, 45
1, 255399, Control_c, 0, 64, 62
1, 255400, Note_off_c, 0, 43, 32
1, 255414, Control_c, 0, 64, 75
1, 255429, Control_c, 0, 64, 93
1, 255444, Control_c, 0, 64, 127
1, 255461, Note_off_c, 0, 33, 58
1, 255473, Note_off_c, 0, 45, 60
1, 255507, Note_off_c, 0, 54, 63
1, 255542, Note_on_c, 0, 59, 93
1, 255549, Note_on_c, 0, 35, 91
1, 255551, Note_on_c, 0, 47, 94
1, 255571, Note_off_c, 0, 57, 61
1, 255652, Note_off_c, 0, 47, 59
1, 255670, Note_off_c, 0, 35, 59
1, 255699, Note_off_c, 0, 59, 58
1, 255923, Note_on_c, 0, 56, 96
1, 255926, Note_on_c, 0, 44, 96
1, 255930, Note_on_c, 0, 32, 97
1, 255949, Control_c, 0, 64, 103
1, 255961, Note_on_c, 0, 34, 51
1, 255964, Control_c, 0, 64, 65
1, 255986, Control_c, 0, 64, 0
1, 256014, Note_off_c, 0, 34, 47
1, 256031, Control_c, 0, 64, 32
1, 256046, Control_c, 0, 64, 49
1, 256060, Control_c, 0, 64, 64
1, 256075, Control_c, 0, 64, 74
1, 256090, Control_c, 0, 64, 88
1, 256105, Control_c, 0, 64, 110
1, 256119, Control_c, 0, 64, 127
1, 256120, Note_off_c, 0, 32, 54
1, 256165, Note_off_c, 0, 44, 60
1, 256227, Note_off_c, 0, 56, 56
1, 256510, Note_on_c, 0, 37, 90
1, 256517, Note_on_c, 0, 44, 80
1, 256564, Control_c, 0, 64, 102
1, 256579, Control_c, 0, 64, 62
1, 256579, Control_c, 0, 66, 127
1, 256594, Control_c, 0, 64, 0
1, 256845, Note_off_c, 0, 44, 58
1, 256848, Note_off_c, 0, 37, 59
1, 256853, Control_c, 0, 64, 41
1, 256868, Control_c, 0, 64, 53
1, 256883, Control_c, 0, 64, 59
1, 256893, Note_on_c, 0, 72, 42
1, 256898, Control_c, 0, 64, 60
1, 256913, Note_on_c, 0, 63, 38
1, 256913, Note_on_c, 0, 60, 32
1, 256919, Note_on_c, 0, 66, 34
1, 256928, Control_c, 0, 64, 60
1, 257014, Note_off_c, 0, 72, 52
1, 257019, Note_off_c, 0, 60, 33
1, 257029, Note_off_c, 0, 63, 50
1, 257047, Note_off_c, 0, 66, 45
1, 257098, Note_on_c, 0, 61, 54
1, 257165, Control_c, 0, 64, 59
1, 257180, Control_c, 0, 64, 59
1, 257195, Control_c, 0, 64, 58
1, 257202, Note_on_c, 0, 66, 39
1, 257202, Note_on_c, 0, 72, 47
1, 257207, Note_on_c, 0, 60, 53
1, 257209, Note_on_c, 0, 63, 44
1, 257210, Control_c, 0, 64, 58
1, 257251, Note_off_c, 0, 60, 62
1, 257256, Note_off_c, 0, 63, 60
1, 257256, Note_off_c, 0, 72, 52
1, 257264, Note_off_c, 0, 66, 59
1, 257283, Note_on_c, 0, 58, 64
1, 257313, Control_c, 0, 64, 58
1, 257319, Note_off_c, 0, 61, 55
1, 257328, Control_c, 0, 64, 59
1, 257343, Control_c, 0, 64, 61
1, 257357, Control_c, 0, 64, 63
1, 257372, Control_c, 0, 64, 65
1, 257378, Note_on_c, 0, 60, 59
1, 257380, Note_on_c, 0, 66, 61
1, 257382, Note_on_c, 0, 63, 52
1, 257387, Control_c, 0, 64, 68
1, 257389, Note_on_c, 0, 72, 52
1, 257402, Control_c, 0, 64, 70
1, 257417, Control_c, 0, 64, 72
1, 257419, Note_off_c, 0, 60, 62
1, 257426, Note_off_c, 0, 72, 61
1, 257428, Note_off_c, 0, 63, 60
1, 257432, Control_c, 0, 64, 74
1, 257435, Note_off_c, 0, 66, 58
1, 257447, Control_c, 0, 64, 75
1, 257454, Note_on_c, 0, 61, 66
1, 257462, Control_c, 0, 64, 76
1, 257483, Control_c, 0, 64, 77
1, 257498, Control_c, 0, 64, 78
1, 257528, Control_c, 0, 64, 79
1, 257550, Note_off_c, 0, 61, 61
1, 257554, Note_on_c, 0, 63, 68
1, 257560, Note_on_c, 0, 70, 65
1, 257565, Note_on_c, 0, 66, 43
1, 257567, Note_off_c, 0, 58, 55
1, 257572, Note_on_c, 0, 75, 54
1, 257596, Note_off_c, 0, 63, 60
1, 257596, Note_off_c, 0, 66, 55
1, 257598, Note_off_c, 0, 70, 64
1, 257602, Note_off_c, 0, 75, 69
1, 257602, Control_c, 0, 64, 78
1, 257605, Note_on_c, 0, 65, 20
1, 257617, Control_c, 0, 64, 76
1, 257623, Note_on_c, 0, 61, 74
1, 257632, Control_c, 0, 64, 70
1, 257643, Note_off_c, 0, 65, 51
1, 257646, Control_c, 0, 64, 61
1, 257661, Control_c, 0, 64, 42
1, 257667, Note_off_c, 0, 61, 61
1, 257676, Control_c, 0, 64, 0
1, 257707, Note_on_c, 0, 66, 64
1, 257711, Note_on_c, 0, 63, 63
1, 257715, Note_on_c, 0, 60, 62
1, 257725, Note_on_c, 0, 72, 53
1, 257746, Note_off_c, 0, 60, 66
1, 257746, Note_off_c, 0, 63, 64
1, 257756, Note_off_c, 0, 66, 60
1, 257760, Note_off_c, 0, 72, 62
1, 257788, Note_on_c, 0, 61, 72
1, 257815, Note_off_c, 0, 61, 68
1, 257866, Note_on_c, 0, 63, 63
1, 257866, Note_on_c, 0, 66, 67
1, 257868, Note_on_c, 0, 60, 57
1, 257869, Note_on_c, 0, 72, 55
1, 257901, Note_off_c, 0, 72, 64
1, 257904, Note_off_c, 0, 63, 61
1, 257907, Note_off_c, 0, 66, 56
1, 257909, Note_off_c, 0, 60, 62
1, 257927, Control_c, 0, 64, 32
1, 257942, Control_c, 0, 64, 46
1, 257949, Note_on_c, 0, 44, 75
1, 257952, Note_on_c, 0, 37, 78
1, 257958, Control_c, 0, 64, 59
1, 257973, Control_c, 0, 64, 66
1, 257977, Note_off_c, 0, 44, 66
1, 257980, Note_off_c, 0, 37, 68
1, 257987, Control_c, 0, 64, 69
1, 258002, Control_c, 0, 64, 73
1, 258017, Control_c, 0, 64, 77
1, 258032, Control_c, 0, 64, 81
1, 258046, Note_on_c, 0, 61, 55
1, 258046, Control_c, 0, 64, 84
1, 258047, Note_on_c, 0, 58, 58
1, 258052, Note_on_c, 0, 70, 53
1, 258061, Control_c, 0, 64, 86
1, 258070, Note_off_c, 0, 58, 61
1, 258076, Note_on_c, 0, 65, 19
1, 258076, Control_c, 0, 64, 87
1, 258078, Note_off_c, 0, 61, 65
1, 258082, Note_off_c, 0, 70, 51
1, 258091, Control_c, 0, 64, 88
1, 258117, Note_off_c, 0, 65, 51
1, 258129, Note_on_c, 0, 56, 75
1, 258150, Control_c, 0, 64, 87
1, 258154, Note_off_c, 0, 56, 68
1, 258165, Control_c, 0, 64, 79
1, 258180, Control_c, 0, 64, 67
1, 258195, Control_c, 0, 64, 47
1, 258201, Note_on_c, 0, 65, 64
1, 258202, Note_on_c, 0, 61, 59
1, 258210, Note_on_c, 0, 68, 58
1, 258210, Control_c, 0, 64, 0
1, 258210, Note_on_c, 0, 73, 63
1, 258249, Note_off_c, 0, 65, 59
1, 258250, Note_off_c, 0, 61, 63
1, 258251, Note_off_c, 0, 68, 63
1, 258255, Note_off_c, 0, 73, 56
1, 258303, Note_on_c, 0, 60, 69
1, 258329, Note_off_c, 0, 60, 68
1, 258378, Note_on_c, 0, 65, 53
1, 258378, Note_on_c, 0, 68, 58
1, 258380, Note_on_c, 0, 61, 58
1, 258381, Note_on_c, 0, 73, 55
1, 258410, Note_off_c, 0, 73, 65
1, 258414, Note_off_c, 0, 65, 62
1, 258415, Note_off_c, 0, 68, 61
1, 258417, Note_off_c, 0, 61, 61
1, 258457, Note_on_c, 0, 57, 70
1, 258475, Note_off_c, 0, 57, 65
1, 258538, Note_on_c, 0, 58, 70
1, 258538, Note_on_c, 0, 70, 63
1, 258543, Note_on_c, 0, 64, 59
1, 258547, Note_on_c, 0, 67, 51
1, 258570, Note_off_c, 0, 58, 65
1, 258574, Note_off_c, 0, 70, 60
1, 258593, Note_off_c, 0, 67, 54
1, 258597, Note_off_c, 0, 64, 61
1, 258615, Note_on_c, 0, 60, 71
1, 258639, Note_off_c, 0, 60, 68
1, 258698, Note_on_c, 0, 61, 69
1, 258700, Note_on_c, 0, 73, 66
1, 258708, Note_on_c, 0, 64, 59
1, 258719, Note_on_c, 0, 67, 51
1, 258727, Note_off_c, 0, 73, 68
1, 258734, Note_off_c, 0, 61, 61
1, 258752, Note_off_c, 0, 64, 58
1, 258762, Note_off_c, 0, 67, 59
1, 258771, Note_on_c, 0, 60, 60
1, 258799, Note_off_c, 0, 60, 65
1, 258856, Note_on_c, 0, 58, 68
1, 258857, Note_on_c, 0, 70, 73
1, 258862, Note_on_c, 0, 67, 58
1, 258864, Note_on_c, 0, 64, 55
1, 258884, Control_c, 0, 64, 34
1, 258895, Note_off_c, 0, 58, 61
1, 258896, Note_off_c, 0, 67, 63
1, 258899, Control_c, 0, 64, 60
1, 258904, Note_off_c, 0, 64, 62
1, 258914, Control_c, 0, 64, 64
1, 258925, Note_off_c, 0, 70, 59
1, 258928, Control_c, 0, 64, 65
1, 258932, Note_on_c, 0, 44, 76
1, 258936, Note_on_c, 0, 37, 73
1, 258943, Control_c, 0, 64, 67
1, 258958, Control_c, 0, 64, 70
1, 258961, Note_off_c, 0, 44, 64
1, 258966, Note_off_c, 0, 37, 64
1, 258981, Control_c, 0, 64, 74
1, 258996, Control_c, 0, 64, 79
1, 259010, Control_c, 0, 64, 84
1, 259025, Control_c, 0, 64, 89
1, 259039, Note_on_c, 0, 60, 52
1, 259040, Control_c, 0, 64, 95
1, 259041, Note_on_c, 0, 66, 53
1, 259044, Note_on_c, 0, 72, 57
1, 259050, Note_on_c, 0, 63, 59
1, 259054, Control_c, 0, 64, 103
1, 259069, Control_c, 0, 64, 117
1, 259084, Control_c, 0, 64, 127
1, 259101, Note_off_c, 0, 60, 55
1, 259103, Note_off_c, 0, 63, 52
1, 259118, Note_off_c, 0, 66, 58
1, 259122, Note_off_c, 0, 72, 56
1, 259137, Note_on_c, 0, 61, 67
1, 259220, Note_on_c, 0, 60, 67
1, 259229, Note_on_c, 0, 63, 56
1, 259229, Note_on_c, 0, 72, 67
1, 259237, Note_on_c, 0, 66, 62
1, 259265, Note_off_c, 0, 63, 60
1, 259276, Note_off_c, 0, 66, 59
1, 259283, Note_off_c, 0, 60, 61
1, 259289, Note_on_c, 0, 58, 81
1, 259298, Note_off_c, 0, 72, 58
1, 259329, Note_off_c, 0, 61, 55
1, 259380, Note_on_c, 0, 66, 73
1, 259386, Note_on_c, 0, 60, 74
1, 259386, Note_on_c, 0, 63, 66
1, 259390, Note_on_c, 0, 72, 65
1, 259445, Note_off_c, 0, 60, 61
1, 259454, Note_off_c, 0, 63, 62
1, 259454, Note_off_c, 0, 72, 60
1, 259457, Note_on_c, 0, 61, 84
1, 259458, Note_off_c, 0, 66, 63
1, 259465, Note_on_c, 0, 53, 23
1, 259543, Note_off_c, 0, 61, 64
1, 259555, Note_on_c, 0, 70, 74
1, 259556, Note_on_c, 0, 63, 82
1, 259560, Note_on_c, 0, 66, 75
1, 259563, Note_on_c, 0, 75, 68
1, 259580, Note_off_c, 0, 58, 56
1, 259601, Note_off_c, 0, 75, 56
1, 259611, Note_off_c, 0, 63, 60
1, 259613, Note_off_c, 0, 66, 58
1, 259614, Note_off_c, 0, 70, 62
1, 259629, Note_on_c, 0, 61, 90
1, 259675, Note_off_c, 0, 61, 63
1, 259694, Note_off_c, 0, 53, 39
1, 259703, Note_on_c, 0, 60, 79
1, 259711, Note_on_c, 0, 72, 72
1, 259712, Note_on_c, 0, 63, 77
1, 259748, Note_on_c, 0, 67, 44
1, 259751, Note_on_c, 0, 70, 39
1, 259759, Control_c, 0, 64, 110
1, 259762, Note_off_c, 0, 63, 51
1, 259773, Note_off_c, 0, 60, 61
1, 259774, Control_c, 0, 64, 95
1, 259778, Note_off_c, 0, 67, 54
1, 259787, Note_off_c, 0, 70, 47
1, 259787, Note_off_c, 0, 72, 58
1, 259789, Note_on_c, 0, 61, 84
1, 259789, Control_c, 0, 64, 81
1, 259804, Control_c, 0, 64, 64
1, 259818, Note_off_c, 0, 61, 68
1, 259819, Control_c, 0, 64, 39
1, 259833, Control_c, 0, 64, 0
1, 259867, Note_on_c, 0, 63, 76
1, 259867, Note_on_c, 0, 72, 72
1, 259868, Note_on_c, 0, 60, 80
1, 259872, Note_on_c, 0, 66, 74
1, 259918, Note_off_c, 0, 72, 62
1, 259925, Note_off_c, 0, 60, 64
1, 259927, Note_off_c, 0, 63, 64
1, 259935, Note_off_c, 0, 66, 62
1, 259939, Note_on_c, 0, 44, 88
1, 259945, Note_on_c, 0, 37, 86
1, 259951, Control_c, 0, 64, 50
1, 259966, Note_off_c, 0, 44, 67
1, 259966, Control_c, 0, 64, 62
1, 259972, Note_off_c, 0, 37, 67
1, 259981, Control_c, 0, 64, 67
1, 259996, Control_c, 0, 64, 71
1, 260011, Control_c, 0, 64, 76
1, 260025, Note_on_c, 0, 58, 81
1, 260025, Control_c, 0, 64, 81
1, 260029, Note_on_c, 0, 61, 68
1, 260030, Note_on_c, 0, 70, 77
1, 260032, Note_on_c, 0, 65, 59
1, 260040, Control_c, 0, 64, 86
1, 260055, Control_c, 0, 64, 90
1, 260067, Note_off_c, 0, 58, 59
1, 260070, Control_c, 0, 64, 92
1, 260070, Note_off_c, 0, 61, 61
1, 260071, Note_off_c, 0, 65, 59
1, 260084, Control_c, 0, 64, 93
1, 260091, Note_on_c, 0, 56, 88
1, 260098, Note_off_c, 0, 70, 62
1, 260099, Control_c, 0, 64, 94
1, 260114, Control_c, 0, 64, 95
1, 260129, Control_c, 0, 64, 97
1, 260143, Control_c, 0, 64, 100
1, 260155, Note_off_c, 0, 56, 61
1, 260158, Control_c, 0, 64, 103
1, 260167, Note_on_c, 0, 61, 83
1, 260169, Note_on_c, 0, 68, 74
1, 260171, Note_on_c, 0, 73, 79
1, 260173, Note_on_c, 0, 65, 76
1, 260173, Control_c, 0, 64, 106
1, 260188, Control_c, 0, 64, 111
1, 260203, Control_c, 0, 64, 119
1, 260218, Control_c, 0, 64, 127
1, 260228, Note_off_c, 0, 61, 59
1, 260248, Note_off_c, 0, 73, 61
1, 260249, Note_on_c, 0, 60, 85
1, 260254, Note_off_c, 0, 65, 58
1, 260267, Note_off_c, 0, 68, 59
1, 260336, Note_on_c, 0, 61, 88
1, 260336, Note_on_c, 0, 65, 69
1, 260337, Note_off_c, 0, 60, 61
1, 260342, Note_on_c, 0, 68, 72
1, 260344, Note_on_c, 0, 73, 87
1, 260389, Note_off_c, 0, 73, 62
1, 260407, Note_on_c, 0, 57, 101
1, 260413, Note_off_c, 0, 68, 63
1, 260414, Note_off_c, 0, 61, 59
1, 260424, Note_off_c, 0, 65, 61
1, 260484, Note_off_c, 0, 57, 63
1, 260499, Note_on_c, 0, 58, 92
1, 260499, Note_on_c, 0, 70, 84
1, 260504, Note_on_c, 0, 67, 68
1, 260510, Note_on_c, 0, 64, 63
1, 260559, Note_off_c, 0, 58, 63
1, 260570, Note_off_c, 0, 70, 61
1, 260576, Note_on_c, 0, 60, 97
1, 260583, Poly_aftertouch_c, 0, 68, 127
1, 260600, Note_off_c, 0, 64, 62
1, 260622, Poly_aftertouch_c, 0, 68, 0
1, 260629, Note_off_c, 0, 60, 66
1, 260647, Note_off_c, 0, 67, 0
1, 260654, Note_on_c, 0, 64, 61
1, 260654, Note_on_c, 0, 61, 84
1, 260656, Note_on_c, 0, 73, 82
1, 260668, Note_on_c, 0, 67, 34
1, 260684, Note_on_c, 0, 63, 38
1, 260713, Note_off_c, 0, 73, 62
1, 260715, Note_off_c, 0, 63, 51
1, 260723, Note_off_c, 0, 61, 61
1, 260735, Note_on_c, 0, 60, 77
1, 260752, Note_off_c, 0, 64, 59
1, 260754, Note_off_c, 0, 67, 57
1, 260775, Note_off_c, 0, 60, 62
1, 260788, Control_c, 0, 66, 0
1, 260803, Note_on_c, 0, 64, 49
1, 260813, Note_on_c, 0, 58, 95
1, 260813, Note_on_c, 0, 70, 86
1, 260838, Poly_aftertouch_c, 0, 62, 0
1, 260853, Note_on_c, 0, 68, 43
1, 260858, Note_off_c, 0, 58, 66
1, 260877, Note_off_c, 0, 68, 60
1, 260878, Control_c, 0, 64, 85
1, 260889, Note_off_c, 0, 70, 63
1, 260890, Note_off_c, 0, 64, 65
1, 260893, Control_c, 0, 64, 52
1, 260896, Note_on_c, 0, 59, 91
1, 260897, Note_on_c, 0, 49, 90
1, 260898, Note_on_c, 0, 56, 90
1, 260907, Control_c, 0, 64, 0
1, 260937, Control_c, 0, 64, 31
1, 260952, Control_c, 0, 64, 54
1, 260966, Control_c, 0, 64, 71
1, 260974, Note_off_c, 0, 49, 61
1, 260981, Control_c, 0, 64, 100
1, 260983, Note_off_c, 0, 59, 61
1, 260989, Note_off_c, 0, 56, 65
1, 260996, Control_c, 0, 64, 127
1, 261006, Note_on_c, 0, 77, 77
1, 261007, Note_on_c, 0, 65, 78
1, 261013, Note_on_c, 0, 68, 64
1, 261035, Note_on_c, 0, 72, 45
1, 261039, Note_on_c, 0, 71, 51
1, 261075, Note_off_c, 0, 72, 62
1, 261080, Note_off_c, 0, 65, 58
1, 261084, Note_off_c, 0, 68, 60
1, 261087, Note_off_c, 0, 71, 58
1, 261090, Note_off_c, 0, 77, 59
1, 261094, Note_on_c, 0, 66, 89
1, 261168, Note_off_c, 0, 66, 60
1, 261170, Note_on_c, 0, 65, 84
1, 261170, Note_on_c, 0, 68, 75
1, 261170, Note_on_c, 0, 71, 79
1, 261170, Note_on_c, 0, 77, 72
1, 261241, Note_on_c, 0, 63, 99
1, 261244, Note_off_c, 0, 65, 63
1, 261250, Note_off_c, 0, 68, 59
1, 261255, Note_off_c, 0, 71, 59
1, 261255, Note_off_c, 0, 77, 62
1, 261316, Note_on_c, 0, 65, 91
1, 261316, Note_on_c, 0, 68, 82
1, 261318, Note_on_c, 0, 71, 75
1, 261319, Note_on_c, 0, 77, 77
1, 261328, Note_off_c, 0, 63, 60
1, 261346, Note_on_c, 0, 73, 51
1, 261367, Note_off_c, 0, 65, 62
1, 261368, Note_off_c, 0, 73, 60
1, 261380, Note_off_c, 0, 71, 62
1, 261386, Note_off_c, 0, 77, 63
1, 261387, Note_off_c, 0, 68, 64
1, 261392, Note_on_c, 0, 66, 104
1, 261459, Note_off_c, 0, 66, 63
1, 261471, Note_on_c, 0, 68, 97
1, 261474, Note_on_c, 0, 80, 85
1, 261475, Note_on_c, 0, 71, 92
1, 261538, Note_off_c, 0, 71, 62
1, 261539, Note_off_c, 0, 68, 59
1, 261539, Note_off_c, 0, 80, 62
1, 261547, Note_on_c, 0, 66, 96
1, 261590, Poly_aftertouch_c, 0, 81, 0
1, 261596, Note_off_c, 0, 66, 63
1, 261614, Note_on_c, 0, 65, 95
1, 261619, Note_on_c, 0, 77, 90
1, 261620, Note_on_c, 0, 71, 85
1, 261623, Note_on_c, 0, 68, 84
1, 261689, Note_off_c, 0, 65, 57
1, 261694, Note_off_c, 0, 68, 57
1, 261701, Note_on_c, 0, 66, 98
1, 261706, Note_off_c, 0, 77, 61
1, 261718, Note_off_c, 0, 71, 58
1, 261745, Note_off_c, 0, 66, 67
1, 261770, Note_on_c, 0, 71, 76
1, 261772, Note_on_c, 0, 77, 85
1, 261772, Note_on_c, 0, 65, 96
1, 261778, Note_on_c, 0, 68, 84
1, 261835, Control_c, 0, 64, 103
1, 261841, Note_off_c, 0, 77, 62
1, 261842, Note_off_c, 0, 65, 59
1, 261849, Note_on_c, 0, 58, 104
1, 261849, Control_c, 0, 64, 59
1, 261851, Note_off_c, 0, 71, 61
1, 261852, Note_on_c, 0, 54, 93
1, 261857, Note_on_c, 0, 49, 84
1, 261861, Note_off_c, 0, 68, 63
1, 261864, Control_c, 0, 64, 0
1, 261909, Control_c, 0, 64, 42
1, 261917, Note_off_c, 0, 49, 56
1, 261923, Control_c, 0, 64, 61
1, 261928, Note_off_c, 0, 54, 58
1, 261934, Note_off_c, 0, 58, 61
1, 261938, Control_c, 0, 64, 76
1, 261942, Note_on_c, 0, 63, 84
1, 261944, Note_on_c, 0, 75, 81
1, 261945, Note_on_c, 0, 66, 76
1, 261948, Note_on_c, 0, 70, 72
1, 261954, Control_c, 0, 64, 98
1, 261976, Control_c, 0, 64, 127
1, 261994, Note_off_c, 0, 63, 66
1, 262005, Note_off_c, 0, 66, 63
1, 262020, Note_off_c, 0, 70, 63
1, 262028, Note_on_c, 0, 61, 97
1, 262030, Note_off_c, 0, 75, 61
1, 262089, Note_off_c, 0, 61, 63
1, 262096, Note_on_c, 0, 78, 93
1, 262097, Note_on_c, 0, 66, 95
1, 262103, Note_on_c, 0, 73, 74
1, 262104, Note_on_c, 0, 70, 80
1, 262134, Note_on_c, 0, 71, 37
1, 262162, Note_off_c, 0, 66, 61
1, 262163, Note_off_c, 0, 71, 57
1, 262175, Note_off_c, 0, 70, 63
1, 262178, Note_off_c, 0, 78, 57
1, 262179, Note_on_c, 0, 65, 97
1, 262180, Note_off_c, 0, 73, 60
1, 262213, Poly_aftertouch_c, 0, 69, 0
1, 262247, Note_off_c, 0, 65, 63
1, 262249, Note_on_c, 0, 66, 101
1, 262250, Note_on_c, 0, 78, 93
1, 262256, Note_on_c, 0, 70, 75
1, 262256, Note_on_c, 0, 73, 73
1, 262313, Note_off_c, 0, 78, 58
1, 262315, Note_off_c, 0, 70, 60
1, 262317, Note_off_c, 0, 73, 62
1, 262323, Note_off_c, 0, 66, 61
1, 262328, Note_on_c, 0, 62, 104
1, 262387, Note_off_c, 0, 62, 64
1, 262401, Note_on_c, 0, 63, 98
1, 262407, Note_on_c, 0, 75, 90
1, 262407, Note_on_c, 0, 66, 87
1, 262420, Note_on_c, 0, 70, 69
1, 262458, Note_off_c, 0, 63, 63
1, 262467, Note_off_c, 0, 66, 63
1, 262470, Note_off_c, 0, 70, 59
1, 262486, Note_on_c, 0, 65, 100
1, 262496, Note_off_c, 0, 75, 62
1, 262541, Note_off_c, 0, 65, 67
1, 262564, Note_on_c, 0, 66, 103
1, 262565, Note_on_c, 0, 78, 98
1, 262567, Note_on_c, 0, 70, 89
1, 262587, Note_on_c, 0, 73, 59
1, 262615, Note_off_c, 0, 78, 60
1, 262616, Note_off_c, 0, 73, 67
1, 262622, Note_off_c, 0, 70, 63
1, 262630, Note_off_c, 0, 66, 59
1, 262639, Note_on_c, 0, 65, 82
1, 262669, Note_off_c, 0, 65, 52
1, 262706, Note_on_c, 0, 63, 95
1, 262714, Note_on_c, 0, 75, 87
1, 262738, Note_on_c, 0, 66, 79
1, 262741, Note_on_c, 0, 70, 66
1, 262789, Note_off_c, 0, 63, 63
1, 262799, Control_c, 0, 64, 108
1, 262810, Note_on_c, 0, 58, 104
1, 262814, Control_c, 0, 64, 64
1, 262815, Note_on_c, 0, 49, 89
1, 262815, Note_off_c, 0, 66, 64
1, 262816, Note_on_c, 0, 52, 88
1, 262819, Note_off_c, 0, 70, 62
1, 262829, Control_c, 0, 64, 0
1, 262835, Note_off_c, 0, 75, 59
1, 262873, Control_c, 0, 64, 55
1, 262888, Control_c, 0, 64, 72
1, 262896, Note_off_c, 0, 49, 61
1, 262902, Control_c, 0, 64, 104
1, 262903, Poly_aftertouch_c, 0, 50, 127
1, 262908, Note_off_c, 0, 58, 58
1, 262911, Note_off_c, 0, 52, 64
1, 262917, Control_c, 0, 64, 127
1, 262932, Note_on_c, 0, 67, 82
1, 262935, Note_on_c, 0, 70, 75
1, 262935, Note_on_c, 0, 79, 73
1, 262939, Note_on_c, 0, 73, 71
1, 262946, Poly_aftertouch_c, 0, 50, 0
1, 263003, Note_off_c, 0, 70, 59
1, 263003, Note_off_c, 0, 67, 59
1, 263010, Note_off_c, 0, 73, 61
1, 263015, Note_off_c, 0, 79, 58
1, 263019, Note_on_c, 0, 68, 94
1, 263075, Note_off_c, 0, 68, 64
1, 263082, Note_on_c, 0, 79, 76
1, 263084, Note_on_c, 0, 67, 88
1, 263091, Note_on_c, 0, 73, 77
1, 263092, Note_on_c, 0, 70, 80
1, 263137, Note_off_c, 0, 67, 61
1, 263149, Note_off_c, 0, 70, 60
1, 263155, Note_on_c, 0, 65, 99
1, 263155, Note_off_c, 0, 73, 61
1, 263158, Note_off_c, 0, 79, 61
1, 263221, Note_off_c, 0, 65, 62
1, 263222, Note_on_c, 0, 67, 98
1, 263226, Note_on_c, 0, 73, 83
1, 263227, Note_on_c, 0, 79, 77
1, 263231, Note_on_c, 0, 70, 85
1, 263283, Note_off_c, 0, 67, 63
1, 263289, Note_off_c, 0, 79, 62
1, 263292, Note_off_c, 0, 70, 61
1, 263296, Note_off_c, 0, 73, 62
1, 263298, Note_on_c, 0, 68, 104
1, 263358, Note_off_c, 0, 68, 63
1, 263379, Note_on_c, 0, 70, 103
1, 263379, Note_on_c, 0, 73, 94
1, 263379, Note_on_c, 0, 82, 86
1, 263428, Note_off_c, 0, 82, 64
1, 263432, Note_off_c, 0, 70, 63
1, 263443, Note_off_c, 0, 73, 61
1, 263448, Note_on_c, 0, 68, 100
1, 263494, Poly_aftertouch_c, 0, 80, 0
1, 263501, Note_off_c, 0, 68, 61
1, 263522, Note_on_c, 0, 67, 96
1, 263524, Note_on_c, 0, 70, 87
1, 263525, Note_on_c, 0, 79, 84
1, 263536, Note_on_c, 0, 73, 78
1, 263595, Note_off_c, 0, 67, 58
1, 263603, Note_on_c, 0, 68, 91
1, 263608, Note_off_c, 0, 70, 59
1, 263610, Note_off_c, 0, 79, 60
1, 263615, Note_off_c, 0, 73, 59
1, 263622, Note_on_c, 0, 66, 70
1, 263648, Note_off_c, 0, 68, 64
1, 263649, Note_off_c, 0, 66, 52
1, 263675, Note_on_c, 0, 79, 88
1, 263678, Note_on_c, 0, 67, 97
1, 263681, Note_on_c, 0, 73, 78
1, 263683, Note_on_c, 0, 70, 83
1, 263755, Control_c, 0, 64, 68
1, 263757, Note_off_c, 0, 79, 58
1, 263758, Note_off_c, 0, 67, 62
1, 263760, Note_on_c, 0, 58, 107
1, 263763, Note_on_c, 0, 49, 90
1, 263766, Note_on_c, 0, 53, 85
1, 263770, Control_c, 0, 64, 0
1, 263778, Note_off_c, 0, 70, 62
1, 263781, Note_off_c, 0, 73, 60
1, 263814, Control_c, 0, 64, 52
1, 263818, Note_off_c, 0, 49, 61
1, 263822, Note_off_c, 0, 53, 64
1, 263829, Control_c, 0, 64, 69
1, 263831, Note_off_c, 0, 58, 54
1, 263843, Control_c, 0, 64, 91
1, 263857, Note_on_c, 0, 65, 94
1, 263858, Control_c, 0, 64, 127
1, 263859, Note_on_c, 0, 77, 85
1, 263868, Note_on_c, 0, 70, 80
1, 263868, Note_on_c, 0, 73, 76
1, 263905, Note_off_c, 0, 77, 64
1, 263907, Note_off_c, 0, 65, 64
1, 263928, Note_off_c, 0, 73, 62
1, 263930, Note_off_c, 0, 70, 63
1, 263935, Note_on_c, 0, 64, 102
1, 263984, Note_off_c, 0, 64, 65
1, 264001, Note_on_c, 0, 80, 86
1, 264002, Note_on_c, 0, 68, 91
1, 264014, Note_on_c, 0, 70, 74
1, 264017, Note_on_c, 0, 73, 68
1, 264055, Note_off_c, 0, 68, 61
1, 264069, Note_off_c, 0, 70, 63
1, 264073, Note_on_c, 0, 67, 90
1, 264075, Note_off_c, 0, 80, 62
1, 264081, Note_off_c, 0, 73, 60
1, 264129, Note_off_c, 0, 67, 66
1, 264142, Note_on_c, 0, 68, 95
1, 264150, Note_on_c, 0, 73, 70
1, 264152, Note_on_c, 0, 80, 76
1, 264153, Note_on_c, 0, 70, 79
1, 264184, Note_on_c, 0, 78, 38
1, 264207, Note_on_c, 0, 64, 104
1, 264209, Note_off_c, 0, 68, 57
1, 264222, Note_off_c, 0, 80, 63
1, 264227, Note_off_c, 0, 78, 51
1, 264231, Note_off_c, 0, 70, 59
1, 264243, Note_off_c, 0, 73, 61
1, 264258, Note_off_c, 0, 64, 67
1, 264300, Note_on_c, 0, 77, 85
1, 264302, Note_on_c, 0, 65, 91
1, 264307, Note_on_c, 0, 73, 65
1, 264313, Note_on_c, 0, 70, 79
1, 264337, Note_off_c, 0, 65, 67
1, 264347, Note_off_c, 0, 77, 64
1, 264361, Note_off_c, 0, 70, 65
1, 264368, Note_off_c, 0, 73, 63
1, 264371, Note_on_c, 0, 67, 92
1, 264416, Note_off_c, 0, 67, 65
1, 264452, Note_on_c, 0, 68, 90
1, 264464, Note_on_c, 0, 70, 68
1, 264467, Note_on_c, 0, 80, 63
1, 264491, Note_off_c, 0, 70, 64
1, 264498, Note_off_c, 0, 80, 64
1, 264504, Note_on_c, 0, 78, 22
1, 264509, Note_off_c, 0, 68, 58
1, 264514, Note_on_c, 0, 67, 86
1, 264547, Note_off_c, 0, 78, 49
1, 264560, Note_off_c, 0, 67, 63
1, 264604, Note_on_c, 0, 77, 77
1, 264617, Note_on_c, 0, 70, 59
1, 264643, Note_on_c, 0, 73, 42
1, 264647, Note_on_c, 0, 64, 16
1, 264679, Note_off_c, 0, 64, 54
1, 264681, Note_off_c, 0, 70, 63
1, 264681, Note_off_c, 0, 73, 61
1, 264681, Poly_aftertouch_c, 0, 65, 127
1, 264683, Note_off_c, 0, 77, 62
1, 264711, Control_c, 0, 64, 83
1, 264721, Poly_aftertouch_c, 0, 65, 0
1, 264726, Control_c, 0, 64, 42
1, 264740, Control_c, 0, 64, 0
1, 264743, Note_on_c, 0, 55, 60
1, 264746, Note_on_c, 0, 63, 97
1, 264748, Note_on_c, 0, 58, 80
1, 264753, Note_on_c, 0, 49, 74
1, 264785, Control_c, 0, 64, 49
1, 264799, Control_c, 0, 64, 69
1, 264814, Control_c, 0, 64, 127
1, 264815, Note_off_c, 0, 49, 64
1, 264837, Note_off_c, 0, 55, 61
1, 264855, Note_off_c, 0, 58, 64
1, 264863, Note_off_c, 0, 63, 59
1, 264908, Note_on_c, 0, 87, 59
1, 264919, Note_on_c, 0, 75, 64
1, 264920, Note_on_c, 0, 79, 49
1, 264933, Note_on_c, 0, 82, 51
1, 265000, Note_off_c, 0, 75, 61
1, 265006, Note_off_c, 0, 87, 60
1, 265007, Note_off_c, 0, 82, 49
1, 265016, Note_off_c, 0, 79, 52
1, 265031, Note_on_c, 0, 76, 71
1, 265040, Note_on_c, 0, 70, 64
1, 265047, Note_on_c, 0, 67, 61
1, 265105, Note_off_c, 0, 70, 63
1, 265106, Note_off_c, 0, 67, 58
1, 265109, Note_off_c, 0, 76, 59
1, 265112, Note_on_c, 0, 75, 80
1, 265113, Note_on_c, 0, 87, 74
1, 265117, Note_on_c, 0, 82, 68
1, 265126, Note_on_c, 0, 79, 61
1, 265169, Note_off_c, 0, 79, 48
1, 265176, Note_off_c, 0, 75, 61
1, 265180, Note_on_c, 0, 73, 94
1, 265185, Note_off_c, 0, 87, 62
1, 265185, Note_on_c, 0, 70, 83
1, 265194, Note_off_c, 0, 82, 59
1, 265194, Note_on_c, 0, 67, 76
1, 265248, Note_on_c, 0, 75, 96
1, 265251, Note_on_c, 0, 87, 83
1, 265254, Note_on_c, 0, 82, 67
1, 265257, Note_off_c, 0, 67, 60
1, 265261, Note_on_c, 0, 79, 72
1, 265265, Note_off_c, 0, 70, 63
1, 265266, Note_off_c, 0, 73, 63
1, 265288, Note_off_c, 0, 79, 64
1, 265292, Note_off_c, 0, 75, 67
1, 265316, Note_off_c, 0, 82, 63
1, 265322, Note_off_c, 0, 87, 63
1, 265325, Note_on_c, 0, 76, 104
1, 265332, Note_on_c, 0, 67, 94
1, 265333, Note_on_c, 0, 70, 93
1, 265388, Note_off_c, 0, 67, 60
1, 265391, Note_on_c, 0, 90, 97
1, 265395, Note_on_c, 0, 78, 101
1, 265397, Note_on_c, 0, 82, 89
1, 265399, Note_on_c, 0, 85, 82
1, 265399, Note_off_c, 0, 76, 61
1, 265408, Note_off_c, 0, 70, 62
1, 265425, Note_on_c, 0, 80, 45
1, 265449, Note_off_c, 0, 80, 59
1, 265461, Note_off_c, 0, 78, 57
1, 265461, Note_off_c, 0, 82, 65
1, 265463, Note_off_c, 0, 85, 61
1, 265465, Note_off_c, 0, 90, 60
1, 265471, Note_on_c, 0, 76, 104
1, 265480, Note_on_c, 0, 67, 88
1, 265482, Note_on_c, 0, 70, 88
1, 265520, Note_off_c, 0, 67, 59
1, 265525, Note_off_c, 0, 76, 62
1, 265532, Note_off_c, 0, 70, 61
1, 265540, Note_on_c, 0, 87, 92
1, 265540, Note_on_c, 0, 75, 100
1, 265543, Note_on_c, 0, 82, 87
1, 265545, Note_on_c, 0, 79, 81
1, 265603, Note_off_c, 0, 75, 58
1, 265608, Note_on_c, 0, 76, 93
1, 265619, Note_off_c, 0, 79, 55
1, 265623, Note_on_c, 0, 67, 73
1, 265624, Note_on_c, 0, 70, 73
1, 265625, Note_off_c, 0, 87, 61
1, 265626, Note_off_c, 0, 82, 60
1, 265640, Note_off_c, 0, 67, 74
1, 265644, Note_off_c, 0, 76, 69
1, 265648, Note_off_c, 0, 70, 68
1, 265699, Note_on_c, 0, 75, 95
1, 265701, Note_on_c, 0, 87, 90
1, 265722, Note_on_c, 0, 82, 73
1, 265737, Note_on_c, 0, 79, 56
1, 265793, Control_c, 0, 64, 71
1, 265804, Note_off_c, 0, 75, 59
1, 265808, Note_off_c, 0, 87, 63
1, 265808, Control_c, 0, 64, 34
1, 265811, Note_off_c, 0, 79, 60
1, 265819, Note_on_c, 0, 64, 104
1, 265823, Control_c, 0, 64, 0
1, 265826, Note_on_c, 0, 49, 92
1, 265826, Note_off_c, 0, 82, 56
1, 265834, Note_on_c, 0, 54, 71
1, 265836, Note_on_c, 0, 57, 76
1, 265838, Control_c, 0, 64, 42
1, 265853, Control_c, 0, 64, 66
1, 265868, Control_c, 0, 64, 116
1, 265874, Note_on_c, 0, 53, 45
1, 265877, Note_off_c, 0, 49, 63
1, 265883, Control_c, 0, 64, 127
1, 265895, Note_off_c, 0, 57, 63
1, 265896, Note_off_c, 0, 54, 57
1, 265906, Note_off_c, 0, 53, 48
1, 265907, Note_off_c, 0, 64, 66
1, 265930, Note_on_c, 0, 73, 96
1, 265938, Note_on_c, 0, 78, 80
1, 265941, Note_on_c, 0, 85, 90
1, 265945, Note_on_c, 0, 82, 71
1, 265976, Note_off_c, 0, 73, 66
1, 265982, Note_off_c, 0, 78, 57
1, 265987, Note_off_c, 0, 82, 57
1, 266011, Note_off_c, 0, 85, 60
1, 266027, Note_on_c, 0, 72, 97
1, 266034, Note_on_c, 0, 70, 82
1, 266038, Note_on_c, 0, 66, 75
1, 266072, Note_off_c, 0, 72, 63
1, 266074, Note_off_c, 0, 66, 59
1, 266098, Note_on_c, 0, 76, 99
1, 266102, Note_off_c, 0, 70, 61
1, 266103, Note_on_c, 0, 88, 87
1, 266104, Note_on_c, 0, 85, 85
1, 266108, Note_on_c, 0, 82, 68
1, 266144, Note_on_c, 0, 83, 37
1, 266150, Note_off_c, 0, 82, 55
1, 266151, Note_off_c, 0, 76, 63
1, 266155, Note_off_c, 0, 85, 60
1, 266166, Note_off_c, 0, 88, 64
1, 266174, Note_on_c, 0, 75, 96
1, 266174, Note_off_c, 0, 83, 49
1, 266182, Note_on_c, 0, 66, 87
1, 266218, Note_off_c, 0, 75, 64
1, 266225, Note_off_c, 0, 66, 54
1, 266242, Note_on_c, 0, 88, 85
1, 266243, Note_on_c, 0, 76, 91
1, 266247, Note_on_c, 0, 82, 80
1, 266251, Note_on_c, 0, 85, 78
1, 266285, Note_on_c, 0, 83, 33
1, 266291, Note_off_c, 0, 76, 63
1, 266294, Note_off_c, 0, 88, 63
1, 266304, Note_off_c, 0, 85, 62
1, 266307, Note_off_c, 0, 82, 60
1, 266312, Note_on_c, 0, 72, 91
1, 266313, Note_on_c, 0, 70, 88
1, 266315, Note_off_c, 0, 83, 48
1, 266320, Note_on_c, 0, 66, 81
1, 266344, Note_off_c, 0, 72, 62
1, 266347, Note_off_c, 0, 66, 57
1, 266355, Note_off_c, 0, 70, 64
1, 266375, Note_on_c, 0, 73, 88
1, 266381, Note_on_c, 0, 85, 79
1, 266383, Note_on_c, 0, 78, 74
1, 266411, Note_on_c, 0, 82, 45
1, 266417, Note_off_c, 0, 73, 64
1, 266424, Note_off_c, 0, 78, 49
1, 266437, Note_off_c, 0, 82, 57
1, 266443, Note_off_c, 0, 85, 60
1, 266467, Note_on_c, 0, 75, 94
1, 266480, Note_on_c, 0, 66, 80
1, 266506, Note_off_c, 0, 66, 63
1, 266524, Note_off_c, 0, 75, 60
1, 266527, Note_on_c, 0, 88, 90
1, 266530, Note_on_c, 0, 76, 86
1, 266578, Note_off_c, 0, 76, 63
1, 266579, Note_off_c, 0, 88, 65
1, 266601, Note_on_c, 0, 72, 78
1, 266605, Note_on_c, 0, 70, 76
1, 266606, Note_on_c, 0, 66, 69
1, 266622, Note_off_c, 0, 72, 68
1, 266638, Note_off_c, 0, 66, 62
1, 266644, Note_off_c, 0, 70, 61
1, 266686, Note_on_c, 0, 73, 85
1, 266687, Note_on_c, 0, 85, 78
1, 266689, Note_on_c, 0, 82, 66
1, 266720, Note_on_c, 0, 79, 34
1, 266765, Control_c, 0, 64, 99
1, 266780, Control_c, 0, 64, 62
1, 266795, Control_c, 0, 64, 0
1, 266796, Note_off_c, 0, 73, 60
1, 266804, Note_off_c, 0, 85, 58
1, 266806, Note_on_c, 0, 63, 99
1, 266813, Note_on_c, 0, 58, 82
1, 266815, Note_on_c, 0, 49, 80
1, 266819, Note_on_c, 0, 55, 69
1, 266825, Control_c, 0, 64, 36
1, 266828, Note_off_c, 0, 79, 52
1, 266839, Note_off_c, 0, 82, 55
1, 266840, Control_c, 0, 64, 60
1, 266842, Note_on_c, 0, 61, 44
1, 266854, Control_c, 0, 64, 92
1, 266869, Control_c, 0, 64, 127
1, 266872, Note_off_c, 0, 61, 36
1, 266873, Note_off_c, 0, 49, 64
1, 266893, Note_off_c, 0, 55, 60
1, 266907, Note_off_c, 0, 58, 63
1, 266907, Note_off_c, 0, 63, 59
1, 266941, Note_on_c, 0, 75, 88
1, 266942, Note_on_c, 0, 87, 77
1, 266951, Note_on_c, 0, 79, 64
1, 266971, Note_on_c, 0, 82, 46
1, 267005, Note_off_c, 0, 75, 59
1, 267014, Note_off_c, 0, 82, 60
1, 267018, Note_off_c, 0, 79, 56
1, 267018, Note_off_c, 0, 87, 61
1, 267023, Note_on_c, 0, 76, 90
1, 267035, Note_on_c, 0, 70, 71
1, 267036, Note_on_c, 0, 67, 71
1, 267101, Note_on_c, 0, 75, 99
1, 267105, Poly_aftertouch_c, 0, 68, 127
1, 267105, Note_on_c, 0, 82, 81
1, 267105, Note_on_c, 0, 87, 86
1, 267108, Note_off_c, 0, 67, 61
1, 267113, Note_off_c, 0, 70, 64
1, 267114, Note_on_c, 0, 79, 74
1, 267117, Note_off_c, 0, 76, 60
1, 267140, Poly_aftertouch_c, 0, 68, 0
1, 267160, Note_off_c, 0, 75, 63
1, 267170, Note_off_c, 0, 87, 60
1, 267173, Note_off_c, 0, 79, 56
1, 267174, Note_on_c, 0, 73, 96
1, 267177, Note_on_c, 0, 70, 88
1, 267181, Note_on_c, 0, 67, 81
1, 267181, Note_off_c, 0, 82, 62
1, 267239, Note_on_c, 0, 75, 100
1, 267245, Note_on_c, 0, 87, 86
1, 267248, Note_on_c, 0, 82, 74
1, 267251, Note_on_c, 0, 79, 74
1, 267254, Note_off_c, 0, 67, 63
1, 267254, Note_off_c, 0, 70, 63
1, 267259, Note_off_c, 0, 73, 63
1, 267283, Note_off_c, 0, 79, 59
1, 267284, Note_off_c, 0, 75, 67
1, 267305, Note_off_c, 0, 82, 62
1, 267314, Note_on_c, 0, 76, 104
1, 267316, Note_off_c, 0, 87, 64
1, 267321, Note_on_c, 0, 67, 91
1, 267322, Note_on_c, 0, 70, 94
1, 267376, Note_off_c, 0, 67, 62
1, 267376, Note_off_c, 0, 76, 62
1, 267381, Note_on_c, 0, 78, 105
1, 267383, Note_on_c, 0, 90, 102
1, 267391, Note_on_c, 0, 85, 81
1, 267394, Note_on_c, 0, 82, 69
1, 267396, Note_off_c, 0, 70, 66
1, 267407, Note_on_c, 0, 81, 75
1, 267415, Note_off_c, 0, 85, 62
1, 267418, Note_off_c, 0, 82, 53
1, 267437, Note_on_c, 0, 84, 42
1, 267441, Note_off_c, 0, 90, 66
1, 267448, Note_off_c, 0, 78, 60
1, 267455, Note_off_c, 0, 81, 59
1, 267457, Note_on_c, 0, 76, 101
1, 267465, Note_off_c, 0, 84, 56
1, 267467, Note_on_c, 0, 67, 90
1, 267470, Note_on_c, 0, 70, 92
1, 267511, Note_off_c, 0, 67, 58
1, 267511, Note_off_c, 0, 76, 65
1, 267513, Note_off_c, 0, 70, 64
1, 267524, Note_on_c, 0, 75, 103
1, 267524, Note_on_c, 0, 87, 96
1, 267533, Note_on_c, 0, 82, 72
1, 267535, Note_on_c, 0, 79, 74
1, 267588, Note_on_c, 0, 76, 96
1, 267588, Note_off_c, 0, 75, 60
1, 267599, Note_on_c, 0, 70, 84
1, 267604, Note_on_c, 0, 67, 77
1, 267604, Note_off_c, 0, 87, 60
1, 267607, Note_off_c, 0, 82, 62
1, 267609, Note_off_c, 0, 79, 60
1, 267624, Note_off_c, 0, 76, 70
1, 267626, Note_off_c, 0, 67, 68
1, 267641, Note_off_c, 0, 70, 60
1, 267683, Note_on_c, 0, 75, 94
1, 267686, Note_on_c, 0, 87, 84
1, 267701, Note_on_c, 0, 79, 57
1, 267704, Note_on_c, 0, 82, 62
1, 267737, Note_on_c, 0, 85, 15
1, 267752, Control_c, 0, 64, 94
1, 267759, Note_off_c, 0, 79, 54
1, 267766, Control_c, 0, 64, 53
1, 267769, Note_off_c, 0, 75, 58
1, 267770, Note_off_c, 0, 87, 64
1, 267774, Note_on_c, 0, 64, 102
1, 267778, Note_off_c, 0, 82, 59
1, 267781, Note_on_c, 0, 58, 97
1, 267781, Control_c, 0, 64, 0
1, 267782, Note_on_c, 0, 54, 87
1, 267784, Note_on_c, 0, 49, 89
1, 267787, Note_off_c, 0, 85, 33
1, 267810, Control_c, 0, 64, 43
1, 267825, Control_c, 0, 64, 65
1, 267832, Note_off_c, 0, 49, 64
1, 267840, Control_c, 0, 64, 98
1, 267855, Control_c, 0, 64, 127
1, 267865, Note_off_c, 0, 54, 62
1, 267870, Note_off_c, 0, 64, 61
1, 267871, Note_off_c, 0, 58, 65
1, 267891, Poly_aftertouch_c, 0, 51, 0
1, 267900, Note_on_c, 0, 73, 102
1, 267904, Note_on_c, 0, 85, 84
1, 267905, Note_on_c, 0, 78, 86
1, 267907, Note_on_c, 0, 82, 74
1, 267951, Note_on_c, 0, 72, 18
1, 267953, Note_off_c, 0, 73, 61
1, 267966, Note_off_c, 0, 78, 58
1, 267966, Note_off_c, 0, 85, 64
1, 267985, Note_off_c, 0, 72, 0
1, 267987, Note_off_c, 0, 82, 61
1, 267995, Note_on_c, 0, 72, 73
1, 268003, Note_on_c, 0, 66, 87
1, 268004, Note_on_c, 0, 70, 81
1, 268026, Note_off_c, 0, 66, 65
1, 268047, Note_off_c, 0, 72, 64
1, 268071, Note_on_c, 0, 76, 97
1, 268074, Note_on_c, 0, 85, 88
1, 268074, Note_off_c, 0, 70, 64
1, 268077, Note_on_c, 0, 88, 85
1, 268080, Note_on_c, 0, 82, 82
1, 268113, Poly_aftertouch_c, 0, 68, 0
1, 268123, Note_off_c, 0, 76, 62
1, 268127, Note_off_c, 0, 82, 62
1, 268133, Note_off_c, 0, 85, 59
1, 268134, Note_on_c, 0, 75, 99
1, 268144, Note_on_c, 0, 66, 86
1, 268145, Note_off_c, 0, 88, 62
1, 268166, Note_off_c, 0, 66, 62
1, 268177, Note_off_c, 0, 75, 66
1, 268214, Note_on_c, 0, 88, 89
1, 268217, Note_on_c, 0, 76, 92
1, 268219, Note_on_c, 0, 82, 85
1, 268223, Note_on_c, 0, 85, 83
1, 268256, Note_off_c, 0, 88, 67
1, 268258, Note_off_c, 0, 76, 66
1, 268266, Note_on_c, 0, 70, 87
1, 268266, Note_on_c, 0, 72, 74
1, 268270, Note_off_c, 0, 85, 63
1, 268273, Note_on_c, 0, 66, 81
1, 268273, Note_off_c, 0, 82, 62
1, 268300, Note_off_c, 0, 72, 63
1, 268301, Note_off_c, 0, 66, 61
1, 268320, Note_off_c, 0, 70, 64
1, 268346, Note_on_c, 0, 85, 90
1, 268348, Note_on_c, 0, 73, 92
1, 268352, Note_on_c, 0, 78, 77
1, 268356, Note_on_c, 0, 82, 73
1, 268368, Note_off_c, 0, 73, 65
1, 268403, Note_on_c, 0, 72, 8
1, 268404, Note_off_c, 0, 78, 57
1, 268409, Note_off_c, 0, 82, 62
1, 268412, Note_off_c, 0, 85, 60
1, 268414, Note_on_c, 0, 75, 102
1, 268427, Note_on_c, 0, 66, 80
1, 268451, Note_off_c, 0, 66, 64
1, 268455, Note_off_c, 0, 72, 50
1, 268467, Note_off_c, 0, 75, 63
1, 268476, Note_on_c, 0, 88, 87
1, 268481, Note_on_c, 0, 76, 89
1, 268519, Note_off_c, 0, 76, 66
1, 268521, Note_off_c, 0, 88, 67
1, 268539, Note_on_c, 0, 72, 80
1, 268554, Note_on_c, 0, 66, 58
1, 268554, Note_on_c, 0, 71, 64
1, 268556, Note_off_c, 0, 72, 72
1, 268562, Note_on_c, 0, 70, 43
1, 268572, Note_off_c, 0, 66, 65
1, 268573, Note_off_c, 0, 71, 63
1, 268595, Note_off_c, 0, 70, 34
1, 268610, Note_on_c, 0, 85, 89
1, 268610, Note_on_c, 0, 73, 95
1, 268621, Note_on_c, 0, 78, 71
1, 268622, Note_on_c, 0, 82, 63
1, 268652, Note_off_c, 0, 78, 56
1, 268657, Note_off_c, 0, 73, 62
1, 268678, Control_c, 0, 64, 91
1, 268682, Note_off_c, 0, 82, 57
1, 268693, Control_c, 0, 64, 52
1, 268694, Note_off_c, 0, 85, 61
1, 268697, Note_on_c, 0, 47, 80
1, 268715, Control_c, 0, 64, 0
1, 268729, Note_on_c, 0, 48, 60
1, 268729, Control_c, 0, 64, 31
1, 268744, Control_c, 0, 64, 59
1, 268745, Note_on_c, 0, 54, 81
1, 268759, Control_c, 0, 64, 86
1, 268764, Note_on_c, 0, 58, 36
1, 268765, Note_on_c, 0, 57, 77
1, 268771, Note_off_c, 0, 47, 65
1, 268774, Control_c, 0, 64, 127
1, 268790, Note_on_c, 0, 63, 103
1, 268798, Note_on_c, 0, 51, 37
1, 268806, Note_off_c, 0, 54, 64
1, 268818, Note_off_c, 0, 57, 63
1, 268824, Note_off_c, 0, 48, 31
1, 268837, Note_off_c, 0, 63, 66
1, 268838, Note_on_c, 0, 64, 42
1, 268838, Note_off_c, 0, 51, 52
1, 268849, Note_off_c, 0, 58, 30
1, 268871, Note_off_c, 0, 64, 53
1, 268935, Note_on_c, 0, 83, 91
1, 268941, Note_on_c, 0, 95, 75
1, 268941, Note_on_c, 0, 93, 84
1, 268946, Note_on_c, 0, 90, 79
1, 268992, Note_off_c, 0, 83, 63
1, 268995, Note_off_c, 0, 95, 63
1, 269001, Note_off_c, 0, 90, 63
1, 269001, Note_off_c, 0, 93, 62
1, 269019, Note_on_c, 0, 84, 100
1, 269039, Note_on_c, 0, 75, 66
1, 269047, Note_on_c, 0, 78, 58
1, 269054, Note_off_c, 0, 75, 67
1, 269058, Note_off_c, 0, 84, 66
1, 269072, Note_off_c, 0, 78, 61
1, 269102, Note_on_c, 0, 95, 88
1, 269104, Note_on_c, 0, 83, 84
1, 269105, Note_on_c, 0, 93, 92
1, 269108, Note_on_c, 0, 90, 88
1, 269120, Note_off_c, 0, 83, 72
1, 269152, Note_on_c, 0, 82, 104
1, 269156, Note_on_c, 0, 78, 83
1, 269165, Note_on_c, 0, 75, 67
1, 269165, Note_off_c, 0, 90, 63
1, 269167, Note_off_c, 0, 95, 63
1, 269171, Note_off_c, 0, 93, 63
1, 269191, Note_off_c, 0, 75, 70
1, 269195, Note_off_c, 0, 82, 67
1, 269202, Note_off_c, 0, 78, 63
1, 269225, Note_on_c, 0, 83, 97
1, 269226, Note_on_c, 0, 95, 94
1, 269230, Note_on_c, 0, 93, 91
1, 269232, Note_on_c, 0, 90, 88
1, 269270, Note_off_c, 0, 83, 65
1, 269285, Note_off_c, 0, 90, 65
1, 269287, Note_on_c, 0, 84, 106
1, 269287, Note_off_c, 0, 93, 64
1, 269290, Note_off_c, 0, 95, 67
1, 269296, Note_on_c, 0, 75, 92
1, 269314, Note_off_c, 0, 75, 69
1, 269318, Note_on_c, 0, 77, 56
1, 269321, Note_off_c, 0, 84, 72
1, 269338, Note_off_c, 0, 77, 62
1, 269352, Note_on_c, 0, 98, 107
1, 269358, Note_on_c, 0, 86, 100
1, 269362, Note_on_c, 0, 90, 94
1, 269403, Note_off_c, 0, 86, 66
1, 269405, Note_off_c, 0, 98, 67
1, 269411, Note_off_c, 0, 90, 63
1, 269415, Note_on_c, 0, 84, 101
1, 269428, Note_on_c, 0, 75, 81
1, 269445, Note_off_c, 0, 84, 67
1, 269446, Note_off_c, 0, 75, 74
1, 269491, Note_on_c, 0, 95, 86
1, 269492, Note_on_c, 0, 83, 101
1, 269493, Note_on_c, 0, 93, 91
1, 269498, Note_on_c, 0, 90, 84
1, 269537, Note_off_c, 0, 83, 65
1, 269540, Note_on_c, 0, 84, 102
1, 269549, Note_off_c, 0, 90, 63
1, 269551, Note_off_c, 0, 95, 63
1, 269555, Note_on_c, 0, 75, 78
1, 269558, Note_on_c, 0, 78, 72
1, 269561, Note_off_c, 0, 93, 62
1, 269569, Note_off_c, 0, 75, 70
1, 269570, Note_off_c, 0, 84, 67
1, 269582, Note_off_c, 0, 78, 67
1, 269595, Note_on_c, 0, 74, 34
1, 269626, Note_off_c, 0, 74, 49
1, 269627, Note_on_c, 0, 83, 88
1, 269630, Note_on_c, 0, 93, 83
1, 269631, Note_on_c, 0, 90, 84
1, 269645, Note_on_c, 0, 95, 54
1, 269664, Note_off_c, 0, 95, 62
1, 269680, Note_off_c, 0, 93, 63
1, 269683, Note_off_c, 0, 90, 64
1, 269696, Note_off_c, 0, 83, 63
1, 269716, Control_c, 0, 64, 83
1, 269719, Note_on_c, 0, 48, 92
1, 269731, Control_c, 0, 64, 56
1, 269745, Control_c, 0, 64, 0
1, 269756, Note_on_c, 0, 53, 80
1, 269760, Control_c, 0, 64, 29
1, 269773, Note_on_c, 0, 52, 51
1, 269775, Control_c, 0, 64, 49
1, 269784, Note_on_c, 0, 57, 81
1, 269789, Control_c, 0, 64, 68
1, 269792, Note_off_c, 0, 48, 63
1, 269801, Note_off_c, 0, 52, 54
1, 269804, Control_c, 0, 64, 85
1, 269819, Control_c, 0, 64, 127
1, 269836, Note_on_c, 0, 65, 100
1, 269846, Note_off_c, 0, 53, 63
1, 269856, Note_off_c, 0, 57, 65
1, 269868, Note_off_c, 0, 65, 67
1, 269897, Note_on_c, 0, 69, 87
1, 269901, Note_on_c, 0, 72, 89
1, 269931, Note_off_c, 0, 69, 65
1, 269966, Note_on_c, 0, 81, 95
1, 269969, Note_off_c, 0, 72, 65
1, 269972, Note_on_c, 0, 77, 85
1, 269991, Note_off_c, 0, 77, 71
1, 270010, Note_off_c, 0, 81, 67
1, 270028, Note_on_c, 0, 79, 5
1, 270055, Note_on_c, 0, 83, 113
1, 270056, Note_on_c, 0, 80, 101
1, 270072, Control_c, 0, 64, 122
1, 270073, Note_off_c, 0, 79, 51
1, 270079, Note_off_c, 0, 83, 67
1, 270086, Note_off_c, 0, 80, 71
1, 270086, Control_c, 0, 64, 67
1, 270101, Control_c, 0, 64, 0
1, 270118, Note_on_c, 0, 93, 100
1, 270128, Note_on_c, 0, 81, 80
1, 270129, Note_on_c, 0, 83, 67
1, 270130, Note_on_c, 0, 84, 74
1, 270150, Note_off_c, 0, 83, 70
1, 270151, Note_off_c, 0, 84, 70
1, 270152, Note_off_c, 0, 81, 66
1, 270164, Note_off_c, 0, 93, 64
1, 270196, Note_on_c, 0, 76, 91
1, 270198, Note_on_c, 0, 80, 80
1, 270217, Note_off_c, 0, 76, 76
1, 270222, Note_off_c, 0, 80, 74
1, 270268, Note_on_c, 0, 89, 76
1, 270270, Note_on_c, 0, 77, 82
1, 270270, Note_on_c, 0, 81, 76
1, 270294, Note_off_c, 0, 81, 65
1, 270300, Note_off_c, 0, 77, 64
1, 270305, Note_off_c, 0, 89, 64
1, 270339, Note_on_c, 0, 74, 96
1, 270346, Note_on_c, 0, 71, 79
1, 270357, Note_off_c, 0, 74, 73
1, 270366, Note_off_c, 0, 71, 71
1, 270407, Note_on_c, 0, 72, 84
1, 270410, Note_on_c, 0, 84, 82
1, 270417, Note_on_c, 0, 79, 60
1, 270419, Note_on_c, 0, 77, 65
1, 270438, Note_off_c, 0, 72, 61
1, 270443, Note_off_c, 0, 79, 69
1, 270444, Note_off_c, 0, 84, 65
1, 270446, Note_off_c, 0, 77, 69
1, 270487, Note_on_c, 0, 68, 82
1, 270490, Note_on_c, 0, 71, 70
1, 270501, Note_on_c, 0, 72, 47
1, 270506, Note_off_c, 0, 71, 67
1, 270509, Note_off_c, 0, 68, 68
1, 270527, Note_off_c, 0, 72, 34
1, 270548, Note_on_c, 0, 81, 83
1, 270554, Note_on_c, 0, 69, 76
1, 270561, Note_on_c, 0, 72, 60
1, 270622, Note_on_c, 0, 77, 86
1, 270638, Note_off_c, 0, 72, 62
1, 270662, Note_off_c, 0, 69, 61
1, 270679, Note_off_c, 0, 81, 59
1, 270680, Note_off_c, 0, 77, 64
1, 270685, Note_on_c, 0, 47, 73
1, 270701, Control_c, 0, 64, 50
1, 270706, Note_on_c, 0, 45, 49
1, 270716, Control_c, 0, 64, 103
1, 270724, Note_on_c, 0, 54, 72
1, 270732, Control_c, 0, 64, 127
1, 270733, Note_on_c, 0, 57, 80
1, 270743, Note_off_c, 0, 45, 57
1, 270746, Note_off_c, 0, 47, 62
1, 270759, Note_on_c, 0, 56, 38
1, 270771, Note_on_c, 0, 63, 104
1, 270787, Note_off_c, 0, 57, 65
1, 270789, Note_off_c, 0, 54, 63
1, 270805, Note_off_c, 0, 63, 68
1, 270823, Note_off_c, 0, 56, 49
1, 270837, Note_on_c, 0, 61, 15
1, 270863, Note_on_c, 0, 81, 76
1, 270863, Note_on_c, 0, 83, 74
1, 270870, Note_on_c, 0, 78, 72
1, 270876, Note_off_c, 0, 61, 39
1, 270882, Note_on_c, 0, 71, 62
1, 270886, Note_on_c, 0, 72, 58
1, 270913, Note_off_c, 0, 71, 63
1, 270915, Note_off_c, 0, 72, 64
1, 270918, Note_off_c, 0, 81, 62
1, 270926, Note_off_c, 0, 78, 57
1, 270928, Note_off_c, 0, 83, 59
1, 270973, Note_on_c, 0, 72, 91
1, 270986, Note_on_c, 0, 63, 72
1, 270992, Note_off_c, 0, 72, 66
1, 270997, Note_on_c, 0, 66, 55
1, 271006, Note_off_c, 0, 63, 65
1, 271018, Note_off_c, 0, 66, 62
1, 271031, Note_on_c, 0, 71, 88
1, 271033, Note_on_c, 0, 81, 83
1, 271033, Note_on_c, 0, 83, 83
1, 271035, Note_on_c, 0, 78, 85
1, 271075, Note_off_c, 0, 71, 61
1, 271081, Note_off_c, 0, 81, 63
1, 271086, Note_off_c, 0, 83, 60
1, 271087, Note_on_c, 0, 70, 103
1, 271090, Note_off_c, 0, 78, 58
1, 271093, Note_on_c, 0, 66, 84
1, 271102, Note_on_c, 0, 63, 60
1, 271123, Note_off_c, 0, 63, 65
1, 271129, Note_off_c, 0, 70, 68
1, 271138, Note_off_c, 0, 66, 66
1, 271156, Note_on_c, 0, 83, 90
1, 271156, Note_on_c, 0, 71, 101
1, 271158, Note_on_c, 0, 81, 90
1, 271162, Note_on_c, 0, 78, 90
1, 271198, Note_off_c, 0, 71, 67
1, 271212, Note_off_c, 0, 78, 66
1, 271213, Note_on_c, 0, 63, 43
1, 271215, Note_off_c, 0, 81, 63
1, 271216, Note_off_c, 0, 83, 63
1, 271217, Note_on_c, 0, 72, 108
1, 271226, Note_on_c, 0, 66, 84
1, 271249, Note_off_c, 0, 72, 70
1, 271254, Note_off_c, 0, 63, 65
1, 271270, Note_off_c, 0, 66, 62
1, 271281, Note_on_c, 0, 86, 100
1, 271284, Note_on_c, 0, 74, 103
1, 271289, Note_on_c, 0, 78, 98
1, 271330, Note_off_c, 0, 74, 63
1, 271335, Note_off_c, 0, 86, 65
1, 271338, Note_off_c, 0, 78, 57
1, 271343, Note_on_c, 0, 72, 102
1, 271353, Note_on_c, 0, 63, 84
1, 271359, Note_on_c, 0, 66, 77
1, 271372, Note_off_c, 0, 72, 66
1, 271376, Note_off_c, 0, 63, 69
1, 271388, Poly_aftertouch_c, 0, 84, 0
1, 271389, Note_off_c, 0, 66, 66
1, 271415, Note_on_c, 0, 71, 97
1, 271415, Note_on_c, 0, 83, 85
1, 271424, Note_on_c, 0, 81, 83
1, 271426, Note_on_c, 0, 78, 82
1, 271459, Note_off_c, 0, 78, 53
1, 271460, Note_off_c, 0, 71, 64
1, 271473, Note_on_c, 0, 72, 68
1, 271476, Note_on_c, 0, 66, 74
1, 271477, Note_off_c, 0, 81, 62
1, 271479, Note_off_c, 0, 83, 61
1, 271484, Note_on_c, 0, 63, 55
1, 271486, Note_off_c, 0, 72, 71
1, 271511, Note_off_c, 0, 66, 67
1, 271512, Note_off_c, 0, 63, 58
1, 271550, Note_on_c, 0, 72, 50
1, 271551, Note_on_c, 0, 71, 76
1, 271556, Note_on_c, 0, 78, 77
1, 271566, Note_on_c, 0, 84, 65
1, 271570, Note_on_c, 0, 81, 62
1, 271573, Note_on_c, 0, 79, 65
1, 271577, Note_on_c, 0, 83, 68
1, 271596, Note_off_c, 0, 79, 68
1, 271597, Note_off_c, 0, 84, 62
1, 271602, Note_off_c, 0, 83, 66
1, 271602, Note_off_c, 0, 81, 65
1, 271621, Note_off_c, 0, 78, 57
1, 271627, Note_off_c, 0, 72, 60
1, 271627, Note_on_c, 0, 47, 86
1, 271630, Note_off_c, 0, 71, 58
1, 271643, Control_c, 0, 64, 98
1, 271645, Note_on_c, 0, 48, 64
1, 271657, Note_on_c, 0, 52, 68
1, 271657, Control_c, 0, 64, 61
1, 271669, Note_on_c, 0, 53, 71
1, 271672, Control_c, 0, 64, 0
1, 271676, Note_off_c, 0, 47, 64
1, 271683, Note_on_c, 0, 57, 76
1, 271685, Note_off_c, 0, 48, 65
1, 271687, Note_on_c, 0, 55, 74
1, 271723, Note_off_c, 0, 52, 57
1, 271725, Control_c, 0, 64, 50
1, 271729, Note_off_c, 0, 53, 0
1, 271729, Note_on_c, 0, 53, 19
1, 271731, Note_off_c, 0, 55, 0
1, 271734, Note_on_c, 0, 65, 99
1, 271739, Control_c, 0, 64, 68
1, 271746, Note_off_c, 0, 53, 60
1, 271748, Poly_aftertouch_c, 0, 55, 0
1, 271754, Control_c, 0, 64, 90
1, 271757, Note_off_c, 0, 57, 64
1, 271769, Control_c, 0, 64, 127
1, 271776, Note_off_c, 0, 65, 67
1, 271805, Note_on_c, 0, 69, 88
1, 271809, Note_on_c, 0, 72, 85
1, 271875, Note_off_c, 0, 69, 59
1, 271881, Note_on_c, 0, 81, 89
1, 271882, Note_on_c, 0, 77, 89
1, 271890, Note_off_c, 0, 72, 63
1, 271926, Note_off_c, 0, 77, 60
1, 271928, Note_off_c, 0, 81, 63
1, 271943, Note_on_c, 0, 71, 101
1, 271946, Note_on_c, 0, 68, 95
1, 271961, Control_c, 0, 64, 79
1, 271973, Note_off_c, 0, 71, 70
1, 271976, Control_c, 0, 64, 43
1, 271985, Note_off_c, 0, 68, 65
1, 271991, Control_c, 0, 64, 0
1, 272011, Note_on_c, 0, 81, 91
1, 272014, Note_on_c, 0, 69, 82
1, 272014, Note_on_c, 0, 72, 87
1, 272044, Note_off_c, 0, 72, 65
1, 272051, Note_off_c, 0, 69, 63
1, 272053, Note_off_c, 0, 81, 65
1, 272083, Note_on_c, 0, 68, 84
1, 272084, Note_on_c, 0, 64, 88
1, 272104, Note_off_c, 0, 68, 73
1, 272104, Note_off_c, 0, 64, 73
1, 272149, Note_on_c, 0, 77, 84
1, 272153, Note_on_c, 0, 65, 82
1, 272162, Note_on_c, 0, 71, 65
1, 272174, Note_on_c, 0, 69, 56
1, 272187, Note_off_c, 0, 65, 65
1, 272189, Note_off_c, 0, 71, 68
1, 272189, Note_off_c, 0, 77, 62
1, 272195, Note_off_c, 0, 69, 61
1, 272217, Note_on_c, 0, 62, 90
1, 272222, Note_on_c, 0, 59, 80
1, 272238, Note_off_c, 0, 62, 71
1, 272246, Note_off_c, 0, 59, 70
1, 272291, Note_on_c, 0, 72, 81
1, 272293, Note_on_c, 0, 60, 73
1, 272303, Note_on_c, 0, 64, 68
1, 272327, Note_off_c, 0, 60, 63
1, 272329, Note_off_c, 0, 72, 64
1, 272333, Note_off_c, 0, 64, 67
1, 272364, Note_on_c, 0, 59, 78
1, 272369, Note_on_c, 0, 56, 78
1, 272397, Note_off_c, 0, 59, 64
1, 272399, Note_off_c, 0, 56, 65
1, 272427, Note_on_c, 0, 57, 74
1, 272431, Note_on_c, 0, 69, 77
1, 272434, Note_on_c, 0, 60, 74
1, 272509, Note_on_c, 0, 65, 75
1, 272513, Note_off_c, 0, 60, 63
1, 272557, Note_off_c, 0, 57, 59
1, 272564, Note_on_c, 0, 47, 75
1, 272585, Note_off_c, 0, 65, 63
1, 272596, Note_off_c, 0, 69, 59
1, 272634, Note_on_c, 0, 54, 78
1, 272647, Note_off_c, 0, 47, 63
1, 272658, Note_on_c, 0, 57, 69
1, 272666, Control_c, 0, 64, 45
1, 272680, Control_c, 0, 64, 79
1, 272688, Note_on_c, 0, 63, 100
1, 272695, Control_c, 0, 64, 127
1, 272715, Note_on_c, 0, 61, 38
1, 272715, Note_off_c, 0, 61, 127
1, 272732, Note_off_c, 0, 57, 63
1, 272736, Note_off_c, 0, 63, 64
1, 272737, Note_off_c, 0, 54, 57
1, 272745, Poly_aftertouch_c, 0, 61, 0
1, 272801, Note_on_c, 0, 59, 69
1, 272807, Note_on_c, 0, 71, 62
1, 272808, Note_on_c, 0, 69, 64
1, 272810, Note_on_c, 0, 66, 67
1, 272841, Note_off_c, 0, 59, 57
1, 272844, Note_off_c, 0, 71, 59
1, 272848, Note_off_c, 0, 66, 61
1, 272849, Note_off_c, 0, 69, 55
1, 272884, Note_on_c, 0, 60, 76
1, 272891, Note_on_c, 0, 51, 69
1, 272898, Note_on_c, 0, 54, 57
1, 272913, Note_off_c, 0, 60, 64
1, 272921, Note_off_c, 0, 51, 64
1, 272935, Note_off_c, 0, 54, 62
1, 272947, Note_on_c, 0, 71, 77
1, 272953, Note_on_c, 0, 59, 73
1, 272953, Note_on_c, 0, 69, 71
1, 272956, Note_on_c, 0, 66, 72
1, 273008, Note_off_c, 0, 59, 63
1, 273011, Note_off_c, 0, 71, 58
1, 273015, Note_on_c, 0, 58, 86
1, 273016, Note_off_c, 0, 66, 63
1, 273016, Note_on_c, 0, 51, 66
1, 273016, Note_on_c, 0, 54, 72
1, 273017, Note_off_c, 0, 69, 59
1, 273055, Note_off_c, 0, 51, 60
1, 273070, Note_off_c, 0, 58, 63
1, 273071, Note_off_c, 0, 54, 59
1, 273088, Note_on_c, 0, 59, 83
1, 273090, Note_on_c, 0, 71, 77
1, 273095, Note_on_c, 0, 66, 78
1, 273103, Note_on_c, 0, 69, 64
1, 273132, Note_off_c, 0, 59, 62
1, 273132, Note_off_c, 0, 69, 62
1, 273148, Note_off_c, 0, 66, 65
1, 273149, Note_on_c, 0, 51, 95
1, 273150, Note_on_c, 0, 60, 100
1, 273151, Note_off_c, 0, 71, 58
1, 273188, Note_on_c, 0, 54, 35
1, 273202, Note_off_c, 0, 60, 65
1, 273216, Note_off_c, 0, 51, 59
1, 273216, Note_off_c, 0, 54, 60
1, 273232, Note_on_c, 0, 74, 97
1, 273234, Note_on_c, 0, 62, 88
1, 273240, Note_on_c, 0, 66, 88
1, 273278, Note_off_c, 0, 74, 66
1, 273291, Note_off_c, 0, 62, 0
1, 273294, Note_on_c, 0, 60, 81
1, 273296, Note_on_c, 0, 51, 82
1, 273299, Note_off_c, 0, 66, 62
1, 273305, Note_on_c, 0, 62, 68
1, 273326, Control_c, 0, 67, 42
1, 273328, Note_off_c, 0, 62, 69
1, 273340, Note_off_c, 0, 60, 61
1, 273341, Control_c, 0, 67, 75
1, 273350, Note_off_c, 0, 51, 58
1, 273355, Control_c, 0, 67, 120
1, 273365, Note_on_c, 0, 71, 85
1, 273369, Note_on_c, 0, 59, 87
1, 273370, Control_c, 0, 67, 127
1, 273377, Note_on_c, 0, 66, 80
1, 273423, Note_off_c, 0, 59, 64
1, 273427, Note_off_c, 0, 71, 58
1, 273430, Note_off_c, 0, 66, 55
1, 273435, Note_on_c, 0, 51, 85
1, 273435, Note_on_c, 0, 60, 82
1, 273469, Note_off_c, 0, 60, 51
1, 273494, Note_off_c, 0, 51, 57
1, 273505, Note_on_c, 0, 71, 76
1, 273508, Note_on_c, 0, 59, 77
1, 273520, Note_on_c, 0, 66, 70
1, 273548, Control_c, 0, 64, 81
1, 273562, Control_c, 0, 64, 45
1, 273571, Note_off_c, 0, 59, 59
1, 273577, Control_c, 0, 64, 0
1, 273597, Note_off_c, 0, 71, 55
1, 273604, Note_off_c, 0, 66, 56
1, 273609, Note_on_c, 0, 57, 71
1, 273666, Control_c, 0, 64, 50
1, 273681, Control_c, 0, 64, 61
1, 273687, Note_on_c, 0, 69, 66
1, 273696, Control_c, 0, 64, 66
1, 273702, Note_off_c, 0, 57, 60
1, 273711, Control_c, 0, 64, 69
1, 273725, Control_c, 0, 64, 72
1, 273725, Control_c, 0, 67, 120
1, 273740, Control_c, 0, 64, 76
1, 273740, Control_c, 0, 67, 67
1, 273755, Control_c, 0, 64, 81
1, 273755, Control_c, 0, 67, 0
1, 273756, Note_on_c, 0, 56, 63
1, 273770, Control_c, 0, 64, 87
1, 273775, Note_on_c, 0, 57, 61
1, 273785, Control_c, 0, 64, 97
1, 273800, Control_c, 0, 64, 109
1, 273801, Note_off_c, 0, 69, 0
1, 273815, Control_c, 0, 64, 127
1, 273817, Note_on_c, 0, 69, 48
1, 273830, Note_on_c, 0, 68, 69
1, 273840, Note_off_c, 0, 57, 58
1, 273853, Note_off_c, 0, 56, 58
1, 273892, Note_off_c, 0, 69, 61
1, 273895, Note_off_c, 0, 68, 58
1, 273903, Note_on_c, 0, 55, 80
1, 273907, Note_on_c, 0, 57, 69
1, 273977, Note_on_c, 0, 69, 74
1, 273978, Note_on_c, 0, 67, 78
1, 273985, Note_off_c, 0, 57, 62
1, 273991, Note_off_c, 0, 55, 61
1, 274041, Note_off_c, 0, 67, 60
1, 274044, Note_on_c, 0, 54, 91
1, 274049, Note_on_c, 0, 57, 80
1, 274050, Note_off_c, 0, 69, 59
1, 274107, Note_on_c, 0, 69, 79
1, 274110, Note_on_c, 0, 66, 89
1, 274113, Note_off_c, 0, 54, 65
1, 274122, Note_off_c, 0, 57, 63
1, 274176, Note_off_c, 0, 69, 61
1, 274176, Note_on_c, 0, 53, 97
1, 274178, Note_off_c, 0, 66, 62
1, 274179, Note_on_c, 0, 57, 82
1, 274232, Note_off_c, 0, 57, 64
1, 274235, Note_on_c, 0, 65, 90
1, 274238, Note_on_c, 0, 69, 90
1, 274247, Note_off_c, 0, 53, 64
1, 274293, Note_off_c, 0, 65, 64
1, 274299, Note_on_c, 0, 52, 96
1, 274303, Note_off_c, 0, 69, 59
1, 274309, Note_on_c, 0, 57, 87
1, 274364, Note_on_c, 0, 64, 96
1, 274367, Note_on_c, 0, 69, 91
1, 274370, Note_off_c, 0, 57, 59
1, 274372, Note_off_c, 0, 52, 61
1, 274433, Note_on_c, 0, 57, 97
1, 274435, Note_on_c, 0, 51, 88
1, 274436, Note_on_c, 0, 54, 90
1, 274462, Note_off_c, 0, 69, 61
1, 274471, Note_off_c, 0, 64, 60
1, 274474, Control_c, 0, 64, 85
1, 274489, Control_c, 0, 64, 49
1, 274503, Control_c, 0, 64, 0
1, 274512, Note_on_c, 0, 63, 85
1, 274512, Note_on_c, 0, 66, 86
1, 274521, Note_on_c, 0, 69, 66
1, 274533, Control_c, 0, 64, 33
1, 274539, Note_off_c, 0, 57, 61
1, 274548, Control_c, 0, 64, 55
1, 274562, Note_off_c, 0, 51, 57
1, 274563, Control_c, 0, 64, 72
1, 274564, Note_off_c, 0, 54, 60
1, 274577, Control_c, 0, 64, 94
1, 274590, Note_on_c, 0, 52, 78
1, 274592, Control_c, 0, 64, 127
1, 274593, Note_off_c, 0, 63, 59
1, 274596, Note_off_c, 0, 66, 60
1, 274597, Note_on_c, 0, 57, 74
1, 274604, Note_off_c, 0, 69, 59
1, 274622, Note_on_c, 0, 50, 26
1, 274622, Note_off_c, 0, 50, 127
1, 274648, Note_on_c, 0, 69, 63
1, 274652, Note_on_c, 0, 64, 79
1, 274664, Note_on_c, 0, 66, 61
1, 274679, Note_off_c, 0, 52, 61
1, 274682, Note_off_c, 0, 57, 55
1, 274718, Control_c, 0, 64, 77
1, 274734, Control_c, 0, 64, 64
1, 274739, Note_on_c, 0, 57, 60
1, 274740, Note_off_c, 0, 64, 62
1, 274742, Note_on_c, 0, 54, 73
1, 274743, Note_on_c, 0, 51, 77
1, 274748, Control_c, 0, 64, 63
1, 274760, Note_off_c, 0, 66, 61
1, 274763, Control_c, 0, 64, 67
1, 274778, Control_c, 0, 64, 81
1, 274782, Note_off_c, 0, 69, 0
1, 274793, Control_c, 0, 64, 127
1, 274796, Note_on_c, 0, 69, 52
1, 274799, Note_on_c, 0, 66, 48
1, 274806, Note_on_c, 0, 63, 78
1, 274846, Note_off_c, 0, 51, 57
1, 274849, Note_off_c, 0, 57, 56
1, 274862, Note_off_c, 0, 54, 57
1, 274865, Note_on_c, 0, 50, 80
1, 274867, Note_off_c, 0, 63, 60
1, 274867, Note_off_c, 0, 66, 62
1, 274873, Note_off_c, 0, 69, 57
1, 274889, Note_on_c, 0, 57, 44
1, 274912, Control_c, 0, 64, 65
1, 274921, Note_on_c, 0, 69, 50
1, 274927, Control_c, 0, 64, 0
1, 274930, Note_on_c, 0, 62, 70
1, 274950, Note_off_c, 0, 57, 56
1, 274956, Control_c, 0, 64, 33
1, 274962, Note_off_c, 0, 50, 61
1, 274971, Control_c, 0, 64, 59
1, 274986, Control_c, 0, 64, 74
1, 275000, Control_c, 0, 64, 102
1, 275004, Note_off_c, 0, 62, 62
1, 275009, Note_on_c, 0, 49, 73
1, 275013, Note_on_c, 0, 57, 61
1, 275015, Control_c, 0, 64, 127
1, 275019, Note_off_c, 0, 69, 53
1, 275026, Note_on_c, 0, 54, 58
1, 275061, Control_c, 0, 64, 104
1, 275064, Note_on_c, 0, 61, 70
1, 275068, Note_on_c, 0, 69, 39
1, 275075, Control_c, 0, 64, 65
1, 275090, Control_c, 0, 64, 0
1, 275092, Note_off_c, 0, 57, 57
1, 275103, Note_off_c, 0, 54, 53
1, 275105, Note_off_c, 0, 49, 57
1, 275120, Control_c, 0, 64, 44
1, 275123, Note_off_c, 0, 61, 63
1, 275133, Note_on_c, 0, 48, 76
1, 275135, Control_c, 0, 64, 67
1, 275135, Note_off_c, 0, 69, 57
1, 275149, Control_c, 0, 64, 92
1, 275156, Note_on_c, 0, 57, 48
1, 275164, Control_c, 0, 64, 127
1, 275186, Poly_aftertouch_c, 0, 66, 0
1, 275191, Note_on_c, 0, 69, 52
1, 275196, Note_on_c, 0, 60, 64
1, 275207, Note_off_c, 0, 57, 63
1, 275216, Note_off_c, 0, 48, 62
1, 275222, Poly_aftertouch_c, 0, 66, 127
1, 275238, Control_c, 0, 64, 108
1, 275253, Control_c, 0, 64, 64
1, 275268, Note_off_c, 0, 69, 60
1, 275268, Control_c, 0, 64, 0
1, 275274, Note_off_c, 0, 60, 62
1, 275285, Poly_aftertouch_c, 0, 66, 0
1, 275290, Note_on_c, 0, 47, 70
1, 275290, Note_on_c, 0, 51, 62
1, 275293, Note_on_c, 0, 57, 65
1, 275299, Note_on_c, 0, 54, 60
1, 275312, Control_c, 0, 64, 57
1, 275326, Control_c, 0, 64, 82
1, 275341, Control_c, 0, 64, 127
1, 275367, Note_on_c, 0, 59, 75
1, 275370, Note_off_c, 0, 57, 61
1, 275374, Note_on_c, 0, 69, 66
1, 275376, Note_off_c, 0, 54, 61
1, 275379, Note_off_c, 0, 47, 61
1, 275380, Note_on_c, 0, 63, 61
1, 275384, Note_off_c, 0, 51, 61
1, 275386, Note_on_c, 0, 66, 57
1, 275425, Note_off_c, 0, 63, 56
1, 275430, Note_off_c, 0, 59, 62
1, 275430, Note_off_c, 0, 66, 58
1, 275435, Note_off_c, 0, 69, 56
1, 275436, Note_on_c, 0, 47, 70
1, 275441, Note_on_c, 0, 57, 72
1, 275451, Note_on_c, 0, 51, 63
1, 275451, Note_on_c, 0, 54, 64
1, 275514, Note_off_c, 0, 57, 63
1, 275516, Note_off_c, 0, 54, 61
1, 275519, Note_off_c, 0, 51, 62
1, 275520, Note_on_c, 0, 69, 68
1, 275521, Note_on_c, 0, 59, 81
1, 275524, Note_off_c, 0, 47, 62
1, 275528, Note_on_c, 0, 66, 76
1, 275529, Note_on_c, 0, 63, 75
1, 275581, Note_on_c, 0, 57, 88
1, 275581, Note_off_c, 0, 59, 63
1, 275584, Note_on_c, 0, 54, 73
1, 275587, Note_on_c, 0, 47, 75
1, 275587, Note_on_c, 0, 51, 75
1, 275587, Note_off_c, 0, 63, 58
1, 275589, Note_off_c, 0, 66, 63
1, 275593, Note_off_c, 0, 69, 60
1, 275647, Note_off_c, 0, 57, 62
1, 275650, Note_off_c, 0, 54, 61
1, 275651, Note_off_c, 0, 51, 61
1, 275656, Note_on_c, 0, 69, 80
1, 275657, Note_off_c, 0, 47, 60
1, 275657, Note_on_c, 0, 59, 93
1, 275663, Note_on_c, 0, 66, 78
1, 275664, Note_on_c, 0, 63, 77
1, 275707, Poly_aftertouch_c, 0, 48, 0
1, 275716, Note_on_c, 0, 57, 94
1, 275720, Note_on_c, 0, 54, 85
1, 275721, Note_on_c, 0, 51, 87
1, 275722, Note_off_c, 0, 59, 59
1, 275727, Note_on_c, 0, 47, 78
1, 275729, Note_off_c, 0, 69, 57
1, 275732, Note_off_c, 0, 66, 57
1, 275735, Note_off_c, 0, 63, 58
1, 275779, Note_off_c, 0, 57, 61
1, 275789, Note_off_c, 0, 54, 62
1, 275795, Note_on_c, 0, 69, 84
1, 275796, Note_on_c, 0, 59, 94
1, 275796, Note_off_c, 0, 51, 62
1, 275800, Note_on_c, 0, 66, 82
1, 275801, Note_on_c, 0, 63, 77
1, 275801, Note_off_c, 0, 47, 63
1, 275854, Note_on_c, 0, 57, 98
1, 275856, Note_on_c, 0, 51, 81
1, 275857, Note_on_c, 0, 47, 78
1, 275857, Note_off_c, 0, 59, 58
1, 275861, Note_on_c, 0, 54, 82
1, 275869, Note_off_c, 0, 69, 59
1, 275875, Note_off_c, 0, 63, 61
1, 275876, Note_off_c, 0, 66, 62
1, 275916, Note_off_c, 0, 57, 57
1, 275926, Note_off_c, 0, 54, 61
1, 275931, Note_off_c, 0, 47, 61
1, 275933, Note_off_c, 0, 51, 61
1, 275934, Note_on_c, 0, 59, 99
1, 275935, Note_on_c, 0, 66, 81
1, 275935, Note_on_c, 0, 69, 82
1, 275941, Note_on_c, 0, 63, 75
1, 276000, Note_off_c, 0, 59, 61
1, 276005, Note_off_c, 0, 69, 60
1, 276010, Note_on_c, 0, 57, 96
1, 276012, Note_off_c, 0, 63, 61
1, 276013, Note_on_c, 0, 47, 93
1, 276015, Note_off_c, 0, 66, 62
1, 276017, Note_on_c, 0, 51, 89
1, 276018, Note_on_c, 0, 54, 84
1, 276054, Note_off_c, 0, 57, 61
1, 276061, Note_off_c, 0, 47, 64
1, 276081, Note_on_c, 0, 59, 100
1, 276083, Note_on_c, 0, 69, 91
1, 276085, Note_off_c, 0, 51, 60
1, 276086, Note_off_c, 0, 54, 56
1, 276088, Note_on_c, 0, 66, 81
1, 276092, Note_on_c, 0, 63, 80
1, 276143, Note_off_c, 0, 59, 64
1, 276143, Note_off_c, 0, 69, 57
1, 276164, Note_off_c, 0, 66, 62
1, 276166, Note_off_c, 0, 63, 60
1, 276176, Note_on_c, 0, 58, 103
1, 276181, Note_on_c, 0, 51, 85
1, 276183, Note_on_c, 0, 48, 81
1, 276185, Note_on_c, 0, 54, 77
1, 276188, Note_on_c, 0, 47, 77
1, 276202, Control_c, 0, 64, 122
1, 276217, Control_c, 0, 64, 64
1, 276229, Note_off_c, 0, 58, 66
1, 276231, Control_c, 0, 64, 0
1, 276242, Note_off_c, 0, 54, 63
1, 276247, Note_off_c, 0, 47, 41
1, 276250, Note_on_c, 0, 60, 98
1, 276252, Note_off_c, 0, 51, 63
1, 276262, Note_off_c, 0, 48, 63
1, 276291, Control_c, 0, 64, 39
1, 276296, Note_on_c, 0, 70, 30
1, 276305, Control_c, 0, 64, 61
1, 276320, Control_c, 0, 64, 69
1, 276336, Control_c, 0, 64, 77
1, 276341, Note_off_c, 0, 70, 0
1, 276341, Note_on_c, 0, 70, 56
1, 276347, Note_on_c, 0, 63, 81
1, 276348, Note_off_c, 0, 60, 60
1, 276349, Note_on_c, 0, 66, 80
1, 276351, Control_c, 0, 64, 92
1, 276366, Control_c, 0, 64, 127
1, 276371, Note_off_c, 0, 63, 69
1, 276378, Note_off_c, 0, 66, 66
1, 276394, Note_off_c, 0, 70, 65
1, 276425, Control_c, 0, 64, 93
1, 276440, Control_c, 0, 64, 58
1, 276449, Note_on_c, 0, 44, 99
1, 276454, Control_c, 0, 64, 0
1, 276458, Note_on_c, 0, 32, 82
1, 276462, Note_on_c, 0, 34, 79
1, 276462, Note_on_c, 0, 82, 102
1, 276465, Note_on_c, 0, 72, 102
1, 276469, Control_c, 0, 64, 37
1, 276474, Note_off_c, 0, 44, 67
1, 276474, Note_on_c, 0, 75, 83
1, 276478, Note_on_c, 0, 45, 68
1, 276484, Control_c, 0, 64, 65
1, 276486, Note_off_c, 0, 34, 66
1, 276490, Note_off_c, 0, 32, 63
1, 276499, Control_c, 0, 64, 127
1, 276504, Note_off_c, 0, 45, 59
1, 276527, Note_off_c, 0, 72, 60
1, 276540, Note_off_c, 0, 82, 62
1, 276566, Note_off_c, 0, 75, 66
1, 276654, Note_on_c, 0, 69, 91
1, 276664, Note_on_c, 0, 65, 76
1, 276665, Note_on_c, 0, 64, 73
1, 276677, Control_c, 0, 64, 91
1, 276677, Note_off_c, 0, 69, 65
1, 276685, Note_off_c, 0, 65, 71
1, 276689, Note_off_c, 0, 64, 68
1, 276691, Control_c, 0, 64, 58
1, 276706, Control_c, 0, 64, 0
1, 276717, Note_on_c, 0, 70, 97
1, 276726, Note_on_c, 0, 66, 88
1, 276748, Note_off_c, 0, 66, 69
1, 276764, Note_off_c, 0, 70, 65
1, 276801, Note_on_c, 0, 65, 77
1, 276803, Note_on_c, 0, 62, 89
1, 276849, Note_off_c, 0, 65, 0
1, 276861, Note_on_c, 0, 66, 88
1, 276861, Note_off_c, 0, 62, 66
1, 276864, Note_on_c, 0, 63, 86
1, 276865, Poly_aftertouch_c, 0, 65, 0
1, 276897, Note_off_c, 0, 63, 63
1, 276897, Note_off_c, 0, 66, 65
1, 276934, Note_on_c, 0, 65, 83
1, 276941, Note_on_c, 0, 69, 87
1, 277010, Control_c, 0, 64, 52
1, 277013, Note_on_c, 0, 66, 92
1, 277025, Note_on_c, 0, 70, 84
1, 277025, Control_c, 0, 64, 65
1, 277027, Note_off_c, 0, 65, 64
1, 277040, Control_c, 0, 64, 71
1, 277047, Note_off_c, 0, 69, 61
1, 277054, Control_c, 0, 64, 79
1, 277069, Control_c, 0, 64, 85
1, 277080, Note_off_c, 0, 66, 63
1, 277084, Control_c, 0, 64, 97
1, 277098, Note_off_c, 0, 70, 66
1, 277098, Control_c, 0, 64, 127
1, 277100, Note_on_c, 0, 73, 86
1, 277171, Note_on_c, 0, 68, 83
1, 277171, Note_on_c, 0, 72, 81
1, 277195, Note_off_c, 0, 73, 63
1, 277215, Note_off_c, 0, 68, 62
1, 277217, Note_off_c, 0, 72, 62
1, 277224, Note_on_c, 0, 70, 28
1, 277237, Note_on_c, 0, 56, 99
1, 277240, Note_on_c, 0, 49, 86
1, 277242, Note_on_c, 0, 53, 79
1, 277250, Note_off_c, 0, 70, 56
1, 277263, Control_c, 0, 64, 76
1, 277273, Note_off_c, 0, 53, 66
1, 277273, Note_off_c, 0, 56, 65
1, 277277, Control_c, 0, 64, 45
1, 277289, Note_off_c, 0, 49, 64
1, 277292, Control_c, 0, 64, 0
1, 277320, Note_on_c, 0, 68, 86
1, 277321, Note_on_c, 0, 61, 95
1, 277323, Note_on_c, 0, 65, 81
1, 277360, Note_off_c, 0, 61, 61
1, 277363, Note_off_c, 0, 65, 64
1, 277390, Note_off_c, 0, 68, 62
1, 277404, Note_on_c, 0, 44, 103
1, 277409, Note_on_c, 0, 32, 93
1, 277431, Note_on_c, 0, 34, 56
1, 277440, Note_off_c, 0, 32, 65
1, 277451, Note_off_c, 0, 44, 63
1, 277455, Control_c, 0, 64, 44
1, 277467, Note_off_c, 0, 34, 56
1, 277469, Control_c, 0, 64, 127
1, 277493, Note_on_c, 0, 80, 101
1, 277494, Note_on_c, 0, 68, 105
1, 277494, Note_on_c, 0, 73, 91
1, 277546, Note_off_c, 0, 80, 64
1, 277547, Note_off_c, 0, 68, 57
1, 277547, Note_off_c, 0, 73, 60
1, 277617, Note_on_c, 0, 65, 71
1, 277621, Note_on_c, 0, 61, 67
1, 277631, Note_on_c, 0, 64, 60
1, 277653, Note_off_c, 0, 64, 59
1, 277681, Note_on_c, 0, 66, 102
1, 277686, Note_on_c, 0, 63, 85
1, 277700, Note_off_c, 0, 65, 64
1, 277702, Note_off_c, 0, 61, 57
1, 277714, Control_c, 0, 64, 82
1, 277720, Note_off_c, 0, 66, 65
1, 277729, Control_c, 0, 64, 50
1, 277732, Note_off_c, 0, 63, 62
1, 277744, Control_c, 0, 64, 0
1, 277759, Note_on_c, 0, 65, 83
1, 277762, Note_on_c, 0, 68, 87
1, 277824, Note_on_c, 0, 70, 82
1, 277824, Note_on_c, 0, 66, 85
1, 277829, Note_off_c, 0, 65, 65
1, 277835, Note_off_c, 0, 68, 61
1, 277907, Note_on_c, 0, 65, 90
1, 277908, Note_off_c, 0, 66, 42
1, 277910, Note_on_c, 0, 68, 88
1, 277937, Note_off_c, 0, 70, 56
1, 277947, Note_off_c, 0, 65, 63
1, 277974, Note_off_c, 0, 68, 63
1, 277982, Note_on_c, 0, 61, 98
1, 277982, Note_on_c, 0, 65, 87
1, 277982, Control_c, 0, 64, 63
1, 277997, Control_c, 0, 64, 89
1, 278012, Control_c, 0, 64, 104
1, 278018, Note_off_c, 0, 65, 67
1, 278024, Note_off_c, 0, 61, 67
1, 278026, Control_c, 0, 64, 94
1, 278042, Control_c, 0, 64, 69
1, 278057, Control_c, 0, 64, 40
1, 278072, Control_c, 0, 64, 0
1, 278253, Note_on_c, 0, 70, 107
1, 278258, Note_on_c, 0, 66, 105
1, 278262, Note_on_c, 0, 61, 88
1, 278264, Control_c, 0, 64, 49
1, 278270, Note_on_c, 0, 58, 69
1, 278279, Control_c, 0, 64, 72
1, 278293, Control_c, 0, 64, 78
1, 278304, Note_off_c, 0, 66, 67
1, 278308, Control_c, 0, 64, 81
1, 278323, Control_c, 0, 64, 85
1, 278324, Note_off_c, 0, 70, 68
1, 278329, Note_off_c, 0, 61, 65
1, 278333, Note_on_c, 0, 54, 81
1, 278337, Note_on_c, 0, 78, 82
1, 278338, Note_on_c, 0, 82, 94
1, 278338, Control_c, 0, 64, 94
1, 278342, Note_off_c, 0, 58, 65
1, 278344, Note_on_c, 0, 73, 60
1, 278351, Note_off_c, 0, 54, 65
1, 278352, Control_c, 0, 64, 120
1, 278362, Note_off_c, 0, 73, 64
1, 278364, Note_on_c, 0, 53, 52
1, 278367, Note_off_c, 0, 78, 61
1, 278367, Control_c, 0, 64, 127
1, 278374, Note_off_c, 0, 82, 67
1, 278391, Note_off_c, 0, 53, 59
1, 278431, Note_on_c, 0, 82, 96
1, 278438, Note_on_c, 0, 44, 84
1, 278498, Note_off_c, 0, 44, 62
1, 278504, Note_on_c, 0, 94, 104
1, 278506, Note_on_c, 0, 32, 110
1, 278510, Note_on_c, 0, 90, 93
1, 278515, Note_on_c, 0, 85, 95
1, 278526, Note_on_c, 0, 92, 57
1, 278532, Note_off_c, 0, 32, 67
1, 278537, Note_off_c, 0, 82, 62
1, 278551, Note_off_c, 0, 92, 38
1, 278553, Note_off_c, 0, 94, 66
1, 278560, Note_off_c, 0, 90, 68
1, 278564, Note_off_c, 0, 85, 64
1, 278671, Control_c, 0, 64, 115
1, 278685, Note_on_c, 0, 69, 98
1, 278686, Control_c, 0, 64, 71
1, 278686, Note_on_c, 0, 72, 97
1, 278701, Control_c, 0, 64, 47
1, 278712, Note_off_c, 0, 72, 65
1, 278715, Control_c, 0, 64, 0
1, 278720, Note_off_c, 0, 69, 65
1, 278760, Note_on_c, 0, 70, 91
1, 278760, Note_on_c, 0, 82, 92
1, 278768, Note_on_c, 0, 73, 74
1, 278793, Note_off_c, 0, 73, 65
1, 278796, Note_off_c, 0, 82, 61
1, 278802, Note_off_c, 0, 70, 62
1, 278841, Note_on_c, 0, 65, 103
1, 278843, Note_on_c, 0, 69, 100
1, 278879, Note_off_c, 0, 69, 63
1, 278881, Note_off_c, 0, 65, 61
1, 278916, Note_on_c, 0, 66, 87
1, 278918, Note_on_c, 0, 78, 90
1, 278934, Note_off_c, 0, 66, 71
1, 278943, Note_off_c, 0, 78, 62
1, 278982, Note_on_c, 0, 72, 93
1, 278987, Note_on_c, 0, 69, 88
1, 279022, Note_off_c, 0, 72, 64
1, 279044, Note_off_c, 0, 69, 0
1, 279055, Poly_aftertouch_c, 0, 69, 0
1, 279063, Note_on_c, 0, 73, 93
1, 279064, Note_on_c, 0, 69, 52
1, 279064, Note_on_c, 0, 70, 74
1, 279064, Note_off_c, 0, 70, 127
1, 279078, Poly_aftertouch_c, 0, 67, 0
1, 279091, Note_off_c, 0, 73, 69
1, 279112, Note_off_c, 0, 69, 64
1, 279135, Note_on_c, 0, 73, 92
1, 279148, Note_on_c, 0, 85, 64
1, 279151, Note_on_c, 0, 82, 57
1, 279152, Note_on_c, 0, 80, 61
1, 279164, Note_off_c, 0, 85, 64
1, 279169, Note_off_c, 0, 80, 65
1, 279169, Note_off_c, 0, 73, 63
1, 279171, Note_off_c, 0, 82, 60
1, 279222, Note_on_c, 0, 84, 80
1, 279227, Note_on_c, 0, 72, 84
1, 279237, Note_on_c, 0, 86, 52
1, 279244, Note_off_c, 0, 72, 72
1, 279245, Note_on_c, 0, 74, 54
1, 279246, Note_on_c, 0, 85, 51
1, 279246, Note_off_c, 0, 84, 62
1, 279260, Note_off_c, 0, 86, 39
1, 279266, Note_off_c, 0, 74, 58
1, 279268, Note_off_c, 0, 85, 38
1, 279300, Control_c, 0, 64, 56
1, 279308, Note_on_c, 0, 65, 91
1, 279312, Note_on_c, 0, 68, 103
1, 279315, Note_on_c, 0, 56, 82
1, 279315, Control_c, 0, 64, 89
1, 279330, Control_c, 0, 64, 127
1, 279333, Note_on_c, 0, 60, 69
1, 279339, Note_on_c, 0, 80, 44
1, 279340, Note_on_c, 0, 61, 65
1, 279365, Note_off_c, 0, 80, 55
1, 279371, Note_off_c, 0, 65, 62
1, 279373, Note_off_c, 0, 61, 47
1, 279387, Note_off_c, 0, 68, 62
1, 279396, Note_on_c, 0, 53, 89
1, 279398, Note_on_c, 0, 73, 82
1, 279398, Note_off_c, 0, 60, 59
1, 279402, Note_on_c, 0, 77, 77
1, 279416, Note_off_c, 0, 73, 72
1, 279417, Note_off_c, 0, 56, 62
1, 279419, Note_off_c, 0, 53, 70
1, 279425, Note_on_c, 0, 80, 76
1, 279425, Note_off_c, 0, 77, 70
1, 279446, Note_off_c, 0, 80, 71
1, 279487, Note_on_c, 0, 80, 99
1, 279507, Note_on_c, 0, 44, 78
1, 279553, Note_on_c, 0, 32, 99
1, 279558, Note_on_c, 0, 92, 109
1, 279559, Note_on_c, 0, 85, 101
1, 279580, Note_off_c, 0, 32, 69
1, 279583, Note_off_c, 0, 80, 68
1, 279586, Note_on_c, 0, 90, 47
1, 279586, Note_off_c, 0, 90, 127
1, 279597, Note_off_c, 0, 44, 62
1, 279598, Note_off_c, 0, 85, 70
1, 279604, Note_on_c, 0, 93, 33
1, 279604, Note_off_c, 0, 92, 67
1, 279646, Note_off_c, 0, 93, 31
1, 279654, Poly_aftertouch_c, 0, 34, 127
1, 279672, Control_c, 0, 64, 97
1, 279687, Control_c, 0, 64, 66
1, 279689, Poly_aftertouch_c, 0, 34, 0
1, 279693, Note_on_c, 0, 61, 95
1, 279696, Note_on_c, 0, 65, 87
1, 279702, Control_c, 0, 64, 0
1, 279718, Note_off_c, 0, 65, 67
1, 279733, Note_off_c, 0, 61, 61
1, 279759, Note_on_c, 0, 66, 95
1, 279763, Note_on_c, 0, 78, 90
1, 279766, Note_on_c, 0, 70, 81
1, 279786, Note_off_c, 0, 66, 68
1, 279786, Note_off_c, 0, 70, 72
1, 279809, Note_off_c, 0, 78, 57
1, 279850, Note_on_c, 0, 68, 97
1, 279854, Note_on_c, 0, 65, 91
1, 279886, Note_off_c, 0, 68, 60
1, 279887, Note_off_c, 0, 65, 65
1, 279944, Note_on_c, 0, 70, 80
1, 279944, Note_on_c, 0, 78, 81
1, 279964, Note_off_c, 0, 70, 70
1, 279964, Note_off_c, 0, 78, 68
1, 280018, Note_on_c, 0, 68, 81
1, 280020, Note_on_c, 0, 77, 77
1, 280036, Note_on_c, 0, 80, 52
1, 280048, Note_on_c, 0, 81, 52
1, 280069, Note_off_c, 0, 81, 59
1, 280069, Note_off_c, 0, 80, 59
1, 280074, Note_off_c, 0, 77, 63
1, 280075, Note_off_c, 0, 68, 61
1, 280109, Control_c, 0, 64, 62
1, 280119, Note_on_c, 0, 61, 92
1, 280119, Note_on_c, 0, 65, 93
1, 280123, Control_c, 0, 64, 127
1, 280176, Note_off_c, 0, 65, 61
1, 280188, Note_off_c, 0, 61, 61
1, 280317, Control_c, 0, 64, 83
1, 280332, Control_c, 0, 64, 60
1, 280346, Control_c, 0, 64, 0
1, 280412, Note_on_c, 0, 63, 87
1, 280415, Note_on_c, 0, 54, 69
1, 280415, Note_on_c, 0, 58, 74
1, 280435, Control_c, 0, 64, 29
1, 280450, Control_c, 0, 64, 36
1, 280465, Control_c, 0, 64, 48
1, 280476, Note_on_c, 0, 66, 86
1, 280476, Note_on_c, 0, 70, 84
1, 280479, Note_on_c, 0, 75, 78
1, 280479, Note_on_c, 0, 78, 79
1, 280480, Control_c, 0, 64, 61
1, 280492, Note_off_c, 0, 63, 62
1, 280495, Control_c, 0, 64, 70
1, 280496, Note_off_c, 0, 66, 72
1, 280500, Note_off_c, 0, 75, 71
1, 280501, Note_off_c, 0, 78, 65
1, 280506, Note_off_c, 0, 70, 62
1, 280510, Control_c, 0, 64, 86
1, 280525, Note_on_c, 0, 49, 73
1, 280525, Control_c, 0, 64, 127
1, 280537, Note_off_c, 0, 54, 49
1, 280552, Note_on_c, 0, 68, 92
1, 280554, Note_on_c, 0, 80, 99
1, 280572, Note_off_c, 0, 58, 59
1, 280596, Note_off_c, 0, 49, 61
1, 280620, Note_off_c, 0, 68, 61
1, 280638, Note_on_c, 0, 63, 88
1, 280642, Note_off_c, 0, 80, 59
1, 280648, Note_on_c, 0, 54, 76
1, 280650, Note_on_c, 0, 58, 73
1, 280662, Note_off_c, 0, 63, 69
1, 280698, Note_off_c, 0, 58, 64
1, 280707, Note_off_c, 0, 54, 61
1, 280729, Note_on_c, 0, 75, 92
1, 280731, Note_on_c, 0, 78, 84
1, 280734, Note_on_c, 0, 69, 90
1, 280736, Note_on_c, 0, 81, 74
1, 280757, Note_off_c, 0, 69, 65
1, 280757, Note_off_c, 0, 81, 70
1, 280773, Note_off_c, 0, 75, 65
1, 280776, Note_off_c, 0, 78, 60
1, 280788, Note_on_c, 0, 37, 77
1, 280810, Note_on_c, 0, 70, 93
1, 280814, Note_on_c, 0, 82, 97
1, 280823, Note_off_c, 0, 37, 65
1, 280844, Note_on_c, 0, 80, 44
1, 280859, Note_off_c, 0, 70, 66
1, 280868, Note_off_c, 0, 80, 59
1, 280888, Control_c, 0, 64, 108
1, 280889, Note_off_c, 0, 82, 62
1, 280902, Control_c, 0, 64, 70
1, 280917, Control_c, 0, 64, 40
1, 280932, Control_c, 0, 64, 0
1, 280943, Note_on_c, 0, 66, 93
1, 280946, Control_c, 0, 64, 32
1, 280947, Note_on_c, 0, 60, 71
1, 280948, Note_on_c, 0, 56, 75
1, 280961, Control_c, 0, 64, 55
1, 280976, Control_c, 0, 64, 71
1, 280987, Note_on_c, 0, 61, 31
1, 280987, Note_off_c, 0, 61, 127
1, 280991, Control_c, 0, 64, 103
1, 280994, Note_on_c, 0, 75, 101
1, 280996, Note_on_c, 0, 78, 93
1, 280997, Note_on_c, 0, 87, 97
1, 281006, Control_c, 0, 64, 127
1, 281007, Note_off_c, 0, 66, 60
1, 281018, Note_on_c, 0, 85, 54
1, 281040, Note_off_c, 0, 85, 59
1, 281050, Note_on_c, 0, 64, 12
1, 281055, Note_off_c, 0, 78, 54
1, 281056, Note_off_c, 0, 75, 58
1, 281060, Note_off_c, 0, 87, 63
1, 281094, Note_off_c, 0, 64, 54
1, 281098, Note_on_c, 0, 49, 68
1, 281116, Note_on_c, 0, 86, 83
1, 281121, Note_on_c, 0, 74, 87
1, 281126, Note_off_c, 0, 56, 49
1, 281140, Note_off_c, 0, 74, 71
1, 281151, Note_off_c, 0, 49, 58
1, 281158, Note_off_c, 0, 86, 65
1, 281213, Note_on_c, 0, 85, 77
1, 281215, Note_on_c, 0, 73, 90
1, 281231, Note_off_c, 0, 60, 0
1, 281236, Note_on_c, 0, 66, 76
1, 281239, Note_off_c, 0, 85, 59
1, 281240, Note_on_c, 0, 78, 47
1, 281240, Note_off_c, 0, 78, 127
1, 281243, Note_on_c, 0, 56, 69
1, 281256, Note_off_c, 0, 73, 62
1, 281262, Note_off_c, 0, 66, 67
1, 281268, Poly_aftertouch_c, 0, 60, 127
1, 281293, Note_off_c, 0, 56, 61
1, 281296, Note_on_c, 0, 84, 92
1, 281302, Note_on_c, 0, 72, 87
1, 281315, Poly_aftertouch_c, 0, 60, 0
1, 281330, Note_off_c, 0, 72, 62
1, 281339, Note_off_c, 0, 84, 67
1, 281383, Note_on_c, 0, 37, 68
1, 281386, Note_on_c, 0, 71, 81
1, 281386, Note_on_c, 0, 83, 68
1, 281388, Note_on_c, 0, 84, 72
1, 281406, Note_off_c, 0, 71, 71
1, 281408, Note_off_c, 0, 84, 71
1, 281410, Note_off_c, 0, 83, 69
1, 281414, Note_off_c, 0, 37, 64
1, 281475, Note_on_c, 0, 82, 84
1, 281476, Note_on_c, 0, 70, 88
1, 281498, Note_off_c, 0, 82, 59
1, 281519, Note_off_c, 0, 70, 64
1, 281535, Note_on_c, 0, 65, 70
1, 281535, Note_on_c, 0, 56, 65
1, 281547, Note_on_c, 0, 81, 89
1, 281547, Note_on_c, 0, 69, 87
1, 281548, Control_c, 0, 64, 75
1, 281550, Note_on_c, 0, 64, 60
1, 281563, Control_c, 0, 64, 46
1, 281568, Note_off_c, 0, 69, 67
1, 281573, Note_off_c, 0, 65, 58
1, 281577, Control_c, 0, 64, 0
1, 281579, Note_off_c, 0, 64, 54
1, 281584, Note_on_c, 0, 60, 6
1, 281591, Note_off_c, 0, 56, 39
1, 281594, Note_off_c, 0, 81, 62
1, 281622, Control_c, 0, 64, 38
1, 281624, Note_on_c, 0, 68, 92
1, 281624, Note_off_c, 0, 60, 38
1, 281628, Note_on_c, 0, 49, 72
1, 281637, Control_c, 0, 64, 56
1, 281638, Note_on_c, 0, 80, 69
1, 281639, Note_on_c, 0, 82, 79
1, 281652, Control_c, 0, 64, 68
1, 281653, Note_off_c, 0, 80, 67
1, 281654, Note_off_c, 0, 68, 64
1, 281658, Note_off_c, 0, 82, 72
1, 281660, Note_off_c, 0, 49, 68
1, 281667, Control_c, 0, 64, 79
1, 281681, Control_c, 0, 64, 106
1, 281696, Control_c, 0, 64, 127
1, 281708, Note_on_c, 0, 73, 98
1, 281708, Note_on_c, 0, 85, 102
1, 281716, Note_on_c, 0, 78, 87
1, 281729, Note_on_c, 0, 87, 55
1, 281732, Note_on_c, 0, 86, 69
1, 281736, Poly_aftertouch_c, 0, 51, 0
1, 281755, Note_on_c, 0, 75, 24
1, 281756, Note_off_c, 0, 86, 60
1, 281763, Note_off_c, 0, 87, 66
1, 281791, Note_off_c, 0, 73, 58
1, 281792, Note_off_c, 0, 75, 41
1, 281793, Note_on_c, 0, 66, 96
1, 281798, Note_off_c, 0, 85, 60
1, 281800, Note_on_c, 0, 63, 86
1, 281802, Note_on_c, 0, 57, 81
1, 281805, Note_off_c, 0, 78, 56
1, 281830, Note_off_c, 0, 66, 69
1, 281837, Note_off_c, 0, 63, 61
1, 281854, Note_off_c, 0, 57, 66
1, 281870, Note_on_c, 0, 84, 89
1, 281871, Note_on_c, 0, 72, 86
1, 281912, Note_off_c, 0, 72, 64
1, 281917, Note_off_c, 0, 84, 64
1, 281961, Note_on_c, 0, 37, 80
1, 281962, Note_on_c, 0, 71, 87
1, 281965, Note_on_c, 0, 83, 80
1, 281968, Note_on_c, 0, 84, 76
1, 281989, Note_on_c, 0, 82, 44
1, 281989, Note_off_c, 0, 37, 65
1, 281996, Note_off_c, 0, 71, 58
1, 282009, Note_off_c, 0, 83, 61
1, 282011, Note_off_c, 0, 84, 62
1, 282016, Note_off_c, 0, 82, 56
1, 282053, Control_c, 0, 64, 80
1, 282067, Control_c, 0, 64, 55
1, 282073, Note_on_c, 0, 82, 96
1, 282080, Note_on_c, 0, 70, 93
1, 282082, Control_c, 0, 64, 41
1, 282088, Note_on_c, 0, 80, 70
1, 282096, Note_on_c, 0, 65, 77
1, 282097, Control_c, 0, 64, 47
1, 282100, Note_off_c, 0, 70, 68
1, 282101, Note_on_c, 0, 58, 78
1, 282103, Note_off_c, 0, 80, 68
1, 282107, Note_on_c, 0, 61, 65
1, 282111, Control_c, 0, 64, 59
1, 282116, Note_off_c, 0, 82, 62
1, 282119, Note_off_c, 0, 65, 64
1, 282126, Control_c, 0, 64, 70
1, 282141, Control_c, 0, 64, 88
1, 282149, Note_off_c, 0, 61, 57
1, 282156, Control_c, 0, 64, 127
1, 282158, Note_on_c, 0, 68, 89
1, 282159, Note_off_c, 0, 58, 59
1, 282165, Note_on_c, 0, 80, 75
1, 282192, Note_off_c, 0, 80, 73
1, 282200, Note_off_c, 0, 68, 59
1, 282203, Note_on_c, 0, 78, 25
1, 282206, Note_on_c, 0, 49, 80
1, 282222, Note_on_c, 0, 82, 94
1, 282223, Note_on_c, 0, 70, 85
1, 282223, Poly_aftertouch_c, 0, 64, 0
1, 282242, Note_on_c, 0, 83, 72
1, 282247, Note_off_c, 0, 78, 33
1, 282248, Note_on_c, 0, 48, 51
1, 282260, Note_off_c, 0, 70, 67
1, 282263, Note_off_c, 0, 83, 71
1, 282276, Note_off_c, 0, 82, 61
1, 282280, Note_off_c, 0, 48, 53
1, 282312, Control_c, 0, 64, 107
1, 282320, Note_on_c, 0, 77, 95
1, 282323, Note_on_c, 0, 68, 94
1, 282323, Note_on_c, 0, 74, 93
1, 282324, Note_on_c, 0, 65, 96
1, 282325, Note_on_c, 0, 56, 85
1, 282326, Note_on_c, 0, 62, 94
1, 282326, Control_c, 0, 64, 66
1, 282331, Note_on_c, 0, 59, 79
1, 282341, Control_c, 0, 64, 0
1, 282357, Note_on_c, 0, 60, 50
1, 282357, Note_off_c, 0, 60, 127
1, 282386, Control_c, 0, 64, 45
1, 282400, Control_c, 0, 64, 63
1, 282415, Control_c, 0, 64, 76
1, 282417, Note_off_c, 0, 59, 62
1, 282430, Control_c, 0, 64, 95
1, 282436, Note_off_c, 0, 56, 62
1, 282438, Note_off_c, 0, 62, 59
1, 282445, Control_c, 0, 64, 127
1, 282463, Note_off_c, 0, 65, 59
1, 282497, Note_off_c, 0, 68, 61
1, 282511, Note_off_c, 0, 74, 62
1, 282514, Note_off_c, 0, 77, 61
1, 282578, Control_c, 0, 64, 77
1, 282582, Note_off_c, 0, 49, 62
1, 282585, Note_on_c, 0, 63, 98
1, 282586, Note_on_c, 0, 54, 80
1, 282588, Note_on_c, 0, 58, 91
1, 282592, Control_c, 0, 64, 49
1, 282607, Control_c, 0, 64, 0
1, 282630, Note_on_c, 0, 61, 27
1, 282630, Note_off_c, 0, 61, 127
1, 282637, Control_c, 0, 64, 48
1, 282652, Control_c, 0, 64, 65
1, 282656, Note_on_c, 0, 90, 90
1, 282659, Note_off_c, 0, 63, 65
1, 282663, Note_on_c, 0, 80, 69
1, 282666, Control_c, 0, 64, 86
1, 282674, Note_off_c, 0, 90, 72
1, 282675, Note_on_c, 0, 92, 58
1, 282681, Control_c, 0, 64, 127
1, 282686, Note_off_c, 0, 80, 71
1, 282700, Note_on_c, 0, 49, 78
1, 282700, Note_off_c, 0, 92, 58
1, 282717, Note_off_c, 0, 54, 60
1, 282722, Note_off_c, 0, 58, 59
1, 282723, Note_on_c, 0, 92, 82
1, 282725, Note_on_c, 0, 80, 87
1, 282743, Poly_aftertouch_c, 0, 79, 127
1, 282753, Note_on_c, 0, 48, 27
1, 282758, Note_on_c, 0, 82, 49
1, 282767, Note_off_c, 0, 49, 61
1, 282769, Poly_aftertouch_c, 0, 79, 0
1, 282774, Note_off_c, 0, 80, 67
1, 282782, Note_off_c, 0, 82, 57
1, 282801, Note_off_c, 0, 48, 39
1, 282802, Note_off_c, 0, 92, 64
1, 282808, Note_on_c, 0, 63, 105
1, 282813, Note_on_c, 0, 54, 84
1, 282818, Note_on_c, 0, 58, 82
1, 282841, Note_off_c, 0, 63, 67
1, 282845, Note_off_c, 0, 58, 66
1, 282860, Note_off_c, 0, 54, 64
1, 282877, Note_on_c, 0, 93, 95
1, 282879, Note_on_c, 0, 81, 96
1, 282913, Note_off_c, 0, 81, 67
1, 282919, Note_off_c, 0, 93, 65
1, 282948, Note_on_c, 0, 37, 85
1, 282977, Note_off_c, 0, 37, 63
1, 282985, Note_on_c, 0, 82, 97
1, 282985, Note_on_c, 0, 92, 89
1, 282999, Note_on_c, 0, 93, 83
1, 283001, Note_on_c, 0, 94, 53
1, 283005, Note_on_c, 0, 81, 75
1, 283020, Note_off_c, 0, 81, 69
1, 283021, Note_on_c, 0, 90, 56
1, 283026, Note_off_c, 0, 82, 64
1, 283031, Note_off_c, 0, 94, 63
1, 283041, Note_off_c, 0, 92, 63
1, 283044, Note_off_c, 0, 90, 58
1, 283050, Note_off_c, 0, 93, 60
1, 283119, Control_c, 0, 64, 103
1, 283134, Control_c, 0, 64, 64
1, 283140, Note_on_c, 0, 64, 96
1, 283145, Note_on_c, 0, 55, 77
1, 283145, Note_on_c, 0, 58, 88
1, 283148, Control_c, 0, 64, 38
1, 283163, Control_c, 0, 64, 44
1, 283178, Note_on_c, 0, 87, 103
1, 283178, Note_on_c, 0, 99, 102
1, 283178, Control_c, 0, 64, 68
1, 283181, Note_on_c, 0, 91, 91
1, 283193, Control_c, 0, 64, 127
1, 283203, Note_on_c, 0, 97, 50
1, 283203, Note_off_c, 0, 97, 127
1, 283232, Note_off_c, 0, 91, 63
1, 283234, Note_off_c, 0, 64, 51
1, 283249, Note_off_c, 0, 99, 61
1, 283252, Note_off_c, 0, 87, 63
1, 283288, Note_on_c, 0, 49, 69
1, 283292, Note_on_c, 0, 98, 89
1, 283298, Note_on_c, 0, 86, 85
1, 283300, Note_off_c, 0, 58, 61
1, 283308, Note_on_c, 0, 48, 78
1, 283318, Note_on_c, 0, 97, 46
1, 283331, Note_off_c, 0, 86, 64
1, 283339, Note_off_c, 0, 48, 64
1, 283342, Note_off_c, 0, 98, 67
1, 283349, Note_off_c, 0, 97, 45
1, 283362, Note_off_c, 0, 49, 62
1, 283399, Note_on_c, 0, 85, 93
1, 283404, Note_on_c, 0, 97, 90
1, 283413, Note_off_c, 0, 55, 0
1, 283417, Note_on_c, 0, 64, 84
1, 283419, Note_on_c, 0, 58, 80
1, 283425, Note_off_c, 0, 97, 68
1, 283428, Note_on_c, 0, 55, 37
1, 283438, Note_off_c, 0, 64, 73
1, 283443, Note_off_c, 0, 85, 62
1, 283461, Note_off_c, 0, 58, 63
1, 283466, Note_off_c, 0, 55, 63
1, 283480, Note_on_c, 0, 84, 76
1, 283485, Note_on_c, 0, 95, 81
1, 283510, Note_on_c, 0, 96, 41
1, 283521, Note_off_c, 0, 84, 67
1, 283528, Note_off_c, 0, 95, 65
1, 283543, Note_off_c, 0, 96, 36
1, 283560, Note_on_c, 0, 95, 71
1, 283565, Note_on_c, 0, 83, 86
1, 283569, Note_on_c, 0, 37, 84
1, 283580, Note_off_c, 0, 83, 73
1, 283600, Note_off_c, 0, 37, 67
1, 283602, Note_off_c, 0, 95, 64
1, 283648, Note_on_c, 0, 82, 89
1, 283648, Note_on_c, 0, 94, 85
1, 283676, Note_off_c, 0, 94, 61
1, 283700, Note_off_c, 0, 82, 63
1, 283719, Note_on_c, 0, 64, 95
1, 283720, Control_c, 0, 64, 114
1, 283721, Note_on_c, 0, 59, 82
1, 283722, Note_on_c, 0, 56, 83
1, 283725, Note_on_c, 0, 81, 97
1, 283728, Note_on_c, 0, 93, 102
1, 283735, Control_c, 0, 64, 67
1, 283738, Note_on_c, 0, 87, 70
1, 283740, Note_off_c, 0, 56, 65
1, 283744, Poly_aftertouch_c, 0, 88, 0
1, 283745, Note_off_c, 0, 64, 65
1, 283746, Note_on_c, 0, 57, 73
1, 283750, Control_c, 0, 64, 0
1, 283750, Note_off_c, 0, 59, 68
1, 283755, Note_off_c, 0, 81, 69
1, 283755, Note_off_c, 0, 87, 62
1, 283763, Note_off_c, 0, 57, 63
1, 283770, Note_on_c, 0, 91, 38
1, 283773, Note_off_c, 0, 93, 64
1, 283807, Note_on_c, 0, 80, 97
1, 283812, Note_off_c, 0, 91, 40
1, 283819, Note_on_c, 0, 92, 75
1, 283822, Note_on_c, 0, 94, 91
1, 283834, Note_on_c, 0, 82, 53
1, 283836, Note_off_c, 0, 80, 67
1, 283837, Note_off_c, 0, 92, 67
1, 283838, Control_c, 0, 64, 45
1, 283840, Note_off_c, 0, 94, 69
1, 283852, Note_on_c, 0, 35, 80
1, 283853, Control_c, 0, 64, 63
1, 283854, Note_off_c, 0, 82, 41
1, 283868, Control_c, 0, 64, 80
1, 283875, Note_off_c, 0, 35, 66
1, 283883, Control_c, 0, 64, 127
1, 283893, Note_on_c, 0, 97, 102
1, 283897, Note_on_c, 0, 85, 104
1, 283935, Note_on_c, 0, 98, 35
1, 283968, Note_off_c, 0, 98, 35
1, 283974, Note_off_c, 0, 85, 58
1, 283975, Note_off_c, 0, 97, 64
1, 283982, Note_on_c, 0, 56, 96
1, 283984, Note_on_c, 0, 63, 92
1, 283985, Note_on_c, 0, 58, 90
1, 284024, Note_off_c, 0, 63, 65
1, 284027, Note_off_c, 0, 56, 64
1, 284030, Note_off_c, 0, 58, 64
1, 284054, Note_on_c, 0, 95, 102
1, 284057, Note_on_c, 0, 83, 97
1, 284097, Note_off_c, 0, 83, 67
1, 284102, Note_off_c, 0, 95, 67
1, 284127, Note_on_c, 0, 48, 81
1, 284151, Note_off_c, 0, 48, 66
1, 284152, Note_on_c, 0, 93, 97
1, 284155, Note_on_c, 0, 81, 97
1, 284169, Note_on_c, 0, 92, 76
1, 284187, Note_off_c, 0, 81, 68
1, 284191, Note_off_c, 0, 92, 71
1, 284200, Note_on_c, 0, 88, 52
1, 284207, Note_off_c, 0, 93, 63
1, 284222, Note_off_c, 0, 88, 60
1, 284238, Control_c, 0, 64, 95
1, 284253, Control_c, 0, 64, 59
1, 284261, Note_on_c, 0, 59, 91
1, 284261, Note_on_c, 0, 64, 96
1, 284263, Note_on_c, 0, 92, 101
1, 284266, Note_on_c, 0, 80, 102
1, 284266, Note_on_c, 0, 88, 94
1, 284268, Note_on_c, 0, 56, 83
1, 284268, Control_c, 0, 64, 0
1, 284293, Note_on_c, 0, 90, 54
1, 284311, Note_on_c, 0, 87, 18
1, 284311, Note_off_c, 0, 87, 127
1, 284313, Control_c, 0, 64, 47
1, 284314, Note_off_c, 0, 80, 63
1, 284317, Note_off_c, 0, 90, 39
1, 284328, Control_c, 0, 64, 65
1, 284330, Note_off_c, 0, 88, 64
1, 284334, Note_off_c, 0, 92, 62
1, 284343, Control_c, 0, 64, 76
1, 284358, Control_c, 0, 64, 91
1, 284369, Note_off_c, 0, 59, 61
1, 284373, Control_c, 0, 64, 109
1, 284375, Note_on_c, 0, 90, 93
1, 284380, Note_off_c, 0, 56, 60
1, 284384, Note_on_c, 0, 78, 93
1, 284387, Control_c, 0, 64, 127
1, 284393, Note_on_c, 0, 52, 73
1, 284406, Note_off_c, 0, 64, 58
1, 284419, Note_off_c, 0, 52, 66
1, 284435, Note_off_c, 0, 78, 61
1, 284460, Note_off_c, 0, 90, 64
1, 284495, Note_on_c, 0, 80, 93
1, 284495, Note_on_c, 0, 92, 99
1, 284513, Poly_aftertouch_c, 0, 53, 0
1, 284531, Note_off_c, 0, 80, 68
1, 284537, Note_off_c, 0, 92, 66
1, 284558, Control_c, 0, 64, 96
1, 284573, Control_c, 0, 64, 73
1, 284587, Control_c, 0, 64, 56
1, 284602, Control_c, 0, 64, 0
1, 284671, Note_on_c, 0, 88, 104
1, 284673, Note_on_c, 0, 68, 89
1, 284675, Note_on_c, 0, 76, 108
1, 284676, Control_c, 0, 64, 34
1, 284677, Note_on_c, 0, 59, 77
1, 284678, Note_on_c, 0, 71, 89
1, 284679, Note_on_c, 0, 64, 80
1, 284681, Note_on_c, 0, 80, 94
1, 284688, Note_on_c, 0, 60, 66
1, 284691, Control_c, 0, 64, 56
1, 284706, Control_c, 0, 64, 70
1, 284709, Note_off_c, 0, 71, 64
1, 284712, Note_on_c, 0, 72, 14
1, 284715, Note_off_c, 0, 59, 65
1, 284720, Control_c, 0, 64, 91
1, 284721, Note_off_c, 0, 60, 63
1, 284735, Control_c, 0, 64, 127
1, 284740, Note_off_c, 0, 64, 63
1, 284747, Note_off_c, 0, 68, 61
1, 284755, Note_off_c, 0, 72, 51
1, 284787, Note_off_c, 0, 88, 62
1, 284827, Note_off_c, 0, 76, 56
1, 284849, Note_off_c, 0, 80, 61
1, 285030, Control_c, 0, 64, 78
1, 285045, Control_c, 0, 64, 53
1, 285060, Control_c, 0, 64, 0
1, 285072, Note_on_c, 0, 52, 94
1, 285072, Note_on_c, 0, 57, 96
1, 285074, Note_on_c, 0, 47, 89
1, 285096, Note_off_c, 0, 47, 70
1, 285105, Note_off_c, 0, 52, 67
1, 285105, Note_off_c, 0, 57, 64
1, 285106, Control_c, 0, 64, 34
1, 285121, Control_c, 0, 64, 58
1, 285135, Control_c, 0, 64, 73
1, 285150, Control_c, 0, 64, 94
1, 285152, Note_on_c, 0, 48, 6
1, 285159, Note_on_c, 0, 61, 72
1, 285165, Control_c, 0, 64, 127
1, 285166, Note_on_c, 0, 64, 60
1, 285196, Note_off_c, 0, 48, 47
1, 285196, Note_off_c, 0, 61, 67
1, 285253, Note_on_c, 0, 73, 75
1, 285255, Note_off_c, 0, 64, 51
1, 285325, Note_off_c, 0, 73, 62
1, 285336, Note_on_c, 0, 85, 99
1, 285344, Note_on_c, 0, 81, 92
1, 285352, Note_on_c, 0, 82, 58
1, 285359, Note_off_c, 0, 81, 74
1, 285363, Note_off_c, 0, 85, 65
1, 285371, Note_off_c, 0, 82, 60
1, 285414, Note_on_c, 0, 72, 59
1, 285422, Note_on_c, 0, 68, 59
1, 285455, Note_off_c, 0, 72, 59
1, 285455, Note_off_c, 0, 68, 65
1, 285496, Note_on_c, 0, 73, 75
1, 285509, Note_on_c, 0, 69, 67
1, 285535, Note_off_c, 0, 69, 67
1, 285557, Note_off_c, 0, 73, 62
1, 285557, Control_c, 0, 64, 100
1, 285572, Control_c, 0, 64, 71
1, 285585, Note_on_c, 0, 68, 81
1, 285587, Control_c, 0, 64, 50
1, 285589, Note_on_c, 0, 65, 70
1, 285602, Control_c, 0, 64, 0
1, 285653, Note_on_c, 0, 66, 92
1, 285653, Note_off_c, 0, 65, 58
1, 285655, Note_off_c, 0, 68, 65
1, 285663, Note_on_c, 0, 69, 81
1, 285678, Note_off_c, 0, 66, 68
1, 285682, Note_off_c, 0, 69, 71
1, 285721, Note_on_c, 0, 72, 84
1, 285724, Note_on_c, 0, 68, 75
1, 285789, Note_off_c, 0, 68, 57
1, 285807, Note_on_c, 0, 73, 77
1, 285811, Note_on_c, 0, 69, 72
1, 285831, Note_off_c, 0, 72, 59
1, 285839, Control_c, 0, 64, 32
1, 285853, Control_c, 0, 64, 44
1, 285867, Note_off_c, 0, 73, 64
1, 285868, Control_c, 0, 64, 52
1, 285876, Note_on_c, 0, 76, 76
1, 285883, Control_c, 0, 64, 55
1, 285890, Note_off_c, 0, 69, 61
1, 285898, Control_c, 0, 64, 57
1, 285914, Control_c, 0, 64, 58
1, 285936, Control_c, 0, 64, 58
1, 285951, Control_c, 0, 64, 59
1, 285963, Note_on_c, 0, 75, 75
1, 285967, Note_on_c, 0, 71, 78
1, 285972, Note_off_c, 0, 76, 62
1, 285995, Control_c, 0, 64, 58
1, 286004, Note_off_c, 0, 71, 61
1, 286010, Note_off_c, 0, 75, 63
1, 286037, Note_on_c, 0, 56, 94
1, 286037, Note_on_c, 0, 52, 87
1, 286040, Control_c, 0, 64, 59
1, 286043, Note_on_c, 0, 47, 78
1, 286054, Control_c, 0, 64, 61
1, 286064, Note_off_c, 0, 47, 68
1, 286069, Control_c, 0, 64, 64
1, 286073, Note_off_c, 0, 52, 64
1, 286078, Note_off_c, 0, 56, 66
1, 286084, Control_c, 0, 64, 67
1, 286099, Control_c, 0, 64, 71
1, 286114, Control_c, 0, 64, 77
1, 286129, Control_c, 0, 64, 83
1, 286142, Note_on_c, 0, 64, 58
1, 286144, Control_c, 0, 64, 88
1, 286151, Note_on_c, 0, 65, 59
1, 286158, Control_c, 0, 64, 91
1, 286173, Control_c, 0, 64, 94
1, 286180, Note_off_c, 0, 65, 60
1, 286182, Note_off_c, 0, 64, 61
1, 286188, Control_c, 0, 64, 97
1, 286203, Control_c, 0, 64, 99
1, 286216, Note_on_c, 0, 71, 64
1, 286232, Control_c, 0, 64, 101
1, 286288, Note_on_c, 0, 83, 98
1, 286290, Note_on_c, 0, 80, 98
1, 286300, Note_off_c, 0, 71, 60
1, 286306, Control_c, 0, 64, 97
1, 286307, Note_off_c, 0, 80, 67
1, 286320, Note_off_c, 0, 83, 62
1, 286321, Control_c, 0, 64, 88
1, 286336, Control_c, 0, 64, 79
1, 286351, Control_c, 0, 64, 68
1, 286365, Control_c, 0, 64, 60
1, 286379, Note_on_c, 0, 64, 67
1, 286380, Control_c, 0, 64, 56
1, 286395, Control_c, 0, 64, 55
1, 286439, Note_off_c, 0, 64, 44
1, 286451, Note_on_c, 0, 66, 86
1, 286453, Note_on_c, 0, 69, 74
1, 286454, Control_c, 0, 64, 54
1, 286469, Note_off_c, 0, 66, 69
1, 286469, Control_c, 0, 64, 53
1, 286476, Note_off_c, 0, 69, 69
1, 286484, Control_c, 0, 64, 50
1, 286499, Control_c, 0, 64, 44
1, 286513, Control_c, 0, 64, 33
1, 286528, Control_c, 0, 64, 0
1, 286537, Note_on_c, 0, 66, 25
1, 286538, Note_on_c, 0, 71, 88
1, 286541, Note_on_c, 0, 68, 74
1, 286551, Note_off_c, 0, 71, 71
1, 286555, Note_off_c, 0, 68, 69
1, 286568, Note_off_c, 0, 66, 34
1, 286596, Note_on_c, 0, 69, 72
1, 286596, Note_on_c, 0, 73, 81
1, 286624, Note_off_c, 0, 69, 62
1, 286668, Note_on_c, 0, 71, 55
1, 286683, Control_c, 0, 67, 38
1, 286686, Note_on_c, 0, 68, 60
1, 286691, Note_off_c, 0, 73, 62
1, 286698, Control_c, 0, 67, 87
1, 286714, Control_c, 0, 67, 127
1, 286719, Note_off_c, 0, 68, 67
1, 286744, Control_c, 0, 64, 40
1, 286746, Note_off_c, 0, 71, 63
1, 286759, Control_c, 0, 64, 60
1, 286774, Control_c, 0, 64, 69
1, 286776, Note_on_c, 0, 68, 82
1, 286779, Note_on_c, 0, 64, 83
1, 286788, Control_c, 0, 64, 75
1, 286803, Control_c, 0, 64, 81
1, 286818, Note_off_c, 0, 64, 61
1, 286818, Control_c, 0, 64, 83
1, 286826, Note_off_c, 0, 68, 62
1, 286848, Control_c, 0, 64, 82
1, 286862, Control_c, 0, 64, 81
1, 286877, Control_c, 0, 64, 74
1, 286892, Control_c, 0, 64, 63
1, 286907, Control_c, 0, 64, 44
1, 286922, Control_c, 0, 64, 0
1, 287026, Control_c, 0, 64, 38
1, 287030, Note_on_c, 0, 59, 77
1, 287032, Note_on_c, 0, 69, 83
1, 287033, Note_on_c, 0, 64, 72
1, 287041, Control_c, 0, 64, 47
1, 287053, Note_off_c, 0, 59, 70
1, 287054, Note_off_c, 0, 69, 67
1, 287055, Note_off_c, 0, 64, 69
1, 287055, Control_c, 0, 64, 56
1, 287070, Control_c, 0, 64, 60
1, 287085, Control_c, 0, 64, 63
1, 287100, Control_c, 0, 64, 65
1, 287113, Note_on_c, 0, 73, 44
1, 287114, Control_c, 0, 64, 67
1, 287120, Note_on_c, 0, 76, 47
1, 287129, Control_c, 0, 64, 70
1, 287136, Note_off_c, 0, 73, 58
1, 287144, Control_c, 0, 64, 75
1, 287159, Control_c, 0, 64, 83
1, 287167, Note_off_c, 0, 76, 55
1, 287174, Control_c, 0, 64, 91
1, 287188, Control_c, 0, 64, 100
1, 287199, Note_on_c, 0, 85, 68
1, 287203, Control_c, 0, 64, 112
1, 287218, Control_c, 0, 64, 127
1, 287254, Note_off_c, 0, 85, 63
1, 287274, Note_on_c, 0, 97, 97
1, 287277, Note_on_c, 0, 93, 104
1, 287289, Note_off_c, 0, 97, 75
1, 287297, Note_off_c, 0, 93, 63
1, 287357, Note_on_c, 0, 84, 63
1, 287363, Note_on_c, 0, 80, 57
1, 287390, Note_off_c, 0, 84, 62
1, 287391, Note_off_c, 0, 80, 68
1, 287432, Note_on_c, 0, 85, 54
1, 287446, Note_on_c, 0, 81, 76
1, 287467, Note_off_c, 0, 81, 68
1, 287502, Note_off_c, 0, 85, 63
1, 287525, Note_on_c, 0, 80, 89
1, 287534, Note_on_c, 0, 77, 68
1, 287547, Note_on_c, 0, 76, 54
1, 287552, Control_c, 0, 64, 117
1, 287567, Note_off_c, 0, 76, 60
1, 287567, Control_c, 0, 64, 92
1, 287581, Note_off_c, 0, 77, 59
1, 287582, Control_c, 0, 64, 78
1, 287593, Note_off_c, 0, 80, 65
1, 287594, Note_on_c, 0, 78, 87
1, 287597, Control_c, 0, 64, 67
1, 287609, Note_on_c, 0, 81, 89
1, 287611, Control_c, 0, 64, 57
1, 287626, Control_c, 0, 64, 49
1, 287630, Note_off_c, 0, 81, 67
1, 287639, Note_off_c, 0, 78, 63
1, 287641, Control_c, 0, 64, 47
1, 287670, Note_on_c, 0, 84, 78
1, 287671, Control_c, 0, 64, 47
1, 287676, Note_on_c, 0, 80, 81
1, 287700, Control_c, 0, 64, 48
1, 287715, Control_c, 0, 64, 48
1, 287730, Control_c, 0, 64, 49
1, 287735, Note_on_c, 0, 85, 55
1, 287742, Note_off_c, 0, 80, 60
1, 287745, Control_c, 0, 64, 52
1, 287753, Note_on_c, 0, 81, 72
1, 287760, Control_c, 0, 64, 57
1, 287775, Control_c, 0, 64, 62
1, 287780, Note_off_c, 0, 84, 63
1, 287790, Control_c, 0, 64, 64
1, 287804, Control_c, 0, 64, 65
1, 287819, Control_c, 0, 64, 66
1, 287825, Note_off_c, 0, 85, 64
1, 287834, Note_on_c, 0, 88, 74
1, 287834, Control_c, 0, 64, 67
1, 287849, Control_c, 0, 64, 69
1, 287855, Note_off_c, 0, 81, 62
1, 287864, Control_c, 0, 64, 71
1, 287879, Control_c, 0, 64, 73
1, 287894, Control_c, 0, 64, 75
1, 287903, Note_on_c, 0, 87, 79
1, 287908, Note_on_c, 0, 83, 74
1, 287909, Control_c, 0, 64, 75
1, 287915, Note_off_c, 0, 88, 62
1, 287934, Note_off_c, 0, 83, 62
1, 287938, Control_c, 0, 64, 75
1, 287953, Control_c, 0, 64, 73
1, 287956, Note_off_c, 0, 87, 63
1, 287968, Control_c, 0, 64, 68
1, 287981, Note_on_c, 0, 68, 87
1, 287983, Control_c, 0, 64, 60
1, 287984, Note_on_c, 0, 64, 70
1, 287985, Note_on_c, 0, 59, 71
1, 287998, Control_c, 0, 64, 54
1, 288001, Note_off_c, 0, 59, 67
1, 288008, Note_off_c, 0, 64, 68
1, 288010, Note_off_c, 0, 68, 64
1, 288012, Control_c, 0, 64, 54
1, 288027, Control_c, 0, 64, 57
1, 288027, Control_c, 0, 67, 112
1, 288042, Control_c, 0, 64, 61
1, 288042, Control_c, 0, 67, 99
1, 288056, Control_c, 0, 64, 64
1, 288064, Note_on_c, 0, 76, 76
1, 288071, Control_c, 0, 64, 66
1, 288086, Control_c, 0, 64, 68
1, 288101, Control_c, 0, 64, 70
1, 288116, Control_c, 0, 64, 71
1, 288116, Control_c, 0, 67, 104
1, 288130, Control_c, 0, 64, 72
1, 288130, Control_c, 0, 67, 108
1, 288141, Note_off_c, 0, 76, 54
1, 288142, Note_on_c, 0, 83, 75
1, 288145, Control_c, 0, 64, 73
1, 288145, Control_c, 0, 67, 111
1, 288160, Control_c, 0, 67, 113
1, 288198, Control_c, 0, 67, 116
1, 288212, Control_c, 0, 64, 73
1, 288227, Control_c, 0, 64, 71
1, 288240, Note_on_c, 0, 95, 95
1, 288242, Note_on_c, 0, 92, 101
1, 288242, Control_c, 0, 64, 67
1, 288242, Control_c, 0, 67, 119
1, 288244, Note_off_c, 0, 83, 61
1, 288257, Control_c, 0, 64, 62
1, 288259, Note_off_c, 0, 92, 69
1, 288271, Control_c, 0, 64, 56
1, 288271, Control_c, 0, 67, 123
1, 288272, Note_off_c, 0, 95, 64
1, 288286, Control_c, 0, 64, 52
1, 288286, Control_c, 0, 67, 126
1, 288301, Control_c, 0, 64, 51
1, 288317, Control_c, 0, 64, 51
1, 288330, Note_on_c, 0, 76, 63
1, 288332, Control_c, 0, 64, 52
1, 288351, Note_on_c, 0, 80, 34
1, 288376, Control_c, 0, 64, 52
1, 288377, Note_off_c, 0, 80, 53
1, 288391, Control_c, 0, 64, 53
1, 288394, Note_on_c, 0, 81, 78
1, 288396, Note_on_c, 0, 78, 75
1, 288400, Note_off_c, 0, 76, 64
1, 288418, Note_off_c, 0, 78, 70
1, 288418, Note_off_c, 0, 81, 67
1, 288435, Control_c, 0, 64, 53
1, 288465, Control_c, 0, 64, 53
1, 288477, Note_on_c, 0, 83, 97
1, 288479, Note_on_c, 0, 80, 82
1, 288494, Control_c, 0, 64, 52
1, 288499, Note_off_c, 0, 80, 69
1, 288502, Note_off_c, 0, 83, 65
1, 288509, Control_c, 0, 64, 51
1, 288524, Control_c, 0, 64, 50
1, 288539, Control_c, 0, 64, 49
1, 288553, Control_c, 0, 64, 48
1, 288561, Note_on_c, 0, 81, 62
1, 288566, Note_on_c, 0, 85, 74
1, 288568, Control_c, 0, 64, 48
1, 288585, Note_off_c, 0, 81, 69
1, 288613, Control_c, 0, 64, 48
1, 288633, Note_on_c, 0, 83, 70
1, 288639, Note_off_c, 0, 85, 62
1, 288642, Control_c, 0, 64, 49
1, 288657, Control_c, 0, 64, 52
1, 288672, Control_c, 0, 64, 56
1, 288676, Note_off_c, 0, 83, 63
1, 288687, Control_c, 0, 64, 64
1, 288695, Note_on_c, 0, 81, 7
1, 288701, Control_c, 0, 64, 73
1, 288711, Note_on_c, 0, 80, 82
1, 288716, Control_c, 0, 64, 87
1, 288717, Note_on_c, 0, 76, 88
1, 288731, Control_c, 0, 64, 105
1, 288743, Note_off_c, 0, 80, 66
1, 288746, Note_off_c, 0, 81, 28
1, 288746, Control_c, 0, 64, 127
1, 288756, Note_off_c, 0, 76, 60
1, 288961, Control_c, 0, 64, 102
1, 288976, Control_c, 0, 64, 79
1, 288991, Control_c, 0, 64, 62
1, 289006, Control_c, 0, 64, 36
1, 289020, Control_c, 0, 64, 0
1, 289026, Note_on_c, 0, 57, 73
1, 289030, Note_on_c, 0, 66, 81
1, 289032, Note_on_c, 0, 61, 74
1, 289035, Control_c, 0, 64, 30
1, 289050, Control_c, 0, 64, 41
1, 289065, Control_c, 0, 64, 54
1, 289080, Control_c, 0, 64, 63
1, 289080, Note_off_c, 0, 66, 65
1, 289083, Note_on_c, 0, 73, 79
1, 289088, Note_on_c, 0, 69, 74
1, 289089, Note_on_c, 0, 78, 73
1, 289094, Control_c, 0, 64, 69
1, 289095, Note_on_c, 0, 81, 67
1, 289110, Control_c, 0, 64, 74
1, 289112, Note_off_c, 0, 69, 69
1, 289125, Control_c, 0, 64, 77
1, 289127, Note_off_c, 0, 81, 62
1, 289133, Note_off_c, 0, 73, 62
1, 289134, Note_off_c, 0, 78, 54
1, 289140, Control_c, 0, 64, 78
1, 289155, Control_c, 0, 64, 80
1, 289168, Note_on_c, 0, 52, 66
1, 289169, Control_c, 0, 64, 82
1, 289178, Note_on_c, 0, 83, 88
1, 289181, Note_on_c, 0, 71, 92
1, 289184, Control_c, 0, 64, 84
1, 289189, Note_off_c, 0, 61, 57
1, 289199, Control_c, 0, 64, 85
1, 289214, Control_c, 0, 64, 87
1, 289226, Note_off_c, 0, 52, 56
1, 289229, Control_c, 0, 64, 87
1, 289235, Note_off_c, 0, 71, 60
1, 289240, Note_off_c, 0, 83, 63
1, 289243, Note_off_c, 0, 57, 0
1, 289244, Control_c, 0, 64, 88
1, 289258, Control_c, 0, 64, 88
1, 289262, Note_on_c, 0, 57, 39
1, 289266, Note_on_c, 0, 66, 83
1, 289277, Note_on_c, 0, 61, 69
1, 289289, Note_off_c, 0, 66, 67
1, 289300, Note_off_c, 0, 61, 69
1, 289303, Note_off_c, 0, 57, 63
1, 289351, Note_on_c, 0, 72, 89
1, 289353, Note_on_c, 0, 84, 87
1, 289357, Note_on_c, 0, 78, 78
1, 289378, Note_off_c, 0, 78, 68
1, 289386, Note_off_c, 0, 72, 61
1, 289386, Note_off_c, 0, 84, 62
1, 289417, Note_on_c, 0, 40, 80
1, 289435, Control_c, 0, 64, 90
1, 289438, Note_on_c, 0, 85, 97
1, 289442, Note_off_c, 0, 40, 65
1, 289447, Note_on_c, 0, 73, 85
1, 289450, Control_c, 0, 64, 96
1, 289464, Note_off_c, 0, 73, 72
1, 289465, Control_c, 0, 64, 127
1, 289491, Note_off_c, 0, 85, 63
1, 289539, Control_c, 0, 64, 112
1, 289554, Control_c, 0, 64, 73
1, 289569, Control_c, 0, 64, 54
1, 289578, Note_on_c, 0, 78, 94
1, 289583, Note_on_c, 0, 90, 95
1, 289583, Control_c, 0, 64, 50
1, 289584, Note_on_c, 0, 81, 79
1, 289585, Note_on_c, 0, 69, 89
1, 289595, Note_on_c, 0, 63, 78
1, 289598, Control_c, 0, 64, 59
1, 289603, Note_off_c, 0, 81, 73
1, 289607, Note_on_c, 0, 59, 57
1, 289613, Control_c, 0, 64, 71
1, 289615, Note_on_c, 0, 82, 30
1, 289625, Note_off_c, 0, 78, 61
1, 289627, Control_c, 0, 64, 88
1, 289629, Note_off_c, 0, 90, 50
1, 289642, Control_c, 0, 64, 114
1, 289643, Note_off_c, 0, 69, 59
1, 289649, Note_off_c, 0, 82, 31
1, 289657, Control_c, 0, 64, 127
1, 289670, Note_on_c, 0, 89, 81
1, 289682, Poly_aftertouch_c, 0, 67, 127
1, 289684, Note_on_c, 0, 77, 83
1, 289687, Poly_aftertouch_c, 0, 60, 127
1, 289699, Note_off_c, 0, 63, 55
1, 289706, Note_on_c, 0, 52, 78
1, 289709, Note_off_c, 0, 59, 34
1, 289717, Poly_aftertouch_c, 0, 60, 0
1, 289724, Poly_aftertouch_c, 0, 67, 0
1, 289724, Note_off_c, 0, 77, 63
1, 289727, Note_off_c, 0, 89, 60
1, 289747, Note_off_c, 0, 52, 59
1, 289775, Note_on_c, 0, 76, 76
1, 289775, Note_on_c, 0, 89, 63
1, 289780, Note_on_c, 0, 88, 42
1, 289797, Note_off_c, 0, 76, 71
1, 289805, Note_off_c, 0, 89, 67
1, 289810, Note_off_c, 0, 88, 57
1, 289811, Note_on_c, 0, 63, 81
1, 289812, Note_on_c, 0, 69, 79
1, 289818, Note_on_c, 0, 59, 59
1, 289831, Note_off_c, 0, 69, 71
1, 289842, Note_off_c, 0, 63, 63
1, 289851, Note_off_c, 0, 59, 66
1, 289861, Note_on_c, 0, 87, 81
1, 289865, Note_on_c, 0, 75, 82
1, 289892, Note_off_c, 0, 75, 63
1, 289894, Note_off_c, 0, 87, 62
1, 289918, Control_c, 0, 67, 124
1, 289932, Control_c, 0, 67, 83
1, 289939, Note_on_c, 0, 86, 88
1, 289946, Note_on_c, 0, 74, 86
1, 289947, Control_c, 0, 67, 0
1, 289952, Note_on_c, 0, 40, 82
1, 289965, Note_off_c, 0, 74, 73
1, 289979, Note_off_c, 0, 40, 66
1, 289979, Note_off_c, 0, 86, 67
1, 290037, Note_on_c, 0, 73, 84
1, 290039, Note_on_c, 0, 85, 84
1, 290048, Poly_aftertouch_c, 0, 80, 0
1, 290064, Note_off_c, 0, 85, 61
1, 290065, Control_c, 0, 64, 86
1, 290075, Note_off_c, 0, 73, 59
1, 290080, Control_c, 0, 64, 63
1, 290095, Control_c, 0, 64, 37
1, 290110, Control_c, 0, 64, 0
1, 290114, Note_on_c, 0, 68, 89
1, 290119, Note_on_c, 0, 84, 80
1, 290120, Note_on_c, 0, 72, 85
1, 290121, Note_on_c, 0, 59, 70
1, 290126, Note_on_c, 0, 83, 77
1, 290141, Note_on_c, 0, 64, 53
1, 290147, Note_off_c, 0, 72, 64
1, 290150, Note_off_c, 0, 83, 61
1, 290154, Control_c, 0, 64, 33
1, 290156, Note_off_c, 0, 84, 70
1, 290159, Note_off_c, 0, 68, 65
1, 290169, Control_c, 0, 64, 40
1, 290171, Note_off_c, 0, 64, 66
1, 290184, Control_c, 0, 64, 49
1, 290198, Note_on_c, 0, 83, 94
1, 290198, Control_c, 0, 64, 56
1, 290204, Note_on_c, 0, 71, 75
1, 290213, Control_c, 0, 64, 59
1, 290218, Note_off_c, 0, 59, 58
1, 290222, Note_off_c, 0, 71, 67
1, 290228, Note_on_c, 0, 72, 50
1, 290228, Control_c, 0, 64, 60
1, 290234, Note_off_c, 0, 83, 65
1, 290237, Note_on_c, 0, 52, 60
1, 290243, Control_c, 0, 64, 61
1, 290255, Note_off_c, 0, 72, 36
1, 290266, Note_off_c, 0, 52, 65
1, 290272, Control_c, 0, 64, 62
1, 290283, Note_on_c, 0, 76, 91
1, 290286, Note_on_c, 0, 88, 84
1, 290287, Control_c, 0, 64, 61
1, 290290, Note_on_c, 0, 89, 83
1, 290293, Note_on_c, 0, 77, 88
1, 290302, Control_c, 0, 64, 60
1, 290317, Control_c, 0, 64, 58
1, 290332, Control_c, 0, 64, 59
1, 290333, Note_off_c, 0, 77, 42
1, 290335, Note_off_c, 0, 89, 57
1, 290347, Control_c, 0, 64, 60
1, 290358, Note_off_c, 0, 76, 63
1, 290362, Control_c, 0, 64, 64
1, 290368, Note_on_c, 0, 66, 86
1, 290368, Note_off_c, 0, 88, 64
1, 290370, Note_on_c, 0, 69, 84
1, 290377, Note_on_c, 0, 60, 71
1, 290377, Control_c, 0, 64, 70
1, 290383, Note_on_c, 0, 81, 33
1, 290392, Control_c, 0, 64, 81
1, 290394, Note_off_c, 0, 69, 68
1, 290404, Note_off_c, 0, 66, 66
1, 290406, Control_c, 0, 64, 98
1, 290411, Note_off_c, 0, 60, 65
1, 290415, Note_off_c, 0, 81, 47
1, 290428, Control_c, 0, 64, 127
1, 290440, Note_on_c, 0, 61, 3
1, 290454, Note_on_c, 0, 75, 93
1, 290458, Note_on_c, 0, 87, 92
1, 290479, Note_off_c, 0, 61, 46
1, 290502, Note_off_c, 0, 75, 65
1, 290507, Note_off_c, 0, 87, 65
1, 290524, Note_on_c, 0, 40, 73
1, 290535, Note_on_c, 0, 86, 83
1, 290542, Note_on_c, 0, 74, 85
1, 290549, Note_off_c, 0, 40, 61
1, 290567, Note_off_c, 0, 74, 67
1, 290582, Note_off_c, 0, 86, 68
1, 290621, Control_c, 0, 64, 95
1, 290630, Note_on_c, 0, 85, 98
1, 290633, Note_on_c, 0, 73, 95
1, 290636, Control_c, 0, 64, 68
1, 290648, Note_on_c, 0, 68, 83
1, 290650, Control_c, 0, 64, 53
1, 290652, Note_on_c, 0, 61, 78
1, 290665, Control_c, 0, 64, 49
1, 290672, Note_off_c, 0, 73, 65
1, 290675, Note_off_c, 0, 85, 62
1, 290678, Note_off_c, 0, 68, 62
1, 290680, Control_c, 0, 64, 53
1, 290695, Control_c, 0, 64, 59
1, 290710, Note_off_c, 0, 61, 64
1, 290711, Control_c, 0, 64, 63
1, 290713, Note_on_c, 0, 71, 93
1, 290714, Note_on_c, 0, 83, 90
1, 290726, Control_c, 0, 64, 65
1, 290740, Control_c, 0, 64, 68
1, 290743, Note_off_c, 0, 71, 67
1, 290755, Control_c, 0, 64, 71
1, 290756, Note_off_c, 0, 83, 66
1, 290762, Note_on_c, 0, 52, 72
1, 290770, Control_c, 0, 64, 74
1, 290785, Control_c, 0, 64, 76
1, 290792, Note_on_c, 0, 73, 90
1, 290792, Note_on_c, 0, 85, 98
1, 290800, Control_c, 0, 64, 75
1, 290815, Control_c, 0, 64, 69
1, 290820, Note_off_c, 0, 73, 63
1, 290821, Note_off_c, 0, 85, 68
1, 290830, Control_c, 0, 64, 58
1, 290845, Control_c, 0, 64, 0
1, 290877, Note_on_c, 0, 80, 98
1, 290881, Note_on_c, 0, 59, 72
1, 290881, Note_on_c, 0, 65, 87
1, 290881, Note_on_c, 0, 68, 100
1, 290882, Note_on_c, 0, 62, 77
1, 290888, Note_on_c, 0, 71, 65
1, 290888, Note_on_c, 0, 72, 55
1, 290904, Control_c, 0, 64, 40
1, 290919, Control_c, 0, 64, 59
1, 290934, Control_c, 0, 64, 71
1, 290943, Note_off_c, 0, 65, 60
1, 290948, Control_c, 0, 64, 87
1, 290954, Note_off_c, 0, 62, 62
1, 290955, Note_off_c, 0, 59, 62
1, 290963, Control_c, 0, 64, 104
1, 290963, Control_c, 0, 67, 60
1, 290970, Note_off_c, 0, 68, 66
1, 290978, Control_c, 0, 64, 118
1, 290978, Control_c, 0, 67, 95
1, 290991, Note_off_c, 0, 71, 31
1, 290993, Control_c, 0, 64, 127
1, 290993, Control_c, 0, 67, 119
1, 291008, Control_c, 0, 67, 127
1, 291018, Note_off_c, 0, 72, 62
1, 291030, Note_off_c, 0, 80, 60
1, 291111, Control_c, 0, 67, 124
1, 291126, Control_c, 0, 67, 121
1, 291141, Control_c, 0, 67, 118
1, 291155, Control_c, 0, 64, 117
1, 291155, Control_c, 0, 67, 114
1, 291158, Note_off_c, 0, 52, 31
1, 291178, Control_c, 0, 64, 76
1, 291178, Control_c, 0, 67, 109
1, 291179, Note_on_c, 0, 66, 99
1, 291183, Note_on_c, 0, 61, 84
1, 291188, Note_on_c, 0, 57, 68
1, 291193, Control_c, 0, 64, 55
1, 291193, Control_c, 0, 67, 106
1, 291208, Control_c, 0, 64, 0
1, 291208, Control_c, 0, 67, 101
1, 291223, Control_c, 0, 67, 90
1, 291237, Control_c, 0, 64, 41
1, 291237, Control_c, 0, 67, 68
1, 291240, Note_on_c, 0, 81, 96
1, 291241, Note_on_c, 0, 93, 94
1, 291242, Note_on_c, 0, 85, 94
1, 291252, Control_c, 0, 64, 58
1, 291252, Control_c, 0, 67, 0
1, 291254, Note_on_c, 0, 90, 52
1, 291254, Note_off_c, 0, 66, 64
1, 291262, Note_on_c, 0, 91, 67
1, 291267, Control_c, 0, 64, 67
1, 291268, Note_off_c, 0, 85, 66
1, 291276, Note_off_c, 0, 81, 63
1, 291276, Note_off_c, 0, 90, 58
1, 291280, Note_off_c, 0, 91, 65
1, 291281, Control_c, 0, 64, 74
1, 291286, Note_off_c, 0, 93, 64
1, 291296, Control_c, 0, 64, 81
1, 291307, Note_on_c, 0, 52, 72
1, 291311, Control_c, 0, 64, 86
1, 291315, Note_on_c, 0, 95, 102
1, 291322, Note_on_c, 0, 83, 94
1, 291326, Control_c, 0, 64, 93
1, 291328, Note_on_c, 0, 93, 71
1, 291333, Note_on_c, 0, 84, 79
1, 291341, Control_c, 0, 64, 102
1, 291343, Note_off_c, 0, 57, 53
1, 291354, Note_off_c, 0, 93, 65
1, 291354, Note_off_c, 0, 61, 61
1, 291355, Control_c, 0, 64, 127
1, 291370, Note_off_c, 0, 52, 61
1, 291381, Note_off_c, 0, 83, 62
1, 291385, Note_off_c, 0, 95, 65
1, 291410, Note_off_c, 0, 84, 28
1, 291411, Note_on_c, 0, 57, 49
1, 291411, Note_on_c, 0, 66, 98
1, 291419, Note_on_c, 0, 61, 72
1, 291450, Note_off_c, 0, 66, 66
1, 291452, Note_off_c, 0, 61, 67
1, 291454, Note_off_c, 0, 57, 65
1, 291495, Note_on_c, 0, 84, 91
1, 291496, Note_on_c, 0, 90, 83
1, 291497, Note_on_c, 0, 96, 94
1, 291520, Note_off_c, 0, 90, 66
1, 291530, Note_off_c, 0, 84, 68
1, 291531, Note_off_c, 0, 96, 68
1, 291571, Note_on_c, 0, 40, 78
1, 291581, Note_on_c, 0, 97, 102
1, 291585, Note_on_c, 0, 85, 97
1, 291599, Note_off_c, 0, 40, 65
1, 291603, Poly_aftertouch_c, 0, 86, 0
1, 291620, Note_off_c, 0, 85, 66
1, 291626, Note_on_c, 0, 94, 25
1, 291653, Note_off_c, 0, 97, 62
1, 291656, Note_off_c, 0, 94, 61
1, 291727, Control_c, 0, 64, 85
1, 291742, Control_c, 0, 64, 61
1, 291742, Note_on_c, 0, 90, 95
1, 291745, Note_on_c, 0, 93, 91
1, 291748, Note_on_c, 0, 102, 97
1, 291750, Note_on_c, 0, 69, 90
1, 291755, Note_on_c, 0, 63, 85
1, 291757, Control_c, 0, 64, 50
1, 291768, Note_off_c, 0, 93, 64
1, 291769, Note_on_c, 0, 59, 62
1, 291771, Control_c, 0, 64, 56
1, 291775, Note_on_c, 0, 99, 40
1, 291775, Note_off_c, 0, 99, 127
1, 291786, Control_c, 0, 64, 64
1, 291789, Note_off_c, 0, 90, 65
1, 291791, Note_off_c, 0, 102, 66
1, 291801, Control_c, 0, 64, 75
1, 291816, Control_c, 0, 64, 90
1, 291819, Note_off_c, 0, 69, 59
1, 291822, Note_on_c, 0, 101, 91
1, 291830, Control_c, 0, 64, 99
1, 291831, Poly_aftertouch_c, 0, 67, 127
1, 291836, Note_on_c, 0, 89, 88
1, 291858, Note_on_c, 0, 52, 80
1, 291860, Control_c, 0, 64, 101
1, 291867, Note_off_c, 0, 63, 40
1, 291869, Poly_aftertouch_c, 0, 67, 0
1, 291879, Note_off_c, 0, 89, 64
1, 291885, Note_off_c, 0, 101, 66
1, 291888, Note_off_c, 0, 59, 36
1, 291892, Note_off_c, 0, 52, 59
1, 291907, Note_on_c, 0, 100, 87
1, 291933, Note_on_c, 0, 88, 72
1, 291942, Control_c, 0, 64, 104
1, 291952, Note_off_c, 0, 88, 67
1, 291957, Control_c, 0, 64, 106
1, 291961, Note_off_c, 0, 100, 67
1, 291972, Control_c, 0, 64, 108
1, 291974, Note_on_c, 0, 69, 80
1, 291977, Note_on_c, 0, 63, 80
1, 291980, Note_on_c, 0, 59, 58
1, 291986, Control_c, 0, 64, 112
1, 291993, Note_off_c, 0, 69, 68
1, 292001, Control_c, 0, 64, 117
1, 292004, Note_off_c, 0, 63, 65
1, 292007, Note_on_c, 0, 87, 85
1, 292007, Note_on_c, 0, 99, 89
1, 292013, Note_off_c, 0, 59, 68
1, 292016, Control_c, 0, 64, 124
1, 292023, Note_on_c, 0, 94, 52
1, 292030, Control_c, 0, 64, 127
1, 292047, Note_off_c, 0, 94, 55
1, 292052, Note_off_c, 0, 99, 63
1, 292055, Note_off_c, 0, 87, 64
1, 292094, Note_on_c, 0, 98, 93
1, 292096, Note_on_c, 0, 86, 92
1, 292117, Note_off_c, 0, 86, 66
1, 292120, Note_on_c, 0, 40, 74
1, 292138, Note_off_c, 0, 98, 68
1, 292150, Note_off_c, 0, 40, 63
1, 292174, Note_on_c, 0, 85, 100
1, 292180, Note_on_c, 0, 92, 71
1, 292182, Note_on_c, 0, 97, 90
1, 292204, Note_off_c, 0, 92, 69
1, 292205, Note_off_c, 0, 97, 66
1, 292213, Note_off_c, 0, 85, 66
1, 292237, Control_c, 0, 64, 101
1, 292252, Control_c, 0, 64, 65
1, 292261, Note_on_c, 0, 84, 98
1, 292265, Note_on_c, 0, 96, 99
1, 292267, Control_c, 0, 64, 0
1, 292276, Note_on_c, 0, 59, 82
1, 292278, Note_on_c, 0, 68, 92
1, 292293, Note_on_c, 0, 86, 47
1, 292295, Note_on_c, 0, 64, 68
1, 292301, Note_off_c, 0, 84, 66
1, 292302, Note_off_c, 0, 96, 71
1, 292313, Control_c, 0, 64, 45
1, 292321, Note_off_c, 0, 86, 38
1, 292326, Note_off_c, 0, 64, 66
1, 292326, Note_off_c, 0, 68, 65
1, 292327, Control_c, 0, 64, 60
1, 292338, Note_on_c, 0, 95, 97
1, 292340, Note_on_c, 0, 83, 93
1, 292342, Control_c, 0, 64, 68
1, 292357, Control_c, 0, 64, 73
1, 292369, Note_off_c, 0, 83, 65
1, 292372, Control_c, 0, 64, 80
1, 292379, Note_off_c, 0, 95, 68
1, 292387, Control_c, 0, 64, 92
1, 292389, Note_on_c, 0, 52, 72
1, 292390, Note_off_c, 0, 59, 60
1, 292401, Control_c, 0, 64, 127
1, 292417, Note_off_c, 0, 52, 64
1, 292424, Note_on_c, 0, 100, 104
1, 292425, Note_on_c, 0, 88, 94
1, 292432, Note_on_c, 0, 86, 69
1, 292448, Note_off_c, 0, 86, 65
1, 292520, Control_c, 0, 64, 79
1, 292525, Note_on_c, 0, 66, 91
1, 292525, Note_on_c, 0, 69, 96
1, 292525, Note_on_c, 0, 92, 65
1, 292526, Note_off_c, 0, 88, 65
1, 292535, Control_c, 0, 64, 57
1, 292535, Note_on_c, 0, 60, 72
1, 292549, Note_off_c, 0, 100, 64
1, 292550, Control_c, 0, 64, 44
1, 292558, Note_off_c, 0, 69, 62
1, 292559, Note_off_c, 0, 92, 66
1, 292562, Note_off_c, 0, 66, 67
1, 292565, Control_c, 0, 64, 50
1, 292568, Note_off_c, 0, 60, 68
1, 292578, Note_on_c, 0, 61, 6
1, 292578, Note_off_c, 0, 61, 127
1, 292580, Control_c, 0, 64, 62
1, 292594, Control_c, 0, 64, 74
1, 292609, Control_c, 0, 64, 100
1, 292612, Note_on_c, 0, 87, 97
1, 292614, Note_on_c, 0, 99, 100
1, 292624, Control_c, 0, 64, 127
1, 292627, Poly_aftertouch_c, 0, 61, 0
1, 292660, Note_off_c, 0, 87, 66
1, 292675, Note_off_c, 0, 99, 63
1, 292691, Note_on_c, 0, 40, 82
1, 292721, Note_off_c, 0, 40, 65
1, 292721, Note_on_c, 0, 98, 99
1, 292726, Note_on_c, 0, 86, 101
1, 292764, Note_off_c, 0, 86, 69
1, 292773, Note_off_c, 0, 98, 66
1, 292853, Note_on_c, 0, 97, 103
1, 292854, Note_on_c, 0, 68, 99
1, 292854, Note_on_c, 0, 85, 102
1, 292860, Note_on_c, 0, 61, 85
1, 292868, Note_on_c, 0, 64, 72
1, 292894, Note_off_c, 0, 64, 67
1, 292913, Note_off_c, 0, 61, 61
1, 292916, Note_off_c, 0, 68, 58
1, 292916, Note_off_c, 0, 97, 64
1, 292920, Note_off_c, 0, 85, 60
1, 292922, Note_on_c, 0, 98, 8
1, 292922, Note_off_c, 0, 98, 127
1, 292988, Note_on_c, 0, 95, 99
1, 292989, Note_on_c, 0, 83, 106
1, 293009, Note_on_c, 0, 52, 75
1, 293029, Note_on_c, 0, 94, 39
1, 293039, Note_off_c, 0, 83, 63
1, 293047, Note_off_c, 0, 52, 62
1, 293050, Note_off_c, 0, 95, 64
1, 293066, Note_off_c, 0, 94, 43
1, 293131, Note_on_c, 0, 85, 105
1, 293134, Note_on_c, 0, 97, 101
1, 293164, Note_off_c, 0, 97, 68
1, 293182, Note_off_c, 0, 85, 61
1, 293471, Note_on_c, 0, 92, 110
1, 293472, Note_on_c, 0, 80, 110
1, 293474, Note_on_c, 0, 83, 93
1, 293474, Note_on_c, 0, 62, 80
1, 293476, Note_on_c, 0, 74, 96
1, 293478, Note_on_c, 0, 71, 87
1, 293482, Note_on_c, 0, 65, 71
1, 293482, Note_on_c, 0, 89, 80
1, 293483, Control_c, 0, 64, 98
1, 293498, Control_c, 0, 64, 54
1, 293513, Control_c, 0, 64, 0
1, 293572, Control_c, 0, 64, 35
1, 293587, Control_c, 0, 64, 54
1, 293601, Control_c, 0, 64, 68
1, 293616, Control_c, 0, 64, 78
1, 293622, Note_off_c, 0, 74, 64
1, 293631, Control_c, 0, 64, 93
1, 293646, Control_c, 0, 64, 120
1, 293661, Control_c, 0, 64, 127
1, 293695, Note_off_c, 0, 71, 52
1, 293721, Note_off_c, 0, 65, 58
1, 293722, Note_off_c, 0, 62, 57
1, 293801, Note_off_c, 0, 92, 62
1, 293820, Note_off_c, 0, 89, 58
1, 293866, Note_off_c, 0, 83, 55
1, 293895, Note_off_c, 0, 80, 56
1, 294181, Note_on_c, 0, 44, 82
1, 294182, Note_on_c, 0, 37, 88
1, 294217, Control_c, 0, 64, 84
1, 294231, Control_c, 0, 64, 58
1, 294246, Control_c, 0, 64, 0
1, 294246, Control_c, 0, 67, 42
1, 294261, Control_c, 0, 67, 120
1, 294276, Control_c, 0, 64, 34
1, 294276, Control_c, 0, 67, 127
1, 294291, Control_c, 0, 64, 53
1, 294306, Control_c, 0, 64, 65
1, 294320, Control_c, 0, 64, 73
1, 294335, Control_c, 0, 64, 77
1, 294350, Control_c, 0, 64, 79
1, 294365, Control_c, 0, 64, 81
1, 294380, Control_c, 0, 64, 83
1, 294395, Control_c, 0, 64, 84
1, 294410, Control_c, 0, 64, 85
1, 294424, Control_c, 0, 64, 86
1, 294456, Note_off_c, 0, 44, 58
1, 294484, Control_c, 0, 64, 86
1, 294510, Note_off_c, 0, 37, 54
1, 294529, Note_on_c, 0, 45, 58
1, 294543, Note_on_c, 0, 54, 49
1, 294558, Note_on_c, 0, 49, 31
1, 294635, Note_off_c, 0, 49, 48
1, 294655, Note_off_c, 0, 54, 55
1, 294712, Note_on_c, 0, 53, 53
1, 294713, Note_off_c, 0, 45, 36
1, 294718, Note_on_c, 0, 37, 40
1, 294840, Note_off_c, 0, 37, 34
1, 294872, Note_off_c, 0, 53, 55
1, 294878, Note_on_c, 0, 57, 55
1, 294883, Note_on_c, 0, 54, 48
1, 294890, Note_on_c, 0, 45, 40
1, 294929, Note_off_c, 0, 57, 61
1, 294939, Note_off_c, 0, 54, 61
1, 295016, Note_on_c, 0, 56, 66
1, 295027, Note_off_c, 0, 45, 54
1, 295086, Note_on_c, 0, 37, 46
1, 295100, Control_c, 0, 64, 87
1, 295115, Control_c, 0, 64, 87
1, 295119, Note_off_c, 0, 56, 57
1, 295125, Note_on_c, 0, 57, 55
1, 295127, Note_on_c, 0, 61, 53
1, 295129, Control_c, 0, 64, 88
1, 295138, Note_off_c, 0, 37, 60
1, 295144, Control_c, 0, 64, 89
1, 295159, Control_c, 0, 64, 91
1, 295174, Control_c, 0, 64, 93
1, 295179, Note_on_c, 0, 45, 41
1, 295189, Control_c, 0, 64, 95
1, 295200, Note_off_c, 0, 57, 55
1, 295215, Note_off_c, 0, 45, 47
1, 295218, Control_c, 0, 64, 97
1, 295242, Note_off_c, 0, 61, 61
1, 295248, Control_c, 0, 64, 94
1, 295260, Note_on_c, 0, 37, 57
1, 295262, Note_on_c, 0, 59, 70
1, 295262, Control_c, 0, 64, 87
1, 295277, Control_c, 0, 64, 81
1, 295292, Control_c, 0, 64, 79
1, 295352, Control_c, 0, 64, 80
1, 295364, Note_on_c, 0, 63, 69
1, 295366, Note_off_c, 0, 59, 64
1, 295366, Control_c, 0, 64, 81
1, 295376, Note_on_c, 0, 44, 64
1, 295376, Note_on_c, 0, 60, 66
1, 295381, Control_c, 0, 64, 82
1, 295410, Note_off_c, 0, 37, 61
1, 295444, Note_on_c, 0, 61, 75
1, 295465, Note_off_c, 0, 60, 60
1, 295468, Note_on_c, 0, 49, 73
1, 295476, Note_off_c, 0, 63, 62
1, 295486, Note_on_c, 0, 58, 69
1, 295503, Note_off_c, 0, 61, 63
1, 295506, Note_off_c, 0, 44, 62
1, 295515, Note_off_c, 0, 58, 68
1, 295554, Note_off_c, 0, 49, 62
1, 295558, Note_on_c, 0, 60, 89
1, 295559, Note_on_c, 0, 56, 80
1, 295615, Note_off_c, 0, 56, 63
1, 295632, Note_on_c, 0, 55, 78
1, 295651, Note_on_c, 0, 49, 66
1, 295675, Note_off_c, 0, 60, 58
1, 295724, Note_on_c, 0, 44, 65
1, 295724, Note_off_c, 0, 55, 63
1, 295727, Note_on_c, 0, 58, 71
1, 295731, Note_on_c, 0, 54, 65
1, 295734, Note_off_c, 0, 49, 60
1, 295775, Control_c, 0, 64, 81
1, 295790, Control_c, 0, 64, 80
1, 295799, Note_off_c, 0, 44, 58
1, 295802, Note_off_c, 0, 54, 56
1, 295805, Control_c, 0, 64, 79
1, 295808, Note_off_c, 0, 58, 62
1, 295819, Control_c, 0, 64, 76
1, 295825, Note_on_c, 0, 52, 77
1, 295826, Note_on_c, 0, 37, 63
1, 295834, Control_c, 0, 64, 72
1, 295849, Control_c, 0, 64, 67
1, 295864, Control_c, 0, 64, 62
1, 295878, Control_c, 0, 64, 59
1, 295892, Note_off_c, 0, 37, 59
1, 295892, Note_off_c, 0, 52, 60
1, 295893, Control_c, 0, 64, 57
1, 295903, Note_on_c, 0, 56, 68
1, 295908, Control_c, 0, 64, 56
1, 295909, Note_on_c, 0, 53, 60
1, 295911, Note_on_c, 0, 44, 61
1, 295941, Note_off_c, 0, 53, 64
1, 295959, Note_off_c, 0, 44, 61
1, 295963, Note_off_c, 0, 56, 62
1, 295988, Note_on_c, 0, 55, 75
1, 295992, Note_on_c, 0, 37, 67
1, 295996, Control_c, 0, 64, 56
1, 296026, Control_c, 0, 64, 55
1, 296041, Note_off_c, 0, 55, 57
1, 296049, Note_off_c, 0, 37, 59
1, 296061, Note_on_c, 0, 60, 74
1, 296065, Note_on_c, 0, 56, 64
1, 296067, Note_on_c, 0, 44, 58
1, 296085, Control_c, 0, 64, 55
1, 296099, Note_off_c, 0, 56, 65
1, 296112, Note_off_c, 0, 44, 63
1, 296115, Note_off_c, 0, 60, 61
1, 296135, Note_on_c, 0, 59, 77
1, 296145, Note_on_c, 0, 37, 65
1, 296175, Control_c, 0, 64, 55
1, 296201, Note_off_c, 0, 37, 55
1, 296207, Note_off_c, 0, 59, 62
1, 296213, Note_on_c, 0, 63, 64
1, 296216, Note_on_c, 0, 44, 58
1, 296220, Note_on_c, 0, 60, 66
1, 296258, Note_off_c, 0, 60, 64
1, 296268, Note_off_c, 0, 44, 62
1, 296294, Note_on_c, 0, 37, 68
1, 296298, Note_off_c, 0, 63, 63
1, 296308, Note_on_c, 0, 60, 66
1, 296324, Control_c, 0, 64, 56
1, 296339, Control_c, 0, 64, 56
1, 296353, Control_c, 0, 64, 59
1, 296368, Control_c, 0, 64, 61
1, 296369, Note_on_c, 0, 44, 71
1, 296382, Note_on_c, 0, 65, 70
1, 296383, Control_c, 0, 64, 64
1, 296389, Note_off_c, 0, 37, 63
1, 296390, Note_on_c, 0, 61, 78
1, 296395, Note_off_c, 0, 60, 65
1, 296398, Control_c, 0, 64, 68
1, 296419, Control_c, 0, 64, 74
1, 296427, Note_on_c, 0, 63, 76
1, 296434, Control_c, 0, 64, 79
1, 296449, Control_c, 0, 64, 84
1, 296458, Note_on_c, 0, 49, 82
1, 296464, Control_c, 0, 64, 88
1, 296479, Note_off_c, 0, 61, 62
1, 296479, Control_c, 0, 64, 90
1, 296485, Note_on_c, 0, 60, 90
1, 296487, Note_off_c, 0, 63, 63
1, 296487, Note_off_c, 0, 65, 59
1, 296494, Control_c, 0, 64, 92
1, 296497, Note_off_c, 0, 44, 61
1, 296527, Note_off_c, 0, 60, 66
1, 296538, Control_c, 0, 64, 92
1, 296542, Note_on_c, 0, 56, 91
1, 296551, Note_on_c, 0, 61, 86
1, 296557, Note_off_c, 0, 49, 63
1, 296558, Note_on_c, 0, 58, 87
1, 296613, Control_c, 0, 64, 92
1, 296623, Note_off_c, 0, 56, 61
1, 296632, Note_on_c, 0, 57, 88
1, 296634, Note_off_c, 0, 58, 62
1, 296641, Note_on_c, 0, 49, 71
1, 296655, Note_off_c, 0, 61, 63
1, 296689, Note_off_c, 0, 57, 62
1, 296701, Control_c, 0, 64, 90
1, 296709, Note_on_c, 0, 60, 63
1, 296716, Control_c, 0, 64, 87
1, 296720, Note_on_c, 0, 56, 76
1, 296725, Note_off_c, 0, 49, 57
1, 296731, Control_c, 0, 64, 80
1, 296735, Note_on_c, 0, 44, 64
1, 296746, Control_c, 0, 64, 71
1, 296761, Control_c, 0, 64, 61
1, 296775, Control_c, 0, 64, 50
1, 296780, Note_off_c, 0, 56, 59
1, 296790, Control_c, 0, 64, 41
1, 296791, Note_off_c, 0, 44, 54
1, 296799, Note_on_c, 0, 53, 74
1, 296801, Note_off_c, 0, 60, 58
1, 296805, Control_c, 0, 64, 34
1, 296818, Note_on_c, 0, 37, 60
1, 296819, Control_c, 0, 64, 29
1, 296834, Control_c, 0, 64, 0
1, 296863, Note_off_c, 0, 53, 62
1, 296874, Note_off_c, 0, 37, 62
1, 296875, Note_on_c, 0, 54, 58
1, 296879, Note_on_c, 0, 58, 68
1, 296900, Note_off_c, 0, 54, 65
1, 296903, Note_on_c, 0, 44, 56
1, 296927, Note_off_c, 0, 58, 61
1, 296943, Note_off_c, 0, 44, 63
1, 296953, Note_on_c, 0, 57, 68
1, 296979, Note_on_c, 0, 37, 57
1, 296989, Note_off_c, 0, 57, 62
1, 297019, Note_on_c, 0, 61, 69
1, 297026, Note_off_c, 0, 37, 62
1, 297038, Note_on_c, 0, 44, 55
1, 297040, Note_on_c, 0, 58, 45
1, 297056, Note_off_c, 0, 61, 65
1, 297057, Control_c, 0, 64, 30
1, 297066, Note_off_c, 0, 58, 54
1, 297072, Control_c, 0, 64, 33
1, 297085, Note_off_c, 0, 44, 62
1, 297087, Control_c, 0, 64, 36
1, 297101, Note_on_c, 0, 60, 75
1, 297102, Control_c, 0, 64, 38
1, 297116, Note_on_c, 0, 37, 62
1, 297117, Control_c, 0, 64, 40
1, 297131, Control_c, 0, 64, 42
1, 297146, Control_c, 0, 64, 45
1, 297169, Control_c, 0, 64, 50
1, 297177, Note_off_c, 0, 60, 59
1, 297179, Note_on_c, 0, 61, 71
1, 297182, Note_on_c, 0, 65, 69
1, 297183, Note_on_c, 0, 44, 64
1, 297184, Control_c, 0, 64, 54
1, 297188, Note_off_c, 0, 37, 61
1, 297198, Control_c, 0, 64, 57
1, 297213, Control_c, 0, 64, 58
1, 297228, Control_c, 0, 64, 59
1, 297242, Control_c, 0, 64, 59
1, 297244, Note_off_c, 0, 61, 63
1, 297249, Note_off_c, 0, 65, 61
1, 297254, Note_off_c, 0, 44, 62
1, 297257, Control_c, 0, 64, 60
1, 297265, Note_on_c, 0, 62, 76
1, 297266, Note_on_c, 0, 37, 72
1, 297272, Control_c, 0, 64, 62
1, 297287, Control_c, 0, 64, 64
1, 297302, Control_c, 0, 64, 66
1, 297316, Control_c, 0, 64, 68
1, 297331, Control_c, 0, 64, 72
1, 297337, Note_on_c, 0, 44, 73
1, 297339, Note_off_c, 0, 62, 60
1, 297341, Note_on_c, 0, 66, 82
1, 297344, Note_on_c, 0, 63, 83
1, 297346, Control_c, 0, 64, 76
1, 297349, Note_off_c, 0, 37, 62
1, 297361, Control_c, 0, 64, 81
1, 297376, Control_c, 0, 64, 89
1, 297386, Note_on_c, 0, 65, 66
1, 297391, Control_c, 0, 64, 97
1, 297405, Note_on_c, 0, 49, 84
1, 297406, Control_c, 0, 64, 106
1, 297421, Control_c, 0, 64, 115
1, 297436, Control_c, 0, 64, 122
1, 297436, Note_on_c, 0, 61, 89
1, 297436, Note_off_c, 0, 66, 61
1, 297438, Note_off_c, 0, 63, 57
1, 297444, Note_off_c, 0, 65, 63
1, 297449, Note_off_c, 0, 44, 63
1, 297450, Control_c, 0, 64, 124
1, 297468, Note_off_c, 0, 61, 64
1, 297481, Note_on_c, 0, 56, 90
1, 297496, Note_off_c, 0, 49, 63
1, 297509, Control_c, 0, 64, 122
1, 297510, Note_on_c, 0, 60, 68
1, 297513, Note_on_c, 0, 62, 77
1, 297513, Note_on_c, 0, 59, 73
1, 297562, Note_off_c, 0, 56, 61
1, 297568, Control_c, 0, 64, 118
1, 297572, Note_on_c, 0, 49, 74
1, 297583, Control_c, 0, 64, 116
1, 297594, Note_off_c, 0, 62, 62
1, 297612, Control_c, 0, 64, 114
1, 297630, Note_off_c, 0, 59, 65
1, 297632, Note_off_c, 0, 60, 50
1, 297650, Note_on_c, 0, 44, 69
1, 297659, Note_off_c, 0, 49, 61
1, 297662, Note_on_c, 0, 61, 80
1, 297665, Note_on_c, 0, 58, 79
1, 297686, Control_c, 0, 64, 104
1, 297689, Note_off_c, 0, 58, 68
1, 297701, Control_c, 0, 64, 83
1, 297712, Note_off_c, 0, 61, 62
1, 297716, Control_c, 0, 64, 63
1, 297728, Note_off_c, 0, 44, 61
1, 297731, Control_c, 0, 64, 33
1, 297731, Control_c, 0, 67, 83
1, 297738, Note_on_c, 0, 37, 76
1, 297746, Control_c, 0, 64, 0
1, 297746, Control_c, 0, 67, 0
1, 297751, Note_on_c, 0, 64, 91
1, 297790, Control_c, 0, 64, 34
1, 297805, Control_c, 0, 64, 48
1, 297820, Control_c, 0, 64, 59
1, 297821, Note_on_c, 0, 65, 67
1, 297821, Note_on_c, 0, 68, 81
1, 297823, Note_on_c, 0, 44, 72
1, 297826, Note_off_c, 0, 37, 62
1, 297834, Control_c, 0, 64, 64
1, 297849, Control_c, 0, 64, 65
1, 297860, Note_off_c, 0, 64, 54
1, 297864, Control_c, 0, 64, 68
1, 297875, Note_on_c, 0, 66, 79
1, 297879, Control_c, 0, 64, 72
1, 297885, Note_off_c, 0, 65, 62
1, 297889, Note_on_c, 0, 49, 75
1, 297895, Control_c, 0, 64, 78
1, 297916, Note_off_c, 0, 44, 62
1, 297917, Control_c, 0, 64, 86
1, 297918, Note_on_c, 0, 63, 95
1, 297927, Note_off_c, 0, 68, 59
1, 297932, Control_c, 0, 64, 93
1, 297938, Note_off_c, 0, 66, 63
1, 297946, Control_c, 0, 64, 100
1, 297954, Note_off_c, 0, 63, 67
1, 297961, Control_c, 0, 64, 107
1, 297966, Note_off_c, 0, 49, 62
1, 297974, Note_on_c, 0, 56, 93
1, 297976, Control_c, 0, 64, 109
1, 297988, Note_on_c, 0, 61, 91
1, 297990, Note_on_c, 0, 65, 94
1, 298006, Control_c, 0, 64, 111
1, 298047, Note_off_c, 0, 61, 57
1, 298053, Note_off_c, 0, 56, 61
1, 298058, Note_on_c, 0, 49, 74
1, 298062, Note_on_c, 0, 59, 92
1, 298079, Note_off_c, 0, 65, 60
1, 298133, Note_on_c, 0, 44, 70
1, 298139, Note_off_c, 0, 49, 61
1, 298139, Control_c, 0, 64, 109
1, 298139, Note_on_c, 0, 60, 78
1, 298142, Note_off_c, 0, 59, 65
1, 298147, Note_on_c, 0, 63, 77
1, 298154, Control_c, 0, 64, 96
1, 298167, Note_off_c, 0, 60, 66
1, 298169, Control_c, 0, 64, 75
1, 298184, Control_c, 0, 64, 53
1, 298191, Note_off_c, 0, 63, 63
1, 298198, Control_c, 0, 64, 0
1, 298208, Note_off_c, 0, 44, 62
1, 298212, Note_on_c, 0, 37, 81
1, 298231, Note_on_c, 0, 65, 93
1, 298258, Control_c, 0, 64, 32
1, 298272, Control_c, 0, 64, 50
1, 298287, Control_c, 0, 64, 64
1, 298295, Note_off_c, 0, 37, 61
1, 298298, Note_on_c, 0, 44, 62
1, 298302, Note_on_c, 0, 70, 80
1, 298302, Control_c, 0, 64, 68
1, 298312, Note_on_c, 0, 66, 83
1, 298313, Note_off_c, 0, 65, 61
1, 298317, Control_c, 0, 64, 71
1, 298332, Control_c, 0, 64, 73
1, 298338, Note_on_c, 0, 68, 54
1, 298346, Control_c, 0, 64, 76
1, 298356, Note_on_c, 0, 49, 75
1, 298361, Control_c, 0, 64, 80
1, 298369, Note_off_c, 0, 68, 66
1, 298372, Note_off_c, 0, 66, 64
1, 298376, Control_c, 0, 64, 86
1, 298383, Note_off_c, 0, 70, 65
1, 298390, Control_c, 0, 64, 96
1, 298392, Note_on_c, 0, 65, 73
1, 298395, Note_off_c, 0, 44, 59
1, 298397, Note_on_c, 0, 64, 84
1, 298405, Control_c, 0, 64, 108
1, 298415, Note_off_c, 0, 49, 64
1, 298420, Control_c, 0, 64, 127
1, 298421, Note_off_c, 0, 64, 68
1, 298424, Note_off_c, 0, 65, 63
1, 298430, Note_on_c, 0, 56, 81
1, 298466, Note_on_c, 0, 66, 77
1, 298479, Note_on_c, 0, 64, 61
1, 298489, Note_off_c, 0, 56, 62
1, 298503, Note_off_c, 0, 64, 71
1, 298513, Note_on_c, 0, 49, 64
1, 298532, Note_on_c, 0, 62, 89
1, 298548, Note_off_c, 0, 66, 60
1, 298552, Note_on_c, 0, 67, 53
1, 298558, Note_off_c, 0, 49, 58
1, 298571, Note_on_c, 0, 44, 66
1, 298609, Note_on_c, 0, 63, 84
1, 298613, Note_off_c, 0, 62, 64
1, 298618, Note_off_c, 0, 67, 64
1, 298658, Control_c, 0, 64, 89
1, 298670, Note_off_c, 0, 63, 63
1, 298679, Control_c, 0, 64, 62
1, 298682, Note_off_c, 0, 44, 55
1, 298695, Control_c, 0, 64, 0
1, 298727, Note_on_c, 0, 37, 69
1, 298738, Note_on_c, 0, 61, 93
1, 298755, Control_c, 0, 64, 41
1, 298769, Control_c, 0, 64, 59
1, 298784, Control_c, 0, 64, 68
1, 298799, Control_c, 0, 64, 77
1, 298806, Note_off_c, 0, 37, 63
1, 298813, Control_c, 0, 64, 86
1, 298818, Note_on_c, 0, 49, 69
1, 298824, Note_on_c, 0, 62, 68
1, 298825, Note_off_c, 0, 61, 62
1, 298828, Control_c, 0, 64, 91
1, 298842, Note_on_c, 0, 66, 65
1, 298843, Control_c, 0, 64, 92
1, 298848, Note_off_c, 0, 49, 65
1, 298851, Note_off_c, 0, 62, 66
1, 298858, Control_c, 0, 64, 89
1, 298873, Control_c, 0, 64, 74
1, 298887, Control_c, 0, 64, 52
1, 298890, Note_off_c, 0, 66, 60
1, 298902, Control_c, 0, 64, 0
1, 298906, Note_on_c, 0, 57, 84
1, 298920, Note_on_c, 0, 65, 86
1, 298959, Note_off_c, 0, 57, 65
1, 298974, Note_off_c, 0, 65, 63
1, 298984, Note_on_c, 0, 69, 80
1, 298992, Note_on_c, 0, 45, 60
1, 298992, Note_on_c, 0, 66, 80
1, 298992, Control_c, 0, 64, 58
1, 299000, Note_off_c, 0, 69, 70
1, 299006, Control_c, 0, 64, 74
1, 299019, Note_off_c, 0, 66, 66
1, 299019, Note_off_c, 0, 45, 54
1, 299021, Control_c, 0, 64, 93
1, 299036, Control_c, 0, 64, 127
1, 299063, Poly_aftertouch_c, 0, 43, 0
1, 299072, Note_on_c, 0, 68, 95
1, 299074, Note_on_c, 0, 54, 85
1, 299096, Poly_aftertouch_c, 0, 43, 0
1, 299133, Note_on_c, 0, 67, 40
1, 299135, Note_on_c, 0, 42, 72
1, 299135, Note_off_c, 0, 54, 63
1, 299146, Note_on_c, 0, 69, 67
1, 299150, Note_on_c, 0, 74, 84
1, 299164, Note_off_c, 0, 67, 53
1, 299164, Note_off_c, 0, 69, 72
1, 299173, Note_off_c, 0, 42, 66
1, 299177, Note_on_c, 0, 73, 16
1, 299192, Note_off_c, 0, 68, 26
1, 299197, Note_off_c, 0, 74, 65
1, 299199, Control_c, 0, 64, 73
1, 299213, Control_c, 0, 64, 0
1, 299220, Note_off_c, 0, 73, 43
1, 299235, Note_on_c, 0, 37, 87
1, 299247, Note_on_c, 0, 73, 89
1, 299287, Control_c, 0, 64, 52
1, 299302, Control_c, 0, 64, 71
1, 299315, Note_off_c, 0, 37, 61
1, 299317, Control_c, 0, 64, 80
1, 299328, Note_on_c, 0, 49, 80
1, 299328, Note_on_c, 0, 74, 86
1, 299332, Control_c, 0, 64, 86
1, 299334, Note_on_c, 0, 78, 80
1, 299339, Note_off_c, 0, 73, 61
1, 299347, Control_c, 0, 64, 89
1, 299355, Note_off_c, 0, 49, 67
1, 299361, Control_c, 0, 64, 94
1, 299370, Poly_aftertouch_c, 0, 36, 0
1, 299376, Control_c, 0, 64, 96
1, 299385, Note_off_c, 0, 74, 63
1, 299391, Control_c, 0, 64, 95
1, 299406, Control_c, 0, 64, 75
1, 299424, Note_off_c, 0, 78, 58
1, 299426, Note_on_c, 0, 62, 94
1, 299428, Control_c, 0, 64, 49
1, 299429, Note_on_c, 0, 73, 92
1, 299443, Control_c, 0, 64, 0
1, 299475, Note_off_c, 0, 73, 58
1, 299483, Note_off_c, 0, 62, 65
1, 299501, Note_on_c, 0, 74, 87
1, 299504, Note_on_c, 0, 50, 73
1, 299511, Note_on_c, 0, 71, 76
1, 299526, Note_off_c, 0, 50, 69
1, 299533, Control_c, 0, 64, 40
1, 299543, Note_on_c, 0, 48, 24
1, 299548, Control_c, 0, 64, 61
1, 299563, Control_c, 0, 64, 73
1, 299571, Note_off_c, 0, 71, 60
1, 299578, Control_c, 0, 64, 107
1, 299587, Note_on_c, 0, 66, 100
1, 299591, Note_on_c, 0, 70, 93
1, 299592, Control_c, 0, 64, 127
1, 299597, Note_off_c, 0, 48, 52
1, 299597, Note_off_c, 0, 74, 60
1, 299646, Note_off_c, 0, 66, 68
1, 299651, Note_on_c, 0, 54, 85
1, 299664, Note_on_c, 0, 73, 81
1, 299669, Note_on_c, 0, 69, 82
1, 299674, Note_off_c, 0, 54, 68
1, 299683, Note_off_c, 0, 70, 53
1, 299718, Note_off_c, 0, 69, 60
1, 299752, Note_off_c, 0, 73, 58
1, 299755, Control_c, 0, 64, 88
1, 299763, Note_on_c, 0, 67, 98
1, 299770, Control_c, 0, 64, 59
1, 299772, Note_on_c, 0, 37, 96
1, 299784, Control_c, 0, 64, 0
1, 299837, Note_off_c, 0, 37, 63
1, 299847, Note_on_c, 0, 68, 81
1, 299852, Note_on_c, 0, 49, 74
1, 299852, Note_on_c, 0, 71, 74
1, 299857, Note_off_c, 0, 67, 62
1, 299873, Control_c, 0, 64, 29
1, 299881, Note_off_c, 0, 49, 68
1, 299888, Control_c, 0, 64, 40
1, 299891, Note_off_c, 0, 71, 65
1, 299892, Note_off_c, 0, 68, 63
1, 299903, Control_c, 0, 64, 41
1, 299917, Control_c, 0, 64, 42
1, 299932, Control_c, 0, 64, 49
1, 299934, Note_on_c, 0, 59, 101
1, 299935, Note_on_c, 0, 70, 99
1, 299947, Control_c, 0, 64, 58
1, 299961, Control_c, 0, 64, 63
1, 299976, Control_c, 0, 64, 68
1, 299985, Note_off_c, 0, 59, 67
1, 299991, Control_c, 0, 64, 75
1, 300005, Note_on_c, 0, 74, 90
1, 300006, Control_c, 0, 64, 91
1, 300010, Note_on_c, 0, 47, 78
1, 300011, Note_on_c, 0, 71, 79
1, 300013, Note_off_c, 0, 70, 66
1, 300021, Control_c, 0, 64, 127
1, 300034, Note_off_c, 0, 47, 66
1, 300035, Note_off_c, 0, 71, 65
1, 300051, Note_off_c, 0, 74, 68
1, 300087, Note_on_c, 0, 56, 108
1, 300097, Note_on_c, 0, 73, 96
1, 300162, Note_on_c, 0, 44, 91
1, 300167, Note_off_c, 0, 56, 66
1, 300175, Note_on_c, 0, 78, 84
1, 300178, Note_on_c, 0, 75, 68
1, 300187, Note_off_c, 0, 73, 64
1, 300190, Note_on_c, 0, 74, 81
1, 300192, Note_off_c, 0, 44, 66
1, 300205, Note_off_c, 0, 75, 52
1, 300208, Note_off_c, 0, 74, 73
1, 300238, Note_off_c, 0, 78, 58
1, 300265, Control_c, 0, 64, 84
1, 300270, Note_on_c, 0, 76, 101
1, 300273, Note_on_c, 0, 37, 98
1, 300280, Control_c, 0, 64, 49
1, 300296, Control_c, 0, 64, 0
1, 300308, Note_on_c, 0, 35, 53
1, 300310, Note_on_c, 0, 36, 48
1, 300327, Note_off_c, 0, 37, 66
1, 300339, Note_off_c, 0, 35, 54
1, 300345, Note_on_c, 0, 44, 30
1, 300345, Note_off_c, 0, 36, 54
1, 300350, Note_on_c, 0, 80, 84
1, 300353, Note_on_c, 0, 77, 89
1, 300355, Note_off_c, 0, 76, 0
1, 300355, Control_c, 0, 64, 52
1, 300370, Control_c, 0, 64, 67
1, 300376, Note_off_c, 0, 44, 54
1, 300385, Control_c, 0, 64, 79
1, 300393, Poly_aftertouch_c, 0, 76, 127
1, 300400, Control_c, 0, 64, 98
1, 300406, Poly_aftertouch_c, 0, 76, 0
1, 300406, Note_off_c, 0, 77, 62
1, 300414, Control_c, 0, 64, 111
1, 300417, Note_on_c, 0, 61, 92
1, 300429, Control_c, 0, 64, 101
1, 300430, Note_on_c, 0, 74, 102
1, 300444, Control_c, 0, 64, 67
1, 300447, Note_off_c, 0, 80, 57
1, 300458, Control_c, 0, 64, 0
1, 300460, Note_off_c, 0, 61, 67
1, 300470, Note_off_c, 0, 74, 67
1, 300499, Note_on_c, 0, 77, 89
1, 300506, Note_on_c, 0, 73, 86
1, 300510, Note_on_c, 0, 49, 71
1, 300519, Control_c, 0, 64, 59
1, 300533, Control_c, 0, 64, 100
1, 300544, Note_off_c, 0, 49, 67
1, 300548, Control_c, 0, 64, 127
1, 300565, Note_off_c, 0, 73, 60
1, 300583, Note_on_c, 0, 72, 92
1, 300586, Note_on_c, 0, 48, 21
1, 300586, Note_on_c, 0, 65, 83
1, 300592, Note_off_c, 0, 77, 61
1, 300624, Note_off_c, 0, 48, 45
1, 300642, Note_off_c, 0, 72, 0
1, 300648, Note_off_c, 0, 65, 62
1, 300649, Note_on_c, 0, 53, 86
1, 300658, Note_on_c, 0, 74, 92
1, 300666, Note_on_c, 0, 71, 87
1, 300666, Poly_aftertouch_c, 0, 72, 0
1, 300686, Note_off_c, 0, 71, 68
1, 300697, Control_c, 0, 64, 104
1, 300698, Note_off_c, 0, 53, 64
1, 300699, Note_off_c, 0, 74, 61
1, 300712, Control_c, 0, 64, 57
1, 300726, Control_c, 0, 64, 0
1, 300769, Note_on_c, 0, 57, 86
1, 300771, Note_on_c, 0, 68, 97
1, 300774, Note_on_c, 0, 66, 92
1, 300800, Control_c, 0, 64, 67
1, 300815, Control_c, 0, 64, 127
1, 300837, Note_off_c, 0, 68, 54
1, 300844, Note_on_c, 0, 69, 73
1, 300854, Note_on_c, 0, 73, 80
1, 300863, Note_on_c, 0, 61, 88
1, 300870, Note_off_c, 0, 66, 61
1, 300883, Note_off_c, 0, 69, 62
1, 300893, Note_off_c, 0, 57, 56
1, 300922, Note_off_c, 0, 61, 65
1, 300923, Note_off_c, 0, 73, 63
1, 300929, Note_on_c, 0, 54, 71
1, 300951, Note_off_c, 0, 54, 60
1, 300954, Note_on_c, 0, 74, 95
1, 301000, Control_c, 0, 64, 87
1, 301015, Control_c, 0, 64, 46
1, 301030, Control_c, 0, 64, 0
1, 301035, Note_on_c, 0, 75, 92
1, 301036, Note_on_c, 0, 49, 106
1, 301042, Note_on_c, 0, 37, 90
1, 301045, Note_off_c, 0, 74, 0
1, 301049, Note_on_c, 0, 79, 62
1, 301064, Note_off_c, 0, 37, 67
1, 301069, Note_off_c, 0, 49, 66
1, 301074, Control_c, 0, 64, 46
1, 301075, Note_off_c, 0, 79, 65
1, 301081, Poly_aftertouch_c, 0, 74, 0
1, 301084, Note_off_c, 0, 75, 62
1, 301090, Control_c, 0, 64, 72
1, 301105, Control_c, 0, 64, 127
1, 301117, Note_on_c, 0, 77, 95
1, 301162, Note_off_c, 0, 77, 63
1, 301190, Note_on_c, 0, 81, 71
1, 301194, Control_c, 0, 64, 83
1, 301203, Note_on_c, 0, 79, 71
1, 301208, Control_c, 0, 64, 36
1, 301212, Note_off_c, 0, 81, 68
1, 301223, Control_c, 0, 64, 0
1, 301224, Note_off_c, 0, 79, 69
1, 301266, Note_on_c, 0, 59, 68
1, 301275, Note_on_c, 0, 66, 101
1, 301282, Note_on_c, 0, 73, 89
1, 301297, Control_c, 0, 64, 69
1, 301312, Control_c, 0, 64, 127
1, 301337, Note_on_c, 0, 74, 75
1, 301338, Note_on_c, 0, 75, 3
1, 301338, Note_on_c, 0, 78, 79
1, 301342, Note_on_c, 0, 67, 35
1, 301343, Note_off_c, 0, 73, 67
1, 301366, Note_on_c, 0, 62, 68
1, 301367, Note_off_c, 0, 74, 62
1, 301381, Note_off_c, 0, 66, 59
1, 301391, Note_off_c, 0, 78, 58
1, 301402, Note_off_c, 0, 67, 44
1, 301408, Note_on_c, 0, 54, 72
1, 301410, Note_off_c, 0, 59, 61
1, 301413, Note_off_c, 0, 62, 62
1, 301414, Note_off_c, 0, 75, 37
1, 301422, Note_on_c, 0, 77, 98
1, 301431, Note_off_c, 0, 54, 67
1, 301473, Note_off_c, 0, 77, 66
1, 301501, Note_on_c, 0, 84, 91
1, 301504, Control_c, 0, 64, 114
1, 301507, Note_on_c, 0, 79, 82
1, 301519, Control_c, 0, 64, 63
1, 301522, Note_on_c, 0, 49, 98
1, 301523, Note_off_c, 0, 79, 75
1, 301531, Note_on_c, 0, 83, 41
1, 301531, Note_off_c, 0, 83, 127
1, 301534, Note_on_c, 0, 37, 78
1, 301534, Control_c, 0, 64, 0
1, 301543, Note_off_c, 0, 84, 63
1, 301556, Note_off_c, 0, 49, 65
1, 301560, Note_off_c, 0, 37, 62
1, 301579, Control_c, 0, 64, 50
1, 301593, Note_on_c, 0, 82, 91
1, 301594, Control_c, 0, 64, 71
1, 301608, Control_c, 0, 64, 95
1, 301623, Control_c, 0, 64, 127
1, 301645, Note_on_c, 0, 84, 39
1, 301665, Note_off_c, 0, 82, 64
1, 301668, Note_on_c, 0, 87, 83
1, 301695, Note_on_c, 0, 62, 27
1, 301699, Note_off_c, 0, 84, 65
1, 301713, Note_off_c, 0, 87, 66
1, 301734, Note_off_c, 0, 62, 54
1, 301734, Control_c, 0, 64, 67
1, 301749, Control_c, 0, 64, 0
1, 301758, Note_on_c, 0, 71, 103
1, 301760, Note_on_c, 0, 62, 71
1, 301761, Note_on_c, 0, 79, 87
1, 301763, Note_on_c, 0, 77, 89
1, 301805, Note_on_c, 0, 59, 30
1, 301808, Control_c, 0, 64, 55
1, 301809, Note_off_c, 0, 77, 62
1, 301823, Control_c, 0, 64, 79
1, 301831, Note_on_c, 0, 80, 89
1, 301833, Note_on_c, 0, 84, 73
1, 301836, Note_off_c, 0, 59, 33
1, 301838, Control_c, 0, 64, 127
1, 301841, Note_on_c, 0, 83, 78
1, 301843, Note_off_c, 0, 79, 65
1, 301849, Note_off_c, 0, 71, 53
1, 301850, Note_on_c, 0, 66, 81
1, 301863, Note_off_c, 0, 83, 68
1, 301872, Note_off_c, 0, 80, 65
1, 301872, Note_off_c, 0, 84, 66
1, 301883, Note_off_c, 0, 62, 60
1, 301893, Note_off_c, 0, 66, 67
1, 301899, Note_on_c, 0, 56, 78
1, 301921, Note_on_c, 0, 82, 98
1, 301925, Note_off_c, 0, 56, 69
1, 301997, Note_on_c, 0, 84, 86
1, 302002, Note_on_c, 0, 88, 87
1, 302004, Note_off_c, 0, 82, 63
1, 302009, Note_on_c, 0, 49, 112
1, 302017, Note_on_c, 0, 37, 98
1, 302031, Note_on_c, 0, 87, 34
1, 302031, Note_off_c, 0, 87, 127
1, 302031, Note_off_c, 0, 84, 61
1, 302041, Note_off_c, 0, 37, 72
1, 302041, Note_off_c, 0, 49, 69
1, 302044, Note_off_c, 0, 88, 66
1, 302068, Note_on_c, 0, 39, 18
1, 302082, Note_on_c, 0, 85, 96
1, 302116, Note_off_c, 0, 39, 53
1, 302155, Note_on_c, 0, 92, 93
1, 302161, Note_on_c, 0, 87, 70
1, 302194, Control_c, 0, 64, 93
1, 302196, Note_on_c, 0, 93, 51
1, 302205, Note_off_c, 0, 87, 61
1, 302209, Note_off_c, 0, 85, 60
1, 302209, Control_c, 0, 64, 52
1, 302224, Control_c, 0, 64, 0
1, 302227, Note_off_c, 0, 93, 56
1, 302232, Note_off_c, 0, 92, 57
1, 302242, Note_on_c, 0, 63, 80
1, 302242, Note_on_c, 0, 72, 93
1, 302247, Note_on_c, 0, 83, 100
1, 302259, Note_on_c, 0, 84, 71
1, 302268, Control_c, 0, 64, 39
1, 302278, Note_off_c, 0, 84, 58
1, 302283, Control_c, 0, 64, 63
1, 302298, Control_c, 0, 64, 79
1, 302312, Control_c, 0, 64, 127
1, 302316, Note_on_c, 0, 84, 71
1, 302317, Note_on_c, 0, 66, 83
1, 302320, Note_off_c, 0, 72, 60
1, 302335, Note_on_c, 0, 93, 84
1, 302338, Note_on_c, 0, 87, 65
1, 302349, Note_off_c, 0, 63, 62
1, 302352, Note_off_c, 0, 83, 64
1, 302358, Note_on_c, 0, 86, 58
1, 302370, Note_off_c, 0, 84, 67
1, 302378, Note_off_c, 0, 86, 61
1, 302381, Note_off_c, 0, 66, 65
1, 302387, Note_on_c, 0, 56, 90
1, 302406, Note_off_c, 0, 93, 63
1, 302415, Note_off_c, 0, 56, 71
1, 302431, Note_on_c, 0, 88, 104
1, 302434, Note_off_c, 0, 87, 34
1, 302523, Note_on_c, 0, 97, 104
1, 302527, Control_c, 0, 64, 78
1, 302528, Note_on_c, 0, 49, 99
1, 302536, Note_on_c, 0, 37, 98
1, 302542, Control_c, 0, 64, 45
1, 302545, Note_on_c, 0, 89, 48
1, 302557, Control_c, 0, 64, 0
1, 302561, Note_off_c, 0, 49, 68
1, 302563, Note_off_c, 0, 88, 65
1, 302565, Note_off_c, 0, 37, 65
1, 302572, Control_c, 0, 64, 38
1, 302572, Note_off_c, 0, 89, 37
1, 302575, Note_on_c, 0, 39, 30
1, 302575, Note_off_c, 0, 39, 127
1, 302587, Control_c, 0, 64, 66
1, 302601, Control_c, 0, 64, 96
1, 302607, Note_off_c, 0, 97, 62
1, 302616, Control_c, 0, 64, 127
1, 302624, Poly_aftertouch_c, 0, 39, 0
1, 302628, Note_on_c, 0, 89, 95
1, 302645, Note_on_c, 0, 91, 72
1, 302646, Control_c, 0, 64, 96
1, 302661, Poly_aftertouch_c, 0, 36, 0
1, 302661, Control_c, 0, 64, 59
1, 302676, Control_c, 0, 64, 0
1, 302699, Note_off_c, 0, 91, 0
1, 302699, Note_on_c, 0, 91, 6
1, 302711, Note_on_c, 0, 101, 86
1, 302714, Note_on_c, 0, 92, 89
1, 302721, Note_off_c, 0, 89, 68
1, 302723, Note_on_c, 0, 97, 78
1, 302747, Note_off_c, 0, 97, 68
1, 302749, Note_off_c, 0, 92, 64
1, 302751, Note_off_c, 0, 91, 48
1, 302754, Note_off_c, 0, 101, 66
1, 302862, Note_on_c, 0, 101, 100
1, 302866, Note_on_c, 0, 37, 103
1, 302867, Note_on_c, 0, 89, 102
1, 302867, Note_on_c, 0, 92, 95
1, 302867, Note_on_c, 0, 25, 88
1, 302869, Control_c, 0, 64, 100
1, 302884, Control_c, 0, 64, 127
1, 302893, Note_on_c, 0, 24, 65
1, 302897, Note_off_c, 0, 101, 70
1, 302898, Note_off_c, 0, 25, 67
1, 302901, Note_off_c, 0, 89, 66
1, 302907, Note_off_c, 0, 92, 65
1, 302917, Note_off_c, 0, 37, 60
1, 302928, Note_off_c, 0, 24, 55
1, 303173, Control_c, 0, 64, 87
1, 303187, Control_c, 0, 64, 53
1, 303195, Note_on_c, 0, 61, 101
1, 303195, Note_on_c, 0, 77, 93
1, 303196, Note_on_c, 0, 65, 91
1, 303202, Control_c, 0, 64, 0
1, 303207, Note_on_c, 0, 49, 72
1, 303210, Note_on_c, 0, 68, 72
1, 303233, Note_off_c, 0, 61, 67
1, 303237, Note_off_c, 0, 49, 67
1, 303239, Note_off_c, 0, 68, 62
1, 303303, Note_off_c, 0, 65, 55
1, 303326, Note_off_c, 0, 77, 61
1, 303370, Note_on_c, 0, 75, 80
1, 303382, Note_on_c, 0, 63, 80
1, 303409, Note_off_c, 0, 63, 67
1, 303423, Note_on_c, 0, 77, 92
1, 303424, Note_on_c, 0, 65, 70
1, 303448, Note_off_c, 0, 65, 68
1, 303449, Note_on_c, 0, 67, 27
1, 303454, Note_off_c, 0, 75, 65
1, 303488, Note_off_c, 0, 67, 36
1, 303498, Note_on_c, 0, 65, 88
1, 303498, Note_on_c, 0, 73, 92
1, 303505, Note_on_c, 0, 68, 84
1, 303508, Note_on_c, 0, 61, 86
1, 303509, Note_off_c, 0, 77, 66
1, 303512, Note_on_c, 0, 49, 72
1, 303523, Note_off_c, 0, 65, 64
1, 303526, Note_off_c, 0, 61, 70
1, 303531, Note_off_c, 0, 49, 65
1, 303536, Note_off_c, 0, 68, 66
1, 303551, Note_off_c, 0, 73, 66
1, 303619, Note_on_c, 0, 61, 3
1, 303656, Note_on_c, 0, 49, 98
1, 303656, Note_off_c, 0, 61, 28
1, 303661, Note_on_c, 0, 37, 95
1, 303676, Control_c, 0, 64, 62
1, 303684, Note_off_c, 0, 37, 72
1, 303689, Note_off_c, 0, 49, 62
1, 303691, Control_c, 0, 64, 93
1, 303706, Control_c, 0, 64, 127
1, 303814, Note_on_c, 0, 68, 104
1, 303815, Note_on_c, 0, 80, 100
1, 303817, Note_on_c, 0, 73, 83
1, 303824, Note_on_c, 0, 65, 99
1, 303824, Note_on_c, 0, 53, 89
1, 303824, Control_c, 0, 64, 86
1, 303829, Note_on_c, 0, 61, 86
1, 303838, Note_on_c, 0, 78, 59
1, 303839, Control_c, 0, 64, 67
1, 303854, Control_c, 0, 64, 63
1, 303860, Note_off_c, 0, 78, 55
1, 303869, Control_c, 0, 64, 67
1, 303883, Control_c, 0, 64, 79
1, 303906, Control_c, 0, 64, 127
1, 303915, Poly_aftertouch_c, 0, 67, 127
1, 303937, Note_off_c, 0, 53, 58
1, 303943, Poly_aftertouch_c, 0, 67, 0
1, 303961, Note_on_c, 0, 60, 4
1, 303972, Note_off_c, 0, 65, 56
1, 303982, Note_off_c, 0, 68, 57
1, 304000, Note_off_c, 0, 61, 60
1, 304003, Note_off_c, 0, 73, 61
1, 304005, Note_off_c, 0, 80, 58
1, 304014, Note_off_c, 0, 60, 50
1, 304099, Note_on_c, 0, 66, 81
1, 304101, Note_on_c, 0, 54, 66
1, 304108, Note_on_c, 0, 82, 85
1, 304112, Note_on_c, 0, 70, 92
1, 304113, Note_on_c, 0, 73, 80
1, 304132, Note_off_c, 0, 54, 64
1, 304135, Note_off_c, 0, 70, 63
1, 304142, Note_off_c, 0, 73, 62
1, 304145, Note_off_c, 0, 66, 61
1, 304151, Note_on_c, 0, 80, 13
1, 304152, Note_off_c, 0, 82, 62
1, 304195, Note_off_c, 0, 80, 40
1, 304210, Note_on_c, 0, 65, 98
1, 304212, Note_on_c, 0, 53, 90
1, 304215, Note_on_c, 0, 80, 78
1, 304220, Note_on_c, 0, 68, 99
1, 304232, Control_c, 0, 64, 89
1, 304240, Note_off_c, 0, 53, 68
1, 304246, Note_off_c, 0, 65, 70
1, 304247, Control_c, 0, 64, 54
1, 304259, Note_off_c, 0, 68, 64
1, 304262, Control_c, 0, 64, 0
1, 304268, Note_off_c, 0, 80, 64
1, 304318, Note_on_c, 0, 67, 87
1, 304327, Note_on_c, 0, 79, 64
1, 304332, Note_on_c, 0, 77, 70
1, 304359, Note_off_c, 0, 77, 67
1, 304360, Poly_aftertouch_c, 0, 78, 0
1, 304361, Note_off_c, 0, 67, 62
1, 304365, Note_off_c, 0, 79, 65
1, 304380, Note_on_c, 0, 66, 95
1, 304406, Note_off_c, 0, 66, 66
1, 304435, Note_on_c, 0, 77, 86
1, 304443, Note_on_c, 0, 65, 81
1, 304463, Note_off_c, 0, 65, 72
1, 304473, Note_off_c, 0, 77, 64
1, 304503, Note_on_c, 0, 64, 91
1, 304522, Note_off_c, 0, 64, 74
1, 304545, Note_on_c, 0, 75, 89
1, 304546, Note_on_c, 0, 63, 93
1, 304576, Note_off_c, 0, 63, 63
1, 304584, Note_off_c, 0, 75, 58
1, 304611, Note_on_c, 0, 62, 94
1, 304628, Note_off_c, 0, 62, 74
1, 304666, Note_on_c, 0, 73, 101
1, 304670, Note_on_c, 0, 61, 94
1, 304712, Note_off_c, 0, 61, 66
1, 304731, Note_off_c, 0, 73, 60
1, 304737, Note_on_c, 0, 49, 99
1, 304742, Note_on_c, 0, 37, 91
1, 304763, Note_off_c, 0, 49, 65
1, 304768, Note_off_c, 0, 37, 67
1, 304769, Note_on_c, 0, 39, 47
1, 304804, Note_off_c, 0, 39, 55
1, 304896, Note_on_c, 0, 77, 94
1, 304897, Note_on_c, 0, 65, 100
1, 304901, Note_on_c, 0, 68, 94
1, 304902, Note_on_c, 0, 73, 89
1, 304907, Note_on_c, 0, 61, 96
1, 304911, Note_on_c, 0, 56, 83
1, 304917, Note_on_c, 0, 49, 69
1, 304922, Control_c, 0, 64, 69
1, 304937, Control_c, 0, 64, 81
1, 304952, Control_c, 0, 64, 95
1, 304966, Control_c, 0, 64, 105
1, 304981, Control_c, 0, 64, 127
1, 305010, Note_off_c, 0, 77, 61
1, 305029, Note_off_c, 0, 65, 57
1, 305067, Note_off_c, 0, 68, 61
1, 305071, Note_off_c, 0, 73, 61
1, 305076, Note_off_c, 0, 49, 61
1, 305085, Note_off_c, 0, 61, 59
1, 305118, Note_off_c, 0, 56, 60
1, 305183, Note_on_c, 0, 56, 56
1, 305183, Note_on_c, 0, 60, 80
1, 305186, Note_on_c, 0, 49, 73
1, 305194, Note_on_c, 0, 75, 96
1, 305198, Note_on_c, 0, 66, 95
1, 305213, Note_off_c, 0, 49, 66
1, 305216, Note_off_c, 0, 60, 62
1, 305222, Note_off_c, 0, 56, 63
1, 305234, Note_off_c, 0, 66, 60
1, 305239, Note_off_c, 0, 75, 64
1, 305293, Control_c, 0, 64, 80
1, 305308, Control_c, 0, 64, 53
1, 305321, Note_on_c, 0, 75, 91
1, 305323, Control_c, 0, 64, 0
1, 305323, Note_on_c, 0, 60, 79
1, 305325, Note_on_c, 0, 49, 70
1, 305326, Note_on_c, 0, 57, 71
1, 305330, Note_on_c, 0, 66, 88
1, 305345, Note_off_c, 0, 60, 72
1, 305347, Note_on_c, 0, 76, 64
1, 305355, Note_off_c, 0, 57, 66
1, 305364, Note_off_c, 0, 49, 63
1, 305371, Note_on_c, 0, 74, 81
1, 305415, Note_off_c, 0, 66, 63
1, 305445, Note_off_c, 0, 76, 50
1, 305449, Note_on_c, 0, 73, 88
1, 305449, Control_c, 0, 64, 34
1, 305463, Control_c, 0, 64, 49
1, 305468, Note_on_c, 0, 49, 85
1, 305473, Note_off_c, 0, 75, 48
1, 305478, Control_c, 0, 64, 59
1, 305480, Note_on_c, 0, 37, 68
1, 305492, Note_off_c, 0, 74, 63
1, 305493, Note_off_c, 0, 49, 70
1, 305493, Control_c, 0, 64, 61
1, 305506, Note_on_c, 0, 72, 83
1, 305506, Note_off_c, 0, 37, 62
1, 305520, Note_off_c, 0, 73, 64
1, 305538, Control_c, 0, 64, 61
1, 305545, Note_off_c, 0, 72, 62
1, 305582, Control_c, 0, 64, 61
1, 305588, Note_on_c, 0, 73, 88
1, 305594, Note_on_c, 0, 61, 85
1, 305597, Note_on_c, 0, 49, 89
1, 305597, Control_c, 0, 64, 59
1, 305603, Note_on_c, 0, 65, 74
1, 305612, Control_c, 0, 64, 54
1, 305615, Note_off_c, 0, 61, 71
1, 305621, Note_off_c, 0, 49, 71
1, 305627, Control_c, 0, 64, 46
1, 305642, Control_c, 0, 64, 36
1, 305647, Note_on_c, 0, 72, 84
1, 305656, Control_c, 0, 64, 33
1, 305673, Note_off_c, 0, 65, 56
1, 305701, Control_c, 0, 64, 33
1, 305710, Note_off_c, 0, 73, 57
1, 305716, Control_c, 0, 64, 32
1, 305721, Note_on_c, 0, 70, 85
1, 305724, Note_on_c, 0, 51, 96
1, 305728, Note_off_c, 0, 72, 64
1, 305730, Control_c, 0, 64, 30
1, 305736, Note_on_c, 0, 37, 63
1, 305738, Note_on_c, 0, 39, 68
1, 305745, Control_c, 0, 64, 0
1, 305746, Note_off_c, 0, 51, 68
1, 305764, Note_off_c, 0, 39, 60
1, 305766, Note_off_c, 0, 37, 59
1, 305775, Note_off_c, 0, 70, 65
1, 305868, Note_on_c, 0, 61, 95
1, 305868, Note_on_c, 0, 65, 73
1, 305871, Note_on_c, 0, 49, 81
1, 305888, Note_off_c, 0, 61, 73
1, 305897, Note_off_c, 0, 49, 69
1, 305910, Note_on_c, 0, 73, 29
1, 305916, Note_off_c, 0, 65, 58
1, 305957, Note_off_c, 0, 73, 43
1, 306019, Note_on_c, 0, 65, 96
1, 306021, Note_on_c, 0, 68, 83
1, 306027, Control_c, 0, 64, 39
1, 306042, Control_c, 0, 64, 60
1, 306057, Control_c, 0, 64, 67
1, 306071, Control_c, 0, 64, 72
1, 306086, Control_c, 0, 64, 75
1, 306101, Control_c, 0, 64, 79
1, 306116, Control_c, 0, 64, 85
1, 306131, Control_c, 0, 64, 92
1, 306153, Control_c, 0, 64, 101
1, 306164, Poly_aftertouch_c, 0, 73, 127
1, 306168, Control_c, 0, 64, 105
1, 306194, Poly_aftertouch_c, 0, 61, 127
1, 306198, Control_c, 0, 64, 107
1, 306244, Note_off_c, 0, 68, 53
1, 306247, Note_off_c, 0, 65, 62
1, 306250, Poly_aftertouch_c, 0, 63, 127
1, 306281, Poly_aftertouch_c, 0, 63, 0
1, 306304, Poly_aftertouch_c, 0, 61, 0
1, 306316, Poly_aftertouch_c, 0, 73, 0
1, 306351, Note_on_c, 0, 69, 64
1, 306357, Note_on_c, 0, 63, 91
1, 306360, Control_c, 0, 64, 104
1, 306375, Control_c, 0, 64, 100
1, 306383, Note_off_c, 0, 63, 63
1, 306390, Control_c, 0, 64, 95
1, 306400, Note_off_c, 0, 69, 56
1, 306405, Control_c, 0, 64, 91
1, 306420, Control_c, 0, 64, 87
1, 306435, Control_c, 0, 64, 80
1, 306450, Control_c, 0, 64, 72
1, 306465, Control_c, 0, 64, 61
1, 306479, Control_c, 0, 64, 49
1, 306494, Control_c, 0, 64, 38
1, 306497, Note_on_c, 0, 63, 87
1, 306509, Control_c, 0, 64, 35
1, 306518, Note_on_c, 0, 69, 57
1, 306523, Control_c, 0, 64, 36
1, 306533, Note_on_c, 0, 65, 30
1, 306538, Control_c, 0, 64, 38
1, 306553, Control_c, 0, 64, 45
1, 306568, Control_c, 0, 64, 56
1, 306569, Note_on_c, 0, 70, 69
1, 306572, Note_on_c, 0, 62, 66
1, 306583, Control_c, 0, 64, 65
1, 306597, Control_c, 0, 64, 69
1, 306612, Control_c, 0, 64, 70
1, 306614, Note_on_c, 0, 61, 74
1, 306614, Note_off_c, 0, 63, 52
1, 306654, Note_off_c, 0, 62, 61
1, 306657, Control_c, 0, 64, 71
1, 306670, Note_on_c, 0, 71, 68
1, 306674, Note_off_c, 0, 69, 37
1, 306684, Note_on_c, 0, 60, 73
1, 306688, Control_c, 0, 64, 71
1, 306694, Note_off_c, 0, 70, 62
1, 306697, Note_off_c, 0, 61, 63
1, 306702, Control_c, 0, 64, 72
1, 306709, Note_off_c, 0, 60, 68
1, 306712, Note_on_c, 0, 72, 62
1, 306717, Control_c, 0, 64, 71
1, 306732, Control_c, 0, 64, 68
1, 306733, Note_off_c, 0, 71, 61
1, 306738, Note_off_c, 0, 65, 36
1, 306747, Control_c, 0, 64, 62
1, 306754, Note_on_c, 0, 61, 69
1, 306761, Control_c, 0, 64, 43
1, 306762, Note_off_c, 0, 72, 59
1, 306776, Control_c, 0, 64, 0
1, 306790, Note_on_c, 0, 70, 80
1, 306801, Note_on_c, 0, 60, 65
1, 306820, Control_c, 0, 64, 35
1, 306826, Note_on_c, 0, 59, 40
1, 306835, Control_c, 0, 64, 49
1, 306835, Control_c, 0, 67, 40
1, 306842, Note_off_c, 0, 61, 56
1, 306848, Note_on_c, 0, 72, 67
1, 306850, Control_c, 0, 64, 63
1, 306850, Control_c, 0, 67, 57
1, 306858, Note_off_c, 0, 59, 33
1, 306865, Control_c, 0, 64, 68
1, 306865, Control_c, 0, 67, 75
1, 306880, Note_off_c, 0, 70, 62
1, 306880, Control_c, 0, 64, 71
1, 306880, Control_c, 0, 67, 92
1, 306900, Note_on_c, 0, 58, 83
1, 306902, Control_c, 0, 64, 74
1, 306902, Control_c, 0, 67, 107
1, 306917, Control_c, 0, 64, 78
1, 306917, Control_c, 0, 67, 122
1, 306927, Note_on_c, 0, 73, 79
1, 306932, Control_c, 0, 64, 82
1, 306932, Control_c, 0, 67, 127
1, 306946, Note_off_c, 0, 60, 58
1, 306947, Control_c, 0, 64, 86
1, 306949, Note_off_c, 0, 72, 62
1, 306954, Note_off_c, 0, 73, 64
1, 306961, Control_c, 0, 64, 88
1, 306976, Control_c, 0, 64, 89
1, 306988, Note_off_c, 0, 58, 62
1, 307004, Note_on_c, 0, 77, 78
1, 307021, Control_c, 0, 64, 88
1, 307035, Control_c, 0, 64, 87
1, 307050, Control_c, 0, 64, 83
1, 307065, Control_c, 0, 64, 79
1, 307080, Control_c, 0, 64, 72
1, 307081, Note_on_c, 0, 82, 79
1, 307095, Control_c, 0, 64, 67
1, 307109, Control_c, 0, 64, 61
1, 307124, Control_c, 0, 64, 56
1, 307126, Note_off_c, 0, 77, 61
1, 307139, Control_c, 0, 64, 53
1, 307152, Note_on_c, 0, 84, 75
1, 307153, Control_c, 0, 64, 51
1, 307168, Control_c, 0, 64, 49
1, 307183, Control_c, 0, 64, 46
1, 307185, Note_off_c, 0, 82, 61
1, 307198, Control_c, 0, 64, 43
1, 307200, Note_on_c, 0, 65, 46
1, 307213, Control_c, 0, 64, 38
1, 307217, Note_on_c, 0, 85, 78
1, 307218, Note_on_c, 0, 56, 57
1, 307222, Note_on_c, 0, 68, 60
1, 307226, Note_off_c, 0, 65, 63
1, 307228, Control_c, 0, 64, 34
1, 307234, Note_off_c, 0, 84, 66
1, 307240, Note_off_c, 0, 85, 67
1, 307242, Note_off_c, 0, 56, 57
1, 307243, Control_c, 0, 64, 31
1, 307247, Note_off_c, 0, 68, 64
1, 307273, Control_c, 0, 64, 0
1, 307310, Note_on_c, 0, 89, 64
1, 307374, Note_on_c, 0, 70, 64
1, 307383, Note_on_c, 0, 58, 67
1, 307395, Note_off_c, 0, 70, 66
1, 307396, Note_on_c, 0, 94, 77
1, 307413, Note_off_c, 0, 58, 66
1, 307488, Note_on_c, 0, 96, 62
1, 307518, Note_off_c, 0, 94, 52
1, 307568, Note_on_c, 0, 97, 78
1, 307589, Note_on_c, 0, 49, 69
1, 307594, Note_on_c, 0, 37, 65
1, 307600, Note_off_c, 0, 89, 29
1, 307617, Note_off_c, 0, 49, 66
1, 307623, Note_off_c, 0, 37, 58
1, 307632, Note_off_c, 0, 96, 37
1, 307679, Note_off_c, 0, 97, 62
1, 307688, Note_on_c, 0, 101, 79
1, 307737, Note_off_c, 0, 101, 67
1, 307755, Control_c, 0, 64, 31
1, 307770, Control_c, 0, 64, 46
1, 307785, Control_c, 0, 64, 61
1, 307800, Control_c, 0, 64, 65
1, 307815, Control_c, 0, 64, 66
1, 307822, Note_on_c, 0, 36, 72
1, 307824, Note_on_c, 0, 48, 83
1, 307847, Note_off_c, 0, 48, 67
1, 307849, Note_off_c, 0, 36, 64
1, 307933, Control_c, 0, 64, 65
1, 307948, Control_c, 0, 64, 62
1, 307963, Control_c, 0, 64, 56
1, 307977, Control_c, 0, 64, 43
1, 307986, Note_on_c, 0, 65, 59
1, 307988, Note_on_c, 0, 72, 75
1, 307991, Control_c, 0, 64, 0
1, 307994, Note_on_c, 0, 60, 62
1, 308003, Note_on_c, 0, 57, 60
1, 308013, Note_off_c, 0, 65, 66
1, 308013, Note_off_c, 0, 60, 64
1, 308024, Note_on_c, 0, 48, 31
1, 308024, Note_off_c, 0, 57, 60
1, 308031, Note_off_c, 0, 72, 63
1, 308069, Note_off_c, 0, 48, 50
1, 308146, Note_on_c, 0, 64, 80
1, 308160, Note_off_c, 0, 64, 74
1, 308213, Note_on_c, 0, 69, 61
1, 308213, Note_on_c, 0, 77, 69
1, 308219, Note_on_c, 0, 65, 55
1, 308221, Note_on_c, 0, 72, 48
1, 308240, Note_off_c, 0, 65, 61
1, 308242, Note_off_c, 0, 69, 64
1, 308242, Note_off_c, 0, 72, 57
1, 308244, Note_off_c, 0, 77, 64
1, 308281, Note_on_c, 0, 65, 95
1, 308297, Note_off_c, 0, 65, 76
1, 308337, Note_on_c, 0, 67, 76
1, 308340, Note_on_c, 0, 79, 67
1, 308359, Note_off_c, 0, 67, 71
1, 308363, Note_off_c, 0, 79, 70
1, 308387, Note_on_c, 0, 77, 4
1, 308417, Note_on_c, 0, 76, 90
1, 308424, Note_on_c, 0, 64, 84
1, 308447, Note_off_c, 0, 64, 72
1, 308455, Note_off_c, 0, 77, 28
1, 308455, Note_off_c, 0, 76, 65
1, 308474, Control_c, 0, 67, 107
1, 308482, Note_on_c, 0, 62, 78
1, 308489, Control_c, 0, 67, 57
1, 308504, Control_c, 0, 67, 0
1, 308504, Note_off_c, 0, 62, 68
1, 308554, Note_on_c, 0, 62, 76
1, 308556, Note_on_c, 0, 74, 85
1, 308575, Note_off_c, 0, 74, 71
1, 308578, Note_off_c, 0, 62, 70
1, 308620, Note_on_c, 0, 60, 68
1, 308649, Note_off_c, 0, 60, 68
1, 308677, Note_on_c, 0, 74, 80
1, 308707, Note_on_c, 0, 69, 59
1, 308711, Control_c, 0, 64, 41
1, 308724, Note_on_c, 0, 67, 69
1, 308725, Control_c, 0, 64, 56
1, 308730, Note_on_c, 0, 70, 21
1, 308740, Control_c, 0, 64, 63
1, 308755, Control_c, 0, 64, 65
1, 308770, Control_c, 0, 64, 66
1, 308781, Note_on_c, 0, 62, 69
1, 308785, Control_c, 0, 64, 67
1, 308791, Note_on_c, 0, 58, 42
1, 308799, Control_c, 0, 64, 69
1, 308814, Control_c, 0, 64, 71
1, 308816, Note_off_c, 0, 70, 45
1, 308817, Note_off_c, 0, 58, 58
1, 308823, Note_off_c, 0, 69, 59
1, 308829, Control_c, 0, 64, 72
1, 308834, Note_off_c, 0, 67, 63
1, 308844, Control_c, 0, 64, 72
1, 308852, Note_off_c, 0, 74, 63
1, 308859, Control_c, 0, 64, 73
1, 308873, Control_c, 0, 64, 73
1, 308882, Note_on_c, 0, 48, 46
1, 308885, Poly_aftertouch_c, 0, 47, 127
1, 308888, Control_c, 0, 64, 74
1, 308903, Control_c, 0, 64, 75
1, 308918, Control_c, 0, 64, 77
1, 308924, Note_on_c, 0, 40, 62
1, 308924, Poly_aftertouch_c, 0, 47, 0
1, 308932, Note_off_c, 0, 48, 59
1, 308933, Control_c, 0, 64, 78
1, 308963, Control_c, 0, 64, 76
1, 308978, Control_c, 0, 64, 69
1, 308988, Note_off_c, 0, 62, 61
1, 308992, Control_c, 0, 64, 54
1, 308997, Note_on_c, 0, 41, 67
1, 309007, Control_c, 0, 64, 0
1, 309032, Note_off_c, 0, 40, 58
1, 309052, Control_c, 0, 64, 39
1, 309064, Note_on_c, 0, 48, 65
1, 309067, Control_c, 0, 64, 56
1, 309082, Control_c, 0, 64, 66
1, 309094, Note_off_c, 0, 41, 64
1, 309097, Control_c, 0, 64, 72
1, 309112, Control_c, 0, 64, 75
1, 309124, Note_on_c, 0, 57, 63
1, 309127, Control_c, 0, 64, 76
1, 309132, Note_off_c, 0, 48, 62
1, 309148, Control_c, 0, 64, 76
1, 309162, Note_off_c, 0, 57, 66
1, 309163, Control_c, 0, 64, 77
1, 309174, Note_on_c, 0, 60, 54
1, 309178, Control_c, 0, 64, 77
1, 309193, Control_c, 0, 64, 78
1, 309210, Note_off_c, 0, 60, 65
1, 309222, Control_c, 0, 64, 78
1, 309237, Note_on_c, 0, 65, 66
1, 309237, Control_c, 0, 64, 79
1, 309252, Control_c, 0, 64, 79
1, 309282, Control_c, 0, 64, 80
1, 309297, Note_on_c, 0, 69, 51
1, 309297, Control_c, 0, 64, 81
1, 309311, Note_on_c, 0, 72, 52
1, 309311, Control_c, 0, 64, 81
1, 309319, Note_off_c, 0, 65, 62
1, 309326, Control_c, 0, 64, 82
1, 309334, Note_off_c, 0, 69, 66
1, 309341, Control_c, 0, 64, 82
1, 309347, Note_off_c, 0, 72, 62
1, 309350, Note_on_c, 0, 71, 27
1, 309386, Control_c, 0, 64, 82
1, 309387, Note_off_c, 0, 71, 52
1, 309401, Control_c, 0, 64, 78
1, 309404, Note_on_c, 0, 76, 91
1, 309416, Control_c, 0, 64, 70
1, 309420, Note_off_c, 0, 76, 75
1, 309430, Control_c, 0, 64, 61
1, 309431, Note_on_c, 0, 74, 33
1, 309431, Note_off_c, 0, 74, 127
1, 309445, Control_c, 0, 64, 46
1, 309460, Control_c, 0, 64, 30
1, 309475, Control_c, 0, 64, 0
1, 309480, Note_on_c, 0, 77, 80
1, 309481, Note_on_c, 0, 89, 79
1, 309500, Note_on_c, 0, 81, 41
1, 309502, Note_off_c, 0, 77, 67
1, 309508, Note_on_c, 0, 84, 32
1, 309508, Note_on_c, 0, 87, 32
1, 309508, Note_off_c, 0, 87, 127
1, 309511, Note_off_c, 0, 89, 61
1, 309527, Note_off_c, 0, 81, 36
1, 309531, Note_on_c, 0, 77, 94
1, 309543, Note_off_c, 0, 84, 37
1, 309555, Note_off_c, 0, 77, 64
1, 309593, Note_on_c, 0, 91, 92
1, 309595, Note_on_c, 0, 79, 82
1, 309613, Note_off_c, 0, 91, 72
1, 309615, Note_off_c, 0, 79, 67
1, 309662, Note_on_c, 0, 88, 97
1, 309670, Note_on_c, 0, 76, 91
1, 309690, Note_off_c, 0, 76, 67
1, 309705, Note_off_c, 0, 88, 68
1, 309723, Note_on_c, 0, 74, 87
1, 309742, Note_off_c, 0, 74, 69
1, 309785, Note_on_c, 0, 86, 87
1, 309787, Note_on_c, 0, 74, 79
1, 309809, Note_off_c, 0, 74, 69
1, 309815, Note_off_c, 0, 86, 62
1, 309857, Note_on_c, 0, 72, 70
1, 309875, Note_off_c, 0, 72, 66
1, 309915, Note_on_c, 0, 82, 82
1, 309917, Note_on_c, 0, 86, 77
1, 309957, Control_c, 0, 64, 30
1, 309971, Control_c, 0, 64, 48
1, 309972, Note_on_c, 0, 79, 59
1, 309986, Control_c, 0, 64, 61
1, 310001, Control_c, 0, 64, 66
1, 310009, Note_on_c, 0, 74, 70
1, 310016, Control_c, 0, 64, 67
1, 310031, Control_c, 0, 64, 68
1, 310045, Control_c, 0, 64, 69
1, 310060, Control_c, 0, 64, 71
1, 310075, Control_c, 0, 64, 72
1, 310090, Note_off_c, 0, 79, 62
1, 310090, Control_c, 0, 64, 73
1, 310102, Note_off_c, 0, 82, 59
1, 310105, Control_c, 0, 64, 73
1, 310122, Note_off_c, 0, 86, 62
1, 310124, Note_on_c, 0, 60, 44
1, 310134, Control_c, 0, 64, 74
1, 310167, Note_off_c, 0, 60, 57
1, 310174, Note_on_c, 0, 52, 57
1, 310208, Note_off_c, 0, 74, 61
1, 310252, Control_c, 0, 64, 71
1, 310267, Control_c, 0, 64, 64
1, 310272, Note_on_c, 0, 53, 47
1, 310282, Control_c, 0, 64, 51
1, 310296, Control_c, 0, 64, 0
1, 310307, Note_off_c, 0, 52, 37
1, 310328, Note_on_c, 0, 84, 65
1, 310330, Note_on_c, 0, 81, 66
1, 310340, Note_on_c, 0, 60, 46
1, 310343, Note_on_c, 0, 72, 48
1, 310344, Note_on_c, 0, 77, 54
1, 310390, Note_off_c, 0, 72, 63
1, 310415, Control_c, 0, 64, 36
1, 310424, Note_off_c, 0, 53, 47
1, 310430, Control_c, 0, 64, 47
1, 310438, Note_on_c, 0, 69, 64
1, 310444, Control_c, 0, 64, 59
1, 310459, Control_c, 0, 64, 63
1, 310462, Note_off_c, 0, 77, 64
1, 310474, Control_c, 0, 64, 65
1, 310475, Note_off_c, 0, 84, 61
1, 310477, Note_off_c, 0, 81, 63
1, 310481, Note_off_c, 0, 60, 64
1, 310483, Note_off_c, 0, 69, 57
1, 310489, Control_c, 0, 64, 66
1, 310504, Control_c, 0, 64, 68
1, 310519, Control_c, 0, 64, 69
1, 310534, Control_c, 0, 64, 72
1, 310549, Control_c, 0, 64, 75
1, 310563, Control_c, 0, 64, 78
1, 310578, Control_c, 0, 64, 81
1, 310593, Control_c, 0, 64, 83
1, 310608, Control_c, 0, 64, 85
1, 310623, Control_c, 0, 64, 88
1, 310638, Control_c, 0, 64, 91
1, 310659, Control_c, 0, 64, 95
1, 310672, Note_on_c, 0, 81, 69
1, 310673, Note_on_c, 0, 93, 67
1, 310675, Control_c, 0, 64, 98
1, 310683, Note_on_c, 0, 84, 54
1, 310690, Control_c, 0, 64, 102
1, 310705, Control_c, 0, 64, 106
1, 310707, Note_on_c, 0, 89, 31
1, 310709, Note_off_c, 0, 81, 59
1, 310716, Note_off_c, 0, 84, 67
1, 310720, Control_c, 0, 64, 110
1, 310721, Note_off_c, 0, 93, 55
1, 310735, Control_c, 0, 64, 117
1, 310739, Note_off_c, 0, 89, 44
1, 310749, Control_c, 0, 64, 127
1, 310763, Note_on_c, 0, 79, 62
1, 310774, Note_on_c, 0, 67, 59
1, 310789, Note_off_c, 0, 79, 69
1, 310799, Note_off_c, 0, 67, 64
1, 310844, Note_on_c, 0, 91, 72
1, 310847, Note_on_c, 0, 79, 71
1, 310869, Note_off_c, 0, 79, 68
1, 310870, Note_off_c, 0, 91, 69
1, 310902, Note_on_c, 0, 77, 75
1, 310903, Note_on_c, 0, 65, 74
1, 310924, Note_off_c, 0, 65, 70
1, 310925, Note_off_c, 0, 77, 71
1, 310954, Note_on_c, 0, 89, 86
1, 310958, Note_on_c, 0, 77, 73
1, 310986, Note_off_c, 0, 77, 66
1, 310994, Note_off_c, 0, 89, 61
1, 311023, Note_on_c, 0, 74, 86
1, 311030, Note_on_c, 0, 62, 74
1, 311045, Note_off_c, 0, 74, 68
1, 311053, Note_off_c, 0, 62, 67
1, 311068, Note_on_c, 0, 86, 87
1, 311073, Note_on_c, 0, 74, 73
1, 311104, Note_off_c, 0, 74, 61
1, 311111, Note_off_c, 0, 86, 64
1, 311136, Note_on_c, 0, 72, 78
1, 311142, Note_on_c, 0, 60, 75
1, 311159, Note_off_c, 0, 72, 67
1, 311166, Note_off_c, 0, 60, 70
1, 311186, Note_on_c, 0, 84, 87
1, 311186, Poly_aftertouch_c, 0, 72, 0
1, 311192, Note_on_c, 0, 72, 72
1, 311222, Note_off_c, 0, 72, 63
1, 311226, Note_off_c, 0, 84, 66
1, 311261, Note_on_c, 0, 71, 74
1, 311262, Note_on_c, 0, 57, 74
1, 311262, Note_on_c, 0, 59, 71
1, 311262, Note_on_c, 0, 69, 74
1, 311279, Note_off_c, 0, 71, 65
1, 311285, Note_off_c, 0, 69, 70
1, 311288, Note_off_c, 0, 59, 67
1, 311289, Note_off_c, 0, 57, 67
1, 311312, Note_on_c, 0, 69, 69
1, 311313, Note_on_c, 0, 83, 83
1, 311317, Note_on_c, 0, 81, 82
1, 311332, Note_on_c, 0, 71, 56
1, 311336, Note_off_c, 0, 83, 67
1, 311341, Note_off_c, 0, 81, 65
1, 311347, Note_off_c, 0, 69, 65
1, 311353, Note_off_c, 0, 71, 38
1, 311359, Note_on_c, 0, 67, 85
1, 311370, Note_on_c, 0, 55, 75
1, 311383, Note_off_c, 0, 67, 65
1, 311401, Note_off_c, 0, 55, 67
1, 311433, Note_on_c, 0, 67, 87
1, 311441, Note_on_c, 0, 79, 75
1, 311442, Note_on_c, 0, 81, 79
1, 311461, Note_off_c, 0, 81, 74
1, 311470, Note_off_c, 0, 79, 64
1, 311476, Note_off_c, 0, 67, 63
1, 311485, Note_on_c, 0, 65, 83
1, 311491, Note_on_c, 0, 53, 84
1, 311508, Note_off_c, 0, 65, 65
1, 311513, Note_off_c, 0, 53, 71
1, 311538, Note_on_c, 0, 77, 101
1, 311540, Note_on_c, 0, 65, 88
1, 311574, Note_off_c, 0, 65, 67
1, 311577, Note_off_c, 0, 77, 67
1, 311601, Note_on_c, 0, 62, 88
1, 311606, Note_on_c, 0, 50, 84
1, 311631, Note_off_c, 0, 62, 62
1, 311634, Note_off_c, 0, 50, 67
1, 311657, Note_on_c, 0, 62, 87
1, 311659, Note_on_c, 0, 74, 97
1, 311700, Note_off_c, 0, 62, 65
1, 311704, Note_off_c, 0, 74, 64
1, 311711, Note_on_c, 0, 60, 92
1, 311714, Note_on_c, 0, 48, 95
1, 311741, Note_off_c, 0, 60, 63
1, 311747, Note_off_c, 0, 48, 65
1, 311785, Note_on_c, 0, 60, 89
1, 311786, Note_on_c, 0, 72, 93
1, 311824, Note_off_c, 0, 72, 64
1, 311832, Note_off_c, 0, 60, 65
1, 311833, Note_on_c, 0, 57, 84
1, 311848, Note_on_c, 0, 45, 64
1, 311864, Note_off_c, 0, 57, 65
1, 311874, Note_off_c, 0, 45, 62
1, 311911, Note_on_c, 0, 57, 94
1, 311911, Note_on_c, 0, 69, 98
1, 311944, Note_on_c, 0, 66, 55
1, 311957, Note_off_c, 0, 57, 65
1, 311957, Note_off_c, 0, 69, 63
1, 311959, Note_on_c, 0, 55, 84
1, 311964, Note_on_c, 0, 43, 79
1, 311967, Note_off_c, 0, 66, 59
1, 311985, Note_on_c, 0, 45, 50
1, 311988, Note_off_c, 0, 55, 64
1, 312001, Note_off_c, 0, 43, 62
1, 312010, Note_off_c, 0, 45, 36
1, 312043, Note_on_c, 0, 67, 100
1, 312046, Note_on_c, 0, 55, 99
1, 312090, Note_off_c, 0, 67, 66
1, 312093, Note_off_c, 0, 55, 63
1, 312099, Note_on_c, 0, 53, 84
1, 312101, Note_on_c, 0, 41, 85
1, 312155, Note_off_c, 0, 53, 58
1, 312187, Control_c, 0, 64, 73
1, 312201, Note_on_c, 0, 53, 98
1, 312202, Note_on_c, 0, 65, 103
1, 312202, Control_c, 0, 64, 55
1, 312216, Control_c, 0, 64, 53
1, 312230, Note_on_c, 0, 64, 67
1, 312231, Control_c, 0, 64, 60
1, 312232, Note_on_c, 0, 55, 50
1, 312232, Note_off_c, 0, 55, 127
1, 312246, Control_c, 0, 64, 70
1, 312259, Note_off_c, 0, 64, 66
1, 312261, Control_c, 0, 64, 93
1, 312277, Control_c, 0, 64, 127
1, 312294, Note_off_c, 0, 53, 58
1, 312320, Note_off_c, 0, 65, 56
1, 312415, Note_on_c, 0, 55, 59
1, 312424, Note_on_c, 0, 65, 13
1, 312431, Note_on_c, 0, 67, 73
1, 312434, Note_on_c, 0, 57, 74
1, 312452, Note_off_c, 0, 67, 66
1, 312460, Note_off_c, 0, 55, 65
1, 312465, Note_off_c, 0, 65, 52
1, 312465, Note_on_c, 0, 69, 73
1, 312468, Note_on_c, 0, 59, 78
1, 312471, Note_off_c, 0, 41, 58
1, 312482, Note_off_c, 0, 69, 69
1, 312486, Note_off_c, 0, 57, 66
1, 312491, Note_on_c, 0, 60, 83
1, 312492, Note_on_c, 0, 71, 80
1, 312507, Note_off_c, 0, 59, 65
1, 312508, Note_off_c, 0, 71, 68
1, 312511, Note_on_c, 0, 62, 84
1, 312512, Note_on_c, 0, 72, 79
1, 312524, Note_off_c, 0, 60, 59
1, 312525, Note_off_c, 0, 72, 43
1, 312530, Note_on_c, 0, 64, 88
1, 312530, Note_on_c, 0, 74, 83
1, 312540, Note_off_c, 0, 62, 60
1, 312544, Note_off_c, 0, 74, 43
1, 312546, Note_on_c, 0, 65, 84
1, 312550, Note_on_c, 0, 76, 80
1, 312561, Note_off_c, 0, 64, 69
1, 312563, Note_on_c, 0, 67, 83
1, 312564, Note_off_c, 0, 76, 69
1, 312566, Note_on_c, 0, 77, 84
1, 312576, Note_on_c, 0, 69, 66
1, 312579, Note_off_c, 0, 65, 68
1, 312579, Note_off_c, 0, 77, 70
1, 312581, Note_on_c, 0, 79, 75
1, 312591, Note_on_c, 0, 71, 81
1, 312594, Note_on_c, 0, 81, 81
1, 312594, Note_off_c, 0, 67, 68
1, 312594, Note_off_c, 0, 79, 72
1, 312605, Note_on_c, 0, 72, 73
1, 312606, Note_off_c, 0, 81, 72
1, 312608, Note_off_c, 0, 69, 66
1, 312610, Note_on_c, 0, 83, 82
1, 312617, Note_on_c, 0, 74, 80
1, 312619, Note_off_c, 0, 71, 66
1, 312623, Note_on_c, 0, 84, 81
1, 312623, Note_off_c, 0, 83, 43
1, 312629, Note_off_c, 0, 84, 49
1, 312630, Note_off_c, 0, 72, 66
1, 312632, Note_on_c, 0, 76, 88
1, 312635, Note_on_c, 0, 86, 87
1, 312635, Note_off_c, 0, 86, 127
1, 312640, Note_off_c, 0, 74, 66
1, 312642, Note_on_c, 0, 77, 84
1, 312647, Note_on_c, 0, 88, 86
1, 312650, Note_off_c, 0, 76, 71
1, 312653, Note_off_c, 0, 88, 50
1, 312653, Note_on_c, 0, 79, 81
1, 312660, Note_on_c, 0, 89, 78
1, 312663, Note_off_c, 0, 77, 69
1, 312665, Note_on_c, 0, 81, 83
1, 312670, Note_on_c, 0, 91, 85
1, 312676, Note_off_c, 0, 89, 43
1, 312677, Note_on_c, 0, 83, 88
1, 312677, Note_off_c, 0, 79, 67
1, 312682, Note_on_c, 0, 93, 90
1, 312683, Note_off_c, 0, 91, 45
1, 312689, Note_on_c, 0, 84, 89
1, 312692, Note_on_c, 0, 95, 86
1, 312693, Note_off_c, 0, 81, 68
1, 312695, Note_off_c, 0, 93, 44
1, 312701, Note_on_c, 0, 86, 88
1, 312704, Note_off_c, 0, 95, 46
1, 312705, Note_on_c, 0, 96, 86
1, 312707, Note_off_c, 0, 83, 68
1, 312713, Note_on_c, 0, 88, 89
1, 312716, Note_on_c, 0, 98, 92
1, 312717, Note_off_c, 0, 96, 45
1, 312719, Note_off_c, 0, 84, 69
1, 312727, Note_on_c, 0, 89, 91
1, 312728, Note_off_c, 0, 98, 70
1, 312729, Note_on_c, 0, 100, 94
1, 312731, Note_off_c, 0, 86, 68
1, 312741, Note_on_c, 0, 91, 82
1, 312741, Note_off_c, 0, 100, 71
1, 312742, Note_on_c, 0, 101, 89
1, 312746, Note_off_c, 0, 88, 68
1, 312755, Note_off_c, 0, 101, 73
1, 312758, Note_off_c, 0, 89, 70
1, 312762, Note_on_c, 0, 103, 91
1, 312768, Note_on_c, 0, 93, 47
1, 312798, Note_off_c, 0, 93, 52
1, 312818, Note_off_c, 0, 91, 65
1, 312821, Note_off_c, 0, 103, 68
1, 312951, Control_c, 0, 64, 79
1, 312965, Control_c, 0, 64, 31
1, 312969, Note_on_c, 0, 37, 109
1, 312970, Note_on_c, 0, 89, 108
1, 312970, Note_on_c, 0, 101, 109
1, 312972, Note_on_c, 0, 25, 97
1, 312980, Control_c, 0, 64, 0
1, 312985, Note_on_c, 0, 99, 78
1, 313005, Note_on_c, 0, 24, 55
1, 313010, Note_off_c, 0, 99, 68
1, 313020, Note_off_c, 0, 101, 68
1, 313025, Control_c, 0, 64, 44
1, 313036, Note_off_c, 0, 25, 58
1, 313038, Poly_aftertouch_c, 0, 100, 0
1, 313039, Control_c, 0, 64, 64
1, 313044, Note_off_c, 0, 24, 52
1, 313054, Control_c, 0, 64, 81
1, 313057, Note_off_c, 0, 89, 60
1, 313070, Control_c, 0, 64, 124
1, 313079, Note_off_c, 0, 37, 61
1, 313085, Control_c, 0, 64, 127
1, 313181, Note_on_c, 0, 80, 24
1, 313216, Note_off_c, 0, 80, 44
1, 313336, Note_on_c, 0, 89, 88
1, 313339, Note_on_c, 0, 77, 105
1, 313342, Note_on_c, 0, 80, 99
1, 313342, Note_on_c, 0, 85, 98
1, 313344, Note_on_c, 0, 65, 103
1, 313345, Note_on_c, 0, 53, 94
1, 313346, Note_on_c, 0, 56, 86
1, 313349, Note_on_c, 0, 61, 84
1, 313372, Note_on_c, 0, 87, 46
1, 313400, Note_off_c, 0, 89, 60
1, 313402, Note_off_c, 0, 87, 48
1, 313409, Note_off_c, 0, 65, 59
1, 313411, Note_off_c, 0, 53, 60
1, 313420, Note_off_c, 0, 77, 61
1, 313455, Note_off_c, 0, 85, 59
1, 313461, Note_off_c, 0, 80, 60
1, 313465, Note_off_c, 0, 56, 58
1, 313468, Note_off_c, 0, 61, 61
1, 313595, Note_on_c, 0, 75, 93
1, 313595, Note_on_c, 0, 63, 96
1, 313598, Note_on_c, 0, 87, 87
1, 313601, Note_on_c, 0, 51, 86
1, 313622, Note_off_c, 0, 63, 65
1, 313625, Note_off_c, 0, 51, 69
1, 313627, Note_off_c, 0, 75, 67
1, 313645, Note_off_c, 0, 87, 65
1, 313682, Note_on_c, 0, 77, 90
1, 313685, Note_on_c, 0, 89, 88
1, 313689, Note_on_c, 0, 88, 82
1, 313690, Note_on_c, 0, 65, 96
1, 313696, Note_on_c, 0, 53, 86
1, 313705, Note_off_c, 0, 77, 65
1, 313710, Note_off_c, 0, 65, 69
1, 313710, Note_off_c, 0, 88, 68
1, 313714, Note_off_c, 0, 89, 64
1, 313715, Note_on_c, 0, 64, 42
1, 313716, Note_off_c, 0, 53, 70
1, 313729, Note_on_c, 0, 54, 26
1, 313744, Note_off_c, 0, 64, 55
1, 313765, Note_off_c, 0, 54, 50
1, 313769, Note_on_c, 0, 85, 100
1, 313773, Note_on_c, 0, 73, 103
1, 313774, Control_c, 0, 64, 68
1, 313788, Control_c, 0, 64, 0
1, 313792, Note_on_c, 0, 49, 73
1, 313798, Note_on_c, 0, 72, 65
1, 313811, Note_on_c, 0, 58, 48
1, 313811, Note_off_c, 0, 58, 127
1, 313813, Note_off_c, 0, 49, 62
1, 313816, Note_off_c, 0, 72, 64
1, 313830, Note_off_c, 0, 73, 63
1, 313833, Control_c, 0, 64, 49
1, 313848, Control_c, 0, 64, 71
1, 313863, Control_c, 0, 64, 127
1, 313872, Note_off_c, 0, 85, 61
1, 313899, Poly_aftertouch_c, 0, 48, 0
1, 313967, Control_c, 0, 64, 69
1, 313971, Note_on_c, 0, 49, 104
1, 313972, Note_on_c, 0, 37, 104
1, 313982, Control_c, 0, 64, 44
1, 313997, Control_c, 0, 64, 51
1, 314004, Note_off_c, 0, 37, 62
1, 314011, Control_c, 0, 64, 73
1, 314017, Note_off_c, 0, 49, 62
1, 314026, Control_c, 0, 64, 127
1, 314102, Poly_aftertouch_c, 0, 36, 0
1, 314185, Note_on_c, 0, 80, 107
1, 314185, Note_on_c, 0, 92, 109
1, 314189, Control_c, 0, 64, 77
1, 314190, Note_on_c, 0, 85, 92
1, 314191, Note_on_c, 0, 68, 102
1, 314191, Note_on_c, 0, 56, 97
1, 314193, Note_on_c, 0, 65, 95
1, 314195, Note_on_c, 0, 89, 81
1, 314196, Note_on_c, 0, 61, 80
1, 314204, Control_c, 0, 64, 0
1, 314209, Note_on_c, 0, 90, 56
1, 314231, Note_on_c, 0, 58, 38
1, 314232, Note_off_c, 0, 90, 38
1, 314248, Control_c, 0, 64, 33
1, 314252, Note_off_c, 0, 58, 39
1, 314263, Control_c, 0, 64, 60
1, 314278, Control_c, 0, 64, 77
1, 314293, Control_c, 0, 64, 124
1, 314307, Control_c, 0, 64, 127
1, 314427, Note_off_c, 0, 80, 59
1, 314437, Note_off_c, 0, 56, 60
1, 314455, Note_off_c, 0, 92, 53
1, 314513, Note_off_c, 0, 68, 52
1, 314528, Note_off_c, 0, 89, 35
1, 314537, Note_off_c, 0, 85, 51
1, 314553, Note_off_c, 0, 61, 55
1, 314577, Note_off_c, 0, 65, 57
1, 314611, Control_c, 0, 64, 99
1, 314611, Note_on_c, 0, 94, 101
1, 314614, Note_on_c, 0, 82, 108
1, 314617, Note_on_c, 0, 85, 95
1, 314620, Note_on_c, 0, 65, 75
1, 314620, Note_on_c, 0, 70, 112
1, 314626, Note_on_c, 0, 89, 79
1, 314626, Control_c, 0, 64, 65
1, 314628, Note_on_c, 0, 58, 89
1, 314628, Note_on_c, 0, 61, 79
1, 314632, Note_on_c, 0, 92, 77
1, 314641, Control_c, 0, 64, 52
1, 314656, Control_c, 0, 64, 54
1, 314658, Note_on_c, 0, 57, 58
1, 314671, Control_c, 0, 64, 62
1, 314680, Note_off_c, 0, 57, 60
1, 314686, Control_c, 0, 64, 76
1, 314698, Note_off_c, 0, 58, 61
1, 314701, Control_c, 0, 64, 127
1, 314704, Note_off_c, 0, 94, 64
1, 314720, Note_off_c, 0, 92, 46
1, 314721, Note_off_c, 0, 70, 57
1, 314725, Note_off_c, 0, 82, 57
1, 314761, Note_off_c, 0, 61, 57
1, 314767, Note_off_c, 0, 89, 58
1, 314768, Note_off_c, 0, 65, 58
1, 314769, Note_off_c, 0, 85, 58
1, 314850, Note_on_c, 0, 80, 102
1, 314850, Note_on_c, 0, 85, 94
1, 314851, Note_on_c, 0, 68, 105
1, 314851, Note_on_c, 0, 92, 99
1, 314858, Note_on_c, 0, 89, 76
1, 314859, Note_on_c, 0, 65, 74
1, 314859, Note_on_c, 0, 56, 87
1, 314864, Note_on_c, 0, 61, 73
1, 314873, Note_on_c, 0, 82, 67
1, 314887, Note_off_c, 0, 82, 65
1, 314904, Note_on_c, 0, 90, 8
1, 314913, Note_on_c, 0, 58, 15
1, 314916, Note_off_c, 0, 65, 61
1, 314924, Note_off_c, 0, 68, 57
1, 314925, Note_off_c, 0, 89, 60
1, 314928, Note_off_c, 0, 61, 63
1, 314930, Note_off_c, 0, 80, 56
1, 314932, Note_off_c, 0, 92, 64
1, 314939, Note_off_c, 0, 56, 59
1, 314947, Note_off_c, 0, 58, 43
1, 314954, Note_off_c, 0, 90, 34
1, 314961, Note_off_c, 0, 85, 54
1, 314995, Note_on_c, 0, 67, 89
1, 314997, Note_on_c, 0, 91, 94
1, 314999, Note_on_c, 0, 55, 81
1, 315000, Note_on_c, 0, 79, 89
1, 315032, Note_off_c, 0, 55, 64
1, 315034, Note_off_c, 0, 79, 69
1, 315035, Note_off_c, 0, 67, 65
1, 315041, Note_off_c, 0, 91, 68
1, 315099, Note_on_c, 0, 66, 97
1, 315109, Note_on_c, 0, 90, 74
1, 315110, Note_on_c, 0, 78, 95
1, 315112, Note_on_c, 0, 54, 78
1, 315148, Note_off_c, 0, 54, 63
1, 315151, Note_off_c, 0, 66, 65
1, 315160, Note_off_c, 0, 78, 64
1, 315164, Note_off_c, 0, 90, 64
1, 315199, Note_on_c, 0, 89, 85
1, 315201, Note_on_c, 0, 65, 89
1, 315205, Note_on_c, 0, 53, 85
1, 315211, Note_on_c, 0, 77, 86
1, 315232, Note_off_c, 0, 77, 69
1, 315237, Note_off_c, 0, 65, 63
1, 315245, Note_off_c, 0, 53, 61
1, 315246, Note_off_c, 0, 89, 65
1, 315279, Note_on_c, 0, 53, 64
1, 315282, Note_on_c, 0, 64, 91
1, 315293, Note_on_c, 0, 88, 73
1, 315300, Note_on_c, 0, 76, 61
1, 315302, Note_on_c, 0, 89, 62
1, 315316, Note_off_c, 0, 64, 66
1, 315317, Note_off_c, 0, 88, 69
1, 315318, Note_off_c, 0, 76, 64
1, 315319, Note_off_c, 0, 53, 62
1, 315320, Note_off_c, 0, 89, 62
1, 315361, Note_on_c, 0, 87, 96
1, 315363, Note_on_c, 0, 75, 98
1, 315373, Note_on_c, 0, 63, 95
1, 315393, Note_off_c, 0, 63, 69
1, 315396, Note_off_c, 0, 75, 64
1, 315410, Note_off_c, 0, 87, 57
1, 315440, Note_on_c, 0, 64, 90
1, 315443, Note_on_c, 0, 74, 93
1, 315443, Note_on_c, 0, 86, 89
1, 315449, Note_on_c, 0, 87, 57
1, 315458, Note_on_c, 0, 52, 50
1, 315462, Note_on_c, 0, 62, 63
1, 315463, Note_off_c, 0, 74, 71
1, 315470, Note_on_c, 0, 51, 16
1, 315470, Note_on_c, 0, 76, 38
1, 315473, Note_off_c, 0, 87, 64
1, 315479, Note_off_c, 0, 64, 63
1, 315481, Note_off_c, 0, 86, 66
1, 315487, Note_off_c, 0, 52, 54
1, 315497, Note_off_c, 0, 76, 59
1, 315503, Note_off_c, 0, 51, 0
1, 315503, Note_on_c, 0, 51, 30
1, 315519, Note_on_c, 0, 73, 94
1, 315519, Note_on_c, 0, 85, 101
1, 315523, Note_off_c, 0, 62, 66
1, 315530, Note_on_c, 0, 54, 46
1, 315530, Note_off_c, 0, 54, 127
1, 315542, Note_off_c, 0, 51, 63
1, 315555, Note_off_c, 0, 73, 66
1, 315559, Note_on_c, 0, 58, 7
1, 315569, Note_off_c, 0, 85, 52
1, 315598, Control_c, 0, 64, 99
1, 315607, Note_on_c, 0, 49, 104
1, 315608, Note_on_c, 0, 37, 96
1, 315610, Note_off_c, 0, 58, 45
1, 315613, Control_c, 0, 64, 62
1, 315613, Note_on_c, 0, 39, 85
1, 315615, Note_on_c, 0, 51, 78
1, 315628, Control_c, 0, 64, 0
1, 315634, Note_off_c, 0, 37, 72
1, 315637, Note_off_c, 0, 51, 62
1, 315639, Note_on_c, 0, 50, 56
1, 315640, Note_off_c, 0, 39, 57
1, 315645, Note_off_c, 0, 49, 58
1, 315657, Control_c, 0, 64, 53
1, 315660, Note_on_c, 0, 80, 53
1, 315664, Note_off_c, 0, 50, 60
1, 315672, Control_c, 0, 64, 78
1, 315687, Control_c, 0, 64, 127
1, 315694, Note_off_c, 0, 80, 61
1, 315763, Poly_aftertouch_c, 0, 85, 0
1, 315798, Note_on_c, 0, 89, 99
1, 315799, Note_on_c, 0, 77, 109
1, 315800, Note_on_c, 0, 68, 99
1, 315800, Note_on_c, 0, 80, 94
1, 315801, Note_on_c, 0, 65, 80
1, 315802, Note_on_c, 0, 56, 86
1, 315802, Note_on_c, 0, 85, 91
1, 315803, Note_on_c, 0, 61, 79
1, 315820, Control_c, 0, 64, 86
1, 315835, Control_c, 0, 64, 51
1, 315843, Note_on_c, 0, 87, 36
1, 315850, Control_c, 0, 64, 0
1, 315864, Control_c, 0, 64, 34
1, 315865, Note_off_c, 0, 87, 36
1, 315887, Control_c, 0, 64, 59
1, 315902, Control_c, 0, 64, 76
1, 315916, Control_c, 0, 64, 112
1, 315931, Control_c, 0, 64, 127
1, 315969, Note_off_c, 0, 89, 55
1, 316013, Note_off_c, 0, 77, 56
1, 316033, Note_off_c, 0, 85, 61
1, 316037, Note_off_c, 0, 80, 61
1, 316061, Note_off_c, 0, 56, 58
1, 316061, Note_off_c, 0, 65, 58
1, 316071, Note_off_c, 0, 68, 56
1, 316089, Note_off_c, 0, 61, 61
1, 316173, Note_on_c, 0, 66, 104
1, 316173, Note_on_c, 0, 87, 96
1, 316175, Note_on_c, 0, 75, 104
1, 316176, Note_on_c, 0, 57, 82
1, 316182, Note_on_c, 0, 63, 80
1, 316186, Note_on_c, 0, 79, 75
1, 316191, Note_on_c, 0, 88, 81
1, 316208, Note_off_c, 0, 79, 66
1, 316211, Note_off_c, 0, 75, 67
1, 316211, Note_off_c, 0, 88, 71
1, 316219, Note_off_c, 0, 57, 62
1, 316229, Note_off_c, 0, 87, 58
1, 316232, Note_off_c, 0, 66, 55
1, 316239, Note_off_c, 0, 63, 62
1, 316287, Control_c, 0, 64, 89
1, 316302, Control_c, 0, 64, 56
1, 316317, Control_c, 0, 64, 0
1, 316321, Note_on_c, 0, 75, 96
1, 316323, Note_on_c, 0, 66, 101
1, 316326, Note_on_c, 0, 57, 87
1, 316326, Note_on_c, 0, 78, 80
1, 316327, Note_on_c, 0, 87, 85
1, 316331, Note_on_c, 0, 63, 83
1, 316331, Control_c, 0, 64, 34
1, 316343, Note_on_c, 0, 85, 61
1, 316346, Control_c, 0, 64, 59
1, 316361, Control_c, 0, 64, 83
1, 316364, Note_on_c, 0, 74, 43
1, 316365, Note_off_c, 0, 85, 54
1, 316366, Note_off_c, 0, 66, 64
1, 316370, Note_off_c, 0, 75, 64
1, 316375, Note_off_c, 0, 87, 62
1, 316376, Control_c, 0, 64, 127
1, 316377, Note_off_c, 0, 78, 54
1, 316379, Note_on_c, 0, 77, 12
1, 316384, Note_off_c, 0, 57, 62
1, 316385, Note_off_c, 0, 63, 61
1, 316392, Note_off_c, 0, 74, 55
1, 316432, Note_on_c, 0, 86, 80
1, 316432, Note_off_c, 0, 77, 37
1, 316434, Note_on_c, 0, 74, 89
1, 316457, Note_on_c, 0, 85, 37
1, 316458, Note_off_c, 0, 74, 65
1, 316473, Note_off_c, 0, 86, 66
1, 316486, Note_off_c, 0, 85, 47
1, 316513, Note_on_c, 0, 49, 91
1, 316519, Note_on_c, 0, 37, 82
1, 316525, Note_on_c, 0, 73, 99
1, 316531, Note_on_c, 0, 85, 93
1, 316546, Note_off_c, 0, 37, 66
1, 316546, Note_off_c, 0, 49, 63
1, 316555, Note_on_c, 0, 80, 48
1, 316555, Note_off_c, 0, 80, 127
1, 316558, Note_on_c, 0, 82, 37
1, 316558, Note_off_c, 0, 82, 127
1, 316564, Note_on_c, 0, 78, 33
1, 316564, Note_off_c, 0, 78, 127
1, 316567, Note_off_c, 0, 85, 58
1, 316568, Note_off_c, 0, 73, 65
1, 316610, Note_on_c, 0, 84, 89
1, 316613, Note_on_c, 0, 72, 89
1, 316623, Poly_aftertouch_c, 0, 76, 0
1, 316649, Note_off_c, 0, 72, 63
1, 316655, Note_off_c, 0, 84, 67
1, 316677, Note_on_c, 0, 65, 81
1, 316695, Note_off_c, 0, 65, 72
1, 316695, Note_on_c, 0, 57, 57
1, 316704, Note_on_c, 0, 73, 87
1, 316708, Note_on_c, 0, 85, 78
1, 316717, Note_on_c, 0, 58, 7
1, 316722, Note_off_c, 0, 57, 66
1, 316733, Note_off_c, 0, 85, 64
1, 316761, Note_on_c, 0, 85, 85
1, 316766, Note_off_c, 0, 58, 51
1, 316776, Poly_aftertouch_c, 0, 61, 0
1, 316787, Note_off_c, 0, 73, 67
1, 316790, Poly_aftertouch_c, 0, 60, 0
1, 316792, Note_on_c, 0, 72, 71
1, 316805, Note_off_c, 0, 85, 65
1, 316808, Note_off_c, 0, 72, 66
1, 316844, Note_on_c, 0, 49, 90
1, 316847, Note_on_c, 0, 37, 92
1, 316853, Note_on_c, 0, 84, 66
1, 316853, Note_on_c, 0, 71, 94
1, 316854, Note_on_c, 0, 83, 86
1, 316867, Note_on_c, 0, 39, 57
1, 316868, Note_off_c, 0, 71, 74
1, 316869, Note_off_c, 0, 49, 67
1, 316879, Note_off_c, 0, 84, 68
1, 316880, Note_off_c, 0, 37, 63
1, 316884, Note_off_c, 0, 83, 56
1, 316885, Note_on_c, 0, 72, 40
1, 316898, Note_off_c, 0, 39, 56
1, 316912, Note_off_c, 0, 72, 60
1, 316923, Note_on_c, 0, 82, 96
1, 316928, Note_on_c, 0, 70, 99
1, 316962, Note_off_c, 0, 70, 64
1, 316977, Control_c, 0, 64, 61
1, 316984, Note_off_c, 0, 82, 61
1, 316992, Control_c, 0, 64, 0
1, 316997, Note_on_c, 0, 37, 107
1, 316999, Note_on_c, 0, 25, 96
1, 317029, Note_off_c, 0, 25, 65
1, 317037, Note_on_c, 0, 24, 50
1, 317042, Note_on_c, 0, 27, 35
1, 317050, Note_off_c, 0, 37, 65
1, 317085, Note_off_c, 0, 24, 41
1, 317086, Note_off_c, 0, 27, 51
1, 317181, Note_on_c, 0, 68, 105
1, 317183, Note_on_c, 0, 73, 94
1, 317184, Note_on_c, 0, 80, 100
1, 317190, Note_on_c, 0, 77, 84
1, 317191, Note_on_c, 0, 65, 93
1, 317194, Note_on_c, 0, 56, 76
1, 317200, Control_c, 0, 64, 31
1, 317202, Note_on_c, 0, 53, 67
1, 317203, Note_on_c, 0, 55, 73
1, 317203, Note_on_c, 0, 61, 60
1, 317203, Note_on_c, 0, 78, 71
1, 317215, Control_c, 0, 64, 66
1, 317220, Note_off_c, 0, 78, 62
1, 317227, Note_on_c, 0, 58, 42
1, 317229, Control_c, 0, 64, 92
1, 317235, Note_on_c, 0, 62, 49
1, 317244, Control_c, 0, 64, 127
1, 317255, Note_off_c, 0, 61, 0
1, 317255, Note_on_c, 0, 61, 10
1, 317280, Note_off_c, 0, 62, 43
1, 317315, Note_off_c, 0, 80, 57
1, 317324, Note_off_c, 0, 68, 59
1, 317324, Note_off_c, 0, 77, 58
1, 317327, Note_off_c, 0, 58, 27
1, 317336, Note_off_c, 0, 73, 60
1, 317348, Note_off_c, 0, 55, 58
1, 317349, Note_off_c, 0, 53, 56
1, 317371, Note_off_c, 0, 65, 59
1, 317389, Note_off_c, 0, 56, 60
1, 317393, Note_off_c, 0, 61, 36
1, 317516, Note_on_c, 0, 63, 100
1, 317518, Control_c, 0, 64, 93
1, 317521, Note_on_c, 0, 69, 100
1, 317522, Note_on_c, 0, 54, 70
1, 317524, Note_on_c, 0, 81, 83
1, 317525, Note_on_c, 0, 78, 83
1, 317526, Note_on_c, 0, 72, 83
1, 317527, Note_on_c, 0, 60, 65
1, 317530, Note_on_c, 0, 51, 78
1, 317533, Control_c, 0, 64, 59
1, 317548, Control_c, 0, 64, 0
1, 317565, Note_off_c, 0, 51, 62
1, 317574, Note_off_c, 0, 69, 63
1, 317577, Control_c, 0, 64, 42
1, 317583, Note_off_c, 0, 72, 62
1, 317583, Note_off_c, 0, 63, 58
1, 317585, Note_off_c, 0, 81, 63
1, 317589, Note_off_c, 0, 78, 56
1, 317592, Control_c, 0, 64, 64
1, 317607, Note_off_c, 0, 54, 59
1, 317607, Note_off_c, 0, 60, 52
1, 317607, Control_c, 0, 64, 78
1, 317622, Control_c, 0, 64, 103
1, 317637, Control_c, 0, 64, 127
1, 317646, Note_on_c, 0, 63, 98
1, 317653, Note_on_c, 0, 69, 96
1, 317654, Note_on_c, 0, 81, 86
1, 317655, Note_on_c, 0, 51, 87
1, 317674, Note_on_c, 0, 60, 16
1, 317691, Note_off_c, 0, 69, 65
1, 317692, Note_on_c, 0, 73, 19
1, 317692, Note_off_c, 0, 81, 66
1, 317696, Note_off_c, 0, 63, 62
1, 317712, Note_off_c, 0, 51, 60
1, 317715, Note_off_c, 0, 60, 55
1, 317732, Note_off_c, 0, 73, 40
1, 317760, Note_on_c, 0, 62, 86
1, 317764, Note_on_c, 0, 70, 91
1, 317766, Note_on_c, 0, 50, 82
1, 317767, Note_on_c, 0, 82, 87
1, 317796, Note_off_c, 0, 50, 67
1, 317802, Note_off_c, 0, 70, 64
1, 317804, Note_off_c, 0, 62, 64
1, 317809, Note_off_c, 0, 82, 60
1, 317850, Note_on_c, 0, 61, 95
1, 317856, Note_on_c, 0, 71, 89
1, 317859, Note_on_c, 0, 83, 85
1, 317861, Note_on_c, 0, 49, 78
1, 317868, Poly_aftertouch_c, 0, 80, 0
1, 317874, Note_on_c, 0, 51, 68
1, 317887, Note_off_c, 0, 61, 64
1, 317895, Note_off_c, 0, 71, 59
1, 317897, Note_on_c, 0, 72, 24
1, 317897, Note_off_c, 0, 72, 127
1, 317900, Note_off_c, 0, 83, 63
1, 317902, Note_off_c, 0, 49, 61
1, 317904, Note_off_c, 0, 51, 55
1, 317936, Note_on_c, 0, 60, 93
1, 317940, Note_on_c, 0, 50, 86
1, 317948, Note_on_c, 0, 83, 54
1, 317953, Note_on_c, 0, 77, 77
1, 317957, Note_on_c, 0, 84, 60
1, 317962, Note_on_c, 0, 72, 35
1, 317972, Note_off_c, 0, 60, 72
1, 317972, Note_off_c, 0, 50, 62
1, 317974, Note_off_c, 0, 83, 66
1, 317975, Note_off_c, 0, 84, 65
1, 317978, Note_off_c, 0, 77, 67
1, 317992, Note_off_c, 0, 72, 55
1, 318029, Note_on_c, 0, 61, 90
1, 318035, Note_on_c, 0, 70, 100
1, 318037, Note_on_c, 0, 82, 94
1, 318037, Note_on_c, 0, 49, 70
1, 318040, Note_on_c, 0, 58, 75
1, 318047, Note_on_c, 0, 47, 61
1, 318057, Note_off_c, 0, 58, 66
1, 318057, Note_off_c, 0, 61, 62
1, 318066, Note_on_c, 0, 75, 43
1, 318067, Note_off_c, 0, 49, 62
1, 318069, Note_off_c, 0, 47, 59
1, 318069, Note_off_c, 0, 70, 70
1, 318081, Note_off_c, 0, 82, 61
1, 318085, Note_on_c, 0, 60, 17
1, 318091, Note_off_c, 0, 75, 56
1, 318119, Note_off_c, 0, 60, 0
1, 318126, Note_on_c, 0, 47, 89
1, 318137, Note_on_c, 0, 59, 75
1, 318137, Note_on_c, 0, 84, 88
1, 318138, Note_on_c, 0, 60, 80
1, 318139, Note_on_c, 0, 72, 87
1, 318140, Note_on_c, 0, 48, 56
1, 318146, Poly_aftertouch_c, 0, 51, 0
1, 318167, Note_off_c, 0, 72, 63
1, 318174, Note_off_c, 0, 84, 68
1, 318188, Note_off_c, 0, 60, 61
1, 318199, Note_off_c, 0, 59, 62
1, 318215, Note_off_c, 0, 47, 61
1, 318228, Note_off_c, 0, 48, 63
1, 318232, Note_on_c, 0, 73, 90
1, 318240, Note_on_c, 0, 85, 92
1, 318269, Note_off_c, 0, 73, 68
1, 318279, Note_off_c, 0, 85, 58
1, 318342, Note_on_c, 0, 89, 91
1, 318343, Note_on_c, 0, 77, 92
1, 318400, Note_off_c, 0, 77, 60
1, 318411, Note_on_c, 0, 46, 97
1, 318411, Note_off_c, 0, 89, 64
1, 318414, Note_on_c, 0, 34, 97
1, 318415, Control_c, 0, 64, 75
1, 318430, Control_c, 0, 64, 40
1, 318444, Note_on_c, 0, 44, 48
1, 318444, Note_off_c, 0, 44, 127
1, 318445, Control_c, 0, 64, 0
1, 318450, Note_off_c, 0, 34, 63
1, 318453, Note_off_c, 0, 46, 63
1, 318474, Control_c, 0, 64, 44
1, 318478, Poly_aftertouch_c, 0, 44, 0
1, 318489, Control_c, 0, 64, 61
1, 318503, Control_c, 0, 64, 77
1, 318518, Control_c, 0, 64, 101
1, 318524, Poly_aftertouch_c, 0, 38, 0
1, 318533, Control_c, 0, 64, 127
1, 318543, Note_on_c, 0, 48, 102
1, 318545, Note_on_c, 0, 36, 91
1, 318579, Note_off_c, 0, 48, 67
1, 318582, Note_off_c, 0, 36, 61
1, 318640, Note_on_c, 0, 49, 96
1, 318646, Note_on_c, 0, 80, 99
1, 318646, Note_on_c, 0, 92, 106
1, 318650, Note_on_c, 0, 37, 92
1, 318654, Note_on_c, 0, 89, 82
1, 318675, Note_on_c, 0, 39, 54
1, 318678, Note_off_c, 0, 37, 66
1, 318678, Note_off_c, 0, 49, 66
1, 318698, Note_off_c, 0, 80, 58
1, 318698, Note_off_c, 0, 89, 57
1, 318707, Note_off_c, 0, 39, 54
1, 318723, Note_off_c, 0, 92, 63
1, 318742, Note_on_c, 0, 55, 93
1, 318746, Note_on_c, 0, 43, 82
1, 318763, Note_on_c, 0, 41, 48
1, 318764, Note_off_c, 0, 55, 69
1, 318775, Note_off_c, 0, 43, 66
1, 318795, Note_off_c, 0, 41, 53
1, 318826, Poly_aftertouch_c, 0, 53, 0
1, 318827, Note_on_c, 0, 43, 99
1, 318829, Note_on_c, 0, 55, 95
1, 318832, Note_on_c, 0, 88, 84
1, 318833, Note_on_c, 0, 94, 102
1, 318834, Note_on_c, 0, 82, 103
1, 318840, Note_on_c, 0, 53, 41
1, 318850, Note_off_c, 0, 55, 71
1, 318859, Note_off_c, 0, 43, 62
1, 318859, Control_c, 0, 64, 76
1, 318871, Note_off_c, 0, 53, 62
1, 318874, Control_c, 0, 64, 42
1, 318886, Note_on_c, 0, 95, 43
1, 318890, Note_on_c, 0, 92, 44
1, 318897, Control_c, 0, 64, 0
1, 318912, Control_c, 0, 64, 34
1, 318917, Note_off_c, 0, 95, 54
1, 318919, Note_on_c, 0, 40, 90
1, 318922, Note_on_c, 0, 52, 85
1, 318923, Note_on_c, 0, 50, 83
1, 318927, Control_c, 0, 64, 54
1, 318937, Note_off_c, 0, 92, 65
1, 318941, Control_c, 0, 64, 62
1, 318943, Note_off_c, 0, 40, 68
1, 318943, Note_off_c, 0, 52, 71
1, 318944, Note_off_c, 0, 50, 68
1, 318945, Note_off_c, 0, 82, 59
1, 318956, Control_c, 0, 64, 63
1, 318971, Control_c, 0, 64, 63
1, 318986, Control_c, 0, 64, 61
1, 319001, Control_c, 0, 64, 56
1, 319003, Note_on_c, 0, 51, 88
1, 319003, Note_on_c, 0, 49, 84
1, 319008, Note_on_c, 0, 39, 81
1, 319015, Control_c, 0, 64, 39
1, 319025, Note_off_c, 0, 51, 70
1, 319026, Note_off_c, 0, 49, 68
1, 319030, Control_c, 0, 64, 0
1, 319031, Note_off_c, 0, 39, 66
1, 319040, Note_off_c, 0, 88, 37
1, 319067, Note_on_c, 0, 49, 84
1, 319071, Note_off_c, 0, 94, 61
1, 319074, Note_on_c, 0, 37, 90
1, 319098, Note_off_c, 0, 49, 67
1, 319102, Note_off_c, 0, 37, 69
1, 319145, Note_on_c, 0, 88, 103
1, 319146, Note_on_c, 0, 95, 103
1, 319147, Note_on_c, 0, 83, 100
1, 319153, Note_on_c, 0, 47, 105
1, 319158, Note_on_c, 0, 35, 93
1, 319178, Control_c, 0, 64, 49
1, 319193, Note_off_c, 0, 95, 68
1, 319193, Control_c, 0, 64, 71
1, 319208, Control_c, 0, 64, 86
1, 319219, Note_off_c, 0, 88, 66
1, 319223, Control_c, 0, 64, 108
1, 319233, Note_off_c, 0, 83, 65
1, 319238, Control_c, 0, 64, 127
1, 319243, Note_off_c, 0, 35, 55
1, 319279, Note_off_c, 0, 47, 60
1, 319502, Note_on_c, 0, 64, 79
1, 319505, Note_on_c, 0, 71, 75
1, 319509, Note_on_c, 0, 59, 69
1, 319518, Note_on_c, 0, 56, 61
1, 319529, Note_on_c, 0, 47, 40
1, 319532, Note_off_c, 0, 64, 67
1, 319537, Note_off_c, 0, 59, 66
1, 319542, Note_off_c, 0, 56, 63
1, 319546, Note_off_c, 0, 47, 66
1, 319551, Note_off_c, 0, 71, 61
1, 319720, Control_c, 0, 64, 99
1, 319735, Control_c, 0, 64, 58
1, 319740, Note_on_c, 0, 63, 93
1, 319750, Control_c, 0, 64, 0
1, 319760, Note_off_c, 0, 63, 69
1, 319795, Note_on_c, 0, 68, 77
1, 319808, Note_on_c, 0, 64, 65
1, 319816, Note_on_c, 0, 76, 52
1, 319825, Note_off_c, 0, 68, 62
1, 319828, Note_off_c, 0, 64, 63
1, 319837, Note_off_c, 0, 76, 59
1, 319883, Note_on_c, 0, 64, 87
1, 319902, Note_off_c, 0, 64, 74
1, 319917, Note_on_c, 0, 66, 84
1, 319920, Note_on_c, 0, 78, 78
1, 319941, Note_off_c, 0, 66, 68
1, 319941, Note_off_c, 0, 78, 70
1, 320014, Note_on_c, 0, 75, 79
1, 320016, Note_on_c, 0, 63, 86
1, 320043, Note_off_c, 0, 63, 62
1, 320043, Note_off_c, 0, 75, 65
1, 320054, Note_on_c, 0, 73, 25
1, 320090, Note_off_c, 0, 73, 32
1, 320117, Note_on_c, 0, 60, 18
1, 320117, Note_off_c, 0, 60, 127
1, 320159, Note_on_c, 0, 73, 80
1, 320161, Note_on_c, 0, 61, 74
1, 320182, Note_off_c, 0, 73, 66
1, 320186, Note_off_c, 0, 61, 68
1, 320235, Note_on_c, 0, 59, 62
1, 320256, Note_off_c, 0, 59, 62
1, 320301, Note_on_c, 0, 68, 50
1, 320309, Note_on_c, 0, 73, 71
1, 320313, Control_c, 0, 64, 39
1, 320323, Note_on_c, 0, 69, 69
1, 320328, Control_c, 0, 64, 52
1, 320330, Note_off_c, 0, 68, 37
1, 320343, Control_c, 0, 64, 59
1, 320358, Control_c, 0, 64, 62
1, 320364, Note_on_c, 0, 66, 62
1, 320370, Note_on_c, 0, 57, 65
1, 320380, Control_c, 0, 64, 65
1, 320394, Control_c, 0, 64, 69
1, 320397, Note_on_c, 0, 61, 67
1, 320409, Control_c, 0, 64, 72
1, 320424, Control_c, 0, 64, 75
1, 320436, Note_off_c, 0, 57, 59
1, 320439, Control_c, 0, 64, 78
1, 320454, Control_c, 0, 64, 80
1, 320469, Control_c, 0, 64, 81
1, 320481, Note_on_c, 0, 47, 61
1, 320484, Control_c, 0, 64, 82
1, 320497, Note_off_c, 0, 69, 57
1, 320499, Control_c, 0, 64, 83
1, 320499, Control_c, 0, 67, 41
1, 320513, Control_c, 0, 64, 84
1, 320513, Control_c, 0, 67, 59
1, 320528, Control_c, 0, 64, 85
1, 320528, Control_c, 0, 67, 81
1, 320529, Note_off_c, 0, 73, 51
1, 320543, Control_c, 0, 64, 87
1, 320543, Control_c, 0, 67, 105
1, 320544, Note_on_c, 0, 39, 63
1, 320558, Control_c, 0, 64, 89
1, 320558, Control_c, 0, 67, 127
1, 320573, Note_off_c, 0, 47, 53
1, 320573, Control_c, 0, 64, 94
1, 320578, Note_off_c, 0, 66, 63
1, 320579, Note_off_c, 0, 39, 64
1, 320587, Control_c, 0, 64, 99
1, 320602, Control_c, 0, 64, 105
1, 320617, Control_c, 0, 64, 112
1, 320631, Note_off_c, 0, 61, 62
1, 320647, Control_c, 0, 64, 108
1, 320661, Control_c, 0, 64, 85
1, 320676, Control_c, 0, 64, 64
1, 320690, Note_on_c, 0, 40, 74
1, 320691, Control_c, 0, 64, 33
1, 320705, Control_c, 0, 64, 0
1, 320721, Note_on_c, 0, 47, 64
1, 320721, Control_c, 0, 64, 30
1, 320736, Control_c, 0, 64, 49
1, 320739, Note_off_c, 0, 40, 61
1, 320751, Control_c, 0, 64, 65
1, 320766, Control_c, 0, 64, 72
1, 320780, Control_c, 0, 64, 78
1, 320784, Note_off_c, 0, 47, 63
1, 320793, Note_on_c, 0, 56, 57
1, 320795, Control_c, 0, 64, 81
1, 320810, Control_c, 0, 64, 82
1, 320815, Note_on_c, 0, 59, 67
1, 320815, Note_off_c, 0, 56, 59
1, 320825, Control_c, 0, 64, 83
1, 320839, Control_c, 0, 64, 84
1, 320869, Control_c, 0, 64, 84
1, 320876, Note_off_c, 0, 59, 63
1, 320895, Note_on_c, 0, 64, 63
1, 320899, Control_c, 0, 64, 85
1, 320911, Note_on_c, 0, 68, 70
1, 320913, Control_c, 0, 64, 85
1, 320918, Note_on_c, 0, 71, 62
1, 320941, Note_off_c, 0, 64, 63
1, 320962, Note_off_c, 0, 68, 66
1, 320963, Note_off_c, 0, 71, 62
1, 321032, Control_c, 0, 64, 83
1, 321038, Note_on_c, 0, 75, 92
1, 321048, Control_c, 0, 64, 76
1, 321058, Note_off_c, 0, 75, 72
1, 321063, Control_c, 0, 64, 67
1, 321077, Control_c, 0, 64, 56
1, 321092, Control_c, 0, 64, 43
1, 321107, Note_on_c, 0, 76, 74
1, 321107, Control_c, 0, 64, 34
1, 321110, Note_on_c, 0, 88, 75
1, 321129, Control_c, 0, 64, 31
1, 321135, Note_off_c, 0, 76, 71
1, 321140, Note_off_c, 0, 88, 71
1, 321180, Note_on_c, 0, 76, 93
1, 321195, Note_off_c, 0, 76, 77
1, 321228, Note_on_c, 0, 90, 88
1, 321235, Note_on_c, 0, 78, 79
1, 321253, Note_off_c, 0, 90, 63
1, 321256, Note_off_c, 0, 78, 68
1, 321262, Control_c, 0, 64, 32
1, 321311, Note_on_c, 0, 87, 86
1, 321312, Note_on_c, 0, 75, 99
1, 321347, Note_off_c, 0, 75, 66
1, 321348, Note_off_c, 0, 87, 64
1, 321366, Control_c, 0, 64, 29
1, 321368, Note_on_c, 0, 73, 82
1, 321381, Control_c, 0, 64, 0
1, 321398, Note_off_c, 0, 73, 60
1, 321447, Note_on_c, 0, 85, 85
1, 321449, Note_on_c, 0, 73, 74
1, 321465, Note_off_c, 0, 85, 68
1, 321471, Note_off_c, 0, 73, 70
1, 321509, Note_on_c, 0, 71, 71
1, 321532, Note_off_c, 0, 71, 68
1, 321620, Note_on_c, 0, 82, 62
1, 321620, Note_on_c, 0, 85, 67
1, 321633, Control_c, 0, 64, 35
1, 321647, Control_c, 0, 64, 50
1, 321662, Control_c, 0, 64, 60
1, 321677, Control_c, 0, 64, 64
1, 321678, Note_on_c, 0, 76, 53
1, 321680, Note_on_c, 0, 73, 63
1, 321692, Control_c, 0, 64, 67
1, 321701, Note_on_c, 0, 70, 54
1, 321707, Control_c, 0, 64, 69
1, 321722, Control_c, 0, 64, 71
1, 321734, Note_off_c, 0, 70, 66
1, 321736, Control_c, 0, 64, 71
1, 321744, Note_on_c, 0, 64, 61
1, 321751, Control_c, 0, 64, 72
1, 321757, Note_off_c, 0, 85, 58
1, 321766, Control_c, 0, 64, 72
1, 321781, Control_c, 0, 64, 72
1, 321783, Note_on_c, 0, 61, 63
1, 321784, Note_off_c, 0, 82, 60
1, 321789, Note_off_c, 0, 73, 58
1, 321796, Control_c, 0, 64, 71
1, 321801, Note_off_c, 0, 76, 64
1, 321810, Control_c, 0, 64, 67
1, 321819, Note_on_c, 0, 55, 64
1, 321821, Note_off_c, 0, 64, 64
1, 321825, Control_c, 0, 64, 58
1, 321840, Control_c, 0, 64, 39
1, 321842, Note_off_c, 0, 61, 64
1, 321847, Note_off_c, 0, 55, 66
1, 321856, Control_c, 0, 64, 0
1, 322071, Control_c, 0, 64, 29
1, 322085, Control_c, 0, 64, 44
1, 322099, Note_on_c, 0, 32, 61
1, 322100, Control_c, 0, 64, 58
1, 322115, Control_c, 0, 64, 64
1, 322130, Control_c, 0, 64, 67
1, 322145, Control_c, 0, 64, 68
1, 322159, Control_c, 0, 64, 68
1, 322174, Control_c, 0, 64, 69
1, 322189, Control_c, 0, 64, 70
1, 322190, Note_on_c, 0, 41, 61
1, 322204, Control_c, 0, 64, 70
1, 322218, Note_off_c, 0, 32, 59
1, 322228, Note_on_c, 0, 44, 58
1, 322231, Note_off_c, 0, 41, 61
1, 322272, Note_on_c, 0, 49, 63
1, 322275, Note_off_c, 0, 44, 57
1, 322297, Note_on_c, 0, 56, 73
1, 322317, Note_off_c, 0, 49, 62
1, 322328, Note_off_c, 0, 56, 65
1, 322351, Control_c, 0, 64, 70
1, 322353, Note_on_c, 0, 48, 103
1, 322366, Control_c, 0, 64, 68
1, 322376, Note_off_c, 0, 48, 72
1, 322381, Control_c, 0, 64, 63
1, 322396, Control_c, 0, 64, 54
1, 322411, Control_c, 0, 64, 42
1, 322424, Note_on_c, 0, 61, 86
1, 322424, Note_on_c, 0, 49, 79
1, 322425, Control_c, 0, 64, 0
1, 322446, Note_off_c, 0, 61, 69
1, 322449, Note_off_c, 0, 49, 67
1, 322482, Note_on_c, 0, 49, 103
1, 322515, Note_off_c, 0, 49, 65
1, 322543, Note_on_c, 0, 63, 81
1, 322544, Note_on_c, 0, 51, 87
1, 322565, Note_off_c, 0, 63, 69
1, 322569, Note_off_c, 0, 51, 68
1, 322632, Note_on_c, 0, 60, 82
1, 322637, Note_on_c, 0, 48, 90
1, 322663, Note_off_c, 0, 48, 69
1, 322666, Note_off_c, 0, 60, 67
1, 322708, Note_on_c, 0, 46, 79
1, 322730, Note_off_c, 0, 46, 66
1, 322784, Note_on_c, 0, 58, 60
1, 322789, Note_on_c, 0, 47, 48
1, 322807, Note_off_c, 0, 58, 39
1, 322824, Note_off_c, 0, 47, 52
1, 322833, Note_on_c, 0, 44, 86
1, 322872, Note_off_c, 0, 44, 61
1, 322918, Note_on_c, 0, 58, 85
1, 322922, Control_c, 0, 64, 30
1, 322933, Note_on_c, 0, 52, 72
1, 322937, Control_c, 0, 64, 44
1, 322952, Control_c, 0, 64, 52
1, 322967, Control_c, 0, 64, 57
1, 322981, Control_c, 0, 64, 59
1, 322996, Control_c, 0, 64, 61
1, 322998, Note_on_c, 0, 46, 84
1, 323011, Control_c, 0, 64, 62
1, 323025, Control_c, 0, 64, 64
1, 323040, Control_c, 0, 64, 66
1, 323050, Note_on_c, 0, 42, 75
1, 323055, Control_c, 0, 64, 67
1, 323066, Note_off_c, 0, 46, 62
1, 323070, Control_c, 0, 64, 69
1, 323074, Note_off_c, 0, 52, 61
1, 323085, Control_c, 0, 64, 71
1, 323095, Note_off_c, 0, 58, 62
1, 323099, Control_c, 0, 64, 73
1, 323114, Control_c, 0, 64, 75
1, 323129, Control_c, 0, 64, 77
1, 323144, Note_on_c, 0, 30, 70
1, 323144, Control_c, 0, 64, 78
1, 323154, Note_off_c, 0, 42, 62
1, 323173, Control_c, 0, 64, 76
1, 323174, Note_off_c, 0, 30, 66
1, 323188, Control_c, 0, 64, 65
1, 323203, Control_c, 0, 64, 37
1, 323217, Control_c, 0, 64, 0
1, 323225, Note_on_c, 0, 29, 85
1, 323247, Control_c, 0, 64, 30
1, 323262, Control_c, 0, 64, 48
1, 323277, Control_c, 0, 64, 62
1, 323281, Note_off_c, 0, 29, 64
1, 323292, Control_c, 0, 64, 71
1, 323292, Control_c, 0, 67, 116
1, 323307, Control_c, 0, 64, 77
1, 323307, Control_c, 0, 67, 73
1, 323309, Note_on_c, 0, 46, 80
1, 323322, Control_c, 0, 64, 81
1, 323322, Control_c, 0, 67, 0
1, 323334, Note_off_c, 0, 46, 66
1, 323337, Control_c, 0, 64, 83
1, 323349, Note_on_c, 0, 50, 71
1, 323351, Control_c, 0, 64, 85
1, 323373, Control_c, 0, 64, 86
1, 323401, Note_off_c, 0, 50, 57
1, 323403, Control_c, 0, 64, 86
1, 323431, Note_on_c, 0, 58, 67
1, 323444, Note_on_c, 0, 65, 66
1, 323451, Note_on_c, 0, 64, 51
1, 323460, Note_off_c, 0, 58, 66
1, 323464, Note_off_c, 0, 65, 66
1, 323475, Note_off_c, 0, 64, 59
1, 323478, Control_c, 0, 64, 86
1, 323493, Control_c, 0, 64, 82
1, 323508, Control_c, 0, 64, 73
1, 323518, Note_on_c, 0, 57, 85
1, 323523, Control_c, 0, 64, 64
1, 323537, Control_c, 0, 64, 56
1, 323539, Note_off_c, 0, 57, 71
1, 323552, Control_c, 0, 64, 50
1, 323567, Control_c, 0, 64, 50
1, 323578, Note_on_c, 0, 58, 82
1, 323581, Note_on_c, 0, 70, 92
1, 323582, Control_c, 0, 64, 51
1, 323597, Control_c, 0, 64, 53
1, 323611, Control_c, 0, 64, 55
1, 323617, Note_off_c, 0, 58, 63
1, 323618, Note_off_c, 0, 70, 61
1, 323626, Control_c, 0, 64, 56
1, 323641, Note_on_c, 0, 58, 93
1, 323641, Control_c, 0, 64, 57
1, 323656, Control_c, 0, 64, 59
1, 323658, Note_on_c, 0, 71, 2
1, 323670, Control_c, 0, 64, 60
1, 323675, Note_off_c, 0, 58, 62
1, 323685, Control_c, 0, 64, 60
1, 323697, Note_on_c, 0, 72, 89
1, 323697, Note_on_c, 0, 60, 89
1, 323700, Control_c, 0, 64, 61
1, 323715, Note_off_c, 0, 72, 67
1, 323716, Control_c, 0, 64, 61
1, 323719, Note_off_c, 0, 60, 69
1, 323721, Note_off_c, 0, 71, 23
1, 323745, Control_c, 0, 64, 62
1, 323770, Note_on_c, 0, 69, 90
1, 323776, Note_on_c, 0, 57, 89
1, 323786, Note_on_c, 0, 63, 71
1, 323804, Note_on_c, 0, 60, 45
1, 323810, Note_on_c, 0, 66, 47
1, 323811, Note_off_c, 0, 57, 60
1, 323819, Note_off_c, 0, 69, 63
1, 323819, Control_c, 0, 64, 61
1, 323821, Note_off_c, 0, 63, 61
1, 323822, Note_off_c, 0, 60, 64
1, 323834, Control_c, 0, 64, 61
1, 323837, Note_off_c, 0, 66, 54
1, 323846, Note_on_c, 0, 55, 98
1, 323849, Control_c, 0, 64, 60
1, 323864, Control_c, 0, 64, 59
1, 323864, Note_off_c, 0, 55, 72
1, 323879, Control_c, 0, 64, 57
1, 323894, Control_c, 0, 64, 55
1, 323909, Control_c, 0, 64, 51
1, 323912, Note_on_c, 0, 55, 84
1, 323923, Control_c, 0, 64, 43
1, 323924, Note_on_c, 0, 67, 76
1, 323938, Control_c, 0, 64, 0
1, 323947, Note_off_c, 0, 67, 68
1, 323954, Note_off_c, 0, 55, 61
1, 323993, Note_on_c, 0, 53, 88
1, 324024, Note_off_c, 0, 53, 65
1, 324039, Note_on_c, 0, 67, 92
1, 324047, Note_on_c, 0, 61, 90
1, 324056, Control_c, 0, 64, 36
1, 324071, Control_c, 0, 64, 50
1, 324086, Control_c, 0, 64, 60
1, 324101, Control_c, 0, 64, 64
1, 324123, Control_c, 0, 64, 67
1, 324135, Note_on_c, 0, 52, 82
1, 324138, Control_c, 0, 64, 70
1, 324153, Control_c, 0, 64, 74
1, 324163, Note_off_c, 0, 67, 32
1, 324168, Control_c, 0, 64, 78
1, 324183, Control_c, 0, 64, 82
1, 324194, Note_on_c, 0, 49, 77
1, 324197, Note_on_c, 0, 63, 20
1, 324197, Control_c, 0, 64, 86
1, 324212, Control_c, 0, 64, 89
1, 324227, Control_c, 0, 64, 94
1, 324237, Note_off_c, 0, 61, 51
1, 324240, Note_off_c, 0, 63, 52
1, 324242, Control_c, 0, 64, 102
1, 324245, Note_off_c, 0, 49, 64
1, 324247, Note_off_c, 0, 52, 56
1, 324258, Control_c, 0, 64, 116
1, 324268, Note_on_c, 0, 33, 76
1, 324272, Control_c, 0, 64, 127
1, 324296, Note_off_c, 0, 33, 63
1, 324343, Note_on_c, 0, 32, 104
1, 324347, Control_c, 0, 64, 84
1, 324360, Note_on_c, 0, 41, 86
1, 324361, Control_c, 0, 64, 60
1, 324376, Control_c, 0, 64, 0
1, 324406, Control_c, 0, 64, 31
1, 324420, Control_c, 0, 64, 53
1, 324422, Note_off_c, 0, 32, 63
1, 324435, Control_c, 0, 64, 65
1, 324445, Note_on_c, 0, 49, 88
1, 324450, Control_c, 0, 64, 74
1, 324462, Note_off_c, 0, 41, 64
1, 324464, Control_c, 0, 64, 83
1, 324478, Control_c, 0, 64, 89
1, 324483, Note_on_c, 0, 53, 72
1, 324484, Note_on_c, 0, 50, 46
1, 324493, Control_c, 0, 64, 94
1, 324495, Note_off_c, 0, 49, 63
1, 324508, Control_c, 0, 64, 99
1, 324514, Note_off_c, 0, 50, 56
1, 324523, Control_c, 0, 64, 103
1, 324528, Note_on_c, 0, 61, 63
1, 324532, Note_off_c, 0, 53, 58
1, 324544, Note_on_c, 0, 68, 83
1, 324553, Control_c, 0, 64, 105
1, 324566, Note_off_c, 0, 61, 64
1, 324589, Note_off_c, 0, 68, 63
1, 324598, Control_c, 0, 64, 101
1, 324612, Control_c, 0, 64, 86
1, 324621, Note_on_c, 0, 60, 100
1, 324627, Control_c, 0, 64, 65
1, 324642, Control_c, 0, 64, 43
1, 324645, Note_off_c, 0, 60, 69
1, 324657, Control_c, 0, 64, 0
1, 324680, Note_on_c, 0, 73, 94
1, 324682, Note_on_c, 0, 61, 84
1, 324704, Note_off_c, 0, 61, 70
1, 324705, Note_off_c, 0, 73, 64
1, 324731, Control_c, 0, 64, 29
1, 324745, Control_c, 0, 64, 34
1, 324746, Note_on_c, 0, 61, 98
1, 324760, Control_c, 0, 64, 40
1, 324770, Note_off_c, 0, 61, 68
1, 324775, Control_c, 0, 64, 45
1, 324790, Control_c, 0, 64, 49
1, 324799, Note_on_c, 0, 63, 96
1, 324801, Note_on_c, 0, 75, 80
1, 324805, Control_c, 0, 64, 51
1, 324819, Note_off_c, 0, 63, 68
1, 324819, Note_off_c, 0, 75, 73
1, 324819, Control_c, 0, 64, 53
1, 324834, Control_c, 0, 64, 54
1, 324849, Control_c, 0, 64, 54
1, 324871, Control_c, 0, 64, 54
1, 324881, Note_on_c, 0, 60, 94
1, 324882, Note_on_c, 0, 72, 79
1, 324886, Control_c, 0, 64, 53
1, 324890, Note_on_c, 0, 71, 82
1, 324901, Control_c, 0, 64, 52
1, 324908, Note_off_c, 0, 60, 68
1, 324913, Note_off_c, 0, 71, 64
1, 324916, Control_c, 0, 64, 50
1, 324916, Note_off_c, 0, 72, 68
1, 324931, Control_c, 0, 64, 44
1, 324945, Control_c, 0, 64, 38
1, 324947, Note_on_c, 0, 58, 97
1, 324960, Control_c, 0, 64, 32
1, 324964, Note_off_c, 0, 58, 74
1, 324975, Control_c, 0, 64, 0
1, 325000, Note_on_c, 0, 70, 89
1, 325001, Note_on_c, 0, 58, 94
1, 325021, Note_off_c, 0, 70, 68
1, 325024, Note_off_c, 0, 58, 68
1, 325066, Note_on_c, 0, 56, 98
1, 325104, Note_off_c, 0, 56, 63
1, 325136, Note_on_c, 0, 70, 99
1, 325143, Note_on_c, 0, 64, 97
1, 325168, Control_c, 0, 64, 58
1, 325183, Control_c, 0, 64, 67
1, 325198, Control_c, 0, 64, 70
1, 325213, Control_c, 0, 64, 71
1, 325223, Note_on_c, 0, 58, 92
1, 325227, Control_c, 0, 64, 73
1, 325242, Control_c, 0, 64, 78
1, 325257, Control_c, 0, 64, 84
1, 325261, Note_on_c, 0, 54, 76
1, 325272, Control_c, 0, 64, 89
1, 325283, Note_off_c, 0, 58, 66
1, 325284, Note_off_c, 0, 64, 60
1, 325287, Control_c, 0, 64, 96
1, 325301, Control_c, 0, 64, 104
1, 325307, Note_off_c, 0, 70, 57
1, 325316, Control_c, 0, 64, 127
1, 325349, Note_on_c, 0, 42, 77
1, 325349, Note_off_c, 0, 54, 59
1, 325374, Note_off_c, 0, 42, 65
1, 325420, Control_c, 0, 64, 112
1, 325422, Note_on_c, 0, 41, 96
1, 325435, Control_c, 0, 64, 71
1, 325450, Control_c, 0, 64, 33
1, 325465, Control_c, 0, 64, 0
1, 325476, Note_off_c, 0, 41, 68
1, 325494, Control_c, 0, 64, 47
1, 325509, Control_c, 0, 64, 62
1, 325510, Note_on_c, 0, 58, 82
1, 325524, Control_c, 0, 64, 71
1, 325528, Note_off_c, 0, 58, 66
1, 325539, Control_c, 0, 64, 81
1, 325554, Control_c, 0, 64, 88
1, 325562, Note_on_c, 0, 62, 69
1, 325568, Control_c, 0, 64, 95
1, 325583, Control_c, 0, 64, 105
1, 325598, Control_c, 0, 64, 116
1, 325600, Note_off_c, 0, 62, 60
1, 325613, Control_c, 0, 64, 127
1, 325614, Note_on_c, 0, 70, 77
1, 325631, Note_on_c, 0, 77, 82
1, 325641, Note_off_c, 0, 70, 71
1, 325665, Note_off_c, 0, 77, 62
1, 325715, Note_on_c, 0, 69, 96
1, 325735, Note_off_c, 0, 69, 66
1, 325739, Control_c, 0, 64, 98
1, 325754, Control_c, 0, 64, 68
1, 325762, Note_on_c, 0, 82, 95
1, 325763, Note_on_c, 0, 70, 91
1, 325768, Control_c, 0, 64, 47
1, 325782, Note_off_c, 0, 70, 68
1, 325783, Control_c, 0, 64, 0
1, 325800, Note_off_c, 0, 82, 65
1, 325839, Note_on_c, 0, 70, 103
1, 325843, Control_c, 0, 64, 37
1, 325858, Control_c, 0, 64, 45
1, 325861, Poly_aftertouch_c, 0, 71, 0
1, 325870, Note_off_c, 0, 70, 66
1, 325873, Control_c, 0, 64, 51
1, 325888, Control_c, 0, 64, 56
1, 325889, Note_on_c, 0, 84, 84
1, 325903, Note_on_c, 0, 72, 74
1, 325903, Control_c, 0, 64, 60
1, 325917, Control_c, 0, 64, 63
1, 325921, Note_on_c, 0, 74, 43
1, 325921, Note_off_c, 0, 84, 66
1, 325923, Note_off_c, 0, 72, 70
1, 325932, Control_c, 0, 64, 65
1, 325947, Control_c, 0, 64, 66
1, 325949, Note_off_c, 0, 74, 36
1, 325962, Control_c, 0, 64, 67
1, 325969, Note_on_c, 0, 81, 84
1, 325977, Control_c, 0, 64, 68
1, 325981, Note_on_c, 0, 67, 64
1, 325981, Note_off_c, 0, 67, 127
1, 325981, Note_on_c, 0, 71, 85
1, 325983, Note_on_c, 0, 79, 76
1, 325990, Note_on_c, 0, 72, 62
1, 325991, Control_c, 0, 64, 69
1, 325993, Note_on_c, 0, 75, 49
1, 325993, Note_off_c, 0, 75, 127
1, 325999, Note_off_c, 0, 79, 65
1, 326001, Note_on_c, 0, 74, 66
1, 326002, Note_off_c, 0, 71, 68
1, 326004, Note_off_c, 0, 81, 66
1, 326006, Note_off_c, 0, 72, 66
1, 326019, Note_off_c, 0, 74, 66
1, 326041, Note_on_c, 0, 67, 93
1, 326050, Control_c, 0, 64, 68
1, 326063, Note_off_c, 0, 67, 69
1, 326065, Control_c, 0, 64, 67
1, 326080, Control_c, 0, 64, 66
1, 326094, Note_on_c, 0, 79, 63
1, 326095, Control_c, 0, 64, 63
1, 326097, Note_on_c, 0, 67, 89
1, 326110, Control_c, 0, 64, 55
1, 326124, Control_c, 0, 64, 0
1, 326130, Note_off_c, 0, 67, 64
1, 326135, Note_off_c, 0, 79, 61
1, 326163, Note_on_c, 0, 65, 102
1, 326191, Note_off_c, 0, 65, 67
1, 326225, Note_on_c, 0, 73, 101
1, 326225, Note_on_c, 0, 79, 91
1, 326228, Control_c, 0, 64, 60
1, 326243, Control_c, 0, 64, 72
1, 326258, Control_c, 0, 64, 83
1, 326273, Control_c, 0, 64, 90
1, 326288, Control_c, 0, 64, 93
1, 326303, Control_c, 0, 64, 96
1, 326305, Note_on_c, 0, 64, 89
1, 326317, Control_c, 0, 64, 99
1, 326320, Note_off_c, 0, 79, 53
1, 326331, Note_on_c, 0, 77, 38
1, 326332, Control_c, 0, 64, 103
1, 326347, Control_c, 0, 64, 107
1, 326347, Note_on_c, 0, 61, 83
1, 326362, Control_c, 0, 64, 117
1, 326362, Note_off_c, 0, 77, 54
1, 326384, Control_c, 0, 64, 127
1, 326402, Note_off_c, 0, 61, 65
1, 326405, Note_off_c, 0, 64, 61
1, 326411, Note_off_c, 0, 73, 58
1, 326416, Poly_aftertouch_c, 0, 75, 0
1, 326432, Note_on_c, 0, 45, 74
1, 326461, Note_off_c, 0, 45, 67
1, 326473, Control_c, 0, 64, 71
1, 326487, Control_c, 0, 64, 38
1, 326502, Control_c, 0, 64, 0
1, 326517, Note_on_c, 0, 44, 91
1, 326522, Note_on_c, 0, 53, 85
1, 326532, Control_c, 0, 64, 44
1, 326547, Control_c, 0, 64, 63
1, 326562, Control_c, 0, 64, 76
1, 326576, Control_c, 0, 64, 108
1, 326589, Note_off_c, 0, 44, 64
1, 326591, Control_c, 0, 64, 127
1, 326606, Note_on_c, 0, 61, 90
1, 326622, Note_off_c, 0, 53, 64
1, 326636, Note_on_c, 0, 65, 76
1, 326657, Note_off_c, 0, 61, 65
1, 326685, Note_on_c, 0, 73, 69
1, 326687, Note_on_c, 0, 67, 30
1, 326702, Note_off_c, 0, 65, 63
1, 326714, Note_on_c, 0, 80, 88
1, 326722, Note_off_c, 0, 67, 53
1, 326734, Note_off_c, 0, 73, 65
1, 326750, Note_off_c, 0, 80, 66
1, 326779, Note_on_c, 0, 72, 105
1, 326785, Control_c, 0, 64, 81
1, 326800, Control_c, 0, 64, 45
1, 326806, Note_off_c, 0, 72, 66
1, 326815, Control_c, 0, 64, 0
1, 326846, Note_on_c, 0, 85, 97
1, 326849, Note_on_c, 0, 73, 92
1, 326879, Note_off_c, 0, 73, 65
1, 326882, Note_off_c, 0, 85, 62
1, 326908, Note_on_c, 0, 73, 96
1, 326936, Note_off_c, 0, 73, 69
1, 326981, Note_on_c, 0, 75, 98
1, 326985, Note_on_c, 0, 87, 88
1, 326992, Control_c, 0, 64, 58
1, 327003, Note_on_c, 0, 85, 63
1, 327007, Control_c, 0, 64, 127
1, 327009, Note_off_c, 0, 87, 62
1, 327021, Note_off_c, 0, 75, 63
1, 327038, Note_off_c, 0, 85, 64
1, 327048, Note_on_c, 0, 74, 10
1, 327062, Note_on_c, 0, 44, 75
1, 327067, Note_on_c, 0, 51, 71
1, 327070, Note_on_c, 0, 54, 70
1, 327083, Note_on_c, 0, 59, 73
1, 327093, Note_off_c, 0, 44, 65
1, 327096, Note_off_c, 0, 51, 65
1, 327096, Note_off_c, 0, 54, 65
1, 327103, Note_off_c, 0, 74, 33
1, 327122, Note_off_c, 0, 59, 64
1, 327150, Note_on_c, 0, 84, 95
1, 327152, Note_on_c, 0, 72, 93
1, 327154, Note_on_c, 0, 75, 86
1, 327157, Note_on_c, 0, 78, 78
1, 327191, Note_off_c, 0, 78, 56
1, 327194, Note_off_c, 0, 72, 66
1, 327196, Note_off_c, 0, 84, 66
1, 327212, Note_off_c, 0, 75, 65
1, 327224, Note_on_c, 0, 70, 95
1, 327232, Note_on_c, 0, 58, 90
1, 327256, Note_off_c, 0, 58, 66
1, 327259, Note_off_c, 0, 70, 60
1, 327267, Control_c, 0, 64, 90
1, 327281, Note_on_c, 0, 70, 77
1, 327281, Control_c, 0, 64, 42
1, 327284, Note_on_c, 0, 82, 92
1, 327296, Control_c, 0, 64, 0
1, 327312, Note_off_c, 0, 70, 70
1, 327326, Control_c, 0, 64, 31
1, 327331, Note_off_c, 0, 82, 63
1, 327341, Control_c, 0, 64, 61
1, 327345, Note_on_c, 0, 68, 94
1, 327346, Note_on_c, 0, 56, 85
1, 327355, Control_c, 0, 64, 82
1, 327368, Note_off_c, 0, 56, 69
1, 327370, Control_c, 0, 64, 127
1, 327373, Note_off_c, 0, 68, 59
1, 327397, Note_on_c, 0, 86, 93
1, 327397, Note_on_c, 0, 74, 98
1, 327398, Note_on_c, 0, 77, 90
1, 327403, Note_on_c, 0, 80, 83
1, 327435, Note_off_c, 0, 74, 66
1, 327444, Note_off_c, 0, 86, 63
1, 327447, Note_off_c, 0, 77, 64
1, 327447, Note_off_c, 0, 80, 59
1, 327461, Note_on_c, 0, 73, 96
1, 327467, Note_on_c, 0, 61, 84
1, 327471, Poly_aftertouch_c, 0, 56, 127
1, 327495, Note_off_c, 0, 73, 67
1, 327504, Control_c, 0, 64, 74
1, 327505, Note_off_c, 0, 61, 62
1, 327512, Poly_aftertouch_c, 0, 56, 0
1, 327519, Control_c, 0, 64, 0
1, 327522, Note_on_c, 0, 85, 96
1, 327524, Note_on_c, 0, 73, 93
1, 327526, Note_on_c, 0, 63, 6
1, 327561, Note_off_c, 0, 73, 66
1, 327567, Note_off_c, 0, 63, 32
1, 327575, Note_off_c, 0, 85, 59
1, 327578, Note_on_c, 0, 71, 96
1, 327578, Control_c, 0, 64, 55
1, 327583, Note_on_c, 0, 59, 92
1, 327593, Control_c, 0, 64, 92
1, 327604, Note_off_c, 0, 59, 71
1, 327608, Control_c, 0, 64, 127
1, 327614, Note_off_c, 0, 71, 66
1, 327635, Note_on_c, 0, 82, 91
1, 327635, Note_on_c, 0, 88, 95
1, 327638, Note_on_c, 0, 76, 102
1, 327649, Note_on_c, 0, 80, 65
1, 327665, Note_on_c, 0, 79, 61
1, 327683, Note_off_c, 0, 76, 67
1, 327687, Note_off_c, 0, 88, 66
1, 327689, Note_off_c, 0, 82, 59
1, 327692, Note_off_c, 0, 79, 67
1, 327698, Note_on_c, 0, 75, 94
1, 327699, Note_off_c, 0, 80, 37
1, 327702, Note_on_c, 0, 63, 86
1, 327735, Note_off_c, 0, 75, 67
1, 327739, Note_off_c, 0, 63, 62
1, 327766, Note_on_c, 0, 75, 93
1, 327769, Note_on_c, 0, 87, 96
1, 327771, Control_c, 0, 64, 87
1, 327786, Control_c, 0, 64, 0
1, 327789, Note_on_c, 0, 85, 66
1, 327808, Note_off_c, 0, 85, 63
1, 327811, Note_off_c, 0, 75, 68
1, 327820, Note_off_c, 0, 87, 56
1, 327825, Note_on_c, 0, 61, 91
1, 327826, Note_on_c, 0, 73, 99
1, 327845, Control_c, 0, 64, 36
1, 327857, Note_off_c, 0, 61, 63
1, 327868, Control_c, 0, 64, 70
1, 327874, Note_off_c, 0, 73, 61
1, 327882, Control_c, 0, 64, 127
1, 327903, Note_on_c, 0, 82, 91
1, 327905, Note_on_c, 0, 88, 95
1, 327907, Note_on_c, 0, 76, 99
1, 327915, Note_on_c, 0, 79, 83
1, 327927, Note_on_c, 0, 77, 59
1, 327943, Note_off_c, 0, 76, 67
1, 327945, Note_off_c, 0, 82, 64
1, 327948, Note_off_c, 0, 77, 64
1, 327951, Note_off_c, 0, 88, 65
1, 327963, Note_off_c, 0, 79, 60
1, 327984, Note_on_c, 0, 75, 94
1, 327986, Note_on_c, 0, 63, 84
1, 328034, Note_on_c, 0, 87, 93
1, 328034, Note_off_c, 0, 63, 62
1, 328068, Note_off_c, 0, 75, 70
1, 328079, Poly_aftertouch_c, 0, 62, 127
1, 328097, Poly_aftertouch_c, 0, 62, 0
1, 328101, Note_off_c, 0, 87, 61
1, 328107, Note_on_c, 0, 74, 95
1, 328116, Note_on_c, 0, 62, 41
1, 328134, Control_c, 0, 64, 69
1, 328146, Note_off_c, 0, 62, 62
1, 328149, Control_c, 0, 64, 0
1, 328155, Note_off_c, 0, 74, 64
1, 328208, Note_on_c, 0, 56, 94
1, 328220, Note_on_c, 0, 85, 9
1, 328221, Note_on_c, 0, 63, 77
1, 328222, Control_c, 0, 64, 47
1, 328237, Control_c, 0, 64, 74
1, 328239, Note_off_c, 0, 85, 46
1, 328249, Note_on_c, 0, 65, 73
1, 328253, Control_c, 0, 64, 127
1, 328258, Note_off_c, 0, 56, 61
1, 328277, Note_on_c, 0, 58, 23
1, 328277, Note_off_c, 0, 65, 66
1, 328288, Note_on_c, 0, 66, 14
1, 328289, Note_on_c, 0, 73, 95
1, 328291, Note_off_c, 0, 63, 63
1, 328294, Note_on_c, 0, 93, 100
1, 328296, Note_on_c, 0, 81, 105
1, 328296, Note_off_c, 0, 58, 0
1, 328300, Note_on_c, 0, 85, 85
1, 328305, Note_on_c, 0, 87, 82
1, 328321, Note_off_c, 0, 73, 66
1, 328326, Poly_aftertouch_c, 0, 58, 0
1, 328333, Note_off_c, 0, 66, 42
1, 328336, Note_off_c, 0, 81, 68
1, 328336, Note_off_c, 0, 87, 58
1, 328353, Note_off_c, 0, 93, 63
1, 328354, Note_off_c, 0, 85, 60
1, 328387, Note_on_c, 0, 80, 97
1, 328416, Note_off_c, 0, 80, 62
1, 328431, Control_c, 0, 64, 99
1, 328446, Control_c, 0, 64, 56
1, 328450, Note_on_c, 0, 92, 75
1, 328451, Note_on_c, 0, 80, 74
1, 328461, Control_c, 0, 64, 0
1, 328470, Note_off_c, 0, 80, 73
1, 328474, Note_off_c, 0, 92, 71
1, 328514, Note_on_c, 0, 78, 91
1, 328517, Note_on_c, 0, 90, 88
1, 328538, Note_off_c, 0, 78, 63
1, 328550, Note_on_c, 0, 56, 66
1, 328556, Note_off_c, 0, 90, 64
1, 328595, Note_on_c, 0, 63, 65
1, 328599, Note_on_c, 0, 66, 79
1, 328616, Control_c, 0, 64, 71
1, 328625, Note_on_c, 0, 96, 104
1, 328626, Note_on_c, 0, 84, 100
1, 328626, Note_off_c, 0, 56, 64
1, 328628, Note_on_c, 0, 87, 104
1, 328631, Control_c, 0, 64, 127
1, 328632, Note_off_c, 0, 63, 66
1, 328634, Note_on_c, 0, 90, 93
1, 328639, Note_on_c, 0, 72, 94
1, 328648, Note_off_c, 0, 66, 61
1, 328680, Note_off_c, 0, 72, 63
1, 328711, Note_off_c, 0, 84, 61
1, 328713, Note_off_c, 0, 96, 65
1, 328732, Note_off_c, 0, 87, 62
1, 328732, Note_off_c, 0, 90, 63
1, 328738, Note_on_c, 0, 82, 97
1, 328747, Note_on_c, 0, 83, 87
1, 328765, Note_off_c, 0, 83, 73
1, 328774, Note_off_c, 0, 82, 65
1, 328834, Note_on_c, 0, 94, 93
1, 328836, Note_on_c, 0, 82, 92
1, 328838, Control_c, 0, 64, 98
1, 328853, Control_c, 0, 64, 62
1, 328863, Note_off_c, 0, 82, 65
1, 328868, Control_c, 0, 64, 0
1, 328869, Note_off_c, 0, 94, 59
1, 328939, Note_on_c, 0, 92, 101
1, 328941, Note_on_c, 0, 80, 93
1, 328978, Note_on_c, 0, 93, 46
1, 328985, Note_off_c, 0, 80, 65
1, 328988, Note_off_c, 0, 92, 64
1, 329009, Note_off_c, 0, 93, 51
1, 329090, Control_c, 0, 64, 66
1, 329096, Note_on_c, 0, 89, 90
1, 329097, Note_on_c, 0, 49, 99
1, 329098, Note_on_c, 0, 85, 105
1, 329099, Note_on_c, 0, 97, 104
1, 329100, Note_on_c, 0, 37, 102
1, 329102, Note_on_c, 0, 92, 94
1, 329105, Note_on_c, 0, 44, 82
1, 329105, Control_c, 0, 64, 127
1, 329137, Note_off_c, 0, 44, 58
1, 329140, Note_on_c, 0, 36, 37
1, 329140, Note_off_c, 0, 37, 59
1, 329145, Note_off_c, 0, 97, 65
1, 329167, Note_off_c, 0, 92, 65
1, 329169, Note_off_c, 0, 89, 62
1, 329177, Note_off_c, 0, 49, 55
1, 329181, Note_off_c, 0, 36, 49
1, 329181, Note_off_c, 0, 85, 61
1, 329483, Note_on_c, 0, 61, 73
1, 329486, Note_on_c, 0, 56, 82
1, 329514, Note_off_c, 0, 56, 65
1, 329516, Note_off_c, 0, 61, 61
1, 329570, Note_on_c, 0, 56, 89
1, 329570, Note_on_c, 0, 61, 79
1, 329572, Control_c, 0, 64, 105
1, 329586, Control_c, 0, 64, 94
1, 329601, Control_c, 0, 64, 85
1, 329616, Control_c, 0, 64, 77
1, 329626, Note_off_c, 0, 56, 62
1, 329631, Control_c, 0, 64, 69
1, 329646, Control_c, 0, 64, 61
1, 329650, Note_off_c, 0, 61, 62
1, 329650, Note_on_c, 0, 54, 93
1, 329658, Note_on_c, 0, 49, 76
1, 329660, Control_c, 0, 64, 53
1, 329675, Control_c, 0, 64, 46
1, 329686, Note_off_c, 0, 49, 63
1, 329689, Note_off_c, 0, 54, 61
1, 329690, Control_c, 0, 64, 43
1, 329705, Control_c, 0, 64, 41
1, 329719, Note_on_c, 0, 54, 86
1, 329720, Control_c, 0, 64, 39
1, 329734, Note_on_c, 0, 49, 74
1, 329734, Control_c, 0, 64, 37
1, 329749, Control_c, 0, 64, 35
1, 329763, Note_on_c, 0, 51, 45
1, 329764, Control_c, 0, 64, 34
1, 329787, Note_off_c, 0, 54, 63
1, 329792, Note_off_c, 0, 49, 61
1, 329795, Note_off_c, 0, 51, 52
1, 329814, Note_on_c, 0, 56, 79
1, 329814, Note_on_c, 0, 61, 75
1, 329839, Note_off_c, 0, 56, 68
1, 329839, Note_off_c, 0, 61, 67
1, 329874, Note_on_c, 0, 56, 90
1, 329880, Note_on_c, 0, 61, 86
1, 329921, Note_off_c, 0, 56, 63
1, 329928, Control_c, 0, 64, 34
1, 329934, Note_off_c, 0, 61, 65
1, 329943, Note_on_c, 0, 49, 87
1, 329943, Note_on_c, 0, 57, 86
1, 329943, Control_c, 0, 64, 33
1, 329957, Control_c, 0, 64, 29
1, 329965, Note_off_c, 0, 57, 71
1, 329966, Note_off_c, 0, 49, 69
1, 329972, Control_c, 0, 64, 0
1, 330002, Note_on_c, 0, 49, 86
1, 330003, Note_on_c, 0, 57, 90
1, 330047, Note_off_c, 0, 57, 66
1, 330065, Note_off_c, 0, 49, 61
1, 330073, Note_on_c, 0, 59, 89
1, 330081, Note_on_c, 0, 61, 68
1, 330097, Note_off_c, 0, 59, 66
1, 330115, Note_off_c, 0, 61, 64
1, 330136, Note_on_c, 0, 59, 83
1, 330145, Note_on_c, 0, 61, 86
1, 330186, Note_off_c, 0, 59, 64
1, 330193, Note_off_c, 0, 61, 62
1, 330214, Note_on_c, 0, 56, 95
1, 330217, Note_on_c, 0, 49, 88
1, 330240, Note_off_c, 0, 49, 69
1, 330255, Note_off_c, 0, 56, 0
1, 330280, Note_on_c, 0, 49, 79
1, 330291, Poly_aftertouch_c, 0, 56, 127
1, 330314, Poly_aftertouch_c, 0, 56, 0
1, 330315, Note_on_c, 0, 48, 49
1, 330318, Note_off_c, 0, 49, 60
1, 330332, Note_on_c, 0, 61, 76
1, 330333, Note_on_c, 0, 57, 73
1, 330336, Control_c, 0, 64, 32
1, 330351, Control_c, 0, 64, 36
1, 330354, Note_off_c, 0, 48, 51
1, 330356, Note_off_c, 0, 61, 68
1, 330360, Note_off_c, 0, 57, 67
1, 330365, Control_c, 0, 64, 38
1, 330380, Control_c, 0, 64, 39
1, 330395, Control_c, 0, 64, 41
1, 330401, Note_on_c, 0, 61, 85
1, 330409, Control_c, 0, 64, 44
1, 330419, Note_on_c, 0, 57, 75
1, 330424, Control_c, 0, 64, 46
1, 330439, Control_c, 0, 64, 47
1, 330446, Note_off_c, 0, 57, 67
1, 330455, Control_c, 0, 64, 47
1, 330461, Note_off_c, 0, 61, 62
1, 330482, Note_on_c, 0, 54, 99
1, 330485, Note_on_c, 0, 47, 90
1, 330499, Control_c, 0, 64, 46
1, 330512, Note_off_c, 0, 54, 65
1, 330514, Note_off_c, 0, 47, 66
1, 330514, Control_c, 0, 64, 44
1, 330529, Control_c, 0, 64, 39
1, 330544, Control_c, 0, 64, 34
1, 330556, Note_on_c, 0, 55, 86
1, 330558, Control_c, 0, 64, 32
1, 330569, Note_on_c, 0, 54, 40
1, 330594, Note_off_c, 0, 55, 65
1, 330595, Note_off_c, 0, 54, 44
1, 330624, Note_on_c, 0, 52, 88
1, 330652, Note_off_c, 0, 52, 63
1, 330674, Note_on_c, 0, 52, 79
1, 330735, Note_on_c, 0, 47, 87
1, 330738, Note_off_c, 0, 52, 61
1, 330746, Note_on_c, 0, 57, 94
1, 330752, Control_c, 0, 64, 30
1, 330767, Control_c, 0, 64, 0
1, 330781, Note_off_c, 0, 47, 66
1, 330781, Note_off_c, 0, 57, 64
1, 330807, Note_on_c, 0, 59, 85
1, 330808, Note_on_c, 0, 57, 72
1, 330832, Note_off_c, 0, 59, 68
1, 330834, Note_off_c, 0, 57, 66
1, 330884, Note_on_c, 0, 56, 90
1, 330904, Note_off_c, 0, 56, 70
1, 330942, Note_on_c, 0, 56, 92
1, 330963, Note_off_c, 0, 56, 72
1, 330968, Note_on_c, 0, 47, 63
1, 330999, Note_off_c, 0, 47, 0
1, 331012, Note_on_c, 0, 54, 97
1, 331017, Note_on_c, 0, 47, 66
1, 331045, Note_off_c, 0, 47, 65
1, 331048, Note_off_c, 0, 54, 66
1, 331092, Note_on_c, 0, 54, 62
1, 331123, Note_on_c, 0, 56, 91
1, 331132, Note_off_c, 0, 54, 65
1, 331164, Note_off_c, 0, 56, 65
1, 331203, Control_c, 0, 64, 29
1, 331218, Note_on_c, 0, 47, 77
1, 331226, Note_on_c, 0, 57, 80
1, 331233, Note_on_c, 0, 56, 44
1, 331248, Control_c, 0, 64, 0
1, 331279, Note_off_c, 0, 56, 63
1, 331296, Note_off_c, 0, 57, 66
1, 331299, Note_off_c, 0, 47, 65
1, 331319, Note_on_c, 0, 51, 6
1, 331324, Note_on_c, 0, 59, 94
1, 331328, Note_on_c, 0, 60, 82
1, 331348, Note_off_c, 0, 59, 68
1, 331349, Note_off_c, 0, 60, 70
1, 331353, Note_off_c, 0, 51, 28
1, 331400, Note_on_c, 0, 54, 92
1, 331401, Note_on_c, 0, 42, 90
1, 331432, Note_off_c, 0, 42, 68
1, 331436, Note_off_c, 0, 54, 60
1, 331468, Note_on_c, 0, 75, 99
1, 331473, Note_on_c, 0, 69, 89
1, 331477, Note_on_c, 0, 81, 84
1, 331491, Note_off_c, 0, 69, 72
1, 331493, Note_off_c, 0, 81, 75
1, 331504, Note_off_c, 0, 75, 68
1, 331530, Control_c, 0, 64, 62
1, 331545, Control_c, 0, 64, 92
1, 331560, Control_c, 0, 64, 127
1, 331571, Note_on_c, 0, 78, 86
1, 331574, Note_on_c, 0, 73, 105
1, 331576, Note_on_c, 0, 49, 107
1, 331577, Note_on_c, 0, 85, 106
1, 331579, Note_on_c, 0, 37, 101
1, 331582, Note_on_c, 0, 44, 82
1, 331584, Note_off_c, 0, 78, 66
1, 331587, Note_on_c, 0, 77, 80
1, 331623, Note_off_c, 0, 85, 64
1, 331625, Note_on_c, 0, 36, 41
1, 331637, Note_off_c, 0, 37, 59
1, 331640, Note_off_c, 0, 77, 42
1, 331647, Note_off_c, 0, 73, 58
1, 331666, Note_off_c, 0, 36, 50
1, 331668, Note_off_c, 0, 49, 59
1, 331672, Note_off_c, 0, 44, 60
1, 331826, Note_on_c, 0, 56, 71
1, 331834, Control_c, 0, 64, 107
1, 331849, Control_c, 0, 64, 87
1, 331853, Note_off_c, 0, 56, 66
1, 331863, Control_c, 0, 64, 73
1, 331878, Control_c, 0, 64, 61
1, 331883, Note_on_c, 0, 62, 21
1, 331893, Control_c, 0, 64, 46
1, 331907, Poly_aftertouch_c, 0, 56, 127
1, 331908, Control_c, 0, 64, 31
1, 331922, Note_on_c, 0, 54, 88
1, 331923, Control_c, 0, 64, 0
1, 331925, Note_on_c, 0, 49, 81
1, 331925, Poly_aftertouch_c, 0, 56, 0
1, 331937, Note_off_c, 0, 62, 63
1, 331941, Note_off_c, 0, 54, 70
1, 331950, Note_off_c, 0, 49, 67
1, 331991, Note_on_c, 0, 49, 97
1, 331992, Note_on_c, 0, 54, 96
1, 332035, Note_off_c, 0, 54, 62
1, 332046, Note_off_c, 0, 49, 61
1, 332061, Note_on_c, 0, 56, 89
1, 332062, Note_on_c, 0, 61, 78
1, 332086, Note_off_c, 0, 61, 67
1, 332087, Note_off_c, 0, 56, 65
1, 332124, Note_on_c, 0, 56, 80
1, 332124, Note_on_c, 0, 61, 92
1, 332162, Note_off_c, 0, 56, 63
1, 332178, Note_off_c, 0, 61, 65
1, 332184, Note_on_c, 0, 49, 89
1, 332184, Note_on_c, 0, 57, 97
1, 332209, Note_off_c, 0, 57, 67
1, 332214, Note_off_c, 0, 49, 65
1, 332247, Note_on_c, 0, 57, 83
1, 332247, Note_on_c, 0, 49, 79
1, 332290, Note_off_c, 0, 57, 66
1, 332302, Note_off_c, 0, 49, 62
1, 332316, Note_on_c, 0, 59, 87
1, 332337, Note_off_c, 0, 59, 69
1, 332360, Control_c, 0, 64, 30
1, 332375, Note_on_c, 0, 59, 88
1, 332380, Note_on_c, 0, 61, 58
1, 332390, Control_c, 0, 64, 32
1, 332405, Control_c, 0, 64, 32
1, 332407, Note_on_c, 0, 60, 58
1, 332417, Note_off_c, 0, 59, 65
1, 332428, Note_off_c, 0, 60, 61
1, 332434, Note_off_c, 0, 61, 63
1, 332448, Note_on_c, 0, 56, 99
1, 332449, Control_c, 0, 64, 33
1, 332452, Note_on_c, 0, 49, 86
1, 332477, Note_off_c, 0, 49, 67
1, 332518, Note_on_c, 0, 49, 76
1, 332539, Control_c, 0, 64, 33
1, 332554, Control_c, 0, 64, 34
1, 332556, Note_off_c, 0, 49, 63
1, 332558, Note_off_c, 0, 56, 65
1, 332560, Note_on_c, 0, 61, 75
1, 332563, Note_on_c, 0, 57, 72
1, 332568, Control_c, 0, 64, 35
1, 332583, Control_c, 0, 64, 38
1, 332583, Note_off_c, 0, 61, 67
1, 332589, Note_off_c, 0, 57, 66
1, 332598, Control_c, 0, 64, 40
1, 332612, Control_c, 0, 64, 42
1, 332623, Note_on_c, 0, 61, 93
1, 332627, Control_c, 0, 64, 44
1, 332637, Note_on_c, 0, 57, 80
1, 332642, Control_c, 0, 64, 47
1, 332657, Control_c, 0, 64, 48
1, 332664, Note_off_c, 0, 57, 67
1, 332672, Note_off_c, 0, 61, 61
1, 332672, Control_c, 0, 64, 49
1, 332703, Note_on_c, 0, 54, 96
1, 332712, Note_on_c, 0, 49, 92
1, 332715, Control_c, 0, 64, 48
1, 332730, Control_c, 0, 64, 46
1, 332733, Note_off_c, 0, 54, 68
1, 332735, Note_off_c, 0, 49, 69
1, 332745, Control_c, 0, 64, 42
1, 332759, Control_c, 0, 64, 37
1, 332765, Poly_aftertouch_c, 0, 54, 0
1, 332770, Note_on_c, 0, 54, 83
1, 332774, Control_c, 0, 64, 33
1, 332789, Control_c, 0, 64, 29
1, 332804, Control_c, 0, 64, 0
1, 332810, Note_on_c, 0, 57, 17
1, 332814, Note_off_c, 0, 54, 64
1, 332822, Note_off_c, 0, 57, 42
1, 332843, Note_on_c, 0, 52, 89
1, 332881, Note_off_c, 0, 52, 0
1, 332893, Note_on_c, 0, 52, 67
1, 332899, Poly_aftertouch_c, 0, 57, 0
1, 332961, Note_on_c, 0, 49, 85
1, 332962, Note_off_c, 0, 52, 64
1, 332965, Note_on_c, 0, 55, 91
1, 332990, Note_off_c, 0, 55, 67
1, 332996, Note_off_c, 0, 49, 65
1, 333045, Note_on_c, 0, 55, 62
1, 333045, Note_on_c, 0, 57, 54
1, 333079, Note_off_c, 0, 55, 64
1, 333087, Control_c, 0, 64, 29
1, 333087, Note_on_c, 0, 54, 87
1, 333090, Note_off_c, 0, 57, 52
1, 333114, Note_off_c, 0, 54, 71
1, 333123, Control_c, 0, 64, 31
1, 333138, Control_c, 0, 64, 32
1, 333153, Control_c, 0, 64, 32
1, 333166, Note_on_c, 0, 54, 79
1, 333168, Control_c, 0, 64, 33
1, 333191, Note_off_c, 0, 54, 69
1, 333197, Control_c, 0, 64, 33
1, 333224, Note_on_c, 0, 49, 84
1, 333228, Note_on_c, 0, 52, 94
1, 333252, Note_off_c, 0, 52, 66
1, 333267, Note_off_c, 0, 49, 62
1, 333272, Control_c, 0, 64, 34
1, 333311, Note_on_c, 0, 52, 75
1, 333344, Note_on_c, 0, 54, 92
1, 333358, Note_off_c, 0, 52, 64
1, 333375, Note_off_c, 0, 54, 65
1, 333405, Control_c, 0, 64, 34
1, 333417, Note_on_c, 0, 54, 77
1, 333420, Control_c, 0, 64, 35
1, 333427, Note_on_c, 0, 49, 74
1, 333434, Control_c, 0, 64, 35
1, 333450, Control_c, 0, 64, 36
1, 333476, Note_on_c, 0, 55, 98
1, 333491, Note_off_c, 0, 54, 63
1, 333495, Control_c, 0, 64, 35
1, 333508, Note_off_c, 0, 49, 64
1, 333509, Control_c, 0, 64, 32
1, 333520, Note_off_c, 0, 55, 67
1, 333524, Control_c, 0, 64, 0
1, 333556, Note_on_c, 0, 55, 83
1, 333559, Note_on_c, 0, 57, 90
1, 333581, Note_off_c, 0, 57, 70
1, 333582, Note_off_c, 0, 55, 68
1, 333623, Note_on_c, 0, 49, 95
1, 333630, Note_on_c, 0, 37, 82
1, 333659, Note_off_c, 0, 37, 63
1, 333664, Note_off_c, 0, 49, 62
1, 333689, Note_on_c, 0, 55, 88
1, 333695, Note_on_c, 0, 67, 83
1, 333701, Note_on_c, 0, 57, 61
1, 333710, Note_off_c, 0, 55, 71
1, 333716, Note_on_c, 0, 69, 42
1, 333716, Control_c, 0, 64, 31
1, 333731, Control_c, 0, 64, 37
1, 333732, Note_off_c, 0, 57, 66
1, 333733, Note_off_c, 0, 67, 67
1, 333746, Note_off_c, 0, 69, 35
1, 333746, Control_c, 0, 64, 49
1, 333761, Control_c, 0, 64, 62
1, 333776, Control_c, 0, 64, 71
1, 333791, Control_c, 0, 64, 83
1, 333806, Control_c, 0, 64, 127
1, 333809, Note_on_c, 0, 57, 79
1, 333810, Note_on_c, 0, 62, 96
1, 333811, Note_on_c, 0, 49, 85
1, 333817, Note_on_c, 0, 54, 73
1, 333824, Note_on_c, 0, 69, 89
1, 333825, Note_on_c, 0, 66, 101
1, 333828, Note_on_c, 0, 78, 100
1, 333846, Note_on_c, 0, 51, 49
1, 333871, Note_off_c, 0, 78, 63
1, 333882, Note_off_c, 0, 51, 56
1, 333886, Note_off_c, 0, 62, 60
1, 333887, Note_off_c, 0, 49, 63
1, 333901, Note_off_c, 0, 66, 54
1, 333903, Note_off_c, 0, 69, 58
1, 333933, Note_off_c, 0, 57, 60
1, 333943, Note_off_c, 0, 54, 57
1, 334014, Note_on_c, 0, 69, 76
1, 334016, Note_on_c, 0, 62, 80
1, 334035, Note_off_c, 0, 62, 71
1, 334035, Note_off_c, 0, 69, 66
1, 334071, Note_on_c, 0, 62, 88
1, 334077, Note_on_c, 0, 69, 81
1, 334080, Control_c, 0, 64, 95
1, 334095, Control_c, 0, 64, 78
1, 334110, Control_c, 0, 64, 65
1, 334121, Note_on_c, 0, 61, 90
1, 334123, Note_on_c, 0, 54, 91
1, 334125, Note_off_c, 0, 62, 64
1, 334125, Control_c, 0, 64, 47
1, 334139, Control_c, 0, 64, 0
1, 334142, Note_off_c, 0, 61, 70
1, 334144, Note_off_c, 0, 54, 67
1, 334148, Note_off_c, 0, 69, 62
1, 334184, Note_on_c, 0, 61, 88
1, 334193, Note_on_c, 0, 54, 75
1, 334236, Note_off_c, 0, 61, 64
1, 334244, Note_on_c, 0, 56, 25
1, 334245, Note_off_c, 0, 54, 57
1, 334253, Note_on_c, 0, 69, 77
1, 334255, Note_on_c, 0, 62, 79
1, 334273, Control_c, 0, 64, 32
1, 334274, Note_off_c, 0, 69, 70
1, 334276, Note_off_c, 0, 62, 70
1, 334283, Note_off_c, 0, 56, 42
1, 334288, Control_c, 0, 64, 37
1, 334303, Control_c, 0, 64, 41
1, 334312, Note_on_c, 0, 69, 84
1, 334317, Note_on_c, 0, 62, 91
1, 334318, Control_c, 0, 64, 44
1, 334332, Control_c, 0, 64, 45
1, 334347, Control_c, 0, 64, 45
1, 334354, Note_off_c, 0, 62, 61
1, 334374, Note_on_c, 0, 54, 83
1, 334376, Note_on_c, 0, 64, 92
1, 334376, Note_off_c, 0, 69, 62
1, 334399, Note_off_c, 0, 64, 65
1, 334400, Note_off_c, 0, 54, 64
1, 334422, Control_c, 0, 64, 45
1, 334433, Note_on_c, 0, 64, 90
1, 334437, Note_on_c, 0, 54, 82
1, 334451, Control_c, 0, 64, 44
1, 334454, Note_on_c, 0, 56, 48
1, 334466, Control_c, 0, 64, 44
1, 334478, Note_off_c, 0, 64, 67
1, 334481, Note_off_c, 0, 56, 56
1, 334486, Note_off_c, 0, 54, 61
1, 334503, Note_on_c, 0, 66, 97
1, 334511, Control_c, 0, 64, 45
1, 334512, Note_on_c, 0, 69, 76
1, 334525, Control_c, 0, 64, 46
1, 334528, Note_off_c, 0, 69, 70
1, 334540, Control_c, 0, 64, 49
1, 334548, Note_off_c, 0, 66, 0
1, 334555, Control_c, 0, 64, 51
1, 334565, Note_on_c, 0, 69, 94
1, 334570, Control_c, 0, 64, 52
1, 334585, Poly_aftertouch_c, 0, 66, 127
1, 334609, Poly_aftertouch_c, 0, 66, 0
1, 334628, Note_off_c, 0, 69, 60
1, 334633, Note_on_c, 0, 62, 95
1, 334634, Note_on_c, 0, 54, 95
1, 334661, Note_off_c, 0, 54, 64
1, 334664, Note_off_c, 0, 62, 66
1, 334667, Control_c, 0, 64, 51
1, 334694, Note_on_c, 0, 54, 80
1, 334694, Note_on_c, 0, 62, 94
1, 334697, Control_c, 0, 64, 51
1, 334712, Control_c, 0, 64, 50
1, 334721, Note_on_c, 0, 53, 58
1, 334727, Control_c, 0, 64, 50
1, 334734, Note_off_c, 0, 62, 67
1, 334739, Note_off_c, 0, 54, 64
1, 334744, Note_off_c, 0, 53, 60
1, 334756, Control_c, 0, 64, 50
1, 334758, Note_on_c, 0, 69, 88
1, 334759, Note_on_c, 0, 61, 90
1, 334771, Control_c, 0, 64, 52
1, 334780, Note_off_c, 0, 69, 64
1, 334782, Note_off_c, 0, 61, 68
1, 334786, Control_c, 0, 64, 53
1, 334801, Control_c, 0, 64, 55
1, 334815, Control_c, 0, 64, 58
1, 334822, Note_on_c, 0, 61, 86
1, 334828, Note_on_c, 0, 69, 82
1, 334830, Control_c, 0, 64, 60
1, 334843, Note_off_c, 0, 61, 72
1, 334845, Control_c, 0, 64, 63
1, 334857, Note_off_c, 0, 69, 65
1, 334860, Control_c, 0, 64, 64
1, 334904, Control_c, 0, 64, 63
1, 334919, Control_c, 0, 64, 59
1, 334934, Control_c, 0, 64, 43
1, 334944, Note_on_c, 0, 59, 90
1, 334944, Note_on_c, 0, 62, 99
1, 334946, Note_on_c, 0, 49, 87
1, 334947, Note_on_c, 0, 55, 75
1, 334949, Control_c, 0, 64, 0
1, 334953, Note_on_c, 0, 71, 108
1, 334953, Note_on_c, 0, 74, 96
1, 334953, Note_on_c, 0, 83, 99
1, 334956, Note_on_c, 0, 79, 86
1, 334978, Control_c, 0, 64, 30
1, 334993, Control_c, 0, 64, 48
1, 335007, Control_c, 0, 64, 64
1, 335022, Control_c, 0, 64, 75
1, 335028, Note_off_c, 0, 49, 63
1, 335036, Note_off_c, 0, 83, 62
1, 335037, Control_c, 0, 64, 85
1, 335044, Note_off_c, 0, 71, 56
1, 335046, Note_off_c, 0, 62, 60
1, 335052, Control_c, 0, 64, 87
1, 335060, Note_off_c, 0, 74, 62
1, 335061, Note_off_c, 0, 79, 60
1, 335062, Note_off_c, 0, 55, 60
1, 335087, Note_off_c, 0, 59, 62
1, 335177, Note_on_c, 0, 74, 87
1, 335178, Note_on_c, 0, 67, 89
1, 335186, Control_c, 0, 64, 87
1, 335198, Note_off_c, 0, 74, 67
1, 335200, Control_c, 0, 64, 86
1, 335215, Control_c, 0, 64, 84
1, 335218, Note_off_c, 0, 67, 60
1, 335230, Control_c, 0, 64, 81
1, 335239, Note_on_c, 0, 67, 74
1, 335245, Control_c, 0, 64, 76
1, 335246, Note_on_c, 0, 74, 95
1, 335260, Control_c, 0, 64, 70
1, 335274, Control_c, 0, 64, 63
1, 335281, Note_on_c, 0, 66, 95
1, 335289, Note_on_c, 0, 59, 80
1, 335289, Control_c, 0, 64, 55
1, 335304, Control_c, 0, 64, 45
1, 335305, Note_off_c, 0, 67, 64
1, 335308, Note_off_c, 0, 66, 62
1, 335319, Control_c, 0, 64, 38
1, 335320, Note_off_c, 0, 74, 63
1, 335332, Note_off_c, 0, 59, 0
1, 335333, Control_c, 0, 64, 35
1, 335358, Note_on_c, 0, 66, 93
1, 335376, Poly_aftertouch_c, 0, 59, 127
1, 335385, Control_c, 0, 64, 36
1, 335400, Control_c, 0, 64, 37
1, 335403, Poly_aftertouch_c, 0, 59, 0
1, 335405, Note_on_c, 0, 65, 14
1, 335415, Control_c, 0, 64, 40
1, 335421, Note_on_c, 0, 67, 89
1, 335421, Note_on_c, 0, 74, 94
1, 335421, Note_off_c, 0, 66, 59
1, 335430, Control_c, 0, 64, 44
1, 335442, Note_off_c, 0, 74, 68
1, 335445, Control_c, 0, 64, 49
1, 335455, Note_off_c, 0, 67, 62
1, 335457, Note_off_c, 0, 65, 36
1, 335460, Control_c, 0, 64, 52
1, 335475, Control_c, 0, 64, 54
1, 335479, Note_on_c, 0, 67, 78
1, 335482, Note_on_c, 0, 74, 93
1, 335525, Note_off_c, 0, 67, 66
1, 335534, Control_c, 0, 64, 53
1, 335537, Note_on_c, 0, 69, 94
1, 335538, Note_on_c, 0, 59, 91
1, 335549, Control_c, 0, 64, 49
1, 335557, Note_off_c, 0, 74, 64
1, 335564, Control_c, 0, 64, 39
1, 335569, Note_off_c, 0, 59, 64
1, 335574, Note_off_c, 0, 69, 64
1, 335579, Control_c, 0, 64, 0
1, 335595, Note_on_c, 0, 69, 85
1, 335598, Note_on_c, 0, 59, 84
1, 335645, Note_off_c, 0, 69, 63
1, 335649, Note_off_c, 0, 59, 65
1, 335668, Note_on_c, 0, 71, 87
1, 335670, Note_on_c, 0, 74, 80
1, 335699, Note_off_c, 0, 74, 0
1, 335737, Poly_aftertouch_c, 0, 74, 127
1, 335769, Note_off_c, 0, 71, 60
1, 335777, Note_on_c, 0, 59, 77
1, 335781, Poly_aftertouch_c, 0, 74, 0
1, 335788, Note_on_c, 0, 67, 75
1, 335802, Note_off_c, 0, 59, 66
1, 335861, Poly_aftertouch_c, 0, 59, 127
1, 335879, Poly_aftertouch_c, 0, 59, 0
1, 335880, Note_off_c, 0, 67, 67
1, 335903, Control_c, 0, 64, 38
1, 335917, Note_on_c, 0, 71, 69
1, 335918, Note_on_c, 0, 66, 93
1, 335918, Control_c, 0, 64, 51
1, 335930, Note_on_c, 0, 74, 77
1, 335933, Control_c, 0, 64, 61
1, 335948, Control_c, 0, 64, 65
1, 335962, Control_c, 0, 64, 67
1, 335962, Control_c, 0, 67, 84
1, 335977, Control_c, 0, 64, 71
1, 335977, Control_c, 0, 67, 127
1, 335992, Control_c, 0, 64, 77
1, 336007, Control_c, 0, 64, 88
1, 336022, Control_c, 0, 64, 98
1, 336036, Control_c, 0, 64, 102
1, 336052, Note_off_c, 0, 74, 62
1, 336071, Note_off_c, 0, 71, 60
1, 336085, Note_off_c, 0, 66, 60
1, 336297, Control_c, 0, 64, 96
1, 336312, Control_c, 0, 64, 77
1, 336313, Note_on_c, 0, 65, 65
1, 336321, Note_on_c, 0, 53, 67
1, 336327, Control_c, 0, 64, 60
1, 336341, Control_c, 0, 64, 37
1, 336356, Control_c, 0, 64, 0
1, 336385, Control_c, 0, 64, 38
1, 336395, Note_off_c, 0, 65, 59
1, 336400, Control_c, 0, 64, 52
1, 336402, Note_on_c, 0, 61, 56
1, 336415, Control_c, 0, 64, 62
1, 336423, Note_on_c, 0, 59, 49
1, 336430, Control_c, 0, 64, 68
1, 336438, Note_off_c, 0, 53, 62
1, 336446, Control_c, 0, 64, 72
1, 336459, Note_off_c, 0, 61, 59
1, 336460, Control_c, 0, 64, 76
1, 336464, Note_off_c, 0, 59, 63
1, 336473, Note_on_c, 0, 37, 64
1, 336473, Note_on_c, 0, 49, 64
1, 336475, Control_c, 0, 64, 82
1, 336483, Note_on_c, 0, 44, 53
1, 336490, Control_c, 0, 64, 91
1, 336505, Control_c, 0, 64, 101
1, 336508, Note_off_c, 0, 37, 63
1, 336523, Note_off_c, 0, 44, 63
1, 336530, Note_on_c, 0, 54, 75
1, 336530, Note_off_c, 0, 49, 60
1, 336549, Control_c, 0, 64, 90
1, 336557, Note_on_c, 0, 66, 45
1, 336560, Note_off_c, 0, 54, 64
1, 336564, Control_c, 0, 64, 76
1, 336578, Control_c, 0, 64, 66
1, 336584, Note_off_c, 0, 66, 52
1, 336593, Control_c, 0, 64, 64
1, 336599, Note_on_c, 0, 55, 74
1, 336608, Note_on_c, 0, 67, 75
1, 336608, Control_c, 0, 64, 65
1, 336608, Control_c, 0, 67, 81
1, 336623, Control_c, 0, 64, 67
1, 336623, Control_c, 0, 67, 0
1, 336638, Control_c, 0, 64, 71
1, 336652, Control_c, 0, 64, 76
1, 336667, Control_c, 0, 64, 79
1, 336675, Note_on_c, 0, 65, 59
1, 336682, Control_c, 0, 64, 80
1, 336697, Note_on_c, 0, 61, 65
1, 336697, Control_c, 0, 64, 80
1, 336709, Note_off_c, 0, 67, 58
1, 336712, Control_c, 0, 64, 81
1, 336727, Control_c, 0, 64, 82
1, 336732, Note_off_c, 0, 55, 60
1, 336742, Control_c, 0, 64, 87
1, 336748, Note_off_c, 0, 65, 61
1, 336757, Control_c, 0, 64, 98
1, 336757, Note_off_c, 0, 61, 63
1, 336762, Note_on_c, 0, 77, 83
1, 336769, Note_on_c, 0, 71, 71
1, 336772, Control_c, 0, 64, 127
1, 336774, Note_on_c, 0, 73, 63
1, 336780, Note_off_c, 0, 77, 72
1, 336784, Note_off_c, 0, 71, 68
1, 336797, Note_off_c, 0, 73, 65
1, 336827, Note_on_c, 0, 56, 79
1, 336860, Note_off_c, 0, 56, 68
1, 336882, Control_c, 0, 64, 77
1, 336897, Note_on_c, 0, 57, 75
1, 336897, Control_c, 0, 64, 61
1, 336905, Note_on_c, 0, 69, 80
1, 336909, Poly_aftertouch_c, 0, 68, 127
1, 336912, Control_c, 0, 64, 51
1, 336927, Control_c, 0, 64, 52
1, 336938, Poly_aftertouch_c, 0, 68, 0
1, 336941, Control_c, 0, 64, 57
1, 336956, Control_c, 0, 64, 64
1, 336971, Control_c, 0, 64, 72
1, 336974, Note_on_c, 0, 66, 82
1, 336986, Control_c, 0, 64, 82
1, 336989, Note_on_c, 0, 61, 74
1, 337001, Control_c, 0, 64, 86
1, 337012, Note_off_c, 0, 57, 64
1, 337016, Control_c, 0, 64, 87
1, 337017, Note_off_c, 0, 69, 59
1, 337028, Note_off_c, 0, 61, 59
1, 337029, Note_off_c, 0, 66, 64
1, 337031, Control_c, 0, 64, 89
1, 337046, Control_c, 0, 64, 92
1, 337059, Note_on_c, 0, 49, 73
1, 337061, Note_on_c, 0, 54, 72
1, 337061, Control_c, 0, 64, 96
1, 337076, Control_c, 0, 64, 100
1, 337096, Note_off_c, 0, 49, 61
1, 337099, Note_on_c, 0, 59, 88
1, 337105, Note_on_c, 0, 71, 77
1, 337105, Control_c, 0, 64, 94
1, 337119, Note_off_c, 0, 54, 59
1, 337120, Control_c, 0, 64, 78
1, 337127, Note_off_c, 0, 71, 69
1, 337131, Note_off_c, 0, 59, 61
1, 337135, Control_c, 0, 64, 62
1, 337150, Control_c, 0, 64, 43
1, 337165, Control_c, 0, 64, 39
1, 337168, Note_on_c, 0, 60, 90
1, 337168, Note_on_c, 0, 72, 88
1, 337180, Control_c, 0, 64, 46
1, 337195, Control_c, 0, 64, 56
1, 337209, Control_c, 0, 64, 64
1, 337224, Control_c, 0, 64, 70
1, 337239, Control_c, 0, 64, 75
1, 337248, Note_on_c, 0, 69, 75
1, 337254, Control_c, 0, 64, 78
1, 337258, Note_on_c, 0, 66, 78
1, 337269, Control_c, 0, 64, 80
1, 337276, Note_off_c, 0, 72, 59
1, 337283, Control_c, 0, 64, 84
1, 337298, Control_c, 0, 64, 89
1, 337300, Note_off_c, 0, 60, 61
1, 337313, Control_c, 0, 64, 105
1, 337321, Note_off_c, 0, 69, 62
1, 337326, Note_on_c, 0, 81, 82
1, 337327, Control_c, 0, 64, 127
1, 337330, Note_on_c, 0, 78, 86
1, 337332, Note_off_c, 0, 66, 63
1, 337344, Note_off_c, 0, 81, 74
1, 337350, Note_off_c, 0, 78, 69
1, 337374, Note_on_c, 0, 61, 89
1, 337382, Note_on_c, 0, 73, 80
1, 337406, Note_off_c, 0, 73, 62
1, 337415, Note_off_c, 0, 61, 64
1, 337442, Note_on_c, 0, 62, 97
1, 337445, Note_on_c, 0, 74, 96
1, 337446, Control_c, 0, 64, 89
1, 337448, Note_on_c, 0, 73, 54
1, 337461, Control_c, 0, 64, 64
1, 337474, Note_off_c, 0, 73, 63
1, 337475, Control_c, 0, 64, 47
1, 337490, Control_c, 0, 64, 48
1, 337505, Control_c, 0, 64, 56
1, 337520, Control_c, 0, 64, 64
1, 337529, Note_on_c, 0, 69, 72
1, 337532, Note_on_c, 0, 66, 81
1, 337535, Control_c, 0, 64, 73
1, 337550, Control_c, 0, 64, 83
1, 337554, Note_off_c, 0, 74, 57
1, 337561, Note_off_c, 0, 62, 63
1, 337564, Control_c, 0, 64, 91
1, 337579, Control_c, 0, 64, 94
1, 337580, Note_off_c, 0, 66, 66
1, 337582, Note_off_c, 0, 69, 63
1, 337594, Control_c, 0, 64, 99
1, 337616, Control_c, 0, 64, 105
1, 337619, Note_on_c, 0, 62, 77
1, 337622, Note_on_c, 0, 49, 69
1, 337629, Note_on_c, 0, 54, 67
1, 337631, Control_c, 0, 64, 117
1, 337636, Note_on_c, 0, 57, 55
1, 337646, Control_c, 0, 64, 127
1, 337648, Note_on_c, 0, 64, 90
1, 337649, Note_on_c, 0, 60, 40
1, 337654, Note_off_c, 0, 49, 68
1, 337655, Note_on_c, 0, 76, 83
1, 337660, Note_off_c, 0, 54, 65
1, 337666, Note_off_c, 0, 57, 64
1, 337671, Note_off_c, 0, 62, 63
1, 337674, Note_on_c, 0, 65, 54
1, 337674, Note_off_c, 0, 65, 127
1, 337676, Note_off_c, 0, 76, 70
1, 337676, Control_c, 0, 64, 114
1, 337679, Note_off_c, 0, 60, 36
1, 337684, Note_off_c, 0, 64, 66
1, 337690, Control_c, 0, 64, 89
1, 337699, Poly_aftertouch_c, 0, 51, 127
1, 337705, Control_c, 0, 64, 74
1, 337716, Note_on_c, 0, 65, 84
1, 337719, Note_on_c, 0, 77, 97
1, 337720, Control_c, 0, 64, 64
1, 337728, Poly_aftertouch_c, 0, 51, 0
1, 337734, Control_c, 0, 64, 61
1, 337749, Control_c, 0, 64, 62
1, 337764, Control_c, 0, 64, 65
1, 337779, Control_c, 0, 64, 69
1, 337793, Note_on_c, 0, 74, 91
1, 337794, Control_c, 0, 64, 75
1, 337799, Note_on_c, 0, 69, 89
1, 337809, Control_c, 0, 64, 78
1, 337824, Control_c, 0, 64, 79
1, 337833, Note_on_c, 0, 72, 39
1, 337836, Note_off_c, 0, 65, 61
1, 337839, Control_c, 0, 64, 79
1, 337853, Note_off_c, 0, 69, 64
1, 337854, Control_c, 0, 64, 81
1, 337856, Note_off_c, 0, 77, 57
1, 337860, Note_off_c, 0, 74, 65
1, 337863, Note_off_c, 0, 72, 52
1, 337869, Control_c, 0, 64, 88
1, 337884, Control_c, 0, 64, 109
1, 337888, Note_on_c, 0, 86, 92
1, 337892, Note_on_c, 0, 84, 79
1, 337895, Note_on_c, 0, 81, 77
1, 337895, Note_off_c, 0, 81, 127
1, 337898, Control_c, 0, 64, 127
1, 337904, Note_off_c, 0, 86, 74
1, 337910, Note_off_c, 0, 84, 74
1, 337938, Note_on_c, 0, 66, 96
1, 337941, Note_on_c, 0, 78, 95
1, 337966, Note_off_c, 0, 78, 61
1, 337974, Note_off_c, 0, 66, 67
1, 338015, Note_on_c, 0, 80, 101
1, 338017, Note_on_c, 0, 68, 108
1, 338047, Control_c, 0, 64, 76
1, 338050, Note_on_c, 0, 70, 53
1, 338062, Control_c, 0, 64, 57
1, 338077, Note_on_c, 0, 78, 4
1, 338077, Control_c, 0, 64, 47
1, 338092, Control_c, 0, 64, 51
1, 338103, Note_on_c, 0, 75, 80
1, 338106, Control_c, 0, 64, 61
1, 338121, Control_c, 0, 64, 70
1, 338136, Control_c, 0, 64, 83
1, 338140, Note_off_c, 0, 68, 63
1, 338150, Control_c, 0, 64, 98
1, 338151, Note_off_c, 0, 80, 56
1, 338159, Note_off_c, 0, 70, 48
1, 338165, Control_c, 0, 64, 103
1, 338179, Note_off_c, 0, 75, 63
1, 338180, Control_c, 0, 64, 105
1, 338184, Note_off_c, 0, 78, 56
1, 338190, Note_on_c, 0, 63, 98
1, 338202, Note_on_c, 0, 49, 71
1, 338202, Note_on_c, 0, 54, 68
1, 338202, Note_on_c, 0, 56, 70
1, 338210, Control_c, 0, 64, 108
1, 338224, Control_c, 0, 64, 111
1, 338229, Note_off_c, 0, 49, 65
1, 338233, Note_off_c, 0, 54, 65
1, 338237, Note_off_c, 0, 56, 61
1, 338239, Control_c, 0, 64, 114
1, 338253, Note_on_c, 0, 70, 96
1, 338253, Note_off_c, 0, 63, 59
1, 338254, Control_c, 0, 64, 119
1, 338262, Note_on_c, 0, 82, 84
1, 338269, Control_c, 0, 64, 127
1, 338288, Note_off_c, 0, 82, 63
1, 338294, Note_on_c, 0, 80, 35
1, 338294, Note_off_c, 0, 70, 67
1, 338324, Note_off_c, 0, 80, 57
1, 338326, Note_on_c, 0, 71, 103
1, 338330, Note_on_c, 0, 83, 101
1, 338334, Note_on_c, 0, 82, 67
1, 338370, Note_on_c, 0, 72, 50
1, 338423, Note_off_c, 0, 82, 40
1, 338423, Note_on_c, 0, 78, 80
1, 338427, Note_on_c, 0, 75, 82
1, 338479, Note_off_c, 0, 72, 22
1, 338485, Note_off_c, 0, 83, 55
1, 338500, Note_off_c, 0, 71, 50
1, 338527, Note_on_c, 0, 92, 98
1, 338530, Note_on_c, 0, 87, 86
1, 338536, Note_off_c, 0, 78, 55
1, 338543, Note_off_c, 0, 87, 70
1, 338547, Note_on_c, 0, 91, 56
1, 338551, Note_off_c, 0, 75, 58
1, 338557, Note_off_c, 0, 92, 64
1, 338569, Note_off_c, 0, 91, 62
1, 338634, Note_on_c, 0, 84, 96
1, 338638, Note_on_c, 0, 72, 93
1, 338717, Note_off_c, 0, 72, 58
1, 338719, Note_off_c, 0, 84, 59
1, 338810, Control_c, 0, 64, 69
1, 338825, Control_c, 0, 64, 0
1, 338844, Note_on_c, 0, 49, 107
1, 338846, Note_on_c, 0, 73, 99
1, 338846, Note_on_c, 0, 85, 102
1, 338848, Note_on_c, 0, 77, 89
1, 338850, Note_on_c, 0, 37, 88
1, 338856, Note_on_c, 0, 80, 86
1, 338870, Control_c, 0, 64, 36
1, 338880, Note_off_c, 0, 37, 69
1, 338884, Note_on_c, 0, 36, 45
1, 338884, Note_off_c, 0, 36, 127
1, 338885, Control_c, 0, 64, 59
1, 338892, Note_off_c, 0, 49, 64
1, 338900, Control_c, 0, 64, 76
1, 338912, Note_off_c, 0, 85, 64
1, 338915, Control_c, 0, 64, 127
1, 338927, Poly_aftertouch_c, 0, 36, 0
1, 338930, Note_off_c, 0, 73, 57
1, 338936, Note_off_c, 0, 80, 63
1, 338939, Note_off_c, 0, 77, 59
1, 339039, Note_on_c, 0, 61, 96
1, 339043, Note_on_c, 0, 56, 92
1, 339062, Control_c, 0, 64, 116
1, 339065, Note_off_c, 0, 61, 62
1, 339066, Note_off_c, 0, 56, 67
1, 339077, Control_c, 0, 64, 78
1, 339099, Control_c, 0, 64, 58
1, 339114, Control_c, 0, 64, 0
1, 339122, Note_on_c, 0, 61, 88
1, 339126, Note_on_c, 0, 73, 89
1, 339158, Note_off_c, 0, 61, 65
1, 339165, Note_off_c, 0, 73, 61
1, 339206, Note_on_c, 0, 56, 92
1, 339206, Note_on_c, 0, 59, 96
1, 339226, Note_off_c, 0, 59, 71
1, 339240, Note_off_c, 0, 56, 63
1, 339282, Note_on_c, 0, 59, 84
1, 339289, Note_on_c, 0, 68, 76
1, 339294, Note_on_c, 0, 72, 66
1, 339296, Note_on_c, 0, 71, 61
1, 339302, Note_on_c, 0, 60, 56
1, 339308, Note_off_c, 0, 59, 65
1, 339317, Note_off_c, 0, 68, 62
1, 339317, Note_off_c, 0, 72, 67
1, 339324, Note_off_c, 0, 71, 64
1, 339326, Note_off_c, 0, 60, 38
1, 339350, Note_on_c, 0, 61, 96
1, 339353, Note_on_c, 0, 56, 94
1, 339376, Note_off_c, 0, 56, 70
1, 339389, Note_off_c, 0, 61, 63
1, 339416, Note_on_c, 0, 61, 83
1, 339419, Note_on_c, 0, 73, 89
1, 339422, Note_on_c, 0, 68, 85
1, 339446, Note_off_c, 0, 61, 66
1, 339447, Note_off_c, 0, 73, 58
1, 339451, Note_off_c, 0, 68, 65
1, 339487, Note_on_c, 0, 54, 98
1, 339489, Note_on_c, 0, 62, 100
1, 339518, Note_off_c, 0, 62, 66
1, 339523, Note_off_c, 0, 54, 62
1, 339550, Note_on_c, 0, 62, 85
1, 339550, Note_on_c, 0, 74, 89
1, 339553, Note_on_c, 0, 66, 90
1, 339586, Note_off_c, 0, 62, 65
1, 339589, Note_off_c, 0, 66, 65
1, 339594, Note_off_c, 0, 74, 65
1, 339621, Note_on_c, 0, 64, 94
1, 339624, Note_on_c, 0, 54, 89
1, 339648, Note_off_c, 0, 64, 68
1, 339654, Note_off_c, 0, 54, 62
1, 339678, Note_on_c, 0, 76, 90
1, 339680, Note_on_c, 0, 64, 82
1, 339684, Note_on_c, 0, 66, 89
1, 339699, Note_off_c, 0, 76, 65
1, 339703, Note_off_c, 0, 64, 71
1, 339714, Note_off_c, 0, 66, 66
1, 339741, Note_on_c, 0, 61, 101
1, 339746, Note_on_c, 0, 54, 85
1, 339775, Note_off_c, 0, 61, 68
1, 339778, Note_off_c, 0, 54, 63
1, 339796, Control_c, 0, 64, 30
1, 339804, Note_on_c, 0, 73, 94
1, 339811, Control_c, 0, 64, 35
1, 339819, Note_on_c, 0, 62, 73
1, 339826, Control_c, 0, 64, 39
1, 339835, Note_on_c, 0, 63, 37
1, 339848, Control_c, 0, 64, 43
1, 339851, Note_off_c, 0, 62, 67
1, 339862, Note_off_c, 0, 73, 62
1, 339863, Control_c, 0, 64, 45
1, 339875, Note_off_c, 0, 63, 35
1, 339878, Control_c, 0, 64, 47
1, 339880, Note_on_c, 0, 54, 93
1, 339881, Note_on_c, 0, 62, 96
1, 339893, Control_c, 0, 64, 49
1, 339900, Note_off_c, 0, 54, 70
1, 339900, Note_off_c, 0, 62, 70
1, 339907, Control_c, 0, 64, 50
1, 339922, Control_c, 0, 64, 51
1, 339934, Note_on_c, 0, 74, 97
1, 339937, Note_on_c, 0, 62, 86
1, 339976, Note_off_c, 0, 74, 67
1, 339978, Note_off_c, 0, 62, 65
1, 340011, Control_c, 0, 64, 50
1, 340018, Note_on_c, 0, 59, 103
1, 340024, Note_on_c, 0, 52, 91
1, 340026, Control_c, 0, 64, 49
1, 340041, Control_c, 0, 64, 42
1, 340049, Note_off_c, 0, 59, 68
1, 340052, Note_off_c, 0, 52, 65
1, 340056, Control_c, 0, 64, 0
1, 340072, Note_on_c, 0, 59, 74
1, 340074, Note_on_c, 0, 71, 80
1, 340078, Note_on_c, 0, 65, 78
1, 340101, Note_off_c, 0, 59, 62
1, 340103, Note_off_c, 0, 65, 66
1, 340109, Note_on_c, 0, 60, 25
1, 340109, Note_off_c, 0, 60, 127
1, 340110, Note_off_c, 0, 71, 58
1, 340149, Note_on_c, 0, 69, 84
1, 340152, Note_on_c, 0, 57, 89
1, 340158, Note_on_c, 0, 64, 78
1, 340193, Note_off_c, 0, 57, 60
1, 340221, Note_off_c, 0, 64, 65
1, 340222, Note_off_c, 0, 69, 63
1, 340230, Note_on_c, 0, 57, 87
1, 340285, Note_off_c, 0, 57, 65
1, 340287, Note_on_c, 0, 52, 92
1, 340299, Note_on_c, 0, 62, 96
1, 340334, Note_off_c, 0, 52, 66
1, 340355, Note_on_c, 0, 74, 83
1, 340370, Note_off_c, 0, 62, 69
1, 340374, Note_off_c, 0, 74, 73
1, 340382, Control_c, 0, 64, 29
1, 340397, Control_c, 0, 64, 33
1, 340412, Control_c, 0, 64, 39
1, 340426, Control_c, 0, 64, 45
1, 340430, Note_on_c, 0, 73, 85
1, 340432, Note_on_c, 0, 61, 87
1, 340437, Note_on_c, 0, 64, 81
1, 340441, Control_c, 0, 64, 50
1, 340456, Control_c, 0, 64, 51
1, 340459, Note_off_c, 0, 61, 64
1, 340466, Note_off_c, 0, 73, 58
1, 340476, Note_off_c, 0, 64, 63
1, 340492, Note_on_c, 0, 61, 83
1, 340516, Control_c, 0, 64, 51
1, 340521, Note_on_c, 0, 51, 47
1, 340525, Note_off_c, 0, 61, 68
1, 340530, Control_c, 0, 64, 49
1, 340545, Control_c, 0, 64, 46
1, 340553, Note_on_c, 0, 52, 63
1, 340560, Control_c, 0, 64, 41
1, 340560, Note_off_c, 0, 51, 53
1, 340561, Note_on_c, 0, 59, 101
1, 340575, Control_c, 0, 64, 34
1, 340597, Control_c, 0, 64, 0
1, 340602, Note_off_c, 0, 59, 65
1, 340616, Note_off_c, 0, 52, 63
1, 340645, Note_on_c, 0, 64, 74
1, 340652, Note_on_c, 0, 59, 51
1, 340655, Note_on_c, 0, 72, 60
1, 340656, Note_on_c, 0, 60, 50
1, 340667, Note_off_c, 0, 64, 68
1, 340672, Note_off_c, 0, 59, 64
1, 340675, Note_off_c, 0, 72, 61
1, 340681, Note_off_c, 0, 60, 59
1, 340708, Note_on_c, 0, 64, 91
1, 340714, Note_on_c, 0, 61, 86
1, 340714, Note_on_c, 0, 73, 90
1, 340730, Control_c, 0, 64, 30
1, 340744, Note_off_c, 0, 61, 64
1, 340745, Control_c, 0, 64, 38
1, 340760, Control_c, 0, 64, 46
1, 340767, Note_off_c, 0, 64, 65
1, 340769, Note_on_c, 0, 61, 87
1, 340773, Note_off_c, 0, 73, 64
1, 340775, Control_c, 0, 64, 50
1, 340776, Note_on_c, 0, 52, 84
1, 340790, Control_c, 0, 64, 51
1, 340824, Note_on_c, 0, 62, 95
1, 340834, Control_c, 0, 64, 50
1, 340844, Note_off_c, 0, 61, 65
1, 340849, Control_c, 0, 64, 48
1, 340861, Note_off_c, 0, 62, 65
1, 340864, Control_c, 0, 64, 42
1, 340874, Note_off_c, 0, 52, 64
1, 340879, Control_c, 0, 64, 28
1, 340893, Control_c, 0, 64, 0
1, 340897, Poly_aftertouch_c, 0, 62, 0
1, 340900, Note_on_c, 0, 74, 100
1, 340903, Note_on_c, 0, 62, 83
1, 340931, Note_off_c, 0, 62, 67
1, 340940, Note_off_c, 0, 74, 67
1, 340970, Note_on_c, 0, 50, 99
1, 340976, Note_on_c, 0, 38, 85
1, 340996, Note_on_c, 0, 45, 56
1, 340997, Control_c, 0, 64, 33
1, 340999, Note_off_c, 0, 50, 66
1, 341003, Note_off_c, 0, 38, 65
1, 341012, Control_c, 0, 64, 55
1, 341025, Note_off_c, 0, 45, 55
1, 341028, Control_c, 0, 64, 67
1, 341034, Note_on_c, 0, 68, 91
1, 341034, Note_on_c, 0, 80, 93
1, 341042, Control_c, 0, 64, 78
1, 341052, Note_on_c, 0, 78, 58
1, 341053, Note_off_c, 0, 68, 68
1, 341057, Control_c, 0, 64, 118
1, 341058, Note_off_c, 0, 80, 65
1, 341072, Control_c, 0, 64, 127
1, 341073, Note_off_c, 0, 78, 60
1, 341094, Note_on_c, 0, 49, 110
1, 341105, Note_on_c, 0, 73, 107
1, 341105, Note_on_c, 0, 85, 116
1, 341106, Note_on_c, 0, 37, 85
1, 341123, Note_off_c, 0, 49, 68
1, 341127, Note_off_c, 0, 37, 70
1, 341136, Note_off_c, 0, 85, 68
1, 341139, Note_off_c, 0, 73, 65
1, 341145, Note_on_c, 0, 75, 42
1, 341145, Note_off_c, 0, 75, 127
1, 341189, Poly_aftertouch_c, 0, 39, 127
1, 341189, Poly_aftertouch_c, 0, 50, 127
1, 341216, Poly_aftertouch_c, 0, 50, 0
1, 341228, Poly_aftertouch_c, 0, 39, 0
1, 341236, Note_on_c, 0, 61, 98
1, 341240, Note_on_c, 0, 56, 77
1, 341258, Note_off_c, 0, 56, 65
1, 341267, Note_on_c, 0, 55, 55
1, 341268, Note_off_c, 0, 61, 63
1, 341279, Control_c, 0, 64, 82
1, 341294, Note_off_c, 0, 55, 56
1, 341294, Control_c, 0, 64, 59
1, 341297, Note_on_c, 0, 61, 83
1, 341300, Note_on_c, 0, 73, 89
1, 341309, Control_c, 0, 64, 0
1, 341327, Note_on_c, 0, 69, 43
1, 341336, Note_off_c, 0, 61, 61
1, 341354, Note_off_c, 0, 73, 61
1, 341363, Note_off_c, 0, 69, 56
1, 341377, Note_on_c, 0, 56, 84
1, 341378, Note_on_c, 0, 59, 96
1, 341406, Note_off_c, 0, 59, 68
1, 341412, Note_off_c, 0, 56, 63
1, 341446, Note_on_c, 0, 71, 86
1, 341449, Note_on_c, 0, 59, 81
1, 341457, Note_on_c, 0, 68, 73
1, 341471, Note_off_c, 0, 59, 71
1, 341482, Note_off_c, 0, 71, 61
1, 341483, Note_off_c, 0, 68, 65
1, 341508, Note_on_c, 0, 61, 91
1, 341511, Note_on_c, 0, 56, 88
1, 341538, Note_off_c, 0, 56, 67
1, 341539, Note_off_c, 0, 61, 67
1, 341573, Note_on_c, 0, 61, 90
1, 341576, Note_on_c, 0, 73, 90
1, 341577, Note_on_c, 0, 68, 83
1, 341583, Control_c, 0, 64, 31
1, 341598, Control_c, 0, 64, 36
1, 341610, Note_off_c, 0, 61, 65
1, 341613, Control_c, 0, 64, 37
1, 341614, Note_off_c, 0, 68, 58
1, 341624, Note_off_c, 0, 73, 60
1, 341628, Control_c, 0, 64, 36
1, 341641, Note_on_c, 0, 54, 98
1, 341642, Note_on_c, 0, 62, 90
1, 341643, Control_c, 0, 64, 36
1, 341658, Control_c, 0, 64, 34
1, 341671, Note_off_c, 0, 62, 67
1, 341673, Control_c, 0, 64, 30
1, 341678, Note_off_c, 0, 54, 61
1, 341688, Control_c, 0, 64, 0
1, 341704, Poly_aftertouch_c, 0, 62, 0
1, 341705, Note_on_c, 0, 66, 92
1, 341706, Note_on_c, 0, 74, 87
1, 341708, Note_on_c, 0, 62, 81
1, 341743, Note_off_c, 0, 62, 66
1, 341747, Note_off_c, 0, 66, 67
1, 341753, Note_off_c, 0, 74, 65
1, 341773, Note_on_c, 0, 64, 91
1, 341776, Note_on_c, 0, 54, 79
1, 341798, Note_off_c, 0, 64, 66
1, 341804, Note_off_c, 0, 54, 64
1, 341833, Note_on_c, 0, 76, 95
1, 341846, Note_on_c, 0, 64, 74
1, 341854, Note_on_c, 0, 67, 66
1, 341866, Control_c, 0, 64, 30
1, 341869, Note_off_c, 0, 76, 62
1, 341871, Note_off_c, 0, 64, 71
1, 341880, Note_off_c, 0, 67, 69
1, 341881, Control_c, 0, 64, 35
1, 341888, Note_on_c, 0, 61, 107
1, 341896, Control_c, 0, 64, 38
1, 341899, Note_on_c, 0, 54, 81
1, 341911, Control_c, 0, 64, 39
1, 341923, Note_off_c, 0, 61, 69
1, 341923, Note_off_c, 0, 54, 67
1, 341926, Control_c, 0, 64, 42
1, 341940, Control_c, 0, 64, 47
1, 341955, Control_c, 0, 64, 53
1, 341966, Note_on_c, 0, 73, 90
1, 341967, Note_on_c, 0, 61, 80
1, 341970, Control_c, 0, 64, 56
1, 341985, Note_off_c, 0, 61, 74
1, 341985, Control_c, 0, 64, 57
1, 342000, Control_c, 0, 64, 58
1, 342007, Note_on_c, 0, 62, 83
1, 342012, Note_off_c, 0, 73, 62
1, 342015, Control_c, 0, 64, 59
1, 342020, Note_on_c, 0, 54, 79
1, 342030, Control_c, 0, 64, 60
1, 342045, Control_c, 0, 64, 61
1, 342048, Note_off_c, 0, 54, 63
1, 342051, Note_off_c, 0, 62, 65
1, 342080, Note_on_c, 0, 74, 101
1, 342086, Note_on_c, 0, 62, 73
1, 342105, Note_on_c, 0, 64, 63
1, 342124, Note_off_c, 0, 64, 65
1, 342128, Note_off_c, 0, 74, 67
1, 342133, Note_off_c, 0, 62, 63
1, 342140, Control_c, 0, 64, 60
1, 342155, Control_c, 0, 64, 58
1, 342164, Note_on_c, 0, 59, 109
1, 342168, Note_on_c, 0, 52, 92
1, 342170, Control_c, 0, 64, 54
1, 342185, Control_c, 0, 64, 42
1, 342195, Note_off_c, 0, 59, 69
1, 342200, Control_c, 0, 64, 0
1, 342208, Note_off_c, 0, 52, 64
1, 342226, Poly_aftertouch_c, 0, 59, 0
1, 342227, Note_on_c, 0, 64, 71
1, 342231, Note_on_c, 0, 59, 78
1, 342244, Note_on_c, 0, 71, 69
1, 342248, Note_on_c, 0, 69, 66
1, 342261, Note_off_c, 0, 59, 64
1, 342268, Note_off_c, 0, 64, 63
1, 342270, Note_off_c, 0, 71, 68
1, 342273, Note_off_c, 0, 69, 68
1, 342307, Note_on_c, 0, 69, 81
1, 342310, Note_on_c, 0, 57, 88
1, 342318, Note_on_c, 0, 64, 68
1, 342346, Note_off_c, 0, 57, 0
1, 342348, Control_c, 0, 64, 28
1, 342352, Note_on_c, 0, 66, 36
1, 342363, Control_c, 0, 64, 38
1, 342366, Note_off_c, 0, 69, 63
1, 342375, Note_off_c, 0, 64, 65
1, 342378, Control_c, 0, 64, 45
1, 342383, Note_off_c, 0, 66, 52
1, 342384, Poly_aftertouch_c, 0, 57, 127
1, 342392, Note_on_c, 0, 50, 46
1, 342393, Control_c, 0, 64, 52
1, 342395, Note_on_c, 0, 52, 60
1, 342407, Control_c, 0, 64, 54
1, 342416, Poly_aftertouch_c, 0, 57, 0
1, 342422, Note_off_c, 0, 50, 64
1, 342422, Control_c, 0, 64, 55
1, 342433, Note_on_c, 0, 60, 93
1, 342437, Control_c, 0, 64, 56
1, 342467, Control_c, 0, 64, 56
1, 342468, Note_off_c, 0, 60, 68
1, 342472, Note_off_c, 0, 52, 64
1, 342481, Control_c, 0, 64, 57
1, 342493, Note_on_c, 0, 60, 75
1, 342500, Note_on_c, 0, 72, 70
1, 342506, Note_on_c, 0, 71, 75
1, 342511, Control_c, 0, 64, 57
1, 342516, Note_off_c, 0, 60, 65
1, 342523, Note_off_c, 0, 72, 69
1, 342528, Note_off_c, 0, 71, 68
1, 342555, Control_c, 0, 64, 58
1, 342570, Note_on_c, 0, 71, 82
1, 342572, Note_on_c, 0, 64, 85
1, 342580, Note_on_c, 0, 59, 72
1, 342581, Note_on_c, 0, 57, 71
1, 342585, Control_c, 0, 64, 58
1, 342588, Note_on_c, 0, 69, 64
1, 342605, Note_off_c, 0, 59, 67
1, 342609, Note_off_c, 0, 57, 67
1, 342614, Note_off_c, 0, 69, 54
1, 342618, Note_off_c, 0, 71, 62
1, 342626, Note_off_c, 0, 64, 63
1, 342656, Poly_aftertouch_c, 0, 59, 0
1, 342683, Note_on_c, 0, 52, 78
1, 342694, Note_on_c, 0, 57, 92
1, 342734, Control_c, 0, 64, 58
1, 342738, Note_off_c, 0, 57, 67
1, 342744, Note_off_c, 0, 52, 64
1, 342755, Note_on_c, 0, 64, 88
1, 342756, Note_on_c, 0, 59, 81
1, 342770, Note_on_c, 0, 71, 65
1, 342776, Note_off_c, 0, 64, 73
1, 342778, Note_off_c, 0, 59, 71
1, 342787, Note_on_c, 0, 69, 49
1, 342790, Note_off_c, 0, 71, 64
1, 342793, Control_c, 0, 64, 58
1, 342808, Control_c, 0, 64, 60
1, 342814, Note_off_c, 0, 69, 59
1, 342823, Control_c, 0, 64, 61
1, 342830, Note_on_c, 0, 64, 100
1, 342834, Note_on_c, 0, 59, 78
1, 342836, Note_on_c, 0, 71, 86
1, 342845, Control_c, 0, 64, 63
1, 342860, Control_c, 0, 64, 66
1, 342864, Note_off_c, 0, 59, 69
1, 342875, Control_c, 0, 64, 68
1, 342883, Note_on_c, 0, 59, 79
1, 342890, Control_c, 0, 64, 70
1, 342896, Note_off_c, 0, 64, 65
1, 342904, Note_on_c, 0, 52, 71
1, 342904, Control_c, 0, 64, 72
1, 342912, Note_off_c, 0, 71, 60
1, 342936, Note_on_c, 0, 60, 107
1, 342963, Control_c, 0, 64, 70
1, 342964, Note_off_c, 0, 59, 55
1, 342975, Note_off_c, 0, 60, 67
1, 342978, Control_c, 0, 64, 66
1, 342991, Note_off_c, 0, 52, 64
1, 342993, Control_c, 0, 64, 58
1, 343008, Control_c, 0, 64, 43
1, 343016, Note_on_c, 0, 64, 86
1, 343016, Note_on_c, 0, 72, 87
1, 343022, Control_c, 0, 64, 0
1, 343025, Note_on_c, 0, 60, 57
1, 343038, Note_off_c, 0, 64, 70
1, 343052, Note_off_c, 0, 60, 70
1, 343058, Note_off_c, 0, 72, 63
1, 343067, Note_on_c, 0, 62, 5
1, 343073, Note_on_c, 0, 50, 97
1, 343075, Note_on_c, 0, 38, 95
1, 343105, Note_off_c, 0, 38, 66
1, 343106, Note_off_c, 0, 50, 66
1, 343118, Note_off_c, 0, 62, 26
1, 343140, Note_on_c, 0, 64, 79
1, 343142, Note_on_c, 0, 76, 80
1, 343143, Note_on_c, 0, 66, 82
1, 343158, Note_off_c, 0, 66, 69
1, 343160, Note_on_c, 0, 74, 52
1, 343161, Note_off_c, 0, 64, 70
1, 343169, Note_off_c, 0, 76, 64
1, 343183, Note_off_c, 0, 74, 58
1, 343186, Control_c, 0, 64, 33
1, 343201, Control_c, 0, 64, 53
1, 343216, Control_c, 0, 64, 68
1, 343230, Control_c, 0, 64, 82
1, 343234, Note_on_c, 0, 31, 91
1, 343235, Note_on_c, 0, 43, 102
1, 343237, Note_on_c, 0, 83, 104
1, 343240, Note_on_c, 0, 74, 102
1, 343245, Control_c, 0, 64, 114
1, 343249, Note_on_c, 0, 71, 83
1, 343249, Note_on_c, 0, 72, 83
1, 343260, Control_c, 0, 64, 127
1, 343264, Note_off_c, 0, 31, 66
1, 343267, Note_off_c, 0, 72, 70
1, 343277, Note_off_c, 0, 71, 58
1, 343281, Note_off_c, 0, 83, 64
1, 343285, Note_off_c, 0, 43, 64
1, 343303, Note_off_c, 0, 74, 64
1, 343347, Poly_aftertouch_c, 0, 76, 0
1, 343423, Note_on_c, 0, 74, 91
1, 343428, Note_on_c, 0, 67, 84
1, 343452, Note_off_c, 0, 67, 65
1, 343464, Note_off_c, 0, 74, 61
1, 343483, Control_c, 0, 64, 119
1, 343493, Note_on_c, 0, 74, 77
1, 343498, Note_on_c, 0, 67, 82
1, 343498, Control_c, 0, 64, 86
1, 343512, Control_c, 0, 64, 65
1, 343516, Note_on_c, 0, 58, 70
1, 343523, Note_on_c, 0, 65, 80
1, 343527, Control_c, 0, 64, 46
1, 343539, Note_off_c, 0, 65, 69
1, 343541, Note_on_c, 0, 70, 38
1, 343542, Control_c, 0, 64, 0
1, 343543, Note_on_c, 0, 57, 47
1, 343544, Note_off_c, 0, 67, 63
1, 343556, Note_off_c, 0, 74, 64
1, 343557, Note_off_c, 0, 58, 58
1, 343567, Note_off_c, 0, 57, 56
1, 343574, Note_off_c, 0, 70, 51
1, 343578, Note_on_c, 0, 59, 31
1, 343598, Note_on_c, 0, 65, 90
1, 343646, Note_off_c, 0, 59, 65
1, 343648, Note_off_c, 0, 65, 59
1, 343661, Note_on_c, 0, 74, 95
1, 343664, Note_on_c, 0, 67, 87
1, 343668, Control_c, 0, 64, 40
1, 343683, Control_c, 0, 64, 55
1, 343685, Note_off_c, 0, 67, 68
1, 343687, Note_off_c, 0, 74, 66
1, 343698, Control_c, 0, 64, 61
1, 343713, Control_c, 0, 64, 61
1, 343733, Note_on_c, 0, 74, 97
1, 343735, Note_on_c, 0, 67, 90
1, 343750, Note_off_c, 0, 67, 77
1, 343757, Control_c, 0, 64, 61
1, 343786, Control_c, 0, 64, 60
1, 343794, Note_on_c, 0, 69, 103
1, 343798, Note_on_c, 0, 59, 92
1, 343798, Note_off_c, 0, 74, 64
1, 343801, Control_c, 0, 64, 59
1, 343816, Control_c, 0, 64, 57
1, 343827, Note_off_c, 0, 69, 69
1, 343831, Control_c, 0, 64, 56
1, 343834, Note_off_c, 0, 59, 65
1, 343860, Note_on_c, 0, 59, 84
1, 343860, Control_c, 0, 64, 56
1, 343864, Note_on_c, 0, 69, 98
1, 343875, Control_c, 0, 64, 57
1, 343890, Control_c, 0, 64, 57
1, 343905, Control_c, 0, 64, 58
1, 343920, Note_off_c, 0, 69, 63
1, 343920, Control_c, 0, 64, 58
1, 343923, Note_on_c, 0, 71, 102
1, 343926, Note_off_c, 0, 59, 60
1, 343929, Note_on_c, 0, 74, 96
1, 343948, Note_off_c, 0, 74, 68
1, 343950, Control_c, 0, 64, 58
1, 343959, Note_off_c, 0, 71, 66
1, 343964, Control_c, 0, 64, 54
1, 343979, Control_c, 0, 64, 48
1, 343994, Control_c, 0, 64, 40
1, 343997, Note_on_c, 0, 71, 90
1, 344000, Note_on_c, 0, 74, 100
1, 344009, Control_c, 0, 64, 37
1, 344024, Control_c, 0, 64, 40
1, 344039, Control_c, 0, 64, 46
1, 344039, Note_off_c, 0, 71, 66
1, 344048, Note_on_c, 0, 60, 82
1, 344048, Note_on_c, 0, 67, 98
1, 344053, Control_c, 0, 64, 57
1, 344057, Note_off_c, 0, 74, 60
1, 344068, Control_c, 0, 64, 64
1, 344083, Control_c, 0, 64, 67
1, 344086, Note_off_c, 0, 67, 67
1, 344089, Note_on_c, 0, 59, 31
1, 344089, Note_off_c, 0, 59, 127
1, 344096, Note_off_c, 0, 60, 0
1, 344097, Control_c, 0, 64, 67
1, 344108, Note_on_c, 0, 60, 69
1, 344112, Note_on_c, 0, 67, 78
1, 344112, Control_c, 0, 64, 68
1, 344127, Control_c, 0, 64, 69
1, 344134, Note_off_c, 0, 67, 67
1, 344142, Control_c, 0, 64, 71
1, 344157, Control_c, 0, 64, 73
1, 344161, Poly_aftertouch_c, 0, 59, 0
1, 344161, Note_off_c, 0, 60, 66
1, 344165, Note_on_c, 0, 74, 92
1, 344167, Note_on_c, 0, 66, 91
1, 344171, Control_c, 0, 64, 78
1, 344186, Control_c, 0, 64, 82
1, 344198, Note_off_c, 0, 74, 49
1, 344201, Control_c, 0, 64, 87
1, 344217, Control_c, 0, 64, 92
1, 344227, Note_on_c, 0, 74, 86
1, 344232, Control_c, 0, 64, 98
1, 344247, Control_c, 0, 64, 106
1, 344255, Note_off_c, 0, 66, 69
1, 344261, Control_c, 0, 64, 127
1, 344274, Note_off_c, 0, 74, 66
1, 344373, Control_c, 0, 64, 93
1, 344388, Control_c, 0, 64, 63
1, 344402, Control_c, 0, 64, 0
1, 344406, Note_on_c, 0, 88, 101
1, 344408, Note_on_c, 0, 52, 102
1, 344409, Note_on_c, 0, 48, 103
1, 344409, Note_on_c, 0, 76, 91
1, 344409, Note_on_c, 0, 79, 88
1, 344409, Note_on_c, 0, 40, 90
1, 344410, Note_on_c, 0, 43, 93
1, 344410, Note_on_c, 0, 84, 94
1, 344418, Note_on_c, 0, 77, 78
1, 344435, Note_off_c, 0, 77, 61
1, 344462, Control_c, 0, 64, 45
1, 344468, Note_off_c, 0, 40, 63
1, 344476, Control_c, 0, 64, 62
1, 344483, Note_off_c, 0, 88, 61
1, 344491, Control_c, 0, 64, 73
1, 344493, Note_off_c, 0, 43, 62
1, 344498, Note_off_c, 0, 76, 58
1, 344506, Control_c, 0, 64, 83
1, 344511, Note_off_c, 0, 52, 58
1, 344513, Note_off_c, 0, 48, 58
1, 344516, Note_off_c, 0, 79, 61
1, 344519, Note_off_c, 0, 84, 62
1, 344520, Control_c, 0, 64, 87
1, 344535, Control_c, 0, 64, 89
1, 344550, Control_c, 0, 64, 92
1, 344565, Control_c, 0, 64, 94
1, 344580, Control_c, 0, 64, 97
1, 344609, Control_c, 0, 64, 99
1, 344662, Note_on_c, 0, 72, 91
1, 344664, Note_on_c, 0, 79, 81
1, 344687, Note_off_c, 0, 79, 62
1, 344699, Note_off_c, 0, 72, 63
1, 344731, Note_on_c, 0, 79, 79
1, 344732, Note_on_c, 0, 72, 84
1, 344797, Note_on_c, 0, 71, 95
1, 344802, Note_off_c, 0, 72, 64
1, 344804, Note_on_c, 0, 64, 86
1, 344817, Note_off_c, 0, 79, 61
1, 344817, Control_c, 0, 64, 92
1, 344829, Note_off_c, 0, 71, 67
1, 344832, Control_c, 0, 64, 82
1, 344845, Note_off_c, 0, 64, 61
1, 344847, Control_c, 0, 64, 67
1, 344862, Control_c, 0, 64, 54
1, 344868, Note_on_c, 0, 64, 78
1, 344870, Note_on_c, 0, 71, 102
1, 344876, Control_c, 0, 64, 39
1, 344891, Control_c, 0, 64, 34
1, 344906, Control_c, 0, 64, 36
1, 344919, Note_off_c, 0, 71, 63
1, 344920, Control_c, 0, 64, 41
1, 344929, Note_off_c, 0, 64, 64
1, 344930, Note_on_c, 0, 72, 93
1, 344935, Control_c, 0, 64, 49
1, 344945, Note_on_c, 0, 79, 70
1, 344950, Control_c, 0, 64, 57
1, 344952, Note_on_c, 0, 78, 41
1, 344952, Note_off_c, 0, 78, 127
1, 344965, Note_off_c, 0, 72, 65
1, 344965, Note_off_c, 0, 79, 65
1, 344965, Control_c, 0, 64, 62
1, 344980, Control_c, 0, 64, 65
1, 344993, Note_on_c, 0, 72, 82
1, 344994, Control_c, 0, 64, 65
1, 344997, Note_on_c, 0, 79, 91
1, 345009, Control_c, 0, 64, 66
1, 345026, Note_on_c, 0, 74, 42
1, 345044, Note_off_c, 0, 72, 62
1, 345054, Note_off_c, 0, 74, 0
1, 345054, Note_on_c, 0, 74, 76
1, 345057, Note_off_c, 0, 79, 64
1, 345059, Note_on_c, 0, 64, 86
1, 345070, Control_c, 0, 64, 65
1, 345085, Control_c, 0, 64, 64
1, 345106, Note_off_c, 0, 74, 66
1, 345106, Control_c, 0, 64, 63
1, 345115, Note_off_c, 0, 64, 0
1, 345121, Control_c, 0, 64, 60
1, 345127, Note_on_c, 0, 74, 89
1, 345136, Control_c, 0, 64, 55
1, 345151, Control_c, 0, 64, 49
1, 345151, Poly_aftertouch_c, 0, 64, 127
1, 345166, Control_c, 0, 64, 45
1, 345172, Note_on_c, 0, 68, 38
1, 345172, Note_off_c, 0, 74, 68
1, 345175, Poly_aftertouch_c, 0, 64, 0
1, 345181, Control_c, 0, 64, 43
1, 345184, Note_on_c, 0, 76, 99
1, 345193, Note_on_c, 0, 79, 75
1, 345196, Control_c, 0, 64, 42
1, 345202, Note_off_c, 0, 68, 39
1, 345210, Control_c, 0, 64, 39
1, 345211, Note_off_c, 0, 79, 73
1, 345224, Note_off_c, 0, 76, 58
1, 345225, Control_c, 0, 64, 35
1, 345240, Control_c, 0, 64, 29
1, 345252, Note_on_c, 0, 79, 82
1, 345255, Control_c, 0, 64, 0
1, 345259, Note_on_c, 0, 76, 41
1, 345312, Note_on_c, 0, 72, 86
1, 345313, Note_on_c, 0, 64, 87
1, 345339, Note_off_c, 0, 79, 60
1, 345340, Note_off_c, 0, 76, 60
1, 345345, Note_off_c, 0, 72, 65
1, 345365, Note_on_c, 0, 72, 76
1, 345403, Control_c, 0, 64, 32
1, 345407, Note_off_c, 0, 72, 67
1, 345417, Control_c, 0, 64, 46
1, 345431, Note_off_c, 0, 64, 66
1, 345432, Control_c, 0, 64, 59
1, 345447, Control_c, 0, 64, 64
1, 345452, Note_on_c, 0, 71, 91
1, 345454, Note_on_c, 0, 76, 77
1, 345458, Note_on_c, 0, 79, 78
1, 345461, Control_c, 0, 64, 66
1, 345476, Control_c, 0, 64, 67
1, 345491, Control_c, 0, 64, 70
1, 345506, Control_c, 0, 64, 74
1, 345521, Control_c, 0, 64, 83
1, 345535, Control_c, 0, 64, 98
1, 345535, Control_c, 0, 67, 86
1, 345550, Control_c, 0, 64, 127
1, 345550, Control_c, 0, 67, 127
1, 345602, Note_off_c, 0, 79, 61
1, 345604, Note_off_c, 0, 71, 60
1, 345619, Note_off_c, 0, 76, 64
1, 345833, Control_c, 0, 64, 81
1, 345849, Note_on_c, 0, 70, 68
1, 345851, Note_on_c, 0, 58, 77
1, 345855, Control_c, 0, 64, 60
1, 345870, Control_c, 0, 64, 31
1, 345885, Control_c, 0, 64, 0
1, 345900, Control_c, 0, 64, 33
1, 345915, Control_c, 0, 64, 45
1, 345929, Control_c, 0, 64, 57
1, 345944, Control_c, 0, 64, 65
1, 345946, Note_on_c, 0, 66, 66
1, 345952, Note_on_c, 0, 64, 59
1, 345954, Note_off_c, 0, 58, 63
1, 345959, Control_c, 0, 64, 70
1, 345974, Control_c, 0, 64, 74
1, 345979, Note_off_c, 0, 70, 59
1, 345988, Control_c, 0, 64, 76
1, 345989, Note_off_c, 0, 66, 60
1, 345995, Note_off_c, 0, 64, 60
1, 346003, Note_on_c, 0, 54, 70
1, 346003, Control_c, 0, 64, 78
1, 346006, Note_on_c, 0, 49, 65
1, 346018, Control_c, 0, 64, 80
1, 346030, Poly_aftertouch_c, 0, 59, 127
1, 346033, Control_c, 0, 64, 82
1, 346042, Note_off_c, 0, 49, 65
1, 346048, Note_on_c, 0, 59, 29
1, 346048, Control_c, 0, 64, 84
1, 346060, Note_on_c, 0, 71, 72
1, 346062, Note_off_c, 0, 54, 61
1, 346078, Control_c, 0, 64, 83
1, 346086, Note_off_c, 0, 71, 67
1, 346092, Control_c, 0, 64, 76
1, 346092, Control_c, 0, 67, 64
1, 346096, Note_off_c, 0, 59, 64
1, 346107, Control_c, 0, 64, 63
1, 346107, Control_c, 0, 67, 0
1, 346122, Control_c, 0, 64, 47
1, 346132, Note_on_c, 0, 60, 81
1, 346134, Note_on_c, 0, 72, 83
1, 346137, Control_c, 0, 64, 41
1, 346152, Control_c, 0, 64, 45
1, 346166, Control_c, 0, 64, 56
1, 346182, Control_c, 0, 64, 64
1, 346197, Control_c, 0, 64, 71
1, 346212, Control_c, 0, 64, 77
1, 346220, Note_on_c, 0, 66, 75
1, 346226, Note_on_c, 0, 70, 73
1, 346227, Control_c, 0, 64, 82
1, 346229, Note_off_c, 0, 72, 60
1, 346241, Control_c, 0, 64, 90
1, 346256, Control_c, 0, 64, 127
1, 346257, Note_off_c, 0, 60, 63
1, 346278, Note_off_c, 0, 70, 61
1, 346280, Note_off_c, 0, 66, 64
1, 346289, Note_on_c, 0, 82, 91
1, 346291, Note_on_c, 0, 78, 81
1, 346293, Note_on_c, 0, 76, 82
1, 346293, Note_off_c, 0, 76, 127
1, 346304, Note_off_c, 0, 82, 75
1, 346313, Note_off_c, 0, 78, 67
1, 346350, Note_on_c, 0, 61, 84
1, 346358, Note_on_c, 0, 73, 72
1, 346382, Note_off_c, 0, 73, 68
1, 346392, Note_off_c, 0, 61, 63
1, 346421, Note_on_c, 0, 62, 84
1, 346424, Note_on_c, 0, 74, 97
1, 346433, Control_c, 0, 64, 77
1, 346448, Control_c, 0, 64, 58
1, 346463, Control_c, 0, 64, 49
1, 346478, Control_c, 0, 64, 52
1, 346492, Control_c, 0, 64, 58
1, 346502, Note_on_c, 0, 66, 81
1, 346507, Control_c, 0, 64, 65
1, 346515, Note_on_c, 0, 71, 70
1, 346518, Note_on_c, 0, 72, 64
1, 346522, Control_c, 0, 64, 73
1, 346525, Note_off_c, 0, 74, 59
1, 346531, Note_off_c, 0, 62, 63
1, 346537, Control_c, 0, 64, 82
1, 346545, Note_off_c, 0, 72, 66
1, 346549, Note_off_c, 0, 71, 62
1, 346552, Note_on_c, 0, 49, 81
1, 346552, Note_off_c, 0, 66, 65
1, 346552, Control_c, 0, 64, 88
1, 346558, Note_on_c, 0, 59, 84
1, 346564, Note_on_c, 0, 54, 67
1, 346567, Control_c, 0, 64, 94
1, 346589, Control_c, 0, 64, 102
1, 346600, Note_off_c, 0, 54, 66
1, 346604, Control_c, 0, 64, 110
1, 346612, Note_off_c, 0, 49, 61
1, 346614, Note_off_c, 0, 59, 63
1, 346617, Note_on_c, 0, 64, 84
1, 346620, Control_c, 0, 64, 113
1, 346635, Control_c, 0, 64, 108
1, 346642, Note_off_c, 0, 64, 66
1, 346650, Control_c, 0, 64, 88
1, 346664, Control_c, 0, 64, 70
1, 346679, Control_c, 0, 64, 57
1, 346685, Note_on_c, 0, 65, 90
1, 346687, Note_on_c, 0, 77, 92
1, 346694, Control_c, 0, 64, 56
1, 346709, Control_c, 0, 64, 59
1, 346719, Poly_aftertouch_c, 0, 76, 0
1, 346723, Control_c, 0, 64, 64
1, 346738, Control_c, 0, 64, 72
1, 346746, Note_on_c, 0, 75, 47
1, 346753, Control_c, 0, 64, 82
1, 346768, Control_c, 0, 64, 90
1, 346774, Note_on_c, 0, 69, 91
1, 346775, Note_on_c, 0, 74, 82
1, 346783, Control_c, 0, 64, 95
1, 346797, Control_c, 0, 64, 99
1, 346801, Note_off_c, 0, 65, 62
1, 346812, Control_c, 0, 64, 108
1, 346815, Note_off_c, 0, 77, 60
1, 346820, Note_off_c, 0, 69, 66
1, 346823, Note_off_c, 0, 74, 66
1, 346826, Note_off_c, 0, 75, 65
1, 346827, Control_c, 0, 64, 127
1, 346835, Note_on_c, 0, 83, 84
1, 346837, Note_on_c, 0, 81, 75
1, 346853, Note_off_c, 0, 83, 71
1, 346859, Note_off_c, 0, 81, 72
1, 346896, Note_on_c, 0, 66, 102
1, 346901, Note_on_c, 0, 78, 86
1, 346914, Note_on_c, 0, 80, 62
1, 346919, Note_off_c, 0, 78, 72
1, 346927, Note_off_c, 0, 66, 63
1, 346931, Note_off_c, 0, 80, 65
1, 346960, Note_on_c, 0, 68, 31
1, 346965, Note_on_c, 0, 80, 100
1, 346975, Control_c, 0, 64, 78
1, 346990, Control_c, 0, 64, 62
1, 347005, Control_c, 0, 64, 61
1, 347006, Note_on_c, 0, 78, 36
1, 347006, Note_off_c, 0, 78, 127
1, 347020, Control_c, 0, 64, 65
1, 347035, Control_c, 0, 64, 75
1, 347047, Note_on_c, 0, 73, 74
1, 347048, Note_on_c, 0, 75, 74
1, 347050, Control_c, 0, 64, 97
1, 347064, Control_c, 0, 64, 127
1, 347078, Note_off_c, 0, 80, 59
1, 347087, Note_off_c, 0, 68, 63
1, 347101, Note_off_c, 0, 75, 63
1, 347101, Note_off_c, 0, 73, 62
1, 347121, Note_on_c, 0, 64, 88
1, 347124, Note_on_c, 0, 49, 75
1, 347130, Note_on_c, 0, 56, 72
1, 347134, Note_on_c, 0, 59, 60
1, 347145, Poly_aftertouch_c, 0, 76, 127
1, 347153, Note_off_c, 0, 49, 68
1, 347160, Note_on_c, 0, 69, 93
1, 347161, Note_on_c, 0, 81, 82
1, 347172, Note_off_c, 0, 56, 58
1, 347175, Note_off_c, 0, 59, 61
1, 347180, Poly_aftertouch_c, 0, 76, 0
1, 347190, Note_off_c, 0, 69, 63
1, 347191, Note_off_c, 0, 64, 66
1, 347202, Note_off_c, 0, 81, 58
1, 347212, Control_c, 0, 64, 106
1, 347227, Control_c, 0, 64, 73
1, 347237, Note_on_c, 0, 80, 78
1, 347238, Note_on_c, 0, 68, 96
1, 347238, Note_on_c, 0, 81, 84
1, 347241, Control_c, 0, 64, 52
1, 347251, Note_on_c, 0, 70, 82
1, 347256, Control_c, 0, 64, 40
1, 347271, Control_c, 0, 64, 45
1, 347278, Note_on_c, 0, 69, 52
1, 347285, Note_off_c, 0, 68, 66
1, 347286, Control_c, 0, 64, 59
1, 347301, Note_off_c, 0, 69, 61
1, 347301, Control_c, 0, 64, 69
1, 347315, Control_c, 0, 64, 84
1, 347325, Note_on_c, 0, 76, 66
1, 347328, Note_off_c, 0, 81, 56
1, 347338, Control_c, 0, 64, 110
1, 347343, Note_on_c, 0, 74, 83
1, 347347, Note_off_c, 0, 70, 58
1, 347353, Control_c, 0, 64, 127
1, 347367, Note_off_c, 0, 80, 63
1, 347400, Note_on_c, 0, 88, 107
1, 347401, Note_off_c, 0, 74, 65
1, 347401, Note_on_c, 0, 86, 97
1, 347408, Note_off_c, 0, 76, 66
1, 347413, Note_off_c, 0, 88, 79
1, 347418, Note_off_c, 0, 86, 73
1, 347473, Note_on_c, 0, 83, 97
1, 347477, Note_on_c, 0, 71, 97
1, 347508, Note_off_c, 0, 71, 60
1, 347509, Note_off_c, 0, 83, 66
1, 347545, Note_on_c, 0, 84, 103
1, 347546, Control_c, 0, 64, 120
1, 347547, Note_on_c, 0, 72, 103
1, 347561, Control_c, 0, 64, 69
1, 347576, Control_c, 0, 64, 44
1, 347577, Note_on_c, 0, 82, 61
1, 347591, Control_c, 0, 64, 36
1, 347606, Control_c, 0, 64, 47
1, 347620, Control_c, 0, 64, 62
1, 347635, Control_c, 0, 64, 73
1, 347645, Note_on_c, 0, 80, 82
1, 347650, Control_c, 0, 64, 86
1, 347652, Note_on_c, 0, 78, 79
1, 347655, Note_off_c, 0, 84, 63
1, 347665, Control_c, 0, 64, 99
1, 347677, Note_off_c, 0, 72, 64
1, 347679, Control_c, 0, 64, 104
1, 347682, Note_off_c, 0, 82, 24
1, 347694, Control_c, 0, 64, 110
1, 347702, Note_off_c, 0, 80, 64
1, 347706, Note_off_c, 0, 78, 60
1, 347708, Control_c, 0, 64, 122
1, 347711, Note_on_c, 0, 63, 93
1, 347716, Note_on_c, 0, 56, 76
1, 347723, Note_on_c, 0, 49, 77
1, 347723, Control_c, 0, 64, 127
1, 347758, Note_off_c, 0, 49, 63
1, 347782, Note_on_c, 0, 73, 101
1, 347783, Note_on_c, 0, 85, 98
1, 347789, Note_off_c, 0, 56, 62
1, 347789, Note_off_c, 0, 63, 61
1, 347813, Note_off_c, 0, 73, 67
1, 347818, Note_off_c, 0, 85, 60
1, 347862, Note_on_c, 0, 75, 107
1, 347866, Note_on_c, 0, 87, 93
1, 347881, Note_on_c, 0, 85, 76
1, 347892, Note_on_c, 0, 86, 69
1, 347968, Note_on_c, 0, 84, 59
1, 347971, Note_on_c, 0, 80, 85
1, 347977, Poly_aftertouch_c, 0, 74, 0
1, 347977, Note_on_c, 0, 83, 63
1, 347979, Note_off_c, 0, 86, 52
1, 347992, Note_off_c, 0, 85, 49
1, 347998, Note_off_c, 0, 87, 51
1, 348025, Note_on_c, 0, 94, 108
1, 348027, Note_on_c, 0, 92, 105
1, 348048, Note_on_c, 0, 95, 68
1, 348056, Note_off_c, 0, 75, 59
1, 348060, Note_off_c, 0, 83, 61
1, 348063, Note_off_c, 0, 95, 66
1, 348064, Note_off_c, 0, 94, 66
1, 348066, Note_off_c, 0, 92, 67
1, 348074, Note_on_c, 0, 93, 28
1, 348123, Note_off_c, 0, 84, 64
1, 348124, Note_off_c, 0, 93, 41
1, 348154, Note_on_c, 0, 88, 100
1, 348156, Note_on_c, 0, 76, 103
1, 348187, Note_off_c, 0, 80, 62
1, 348222, Note_on_c, 0, 86, 13
1, 348466, Note_off_c, 0, 76, 44
1, 348503, Note_off_c, 0, 86, 37
1, 348516, Control_c, 0, 64, 102
1, 348531, Control_c, 0, 64, 63
1, 348536, Note_on_c, 0, 37, 113
1, 348537, Note_on_c, 0, 25, 102
1, 348546, Control_c, 0, 64, 0
1, 348552, Note_off_c, 0, 88, 51
1, 348561, Note_on_c, 0, 24, 64
1, 348579, Note_off_c, 0, 25, 63
1, 348597, Note_off_c, 0, 24, 50
1, 348605, Control_c, 0, 64, 43
1, 348620, Control_c, 0, 64, 64
1, 348627, Note_off_c, 0, 37, 61
1, 348634, Control_c, 0, 64, 74
1, 348649, Control_c, 0, 64, 86
1, 348653, Poly_aftertouch_c, 0, 23, 0
1, 348664, Control_c, 0, 64, 100
1, 348679, Control_c, 0, 64, 127
1, 348902, Note_on_c, 0, 89, 93
1, 348903, Note_on_c, 0, 77, 110
1, 348907, Note_on_c, 0, 80, 101
1, 348909, Note_on_c, 0, 85, 95
1, 348917, Note_on_c, 0, 56, 108
1, 348922, Note_on_c, 0, 44, 93
1, 348931, Note_on_c, 0, 54, 73
1, 348936, Note_on_c, 0, 42, 70
1, 348946, Note_on_c, 0, 43, 56
1, 348949, Note_off_c, 0, 54, 66
1, 348961, Note_off_c, 0, 89, 60
1, 348963, Note_off_c, 0, 42, 63
1, 348970, Note_off_c, 0, 43, 58
1, 348981, Note_off_c, 0, 44, 59
1, 348991, Note_off_c, 0, 77, 58
1, 349003, Note_off_c, 0, 56, 58
1, 349029, Note_off_c, 0, 80, 58
1, 349036, Note_off_c, 0, 85, 58
1, 349178, Note_on_c, 0, 76, 99
1, 349184, Note_on_c, 0, 88, 90
1, 349186, Note_on_c, 0, 61, 99
1, 349187, Note_on_c, 0, 86, 89
1, 349192, Note_on_c, 0, 49, 95
1, 349195, Note_on_c, 0, 87, 65
1, 349212, Note_off_c, 0, 87, 53
1, 349226, Note_off_c, 0, 76, 66
1, 349229, Note_on_c, 0, 51, 41
1, 349238, Note_off_c, 0, 88, 64
1, 349238, Note_off_c, 0, 86, 63
1, 349254, Note_off_c, 0, 49, 60
1, 349256, Note_off_c, 0, 61, 58
1, 349264, Note_off_c, 0, 51, 51
1, 349269, Note_on_c, 0, 88, 83
1, 349273, Note_on_c, 0, 77, 94
1, 349302, Note_on_c, 0, 87, 22
1, 349306, Note_off_c, 0, 77, 68
1, 349316, Note_off_c, 0, 88, 66
1, 349342, Note_off_c, 0, 87, 31
1, 349362, Note_on_c, 0, 65, 96
1, 349369, Note_on_c, 0, 55, 67
1, 349370, Note_on_c, 0, 85, 99
1, 349372, Note_on_c, 0, 73, 109
1, 349374, Note_on_c, 0, 53, 86
1, 349393, Note_off_c, 0, 65, 70
1, 349402, Note_off_c, 0, 53, 58
1, 349405, Note_off_c, 0, 55, 66
1, 349449, Note_off_c, 0, 73, 57
1, 349516, Control_c, 0, 64, 93
1, 349531, Control_c, 0, 64, 49
1, 349533, Note_off_c, 0, 85, 59
1, 349546, Control_c, 0, 64, 0
1, 349566, Note_on_c, 0, 49, 113
1, 349576, Note_on_c, 0, 39, 93
1, 349576, Control_c, 0, 64, 47
1, 349586, Note_on_c, 0, 37, 81
1, 349598, Control_c, 0, 64, 65
1, 349613, Control_c, 0, 64, 85
1, 349614, Note_off_c, 0, 37, 65
1, 349616, Note_on_c, 0, 50, 37
1, 349617, Note_off_c, 0, 39, 63
1, 349619, Note_off_c, 0, 49, 66
1, 349628, Control_c, 0, 64, 127
1, 349652, Note_off_c, 0, 50, 53
1, 349703, Note_on_c, 0, 52, 97
1, 349748, Note_off_c, 0, 52, 65
1, 349793, Note_on_c, 0, 55, 98
1, 349797, Note_on_c, 0, 88, 87
1, 349798, Note_on_c, 0, 94, 96
1, 349799, Note_on_c, 0, 82, 100
1, 349801, Note_on_c, 0, 43, 90
1, 349826, Note_off_c, 0, 55, 69
1, 349828, Note_off_c, 0, 43, 67
1, 349843, Note_on_c, 0, 81, 37
1, 349874, Note_off_c, 0, 81, 55
1, 349891, Note_on_c, 0, 58, 103
1, 349892, Note_on_c, 0, 46, 84
1, 349922, Note_off_c, 0, 82, 61
1, 349923, Note_off_c, 0, 58, 66
1, 349934, Note_on_c, 0, 49, 32
1, 349942, Note_off_c, 0, 46, 60
1, 349997, Note_on_c, 0, 60, 34
1, 350014, Note_off_c, 0, 88, 35
1, 350020, Note_off_c, 0, 94, 52
1, 350034, Note_off_c, 0, 60, 45
1, 350041, Note_on_c, 0, 64, 97
1, 350048, Note_off_c, 0, 49, 52
1, 350141, Note_off_c, 0, 64, 63
1, 350147, Control_c, 0, 64, 62
1, 350152, Note_on_c, 0, 96, 102
1, 350154, Note_on_c, 0, 84, 104
1, 350154, Note_on_c, 0, 88, 100
1, 350158, Note_on_c, 0, 67, 101
1, 350161, Note_on_c, 0, 55, 90
1, 350162, Control_c, 0, 64, 0
1, 350206, Note_on_c, 0, 58, 50
1, 350236, Control_c, 0, 64, 59
1, 350237, Note_off_c, 0, 58, 35
1, 350240, Note_off_c, 0, 96, 65
1, 350250, Control_c, 0, 64, 75
1, 350263, Note_off_c, 0, 67, 68
1, 350265, Control_c, 0, 64, 85
1, 350276, Note_off_c, 0, 88, 64
1, 350280, Control_c, 0, 64, 106
1, 350294, Note_off_c, 0, 55, 62
1, 350295, Control_c, 0, 64, 127
1, 350306, Note_off_c, 0, 84, 65
1, 350495, Control_c, 0, 64, 75
1, 350506, Note_on_c, 0, 85, 94
1, 350507, Note_on_c, 0, 80, 104
1, 350510, Note_on_c, 0, 92, 103
1, 350510, Control_c, 0, 64, 0
1, 350521, Note_on_c, 0, 89, 74
1, 350522, Note_on_c, 0, 37, 103
1, 350523, Note_on_c, 0, 82, 81
1, 350527, Note_on_c, 0, 25, 95
1, 350540, Note_off_c, 0, 82, 58
1, 350554, Control_c, 0, 64, 50
1, 350569, Note_off_c, 0, 25, 62
1, 350569, Control_c, 0, 64, 72
1, 350584, Control_c, 0, 64, 127
1, 350597, Note_off_c, 0, 92, 63
1, 350598, Note_off_c, 0, 89, 63
1, 350599, Note_off_c, 0, 80, 62
1, 350603, Note_off_c, 0, 37, 60
1, 350636, Note_off_c, 0, 85, 59
1, 350668, Note_on_c, 0, 91, 93
1, 350672, Note_on_c, 0, 79, 91
1, 350687, Note_on_c, 0, 85, 56
1, 350712, Note_off_c, 0, 79, 67
1, 350715, Note_off_c, 0, 85, 63
1, 350719, Note_off_c, 0, 91, 66
1, 350801, Note_on_c, 0, 78, 105
1, 350802, Note_on_c, 0, 68, 95
1, 350802, Note_on_c, 0, 90, 103
1, 350806, Note_on_c, 0, 65, 78
1, 350809, Note_on_c, 0, 56, 79
1, 350809, Note_on_c, 0, 61, 73
1, 350823, Note_on_c, 0, 80, 63
1, 350838, Note_off_c, 0, 80, 68
1, 350856, Note_off_c, 0, 78, 56
1, 350856, Note_off_c, 0, 90, 63
1, 350896, Note_on_c, 0, 89, 86
1, 350904, Note_on_c, 0, 77, 92
1, 350917, Note_off_c, 0, 68, 60
1, 350926, Note_off_c, 0, 65, 58
1, 350940, Note_off_c, 0, 89, 65
1, 350941, Note_off_c, 0, 61, 62
1, 350942, Note_off_c, 0, 77, 66
1, 350970, Note_off_c, 0, 56, 60
1, 350981, Note_on_c, 0, 76, 95
1, 350984, Note_on_c, 0, 88, 95
1, 351002, Note_on_c, 0, 89, 51
1, 351017, Note_off_c, 0, 76, 68
1, 351023, Note_off_c, 0, 89, 59
1, 351027, Note_off_c, 0, 88, 66
1, 351070, Note_on_c, 0, 89, 99
1, 351071, Note_on_c, 0, 77, 98
1, 351108, Note_off_c, 0, 77, 67
1, 351110, Note_off_c, 0, 89, 67
1, 351136, Poly_aftertouch_c, 0, 61, 127
1, 351158, Note_on_c, 0, 61, 12
1, 351160, Note_on_c, 0, 87, 90
1, 351163, Note_on_c, 0, 75, 100
1, 351167, Note_on_c, 0, 56, 72
1, 351175, Note_on_c, 0, 53, 71
1, 351186, Note_on_c, 0, 65, 54
1, 351186, Note_on_c, 0, 88, 55
1, 351193, Note_off_c, 0, 75, 70
1, 351202, Note_off_c, 0, 53, 68
1, 351202, Note_on_c, 0, 64, 44
1, 351203, Poly_aftertouch_c, 0, 82, 0
1, 351205, Note_off_c, 0, 65, 64
1, 351208, Note_off_c, 0, 88, 63
1, 351213, Note_off_c, 0, 87, 61
1, 351219, Note_off_c, 0, 61, 62
1, 351232, Note_off_c, 0, 64, 55
1, 351241, Note_on_c, 0, 85, 89
1, 351241, Note_off_c, 0, 56, 61
1, 351243, Note_on_c, 0, 73, 103
1, 351303, Control_c, 0, 64, 71
1, 351318, Control_c, 0, 64, 0
1, 351347, Note_off_c, 0, 73, 56
1, 351348, Note_on_c, 0, 49, 101
1, 351354, Note_on_c, 0, 37, 96
1, 351362, Control_c, 0, 64, 56
1, 351377, Control_c, 0, 64, 80
1, 351378, Note_on_c, 0, 39, 60
1, 351383, Note_off_c, 0, 37, 67
1, 351392, Control_c, 0, 64, 127
1, 351395, Note_off_c, 0, 49, 66
1, 351408, Note_off_c, 0, 39, 56
1, 351412, Note_off_c, 0, 85, 46
1, 351444, Poly_aftertouch_c, 0, 48, 127
1, 351473, Poly_aftertouch_c, 0, 48, 0
1, 351495, Note_on_c, 0, 54, 99
1, 351530, Note_on_c, 0, 55, 48
1, 351539, Note_off_c, 0, 54, 66
1, 351561, Note_off_c, 0, 55, 54
1, 351602, Note_on_c, 0, 57, 99
1, 351605, Note_on_c, 0, 45, 88
1, 351613, Note_on_c, 0, 81, 97
1, 351613, Note_on_c, 0, 77, 98
1, 351615, Note_on_c, 0, 89, 92
1, 351633, Note_off_c, 0, 45, 66
1, 351637, Note_off_c, 0, 57, 69
1, 351663, Note_off_c, 0, 81, 61
1, 351682, Note_off_c, 0, 77, 59
1, 351682, Note_off_c, 0, 89, 59
1, 351700, Note_on_c, 0, 60, 97
1, 351708, Note_on_c, 0, 48, 90
1, 351714, Poly_aftertouch_c, 0, 47, 0
1, 351732, Note_off_c, 0, 48, 68
1, 351781, Note_on_c, 0, 61, 40
1, 351781, Note_off_c, 0, 61, 127
1, 351837, Note_off_c, 0, 60, 69
1, 351867, Note_on_c, 0, 62, 74
1, 351867, Note_on_c, 0, 68, 93
1, 351885, Note_off_c, 0, 62, 67
1, 351889, Note_off_c, 0, 68, 64
1, 351915, Note_on_c, 0, 67, 35
1, 351949, Note_off_c, 0, 67, 53
1, 351977, Note_on_c, 0, 87, 99
1, 351977, Control_c, 0, 64, 88
1, 351978, Note_on_c, 0, 75, 108
1, 351985, Note_on_c, 0, 78, 91
1, 351989, Note_on_c, 0, 69, 98
1, 351990, Note_on_c, 0, 59, 74
1, 351992, Control_c, 0, 64, 42
1, 351994, Note_on_c, 0, 57, 77
1, 352007, Control_c, 0, 64, 0
1, 352017, Note_off_c, 0, 57, 71
1, 352052, Control_c, 0, 64, 50
1, 352067, Control_c, 0, 64, 69
1, 352072, Note_off_c, 0, 69, 66
1, 352081, Control_c, 0, 64, 91
1, 352096, Control_c, 0, 64, 127
1, 352106, Note_off_c, 0, 59, 64
1, 352164, Note_off_c, 0, 75, 59
1, 352176, Note_off_c, 0, 87, 56
1, 352226, Note_off_c, 0, 78, 57
1, 352275, Control_c, 0, 64, 71
1, 352290, Control_c, 0, 64, 0
1, 352303, Note_on_c, 0, 75, 114
1, 352304, Note_on_c, 0, 87, 98
1, 352308, Note_on_c, 0, 78, 98
1, 352315, Note_on_c, 0, 37, 100
1, 352320, Note_on_c, 0, 25, 96
1, 352323, Note_on_c, 0, 85, 66
1, 352334, Control_c, 0, 64, 53
1, 352339, Note_off_c, 0, 85, 65
1, 352349, Control_c, 0, 64, 75
1, 352358, Note_on_c, 0, 27, 40
1, 352360, Note_off_c, 0, 25, 62
1, 352364, Control_c, 0, 64, 127
1, 352385, Note_off_c, 0, 37, 61
1, 352394, Note_off_c, 0, 75, 60
1, 352398, Note_off_c, 0, 27, 49
1, 352398, Note_off_c, 0, 87, 61
1, 352422, Note_off_c, 0, 78, 56
1, 352469, Note_on_c, 0, 86, 86
1, 352473, Note_on_c, 0, 74, 101
1, 352505, Note_off_c, 0, 74, 64
1, 352508, Note_off_c, 0, 86, 67
1, 352583, Note_on_c, 0, 57, 82
1, 352589, Note_on_c, 0, 73, 92
1, 352591, Note_on_c, 0, 85, 87
1, 352592, Note_on_c, 0, 66, 74
1, 352619, Note_on_c, 0, 67, 51
1, 352627, Note_off_c, 0, 73, 67
1, 352634, Note_off_c, 0, 85, 60
1, 352645, Note_off_c, 0, 67, 58
1, 352665, Note_on_c, 0, 72, 85
1, 352666, Note_on_c, 0, 84, 88
1, 352679, Note_off_c, 0, 66, 34
1, 352699, Note_off_c, 0, 72, 68
1, 352705, Note_off_c, 0, 84, 67
1, 352747, Note_on_c, 0, 73, 98
1, 352752, Note_on_c, 0, 85, 94
1, 352793, Note_off_c, 0, 73, 65
1, 352796, Note_off_c, 0, 85, 59
1, 352825, Note_off_c, 0, 57, 55
1, 352834, Note_on_c, 0, 72, 94
1, 352839, Note_on_c, 0, 84, 83
1, 352850, Note_on_c, 0, 66, 86
1, 352850, Note_on_c, 0, 83, 77
1, 352853, Note_on_c, 0, 61, 70
1, 352860, Note_on_c, 0, 58, 75
1, 352863, Note_off_c, 0, 83, 68
1, 352864, Note_off_c, 0, 72, 69
1, 352876, Note_off_c, 0, 84, 65
1, 352878, Note_off_c, 0, 66, 63
1, 352913, Note_on_c, 0, 82, 101
1, 352916, Note_on_c, 0, 70, 108
1, 352916, Note_off_c, 0, 61, 65
1, 352919, Note_on_c, 0, 78, 82
1, 352928, Note_off_c, 0, 58, 63
1, 352940, Note_on_c, 0, 80, 60
1, 352958, Note_off_c, 0, 80, 66
1, 352980, Poly_aftertouch_c, 0, 65, 0
1, 353044, Note_off_c, 0, 70, 59
1, 353054, Control_c, 0, 64, 109
1, 353069, Control_c, 0, 64, 64
1, 353083, Control_c, 0, 64, 0
1, 353108, Note_off_c, 0, 78, 58
1, 353113, Control_c, 0, 64, 54
1, 353125, Note_on_c, 0, 49, 103
1, 353127, Note_on_c, 0, 37, 99
1, 353127, Note_off_c, 0, 82, 60
1, 353128, Control_c, 0, 64, 73
1, 353143, Control_c, 0, 64, 127
1, 353146, Note_off_c, 0, 49, 69
1, 353148, Note_on_c, 0, 48, 84
1, 353151, Note_on_c, 0, 46, 57
1, 353154, Note_on_c, 0, 47, 67
1, 353172, Note_off_c, 0, 48, 67
1, 353175, Note_off_c, 0, 37, 58
1, 353175, Note_off_c, 0, 47, 63
1, 353175, Note_off_c, 0, 46, 60
1, 353216, Poly_aftertouch_c, 0, 35, 127
1, 353251, Poly_aftertouch_c, 0, 35, 0
1, 353252, Poly_aftertouch_c, 0, 40, 0
1, 353264, Note_on_c, 0, 52, 97
1, 353308, Note_off_c, 0, 52, 66
1, 353358, Note_on_c, 0, 88, 93
1, 353360, Note_on_c, 0, 55, 99
1, 353363, Note_on_c, 0, 94, 101
1, 353364, Note_on_c, 0, 82, 93
1, 353368, Note_on_c, 0, 43, 83
1, 353384, Note_off_c, 0, 55, 68
1, 353392, Note_off_c, 0, 43, 66
1, 353442, Note_off_c, 0, 82, 60
1, 353456, Note_on_c, 0, 58, 98
1, 353456, Note_on_c, 0, 46, 86
1, 353474, Note_off_c, 0, 58, 71
1, 353478, Note_on_c, 0, 49, 60
1, 353490, Note_off_c, 0, 46, 61
1, 353491, Note_off_c, 0, 88, 53
1, 353492, Note_off_c, 0, 49, 70
1, 353529, Note_on_c, 0, 61, 84
1, 353536, Note_on_c, 0, 49, 61
1, 353547, Note_on_c, 0, 58, 22
1, 353550, Note_off_c, 0, 61, 70
1, 353551, Note_off_c, 0, 94, 53
1, 353554, Note_off_c, 0, 49, 65
1, 353569, Poly_aftertouch_c, 0, 60, 0
1, 353570, Poly_aftertouch_c, 0, 59, 0
1, 353571, Note_on_c, 0, 51, 35
1, 353572, Note_off_c, 0, 58, 51
1, 353607, Note_on_c, 0, 64, 97
1, 353609, Note_off_c, 0, 51, 50
1, 353667, Note_off_c, 0, 64, 60
1, 353698, Control_c, 0, 64, 76
1, 353700, Note_on_c, 0, 84, 103
1, 353700, Note_on_c, 0, 96, 97
1, 353703, Note_on_c, 0, 88, 106
1, 353707, Note_on_c, 0, 67, 108
1, 353708, Note_on_c, 0, 55, 91
1, 353713, Control_c, 0, 64, 0
1, 353772, Note_on_c, 0, 57, 27
1, 353772, Note_off_c, 0, 57, 127
1, 353787, Control_c, 0, 64, 47
1, 353793, Note_off_c, 0, 96, 66
1, 353803, Control_c, 0, 64, 59
1, 353814, Note_off_c, 0, 55, 60
1, 353818, Control_c, 0, 64, 62
1, 353833, Control_c, 0, 64, 65
1, 353847, Control_c, 0, 64, 70
1, 353852, Note_off_c, 0, 88, 62
1, 353853, Note_off_c, 0, 84, 58
1, 353861, Note_off_c, 0, 67, 54
1, 353862, Control_c, 0, 64, 81
1, 353877, Control_c, 0, 64, 107
1, 353892, Control_c, 0, 64, 127
1, 354010, Note_on_c, 0, 65, 87
1, 354010, Control_c, 0, 64, 69
1, 354011, Note_on_c, 0, 61, 81
1, 354014, Note_on_c, 0, 68, 103
1, 354014, Note_on_c, 0, 80, 109
1, 354016, Note_on_c, 0, 92, 100
1, 354019, Note_on_c, 0, 89, 74
1, 354021, Note_on_c, 0, 56, 90
1, 354022, Note_on_c, 0, 86, 84
1, 354025, Control_c, 0, 64, 0
1, 354037, Note_on_c, 0, 82, 64
1, 354046, Note_on_c, 0, 85, 44
1, 354052, Note_on_c, 0, 93, 53
1, 354055, Note_off_c, 0, 82, 60
1, 354088, Note_off_c, 0, 85, 34
1, 354091, Note_off_c, 0, 93, 49
1, 354106, Control_c, 0, 64, 80
1, 354121, Control_c, 0, 64, 127
1, 354144, Note_off_c, 0, 89, 61
1, 354144, Note_off_c, 0, 92, 64
1, 354149, Note_off_c, 0, 80, 59
1, 354156, Note_off_c, 0, 68, 59
1, 354160, Note_off_c, 0, 86, 56
1, 354161, Note_off_c, 0, 65, 59
1, 354188, Note_off_c, 0, 61, 63
1, 354203, Note_off_c, 0, 56, 61
1, 354227, Note_on_c, 0, 91, 95
1, 354230, Note_on_c, 0, 79, 91
1, 354284, Note_off_c, 0, 79, 66
1, 354302, Note_off_c, 0, 91, 63
1, 354399, Note_on_c, 0, 44, 96
1, 354407, Note_on_c, 0, 78, 105
1, 354407, Note_on_c, 0, 90, 102
1, 354409, Note_on_c, 0, 32, 91
1, 354436, Note_off_c, 0, 32, 63
1, 354440, Note_on_c, 0, 42, 34
1, 354452, Note_off_c, 0, 78, 61
1, 354461, Note_off_c, 0, 90, 63
1, 354463, Note_off_c, 0, 44, 63
1, 354479, Note_off_c, 0, 42, 51
1, 354549, Note_on_c, 0, 77, 102
1, 354551, Note_on_c, 0, 89, 98
1, 354597, Note_off_c, 0, 89, 64
1, 354599, Note_off_c, 0, 77, 64
1, 354759, Note_on_c, 0, 88, 103
1, 354759, Control_c, 0, 64, 82
1, 354760, Note_on_c, 0, 76, 104
1, 354761, Note_on_c, 0, 64, 99
1, 354774, Control_c, 0, 64, 54
1, 354789, Control_c, 0, 64, 0
1, 354803, Control_c, 0, 64, 33
1, 354826, Control_c, 0, 64, 59
1, 354841, Control_c, 0, 64, 80
1, 354855, Control_c, 0, 64, 127
1, 354910, Note_off_c, 0, 76, 56
1, 354951, Note_off_c, 0, 88, 61
1, 354958, Note_off_c, 0, 64, 65
1, 354964, Note_on_c, 0, 89, 90
1, 354969, Note_on_c, 0, 65, 85
1, 354976, Note_on_c, 0, 77, 87
1, 354996, Poly_aftertouch_c, 0, 86, 0
1, 355025, Note_off_c, 0, 77, 65
1, 355069, Note_off_c, 0, 89, 62
1, 355116, Note_on_c, 0, 87, 87
1, 355125, Note_on_c, 0, 63, 85
1, 355129, Note_on_c, 0, 75, 86
1, 355146, Note_off_c, 0, 65, 54
1, 355173, Note_off_c, 0, 75, 61
1, 355213, Note_off_c, 0, 87, 62
1, 355234, Note_off_c, 0, 63, 62
1, 355236, Note_on_c, 0, 61, 78
1, 355244, Note_on_c, 0, 85, 89
1, 355247, Note_on_c, 0, 73, 81
1, 355263, Note_off_c, 0, 61, 68
1, 355282, Note_off_c, 0, 85, 67
1, 355284, Note_off_c, 0, 73, 59
1, 355388, Control_c, 0, 64, 80
1, 355392, Note_on_c, 0, 55, 67
1, 355396, Note_on_c, 0, 79, 83
1, 355405, Control_c, 0, 64, 58
1, 355413, Note_on_c, 0, 67, 60
1, 355420, Control_c, 0, 64, 42
1, 355434, Control_c, 0, 64, 43
1, 355443, Note_off_c, 0, 67, 65
1, 355449, Control_c, 0, 64, 52
1, 355464, Control_c, 0, 64, 67
1, 355478, Control_c, 0, 64, 84
1, 355493, Control_c, 0, 64, 127
1, 355500, Note_off_c, 0, 79, 51
1, 355515, Note_on_c, 0, 80, 83
1, 355519, Note_on_c, 0, 56, 69
1, 355531, Note_on_c, 0, 68, 74
1, 355544, Note_off_c, 0, 55, 56
1, 355554, Note_off_c, 0, 68, 69
1, 355575, Control_c, 0, 67, 66
1, 355579, Note_off_c, 0, 80, 62
1, 355590, Control_c, 0, 67, 126
1, 355612, Note_on_c, 0, 78, 85
1, 355621, Note_on_c, 0, 54, 78
1, 355623, Note_on_c, 0, 66, 82
1, 355623, Note_off_c, 0, 56, 61
1, 355649, Note_off_c, 0, 66, 66
1, 355649, Note_off_c, 0, 78, 64
1, 355685, Note_off_c, 0, 54, 62
1, 355695, Note_on_c, 0, 77, 85
1, 355705, Note_on_c, 0, 65, 83
1, 355706, Note_on_c, 0, 53, 83
1, 355726, Note_off_c, 0, 65, 70
1, 355740, Note_off_c, 0, 77, 63
1, 355757, Note_off_c, 0, 53, 61
1, 355772, Note_on_c, 0, 76, 86
1, 355788, Note_on_c, 0, 52, 88
1, 355793, Note_on_c, 0, 64, 49
1, 355797, Control_c, 0, 64, 77
1, 355812, Control_c, 0, 64, 49
1, 355815, Note_off_c, 0, 76, 63
1, 355816, Note_off_c, 0, 64, 58
1, 355817, Note_on_c, 0, 65, 24
1, 355827, Control_c, 0, 64, 32
1, 355842, Control_c, 0, 64, 48
1, 355847, Note_off_c, 0, 65, 34
1, 355853, Note_off_c, 0, 52, 62
1, 355857, Control_c, 0, 64, 65
1, 355861, Note_on_c, 0, 76, 68
1, 355863, Note_on_c, 0, 77, 73
1, 355869, Note_on_c, 0, 53, 78
1, 355872, Control_c, 0, 64, 93
1, 355886, Control_c, 0, 64, 127
1, 355895, Note_off_c, 0, 77, 61
1, 355899, Note_off_c, 0, 76, 63
1, 355944, Note_on_c, 0, 75, 83
1, 355946, Note_on_c, 0, 51, 89
1, 355962, Note_off_c, 0, 53, 61
1, 355984, Note_on_c, 0, 63, 27
1, 355992, Note_off_c, 0, 75, 63
1, 356019, Note_off_c, 0, 51, 60
1, 356020, Note_off_c, 0, 63, 44
1, 356024, Note_on_c, 0, 73, 76
1, 356029, Note_on_c, 0, 49, 74
1, 356046, Note_off_c, 0, 73, 71
1, 356066, Note_off_c, 0, 49, 64
1, 356124, Control_c, 0, 64, 84
1, 356127, Note_on_c, 0, 69, 70
1, 356131, Note_on_c, 0, 43, 82
1, 356139, Note_on_c, 0, 67, 70
1, 356139, Control_c, 0, 64, 49
1, 356140, Note_on_c, 0, 55, 63
1, 356153, Control_c, 0, 64, 0
1, 356159, Note_off_c, 0, 67, 60
1, 356161, Note_off_c, 0, 55, 63
1, 356188, Note_off_c, 0, 69, 59
1, 356199, Control_c, 0, 64, 45
1, 356214, Control_c, 0, 64, 63
1, 356224, Note_on_c, 0, 44, 70
1, 356229, Control_c, 0, 64, 71
1, 356231, Note_on_c, 0, 68, 70
1, 356231, Note_off_c, 0, 43, 59
1, 356244, Control_c, 0, 64, 82
1, 356258, Note_on_c, 0, 56, 55
1, 356258, Control_c, 0, 64, 98
1, 356273, Note_off_c, 0, 68, 54
1, 356273, Control_c, 0, 64, 127
1, 356282, Note_off_c, 0, 56, 61
1, 356308, Note_off_c, 0, 44, 61
1, 356317, Note_on_c, 0, 42, 83
1, 356329, Note_on_c, 0, 66, 82
1, 356343, Poly_aftertouch_c, 0, 61, 0
1, 356359, Note_on_c, 0, 54, 61
1, 356396, Note_off_c, 0, 42, 61
1, 356398, Note_off_c, 0, 54, 55
1, 356404, Note_off_c, 0, 66, 61
1, 356418, Note_on_c, 0, 41, 75
1, 356421, Note_on_c, 0, 65, 78
1, 356443, Note_on_c, 0, 53, 66
1, 356472, Note_off_c, 0, 53, 65
1, 356473, Control_c, 0, 64, 101
1, 356488, Control_c, 0, 64, 76
1, 356502, Control_c, 0, 64, 59
1, 356505, Note_off_c, 0, 65, 55
1, 356517, Control_c, 0, 64, 0
1, 356547, Note_off_c, 0, 41, 62
1, 356549, Note_on_c, 0, 40, 61
1, 356559, Note_on_c, 0, 64, 68
1, 356563, Note_on_c, 0, 52, 61
1, 356592, Control_c, 0, 64, 44
1, 356597, Note_on_c, 0, 63, 23
1, 356606, Control_c, 0, 64, 59
1, 356619, Note_off_c, 0, 52, 49
1, 356621, Control_c, 0, 64, 66
1, 356636, Control_c, 0, 64, 68
1, 356639, Note_off_c, 0, 63, 30
1, 356651, Control_c, 0, 64, 69
1, 356666, Control_c, 0, 64, 70
1, 356666, Note_off_c, 0, 64, 62
1, 356671, Note_off_c, 0, 40, 61
1, 356678, Note_on_c, 0, 65, 69
1, 356684, Note_on_c, 0, 41, 58
1, 356725, Control_c, 0, 64, 69
1, 356740, Control_c, 0, 64, 66
1, 356755, Control_c, 0, 64, 62
1, 356769, Control_c, 0, 64, 56
1, 356784, Control_c, 0, 64, 46
1, 356785, Note_off_c, 0, 65, 57
1, 356799, Control_c, 0, 64, 38
1, 356813, Note_off_c, 0, 41, 54
1, 356814, Control_c, 0, 64, 31
1, 356825, Note_on_c, 0, 39, 54
1, 356828, Control_c, 0, 64, 0
1, 356831, Note_on_c, 0, 63, 58
1, 356952, Note_off_c, 0, 63, 59
1, 356962, Control_c, 0, 64, 29
1, 356976, Control_c, 0, 64, 31
1, 356991, Control_c, 0, 64, 35
1, 356998, Note_off_c, 0, 39, 56
1, 357007, Control_c, 0, 64, 41
1, 357009, Note_on_c, 0, 61, 55
1, 357011, Note_on_c, 0, 37, 46
1, 357018, Note_on_c, 0, 49, 43
1, 357022, Control_c, 0, 64, 47
1, 357037, Control_c, 0, 64, 54
1, 357051, Control_c, 0, 64, 60
1, 357066, Control_c, 0, 64, 62
1, 357080, Note_off_c, 0, 37, 60
1, 357083, Note_off_c, 0, 49, 57
1, 357089, Control_c, 0, 64, 64
1, 357104, Control_c, 0, 64, 65
1, 357119, Control_c, 0, 64, 66
1, 357133, Control_c, 0, 64, 67
1, 357148, Control_c, 0, 64, 68
1, 357163, Control_c, 0, 64, 69
1, 357193, Control_c, 0, 64, 69
1, 357207, Control_c, 0, 64, 70
1, 357314, Note_on_c, 0, 37, 41
1, 357322, Note_on_c, 0, 46, 39
1, 357355, Control_c, 0, 64, 69
1, 357370, Control_c, 0, 64, 68
1, 357385, Control_c, 0, 64, 66
1, 357389, Note_on_c, 0, 47, 62
1, 357399, Note_off_c, 0, 46, 54
1, 357399, Control_c, 0, 64, 64
1, 357405, Note_off_c, 0, 37, 53
1, 357414, Control_c, 0, 64, 62
1, 357429, Control_c, 0, 64, 58
1, 357444, Control_c, 0, 64, 54
1, 357445, Note_off_c, 0, 47, 62
1, 357459, Control_c, 0, 64, 52
1, 357465, Note_on_c, 0, 48, 69
1, 357472, Note_on_c, 0, 65, 62
1, 357474, Control_c, 0, 64, 51
1, 357485, Note_on_c, 0, 54, 48
1, 357485, Note_on_c, 0, 58, 57
1, 357489, Control_c, 0, 64, 50
1, 357495, Note_off_c, 0, 61, 29
1, 357504, Control_c, 0, 64, 49
1, 357509, Note_off_c, 0, 48, 62
1, 357518, Control_c, 0, 64, 47
1, 357526, Note_on_c, 0, 49, 75
1, 357533, Control_c, 0, 64, 45
1, 357548, Control_c, 0, 64, 42
1, 357550, Note_off_c, 0, 49, 67
1, 357563, Control_c, 0, 64, 37
1, 357578, Control_c, 0, 64, 31
1, 357592, Control_c, 0, 64, 0
1, 357605, Note_on_c, 0, 49, 76
1, 357660, Note_off_c, 0, 54, 52
1, 357662, Note_off_c, 0, 49, 62
1, 357663, Note_off_c, 0, 65, 59
1, 357681, Control_c, 0, 64, 29
1, 357691, Note_on_c, 0, 48, 76
1, 357696, Control_c, 0, 64, 37
1, 357701, Note_on_c, 0, 63, 59
1, 357711, Control_c, 0, 64, 48
1, 357725, Control_c, 0, 64, 58
1, 357734, Note_off_c, 0, 48, 62
1, 357740, Control_c, 0, 64, 63
1, 357755, Note_off_c, 0, 58, 49
1, 357755, Control_c, 0, 64, 64
1, 357776, Note_on_c, 0, 47, 39
1, 357793, Note_on_c, 0, 46, 63
1, 357814, Note_off_c, 0, 47, 49
1, 357843, Note_off_c, 0, 46, 60
1, 357843, Note_off_c, 0, 63, 52
1, 357882, Control_c, 0, 64, 63
1, 357884, Note_on_c, 0, 45, 68
1, 357888, Note_on_c, 0, 63, 54
1, 357897, Control_c, 0, 64, 58
1, 357912, Control_c, 0, 64, 40
1, 357919, Note_on_c, 0, 37, 52
1, 357927, Control_c, 0, 64, 0
1, 357930, Note_on_c, 0, 54, 52
1, 357956, Note_on_c, 0, 62, 59
1, 357966, Note_on_c, 0, 46, 61
1, 357967, Note_off_c, 0, 45, 59
1, 358001, Control_c, 0, 64, 38
1, 358002, Note_on_c, 0, 61, 67
1, 358016, Control_c, 0, 64, 56
1, 358025, Note_on_c, 0, 47, 64
1, 358030, Control_c, 0, 64, 64
1, 358045, Control_c, 0, 64, 65
1, 358052, Note_off_c, 0, 46, 54
1, 358057, Note_off_c, 0, 37, 59
1, 358058, Note_off_c, 0, 62, 63
1, 358060, Control_c, 0, 64, 67
1, 358061, Note_off_c, 0, 63, 38
1, 358062, Note_on_c, 0, 60, 71
1, 358062, Note_off_c, 0, 47, 60
1, 358073, Note_on_c, 0, 48, 77
1, 358074, Control_c, 0, 64, 67
1, 358076, Note_off_c, 0, 61, 64
1, 358104, Control_c, 0, 64, 66
1, 358108, Note_off_c, 0, 48, 61
1, 358109, Note_off_c, 0, 60, 59
1, 358119, Control_c, 0, 64, 60
1, 358134, Control_c, 0, 64, 42
1, 358145, Note_on_c, 0, 61, 64
1, 358148, Control_c, 0, 64, 0
1, 358158, Note_off_c, 0, 54, 61
1, 358162, Note_on_c, 0, 46, 69
1, 358166, Note_on_c, 0, 37, 59
1, 358206, Note_on_c, 0, 60, 75
1, 358219, Note_on_c, 0, 47, 64
1, 358237, Note_off_c, 0, 46, 59
1, 358248, Note_off_c, 0, 47, 65
1, 358253, Note_off_c, 0, 37, 57
1, 358255, Note_on_c, 0, 59, 72
1, 358262, Note_on_c, 0, 48, 72
1, 358271, Note_off_c, 0, 60, 63
1, 358274, Note_off_c, 0, 61, 47
1, 358315, Note_off_c, 0, 59, 64
1, 358318, Note_on_c, 0, 58, 66
1, 358323, Note_on_c, 0, 49, 69
1, 358324, Note_off_c, 0, 48, 65
1, 358350, Note_off_c, 0, 49, 65
1, 358353, Note_off_c, 0, 58, 60
1, 358414, Note_on_c, 0, 37, 47
1, 358419, Note_on_c, 0, 46, 67
1, 358475, Note_on_c, 0, 47, 69
1, 358476, Note_off_c, 0, 37, 62
1, 358479, Note_off_c, 0, 46, 61
1, 358524, Note_off_c, 0, 47, 61
1, 358541, Note_on_c, 0, 48, 82
1, 358559, Note_on_c, 0, 58, 63
1, 358570, Note_on_c, 0, 54, 68
1, 358575, Note_on_c, 0, 65, 64
1, 358584, Note_off_c, 0, 48, 60
1, 358601, Control_c, 0, 64, 30
1, 358604, Note_on_c, 0, 49, 77
1, 358616, Control_c, 0, 64, 36
1, 358630, Control_c, 0, 64, 42
1, 358633, Note_off_c, 0, 49, 68
1, 358645, Control_c, 0, 64, 47
1, 358660, Control_c, 0, 64, 53
1, 358675, Control_c, 0, 64, 58
1, 358678, Note_on_c, 0, 49, 82
1, 358690, Control_c, 0, 64, 61
1, 358704, Control_c, 0, 64, 63
1, 358719, Control_c, 0, 64, 64
1, 358728, Note_on_c, 0, 50, 37
1, 358734, Control_c, 0, 64, 65
1, 358749, Control_c, 0, 64, 65
1, 358756, Note_off_c, 0, 49, 58
1, 358756, Note_on_c, 0, 48, 67
1, 358762, Note_off_c, 0, 50, 56
1, 358764, Control_c, 0, 64, 66
1, 358769, Note_off_c, 0, 65, 56
1, 358793, Control_c, 0, 64, 66
1, 358821, Note_on_c, 0, 63, 60
1, 358821, Note_off_c, 0, 48, 64
1, 358825, Note_off_c, 0, 54, 59
1, 358838, Note_on_c, 0, 47, 57
1, 358868, Note_on_c, 0, 46, 74
1, 358870, Note_off_c, 0, 47, 65
1, 358902, Note_off_c, 0, 58, 61
1, 358905, Note_off_c, 0, 63, 62
1, 358911, Control_c, 0, 64, 66
1, 358918, Note_off_c, 0, 46, 58
1, 358926, Control_c, 0, 64, 59
1, 358941, Control_c, 0, 64, 37
1, 358946, Note_on_c, 0, 45, 76
1, 358956, Control_c, 0, 64, 0
1, 358958, Note_on_c, 0, 63, 70
1, 358959, Note_on_c, 0, 37, 67
1, 358966, Note_on_c, 0, 53, 73
1, 359015, Note_off_c, 0, 45, 62
1, 359015, Control_c, 0, 64, 40
1, 359020, Note_on_c, 0, 46, 74
1, 359027, Note_on_c, 0, 62, 64
1, 359030, Control_c, 0, 64, 58
1, 359045, Control_c, 0, 64, 65
1, 359053, Note_on_c, 0, 47, 77
1, 359060, Control_c, 0, 64, 69
1, 359069, Note_off_c, 0, 37, 59
1, 359075, Note_on_c, 0, 61, 77
1, 359075, Control_c, 0, 64, 72
1, 359090, Control_c, 0, 64, 75
1, 359104, Control_c, 0, 64, 78
1, 359108, Note_off_c, 0, 46, 44
1, 359111, Note_on_c, 0, 48, 92
1, 359119, Control_c, 0, 64, 82
1, 359120, Note_on_c, 0, 60, 75
1, 359122, Note_off_c, 0, 63, 63
1, 359122, Note_off_c, 0, 47, 61
1, 359125, Note_off_c, 0, 62, 63
1, 359125, Note_off_c, 0, 53, 60
1, 359134, Control_c, 0, 64, 86
1, 359140, Note_off_c, 0, 61, 63
1, 359146, Note_off_c, 0, 48, 63
1, 359149, Control_c, 0, 64, 88
1, 359152, Note_off_c, 0, 60, 66
1, 359178, Control_c, 0, 64, 87
1, 359193, Control_c, 0, 64, 76
1, 359198, Note_on_c, 0, 37, 69
1, 359200, Note_on_c, 0, 61, 81
1, 359206, Note_on_c, 0, 52, 78
1, 359208, Control_c, 0, 64, 58
1, 359222, Note_on_c, 0, 45, 80
1, 359222, Control_c, 0, 64, 0
1, 359252, Note_on_c, 0, 38, 36
1, 359269, Note_on_c, 0, 59, 74
1, 359274, Note_on_c, 0, 46, 67
1, 359274, Note_off_c, 0, 52, 60
1, 359282, Control_c, 0, 64, 29
1, 359294, Note_off_c, 0, 38, 50
1, 359296, Control_c, 0, 64, 45
1, 359304, Note_off_c, 0, 45, 58
1, 359311, Control_c, 0, 64, 59
1, 359314, Note_on_c, 0, 47, 81
1, 359324, Note_on_c, 0, 58, 76
1, 359334, Note_off_c, 0, 61, 59
1, 359334, Control_c, 0, 64, 65
1, 359349, Note_off_c, 0, 37, 63
1, 359349, Control_c, 0, 64, 67
1, 359361, Note_off_c, 0, 59, 64
1, 359364, Control_c, 0, 64, 69
1, 359378, Control_c, 0, 64, 71
1, 359385, Note_on_c, 0, 48, 89
1, 359394, Note_off_c, 0, 47, 64
1, 359394, Control_c, 0, 64, 73
1, 359399, Note_on_c, 0, 57, 78
1, 359399, Note_off_c, 0, 46, 54
1, 359401, Note_off_c, 0, 58, 65
1, 359414, Note_off_c, 0, 48, 70
1, 359438, Control_c, 0, 64, 71
1, 359453, Control_c, 0, 64, 63
1, 359468, Control_c, 0, 64, 43
1, 359469, Note_on_c, 0, 37, 78
1, 359474, Note_off_c, 0, 57, 62
1, 359480, Note_on_c, 0, 45, 84
1, 359483, Control_c, 0, 64, 0
1, 359501, Note_on_c, 0, 38, 54
1, 359529, Note_off_c, 0, 38, 56
1, 359540, Note_on_c, 0, 46, 74
1, 359572, Note_off_c, 0, 45, 59
1, 359592, Note_on_c, 0, 47, 80
1, 359601, Control_c, 0, 64, 30
1, 359613, Note_off_c, 0, 37, 60
1, 359616, Control_c, 0, 64, 40
1, 359617, Note_on_c, 0, 68, 91
1, 359620, Note_on_c, 0, 56, 87
1, 359620, Note_on_c, 0, 61, 80
1, 359631, Control_c, 0, 64, 53
1, 359641, Note_on_c, 0, 58, 60
1, 359645, Control_c, 0, 64, 63
1, 359661, Control_c, 0, 64, 66
1, 359663, Note_off_c, 0, 47, 62
1, 359664, Note_on_c, 0, 48, 83
1, 359672, Note_off_c, 0, 46, 55
1, 359676, Control_c, 0, 64, 69
1, 359691, Control_c, 0, 64, 73
1, 359706, Control_c, 0, 64, 78
1, 359720, Control_c, 0, 64, 84
1, 359728, Note_off_c, 0, 58, 27
1, 359730, Note_off_c, 0, 48, 56
1, 359734, Note_on_c, 0, 49, 87
1, 359735, Control_c, 0, 64, 92
1, 359750, Control_c, 0, 64, 106
1, 359765, Control_c, 0, 64, 127
1, 359779, Note_off_c, 0, 56, 59
1, 359790, Note_off_c, 0, 68, 62
1, 359793, Note_off_c, 0, 49, 63
1, 359798, Note_on_c, 0, 48, 79
1, 359918, Note_on_c, 0, 66, 91
1, 359924, Note_on_c, 0, 54, 68
1, 359925, Note_on_c, 0, 46, 75
1, 359939, Note_off_c, 0, 48, 61
1, 359942, Note_on_c, 0, 56, 48
1, 359951, Note_off_c, 0, 54, 66
1, 359965, Note_off_c, 0, 56, 60
1, 360000, Note_off_c, 0, 46, 60
1, 360008, Note_off_c, 0, 61, 59
1, 360022, Note_off_c, 0, 66, 59
1, 360032, Control_c, 0, 64, 97
1, 360046, Control_c, 0, 64, 66
1, 360046, Control_c, 0, 67, 98
1, 360061, Control_c, 0, 64, 39
1, 360061, Control_c, 0, 67, 43
1, 360083, Control_c, 0, 64, 0
1, 360083, Control_c, 0, 67, 0
1, 360089, Note_on_c, 0, 45, 74
1, 360103, Note_on_c, 0, 66, 89
1, 360113, Note_on_c, 0, 62, 71
1, 360113, Control_c, 0, 64, 38
1, 360127, Control_c, 0, 64, 57
1, 360140, Note_on_c, 0, 64, 46
1, 360142, Control_c, 0, 64, 69
1, 360150, Note_off_c, 0, 45, 63
1, 360151, Note_on_c, 0, 54, 69
1, 360157, Control_c, 0, 64, 86
1, 360163, Note_on_c, 0, 63, 83
1, 360169, Note_off_c, 0, 64, 64
1, 360172, Control_c, 0, 64, 127
1, 360179, Note_off_c, 0, 62, 61
1, 360207, Note_on_c, 0, 61, 84
1, 360208, Note_off_c, 0, 54, 61
1, 360226, Note_on_c, 0, 45, 62
1, 360252, Note_off_c, 0, 63, 59
1, 360263, Note_off_c, 0, 66, 50
1, 360267, Note_on_c, 0, 60, 76
1, 360267, Note_off_c, 0, 61, 65
1, 360282, Note_on_c, 0, 37, 82
1, 360283, Note_off_c, 0, 45, 62
1, 360290, Note_off_c, 0, 60, 67
1, 360336, Control_c, 0, 64, 94
1, 360342, Note_on_c, 0, 45, 54
1, 360346, Note_off_c, 0, 37, 62
1, 360350, Control_c, 0, 64, 66
1, 360353, Note_on_c, 0, 69, 92
1, 360357, Note_on_c, 0, 65, 93
1, 360358, Note_on_c, 0, 51, 87
1, 360365, Control_c, 0, 64, 47
1, 360383, Note_off_c, 0, 45, 59
1, 360395, Control_c, 0, 64, 53
1, 360404, Note_off_c, 0, 65, 64
1, 360405, Note_on_c, 0, 66, 86
1, 360410, Control_c, 0, 64, 62
1, 360425, Control_c, 0, 64, 70
1, 360427, Note_off_c, 0, 69, 62
1, 360440, Control_c, 0, 64, 83
1, 360443, Note_off_c, 0, 51, 62
1, 360452, Note_on_c, 0, 64, 87
1, 360455, Control_c, 0, 64, 99
1, 360461, Poly_aftertouch_c, 0, 45, 0
1, 360469, Control_c, 0, 64, 118
1, 360470, Note_off_c, 0, 66, 60
1, 360473, Note_on_c, 0, 37, 82
1, 360484, Control_c, 0, 64, 127
1, 360509, Note_on_c, 0, 63, 71
1, 360521, Note_off_c, 0, 64, 66
1, 360537, Note_off_c, 0, 63, 68
1, 360550, Note_on_c, 0, 44, 75
1, 360554, Note_off_c, 0, 37, 63
1, 360558, Control_c, 0, 64, 104
1, 360573, Control_c, 0, 64, 80
1, 360587, Control_c, 0, 64, 69
1, 360597, Note_on_c, 0, 72, 90
1, 360598, Note_on_c, 0, 69, 96
1, 360601, Note_on_c, 0, 54, 77
1, 360602, Control_c, 0, 64, 65
1, 360611, Note_off_c, 0, 44, 65
1, 360617, Control_c, 0, 64, 66
1, 360632, Control_c, 0, 64, 68
1, 360647, Control_c, 0, 64, 72
1, 360649, Note_off_c, 0, 54, 62
1, 360652, Note_on_c, 0, 70, 92
1, 360657, Note_on_c, 0, 52, 54
1, 360657, Note_on_c, 0, 53, 49
1, 360661, Control_c, 0, 64, 82
1, 360664, Note_off_c, 0, 69, 61
1, 360670, Note_on_c, 0, 44, 63
1, 360676, Control_c, 0, 64, 103
1, 360684, Note_off_c, 0, 72, 63
1, 360684, Note_off_c, 0, 53, 55
1, 360686, Note_off_c, 0, 52, 64
1, 360691, Control_c, 0, 64, 127
1, 360696, Note_on_c, 0, 68, 92
1, 360719, Note_off_c, 0, 70, 63
1, 360720, Note_on_c, 0, 37, 86
1, 360732, Note_off_c, 0, 44, 63
1, 360757, Note_off_c, 0, 68, 68
1, 360768, Note_on_c, 0, 66, 91
1, 360774, Note_on_c, 0, 44, 63
1, 360775, Note_off_c, 0, 37, 63
1, 360777, Poly_aftertouch_c, 0, 39, 127
1, 360801, Note_off_c, 0, 66, 62
1, 360819, Note_on_c, 0, 51, 85
1, 360832, Control_c, 0, 64, 100
1, 360833, Poly_aftertouch_c, 0, 39, 0
1, 360836, Note_off_c, 0, 44, 63
1, 360847, Control_c, 0, 64, 67
1, 360860, Note_on_c, 0, 71, 85
1, 360862, Control_c, 0, 64, 34
1, 360865, Note_on_c, 0, 74, 87
1, 360866, Note_on_c, 0, 69, 73
1, 360867, Note_on_c, 0, 75, 65
1, 360871, Poly_aftertouch_c, 0, 44, 0
1, 360876, Control_c, 0, 64, 0
1, 360884, Note_on_c, 0, 44, 51
1, 360891, Control_c, 0, 64, 37
1, 360899, Note_off_c, 0, 51, 62
1, 360901, Note_on_c, 0, 72, 81
1, 360905, Note_off_c, 0, 69, 64
1, 360906, Control_c, 0, 64, 55
1, 360910, Note_on_c, 0, 45, 56
1, 360921, Note_on_c, 0, 37, 80
1, 360921, Control_c, 0, 64, 67
1, 360930, Note_off_c, 0, 44, 55
1, 360934, Note_on_c, 0, 70, 95
1, 360934, Note_off_c, 0, 75, 61
1, 360936, Control_c, 0, 64, 74
1, 360937, Note_off_c, 0, 74, 66
1, 360938, Note_off_c, 0, 45, 51
1, 360950, Control_c, 0, 64, 80
1, 360965, Control_c, 0, 64, 87
1, 360973, Note_off_c, 0, 72, 62
1, 360978, Note_on_c, 0, 44, 78
1, 360980, Control_c, 0, 64, 106
1, 360981, Note_off_c, 0, 71, 56
1, 360995, Note_off_c, 0, 37, 63
1, 360996, Control_c, 0, 64, 127
1, 361006, Note_on_c, 0, 68, 88
1, 361024, Note_off_c, 0, 68, 73
1, 361041, Note_on_c, 0, 54, 83
1, 361045, Note_off_c, 0, 44, 63
1, 361052, Note_off_c, 0, 70, 61
1, 361093, Note_off_c, 0, 54, 64
1, 361097, Note_on_c, 0, 44, 70
1, 361100, Note_on_c, 0, 78, 98
1, 361101, Note_on_c, 0, 74, 101
1, 361129, Control_c, 0, 64, 81
1, 361134, Note_on_c, 0, 37, 85
1, 361144, Control_c, 0, 64, 59
1, 361152, Note_off_c, 0, 44, 57
1, 361155, Note_on_c, 0, 75, 92
1, 361157, Note_off_c, 0, 74, 58
1, 361159, Control_c, 0, 64, 51
1, 361173, Control_c, 0, 64, 60
1, 361176, Note_on_c, 0, 44, 60
1, 361188, Control_c, 0, 64, 73
1, 361197, Note_on_c, 0, 73, 90
1, 361202, Note_off_c, 0, 78, 56
1, 361203, Control_c, 0, 64, 127
1, 361216, Note_off_c, 0, 37, 60
1, 361248, Note_off_c, 0, 75, 56
1, 361251, Note_on_c, 0, 51, 90
1, 361255, Note_on_c, 0, 72, 87
1, 361259, Note_off_c, 0, 44, 63
1, 361281, Note_off_c, 0, 73, 63
1, 361289, Note_off_c, 0, 72, 66
1, 361316, Note_on_c, 0, 44, 71
1, 361323, Note_off_c, 0, 51, 59
1, 361349, Note_on_c, 0, 37, 86
1, 361352, Control_c, 0, 64, 96
1, 361356, Note_on_c, 0, 81, 106
1, 361359, Note_on_c, 0, 84, 99
1, 361366, Control_c, 0, 64, 60
1, 361381, Control_c, 0, 64, 0
1, 361425, Control_c, 0, 64, 44
1, 361438, Note_on_c, 0, 82, 92
1, 361440, Note_off_c, 0, 81, 66
1, 361440, Control_c, 0, 64, 63
1, 361447, Poly_aftertouch_c, 0, 41, 127
1, 361455, Control_c, 0, 64, 76
1, 361470, Control_c, 0, 64, 96
1, 361478, Note_off_c, 0, 84, 62
1, 361484, Control_c, 0, 64, 127
1, 361522, Note_on_c, 0, 80, 99
1, 361534, Note_off_c, 0, 37, 58
1, 361549, Note_off_c, 0, 82, 65
1, 361551, Poly_aftertouch_c, 0, 41, 0
1, 361551, Note_off_c, 0, 44, 60
1, 361622, Note_on_c, 0, 78, 99
1, 361653, Note_off_c, 0, 80, 47
1, 361708, Note_off_c, 0, 78, 56
1, 361773, Control_c, 0, 64, 110
1, 361788, Control_c, 0, 64, 61
1, 361804, Control_c, 0, 64, 0
1, 361807, Note_on_c, 0, 89, 91
1, 361809, Note_on_c, 0, 77, 106
1, 361811, Note_on_c, 0, 80, 106
1, 361814, Note_on_c, 0, 85, 105
1, 361817, Note_on_c, 0, 37, 105
1, 361819, Note_on_c, 0, 25, 102
1, 361835, Note_on_c, 0, 87, 61
1, 361845, Note_off_c, 0, 25, 67
1, 361848, Control_c, 0, 64, 35
1, 361863, Control_c, 0, 64, 59
1, 361865, Note_off_c, 0, 87, 48
1, 361878, Control_c, 0, 64, 75
1, 361882, Note_off_c, 0, 89, 60
1, 361886, Note_off_c, 0, 37, 61
1, 361888, Note_off_c, 0, 77, 67
1, 361893, Control_c, 0, 64, 127
1, 361915, Note_on_c, 0, 87, 36
1, 361921, Note_off_c, 0, 80, 69
1, 361950, Note_off_c, 0, 87, 63
1, 361960, Note_off_c, 0, 85, 64
1, 362113, Note_on_c, 0, 92, 117
1, 362118, Note_on_c, 0, 97, 89
1, 362121, Note_on_c, 0, 100, 80
1, 362121, Note_on_c, 0, 101, 86
1, 362130, Note_on_c, 0, 91, 79
1, 362138, Note_off_c, 0, 97, 68
1, 362141, Note_off_c, 0, 101, 74
1, 362151, Note_off_c, 0, 92, 66
1, 362152, Note_off_c, 0, 100, 64
1, 362153, Note_off_c, 0, 91, 69
1, 362201, Note_on_c, 0, 88, 88
1, 362204, Note_on_c, 0, 91, 90
1, 362251, Note_off_c, 0, 88, 65
1, 362253, Note_off_c, 0, 91, 67
1, 362287, Note_on_c, 0, 89, 108
1, 362291, Note_on_c, 0, 97, 80
1, 362293, Note_on_c, 0, 92, 88
1, 362296, Note_on_c, 0, 96, 87
1, 362327, Note_on_c, 0, 95, 45
1, 362351, Note_off_c, 0, 95, 57
1, 362351, Note_off_c, 0, 96, 62
1, 362353, Note_off_c, 0, 89, 58
1, 362356, Note_off_c, 0, 92, 61
1, 362357, Note_off_c, 0, 97, 41
1, 362371, Note_on_c, 0, 88, 85
1, 362372, Note_on_c, 0, 84, 92
1, 362419, Note_on_c, 0, 85, 91
1, 362419, Note_on_c, 0, 92, 82
1, 362425, Note_off_c, 0, 88, 65
1, 362444, Note_off_c, 0, 84, 57
1, 362464, Note_off_c, 0, 92, 66
1, 362467, Note_off_c, 0, 85, 63
1, 362476, Note_on_c, 0, 82, 82
1, 362490, Note_on_c, 0, 79, 64
1, 362513, Note_off_c, 0, 79, 69
1, 362517, Note_off_c, 0, 82, 66
1, 362542, Note_on_c, 0, 89, 96
1, 362547, Note_on_c, 0, 80, 98
1, 362559, Note_on_c, 0, 85, 70
1, 362575, Note_off_c, 0, 85, 67
1, 362580, Note_off_c, 0, 89, 63
1, 362585, Note_off_c, 0, 80, 59
1, 362619, Note_on_c, 0, 79, 69
1, 362627, Note_on_c, 0, 77, 87
1, 362665, Note_off_c, 0, 77, 59
1, 362668, Note_off_c, 0, 79, 64
1, 362693, Note_on_c, 0, 85, 95
1, 362702, Note_on_c, 0, 77, 84
1, 362715, Note_on_c, 0, 80, 69
1, 362738, Note_off_c, 0, 80, 68
1, 362744, Note_off_c, 0, 77, 64
1, 362744, Note_off_c, 0, 85, 65
1, 362768, Note_on_c, 0, 74, 99
1, 362770, Note_on_c, 0, 71, 94
1, 362786, Note_on_c, 0, 72, 65
1, 362798, Note_on_c, 0, 73, 99
1, 362804, Note_on_c, 0, 80, 74
1, 362805, Note_off_c, 0, 74, 66
1, 362806, Note_off_c, 0, 72, 39
1, 362810, Note_off_c, 0, 71, 66
1, 362827, Note_on_c, 0, 75, 52
1, 362827, Note_off_c, 0, 75, 127
1, 362839, Note_off_c, 0, 80, 63
1, 362846, Note_off_c, 0, 73, 65
1, 362872, Note_on_c, 0, 69, 91
1, 362877, Note_on_c, 0, 65, 72
1, 362883, Note_on_c, 0, 67, 73
1, 362908, Note_on_c, 0, 73, 103
1, 362910, Note_on_c, 0, 68, 94
1, 362912, Note_off_c, 0, 67, 65
1, 362914, Note_off_c, 0, 65, 65
1, 362929, Note_off_c, 0, 69, 57
1, 362954, Note_off_c, 0, 68, 66
1, 362958, Note_off_c, 0, 73, 63
1, 362978, Note_on_c, 0, 65, 99
1, 363007, Note_off_c, 0, 65, 71
1, 363025, Note_on_c, 0, 65, 90
1, 363030, Note_on_c, 0, 68, 104
1, 363031, Note_on_c, 0, 73, 95
1, 363050, Note_on_c, 0, 77, 62
1, 363074, Note_on_c, 0, 74, 57
1, 363078, Control_c, 0, 64, 86
1, 363078, Note_off_c, 0, 77, 64
1, 363082, Note_off_c, 0, 65, 66
1, 363090, Note_off_c, 0, 68, 61
1, 363093, Control_c, 0, 64, 48
1, 363093, Note_off_c, 0, 74, 60
1, 363103, Note_off_c, 0, 73, 58
1, 363108, Control_c, 0, 64, 0
1, 363110, Note_on_c, 0, 61, 91
1, 363113, Note_on_c, 0, 49, 86
1, 363140, Note_off_c, 0, 49, 67
1, 363143, Note_off_c, 0, 61, 59
1, 363172, Note_on_c, 0, 77, 84
1, 363174, Note_on_c, 0, 68, 98
1, 363198, Note_on_c, 0, 73, 39
1, 363198, Note_off_c, 0, 73, 127
1, 363203, Note_off_c, 0, 77, 64
1, 363215, Note_off_c, 0, 68, 61
1, 363226, Control_c, 0, 64, 39
1, 363241, Control_c, 0, 64, 58
1, 363242, Note_on_c, 0, 64, 80
1, 363245, Note_on_c, 0, 67, 79
1, 363256, Control_c, 0, 64, 67
1, 363270, Control_c, 0, 64, 70
1, 363275, Note_off_c, 0, 64, 64
1, 363285, Control_c, 0, 64, 70
1, 363286, Note_off_c, 0, 67, 61
1, 363308, Note_on_c, 0, 65, 71
1, 363308, Note_on_c, 0, 72, 60
1, 363313, Note_on_c, 0, 64, 67
1, 363318, Note_on_c, 0, 68, 70
1, 363336, Note_off_c, 0, 72, 66
1, 363344, Control_c, 0, 64, 71
1, 363345, Note_off_c, 0, 68, 66
1, 363353, Note_off_c, 0, 65, 62
1, 363361, Note_on_c, 0, 60, 88
1, 363402, Note_off_c, 0, 64, 64
1, 363402, Poly_aftertouch_c, 0, 73, 0
1, 363405, Control_c, 0, 64, 71
1, 363406, Note_off_c, 0, 60, 67
1, 363418, Note_on_c, 0, 61, 95
1, 363419, Control_c, 0, 64, 74
1, 363421, Note_on_c, 0, 68, 92
1, 363434, Control_c, 0, 64, 78
1, 363449, Control_c, 0, 64, 85
1, 363464, Note_off_c, 0, 68, 66
1, 363464, Control_c, 0, 64, 94
1, 363465, Note_off_c, 0, 61, 61
1, 363469, Note_on_c, 0, 58, 98
1, 363479, Note_on_c, 0, 55, 77
1, 363479, Control_c, 0, 64, 105
1, 363493, Control_c, 0, 64, 127
1, 363504, Note_off_c, 0, 58, 68
1, 363510, Note_off_c, 0, 55, 65
1, 363538, Control_c, 0, 64, 98
1, 363546, Note_on_c, 0, 56, 108
1, 363547, Note_on_c, 0, 65, 94
1, 363553, Control_c, 0, 64, 71
1, 363566, Note_on_c, 0, 61, 69
1, 363567, Note_on_c, 0, 64, 56
1, 363567, Control_c, 0, 64, 45
1, 363580, Note_on_c, 0, 63, 43
1, 363582, Control_c, 0, 64, 0
1, 363597, Note_off_c, 0, 61, 60
1, 363599, Note_off_c, 0, 65, 65
1, 363600, Note_off_c, 0, 64, 54
1, 363603, Note_off_c, 0, 56, 59
1, 363606, Note_on_c, 0, 53, 96
1, 363607, Note_on_c, 0, 57, 88
1, 363608, Note_off_c, 0, 63, 51
1, 363612, Control_c, 0, 64, 33
1, 363626, Control_c, 0, 64, 58
1, 363641, Control_c, 0, 64, 69
1, 363650, Note_off_c, 0, 57, 66
1, 363653, Note_off_c, 0, 53, 66
1, 363656, Control_c, 0, 64, 77
1, 363671, Control_c, 0, 64, 84
1, 363679, Note_on_c, 0, 54, 87
1, 363686, Control_c, 0, 64, 88
1, 363687, Note_on_c, 0, 61, 75
1, 363689, Note_on_c, 0, 58, 79
1, 363694, Note_on_c, 0, 62, 65
1, 363701, Control_c, 0, 64, 95
1, 363716, Control_c, 0, 64, 105
1, 363719, Note_off_c, 0, 58, 66
1, 363722, Note_off_c, 0, 62, 65
1, 363731, Note_off_c, 0, 61, 57
1, 363731, Control_c, 0, 64, 127
1, 363734, Note_off_c, 0, 54, 61
1, 363743, Note_on_c, 0, 48, 97
1, 363755, Note_on_c, 0, 52, 71
1, 363756, Note_on_c, 0, 50, 72
1, 363780, Note_off_c, 0, 52, 66
1, 363784, Note_off_c, 0, 50, 66
1, 363794, Note_off_c, 0, 48, 64
1, 363798, Note_on_c, 0, 49, 102
1, 363802, Note_on_c, 0, 54, 80
1, 363853, Note_off_c, 0, 54, 61
1, 363855, Note_off_c, 0, 49, 64
1, 363857, Note_on_c, 0, 43, 81
1, 363863, Note_on_c, 0, 46, 89
1, 363901, Note_off_c, 0, 46, 65
1, 363904, Note_off_c, 0, 43, 61
1, 363914, Note_on_c, 0, 44, 96
1, 363915, Note_on_c, 0, 49, 95
1, 363958, Note_off_c, 0, 44, 67
1, 363965, Note_off_c, 0, 49, 60
1, 363966, Note_on_c, 0, 43, 98
1, 363978, Poly_aftertouch_c, 0, 46, 127
1, 364007, Note_off_c, 0, 43, 65
1, 364015, Poly_aftertouch_c, 0, 46, 0
1, 364033, Note_on_c, 0, 44, 103
1, 364036, Note_on_c, 0, 41, 98
1, 364038, Note_on_c, 0, 49, 82
1, 364050, Note_on_c, 0, 48, 92
1, 364066, Note_on_c, 0, 53, 50
1, 364079, Control_c, 0, 64, 124
1, 364082, Note_off_c, 0, 44, 64
1, 364089, Note_off_c, 0, 48, 57
1, 364093, Control_c, 0, 64, 65
1, 364096, Note_off_c, 0, 49, 58
1, 364096, Note_off_c, 0, 41, 64
1, 364099, Note_off_c, 0, 53, 49
1, 364108, Control_c, 0, 64, 0
1, 364118, Note_on_c, 0, 37, 103
1, 364122, Note_on_c, 0, 25, 94
1, 364149, Note_on_c, 0, 24, 56
1, 364149, Note_off_c, 0, 37, 58
1, 364151, Note_off_c, 0, 25, 68
1, 364170, Note_on_c, 0, 53, 77
1, 364172, Note_on_c, 0, 41, 93
1, 364180, Note_on_c, 0, 49, 82
1, 364187, Note_off_c, 0, 24, 54
1, 364212, Note_off_c, 0, 41, 64
1, 364215, Note_off_c, 0, 49, 63
1, 364224, Note_off_c, 0, 53, 61
1, 364250, Note_on_c, 0, 35, 82
1, 364250, Note_on_c, 0, 47, 84
1, 364281, Note_off_c, 0, 35, 68
1, 364282, Note_off_c, 0, 47, 67
1, 364292, Note_on_c, 0, 41, 75
1, 364299, Note_on_c, 0, 53, 68
1, 364307, Note_on_c, 0, 49, 69
1, 364339, Note_off_c, 0, 49, 66
1, 364348, Note_off_c, 0, 41, 64
1, 364352, Note_off_c, 0, 53, 61
1, 364360, Note_on_c, 0, 46, 88
1, 364374, Note_on_c, 0, 34, 78
1, 364408, Note_off_c, 0, 46, 57
1, 364410, Note_off_c, 0, 34, 67
1, 364418, Note_on_c, 0, 41, 81
1, 364427, Note_on_c, 0, 49, 68
1, 364432, Note_on_c, 0, 53, 62
1, 364464, Note_off_c, 0, 49, 64
1, 364467, Note_off_c, 0, 41, 63
1, 364472, Note_off_c, 0, 53, 61
1, 364488, Note_on_c, 0, 45, 83
1, 364499, Note_on_c, 0, 33, 78
1, 364525, Note_off_c, 0, 33, 63
1, 364533, Note_off_c, 0, 45, 61
1, 364547, Note_on_c, 0, 41, 78
1, 364563, Note_on_c, 0, 53, 70
1, 364565, Note_on_c, 0, 49, 74
1, 364596, Note_off_c, 0, 41, 63
1, 364598, Note_off_c, 0, 49, 65
1, 364607, Note_off_c, 0, 53, 62
1, 364625, Note_on_c, 0, 44, 83
1, 364637, Note_on_c, 0, 32, 82
1, 364669, Note_off_c, 0, 32, 65
1, 364671, Note_off_c, 0, 44, 61
1, 364682, Note_on_c, 0, 45, 9
1, 364689, Note_on_c, 0, 41, 72
1, 364695, Note_on_c, 0, 49, 67
1, 364696, Note_on_c, 0, 53, 63
1, 364724, Note_off_c, 0, 41, 64
1, 364729, Note_off_c, 0, 45, 28
1, 364729, Note_off_c, 0, 49, 65
1, 364732, Note_off_c, 0, 53, 60
1, 364750, Note_on_c, 0, 45, 68
1, 364758, Note_on_c, 0, 33, 79
1, 364782, Note_off_c, 0, 33, 64
1, 364789, Note_off_c, 0, 45, 63
1, 364805, Note_on_c, 0, 41, 79
1, 364816, Note_on_c, 0, 49, 67
1, 364822, Note_on_c, 0, 53, 68
1, 364849, Note_off_c, 0, 41, 63
1, 364851, Note_off_c, 0, 49, 64
1, 364856, Note_off_c, 0, 53, 62
1, 364873, Note_on_c, 0, 46, 86
1, 364888, Note_on_c, 0, 34, 76
1, 364922, Note_off_c, 0, 46, 58
1, 364923, Note_off_c, 0, 34, 63
1, 364935, Note_on_c, 0, 41, 76
1, 364938, Note_on_c, 0, 49, 66
1, 364943, Note_on_c, 0, 53, 67
1, 364969, Note_off_c, 0, 41, 66
1, 364974, Note_off_c, 0, 49, 67
1, 364977, Note_off_c, 0, 53, 63
1, 364989, Note_on_c, 0, 45, 90
1, 365003, Note_on_c, 0, 33, 77
1, 365033, Note_off_c, 0, 33, 64
1, 365037, Note_off_c, 0, 45, 62
1, 365056, Note_on_c, 0, 53, 79
1, 365060, Note_on_c, 0, 49, 75
1, 365096, Note_off_c, 0, 49, 64
1, 365111, Note_off_c, 0, 53, 60
1, 365113, Note_on_c, 0, 44, 89
1, 365126, Note_on_c, 0, 32, 86
1, 365154, Note_off_c, 0, 32, 65
1, 365162, Note_off_c, 0, 44, 64
1, 365170, Note_on_c, 0, 53, 69
1, 365175, Note_on_c, 0, 49, 76
1, 365204, Note_off_c, 0, 49, 68
1, 365209, Note_off_c, 0, 53, 64
1, 365222, Note_on_c, 0, 43, 72
1, 365236, Note_on_c, 0, 31, 81
1, 365262, Note_off_c, 0, 31, 64
1, 365275, Note_off_c, 0, 43, 63
1, 365286, Note_on_c, 0, 49, 85
1, 365292, Note_on_c, 0, 53, 74
1, 365338, Note_off_c, 0, 53, 64
1, 365338, Note_off_c, 0, 49, 62
1, 365349, Note_on_c, 0, 42, 103
1, 365360, Note_on_c, 0, 30, 81
1, 365390, Note_off_c, 0, 30, 68
1, 365395, Note_off_c, 0, 42, 65
1, 365403, Note_on_c, 0, 32, 26
1, 365407, Note_on_c, 0, 53, 81
1, 365411, Note_on_c, 0, 49, 78
1, 365449, Note_off_c, 0, 49, 63
1, 365450, Note_off_c, 0, 32, 50
1, 365460, Note_off_c, 0, 53, 62
1, 365463, Note_on_c, 0, 41, 95
1, 365469, Note_on_c, 0, 29, 96
1, 365515, Note_on_c, 0, 53, 73
1, 365521, Note_off_c, 0, 29, 63
1, 365524, Note_on_c, 0, 49, 79
1, 365531, Note_on_c, 0, 43, 61
1, 365531, Note_off_c, 0, 43, 127
1, 365558, Note_off_c, 0, 49, 64
1, 365558, Note_off_c, 0, 41, 65
1, 365570, Note_off_c, 0, 53, 63
1, 365585, Note_on_c, 0, 40, 97
1, 365588, Note_on_c, 0, 28, 97
1, 365617, Note_off_c, 0, 28, 70
1, 365625, Note_off_c, 0, 40, 64
1, 365628, Note_on_c, 0, 41, 92
1, 365630, Note_on_c, 0, 53, 68
1, 365637, Note_on_c, 0, 49, 82
1, 365668, Note_off_c, 0, 41, 65
1, 365671, Note_off_c, 0, 49, 64
1, 365673, Note_off_c, 0, 53, 64
1, 365691, Note_on_c, 0, 51, 25
1, 365694, Note_on_c, 0, 39, 106
1, 365704, Note_on_c, 0, 27, 94
1, 365725, Note_off_c, 0, 51, 28
1, 365736, Note_on_c, 0, 41, 96
1, 365740, Note_on_c, 0, 53, 74
1, 365740, Note_off_c, 0, 27, 62
1, 365741, Note_off_c, 0, 39, 64
1, 365744, Note_on_c, 0, 49, 82
1, 365774, Note_off_c, 0, 41, 67
1, 365779, Note_off_c, 0, 53, 64
1, 365780, Note_off_c, 0, 49, 63
1, 365806, Note_on_c, 0, 26, 72
1, 365806, Note_on_c, 0, 38, 95
1, 365829, Note_on_c, 0, 53, 72
1, 365830, Note_on_c, 0, 41, 92
1, 365838, Note_on_c, 0, 49, 79
1, 365847, Note_on_c, 0, 28, 16
1, 365852, Note_off_c, 0, 38, 65
1, 365854, Note_off_c, 0, 26, 64
1, 365874, Note_off_c, 0, 41, 65
1, 365886, Note_off_c, 0, 53, 63
1, 365889, Note_off_c, 0, 49, 62
1, 365895, Note_off_c, 0, 28, 27
1, 365929, Poly_aftertouch_c, 0, 49, 0
1, 365931, Note_on_c, 0, 41, 97
1, 365931, Note_on_c, 0, 53, 72
1, 365933, Control_c, 0, 64, 64
1, 365937, Note_on_c, 0, 49, 75
1, 365937, Note_on_c, 0, 37, 101
1, 365943, Note_on_c, 0, 25, 94
1, 365948, Control_c, 0, 64, 127
1, 365952, Note_on_c, 0, 52, 49
1, 365970, Note_off_c, 0, 25, 67
1, 365974, Note_on_c, 0, 50, 57
1, 365977, Note_off_c, 0, 41, 66
1, 365981, Note_off_c, 0, 52, 35
1, 365989, Note_off_c, 0, 37, 63
1, 366007, Note_off_c, 0, 50, 63
1, 366022, Note_off_c, 0, 53, 61
1, 366026, Note_off_c, 0, 49, 64
1, 366071, Poly_aftertouch_c, 0, 46, 0
1, 366206, Note_on_c, 0, 45, 65
1, 366206, Control_c, 0, 64, 98
1, 366221, Control_c, 0, 64, 65
1, 366228, Note_on_c, 0, 53, 60
1, 366236, Control_c, 0, 64, 32
1, 366251, Note_off_c, 0, 45, 62
1, 366251, Control_c, 0, 64, 0
1, 366255, Note_on_c, 0, 57, 80
1, 366256, Note_off_c, 0, 53, 67
1, 366266, Control_c, 0, 64, 30
1, 366279, Note_on_c, 0, 65, 99
1, 366279, Note_on_c, 0, 77, 97
1, 366280, Note_off_c, 0, 57, 70
1, 366281, Note_on_c, 0, 72, 90
1, 366281, Control_c, 0, 64, 55
1, 366295, Control_c, 0, 64, 72
1, 366310, Control_c, 0, 64, 117
1, 366311, Note_off_c, 0, 65, 67
1, 366321, Note_on_c, 0, 63, 89
1, 366322, Note_off_c, 0, 72, 65
1, 366325, Note_on_c, 0, 64, 95
1, 366325, Control_c, 0, 64, 127
1, 366339, Note_off_c, 0, 77, 64
1, 366341, Note_off_c, 0, 64, 77
1, 366350, Note_off_c, 0, 63, 62
1, 366387, Poly_aftertouch_c, 0, 75, 0
1, 366426, Poly_aftertouch_c, 0, 60, 0
1, 366494, Note_on_c, 0, 45, 81
1, 366499, Note_on_c, 0, 57, 85
1, 366518, Note_off_c, 0, 45, 66
1, 366532, Control_c, 0, 64, 65
1, 366533, Note_off_c, 0, 57, 65
1, 366547, Control_c, 0, 64, 0
1, 366559, Note_on_c, 0, 73, 102
1, 366560, Note_on_c, 0, 76, 90
1, 366560, Note_on_c, 0, 85, 102
1, 366570, Note_on_c, 0, 81, 84
1, 366573, Note_on_c, 0, 64, 106
1, 366577, Control_c, 0, 64, 29
1, 366592, Control_c, 0, 64, 59
1, 366604, Note_off_c, 0, 64, 72
1, 366607, Control_c, 0, 64, 81
1, 366619, Note_off_c, 0, 73, 67
1, 366622, Control_c, 0, 64, 127
1, 366624, Note_off_c, 0, 76, 64
1, 366648, Note_off_c, 0, 81, 64
1, 366665, Note_off_c, 0, 85, 62
1, 366755, Control_c, 0, 64, 72
1, 366757, Note_on_c, 0, 42, 107
1, 366770, Control_c, 0, 64, 49
1, 366785, Control_c, 0, 64, 53
1, 366796, Note_on_c, 0, 41, 44
1, 366800, Control_c, 0, 64, 71
1, 366813, Note_off_c, 0, 42, 62
1, 366822, Control_c, 0, 64, 127
1, 366843, Note_off_c, 0, 41, 52
1, 366862, Poly_aftertouch_c, 0, 40, 0
1, 366870, Note_on_c, 0, 81, 108
1, 366873, Note_on_c, 0, 87, 105
1, 366874, Note_on_c, 0, 66, 102
1, 366874, Note_on_c, 0, 93, 102
1, 366882, Note_on_c, 0, 54, 79
1, 366888, Poly_aftertouch_c, 0, 40, 0
1, 366888, Note_on_c, 0, 56, 79
1, 366903, Note_off_c, 0, 66, 69
1, 366905, Note_off_c, 0, 56, 68
1, 366906, Note_off_c, 0, 54, 69
1, 366912, Note_on_c, 0, 90, 27
1, 366953, Note_off_c, 0, 81, 56
1, 366972, Note_off_c, 0, 90, 39
1, 366988, Note_off_c, 0, 87, 55
1, 366996, Note_off_c, 0, 93, 57
1, 367074, Control_c, 0, 64, 93
1, 367089, Control_c, 0, 64, 57
1, 367103, Control_c, 0, 64, 0
1, 367133, Control_c, 0, 64, 40
1, 367148, Control_c, 0, 64, 65
1, 367150, Note_on_c, 0, 49, 98
1, 367153, Note_on_c, 0, 37, 93
1, 367162, Control_c, 0, 64, 85
1, 367177, Note_off_c, 0, 37, 68
1, 367177, Control_c, 0, 64, 127
1, 367186, Note_off_c, 0, 49, 66
1, 367293, Note_on_c, 0, 101, 104
1, 367293, Note_on_c, 0, 89, 103
1, 367296, Note_on_c, 0, 97, 94
1, 367297, Note_on_c, 0, 92, 109
1, 367302, Note_on_c, 0, 68, 100
1, 367303, Note_on_c, 0, 56, 89
1, 367309, Note_on_c, 0, 65, 78
1, 367333, Note_on_c, 0, 99, 24
1, 367333, Note_off_c, 0, 99, 127
1, 367342, Note_off_c, 0, 56, 61
1, 367371, Note_off_c, 0, 65, 57
1, 367376, Note_off_c, 0, 68, 54
1, 367457, Note_off_c, 0, 101, 61
1, 367475, Note_off_c, 0, 89, 51
1, 367643, Note_off_c, 0, 92, 54
1, 367710, Note_off_c, 0, 97, 61
1, 367833, Note_on_c, 0, 85, 112
1, 367833, Note_on_c, 0, 97, 109
1, 367836, Note_on_c, 0, 77, 104
1, 367836, Note_on_c, 0, 65, 85
1, 367838, Note_on_c, 0, 92, 95
1, 367841, Note_on_c, 0, 73, 86
1, 367844, Note_on_c, 0, 68, 86
1, 367924, Poly_aftertouch_c, 0, 94, 0
1, 367961, Poly_aftertouch_c, 0, 94, 127
1, 368029, Note_off_c, 0, 65, 57
1, 368031, Note_off_c, 0, 77, 57
1, 368043, Note_off_c, 0, 97, 58
1, 368084, Note_off_c, 0, 92, 63
1, 368088, Poly_aftertouch_c, 0, 94, 0
1, 368101, Note_off_c, 0, 73, 59
1, 368118, Note_off_c, 0, 85, 58
1, 368140, Note_off_c, 0, 68, 59
1, 368399, Note_on_c, 0, 57, 67
1, 368423, Poly_aftertouch_c, 0, 56, 127
1, 368428, Note_on_c, 0, 60, 72
1, 368433, Note_on_c, 0, 80, 63
1, 368439, Poly_aftertouch_c, 0, 58, 127
1, 368444, Note_on_c, 0, 85, 95
1, 368446, Note_on_c, 0, 73, 106
1, 368447, Note_on_c, 0, 61, 103
1, 368453, Control_c, 0, 64, 85
1, 368455, Note_on_c, 0, 49, 92
1, 368463, Note_off_c, 0, 80, 68
1, 368467, Note_off_c, 0, 57, 62
1, 368467, Poly_aftertouch_c, 0, 58, 0
1, 368468, Control_c, 0, 64, 45
1, 368469, Note_off_c, 0, 85, 70
1, 368473, Note_off_c, 0, 60, 64
1, 368475, Note_off_c, 0, 61, 71
1, 368479, Note_off_c, 0, 73, 68
1, 368482, Control_c, 0, 64, 0
1, 368488, Poly_aftertouch_c, 0, 56, 0
1, 368496, Note_off_c, 0, 49, 63
1, 368508, Note_on_c, 0, 72, 15
1, 368508, Note_off_c, 0, 72, 127
1, 368528, Note_on_c, 0, 48, 3
1, 368542, Control_c, 0, 64, 34
1, 368557, Control_c, 0, 64, 60
1, 368569, Note_off_c, 0, 48, 28
1, 368572, Control_c, 0, 64, 76
1, 368587, Control_c, 0, 64, 127
1, 368634, Note_on_c, 0, 37, 101
1, 368635, Note_on_c, 0, 25, 101
1, 368635, Note_on_c, 0, 49, 101
1, 368664, Note_off_c, 0, 25, 64
1, 368666, Note_off_c, 0, 49, 68
1, 368674, Note_off_c, 0, 37, 65
1, 368719, Control_c, 0, 64, 75
1, 368733, Control_c, 0, 64, 0
1, 368733, End_track
0, 0, End_of_file
