0, 0, Header, 0, 1, 384
1, 0, Start_track
1, 0, Title_t, "32 Variations WoO80--O.Nikiforov"
1, 0, Text_t, "2008 e-Piano Junior Competition recital round"
1, 0, Text_t, "recorded July 2008"
1, 0, Text_t, "http://www.piano-e-competition.com/"
1, 0, Text_t, "File processed for distribution by software from Zenph Studios, Inc., http://www.zenph.com"
1, 0, Instrument_name_t, "Yamaha Disklavier Pro Mark IV concert grand piano, model DCFIIISM4PRO"
1, 0, Sequencer_specific, 39, 67, 113, 0, 1, 0, 1, 0, 51, 50, 32, 86, 97, 114, 46, 32, 87, 111, 79, 32, 56, 48, 32, 32, 79, 115, 105, 112, 32, 78, 105, 107, 105, 102, 111, 114, 111, 118, 32, 32
1, 0, Sequencer_specific, 6, 67, 113, 0, 0, 0, 69
1, 0, System_exclusive, 21, 67, 113, 126, 21, 0, 2, 2, 0, 3, 14, 1, 4, 1, 13, 13, 10, 11, 9, 2, 7, 247
1, 0, Sequencer_specific, 5, 67, 123, 12, 2, 1
1, 0, Tempo, 512820
1, 0, Time_signature, 4, 2, 24, 8
1, 0, System_exclusive, 5, 126, 127, 9, 1, 247
1, 1, System_exclusive, 8, 67, 16, 76, 0, 0, 126, 0, 247
1, 2, System_exclusive, 8, 67, 16, 76, 8, 9, 7, 1, 247
1, 3, Control_c, 0, 0, 0
1, 3, Control_c, 1, 0, 0
1, 3, Control_c, 2, 0, 0
1, 3, Control_c, 3, 0, 0
1, 3, Control_c, 4, 0, 0
1, 3, Control_c, 5, 0, 0
1, 3, Control_c, 6, 0, 0
1, 3, Control_c, 7, 0, 0
1, 3, Control_c, 8, 0, 0
1, 3, Control_c, 9, 0, 127
1, 3, Control_c, 10, 0, 0
1, 3, Control_c, 11, 0, 0
1, 3, Control_c, 12, 0, 0
1, 3, Control_c, 13, 0, 0
1, 3, Control_c, 14, 0, 0
1, 3, Control_c, 15, 0, 0
1, 4, Control_c, 0, 32, 0
1, 4, Control_c, 1, 32, 0
1, 4, Control_c, 2, 32, 0
1, 4, Control_c, 3, 32, 0
1, 4, Control_c, 4, 32, 0
1, 4, Control_c, 5, 32, 0
1, 4, Control_c, 6, 32, 0
1, 4, Control_c, 7, 32, 0
1, 4, Control_c, 8, 32, 0
1, 4, Control_c, 9, 32, 0
1, 4, Control_c, 10, 32, 0
1, 4, Control_c, 11, 32, 0
1, 4, Control_c, 12, 32, 0
1, 4, Control_c, 13, 32, 0
1, 4, Control_c, 14, 32, 0
1, 4, Control_c, 15, 32, 0
1, 5, Program_c, 0, 0
1, 5, Program_c, 1, 0
1, 5, Program_c, 2, 0
1, 5, Program_c, 3, 0
1, 5, Program_c, 4, 0
1, 5, Program_c, 5, 0
1, 5, Program_c, 6, 0
1, 5, Program_c, 7, 0
1, 5, Program_c, 8, 0
1, 5, Program_c, 9, 0
1, 5, Program_c, 10, 0
1, 5, Program_c, 11, 0
1, 5, Program_c, 12, 0
1, 5, Program_c, 13, 0
1, 5, Program_c, 14, 0
1, 5, Program_c, 15, 0
1, 6, Control_c, 0, 7, 100
1, 6, Control_c, 1, 7, 100
1, 6, Control_c, 2, 7, 100
1, 6, Control_c, 3, 7, 100
1, 6, Control_c, 4, 7, 100
1, 6, Control_c, 5, 7, 100
1, 6, Control_c, 6, 7, 100
1, 6, Control_c, 7, 7, 100
1, 6, Control_c, 8, 7, 100
1, 6, Control_c, 9, 7, 100
1, 6, Control_c, 10, 7, 100
1, 6, Control_c, 11, 7, 100
1, 6, Control_c, 12, 7, 100
1, 6, Control_c, 13, 7, 100
1, 6, Control_c, 14, 7, 100
1, 6, Control_c, 15, 7, 100
1, 1129, Note_on_c, 0, 55, 86
1, 1132, Note_on_c, 0, 51, 79
1, 1137, Note_on_c, 0, 48, 78
1, 1694, Note_on_c, 0, 72, 92
1, 1995, Control_c, 0, 64, 31
1, 2010, Control_c, 0, 64, 45
1, 2024, Control_c, 0, 64, 55
1, 2039, Control_c, 0, 64, 62
1, 2054, Control_c, 0, 64, 65
1, 2069, Control_c, 0, 64, 68
1, 2084, Control_c, 0, 64, 72
1, 2098, Control_c, 0, 64, 77
1, 2113, Control_c, 0, 64, 83
1, 2128, Control_c, 0, 64, 87
1, 2135, Note_off_c, 0, 55, 60
1, 2143, Control_c, 0, 64, 92
1, 2158, Control_c, 0, 64, 96
1, 2173, Control_c, 0, 64, 101
1, 2188, Control_c, 0, 64, 105
1, 2203, Control_c, 0, 64, 108
1, 2218, Control_c, 0, 64, 110
1, 2270, Control_c, 0, 64, 110
1, 2330, Note_off_c, 0, 72, 58
1, 2359, Control_c, 0, 64, 110
1, 2388, Control_c, 0, 64, 109
1, 2403, Control_c, 0, 64, 108
1, 2410, Note_on_c, 0, 75, 81
1, 2418, Control_c, 0, 64, 105
1, 2433, Control_c, 0, 64, 102
1, 2447, Control_c, 0, 64, 98
1, 2455, Note_off_c, 0, 75, 65
1, 2462, Control_c, 0, 64, 93
1, 2477, Control_c, 0, 64, 87
1, 2487, Note_off_c, 0, 48, 61
1, 2492, Control_c, 0, 64, 80
1, 2507, Note_on_c, 0, 74, 98
1, 2507, Control_c, 0, 64, 73
1, 2522, Control_c, 0, 64, 64
1, 2527, Note_on_c, 0, 47, 65
1, 2528, Note_off_c, 0, 51, 56
1, 2529, Note_on_c, 0, 50, 69
1, 2532, Note_on_c, 0, 55, 64
1, 2536, Control_c, 0, 64, 0
1, 2604, Note_off_c, 0, 74, 67
1, 3066, Note_on_c, 0, 67, 83
1, 3137, Control_c, 0, 64, 26
1, 3151, Control_c, 0, 64, 46
1, 3166, Control_c, 0, 64, 55
1, 3181, Control_c, 0, 64, 61
1, 3195, Control_c, 0, 64, 65
1, 3210, Control_c, 0, 64, 68
1, 3225, Control_c, 0, 64, 72
1, 3240, Control_c, 0, 64, 78
1, 3255, Control_c, 0, 64, 83
1, 3269, Control_c, 0, 64, 88
1, 3284, Control_c, 0, 64, 94
1, 3299, Control_c, 0, 64, 100
1, 3314, Control_c, 0, 64, 106
1, 3329, Control_c, 0, 64, 112
1, 3344, Control_c, 0, 64, 118
1, 3359, Control_c, 0, 64, 127
1, 3369, Note_off_c, 0, 67, 48
1, 3591, Note_off_c, 0, 47, 38
1, 3626, Note_off_c, 0, 55, 50
1, 3651, Note_on_c, 0, 67, 68
1, 3654, Note_off_c, 0, 50, 52
1, 3699, Note_off_c, 0, 67, 63
1, 3714, Note_on_c, 0, 69, 78
1, 3780, Note_on_c, 0, 71, 71
1, 3785, Note_off_c, 0, 69, 63
1, 3826, Note_on_c, 0, 72, 83
1, 3853, Note_off_c, 0, 71, 61
1, 3856, Control_c, 0, 64, 119
1, 3871, Control_c, 0, 64, 110
1, 3886, Control_c, 0, 64, 102
1, 3890, Note_on_c, 0, 74, 66
1, 3900, Note_off_c, 0, 72, 67
1, 3900, Control_c, 0, 64, 94
1, 3915, Control_c, 0, 64, 87
1, 3929, Note_on_c, 0, 76, 98
1, 3930, Control_c, 0, 64, 79
1, 3937, Note_on_c, 0, 55, 79
1, 3937, Note_on_c, 0, 46, 73
1, 3940, Note_on_c, 0, 52, 82
1, 3944, Note_on_c, 0, 48, 77
1, 3945, Control_c, 0, 64, 72
1, 3952, Note_off_c, 0, 74, 67
1, 3960, Control_c, 0, 64, 64
1, 3974, Control_c, 0, 64, 20
1, 3975, Note_off_c, 0, 76, 70
1, 3989, Control_c, 0, 64, 0
1, 4398, Note_on_c, 0, 76, 96
1, 4449, Control_c, 0, 64, 45
1, 4464, Control_c, 0, 64, 58
1, 4479, Control_c, 0, 64, 63
1, 4501, Control_c, 0, 64, 66
1, 4515, Control_c, 0, 64, 70
1, 4530, Control_c, 0, 64, 78
1, 4545, Control_c, 0, 64, 85
1, 4560, Control_c, 0, 64, 92
1, 4576, Control_c, 0, 64, 99
1, 4591, Control_c, 0, 64, 105
1, 4605, Control_c, 0, 64, 112
1, 4620, Control_c, 0, 64, 120
1, 4632, Note_off_c, 0, 55, 55
1, 4635, Control_c, 0, 64, 127
1, 4715, Note_off_c, 0, 52, 57
1, 4727, Note_off_c, 0, 46, 43
1, 4757, Note_off_c, 0, 48, 25
1, 5034, Note_on_c, 0, 79, 85
1, 5042, Note_off_c, 0, 76, 34
1, 5077, Note_off_c, 0, 79, 64
1, 5124, Control_c, 0, 64, 119
1, 5135, Note_on_c, 0, 77, 107
1, 5139, Control_c, 0, 64, 111
1, 5150, Note_on_c, 0, 48, 74
1, 5153, Control_c, 0, 64, 103
1, 5154, Note_on_c, 0, 53, 77
1, 5158, Note_on_c, 0, 45, 69
1, 5168, Control_c, 0, 64, 94
1, 5183, Control_c, 0, 64, 86
1, 5198, Control_c, 0, 64, 78
1, 5213, Control_c, 0, 64, 72
1, 5228, Control_c, 0, 64, 66
1, 5235, Note_off_c, 0, 77, 65
1, 5249, Control_c, 0, 64, 59
1, 5264, Control_c, 0, 64, 43
1, 5279, Control_c, 0, 64, 25
1, 5294, Control_c, 0, 64, 26
1, 5309, Control_c, 0, 64, 28
1, 5323, Control_c, 0, 64, 29
1, 5353, Control_c, 0, 64, 28
1, 5368, Control_c, 0, 64, 26
1, 5384, Control_c, 0, 64, 24
1, 5398, Control_c, 0, 64, 20
1, 5413, Control_c, 0, 64, 0
1, 5704, Note_on_c, 0, 65, 81
1, 5843, Control_c, 0, 64, 54
1, 5858, Control_c, 0, 64, 62
1, 5872, Control_c, 0, 64, 65
1, 5887, Control_c, 0, 64, 69
1, 5902, Control_c, 0, 64, 76
1, 5917, Control_c, 0, 64, 86
1, 5919, Note_off_c, 0, 65, 63
1, 5932, Control_c, 0, 64, 97
1, 5946, Control_c, 0, 64, 109
1, 5961, Control_c, 0, 64, 127
1, 5976, Control_c, 0, 64, 127
1, 6144, Note_off_c, 0, 53, 63
1, 6149, Note_off_c, 0, 45, 61
1, 6200, Note_off_c, 0, 48, 61
1, 6278, Note_on_c, 0, 72, 66
1, 6335, Note_on_c, 0, 74, 69
1, 6355, Note_off_c, 0, 72, 61
1, 6388, Note_on_c, 0, 75, 82
1, 6412, Note_off_c, 0, 74, 65
1, 6443, Note_on_c, 0, 77, 80
1, 6449, Note_off_c, 0, 75, 69
1, 6502, Control_c, 0, 64, 117
1, 6514, Note_on_c, 0, 78, 99
1, 6515, Note_on_c, 0, 54, 93
1, 6516, Note_on_c, 0, 44, 80
1, 6517, Control_c, 0, 64, 105
1, 6520, Note_on_c, 0, 48, 82
1, 6522, Note_on_c, 0, 51, 80
1, 6532, Control_c, 0, 64, 95
1, 6546, Control_c, 0, 64, 84
1, 6549, Note_off_c, 0, 77, 62
1, 6561, Control_c, 0, 64, 75
1, 6572, Note_off_c, 0, 78, 66
1, 6576, Control_c, 0, 64, 67
1, 6591, Control_c, 0, 64, 54
1, 6606, Control_c, 0, 64, 0
1, 7053, Note_on_c, 0, 66, 92
1, 7163, Control_c, 0, 64, 54
1, 7177, Control_c, 0, 64, 64
1, 7192, Control_c, 0, 64, 69
1, 7207, Control_c, 0, 64, 77
1, 7222, Control_c, 0, 64, 87
1, 7237, Control_c, 0, 64, 100
1, 7249, Note_off_c, 0, 66, 62
1, 7252, Control_c, 0, 64, 116
1, 7267, Control_c, 0, 64, 127
1, 7416, Note_off_c, 0, 54, 60
1, 7429, Note_off_c, 0, 44, 58
1, 7459, Note_off_c, 0, 51, 55
1, 7502, Note_off_c, 0, 48, 37
1, 7585, Note_on_c, 0, 72, 69
1, 7642, Note_on_c, 0, 74, 71
1, 7651, Note_off_c, 0, 72, 62
1, 7696, Note_on_c, 0, 75, 85
1, 7720, Note_off_c, 0, 74, 65
1, 7752, Note_on_c, 0, 78, 80
1, 7764, Note_off_c, 0, 75, 68
1, 7764, Control_c, 0, 64, 125
1, 7779, Control_c, 0, 64, 115
1, 7793, Control_c, 0, 64, 105
1, 7808, Control_c, 0, 64, 97
1, 7823, Control_c, 0, 64, 88
1, 7829, Note_on_c, 0, 79, 97
1, 7831, Note_off_c, 0, 78, 65
1, 7838, Control_c, 0, 64, 79
1, 7848, Note_on_c, 0, 51, 70
1, 7848, Note_on_c, 0, 55, 93
1, 7850, Note_on_c, 0, 48, 75
1, 7853, Control_c, 0, 64, 70
1, 7855, Note_on_c, 0, 43, 83
1, 7867, Control_c, 0, 64, 60
1, 7882, Control_c, 0, 64, 0
1, 7885, Note_on_c, 0, 77, 12
1, 7888, Note_off_c, 0, 77, 43
1, 7925, Note_off_c, 0, 55, 64
1, 7938, Note_off_c, 0, 43, 62
1, 7950, Note_off_c, 0, 48, 66
1, 7951, Note_off_c, 0, 79, 61
1, 7956, Note_off_c, 0, 51, 62
1, 8414, Note_on_c, 0, 80, 92
1, 8419, Note_on_c, 0, 68, 94
1, 8422, Note_on_c, 0, 72, 83
1, 8426, Note_on_c, 0, 53, 92
1, 8428, Note_on_c, 0, 77, 83
1, 8432, Note_on_c, 0, 48, 77
1, 8435, Note_on_c, 0, 44, 68
1, 8438, Note_on_c, 0, 41, 79
1, 9255, Note_off_c, 0, 80, 61
1, 9260, Note_off_c, 0, 77, 58
1, 9265, Note_off_c, 0, 68, 61
1, 9269, Note_off_c, 0, 48, 34
1, 9269, Note_off_c, 0, 53, 60
1, 9271, Note_off_c, 0, 72, 62
1, 9315, Note_off_c, 0, 41, 64
1, 9326, Note_off_c, 0, 44, 42
1, 9636, Note_on_c, 0, 68, 63
1, 9644, Note_on_c, 0, 44, 51
1, 9702, Note_off_c, 0, 44, 57
1, 9704, Note_off_c, 0, 68, 60
1, 9779, Note_on_c, 0, 41, 55
1, 9782, Note_on_c, 0, 65, 66
1, 9827, Note_off_c, 0, 65, 63
1, 9849, Note_off_c, 0, 41, 63
1, 10270, Note_on_c, 0, 67, 57
1, 10275, Note_on_c, 0, 43, 48
1, 10345, Note_off_c, 0, 67, 62
1, 10358, Note_off_c, 0, 43, 61
1, 10812, Note_on_c, 0, 60, 48
1, 10828, Note_on_c, 0, 48, 40
1, 10923, Note_off_c, 0, 48, 60
1, 10975, Note_off_c, 0, 60, 60
1, 11372, Note_on_c, 0, 43, 44
1, 11490, Note_off_c, 0, 43, 56
1, 11989, Note_on_c, 0, 36, 27
1, 12207, Note_off_c, 0, 36, 50
1, 12606, Note_on_c, 0, 55, 54
1, 12636, Note_off_c, 0, 55, 58
1, 12725, Note_on_c, 0, 60, 56
1, 12777, Note_off_c, 0, 60, 58
1, 12837, Note_on_c, 0, 63, 65
1, 12870, Note_off_c, 0, 63, 68
1, 12962, Note_on_c, 0, 67, 57
1, 13002, Note_off_c, 0, 67, 60
1, 13065, Note_on_c, 0, 72, 59
1, 13102, Note_off_c, 0, 72, 62
1, 13184, Note_on_c, 0, 75, 58
1, 13230, Note_off_c, 0, 75, 59
1, 13299, Note_on_c, 0, 79, 58
1, 13321, Note_off_c, 0, 79, 63
1, 13407, Note_on_c, 0, 79, 67
1, 13441, Note_off_c, 0, 79, 58
1, 13529, Note_on_c, 0, 67, 45
1, 13534, Note_on_c, 0, 63, 45
1, 13534, Note_on_c, 0, 79, 72
1, 13536, Note_on_c, 0, 60, 49
1, 13566, Note_off_c, 0, 79, 59
1, 13566, Note_off_c, 0, 67, 55
1, 13580, Note_off_c, 0, 60, 63
1, 13581, Note_off_c, 0, 63, 63
1, 13644, Note_on_c, 0, 79, 71
1, 13682, Note_off_c, 0, 79, 61
1, 13753, Note_on_c, 0, 79, 68
1, 13788, Note_off_c, 0, 79, 58
1, 13855, Note_on_c, 0, 79, 73
1, 13890, Note_off_c, 0, 79, 60
1, 13974, Note_on_c, 0, 79, 76
1, 13989, Note_on_c, 0, 62, 56
1, 13992, Note_on_c, 0, 67, 58
1, 13995, Note_on_c, 0, 59, 56
1, 14023, Note_off_c, 0, 67, 65
1, 14024, Note_off_c, 0, 62, 63
1, 14025, Note_off_c, 0, 79, 61
1, 14034, Note_off_c, 0, 59, 64
1, 14081, Note_on_c, 0, 74, 71
1, 14125, Note_off_c, 0, 74, 64
1, 14192, Note_on_c, 0, 71, 71
1, 14239, Note_off_c, 0, 71, 62
1, 14301, Note_on_c, 0, 67, 62
1, 14332, Note_off_c, 0, 67, 66
1, 14421, Note_on_c, 0, 62, 47
1, 14424, Note_on_c, 0, 64, 51
1, 14445, Note_off_c, 0, 64, 58
1, 14454, Note_off_c, 0, 62, 56
1, 14508, Note_on_c, 0, 59, 66
1, 14542, Note_off_c, 0, 59, 60
1, 14616, Note_on_c, 0, 55, 61
1, 14648, Note_off_c, 0, 55, 64
1, 14726, Note_on_c, 0, 55, 62
1, 14765, Note_off_c, 0, 55, 61
1, 14830, Note_on_c, 0, 55, 68
1, 14847, Note_on_c, 0, 47, 66
1, 14850, Note_on_c, 0, 50, 59
1, 14867, Note_off_c, 0, 55, 63
1, 14879, Note_off_c, 0, 50, 65
1, 14883, Note_off_c, 0, 47, 65
1, 14943, Note_on_c, 0, 55, 65
1, 14973, Note_off_c, 0, 55, 67
1, 15050, Note_on_c, 0, 55, 71
1, 15094, Note_off_c, 0, 55, 63
1, 15142, Note_on_c, 0, 55, 62
1, 15184, Note_off_c, 0, 55, 66
1, 15251, Note_on_c, 0, 52, 60
1, 15253, Note_on_c, 0, 49, 65
1, 15253, Note_on_c, 0, 46, 65
1, 15256, Note_on_c, 0, 55, 69
1, 15281, Note_off_c, 0, 52, 67
1, 15282, Note_off_c, 0, 46, 64
1, 15291, Note_off_c, 0, 49, 63
1, 15320, Note_off_c, 0, 55, 61
1, 15359, Note_on_c, 0, 58, 71
1, 15413, Note_off_c, 0, 58, 58
1, 15467, Note_on_c, 0, 61, 75
1, 15506, Note_off_c, 0, 61, 62
1, 15568, Note_on_c, 0, 64, 74
1, 15610, Note_off_c, 0, 64, 58
1, 15666, Note_on_c, 0, 67, 70
1, 15711, Note_off_c, 0, 67, 60
1, 15780, Note_on_c, 0, 70, 74
1, 15834, Note_off_c, 0, 70, 61
1, 15926, Note_on_c, 0, 74, 20
1, 15963, Note_off_c, 0, 74, 39
1, 15982, Note_on_c, 0, 76, 71
1, 16010, Note_off_c, 0, 76, 66
1, 16097, Note_on_c, 0, 76, 72
1, 16102, Note_on_c, 0, 58, 66
1, 16102, Note_on_c, 0, 67, 59
1, 16116, Note_on_c, 0, 61, 50
1, 16123, Note_off_c, 0, 76, 66
1, 16132, Note_off_c, 0, 67, 66
1, 16145, Note_off_c, 0, 58, 62
1, 16148, Note_off_c, 0, 61, 63
1, 16198, Note_on_c, 0, 76, 77
1, 16228, Note_off_c, 0, 76, 65
1, 16296, Note_on_c, 0, 76, 72
1, 16333, Note_off_c, 0, 76, 66
1, 16384, Note_on_c, 0, 76, 72
1, 16428, Note_off_c, 0, 76, 65
1, 16495, Note_on_c, 0, 77, 87
1, 16502, Note_on_c, 0, 57, 66
1, 16503, Note_on_c, 0, 60, 62
1, 16508, Note_on_c, 0, 65, 62
1, 16531, Note_off_c, 0, 60, 66
1, 16535, Note_off_c, 0, 65, 68
1, 16548, Note_off_c, 0, 57, 61
1, 16551, Note_off_c, 0, 77, 62
1, 16602, Note_on_c, 0, 72, 80
1, 16648, Note_off_c, 0, 72, 62
1, 16703, Note_on_c, 0, 69, 75
1, 16740, Note_off_c, 0, 69, 67
1, 16800, Note_on_c, 0, 65, 65
1, 16808, Control_c, 0, 64, 16
1, 16823, Control_c, 0, 64, 23
1, 16832, Note_off_c, 0, 65, 67
1, 16837, Control_c, 0, 64, 26
1, 16852, Control_c, 0, 64, 28
1, 16867, Control_c, 0, 64, 30
1, 16895, Note_on_c, 0, 60, 72
1, 16941, Control_c, 0, 64, 29
1, 16949, Note_off_c, 0, 60, 60
1, 16955, Control_c, 0, 64, 28
1, 16970, Control_c, 0, 64, 26
1, 16985, Control_c, 0, 64, 25
1, 16989, Note_on_c, 0, 57, 75
1, 17000, Control_c, 0, 64, 24
1, 17015, Control_c, 0, 64, 21
1, 17029, Note_off_c, 0, 57, 59
1, 17029, Control_c, 0, 64, 20
1, 17044, Control_c, 0, 64, 16
1, 17059, Control_c, 0, 64, 13
1, 17089, Control_c, 0, 64, 10
1, 17092, Note_on_c, 0, 53, 70
1, 17104, Control_c, 0, 64, 0
1, 17125, Note_off_c, 0, 53, 67
1, 17196, Note_on_c, 0, 53, 73
1, 17245, Note_off_c, 0, 53, 63
1, 17296, Note_on_c, 0, 48, 71
1, 17301, Note_on_c, 0, 45, 61
1, 17302, Note_on_c, 0, 53, 67
1, 17329, Note_off_c, 0, 48, 65
1, 17331, Note_off_c, 0, 45, 65
1, 17336, Note_off_c, 0, 53, 67
1, 17407, Note_on_c, 0, 53, 74
1, 17446, Note_off_c, 0, 53, 67
1, 17482, Control_c, 0, 64, 10
1, 17507, Note_on_c, 0, 53, 72
1, 17512, Control_c, 0, 64, 13
1, 17542, Control_c, 0, 64, 16
1, 17560, Note_off_c, 0, 53, 64
1, 17593, Poly_aftertouch_c, 0, 53, 0
1, 17602, Note_on_c, 0, 53, 60
1, 17616, Control_c, 0, 64, 13
1, 17631, Control_c, 0, 64, 0
1, 17646, Note_off_c, 0, 53, 62
1, 17697, Note_on_c, 0, 48, 78
1, 17700, Note_on_c, 0, 44, 75
1, 17709, Note_on_c, 0, 54, 68
1, 17735, Note_off_c, 0, 48, 68
1, 17739, Note_off_c, 0, 44, 65
1, 17757, Note_off_c, 0, 54, 64
1, 17817, Note_on_c, 0, 60, 72
1, 17879, Note_off_c, 0, 60, 58
1, 17921, Note_on_c, 0, 63, 68
1, 18007, Note_off_c, 0, 63, 63
1, 18028, Note_on_c, 0, 66, 70
1, 18066, Note_off_c, 0, 66, 67
1, 18133, Note_on_c, 0, 72, 71
1, 18204, Note_off_c, 0, 72, 60
1, 18231, Note_on_c, 0, 75, 71
1, 18279, Note_off_c, 0, 75, 55
1, 18340, Note_on_c, 0, 78, 69
1, 18370, Note_off_c, 0, 78, 61
1, 18439, Note_on_c, 0, 78, 71
1, 18473, Note_off_c, 0, 78, 56
1, 18526, Note_on_c, 0, 66, 66
1, 18539, Note_on_c, 0, 78, 74
1, 18547, Note_on_c, 0, 57, 39
1, 18554, Note_on_c, 0, 60, 50
1, 18556, Note_on_c, 0, 63, 46
1, 18561, Note_off_c, 0, 66, 64
1, 18575, Note_off_c, 0, 78, 59
1, 18577, Note_off_c, 0, 57, 55
1, 18579, Note_off_c, 0, 60, 62
1, 18581, Note_off_c, 0, 63, 57
1, 18639, Note_on_c, 0, 78, 68
1, 18678, Note_off_c, 0, 78, 59
1, 18749, Note_on_c, 0, 78, 59
1, 18783, Note_off_c, 0, 78, 58
1, 18846, Note_on_c, 0, 78, 70
1, 18889, Note_off_c, 0, 78, 60
1, 18942, Note_on_c, 0, 67, 68
1, 18947, Note_on_c, 0, 79, 76
1, 18951, Note_on_c, 0, 60, 60
1, 18952, Note_on_c, 0, 63, 60
1, 18955, Note_on_c, 0, 55, 52
1, 18965, Control_c, 0, 64, 10
1, 18970, Note_off_c, 0, 67, 68
1, 18982, Note_off_c, 0, 63, 66
1, 18986, Note_off_c, 0, 60, 63
1, 18999, Note_off_c, 0, 55, 64
1, 19009, Note_off_c, 0, 79, 59
1, 19051, Note_on_c, 0, 75, 73
1, 19107, Note_off_c, 0, 75, 64
1, 19113, Control_c, 0, 64, 0
1, 19143, Note_on_c, 0, 72, 76
1, 19198, Note_off_c, 0, 72, 65
1, 19240, Note_on_c, 0, 67, 76
1, 19247, Control_c, 0, 64, 10
1, 19292, Control_c, 0, 64, 13
1, 19306, Control_c, 0, 64, 16
1, 19321, Control_c, 0, 64, 24
1, 19323, Note_off_c, 0, 67, 52
1, 19329, Note_on_c, 0, 65, 88
1, 19334, Note_on_c, 0, 60, 74
1, 19336, Control_c, 0, 64, 30
1, 19337, Note_on_c, 0, 56, 71
1, 19340, Note_on_c, 0, 68, 77
1, 19340, Note_on_c, 0, 53, 72
1, 19350, Control_c, 0, 64, 34
1, 19365, Control_c, 0, 64, 36
1, 19402, Note_off_c, 0, 68, 64
1, 19410, Control_c, 0, 64, 35
1, 19424, Control_c, 0, 64, 34
1, 19439, Control_c, 0, 64, 30
1, 19444, Note_on_c, 0, 72, 76
1, 19454, Control_c, 0, 64, 25
1, 19476, Control_c, 0, 64, 21
1, 19491, Control_c, 0, 64, 10
1, 19506, Control_c, 0, 64, 0
1, 19515, Note_off_c, 0, 72, 59
1, 19541, Note_on_c, 0, 77, 77
1, 19633, Note_off_c, 0, 77, 59
1, 19648, Note_on_c, 0, 80, 75
1, 19654, Control_c, 0, 64, 13
1, 19669, Control_c, 0, 64, 16
1, 19687, Note_off_c, 0, 80, 66
1, 19698, Control_c, 0, 64, 18
1, 19743, Note_on_c, 0, 84, 82
1, 19743, Control_c, 0, 64, 16
1, 19759, Control_c, 0, 64, 13
1, 19773, Control_c, 0, 64, 10
1, 19816, Note_off_c, 0, 84, 56
1, 19833, Control_c, 0, 64, 13
1, 19836, Note_on_c, 0, 89, 77
1, 19847, Control_c, 0, 64, 16
1, 19862, Control_c, 0, 64, 20
1, 19877, Control_c, 0, 64, 24
1, 19892, Control_c, 0, 64, 27
1, 19906, Control_c, 0, 64, 29
1, 19910, Note_off_c, 0, 53, 56
1, 19920, Note_off_c, 0, 60, 59
1, 19921, Note_off_c, 0, 89, 63
1, 19921, Control_c, 0, 64, 30
1, 19932, Note_off_c, 0, 65, 56
1, 19936, Note_on_c, 0, 92, 83
1, 19936, Control_c, 0, 64, 31
1, 19937, Note_off_c, 0, 56, 36
1, 20010, Control_c, 0, 64, 32
1, 20018, Note_off_c, 0, 92, 61
1, 20026, Note_on_c, 0, 89, 80
1, 20082, Note_off_c, 0, 89, 64
1, 20122, Note_on_c, 0, 84, 70
1, 20129, Control_c, 0, 64, 33
1, 20144, Control_c, 0, 64, 35
1, 20159, Control_c, 0, 64, 39
1, 20161, Note_off_c, 0, 84, 65
1, 20173, Control_c, 0, 64, 42
1, 20188, Control_c, 0, 64, 44
1, 20203, Control_c, 0, 64, 45
1, 20225, Control_c, 0, 64, 45
1, 20228, Note_on_c, 0, 80, 69
1, 20284, Control_c, 0, 64, 45
1, 20299, Control_c, 0, 64, 44
1, 20308, Note_off_c, 0, 80, 60
1, 20316, Note_on_c, 0, 77, 71
1, 20329, Control_c, 0, 64, 43
1, 20366, Note_off_c, 0, 77, 61
1, 20388, Control_c, 0, 64, 44
1, 20403, Control_c, 0, 64, 45
1, 20406, Note_on_c, 0, 72, 68
1, 20418, Control_c, 0, 64, 47
1, 20433, Control_c, 0, 64, 49
1, 20447, Control_c, 0, 64, 52
1, 20452, Note_off_c, 0, 72, 59
1, 20462, Control_c, 0, 64, 54
1, 20477, Control_c, 0, 64, 56
1, 20492, Control_c, 0, 64, 57
1, 20506, Control_c, 0, 64, 58
1, 20508, Note_on_c, 0, 68, 69
1, 20567, Control_c, 0, 64, 57
1, 20582, Control_c, 0, 64, 56
1, 20594, Note_off_c, 0, 68, 60
1, 20596, Control_c, 0, 64, 55
1, 20604, Note_on_c, 0, 65, 63
1, 20611, Control_c, 0, 64, 53
1, 20627, Control_c, 0, 64, 51
1, 20642, Control_c, 0, 64, 48
1, 20651, Note_off_c, 0, 65, 63
1, 20657, Control_c, 0, 64, 46
1, 20671, Control_c, 0, 64, 43
1, 20686, Control_c, 0, 64, 42
1, 20693, Note_on_c, 0, 60, 59
1, 20701, Control_c, 0, 64, 41
1, 20716, Control_c, 0, 64, 40
1, 20730, Control_c, 0, 64, 39
1, 20733, Note_off_c, 0, 60, 57
1, 20745, Control_c, 0, 64, 38
1, 20760, Control_c, 0, 64, 37
1, 20775, Control_c, 0, 64, 36
1, 20790, Note_on_c, 0, 41, 56
1, 20790, Control_c, 0, 64, 36
1, 20794, Note_on_c, 0, 56, 57
1, 20804, Control_c, 0, 64, 35
1, 20819, Control_c, 0, 64, 34
1, 20834, Control_c, 0, 64, 33
1, 20845, Note_off_c, 0, 41, 64
1, 20849, Control_c, 0, 64, 30
1, 20864, Control_c, 0, 64, 25
1, 20867, Note_off_c, 0, 56, 61
1, 20878, Control_c, 0, 64, 18
1, 20892, Note_on_c, 0, 43, 69
1, 20893, Control_c, 0, 64, 0
1, 20895, Note_on_c, 0, 55, 64
1, 20930, Note_off_c, 0, 43, 64
1, 20948, Note_off_c, 0, 55, 60
1, 21001, Note_on_c, 0, 59, 55
1, 21060, Note_off_c, 0, 59, 58
1, 21108, Note_on_c, 0, 62, 59
1, 21160, Note_off_c, 0, 62, 57
1, 21203, Note_on_c, 0, 67, 65
1, 21272, Note_off_c, 0, 67, 58
1, 21298, Note_on_c, 0, 48, 63
1, 21322, Note_on_c, 0, 63, 56
1, 21331, Note_off_c, 0, 48, 66
1, 21383, Note_off_c, 0, 63, 53
1, 21412, Note_on_c, 0, 60, 57
1, 21452, Note_off_c, 0, 60, 60
1, 21522, Note_on_c, 0, 55, 62
1, 21556, Note_off_c, 0, 55, 64
1, 21620, Note_on_c, 0, 51, 62
1, 21662, Note_off_c, 0, 51, 63
1, 21732, Note_on_c, 0, 55, 61
1, 21775, Note_off_c, 0, 55, 63
1, 21829, Note_on_c, 0, 51, 62
1, 21875, Note_off_c, 0, 51, 62
1, 21935, Note_on_c, 0, 48, 66
1, 21975, Note_off_c, 0, 48, 64
1, 22032, Note_on_c, 0, 43, 65
1, 22102, Note_off_c, 0, 43, 59
1, 22142, Note_on_c, 0, 48, 62
1, 22189, Note_off_c, 0, 48, 64
1, 22228, Note_on_c, 0, 51, 57
1, 22302, Note_off_c, 0, 51, 59
1, 22328, Note_on_c, 0, 55, 68
1, 22378, Note_off_c, 0, 55, 62
1, 22432, Note_on_c, 0, 51, 67
1, 22505, Note_off_c, 0, 51, 62
1, 22561, Note_on_c, 0, 48, 68
1, 22635, Note_off_c, 0, 48, 64
1, 22660, Note_on_c, 0, 51, 69
1, 22717, Note_off_c, 0, 51, 64
1, 22770, Note_on_c, 0, 55, 63
1, 22815, Note_off_c, 0, 55, 65
1, 22845, Note_on_c, 0, 60, 69
1, 22883, Note_off_c, 0, 60, 60
1, 22900, Control_c, 0, 64, 13
1, 22915, Control_c, 0, 64, 18
1, 22930, Control_c, 0, 64, 23
1, 22946, Control_c, 0, 64, 26
1, 22955, Note_on_c, 0, 63, 72
1, 22961, Control_c, 0, 64, 28
1, 22976, Control_c, 0, 64, 31
1, 22990, Control_c, 0, 64, 32
1, 23005, Control_c, 0, 64, 33
1, 23020, Note_off_c, 0, 63, 64
1, 23061, Note_on_c, 0, 67, 66
1, 23065, Control_c, 0, 64, 32
1, 23079, Control_c, 0, 64, 31
1, 23094, Control_c, 0, 64, 29
1, 23102, Note_off_c, 0, 67, 61
1, 23109, Control_c, 0, 64, 28
1, 23123, Control_c, 0, 64, 27
1, 23138, Control_c, 0, 64, 25
1, 23153, Control_c, 0, 64, 23
1, 23167, Note_on_c, 0, 67, 63
1, 23168, Control_c, 0, 64, 20
1, 23183, Control_c, 0, 64, 16
1, 23197, Control_c, 0, 64, 13
1, 23203, Note_off_c, 0, 67, 63
1, 23212, Control_c, 0, 64, 10
1, 23235, Control_c, 0, 64, 0
1, 23264, Note_on_c, 0, 67, 60
1, 23300, Note_off_c, 0, 67, 64
1, 23363, Note_on_c, 0, 72, 70
1, 23365, Note_on_c, 0, 75, 72
1, 23368, Control_c, 0, 64, 13
1, 23376, Note_on_c, 0, 67, 70
1, 23383, Control_c, 0, 64, 18
1, 23388, Note_off_c, 0, 72, 70
1, 23397, Note_off_c, 0, 75, 63
1, 23397, Control_c, 0, 64, 21
1, 23401, Note_off_c, 0, 67, 67
1, 23412, Control_c, 0, 64, 24
1, 23427, Control_c, 0, 64, 25
1, 23441, Control_c, 0, 64, 27
1, 23470, Note_on_c, 0, 67, 73
1, 23501, Control_c, 0, 64, 26
1, 23506, Note_off_c, 0, 67, 61
1, 23516, Control_c, 0, 64, 25
1, 23531, Control_c, 0, 64, 24
1, 23575, Note_on_c, 0, 67, 74
1, 23618, Note_off_c, 0, 67, 65
1, 23635, Control_c, 0, 64, 25
1, 23649, Control_c, 0, 64, 26
1, 23664, Control_c, 0, 64, 27
1, 23665, Note_on_c, 0, 67, 60
1, 23679, Control_c, 0, 64, 28
1, 23694, Control_c, 0, 64, 29
1, 23709, Note_off_c, 0, 67, 61
1, 23709, Control_c, 0, 64, 30
1, 23723, Control_c, 0, 64, 32
1, 23739, Control_c, 0, 64, 34
1, 23754, Control_c, 0, 64, 36
1, 23769, Control_c, 0, 64, 38
1, 23772, Note_on_c, 0, 67, 60
1, 23776, Note_on_c, 0, 74, 76
1, 23781, Note_on_c, 0, 71, 66
1, 23784, Control_c, 0, 64, 39
1, 23799, Control_c, 0, 64, 39
1, 23808, Note_off_c, 0, 71, 67
1, 23811, Note_off_c, 0, 67, 62
1, 23813, Control_c, 0, 64, 40
1, 23819, Note_off_c, 0, 74, 63
1, 23858, Control_c, 0, 64, 39
1, 23864, Note_on_c, 0, 62, 64
1, 23873, Control_c, 0, 64, 39
1, 23887, Control_c, 0, 64, 38
1, 23902, Control_c, 0, 64, 37
1, 23915, Note_off_c, 0, 62, 54
1, 23917, Control_c, 0, 64, 36
1, 23932, Control_c, 0, 64, 36
1, 23946, Control_c, 0, 64, 35
1, 23969, Control_c, 0, 64, 34
1, 23974, Note_on_c, 0, 59, 68
1, 24023, Note_off_c, 0, 59, 61
1, 24028, Control_c, 0, 64, 34
1, 24085, Note_on_c, 0, 55, 63
1, 24117, Control_c, 0, 64, 33
1, 24127, Note_off_c, 0, 55, 60
1, 24132, Control_c, 0, 64, 31
1, 24146, Control_c, 0, 64, 30
1, 24183, Note_on_c, 0, 50, 63
1, 24228, Note_off_c, 0, 50, 64
1, 24280, Note_on_c, 0, 47, 69
1, 24323, Note_off_c, 0, 47, 67
1, 24381, Note_on_c, 0, 47, 72
1, 24413, Control_c, 0, 64, 29
1, 24430, Note_off_c, 0, 47, 65
1, 24472, Note_on_c, 0, 47, 61
1, 24512, Note_off_c, 0, 47, 67
1, 24572, Note_on_c, 0, 47, 72
1, 24576, Note_on_c, 0, 74, 76
1, 24580, Note_on_c, 0, 67, 71
1, 24604, Note_off_c, 0, 47, 69
1, 24605, Note_off_c, 0, 67, 68
1, 24621, Note_off_c, 0, 74, 64
1, 24671, Note_on_c, 0, 47, 72
1, 24707, Note_off_c, 0, 47, 66
1, 24710, Control_c, 0, 64, 30
1, 24732, Control_c, 0, 64, 31
1, 24747, Control_c, 0, 64, 32
1, 24766, Note_on_c, 0, 47, 67
1, 24818, Note_off_c, 0, 47, 57
1, 24836, Control_c, 0, 64, 31
1, 24861, Note_on_c, 0, 47, 61
1, 24904, Note_off_c, 0, 47, 67
1, 24955, Control_c, 0, 64, 32
1, 24966, Note_on_c, 0, 76, 76
1, 24970, Note_on_c, 0, 67, 73
1, 24974, Note_on_c, 0, 46, 74
1, 24979, Note_on_c, 0, 73, 59
1, 24995, Note_off_c, 0, 67, 68
1, 24999, Control_c, 0, 64, 33
1, 25008, Note_off_c, 0, 76, 66
1, 25009, Note_off_c, 0, 73, 67
1, 25014, Control_c, 0, 64, 34
1, 25055, Note_off_c, 0, 46, 53
1, 25075, Note_on_c, 0, 49, 69
1, 25132, Control_c, 0, 64, 33
1, 25134, Note_off_c, 0, 49, 63
1, 25156, Note_on_c, 0, 52, 70
1, 25221, Control_c, 0, 64, 32
1, 25227, Note_off_c, 0, 52, 65
1, 25261, Note_on_c, 0, 55, 65
1, 25307, Note_off_c, 0, 55, 65
1, 25340, Control_c, 0, 64, 33
1, 25355, Control_c, 0, 64, 34
1, 25363, Note_on_c, 0, 58, 64
1, 25370, Control_c, 0, 64, 34
1, 25385, Control_c, 0, 64, 35
1, 25400, Control_c, 0, 64, 36
1, 25437, Note_off_c, 0, 58, 64
1, 25459, Note_on_c, 0, 61, 62
1, 25511, Control_c, 0, 64, 35
1, 25525, Control_c, 0, 64, 34
1, 25540, Control_c, 0, 64, 34
1, 25555, Note_off_c, 0, 61, 62
1, 25563, Note_on_c, 0, 64, 65
1, 25570, Control_c, 0, 64, 33
1, 25585, Control_c, 0, 64, 32
1, 25602, Note_off_c, 0, 64, 63
1, 25614, Control_c, 0, 64, 31
1, 25629, Control_c, 0, 64, 29
1, 25644, Control_c, 0, 64, 27
1, 25650, Note_on_c, 0, 64, 64
1, 25659, Control_c, 0, 64, 24
1, 25674, Control_c, 0, 64, 20
1, 25689, Control_c, 0, 64, 10
1, 25704, Control_c, 0, 64, 0
1, 25710, Note_off_c, 0, 64, 62
1, 25744, Note_on_c, 0, 73, 79
1, 25746, Note_on_c, 0, 67, 71
1, 25748, Poly_aftertouch_c, 0, 64, 0
1, 25754, Note_on_c, 0, 64, 62
1, 25772, Note_off_c, 0, 67, 68
1, 25786, Note_off_c, 0, 73, 63
1, 25791, Note_off_c, 0, 64, 65
1, 25846, Note_on_c, 0, 64, 68
1, 25899, Note_off_c, 0, 64, 64
1, 25944, Note_on_c, 0, 64, 68
1, 26002, Note_off_c, 0, 64, 65
1, 26035, Note_on_c, 0, 64, 60
1, 26073, Control_c, 0, 64, 10
1, 26097, Note_off_c, 0, 64, 64
1, 26103, Control_c, 0, 64, 13
1, 26118, Control_c, 0, 64, 16
1, 26133, Control_c, 0, 64, 21
1, 26136, Note_on_c, 0, 72, 80
1, 26142, Note_on_c, 0, 69, 70
1, 26146, Note_on_c, 0, 65, 74
1, 26148, Control_c, 0, 64, 24
1, 26163, Control_c, 0, 64, 27
1, 26167, Note_off_c, 0, 69, 71
1, 26178, Control_c, 0, 64, 29
1, 26179, Note_off_c, 0, 72, 64
1, 26188, Note_off_c, 0, 65, 66
1, 26193, Control_c, 0, 64, 30
1, 26242, Note_on_c, 0, 60, 69
1, 26245, Control_c, 0, 64, 29
1, 26260, Control_c, 0, 64, 28
1, 26275, Control_c, 0, 64, 26
1, 26289, Control_c, 0, 64, 24
1, 26304, Control_c, 0, 64, 23
1, 26307, Note_off_c, 0, 60, 60
1, 26319, Control_c, 0, 64, 21
1, 26342, Note_on_c, 0, 57, 71
1, 26348, Control_c, 0, 64, 20
1, 26399, Note_off_c, 0, 57, 61
1, 26449, Note_on_c, 0, 53, 73
1, 26452, Control_c, 0, 64, 21
1, 26495, Note_off_c, 0, 53, 65
1, 26543, Note_on_c, 0, 48, 71
1, 26610, Note_off_c, 0, 48, 63
1, 26646, Note_on_c, 0, 45, 64
1, 26691, Note_off_c, 0, 45, 66
1, 26742, Note_on_c, 0, 45, 62
1, 26749, Control_c, 0, 64, 23
1, 26792, Note_off_c, 0, 45, 64
1, 26823, Poly_aftertouch_c, 0, 45, 0
1, 26834, Note_on_c, 0, 45, 54
1, 26873, Note_off_c, 0, 45, 66
1, 26936, Note_on_c, 0, 45, 68
1, 26938, Note_on_c, 0, 72, 76
1, 26940, Note_on_c, 0, 65, 74
1, 26970, Note_off_c, 0, 45, 66
1, 26971, Note_off_c, 0, 65, 70
1, 26979, Note_off_c, 0, 72, 66
1, 27024, Control_c, 0, 64, 24
1, 27033, Note_on_c, 0, 45, 70
1, 27039, Control_c, 0, 64, 25
1, 27054, Control_c, 0, 64, 26
1, 27075, Note_off_c, 0, 45, 67
1, 27113, Control_c, 0, 64, 27
1, 27125, Note_on_c, 0, 45, 59
1, 27128, Control_c, 0, 64, 28
1, 27158, Control_c, 0, 64, 29
1, 27175, Note_off_c, 0, 45, 61
1, 27216, Note_on_c, 0, 45, 55
1, 27232, Control_c, 0, 64, 30
1, 27246, Control_c, 0, 64, 31
1, 27247, Note_off_c, 0, 45, 66
1, 27261, Control_c, 0, 64, 32
1, 27276, Control_c, 0, 64, 33
1, 27290, Control_c, 0, 64, 34
1, 27320, Control_c, 0, 64, 34
1, 27321, Note_on_c, 0, 72, 79
1, 27327, Note_on_c, 0, 66, 79
1, 27333, Note_on_c, 0, 44, 62
1, 27359, Note_off_c, 0, 66, 64
1, 27364, Control_c, 0, 64, 35
1, 27367, Note_off_c, 0, 72, 66
1, 27379, Control_c, 0, 64, 36
1, 27394, Control_c, 0, 64, 37
1, 27407, Note_off_c, 0, 44, 64
1, 27409, Control_c, 0, 64, 38
1, 27421, Note_on_c, 0, 48, 70
1, 27424, Control_c, 0, 64, 39
1, 27438, Control_c, 0, 64, 41
1, 27453, Control_c, 0, 64, 42
1, 27468, Control_c, 0, 64, 43
1, 27482, Control_c, 0, 64, 43
1, 27486, Note_off_c, 0, 48, 63
1, 27497, Control_c, 0, 64, 44
1, 27514, Note_on_c, 0, 51, 69
1, 27527, Control_c, 0, 64, 44
1, 27542, Control_c, 0, 64, 45
1, 27550, Note_off_c, 0, 51, 57
1, 27556, Control_c, 0, 64, 45
1, 27571, Control_c, 0, 64, 46
1, 27615, Note_on_c, 0, 56, 63
1, 27689, Control_c, 0, 64, 45
1, 27704, Note_off_c, 0, 56, 63
1, 27704, Control_c, 0, 64, 44
1, 27705, Note_on_c, 0, 60, 59
1, 27727, Control_c, 0, 64, 43
1, 27743, Control_c, 0, 64, 43
1, 27758, Control_c, 0, 64, 42
1, 27773, Control_c, 0, 64, 41
1, 27787, Control_c, 0, 64, 39
1, 27796, Note_off_c, 0, 60, 62
1, 27802, Control_c, 0, 64, 39
1, 27815, Note_on_c, 0, 63, 74
1, 27832, Control_c, 0, 64, 38
1, 27857, Note_off_c, 0, 63, 55
1, 27914, Note_on_c, 0, 66, 72
1, 27920, Control_c, 0, 64, 38
1, 27935, Control_c, 0, 64, 37
1, 27971, Note_off_c, 0, 66, 65
1, 28009, Control_c, 0, 64, 36
1, 28023, Note_on_c, 0, 66, 63
1, 28024, Control_c, 0, 64, 36
1, 28038, Control_c, 0, 64, 35
1, 28053, Control_c, 0, 64, 34
1, 28059, Note_off_c, 0, 66, 68
1, 28068, Control_c, 0, 64, 33
1, 28112, Note_on_c, 0, 75, 76
1, 28114, Note_on_c, 0, 66, 77
1, 28114, Note_on_c, 0, 72, 67
1, 28132, Note_off_c, 0, 72, 67
1, 28150, Note_off_c, 0, 75, 63
1, 28156, Note_off_c, 0, 66, 67
1, 28219, Note_on_c, 0, 66, 58
1, 28248, Note_off_c, 0, 66, 67
1, 28276, Control_c, 0, 64, 32
1, 28303, Note_on_c, 0, 66, 75
1, 28305, Control_c, 0, 64, 31
1, 28320, Control_c, 0, 64, 29
1, 28335, Control_c, 0, 64, 26
1, 28345, Note_off_c, 0, 66, 66
1, 28350, Control_c, 0, 64, 24
1, 28365, Control_c, 0, 64, 23
1, 28386, Note_on_c, 0, 66, 62
1, 28474, Note_off_c, 0, 66, 65
1, 28499, Note_on_c, 0, 74, 85
1, 28500, Note_on_c, 0, 67, 77
1, 28504, Note_on_c, 0, 71, 79
1, 28525, Note_off_c, 0, 71, 68
1, 28545, Note_off_c, 0, 74, 66
1, 28547, Note_off_c, 0, 67, 60
1, 28565, Control_c, 0, 64, 24
1, 28595, Control_c, 0, 64, 25
1, 28598, Note_on_c, 0, 62, 70
1, 28658, Note_off_c, 0, 62, 62
1, 28669, Control_c, 0, 64, 26
1, 28686, Note_on_c, 0, 59, 68
1, 28740, Note_off_c, 0, 59, 60
1, 28768, Note_on_c, 0, 55, 70
1, 28828, Note_off_c, 0, 55, 62
1, 28832, Control_c, 0, 64, 27
1, 28871, Note_on_c, 0, 77, 91
1, 28876, Note_on_c, 0, 72, 86
1, 28890, Note_on_c, 0, 56, 71
1, 28906, Control_c, 0, 64, 28
1, 28921, Control_c, 0, 64, 30
1, 28935, Control_c, 0, 64, 31
1, 28950, Control_c, 0, 64, 32
1, 28962, Note_off_c, 0, 56, 63
1, 28965, Control_c, 0, 64, 34
1, 28973, Note_on_c, 0, 60, 67
1, 28980, Control_c, 0, 64, 36
1, 28995, Control_c, 0, 64, 38
1, 29010, Control_c, 0, 64, 40
1, 29024, Note_off_c, 0, 60, 62
1, 29024, Control_c, 0, 64, 42
1, 29039, Control_c, 0, 64, 43
1, 29054, Control_c, 0, 64, 45
1, 29060, Note_on_c, 0, 65, 61
1, 29069, Control_c, 0, 64, 46
1, 29084, Control_c, 0, 64, 46
1, 29099, Control_c, 0, 64, 47
1, 29114, Control_c, 0, 64, 48
1, 29117, Note_off_c, 0, 65, 51
1, 29128, Control_c, 0, 64, 48
1, 29148, Note_on_c, 0, 68, 73
1, 29215, Note_off_c, 0, 68, 64
1, 29254, Note_on_c, 0, 65, 73
1, 29284, Control_c, 0, 64, 48
1, 29296, Note_off_c, 0, 65, 63
1, 29299, Control_c, 0, 64, 47
1, 29314, Control_c, 0, 64, 47
1, 29329, Control_c, 0, 64, 46
1, 29349, Note_on_c, 0, 60, 68
1, 29388, Control_c, 0, 64, 46
1, 29402, Note_off_c, 0, 60, 61
1, 29437, Note_on_c, 0, 56, 67
1, 29495, Note_off_c, 0, 56, 62
1, 29536, Note_on_c, 0, 53, 65
1, 29570, Note_off_c, 0, 53, 64
1, 29626, Note_on_c, 0, 48, 69
1, 29630, Note_off_c, 0, 72, 57
1, 29646, Note_off_c, 0, 77, 56
1, 29685, Note_off_c, 0, 48, 64
1, 29725, Note_on_c, 0, 44, 65
1, 29774, Note_off_c, 0, 44, 63
1, 29818, Control_c, 0, 64, 45
1, 29823, Note_on_c, 0, 41, 69
1, 29875, Note_off_c, 0, 41, 50
1, 29877, Control_c, 0, 64, 45
1, 29892, Control_c, 0, 64, 44
1, 29917, Note_on_c, 0, 36, 63
1, 29922, Control_c, 0, 64, 44
1, 29937, Control_c, 0, 64, 43
1, 29973, Control_c, 0, 64, 43
1, 29986, Note_off_c, 0, 36, 61
1, 30010, Note_on_c, 0, 32, 72
1, 30017, Control_c, 0, 64, 42
1, 30047, Control_c, 0, 64, 41
1, 30062, Control_c, 0, 64, 41
1, 30077, Control_c, 0, 64, 40
1, 30080, Note_off_c, 0, 32, 63
1, 30097, Note_on_c, 0, 36, 69
1, 30137, Control_c, 0, 64, 41
1, 30152, Control_c, 0, 64, 41
1, 30156, Note_off_c, 0, 36, 62
1, 30181, Control_c, 0, 64, 42
1, 30192, Note_on_c, 0, 41, 60
1, 30211, Control_c, 0, 64, 42
1, 30226, Control_c, 0, 64, 43
1, 30256, Note_off_c, 0, 41, 60
1, 30256, Control_c, 0, 64, 43
1, 30271, Control_c, 0, 64, 44
1, 30276, Note_on_c, 0, 77, 71
1, 30286, Note_on_c, 0, 72, 58
1, 30289, Note_on_c, 0, 44, 65
1, 30304, Note_off_c, 0, 72, 64
1, 30313, Note_off_c, 0, 77, 59
1, 30344, Note_off_c, 0, 44, 61
1, 30374, Note_on_c, 0, 79, 80
1, 30377, Note_on_c, 0, 71, 72
1, 30385, Note_on_c, 0, 43, 62
1, 30393, Note_off_c, 0, 79, 70
1, 30393, Note_off_c, 0, 71, 66
1, 30428, Note_off_c, 0, 43, 62
1, 30449, Control_c, 0, 64, 43
1, 30464, Control_c, 0, 64, 43
1, 30476, Note_on_c, 0, 38, 62
1, 30542, Note_off_c, 0, 38, 59
1, 30568, Note_on_c, 0, 35, 69
1, 30621, Note_off_c, 0, 35, 61
1, 30655, Note_on_c, 0, 31, 62
1, 30755, Note_off_c, 0, 31, 63
1, 30757, Note_on_c, 0, 72, 77
1, 30765, Note_on_c, 0, 36, 64
1, 30787, Note_off_c, 0, 72, 59
1, 30834, Note_off_c, 0, 36, 61
1, 30848, Note_on_c, 0, 39, 63
1, 30908, Note_off_c, 0, 39, 62
1, 30951, Note_on_c, 0, 43, 56
1, 30984, Note_off_c, 0, 43, 62
1, 31032, Note_on_c, 0, 48, 61
1, 31093, Note_off_c, 0, 48, 61
1, 31109, Control_c, 0, 64, 42
1, 31129, Note_on_c, 0, 43, 63
1, 31153, Control_c, 0, 64, 42
1, 31209, Note_off_c, 0, 43, 61
1, 31210, Note_on_c, 0, 48, 65
1, 31287, Control_c, 0, 64, 42
1, 31296, Note_off_c, 0, 48, 65
1, 31302, Note_on_c, 0, 51, 66
1, 31331, Control_c, 0, 64, 42
1, 31346, Control_c, 0, 64, 38
1, 31361, Control_c, 0, 64, 34
1, 31375, Note_off_c, 0, 51, 61
1, 31391, Control_c, 0, 64, 39
1, 31392, Note_on_c, 0, 55, 67
1, 31405, Control_c, 0, 64, 48
1, 31420, Control_c, 0, 64, 58
1, 31435, Control_c, 0, 64, 63
1, 31457, Control_c, 0, 64, 65
1, 31471, Note_off_c, 0, 55, 46
1, 31472, Control_c, 0, 64, 67
1, 31487, Control_c, 0, 64, 70
1, 31496, Note_on_c, 0, 51, 65
1, 31502, Control_c, 0, 64, 74
1, 31517, Control_c, 0, 64, 78
1, 31531, Control_c, 0, 64, 82
1, 31546, Control_c, 0, 64, 84
1, 31559, Note_off_c, 0, 51, 62
1, 31561, Control_c, 0, 64, 85
1, 31576, Control_c, 0, 64, 85
1, 31584, Note_on_c, 0, 48, 70
1, 31591, Control_c, 0, 64, 86
1, 31605, Control_c, 0, 64, 86
1, 31616, Note_off_c, 0, 48, 68
1, 31620, Control_c, 0, 64, 87
1, 31635, Control_c, 0, 64, 87
1, 31650, Control_c, 0, 64, 88
1, 31679, Control_c, 0, 64, 89
1, 31690, Note_on_c, 0, 43, 71
1, 31694, Control_c, 0, 64, 89
1, 31709, Control_c, 0, 64, 90
1, 31724, Control_c, 0, 64, 91
1, 31740, Control_c, 0, 64, 91
1, 31750, Note_off_c, 0, 43, 56
1, 31777, Note_on_c, 0, 39, 60
1, 31814, Control_c, 0, 64, 90
1, 31828, Control_c, 0, 64, 88
1, 31843, Control_c, 0, 64, 81
1, 31856, Note_off_c, 0, 39, 51
1, 31857, Control_c, 0, 64, 70
1, 31872, Control_c, 0, 64, 0
1, 31883, Note_on_c, 0, 87, 80
1, 31891, Note_on_c, 0, 36, 61
1, 31931, Control_c, 0, 64, 27
1, 31946, Control_c, 0, 64, 67
1, 31961, Control_c, 0, 64, 78
1, 31973, Note_off_c, 0, 87, 62
1, 31973, Note_on_c, 0, 84, 74
1, 31976, Note_on_c, 0, 39, 69
1, 31976, Control_c, 0, 64, 92
1, 31978, Note_off_c, 0, 36, 63
1, 31990, Control_c, 0, 64, 102
1, 32005, Control_c, 0, 64, 107
1, 32020, Control_c, 0, 64, 109
1, 32026, Note_off_c, 0, 84, 64
1, 32035, Control_c, 0, 64, 113
1, 32050, Control_c, 0, 64, 118
1, 32061, Note_off_c, 0, 39, 62
1, 32065, Control_c, 0, 64, 127
1, 32065, Note_on_c, 0, 43, 58
1, 32068, Note_on_c, 0, 79, 66
1, 32094, Note_off_c, 0, 79, 65
1, 32101, Note_off_c, 0, 43, 61
1, 32130, Note_on_c, 0, 48, 61
1, 32148, Note_on_c, 0, 75, 74
1, 32160, Note_off_c, 0, 48, 66
1, 32235, Note_on_c, 0, 51, 62
1, 32239, Note_off_c, 0, 75, 62
1, 32246, Note_on_c, 0, 72, 75
1, 32293, Note_off_c, 0, 72, 65
1, 32322, Note_off_c, 0, 51, 62
1, 32324, Control_c, 0, 64, 120
1, 32337, Note_on_c, 0, 55, 65
1, 32339, Control_c, 0, 64, 113
1, 32347, Note_on_c, 0, 67, 66
1, 32353, Control_c, 0, 64, 107
1, 32368, Control_c, 0, 64, 101
1, 32383, Control_c, 0, 64, 96
1, 32393, Note_off_c, 0, 67, 60
1, 32398, Control_c, 0, 64, 92
1, 32399, Note_off_c, 0, 55, 64
1, 32412, Control_c, 0, 64, 89
1, 32427, Control_c, 0, 64, 86
1, 32429, Note_on_c, 0, 60, 66
1, 32441, Note_on_c, 0, 63, 75
1, 32442, Control_c, 0, 64, 83
1, 32457, Control_c, 0, 64, 81
1, 32472, Control_c, 0, 64, 77
1, 32479, Note_off_c, 0, 63, 58
1, 32485, Note_off_c, 0, 60, 44
1, 32486, Control_c, 0, 64, 75
1, 32501, Control_c, 0, 64, 72
1, 32516, Control_c, 0, 64, 69
1, 32532, Control_c, 0, 64, 67
1, 32539, Note_on_c, 0, 60, 54
1, 32541, Note_on_c, 0, 63, 75
1, 32547, Control_c, 0, 64, 65
1, 32562, Control_c, 0, 64, 63
1, 32575, Note_off_c, 0, 60, 65
1, 32576, Control_c, 0, 64, 62
1, 32578, Note_off_c, 0, 63, 64
1, 32591, Control_c, 0, 64, 62
1, 32646, Note_on_c, 0, 63, 82
1, 32647, Note_on_c, 0, 60, 71
1, 32679, Note_off_c, 0, 63, 65
1, 32690, Note_off_c, 0, 60, 59
1, 32709, Control_c, 0, 64, 61
1, 32742, Note_on_c, 0, 63, 81
1, 32748, Note_on_c, 0, 60, 61
1, 32754, Control_c, 0, 64, 61
1, 32769, Control_c, 0, 64, 60
1, 32773, Note_off_c, 0, 63, 63
1, 32783, Note_off_c, 0, 60, 60
1, 32839, Note_on_c, 0, 63, 81
1, 32842, Note_on_c, 0, 60, 64
1, 32882, Note_off_c, 0, 63, 56
1, 32917, Control_c, 0, 64, 60
1, 32922, Note_on_c, 0, 63, 75
1, 32932, Control_c, 0, 64, 59
1, 32935, Note_off_c, 0, 60, 0
1, 32954, Control_c, 0, 64, 53
1, 32955, Note_on_c, 0, 60, 44
1, 32969, Control_c, 0, 64, 0
1, 32974, Note_off_c, 0, 63, 64
1, 32979, Note_off_c, 0, 60, 59
1, 33040, Note_on_c, 0, 62, 81
1, 33052, Note_on_c, 0, 59, 67
1, 33073, Control_c, 0, 64, 38
1, 33087, Control_c, 0, 64, 65
1, 33101, Note_off_c, 0, 59, 52
1, 33102, Control_c, 0, 64, 70
1, 33105, Note_off_c, 0, 62, 57
1, 33117, Control_c, 0, 64, 75
1, 33124, Note_on_c, 0, 67, 76
1, 33132, Control_c, 0, 64, 78
1, 33141, Note_on_c, 0, 55, 65
1, 33147, Control_c, 0, 64, 81
1, 33162, Control_c, 0, 64, 83
1, 33176, Control_c, 0, 64, 84
1, 33191, Control_c, 0, 64, 85
1, 33200, Note_off_c, 0, 55, 64
1, 33209, Note_off_c, 0, 67, 61
1, 33222, Note_on_c, 0, 71, 76
1, 33225, Note_on_c, 0, 50, 69
1, 33263, Note_off_c, 0, 50, 66
1, 33269, Note_off_c, 0, 71, 61
1, 33295, Control_c, 0, 64, 84
1, 33309, Control_c, 0, 64, 84
1, 33314, Note_on_c, 0, 74, 79
1, 33323, Note_on_c, 0, 47, 72
1, 33325, Control_c, 0, 64, 83
1, 33340, Control_c, 0, 64, 81
1, 33356, Control_c, 0, 64, 79
1, 33366, Note_off_c, 0, 47, 62
1, 33371, Control_c, 0, 64, 77
1, 33386, Control_c, 0, 64, 74
1, 33387, Note_off_c, 0, 74, 60
1, 33399, Note_on_c, 0, 43, 66
1, 33400, Control_c, 0, 64, 71
1, 33404, Note_on_c, 0, 79, 79
1, 33415, Control_c, 0, 64, 68
1, 33430, Control_c, 0, 64, 64
1, 33445, Control_c, 0, 64, 53
1, 33459, Control_c, 0, 64, 0
1, 33477, Note_off_c, 0, 43, 61
1, 33481, Note_off_c, 0, 79, 60
1, 33487, Note_on_c, 0, 38, 66
1, 33495, Note_on_c, 0, 83, 74
1, 33548, Control_c, 0, 64, 20
1, 33549, Note_off_c, 0, 38, 62
1, 33563, Control_c, 0, 64, 26
1, 33573, Note_off_c, 0, 83, 60
1, 33578, Control_c, 0, 64, 31
1, 33588, Note_on_c, 0, 86, 70
1, 33593, Control_c, 0, 64, 34
1, 33594, Note_on_c, 0, 35, 70
1, 33607, Control_c, 0, 64, 36
1, 33612, Note_off_c, 0, 86, 68
1, 33622, Control_c, 0, 64, 39
1, 33637, Control_c, 0, 64, 41
1, 33640, Note_off_c, 0, 35, 62
1, 33651, Control_c, 0, 64, 41
1, 33678, Note_on_c, 0, 86, 84
1, 33704, Control_c, 0, 64, 39
1, 33712, Note_on_c, 0, 35, 65
1, 33719, Control_c, 0, 64, 37
1, 33725, Note_off_c, 0, 86, 62
1, 33733, Control_c, 0, 64, 35
1, 33748, Note_off_c, 0, 35, 64
1, 33748, Control_c, 0, 64, 34
1, 33763, Control_c, 0, 64, 36
1, 33778, Control_c, 0, 64, 41
1, 33782, Note_on_c, 0, 86, 81
1, 33792, Note_on_c, 0, 35, 76
1, 33793, Control_c, 0, 64, 47
1, 33807, Control_c, 0, 64, 53
1, 33822, Note_off_c, 0, 86, 65
1, 33822, Control_c, 0, 64, 58
1, 33830, Note_off_c, 0, 35, 66
1, 33837, Control_c, 0, 64, 61
1, 33851, Control_c, 0, 64, 63
1, 33866, Control_c, 0, 64, 64
1, 33878, Note_on_c, 0, 86, 78
1, 33881, Control_c, 0, 64, 65
1, 33895, Note_on_c, 0, 35, 75
1, 33896, Control_c, 0, 64, 67
1, 33911, Control_c, 0, 64, 70
1, 33918, Note_off_c, 0, 86, 63
1, 33925, Control_c, 0, 64, 74
1, 33927, Note_off_c, 0, 35, 65
1, 33940, Control_c, 0, 64, 78
1, 33955, Control_c, 0, 64, 84
1, 33970, Note_on_c, 0, 86, 79
1, 33970, Control_c, 0, 64, 90
1, 33984, Note_on_c, 0, 35, 72
1, 33985, Control_c, 0, 64, 96
1, 34000, Control_c, 0, 64, 101
1, 34015, Control_c, 0, 64, 108
1, 34017, Note_off_c, 0, 86, 63
1, 34020, Note_off_c, 0, 35, 64
1, 34029, Control_c, 0, 64, 113
1, 34044, Control_c, 0, 64, 119
1, 34059, Note_on_c, 0, 86, 67
1, 34059, Control_c, 0, 64, 126
1, 34063, Note_on_c, 0, 35, 36
1, 34074, Control_c, 0, 64, 127
1, 34083, Note_off_c, 0, 35, 64
1, 34088, Note_off_c, 0, 86, 67
1, 34164, Control_c, 0, 64, 122
1, 34169, Note_on_c, 0, 85, 83
1, 34178, Control_c, 0, 64, 106
1, 34187, Note_on_c, 0, 34, 62
1, 34193, Control_c, 0, 64, 92
1, 34208, Control_c, 0, 64, 79
1, 34223, Control_c, 0, 64, 70
1, 34238, Control_c, 0, 64, 63
1, 34253, Control_c, 0, 64, 58
1, 34264, Note_on_c, 0, 37, 59
1, 34268, Control_c, 0, 64, 62
1, 34273, Note_off_c, 0, 34, 59
1, 34276, Note_on_c, 0, 82, 71
1, 34280, Note_off_c, 0, 85, 59
1, 34282, Control_c, 0, 64, 67
1, 34297, Control_c, 0, 64, 71
1, 34312, Control_c, 0, 64, 76
1, 34327, Control_c, 0, 64, 80
1, 34342, Control_c, 0, 64, 83
1, 34345, Note_on_c, 0, 42, 70
1, 34347, Note_off_c, 0, 37, 64
1, 34353, Note_off_c, 0, 82, 64
1, 34354, Note_on_c, 0, 78, 75
1, 34356, Control_c, 0, 64, 86
1, 34371, Control_c, 0, 64, 90
1, 34386, Control_c, 0, 64, 97
1, 34401, Control_c, 0, 64, 107
1, 34411, Note_off_c, 0, 78, 62
1, 34413, Note_off_c, 0, 42, 63
1, 34416, Control_c, 0, 64, 117
1, 34430, Control_c, 0, 64, 127
1, 34433, Note_on_c, 0, 73, 66
1, 34438, Note_on_c, 0, 46, 61
1, 34453, Control_c, 0, 64, 127
1, 34465, Note_off_c, 0, 73, 67
1, 34471, Note_off_c, 0, 46, 59
1, 34528, Note_on_c, 0, 70, 76
1, 34554, Note_on_c, 0, 49, 66
1, 34586, Control_c, 0, 64, 118
1, 34600, Control_c, 0, 64, 110
1, 34612, Note_off_c, 0, 70, 61
1, 34615, Control_c, 0, 64, 103
1, 34622, Note_on_c, 0, 66, 74
1, 34627, Note_off_c, 0, 49, 62
1, 34629, Note_on_c, 0, 54, 68
1, 34630, Control_c, 0, 64, 97
1, 34645, Control_c, 0, 64, 90
1, 34660, Control_c, 0, 64, 85
1, 34674, Control_c, 0, 64, 78
1, 34688, Note_off_c, 0, 66, 65
1, 34689, Control_c, 0, 64, 73
1, 34697, Note_off_c, 0, 54, 62
1, 34704, Control_c, 0, 64, 69
1, 34711, Note_on_c, 0, 58, 72
1, 34718, Note_on_c, 0, 61, 70
1, 34719, Control_c, 0, 64, 64
1, 34734, Control_c, 0, 64, 54
1, 34745, Note_off_c, 0, 58, 64
1, 34748, Control_c, 0, 64, 21
1, 34751, Note_off_c, 0, 61, 64
1, 34763, Control_c, 0, 64, 0
1, 34810, Note_on_c, 0, 58, 70
1, 34817, Note_on_c, 0, 61, 72
1, 34851, Note_off_c, 0, 58, 63
1, 34855, Note_off_c, 0, 61, 62
1, 34880, Control_c, 0, 64, 16
1, 34895, Note_on_c, 0, 58, 69
1, 34895, Control_c, 0, 64, 24
1, 34901, Note_on_c, 0, 61, 74
1, 34910, Control_c, 0, 64, 29
1, 34926, Control_c, 0, 64, 33
1, 34941, Control_c, 0, 64, 37
1, 34945, Note_off_c, 0, 58, 64
1, 34947, Note_off_c, 0, 61, 61
1, 34956, Control_c, 0, 64, 42
1, 34970, Control_c, 0, 64, 46
1, 34980, Poly_aftertouch_c, 0, 58, 0
1, 34985, Control_c, 0, 64, 49
1, 34988, Note_on_c, 0, 58, 65
1, 34993, Note_on_c, 0, 61, 76
1, 35000, Control_c, 0, 64, 52
1, 35015, Control_c, 0, 64, 54
1, 35030, Control_c, 0, 64, 55
1, 35034, Note_off_c, 0, 58, 64
1, 35043, Note_off_c, 0, 61, 62
1, 35045, Control_c, 0, 64, 57
1, 35060, Control_c, 0, 64, 58
1, 35075, Control_c, 0, 64, 59
1, 35084, Note_on_c, 0, 58, 67
1, 35090, Control_c, 0, 64, 59
1, 35091, Note_on_c, 0, 61, 73
1, 35134, Note_off_c, 0, 58, 65
1, 35143, Note_off_c, 0, 61, 63
1, 35149, Control_c, 0, 64, 58
1, 35164, Control_c, 0, 64, 54
1, 35178, Control_c, 0, 64, 32
1, 35179, Note_on_c, 0, 58, 63
1, 35183, Note_on_c, 0, 61, 74
1, 35201, Control_c, 0, 64, 0
1, 35242, Note_off_c, 0, 61, 63
1, 35246, Note_off_c, 0, 58, 64
1, 35288, Note_on_c, 0, 57, 65
1, 35288, Note_on_c, 0, 60, 82
1, 35290, Control_c, 0, 64, 23
1, 35304, Control_c, 0, 64, 66
1, 35319, Control_c, 0, 64, 73
1, 35331, Note_off_c, 0, 57, 55
1, 35334, Control_c, 0, 64, 81
1, 35349, Control_c, 0, 64, 87
1, 35355, Note_off_c, 0, 60, 60
1, 35364, Control_c, 0, 64, 90
1, 35374, Note_on_c, 0, 53, 67
1, 35378, Control_c, 0, 64, 91
1, 35379, Note_on_c, 0, 65, 78
1, 35393, Control_c, 0, 64, 93
1, 35408, Control_c, 0, 64, 94
1, 35422, Control_c, 0, 64, 95
1, 35434, Note_off_c, 0, 53, 65
1, 35437, Control_c, 0, 64, 96
1, 35448, Note_off_c, 0, 65, 63
1, 35466, Note_on_c, 0, 48, 71
1, 35484, Note_on_c, 0, 69, 64
1, 35502, Note_off_c, 0, 48, 66
1, 35518, Note_off_c, 0, 69, 67
1, 35541, Control_c, 0, 64, 96
1, 35556, Control_c, 0, 64, 94
1, 35565, Note_on_c, 0, 45, 71
1, 35568, Note_on_c, 0, 72, 81
1, 35571, Control_c, 0, 64, 92
1, 35585, Control_c, 0, 64, 89
1, 35600, Control_c, 0, 64, 86
1, 35609, Note_off_c, 0, 45, 62
1, 35615, Control_c, 0, 64, 81
1, 35630, Control_c, 0, 64, 76
1, 35634, Note_off_c, 0, 72, 59
1, 35640, Note_on_c, 0, 41, 72
1, 35645, Control_c, 0, 64, 71
1, 35654, Note_on_c, 0, 77, 79
1, 35660, Control_c, 0, 64, 65
1, 35675, Control_c, 0, 64, 58
1, 35690, Control_c, 0, 64, 43
1, 35704, Control_c, 0, 64, 38
1, 35720, Control_c, 0, 64, 38
1, 35723, Note_off_c, 0, 41, 63
1, 35732, Note_off_c, 0, 77, 60
1, 35734, Note_on_c, 0, 36, 68
1, 35746, Note_on_c, 0, 81, 80
1, 35764, Control_c, 0, 64, 39
1, 35779, Control_c, 0, 64, 41
1, 35794, Control_c, 0, 64, 43
1, 35794, Note_off_c, 0, 36, 61
1, 35809, Control_c, 0, 64, 43
1, 35824, Note_off_c, 0, 81, 61
1, 35836, Note_on_c, 0, 33, 75
1, 35837, Note_on_c, 0, 84, 78
1, 35868, Control_c, 0, 64, 43
1, 35869, Note_off_c, 0, 84, 66
1, 35889, Note_off_c, 0, 33, 64
1, 35898, Control_c, 0, 64, 42
1, 35912, Control_c, 0, 64, 36
1, 35923, Note_on_c, 0, 84, 83
1, 35927, Control_c, 0, 64, 25
1, 35930, Poly_aftertouch_c, 0, 33, 0
1, 35939, Note_on_c, 0, 33, 66
1, 35949, Control_c, 0, 64, 21
1, 35964, Control_c, 0, 64, 25
1, 35973, Note_off_c, 0, 84, 65
1, 35979, Control_c, 0, 64, 36
1, 35994, Control_c, 0, 64, 48
1, 36002, Note_off_c, 0, 33, 64
1, 36009, Control_c, 0, 64, 56
1, 36024, Control_c, 0, 64, 62
1, 36026, Note_on_c, 0, 84, 87
1, 36030, Note_on_c, 0, 33, 63
1, 36039, Control_c, 0, 64, 64
1, 36053, Control_c, 0, 64, 65
1, 36064, Note_off_c, 0, 84, 67
1, 36068, Control_c, 0, 64, 67
1, 36079, Note_off_c, 0, 33, 65
1, 36083, Control_c, 0, 64, 68
1, 36098, Control_c, 0, 64, 70
1, 36113, Control_c, 0, 64, 73
1, 36117, Note_on_c, 0, 84, 80
1, 36122, Note_on_c, 0, 33, 71
1, 36127, Control_c, 0, 64, 74
1, 36142, Control_c, 0, 64, 76
1, 36157, Control_c, 0, 64, 77
1, 36162, Note_off_c, 0, 84, 67
1, 36166, Note_off_c, 0, 33, 64
1, 36172, Control_c, 0, 64, 79
1, 36187, Control_c, 0, 64, 82
1, 36201, Control_c, 0, 64, 85
1, 36214, Note_on_c, 0, 84, 84
1, 36216, Control_c, 0, 64, 89
1, 36219, Note_on_c, 0, 33, 70
1, 36231, Control_c, 0, 64, 92
1, 36245, Control_c, 0, 64, 95
1, 36255, Note_off_c, 0, 33, 66
1, 36260, Control_c, 0, 64, 98
1, 36267, Note_off_c, 0, 84, 62
1, 36275, Control_c, 0, 64, 100
1, 36290, Control_c, 0, 64, 100
1, 36297, Note_on_c, 0, 33, 44
1, 36299, Note_on_c, 0, 84, 68
1, 36328, Note_off_c, 0, 84, 67
1, 36334, Note_off_c, 0, 33, 55
1, 36334, Control_c, 0, 64, 100
1, 36350, Control_c, 0, 64, 96
1, 36365, Control_c, 0, 64, 88
1, 36379, Control_c, 0, 64, 78
1, 36394, Control_c, 0, 64, 66
1, 36409, Control_c, 0, 64, 54
1, 36411, Note_on_c, 0, 84, 85
1, 36423, Note_on_c, 0, 32, 62
1, 36424, Control_c, 0, 64, 59
1, 36439, Control_c, 0, 64, 66
1, 36453, Control_c, 0, 64, 73
1, 36468, Control_c, 0, 64, 81
1, 36483, Control_c, 0, 64, 88
1, 36498, Control_c, 0, 64, 94
1, 36507, Note_off_c, 0, 32, 58
1, 36507, Note_on_c, 0, 80, 77
1, 36508, Note_off_c, 0, 84, 62
1, 36513, Control_c, 0, 64, 98
1, 36518, Note_on_c, 0, 36, 58
1, 36529, Control_c, 0, 64, 101
1, 36543, Control_c, 0, 64, 105
1, 36558, Control_c, 0, 64, 109
1, 36569, Note_off_c, 0, 80, 65
1, 36573, Control_c, 0, 64, 114
1, 36576, Note_on_c, 0, 41, 65
1, 36584, Note_on_c, 0, 77, 79
1, 36588, Control_c, 0, 64, 123
1, 36599, Note_off_c, 0, 36, 61
1, 36603, Control_c, 0, 64, 127
1, 36632, Note_off_c, 0, 77, 62
1, 36635, Note_off_c, 0, 41, 64
1, 36655, Note_on_c, 0, 44, 67
1, 36677, Note_on_c, 0, 72, 68
1, 36682, Note_off_c, 0, 44, 66
1, 36713, Note_off_c, 0, 72, 65
1, 36758, Control_c, 0, 64, 119
1, 36765, Note_on_c, 0, 68, 75
1, 36773, Control_c, 0, 64, 111
1, 36778, Note_on_c, 0, 48, 63
1, 36788, Control_c, 0, 64, 104
1, 36803, Control_c, 0, 64, 99
1, 36818, Control_c, 0, 64, 94
1, 36832, Control_c, 0, 64, 88
1, 36847, Control_c, 0, 64, 82
1, 36852, Note_off_c, 0, 68, 61
1, 36852, Note_on_c, 0, 65, 80
1, 36857, Note_on_c, 0, 53, 58
1, 36858, Note_off_c, 0, 48, 64
1, 36862, Control_c, 0, 64, 75
1, 36876, Control_c, 0, 64, 69
1, 36891, Control_c, 0, 64, 64
1, 36906, Control_c, 0, 64, 56
1, 36918, Note_off_c, 0, 65, 63
1, 36921, Control_c, 0, 64, 34
1, 36926, Note_off_c, 0, 53, 66
1, 36936, Control_c, 0, 64, 0
1, 36939, Note_on_c, 0, 56, 72
1, 36946, Note_on_c, 0, 60, 73
1, 36969, Note_off_c, 0, 56, 64
1, 36981, Note_off_c, 0, 60, 63
1, 37037, Note_on_c, 0, 56, 75
1, 37044, Note_on_c, 0, 60, 73
1, 37069, Note_off_c, 0, 56, 65
1, 37079, Note_off_c, 0, 60, 61
1, 37129, Control_c, 0, 64, 10
1, 37130, Note_on_c, 0, 56, 72
1, 37132, Note_on_c, 0, 60, 76
1, 37143, Control_c, 0, 64, 21
1, 37158, Control_c, 0, 64, 29
1, 37166, Note_off_c, 0, 60, 64
1, 37168, Note_off_c, 0, 56, 63
1, 37173, Control_c, 0, 64, 36
1, 37188, Control_c, 0, 64, 40
1, 37202, Control_c, 0, 64, 43
1, 37217, Control_c, 0, 64, 47
1, 37220, Note_on_c, 0, 56, 67
1, 37228, Note_on_c, 0, 60, 76
1, 37232, Control_c, 0, 64, 49
1, 37247, Control_c, 0, 64, 52
1, 37258, Note_off_c, 0, 60, 66
1, 37262, Note_off_c, 0, 56, 62
1, 37262, Control_c, 0, 64, 55
1, 37276, Control_c, 0, 64, 57
1, 37291, Control_c, 0, 64, 59
1, 37306, Control_c, 0, 64, 60
1, 37311, Note_on_c, 0, 56, 58
1, 37322, Control_c, 0, 64, 61
1, 37327, Note_on_c, 0, 60, 78
1, 37337, Control_c, 0, 64, 61
1, 37352, Control_c, 0, 64, 62
1, 37362, Note_off_c, 0, 56, 63
1, 37363, Note_off_c, 0, 60, 60
1, 37395, Note_on_c, 0, 56, 53
1, 37396, Control_c, 0, 64, 62
1, 37407, Note_on_c, 0, 60, 65
1, 37411, Control_c, 0, 64, 63
1, 37425, Control_c, 0, 64, 64
1, 37448, Control_c, 0, 64, 65
1, 37452, Note_off_c, 0, 60, 64
1, 37461, Note_off_c, 0, 56, 61
1, 37478, Control_c, 0, 64, 64
1, 37493, Control_c, 0, 64, 58
1, 37507, Control_c, 0, 64, 0
1, 37517, Note_on_c, 0, 55, 73
1, 37518, Note_on_c, 0, 59, 82
1, 37583, Note_off_c, 0, 55, 57
1, 37583, Note_off_c, 0, 59, 58
1, 37609, Note_on_c, 0, 62, 74
1, 37615, Note_on_c, 0, 50, 67
1, 37625, Control_c, 0, 64, 52
1, 37640, Control_c, 0, 64, 62
1, 37655, Control_c, 0, 64, 63
1, 37676, Note_off_c, 0, 62, 62
1, 37694, Note_off_c, 0, 50, 63
1, 37701, Note_on_c, 0, 67, 66
1, 37711, Note_on_c, 0, 47, 72
1, 37770, Note_off_c, 0, 67, 63
1, 37781, Note_off_c, 0, 47, 64
1, 37783, Note_on_c, 0, 71, 63
1, 37788, Control_c, 0, 64, 63
1, 37794, Note_on_c, 0, 43, 71
1, 37803, Control_c, 0, 64, 62
1, 37818, Control_c, 0, 64, 62
1, 37847, Control_c, 0, 64, 61
1, 37851, Note_off_c, 0, 71, 58
1, 37862, Control_c, 0, 64, 61
1, 37874, Note_on_c, 0, 68, 82
1, 37877, Note_off_c, 0, 43, 61
1, 37877, Control_c, 0, 64, 60
1, 37888, Note_on_c, 0, 53, 77
1, 37892, Control_c, 0, 64, 60
1, 37921, Control_c, 0, 64, 59
1, 37950, Note_off_c, 0, 53, 64
1, 37951, Control_c, 0, 64, 59
1, 37960, Note_off_c, 0, 68, 63
1, 37966, Control_c, 0, 64, 58
1, 37967, Note_on_c, 0, 50, 68
1, 37971, Note_on_c, 0, 71, 73
1, 37981, Control_c, 0, 64, 56
1, 37996, Control_c, 0, 64, 50
1, 38011, Control_c, 0, 64, 42
1, 38025, Control_c, 0, 64, 40
1, 38039, Note_off_c, 0, 50, 64
1, 38040, Control_c, 0, 64, 44
1, 38055, Control_c, 0, 64, 50
1, 38062, Note_on_c, 0, 47, 65
1, 38062, Note_off_c, 0, 71, 60
1, 38063, Note_on_c, 0, 74, 68
1, 38070, Control_c, 0, 64, 57
1, 38085, Control_c, 0, 64, 61
1, 38099, Control_c, 0, 64, 63
1, 38115, Control_c, 0, 64, 65
1, 38122, Note_off_c, 0, 47, 64
1, 38130, Control_c, 0, 64, 66
1, 38131, Note_on_c, 0, 44, 68
1, 38137, Note_off_c, 0, 74, 65
1, 38143, Note_on_c, 0, 77, 76
1, 38145, Control_c, 0, 64, 68
1, 38160, Control_c, 0, 64, 72
1, 38175, Control_c, 0, 64, 76
1, 38196, Note_off_c, 0, 44, 63
1, 38197, Control_c, 0, 64, 81
1, 38212, Control_c, 0, 64, 84
1, 38218, Note_off_c, 0, 77, 62
1, 38227, Control_c, 0, 64, 87
1, 38235, Note_on_c, 0, 41, 75
1, 38241, Control_c, 0, 64, 90
1, 38256, Control_c, 0, 64, 91
1, 38268, Note_on_c, 0, 79, 56
1, 38271, Control_c, 0, 64, 92
1, 38284, Note_off_c, 0, 41, 52
1, 38286, Control_c, 0, 64, 92
1, 38288, Note_off_c, 0, 79, 62
1, 38301, Control_c, 0, 64, 93
1, 38316, Note_on_c, 0, 38, 68
1, 38316, Control_c, 0, 64, 94
1, 38330, Control_c, 0, 64, 94
1, 38334, Note_on_c, 0, 81, 68
1, 38343, Note_on_c, 0, 83, 73
1, 38385, Note_off_c, 0, 38, 61
1, 38393, Note_off_c, 0, 81, 51
1, 38393, Note_on_c, 0, 35, 69
1, 38414, Note_on_c, 0, 86, 77
1, 38434, Control_c, 0, 64, 94
1, 38448, Control_c, 0, 64, 93
1, 38463, Control_c, 0, 64, 91
1, 38478, Control_c, 0, 64, 89
1, 38480, Note_on_c, 0, 32, 71
1, 38486, Note_on_c, 0, 90, 86
1, 38488, Note_off_c, 0, 86, 62
1, 38492, Note_off_c, 0, 35, 58
1, 38493, Control_c, 0, 64, 85
1, 38508, Control_c, 0, 64, 78
1, 38519, Note_off_c, 0, 83, 57
1, 38522, Control_c, 0, 64, 70
1, 38537, Control_c, 0, 64, 29
1, 38552, Control_c, 0, 64, 0
1, 38560, Note_off_c, 0, 32, 62
1, 38577, Note_off_c, 0, 90, 64
1, 38596, Note_on_c, 0, 92, 90
1, 38600, Note_on_c, 0, 29, 70
1, 38611, Control_c, 0, 64, 64
1, 38626, Control_c, 0, 64, 74
1, 38641, Control_c, 0, 64, 85
1, 38644, Note_off_c, 0, 92, 67
1, 38656, Control_c, 0, 64, 90
1, 38671, Control_c, 0, 64, 91
1, 38680, Note_on_c, 0, 32, 56
1, 38682, Note_on_c, 0, 89, 66
1, 38700, Control_c, 0, 64, 90
1, 38703, Note_off_c, 0, 29, 59
1, 38715, Control_c, 0, 64, 90
1, 38716, Note_on_c, 0, 35, 63
1, 38747, Note_off_c, 0, 89, 65
1, 38749, Note_on_c, 0, 86, 78
1, 38751, Note_off_c, 0, 32, 59
1, 38760, Control_c, 0, 64, 89
1, 38789, Note_on_c, 0, 38, 68
1, 38789, Control_c, 0, 64, 88
1, 38798, Note_off_c, 0, 35, 60
1, 38802, Note_off_c, 0, 86, 62
1, 38804, Control_c, 0, 64, 87
1, 38819, Control_c, 0, 64, 86
1, 38823, Note_on_c, 0, 83, 67
1, 38834, Control_c, 0, 64, 85
1, 38835, Note_off_c, 0, 38, 64
1, 38848, Control_c, 0, 64, 83
1, 38863, Note_on_c, 0, 41, 69
1, 38863, Control_c, 0, 64, 81
1, 38865, Note_off_c, 0, 83, 58
1, 38878, Control_c, 0, 64, 79
1, 38887, Note_on_c, 0, 80, 77
1, 38893, Control_c, 0, 64, 77
1, 38908, Control_c, 0, 64, 75
1, 38924, Control_c, 0, 64, 74
1, 38945, Control_c, 0, 64, 72
1, 38960, Note_on_c, 0, 44, 75
1, 38960, Control_c, 0, 64, 69
1, 38970, Note_off_c, 0, 80, 64
1, 38974, Note_off_c, 0, 41, 34
1, 38975, Control_c, 0, 64, 65
1, 38978, Note_on_c, 0, 77, 84
1, 38990, Control_c, 0, 64, 58
1, 39005, Control_c, 0, 64, 36
1, 39019, Control_c, 0, 64, 0
1, 39026, Note_off_c, 0, 44, 61
1, 39055, Note_on_c, 0, 41, 70
1, 39064, Note_off_c, 0, 77, 59
1, 39067, Note_on_c, 0, 83, 76
1, 39103, Note_off_c, 0, 41, 59
1, 39129, Note_off_c, 0, 83, 61
1, 39143, Note_on_c, 0, 38, 68
1, 39157, Note_on_c, 0, 86, 83
1, 39212, Control_c, 0, 64, 10
1, 39225, Note_off_c, 0, 38, 61
1, 39227, Control_c, 0, 64, 13
1, 39228, Note_on_c, 0, 35, 72
1, 39229, Note_off_c, 0, 86, 62
1, 39250, Note_on_c, 0, 89, 82
1, 39257, Control_c, 0, 64, 0
1, 39297, Note_off_c, 0, 35, 62
1, 39326, Note_on_c, 0, 31, 69
1, 39344, Note_on_c, 0, 91, 87
1, 39344, Note_off_c, 0, 89, 63
1, 39345, Control_c, 0, 64, 20
1, 39360, Control_c, 0, 64, 42
1, 39375, Control_c, 0, 64, 50
1, 39389, Control_c, 0, 64, 52
1, 39419, Note_off_c, 0, 91, 52
1, 39423, Note_off_c, 0, 31, 63
1, 39424, Note_on_c, 0, 35, 66
1, 39433, Note_on_c, 0, 86, 80
1, 39449, Control_c, 0, 64, 53
1, 39464, Control_c, 0, 64, 54
1, 39479, Control_c, 0, 64, 55
1, 39496, Note_off_c, 0, 35, 62
1, 39499, Note_on_c, 0, 38, 58
1, 39503, Note_off_c, 0, 86, 63
1, 39521, Note_on_c, 0, 83, 75
1, 39553, Note_off_c, 0, 38, 62
1, 39565, Note_off_c, 0, 83, 58
1, 39574, Note_on_c, 0, 43, 67
1, 39613, Note_on_c, 0, 79, 70
1, 39621, Note_off_c, 0, 43, 56
1, 39671, Control_c, 0, 64, 54
1, 39677, Note_on_c, 0, 36, 62
1, 39693, Control_c, 0, 64, 53
1, 39704, Note_off_c, 0, 79, 61
1, 39705, Note_on_c, 0, 87, 68
1, 39708, Control_c, 0, 64, 52
1, 39724, Control_c, 0, 64, 51
1, 39739, Control_c, 0, 64, 50
1, 39754, Control_c, 0, 64, 48
1, 39768, Control_c, 0, 64, 47
1, 39783, Control_c, 0, 64, 45
1, 39788, Note_on_c, 0, 39, 61
1, 39792, Note_off_c, 0, 36, 61
1, 39793, Note_off_c, 0, 87, 63
1, 39796, Note_on_c, 0, 84, 68
1, 39798, Control_c, 0, 64, 43
1, 39813, Control_c, 0, 64, 42
1, 39827, Control_c, 0, 64, 41
1, 39864, Note_off_c, 0, 39, 62
1, 39869, Note_on_c, 0, 43, 59
1, 39879, Note_on_c, 0, 79, 66
1, 39879, Note_off_c, 0, 84, 63
1, 39925, Note_off_c, 0, 43, 61
1, 39930, Note_off_c, 0, 79, 58
1, 39932, Control_c, 0, 64, 42
1, 39947, Control_c, 0, 64, 42
1, 39958, Note_on_c, 0, 48, 63
1, 39961, Control_c, 0, 64, 43
1, 39976, Note_on_c, 0, 75, 61
1, 39991, Control_c, 0, 64, 43
1, 40030, Note_off_c, 0, 48, 59
1, 40036, Note_off_c, 0, 75, 56
1, 40063, Note_on_c, 0, 51, 67
1, 40080, Note_on_c, 0, 72, 63
1, 40122, Note_off_c, 0, 51, 60
1, 40170, Note_on_c, 0, 48, 60
1, 40208, Note_off_c, 0, 48, 64
1, 40273, Control_c, 0, 64, 44
1, 40276, Note_on_c, 0, 43, 63
1, 40315, Note_off_c, 0, 72, 58
1, 40332, Control_c, 0, 64, 44
1, 40343, Note_off_c, 0, 43, 48
1, 40379, Note_on_c, 0, 39, 60
1, 40443, Control_c, 0, 64, 44
1, 40447, Note_off_c, 0, 39, 62
1, 40518, Control_c, 0, 64, 43
1, 40533, Control_c, 0, 64, 43
1, 40556, Note_on_c, 0, 36, 55
1, 40578, Control_c, 0, 64, 42
1, 40592, Control_c, 0, 64, 42
1, 40725, Control_c, 0, 64, 43
1, 40770, Control_c, 0, 64, 43
1, 40785, Control_c, 0, 64, 44
1, 40795, Note_off_c, 0, 36, 59
1, 41051, Control_c, 0, 64, 43
1, 41170, Note_on_c, 0, 55, 62
1, 41171, Note_on_c, 0, 67, 65
1, 41181, Note_on_c, 0, 36, 49
1, 41206, Note_off_c, 0, 55, 56
1, 41231, Note_off_c, 0, 36, 62
1, 41250, Note_off_c, 0, 67, 50
1, 41311, Control_c, 0, 64, 44
1, 41329, Note_on_c, 0, 60, 53
1, 41341, Control_c, 0, 64, 44
1, 41354, Note_off_c, 0, 60, 61
1, 41443, Note_on_c, 0, 63, 64
1, 41479, Note_off_c, 0, 63, 63
1, 41574, Note_on_c, 0, 67, 72
1, 41595, Note_on_c, 0, 62, 47
1, 41597, Note_on_c, 0, 36, 47
1, 41623, Note_off_c, 0, 62, 58
1, 41635, Note_off_c, 0, 36, 64
1, 41646, Note_off_c, 0, 67, 58
1, 41708, Note_on_c, 0, 63, 68
1, 41756, Note_off_c, 0, 63, 60
1, 41826, Note_on_c, 0, 60, 66
1, 41856, Note_off_c, 0, 60, 64
1, 41962, Note_on_c, 0, 67, 74
1, 41976, Note_on_c, 0, 55, 57
1, 41980, Note_on_c, 0, 36, 47
1, 42000, Note_off_c, 0, 55, 62
1, 42021, Note_off_c, 0, 36, 63
1, 42040, Note_off_c, 0, 67, 54
1, 42096, Note_on_c, 0, 60, 64
1, 42138, Note_off_c, 0, 60, 59
1, 42219, Note_on_c, 0, 63, 63
1, 42260, Note_off_c, 0, 63, 63
1, 42358, Note_on_c, 0, 67, 72
1, 42370, Control_c, 0, 64, 45
1, 42371, Note_on_c, 0, 35, 44
1, 42371, Note_on_c, 0, 55, 54
1, 42400, Control_c, 0, 64, 45
1, 42409, Note_off_c, 0, 55, 62
1, 42431, Note_off_c, 0, 67, 56
1, 42440, Note_off_c, 0, 35, 48
1, 42496, Note_on_c, 0, 59, 58
1, 42534, Note_off_c, 0, 59, 62
1, 42629, Note_on_c, 0, 62, 59
1, 42665, Note_off_c, 0, 62, 63
1, 42770, Note_on_c, 0, 61, 51
1, 42802, Note_off_c, 0, 61, 61
1, 42883, Note_on_c, 0, 62, 64
1, 42921, Note_off_c, 0, 62, 61
1, 43011, Note_on_c, 0, 59, 59
1, 43045, Note_off_c, 0, 59, 62
1, 43128, Note_on_c, 0, 55, 75
1, 43150, Control_c, 0, 64, 46
1, 43187, Note_off_c, 0, 55, 60
1, 43258, Note_on_c, 0, 59, 61
1, 43283, Control_c, 0, 64, 46
1, 43316, Note_off_c, 0, 59, 54
1, 43363, Note_on_c, 0, 62, 55
1, 43393, Note_off_c, 0, 62, 63
1, 43401, Control_c, 0, 64, 47
1, 43416, Control_c, 0, 64, 47
1, 43453, Control_c, 0, 64, 48
1, 43483, Control_c, 0, 64, 48
1, 43498, Note_on_c, 0, 61, 76
1, 43507, Note_on_c, 0, 73, 72
1, 43512, Note_on_c, 0, 34, 63
1, 43542, Control_c, 0, 64, 49
1, 43558, Note_off_c, 0, 61, 52
1, 43562, Note_off_c, 0, 34, 62
1, 43571, Control_c, 0, 64, 48
1, 43616, Control_c, 0, 64, 48
1, 43628, Note_off_c, 0, 73, 43
1, 43647, Note_on_c, 0, 64, 62
1, 43704, Note_off_c, 0, 64, 60
1, 43771, Note_on_c, 0, 67, 64
1, 43812, Note_off_c, 0, 67, 62
1, 43883, Note_on_c, 0, 73, 75
1, 43895, Note_on_c, 0, 34, 62
1, 43901, Note_on_c, 0, 66, 69
1, 43944, Note_off_c, 0, 66, 56
1, 43948, Note_off_c, 0, 34, 63
1, 43984, Note_off_c, 0, 73, 57
1, 44022, Note_on_c, 0, 67, 67
1, 44083, Note_off_c, 0, 67, 62
1, 44147, Note_on_c, 0, 64, 64
1, 44190, Note_off_c, 0, 64, 62
1, 44266, Note_on_c, 0, 73, 72
1, 44274, Note_on_c, 0, 34, 64
1, 44275, Note_on_c, 0, 61, 61
1, 44276, Control_c, 0, 64, 48
1, 44308, Note_off_c, 0, 61, 62
1, 44330, Note_off_c, 0, 34, 62
1, 44362, Note_off_c, 0, 73, 60
1, 44397, Note_on_c, 0, 64, 65
1, 44461, Note_off_c, 0, 64, 59
1, 44498, Control_c, 0, 64, 48
1, 44512, Note_on_c, 0, 67, 73
1, 44555, Note_off_c, 0, 67, 61
1, 44627, Note_on_c, 0, 72, 76
1, 44643, Note_on_c, 0, 60, 60
1, 44647, Note_on_c, 0, 33, 49
1, 44664, Note_off_c, 0, 60, 59
1, 44700, Note_off_c, 0, 72, 56
1, 44721, Note_off_c, 0, 33, 48
1, 44764, Note_on_c, 0, 65, 68
1, 44796, Control_c, 0, 64, 47
1, 44798, Note_off_c, 0, 65, 64
1, 44880, Note_on_c, 0, 69, 69
1, 44944, Note_off_c, 0, 69, 58
1, 45019, Note_on_c, 0, 68, 54
1, 45058, Note_off_c, 0, 68, 61
1, 45134, Note_on_c, 0, 69, 67
1, 45181, Note_off_c, 0, 69, 64
1, 45247, Note_on_c, 0, 65, 70
1, 45298, Note_off_c, 0, 65, 59
1, 45366, Note_on_c, 0, 60, 66
1, 45409, Note_off_c, 0, 60, 55
1, 45426, Control_c, 0, 64, 48
1, 45486, Note_on_c, 0, 65, 64
1, 45538, Note_off_c, 0, 65, 57
1, 45574, Control_c, 0, 64, 48
1, 45601, Note_on_c, 0, 69, 59
1, 45635, Note_off_c, 0, 69, 67
1, 45721, Note_on_c, 0, 32, 69
1, 45724, Note_on_c, 0, 72, 74
1, 45742, Note_on_c, 0, 60, 51
1, 45744, Control_c, 0, 64, 49
1, 45764, Note_off_c, 0, 60, 58
1, 45780, Note_off_c, 0, 32, 61
1, 45797, Note_off_c, 0, 72, 55
1, 45852, Note_on_c, 0, 63, 66
1, 45894, Note_off_c, 0, 63, 58
1, 45965, Note_on_c, 0, 66, 65
1, 46000, Note_off_c, 0, 66, 63
1, 46055, Control_c, 0, 64, 48
1, 46079, Note_on_c, 0, 72, 79
1, 46088, Note_on_c, 0, 65, 65
1, 46093, Note_on_c, 0, 32, 67
1, 46122, Note_off_c, 0, 65, 64
1, 46152, Note_off_c, 0, 32, 61
1, 46161, Note_off_c, 0, 72, 57
1, 46200, Note_on_c, 0, 66, 72
1, 46254, Note_off_c, 0, 66, 64
1, 46305, Note_on_c, 0, 63, 72
1, 46340, Note_off_c, 0, 63, 60
1, 46427, Note_on_c, 0, 72, 82
1, 46443, Note_on_c, 0, 32, 76
1, 46443, Note_on_c, 0, 60, 74
1, 46482, Note_off_c, 0, 60, 57
1, 46504, Note_off_c, 0, 32, 62
1, 46518, Note_off_c, 0, 72, 58
1, 46566, Note_on_c, 0, 63, 73
1, 46674, Note_on_c, 0, 66, 74
1, 46676, Note_off_c, 0, 63, 62
1, 46729, Note_off_c, 0, 66, 65
1, 46779, Note_on_c, 0, 31, 80
1, 46791, Note_on_c, 0, 72, 81
1, 46792, Note_on_c, 0, 60, 81
1, 46819, Control_c, 0, 64, 49
1, 46831, Note_off_c, 0, 31, 64
1, 46833, Control_c, 0, 64, 49
1, 46892, Control_c, 0, 64, 50
1, 46904, Note_off_c, 0, 60, 58
1, 46908, Control_c, 0, 64, 52
1, 46910, Note_off_c, 0, 72, 56
1, 46911, Note_on_c, 0, 63, 70
1, 46923, Control_c, 0, 64, 54
1, 46938, Control_c, 0, 64, 55
1, 46952, Control_c, 0, 64, 56
1, 46967, Control_c, 0, 64, 57
1, 46982, Control_c, 0, 64, 58
1, 46990, Note_off_c, 0, 63, 65
1, 46996, Control_c, 0, 64, 59
1, 47002, Note_on_c, 0, 67, 78
1, 47011, Control_c, 0, 64, 59
1, 47026, Control_c, 0, 64, 60
1, 47040, Note_off_c, 0, 67, 66
1, 47041, Control_c, 0, 64, 60
1, 47056, Control_c, 0, 64, 61
1, 47071, Control_c, 0, 64, 61
1, 47130, Control_c, 0, 64, 61
1, 47142, Note_on_c, 0, 68, 86
1, 47142, Note_on_c, 0, 80, 89
1, 47145, Control_c, 0, 64, 60
1, 47149, Note_on_c, 0, 29, 85
1, 47160, Control_c, 0, 64, 60
1, 47174, Note_off_c, 0, 68, 63
1, 47175, Control_c, 0, 64, 58
1, 47197, Control_c, 0, 64, 55
1, 47211, Control_c, 0, 64, 51
1, 47226, Control_c, 0, 64, 45
1, 47241, Control_c, 0, 64, 41
1, 47243, Note_off_c, 0, 80, 62
1, 47256, Control_c, 0, 64, 37
1, 47268, Note_on_c, 0, 72, 75
1, 47271, Control_c, 0, 64, 36
1, 47286, Control_c, 0, 64, 35
1, 47315, Control_c, 0, 64, 34
1, 47327, Note_off_c, 0, 72, 64
1, 47360, Control_c, 0, 64, 34
1, 47393, Note_on_c, 0, 74, 78
1, 47404, Control_c, 0, 64, 34
1, 47419, Control_c, 0, 64, 35
1, 47434, Control_c, 0, 64, 36
1, 47449, Control_c, 0, 64, 36
1, 47456, Note_off_c, 0, 74, 55
1, 47464, Control_c, 0, 64, 37
1, 47478, Control_c, 0, 64, 38
1, 47493, Control_c, 0, 64, 39
1, 47500, Note_on_c, 0, 77, 81
1, 47508, Control_c, 0, 64, 40
1, 47523, Control_c, 0, 64, 41
1, 47524, Note_off_c, 0, 29, 60
1, 47537, Control_c, 0, 64, 42
1, 47552, Control_c, 0, 64, 43
1, 47557, Note_off_c, 0, 77, 60
1, 47567, Control_c, 0, 64, 44
1, 47582, Control_c, 0, 64, 45
1, 47597, Control_c, 0, 64, 45
1, 47611, Control_c, 0, 64, 46
1, 47617, Note_on_c, 0, 80, 83
1, 47626, Control_c, 0, 64, 46
1, 47641, Control_c, 0, 64, 47
1, 47671, Control_c, 0, 64, 47
1, 47690, Note_off_c, 0, 80, 59
1, 47716, Control_c, 0, 64, 48
1, 47726, Note_on_c, 0, 77, 84
1, 47731, Control_c, 0, 64, 48
1, 47775, Control_c, 0, 64, 49
1, 47777, Note_off_c, 0, 77, 60
1, 47790, Control_c, 0, 64, 49
1, 47834, Control_c, 0, 64, 50
1, 47841, Note_on_c, 0, 74, 71
1, 47879, Note_off_c, 0, 74, 65
1, 47960, Control_c, 0, 64, 50
1, 47967, Note_on_c, 0, 72, 66
1, 48040, Note_off_c, 0, 72, 62
1, 48067, Note_on_c, 0, 68, 73
1, 48079, Control_c, 0, 64, 51
1, 48117, Note_off_c, 0, 68, 59
1, 48181, Note_on_c, 0, 65, 65
1, 48222, Note_off_c, 0, 65, 64
1, 48299, Note_on_c, 0, 62, 57
1, 48331, Control_c, 0, 64, 50
1, 48356, Note_off_c, 0, 62, 59
1, 48380, Note_on_c, 0, 60, 61
1, 48412, Note_off_c, 0, 60, 66
1, 48445, Note_on_c, 0, 53, 51
1, 48493, Note_off_c, 0, 53, 66
1, 48505, Note_on_c, 0, 55, 68
1, 48523, Note_on_c, 0, 67, 70
1, 48537, Note_on_c, 0, 59, 51
1, 48540, Note_off_c, 0, 55, 66
1, 48568, Note_off_c, 0, 59, 55
1, 48603, Note_off_c, 0, 67, 54
1, 48645, Note_on_c, 0, 62, 58
1, 48725, Note_off_c, 0, 62, 60
1, 48767, Note_on_c, 0, 59, 41
1, 48794, Note_off_c, 0, 59, 54
1, 48874, Note_on_c, 0, 67, 68
1, 48888, Note_on_c, 0, 48, 60
1, 48890, Note_on_c, 0, 60, 48
1, 48917, Note_off_c, 0, 48, 66
1, 48940, Note_off_c, 0, 60, 54
1, 48988, Note_off_c, 0, 67, 49
1, 49008, Note_on_c, 0, 63, 57
1, 49098, Note_off_c, 0, 63, 60
1, 49116, Note_on_c, 0, 60, 48
1, 49146, Note_off_c, 0, 60, 57
1, 49232, Note_on_c, 0, 67, 64
1, 49236, Note_on_c, 0, 59, 54
1, 49252, Note_on_c, 0, 43, 53
1, 49278, Note_off_c, 0, 59, 51
1, 49307, Note_off_c, 0, 43, 61
1, 49331, Note_off_c, 0, 67, 53
1, 49364, Note_on_c, 0, 62, 55
1, 49469, Note_off_c, 0, 62, 44
1, 49494, Note_on_c, 0, 59, 44
1, 49529, Note_off_c, 0, 59, 50
1, 49650, Note_on_c, 0, 67, 55
1, 49664, Note_on_c, 0, 60, 34
1, 49668, Note_on_c, 0, 36, 41
1, 49709, Note_off_c, 0, 60, 45
1, 49725, Note_off_c, 0, 36, 61
1, 49780, Note_off_c, 0, 67, 36
1, 49790, Note_on_c, 0, 63, 53
1, 49843, Note_off_c, 0, 63, 57
1, 49903, Control_c, 0, 64, 51
1, 49948, Note_on_c, 0, 60, 45
1, 49992, Control_c, 0, 64, 50
1, 50003, Note_off_c, 0, 60, 57
1, 50036, Control_c, 0, 64, 51
1, 50051, Control_c, 0, 64, 53
1, 50066, Control_c, 0, 64, 57
1, 50080, Control_c, 0, 64, 62
1, 50096, Control_c, 0, 64, 64
1, 50111, Control_c, 0, 64, 66
1, 50126, Control_c, 0, 64, 68
1, 50141, Control_c, 0, 64, 71
1, 50156, Control_c, 0, 64, 74
1, 50162, Note_on_c, 0, 48, 50
1, 50177, Control_c, 0, 64, 78
1, 50192, Control_c, 0, 64, 84
1, 50207, Control_c, 0, 64, 89
1, 50215, Note_off_c, 0, 48, 64
1, 50222, Control_c, 0, 64, 94
1, 50237, Control_c, 0, 64, 100
1, 50252, Control_c, 0, 64, 106
1, 50266, Control_c, 0, 64, 111
1, 50281, Control_c, 0, 64, 115
1, 50296, Control_c, 0, 64, 118
1, 50311, Control_c, 0, 64, 122
1, 50326, Control_c, 0, 64, 126
1, 50341, Control_c, 0, 64, 127
1, 50430, Note_on_c, 0, 67, 60
1, 50448, Note_on_c, 0, 63, 49
1, 50461, Note_on_c, 0, 60, 34
1, 50464, Note_off_c, 0, 67, 63
1, 50471, Note_on_c, 0, 55, 37
1, 50481, Note_off_c, 0, 63, 57
1, 50493, Note_off_c, 0, 60, 51
1, 50502, Note_off_c, 0, 55, 53
1, 50555, Note_on_c, 0, 72, 66
1, 50562, Control_c, 0, 64, 127
1, 50576, Note_on_c, 0, 63, 52
1, 50577, Control_c, 0, 64, 126
1, 50593, Note_off_c, 0, 72, 55
1, 50594, Note_on_c, 0, 60, 39
1, 50606, Note_off_c, 0, 63, 53
1, 50612, Note_on_c, 0, 55, 22
1, 50621, Note_off_c, 0, 60, 50
1, 50621, Control_c, 0, 64, 126
1, 50657, Note_off_c, 0, 55, 45
1, 50666, Note_on_c, 0, 75, 56
1, 50666, Control_c, 0, 64, 125
1, 50681, Control_c, 0, 64, 125
1, 50719, Note_off_c, 0, 75, 52
1, 50742, Poly_aftertouch_c, 0, 55, 127
1, 50750, Poly_aftertouch_c, 0, 63, 127
1, 50768, Note_on_c, 0, 79, 67
1, 50773, Poly_aftertouch_c, 0, 63, 0
1, 50823, Note_off_c, 0, 79, 60
1, 50828, Note_on_c, 0, 63, 31
1, 50833, Poly_aftertouch_c, 0, 60, 127
1, 50859, Control_c, 0, 64, 125
1, 51015, Control_c, 0, 64, 125
1, 51066, Note_on_c, 0, 87, 66
1, 51074, Control_c, 0, 64, 124
1, 51082, Note_on_c, 0, 75, 51
1, 51128, Note_off_c, 0, 75, 45
1, 51139, Note_off_c, 0, 87, 61
1, 51178, Control_c, 0, 64, 125
1, 51223, Control_c, 0, 64, 125
1, 51252, Control_c, 0, 64, 126
1, 51297, Control_c, 0, 64, 125
1, 51312, Control_c, 0, 64, 117
1, 51326, Control_c, 0, 64, 103
1, 51341, Control_c, 0, 64, 92
1, 51356, Control_c, 0, 64, 84
1, 51363, Note_on_c, 0, 83, 54
1, 51370, Control_c, 0, 64, 80
1, 51399, Note_on_c, 0, 71, 40
1, 51415, Control_c, 0, 64, 82
1, 51430, Control_c, 0, 64, 87
1, 51441, Note_off_c, 0, 63, 37
1, 51444, Control_c, 0, 64, 95
1, 51459, Control_c, 0, 64, 105
1, 51474, Control_c, 0, 64, 117
1, 51489, Poly_aftertouch_c, 0, 60, 0
1, 51489, Control_c, 0, 64, 127
1, 51504, Note_off_c, 0, 71, 53
1, 51513, Poly_aftertouch_c, 0, 55, 0
1, 51643, Note_off_c, 0, 83, 45
1, 51682, Note_on_c, 0, 84, 54
1, 51699, Note_on_c, 0, 72, 41
1, 51705, Control_c, 0, 64, 113
1, 51720, Control_c, 0, 64, 98
1, 51735, Control_c, 0, 64, 86
1, 51749, Control_c, 0, 64, 72
1, 51764, Control_c, 0, 64, 46
1, 51779, Control_c, 0, 64, 0
1, 51838, Control_c, 0, 64, 20
1, 51853, Control_c, 0, 64, 64
1, 51855, Note_off_c, 0, 84, 62
1, 51868, Control_c, 0, 64, 72
1, 51882, Control_c, 0, 64, 81
1, 51893, Note_off_c, 0, 72, 55
1, 51897, Control_c, 0, 64, 91
1, 51901, Note_on_c, 0, 43, 47
1, 51912, Control_c, 0, 64, 102
1, 51927, Control_c, 0, 64, 112
1, 51942, Control_c, 0, 64, 121
1, 51951, Note_off_c, 0, 43, 61
1, 51957, Control_c, 0, 64, 127
1, 52127, Note_on_c, 0, 67, 63
1, 52152, Note_on_c, 0, 62, 41
1, 52163, Note_off_c, 0, 67, 62
1, 52176, Note_on_c, 0, 59, 12
1, 52178, Note_on_c, 0, 55, 19
1, 52183, Note_off_c, 0, 62, 49
1, 52237, Note_off_c, 0, 55, 0
1, 52243, Note_on_c, 0, 71, 70
1, 52248, Note_off_c, 0, 59, 0
1, 52255, Note_on_c, 0, 55, 35
1, 52262, Note_on_c, 0, 59, 39
1, 52267, Note_on_c, 0, 62, 50
1, 52291, Note_off_c, 0, 62, 57
1, 52291, Note_off_c, 0, 55, 63
1, 52291, Note_off_c, 0, 59, 54
1, 52296, Note_off_c, 0, 71, 53
1, 52344, Note_on_c, 0, 74, 65
1, 52364, Note_on_c, 0, 55, 47
1, 52396, Note_off_c, 0, 55, 55
1, 52426, Note_off_c, 0, 74, 59
1, 52438, Poly_aftertouch_c, 0, 59, 127
1, 52454, Note_on_c, 0, 79, 73
1, 52466, Poly_aftertouch_c, 0, 59, 0
1, 52503, Note_on_c, 0, 55, 47
1, 52503, Poly_aftertouch_c, 0, 59, 127
1, 52509, Note_off_c, 0, 79, 61
1, 52546, Poly_aftertouch_c, 0, 62, 127
1, 52742, Note_on_c, 0, 86, 63
1, 52770, Note_on_c, 0, 74, 42
1, 52804, Note_off_c, 0, 86, 61
1, 52813, Note_off_c, 0, 74, 64
1, 53002, Control_c, 0, 64, 117
1, 53016, Control_c, 0, 64, 92
1, 53031, Control_c, 0, 64, 71
1, 53035, Note_on_c, 0, 78, 60
1, 53046, Control_c, 0, 64, 0
1, 53076, Note_on_c, 0, 66, 38
1, 53090, Control_c, 0, 64, 60
1, 53105, Control_c, 0, 64, 71
1, 53113, Poly_aftertouch_c, 0, 62, 0
1, 53120, Control_c, 0, 64, 83
1, 53135, Control_c, 0, 64, 101
1, 53149, Control_c, 0, 64, 127
1, 53189, Note_off_c, 0, 66, 56
1, 53225, Poly_aftertouch_c, 0, 59, 0
1, 53241, Note_off_c, 0, 55, 59
1, 53291, Control_c, 0, 64, 100
1, 53307, Control_c, 0, 64, 79
1, 53309, Note_off_c, 0, 78, 37
1, 53321, Control_c, 0, 64, 64
1, 53336, Control_c, 0, 64, 42
1, 53343, Note_on_c, 0, 79, 57
1, 53351, Control_c, 0, 64, 62
1, 53354, Note_on_c, 0, 67, 43
1, 53366, Control_c, 0, 64, 71
1, 53380, Control_c, 0, 64, 86
1, 53395, Control_c, 0, 64, 117
1, 53410, Control_c, 0, 64, 127
1, 53558, Control_c, 0, 64, 97
1, 53572, Control_c, 0, 64, 77
1, 53587, Control_c, 0, 64, 13
1, 53602, Control_c, 0, 64, 0
1, 53605, Note_off_c, 0, 67, 37
1, 53623, Note_on_c, 0, 48, 53
1, 53647, Control_c, 0, 64, 65
1, 53659, Note_off_c, 0, 48, 65
1, 53662, Control_c, 0, 64, 77
1, 53672, Note_off_c, 0, 79, 32
1, 53677, Control_c, 0, 64, 95
1, 53691, Control_c, 0, 64, 118
1, 53706, Control_c, 0, 64, 127
1, 53821, Note_on_c, 0, 67, 67
1, 53836, Note_on_c, 0, 58, 44
1, 53839, Note_on_c, 0, 64, 41
1, 53843, Note_on_c, 0, 55, 41
1, 53864, Note_off_c, 0, 58, 55
1, 53864, Note_off_c, 0, 67, 58
1, 53868, Note_off_c, 0, 64, 48
1, 53874, Note_off_c, 0, 55, 56
1, 53934, Note_on_c, 0, 70, 74
1, 53951, Note_on_c, 0, 60, 10
1, 53955, Note_on_c, 0, 64, 56
1, 53964, Note_on_c, 0, 58, 47
1, 53976, Note_off_c, 0, 64, 60
1, 53984, Note_off_c, 0, 70, 65
1, 53992, Note_on_c, 0, 55, 15
1, 53993, Note_off_c, 0, 60, 50
1, 53997, Note_off_c, 0, 58, 47
1, 54038, Note_on_c, 0, 76, 73
1, 54046, Note_on_c, 0, 64, 68
1, 54067, Note_on_c, 0, 60, 48
1, 54077, Note_on_c, 0, 58, 36
1, 54078, Note_off_c, 0, 64, 58
1, 54092, Note_off_c, 0, 60, 60
1, 54115, Note_off_c, 0, 58, 43
1, 54118, Note_off_c, 0, 76, 59
1, 54127, Note_off_c, 0, 55, 38
1, 54143, Note_on_c, 0, 79, 78
1, 54175, Note_on_c, 0, 64, 41
1, 54180, Note_off_c, 0, 79, 59
1, 54186, Note_on_c, 0, 55, 39
1, 54195, Note_on_c, 0, 58, 30
1, 54195, Note_on_c, 0, 60, 41
1, 54242, Note_off_c, 0, 64, 0
1, 54267, Note_off_c, 0, 60, 0
1, 54276, Note_off_c, 0, 58, 0
1, 54279, Poly_aftertouch_c, 0, 64, 127
1, 54303, Poly_aftertouch_c, 0, 60, 127
1, 54314, Poly_aftertouch_c, 0, 58, 127
1, 54422, Note_on_c, 0, 88, 70
1, 54444, Note_on_c, 0, 76, 47
1, 54501, Note_off_c, 0, 76, 62
1, 54502, Note_off_c, 0, 88, 62
1, 54684, Control_c, 0, 64, 118
1, 54699, Control_c, 0, 64, 96
1, 54714, Control_c, 0, 64, 76
1, 54729, Control_c, 0, 64, 43
1, 54729, Note_on_c, 0, 81, 61
1, 54744, Control_c, 0, 64, 0
1, 54754, Note_on_c, 0, 69, 40
1, 54774, Control_c, 0, 64, 38
1, 54788, Control_c, 0, 64, 69
1, 54803, Control_c, 0, 64, 81
1, 54818, Control_c, 0, 64, 99
1, 54833, Control_c, 0, 64, 127
1, 54843, Poly_aftertouch_c, 0, 64, 0
1, 54851, Note_off_c, 0, 69, 64
1, 54875, Note_off_c, 0, 55, 40
1, 54916, Poly_aftertouch_c, 0, 60, 0
1, 54951, Poly_aftertouch_c, 0, 58, 0
1, 54952, Control_c, 0, 64, 104
1, 54967, Control_c, 0, 64, 82
1, 54982, Control_c, 0, 64, 70
1, 54988, Note_off_c, 0, 81, 53
1, 54997, Control_c, 0, 64, 67
1, 55012, Control_c, 0, 64, 71
1, 55016, Note_on_c, 0, 82, 61
1, 55026, Note_on_c, 0, 70, 53
1, 55026, Control_c, 0, 64, 82
1, 55041, Control_c, 0, 64, 101
1, 55056, Control_c, 0, 64, 127
1, 55189, Control_c, 0, 64, 105
1, 55204, Control_c, 0, 64, 84
1, 55212, Note_off_c, 0, 82, 63
1, 55218, Control_c, 0, 64, 64
1, 55233, Control_c, 0, 64, 0
1, 55278, Control_c, 0, 64, 65
1, 55281, Note_on_c, 0, 53, 58
1, 55292, Control_c, 0, 64, 78
1, 55307, Control_c, 0, 64, 98
1, 55322, Control_c, 0, 64, 127
1, 55329, Note_off_c, 0, 53, 61
1, 55331, Note_off_c, 0, 70, 56
1, 55476, Note_on_c, 0, 57, 57
1, 55477, Note_on_c, 0, 69, 72
1, 55489, Note_on_c, 0, 65, 50
1, 55491, Note_on_c, 0, 60, 46
1, 55513, Note_off_c, 0, 57, 60
1, 55513, Note_off_c, 0, 65, 59
1, 55516, Note_off_c, 0, 60, 57
1, 55521, Note_off_c, 0, 69, 57
1, 55573, Note_on_c, 0, 72, 79
1, 55587, Note_on_c, 0, 57, 63
1, 55590, Note_on_c, 0, 65, 61
1, 55599, Note_on_c, 0, 60, 59
1, 55613, Note_off_c, 0, 65, 63
1, 55620, Note_off_c, 0, 57, 63
1, 55623, Note_off_c, 0, 60, 62
1, 55638, Note_off_c, 0, 72, 59
1, 55679, Note_on_c, 0, 77, 77
1, 55686, Note_on_c, 0, 57, 68
1, 55692, Note_on_c, 0, 65, 60
1, 55701, Note_on_c, 0, 60, 65
1, 55713, Note_off_c, 0, 65, 61
1, 55721, Note_off_c, 0, 57, 59
1, 55727, Note_off_c, 0, 60, 63
1, 55759, Note_off_c, 0, 77, 56
1, 55787, Note_on_c, 0, 81, 86
1, 55802, Note_on_c, 0, 65, 55
1, 55807, Note_on_c, 0, 57, 59
1, 55809, Note_on_c, 0, 60, 55
1, 55831, Note_off_c, 0, 81, 61
1, 55891, Note_off_c, 0, 65, 0
1, 55891, Note_on_c, 0, 65, 7
1, 56061, Note_on_c, 0, 89, 79
1, 56078, Note_on_c, 0, 77, 63
1, 56107, Note_off_c, 0, 77, 65
1, 56113, Note_off_c, 0, 89, 64
1, 56315, Control_c, 0, 64, 104
1, 56330, Control_c, 0, 64, 85
1, 56345, Control_c, 0, 64, 69
1, 56351, Note_on_c, 0, 83, 72
1, 56360, Control_c, 0, 64, 58
1, 56370, Note_on_c, 0, 71, 52
1, 56374, Control_c, 0, 64, 63
1, 56389, Control_c, 0, 64, 70
1, 56404, Control_c, 0, 64, 84
1, 56419, Control_c, 0, 64, 103
1, 56430, Note_off_c, 0, 65, 38
1, 56434, Control_c, 0, 64, 127
1, 56496, Note_off_c, 0, 71, 42
1, 56526, Note_off_c, 0, 60, 57
1, 56553, Note_off_c, 0, 57, 58
1, 56553, Control_c, 0, 64, 104
1, 56568, Control_c, 0, 64, 89
1, 56583, Control_c, 0, 64, 81
1, 56598, Control_c, 0, 64, 81
1, 56613, Control_c, 0, 64, 83
1, 56618, Note_off_c, 0, 83, 53
1, 56628, Control_c, 0, 64, 91
1, 56633, Note_on_c, 0, 84, 73
1, 56643, Control_c, 0, 64, 107
1, 56647, Note_on_c, 0, 72, 63
1, 56657, Control_c, 0, 64, 127
1, 56805, Control_c, 0, 64, 103
1, 56815, Note_off_c, 0, 84, 53
1, 56820, Control_c, 0, 64, 83
1, 56835, Note_off_c, 0, 72, 60
1, 56835, Control_c, 0, 64, 65
1, 56850, Control_c, 0, 64, 0
1, 56879, Note_on_c, 0, 50, 69
1, 56879, Control_c, 0, 64, 64
1, 56894, Control_c, 0, 64, 78
1, 56916, Control_c, 0, 64, 99
1, 56922, Note_off_c, 0, 50, 66
1, 56931, Control_c, 0, 64, 127
1, 57072, Note_on_c, 0, 69, 79
1, 57081, Note_on_c, 0, 66, 57
1, 57088, Note_on_c, 0, 57, 48
1, 57100, Note_on_c, 0, 60, 37
1, 57108, Note_on_c, 0, 62, 31
1, 57108, Note_off_c, 0, 66, 56
1, 57117, Note_off_c, 0, 69, 65
1, 57119, Note_off_c, 0, 57, 60
1, 57133, Note_off_c, 0, 60, 45
1, 57183, Note_on_c, 0, 72, 76
1, 57183, Note_off_c, 0, 62, 0
1, 57186, Note_on_c, 0, 66, 66
1, 57194, Note_on_c, 0, 62, 40
1, 57205, Note_off_c, 0, 66, 66
1, 57207, Note_on_c, 0, 57, 42
1, 57211, Note_on_c, 0, 60, 44
1, 57228, Note_off_c, 0, 62, 58
1, 57228, Note_off_c, 0, 72, 63
1, 57234, Note_off_c, 0, 57, 54
1, 57242, Note_off_c, 0, 60, 47
1, 57279, Note_on_c, 0, 66, 75
1, 57281, Note_on_c, 0, 78, 83
1, 57301, Note_on_c, 0, 60, 57
1, 57302, Note_on_c, 0, 62, 59
1, 57310, Note_on_c, 0, 57, 59
1, 57320, Note_off_c, 0, 66, 57
1, 57335, Note_off_c, 0, 57, 62
1, 57335, Note_off_c, 0, 60, 64
1, 57337, Note_off_c, 0, 62, 63
1, 57355, Note_off_c, 0, 78, 60
1, 57388, Note_on_c, 0, 81, 88
1, 57415, Note_on_c, 0, 57, 56
1, 57415, Note_on_c, 0, 66, 70
1, 57418, Note_on_c, 0, 62, 59
1, 57424, Note_on_c, 0, 60, 64
1, 57429, Note_off_c, 0, 81, 64
1, 57652, Note_on_c, 0, 90, 93
1, 57653, Note_on_c, 0, 78, 86
1, 57704, Note_off_c, 0, 78, 62
1, 57706, Note_off_c, 0, 90, 65
1, 57866, Note_off_c, 0, 62, 54
1, 57869, Note_off_c, 0, 60, 56
1, 57877, Note_off_c, 0, 57, 57
1, 57927, Note_on_c, 0, 83, 86
1, 57933, Note_on_c, 0, 71, 83
1, 57936, Note_off_c, 0, 66, 63
1, 58040, Note_off_c, 0, 71, 50
1, 58124, Note_off_c, 0, 83, 53
1, 58125, Control_c, 0, 64, 114
1, 58140, Control_c, 0, 64, 91
1, 58155, Control_c, 0, 64, 71
1, 58169, Control_c, 0, 64, 0
1, 58185, Note_on_c, 0, 84, 86
1, 58186, Note_on_c, 0, 66, 85
1, 58188, Note_on_c, 0, 72, 75
1, 58190, Note_on_c, 0, 62, 83
1, 58211, Note_off_c, 0, 72, 72
1, 58214, Control_c, 0, 64, 66
1, 58229, Note_off_c, 0, 84, 64
1, 58229, Control_c, 0, 64, 77
1, 58243, Control_c, 0, 64, 95
1, 58258, Control_c, 0, 64, 127
1, 58392, Control_c, 0, 64, 98
1, 58407, Control_c, 0, 64, 72
1, 58429, Control_c, 0, 64, 0
1, 58437, Note_on_c, 0, 67, 81
1, 58440, Note_on_c, 0, 63, 75
1, 58442, Note_on_c, 0, 91, 90
1, 58447, Note_on_c, 0, 79, 94
1, 58467, Note_off_c, 0, 66, 63
1, 58467, Note_off_c, 0, 62, 61
1, 58474, Control_c, 0, 64, 68
1, 58479, Note_off_c, 0, 79, 65
1, 58482, Note_off_c, 0, 91, 63
1, 58489, Note_off_c, 0, 63, 66
1, 58489, Control_c, 0, 64, 85
1, 58491, Note_off_c, 0, 67, 62
1, 58503, Control_c, 0, 64, 127
1, 58692, Note_on_c, 0, 67, 88
1, 58694, Note_on_c, 0, 83, 98
1, 58696, Control_c, 0, 64, 121
1, 58697, Note_on_c, 0, 64, 80
1, 58699, Note_on_c, 0, 71, 91
1, 58711, Control_c, 0, 64, 90
1, 58726, Control_c, 0, 64, 65
1, 58741, Control_c, 0, 64, 0
1, 58799, Note_off_c, 0, 71, 31
1, 58815, Control_c, 0, 64, 62
1, 58830, Control_c, 0, 64, 69
1, 58844, Control_c, 0, 64, 77
1, 58859, Control_c, 0, 64, 87
1, 58874, Control_c, 0, 64, 95
1, 58884, Note_off_c, 0, 83, 53
1, 58890, Control_c, 0, 64, 102
1, 58905, Control_c, 0, 64, 107
1, 58920, Control_c, 0, 64, 111
1, 58934, Control_c, 0, 64, 113
1, 58936, Note_on_c, 0, 84, 95
1, 58942, Note_on_c, 0, 72, 79
1, 58949, Control_c, 0, 64, 116
1, 58962, Note_off_c, 0, 72, 73
1, 58964, Control_c, 0, 64, 119
1, 58977, Note_off_c, 0, 84, 67
1, 58979, Control_c, 0, 64, 124
1, 58993, Control_c, 0, 64, 127
1, 59126, Control_c, 0, 64, 126
1, 59141, Control_c, 0, 64, 110
1, 59154, Note_off_c, 0, 67, 57
1, 59164, Control_c, 0, 64, 94
1, 59170, Note_off_c, 0, 64, 61
1, 59179, Control_c, 0, 64, 74
1, 59193, Control_c, 0, 64, 0
1, 59207, Note_on_c, 0, 92, 97
1, 59210, Note_on_c, 0, 80, 93
1, 59212, Note_on_c, 0, 68, 85
1, 59218, Note_on_c, 0, 65, 79
1, 59253, Control_c, 0, 64, 67
1, 59260, Note_off_c, 0, 80, 64
1, 59260, Note_off_c, 0, 92, 66
1, 59267, Control_c, 0, 64, 77
1, 59282, Control_c, 0, 64, 92
1, 59297, Control_c, 0, 64, 103
1, 59311, Control_c, 0, 64, 109
1, 59326, Control_c, 0, 64, 110
1, 59341, Control_c, 0, 64, 111
1, 59422, Note_off_c, 0, 68, 49
1, 59444, Note_on_c, 0, 88, 69
1, 59445, Note_off_c, 0, 65, 58
1, 59445, Control_c, 0, 64, 111
1, 59450, Note_on_c, 0, 76, 60
1, 59455, Note_on_c, 0, 70, 59
1, 59460, Control_c, 0, 64, 110
1, 59462, Note_on_c, 0, 67, 70
1, 59474, Control_c, 0, 64, 109
1, 59486, Note_off_c, 0, 70, 53
1, 59487, Note_off_c, 0, 76, 46
1, 59489, Control_c, 0, 64, 108
1, 59504, Control_c, 0, 64, 106
1, 59519, Control_c, 0, 64, 104
1, 59534, Control_c, 0, 64, 102
1, 59549, Control_c, 0, 64, 100
1, 59564, Control_c, 0, 64, 98
1, 59578, Control_c, 0, 64, 96
1, 59592, Control_c, 0, 64, 92
1, 59607, Control_c, 0, 64, 89
1, 59622, Control_c, 0, 64, 87
1, 59637, Control_c, 0, 64, 85
1, 59652, Control_c, 0, 64, 84
1, 59666, Control_c, 0, 64, 82
1, 59682, Control_c, 0, 64, 80
1, 59697, Control_c, 0, 64, 76
1, 59712, Control_c, 0, 64, 70
1, 59713, Note_off_c, 0, 67, 61
1, 59723, Note_on_c, 0, 68, 85
1, 59727, Control_c, 0, 64, 52
1, 59728, Note_off_c, 0, 88, 55
1, 59732, Note_on_c, 0, 89, 67
1, 59741, Control_c, 0, 64, 0
1, 59743, Note_on_c, 0, 77, 63
1, 59778, Note_off_c, 0, 89, 62
1, 59788, Note_off_c, 0, 77, 58
1, 59830, Control_c, 0, 64, 52
1, 59845, Control_c, 0, 64, 67
1, 59860, Control_c, 0, 64, 71
1, 59875, Control_c, 0, 64, 76
1, 59889, Control_c, 0, 64, 81
1, 59912, Control_c, 0, 64, 85
1, 59927, Control_c, 0, 64, 89
1, 59941, Control_c, 0, 64, 91
1, 59956, Control_c, 0, 64, 92
1, 59980, Note_off_c, 0, 68, 60
1, 59986, Control_c, 0, 64, 93
1, 59987, Note_on_c, 0, 64, 59
1, 60015, Control_c, 0, 64, 94
1, 60178, Control_c, 0, 64, 93
1, 60193, Control_c, 0, 64, 92
1, 60208, Control_c, 0, 64, 90
1, 60223, Control_c, 0, 64, 86
1, 60238, Control_c, 0, 64, 76
1, 60246, Note_on_c, 0, 61, 80
1, 60252, Note_off_c, 0, 64, 60
1, 60252, Control_c, 0, 64, 63
1, 60261, Note_on_c, 0, 65, 59
1, 60267, Control_c, 0, 64, 0
1, 60341, Control_c, 0, 64, 43
1, 60356, Control_c, 0, 64, 64
1, 60368, Note_off_c, 0, 65, 64
1, 60371, Control_c, 0, 64, 67
1, 60386, Control_c, 0, 64, 70
1, 60401, Control_c, 0, 64, 73
1, 60415, Control_c, 0, 64, 77
1, 60430, Control_c, 0, 64, 80
1, 60445, Control_c, 0, 64, 83
1, 60459, Control_c, 0, 64, 86
1, 60474, Control_c, 0, 64, 87
1, 60491, Control_c, 0, 64, 89
1, 60493, Note_on_c, 0, 58, 65
1, 60505, Control_c, 0, 64, 89
1, 60520, Control_c, 0, 64, 91
1, 60535, Control_c, 0, 64, 92
1, 60550, Control_c, 0, 64, 93
1, 60579, Control_c, 0, 64, 94
1, 60691, Control_c, 0, 64, 93
1, 60720, Control_c, 0, 64, 92
1, 60735, Control_c, 0, 64, 90
1, 60750, Control_c, 0, 64, 86
1, 60760, Note_on_c, 0, 56, 81
1, 60764, Control_c, 0, 64, 76
1, 60769, Note_on_c, 0, 59, 59
1, 60779, Control_c, 0, 64, 63
1, 60794, Note_off_c, 0, 58, 52
1, 60794, Control_c, 0, 64, 0
1, 60860, Note_off_c, 0, 59, 60
1, 60868, Control_c, 0, 64, 42
1, 60882, Control_c, 0, 64, 64
1, 60890, Note_off_c, 0, 61, 55
1, 60897, Control_c, 0, 64, 68
1, 60912, Control_c, 0, 64, 70
1, 60927, Control_c, 0, 64, 74
1, 60942, Control_c, 0, 64, 77
1, 60956, Control_c, 0, 64, 81
1, 60971, Control_c, 0, 64, 84
1, 60986, Control_c, 0, 64, 87
1, 61001, Control_c, 0, 64, 90
1, 61010, Note_on_c, 0, 54, 62
1, 61015, Note_off_c, 0, 56, 58
1, 61016, Control_c, 0, 64, 91
1, 61030, Control_c, 0, 64, 92
1, 61045, Control_c, 0, 64, 92
1, 61060, Control_c, 0, 64, 93
1, 61075, Control_c, 0, 64, 93
1, 61209, Control_c, 0, 64, 92
1, 61224, Control_c, 0, 64, 91
1, 61238, Control_c, 0, 64, 87
1, 61253, Control_c, 0, 64, 78
1, 61268, Control_c, 0, 64, 66
1, 61272, Note_on_c, 0, 51, 76
1, 61284, Control_c, 0, 64, 0
1, 61286, Note_on_c, 0, 55, 60
1, 61322, Note_off_c, 0, 54, 52
1, 61387, Control_c, 0, 64, 58
1, 61409, Control_c, 0, 64, 65
1, 61424, Control_c, 0, 64, 69
1, 61439, Control_c, 0, 64, 73
1, 61442, Note_off_c, 0, 55, 63
1, 61454, Control_c, 0, 64, 77
1, 61469, Control_c, 0, 64, 82
1, 61484, Control_c, 0, 64, 87
1, 61498, Control_c, 0, 64, 91
1, 61513, Control_c, 0, 64, 95
1, 61528, Control_c, 0, 64, 98
1, 61543, Control_c, 0, 64, 99
1, 61558, Control_c, 0, 64, 99
1, 61561, Note_on_c, 0, 47, 58
1, 61661, Control_c, 0, 64, 98
1, 61676, Control_c, 0, 64, 97
1, 61691, Control_c, 0, 64, 96
1, 61705, Control_c, 0, 64, 95
1, 61720, Control_c, 0, 64, 93
1, 61735, Control_c, 0, 64, 91
1, 61750, Control_c, 0, 64, 88
1, 61765, Control_c, 0, 64, 85
1, 61779, Control_c, 0, 64, 82
1, 61794, Control_c, 0, 64, 79
1, 61809, Control_c, 0, 64, 77
1, 61824, Control_c, 0, 64, 74
1, 61832, Note_on_c, 0, 48, 47
1, 61833, Note_on_c, 0, 44, 62
1, 61839, Control_c, 0, 64, 72
1, 61853, Control_c, 0, 64, 70
1, 61856, Note_off_c, 0, 47, 35
1, 61868, Control_c, 0, 64, 67
1, 61883, Control_c, 0, 64, 63
1, 61893, Note_off_c, 0, 51, 32
1, 61898, Control_c, 0, 64, 56
1, 61913, Control_c, 0, 64, 43
1, 61928, Control_c, 0, 64, 27
1, 61943, Control_c, 0, 64, 23
1, 61958, Control_c, 0, 64, 21
1, 61972, Control_c, 0, 64, 16
1, 61987, Control_c, 0, 64, 0
1, 62099, Note_off_c, 0, 48, 41
1, 62123, Note_on_c, 0, 42, 55
1, 62158, Control_c, 0, 64, 13
1, 62173, Control_c, 0, 64, 16
1, 62178, Note_off_c, 0, 44, 57
1, 62188, Control_c, 0, 64, 18
1, 62203, Control_c, 0, 64, 20
1, 62217, Control_c, 0, 64, 24
1, 62232, Control_c, 0, 64, 26
1, 62247, Control_c, 0, 64, 28
1, 62277, Control_c, 0, 64, 29
1, 62291, Control_c, 0, 64, 30
1, 62336, Control_c, 0, 64, 31
1, 62366, Control_c, 0, 64, 32
1, 62396, Control_c, 0, 64, 33
1, 62410, Control_c, 0, 64, 34
1, 62420, Note_on_c, 0, 43, 47
1, 62426, Note_off_c, 0, 42, 58
1, 62455, Control_c, 0, 64, 34
1, 62528, Control_c, 0, 64, 35
1, 62543, Control_c, 0, 64, 36
1, 62559, Control_c, 0, 64, 36
1, 62574, Control_c, 0, 64, 37
1, 62633, Control_c, 0, 64, 38
1, 62663, Control_c, 0, 64, 38
1, 62692, Control_c, 0, 64, 39
1, 62747, Note_on_c, 0, 36, 41
1, 62767, Note_off_c, 0, 43, 39
1, 62781, Control_c, 0, 64, 39
1, 62810, Control_c, 0, 64, 40
1, 62870, Control_c, 0, 64, 41
1, 62908, Control_c, 0, 64, 41
1, 62923, Control_c, 0, 64, 42
1, 62938, Control_c, 0, 64, 43
1, 62953, Control_c, 0, 64, 43
1, 62967, Control_c, 0, 64, 44
1, 62982, Control_c, 0, 64, 44
1, 62997, Control_c, 0, 64, 45
1, 63012, Control_c, 0, 64, 45
1, 63027, Control_c, 0, 64, 46
1, 63041, Control_c, 0, 64, 47
1, 63056, Control_c, 0, 64, 48
1, 63071, Control_c, 0, 64, 49
1, 63085, Control_c, 0, 64, 51
1, 63100, Control_c, 0, 64, 53
1, 63115, Control_c, 0, 64, 55
1, 63130, Control_c, 0, 64, 56
1, 63145, Control_c, 0, 64, 58
1, 63159, Control_c, 0, 64, 58
1, 63179, Note_off_c, 0, 36, 53
1, 63189, Control_c, 0, 64, 57
1, 63204, Control_c, 0, 64, 44
1, 63219, Control_c, 0, 64, 0
1, 63308, Control_c, 0, 64, 62
1, 63311, Note_on_c, 0, 87, 91
1, 63312, Note_on_c, 0, 75, 96
1, 63317, Note_on_c, 0, 79, 87
1, 63320, Note_on_c, 0, 48, 91
1, 63322, Note_on_c, 0, 36, 75
1, 63322, Control_c, 0, 64, 68
1, 63324, Note_on_c, 0, 84, 79
1, 63325, Note_on_c, 0, 43, 76
1, 63326, Note_on_c, 0, 39, 75
1, 63337, Control_c, 0, 64, 73
1, 63351, Control_c, 0, 64, 77
1, 63352, Note_off_c, 0, 48, 67
1, 63361, Note_off_c, 0, 43, 64
1, 63362, Note_off_c, 0, 75, 63
1, 63366, Control_c, 0, 64, 79
1, 63367, Note_off_c, 0, 39, 63
1, 63376, Note_off_c, 0, 79, 60
1, 63376, Note_off_c, 0, 36, 61
1, 63381, Control_c, 0, 64, 81
1, 63385, Note_off_c, 0, 87, 62
1, 63388, Note_off_c, 0, 84, 61
1, 63396, Control_c, 0, 64, 82
1, 63411, Control_c, 0, 64, 83
1, 63425, Control_c, 0, 64, 83
1, 63433, Note_on_c, 0, 75, 98
1, 63433, Note_on_c, 0, 48, 90
1, 63433, Note_on_c, 0, 79, 86
1, 63433, Note_on_c, 0, 84, 73
1, 63436, Note_on_c, 0, 87, 76
1, 63438, Note_on_c, 0, 36, 78
1, 63441, Note_on_c, 0, 39, 77
1, 63444, Note_on_c, 0, 43, 73
1, 63476, Note_off_c, 0, 43, 60
1, 63477, Note_off_c, 0, 48, 63
1, 63479, Note_off_c, 0, 39, 64
1, 63482, Note_off_c, 0, 75, 64
1, 63484, Control_c, 0, 64, 82
1, 63490, Note_off_c, 0, 79, 62
1, 63492, Note_off_c, 0, 87, 64
1, 63493, Note_off_c, 0, 36, 62
1, 63499, Control_c, 0, 64, 78
1, 63502, Note_off_c, 0, 84, 62
1, 63514, Control_c, 0, 64, 71
1, 63529, Control_c, 0, 64, 50
1, 63538, Note_on_c, 0, 79, 83
1, 63539, Note_on_c, 0, 84, 68
1, 63540, Note_on_c, 0, 75, 90
1, 63543, Note_on_c, 0, 87, 77
1, 63544, Note_on_c, 0, 48, 90
1, 63544, Control_c, 0, 64, 0
1, 63550, Note_on_c, 0, 39, 76
1, 63550, Note_on_c, 0, 42, 57
1, 63551, Note_off_c, 0, 42, 127
1, 63556, Note_on_c, 0, 36, 63
1, 63561, Note_on_c, 0, 43, 73
1, 63596, Note_off_c, 0, 48, 61
1, 63597, Note_off_c, 0, 43, 58
1, 63598, Note_off_c, 0, 36, 64
1, 63601, Note_off_c, 0, 39, 58
1, 63604, Note_off_c, 0, 75, 63
1, 63604, Note_off_c, 0, 87, 63
1, 63616, Note_off_c, 0, 79, 58
1, 63626, Note_off_c, 0, 84, 65
1, 63683, Note_on_c, 0, 87, 85
1, 63684, Note_on_c, 0, 75, 97
1, 63689, Note_on_c, 0, 48, 97
1, 63697, Note_on_c, 0, 39, 73
1, 63701, Note_on_c, 0, 36, 81
1, 63701, Control_c, 0, 64, 81
1, 63711, Note_off_c, 0, 87, 67
1, 63715, Control_c, 0, 64, 127
1, 63716, Note_on_c, 0, 79, 37
1, 63718, Note_off_c, 0, 75, 66
1, 63722, Note_off_c, 0, 39, 66
1, 63725, Note_off_c, 0, 48, 65
1, 63732, Note_off_c, 0, 36, 64
1, 63746, Note_off_c, 0, 79, 33
1, 63865, Note_on_c, 0, 60, 82
1, 63867, Note_on_c, 0, 55, 78
1, 63893, Control_c, 0, 64, 118
1, 63898, Note_off_c, 0, 60, 62
1, 63900, Note_off_c, 0, 55, 65
1, 63907, Control_c, 0, 64, 106
1, 63922, Control_c, 0, 64, 98
1, 63937, Control_c, 0, 64, 91
1, 63952, Control_c, 0, 64, 85
1, 63967, Control_c, 0, 64, 78
1, 63982, Control_c, 0, 64, 71
1, 63996, Note_on_c, 0, 63, 88
1, 63996, Control_c, 0, 64, 65
1, 63999, Note_on_c, 0, 51, 78
1, 64011, Control_c, 0, 64, 49
1, 64026, Control_c, 0, 64, 0
1, 64032, Note_off_c, 0, 63, 62
1, 64036, Note_off_c, 0, 51, 65
1, 64127, Note_on_c, 0, 67, 97
1, 64134, Note_on_c, 0, 48, 88
1, 64169, Note_off_c, 0, 67, 66
1, 64187, Note_off_c, 0, 48, 66
1, 64253, Note_on_c, 0, 63, 89
1, 64265, Note_on_c, 0, 51, 73
1, 64299, Note_off_c, 0, 63, 63
1, 64318, Note_off_c, 0, 51, 58
1, 64375, Note_on_c, 0, 67, 86
1, 64378, Note_on_c, 0, 48, 72
1, 64423, Note_off_c, 0, 48, 67
1, 64423, Note_off_c, 0, 67, 65
1, 64509, Note_on_c, 0, 62, 94
1, 64521, Note_on_c, 0, 47, 82
1, 64552, Note_off_c, 0, 62, 64
1, 64572, Note_off_c, 0, 47, 61
1, 64640, Note_on_c, 0, 67, 87
1, 64644, Note_on_c, 0, 59, 73
1, 64679, Note_off_c, 0, 59, 63
1, 64685, Note_off_c, 0, 67, 59
1, 64763, Note_on_c, 0, 62, 85
1, 64767, Note_on_c, 0, 55, 73
1, 64801, Note_off_c, 0, 62, 63
1, 64807, Note_off_c, 0, 55, 67
1, 64882, Note_on_c, 0, 50, 86
1, 64882, Note_on_c, 0, 71, 95
1, 64932, Note_off_c, 0, 71, 63
1, 64941, Note_off_c, 0, 50, 63
1, 65001, Note_on_c, 0, 67, 89
1, 65012, Note_on_c, 0, 55, 81
1, 65052, Note_off_c, 0, 67, 60
1, 65057, Note_off_c, 0, 55, 65
1, 65116, Note_on_c, 0, 71, 83
1, 65129, Note_on_c, 0, 50, 77
1, 65160, Note_off_c, 0, 71, 62
1, 65180, Note_off_c, 0, 50, 64
1, 65239, Note_on_c, 0, 67, 98
1, 65250, Note_on_c, 0, 59, 81
1, 65281, Note_off_c, 0, 67, 66
1, 65299, Note_off_c, 0, 59, 65
1, 65356, Note_on_c, 0, 74, 86
1, 65369, Note_on_c, 0, 55, 77
1, 65405, Note_off_c, 0, 74, 63
1, 65425, Note_off_c, 0, 55, 63
1, 65470, Note_on_c, 0, 67, 91
1, 65481, Note_on_c, 0, 59, 76
1, 65516, Note_off_c, 0, 67, 61
1, 65534, Note_off_c, 0, 59, 64
1, 65594, Note_on_c, 0, 64, 94
1, 65609, Note_on_c, 0, 58, 79
1, 65639, Note_off_c, 0, 64, 66
1, 65649, Note_off_c, 0, 58, 60
1, 65716, Note_on_c, 0, 67, 82
1, 65731, Note_on_c, 0, 55, 75
1, 65758, Note_off_c, 0, 67, 61
1, 65787, Note_off_c, 0, 55, 64
1, 65836, Note_on_c, 0, 58, 84
1, 65838, Note_on_c, 0, 64, 89
1, 65880, Note_off_c, 0, 58, 63
1, 65883, Note_off_c, 0, 64, 66
1, 65962, Note_on_c, 0, 55, 84
1, 65967, Note_on_c, 0, 73, 95
1, 66015, Note_off_c, 0, 55, 64
1, 66020, Note_off_c, 0, 73, 66
1, 66079, Note_on_c, 0, 67, 92
1, 66083, Note_on_c, 0, 52, 81
1, 66121, Note_off_c, 0, 67, 63
1, 66142, Note_off_c, 0, 52, 66
1, 66192, Note_on_c, 0, 73, 86
1, 66193, Note_on_c, 0, 55, 72
1, 66235, Note_off_c, 0, 55, 66
1, 66241, Note_off_c, 0, 73, 66
1, 66309, Note_on_c, 0, 67, 95
1, 66313, Note_on_c, 0, 52, 80
1, 66351, Note_off_c, 0, 67, 65
1, 66393, Note_off_c, 0, 52, 63
1, 66421, Note_on_c, 0, 76, 89
1, 66426, Note_on_c, 0, 46, 79
1, 66469, Note_off_c, 0, 76, 68
1, 66493, Note_off_c, 0, 46, 62
1, 66533, Note_on_c, 0, 67, 87
1, 66541, Note_on_c, 0, 52, 76
1, 66577, Note_off_c, 0, 67, 62
1, 66593, Note_off_c, 0, 52, 65
1, 66653, Note_on_c, 0, 65, 93
1, 66667, Note_on_c, 0, 57, 86
1, 66697, Note_off_c, 0, 65, 66
1, 66715, Note_off_c, 0, 57, 63
1, 66769, Note_on_c, 0, 69, 88
1, 66781, Note_on_c, 0, 53, 79
1, 66811, Note_off_c, 0, 69, 64
1, 66843, Note_off_c, 0, 53, 64
1, 66879, Note_on_c, 0, 65, 87
1, 66885, Note_on_c, 0, 57, 81
1, 66921, Note_off_c, 0, 65, 65
1, 66932, Note_off_c, 0, 57, 61
1, 66996, Note_on_c, 0, 72, 93
1, 66998, Note_on_c, 0, 53, 79
1, 67051, Note_off_c, 0, 72, 65
1, 67058, Note_off_c, 0, 53, 64
1, 67081, Control_c, 0, 64, 23
1, 67096, Control_c, 0, 64, 29
1, 67102, Note_on_c, 0, 69, 92
1, 67109, Note_on_c, 0, 48, 78
1, 67111, Control_c, 0, 64, 33
1, 67125, Control_c, 0, 64, 36
1, 67140, Control_c, 0, 64, 37
1, 67151, Note_off_c, 0, 69, 64
1, 67155, Control_c, 0, 64, 38
1, 67168, Note_off_c, 0, 48, 65
1, 67185, Control_c, 0, 64, 37
1, 67199, Control_c, 0, 64, 36
1, 67214, Control_c, 0, 64, 34
1, 67216, Note_on_c, 0, 72, 88
1, 67219, Note_on_c, 0, 53, 81
1, 67229, Control_c, 0, 64, 21
1, 67243, Control_c, 0, 64, 0
1, 67264, Note_off_c, 0, 72, 66
1, 67277, Note_off_c, 0, 53, 62
1, 67317, Note_on_c, 0, 69, 95
1, 67321, Note_on_c, 0, 48, 83
1, 67372, Note_off_c, 0, 69, 62
1, 67377, Control_c, 0, 64, 66
1, 67380, Note_off_c, 0, 48, 65
1, 67399, Control_c, 0, 64, 74
1, 67414, Control_c, 0, 64, 83
1, 67429, Control_c, 0, 64, 90
1, 67441, Note_on_c, 0, 77, 85
1, 67444, Note_on_c, 0, 45, 81
1, 67444, Control_c, 0, 64, 95
1, 67458, Control_c, 0, 64, 99
1, 67473, Control_c, 0, 64, 103
1, 67488, Control_c, 0, 64, 105
1, 67503, Control_c, 0, 64, 106
1, 67515, Note_off_c, 0, 77, 57
1, 67532, Note_off_c, 0, 45, 63
1, 67540, Note_on_c, 0, 48, 73
1, 67541, Note_on_c, 0, 69, 83
1, 67562, Control_c, 0, 64, 105
1, 67577, Control_c, 0, 64, 104
1, 67581, Note_off_c, 0, 69, 62
1, 67592, Control_c, 0, 64, 101
1, 67595, Note_off_c, 0, 48, 65
1, 67606, Control_c, 0, 64, 96
1, 67621, Control_c, 0, 64, 91
1, 67636, Control_c, 0, 64, 84
1, 67651, Control_c, 0, 64, 77
1, 67660, Note_on_c, 0, 56, 79
1, 67662, Note_on_c, 0, 66, 79
1, 67666, Control_c, 0, 64, 71
1, 67682, Control_c, 0, 64, 65
1, 67696, Control_c, 0, 64, 50
1, 67711, Control_c, 0, 64, 0
1, 67719, Note_off_c, 0, 56, 62
1, 67739, Note_off_c, 0, 66, 54
1, 67773, Note_on_c, 0, 51, 75
1, 67778, Note_on_c, 0, 72, 79
1, 67827, Note_off_c, 0, 72, 63
1, 67840, Note_off_c, 0, 51, 61
1, 67876, Note_on_c, 0, 66, 90
1, 67879, Note_on_c, 0, 56, 80
1, 67889, Control_c, 0, 64, 16
1, 67904, Control_c, 0, 64, 18
1, 67919, Control_c, 0, 64, 20
1, 67925, Note_off_c, 0, 56, 63
1, 67925, Note_off_c, 0, 66, 66
1, 67934, Control_c, 0, 64, 23
1, 67948, Control_c, 0, 64, 27
1, 67963, Control_c, 0, 64, 32
1, 67978, Control_c, 0, 64, 37
1, 67989, Note_on_c, 0, 75, 96
1, 67990, Note_on_c, 0, 48, 72
1, 67993, Control_c, 0, 64, 42
1, 68008, Control_c, 0, 64, 46
1, 68022, Control_c, 0, 64, 49
1, 68037, Control_c, 0, 64, 50
1, 68045, Note_off_c, 0, 48, 65
1, 68050, Note_off_c, 0, 75, 63
1, 68052, Control_c, 0, 64, 52
1, 68066, Control_c, 0, 64, 54
1, 68081, Control_c, 0, 64, 57
1, 68086, Note_on_c, 0, 66, 86
1, 68096, Control_c, 0, 64, 59
1, 68099, Note_on_c, 0, 51, 77
1, 68111, Control_c, 0, 64, 60
1, 68126, Control_c, 0, 64, 61
1, 68138, Note_off_c, 0, 66, 66
1, 68148, Control_c, 0, 64, 61
1, 68165, Note_off_c, 0, 51, 62
1, 68193, Control_c, 0, 64, 61
1, 68214, Note_on_c, 0, 48, 75
1, 68215, Note_on_c, 0, 75, 79
1, 68222, Control_c, 0, 64, 60
1, 68252, Control_c, 0, 64, 60
1, 68267, Note_off_c, 0, 48, 65
1, 68267, Control_c, 0, 64, 59
1, 68271, Note_off_c, 0, 75, 65
1, 68310, Note_on_c, 0, 72, 91
1, 68326, Control_c, 0, 64, 59
1, 68327, Note_on_c, 0, 51, 74
1, 68369, Note_off_c, 0, 72, 65
1, 68378, Note_off_c, 0, 51, 56
1, 68424, Note_on_c, 0, 78, 91
1, 68425, Note_on_c, 0, 48, 72
1, 68485, Note_off_c, 0, 48, 63
1, 68498, Note_off_c, 0, 78, 59
1, 68525, Note_on_c, 0, 44, 66
1, 68531, Note_on_c, 0, 72, 87
1, 68578, Note_off_c, 0, 44, 61
1, 68582, Note_off_c, 0, 72, 64
1, 68593, Control_c, 0, 64, 58
1, 68647, Note_on_c, 0, 79, 93
1, 68658, Note_on_c, 0, 43, 67
1, 68703, Note_off_c, 0, 43, 61
1, 68715, Note_off_c, 0, 79, 58
1, 68742, Control_c, 0, 64, 59
1, 68753, Note_on_c, 0, 55, 61
1, 68757, Control_c, 0, 64, 59
1, 68764, Note_on_c, 0, 71, 80
1, 68801, Control_c, 0, 64, 60
1, 68811, Note_off_c, 0, 71, 59
1, 68818, Note_off_c, 0, 55, 61
1, 68867, Note_on_c, 0, 53, 74
1, 68873, Note_on_c, 0, 80, 91
1, 68939, Note_off_c, 0, 53, 64
1, 68942, Control_c, 0, 64, 60
1, 68948, Note_off_c, 0, 80, 62
1, 68988, Note_on_c, 0, 74, 81
1, 68989, Note_on_c, 0, 56, 62
1, 69016, Control_c, 0, 64, 60
1, 69036, Note_off_c, 0, 74, 63
1, 69054, Note_off_c, 0, 56, 58
1, 69094, Note_on_c, 0, 50, 69
1, 69102, Note_on_c, 0, 83, 95
1, 69154, Note_off_c, 0, 50, 64
1, 69160, Note_off_c, 0, 83, 64
1, 69207, Note_on_c, 0, 77, 90
1, 69213, Note_on_c, 0, 53, 65
1, 69246, Note_off_c, 0, 77, 63
1, 69250, Note_off_c, 0, 53, 66
1, 69268, Control_c, 0, 64, 59
1, 69323, Note_on_c, 0, 86, 93
1, 69332, Note_on_c, 0, 47, 50
1, 69336, Note_on_c, 0, 45, 42
1, 69365, Note_off_c, 0, 45, 53
1, 69369, Note_off_c, 0, 47, 66
1, 69379, Note_off_c, 0, 86, 62
1, 69419, Note_on_c, 0, 80, 87
1, 69422, Note_on_c, 0, 50, 77
1, 69432, Control_c, 0, 64, 58
1, 69447, Control_c, 0, 64, 53
1, 69462, Control_c, 0, 64, 23
1, 69468, Note_off_c, 0, 80, 64
1, 69473, Note_off_c, 0, 50, 61
1, 69476, Control_c, 0, 64, 0
1, 69519, Note_on_c, 0, 89, 92
1, 69530, Note_on_c, 0, 44, 59
1, 69571, Note_off_c, 0, 89, 67
1, 69573, Note_off_c, 0, 44, 64
1, 69633, Note_on_c, 0, 83, 86
1, 69639, Control_c, 0, 64, 52
1, 69652, Note_on_c, 0, 43, 70
1, 69661, Control_c, 0, 64, 67
1, 69676, Control_c, 0, 64, 70
1, 69691, Control_c, 0, 64, 73
1, 69706, Control_c, 0, 64, 77
1, 69714, Note_off_c, 0, 43, 60
1, 69721, Control_c, 0, 64, 82
1, 69735, Control_c, 0, 64, 88
1, 69750, Control_c, 0, 64, 94
1, 69753, Note_on_c, 0, 53, 69
1, 69754, Note_off_c, 0, 83, 56
1, 69755, Note_on_c, 0, 92, 90
1, 69765, Control_c, 0, 64, 99
1, 69780, Control_c, 0, 64, 100
1, 69801, Note_off_c, 0, 53, 64
1, 69809, Note_off_c, 0, 92, 66
1, 69824, Control_c, 0, 64, 100
1, 69839, Control_c, 0, 64, 98
1, 69854, Control_c, 0, 64, 94
1, 69865, Note_on_c, 0, 91, 94
1, 69866, Note_on_c, 0, 55, 66
1, 69869, Control_c, 0, 64, 90
1, 69884, Control_c, 0, 64, 84
1, 69899, Control_c, 0, 64, 79
1, 69914, Control_c, 0, 64, 75
1, 69917, Note_off_c, 0, 91, 60
1, 69919, Note_off_c, 0, 55, 65
1, 69928, Control_c, 0, 64, 72
1, 69943, Control_c, 0, 64, 69
1, 69958, Control_c, 0, 64, 66
1, 69972, Note_on_c, 0, 89, 93
1, 69973, Control_c, 0, 64, 64
1, 69977, Note_on_c, 0, 56, 70
1, 69988, Control_c, 0, 64, 63
1, 70002, Control_c, 0, 64, 63
1, 70024, Note_off_c, 0, 89, 66
1, 70028, Note_off_c, 0, 56, 64
1, 70077, Note_on_c, 0, 86, 84
1, 70082, Note_on_c, 0, 59, 66
1, 70128, Note_off_c, 0, 86, 65
1, 70138, Note_off_c, 0, 59, 62
1, 70177, Note_on_c, 0, 60, 65
1, 70181, Control_c, 0, 64, 62
1, 70186, Note_on_c, 0, 87, 79
1, 70206, Note_off_c, 0, 60, 65
1, 70250, Note_off_c, 0, 87, 62
1, 70269, Control_c, 0, 64, 62
1, 70280, Note_on_c, 0, 53, 70
1, 70284, Control_c, 0, 64, 61
1, 70292, Note_on_c, 0, 80, 83
1, 70299, Control_c, 0, 64, 60
1, 70314, Control_c, 0, 64, 60
1, 70329, Control_c, 0, 64, 59
1, 70339, Note_off_c, 0, 53, 66
1, 70343, Control_c, 0, 64, 58
1, 70346, Note_off_c, 0, 80, 65
1, 70358, Control_c, 0, 64, 58
1, 70373, Control_c, 0, 64, 57
1, 70388, Control_c, 0, 64, 57
1, 70399, Note_on_c, 0, 77, 86
1, 70403, Note_on_c, 0, 56, 67
1, 70411, Control_c, 0, 64, 56
1, 70425, Control_c, 0, 64, 55
1, 70440, Control_c, 0, 64, 54
1, 70447, Note_off_c, 0, 77, 65
1, 70455, Control_c, 0, 64, 52
1, 70462, Note_off_c, 0, 56, 60
1, 70470, Control_c, 0, 64, 49
1, 70484, Control_c, 0, 64, 47
1, 70499, Control_c, 0, 64, 46
1, 70509, Note_on_c, 0, 79, 83
1, 70511, Note_on_c, 0, 55, 60
1, 70514, Control_c, 0, 64, 46
1, 70543, Control_c, 0, 64, 45
1, 70546, Note_off_c, 0, 55, 65
1, 70558, Control_c, 0, 64, 43
1, 70573, Note_off_c, 0, 79, 59
1, 70573, Control_c, 0, 64, 42
1, 70588, Control_c, 0, 64, 41
1, 70603, Control_c, 0, 64, 39
1, 70614, Note_on_c, 0, 72, 89
1, 70618, Control_c, 0, 64, 36
1, 70626, Note_on_c, 0, 48, 74
1, 70632, Control_c, 0, 64, 28
1, 70647, Control_c, 0, 64, 0
1, 70674, Note_off_c, 0, 72, 64
1, 70690, Note_off_c, 0, 48, 64
1, 70730, Note_on_c, 0, 51, 72
1, 70786, Note_off_c, 0, 51, 59
1, 70836, Note_on_c, 0, 47, 80
1, 70900, Note_off_c, 0, 47, 66
1, 70957, Note_on_c, 0, 48, 79
1, 71028, Note_off_c, 0, 48, 61
1, 71079, Note_on_c, 0, 39, 79
1, 71155, Note_off_c, 0, 39, 64
1, 71203, Note_on_c, 0, 43, 84
1, 71267, Note_off_c, 0, 43, 62
1, 71369, Note_on_c, 0, 36, 83
1, 71666, Note_off_c, 0, 36, 54
1, 71922, Control_c, 0, 64, 33
1, 71937, Control_c, 0, 64, 51
1, 71952, Control_c, 0, 64, 58
1, 71967, Control_c, 0, 64, 62
1, 71982, Control_c, 0, 64, 64
1, 71996, Control_c, 0, 64, 67
1, 72011, Control_c, 0, 64, 72
1, 72026, Control_c, 0, 64, 78
1, 72040, Control_c, 0, 64, 85
1, 72048, Note_on_c, 0, 36, 53
1, 72055, Control_c, 0, 64, 92
1, 72070, Control_c, 0, 64, 99
1, 72079, Note_off_c, 0, 36, 56
1, 72085, Control_c, 0, 64, 106
1, 72100, Control_c, 0, 64, 115
1, 72114, Control_c, 0, 64, 121
1, 72129, Control_c, 0, 64, 127
1, 72310, Note_on_c, 0, 51, 37
1, 72313, Note_on_c, 0, 48, 32
1, 72420, Note_off_c, 0, 51, 38
1, 72438, Note_off_c, 0, 48, 36
1, 72468, Note_on_c, 0, 79, 58
1, 72477, Note_on_c, 0, 67, 46
1, 72489, Note_on_c, 0, 55, 26
1, 72493, Note_on_c, 0, 43, 25
1, 72555, Note_off_c, 0, 55, 42
1, 72574, Note_off_c, 0, 67, 59
1, 72592, Note_on_c, 0, 51, 41
1, 72602, Note_on_c, 0, 48, 35
1, 72607, Note_off_c, 0, 43, 42
1, 72619, Note_off_c, 0, 79, 60
1, 72692, Note_off_c, 0, 48, 49
1, 72716, Note_off_c, 0, 51, 37
1, 72723, Note_on_c, 0, 77, 62
1, 72732, Note_on_c, 0, 55, 47
1, 72736, Note_on_c, 0, 65, 49
1, 72739, Note_on_c, 0, 43, 38
1, 72811, Note_off_c, 0, 55, 55
1, 72816, Note_off_c, 0, 65, 60
1, 72849, Note_on_c, 0, 51, 42
1, 72855, Note_on_c, 0, 48, 39
1, 72859, Note_off_c, 0, 43, 41
1, 72868, Note_off_c, 0, 77, 60
1, 72954, Note_off_c, 0, 48, 50
1, 72965, Note_off_c, 0, 51, 52
1, 72969, Note_on_c, 0, 55, 48
1, 72972, Note_on_c, 0, 75, 62
1, 72984, Note_on_c, 0, 43, 39
1, 72984, Note_on_c, 0, 63, 49
1, 73048, Note_off_c, 0, 55, 50
1, 73094, Note_on_c, 0, 48, 44
1, 73098, Note_off_c, 0, 43, 43
1, 73106, Note_off_c, 0, 63, 57
1, 73112, Note_on_c, 0, 51, 41
1, 73126, Note_off_c, 0, 75, 63
1, 73178, Note_off_c, 0, 48, 52
1, 73211, Note_off_c, 0, 51, 56
1, 73212, Note_on_c, 0, 74, 62
1, 73213, Note_on_c, 0, 55, 51
1, 73226, Note_on_c, 0, 43, 42
1, 73239, Note_on_c, 0, 62, 49
1, 73300, Note_off_c, 0, 55, 58
1, 73312, Note_off_c, 0, 62, 52
1, 73345, Note_on_c, 0, 48, 51
1, 73355, Note_off_c, 0, 74, 56
1, 73356, Note_on_c, 0, 51, 45
1, 73359, Note_off_c, 0, 43, 41
1, 73462, Note_off_c, 0, 48, 52
1, 73465, Note_on_c, 0, 55, 56
1, 73469, Note_off_c, 0, 51, 59
1, 73473, Note_on_c, 0, 72, 65
1, 73488, Note_on_c, 0, 60, 54
1, 73496, Note_on_c, 0, 43, 24
1, 73553, Note_off_c, 0, 55, 64
1, 73609, Note_off_c, 0, 43, 40
1, 73642, Control_c, 0, 64, 121
1, 73657, Control_c, 0, 64, 108
1, 73664, Note_off_c, 0, 60, 57
1, 73672, Control_c, 0, 64, 96
1, 73686, Control_c, 0, 64, 84
1, 73701, Control_c, 0, 64, 72
1, 73716, Control_c, 0, 64, 57
1, 73731, Control_c, 0, 64, 0
1, 73760, Control_c, 0, 64, 58
1, 73762, Note_off_c, 0, 72, 61
1, 73773, Note_on_c, 0, 31, 62
1, 73775, Control_c, 0, 64, 67
1, 73790, Control_c, 0, 64, 74
1, 73804, Control_c, 0, 64, 81
1, 73808, Note_off_c, 0, 31, 64
1, 73819, Control_c, 0, 64, 90
1, 73833, Control_c, 0, 64, 98
1, 73848, Control_c, 0, 64, 106
1, 73863, Control_c, 0, 64, 114
1, 73878, Control_c, 0, 64, 120
1, 73893, Control_c, 0, 64, 127
1, 74010, Note_on_c, 0, 50, 26
1, 74064, Poly_aftertouch_c, 0, 47, 127
1, 74122, Note_on_c, 0, 55, 50
1, 74126, Note_on_c, 0, 86, 67
1, 74128, Poly_aftertouch_c, 0, 47, 0
1, 74143, Note_off_c, 0, 50, 35
1, 74154, Note_on_c, 0, 74, 48
1, 74159, Note_on_c, 0, 43, 46
1, 74197, Note_off_c, 0, 55, 51
1, 74218, Note_off_c, 0, 74, 38
1, 74245, Note_off_c, 0, 43, 56
1, 74248, Note_on_c, 0, 47, 60
1, 74301, Note_on_c, 0, 50, 18
1, 74365, Note_off_c, 0, 86, 38
1, 74367, Note_off_c, 0, 50, 42
1, 74374, Note_off_c, 0, 47, 54
1, 74384, Note_on_c, 0, 55, 47
1, 74395, Note_on_c, 0, 84, 71
1, 74403, Note_on_c, 0, 43, 34
1, 74414, Note_on_c, 0, 72, 51
1, 74468, Note_off_c, 0, 55, 57
1, 74503, Note_off_c, 0, 43, 48
1, 74510, Note_on_c, 0, 47, 52
1, 74514, Note_off_c, 0, 72, 60
1, 74517, Note_on_c, 0, 50, 36
1, 74590, Note_off_c, 0, 84, 56
1, 74622, Note_off_c, 0, 47, 59
1, 74630, Note_on_c, 0, 55, 49
1, 74638, Note_on_c, 0, 43, 44
1, 74641, Note_on_c, 0, 83, 62
1, 74659, Note_off_c, 0, 50, 38
1, 74667, Note_on_c, 0, 71, 50
1, 74733, Note_off_c, 0, 55, 53
1, 74760, Note_off_c, 0, 43, 49
1, 74762, Note_off_c, 0, 71, 59
1, 74769, Note_on_c, 0, 47, 44
1, 74788, Note_on_c, 0, 50, 40
1, 74828, Note_off_c, 0, 83, 51
1, 74889, Note_off_c, 0, 47, 61
1, 74891, Note_on_c, 0, 81, 69
1, 74901, Note_on_c, 0, 55, 47
1, 74901, Note_on_c, 0, 43, 51
1, 74906, Note_on_c, 0, 69, 59
1, 74910, Note_off_c, 0, 50, 50
1, 74983, Note_off_c, 0, 55, 52
1, 75002, Note_off_c, 0, 43, 60
1, 75005, Note_off_c, 0, 69, 63
1, 75012, Note_on_c, 0, 47, 56
1, 75071, Note_off_c, 0, 81, 53
1, 75079, Note_on_c, 0, 50, 24
1, 75133, Note_off_c, 0, 47, 63
1, 75133, Note_on_c, 0, 79, 61
1, 75134, Note_off_c, 0, 50, 44
1, 75141, Note_on_c, 0, 55, 54
1, 75154, Note_on_c, 0, 67, 58
1, 75163, Note_on_c, 0, 43, 38
1, 75233, Note_off_c, 0, 55, 56
1, 75252, Note_off_c, 0, 43, 60
1, 75259, Note_on_c, 0, 47, 43
1, 75287, Control_c, 0, 64, 115
1, 75291, Note_off_c, 0, 47, 55
1, 75302, Control_c, 0, 64, 101
1, 75317, Control_c, 0, 64, 87
1, 75331, Note_off_c, 0, 67, 59
1, 75332, Control_c, 0, 64, 71
1, 75346, Control_c, 0, 64, 0
1, 75391, Control_c, 0, 64, 61
1, 75392, Note_on_c, 0, 36, 64
1, 75399, Note_off_c, 0, 79, 63
1, 75406, Control_c, 0, 64, 72
1, 75420, Control_c, 0, 64, 84
1, 75428, Note_off_c, 0, 36, 63
1, 75435, Control_c, 0, 64, 97
1, 75450, Control_c, 0, 64, 108
1, 75464, Control_c, 0, 64, 112
1, 75479, Control_c, 0, 64, 113
1, 75494, Control_c, 0, 64, 116
1, 75509, Control_c, 0, 64, 119
1, 75524, Control_c, 0, 64, 121
1, 75539, Control_c, 0, 64, 125
1, 75553, Control_c, 0, 64, 127
1, 75560, Note_on_c, 0, 46, 52
1, 75561, Note_on_c, 0, 48, 46
1, 75671, Note_off_c, 0, 48, 55
1, 75672, Note_off_c, 0, 46, 57
1, 75676, Note_on_c, 0, 73, 57
1, 75678, Note_on_c, 0, 85, 64
1, 75690, Note_on_c, 0, 52, 51
1, 75699, Note_on_c, 0, 43, 40
1, 75774, Note_off_c, 0, 52, 63
1, 75795, Note_off_c, 0, 43, 53
1, 75806, Note_on_c, 0, 46, 52
1, 75812, Note_on_c, 0, 48, 57
1, 75849, Note_off_c, 0, 85, 65
1, 75850, Note_off_c, 0, 73, 35
1, 75906, Note_off_c, 0, 46, 58
1, 75914, Note_off_c, 0, 48, 56
1, 75920, Note_on_c, 0, 43, 54
1, 75927, Note_on_c, 0, 52, 54
1, 75930, Note_on_c, 0, 84, 71
1, 75947, Note_on_c, 0, 72, 52
1, 76011, Note_off_c, 0, 52, 62
1, 76017, Note_off_c, 0, 72, 61
1, 76025, Note_off_c, 0, 43, 59
1, 76038, Note_off_c, 0, 84, 62
1, 76042, Note_on_c, 0, 46, 56
1, 76060, Note_on_c, 0, 48, 55
1, 76159, Note_off_c, 0, 48, 61
1, 76160, Note_on_c, 0, 82, 70
1, 76161, Note_off_c, 0, 46, 53
1, 76168, Note_on_c, 0, 52, 54
1, 76174, Note_on_c, 0, 70, 55
1, 76177, Note_on_c, 0, 43, 45
1, 76261, Note_off_c, 0, 52, 60
1, 76264, Note_off_c, 0, 43, 57
1, 76287, Note_on_c, 0, 48, 50
1, 76288, Note_off_c, 0, 70, 59
1, 76300, Note_on_c, 0, 46, 52
1, 76304, Note_off_c, 0, 82, 60
1, 76396, Note_off_c, 0, 46, 55
1, 76412, Note_on_c, 0, 81, 68
1, 76415, Note_on_c, 0, 43, 59
1, 76422, Note_on_c, 0, 52, 56
1, 76433, Note_on_c, 0, 69, 57
1, 76452, Note_off_c, 0, 48, 36
1, 76511, Note_off_c, 0, 52, 62
1, 76514, Note_off_c, 0, 69, 58
1, 76518, Note_off_c, 0, 43, 59
1, 76534, Note_on_c, 0, 46, 54
1, 76552, Note_off_c, 0, 81, 59
1, 76561, Note_on_c, 0, 48, 52
1, 76630, Note_off_c, 0, 46, 58
1, 76637, Note_off_c, 0, 48, 61
1, 76650, Note_on_c, 0, 52, 60
1, 76661, Note_on_c, 0, 43, 44
1, 76661, Note_on_c, 0, 79, 67
1, 76680, Note_on_c, 0, 67, 60
1, 76749, Note_off_c, 0, 52, 64
1, 76752, Note_on_c, 0, 46, 61
1, 76788, Note_off_c, 0, 46, 63
1, 76791, Note_off_c, 0, 43, 39
1, 76818, Poly_aftertouch_c, 0, 48, 127
1, 76829, Control_c, 0, 64, 127
1, 76844, Control_c, 0, 64, 106
1, 76849, Note_off_c, 0, 67, 54
1, 76854, Poly_aftertouch_c, 0, 48, 0
1, 76859, Control_c, 0, 64, 89
1, 76874, Control_c, 0, 64, 72
1, 76889, Control_c, 0, 64, 0
1, 76930, Note_off_c, 0, 79, 62
1, 76934, Control_c, 0, 64, 62
1, 76934, Note_on_c, 0, 29, 70
1, 76948, Control_c, 0, 64, 75
1, 76960, Note_off_c, 0, 29, 63
1, 76963, Control_c, 0, 64, 91
1, 76978, Control_c, 0, 64, 120
1, 76993, Control_c, 0, 64, 127
1, 77091, Note_on_c, 0, 48, 64
1, 77112, Note_on_c, 0, 45, 44
1, 77237, Note_off_c, 0, 48, 59
1, 77239, Note_on_c, 0, 84, 67
1, 77243, Note_off_c, 0, 45, 55
1, 77254, Note_on_c, 0, 53, 55
1, 77265, Note_on_c, 0, 72, 42
1, 77267, Note_on_c, 0, 41, 51
1, 77318, Note_off_c, 0, 72, 61
1, 77337, Note_off_c, 0, 53, 60
1, 77365, Note_off_c, 0, 41, 62
1, 77376, Note_off_c, 0, 84, 56
1, 77378, Note_on_c, 0, 45, 51
1, 77384, Note_on_c, 0, 48, 44
1, 77488, Note_on_c, 0, 53, 54
1, 77488, Note_off_c, 0, 45, 62
1, 77489, Note_on_c, 0, 82, 69
1, 77500, Note_off_c, 0, 48, 47
1, 77502, Note_on_c, 0, 41, 53
1, 77504, Note_on_c, 0, 70, 55
1, 77581, Note_off_c, 0, 53, 59
1, 77600, Note_off_c, 0, 41, 64
1, 77616, Note_on_c, 0, 45, 52
1, 77641, Note_off_c, 0, 70, 59
1, 77643, Note_on_c, 0, 48, 48
1, 77655, Note_off_c, 0, 82, 60
1, 77729, Note_off_c, 0, 45, 59
1, 77732, Note_off_c, 0, 48, 54
1, 77739, Note_on_c, 0, 81, 70
1, 77744, Note_on_c, 0, 53, 55
1, 77750, Note_on_c, 0, 41, 51
1, 77762, Note_on_c, 0, 69, 54
1, 77831, Note_off_c, 0, 53, 61
1, 77849, Note_off_c, 0, 69, 62
1, 77851, Note_off_c, 0, 41, 56
1, 77855, Note_on_c, 0, 45, 53
1, 77885, Note_on_c, 0, 48, 47
1, 77932, Note_off_c, 0, 81, 53
1, 77993, Note_on_c, 0, 79, 69
1, 77996, Note_on_c, 0, 53, 58
1, 77999, Note_on_c, 0, 41, 59
1, 77999, Note_off_c, 0, 45, 49
1, 78003, Note_on_c, 0, 67, 60
1, 78041, Note_off_c, 0, 48, 33
1, 78081, Note_off_c, 0, 53, 58
1, 78094, Note_off_c, 0, 41, 64
1, 78101, Note_on_c, 0, 45, 62
1, 78138, Note_off_c, 0, 67, 61
1, 78142, Note_on_c, 0, 48, 42
1, 78187, Note_off_c, 0, 79, 57
1, 78211, Note_off_c, 0, 45, 60
1, 78228, Note_off_c, 0, 48, 62
1, 78234, Note_on_c, 0, 53, 62
1, 78238, Note_on_c, 0, 41, 57
1, 78248, Note_on_c, 0, 77, 67
1, 78269, Note_on_c, 0, 65, 61
1, 78336, Note_on_c, 0, 45, 63
1, 78337, Note_off_c, 0, 41, 56
1, 78341, Note_off_c, 0, 53, 64
1, 78386, Control_c, 0, 64, 121
1, 78387, Note_off_c, 0, 45, 64
1, 78400, Control_c, 0, 64, 102
1, 78415, Control_c, 0, 64, 79
1, 78427, Note_off_c, 0, 65, 60
1, 78430, Control_c, 0, 64, 0
1, 78481, Note_on_c, 0, 38, 77
1, 78490, Control_c, 0, 64, 64
1, 78505, Control_c, 0, 64, 80
1, 78517, Note_off_c, 0, 38, 66
1, 78519, Control_c, 0, 64, 102
1, 78531, Note_off_c, 0, 77, 58
1, 78534, Control_c, 0, 64, 127
1, 78648, Note_on_c, 0, 50, 58
1, 78661, Note_on_c, 0, 48, 56
1, 78744, Note_off_c, 0, 48, 59
1, 78767, Note_on_c, 0, 87, 74
1, 78771, Note_on_c, 0, 75, 63
1, 78773, Note_off_c, 0, 50, 61
1, 78778, Note_on_c, 0, 54, 66
1, 78812, Note_on_c, 0, 45, 40
1, 78860, Note_off_c, 0, 54, 58
1, 78883, Note_on_c, 0, 48, 58
1, 78898, Note_off_c, 0, 45, 37
1, 78904, Note_on_c, 0, 50, 53
1, 78918, Note_off_c, 0, 75, 62
1, 78937, Note_off_c, 0, 87, 62
1, 79008, Note_off_c, 0, 48, 63
1, 79009, Note_off_c, 0, 50, 59
1, 79011, Note_on_c, 0, 54, 60
1, 79017, Note_on_c, 0, 86, 81
1, 79027, Note_on_c, 0, 74, 69
1, 79035, Note_on_c, 0, 45, 47
1, 79094, Note_off_c, 0, 54, 56
1, 79113, Note_off_c, 0, 45, 63
1, 79130, Note_off_c, 0, 74, 62
1, 79133, Note_on_c, 0, 48, 62
1, 79148, Note_on_c, 0, 50, 49
1, 79195, Note_off_c, 0, 86, 58
1, 79239, Note_off_c, 0, 48, 62
1, 79247, Note_on_c, 0, 54, 65
1, 79247, Note_off_c, 0, 50, 61
1, 79252, Note_on_c, 0, 84, 78
1, 79264, Note_on_c, 0, 72, 72
1, 79266, Note_on_c, 0, 45, 52
1, 79341, Note_off_c, 0, 45, 63
1, 79343, Note_off_c, 0, 54, 59
1, 79363, Note_on_c, 0, 48, 60
1, 79385, Note_on_c, 0, 50, 54
1, 79407, Note_off_c, 0, 72, 64
1, 79462, Note_off_c, 0, 84, 62
1, 79485, Note_off_c, 0, 48, 62
1, 79500, Note_on_c, 0, 54, 63
1, 79503, Note_off_c, 0, 50, 60
1, 79505, Note_on_c, 0, 45, 61
1, 79507, Note_on_c, 0, 83, 81
1, 79524, Note_on_c, 0, 71, 70
1, 79587, Note_off_c, 0, 45, 63
1, 79604, Note_off_c, 0, 54, 57
1, 79613, Note_on_c, 0, 48, 57
1, 79634, Note_on_c, 0, 50, 56
1, 79658, Note_off_c, 0, 71, 61
1, 79715, Note_off_c, 0, 83, 57
1, 79733, Note_off_c, 0, 48, 63
1, 79739, Note_on_c, 0, 54, 60
1, 79746, Note_off_c, 0, 50, 56
1, 79751, Note_on_c, 0, 45, 57
1, 79751, Note_on_c, 0, 81, 87
1, 79760, Note_on_c, 0, 69, 79
1, 79836, Note_off_c, 0, 54, 59
1, 79842, Note_off_c, 0, 45, 63
1, 79864, Note_on_c, 0, 48, 61
1, 79864, Note_on_c, 0, 50, 63
1, 79874, Note_off_c, 0, 69, 59
1, 79983, Note_off_c, 0, 81, 53
1, 79989, Control_c, 0, 64, 120
1, 80003, Control_c, 0, 64, 94
1, 80018, Control_c, 0, 64, 73
1, 80025, Note_on_c, 0, 83, 88
1, 80032, Note_on_c, 0, 71, 82
1, 80033, Control_c, 0, 64, 0
1, 80035, Note_off_c, 0, 48, 61
1, 80041, Note_on_c, 0, 55, 70
1, 80045, Note_on_c, 0, 43, 66
1, 80062, Note_off_c, 0, 50, 55
1, 80077, Control_c, 0, 64, 60
1, 80083, Note_off_c, 0, 71, 61
1, 80092, Control_c, 0, 64, 72
1, 80107, Control_c, 0, 64, 84
1, 80129, Control_c, 0, 64, 100
1, 80141, Note_off_c, 0, 83, 63
1, 80144, Control_c, 0, 64, 114
1, 80159, Control_c, 0, 64, 120
1, 80174, Control_c, 0, 64, 127
1, 80179, Note_off_c, 0, 55, 62
1, 80189, Note_off_c, 0, 43, 60
1, 80193, Note_on_c, 0, 47, 73
1, 80198, Note_on_c, 0, 50, 68
1, 80395, Control_c, 0, 64, 108
1, 80400, Note_on_c, 0, 92, 97
1, 80403, Note_on_c, 0, 80, 89
1, 80410, Control_c, 0, 64, 90
1, 80417, Note_on_c, 0, 53, 66
1, 80424, Note_off_c, 0, 47, 62
1, 80425, Control_c, 0, 64, 73
1, 80434, Note_on_c, 0, 41, 62
1, 80440, Control_c, 0, 64, 60
1, 80442, Note_off_c, 0, 50, 58
1, 80456, Control_c, 0, 64, 0
1, 80471, Control_c, 0, 64, 47
1, 80485, Control_c, 0, 64, 63
1, 80500, Control_c, 0, 64, 69
1, 80515, Control_c, 0, 64, 77
1, 80530, Control_c, 0, 64, 84
1, 80545, Control_c, 0, 64, 91
1, 80549, Note_off_c, 0, 41, 62
1, 80552, Note_off_c, 0, 53, 63
1, 80559, Control_c, 0, 64, 97
1, 80562, Note_on_c, 0, 47, 61
1, 80567, Note_on_c, 0, 50, 63
1, 80574, Control_c, 0, 64, 104
1, 80589, Control_c, 0, 64, 111
1, 80603, Control_c, 0, 64, 119
1, 80618, Control_c, 0, 64, 125
1, 80633, Control_c, 0, 64, 127
1, 80635, Note_off_c, 0, 92, 62
1, 80673, Note_off_c, 0, 80, 58
1, 80691, Note_on_c, 0, 53, 71
1, 80697, Note_on_c, 0, 41, 68
1, 80698, Note_off_c, 0, 47, 64
1, 80717, Note_off_c, 0, 50, 61
1, 80791, Note_off_c, 0, 41, 61
1, 80805, Note_off_c, 0, 53, 64
1, 80810, Note_on_c, 0, 47, 71
1, 80825, Note_on_c, 0, 50, 61
1, 80951, Note_on_c, 0, 91, 87
1, 80964, Note_on_c, 0, 79, 81
1, 80964, Note_off_c, 0, 47, 61
1, 80967, Note_on_c, 0, 55, 59
1, 80967, Control_c, 0, 64, 113
1, 80970, Note_on_c, 0, 43, 59
1, 80979, Note_off_c, 0, 50, 54
1, 80982, Control_c, 0, 64, 86
1, 80997, Control_c, 0, 64, 50
1, 81011, Control_c, 0, 64, 0
1, 81056, Control_c, 0, 64, 57
1, 81061, Note_off_c, 0, 55, 58
1, 81071, Control_c, 0, 64, 71
1, 81083, Note_on_c, 0, 47, 65
1, 81085, Control_c, 0, 64, 84
1, 81089, Note_off_c, 0, 43, 61
1, 81100, Control_c, 0, 64, 109
1, 81104, Note_off_c, 0, 79, 55
1, 81113, Note_on_c, 0, 50, 51
1, 81115, Control_c, 0, 64, 127
1, 81152, Note_off_c, 0, 91, 56
1, 81228, Note_on_c, 0, 89, 93
1, 81234, Note_on_c, 0, 77, 84
1, 81240, Note_on_c, 0, 44, 62
1, 81243, Note_on_c, 0, 56, 66
1, 81244, Note_off_c, 0, 47, 61
1, 81252, Note_off_c, 0, 50, 55
1, 81279, Control_c, 0, 64, 100
1, 81294, Control_c, 0, 64, 79
1, 81308, Control_c, 0, 64, 33
1, 81323, Control_c, 0, 64, 0
1, 81339, Note_off_c, 0, 56, 60
1, 81353, Note_off_c, 0, 44, 63
1, 81365, Note_on_c, 0, 50, 48
1, 81368, Note_on_c, 0, 47, 57
1, 81382, Control_c, 0, 64, 66
1, 81390, Note_off_c, 0, 77, 55
1, 81397, Control_c, 0, 64, 78
1, 81412, Control_c, 0, 64, 95
1, 81426, Control_c, 0, 64, 120
1, 81441, Control_c, 0, 64, 127
1, 81488, Note_on_c, 0, 91, 89
1, 81494, Note_on_c, 0, 79, 83
1, 81494, Note_off_c, 0, 89, 60
1, 81494, Note_off_c, 0, 47, 62
1, 81496, Note_on_c, 0, 55, 65
1, 81499, Note_on_c, 0, 43, 65
1, 81507, Note_off_c, 0, 50, 60
1, 81559, Note_off_c, 0, 79, 55
1, 81584, Note_off_c, 0, 55, 60
1, 81605, Control_c, 0, 64, 122
1, 81617, Note_off_c, 0, 43, 60
1, 81620, Control_c, 0, 64, 106
1, 81620, Note_on_c, 0, 47, 59
1, 81640, Note_on_c, 0, 50, 54
1, 81641, Control_c, 0, 64, 94
1, 81656, Control_c, 0, 64, 82
1, 81668, Note_off_c, 0, 91, 57
1, 81671, Control_c, 0, 64, 68
1, 81686, Control_c, 0, 64, 48
1, 81701, Control_c, 0, 64, 50
1, 81715, Control_c, 0, 64, 65
1, 81730, Control_c, 0, 64, 71
1, 81740, Note_on_c, 0, 92, 84
1, 81744, Note_on_c, 0, 80, 74
1, 81745, Control_c, 0, 64, 79
1, 81760, Control_c, 0, 64, 90
1, 81772, Note_on_c, 0, 53, 61
1, 81775, Control_c, 0, 64, 98
1, 81781, Note_on_c, 0, 41, 60
1, 81785, Note_off_c, 0, 47, 49
1, 81789, Control_c, 0, 64, 106
1, 81804, Control_c, 0, 64, 111
1, 81810, Note_off_c, 0, 50, 37
1, 81819, Control_c, 0, 64, 114
1, 81834, Control_c, 0, 64, 115
1, 81849, Control_c, 0, 64, 115
1, 81864, Control_c, 0, 64, 112
1, 81868, Note_off_c, 0, 53, 65
1, 81870, Note_off_c, 0, 41, 64
1, 81879, Control_c, 0, 64, 104
1, 81888, Note_on_c, 0, 47, 59
1, 81892, Note_off_c, 0, 92, 63
1, 81894, Control_c, 0, 64, 91
1, 81894, Note_off_c, 0, 80, 60
1, 81895, Note_on_c, 0, 50, 49
1, 81908, Control_c, 0, 64, 75
1, 81923, Control_c, 0, 64, 47
1, 81938, Control_c, 0, 64, 0
1, 81987, Note_on_c, 0, 91, 78
1, 81996, Note_on_c, 0, 79, 70
1, 81997, Control_c, 0, 64, 64
1, 81999, Note_off_c, 0, 47, 62
1, 82012, Control_c, 0, 64, 72
1, 82013, Note_on_c, 0, 55, 63
1, 82016, Note_off_c, 0, 50, 61
1, 82018, Note_on_c, 0, 43, 57
1, 82026, Control_c, 0, 64, 81
1, 82040, Control_c, 0, 64, 92
1, 82056, Control_c, 0, 64, 106
1, 82071, Control_c, 0, 64, 120
1, 82086, Control_c, 0, 64, 127
1, 82101, Note_off_c, 0, 55, 62
1, 82108, Note_off_c, 0, 79, 49
1, 82120, Note_off_c, 0, 43, 60
1, 82129, Note_on_c, 0, 47, 59
1, 82156, Note_on_c, 0, 50, 49
1, 82165, Note_off_c, 0, 91, 56
1, 82175, Control_c, 0, 64, 107
1, 82190, Control_c, 0, 64, 90
1, 82204, Control_c, 0, 64, 75
1, 82219, Control_c, 0, 64, 63
1, 82234, Control_c, 0, 64, 38
1, 82240, Note_on_c, 0, 89, 74
1, 82246, Note_off_c, 0, 47, 59
1, 82249, Control_c, 0, 64, 61
1, 82251, Note_on_c, 0, 77, 59
1, 82258, Note_on_c, 0, 56, 64
1, 82258, Note_off_c, 0, 50, 52
1, 82262, Note_on_c, 0, 44, 61
1, 82263, Control_c, 0, 64, 69
1, 82278, Control_c, 0, 64, 78
1, 82293, Control_c, 0, 64, 88
1, 82308, Control_c, 0, 64, 97
1, 82322, Note_off_c, 0, 77, 55
1, 82323, Control_c, 0, 64, 103
1, 82324, Note_off_c, 0, 56, 61
1, 82338, Control_c, 0, 64, 104
1, 82352, Note_off_c, 0, 44, 61
1, 82365, Note_on_c, 0, 47, 58
1, 82375, Control_c, 0, 64, 103
1, 82387, Note_on_c, 0, 50, 57
1, 82390, Control_c, 0, 64, 98
1, 82404, Control_c, 0, 64, 87
1, 82419, Control_c, 0, 64, 72
1, 82424, Note_off_c, 0, 89, 56
1, 82434, Control_c, 0, 64, 0
1, 82483, Note_on_c, 0, 92, 81
1, 82493, Control_c, 0, 64, 31
1, 82496, Note_on_c, 0, 80, 63
1, 82496, Note_off_c, 0, 47, 58
1, 82504, Note_on_c, 0, 53, 57
1, 82508, Control_c, 0, 64, 66
1, 82511, Note_on_c, 0, 41, 61
1, 82512, Note_off_c, 0, 50, 54
1, 82523, Control_c, 0, 64, 76
1, 82538, Control_c, 0, 64, 90
1, 82553, Control_c, 0, 64, 103
1, 82567, Control_c, 0, 64, 116
1, 82582, Control_c, 0, 64, 120
1, 82588, Note_off_c, 0, 92, 65
1, 82592, Note_off_c, 0, 41, 64
1, 82596, Note_off_c, 0, 53, 64
1, 82612, Control_c, 0, 64, 117
1, 82616, Note_on_c, 0, 47, 58
1, 82616, Note_off_c, 0, 80, 60
1, 82619, Note_on_c, 0, 50, 50
1, 82627, Control_c, 0, 64, 103
1, 82642, Control_c, 0, 64, 86
1, 82656, Control_c, 0, 64, 69
1, 82671, Control_c, 0, 64, 0
1, 82707, Note_off_c, 0, 47, 56
1, 82714, Note_on_c, 0, 91, 70
1, 82716, Control_c, 0, 64, 63
1, 82728, Note_on_c, 0, 79, 66
1, 82730, Control_c, 0, 64, 73
1, 82745, Control_c, 0, 64, 85
1, 82748, Note_on_c, 0, 55, 67
1, 82749, Note_on_c, 0, 43, 58
1, 82759, Note_off_c, 0, 50, 55
1, 82760, Control_c, 0, 64, 100
1, 82774, Control_c, 0, 64, 115
1, 82790, Control_c, 0, 64, 127
1, 82830, Note_on_c, 0, 47, 59
1, 82833, Note_off_c, 0, 55, 64
1, 82850, Note_off_c, 0, 43, 60
1, 82863, Note_off_c, 0, 47, 65
1, 82869, Note_off_c, 0, 79, 60
1, 82872, Poly_aftertouch_c, 0, 50, 0
1, 82896, Poly_aftertouch_c, 0, 50, 0
1, 82910, Control_c, 0, 64, 114
1, 82911, Note_off_c, 0, 91, 55
1, 82925, Control_c, 0, 64, 93
1, 82940, Control_c, 0, 64, 75
1, 82954, Control_c, 0, 64, 44
1, 82969, Control_c, 0, 64, 0
1, 82981, Note_on_c, 0, 89, 72
1, 82990, Note_on_c, 0, 77, 64
1, 82998, Control_c, 0, 64, 59
1, 83001, Note_on_c, 0, 59, 48
1, 83013, Note_on_c, 0, 47, 41
1, 83013, Control_c, 0, 64, 72
1, 83028, Control_c, 0, 64, 84
1, 83043, Control_c, 0, 64, 99
1, 83058, Control_c, 0, 64, 110
1, 83072, Control_c, 0, 64, 114
1, 83086, Note_off_c, 0, 77, 54
1, 83087, Control_c, 0, 64, 117
1, 83102, Control_c, 0, 64, 122
1, 83107, Note_off_c, 0, 47, 56
1, 83125, Control_c, 0, 64, 127
1, 83127, Note_on_c, 0, 50, 48
1, 83133, Note_off_c, 0, 59, 34
1, 83140, Note_on_c, 0, 55, 57
1, 83146, Note_off_c, 0, 89, 57
1, 83173, Note_off_c, 0, 50, 60
1, 83198, Control_c, 0, 64, 116
1, 83213, Control_c, 0, 64, 107
1, 83228, Control_c, 0, 64, 98
1, 83243, Control_c, 0, 64, 88
1, 83258, Note_off_c, 0, 55, 61
1, 83258, Control_c, 0, 64, 80
1, 83266, Note_on_c, 0, 60, 59
1, 83272, Control_c, 0, 64, 73
1, 83280, Note_on_c, 0, 87, 70
1, 83281, Note_on_c, 0, 75, 59
1, 83287, Control_c, 0, 64, 68
1, 83302, Control_c, 0, 64, 63
1, 83310, Note_off_c, 0, 60, 58
1, 83317, Control_c, 0, 64, 56
1, 83332, Control_c, 0, 64, 42
1, 83346, Control_c, 0, 64, 34
1, 83367, Note_on_c, 0, 48, 58
1, 83378, Note_off_c, 0, 75, 60
1, 83391, Control_c, 0, 64, 32
1, 83405, Control_c, 0, 64, 29
1, 83422, Note_off_c, 0, 87, 63
1, 83435, Control_c, 0, 64, 31
1, 83450, Control_c, 0, 64, 36
1, 83457, Note_off_c, 0, 48, 65
1, 83465, Control_c, 0, 64, 39
1, 83480, Control_c, 0, 64, 40
1, 83510, Note_on_c, 0, 55, 52
1, 83515, Note_on_c, 0, 86, 65
1, 83545, Note_on_c, 0, 74, 50
1, 83554, Control_c, 0, 64, 41
1, 83566, Note_off_c, 0, 55, 56
1, 83569, Control_c, 0, 64, 42
1, 83584, Control_c, 0, 64, 45
1, 83598, Control_c, 0, 64, 48
1, 83613, Control_c, 0, 64, 50
1, 83622, Note_off_c, 0, 74, 46
1, 83626, Note_on_c, 0, 43, 56
1, 83628, Control_c, 0, 64, 51
1, 83643, Control_c, 0, 64, 52
1, 83673, Control_c, 0, 64, 51
1, 83708, Note_off_c, 0, 43, 62
1, 83719, Note_off_c, 0, 86, 53
1, 83733, Control_c, 0, 64, 52
1, 83748, Control_c, 0, 64, 53
1, 83757, Note_on_c, 0, 48, 55
1, 83763, Control_c, 0, 64, 53
1, 83766, Note_on_c, 0, 84, 66
1, 83788, Note_on_c, 0, 72, 34
1, 83816, Note_off_c, 0, 48, 57
1, 83866, Control_c, 0, 64, 54
1, 83882, Note_on_c, 0, 36, 50
1, 83888, Control_c, 0, 64, 55
1, 83903, Control_c, 0, 64, 55
1, 83903, Note_off_c, 0, 72, 47
1, 83971, Note_off_c, 0, 84, 53
1, 83982, Note_off_c, 0, 36, 62
1, 84037, Note_on_c, 0, 83, 55
1, 84071, Note_on_c, 0, 71, 29
1, 84072, Poly_aftertouch_c, 0, 43, 127
1, 84081, Control_c, 0, 64, 55
1, 84095, Control_c, 0, 64, 54
1, 84125, Control_c, 0, 64, 54
1, 84179, Note_on_c, 0, 31, 42
1, 84184, Control_c, 0, 64, 53
1, 84197, Note_off_c, 0, 71, 39
1, 84198, Poly_aftertouch_c, 0, 43, 0
1, 84199, Control_c, 0, 64, 53
1, 84214, Control_c, 0, 64, 52
1, 84228, Control_c, 0, 64, 50
1, 84243, Control_c, 0, 64, 48
1, 84258, Control_c, 0, 64, 47
1, 84273, Control_c, 0, 64, 47
1, 84288, Control_c, 0, 64, 46
1, 84302, Control_c, 0, 64, 46
1, 84317, Control_c, 0, 64, 44
1, 84332, Control_c, 0, 64, 39
1, 84347, Control_c, 0, 64, 27
1, 84356, Note_off_c, 0, 83, 55
1, 84362, Control_c, 0, 64, 0
1, 84381, Note_off_c, 0, 31, 41
1, 84387, Note_on_c, 0, 84, 51
1, 84410, Note_on_c, 0, 72, 31
1, 84413, Note_on_c, 0, 36, 35
1, 84511, Control_c, 0, 64, 50
1, 84526, Control_c, 0, 64, 59
1, 84541, Control_c, 0, 64, 63
1, 84556, Control_c, 0, 64, 65
1, 84571, Control_c, 0, 64, 69
1, 84582, Note_off_c, 0, 36, 57
1, 84586, Control_c, 0, 64, 73
1, 84600, Control_c, 0, 64, 80
1, 84607, Note_off_c, 0, 84, 59
1, 84615, Control_c, 0, 64, 87
1, 84637, Control_c, 0, 64, 97
1, 84651, Control_c, 0, 64, 106
1, 84666, Note_off_c, 0, 72, 41
1, 84666, Control_c, 0, 64, 115
1, 84681, Control_c, 0, 64, 125
1, 84696, Control_c, 0, 64, 127
1, 84845, Control_c, 0, 64, 118
1, 84859, Control_c, 0, 64, 102
1, 84874, Control_c, 0, 64, 89
1, 84889, Control_c, 0, 64, 78
1, 84904, Control_c, 0, 64, 71
1, 84918, Control_c, 0, 64, 68
1, 84919, Note_on_c, 0, 36, 50
1, 84933, Control_c, 0, 64, 69
1, 84948, Control_c, 0, 64, 72
1, 84952, Note_off_c, 0, 36, 65
1, 84963, Control_c, 0, 64, 77
1, 84977, Control_c, 0, 64, 83
1, 84992, Control_c, 0, 64, 89
1, 85007, Control_c, 0, 64, 94
1, 85022, Control_c, 0, 64, 98
1, 85036, Control_c, 0, 64, 101
1, 85050, Control_c, 0, 64, 105
1, 85065, Control_c, 0, 64, 110
1, 85080, Control_c, 0, 64, 115
1, 85095, Control_c, 0, 64, 120
1, 85110, Control_c, 0, 64, 126
1, 85119, Note_on_c, 0, 67, 50
1, 85124, Control_c, 0, 64, 127
1, 85134, Note_on_c, 0, 48, 39
1, 85134, Note_on_c, 0, 63, 26
1, 85137, Note_on_c, 0, 51, 39
1, 85224, Note_off_c, 0, 63, 0
1, 85239, Note_off_c, 0, 48, 49
1, 85253, Note_off_c, 0, 67, 50
1, 85256, Note_on_c, 0, 72, 65
1, 85257, Note_off_c, 0, 51, 56
1, 85267, Note_on_c, 0, 55, 57
1, 85269, Note_on_c, 0, 60, 53
1, 85274, Note_on_c, 0, 43, 50
1, 85277, Poly_aftertouch_c, 0, 63, 0
1, 85338, Note_off_c, 0, 55, 41
1, 85343, Note_off_c, 0, 72, 60
1, 85353, Note_off_c, 0, 60, 49
1, 85362, Note_off_c, 0, 43, 59
1, 85380, Note_on_c, 0, 48, 54
1, 85383, Note_on_c, 0, 67, 59
1, 85395, Note_on_c, 0, 51, 55
1, 85399, Note_on_c, 0, 63, 33
1, 85418, Note_off_c, 0, 67, 65
1, 85435, Note_off_c, 0, 63, 47
1, 85462, Note_off_c, 0, 48, 57
1, 85466, Note_off_c, 0, 51, 45
1, 85504, Note_on_c, 0, 75, 75
1, 85510, Note_on_c, 0, 63, 65
1, 85518, Note_on_c, 0, 55, 70
1, 85525, Note_on_c, 0, 43, 58
1, 85546, Note_off_c, 0, 63, 64
1, 85561, Note_off_c, 0, 75, 66
1, 85602, Note_off_c, 0, 43, 60
1, 85608, Note_off_c, 0, 55, 56
1, 85614, Note_on_c, 0, 72, 66
1, 85620, Note_on_c, 0, 51, 58
1, 85626, Note_on_c, 0, 48, 57
1, 85665, Note_off_c, 0, 72, 62
1, 85668, Poly_aftertouch_c, 0, 67, 127
1, 85700, Note_off_c, 0, 48, 59
1, 85700, Poly_aftertouch_c, 0, 67, 0
1, 85742, Note_on_c, 0, 79, 85
1, 85744, Note_on_c, 0, 55, 76
1, 85745, Note_on_c, 0, 67, 72
1, 85754, Note_on_c, 0, 43, 63
1, 85764, Note_off_c, 0, 51, 29
1, 85796, Note_off_c, 0, 67, 43
1, 85840, Note_off_c, 0, 43, 59
1, 85840, Note_off_c, 0, 55, 37
1, 85858, Note_on_c, 0, 75, 69
1, 85860, Note_off_c, 0, 79, 60
1, 85863, Note_on_c, 0, 48, 60
1, 85864, Note_on_c, 0, 51, 64
1, 85872, Note_on_c, 0, 72, 36
1, 85903, Note_off_c, 0, 72, 46
1, 85907, Note_off_c, 0, 75, 64
1, 85931, Note_off_c, 0, 48, 60
1, 85963, Note_off_c, 0, 51, 0
1, 85975, Note_on_c, 0, 84, 86
1, 85976, Note_on_c, 0, 72, 82
1, 85982, Note_on_c, 0, 55, 81
1, 85990, Note_on_c, 0, 43, 72
1, 85999, Poly_aftertouch_c, 0, 51, 127
1, 86041, Poly_aftertouch_c, 0, 51, 0
1, 86043, Note_off_c, 0, 55, 57
1, 86078, Note_off_c, 0, 43, 60
1, 86081, Note_off_c, 0, 72, 60
1, 86095, Note_off_c, 0, 84, 61
1, 86097, Note_on_c, 0, 75, 66
1, 86097, Note_on_c, 0, 51, 57
1, 86099, Note_on_c, 0, 48, 63
1, 86119, Note_on_c, 0, 79, 69
1, 86130, Note_off_c, 0, 75, 68
1, 86155, Note_off_c, 0, 79, 60
1, 86219, Note_off_c, 0, 48, 58
1, 86222, Note_on_c, 0, 55, 83
1, 86225, Note_on_c, 0, 87, 90
1, 86227, Note_on_c, 0, 75, 86
1, 86232, Note_on_c, 0, 43, 67
1, 86246, Note_off_c, 0, 51, 56
1, 86303, Note_off_c, 0, 87, 66
1, 86312, Note_off_c, 0, 75, 54
1, 86323, Note_off_c, 0, 55, 61
1, 86332, Note_off_c, 0, 43, 61
1, 86335, Note_on_c, 0, 48, 65
1, 86344, Note_on_c, 0, 51, 50
1, 86355, Note_on_c, 0, 84, 69
1, 86358, Note_on_c, 0, 79, 50
1, 86362, Note_off_c, 0, 48, 68
1, 86368, Note_off_c, 0, 51, 54
1, 86445, Control_c, 0, 64, 112
1, 86460, Control_c, 0, 64, 86
1, 86475, Control_c, 0, 64, 66
1, 86481, Note_off_c, 0, 84, 59
1, 86490, Control_c, 0, 64, 0
1, 86490, Note_off_c, 0, 79, 55
1, 86519, Control_c, 0, 64, 10
1, 86524, Note_on_c, 0, 86, 89
1, 86531, Note_on_c, 0, 74, 86
1, 86534, Control_c, 0, 64, 69
1, 86542, Note_on_c, 0, 33, 77
1, 86549, Note_on_c, 0, 43, 65
1, 86549, Control_c, 0, 64, 86
1, 86550, Note_on_c, 0, 45, 61
1, 86564, Control_c, 0, 64, 114
1, 86574, Note_off_c, 0, 45, 64
1, 86575, Note_off_c, 0, 33, 66
1, 86577, Note_off_c, 0, 43, 57
1, 86578, Control_c, 0, 64, 127
1, 86638, Note_off_c, 0, 86, 57
1, 86693, Note_off_c, 0, 74, 36
1, 86697, Note_on_c, 0, 83, 53
1, 86702, Note_on_c, 0, 79, 53
1, 86717, Note_off_c, 0, 83, 61
1, 86720, Note_on_c, 0, 50, 54
1, 86723, Note_off_c, 0, 79, 58
1, 86726, Note_on_c, 0, 47, 48
1, 86804, Note_on_c, 0, 83, 81
1, 86818, Note_on_c, 0, 71, 77
1, 86850, Note_on_c, 0, 55, 62
1, 86866, Note_off_c, 0, 47, 52
1, 86867, Note_off_c, 0, 50, 37
1, 86885, Note_off_c, 0, 55, 66
1, 86903, Note_on_c, 0, 43, 40
1, 86929, Note_off_c, 0, 83, 56
1, 86937, Note_off_c, 0, 71, 29
1, 86943, Note_on_c, 0, 79, 61
1, 86945, Note_on_c, 0, 74, 58
1, 86953, Note_on_c, 0, 47, 56
1, 86961, Note_on_c, 0, 50, 48
1, 86965, Note_off_c, 0, 43, 60
1, 86973, Note_off_c, 0, 74, 69
1, 86976, Note_off_c, 0, 79, 63
1, 87001, Control_c, 0, 64, 120
1, 87016, Control_c, 0, 64, 107
1, 87031, Control_c, 0, 64, 94
1, 87045, Control_c, 0, 64, 90
1, 87054, Note_on_c, 0, 79, 87
1, 87058, Note_on_c, 0, 67, 87
1, 87060, Control_c, 0, 64, 90
1, 87070, Note_on_c, 0, 55, 78
1, 87070, Note_off_c, 0, 47, 55
1, 87072, Note_on_c, 0, 43, 66
1, 87075, Control_c, 0, 64, 90
1, 87105, Control_c, 0, 64, 91
1, 87113, Note_off_c, 0, 50, 37
1, 87119, Control_c, 0, 64, 91
1, 87134, Control_c, 0, 64, 92
1, 87143, Note_off_c, 0, 79, 58
1, 87149, Control_c, 0, 64, 92
1, 87150, Note_off_c, 0, 55, 55
1, 87161, Note_off_c, 0, 67, 59
1, 87164, Note_off_c, 0, 43, 61
1, 87174, Note_on_c, 0, 47, 68
1, 87175, Note_on_c, 0, 74, 50
1, 87188, Note_on_c, 0, 50, 48
1, 87194, Control_c, 0, 64, 90
1, 87197, Note_off_c, 0, 74, 62
1, 87209, Control_c, 0, 64, 88
1, 87224, Control_c, 0, 64, 87
1, 87253, Control_c, 0, 64, 88
1, 87268, Control_c, 0, 64, 91
1, 87269, Note_on_c, 0, 74, 84
1, 87272, Note_on_c, 0, 55, 71
1, 87278, Note_on_c, 0, 62, 85
1, 87281, Note_off_c, 0, 47, 58
1, 87282, Note_on_c, 0, 43, 70
1, 87283, Control_c, 0, 64, 95
1, 87292, Note_off_c, 0, 50, 58
1, 87298, Control_c, 0, 64, 100
1, 87313, Control_c, 0, 64, 103
1, 87327, Control_c, 0, 64, 103
1, 87328, Note_off_c, 0, 62, 55
1, 87334, Note_off_c, 0, 55, 59
1, 87342, Control_c, 0, 64, 104
1, 87357, Control_c, 0, 64, 104
1, 87368, Note_off_c, 0, 43, 60
1, 87371, Control_c, 0, 64, 105
1, 87374, Note_off_c, 0, 74, 64
1, 87386, Control_c, 0, 64, 106
1, 87387, Note_on_c, 0, 67, 57
1, 87390, Note_on_c, 0, 47, 66
1, 87391, Note_on_c, 0, 71, 57
1, 87400, Note_on_c, 0, 50, 49
1, 87401, Control_c, 0, 64, 107
1, 87409, Note_off_c, 0, 67, 64
1, 87414, Note_off_c, 0, 71, 62
1, 87416, Control_c, 0, 64, 107
1, 87431, Control_c, 0, 64, 108
1, 87445, Control_c, 0, 64, 109
1, 87460, Control_c, 0, 64, 109
1, 87475, Control_c, 0, 64, 110
1, 87490, Control_c, 0, 64, 111
1, 87494, Note_on_c, 0, 71, 84
1, 87496, Note_on_c, 0, 55, 74
1, 87501, Note_on_c, 0, 43, 74
1, 87501, Note_on_c, 0, 59, 83
1, 87503, Note_off_c, 0, 47, 39
1, 87505, Control_c, 0, 64, 111
1, 87519, Control_c, 0, 64, 112
1, 87520, Note_off_c, 0, 50, 53
1, 87535, Note_off_c, 0, 59, 60
1, 87556, Note_off_c, 0, 55, 61
1, 87563, Control_c, 0, 64, 112
1, 87593, Control_c, 0, 64, 113
1, 87604, Note_on_c, 0, 67, 75
1, 87608, Note_off_c, 0, 71, 57
1, 87611, Note_on_c, 0, 62, 57
1, 87621, Note_off_c, 0, 43, 60
1, 87629, Note_on_c, 0, 47, 57
1, 87631, Control_c, 0, 64, 113
1, 87651, Note_off_c, 0, 62, 62
1, 87662, Control_c, 0, 64, 114
1, 87665, Note_off_c, 0, 67, 61
1, 87676, Control_c, 0, 64, 116
1, 87683, Note_on_c, 0, 55, 69
1, 87691, Control_c, 0, 64, 118
1, 87693, Note_on_c, 0, 50, 34
1, 87706, Control_c, 0, 64, 119
1, 87708, Note_off_c, 0, 55, 67
1, 87721, Control_c, 0, 64, 120
1, 87729, Note_off_c, 0, 50, 64
1, 87736, Control_c, 0, 64, 121
1, 87737, Note_on_c, 0, 67, 83
1, 87739, Note_off_c, 0, 47, 64
1, 87749, Note_on_c, 0, 55, 76
1, 87750, Control_c, 0, 64, 122
1, 87765, Control_c, 0, 64, 123
1, 87780, Control_c, 0, 64, 124
1, 87781, Note_off_c, 0, 55, 64
1, 87809, Control_c, 0, 64, 124
1, 87824, Control_c, 0, 64, 125
1, 87841, Note_off_c, 0, 67, 61
1, 87851, Note_on_c, 0, 59, 59
1, 87854, Note_on_c, 0, 62, 63
1, 87883, Control_c, 0, 64, 124
1, 87898, Control_c, 0, 64, 119
1, 87902, Note_off_c, 0, 59, 62
1, 87913, Control_c, 0, 64, 109
1, 87924, Note_off_c, 0, 62, 62
1, 87928, Control_c, 0, 64, 95
1, 87942, Control_c, 0, 64, 77
1, 87957, Control_c, 0, 64, 25
1, 87972, Control_c, 0, 64, 0
1, 87995, Note_on_c, 0, 48, 87
1, 87998, Note_on_c, 0, 36, 78
1, 88017, Control_c, 0, 64, 62
1, 88031, Control_c, 0, 64, 75
1, 88031, Note_off_c, 0, 36, 68
1, 88042, Note_off_c, 0, 48, 65
1, 88046, Control_c, 0, 64, 90
1, 88060, Control_c, 0, 64, 108
1, 88075, Control_c, 0, 64, 113
1, 88134, Control_c, 0, 64, 114
1, 88149, Control_c, 0, 64, 116
1, 88157, Note_on_c, 0, 70, 77
1, 88164, Control_c, 0, 64, 118
1, 88167, Note_on_c, 0, 67, 62
1, 88174, Note_on_c, 0, 48, 63
1, 88175, Note_on_c, 0, 46, 72
1, 88179, Control_c, 0, 64, 121
1, 88193, Control_c, 0, 64, 122
1, 88208, Control_c, 0, 64, 123
1, 88223, Control_c, 0, 64, 124
1, 88231, Note_off_c, 0, 67, 61
1, 88261, Note_off_c, 0, 46, 59
1, 88266, Note_off_c, 0, 48, 54
1, 88279, Note_on_c, 0, 76, 79
1, 88282, Note_on_c, 0, 64, 70
1, 88282, Note_off_c, 0, 70, 61
1, 88284, Note_on_c, 0, 52, 72
1, 88285, Note_on_c, 0, 43, 66
1, 88341, Control_c, 0, 64, 124
1, 88355, Note_off_c, 0, 52, 60
1, 88356, Control_c, 0, 64, 125
1, 88379, Control_c, 0, 64, 126
1, 88385, Note_off_c, 0, 64, 34
1, 88389, Note_on_c, 0, 46, 64
1, 88389, Note_off_c, 0, 43, 60
1, 88390, Note_on_c, 0, 67, 61
1, 88391, Note_on_c, 0, 70, 78
1, 88392, Note_on_c, 0, 48, 71
1, 88393, Note_off_c, 0, 76, 61
1, 88393, Control_c, 0, 64, 127
1, 88408, Control_c, 0, 64, 127
1, 88418, Note_off_c, 0, 67, 65
1, 88437, Note_off_c, 0, 70, 59
1, 88496, Note_off_c, 0, 46, 51
1, 88505, Note_off_c, 0, 48, 54
1, 88506, Note_on_c, 0, 79, 91
1, 88507, Note_on_c, 0, 52, 79
1, 88508, Note_on_c, 0, 67, 86
1, 88509, Note_on_c, 0, 43, 73
1, 88528, Control_c, 0, 64, 127
1, 88558, Control_c, 0, 64, 126
1, 88572, Control_c, 0, 64, 125
1, 88585, Note_off_c, 0, 52, 59
1, 88587, Control_c, 0, 64, 124
1, 88602, Control_c, 0, 64, 124
1, 88604, Note_off_c, 0, 67, 33
1, 88607, Note_off_c, 0, 79, 59
1, 88612, Note_on_c, 0, 70, 67
1, 88619, Note_on_c, 0, 48, 75
1, 88622, Note_on_c, 0, 46, 69
1, 88623, Note_off_c, 0, 43, 60
1, 88629, Note_on_c, 0, 76, 61
1, 88643, Note_off_c, 0, 70, 61
1, 88664, Note_off_c, 0, 76, 66
1, 88720, Control_c, 0, 64, 125
1, 88735, Control_c, 0, 64, 127
1, 88738, Note_on_c, 0, 52, 82
1, 88738, Note_on_c, 0, 70, 79
1, 88738, Note_on_c, 0, 43, 78
1, 88745, Note_off_c, 0, 46, 55
1, 88750, Control_c, 0, 64, 127
1, 88758, Note_on_c, 0, 82, 39
1, 88759, Note_off_c, 0, 48, 55
1, 88762, Note_off_c, 0, 70, 68
1, 88779, Note_on_c, 0, 83, 36
1, 88795, Note_off_c, 0, 82, 50
1, 88813, Note_off_c, 0, 83, 51
1, 88835, Note_off_c, 0, 52, 55
1, 88836, Note_on_c, 0, 76, 55
1, 88851, Note_on_c, 0, 79, 60
1, 88857, Note_on_c, 0, 48, 74
1, 88863, Note_off_c, 0, 43, 60
1, 88865, Note_on_c, 0, 46, 62
1, 88866, Note_off_c, 0, 76, 67
1, 88881, Note_off_c, 0, 79, 64
1, 88971, Note_on_c, 0, 89, 74
1, 88972, Note_on_c, 0, 43, 81
1, 88976, Note_on_c, 0, 76, 73
1, 88976, Note_on_c, 0, 88, 78
1, 88976, Note_on_c, 0, 77, 73
1, 88977, Note_on_c, 0, 52, 81
1, 88989, Note_off_c, 0, 48, 59
1, 88991, Note_off_c, 0, 46, 49
1, 89002, Note_off_c, 0, 76, 66
1, 89009, Note_off_c, 0, 89, 59
1, 89036, Note_off_c, 0, 77, 37
1, 89090, Note_off_c, 0, 52, 59
1, 89093, Note_off_c, 0, 88, 62
1, 89094, Note_on_c, 0, 79, 55
1, 89106, Note_on_c, 0, 48, 73
1, 89119, Note_on_c, 0, 83, 49
1, 89121, Note_on_c, 0, 46, 63
1, 89121, Note_off_c, 0, 79, 60
1, 89124, Note_off_c, 0, 43, 60
1, 89140, Note_off_c, 0, 83, 58
1, 89210, Note_on_c, 0, 91, 97
1, 89212, Note_on_c, 0, 79, 89
1, 89230, Note_on_c, 0, 43, 75
1, 89232, Control_c, 0, 64, 126
1, 89233, Note_on_c, 0, 52, 78
1, 89242, Note_off_c, 0, 46, 59
1, 89243, Note_off_c, 0, 48, 63
1, 89248, Control_c, 0, 64, 126
1, 89263, Control_c, 0, 64, 125
1, 89306, Note_off_c, 0, 52, 62
1, 89332, Note_off_c, 0, 79, 60
1, 89334, Note_on_c, 0, 46, 71
1, 89337, Note_on_c, 0, 82, 68
1, 89340, Note_off_c, 0, 43, 61
1, 89346, Note_off_c, 0, 91, 51
1, 89349, Note_on_c, 0, 48, 40
1, 89352, Control_c, 0, 64, 126
1, 89352, Note_on_c, 0, 88, 63
1, 89362, Note_off_c, 0, 46, 65
1, 89373, Note_off_c, 0, 48, 62
1, 89411, Control_c, 0, 64, 125
1, 89426, Control_c, 0, 64, 116
1, 89440, Control_c, 0, 64, 102
1, 89444, Note_off_c, 0, 88, 59
1, 89449, Note_off_c, 0, 82, 60
1, 89455, Control_c, 0, 64, 84
1, 89470, Control_c, 0, 64, 62
1, 89485, Control_c, 0, 64, 0
1, 89504, Note_on_c, 0, 89, 87
1, 89513, Note_on_c, 0, 77, 89
1, 89514, Control_c, 0, 64, 36
1, 89520, Note_on_c, 0, 41, 89
1, 89524, Note_on_c, 0, 29, 79
1, 89529, Control_c, 0, 64, 72
1, 89544, Control_c, 0, 64, 89
1, 89552, Note_off_c, 0, 41, 69
1, 89557, Note_off_c, 0, 29, 65
1, 89558, Control_c, 0, 64, 119
1, 89573, Control_c, 0, 64, 127
1, 89602, Note_off_c, 0, 89, 59
1, 89638, Note_off_c, 0, 77, 55
1, 89665, Note_on_c, 0, 81, 67
1, 89680, Note_on_c, 0, 84, 58
1, 89692, Note_on_c, 0, 48, 57
1, 89692, Note_off_c, 0, 81, 66
1, 89695, Note_on_c, 0, 45, 63
1, 89698, Note_off_c, 0, 84, 65
1, 89784, Note_on_c, 0, 84, 86
1, 89788, Note_on_c, 0, 72, 86
1, 89803, Note_on_c, 0, 53, 70
1, 89821, Note_off_c, 0, 45, 64
1, 89827, Note_off_c, 0, 48, 62
1, 89835, Note_off_c, 0, 72, 63
1, 89838, Note_on_c, 0, 41, 57
1, 89844, Note_off_c, 0, 84, 68
1, 89895, Note_on_c, 0, 81, 68
1, 89907, Note_on_c, 0, 77, 56
1, 89907, Note_off_c, 0, 53, 62
1, 89924, Note_on_c, 0, 45, 58
1, 89926, Note_off_c, 0, 77, 60
1, 89926, Note_off_c, 0, 41, 64
1, 89926, Note_off_c, 0, 81, 61
1, 89933, Note_on_c, 0, 48, 47
1, 90017, Note_on_c, 0, 81, 91
1, 90023, Note_on_c, 0, 69, 88
1, 90026, Note_on_c, 0, 53, 78
1, 90032, Note_on_c, 0, 41, 72
1, 90046, Note_off_c, 0, 48, 54
1, 90066, Note_off_c, 0, 45, 40
1, 90072, Note_off_c, 0, 69, 65
1, 90104, Note_off_c, 0, 53, 50
1, 90118, Note_off_c, 0, 81, 58
1, 90120, Note_on_c, 0, 72, 62
1, 90131, Note_off_c, 0, 41, 64
1, 90132, Note_on_c, 0, 77, 56
1, 90143, Note_on_c, 0, 45, 54
1, 90146, Note_off_c, 0, 72, 68
1, 90148, Note_on_c, 0, 48, 50
1, 90157, Note_off_c, 0, 77, 62
1, 90240, Note_off_c, 0, 45, 50
1, 90241, Note_on_c, 0, 53, 75
1, 90241, Note_on_c, 0, 65, 84
1, 90241, Note_on_c, 0, 77, 79
1, 90249, Note_on_c, 0, 41, 74
1, 90261, Note_off_c, 0, 48, 59
1, 90263, Note_on_c, 0, 76, 65
1, 90288, Note_off_c, 0, 76, 38
1, 90293, Note_off_c, 0, 65, 60
1, 90305, Note_off_c, 0, 53, 62
1, 90320, Note_off_c, 0, 77, 48
1, 90340, Note_on_c, 0, 69, 62
1, 90340, Note_on_c, 0, 72, 63
1, 90340, Note_off_c, 0, 41, 64
1, 90358, Note_on_c, 0, 45, 62
1, 90359, Note_on_c, 0, 48, 57
1, 90366, Note_off_c, 0, 69, 71
1, 90369, Note_off_c, 0, 72, 67
1, 90441, Note_off_c, 0, 45, 55
1, 90457, Note_on_c, 0, 60, 82
1, 90458, Note_on_c, 0, 72, 87
1, 90464, Note_on_c, 0, 53, 77
1, 90467, Note_on_c, 0, 41, 74
1, 90482, Note_off_c, 0, 48, 57
1, 90509, Note_off_c, 0, 60, 58
1, 90522, Note_off_c, 0, 53, 61
1, 90548, Note_off_c, 0, 72, 62
1, 90556, Note_off_c, 0, 41, 64
1, 90556, Note_on_c, 0, 69, 67
1, 90563, Note_on_c, 0, 65, 61
1, 90570, Note_on_c, 0, 45, 66
1, 90576, Note_on_c, 0, 48, 52
1, 90589, Note_off_c, 0, 69, 64
1, 90592, Note_off_c, 0, 65, 68
1, 90683, Note_on_c, 0, 69, 95
1, 90689, Note_on_c, 0, 57, 77
1, 90692, Note_on_c, 0, 53, 76
1, 90702, Note_on_c, 0, 41, 71
1, 90710, Note_off_c, 0, 57, 69
1, 90723, Note_off_c, 0, 53, 59
1, 90735, Note_off_c, 0, 48, 64
1, 90739, Note_off_c, 0, 45, 63
1, 90764, Note_off_c, 0, 41, 65
1, 90800, Note_on_c, 0, 65, 65
1, 90804, Note_on_c, 0, 60, 48
1, 90804, Note_off_c, 0, 69, 56
1, 90828, Note_off_c, 0, 60, 64
1, 90850, Control_c, 0, 64, 106
1, 90857, Note_off_c, 0, 65, 64
1, 90865, Control_c, 0, 64, 83
1, 90880, Control_c, 0, 64, 58
1, 90894, Control_c, 0, 64, 0
1, 90921, Note_on_c, 0, 38, 80
1, 90939, Control_c, 0, 64, 69
1, 90954, Control_c, 0, 64, 94
1, 90968, Note_off_c, 0, 38, 62
1, 90968, Control_c, 0, 64, 127
1, 91077, Note_on_c, 0, 50, 60
1, 91082, Note_on_c, 0, 48, 60
1, 91083, Note_on_c, 0, 69, 81
1, 91087, Note_on_c, 0, 66, 74
1, 91142, Note_off_c, 0, 66, 63
1, 91173, Note_off_c, 0, 48, 64
1, 91194, Note_on_c, 0, 72, 80
1, 91196, Note_on_c, 0, 54, 76
1, 91196, Note_on_c, 0, 60, 79
1, 91206, Note_off_c, 0, 50, 55
1, 91216, Note_off_c, 0, 69, 54
1, 91233, Note_on_c, 0, 45, 46
1, 91251, Note_off_c, 0, 60, 59
1, 91269, Note_off_c, 0, 54, 57
1, 91286, Note_off_c, 0, 72, 62
1, 91296, Note_on_c, 0, 69, 75
1, 91299, Note_on_c, 0, 66, 64
1, 91299, Note_on_c, 0, 48, 67
1, 91305, Note_off_c, 0, 45, 64
1, 91310, Note_on_c, 0, 50, 60
1, 91325, Note_off_c, 0, 66, 69
1, 91329, Note_off_c, 0, 69, 64
1, 91400, Note_off_c, 0, 48, 60
1, 91409, Note_on_c, 0, 66, 86
1, 91411, Note_on_c, 0, 78, 92
1, 91417, Note_on_c, 0, 54, 82
1, 91430, Note_off_c, 0, 50, 59
1, 91438, Note_on_c, 0, 45, 61
1, 91465, Note_off_c, 0, 66, 63
1, 91486, Note_off_c, 0, 78, 62
1, 91488, Note_off_c, 0, 54, 59
1, 91516, Note_off_c, 0, 45, 63
1, 91519, Note_on_c, 0, 72, 73
1, 91528, Note_on_c, 0, 48, 67
1, 91528, Note_on_c, 0, 69, 55
1, 91532, Note_on_c, 0, 50, 68
1, 91551, Note_off_c, 0, 69, 64
1, 91569, Note_off_c, 0, 72, 62
1, 91569, Control_c, 0, 64, 118
1, 91584, Control_c, 0, 64, 101
1, 91599, Control_c, 0, 64, 94
1, 91613, Control_c, 0, 64, 93
1, 91615, Note_off_c, 0, 48, 57
1, 91628, Control_c, 0, 64, 95
1, 91629, Note_on_c, 0, 69, 87
1, 91636, Note_on_c, 0, 81, 81
1, 91641, Note_on_c, 0, 54, 87
1, 91644, Control_c, 0, 64, 101
1, 91645, Note_on_c, 0, 79, 77
1, 91648, Note_on_c, 0, 45, 71
1, 91649, Note_off_c, 0, 50, 59
1, 91659, Control_c, 0, 64, 117
1, 91674, Control_c, 0, 64, 127
1, 91675, Note_off_c, 0, 69, 65
1, 91704, Note_off_c, 0, 54, 59
1, 91741, Note_on_c, 0, 72, 55
1, 91743, Note_off_c, 0, 45, 62
1, 91751, Note_off_c, 0, 81, 57
1, 91752, Note_on_c, 0, 50, 74
1, 91752, Note_on_c, 0, 48, 66
1, 91754, Note_off_c, 0, 79, 56
1, 91758, Note_on_c, 0, 77, 66
1, 91764, Note_off_c, 0, 72, 63
1, 91790, Note_off_c, 0, 77, 61
1, 91822, Control_c, 0, 64, 102
1, 91836, Control_c, 0, 64, 84
1, 91851, Control_c, 0, 64, 72
1, 91860, Note_on_c, 0, 72, 82
1, 91861, Note_on_c, 0, 54, 87
1, 91866, Note_on_c, 0, 84, 90
1, 91866, Control_c, 0, 64, 68
1, 91872, Note_off_c, 0, 48, 37
1, 91872, Note_off_c, 0, 50, 57
1, 91873, Note_on_c, 0, 45, 67
1, 91881, Control_c, 0, 64, 71
1, 91896, Control_c, 0, 64, 80
1, 91907, Note_off_c, 0, 72, 65
1, 91910, Control_c, 0, 64, 96
1, 91925, Control_c, 0, 64, 115
1, 91940, Control_c, 0, 64, 127
1, 91960, Note_off_c, 0, 54, 53
1, 91962, Note_off_c, 0, 84, 62
1, 91966, Note_off_c, 0, 45, 63
1, 91973, Note_on_c, 0, 50, 76
1, 91989, Note_on_c, 0, 48, 62
1, 92024, Note_on_c, 0, 80, 13
1, 92067, Note_off_c, 0, 80, 35
1, 92098, Note_on_c, 0, 78, 97
1, 92101, Note_on_c, 0, 54, 84
1, 92101, Note_on_c, 0, 90, 90
1, 92103, Control_c, 0, 64, 89
1, 92118, Note_off_c, 0, 48, 58
1, 92120, Note_off_c, 0, 50, 61
1, 92125, Note_on_c, 0, 45, 70
1, 92125, Control_c, 0, 64, 62
1, 92140, Control_c, 0, 64, 0
1, 92155, Control_c, 0, 64, 58
1, 92169, Control_c, 0, 64, 72
1, 92184, Control_c, 0, 64, 85
1, 92187, Note_off_c, 0, 90, 64
1, 92199, Control_c, 0, 64, 108
1, 92214, Control_c, 0, 64, 127
1, 92218, Note_off_c, 0, 78, 54
1, 92226, Note_off_c, 0, 54, 61
1, 92235, Note_on_c, 0, 81, 60
1, 92235, Note_off_c, 0, 45, 62
1, 92239, Note_on_c, 0, 50, 70
1, 92247, Note_on_c, 0, 84, 53
1, 92254, Note_on_c, 0, 48, 55
1, 92290, Note_off_c, 0, 81, 61
1, 92300, Note_off_c, 0, 84, 61
1, 92348, Control_c, 0, 64, 102
1, 92362, Control_c, 0, 64, 78
1, 92369, Note_on_c, 0, 91, 94
1, 92377, Note_on_c, 0, 55, 90
1, 92377, Note_on_c, 0, 79, 85
1, 92377, Control_c, 0, 64, 0
1, 92381, Note_off_c, 0, 48, 61
1, 92385, Note_on_c, 0, 43, 83
1, 92407, Note_off_c, 0, 50, 63
1, 92422, Control_c, 0, 64, 57
1, 92437, Control_c, 0, 64, 73
1, 92452, Control_c, 0, 64, 88
1, 92467, Control_c, 0, 64, 110
1, 92473, Note_off_c, 0, 79, 60
1, 92482, Control_c, 0, 64, 127
1, 92485, Note_off_c, 0, 91, 58
1, 92511, Note_off_c, 0, 55, 59
1, 92532, Note_on_c, 0, 83, 69
1, 92533, Note_off_c, 0, 43, 60
1, 92534, Note_on_c, 0, 47, 70
1, 92536, Note_on_c, 0, 50, 66
1, 92539, Note_on_c, 0, 86, 66
1, 92600, Control_c, 0, 64, 111
1, 92615, Control_c, 0, 64, 90
1, 92628, Note_off_c, 0, 86, 60
1, 92630, Control_c, 0, 64, 71
1, 92645, Control_c, 0, 64, 0
1, 92652, Note_on_c, 0, 92, 94
1, 92653, Note_on_c, 0, 80, 94
1, 92657, Note_on_c, 0, 53, 84
1, 92660, Note_off_c, 0, 83, 0
1, 92669, Note_on_c, 0, 41, 80
1, 92674, Control_c, 0, 64, 64
1, 92679, Note_off_c, 0, 47, 64
1, 92689, Control_c, 0, 64, 79
1, 92694, Note_off_c, 0, 50, 64
1, 92696, Poly_aftertouch_c, 0, 83, 0
1, 92704, Control_c, 0, 64, 103
1, 92719, Control_c, 0, 64, 127
1, 92778, Note_off_c, 0, 41, 61
1, 92780, Note_off_c, 0, 53, 64
1, 92782, Note_on_c, 0, 50, 65
1, 92784, Note_on_c, 0, 83, 68
1, 92787, Note_off_c, 0, 92, 64
1, 92789, Note_off_c, 0, 80, 59
1, 92790, Note_on_c, 0, 47, 75
1, 92794, Note_on_c, 0, 86, 68
1, 92822, Control_c, 0, 64, 110
1, 92837, Control_c, 0, 64, 88
1, 92852, Control_c, 0, 64, 69
1, 92874, Control_c, 0, 64, 0
1, 92882, Note_off_c, 0, 86, 60
1, 92901, Note_on_c, 0, 92, 95
1, 92902, Note_on_c, 0, 53, 88
1, 92904, Control_c, 0, 64, 69
1, 92905, Note_on_c, 0, 80, 92
1, 92913, Note_on_c, 0, 41, 77
1, 92919, Control_c, 0, 64, 87
1, 92925, Note_off_c, 0, 47, 63
1, 92934, Control_c, 0, 64, 127
1, 92942, Note_off_c, 0, 50, 62
1, 92970, Note_off_c, 0, 83, 24
1, 93004, Note_off_c, 0, 41, 64
1, 93015, Note_off_c, 0, 92, 66
1, 93018, Note_off_c, 0, 80, 62
1, 93019, Note_off_c, 0, 53, 64
1, 93020, Note_on_c, 0, 47, 74
1, 93023, Note_on_c, 0, 50, 55
1, 93025, Note_on_c, 0, 83, 61
1, 93033, Note_on_c, 0, 86, 63
1, 93081, Control_c, 0, 64, 103
1, 93096, Control_c, 0, 64, 83
1, 93111, Control_c, 0, 64, 64
1, 93111, Note_off_c, 0, 83, 60
1, 93116, Note_off_c, 0, 86, 61
1, 93126, Control_c, 0, 64, 0
1, 93130, Note_on_c, 0, 91, 93
1, 93131, Note_on_c, 0, 55, 85
1, 93132, Note_on_c, 0, 79, 91
1, 93141, Note_on_c, 0, 43, 75
1, 93153, Note_off_c, 0, 47, 62
1, 93156, Control_c, 0, 64, 63
1, 93162, Note_off_c, 0, 50, 64
1, 93171, Control_c, 0, 64, 76
1, 93185, Control_c, 0, 64, 95
1, 93200, Control_c, 0, 64, 127
1, 93239, Note_off_c, 0, 55, 62
1, 93241, Note_off_c, 0, 91, 57
1, 93247, Note_off_c, 0, 43, 61
1, 93248, Note_on_c, 0, 47, 71
1, 93248, Note_on_c, 0, 83, 64
1, 93250, Note_off_c, 0, 79, 61
1, 93256, Note_on_c, 0, 86, 61
1, 93263, Note_on_c, 0, 50, 52
1, 93305, Control_c, 0, 64, 116
1, 93320, Control_c, 0, 64, 94
1, 93334, Control_c, 0, 64, 75
1, 93340, Note_off_c, 0, 83, 57
1, 93349, Control_c, 0, 64, 0
1, 93351, Note_off_c, 0, 86, 57
1, 93365, Note_on_c, 0, 89, 87
1, 93367, Note_on_c, 0, 56, 83
1, 93368, Note_on_c, 0, 77, 97
1, 93374, Note_on_c, 0, 44, 78
1, 93379, Note_off_c, 0, 47, 59
1, 93384, Note_off_c, 0, 50, 60
1, 93394, Control_c, 0, 64, 65
1, 93408, Control_c, 0, 64, 78
1, 93423, Control_c, 0, 64, 100
1, 93438, Control_c, 0, 64, 127
1, 93464, Note_off_c, 0, 56, 57
1, 93469, Note_off_c, 0, 44, 64
1, 93483, Note_off_c, 0, 77, 59
1, 93488, Note_on_c, 0, 47, 70
1, 93490, Note_on_c, 0, 83, 65
1, 93490, Note_on_c, 0, 50, 62
1, 93496, Note_off_c, 0, 89, 64
1, 93498, Note_on_c, 0, 86, 59
1, 93571, Control_c, 0, 64, 122
1, 93574, Note_off_c, 0, 86, 61
1, 93586, Control_c, 0, 64, 97
1, 93588, Note_off_c, 0, 83, 0
1, 93590, Note_on_c, 0, 55, 83
1, 93594, Note_on_c, 0, 91, 91
1, 93598, Note_on_c, 0, 43, 79
1, 93600, Note_on_c, 0, 79, 95
1, 93601, Control_c, 0, 64, 80
1, 93613, Note_off_c, 0, 47, 63
1, 93623, Control_c, 0, 64, 70
1, 93625, Note_off_c, 0, 50, 63
1, 93626, Note_on_c, 0, 89, 61
1, 93627, Note_off_c, 0, 89, 127
1, 93638, Control_c, 0, 64, 71
1, 93644, Poly_aftertouch_c, 0, 83, 0
1, 93653, Control_c, 0, 64, 79
1, 93668, Control_c, 0, 64, 93
1, 93683, Control_c, 0, 64, 123
1, 93690, Note_off_c, 0, 55, 57
1, 93697, Control_c, 0, 64, 127
1, 93707, Note_on_c, 0, 47, 70
1, 93708, Note_on_c, 0, 50, 60
1, 93709, Note_off_c, 0, 79, 61
1, 93710, Note_off_c, 0, 43, 61
1, 93710, Note_off_c, 0, 91, 60
1, 93713, Note_on_c, 0, 83, 53
1, 93737, Note_on_c, 0, 86, 46
1, 93771, Control_c, 0, 64, 103
1, 93786, Control_c, 0, 64, 78
1, 93799, Note_off_c, 0, 86, 59
1, 93801, Control_c, 0, 64, 0
1, 93825, Note_on_c, 0, 53, 79
1, 93829, Note_on_c, 0, 92, 89
1, 93834, Note_on_c, 0, 80, 95
1, 93836, Note_on_c, 0, 41, 79
1, 93845, Note_off_c, 0, 47, 63
1, 93858, Note_off_c, 0, 50, 64
1, 93860, Control_c, 0, 64, 69
1, 93875, Control_c, 0, 64, 86
1, 93888, Note_off_c, 0, 83, 25
1, 93890, Control_c, 0, 64, 126
1, 93905, Control_c, 0, 64, 127
1, 93921, Note_off_c, 0, 92, 67
1, 93926, Note_off_c, 0, 41, 63
1, 93930, Note_off_c, 0, 80, 59
1, 93931, Note_off_c, 0, 53, 65
1, 93938, Note_on_c, 0, 50, 56
1, 93939, Note_on_c, 0, 47, 71
1, 93956, Note_on_c, 0, 83, 61
1, 93964, Note_on_c, 0, 86, 64
1, 93994, Control_c, 0, 64, 114
1, 94008, Control_c, 0, 64, 88
1, 94023, Control_c, 0, 64, 68
1, 94039, Control_c, 0, 64, 0
1, 94047, Note_off_c, 0, 86, 57
1, 94059, Note_on_c, 0, 55, 82
1, 94059, Note_on_c, 0, 91, 88
1, 94061, Note_on_c, 0, 79, 93
1, 94064, Note_on_c, 0, 43, 78
1, 94065, Note_off_c, 0, 47, 53
1, 94084, Control_c, 0, 64, 53
1, 94085, Note_off_c, 0, 50, 61
1, 94090, Note_off_c, 0, 83, 0
1, 94090, Note_on_c, 0, 83, 4
1, 94099, Control_c, 0, 64, 73
1, 94101, Note_off_c, 0, 83, 57
1, 94113, Control_c, 0, 64, 93
1, 94128, Control_c, 0, 64, 127
1, 94143, Control_c, 0, 64, 127
1, 94156, Note_off_c, 0, 55, 60
1, 94165, Note_off_c, 0, 91, 54
1, 94166, Note_off_c, 0, 43, 61
1, 94172, Note_on_c, 0, 47, 73
1, 94176, Note_on_c, 0, 83, 58
1, 94177, Note_off_c, 0, 79, 60
1, 94185, Note_on_c, 0, 86, 71
1, 94186, Note_on_c, 0, 50, 56
1, 94217, Control_c, 0, 64, 106
1, 94232, Control_c, 0, 64, 87
1, 94247, Control_c, 0, 64, 72
1, 94262, Control_c, 0, 64, 63
1, 94276, Control_c, 0, 64, 63
1, 94281, Note_off_c, 0, 83, 55
1, 94291, Note_on_c, 0, 56, 80
1, 94291, Control_c, 0, 64, 69
1, 94295, Note_on_c, 0, 77, 90
1, 94297, Note_on_c, 0, 44, 75
1, 94303, Note_on_c, 0, 89, 80
1, 94303, Note_off_c, 0, 47, 63
1, 94306, Control_c, 0, 64, 79
1, 94307, Note_off_c, 0, 86, 38
1, 94309, Note_off_c, 0, 50, 60
1, 94321, Control_c, 0, 64, 92
1, 94336, Control_c, 0, 64, 107
1, 94357, Control_c, 0, 64, 118
1, 94372, Note_off_c, 0, 56, 63
1, 94372, Control_c, 0, 64, 118
1, 94381, Note_off_c, 0, 77, 58
1, 94387, Control_c, 0, 64, 121
1, 94394, Note_off_c, 0, 44, 64
1, 94402, Control_c, 0, 64, 127
1, 94413, Note_off_c, 0, 89, 64
1, 94421, Note_on_c, 0, 50, 60
1, 94426, Note_on_c, 0, 47, 62
1, 94446, Control_c, 0, 64, 123
1, 94447, Note_on_c, 0, 83, 64
1, 94461, Control_c, 0, 64, 95
1, 94476, Control_c, 0, 64, 68
1, 94491, Control_c, 0, 64, 0
1, 94509, Poly_aftertouch_c, 0, 86, 127
1, 94530, Note_on_c, 0, 53, 76
1, 94536, Control_c, 0, 64, 64
1, 94544, Note_on_c, 0, 41, 75
1, 94545, Note_on_c, 0, 80, 92
1, 94547, Note_on_c, 0, 92, 81
1, 94547, Note_off_c, 0, 47, 62
1, 94551, Control_c, 0, 64, 79
1, 94562, Poly_aftertouch_c, 0, 86, 0
1, 94565, Note_off_c, 0, 50, 62
1, 94565, Control_c, 0, 64, 92
1, 94566, Note_on_c, 0, 90, 62
1, 94577, Note_off_c, 0, 83, 59
1, 94580, Control_c, 0, 64, 101
1, 94583, Note_off_c, 0, 90, 64
1, 94595, Control_c, 0, 64, 105
1, 94610, Control_c, 0, 64, 107
1, 94624, Note_off_c, 0, 80, 61
1, 94625, Control_c, 0, 64, 106
1, 94626, Note_off_c, 0, 41, 63
1, 94631, Note_off_c, 0, 92, 65
1, 94637, Note_off_c, 0, 53, 64
1, 94639, Control_c, 0, 64, 100
1, 94651, Note_on_c, 0, 50, 48
1, 94654, Control_c, 0, 64, 86
1, 94658, Note_on_c, 0, 83, 65
1, 94661, Note_on_c, 0, 47, 63
1, 94669, Control_c, 0, 64, 67
1, 94670, Note_on_c, 0, 86, 66
1, 94684, Control_c, 0, 64, 0
1, 94743, Control_c, 0, 64, 58
1, 94757, Control_c, 0, 64, 70
1, 94760, Note_on_c, 0, 79, 85
1, 94762, Note_on_c, 0, 91, 84
1, 94768, Note_off_c, 0, 50, 0
1, 94768, Note_on_c, 0, 50, 16
1, 94771, Note_on_c, 0, 55, 81
1, 94772, Note_on_c, 0, 43, 80
1, 94772, Control_c, 0, 64, 82
1, 94777, Note_off_c, 0, 86, 37
1, 94781, Note_off_c, 0, 47, 36
1, 94787, Control_c, 0, 64, 97
1, 94796, Note_off_c, 0, 83, 54
1, 94802, Control_c, 0, 64, 111
1, 94817, Control_c, 0, 64, 125
1, 94833, Control_c, 0, 64, 127
1, 94858, Note_off_c, 0, 55, 64
1, 94862, Note_off_c, 0, 43, 61
1, 94870, Note_on_c, 0, 47, 62
1, 94871, Note_off_c, 0, 91, 46
1, 94873, Note_on_c, 0, 83, 63
1, 94876, Note_off_c, 0, 79, 59
1, 94888, Note_off_c, 0, 50, 57
1, 94888, Note_on_c, 0, 86, 67
1, 94894, Note_off_c, 0, 47, 61
1, 94908, Note_off_c, 0, 83, 60
1, 94914, Note_off_c, 0, 86, 67
1, 94936, Control_c, 0, 64, 115
1, 94951, Control_c, 0, 64, 93
1, 94966, Control_c, 0, 64, 70
1, 94980, Control_c, 0, 64, 0
1, 94999, Note_on_c, 0, 77, 89
1, 94999, Note_on_c, 0, 89, 93
1, 95014, Note_on_c, 0, 47, 62
1, 95017, Note_on_c, 0, 59, 66
1, 95025, Control_c, 0, 64, 68
1, 95040, Control_c, 0, 64, 82
1, 95046, Note_off_c, 0, 77, 59
1, 95054, Control_c, 0, 64, 103
1, 95069, Control_c, 0, 64, 118
1, 95073, Note_off_c, 0, 59, 40
1, 95084, Control_c, 0, 64, 120
1, 95114, Note_off_c, 0, 89, 51
1, 95125, Note_on_c, 0, 79, 65
1, 95137, Note_on_c, 0, 50, 64
1, 95143, Note_on_c, 0, 86, 53
1, 95144, Note_off_c, 0, 47, 59
1, 95151, Control_c, 0, 64, 119
1, 95166, Control_c, 0, 64, 114
1, 95167, Note_on_c, 0, 55, 43
1, 95169, Note_off_c, 0, 86, 55
1, 95177, Note_off_c, 0, 79, 58
1, 95180, Note_off_c, 0, 50, 63
1, 95181, Control_c, 0, 64, 105
1, 95196, Control_c, 0, 64, 90
1, 95210, Note_off_c, 0, 55, 46
1, 95211, Control_c, 0, 64, 73
1, 95226, Control_c, 0, 64, 0
1, 95270, Control_c, 0, 64, 62
1, 95275, Note_on_c, 0, 87, 87
1, 95280, Note_on_c, 0, 75, 83
1, 95284, Note_on_c, 0, 60, 75
1, 95285, Control_c, 0, 64, 78
1, 95293, Note_on_c, 0, 48, 67
1, 95300, Control_c, 0, 64, 97
1, 95314, Control_c, 0, 64, 127
1, 95355, Note_off_c, 0, 60, 41
1, 95358, Note_off_c, 0, 87, 62
1, 95362, Note_off_c, 0, 75, 62
1, 95385, Note_on_c, 0, 84, 71
1, 95391, Note_on_c, 0, 79, 52
1, 95396, Note_on_c, 0, 51, 62
1, 95418, Note_off_c, 0, 48, 64
1, 95426, Note_off_c, 0, 51, 64
1, 95426, Note_off_c, 0, 79, 64
1, 95433, Control_c, 0, 64, 115
1, 95443, Note_off_c, 0, 84, 63
1, 95448, Control_c, 0, 64, 94
1, 95463, Control_c, 0, 64, 77
1, 95478, Control_c, 0, 64, 62
1, 95493, Control_c, 0, 64, 37
1, 95507, Control_c, 0, 64, 64
1, 95514, Note_on_c, 0, 86, 90
1, 95521, Note_on_c, 0, 74, 85
1, 95522, Note_on_c, 0, 55, 76
1, 95522, Control_c, 0, 64, 74
1, 95536, Note_on_c, 0, 43, 63
1, 95537, Control_c, 0, 64, 91
1, 95552, Control_c, 0, 64, 122
1, 95567, Control_c, 0, 64, 127
1, 95569, Note_off_c, 0, 55, 58
1, 95610, Note_off_c, 0, 86, 55
1, 95627, Note_on_c, 0, 79, 65
1, 95627, Note_on_c, 0, 77, 61
1, 95638, Note_on_c, 0, 47, 68
1, 95644, Note_off_c, 0, 43, 59
1, 95647, Note_on_c, 0, 50, 26
1, 95657, Control_c, 0, 64, 118
1, 95661, Note_off_c, 0, 77, 62
1, 95666, Note_off_c, 0, 47, 66
1, 95672, Control_c, 0, 64, 99
1, 95674, Note_off_c, 0, 74, 36
1, 95679, Note_off_c, 0, 79, 60
1, 95686, Control_c, 0, 64, 81
1, 95690, Note_off_c, 0, 50, 42
1, 95701, Control_c, 0, 64, 64
1, 95716, Control_c, 0, 64, 0
1, 95731, Control_c, 0, 64, 61
1, 95742, Note_on_c, 0, 84, 89
1, 95746, Control_c, 0, 64, 73
1, 95752, Note_on_c, 0, 48, 73
1, 95755, Note_on_c, 0, 72, 74
1, 95761, Control_c, 0, 64, 88
1, 95773, Note_on_c, 0, 36, 55
1, 95776, Control_c, 0, 64, 115
1, 95781, Note_on_c, 0, 74, 39
1, 95791, Control_c, 0, 64, 127
1, 95809, Note_off_c, 0, 74, 35
1, 95851, Note_off_c, 0, 48, 61
1, 95852, Note_off_c, 0, 84, 52
1, 95867, Note_on_c, 0, 39, 71
1, 95879, Note_on_c, 0, 75, 71
1, 95884, Note_on_c, 0, 79, 63
1, 95889, Note_off_c, 0, 72, 62
1, 95892, Note_off_c, 0, 36, 61
1, 95901, Control_c, 0, 64, 114
1, 95916, Control_c, 0, 64, 94
1, 95920, Note_off_c, 0, 75, 61
1, 95920, Note_off_c, 0, 79, 60
1, 95924, Note_off_c, 0, 39, 63
1, 95931, Control_c, 0, 64, 72
1, 95946, Control_c, 0, 64, 0
1, 95990, Control_c, 0, 64, 67
1, 95996, Note_on_c, 0, 83, 88
1, 96002, Note_on_c, 0, 71, 85
1, 96005, Control_c, 0, 64, 81
1, 96013, Note_on_c, 0, 43, 69
1, 96016, Note_on_c, 0, 31, 70
1, 96020, Control_c, 0, 64, 103
1, 96035, Control_c, 0, 64, 127
1, 96114, Poly_aftertouch_c, 0, 41, 0
1, 96119, Note_off_c, 0, 43, 60
1, 96119, Note_off_c, 0, 71, 29
1, 96122, Note_off_c, 0, 31, 61
1, 96128, Note_on_c, 0, 74, 61
1, 96129, Note_on_c, 0, 35, 68
1, 96130, Note_on_c, 0, 79, 69
1, 96137, Note_off_c, 0, 83, 55
1, 96151, Note_on_c, 0, 38, 34
1, 96154, Note_off_c, 0, 74, 68
1, 96160, Note_off_c, 0, 35, 63
1, 96169, Control_c, 0, 64, 126
1, 96182, Note_off_c, 0, 79, 62
1, 96184, Control_c, 0, 64, 121
1, 96193, Note_off_c, 0, 38, 47
1, 96199, Control_c, 0, 64, 120
1, 96213, Control_c, 0, 64, 118
1, 96228, Control_c, 0, 64, 117
1, 96243, Control_c, 0, 64, 114
1, 96258, Control_c, 0, 64, 113
1, 96272, Control_c, 0, 64, 111
1, 96286, Control_c, 0, 64, 109
1, 96301, Control_c, 0, 64, 107
1, 96316, Control_c, 0, 64, 103
1, 96330, Control_c, 0, 64, 99
1, 96345, Control_c, 0, 64, 92
1, 96360, Control_c, 0, 64, 85
1, 96375, Control_c, 0, 64, 75
1, 96377, Note_on_c, 0, 84, 89
1, 96384, Note_on_c, 0, 75, 77
1, 96384, Note_on_c, 0, 72, 86
1, 96389, Note_on_c, 0, 79, 75
1, 96390, Control_c, 0, 64, 65
1, 96396, Note_on_c, 0, 48, 80
1, 96403, Note_on_c, 0, 36, 68
1, 96405, Control_c, 0, 64, 0
1, 96802, Note_off_c, 0, 84, 47
1, 96870, Note_off_c, 0, 72, 50
1, 96893, Note_off_c, 0, 36, 40
1, 96938, Note_off_c, 0, 48, 56
1, 96941, Note_off_c, 0, 79, 47
1, 96959, Note_off_c, 0, 75, 60
1, 97020, Control_c, 0, 64, 16
1, 97034, Control_c, 0, 64, 21
1, 97064, Control_c, 0, 64, 20
1, 97079, Control_c, 0, 64, 16
1, 97123, Control_c, 0, 64, 20
1, 97138, Control_c, 0, 64, 24
1, 97153, Control_c, 0, 64, 27
1, 97168, Control_c, 0, 64, 30
1, 97183, Control_c, 0, 64, 34
1, 97198, Control_c, 0, 64, 38
1, 97213, Control_c, 0, 64, 43
1, 97228, Control_c, 0, 64, 48
1, 97243, Control_c, 0, 64, 53
1, 97257, Control_c, 0, 64, 57
1, 97272, Control_c, 0, 64, 60
1, 97287, Control_c, 0, 64, 61
1, 97302, Control_c, 0, 64, 63
1, 97317, Control_c, 0, 64, 64
1, 97332, Control_c, 0, 64, 67
1, 97354, Control_c, 0, 64, 70
1, 97369, Control_c, 0, 64, 74
1, 97383, Control_c, 0, 64, 77
1, 97398, Control_c, 0, 64, 79
1, 97413, Control_c, 0, 64, 81
1, 97428, Control_c, 0, 64, 84
1, 97443, Control_c, 0, 64, 86
1, 97457, Control_c, 0, 64, 89
1, 97472, Control_c, 0, 64, 92
1, 97487, Control_c, 0, 64, 93
1, 97502, Control_c, 0, 64, 95
1, 97517, Control_c, 0, 64, 95
1, 97532, Control_c, 0, 64, 96
1, 97547, Control_c, 0, 64, 97
1, 97561, Control_c, 0, 64, 98
1, 97576, Control_c, 0, 64, 99
1, 97591, Control_c, 0, 64, 100
1, 97606, Control_c, 0, 64, 100
1, 97621, Note_on_c, 0, 67, 39
1, 97636, Control_c, 0, 64, 101
1, 97648, Note_on_c, 0, 60, 28
1, 97665, Control_c, 0, 64, 101
1, 97680, Control_c, 0, 64, 102
1, 97710, Control_c, 0, 64, 103
1, 97737, Note_off_c, 0, 67, 50
1, 97739, Control_c, 0, 64, 103
1, 97754, Control_c, 0, 64, 104
1, 97762, Note_on_c, 0, 68, 42
1, 97769, Control_c, 0, 64, 104
1, 97783, Control_c, 0, 64, 105
1, 97813, Control_c, 0, 64, 105
1, 97825, Note_off_c, 0, 60, 45
1, 97843, Control_c, 0, 64, 106
1, 97848, Note_on_c, 0, 63, 29
1, 97850, Note_off_c, 0, 68, 38
1, 97869, Note_on_c, 0, 67, 34
1, 97914, Note_off_c, 0, 67, 48
1, 97952, Note_on_c, 0, 68, 45
1, 97959, Note_on_c, 0, 60, 40
1, 97986, Note_off_c, 0, 63, 36
1, 98023, Note_off_c, 0, 68, 49
1, 98041, Note_on_c, 0, 67, 41
1, 98124, Note_off_c, 0, 60, 55
1, 98128, Note_off_c, 0, 67, 58
1, 98149, Note_on_c, 0, 63, 32
1, 98157, Note_on_c, 0, 68, 50
1, 98250, Note_off_c, 0, 68, 38
1, 98310, Control_c, 0, 64, 105
1, 98319, Note_on_c, 0, 75, 65
1, 98325, Control_c, 0, 64, 103
1, 98339, Note_on_c, 0, 67, 41
1, 98339, Control_c, 0, 64, 99
1, 98354, Control_c, 0, 64, 94
1, 98369, Control_c, 0, 64, 89
1, 98377, Note_off_c, 0, 63, 40
1, 98384, Control_c, 0, 64, 82
1, 98387, Note_on_c, 0, 60, 31
1, 98399, Control_c, 0, 64, 76
1, 98414, Control_c, 0, 64, 71
1, 98429, Control_c, 0, 64, 68
1, 98435, Note_off_c, 0, 67, 37
1, 98444, Control_c, 0, 64, 69
1, 98447, Note_on_c, 0, 68, 50
1, 98459, Control_c, 0, 64, 70
1, 98474, Control_c, 0, 64, 72
1, 98488, Control_c, 0, 64, 75
1, 98503, Control_c, 0, 64, 78
1, 98518, Control_c, 0, 64, 80
1, 98532, Note_off_c, 0, 68, 57
1, 98532, Control_c, 0, 64, 82
1, 98536, Note_off_c, 0, 60, 39
1, 98547, Control_c, 0, 64, 83
1, 98557, Note_on_c, 0, 67, 43
1, 98562, Control_c, 0, 64, 85
1, 98575, Note_on_c, 0, 63, 16
1, 98577, Control_c, 0, 64, 87
1, 98592, Control_c, 0, 64, 89
1, 98606, Control_c, 0, 64, 92
1, 98617, Note_off_c, 0, 67, 46
1, 98621, Control_c, 0, 64, 93
1, 98636, Control_c, 0, 64, 94
1, 98651, Control_c, 0, 64, 94
1, 98658, Note_on_c, 0, 68, 50
1, 98666, Control_c, 0, 64, 95
1, 98680, Control_c, 0, 64, 96
1, 98683, Note_on_c, 0, 60, 38
1, 98695, Control_c, 0, 64, 97
1, 98701, Note_off_c, 0, 63, 40
1, 98710, Control_c, 0, 64, 97
1, 98718, Note_off_c, 0, 68, 55
1, 98724, Control_c, 0, 64, 98
1, 98739, Note_on_c, 0, 67, 50
1, 98739, Control_c, 0, 64, 98
1, 98769, Control_c, 0, 64, 99
1, 98784, Control_c, 0, 64, 99
1, 98789, Note_off_c, 0, 75, 53
1, 98810, Note_off_c, 0, 60, 56
1, 98825, Note_off_c, 0, 67, 58
1, 98851, Note_on_c, 0, 68, 52
1, 98857, Note_on_c, 0, 63, 32
1, 98911, Control_c, 0, 64, 99
1, 98926, Control_c, 0, 64, 97
1, 98933, Note_off_c, 0, 68, 58
1, 98941, Control_c, 0, 64, 94
1, 98955, Control_c, 0, 64, 89
1, 98958, Note_on_c, 0, 72, 60
1, 98970, Control_c, 0, 64, 83
1, 98977, Note_on_c, 0, 67, 37
1, 98985, Control_c, 0, 64, 78
1, 99000, Control_c, 0, 64, 72
1, 99004, Note_off_c, 0, 63, 42
1, 99011, Note_on_c, 0, 60, 34
1, 99015, Control_c, 0, 64, 68
1, 99029, Control_c, 0, 64, 66
1, 99059, Control_c, 0, 64, 66
1, 99065, Note_off_c, 0, 67, 42
1, 99074, Control_c, 0, 64, 67
1, 99079, Note_on_c, 0, 68, 42
1, 99089, Control_c, 0, 64, 69
1, 99103, Note_off_c, 0, 60, 53
1, 99103, Control_c, 0, 64, 71
1, 99118, Control_c, 0, 64, 73
1, 99133, Control_c, 0, 64, 75
1, 99148, Control_c, 0, 64, 76
1, 99162, Control_c, 0, 64, 78
1, 99171, Note_on_c, 0, 63, 17
1, 99177, Control_c, 0, 64, 79
1, 99183, Note_on_c, 0, 67, 45
1, 99183, Note_off_c, 0, 68, 36
1, 99192, Control_c, 0, 64, 81
1, 99207, Control_c, 0, 64, 82
1, 99222, Control_c, 0, 64, 83
1, 99237, Control_c, 0, 64, 84
1, 99251, Note_off_c, 0, 67, 43
1, 99252, Control_c, 0, 64, 85
1, 99259, Note_off_c, 0, 63, 39
1, 99266, Control_c, 0, 64, 85
1, 99270, Note_on_c, 0, 60, 36
1, 99281, Control_c, 0, 64, 86
1, 99282, Note_on_c, 0, 68, 52
1, 99296, Control_c, 0, 64, 87
1, 99311, Control_c, 0, 64, 87
1, 99326, Control_c, 0, 64, 88
1, 99341, Control_c, 0, 64, 88
1, 99350, Note_off_c, 0, 60, 53
1, 99355, Control_c, 0, 64, 89
1, 99356, Note_off_c, 0, 68, 45
1, 99370, Control_c, 0, 64, 89
1, 99371, Note_on_c, 0, 67, 51
1, 99419, Note_on_c, 0, 63, 19
1, 99463, Note_off_c, 0, 67, 59
1, 99473, Control_c, 0, 64, 89
1, 99488, Control_c, 0, 64, 87
1, 99496, Note_on_c, 0, 68, 47
1, 99503, Control_c, 0, 64, 85
1, 99518, Control_c, 0, 64, 81
1, 99533, Control_c, 0, 64, 76
1, 99547, Control_c, 0, 64, 70
1, 99557, Note_off_c, 0, 63, 40
1, 99562, Control_c, 0, 64, 60
1, 99576, Note_off_c, 0, 68, 48
1, 99577, Control_c, 0, 64, 0
1, 99582, Note_on_c, 0, 59, 38
1, 99591, Note_on_c, 0, 67, 49
1, 99615, Control_c, 0, 64, 37
1, 99630, Control_c, 0, 64, 56
1, 99645, Control_c, 0, 64, 63
1, 99660, Control_c, 0, 64, 65
1, 99675, Control_c, 0, 64, 68
1, 99677, Note_off_c, 0, 67, 56
1, 99690, Control_c, 0, 64, 70
1, 99699, Note_off_c, 0, 72, 36
1, 99705, Control_c, 0, 64, 72
1, 99705, Note_off_c, 0, 59, 50
1, 99707, Note_on_c, 0, 68, 47
1, 99720, Control_c, 0, 64, 74
1, 99734, Control_c, 0, 64, 77
1, 99742, Note_on_c, 0, 62, 34
1, 99749, Control_c, 0, 64, 80
1, 99764, Control_c, 0, 64, 82
1, 99778, Control_c, 0, 64, 84
1, 99781, Note_off_c, 0, 68, 58
1, 99793, Control_c, 0, 64, 86
1, 99808, Control_c, 0, 64, 88
1, 99809, Note_on_c, 0, 67, 47
1, 99823, Control_c, 0, 64, 90
1, 99838, Control_c, 0, 64, 92
1, 99852, Control_c, 0, 64, 93
1, 99855, Note_on_c, 0, 59, 37
1, 99860, Note_off_c, 0, 62, 34
1, 99867, Control_c, 0, 64, 95
1, 99875, Note_off_c, 0, 67, 58
1, 99882, Control_c, 0, 64, 96
1, 99897, Control_c, 0, 64, 98
1, 99904, Note_on_c, 0, 68, 55
1, 99912, Control_c, 0, 64, 99
1, 99926, Control_c, 0, 64, 100
1, 99941, Control_c, 0, 64, 101
1, 99962, Note_off_c, 0, 68, 54
1, 99970, Control_c, 0, 64, 101
1, 99985, Control_c, 0, 64, 102
1, 99996, Note_on_c, 0, 67, 54
1, 100037, Note_off_c, 0, 59, 38
1, 100039, Note_on_c, 0, 62, 31
1, 100067, Note_off_c, 0, 67, 58
1, 100083, Note_on_c, 0, 68, 56
1, 100145, Note_off_c, 0, 68, 56
1, 100164, Control_c, 0, 64, 101
1, 100178, Control_c, 0, 64, 99
1, 100193, Control_c, 0, 64, 96
1, 100208, Control_c, 0, 64, 91
1, 100214, Note_on_c, 0, 74, 74
1, 100223, Control_c, 0, 64, 83
1, 100238, Control_c, 0, 64, 75
1, 100238, Note_on_c, 0, 67, 45
1, 100244, Note_off_c, 0, 62, 37
1, 100252, Control_c, 0, 64, 66
1, 100262, Note_on_c, 0, 59, 38
1, 100267, Control_c, 0, 64, 44
1, 100282, Control_c, 0, 64, 0
1, 100300, Note_off_c, 0, 67, 36
1, 100326, Control_c, 0, 64, 54
1, 100341, Control_c, 0, 64, 63
1, 100363, Control_c, 0, 64, 65
1, 100366, Note_on_c, 0, 68, 51
1, 100378, Control_c, 0, 64, 68
1, 100384, Note_off_c, 0, 74, 60
1, 100393, Control_c, 0, 64, 70
1, 100408, Control_c, 0, 64, 72
1, 100423, Control_c, 0, 64, 75
1, 100427, Note_off_c, 0, 59, 44
1, 100438, Control_c, 0, 64, 79
1, 100441, Note_on_c, 0, 62, 25
1, 100450, Note_on_c, 0, 67, 54
1, 100453, Note_off_c, 0, 68, 62
1, 100453, Control_c, 0, 64, 83
1, 100468, Control_c, 0, 64, 87
1, 100483, Control_c, 0, 64, 90
1, 100498, Control_c, 0, 64, 93
1, 100513, Control_c, 0, 64, 95
1, 100527, Control_c, 0, 64, 98
1, 100531, Note_off_c, 0, 67, 62
1, 100542, Control_c, 0, 64, 100
1, 100549, Note_on_c, 0, 68, 56
1, 100553, Note_on_c, 0, 59, 39
1, 100557, Control_c, 0, 64, 102
1, 100572, Note_off_c, 0, 62, 39
1, 100572, Control_c, 0, 64, 103
1, 100587, Control_c, 0, 64, 104
1, 100601, Control_c, 0, 64, 105
1, 100616, Control_c, 0, 64, 105
1, 100621, Note_off_c, 0, 68, 61
1, 100644, Note_on_c, 0, 67, 50
1, 100661, Control_c, 0, 64, 106
1, 100709, Note_off_c, 0, 67, 58
1, 100720, Note_on_c, 0, 68, 59
1, 100738, Note_off_c, 0, 59, 40
1, 100740, Note_on_c, 0, 62, 31
1, 100777, Note_off_c, 0, 68, 59
1, 100823, Control_c, 0, 64, 105
1, 100838, Control_c, 0, 64, 104
1, 100853, Control_c, 0, 64, 101
1, 100866, Note_on_c, 0, 79, 70
1, 100867, Control_c, 0, 64, 95
1, 100875, Note_on_c, 0, 67, 50
1, 100882, Control_c, 0, 64, 88
1, 100897, Control_c, 0, 64, 78
1, 100909, Note_off_c, 0, 62, 39
1, 100912, Control_c, 0, 64, 69
1, 100915, Note_on_c, 0, 59, 33
1, 100927, Control_c, 0, 64, 61
1, 100942, Control_c, 0, 64, 43
1, 100957, Control_c, 0, 64, 52
1, 100972, Control_c, 0, 64, 62
1, 100986, Control_c, 0, 64, 65
1, 100992, Note_off_c, 0, 67, 35
1, 101001, Control_c, 0, 64, 68
1, 101006, Note_on_c, 0, 68, 53
1, 101016, Control_c, 0, 64, 71
1, 101025, Note_off_c, 0, 59, 52
1, 101031, Control_c, 0, 64, 73
1, 101046, Control_c, 0, 64, 75
1, 101055, Note_off_c, 0, 79, 38
1, 101056, Note_on_c, 0, 62, 29
1, 101061, Control_c, 0, 64, 77
1, 101075, Control_c, 0, 64, 79
1, 101097, Control_c, 0, 64, 82
1, 101106, Note_off_c, 0, 68, 59
1, 101112, Control_c, 0, 64, 85
1, 101116, Note_on_c, 0, 67, 48
1, 101127, Control_c, 0, 64, 87
1, 101141, Control_c, 0, 64, 88
1, 101156, Control_c, 0, 64, 89
1, 101171, Control_c, 0, 64, 90
1, 101186, Control_c, 0, 64, 90
1, 101189, Note_on_c, 0, 59, 40
1, 101189, Note_off_c, 0, 67, 58
1, 101199, Note_off_c, 0, 62, 37
1, 101210, Note_on_c, 0, 68, 51
1, 101216, Control_c, 0, 64, 91
1, 101276, Control_c, 0, 64, 91
1, 101278, Note_off_c, 0, 68, 59
1, 101305, Control_c, 0, 64, 92
1, 101311, Note_on_c, 0, 67, 51
1, 101335, Note_off_c, 0, 59, 35
1, 101360, Note_off_c, 0, 67, 60
1, 101365, Note_on_c, 0, 62, 19
1, 101399, Note_on_c, 0, 68, 54
1, 101469, Control_c, 0, 64, 91
1, 101484, Control_c, 0, 64, 84
1, 101498, Control_c, 0, 64, 72
1, 101499, Note_off_c, 0, 68, 54
1, 101506, Note_off_c, 0, 62, 36
1, 101513, Control_c, 0, 64, 0
1, 101514, Note_on_c, 0, 67, 44
1, 101526, Note_on_c, 0, 58, 43
1, 101602, Control_c, 0, 64, 62
1, 101607, Note_off_c, 0, 67, 57
1, 101616, Control_c, 0, 64, 68
1, 101631, Note_on_c, 0, 69, 46
1, 101631, Control_c, 0, 64, 73
1, 101646, Control_c, 0, 64, 78
1, 101661, Control_c, 0, 64, 81
1, 101663, Note_off_c, 0, 58, 57
1, 101676, Control_c, 0, 64, 85
1, 101690, Note_on_c, 0, 61, 44
1, 101690, Control_c, 0, 64, 87
1, 101704, Note_off_c, 0, 69, 57
1, 101705, Control_c, 0, 64, 89
1, 101720, Control_c, 0, 64, 90
1, 101732, Note_on_c, 0, 67, 57
1, 101735, Control_c, 0, 64, 91
1, 101750, Control_c, 0, 64, 92
1, 101764, Control_c, 0, 64, 93
1, 101779, Control_c, 0, 64, 93
1, 101782, Note_off_c, 0, 67, 60
1, 101794, Control_c, 0, 64, 94
1, 101806, Note_off_c, 0, 61, 56
1, 101809, Control_c, 0, 64, 94
1, 101827, Note_on_c, 0, 69, 54
1, 101832, Note_on_c, 0, 58, 39
1, 101879, Note_off_c, 0, 69, 61
1, 101924, Note_on_c, 0, 67, 50
1, 101976, Note_off_c, 0, 58, 57
1, 101998, Note_on_c, 0, 69, 60
1, 102000, Note_off_c, 0, 67, 53
1, 102004, Note_on_c, 0, 61, 37
1, 102069, Control_c, 0, 64, 94
1, 102070, Note_off_c, 0, 69, 58
1, 102084, Control_c, 0, 64, 93
1, 102099, Control_c, 0, 64, 92
1, 102114, Control_c, 0, 64, 90
1, 102128, Control_c, 0, 64, 86
1, 102132, Note_on_c, 0, 75, 73
1, 102143, Control_c, 0, 64, 80
1, 102151, Note_on_c, 0, 67, 48
1, 102157, Note_off_c, 0, 61, 51
1, 102158, Control_c, 0, 64, 73
1, 102173, Control_c, 0, 64, 65
1, 102188, Control_c, 0, 64, 28
1, 102196, Note_on_c, 0, 58, 38
1, 102203, Control_c, 0, 64, 0
1, 102255, Note_off_c, 0, 67, 40
1, 102262, Control_c, 0, 64, 52
1, 102277, Note_on_c, 0, 69, 52
1, 102277, Control_c, 0, 64, 62
1, 102292, Control_c, 0, 64, 64
1, 102307, Control_c, 0, 64, 66
1, 102322, Control_c, 0, 64, 68
1, 102334, Note_off_c, 0, 58, 52
1, 102337, Control_c, 0, 64, 71
1, 102352, Control_c, 0, 64, 75
1, 102355, Note_on_c, 0, 61, 30
1, 102356, Note_off_c, 0, 69, 62
1, 102367, Control_c, 0, 64, 78
1, 102370, Note_on_c, 0, 67, 46
1, 102381, Control_c, 0, 64, 81
1, 102396, Control_c, 0, 64, 84
1, 102411, Control_c, 0, 64, 85
1, 102426, Control_c, 0, 64, 86
1, 102441, Control_c, 0, 64, 87
1, 102450, Note_off_c, 0, 67, 38
1, 102455, Control_c, 0, 64, 88
1, 102470, Control_c, 0, 64, 88
1, 102472, Note_off_c, 0, 61, 45
1, 102473, Note_on_c, 0, 58, 39
1, 102481, Note_on_c, 0, 69, 55
1, 102485, Control_c, 0, 64, 89
1, 102514, Control_c, 0, 64, 89
1, 102559, Control_c, 0, 64, 90
1, 102564, Note_off_c, 0, 69, 58
1, 102571, Note_on_c, 0, 67, 47
1, 102641, Note_off_c, 0, 58, 47
1, 102656, Note_on_c, 0, 61, 32
1, 102659, Note_off_c, 0, 67, 59
1, 102673, Note_on_c, 0, 69, 54
1, 102687, Note_off_c, 0, 75, 20
1, 102744, Control_c, 0, 64, 89
1, 102759, Control_c, 0, 64, 86
1, 102764, Note_off_c, 0, 69, 37
1, 102773, Control_c, 0, 64, 81
1, 102787, Note_on_c, 0, 76, 64
1, 102788, Control_c, 0, 64, 75
1, 102800, Note_on_c, 0, 67, 43
1, 102803, Control_c, 0, 64, 67
1, 102804, Note_off_c, 0, 61, 36
1, 102805, Note_on_c, 0, 58, 33
1, 102819, Control_c, 0, 64, 34
1, 102834, Control_c, 0, 64, 0
1, 102878, Control_c, 0, 64, 41
1, 102882, Note_off_c, 0, 67, 39
1, 102893, Control_c, 0, 64, 58
1, 102899, Note_on_c, 0, 69, 57
1, 102908, Control_c, 0, 64, 62
1, 102917, Note_off_c, 0, 58, 60
1, 102922, Control_c, 0, 64, 64
1, 102937, Control_c, 0, 64, 65
1, 102942, Note_on_c, 0, 61, 29
1, 102952, Control_c, 0, 64, 67
1, 102967, Control_c, 0, 64, 70
1, 102982, Control_c, 0, 64, 73
1, 102986, Note_off_c, 0, 69, 61
1, 102996, Control_c, 0, 64, 77
1, 103001, Note_on_c, 0, 67, 48
1, 103011, Control_c, 0, 64, 80
1, 103025, Control_c, 0, 64, 83
1, 103040, Control_c, 0, 64, 85
1, 103043, Note_off_c, 0, 61, 51
1, 103055, Control_c, 0, 64, 86
1, 103060, Note_on_c, 0, 58, 46
1, 103065, Note_off_c, 0, 67, 55
1, 103070, Control_c, 0, 64, 88
1, 103085, Control_c, 0, 64, 89
1, 103100, Note_on_c, 0, 69, 55
1, 103100, Control_c, 0, 64, 90
1, 103115, Control_c, 0, 64, 91
1, 103129, Control_c, 0, 64, 92
1, 103144, Control_c, 0, 64, 92
1, 103159, Control_c, 0, 64, 93
1, 103166, Note_off_c, 0, 69, 57
1, 103189, Note_off_c, 0, 58, 57
1, 103189, Control_c, 0, 64, 93
1, 103190, Note_on_c, 0, 67, 49
1, 103222, Note_on_c, 0, 61, 34
1, 103256, Note_off_c, 0, 67, 61
1, 103280, Note_on_c, 0, 69, 62
1, 103315, Note_off_c, 0, 69, 62
1, 103321, Control_c, 0, 64, 93
1, 103336, Control_c, 0, 64, 91
1, 103359, Control_c, 0, 64, 87
1, 103374, Control_c, 0, 64, 80
1, 103389, Control_c, 0, 64, 72
1, 103399, Note_off_c, 0, 61, 43
1, 103403, Control_c, 0, 64, 56
1, 103414, Note_on_c, 0, 69, 53
1, 103415, Note_on_c, 0, 57, 42
1, 103418, Control_c, 0, 64, 0
1, 103463, Control_c, 0, 64, 36
1, 103477, Control_c, 0, 64, 62
1, 103490, Note_off_c, 0, 69, 64
1, 103492, Control_c, 0, 64, 66
1, 103507, Control_c, 0, 64, 68
1, 103520, Note_on_c, 0, 70, 52
1, 103521, Control_c, 0, 64, 70
1, 103536, Control_c, 0, 64, 72
1, 103544, Note_off_c, 0, 57, 54
1, 103551, Control_c, 0, 64, 74
1, 103566, Control_c, 0, 64, 77
1, 103579, Note_off_c, 0, 76, 33
1, 103581, Control_c, 0, 64, 80
1, 103583, Note_on_c, 0, 60, 37
1, 103595, Control_c, 0, 64, 82
1, 103600, Note_off_c, 0, 70, 62
1, 103610, Control_c, 0, 64, 84
1, 103619, Note_on_c, 0, 69, 58
1, 103626, Control_c, 0, 64, 86
1, 103641, Control_c, 0, 64, 87
1, 103656, Control_c, 0, 64, 87
1, 103671, Control_c, 0, 64, 88
1, 103679, Note_off_c, 0, 69, 57
1, 103700, Control_c, 0, 64, 88
1, 103710, Note_off_c, 0, 60, 36
1, 103711, Note_on_c, 0, 57, 40
1, 103718, Note_on_c, 0, 70, 56
1, 103767, Note_off_c, 0, 70, 59
1, 103799, Note_on_c, 0, 69, 57
1, 103848, Note_off_c, 0, 57, 53
1, 103870, Note_on_c, 0, 60, 34
1, 103880, Note_off_c, 0, 69, 60
1, 103884, Note_on_c, 0, 70, 60
1, 103955, Note_off_c, 0, 70, 60
1, 103997, Control_c, 0, 64, 87
1, 104006, Note_on_c, 0, 76, 77
1, 104012, Control_c, 0, 64, 85
1, 104026, Control_c, 0, 64, 81
1, 104031, Note_on_c, 0, 69, 42
1, 104041, Control_c, 0, 64, 74
1, 104048, Note_off_c, 0, 60, 40
1, 104056, Control_c, 0, 64, 65
1, 104062, Note_off_c, 0, 69, 52
1, 104063, Note_on_c, 0, 57, 39
1, 104070, Control_c, 0, 64, 31
1, 104085, Control_c, 0, 64, 0
1, 104137, Control_c, 0, 64, 54
1, 104150, Note_on_c, 0, 70, 54
1, 104152, Control_c, 0, 64, 63
1, 104167, Control_c, 0, 64, 66
1, 104182, Control_c, 0, 64, 68
1, 104197, Control_c, 0, 64, 70
1, 104205, Note_off_c, 0, 57, 47
1, 104212, Control_c, 0, 64, 73
1, 104215, Note_on_c, 0, 60, 29
1, 104221, Note_off_c, 0, 70, 61
1, 104226, Control_c, 0, 64, 75
1, 104229, Note_on_c, 0, 69, 54
1, 104241, Control_c, 0, 64, 78
1, 104256, Control_c, 0, 64, 81
1, 104270, Control_c, 0, 64, 82
1, 104285, Control_c, 0, 64, 84
1, 104300, Control_c, 0, 64, 85
1, 104303, Note_off_c, 0, 69, 59
1, 104315, Control_c, 0, 64, 85
1, 104330, Control_c, 0, 64, 86
1, 104334, Note_on_c, 0, 70, 59
1, 104347, Note_on_c, 0, 57, 39
1, 104352, Note_off_c, 0, 60, 36
1, 104359, Control_c, 0, 64, 86
1, 104404, Control_c, 0, 64, 87
1, 104406, Note_off_c, 0, 70, 59
1, 104426, Note_on_c, 0, 69, 55
1, 104490, Note_off_c, 0, 57, 50
1, 104497, Note_off_c, 0, 69, 63
1, 104511, Note_on_c, 0, 60, 35
1, 104518, Note_on_c, 0, 70, 62
1, 104561, Note_off_c, 0, 76, 28
1, 104582, Control_c, 0, 64, 86
1, 104597, Control_c, 0, 64, 86
1, 104612, Control_c, 0, 64, 85
1, 104618, Note_off_c, 0, 70, 53
1, 104627, Control_c, 0, 64, 82
1, 104641, Control_c, 0, 64, 75
1, 104642, Note_on_c, 0, 77, 67
1, 104650, Note_off_c, 0, 60, 48
1, 104653, Note_on_c, 0, 69, 51
1, 104656, Control_c, 0, 64, 67
1, 104671, Control_c, 0, 64, 32
1, 104683, Note_on_c, 0, 57, 35
1, 104686, Control_c, 0, 64, 0
1, 104733, Note_off_c, 0, 69, 61
1, 104745, Control_c, 0, 64, 49
1, 104756, Note_on_c, 0, 70, 51
1, 104760, Control_c, 0, 64, 63
1, 104775, Control_c, 0, 64, 66
1, 104790, Control_c, 0, 64, 67
1, 104791, Note_off_c, 0, 57, 56
1, 104805, Control_c, 0, 64, 69
1, 104817, Note_on_c, 0, 60, 33
1, 104820, Control_c, 0, 64, 71
1, 104841, Control_c, 0, 64, 73
1, 104845, Note_off_c, 0, 70, 62
1, 104856, Control_c, 0, 64, 76
1, 104865, Note_on_c, 0, 69, 52
1, 104871, Control_c, 0, 64, 79
1, 104886, Control_c, 0, 64, 81
1, 104900, Control_c, 0, 64, 83
1, 104906, Note_off_c, 0, 60, 53
1, 104915, Control_c, 0, 64, 85
1, 104919, Note_off_c, 0, 69, 52
1, 104930, Control_c, 0, 64, 87
1, 104945, Control_c, 0, 64, 88
1, 104951, Note_on_c, 0, 57, 41
1, 104959, Note_on_c, 0, 70, 56
1, 104960, Control_c, 0, 64, 89
1, 104975, Control_c, 0, 64, 90
1, 104990, Control_c, 0, 64, 90
1, 105020, Control_c, 0, 64, 91
1, 105034, Note_off_c, 0, 70, 58
1, 105035, Control_c, 0, 64, 91
1, 105043, Note_on_c, 0, 69, 52
1, 105070, Note_off_c, 0, 57, 55
1, 105092, Note_on_c, 0, 60, 42
1, 105124, Note_off_c, 0, 69, 63
1, 105136, Note_off_c, 0, 60, 52
1, 105148, Note_on_c, 0, 70, 63
1, 105263, Note_off_c, 0, 70, 59
1, 105266, Note_on_c, 0, 69, 58
1, 105282, Note_on_c, 0, 60, 44
1, 105288, Control_c, 0, 64, 90
1, 105303, Control_c, 0, 64, 85
1, 105317, Control_c, 0, 64, 75
1, 105332, Control_c, 0, 64, 26
1, 105347, Control_c, 0, 64, 0
1, 105360, Note_off_c, 0, 69, 62
1, 105383, Note_on_c, 0, 70, 55
1, 105402, Note_off_c, 0, 60, 59
1, 105421, Control_c, 0, 64, 45
1, 105425, Note_on_c, 0, 63, 45
1, 105436, Control_c, 0, 64, 66
1, 105451, Control_c, 0, 64, 71
1, 105464, Note_off_c, 0, 70, 61
1, 105465, Control_c, 0, 64, 76
1, 105480, Control_c, 0, 64, 80
1, 105482, Note_on_c, 0, 69, 57
1, 105495, Control_c, 0, 64, 84
1, 105509, Control_c, 0, 64, 87
1, 105524, Control_c, 0, 64, 90
1, 105539, Control_c, 0, 64, 91
1, 105541, Note_off_c, 0, 69, 62
1, 105542, Note_off_c, 0, 63, 56
1, 105554, Control_c, 0, 64, 92
1, 105563, Note_on_c, 0, 60, 40
1, 105569, Control_c, 0, 64, 93
1, 105577, Note_on_c, 0, 70, 59
1, 105591, Control_c, 0, 64, 94
1, 105601, Note_off_c, 0, 77, 39
1, 105606, Control_c, 0, 64, 95
1, 105621, Control_c, 0, 64, 96
1, 105640, Note_off_c, 0, 70, 59
1, 105661, Note_on_c, 0, 69, 59
1, 105698, Note_off_c, 0, 60, 58
1, 105706, Note_on_c, 0, 63, 47
1, 105735, Note_off_c, 0, 69, 59
1, 105745, Note_on_c, 0, 70, 62
1, 105754, Control_c, 0, 64, 96
1, 105823, Note_off_c, 0, 70, 60
1, 105869, Note_on_c, 0, 77, 81
1, 105887, Control_c, 0, 64, 94
1, 105896, Note_on_c, 0, 69, 55
1, 105902, Control_c, 0, 64, 89
1, 105909, Note_off_c, 0, 63, 41
1, 105917, Control_c, 0, 64, 82
1, 105919, Note_on_c, 0, 60, 43
1, 105932, Control_c, 0, 64, 74
1, 105947, Control_c, 0, 64, 66
1, 105961, Note_off_c, 0, 69, 46
1, 105962, Control_c, 0, 64, 42
1, 105977, Control_c, 0, 64, 0
1, 105991, Control_c, 0, 64, 44
1, 106006, Control_c, 0, 64, 61
1, 106018, Note_on_c, 0, 70, 53
1, 106021, Control_c, 0, 64, 65
1, 106036, Control_c, 0, 64, 66
1, 106043, Note_off_c, 0, 60, 53
1, 106051, Control_c, 0, 64, 68
1, 106057, Note_on_c, 0, 63, 36
1, 106066, Control_c, 0, 64, 70
1, 106081, Control_c, 0, 64, 73
1, 106094, Note_on_c, 0, 69, 56
1, 106096, Control_c, 0, 64, 77
1, 106105, Note_off_c, 0, 70, 61
1, 106111, Control_c, 0, 64, 80
1, 106126, Control_c, 0, 64, 82
1, 106140, Control_c, 0, 64, 85
1, 106155, Control_c, 0, 64, 87
1, 106170, Control_c, 0, 64, 89
1, 106185, Control_c, 0, 64, 90
1, 106187, Note_off_c, 0, 69, 63
1, 106200, Control_c, 0, 64, 91
1, 106202, Note_on_c, 0, 70, 62
1, 106203, Note_on_c, 0, 60, 37
1, 106209, Note_off_c, 0, 77, 30
1, 106211, Note_off_c, 0, 63, 40
1, 106214, Control_c, 0, 64, 92
1, 106229, Control_c, 0, 64, 92
1, 106259, Control_c, 0, 64, 93
1, 106303, Control_c, 0, 64, 94
1, 106307, Note_on_c, 0, 69, 57
1, 106307, Note_off_c, 0, 70, 60
1, 106365, Note_on_c, 0, 63, 36
1, 106371, Note_off_c, 0, 60, 36
1, 106412, Note_off_c, 0, 69, 64
1, 106424, Note_on_c, 0, 70, 66
1, 106444, Control_c, 0, 64, 94
1, 106496, Note_off_c, 0, 70, 60
1, 106534, Note_on_c, 0, 78, 85
1, 106553, Note_on_c, 0, 69, 59
1, 106556, Note_off_c, 0, 63, 39
1, 106561, Note_on_c, 0, 60, 41
1, 106562, Control_c, 0, 64, 93
1, 106577, Control_c, 0, 64, 90
1, 106592, Control_c, 0, 64, 85
1, 106607, Control_c, 0, 64, 79
1, 106608, Note_off_c, 0, 69, 47
1, 106621, Control_c, 0, 64, 72
1, 106636, Control_c, 0, 64, 64
1, 106651, Control_c, 0, 64, 0
1, 106656, Note_on_c, 0, 70, 58
1, 106667, Note_off_c, 0, 60, 58
1, 106680, Control_c, 0, 64, 18
1, 106692, Note_on_c, 0, 63, 34
1, 106695, Control_c, 0, 64, 55
1, 106710, Control_c, 0, 64, 63
1, 106725, Control_c, 0, 64, 65
1, 106740, Control_c, 0, 64, 68
1, 106747, Note_off_c, 0, 70, 61
1, 106749, Note_on_c, 0, 69, 57
1, 106754, Control_c, 0, 64, 70
1, 106769, Control_c, 0, 64, 74
1, 106784, Control_c, 0, 64, 77
1, 106799, Control_c, 0, 64, 80
1, 106814, Note_off_c, 0, 63, 40
1, 106814, Control_c, 0, 64, 83
1, 106820, Note_on_c, 0, 60, 43
1, 106825, Note_off_c, 0, 69, 61
1, 106829, Control_c, 0, 64, 86
1, 106844, Control_c, 0, 64, 89
1, 106858, Note_on_c, 0, 70, 61
1, 106859, Control_c, 0, 64, 90
1, 106874, Control_c, 0, 64, 92
1, 106889, Control_c, 0, 64, 94
1, 106904, Control_c, 0, 64, 95
1, 106918, Control_c, 0, 64, 97
1, 106933, Control_c, 0, 64, 98
1, 106940, Note_off_c, 0, 70, 60
1, 106942, Note_on_c, 0, 69, 62
1, 106946, Note_off_c, 0, 60, 49
1, 106948, Control_c, 0, 64, 100
1, 106958, Note_on_c, 0, 63, 39
1, 106962, Control_c, 0, 64, 101
1, 106977, Control_c, 0, 64, 102
1, 106992, Control_c, 0, 64, 103
1, 107007, Control_c, 0, 64, 103
1, 107022, Control_c, 0, 64, 104
1, 107033, Note_off_c, 0, 69, 61
1, 107036, Control_c, 0, 64, 104
1, 107048, Note_on_c, 0, 70, 67
1, 107065, Note_off_c, 0, 78, 37
1, 107139, Note_off_c, 0, 70, 57
1, 107148, Control_c, 0, 64, 102
1, 107163, Control_c, 0, 64, 98
1, 107177, Control_c, 0, 64, 92
1, 107183, Note_on_c, 0, 79, 79
1, 107192, Control_c, 0, 64, 83
1, 107207, Control_c, 0, 64, 74
1, 107208, Note_off_c, 0, 63, 42
1, 107211, Note_on_c, 0, 71, 52
1, 107222, Control_c, 0, 64, 62
1, 107229, Note_on_c, 0, 62, 39
1, 107237, Control_c, 0, 64, 0
1, 107245, Note_off_c, 0, 71, 46
1, 107281, Control_c, 0, 64, 46
1, 107295, Control_c, 0, 64, 62
1, 107310, Control_c, 0, 64, 65
1, 107324, Note_on_c, 0, 72, 51
1, 107325, Control_c, 0, 64, 67
1, 107340, Control_c, 0, 64, 69
1, 107354, Note_off_c, 0, 62, 56
1, 107355, Control_c, 0, 64, 72
1, 107369, Control_c, 0, 64, 75
1, 107384, Control_c, 0, 64, 79
1, 107395, Note_on_c, 0, 65, 46
1, 107399, Control_c, 0, 64, 82
1, 107407, Note_off_c, 0, 72, 61
1, 107414, Control_c, 0, 64, 85
1, 107425, Note_on_c, 0, 71, 50
1, 107429, Control_c, 0, 64, 88
1, 107443, Control_c, 0, 64, 90
1, 107458, Control_c, 0, 64, 91
1, 107473, Control_c, 0, 64, 92
1, 107488, Control_c, 0, 64, 94
1, 107491, Note_off_c, 0, 71, 57
1, 107502, Note_off_c, 0, 79, 59
1, 107503, Control_c, 0, 64, 95
1, 107518, Control_c, 0, 64, 96
1, 107519, Note_on_c, 0, 72, 59
1, 107524, Note_off_c, 0, 65, 39
1, 107533, Control_c, 0, 64, 97
1, 107539, Note_on_c, 0, 62, 38
1, 107547, Control_c, 0, 64, 98
1, 107562, Control_c, 0, 64, 99
1, 107577, Control_c, 0, 64, 99
1, 107592, Control_c, 0, 64, 100
1, 107604, Note_off_c, 0, 72, 60
1, 107607, Control_c, 0, 64, 100
1, 107615, Note_on_c, 0, 71, 57
1, 107622, Control_c, 0, 64, 101
1, 107680, Note_on_c, 0, 65, 32
1, 107689, Note_off_c, 0, 62, 35
1, 107699, Note_off_c, 0, 71, 56
1, 107712, Note_on_c, 0, 72, 59
1, 107726, Control_c, 0, 64, 101
1, 107852, Control_c, 0, 64, 101
1, 107866, Control_c, 0, 64, 100
1, 107881, Control_c, 0, 64, 98
1, 107888, Note_on_c, 0, 80, 77
1, 107893, Note_off_c, 0, 72, 33
1, 107896, Control_c, 0, 64, 93
1, 107911, Control_c, 0, 64, 86
1, 107915, Note_on_c, 0, 71, 49
1, 107926, Control_c, 0, 64, 78
1, 107935, Note_off_c, 0, 65, 40
1, 107941, Control_c, 0, 64, 70
1, 107956, Control_c, 0, 64, 61
1, 107960, Note_on_c, 0, 62, 30
1, 107971, Control_c, 0, 64, 23
1, 107986, Control_c, 0, 64, 43
1, 108000, Control_c, 0, 64, 60
1, 108015, Control_c, 0, 64, 65
1, 108030, Control_c, 0, 64, 67
1, 108031, Note_on_c, 0, 72, 51
1, 108042, Note_off_c, 0, 71, 36
1, 108045, Control_c, 0, 64, 70
1, 108060, Control_c, 0, 64, 72
1, 108074, Control_c, 0, 64, 74
1, 108089, Control_c, 0, 64, 77
1, 108104, Control_c, 0, 64, 80
1, 108118, Control_c, 0, 64, 84
1, 108124, Note_off_c, 0, 62, 37
1, 108126, Note_off_c, 0, 72, 58
1, 108129, Note_on_c, 0, 65, 41
1, 108133, Control_c, 0, 64, 87
1, 108148, Control_c, 0, 64, 90
1, 108153, Note_on_c, 0, 71, 35
1, 108163, Control_c, 0, 64, 92
1, 108178, Control_c, 0, 64, 93
1, 108192, Control_c, 0, 64, 95
1, 108207, Note_off_c, 0, 71, 43
1, 108207, Control_c, 0, 64, 96
1, 108222, Control_c, 0, 64, 98
1, 108236, Note_on_c, 0, 72, 50
1, 108236, Control_c, 0, 64, 99
1, 108251, Control_c, 0, 64, 99
1, 108266, Control_c, 0, 64, 100
1, 108272, Note_off_c, 0, 65, 40
1, 108276, Note_on_c, 0, 62, 35
1, 108281, Control_c, 0, 64, 100
1, 108296, Control_c, 0, 64, 101
1, 108311, Control_c, 0, 64, 101
1, 108327, Note_off_c, 0, 72, 58
1, 108346, Note_on_c, 0, 71, 33
1, 108432, Note_on_c, 0, 65, 36
1, 108441, Note_off_c, 0, 71, 36
1, 108442, Note_off_c, 0, 62, 38
1, 108464, Note_on_c, 0, 72, 38
1, 108531, Note_off_c, 0, 72, 52
1, 108558, Note_on_c, 0, 71, 38
1, 108595, Note_off_c, 0, 65, 43
1, 108603, Note_on_c, 0, 62, 34
1, 108626, Note_off_c, 0, 71, 44
1, 108660, Note_on_c, 0, 72, 46
1, 108742, Note_off_c, 0, 72, 56
1, 108751, Note_on_c, 0, 65, 33
1, 108755, Note_on_c, 0, 71, 43
1, 108763, Note_off_c, 0, 62, 38
1, 108828, Note_off_c, 0, 71, 55
1, 108868, Note_on_c, 0, 72, 48
1, 108894, Note_off_c, 0, 65, 44
1, 108896, Note_on_c, 0, 62, 37
1, 108960, Note_off_c, 0, 72, 58
1, 108969, Note_on_c, 0, 71, 40
1, 109010, Note_off_c, 0, 62, 54
1, 109062, Note_on_c, 0, 65, 31
1, 109078, Note_off_c, 0, 71, 48
1, 109087, Note_off_c, 0, 80, 38
1, 109089, Note_on_c, 0, 72, 52
1, 109090, Control_c, 0, 64, 101
1, 109120, Control_c, 0, 64, 100
1, 109134, Control_c, 0, 64, 100
1, 109149, Control_c, 0, 64, 99
1, 109164, Control_c, 0, 64, 96
1, 109179, Control_c, 0, 64, 92
1, 109188, Note_off_c, 0, 72, 55
1, 109194, Control_c, 0, 64, 86
1, 109205, Note_on_c, 0, 80, 61
1, 109210, Control_c, 0, 64, 79
1, 109225, Control_c, 0, 64, 71
1, 109231, Note_on_c, 0, 71, 34
1, 109239, Control_c, 0, 64, 64
1, 109245, Note_off_c, 0, 65, 42
1, 109254, Control_c, 0, 64, 58
1, 109257, Note_on_c, 0, 55, 31
1, 109269, Control_c, 0, 64, 59
1, 109283, Control_c, 0, 64, 63
1, 109298, Control_c, 0, 64, 66
1, 109313, Control_c, 0, 64, 68
1, 109336, Control_c, 0, 64, 71
1, 109342, Note_off_c, 0, 71, 37
1, 109344, Note_on_c, 0, 72, 47
1, 109351, Control_c, 0, 64, 73
1, 109365, Control_c, 0, 64, 75
1, 109380, Control_c, 0, 64, 77
1, 109395, Control_c, 0, 64, 79
1, 109410, Control_c, 0, 64, 82
1, 109425, Control_c, 0, 64, 84
1, 109428, Note_on_c, 0, 65, 37
1, 109431, Note_off_c, 0, 72, 58
1, 109439, Control_c, 0, 64, 86
1, 109444, Note_off_c, 0, 55, 41
1, 109454, Control_c, 0, 64, 88
1, 109469, Control_c, 0, 64, 89
1, 109472, Note_on_c, 0, 71, 26
1, 109484, Control_c, 0, 64, 90
1, 109498, Control_c, 0, 64, 91
1, 109513, Control_c, 0, 64, 92
1, 109522, Note_off_c, 0, 71, 44
1, 109528, Control_c, 0, 64, 93
1, 109543, Control_c, 0, 64, 94
1, 109558, Control_c, 0, 64, 95
1, 109562, Note_on_c, 0, 72, 48
1, 109562, Note_off_c, 0, 65, 43
1, 109572, Control_c, 0, 64, 95
1, 109584, Note_on_c, 0, 55, 34
1, 109587, Control_c, 0, 64, 96
1, 109602, Control_c, 0, 64, 96
1, 109655, Note_off_c, 0, 72, 56
1, 109656, Note_on_c, 0, 71, 43
1, 109677, Note_off_c, 0, 80, 44
1, 109738, Note_off_c, 0, 71, 59
1, 109739, Note_on_c, 0, 72, 43
1, 109750, Note_off_c, 0, 55, 44
1, 109757, Note_on_c, 0, 65, 31
1, 109793, Control_c, 0, 64, 95
1, 109808, Control_c, 0, 64, 94
1, 109823, Control_c, 0, 64, 91
1, 109837, Control_c, 0, 64, 86
1, 109843, Note_off_c, 0, 72, 59
1, 109852, Control_c, 0, 64, 80
1, 109865, Note_on_c, 0, 77, 60
1, 109867, Control_c, 0, 64, 73
1, 109878, Note_on_c, 0, 55, 36
1, 109881, Control_c, 0, 64, 65
1, 109883, Note_on_c, 0, 71, 39
1, 109895, Note_off_c, 0, 65, 36
1, 109896, Control_c, 0, 64, 33
1, 109911, Control_c, 0, 64, 0
1, 109926, Control_c, 0, 64, 41
1, 109941, Control_c, 0, 64, 59
1, 109949, Note_off_c, 0, 71, 39
1, 109956, Control_c, 0, 64, 64
1, 109971, Control_c, 0, 64, 66
1, 109978, Note_on_c, 0, 72, 52
1, 109986, Control_c, 0, 64, 68
1, 110001, Control_c, 0, 64, 70
1, 110016, Control_c, 0, 64, 71
1, 110031, Control_c, 0, 64, 73
1, 110046, Control_c, 0, 64, 75
1, 110054, Note_off_c, 0, 72, 60
1, 110060, Control_c, 0, 64, 77
1, 110073, Note_on_c, 0, 71, 43
1, 110083, Control_c, 0, 64, 79
1, 110090, Note_off_c, 0, 55, 43
1, 110098, Control_c, 0, 64, 80
1, 110102, Note_on_c, 0, 65, 35
1, 110112, Control_c, 0, 64, 81
1, 110127, Control_c, 0, 64, 82
1, 110142, Control_c, 0, 64, 82
1, 110157, Control_c, 0, 64, 83
1, 110159, Note_off_c, 0, 71, 38
1, 110172, Control_c, 0, 64, 83
1, 110186, Note_on_c, 0, 72, 54
1, 110201, Control_c, 0, 64, 84
1, 110226, Note_on_c, 0, 55, 36
1, 110227, Note_off_c, 0, 65, 41
1, 110246, Control_c, 0, 64, 84
1, 110268, Note_off_c, 0, 72, 58
1, 110275, Control_c, 0, 64, 85
1, 110287, Note_on_c, 0, 71, 39
1, 110368, Note_off_c, 0, 71, 37
1, 110376, Note_on_c, 0, 72, 57
1, 110382, Note_off_c, 0, 55, 41
1, 110387, Note_on_c, 0, 65, 36
1, 110395, Note_off_c, 0, 77, 32
1, 110424, Control_c, 0, 64, 84
1, 110439, Control_c, 0, 64, 83
1, 110454, Control_c, 0, 64, 80
1, 110468, Control_c, 0, 64, 75
1, 110480, Note_off_c, 0, 72, 51
1, 110483, Control_c, 0, 64, 68
1, 110493, Note_on_c, 0, 79, 60
1, 110498, Control_c, 0, 64, 53
1, 110512, Control_c, 0, 64, 0
1, 110518, Note_on_c, 0, 71, 38
1, 110551, Note_on_c, 0, 55, 25
1, 110566, Note_off_c, 0, 65, 43
1, 110570, Note_off_c, 0, 71, 44
1, 110606, Note_on_c, 0, 72, 54
1, 110645, Control_c, 0, 64, 56
1, 110654, Note_off_c, 0, 72, 61
1, 110660, Control_c, 0, 64, 66
1, 110675, Control_c, 0, 64, 69
1, 110689, Note_on_c, 0, 71, 45
1, 110690, Control_c, 0, 64, 72
1, 110704, Control_c, 0, 64, 74
1, 110707, Note_on_c, 0, 62, 33
1, 110716, Note_off_c, 0, 55, 40
1, 110719, Control_c, 0, 64, 77
1, 110722, Note_off_c, 0, 71, 54
1, 110734, Control_c, 0, 64, 79
1, 110749, Control_c, 0, 64, 82
1, 110757, Note_on_c, 0, 72, 52
1, 110764, Control_c, 0, 64, 85
1, 110779, Control_c, 0, 64, 87
1, 110787, Note_off_c, 0, 72, 61
1, 110794, Control_c, 0, 64, 90
1, 110809, Control_c, 0, 64, 94
1, 110817, Note_on_c, 0, 55, 50
1, 110818, Note_on_c, 0, 71, 56
1, 110824, Control_c, 0, 64, 97
1, 110846, Note_off_c, 0, 62, 36
1, 110847, Control_c, 0, 64, 100
1, 110862, Control_c, 0, 64, 103
1, 110868, Note_off_c, 0, 71, 60
1, 110877, Control_c, 0, 64, 105
1, 110889, Note_on_c, 0, 72, 59
1, 110891, Control_c, 0, 64, 106
1, 110906, Control_c, 0, 64, 106
1, 110922, Note_off_c, 0, 72, 62
1, 110945, Note_on_c, 0, 71, 57
1, 110967, Note_off_c, 0, 55, 59
1, 110980, Note_on_c, 0, 62, 41
1, 110994, Note_off_c, 0, 71, 61
1, 111010, Note_on_c, 0, 72, 60
1, 111052, Note_off_c, 0, 79, 50
1, 111053, Control_c, 0, 64, 105
1, 111056, Note_off_c, 0, 72, 61
1, 111068, Control_c, 0, 64, 103
1, 111074, Note_on_c, 0, 71, 47
1, 111083, Control_c, 0, 64, 98
1, 111098, Control_c, 0, 64, 92
1, 111107, Note_off_c, 0, 71, 54
1, 111113, Control_c, 0, 64, 83
1, 111128, Control_c, 0, 64, 71
1, 111142, Control_c, 0, 64, 0
1, 111146, Note_off_c, 0, 62, 42
1, 111157, Note_on_c, 0, 79, 65
1, 111175, Note_on_c, 0, 60, 51
1, 111177, Note_on_c, 0, 72, 48
1, 111217, Control_c, 0, 64, 58
1, 111231, Note_off_c, 0, 72, 41
1, 111232, Control_c, 0, 64, 64
1, 111247, Control_c, 0, 64, 65
1, 111256, Note_off_c, 0, 79, 60
1, 111261, Control_c, 0, 64, 66
1, 111276, Note_on_c, 0, 74, 52
1, 111276, Control_c, 0, 64, 68
1, 111291, Control_c, 0, 64, 70
1, 111306, Control_c, 0, 64, 73
1, 111321, Control_c, 0, 64, 74
1, 111335, Note_off_c, 0, 60, 52
1, 111335, Control_c, 0, 64, 76
1, 111338, Note_off_c, 0, 74, 64
1, 111350, Control_c, 0, 64, 76
1, 111351, Note_on_c, 0, 72, 61
1, 111360, Note_on_c, 0, 63, 43
1, 111365, Control_c, 0, 64, 77
1, 111380, Control_c, 0, 64, 77
1, 111402, Note_off_c, 0, 72, 61
1, 111424, Control_c, 0, 64, 78
1, 111426, Note_on_c, 0, 74, 57
1, 111448, Note_off_c, 0, 63, 54
1, 111478, Note_on_c, 0, 60, 47
1, 111481, Note_off_c, 0, 74, 63
1, 111497, Note_on_c, 0, 72, 63
1, 111543, Note_off_c, 0, 72, 61
1, 111571, Note_on_c, 0, 74, 52
1, 111607, Note_off_c, 0, 60, 53
1, 111619, Note_off_c, 0, 74, 65
1, 111625, Control_c, 0, 64, 78
1, 111638, Note_on_c, 0, 63, 40
1, 111638, Note_on_c, 0, 72, 58
1, 111655, Control_c, 0, 64, 79
1, 111661, Note_off_c, 0, 72, 60
1, 111684, Control_c, 0, 64, 79
1, 111698, Note_on_c, 0, 74, 37
1, 111740, Note_off_c, 0, 74, 51
1, 111745, Note_on_c, 0, 72, 58
1, 111758, Control_c, 0, 64, 79
1, 111773, Control_c, 0, 64, 78
1, 111788, Control_c, 0, 64, 77
1, 111803, Control_c, 0, 64, 76
1, 111804, Note_off_c, 0, 63, 43
1, 111818, Control_c, 0, 64, 73
1, 111831, Note_off_c, 0, 72, 60
1, 111832, Control_c, 0, 64, 70
1, 111847, Control_c, 0, 64, 65
1, 111852, Note_on_c, 0, 71, 50
1, 111862, Control_c, 0, 64, 57
1, 111864, Note_on_c, 0, 55, 41
1, 111877, Control_c, 0, 64, 0
1, 111913, Note_off_c, 0, 71, 56
1, 111936, Control_c, 0, 64, 39
1, 111951, Control_c, 0, 64, 51
1, 111953, Note_on_c, 0, 72, 45
1, 111965, Control_c, 0, 64, 54
1, 111980, Control_c, 0, 64, 56
1, 111996, Control_c, 0, 64, 58
1, 112004, Note_off_c, 0, 72, 60
1, 112011, Control_c, 0, 64, 61
1, 112015, Note_off_c, 0, 55, 44
1, 112025, Note_on_c, 0, 62, 36
1, 112025, Control_c, 0, 64, 62
1, 112040, Control_c, 0, 64, 63
1, 112043, Note_on_c, 0, 71, 45
1, 112055, Control_c, 0, 64, 64
1, 112070, Control_c, 0, 64, 64
1, 112075, Note_off_c, 0, 71, 54
1, 112084, Control_c, 0, 64, 65
1, 112099, Control_c, 0, 64, 66
1, 112129, Control_c, 0, 64, 66
1, 112134, Note_on_c, 0, 72, 36
1, 112149, Note_on_c, 0, 55, 39
1, 112157, Note_off_c, 0, 62, 37
1, 112159, Control_c, 0, 64, 67
1, 112160, Note_off_c, 0, 72, 56
1, 112178, Note_on_c, 0, 71, 49
1, 112189, Control_c, 0, 64, 67
1, 112224, Note_off_c, 0, 71, 59
1, 112255, Note_on_c, 0, 72, 51
1, 112293, Note_on_c, 0, 62, 33
1, 112313, Note_off_c, 0, 72, 58
1, 112335, Note_off_c, 0, 62, 57
1, 112353, Note_on_c, 0, 71, 51
1, 112372, Note_off_c, 0, 55, 43
1, 112449, Control_c, 0, 64, 67
1, 112478, Control_c, 0, 64, 66
1, 112493, Control_c, 0, 64, 66
1, 112508, Control_c, 0, 64, 65
1, 112523, Control_c, 0, 64, 65
1, 112537, Control_c, 0, 64, 64
1, 112552, Control_c, 0, 64, 64
1, 112582, Control_c, 0, 64, 63
1, 112597, Control_c, 0, 64, 63
1, 112612, Control_c, 0, 64, 62
1, 112627, Control_c, 0, 64, 61
1, 112642, Control_c, 0, 64, 60
1, 112656, Control_c, 0, 64, 59
1, 112671, Control_c, 0, 64, 58
1, 112686, Control_c, 0, 64, 56
1, 112694, Note_on_c, 0, 72, 41
1, 112701, Control_c, 0, 64, 54
1, 112702, Note_off_c, 0, 71, 40
1, 112715, Control_c, 0, 64, 52
1, 112728, Note_on_c, 0, 48, 29
1, 112730, Control_c, 0, 64, 50
1, 112732, Note_on_c, 0, 60, 26
1, 112745, Control_c, 0, 64, 47
1, 112760, Control_c, 0, 64, 45
1, 112775, Control_c, 0, 64, 43
1, 112789, Control_c, 0, 64, 42
1, 112804, Control_c, 0, 64, 39
1, 112819, Control_c, 0, 64, 38
1, 112833, Control_c, 0, 64, 35
1, 112848, Control_c, 0, 64, 33
1, 112863, Control_c, 0, 64, 31
1, 112907, Control_c, 0, 64, 32
1, 112922, Control_c, 0, 64, 36
1, 112937, Control_c, 0, 64, 39
1, 112952, Control_c, 0, 64, 43
1, 112967, Control_c, 0, 64, 48
1, 112982, Control_c, 0, 64, 52
1, 112997, Control_c, 0, 64, 55
1, 113011, Control_c, 0, 64, 59
1, 113026, Control_c, 0, 64, 62
1, 113041, Control_c, 0, 64, 64
1, 113056, Control_c, 0, 64, 65
1, 113078, Control_c, 0, 64, 67
1, 113093, Control_c, 0, 64, 68
1, 113107, Control_c, 0, 64, 71
1, 113122, Control_c, 0, 64, 75
1, 113137, Control_c, 0, 64, 78
1, 113152, Control_c, 0, 64, 82
1, 113167, Control_c, 0, 64, 86
1, 113181, Control_c, 0, 64, 89
1, 113196, Control_c, 0, 64, 93
1, 113202, Note_off_c, 0, 60, 48
1, 113202, Note_off_c, 0, 72, 58
1, 113212, Control_c, 0, 64, 96
1, 113227, Control_c, 0, 64, 99
1, 113242, Control_c, 0, 64, 102
1, 113257, Control_c, 0, 64, 103
1, 113307, Note_off_c, 0, 48, 54
1, 113345, Control_c, 0, 64, 101
1, 113360, Control_c, 0, 64, 99
1, 113375, Control_c, 0, 64, 96
1, 113390, Control_c, 0, 64, 92
1, 113405, Control_c, 0, 64, 88
1, 113420, Control_c, 0, 64, 84
1, 113435, Control_c, 0, 64, 80
1, 113450, Control_c, 0, 64, 75
1, 113464, Control_c, 0, 64, 72
1, 113479, Control_c, 0, 64, 70
1, 113493, Control_c, 0, 64, 67
1, 113508, Control_c, 0, 64, 65
1, 113523, Control_c, 0, 64, 64
1, 113537, Control_c, 0, 64, 62
1, 113552, Control_c, 0, 64, 62
1, 113569, Note_on_c, 0, 36, 72
1, 113611, Control_c, 0, 64, 61
1, 113615, Note_off_c, 0, 36, 60
1, 113643, Note_on_c, 0, 31, 74
1, 113685, Control_c, 0, 64, 61
1, 113700, Control_c, 0, 64, 60
1, 113715, Control_c, 0, 64, 60
1, 113721, Note_on_c, 0, 33, 77
1, 113728, Note_off_c, 0, 31, 63
1, 113730, Control_c, 0, 64, 59
1, 113745, Control_c, 0, 64, 58
1, 113760, Control_c, 0, 64, 57
1, 113775, Control_c, 0, 64, 55
1, 113783, Note_off_c, 0, 33, 65
1, 113785, Note_on_c, 0, 35, 71
1, 113789, Control_c, 0, 64, 54
1, 113804, Control_c, 0, 64, 52
1, 113819, Control_c, 0, 64, 50
1, 113841, Control_c, 0, 64, 48
1, 113860, Note_on_c, 0, 79, 100
1, 113860, Note_off_c, 0, 35, 60
1, 113862, Note_on_c, 0, 67, 98
1, 113869, Note_on_c, 0, 36, 75
1, 113900, Control_c, 0, 64, 48
1, 113906, Note_off_c, 0, 36, 66
1, 113915, Control_c, 0, 64, 44
1, 113930, Control_c, 0, 64, 34
1, 113944, Note_on_c, 0, 31, 69
1, 113944, Control_c, 0, 64, 10
1, 113959, Control_c, 0, 64, 0
1, 114010, Note_on_c, 0, 33, 73
1, 114014, Note_off_c, 0, 31, 64
1, 114061, Note_off_c, 0, 33, 64
1, 114064, Note_on_c, 0, 35, 70
1, 114108, Control_c, 0, 64, 10
1, 114121, Note_off_c, 0, 79, 39
1, 114125, Note_off_c, 0, 35, 60
1, 114132, Note_on_c, 0, 36, 77
1, 114134, Note_off_c, 0, 67, 56
1, 114138, Control_c, 0, 64, 13
1, 114171, Note_off_c, 0, 36, 64
1, 114199, Note_on_c, 0, 31, 74
1, 114242, Control_c, 0, 64, 10
1, 114268, Note_on_c, 0, 33, 70
1, 114269, Note_off_c, 0, 31, 64
1, 114286, Control_c, 0, 64, 18
1, 114301, Control_c, 0, 64, 24
1, 114316, Control_c, 0, 64, 28
1, 114322, Note_off_c, 0, 33, 63
1, 114325, Note_on_c, 0, 35, 70
1, 114331, Control_c, 0, 64, 32
1, 114346, Control_c, 0, 64, 34
1, 114360, Control_c, 0, 64, 36
1, 114375, Control_c, 0, 64, 36
1, 114383, Note_off_c, 0, 35, 60
1, 114390, Control_c, 0, 64, 37
1, 114403, Note_on_c, 0, 36, 71
1, 114405, Control_c, 0, 64, 38
1, 114412, Note_on_c, 0, 77, 86
1, 114420, Control_c, 0, 64, 38
1, 114421, Note_on_c, 0, 65, 73
1, 114434, Control_c, 0, 64, 39
1, 114442, Note_off_c, 0, 36, 66
1, 114444, Note_off_c, 0, 77, 62
1, 114446, Note_off_c, 0, 65, 70
1, 114449, Control_c, 0, 64, 41
1, 114464, Control_c, 0, 64, 42
1, 114474, Note_on_c, 0, 31, 68
1, 114478, Control_c, 0, 64, 43
1, 114508, Control_c, 0, 64, 44
1, 114523, Control_c, 0, 64, 45
1, 114538, Control_c, 0, 64, 46
1, 114541, Note_on_c, 0, 33, 67
1, 114543, Note_off_c, 0, 31, 63
1, 114553, Control_c, 0, 64, 47
1, 114567, Control_c, 0, 64, 47
1, 114590, Control_c, 0, 64, 48
1, 114599, Note_on_c, 0, 35, 67
1, 114601, Note_off_c, 0, 33, 63
1, 114604, Control_c, 0, 64, 49
1, 114678, Note_off_c, 0, 35, 59
1, 114678, Control_c, 0, 64, 50
1, 114689, Note_on_c, 0, 75, 77
1, 114690, Note_on_c, 0, 63, 72
1, 114693, Control_c, 0, 64, 50
1, 114697, Note_on_c, 0, 36, 52
1, 114708, Control_c, 0, 64, 52
1, 114716, Note_on_c, 0, 31, 59
1, 114722, Note_off_c, 0, 63, 64
1, 114723, Control_c, 0, 64, 53
1, 114727, Note_off_c, 0, 36, 59
1, 114735, Note_off_c, 0, 75, 63
1, 114738, Control_c, 0, 64, 53
1, 114785, Note_off_c, 0, 31, 63
1, 114791, Note_on_c, 0, 33, 60
1, 114831, Note_on_c, 0, 35, 67
1, 114837, Note_off_c, 0, 33, 64
1, 114843, Control_c, 0, 64, 54
1, 114877, Note_off_c, 0, 35, 63
1, 114910, Note_on_c, 0, 36, 63
1, 114937, Note_off_c, 0, 36, 65
1, 114951, Note_on_c, 0, 72, 77
1, 114955, Note_on_c, 0, 60, 76
1, 114980, Note_on_c, 0, 38, 72
1, 114982, Note_off_c, 0, 60, 66
1, 114991, Control_c, 0, 64, 54
1, 114994, Note_off_c, 0, 72, 63
1, 115036, Control_c, 0, 64, 54
1, 115050, Control_c, 0, 64, 53
1, 115060, Note_off_c, 0, 38, 62
1, 115064, Note_on_c, 0, 40, 68
1, 115065, Control_c, 0, 64, 53
1, 115095, Control_c, 0, 64, 52
1, 115101, Note_off_c, 0, 40, 65
1, 115113, Note_on_c, 0, 42, 69
1, 115140, Control_c, 0, 64, 52
1, 115155, Control_c, 0, 64, 51
1, 115167, Note_off_c, 0, 42, 62
1, 115170, Control_c, 0, 64, 50
1, 115171, Note_on_c, 0, 43, 69
1, 115184, Control_c, 0, 64, 49
1, 115199, Control_c, 0, 64, 48
1, 115212, Note_on_c, 0, 71, 80
1, 115215, Note_on_c, 0, 59, 67
1, 115220, Note_off_c, 0, 43, 58
1, 115228, Control_c, 0, 64, 48
1, 115232, Note_off_c, 0, 59, 65
1, 115241, Note_on_c, 0, 38, 74
1, 115243, Control_c, 0, 64, 47
1, 115247, Note_off_c, 0, 71, 65
1, 115258, Control_c, 0, 64, 45
1, 115273, Control_c, 0, 64, 44
1, 115288, Control_c, 0, 64, 43
1, 115302, Control_c, 0, 64, 42
1, 115310, Note_on_c, 0, 40, 76
1, 115316, Note_off_c, 0, 38, 63
1, 115317, Control_c, 0, 64, 41
1, 115375, Note_on_c, 0, 42, 76
1, 115376, Note_off_c, 0, 40, 64
1, 115399, Control_c, 0, 64, 41
1, 115443, Note_off_c, 0, 42, 63
1, 115443, Control_c, 0, 64, 41
1, 115447, Note_on_c, 0, 43, 70
1, 115480, Note_on_c, 0, 86, 99
1, 115485, Note_on_c, 0, 74, 103
1, 115489, Note_off_c, 0, 43, 59
1, 115513, Note_on_c, 0, 38, 74
1, 115532, Control_c, 0, 64, 42
1, 115547, Control_c, 0, 64, 41
1, 115578, Note_on_c, 0, 40, 77
1, 115589, Note_off_c, 0, 38, 62
1, 115591, Control_c, 0, 64, 42
1, 115607, Control_c, 0, 64, 43
1, 115622, Control_c, 0, 64, 44
1, 115634, Note_on_c, 0, 42, 69
1, 115637, Control_c, 0, 64, 45
1, 115641, Note_off_c, 0, 40, 63
1, 115651, Control_c, 0, 64, 46
1, 115696, Control_c, 0, 64, 45
1, 115699, Note_on_c, 0, 43, 76
1, 115708, Note_off_c, 0, 42, 63
1, 115736, Note_off_c, 0, 74, 62
1, 115736, Note_off_c, 0, 86, 55
1, 115740, Control_c, 0, 64, 46
1, 115755, Note_off_c, 0, 43, 56
1, 115763, Note_on_c, 0, 38, 75
1, 115770, Control_c, 0, 64, 46
1, 115829, Control_c, 0, 64, 46
1, 115830, Note_on_c, 0, 40, 76
1, 115845, Note_off_c, 0, 38, 63
1, 115873, Control_c, 0, 64, 46
1, 115883, Note_on_c, 0, 42, 69
1, 115888, Control_c, 0, 64, 47
1, 115894, Note_off_c, 0, 40, 62
1, 115903, Control_c, 0, 64, 48
1, 115918, Control_c, 0, 64, 48
1, 115933, Control_c, 0, 64, 49
1, 115958, Note_off_c, 0, 42, 61
1, 115970, Note_on_c, 0, 43, 63
1, 115998, Note_on_c, 0, 84, 88
1, 116001, Note_on_c, 0, 72, 81
1, 116013, Note_off_c, 0, 43, 61
1, 116022, Note_off_c, 0, 72, 71
1, 116031, Note_on_c, 0, 38, 67
1, 116034, Note_off_c, 0, 84, 66
1, 116066, Control_c, 0, 64, 49
1, 116096, Note_on_c, 0, 40, 71
1, 116112, Note_off_c, 0, 38, 63
1, 116147, Control_c, 0, 64, 50
1, 116162, Control_c, 0, 64, 50
1, 116168, Note_on_c, 0, 42, 69
1, 116171, Note_off_c, 0, 40, 62
1, 116192, Control_c, 0, 64, 51
1, 116266, Note_on_c, 0, 38, 61
1, 116266, Note_on_c, 0, 83, 86
1, 116266, Control_c, 0, 64, 51
1, 116270, Note_on_c, 0, 71, 79
1, 116281, Control_c, 0, 64, 52
1, 116287, Note_off_c, 0, 42, 50
1, 116291, Note_off_c, 0, 71, 69
1, 116296, Control_c, 0, 64, 52
1, 116304, Note_off_c, 0, 83, 63
1, 116311, Control_c, 0, 64, 53
1, 116343, Note_on_c, 0, 40, 65
1, 116355, Control_c, 0, 64, 53
1, 116358, Note_off_c, 0, 38, 63
1, 116385, Note_on_c, 0, 42, 64
1, 116398, Note_off_c, 0, 40, 59
1, 116401, Control_c, 0, 64, 54
1, 116416, Control_c, 0, 64, 54
1, 116444, Note_off_c, 0, 42, 62
1, 116454, Note_on_c, 0, 43, 69
1, 116510, Note_off_c, 0, 43, 54
1, 116537, Note_on_c, 0, 45, 71
1, 116543, Note_on_c, 0, 79, 86
1, 116544, Note_on_c, 0, 67, 81
1, 116563, Note_off_c, 0, 67, 70
1, 116563, Control_c, 0, 64, 54
1, 116575, Note_off_c, 0, 79, 64
1, 116593, Control_c, 0, 64, 53
1, 116594, Note_off_c, 0, 45, 64
1, 116601, Note_on_c, 0, 47, 73
1, 116608, Control_c, 0, 64, 53
1, 116622, Control_c, 0, 64, 52
1, 116637, Control_c, 0, 64, 51
1, 116656, Note_off_c, 0, 47, 63
1, 116663, Note_on_c, 0, 43, 71
1, 116666, Control_c, 0, 64, 50
1, 116725, Note_off_c, 0, 43, 62
1, 116742, Note_on_c, 0, 48, 81
1, 116782, Note_off_c, 0, 48, 63
1, 116815, Note_on_c, 0, 43, 74
1, 116893, Note_on_c, 0, 45, 73
1, 116902, Note_off_c, 0, 43, 62
1, 116949, Note_on_c, 0, 47, 81
1, 116951, Note_off_c, 0, 45, 65
1, 116985, Control_c, 0, 64, 51
1, 117020, Note_off_c, 0, 47, 63
1, 117035, Note_on_c, 0, 48, 84
1, 117055, Note_on_c, 0, 85, 98
1, 117057, Note_on_c, 0, 73, 94
1, 117085, Note_off_c, 0, 48, 61
1, 117089, Control_c, 0, 64, 51
1, 117104, Control_c, 0, 64, 51
1, 117108, Note_on_c, 0, 43, 74
1, 117119, Control_c, 0, 64, 50
1, 117134, Control_c, 0, 64, 50
1, 117148, Control_c, 0, 64, 49
1, 117182, Note_on_c, 0, 45, 75
1, 117191, Note_off_c, 0, 43, 62
1, 117194, Control_c, 0, 64, 50
1, 117239, Note_on_c, 0, 47, 78
1, 117239, Note_off_c, 0, 45, 66
1, 117267, Control_c, 0, 64, 50
1, 117286, Note_off_c, 0, 85, 62
1, 117296, Note_off_c, 0, 73, 57
1, 117296, Control_c, 0, 64, 51
1, 117306, Note_on_c, 0, 48, 83
1, 117306, Note_off_c, 0, 47, 62
1, 117355, Note_off_c, 0, 48, 64
1, 117381, Note_on_c, 0, 43, 73
1, 117415, Control_c, 0, 64, 50
1, 117444, Note_on_c, 0, 45, 77
1, 117461, Note_off_c, 0, 43, 62
1, 117507, Note_off_c, 0, 45, 65
1, 117507, Note_on_c, 0, 47, 75
1, 117533, Control_c, 0, 64, 51
1, 117563, Control_c, 0, 64, 51
1, 117578, Note_off_c, 0, 47, 64
1, 117579, Note_on_c, 0, 84, 84
1, 117583, Note_on_c, 0, 72, 78
1, 117585, Control_c, 0, 64, 52
1, 117590, Note_on_c, 0, 48, 78
1, 117606, Note_off_c, 0, 72, 70
1, 117622, Note_off_c, 0, 84, 62
1, 117626, Note_off_c, 0, 48, 66
1, 117660, Note_on_c, 0, 43, 67
1, 117719, Note_on_c, 0, 45, 69
1, 117724, Note_off_c, 0, 43, 63
1, 117748, Control_c, 0, 64, 52
1, 117763, Control_c, 0, 64, 53
1, 117775, Note_on_c, 0, 47, 68
1, 117790, Note_off_c, 0, 45, 61
1, 117808, Control_c, 0, 64, 53
1, 117837, Control_c, 0, 64, 54
1, 117841, Note_on_c, 0, 82, 84
1, 117845, Note_on_c, 0, 70, 74
1, 117852, Control_c, 0, 64, 55
1, 117864, Note_on_c, 0, 48, 53
1, 117867, Control_c, 0, 64, 56
1, 117874, Note_off_c, 0, 47, 64
1, 117876, Note_off_c, 0, 70, 63
1, 117882, Control_c, 0, 64, 56
1, 117885, Note_off_c, 0, 82, 65
1, 117891, Note_off_c, 0, 48, 61
1, 117911, Note_on_c, 0, 43, 55
1, 117911, Control_c, 0, 64, 57
1, 117960, Note_off_c, 0, 43, 63
1, 117962, Note_on_c, 0, 45, 69
1, 117970, Control_c, 0, 64, 56
1, 117985, Control_c, 0, 64, 56
1, 118016, Control_c, 0, 64, 55
1, 118029, Note_off_c, 0, 45, 65
1, 118032, Note_on_c, 0, 47, 71
1, 118060, Control_c, 0, 64, 55
1, 118085, Note_off_c, 0, 47, 63
1, 118094, Note_on_c, 0, 72, 75
1, 118094, Note_on_c, 0, 60, 68
1, 118095, Note_on_c, 0, 48, 70
1, 118104, Note_on_c, 0, 67, 60
1, 118122, Note_off_c, 0, 60, 66
1, 118127, Note_off_c, 0, 67, 64
1, 118134, Control_c, 0, 64, 54
1, 118136, Note_off_c, 0, 72, 64
1, 118143, Note_off_c, 0, 48, 64
1, 118182, Note_on_c, 0, 50, 72
1, 118208, Control_c, 0, 64, 54
1, 118244, Note_off_c, 0, 50, 64
1, 118247, Note_on_c, 0, 52, 65
1, 118267, Control_c, 0, 64, 54
1, 118281, Note_off_c, 0, 52, 67
1, 118291, Note_on_c, 0, 48, 73
1, 118297, Control_c, 0, 64, 55
1, 118312, Control_c, 0, 64, 55
1, 118334, Control_c, 0, 64, 56
1, 118357, Note_off_c, 0, 48, 64
1, 118364, Control_c, 0, 64, 56
1, 118368, Note_on_c, 0, 53, 80
1, 118394, Control_c, 0, 64, 56
1, 118408, Control_c, 0, 64, 55
1, 118410, Note_off_c, 0, 53, 64
1, 118423, Control_c, 0, 64, 53
1, 118435, Note_on_c, 0, 48, 72
1, 118438, Control_c, 0, 64, 50
1, 118452, Control_c, 0, 64, 46
1, 118467, Control_c, 0, 64, 42
1, 118482, Control_c, 0, 64, 37
1, 118497, Control_c, 0, 64, 32
1, 118503, Note_on_c, 0, 50, 78
1, 118505, Note_off_c, 0, 48, 66
1, 118512, Control_c, 0, 64, 26
1, 118526, Control_c, 0, 64, 24
1, 118541, Control_c, 0, 64, 21
1, 118565, Note_off_c, 0, 50, 65
1, 118566, Note_on_c, 0, 52, 78
1, 118633, Note_off_c, 0, 52, 64
1, 118642, Note_on_c, 0, 53, 82
1, 118642, Note_on_c, 0, 84, 104
1, 118645, Control_c, 0, 64, 23
1, 118645, Note_on_c, 0, 72, 96
1, 118675, Control_c, 0, 64, 21
1, 118690, Note_off_c, 0, 53, 64
1, 118697, Note_off_c, 0, 72, 0
1, 118705, Control_c, 0, 64, 20
1, 118717, Note_on_c, 0, 48, 72
1, 118735, Poly_aftertouch_c, 0, 72, 127
1, 118764, Control_c, 0, 64, 23
1, 118779, Control_c, 0, 64, 25
1, 118784, Note_on_c, 0, 50, 72
1, 118792, Note_off_c, 0, 48, 65
1, 118795, Control_c, 0, 64, 27
1, 118810, Control_c, 0, 64, 28
1, 118824, Control_c, 0, 64, 30
1, 118836, Poly_aftertouch_c, 0, 72, 0
1, 118839, Control_c, 0, 64, 31
1, 118840, Note_on_c, 0, 52, 71
1, 118846, Note_off_c, 0, 50, 64
1, 118854, Control_c, 0, 64, 32
1, 118884, Control_c, 0, 64, 33
1, 118899, Control_c, 0, 64, 34
1, 118908, Note_off_c, 0, 52, 63
1, 118911, Note_on_c, 0, 53, 81
1, 118914, Control_c, 0, 64, 35
1, 118929, Control_c, 0, 64, 37
1, 118936, Note_off_c, 0, 84, 59
1, 118943, Control_c, 0, 64, 39
1, 118952, Note_off_c, 0, 53, 66
1, 118958, Control_c, 0, 64, 41
1, 118973, Control_c, 0, 64, 42
1, 118979, Note_on_c, 0, 48, 70
1, 118988, Control_c, 0, 64, 42
1, 119003, Control_c, 0, 64, 43
1, 119017, Control_c, 0, 64, 43
1, 119032, Control_c, 0, 64, 44
1, 119047, Control_c, 0, 64, 44
1, 119049, Note_on_c, 0, 50, 68
1, 119051, Note_off_c, 0, 48, 65
1, 119062, Control_c, 0, 64, 45
1, 119084, Control_c, 0, 64, 46
1, 119098, Control_c, 0, 64, 48
1, 119113, Note_on_c, 0, 52, 73
1, 119113, Control_c, 0, 64, 49
1, 119116, Note_off_c, 0, 50, 64
1, 119128, Control_c, 0, 64, 49
1, 119143, Control_c, 0, 64, 50
1, 119158, Control_c, 0, 64, 50
1, 119178, Note_off_c, 0, 52, 66
1, 119179, Note_on_c, 0, 70, 79
1, 119179, Note_on_c, 0, 82, 82
1, 119188, Control_c, 0, 64, 51
1, 119191, Note_on_c, 0, 53, 69
1, 119203, Control_c, 0, 64, 51
1, 119206, Note_off_c, 0, 70, 66
1, 119217, Note_off_c, 0, 82, 63
1, 119218, Control_c, 0, 64, 52
1, 119230, Note_off_c, 0, 53, 64
1, 119264, Note_on_c, 0, 48, 65
1, 119320, Note_off_c, 0, 48, 64
1, 119321, Control_c, 0, 64, 51
1, 119322, Note_on_c, 0, 50, 67
1, 119384, Note_on_c, 0, 52, 65
1, 119388, Note_off_c, 0, 50, 63
1, 119394, Control_c, 0, 64, 52
1, 119435, Note_on_c, 0, 81, 89
1, 119441, Note_on_c, 0, 69, 82
1, 119448, Note_off_c, 0, 52, 62
1, 119463, Note_on_c, 0, 53, 59
1, 119464, Note_off_c, 0, 69, 71
1, 119468, Control_c, 0, 64, 52
1, 119480, Note_off_c, 0, 81, 61
1, 119498, Note_off_c, 0, 53, 64
1, 119525, Note_on_c, 0, 48, 63
1, 119586, Note_on_c, 0, 50, 66
1, 119586, Note_off_c, 0, 48, 65
1, 119587, Control_c, 0, 64, 53
1, 119603, Control_c, 0, 64, 53
1, 119618, Control_c, 0, 64, 54
1, 119648, Note_on_c, 0, 52, 71
1, 119648, Note_off_c, 0, 50, 64
1, 119689, Note_off_c, 0, 52, 68
1, 119699, Note_on_c, 0, 77, 84
1, 119704, Note_on_c, 0, 65, 83
1, 119710, Note_on_c, 0, 53, 73
1, 119755, Note_off_c, 0, 53, 66
1, 119766, Note_off_c, 0, 65, 62
1, 119796, Control_c, 0, 64, 53
1, 119797, Note_on_c, 0, 55, 65
1, 119808, Note_off_c, 0, 77, 62
1, 119832, Control_c, 0, 64, 53
1, 119851, Note_off_c, 0, 55, 67
1, 119855, Note_on_c, 0, 57, 70
1, 119906, Control_c, 0, 64, 53
1, 119907, Note_off_c, 0, 57, 60
1, 119908, Note_on_c, 0, 53, 75
1, 119921, Control_c, 0, 64, 54
1, 119936, Control_c, 0, 64, 54
1, 119951, Control_c, 0, 64, 55
1, 119953, Note_off_c, 0, 53, 66
1, 119966, Control_c, 0, 64, 56
1, 119981, Control_c, 0, 64, 57
1, 119989, Note_on_c, 0, 57, 62
1, 119996, Control_c, 0, 64, 57
1, 120030, Note_off_c, 0, 57, 59
1, 120055, Control_c, 0, 64, 56
1, 120061, Note_on_c, 0, 54, 69
1, 120087, Note_off_c, 0, 54, 63
1, 120099, Control_c, 0, 64, 56
1, 120130, Note_on_c, 0, 57, 67
1, 120159, Control_c, 0, 64, 55
1, 120173, Control_c, 0, 64, 55
1, 120181, Note_on_c, 0, 59, 71
1, 120183, Note_off_c, 0, 57, 63
1, 120188, Control_c, 0, 64, 54
1, 120230, Note_on_c, 0, 87, 104
1, 120230, Note_off_c, 0, 59, 62
1, 120233, Note_on_c, 0, 75, 95
1, 120239, Note_on_c, 0, 60, 77
1, 120278, Note_on_c, 0, 88, 30
1, 120295, Note_off_c, 0, 60, 62
1, 120317, Note_on_c, 0, 54, 69
1, 120319, Note_off_c, 0, 88, 30
1, 120351, Control_c, 0, 64, 55
1, 120372, Note_off_c, 0, 54, 63
1, 120401, Note_on_c, 0, 57, 65
1, 120438, Note_on_c, 0, 59, 71
1, 120444, Note_off_c, 0, 57, 62
1, 120485, Control_c, 0, 64, 55
1, 120491, Note_off_c, 0, 59, 63
1, 120499, Note_on_c, 0, 60, 83
1, 120500, Control_c, 0, 64, 56
1, 120517, Note_off_c, 0, 87, 58
1, 120535, Note_off_c, 0, 75, 62
1, 120569, Note_off_c, 0, 60, 61
1, 120584, Note_on_c, 0, 54, 70
1, 120653, Note_off_c, 0, 54, 63
1, 120672, Note_on_c, 0, 57, 64
1, 120723, Note_off_c, 0, 57, 60
1, 120723, Note_on_c, 0, 59, 68
1, 120757, Note_on_c, 0, 86, 86
1, 120762, Note_on_c, 0, 74, 78
1, 120776, Note_off_c, 0, 59, 62
1, 120782, Note_on_c, 0, 60, 75
1, 120783, Note_off_c, 0, 74, 71
1, 120789, Control_c, 0, 64, 56
1, 120795, Note_off_c, 0, 86, 63
1, 120804, Control_c, 0, 64, 57
1, 120818, Control_c, 0, 64, 57
1, 120840, Note_off_c, 0, 60, 61
1, 120853, Note_on_c, 0, 54, 70
1, 120897, Note_off_c, 0, 54, 57
1, 120938, Note_on_c, 0, 57, 67
1, 120983, Note_off_c, 0, 57, 61
1, 120994, Note_on_c, 0, 59, 60
1, 121015, Note_on_c, 0, 84, 85
1, 121020, Note_on_c, 0, 72, 81
1, 121030, Note_off_c, 0, 59, 64
1, 121046, Note_off_c, 0, 72, 66
1, 121052, Note_on_c, 0, 60, 63
1, 121059, Note_off_c, 0, 84, 67
1, 121070, Control_c, 0, 64, 58
1, 121100, Control_c, 0, 64, 59
1, 121107, Note_off_c, 0, 60, 58
1, 121111, Note_on_c, 0, 54, 67
1, 121159, Control_c, 0, 64, 58
1, 121169, Note_off_c, 0, 54, 62
1, 121181, Note_on_c, 0, 57, 68
1, 121205, Control_c, 0, 64, 59
1, 121219, Control_c, 0, 64, 60
1, 121234, Control_c, 0, 64, 61
1, 121249, Note_off_c, 0, 57, 62
1, 121249, Control_c, 0, 64, 62
1, 121261, Note_on_c, 0, 59, 62
1, 121263, Control_c, 0, 64, 63
1, 121272, Note_on_c, 0, 81, 88
1, 121278, Control_c, 0, 64, 64
1, 121279, Note_on_c, 0, 69, 82
1, 121293, Control_c, 0, 64, 65
1, 121298, Note_off_c, 0, 59, 63
1, 121316, Control_c, 0, 64, 66
1, 121331, Control_c, 0, 64, 67
1, 121345, Control_c, 0, 64, 68
1, 121354, Note_on_c, 0, 54, 77
1, 121360, Control_c, 0, 64, 69
1, 121375, Control_c, 0, 64, 69
1, 121390, Control_c, 0, 64, 70
1, 121395, Note_off_c, 0, 69, 63
1, 121424, Note_off_c, 0, 54, 62
1, 121434, Note_on_c, 0, 57, 58
1, 121438, Note_off_c, 0, 81, 60
1, 121452, Note_on_c, 0, 60, 77
1, 121463, Note_off_c, 0, 57, 64
1, 121463, Control_c, 0, 64, 69
1, 121478, Control_c, 0, 64, 69
1, 121493, Control_c, 0, 64, 68
1, 121508, Note_off_c, 0, 60, 61
1, 121508, Control_c, 0, 64, 68
1, 121523, Control_c, 0, 64, 67
1, 121538, Control_c, 0, 64, 65
1, 121549, Note_on_c, 0, 62, 73
1, 121552, Control_c, 0, 64, 64
1, 121567, Control_c, 0, 64, 63
1, 121611, Control_c, 0, 64, 63
1, 121614, Note_off_c, 0, 62, 62
1, 121620, Note_on_c, 0, 59, 75
1, 121626, Control_c, 0, 64, 62
1, 121641, Control_c, 0, 64, 61
1, 121656, Control_c, 0, 64, 58
1, 121671, Control_c, 0, 64, 54
1, 121676, Note_on_c, 0, 62, 68
1, 121686, Control_c, 0, 64, 50
1, 121699, Note_off_c, 0, 59, 61
1, 121701, Control_c, 0, 64, 44
1, 121716, Control_c, 0, 64, 26
1, 121731, Control_c, 0, 64, 0
1, 121737, Note_on_c, 0, 63, 76
1, 121748, Note_off_c, 0, 62, 62
1, 121793, Note_on_c, 0, 92, 104
1, 121794, Note_on_c, 0, 80, 93
1, 121796, Note_off_c, 0, 63, 65
1, 121811, Note_on_c, 0, 65, 76
1, 121847, Note_off_c, 0, 65, 65
1, 121890, Note_on_c, 0, 62, 75
1, 121956, Note_on_c, 0, 65, 72
1, 121969, Note_off_c, 0, 62, 61
1, 121982, Control_c, 0, 64, 13
1, 121998, Control_c, 0, 64, 31
1, 122011, Note_on_c, 0, 67, 71
1, 122013, Note_off_c, 0, 65, 67
1, 122013, Control_c, 0, 64, 39
1, 122028, Control_c, 0, 64, 43
1, 122042, Control_c, 0, 64, 46
1, 122057, Control_c, 0, 64, 47
1, 122076, Note_off_c, 0, 67, 62
1, 122079, Control_c, 0, 64, 48
1, 122081, Note_off_c, 0, 92, 60
1, 122085, Note_on_c, 0, 68, 72
1, 122086, Note_off_c, 0, 80, 62
1, 122102, Note_off_c, 0, 68, 67
1, 122139, Control_c, 0, 64, 48
1, 122150, Note_on_c, 0, 62, 73
1, 122154, Control_c, 0, 64, 47
1, 122168, Control_c, 0, 64, 46
1, 122183, Control_c, 0, 64, 45
1, 122198, Control_c, 0, 64, 44
1, 122221, Note_on_c, 0, 65, 70
1, 122226, Note_off_c, 0, 62, 63
1, 122242, Control_c, 0, 64, 45
1, 122257, Control_c, 0, 64, 45
1, 122272, Control_c, 0, 64, 46
1, 122276, Note_on_c, 0, 67, 68
1, 122281, Note_off_c, 0, 65, 66
1, 122286, Control_c, 0, 64, 47
1, 122301, Control_c, 0, 64, 48
1, 122316, Control_c, 0, 64, 50
1, 122331, Control_c, 0, 64, 51
1, 122339, Note_off_c, 0, 67, 61
1, 122340, Note_on_c, 0, 91, 85
1, 122344, Note_on_c, 0, 79, 78
1, 122348, Note_on_c, 0, 68, 68
1, 122366, Note_off_c, 0, 79, 67
1, 122373, Note_off_c, 0, 68, 65
1, 122379, Note_off_c, 0, 91, 59
1, 122405, Control_c, 0, 64, 50
1, 122411, Note_on_c, 0, 62, 68
1, 122419, Control_c, 0, 64, 49
1, 122434, Control_c, 0, 64, 49
1, 122449, Control_c, 0, 64, 48
1, 122480, Note_on_c, 0, 65, 69
1, 122483, Note_off_c, 0, 62, 62
1, 122521, Note_on_c, 0, 67, 66
1, 122537, Note_off_c, 0, 65, 66
1, 122553, Control_c, 0, 64, 49
1, 122567, Control_c, 0, 64, 50
1, 122582, Control_c, 0, 64, 51
1, 122594, Note_off_c, 0, 67, 60
1, 122595, Note_on_c, 0, 89, 87
1, 122597, Control_c, 0, 64, 52
1, 122598, Note_on_c, 0, 77, 86
1, 122611, Control_c, 0, 64, 52
1, 122612, Note_on_c, 0, 68, 54
1, 122626, Control_c, 0, 64, 53
1, 122634, Note_off_c, 0, 68, 59
1, 122634, Note_off_c, 0, 77, 63
1, 122641, Control_c, 0, 64, 53
1, 122644, Note_off_c, 0, 89, 66
1, 122665, Note_on_c, 0, 62, 68
1, 122715, Control_c, 0, 64, 53
1, 122730, Control_c, 0, 64, 52
1, 122731, Note_on_c, 0, 65, 72
1, 122737, Note_off_c, 0, 62, 63
1, 122774, Control_c, 0, 64, 53
1, 122790, Control_c, 0, 64, 54
1, 122792, Note_off_c, 0, 65, 66
1, 122795, Note_on_c, 0, 67, 66
1, 122805, Control_c, 0, 64, 55
1, 122828, Control_c, 0, 64, 57
1, 122842, Control_c, 0, 64, 58
1, 122857, Control_c, 0, 64, 61
1, 122857, Note_on_c, 0, 86, 81
1, 122860, Note_on_c, 0, 74, 73
1, 122866, Note_off_c, 0, 67, 61
1, 122872, Control_c, 0, 64, 63
1, 122876, Note_on_c, 0, 68, 64
1, 122887, Control_c, 0, 64, 64
1, 122899, Note_off_c, 0, 68, 66
1, 122902, Control_c, 0, 64, 65
1, 122916, Control_c, 0, 64, 66
1, 122923, Note_on_c, 0, 62, 55
1, 122931, Control_c, 0, 64, 67
1, 122946, Control_c, 0, 64, 68
1, 122983, Note_on_c, 0, 65, 68
1, 122987, Note_off_c, 0, 62, 62
1, 123030, Note_off_c, 0, 65, 64
1, 123047, Note_on_c, 0, 67, 77
1, 123049, Note_off_c, 0, 86, 59
1, 123079, Note_off_c, 0, 74, 61
1, 123079, Control_c, 0, 64, 68
1, 123094, Control_c, 0, 64, 67
1, 123095, Note_off_c, 0, 67, 55
1, 123109, Control_c, 0, 64, 67
1, 123123, Note_on_c, 0, 68, 71
1, 123123, Control_c, 0, 64, 66
1, 123138, Control_c, 0, 64, 66
1, 123153, Control_c, 0, 64, 65
1, 123163, Note_off_c, 0, 68, 63
1, 123168, Control_c, 0, 64, 64
1, 123183, Control_c, 0, 64, 61
1, 123185, Note_on_c, 0, 67, 75
1, 123197, Control_c, 0, 64, 57
1, 123212, Control_c, 0, 64, 54
1, 123221, Note_off_c, 0, 67, 60
1, 123227, Control_c, 0, 64, 52
1, 123242, Control_c, 0, 64, 48
1, 123257, Control_c, 0, 64, 41
1, 123263, Note_on_c, 0, 65, 63
1, 123272, Control_c, 0, 64, 0
1, 123311, Note_off_c, 0, 65, 65
1, 123319, Note_on_c, 0, 63, 65
1, 123394, Note_on_c, 0, 83, 82
1, 123397, Note_off_c, 0, 63, 63
1, 123398, Note_on_c, 0, 71, 76
1, 123400, Note_on_c, 0, 62, 69
1, 123434, Control_c, 0, 64, 39
1, 123449, Control_c, 0, 64, 51
1, 123464, Note_off_c, 0, 62, 61
1, 123464, Control_c, 0, 64, 56
1, 123465, Note_on_c, 0, 63, 62
1, 123479, Control_c, 0, 64, 61
1, 123494, Control_c, 0, 64, 63
1, 123508, Control_c, 0, 64, 65
1, 123517, Note_off_c, 0, 71, 58
1, 123523, Control_c, 0, 64, 66
1, 123530, Note_on_c, 0, 65, 64
1, 123531, Note_off_c, 0, 63, 64
1, 123538, Control_c, 0, 64, 67
1, 123547, Note_off_c, 0, 83, 60
1, 123553, Control_c, 0, 64, 68
1, 123575, Note_off_c, 0, 65, 67
1, 123575, Control_c, 0, 64, 69
1, 123591, Control_c, 0, 64, 70
1, 123603, Note_on_c, 0, 67, 69
1, 123606, Control_c, 0, 64, 71
1, 123620, Control_c, 0, 64, 72
1, 123633, Note_off_c, 0, 67, 61
1, 123635, Control_c, 0, 64, 72
1, 123656, Note_on_c, 0, 65, 59
1, 123707, Note_off_c, 0, 65, 63
1, 123720, Note_on_c, 0, 63, 77
1, 123739, Control_c, 0, 64, 72
1, 123754, Control_c, 0, 64, 71
1, 123769, Control_c, 0, 64, 70
1, 123772, Note_off_c, 0, 63, 63
1, 123784, Control_c, 0, 64, 68
1, 123799, Control_c, 0, 64, 65
1, 123807, Note_on_c, 0, 62, 74
1, 123813, Control_c, 0, 64, 62
1, 123828, Control_c, 0, 64, 53
1, 123843, Control_c, 0, 64, 0
1, 123844, Note_off_c, 0, 62, 59
1, 123875, Note_on_c, 0, 60, 64
1, 123918, Note_off_c, 0, 60, 63
1, 123925, Note_on_c, 0, 59, 68
1, 123939, Note_on_c, 0, 86, 86
1, 123942, Note_on_c, 0, 74, 82
1, 123980, Note_off_c, 0, 59, 63
1, 123990, Control_c, 0, 64, 59
1, 123997, Note_on_c, 0, 60, 67
1, 123998, Note_off_c, 0, 74, 64
1, 124005, Control_c, 0, 64, 64
1, 124007, Note_off_c, 0, 86, 63
1, 124020, Control_c, 0, 64, 66
1, 124033, Note_off_c, 0, 60, 65
1, 124035, Control_c, 0, 64, 68
1, 124050, Control_c, 0, 64, 71
1, 124064, Control_c, 0, 64, 75
1, 124070, Note_on_c, 0, 62, 72
1, 124079, Control_c, 0, 64, 78
1, 124094, Control_c, 0, 64, 80
1, 124109, Control_c, 0, 64, 81
1, 124120, Note_off_c, 0, 62, 54
1, 124124, Control_c, 0, 64, 82
1, 124131, Note_on_c, 0, 63, 74
1, 124181, Note_off_c, 0, 63, 59
1, 124208, Note_on_c, 0, 62, 81
1, 124227, Control_c, 0, 64, 81
1, 124242, Control_c, 0, 64, 80
1, 124254, Note_off_c, 0, 62, 52
1, 124256, Control_c, 0, 64, 79
1, 124264, Note_on_c, 0, 60, 71
1, 124271, Control_c, 0, 64, 77
1, 124286, Control_c, 0, 64, 75
1, 124309, Control_c, 0, 64, 72
1, 124324, Control_c, 0, 64, 69
1, 124332, Note_off_c, 0, 60, 63
1, 124338, Control_c, 0, 64, 67
1, 124353, Control_c, 0, 64, 64
1, 124355, Note_on_c, 0, 59, 56
1, 124368, Control_c, 0, 64, 63
1, 124383, Control_c, 0, 64, 62
1, 124398, Control_c, 0, 64, 60
1, 124401, Note_off_c, 0, 59, 60
1, 124413, Control_c, 0, 64, 60
1, 124428, Control_c, 0, 64, 59
1, 124431, Note_on_c, 0, 57, 33
1, 124443, Control_c, 0, 64, 58
1, 124459, Note_off_c, 0, 57, 50
1, 124484, Note_on_c, 0, 55, 75
1, 124486, Note_on_c, 0, 71, 83
1, 124487, Control_c, 0, 64, 57
1, 124491, Note_on_c, 0, 59, 91
1, 124495, Note_on_c, 0, 62, 69
1, 124517, Control_c, 0, 64, 57
1, 124521, Note_off_c, 0, 62, 65
1, 124526, Note_off_c, 0, 59, 59
1, 124541, Note_off_c, 0, 55, 63
1, 124547, Control_c, 0, 64, 56
1, 124556, Note_on_c, 0, 53, 67
1, 124556, Note_off_c, 0, 71, 61
1, 124591, Control_c, 0, 64, 56
1, 124604, Note_on_c, 0, 51, 66
1, 124607, Note_off_c, 0, 53, 65
1, 124674, Note_off_c, 0, 51, 62
1, 124680, Control_c, 0, 64, 55
1, 124681, Note_on_c, 0, 50, 57
1, 124694, Control_c, 0, 64, 55
1, 124725, Control_c, 0, 64, 54
1, 124739, Note_on_c, 0, 48, 71
1, 124739, Note_off_c, 0, 50, 63
1, 124742, Note_on_c, 0, 72, 81
1, 124745, Note_on_c, 0, 60, 80
1, 124745, Note_on_c, 0, 63, 74
1, 124752, Note_on_c, 0, 67, 70
1, 124825, Note_on_c, 0, 51, 59
1, 124834, Note_off_c, 0, 48, 62
1, 124858, Control_c, 0, 64, 55
1, 124887, Note_on_c, 0, 55, 73
1, 124887, Control_c, 0, 64, 55
1, 124893, Note_off_c, 0, 51, 62
1, 124917, Control_c, 0, 64, 56
1, 124939, Note_off_c, 0, 55, 60
1, 124953, Note_on_c, 0, 53, 68
1, 125023, Note_off_c, 0, 53, 65
1, 125026, Note_on_c, 0, 51, 74
1, 125039, Note_off_c, 0, 63, 63
1, 125039, Note_off_c, 0, 72, 54
1, 125039, Note_off_c, 0, 67, 60
1, 125045, Note_off_c, 0, 60, 54
1, 125086, Note_off_c, 0, 51, 62
1, 125102, Note_on_c, 0, 50, 66
1, 125145, Note_off_c, 0, 50, 62
1, 125147, Control_c, 0, 64, 55
1, 125165, Note_on_c, 0, 48, 74
1, 125223, Note_on_c, 0, 47, 77
1, 125226, Note_off_c, 0, 48, 65
1, 125266, Control_c, 0, 64, 56
1, 125281, Control_c, 0, 64, 56
1, 125284, Note_off_c, 0, 47, 64
1, 125293, Note_on_c, 0, 48, 75
1, 125296, Control_c, 0, 64, 57
1, 125311, Control_c, 0, 64, 57
1, 125332, Note_off_c, 0, 48, 67
1, 125340, Control_c, 0, 64, 58
1, 125361, Note_on_c, 0, 50, 72
1, 125421, Note_off_c, 0, 50, 59
1, 125424, Note_on_c, 0, 51, 73
1, 125497, Note_on_c, 0, 50, 61
1, 125500, Note_off_c, 0, 51, 62
1, 125540, Note_off_c, 0, 50, 66
1, 125558, Note_on_c, 0, 48, 75
1, 125618, Note_off_c, 0, 48, 61
1, 125628, Note_on_c, 0, 46, 73
1, 125689, Note_off_c, 0, 46, 63
1, 125694, Note_on_c, 0, 44, 66
1, 125725, Control_c, 0, 64, 58
1, 125765, Note_on_c, 0, 43, 73
1, 125767, Note_off_c, 0, 44, 64
1, 125785, Control_c, 0, 64, 59
1, 125822, Control_c, 0, 64, 59
1, 125833, Note_on_c, 0, 44, 71
1, 125839, Note_off_c, 0, 43, 63
1, 125889, Note_off_c, 0, 44, 64
1, 125914, Note_on_c, 0, 43, 58
1, 125955, Note_off_c, 0, 43, 60
1, 125968, Note_on_c, 0, 41, 71
1, 126015, Control_c, 0, 64, 59
1, 126032, Note_on_c, 0, 39, 71
1, 126033, Note_off_c, 0, 41, 65
1, 126089, Control_c, 0, 64, 58
1, 126095, Note_on_c, 0, 38, 64
1, 126104, Note_off_c, 0, 39, 62
1, 126119, Control_c, 0, 64, 58
1, 126133, Control_c, 0, 64, 57
1, 126143, Note_on_c, 0, 39, 52
1, 126148, Control_c, 0, 64, 57
1, 126161, Note_off_c, 0, 38, 63
1, 126163, Control_c, 0, 64, 56
1, 126178, Control_c, 0, 64, 56
1, 126191, Note_on_c, 0, 41, 64
1, 126193, Control_c, 0, 64, 55
1, 126202, Note_off_c, 0, 39, 63
1, 126208, Control_c, 0, 64, 54
1, 126223, Control_c, 0, 64, 53
1, 126238, Control_c, 0, 64, 52
1, 126252, Note_on_c, 0, 43, 77
1, 126253, Control_c, 0, 64, 51
1, 126257, Note_off_c, 0, 41, 65
1, 126267, Control_c, 0, 64, 51
1, 126282, Control_c, 0, 64, 50
1, 126297, Control_c, 0, 64, 50
1, 126312, Control_c, 0, 64, 49
1, 126318, Note_off_c, 0, 43, 58
1, 126343, Note_on_c, 0, 36, 88
1, 126348, Note_on_c, 0, 60, 74
1, 126356, Control_c, 0, 64, 50
1, 126371, Control_c, 0, 64, 51
1, 126390, Note_off_c, 0, 36, 64
1, 126416, Note_off_c, 0, 60, 62
1, 126423, Note_on_c, 0, 55, 71
1, 126470, Note_off_c, 0, 55, 59
1, 126501, Note_on_c, 0, 57, 67
1, 126548, Control_c, 0, 64, 52
1, 126571, Control_c, 0, 64, 53
1, 126582, Note_off_c, 0, 57, 61
1, 126585, Control_c, 0, 64, 53
1, 126586, Note_on_c, 0, 59, 68
1, 126600, Control_c, 0, 64, 54
1, 126645, Note_on_c, 0, 43, 102
1, 126645, Note_off_c, 0, 59, 63
1, 126648, Note_on_c, 0, 60, 82
1, 126708, Note_off_c, 0, 60, 63
1, 126718, Note_on_c, 0, 55, 75
1, 126719, Control_c, 0, 64, 53
1, 126733, Control_c, 0, 64, 53
1, 126748, Control_c, 0, 64, 52
1, 126774, Note_off_c, 0, 55, 51
1, 126778, Control_c, 0, 64, 53
1, 126794, Note_on_c, 0, 57, 65
1, 126794, Control_c, 0, 64, 53
1, 126808, Control_c, 0, 64, 54
1, 126823, Control_c, 0, 64, 54
1, 126838, Control_c, 0, 64, 55
1, 126860, Note_on_c, 0, 59, 74
1, 126868, Control_c, 0, 64, 56
1, 126869, Note_off_c, 0, 57, 56
1, 126882, Control_c, 0, 64, 56
1, 126892, Note_off_c, 0, 43, 60
1, 126920, Note_on_c, 0, 60, 81
1, 126921, Note_off_c, 0, 59, 63
1, 126927, Control_c, 0, 64, 57
1, 126942, Control_c, 0, 64, 57
1, 126971, Control_c, 0, 64, 58
1, 126981, Note_off_c, 0, 60, 63
1, 126991, Note_on_c, 0, 55, 77
1, 127001, Control_c, 0, 64, 58
1, 127057, Note_on_c, 0, 57, 71
1, 127057, Note_off_c, 0, 55, 63
1, 127133, Note_on_c, 0, 59, 73
1, 127141, Note_off_c, 0, 57, 58
1, 127198, Note_on_c, 0, 60, 75
1, 127198, Note_off_c, 0, 59, 63
1, 127207, Note_on_c, 0, 41, 83
1, 127241, Note_off_c, 0, 41, 69
1, 127255, Note_off_c, 0, 60, 63
1, 127270, Note_on_c, 0, 55, 73
1, 127335, Note_off_c, 0, 55, 57
1, 127344, Note_on_c, 0, 57, 64
1, 127415, Note_on_c, 0, 59, 70
1, 127427, Note_off_c, 0, 57, 60
1, 127480, Note_on_c, 0, 60, 71
1, 127481, Note_off_c, 0, 59, 62
1, 127493, Note_on_c, 0, 39, 78
1, 127540, Note_off_c, 0, 60, 62
1, 127545, Note_on_c, 0, 55, 66
1, 127546, Note_off_c, 0, 39, 64
1, 127603, Note_off_c, 0, 55, 63
1, 127606, Note_on_c, 0, 57, 65
1, 127680, Note_off_c, 0, 57, 62
1, 127683, Note_on_c, 0, 59, 70
1, 127691, Control_c, 0, 64, 59
1, 127733, Note_off_c, 0, 59, 61
1, 127734, Control_c, 0, 64, 59
1, 127758, Note_on_c, 0, 36, 82
1, 127759, Note_on_c, 0, 60, 68
1, 127813, Note_off_c, 0, 36, 65
1, 127818, Note_off_c, 0, 60, 58
1, 127836, Note_on_c, 0, 62, 56
1, 127911, Note_on_c, 0, 63, 66
1, 127914, Note_off_c, 0, 62, 62
1, 127960, Note_on_c, 0, 66, 64
1, 127966, Note_off_c, 0, 63, 62
1, 128016, Note_on_c, 0, 35, 80
1, 128016, Control_c, 0, 64, 59
1, 128034, Note_on_c, 0, 67, 72
1, 128059, Note_off_c, 0, 66, 66
1, 128065, Note_off_c, 0, 35, 63
1, 128108, Note_off_c, 0, 67, 59
1, 128112, Control_c, 0, 64, 58
1, 128116, Note_on_c, 0, 62, 70
1, 128142, Control_c, 0, 64, 57
1, 128156, Control_c, 0, 64, 52
1, 128171, Note_off_c, 0, 62, 61
1, 128171, Control_c, 0, 64, 34
1, 128175, Note_on_c, 0, 64, 62
1, 128186, Control_c, 0, 64, 0
1, 128259, Note_on_c, 0, 66, 68
1, 128271, Note_off_c, 0, 64, 61
1, 128315, Note_on_c, 0, 67, 77
1, 128320, Note_on_c, 0, 50, 101
1, 128320, Note_off_c, 0, 66, 65
1, 128325, Note_on_c, 0, 38, 88
1, 128349, Control_c, 0, 64, 84
1, 128363, Control_c, 0, 64, 117
1, 128380, Control_c, 0, 64, 127
1, 128388, Note_off_c, 0, 67, 62
1, 128389, Note_on_c, 0, 62, 72
1, 128440, Note_off_c, 0, 62, 62
1, 128442, Note_on_c, 0, 64, 69
1, 128512, Note_off_c, 0, 50, 59
1, 128515, Note_on_c, 0, 66, 82
1, 128524, Note_off_c, 0, 64, 63
1, 128542, Note_off_c, 0, 38, 59
1, 128543, Control_c, 0, 64, 121
1, 128558, Control_c, 0, 64, 114
1, 128573, Control_c, 0, 64, 108
1, 128578, Note_on_c, 0, 67, 81
1, 128583, Note_off_c, 0, 66, 64
1, 128588, Control_c, 0, 64, 103
1, 128602, Control_c, 0, 64, 97
1, 128617, Control_c, 0, 64, 92
1, 128632, Control_c, 0, 64, 86
1, 128644, Note_off_c, 0, 67, 61
1, 128646, Note_on_c, 0, 62, 80
1, 128647, Control_c, 0, 64, 81
1, 128661, Control_c, 0, 64, 75
1, 128676, Control_c, 0, 64, 70
1, 128691, Control_c, 0, 64, 65
1, 128700, Note_off_c, 0, 62, 61
1, 128702, Note_on_c, 0, 64, 69
1, 128706, Control_c, 0, 64, 58
1, 128721, Control_c, 0, 64, 35
1, 128736, Control_c, 0, 64, 0
1, 128773, Note_on_c, 0, 66, 81
1, 128784, Note_off_c, 0, 64, 62
1, 128845, Note_on_c, 0, 67, 75
1, 128847, Control_c, 0, 64, 10
1, 128853, Note_on_c, 0, 48, 79
1, 128853, Note_off_c, 0, 66, 64
1, 128855, Note_on_c, 0, 36, 68
1, 128879, Note_off_c, 0, 48, 67
1, 128897, Note_off_c, 0, 36, 67
1, 128906, Control_c, 0, 64, 13
1, 128909, Note_off_c, 0, 67, 61
1, 128916, Note_on_c, 0, 62, 76
1, 128935, Control_c, 0, 64, 16
1, 128950, Control_c, 0, 64, 20
1, 128965, Control_c, 0, 64, 21
1, 128973, Note_off_c, 0, 62, 61
1, 128976, Note_on_c, 0, 64, 67
1, 129010, Control_c, 0, 64, 20
1, 129046, Note_on_c, 0, 66, 78
1, 129062, Note_off_c, 0, 64, 60
1, 129069, Control_c, 0, 64, 21
1, 129084, Control_c, 0, 64, 23
1, 129104, Note_on_c, 0, 67, 77
1, 129108, Note_on_c, 0, 47, 81
1, 129113, Note_on_c, 0, 35, 76
1, 129118, Note_off_c, 0, 66, 63
1, 129136, Note_off_c, 0, 47, 69
1, 129160, Note_off_c, 0, 35, 63
1, 129177, Note_off_c, 0, 67, 62
1, 129186, Note_on_c, 0, 62, 67
1, 129218, Control_c, 0, 64, 24
1, 129230, Note_on_c, 0, 64, 67
1, 129235, Note_off_c, 0, 62, 60
1, 129248, Control_c, 0, 64, 25
1, 129302, Note_on_c, 0, 66, 79
1, 129304, Note_off_c, 0, 64, 64
1, 129322, Control_c, 0, 64, 26
1, 129351, Note_on_c, 0, 31, 76
1, 129351, Control_c, 0, 64, 27
1, 129354, Note_on_c, 0, 43, 75
1, 129359, Note_off_c, 0, 66, 65
1, 129374, Note_on_c, 0, 67, 78
1, 129390, Note_off_c, 0, 31, 66
1, 129396, Note_off_c, 0, 43, 63
1, 129431, Note_off_c, 0, 67, 55
1, 129447, Note_on_c, 0, 69, 72
1, 129499, Control_c, 0, 64, 28
1, 129503, Note_on_c, 0, 71, 76
1, 129507, Note_off_c, 0, 69, 66
1, 129514, Control_c, 0, 64, 29
1, 129529, Control_c, 0, 64, 30
1, 129544, Control_c, 0, 64, 33
1, 129566, Control_c, 0, 64, 35
1, 129567, Note_on_c, 0, 67, 81
1, 129567, Note_off_c, 0, 71, 60
1, 129581, Control_c, 0, 64, 38
1, 129596, Control_c, 0, 64, 39
1, 129610, Control_c, 0, 64, 41
1, 129611, Note_off_c, 0, 67, 62
1, 129625, Control_c, 0, 64, 42
1, 129636, Note_on_c, 0, 72, 82
1, 129640, Control_c, 0, 64, 42
1, 129655, Control_c, 0, 64, 35
1, 129670, Control_c, 0, 64, 10
1, 129684, Control_c, 0, 64, 0
1, 129700, Note_off_c, 0, 72, 65
1, 129706, Note_on_c, 0, 67, 81
1, 129760, Note_on_c, 0, 69, 77
1, 129760, Note_off_c, 0, 67, 61
1, 129833, Note_on_c, 0, 71, 71
1, 129853, Note_off_c, 0, 69, 61
1, 129886, Note_on_c, 0, 55, 104
1, 129891, Note_on_c, 0, 43, 90
1, 129891, Note_on_c, 0, 72, 87
1, 129898, Note_off_c, 0, 71, 63
1, 129907, Control_c, 0, 64, 80
1, 129922, Control_c, 0, 64, 127
1, 129954, Note_on_c, 0, 67, 81
1, 129954, Note_off_c, 0, 72, 66
1, 130017, Note_off_c, 0, 67, 58
1, 130031, Note_on_c, 0, 69, 75
1, 130089, Note_off_c, 0, 55, 58
1, 130094, Note_on_c, 0, 71, 79
1, 130108, Note_off_c, 0, 69, 61
1, 130118, Note_off_c, 0, 43, 57
1, 130161, Note_on_c, 0, 72, 84
1, 130170, Note_off_c, 0, 71, 59
1, 130174, Control_c, 0, 64, 120
1, 130189, Control_c, 0, 64, 111
1, 130204, Control_c, 0, 64, 106
1, 130219, Note_off_c, 0, 72, 64
1, 130219, Control_c, 0, 64, 102
1, 130220, Note_on_c, 0, 67, 80
1, 130233, Control_c, 0, 64, 98
1, 130248, Control_c, 0, 64, 94
1, 130263, Control_c, 0, 64, 89
1, 130278, Control_c, 0, 64, 84
1, 130286, Note_off_c, 0, 67, 61
1, 130287, Note_on_c, 0, 69, 75
1, 130293, Control_c, 0, 64, 79
1, 130315, Control_c, 0, 64, 74
1, 130330, Control_c, 0, 64, 69
1, 130345, Control_c, 0, 64, 64
1, 130359, Control_c, 0, 64, 55
1, 130367, Note_on_c, 0, 71, 75
1, 130374, Control_c, 0, 64, 27
1, 130383, Note_off_c, 0, 69, 61
1, 130389, Control_c, 0, 64, 0
1, 130416, Note_on_c, 0, 53, 83
1, 130420, Note_on_c, 0, 41, 75
1, 130431, Note_on_c, 0, 72, 80
1, 130435, Note_off_c, 0, 71, 62
1, 130444, Note_off_c, 0, 53, 68
1, 130460, Note_off_c, 0, 41, 67
1, 130492, Note_off_c, 0, 72, 65
1, 130501, Note_on_c, 0, 67, 74
1, 130563, Note_on_c, 0, 69, 75
1, 130569, Note_off_c, 0, 67, 60
1, 130638, Note_on_c, 0, 71, 71
1, 130653, Note_off_c, 0, 69, 57
1, 130677, Note_on_c, 0, 52, 84
1, 130683, Note_on_c, 0, 40, 77
1, 130690, Note_on_c, 0, 72, 79
1, 130697, Note_off_c, 0, 71, 61
1, 130707, Note_off_c, 0, 52, 67
1, 130735, Note_off_c, 0, 40, 62
1, 130750, Note_on_c, 0, 67, 70
1, 130750, Note_off_c, 0, 72, 64
1, 130807, Note_on_c, 0, 69, 74
1, 130814, Note_off_c, 0, 67, 63
1, 130877, Note_off_c, 0, 69, 66
1, 130881, Note_on_c, 0, 71, 77
1, 130894, Control_c, 0, 64, 10
1, 130909, Control_c, 0, 64, 16
1, 130919, Note_on_c, 0, 48, 80
1, 130923, Note_on_c, 0, 36, 76
1, 130923, Control_c, 0, 64, 20
1, 130930, Note_off_c, 0, 71, 61
1, 130938, Control_c, 0, 64, 21
1, 130958, Note_on_c, 0, 72, 72
1, 130962, Note_off_c, 0, 36, 67
1, 130968, Note_off_c, 0, 48, 64
1, 130982, Control_c, 0, 64, 20
1, 130997, Control_c, 0, 64, 18
1, 131016, Note_off_c, 0, 72, 61
1, 131024, Note_on_c, 0, 74, 71
1, 131079, Control_c, 0, 64, 20
1, 131087, Note_on_c, 0, 76, 81
1, 131094, Note_off_c, 0, 74, 66
1, 131138, Control_c, 0, 64, 21
1, 131141, Note_off_c, 0, 76, 68
1, 131147, Note_on_c, 0, 72, 75
1, 131153, Control_c, 0, 64, 24
1, 131168, Control_c, 0, 64, 27
1, 131182, Control_c, 0, 64, 29
1, 131186, Note_off_c, 0, 72, 61
1, 131211, Note_on_c, 0, 77, 89
1, 131212, Control_c, 0, 64, 27
1, 131227, Control_c, 0, 64, 0
1, 131279, Note_off_c, 0, 77, 62
1, 131281, Note_on_c, 0, 72, 79
1, 131328, Note_off_c, 0, 72, 63
1, 131331, Note_on_c, 0, 74, 72
1, 131396, Note_on_c, 0, 76, 76
1, 131424, Note_off_c, 0, 74, 62
1, 131457, Note_on_c, 0, 60, 106
1, 131461, Note_on_c, 0, 77, 89
1, 131463, Note_on_c, 0, 48, 91
1, 131471, Note_off_c, 0, 76, 66
1, 131479, Control_c, 0, 64, 73
1, 131494, Control_c, 0, 64, 122
1, 131509, Control_c, 0, 64, 127
1, 131529, Note_on_c, 0, 72, 77
1, 131531, Note_off_c, 0, 77, 62
1, 131597, Note_off_c, 0, 72, 61
1, 131599, Note_on_c, 0, 74, 73
1, 131633, Note_off_c, 0, 60, 58
1, 131651, Note_off_c, 0, 48, 62
1, 131667, Note_on_c, 0, 76, 77
1, 131682, Note_off_c, 0, 74, 61
1, 131729, Note_on_c, 0, 77, 88
1, 131734, Note_off_c, 0, 76, 67
1, 131776, Control_c, 0, 64, 122
1, 131791, Control_c, 0, 64, 115
1, 131801, Note_off_c, 0, 77, 61
1, 131803, Note_on_c, 0, 72, 76
1, 131813, Control_c, 0, 64, 110
1, 131828, Control_c, 0, 64, 103
1, 131843, Control_c, 0, 64, 97
1, 131858, Control_c, 0, 64, 91
1, 131866, Note_on_c, 0, 74, 72
1, 131867, Note_off_c, 0, 72, 62
1, 131873, Control_c, 0, 64, 86
1, 131887, Control_c, 0, 64, 81
1, 131902, Control_c, 0, 64, 76
1, 131917, Control_c, 0, 64, 72
1, 131932, Control_c, 0, 64, 68
1, 131939, Note_on_c, 0, 76, 77
1, 131947, Control_c, 0, 64, 64
1, 131961, Control_c, 0, 64, 59
1, 131967, Note_off_c, 0, 74, 61
1, 131976, Control_c, 0, 64, 46
1, 131984, Note_on_c, 0, 58, 82
1, 131988, Note_on_c, 0, 46, 75
1, 131991, Control_c, 0, 64, 34
1, 132005, Note_on_c, 0, 77, 82
1, 132006, Control_c, 0, 64, 31
1, 132010, Note_off_c, 0, 76, 67
1, 132026, Note_off_c, 0, 58, 61
1, 132041, Note_off_c, 0, 46, 61
1, 132071, Note_on_c, 0, 72, 67
1, 132071, Note_off_c, 0, 77, 62
1, 132095, Control_c, 0, 64, 32
1, 132110, Control_c, 0, 64, 31
1, 132125, Control_c, 0, 64, 30
1, 132130, Note_on_c, 0, 74, 67
1, 132135, Note_off_c, 0, 72, 61
1, 132140, Control_c, 0, 64, 26
1, 132154, Control_c, 0, 64, 18
1, 132169, Control_c, 0, 64, 13
1, 132194, Note_on_c, 0, 76, 74
1, 132198, Control_c, 0, 64, 16
1, 132213, Note_off_c, 0, 74, 60
1, 132220, Note_on_c, 0, 57, 77
1, 132226, Note_on_c, 0, 45, 72
1, 132227, Control_c, 0, 64, 18
1, 132247, Note_on_c, 0, 77, 79
1, 132251, Note_off_c, 0, 57, 64
1, 132255, Note_off_c, 0, 76, 67
1, 132271, Control_c, 0, 64, 20
1, 132280, Note_off_c, 0, 45, 63
1, 132301, Control_c, 0, 64, 24
1, 132314, Note_off_c, 0, 77, 62
1, 132316, Note_on_c, 0, 72, 68
1, 132316, Control_c, 0, 64, 27
1, 132331, Control_c, 0, 64, 30
1, 132346, Control_c, 0, 64, 33
1, 132358, Note_on_c, 0, 74, 67
1, 132360, Control_c, 0, 64, 34
1, 132367, Note_off_c, 0, 72, 63
1, 132376, Control_c, 0, 64, 35
1, 132391, Control_c, 0, 64, 36
1, 132406, Control_c, 0, 64, 37
1, 132428, Note_on_c, 0, 76, 75
1, 132432, Note_off_c, 0, 74, 64
1, 132472, Note_off_c, 0, 76, 68
1, 132477, Note_on_c, 0, 53, 78
1, 132480, Control_c, 0, 64, 38
1, 132481, Note_on_c, 0, 41, 76
1, 132500, Note_on_c, 0, 77, 72
1, 132524, Note_off_c, 0, 53, 64
1, 132531, Note_off_c, 0, 41, 66
1, 132571, Note_on_c, 0, 79, 76
1, 132571, Note_off_c, 0, 77, 58
1, 132576, Control_c, 0, 64, 37
1, 132606, Control_c, 0, 64, 38
1, 132620, Control_c, 0, 64, 39
1, 132631, Note_on_c, 0, 81, 79
1, 132631, Note_off_c, 0, 79, 60
1, 132635, Control_c, 0, 64, 41
1, 132650, Control_c, 0, 64, 44
1, 132665, Control_c, 0, 64, 46
1, 132680, Control_c, 0, 64, 48
1, 132683, Note_off_c, 0, 81, 64
1, 132693, Note_on_c, 0, 77, 73
1, 132695, Control_c, 0, 64, 49
1, 132709, Control_c, 0, 64, 51
1, 132724, Control_c, 0, 64, 52
1, 132739, Control_c, 0, 64, 53
1, 132750, Note_off_c, 0, 77, 59
1, 132754, Control_c, 0, 64, 54
1, 132763, Note_on_c, 0, 78, 77
1, 132769, Control_c, 0, 64, 55
1, 132784, Control_c, 0, 64, 55
1, 132799, Control_c, 0, 64, 52
1, 132814, Control_c, 0, 64, 34
1, 132817, Note_off_c, 0, 78, 62
1, 132828, Control_c, 0, 64, 0
1, 132843, Note_on_c, 0, 79, 68
1, 132879, Note_on_c, 0, 81, 78
1, 132882, Note_off_c, 0, 79, 55
1, 132944, Note_off_c, 0, 81, 60
1, 132945, Note_on_c, 0, 83, 74
1, 133002, Note_off_c, 0, 83, 61
1, 133004, Note_on_c, 0, 63, 98
1, 133011, Note_on_c, 0, 51, 89
1, 133014, Note_on_c, 0, 84, 60
1, 133035, Control_c, 0, 64, 80
1, 133050, Control_c, 0, 64, 127
1, 133052, Note_off_c, 0, 84, 60
1, 133057, Note_on_c, 0, 78, 68
1, 133106, Note_on_c, 0, 81, 66
1, 133120, Note_off_c, 0, 78, 57
1, 133173, Note_off_c, 0, 51, 56
1, 133184, Note_on_c, 0, 83, 74
1, 133186, Note_off_c, 0, 63, 54
1, 133199, Note_off_c, 0, 81, 55
1, 133264, Note_off_c, 0, 83, 60
1, 133264, Note_on_c, 0, 84, 74
1, 133323, Note_on_c, 0, 78, 75
1, 133330, Note_off_c, 0, 84, 61
1, 133384, Note_on_c, 0, 81, 65
1, 133394, Note_off_c, 0, 78, 57
1, 133414, Control_c, 0, 64, 119
1, 133429, Control_c, 0, 64, 110
1, 133444, Control_c, 0, 64, 102
1, 133446, Note_on_c, 0, 83, 70
1, 133458, Control_c, 0, 64, 95
1, 133468, Note_off_c, 0, 81, 50
1, 133473, Control_c, 0, 64, 89
1, 133488, Control_c, 0, 64, 83
1, 133503, Control_c, 0, 64, 77
1, 133518, Control_c, 0, 64, 72
1, 133522, Note_on_c, 0, 62, 83
1, 133523, Note_off_c, 0, 83, 56
1, 133525, Note_on_c, 0, 50, 77
1, 133529, Note_on_c, 0, 84, 70
1, 133532, Control_c, 0, 64, 66
1, 133547, Control_c, 0, 64, 57
1, 133549, Note_off_c, 0, 62, 64
1, 133562, Control_c, 0, 64, 31
1, 133573, Note_off_c, 0, 50, 64
1, 133577, Control_c, 0, 64, 0
1, 133578, Note_on_c, 0, 78, 66
1, 133601, Note_off_c, 0, 84, 60
1, 133607, Control_c, 0, 64, 21
1, 133621, Control_c, 0, 64, 23
1, 133630, Note_on_c, 0, 81, 68
1, 133636, Control_c, 0, 64, 24
1, 133639, Note_off_c, 0, 78, 60
1, 133681, Control_c, 0, 64, 23
1, 133702, Note_on_c, 0, 83, 74
1, 133721, Note_off_c, 0, 81, 53
1, 133725, Control_c, 0, 64, 25
1, 133740, Control_c, 0, 64, 32
1, 133755, Control_c, 0, 64, 40
1, 133769, Control_c, 0, 64, 48
1, 133775, Note_off_c, 0, 83, 61
1, 133781, Note_on_c, 0, 60, 85
1, 133784, Control_c, 0, 64, 53
1, 133785, Note_on_c, 0, 84, 69
1, 133788, Note_on_c, 0, 48, 81
1, 133799, Control_c, 0, 64, 56
1, 133814, Control_c, 0, 64, 58
1, 133822, Note_off_c, 0, 60, 61
1, 133829, Control_c, 0, 64, 60
1, 133833, Note_on_c, 0, 78, 58
1, 133842, Note_off_c, 0, 48, 64
1, 133843, Control_c, 0, 64, 61
1, 133846, Note_off_c, 0, 84, 61
1, 133858, Control_c, 0, 64, 61
1, 133864, Note_off_c, 0, 78, 52
1, 133867, Note_on_c, 0, 81, 71
1, 133903, Control_c, 0, 64, 60
1, 133917, Control_c, 0, 64, 56
1, 133932, Control_c, 0, 64, 32
1, 133947, Control_c, 0, 64, 0
1, 133949, Note_on_c, 0, 83, 59
1, 133967, Note_off_c, 0, 81, 55
1, 134003, Note_on_c, 0, 85, 62
1, 134026, Note_off_c, 0, 85, 66
1, 134038, Note_off_c, 0, 83, 62
1, 134049, Note_on_c, 0, 57, 92
1, 134054, Note_on_c, 0, 45, 80
1, 134058, Note_on_c, 0, 84, 54
1, 134074, Control_c, 0, 64, 67
1, 134089, Control_c, 0, 64, 93
1, 134091, Note_on_c, 0, 78, 68
1, 134098, Note_off_c, 0, 57, 64
1, 134104, Control_c, 0, 64, 127
1, 134106, Note_off_c, 0, 84, 63
1, 134110, Note_off_c, 0, 45, 63
1, 134134, Note_on_c, 0, 81, 54
1, 134146, Note_off_c, 0, 78, 63
1, 134194, Note_on_c, 0, 84, 70
1, 134203, Note_off_c, 0, 81, 61
1, 134245, Note_off_c, 0, 84, 66
1, 134277, Note_on_c, 0, 83, 74
1, 134334, Note_off_c, 0, 83, 60
1, 134336, Note_on_c, 0, 84, 76
1, 134355, Control_c, 0, 64, 126
1, 134370, Control_c, 0, 64, 121
1, 134385, Control_c, 0, 64, 118
1, 134399, Control_c, 0, 64, 115
1, 134402, Note_on_c, 0, 86, 77
1, 134403, Note_off_c, 0, 84, 63
1, 134414, Control_c, 0, 64, 112
1, 134429, Control_c, 0, 64, 108
1, 134444, Control_c, 0, 64, 104
1, 134459, Control_c, 0, 64, 100
1, 134462, Note_on_c, 0, 87, 75
1, 134466, Note_off_c, 0, 86, 61
1, 134474, Control_c, 0, 64, 95
1, 134489, Control_c, 0, 64, 89
1, 134504, Control_c, 0, 64, 79
1, 134518, Control_c, 0, 64, 66
1, 134533, Control_c, 0, 64, 0
1, 134541, Note_on_c, 0, 89, 69
1, 134542, Note_off_c, 0, 87, 61
1, 134548, Note_on_c, 0, 68, 103
1, 134555, Note_on_c, 0, 56, 88
1, 134593, Note_on_c, 0, 83, 67
1, 134597, Note_off_c, 0, 89, 66
1, 134607, Control_c, 0, 64, 60
1, 134622, Control_c, 0, 64, 68
1, 134637, Control_c, 0, 64, 73
1, 134652, Control_c, 0, 64, 78
1, 134656, Note_on_c, 0, 86, 79
1, 134659, Note_off_c, 0, 83, 61
1, 134666, Control_c, 0, 64, 81
1, 134681, Control_c, 0, 64, 84
1, 134696, Control_c, 0, 64, 87
1, 134711, Control_c, 0, 64, 90
1, 134723, Note_on_c, 0, 87, 78
1, 134725, Control_c, 0, 64, 93
1, 134727, Note_off_c, 0, 86, 63
1, 134740, Control_c, 0, 64, 95
1, 134755, Control_c, 0, 64, 98
1, 134768, Note_off_c, 0, 68, 60
1, 134771, Control_c, 0, 64, 101
1, 134782, Note_off_c, 0, 56, 61
1, 134786, Control_c, 0, 64, 103
1, 134787, Note_off_c, 0, 87, 65
1, 134802, Note_on_c, 0, 89, 77
1, 134808, Control_c, 0, 64, 104
1, 134823, Control_c, 0, 64, 104
1, 134853, Note_off_c, 0, 89, 66
1, 134867, Control_c, 0, 64, 105
1, 134872, Note_on_c, 0, 86, 80
1, 134882, Control_c, 0, 64, 106
1, 134897, Control_c, 0, 64, 107
1, 134912, Control_c, 0, 64, 108
1, 134927, Control_c, 0, 64, 109
1, 134930, Note_on_c, 0, 89, 79
1, 134943, Note_off_c, 0, 86, 52
1, 134998, Note_on_c, 0, 91, 84
1, 135016, Note_off_c, 0, 89, 61
1, 135016, Control_c, 0, 64, 108
1, 135030, Control_c, 0, 64, 102
1, 135045, Control_c, 0, 64, 91
1, 135060, Control_c, 0, 64, 77
1, 135061, Note_on_c, 0, 92, 85
1, 135067, Note_off_c, 0, 91, 60
1, 135070, Note_on_c, 0, 65, 92
1, 135071, Note_on_c, 0, 53, 84
1, 135075, Control_c, 0, 64, 0
1, 135127, Note_on_c, 0, 86, 69
1, 135134, Control_c, 0, 64, 36
1, 135145, Note_off_c, 0, 92, 61
1, 135148, Control_c, 0, 64, 66
1, 135163, Control_c, 0, 64, 75
1, 135178, Note_on_c, 0, 89, 82
1, 135178, Control_c, 0, 64, 83
1, 135193, Control_c, 0, 64, 87
1, 135198, Note_off_c, 0, 86, 60
1, 135207, Control_c, 0, 64, 89
1, 135222, Control_c, 0, 64, 92
1, 135237, Control_c, 0, 64, 95
1, 135249, Note_on_c, 0, 91, 83
1, 135252, Control_c, 0, 64, 98
1, 135261, Note_off_c, 0, 65, 60
1, 135266, Note_off_c, 0, 89, 58
1, 135267, Control_c, 0, 64, 103
1, 135282, Control_c, 0, 64, 106
1, 135294, Note_off_c, 0, 53, 62
1, 135296, Control_c, 0, 64, 110
1, 135311, Control_c, 0, 64, 113
1, 135319, Note_on_c, 0, 92, 91
1, 135326, Control_c, 0, 64, 115
1, 135327, Note_off_c, 0, 91, 60
1, 135340, Control_c, 0, 64, 119
1, 135355, Control_c, 0, 64, 125
1, 135370, Control_c, 0, 64, 127
1, 135386, Note_on_c, 0, 86, 76
1, 135406, Note_off_c, 0, 92, 63
1, 135440, Note_on_c, 0, 89, 75
1, 135455, Note_off_c, 0, 86, 60
1, 135509, Note_on_c, 0, 91, 82
1, 135518, Control_c, 0, 64, 115
1, 135532, Note_off_c, 0, 89, 60
1, 135533, Control_c, 0, 64, 96
1, 135555, Control_c, 0, 64, 76
1, 135571, Control_c, 0, 64, 47
1, 135580, Note_on_c, 0, 62, 92
1, 135584, Note_on_c, 0, 50, 82
1, 135586, Control_c, 0, 64, 0
1, 135588, Note_on_c, 0, 92, 79
1, 135595, Note_off_c, 0, 91, 58
1, 135631, Control_c, 0, 64, 66
1, 135645, Note_on_c, 0, 86, 68
1, 135645, Control_c, 0, 64, 77
1, 135660, Control_c, 0, 64, 90
1, 135669, Note_off_c, 0, 92, 64
1, 135675, Control_c, 0, 64, 100
1, 135690, Control_c, 0, 64, 105
1, 135693, Note_on_c, 0, 89, 80
1, 135695, Note_off_c, 0, 86, 61
1, 135705, Control_c, 0, 64, 108
1, 135719, Control_c, 0, 64, 112
1, 135734, Control_c, 0, 64, 118
1, 135749, Control_c, 0, 64, 127
1, 135763, Note_on_c, 0, 91, 80
1, 135770, Note_off_c, 0, 89, 60
1, 135818, Note_off_c, 0, 91, 60
1, 135824, Note_on_c, 0, 92, 77
1, 135830, Note_off_c, 0, 62, 59
1, 135872, Note_off_c, 0, 50, 61
1, 135902, Note_on_c, 0, 91, 72
1, 135917, Note_off_c, 0, 92, 61
1, 135950, Note_off_c, 0, 91, 59
1, 135963, Note_on_c, 0, 89, 75
1, 136014, Note_off_c, 0, 89, 64
1, 136033, Note_on_c, 0, 87, 73
1, 136060, Control_c, 0, 64, 113
1, 136075, Control_c, 0, 64, 99
1, 136090, Note_off_c, 0, 87, 61
1, 136090, Control_c, 0, 64, 85
1, 136093, Note_on_c, 0, 59, 70
1, 136101, Note_on_c, 0, 47, 72
1, 136105, Control_c, 0, 64, 73
1, 136105, Note_on_c, 0, 86, 73
1, 136119, Control_c, 0, 64, 56
1, 136134, Control_c, 0, 64, 16
1, 136149, Control_c, 0, 64, 59
1, 136163, Control_c, 0, 64, 68
1, 136164, Note_on_c, 0, 87, 74
1, 136169, Note_off_c, 0, 86, 61
1, 136178, Control_c, 0, 64, 75
1, 136193, Control_c, 0, 64, 83
1, 136208, Control_c, 0, 64, 92
1, 136223, Control_c, 0, 64, 97
1, 136224, Note_off_c, 0, 87, 66
1, 136231, Note_on_c, 0, 89, 74
1, 136237, Control_c, 0, 64, 100
1, 136252, Control_c, 0, 64, 103
1, 136261, Note_off_c, 0, 59, 57
1, 136267, Control_c, 0, 64, 106
1, 136282, Control_c, 0, 64, 109
1, 136301, Note_off_c, 0, 47, 63
1, 136302, Note_off_c, 0, 89, 67
1, 136304, Control_c, 0, 64, 112
1, 136305, Note_on_c, 0, 91, 78
1, 136319, Control_c, 0, 64, 115
1, 136334, Control_c, 0, 64, 118
1, 136349, Control_c, 0, 64, 121
1, 136364, Control_c, 0, 64, 125
1, 136377, Note_on_c, 0, 89, 72
1, 136379, Control_c, 0, 64, 127
1, 136388, Note_off_c, 0, 91, 60
1, 136426, Note_on_c, 0, 87, 76
1, 136453, Note_off_c, 0, 89, 61
1, 136496, Note_off_c, 0, 87, 63
1, 136497, Note_on_c, 0, 86, 61
1, 136526, Note_off_c, 0, 86, 65
1, 136548, Note_on_c, 0, 84, 77
1, 136557, Control_c, 0, 64, 122
1, 136572, Control_c, 0, 64, 104
1, 136587, Control_c, 0, 64, 87
1, 136599, Note_off_c, 0, 84, 62
1, 136601, Control_c, 0, 64, 67
1, 136611, Note_on_c, 0, 83, 73
1, 136616, Control_c, 0, 64, 0
1, 136626, Note_on_c, 0, 55, 71
1, 136631, Note_on_c, 0, 43, 62
1, 136662, Note_off_c, 0, 83, 60
1, 136685, Note_on_c, 0, 84, 77
1, 136690, Control_c, 0, 64, 64
1, 136705, Control_c, 0, 64, 71
1, 136720, Control_c, 0, 64, 78
1, 136735, Control_c, 0, 64, 86
1, 136746, Note_off_c, 0, 84, 64
1, 136749, Control_c, 0, 64, 94
1, 136751, Note_on_c, 0, 86, 70
1, 136764, Control_c, 0, 64, 102
1, 136779, Control_c, 0, 64, 111
1, 136793, Control_c, 0, 64, 124
1, 136806, Note_on_c, 0, 87, 82
1, 136807, Note_off_c, 0, 86, 63
1, 136808, Control_c, 0, 64, 127
1, 136874, Note_on_c, 0, 86, 72
1, 136874, Note_off_c, 0, 87, 66
1, 136875, Note_off_c, 0, 55, 60
1, 136919, Note_off_c, 0, 86, 64
1, 136930, Note_off_c, 0, 43, 60
1, 136938, Note_on_c, 0, 84, 75
1, 136963, Note_off_c, 0, 84, 65
1, 137002, Note_on_c, 0, 83, 75
1, 137075, Note_on_c, 0, 80, 79
1, 137082, Control_c, 0, 64, 104
1, 137097, Control_c, 0, 64, 88
1, 137105, Note_off_c, 0, 83, 58
1, 137112, Control_c, 0, 64, 74
1, 137127, Control_c, 0, 64, 63
1, 137142, Control_c, 0, 64, 53
1, 137146, Note_on_c, 0, 79, 70
1, 137148, Note_off_c, 0, 80, 65
1, 137157, Control_c, 0, 64, 64
1, 137172, Control_c, 0, 64, 73
1, 137177, Note_on_c, 0, 43, 67
1, 137178, Note_on_c, 0, 31, 70
1, 137187, Note_off_c, 0, 79, 63
1, 137187, Control_c, 0, 64, 84
1, 137198, Note_on_c, 0, 77, 80
1, 137202, Control_c, 0, 64, 99
1, 137214, Note_off_c, 0, 31, 60
1, 137216, Note_off_c, 0, 43, 61
1, 137216, Control_c, 0, 64, 113
1, 137231, Control_c, 0, 64, 119
1, 137246, Control_c, 0, 64, 122
1, 137252, Note_off_c, 0, 77, 62
1, 137261, Control_c, 0, 64, 125
1, 137268, Note_on_c, 0, 75, 75
1, 137276, Control_c, 0, 64, 127
1, 137335, Note_off_c, 0, 75, 64
1, 137336, Note_on_c, 0, 74, 73
1, 137365, Control_c, 0, 64, 119
1, 137380, Control_c, 0, 64, 111
1, 137395, Control_c, 0, 64, 104
1, 137410, Control_c, 0, 64, 96
1, 137417, Note_on_c, 0, 75, 76
1, 137424, Control_c, 0, 64, 89
1, 137428, Note_off_c, 0, 74, 59
1, 137429, Note_on_c, 0, 48, 62
1, 137437, Note_on_c, 0, 36, 57
1, 137439, Control_c, 0, 64, 82
1, 137454, Control_c, 0, 64, 75
1, 137469, Control_c, 0, 64, 70
1, 137473, Note_off_c, 0, 75, 66
1, 137484, Control_c, 0, 64, 64
1, 137497, Note_on_c, 0, 72, 68
1, 137498, Control_c, 0, 64, 42
1, 137513, Control_c, 0, 64, 0
1, 137549, Note_off_c, 0, 72, 63
1, 137584, Note_on_c, 0, 71, 66
1, 137650, Note_on_c, 0, 68, 72
1, 137672, Note_off_c, 0, 71, 53
1, 137727, Note_on_c, 0, 67, 72
1, 137731, Note_off_c, 0, 68, 64
1, 137795, Note_off_c, 0, 67, 62
1, 137815, Note_on_c, 0, 65, 68
1, 137881, Note_off_c, 0, 65, 64
1, 137890, Control_c, 0, 64, 16
1, 137895, Note_on_c, 0, 63, 67
1, 137905, Control_c, 0, 64, 24
1, 137908, Note_off_c, 0, 36, 36
1, 137920, Control_c, 0, 64, 27
1, 137935, Control_c, 0, 64, 28
1, 137985, Note_on_c, 0, 62, 69
1, 137988, Note_off_c, 0, 63, 64
1, 137995, Control_c, 0, 64, 29
1, 138000, Note_off_c, 0, 48, 31
1, 138025, Control_c, 0, 64, 30
1, 138039, Control_c, 0, 64, 31
1, 138060, Note_off_c, 0, 62, 61
1, 138069, Control_c, 0, 64, 32
1, 138088, Note_on_c, 0, 60, 70
1, 138099, Control_c, 0, 64, 33
1, 138129, Control_c, 0, 64, 34
1, 138173, Control_c, 0, 64, 34
1, 138188, Control_c, 0, 64, 35
1, 138201, Note_off_c, 0, 60, 56
1, 138203, Control_c, 0, 64, 36
1, 138207, Note_on_c, 0, 59, 59
1, 138218, Control_c, 0, 64, 38
1, 138233, Control_c, 0, 64, 38
1, 138307, Control_c, 0, 64, 39
1, 138312, Note_on_c, 0, 56, 63
1, 138319, Note_off_c, 0, 59, 55
1, 138321, Control_c, 0, 64, 40
1, 138336, Control_c, 0, 64, 41
1, 138351, Control_c, 0, 64, 42
1, 138365, Control_c, 0, 64, 42
1, 138380, Control_c, 0, 64, 43
1, 138412, Note_off_c, 0, 56, 64
1, 138418, Note_on_c, 0, 55, 63
1, 138439, Control_c, 0, 64, 44
1, 138454, Control_c, 0, 64, 45
1, 138469, Control_c, 0, 64, 46
1, 138484, Control_c, 0, 64, 47
1, 138499, Control_c, 0, 64, 47
1, 138508, Note_off_c, 0, 55, 65
1, 138528, Note_on_c, 0, 53, 65
1, 138528, Control_c, 0, 64, 48
1, 138551, Control_c, 0, 64, 49
1, 138565, Control_c, 0, 64, 49
1, 138580, Control_c, 0, 64, 50
1, 138595, Control_c, 0, 64, 51
1, 138610, Control_c, 0, 64, 52
1, 138625, Control_c, 0, 64, 53
1, 138632, Note_off_c, 0, 53, 65
1, 138638, Note_on_c, 0, 51, 63
1, 138639, Control_c, 0, 64, 54
1, 138654, Control_c, 0, 64, 54
1, 138684, Control_c, 0, 64, 55
1, 138698, Control_c, 0, 64, 56
1, 138743, Control_c, 0, 64, 56
1, 138744, Note_off_c, 0, 51, 63
1, 138751, Note_on_c, 0, 50, 66
1, 138774, Control_c, 0, 64, 57
1, 138788, Control_c, 0, 64, 57
1, 138803, Control_c, 0, 64, 58
1, 138838, Note_off_c, 0, 50, 63
1, 138862, Control_c, 0, 64, 58
1, 138868, Note_on_c, 0, 48, 66
1, 138907, Control_c, 0, 64, 59
1, 138992, Note_off_c, 0, 48, 60
1, 138996, Note_on_c, 0, 47, 61
1, 139116, Note_on_c, 0, 44, 63
1, 139139, Note_off_c, 0, 47, 52
1, 139225, Note_off_c, 0, 44, 64
1, 139229, Note_on_c, 0, 43, 59
1, 139233, Control_c, 0, 64, 59
1, 139321, Note_off_c, 0, 43, 60
1, 139351, Note_on_c, 0, 41, 60
1, 139451, Note_off_c, 0, 41, 65
1, 139462, Control_c, 0, 64, 60
1, 139464, Note_on_c, 0, 39, 57
1, 139604, Note_on_c, 0, 38, 48
1, 139610, Note_off_c, 0, 39, 54
1, 139831, Note_on_c, 0, 36, 46
1, 139846, Note_off_c, 0, 38, 54
1, 140011, Control_c, 0, 64, 59
1, 140137, Control_c, 0, 64, 60
1, 140241, Control_c, 0, 64, 60
1, 140271, Control_c, 0, 64, 61
1, 140315, Control_c, 0, 64, 61
1, 140390, Control_c, 0, 64, 62
1, 140560, Note_on_c, 0, 60, 51
1, 140575, Note_on_c, 0, 55, 37
1, 140580, Note_on_c, 0, 43, 41
1, 140582, Control_c, 0, 64, 61
1, 140584, Note_on_c, 0, 52, 33
1, 140627, Control_c, 0, 64, 61
1, 140746, Control_c, 0, 64, 61
1, 140775, Control_c, 0, 64, 62
1, 140797, Control_c, 0, 64, 62
1, 140812, Control_c, 0, 64, 63
1, 140827, Control_c, 0, 64, 64
1, 140841, Control_c, 0, 64, 65
1, 140856, Control_c, 0, 64, 66
1, 140871, Control_c, 0, 64, 67
1, 140886, Control_c, 0, 64, 69
1, 140901, Control_c, 0, 64, 71
1, 140916, Control_c, 0, 64, 75
1, 140931, Control_c, 0, 64, 78
1, 140945, Control_c, 0, 64, 82
1, 140960, Control_c, 0, 64, 85
1, 140975, Control_c, 0, 64, 89
1, 140990, Control_c, 0, 64, 92
1, 141005, Control_c, 0, 64, 96
1, 141020, Control_c, 0, 64, 100
1, 141034, Control_c, 0, 64, 103
1, 141049, Control_c, 0, 64, 106
1, 141064, Control_c, 0, 64, 109
1, 141079, Control_c, 0, 64, 111
1, 141093, Control_c, 0, 64, 114
1, 141108, Control_c, 0, 64, 117
1, 141123, Control_c, 0, 64, 119
1, 141138, Control_c, 0, 64, 121
1, 141153, Control_c, 0, 64, 122
1, 141176, Note_on_c, 0, 48, 47
1, 141183, Control_c, 0, 64, 123
1, 141229, Control_c, 0, 64, 123
1, 141273, Control_c, 0, 64, 124
1, 141347, Control_c, 0, 64, 124
1, 141349, Note_off_c, 0, 60, 31
1, 141362, Control_c, 0, 64, 125
1, 141377, Control_c, 0, 64, 126
1, 141383, Note_off_c, 0, 36, 41
1, 141391, Control_c, 0, 64, 127
1, 141406, Control_c, 0, 64, 127
1, 141438, Note_off_c, 0, 55, 33
1, 141604, Note_on_c, 0, 64, 53
1, 141625, Note_off_c, 0, 52, 27
1, 141662, Note_off_c, 0, 64, 55
1, 141724, Control_c, 0, 64, 127
1, 141739, Control_c, 0, 64, 124
1, 141754, Control_c, 0, 64, 119
1, 141769, Control_c, 0, 64, 113
1, 141777, Note_on_c, 0, 62, 62
1, 141783, Control_c, 0, 64, 106
1, 141795, Note_off_c, 0, 48, 35
1, 141796, Poly_aftertouch_c, 0, 55, 127
1, 141798, Control_c, 0, 64, 99
1, 141807, Note_on_c, 0, 35, 41
1, 141813, Control_c, 0, 64, 91
1, 141822, Note_on_c, 0, 50, 34
1, 141828, Control_c, 0, 64, 82
1, 141843, Control_c, 0, 64, 72
1, 141858, Control_c, 0, 64, 55
1, 141864, Note_off_c, 0, 43, 32
1, 141873, Control_c, 0, 64, 0
1, 141992, Control_c, 0, 64, 55
1, 142007, Control_c, 0, 64, 66
1, 142022, Control_c, 0, 64, 69
1, 142037, Control_c, 0, 64, 74
1, 142051, Control_c, 0, 64, 79
1, 142066, Control_c, 0, 64, 84
1, 142081, Control_c, 0, 64, 88
1, 142096, Control_c, 0, 64, 91
1, 142111, Control_c, 0, 64, 94
1, 142114, Poly_aftertouch_c, 0, 55, 0
1, 142126, Control_c, 0, 64, 98
1, 142140, Control_c, 0, 64, 101
1, 142155, Control_c, 0, 64, 105
1, 142170, Control_c, 0, 64, 107
1, 142185, Control_c, 0, 64, 108
1, 142200, Control_c, 0, 64, 108
1, 142201, Note_off_c, 0, 50, 41
1, 142214, Control_c, 0, 64, 109
1, 142229, Control_c, 0, 64, 110
1, 142244, Control_c, 0, 64, 110
1, 142435, Note_on_c, 0, 55, 56
1, 142463, Note_on_c, 0, 43, 40
1, 142603, Note_off_c, 0, 62, 37
1, 142948, Control_c, 0, 64, 111
1, 143005, Note_off_c, 0, 55, 54
1, 143041, Note_on_c, 0, 47, 58
1, 143089, Control_c, 0, 64, 111
1, 143149, Note_off_c, 0, 35, 41
1, 143300, Note_off_c, 0, 43, 40
1, 143417, Note_on_c, 0, 62, 69
1, 143542, Note_off_c, 0, 62, 55
1, 143563, Control_c, 0, 64, 111
1, 143578, Control_c, 0, 64, 110
1, 143593, Control_c, 0, 64, 107
1, 143593, Note_on_c, 0, 64, 68
1, 143607, Control_c, 0, 64, 103
1, 143616, Note_off_c, 0, 47, 27
1, 143622, Control_c, 0, 64, 96
1, 143624, Note_on_c, 0, 58, 47
1, 143625, Note_on_c, 0, 55, 43
1, 143629, Note_on_c, 0, 37, 45
1, 143637, Control_c, 0, 64, 87
1, 143652, Control_c, 0, 64, 78
1, 143667, Control_c, 0, 64, 67
1, 143682, Control_c, 0, 64, 0
1, 143777, Control_c, 0, 64, 62
1, 143792, Control_c, 0, 64, 67
1, 143807, Control_c, 0, 64, 71
1, 143810, Note_off_c, 0, 58, 62
1, 143822, Control_c, 0, 64, 77
1, 143837, Control_c, 0, 64, 83
1, 143852, Control_c, 0, 64, 90
1, 143860, Note_off_c, 0, 64, 62
1, 143862, Note_off_c, 0, 55, 40
1, 143867, Control_c, 0, 64, 95
1, 143882, Control_c, 0, 64, 101
1, 143897, Control_c, 0, 64, 106
1, 143911, Control_c, 0, 64, 109
1, 143926, Control_c, 0, 64, 113
1, 143941, Control_c, 0, 64, 115
1, 143956, Control_c, 0, 64, 117
1, 143971, Control_c, 0, 64, 118
1, 143985, Control_c, 0, 64, 119
1, 144015, Control_c, 0, 64, 119
1, 144045, Control_c, 0, 64, 120
1, 144133, Control_c, 0, 64, 119
1, 144148, Control_c, 0, 64, 119
1, 144163, Control_c, 0, 64, 117
1, 144177, Control_c, 0, 64, 115
1, 144192, Control_c, 0, 64, 112
1, 144207, Control_c, 0, 64, 109
1, 144222, Control_c, 0, 64, 105
1, 144237, Control_c, 0, 64, 100
1, 144239, Note_on_c, 0, 64, 56
1, 144252, Control_c, 0, 64, 94
1, 144257, Note_on_c, 0, 57, 36
1, 144259, Note_on_c, 0, 55, 44
1, 144266, Control_c, 0, 64, 88
1, 144269, Note_on_c, 0, 45, 44
1, 144281, Control_c, 0, 64, 83
1, 144296, Control_c, 0, 64, 77
1, 144311, Control_c, 0, 64, 73
1, 144326, Control_c, 0, 64, 68
1, 144341, Control_c, 0, 64, 63
1, 144356, Control_c, 0, 64, 26
1, 144371, Control_c, 0, 64, 0
1, 144520, Control_c, 0, 64, 49
1, 144541, Control_c, 0, 64, 59
1, 144556, Control_c, 0, 64, 63
1, 144571, Control_c, 0, 64, 65
1, 144586, Control_c, 0, 64, 69
1, 144601, Control_c, 0, 64, 73
1, 144615, Control_c, 0, 64, 79
1, 144630, Control_c, 0, 64, 85
1, 144645, Control_c, 0, 64, 92
1, 144660, Control_c, 0, 64, 96
1, 144675, Control_c, 0, 64, 100
1, 144690, Control_c, 0, 64, 104
1, 144704, Control_c, 0, 64, 108
1, 144719, Control_c, 0, 64, 112
1, 144734, Control_c, 0, 64, 117
1, 144749, Control_c, 0, 64, 125
1, 144764, Control_c, 0, 64, 127
1, 144811, Note_off_c, 0, 55, 37
1, 144812, Note_off_c, 0, 57, 35
1, 144821, Note_on_c, 0, 49, 47
1, 144844, Note_off_c, 0, 64, 36
1, 144952, Note_off_c, 0, 37, 39
1, 145007, Note_off_c, 0, 45, 32
1, 145179, Note_on_c, 0, 67, 63
1, 145241, Note_off_c, 0, 67, 56
1, 145296, Note_off_c, 0, 49, 31
1, 145388, Note_on_c, 0, 64, 58
1, 145395, Control_c, 0, 64, 119
1, 145402, Note_on_c, 0, 57, 44
1, 145408, Note_on_c, 0, 38, 40
1, 145410, Control_c, 0, 64, 111
1, 145420, Note_on_c, 0, 53, 27
1, 145425, Control_c, 0, 64, 105
1, 145439, Control_c, 0, 64, 99
1, 145454, Control_c, 0, 64, 92
1, 145469, Control_c, 0, 64, 86
1, 145483, Control_c, 0, 64, 79
1, 145498, Control_c, 0, 64, 70
1, 145513, Control_c, 0, 64, 56
1, 145528, Control_c, 0, 64, 0
1, 145602, Control_c, 0, 64, 55
1, 145617, Control_c, 0, 64, 63
1, 145631, Control_c, 0, 64, 65
1, 145646, Control_c, 0, 64, 68
1, 145661, Control_c, 0, 64, 71
1, 145676, Control_c, 0, 64, 76
1, 145691, Control_c, 0, 64, 82
1, 145706, Control_c, 0, 64, 87
1, 145721, Control_c, 0, 64, 90
1, 145736, Control_c, 0, 64, 93
1, 145751, Control_c, 0, 64, 96
1, 145765, Control_c, 0, 64, 99
1, 145780, Control_c, 0, 64, 103
1, 145795, Control_c, 0, 64, 106
1, 145796, Note_off_c, 0, 64, 37
1, 145810, Control_c, 0, 64, 109
1, 145824, Control_c, 0, 64, 110
1, 145839, Control_c, 0, 64, 111
1, 145854, Control_c, 0, 64, 112
1, 145869, Control_c, 0, 64, 113
1, 145883, Control_c, 0, 64, 114
1, 145898, Control_c, 0, 64, 114
1, 145939, Note_off_c, 0, 57, 0
1, 145959, Control_c, 0, 64, 114
1, 145973, Control_c, 0, 64, 112
1, 145976, Poly_aftertouch_c, 0, 57, 127
1, 145988, Control_c, 0, 64, 109
1, 146003, Control_c, 0, 64, 106
1, 146013, Note_on_c, 0, 65, 59
1, 146018, Control_c, 0, 64, 103
1, 146040, Control_c, 0, 64, 100
1, 146055, Control_c, 0, 64, 96
1, 146065, Note_on_c, 0, 45, 41
1, 146070, Control_c, 0, 64, 91
1, 146085, Control_c, 0, 64, 84
1, 146099, Control_c, 0, 64, 79
1, 146114, Control_c, 0, 64, 75
1, 146129, Control_c, 0, 64, 72
1, 146144, Control_c, 0, 64, 68
1, 146159, Control_c, 0, 64, 66
1, 146188, Control_c, 0, 64, 67
1, 146203, Control_c, 0, 64, 69
1, 146218, Control_c, 0, 64, 72
1, 146233, Control_c, 0, 64, 75
1, 146248, Control_c, 0, 64, 78
1, 146262, Control_c, 0, 64, 80
1, 146277, Control_c, 0, 64, 83
1, 146292, Control_c, 0, 64, 86
1, 146306, Control_c, 0, 64, 89
1, 146321, Control_c, 0, 64, 93
1, 146336, Control_c, 0, 64, 98
1, 146351, Control_c, 0, 64, 102
1, 146359, Note_off_c, 0, 53, 42
1, 146366, Control_c, 0, 64, 106
1, 146380, Control_c, 0, 64, 109
1, 146395, Control_c, 0, 64, 112
1, 146410, Control_c, 0, 64, 115
1, 146425, Control_c, 0, 64, 119
1, 146439, Control_c, 0, 64, 122
1, 146445, Poly_aftertouch_c, 0, 57, 0
1, 146454, Control_c, 0, 64, 126
1, 146469, Control_c, 0, 64, 127
1, 146612, Note_on_c, 0, 50, 54
1, 146645, Note_off_c, 0, 65, 58
1, 146725, Note_off_c, 0, 38, 39
1, 146820, Note_off_c, 0, 45, 50
1, 146966, Control_c, 0, 64, 127
1, 146978, Note_on_c, 0, 65, 70
1, 146981, Control_c, 0, 64, 126
1, 147101, Note_off_c, 0, 65, 61
1, 147128, Control_c, 0, 64, 124
1, 147143, Control_c, 0, 64, 119
1, 147158, Control_c, 0, 64, 113
1, 147161, Note_on_c, 0, 66, 75
1, 147173, Control_c, 0, 64, 105
1, 147187, Note_on_c, 0, 57, 51
1, 147188, Control_c, 0, 64, 97
1, 147191, Note_on_c, 0, 60, 54
1, 147201, Note_on_c, 0, 39, 51
1, 147201, Note_off_c, 0, 50, 21
1, 147202, Control_c, 0, 64, 88
1, 147217, Control_c, 0, 64, 76
1, 147232, Control_c, 0, 64, 65
1, 147247, Control_c, 0, 64, 0
1, 147335, Control_c, 0, 64, 55
1, 147350, Control_c, 0, 64, 64
1, 147365, Control_c, 0, 64, 67
1, 147380, Control_c, 0, 64, 71
1, 147394, Control_c, 0, 64, 75
1, 147409, Control_c, 0, 64, 81
1, 147424, Control_c, 0, 64, 87
1, 147439, Control_c, 0, 64, 92
1, 147453, Control_c, 0, 64, 97
1, 147468, Control_c, 0, 64, 102
1, 147483, Control_c, 0, 64, 105
1, 147498, Control_c, 0, 64, 109
1, 147513, Control_c, 0, 64, 112
1, 147514, Note_off_c, 0, 66, 59
1, 147535, Control_c, 0, 64, 115
1, 147551, Control_c, 0, 64, 117
1, 147566, Control_c, 0, 64, 118
1, 147581, Control_c, 0, 64, 119
1, 147596, Control_c, 0, 64, 120
1, 147640, Control_c, 0, 64, 120
1, 147714, Control_c, 0, 64, 120
1, 147744, Control_c, 0, 64, 119
1, 147758, Control_c, 0, 64, 117
1, 147772, Note_on_c, 0, 66, 75
1, 147773, Control_c, 0, 64, 113
1, 147788, Control_c, 0, 64, 107
1, 147803, Control_c, 0, 64, 100
1, 147806, Note_on_c, 0, 48, 51
1, 147818, Control_c, 0, 64, 95
1, 147832, Control_c, 0, 64, 90
1, 147847, Control_c, 0, 64, 85
1, 147862, Control_c, 0, 64, 79
1, 147877, Control_c, 0, 64, 72
1, 147892, Control_c, 0, 64, 64
1, 147906, Control_c, 0, 64, 40
1, 147921, Control_c, 0, 64, 0
1, 147981, Control_c, 0, 64, 43
1, 147996, Control_c, 0, 64, 58
1, 148011, Control_c, 0, 64, 63
1, 148025, Control_c, 0, 64, 66
1, 148040, Control_c, 0, 64, 69
1, 148055, Control_c, 0, 64, 73
1, 148070, Control_c, 0, 64, 77
1, 148085, Control_c, 0, 64, 83
1, 148100, Control_c, 0, 64, 87
1, 148115, Control_c, 0, 64, 93
1, 148129, Control_c, 0, 64, 98
1, 148144, Control_c, 0, 64, 103
1, 148159, Control_c, 0, 64, 107
1, 148174, Control_c, 0, 64, 111
1, 148189, Control_c, 0, 64, 114
1, 148204, Control_c, 0, 64, 118
1, 148218, Control_c, 0, 64, 122
1, 148233, Control_c, 0, 64, 127
1, 148279, Note_off_c, 0, 48, 35
1, 148360, Note_on_c, 0, 51, 65
1, 148407, Note_off_c, 0, 66, 36
1, 148597, Note_off_c, 0, 60, 30
1, 148669, Note_off_c, 0, 57, 58
1, 148699, Note_off_c, 0, 39, 54
1, 148720, Note_on_c, 0, 66, 78
1, 148752, Note_off_c, 0, 51, 34
1, 148848, Note_off_c, 0, 66, 58
1, 148872, Note_on_c, 0, 40, 24
1, 148922, Note_on_c, 0, 67, 79
1, 148938, Note_on_c, 0, 55, 64
1, 148941, Note_off_c, 0, 40, 0
1, 148941, Note_on_c, 0, 40, 7
1, 148959, Note_on_c, 0, 60, 47
1, 148981, Control_c, 0, 64, 120
1, 148996, Control_c, 0, 64, 115
1, 149011, Control_c, 0, 64, 112
1, 149033, Control_c, 0, 64, 109
1, 149048, Control_c, 0, 64, 105
1, 149062, Control_c, 0, 64, 100
1, 149077, Control_c, 0, 64, 92
1, 149092, Control_c, 0, 64, 85
1, 149107, Control_c, 0, 64, 78
1, 149122, Control_c, 0, 64, 72
1, 149137, Control_c, 0, 64, 62
1, 149152, Control_c, 0, 64, 10
1, 149167, Control_c, 0, 64, 44
1, 149182, Control_c, 0, 64, 64
1, 149197, Control_c, 0, 64, 70
1, 149212, Control_c, 0, 64, 79
1, 149226, Control_c, 0, 64, 89
1, 149241, Control_c, 0, 64, 100
1, 149256, Control_c, 0, 64, 107
1, 149271, Control_c, 0, 64, 111
1, 149286, Control_c, 0, 64, 117
1, 149287, Note_off_c, 0, 67, 59
1, 149295, Note_off_c, 0, 55, 54
1, 149301, Control_c, 0, 64, 124
1, 149316, Control_c, 0, 64, 127
1, 149386, Note_off_c, 0, 40, 48
1, 149426, Note_off_c, 0, 60, 34
1, 149615, Note_on_c, 0, 69, 70
1, 149638, Note_on_c, 0, 57, 50
1, 149641, Control_c, 0, 64, 115
1, 149645, Note_on_c, 0, 60, 44
1, 149648, Note_on_c, 0, 62, 51
1, 149656, Control_c, 0, 64, 104
1, 149663, Note_on_c, 0, 29, 43
1, 149671, Control_c, 0, 64, 95
1, 149677, Note_on_c, 0, 41, 38
1, 149686, Control_c, 0, 64, 86
1, 149700, Control_c, 0, 64, 77
1, 149715, Control_c, 0, 64, 67
1, 149730, Control_c, 0, 64, 45
1, 149745, Control_c, 0, 64, 0
1, 149796, Control_c, 0, 64, 45
1, 149811, Control_c, 0, 64, 64
1, 149826, Control_c, 0, 64, 68
1, 149841, Control_c, 0, 64, 72
1, 149855, Control_c, 0, 64, 76
1, 149870, Control_c, 0, 64, 82
1, 149885, Control_c, 0, 64, 87
1, 149900, Control_c, 0, 64, 93
1, 149915, Control_c, 0, 64, 99
1, 149930, Control_c, 0, 64, 104
1, 149945, Control_c, 0, 64, 109
1, 149960, Control_c, 0, 64, 114
1, 149969, Note_off_c, 0, 41, 45
1, 149975, Control_c, 0, 64, 121
1, 149990, Control_c, 0, 64, 127
1, 150204, Note_off_c, 0, 29, 39
1, 150345, Control_c, 0, 64, 122
1, 150360, Control_c, 0, 64, 118
1, 150375, Control_c, 0, 64, 113
1, 150390, Control_c, 0, 64, 109
1, 150405, Control_c, 0, 64, 105
1, 150407, Note_on_c, 0, 42, 34
1, 150419, Control_c, 0, 64, 101
1, 150432, Note_on_c, 0, 30, 33
1, 150434, Control_c, 0, 64, 97
1, 150449, Control_c, 0, 64, 93
1, 150464, Control_c, 0, 64, 88
1, 150478, Control_c, 0, 64, 83
1, 150493, Control_c, 0, 64, 78
1, 150508, Control_c, 0, 64, 74
1, 150531, Control_c, 0, 64, 69
1, 150545, Control_c, 0, 64, 63
1, 150560, Control_c, 0, 64, 27
1, 150575, Control_c, 0, 64, 0
1, 150664, Control_c, 0, 64, 46
1, 150678, Control_c, 0, 64, 61
1, 150693, Control_c, 0, 64, 64
1, 150708, Control_c, 0, 64, 67
1, 150723, Control_c, 0, 64, 70
1, 150738, Control_c, 0, 64, 74
1, 150754, Control_c, 0, 64, 78
1, 150768, Control_c, 0, 64, 83
1, 150783, Control_c, 0, 64, 88
1, 150798, Control_c, 0, 64, 92
1, 150813, Control_c, 0, 64, 97
1, 150828, Control_c, 0, 64, 102
1, 150842, Control_c, 0, 64, 107
1, 150857, Control_c, 0, 64, 113
1, 150872, Control_c, 0, 64, 119
1, 150887, Control_c, 0, 64, 127
1, 150902, Control_c, 0, 64, 127
1, 150923, Note_off_c, 0, 69, 31
1, 150925, Note_off_c, 0, 42, 41
1, 150957, Note_off_c, 0, 62, 38
1, 151026, Note_off_c, 0, 60, 39
1, 151166, Note_off_c, 0, 57, 31
1, 151203, Note_off_c, 0, 30, 40
1, 151333, Note_on_c, 0, 69, 50
1, 151425, Note_off_c, 0, 69, 54
1, 151532, Control_c, 0, 64, 122
1, 151537, Note_on_c, 0, 65, 45
1, 151548, Control_c, 0, 64, 116
1, 151558, Note_on_c, 0, 62, 35
1, 151563, Control_c, 0, 64, 111
1, 151578, Control_c, 0, 64, 107
1, 151582, Note_on_c, 0, 59, 14
1, 151592, Control_c, 0, 64, 103
1, 151594, Note_on_c, 0, 43, 32
1, 151595, Note_on_c, 0, 31, 30
1, 151607, Control_c, 0, 64, 100
1, 151622, Control_c, 0, 64, 96
1, 151637, Control_c, 0, 64, 93
1, 151652, Control_c, 0, 64, 90
1, 151666, Control_c, 0, 64, 87
1, 151681, Control_c, 0, 64, 84
1, 151696, Control_c, 0, 64, 81
1, 151711, Control_c, 0, 64, 78
1, 151725, Control_c, 0, 64, 75
1, 151740, Control_c, 0, 64, 72
1, 151755, Control_c, 0, 64, 70
1, 151770, Control_c, 0, 64, 67
1, 151785, Control_c, 0, 64, 64
1, 151799, Control_c, 0, 64, 60
1, 151814, Control_c, 0, 64, 53
1, 151829, Control_c, 0, 64, 50
1, 151844, Control_c, 0, 64, 50
1, 151873, Control_c, 0, 64, 49
1, 151933, Control_c, 0, 64, 50
1, 151948, Control_c, 0, 64, 51
1, 151963, Control_c, 0, 64, 52
1, 151978, Control_c, 0, 64, 53
1, 151992, Control_c, 0, 64, 54
1, 152007, Control_c, 0, 64, 54
1, 152029, Control_c, 0, 64, 55
1, 152058, Control_c, 0, 64, 56
1, 152073, Control_c, 0, 64, 56
1, 152088, Control_c, 0, 64, 57
1, 152103, Control_c, 0, 64, 57
1, 152118, Control_c, 0, 64, 58
1, 152148, Control_c, 0, 64, 58
1, 152207, Control_c, 0, 64, 59
1, 152237, Note_on_c, 0, 67, 45
1, 152266, Control_c, 0, 64, 59
1, 152283, Note_off_c, 0, 65, 28
1, 152296, Control_c, 0, 64, 60
1, 152330, Note_off_c, 0, 62, 32
1, 152341, Control_c, 0, 64, 60
1, 152401, Control_c, 0, 64, 61
1, 152909, Note_on_c, 0, 60, 38
1, 152965, Note_off_c, 0, 67, 34
1, 152995, Note_off_c, 0, 59, 33
1, 153141, Note_off_c, 0, 60, 60
1, 153178, Control_c, 0, 64, 61
1, 153252, Control_c, 0, 64, 62
1, 153550, Note_on_c, 0, 40, 27
1, 153617, Note_off_c, 0, 31, 37
1, 153643, Note_off_c, 0, 43, 40
1, 154161, Note_on_c, 0, 36, 25
1, 154222, Note_off_c, 0, 40, 41
1, 154315, Note_on_c, 0, 67, 35
1, 154457, Note_off_c, 0, 67, 40
1, 154469, Note_on_c, 0, 69, 46
1, 154595, Note_off_c, 0, 69, 50
1, 154618, Note_on_c, 0, 71, 48
1, 154631, Note_off_c, 0, 36, 42
1, 154676, Control_c, 0, 64, 62
1, 154757, Note_on_c, 0, 72, 56
1, 154764, Note_off_c, 0, 71, 50
1, 154861, Note_off_c, 0, 72, 58
1, 154904, Note_on_c, 0, 67, 54
1, 155053, Note_off_c, 0, 67, 54
1, 155062, Note_on_c, 0, 72, 56
1, 155186, Note_off_c, 0, 72, 60
1, 155202, Note_on_c, 0, 74, 50
1, 155262, Control_c, 0, 64, 62
1, 155370, Note_off_c, 0, 74, 43
1, 155371, Note_on_c, 0, 60, 59
1, 155373, Note_on_c, 0, 76, 49
1, 155527, Note_off_c, 0, 76, 37
1, 155528, Note_on_c, 0, 74, 43
1, 155671, Note_off_c, 0, 74, 52
1, 155680, Note_on_c, 0, 72, 53
1, 155832, Note_off_c, 0, 72, 60
1, 155836, Note_on_c, 0, 71, 55
1, 155978, Note_on_c, 0, 72, 54
1, 155984, Note_off_c, 0, 71, 55
1, 156115, Note_off_c, 0, 72, 57
1, 156126, Note_on_c, 0, 67, 43
1, 156232, Control_c, 0, 64, 61
1, 156270, Note_on_c, 0, 76, 51
1, 156273, Note_off_c, 0, 67, 38
1, 156391, Note_on_c, 0, 64, 45
1, 156393, Note_on_c, 0, 72, 59
1, 156399, Note_off_c, 0, 76, 54
1, 156418, Note_off_c, 0, 60, 54
1, 156543, Note_off_c, 0, 64, 62
1, 156550, Note_off_c, 0, 72, 54
1, 156552, Note_on_c, 0, 62, 61
1, 156568, Note_on_c, 0, 71, 48
1, 156710, Note_off_c, 0, 71, 54
1, 156731, Note_on_c, 0, 69, 54
1, 156856, Note_off_c, 0, 69, 43
1, 156873, Note_on_c, 0, 71, 48
1, 157013, Note_on_c, 0, 72, 50
1, 157036, Note_off_c, 0, 71, 36
1, 157153, Note_off_c, 0, 72, 52
1, 157173, Note_on_c, 0, 74, 48
1, 157188, Note_on_c, 0, 55, 30
1, 157212, Note_off_c, 0, 62, 48
1, 157339, Note_on_c, 0, 72, 47
1, 157372, Note_off_c, 0, 74, 35
1, 157472, Note_off_c, 0, 72, 62
1, 157488, Note_on_c, 0, 71, 51
1, 157602, Note_off_c, 0, 71, 61
1, 157627, Note_on_c, 0, 69, 55
1, 157716, Control_c, 0, 64, 62
1, 157752, Note_off_c, 0, 69, 61
1, 157771, Note_on_c, 0, 67, 57
1, 157834, Control_c, 0, 64, 62
1, 157893, Control_c, 0, 64, 63
1, 157904, Note_off_c, 0, 55, 37
1, 157908, Note_on_c, 0, 69, 60
1, 157908, Note_off_c, 0, 67, 60
1, 158045, Note_off_c, 0, 69, 63
1, 158050, Note_on_c, 0, 71, 66
1, 158161, Note_off_c, 0, 71, 61
1, 158186, Note_on_c, 0, 62, 62
1, 158192, Note_on_c, 0, 67, 55
1, 158301, Control_c, 0, 64, 62
1, 158316, Control_c, 0, 64, 62
1, 158331, Control_c, 0, 64, 60
1, 158346, Control_c, 0, 64, 52
1, 158348, Note_on_c, 0, 64, 62
1, 158353, Note_off_c, 0, 67, 41
1, 158357, Note_on_c, 0, 73, 58
1, 158360, Control_c, 0, 64, 0
1, 158381, Note_off_c, 0, 62, 54
1, 158464, Control_c, 0, 64, 47
1, 158479, Control_c, 0, 64, 63
1, 158494, Control_c, 0, 64, 65
1, 158495, Note_off_c, 0, 73, 35
1, 158505, Note_on_c, 0, 70, 60
1, 158509, Control_c, 0, 64, 67
1, 158524, Control_c, 0, 64, 70
1, 158539, Control_c, 0, 64, 74
1, 158553, Control_c, 0, 64, 78
1, 158568, Control_c, 0, 64, 83
1, 158583, Control_c, 0, 64, 87
1, 158585, Note_off_c, 0, 64, 57
1, 158598, Control_c, 0, 64, 91
1, 158612, Control_c, 0, 64, 95
1, 158625, Note_off_c, 0, 70, 64
1, 158627, Control_c, 0, 64, 99
1, 158634, Note_on_c, 0, 73, 63
1, 158642, Control_c, 0, 64, 101
1, 158657, Control_c, 0, 64, 103
1, 158672, Control_c, 0, 64, 104
1, 158686, Control_c, 0, 64, 105
1, 158757, Note_off_c, 0, 73, 62
1, 158788, Note_on_c, 0, 76, 64
1, 158798, Control_c, 0, 64, 104
1, 158813, Control_c, 0, 64, 104
1, 158828, Control_c, 0, 64, 103
1, 158843, Control_c, 0, 64, 102
1, 158858, Control_c, 0, 64, 101
1, 158873, Control_c, 0, 64, 99
1, 158888, Control_c, 0, 64, 96
1, 158902, Control_c, 0, 64, 93
1, 158917, Control_c, 0, 64, 91
1, 158932, Control_c, 0, 64, 88
1, 158947, Note_on_c, 0, 79, 61
1, 158947, Control_c, 0, 64, 85
1, 158947, Note_on_c, 0, 64, 67
1, 158954, Note_off_c, 0, 76, 48
1, 158962, Control_c, 0, 64, 82
1, 158977, Control_c, 0, 64, 79
1, 158991, Control_c, 0, 64, 76
1, 159006, Control_c, 0, 64, 73
1, 159021, Control_c, 0, 64, 70
1, 159035, Control_c, 0, 64, 67
1, 159050, Control_c, 0, 64, 65
1, 159065, Control_c, 0, 64, 64
1, 159080, Control_c, 0, 64, 62
1, 159083, Note_off_c, 0, 79, 56
1, 159090, Note_on_c, 0, 76, 57
1, 159095, Control_c, 0, 64, 60
1, 159109, Control_c, 0, 64, 58
1, 159124, Control_c, 0, 64, 56
1, 159139, Control_c, 0, 64, 54
1, 159154, Control_c, 0, 64, 51
1, 159169, Control_c, 0, 64, 50
1, 159183, Control_c, 0, 64, 50
1, 159198, Control_c, 0, 64, 49
1, 159236, Note_on_c, 0, 82, 65
1, 159242, Control_c, 0, 64, 50
1, 159255, Note_off_c, 0, 76, 59
1, 159257, Control_c, 0, 64, 52
1, 159272, Control_c, 0, 64, 55
1, 159287, Control_c, 0, 64, 58
1, 159302, Control_c, 0, 64, 60
1, 159317, Control_c, 0, 64, 62
1, 159332, Control_c, 0, 64, 64
1, 159347, Control_c, 0, 64, 65
1, 159362, Control_c, 0, 64, 66
1, 159362, Note_off_c, 0, 82, 59
1, 159365, Note_on_c, 0, 79, 67
1, 159376, Control_c, 0, 64, 68
1, 159391, Control_c, 0, 64, 70
1, 159406, Control_c, 0, 64, 72
1, 159421, Control_c, 0, 64, 75
1, 159435, Control_c, 0, 64, 77
1, 159450, Control_c, 0, 64, 80
1, 159465, Control_c, 0, 64, 82
1, 159480, Control_c, 0, 64, 84
1, 159495, Control_c, 0, 64, 85
1, 159499, Note_off_c, 0, 79, 56
1, 159517, Control_c, 0, 64, 86
1, 159535, Note_on_c, 0, 82, 59
1, 159547, Control_c, 0, 64, 86
1, 159651, Control_c, 0, 64, 86
1, 159666, Control_c, 0, 64, 85
1, 159680, Control_c, 0, 64, 84
1, 159686, Note_on_c, 0, 79, 49
1, 159695, Control_c, 0, 64, 84
1, 159710, Control_c, 0, 64, 83
1, 159725, Control_c, 0, 64, 82
1, 159733, Note_off_c, 0, 82, 37
1, 159740, Control_c, 0, 64, 81
1, 159755, Control_c, 0, 64, 80
1, 159770, Control_c, 0, 64, 79
1, 159785, Control_c, 0, 64, 78
1, 159800, Control_c, 0, 64, 77
1, 159814, Control_c, 0, 64, 75
1, 159815, Note_off_c, 0, 79, 54
1, 159819, Note_on_c, 0, 76, 59
1, 159829, Control_c, 0, 64, 74
1, 159844, Control_c, 0, 64, 74
1, 159858, Control_c, 0, 64, 73
1, 159873, Control_c, 0, 64, 72
1, 159888, Control_c, 0, 64, 72
1, 159903, Control_c, 0, 64, 71
1, 159916, Control_c, 0, 64, 71
1, 159931, Control_c, 0, 64, 70
1, 159934, Note_off_c, 0, 76, 60
1, 159946, Control_c, 0, 64, 70
1, 159950, Note_on_c, 0, 73, 61
1, 159951, Note_on_c, 0, 67, 56
1, 159959, Note_off_c, 0, 64, 55
1, 159961, Control_c, 0, 64, 69
1, 159976, Control_c, 0, 64, 68
1, 159990, Control_c, 0, 64, 68
1, 160005, Control_c, 0, 64, 67
1, 160020, Control_c, 0, 64, 66
1, 160035, Control_c, 0, 64, 64
1, 160049, Control_c, 0, 64, 59
1, 160064, Control_c, 0, 64, 35
1, 160079, Control_c, 0, 64, 0
1, 160098, Note_on_c, 0, 64, 58
1, 160105, Note_on_c, 0, 82, 59
1, 160117, Note_off_c, 0, 67, 54
1, 160139, Note_off_c, 0, 73, 42
1, 160197, Control_c, 0, 64, 35
1, 160212, Control_c, 0, 64, 47
1, 160227, Control_c, 0, 64, 52
1, 160242, Control_c, 0, 64, 57
1, 160259, Note_on_c, 0, 79, 56
1, 160259, Note_off_c, 0, 82, 53
1, 160264, Control_c, 0, 64, 60
1, 160279, Control_c, 0, 64, 61
1, 160294, Control_c, 0, 64, 62
1, 160309, Control_c, 0, 64, 63
1, 160339, Control_c, 0, 64, 63
1, 160379, Note_off_c, 0, 79, 57
1, 160399, Note_on_c, 0, 76, 55
1, 160502, Control_c, 0, 64, 63
1, 160510, Note_off_c, 0, 76, 64
1, 160539, Note_on_c, 0, 73, 49
1, 160591, Control_c, 0, 64, 62
1, 160631, Note_off_c, 0, 73, 58
1, 160650, Control_c, 0, 64, 62
1, 160680, Note_on_c, 0, 81, 64
1, 160680, Control_c, 0, 64, 61
1, 160695, Control_c, 0, 64, 61
1, 160710, Control_c, 0, 64, 58
1, 160718, Note_on_c, 0, 65, 46
1, 160725, Control_c, 0, 64, 51
1, 160733, Note_off_c, 0, 64, 56
1, 160740, Control_c, 0, 64, 10
1, 160754, Control_c, 0, 64, 0
1, 160817, Note_off_c, 0, 81, 51
1, 160831, Note_on_c, 0, 77, 57
1, 160903, Control_c, 0, 64, 62
1, 160918, Control_c, 0, 64, 65
1, 160932, Control_c, 0, 64, 66
1, 160947, Control_c, 0, 64, 67
1, 160962, Control_c, 0, 64, 69
1, 160974, Note_off_c, 0, 77, 55
1, 160977, Control_c, 0, 64, 72
1, 160978, Note_on_c, 0, 74, 56
1, 160992, Control_c, 0, 64, 74
1, 161013, Control_c, 0, 64, 77
1, 161028, Control_c, 0, 64, 78
1, 161043, Control_c, 0, 64, 78
1, 161058, Control_c, 0, 64, 79
1, 161073, Control_c, 0, 64, 79
1, 161084, Note_off_c, 0, 74, 61
1, 161116, Note_on_c, 0, 69, 61
1, 161117, Control_c, 0, 64, 80
1, 161184, Note_off_c, 0, 69, 54
1, 161222, Control_c, 0, 64, 79
1, 161266, Note_on_c, 0, 81, 74
1, 161296, Control_c, 0, 64, 79
1, 161299, Note_off_c, 0, 65, 56
1, 161311, Control_c, 0, 64, 78
1, 161356, Control_c, 0, 64, 78
1, 161385, Control_c, 0, 64, 77
1, 161397, Note_off_c, 0, 81, 55
1, 161400, Control_c, 0, 64, 77
1, 161411, Note_on_c, 0, 74, 63
1, 161429, Control_c, 0, 64, 76
1, 161444, Control_c, 0, 64, 76
1, 161474, Control_c, 0, 64, 75
1, 161489, Control_c, 0, 64, 75
1, 161518, Control_c, 0, 64, 74
1, 161533, Control_c, 0, 64, 74
1, 161540, Note_on_c, 0, 83, 74
1, 161563, Control_c, 0, 64, 73
1, 161567, Note_off_c, 0, 74, 37
1, 161577, Control_c, 0, 64, 73
1, 161592, Control_c, 0, 64, 72
1, 161607, Control_c, 0, 64, 72
1, 161621, Control_c, 0, 64, 71
1, 161636, Control_c, 0, 64, 71
1, 161666, Control_c, 0, 64, 70
1, 161670, Note_on_c, 0, 65, 70
1, 161676, Note_on_c, 0, 74, 63
1, 161696, Control_c, 0, 64, 70
1, 161705, Note_off_c, 0, 83, 53
1, 161725, Control_c, 0, 64, 69
1, 161740, Control_c, 0, 64, 68
1, 161763, Control_c, 0, 64, 66
1, 161778, Control_c, 0, 64, 59
1, 161792, Control_c, 0, 64, 0
1, 161830, Note_on_c, 0, 66, 73
1, 161840, Note_off_c, 0, 65, 62
1, 161850, Note_on_c, 0, 84, 66
1, 161889, Note_off_c, 0, 74, 40
1, 161896, Control_c, 0, 64, 50
1, 161910, Control_c, 0, 64, 62
1, 161926, Control_c, 0, 64, 64
1, 161941, Control_c, 0, 64, 65
1, 161956, Control_c, 0, 64, 67
1, 161971, Control_c, 0, 64, 69
1, 161983, Note_off_c, 0, 84, 59
1, 161986, Control_c, 0, 64, 72
1, 162000, Control_c, 0, 64, 74
1, 162006, Note_on_c, 0, 81, 60
1, 162015, Control_c, 0, 64, 76
1, 162030, Control_c, 0, 64, 78
1, 162045, Control_c, 0, 64, 78
1, 162074, Control_c, 0, 64, 79
1, 162083, Note_off_c, 0, 66, 60
1, 162102, Note_off_c, 0, 81, 52
1, 162104, Control_c, 0, 64, 79
1, 162150, Note_on_c, 0, 78, 58
1, 162281, Note_off_c, 0, 78, 39
1, 162289, Note_on_c, 0, 75, 52
1, 162341, Control_c, 0, 64, 79
1, 162386, Control_c, 0, 64, 78
1, 162400, Control_c, 0, 64, 78
1, 162415, Control_c, 0, 64, 77
1, 162430, Control_c, 0, 64, 75
1, 162431, Note_on_c, 0, 66, 67
1, 162433, Note_on_c, 0, 83, 60
1, 162444, Control_c, 0, 64, 72
1, 162459, Control_c, 0, 64, 69
1, 162474, Control_c, 0, 64, 65
1, 162489, Control_c, 0, 64, 54
1, 162511, Note_off_c, 0, 75, 31
1, 162512, Control_c, 0, 64, 0
1, 162590, Note_off_c, 0, 83, 55
1, 162591, Note_on_c, 0, 81, 54
1, 162600, Control_c, 0, 64, 48
1, 162615, Control_c, 0, 64, 57
1, 162630, Control_c, 0, 64, 61
1, 162645, Control_c, 0, 64, 62
1, 162659, Control_c, 0, 64, 64
1, 162674, Control_c, 0, 64, 65
1, 162689, Control_c, 0, 64, 66
1, 162704, Control_c, 0, 64, 68
1, 162719, Control_c, 0, 64, 69
1, 162735, Control_c, 0, 64, 71
1, 162747, Note_on_c, 0, 78, 54
1, 162749, Control_c, 0, 64, 72
1, 162764, Control_c, 0, 64, 73
1, 162779, Control_c, 0, 64, 74
1, 162794, Control_c, 0, 64, 74
1, 162807, Note_off_c, 0, 81, 29
1, 162809, Control_c, 0, 64, 75
1, 162823, Control_c, 0, 64, 76
1, 162838, Control_c, 0, 64, 77
1, 162853, Control_c, 0, 64, 77
1, 162858, Note_off_c, 0, 78, 55
1, 162868, Control_c, 0, 64, 78
1, 162883, Note_on_c, 0, 75, 48
1, 162897, Control_c, 0, 64, 79
1, 162912, Control_c, 0, 64, 79
1, 162927, Control_c, 0, 64, 80
1, 162949, Note_off_c, 0, 66, 53
1, 162956, Control_c, 0, 64, 80
1, 162971, Control_c, 0, 64, 81
1, 163028, Note_on_c, 0, 83, 60
1, 163107, Note_off_c, 0, 75, 31
1, 163153, Note_on_c, 0, 81, 59
1, 163213, Note_off_c, 0, 83, 33
1, 163261, Control_c, 0, 64, 80
1, 163296, Note_on_c, 0, 78, 62
1, 163364, Control_c, 0, 64, 80
1, 163413, Note_off_c, 0, 78, 53
1, 163424, Note_on_c, 0, 75, 56
1, 163427, Note_on_c, 0, 66, 70
1, 163453, Control_c, 0, 64, 79
1, 163468, Control_c, 0, 64, 79
1, 163480, Note_off_c, 0, 81, 17
1, 163482, Control_c, 0, 64, 78
1, 163497, Control_c, 0, 64, 78
1, 163512, Control_c, 0, 64, 77
1, 163528, Control_c, 0, 64, 75
1, 163543, Control_c, 0, 64, 73
1, 163558, Control_c, 0, 64, 70
1, 163571, Note_on_c, 0, 67, 75
1, 163571, Note_off_c, 0, 75, 51
1, 163572, Note_on_c, 0, 83, 52
1, 163572, Control_c, 0, 64, 66
1, 163587, Control_c, 0, 64, 54
1, 163591, Note_off_c, 0, 66, 65
1, 163602, Control_c, 0, 64, 0
1, 163690, Control_c, 0, 64, 43
1, 163705, Control_c, 0, 64, 55
1, 163720, Control_c, 0, 64, 59
1, 163734, Control_c, 0, 64, 61
1, 163742, Note_on_c, 0, 76, 44
1, 163749, Control_c, 0, 64, 63
1, 163764, Control_c, 0, 64, 63
1, 163779, Control_c, 0, 64, 64
1, 163794, Control_c, 0, 64, 64
1, 163809, Control_c, 0, 64, 65
1, 163843, Note_off_c, 0, 83, 36
1, 163853, Control_c, 0, 64, 65
1, 163857, Note_off_c, 0, 76, 36
1, 163860, Note_on_c, 0, 82, 60
1, 163957, Control_c, 0, 64, 65
1, 163971, Note_off_c, 0, 82, 60
1, 164029, Note_on_c, 0, 74, 42
1, 164053, Control_c, 0, 64, 64
1, 164112, Control_c, 0, 64, 64
1, 164186, Control_c, 0, 64, 63
1, 164197, Note_off_c, 0, 74, 63
1, 164208, Note_on_c, 0, 69, 63
1, 164224, Note_off_c, 0, 67, 53
1, 164230, Control_c, 0, 64, 63
1, 164251, Note_on_c, 0, 73, 22
1, 164260, Control_c, 0, 64, 62
1, 164290, Control_c, 0, 64, 62
1, 164350, Control_c, 0, 64, 61
1, 164372, Note_off_c, 0, 73, 58
1, 164380, Control_c, 0, 64, 61
1, 164401, Note_on_c, 0, 76, 52
1, 164410, Control_c, 0, 64, 60
1, 164425, Control_c, 0, 64, 60
1, 164440, Control_c, 0, 64, 59
1, 164454, Control_c, 0, 64, 58
1, 164484, Control_c, 0, 64, 58
1, 164515, Note_off_c, 0, 76, 57
1, 164539, Note_on_c, 0, 77, 57
1, 164647, Note_off_c, 0, 77, 53
1, 164676, Control_c, 0, 64, 58
1, 164679, Note_on_c, 0, 79, 52
1, 164758, Control_c, 0, 64, 59
1, 164801, Note_off_c, 0, 79, 57
1, 164822, Note_on_c, 0, 81, 53
1, 164861, Control_c, 0, 64, 59
1, 164952, Note_off_c, 0, 81, 47
1, 164962, Note_on_c, 0, 73, 47
1, 164966, Control_c, 0, 64, 60
1, 165069, Control_c, 0, 64, 60
1, 165079, Note_off_c, 0, 73, 64
1, 165099, Control_c, 0, 64, 61
1, 165100, Note_on_c, 0, 74, 50
1, 165130, Control_c, 0, 64, 61
1, 165159, Control_c, 0, 64, 62
1, 165189, Control_c, 0, 64, 62
1, 165204, Control_c, 0, 64, 63
1, 165218, Control_c, 0, 64, 63
1, 165228, Note_off_c, 0, 74, 55
1, 165233, Control_c, 0, 64, 64
1, 165246, Note_on_c, 0, 76, 48
1, 165248, Control_c, 0, 64, 64
1, 165263, Control_c, 0, 64, 65
1, 165277, Control_c, 0, 64, 66
1, 165292, Control_c, 0, 64, 67
1, 165307, Control_c, 0, 64, 68
1, 165322, Control_c, 0, 64, 69
1, 165337, Control_c, 0, 64, 69
1, 165351, Control_c, 0, 64, 70
1, 165381, Control_c, 0, 64, 71
1, 165388, Note_off_c, 0, 76, 60
1, 165392, Note_on_c, 0, 77, 60
1, 165403, Note_off_c, 0, 69, 39
1, 165512, Note_off_c, 0, 77, 50
1, 165532, Note_on_c, 0, 79, 58
1, 165671, Note_on_c, 0, 81, 60
1, 165684, Control_c, 0, 64, 70
1, 165699, Note_off_c, 0, 79, 31
1, 165729, Control_c, 0, 64, 70
1, 165744, Control_c, 0, 64, 69
1, 165773, Control_c, 0, 64, 69
1, 165788, Control_c, 0, 64, 68
1, 165794, Note_off_c, 0, 81, 55
1, 165799, Note_on_c, 0, 69, 46
1, 165803, Control_c, 0, 64, 68
1, 165815, Note_on_c, 0, 77, 57
1, 165818, Control_c, 0, 64, 67
1, 165833, Control_c, 0, 64, 66
1, 165848, Control_c, 0, 64, 65
1, 165863, Control_c, 0, 64, 65
1, 165877, Control_c, 0, 64, 64
1, 165892, Control_c, 0, 64, 63
1, 165907, Control_c, 0, 64, 62
1, 165922, Control_c, 0, 64, 61
1, 165937, Control_c, 0, 64, 60
1, 165949, Note_off_c, 0, 77, 58
1, 165952, Control_c, 0, 64, 59
1, 165964, Note_off_c, 0, 69, 60
1, 165967, Note_on_c, 0, 76, 53
1, 165970, Note_on_c, 0, 65, 47
1, 166086, Control_c, 0, 64, 60
1, 166095, Note_off_c, 0, 76, 63
1, 166130, Control_c, 0, 64, 60
1, 166131, Note_on_c, 0, 74, 44
1, 166160, Control_c, 0, 64, 61
1, 166204, Control_c, 0, 64, 61
1, 166223, Note_off_c, 0, 74, 62
1, 166256, Control_c, 0, 64, 62
1, 166270, Note_on_c, 0, 77, 54
1, 166345, Control_c, 0, 64, 62
1, 166415, Note_on_c, 0, 69, 53
1, 166478, Control_c, 0, 64, 63
1, 166523, Note_off_c, 0, 77, 31
1, 166545, Note_off_c, 0, 69, 57
1, 166549, Note_on_c, 0, 72, 55
1, 166587, Note_on_c, 0, 67, 51
1, 166590, Note_off_c, 0, 65, 57
1, 166700, Note_off_c, 0, 72, 56
1, 166700, Control_c, 0, 64, 63
1, 166707, Note_on_c, 0, 71, 54
1, 166839, Note_off_c, 0, 71, 53
1, 166850, Note_on_c, 0, 74, 49
1, 166987, Note_on_c, 0, 71, 47
1, 167069, Note_off_c, 0, 74, 36
1, 167142, Note_off_c, 0, 71, 50
1, 167151, Note_off_c, 0, 67, 37
1, 167151, Note_on_c, 0, 72, 55
1, 167174, Note_on_c, 0, 60, 38
1, 167269, Note_off_c, 0, 72, 62
1, 167286, Note_on_c, 0, 67, 52
1, 167419, Note_off_c, 0, 67, 54
1, 167438, Note_on_c, 0, 69, 56
1, 167565, Note_off_c, 0, 69, 60
1, 167574, Note_on_c, 0, 67, 55
1, 167700, Note_off_c, 0, 67, 52
1, 167722, Note_on_c, 0, 69, 56
1, 167820, Note_off_c, 0, 60, 52
1, 167827, Control_c, 0, 64, 63
1, 167851, Note_off_c, 0, 69, 62
1, 167860, Note_on_c, 0, 67, 58
1, 167902, Control_c, 0, 64, 62
1, 167932, Control_c, 0, 64, 62
1, 167946, Control_c, 0, 64, 61
1, 167961, Control_c, 0, 64, 61
1, 167984, Note_off_c, 0, 67, 56
1, 167990, Control_c, 0, 64, 60
1, 167992, Note_on_c, 0, 69, 59
1, 168020, Control_c, 0, 64, 60
1, 168064, Control_c, 0, 64, 59
1, 168125, Note_off_c, 0, 69, 63
1, 168134, Note_on_c, 0, 71, 62
1, 168242, Note_off_c, 0, 71, 36
1, 168260, Note_on_c, 0, 72, 60
1, 168307, Note_off_c, 0, 72, 61
1, 168317, Control_c, 0, 64, 60
1, 168391, Note_on_c, 0, 67, 58
1, 168391, Note_on_c, 0, 71, 60
1, 168429, Note_off_c, 0, 67, 61
1, 168439, Note_off_c, 0, 71, 58
1, 168528, Note_on_c, 0, 72, 66
1, 168539, Note_on_c, 0, 69, 52
1, 168561, Note_off_c, 0, 69, 61
1, 168586, Note_off_c, 0, 72, 62
1, 168662, Note_on_c, 0, 74, 64
1, 168675, Note_on_c, 0, 71, 45
1, 168704, Note_off_c, 0, 71, 54
1, 168725, Note_off_c, 0, 74, 62
1, 168800, Note_on_c, 0, 76, 66
1, 168810, Note_on_c, 0, 72, 58
1, 168842, Note_off_c, 0, 72, 65
1, 168859, Note_off_c, 0, 76, 64
1, 168902, Control_c, 0, 64, 60
1, 168934, Note_on_c, 0, 74, 60
1, 168936, Note_on_c, 0, 71, 57
1, 168970, Note_off_c, 0, 71, 59
1, 168992, Note_off_c, 0, 74, 64
1, 169006, Control_c, 0, 64, 61
1, 169058, Note_on_c, 0, 76, 65
1, 169069, Note_on_c, 0, 72, 46
1, 169080, Control_c, 0, 64, 61
1, 169090, Note_off_c, 0, 72, 58
1, 169115, Note_off_c, 0, 76, 64
1, 169185, Control_c, 0, 64, 62
1, 169194, Note_on_c, 0, 77, 60
1, 169203, Note_on_c, 0, 74, 43
1, 169246, Note_off_c, 0, 74, 54
1, 169265, Note_off_c, 0, 77, 55
1, 169296, Control_c, 0, 64, 62
1, 169352, Note_on_c, 0, 79, 60
1, 169358, Note_on_c, 0, 48, 74
1, 169368, Note_on_c, 0, 52, 66
1, 169373, Note_on_c, 0, 76, 49
1, 169385, Control_c, 0, 64, 62
1, 169399, Control_c, 0, 64, 60
1, 169404, Note_off_c, 0, 76, 56
1, 169414, Control_c, 0, 64, 55
1, 169429, Control_c, 0, 64, 0
1, 169434, Note_off_c, 0, 79, 54
1, 169507, Note_on_c, 0, 77, 52
1, 169517, Note_on_c, 0, 74, 41
1, 169538, Note_off_c, 0, 77, 55
1, 169543, Note_off_c, 0, 74, 59
1, 169651, Control_c, 0, 64, 23
1, 169654, Note_on_c, 0, 76, 55
1, 169657, Note_on_c, 0, 72, 58
1, 169666, Control_c, 0, 64, 28
1, 169681, Control_c, 0, 64, 32
1, 169696, Control_c, 0, 64, 36
1, 169705, Note_off_c, 0, 72, 55
1, 169710, Control_c, 0, 64, 42
1, 169722, Note_off_c, 0, 76, 60
1, 169725, Control_c, 0, 64, 46
1, 169740, Control_c, 0, 64, 47
1, 169755, Control_c, 0, 64, 49
1, 169769, Control_c, 0, 64, 50
1, 169784, Control_c, 0, 64, 52
1, 169792, Note_on_c, 0, 74, 61
1, 169799, Control_c, 0, 64, 53
1, 169811, Note_on_c, 0, 71, 29
1, 169814, Control_c, 0, 64, 55
1, 169829, Control_c, 0, 64, 56
1, 169842, Note_off_c, 0, 71, 42
1, 169843, Control_c, 0, 64, 56
1, 169847, Note_off_c, 0, 74, 59
1, 169858, Control_c, 0, 64, 57
1, 169903, Control_c, 0, 64, 58
1, 169919, Control_c, 0, 64, 58
1, 169926, Note_on_c, 0, 76, 66
1, 169931, Note_on_c, 0, 72, 58
1, 169933, Control_c, 0, 64, 59
1, 169948, Control_c, 0, 64, 59
1, 169963, Control_c, 0, 64, 60
1, 169965, Note_off_c, 0, 72, 64
1, 169978, Control_c, 0, 64, 60
1, 169998, Note_off_c, 0, 76, 63
1, 170000, Control_c, 0, 64, 61
1, 170015, Control_c, 0, 64, 62
1, 170030, Control_c, 0, 64, 63
1, 170045, Control_c, 0, 64, 64
1, 170060, Control_c, 0, 64, 65
1, 170065, Note_on_c, 0, 74, 65
1, 170069, Note_on_c, 0, 71, 54
1, 170074, Control_c, 0, 64, 66
1, 170089, Control_c, 0, 64, 67
1, 170104, Control_c, 0, 64, 69
1, 170109, Note_off_c, 0, 71, 60
1, 170119, Control_c, 0, 64, 70
1, 170128, Note_off_c, 0, 74, 63
1, 170134, Control_c, 0, 64, 72
1, 170148, Control_c, 0, 64, 72
1, 170163, Control_c, 0, 64, 73
1, 170180, Note_off_c, 0, 52, 35
1, 170195, Note_on_c, 0, 76, 67
1, 170197, Note_on_c, 0, 72, 60
1, 170207, Control_c, 0, 64, 73
1, 170220, Note_off_c, 0, 72, 66
1, 170247, Note_off_c, 0, 76, 65
1, 170326, Note_on_c, 0, 52, 68
1, 170326, Control_c, 0, 64, 73
1, 170327, Note_on_c, 0, 55, 69
1, 170332, Note_on_c, 0, 76, 63
1, 170338, Note_off_c, 0, 48, 60
1, 170355, Control_c, 0, 64, 72
1, 170358, Note_off_c, 0, 55, 66
1, 170370, Control_c, 0, 64, 71
1, 170375, Note_on_c, 0, 73, 15
1, 170385, Control_c, 0, 64, 70
1, 170400, Control_c, 0, 64, 68
1, 170403, Note_off_c, 0, 52, 65
1, 170407, Note_off_c, 0, 76, 61
1, 170415, Control_c, 0, 64, 65
1, 170417, Note_off_c, 0, 73, 28
1, 170430, Control_c, 0, 64, 61
1, 170445, Control_c, 0, 64, 13
1, 170459, Control_c, 0, 64, 0
1, 170465, Note_on_c, 0, 50, 76
1, 170466, Note_on_c, 0, 53, 77
1, 170475, Note_on_c, 0, 74, 60
1, 170483, Note_on_c, 0, 77, 61
1, 170524, Note_off_c, 0, 74, 60
1, 170563, Control_c, 0, 64, 23
1, 170578, Control_c, 0, 64, 54
1, 170592, Control_c, 0, 64, 59
1, 170594, Note_off_c, 0, 77, 36
1, 170607, Control_c, 0, 64, 62
1, 170610, Note_on_c, 0, 73, 57
1, 170622, Control_c, 0, 64, 64
1, 170623, Note_on_c, 0, 76, 66
1, 170637, Control_c, 0, 64, 65
1, 170652, Control_c, 0, 64, 66
1, 170655, Note_off_c, 0, 73, 59
1, 170666, Control_c, 0, 64, 67
1, 170673, Note_off_c, 0, 76, 60
1, 170681, Control_c, 0, 64, 68
1, 170696, Control_c, 0, 64, 68
1, 170712, Control_c, 0, 64, 69
1, 170747, Note_on_c, 0, 77, 72
1, 170763, Control_c, 0, 64, 69
1, 170767, Note_on_c, 0, 74, 47
1, 170775, Note_off_c, 0, 50, 62
1, 170790, Note_off_c, 0, 74, 58
1, 170803, Note_off_c, 0, 77, 61
1, 170868, Control_c, 0, 64, 69
1, 170886, Note_on_c, 0, 79, 66
1, 170889, Note_on_c, 0, 76, 54
1, 170897, Control_c, 0, 64, 68
1, 170912, Control_c, 0, 64, 68
1, 170927, Control_c, 0, 64, 67
1, 170927, Note_off_c, 0, 76, 62
1, 170934, Note_off_c, 0, 79, 58
1, 170942, Control_c, 0, 64, 66
1, 170957, Control_c, 0, 64, 64
1, 170971, Control_c, 0, 64, 61
1, 170981, Note_off_c, 0, 53, 54
1, 170986, Control_c, 0, 64, 53
1, 171001, Control_c, 0, 64, 0
1, 171021, Note_on_c, 0, 81, 73
1, 171023, Note_on_c, 0, 50, 72
1, 171032, Note_on_c, 0, 43, 69
1, 171038, Note_on_c, 0, 77, 56
1, 171065, Note_off_c, 0, 77, 58
1, 171098, Note_off_c, 0, 81, 56
1, 171156, Note_on_c, 0, 79, 66
1, 171172, Note_on_c, 0, 76, 50
1, 171206, Note_off_c, 0, 76, 59
1, 171206, Note_off_c, 0, 79, 62
1, 171282, Control_c, 0, 64, 10
1, 171297, Control_c, 0, 64, 25
1, 171310, Note_on_c, 0, 77, 50
1, 171312, Control_c, 0, 64, 34
1, 171318, Note_on_c, 0, 76, 50
1, 171327, Control_c, 0, 64, 42
1, 171334, Note_on_c, 0, 74, 12
1, 171342, Control_c, 0, 64, 47
1, 171349, Note_off_c, 0, 76, 58
1, 171357, Control_c, 0, 64, 51
1, 171360, Note_off_c, 0, 77, 54
1, 171372, Control_c, 0, 64, 54
1, 171374, Note_off_c, 0, 74, 37
1, 171386, Control_c, 0, 64, 57
1, 171401, Control_c, 0, 64, 59
1, 171416, Control_c, 0, 64, 61
1, 171431, Control_c, 0, 64, 62
1, 171436, Note_on_c, 0, 76, 62
1, 171446, Control_c, 0, 64, 63
1, 171457, Note_on_c, 0, 72, 34
1, 171470, Note_off_c, 0, 76, 62
1, 171476, Control_c, 0, 64, 63
1, 171496, Note_off_c, 0, 72, 56
1, 171580, Note_on_c, 0, 74, 66
1, 171586, Note_on_c, 0, 71, 58
1, 171587, Control_c, 0, 64, 64
1, 171616, Note_off_c, 0, 71, 61
1, 171632, Control_c, 0, 64, 64
1, 171646, Note_off_c, 0, 74, 63
1, 171654, Note_off_c, 0, 43, 53
1, 171661, Control_c, 0, 64, 65
1, 171694, Note_off_c, 0, 50, 62
1, 171706, Control_c, 0, 64, 65
1, 171713, Note_on_c, 0, 76, 67
1, 171717, Note_on_c, 0, 72, 59
1, 171750, Note_off_c, 0, 72, 63
1, 171750, Control_c, 0, 64, 66
1, 171760, Note_off_c, 0, 76, 63
1, 171810, Control_c, 0, 64, 66
1, 171827, Note_on_c, 0, 77, 77
1, 171839, Control_c, 0, 64, 67
1, 171849, Note_on_c, 0, 74, 44
1, 171871, Note_off_c, 0, 74, 59
1, 171884, Control_c, 0, 64, 67
1, 171886, Note_off_c, 0, 77, 61
1, 171912, Control_c, 0, 64, 68
1, 171958, Note_on_c, 0, 79, 72
1, 171961, Note_on_c, 0, 53, 69
1, 171964, Note_on_c, 0, 71, 56
1, 171970, Note_on_c, 0, 50, 65
1, 171995, Note_off_c, 0, 71, 57
1, 172001, Control_c, 0, 64, 67
1, 172015, Note_off_c, 0, 53, 63
1, 172016, Control_c, 0, 64, 65
1, 172021, Note_off_c, 0, 50, 62
1, 172023, Note_off_c, 0, 79, 61
1, 172031, Control_c, 0, 64, 60
1, 172045, Control_c, 0, 64, 0
1, 172093, Note_on_c, 0, 79, 63
1, 172096, Note_on_c, 0, 55, 76
1, 172099, Note_on_c, 0, 52, 79
1, 172103, Note_on_c, 0, 70, 53
1, 172120, Control_c, 0, 64, 38
1, 172125, Note_off_c, 0, 70, 63
1, 172135, Control_c, 0, 64, 62
1, 172150, Control_c, 0, 64, 65
1, 172155, Note_off_c, 0, 79, 60
1, 172164, Control_c, 0, 64, 66
1, 172179, Control_c, 0, 64, 67
1, 172194, Control_c, 0, 64, 67
1, 172209, Control_c, 0, 64, 68
1, 172245, Control_c, 0, 64, 68
1, 172248, Note_on_c, 0, 79, 61
1, 172251, Note_on_c, 0, 76, 53
1, 172275, Control_c, 0, 64, 69
1, 172283, Note_off_c, 0, 76, 57
1, 172284, Note_off_c, 0, 79, 60
1, 172340, Note_off_c, 0, 52, 60
1, 172363, Note_off_c, 0, 55, 55
1, 172378, Note_on_c, 0, 82, 70
1, 172447, Note_off_c, 0, 82, 57
1, 172498, Control_c, 0, 64, 68
1, 172505, Note_on_c, 0, 81, 68
1, 172523, Note_on_c, 0, 77, 52
1, 172528, Control_c, 0, 64, 68
1, 172543, Control_c, 0, 64, 67
1, 172544, Note_off_c, 0, 81, 56
1, 172547, Note_off_c, 0, 77, 61
1, 172558, Control_c, 0, 64, 67
1, 172573, Control_c, 0, 64, 66
1, 172587, Control_c, 0, 64, 66
1, 172602, Control_c, 0, 64, 65
1, 172617, Control_c, 0, 64, 64
1, 172632, Control_c, 0, 64, 61
1, 172646, Control_c, 0, 64, 53
1, 172650, Note_on_c, 0, 52, 76
1, 172653, Note_on_c, 0, 55, 73
1, 172660, Control_c, 0, 64, 30
1, 172675, Control_c, 0, 64, 0
1, 172677, Note_on_c, 0, 79, 35
1, 172686, Note_on_c, 0, 81, 30
1, 172713, Note_off_c, 0, 79, 49
1, 172715, Note_off_c, 0, 81, 45
1, 172794, Note_on_c, 0, 77, 62
1, 172802, Note_on_c, 0, 74, 51
1, 172823, Control_c, 0, 64, 24
1, 172838, Control_c, 0, 64, 35
1, 172842, Note_off_c, 0, 74, 62
1, 172850, Note_off_c, 0, 77, 57
1, 172853, Control_c, 0, 64, 42
1, 172868, Control_c, 0, 64, 47
1, 172883, Control_c, 0, 64, 51
1, 172898, Control_c, 0, 64, 54
1, 172913, Control_c, 0, 64, 56
1, 172919, Note_on_c, 0, 76, 68
1, 172928, Control_c, 0, 64, 57
1, 172934, Note_on_c, 0, 72, 52
1, 172942, Control_c, 0, 64, 58
1, 172957, Control_c, 0, 64, 59
1, 172959, Note_off_c, 0, 76, 64
1, 172969, Note_off_c, 0, 72, 63
1, 172972, Control_c, 0, 64, 60
1, 173008, Control_c, 0, 64, 60
1, 173056, Note_on_c, 0, 74, 61
1, 173098, Control_c, 0, 64, 60
1, 173113, Control_c, 0, 64, 59
1, 173128, Control_c, 0, 64, 58
1, 173130, Note_off_c, 0, 74, 62
1, 173143, Control_c, 0, 64, 57
1, 173157, Control_c, 0, 64, 56
1, 173172, Control_c, 0, 64, 56
1, 173187, Control_c, 0, 64, 55
1, 173198, Note_on_c, 0, 72, 68
1, 173202, Control_c, 0, 64, 53
1, 173217, Control_c, 0, 64, 50
1, 173226, Note_on_c, 0, 69, 40
1, 173232, Control_c, 0, 64, 48
1, 173247, Note_off_c, 0, 55, 49
1, 173247, Control_c, 0, 64, 47
1, 173253, Note_off_c, 0, 69, 54
1, 173261, Control_c, 0, 64, 46
1, 173266, Note_off_c, 0, 72, 61
1, 173276, Control_c, 0, 64, 45
1, 173291, Control_c, 0, 64, 44
1, 173306, Control_c, 0, 64, 43
1, 173320, Note_on_c, 0, 70, 68
1, 173321, Control_c, 0, 64, 42
1, 173336, Control_c, 0, 64, 39
1, 173339, Note_on_c, 0, 67, 50
1, 173351, Control_c, 0, 64, 39
1, 173363, Note_off_c, 0, 67, 60
1, 173369, Note_off_c, 0, 70, 62
1, 173380, Control_c, 0, 64, 38
1, 173439, Control_c, 0, 64, 38
1, 173454, Note_on_c, 0, 69, 66
1, 173460, Note_on_c, 0, 65, 62
1, 173469, Control_c, 0, 64, 37
1, 173494, Note_off_c, 0, 65, 65
1, 173498, Control_c, 0, 64, 38
1, 173500, Note_off_c, 0, 69, 63
1, 173513, Control_c, 0, 64, 39
1, 173528, Control_c, 0, 64, 42
1, 173543, Control_c, 0, 64, 44
1, 173557, Control_c, 0, 64, 46
1, 173572, Note_off_c, 0, 52, 61
1, 173572, Control_c, 0, 64, 48
1, 173574, Note_on_c, 0, 67, 76
1, 173580, Note_on_c, 0, 58, 65
1, 173585, Note_on_c, 0, 64, 55
1, 173587, Control_c, 0, 64, 49
1, 173596, Note_on_c, 0, 55, 59
1, 173601, Control_c, 0, 64, 50
1, 173606, Note_off_c, 0, 64, 65
1, 173616, Note_off_c, 0, 67, 62
1, 173643, Note_off_c, 0, 58, 62
1, 173676, Control_c, 0, 64, 50
1, 173691, Control_c, 0, 64, 49
1, 173700, Note_on_c, 0, 52, 72
1, 173721, Control_c, 0, 64, 48
1, 173757, Control_c, 0, 64, 48
1, 173772, Control_c, 0, 64, 47
1, 173787, Control_c, 0, 64, 46
1, 173802, Control_c, 0, 64, 45
1, 173841, Note_on_c, 0, 82, 72
1, 173864, Note_on_c, 0, 79, 43
1, 173887, Note_off_c, 0, 79, 54
1, 173914, Note_off_c, 0, 82, 60
1, 173921, Control_c, 0, 64, 44
1, 173936, Control_c, 0, 64, 43
1, 173951, Control_c, 0, 64, 43
1, 173980, Note_on_c, 0, 84, 68
1, 174022, Note_on_c, 0, 81, 7
1, 174037, Note_off_c, 0, 84, 59
1, 174057, Note_off_c, 0, 81, 30
1, 174084, Control_c, 0, 64, 44
1, 174099, Control_c, 0, 64, 45
1, 174103, Note_on_c, 0, 79, 68
1, 174106, Note_on_c, 0, 82, 72
1, 174114, Control_c, 0, 64, 46
1, 174129, Control_c, 0, 64, 46
1, 174146, Note_off_c, 0, 79, 54
1, 174180, Note_off_c, 0, 82, 62
1, 174188, Control_c, 0, 64, 46
1, 174203, Control_c, 0, 64, 45
1, 174218, Control_c, 0, 64, 43
1, 174232, Control_c, 0, 64, 39
1, 174236, Note_off_c, 0, 55, 54
1, 174247, Control_c, 0, 64, 20
1, 174249, Note_on_c, 0, 81, 77
1, 174255, Note_off_c, 0, 52, 59
1, 174260, Note_on_c, 0, 53, 64
1, 174261, Note_on_c, 0, 57, 60
1, 174262, Control_c, 0, 64, 0
1, 174268, Note_on_c, 0, 77, 53
1, 174292, Note_off_c, 0, 77, 60
1, 174308, Note_off_c, 0, 81, 59
1, 174394, Note_on_c, 0, 76, 60
1, 174396, Note_on_c, 0, 79, 59
1, 174410, Control_c, 0, 64, 26
1, 174421, Note_off_c, 0, 76, 63
1, 174424, Control_c, 0, 64, 31
1, 174436, Note_off_c, 0, 79, 60
1, 174439, Control_c, 0, 64, 34
1, 174454, Control_c, 0, 64, 38
1, 174469, Control_c, 0, 64, 43
1, 174492, Control_c, 0, 64, 47
1, 174506, Control_c, 0, 64, 51
1, 174521, Control_c, 0, 64, 53
1, 174536, Control_c, 0, 64, 54
1, 174537, Note_on_c, 0, 81, 70
1, 174548, Note_on_c, 0, 77, 50
1, 174551, Control_c, 0, 64, 54
1, 174565, Control_c, 0, 64, 55
1, 174572, Note_off_c, 0, 77, 57
1, 174583, Note_off_c, 0, 81, 59
1, 174595, Control_c, 0, 64, 55
1, 174610, Control_c, 0, 64, 56
1, 174625, Control_c, 0, 64, 56
1, 174639, Control_c, 0, 64, 57
1, 174654, Control_c, 0, 64, 58
1, 174669, Control_c, 0, 64, 59
1, 174670, Note_on_c, 0, 83, 63
1, 174679, Note_on_c, 0, 80, 57
1, 174684, Control_c, 0, 64, 60
1, 174713, Note_off_c, 0, 80, 60
1, 174734, Note_off_c, 0, 83, 58
1, 174788, Control_c, 0, 64, 60
1, 174803, Control_c, 0, 64, 61
1, 174809, Note_on_c, 0, 84, 71
1, 174818, Control_c, 0, 64, 61
1, 174826, Note_on_c, 0, 81, 58
1, 174833, Control_c, 0, 64, 62
1, 174848, Control_c, 0, 64, 62
1, 174855, Note_off_c, 0, 81, 60
1, 174862, Note_off_c, 0, 53, 59
1, 174877, Control_c, 0, 64, 63
1, 174881, Note_off_c, 0, 84, 58
1, 174892, Control_c, 0, 64, 63
1, 174907, Control_c, 0, 64, 64
1, 174937, Control_c, 0, 64, 65
1, 174946, Note_on_c, 0, 80, 68
1, 174946, Note_on_c, 0, 83, 65
1, 174952, Control_c, 0, 64, 65
1, 174967, Control_c, 0, 64, 66
1, 174981, Control_c, 0, 64, 66
1, 174995, Note_off_c, 0, 80, 57
1, 174996, Control_c, 0, 64, 67
1, 175011, Note_off_c, 0, 83, 59
1, 175015, Note_off_c, 0, 57, 52
1, 175041, Control_c, 0, 64, 67
1, 175083, Note_on_c, 0, 84, 71
1, 175095, Note_on_c, 0, 81, 65
1, 175129, Control_c, 0, 64, 67
1, 175130, Note_off_c, 0, 81, 56
1, 175157, Note_off_c, 0, 84, 58
1, 175203, Control_c, 0, 64, 66
1, 175217, Note_on_c, 0, 83, 70
1, 175233, Note_on_c, 0, 80, 64
1, 175237, Note_on_c, 0, 53, 62
1, 175244, Note_on_c, 0, 57, 54
1, 175255, Control_c, 0, 64, 66
1, 175270, Control_c, 0, 64, 65
1, 175271, Note_off_c, 0, 80, 56
1, 175278, Note_off_c, 0, 57, 62
1, 175285, Control_c, 0, 64, 65
1, 175288, Note_off_c, 0, 53, 65
1, 175298, Note_off_c, 0, 83, 56
1, 175300, Control_c, 0, 64, 64
1, 175315, Control_c, 0, 64, 63
1, 175329, Control_c, 0, 64, 61
1, 175344, Control_c, 0, 64, 56
1, 175359, Control_c, 0, 64, 18
1, 175372, Note_on_c, 0, 84, 69
1, 175374, Control_c, 0, 64, 0
1, 175375, Note_on_c, 0, 54, 68
1, 175379, Note_on_c, 0, 57, 55
1, 175384, Note_on_c, 0, 81, 59
1, 175426, Note_off_c, 0, 81, 57
1, 175456, Note_off_c, 0, 84, 58
1, 175477, Control_c, 0, 64, 40
1, 175492, Control_c, 0, 64, 58
1, 175508, Control_c, 0, 64, 62
1, 175512, Note_on_c, 0, 83, 68
1, 175516, Note_on_c, 0, 80, 66
1, 175523, Control_c, 0, 64, 63
1, 175538, Control_c, 0, 64, 64
1, 175552, Control_c, 0, 64, 65
1, 175558, Note_off_c, 0, 80, 56
1, 175567, Control_c, 0, 64, 66
1, 175582, Control_c, 0, 64, 68
1, 175584, Note_off_c, 0, 83, 57
1, 175597, Control_c, 0, 64, 70
1, 175611, Control_c, 0, 64, 71
1, 175622, Note_off_c, 0, 54, 58
1, 175626, Control_c, 0, 64, 72
1, 175627, Note_off_c, 0, 57, 55
1, 175641, Control_c, 0, 64, 73
1, 175645, Note_on_c, 0, 84, 74
1, 175655, Note_on_c, 0, 81, 64
1, 175656, Control_c, 0, 64, 73
1, 175671, Control_c, 0, 64, 74
1, 175685, Control_c, 0, 64, 74
1, 175692, Note_off_c, 0, 81, 54
1, 175715, Control_c, 0, 64, 75
1, 175775, Note_on_c, 0, 83, 68
1, 175780, Note_on_c, 0, 80, 63
1, 175807, Note_off_c, 0, 84, 26
1, 175825, Note_off_c, 0, 80, 57
1, 175849, Note_off_c, 0, 83, 56
1, 175864, Control_c, 0, 64, 74
1, 175878, Control_c, 0, 64, 73
1, 175893, Control_c, 0, 64, 71
1, 175908, Control_c, 0, 64, 69
1, 175920, Note_on_c, 0, 57, 64
1, 175920, Note_on_c, 0, 81, 63
1, 175921, Note_on_c, 0, 54, 63
1, 175923, Control_c, 0, 64, 68
1, 175931, Note_on_c, 0, 84, 46
1, 175938, Control_c, 0, 64, 66
1, 175952, Control_c, 0, 64, 65
1, 175955, Note_off_c, 0, 81, 56
1, 175959, Note_off_c, 0, 84, 62
1, 175967, Control_c, 0, 64, 63
1, 175989, Control_c, 0, 64, 62
1, 176004, Control_c, 0, 64, 60
1, 176019, Control_c, 0, 64, 60
1, 176034, Control_c, 0, 64, 59
1, 176059, Note_on_c, 0, 83, 60
1, 176064, Control_c, 0, 64, 59
1, 176080, Note_on_c, 0, 79, 50
1, 176093, Control_c, 0, 64, 58
1, 176103, Note_off_c, 0, 79, 59
1, 176123, Control_c, 0, 64, 58
1, 176125, Note_off_c, 0, 83, 60
1, 176192, Note_on_c, 0, 81, 70
1, 176201, Note_on_c, 0, 78, 65
1, 176248, Note_off_c, 0, 78, 53
1, 176260, Note_off_c, 0, 81, 58
1, 176316, Control_c, 0, 64, 58
1, 176320, Note_on_c, 0, 79, 68
1, 176325, Note_on_c, 0, 76, 55
1, 176331, Control_c, 0, 64, 59
1, 176346, Control_c, 0, 64, 60
1, 176349, Note_off_c, 0, 76, 65
1, 176361, Control_c, 0, 64, 60
1, 176374, Note_off_c, 0, 79, 59
1, 176375, Control_c, 0, 64, 61
1, 176390, Control_c, 0, 64, 62
1, 176405, Control_c, 0, 64, 62
1, 176420, Control_c, 0, 64, 63
1, 176434, Control_c, 0, 64, 63
1, 176464, Control_c, 0, 64, 64
1, 176468, Note_on_c, 0, 75, 58
1, 176471, Note_on_c, 0, 78, 65
1, 176499, Note_off_c, 0, 75, 58
1, 176532, Note_off_c, 0, 78, 57
1, 176592, Note_on_c, 0, 84, 74
1, 176616, Note_off_c, 0, 57, 56
1, 176624, Note_on_c, 0, 81, 38
1, 176633, Note_off_c, 0, 54, 36
1, 176654, Note_off_c, 0, 81, 34
1, 176663, Note_off_c, 0, 84, 61
1, 176729, Note_on_c, 0, 83, 71
1, 176739, Note_on_c, 0, 79, 62
1, 176768, Note_off_c, 0, 79, 64
1, 176780, Note_off_c, 0, 83, 60
1, 176852, Note_on_c, 0, 81, 82
1, 176859, Note_on_c, 0, 54, 54
1, 176859, Note_on_c, 0, 57, 53
1, 176873, Note_on_c, 0, 78, 62
1, 176898, Note_off_c, 0, 78, 58
1, 176927, Note_off_c, 0, 81, 56
1, 176971, Note_off_c, 0, 57, 52
1, 176990, Note_off_c, 0, 54, 58
1, 176999, Note_on_c, 0, 79, 72
1, 177006, Note_on_c, 0, 59, 67
1, 177008, Note_on_c, 0, 55, 64
1, 177014, Note_on_c, 0, 76, 58
1, 177042, Note_off_c, 0, 76, 64
1, 177068, Note_off_c, 0, 79, 60
1, 177133, Note_on_c, 0, 78, 71
1, 177151, Note_on_c, 0, 75, 56
1, 177179, Note_off_c, 0, 75, 56
1, 177204, Note_off_c, 0, 78, 62
1, 177253, Note_off_c, 0, 59, 38
1, 177266, Note_on_c, 0, 79, 68
1, 177275, Note_on_c, 0, 76, 58
1, 177305, Note_off_c, 0, 76, 68
1, 177336, Note_off_c, 0, 79, 60
1, 177362, Control_c, 0, 64, 64
1, 177396, Note_on_c, 0, 77, 67
1, 177400, Note_on_c, 0, 74, 59
1, 177434, Note_off_c, 0, 74, 64
1, 177457, Note_off_c, 0, 77, 60
1, 177544, Note_on_c, 0, 76, 68
1, 177546, Note_on_c, 0, 57, 75
1, 177548, Note_on_c, 0, 60, 76
1, 177548, Note_off_c, 0, 55, 57
1, 177548, Note_on_c, 0, 72, 57
1, 177584, Note_off_c, 0, 72, 60
1, 177601, Note_off_c, 0, 76, 63
1, 177676, Note_on_c, 0, 77, 74
1, 177688, Note_on_c, 0, 74, 50
1, 177709, Note_off_c, 0, 74, 63
1, 177739, Note_off_c, 0, 77, 62
1, 177813, Note_on_c, 0, 79, 72
1, 177817, Note_on_c, 0, 76, 63
1, 177861, Note_off_c, 0, 76, 55
1, 177876, Note_off_c, 0, 79, 60
1, 177935, Note_on_c, 0, 81, 76
1, 177951, Note_on_c, 0, 77, 49
1, 177974, Note_off_c, 0, 77, 58
1, 178011, Note_off_c, 0, 81, 61
1, 178079, Note_on_c, 0, 83, 67
1, 178082, Note_on_c, 0, 79, 62
1, 178129, Note_off_c, 0, 79, 51
1, 178141, Note_off_c, 0, 83, 60
1, 178197, Note_on_c, 0, 84, 76
1, 178209, Note_on_c, 0, 81, 57
1, 178235, Note_off_c, 0, 81, 62
1, 178263, Note_off_c, 0, 84, 66
1, 178332, Note_on_c, 0, 86, 75
1, 178338, Note_on_c, 0, 83, 65
1, 178394, Note_off_c, 0, 86, 60
1, 178402, Note_off_c, 0, 83, 54
1, 178452, Note_on_c, 0, 88, 77
1, 178460, Note_on_c, 0, 84, 63
1, 178487, Note_off_c, 0, 84, 68
1, 178487, Control_c, 0, 64, 65
1, 178502, Control_c, 0, 64, 65
1, 178517, Note_off_c, 0, 88, 63
1, 178517, Control_c, 0, 64, 66
1, 178532, Control_c, 0, 64, 67
1, 178547, Control_c, 0, 64, 68
1, 178562, Control_c, 0, 64, 69
1, 178576, Control_c, 0, 64, 71
1, 178583, Note_on_c, 0, 89, 84
1, 178591, Control_c, 0, 64, 72
1, 178605, Note_on_c, 0, 86, 63
1, 178606, Control_c, 0, 64, 74
1, 178621, Control_c, 0, 64, 76
1, 178625, Note_off_c, 0, 86, 61
1, 178636, Control_c, 0, 64, 77
1, 178639, Note_off_c, 0, 89, 66
1, 178651, Control_c, 0, 64, 77
1, 178680, Control_c, 0, 64, 78
1, 178709, Note_on_c, 0, 91, 84
1, 178732, Note_on_c, 0, 88, 48
1, 178740, Control_c, 0, 64, 78
1, 178758, Note_off_c, 0, 88, 50
1, 178767, Note_off_c, 0, 91, 60
1, 178827, Note_off_c, 0, 60, 51
1, 178831, Note_off_c, 0, 57, 55
1, 178842, Note_on_c, 0, 89, 76
1, 178844, Note_on_c, 0, 93, 75
1, 178879, Note_off_c, 0, 89, 64
1, 178894, Note_off_c, 0, 93, 59
1, 178947, Control_c, 0, 64, 78
1, 178978, Note_on_c, 0, 91, 80
1, 178988, Note_on_c, 0, 88, 60
1, 179001, Note_on_c, 0, 57, 57
1, 179008, Note_on_c, 0, 60, 59
1, 179008, Note_off_c, 0, 88, 64
1, 179015, Control_c, 0, 64, 77
1, 179029, Note_off_c, 0, 91, 57
1, 179044, Control_c, 0, 64, 77
1, 179050, Note_off_c, 0, 60, 57
1, 179059, Control_c, 0, 64, 76
1, 179074, Control_c, 0, 64, 75
1, 179086, Note_off_c, 0, 57, 0
1, 179089, Control_c, 0, 64, 74
1, 179103, Control_c, 0, 64, 72
1, 179110, Note_on_c, 0, 57, 32
1, 179114, Note_on_c, 0, 89, 70
1, 179118, Control_c, 0, 64, 69
1, 179125, Note_on_c, 0, 86, 62
1, 179133, Control_c, 0, 64, 67
1, 179134, Note_on_c, 0, 53, 56
1, 179147, Control_c, 0, 64, 66
1, 179148, Note_off_c, 0, 86, 64
1, 179158, Note_off_c, 0, 89, 61
1, 179162, Control_c, 0, 64, 64
1, 179177, Control_c, 0, 64, 63
1, 179192, Control_c, 0, 64, 63
1, 179221, Control_c, 0, 64, 62
1, 179249, Note_on_c, 0, 88, 66
1, 179251, Control_c, 0, 64, 62
1, 179262, Note_on_c, 0, 84, 53
1, 179281, Control_c, 0, 64, 61
1, 179283, Note_off_c, 0, 84, 62
1, 179290, Note_off_c, 0, 88, 59
1, 179310, Control_c, 0, 64, 61
1, 179325, Control_c, 0, 64, 60
1, 179354, Control_c, 0, 64, 60
1, 179380, Note_on_c, 0, 86, 65
1, 179395, Note_on_c, 0, 83, 45
1, 179417, Note_off_c, 0, 83, 55
1, 179419, Note_off_c, 0, 86, 58
1, 179503, Note_on_c, 0, 84, 69
1, 179518, Note_on_c, 0, 81, 59
1, 179536, Note_off_c, 0, 81, 61
1, 179546, Note_off_c, 0, 84, 61
1, 179641, Note_on_c, 0, 83, 58
1, 179650, Note_on_c, 0, 59, 50
1, 179654, Note_on_c, 0, 79, 53
1, 179658, Note_off_c, 0, 53, 55
1, 179664, Note_on_c, 0, 55, 48
1, 179669, Note_off_c, 0, 57, 51
1, 179675, Note_off_c, 0, 79, 61
1, 179685, Note_off_c, 0, 83, 59
1, 179781, Note_on_c, 0, 81, 64
1, 179793, Note_on_c, 0, 77, 52
1, 179816, Note_off_c, 0, 77, 60
1, 179823, Note_off_c, 0, 81, 58
1, 179882, Note_off_c, 0, 59, 46
1, 179916, Note_on_c, 0, 79, 60
1, 179920, Note_on_c, 0, 76, 55
1, 179942, Note_off_c, 0, 76, 63
1, 179953, Note_off_c, 0, 79, 60
1, 180015, Control_c, 0, 64, 60
1, 180049, Note_on_c, 0, 77, 62
1, 180062, Note_on_c, 0, 74, 49
1, 180085, Note_off_c, 0, 74, 63
1, 180092, Note_off_c, 0, 77, 57
1, 180165, Note_on_c, 0, 60, 44
1, 180165, Note_off_c, 0, 55, 34
1, 180168, Note_on_c, 0, 48, 48
1, 180177, Control_c, 0, 64, 61
1, 180186, Note_on_c, 0, 76, 64
1, 180200, Note_on_c, 0, 72, 50
1, 180222, Note_off_c, 0, 72, 61
1, 180231, Note_off_c, 0, 76, 64
1, 180327, Note_on_c, 0, 74, 54
1, 180339, Note_on_c, 0, 71, 42
1, 180342, Control_c, 0, 64, 61
1, 180363, Note_off_c, 0, 71, 54
1, 180364, Note_off_c, 0, 74, 64
1, 180445, Control_c, 0, 64, 62
1, 180462, Note_on_c, 0, 72, 57
1, 180477, Note_on_c, 0, 69, 52
1, 180501, Note_off_c, 0, 69, 62
1, 180506, Note_off_c, 0, 72, 65
1, 180541, Control_c, 0, 64, 62
1, 180606, Note_on_c, 0, 71, 63
1, 180618, Note_on_c, 0, 67, 49
1, 180642, Note_off_c, 0, 71, 60
1, 180644, Note_off_c, 0, 67, 54
1, 180757, Note_on_c, 0, 65, 63
1, 180761, Note_on_c, 0, 69, 60
1, 180791, Note_off_c, 0, 65, 64
1, 180800, Note_off_c, 0, 69, 61
1, 180832, Note_off_c, 0, 60, 57
1, 180893, Note_off_c, 0, 48, 59
1, 180896, Note_on_c, 0, 67, 60
1, 180915, Note_on_c, 0, 64, 36
1, 180941, Note_off_c, 0, 67, 58
1, 180944, Note_off_c, 0, 64, 55
1, 180957, Control_c, 0, 64, 62
1, 181049, Note_on_c, 0, 69, 55
1, 181061, Note_on_c, 0, 65, 37
1, 181089, Note_off_c, 0, 65, 57
1, 181094, Note_off_c, 0, 69, 60
1, 181245, Note_on_c, 0, 71, 44
1, 181246, Note_on_c, 0, 43, 42
1, 181253, Note_on_c, 0, 62, 24
1, 181292, Note_off_c, 0, 62, 50
1, 181328, Note_off_c, 0, 43, 54
1, 181363, Note_off_c, 0, 71, 50
1, 181365, Control_c, 0, 64, 61
1, 181531, Note_on_c, 0, 72, 42
1, 181552, Note_on_c, 0, 64, 28
1, 181584, Note_on_c, 0, 36, 21
1, 181587, Control_c, 0, 64, 62
1, 181632, Control_c, 0, 64, 62
1, 181647, Control_c, 0, 64, 63
1, 181662, Control_c, 0, 64, 63
1, 181677, Control_c, 0, 64, 65
1, 181691, Control_c, 0, 64, 66
1, 181706, Control_c, 0, 64, 67
1, 181721, Control_c, 0, 64, 69
1, 181736, Control_c, 0, 64, 71
1, 181750, Control_c, 0, 64, 73
1, 181765, Control_c, 0, 64, 75
1, 181780, Control_c, 0, 64, 78
1, 181795, Control_c, 0, 64, 81
1, 181810, Control_c, 0, 64, 84
1, 181824, Control_c, 0, 64, 87
1, 181839, Control_c, 0, 64, 90
1, 181854, Control_c, 0, 64, 93
1, 181868, Control_c, 0, 64, 95
1, 181883, Control_c, 0, 64, 96
1, 181887, Note_off_c, 0, 72, 56
1, 181891, Note_off_c, 0, 64, 41
1, 181900, Control_c, 0, 64, 97
1, 181914, Control_c, 0, 64, 98
1, 181944, Control_c, 0, 64, 99
1, 181960, Note_off_c, 0, 36, 41
1, 182085, Control_c, 0, 64, 98
1, 182115, Control_c, 0, 64, 98
1, 182129, Control_c, 0, 64, 97
1, 182144, Control_c, 0, 64, 97
1, 182159, Control_c, 0, 64, 96
1, 182173, Control_c, 0, 64, 95
1, 182188, Control_c, 0, 64, 95
1, 182203, Control_c, 0, 64, 94
1, 182218, Control_c, 0, 64, 93
1, 182233, Control_c, 0, 64, 92
1, 182247, Control_c, 0, 64, 90
1, 182262, Control_c, 0, 64, 88
1, 182277, Control_c, 0, 64, 86
1, 182292, Control_c, 0, 64, 83
1, 182307, Control_c, 0, 64, 80
1, 182316, Note_on_c, 0, 36, 33
1, 182321, Control_c, 0, 64, 76
1, 182336, Control_c, 0, 64, 72
1, 182351, Control_c, 0, 64, 69
1, 182365, Control_c, 0, 64, 66
1, 182380, Control_c, 0, 64, 62
1, 182395, Control_c, 0, 64, 60
1, 182410, Control_c, 0, 64, 61
1, 182425, Control_c, 0, 64, 63
1, 182439, Control_c, 0, 64, 65
1, 182454, Control_c, 0, 64, 66
1, 182469, Control_c, 0, 64, 68
1, 182484, Control_c, 0, 64, 70
1, 182498, Control_c, 0, 64, 71
1, 182513, Control_c, 0, 64, 72
1, 182528, Control_c, 0, 64, 73
1, 182543, Control_c, 0, 64, 75
1, 182558, Control_c, 0, 64, 77
1, 182572, Control_c, 0, 64, 79
1, 182585, Note_on_c, 0, 69, 52
1, 182587, Control_c, 0, 64, 81
1, 182602, Control_c, 0, 64, 82
1, 182607, Note_on_c, 0, 43, 41
1, 182607, Note_on_c, 0, 57, 38
1, 182614, Note_off_c, 0, 36, 40
1, 182617, Control_c, 0, 64, 84
1, 182632, Control_c, 0, 64, 87
1, 182646, Control_c, 0, 64, 90
1, 182661, Control_c, 0, 64, 92
1, 182676, Control_c, 0, 64, 95
1, 182692, Control_c, 0, 64, 97
1, 182703, Note_off_c, 0, 57, 54
1, 182707, Control_c, 0, 64, 99
1, 182729, Control_c, 0, 64, 100
1, 182744, Note_off_c, 0, 69, 63
1, 182744, Control_c, 0, 64, 100
1, 182774, Control_c, 0, 64, 101
1, 182830, Note_on_c, 0, 67, 67
1, 182846, Note_on_c, 0, 52, 44
1, 182863, Note_on_c, 0, 55, 49
1, 182949, Note_off_c, 0, 52, 40
1, 182976, Note_off_c, 0, 55, 57
1, 183033, Note_on_c, 0, 36, 52
1, 183059, Note_off_c, 0, 67, 61
1, 183063, Note_off_c, 0, 43, 38
1, 183182, Note_on_c, 0, 71, 73
1, 183193, Note_on_c, 0, 59, 56
1, 183203, Note_off_c, 0, 36, 58
1, 183224, Note_on_c, 0, 43, 48
1, 183234, Note_off_c, 0, 59, 44
1, 183247, Control_c, 0, 64, 100
1, 183319, Note_off_c, 0, 71, 54
1, 183336, Control_c, 0, 64, 101
1, 183372, Note_on_c, 0, 72, 80
1, 183384, Note_on_c, 0, 60, 69
1, 183394, Note_on_c, 0, 52, 59
1, 183395, Control_c, 0, 64, 100
1, 183410, Control_c, 0, 64, 97
1, 183425, Control_c, 0, 64, 88
1, 183440, Control_c, 0, 64, 76
1, 183455, Control_c, 0, 64, 66
1, 183477, Control_c, 0, 64, 59
1, 183480, Note_off_c, 0, 52, 56
1, 183492, Control_c, 0, 64, 62
1, 183507, Control_c, 0, 64, 65
1, 183520, Note_off_c, 0, 60, 48
1, 183522, Control_c, 0, 64, 69
1, 183537, Control_c, 0, 64, 74
1, 183552, Control_c, 0, 64, 79
1, 183555, Note_on_c, 0, 36, 65
1, 183558, Note_off_c, 0, 43, 52
1, 183566, Control_c, 0, 64, 82
1, 183581, Control_c, 0, 64, 84
1, 183596, Control_c, 0, 64, 86
1, 183606, Note_off_c, 0, 72, 59
1, 183611, Control_c, 0, 64, 87
1, 183626, Control_c, 0, 64, 88
1, 183641, Control_c, 0, 64, 89
1, 183656, Control_c, 0, 64, 91
1, 183671, Control_c, 0, 64, 91
1, 183686, Control_c, 0, 64, 92
1, 183700, Control_c, 0, 64, 92
1, 183710, Note_on_c, 0, 74, 79
1, 183715, Control_c, 0, 64, 93
1, 183727, Note_on_c, 0, 62, 67
1, 183730, Control_c, 0, 64, 93
1, 183739, Note_off_c, 0, 36, 59
1, 183744, Control_c, 0, 64, 94
1, 183759, Control_c, 0, 64, 94
1, 183762, Note_on_c, 0, 43, 53
1, 183777, Note_off_c, 0, 62, 46
1, 183789, Control_c, 0, 64, 95
1, 183804, Control_c, 0, 64, 96
1, 183818, Control_c, 0, 64, 96
1, 183833, Control_c, 0, 64, 97
1, 183848, Control_c, 0, 64, 97
1, 183938, Control_c, 0, 64, 96
1, 183951, Note_on_c, 0, 76, 74
1, 183952, Control_c, 0, 64, 91
1, 183967, Control_c, 0, 64, 78
1, 183979, Note_on_c, 0, 64, 58
1, 183982, Control_c, 0, 64, 62
1, 183986, Note_off_c, 0, 74, 32
1, 183990, Note_on_c, 0, 52, 44
1, 183997, Control_c, 0, 64, 0
1, 184043, Note_off_c, 0, 52, 58
1, 184071, Control_c, 0, 64, 64
1, 184086, Control_c, 0, 64, 71
1, 184100, Control_c, 0, 64, 76
1, 184115, Control_c, 0, 64, 80
1, 184130, Control_c, 0, 64, 83
1, 184145, Control_c, 0, 64, 86
1, 184160, Control_c, 0, 64, 90
1, 184175, Control_c, 0, 64, 93
1, 184183, Note_off_c, 0, 76, 34
1, 184186, Note_on_c, 0, 35, 54
1, 184187, Note_off_c, 0, 64, 55
1, 184189, Control_c, 0, 64, 95
1, 184203, Note_off_c, 0, 43, 41
1, 184204, Control_c, 0, 64, 97
1, 184226, Control_c, 0, 64, 98
1, 184241, Control_c, 0, 64, 100
1, 184256, Control_c, 0, 64, 101
1, 184271, Control_c, 0, 64, 102
1, 184331, Control_c, 0, 64, 101
1, 184346, Control_c, 0, 64, 99
1, 184347, Note_on_c, 0, 43, 43
1, 184352, Note_on_c, 0, 74, 64
1, 184361, Control_c, 0, 64, 92
1, 184370, Note_off_c, 0, 35, 36
1, 184371, Note_on_c, 0, 62, 51
1, 184375, Control_c, 0, 64, 85
1, 184390, Control_c, 0, 64, 79
1, 184405, Control_c, 0, 64, 74
1, 184420, Control_c, 0, 64, 73
1, 184435, Control_c, 0, 64, 74
1, 184439, Note_off_c, 0, 62, 56
1, 184449, Control_c, 0, 64, 76
1, 184464, Control_c, 0, 64, 79
1, 184479, Control_c, 0, 64, 83
1, 184494, Control_c, 0, 64, 87
1, 184500, Note_off_c, 0, 74, 57
1, 184508, Control_c, 0, 64, 90
1, 184523, Control_c, 0, 64, 92
1, 184538, Control_c, 0, 64, 93
1, 184542, Note_on_c, 0, 50, 51
1, 184550, Note_on_c, 0, 72, 67
1, 184553, Control_c, 0, 64, 95
1, 184568, Control_c, 0, 64, 96
1, 184583, Note_on_c, 0, 60, 44
1, 184583, Control_c, 0, 64, 97
1, 184598, Control_c, 0, 64, 98
1, 184613, Control_c, 0, 64, 99
1, 184617, Note_off_c, 0, 50, 60
1, 184626, Control_c, 0, 64, 100
1, 184640, Control_c, 0, 64, 100
1, 184684, Control_c, 0, 64, 99
1, 184699, Note_off_c, 0, 72, 39
1, 184699, Control_c, 0, 64, 96
1, 184714, Note_off_c, 0, 60, 57
1, 184714, Control_c, 0, 64, 90
1, 184723, Note_on_c, 0, 35, 55
1, 184729, Control_c, 0, 64, 84
1, 184744, Control_c, 0, 64, 79
1, 184759, Control_c, 0, 64, 77
1, 184768, Note_off_c, 0, 43, 40
1, 184789, Control_c, 0, 64, 78
1, 184804, Control_c, 0, 64, 79
1, 184818, Control_c, 0, 64, 81
1, 184833, Control_c, 0, 64, 84
1, 184848, Control_c, 0, 64, 85
1, 184860, Note_off_c, 0, 35, 54
1, 184863, Control_c, 0, 64, 85
1, 184869, Note_on_c, 0, 71, 62
1, 184872, Note_on_c, 0, 43, 52
1, 184878, Control_c, 0, 64, 86
1, 184887, Note_on_c, 0, 59, 43
1, 184907, Control_c, 0, 64, 87
1, 184922, Control_c, 0, 64, 87
1, 184930, Note_off_c, 0, 59, 46
1, 184937, Control_c, 0, 64, 88
1, 184952, Control_c, 0, 64, 89
1, 184973, Control_c, 0, 64, 89
1, 184979, Note_off_c, 0, 71, 59
1, 185003, Control_c, 0, 64, 90
1, 185033, Control_c, 0, 64, 90
1, 185050, Note_on_c, 0, 69, 66
1, 185063, Note_on_c, 0, 50, 52
1, 185067, Note_on_c, 0, 57, 49
1, 185108, Control_c, 0, 64, 89
1, 185122, Note_off_c, 0, 50, 62
1, 185123, Control_c, 0, 64, 86
1, 185138, Control_c, 0, 64, 81
1, 185152, Control_c, 0, 64, 74
1, 185167, Control_c, 0, 64, 68
1, 185169, Note_off_c, 0, 57, 55
1, 185182, Control_c, 0, 64, 60
1, 185197, Control_c, 0, 64, 52
1, 185212, Control_c, 0, 64, 60
1, 185215, Note_off_c, 0, 43, 49
1, 185224, Note_on_c, 0, 35, 48
1, 185227, Control_c, 0, 64, 65
1, 185237, Note_off_c, 0, 69, 63
1, 185242, Control_c, 0, 64, 68
1, 185257, Control_c, 0, 64, 72
1, 185271, Control_c, 0, 64, 75
1, 185286, Control_c, 0, 64, 78
1, 185301, Control_c, 0, 64, 79
1, 185315, Control_c, 0, 64, 82
1, 185330, Control_c, 0, 64, 84
1, 185345, Control_c, 0, 64, 86
1, 185358, Note_off_c, 0, 35, 51
1, 185360, Control_c, 0, 64, 88
1, 185368, Note_on_c, 0, 66, 61
1, 185375, Control_c, 0, 64, 90
1, 185383, Note_on_c, 0, 43, 50
1, 185386, Note_on_c, 0, 54, 44
1, 185389, Control_c, 0, 64, 92
1, 185404, Control_c, 0, 64, 94
1, 185419, Control_c, 0, 64, 95
1, 185434, Control_c, 0, 64, 95
1, 185444, Note_off_c, 0, 54, 60
1, 185449, Control_c, 0, 64, 96
1, 185463, Control_c, 0, 64, 96
1, 185478, Control_c, 0, 64, 97
1, 185501, Note_off_c, 0, 66, 55
1, 185537, Control_c, 0, 64, 96
1, 185552, Control_c, 0, 64, 94
1, 185553, Note_on_c, 0, 67, 66
1, 185560, Note_off_c, 0, 43, 36
1, 185567, Control_c, 0, 64, 88
1, 185571, Note_on_c, 0, 55, 50
1, 185573, Note_on_c, 0, 50, 54
1, 185582, Control_c, 0, 64, 80
1, 185596, Control_c, 0, 64, 68
1, 185611, Control_c, 0, 64, 36
1, 185626, Control_c, 0, 64, 0
1, 185642, Note_off_c, 0, 55, 59
1, 185671, Control_c, 0, 64, 54
1, 185686, Control_c, 0, 64, 66
1, 185698, Note_off_c, 0, 67, 62
1, 185701, Control_c, 0, 64, 69
1, 185705, Note_off_c, 0, 50, 53
1, 185722, Control_c, 0, 64, 72
1, 185724, Note_on_c, 0, 37, 53
1, 185737, Control_c, 0, 64, 75
1, 185752, Control_c, 0, 64, 78
1, 185767, Control_c, 0, 64, 80
1, 185782, Control_c, 0, 64, 83
1, 185796, Control_c, 0, 64, 85
1, 185811, Control_c, 0, 64, 88
1, 185826, Control_c, 0, 64, 90
1, 185841, Control_c, 0, 64, 92
1, 185856, Control_c, 0, 64, 94
1, 185864, Note_off_c, 0, 37, 62
1, 185871, Control_c, 0, 64, 96
1, 185880, Note_on_c, 0, 70, 72
1, 185885, Note_on_c, 0, 43, 56
1, 185886, Note_on_c, 0, 58, 63
1, 185886, Control_c, 0, 64, 99
1, 185901, Control_c, 0, 64, 101
1, 185916, Control_c, 0, 64, 104
1, 185931, Control_c, 0, 64, 106
1, 185945, Control_c, 0, 64, 108
1, 185960, Control_c, 0, 64, 110
1, 185963, Note_off_c, 0, 58, 59
1, 185971, Note_off_c, 0, 70, 60
1, 186020, Control_c, 0, 64, 108
1, 186035, Control_c, 0, 64, 104
1, 186050, Control_c, 0, 64, 97
1, 186055, Note_on_c, 0, 69, 79
1, 186064, Note_on_c, 0, 52, 59
1, 186064, Note_on_c, 0, 57, 69
1, 186064, Control_c, 0, 64, 87
1, 186079, Control_c, 0, 64, 74
1, 186094, Control_c, 0, 64, 64
1, 186109, Control_c, 0, 64, 0
1, 186112, Note_off_c, 0, 52, 62
1, 186124, Control_c, 0, 64, 23
1, 186137, Note_off_c, 0, 57, 57
1, 186138, Control_c, 0, 64, 59
1, 186153, Control_c, 0, 64, 66
1, 186168, Control_c, 0, 64, 72
1, 186183, Control_c, 0, 64, 78
1, 186184, Note_off_c, 0, 69, 64
1, 186198, Control_c, 0, 64, 83
1, 186211, Note_on_c, 0, 37, 69
1, 186212, Control_c, 0, 64, 87
1, 186227, Control_c, 0, 64, 91
1, 186235, Note_off_c, 0, 43, 36
1, 186242, Control_c, 0, 64, 95
1, 186257, Control_c, 0, 64, 99
1, 186272, Control_c, 0, 64, 105
1, 186286, Control_c, 0, 64, 110
1, 186301, Control_c, 0, 64, 114
1, 186316, Control_c, 0, 64, 117
1, 186330, Control_c, 0, 64, 121
1, 186345, Control_c, 0, 64, 124
1, 186349, Note_on_c, 0, 75, 78
1, 186360, Note_on_c, 0, 63, 64
1, 186360, Control_c, 0, 64, 126
1, 186375, Control_c, 0, 64, 127
1, 186379, Note_off_c, 0, 37, 61
1, 186382, Note_on_c, 0, 45, 59
1, 186431, Note_off_c, 0, 63, 60
1, 186472, Note_off_c, 0, 75, 63
1, 186516, Control_c, 0, 64, 123
1, 186531, Control_c, 0, 64, 115
1, 186534, Note_on_c, 0, 76, 89
1, 186538, Note_on_c, 0, 64, 79
1, 186545, Control_c, 0, 64, 107
1, 186548, Note_on_c, 0, 52, 67
1, 186560, Control_c, 0, 64, 94
1, 186575, Control_c, 0, 64, 81
1, 186590, Control_c, 0, 64, 69
1, 186605, Control_c, 0, 64, 47
1, 186619, Control_c, 0, 64, 0
1, 186628, Note_off_c, 0, 52, 65
1, 186634, Control_c, 0, 64, 48
1, 186649, Control_c, 0, 64, 65
1, 186653, Note_off_c, 0, 64, 55
1, 186664, Control_c, 0, 64, 70
1, 186679, Control_c, 0, 64, 77
1, 186693, Note_off_c, 0, 45, 51
1, 186695, Control_c, 0, 64, 82
1, 186698, Note_on_c, 0, 37, 73
1, 186709, Control_c, 0, 64, 86
1, 186714, Note_off_c, 0, 76, 57
1, 186724, Control_c, 0, 64, 89
1, 186739, Control_c, 0, 64, 91
1, 186754, Control_c, 0, 64, 93
1, 186768, Control_c, 0, 64, 95
1, 186783, Control_c, 0, 64, 96
1, 186798, Control_c, 0, 64, 96
1, 186813, Control_c, 0, 64, 97
1, 186831, Note_on_c, 0, 77, 87
1, 186845, Note_on_c, 0, 65, 76
1, 186855, Note_on_c, 0, 45, 58
1, 186858, Note_off_c, 0, 37, 62
1, 186920, Note_off_c, 0, 65, 48
1, 187035, Control_c, 0, 64, 96
1, 187050, Control_c, 0, 64, 94
1, 187055, Note_off_c, 0, 77, 56
1, 187059, Note_on_c, 0, 79, 83
1, 187065, Control_c, 0, 64, 88
1, 187074, Note_on_c, 0, 52, 55
1, 187075, Note_on_c, 0, 67, 71
1, 187079, Control_c, 0, 64, 77
1, 187094, Control_c, 0, 64, 58
1, 187109, Control_c, 0, 64, 0
1, 187192, Note_off_c, 0, 45, 32
1, 187198, Control_c, 0, 64, 46
1, 187202, Note_on_c, 0, 38, 60
1, 187219, Note_off_c, 0, 52, 59
1, 187221, Control_c, 0, 64, 65
1, 187235, Control_c, 0, 64, 71
1, 187239, Note_off_c, 0, 79, 52
1, 187250, Control_c, 0, 64, 76
1, 187254, Note_off_c, 0, 67, 59
1, 187265, Control_c, 0, 64, 80
1, 187280, Control_c, 0, 64, 83
1, 187294, Control_c, 0, 64, 86
1, 187309, Control_c, 0, 64, 87
1, 187324, Control_c, 0, 64, 89
1, 187339, Control_c, 0, 64, 90
1, 187344, Note_off_c, 0, 38, 57
1, 187354, Control_c, 0, 64, 92
1, 187368, Control_c, 0, 64, 93
1, 187383, Control_c, 0, 64, 94
1, 187388, Note_on_c, 0, 45, 50
1, 187391, Note_on_c, 0, 76, 57
1, 187398, Control_c, 0, 64, 96
1, 187409, Note_on_c, 0, 64, 36
1, 187413, Control_c, 0, 64, 97
1, 187415, Note_on_c, 0, 65, 39
1, 187428, Control_c, 0, 64, 98
1, 187442, Note_off_c, 0, 64, 53
1, 187442, Control_c, 0, 64, 99
1, 187443, Note_off_c, 0, 65, 55
1, 187457, Control_c, 0, 64, 100
1, 187472, Control_c, 0, 64, 101
1, 187488, Control_c, 0, 64, 102
1, 187503, Control_c, 0, 64, 103
1, 187518, Control_c, 0, 64, 103
1, 187532, Control_c, 0, 64, 104
1, 187550, Note_off_c, 0, 76, 33
1, 187558, Note_on_c, 0, 53, 49
1, 187570, Note_on_c, 0, 77, 75
1, 187581, Note_on_c, 0, 65, 53
1, 187606, Control_c, 0, 64, 103
1, 187617, Note_off_c, 0, 53, 59
1, 187622, Control_c, 0, 64, 99
1, 187637, Control_c, 0, 64, 93
1, 187652, Control_c, 0, 64, 84
1, 187666, Control_c, 0, 64, 77
1, 187681, Control_c, 0, 64, 72
1, 187696, Control_c, 0, 64, 72
1, 187710, Control_c, 0, 64, 73
1, 187724, Note_on_c, 0, 38, 55
1, 187725, Control_c, 0, 64, 75
1, 187729, Note_off_c, 0, 65, 60
1, 187732, Note_off_c, 0, 45, 40
1, 187740, Control_c, 0, 64, 78
1, 187743, Note_off_c, 0, 77, 47
1, 187755, Control_c, 0, 64, 82
1, 187770, Control_c, 0, 64, 84
1, 187784, Control_c, 0, 64, 86
1, 187799, Control_c, 0, 64, 87
1, 187814, Control_c, 0, 64, 88
1, 187829, Control_c, 0, 64, 89
1, 187844, Control_c, 0, 64, 89
1, 187859, Control_c, 0, 64, 90
1, 187874, Control_c, 0, 64, 91
1, 187882, Note_on_c, 0, 76, 71
1, 187889, Control_c, 0, 64, 92
1, 187889, Note_off_c, 0, 38, 34
1, 187896, Note_on_c, 0, 45, 45
1, 187897, Note_on_c, 0, 64, 55
1, 187904, Control_c, 0, 64, 92
1, 187918, Control_c, 0, 64, 93
1, 187933, Control_c, 0, 64, 94
1, 187936, Note_off_c, 0, 64, 64
1, 187948, Control_c, 0, 64, 95
1, 187970, Control_c, 0, 64, 96
1, 187982, Note_off_c, 0, 76, 61
1, 187984, Control_c, 0, 64, 96
1, 187999, Control_c, 0, 64, 97
1, 188053, Note_on_c, 0, 53, 48
1, 188066, Note_on_c, 0, 74, 68
1, 188074, Control_c, 0, 64, 96
1, 188079, Note_on_c, 0, 62, 61
1, 188088, Control_c, 0, 64, 91
1, 188103, Control_c, 0, 64, 83
1, 188106, Note_off_c, 0, 45, 0
1, 188118, Control_c, 0, 64, 74
1, 188130, Note_off_c, 0, 53, 55
1, 188132, Note_off_c, 0, 62, 53
1, 188133, Control_c, 0, 64, 64
1, 188143, Poly_aftertouch_c, 0, 45, 127
1, 188148, Control_c, 0, 64, 49
1, 188163, Control_c, 0, 64, 57
1, 188178, Control_c, 0, 64, 66
1, 188192, Control_c, 0, 64, 71
1, 188203, Note_on_c, 0, 38, 59
1, 188207, Control_c, 0, 64, 76
1, 188217, Poly_aftertouch_c, 0, 45, 0
1, 188222, Control_c, 0, 64, 82
1, 188236, Control_c, 0, 64, 87
1, 188251, Control_c, 0, 64, 91
1, 188266, Control_c, 0, 64, 94
1, 188282, Control_c, 0, 64, 97
1, 188297, Control_c, 0, 64, 100
1, 188312, Control_c, 0, 64, 104
1, 188327, Control_c, 0, 64, 109
1, 188341, Control_c, 0, 64, 113
1, 188344, Note_off_c, 0, 38, 62
1, 188356, Control_c, 0, 64, 117
1, 188357, Note_on_c, 0, 76, 68
1, 188363, Note_on_c, 0, 45, 51
1, 188370, Control_c, 0, 64, 121
1, 188377, Note_on_c, 0, 64, 46
1, 188385, Control_c, 0, 64, 125
1, 188400, Control_c, 0, 64, 127
1, 188404, Note_off_c, 0, 64, 61
1, 188416, Note_off_c, 0, 76, 64
1, 188418, Note_off_c, 0, 74, 20
1, 188446, Note_off_c, 0, 45, 64
1, 188524, Note_on_c, 0, 53, 54
1, 188535, Note_on_c, 0, 72, 68
1, 188547, Note_on_c, 0, 60, 58
1, 188562, Control_c, 0, 64, 122
1, 188577, Control_c, 0, 64, 112
1, 188592, Control_c, 0, 64, 102
1, 188607, Control_c, 0, 64, 91
1, 188620, Note_off_c, 0, 53, 64
1, 188622, Control_c, 0, 64, 80
1, 188634, Note_off_c, 0, 60, 48
1, 188637, Control_c, 0, 64, 69
1, 188652, Control_c, 0, 64, 48
1, 188667, Control_c, 0, 64, 0
1, 188679, Note_on_c, 0, 39, 58
1, 188681, Control_c, 0, 64, 47
1, 188696, Control_c, 0, 64, 64
1, 188717, Note_off_c, 0, 72, 63
1, 188718, Control_c, 0, 64, 69
1, 188733, Control_c, 0, 64, 75
1, 188747, Control_c, 0, 64, 81
1, 188762, Control_c, 0, 64, 88
1, 188777, Control_c, 0, 64, 93
1, 188792, Control_c, 0, 64, 97
1, 188807, Control_c, 0, 64, 101
1, 188822, Control_c, 0, 64, 105
1, 188834, Note_off_c, 0, 39, 61
1, 188837, Control_c, 0, 64, 109
1, 188840, Note_on_c, 0, 70, 72
1, 188843, Note_on_c, 0, 47, 61
1, 188849, Note_on_c, 0, 58, 61
1, 188852, Control_c, 0, 64, 114
1, 188866, Control_c, 0, 64, 119
1, 188881, Control_c, 0, 64, 127
1, 188906, Note_off_c, 0, 58, 49
1, 188949, Note_off_c, 0, 70, 60
1, 189017, Note_on_c, 0, 71, 73
1, 189022, Note_on_c, 0, 59, 70
1, 189028, Note_on_c, 0, 54, 62
1, 189029, Control_c, 0, 64, 112
1, 189044, Control_c, 0, 64, 93
1, 189058, Control_c, 0, 64, 80
1, 189070, Note_off_c, 0, 59, 60
1, 189073, Control_c, 0, 64, 69
1, 189090, Control_c, 0, 64, 63
1, 189094, Note_off_c, 0, 54, 61
1, 189104, Control_c, 0, 64, 65
1, 189119, Control_c, 0, 64, 70
1, 189130, Note_off_c, 0, 71, 59
1, 189134, Control_c, 0, 64, 78
1, 189149, Control_c, 0, 64, 88
1, 189163, Control_c, 0, 64, 96
1, 189178, Control_c, 0, 64, 100
1, 189182, Note_on_c, 0, 39, 72
1, 189193, Control_c, 0, 64, 104
1, 189208, Control_c, 0, 64, 107
1, 189223, Control_c, 0, 64, 111
1, 189230, Note_off_c, 0, 47, 35
1, 189237, Control_c, 0, 64, 115
1, 189252, Control_c, 0, 64, 118
1, 189267, Control_c, 0, 64, 122
1, 189282, Control_c, 0, 64, 125
1, 189297, Control_c, 0, 64, 127
1, 189314, Note_on_c, 0, 77, 87
1, 189331, Note_on_c, 0, 65, 67
1, 189337, Note_on_c, 0, 47, 67
1, 189355, Note_off_c, 0, 39, 61
1, 189357, Note_off_c, 0, 65, 68
1, 189392, Note_off_c, 0, 77, 59
1, 189499, Note_on_c, 0, 78, 87
1, 189504, Note_on_c, 0, 66, 81
1, 189519, Note_on_c, 0, 54, 62
1, 189556, Control_c, 0, 64, 111
1, 189570, Control_c, 0, 64, 93
1, 189585, Control_c, 0, 64, 79
1, 189600, Note_off_c, 0, 54, 59
1, 189600, Control_c, 0, 64, 68
1, 189615, Control_c, 0, 64, 62
1, 189630, Control_c, 0, 64, 65
1, 189645, Control_c, 0, 64, 71
1, 189645, Note_off_c, 0, 66, 54
1, 189656, Note_off_c, 0, 47, 52
1, 189659, Control_c, 0, 64, 80
1, 189664, Note_on_c, 0, 39, 76
1, 189674, Control_c, 0, 64, 89
1, 189689, Control_c, 0, 64, 97
1, 189704, Control_c, 0, 64, 102
1, 189719, Control_c, 0, 64, 105
1, 189727, Note_off_c, 0, 78, 56
1, 189734, Control_c, 0, 64, 109
1, 189749, Control_c, 0, 64, 112
1, 189763, Control_c, 0, 64, 115
1, 189778, Control_c, 0, 64, 118
1, 189793, Control_c, 0, 64, 121
1, 189801, Note_on_c, 0, 79, 90
1, 189805, Note_on_c, 0, 67, 80
1, 189808, Control_c, 0, 64, 124
1, 189820, Note_on_c, 0, 48, 70
1, 189823, Note_off_c, 0, 39, 62
1, 189823, Control_c, 0, 64, 127
1, 189853, Note_off_c, 0, 67, 61
1, 189912, Note_off_c, 0, 79, 53
1, 189977, Note_on_c, 0, 81, 90
1, 189984, Note_on_c, 0, 69, 86
1, 189989, Note_on_c, 0, 54, 67
1, 190026, Note_off_c, 0, 54, 63
1, 190075, Control_c, 0, 64, 125
1, 190090, Control_c, 0, 64, 107
1, 190104, Control_c, 0, 64, 91
1, 190119, Control_c, 0, 64, 72
1, 190133, Note_on_c, 0, 40, 81
1, 190134, Control_c, 0, 64, 0
1, 190148, Note_off_c, 0, 48, 58
1, 190162, Note_off_c, 0, 81, 50
1, 190180, Note_off_c, 0, 69, 59
1, 190216, Control_c, 0, 64, 35
1, 190231, Control_c, 0, 64, 66
1, 190246, Control_c, 0, 64, 73
1, 190260, Control_c, 0, 64, 80
1, 190275, Control_c, 0, 64, 87
1, 190290, Control_c, 0, 64, 94
1, 190297, Note_off_c, 0, 40, 60
1, 190300, Note_on_c, 0, 48, 69
1, 190303, Note_on_c, 0, 79, 88
1, 190305, Control_c, 0, 64, 100
1, 190311, Note_on_c, 0, 67, 78
1, 190320, Control_c, 0, 64, 105
1, 190335, Control_c, 0, 64, 109
1, 190350, Control_c, 0, 64, 113
1, 190352, Note_off_c, 0, 67, 58
1, 190365, Control_c, 0, 64, 118
1, 190379, Control_c, 0, 64, 124
1, 190394, Control_c, 0, 64, 127
1, 190396, Note_off_c, 0, 79, 62
1, 190482, Note_on_c, 0, 82, 89
1, 190491, Note_on_c, 0, 70, 85
1, 190495, Note_on_c, 0, 55, 64
1, 190589, Note_off_c, 0, 55, 58
1, 190645, Note_on_c, 0, 41, 81
1, 190647, Control_c, 0, 64, 100
1, 190661, Control_c, 0, 64, 78
1, 190662, Note_off_c, 0, 82, 59
1, 190676, Note_off_c, 0, 70, 60
1, 190677, Control_c, 0, 64, 0
1, 190706, Note_off_c, 0, 48, 37
1, 190751, Control_c, 0, 64, 65
1, 190766, Control_c, 0, 64, 73
1, 190781, Control_c, 0, 64, 81
1, 190796, Control_c, 0, 64, 87
1, 190801, Note_on_c, 0, 81, 94
1, 190807, Note_on_c, 0, 69, 88
1, 190811, Note_on_c, 0, 48, 71
1, 190811, Control_c, 0, 64, 91
1, 190826, Control_c, 0, 64, 96
1, 190831, Note_off_c, 0, 41, 58
1, 190841, Control_c, 0, 64, 99
1, 190856, Control_c, 0, 64, 104
1, 190864, Note_off_c, 0, 69, 61
1, 190871, Control_c, 0, 64, 107
1, 190885, Control_c, 0, 64, 110
1, 190894, Note_off_c, 0, 81, 58
1, 190900, Control_c, 0, 64, 112
1, 190915, Control_c, 0, 64, 113
1, 190929, Control_c, 0, 64, 114
1, 190932, Note_off_c, 0, 48, 65
1, 190944, Control_c, 0, 64, 115
1, 190967, Control_c, 0, 64, 115
1, 190993, Note_on_c, 0, 81, 98
1, 190997, Note_on_c, 0, 69, 85
1, 190999, Note_on_c, 0, 57, 59
1, 191011, Control_c, 0, 64, 116
1, 191026, Control_c, 0, 64, 116
1, 191032, Note_off_c, 0, 69, 63
1, 191041, Control_c, 0, 64, 117
1, 191056, Control_c, 0, 64, 118
1, 191071, Note_off_c, 0, 81, 59
1, 191071, Control_c, 0, 64, 119
1, 191078, Note_off_c, 0, 57, 62
1, 191085, Control_c, 0, 64, 120
1, 191100, Control_c, 0, 64, 121
1, 191115, Control_c, 0, 64, 122
1, 191129, Control_c, 0, 64, 123
1, 191144, Control_c, 0, 64, 124
1, 191159, Control_c, 0, 64, 125
1, 191174, Control_c, 0, 64, 126
1, 191211, Note_on_c, 0, 41, 71
1, 191337, Control_c, 0, 64, 125
1, 191352, Control_c, 0, 64, 121
1, 191367, Control_c, 0, 64, 111
1, 191382, Control_c, 0, 64, 99
1, 191397, Control_c, 0, 64, 88
1, 191411, Control_c, 0, 64, 79
1, 191424, Note_on_c, 0, 93, 99
1, 191426, Control_c, 0, 64, 76
1, 191428, Note_off_c, 0, 41, 55
1, 191433, Note_on_c, 0, 81, 92
1, 191440, Note_on_c, 0, 49, 61
1, 191455, Control_c, 0, 64, 78
1, 191470, Control_c, 0, 64, 83
1, 191487, Control_c, 0, 64, 90
1, 191502, Control_c, 0, 64, 98
1, 191516, Control_c, 0, 64, 104
1, 191531, Control_c, 0, 64, 108
1, 191546, Control_c, 0, 64, 112
1, 191560, Control_c, 0, 64, 116
1, 191575, Control_c, 0, 64, 120
1, 191578, Note_off_c, 0, 81, 56
1, 191584, Note_off_c, 0, 93, 59
1, 191590, Control_c, 0, 64, 121
1, 191605, Control_c, 0, 64, 122
1, 191654, Note_off_c, 0, 49, 35
1, 191658, Note_on_c, 0, 57, 50
1, 191663, Note_on_c, 0, 93, 95
1, 191671, Note_on_c, 0, 81, 89
1, 191731, Control_c, 0, 64, 121
1, 191755, Note_off_c, 0, 57, 54
1, 191830, Note_off_c, 0, 93, 39
1, 191844, Note_on_c, 0, 41, 68
1, 191875, Note_off_c, 0, 81, 56
1, 191878, Control_c, 0, 64, 120
1, 191893, Control_c, 0, 64, 114
1, 191908, Control_c, 0, 64, 103
1, 191923, Control_c, 0, 64, 84
1, 191938, Control_c, 0, 64, 66
1, 191952, Control_c, 0, 64, 0
1, 191982, Note_off_c, 0, 41, 58
1, 191991, Note_on_c, 0, 91, 84
1, 192003, Note_on_c, 0, 79, 79
1, 192012, Control_c, 0, 64, 64
1, 192017, Note_on_c, 0, 50, 53
1, 192026, Control_c, 0, 64, 73
1, 192041, Control_c, 0, 64, 82
1, 192056, Control_c, 0, 64, 90
1, 192071, Control_c, 0, 64, 96
1, 192086, Control_c, 0, 64, 102
1, 192092, Note_off_c, 0, 79, 60
1, 192101, Control_c, 0, 64, 107
1, 192116, Control_c, 0, 64, 111
1, 192131, Control_c, 0, 64, 113
1, 192134, Note_off_c, 0, 91, 56
1, 192145, Control_c, 0, 64, 115
1, 192160, Control_c, 0, 64, 115
1, 192175, Control_c, 0, 64, 117
1, 192177, Note_on_c, 0, 89, 78
1, 192187, Note_on_c, 0, 57, 57
1, 192187, Note_on_c, 0, 77, 79
1, 192190, Control_c, 0, 64, 119
1, 192205, Control_c, 0, 64, 121
1, 192220, Control_c, 0, 64, 121
1, 192249, Control_c, 0, 64, 121
1, 192264, Control_c, 0, 64, 118
1, 192280, Control_c, 0, 64, 112
1, 192295, Control_c, 0, 64, 100
1, 192298, Note_off_c, 0, 57, 53
1, 192309, Control_c, 0, 64, 84
1, 192324, Control_c, 0, 64, 64
1, 192339, Control_c, 0, 64, 0
1, 192345, Note_on_c, 0, 43, 65
1, 192354, Note_off_c, 0, 77, 61
1, 192355, Note_off_c, 0, 50, 15
1, 192398, Control_c, 0, 64, 54
1, 192413, Control_c, 0, 64, 66
1, 192419, Note_off_c, 0, 89, 58
1, 192428, Control_c, 0, 64, 70
1, 192443, Control_c, 0, 64, 75
1, 192464, Control_c, 0, 64, 80
1, 192478, Note_off_c, 0, 43, 59
1, 192479, Control_c, 0, 64, 84
1, 192488, Note_on_c, 0, 50, 62
1, 192494, Note_on_c, 0, 88, 74
1, 192494, Control_c, 0, 64, 88
1, 192504, Note_on_c, 0, 76, 72
1, 192509, Control_c, 0, 64, 91
1, 192524, Control_c, 0, 64, 95
1, 192539, Control_c, 0, 64, 98
1, 192554, Control_c, 0, 64, 103
1, 192557, Note_off_c, 0, 76, 62
1, 192569, Control_c, 0, 64, 108
1, 192583, Control_c, 0, 64, 112
1, 192595, Note_off_c, 0, 50, 60
1, 192598, Control_c, 0, 64, 114
1, 192613, Note_off_c, 0, 88, 55
1, 192613, Control_c, 0, 64, 115
1, 192628, Control_c, 0, 64, 116
1, 192643, Control_c, 0, 64, 117
1, 192652, Note_on_c, 0, 59, 50
1, 192654, Note_on_c, 0, 89, 79
1, 192657, Control_c, 0, 64, 118
1, 192672, Note_on_c, 0, 77, 61
1, 192672, Control_c, 0, 64, 119
1, 192687, Control_c, 0, 64, 119
1, 192702, Control_c, 0, 64, 120
1, 192703, Note_off_c, 0, 77, 61
1, 192718, Note_off_c, 0, 89, 64
1, 192734, Note_off_c, 0, 59, 51
1, 192775, Control_c, 0, 64, 117
1, 192790, Control_c, 0, 64, 110
1, 192805, Control_c, 0, 64, 100
1, 192820, Control_c, 0, 64, 88
1, 192835, Control_c, 0, 64, 75
1, 192849, Note_on_c, 0, 86, 80
1, 192849, Control_c, 0, 64, 63
1, 192858, Note_on_c, 0, 74, 65
1, 192858, Note_on_c, 0, 43, 51
1, 192864, Control_c, 0, 64, 0
1, 192883, Note_off_c, 0, 74, 70
1, 192894, Control_c, 0, 64, 57
1, 192908, Control_c, 0, 64, 65
1, 192912, Note_off_c, 0, 86, 62
1, 192923, Control_c, 0, 64, 69
1, 192938, Control_c, 0, 64, 74
1, 192953, Control_c, 0, 64, 78
1, 192968, Control_c, 0, 64, 82
1, 192980, Note_off_c, 0, 43, 55
1, 192982, Control_c, 0, 64, 85
1, 192997, Control_c, 0, 64, 89
1, 193008, Note_on_c, 0, 53, 55
1, 193012, Control_c, 0, 64, 92
1, 193022, Note_on_c, 0, 91, 85
1, 193026, Control_c, 0, 64, 96
1, 193028, Note_on_c, 0, 79, 74
1, 193041, Control_c, 0, 64, 100
1, 193056, Control_c, 0, 64, 104
1, 193064, Note_off_c, 0, 79, 59
1, 193072, Control_c, 0, 64, 106
1, 193079, Note_off_c, 0, 91, 57
1, 193087, Control_c, 0, 64, 108
1, 193102, Control_c, 0, 64, 109
1, 193117, Control_c, 0, 64, 110
1, 193131, Control_c, 0, 64, 111
1, 193146, Control_c, 0, 64, 112
1, 193161, Control_c, 0, 64, 113
1, 193176, Control_c, 0, 64, 114
1, 193189, Note_on_c, 0, 91, 81
1, 193191, Control_c, 0, 64, 115
1, 193199, Note_on_c, 0, 79, 73
1, 193204, Note_on_c, 0, 59, 58
1, 193213, Control_c, 0, 64, 116
1, 193220, Note_off_c, 0, 53, 63
1, 193228, Control_c, 0, 64, 117
1, 193242, Control_c, 0, 64, 119
1, 193249, Note_off_c, 0, 59, 54
1, 193251, Note_off_c, 0, 79, 59
1, 193257, Control_c, 0, 64, 121
1, 193272, Note_off_c, 0, 91, 52
1, 193272, Control_c, 0, 64, 122
1, 193331, Control_c, 0, 64, 121
1, 193346, Control_c, 0, 64, 119
1, 193361, Control_c, 0, 64, 111
1, 193376, Control_c, 0, 64, 100
1, 193391, Control_c, 0, 64, 86
1, 193405, Control_c, 0, 64, 72
1, 193409, Note_on_c, 0, 91, 72
1, 193420, Control_c, 0, 64, 29
1, 193425, Note_on_c, 0, 79, 56
1, 193427, Note_on_c, 0, 60, 47
1, 193428, Note_on_c, 0, 52, 48
1, 193435, Control_c, 0, 64, 0
1, 193445, Note_on_c, 0, 48, 37
1, 193448, Note_off_c, 0, 79, 61
1, 193454, Note_off_c, 0, 91, 57
1, 193464, Control_c, 0, 64, 45
1, 193479, Control_c, 0, 64, 66
1, 193494, Control_c, 0, 64, 72
1, 193509, Control_c, 0, 64, 78
1, 193524, Control_c, 0, 64, 81
1, 193538, Control_c, 0, 64, 83
1, 193553, Control_c, 0, 64, 85
1, 193568, Control_c, 0, 64, 86
1, 193583, Control_c, 0, 64, 87
1, 193597, Control_c, 0, 64, 89
1, 193609, Note_on_c, 0, 84, 70
1, 193613, Control_c, 0, 64, 90
1, 193623, Note_on_c, 0, 72, 53
1, 193628, Control_c, 0, 64, 90
1, 193643, Control_c, 0, 64, 91
1, 193648, Note_off_c, 0, 72, 57
1, 193696, Note_off_c, 0, 84, 60
1, 193776, Note_on_c, 0, 83, 68
1, 193792, Note_on_c, 0, 71, 47
1, 193817, Note_off_c, 0, 71, 57
1, 193846, Note_off_c, 0, 83, 56
1, 193865, Control_c, 0, 64, 90
1, 193881, Control_c, 0, 64, 90
1, 193895, Control_c, 0, 64, 89
1, 193910, Control_c, 0, 64, 87
1, 193925, Control_c, 0, 64, 83
1, 193940, Control_c, 0, 64, 78
1, 193945, Note_on_c, 0, 84, 68
1, 193962, Control_c, 0, 64, 71
1, 193964, Note_on_c, 0, 72, 53
1, 193977, Control_c, 0, 64, 64
1, 193987, Note_off_c, 0, 72, 59
1, 193988, Note_off_c, 0, 84, 58
1, 193992, Control_c, 0, 64, 53
1, 194007, Control_c, 0, 64, 54
1, 194022, Control_c, 0, 64, 63
1, 194036, Control_c, 0, 64, 67
1, 194051, Control_c, 0, 64, 71
1, 194066, Control_c, 0, 64, 74
1, 194080, Control_c, 0, 64, 77
1, 194095, Control_c, 0, 64, 79
1, 194110, Control_c, 0, 64, 80
1, 194125, Control_c, 0, 64, 81
1, 194133, Note_on_c, 0, 81, 71
1, 194140, Control_c, 0, 64, 83
1, 194146, Note_on_c, 0, 69, 50
1, 194155, Control_c, 0, 64, 84
1, 194170, Note_off_c, 0, 69, 60
1, 194170, Control_c, 0, 64, 84
1, 194174, Note_off_c, 0, 81, 50
1, 194199, Control_c, 0, 64, 85
1, 194229, Control_c, 0, 64, 85
1, 194255, Note_off_c, 0, 60, 37
1, 194256, Note_off_c, 0, 52, 41
1, 194282, Note_off_c, 0, 48, 43
1, 194312, Note_on_c, 0, 79, 64
1, 194323, Note_on_c, 0, 67, 50
1, 194348, Note_off_c, 0, 67, 57
1, 194348, Note_off_c, 0, 79, 57
1, 194377, Control_c, 0, 64, 86
1, 194392, Control_c, 0, 64, 86
1, 194407, Control_c, 0, 64, 87
1, 194422, Control_c, 0, 64, 88
1, 194436, Control_c, 0, 64, 89
1, 194451, Control_c, 0, 64, 91
1, 194466, Control_c, 0, 64, 92
1, 194480, Control_c, 0, 64, 93
1, 194488, Note_on_c, 0, 77, 60
1, 194495, Control_c, 0, 64, 95
1, 194505, Note_on_c, 0, 65, 34
1, 194510, Control_c, 0, 64, 97
1, 194514, Note_off_c, 0, 77, 60
1, 194525, Control_c, 0, 64, 98
1, 194536, Note_off_c, 0, 65, 49
1, 194540, Control_c, 0, 64, 100
1, 194554, Control_c, 0, 64, 101
1, 194569, Control_c, 0, 64, 103
1, 194584, Control_c, 0, 64, 105
1, 194599, Control_c, 0, 64, 107
1, 194614, Control_c, 0, 64, 109
1, 194629, Control_c, 0, 64, 112
1, 194643, Control_c, 0, 64, 116
1, 194655, Note_on_c, 0, 74, 62
1, 194658, Control_c, 0, 64, 121
1, 194666, Note_on_c, 0, 62, 48
1, 194674, Control_c, 0, 64, 127
1, 194685, Note_off_c, 0, 74, 66
1, 194701, Note_off_c, 0, 62, 54
1, 194857, Note_on_c, 0, 79, 58
1, 194879, Note_off_c, 0, 79, 63
1, 194893, Note_on_c, 0, 67, 11
1, 194924, Note_off_c, 0, 67, 0
1, 194948, Poly_aftertouch_c, 0, 67, 0
1, 195111, Control_c, 0, 64, 121
1, 195126, Control_c, 0, 64, 115
1, 195127, Note_on_c, 0, 72, 60
1, 195132, Note_on_c, 0, 36, 44
1, 195138, Note_on_c, 0, 60, 47
1, 195141, Control_c, 0, 64, 110
1, 195147, Note_off_c, 0, 72, 65
1, 195156, Control_c, 0, 64, 106
1, 195165, Note_off_c, 0, 60, 51
1, 195171, Control_c, 0, 64, 101
1, 195185, Control_c, 0, 64, 97
1, 195200, Control_c, 0, 64, 94
1, 195215, Control_c, 0, 64, 91
1, 195230, Control_c, 0, 64, 88
1, 195245, Control_c, 0, 64, 86
1, 195259, Control_c, 0, 64, 84
1, 195274, Control_c, 0, 64, 82
1, 195283, Note_on_c, 0, 67, 58
1, 195286, Note_off_c, 0, 36, 47
1, 195289, Control_c, 0, 64, 81
1, 195290, Note_on_c, 0, 55, 48
1, 195295, Note_on_c, 0, 43, 52
1, 195303, Control_c, 0, 64, 80
1, 195308, Note_off_c, 0, 67, 62
1, 195318, Note_off_c, 0, 55, 54
1, 195318, Control_c, 0, 64, 78
1, 195333, Control_c, 0, 64, 77
1, 195348, Control_c, 0, 64, 76
1, 195363, Control_c, 0, 64, 74
1, 195377, Control_c, 0, 64, 72
1, 195392, Control_c, 0, 64, 71
1, 195407, Control_c, 0, 64, 70
1, 195417, Note_on_c, 0, 69, 64
1, 195422, Control_c, 0, 64, 69
1, 195436, Note_on_c, 0, 57, 34
1, 195436, Note_off_c, 0, 69, 65
1, 195459, Control_c, 0, 64, 69
1, 195479, Note_off_c, 0, 57, 32
1, 195487, Note_on_c, 0, 52, 52
1, 195490, Control_c, 0, 64, 68
1, 195520, Control_c, 0, 64, 68
1, 195541, Note_off_c, 0, 52, 59
1, 195550, Note_on_c, 0, 67, 73
1, 195564, Note_on_c, 0, 55, 52
1, 195573, Note_off_c, 0, 67, 68
1, 195589, Note_off_c, 0, 55, 56
1, 195666, Note_on_c, 0, 36, 62
1, 195668, Control_c, 0, 64, 67
1, 195697, Control_c, 0, 64, 67
1, 195700, Note_off_c, 0, 43, 41
1, 195712, Control_c, 0, 64, 66
1, 195726, Control_c, 0, 64, 66
1, 195741, Control_c, 0, 64, 64
1, 195756, Control_c, 0, 64, 63
1, 195771, Control_c, 0, 64, 61
1, 195777, Note_on_c, 0, 71, 66
1, 195782, Note_on_c, 0, 59, 55
1, 195786, Control_c, 0, 64, 58
1, 195800, Control_c, 0, 64, 56
1, 195803, Note_off_c, 0, 71, 67
1, 195803, Note_off_c, 0, 59, 57
1, 195815, Control_c, 0, 64, 53
1, 195830, Control_c, 0, 64, 51
1, 195845, Control_c, 0, 64, 49
1, 195860, Control_c, 0, 64, 48
1, 195868, Note_off_c, 0, 36, 62
1, 195875, Note_on_c, 0, 43, 59
1, 195904, Note_on_c, 0, 74, 74
1, 195918, Note_on_c, 0, 62, 55
1, 195930, Note_off_c, 0, 74, 65
1, 195940, Note_off_c, 0, 62, 57
1, 195949, Control_c, 0, 64, 49
1, 195993, Control_c, 0, 64, 49
1, 196008, Control_c, 0, 64, 50
1, 196030, Note_on_c, 0, 72, 73
1, 196038, Control_c, 0, 64, 51
1, 196039, Note_on_c, 0, 52, 46
1, 196044, Note_on_c, 0, 60, 55
1, 196051, Note_off_c, 0, 72, 71
1, 196052, Control_c, 0, 64, 51
1, 196065, Note_off_c, 0, 60, 57
1, 196082, Control_c, 0, 64, 52
1, 196086, Note_off_c, 0, 52, 60
1, 196155, Note_on_c, 0, 36, 61
1, 196156, Control_c, 0, 64, 52
1, 196171, Control_c, 0, 64, 53
1, 196184, Note_off_c, 0, 43, 40
1, 196186, Control_c, 0, 64, 53
1, 196208, Control_c, 0, 64, 54
1, 196223, Control_c, 0, 64, 54
1, 196238, Control_c, 0, 64, 55
1, 196260, Note_on_c, 0, 72, 75
1, 196269, Note_on_c, 0, 60, 59
1, 196285, Note_off_c, 0, 72, 69
1, 196291, Note_off_c, 0, 60, 60
1, 196313, Control_c, 0, 64, 55
1, 196328, Control_c, 0, 64, 56
1, 196357, Control_c, 0, 64, 56
1, 196373, Note_off_c, 0, 36, 59
1, 196375, Note_on_c, 0, 43, 58
1, 196388, Note_on_c, 0, 74, 71
1, 196393, Note_on_c, 0, 62, 59
1, 196410, Note_off_c, 0, 74, 72
1, 196414, Note_off_c, 0, 62, 62
1, 196490, Control_c, 0, 64, 56
1, 196506, Note_on_c, 0, 76, 82
1, 196513, Note_on_c, 0, 64, 71
1, 196520, Control_c, 0, 64, 55
1, 196525, Note_off_c, 0, 76, 73
1, 196527, Note_on_c, 0, 52, 52
1, 196530, Note_off_c, 0, 64, 67
1, 196549, Control_c, 0, 64, 55
1, 196553, Note_off_c, 0, 52, 63
1, 196579, Control_c, 0, 64, 54
1, 196647, Note_on_c, 0, 35, 58
1, 196650, Note_off_c, 0, 43, 46
1, 196667, Control_c, 0, 64, 54
1, 196757, Note_on_c, 0, 76, 72
1, 196766, Note_on_c, 0, 64, 62
1, 196784, Note_off_c, 0, 76, 67
1, 196786, Control_c, 0, 64, 54
1, 196787, Note_off_c, 0, 64, 65
1, 196811, Note_off_c, 0, 35, 62
1, 196832, Note_on_c, 0, 43, 51
1, 196891, Note_on_c, 0, 74, 70
1, 196903, Note_on_c, 0, 62, 57
1, 196917, Note_off_c, 0, 74, 68
1, 196924, Note_off_c, 0, 62, 59
1, 197019, Note_on_c, 0, 72, 66
1, 197021, Note_on_c, 0, 60, 61
1, 197036, Note_off_c, 0, 72, 67
1, 197040, Note_off_c, 0, 60, 61
1, 197060, Control_c, 0, 64, 55
1, 197113, Note_on_c, 0, 35, 57
1, 197120, Control_c, 0, 64, 55
1, 197156, Note_off_c, 0, 43, 36
1, 197194, Control_c, 0, 64, 56
1, 197224, Control_c, 0, 64, 56
1, 197239, Control_c, 0, 64, 57
1, 197248, Note_off_c, 0, 35, 59
1, 197249, Note_on_c, 0, 72, 72
1, 197254, Control_c, 0, 64, 57
1, 197257, Note_on_c, 0, 43, 50
1, 197259, Note_on_c, 0, 60, 50
1, 197269, Control_c, 0, 64, 58
1, 197273, Note_off_c, 0, 72, 70
1, 197283, Note_off_c, 0, 60, 54
1, 197284, Control_c, 0, 64, 58
1, 197298, Control_c, 0, 64, 59
1, 197343, Control_c, 0, 64, 59
1, 197377, Note_on_c, 0, 71, 60
1, 197389, Note_on_c, 0, 59, 39
1, 197395, Note_off_c, 0, 71, 62
1, 197404, Note_on_c, 0, 50, 56
1, 197417, Control_c, 0, 64, 60
1, 197419, Note_off_c, 0, 59, 52
1, 197476, Control_c, 0, 64, 60
1, 197483, Note_off_c, 0, 50, 59
1, 197490, Control_c, 0, 64, 61
1, 197493, Note_on_c, 0, 69, 74
1, 197504, Note_on_c, 0, 57, 51
1, 197518, Note_off_c, 0, 69, 72
1, 197528, Note_off_c, 0, 57, 56
1, 197535, Control_c, 0, 64, 61
1, 197580, Control_c, 0, 64, 62
1, 197602, Note_on_c, 0, 35, 59
1, 197638, Note_off_c, 0, 43, 40
1, 197720, Note_on_c, 0, 69, 73
1, 197735, Note_on_c, 0, 57, 56
1, 197745, Note_off_c, 0, 69, 69
1, 197750, Note_off_c, 0, 35, 62
1, 197750, Control_c, 0, 64, 62
1, 197759, Note_off_c, 0, 57, 57
1, 197765, Control_c, 0, 64, 63
1, 197767, Note_on_c, 0, 43, 48
1, 197779, Control_c, 0, 64, 63
1, 197809, Control_c, 0, 64, 64
1, 197846, Note_on_c, 0, 66, 67
1, 197854, Note_on_c, 0, 54, 52
1, 197881, Note_off_c, 0, 66, 64
1, 197883, Note_off_c, 0, 54, 62
1, 197941, Note_off_c, 0, 43, 55
1, 197943, Note_on_c, 0, 50, 54
1, 197943, Control_c, 0, 64, 63
1, 197962, Note_on_c, 0, 67, 76
1, 197968, Note_on_c, 0, 55, 69
1, 197988, Control_c, 0, 64, 63
1, 197994, Note_off_c, 0, 55, 67
1, 197995, Note_off_c, 0, 67, 65
1, 198060, Note_off_c, 0, 50, 53
1, 198083, Note_on_c, 0, 37, 64
1, 198187, Note_on_c, 0, 67, 76
1, 198192, Note_on_c, 0, 55, 64
1, 198215, Note_off_c, 0, 67, 65
1, 198220, Note_off_c, 0, 55, 67
1, 198238, Note_off_c, 0, 37, 61
1, 198245, Note_on_c, 0, 43, 57
1, 198299, Control_c, 0, 64, 63
1, 198316, Note_on_c, 0, 70, 76
1, 198325, Note_on_c, 0, 58, 61
1, 198357, Note_off_c, 0, 58, 65
1, 198358, Note_off_c, 0, 70, 59
1, 198429, Note_on_c, 0, 52, 54
1, 198433, Note_on_c, 0, 69, 83
1, 198433, Control_c, 0, 64, 63
1, 198448, Note_on_c, 0, 57, 71
1, 198474, Note_off_c, 0, 57, 66
1, 198477, Note_off_c, 0, 52, 67
1, 198483, Note_off_c, 0, 69, 65
1, 198559, Note_on_c, 0, 37, 68
1, 198617, Note_off_c, 0, 43, 30
1, 198633, Control_c, 0, 64, 63
1, 198657, Note_on_c, 0, 69, 82
1, 198667, Note_on_c, 0, 57, 63
1, 198678, Control_c, 0, 64, 64
1, 198687, Note_off_c, 0, 69, 63
1, 198688, Note_off_c, 0, 57, 60
1, 198738, Control_c, 0, 64, 64
1, 198760, Note_off_c, 0, 37, 63
1, 198761, Note_on_c, 0, 45, 57
1, 198796, Note_on_c, 0, 75, 80
1, 198801, Note_on_c, 0, 63, 68
1, 198827, Note_off_c, 0, 63, 67
1, 198837, Note_off_c, 0, 75, 58
1, 198856, Control_c, 0, 64, 64
1, 198921, Note_on_c, 0, 76, 84
1, 198923, Note_on_c, 0, 52, 61
1, 198924, Note_on_c, 0, 64, 77
1, 198948, Note_off_c, 0, 64, 69
1, 198957, Note_off_c, 0, 76, 68
1, 198973, Note_off_c, 0, 52, 65
1, 199037, Note_off_c, 0, 45, 47
1, 199040, Note_on_c, 0, 37, 71
1, 199136, Note_on_c, 0, 76, 81
1, 199138, Note_on_c, 0, 64, 73
1, 199162, Note_off_c, 0, 64, 68
1, 199172, Note_off_c, 0, 76, 64
1, 199232, Note_off_c, 0, 37, 62
1, 199237, Note_on_c, 0, 45, 56
1, 199266, Note_on_c, 0, 77, 84
1, 199277, Note_on_c, 0, 65, 66
1, 199292, Control_c, 0, 64, 64
1, 199294, Note_off_c, 0, 65, 67
1, 199295, Note_off_c, 0, 77, 60
1, 199389, Note_on_c, 0, 79, 83
1, 199394, Note_on_c, 0, 67, 72
1, 199404, Note_on_c, 0, 52, 61
1, 199413, Note_off_c, 0, 79, 63
1, 199419, Note_off_c, 0, 67, 69
1, 199425, Control_c, 0, 64, 64
1, 199470, Note_off_c, 0, 52, 55
1, 199486, Control_c, 0, 64, 63
1, 199508, Note_on_c, 0, 38, 70
1, 199530, Control_c, 0, 64, 63
1, 199538, Note_off_c, 0, 45, 39
1, 199560, Control_c, 0, 64, 62
1, 199574, Control_c, 0, 64, 62
1, 199589, Control_c, 0, 64, 61
1, 199613, Note_on_c, 0, 79, 75
1, 199619, Control_c, 0, 64, 61
1, 199620, Note_on_c, 0, 67, 66
1, 199634, Control_c, 0, 64, 60
1, 199648, Note_off_c, 0, 79, 59
1, 199648, Note_off_c, 0, 67, 66
1, 199648, Control_c, 0, 64, 60
1, 199693, Control_c, 0, 64, 59
1, 199694, Note_off_c, 0, 38, 61
1, 199706, Note_on_c, 0, 45, 52
1, 199742, Note_on_c, 0, 76, 72
1, 199754, Note_on_c, 0, 64, 60
1, 199774, Note_off_c, 0, 64, 64
1, 199776, Note_off_c, 0, 76, 62
1, 199782, Control_c, 0, 64, 59
1, 199797, Control_c, 0, 64, 58
1, 199827, Control_c, 0, 64, 58
1, 199863, Note_on_c, 0, 77, 80
1, 199866, Note_on_c, 0, 53, 54
1, 199869, Note_on_c, 0, 65, 65
1, 199895, Note_off_c, 0, 77, 60
1, 199896, Note_off_c, 0, 65, 68
1, 199915, Control_c, 0, 64, 58
1, 199921, Note_off_c, 0, 53, 60
1, 199982, Control_c, 0, 64, 59
1, 199984, Note_on_c, 0, 38, 67
1, 200018, Note_off_c, 0, 45, 42
1, 200056, Control_c, 0, 64, 59
1, 200090, Note_on_c, 0, 77, 78
1, 200100, Control_c, 0, 64, 60
1, 200104, Note_on_c, 0, 65, 61
1, 200115, Control_c, 0, 64, 60
1, 200123, Note_off_c, 0, 65, 66
1, 200128, Note_off_c, 0, 77, 58
1, 200130, Control_c, 0, 64, 61
1, 200145, Control_c, 0, 64, 61
1, 200160, Control_c, 0, 64, 62
1, 200182, Note_off_c, 0, 38, 61
1, 200189, Control_c, 0, 64, 62
1, 200191, Note_on_c, 0, 45, 54
1, 200230, Note_on_c, 0, 76, 69
1, 200241, Note_on_c, 0, 64, 48
1, 200254, Note_off_c, 0, 76, 70
1, 200266, Note_off_c, 0, 64, 54
1, 200352, Note_on_c, 0, 53, 55
1, 200355, Note_on_c, 0, 74, 68
1, 200370, Note_on_c, 0, 62, 54
1, 200379, Note_off_c, 0, 74, 69
1, 200393, Note_off_c, 0, 62, 57
1, 200410, Note_off_c, 0, 53, 56
1, 200467, Note_on_c, 0, 38, 68
1, 200487, Control_c, 0, 64, 63
1, 200496, Note_off_c, 0, 45, 42
1, 200546, Control_c, 0, 64, 63
1, 200561, Control_c, 0, 64, 64
1, 200563, Note_on_c, 0, 74, 68
1, 200575, Note_on_c, 0, 62, 45
1, 200576, Control_c, 0, 64, 64
1, 200586, Note_off_c, 0, 74, 69
1, 200590, Control_c, 0, 64, 65
1, 200602, Note_off_c, 0, 62, 35
1, 200605, Control_c, 0, 64, 66
1, 200620, Control_c, 0, 64, 66
1, 200631, Note_off_c, 0, 38, 63
1, 200635, Control_c, 0, 64, 67
1, 200638, Note_on_c, 0, 45, 44
1, 200650, Control_c, 0, 64, 68
1, 200665, Control_c, 0, 64, 69
1, 200680, Control_c, 0, 64, 70
1, 200695, Note_on_c, 0, 76, 75
1, 200702, Control_c, 0, 64, 70
1, 200712, Note_on_c, 0, 64, 51
1, 200719, Note_off_c, 0, 76, 68
1, 200731, Control_c, 0, 64, 71
1, 200735, Note_off_c, 0, 64, 54
1, 200766, Note_off_c, 0, 45, 63
1, 200801, Note_on_c, 0, 53, 58
1, 200816, Note_on_c, 0, 72, 79
1, 200820, Control_c, 0, 64, 70
1, 200826, Note_on_c, 0, 60, 67
1, 200841, Note_off_c, 0, 72, 67
1, 200844, Note_off_c, 0, 60, 64
1, 200850, Control_c, 0, 64, 70
1, 200865, Control_c, 0, 64, 69
1, 200877, Note_off_c, 0, 53, 63
1, 200880, Control_c, 0, 64, 68
1, 200894, Control_c, 0, 64, 66
1, 200909, Control_c, 0, 64, 63
1, 200922, Note_on_c, 0, 39, 69
1, 200924, Control_c, 0, 64, 56
1, 200939, Control_c, 0, 64, 36
1, 200954, Control_c, 0, 64, 0
1, 200998, Control_c, 0, 64, 20
1, 201013, Control_c, 0, 64, 42
1, 201023, Note_on_c, 0, 72, 75
1, 201028, Control_c, 0, 64, 52
1, 201038, Note_on_c, 0, 60, 54
1, 201042, Control_c, 0, 64, 56
1, 201047, Note_off_c, 0, 72, 67
1, 201057, Control_c, 0, 64, 58
1, 201059, Note_off_c, 0, 60, 57
1, 201073, Control_c, 0, 64, 60
1, 201088, Control_c, 0, 64, 61
1, 201092, Note_on_c, 0, 47, 62
1, 201099, Note_off_c, 0, 39, 58
1, 201103, Control_c, 0, 64, 62
1, 201118, Control_c, 0, 64, 63
1, 201133, Control_c, 0, 64, 63
1, 201146, Note_on_c, 0, 70, 73
1, 201147, Control_c, 0, 64, 64
1, 201154, Note_on_c, 0, 58, 63
1, 201162, Control_c, 0, 64, 64
1, 201177, Note_off_c, 0, 70, 60
1, 201187, Note_off_c, 0, 58, 66
1, 201261, Note_on_c, 0, 71, 80
1, 201264, Note_on_c, 0, 54, 64
1, 201268, Note_on_c, 0, 59, 65
1, 201280, Control_c, 0, 64, 63
1, 201293, Note_off_c, 0, 59, 65
1, 201293, Note_off_c, 0, 71, 62
1, 201295, Control_c, 0, 64, 60
1, 201303, Note_off_c, 0, 54, 63
1, 201310, Control_c, 0, 64, 34
1, 201325, Control_c, 0, 64, 0
1, 201374, Note_on_c, 0, 39, 75
1, 201379, Note_off_c, 0, 47, 44
1, 201413, Control_c, 0, 64, 56
1, 201428, Control_c, 0, 64, 70
1, 201451, Control_c, 0, 64, 79
1, 201465, Control_c, 0, 64, 87
1, 201478, Note_on_c, 0, 71, 79
1, 201480, Control_c, 0, 64, 92
1, 201484, Note_on_c, 0, 59, 63
1, 201495, Control_c, 0, 64, 96
1, 201503, Note_off_c, 0, 59, 61
1, 201504, Note_off_c, 0, 71, 62
1, 201510, Control_c, 0, 64, 97
1, 201525, Control_c, 0, 64, 97
1, 201566, Note_off_c, 0, 39, 62
1, 201583, Note_on_c, 0, 47, 68
1, 201584, Control_c, 0, 64, 96
1, 201598, Control_c, 0, 64, 95
1, 201610, Note_on_c, 0, 77, 89
1, 201613, Control_c, 0, 64, 93
1, 201619, Note_on_c, 0, 65, 77
1, 201628, Control_c, 0, 64, 90
1, 201642, Note_off_c, 0, 65, 72
1, 201643, Control_c, 0, 64, 87
1, 201652, Note_off_c, 0, 77, 59
1, 201658, Control_c, 0, 64, 83
1, 201672, Control_c, 0, 64, 80
1, 201687, Control_c, 0, 64, 76
1, 201702, Control_c, 0, 64, 74
1, 201717, Control_c, 0, 64, 71
1, 201728, Note_on_c, 0, 54, 67
1, 201732, Control_c, 0, 64, 69
1, 201735, Note_on_c, 0, 78, 87
1, 201736, Note_on_c, 0, 66, 82
1, 201747, Control_c, 0, 64, 66
1, 201762, Control_c, 0, 64, 64
1, 201769, Note_off_c, 0, 54, 61
1, 201771, Note_off_c, 0, 66, 63
1, 201777, Control_c, 0, 64, 63
1, 201792, Control_c, 0, 64, 62
1, 201795, Note_off_c, 0, 78, 62
1, 201822, Note_off_c, 0, 47, 56
1, 201833, Note_on_c, 0, 39, 75
1, 201881, Control_c, 0, 64, 62
1, 201896, Control_c, 0, 64, 63
1, 201926, Control_c, 0, 64, 63
1, 201941, Note_on_c, 0, 78, 84
1, 201942, Note_on_c, 0, 66, 80
1, 201974, Note_off_c, 0, 66, 67
1, 201998, Note_off_c, 0, 78, 63
1, 202024, Note_on_c, 0, 48, 54
1, 202026, Note_off_c, 0, 39, 64
1, 202030, Control_c, 0, 64, 64
1, 202059, Control_c, 0, 64, 64
1, 202066, Note_on_c, 0, 79, 87
1, 202074, Control_c, 0, 64, 65
1, 202080, Note_on_c, 0, 67, 69
1, 202088, Control_c, 0, 64, 65
1, 202096, Note_off_c, 0, 67, 66
1, 202103, Control_c, 0, 64, 66
1, 202111, Note_off_c, 0, 79, 62
1, 202118, Control_c, 0, 64, 67
1, 202133, Control_c, 0, 64, 67
1, 202148, Control_c, 0, 64, 68
1, 202162, Note_on_c, 0, 54, 58
1, 202162, Control_c, 0, 64, 68
1, 202200, Note_off_c, 0, 54, 63
1, 202203, Note_on_c, 0, 81, 90
1, 202210, Note_on_c, 0, 69, 80
1, 202241, Note_off_c, 0, 69, 64
1, 202244, Control_c, 0, 64, 67
1, 202259, Control_c, 0, 64, 65
1, 202269, Note_off_c, 0, 81, 52
1, 202274, Control_c, 0, 64, 56
1, 202288, Control_c, 0, 64, 0
1, 202295, Note_on_c, 0, 40, 83
1, 202343, Note_off_c, 0, 48, 26
1, 202362, Control_c, 0, 64, 56
1, 202377, Control_c, 0, 64, 64
1, 202392, Control_c, 0, 64, 66
1, 202407, Control_c, 0, 64, 66
1, 202418, Note_on_c, 0, 81, 80
1, 202421, Control_c, 0, 64, 67
1, 202427, Note_on_c, 0, 69, 73
1, 202436, Control_c, 0, 64, 68
1, 202451, Control_c, 0, 64, 69
1, 202452, Note_off_c, 0, 69, 71
1, 202466, Note_off_c, 0, 81, 60
1, 202466, Control_c, 0, 64, 70
1, 202475, Note_on_c, 0, 48, 66
1, 202475, Note_off_c, 0, 40, 61
1, 202481, Control_c, 0, 64, 71
1, 202495, Control_c, 0, 64, 73
1, 202510, Control_c, 0, 64, 74
1, 202525, Control_c, 0, 64, 76
1, 202540, Control_c, 0, 64, 78
1, 202550, Note_on_c, 0, 78, 87
1, 202553, Note_on_c, 0, 66, 79
1, 202555, Control_c, 0, 64, 79
1, 202570, Control_c, 0, 64, 81
1, 202585, Control_c, 0, 64, 82
1, 202597, Note_off_c, 0, 66, 59
1, 202600, Control_c, 0, 64, 82
1, 202614, Note_off_c, 0, 78, 61
1, 202614, Control_c, 0, 64, 83
1, 202631, Note_on_c, 0, 55, 67
1, 202644, Control_c, 0, 64, 84
1, 202674, Control_c, 0, 64, 84
1, 202684, Note_on_c, 0, 79, 92
1, 202690, Note_on_c, 0, 67, 85
1, 202704, Note_off_c, 0, 55, 56
1, 202739, Note_off_c, 0, 67, 60
1, 202749, Control_c, 0, 64, 83
1, 202763, Control_c, 0, 64, 77
1, 202766, Note_off_c, 0, 79, 59
1, 202775, Note_on_c, 0, 41, 83
1, 202778, Control_c, 0, 64, 63
1, 202779, Note_off_c, 0, 48, 27
1, 202793, Control_c, 0, 64, 0
1, 202852, Control_c, 0, 64, 59
1, 202867, Control_c, 0, 64, 68
1, 202882, Control_c, 0, 64, 74
1, 202897, Control_c, 0, 64, 83
1, 202898, Note_on_c, 0, 80, 89
1, 202903, Note_on_c, 0, 68, 83
1, 202911, Control_c, 0, 64, 92
1, 202926, Control_c, 0, 64, 97
1, 202948, Control_c, 0, 64, 100
1, 202959, Note_off_c, 0, 68, 61
1, 202963, Control_c, 0, 64, 101
1, 202978, Control_c, 0, 64, 102
1, 202982, Note_off_c, 0, 80, 62
1, 202996, Note_on_c, 0, 48, 66
1, 203026, Note_off_c, 0, 41, 62
1, 203062, Note_on_c, 0, 83, 91
1, 203067, Control_c, 0, 64, 101
1, 203068, Note_on_c, 0, 71, 86
1, 203098, Note_off_c, 0, 48, 65
1, 203113, Note_off_c, 0, 71, 60
1, 203126, Control_c, 0, 64, 102
1, 203133, Note_on_c, 0, 57, 66
1, 203152, Note_off_c, 0, 83, 57
1, 203185, Control_c, 0, 64, 102
1, 203199, Note_off_c, 0, 57, 60
1, 203200, Control_c, 0, 64, 103
1, 203215, Control_c, 0, 64, 104
1, 203230, Control_c, 0, 64, 104
1, 203234, Note_on_c, 0, 81, 92
1, 203240, Note_on_c, 0, 69, 86
1, 203318, Control_c, 0, 64, 101
1, 203333, Control_c, 0, 64, 92
1, 203342, Note_on_c, 0, 41, 86
1, 203348, Control_c, 0, 64, 75
1, 203363, Control_c, 0, 64, 0
1, 203369, Note_off_c, 0, 69, 61
1, 203385, Note_off_c, 0, 81, 50
1, 203422, Control_c, 0, 64, 59
1, 203437, Control_c, 0, 64, 71
1, 203452, Control_c, 0, 64, 80
1, 203467, Control_c, 0, 64, 93
1, 203472, Note_on_c, 0, 81, 90
1, 203473, Note_on_c, 0, 69, 76
1, 203482, Control_c, 0, 64, 103
1, 203496, Note_off_c, 0, 69, 72
1, 203497, Control_c, 0, 64, 113
1, 203512, Control_c, 0, 64, 117
1, 203521, Note_off_c, 0, 81, 65
1, 203527, Control_c, 0, 64, 119
1, 203541, Control_c, 0, 64, 121
1, 203556, Control_c, 0, 64, 121
1, 203586, Control_c, 0, 64, 122
1, 203609, Note_on_c, 0, 49, 72
1, 203611, Note_off_c, 0, 41, 58
1, 203616, Control_c, 0, 64, 123
1, 203703, Note_on_c, 0, 93, 96
1, 203708, Note_on_c, 0, 81, 94
1, 203712, Control_c, 0, 64, 122
1, 203804, Note_off_c, 0, 49, 60
1, 203823, Note_off_c, 0, 81, 52
1, 203833, Note_on_c, 0, 57, 67
1, 203838, Note_off_c, 0, 93, 60
1, 203907, Note_off_c, 0, 57, 57
1, 203925, Note_on_c, 0, 93, 98
1, 203928, Note_on_c, 0, 81, 93
1, 203964, Control_c, 0, 64, 121
1, 203979, Control_c, 0, 64, 114
1, 203994, Control_c, 0, 64, 105
1, 204008, Control_c, 0, 64, 93
1, 204023, Control_c, 0, 64, 80
1, 204038, Control_c, 0, 64, 68
1, 204052, Note_on_c, 0, 41, 75
1, 204053, Control_c, 0, 64, 37
1, 204067, Control_c, 0, 64, 0
1, 204082, Control_c, 0, 64, 56
1, 204088, Note_off_c, 0, 81, 56
1, 204097, Control_c, 0, 64, 66
1, 204101, Note_off_c, 0, 93, 59
1, 204112, Control_c, 0, 64, 71
1, 204127, Control_c, 0, 64, 77
1, 204141, Control_c, 0, 64, 84
1, 204156, Control_c, 0, 64, 90
1, 204171, Control_c, 0, 64, 95
1, 204182, Note_on_c, 0, 93, 92
1, 204185, Control_c, 0, 64, 97
1, 204187, Note_on_c, 0, 81, 85
1, 204200, Control_c, 0, 64, 100
1, 204215, Control_c, 0, 64, 103
1, 204218, Note_off_c, 0, 41, 57
1, 204230, Control_c, 0, 64, 105
1, 204232, Note_off_c, 0, 81, 62
1, 204241, Note_off_c, 0, 93, 63
1, 204245, Control_c, 0, 64, 108
1, 204247, Note_on_c, 0, 50, 57
1, 204261, Control_c, 0, 64, 109
1, 204276, Control_c, 0, 64, 110
1, 204290, Control_c, 0, 64, 111
1, 204331, Note_on_c, 0, 91, 90
1, 204334, Note_on_c, 0, 79, 83
1, 204335, Control_c, 0, 64, 111
1, 204370, Note_off_c, 0, 79, 62
1, 204377, Note_off_c, 0, 91, 60
1, 204389, Note_on_c, 0, 57, 57
1, 204478, Note_on_c, 0, 89, 89
1, 204480, Note_off_c, 0, 57, 56
1, 204481, Note_on_c, 0, 77, 87
1, 204490, Control_c, 0, 64, 111
1, 204505, Control_c, 0, 64, 108
1, 204520, Control_c, 0, 64, 101
1, 204535, Note_off_c, 0, 77, 58
1, 204535, Control_c, 0, 64, 88
1, 204541, Note_on_c, 0, 43, 68
1, 204550, Control_c, 0, 64, 68
1, 204564, Control_c, 0, 64, 0
1, 204573, Note_off_c, 0, 50, 39
1, 204615, Note_off_c, 0, 89, 50
1, 204638, Control_c, 0, 64, 50
1, 204653, Control_c, 0, 64, 68
1, 204668, Control_c, 0, 64, 73
1, 204683, Control_c, 0, 64, 78
1, 204698, Control_c, 0, 64, 81
1, 204712, Note_on_c, 0, 89, 81
1, 204713, Control_c, 0, 64, 84
1, 204716, Note_on_c, 0, 77, 67
1, 204722, Note_on_c, 0, 50, 60
1, 204728, Control_c, 0, 64, 86
1, 204734, Note_off_c, 0, 43, 59
1, 204743, Control_c, 0, 64, 87
1, 204754, Note_off_c, 0, 77, 60
1, 204758, Control_c, 0, 64, 87
1, 204767, Note_off_c, 0, 89, 64
1, 204802, Control_c, 0, 64, 88
1, 204846, Control_c, 0, 64, 88
1, 204855, Note_off_c, 0, 50, 62
1, 204862, Note_on_c, 0, 76, 73
1, 204865, Note_on_c, 0, 88, 63
1, 204871, Note_on_c, 0, 86, 70
1, 204892, Note_off_c, 0, 76, 63
1, 204904, Note_on_c, 0, 59, 47
1, 204905, Control_c, 0, 64, 89
1, 204916, Note_off_c, 0, 86, 50
1, 204924, Note_off_c, 0, 88, 55
1, 204935, Control_c, 0, 64, 89
1, 204964, Control_c, 0, 64, 90
1, 204991, Note_off_c, 0, 59, 38
1, 204994, Control_c, 0, 64, 90
1, 205008, Note_on_c, 0, 89, 80
1, 205020, Note_on_c, 0, 77, 68
1, 205038, Control_c, 0, 64, 91
1, 205068, Note_off_c, 0, 77, 56
1, 205069, Control_c, 0, 64, 90
1, 205080, Note_off_c, 0, 89, 64
1, 205099, Control_c, 0, 64, 88
1, 205113, Control_c, 0, 64, 84
1, 205128, Control_c, 0, 64, 77
1, 205140, Note_on_c, 0, 43, 67
1, 205143, Control_c, 0, 64, 68
1, 205158, Control_c, 0, 64, 40
1, 205173, Control_c, 0, 64, 0
1, 205239, Control_c, 0, 64, 57
1, 205250, Note_on_c, 0, 86, 79
1, 205254, Note_on_c, 0, 74, 68
1, 205254, Control_c, 0, 64, 64
1, 205269, Control_c, 0, 64, 67
1, 205277, Note_off_c, 0, 74, 70
1, 205284, Control_c, 0, 64, 68
1, 205299, Control_c, 0, 64, 70
1, 205307, Note_off_c, 0, 86, 63
1, 205313, Control_c, 0, 64, 72
1, 205328, Control_c, 0, 64, 74
1, 205343, Control_c, 0, 64, 76
1, 205356, Note_off_c, 0, 43, 36
1, 205358, Control_c, 0, 64, 77
1, 205370, Note_on_c, 0, 53, 61
1, 205373, Control_c, 0, 64, 77
1, 205387, Control_c, 0, 64, 78
1, 205417, Control_c, 0, 64, 79
1, 205446, Note_on_c, 0, 91, 83
1, 205456, Note_on_c, 0, 79, 70
1, 205489, Note_off_c, 0, 79, 60
1, 205512, Note_off_c, 0, 91, 57
1, 205572, Note_on_c, 0, 59, 53
1, 205583, Note_off_c, 0, 53, 62
1, 205619, Note_off_c, 0, 59, 48
1, 205677, Note_on_c, 0, 91, 80
1, 205689, Note_on_c, 0, 79, 65
1, 205713, Control_c, 0, 64, 79
1, 205758, Control_c, 0, 64, 80
1, 205877, Control_c, 0, 64, 79
1, 205892, Control_c, 0, 64, 74
1, 205896, Note_off_c, 0, 79, 33
1, 205902, Note_on_c, 0, 60, 58
1, 205907, Control_c, 0, 64, 67
1, 205913, Note_on_c, 0, 52, 56
1, 205914, Note_on_c, 0, 48, 50
1, 205922, Control_c, 0, 64, 13
1, 205928, Note_off_c, 0, 91, 35
1, 205944, Control_c, 0, 64, 0
1, 206033, Control_c, 0, 64, 60
1, 206048, Control_c, 0, 64, 65
1, 206062, Control_c, 0, 64, 67
1, 206077, Control_c, 0, 64, 70
1, 206084, Note_on_c, 0, 91, 71
1, 206092, Control_c, 0, 64, 75
1, 206099, Note_on_c, 0, 79, 57
1, 206107, Control_c, 0, 64, 80
1, 206120, Note_off_c, 0, 79, 61
1, 206122, Control_c, 0, 64, 85
1, 206123, Note_off_c, 0, 91, 54
1, 206136, Control_c, 0, 64, 89
1, 206151, Control_c, 0, 64, 93
1, 206166, Control_c, 0, 64, 96
1, 206181, Control_c, 0, 64, 100
1, 206196, Control_c, 0, 64, 103
1, 206210, Control_c, 0, 64, 105
1, 206225, Control_c, 0, 64, 107
1, 206240, Control_c, 0, 64, 108
1, 206320, Note_on_c, 0, 84, 68
1, 206346, Note_on_c, 0, 72, 44
1, 206379, Note_off_c, 0, 72, 55
1, 206400, Note_off_c, 0, 84, 59
1, 206477, Control_c, 0, 64, 108
1, 206499, Note_on_c, 0, 83, 66
1, 206507, Control_c, 0, 64, 109
1, 206519, Note_on_c, 0, 71, 43
1, 206522, Control_c, 0, 64, 110
1, 206536, Control_c, 0, 64, 112
1, 206546, Note_off_c, 0, 71, 34
1, 206551, Control_c, 0, 64, 113
1, 206556, Note_off_c, 0, 83, 58
1, 206566, Control_c, 0, 64, 115
1, 206580, Control_c, 0, 64, 118
1, 206595, Control_c, 0, 64, 119
1, 206603, Note_off_c, 0, 60, 50
1, 206610, Control_c, 0, 64, 119
1, 206642, Note_off_c, 0, 48, 41
1, 206642, Note_off_c, 0, 52, 38
1, 206656, Control_c, 0, 64, 115
1, 206671, Control_c, 0, 64, 106
1, 206692, Control_c, 0, 64, 95
1, 206707, Control_c, 0, 64, 84
1, 206715, Note_on_c, 0, 86, 67
1, 206722, Control_c, 0, 64, 76
1, 206737, Control_c, 0, 64, 74
1, 206739, Note_on_c, 0, 74, 42
1, 206752, Control_c, 0, 64, 76
1, 206767, Note_off_c, 0, 74, 58
1, 206767, Control_c, 0, 64, 81
1, 206782, Control_c, 0, 64, 91
1, 206787, Note_off_c, 0, 86, 55
1, 206797, Control_c, 0, 64, 104
1, 206812, Control_c, 0, 64, 115
1, 206826, Control_c, 0, 64, 121
1, 206841, Control_c, 0, 64, 127
1, 206908, Note_on_c, 0, 84, 60
1, 206940, Note_off_c, 0, 84, 66
1, 206989, Control_c, 0, 64, 116
1, 206999, Poly_aftertouch_c, 0, 72, 0
1, 207003, Control_c, 0, 64, 102
1, 207018, Control_c, 0, 64, 89
1, 207033, Control_c, 0, 64, 77
1, 207048, Control_c, 0, 64, 69
1, 207063, Control_c, 0, 64, 68
1, 207077, Control_c, 0, 64, 71
1, 207092, Control_c, 0, 64, 79
1, 207107, Control_c, 0, 64, 91
1, 207118, Note_on_c, 0, 79, 62
1, 207122, Control_c, 0, 64, 103
1, 207137, Control_c, 0, 64, 113
1, 207141, Note_on_c, 0, 67, 41
1, 207152, Control_c, 0, 64, 114
1, 207166, Control_c, 0, 64, 115
1, 207177, Note_off_c, 0, 67, 53
1, 207181, Note_off_c, 0, 79, 59
1, 207181, Control_c, 0, 64, 114
1, 207196, Control_c, 0, 64, 109
1, 207211, Control_c, 0, 64, 98
1, 207226, Control_c, 0, 64, 85
1, 207241, Control_c, 0, 64, 74
1, 207256, Control_c, 0, 64, 66
1, 207271, Control_c, 0, 64, 64
1, 207285, Control_c, 0, 64, 67
1, 207300, Control_c, 0, 64, 73
1, 207315, Control_c, 0, 64, 83
1, 207330, Control_c, 0, 64, 92
1, 207345, Control_c, 0, 64, 98
1, 207346, Note_on_c, 0, 76, 57
1, 207359, Control_c, 0, 64, 101
1, 207366, Note_on_c, 0, 64, 40
1, 207374, Control_c, 0, 64, 103
1, 207389, Control_c, 0, 64, 104
1, 207403, Control_c, 0, 64, 104
1, 207417, Note_off_c, 0, 76, 59
1, 207435, Note_off_c, 0, 64, 58
1, 207501, Control_c, 0, 64, 104
1, 207515, Control_c, 0, 64, 103
1, 207530, Control_c, 0, 64, 102
1, 207545, Control_c, 0, 64, 101
1, 207560, Control_c, 0, 64, 99
1, 207575, Control_c, 0, 64, 97
1, 207590, Control_c, 0, 64, 94
1, 207604, Control_c, 0, 64, 91
1, 207619, Control_c, 0, 64, 87
1, 207634, Control_c, 0, 64, 84
1, 207649, Control_c, 0, 64, 81
1, 207664, Control_c, 0, 64, 78
1, 207679, Control_c, 0, 64, 75
1, 207688, Note_on_c, 0, 72, 48
1, 207694, Control_c, 0, 64, 73
1, 207708, Control_c, 0, 64, 70
1, 207722, Note_on_c, 0, 60, 28
1, 207723, Control_c, 0, 64, 67
1, 207738, Control_c, 0, 64, 64
1, 207753, Control_c, 0, 64, 60
1, 207768, Control_c, 0, 64, 54
1, 207782, Control_c, 0, 64, 48
1, 207797, Control_c, 0, 64, 48
1, 207856, Control_c, 0, 64, 47
1, 208004, Control_c, 0, 64, 48
1, 208019, Control_c, 0, 64, 48
1, 208064, Control_c, 0, 64, 49
1, 208093, Control_c, 0, 64, 49
1, 208153, Control_c, 0, 64, 50
1, 208168, Control_c, 0, 64, 50
1, 208219, Control_c, 0, 64, 51
1, 208233, Control_c, 0, 64, 51
1, 208248, Control_c, 0, 64, 52
1, 208264, Control_c, 0, 64, 52
1, 208279, Control_c, 0, 64, 53
1, 208286, Note_off_c, 0, 60, 41
1, 208294, Control_c, 0, 64, 53
1, 208309, Control_c, 0, 64, 54
1, 208324, Control_c, 0, 64, 54
1, 208341, Note_off_c, 0, 72, 57
1, 208353, Control_c, 0, 64, 56
1, 208368, Control_c, 0, 64, 56
1, 208383, Control_c, 0, 64, 58
1, 208398, Control_c, 0, 64, 58
1, 208412, Control_c, 0, 64, 59
1, 208427, Control_c, 0, 64, 59
1, 208442, Control_c, 0, 64, 60
1, 208457, Control_c, 0, 64, 61
1, 208472, Control_c, 0, 64, 62
1, 208487, Control_c, 0, 64, 63
1, 208502, Control_c, 0, 64, 63
1, 208517, Control_c, 0, 64, 64
1, 208531, Control_c, 0, 64, 64
1, 208546, Control_c, 0, 64, 65
1, 208576, Control_c, 0, 64, 65
1, 208591, Control_c, 0, 64, 66
1, 208605, Control_c, 0, 64, 66
1, 208620, Control_c, 0, 64, 67
1, 208635, Control_c, 0, 64, 68
1, 208649, Control_c, 0, 64, 69
1, 208664, Control_c, 0, 64, 70
1, 208679, Control_c, 0, 64, 71
1, 208694, Control_c, 0, 64, 72
1, 208709, Control_c, 0, 64, 72
1, 208723, Control_c, 0, 64, 73
1, 208738, Control_c, 0, 64, 74
1, 208753, Control_c, 0, 64, 76
1, 208768, Control_c, 0, 64, 78
1, 208782, Control_c, 0, 64, 80
1, 208797, Control_c, 0, 64, 82
1, 208801, Note_on_c, 0, 48, 42
1, 208812, Control_c, 0, 64, 85
1, 208827, Control_c, 0, 64, 88
1, 208842, Control_c, 0, 64, 91
1, 208856, Control_c, 0, 64, 94
1, 208871, Control_c, 0, 64, 97
1, 208886, Control_c, 0, 64, 101
1, 208898, Note_off_c, 0, 48, 60
1, 208901, Control_c, 0, 64, 104
1, 208916, Control_c, 0, 64, 109
1, 208938, Control_c, 0, 64, 112
1, 208953, Control_c, 0, 64, 115
1, 208968, Control_c, 0, 64, 116
1, 208982, Control_c, 0, 64, 116
1, 208997, Control_c, 0, 64, 117
1, 209012, Control_c, 0, 64, 118
1, 209027, Control_c, 0, 64, 119
1, 209042, Control_c, 0, 64, 119
1, 209062, Note_on_c, 0, 63, 42
1, 209073, Control_c, 0, 64, 120
1, 209217, Note_on_c, 0, 60, 39
1, 209217, Note_off_c, 0, 63, 37
1, 209366, Note_off_c, 0, 60, 57
1, 209409, Note_on_c, 0, 63, 30
1, 209569, Note_off_c, 0, 63, 41
1, 209581, Note_on_c, 0, 84, 68
1, 209602, Note_on_c, 0, 55, 38
1, 209765, Note_off_c, 0, 55, 35
1, 209787, Note_on_c, 0, 63, 40
1, 209877, Note_off_c, 0, 63, 52
1, 209896, Control_c, 0, 64, 121
1, 209925, Control_c, 0, 64, 121
1, 209927, Note_on_c, 0, 60, 37
1, 209940, Control_c, 0, 64, 122
1, 209955, Control_c, 0, 64, 123
1, 209970, Control_c, 0, 64, 124
1, 209984, Control_c, 0, 64, 126
1, 209999, Control_c, 0, 64, 127
1, 210052, Note_off_c, 0, 60, 54
1, 210091, Note_on_c, 0, 63, 44
1, 210223, Note_off_c, 0, 63, 55
1, 210253, Note_on_c, 0, 55, 46
1, 210360, Note_off_c, 0, 55, 60
1, 210395, Note_on_c, 0, 63, 43
1, 210541, Note_on_c, 0, 87, 73
1, 210553, Note_off_c, 0, 84, 61
1, 210557, Note_on_c, 0, 60, 47
1, 210558, Note_off_c, 0, 63, 38
1, 210675, Note_off_c, 0, 60, 60
1, 210699, Note_on_c, 0, 63, 35
1, 210725, Note_off_c, 0, 63, 55
1, 210839, Note_off_c, 0, 87, 64
1, 210851, Control_c, 0, 64, 126
1, 210866, Control_c, 0, 64, 108
1, 210880, Control_c, 0, 64, 96
1, 210885, Note_on_c, 0, 86, 71
1, 210895, Control_c, 0, 64, 85
1, 210910, Control_c, 0, 64, 77
1, 210920, Note_on_c, 0, 43, 52
1, 210925, Control_c, 0, 64, 72
1, 210940, Control_c, 0, 64, 72
1, 210955, Control_c, 0, 64, 74
1, 210964, Note_off_c, 0, 43, 63
1, 210970, Control_c, 0, 64, 79
1, 210985, Control_c, 0, 64, 86
1, 210999, Control_c, 0, 64, 91
1, 211014, Control_c, 0, 64, 95
1, 211029, Control_c, 0, 64, 98
1, 211044, Control_c, 0, 64, 99
1, 211058, Control_c, 0, 64, 101
1, 211073, Control_c, 0, 64, 102
1, 211088, Control_c, 0, 64, 103
1, 211094, Note_on_c, 0, 62, 51
1, 211103, Control_c, 0, 64, 104
1, 211118, Control_c, 0, 64, 105
1, 211188, Note_off_c, 0, 62, 46
1, 211216, Note_on_c, 0, 84, 80
1, 211238, Note_on_c, 0, 59, 47
1, 211250, Note_off_c, 0, 86, 58
1, 211345, Note_off_c, 0, 59, 57
1, 211347, Control_c, 0, 64, 104
1, 211362, Control_c, 0, 64, 104
1, 211363, Note_on_c, 0, 62, 43
1, 211391, Control_c, 0, 64, 103
1, 211421, Control_c, 0, 64, 103
1, 211452, Control_c, 0, 64, 102
1, 211467, Control_c, 0, 64, 101
1, 211481, Control_c, 0, 64, 100
1, 211496, Control_c, 0, 64, 99
1, 211511, Control_c, 0, 64, 97
1, 211526, Control_c, 0, 64, 94
1, 211539, Note_on_c, 0, 86, 73
1, 211541, Control_c, 0, 64, 89
1, 211555, Control_c, 0, 64, 83
1, 211567, Note_on_c, 0, 55, 45
1, 211570, Control_c, 0, 64, 74
1, 211575, Note_on_c, 0, 83, 54
1, 211581, Note_off_c, 0, 84, 58
1, 211585, Control_c, 0, 64, 64
1, 211586, Note_off_c, 0, 62, 36
1, 211599, Control_c, 0, 64, 0
1, 211688, Control_c, 0, 64, 23
1, 211703, Control_c, 0, 64, 63
1, 211706, Note_on_c, 0, 62, 44
1, 211714, Note_off_c, 0, 55, 51
1, 211718, Control_c, 0, 64, 68
1, 211733, Control_c, 0, 64, 71
1, 211748, Control_c, 0, 64, 74
1, 211763, Control_c, 0, 64, 76
1, 211778, Control_c, 0, 64, 79
1, 211793, Control_c, 0, 64, 81
1, 211807, Control_c, 0, 64, 84
1, 211822, Control_c, 0, 64, 87
1, 211837, Control_c, 0, 64, 89
1, 211847, Note_off_c, 0, 83, 53
1, 211852, Control_c, 0, 64, 90
1, 211853, Note_on_c, 0, 81, 58
1, 211855, Note_off_c, 0, 62, 51
1, 211867, Control_c, 0, 64, 91
1, 211878, Note_on_c, 0, 59, 44
1, 211881, Control_c, 0, 64, 92
1, 211896, Control_c, 0, 64, 93
1, 211911, Control_c, 0, 64, 93
1, 212021, Note_on_c, 0, 62, 42
1, 212059, Note_off_c, 0, 59, 32
1, 212135, Note_off_c, 0, 81, 56
1, 212160, Note_on_c, 0, 83, 69
1, 212181, Note_off_c, 0, 86, 57
1, 212190, Note_on_c, 0, 55, 47
1, 212195, Note_off_c, 0, 62, 42
1, 212214, Control_c, 0, 64, 93
1, 212307, Note_off_c, 0, 55, 61
1, 212323, Note_on_c, 0, 62, 47
1, 212430, Note_off_c, 0, 83, 53
1, 212463, Note_off_c, 0, 62, 53
1, 212472, Note_on_c, 0, 89, 80
1, 212498, Note_on_c, 0, 79, 57
1, 212505, Note_on_c, 0, 59, 48
1, 212592, Note_off_c, 0, 59, 59
1, 212636, Note_on_c, 0, 62, 50
1, 212696, Control_c, 0, 64, 93
1, 212740, Note_off_c, 0, 89, 64
1, 212741, Control_c, 0, 64, 93
1, 212756, Control_c, 0, 64, 91
1, 212771, Control_c, 0, 64, 84
1, 212785, Control_c, 0, 64, 72
1, 212800, Note_off_c, 0, 62, 52
1, 212800, Control_c, 0, 64, 51
1, 212803, Note_on_c, 0, 88, 81
1, 212815, Control_c, 0, 64, 0
1, 212823, Note_on_c, 0, 48, 58
1, 212860, Control_c, 0, 64, 49
1, 212875, Control_c, 0, 64, 69
1, 212890, Control_c, 0, 64, 76
1, 212900, Note_off_c, 0, 48, 61
1, 212904, Control_c, 0, 64, 83
1, 212919, Control_c, 0, 64, 87
1, 212934, Control_c, 0, 64, 89
1, 212948, Control_c, 0, 64, 90
1, 212963, Control_c, 0, 64, 92
1, 212978, Control_c, 0, 64, 95
1, 212979, Note_on_c, 0, 61, 55
1, 212993, Control_c, 0, 64, 96
1, 213008, Control_c, 0, 64, 98
1, 213022, Control_c, 0, 64, 99
1, 213070, Note_off_c, 0, 79, 49
1, 213101, Note_on_c, 0, 89, 87
1, 213103, Note_off_c, 0, 61, 57
1, 213107, Note_off_c, 0, 88, 62
1, 213140, Note_on_c, 0, 58, 50
1, 213255, Note_off_c, 0, 58, 59
1, 213270, Note_on_c, 0, 61, 43
1, 213290, Control_c, 0, 64, 99
1, 213343, Note_off_c, 0, 89, 35
1, 213445, Control_c, 0, 64, 98
1, 213447, Note_on_c, 0, 91, 80
1, 213453, Note_on_c, 0, 82, 78
1, 213460, Control_c, 0, 64, 94
1, 213475, Note_off_c, 0, 61, 41
1, 213475, Control_c, 0, 64, 87
1, 213476, Note_on_c, 0, 55, 44
1, 213490, Control_c, 0, 64, 79
1, 213505, Control_c, 0, 64, 71
1, 213519, Control_c, 0, 64, 64
1, 213534, Control_c, 0, 64, 47
1, 213549, Control_c, 0, 64, 29
1, 213564, Control_c, 0, 64, 50
1, 213578, Control_c, 0, 64, 61
1, 213593, Control_c, 0, 64, 65
1, 213608, Control_c, 0, 64, 67
1, 213623, Control_c, 0, 64, 69
1, 213626, Note_on_c, 0, 61, 44
1, 213627, Note_off_c, 0, 55, 54
1, 213638, Control_c, 0, 64, 71
1, 213653, Control_c, 0, 64, 73
1, 213668, Control_c, 0, 64, 74
1, 213683, Control_c, 0, 64, 76
1, 213688, Note_off_c, 0, 91, 56
1, 213697, Control_c, 0, 64, 78
1, 213712, Control_c, 0, 64, 79
1, 213727, Control_c, 0, 64, 80
1, 213742, Control_c, 0, 64, 82
1, 213756, Note_off_c, 0, 61, 54
1, 213757, Control_c, 0, 64, 83
1, 213760, Note_on_c, 0, 89, 69
1, 213771, Control_c, 0, 64, 84
1, 213786, Control_c, 0, 64, 85
1, 213793, Note_on_c, 0, 58, 45
1, 213801, Control_c, 0, 64, 85
1, 213816, Control_c, 0, 64, 86
1, 213831, Control_c, 0, 64, 86
1, 213846, Control_c, 0, 64, 87
1, 213861, Control_c, 0, 64, 87
1, 213876, Control_c, 0, 64, 88
1, 213891, Control_c, 0, 64, 88
1, 213906, Note_off_c, 0, 58, 52
1, 213914, Note_on_c, 0, 61, 44
1, 213921, Control_c, 0, 64, 89
1, 213936, Control_c, 0, 64, 89
1, 213950, Control_c, 0, 64, 90
1, 213965, Control_c, 0, 64, 90
1, 213980, Control_c, 0, 64, 91
1, 213994, Control_c, 0, 64, 91
1, 214009, Control_c, 0, 64, 92
1, 214024, Control_c, 0, 64, 92
1, 214026, Note_off_c, 0, 89, 56
1, 214027, Note_off_c, 0, 61, 57
1, 214039, Control_c, 0, 64, 93
1, 214068, Control_c, 0, 64, 93
1, 214070, Note_on_c, 0, 88, 73
1, 214095, Note_on_c, 0, 55, 45
1, 214098, Control_c, 0, 64, 92
1, 214113, Control_c, 0, 64, 87
1, 214122, Note_off_c, 0, 82, 50
1, 214128, Control_c, 0, 64, 80
1, 214142, Control_c, 0, 64, 73
1, 214157, Control_c, 0, 64, 67
1, 214180, Control_c, 0, 64, 62
1, 214195, Control_c, 0, 64, 59
1, 214209, Control_c, 0, 64, 63
1, 214219, Note_off_c, 0, 55, 50
1, 214224, Control_c, 0, 64, 67
1, 214234, Note_on_c, 0, 60, 51
1, 214239, Control_c, 0, 64, 70
1, 214242, Note_off_c, 0, 88, 54
1, 214254, Control_c, 0, 64, 74
1, 214268, Control_c, 0, 64, 76
1, 214283, Control_c, 0, 64, 77
1, 214298, Control_c, 0, 64, 78
1, 214313, Control_c, 0, 64, 80
1, 214314, Note_off_c, 0, 60, 51
1, 214328, Control_c, 0, 64, 81
1, 214342, Control_c, 0, 64, 83
1, 214357, Control_c, 0, 64, 84
1, 214368, Note_on_c, 0, 88, 71
1, 214372, Control_c, 0, 64, 86
1, 214377, Note_on_c, 0, 58, 53
1, 214387, Control_c, 0, 64, 87
1, 214401, Control_c, 0, 64, 89
1, 214402, Note_on_c, 0, 85, 49
1, 214416, Control_c, 0, 64, 90
1, 214431, Control_c, 0, 64, 91
1, 214446, Control_c, 0, 64, 92
1, 214461, Control_c, 0, 64, 93
1, 214475, Control_c, 0, 64, 94
1, 214490, Control_c, 0, 64, 95
1, 214493, Note_off_c, 0, 58, 61
1, 214505, Control_c, 0, 64, 96
1, 214513, Note_on_c, 0, 60, 51
1, 214520, Control_c, 0, 64, 97
1, 214534, Note_off_c, 0, 60, 61
1, 214535, Control_c, 0, 64, 98
1, 214550, Control_c, 0, 64, 99
1, 214565, Control_c, 0, 64, 99
1, 214639, Control_c, 0, 64, 99
1, 214654, Control_c, 0, 64, 95
1, 214669, Control_c, 0, 64, 89
1, 214684, Control_c, 0, 64, 77
1, 214698, Note_off_c, 0, 85, 58
1, 214699, Control_c, 0, 64, 66
1, 214705, Note_off_c, 0, 88, 60
1, 214706, Note_on_c, 0, 89, 72
1, 214714, Control_c, 0, 64, 0
1, 214717, Note_on_c, 0, 84, 58
1, 214723, Note_on_c, 0, 41, 56
1, 214744, Control_c, 0, 64, 25
1, 214753, Note_off_c, 0, 41, 66
1, 214759, Control_c, 0, 64, 63
1, 214773, Control_c, 0, 64, 68
1, 214788, Control_c, 0, 64, 75
1, 214803, Control_c, 0, 64, 81
1, 214817, Control_c, 0, 64, 84
1, 214832, Control_c, 0, 64, 86
1, 214847, Control_c, 0, 64, 89
1, 214862, Control_c, 0, 64, 91
1, 214877, Control_c, 0, 64, 93
1, 214885, Note_on_c, 0, 60, 49
1, 214891, Control_c, 0, 64, 95
1, 214906, Control_c, 0, 64, 97
1, 214929, Control_c, 0, 64, 98
1, 214943, Control_c, 0, 64, 98
1, 214958, Control_c, 0, 64, 99
1, 214970, Note_off_c, 0, 60, 55
1, 214981, Note_off_c, 0, 89, 49
1, 215003, Control_c, 0, 64, 99
1, 215007, Note_off_c, 0, 84, 62
1, 215019, Note_on_c, 0, 82, 69
1, 215021, Note_on_c, 0, 57, 55
1, 215078, Note_off_c, 0, 82, 63
1, 215140, Note_off_c, 0, 57, 53
1, 215146, Note_on_c, 0, 60, 51
1, 215304, Note_off_c, 0, 60, 54
1, 215332, Note_on_c, 0, 81, 82
1, 215340, Note_on_c, 0, 69, 71
1, 215348, Note_on_c, 0, 53, 49
1, 215466, Note_off_c, 0, 53, 60
1, 215471, Note_on_c, 0, 60, 47
1, 215522, Control_c, 0, 64, 99
1, 215611, Control_c, 0, 64, 98
1, 215611, Note_off_c, 0, 60, 55
1, 215630, Note_off_c, 0, 81, 54
1, 215649, Note_on_c, 0, 57, 48
1, 215653, Note_on_c, 0, 79, 71
1, 215655, Control_c, 0, 64, 98
1, 215692, Control_c, 0, 64, 97
1, 215736, Control_c, 0, 64, 97
1, 215766, Control_c, 0, 64, 96
1, 215793, Note_on_c, 0, 60, 38
1, 215810, Note_off_c, 0, 57, 51
1, 215811, Control_c, 0, 64, 96
1, 215841, Control_c, 0, 64, 95
1, 215855, Control_c, 0, 64, 95
1, 215885, Control_c, 0, 64, 94
1, 215900, Control_c, 0, 64, 94
1, 215929, Control_c, 0, 64, 93
1, 215944, Control_c, 0, 64, 92
1, 215948, Note_on_c, 0, 81, 75
1, 215959, Control_c, 0, 64, 92
1, 215960, Note_off_c, 0, 60, 55
1, 215970, Note_on_c, 0, 53, 52
1, 215973, Control_c, 0, 64, 91
1, 215986, Note_off_c, 0, 79, 38
1, 216003, Control_c, 0, 64, 91
1, 216098, Note_on_c, 0, 60, 57
1, 216100, Note_off_c, 0, 53, 59
1, 216121, Control_c, 0, 64, 91
1, 216127, Note_off_c, 0, 81, 33
1, 216157, Note_off_c, 0, 69, 61
1, 216225, Control_c, 0, 64, 87
1, 216233, Note_on_c, 0, 77, 82
1, 216240, Note_off_c, 0, 60, 57
1, 216241, Control_c, 0, 64, 76
1, 216248, Note_on_c, 0, 72, 66
1, 216256, Control_c, 0, 64, 63
1, 216270, Control_c, 0, 64, 0
1, 216271, Note_on_c, 0, 57, 45
1, 216315, Control_c, 0, 64, 54
1, 216330, Control_c, 0, 64, 65
1, 216344, Control_c, 0, 64, 70
1, 216359, Control_c, 0, 64, 74
1, 216373, Note_off_c, 0, 57, 58
1, 216374, Control_c, 0, 64, 77
1, 216389, Control_c, 0, 64, 78
1, 216389, Note_on_c, 0, 60, 47
1, 216404, Control_c, 0, 64, 79
1, 216426, Control_c, 0, 64, 80
1, 216441, Control_c, 0, 64, 81
1, 216456, Control_c, 0, 64, 82
1, 216470, Control_c, 0, 64, 83
1, 216485, Control_c, 0, 64, 83
1, 216491, Note_off_c, 0, 72, 60
1, 216562, Note_on_c, 0, 75, 82
1, 216565, Note_off_c, 0, 60, 52
1, 216589, Control_c, 0, 64, 82
1, 216597, Note_off_c, 0, 77, 55
1, 216598, Note_on_c, 0, 50, 47
1, 216604, Control_c, 0, 64, 79
1, 216619, Control_c, 0, 64, 67
1, 216634, Control_c, 0, 64, 0
1, 216723, Control_c, 0, 64, 58
1, 216738, Control_c, 0, 64, 67
1, 216744, Note_on_c, 0, 62, 49
1, 216752, Control_c, 0, 64, 71
1, 216763, Note_off_c, 0, 50, 36
1, 216767, Control_c, 0, 64, 74
1, 216782, Control_c, 0, 64, 77
1, 216796, Control_c, 0, 64, 79
1, 216811, Control_c, 0, 64, 80
1, 216827, Control_c, 0, 64, 81
1, 216842, Control_c, 0, 64, 82
1, 216860, Note_on_c, 0, 74, 75
1, 216864, Note_off_c, 0, 62, 60
1, 216871, Control_c, 0, 64, 82
1, 216886, Control_c, 0, 64, 83
1, 216898, Note_on_c, 0, 60, 50
1, 216916, Control_c, 0, 64, 83
1, 216945, Control_c, 0, 64, 84
1, 216989, Control_c, 0, 64, 84
1, 216997, Note_off_c, 0, 60, 52
1, 217004, Control_c, 0, 64, 85
1, 217008, Note_on_c, 0, 62, 50
1, 217019, Control_c, 0, 64, 85
1, 217050, Control_c, 0, 64, 86
1, 217065, Control_c, 0, 64, 86
1, 217094, Control_c, 0, 64, 87
1, 217140, Note_off_c, 0, 75, 54
1, 217143, Note_off_c, 0, 74, 57
1, 217150, Note_off_c, 0, 62, 52
1, 217154, Control_c, 0, 64, 86
1, 217161, Note_on_c, 0, 78, 87
1, 217176, Control_c, 0, 64, 85
1, 217191, Control_c, 0, 64, 80
1, 217194, Note_on_c, 0, 57, 51
1, 217206, Note_on_c, 0, 72, 54
1, 217206, Control_c, 0, 64, 74
1, 217220, Control_c, 0, 64, 66
1, 217235, Control_c, 0, 64, 45
1, 217250, Control_c, 0, 64, 0
1, 217280, Control_c, 0, 64, 45
1, 217294, Control_c, 0, 64, 59
1, 217309, Control_c, 0, 64, 63
1, 217310, Note_off_c, 0, 57, 57
1, 217324, Control_c, 0, 64, 64
1, 217333, Note_on_c, 0, 62, 45
1, 217339, Control_c, 0, 64, 64
1, 217354, Control_c, 0, 64, 65
1, 217368, Control_c, 0, 64, 66
1, 217383, Control_c, 0, 64, 66
1, 217398, Control_c, 0, 64, 67
1, 217413, Control_c, 0, 64, 68
1, 217427, Control_c, 0, 64, 70
1, 217437, Note_off_c, 0, 72, 55
1, 217442, Control_c, 0, 64, 71
1, 217447, Note_off_c, 0, 62, 57
1, 217457, Control_c, 0, 64, 72
1, 217462, Note_on_c, 0, 71, 59
1, 217472, Control_c, 0, 64, 72
1, 217487, Control_c, 0, 64, 73
1, 217492, Note_on_c, 0, 60, 47
1, 217501, Control_c, 0, 64, 73
1, 217516, Control_c, 0, 64, 74
1, 217546, Control_c, 0, 64, 74
1, 217590, Control_c, 0, 64, 75
1, 217594, Note_off_c, 0, 60, 50
1, 217619, Control_c, 0, 64, 75
1, 217620, Note_on_c, 0, 62, 40
1, 217649, Control_c, 0, 64, 76
1, 217693, Control_c, 0, 64, 76
1, 217745, Note_off_c, 0, 62, 55
1, 217758, Note_on_c, 0, 72, 62
1, 217772, Note_on_c, 0, 57, 58
1, 217781, Note_off_c, 0, 78, 34
1, 217797, Note_off_c, 0, 71, 37
1, 217797, Control_c, 0, 64, 77
1, 217842, Control_c, 0, 64, 77
1, 217857, Control_c, 0, 64, 78
1, 217865, Note_off_c, 0, 57, 57
1, 217872, Control_c, 0, 64, 78
1, 217878, Note_off_c, 0, 72, 60
1, 217885, Note_on_c, 0, 62, 55
1, 217887, Control_c, 0, 64, 79
1, 217902, Control_c, 0, 64, 79
1, 217924, Control_c, 0, 64, 80
1, 217998, Control_c, 0, 64, 78
1, 218013, Control_c, 0, 64, 73
1, 218017, Note_off_c, 0, 62, 53
1, 218028, Control_c, 0, 64, 64
1, 218042, Control_c, 0, 64, 0
1, 218055, Note_on_c, 0, 81, 78
1, 218063, Note_on_c, 0, 60, 52
1, 218067, Note_on_c, 0, 69, 68
1, 218087, Control_c, 0, 64, 34
1, 218102, Control_c, 0, 64, 63
1, 218112, Note_off_c, 0, 69, 63
1, 218116, Control_c, 0, 64, 67
1, 218131, Control_c, 0, 64, 70
1, 218146, Control_c, 0, 64, 74
1, 218151, Note_off_c, 0, 81, 61
1, 218160, Control_c, 0, 64, 76
1, 218169, Note_off_c, 0, 60, 61
1, 218175, Control_c, 0, 64, 79
1, 218190, Control_c, 0, 64, 81
1, 218196, Note_on_c, 0, 62, 58
1, 218205, Control_c, 0, 64, 84
1, 218220, Control_c, 0, 64, 85
1, 218234, Control_c, 0, 64, 87
1, 218249, Control_c, 0, 64, 88
1, 218256, Note_off_c, 0, 62, 47
1, 218264, Control_c, 0, 64, 89
1, 218279, Control_c, 0, 64, 89
1, 218294, Control_c, 0, 64, 90
1, 218354, Control_c, 0, 64, 89
1, 218368, Control_c, 0, 64, 85
1, 218383, Control_c, 0, 64, 79
1, 218385, Note_on_c, 0, 86, 77
1, 218389, Note_on_c, 0, 59, 52
1, 218398, Control_c, 0, 64, 71
1, 218404, Note_on_c, 0, 74, 58
1, 218410, Note_on_c, 0, 77, 42
1, 218413, Control_c, 0, 64, 60
1, 218428, Control_c, 0, 64, 0
1, 218457, Control_c, 0, 64, 36
1, 218470, Note_off_c, 0, 77, 55
1, 218472, Control_c, 0, 64, 61
1, 218487, Control_c, 0, 64, 65
1, 218502, Control_c, 0, 64, 67
1, 218515, Note_off_c, 0, 59, 59
1, 218516, Control_c, 0, 64, 68
1, 218526, Note_on_c, 0, 62, 67
1, 218531, Control_c, 0, 64, 69
1, 218546, Control_c, 0, 64, 71
1, 218560, Control_c, 0, 64, 73
1, 218575, Control_c, 0, 64, 75
1, 218577, Note_off_c, 0, 86, 58
1, 218590, Control_c, 0, 64, 76
1, 218605, Control_c, 0, 64, 77
1, 218620, Control_c, 0, 64, 79
1, 218636, Control_c, 0, 64, 80
1, 218651, Control_c, 0, 64, 81
1, 218653, Note_off_c, 0, 62, 61
1, 218670, Note_on_c, 0, 65, 81
1, 218673, Control_c, 0, 64, 83
1, 218677, Note_on_c, 0, 84, 73
1, 218687, Control_c, 0, 64, 84
1, 218702, Control_c, 0, 64, 86
1, 218717, Control_c, 0, 64, 87
1, 218732, Control_c, 0, 64, 88
1, 218747, Control_c, 0, 64, 89
1, 218762, Control_c, 0, 64, 90
1, 218777, Control_c, 0, 64, 90
1, 218791, Control_c, 0, 64, 91
1, 218806, Control_c, 0, 64, 92
1, 218811, Note_off_c, 0, 65, 63
1, 218820, Note_on_c, 0, 68, 84
1, 218821, Control_c, 0, 64, 92
1, 218836, Control_c, 0, 64, 93
1, 218883, Note_off_c, 0, 68, 61
1, 218935, Note_off_c, 0, 84, 57
1, 218998, Control_c, 0, 64, 92
1, 219013, Control_c, 0, 64, 90
1, 219028, Control_c, 0, 64, 88
1, 219043, Control_c, 0, 64, 84
1, 219057, Control_c, 0, 64, 77
1, 219072, Control_c, 0, 64, 67
1, 219075, Note_on_c, 0, 83, 66
1, 219075, Note_on_c, 0, 53, 81
1, 219087, Control_c, 0, 64, 0
1, 219115, Note_off_c, 0, 74, 59
1, 219191, Control_c, 0, 64, 34
1, 219206, Control_c, 0, 64, 62
1, 219221, Control_c, 0, 64, 66
1, 219236, Control_c, 0, 64, 69
1, 219239, Note_off_c, 0, 83, 57
1, 219248, Note_on_c, 0, 86, 61
1, 219251, Control_c, 0, 64, 70
1, 219265, Control_c, 0, 64, 72
1, 219280, Control_c, 0, 64, 74
1, 219295, Control_c, 0, 64, 76
1, 219310, Control_c, 0, 64, 78
1, 219325, Control_c, 0, 64, 80
1, 219339, Control_c, 0, 64, 82
1, 219354, Control_c, 0, 64, 83
1, 219369, Control_c, 0, 64, 83
1, 219375, Note_off_c, 0, 86, 53
1, 219383, Control_c, 0, 64, 84
1, 219398, Control_c, 0, 64, 84
1, 219400, Note_on_c, 0, 80, 67
1, 219421, Control_c, 0, 64, 85
1, 219451, Control_c, 0, 64, 86
1, 219466, Control_c, 0, 64, 86
1, 219510, Control_c, 0, 64, 87
1, 219546, Note_on_c, 0, 83, 64
1, 219553, Note_off_c, 0, 80, 55
1, 219654, Note_off_c, 0, 53, 36
1, 219701, Note_on_c, 0, 77, 63
1, 219792, Control_c, 0, 64, 87
1, 219807, Control_c, 0, 64, 88
1, 219811, Note_off_c, 0, 83, 36
1, 219822, Control_c, 0, 64, 88
1, 219835, Note_off_c, 0, 77, 56
1, 219837, Control_c, 0, 64, 89
1, 219844, Note_on_c, 0, 80, 64
1, 219852, Control_c, 0, 64, 89
1, 219926, Control_c, 0, 64, 87
1, 219930, Note_off_c, 0, 80, 61
1, 219940, Control_c, 0, 64, 83
1, 219955, Control_c, 0, 64, 73
1, 219969, Note_on_c, 0, 56, 81
1, 219970, Control_c, 0, 64, 63
1, 219985, Control_c, 0, 64, 0
1, 219987, Note_on_c, 0, 74, 55
1, 220029, Control_c, 0, 64, 59
1, 220044, Control_c, 0, 64, 66
1, 220059, Control_c, 0, 64, 68
1, 220074, Control_c, 0, 64, 71
1, 220088, Control_c, 0, 64, 74
1, 220103, Control_c, 0, 64, 77
1, 220118, Control_c, 0, 64, 81
1, 220121, Note_off_c, 0, 74, 53
1, 220133, Control_c, 0, 64, 84
1, 220140, Note_on_c, 0, 77, 57
1, 220148, Control_c, 0, 64, 87
1, 220170, Note_off_c, 0, 56, 59
1, 220170, Control_c, 0, 64, 89
1, 220185, Control_c, 0, 64, 90
1, 220200, Control_c, 0, 64, 91
1, 220214, Control_c, 0, 64, 92
1, 220223, Note_off_c, 0, 77, 50
1, 220275, Control_c, 0, 64, 90
1, 220290, Control_c, 0, 64, 87
1, 220291, Note_on_c, 0, 56, 70
1, 220305, Control_c, 0, 64, 79
1, 220319, Control_c, 0, 64, 70
1, 220334, Control_c, 0, 64, 56
1, 220342, Note_on_c, 0, 71, 28
1, 220349, Control_c, 0, 64, 0
1, 220393, Control_c, 0, 64, 51
1, 220408, Control_c, 0, 64, 63
1, 220423, Control_c, 0, 64, 66
1, 220437, Control_c, 0, 64, 68
1, 220452, Control_c, 0, 64, 70
1, 220467, Control_c, 0, 64, 72
1, 220482, Note_on_c, 0, 74, 46
1, 220482, Control_c, 0, 64, 75
1, 220487, Note_off_c, 0, 71, 39
1, 220497, Control_c, 0, 64, 77
1, 220512, Control_c, 0, 64, 79
1, 220527, Control_c, 0, 64, 81
1, 220542, Control_c, 0, 64, 82
1, 220556, Control_c, 0, 64, 84
1, 220571, Control_c, 0, 64, 85
1, 220584, Note_off_c, 0, 56, 54
1, 220586, Control_c, 0, 64, 87
1, 220601, Control_c, 0, 64, 88
1, 220613, Note_on_c, 0, 71, 51
1, 220615, Note_on_c, 0, 55, 61
1, 220616, Control_c, 0, 64, 89
1, 220631, Control_c, 0, 64, 91
1, 220631, Note_off_c, 0, 74, 33
1, 220645, Control_c, 0, 64, 92
1, 220660, Control_c, 0, 64, 93
1, 220675, Control_c, 0, 64, 93
1, 220690, Control_c, 0, 64, 94
1, 220717, Note_off_c, 0, 55, 59
1, 220719, Control_c, 0, 64, 94
1, 220743, Note_off_c, 0, 71, 57
1, 220763, Control_c, 0, 64, 95
1, 220765, Note_on_c, 0, 74, 38
1, 220792, Note_off_c, 0, 74, 57
1, 220919, Control_c, 0, 64, 93
1, 220934, Control_c, 0, 64, 90
1, 220944, Note_on_c, 0, 41, 69
1, 220949, Control_c, 0, 64, 85
1, 220952, Note_on_c, 0, 74, 38
1, 220953, Note_on_c, 0, 53, 52
1, 220963, Note_on_c, 0, 71, 37
1, 220963, Control_c, 0, 64, 80
1, 220977, Note_on_c, 0, 67, 37
1, 220978, Control_c, 0, 64, 74
1, 220993, Control_c, 0, 64, 69
1, 221008, Control_c, 0, 64, 63
1, 221023, Control_c, 0, 64, 47
1, 221039, Control_c, 0, 64, 0
1, 221068, Control_c, 0, 64, 21
1, 221083, Control_c, 0, 64, 34
1, 221098, Control_c, 0, 64, 41
1, 221111, Note_off_c, 0, 71, 47
1, 221113, Control_c, 0, 64, 43
1, 221120, Note_off_c, 0, 74, 48
1, 221121, Note_on_c, 0, 79, 46
1, 221128, Control_c, 0, 64, 45
1, 221138, Note_off_c, 0, 67, 21
1, 221142, Control_c, 0, 64, 47
1, 221157, Control_c, 0, 64, 49
1, 221172, Control_c, 0, 64, 52
1, 221186, Control_c, 0, 64, 54
1, 221201, Control_c, 0, 64, 55
1, 221216, Control_c, 0, 64, 56
1, 221231, Control_c, 0, 64, 57
1, 221241, Note_off_c, 0, 53, 58
1, 221246, Control_c, 0, 64, 58
1, 221248, Note_off_c, 0, 79, 35
1, 221256, Note_on_c, 0, 51, 58
1, 221260, Control_c, 0, 64, 58
1, 221263, Note_on_c, 0, 74, 48
1, 221267, Note_on_c, 0, 67, 35
1, 221305, Note_on_c, 0, 71, 3
1, 221320, Control_c, 0, 64, 59
1, 221334, Control_c, 0, 64, 61
1, 221349, Control_c, 0, 64, 62
1, 221364, Control_c, 0, 64, 63
1, 221379, Control_c, 0, 64, 63
1, 221409, Control_c, 0, 64, 64
1, 221419, Note_off_c, 0, 74, 45
1, 221424, Control_c, 0, 64, 64
1, 221426, Note_on_c, 0, 79, 45
1, 221445, Note_off_c, 0, 67, 39
1, 221447, Note_off_c, 0, 71, 39
1, 221454, Control_c, 0, 64, 65
1, 221483, Control_c, 0, 64, 65
1, 221528, Control_c, 0, 64, 66
1, 221560, Note_off_c, 0, 79, 34
1, 221570, Note_on_c, 0, 67, 35
1, 221570, Note_on_c, 0, 71, 39
1, 221572, Note_on_c, 0, 53, 56
1, 221577, Note_on_c, 0, 74, 39
1, 221581, Note_off_c, 0, 51, 54
1, 221587, Control_c, 0, 64, 66
1, 221602, Control_c, 0, 64, 67
1, 221604, Note_off_c, 0, 41, 37
1, 221632, Control_c, 0, 64, 67
1, 221668, Control_c, 0, 64, 68
1, 221698, Control_c, 0, 64, 68
1, 221732, Note_off_c, 0, 74, 54
1, 221743, Control_c, 0, 64, 69
1, 221749, Note_off_c, 0, 71, 52
1, 221758, Control_c, 0, 64, 69
1, 221759, Note_on_c, 0, 79, 36
1, 221782, Note_off_c, 0, 67, 40
1, 221802, Control_c, 0, 64, 69
1, 221817, Control_c, 0, 64, 67
1, 221832, Control_c, 0, 64, 57
1, 221847, Control_c, 0, 64, 0
1, 221880, Note_off_c, 0, 79, 24
1, 221891, Note_on_c, 0, 74, 48
1, 221904, Note_on_c, 0, 67, 32
1, 221909, Note_on_c, 0, 71, 37
1, 221910, Note_on_c, 0, 43, 52
1, 221911, Note_on_c, 0, 50, 42
1, 221917, Note_off_c, 0, 53, 55
1, 221952, Control_c, 0, 64, 64
1, 221958, Note_off_c, 0, 50, 63
1, 221966, Control_c, 0, 64, 71
1, 221981, Control_c, 0, 64, 77
1, 221996, Control_c, 0, 64, 82
1, 222004, Note_off_c, 0, 74, 61
1, 222010, Control_c, 0, 64, 86
1, 222025, Control_c, 0, 64, 90
1, 222029, Note_off_c, 0, 71, 49
1, 222030, Note_off_c, 0, 43, 59
1, 222040, Control_c, 0, 64, 92
1, 222043, Note_on_c, 0, 79, 38
1, 222055, Control_c, 0, 64, 94
1, 222069, Control_c, 0, 64, 95
1, 222083, Note_off_c, 0, 67, 39
1, 222083, Control_c, 0, 64, 96
1, 222128, Control_c, 0, 64, 96
1, 222172, Control_c, 0, 64, 96
1, 222202, Control_c, 0, 64, 95
1, 222217, Control_c, 0, 64, 94
1, 222230, Note_on_c, 0, 75, 46
1, 222232, Control_c, 0, 64, 93
1, 222236, Note_on_c, 0, 48, 45
1, 222238, Note_on_c, 0, 67, 26
1, 222245, Note_on_c, 0, 43, 47
1, 222247, Control_c, 0, 64, 92
1, 222250, Note_off_c, 0, 79, 36
1, 222262, Control_c, 0, 64, 89
1, 222273, Note_on_c, 0, 72, 26
1, 222276, Control_c, 0, 64, 86
1, 222291, Control_c, 0, 64, 82
1, 222306, Control_c, 0, 64, 79
1, 222321, Control_c, 0, 64, 75
1, 222335, Control_c, 0, 64, 70
1, 222350, Control_c, 0, 64, 61
1, 222365, Control_c, 0, 64, 0
1, 222387, Note_off_c, 0, 75, 54
1, 222410, Note_on_c, 0, 79, 44
1, 222417, Note_off_c, 0, 72, 41
1, 222434, Note_off_c, 0, 67, 41
1, 222553, Note_on_c, 0, 75, 49
1, 222554, Note_off_c, 0, 43, 55
1, 222558, Note_off_c, 0, 79, 40
1, 222563, Note_on_c, 0, 72, 27
1, 222565, Note_on_c, 0, 41, 45
1, 222576, Note_on_c, 0, 67, 20
1, 222700, Note_off_c, 0, 75, 52
1, 222716, Note_off_c, 0, 72, 35
1, 222718, Note_on_c, 0, 79, 35
1, 222731, Note_off_c, 0, 67, 40
1, 222843, Note_off_c, 0, 79, 40
1, 222855, Note_on_c, 0, 75, 41
1, 222874, Note_on_c, 0, 39, 41
1, 222876, Note_on_c, 0, 67, 26
1, 222876, Note_on_c, 0, 72, 21
1, 222880, Note_off_c, 0, 41, 43
1, 223008, Note_off_c, 0, 75, 54
1, 223019, Note_on_c, 0, 79, 47
1, 223019, Note_off_c, 0, 72, 41
1, 223043, Note_off_c, 0, 67, 40
1, 223177, Note_on_c, 0, 67, 34
1, 223180, Note_off_c, 0, 79, 36
1, 223184, Note_on_c, 0, 75, 44
1, 223193, Note_off_c, 0, 39, 46
1, 223198, Note_on_c, 0, 72, 17
1, 223201, Note_on_c, 0, 38, 40
1, 223334, Note_off_c, 0, 75, 53
1, 223335, Note_on_c, 0, 79, 47
1, 223347, Note_off_c, 0, 72, 39
1, 223366, Note_off_c, 0, 67, 42
1, 223482, Note_off_c, 0, 79, 50
1, 223524, Note_on_c, 0, 75, 42
1, 223527, Note_on_c, 0, 67, 29
1, 223528, Note_off_c, 0, 38, 51
1, 223549, Note_on_c, 0, 72, 27
1, 223553, Note_on_c, 0, 39, 39
1, 223692, Note_off_c, 0, 75, 52
1, 223698, Note_off_c, 0, 67, 46
1, 223699, Note_off_c, 0, 72, 43
1, 223704, Note_on_c, 0, 79, 35
1, 223759, Control_c, 0, 64, 16
1, 223773, Control_c, 0, 64, 28
1, 223788, Control_c, 0, 64, 37
1, 223803, Control_c, 0, 64, 45
1, 223818, Control_c, 0, 64, 53
1, 223833, Control_c, 0, 64, 59
1, 223847, Control_c, 0, 64, 62
1, 223862, Note_off_c, 0, 79, 36
1, 223862, Control_c, 0, 64, 63
1, 223871, Note_on_c, 0, 67, 23
1, 223877, Note_on_c, 0, 75, 31
1, 223877, Control_c, 0, 64, 65
1, 223892, Control_c, 0, 64, 66
1, 223895, Note_off_c, 0, 39, 47
1, 223896, Note_on_c, 0, 72, 8
1, 223914, Note_on_c, 0, 36, 39
1, 223914, Control_c, 0, 64, 67
1, 223929, Control_c, 0, 64, 70
1, 223944, Control_c, 0, 64, 73
1, 223959, Control_c, 0, 64, 76
1, 223974, Control_c, 0, 64, 79
1, 223988, Control_c, 0, 64, 82
1, 224003, Control_c, 0, 64, 85
1, 224018, Control_c, 0, 64, 88
1, 224033, Control_c, 0, 64, 91
1, 224048, Control_c, 0, 64, 94
1, 224062, Control_c, 0, 64, 98
1, 224077, Control_c, 0, 64, 101
1, 224080, Note_on_c, 0, 79, 52
1, 224092, Control_c, 0, 64, 104
1, 224100, Note_off_c, 0, 48, 44
1, 224107, Control_c, 0, 64, 107
1, 224117, Note_off_c, 0, 79, 62
1, 224122, Control_c, 0, 64, 109
1, 224122, Note_off_c, 0, 67, 40
1, 224137, Control_c, 0, 64, 111
1, 224151, Control_c, 0, 64, 112
1, 224153, Note_off_c, 0, 36, 39
1, 224160, Note_off_c, 0, 72, 39
1, 224166, Control_c, 0, 64, 113
1, 224172, Note_off_c, 0, 75, 39
1, 224181, Control_c, 0, 64, 113
1, 224211, Control_c, 0, 64, 114
1, 224226, Control_c, 0, 64, 114
1, 224241, Control_c, 0, 64, 115
1, 224256, Control_c, 0, 64, 115
1, 224389, Control_c, 0, 64, 114
1, 224403, Control_c, 0, 64, 110
1, 224418, Control_c, 0, 64, 104
1, 224433, Control_c, 0, 64, 95
1, 224448, Control_c, 0, 64, 83
1, 224456, Note_on_c, 0, 72, 88
1, 224458, Note_on_c, 0, 48, 103
1, 224459, Note_on_c, 0, 63, 98
1, 224462, Note_on_c, 0, 60, 98
1, 224463, Note_on_c, 0, 36, 85
1, 224463, Note_on_c, 0, 43, 88
1, 224463, Control_c, 0, 64, 74
1, 224464, Note_on_c, 0, 39, 89
1, 224464, Note_on_c, 0, 67, 84
1, 224477, Control_c, 0, 64, 64
1, 224492, Control_c, 0, 64, 0
1, 224509, Note_off_c, 0, 60, 62
1, 224516, Note_off_c, 0, 72, 66
1, 224533, Note_off_c, 0, 67, 65
1, 224539, Note_off_c, 0, 63, 67
1, 224742, Note_on_c, 0, 60, 86
1, 224778, Note_off_c, 0, 60, 64
1, 224864, Note_on_c, 0, 62, 81
1, 224912, Note_off_c, 0, 62, 57
1, 224959, Control_c, 0, 64, 45
1, 224974, Control_c, 0, 64, 51
1, 224975, Note_on_c, 0, 63, 82
1, 224989, Control_c, 0, 64, 55
1, 225003, Control_c, 0, 64, 57
1, 225018, Control_c, 0, 64, 58
1, 225028, Note_off_c, 0, 63, 66
1, 225048, Note_on_c, 0, 65, 81
1, 225049, Control_c, 0, 64, 58
1, 225064, Control_c, 0, 64, 56
1, 225079, Control_c, 0, 64, 56
1, 225093, Control_c, 0, 64, 55
1, 225104, Note_off_c, 0, 65, 64
1, 225108, Control_c, 0, 64, 55
1, 225108, Note_on_c, 0, 67, 75
1, 225123, Control_c, 0, 64, 54
1, 225152, Control_c, 0, 64, 54
1, 225162, Note_on_c, 0, 69, 71
1, 225166, Note_off_c, 0, 67, 63
1, 225182, Control_c, 0, 64, 54
1, 225197, Control_c, 0, 64, 55
1, 225205, Note_on_c, 0, 71, 78
1, 225211, Note_off_c, 0, 69, 66
1, 225212, Control_c, 0, 64, 56
1, 225241, Control_c, 0, 64, 56
1, 225251, Note_off_c, 0, 71, 61
1, 225275, Note_on_c, 0, 72, 79
1, 225300, Control_c, 0, 64, 56
1, 225325, Note_off_c, 0, 72, 58
1, 225345, Note_on_c, 0, 74, 67
1, 225392, Note_off_c, 0, 74, 66
1, 225394, Note_on_c, 0, 75, 76
1, 225433, Note_off_c, 0, 75, 68
1, 225451, Note_on_c, 0, 77, 82
1, 225471, Control_c, 0, 64, 54
1, 225486, Control_c, 0, 64, 52
1, 225500, Control_c, 0, 64, 49
1, 225508, Note_off_c, 0, 77, 61
1, 225511, Note_on_c, 0, 79, 70
1, 225515, Control_c, 0, 64, 45
1, 225530, Control_c, 0, 64, 36
1, 225545, Control_c, 0, 64, 0
1, 225548, Note_on_c, 0, 81, 83
1, 225575, Note_off_c, 0, 79, 62
1, 225588, Note_on_c, 0, 83, 72
1, 225611, Note_off_c, 0, 81, 63
1, 225626, Note_on_c, 0, 84, 99
1, 225647, Note_off_c, 0, 83, 57
1, 225693, Control_c, 0, 64, 29
1, 225707, Control_c, 0, 64, 66
1, 225722, Control_c, 0, 64, 71
1, 225737, Control_c, 0, 64, 78
1, 225752, Control_c, 0, 64, 84
1, 225767, Control_c, 0, 64, 91
1, 225767, Note_off_c, 0, 48, 59
1, 225782, Control_c, 0, 64, 99
1, 225785, Note_off_c, 0, 43, 60
1, 225797, Control_c, 0, 64, 107
1, 225812, Control_c, 0, 64, 111
1, 225827, Control_c, 0, 64, 113
1, 225835, Note_off_c, 0, 36, 61
1, 225838, Note_off_c, 0, 39, 61
1, 225842, Control_c, 0, 64, 118
1, 225857, Control_c, 0, 64, 125
1, 225871, Control_c, 0, 64, 127
1, 225892, Note_off_c, 0, 84, 56
1, 226138, Control_c, 0, 64, 111
1, 226154, Note_on_c, 0, 43, 102
1, 226158, Note_on_c, 0, 31, 88
1, 226161, Note_on_c, 0, 35, 89
1, 226161, Control_c, 0, 64, 99
1, 226161, Note_on_c, 0, 38, 92
1, 226175, Control_c, 0, 64, 87
1, 226190, Control_c, 0, 64, 77
1, 226205, Control_c, 0, 64, 68
1, 226220, Control_c, 0, 64, 52
1, 226235, Control_c, 0, 64, 0
1, 226407, Note_on_c, 0, 62, 85
1, 226448, Note_off_c, 0, 62, 62
1, 226512, Note_on_c, 0, 63, 85
1, 226530, Control_c, 0, 64, 20
1, 226545, Control_c, 0, 64, 33
1, 226561, Control_c, 0, 64, 39
1, 226565, Note_off_c, 0, 63, 65
1, 226575, Control_c, 0, 64, 42
1, 226590, Control_c, 0, 64, 43
1, 226605, Control_c, 0, 64, 44
1, 226608, Note_on_c, 0, 65, 84
1, 226621, Control_c, 0, 64, 46
1, 226636, Control_c, 0, 64, 47
1, 226670, Note_off_c, 0, 65, 65
1, 226680, Control_c, 0, 64, 48
1, 226688, Note_on_c, 0, 67, 88
1, 226695, Control_c, 0, 64, 48
1, 226724, Control_c, 0, 64, 49
1, 226739, Control_c, 0, 64, 50
1, 226748, Note_off_c, 0, 67, 60
1, 226754, Control_c, 0, 64, 51
1, 226760, Note_on_c, 0, 69, 73
1, 226784, Control_c, 0, 64, 52
1, 226798, Control_c, 0, 64, 53
1, 226813, Control_c, 0, 64, 55
1, 226822, Note_off_c, 0, 69, 62
1, 226828, Control_c, 0, 64, 57
1, 226836, Note_on_c, 0, 72, 46
1, 226843, Control_c, 0, 64, 58
1, 226847, Note_on_c, 0, 71, 53
1, 226858, Control_c, 0, 64, 59
1, 226867, Note_off_c, 0, 71, 58
1, 226873, Control_c, 0, 64, 60
1, 226876, Note_off_c, 0, 72, 67
1, 226925, Control_c, 0, 64, 61
1, 226939, Control_c, 0, 64, 61
1, 226944, Note_on_c, 0, 74, 33
1, 226954, Control_c, 0, 64, 62
1, 226969, Control_c, 0, 64, 62
1, 226971, Note_off_c, 0, 74, 53
1, 226984, Control_c, 0, 64, 63
1, 227001, Note_on_c, 0, 76, 52
1, 227022, Note_off_c, 0, 76, 63
1, 227044, Note_on_c, 0, 77, 70
1, 227058, Control_c, 0, 64, 62
1, 227083, Note_off_c, 0, 77, 64
1, 227102, Note_on_c, 0, 79, 80
1, 227147, Control_c, 0, 64, 60
1, 227149, Note_off_c, 0, 79, 46
1, 227162, Control_c, 0, 64, 51
1, 227165, Note_on_c, 0, 81, 79
1, 227177, Control_c, 0, 64, 0
1, 227207, Note_on_c, 0, 83, 80
1, 227228, Note_off_c, 0, 81, 61
1, 227231, Note_on_c, 0, 84, 77
1, 227272, Note_on_c, 0, 86, 102
1, 227278, Note_off_c, 0, 84, 68
1, 227280, Note_off_c, 0, 31, 59
1, 227285, Note_off_c, 0, 83, 60
1, 227293, Note_off_c, 0, 35, 62
1, 227295, Note_off_c, 0, 38, 62
1, 227295, Control_c, 0, 64, 61
1, 227310, Control_c, 0, 64, 68
1, 227314, Note_off_c, 0, 43, 62
1, 227324, Control_c, 0, 64, 72
1, 227339, Control_c, 0, 64, 74
1, 227354, Control_c, 0, 64, 75
1, 227369, Control_c, 0, 64, 76
1, 227384, Control_c, 0, 64, 78
1, 227398, Control_c, 0, 64, 81
1, 227413, Control_c, 0, 64, 86
1, 227429, Control_c, 0, 64, 91
1, 227444, Control_c, 0, 64, 95
1, 227459, Control_c, 0, 64, 98
1, 227474, Control_c, 0, 64, 100
1, 227489, Control_c, 0, 64, 102
1, 227503, Control_c, 0, 64, 105
1, 227518, Control_c, 0, 64, 111
1, 227533, Note_off_c, 0, 86, 58
1, 227533, Control_c, 0, 64, 117
1, 227547, Control_c, 0, 64, 126
1, 227562, Control_c, 0, 64, 127
1, 227762, Control_c, 0, 64, 118
1, 227777, Control_c, 0, 64, 104
1, 227783, Note_on_c, 0, 36, 88
1, 227784, Note_on_c, 0, 48, 103
1, 227788, Note_on_c, 0, 46, 95
1, 227791, Note_on_c, 0, 40, 82
1, 227792, Note_on_c, 0, 43, 83
1, 227792, Control_c, 0, 64, 94
1, 227807, Control_c, 0, 64, 85
1, 227822, Control_c, 0, 64, 77
1, 227836, Control_c, 0, 64, 71
1, 227851, Control_c, 0, 64, 65
1, 227866, Control_c, 0, 64, 52
1, 227881, Control_c, 0, 64, 26
1, 227896, Control_c, 0, 64, 30
1, 227910, Control_c, 0, 64, 41
1, 227925, Control_c, 0, 64, 42
1, 227940, Control_c, 0, 64, 43
1, 227970, Control_c, 0, 64, 42
1, 227985, Control_c, 0, 64, 43
1, 228000, Control_c, 0, 64, 44
1, 228015, Control_c, 0, 64, 46
1, 228015, Note_on_c, 0, 64, 83
1, 228029, Control_c, 0, 64, 47
1, 228044, Control_c, 0, 64, 47
1, 228051, Note_off_c, 0, 64, 65
1, 228072, Control_c, 0, 64, 48
1, 228102, Control_c, 0, 64, 48
1, 228117, Note_on_c, 0, 65, 81
1, 228132, Control_c, 0, 64, 49
1, 228146, Control_c, 0, 64, 49
1, 228161, Control_c, 0, 64, 51
1, 228169, Note_off_c, 0, 65, 62
1, 228176, Control_c, 0, 64, 52
1, 228191, Control_c, 0, 64, 52
1, 228199, Note_on_c, 0, 67, 68
1, 228206, Control_c, 0, 64, 53
1, 228222, Control_c, 0, 64, 54
1, 228228, Note_off_c, 0, 67, 66
1, 228237, Control_c, 0, 64, 56
1, 228251, Control_c, 0, 64, 57
1, 228257, Note_on_c, 0, 69, 74
1, 228266, Control_c, 0, 64, 57
1, 228304, Note_off_c, 0, 69, 61
1, 228311, Control_c, 0, 64, 58
1, 228316, Note_on_c, 0, 70, 77
1, 228355, Control_c, 0, 64, 58
1, 228372, Note_off_c, 0, 70, 50
1, 228385, Note_on_c, 0, 72, 61
1, 228399, Note_on_c, 0, 71, 62
1, 228418, Note_off_c, 0, 71, 64
1, 228426, Note_on_c, 0, 74, 68
1, 228437, Note_off_c, 0, 72, 66
1, 228472, Note_off_c, 0, 74, 66
1, 228481, Control_c, 0, 64, 59
1, 228491, Note_on_c, 0, 76, 83
1, 228525, Control_c, 0, 64, 59
1, 228550, Note_off_c, 0, 76, 65
1, 228554, Note_on_c, 0, 77, 74
1, 228555, Control_c, 0, 64, 60
1, 228570, Control_c, 0, 64, 62
1, 228584, Control_c, 0, 64, 63
1, 228599, Control_c, 0, 64, 63
1, 228608, Note_on_c, 0, 79, 77
1, 228608, Note_off_c, 0, 77, 62
1, 228614, Control_c, 0, 64, 64
1, 228629, Control_c, 0, 64, 65
1, 228644, Note_off_c, 0, 79, 59
1, 228644, Control_c, 0, 64, 65
1, 228672, Note_on_c, 0, 81, 75
1, 228703, Control_c, 0, 64, 65
1, 228717, Note_on_c, 0, 82, 79
1, 228718, Control_c, 0, 64, 63
1, 228728, Note_off_c, 0, 81, 59
1, 228733, Control_c, 0, 64, 53
1, 228748, Control_c, 0, 64, 0
1, 228781, Note_on_c, 0, 84, 67
1, 228783, Note_off_c, 0, 82, 66
1, 228792, Note_on_c, 0, 86, 73
1, 228831, Note_on_c, 0, 88, 101
1, 228845, Note_off_c, 0, 86, 68
1, 228851, Control_c, 0, 64, 68
1, 228853, Note_off_c, 0, 84, 62
1, 228866, Control_c, 0, 64, 83
1, 228881, Control_c, 0, 64, 102
1, 228882, Note_off_c, 0, 48, 59
1, 228895, Control_c, 0, 64, 114
1, 228900, Note_off_c, 0, 43, 54
1, 228910, Control_c, 0, 64, 115
1, 228914, Note_off_c, 0, 46, 60
1, 228926, Note_off_c, 0, 40, 61
1, 228940, Control_c, 0, 64, 115
1, 228952, Note_off_c, 0, 36, 62
1, 228969, Control_c, 0, 64, 117
1, 228984, Control_c, 0, 64, 118
1, 228999, Control_c, 0, 64, 120
1, 229014, Control_c, 0, 64, 121
1, 229074, Control_c, 0, 64, 121
1, 229089, Note_off_c, 0, 88, 52
1, 229104, Control_c, 0, 64, 123
1, 229118, Control_c, 0, 64, 125
1, 229133, Control_c, 0, 64, 127
1, 229318, Control_c, 0, 64, 124
1, 229333, Control_c, 0, 64, 105
1, 229347, Note_on_c, 0, 41, 99
1, 229348, Control_c, 0, 64, 95
1, 229351, Note_on_c, 0, 29, 91
1, 229352, Note_on_c, 0, 33, 92
1, 229354, Note_on_c, 0, 36, 86
1, 229363, Control_c, 0, 64, 86
1, 229378, Control_c, 0, 64, 77
1, 229393, Control_c, 0, 64, 69
1, 229407, Control_c, 0, 64, 59
1, 229422, Control_c, 0, 64, 0
1, 229481, Control_c, 0, 64, 27
1, 229511, Control_c, 0, 64, 24
1, 229526, Control_c, 0, 64, 21
1, 229556, Control_c, 0, 64, 23
1, 229568, Note_on_c, 0, 65, 84
1, 229571, Control_c, 0, 64, 24
1, 229586, Control_c, 0, 64, 25
1, 229601, Control_c, 0, 64, 26
1, 229607, Note_off_c, 0, 65, 66
1, 229669, Note_on_c, 0, 67, 85
1, 229690, Control_c, 0, 64, 27
1, 229705, Control_c, 0, 64, 29
1, 229716, Note_off_c, 0, 67, 60
1, 229719, Control_c, 0, 64, 34
1, 229734, Control_c, 0, 64, 38
1, 229749, Control_c, 0, 64, 44
1, 229757, Note_on_c, 0, 69, 79
1, 229764, Control_c, 0, 64, 48
1, 229779, Control_c, 0, 64, 51
1, 229793, Control_c, 0, 64, 53
1, 229808, Control_c, 0, 64, 53
1, 229815, Note_off_c, 0, 69, 66
1, 229818, Note_on_c, 0, 70, 84
1, 229854, Control_c, 0, 64, 53
1, 229858, Note_off_c, 0, 70, 66
1, 229869, Control_c, 0, 64, 52
1, 229884, Control_c, 0, 64, 51
1, 229887, Note_on_c, 0, 72, 78
1, 229920, Control_c, 0, 64, 50
1, 229949, Note_on_c, 0, 74, 79
1, 229951, Note_off_c, 0, 72, 64
1, 229979, Control_c, 0, 64, 51
1, 229994, Control_c, 0, 64, 53
1, 230000, Note_on_c, 0, 76, 77
1, 230007, Note_off_c, 0, 74, 63
1, 230009, Control_c, 0, 64, 56
1, 230024, Control_c, 0, 64, 59
1, 230039, Control_c, 0, 64, 60
1, 230043, Note_off_c, 0, 76, 67
1, 230054, Control_c, 0, 64, 62
1, 230058, Note_on_c, 0, 77, 85
1, 230069, Control_c, 0, 64, 63
1, 230083, Control_c, 0, 64, 64
1, 230098, Control_c, 0, 64, 65
1, 230113, Control_c, 0, 64, 66
1, 230119, Note_off_c, 0, 77, 61
1, 230120, Note_on_c, 0, 79, 73
1, 230128, Control_c, 0, 64, 67
1, 230142, Control_c, 0, 64, 67
1, 230157, Control_c, 0, 64, 68
1, 230166, Note_on_c, 0, 81, 81
1, 230172, Control_c, 0, 64, 69
1, 230180, Note_off_c, 0, 79, 58
1, 230187, Control_c, 0, 64, 71
1, 230202, Control_c, 0, 64, 72
1, 230210, Note_on_c, 0, 82, 81
1, 230216, Control_c, 0, 64, 74
1, 230218, Note_off_c, 0, 81, 62
1, 230231, Control_c, 0, 64, 75
1, 230250, Note_off_c, 0, 82, 67
1, 230286, Note_on_c, 0, 84, 78
1, 230291, Control_c, 0, 64, 75
1, 230305, Control_c, 0, 64, 73
1, 230320, Control_c, 0, 64, 68
1, 230324, Note_on_c, 0, 86, 81
1, 230325, Note_off_c, 0, 84, 64
1, 230335, Control_c, 0, 64, 23
1, 230349, Control_c, 0, 64, 0
1, 230374, Note_on_c, 0, 88, 81
1, 230399, Note_off_c, 0, 86, 64
1, 230408, Note_on_c, 0, 89, 95
1, 230427, Note_off_c, 0, 88, 65
1, 230438, Control_c, 0, 64, 75
1, 230453, Control_c, 0, 64, 94
1, 230468, Note_off_c, 0, 36, 63
1, 230468, Note_off_c, 0, 29, 59
1, 230468, Control_c, 0, 64, 127
1, 230470, Note_off_c, 0, 33, 61
1, 230501, Note_off_c, 0, 41, 65
1, 230525, Note_off_c, 0, 89, 63
1, 230891, Control_c, 0, 64, 123
1, 230902, Note_on_c, 0, 50, 106
1, 230906, Control_c, 0, 64, 108
1, 230907, Note_on_c, 0, 42, 94
1, 230908, Note_on_c, 0, 38, 87
1, 230908, Note_on_c, 0, 45, 92
1, 230921, Control_c, 0, 64, 98
1, 230936, Control_c, 0, 64, 88
1, 230951, Control_c, 0, 64, 80
1, 230966, Control_c, 0, 64, 71
1, 230980, Control_c, 0, 64, 64
1, 230995, Control_c, 0, 64, 51
1, 231010, Control_c, 0, 64, 43
1, 231025, Control_c, 0, 64, 50
1, 231040, Control_c, 0, 64, 55
1, 231054, Control_c, 0, 64, 56
1, 231069, Control_c, 0, 64, 57
1, 231084, Control_c, 0, 64, 56
1, 231124, Note_on_c, 0, 66, 88
1, 231143, Control_c, 0, 64, 57
1, 231158, Control_c, 0, 64, 57
1, 231168, Note_off_c, 0, 66, 63
1, 231172, Control_c, 0, 64, 58
1, 231231, Note_on_c, 0, 67, 86
1, 231289, Note_off_c, 0, 67, 58
1, 231318, Note_on_c, 0, 69, 74
1, 231321, Control_c, 0, 64, 59
1, 231335, Control_c, 0, 64, 60
1, 231350, Control_c, 0, 64, 62
1, 231365, Note_off_c, 0, 69, 65
1, 231365, Control_c, 0, 64, 62
1, 231371, Note_on_c, 0, 71, 75
1, 231380, Control_c, 0, 64, 63
1, 231422, Note_off_c, 0, 71, 61
1, 231433, Control_c, 0, 64, 63
1, 231443, Note_on_c, 0, 72, 76
1, 231499, Note_on_c, 0, 74, 75
1, 231503, Note_off_c, 0, 72, 63
1, 231536, Control_c, 0, 64, 64
1, 231551, Control_c, 0, 64, 64
1, 231553, Note_on_c, 0, 76, 75
1, 231561, Note_off_c, 0, 74, 65
1, 231566, Control_c, 0, 64, 65
1, 231581, Control_c, 0, 64, 66
1, 231592, Note_on_c, 0, 78, 82
1, 231595, Control_c, 0, 64, 68
1, 231599, Note_off_c, 0, 76, 66
1, 231610, Control_c, 0, 64, 69
1, 231625, Control_c, 0, 64, 70
1, 231639, Note_off_c, 0, 78, 65
1, 231640, Control_c, 0, 64, 71
1, 231655, Control_c, 0, 64, 72
1, 231665, Note_on_c, 0, 79, 76
1, 231669, Control_c, 0, 64, 72
1, 231684, Control_c, 0, 64, 73
1, 231699, Control_c, 0, 64, 73
1, 231708, Note_off_c, 0, 79, 62
1, 231713, Note_on_c, 0, 81, 79
1, 231759, Control_c, 0, 64, 72
1, 231764, Note_on_c, 0, 83, 74
1, 231765, Note_off_c, 0, 81, 61
1, 231774, Control_c, 0, 64, 71
1, 231789, Control_c, 0, 64, 68
1, 231803, Note_off_c, 0, 83, 63
1, 231803, Control_c, 0, 64, 64
1, 231818, Control_c, 0, 64, 27
1, 231827, Note_on_c, 0, 84, 71
1, 231833, Control_c, 0, 64, 0
1, 231870, Note_off_c, 0, 84, 64
1, 231875, Note_on_c, 0, 86, 72
1, 231922, Note_on_c, 0, 88, 79
1, 231936, Note_off_c, 0, 86, 64
1, 231949, Note_on_c, 0, 90, 97
1, 231964, Note_off_c, 0, 88, 64
1, 231966, Control_c, 0, 64, 70
1, 231981, Control_c, 0, 64, 109
1, 231989, Note_off_c, 0, 90, 67
1, 231995, Control_c, 0, 64, 127
1, 232048, Note_off_c, 0, 50, 58
1, 232064, Note_off_c, 0, 45, 61
1, 232076, Note_off_c, 0, 38, 60
1, 232092, Note_off_c, 0, 42, 62
1, 232174, Note_on_c, 0, 79, 68
1, 232221, Note_on_c, 0, 81, 79
1, 232221, Note_off_c, 0, 79, 60
1, 232256, Control_c, 0, 64, 122
1, 232271, Control_c, 0, 64, 113
1, 232283, Note_off_c, 0, 81, 61
1, 232284, Note_on_c, 0, 83, 77
1, 232286, Control_c, 0, 64, 107
1, 232300, Control_c, 0, 64, 100
1, 232311, Note_off_c, 0, 83, 60
1, 232315, Control_c, 0, 64, 89
1, 232330, Control_c, 0, 64, 79
1, 232344, Control_c, 0, 64, 67
1, 232352, Note_on_c, 0, 84, 73
1, 232359, Control_c, 0, 64, 0
1, 232397, Note_off_c, 0, 84, 65
1, 232402, Note_on_c, 0, 86, 73
1, 232472, Note_on_c, 0, 88, 62
1, 232475, Note_off_c, 0, 86, 61
1, 232483, Note_on_c, 0, 90, 69
1, 232500, Note_off_c, 0, 88, 66
1, 232524, Note_on_c, 0, 91, 100
1, 232534, Note_on_c, 0, 43, 102
1, 232535, Note_off_c, 0, 90, 65
1, 232537, Note_on_c, 0, 31, 92
1, 232537, Control_c, 0, 64, 30
1, 232551, Control_c, 0, 64, 102
1, 232554, Note_off_c, 0, 91, 64
1, 232566, Control_c, 0, 64, 127
1, 232570, Note_on_c, 0, 34, 45
1, 232602, Note_off_c, 0, 34, 51
1, 232739, Note_off_c, 0, 31, 60
1, 232752, Note_off_c, 0, 43, 56
1, 232758, Control_c, 0, 64, 124
1, 232763, Note_on_c, 0, 80, 73
1, 232773, Control_c, 0, 64, 109
1, 232788, Control_c, 0, 64, 101
1, 232803, Control_c, 0, 64, 94
1, 232817, Control_c, 0, 64, 85
1, 232825, Note_off_c, 0, 80, 62
1, 232832, Note_on_c, 0, 82, 81
1, 232832, Control_c, 0, 64, 75
1, 232847, Control_c, 0, 64, 63
1, 232862, Control_c, 0, 64, 0
1, 232870, Note_off_c, 0, 82, 66
1, 232899, Note_on_c, 0, 84, 80
1, 232959, Note_on_c, 0, 86, 81
1, 232961, Note_off_c, 0, 84, 63
1, 233008, Note_off_c, 0, 86, 61
1, 233011, Note_on_c, 0, 87, 80
1, 233051, Note_off_c, 0, 87, 65
1, 233080, Note_on_c, 0, 89, 81
1, 233142, Note_off_c, 0, 89, 66
1, 233146, Note_on_c, 0, 91, 76
1, 233176, Note_on_c, 0, 92, 107
1, 233184, Note_on_c, 0, 44, 94
1, 233189, Note_on_c, 0, 32, 84
1, 233196, Note_off_c, 0, 91, 62
1, 233196, Control_c, 0, 64, 72
1, 233210, Note_off_c, 0, 92, 71
1, 233211, Control_c, 0, 64, 127
1, 233400, Note_off_c, 0, 44, 60
1, 233413, Note_on_c, 0, 77, 77
1, 233421, Note_off_c, 0, 32, 57
1, 233434, Control_c, 0, 64, 119
1, 233449, Control_c, 0, 64, 109
1, 233464, Control_c, 0, 64, 101
1, 233473, Note_on_c, 0, 79, 82
1, 233476, Note_off_c, 0, 77, 60
1, 233479, Control_c, 0, 64, 95
1, 233493, Control_c, 0, 64, 90
1, 233508, Control_c, 0, 64, 87
1, 233523, Control_c, 0, 64, 85
1, 233526, Note_on_c, 0, 80, 84
1, 233538, Control_c, 0, 64, 83
1, 233550, Note_off_c, 0, 79, 59
1, 233553, Control_c, 0, 64, 81
1, 233561, Note_on_c, 0, 82, 81
1, 233567, Control_c, 0, 64, 78
1, 233577, Note_off_c, 0, 80, 66
1, 233582, Control_c, 0, 64, 76
1, 233597, Control_c, 0, 64, 72
1, 233606, Note_off_c, 0, 82, 68
1, 233612, Control_c, 0, 64, 67
1, 233627, Control_c, 0, 64, 49
1, 233643, Note_on_c, 0, 84, 81
1, 233649, Control_c, 0, 64, 0
1, 233694, Note_off_c, 0, 84, 65
1, 233696, Note_on_c, 0, 86, 79
1, 233754, Note_on_c, 0, 87, 77
1, 233780, Note_off_c, 0, 86, 61
1, 233792, Note_on_c, 0, 89, 93
1, 233797, Control_c, 0, 64, 65
1, 233806, Note_off_c, 0, 87, 67
1, 233813, Control_c, 0, 64, 73
1, 233814, Note_on_c, 0, 88, 43
1, 233827, Control_c, 0, 64, 81
1, 233829, Note_off_c, 0, 89, 69
1, 233842, Control_c, 0, 64, 86
1, 233845, Note_off_c, 0, 88, 33
1, 233857, Control_c, 0, 64, 86
1, 233887, Control_c, 0, 64, 85
1, 233902, Control_c, 0, 64, 84
1, 233916, Control_c, 0, 64, 81
1, 233931, Control_c, 0, 64, 79
1, 233946, Control_c, 0, 64, 77
1, 233961, Control_c, 0, 64, 74
1, 233976, Control_c, 0, 64, 72
1, 233990, Control_c, 0, 64, 68
1, 234005, Control_c, 0, 64, 64
1, 234020, Control_c, 0, 64, 55
1, 234031, Note_on_c, 0, 74, 59
1, 234035, Control_c, 0, 64, 0
1, 234070, Note_off_c, 0, 74, 58
1, 234084, Note_on_c, 0, 75, 72
1, 234139, Note_on_c, 0, 77, 72
1, 234149, Note_off_c, 0, 75, 64
1, 234190, Note_off_c, 0, 77, 64
1, 234209, Note_on_c, 0, 79, 76
1, 234263, Note_on_c, 0, 81, 80
1, 234268, Note_off_c, 0, 79, 60
1, 234330, Note_on_c, 0, 83, 71
1, 234344, Note_off_c, 0, 81, 61
1, 234349, Note_on_c, 0, 84, 80
1, 234372, Note_off_c, 0, 83, 62
1, 234396, Note_on_c, 0, 86, 97
1, 234408, Note_off_c, 0, 84, 66
1, 234412, Control_c, 0, 64, 83
1, 234423, Note_off_c, 0, 86, 63
1, 234427, Control_c, 0, 64, 101
1, 234442, Control_c, 0, 64, 114
1, 234501, Control_c, 0, 64, 114
1, 234516, Control_c, 0, 64, 112
1, 234531, Control_c, 0, 64, 109
1, 234546, Control_c, 0, 64, 107
1, 234561, Control_c, 0, 64, 103
1, 234576, Control_c, 0, 64, 99
1, 234590, Control_c, 0, 64, 93
1, 234605, Control_c, 0, 64, 86
1, 234620, Control_c, 0, 64, 80
1, 234635, Control_c, 0, 64, 74
1, 234643, Note_on_c, 0, 68, 69
1, 234650, Control_c, 0, 64, 68
1, 234665, Control_c, 0, 64, 62
1, 234680, Control_c, 0, 64, 35
1, 234695, Control_c, 0, 64, 0
1, 234710, Note_on_c, 0, 70, 77
1, 234712, Note_off_c, 0, 68, 63
1, 234760, Note_off_c, 0, 70, 64
1, 234775, Note_on_c, 0, 72, 77
1, 234829, Note_off_c, 0, 72, 58
1, 234839, Note_on_c, 0, 74, 74
1, 234887, Note_off_c, 0, 74, 63
1, 234894, Note_on_c, 0, 75, 78
1, 234950, Note_off_c, 0, 75, 67
1, 234963, Note_on_c, 0, 77, 80
1, 235021, Note_off_c, 0, 77, 63
1, 235023, Note_on_c, 0, 79, 80
1, 235049, Control_c, 0, 64, 59
1, 235053, Note_on_c, 0, 80, 98
1, 235063, Control_c, 0, 64, 92
1, 235068, Note_off_c, 0, 79, 65
1, 235078, Control_c, 0, 64, 127
1, 235089, Note_off_c, 0, 80, 68
1, 235205, Control_c, 0, 64, 117
1, 235219, Control_c, 0, 64, 109
1, 235234, Control_c, 0, 64, 102
1, 235249, Control_c, 0, 64, 95
1, 235263, Control_c, 0, 64, 89
1, 235278, Control_c, 0, 64, 82
1, 235293, Control_c, 0, 64, 77
1, 235307, Note_on_c, 0, 67, 71
1, 235308, Control_c, 0, 64, 71
1, 235323, Control_c, 0, 64, 65
1, 235337, Control_c, 0, 64, 49
1, 235352, Control_c, 0, 64, 0
1, 235363, Note_off_c, 0, 67, 58
1, 235370, Note_on_c, 0, 69, 70
1, 235425, Note_on_c, 0, 71, 75
1, 235432, Note_off_c, 0, 69, 63
1, 235482, Note_off_c, 0, 71, 62
1, 235500, Note_on_c, 0, 72, 77
1, 235558, Note_off_c, 0, 72, 64
1, 235559, Note_on_c, 0, 74, 71
1, 235613, Note_on_c, 0, 75, 78
1, 235641, Note_off_c, 0, 74, 60
1, 235670, Note_on_c, 0, 77, 61
1, 235677, Note_off_c, 0, 75, 68
1, 235699, Note_on_c, 0, 79, 96
1, 235708, Control_c, 0, 64, 71
1, 235723, Control_c, 0, 64, 90
1, 235726, Note_off_c, 0, 77, 62
1, 235729, Note_off_c, 0, 79, 65
1, 235738, Control_c, 0, 64, 110
1, 235753, Control_c, 0, 64, 113
1, 235798, Control_c, 0, 64, 113
1, 235813, Control_c, 0, 64, 111
1, 235827, Control_c, 0, 64, 110
1, 235842, Control_c, 0, 64, 108
1, 235857, Control_c, 0, 64, 106
1, 235872, Control_c, 0, 64, 102
1, 235893, Control_c, 0, 64, 97
1, 235908, Control_c, 0, 64, 93
1, 235923, Control_c, 0, 64, 88
1, 235938, Control_c, 0, 64, 83
1, 235953, Note_on_c, 0, 60, 66
1, 235953, Control_c, 0, 64, 79
1, 235968, Control_c, 0, 64, 74
1, 235983, Control_c, 0, 64, 69
1, 235994, Note_off_c, 0, 60, 56
1, 235998, Control_c, 0, 64, 63
1, 236012, Control_c, 0, 64, 29
1, 236024, Note_on_c, 0, 62, 61
1, 236027, Control_c, 0, 64, 0
1, 236066, Note_on_c, 0, 63, 74
1, 236070, Note_off_c, 0, 62, 62
1, 236113, Note_off_c, 0, 63, 65
1, 236130, Note_on_c, 0, 65, 74
1, 236182, Note_off_c, 0, 65, 60
1, 236185, Note_on_c, 0, 67, 76
1, 236247, Note_on_c, 0, 69, 78
1, 236269, Note_off_c, 0, 67, 62
1, 236280, Note_on_c, 0, 71, 71
1, 236306, Note_off_c, 0, 69, 67
1, 236340, Note_on_c, 0, 72, 97
1, 236355, Control_c, 0, 64, 76
1, 236358, Note_off_c, 0, 71, 62
1, 236370, Note_off_c, 0, 72, 68
1, 236370, Control_c, 0, 64, 93
1, 236384, Control_c, 0, 64, 119
1, 236399, Control_c, 0, 64, 127
1, 236532, Control_c, 0, 64, 121
1, 236547, Control_c, 0, 64, 111
1, 236562, Control_c, 0, 64, 102
1, 236577, Control_c, 0, 64, 95
1, 236591, Control_c, 0, 64, 89
1, 236596, Note_on_c, 0, 48, 66
1, 236606, Control_c, 0, 64, 82
1, 236621, Control_c, 0, 64, 77
1, 236644, Control_c, 0, 64, 73
1, 236650, Note_off_c, 0, 48, 63
1, 236658, Control_c, 0, 64, 70
1, 236665, Note_on_c, 0, 50, 66
1, 236673, Control_c, 0, 64, 66
1, 236688, Control_c, 0, 64, 63
1, 236703, Control_c, 0, 64, 57
1, 236710, Note_off_c, 0, 50, 64
1, 236716, Note_on_c, 0, 51, 75
1, 236717, Control_c, 0, 64, 53
1, 236747, Control_c, 0, 64, 53
1, 236770, Note_off_c, 0, 51, 65
1, 236783, Note_on_c, 0, 53, 78
1, 236840, Note_off_c, 0, 53, 62
1, 236849, Note_on_c, 0, 55, 72
1, 236865, Control_c, 0, 64, 52
1, 236880, Control_c, 0, 64, 51
1, 236895, Control_c, 0, 64, 49
1, 236908, Note_on_c, 0, 57, 70
1, 236910, Control_c, 0, 64, 48
1, 236931, Note_off_c, 0, 55, 63
1, 236940, Control_c, 0, 64, 47
1, 236943, Note_on_c, 0, 59, 70
1, 236954, Control_c, 0, 64, 46
1, 236969, Control_c, 0, 64, 41
1, 236977, Note_off_c, 0, 57, 63
1, 236984, Control_c, 0, 64, 29
1, 236999, Control_c, 0, 64, 0
1, 237005, Note_on_c, 0, 60, 95
1, 237027, Note_off_c, 0, 59, 62
1, 237212, Note_on_c, 0, 36, 61
1, 237261, Note_off_c, 0, 60, 52
1, 237267, Note_on_c, 0, 38, 69
1, 237281, Note_off_c, 0, 36, 64
1, 237328, Note_on_c, 0, 39, 69
1, 237348, Note_off_c, 0, 38, 63
1, 237399, Note_off_c, 0, 39, 66
1, 237406, Note_on_c, 0, 41, 69
1, 237443, Note_off_c, 0, 41, 67
1, 237450, Note_on_c, 0, 43, 74
1, 237516, Note_off_c, 0, 43, 61
1, 237531, Note_on_c, 0, 45, 70
1, 237595, Note_off_c, 0, 45, 65
1, 237598, Note_on_c, 0, 47, 77
1, 237673, Note_off_c, 0, 47, 64
1, 237676, Note_on_c, 0, 48, 94
1, 238004, Note_off_c, 0, 48, 64
1, 238338, Note_on_c, 0, 48, 99
1, 238344, Note_on_c, 0, 36, 81
1, 238344, Note_on_c, 0, 43, 83
1, 238345, Note_on_c, 0, 55, 82
1, 238346, Note_on_c, 0, 39, 83
1, 238363, Control_c, 0, 64, 99
1, 238378, Control_c, 0, 64, 127
1, 238403, Note_off_c, 0, 55, 61
1, 238420, Note_on_c, 0, 60, 75
1, 238470, Note_off_c, 0, 60, 62
1, 238487, Note_on_c, 0, 63, 74
1, 238507, Note_off_c, 0, 63, 69
1, 238567, Note_on_c, 0, 67, 79
1, 238567, Note_off_c, 0, 36, 62
1, 238588, Note_off_c, 0, 48, 61
1, 238600, Note_off_c, 0, 43, 60
1, 238614, Note_off_c, 0, 39, 61
1, 238615, Control_c, 0, 64, 124
1, 238624, Note_off_c, 0, 67, 58
1, 238630, Control_c, 0, 64, 111
1, 238640, Note_on_c, 0, 72, 65
1, 238645, Control_c, 0, 64, 103
1, 238660, Control_c, 0, 64, 96
1, 238674, Control_c, 0, 64, 90
1, 238689, Control_c, 0, 64, 85
1, 238695, Note_off_c, 0, 72, 63
1, 238697, Note_on_c, 0, 75, 73
1, 238704, Control_c, 0, 64, 79
1, 238719, Control_c, 0, 64, 74
1, 238734, Control_c, 0, 64, 69
1, 238749, Control_c, 0, 64, 64
1, 238764, Control_c, 0, 64, 51
1, 238765, Note_off_c, 0, 75, 64
1, 238777, Note_on_c, 0, 79, 75
1, 238778, Control_c, 0, 64, 0
1, 238864, Note_on_c, 0, 75, 65
1, 238889, Note_off_c, 0, 79, 53
1, 238928, Note_off_c, 0, 75, 64
1, 238943, Note_on_c, 0, 72, 66
1, 239003, Note_off_c, 0, 72, 55
1, 239010, Note_on_c, 0, 79, 66
1, 239023, Note_on_c, 0, 63, 46
1, 239023, Note_on_c, 0, 60, 51
1, 239086, Note_on_c, 0, 75, 66
1, 239093, Note_off_c, 0, 79, 57
1, 239152, Note_off_c, 0, 75, 63
1, 239164, Note_on_c, 0, 72, 56
1, 239185, Note_off_c, 0, 60, 55
1, 239190, Note_off_c, 0, 63, 58
1, 239203, Note_off_c, 0, 72, 61
1, 239216, Note_on_c, 0, 62, 57
1, 239220, Note_on_c, 0, 59, 55
1, 239223, Note_on_c, 0, 79, 62
1, 239293, Note_on_c, 0, 74, 61
1, 239298, Note_off_c, 0, 79, 59
1, 239353, Note_off_c, 0, 74, 64
1, 239365, Note_on_c, 0, 71, 62
1, 239412, Note_off_c, 0, 62, 37
1, 239418, Note_off_c, 0, 71, 56
1, 239423, Note_on_c, 0, 63, 65
1, 239423, Note_on_c, 0, 79, 74
1, 239428, Note_on_c, 0, 60, 72
1, 239435, Note_off_c, 0, 59, 35
1, 239452, Note_off_c, 0, 63, 66
1, 239461, Note_off_c, 0, 60, 65
1, 239479, Note_on_c, 0, 75, 77
1, 239498, Note_off_c, 0, 79, 57
1, 239549, Note_off_c, 0, 75, 66
1, 239554, Note_on_c, 0, 72, 71
1, 239620, Note_off_c, 0, 72, 63
1, 239638, Note_on_c, 0, 79, 92
1, 239646, Note_on_c, 0, 59, 89
1, 239648, Note_on_c, 0, 55, 81
1, 239648, Note_on_c, 0, 62, 90
1, 239667, Note_off_c, 0, 62, 70
1, 239668, Control_c, 0, 64, 80
1, 239682, Note_off_c, 0, 55, 67
1, 239682, Note_off_c, 0, 59, 66
1, 239683, Control_c, 0, 64, 127
1, 239707, Note_on_c, 0, 74, 73
1, 239730, Note_off_c, 0, 79, 57
1, 239765, Note_off_c, 0, 74, 65
1, 239766, Note_on_c, 0, 71, 79
1, 239821, Note_off_c, 0, 71, 61
1, 239935, Poly_aftertouch_c, 0, 67, 0
1, 239945, Note_on_c, 0, 62, 44
1, 239969, Note_on_c, 0, 60, 22
1, 239982, Note_off_c, 0, 62, 52
1, 239992, Note_on_c, 0, 59, 67
1, 240008, Note_off_c, 0, 60, 41
1, 240009, Control_c, 0, 64, 120
1, 240024, Control_c, 0, 64, 113
1, 240039, Control_c, 0, 64, 107
1, 240053, Control_c, 0, 64, 100
1, 240068, Control_c, 0, 64, 93
1, 240071, Note_off_c, 0, 59, 59
1, 240076, Note_on_c, 0, 67, 74
1, 240083, Control_c, 0, 64, 87
1, 240098, Control_c, 0, 64, 82
1, 240113, Control_c, 0, 64, 77
1, 240127, Control_c, 0, 64, 73
1, 240142, Control_c, 0, 64, 68
1, 240147, Note_off_c, 0, 67, 61
1, 240150, Note_on_c, 0, 62, 73
1, 240157, Control_c, 0, 64, 62
1, 240172, Control_c, 0, 64, 44
1, 240187, Control_c, 0, 64, 0
1, 240210, Note_off_c, 0, 62, 61
1, 240224, Note_on_c, 0, 59, 62
1, 240275, Note_off_c, 0, 59, 56
1, 240298, Note_on_c, 0, 67, 74
1, 240314, Note_on_c, 0, 47, 67
1, 240317, Note_on_c, 0, 50, 65
1, 240384, Note_off_c, 0, 67, 60
1, 240385, Note_on_c, 0, 62, 67
1, 240451, Note_off_c, 0, 62, 61
1, 240463, Note_on_c, 0, 59, 58
1, 240486, Note_off_c, 0, 47, 58
1, 240510, Note_off_c, 0, 59, 56
1, 240513, Note_on_c, 0, 46, 73
1, 240513, Note_off_c, 0, 50, 40
1, 240523, Note_on_c, 0, 49, 70
1, 240523, Note_on_c, 0, 67, 70
1, 240565, Control_c, 0, 64, 26
1, 240580, Control_c, 0, 64, 52
1, 240595, Control_c, 0, 64, 60
1, 240598, Note_on_c, 0, 61, 65
1, 240610, Control_c, 0, 64, 64
1, 240625, Control_c, 0, 64, 66
1, 240630, Note_off_c, 0, 67, 37
1, 240639, Control_c, 0, 64, 69
1, 240643, Note_off_c, 0, 61, 60
1, 240654, Control_c, 0, 64, 73
1, 240659, Note_on_c, 0, 58, 67
1, 240669, Control_c, 0, 64, 77
1, 240684, Control_c, 0, 64, 80
1, 240687, Note_off_c, 0, 58, 67
1, 240698, Control_c, 0, 64, 81
1, 240713, Control_c, 0, 64, 81
1, 240725, Note_on_c, 0, 47, 75
1, 240727, Note_on_c, 0, 50, 64
1, 240728, Control_c, 0, 64, 82
1, 240731, Note_on_c, 0, 67, 78
1, 240737, Note_off_c, 0, 49, 56
1, 240749, Note_off_c, 0, 50, 62
1, 240750, Note_off_c, 0, 47, 67
1, 240768, Note_off_c, 0, 46, 26
1, 240785, Note_on_c, 0, 62, 62
1, 240788, Control_c, 0, 64, 81
1, 240800, Note_off_c, 0, 67, 51
1, 240818, Control_c, 0, 64, 80
1, 240824, Note_on_c, 0, 59, 77
1, 240827, Note_off_c, 0, 62, 62
1, 240832, Control_c, 0, 64, 78
1, 240847, Control_c, 0, 64, 75
1, 240862, Control_c, 0, 64, 68
1, 240862, Note_off_c, 0, 59, 60
1, 240876, Control_c, 0, 64, 0
1, 240953, Note_on_c, 0, 48, 101
1, 240955, Note_on_c, 0, 36, 87
1, 240958, Note_on_c, 0, 64, 76
1, 240958, Note_on_c, 0, 46, 88
1, 240964, Note_on_c, 0, 43, 79
1, 240976, Note_on_c, 0, 40, 73
1, 240980, Control_c, 0, 64, 88
1, 240995, Control_c, 0, 64, 127
1, 241030, Note_on_c, 0, 70, 77
1, 241038, Note_off_c, 0, 64, 63
1, 241074, Note_off_c, 0, 70, 66
1, 241089, Note_on_c, 0, 73, 76
1, 241112, Note_off_c, 0, 73, 69
1, 241146, Note_off_c, 0, 36, 62
1, 241158, Note_off_c, 0, 48, 62
1, 241175, Note_on_c, 0, 76, 72
1, 241188, Note_off_c, 0, 40, 62
1, 241192, Note_off_c, 0, 43, 60
1, 241199, Note_off_c, 0, 46, 59
1, 241244, Note_off_c, 0, 76, 61
1, 241247, Note_on_c, 0, 82, 77
1, 241304, Note_off_c, 0, 82, 62
1, 241313, Note_on_c, 0, 85, 60
1, 241344, Control_c, 0, 64, 119
1, 241359, Control_c, 0, 64, 108
1, 241373, Note_off_c, 0, 85, 65
1, 241373, Control_c, 0, 64, 101
1, 241375, Note_on_c, 0, 88, 74
1, 241388, Control_c, 0, 64, 95
1, 241403, Control_c, 0, 64, 88
1, 241418, Control_c, 0, 64, 84
1, 241432, Control_c, 0, 64, 80
1, 241447, Control_c, 0, 64, 76
1, 241455, Note_off_c, 0, 88, 61
1, 241457, Note_on_c, 0, 85, 64
1, 241462, Control_c, 0, 64, 72
1, 241477, Control_c, 0, 64, 68
1, 241492, Control_c, 0, 64, 63
1, 241506, Control_c, 0, 64, 48
1, 241521, Control_c, 0, 64, 0
1, 241528, Note_off_c, 0, 85, 64
1, 241530, Note_on_c, 0, 82, 66
1, 241600, Note_off_c, 0, 82, 62
1, 241604, Note_on_c, 0, 88, 71
1, 241606, Note_on_c, 0, 73, 55
1, 241616, Note_on_c, 0, 70, 49
1, 241674, Note_on_c, 0, 85, 65
1, 241682, Note_off_c, 0, 88, 56
1, 241739, Note_on_c, 0, 82, 58
1, 241750, Note_off_c, 0, 85, 65
1, 241777, Note_off_c, 0, 70, 59
1, 241801, Note_off_c, 0, 73, 62
1, 241802, Note_on_c, 0, 88, 72
1, 241805, Note_off_c, 0, 82, 63
1, 241809, Note_on_c, 0, 72, 69
1, 241810, Note_on_c, 0, 69, 69
1, 241883, Note_on_c, 0, 84, 74
1, 241891, Note_off_c, 0, 88, 60
1, 241953, Note_off_c, 0, 84, 64
1, 241956, Note_on_c, 0, 81, 78
1, 241981, Note_off_c, 0, 69, 53
1, 241994, Note_off_c, 0, 72, 37
1, 242009, Note_on_c, 0, 73, 68
1, 242010, Note_on_c, 0, 70, 75
1, 242013, Note_off_c, 0, 81, 61
1, 242031, Note_on_c, 0, 88, 73
1, 242035, Note_off_c, 0, 73, 68
1, 242050, Note_off_c, 0, 70, 66
1, 242085, Note_on_c, 0, 85, 81
1, 242105, Note_off_c, 0, 88, 63
1, 242156, Note_off_c, 0, 85, 66
1, 242169, Note_on_c, 0, 82, 64
1, 242219, Note_off_c, 0, 82, 64
1, 242222, Note_on_c, 0, 69, 93
1, 242225, Note_on_c, 0, 65, 82
1, 242226, Note_on_c, 0, 89, 89
1, 242227, Note_on_c, 0, 72, 83
1, 242241, Control_c, 0, 64, 67
1, 242246, Note_off_c, 0, 72, 73
1, 242253, Note_off_c, 0, 69, 71
1, 242255, Control_c, 0, 64, 127
1, 242259, Note_off_c, 0, 65, 68
1, 242299, Note_on_c, 0, 84, 83
1, 242317, Note_off_c, 0, 89, 59
1, 242350, Note_on_c, 0, 81, 87
1, 242357, Note_off_c, 0, 84, 65
1, 242399, Note_off_c, 0, 81, 63
1, 242433, Note_on_c, 0, 77, 46
1, 242458, Note_off_c, 0, 77, 36
1, 242492, Note_on_c, 0, 72, 76
1, 242549, Note_off_c, 0, 72, 61
1, 242562, Note_on_c, 0, 69, 75
1, 242638, Note_off_c, 0, 69, 63
1, 242647, Note_on_c, 0, 77, 81
1, 242649, Control_c, 0, 64, 115
1, 242664, Control_c, 0, 64, 107
1, 242678, Control_c, 0, 64, 101
1, 242693, Control_c, 0, 64, 95
1, 242708, Control_c, 0, 64, 89
1, 242722, Note_on_c, 0, 72, 73
1, 242723, Control_c, 0, 64, 84
1, 242731, Note_off_c, 0, 77, 57
1, 242738, Control_c, 0, 64, 79
1, 242752, Control_c, 0, 64, 76
1, 242767, Control_c, 0, 64, 73
1, 242779, Note_off_c, 0, 72, 65
1, 242782, Control_c, 0, 64, 70
1, 242785, Note_on_c, 0, 69, 69
1, 242797, Control_c, 0, 64, 67
1, 242812, Control_c, 0, 64, 65
1, 242827, Control_c, 0, 64, 63
1, 242842, Control_c, 0, 64, 59
1, 242848, Note_off_c, 0, 69, 63
1, 242857, Control_c, 0, 64, 56
1, 242862, Note_on_c, 0, 77, 75
1, 242872, Control_c, 0, 64, 53
1, 242880, Note_on_c, 0, 57, 59
1, 242880, Note_on_c, 0, 60, 69
1, 242886, Control_c, 0, 64, 50
1, 242901, Control_c, 0, 64, 47
1, 242916, Control_c, 0, 64, 44
1, 242931, Control_c, 0, 64, 41
1, 242939, Note_on_c, 0, 72, 65
1, 242940, Note_off_c, 0, 77, 60
1, 242946, Control_c, 0, 64, 38
1, 242960, Control_c, 0, 64, 36
1, 242975, Control_c, 0, 64, 34
1, 242990, Control_c, 0, 64, 31
1, 242997, Note_on_c, 0, 69, 61
1, 243002, Note_off_c, 0, 72, 63
1, 243005, Control_c, 0, 64, 28
1, 243020, Control_c, 0, 64, 25
1, 243034, Control_c, 0, 64, 23
1, 243049, Control_c, 0, 64, 21
1, 243056, Note_off_c, 0, 57, 57
1, 243058, Note_off_c, 0, 60, 59
1, 243076, Note_on_c, 0, 77, 76
1, 243076, Note_off_c, 0, 69, 64
1, 243078, Control_c, 0, 64, 23
1, 243085, Note_on_c, 0, 56, 72
1, 243092, Note_on_c, 0, 59, 71
1, 243093, Control_c, 0, 64, 26
1, 243108, Control_c, 0, 64, 30
1, 243123, Control_c, 0, 64, 34
1, 243138, Control_c, 0, 64, 39
1, 243152, Control_c, 0, 64, 44
1, 243159, Note_on_c, 0, 71, 61
1, 243164, Note_off_c, 0, 77, 59
1, 243167, Control_c, 0, 64, 50
1, 243182, Control_c, 0, 64, 56
1, 243197, Control_c, 0, 64, 60
1, 243212, Control_c, 0, 64, 62
1, 243219, Note_off_c, 0, 71, 58
1, 243221, Note_on_c, 0, 68, 73
1, 243226, Control_c, 0, 64, 63
1, 243241, Control_c, 0, 64, 64
1, 243256, Note_off_c, 0, 68, 66
1, 243256, Control_c, 0, 64, 65
1, 243283, Note_on_c, 0, 57, 75
1, 243287, Note_on_c, 0, 60, 71
1, 243289, Note_off_c, 0, 56, 0
1, 243295, Note_on_c, 0, 77, 73
1, 243303, Note_off_c, 0, 59, 60
1, 243312, Note_off_c, 0, 60, 68
1, 243316, Control_c, 0, 64, 64
1, 243331, Control_c, 0, 64, 61
1, 243331, Note_off_c, 0, 57, 63
1, 243345, Poly_aftertouch_c, 0, 56, 0
1, 243345, Control_c, 0, 64, 31
1, 243351, Note_on_c, 0, 72, 73
1, 243358, Note_off_c, 0, 77, 60
1, 243360, Control_c, 0, 64, 0
1, 243418, Note_off_c, 0, 72, 66
1, 243426, Note_on_c, 0, 69, 73
1, 243492, Note_off_c, 0, 69, 65
1, 243504, Note_on_c, 0, 66, 81
1, 243514, Note_on_c, 0, 60, 99
1, 243516, Note_on_c, 0, 54, 83
1, 243516, Control_c, 0, 64, 61
1, 243517, Note_on_c, 0, 57, 85
1, 243522, Note_on_c, 0, 50, 82
1, 243531, Control_c, 0, 64, 127
1, 243559, Note_off_c, 0, 66, 65
1, 243579, Note_on_c, 0, 69, 77
1, 243636, Note_off_c, 0, 69, 63
1, 243644, Note_on_c, 0, 72, 73
1, 243681, Note_off_c, 0, 72, 62
1, 243715, Note_on_c, 0, 78, 77
1, 243729, Note_off_c, 0, 50, 56
1, 243737, Note_off_c, 0, 78, 66
1, 243754, Note_off_c, 0, 57, 60
1, 243766, Note_off_c, 0, 54, 60
1, 243772, Note_off_c, 0, 60, 61
1, 243781, Note_on_c, 0, 81, 87
1, 243852, Note_off_c, 0, 81, 61
1, 243854, Note_on_c, 0, 84, 76
1, 243916, Control_c, 0, 64, 119
1, 243918, Note_on_c, 0, 90, 84
1, 243918, Note_off_c, 0, 84, 64
1, 243931, Control_c, 0, 64, 110
1, 243946, Control_c, 0, 64, 103
1, 243961, Control_c, 0, 64, 97
1, 243975, Control_c, 0, 64, 89
1, 243990, Control_c, 0, 64, 83
1, 243994, Note_off_c, 0, 90, 64
1, 243997, Note_on_c, 0, 84, 66
1, 244005, Control_c, 0, 64, 78
1, 244019, Control_c, 0, 64, 73
1, 244034, Control_c, 0, 64, 68
1, 244046, Note_off_c, 0, 84, 64
1, 244049, Note_on_c, 0, 81, 70
1, 244049, Control_c, 0, 64, 64
1, 244064, Control_c, 0, 64, 58
1, 244079, Control_c, 0, 64, 43
1, 244094, Control_c, 0, 64, 30
1, 244106, Note_off_c, 0, 81, 60
1, 244109, Control_c, 0, 64, 28
1, 244129, Note_on_c, 0, 90, 76
1, 244139, Note_on_c, 0, 75, 68
1, 244148, Note_on_c, 0, 72, 61
1, 244161, Control_c, 0, 64, 27
1, 244175, Control_c, 0, 64, 24
1, 244221, Control_c, 0, 64, 27
1, 244222, Note_on_c, 0, 84, 48
1, 244225, Note_off_c, 0, 90, 60
1, 244236, Control_c, 0, 64, 29
1, 244250, Control_c, 0, 64, 32
1, 244262, Note_on_c, 0, 81, 64
1, 244262, Note_off_c, 0, 84, 64
1, 244265, Control_c, 0, 64, 34
1, 244299, Note_off_c, 0, 72, 54
1, 244310, Note_off_c, 0, 81, 61
1, 244319, Note_off_c, 0, 75, 57
1, 244332, Note_on_c, 0, 90, 80
1, 244335, Note_on_c, 0, 71, 69
1, 244336, Note_on_c, 0, 74, 70
1, 244354, Control_c, 0, 64, 35
1, 244369, Control_c, 0, 64, 38
1, 244384, Control_c, 0, 64, 41
1, 244398, Control_c, 0, 64, 44
1, 244412, Note_on_c, 0, 86, 67
1, 244413, Control_c, 0, 64, 47
1, 244428, Control_c, 0, 64, 49
1, 244435, Note_off_c, 0, 90, 56
1, 244443, Control_c, 0, 64, 51
1, 244457, Control_c, 0, 64, 53
1, 244472, Note_off_c, 0, 86, 63
1, 244475, Note_on_c, 0, 83, 67
1, 244487, Control_c, 0, 64, 53
1, 244494, Note_off_c, 0, 71, 53
1, 244505, Note_off_c, 0, 74, 38
1, 244529, Note_on_c, 0, 72, 76
1, 244529, Note_on_c, 0, 75, 70
1, 244532, Control_c, 0, 64, 52
1, 244532, Note_off_c, 0, 83, 60
1, 244541, Note_on_c, 0, 90, 84
1, 244547, Control_c, 0, 64, 44
1, 244556, Note_off_c, 0, 75, 68
1, 244562, Note_off_c, 0, 72, 67
1, 244562, Control_c, 0, 64, 0
1, 244606, Note_on_c, 0, 87, 61
1, 244637, Note_off_c, 0, 90, 61
1, 244661, Note_on_c, 0, 84, 65
1, 244668, Note_off_c, 0, 87, 63
1, 244705, Note_off_c, 0, 84, 54
1, 244726, Note_on_c, 0, 91, 79
1, 244727, Note_on_c, 0, 67, 67
1, 244728, Note_on_c, 0, 71, 72
1, 244739, Control_c, 0, 64, 66
1, 244740, Note_on_c, 0, 74, 45
1, 244751, Note_off_c, 0, 71, 68
1, 244754, Control_c, 0, 64, 87
1, 244756, Note_off_c, 0, 67, 68
1, 244763, Note_off_c, 0, 74, 57
1, 244769, Control_c, 0, 64, 103
1, 244784, Control_c, 0, 64, 115
1, 244798, Control_c, 0, 64, 121
1, 244802, Note_on_c, 0, 86, 69
1, 244810, Note_off_c, 0, 91, 60
1, 244813, Control_c, 0, 64, 127
1, 244839, Note_off_c, 0, 86, 62
1, 244854, Note_on_c, 0, 83, 62
1, 244893, Note_off_c, 0, 83, 60
1, 244931, Note_on_c, 0, 92, 77
1, 244939, Note_on_c, 0, 80, 92
1, 244939, Control_c, 0, 64, 126
1, 244954, Control_c, 0, 64, 114
1, 244969, Control_c, 0, 64, 105
1, 244976, Note_off_c, 0, 80, 66
1, 244984, Control_c, 0, 64, 98
1, 245000, Control_c, 0, 64, 91
1, 245009, Note_on_c, 0, 89, 63
1, 245011, Note_off_c, 0, 92, 65
1, 245015, Control_c, 0, 64, 86
1, 245029, Control_c, 0, 64, 82
1, 245044, Control_c, 0, 64, 77
1, 245051, Note_off_c, 0, 89, 63
1, 245059, Control_c, 0, 64, 74
1, 245073, Control_c, 0, 64, 70
1, 245083, Note_on_c, 0, 86, 43
1, 245088, Control_c, 0, 64, 67
1, 245103, Control_c, 0, 64, 64
1, 245110, Note_off_c, 0, 86, 49
1, 245118, Control_c, 0, 64, 59
1, 245133, Control_c, 0, 64, 52
1, 245140, Note_on_c, 0, 77, 88
1, 245142, Note_on_c, 0, 89, 73
1, 245147, Control_c, 0, 64, 50
1, 245162, Control_c, 0, 64, 49
1, 245177, Control_c, 0, 64, 48
1, 245185, Note_off_c, 0, 77, 62
1, 245192, Control_c, 0, 64, 47
1, 245201, Note_off_c, 0, 89, 62
1, 245202, Note_on_c, 0, 86, 47
1, 245207, Control_c, 0, 64, 46
1, 245221, Control_c, 0, 64, 45
1, 245236, Control_c, 0, 64, 45
1, 245250, Note_off_c, 0, 86, 63
1, 245262, Note_on_c, 0, 83, 61
1, 245266, Control_c, 0, 64, 44
1, 245280, Control_c, 0, 64, 43
1, 245291, Note_off_c, 0, 83, 64
1, 245295, Control_c, 0, 64, 42
1, 245310, Control_c, 0, 64, 41
1, 245325, Control_c, 0, 64, 41
1, 245351, Note_on_c, 0, 86, 55
1, 245353, Note_on_c, 0, 74, 85
1, 245389, Note_off_c, 0, 74, 70
1, 245399, Control_c, 0, 64, 40
1, 245405, Note_off_c, 0, 86, 61
1, 245414, Note_on_c, 0, 83, 52
1, 245414, Control_c, 0, 64, 39
1, 245429, Control_c, 0, 64, 38
1, 245479, Note_off_c, 0, 83, 54
1, 245487, Note_on_c, 0, 80, 56
1, 245518, Control_c, 0, 64, 38
1, 245542, Note_off_c, 0, 80, 56
1, 245567, Note_on_c, 0, 71, 85
1, 245570, Note_on_c, 0, 83, 67
1, 245577, Control_c, 0, 64, 39
1, 245591, Control_c, 0, 64, 38
1, 245599, Note_off_c, 0, 71, 64
1, 245606, Control_c, 0, 64, 38
1, 245640, Note_off_c, 0, 83, 59
1, 245650, Note_on_c, 0, 80, 69
1, 245673, Control_c, 0, 64, 38
1, 245688, Control_c, 0, 64, 39
1, 245693, Note_off_c, 0, 80, 63
1, 245718, Note_on_c, 0, 77, 55
1, 245748, Note_off_c, 0, 77, 54
1, 245762, Control_c, 0, 64, 39
1, 245777, Control_c, 0, 64, 40
1, 245783, Note_on_c, 0, 68, 83
1, 245785, Note_on_c, 0, 80, 71
1, 245792, Control_c, 0, 64, 41
1, 245808, Control_c, 0, 64, 42
1, 245816, Note_off_c, 0, 68, 65
1, 245823, Control_c, 0, 64, 42
1, 245838, Control_c, 0, 64, 43
1, 245852, Note_on_c, 0, 77, 67
1, 245867, Control_c, 0, 64, 43
1, 245873, Note_off_c, 0, 80, 55
1, 245911, Control_c, 0, 64, 44
1, 245915, Note_off_c, 0, 77, 61
1, 245926, Control_c, 0, 64, 44
1, 245933, Note_on_c, 0, 74, 60
1, 245972, Note_off_c, 0, 74, 58
1, 245987, Note_on_c, 0, 65, 91
1, 246017, Note_on_c, 0, 79, 40
1, 246028, Note_on_c, 0, 77, 57
1, 246031, Control_c, 0, 64, 44
1, 246032, Note_off_c, 0, 65, 68
1, 246061, Note_off_c, 0, 79, 63
1, 246061, Note_off_c, 0, 77, 51
1, 246078, Note_on_c, 0, 76, 46
1, 246089, Control_c, 0, 64, 44
1, 246100, Note_off_c, 0, 76, 60
1, 246124, Note_on_c, 0, 71, 49
1, 246134, Control_c, 0, 64, 45
1, 246154, Note_off_c, 0, 71, 61
1, 246201, Note_on_c, 0, 74, 68
1, 246207, Note_on_c, 0, 62, 88
1, 246244, Note_off_c, 0, 62, 63
1, 246268, Note_on_c, 0, 71, 59
1, 246275, Note_off_c, 0, 74, 62
1, 246297, Control_c, 0, 64, 44
1, 246332, Note_off_c, 0, 71, 62
1, 246341, Note_on_c, 0, 68, 62
1, 246356, Control_c, 0, 64, 45
1, 246418, Note_off_c, 0, 68, 57
1, 246428, Note_on_c, 0, 59, 82
1, 246428, Note_on_c, 0, 71, 71
1, 246465, Note_off_c, 0, 59, 62
1, 246497, Control_c, 0, 64, 45
1, 246510, Note_off_c, 0, 71, 59
1, 246511, Control_c, 0, 64, 46
1, 246515, Note_on_c, 0, 68, 68
1, 246541, Control_c, 0, 64, 46
1, 246556, Control_c, 0, 64, 47
1, 246562, Note_off_c, 0, 68, 62
1, 246571, Control_c, 0, 64, 47
1, 246573, Note_on_c, 0, 65, 62
1, 246601, Control_c, 0, 64, 48
1, 246616, Control_c, 0, 64, 48
1, 246631, Control_c, 0, 64, 49
1, 246635, Note_on_c, 0, 56, 78
1, 246645, Note_off_c, 0, 65, 57
1, 246645, Control_c, 0, 64, 50
1, 246649, Note_on_c, 0, 71, 67
1, 246660, Control_c, 0, 64, 51
1, 246675, Control_c, 0, 64, 52
1, 246680, Note_off_c, 0, 56, 59
1, 246705, Control_c, 0, 64, 52
1, 246708, Note_on_c, 0, 68, 64
1, 246715, Note_off_c, 0, 71, 61
1, 246720, Control_c, 0, 64, 53
1, 246735, Control_c, 0, 64, 54
1, 246750, Control_c, 0, 64, 55
1, 246765, Control_c, 0, 64, 55
1, 246769, Note_off_c, 0, 68, 63
1, 246775, Note_on_c, 0, 65, 51
1, 246821, Note_off_c, 0, 65, 60
1, 246847, Note_on_c, 0, 72, 70
1, 246851, Note_on_c, 0, 55, 82
1, 246897, Control_c, 0, 64, 56
1, 246910, Note_off_c, 0, 55, 65
1, 246912, Control_c, 0, 64, 56
1, 246926, Control_c, 0, 64, 58
1, 246930, Note_on_c, 0, 67, 58
1, 246934, Note_off_c, 0, 72, 64
1, 246941, Control_c, 0, 64, 59
1, 246956, Control_c, 0, 64, 59
1, 246968, Note_off_c, 0, 67, 63
1, 246985, Control_c, 0, 64, 60
1, 246995, Note_on_c, 0, 63, 58
1, 247023, Note_off_c, 0, 63, 67
1, 247075, Note_on_c, 0, 43, 73
1, 247076, Note_on_c, 0, 71, 67
1, 247123, Note_off_c, 0, 43, 64
1, 247126, Control_c, 0, 64, 60
1, 247141, Control_c, 0, 64, 61
1, 247156, Control_c, 0, 64, 62
1, 247158, Note_on_c, 0, 65, 64
1, 247171, Control_c, 0, 64, 62
1, 247177, Note_off_c, 0, 71, 61
1, 247200, Note_off_c, 0, 65, 65
1, 247200, Control_c, 0, 64, 62
1, 247211, Note_on_c, 0, 62, 55
1, 247215, Control_c, 0, 64, 58
1, 247230, Control_c, 0, 64, 52
1, 247245, Control_c, 0, 64, 50
1, 247259, Control_c, 0, 64, 54
1, 247267, Note_off_c, 0, 62, 59
1, 247274, Control_c, 0, 64, 59
1, 247288, Note_on_c, 0, 48, 81
1, 247289, Control_c, 0, 64, 62
1, 247293, Note_on_c, 0, 72, 76
1, 247304, Control_c, 0, 64, 64
1, 247319, Control_c, 0, 64, 64
1, 247331, Note_off_c, 0, 48, 65
1, 247334, Control_c, 0, 64, 65
1, 247364, Control_c, 0, 64, 66
1, 247370, Note_on_c, 0, 63, 70
1, 247388, Note_off_c, 0, 72, 61
1, 247409, Control_c, 0, 64, 66
1, 247435, Note_off_c, 0, 63, 63
1, 247445, Note_on_c, 0, 60, 68
1, 247482, Note_off_c, 0, 60, 64
1, 247507, Note_on_c, 0, 43, 65
1, 247511, Note_on_c, 0, 74, 68
1, 247512, Note_on_c, 0, 45, 62
1, 247527, Control_c, 0, 64, 67
1, 247535, Note_off_c, 0, 43, 63
1, 247540, Note_off_c, 0, 45, 65
1, 247556, Control_c, 0, 64, 67
1, 247562, Note_on_c, 0, 72, 11
1, 247575, Note_off_c, 0, 74, 64
1, 247578, Note_on_c, 0, 65, 49
1, 247603, Note_off_c, 0, 72, 30
1, 247615, Control_c, 0, 64, 67
1, 247623, Note_off_c, 0, 65, 66
1, 247630, Control_c, 0, 64, 66
1, 247645, Control_c, 0, 64, 62
1, 247653, Note_on_c, 0, 62, 62
1, 247660, Control_c, 0, 64, 0
1, 247713, Note_off_c, 0, 62, 54
1, 247718, Note_on_c, 0, 75, 83
1, 247719, Note_on_c, 0, 43, 82
1, 247748, Control_c, 0, 64, 59
1, 247763, Control_c, 0, 64, 69
1, 247778, Control_c, 0, 64, 75
1, 247793, Control_c, 0, 64, 80
1, 247804, Note_on_c, 0, 67, 68
1, 247808, Control_c, 0, 64, 83
1, 247814, Note_off_c, 0, 75, 64
1, 247823, Control_c, 0, 64, 85
1, 247838, Control_c, 0, 64, 86
1, 247853, Control_c, 0, 64, 87
1, 247859, Note_off_c, 0, 67, 63
1, 247870, Note_on_c, 0, 63, 69
1, 247874, Control_c, 0, 64, 88
1, 247897, Note_off_c, 0, 63, 68
1, 247929, Note_off_c, 0, 43, 55
1, 247934, Control_c, 0, 64, 87
1, 247948, Control_c, 0, 64, 85
1, 247955, Note_on_c, 0, 71, 88
1, 247959, Note_on_c, 0, 31, 72
1, 247963, Control_c, 0, 64, 83
1, 247978, Control_c, 0, 64, 79
1, 247993, Control_c, 0, 64, 75
1, 248008, Control_c, 0, 64, 72
1, 248023, Control_c, 0, 64, 69
1, 248034, Note_on_c, 0, 62, 73
1, 248037, Control_c, 0, 64, 67
1, 248045, Note_off_c, 0, 31, 58
1, 248052, Control_c, 0, 64, 65
1, 248059, Note_off_c, 0, 71, 61
1, 248067, Control_c, 0, 64, 64
1, 248082, Control_c, 0, 64, 63
1, 248098, Note_on_c, 0, 59, 74
1, 248112, Control_c, 0, 64, 62
1, 248117, Note_off_c, 0, 62, 62
1, 248127, Control_c, 0, 64, 56
1, 248140, Note_off_c, 0, 59, 60
1, 248142, Control_c, 0, 64, 0
1, 248222, Note_on_c, 0, 72, 95
1, 248225, Note_on_c, 0, 60, 91
1, 248231, Note_on_c, 0, 63, 84
1, 248232, Note_on_c, 0, 36, 87
1, 248276, Control_c, 0, 64, 55
1, 248290, Control_c, 0, 64, 75
1, 248305, Control_c, 0, 64, 85
1, 248320, Control_c, 0, 64, 91
1, 248325, Note_off_c, 0, 60, 51
1, 248335, Control_c, 0, 64, 96
1, 248350, Control_c, 0, 64, 103
1, 248364, Control_c, 0, 64, 111
1, 248379, Control_c, 0, 64, 119
1, 248386, Note_off_c, 0, 72, 61
1, 248394, Control_c, 0, 64, 125
1, 248403, Note_off_c, 0, 63, 64
1, 248409, Control_c, 0, 64, 127
1, 248467, Note_off_c, 0, 36, 57
1, 248571, Control_c, 0, 64, 127
1, 248586, Control_c, 0, 64, 124
1, 248601, Control_c, 0, 64, 120
1, 248623, Control_c, 0, 64, 116
1, 248631, Note_on_c, 0, 36, 70
1, 248638, Control_c, 0, 64, 111
1, 248653, Control_c, 0, 64, 105
1, 248668, Control_c, 0, 64, 96
1, 248683, Control_c, 0, 64, 88
1, 248696, Note_off_c, 0, 36, 62
1, 248697, Control_c, 0, 64, 81
1, 248708, Note_on_c, 0, 35, 79
1, 248712, Control_c, 0, 64, 75
1, 248727, Control_c, 0, 64, 70
1, 248742, Control_c, 0, 64, 66
1, 248757, Control_c, 0, 64, 60
1, 248771, Control_c, 0, 64, 47
1, 248773, Note_off_c, 0, 35, 63
1, 248779, Note_on_c, 0, 36, 73
1, 248786, Control_c, 0, 64, 33
1, 248801, Control_c, 0, 64, 28
1, 248815, Control_c, 0, 64, 27
1, 248830, Control_c, 0, 64, 20
1, 248839, Note_off_c, 0, 36, 64
1, 248845, Control_c, 0, 64, 0
1, 248848, Note_on_c, 0, 75, 86
1, 248848, Note_on_c, 0, 84, 92
1, 248851, Note_on_c, 0, 72, 96
1, 248856, Note_on_c, 0, 79, 85
1, 248863, Note_on_c, 0, 38, 70
1, 248896, Note_off_c, 0, 38, 62
1, 248920, Control_c, 0, 64, 18
1, 248926, Note_on_c, 0, 36, 70
1, 248935, Control_c, 0, 64, 26
1, 248950, Control_c, 0, 64, 33
1, 248964, Control_c, 0, 64, 39
1, 248979, Control_c, 0, 64, 45
1, 248988, Note_off_c, 0, 36, 64
1, 248994, Note_on_c, 0, 38, 68
1, 248994, Control_c, 0, 64, 48
1, 249009, Control_c, 0, 64, 51
1, 249024, Control_c, 0, 64, 52
1, 249038, Control_c, 0, 64, 53
1, 249042, Note_off_c, 0, 38, 63
1, 249042, Note_off_c, 0, 84, 50
1, 249048, Note_off_c, 0, 72, 61
1, 249063, Note_on_c, 0, 39, 66
1, 249081, Note_off_c, 0, 75, 60
1, 249083, Control_c, 0, 64, 52
1, 249087, Note_off_c, 0, 39, 59
1, 249087, Note_off_c, 0, 79, 51
1, 249098, Control_c, 0, 64, 52
1, 249112, Control_c, 0, 64, 51
1, 249119, Note_on_c, 0, 40, 17
1, 249127, Control_c, 0, 64, 51
1, 249142, Control_c, 0, 64, 50
1, 249146, Note_on_c, 0, 38, 67
1, 249157, Control_c, 0, 64, 49
1, 249169, Note_off_c, 0, 40, 29
1, 249172, Control_c, 0, 64, 48
1, 249186, Control_c, 0, 64, 47
1, 249200, Note_off_c, 0, 38, 60
1, 249201, Control_c, 0, 64, 46
1, 249208, Note_on_c, 0, 39, 74
1, 249216, Control_c, 0, 64, 44
1, 249231, Control_c, 0, 64, 41
1, 249245, Control_c, 0, 64, 36
1, 249260, Control_c, 0, 64, 34
1, 249266, Note_on_c, 0, 75, 84
1, 249266, Note_on_c, 0, 84, 87
1, 249268, Note_off_c, 0, 39, 64
1, 249272, Note_on_c, 0, 72, 95
1, 249275, Note_on_c, 0, 79, 83
1, 249275, Control_c, 0, 64, 31
1, 249290, Control_c, 0, 64, 29
1, 249293, Note_on_c, 0, 41, 77
1, 249305, Control_c, 0, 64, 28
1, 249327, Note_off_c, 0, 41, 67
1, 249334, Control_c, 0, 64, 29
1, 249338, Note_on_c, 0, 39, 53
1, 249349, Control_c, 0, 64, 30
1, 249419, Note_on_c, 0, 41, 56
1, 249424, Note_off_c, 0, 39, 64
1, 249427, Note_on_c, 0, 40, 57
1, 249431, Control_c, 0, 64, 32
1, 249445, Control_c, 0, 64, 34
1, 249454, Note_off_c, 0, 40, 57
1, 249460, Control_c, 0, 64, 36
1, 249477, Note_on_c, 0, 43, 106
1, 249490, Control_c, 0, 64, 25
1, 249494, Note_off_c, 0, 84, 47
1, 249505, Control_c, 0, 64, 0
1, 249510, Note_off_c, 0, 41, 63
1, 249523, Note_off_c, 0, 43, 65
1, 249527, Note_off_c, 0, 79, 57
1, 249532, Note_off_c, 0, 75, 58
1, 249534, Note_off_c, 0, 72, 59
1, 249701, Note_on_c, 0, 36, 71
1, 249706, Note_on_c, 0, 84, 80
1, 249713, Note_on_c, 0, 75, 72
1, 249715, Note_on_c, 0, 72, 86
1, 249724, Note_on_c, 0, 79, 68
1, 249727, Control_c, 0, 64, 69
1, 249737, Note_off_c, 0, 36, 69
1, 249742, Control_c, 0, 64, 75
1, 249757, Control_c, 0, 64, 79
1, 249772, Control_c, 0, 64, 80
1, 249788, Control_c, 0, 64, 81
1, 249803, Control_c, 0, 64, 83
1, 249805, Note_off_c, 0, 84, 59
1, 249817, Control_c, 0, 64, 85
1, 249832, Control_c, 0, 64, 87
1, 249847, Control_c, 0, 64, 89
1, 249859, Note_off_c, 0, 79, 52
1, 249862, Control_c, 0, 64, 90
1, 249894, Note_off_c, 0, 72, 59
1, 249902, Note_on_c, 0, 43, 72
1, 249906, Control_c, 0, 64, 89
1, 249921, Note_off_c, 0, 75, 63
1, 249921, Control_c, 0, 64, 88
1, 249936, Control_c, 0, 64, 86
1, 249951, Control_c, 0, 64, 82
1, 249953, Note_off_c, 0, 43, 57
1, 249966, Control_c, 0, 64, 78
1, 249977, Note_on_c, 0, 42, 75
1, 249981, Control_c, 0, 64, 73
1, 249996, Control_c, 0, 64, 67
1, 250010, Control_c, 0, 64, 53
1, 250025, Control_c, 0, 64, 0
1, 250038, Note_off_c, 0, 42, 64
1, 250045, Note_on_c, 0, 43, 79
1, 250122, Note_off_c, 0, 43, 62
1, 250125, Note_on_c, 0, 83, 89
1, 250127, Note_on_c, 0, 45, 78
1, 250133, Note_on_c, 0, 71, 89
1, 250135, Note_on_c, 0, 74, 78
1, 250139, Note_on_c, 0, 79, 80
1, 250164, Note_off_c, 0, 45, 67
1, 250202, Note_on_c, 0, 43, 69
1, 250261, Note_on_c, 0, 45, 80
1, 250264, Note_off_c, 0, 43, 63
1, 250312, Note_off_c, 0, 83, 50
1, 250321, Note_off_c, 0, 45, 66
1, 250334, Note_on_c, 0, 47, 82
1, 250334, Note_off_c, 0, 71, 55
1, 250356, Note_off_c, 0, 74, 61
1, 250358, Note_off_c, 0, 79, 53
1, 250382, Note_off_c, 0, 47, 64
1, 250408, Note_on_c, 0, 45, 63
1, 250455, Note_off_c, 0, 45, 66
1, 250459, Note_on_c, 0, 47, 77
1, 250518, Note_off_c, 0, 47, 63
1, 250535, Note_on_c, 0, 48, 82
1, 250536, Note_on_c, 0, 83, 87
1, 250541, Note_on_c, 0, 74, 77
1, 250544, Note_on_c, 0, 71, 91
1, 250550, Note_on_c, 0, 79, 80
1, 250583, Note_off_c, 0, 48, 65
1, 250609, Note_on_c, 0, 47, 84
1, 250664, Note_off_c, 0, 47, 65
1, 250676, Note_on_c, 0, 48, 77
1, 250739, Note_on_c, 0, 50, 108
1, 250741, Note_off_c, 0, 83, 49
1, 250756, Note_off_c, 0, 48, 50
1, 250763, Note_off_c, 0, 71, 51
1, 250786, Note_off_c, 0, 50, 69
1, 250786, Note_off_c, 0, 79, 54
1, 250792, Note_off_c, 0, 74, 61
1, 250965, Note_on_c, 0, 83, 82
1, 250973, Note_on_c, 0, 43, 76
1, 250974, Note_on_c, 0, 74, 53
1, 250983, Note_on_c, 0, 71, 78
1, 250988, Note_on_c, 0, 79, 64
1, 250989, Control_c, 0, 64, 68
1, 251003, Control_c, 0, 64, 83
1, 251014, Note_off_c, 0, 43, 63
1, 251018, Control_c, 0, 64, 96
1, 251033, Control_c, 0, 64, 103
1, 251048, Control_c, 0, 64, 106
1, 251052, Note_off_c, 0, 71, 57
1, 251057, Note_off_c, 0, 83, 60
1, 251063, Control_c, 0, 64, 112
1, 251078, Control_c, 0, 64, 120
1, 251089, Note_off_c, 0, 79, 58
1, 251092, Control_c, 0, 64, 127
1, 251126, Note_off_c, 0, 74, 63
1, 251167, Note_on_c, 0, 48, 79
1, 251223, Note_off_c, 0, 48, 65
1, 251240, Control_c, 0, 64, 115
1, 251242, Note_on_c, 0, 47, 80
1, 251255, Control_c, 0, 64, 104
1, 251270, Control_c, 0, 64, 95
1, 251284, Control_c, 0, 64, 88
1, 251299, Control_c, 0, 64, 81
1, 251303, Note_off_c, 0, 47, 64
1, 251305, Note_on_c, 0, 48, 78
1, 251314, Control_c, 0, 64, 75
1, 251329, Control_c, 0, 64, 69
1, 251344, Control_c, 0, 64, 60
1, 251356, Note_off_c, 0, 48, 65
1, 251358, Control_c, 0, 64, 0
1, 251374, Note_on_c, 0, 50, 77
1, 251380, Note_on_c, 0, 82, 89
1, 251385, Note_on_c, 0, 72, 81
1, 251389, Note_on_c, 0, 70, 89
1, 251393, Note_on_c, 0, 79, 69
1, 251399, Note_on_c, 0, 76, 72
1, 251418, Note_off_c, 0, 50, 65
1, 251449, Note_on_c, 0, 48, 74
1, 251511, Note_off_c, 0, 48, 66
1, 251516, Note_on_c, 0, 50, 79
1, 251573, Note_off_c, 0, 50, 65
1, 251582, Note_off_c, 0, 72, 63
1, 251584, Note_off_c, 0, 70, 51
1, 251585, Note_on_c, 0, 52, 82
1, 251594, Note_off_c, 0, 76, 57
1, 251619, Note_off_c, 0, 82, 38
1, 251637, Note_off_c, 0, 52, 66
1, 251638, Note_off_c, 0, 79, 52
1, 251658, Note_on_c, 0, 50, 71
1, 251726, Note_on_c, 0, 52, 83
1, 251726, Note_off_c, 0, 50, 64
1, 251783, Note_off_c, 0, 52, 64
1, 251784, Note_on_c, 0, 82, 89
1, 251791, Note_on_c, 0, 72, 79
1, 251793, Note_on_c, 0, 70, 96
1, 251795, Note_on_c, 0, 53, 81
1, 251799, Note_on_c, 0, 79, 69
1, 251806, Note_on_c, 0, 76, 69
1, 251851, Note_off_c, 0, 53, 66
1, 251865, Note_on_c, 0, 52, 62
1, 251939, Note_off_c, 0, 52, 66
1, 251940, Note_on_c, 0, 53, 82
1, 251997, Note_off_c, 0, 82, 54
1, 251999, Note_on_c, 0, 55, 103
1, 252008, Note_off_c, 0, 53, 62
1, 252026, Note_off_c, 0, 70, 58
1, 252038, Note_off_c, 0, 72, 59
1, 252039, Note_off_c, 0, 76, 61
1, 252044, Note_off_c, 0, 55, 69
1, 252077, Note_off_c, 0, 79, 37
1, 252216, Note_on_c, 0, 82, 86
1, 252225, Note_on_c, 0, 72, 72
1, 252227, Note_on_c, 0, 70, 84
1, 252227, Control_c, 0, 64, 55
1, 252236, Note_on_c, 0, 48, 64
1, 252241, Note_on_c, 0, 79, 47
1, 252242, Control_c, 0, 64, 79
1, 252243, Note_on_c, 0, 76, 61
1, 252256, Control_c, 0, 64, 89
1, 252271, Control_c, 0, 64, 98
1, 252272, Note_off_c, 0, 48, 65
1, 252286, Control_c, 0, 64, 100
1, 252293, Note_on_c, 0, 50, 2
1, 252301, Control_c, 0, 64, 104
1, 252315, Note_off_c, 0, 50, 0
1, 252316, Control_c, 0, 64, 109
1, 252321, Note_off_c, 0, 82, 60
1, 252324, Note_off_c, 0, 79, 60
1, 252330, Control_c, 0, 64, 116
1, 252333, Poly_aftertouch_c, 0, 50, 0
1, 252342, Note_off_c, 0, 76, 60
1, 252345, Control_c, 0, 64, 121
1, 252368, Control_c, 0, 64, 124
1, 252412, Control_c, 0, 64, 123
1, 252413, Note_on_c, 0, 53, 86
1, 252427, Control_c, 0, 64, 120
1, 252429, Note_off_c, 0, 70, 60
1, 252442, Control_c, 0, 64, 114
1, 252457, Control_c, 0, 64, 108
1, 252467, Note_off_c, 0, 53, 64
1, 252471, Control_c, 0, 64, 101
1, 252482, Note_off_c, 0, 72, 25
1, 252486, Control_c, 0, 64, 94
1, 252499, Note_on_c, 0, 52, 77
1, 252501, Control_c, 0, 64, 86
1, 252516, Control_c, 0, 64, 79
1, 252531, Control_c, 0, 64, 73
1, 252545, Control_c, 0, 64, 67
1, 252549, Note_off_c, 0, 52, 65
1, 252551, Note_on_c, 0, 53, 76
1, 252560, Control_c, 0, 64, 60
1, 252575, Control_c, 0, 64, 23
1, 252589, Control_c, 0, 64, 0
1, 252607, Note_off_c, 0, 53, 66
1, 252620, Note_on_c, 0, 55, 75
1, 252652, Note_on_c, 0, 81, 92
1, 252657, Note_on_c, 0, 72, 77
1, 252658, Note_on_c, 0, 69, 94
1, 252662, Note_on_c, 0, 77, 79
1, 252663, Note_off_c, 0, 55, 67
1, 252693, Note_on_c, 0, 53, 75
1, 252751, Note_off_c, 0, 53, 67
1, 252757, Note_on_c, 0, 55, 72
1, 252804, Note_off_c, 0, 55, 66
1, 252816, Note_on_c, 0, 57, 83
1, 252828, Note_off_c, 0, 69, 56
1, 252828, Control_c, 0, 64, 16
1, 252834, Note_off_c, 0, 81, 45
1, 252843, Control_c, 0, 64, 30
1, 252855, Note_off_c, 0, 72, 55
1, 252858, Control_c, 0, 64, 34
1, 252864, Note_off_c, 0, 57, 63
1, 252872, Control_c, 0, 64, 35
1, 252891, Note_on_c, 0, 55, 72
1, 252902, Control_c, 0, 64, 34
1, 252958, Note_off_c, 0, 55, 67
1, 252961, Note_on_c, 0, 57, 80
1, 252962, Control_c, 0, 64, 35
1, 252992, Control_c, 0, 64, 36
1, 252995, Note_off_c, 0, 77, 20
1, 253007, Control_c, 0, 64, 36
1, 253018, Note_off_c, 0, 57, 61
1, 253022, Control_c, 0, 64, 37
1, 253030, Note_on_c, 0, 58, 73
1, 253036, Control_c, 0, 64, 38
1, 253037, Note_on_c, 0, 72, 74
1, 253038, Note_on_c, 0, 81, 88
1, 253043, Note_on_c, 0, 69, 88
1, 253043, Note_on_c, 0, 77, 45
1, 253060, Note_off_c, 0, 58, 66
1, 253096, Control_c, 0, 64, 37
1, 253099, Note_on_c, 0, 57, 60
1, 253118, Control_c, 0, 64, 36
1, 253177, Note_on_c, 0, 58, 81
1, 253184, Note_off_c, 0, 57, 62
1, 253192, Control_c, 0, 64, 36
1, 253207, Control_c, 0, 64, 35
1, 253221, Control_c, 0, 64, 34
1, 253236, Control_c, 0, 64, 32
1, 253240, Note_off_c, 0, 58, 66
1, 253248, Note_on_c, 0, 60, 100
1, 253251, Control_c, 0, 64, 23
1, 253261, Note_off_c, 0, 81, 36
1, 253266, Control_c, 0, 64, 0
1, 253294, Note_off_c, 0, 60, 66
1, 253294, Note_off_c, 0, 72, 61
1, 253295, Note_off_c, 0, 69, 59
1, 253299, Note_off_c, 0, 77, 51
1, 253460, Note_on_c, 0, 81, 81
1, 253468, Note_on_c, 0, 53, 72
1, 253468, Note_on_c, 0, 72, 55
1, 253478, Note_on_c, 0, 69, 82
1, 253478, Note_on_c, 0, 77, 59
1, 253488, Control_c, 0, 64, 70
1, 253503, Control_c, 0, 64, 78
1, 253509, Note_off_c, 0, 53, 68
1, 253517, Control_c, 0, 64, 84
1, 253532, Control_c, 0, 64, 86
1, 253540, Note_off_c, 0, 81, 59
1, 253547, Control_c, 0, 64, 90
1, 253561, Control_c, 0, 64, 95
1, 253573, Note_off_c, 0, 69, 58
1, 253576, Control_c, 0, 64, 100
1, 253582, Note_off_c, 0, 77, 53
1, 253591, Control_c, 0, 64, 107
1, 253606, Control_c, 0, 64, 112
1, 253621, Control_c, 0, 64, 117
1, 253636, Control_c, 0, 64, 120
1, 253650, Control_c, 0, 64, 122
1, 253660, Note_on_c, 0, 57, 76
1, 253665, Control_c, 0, 64, 122
1, 253695, Control_c, 0, 64, 122
1, 253710, Note_off_c, 0, 57, 61
1, 253710, Control_c, 0, 64, 121
1, 253725, Control_c, 0, 64, 117
1, 253735, Note_on_c, 0, 55, 74
1, 253740, Control_c, 0, 64, 110
1, 253754, Control_c, 0, 64, 102
1, 253769, Control_c, 0, 64, 94
1, 253785, Control_c, 0, 64, 86
1, 253794, Note_off_c, 0, 55, 66
1, 253794, Note_on_c, 0, 57, 77
1, 253800, Control_c, 0, 64, 79
1, 253814, Control_c, 0, 64, 73
1, 253829, Control_c, 0, 64, 65
1, 253844, Control_c, 0, 64, 34
1, 253844, Note_off_c, 0, 57, 64
1, 253866, Note_off_c, 0, 72, 0
1, 253866, Control_c, 0, 64, 0
1, 253874, Note_on_c, 0, 59, 73
1, 253874, Note_on_c, 0, 78, 90
1, 253877, Note_on_c, 0, 72, 55
1, 253884, Note_on_c, 0, 66, 89
1, 253888, Note_on_c, 0, 75, 82
1, 253916, Note_off_c, 0, 59, 60
1, 253946, Note_on_c, 0, 57, 72
1, 254011, Note_on_c, 0, 59, 77
1, 254011, Note_off_c, 0, 57, 63
1, 254044, Control_c, 0, 64, 23
1, 254059, Control_c, 0, 64, 31
1, 254065, Note_off_c, 0, 59, 65
1, 254074, Control_c, 0, 64, 38
1, 254080, Note_on_c, 0, 60, 78
1, 254089, Control_c, 0, 64, 46
1, 254104, Control_c, 0, 64, 51
1, 254118, Control_c, 0, 64, 54
1, 254129, Note_off_c, 0, 60, 62
1, 254133, Control_c, 0, 64, 55
1, 254137, Note_off_c, 0, 75, 58
1, 254144, Note_off_c, 0, 72, 60
1, 254148, Control_c, 0, 64, 56
1, 254149, Note_on_c, 0, 59, 70
1, 254160, Note_off_c, 0, 66, 49
1, 254187, Note_off_c, 0, 78, 49
1, 254207, Control_c, 0, 64, 55
1, 254208, Note_off_c, 0, 59, 64
1, 254214, Note_on_c, 0, 60, 74
1, 254222, Control_c, 0, 64, 55
1, 254236, Control_c, 0, 64, 54
1, 254251, Control_c, 0, 64, 53
1, 254262, Note_off_c, 0, 60, 64
1, 254266, Control_c, 0, 64, 52
1, 254277, Note_on_c, 0, 62, 81
1, 254281, Control_c, 0, 64, 51
1, 254282, Note_on_c, 0, 66, 90
1, 254283, Note_on_c, 0, 78, 89
1, 254289, Note_on_c, 0, 75, 77
1, 254290, Note_on_c, 0, 72, 73
1, 254296, Control_c, 0, 64, 50
1, 254310, Control_c, 0, 64, 50
1, 254327, Note_off_c, 0, 62, 60
1, 254340, Control_c, 0, 64, 50
1, 254348, Note_on_c, 0, 60, 70
1, 254355, Control_c, 0, 64, 51
1, 254370, Control_c, 0, 64, 53
1, 254384, Control_c, 0, 64, 55
1, 254399, Control_c, 0, 64, 56
1, 254412, Note_on_c, 0, 62, 77
1, 254414, Note_off_c, 0, 60, 64
1, 254414, Control_c, 0, 64, 59
1, 254428, Control_c, 0, 64, 61
1, 254443, Control_c, 0, 64, 62
1, 254458, Control_c, 0, 64, 63
1, 254461, Note_off_c, 0, 62, 57
1, 254481, Note_on_c, 0, 63, 99
1, 254482, Note_off_c, 0, 78, 56
1, 254488, Control_c, 0, 64, 64
1, 254497, Note_off_c, 0, 75, 57
1, 254503, Note_off_c, 0, 66, 39
1, 254518, Control_c, 0, 64, 63
1, 254527, Note_off_c, 0, 63, 65
1, 254533, Control_c, 0, 64, 62
1, 254548, Control_c, 0, 64, 56
1, 254554, Note_off_c, 0, 72, 54
1, 254562, Control_c, 0, 64, 0
1, 254700, Note_on_c, 0, 78, 86
1, 254709, Note_on_c, 0, 66, 79
1, 254710, Note_on_c, 0, 72, 72
1, 254712, Note_on_c, 0, 57, 70
1, 254719, Control_c, 0, 64, 64
1, 254733, Control_c, 0, 64, 69
1, 254739, Note_off_c, 0, 57, 67
1, 254748, Control_c, 0, 64, 73
1, 254763, Control_c, 0, 64, 77
1, 254778, Control_c, 0, 64, 80
1, 254779, Note_off_c, 0, 66, 62
1, 254792, Control_c, 0, 64, 83
1, 254798, Note_off_c, 0, 78, 61
1, 254807, Control_c, 0, 64, 84
1, 254822, Control_c, 0, 64, 84
1, 254843, Note_off_c, 0, 72, 55
1, 254852, Control_c, 0, 64, 83
1, 254867, Control_c, 0, 64, 80
1, 254882, Control_c, 0, 64, 72
1, 254896, Note_on_c, 0, 59, 64
1, 254896, Control_c, 0, 64, 34
1, 254898, Note_on_c, 0, 79, 80
1, 254904, Note_on_c, 0, 67, 78
1, 254905, Note_on_c, 0, 74, 69
1, 254911, Control_c, 0, 64, 0
1, 254940, Note_off_c, 0, 59, 59
1, 254971, Control_c, 0, 64, 46
1, 254980, Note_on_c, 0, 57, 67
1, 254985, Control_c, 0, 64, 64
1, 255000, Control_c, 0, 64, 66
1, 255001, Note_off_c, 0, 67, 58
1, 255015, Control_c, 0, 64, 67
1, 255016, Note_off_c, 0, 74, 63
1, 255034, Note_off_c, 0, 79, 61
1, 255037, Note_off_c, 0, 57, 62
1, 255042, Note_on_c, 0, 59, 69
1, 255045, Control_c, 0, 64, 67
1, 255059, Control_c, 0, 64, 68
1, 255074, Control_c, 0, 64, 69
1, 255089, Control_c, 0, 64, 70
1, 255090, Note_off_c, 0, 59, 62
1, 255104, Control_c, 0, 64, 70
1, 255105, Note_on_c, 0, 60, 76
1, 255119, Control_c, 0, 64, 71
1, 255133, Control_c, 0, 64, 71
1, 255138, Note_off_c, 0, 60, 62
1, 255177, Control_c, 0, 64, 71
1, 255183, Note_on_c, 0, 59, 63
1, 255192, Control_c, 0, 64, 70
1, 255207, Control_c, 0, 64, 68
1, 255222, Control_c, 0, 64, 62
1, 255236, Note_off_c, 0, 59, 63
1, 255237, Control_c, 0, 64, 0
1, 255238, Note_on_c, 0, 60, 75
1, 255294, Note_off_c, 0, 60, 63
1, 255308, Note_on_c, 0, 62, 71
1, 255309, Note_on_c, 0, 83, 86
1, 255318, Note_on_c, 0, 71, 89
1, 255319, Note_on_c, 0, 74, 69
1, 255321, Note_on_c, 0, 80, 75
1, 255325, Note_on_c, 0, 77, 65
1, 255341, Control_c, 0, 64, 63
1, 255346, Note_off_c, 0, 62, 58
1, 255363, Control_c, 0, 64, 72
1, 255373, Note_on_c, 0, 60, 67
1, 255378, Control_c, 0, 64, 81
1, 255394, Control_c, 0, 64, 92
1, 255408, Control_c, 0, 64, 102
1, 255423, Control_c, 0, 64, 111
1, 255432, Note_off_c, 0, 60, 62
1, 255438, Control_c, 0, 64, 118
1, 255443, Note_on_c, 0, 62, 70
1, 255453, Control_c, 0, 64, 127
1, 255472, Note_off_c, 0, 62, 61
1, 255505, Note_on_c, 0, 63, 68
1, 255522, Note_off_c, 0, 63, 67
1, 255570, Note_on_c, 0, 62, 63
1, 255571, Control_c, 0, 64, 118
1, 255586, Control_c, 0, 64, 109
1, 255601, Control_c, 0, 64, 103
1, 255615, Control_c, 0, 64, 99
1, 255630, Control_c, 0, 64, 94
1, 255634, Note_on_c, 0, 63, 68
1, 255637, Note_off_c, 0, 62, 62
1, 255645, Control_c, 0, 64, 89
1, 255653, Note_off_c, 0, 83, 37
1, 255660, Control_c, 0, 64, 83
1, 255675, Control_c, 0, 64, 78
1, 255684, Note_off_c, 0, 63, 65
1, 255689, Control_c, 0, 64, 73
1, 255701, Note_off_c, 0, 77, 55
1, 255701, Note_on_c, 0, 65, 66
1, 255703, Note_off_c, 0, 80, 49
1, 255704, Control_c, 0, 64, 68
1, 255709, Note_off_c, 0, 71, 45
1, 255715, Note_off_c, 0, 74, 56
1, 255719, Control_c, 0, 64, 63
1, 255734, Control_c, 0, 64, 48
1, 255736, Note_off_c, 0, 65, 63
1, 255749, Control_c, 0, 64, 0
1, 255788, Note_on_c, 0, 63, 60
1, 255821, Note_off_c, 0, 63, 60
1, 255842, Note_on_c, 0, 65, 72
1, 255910, Note_off_c, 0, 65, 64
1, 255924, Note_on_c, 0, 67, 60
1, 255948, Note_off_c, 0, 67, 60
1, 255978, Note_on_c, 0, 65, 70
1, 256048, Note_off_c, 0, 65, 64
1, 256050, Note_on_c, 0, 67, 61
1, 256079, Note_off_c, 0, 67, 66
1, 256125, Note_on_c, 0, 68, 72
1, 256194, Note_off_c, 0, 68, 62
1, 256196, Note_on_c, 0, 70, 70
1, 256256, Note_on_c, 0, 68, 72
1, 256262, Note_off_c, 0, 70, 64
1, 256277, Control_c, 0, 64, 16
1, 256292, Control_c, 0, 64, 23
1, 256305, Note_off_c, 0, 68, 63
1, 256306, Control_c, 0, 64, 27
1, 256321, Control_c, 0, 64, 31
1, 256333, Note_on_c, 0, 67, 72
1, 256336, Control_c, 0, 64, 34
1, 256369, Note_off_c, 0, 67, 60
1, 256395, Control_c, 0, 64, 33
1, 256399, Note_on_c, 0, 68, 71
1, 256425, Control_c, 0, 64, 32
1, 256458, Note_off_c, 0, 68, 62
1, 256481, Note_on_c, 0, 67, 75
1, 256517, Note_off_c, 0, 67, 61
1, 256543, Control_c, 0, 64, 31
1, 256551, Note_on_c, 0, 65, 64
1, 256587, Control_c, 0, 64, 30
1, 256600, Note_off_c, 0, 65, 63
1, 256611, Note_on_c, 0, 67, 76
1, 256659, Note_off_c, 0, 67, 57
1, 256676, Control_c, 0, 64, 31
1, 256682, Note_on_c, 0, 65, 60
1, 256726, Note_off_c, 0, 65, 66
1, 256736, Control_c, 0, 64, 32
1, 256746, Note_on_c, 0, 63, 71
1, 256750, Control_c, 0, 64, 33
1, 256780, Control_c, 0, 64, 34
1, 256795, Control_c, 0, 64, 34
1, 256806, Note_off_c, 0, 63, 63
1, 256810, Control_c, 0, 64, 35
1, 256824, Control_c, 0, 64, 36
1, 256828, Note_on_c, 0, 65, 69
1, 256839, Control_c, 0, 64, 36
1, 256861, Control_c, 0, 64, 37
1, 256876, Note_off_c, 0, 65, 62
1, 256892, Note_on_c, 0, 63, 55
1, 256935, Control_c, 0, 64, 36
1, 256938, Note_on_c, 0, 83, 82
1, 256950, Control_c, 0, 64, 34
1, 256951, Note_on_c, 0, 71, 83
1, 256954, Note_off_c, 0, 63, 63
1, 256956, Note_on_c, 0, 74, 70
1, 256957, Note_on_c, 0, 79, 72
1, 256960, Note_on_c, 0, 62, 72
1, 256962, Note_on_c, 0, 77, 69
1, 256965, Control_c, 0, 64, 32
1, 256981, Control_c, 0, 64, 30
1, 257026, Note_off_c, 0, 62, 62
1, 257034, Note_on_c, 0, 63, 66
1, 257055, Control_c, 0, 64, 31
1, 257070, Control_c, 0, 64, 32
1, 257070, Note_off_c, 0, 63, 65
1, 257096, Note_on_c, 0, 62, 70
1, 257099, Control_c, 0, 64, 33
1, 257114, Control_c, 0, 64, 34
1, 257135, Note_off_c, 0, 62, 60
1, 257173, Note_on_c, 0, 60, 70
1, 257225, Note_off_c, 0, 60, 60
1, 257238, Note_on_c, 0, 62, 77
1, 257247, Control_c, 0, 64, 34
1, 257261, Control_c, 0, 64, 35
1, 257276, Control_c, 0, 64, 36
1, 257291, Control_c, 0, 64, 36
1, 257293, Note_off_c, 0, 62, 57
1, 257306, Control_c, 0, 64, 37
1, 257313, Note_on_c, 0, 60, 68
1, 257321, Control_c, 0, 64, 38
1, 257350, Control_c, 0, 64, 39
1, 257365, Control_c, 0, 64, 42
1, 257380, Control_c, 0, 64, 45
1, 257383, Note_off_c, 0, 60, 61
1, 257387, Note_on_c, 0, 59, 75
1, 257394, Control_c, 0, 64, 47
1, 257409, Control_c, 0, 64, 51
1, 257424, Control_c, 0, 64, 53
1, 257438, Note_off_c, 0, 77, 57
1, 257439, Note_off_c, 0, 79, 49
1, 257439, Control_c, 0, 64, 55
1, 257453, Note_off_c, 0, 59, 63
1, 257454, Note_off_c, 0, 74, 60
1, 257454, Note_off_c, 0, 83, 53
1, 257454, Control_c, 0, 64, 57
1, 257467, Note_on_c, 0, 60, 55
1, 257469, Control_c, 0, 64, 58
1, 257484, Control_c, 0, 64, 58
1, 257495, Note_off_c, 0, 60, 63
1, 257499, Control_c, 0, 64, 59
1, 257514, Control_c, 0, 64, 60
1, 257517, Note_on_c, 0, 59, 61
1, 257525, Note_off_c, 0, 71, 53
1, 257528, Control_c, 0, 64, 60
1, 257558, Control_c, 0, 64, 61
1, 257575, Note_off_c, 0, 59, 57
1, 257580, Note_on_c, 0, 56, 69
1, 257639, Control_c, 0, 64, 61
1, 257651, Note_off_c, 0, 56, 63
1, 257654, Note_on_c, 0, 58, 70
1, 257722, Note_off_c, 0, 58, 64
1, 257726, Note_on_c, 0, 56, 67
1, 257788, Control_c, 0, 64, 61
1, 257803, Control_c, 0, 64, 60
1, 257807, Note_off_c, 0, 56, 63
1, 257818, Control_c, 0, 64, 59
1, 257818, Note_on_c, 0, 55, 75
1, 257828, Note_on_c, 0, 84, 91
1, 257832, Note_on_c, 0, 75, 85
1, 257833, Control_c, 0, 64, 58
1, 257833, Note_on_c, 0, 72, 93
1, 257837, Note_on_c, 0, 79, 80
1, 257848, Control_c, 0, 64, 57
1, 257862, Control_c, 0, 64, 56
1, 257874, Note_off_c, 0, 55, 59
1, 257886, Note_on_c, 0, 56, 67
1, 257946, Note_off_c, 0, 56, 63
1, 257966, Control_c, 0, 64, 56
1, 257971, Note_on_c, 0, 55, 75
1, 258010, Control_c, 0, 64, 57
1, 258011, Note_off_c, 0, 55, 62
1, 258040, Control_c, 0, 64, 57
1, 258044, Note_on_c, 0, 53, 76
1, 258084, Control_c, 0, 64, 58
1, 258110, Note_off_c, 0, 53, 66
1, 258113, Note_on_c, 0, 55, 77
1, 258129, Control_c, 0, 64, 58
1, 258166, Note_off_c, 0, 84, 55
1, 258169, Note_off_c, 0, 55, 63
1, 258174, Note_on_c, 0, 53, 66
1, 258188, Control_c, 0, 64, 59
1, 258231, Note_off_c, 0, 72, 56
1, 258232, Control_c, 0, 64, 59
1, 258240, Note_off_c, 0, 79, 59
1, 258247, Note_off_c, 0, 53, 65
1, 258253, Note_on_c, 0, 51, 79
1, 258274, Note_off_c, 0, 75, 60
1, 258322, Note_off_c, 0, 51, 62
1, 258332, Note_on_c, 0, 53, 76
1, 258373, Control_c, 0, 64, 59
1, 258413, Note_on_c, 0, 51, 65
1, 258417, Note_off_c, 0, 53, 58
1, 258417, Control_c, 0, 64, 58
1, 258467, Note_off_c, 0, 51, 62
1, 258468, Note_on_c, 0, 50, 75
1, 258477, Control_c, 0, 64, 58
1, 258491, Control_c, 0, 64, 57
1, 258506, Control_c, 0, 64, 57
1, 258521, Control_c, 0, 64, 56
1, 258542, Note_off_c, 0, 50, 64
1, 258545, Note_on_c, 0, 51, 78
1, 258596, Control_c, 0, 64, 57
1, 258611, Control_c, 0, 64, 57
1, 258628, Note_on_c, 0, 50, 64
1, 258635, Note_off_c, 0, 51, 62
1, 258641, Control_c, 0, 64, 58
1, 258693, Note_on_c, 0, 48, 94
1, 258697, Note_on_c, 0, 60, 84
1, 258715, Note_off_c, 0, 50, 64
1, 258715, Control_c, 0, 64, 56
1, 258730, Control_c, 0, 64, 55
1, 258734, Note_off_c, 0, 48, 67
1, 258745, Control_c, 0, 64, 54
1, 258760, Control_c, 0, 64, 53
1, 258769, Note_off_c, 0, 60, 62
1, 258773, Note_on_c, 0, 59, 81
1, 258774, Control_c, 0, 64, 52
1, 258789, Control_c, 0, 64, 51
1, 258819, Control_c, 0, 64, 50
1, 258838, Note_off_c, 0, 59, 59
1, 258862, Note_on_c, 0, 60, 78
1, 258945, Note_on_c, 0, 62, 83
1, 258950, Note_off_c, 0, 60, 61
1, 258952, Note_on_c, 0, 48, 102
1, 258955, Note_on_c, 0, 43, 85
1, 258956, Note_on_c, 0, 36, 80
1, 258958, Note_on_c, 0, 39, 86
1, 258966, Control_c, 0, 64, 49
1, 258981, Control_c, 0, 64, 48
1, 258996, Control_c, 0, 64, 47
1, 259009, Note_off_c, 0, 62, 65
1, 259022, Note_on_c, 0, 60, 76
1, 259079, Note_off_c, 0, 60, 56
1, 259082, Note_off_c, 0, 48, 61
1, 259085, Note_off_c, 0, 36, 63
1, 259108, Note_on_c, 0, 62, 81
1, 259122, Control_c, 0, 64, 47
1, 259129, Note_off_c, 0, 43, 59
1, 259137, Control_c, 0, 64, 46
1, 259151, Control_c, 0, 64, 45
1, 259155, Note_off_c, 0, 39, 60
1, 259176, Note_on_c, 0, 63, 84
1, 259178, Note_off_c, 0, 62, 62
1, 259225, Control_c, 0, 64, 46
1, 259240, Note_off_c, 0, 63, 66
1, 259251, Note_on_c, 0, 62, 79
1, 259285, Control_c, 0, 64, 45
1, 259300, Control_c, 0, 64, 45
1, 259314, Control_c, 0, 64, 44
1, 259324, Note_on_c, 0, 63, 85
1, 259329, Note_off_c, 0, 62, 60
1, 259329, Control_c, 0, 64, 43
1, 259344, Control_c, 0, 64, 42
1, 259359, Control_c, 0, 64, 41
1, 259375, Control_c, 0, 64, 40
1, 259383, Note_on_c, 0, 48, 96
1, 259386, Note_on_c, 0, 43, 80
1, 259390, Note_on_c, 0, 36, 75
1, 259394, Note_on_c, 0, 39, 76
1, 259395, Note_on_c, 0, 65, 80
1, 259397, Note_off_c, 0, 63, 63
1, 259404, Control_c, 0, 64, 39
1, 259419, Control_c, 0, 64, 39
1, 259448, Control_c, 0, 64, 38
1, 259462, Note_off_c, 0, 65, 65
1, 259463, Control_c, 0, 64, 39
1, 259467, Note_on_c, 0, 63, 77
1, 259478, Control_c, 0, 64, 40
1, 259493, Control_c, 0, 64, 41
1, 259502, Note_off_c, 0, 48, 62
1, 259511, Note_off_c, 0, 36, 60
1, 259523, Control_c, 0, 64, 41
1, 259531, Note_on_c, 0, 65, 64
1, 259534, Note_off_c, 0, 63, 64
1, 259546, Note_off_c, 0, 43, 55
1, 259568, Note_off_c, 0, 39, 59
1, 259582, Control_c, 0, 64, 40
1, 259588, Note_on_c, 0, 67, 96
1, 259597, Control_c, 0, 64, 35
1, 259599, Note_off_c, 0, 65, 66
1, 259612, Control_c, 0, 64, 0
1, 259623, Note_off_c, 0, 67, 68
1, 259801, Note_on_c, 0, 60, 84
1, 259803, Note_on_c, 0, 48, 91
1, 259809, Note_on_c, 0, 36, 76
1, 259809, Note_on_c, 0, 43, 81
1, 259812, Note_on_c, 0, 39, 75
1, 259835, Control_c, 0, 64, 76
1, 259857, Control_c, 0, 64, 89
1, 259862, Note_off_c, 0, 60, 60
1, 259872, Control_c, 0, 64, 101
1, 259887, Control_c, 0, 64, 101
1, 259901, Control_c, 0, 64, 102
1, 259916, Control_c, 0, 64, 104
1, 259930, Note_off_c, 0, 48, 62
1, 259931, Control_c, 0, 64, 107
1, 259946, Control_c, 0, 64, 111
1, 259959, Note_off_c, 0, 43, 60
1, 259961, Control_c, 0, 64, 114
1, 259975, Control_c, 0, 64, 115
1, 259982, Note_off_c, 0, 36, 59
1, 259990, Control_c, 0, 64, 117
1, 259997, Note_off_c, 0, 39, 63
1, 260005, Control_c, 0, 64, 118
1, 260020, Control_c, 0, 64, 120
1, 260022, Note_on_c, 0, 67, 74
1, 260035, Control_c, 0, 64, 122
1, 260049, Control_c, 0, 64, 123
1, 260092, Note_off_c, 0, 67, 64
1, 260092, Note_on_c, 0, 66, 83
1, 260094, Control_c, 0, 64, 121
1, 260109, Control_c, 0, 64, 116
1, 260123, Control_c, 0, 64, 109
1, 260130, Note_off_c, 0, 66, 65
1, 260138, Control_c, 0, 64, 101
1, 260153, Control_c, 0, 64, 92
1, 260168, Control_c, 0, 64, 83
1, 260178, Note_on_c, 0, 67, 81
1, 260184, Control_c, 0, 64, 74
1, 260198, Control_c, 0, 64, 62
1, 260213, Control_c, 0, 64, 0
1, 260232, Note_on_c, 0, 43, 95
1, 260235, Note_on_c, 0, 38, 85
1, 260237, Note_on_c, 0, 35, 81
1, 260238, Note_on_c, 0, 31, 80
1, 260238, Note_on_c, 0, 69, 89
1, 260250, Note_off_c, 0, 67, 63
1, 260295, Note_off_c, 0, 69, 68
1, 260299, Note_on_c, 0, 67, 73
1, 260358, Note_off_c, 0, 67, 60
1, 260382, Note_on_c, 0, 69, 80
1, 260408, Note_off_c, 0, 31, 58
1, 260418, Note_off_c, 0, 43, 58
1, 260435, Note_off_c, 0, 38, 56
1, 260441, Note_off_c, 0, 35, 60
1, 260444, Note_on_c, 0, 71, 83
1, 260455, Note_off_c, 0, 69, 64
1, 260511, Note_off_c, 0, 71, 61
1, 260524, Note_on_c, 0, 69, 79
1, 260575, Note_off_c, 0, 69, 63
1, 260595, Note_on_c, 0, 71, 81
1, 260635, Note_on_c, 0, 43, 97
1, 260641, Note_on_c, 0, 38, 84
1, 260641, Note_on_c, 0, 31, 79
1, 260641, Note_on_c, 0, 35, 81
1, 260662, Note_on_c, 0, 72, 83
1, 260665, Note_off_c, 0, 71, 62
1, 260718, Note_off_c, 0, 72, 65
1, 260721, Note_on_c, 0, 71, 70
1, 260772, Note_off_c, 0, 31, 57
1, 260784, Note_on_c, 0, 72, 74
1, 260788, Note_off_c, 0, 71, 61
1, 260817, Note_off_c, 0, 43, 58
1, 260828, Note_off_c, 0, 38, 57
1, 260842, Note_on_c, 0, 74, 101
1, 260843, Note_off_c, 0, 35, 54
1, 260848, Note_off_c, 0, 72, 66
1, 260875, Note_off_c, 0, 74, 71
1, 261063, Note_on_c, 0, 67, 92
1, 261064, Note_on_c, 0, 43, 89
1, 261067, Note_on_c, 0, 31, 76
1, 261073, Note_on_c, 0, 35, 72
1, 261076, Note_on_c, 0, 38, 73
1, 261079, Control_c, 0, 64, 70
1, 261094, Control_c, 0, 64, 102
1, 261101, Note_off_c, 0, 31, 66
1, 261109, Control_c, 0, 64, 127
1, 261111, Note_off_c, 0, 35, 63
1, 261112, Note_off_c, 0, 38, 62
1, 261124, Note_off_c, 0, 43, 61
1, 261130, Note_off_c, 0, 67, 60
1, 261272, Note_on_c, 0, 72, 81
1, 261337, Note_off_c, 0, 72, 65
1, 261354, Note_on_c, 0, 71, 76
1, 261413, Note_off_c, 0, 71, 55
1, 261426, Note_on_c, 0, 72, 77
1, 261442, Control_c, 0, 64, 117
1, 261457, Control_c, 0, 64, 105
1, 261472, Control_c, 0, 64, 94
1, 261476, Note_on_c, 0, 55, 92
1, 261481, Note_on_c, 0, 52, 89
1, 261481, Note_on_c, 0, 46, 84
1, 261487, Control_c, 0, 64, 85
1, 261487, Note_on_c, 0, 48, 82
1, 261490, Note_on_c, 0, 74, 83
1, 261496, Note_off_c, 0, 72, 63
1, 261501, Control_c, 0, 64, 75
1, 261516, Control_c, 0, 64, 67
1, 261531, Control_c, 0, 64, 53
1, 261545, Note_off_c, 0, 74, 66
1, 261545, Control_c, 0, 64, 0
1, 261549, Note_on_c, 0, 72, 78
1, 261621, Note_off_c, 0, 72, 61
1, 261628, Note_on_c, 0, 74, 79
1, 261640, Note_off_c, 0, 46, 58
1, 261664, Note_off_c, 0, 48, 57
1, 261664, Note_off_c, 0, 55, 51
1, 261668, Note_off_c, 0, 52, 59
1, 261697, Note_on_c, 0, 76, 87
1, 261705, Note_off_c, 0, 74, 66
1, 261758, Note_off_c, 0, 76, 68
1, 261769, Note_on_c, 0, 74, 75
1, 261835, Note_off_c, 0, 74, 62
1, 261837, Note_on_c, 0, 76, 83
1, 261890, Note_on_c, 0, 46, 74
1, 261890, Note_on_c, 0, 55, 89
1, 261895, Note_on_c, 0, 52, 81
1, 261902, Note_on_c, 0, 48, 73
1, 261908, Note_on_c, 0, 77, 85
1, 261914, Note_off_c, 0, 76, 64
1, 261961, Note_on_c, 0, 76, 68
1, 261961, Note_off_c, 0, 77, 62
1, 262029, Note_off_c, 0, 46, 55
1, 262030, Note_on_c, 0, 77, 80
1, 262044, Note_off_c, 0, 76, 62
1, 262059, Note_off_c, 0, 55, 60
1, 262064, Note_off_c, 0, 52, 59
1, 262079, Note_off_c, 0, 48, 53
1, 262088, Note_on_c, 0, 79, 100
1, 262107, Note_off_c, 0, 77, 63
1, 262125, Note_off_c, 0, 79, 68
1, 262304, Note_on_c, 0, 46, 69
1, 262307, Note_on_c, 0, 55, 86
1, 262312, Note_on_c, 0, 52, 83
1, 262320, Note_on_c, 0, 72, 79
1, 262322, Note_on_c, 0, 48, 74
1, 262322, Note_on_c, 0, 74, 70
1, 262339, Control_c, 0, 64, 84
1, 262353, Note_off_c, 0, 74, 58
1, 262354, Control_c, 0, 64, 111
1, 262368, Note_off_c, 0, 72, 63
1, 262368, Control_c, 0, 64, 124
1, 262383, Control_c, 0, 64, 127
1, 262473, Note_off_c, 0, 46, 50
1, 262490, Note_off_c, 0, 55, 58
1, 262515, Note_off_c, 0, 52, 63
1, 262525, Note_on_c, 0, 77, 83
1, 262542, Note_off_c, 0, 48, 55
1, 262593, Note_off_c, 0, 77, 61
1, 262596, Note_on_c, 0, 76, 85
1, 262622, Control_c, 0, 64, 124
1, 262637, Control_c, 0, 64, 112
1, 262650, Note_off_c, 0, 76, 59
1, 262652, Control_c, 0, 64, 104
1, 262666, Control_c, 0, 64, 96
1, 262677, Note_on_c, 0, 77, 80
1, 262681, Control_c, 0, 64, 88
1, 262696, Control_c, 0, 64, 78
1, 262711, Control_c, 0, 64, 68
1, 262726, Control_c, 0, 64, 0
1, 262739, Note_on_c, 0, 57, 96
1, 262743, Note_on_c, 0, 53, 84
1, 262745, Note_on_c, 0, 79, 85
1, 262745, Note_on_c, 0, 45, 78
1, 262749, Note_off_c, 0, 77, 58
1, 262756, Note_on_c, 0, 48, 69
1, 262805, Note_off_c, 0, 79, 63
1, 262812, Note_on_c, 0, 77, 75
1, 262888, Note_off_c, 0, 77, 50
1, 262892, Note_on_c, 0, 79, 84
1, 262935, Note_off_c, 0, 45, 55
1, 262960, Note_on_c, 0, 81, 87
1, 262969, Note_off_c, 0, 79, 61
1, 262975, Note_off_c, 0, 53, 58
1, 262978, Note_off_c, 0, 57, 58
1, 262998, Note_off_c, 0, 48, 34
1, 263020, Note_off_c, 0, 81, 62
1, 263030, Note_on_c, 0, 79, 80
1, 263105, Note_on_c, 0, 81, 82
1, 263108, Note_off_c, 0, 79, 60
1, 263149, Note_on_c, 0, 57, 86
1, 263151, Note_on_c, 0, 53, 77
1, 263154, Note_on_c, 0, 45, 74
1, 263165, Note_on_c, 0, 48, 68
1, 263167, Note_on_c, 0, 82, 85
1, 263171, Note_off_c, 0, 81, 62
1, 263228, Note_off_c, 0, 82, 65
1, 263236, Note_on_c, 0, 81, 79
1, 263312, Note_on_c, 0, 82, 77
1, 263312, Note_off_c, 0, 81, 61
1, 263349, Note_off_c, 0, 45, 58
1, 263362, Note_on_c, 0, 84, 97
1, 263374, Note_off_c, 0, 57, 57
1, 263381, Note_off_c, 0, 48, 52
1, 263386, Note_off_c, 0, 53, 62
1, 263386, Note_off_c, 0, 82, 66
1, 263398, Note_off_c, 0, 84, 69
1, 263565, Note_on_c, 0, 77, 96
1, 263575, Note_on_c, 0, 45, 73
1, 263575, Note_on_c, 0, 57, 86
1, 263577, Note_on_c, 0, 53, 76
1, 263601, Control_c, 0, 64, 75
1, 263601, Note_on_c, 0, 48, 63
1, 263616, Control_c, 0, 64, 97
1, 263630, Control_c, 0, 64, 116
1, 263645, Control_c, 0, 64, 117
1, 263658, Note_off_c, 0, 45, 64
1, 263660, Control_c, 0, 64, 122
1, 263666, Note_off_c, 0, 57, 60
1, 263672, Note_off_c, 0, 48, 64
1, 263675, Control_c, 0, 64, 127
1, 263690, Note_off_c, 0, 53, 65
1, 263690, Note_off_c, 0, 77, 59
1, 263773, Note_on_c, 0, 78, 83
1, 263841, Note_off_c, 0, 78, 62
1, 263848, Note_on_c, 0, 77, 86
1, 263923, Note_on_c, 0, 78, 83
1, 263929, Note_off_c, 0, 77, 57
1, 263955, Control_c, 0, 64, 114
1, 263970, Control_c, 0, 64, 104
1, 263985, Control_c, 0, 64, 93
1, 263988, Note_on_c, 0, 79, 84
1, 263991, Note_off_c, 0, 78, 62
1, 263992, Note_on_c, 0, 60, 87
1, 263997, Note_on_c, 0, 50, 74
1, 263997, Note_on_c, 0, 57, 77
1, 264000, Control_c, 0, 64, 85
1, 264005, Note_on_c, 0, 54, 70
1, 264015, Control_c, 0, 64, 77
1, 264029, Control_c, 0, 64, 69
1, 264044, Control_c, 0, 64, 57
1, 264059, Control_c, 0, 64, 0
1, 264060, Note_off_c, 0, 79, 62
1, 264065, Note_on_c, 0, 78, 88
1, 264137, Note_off_c, 0, 78, 63
1, 264156, Note_on_c, 0, 79, 75
1, 264224, Note_on_c, 0, 81, 82
1, 264224, Note_off_c, 0, 79, 62
1, 264268, Note_off_c, 0, 54, 49
1, 264278, Note_off_c, 0, 57, 52
1, 264286, Note_off_c, 0, 50, 34
1, 264289, Note_off_c, 0, 60, 54
1, 264290, Note_off_c, 0, 81, 62
1, 264295, Note_on_c, 0, 80, 82
1, 264368, Note_off_c, 0, 80, 64
1, 264371, Note_on_c, 0, 81, 82
1, 264420, Note_on_c, 0, 60, 81
1, 264421, Note_on_c, 0, 50, 73
1, 264423, Note_on_c, 0, 57, 71
1, 264424, Note_on_c, 0, 83, 82
1, 264425, Note_off_c, 0, 81, 61
1, 264426, Note_on_c, 0, 54, 65
1, 264493, Note_off_c, 0, 83, 63
1, 264495, Note_on_c, 0, 81, 85
1, 264546, Note_off_c, 0, 50, 35
1, 264555, Note_off_c, 0, 60, 56
1, 264562, Note_off_c, 0, 81, 59
1, 264564, Note_on_c, 0, 83, 76
1, 264570, Note_off_c, 0, 54, 53
1, 264573, Note_off_c, 0, 57, 55
1, 264605, Note_on_c, 0, 84, 97
1, 264616, Note_off_c, 0, 83, 64
1, 264632, Note_off_c, 0, 84, 70
1, 264805, Note_on_c, 0, 57, 68
1, 264805, Note_on_c, 0, 60, 78
1, 264807, Note_on_c, 0, 54, 67
1, 264808, Note_on_c, 0, 50, 65
1, 264811, Note_on_c, 0, 78, 97
1, 264823, Control_c, 0, 64, 55
1, 264837, Control_c, 0, 64, 86
1, 264852, Control_c, 0, 64, 111
1, 264867, Control_c, 0, 64, 127
1, 264894, Note_off_c, 0, 50, 61
1, 264910, Note_off_c, 0, 78, 56
1, 264919, Note_off_c, 0, 60, 59
1, 264921, Note_off_c, 0, 57, 61
1, 264927, Note_off_c, 0, 54, 62
1, 265014, Note_on_c, 0, 79, 87
1, 265108, Note_on_c, 0, 81, 87
1, 265114, Note_off_c, 0, 79, 59
1, 265142, Control_c, 0, 64, 124
1, 265157, Control_c, 0, 64, 118
1, 265172, Control_c, 0, 64, 111
1, 265187, Control_c, 0, 64, 104
1, 265188, Note_off_c, 0, 81, 63
1, 265194, Note_on_c, 0, 79, 86
1, 265201, Control_c, 0, 64, 95
1, 265216, Control_c, 0, 64, 85
1, 265231, Control_c, 0, 64, 71
1, 265246, Control_c, 0, 64, 39
1, 265261, Control_c, 0, 64, 0
1, 265263, Note_off_c, 0, 79, 63
1, 265273, Note_on_c, 0, 77, 82
1, 265288, Note_on_c, 0, 65, 76
1, 265293, Note_on_c, 0, 62, 68
1, 265294, Note_on_c, 0, 55, 61
1, 265294, Note_on_c, 0, 59, 64
1, 265319, Control_c, 0, 64, 51
1, 265334, Control_c, 0, 64, 65
1, 265349, Control_c, 0, 64, 69
1, 265353, Note_on_c, 0, 79, 77
1, 265354, Note_off_c, 0, 77, 58
1, 265364, Control_c, 0, 64, 72
1, 265379, Control_c, 0, 64, 73
1, 265393, Control_c, 0, 64, 75
1, 265408, Control_c, 0, 64, 78
1, 265419, Note_off_c, 0, 79, 61
1, 265423, Note_on_c, 0, 77, 71
1, 265423, Control_c, 0, 64, 80
1, 265438, Control_c, 0, 64, 83
1, 265453, Control_c, 0, 64, 86
1, 265467, Control_c, 0, 64, 88
1, 265482, Control_c, 0, 64, 90
1, 265484, Note_on_c, 0, 80, 80
1, 265495, Note_off_c, 0, 77, 57
1, 265498, Control_c, 0, 64, 92
1, 265512, Control_c, 0, 64, 93
1, 265527, Control_c, 0, 64, 93
1, 265542, Control_c, 0, 64, 94
1, 265549, Note_off_c, 0, 62, 45
1, 265550, Note_off_c, 0, 59, 51
1, 265555, Note_off_c, 0, 80, 65
1, 265557, Control_c, 0, 64, 95
1, 265558, Note_on_c, 0, 82, 83
1, 265563, Note_off_c, 0, 65, 38
1, 265572, Control_c, 0, 64, 95
1, 265586, Control_c, 0, 64, 96
1, 265603, Note_off_c, 0, 55, 41
1, 265626, Note_on_c, 0, 80, 81
1, 265631, Control_c, 0, 64, 95
1, 265646, Control_c, 0, 64, 92
1, 265661, Control_c, 0, 64, 82
1, 265675, Control_c, 0, 64, 66
1, 265676, Note_off_c, 0, 82, 60
1, 265690, Control_c, 0, 64, 0
1, 265694, Note_on_c, 0, 65, 73
1, 265698, Note_on_c, 0, 62, 65
1, 265701, Note_on_c, 0, 59, 61
1, 265702, Note_on_c, 0, 55, 66
1, 265707, Note_off_c, 0, 80, 63
1, 265708, Note_on_c, 0, 79, 75
1, 265735, Control_c, 0, 64, 53
1, 265750, Control_c, 0, 64, 70
1, 265765, Control_c, 0, 64, 82
1, 265771, Note_on_c, 0, 80, 80
1, 265774, Note_off_c, 0, 79, 61
1, 265780, Control_c, 0, 64, 96
1, 265795, Control_c, 0, 64, 107
1, 265810, Control_c, 0, 64, 112
1, 265824, Control_c, 0, 64, 115
1, 265847, Control_c, 0, 64, 118
1, 265855, Note_on_c, 0, 79, 76
1, 265857, Note_off_c, 0, 80, 65
1, 265862, Control_c, 0, 64, 122
1, 265877, Control_c, 0, 64, 127
1, 265896, Note_off_c, 0, 55, 54
1, 265907, Note_off_c, 0, 79, 64
1, 265914, Note_on_c, 0, 77, 72
1, 265917, Note_off_c, 0, 59, 57
1, 265924, Note_off_c, 0, 62, 57
1, 265932, Note_off_c, 0, 65, 39
1, 265969, Note_off_c, 0, 77, 43
1, 265974, Note_on_c, 0, 79, 71
1, 266050, Note_on_c, 0, 77, 76
1, 266084, Control_c, 0, 64, 101
1, 266099, Control_c, 0, 64, 78
1, 266104, Note_off_c, 0, 79, 61
1, 266112, Note_on_c, 0, 65, 79
1, 266114, Control_c, 0, 64, 0
1, 266117, Note_on_c, 0, 62, 69
1, 266118, Note_on_c, 0, 75, 80
1, 266120, Note_on_c, 0, 59, 65
1, 266122, Note_on_c, 0, 55, 60
1, 266123, Note_off_c, 0, 77, 63
1, 266173, Control_c, 0, 64, 67
1, 266181, Note_on_c, 0, 77, 72
1, 266187, Note_off_c, 0, 75, 63
1, 266188, Control_c, 0, 64, 82
1, 266203, Control_c, 0, 64, 95
1, 266212, Note_off_c, 0, 65, 63
1, 266217, Control_c, 0, 64, 103
1, 266223, Note_off_c, 0, 62, 61
1, 266232, Control_c, 0, 64, 108
1, 266247, Control_c, 0, 64, 112
1, 266255, Note_off_c, 0, 59, 62
1, 266258, Note_on_c, 0, 75, 84
1, 266262, Note_off_c, 0, 77, 62
1, 266262, Control_c, 0, 64, 117
1, 266277, Control_c, 0, 64, 121
1, 266279, Note_off_c, 0, 55, 64
1, 266291, Control_c, 0, 64, 124
1, 266306, Control_c, 0, 64, 125
1, 266319, Note_off_c, 0, 75, 65
1, 266321, Control_c, 0, 64, 125
1, 266328, Note_on_c, 0, 74, 75
1, 266335, Control_c, 0, 64, 126
1, 266350, Control_c, 0, 64, 127
1, 266365, Control_c, 0, 64, 127
1, 266391, Note_on_c, 0, 75, 71
1, 266392, Note_off_c, 0, 74, 63
1, 266454, Control_c, 0, 64, 125
1, 266457, Note_on_c, 0, 74, 73
1, 266469, Control_c, 0, 64, 117
1, 266483, Control_c, 0, 64, 109
1, 266498, Control_c, 0, 64, 96
1, 266507, Note_off_c, 0, 75, 56
1, 266513, Control_c, 0, 64, 79
1, 266528, Note_on_c, 0, 72, 74
1, 266528, Control_c, 0, 64, 45
1, 266534, Note_off_c, 0, 74, 65
1, 266536, Note_on_c, 0, 55, 82
1, 266541, Note_on_c, 0, 47, 71
1, 266542, Note_on_c, 0, 50, 73
1, 266543, Control_c, 0, 64, 0
1, 266544, Note_on_c, 0, 43, 68
1, 266609, Note_off_c, 0, 72, 64
1, 266611, Control_c, 0, 64, 66
1, 266613, Note_on_c, 0, 74, 74
1, 266626, Control_c, 0, 64, 77
1, 266640, Control_c, 0, 64, 88
1, 266655, Control_c, 0, 64, 94
1, 266670, Control_c, 0, 64, 96
1, 266685, Control_c, 0, 64, 96
1, 266690, Note_on_c, 0, 72, 80
1, 266692, Note_off_c, 0, 74, 64
1, 266700, Control_c, 0, 64, 98
1, 266714, Control_c, 0, 64, 100
1, 266729, Control_c, 0, 64, 103
1, 266744, Control_c, 0, 64, 108
1, 266747, Note_off_c, 0, 72, 65
1, 266755, Note_on_c, 0, 71, 78
1, 266759, Control_c, 0, 64, 113
1, 266773, Control_c, 0, 64, 118
1, 266775, Note_off_c, 0, 50, 54
1, 266779, Note_off_c, 0, 43, 37
1, 266780, Note_off_c, 0, 47, 59
1, 266784, Note_off_c, 0, 55, 39
1, 266788, Control_c, 0, 64, 122
1, 266803, Control_c, 0, 64, 127
1, 266816, Note_off_c, 0, 71, 52
1, 266826, Note_on_c, 0, 72, 75
1, 266886, Note_on_c, 0, 71, 71
1, 266936, Note_off_c, 0, 72, 64
1, 266936, Control_c, 0, 64, 120
1, 266951, Control_c, 0, 64, 106
1, 266963, Note_on_c, 0, 68, 80
1, 266964, Note_off_c, 0, 71, 63
1, 266966, Note_on_c, 0, 55, 87
1, 266966, Control_c, 0, 64, 92
1, 266972, Note_on_c, 0, 47, 81
1, 266972, Note_on_c, 0, 43, 72
1, 266972, Note_on_c, 0, 50, 78
1, 266981, Control_c, 0, 64, 75
1, 266996, Control_c, 0, 64, 0
1, 267035, Note_on_c, 0, 70, 84
1, 267036, Note_off_c, 0, 68, 64
1, 267070, Control_c, 0, 64, 65
1, 267085, Control_c, 0, 64, 73
1, 267097, Note_on_c, 0, 68, 82
1, 267100, Control_c, 0, 64, 81
1, 267103, Note_off_c, 0, 70, 63
1, 267114, Control_c, 0, 64, 89
1, 267129, Control_c, 0, 64, 96
1, 267144, Control_c, 0, 64, 101
1, 267158, Control_c, 0, 64, 108
1, 267169, Note_off_c, 0, 68, 64
1, 267173, Control_c, 0, 64, 117
1, 267176, Note_on_c, 0, 67, 79
1, 267188, Control_c, 0, 64, 127
1, 267228, Note_off_c, 0, 55, 52
1, 267231, Note_off_c, 0, 67, 58
1, 267240, Note_off_c, 0, 50, 52
1, 267241, Note_off_c, 0, 47, 57
1, 267242, Note_on_c, 0, 68, 80
1, 267253, Note_off_c, 0, 43, 36
1, 267297, Note_off_c, 0, 68, 65
1, 267303, Note_on_c, 0, 67, 77
1, 267324, Note_off_c, 0, 67, 68
1, 267441, Note_on_c, 0, 83, 97
1, 267443, Note_on_c, 0, 55, 69
1, 267446, Note_on_c, 0, 47, 76
1, 267449, Control_c, 0, 64, 124
1, 267452, Note_on_c, 0, 43, 62
1, 267455, Note_on_c, 0, 50, 57
1, 267463, Control_c, 0, 64, 119
1, 267464, Note_off_c, 0, 55, 65
1, 267478, Note_off_c, 0, 47, 68
1, 267478, Control_c, 0, 64, 115
1, 267479, Note_off_c, 0, 50, 57
1, 267493, Note_off_c, 0, 43, 63
1, 267493, Control_c, 0, 64, 111
1, 267508, Control_c, 0, 64, 107
1, 267523, Control_c, 0, 64, 102
1, 267532, Note_off_c, 0, 83, 61
1, 267533, Note_on_c, 0, 84, 86
1, 267538, Control_c, 0, 64, 97
1, 267552, Control_c, 0, 64, 91
1, 267567, Control_c, 0, 64, 81
1, 267582, Control_c, 0, 64, 69
1, 267596, Control_c, 0, 64, 0
1, 267608, Note_off_c, 0, 84, 64
1, 267613, Note_on_c, 0, 83, 74
1, 267675, Note_off_c, 0, 83, 61
1, 267696, Note_on_c, 0, 84, 85
1, 267704, Note_on_c, 0, 48, 85
1, 267708, Note_on_c, 0, 39, 79
1, 267711, Note_on_c, 0, 43, 69
1, 267711, Note_on_c, 0, 36, 74
1, 267715, Control_c, 0, 64, 71
1, 267730, Control_c, 0, 64, 98
1, 267744, Control_c, 0, 64, 127
1, 267746, Note_off_c, 0, 43, 65
1, 267747, Note_off_c, 0, 48, 65
1, 267747, Note_off_c, 0, 36, 65
1, 267762, Note_off_c, 0, 39, 63
1, 267775, Note_off_c, 0, 84, 63
1, 267787, Note_on_c, 0, 86, 84
1, 267860, Note_on_c, 0, 84, 79
1, 267884, Note_off_c, 0, 86, 63
1, 267923, Note_off_c, 0, 84, 65
1, 267928, Note_on_c, 0, 79, 78
1, 267976, Note_off_c, 0, 79, 61
1, 268001, Note_on_c, 0, 80, 84
1, 268059, Note_off_c, 0, 80, 66
1, 268063, Note_on_c, 0, 79, 86
1, 268069, Control_c, 0, 64, 119
1, 268092, Control_c, 0, 64, 106
1, 268107, Control_c, 0, 64, 96
1, 268111, Note_off_c, 0, 79, 64
1, 268121, Control_c, 0, 64, 89
1, 268136, Control_c, 0, 64, 82
1, 268140, Note_on_c, 0, 75, 99
1, 268151, Control_c, 0, 64, 77
1, 268167, Control_c, 0, 64, 72
1, 268176, Note_off_c, 0, 75, 68
1, 268182, Control_c, 0, 64, 67
1, 268197, Control_c, 0, 64, 60
1, 268211, Control_c, 0, 64, 38
1, 268226, Note_on_c, 0, 77, 81
1, 268226, Control_c, 0, 64, 0
1, 268301, Note_off_c, 0, 77, 62
1, 268302, Note_on_c, 0, 75, 76
1, 268330, Control_c, 0, 64, 20
1, 268337, Note_off_c, 0, 75, 64
1, 268344, Control_c, 0, 64, 31
1, 268359, Control_c, 0, 64, 35
1, 268369, Note_on_c, 0, 72, 95
1, 268389, Control_c, 0, 64, 34
1, 268397, Note_off_c, 0, 72, 69
1, 268404, Control_c, 0, 64, 29
1, 268418, Control_c, 0, 64, 24
1, 268433, Control_c, 0, 64, 23
1, 268448, Control_c, 0, 64, 21
1, 268454, Note_on_c, 0, 74, 73
1, 268492, Control_c, 0, 64, 20
1, 268522, Note_off_c, 0, 74, 65
1, 268525, Note_on_c, 0, 72, 73
1, 268552, Control_c, 0, 64, 21
1, 268558, Note_off_c, 0, 72, 62
1, 268567, Control_c, 0, 64, 24
1, 268582, Control_c, 0, 64, 30
1, 268591, Note_on_c, 0, 67, 102
1, 268597, Control_c, 0, 64, 36
1, 268611, Control_c, 0, 64, 42
1, 268622, Note_off_c, 0, 67, 67
1, 268626, Control_c, 0, 64, 47
1, 268641, Control_c, 0, 64, 50
1, 268656, Control_c, 0, 64, 51
1, 268671, Control_c, 0, 64, 52
1, 268672, Note_on_c, 0, 68, 73
1, 268700, Control_c, 0, 64, 53
1, 268715, Control_c, 0, 64, 53
1, 268729, Control_c, 0, 64, 54
1, 268744, Control_c, 0, 64, 54
1, 268752, Note_on_c, 0, 67, 67
1, 268753, Note_off_c, 0, 68, 64
1, 268759, Control_c, 0, 64, 55
1, 268774, Control_c, 0, 64, 56
1, 268789, Control_c, 0, 64, 57
1, 268799, Note_off_c, 0, 67, 61
1, 268803, Control_c, 0, 64, 57
1, 268818, Note_on_c, 0, 63, 101
1, 268841, Control_c, 0, 64, 58
1, 268856, Control_c, 0, 64, 59
1, 268860, Note_off_c, 0, 63, 68
1, 268871, Control_c, 0, 64, 60
1, 268885, Control_c, 0, 64, 61
1, 268900, Control_c, 0, 64, 62
1, 268905, Note_on_c, 0, 65, 70
1, 268956, Note_off_c, 0, 65, 65
1, 268981, Note_on_c, 0, 63, 33
1, 269005, Control_c, 0, 64, 61
1, 269009, Note_off_c, 0, 63, 49
1, 269049, Control_c, 0, 64, 61
1, 269060, Note_on_c, 0, 72, 96
1, 269063, Note_on_c, 0, 60, 96
1, 269064, Control_c, 0, 64, 60
1, 269079, Control_c, 0, 64, 59
1, 269086, Note_off_c, 0, 60, 68
1, 269094, Control_c, 0, 64, 56
1, 269101, Note_off_c, 0, 72, 67
1, 269108, Control_c, 0, 64, 53
1, 269123, Control_c, 0, 64, 52
1, 269138, Control_c, 0, 64, 51
1, 269153, Control_c, 0, 64, 51
1, 269227, Control_c, 0, 64, 52
1, 269291, Note_on_c, 0, 74, 92
1, 269296, Note_on_c, 0, 62, 91
1, 269301, Control_c, 0, 64, 51
1, 269320, Note_off_c, 0, 62, 67
1, 269339, Note_off_c, 0, 74, 67
1, 269346, Control_c, 0, 64, 52
1, 269512, Note_on_c, 0, 75, 91
1, 269515, Note_on_c, 0, 63, 86
1, 269522, Note_on_c, 0, 48, 85
1, 269529, Note_on_c, 0, 36, 76
1, 269539, Control_c, 0, 64, 52
1, 269542, Note_off_c, 0, 63, 67
1, 269548, Note_off_c, 0, 48, 69
1, 269554, Control_c, 0, 64, 52
1, 269556, Note_off_c, 0, 36, 65
1, 269560, Note_off_c, 0, 75, 64
1, 269590, Control_c, 0, 64, 51
1, 269620, Control_c, 0, 64, 50
1, 269664, Control_c, 0, 64, 50
1, 269679, Control_c, 0, 64, 49
1, 269694, Control_c, 0, 64, 48
1, 269709, Control_c, 0, 64, 48
1, 269724, Control_c, 0, 64, 47
1, 269739, Note_on_c, 0, 77, 103
1, 269741, Note_on_c, 0, 65, 98
1, 269750, Note_on_c, 0, 50, 88
1, 269753, Note_on_c, 0, 38, 82
1, 269769, Control_c, 0, 64, 47
1, 269770, Note_off_c, 0, 65, 69
1, 269775, Note_off_c, 0, 50, 69
1, 269777, Note_off_c, 0, 77, 67
1, 269783, Control_c, 0, 64, 46
1, 269786, Note_off_c, 0, 38, 68
1, 269798, Control_c, 0, 64, 45
1, 269813, Control_c, 0, 64, 44
1, 269828, Control_c, 0, 64, 43
1, 269843, Control_c, 0, 64, 42
1, 269887, Control_c, 0, 64, 43
1, 269902, Control_c, 0, 64, 43
1, 269917, Control_c, 0, 64, 44
1, 269965, Note_on_c, 0, 67, 107
1, 269965, Note_on_c, 0, 79, 102
1, 269968, Note_on_c, 0, 51, 93
1, 269974, Note_on_c, 0, 39, 79
1, 269991, Control_c, 0, 64, 43
1, 269995, Note_off_c, 0, 51, 67
1, 270004, Note_off_c, 0, 39, 67
1, 270006, Control_c, 0, 64, 43
1, 270021, Control_c, 0, 64, 42
1, 270036, Control_c, 0, 64, 41
1, 270095, Control_c, 0, 64, 42
1, 270109, Control_c, 0, 64, 42
1, 270124, Control_c, 0, 64, 43
1, 270154, Control_c, 0, 64, 43
1, 270169, Control_c, 0, 64, 44
1, 270181, Note_on_c, 0, 53, 99
1, 270183, Control_c, 0, 64, 45
1, 270189, Note_on_c, 0, 41, 89
1, 270198, Control_c, 0, 64, 45
1, 270213, Control_c, 0, 64, 45
1, 270216, Note_off_c, 0, 53, 67
1, 270219, Note_off_c, 0, 41, 69
1, 270227, Note_off_c, 0, 79, 52
1, 270228, Control_c, 0, 64, 44
1, 270240, Note_off_c, 0, 67, 53
1, 270243, Control_c, 0, 64, 43
1, 270257, Control_c, 0, 64, 43
1, 270287, Control_c, 0, 64, 42
1, 270354, Control_c, 0, 64, 43
1, 270398, Control_c, 0, 64, 43
1, 270403, Note_on_c, 0, 67, 91
1, 270406, Note_on_c, 0, 79, 93
1, 270409, Note_on_c, 0, 55, 100
1, 270413, Control_c, 0, 64, 44
1, 270417, Note_on_c, 0, 43, 95
1, 270428, Control_c, 0, 64, 44
1, 270433, Note_off_c, 0, 67, 65
1, 270447, Note_off_c, 0, 79, 64
1, 270457, Control_c, 0, 64, 44
1, 270487, Control_c, 0, 64, 43
1, 270562, Control_c, 0, 64, 44
1, 270590, Note_off_c, 0, 55, 58
1, 270606, Control_c, 0, 64, 44
1, 270629, Note_on_c, 0, 81, 103
1, 270632, Note_on_c, 0, 69, 100
1, 270638, Note_off_c, 0, 43, 61
1, 270651, Control_c, 0, 64, 44
1, 270665, Note_off_c, 0, 69, 68
1, 270676, Note_off_c, 0, 81, 63
1, 270680, Control_c, 0, 64, 43
1, 270725, Control_c, 0, 64, 44
1, 270740, Control_c, 0, 64, 44
1, 270755, Control_c, 0, 64, 45
1, 270814, Control_c, 0, 64, 44
1, 270847, Note_on_c, 0, 83, 96
1, 270851, Note_on_c, 0, 71, 96
1, 270853, Note_on_c, 0, 43, 92
1, 270857, Note_on_c, 0, 31, 83
1, 270859, Control_c, 0, 64, 45
1, 270874, Control_c, 0, 64, 46
1, 270880, Note_off_c, 0, 71, 63
1, 270886, Note_off_c, 0, 31, 67
1, 270887, Note_off_c, 0, 43, 63
1, 270892, Note_off_c, 0, 83, 63
1, 270918, Control_c, 0, 64, 45
1, 270977, Control_c, 0, 64, 46
1, 271036, Control_c, 0, 64, 46
1, 271047, Note_on_c, 0, 84, 102
1, 271048, Note_on_c, 0, 45, 88
1, 271050, Note_on_c, 0, 72, 98
1, 271051, Control_c, 0, 64, 47
1, 271055, Note_on_c, 0, 33, 81
1, 271066, Control_c, 0, 64, 47
1, 271084, Note_off_c, 0, 72, 67
1, 271089, Note_off_c, 0, 84, 69
1, 271091, Note_off_c, 0, 45, 67
1, 271094, Note_off_c, 0, 33, 68
1, 271118, Control_c, 0, 64, 46
1, 271132, Control_c, 0, 64, 45
1, 271147, Control_c, 0, 64, 44
1, 271162, Control_c, 0, 64, 43
1, 271265, Note_on_c, 0, 86, 101
1, 271265, Control_c, 0, 64, 43
1, 271268, Note_on_c, 0, 74, 103
1, 271272, Note_on_c, 0, 47, 98
1, 271278, Note_on_c, 0, 35, 86
1, 271280, Control_c, 0, 64, 45
1, 271295, Control_c, 0, 64, 45
1, 271306, Note_off_c, 0, 47, 66
1, 271309, Note_off_c, 0, 35, 69
1, 271310, Control_c, 0, 64, 46
1, 271325, Control_c, 0, 64, 46
1, 271339, Control_c, 0, 64, 47
1, 271355, Control_c, 0, 64, 48
1, 271370, Control_c, 0, 64, 49
1, 271385, Control_c, 0, 64, 51
1, 271396, Note_off_c, 0, 86, 63
1, 271400, Control_c, 0, 64, 53
1, 271415, Control_c, 0, 64, 55
1, 271418, Note_off_c, 0, 74, 61
1, 271429, Control_c, 0, 64, 56
1, 271444, Control_c, 0, 64, 57
1, 271470, Note_on_c, 0, 48, 98
1, 271479, Note_on_c, 0, 36, 87
1, 271508, Note_off_c, 0, 36, 69
1, 271509, Note_off_c, 0, 48, 67
1, 271533, Control_c, 0, 64, 56
1, 271548, Control_c, 0, 64, 50
1, 271563, Control_c, 0, 64, 29
1, 271578, Control_c, 0, 64, 0
1, 271684, Note_on_c, 0, 49, 102
1, 271693, Note_on_c, 0, 70, 90
1, 271695, Note_on_c, 0, 37, 87
1, 271695, Note_on_c, 0, 58, 86
1, 271711, Control_c, 0, 64, 61
1, 271726, Control_c, 0, 64, 68
1, 271732, Note_off_c, 0, 58, 61
1, 271741, Control_c, 0, 64, 69
1, 271760, Note_off_c, 0, 70, 60
1, 271785, Control_c, 0, 64, 69
1, 271800, Control_c, 0, 64, 68
1, 271815, Control_c, 0, 64, 66
1, 271837, Control_c, 0, 64, 65
1, 271852, Control_c, 0, 64, 64
1, 271867, Control_c, 0, 64, 63
1, 271881, Control_c, 0, 64, 63
1, 271886, Note_off_c, 0, 49, 54
1, 271892, Note_off_c, 0, 37, 64
1, 271896, Control_c, 0, 64, 61
1, 271911, Control_c, 0, 64, 59
1, 271912, Note_on_c, 0, 72, 89
1, 271919, Note_on_c, 0, 60, 87
1, 271926, Control_c, 0, 64, 56
1, 271941, Control_c, 0, 64, 55
1, 271945, Note_off_c, 0, 60, 66
1, 271955, Control_c, 0, 64, 54
1, 271957, Note_off_c, 0, 72, 67
1, 272116, Note_on_c, 0, 61, 94
1, 272117, Note_on_c, 0, 73, 90
1, 272123, Note_on_c, 0, 46, 88
1, 272128, Note_on_c, 0, 34, 78
1, 272133, Control_c, 0, 64, 55
1, 272156, Note_off_c, 0, 46, 65
1, 272162, Note_off_c, 0, 61, 61
1, 272162, Note_off_c, 0, 34, 68
1, 272164, Control_c, 0, 64, 55
1, 272173, Note_off_c, 0, 73, 61
1, 272251, Control_c, 0, 64, 56
1, 272266, Control_c, 0, 64, 56
1, 272281, Control_c, 0, 64, 57
1, 272296, Control_c, 0, 64, 58
1, 272311, Control_c, 0, 64, 59
1, 272314, Note_on_c, 0, 48, 92
1, 272323, Note_on_c, 0, 75, 89
1, 272325, Note_on_c, 0, 36, 80
1, 272326, Control_c, 0, 64, 59
1, 272328, Note_on_c, 0, 63, 84
1, 272341, Control_c, 0, 64, 60
1, 272349, Note_off_c, 0, 48, 68
1, 272351, Note_off_c, 0, 63, 69
1, 272358, Note_off_c, 0, 36, 68
1, 272375, Note_off_c, 0, 75, 62
1, 272385, Control_c, 0, 64, 59
1, 272400, Control_c, 0, 64, 58
1, 272415, Control_c, 0, 64, 57
1, 272430, Control_c, 0, 64, 56
1, 272445, Control_c, 0, 64, 54
1, 272459, Control_c, 0, 64, 54
1, 272474, Control_c, 0, 64, 52
1, 272489, Control_c, 0, 64, 51
1, 272503, Control_c, 0, 64, 49
1, 272518, Control_c, 0, 64, 48
1, 272526, Note_on_c, 0, 77, 99
1, 272527, Note_on_c, 0, 65, 106
1, 272531, Note_on_c, 0, 49, 99
1, 272533, Control_c, 0, 64, 47
1, 272539, Note_on_c, 0, 37, 84
1, 272548, Control_c, 0, 64, 45
1, 272563, Control_c, 0, 64, 43
1, 272567, Note_off_c, 0, 49, 64
1, 272570, Note_off_c, 0, 37, 70
1, 272585, Control_c, 0, 64, 39
1, 272600, Control_c, 0, 64, 34
1, 272615, Control_c, 0, 64, 34
1, 272630, Control_c, 0, 64, 34
1, 272645, Control_c, 0, 64, 35
1, 272659, Control_c, 0, 64, 36
1, 272674, Control_c, 0, 64, 38
1, 272689, Control_c, 0, 64, 39
1, 272703, Control_c, 0, 64, 41
1, 272718, Control_c, 0, 64, 43
1, 272733, Control_c, 0, 64, 46
1, 272737, Note_on_c, 0, 51, 96
1, 272746, Note_on_c, 0, 39, 85
1, 272748, Control_c, 0, 64, 47
1, 272763, Control_c, 0, 64, 48
1, 272776, Note_off_c, 0, 51, 63
1, 272777, Control_c, 0, 64, 47
1, 272778, Note_off_c, 0, 39, 66
1, 272806, Note_off_c, 0, 65, 52
1, 272822, Control_c, 0, 64, 47
1, 272824, Note_off_c, 0, 77, 29
1, 272937, Note_on_c, 0, 53, 105
1, 272940, Control_c, 0, 64, 47
1, 272941, Note_on_c, 0, 77, 97
1, 272943, Note_on_c, 0, 65, 86
1, 272946, Note_on_c, 0, 41, 91
1, 272978, Note_off_c, 0, 65, 67
1, 272986, Control_c, 0, 64, 47
1, 272992, Note_off_c, 0, 77, 64
1, 273000, Control_c, 0, 64, 46
1, 273015, Control_c, 0, 64, 46
1, 273089, Control_c, 0, 64, 46
1, 273119, Control_c, 0, 64, 47
1, 273167, Note_on_c, 0, 67, 91
1, 273168, Note_on_c, 0, 79, 93
1, 273194, Note_off_c, 0, 53, 58
1, 273200, Note_off_c, 0, 67, 64
1, 273208, Control_c, 0, 64, 46
1, 273208, Note_off_c, 0, 41, 63
1, 273214, Note_off_c, 0, 79, 65
1, 273282, Control_c, 0, 64, 47
1, 273297, Control_c, 0, 64, 47
1, 273312, Control_c, 0, 64, 48
1, 273363, Control_c, 0, 64, 48
1, 273369, Note_on_c, 0, 53, 90
1, 273372, Note_on_c, 0, 80, 93
1, 273373, Note_on_c, 0, 68, 91
1, 273378, Note_on_c, 0, 41, 82
1, 273403, Note_off_c, 0, 68, 66
1, 273405, Note_off_c, 0, 53, 67
1, 273406, Note_off_c, 0, 41, 69
1, 273427, Note_off_c, 0, 80, 63
1, 273541, Control_c, 0, 64, 49
1, 273556, Control_c, 0, 64, 51
1, 273568, Note_on_c, 0, 82, 92
1, 273569, Note_on_c, 0, 70, 88
1, 273571, Control_c, 0, 64, 52
1, 273572, Note_on_c, 0, 55, 87
1, 273578, Note_on_c, 0, 43, 84
1, 273586, Control_c, 0, 64, 53
1, 273598, Note_off_c, 0, 70, 65
1, 273600, Control_c, 0, 64, 53
1, 273607, Note_off_c, 0, 55, 66
1, 273610, Note_off_c, 0, 43, 65
1, 273618, Note_off_c, 0, 82, 63
1, 273630, Control_c, 0, 64, 53
1, 273645, Control_c, 0, 64, 52
1, 273659, Control_c, 0, 64, 52
1, 273674, Control_c, 0, 64, 51
1, 273689, Control_c, 0, 64, 50
1, 273749, Control_c, 0, 64, 50
1, 273764, Control_c, 0, 64, 49
1, 273767, Note_on_c, 0, 84, 101
1, 273769, Note_on_c, 0, 72, 100
1, 273780, Note_on_c, 0, 56, 93
1, 273786, Note_on_c, 0, 44, 86
1, 273809, Control_c, 0, 64, 49
1, 273818, Note_off_c, 0, 44, 66
1, 273818, Note_off_c, 0, 56, 64
1, 273823, Control_c, 0, 64, 48
1, 273853, Control_c, 0, 64, 48
1, 273897, Control_c, 0, 64, 48
1, 273912, Control_c, 0, 64, 49
1, 273922, Note_off_c, 0, 84, 48
1, 273927, Control_c, 0, 64, 51
1, 273938, Note_off_c, 0, 72, 61
1, 273942, Control_c, 0, 64, 52
1, 273956, Control_c, 0, 64, 52
1, 273971, Control_c, 0, 64, 53
1, 273974, Note_on_c, 0, 58, 98
1, 273979, Note_on_c, 0, 46, 88
1, 273986, Control_c, 0, 64, 53
1, 274001, Control_c, 0, 64, 53
1, 274012, Note_off_c, 0, 58, 68
1, 274015, Note_off_c, 0, 46, 62
1, 274031, Control_c, 0, 64, 52
1, 274046, Control_c, 0, 64, 51
1, 274061, Control_c, 0, 64, 51
1, 274186, Note_on_c, 0, 60, 103
1, 274186, Control_c, 0, 64, 52
1, 274187, Note_on_c, 0, 81, 95
1, 274189, Note_on_c, 0, 69, 92
1, 274193, Note_on_c, 0, 48, 92
1, 274201, Control_c, 0, 64, 52
1, 274222, Note_off_c, 0, 69, 68
1, 274237, Note_off_c, 0, 81, 65
1, 274260, Control_c, 0, 64, 52
1, 274290, Control_c, 0, 64, 51
1, 274371, Note_off_c, 0, 60, 54
1, 274394, Control_c, 0, 64, 52
1, 274396, Note_on_c, 0, 71, 95
1, 274397, Note_on_c, 0, 83, 94
1, 274403, Note_off_c, 0, 48, 62
1, 274430, Note_off_c, 0, 71, 61
1, 274438, Control_c, 0, 64, 51
1, 274444, Note_off_c, 0, 83, 63
1, 274511, Control_c, 0, 64, 52
1, 274588, Note_on_c, 0, 57, 92
1, 274592, Note_on_c, 0, 84, 98
1, 274597, Note_on_c, 0, 72, 90
1, 274598, Note_on_c, 0, 45, 81
1, 274627, Note_off_c, 0, 57, 67
1, 274627, Note_off_c, 0, 72, 66
1, 274628, Note_off_c, 0, 45, 68
1, 274636, Note_off_c, 0, 84, 66
1, 274690, Control_c, 0, 64, 51
1, 274749, Control_c, 0, 64, 52
1, 274785, Note_on_c, 0, 86, 97
1, 274788, Note_on_c, 0, 59, 88
1, 274789, Note_on_c, 0, 74, 92
1, 274793, Note_on_c, 0, 47, 88
1, 274827, Note_off_c, 0, 59, 64
1, 274828, Note_off_c, 0, 74, 67
1, 274830, Note_off_c, 0, 47, 68
1, 274842, Note_off_c, 0, 86, 65
1, 274904, Control_c, 0, 64, 52
1, 274919, Control_c, 0, 64, 53
1, 274990, Note_on_c, 0, 75, 97
1, 274991, Note_on_c, 0, 87, 97
1, 274996, Note_on_c, 0, 60, 96
1, 275003, Note_on_c, 0, 48, 88
1, 275024, Control_c, 0, 64, 52
1, 275028, Note_off_c, 0, 48, 69
1, 275033, Note_off_c, 0, 60, 65
1, 275038, Control_c, 0, 64, 52
1, 275053, Control_c, 0, 64, 51
1, 275068, Control_c, 0, 64, 51
1, 275127, Control_c, 0, 64, 51
1, 275134, Note_off_c, 0, 87, 61
1, 275140, Note_off_c, 0, 75, 61
1, 275142, Control_c, 0, 64, 52
1, 275196, Note_on_c, 0, 62, 100
1, 275204, Note_on_c, 0, 50, 90
1, 275216, Control_c, 0, 64, 52
1, 275231, Control_c, 0, 64, 52
1, 275232, Note_off_c, 0, 50, 64
1, 275232, Note_off_c, 0, 62, 66
1, 275246, Control_c, 0, 64, 51
1, 275260, Control_c, 0, 64, 51
1, 275319, Control_c, 0, 64, 52
1, 275334, Control_c, 0, 64, 52
1, 275350, Control_c, 0, 64, 53
1, 275380, Control_c, 0, 64, 53
1, 275390, Note_on_c, 0, 63, 105
1, 275394, Control_c, 0, 64, 54
1, 275395, Note_on_c, 0, 71, 88
1, 275396, Note_on_c, 0, 51, 90
1, 275402, Note_on_c, 0, 83, 71
1, 275409, Control_c, 0, 64, 54
1, 275419, Note_on_c, 0, 84, 49
1, 275420, Note_off_c, 0, 84, 127
1, 275435, Note_off_c, 0, 71, 59
1, 275450, Note_off_c, 0, 83, 64
1, 275454, Control_c, 0, 64, 55
1, 275561, Note_off_c, 0, 63, 56
1, 275595, Control_c, 0, 64, 54
1, 275614, Note_off_c, 0, 51, 59
1, 275620, Note_on_c, 0, 72, 92
1, 275624, Note_on_c, 0, 84, 92
1, 275639, Control_c, 0, 64, 54
1, 275659, Note_off_c, 0, 72, 64
1, 275675, Note_off_c, 0, 84, 65
1, 275807, Note_on_c, 0, 59, 90
1, 275808, Note_on_c, 0, 86, 94
1, 275813, Note_on_c, 0, 74, 88
1, 275817, Note_on_c, 0, 47, 78
1, 275843, Note_off_c, 0, 59, 63
1, 275846, Note_off_c, 0, 47, 67
1, 275849, Note_off_c, 0, 74, 65
1, 275862, Note_off_c, 0, 86, 64
1, 275935, Control_c, 0, 64, 54
1, 275965, Control_c, 0, 64, 55
1, 275980, Control_c, 0, 64, 55
1, 276001, Note_on_c, 0, 75, 90
1, 276001, Note_on_c, 0, 87, 92
1, 276010, Control_c, 0, 64, 56
1, 276011, Note_on_c, 0, 60, 87
1, 276018, Note_on_c, 0, 48, 80
1, 276040, Note_on_c, 0, 88, 39
1, 276043, Note_off_c, 0, 75, 66
1, 276044, Note_off_c, 0, 48, 70
1, 276046, Note_off_c, 0, 60, 61
1, 276064, Note_off_c, 0, 87, 60
1, 276070, Note_off_c, 0, 88, 34
1, 276099, Control_c, 0, 64, 55
1, 276189, Control_c, 0, 64, 55
1, 276201, Note_on_c, 0, 89, 97
1, 276203, Note_on_c, 0, 77, 99
1, 276216, Note_on_c, 0, 62, 82
1, 276218, Control_c, 0, 64, 54
1, 276219, Note_on_c, 0, 50, 80
1, 276239, Note_off_c, 0, 62, 69
1, 276239, Note_off_c, 0, 77, 63
1, 276246, Note_off_c, 0, 50, 68
1, 276259, Note_off_c, 0, 89, 66
1, 276406, Note_on_c, 0, 63, 96
1, 276407, Note_on_c, 0, 91, 103
1, 276413, Note_on_c, 0, 51, 79
1, 276413, Note_on_c, 0, 79, 91
1, 276445, Note_off_c, 0, 79, 65
1, 276448, Note_off_c, 0, 63, 66
1, 276451, Note_off_c, 0, 51, 63
1, 276469, Note_off_c, 0, 91, 61
1, 276618, Note_on_c, 0, 65, 100
1, 276618, Note_on_c, 0, 80, 98
1, 276618, Note_on_c, 0, 92, 104
1, 276621, Note_on_c, 0, 53, 93
1, 276625, Control_c, 0, 64, 54
1, 276640, Control_c, 0, 64, 53
1, 276654, Note_off_c, 0, 65, 67
1, 276655, Control_c, 0, 64, 52
1, 276657, Note_off_c, 0, 53, 69
1, 276669, Control_c, 0, 64, 50
1, 276684, Control_c, 0, 64, 49
1, 276699, Control_c, 0, 64, 48
1, 276758, Control_c, 0, 64, 49
1, 276773, Control_c, 0, 64, 49
1, 276851, Note_on_c, 0, 67, 103
1, 276859, Note_on_c, 0, 55, 88
1, 276881, Note_off_c, 0, 55, 69
1, 276883, Note_off_c, 0, 67, 63
1, 276907, Control_c, 0, 64, 49
1, 276967, Control_c, 0, 64, 49
1, 276982, Control_c, 0, 64, 50
1, 276997, Control_c, 0, 64, 51
1, 277012, Control_c, 0, 64, 52
1, 277027, Control_c, 0, 64, 53
1, 277041, Control_c, 0, 64, 53
1, 277116, Note_on_c, 0, 68, 108
1, 277125, Note_on_c, 0, 56, 85
1, 277172, Note_off_c, 0, 92, 61
1, 277173, Note_off_c, 0, 80, 59
1, 277182, Control_c, 0, 64, 54
1, 277226, Control_c, 0, 64, 54
1, 277330, Control_c, 0, 64, 55
1, 277353, Note_on_c, 0, 91, 94
1, 277359, Note_on_c, 0, 79, 93
1, 277374, Control_c, 0, 64, 55
1, 277393, Note_off_c, 0, 79, 64
1, 277404, Note_off_c, 0, 91, 61
1, 277419, Control_c, 0, 64, 56
1, 277463, Control_c, 0, 64, 56
1, 277537, Control_c, 0, 64, 56
1, 277564, Note_on_c, 0, 89, 93
1, 277570, Note_on_c, 0, 77, 87
1, 277605, Note_off_c, 0, 68, 59
1, 277607, Note_off_c, 0, 77, 63
1, 277611, Control_c, 0, 64, 55
1, 277618, Note_off_c, 0, 89, 67
1, 277620, Note_off_c, 0, 56, 58
1, 277641, Control_c, 0, 64, 56
1, 277671, Control_c, 0, 64, 56
1, 277700, Control_c, 0, 64, 57
1, 277730, Control_c, 0, 64, 57
1, 277774, Note_on_c, 0, 87, 87
1, 277775, Note_on_c, 0, 75, 88
1, 277787, Note_on_c, 0, 67, 81
1, 277796, Note_on_c, 0, 55, 67
1, 277824, Note_off_c, 0, 67, 63
1, 277828, Note_off_c, 0, 75, 64
1, 277834, Note_off_c, 0, 55, 65
1, 277847, Note_off_c, 0, 87, 61
1, 277985, Note_on_c, 0, 86, 89
1, 277991, Note_on_c, 0, 74, 82
1, 277997, Note_on_c, 0, 65, 83
1, 278001, Note_on_c, 0, 53, 76
1, 278023, Note_off_c, 0, 65, 66
1, 278028, Note_off_c, 0, 74, 66
1, 278034, Note_off_c, 0, 53, 66
1, 278043, Note_off_c, 0, 86, 62
1, 278094, Control_c, 0, 64, 58
1, 278191, Note_on_c, 0, 63, 82
1, 278192, Note_on_c, 0, 84, 89
1, 278194, Note_on_c, 0, 72, 85
1, 278196, Note_on_c, 0, 51, 76
1, 278212, Control_c, 0, 64, 58
1, 278228, Note_off_c, 0, 72, 66
1, 278239, Note_off_c, 0, 63, 63
1, 278243, Note_off_c, 0, 84, 64
1, 278246, Note_off_c, 0, 51, 57
1, 278389, Note_on_c, 0, 83, 87
1, 278393, Note_on_c, 0, 71, 80
1, 278398, Note_on_c, 0, 62, 82
1, 278407, Note_on_c, 0, 50, 73
1, 278431, Note_off_c, 0, 62, 62
1, 278438, Note_off_c, 0, 71, 61
1, 278443, Note_off_c, 0, 50, 62
1, 278458, Note_off_c, 0, 83, 59
1, 278591, Control_c, 0, 64, 58
1, 278620, Note_on_c, 0, 84, 92
1, 278624, Note_on_c, 0, 72, 86
1, 278629, Note_on_c, 0, 60, 82
1, 278634, Note_on_c, 0, 48, 81
1, 278636, Control_c, 0, 64, 57
1, 278651, Control_c, 0, 64, 57
1, 278660, Note_off_c, 0, 60, 63
1, 278666, Control_c, 0, 64, 56
1, 278675, Note_off_c, 0, 48, 65
1, 278851, Note_on_c, 0, 59, 85
1, 278857, Note_on_c, 0, 47, 82
1, 278899, Note_off_c, 0, 59, 61
1, 278902, Control_c, 0, 64, 57
1, 278911, Note_off_c, 0, 47, 57
1, 278946, Control_c, 0, 64, 57
1, 278992, Control_c, 0, 64, 58
1, 279144, Note_off_c, 0, 84, 54
1, 279150, Note_off_c, 0, 72, 54
1, 279152, Note_on_c, 0, 60, 72
1, 279158, Note_on_c, 0, 48, 68
1, 279185, Control_c, 0, 64, 57
1, 279214, Control_c, 0, 64, 56
1, 279244, Control_c, 0, 64, 56
1, 279273, Control_c, 0, 64, 55
1, 279303, Control_c, 0, 64, 55
1, 279430, Control_c, 0, 64, 55
1, 279444, Control_c, 0, 64, 56
1, 279454, Note_off_c, 0, 60, 50
1, 279489, Control_c, 0, 64, 56
1, 279530, Note_off_c, 0, 48, 64
1, 279696, Control_c, 0, 64, 57
1, 279726, Control_c, 0, 64, 57
1, 279756, Control_c, 0, 64, 58
1, 279785, Control_c, 0, 64, 58
1, 279800, Control_c, 0, 64, 59
1, 279815, Control_c, 0, 64, 60
1, 279830, Control_c, 0, 64, 61
1, 279844, Control_c, 0, 64, 61
1, 279859, Control_c, 0, 64, 62
1, 279874, Control_c, 0, 64, 63
1, 279889, Control_c, 0, 64, 63
1, 279903, Control_c, 0, 64, 64
1, 279918, Control_c, 0, 64, 65
1, 279933, Control_c, 0, 64, 65
1, 279948, Control_c, 0, 64, 66
1, 279963, Control_c, 0, 64, 66
1, 279978, Control_c, 0, 64, 67
1, 279993, Control_c, 0, 64, 68
1, 280008, Control_c, 0, 64, 69
1, 280023, Control_c, 0, 64, 70
1, 280052, Control_c, 0, 64, 71
1, 280089, Control_c, 0, 64, 71
1, 280118, Control_c, 0, 64, 72
1, 280312, Control_c, 0, 64, 72
1, 280341, Control_c, 0, 64, 73
1, 280356, Control_c, 0, 64, 74
1, 280371, Control_c, 0, 64, 75
1, 280386, Control_c, 0, 64, 76
1, 280401, Control_c, 0, 64, 77
1, 280416, Control_c, 0, 64, 78
1, 280431, Control_c, 0, 64, 80
1, 280445, Control_c, 0, 64, 82
1, 280453, Note_on_c, 0, 63, 40
1, 280460, Control_c, 0, 64, 84
1, 280475, Control_c, 0, 64, 86
1, 280476, Note_on_c, 0, 55, 35
1, 280490, Control_c, 0, 64, 88
1, 280500, Note_on_c, 0, 36, 29
1, 280505, Control_c, 0, 64, 90
1, 280519, Control_c, 0, 64, 91
1, 280534, Control_c, 0, 64, 93
1, 280549, Control_c, 0, 64, 94
1, 280564, Control_c, 0, 64, 95
1, 280579, Control_c, 0, 64, 96
1, 280593, Control_c, 0, 64, 98
1, 280608, Control_c, 0, 64, 99
1, 280623, Control_c, 0, 64, 100
1, 280637, Control_c, 0, 64, 101
1, 280652, Control_c, 0, 64, 101
1, 280667, Control_c, 0, 64, 102
1, 280682, Control_c, 0, 64, 102
1, 280697, Control_c, 0, 64, 103
1, 280709, Note_off_c, 0, 36, 41
1, 280712, Control_c, 0, 64, 103
1, 280726, Control_c, 0, 64, 104
1, 280744, Note_on_c, 0, 67, 35
1, 280747, Note_off_c, 0, 63, 39
1, 280771, Note_off_c, 0, 55, 42
1, 280771, Control_c, 0, 64, 104
1, 280823, Control_c, 0, 64, 105
1, 280918, Note_on_c, 0, 63, 37
1, 280933, Note_on_c, 0, 55, 29
1, 280936, Note_off_c, 0, 67, 39
1, 280966, Note_on_c, 0, 36, 24
1, 281093, Note_on_c, 0, 67, 31
1, 281099, Note_off_c, 0, 55, 42
1, 281102, Note_off_c, 0, 63, 41
1, 281105, Note_off_c, 0, 36, 35
1, 281242, Note_on_c, 0, 55, 23
1, 281242, Note_on_c, 0, 63, 37
1, 281262, Note_off_c, 0, 67, 39
1, 281277, Note_on_c, 0, 36, 20
1, 281380, Note_on_c, 0, 67, 48
1, 281382, Note_off_c, 0, 36, 36
1, 281397, Note_off_c, 0, 63, 44
1, 281407, Note_off_c, 0, 55, 43
1, 281523, Note_on_c, 0, 63, 45
1, 281536, Note_on_c, 0, 55, 37
1, 281541, Note_off_c, 0, 67, 35
1, 281547, Note_on_c, 0, 36, 33
1, 281647, Note_off_c, 0, 63, 56
1, 281655, Note_off_c, 0, 36, 38
1, 281661, Note_on_c, 0, 67, 50
1, 281688, Note_off_c, 0, 55, 37
1, 281793, Note_off_c, 0, 67, 36
1, 281796, Note_on_c, 0, 63, 49
1, 281806, Note_on_c, 0, 36, 37
1, 281819, Note_on_c, 0, 55, 35
1, 281907, Note_off_c, 0, 36, 37
1, 281914, Note_off_c, 0, 63, 53
1, 281928, Note_on_c, 0, 67, 33
1, 281941, Note_off_c, 0, 55, 42
1, 282035, Note_off_c, 0, 67, 27
1, 282051, Note_on_c, 0, 63, 51
1, 282064, Note_on_c, 0, 36, 39
1, 282118, Note_off_c, 0, 36, 58
1, 282125, Poly_aftertouch_c, 0, 55, 127
1, 282170, Note_off_c, 0, 63, 58
1, 282203, Note_on_c, 0, 67, 34
1, 282243, Poly_aftertouch_c, 0, 55, 0
1, 282351, Control_c, 0, 64, 104
1, 282362, Note_off_c, 0, 67, 22
1, 282366, Control_c, 0, 64, 101
1, 282380, Control_c, 0, 64, 96
1, 282395, Control_c, 0, 64, 90
1, 282396, Note_on_c, 0, 62, 48
1, 282398, Note_on_c, 0, 55, 27
1, 282410, Control_c, 0, 64, 83
1, 282425, Control_c, 0, 64, 76
1, 282428, Note_on_c, 0, 35, 37
1, 282440, Control_c, 0, 64, 69
1, 282455, Control_c, 0, 64, 60
1, 282470, Control_c, 0, 64, 51
1, 282485, Control_c, 0, 64, 59
1, 282499, Control_c, 0, 64, 65
1, 282514, Control_c, 0, 64, 68
1, 282529, Control_c, 0, 64, 72
1, 282544, Control_c, 0, 64, 76
1, 282559, Control_c, 0, 64, 79
1, 282562, Note_off_c, 0, 62, 53
1, 282574, Note_on_c, 0, 67, 47
1, 282574, Control_c, 0, 64, 83
1, 282589, Note_off_c, 0, 35, 41
1, 282589, Control_c, 0, 64, 87
1, 282598, Note_off_c, 0, 55, 42
1, 282604, Control_c, 0, 64, 91
1, 282619, Control_c, 0, 64, 94
1, 282634, Control_c, 0, 64, 98
1, 282649, Control_c, 0, 64, 101
1, 282663, Control_c, 0, 64, 104
1, 282678, Control_c, 0, 64, 107
1, 282693, Control_c, 0, 64, 109
1, 282697, Note_off_c, 0, 67, 32
1, 282708, Control_c, 0, 64, 112
1, 282710, Note_on_c, 0, 62, 49
1, 282714, Note_on_c, 0, 55, 40
1, 282721, Control_c, 0, 64, 113
1, 282736, Control_c, 0, 64, 115
1, 282742, Note_on_c, 0, 35, 32
1, 282751, Control_c, 0, 64, 117
1, 282766, Control_c, 0, 64, 118
1, 282781, Control_c, 0, 64, 118
1, 282795, Control_c, 0, 64, 119
1, 282810, Control_c, 0, 64, 119
1, 282825, Control_c, 0, 64, 120
1, 282839, Control_c, 0, 64, 120
1, 282841, Note_off_c, 0, 62, 55
1, 282845, Note_on_c, 0, 67, 46
1, 282854, Control_c, 0, 64, 121
1, 282868, Note_off_c, 0, 35, 35
1, 282869, Control_c, 0, 64, 122
1, 282872, Note_off_c, 0, 55, 41
1, 282884, Control_c, 0, 64, 122
1, 282914, Control_c, 0, 64, 123
1, 282929, Control_c, 0, 64, 123
1, 282942, Note_off_c, 0, 67, 37
1, 282944, Control_c, 0, 64, 124
1, 282974, Note_on_c, 0, 62, 56
1, 282983, Note_on_c, 0, 55, 46
1, 283004, Note_on_c, 0, 35, 39
1, 283104, Note_off_c, 0, 62, 54
1, 283106, Note_off_c, 0, 55, 56
1, 283110, Note_on_c, 0, 67, 48
1, 283113, Note_off_c, 0, 35, 36
1, 283207, Note_off_c, 0, 67, 29
1, 283232, Note_on_c, 0, 62, 58
1, 283251, Note_on_c, 0, 35, 45
1, 283251, Note_on_c, 0, 55, 38
1, 283352, Note_off_c, 0, 62, 56
1, 283355, Note_on_c, 0, 67, 54
1, 283380, Note_off_c, 0, 35, 39
1, 283384, Note_off_c, 0, 55, 41
1, 283470, Note_off_c, 0, 67, 29
1, 283488, Note_on_c, 0, 62, 56
1, 283492, Note_on_c, 0, 55, 48
1, 283510, Note_on_c, 0, 35, 45
1, 283615, Note_off_c, 0, 62, 56
1, 283615, Note_on_c, 0, 67, 58
1, 283620, Note_off_c, 0, 35, 36
1, 283623, Note_off_c, 0, 55, 61
1, 283677, Note_off_c, 0, 67, 44
1, 283738, Note_on_c, 0, 62, 60
1, 283758, Note_on_c, 0, 35, 46
1, 283762, Note_on_c, 0, 55, 40
1, 283828, Note_off_c, 0, 35, 59
1, 283852, Note_off_c, 0, 62, 60
1, 283880, Note_on_c, 0, 67, 55
1, 283938, Note_off_c, 0, 55, 42
1, 284011, Control_c, 0, 64, 123
1, 284026, Control_c, 0, 64, 119
1, 284041, Control_c, 0, 64, 114
1, 284044, Note_off_c, 0, 67, 37
1, 284056, Control_c, 0, 64, 108
1, 284070, Control_c, 0, 64, 100
1, 284080, Note_on_c, 0, 64, 56
1, 284085, Control_c, 0, 64, 90
1, 284100, Control_c, 0, 64, 81
1, 284115, Control_c, 0, 64, 72
1, 284115, Note_on_c, 0, 61, 40
1, 284116, Note_on_c, 0, 55, 29
1, 284127, Note_on_c, 0, 34, 33
1, 284130, Control_c, 0, 64, 62
1, 284145, Control_c, 0, 64, 0
1, 284190, Control_c, 0, 64, 57
1, 284205, Control_c, 0, 64, 67
1, 284220, Control_c, 0, 64, 72
1, 284234, Control_c, 0, 64, 77
1, 284241, Note_off_c, 0, 64, 57
1, 284249, Note_on_c, 0, 67, 55
1, 284249, Control_c, 0, 64, 81
1, 284264, Control_c, 0, 64, 87
1, 284274, Note_off_c, 0, 61, 40
1, 284276, Note_off_c, 0, 34, 51
1, 284279, Control_c, 0, 64, 91
1, 284285, Note_off_c, 0, 55, 42
1, 284293, Control_c, 0, 64, 96
1, 284308, Control_c, 0, 64, 100
1, 284323, Control_c, 0, 64, 103
1, 284338, Control_c, 0, 64, 107
1, 284353, Control_c, 0, 64, 110
1, 284358, Note_off_c, 0, 67, 36
1, 284367, Control_c, 0, 64, 112
1, 284380, Note_on_c, 0, 64, 55
1, 284382, Control_c, 0, 64, 115
1, 284390, Note_on_c, 0, 61, 48
1, 284397, Control_c, 0, 64, 117
1, 284398, Note_on_c, 0, 55, 44
1, 284404, Note_on_c, 0, 34, 41
1, 284412, Control_c, 0, 64, 119
1, 284427, Control_c, 0, 64, 121
1, 284441, Control_c, 0, 64, 124
1, 284456, Control_c, 0, 64, 126
1, 284471, Control_c, 0, 64, 127
1, 284504, Note_off_c, 0, 61, 58
1, 284509, Note_off_c, 0, 64, 61
1, 284511, Note_on_c, 0, 67, 57
1, 284517, Note_off_c, 0, 55, 45
1, 284548, Note_off_c, 0, 34, 35
1, 284616, Note_off_c, 0, 67, 33
1, 284643, Note_on_c, 0, 64, 61
1, 284656, Note_on_c, 0, 61, 47
1, 284658, Note_on_c, 0, 55, 45
1, 284679, Note_on_c, 0, 34, 45
1, 284765, Note_off_c, 0, 61, 57
1, 284767, Note_on_c, 0, 67, 58
1, 284771, Note_off_c, 0, 64, 60
1, 284801, Note_off_c, 0, 55, 37
1, 284804, Note_off_c, 0, 34, 36
1, 284829, Note_off_c, 0, 67, 49
1, 284891, Note_on_c, 0, 64, 63
1, 284900, Note_on_c, 0, 55, 49
1, 284905, Note_on_c, 0, 61, 48
1, 284930, Note_on_c, 0, 34, 49
1, 285014, Note_on_c, 0, 67, 61
1, 285014, Note_off_c, 0, 64, 57
1, 285016, Note_off_c, 0, 34, 54
1, 285022, Note_off_c, 0, 61, 56
1, 285047, Note_off_c, 0, 55, 42
1, 285112, Note_off_c, 0, 67, 37
1, 285144, Note_on_c, 0, 64, 62
1, 285152, Note_on_c, 0, 55, 51
1, 285158, Note_on_c, 0, 61, 51
1, 285165, Note_on_c, 0, 34, 54
1, 285266, Note_off_c, 0, 34, 51
1, 285274, Note_on_c, 0, 67, 58
1, 285276, Note_off_c, 0, 61, 59
1, 285280, Note_off_c, 0, 64, 58
1, 285286, Note_off_c, 0, 55, 49
1, 285376, Note_off_c, 0, 67, 51
1, 285408, Note_on_c, 0, 64, 67
1, 285418, Note_on_c, 0, 61, 50
1, 285424, Note_on_c, 0, 34, 51
1, 285431, Note_on_c, 0, 55, 45
1, 285512, Note_off_c, 0, 64, 62
1, 285531, Note_off_c, 0, 61, 57
1, 285537, Note_on_c, 0, 67, 48
1, 285574, Note_off_c, 0, 34, 53
1, 285615, Note_off_c, 0, 55, 38
1, 285640, Control_c, 0, 64, 127
1, 285646, Note_off_c, 0, 67, 51
1, 285655, Control_c, 0, 64, 120
1, 285670, Control_c, 0, 64, 112
1, 285685, Control_c, 0, 64, 104
1, 285700, Control_c, 0, 64, 93
1, 285715, Control_c, 0, 64, 83
1, 285726, Note_on_c, 0, 64, 61
1, 285731, Control_c, 0, 64, 73
1, 285741, Note_on_c, 0, 55, 45
1, 285746, Control_c, 0, 64, 62
1, 285755, Note_on_c, 0, 60, 43
1, 285758, Note_on_c, 0, 33, 43
1, 285761, Control_c, 0, 64, 0
1, 285791, Control_c, 0, 64, 52
1, 285805, Control_c, 0, 64, 65
1, 285820, Control_c, 0, 64, 69
1, 285835, Control_c, 0, 64, 74
1, 285850, Control_c, 0, 64, 79
1, 285864, Control_c, 0, 64, 83
1, 285879, Control_c, 0, 64, 87
1, 285894, Control_c, 0, 64, 91
1, 285897, Note_on_c, 0, 67, 51
1, 285898, Note_off_c, 0, 64, 49
1, 285909, Control_c, 0, 64, 94
1, 285913, Note_off_c, 0, 60, 36
1, 285924, Control_c, 0, 64, 97
1, 285929, Note_off_c, 0, 33, 47
1, 285929, Note_off_c, 0, 55, 42
1, 285938, Control_c, 0, 64, 100
1, 285953, Control_c, 0, 64, 102
1, 285956, Note_off_c, 0, 67, 51
1, 285968, Control_c, 0, 64, 104
1, 285983, Control_c, 0, 64, 106
1, 285998, Control_c, 0, 64, 107
1, 286012, Control_c, 0, 64, 108
1, 286027, Control_c, 0, 64, 109
1, 286029, Note_on_c, 0, 64, 61
1, 286038, Note_on_c, 0, 60, 50
1, 286056, Note_on_c, 0, 33, 52
1, 286056, Note_on_c, 0, 55, 39
1, 286064, Control_c, 0, 64, 109
1, 286136, Note_off_c, 0, 64, 60
1, 286137, Note_off_c, 0, 60, 58
1, 286154, Note_on_c, 0, 67, 52
1, 286184, Note_off_c, 0, 33, 49
1, 286198, Note_off_c, 0, 55, 42
1, 286205, Note_off_c, 0, 67, 44
1, 286287, Note_on_c, 0, 65, 70
1, 286306, Note_on_c, 0, 55, 54
1, 286315, Note_on_c, 0, 60, 35
1, 286330, Note_on_c, 0, 33, 47
1, 286431, Note_on_c, 0, 67, 57
1, 286431, Note_off_c, 0, 65, 57
1, 286452, Note_off_c, 0, 60, 38
1, 286464, Note_off_c, 0, 55, 36
1, 286474, Note_off_c, 0, 33, 41
1, 286485, Note_off_c, 0, 67, 53
1, 286553, Note_on_c, 0, 65, 72
1, 286568, Note_on_c, 0, 60, 49
1, 286576, Note_on_c, 0, 55, 50
1, 286592, Note_on_c, 0, 33, 50
1, 286690, Note_on_c, 0, 67, 62
1, 286695, Note_off_c, 0, 55, 57
1, 286697, Note_off_c, 0, 33, 57
1, 286704, Note_off_c, 0, 65, 57
1, 286726, Note_off_c, 0, 60, 36
1, 286748, Note_off_c, 0, 67, 44
1, 286829, Note_on_c, 0, 65, 70
1, 286840, Note_on_c, 0, 55, 50
1, 286847, Note_on_c, 0, 33, 54
1, 286847, Note_on_c, 0, 60, 51
1, 286948, Note_on_c, 0, 67, 66
1, 286965, Note_off_c, 0, 33, 38
1, 286980, Note_off_c, 0, 65, 48
1, 286998, Note_off_c, 0, 55, 36
1, 287013, Note_off_c, 0, 60, 33
1, 287035, Control_c, 0, 64, 109
1, 287055, Note_off_c, 0, 67, 46
1, 287082, Note_on_c, 0, 65, 69
1, 287097, Note_on_c, 0, 60, 35
1, 287105, Note_on_c, 0, 33, 54
1, 287114, Note_on_c, 0, 55, 38
1, 287139, Control_c, 0, 64, 108
1, 287177, Note_off_c, 0, 33, 61
1, 287205, Note_off_c, 0, 65, 59
1, 287213, Note_on_c, 0, 67, 62
1, 287257, Control_c, 0, 64, 109
1, 287263, Note_off_c, 0, 60, 36
1, 287271, Note_off_c, 0, 55, 36
1, 287371, Note_off_c, 0, 67, 53
1, 287377, Control_c, 0, 64, 107
1, 287391, Control_c, 0, 64, 105
1, 287406, Control_c, 0, 64, 101
1, 287414, Note_on_c, 0, 66, 67
1, 287421, Control_c, 0, 64, 92
1, 287436, Control_c, 0, 64, 81
1, 287442, Note_on_c, 0, 60, 46
1, 287451, Note_on_c, 0, 55, 45
1, 287451, Control_c, 0, 64, 68
1, 287454, Note_on_c, 0, 32, 49
1, 287466, Control_c, 0, 64, 0
1, 287525, Control_c, 0, 64, 24
1, 287540, Control_c, 0, 64, 65
1, 287562, Control_c, 0, 64, 72
1, 287577, Control_c, 0, 64, 79
1, 287591, Control_c, 0, 64, 87
1, 287598, Note_on_c, 0, 67, 62
1, 287606, Control_c, 0, 64, 93
1, 287608, Note_off_c, 0, 66, 53
1, 287621, Control_c, 0, 64, 99
1, 287633, Note_off_c, 0, 60, 41
1, 287636, Control_c, 0, 64, 103
1, 287644, Note_off_c, 0, 55, 40
1, 287651, Control_c, 0, 64, 107
1, 287663, Note_off_c, 0, 32, 40
1, 287666, Control_c, 0, 64, 111
1, 287680, Control_c, 0, 64, 114
1, 287683, Note_off_c, 0, 67, 55
1, 287695, Control_c, 0, 64, 117
1, 287710, Control_c, 0, 64, 119
1, 287725, Control_c, 0, 64, 121
1, 287734, Note_on_c, 0, 66, 67
1, 287740, Control_c, 0, 64, 123
1, 287755, Control_c, 0, 64, 125
1, 287758, Note_on_c, 0, 55, 45
1, 287758, Note_on_c, 0, 60, 48
1, 287770, Control_c, 0, 64, 127
1, 287775, Note_on_c, 0, 32, 49
1, 287868, Note_on_c, 0, 67, 65
1, 287879, Note_off_c, 0, 60, 48
1, 287881, Note_off_c, 0, 55, 58
1, 287884, Note_off_c, 0, 66, 60
1, 287938, Note_off_c, 0, 32, 41
1, 287958, Note_off_c, 0, 67, 48
1, 287995, Note_on_c, 0, 66, 73
1, 288015, Note_on_c, 0, 55, 50
1, 288023, Note_on_c, 0, 60, 51
1, 288044, Note_on_c, 0, 32, 55
1, 288116, Note_on_c, 0, 67, 65
1, 288117, Note_off_c, 0, 60, 54
1, 288140, Note_off_c, 0, 66, 59
1, 288142, Note_off_c, 0, 55, 49
1, 288151, Note_off_c, 0, 32, 52
1, 288221, Note_off_c, 0, 67, 49
1, 288248, Note_on_c, 0, 66, 75
1, 288262, Note_on_c, 0, 55, 55
1, 288269, Note_on_c, 0, 60, 49
1, 288292, Note_on_c, 0, 32, 55
1, 288385, Note_on_c, 0, 67, 63
1, 288403, Note_off_c, 0, 55, 55
1, 288418, Note_off_c, 0, 66, 59
1, 288429, Note_off_c, 0, 60, 34
1, 288459, Note_off_c, 0, 32, 35
1, 288522, Note_on_c, 0, 66, 73
1, 288529, Note_off_c, 0, 67, 37
1, 288547, Note_on_c, 0, 55, 38
1, 288548, Note_on_c, 0, 60, 50
1, 288553, Note_on_c, 0, 32, 55
1, 288644, Note_on_c, 0, 67, 68
1, 288673, Note_off_c, 0, 66, 58
1, 288674, Note_off_c, 0, 32, 55
1, 288678, Note_off_c, 0, 60, 46
1, 288692, Note_off_c, 0, 55, 46
1, 288767, Note_off_c, 0, 67, 56
1, 288785, Note_on_c, 0, 66, 74
1, 288805, Note_on_c, 0, 55, 47
1, 288809, Note_on_c, 0, 60, 57
1, 288810, Note_on_c, 0, 32, 59
1, 288882, Note_off_c, 0, 60, 59
1, 288921, Note_off_c, 0, 66, 64
1, 288933, Note_on_c, 0, 67, 46
1, 288991, Note_off_c, 0, 55, 43
1, 289002, Note_off_c, 0, 67, 48
1, 289022, Control_c, 0, 64, 126
1, 289037, Control_c, 0, 64, 118
1, 289060, Control_c, 0, 64, 108
1, 289062, Note_off_c, 0, 32, 38
1, 289075, Control_c, 0, 64, 97
1, 289081, Note_on_c, 0, 62, 67
1, 289089, Control_c, 0, 64, 85
1, 289099, Note_on_c, 0, 59, 50
1, 289103, Note_on_c, 0, 55, 51
1, 289104, Control_c, 0, 64, 72
1, 289119, Control_c, 0, 64, 56
1, 289123, Note_on_c, 0, 31, 50
1, 289134, Control_c, 0, 64, 0
1, 289163, Control_c, 0, 64, 52
1, 289178, Control_c, 0, 64, 65
1, 289193, Control_c, 0, 64, 71
1, 289208, Control_c, 0, 64, 77
1, 289223, Control_c, 0, 64, 82
1, 289231, Note_on_c, 0, 67, 69
1, 289237, Control_c, 0, 64, 87
1, 289252, Control_c, 0, 64, 92
1, 289257, Note_off_c, 0, 62, 55
1, 289267, Control_c, 0, 64, 95
1, 289281, Control_c, 0, 64, 98
1, 289295, Note_off_c, 0, 59, 39
1, 289296, Control_c, 0, 64, 101
1, 289300, Note_off_c, 0, 55, 43
1, 289302, Note_off_c, 0, 31, 42
1, 289311, Control_c, 0, 64, 104
1, 289326, Control_c, 0, 64, 107
1, 289341, Control_c, 0, 64, 109
1, 289356, Control_c, 0, 64, 111
1, 289360, Note_off_c, 0, 67, 53
1, 289371, Control_c, 0, 64, 112
1, 289383, Note_on_c, 0, 62, 66
1, 289386, Control_c, 0, 64, 112
1, 289398, Note_on_c, 0, 59, 51
1, 289400, Note_on_c, 0, 55, 55
1, 289400, Control_c, 0, 64, 113
1, 289412, Note_on_c, 0, 31, 52
1, 289415, Control_c, 0, 64, 113
1, 289489, Control_c, 0, 64, 114
1, 289534, Control_c, 0, 64, 114
1, 289544, Note_on_c, 0, 67, 72
1, 289563, Control_c, 0, 64, 115
1, 289567, Note_off_c, 0, 62, 55
1, 289578, Control_c, 0, 64, 115
1, 289594, Note_off_c, 0, 59, 54
1, 289637, Control_c, 0, 64, 116
1, 289639, Note_off_c, 0, 55, 42
1, 289742, Control_c, 0, 64, 115
1, 289746, Note_off_c, 0, 67, 56
1, 289757, Control_c, 0, 64, 113
1, 289771, Control_c, 0, 64, 111
1, 289786, Control_c, 0, 64, 108
1, 289809, Control_c, 0, 64, 104
1, 289821, Note_off_c, 0, 31, 39
1, 289824, Control_c, 0, 64, 96
1, 289824, Note_on_c, 0, 62, 50
1, 289830, Note_on_c, 0, 55, 45
1, 289837, Note_on_c, 0, 59, 50
1, 289838, Control_c, 0, 64, 88
1, 289853, Control_c, 0, 64, 77
1, 289868, Control_c, 0, 64, 66
1, 289876, Note_on_c, 0, 29, 35
1, 289883, Control_c, 0, 64, 0
1, 289957, Control_c, 0, 64, 46
1, 289972, Control_c, 0, 64, 66
1, 289986, Control_c, 0, 64, 72
1, 290001, Control_c, 0, 64, 78
1, 290016, Control_c, 0, 64, 84
1, 290030, Control_c, 0, 64, 88
1, 290035, Note_off_c, 0, 62, 52
1, 290045, Control_c, 0, 64, 93
1, 290050, Note_on_c, 0, 68, 55
1, 290060, Control_c, 0, 64, 98
1, 290075, Control_c, 0, 64, 104
1, 290088, Note_off_c, 0, 29, 42
1, 290090, Control_c, 0, 64, 109
1, 290091, Note_off_c, 0, 59, 37
1, 290098, Note_off_c, 0, 55, 37
1, 290104, Control_c, 0, 64, 114
1, 290119, Control_c, 0, 64, 117
1, 290134, Control_c, 0, 64, 121
1, 290149, Control_c, 0, 64, 124
1, 290164, Control_c, 0, 64, 127
1, 290184, Note_off_c, 0, 68, 52
1, 290210, Note_on_c, 0, 55, 45
1, 290220, Note_on_c, 0, 59, 48
1, 290226, Note_on_c, 0, 62, 42
1, 290233, Note_on_c, 0, 29, 39
1, 290332, Note_on_c, 0, 68, 57
1, 290357, Note_off_c, 0, 59, 51
1, 290369, Note_off_c, 0, 62, 35
1, 290375, Note_off_c, 0, 29, 35
1, 290378, Note_off_c, 0, 55, 40
1, 290485, Note_off_c, 0, 68, 53
1, 290490, Note_on_c, 0, 55, 43
1, 290493, Note_on_c, 0, 62, 50
1, 290505, Note_on_c, 0, 59, 48
1, 290506, Note_on_c, 0, 29, 44
1, 290625, Note_on_c, 0, 68, 56
1, 290629, Note_off_c, 0, 62, 51
1, 290649, Note_off_c, 0, 59, 54
1, 290661, Note_off_c, 0, 29, 40
1, 290673, Note_off_c, 0, 55, 41
1, 290788, Note_on_c, 0, 55, 41
1, 290790, Note_on_c, 0, 62, 43
1, 290792, Note_off_c, 0, 68, 56
1, 290793, Note_on_c, 0, 59, 45
1, 290798, Note_on_c, 0, 29, 43
1, 290877, Note_off_c, 0, 29, 51
1, 290909, Note_off_c, 0, 62, 51
1, 290915, Note_on_c, 0, 68, 60
1, 290938, Note_off_c, 0, 55, 42
1, 290945, Note_off_c, 0, 59, 40
1, 291061, Note_on_c, 0, 59, 39
1, 291066, Note_on_c, 0, 55, 34
1, 291067, Note_on_c, 0, 62, 47
1, 291070, Note_off_c, 0, 68, 53
1, 291073, Note_on_c, 0, 29, 42
1, 291138, Note_off_c, 0, 29, 49
1, 291165, Control_c, 0, 64, 127
1, 291194, Control_c, 0, 64, 126
1, 291195, Note_on_c, 0, 68, 63
1, 291203, Note_off_c, 0, 62, 52
1, 291224, Control_c, 0, 64, 126
1, 291237, Note_off_c, 0, 59, 40
1, 291237, Note_off_c, 0, 55, 41
1, 291253, Control_c, 0, 64, 125
1, 291283, Control_c, 0, 64, 125
1, 291320, Control_c, 0, 64, 124
1, 291336, Control_c, 0, 64, 124
1, 291350, Note_on_c, 0, 29, 43
1, 291361, Note_off_c, 0, 68, 61
1, 291365, Note_on_c, 0, 59, 41
1, 291371, Note_on_c, 0, 55, 32
1, 291376, Note_on_c, 0, 62, 41
1, 291473, Note_off_c, 0, 29, 37
1, 291484, Note_on_c, 0, 68, 62
1, 291487, Note_off_c, 0, 62, 54
1, 291538, Note_off_c, 0, 55, 42
1, 291543, Note_off_c, 0, 59, 39
1, 291558, Control_c, 0, 64, 121
1, 291573, Control_c, 0, 64, 113
1, 291588, Control_c, 0, 64, 103
1, 291597, Note_off_c, 0, 68, 63
1, 291602, Control_c, 0, 64, 94
1, 291617, Control_c, 0, 64, 85
1, 291632, Control_c, 0, 64, 77
1, 291647, Control_c, 0, 64, 71
1, 291649, Note_on_c, 0, 32, 50
1, 291651, Note_on_c, 0, 55, 47
1, 291655, Note_on_c, 0, 62, 45
1, 291662, Control_c, 0, 64, 69
1, 291679, Note_on_c, 0, 59, 25
1, 291691, Control_c, 0, 64, 70
1, 291707, Control_c, 0, 64, 73
1, 291722, Control_c, 0, 64, 77
1, 291737, Control_c, 0, 64, 80
1, 291751, Control_c, 0, 64, 82
1, 291752, Note_off_c, 0, 32, 48
1, 291766, Control_c, 0, 64, 83
1, 291781, Control_c, 0, 64, 85
1, 291794, Note_on_c, 0, 65, 64
1, 291796, Note_off_c, 0, 62, 52
1, 291796, Control_c, 0, 64, 86
1, 291810, Control_c, 0, 64, 87
1, 291821, Note_off_c, 0, 55, 45
1, 291825, Control_c, 0, 64, 88
1, 291833, Note_off_c, 0, 59, 38
1, 291840, Control_c, 0, 64, 89
1, 291855, Control_c, 0, 64, 89
1, 291870, Control_c, 0, 64, 90
1, 291919, Note_off_c, 0, 65, 51
1, 291933, Note_on_c, 0, 32, 43
1, 291939, Note_on_c, 0, 55, 38
1, 291945, Note_on_c, 0, 62, 43
1, 291964, Note_on_c, 0, 59, 34
1, 292018, Control_c, 0, 64, 89
1, 292055, Control_c, 0, 64, 89
1, 292080, Note_on_c, 0, 65, 51
1, 292084, Control_c, 0, 64, 88
1, 292099, Control_c, 0, 64, 87
1, 292100, Note_off_c, 0, 62, 37
1, 292114, Control_c, 0, 64, 85
1, 292130, Control_c, 0, 64, 83
1, 292136, Note_off_c, 0, 55, 43
1, 292137, Note_off_c, 0, 32, 30
1, 292140, Note_off_c, 0, 59, 37
1, 292145, Control_c, 0, 64, 81
1, 292160, Control_c, 0, 64, 78
1, 292174, Control_c, 0, 64, 73
1, 292189, Control_c, 0, 64, 65
1, 292204, Control_c, 0, 64, 0
1, 292205, Note_off_c, 0, 65, 56
1, 292247, Note_on_c, 0, 31, 35
1, 292259, Note_on_c, 0, 55, 33
1, 292268, Note_on_c, 0, 62, 36
1, 292277, Note_on_c, 0, 59, 24
1, 292293, Control_c, 0, 64, 52
1, 292307, Control_c, 0, 64, 64
1, 292322, Control_c, 0, 64, 67
1, 292337, Control_c, 0, 64, 68
1, 292352, Control_c, 0, 64, 70
1, 292367, Control_c, 0, 64, 72
1, 292381, Control_c, 0, 64, 74
1, 292387, Note_off_c, 0, 62, 49
1, 292396, Control_c, 0, 64, 76
1, 292405, Note_off_c, 0, 31, 41
1, 292409, Note_on_c, 0, 67, 51
1, 292411, Control_c, 0, 64, 77
1, 292421, Note_off_c, 0, 59, 40
1, 292441, Control_c, 0, 64, 78
1, 292444, Note_off_c, 0, 55, 42
1, 292502, Note_off_c, 0, 67, 33
1, 292558, Note_on_c, 0, 55, 41
1, 292564, Note_on_c, 0, 31, 33
1, 292569, Note_on_c, 0, 62, 39
1, 292627, Poly_aftertouch_c, 0, 59, 127
1, 292672, Note_off_c, 0, 62, 58
1, 292694, Note_off_c, 0, 31, 35
1, 292711, Poly_aftertouch_c, 0, 59, 0
1, 292712, Note_on_c, 0, 67, 45
1, 292737, Control_c, 0, 64, 77
1, 292742, Note_off_c, 0, 55, 43
1, 292767, Control_c, 0, 64, 77
1, 292772, Note_off_c, 0, 67, 0
1, 292781, Control_c, 0, 64, 76
1, 292804, Control_c, 0, 64, 74
1, 292817, Poly_aftertouch_c, 0, 67, 127
1, 292819, Control_c, 0, 64, 72
1, 292833, Control_c, 0, 64, 70
1, 292848, Control_c, 0, 64, 67
1, 292863, Control_c, 0, 64, 64
1, 292875, Note_on_c, 0, 63, 50
1, 292878, Control_c, 0, 64, 61
1, 292879, Note_on_c, 0, 36, 43
1, 292881, Poly_aftertouch_c, 0, 67, 0
1, 292893, Control_c, 0, 64, 60
1, 292895, Note_on_c, 0, 55, 25
1, 292921, Note_on_c, 0, 60, 24
1, 292938, Control_c, 0, 64, 60
1, 292983, Control_c, 0, 64, 61
1, 292995, Note_off_c, 0, 36, 50
1, 292997, Control_c, 0, 64, 61
1, 293011, Note_off_c, 0, 63, 60
1, 293019, Note_off_c, 0, 60, 46
1, 293027, Control_c, 0, 64, 62
1, 293032, Note_on_c, 0, 67, 46
1, 293058, Note_off_c, 0, 55, 43
1, 293130, Control_c, 0, 64, 62
1, 293160, Control_c, 0, 64, 63
1, 293163, Note_on_c, 0, 63, 51
1, 293169, Note_off_c, 0, 67, 37
1, 293177, Note_on_c, 0, 36, 39
1, 293186, Note_on_c, 0, 55, 27
1, 293193, Note_on_c, 0, 60, 20
1, 293248, Control_c, 0, 64, 63
1, 293256, Note_off_c, 0, 36, 46
1, 293264, Note_off_c, 0, 60, 47
1, 293279, Note_off_c, 0, 63, 56
1, 293320, Note_on_c, 0, 67, 34
1, 293344, Note_off_c, 0, 55, 42
1, 293431, Note_off_c, 0, 67, 28
1, 293452, Note_on_c, 0, 62, 47
1, 293470, Note_on_c, 0, 31, 36
1, 293480, Note_on_c, 0, 55, 27
1, 293498, Note_on_c, 0, 59, 8
1, 293535, Note_off_c, 0, 31, 54
1, 293586, Note_off_c, 0, 62, 57
1, 293601, Note_on_c, 0, 67, 47
1, 293620, Note_off_c, 0, 59, 42
1, 293637, Note_off_c, 0, 55, 43
1, 293715, Control_c, 0, 64, 64
1, 293721, Note_off_c, 0, 67, 33
1, 293764, Note_on_c, 0, 55, 32
1, 293766, Note_on_c, 0, 62, 48
1, 293785, Note_on_c, 0, 31, 39
1, 293819, Poly_aftertouch_c, 0, 59, 127
1, 293875, Note_off_c, 0, 31, 50
1, 293887, Note_off_c, 0, 62, 61
1, 293923, Poly_aftertouch_c, 0, 59, 0
1, 293925, Note_on_c, 0, 67, 48
1, 293951, Note_off_c, 0, 55, 42
1, 294110, Note_off_c, 0, 67, 38
1, 294116, Note_on_c, 0, 63, 46
1, 294142, Note_on_c, 0, 60, 27
1, 294143, Note_on_c, 0, 55, 20
1, 294143, Note_on_c, 0, 36, 35
1, 294282, Note_off_c, 0, 63, 56
1, 294290, Note_off_c, 0, 36, 39
1, 294319, Note_on_c, 0, 67, 39
1, 294322, Note_off_c, 0, 60, 39
1, 294335, Note_off_c, 0, 55, 43
1, 294453, Note_off_c, 0, 67, 32
1, 294493, Control_c, 0, 64, 63
1, 294524, Control_c, 0, 64, 63
1, 294537, Note_on_c, 0, 63, 43
1, 294539, Control_c, 0, 64, 62
1, 294554, Control_c, 0, 64, 62
1, 294561, Note_on_c, 0, 55, 26
1, 294563, Note_on_c, 0, 36, 31
1, 294569, Control_c, 0, 64, 61
1, 294578, Note_on_c, 0, 60, 15
1, 294583, Control_c, 0, 64, 60
1, 294598, Control_c, 0, 64, 59
1, 294613, Control_c, 0, 64, 58
1, 294627, Control_c, 0, 64, 58
1, 294687, Control_c, 0, 64, 59
1, 294701, Control_c, 0, 64, 61
1, 294716, Control_c, 0, 64, 63
1, 294731, Control_c, 0, 64, 64
1, 294746, Control_c, 0, 64, 65
1, 294760, Note_off_c, 0, 55, 41
1, 294761, Control_c, 0, 64, 67
1, 294767, Note_on_c, 0, 67, 36
1, 294775, Control_c, 0, 64, 69
1, 294790, Note_off_c, 0, 60, 30
1, 294790, Control_c, 0, 64, 71
1, 294805, Control_c, 0, 64, 74
1, 294820, Control_c, 0, 64, 77
1, 294835, Control_c, 0, 64, 80
1, 294850, Control_c, 0, 64, 85
1, 294864, Control_c, 0, 64, 89
1, 294867, Note_off_c, 0, 67, 50
1, 294879, Control_c, 0, 64, 93
1, 294894, Control_c, 0, 64, 97
1, 294903, Note_off_c, 0, 63, 17
1, 294906, Note_off_c, 0, 36, 41
1, 294909, Control_c, 0, 64, 100
1, 294924, Control_c, 0, 64, 101
1, 294939, Control_c, 0, 64, 102
1, 294954, Control_c, 0, 64, 102
1, 295049, Control_c, 0, 64, 102
1, 295064, Control_c, 0, 64, 101
1, 295079, Control_c, 0, 64, 99
1, 295094, Control_c, 0, 64, 96
1, 295109, Control_c, 0, 64, 94
1, 295124, Control_c, 0, 64, 91
1, 295139, Control_c, 0, 64, 89
1, 295154, Control_c, 0, 64, 86
1, 295168, Control_c, 0, 64, 83
1, 295183, Control_c, 0, 64, 80
1, 295198, Control_c, 0, 64, 78
1, 295213, Control_c, 0, 64, 76
1, 295227, Control_c, 0, 64, 74
1, 295242, Control_c, 0, 64, 73
1, 295257, Control_c, 0, 64, 72
1, 295272, Control_c, 0, 64, 71
1, 295278, Note_on_c, 0, 63, 55
1, 295287, Control_c, 0, 64, 70
1, 295301, Control_c, 0, 64, 70
1, 295317, Control_c, 0, 64, 69
1, 295330, Note_off_c, 0, 63, 61
1, 295332, Control_c, 0, 64, 68
1, 295347, Control_c, 0, 64, 67
1, 295362, Control_c, 0, 64, 66
1, 295377, Control_c, 0, 64, 64
1, 295391, Control_c, 0, 64, 63
1, 295406, Control_c, 0, 64, 60
1, 295421, Control_c, 0, 64, 58
1, 295422, Note_on_c, 0, 67, 61
1, 295436, Control_c, 0, 64, 55
1, 295451, Control_c, 0, 64, 54
1, 295461, Note_off_c, 0, 67, 60
1, 295466, Control_c, 0, 64, 52
1, 295481, Control_c, 0, 64, 49
1, 295496, Control_c, 0, 64, 46
1, 295511, Control_c, 0, 64, 43
1, 295525, Control_c, 0, 64, 41
1, 295540, Control_c, 0, 64, 38
1, 295555, Control_c, 0, 64, 36
1, 295560, Note_on_c, 0, 71, 51
1, 295570, Control_c, 0, 64, 32
1, 295585, Control_c, 0, 64, 27
1, 295592, Note_off_c, 0, 71, 54
1, 295599, Control_c, 0, 64, 23
1, 295614, Control_c, 0, 64, 18
1, 295629, Control_c, 0, 64, 13
1, 295643, Control_c, 0, 64, 0
1, 295686, Note_on_c, 0, 72, 67
1, 295701, Note_on_c, 0, 67, 42
1, 295705, Note_on_c, 0, 60, 40
1, 295705, Note_on_c, 0, 63, 39
1, 295729, Note_off_c, 0, 72, 55
1, 295734, Note_off_c, 0, 67, 52
1, 295736, Note_off_c, 0, 60, 54
1, 295736, Note_off_c, 0, 63, 56
1, 295833, Note_on_c, 0, 72, 66
1, 295836, Note_on_c, 0, 67, 49
1, 295845, Note_on_c, 0, 60, 47
1, 295845, Note_on_c, 0, 63, 49
1, 295863, Note_off_c, 0, 72, 62
1, 295872, Note_off_c, 0, 67, 53
1, 295874, Note_off_c, 0, 63, 56
1, 295875, Note_off_c, 0, 60, 57
1, 295932, Control_c, 0, 64, 10
1, 295955, Note_on_c, 0, 72, 68
1, 295967, Note_on_c, 0, 63, 50
1, 295967, Note_on_c, 0, 60, 54
1, 295970, Note_on_c, 0, 67, 44
1, 295994, Note_off_c, 0, 72, 58
1, 295996, Note_off_c, 0, 63, 57
1, 296000, Note_off_c, 0, 67, 53
1, 296005, Note_off_c, 0, 60, 62
1, 296066, Control_c, 0, 64, 13
1, 296084, Note_on_c, 0, 72, 66
1, 296093, Note_on_c, 0, 67, 50
1, 296100, Note_on_c, 0, 60, 50
1, 296100, Note_on_c, 0, 63, 39
1, 296136, Note_off_c, 0, 72, 56
1, 296170, Control_c, 0, 64, 16
1, 296185, Control_c, 0, 64, 20
1, 296200, Control_c, 0, 64, 23
1, 296210, Note_on_c, 0, 74, 68
1, 296215, Control_c, 0, 64, 24
1, 296230, Control_c, 0, 64, 26
1, 296245, Control_c, 0, 64, 28
1, 296260, Control_c, 0, 64, 30
1, 296271, Note_off_c, 0, 74, 59
1, 296274, Control_c, 0, 64, 33
1, 296275, Note_off_c, 0, 67, 40
1, 296289, Control_c, 0, 64, 35
1, 296304, Control_c, 0, 64, 38
1, 296310, Note_off_c, 0, 60, 56
1, 296319, Control_c, 0, 64, 42
1, 296319, Note_off_c, 0, 63, 57
1, 296331, Note_on_c, 0, 75, 67
1, 296334, Control_c, 0, 64, 44
1, 296348, Control_c, 0, 64, 46
1, 296363, Control_c, 0, 64, 47
1, 296378, Control_c, 0, 64, 47
1, 296391, Note_off_c, 0, 75, 56
1, 296459, Note_on_c, 0, 74, 59
1, 296481, Control_c, 0, 64, 47
1, 296496, Control_c, 0, 64, 46
1, 296498, Note_off_c, 0, 74, 57
1, 296526, Control_c, 0, 64, 46
1, 296548, Control_c, 0, 64, 45
1, 296576, Note_on_c, 0, 71, 71
1, 296578, Control_c, 0, 64, 45
1, 296621, Note_off_c, 0, 71, 56
1, 296652, Control_c, 0, 64, 44
1, 296698, Note_on_c, 0, 67, 68
1, 296711, Control_c, 0, 64, 44
1, 296733, Note_off_c, 0, 67, 61
1, 296785, Control_c, 0, 64, 43
1, 296814, Control_c, 0, 64, 43
1, 296821, Note_on_c, 0, 59, 48
1, 296823, Note_on_c, 0, 62, 50
1, 296834, Note_on_c, 0, 67, 65
1, 296859, Note_off_c, 0, 59, 61
1, 296860, Note_off_c, 0, 62, 61
1, 296868, Note_off_c, 0, 67, 62
1, 296874, Control_c, 0, 64, 42
1, 296943, Note_on_c, 0, 62, 63
1, 296946, Note_on_c, 0, 59, 56
1, 296946, Note_on_c, 0, 67, 72
1, 296977, Note_off_c, 0, 62, 61
1, 296978, Control_c, 0, 64, 42
1, 296980, Note_off_c, 0, 67, 60
1, 296982, Note_off_c, 0, 59, 62
1, 297057, Note_on_c, 0, 62, 64
1, 297059, Note_on_c, 0, 67, 68
1, 297060, Note_on_c, 0, 59, 58
1, 297098, Note_off_c, 0, 59, 60
1, 297111, Control_c, 0, 64, 41
1, 297122, Note_off_c, 0, 67, 57
1, 297124, Note_off_c, 0, 62, 54
1, 297172, Note_on_c, 0, 68, 66
1, 297179, Note_on_c, 0, 62, 34
1, 297181, Note_on_c, 0, 67, 64
1, 297195, Note_on_c, 0, 59, 55
1, 297265, Note_off_c, 0, 68, 49
1, 297289, Note_off_c, 0, 67, 54
1, 297306, Note_on_c, 0, 66, 75
1, 297326, Control_c, 0, 64, 42
1, 297346, Note_off_c, 0, 62, 57
1, 297359, Note_off_c, 0, 66, 63
1, 297368, Note_off_c, 0, 59, 56
1, 297428, Note_on_c, 0, 67, 70
1, 297459, Control_c, 0, 64, 41
1, 297470, Note_off_c, 0, 67, 63
1, 297533, Control_c, 0, 64, 42
1, 297538, Note_on_c, 0, 67, 70
1, 297563, Control_c, 0, 64, 42
1, 297577, Control_c, 0, 64, 43
1, 297616, Note_off_c, 0, 67, 56
1, 297652, Note_on_c, 0, 70, 73
1, 297652, Control_c, 0, 64, 43
1, 297666, Control_c, 0, 64, 44
1, 297681, Control_c, 0, 64, 45
1, 297695, Control_c, 0, 64, 46
1, 297735, Note_off_c, 0, 70, 57
1, 297768, Note_on_c, 0, 73, 71
1, 297826, Note_off_c, 0, 73, 64
1, 297874, Control_c, 0, 64, 45
1, 297879, Note_on_c, 0, 76, 72
1, 297889, Control_c, 0, 64, 45
1, 297892, Note_on_c, 0, 70, 48
1, 297893, Note_on_c, 0, 73, 44
1, 297894, Note_on_c, 0, 67, 54
1, 297918, Control_c, 0, 64, 44
1, 297921, Note_off_c, 0, 73, 55
1, 297923, Note_off_c, 0, 70, 56
1, 297926, Note_off_c, 0, 76, 66
1, 297933, Note_off_c, 0, 67, 64
1, 297978, Control_c, 0, 64, 44
1, 297992, Note_on_c, 0, 76, 73
1, 298000, Note_on_c, 0, 73, 63
1, 298007, Control_c, 0, 64, 43
1, 298012, Note_on_c, 0, 67, 62
1, 298012, Note_on_c, 0, 70, 56
1, 298044, Control_c, 0, 64, 43
1, 298045, Note_off_c, 0, 76, 65
1, 298048, Note_off_c, 0, 73, 54
1, 298054, Note_off_c, 0, 67, 64
1, 298054, Note_off_c, 0, 70, 65
1, 298120, Note_on_c, 0, 76, 72
1, 298126, Note_on_c, 0, 73, 57
1, 298129, Note_on_c, 0, 67, 56
1, 298129, Note_on_c, 0, 70, 63
1, 298155, Note_off_c, 0, 76, 60
1, 298161, Note_off_c, 0, 73, 57
1, 298161, Note_off_c, 0, 70, 64
1, 298168, Note_off_c, 0, 67, 66
1, 298240, Note_on_c, 0, 73, 68
1, 298241, Note_on_c, 0, 76, 71
1, 298251, Note_on_c, 0, 70, 62
1, 298253, Note_on_c, 0, 67, 59
1, 298285, Note_off_c, 0, 76, 62
1, 298353, Note_on_c, 0, 77, 70
1, 298405, Note_off_c, 0, 77, 55
1, 298422, Note_off_c, 0, 67, 57
1, 298423, Note_off_c, 0, 73, 58
1, 298430, Control_c, 0, 64, 43
1, 298456, Note_off_c, 0, 70, 61
1, 298474, Control_c, 0, 64, 44
1, 298480, Note_on_c, 0, 79, 71
1, 298504, Control_c, 0, 64, 44
1, 298520, Control_c, 0, 64, 45
1, 298530, Note_off_c, 0, 79, 53
1, 298534, Control_c, 0, 64, 45
1, 298591, Note_on_c, 0, 77, 75
1, 298623, Control_c, 0, 64, 46
1, 298650, Note_off_c, 0, 77, 58
1, 298696, Note_on_c, 0, 81, 72
1, 298698, Control_c, 0, 64, 45
1, 298713, Control_c, 0, 64, 45
1, 298749, Note_off_c, 0, 81, 55
1, 298793, Control_c, 0, 64, 45
1, 298814, Note_on_c, 0, 84, 72
1, 298823, Control_c, 0, 64, 46
1, 298864, Note_off_c, 0, 84, 63
1, 298930, Note_on_c, 0, 84, 72
1, 298931, Note_on_c, 0, 69, 57
1, 298934, Note_on_c, 0, 77, 57
1, 298936, Note_on_c, 0, 72, 54
1, 298942, Control_c, 0, 64, 46
1, 298963, Note_off_c, 0, 77, 58
1, 298970, Note_off_c, 0, 69, 64
1, 298970, Note_off_c, 0, 72, 67
1, 298972, Control_c, 0, 64, 47
1, 298984, Note_off_c, 0, 84, 62
1, 298986, Control_c, 0, 64, 47
1, 299016, Control_c, 0, 64, 48
1, 299031, Control_c, 0, 64, 48
1, 299038, Note_on_c, 0, 84, 70
1, 299046, Note_on_c, 0, 77, 65
1, 299050, Note_on_c, 0, 69, 52
1, 299051, Note_on_c, 0, 72, 59
1, 299073, Note_off_c, 0, 77, 57
1, 299075, Control_c, 0, 64, 49
1, 299083, Note_off_c, 0, 72, 65
1, 299085, Note_off_c, 0, 69, 68
1, 299085, Note_off_c, 0, 84, 62
1, 299120, Control_c, 0, 64, 49
1, 299150, Note_on_c, 0, 72, 57
1, 299150, Note_on_c, 0, 77, 70
1, 299150, Note_on_c, 0, 84, 70
1, 299162, Note_on_c, 0, 69, 59
1, 299193, Note_off_c, 0, 77, 58
1, 299193, Note_off_c, 0, 69, 66
1, 299196, Note_off_c, 0, 72, 65
1, 299205, Note_off_c, 0, 84, 63
1, 299260, Note_on_c, 0, 86, 61
1, 299266, Note_on_c, 0, 77, 67
1, 299268, Note_on_c, 0, 84, 72
1, 299272, Note_on_c, 0, 72, 53
1, 299276, Note_on_c, 0, 69, 66
1, 299291, Note_off_c, 0, 86, 65
1, 299342, Control_c, 0, 64, 50
1, 299357, Control_c, 0, 64, 50
1, 299365, Note_off_c, 0, 84, 64
1, 299383, Note_on_c, 0, 83, 73
1, 299432, Note_off_c, 0, 77, 54
1, 299433, Note_off_c, 0, 83, 59
1, 299437, Note_off_c, 0, 69, 59
1, 299470, Note_off_c, 0, 72, 60
1, 299495, Note_on_c, 0, 84, 68
1, 299542, Control_c, 0, 64, 51
1, 299581, Note_off_c, 0, 84, 63
1, 299586, Control_c, 0, 64, 51
1, 299601, Control_c, 0, 64, 52
1, 299608, Note_on_c, 0, 78, 76
1, 299616, Control_c, 0, 64, 52
1, 299631, Control_c, 0, 64, 53
1, 299661, Control_c, 0, 64, 53
1, 299679, Note_off_c, 0, 78, 58
1, 299705, Control_c, 0, 64, 54
1, 299714, Note_on_c, 0, 81, 75
1, 299750, Control_c, 0, 64, 53
1, 299786, Note_off_c, 0, 81, 56
1, 299818, Note_on_c, 0, 84, 72
1, 299872, Note_off_c, 0, 84, 60
1, 299941, Note_on_c, 0, 87, 66
1, 299942, Control_c, 0, 64, 54
1, 299944, Note_on_c, 0, 81, 62
1, 299946, Note_on_c, 0, 72, 60
1, 299959, Note_on_c, 0, 78, 48
1, 299968, Note_off_c, 0, 81, 61
1, 299982, Note_off_c, 0, 78, 58
1, 299982, Note_off_c, 0, 87, 53
1, 299983, Note_off_c, 0, 72, 61
1, 300050, Note_on_c, 0, 81, 68
1, 300052, Note_on_c, 0, 87, 69
1, 300055, Note_on_c, 0, 78, 64
1, 300060, Note_on_c, 0, 72, 59
1, 300081, Note_off_c, 0, 81, 58
1, 300087, Note_off_c, 0, 87, 57
1, 300090, Note_off_c, 0, 78, 59
1, 300100, Note_off_c, 0, 72, 64
1, 300135, Control_c, 0, 64, 54
1, 300164, Note_on_c, 0, 72, 58
1, 300167, Note_on_c, 0, 81, 67
1, 300171, Note_on_c, 0, 87, 64
1, 300178, Note_on_c, 0, 78, 52
1, 300185, Note_off_c, 0, 81, 62
1, 300200, Note_off_c, 0, 78, 61
1, 300203, Note_off_c, 0, 87, 61
1, 300210, Note_off_c, 0, 72, 63
1, 300267, Note_on_c, 0, 89, 74
1, 300272, Note_on_c, 0, 81, 66
1, 300289, Note_on_c, 0, 72, 56
1, 300291, Note_on_c, 0, 78, 63
1, 300302, Note_on_c, 0, 87, 72
1, 300329, Note_off_c, 0, 89, 66
1, 300365, Control_c, 0, 64, 55
1, 300383, Note_off_c, 0, 87, 59
1, 300409, Control_c, 0, 64, 55
1, 300412, Note_on_c, 0, 86, 69
1, 300459, Note_off_c, 0, 86, 61
1, 300460, Note_off_c, 0, 81, 52
1, 300489, Note_off_c, 0, 72, 58
1, 300498, Control_c, 0, 64, 56
1, 300521, Note_off_c, 0, 78, 56
1, 300522, Note_on_c, 0, 87, 70
1, 300543, Control_c, 0, 64, 56
1, 300585, Note_off_c, 0, 87, 62
1, 300587, Control_c, 0, 64, 57
1, 300635, Note_on_c, 0, 83, 67
1, 300661, Control_c, 0, 64, 57
1, 300675, Note_off_c, 0, 83, 58
1, 300691, Control_c, 0, 64, 58
1, 300720, Control_c, 0, 64, 58
1, 300741, Note_on_c, 0, 86, 64
1, 300750, Control_c, 0, 64, 59
1, 300764, Control_c, 0, 64, 59
1, 300808, Note_off_c, 0, 86, 62
1, 300809, Control_c, 0, 64, 60
1, 300865, Note_on_c, 0, 89, 65
1, 300904, Note_off_c, 0, 89, 65
1, 300956, Note_on_c, 0, 94, 83
1, 300981, Note_on_c, 0, 80, 78
1, 300984, Note_on_c, 0, 92, 78
1, 300993, Note_on_c, 0, 77, 61
1, 300999, Note_on_c, 0, 71, 57
1, 301001, Note_on_c, 0, 74, 57
1, 301002, Control_c, 0, 64, 60
1, 301039, Note_off_c, 0, 94, 65
1, 301068, Note_off_c, 0, 92, 67
1, 301101, Note_on_c, 0, 91, 78
1, 301178, Note_off_c, 0, 91, 57
1, 301187, Control_c, 0, 64, 61
1, 301211, Note_on_c, 0, 89, 72
1, 301232, Control_c, 0, 64, 61
1, 301250, Note_off_c, 0, 89, 63
1, 301261, Control_c, 0, 64, 62
1, 301304, Note_on_c, 0, 91, 80
1, 301338, Note_on_c, 0, 89, 70
1, 301341, Note_off_c, 0, 74, 61
1, 301345, Note_off_c, 0, 77, 56
1, 301356, Note_off_c, 0, 71, 59
1, 301363, Note_off_c, 0, 80, 60
1, 301381, Control_c, 0, 64, 62
1, 301382, Note_off_c, 0, 91, 58
1, 301419, Note_off_c, 0, 89, 66
1, 301426, Note_on_c, 0, 87, 74
1, 301491, Note_off_c, 0, 87, 63
1, 301515, Note_on_c, 0, 86, 69
1, 301548, Note_off_c, 0, 86, 60
1, 301624, Note_on_c, 0, 82, 76
1, 301657, Note_on_c, 0, 80, 68
1, 301690, Note_off_c, 0, 82, 62
1, 301721, Note_off_c, 0, 80, 65
1, 301737, Control_c, 0, 64, 62
1, 301757, Note_on_c, 0, 79, 78
1, 301817, Note_off_c, 0, 79, 55
1, 301818, Control_c, 0, 64, 61
1, 301871, Note_on_c, 0, 77, 70
1, 301908, Note_off_c, 0, 77, 62
1, 301962, Note_on_c, 0, 79, 71
1, 301986, Note_on_c, 0, 77, 71
1, 302038, Note_off_c, 0, 79, 61
1, 302071, Note_off_c, 0, 77, 62
1, 302083, Note_on_c, 0, 75, 76
1, 302147, Note_off_c, 0, 75, 65
1, 302177, Note_on_c, 0, 74, 62
1, 302206, Note_off_c, 0, 74, 67
1, 302277, Note_on_c, 0, 68, 75
1, 302278, Control_c, 0, 64, 62
1, 302315, Note_on_c, 0, 67, 68
1, 302326, Note_off_c, 0, 68, 59
1, 302352, Control_c, 0, 64, 61
1, 302388, Note_off_c, 0, 67, 58
1, 302397, Control_c, 0, 64, 61
1, 302420, Note_on_c, 0, 65, 76
1, 302477, Note_off_c, 0, 65, 64
1, 302516, Note_on_c, 0, 63, 73
1, 302555, Note_off_c, 0, 63, 66
1, 302625, Note_on_c, 0, 65, 76
1, 302640, Note_on_c, 0, 63, 80
1, 302683, Note_off_c, 0, 65, 65
1, 302736, Note_off_c, 0, 63, 65
1, 302749, Note_on_c, 0, 62, 74
1, 302790, Control_c, 0, 64, 60
1, 302805, Control_c, 0, 64, 60
1, 302812, Note_off_c, 0, 62, 61
1, 302820, Control_c, 0, 64, 59
1, 302834, Control_c, 0, 64, 58
1, 302847, Note_on_c, 0, 60, 63
1, 302849, Control_c, 0, 64, 57
1, 302864, Control_c, 0, 64, 56
1, 302877, Note_off_c, 0, 60, 65
1, 302879, Control_c, 0, 64, 55
1, 302894, Control_c, 0, 64, 53
1, 302908, Control_c, 0, 64, 53
1, 302923, Control_c, 0, 64, 52
1, 302938, Control_c, 0, 64, 51
1, 302952, Control_c, 0, 64, 50
1, 302967, Control_c, 0, 64, 49
1, 302977, Note_on_c, 0, 53, 76
1, 302982, Control_c, 0, 64, 47
1, 302996, Note_on_c, 0, 51, 68
1, 302997, Control_c, 0, 64, 44
1, 303012, Control_c, 0, 64, 41
1, 303027, Control_c, 0, 64, 38
1, 303041, Note_off_c, 0, 53, 64
1, 303041, Control_c, 0, 64, 35
1, 303056, Control_c, 0, 64, 29
1, 303068, Note_off_c, 0, 51, 63
1, 303071, Control_c, 0, 64, 21
1, 303086, Control_c, 0, 64, 10
1, 303095, Note_on_c, 0, 50, 70
1, 303101, Control_c, 0, 64, 0
1, 303164, Note_off_c, 0, 50, 64
1, 303198, Note_on_c, 0, 48, 73
1, 303220, Control_c, 0, 64, 13
1, 303229, Note_off_c, 0, 48, 68
1, 303234, Control_c, 0, 64, 16
1, 303249, Control_c, 0, 64, 20
1, 303264, Control_c, 0, 64, 21
1, 303286, Control_c, 0, 64, 23
1, 303317, Control_c, 0, 64, 24
1, 303336, Note_on_c, 0, 41, 52
1, 303348, Note_on_c, 0, 39, 53
1, 303373, Note_off_c, 0, 41, 54
1, 303395, Note_off_c, 0, 39, 60
1, 303405, Control_c, 0, 64, 25
1, 303470, Note_on_c, 0, 38, 56
1, 303509, Control_c, 0, 64, 26
1, 303514, Note_off_c, 0, 38, 61
1, 303524, Control_c, 0, 64, 27
1, 303627, Note_on_c, 0, 36, 39
1, 303659, Note_off_c, 0, 36, 52
1, 303756, Note_on_c, 0, 36, 49
1, 303759, Note_on_c, 0, 75, 48
1, 303815, Note_off_c, 0, 36, 59
1, 303849, Control_c, 0, 64, 28
1, 303866, Note_on_c, 0, 67, 49
1, 303934, Note_off_c, 0, 75, 60
1, 303956, Note_on_c, 0, 70, 47
1, 303965, Note_off_c, 0, 67, 44
1, 303968, Control_c, 0, 64, 29
1, 304001, Note_on_c, 0, 68, 60
1, 304015, Note_off_c, 0, 70, 52
1, 304093, Control_c, 0, 64, 30
1, 304100, Note_on_c, 0, 67, 55
1, 304105, Note_off_c, 0, 68, 60
1, 304234, Note_off_c, 0, 67, 53
1, 304248, Note_on_c, 0, 75, 57
1, 304267, Note_on_c, 0, 36, 43
1, 304317, Control_c, 0, 64, 31
1, 304353, Note_off_c, 0, 36, 61
1, 304366, Note_on_c, 0, 67, 50
1, 304457, Note_on_c, 0, 70, 30
1, 304462, Note_off_c, 0, 67, 58
1, 304470, Note_on_c, 0, 68, 59
1, 304494, Control_c, 0, 64, 32
1, 304503, Note_off_c, 0, 75, 41
1, 304518, Note_off_c, 0, 70, 39
1, 304579, Note_off_c, 0, 68, 62
1, 304582, Note_on_c, 0, 67, 59
1, 304627, Control_c, 0, 64, 33
1, 304672, Control_c, 0, 64, 34
1, 304711, Note_on_c, 0, 75, 64
1, 304723, Note_off_c, 0, 67, 50
1, 304728, Note_on_c, 0, 36, 37
1, 304827, Control_c, 0, 64, 34
1, 304847, Note_on_c, 0, 67, 60
1, 304851, Note_off_c, 0, 36, 52
1, 304857, Control_c, 0, 64, 35
1, 304886, Control_c, 0, 64, 36
1, 304917, Control_c, 0, 64, 36
1, 304919, Note_on_c, 0, 70, 48
1, 304921, Note_off_c, 0, 67, 57
1, 304929, Note_off_c, 0, 75, 57
1, 304950, Note_on_c, 0, 68, 63
1, 304961, Control_c, 0, 64, 37
1, 304991, Control_c, 0, 64, 38
1, 305000, Note_off_c, 0, 70, 52
1, 305021, Control_c, 0, 64, 38
1, 305054, Note_on_c, 0, 67, 54
1, 305059, Note_off_c, 0, 68, 60
1, 305125, Control_c, 0, 64, 38
1, 305185, Note_off_c, 0, 67, 50
1, 305193, Note_on_c, 0, 74, 54
1, 305203, Note_on_c, 0, 35, 38
1, 305314, Note_on_c, 0, 67, 52
1, 305318, Control_c, 0, 64, 38
1, 305424, Note_off_c, 0, 67, 54
1, 305432, Note_off_c, 0, 74, 57
1, 305436, Note_on_c, 0, 69, 62
1, 305473, Poly_aftertouch_c, 0, 71, 0
1, 305510, Control_c, 0, 64, 39
1, 305533, Control_c, 0, 64, 39
1, 305533, Note_off_c, 0, 69, 65
1, 305536, Note_off_c, 0, 35, 35
1, 305548, Control_c, 0, 64, 41
1, 305555, Note_on_c, 0, 67, 60
1, 305562, Control_c, 0, 64, 41
1, 305577, Control_c, 0, 64, 42
1, 305592, Control_c, 0, 64, 43
1, 305607, Control_c, 0, 64, 43
1, 305622, Control_c, 0, 64, 44
1, 305636, Control_c, 0, 64, 45
1, 305651, Control_c, 0, 64, 45
1, 305658, Note_off_c, 0, 67, 62
1, 305666, Control_c, 0, 64, 46
1, 305675, Note_on_c, 0, 66, 66
1, 305681, Control_c, 0, 64, 46
1, 305696, Control_c, 0, 64, 47
1, 305768, Note_off_c, 0, 66, 65
1, 305790, Note_on_c, 0, 67, 66
1, 305800, Control_c, 0, 64, 48
1, 305815, Control_c, 0, 64, 52
1, 305830, Control_c, 0, 64, 56
1, 305845, Control_c, 0, 64, 59
1, 305859, Control_c, 0, 64, 62
1, 305874, Control_c, 0, 64, 63
1, 305888, Note_off_c, 0, 67, 60
1, 305889, Control_c, 0, 64, 65
1, 305904, Control_c, 0, 64, 67
1, 305909, Note_on_c, 0, 71, 61
1, 305919, Control_c, 0, 64, 69
1, 305933, Control_c, 0, 64, 71
1, 305948, Control_c, 0, 64, 74
1, 305963, Control_c, 0, 64, 78
1, 305977, Control_c, 0, 64, 82
1, 305989, Note_off_c, 0, 71, 61
1, 305992, Control_c, 0, 64, 86
1, 306007, Control_c, 0, 64, 90
1, 306019, Note_on_c, 0, 74, 55
1, 306022, Control_c, 0, 64, 94
1, 306037, Control_c, 0, 64, 99
1, 306052, Control_c, 0, 64, 104
1, 306054, Note_off_c, 0, 74, 64
1, 306067, Control_c, 0, 64, 108
1, 306082, Control_c, 0, 64, 113
1, 306096, Control_c, 0, 64, 116
1, 306111, Control_c, 0, 64, 120
1, 306126, Control_c, 0, 64, 124
1, 306141, Control_c, 0, 64, 127
1, 306150, Note_on_c, 0, 79, 64
1, 306252, Note_off_c, 0, 79, 56
1, 306254, Note_on_c, 0, 83, 65
1, 306362, Note_off_c, 0, 83, 59
1, 306370, Note_on_c, 0, 86, 64
1, 306455, Note_off_c, 0, 86, 55
1, 306469, Note_on_c, 0, 79, 68
1, 306497, Note_off_c, 0, 79, 66
1, 306608, Control_c, 0, 64, 126
1, 306623, Control_c, 0, 64, 120
1, 306638, Control_c, 0, 64, 115
1, 306646, Note_on_c, 0, 73, 74
1, 306653, Control_c, 0, 64, 109
1, 306656, Note_on_c, 0, 34, 51
1, 306668, Control_c, 0, 64, 102
1, 306682, Control_c, 0, 64, 97
1, 306697, Control_c, 0, 64, 92
1, 306712, Control_c, 0, 64, 88
1, 306727, Control_c, 0, 64, 83
1, 306742, Control_c, 0, 64, 79
1, 306755, Note_on_c, 0, 64, 52
1, 306756, Control_c, 0, 64, 76
1, 306769, Note_off_c, 0, 34, 56
1, 306771, Control_c, 0, 64, 74
1, 306786, Control_c, 0, 64, 72
1, 306800, Control_c, 0, 64, 71
1, 306808, Note_off_c, 0, 73, 61
1, 306815, Control_c, 0, 64, 69
1, 306830, Control_c, 0, 64, 68
1, 306845, Control_c, 0, 64, 66
1, 306846, Note_on_c, 0, 67, 41
1, 306846, Note_off_c, 0, 64, 47
1, 306854, Note_on_c, 0, 65, 62
1, 306860, Control_c, 0, 64, 63
1, 306875, Control_c, 0, 64, 60
1, 306889, Control_c, 0, 64, 54
1, 306894, Note_off_c, 0, 67, 49
1, 306904, Control_c, 0, 64, 51
1, 306919, Control_c, 0, 64, 49
1, 306934, Control_c, 0, 64, 48
1, 306949, Control_c, 0, 64, 46
1, 306961, Note_off_c, 0, 65, 65
1, 306963, Note_on_c, 0, 64, 59
1, 306964, Control_c, 0, 64, 45
1, 306979, Control_c, 0, 64, 43
1, 306994, Control_c, 0, 64, 42
1, 307008, Control_c, 0, 64, 42
1, 307109, Note_on_c, 0, 73, 69
1, 307113, Note_off_c, 0, 64, 60
1, 307119, Control_c, 0, 64, 42
1, 307131, Note_on_c, 0, 34, 46
1, 307134, Control_c, 0, 64, 43
1, 307164, Control_c, 0, 64, 43
1, 307193, Control_c, 0, 64, 44
1, 307200, Note_off_c, 0, 34, 58
1, 307208, Control_c, 0, 64, 44
1, 307223, Control_c, 0, 64, 45
1, 307233, Note_on_c, 0, 64, 58
1, 307282, Control_c, 0, 64, 45
1, 307299, Note_off_c, 0, 73, 62
1, 307305, Note_on_c, 0, 67, 39
1, 307322, Note_off_c, 0, 64, 60
1, 307326, Note_on_c, 0, 65, 64
1, 307369, Note_off_c, 0, 67, 41
1, 307441, Note_on_c, 0, 64, 57
1, 307443, Note_off_c, 0, 65, 62
1, 307475, Control_c, 0, 64, 46
1, 307519, Control_c, 0, 64, 46
1, 307548, Control_c, 0, 64, 47
1, 307563, Control_c, 0, 64, 47
1, 307578, Note_on_c, 0, 73, 71
1, 307578, Control_c, 0, 64, 48
1, 307583, Note_on_c, 0, 34, 45
1, 307587, Note_off_c, 0, 64, 61
1, 307593, Control_c, 0, 64, 48
1, 307653, Control_c, 0, 64, 49
1, 307667, Control_c, 0, 64, 49
1, 307669, Note_off_c, 0, 34, 57
1, 307682, Control_c, 0, 64, 50
1, 307697, Control_c, 0, 64, 50
1, 307706, Note_on_c, 0, 64, 57
1, 307727, Control_c, 0, 64, 51
1, 307751, Note_off_c, 0, 73, 62
1, 307778, Control_c, 0, 64, 51
1, 307795, Note_on_c, 0, 67, 37
1, 307800, Note_off_c, 0, 64, 61
1, 307802, Note_on_c, 0, 65, 66
1, 307823, Control_c, 0, 64, 52
1, 307845, Note_off_c, 0, 67, 45
1, 307909, Note_on_c, 0, 64, 62
1, 307912, Control_c, 0, 64, 51
1, 307914, Note_off_c, 0, 65, 63
1, 307942, Control_c, 0, 64, 51
1, 307986, Note_off_c, 0, 64, 54
1, 308016, Control_c, 0, 64, 50
1, 308054, Note_on_c, 0, 72, 62
1, 308059, Note_on_c, 0, 33, 48
1, 308163, Note_on_c, 0, 65, 48
1, 308244, Note_on_c, 0, 69, 47
1, 308246, Note_off_c, 0, 65, 54
1, 308272, Note_off_c, 0, 72, 57
1, 308279, Note_on_c, 0, 67, 60
1, 308293, Note_off_c, 0, 69, 58
1, 308338, Note_off_c, 0, 33, 39
1, 308343, Control_c, 0, 64, 51
1, 308363, Note_off_c, 0, 67, 62
1, 308372, Control_c, 0, 64, 51
1, 308380, Note_on_c, 0, 65, 54
1, 308402, Control_c, 0, 64, 52
1, 308482, Note_off_c, 0, 65, 64
1, 308507, Note_on_c, 0, 64, 60
1, 308603, Note_off_c, 0, 64, 64
1, 308617, Control_c, 0, 64, 51
1, 308632, Control_c, 0, 64, 51
1, 308633, Note_on_c, 0, 65, 68
1, 308676, Control_c, 0, 64, 51
1, 308691, Control_c, 0, 64, 53
1, 308705, Control_c, 0, 64, 57
1, 308720, Control_c, 0, 64, 61
1, 308733, Note_off_c, 0, 65, 60
1, 308735, Control_c, 0, 64, 64
1, 308750, Control_c, 0, 64, 67
1, 308754, Note_on_c, 0, 69, 65
1, 308765, Control_c, 0, 64, 70
1, 308779, Control_c, 0, 64, 73
1, 308794, Control_c, 0, 64, 76
1, 308809, Control_c, 0, 64, 80
1, 308824, Control_c, 0, 64, 85
1, 308839, Control_c, 0, 64, 90
1, 308841, Note_off_c, 0, 69, 65
1, 308854, Control_c, 0, 64, 96
1, 308867, Note_on_c, 0, 72, 62
1, 308869, Control_c, 0, 64, 104
1, 308884, Control_c, 0, 64, 112
1, 308899, Control_c, 0, 64, 118
1, 308914, Control_c, 0, 64, 124
1, 308922, Note_off_c, 0, 72, 64
1, 308929, Control_c, 0, 64, 127
1, 308997, Note_on_c, 0, 77, 68
1, 309106, Note_off_c, 0, 77, 59
1, 309108, Note_on_c, 0, 81, 73
1, 309203, Note_off_c, 0, 81, 58
1, 309206, Note_on_c, 0, 84, 70
1, 309302, Note_off_c, 0, 84, 60
1, 309322, Note_on_c, 0, 77, 64
1, 309352, Note_off_c, 0, 77, 65
1, 309381, Control_c, 0, 64, 127
1, 309395, Control_c, 0, 64, 120
1, 309410, Control_c, 0, 64, 114
1, 309425, Control_c, 0, 64, 108
1, 309440, Control_c, 0, 64, 102
1, 309455, Note_on_c, 0, 78, 78
1, 309455, Control_c, 0, 64, 96
1, 309470, Control_c, 0, 64, 91
1, 309474, Note_on_c, 0, 32, 58
1, 309484, Control_c, 0, 64, 86
1, 309499, Control_c, 0, 64, 81
1, 309514, Control_c, 0, 64, 77
1, 309528, Control_c, 0, 64, 75
1, 309543, Control_c, 0, 64, 73
1, 309558, Control_c, 0, 64, 72
1, 309565, Note_on_c, 0, 72, 60
1, 309573, Control_c, 0, 64, 70
1, 309586, Note_off_c, 0, 32, 57
1, 309588, Control_c, 0, 64, 69
1, 309602, Control_c, 0, 64, 68
1, 309617, Control_c, 0, 64, 66
1, 309632, Control_c, 0, 64, 65
1, 309647, Control_c, 0, 64, 63
1, 309662, Control_c, 0, 64, 62
1, 309676, Note_off_c, 0, 72, 60
1, 309677, Note_on_c, 0, 75, 50
1, 309677, Control_c, 0, 64, 61
1, 309691, Control_c, 0, 64, 61
1, 309694, Note_on_c, 0, 74, 65
1, 309700, Note_off_c, 0, 78, 54
1, 309707, Control_c, 0, 64, 60
1, 309722, Control_c, 0, 64, 59
1, 309736, Note_off_c, 0, 75, 54
1, 309737, Control_c, 0, 64, 58
1, 309751, Control_c, 0, 64, 58
1, 309766, Control_c, 0, 64, 57
1, 309796, Control_c, 0, 64, 57
1, 309802, Note_on_c, 0, 72, 63
1, 309810, Note_off_c, 0, 74, 63
1, 309811, Control_c, 0, 64, 56
1, 309841, Control_c, 0, 64, 56
1, 309855, Control_c, 0, 64, 55
1, 309870, Control_c, 0, 64, 54
1, 309885, Control_c, 0, 64, 53
1, 309900, Control_c, 0, 64, 52
1, 309915, Control_c, 0, 64, 52
1, 309924, Note_off_c, 0, 72, 50
1, 309936, Note_on_c, 0, 78, 83
1, 309948, Note_on_c, 0, 32, 62
1, 309974, Control_c, 0, 64, 53
1, 309989, Control_c, 0, 64, 54
1, 310004, Control_c, 0, 64, 54
1, 310025, Control_c, 0, 64, 56
1, 310040, Control_c, 0, 64, 56
1, 310055, Control_c, 0, 64, 57
1, 310061, Note_on_c, 0, 72, 65
1, 310064, Note_off_c, 0, 32, 59
1, 310070, Control_c, 0, 64, 58
1, 310085, Control_c, 0, 64, 58
1, 310100, Control_c, 0, 64, 59
1, 310115, Control_c, 0, 64, 59
1, 310130, Control_c, 0, 64, 60
1, 310159, Control_c, 0, 64, 60
1, 310161, Note_off_c, 0, 72, 63
1, 310163, Note_on_c, 0, 75, 28
1, 310171, Note_on_c, 0, 74, 62
1, 310189, Control_c, 0, 64, 61
1, 310208, Note_off_c, 0, 78, 54
1, 310216, Note_off_c, 0, 75, 46
1, 310218, Control_c, 0, 64, 61
1, 310263, Control_c, 0, 64, 62
1, 310264, Note_on_c, 0, 72, 69
1, 310265, Note_off_c, 0, 74, 64
1, 310337, Control_c, 0, 64, 62
1, 310351, Control_c, 0, 64, 63
1, 310366, Control_c, 0, 64, 63
1, 310394, Note_on_c, 0, 78, 89
1, 310396, Control_c, 0, 64, 64
1, 310402, Note_off_c, 0, 72, 53
1, 310411, Note_on_c, 0, 32, 71
1, 310411, Control_c, 0, 64, 64
1, 310424, Control_c, 0, 64, 65
1, 310439, Control_c, 0, 64, 66
1, 310454, Control_c, 0, 64, 67
1, 310468, Control_c, 0, 64, 68
1, 310483, Control_c, 0, 64, 69
1, 310499, Control_c, 0, 64, 70
1, 310514, Note_on_c, 0, 72, 69
1, 310514, Control_c, 0, 64, 71
1, 310529, Control_c, 0, 64, 71
1, 310542, Note_off_c, 0, 32, 62
1, 310544, Control_c, 0, 64, 72
1, 310559, Control_c, 0, 64, 73
1, 310573, Control_c, 0, 64, 74
1, 310588, Control_c, 0, 64, 74
1, 310603, Control_c, 0, 64, 75
1, 310607, Note_off_c, 0, 72, 62
1, 310618, Note_on_c, 0, 74, 70
1, 310618, Control_c, 0, 64, 75
1, 310628, Note_on_c, 0, 75, 40
1, 310630, Note_off_c, 0, 78, 61
1, 310677, Control_c, 0, 64, 76
1, 310690, Note_off_c, 0, 75, 38
1, 310718, Note_on_c, 0, 72, 75
1, 310718, Note_off_c, 0, 74, 64
1, 310818, Control_c, 0, 64, 75
1, 310833, Control_c, 0, 64, 72
1, 310845, Note_on_c, 0, 79, 85
1, 310847, Control_c, 0, 64, 61
1, 310852, Note_on_c, 0, 31, 83
1, 310860, Note_off_c, 0, 72, 40
1, 310862, Control_c, 0, 64, 0
1, 310921, Control_c, 0, 64, 52
1, 310936, Control_c, 0, 64, 66
1, 310951, Control_c, 0, 64, 70
1, 310965, Control_c, 0, 64, 75
1, 310979, Note_on_c, 0, 72, 66
1, 310980, Control_c, 0, 64, 84
1, 310994, Note_off_c, 0, 31, 62
1, 310995, Control_c, 0, 64, 92
1, 311009, Note_on_c, 0, 75, 45
1, 311010, Control_c, 0, 64, 99
1, 311025, Control_c, 0, 64, 104
1, 311039, Control_c, 0, 64, 106
1, 311054, Control_c, 0, 64, 107
1, 311066, Note_off_c, 0, 79, 54
1, 311069, Control_c, 0, 64, 107
1, 311084, Control_c, 0, 64, 108
1, 311087, Note_off_c, 0, 72, 62
1, 311090, Note_on_c, 0, 74, 70
1, 311098, Control_c, 0, 64, 109
1, 311113, Control_c, 0, 64, 110
1, 311128, Control_c, 0, 64, 111
1, 311143, Control_c, 0, 64, 112
1, 311154, Note_off_c, 0, 75, 54
1, 311158, Control_c, 0, 64, 113
1, 311173, Control_c, 0, 64, 114
1, 311184, Note_off_c, 0, 74, 65
1, 311188, Control_c, 0, 64, 114
1, 311197, Note_on_c, 0, 72, 72
1, 311203, Control_c, 0, 64, 115
1, 311218, Control_c, 0, 64, 116
1, 311233, Control_c, 0, 64, 116
1, 311277, Control_c, 0, 64, 116
1, 311292, Control_c, 0, 64, 114
1, 311307, Control_c, 0, 64, 109
1, 311322, Control_c, 0, 64, 100
1, 311337, Control_c, 0, 64, 87
1, 311346, Note_off_c, 0, 72, 55
1, 311349, Note_on_c, 0, 80, 82
1, 311352, Control_c, 0, 64, 68
1, 311367, Control_c, 0, 64, 0
1, 311369, Note_on_c, 0, 29, 87
1, 311441, Control_c, 0, 64, 61
1, 311456, Control_c, 0, 64, 71
1, 311470, Control_c, 0, 64, 82
1, 311485, Control_c, 0, 64, 94
1, 311486, Note_on_c, 0, 72, 69
1, 311497, Note_off_c, 0, 80, 61
1, 311500, Control_c, 0, 64, 103
1, 311522, Control_c, 0, 64, 112
1, 311537, Control_c, 0, 64, 120
1, 311552, Control_c, 0, 64, 127
1, 311583, Note_off_c, 0, 72, 63
1, 311607, Note_on_c, 0, 74, 78
1, 311698, Note_off_c, 0, 74, 61
1, 311715, Note_on_c, 0, 77, 75
1, 311820, Note_off_c, 0, 77, 61
1, 311831, Note_on_c, 0, 80, 84
1, 311880, Note_off_c, 0, 80, 64
1, 311900, Note_off_c, 0, 29, 63
1, 311946, Note_on_c, 0, 84, 74
1, 311996, Control_c, 0, 64, 127
1, 312011, Control_c, 0, 64, 121
1, 312026, Control_c, 0, 64, 117
1, 312039, Note_on_c, 0, 86, 73
1, 312039, Note_off_c, 0, 84, 63
1, 312041, Control_c, 0, 64, 113
1, 312056, Control_c, 0, 64, 110
1, 312070, Control_c, 0, 64, 105
1, 312086, Control_c, 0, 64, 101
1, 312101, Control_c, 0, 64, 97
1, 312116, Control_c, 0, 64, 93
1, 312131, Control_c, 0, 64, 90
1, 312144, Note_off_c, 0, 86, 62
1, 312145, Control_c, 0, 64, 86
1, 312156, Note_on_c, 0, 89, 65
1, 312160, Control_c, 0, 64, 83
1, 312175, Control_c, 0, 64, 80
1, 312179, Note_on_c, 0, 88, 59
1, 312190, Control_c, 0, 64, 77
1, 312205, Note_off_c, 0, 88, 36
1, 312205, Control_c, 0, 64, 73
1, 312219, Control_c, 0, 64, 68
1, 312234, Control_c, 0, 64, 64
1, 312249, Control_c, 0, 64, 55
1, 312272, Control_c, 0, 64, 27
1, 312287, Control_c, 0, 64, 0
1, 312297, Note_on_c, 0, 92, 75
1, 312312, Note_off_c, 0, 89, 59
1, 312413, Note_on_c, 0, 91, 73
1, 312450, Note_off_c, 0, 92, 31
1, 312527, Note_on_c, 0, 89, 66
1, 312562, Note_off_c, 0, 91, 46
1, 312645, Note_on_c, 0, 87, 54
1, 312647, Note_off_c, 0, 89, 58
1, 312740, Note_on_c, 0, 74, 41
1, 312757, Note_on_c, 0, 65, 42
1, 312757, Note_on_c, 0, 72, 35
1, 312759, Note_on_c, 0, 68, 38
1, 312759, Note_off_c, 0, 87, 56
1, 312762, Note_on_c, 0, 86, 61
1, 312815, Note_off_c, 0, 65, 63
1, 312815, Note_off_c, 0, 68, 63
1, 312818, Note_off_c, 0, 74, 63
1, 312819, Note_off_c, 0, 72, 63
1, 312870, Note_off_c, 0, 86, 61
1, 312883, Note_on_c, 0, 87, 60
1, 312954, Control_c, 0, 64, 10
1, 312968, Control_c, 0, 64, 16
1, 312983, Control_c, 0, 64, 18
1, 312996, Note_on_c, 0, 89, 61
1, 313004, Note_off_c, 0, 87, 55
1, 313036, Control_c, 0, 64, 20
1, 313105, Note_off_c, 0, 89, 61
1, 313137, Note_on_c, 0, 84, 56
1, 313235, Note_off_c, 0, 84, 63
1, 313239, Note_on_c, 0, 71, 47
1, 313251, Note_on_c, 0, 67, 51
1, 313256, Note_on_c, 0, 83, 48
1, 313260, Note_on_c, 0, 74, 43
1, 313287, Note_off_c, 0, 74, 61
1, 313292, Note_off_c, 0, 71, 61
1, 313293, Note_off_c, 0, 67, 64
1, 313353, Note_off_c, 0, 83, 53
1, 313365, Note_on_c, 0, 84, 60
1, 313406, Control_c, 0, 64, 21
1, 313421, Control_c, 0, 64, 23
1, 313435, Control_c, 0, 64, 24
1, 313461, Note_off_c, 0, 84, 63
1, 313465, Control_c, 0, 64, 25
1, 313471, Note_on_c, 0, 86, 59
1, 313480, Control_c, 0, 64, 26
1, 313494, Control_c, 0, 64, 27
1, 313526, Note_off_c, 0, 86, 59
1, 313599, Note_on_c, 0, 77, 55
1, 313657, Control_c, 0, 64, 26
1, 313672, Control_c, 0, 64, 24
1, 313688, Control_c, 0, 64, 23
1, 313706, Note_off_c, 0, 77, 56
1, 313718, Control_c, 0, 64, 29
1, 313732, Control_c, 0, 64, 42
1, 313740, Note_on_c, 0, 75, 48
1, 313747, Control_c, 0, 64, 54
1, 313748, Note_on_c, 0, 63, 30
1, 313751, Note_on_c, 0, 67, 35
1, 313754, Note_on_c, 0, 72, 27
1, 313769, Note_on_c, 0, 60, 37
1, 313769, Control_c, 0, 64, 58
1, 313784, Control_c, 0, 64, 61
1, 313799, Control_c, 0, 64, 63
1, 313814, Control_c, 0, 64, 65
1, 313829, Control_c, 0, 64, 67
1, 313844, Control_c, 0, 64, 70
1, 313848, Note_off_c, 0, 72, 61
1, 313852, Note_off_c, 0, 75, 58
1, 313858, Note_off_c, 0, 67, 51
1, 313859, Control_c, 0, 64, 73
1, 313862, Note_on_c, 0, 77, 49
1, 313868, Note_off_c, 0, 60, 54
1, 313873, Control_c, 0, 64, 76
1, 313876, Note_off_c, 0, 63, 54
1, 313888, Control_c, 0, 64, 79
1, 313903, Control_c, 0, 64, 81
1, 313917, Control_c, 0, 64, 84
1, 313932, Control_c, 0, 64, 86
1, 313947, Control_c, 0, 64, 88
1, 313960, Note_off_c, 0, 77, 57
1, 313962, Control_c, 0, 64, 91
1, 313967, Note_on_c, 0, 79, 58
1, 313977, Control_c, 0, 64, 93
1, 313991, Control_c, 0, 64, 95
1, 314006, Control_c, 0, 64, 97
1, 314021, Control_c, 0, 64, 99
1, 314027, Note_off_c, 0, 79, 52
1, 314036, Control_c, 0, 64, 100
1, 314051, Control_c, 0, 64, 101
1, 314065, Control_c, 0, 64, 101
1, 314080, Control_c, 0, 64, 102
1, 314092, Note_on_c, 0, 72, 58
1, 314095, Control_c, 0, 64, 102
1, 314115, Note_off_c, 0, 72, 64
1, 314124, Control_c, 0, 64, 103
1, 314243, Control_c, 0, 64, 102
1, 314247, Note_on_c, 0, 63, 60
1, 314258, Control_c, 0, 64, 102
1, 314272, Control_c, 0, 64, 101
1, 314287, Control_c, 0, 64, 99
1, 314302, Control_c, 0, 64, 98
1, 314316, Control_c, 0, 64, 95
1, 314331, Control_c, 0, 64, 92
1, 314346, Control_c, 0, 64, 90
1, 314361, Control_c, 0, 64, 88
1, 314376, Note_off_c, 0, 63, 58
1, 314376, Control_c, 0, 64, 87
1, 314386, Note_on_c, 0, 65, 59
1, 314390, Control_c, 0, 64, 86
1, 314405, Control_c, 0, 64, 84
1, 314420, Control_c, 0, 64, 82
1, 314435, Control_c, 0, 64, 79
1, 314450, Control_c, 0, 64, 76
1, 314464, Control_c, 0, 64, 74
1, 314480, Control_c, 0, 64, 72
1, 314495, Control_c, 0, 64, 69
1, 314503, Note_on_c, 0, 67, 55
1, 314515, Note_off_c, 0, 65, 57
1, 314518, Control_c, 0, 64, 65
1, 314532, Control_c, 0, 64, 59
1, 314547, Control_c, 0, 64, 42
1, 314562, Control_c, 0, 64, 0
1, 314592, Control_c, 0, 64, 10
1, 314643, Note_on_c, 0, 60, 48
1, 314651, Control_c, 0, 64, 16
1, 314666, Control_c, 0, 64, 20
1, 314681, Control_c, 0, 64, 21
1, 314695, Control_c, 0, 64, 25
1, 314710, Control_c, 0, 64, 28
1, 314725, Control_c, 0, 64, 31
1, 314733, Note_off_c, 0, 60, 55
1, 314739, Control_c, 0, 64, 32
1, 314754, Control_c, 0, 64, 35
1, 314769, Control_c, 0, 64, 38
1, 314783, Note_on_c, 0, 51, 58
1, 314784, Control_c, 0, 64, 43
1, 314798, Note_off_c, 0, 67, 19
1, 314799, Control_c, 0, 64, 47
1, 314813, Control_c, 0, 64, 51
1, 314828, Control_c, 0, 64, 54
1, 314843, Control_c, 0, 64, 56
1, 314858, Control_c, 0, 64, 59
1, 314873, Control_c, 0, 64, 61
1, 314887, Control_c, 0, 64, 62
1, 314902, Control_c, 0, 64, 64
1, 314911, Note_on_c, 0, 53, 58
1, 314918, Control_c, 0, 64, 64
1, 314920, Note_off_c, 0, 51, 59
1, 314932, Control_c, 0, 64, 65
1, 314947, Control_c, 0, 64, 65
1, 314962, Control_c, 0, 64, 66
1, 314977, Control_c, 0, 64, 67
1, 315040, Note_off_c, 0, 53, 62
1, 315047, Note_on_c, 0, 55, 56
1, 315051, Control_c, 0, 64, 67
1, 315170, Control_c, 0, 64, 66
1, 315171, Note_off_c, 0, 55, 65
1, 315179, Note_on_c, 0, 48, 64
1, 315185, Control_c, 0, 64, 66
1, 315200, Control_c, 0, 64, 64
1, 315206, Note_off_c, 0, 48, 67
1, 315214, Control_c, 0, 64, 63
1, 315229, Control_c, 0, 64, 61
1, 315244, Control_c, 0, 64, 58
1, 315266, Control_c, 0, 64, 47
1, 315281, Control_c, 0, 64, 0
1, 315415, Note_on_c, 0, 84, 83
1, 315419, Note_on_c, 0, 72, 95
1, 315419, Note_on_c, 0, 75, 88
1, 315421, Note_on_c, 0, 48, 101
1, 315424, Note_on_c, 0, 36, 82
1, 315426, Note_on_c, 0, 39, 84
1, 315430, Note_on_c, 0, 79, 70
1, 315430, Control_c, 0, 64, 71
1, 315433, Note_on_c, 0, 43, 73
1, 315444, Note_off_c, 0, 48, 69
1, 315445, Control_c, 0, 64, 127
1, 315452, Note_off_c, 0, 36, 65
1, 315454, Note_off_c, 0, 79, 67
1, 315454, Note_off_c, 0, 84, 61
1, 315457, Note_off_c, 0, 39, 65
1, 315457, Note_off_c, 0, 43, 60
1, 315477, Note_off_c, 0, 75, 65
1, 315553, Note_off_c, 0, 72, 59
1, 315681, Control_c, 0, 64, 127
1, 315682, Note_on_c, 0, 79, 82
1, 315684, Note_on_c, 0, 60, 72
1, 315692, Note_on_c, 0, 75, 72
1, 315692, Note_on_c, 0, 63, 63
1, 315696, Control_c, 0, 64, 108
1, 315711, Control_c, 0, 64, 99
1, 315718, Note_off_c, 0, 75, 68
1, 315726, Note_off_c, 0, 63, 65
1, 315726, Control_c, 0, 64, 91
1, 315735, Note_off_c, 0, 60, 59
1, 315741, Control_c, 0, 64, 84
1, 315746, Note_off_c, 0, 79, 60
1, 315755, Control_c, 0, 64, 76
1, 315770, Control_c, 0, 64, 70
1, 315785, Note_on_c, 0, 77, 91
1, 315785, Control_c, 0, 64, 62
1, 315787, Note_on_c, 0, 62, 78
1, 315787, Note_on_c, 0, 65, 78
1, 315794, Note_on_c, 0, 74, 83
1, 315800, Control_c, 0, 64, 0
1, 315814, Note_off_c, 0, 74, 70
1, 315826, Note_off_c, 0, 65, 65
1, 315837, Note_off_c, 0, 62, 61
1, 315837, Note_off_c, 0, 77, 63
1, 315901, Note_on_c, 0, 67, 93
1, 315908, Note_on_c, 0, 63, 83
1, 315910, Note_on_c, 0, 75, 92
1, 315911, Note_on_c, 0, 72, 86
1, 315930, Note_off_c, 0, 72, 72
1, 315933, Note_on_c, 0, 78, 47
1, 315935, Note_off_c, 0, 63, 65
1, 315936, Note_off_c, 0, 67, 65
1, 315951, Note_off_c, 0, 75, 68
1, 315956, Note_off_c, 0, 78, 53
1, 316155, Note_on_c, 0, 79, 92
1, 316162, Note_on_c, 0, 75, 88
1, 316163, Note_on_c, 0, 60, 85
1, 316184, Note_off_c, 0, 75, 67
1, 316190, Note_on_c, 0, 62, 51
1, 316196, Note_off_c, 0, 79, 66
1, 316205, Note_off_c, 0, 60, 62
1, 316216, Note_off_c, 0, 62, 55
1, 316396, Note_on_c, 0, 77, 94
1, 316398, Note_on_c, 0, 74, 92
1, 316402, Note_on_c, 0, 65, 86
1, 316404, Note_on_c, 0, 62, 82
1, 316427, Note_off_c, 0, 74, 66
1, 316440, Note_off_c, 0, 65, 62
1, 316442, Note_off_c, 0, 77, 63
1, 316443, Note_off_c, 0, 62, 60
1, 316616, Note_on_c, 0, 75, 82
1, 316617, Note_on_c, 0, 72, 70
1, 316622, Note_on_c, 0, 67, 71
1, 316625, Note_on_c, 0, 63, 78
1, 316643, Note_off_c, 0, 72, 69
1, 316649, Note_off_c, 0, 67, 68
1, 316651, Note_off_c, 0, 63, 69
1, 316671, Note_off_c, 0, 75, 65
1, 316858, Note_on_c, 0, 74, 97
1, 316858, Note_on_c, 0, 86, 89
1, 316875, Note_on_c, 0, 55, 90
1, 316881, Note_on_c, 0, 43, 80
1, 316882, Control_c, 0, 64, 95
1, 316890, Note_off_c, 0, 74, 69
1, 316893, Note_off_c, 0, 86, 67
1, 316898, Note_off_c, 0, 55, 71
1, 316898, Control_c, 0, 64, 127
1, 316906, Note_off_c, 0, 43, 65
1, 317090, Note_on_c, 0, 74, 90
1, 317104, Note_on_c, 0, 71, 73
1, 317105, Note_on_c, 0, 59, 69
1, 317105, Control_c, 0, 64, 122
1, 317109, Note_on_c, 0, 55, 70
1, 317120, Control_c, 0, 64, 106
1, 317123, Note_off_c, 0, 71, 67
1, 317132, Note_off_c, 0, 59, 66
1, 317135, Control_c, 0, 64, 96
1, 317138, Note_off_c, 0, 55, 57
1, 317138, Note_off_c, 0, 74, 68
1, 317150, Control_c, 0, 64, 87
1, 317165, Control_c, 0, 64, 79
1, 317179, Control_c, 0, 64, 71
1, 317194, Control_c, 0, 64, 53
1, 317195, Note_on_c, 0, 72, 84
1, 317197, Note_on_c, 0, 69, 87
1, 317202, Note_on_c, 0, 60, 81
1, 317204, Note_on_c, 0, 57, 74
1, 317209, Control_c, 0, 64, 0
1, 317229, Note_off_c, 0, 69, 67
1, 317239, Note_off_c, 0, 57, 63
1, 317242, Note_off_c, 0, 60, 62
1, 317242, Note_off_c, 0, 72, 64
1, 317311, Note_on_c, 0, 71, 97
1, 317315, Note_on_c, 0, 67, 90
1, 317318, Note_on_c, 0, 62, 89
1, 317320, Note_on_c, 0, 59, 84
1, 317334, Note_off_c, 0, 67, 71
1, 317343, Note_off_c, 0, 59, 67
1, 317348, Note_off_c, 0, 62, 65
1, 317349, Note_off_c, 0, 71, 65
1, 317562, Note_on_c, 0, 74, 99
1, 317566, Note_on_c, 0, 59, 86
1, 317566, Note_on_c, 0, 71, 90
1, 317569, Note_on_c, 0, 55, 81
1, 317588, Note_off_c, 0, 71, 66
1, 317602, Note_off_c, 0, 59, 66
1, 317603, Note_off_c, 0, 74, 68
1, 317608, Note_off_c, 0, 55, 67
1, 317796, Note_on_c, 0, 72, 95
1, 317797, Note_on_c, 0, 69, 95
1, 317800, Note_on_c, 0, 60, 89
1, 317804, Note_on_c, 0, 57, 81
1, 317820, Note_off_c, 0, 69, 69
1, 317835, Note_off_c, 0, 60, 61
1, 317837, Note_off_c, 0, 57, 60
1, 317838, Note_off_c, 0, 72, 66
1, 317943, Control_c, 0, 64, 23
1, 317958, Control_c, 0, 64, 34
1, 317972, Control_c, 0, 64, 37
1, 317987, Control_c, 0, 64, 38
1, 318011, Note_on_c, 0, 67, 78
1, 318016, Note_on_c, 0, 71, 82
1, 318017, Control_c, 0, 64, 36
1, 318018, Note_on_c, 0, 59, 83
1, 318022, Note_on_c, 0, 62, 73
1, 318032, Control_c, 0, 64, 28
1, 318035, Note_off_c, 0, 67, 69
1, 318046, Note_off_c, 0, 59, 68
1, 318047, Control_c, 0, 64, 0
1, 318049, Note_off_c, 0, 62, 66
1, 318053, Note_off_c, 0, 71, 64
1, 318250, Note_on_c, 0, 88, 85
1, 318250, Note_on_c, 0, 76, 88
1, 318273, Note_on_c, 0, 48, 94
1, 318276, Note_off_c, 0, 88, 69
1, 318276, Control_c, 0, 64, 65
1, 318279, Note_on_c, 0, 36, 83
1, 318291, Control_c, 0, 64, 127
1, 318294, Note_off_c, 0, 48, 74
1, 318295, Note_off_c, 0, 76, 69
1, 318299, Note_off_c, 0, 36, 67
1, 318500, Note_on_c, 0, 73, 87
1, 318505, Note_on_c, 0, 58, 72
1, 318518, Note_on_c, 0, 55, 68
1, 318523, Note_on_c, 0, 70, 58
1, 318542, Note_off_c, 0, 70, 63
1, 318544, Control_c, 0, 64, 116
1, 318554, Note_off_c, 0, 73, 66
1, 318559, Control_c, 0, 64, 101
1, 318563, Note_off_c, 0, 58, 63
1, 318574, Control_c, 0, 64, 90
1, 318583, Note_off_c, 0, 55, 63
1, 318588, Control_c, 0, 64, 80
1, 318603, Control_c, 0, 64, 70
1, 318608, Note_on_c, 0, 68, 91
1, 318613, Note_on_c, 0, 60, 83
1, 318613, Note_on_c, 0, 72, 84
1, 318618, Control_c, 0, 64, 58
1, 318624, Note_on_c, 0, 56, 70
1, 318633, Control_c, 0, 64, 0
1, 318652, Note_off_c, 0, 68, 62
1, 318655, Note_off_c, 0, 72, 63
1, 318659, Note_off_c, 0, 56, 62
1, 318661, Note_off_c, 0, 60, 63
1, 318731, Note_on_c, 0, 70, 93
1, 318733, Note_on_c, 0, 67, 91
1, 318734, Note_on_c, 0, 61, 89
1, 318745, Note_on_c, 0, 58, 69
1, 318769, Note_off_c, 0, 61, 62
1, 318770, Note_off_c, 0, 67, 62
1, 318774, Note_off_c, 0, 58, 64
1, 318804, Note_off_c, 0, 70, 59
1, 318962, Note_on_c, 0, 73, 93
1, 318965, Note_on_c, 0, 55, 75
1, 318969, Note_on_c, 0, 58, 87
1, 318970, Note_on_c, 0, 70, 86
1, 319010, Note_off_c, 0, 70, 63
1, 319020, Note_off_c, 0, 58, 67
1, 319021, Note_off_c, 0, 73, 65
1, 319022, Note_off_c, 0, 55, 66
1, 319205, Note_on_c, 0, 72, 94
1, 319207, Note_on_c, 0, 68, 89
1, 319214, Note_on_c, 0, 60, 86
1, 319215, Note_on_c, 0, 56, 83
1, 319239, Note_off_c, 0, 68, 64
1, 319242, Note_off_c, 0, 60, 64
1, 319253, Note_off_c, 0, 72, 65
1, 319260, Note_off_c, 0, 56, 63
1, 319421, Note_on_c, 0, 67, 79
1, 319421, Note_on_c, 0, 70, 85
1, 319429, Note_on_c, 0, 61, 81
1, 319436, Note_on_c, 0, 58, 74
1, 319444, Note_off_c, 0, 67, 69
1, 319451, Note_off_c, 0, 61, 69
1, 319461, Note_off_c, 0, 58, 67
1, 319469, Note_off_c, 0, 70, 67
1, 319662, Note_on_c, 0, 89, 96
1, 319665, Note_on_c, 0, 77, 94
1, 319672, Note_on_c, 0, 53, 92
1, 319677, Control_c, 0, 64, 41
1, 319679, Note_on_c, 0, 41, 85
1, 319687, Note_off_c, 0, 77, 66
1, 319691, Note_off_c, 0, 89, 69
1, 319692, Control_c, 0, 64, 127
1, 319694, Note_off_c, 0, 53, 72
1, 319704, Note_off_c, 0, 41, 68
1, 319906, Note_on_c, 0, 72, 77
1, 319912, Note_on_c, 0, 68, 74
1, 319914, Note_on_c, 0, 53, 79
1, 319919, Note_on_c, 0, 56, 62
1, 319936, Note_off_c, 0, 68, 70
1, 319947, Note_off_c, 0, 56, 65
1, 319952, Control_c, 0, 64, 117
1, 319953, Note_off_c, 0, 72, 62
1, 319962, Note_off_c, 0, 53, 63
1, 319967, Control_c, 0, 64, 99
1, 319982, Control_c, 0, 64, 87
1, 319996, Control_c, 0, 64, 76
1, 320006, Note_on_c, 0, 67, 85
1, 320007, Note_on_c, 0, 55, 77
1, 320008, Note_on_c, 0, 70, 89
1, 320011, Control_c, 0, 64, 65
1, 320014, Note_on_c, 0, 58, 76
1, 320026, Control_c, 0, 64, 0
1, 320032, Note_off_c, 0, 67, 65
1, 320041, Note_off_c, 0, 58, 66
1, 320051, Note_off_c, 0, 55, 66
1, 320055, Note_off_c, 0, 70, 64
1, 320120, Note_on_c, 0, 68, 96
1, 320121, Note_on_c, 0, 65, 94
1, 320125, Note_on_c, 0, 60, 87
1, 320126, Note_on_c, 0, 56, 80
1, 320144, Note_off_c, 0, 65, 70
1, 320152, Note_off_c, 0, 60, 64
1, 320161, Note_off_c, 0, 56, 62
1, 320161, Note_off_c, 0, 68, 65
1, 320353, Note_on_c, 0, 72, 91
1, 320355, Note_on_c, 0, 53, 80
1, 320355, Note_on_c, 0, 56, 82
1, 320357, Note_on_c, 0, 68, 94
1, 320387, Note_off_c, 0, 68, 66
1, 320394, Note_off_c, 0, 53, 68
1, 320396, Note_off_c, 0, 72, 64
1, 320402, Note_off_c, 0, 56, 64
1, 320589, Note_on_c, 0, 67, 94
1, 320593, Note_on_c, 0, 70, 74
1, 320595, Note_on_c, 0, 55, 86
1, 320599, Note_on_c, 0, 58, 84
1, 320617, Note_on_c, 0, 71, 64
1, 320617, Note_off_c, 0, 70, 53
1, 320625, Note_off_c, 0, 67, 63
1, 320638, Note_off_c, 0, 55, 66
1, 320643, Note_off_c, 0, 71, 60
1, 320647, Note_off_c, 0, 58, 61
1, 320805, Note_on_c, 0, 68, 82
1, 320806, Note_on_c, 0, 65, 70
1, 320810, Note_on_c, 0, 60, 82
1, 320818, Note_on_c, 0, 56, 80
1, 320830, Note_off_c, 0, 60, 70
1, 320830, Note_off_c, 0, 65, 69
1, 320849, Note_off_c, 0, 56, 66
1, 320850, Note_off_c, 0, 68, 67
1, 321043, Note_on_c, 0, 90, 91
1, 321043, Note_on_c, 0, 78, 91
1, 321057, Note_on_c, 0, 50, 95
1, 321062, Note_on_c, 0, 38, 83
1, 321072, Control_c, 0, 64, 84
1, 321074, Note_off_c, 0, 78, 64
1, 321079, Note_off_c, 0, 50, 71
1, 321080, Note_off_c, 0, 90, 65
1, 321086, Note_off_c, 0, 38, 66
1, 321087, Control_c, 0, 64, 127
1, 321295, Note_on_c, 0, 72, 73
1, 321302, Note_on_c, 0, 75, 80
1, 321314, Note_on_c, 0, 57, 81
1, 321317, Note_on_c, 0, 60, 69
1, 321319, Note_off_c, 0, 72, 68
1, 321346, Control_c, 0, 64, 107
1, 321347, Note_off_c, 0, 60, 64
1, 321350, Note_off_c, 0, 75, 65
1, 321361, Control_c, 0, 64, 93
1, 321375, Control_c, 0, 64, 82
1, 321388, Note_off_c, 0, 57, 59
1, 321390, Control_c, 0, 64, 72
1, 321399, Note_on_c, 0, 74, 87
1, 321403, Note_on_c, 0, 71, 82
1, 321405, Control_c, 0, 64, 57
1, 321406, Note_on_c, 0, 59, 63
1, 321411, Note_on_c, 0, 62, 70
1, 321420, Control_c, 0, 64, 0
1, 321430, Note_off_c, 0, 71, 60
1, 321449, Note_off_c, 0, 74, 64
1, 321466, Note_off_c, 0, 59, 63
1, 321466, Note_off_c, 0, 62, 60
1, 321504, Note_on_c, 0, 72, 95
1, 321514, Note_on_c, 0, 63, 91
1, 321515, Note_on_c, 0, 69, 86
1, 321525, Note_on_c, 0, 60, 76
1, 321539, Note_off_c, 0, 69, 65
1, 321545, Note_off_c, 0, 63, 63
1, 321560, Note_off_c, 0, 60, 58
1, 321569, Note_off_c, 0, 72, 60
1, 321738, Note_on_c, 0, 75, 91
1, 321744, Note_on_c, 0, 72, 88
1, 321749, Note_on_c, 0, 57, 79
1, 321749, Note_on_c, 0, 60, 83
1, 321775, Note_off_c, 0, 72, 68
1, 321791, Note_off_c, 0, 75, 69
1, 321793, Note_off_c, 0, 60, 64
1, 321794, Note_off_c, 0, 57, 65
1, 321973, Note_on_c, 0, 74, 97
1, 321974, Note_on_c, 0, 71, 94
1, 321984, Note_on_c, 0, 62, 88
1, 321985, Note_on_c, 0, 59, 81
1, 322013, Note_off_c, 0, 71, 63
1, 322022, Note_off_c, 0, 62, 66
1, 322024, Note_off_c, 0, 74, 67
1, 322034, Note_off_c, 0, 59, 62
1, 322110, Control_c, 0, 64, 21
1, 322125, Control_c, 0, 64, 34
1, 322140, Control_c, 0, 64, 42
1, 322155, Control_c, 0, 64, 46
1, 322170, Control_c, 0, 64, 49
1, 322184, Control_c, 0, 64, 50
1, 322191, Note_on_c, 0, 69, 81
1, 322199, Note_on_c, 0, 72, 89
1, 322199, Control_c, 0, 64, 51
1, 322201, Note_on_c, 0, 63, 81
1, 322205, Note_on_c, 0, 60, 83
1, 322214, Note_off_c, 0, 69, 70
1, 322214, Control_c, 0, 64, 51
1, 322226, Note_off_c, 0, 63, 69
1, 322232, Note_off_c, 0, 60, 67
1, 322236, Note_off_c, 0, 72, 67
1, 322244, Control_c, 0, 64, 51
1, 322259, Control_c, 0, 64, 48
1, 322274, Control_c, 0, 64, 23
1, 322289, Control_c, 0, 64, 0
1, 322430, Note_on_c, 0, 91, 91
1, 322435, Control_c, 0, 64, 72
1, 322438, Note_on_c, 0, 79, 77
1, 322444, Note_on_c, 0, 55, 89
1, 322447, Note_on_c, 0, 43, 79
1, 322450, Control_c, 0, 64, 87
1, 322459, Note_off_c, 0, 79, 68
1, 322465, Control_c, 0, 64, 101
1, 322468, Note_off_c, 0, 55, 69
1, 322474, Note_off_c, 0, 43, 65
1, 322480, Control_c, 0, 64, 107
1, 322495, Control_c, 0, 64, 111
1, 322499, Note_off_c, 0, 91, 61
1, 322510, Control_c, 0, 64, 114
1, 322525, Control_c, 0, 64, 119
1, 322540, Control_c, 0, 64, 127
1, 322694, Note_on_c, 0, 86, 75
1, 322708, Note_on_c, 0, 89, 64
1, 322715, Note_on_c, 0, 80, 78
1, 322728, Note_on_c, 0, 88, 48
1, 322732, Note_off_c, 0, 86, 62
1, 322740, Note_on_c, 0, 76, 61
1, 322740, Note_on_c, 0, 77, 58
1, 322753, Note_off_c, 0, 80, 61
1, 322759, Note_off_c, 0, 89, 63
1, 322760, Note_off_c, 0, 88, 36
1, 322778, Note_off_c, 0, 76, 62
1, 322799, Control_c, 0, 64, 115
1, 322809, Note_on_c, 0, 75, 72
1, 322809, Note_on_c, 0, 87, 77
1, 322811, Note_on_c, 0, 91, 81
1, 322814, Control_c, 0, 64, 103
1, 322828, Control_c, 0, 64, 92
1, 322838, Note_off_c, 0, 77, 52
1, 322843, Control_c, 0, 64, 76
1, 322852, Note_on_c, 0, 79, 32
1, 322858, Control_c, 0, 64, 62
1, 322860, Note_off_c, 0, 87, 59
1, 322865, Note_off_c, 0, 91, 59
1, 322873, Control_c, 0, 64, 0
1, 322880, Note_off_c, 0, 79, 48
1, 322882, Note_off_c, 0, 75, 63
1, 322910, Note_on_c, 0, 89, 80
1, 322912, Note_on_c, 0, 92, 88
1, 322914, Note_on_c, 0, 77, 75
1, 322918, Control_c, 0, 64, 69
1, 322925, Note_on_c, 0, 74, 77
1, 322933, Control_c, 0, 64, 87
1, 322933, Note_on_c, 0, 91, 21
1, 322944, Note_off_c, 0, 89, 67
1, 322948, Control_c, 0, 64, 107
1, 322950, Note_off_c, 0, 77, 62
1, 322951, Note_off_c, 0, 74, 65
1, 322955, Note_off_c, 0, 92, 66
1, 322962, Control_c, 0, 64, 117
1, 322975, Note_off_c, 0, 91, 30
1, 322977, Control_c, 0, 64, 118
1, 323066, Control_c, 0, 64, 119
1, 323125, Control_c, 0, 64, 118
1, 323143, Note_on_c, 0, 86, 88
1, 323147, Note_on_c, 0, 74, 79
1, 323151, Note_on_c, 0, 83, 72
1, 323166, Note_on_c, 0, 77, 54
1, 323174, Note_off_c, 0, 83, 68
1, 323184, Note_off_c, 0, 86, 65
1, 323184, Control_c, 0, 64, 118
1, 323186, Note_off_c, 0, 77, 61
1, 323199, Control_c, 0, 64, 117
1, 323205, Note_off_c, 0, 74, 61
1, 323214, Control_c, 0, 64, 114
1, 323228, Control_c, 0, 64, 111
1, 323233, Note_on_c, 0, 87, 87
1, 323243, Control_c, 0, 64, 107
1, 323246, Note_on_c, 0, 72, 76
1, 323258, Control_c, 0, 64, 102
1, 323272, Note_on_c, 0, 75, 52
1, 323274, Control_c, 0, 64, 95
1, 323289, Note_off_c, 0, 87, 65
1, 323289, Control_c, 0, 64, 84
1, 323303, Note_off_c, 0, 72, 63
1, 323303, Control_c, 0, 64, 69
1, 323305, Note_off_c, 0, 75, 59
1, 323318, Control_c, 0, 64, 0
1, 323352, Note_on_c, 0, 89, 97
1, 323363, Note_on_c, 0, 71, 75
1, 323363, Control_c, 0, 64, 18
1, 323374, Note_on_c, 0, 74, 46
1, 323377, Control_c, 0, 64, 70
1, 323383, Note_off_c, 0, 71, 68
1, 323391, Note_off_c, 0, 89, 66
1, 323392, Control_c, 0, 64, 85
1, 323397, Note_off_c, 0, 74, 59
1, 323407, Control_c, 0, 64, 109
1, 323422, Control_c, 0, 64, 126
1, 323437, Control_c, 0, 64, 127
1, 323597, Note_on_c, 0, 77, 83
1, 323607, Note_on_c, 0, 74, 67
1, 323611, Note_on_c, 0, 68, 63
1, 323621, Note_on_c, 0, 65, 70
1, 323633, Note_off_c, 0, 74, 70
1, 323651, Note_off_c, 0, 68, 62
1, 323654, Note_off_c, 0, 77, 58
1, 323671, Note_on_c, 0, 63, 57
1, 323681, Control_c, 0, 64, 126
1, 323692, Note_on_c, 0, 75, 76
1, 323696, Control_c, 0, 64, 118
1, 323697, Note_on_c, 0, 79, 74
1, 323711, Control_c, 0, 64, 111
1, 323726, Control_c, 0, 64, 104
1, 323728, Note_on_c, 0, 67, 39
1, 323740, Control_c, 0, 64, 94
1, 323749, Note_off_c, 0, 75, 62
1, 323752, Note_off_c, 0, 65, 56
1, 323755, Control_c, 0, 64, 81
1, 323760, Note_off_c, 0, 67, 51
1, 323760, Note_off_c, 0, 79, 58
1, 323765, Note_off_c, 0, 63, 62
1, 323770, Control_c, 0, 64, 65
1, 323785, Control_c, 0, 64, 0
1, 323802, Note_on_c, 0, 65, 62
1, 323809, Note_on_c, 0, 80, 86
1, 323812, Note_on_c, 0, 62, 79
1, 323813, Note_on_c, 0, 77, 83
1, 323829, Control_c, 0, 64, 65
1, 323838, Note_off_c, 0, 65, 68
1, 323838, Note_off_c, 0, 77, 61
1, 323844, Control_c, 0, 64, 79
1, 323850, Note_off_c, 0, 62, 64
1, 323857, Note_off_c, 0, 80, 64
1, 323859, Control_c, 0, 64, 98
1, 323874, Control_c, 0, 64, 121
1, 323889, Control_c, 0, 64, 127
1, 324033, Note_on_c, 0, 74, 83
1, 324035, Note_on_c, 0, 62, 78
1, 324036, Note_on_c, 0, 65, 80
1, 324041, Note_on_c, 0, 71, 69
1, 324067, Note_off_c, 0, 71, 68
1, 324083, Note_off_c, 0, 65, 62
1, 324083, Note_off_c, 0, 74, 64
1, 324097, Control_c, 0, 64, 125
1, 324112, Control_c, 0, 64, 119
1, 324120, Note_off_c, 0, 62, 49
1, 324126, Control_c, 0, 64, 113
1, 324128, Note_on_c, 0, 75, 84
1, 324141, Control_c, 0, 64, 105
1, 324152, Note_on_c, 0, 60, 64
1, 324156, Control_c, 0, 64, 94
1, 324164, Note_on_c, 0, 63, 50
1, 324171, Control_c, 0, 64, 78
1, 324182, Note_off_c, 0, 75, 65
1, 324186, Control_c, 0, 64, 57
1, 324200, Control_c, 0, 64, 0
1, 324202, Note_off_c, 0, 63, 50
1, 324208, Note_off_c, 0, 60, 57
1, 324247, Note_on_c, 0, 77, 94
1, 324253, Control_c, 0, 64, 52
1, 324265, Note_on_c, 0, 62, 67
1, 324266, Note_on_c, 0, 59, 74
1, 324268, Control_c, 0, 64, 75
1, 324282, Control_c, 0, 64, 92
1, 324286, Note_off_c, 0, 62, 64
1, 324289, Note_off_c, 0, 77, 65
1, 324291, Note_off_c, 0, 59, 67
1, 324297, Control_c, 0, 64, 117
1, 324312, Control_c, 0, 64, 127
1, 324476, Note_on_c, 0, 65, 83
1, 324489, Note_on_c, 0, 56, 71
1, 324498, Note_on_c, 0, 59, 58
1, 324518, Note_off_c, 0, 59, 61
1, 324536, Note_off_c, 0, 56, 62
1, 324581, Note_on_c, 0, 68, 80
1, 324586, Note_on_c, 0, 53, 72
1, 324590, Note_on_c, 0, 59, 56
1, 324593, Control_c, 0, 64, 120
1, 324607, Note_off_c, 0, 65, 50
1, 324608, Control_c, 0, 64, 109
1, 324615, Note_off_c, 0, 53, 69
1, 324616, Note_off_c, 0, 59, 56
1, 324623, Control_c, 0, 64, 96
1, 324638, Control_c, 0, 64, 79
1, 324645, Note_off_c, 0, 68, 62
1, 324652, Control_c, 0, 64, 0
1, 324689, Note_on_c, 0, 67, 90
1, 324692, Note_on_c, 0, 59, 78
1, 324712, Note_on_c, 0, 50, 72
1, 324712, Control_c, 0, 64, 72
1, 324721, Note_off_c, 0, 59, 64
1, 324726, Control_c, 0, 64, 90
1, 324741, Control_c, 0, 64, 126
1, 324749, Note_off_c, 0, 67, 62
1, 324756, Control_c, 0, 64, 127
1, 324758, Note_off_c, 0, 50, 60
1, 324859, Control_c, 0, 64, 127
1, 324875, Control_c, 0, 64, 119
1, 324890, Control_c, 0, 64, 114
1, 324905, Control_c, 0, 64, 110
1, 324912, Note_on_c, 0, 47, 77
1, 324919, Note_on_c, 0, 67, 77
1, 324920, Control_c, 0, 64, 107
1, 324924, Note_on_c, 0, 65, 72
1, 324935, Control_c, 0, 64, 103
1, 324937, Note_on_c, 0, 62, 56
1, 324949, Control_c, 0, 64, 99
1, 324959, Note_off_c, 0, 62, 58
1, 324959, Note_off_c, 0, 65, 58
1, 324964, Control_c, 0, 64, 95
1, 324968, Note_off_c, 0, 67, 60
1, 324970, Note_off_c, 0, 47, 65
1, 324979, Control_c, 0, 64, 91
1, 325001, Control_c, 0, 64, 86
1, 325016, Control_c, 0, 64, 78
1, 325022, Note_on_c, 0, 43, 78
1, 325030, Note_on_c, 0, 62, 76
1, 325031, Control_c, 0, 64, 68
1, 325045, Note_on_c, 0, 71, 55
1, 325046, Control_c, 0, 64, 0
1, 325060, Note_off_c, 0, 62, 64
1, 325064, Note_off_c, 0, 43, 63
1, 325073, Note_off_c, 0, 71, 63
1, 325147, Note_on_c, 0, 60, 92
1, 325148, Note_on_c, 0, 72, 91
1, 325149, Control_c, 0, 64, 62
1, 325150, Note_on_c, 0, 48, 90
1, 325163, Note_on_c, 0, 63, 69
1, 325164, Control_c, 0, 64, 86
1, 325179, Control_c, 0, 64, 109
1, 325194, Control_c, 0, 64, 124
1, 325211, Note_off_c, 0, 48, 65
1, 325211, Note_off_c, 0, 63, 0
1, 325226, Note_on_c, 0, 63, 39
1, 325253, Control_c, 0, 64, 125
1, 325256, Note_off_c, 0, 60, 55
1, 325267, Control_c, 0, 64, 127
1, 325269, Note_off_c, 0, 72, 61
1, 325270, Note_off_c, 0, 63, 58
1, 325359, Note_on_c, 0, 60, 89
1, 325365, Note_on_c, 0, 48, 82
1, 325368, Note_on_c, 0, 72, 83
1, 325371, Control_c, 0, 64, 125
1, 325386, Control_c, 0, 64, 114
1, 325395, Note_off_c, 0, 60, 56
1, 325401, Control_c, 0, 64, 102
1, 325403, Note_off_c, 0, 72, 60
1, 325416, Control_c, 0, 64, 86
1, 325418, Note_off_c, 0, 48, 65
1, 325431, Control_c, 0, 64, 68
1, 325446, Control_c, 0, 64, 0
1, 325463, Note_on_c, 0, 43, 77
1, 325466, Note_on_c, 0, 62, 87
1, 325469, Note_on_c, 0, 71, 83
1, 325490, Note_off_c, 0, 62, 67
1, 325514, Note_off_c, 0, 71, 60
1, 325533, Note_off_c, 0, 43, 62
1, 325577, Note_on_c, 0, 36, 85
1, 325587, Note_on_c, 0, 63, 95
1, 325589, Note_on_c, 0, 75, 89
1, 325609, Control_c, 0, 64, 96
1, 325612, Note_off_c, 0, 63, 64
1, 325614, Note_on_c, 0, 73, 45
1, 325620, Note_off_c, 0, 75, 67
1, 325623, Control_c, 0, 64, 127
1, 325630, Note_off_c, 0, 36, 65
1, 325640, Note_off_c, 0, 73, 35
1, 325832, Note_on_c, 0, 36, 78
1, 325835, Note_on_c, 0, 67, 85
1, 325837, Note_on_c, 0, 79, 88
1, 325858, Note_off_c, 0, 67, 67
1, 325883, Note_off_c, 0, 79, 65
1, 325886, Note_off_c, 0, 36, 66
1, 325898, Control_c, 0, 64, 105
1, 325913, Control_c, 0, 64, 92
1, 325928, Control_c, 0, 64, 77
1, 325929, Note_on_c, 0, 31, 81
1, 325943, Control_c, 0, 64, 58
1, 325952, Note_on_c, 0, 83, 88
1, 325954, Note_on_c, 0, 71, 83
1, 325958, Control_c, 0, 64, 0
1, 325967, Note_on_c, 0, 74, 54
1, 325973, Note_off_c, 0, 71, 69
1, 325988, Note_off_c, 0, 74, 64
1, 325991, Note_off_c, 0, 31, 63
1, 326001, Note_off_c, 0, 83, 59
1, 326092, Note_on_c, 0, 84, 93
1, 326093, Note_on_c, 0, 72, 96
1, 326104, Note_on_c, 0, 75, 78
1, 326105, Note_on_c, 0, 36, 87
1, 326135, Control_c, 0, 64, 79
1, 326150, Control_c, 0, 64, 127
1, 326153, Note_off_c, 0, 36, 64
1, 326199, Note_off_c, 0, 72, 48
1, 326203, Note_off_c, 0, 84, 60
1, 326266, Note_off_c, 0, 75, 62
1, 326528, Control_c, 0, 64, 116
1, 326543, Control_c, 0, 64, 99
1, 326558, Control_c, 0, 64, 85
1, 326573, Control_c, 0, 64, 69
1, 326574, Note_on_c, 0, 48, 107
1, 326578, Note_on_c, 0, 36, 86
1, 326580, Note_on_c, 0, 39, 88
1, 326581, Note_on_c, 0, 43, 90
1, 326588, Control_c, 0, 64, 0
1, 326706, Note_on_c, 0, 75, 71
1, 326708, Note_on_c, 0, 72, 75
1, 326708, Note_off_c, 0, 36, 62
1, 326725, Note_off_c, 0, 48, 61
1, 326748, Note_off_c, 0, 43, 61
1, 326748, Note_off_c, 0, 72, 63
1, 326759, Note_off_c, 0, 39, 62
1, 326769, Note_off_c, 0, 75, 63
1, 326811, Note_on_c, 0, 72, 74
1, 326818, Note_on_c, 0, 69, 75
1, 326843, Note_off_c, 0, 69, 68
1, 326856, Note_off_c, 0, 72, 61
1, 326913, Note_on_c, 0, 74, 85
1, 326916, Note_on_c, 0, 71, 76
1, 326952, Note_off_c, 0, 71, 59
1, 326969, Note_off_c, 0, 74, 66
1, 327020, Note_on_c, 0, 72, 91
1, 327023, Note_on_c, 0, 75, 90
1, 327085, Note_off_c, 0, 72, 58
1, 327129, Note_off_c, 0, 75, 69
1, 327136, Control_c, 0, 64, 21
1, 327139, Note_on_c, 0, 63, 89
1, 327146, Note_on_c, 0, 60, 73
1, 327151, Control_c, 0, 64, 29
1, 327166, Control_c, 0, 64, 31
1, 327181, Note_off_c, 0, 63, 63
1, 327195, Control_c, 0, 64, 30
1, 327195, Note_off_c, 0, 60, 58
1, 327210, Control_c, 0, 64, 28
1, 327225, Control_c, 0, 64, 25
1, 327246, Control_c, 0, 64, 18
1, 327254, Note_on_c, 0, 57, 82
1, 327259, Note_on_c, 0, 60, 63
1, 327261, Control_c, 0, 64, 0
1, 327295, Note_off_c, 0, 60, 62
1, 327324, Note_off_c, 0, 57, 62
1, 327361, Note_on_c, 0, 59, 76
1, 327362, Note_on_c, 0, 62, 81
1, 327403, Note_off_c, 0, 62, 62
1, 327418, Note_off_c, 0, 59, 62
1, 327479, Note_on_c, 0, 60, 97
1, 327481, Note_on_c, 0, 63, 89
1, 327484, Control_c, 0, 64, 18
1, 327499, Control_c, 0, 64, 25
1, 327506, Note_off_c, 0, 63, 68
1, 327514, Control_c, 0, 64, 27
1, 327519, Note_off_c, 0, 60, 67
1, 327529, Control_c, 0, 64, 28
1, 327559, Control_c, 0, 64, 29
1, 327566, Note_on_c, 0, 87, 88
1, 327577, Note_on_c, 0, 84, 78
1, 327616, Note_off_c, 0, 84, 63
1, 327643, Note_off_c, 0, 87, 63
1, 327648, Control_c, 0, 64, 27
1, 327663, Control_c, 0, 64, 25
1, 327677, Control_c, 0, 64, 21
1, 327687, Note_on_c, 0, 86, 93
1, 327692, Control_c, 0, 64, 10
1, 327707, Control_c, 0, 64, 0
1, 327742, Note_off_c, 0, 86, 62
1, 327780, Note_on_c, 0, 81, 74
1, 327780, Note_on_c, 0, 84, 100
1, 327810, Note_off_c, 0, 81, 63
1, 327811, Note_off_c, 0, 84, 69
1, 327908, Note_on_c, 0, 55, 101
1, 327909, Note_on_c, 0, 47, 96
1, 327910, Note_on_c, 0, 43, 85
1, 327910, Note_on_c, 0, 50, 95
1, 327914, Control_c, 0, 64, 82
1, 327929, Control_c, 0, 64, 127
1, 327978, Note_off_c, 0, 55, 63
1, 327995, Note_off_c, 0, 43, 61
1, 328008, Note_off_c, 0, 50, 62
1, 328018, Note_off_c, 0, 47, 64
1, 328027, Note_on_c, 0, 74, 79
1, 328029, Note_on_c, 0, 71, 81
1, 328060, Note_off_c, 0, 71, 58
1, 328079, Note_off_c, 0, 74, 64
1, 328141, Note_on_c, 0, 71, 82
1, 328150, Note_on_c, 0, 67, 78
1, 328176, Note_off_c, 0, 67, 66
1, 328191, Note_off_c, 0, 71, 63
1, 328204, Control_c, 0, 64, 121
1, 328219, Control_c, 0, 64, 109
1, 328234, Control_c, 0, 64, 101
1, 328248, Control_c, 0, 64, 93
1, 328252, Note_on_c, 0, 72, 93
1, 328255, Note_on_c, 0, 69, 84
1, 328263, Control_c, 0, 64, 84
1, 328278, Control_c, 0, 64, 76
1, 328283, Note_off_c, 0, 69, 67
1, 328292, Control_c, 0, 64, 64
1, 328299, Note_off_c, 0, 72, 66
1, 328307, Control_c, 0, 64, 0
1, 328357, Note_on_c, 0, 74, 93
1, 328358, Note_on_c, 0, 71, 93
1, 328414, Note_off_c, 0, 71, 57
1, 328450, Note_off_c, 0, 74, 66
1, 328468, Note_on_c, 0, 59, 81
1, 328469, Note_on_c, 0, 62, 84
1, 328504, Note_off_c, 0, 62, 63
1, 328520, Note_off_c, 0, 59, 62
1, 328573, Note_on_c, 0, 59, 76
1, 328577, Note_on_c, 0, 55, 85
1, 328620, Note_off_c, 0, 59, 63
1, 328635, Note_off_c, 0, 55, 66
1, 328679, Note_on_c, 0, 57, 86
1, 328681, Note_on_c, 0, 60, 82
1, 328719, Note_off_c, 0, 60, 60
1, 328729, Note_off_c, 0, 57, 63
1, 328804, Note_on_c, 0, 59, 99
1, 328807, Note_on_c, 0, 62, 97
1, 328818, Control_c, 0, 64, 26
1, 328832, Note_off_c, 0, 62, 67
1, 328833, Control_c, 0, 64, 34
1, 328841, Note_off_c, 0, 59, 68
1, 328848, Control_c, 0, 64, 36
1, 328864, Control_c, 0, 64, 38
1, 328879, Control_c, 0, 64, 39
1, 328909, Note_on_c, 0, 83, 91
1, 328909, Note_on_c, 0, 86, 87
1, 328909, Control_c, 0, 64, 39
1, 328953, Note_off_c, 0, 83, 60
1, 328966, Note_off_c, 0, 86, 63
1, 328968, Control_c, 0, 64, 39
1, 328983, Control_c, 0, 64, 37
1, 328997, Control_c, 0, 64, 35
1, 329012, Control_c, 0, 64, 32
1, 329020, Note_on_c, 0, 84, 93
1, 329027, Control_c, 0, 64, 10
1, 329031, Note_on_c, 0, 81, 77
1, 329041, Control_c, 0, 64, 0
1, 329055, Note_off_c, 0, 81, 61
1, 329080, Note_off_c, 0, 84, 64
1, 329124, Note_on_c, 0, 83, 85
1, 329126, Note_on_c, 0, 79, 78
1, 329148, Note_off_c, 0, 79, 68
1, 329154, Note_off_c, 0, 83, 64
1, 329231, Note_on_c, 0, 48, 106
1, 329234, Control_c, 0, 64, 116
1, 329235, Note_on_c, 0, 36, 86
1, 329236, Note_on_c, 0, 40, 94
1, 329236, Note_on_c, 0, 43, 96
1, 329249, Control_c, 0, 64, 127
1, 329322, Note_off_c, 0, 48, 62
1, 329323, Note_off_c, 0, 36, 63
1, 329337, Note_on_c, 0, 76, 87
1, 329345, Note_on_c, 0, 70, 78
1, 329353, Note_off_c, 0, 43, 61
1, 329364, Note_off_c, 0, 40, 61
1, 329379, Note_off_c, 0, 70, 54
1, 329395, Note_off_c, 0, 76, 63
1, 329454, Note_on_c, 0, 70, 84
1, 329462, Note_on_c, 0, 67, 77
1, 329468, Note_on_c, 0, 76, 61
1, 329493, Note_off_c, 0, 67, 69
1, 329516, Note_off_c, 0, 70, 62
1, 329516, Note_off_c, 0, 76, 63
1, 329571, Note_on_c, 0, 68, 86
1, 329572, Note_on_c, 0, 73, 43
1, 329573, Note_off_c, 0, 73, 127
1, 329574, Note_on_c, 0, 72, 82
1, 329597, Control_c, 0, 64, 115
1, 329612, Control_c, 0, 64, 101
1, 329615, Note_off_c, 0, 68, 63
1, 329616, Note_off_c, 0, 72, 61
1, 329627, Control_c, 0, 64, 89
1, 329641, Control_c, 0, 64, 76
1, 329656, Control_c, 0, 64, 65
1, 329671, Note_on_c, 0, 76, 72
1, 329672, Control_c, 0, 64, 0
1, 329676, Note_on_c, 0, 73, 84
1, 329679, Note_on_c, 0, 70, 90
1, 329785, Note_on_c, 0, 61, 85
1, 329792, Note_on_c, 0, 58, 75
1, 329816, Note_off_c, 0, 61, 65
1, 329822, Note_off_c, 0, 58, 66
1, 329834, Note_off_c, 0, 76, 60
1, 329856, Note_off_c, 0, 70, 58
1, 329884, Note_off_c, 0, 73, 59
1, 329899, Note_on_c, 0, 55, 82
1, 329905, Note_on_c, 0, 58, 77
1, 329935, Note_off_c, 0, 58, 64
1, 329956, Note_off_c, 0, 55, 65
1, 330003, Note_on_c, 0, 56, 83
1, 330004, Note_on_c, 0, 60, 80
1, 330030, Note_off_c, 0, 60, 64
1, 330057, Note_off_c, 0, 56, 64
1, 330072, Control_c, 0, 64, 10
1, 330087, Control_c, 0, 64, 25
1, 330102, Control_c, 0, 64, 34
1, 330111, Note_on_c, 0, 61, 100
1, 330117, Note_on_c, 0, 58, 94
1, 330117, Control_c, 0, 64, 43
1, 330132, Control_c, 0, 64, 48
1, 330146, Control_c, 0, 64, 52
1, 330160, Note_off_c, 0, 61, 63
1, 330161, Control_c, 0, 64, 53
1, 330176, Control_c, 0, 64, 54
1, 330178, Note_off_c, 0, 58, 65
1, 330212, Note_on_c, 0, 76, 80
1, 330219, Note_on_c, 0, 70, 83
1, 330276, Note_off_c, 0, 70, 58
1, 330300, Note_off_c, 0, 76, 58
1, 330331, Note_on_c, 0, 68, 89
1, 330340, Note_on_c, 0, 72, 71
1, 330346, Control_c, 0, 64, 55
1, 330367, Note_off_c, 0, 68, 64
1, 330373, Note_off_c, 0, 72, 60
1, 330376, Control_c, 0, 64, 54
1, 330390, Control_c, 0, 64, 49
1, 330405, Control_c, 0, 64, 0
1, 330433, Note_on_c, 0, 70, 89
1, 330449, Note_on_c, 0, 67, 67
1, 330459, Note_on_c, 0, 65, 50
1, 330480, Note_off_c, 0, 67, 63
1, 330486, Note_off_c, 0, 65, 36
1, 330528, Note_off_c, 0, 70, 62
1, 330554, Note_on_c, 0, 53, 101
1, 330557, Note_on_c, 0, 48, 96
1, 330560, Note_on_c, 0, 44, 91
1, 330561, Note_on_c, 0, 41, 85
1, 330569, Control_c, 0, 64, 94
1, 330584, Control_c, 0, 64, 127
1, 330601, Note_off_c, 0, 53, 68
1, 330614, Note_off_c, 0, 48, 66
1, 330620, Note_off_c, 0, 41, 65
1, 330629, Note_off_c, 0, 44, 63
1, 330660, Note_on_c, 0, 77, 75
1, 330663, Note_on_c, 0, 68, 86
1, 330673, Note_on_c, 0, 72, 69
1, 330691, Note_off_c, 0, 68, 61
1, 330701, Note_off_c, 0, 72, 66
1, 330725, Poly_aftertouch_c, 0, 74, 127
1, 330728, Note_off_c, 0, 77, 61
1, 330763, Poly_aftertouch_c, 0, 74, 0
1, 330778, Note_on_c, 0, 65, 91
1, 330820, Note_off_c, 0, 65, 66
1, 330835, Control_c, 0, 64, 117
1, 330850, Control_c, 0, 64, 104
1, 330865, Control_c, 0, 64, 94
1, 330877, Note_on_c, 0, 70, 92
1, 330880, Control_c, 0, 64, 85
1, 330885, Note_on_c, 0, 77, 53
1, 330890, Note_on_c, 0, 67, 64
1, 330895, Control_c, 0, 64, 77
1, 330909, Note_off_c, 0, 67, 62
1, 330910, Control_c, 0, 64, 69
1, 330924, Control_c, 0, 64, 56
1, 330934, Note_off_c, 0, 77, 57
1, 330939, Note_off_c, 0, 70, 61
1, 330939, Control_c, 0, 64, 0
1, 330990, Note_on_c, 0, 77, 68
1, 330991, Note_on_c, 0, 68, 98
1, 330995, Note_on_c, 0, 72, 82
1, 331091, Note_on_c, 0, 60, 82
1, 331094, Note_on_c, 0, 56, 74
1, 331106, Poly_aftertouch_c, 0, 74, 0
1, 331128, Note_off_c, 0, 60, 62
1, 331139, Note_off_c, 0, 56, 58
1, 331220, Note_on_c, 0, 53, 68
1, 331226, Note_on_c, 0, 56, 53
1, 331250, Note_off_c, 0, 56, 62
1, 331255, Note_off_c, 0, 53, 67
1, 331288, Control_c, 0, 64, 13
1, 331303, Control_c, 0, 64, 26
1, 331318, Control_c, 0, 64, 31
1, 331328, Note_on_c, 0, 55, 87
1, 331333, Control_c, 0, 64, 34
1, 331348, Control_c, 0, 64, 36
1, 331351, Note_on_c, 0, 58, 42
1, 331363, Control_c, 0, 64, 38
1, 331366, Note_off_c, 0, 77, 30
1, 331366, Note_off_c, 0, 72, 60
1, 331369, Note_off_c, 0, 55, 64
1, 331378, Control_c, 0, 64, 39
1, 331378, Note_off_c, 0, 58, 37
1, 331380, Note_off_c, 0, 68, 56
1, 331407, Control_c, 0, 64, 40
1, 331422, Control_c, 0, 64, 42
1, 331434, Note_on_c, 0, 60, 96
1, 331437, Note_on_c, 0, 56, 89
1, 331437, Control_c, 0, 64, 44
1, 331450, Note_on_c, 0, 59, 73
1, 331452, Control_c, 0, 64, 46
1, 331467, Control_c, 0, 64, 47
1, 331471, Note_off_c, 0, 59, 58
1, 331479, Note_off_c, 0, 60, 61
1, 331482, Control_c, 0, 64, 48
1, 331493, Note_on_c, 0, 55, 24
1, 331497, Control_c, 0, 64, 49
1, 331497, Note_off_c, 0, 56, 60
1, 331526, Control_c, 0, 64, 50
1, 331533, Note_off_c, 0, 55, 44
1, 331541, Control_c, 0, 64, 52
1, 331547, Note_on_c, 0, 68, 95
1, 331553, Note_on_c, 0, 77, 73
1, 331556, Control_c, 0, 64, 54
1, 331556, Note_on_c, 0, 72, 79
1, 331571, Control_c, 0, 64, 55
1, 331589, Note_off_c, 0, 68, 66
1, 331590, Note_off_c, 0, 72, 63
1, 331601, Note_off_c, 0, 77, 60
1, 331644, Control_c, 0, 64, 54
1, 331659, Control_c, 0, 64, 53
1, 331660, Note_on_c, 0, 77, 78
1, 331674, Note_on_c, 0, 65, 76
1, 331674, Control_c, 0, 64, 51
1, 331682, Note_on_c, 0, 67, 67
1, 331686, Note_on_c, 0, 75, 50
1, 331689, Control_c, 0, 64, 47
1, 331698, Note_off_c, 0, 65, 72
1, 331699, Note_off_c, 0, 67, 66
1, 331704, Control_c, 0, 64, 38
1, 331707, Note_off_c, 0, 75, 60
1, 331718, Control_c, 0, 64, 0
1, 331763, Note_on_c, 0, 65, 84
1, 331774, Note_on_c, 0, 68, 85
1, 331789, Note_off_c, 0, 65, 66
1, 331792, Note_off_c, 0, 77, 52
1, 331795, Note_off_c, 0, 68, 70
1, 331870, Note_on_c, 0, 50, 99
1, 331875, Note_on_c, 0, 42, 89
1, 331875, Note_on_c, 0, 45, 86
1, 331878, Note_on_c, 0, 38, 80
1, 331889, Control_c, 0, 64, 68
1, 331904, Control_c, 0, 64, 100
1, 331918, Control_c, 0, 64, 127
1, 331954, Note_off_c, 0, 38, 62
1, 331959, Note_off_c, 0, 50, 62
1, 331982, Note_off_c, 0, 45, 63
1, 331994, Note_on_c, 0, 72, 89
1, 332000, Note_off_c, 0, 42, 63
1, 332004, Note_on_c, 0, 78, 83
1, 332042, Note_off_c, 0, 72, 65
1, 332062, Note_off_c, 0, 78, 62
1, 332103, Note_on_c, 0, 72, 86
1, 332111, Note_on_c, 0, 69, 83
1, 332135, Note_off_c, 0, 69, 66
1, 332140, Note_on_c, 0, 78, 31
1, 332152, Note_off_c, 0, 72, 62
1, 332169, Note_off_c, 0, 78, 51
1, 332171, Control_c, 0, 64, 116
1, 332186, Control_c, 0, 64, 104
1, 332201, Control_c, 0, 64, 95
1, 332209, Note_on_c, 0, 74, 91
1, 332212, Note_on_c, 0, 71, 86
1, 332216, Control_c, 0, 64, 85
1, 332231, Control_c, 0, 64, 76
1, 332246, Control_c, 0, 64, 67
1, 332250, Note_off_c, 0, 71, 60
1, 332260, Control_c, 0, 64, 38
1, 332265, Note_off_c, 0, 74, 66
1, 332275, Control_c, 0, 64, 0
1, 332307, Note_on_c, 0, 78, 52
1, 332318, Note_on_c, 0, 72, 96
1, 332323, Note_on_c, 0, 75, 85
1, 332403, Note_on_c, 0, 60, 80
1, 332407, Note_on_c, 0, 63, 81
1, 332436, Note_off_c, 0, 63, 64
1, 332451, Note_off_c, 0, 60, 61
1, 332536, Note_on_c, 0, 57, 91
1, 332565, Note_on_c, 0, 60, 53
1, 332588, Note_off_c, 0, 60, 56
1, 332597, Note_off_c, 0, 57, 63
1, 332647, Note_on_c, 0, 59, 81
1, 332653, Note_on_c, 0, 62, 75
1, 332677, Note_off_c, 0, 62, 67
1, 332701, Note_off_c, 0, 59, 64
1, 332757, Control_c, 0, 64, 23
1, 332761, Note_on_c, 0, 63, 96
1, 332767, Note_on_c, 0, 60, 88
1, 332772, Note_off_c, 0, 72, 58
1, 332772, Control_c, 0, 64, 36
1, 332780, Note_off_c, 0, 78, 60
1, 332785, Note_off_c, 0, 75, 57
1, 332786, Control_c, 0, 64, 43
1, 332801, Control_c, 0, 64, 45
1, 332816, Control_c, 0, 64, 46
1, 332831, Control_c, 0, 64, 48
1, 332846, Control_c, 0, 64, 52
1, 332860, Note_off_c, 0, 63, 65
1, 332862, Control_c, 0, 64, 56
1, 332872, Note_on_c, 0, 78, 91
1, 332874, Note_off_c, 0, 60, 63
1, 332876, Note_on_c, 0, 72, 87
1, 332877, Control_c, 0, 64, 60
1, 332890, Control_c, 0, 64, 62
1, 332905, Control_c, 0, 64, 64
1, 332912, Note_off_c, 0, 72, 63
1, 332920, Control_c, 0, 64, 65
1, 332935, Control_c, 0, 64, 66
1, 332950, Control_c, 0, 64, 67
1, 332964, Control_c, 0, 64, 68
1, 332976, Note_on_c, 0, 71, 80
1, 332978, Note_on_c, 0, 72, 76
1, 332979, Control_c, 0, 64, 71
1, 332994, Control_c, 0, 64, 74
1, 333009, Note_off_c, 0, 71, 61
1, 333009, Control_c, 0, 64, 76
1, 333020, Note_off_c, 0, 72, 63
1, 333024, Control_c, 0, 64, 77
1, 333034, Note_off_c, 0, 78, 54
1, 333038, Control_c, 0, 64, 78
1, 333082, Note_on_c, 0, 72, 77
1, 333083, Control_c, 0, 64, 77
1, 333086, Note_on_c, 0, 69, 86
1, 333089, Note_on_c, 0, 78, 56
1, 333098, Control_c, 0, 64, 76
1, 333112, Control_c, 0, 64, 69
1, 333118, Note_off_c, 0, 69, 58
1, 333124, Note_off_c, 0, 78, 65
1, 333126, Note_off_c, 0, 72, 58
1, 333127, Control_c, 0, 64, 0
1, 333205, Note_on_c, 0, 69, 82
1, 333206, Note_on_c, 0, 74, 76
1, 333208, Note_on_c, 0, 55, 102
1, 333208, Note_on_c, 0, 79, 78
1, 333211, Note_on_c, 0, 47, 88
1, 333212, Note_on_c, 0, 50, 79
1, 333214, Note_on_c, 0, 43, 79
1, 333216, Control_c, 0, 64, 67
1, 333238, Note_off_c, 0, 69, 65
1, 333238, Control_c, 0, 64, 106
1, 333239, Note_on_c, 0, 71, 50
1, 333240, Note_off_c, 0, 71, 127
1, 333241, Note_on_c, 0, 77, 62
1, 333252, Note_off_c, 0, 74, 67
1, 333253, Control_c, 0, 64, 127
1, 333258, Note_off_c, 0, 50, 64
1, 333260, Note_off_c, 0, 55, 66
1, 333261, Note_off_c, 0, 77, 40
1, 333270, Note_off_c, 0, 47, 64
1, 333272, Note_off_c, 0, 79, 64
1, 333274, Note_off_c, 0, 43, 62
1, 333348, Note_on_c, 0, 77, 82
1, 333354, Note_on_c, 0, 80, 83
1, 333394, Note_off_c, 0, 77, 62
1, 333437, Note_off_c, 0, 80, 57
1, 333466, Note_on_c, 0, 77, 88
1, 333476, Note_on_c, 0, 74, 76
1, 333497, Note_off_c, 0, 74, 69
1, 333505, Control_c, 0, 64, 124
1, 333520, Control_c, 0, 64, 112
1, 333535, Control_c, 0, 64, 104
1, 333539, Note_off_c, 0, 77, 61
1, 333550, Control_c, 0, 64, 97
1, 333564, Control_c, 0, 64, 89
1, 333575, Note_on_c, 0, 75, 87
1, 333578, Note_on_c, 0, 79, 88
1, 333579, Control_c, 0, 64, 82
1, 333594, Control_c, 0, 64, 76
1, 333608, Control_c, 0, 64, 69
1, 333620, Note_off_c, 0, 75, 62
1, 333623, Control_c, 0, 64, 61
1, 333638, Control_c, 0, 64, 0
1, 333644, Note_off_c, 0, 79, 60
1, 333682, Note_on_c, 0, 80, 95
1, 333686, Note_on_c, 0, 77, 93
1, 333777, Note_off_c, 0, 77, 50
1, 333798, Note_on_c, 0, 65, 71
1, 333801, Note_on_c, 0, 68, 79
1, 333813, Note_off_c, 0, 80, 62
1, 333825, Note_off_c, 0, 68, 68
1, 333837, Note_off_c, 0, 65, 65
1, 333905, Note_on_c, 0, 62, 81
1, 333915, Note_on_c, 0, 65, 70
1, 333947, Note_off_c, 0, 65, 65
1, 333970, Note_off_c, 0, 62, 62
1, 334002, Control_c, 0, 64, 21
1, 334014, Note_on_c, 0, 67, 79
1, 334017, Control_c, 0, 64, 31
1, 334022, Note_on_c, 0, 63, 74
1, 334032, Control_c, 0, 64, 37
1, 334046, Control_c, 0, 64, 42
1, 334058, Note_off_c, 0, 67, 61
1, 334061, Control_c, 0, 64, 45
1, 334076, Control_c, 0, 64, 48
1, 334080, Note_off_c, 0, 63, 63
1, 334091, Control_c, 0, 64, 50
1, 334106, Control_c, 0, 64, 52
1, 334120, Control_c, 0, 64, 54
1, 334133, Note_on_c, 0, 68, 85
1, 334135, Note_on_c, 0, 65, 87
1, 334135, Control_c, 0, 64, 55
1, 334157, Note_off_c, 0, 68, 68
1, 334173, Note_off_c, 0, 65, 67
1, 334180, Control_c, 0, 64, 54
1, 334194, Control_c, 0, 64, 52
1, 334209, Control_c, 0, 64, 50
1, 334224, Control_c, 0, 64, 47
1, 334239, Control_c, 0, 64, 44
1, 334254, Control_c, 0, 64, 43
1, 334260, Note_on_c, 0, 67, 74
1, 334262, Note_on_c, 0, 65, 67
1, 334269, Control_c, 0, 64, 42
1, 334284, Control_c, 0, 64, 40
1, 334299, Control_c, 0, 64, 38
1, 334299, Note_off_c, 0, 65, 64
1, 334302, Note_off_c, 0, 67, 60
1, 334313, Control_c, 0, 64, 36
1, 334328, Control_c, 0, 64, 34
1, 334364, Note_on_c, 0, 65, 68
1, 334379, Note_on_c, 0, 60, 40
1, 334388, Control_c, 0, 64, 34
1, 334400, Note_on_c, 0, 62, 28
1, 334403, Control_c, 0, 64, 32
1, 334406, Note_off_c, 0, 60, 55
1, 334430, Note_off_c, 0, 65, 66
1, 334436, Note_off_c, 0, 62, 31
1, 334475, Note_on_c, 0, 67, 76
1, 334478, Note_on_c, 0, 63, 74
1, 334482, Note_on_c, 0, 65, 44
1, 334515, Note_off_c, 0, 63, 51
1, 334517, Note_off_c, 0, 65, 66
1, 334533, Note_off_c, 0, 67, 63
1, 334537, Control_c, 0, 64, 30
1, 334552, Control_c, 0, 64, 27
1, 334567, Control_c, 0, 64, 25
1, 334582, Control_c, 0, 64, 24
1, 334582, Note_on_c, 0, 68, 89
1, 334588, Note_on_c, 0, 65, 84
1, 334597, Control_c, 0, 64, 23
1, 334611, Control_c, 0, 64, 20
1, 334670, Control_c, 0, 64, 24
1, 334685, Control_c, 0, 64, 27
1, 334700, Control_c, 0, 64, 30
1, 334705, Note_on_c, 0, 53, 71
1, 334705, Note_on_c, 0, 56, 74
1, 334715, Control_c, 0, 64, 31
1, 334718, Note_off_c, 0, 65, 58
1, 334722, Note_off_c, 0, 68, 62
1, 334737, Control_c, 0, 64, 32
1, 334741, Note_off_c, 0, 56, 66
1, 334751, Note_off_c, 0, 53, 65
1, 334752, Control_c, 0, 64, 33
1, 334767, Control_c, 0, 64, 34
1, 334782, Control_c, 0, 64, 34
1, 334797, Control_c, 0, 64, 35
1, 334819, Note_on_c, 0, 50, 80
1, 334840, Note_on_c, 0, 53, 48
1, 334865, Note_off_c, 0, 53, 60
1, 334875, Note_off_c, 0, 50, 66
1, 334885, Control_c, 0, 64, 36
1, 334900, Control_c, 0, 64, 38
1, 334915, Control_c, 0, 64, 39
1, 334919, Note_on_c, 0, 55, 77
1, 334926, Note_on_c, 0, 51, 76
1, 334930, Control_c, 0, 64, 41
1, 334944, Control_c, 0, 64, 43
1, 334959, Control_c, 0, 64, 45
1, 334961, Note_off_c, 0, 55, 66
1, 334974, Control_c, 0, 64, 46
1, 334984, Note_off_c, 0, 51, 61
1, 334988, Control_c, 0, 64, 47
1, 335003, Control_c, 0, 64, 48
1, 335018, Control_c, 0, 64, 50
1, 335033, Control_c, 0, 64, 52
1, 335037, Note_on_c, 0, 53, 83
1, 335038, Note_on_c, 0, 56, 81
1, 335048, Control_c, 0, 64, 54
1, 335062, Control_c, 0, 64, 54
1, 335063, Note_off_c, 0, 56, 67
1, 335080, Note_off_c, 0, 53, 68
1, 335092, Control_c, 0, 64, 55
1, 335122, Control_c, 0, 64, 54
1, 335135, Control_c, 0, 64, 54
1, 335154, Note_on_c, 0, 56, 83
1, 335166, Note_on_c, 0, 53, 76
1, 335179, Control_c, 0, 64, 53
1, 335204, Note_off_c, 0, 53, 66
1, 335209, Control_c, 0, 64, 52
1, 335217, Note_off_c, 0, 56, 63
1, 335224, Control_c, 0, 64, 51
1, 335239, Control_c, 0, 64, 49
1, 335269, Note_on_c, 0, 53, 77
1, 335277, Note_on_c, 0, 50, 60
1, 335284, Control_c, 0, 64, 48
1, 335299, Control_c, 0, 64, 47
1, 335301, Note_off_c, 0, 50, 64
1, 335314, Control_c, 0, 64, 46
1, 335332, Note_off_c, 0, 53, 66
1, 335375, Note_on_c, 0, 55, 85
1, 335385, Note_on_c, 0, 51, 73
1, 335423, Note_off_c, 0, 51, 56
1, 335449, Note_off_c, 0, 55, 64
1, 335498, Note_on_c, 0, 56, 94
1, 335505, Note_on_c, 0, 53, 84
1, 335544, Control_c, 0, 64, 45
1, 335558, Control_c, 0, 64, 45
1, 335588, Control_c, 0, 64, 45
1, 335603, Control_c, 0, 64, 46
1, 335607, Note_off_c, 0, 56, 55
1, 335610, Note_on_c, 0, 44, 78
1, 335617, Note_on_c, 0, 41, 72
1, 335617, Control_c, 0, 64, 46
1, 335638, Note_off_c, 0, 53, 60
1, 335659, Note_off_c, 0, 44, 59
1, 335672, Note_off_c, 0, 41, 61
1, 335691, Control_c, 0, 64, 46
1, 335727, Note_on_c, 0, 59, 82
1, 335733, Note_on_c, 0, 50, 89
1, 335735, Note_on_c, 0, 55, 82
1, 335740, Note_on_c, 0, 39, 72
1, 335742, Note_on_c, 0, 43, 72
1, 335765, Control_c, 0, 64, 45
1, 335780, Note_off_c, 0, 43, 63
1, 335780, Control_c, 0, 64, 44
1, 335799, Note_off_c, 0, 39, 60
1, 335830, Note_off_c, 0, 59, 63
1, 335840, Control_c, 0, 64, 45
1, 335843, Note_off_c, 0, 55, 57
1, 335855, Note_on_c, 0, 38, 74
1, 335855, Control_c, 0, 64, 46
1, 335879, Note_off_c, 0, 50, 47
1, 335881, Note_on_c, 0, 41, 38
1, 335897, Note_off_c, 0, 38, 63
1, 335914, Control_c, 0, 64, 45
1, 335920, Note_off_c, 0, 41, 54
1, 335929, Control_c, 0, 64, 44
1, 335944, Control_c, 0, 64, 43
1, 335958, Control_c, 0, 64, 42
1, 335973, Control_c, 0, 64, 39
1, 335986, Note_on_c, 0, 60, 83
1, 335988, Control_c, 0, 64, 34
1, 335990, Note_on_c, 0, 51, 85
1, 335995, Note_on_c, 0, 55, 79
1, 336002, Control_c, 0, 64, 26
1, 336017, Control_c, 0, 64, 20
1, 336032, Control_c, 0, 64, 13
1, 336048, Control_c, 0, 64, 10
1, 336111, Note_on_c, 0, 39, 78
1, 336170, Note_off_c, 0, 39, 64
1, 336174, Note_off_c, 0, 51, 61
1, 336180, Note_off_c, 0, 55, 60
1, 336181, Control_c, 0, 64, 13
1, 336196, Control_c, 0, 64, 16
1, 336211, Note_off_c, 0, 60, 58
1, 336239, Note_on_c, 0, 38, 77
1, 336263, Control_c, 0, 64, 18
1, 336296, Note_off_c, 0, 38, 61
1, 336353, Note_on_c, 0, 36, 81
1, 336412, Note_off_c, 0, 36, 64
1, 336440, Control_c, 0, 64, 16
1, 336455, Control_c, 0, 64, 13
1, 336470, Control_c, 0, 64, 10
1, 336484, Note_on_c, 0, 62, 89
1, 336485, Control_c, 0, 64, 0
1, 336498, Note_on_c, 0, 53, 85
1, 336499, Note_on_c, 0, 55, 78
1, 336638, Note_on_c, 0, 35, 79
1, 336657, Note_off_c, 0, 53, 52
1, 336669, Note_off_c, 0, 62, 54
1, 336715, Note_off_c, 0, 35, 62
1, 336756, Note_on_c, 0, 33, 77
1, 336772, Note_off_c, 0, 55, 51
1, 336835, Note_off_c, 0, 33, 63
1, 336866, Note_on_c, 0, 31, 82
1, 336937, Note_off_c, 0, 31, 63
1, 337032, Note_on_c, 0, 60, 80
1, 337044, Note_on_c, 0, 55, 76
1, 337048, Note_on_c, 0, 51, 74
1, 337336, Note_off_c, 0, 51, 38
1, 337365, Note_on_c, 0, 36, 82
1, 337393, Note_off_c, 0, 55, 58
1, 337398, Note_off_c, 0, 60, 51
1, 337792, Note_off_c, 0, 36, 59
1, 337879, Control_c, 0, 64, 10
1, 337894, Control_c, 0, 64, 13
1, 337924, Control_c, 0, 64, 16
1, 337939, Control_c, 0, 64, 18
1, 337968, Control_c, 0, 64, 20
1, 338012, Control_c, 0, 64, 21
1, 338042, Control_c, 0, 64, 23
1, 338071, Control_c, 0, 64, 24
1, 338086, Control_c, 0, 64, 25
1, 338101, Control_c, 0, 64, 28
1, 338116, Control_c, 0, 64, 34
1, 338132, Control_c, 0, 64, 38
1, 338146, Control_c, 0, 64, 42
1, 338161, Control_c, 0, 64, 46
1, 338176, Control_c, 0, 64, 49
1, 338191, Control_c, 0, 64, 52
1, 338205, Control_c, 0, 64, 56
1, 338220, Control_c, 0, 64, 58
1, 338235, Control_c, 0, 64, 61
1, 338250, Control_c, 0, 64, 63
1, 338265, Control_c, 0, 64, 64
1, 338279, Control_c, 0, 64, 65
1, 338294, Control_c, 0, 64, 66
1, 338309, Control_c, 0, 64, 67
1, 338324, Control_c, 0, 64, 69
1, 338339, Control_c, 0, 64, 71
1, 338353, Control_c, 0, 64, 73
1, 338368, Control_c, 0, 64, 75
1, 338383, Control_c, 0, 64, 77
1, 338398, Control_c, 0, 64, 79
1, 338412, Control_c, 0, 64, 81
1, 338427, Control_c, 0, 64, 83
1, 338442, Control_c, 0, 64, 86
1, 338458, Control_c, 0, 64, 88
1, 338481, Control_c, 0, 64, 90
1, 338496, Control_c, 0, 64, 92
1, 338510, Control_c, 0, 64, 94
1, 338525, Control_c, 0, 64, 96
1, 338540, Control_c, 0, 64, 99
1, 338555, Control_c, 0, 64, 100
1, 338570, Control_c, 0, 64, 101
1, 338584, Control_c, 0, 64, 103
1, 338599, Control_c, 0, 64, 104
1, 338614, Control_c, 0, 64, 105
1, 338617, Note_on_c, 0, 79, 52
1, 338628, Control_c, 0, 64, 107
1, 338643, Control_c, 0, 64, 109
1, 338648, Note_on_c, 0, 48, 40
1, 338658, Control_c, 0, 64, 110
1, 338673, Control_c, 0, 64, 111
1, 338688, Control_c, 0, 64, 112
1, 338702, Note_off_c, 0, 48, 61
1, 338702, Control_c, 0, 64, 113
1, 338717, Control_c, 0, 64, 114
1, 338732, Control_c, 0, 64, 115
1, 338747, Control_c, 0, 64, 116
1, 338762, Control_c, 0, 64, 117
1, 338791, Control_c, 0, 64, 117
1, 338806, Control_c, 0, 64, 118
1, 338821, Control_c, 0, 64, 118
1, 338851, Control_c, 0, 64, 119
1, 338862, Note_on_c, 0, 63, 38
1, 338977, Note_off_c, 0, 63, 52
1, 339010, Note_on_c, 0, 60, 43
1, 339136, Note_off_c, 0, 60, 50
1, 339156, Note_on_c, 0, 63, 42
1, 339313, Note_on_c, 0, 87, 62
1, 339332, Note_off_c, 0, 63, 37
1, 339366, Note_on_c, 0, 55, 24
1, 339400, Note_off_c, 0, 79, 34
1, 339445, Note_off_c, 0, 55, 40
1, 339477, Note_on_c, 0, 63, 45
1, 339572, Note_off_c, 0, 63, 54
1, 339617, Note_on_c, 0, 60, 40
1, 339675, Note_off_c, 0, 60, 54
1, 339723, Note_on_c, 0, 63, 38
1, 339727, Note_off_c, 0, 87, 61
1, 339833, Note_on_c, 0, 84, 71
1, 339873, Note_off_c, 0, 63, 46
1, 339881, Note_on_c, 0, 55, 45
1, 339932, Note_off_c, 0, 55, 60
1, 339992, Note_on_c, 0, 63, 47
1, 340085, Note_off_c, 0, 63, 57
1, 340121, Note_on_c, 0, 60, 47
1, 340210, Note_off_c, 0, 60, 60
1, 340228, Note_on_c, 0, 63, 51
1, 340262, Note_off_c, 0, 63, 65
1, 340362, Control_c, 0, 64, 118
1, 340377, Control_c, 0, 64, 116
1, 340392, Control_c, 0, 64, 109
1, 340407, Control_c, 0, 64, 99
1, 340422, Control_c, 0, 64, 87
1, 340429, Note_on_c, 0, 83, 64
1, 340437, Control_c, 0, 64, 74
1, 340451, Control_c, 0, 64, 20
1, 340453, Note_off_c, 0, 84, 40
1, 340465, Note_on_c, 0, 43, 51
1, 340466, Control_c, 0, 64, 0
1, 340496, Control_c, 0, 64, 58
1, 340504, Note_off_c, 0, 43, 63
1, 340511, Control_c, 0, 64, 71
1, 340526, Control_c, 0, 64, 81
1, 340541, Control_c, 0, 64, 93
1, 340555, Control_c, 0, 64, 99
1, 340570, Control_c, 0, 64, 103
1, 340585, Control_c, 0, 64, 105
1, 340599, Control_c, 0, 64, 108
1, 340614, Control_c, 0, 64, 111
1, 340629, Control_c, 0, 64, 114
1, 340644, Control_c, 0, 64, 116
1, 340645, Note_on_c, 0, 62, 44
1, 340659, Control_c, 0, 64, 117
1, 340673, Control_c, 0, 64, 119
1, 340688, Control_c, 0, 64, 119
1, 340725, Note_off_c, 0, 62, 39
1, 340741, Control_c, 0, 64, 120
1, 340776, Note_on_c, 0, 59, 46
1, 340851, Note_off_c, 0, 59, 52
1, 340889, Note_on_c, 0, 62, 40
1, 341035, Note_off_c, 0, 62, 37
1, 341039, Note_on_c, 0, 86, 67
1, 341047, Note_off_c, 0, 83, 56
1, 341061, Note_on_c, 0, 55, 40
1, 341164, Note_off_c, 0, 55, 52
1, 341177, Note_on_c, 0, 62, 46
1, 341292, Note_off_c, 0, 62, 58
1, 341329, Note_on_c, 0, 59, 41
1, 341425, Note_on_c, 0, 62, 49
1, 341463, Note_off_c, 0, 59, 35
1, 341568, Note_on_c, 0, 79, 65
1, 341596, Note_off_c, 0, 62, 36
1, 341598, Note_on_c, 0, 55, 41
1, 341632, Note_off_c, 0, 86, 32
1, 341676, Note_off_c, 0, 55, 59
1, 341698, Control_c, 0, 64, 119
1, 341703, Note_on_c, 0, 62, 50
1, 341798, Note_off_c, 0, 62, 55
1, 341834, Note_on_c, 0, 59, 46
1, 341901, Note_off_c, 0, 59, 61
1, 341945, Note_on_c, 0, 62, 51
1, 342053, Control_c, 0, 64, 118
1, 342068, Control_c, 0, 64, 114
1, 342083, Control_c, 0, 64, 105
1, 342098, Control_c, 0, 64, 93
1, 342100, Note_on_c, 0, 82, 71
1, 342113, Control_c, 0, 64, 81
1, 342118, Note_on_c, 0, 48, 59
1, 342121, Note_off_c, 0, 62, 37
1, 342127, Control_c, 0, 64, 68
1, 342142, Control_c, 0, 64, 0
1, 342159, Note_off_c, 0, 79, 52
1, 342180, Note_off_c, 0, 48, 59
1, 342186, Control_c, 0, 64, 58
1, 342201, Control_c, 0, 64, 70
1, 342224, Control_c, 0, 64, 79
1, 342239, Control_c, 0, 64, 88
1, 342253, Control_c, 0, 64, 94
1, 342268, Control_c, 0, 64, 98
1, 342283, Control_c, 0, 64, 101
1, 342286, Note_on_c, 0, 64, 50
1, 342298, Control_c, 0, 64, 104
1, 342313, Control_c, 0, 64, 107
1, 342327, Control_c, 0, 64, 110
1, 342342, Control_c, 0, 64, 113
1, 342353, Note_off_c, 0, 64, 58
1, 342357, Control_c, 0, 64, 115
1, 342371, Control_c, 0, 64, 116
1, 342386, Control_c, 0, 64, 117
1, 342406, Note_on_c, 0, 58, 43
1, 342416, Control_c, 0, 64, 117
1, 342447, Control_c, 0, 64, 118
1, 342491, Control_c, 0, 64, 118
1, 342503, Note_off_c, 0, 58, 59
1, 342517, Note_on_c, 0, 64, 40
1, 342639, Note_off_c, 0, 64, 49
1, 342662, Note_on_c, 0, 85, 64
1, 342682, Note_off_c, 0, 82, 57
1, 342683, Note_on_c, 0, 55, 41
1, 342809, Note_on_c, 0, 64, 45
1, 342837, Note_off_c, 0, 55, 34
1, 342908, Note_off_c, 0, 64, 59
1, 342942, Note_on_c, 0, 58, 50
1, 343045, Note_off_c, 0, 58, 55
1, 343051, Note_on_c, 0, 64, 50
1, 343176, Note_off_c, 0, 64, 57
1, 343191, Note_on_c, 0, 82, 67
1, 343206, Note_on_c, 0, 55, 41
1, 343280, Note_off_c, 0, 85, 35
1, 343313, Note_off_c, 0, 55, 58
1, 343336, Note_on_c, 0, 64, 45
1, 343412, Note_off_c, 0, 64, 60
1, 343446, Note_on_c, 0, 58, 56
1, 343539, Note_off_c, 0, 58, 60
1, 343549, Note_on_c, 0, 64, 48
1, 343580, Control_c, 0, 64, 118
1, 343609, Control_c, 0, 64, 117
1, 343624, Control_c, 0, 64, 116
1, 343639, Control_c, 0, 64, 115
1, 343654, Control_c, 0, 64, 112
1, 343661, Note_off_c, 0, 64, 56
1, 343669, Control_c, 0, 64, 108
1, 343683, Control_c, 0, 64, 101
1, 343692, Note_on_c, 0, 81, 69
1, 343698, Control_c, 0, 64, 90
1, 343705, Note_on_c, 0, 53, 48
1, 343721, Control_c, 0, 64, 78
1, 343736, Control_c, 0, 64, 65
1, 343750, Control_c, 0, 64, 0
1, 343753, Note_off_c, 0, 82, 38
1, 343810, Control_c, 0, 64, 44
1, 343824, Control_c, 0, 64, 66
1, 343834, Note_off_c, 0, 53, 60
1, 343839, Control_c, 0, 64, 72
1, 343850, Note_on_c, 0, 65, 44
1, 343854, Control_c, 0, 64, 77
1, 343869, Control_c, 0, 64, 82
1, 343884, Control_c, 0, 64, 86
1, 343898, Control_c, 0, 64, 91
1, 343913, Control_c, 0, 64, 96
1, 343928, Control_c, 0, 64, 101
1, 343939, Note_off_c, 0, 65, 60
1, 343942, Control_c, 0, 64, 107
1, 343957, Control_c, 0, 64, 112
1, 343972, Control_c, 0, 64, 117
1, 343978, Note_on_c, 0, 60, 42
1, 343987, Control_c, 0, 64, 123
1, 344002, Control_c, 0, 64, 127
1, 344046, Note_off_c, 0, 60, 52
1, 344084, Note_on_c, 0, 65, 43
1, 344239, Note_off_c, 0, 65, 38
1, 344240, Note_on_c, 0, 84, 72
1, 344243, Note_off_c, 0, 81, 54
1, 344261, Note_on_c, 0, 57, 43
1, 344327, Note_off_c, 0, 57, 54
1, 344361, Note_on_c, 0, 65, 46
1, 344490, Note_off_c, 0, 65, 60
1, 344525, Note_on_c, 0, 60, 48
1, 344613, Note_off_c, 0, 60, 53
1, 344635, Note_on_c, 0, 65, 42
1, 344756, Note_off_c, 0, 65, 48
1, 344759, Note_on_c, 0, 77, 69
1, 344765, Note_off_c, 0, 84, 62
1, 344768, Note_on_c, 0, 57, 47
1, 344858, Note_off_c, 0, 57, 57
1, 344884, Note_on_c, 0, 65, 52
1, 344936, Note_off_c, 0, 65, 56
1, 344988, Note_on_c, 0, 60, 55
1, 345071, Note_off_c, 0, 60, 58
1, 345086, Note_on_c, 0, 65, 51
1, 345117, Note_off_c, 0, 65, 61
1, 345264, Control_c, 0, 64, 118
1, 345270, Note_on_c, 0, 78, 77
1, 345278, Control_c, 0, 64, 108
1, 345289, Note_on_c, 0, 50, 45
1, 345291, Note_off_c, 0, 77, 55
1, 345293, Control_c, 0, 64, 98
1, 345308, Control_c, 0, 64, 87
1, 345323, Control_c, 0, 64, 75
1, 345338, Control_c, 0, 64, 52
1, 345352, Control_c, 0, 64, 0
1, 345397, Control_c, 0, 64, 48
1, 345397, Note_on_c, 0, 60, 41
1, 345412, Control_c, 0, 64, 67
1, 345427, Control_c, 0, 64, 76
1, 345441, Control_c, 0, 64, 84
1, 345456, Control_c, 0, 64, 90
1, 345462, Note_off_c, 0, 50, 31
1, 345471, Control_c, 0, 64, 95
1, 345486, Note_off_c, 0, 60, 60
1, 345486, Control_c, 0, 64, 99
1, 345501, Control_c, 0, 64, 104
1, 345506, Note_on_c, 0, 57, 56
1, 345515, Control_c, 0, 64, 109
1, 345530, Control_c, 0, 64, 114
1, 345545, Control_c, 0, 64, 119
1, 345560, Control_c, 0, 64, 125
1, 345575, Control_c, 0, 64, 127
1, 345595, Note_off_c, 0, 57, 55
1, 345611, Note_on_c, 0, 60, 54
1, 345728, Note_off_c, 0, 60, 52
1, 345766, Note_on_c, 0, 75, 71
1, 345767, Note_off_c, 0, 78, 60
1, 345770, Note_on_c, 0, 54, 42
1, 345861, Note_off_c, 0, 54, 58
1, 345877, Note_on_c, 0, 60, 45
1, 345984, Note_off_c, 0, 60, 55
1, 346011, Note_on_c, 0, 57, 49
1, 346095, Note_off_c, 0, 57, 58
1, 346126, Note_on_c, 0, 60, 48
1, 346237, Note_off_c, 0, 60, 54
1, 346270, Note_on_c, 0, 54, 52
1, 346274, Note_on_c, 0, 72, 71
1, 346280, Note_off_c, 0, 75, 63
1, 346354, Note_off_c, 0, 54, 56
1, 346374, Note_on_c, 0, 60, 53
1, 346454, Note_off_c, 0, 60, 58
1, 346487, Note_on_c, 0, 57, 54
1, 346565, Note_off_c, 0, 57, 61
1, 346593, Note_on_c, 0, 60, 54
1, 346624, Note_off_c, 0, 60, 61
1, 346732, Control_c, 0, 64, 125
1, 346747, Control_c, 0, 64, 112
1, 346762, Control_c, 0, 64, 99
1, 346775, Note_on_c, 0, 71, 70
1, 346776, Control_c, 0, 64, 87
1, 346778, Note_off_c, 0, 72, 62
1, 346791, Note_on_c, 0, 43, 56
1, 346791, Control_c, 0, 64, 73
1, 346806, Control_c, 0, 64, 53
1, 346821, Control_c, 0, 64, 0
1, 346865, Control_c, 0, 64, 65
1, 346875, Note_off_c, 0, 43, 59
1, 346880, Control_c, 0, 64, 75
1, 346895, Control_c, 0, 64, 85
1, 346910, Control_c, 0, 64, 93
1, 346924, Control_c, 0, 64, 98
1, 346935, Note_on_c, 0, 56, 56
1, 346939, Control_c, 0, 64, 102
1, 346954, Control_c, 0, 64, 106
1, 346968, Control_c, 0, 64, 110
1, 346983, Control_c, 0, 64, 113
1, 346998, Control_c, 0, 64, 117
1, 347013, Control_c, 0, 64, 120
1, 347024, Note_off_c, 0, 56, 58
1, 347028, Control_c, 0, 64, 122
1, 347042, Control_c, 0, 64, 123
1, 347057, Control_c, 0, 64, 124
1, 347065, Note_on_c, 0, 53, 52
1, 347072, Control_c, 0, 64, 125
1, 347087, Control_c, 0, 64, 126
1, 347102, Control_c, 0, 64, 126
1, 347116, Control_c, 0, 64, 127
1, 347157, Note_off_c, 0, 53, 63
1, 347167, Note_on_c, 0, 56, 47
1, 347247, Note_off_c, 0, 56, 56
1, 347256, Note_on_c, 0, 68, 72
1, 347299, Note_on_c, 0, 50, 46
1, 347304, Note_off_c, 0, 71, 35
1, 347384, Note_off_c, 0, 50, 52
1, 347410, Note_on_c, 0, 56, 46
1, 347493, Note_off_c, 0, 56, 58
1, 347541, Note_on_c, 0, 53, 40
1, 347629, Note_off_c, 0, 53, 60
1, 347642, Note_on_c, 0, 56, 41
1, 347742, Note_off_c, 0, 56, 59
1, 347748, Note_on_c, 0, 65, 64
1, 347752, Note_off_c, 0, 68, 63
1, 347781, Note_on_c, 0, 50, 36
1, 347865, Note_off_c, 0, 50, 38
1, 347884, Note_on_c, 0, 56, 43
1, 347909, Control_c, 0, 64, 126
1, 347941, Note_off_c, 0, 56, 59
1, 347945, Note_off_c, 0, 65, 58
1, 347991, Note_on_c, 0, 53, 42
1, 348077, Note_off_c, 0, 53, 55
1, 348081, Note_on_c, 0, 56, 43
1, 348162, Control_c, 0, 64, 125
1, 348177, Control_c, 0, 64, 122
1, 348192, Control_c, 0, 64, 118
1, 348214, Control_c, 0, 64, 113
1, 348229, Control_c, 0, 64, 105
1, 348235, Note_on_c, 0, 47, 54
1, 348235, Note_on_c, 0, 62, 63
1, 348243, Control_c, 0, 64, 94
1, 348252, Note_off_c, 0, 56, 33
1, 348258, Control_c, 0, 64, 80
1, 348273, Control_c, 0, 64, 67
1, 348288, Control_c, 0, 64, 0
1, 348324, Note_off_c, 0, 47, 62
1, 348333, Control_c, 0, 64, 61
1, 348348, Control_c, 0, 64, 70
1, 348351, Note_on_c, 0, 56, 55
1, 348362, Control_c, 0, 64, 77
1, 348377, Control_c, 0, 64, 85
1, 348392, Control_c, 0, 64, 91
1, 348406, Control_c, 0, 64, 95
1, 348417, Note_off_c, 0, 56, 54
1, 348421, Control_c, 0, 64, 100
1, 348436, Control_c, 0, 64, 105
1, 348451, Control_c, 0, 64, 110
1, 348461, Note_on_c, 0, 53, 51
1, 348466, Control_c, 0, 64, 114
1, 348480, Control_c, 0, 64, 118
1, 348495, Control_c, 0, 64, 123
1, 348509, Note_off_c, 0, 53, 63
1, 348510, Control_c, 0, 64, 127
1, 348550, Note_on_c, 0, 56, 46
1, 348573, Note_off_c, 0, 56, 59
1, 348695, Note_on_c, 0, 53, 61
1, 348711, Note_off_c, 0, 62, 37
1, 348716, Note_on_c, 0, 44, 47
1, 348806, Control_c, 0, 64, 123
1, 348808, Note_off_c, 0, 44, 59
1, 348821, Control_c, 0, 64, 119
1, 348825, Note_on_c, 0, 50, 52
1, 348837, Control_c, 0, 64, 116
1, 348852, Control_c, 0, 64, 113
1, 348866, Control_c, 0, 64, 111
1, 348881, Control_c, 0, 64, 109
1, 348896, Control_c, 0, 64, 106
1, 348911, Control_c, 0, 64, 103
1, 348913, Note_off_c, 0, 50, 61
1, 348926, Control_c, 0, 64, 100
1, 348939, Note_on_c, 0, 47, 56
1, 348941, Control_c, 0, 64, 97
1, 348962, Control_c, 0, 64, 95
1, 348977, Control_c, 0, 64, 92
1, 348992, Control_c, 0, 64, 90
1, 349007, Control_c, 0, 64, 88
1, 349022, Control_c, 0, 64, 86
1, 349024, Note_off_c, 0, 47, 62
1, 349036, Control_c, 0, 64, 84
1, 349051, Note_on_c, 0, 50, 51
1, 349051, Control_c, 0, 64, 83
1, 349066, Control_c, 0, 64, 82
1, 349081, Control_c, 0, 64, 81
1, 349096, Control_c, 0, 64, 80
1, 349110, Note_off_c, 0, 50, 42
1, 349111, Control_c, 0, 64, 78
1, 349126, Control_c, 0, 64, 77
1, 349141, Control_c, 0, 64, 76
1, 349156, Control_c, 0, 64, 74
1, 349162, Note_off_c, 0, 53, 51
1, 349170, Note_on_c, 0, 43, 51
1, 349171, Control_c, 0, 64, 73
1, 349181, Note_on_c, 0, 55, 63
1, 349185, Control_c, 0, 64, 72
1, 349200, Control_c, 0, 64, 70
1, 349215, Control_c, 0, 64, 69
1, 349230, Control_c, 0, 64, 68
1, 349245, Control_c, 0, 64, 68
1, 349257, Note_off_c, 0, 43, 59
1, 349260, Control_c, 0, 64, 67
1, 349275, Control_c, 0, 64, 66
1, 349289, Note_on_c, 0, 44, 54
1, 349290, Control_c, 0, 64, 66
1, 349304, Control_c, 0, 64, 65
1, 349319, Control_c, 0, 64, 65
1, 349349, Control_c, 0, 64, 64
1, 349366, Note_off_c, 0, 44, 62
1, 349377, Control_c, 0, 64, 64
1, 349384, Note_on_c, 0, 43, 48
1, 349462, Note_off_c, 0, 43, 49
1, 349588, Poly_aftertouch_c, 0, 41, 127
1, 349591, Poly_aftertouch_c, 0, 40, 127
1, 349615, Control_c, 0, 64, 63
1, 349628, Poly_aftertouch_c, 0, 40, 0
1, 349635, Poly_aftertouch_c, 0, 41, 0
1, 349647, Note_on_c, 0, 39, 55
1, 349658, Note_off_c, 0, 55, 58
1, 349664, Note_on_c, 0, 48, 51
1, 349769, Note_off_c, 0, 39, 60
1, 349791, Note_on_c, 0, 38, 49
1, 349877, Note_off_c, 0, 38, 60
1, 349895, Note_on_c, 0, 39, 58
1, 349975, Note_off_c, 0, 39, 61
1, 350011, Note_on_c, 0, 36, 51
1, 350110, Note_off_c, 0, 36, 58
1, 350147, Note_on_c, 0, 43, 56
1, 350156, Note_off_c, 0, 48, 37
1, 350156, Control_c, 0, 64, 63
1, 350157, Note_on_c, 0, 35, 40
1, 350276, Note_off_c, 0, 35, 41
1, 350299, Note_on_c, 0, 31, 44
1, 350303, Control_c, 0, 64, 62
1, 350423, Note_off_c, 0, 31, 50
1, 350424, Note_on_c, 0, 33, 47
1, 350520, Control_c, 0, 64, 62
1, 350557, Note_off_c, 0, 33, 58
1, 350579, Note_on_c, 0, 35, 42
1, 350697, Note_off_c, 0, 43, 29
1, 350697, Control_c, 0, 64, 61
1, 350727, Control_c, 0, 64, 61
1, 350741, Control_c, 0, 64, 60
1, 350756, Control_c, 0, 64, 58
1, 350771, Control_c, 0, 64, 56
1, 350786, Control_c, 0, 64, 51
1, 350801, Control_c, 0, 64, 38
1, 350804, Note_on_c, 0, 48, 40
1, 350816, Control_c, 0, 64, 0
1, 350824, Note_off_c, 0, 35, 41
1, 350825, Note_on_c, 0, 36, 34
1, 350891, Control_c, 0, 64, 42
1, 350905, Control_c, 0, 64, 55
1, 350920, Control_c, 0, 64, 61
1, 350935, Control_c, 0, 64, 64
1, 350950, Control_c, 0, 64, 66
1, 350965, Control_c, 0, 64, 70
1, 350980, Control_c, 0, 64, 75
1, 350983, Note_off_c, 0, 36, 55
1, 350995, Control_c, 0, 64, 81
1, 351009, Control_c, 0, 64, 87
1, 351024, Control_c, 0, 64, 92
1, 351033, Note_off_c, 0, 48, 42
1, 351039, Control_c, 0, 64, 97
1, 351054, Control_c, 0, 64, 104
1, 351069, Control_c, 0, 64, 113
1, 351083, Control_c, 0, 64, 120
1, 351098, Control_c, 0, 64, 127
1, 351358, Control_c, 0, 64, 125
1, 351373, Control_c, 0, 64, 106
1, 351388, Control_c, 0, 64, 95
1, 351403, Control_c, 0, 64, 87
1, 351414, Note_on_c, 0, 39, 47
1, 351418, Control_c, 0, 64, 82
1, 351432, Control_c, 0, 64, 80
1, 351460, Note_on_c, 0, 84, 52
1, 351462, Control_c, 0, 64, 80
1, 351466, Note_off_c, 0, 39, 59
1, 351477, Control_c, 0, 64, 81
1, 351492, Control_c, 0, 64, 83
1, 351496, Note_on_c, 0, 36, 53
1, 351502, Note_off_c, 0, 84, 52
1, 351506, Control_c, 0, 64, 85
1, 351521, Control_c, 0, 64, 87
1, 351531, Note_on_c, 0, 87, 58
1, 351536, Control_c, 0, 64, 89
1, 351551, Control_c, 0, 64, 91
1, 351561, Note_off_c, 0, 36, 61
1, 351565, Control_c, 0, 64, 92
1, 351580, Control_c, 0, 64, 94
1, 351583, Note_on_c, 0, 39, 49
1, 351591, Note_off_c, 0, 87, 53
1, 351595, Control_c, 0, 64, 95
1, 351599, Note_on_c, 0, 84, 65
1, 351610, Note_off_c, 0, 39, 59
1, 351610, Control_c, 0, 64, 96
1, 351625, Control_c, 0, 64, 97
1, 351630, Note_off_c, 0, 84, 65
1, 351635, Note_on_c, 0, 43, 56
1, 351639, Control_c, 0, 64, 97
1, 351654, Control_c, 0, 64, 98
1, 351669, Note_on_c, 0, 79, 51
1, 351676, Note_off_c, 0, 43, 59
1, 351696, Note_off_c, 0, 79, 58
1, 351711, Note_on_c, 0, 39, 53
1, 351727, Note_on_c, 0, 84, 68
1, 351774, Note_off_c, 0, 84, 63
1, 351775, Note_on_c, 0, 43, 51
1, 351780, Note_off_c, 0, 39, 60
1, 351785, Note_on_c, 0, 79, 67
1, 351815, Note_off_c, 0, 43, 61
1, 351842, Note_on_c, 0, 48, 67
1, 351844, Note_off_c, 0, 79, 61
1, 351877, Note_off_c, 0, 48, 64
1, 351877, Control_c, 0, 64, 98
1, 351881, Note_on_c, 0, 75, 67
1, 351920, Note_off_c, 0, 75, 44
1, 351936, Control_c, 0, 64, 97
1, 351958, Control_c, 0, 64, 96
1, 351959, Note_on_c, 0, 79, 69
1, 351971, Note_on_c, 0, 43, 36
1, 351973, Control_c, 0, 64, 94
1, 351988, Control_c, 0, 64, 94
1, 352016, Note_off_c, 0, 43, 47
1, 352021, Note_off_c, 0, 79, 61
1, 352024, Note_on_c, 0, 75, 78
1, 352080, Note_off_c, 0, 75, 65
1, 352098, Note_on_c, 0, 72, 72
1, 352131, Poly_aftertouch_c, 0, 50, 0
1, 352151, Control_c, 0, 64, 94
1, 352155, Note_on_c, 0, 51, 31
1, 352159, Note_off_c, 0, 72, 61
1, 352166, Control_c, 0, 64, 95
1, 352172, Note_on_c, 0, 75, 69
1, 352180, Note_on_c, 0, 48, 58
1, 352181, Control_c, 0, 64, 95
1, 352187, Note_off_c, 0, 51, 52
1, 352196, Control_c, 0, 64, 96
1, 352211, Control_c, 0, 64, 97
1, 352226, Control_c, 0, 64, 98
1, 352241, Control_c, 0, 64, 99
1, 352241, Note_on_c, 0, 72, 58
1, 352254, Note_off_c, 0, 75, 57
1, 352257, Note_off_c, 0, 48, 65
1, 352261, Note_on_c, 0, 51, 68
1, 352285, Control_c, 0, 64, 98
1, 352294, Note_off_c, 0, 51, 64
1, 352297, Note_off_c, 0, 72, 63
1, 352300, Control_c, 0, 64, 94
1, 352308, Note_on_c, 0, 67, 66
1, 352314, Note_on_c, 0, 55, 67
1, 352315, Control_c, 0, 64, 89
1, 352329, Control_c, 0, 64, 85
1, 352344, Control_c, 0, 64, 83
1, 352348, Note_off_c, 0, 55, 61
1, 352358, Note_off_c, 0, 67, 59
1, 352373, Note_on_c, 0, 72, 69
1, 352403, Control_c, 0, 64, 84
1, 352409, Note_on_c, 0, 51, 52
1, 352416, Note_off_c, 0, 72, 66
1, 352418, Control_c, 0, 64, 86
1, 352433, Control_c, 0, 64, 87
1, 352438, Note_on_c, 0, 67, 66
1, 352448, Control_c, 0, 64, 89
1, 352461, Note_off_c, 0, 51, 61
1, 352462, Control_c, 0, 64, 90
1, 352467, Note_on_c, 0, 55, 59
1, 352477, Control_c, 0, 64, 91
1, 352485, Note_off_c, 0, 67, 57
1, 352492, Control_c, 0, 64, 92
1, 352506, Control_c, 0, 64, 92
1, 352518, Note_on_c, 0, 63, 67
1, 352529, Note_off_c, 0, 55, 56
1, 352535, Note_on_c, 0, 60, 56
1, 352566, Control_c, 0, 64, 92
1, 352577, Note_off_c, 0, 63, 62
1, 352581, Control_c, 0, 64, 91
1, 352584, Note_on_c, 0, 67, 79
1, 352596, Control_c, 0, 64, 89
1, 352611, Control_c, 0, 64, 86
1, 352618, Note_on_c, 0, 55, 31
1, 352625, Control_c, 0, 64, 83
1, 352626, Note_off_c, 0, 60, 63
1, 352640, Note_off_c, 0, 67, 62
1, 352640, Control_c, 0, 64, 79
1, 352641, Note_off_c, 0, 55, 61
1, 352649, Note_on_c, 0, 63, 60
1, 352655, Control_c, 0, 64, 75
1, 352670, Control_c, 0, 64, 72
1, 352685, Control_c, 0, 64, 68
1, 352706, Control_c, 0, 64, 64
1, 352721, Control_c, 0, 64, 58
1, 352724, Note_on_c, 0, 67, 72
1, 352730, Note_off_c, 0, 63, 60
1, 352736, Control_c, 0, 64, 51
1, 352751, Control_c, 0, 64, 46
1, 352752, Note_on_c, 0, 59, 83
1, 352777, Note_off_c, 0, 67, 62
1, 352779, Note_off_c, 0, 59, 64
1, 352780, Note_on_c, 0, 45, 49
1, 352783, Note_on_c, 0, 47, 48
1, 352795, Note_on_c, 0, 62, 74
1, 352810, Note_off_c, 0, 45, 34
1, 352815, Note_off_c, 0, 47, 56
1, 352833, Note_off_c, 0, 62, 61
1, 352841, Control_c, 0, 64, 47
1, 352856, Control_c, 0, 64, 48
1, 352871, Control_c, 0, 64, 48
1, 352886, Note_on_c, 0, 67, 62
1, 352948, Note_off_c, 0, 67, 61
1, 352959, Control_c, 0, 64, 49
1, 352963, Note_on_c, 0, 71, 68
1, 352974, Note_on_c, 0, 55, 83
1, 352974, Control_c, 0, 64, 50
1, 352981, Note_on_c, 0, 43, 81
1, 352989, Control_c, 0, 64, 52
1, 352998, Note_off_c, 0, 55, 71
1, 353001, Note_off_c, 0, 71, 61
1, 353004, Control_c, 0, 64, 53
1, 353010, Note_off_c, 0, 43, 64
1, 353019, Control_c, 0, 64, 54
1, 353029, Note_on_c, 0, 67, 64
1, 353064, Control_c, 0, 64, 55
1, 353072, Note_off_c, 0, 67, 57
1, 353078, Control_c, 0, 64, 54
1, 353111, Note_on_c, 0, 71, 61
1, 353137, Control_c, 0, 64, 54
1, 353178, Note_off_c, 0, 71, 61
1, 353182, Control_c, 0, 64, 54
1, 353186, Note_on_c, 0, 74, 70
1, 353191, Note_on_c, 0, 50, 90
1, 353198, Note_on_c, 0, 38, 83
1, 353217, Note_off_c, 0, 50, 67
1, 353228, Note_off_c, 0, 38, 63
1, 353235, Note_off_c, 0, 74, 64
1, 353241, Control_c, 0, 64, 55
1, 353261, Note_on_c, 0, 71, 63
1, 353296, Note_off_c, 0, 71, 60
1, 353315, Control_c, 0, 64, 54
1, 353344, Control_c, 0, 64, 54
1, 353350, Note_on_c, 0, 74, 44
1, 353380, Note_on_c, 0, 76, 5
1, 353398, Note_off_c, 0, 74, 56
1, 353410, Note_on_c, 0, 47, 88
1, 353414, Note_on_c, 0, 35, 82
1, 353417, Note_on_c, 0, 79, 69
1, 353418, Control_c, 0, 64, 54
1, 353429, Note_off_c, 0, 76, 27
1, 353434, Note_off_c, 0, 47, 69
1, 353439, Note_off_c, 0, 35, 66
1, 353468, Note_off_c, 0, 79, 62
1, 353471, Control_c, 0, 64, 54
1, 353485, Control_c, 0, 64, 53
1, 353496, Note_on_c, 0, 74, 64
1, 353500, Control_c, 0, 64, 50
1, 353515, Control_c, 0, 64, 43
1, 353528, Note_off_c, 0, 74, 60
1, 353529, Control_c, 0, 64, 10
1, 353544, Control_c, 0, 64, 0
1, 353568, Note_on_c, 0, 79, 61
1, 353642, Note_off_c, 0, 79, 60
1, 353646, Note_on_c, 0, 83, 68
1, 353649, Note_on_c, 0, 43, 84
1, 353653, Note_on_c, 0, 31, 79
1, 353679, Control_c, 0, 64, 59
1, 353694, Control_c, 0, 64, 66
1, 353708, Control_c, 0, 64, 69
1, 353713, Note_off_c, 0, 83, 60
1, 353723, Control_c, 0, 64, 73
1, 353734, Note_on_c, 0, 79, 55
1, 353738, Control_c, 0, 64, 76
1, 353752, Control_c, 0, 64, 81
1, 353767, Control_c, 0, 64, 84
1, 353782, Control_c, 0, 64, 87
1, 353795, Note_off_c, 0, 79, 59
1, 353797, Control_c, 0, 64, 90
1, 353806, Note_on_c, 0, 83, 56
1, 353812, Control_c, 0, 64, 93
1, 353827, Control_c, 0, 64, 95
1, 353842, Control_c, 0, 64, 98
1, 353857, Control_c, 0, 64, 101
1, 353871, Control_c, 0, 64, 103
1, 353883, Note_off_c, 0, 43, 56
1, 353884, Note_off_c, 0, 83, 58
1, 353886, Control_c, 0, 64, 105
1, 353891, Note_on_c, 0, 86, 72
1, 353901, Control_c, 0, 64, 107
1, 353916, Control_c, 0, 64, 109
1, 353931, Control_c, 0, 64, 111
1, 353945, Control_c, 0, 64, 113
1, 353957, Note_off_c, 0, 86, 63
1, 353959, Note_on_c, 0, 83, 67
1, 353960, Control_c, 0, 64, 114
1, 353974, Note_off_c, 0, 31, 37
1, 353975, Control_c, 0, 64, 115
1, 353990, Control_c, 0, 64, 116
1, 354005, Control_c, 0, 64, 117
1, 354019, Control_c, 0, 64, 118
1, 354027, Note_off_c, 0, 83, 62
1, 354032, Note_on_c, 0, 86, 75
1, 354034, Control_c, 0, 64, 120
1, 354049, Control_c, 0, 64, 121
1, 354064, Control_c, 0, 64, 120
1, 354079, Control_c, 0, 64, 111
1, 354094, Control_c, 0, 64, 94
1, 354108, Control_c, 0, 64, 74
1, 354120, Note_off_c, 0, 86, 62
1, 354123, Control_c, 0, 64, 0
1, 354143, Note_on_c, 0, 37, 60
1, 354152, Note_on_c, 0, 82, 72
1, 354183, Control_c, 0, 64, 64
1, 354205, Control_c, 0, 64, 74
1, 354220, Control_c, 0, 64, 84
1, 354226, Note_off_c, 0, 82, 64
1, 354229, Note_off_c, 0, 37, 63
1, 354235, Control_c, 0, 64, 94
1, 354241, Note_on_c, 0, 34, 63
1, 354247, Note_on_c, 0, 85, 74
1, 354250, Control_c, 0, 64, 99
1, 354265, Control_c, 0, 64, 101
1, 354280, Control_c, 0, 64, 103
1, 354295, Control_c, 0, 64, 104
1, 354309, Control_c, 0, 64, 106
1, 354313, Note_off_c, 0, 34, 64
1, 354317, Note_on_c, 0, 82, 78
1, 354318, Note_on_c, 0, 37, 58
1, 354322, Note_off_c, 0, 85, 61
1, 354324, Control_c, 0, 64, 109
1, 354339, Control_c, 0, 64, 111
1, 354353, Control_c, 0, 64, 112
1, 354354, Note_off_c, 0, 37, 64
1, 354361, Note_on_c, 0, 42, 68
1, 354367, Note_off_c, 0, 82, 61
1, 354368, Control_c, 0, 64, 112
1, 354377, Note_on_c, 0, 78, 75
1, 354383, Control_c, 0, 64, 113
1, 354395, Note_off_c, 0, 42, 64
1, 354406, Note_off_c, 0, 78, 62
1, 354450, Note_on_c, 0, 82, 71
1, 354450, Note_on_c, 0, 37, 60
1, 354518, Note_on_c, 0, 78, 75
1, 354524, Note_on_c, 0, 42, 66
1, 354527, Note_off_c, 0, 37, 64
1, 354530, Note_off_c, 0, 82, 62
1, 354572, Note_off_c, 0, 78, 63
1, 354574, Note_off_c, 0, 42, 62
1, 354585, Note_on_c, 0, 73, 70
1, 354592, Note_on_c, 0, 46, 68
1, 354614, Note_off_c, 0, 73, 65
1, 354620, Note_off_c, 0, 46, 64
1, 354653, Note_on_c, 0, 78, 76
1, 354678, Note_on_c, 0, 42, 58
1, 354724, Note_on_c, 0, 73, 73
1, 354735, Note_on_c, 0, 46, 62
1, 354738, Note_off_c, 0, 78, 62
1, 354745, Note_off_c, 0, 42, 62
1, 354754, Control_c, 0, 64, 113
1, 354769, Control_c, 0, 64, 114
1, 354781, Note_off_c, 0, 73, 63
1, 354784, Control_c, 0, 64, 116
1, 354790, Note_off_c, 0, 46, 62
1, 354792, Note_on_c, 0, 70, 73
1, 354798, Control_c, 0, 64, 118
1, 354800, Note_on_c, 0, 49, 72
1, 354813, Control_c, 0, 64, 120
1, 354828, Control_c, 0, 64, 121
1, 354829, Note_off_c, 0, 49, 64
1, 354836, Note_off_c, 0, 70, 62
1, 354858, Control_c, 0, 64, 121
1, 354862, Note_on_c, 0, 73, 69
1, 354891, Note_on_c, 0, 46, 65
1, 354937, Note_on_c, 0, 70, 75
1, 354942, Note_off_c, 0, 73, 63
1, 354954, Control_c, 0, 64, 122
1, 354969, Control_c, 0, 64, 122
1, 354974, Note_on_c, 0, 51, 63
1, 354977, Note_off_c, 0, 46, 61
1, 354983, Control_c, 0, 64, 123
1, 354998, Control_c, 0, 64, 124
1, 355000, Note_off_c, 0, 70, 64
1, 355011, Note_on_c, 0, 66, 79
1, 355019, Note_off_c, 0, 51, 59
1, 355038, Note_off_c, 0, 66, 65
1, 355046, Note_on_c, 0, 54, 56
1, 355072, Note_off_c, 0, 54, 59
1, 355083, Note_on_c, 0, 70, 79
1, 355120, Note_on_c, 0, 49, 62
1, 355162, Control_c, 0, 64, 123
1, 355170, Note_on_c, 0, 66, 77
1, 355176, Control_c, 0, 64, 123
1, 355177, Note_off_c, 0, 70, 62
1, 355188, Note_on_c, 0, 54, 65
1, 355200, Note_off_c, 0, 49, 61
1, 355206, Control_c, 0, 64, 122
1, 355236, Note_on_c, 0, 61, 75
1, 355237, Control_c, 0, 64, 122
1, 355238, Note_off_c, 0, 66, 64
1, 355252, Control_c, 0, 64, 121
1, 355266, Control_c, 0, 64, 120
1, 355269, Note_off_c, 0, 54, 61
1, 355281, Control_c, 0, 64, 118
1, 355290, Note_off_c, 0, 61, 62
1, 355295, Note_on_c, 0, 58, 59
1, 355296, Control_c, 0, 64, 117
1, 355311, Control_c, 0, 64, 115
1, 355323, Note_on_c, 0, 66, 80
1, 355326, Control_c, 0, 64, 113
1, 355341, Control_c, 0, 64, 111
1, 355355, Control_c, 0, 64, 108
1, 355356, Note_on_c, 0, 54, 56
1, 355370, Control_c, 0, 64, 104
1, 355373, Note_off_c, 0, 66, 66
1, 355378, Note_on_c, 0, 61, 69
1, 355385, Note_off_c, 0, 54, 61
1, 355385, Control_c, 0, 64, 99
1, 355394, Note_off_c, 0, 58, 63
1, 355399, Control_c, 0, 64, 94
1, 355404, Note_off_c, 0, 61, 66
1, 355414, Control_c, 0, 64, 88
1, 355429, Control_c, 0, 64, 82
1, 355444, Control_c, 0, 64, 76
1, 355454, Note_on_c, 0, 65, 75
1, 355459, Control_c, 0, 64, 69
1, 355463, Note_on_c, 0, 57, 91
1, 355470, Note_on_c, 0, 45, 83
1, 355473, Control_c, 0, 64, 59
1, 355484, Note_off_c, 0, 57, 70
1, 355488, Control_c, 0, 64, 0
1, 355496, Note_off_c, 0, 45, 68
1, 355516, Note_off_c, 0, 65, 65
1, 355528, Note_on_c, 0, 60, 69
1, 355574, Note_off_c, 0, 60, 56
1, 355609, Note_on_c, 0, 65, 63
1, 355674, Note_off_c, 0, 65, 62
1, 355678, Note_on_c, 0, 69, 75
1, 355681, Note_on_c, 0, 53, 89
1, 355689, Note_on_c, 0, 41, 85
1, 355716, Note_off_c, 0, 53, 67
1, 355718, Control_c, 0, 64, 25
1, 355726, Note_off_c, 0, 41, 69
1, 355732, Note_off_c, 0, 69, 65
1, 355732, Control_c, 0, 64, 34
1, 355746, Note_on_c, 0, 65, 68
1, 355747, Control_c, 0, 64, 40
1, 355762, Control_c, 0, 64, 43
1, 355809, Note_off_c, 0, 65, 63
1, 355821, Control_c, 0, 64, 43
1, 355832, Note_on_c, 0, 69, 70
1, 355895, Control_c, 0, 64, 44
1, 355899, Note_off_c, 0, 69, 63
1, 355904, Note_on_c, 0, 48, 95
1, 355910, Note_on_c, 0, 72, 75
1, 355910, Note_on_c, 0, 36, 82
1, 355910, Control_c, 0, 64, 45
1, 355925, Control_c, 0, 64, 47
1, 355937, Note_off_c, 0, 48, 67
1, 355940, Control_c, 0, 64, 50
1, 355942, Note_off_c, 0, 36, 70
1, 355955, Control_c, 0, 64, 54
1, 355958, Note_off_c, 0, 72, 63
1, 355970, Control_c, 0, 64, 57
1, 355976, Note_on_c, 0, 69, 73
1, 355985, Control_c, 0, 64, 58
1, 355999, Control_c, 0, 64, 58
1, 356017, Note_off_c, 0, 69, 58
1, 356053, Note_on_c, 0, 72, 70
1, 356059, Control_c, 0, 64, 59
1, 356074, Control_c, 0, 64, 59
1, 356089, Control_c, 0, 64, 60
1, 356104, Control_c, 0, 64, 61
1, 356116, Note_off_c, 0, 72, 65
1, 356119, Control_c, 0, 64, 62
1, 356121, Note_on_c, 0, 45, 84
1, 356128, Note_on_c, 0, 33, 81
1, 356128, Note_on_c, 0, 77, 70
1, 356134, Control_c, 0, 64, 63
1, 356146, Note_off_c, 0, 45, 67
1, 356148, Control_c, 0, 64, 64
1, 356156, Note_off_c, 0, 33, 64
1, 356160, Note_on_c, 0, 76, 40
1, 356161, Note_off_c, 0, 76, 127
1, 356163, Control_c, 0, 64, 65
1, 356178, Control_c, 0, 64, 65
1, 356184, Note_off_c, 0, 77, 62
1, 356193, Control_c, 0, 64, 66
1, 356200, Note_on_c, 0, 72, 67
1, 356208, Control_c, 0, 64, 67
1, 356222, Control_c, 0, 64, 68
1, 356237, Control_c, 0, 64, 69
1, 356252, Control_c, 0, 64, 70
1, 356253, Note_off_c, 0, 72, 56
1, 356263, Note_on_c, 0, 77, 70
1, 356296, Control_c, 0, 64, 68
1, 356311, Control_c, 0, 64, 32
1, 356326, Control_c, 0, 64, 0
1, 356339, Note_off_c, 0, 77, 62
1, 356341, Note_on_c, 0, 29, 86
1, 356343, Note_on_c, 0, 41, 91
1, 356343, Note_on_c, 0, 81, 80
1, 356387, Note_off_c, 0, 29, 62
1, 356400, Control_c, 0, 64, 67
1, 356402, Note_off_c, 0, 81, 63
1, 356406, Note_off_c, 0, 41, 65
1, 356415, Control_c, 0, 64, 77
1, 356418, Note_on_c, 0, 77, 70
1, 356429, Control_c, 0, 64, 93
1, 356452, Control_c, 0, 64, 108
1, 356467, Control_c, 0, 64, 122
1, 356479, Note_on_c, 0, 81, 75
1, 356482, Control_c, 0, 64, 127
1, 356484, Note_off_c, 0, 77, 62
1, 356552, Note_off_c, 0, 81, 62
1, 356565, Note_on_c, 0, 84, 79
1, 356623, Note_off_c, 0, 84, 64
1, 356633, Note_on_c, 0, 81, 80
1, 356694, Note_on_c, 0, 84, 69
1, 356694, Note_off_c, 0, 81, 63
1, 356711, Note_off_c, 0, 84, 67
1, 356793, Control_c, 0, 64, 112
1, 356808, Control_c, 0, 64, 89
1, 356813, Note_on_c, 0, 51, 70
1, 356823, Control_c, 0, 64, 75
1, 356833, Note_on_c, 0, 72, 73
1, 356838, Control_c, 0, 64, 68
1, 356852, Control_c, 0, 64, 68
1, 356867, Control_c, 0, 64, 72
1, 356882, Control_c, 0, 64, 79
1, 356888, Note_off_c, 0, 51, 60
1, 356891, Note_off_c, 0, 72, 63
1, 356897, Control_c, 0, 64, 86
1, 356903, Note_on_c, 0, 66, 73
1, 356905, Note_on_c, 0, 56, 70
1, 356912, Control_c, 0, 64, 91
1, 356927, Control_c, 0, 64, 93
1, 356945, Note_off_c, 0, 56, 62
1, 356948, Note_off_c, 0, 66, 64
1, 356954, Note_on_c, 0, 51, 41
1, 356969, Note_on_c, 0, 72, 63
1, 357004, Note_off_c, 0, 51, 57
1, 357025, Note_on_c, 0, 48, 66
1, 357025, Note_off_c, 0, 72, 64
1, 357028, Note_on_c, 0, 75, 78
1, 357031, Control_c, 0, 64, 92
1, 357045, Control_c, 0, 64, 91
1, 357053, Note_off_c, 0, 48, 66
1, 357060, Control_c, 0, 64, 89
1, 357075, Control_c, 0, 64, 87
1, 357079, Note_on_c, 0, 51, 65
1, 357082, Note_off_c, 0, 75, 65
1, 357090, Poly_aftertouch_c, 0, 49, 0
1, 357090, Control_c, 0, 64, 85
1, 357101, Note_on_c, 0, 72, 63
1, 357105, Control_c, 0, 64, 80
1, 357112, Note_off_c, 0, 51, 64
1, 357119, Control_c, 0, 64, 74
1, 357134, Control_c, 0, 64, 69
1, 357141, Note_on_c, 0, 48, 62
1, 357149, Control_c, 0, 64, 65
1, 357164, Control_c, 0, 64, 63
1, 357166, Note_on_c, 0, 75, 69
1, 357168, Note_off_c, 0, 72, 63
1, 357178, Control_c, 0, 64, 65
1, 357201, Control_c, 0, 64, 71
1, 357214, Note_off_c, 0, 48, 63
1, 357216, Control_c, 0, 64, 76
1, 357227, Note_on_c, 0, 44, 73
1, 357231, Control_c, 0, 64, 80
1, 357237, Note_on_c, 0, 78, 82
1, 357241, Note_off_c, 0, 75, 64
1, 357246, Control_c, 0, 64, 82
1, 357260, Control_c, 0, 64, 83
1, 357275, Control_c, 0, 64, 85
1, 357283, Note_off_c, 0, 44, 62
1, 357287, Note_off_c, 0, 78, 62
1, 357290, Control_c, 0, 64, 89
1, 357304, Control_c, 0, 64, 94
1, 357305, Note_on_c, 0, 75, 74
1, 357311, Note_on_c, 0, 48, 78
1, 357318, Poly_aftertouch_c, 0, 43, 127
1, 357319, Control_c, 0, 64, 98
1, 357334, Control_c, 0, 64, 101
1, 357358, Poly_aftertouch_c, 0, 43, 0
1, 357371, Note_off_c, 0, 48, 61
1, 357378, Note_off_c, 0, 75, 57
1, 357378, Control_c, 0, 64, 100
1, 357386, Note_on_c, 0, 44, 64
1, 357393, Control_c, 0, 64, 96
1, 357394, Note_on_c, 0, 78, 77
1, 357408, Control_c, 0, 64, 91
1, 357423, Control_c, 0, 64, 87
1, 357428, Note_off_c, 0, 44, 64
1, 357438, Control_c, 0, 64, 86
1, 357445, Note_on_c, 0, 84, 78
1, 357452, Note_on_c, 0, 39, 74
1, 357456, Note_off_c, 0, 78, 62
1, 357467, Control_c, 0, 64, 87
1, 357482, Control_c, 0, 64, 90
1, 357496, Control_c, 0, 64, 94
1, 357508, Note_off_c, 0, 39, 62
1, 357511, Note_off_c, 0, 84, 63
1, 357511, Control_c, 0, 64, 99
1, 357524, Note_on_c, 0, 44, 76
1, 357526, Control_c, 0, 64, 101
1, 357532, Note_on_c, 0, 78, 76
1, 357541, Control_c, 0, 64, 103
1, 357556, Control_c, 0, 64, 103
1, 357564, Note_off_c, 0, 44, 57
1, 357575, Note_off_c, 0, 78, 62
1, 357586, Control_c, 0, 64, 104
1, 357594, Note_on_c, 0, 39, 58
1, 357596, Note_on_c, 0, 84, 74
1, 357616, Control_c, 0, 64, 104
1, 357647, Note_off_c, 0, 39, 63
1, 357657, Note_on_c, 0, 36, 66
1, 357659, Note_on_c, 0, 87, 84
1, 357662, Note_off_c, 0, 84, 64
1, 357701, Note_off_c, 0, 36, 64
1, 357713, Note_off_c, 0, 87, 64
1, 357726, Note_on_c, 0, 84, 81
1, 357728, Note_on_c, 0, 39, 57
1, 357763, Note_on_c, 0, 37, 69
1, 357764, Note_off_c, 0, 39, 62
1, 357764, Control_c, 0, 64, 104
1, 357779, Control_c, 0, 64, 102
1, 357787, Note_on_c, 0, 87, 79
1, 357794, Control_c, 0, 64, 99
1, 357795, Note_off_c, 0, 84, 59
1, 357809, Control_c, 0, 64, 92
1, 357824, Control_c, 0, 64, 81
1, 357839, Control_c, 0, 64, 68
1, 357839, Note_off_c, 0, 37, 65
1, 357854, Control_c, 0, 64, 0
1, 357859, Note_on_c, 0, 90, 93
1, 357859, Note_off_c, 0, 87, 64
1, 357865, Note_on_c, 0, 32, 72
1, 357898, Control_c, 0, 64, 44
1, 357913, Control_c, 0, 64, 65
1, 357927, Control_c, 0, 64, 70
1, 357945, Note_on_c, 0, 87, 84
1, 357949, Note_off_c, 0, 32, 62
1, 357949, Control_c, 0, 64, 74
1, 357951, Note_on_c, 0, 36, 65
1, 357955, Note_off_c, 0, 90, 64
1, 357964, Control_c, 0, 64, 75
1, 357979, Control_c, 0, 64, 76
1, 357994, Control_c, 0, 64, 78
1, 358009, Control_c, 0, 64, 81
1, 358013, Note_off_c, 0, 87, 59
1, 358014, Note_on_c, 0, 90, 86
1, 358024, Control_c, 0, 64, 84
1, 358037, Note_off_c, 0, 36, 64
1, 358039, Control_c, 0, 64, 87
1, 358041, Note_on_c, 0, 32, 77
1, 358054, Control_c, 0, 64, 90
1, 358069, Control_c, 0, 64, 92
1, 358083, Control_c, 0, 64, 93
1, 358098, Note_on_c, 0, 87, 85
1, 358098, Control_c, 0, 64, 94
1, 358107, Note_off_c, 0, 90, 62
1, 358113, Control_c, 0, 64, 95
1, 358114, Note_on_c, 0, 36, 67
1, 358116, Note_off_c, 0, 32, 62
1, 358142, Control_c, 0, 64, 94
1, 358157, Control_c, 0, 64, 90
1, 358167, Note_off_c, 0, 87, 63
1, 358172, Note_on_c, 0, 84, 86
1, 358172, Control_c, 0, 64, 82
1, 358187, Control_c, 0, 64, 70
1, 358188, Note_off_c, 0, 36, 63
1, 358193, Note_on_c, 0, 39, 73
1, 358201, Control_c, 0, 64, 54
1, 358216, Control_c, 0, 64, 33
1, 358231, Control_c, 0, 64, 62
1, 358244, Note_off_c, 0, 39, 60
1, 358245, Note_on_c, 0, 87, 85
1, 358246, Control_c, 0, 64, 71
1, 358259, Note_off_c, 0, 84, 62
1, 358261, Note_on_c, 0, 36, 59
1, 358261, Control_c, 0, 64, 79
1, 358275, Control_c, 0, 64, 88
1, 358290, Control_c, 0, 64, 94
1, 358305, Control_c, 0, 64, 97
1, 358319, Control_c, 0, 64, 98
1, 358321, Note_off_c, 0, 87, 62
1, 358322, Note_off_c, 0, 36, 60
1, 358324, Note_on_c, 0, 91, 88
1, 358331, Note_on_c, 0, 31, 76
1, 358334, Control_c, 0, 64, 99
1, 358349, Control_c, 0, 64, 101
1, 358364, Control_c, 0, 64, 102
1, 358379, Control_c, 0, 64, 105
1, 358393, Control_c, 0, 64, 107
1, 358403, Note_on_c, 0, 87, 76
1, 358408, Control_c, 0, 64, 108
1, 358417, Note_off_c, 0, 91, 57
1, 358418, Note_off_c, 0, 31, 61
1, 358423, Note_on_c, 0, 36, 74
1, 358424, Control_c, 0, 64, 108
1, 358454, Control_c, 0, 64, 109
1, 358469, Note_on_c, 0, 91, 79
1, 358469, Control_c, 0, 64, 110
1, 358475, Note_off_c, 0, 87, 62
1, 358484, Control_c, 0, 64, 112
1, 358498, Control_c, 0, 64, 112
1, 358504, Note_off_c, 0, 36, 63
1, 358506, Note_on_c, 0, 31, 71
1, 358543, Control_c, 0, 64, 111
1, 358547, Note_on_c, 0, 86, 80
1, 358557, Control_c, 0, 64, 109
1, 358559, Note_off_c, 0, 91, 58
1, 358572, Control_c, 0, 64, 103
1, 358584, Note_off_c, 0, 31, 62
1, 358587, Control_c, 0, 64, 92
1, 358588, Note_on_c, 0, 36, 77
1, 358602, Control_c, 0, 64, 78
1, 358614, Note_off_c, 0, 86, 65
1, 358617, Control_c, 0, 64, 67
1, 358620, Note_on_c, 0, 84, 78
1, 358632, Control_c, 0, 64, 64
1, 358647, Control_c, 0, 64, 69
1, 358656, Note_off_c, 0, 36, 62
1, 358662, Control_c, 0, 64, 75
1, 358668, Note_on_c, 0, 38, 73
1, 358677, Control_c, 0, 64, 82
1, 358689, Note_on_c, 0, 86, 80
1, 358698, Control_c, 0, 64, 90
1, 358711, Note_off_c, 0, 84, 62
1, 358713, Control_c, 0, 64, 94
1, 358727, Note_off_c, 0, 38, 58
1, 358728, Control_c, 0, 64, 95
1, 358730, Note_on_c, 0, 36, 63
1, 358757, Control_c, 0, 64, 93
1, 358772, Control_c, 0, 64, 87
1, 358786, Note_on_c, 0, 92, 98
1, 358787, Note_off_c, 0, 86, 59
1, 358787, Control_c, 0, 64, 75
1, 358793, Note_off_c, 0, 36, 64
1, 358802, Control_c, 0, 64, 52
1, 358811, Note_on_c, 0, 29, 79
1, 358812, Note_on_c, 0, 93, 69
1, 358817, Control_c, 0, 64, 0
1, 358827, Note_off_c, 0, 93, 62
1, 358859, Note_on_c, 0, 86, 80
1, 358861, Control_c, 0, 64, 64
1, 358872, Note_off_c, 0, 92, 63
1, 358876, Control_c, 0, 64, 71
1, 358887, Note_on_c, 0, 36, 66
1, 358891, Control_c, 0, 64, 77
1, 358897, Note_off_c, 0, 29, 62
1, 358906, Control_c, 0, 64, 80
1, 358921, Control_c, 0, 64, 81
1, 358936, Control_c, 0, 64, 81
1, 358937, Note_off_c, 0, 86, 62
1, 358939, Note_on_c, 0, 92, 83
1, 358950, Control_c, 0, 64, 83
1, 358965, Control_c, 0, 64, 84
1, 358980, Control_c, 0, 64, 86
1, 358982, Note_on_c, 0, 29, 69
1, 358995, Control_c, 0, 64, 87
1, 359002, Note_on_c, 0, 86, 76
1, 359008, Note_off_c, 0, 36, 50
1, 359010, Control_c, 0, 64, 88
1, 359024, Control_c, 0, 64, 90
1, 359039, Note_off_c, 0, 92, 55
1, 359039, Control_c, 0, 64, 92
1, 359045, Note_off_c, 0, 29, 59
1, 359054, Control_c, 0, 64, 93
1, 359055, Note_on_c, 0, 38, 70
1, 359068, Control_c, 0, 64, 93
1, 359069, Note_off_c, 0, 86, 63
1, 359073, Note_on_c, 0, 84, 79
1, 359088, Note_on_c, 0, 92, 22
1, 359112, Note_off_c, 0, 38, 58
1, 359113, Control_c, 0, 64, 93
1, 359124, Note_on_c, 0, 36, 74
1, 359126, Note_off_c, 0, 92, 57
1, 359128, Control_c, 0, 64, 92
1, 359130, Note_on_c, 0, 86, 77
1, 359139, Note_off_c, 0, 84, 61
1, 359142, Control_c, 0, 64, 88
1, 359157, Control_c, 0, 64, 82
1, 359172, Control_c, 0, 64, 72
1, 359187, Control_c, 0, 64, 54
1, 359202, Control_c, 0, 64, 0
1, 359205, Note_on_c, 0, 92, 97
1, 359207, Note_off_c, 0, 36, 63
1, 359213, Note_off_c, 0, 86, 64
1, 359216, Note_on_c, 0, 29, 83
1, 359247, Control_c, 0, 64, 59
1, 359262, Control_c, 0, 64, 69
1, 359277, Control_c, 0, 64, 75
1, 359282, Note_on_c, 0, 86, 86
1, 359291, Note_on_c, 0, 36, 70
1, 359292, Control_c, 0, 64, 79
1, 359301, Note_off_c, 0, 92, 65
1, 359307, Control_c, 0, 64, 80
1, 359310, Note_off_c, 0, 29, 61
1, 359321, Control_c, 0, 64, 80
1, 359336, Control_c, 0, 64, 81
1, 359349, Note_off_c, 0, 86, 64
1, 359351, Control_c, 0, 64, 83
1, 359360, Note_on_c, 0, 92, 75
1, 359365, Control_c, 0, 64, 85
1, 359380, Control_c, 0, 64, 87
1, 359394, Note_on_c, 0, 29, 65
1, 359395, Control_c, 0, 64, 88
1, 359410, Control_c, 0, 64, 90
1, 359413, Note_on_c, 0, 86, 77
1, 359418, Note_off_c, 0, 36, 58
1, 359425, Control_c, 0, 64, 90
1, 359447, Control_c, 0, 64, 91
1, 359461, Note_off_c, 0, 92, 57
1, 359478, Note_off_c, 0, 29, 62
1, 359480, Note_on_c, 0, 38, 58
1, 359497, Note_off_c, 0, 86, 62
1, 359503, Note_on_c, 0, 84, 77
1, 359506, Control_c, 0, 64, 90
1, 359521, Control_c, 0, 64, 89
1, 359522, Note_on_c, 0, 92, 19
1, 359529, Note_on_c, 0, 36, 65
1, 359534, Note_off_c, 0, 38, 60
1, 359536, Control_c, 0, 64, 88
1, 359551, Control_c, 0, 64, 87
1, 359559, Note_on_c, 0, 86, 77
1, 359561, Note_off_c, 0, 92, 55
1, 359566, Note_off_c, 0, 84, 64
1, 359566, Control_c, 0, 64, 86
1, 359580, Control_c, 0, 64, 86
1, 359595, Control_c, 0, 64, 85
1, 359610, Control_c, 0, 64, 84
1, 359613, Note_off_c, 0, 36, 63
1, 359625, Note_on_c, 0, 29, 76
1, 359625, Control_c, 0, 64, 82
1, 359638, Note_on_c, 0, 92, 93
1, 359640, Control_c, 0, 64, 77
1, 359641, Note_off_c, 0, 86, 65
1, 359654, Control_c, 0, 64, 70
1, 359669, Control_c, 0, 64, 56
1, 359684, Control_c, 0, 64, 0
1, 359702, Note_on_c, 0, 36, 64
1, 359711, Note_off_c, 0, 29, 62
1, 359712, Note_on_c, 0, 86, 85
1, 359729, Control_c, 0, 64, 52
1, 359730, Note_off_c, 0, 92, 65
1, 359744, Control_c, 0, 64, 67
1, 359759, Control_c, 0, 64, 72
1, 359771, Note_off_c, 0, 86, 65
1, 359773, Control_c, 0, 64, 77
1, 359775, Note_on_c, 0, 29, 63
1, 359777, Note_off_c, 0, 36, 62
1, 359782, Note_on_c, 0, 92, 80
1, 359788, Control_c, 0, 64, 79
1, 359803, Control_c, 0, 64, 81
1, 359818, Control_c, 0, 64, 82
1, 359833, Control_c, 0, 64, 85
1, 359845, Control_c, 0, 64, 87
1, 359848, Note_on_c, 0, 86, 82
1, 359860, Control_c, 0, 64, 88
1, 359862, Note_off_c, 0, 29, 61
1, 359866, Note_on_c, 0, 38, 55
1, 359871, Note_off_c, 0, 92, 65
1, 359875, Control_c, 0, 64, 89
1, 359901, Note_on_c, 0, 36, 58
1, 359902, Note_off_c, 0, 86, 62
1, 359911, Note_on_c, 0, 84, 73
1, 359919, Note_off_c, 0, 38, 63
1, 359920, Control_c, 0, 64, 88
1, 359935, Control_c, 0, 64, 85
1, 359949, Control_c, 0, 64, 79
1, 359964, Control_c, 0, 64, 70
1, 359979, Control_c, 0, 64, 0
1, 359979, Note_off_c, 0, 36, 64
1, 359986, Note_on_c, 0, 86, 79
1, 359991, Note_on_c, 0, 32, 70
1, 359993, Note_off_c, 0, 84, 62
1, 360048, Note_off_c, 0, 32, 62
1, 360052, Note_on_c, 0, 89, 87
1, 360056, Note_off_c, 0, 86, 64
1, 360062, Note_on_c, 0, 36, 57
1, 360069, Control_c, 0, 64, 41
1, 360084, Control_c, 0, 64, 64
1, 360099, Control_c, 0, 64, 68
1, 360113, Control_c, 0, 64, 71
1, 360125, Note_off_c, 0, 36, 62
1, 360128, Control_c, 0, 64, 74
1, 360130, Note_on_c, 0, 86, 86
1, 360131, Note_off_c, 0, 89, 65
1, 360137, Note_on_c, 0, 32, 65
1, 360143, Control_c, 0, 64, 76
1, 360158, Control_c, 0, 64, 79
1, 360173, Control_c, 0, 64, 81
1, 360194, Control_c, 0, 64, 83
1, 360197, Note_off_c, 0, 86, 61
1, 360200, Note_off_c, 0, 32, 62
1, 360209, Control_c, 0, 64, 84
1, 360211, Note_on_c, 0, 89, 83
1, 360224, Control_c, 0, 64, 85
1, 360230, Note_on_c, 0, 35, 62
1, 360268, Control_c, 0, 64, 82
1, 360283, Note_off_c, 0, 89, 65
1, 360283, Control_c, 0, 64, 75
1, 360284, Note_on_c, 0, 86, 81
1, 360288, Note_off_c, 0, 35, 62
1, 360298, Control_c, 0, 64, 64
1, 360311, Note_on_c, 0, 38, 54
1, 360313, Control_c, 0, 64, 0
1, 360343, Note_off_c, 0, 86, 64
1, 360350, Note_on_c, 0, 83, 74
1, 360356, Note_off_c, 0, 38, 61
1, 360358, Control_c, 0, 64, 35
1, 360371, Note_on_c, 0, 35, 53
1, 360373, Control_c, 0, 64, 65
1, 360388, Control_c, 0, 64, 70
1, 360402, Control_c, 0, 64, 73
1, 360417, Control_c, 0, 64, 75
1, 360432, Control_c, 0, 64, 75
1, 360435, Note_on_c, 0, 86, 78
1, 360437, Note_off_c, 0, 35, 62
1, 360447, Control_c, 0, 64, 76
1, 360449, Note_off_c, 0, 83, 51
1, 360457, Note_on_c, 0, 31, 69
1, 360462, Control_c, 0, 64, 77
1, 360476, Control_c, 0, 64, 79
1, 360491, Control_c, 0, 64, 81
1, 360506, Control_c, 0, 64, 83
1, 360509, Note_off_c, 0, 86, 64
1, 360511, Note_on_c, 0, 91, 84
1, 360520, Control_c, 0, 64, 84
1, 360535, Control_c, 0, 64, 84
1, 360545, Note_off_c, 0, 31, 63
1, 360546, Note_on_c, 0, 35, 73
1, 360595, Note_on_c, 0, 86, 81
1, 360610, Note_off_c, 0, 91, 57
1, 360610, Control_c, 0, 64, 84
1, 360617, Note_off_c, 0, 35, 61
1, 360625, Control_c, 0, 64, 82
1, 360634, Note_on_c, 0, 31, 72
1, 360639, Control_c, 0, 64, 80
1, 360654, Control_c, 0, 64, 75
1, 360665, Note_off_c, 0, 86, 59
1, 360669, Control_c, 0, 64, 65
1, 360682, Note_on_c, 0, 91, 80
1, 360684, Control_c, 0, 64, 0
1, 360739, Note_on_c, 0, 36, 63
1, 360739, Note_off_c, 0, 31, 60
1, 360773, Control_c, 0, 64, 62
1, 360776, Note_off_c, 0, 91, 58
1, 360781, Note_on_c, 0, 87, 73
1, 360787, Control_c, 0, 64, 73
1, 360802, Control_c, 0, 64, 83
1, 360818, Note_off_c, 0, 36, 63
1, 360818, Control_c, 0, 64, 95
1, 360826, Note_on_c, 0, 39, 64
1, 360833, Control_c, 0, 64, 108
1, 360848, Control_c, 0, 64, 121
1, 360854, Note_off_c, 0, 87, 64
1, 360859, Note_on_c, 0, 91, 84
1, 360863, Control_c, 0, 64, 127
1, 360886, Note_off_c, 0, 39, 61
1, 360901, Note_on_c, 0, 43, 68
1, 360923, Note_on_c, 0, 87, 76
1, 360942, Note_off_c, 0, 91, 57
1, 360956, Note_off_c, 0, 43, 58
1, 360983, Note_off_c, 0, 87, 66
1, 361005, Note_on_c, 0, 79, 78
1, 361007, Note_on_c, 0, 39, 59
1, 361054, Note_off_c, 0, 79, 60
1, 361061, Note_on_c, 0, 43, 65
1, 361066, Note_off_c, 0, 39, 60
1, 361087, Note_on_c, 0, 84, 64
1, 361107, Note_off_c, 0, 43, 60
1, 361107, Control_c, 0, 64, 117
1, 361122, Note_off_c, 0, 84, 42
1, 361122, Control_c, 0, 64, 103
1, 361129, Note_on_c, 0, 48, 74
1, 361137, Control_c, 0, 64, 94
1, 361151, Control_c, 0, 64, 87
1, 361166, Control_c, 0, 64, 80
1, 361168, Note_off_c, 0, 48, 65
1, 361171, Note_on_c, 0, 75, 50
1, 361181, Control_c, 0, 64, 74
1, 361196, Control_c, 0, 64, 69
1, 361211, Control_c, 0, 64, 64
1, 361221, Note_on_c, 0, 43, 60
1, 361225, Note_on_c, 0, 77, 76
1, 361225, Control_c, 0, 64, 57
1, 361233, Note_off_c, 0, 75, 59
1, 361240, Control_c, 0, 64, 52
1, 361255, Control_c, 0, 64, 53
1, 361270, Control_c, 0, 64, 54
1, 361285, Control_c, 0, 64, 55
1, 361285, Note_on_c, 0, 47, 68
1, 361289, Note_off_c, 0, 43, 61
1, 361306, Note_off_c, 0, 77, 61
1, 361310, Note_on_c, 0, 80, 81
1, 361330, Control_c, 0, 64, 55
1, 361344, Control_c, 0, 64, 56
1, 361350, Note_off_c, 0, 47, 63
1, 361363, Note_on_c, 0, 50, 50
1, 361368, Note_off_c, 0, 80, 64
1, 361374, Control_c, 0, 64, 56
1, 361380, Note_on_c, 0, 74, 67
1, 361393, Note_off_c, 0, 50, 59
1, 361415, Note_off_c, 0, 74, 64
1, 361418, Control_c, 0, 64, 56
1, 361420, Note_on_c, 0, 43, 62
1, 361433, Control_c, 0, 64, 55
1, 361448, Control_c, 0, 64, 54
1, 361455, Note_on_c, 0, 74, 56
1, 361462, Control_c, 0, 64, 53
1, 361477, Control_c, 0, 64, 52
1, 361494, Note_on_c, 0, 50, 58
1, 361502, Note_off_c, 0, 43, 62
1, 361534, Note_on_c, 0, 77, 71
1, 361534, Note_off_c, 0, 74, 64
1, 361569, Note_off_c, 0, 50, 63
1, 361579, Note_on_c, 0, 53, 63
1, 361581, Control_c, 0, 64, 52
1, 361603, Note_off_c, 0, 77, 60
1, 361612, Control_c, 0, 64, 53
1, 361617, Note_on_c, 0, 71, 62
1, 361627, Control_c, 0, 64, 53
1, 361631, Note_off_c, 0, 53, 58
1, 361641, Control_c, 0, 64, 54
1, 361669, Note_on_c, 0, 48, 61
1, 361671, Control_c, 0, 64, 54
1, 361690, Note_off_c, 0, 71, 56
1, 361696, Note_on_c, 0, 72, 67
1, 361753, Control_c, 0, 64, 55
1, 361760, Note_off_c, 0, 48, 62
1, 361768, Note_on_c, 0, 51, 59
1, 361771, Note_off_c, 0, 72, 62
1, 361778, Note_on_c, 0, 75, 72
1, 361812, Control_c, 0, 64, 55
1, 361837, Note_off_c, 0, 75, 65
1, 361838, Note_off_c, 0, 51, 60
1, 361846, Note_on_c, 0, 55, 52
1, 361862, Note_on_c, 0, 67, 64
1, 361900, Control_c, 0, 64, 56
1, 361910, Note_off_c, 0, 67, 57
1, 361926, Note_off_c, 0, 55, 57
1, 361932, Note_on_c, 0, 48, 51
1, 361945, Control_c, 0, 64, 56
1, 361962, Note_on_c, 0, 63, 59
1, 362004, Control_c, 0, 64, 57
1, 362019, Control_c, 0, 64, 57
1, 362021, Note_on_c, 0, 51, 45
1, 362021, Note_off_c, 0, 48, 60
1, 362034, Control_c, 0, 64, 59
1, 362042, Note_on_c, 0, 67, 57
1, 362045, Note_off_c, 0, 63, 57
1, 362048, Control_c, 0, 64, 62
1, 362063, Control_c, 0, 64, 63
1, 362078, Control_c, 0, 64, 64
1, 362093, Control_c, 0, 64, 65
1, 362108, Control_c, 0, 64, 66
1, 362123, Control_c, 0, 64, 68
1, 362126, Note_off_c, 0, 51, 55
1, 362129, Note_on_c, 0, 55, 48
1, 362135, Note_off_c, 0, 67, 61
1, 362137, Control_c, 0, 64, 70
1, 362149, Note_on_c, 0, 60, 54
1, 362152, Control_c, 0, 64, 72
1, 362167, Control_c, 0, 64, 74
1, 362176, Note_off_c, 0, 55, 59
1, 362182, Control_c, 0, 64, 76
1, 362192, Note_off_c, 0, 60, 59
1, 362197, Control_c, 0, 64, 78
1, 362212, Control_c, 0, 64, 79
1, 362227, Control_c, 0, 64, 81
1, 362241, Control_c, 0, 64, 82
1, 362256, Control_c, 0, 64, 83
1, 362271, Control_c, 0, 64, 85
1, 362285, Control_c, 0, 64, 86
1, 362300, Control_c, 0, 64, 87
1, 362315, Control_c, 0, 64, 87
1, 362330, Control_c, 0, 64, 88
1, 362471, Control_c, 0, 64, 87
1, 362478, Note_on_c, 0, 60, 52
1, 362486, Control_c, 0, 64, 85
1, 362500, Note_on_c, 0, 55, 36
1, 362501, Control_c, 0, 64, 83
1, 362511, Note_on_c, 0, 51, 41
1, 362516, Control_c, 0, 64, 80
1, 362519, Note_on_c, 0, 48, 42
1, 362531, Control_c, 0, 64, 74
1, 362546, Control_c, 0, 64, 67
1, 362561, Control_c, 0, 64, 0
1, 362665, Control_c, 0, 64, 55
1, 362680, Control_c, 0, 64, 64
1, 362695, Control_c, 0, 64, 66
1, 362710, Control_c, 0, 64, 68
1, 362724, Control_c, 0, 64, 70
1, 362739, Control_c, 0, 64, 72
1, 362754, Control_c, 0, 64, 77
1, 362769, Control_c, 0, 64, 81
1, 362784, Control_c, 0, 64, 85
1, 362798, Control_c, 0, 64, 89
1, 362813, Control_c, 0, 64, 92
1, 362828, Control_c, 0, 64, 95
1, 362843, Control_c, 0, 64, 98
1, 362858, Control_c, 0, 64, 101
1, 362872, Control_c, 0, 64, 103
1, 362887, Control_c, 0, 64, 106
1, 362902, Control_c, 0, 64, 109
1, 362916, Control_c, 0, 64, 111
1, 362927, Note_off_c, 0, 55, 41
1, 362931, Control_c, 0, 64, 113
1, 362946, Control_c, 0, 64, 114
1, 362961, Note_off_c, 0, 60, 54
1, 362961, Control_c, 0, 64, 116
1, 362976, Control_c, 0, 64, 117
1, 362977, Note_off_c, 0, 51, 31
1, 362981, Note_off_c, 0, 48, 45
1, 362990, Control_c, 0, 64, 117
1, 363079, Control_c, 0, 64, 117
1, 363094, Control_c, 0, 64, 115
1, 363109, Control_c, 0, 64, 112
1, 363124, Control_c, 0, 64, 106
1, 363139, Control_c, 0, 64, 100
1, 363142, Note_on_c, 0, 59, 46
1, 363150, Note_on_c, 0, 55, 43
1, 363154, Control_c, 0, 64, 92
1, 363159, Note_on_c, 0, 50, 41
1, 363159, Note_on_c, 0, 53, 39
1, 363169, Control_c, 0, 64, 84
1, 363190, Control_c, 0, 64, 77
1, 363205, Control_c, 0, 64, 69
1, 363221, Control_c, 0, 64, 56
1, 363236, Control_c, 0, 64, 0
1, 363325, Control_c, 0, 64, 43
1, 363339, Control_c, 0, 64, 61
1, 363354, Control_c, 0, 64, 65
1, 363369, Control_c, 0, 64, 66
1, 363384, Control_c, 0, 64, 68
1, 363399, Control_c, 0, 64, 70
1, 363413, Control_c, 0, 64, 73
1, 363428, Control_c, 0, 64, 78
1, 363443, Control_c, 0, 64, 82
1, 363458, Control_c, 0, 64, 86
1, 363473, Control_c, 0, 64, 90
1, 363488, Control_c, 0, 64, 94
1, 363503, Control_c, 0, 64, 97
1, 363518, Control_c, 0, 64, 101
1, 363532, Note_off_c, 0, 53, 51
1, 363533, Control_c, 0, 64, 104
1, 363547, Control_c, 0, 64, 107
1, 363558, Note_off_c, 0, 55, 37
1, 363562, Control_c, 0, 64, 110
1, 363577, Control_c, 0, 64, 113
1, 363590, Note_off_c, 0, 50, 41
1, 363592, Control_c, 0, 64, 116
1, 363607, Control_c, 0, 64, 118
1, 363610, Note_off_c, 0, 59, 35
1, 363621, Control_c, 0, 64, 119
1, 363636, Control_c, 0, 64, 119
1, 363680, Control_c, 0, 64, 120
1, 363739, Control_c, 0, 64, 119
1, 363754, Control_c, 0, 64, 118
1, 363769, Control_c, 0, 64, 115
1, 363784, Control_c, 0, 64, 111
1, 363799, Control_c, 0, 64, 105
1, 363813, Control_c, 0, 64, 100
1, 363828, Control_c, 0, 64, 94
1, 363833, Note_on_c, 0, 60, 50
1, 363843, Control_c, 0, 64, 86
1, 363857, Control_c, 0, 64, 77
1, 363861, Note_on_c, 0, 51, 37
1, 363861, Note_on_c, 0, 55, 28
1, 363872, Note_on_c, 0, 48, 40
1, 363872, Control_c, 0, 64, 67
1, 363887, Control_c, 0, 64, 0
1, 363984, Control_c, 0, 64, 61
1, 363999, Control_c, 0, 64, 68
1, 364015, Control_c, 0, 64, 73
1, 364030, Control_c, 0, 64, 77
1, 364044, Control_c, 0, 64, 81
1, 364059, Note_off_c, 0, 55, 40
1, 364059, Control_c, 0, 64, 85
1, 364074, Control_c, 0, 64, 90
1, 364088, Control_c, 0, 64, 96
1, 364103, Control_c, 0, 64, 101
1, 364118, Control_c, 0, 64, 105
1, 364133, Control_c, 0, 64, 109
1, 364148, Control_c, 0, 64, 113
1, 364162, Control_c, 0, 64, 117
1, 364177, Control_c, 0, 64, 121
1, 364192, Control_c, 0, 64, 127
1, 364207, Control_c, 0, 64, 127
1, 364237, Note_off_c, 0, 48, 42
1, 364254, Note_off_c, 0, 51, 34
1, 364266, Note_off_c, 0, 60, 35
1, 364415, Control_c, 0, 64, 125
1, 364430, Control_c, 0, 64, 121
1, 364444, Control_c, 0, 64, 117
1, 364459, Control_c, 0, 64, 113
1, 364474, Control_c, 0, 64, 108
1, 364488, Control_c, 0, 64, 101
1, 364503, Control_c, 0, 64, 94
1, 364518, Control_c, 0, 64, 86
1, 364522, Note_on_c, 0, 61, 48
1, 364530, Note_on_c, 0, 56, 40
1, 364533, Control_c, 0, 64, 78
1, 364548, Control_c, 0, 64, 69
1, 364551, Note_on_c, 0, 53, 38
1, 364557, Note_on_c, 0, 47, 35
1, 364562, Control_c, 0, 64, 49
1, 364577, Control_c, 0, 64, 0
1, 364666, Control_c, 0, 64, 58
1, 364688, Control_c, 0, 64, 65
1, 364703, Control_c, 0, 64, 69
1, 364718, Control_c, 0, 64, 74
1, 364733, Control_c, 0, 64, 78
1, 364748, Control_c, 0, 64, 81
1, 364762, Control_c, 0, 64, 85
1, 364777, Control_c, 0, 64, 88
1, 364792, Control_c, 0, 64, 91
1, 364807, Control_c, 0, 64, 95
1, 364823, Control_c, 0, 64, 100
1, 364838, Control_c, 0, 64, 105
1, 364853, Control_c, 0, 64, 112
1, 364867, Control_c, 0, 64, 116
1, 364882, Control_c, 0, 64, 120
1, 364897, Control_c, 0, 64, 124
1, 364911, Control_c, 0, 64, 127
1, 364916, Note_off_c, 0, 61, 51
1, 364918, Note_off_c, 0, 53, 41
1, 364937, Note_off_c, 0, 47, 44
1, 364943, Note_off_c, 0, 56, 34
1, 365148, Control_c, 0, 64, 117
1, 365163, Control_c, 0, 64, 108
1, 365178, Control_c, 0, 64, 98
1, 365184, Note_on_c, 0, 62, 55
1, 365193, Control_c, 0, 64, 87
1, 365199, Note_on_c, 0, 56, 44
1, 365208, Control_c, 0, 64, 77
1, 365223, Control_c, 0, 64, 67
1, 365226, Note_on_c, 0, 53, 36
1, 365230, Note_on_c, 0, 47, 34
1, 365238, Control_c, 0, 64, 0
1, 365282, Control_c, 0, 64, 41
1, 365297, Control_c, 0, 64, 63
1, 365311, Control_c, 0, 64, 68
1, 365326, Control_c, 0, 64, 73
1, 365341, Control_c, 0, 64, 78
1, 365356, Control_c, 0, 64, 81
1, 365371, Control_c, 0, 64, 85
1, 365385, Control_c, 0, 64, 89
1, 365400, Control_c, 0, 64, 93
1, 365415, Control_c, 0, 64, 98
1, 365437, Control_c, 0, 64, 103
1, 365452, Control_c, 0, 64, 108
1, 365467, Control_c, 0, 64, 112
1, 365469, Note_off_c, 0, 62, 49
1, 365482, Control_c, 0, 64, 116
1, 365495, Note_off_c, 0, 53, 41
1, 365497, Control_c, 0, 64, 121
1, 365511, Control_c, 0, 64, 127
1, 365515, Note_off_c, 0, 56, 38
1, 365518, Note_off_c, 0, 47, 43
1, 365526, Control_c, 0, 64, 127
1, 365779, Control_c, 0, 64, 112
1, 365785, Note_on_c, 0, 62, 61
1, 365794, Control_c, 0, 64, 99
1, 365804, Note_on_c, 0, 56, 49
1, 365808, Control_c, 0, 64, 85
1, 365809, Note_on_c, 0, 47, 45
1, 365812, Note_on_c, 0, 53, 39
1, 365823, Control_c, 0, 64, 75
1, 365838, Control_c, 0, 64, 67
1, 365853, Control_c, 0, 64, 56
1, 365868, Control_c, 0, 64, 47
1, 365882, Control_c, 0, 64, 59
1, 365897, Control_c, 0, 64, 66
1, 365912, Control_c, 0, 64, 70
1, 365927, Control_c, 0, 64, 75
1, 365941, Control_c, 0, 64, 78
1, 365956, Control_c, 0, 64, 82
1, 365971, Control_c, 0, 64, 85
1, 365986, Control_c, 0, 64, 89
1, 366001, Control_c, 0, 64, 94
1, 366016, Control_c, 0, 64, 99
1, 366022, Note_off_c, 0, 47, 43
1, 366031, Control_c, 0, 64, 103
1, 366045, Control_c, 0, 64, 107
1, 366060, Control_c, 0, 64, 110
1, 366071, Note_off_c, 0, 62, 57
1, 366075, Control_c, 0, 64, 113
1, 366089, Note_off_c, 0, 53, 42
1, 366090, Control_c, 0, 64, 118
1, 366105, Control_c, 0, 64, 124
1, 366120, Control_c, 0, 64, 127
1, 366189, Note_off_c, 0, 56, 47
1, 366439, Control_c, 0, 64, 125
1, 366454, Control_c, 0, 64, 119
1, 366469, Control_c, 0, 64, 112
1, 366474, Note_on_c, 0, 63, 60
1, 366483, Control_c, 0, 64, 102
1, 366498, Control_c, 0, 64, 92
1, 366507, Note_on_c, 0, 55, 40
1, 366508, Note_on_c, 0, 48, 48
1, 366513, Control_c, 0, 64, 82
1, 366522, Note_on_c, 0, 46, 43
1, 366528, Control_c, 0, 64, 72
1, 366543, Control_c, 0, 64, 61
1, 366557, Control_c, 0, 64, 0
1, 366617, Control_c, 0, 64, 52
1, 366631, Control_c, 0, 64, 64
1, 366646, Control_c, 0, 64, 67
1, 366661, Control_c, 0, 64, 71
1, 366676, Control_c, 0, 64, 75
1, 366690, Control_c, 0, 64, 79
1, 366705, Control_c, 0, 64, 83
1, 366720, Control_c, 0, 64, 88
1, 366735, Control_c, 0, 64, 93
1, 366750, Control_c, 0, 64, 99
1, 366764, Control_c, 0, 64, 106
1, 366779, Control_c, 0, 64, 112
1, 366794, Control_c, 0, 64, 118
1, 366809, Control_c, 0, 64, 126
1, 366824, Control_c, 0, 64, 127
1, 366835, Note_off_c, 0, 48, 52
1, 366874, Note_off_c, 0, 63, 35
1, 366891, Note_off_c, 0, 46, 40
1, 366967, Note_off_c, 0, 55, 34
1, 367113, Control_c, 0, 64, 118
1, 367124, Note_on_c, 0, 64, 62
1, 367128, Control_c, 0, 64, 103
1, 367142, Control_c, 0, 64, 92
1, 367154, Note_on_c, 0, 55, 43
1, 367155, Note_on_c, 0, 48, 47
1, 367157, Note_on_c, 0, 46, 49
1, 367157, Control_c, 0, 64, 79
1, 367172, Control_c, 0, 64, 70
1, 367187, Control_c, 0, 64, 60
1, 367202, Control_c, 0, 64, 32
1, 367217, Control_c, 0, 64, 48
1, 367232, Control_c, 0, 64, 61
1, 367247, Control_c, 0, 64, 66
1, 367262, Control_c, 0, 64, 70
1, 367277, Control_c, 0, 64, 74
1, 367291, Control_c, 0, 64, 77
1, 367306, Control_c, 0, 64, 80
1, 367321, Control_c, 0, 64, 84
1, 367336, Control_c, 0, 64, 88
1, 367351, Control_c, 0, 64, 95
1, 367366, Control_c, 0, 64, 101
1, 367381, Control_c, 0, 64, 108
1, 367396, Control_c, 0, 64, 116
1, 367405, Note_off_c, 0, 48, 58
1, 367411, Control_c, 0, 64, 124
1, 367426, Control_c, 0, 64, 127
1, 367431, Note_off_c, 0, 46, 40
1, 367472, Note_off_c, 0, 64, 38
1, 367483, Note_off_c, 0, 55, 42
1, 367714, Control_c, 0, 64, 115
1, 367725, Note_on_c, 0, 64, 66
1, 367729, Control_c, 0, 64, 100
1, 367742, Note_on_c, 0, 48, 48
1, 367744, Control_c, 0, 64, 89
1, 367746, Note_on_c, 0, 46, 46
1, 367752, Note_on_c, 0, 55, 53
1, 367759, Control_c, 0, 64, 79
1, 367774, Control_c, 0, 64, 71
1, 367788, Control_c, 0, 64, 61
1, 367803, Control_c, 0, 64, 0
1, 367832, Control_c, 0, 64, 43
1, 367847, Control_c, 0, 64, 61
1, 367862, Control_c, 0, 64, 66
1, 367877, Control_c, 0, 64, 70
1, 367892, Control_c, 0, 64, 75
1, 367906, Control_c, 0, 64, 79
1, 367921, Control_c, 0, 64, 83
1, 367936, Control_c, 0, 64, 87
1, 367951, Control_c, 0, 64, 92
1, 367966, Control_c, 0, 64, 97
1, 367980, Control_c, 0, 64, 102
1, 367993, Note_off_c, 0, 64, 60
1, 367995, Control_c, 0, 64, 108
1, 368011, Control_c, 0, 64, 115
1, 368026, Control_c, 0, 64, 121
1, 368041, Control_c, 0, 64, 127
1, 368055, Note_off_c, 0, 46, 53
1, 368090, Note_off_c, 0, 55, 35
1, 368100, Note_off_c, 0, 48, 44
1, 368381, Control_c, 0, 64, 113
1, 368396, Note_on_c, 0, 64, 64
1, 368396, Control_c, 0, 64, 101
1, 368410, Control_c, 0, 64, 93
1, 368418, Note_on_c, 0, 60, 51
1, 368420, Note_on_c, 0, 48, 47
1, 368433, Control_c, 0, 64, 86
1, 368436, Note_on_c, 0, 45, 44
1, 368448, Control_c, 0, 64, 79
1, 368462, Control_c, 0, 64, 71
1, 368477, Control_c, 0, 64, 58
1, 368492, Control_c, 0, 64, 0
1, 368566, Control_c, 0, 64, 44
1, 368581, Control_c, 0, 64, 66
1, 368596, Control_c, 0, 64, 71
1, 368610, Control_c, 0, 64, 76
1, 368625, Control_c, 0, 64, 80
1, 368640, Control_c, 0, 64, 84
1, 368654, Control_c, 0, 64, 89
1, 368669, Control_c, 0, 64, 94
1, 368684, Control_c, 0, 64, 102
1, 368699, Control_c, 0, 64, 109
1, 368714, Control_c, 0, 64, 115
1, 368728, Control_c, 0, 64, 120
1, 368743, Control_c, 0, 64, 127
1, 368794, Note_off_c, 0, 64, 37
1, 368806, Note_off_c, 0, 48, 36
1, 368810, Note_off_c, 0, 45, 42
1, 368836, Note_off_c, 0, 60, 52
1, 369022, Note_on_c, 0, 65, 67
1, 369041, Control_c, 0, 64, 113
1, 369051, Note_on_c, 0, 60, 50
1, 369054, Note_on_c, 0, 48, 50
1, 369056, Control_c, 0, 64, 98
1, 369071, Control_c, 0, 64, 84
1, 369071, Note_on_c, 0, 45, 40
1, 369085, Control_c, 0, 64, 74
1, 369100, Control_c, 0, 64, 65
1, 369115, Control_c, 0, 64, 38
1, 369130, Control_c, 0, 64, 0
1, 369145, Control_c, 0, 64, 16
1, 369159, Control_c, 0, 64, 60
1, 369181, Control_c, 0, 64, 66
1, 369196, Control_c, 0, 64, 70
1, 369211, Control_c, 0, 64, 74
1, 369226, Control_c, 0, 64, 79
1, 369241, Control_c, 0, 64, 83
1, 369256, Control_c, 0, 64, 88
1, 369271, Control_c, 0, 64, 93
1, 369285, Control_c, 0, 64, 98
1, 369300, Control_c, 0, 64, 103
1, 369315, Control_c, 0, 64, 109
1, 369330, Control_c, 0, 64, 115
1, 369345, Control_c, 0, 64, 121
1, 369359, Control_c, 0, 64, 127
1, 369370, Note_off_c, 0, 65, 51
1, 369373, Note_off_c, 0, 48, 54
1, 369377, Note_off_c, 0, 45, 59
1, 369429, Note_off_c, 0, 60, 50
1, 369642, Control_c, 0, 64, 120
1, 369650, Note_on_c, 0, 65, 72
1, 369656, Control_c, 0, 64, 106
1, 369671, Control_c, 0, 64, 92
1, 369676, Note_on_c, 0, 48, 51
1, 369685, Note_on_c, 0, 60, 47
1, 369686, Control_c, 0, 64, 80
1, 369690, Note_on_c, 0, 45, 47
1, 369700, Control_c, 0, 64, 69
1, 369715, Control_c, 0, 64, 49
1, 369730, Control_c, 0, 64, 0
1, 369775, Control_c, 0, 64, 50
1, 369789, Control_c, 0, 64, 65
1, 369804, Control_c, 0, 64, 71
1, 369819, Control_c, 0, 64, 78
1, 369834, Control_c, 0, 64, 84
1, 369849, Control_c, 0, 64, 88
1, 369864, Control_c, 0, 64, 92
1, 369879, Control_c, 0, 64, 97
1, 369893, Control_c, 0, 64, 103
1, 369908, Control_c, 0, 64, 111
1, 369921, Note_off_c, 0, 60, 42
1, 369930, Control_c, 0, 64, 118
1, 369945, Control_c, 0, 64, 124
1, 369960, Control_c, 0, 64, 127
1, 369965, Note_off_c, 0, 45, 43
1, 369994, Note_off_c, 0, 65, 61
1, 370028, Note_off_c, 0, 48, 39
1, 370330, Note_on_c, 0, 66, 71
1, 370331, Control_c, 0, 64, 121
1, 370346, Control_c, 0, 64, 108
1, 370350, Note_on_c, 0, 51, 47
1, 370356, Note_on_c, 0, 60, 50
1, 370360, Note_on_c, 0, 44, 46
1, 370361, Control_c, 0, 64, 96
1, 370375, Control_c, 0, 64, 85
1, 370390, Control_c, 0, 64, 75
1, 370406, Control_c, 0, 64, 62
1, 370421, Control_c, 0, 64, 0
1, 370466, Control_c, 0, 64, 46
1, 370480, Control_c, 0, 64, 64
1, 370495, Control_c, 0, 64, 70
1, 370510, Control_c, 0, 64, 76
1, 370524, Control_c, 0, 64, 81
1, 370539, Control_c, 0, 64, 85
1, 370554, Control_c, 0, 64, 89
1, 370569, Control_c, 0, 64, 94
1, 370584, Control_c, 0, 64, 99
1, 370598, Control_c, 0, 64, 107
1, 370613, Control_c, 0, 64, 115
1, 370628, Control_c, 0, 64, 123
1, 370643, Control_c, 0, 64, 127
1, 370699, Note_off_c, 0, 51, 54
1, 370699, Note_off_c, 0, 44, 35
1, 370730, Note_off_c, 0, 66, 55
1, 370799, Note_off_c, 0, 60, 51
1, 370959, Note_on_c, 0, 66, 74
1, 370961, Control_c, 0, 64, 105
1, 370976, Control_c, 0, 64, 87
1, 370980, Note_on_c, 0, 62, 59
1, 370988, Note_on_c, 0, 50, 50
1, 370989, Note_on_c, 0, 44, 47
1, 370991, Control_c, 0, 64, 74
1, 371006, Control_c, 0, 64, 63
1, 371021, Control_c, 0, 64, 0
1, 371050, Control_c, 0, 64, 48
1, 371065, Control_c, 0, 64, 64
1, 371080, Control_c, 0, 64, 70
1, 371095, Control_c, 0, 64, 76
1, 371110, Control_c, 0, 64, 81
1, 371124, Control_c, 0, 64, 86
1, 371139, Control_c, 0, 64, 90
1, 371154, Control_c, 0, 64, 95
1, 371169, Control_c, 0, 64, 101
1, 371184, Control_c, 0, 64, 107
1, 371199, Control_c, 0, 64, 113
1, 371214, Control_c, 0, 64, 120
1, 371229, Control_c, 0, 64, 127
1, 371266, Note_off_c, 0, 50, 52
1, 371271, Note_off_c, 0, 66, 51
1, 371282, Note_off_c, 0, 44, 36
1, 371306, Note_off_c, 0, 62, 37
1, 371562, Note_on_c, 0, 66, 76
1, 371562, Control_c, 0, 64, 115
1, 371577, Control_c, 0, 64, 102
1, 371578, Note_on_c, 0, 63, 61
1, 371592, Control_c, 0, 64, 90
1, 371596, Note_on_c, 0, 48, 50
1, 371599, Note_on_c, 0, 44, 44
1, 371607, Control_c, 0, 64, 77
1, 371622, Control_c, 0, 64, 65
1, 371636, Control_c, 0, 64, 0
1, 371680, Control_c, 0, 64, 40
1, 371695, Control_c, 0, 64, 63
1, 371710, Control_c, 0, 64, 69
1, 371725, Control_c, 0, 64, 75
1, 371740, Control_c, 0, 64, 81
1, 371754, Control_c, 0, 64, 86
1, 371767, Note_off_c, 0, 44, 49
1, 371769, Control_c, 0, 64, 91
1, 371784, Control_c, 0, 64, 95
1, 371799, Control_c, 0, 64, 101
1, 371813, Control_c, 0, 64, 108
1, 371828, Control_c, 0, 64, 117
1, 371843, Control_c, 0, 64, 127
1, 371918, Note_off_c, 0, 66, 38
1, 371964, Note_off_c, 0, 48, 42
1, 372053, Note_off_c, 0, 63, 36
1, 372244, Note_on_c, 0, 67, 76
1, 372252, Control_c, 0, 64, 116
1, 372267, Control_c, 0, 64, 102
1, 372280, Note_on_c, 0, 59, 48
1, 372281, Control_c, 0, 64, 91
1, 372293, Note_on_c, 0, 43, 46
1, 372296, Note_on_c, 0, 50, 45
1, 372296, Control_c, 0, 64, 81
1, 372311, Control_c, 0, 64, 71
1, 372326, Control_c, 0, 64, 53
1, 372341, Control_c, 0, 64, 0
1, 372400, Control_c, 0, 64, 44
1, 372415, Control_c, 0, 64, 64
1, 372429, Control_c, 0, 64, 69
1, 372444, Control_c, 0, 64, 75
1, 372459, Control_c, 0, 64, 80
1, 372474, Control_c, 0, 64, 85
1, 372489, Control_c, 0, 64, 89
1, 372503, Control_c, 0, 64, 95
1, 372518, Control_c, 0, 64, 102
1, 372533, Control_c, 0, 64, 110
1, 372548, Control_c, 0, 64, 119
1, 372563, Control_c, 0, 64, 127
1, 372575, Note_off_c, 0, 67, 55
1, 372624, Note_off_c, 0, 43, 41
1, 372706, Note_off_c, 0, 59, 36
1, 372721, Note_off_c, 0, 50, 30
1, 373022, Note_on_c, 0, 68, 66
1, 373029, Control_c, 0, 64, 125
1, 373044, Control_c, 0, 64, 111
1, 373058, Note_on_c, 0, 59, 39
1, 373058, Control_c, 0, 64, 101
1, 373073, Control_c, 0, 64, 94
1, 373088, Note_on_c, 0, 50, 34
1, 373088, Control_c, 0, 64, 86
1, 373090, Note_on_c, 0, 41, 41
1, 373103, Control_c, 0, 64, 78
1, 373118, Control_c, 0, 64, 69
1, 373132, Control_c, 0, 64, 50
1, 373147, Control_c, 0, 64, 0
1, 373221, Control_c, 0, 64, 63
1, 373236, Control_c, 0, 64, 68
1, 373250, Control_c, 0, 64, 73
1, 373265, Control_c, 0, 64, 78
1, 373280, Control_c, 0, 64, 83
1, 373295, Control_c, 0, 64, 89
1, 373310, Control_c, 0, 64, 94
1, 373325, Control_c, 0, 64, 100
1, 373340, Control_c, 0, 64, 106
1, 373355, Control_c, 0, 64, 113
1, 373370, Control_c, 0, 64, 120
1, 373384, Control_c, 0, 64, 127
1, 373445, Note_off_c, 0, 41, 46
1, 373453, Note_off_c, 0, 50, 39
1, 373481, Note_off_c, 0, 68, 34
1, 373528, Note_off_c, 0, 59, 39
1, 373688, Note_on_c, 0, 68, 63
1, 373703, Control_c, 0, 64, 112
1, 373714, Note_on_c, 0, 59, 43
1, 373718, Control_c, 0, 64, 99
1, 373724, Note_on_c, 0, 50, 42
1, 373733, Control_c, 0, 64, 88
1, 373742, Note_on_c, 0, 41, 39
1, 373748, Control_c, 0, 64, 79
1, 373763, Control_c, 0, 64, 73
1, 373778, Control_c, 0, 64, 72
1, 373793, Control_c, 0, 64, 73
1, 373808, Control_c, 0, 64, 77
1, 373822, Control_c, 0, 64, 83
1, 373837, Control_c, 0, 64, 89
1, 373852, Control_c, 0, 64, 95
1, 373867, Control_c, 0, 64, 99
1, 373881, Control_c, 0, 64, 102
1, 373896, Control_c, 0, 64, 105
1, 373911, Control_c, 0, 64, 108
1, 373926, Control_c, 0, 64, 113
1, 373941, Control_c, 0, 64, 118
1, 373955, Control_c, 0, 64, 125
1, 373970, Control_c, 0, 64, 127
1, 373987, Note_off_c, 0, 68, 39
1, 374004, Note_off_c, 0, 41, 43
1, 374019, Note_off_c, 0, 50, 41
1, 374052, Note_off_c, 0, 59, 37
1, 374311, Control_c, 0, 64, 116
1, 374312, Note_on_c, 0, 68, 55
1, 374326, Control_c, 0, 64, 99
1, 374338, Note_on_c, 0, 59, 38
1, 374341, Control_c, 0, 64, 82
1, 374344, Note_on_c, 0, 50, 38
1, 374356, Control_c, 0, 64, 62
1, 374357, Note_on_c, 0, 41, 37
1, 374371, Control_c, 0, 64, 0
1, 374483, Control_c, 0, 64, 56
1, 374497, Control_c, 0, 64, 68
1, 374512, Control_c, 0, 64, 74
1, 374527, Control_c, 0, 64, 82
1, 374542, Control_c, 0, 64, 87
1, 374557, Control_c, 0, 64, 92
1, 374571, Control_c, 0, 64, 96
1, 374586, Control_c, 0, 64, 99
1, 374601, Control_c, 0, 64, 103
1, 374616, Control_c, 0, 64, 107
1, 374630, Note_off_c, 0, 68, 49
1, 374630, Control_c, 0, 64, 112
1, 374645, Control_c, 0, 64, 118
1, 374660, Control_c, 0, 64, 126
1, 374675, Control_c, 0, 64, 127
1, 374678, Note_off_c, 0, 50, 41
1, 374691, Note_off_c, 0, 41, 43
1, 374709, Note_off_c, 0, 59, 39
1, 374896, Control_c, 0, 64, 120
1, 374911, Control_c, 0, 64, 112
1, 374926, Control_c, 0, 64, 104
1, 374941, Control_c, 0, 64, 96
1, 374956, Control_c, 0, 64, 88
1, 374969, Note_on_c, 0, 65, 48
1, 374970, Control_c, 0, 64, 81
1, 374985, Control_c, 0, 64, 73
1, 374990, Note_on_c, 0, 59, 33
1, 374997, Note_on_c, 0, 44, 33
1, 375000, Note_on_c, 0, 50, 34
1, 375000, Control_c, 0, 64, 63
1, 375015, Control_c, 0, 64, 0
1, 375119, Control_c, 0, 64, 54
1, 375134, Control_c, 0, 64, 64
1, 375149, Control_c, 0, 64, 67
1, 375170, Control_c, 0, 64, 72
1, 375185, Control_c, 0, 64, 78
1, 375201, Control_c, 0, 64, 85
1, 375216, Control_c, 0, 64, 91
1, 375231, Control_c, 0, 64, 96
1, 375245, Control_c, 0, 64, 101
1, 375260, Control_c, 0, 64, 105
1, 375275, Control_c, 0, 64, 109
1, 375290, Control_c, 0, 64, 113
1, 375305, Control_c, 0, 64, 116
1, 375319, Control_c, 0, 64, 119
1, 375321, Note_off_c, 0, 50, 39
1, 375334, Control_c, 0, 64, 120
1, 375340, Note_off_c, 0, 44, 41
1, 375349, Control_c, 0, 64, 121
1, 375364, Control_c, 0, 64, 122
1, 375379, Control_c, 0, 64, 122
1, 375394, Control_c, 0, 64, 123
1, 375395, Note_off_c, 0, 59, 32
1, 375408, Control_c, 0, 64, 124
1, 375434, Note_off_c, 0, 65, 34
1, 375557, Control_c, 0, 64, 123
1, 375572, Control_c, 0, 64, 121
1, 375587, Control_c, 0, 64, 119
1, 375601, Control_c, 0, 64, 115
1, 375616, Control_c, 0, 64, 112
1, 375631, Control_c, 0, 64, 108
1, 375645, Control_c, 0, 64, 104
1, 375654, Note_on_c, 0, 67, 46
1, 375660, Control_c, 0, 64, 98
1, 375675, Control_c, 0, 64, 92
1, 375683, Note_on_c, 0, 59, 30
1, 375689, Note_on_c, 0, 50, 34
1, 375690, Control_c, 0, 64, 84
1, 375704, Note_on_c, 0, 43, 34
1, 375705, Control_c, 0, 64, 75
1, 375719, Control_c, 0, 64, 66
1, 375734, Control_c, 0, 64, 0
1, 375853, Control_c, 0, 64, 57
1, 375868, Control_c, 0, 64, 64
1, 375882, Control_c, 0, 64, 67
1, 375897, Control_c, 0, 64, 71
1, 375919, Control_c, 0, 64, 76
1, 375934, Control_c, 0, 64, 81
1, 375949, Control_c, 0, 64, 86
1, 375964, Control_c, 0, 64, 92
1, 375979, Control_c, 0, 64, 97
1, 375995, Control_c, 0, 64, 102
1, 375999, Note_off_c, 0, 50, 37
1, 376010, Control_c, 0, 64, 107
1, 376024, Control_c, 0, 64, 112
1, 376039, Control_c, 0, 64, 116
1, 376044, Note_off_c, 0, 67, 28
1, 376054, Control_c, 0, 64, 121
1, 376055, Note_off_c, 0, 43, 40
1, 376068, Control_c, 0, 64, 124
1, 376083, Control_c, 0, 64, 127
1, 376116, Note_off_c, 0, 59, 38
1, 376231, Control_c, 0, 64, 125
1, 376246, Control_c, 0, 64, 121
1, 376261, Control_c, 0, 64, 118
1, 376276, Control_c, 0, 64, 116
1, 376291, Control_c, 0, 64, 113
1, 376306, Control_c, 0, 64, 109
1, 376321, Control_c, 0, 64, 104
1, 376335, Control_c, 0, 64, 97
1, 376350, Control_c, 0, 64, 91
1, 376359, Note_on_c, 0, 67, 43
1, 376365, Control_c, 0, 64, 83
1, 376374, Note_on_c, 0, 48, 39
1, 376374, Note_on_c, 0, 51, 36
1, 376380, Note_on_c, 0, 60, 38
1, 376380, Control_c, 0, 64, 75
1, 376394, Control_c, 0, 64, 66
1, 376409, Control_c, 0, 64, 0
1, 376483, Control_c, 0, 64, 58
1, 376498, Control_c, 0, 64, 65
1, 376513, Control_c, 0, 64, 68
1, 376528, Control_c, 0, 64, 71
1, 376542, Control_c, 0, 64, 73
1, 376557, Control_c, 0, 64, 76
1, 376572, Control_c, 0, 64, 80
1, 376586, Control_c, 0, 64, 84
1, 376601, Control_c, 0, 64, 88
1, 376616, Control_c, 0, 64, 92
1, 376631, Control_c, 0, 64, 94
1, 376646, Control_c, 0, 64, 97
1, 376649, Note_off_c, 0, 51, 29
1, 376668, Control_c, 0, 64, 99
1, 376683, Control_c, 0, 64, 103
1, 376698, Control_c, 0, 64, 106
1, 376713, Control_c, 0, 64, 109
1, 376728, Control_c, 0, 64, 111
1, 376735, Note_off_c, 0, 67, 28
1, 376742, Control_c, 0, 64, 112
1, 376757, Control_c, 0, 64, 113
1, 376758, Note_off_c, 0, 48, 40
1, 376772, Control_c, 0, 64, 114
1, 376787, Control_c, 0, 64, 115
1, 376803, Note_off_c, 0, 60, 35
1, 376803, Control_c, 0, 64, 117
1, 376818, Control_c, 0, 64, 117
1, 376847, Control_c, 0, 64, 118
1, 376951, Control_c, 0, 64, 117
1, 376980, Control_c, 0, 64, 117
1, 376995, Control_c, 0, 64, 115
1, 377010, Control_c, 0, 64, 113
1, 377024, Control_c, 0, 64, 110
1, 377039, Control_c, 0, 64, 106
1, 377054, Control_c, 0, 64, 101
1, 377070, Control_c, 0, 64, 95
1, 377078, Note_on_c, 0, 67, 39
1, 377085, Control_c, 0, 64, 88
1, 377098, Note_on_c, 0, 59, 27
1, 377099, Control_c, 0, 64, 80
1, 377110, Note_on_c, 0, 50, 34
1, 377113, Note_on_c, 0, 43, 31
1, 377114, Control_c, 0, 64, 72
1, 377129, Control_c, 0, 64, 63
1, 377144, Control_c, 0, 64, 0
1, 377203, Control_c, 0, 64, 62
1, 377218, Control_c, 0, 64, 67
1, 377233, Control_c, 0, 64, 70
1, 377248, Control_c, 0, 64, 73
1, 377263, Control_c, 0, 64, 76
1, 377277, Control_c, 0, 64, 78
1, 377292, Control_c, 0, 64, 82
1, 377307, Control_c, 0, 64, 86
1, 377322, Control_c, 0, 64, 91
1, 377337, Control_c, 0, 64, 95
1, 377349, Note_off_c, 0, 50, 39
1, 377352, Control_c, 0, 64, 98
1, 377366, Control_c, 0, 64, 100
1, 377381, Control_c, 0, 64, 101
1, 377386, Note_off_c, 0, 43, 41
1, 377396, Control_c, 0, 64, 103
1, 377418, Control_c, 0, 64, 106
1, 377432, Control_c, 0, 64, 108
1, 377447, Control_c, 0, 64, 110
1, 377462, Control_c, 0, 64, 111
1, 377475, Note_off_c, 0, 67, 35
1, 377477, Control_c, 0, 64, 112
1, 377492, Control_c, 0, 64, 113
1, 377507, Control_c, 0, 64, 114
1, 377528, Note_off_c, 0, 59, 36
1, 377537, Control_c, 0, 64, 115
1, 377552, Control_c, 0, 64, 115
1, 377745, Control_c, 0, 64, 115
1, 377760, Control_c, 0, 64, 114
1, 377789, Control_c, 0, 64, 114
1, 377804, Control_c, 0, 64, 113
1, 377819, Control_c, 0, 64, 112
1, 377834, Control_c, 0, 64, 111
1, 377848, Control_c, 0, 64, 109
1, 377863, Control_c, 0, 64, 108
1, 377878, Control_c, 0, 64, 105
1, 377892, Note_on_c, 0, 67, 30
1, 377893, Control_c, 0, 64, 104
1, 377908, Control_c, 0, 64, 102
1, 377922, Control_c, 0, 64, 101
1, 377923, Note_on_c, 0, 60, 28
1, 377924, Note_on_c, 0, 48, 33
1, 377937, Control_c, 0, 64, 99
1, 377945, Note_on_c, 0, 36, 26
1, 377952, Control_c, 0, 64, 97
1, 377967, Control_c, 0, 64, 94
1, 377982, Control_c, 0, 64, 91
1, 377996, Control_c, 0, 64, 87
1, 378011, Control_c, 0, 64, 84
1, 378026, Control_c, 0, 64, 80
1, 378041, Control_c, 0, 64, 76
1, 378056, Control_c, 0, 64, 70
1, 378070, Control_c, 0, 64, 63
1, 378085, Control_c, 0, 64, 0
1, 378182, Control_c, 0, 64, 49
1, 378196, Control_c, 0, 64, 60
1, 378211, Control_c, 0, 64, 64
1, 378226, Control_c, 0, 64, 66
1, 378240, Control_c, 0, 64, 68
1, 378255, Control_c, 0, 64, 71
1, 378270, Control_c, 0, 64, 75
1, 378285, Control_c, 0, 64, 79
1, 378300, Control_c, 0, 64, 82
1, 378315, Control_c, 0, 64, 86
1, 378330, Control_c, 0, 64, 89
1, 378345, Control_c, 0, 64, 94
1, 378360, Control_c, 0, 64, 97
1, 378374, Control_c, 0, 64, 101
1, 378390, Control_c, 0, 64, 103
1, 378392, Note_off_c, 0, 36, 36
1, 378397, Note_off_c, 0, 67, 30
1, 378405, Control_c, 0, 64, 105
1, 378414, Note_off_c, 0, 48, 41
1, 378419, Control_c, 0, 64, 106
1, 378434, Control_c, 0, 64, 107
1, 378449, Control_c, 0, 64, 107
1, 378452, Note_off_c, 0, 60, 36
1, 378464, Control_c, 0, 64, 108
1, 378479, Control_c, 0, 64, 109
1, 378656, Control_c, 0, 64, 108
1, 378670, Control_c, 0, 64, 108
1, 378685, Control_c, 0, 64, 107
1, 378700, Control_c, 0, 64, 106
1, 378715, Control_c, 0, 64, 105
1, 378730, Control_c, 0, 64, 104
1, 378744, Control_c, 0, 64, 103
1, 378759, Control_c, 0, 64, 102
1, 378774, Control_c, 0, 64, 101
1, 378789, Control_c, 0, 64, 99
1, 378804, Control_c, 0, 64, 97
1, 378819, Control_c, 0, 64, 95
1, 378834, Control_c, 0, 64, 92
1, 378848, Control_c, 0, 64, 89
1, 378854, Note_on_c, 0, 36, 32
1, 378863, Control_c, 0, 64, 85
1, 378878, Control_c, 0, 64, 80
1, 378893, Control_c, 0, 64, 74
1, 378915, Control_c, 0, 64, 69
1, 378930, Control_c, 0, 64, 61
1, 378944, Control_c, 0, 64, 41
1, 378959, Control_c, 0, 64, 40
1, 378974, Control_c, 0, 64, 56
1, 378989, Control_c, 0, 64, 64
1, 379003, Control_c, 0, 64, 67
1, 379011, Note_on_c, 0, 39, 32
1, 379018, Control_c, 0, 64, 71
1, 379033, Control_c, 0, 64, 74
1, 379037, Note_off_c, 0, 36, 39
1, 379048, Control_c, 0, 64, 76
1, 379063, Control_c, 0, 64, 78
1, 379078, Control_c, 0, 64, 80
1, 379093, Control_c, 0, 64, 82
1, 379108, Control_c, 0, 64, 85
1, 379123, Control_c, 0, 64, 87
1, 379126, Note_on_c, 0, 43, 30
1, 379137, Control_c, 0, 64, 89
1, 379152, Control_c, 0, 64, 90
1, 379163, Note_off_c, 0, 39, 32
1, 379167, Control_c, 0, 64, 91
1, 379176, Note_on_c, 0, 48, 42
1, 379182, Control_c, 0, 64, 92
1, 379197, Control_c, 0, 64, 93
1, 379212, Control_c, 0, 64, 94
1, 379227, Control_c, 0, 64, 94
1, 379242, Control_c, 0, 64, 95
1, 379251, Note_off_c, 0, 43, 28
1, 379287, Control_c, 0, 64, 95
1, 379293, Note_on_c, 0, 36, 38
1, 379313, Note_off_c, 0, 48, 35
1, 379370, Note_on_c, 0, 39, 45
1, 379370, Note_off_c, 0, 36, 51
1, 379375, Control_c, 0, 64, 96
1, 379467, Note_off_c, 0, 39, 54
1, 379489, Note_on_c, 0, 48, 43
1, 379510, Poly_aftertouch_c, 0, 43, 127
1, 379567, Poly_aftertouch_c, 0, 43, 0
1, 379613, Note_on_c, 0, 72, 55
1, 379624, Note_on_c, 0, 36, 37
1, 379633, Note_on_c, 0, 60, 40
1, 379636, Note_off_c, 0, 48, 45
1, 379718, Note_on_c, 0, 39, 45
1, 379744, Note_off_c, 0, 36, 37
1, 379811, Control_c, 0, 64, 96
1, 379822, Note_off_c, 0, 39, 55
1, 379838, Note_on_c, 0, 48, 44
1, 379951, Note_off_c, 0, 48, 50
1, 379955, Note_on_c, 0, 36, 42
1, 380010, Note_on_c, 0, 39, 47
1, 380020, Note_off_c, 0, 36, 54
1, 380118, Note_off_c, 0, 39, 56
1, 380132, Note_on_c, 0, 48, 42
1, 380238, Note_off_c, 0, 48, 51
1, 380241, Note_on_c, 0, 36, 47
1, 380278, Note_off_c, 0, 60, 55
1, 380294, Note_on_c, 0, 39, 44
1, 380309, Note_off_c, 0, 36, 59
1, 380362, Note_off_c, 0, 72, 55
1, 380461, Note_on_c, 0, 36, 57
1, 380565, Note_off_c, 0, 39, 40
1, 380575, Note_on_c, 0, 48, 51
1, 380583, Note_off_c, 0, 36, 55
1, 380591, Control_c, 0, 64, 97
1, 380604, Note_on_c, 0, 75, 56
1, 380608, Note_on_c, 0, 63, 54
1, 380652, Note_off_c, 0, 63, 60
1, 380662, Note_off_c, 0, 75, 61
1, 380709, Control_c, 0, 64, 95
1, 380714, Note_off_c, 0, 48, 34
1, 380724, Control_c, 0, 64, 92
1, 380735, Note_on_c, 0, 74, 64
1, 380739, Control_c, 0, 64, 85
1, 380754, Control_c, 0, 64, 77
1, 380761, Note_on_c, 0, 62, 46
1, 380768, Control_c, 0, 64, 67
1, 380775, Note_on_c, 0, 36, 15
1, 380779, Note_on_c, 0, 38, 36
1, 380785, Control_c, 0, 64, 18
1, 380800, Control_c, 0, 64, 0
1, 380822, Note_off_c, 0, 36, 47
1, 380844, Control_c, 0, 64, 29
1, 380852, Note_on_c, 0, 41, 49
1, 380858, Control_c, 0, 64, 62
1, 380869, Note_off_c, 0, 38, 48
1, 380873, Control_c, 0, 64, 67
1, 380888, Control_c, 0, 64, 71
1, 380903, Control_c, 0, 64, 75
1, 380915, Note_off_c, 0, 74, 62
1, 380918, Control_c, 0, 64, 78
1, 380923, Note_off_c, 0, 62, 38
1, 380926, Note_on_c, 0, 47, 48
1, 380930, Note_off_c, 0, 41, 59
1, 380932, Control_c, 0, 64, 82
1, 380947, Control_c, 0, 64, 87
1, 380962, Control_c, 0, 64, 91
1, 380977, Control_c, 0, 64, 96
1, 380992, Control_c, 0, 64, 100
1, 381007, Control_c, 0, 64, 105
1, 381022, Control_c, 0, 64, 110
1, 381026, Note_off_c, 0, 47, 51
1, 381036, Control_c, 0, 64, 114
1, 381045, Note_on_c, 0, 36, 37
1, 381046, Note_on_c, 0, 38, 39
1, 381051, Control_c, 0, 64, 118
1, 381066, Control_c, 0, 64, 121
1, 381081, Control_c, 0, 64, 124
1, 381096, Control_c, 0, 64, 126
1, 381111, Note_off_c, 0, 36, 56
1, 381111, Control_c, 0, 64, 127
1, 381123, Note_on_c, 0, 41, 48
1, 381197, Note_off_c, 0, 38, 35
1, 381212, Note_off_c, 0, 41, 57
1, 381223, Note_on_c, 0, 43, 5
1, 381228, Note_on_c, 0, 47, 39
1, 381299, Note_off_c, 0, 43, 41
1, 381313, Note_off_c, 0, 47, 50
1, 381331, Note_on_c, 0, 67, 66
1, 381355, Note_on_c, 0, 38, 40
1, 381370, Note_on_c, 0, 36, 19
1, 381427, Note_off_c, 0, 36, 45
1, 381442, Note_on_c, 0, 41, 46
1, 381499, Note_off_c, 0, 38, 39
1, 381513, Note_off_c, 0, 41, 62
1, 381522, Note_on_c, 0, 47, 51
1, 381538, Poly_aftertouch_c, 0, 43, 127
1, 381603, Poly_aftertouch_c, 0, 43, 0
1, 381622, Note_off_c, 0, 47, 55
1, 381637, Note_on_c, 0, 38, 45
1, 381657, Note_on_c, 0, 36, 32
1, 381676, Note_off_c, 0, 67, 59
1, 381701, Note_off_c, 0, 36, 49
1, 381710, Note_on_c, 0, 41, 49
1, 381734, Note_off_c, 0, 38, 58
1, 381759, Note_on_c, 0, 43, 24
1, 381779, Note_off_c, 0, 41, 60
1, 381781, Note_on_c, 0, 47, 54
1, 381858, Note_off_c, 0, 47, 54
1, 381868, Note_on_c, 0, 36, 36
1, 381877, Note_on_c, 0, 38, 52
1, 381890, Note_off_c, 0, 43, 35
1, 381935, Note_on_c, 0, 41, 42
1, 381982, Note_off_c, 0, 38, 59
1, 381989, Note_off_c, 0, 41, 62
1, 381999, Note_on_c, 0, 67, 67
1, 382003, Note_on_c, 0, 47, 58
1, 382035, Note_off_c, 0, 36, 24
1, 382051, Note_off_c, 0, 67, 63
1, 382067, Note_on_c, 0, 69, 69
1, 382103, Note_off_c, 0, 69, 61
1, 382129, Note_on_c, 0, 71, 57
1, 382181, Note_on_c, 0, 72, 74
1, 382187, Note_off_c, 0, 71, 62
1, 382193, Control_c, 0, 64, 124
1, 382207, Control_c, 0, 64, 109
1, 382222, Note_off_c, 0, 47, 49
1, 382222, Control_c, 0, 64, 97
1, 382226, Note_on_c, 0, 74, 63
1, 382237, Control_c, 0, 64, 84
1, 382247, Note_off_c, 0, 72, 65
1, 382252, Control_c, 0, 64, 72
1, 382261, Note_on_c, 0, 36, 40
1, 382267, Control_c, 0, 64, 40
1, 382271, Note_on_c, 0, 40, 47
1, 382281, Control_c, 0, 64, 0
1, 382287, Note_off_c, 0, 74, 65
1, 382294, Note_on_c, 0, 76, 76
1, 382311, Control_c, 0, 64, 41
1, 382326, Control_c, 0, 64, 64
1, 382341, Control_c, 0, 64, 70
1, 382355, Control_c, 0, 64, 76
1, 382370, Control_c, 0, 64, 82
1, 382385, Note_off_c, 0, 36, 36
1, 382386, Control_c, 0, 64, 86
1, 382401, Control_c, 0, 64, 89
1, 382416, Control_c, 0, 64, 92
1, 382426, Note_on_c, 0, 48, 51
1, 382430, Control_c, 0, 64, 96
1, 382437, Note_off_c, 0, 40, 36
1, 382445, Control_c, 0, 64, 99
1, 382460, Control_c, 0, 64, 102
1, 382468, Poly_aftertouch_c, 0, 46, 127
1, 382475, Control_c, 0, 64, 104
1, 382487, Note_off_c, 0, 76, 62
1, 382490, Control_c, 0, 64, 107
1, 382501, Poly_aftertouch_c, 0, 46, 0
1, 382504, Control_c, 0, 64, 110
1, 382519, Control_c, 0, 64, 113
1, 382521, Note_off_c, 0, 48, 57
1, 382522, Note_on_c, 0, 36, 33
1, 382534, Control_c, 0, 64, 115
1, 382540, Note_on_c, 0, 40, 49
1, 382549, Control_c, 0, 64, 116
1, 382564, Control_c, 0, 64, 117
1, 382593, Control_c, 0, 64, 117
1, 382608, Control_c, 0, 64, 118
1, 382630, Note_on_c, 0, 43, 39
1, 382637, Control_c, 0, 64, 118
1, 382642, Note_off_c, 0, 36, 41
1, 382646, Note_on_c, 0, 46, 45
1, 382660, Control_c, 0, 64, 119
1, 382674, Note_off_c, 0, 40, 57
1, 382690, Control_c, 0, 64, 119
1, 382692, Note_on_c, 0, 48, 52
1, 382709, Note_off_c, 0, 43, 53
1, 382734, Control_c, 0, 64, 120
1, 382781, Note_off_c, 0, 46, 34
1, 382818, Note_off_c, 0, 48, 37
1, 382823, Control_c, 0, 64, 119
1, 382827, Note_on_c, 0, 76, 77
1, 382837, Control_c, 0, 64, 119
1, 382842, Note_on_c, 0, 40, 54
1, 382846, Note_on_c, 0, 36, 47
1, 382849, Note_on_c, 0, 64, 52
1, 382852, Control_c, 0, 64, 117
1, 382867, Control_c, 0, 64, 116
1, 382882, Control_c, 0, 64, 115
1, 382897, Control_c, 0, 64, 114
1, 382953, Note_on_c, 0, 43, 27
1, 382970, Note_off_c, 0, 36, 35
1, 382976, Note_on_c, 0, 46, 37
1, 382986, Note_off_c, 0, 40, 60
1, 383001, Control_c, 0, 64, 114
1, 383004, Note_on_c, 0, 48, 50
1, 383026, Note_off_c, 0, 43, 40
1, 383072, Note_off_c, 0, 46, 37
1, 383087, Note_off_c, 0, 48, 57
1, 383101, Note_on_c, 0, 40, 58
1, 383106, Note_on_c, 0, 36, 33
1, 383184, Note_on_c, 0, 43, 47
1, 383199, Note_off_c, 0, 36, 37
1, 383215, Note_on_c, 0, 46, 57
1, 383218, Note_off_c, 0, 64, 54
1, 383233, Note_off_c, 0, 40, 60
1, 383238, Control_c, 0, 64, 114
1, 383250, Note_on_c, 0, 48, 53
1, 383267, Note_off_c, 0, 43, 56
1, 383277, Note_off_c, 0, 76, 60
1, 383313, Note_off_c, 0, 46, 58
1, 383347, Note_off_c, 0, 48, 64
1, 383357, Note_on_c, 0, 36, 43
1, 383364, Note_on_c, 0, 40, 61
1, 383441, Note_on_c, 0, 43, 52
1, 383442, Note_off_c, 0, 36, 55
1, 383472, Note_on_c, 0, 46, 53
1, 383479, Note_off_c, 0, 40, 61
1, 383508, Note_on_c, 0, 48, 45
1, 383561, Note_on_c, 0, 36, 65
1, 383570, Note_off_c, 0, 48, 64
1, 383602, Note_on_c, 0, 40, 46
1, 383642, Note_off_c, 0, 36, 57
1, 383650, Note_off_c, 0, 40, 60
1, 383657, Note_on_c, 0, 79, 77
1, 383669, Note_on_c, 0, 67, 65
1, 383681, Note_on_c, 0, 48, 63
1, 383684, Note_off_c, 0, 43, 40
1, 383698, Note_off_c, 0, 67, 67
1, 383709, Note_off_c, 0, 79, 62
1, 383718, Note_off_c, 0, 46, 39
1, 383749, Control_c, 0, 64, 112
1, 383764, Control_c, 0, 64, 105
1, 383778, Control_c, 0, 64, 95
1, 383784, Note_on_c, 0, 77, 80
1, 383793, Control_c, 0, 64, 84
1, 383804, Note_on_c, 0, 65, 61
1, 383809, Control_c, 0, 64, 69
1, 383812, Note_on_c, 0, 36, 57
1, 383824, Control_c, 0, 64, 0
1, 383838, Note_off_c, 0, 48, 42
1, 383883, Control_c, 0, 64, 41
1, 383898, Control_c, 0, 64, 67
1, 383906, Note_off_c, 0, 36, 58
1, 383909, Note_on_c, 0, 41, 57
1, 383913, Control_c, 0, 64, 75
1, 383928, Control_c, 0, 64, 83
1, 383942, Control_c, 0, 64, 89
1, 383955, Note_off_c, 0, 77, 61
1, 383957, Control_c, 0, 64, 94
1, 383970, Note_off_c, 0, 65, 57
1, 383972, Control_c, 0, 64, 99
1, 383988, Control_c, 0, 64, 105
1, 383989, Note_on_c, 0, 45, 40
1, 383991, Note_off_c, 0, 41, 63
1, 384002, Control_c, 0, 64, 113
1, 384005, Note_on_c, 0, 48, 59
1, 384017, Control_c, 0, 64, 122
1, 384032, Control_c, 0, 64, 127
1, 384053, Note_off_c, 0, 45, 59
1, 384088, Note_on_c, 0, 36, 58
1, 384089, Note_off_c, 0, 48, 64
1, 384143, Note_on_c, 0, 41, 58
1, 384174, Note_off_c, 0, 36, 60
1, 384217, Note_on_c, 0, 45, 25
1, 384238, Note_on_c, 0, 48, 57
1, 384240, Note_off_c, 0, 41, 63
1, 384331, Note_on_c, 0, 65, 81
1, 384348, Note_on_c, 0, 36, 56
1, 384357, Note_off_c, 0, 45, 40
1, 384361, Note_off_c, 0, 48, 56
1, 384407, Note_on_c, 0, 41, 54
1, 384447, Note_off_c, 0, 36, 58
1, 384487, Note_on_c, 0, 45, 45
1, 384500, Note_off_c, 0, 41, 65
1, 384502, Note_on_c, 0, 48, 56
1, 384572, Note_off_c, 0, 45, 56
1, 384583, Note_on_c, 0, 36, 56
1, 384590, Note_off_c, 0, 48, 63
1, 384621, Note_on_c, 0, 41, 65
1, 384625, Note_off_c, 0, 65, 61
1, 384661, Note_off_c, 0, 36, 62
1, 384683, Note_on_c, 0, 45, 43
1, 384709, Note_off_c, 0, 41, 66
1, 384712, Note_on_c, 0, 48, 63
1, 384785, Note_off_c, 0, 45, 62
1, 384788, Note_on_c, 0, 36, 63
1, 384804, Note_off_c, 0, 48, 61
1, 384819, Note_on_c, 0, 41, 68
1, 384861, Note_off_c, 0, 36, 62
1, 384915, Note_on_c, 0, 45, 42
1, 384916, Note_on_c, 0, 48, 52
1, 384977, Note_on_c, 0, 72, 64
1, 384981, Note_on_c, 0, 36, 67
1, 385031, Note_off_c, 0, 72, 64
1, 385031, Note_on_c, 0, 74, 74
1, 385065, Note_off_c, 0, 45, 58
1, 385067, Note_off_c, 0, 48, 0
1, 385079, Note_off_c, 0, 41, 46
1, 385084, Note_on_c, 0, 48, 35
1, 385087, Note_off_c, 0, 36, 53
1, 385092, Note_on_c, 0, 75, 79
1, 385111, Note_off_c, 0, 74, 64
1, 385156, Note_on_c, 0, 77, 80
1, 385157, Note_off_c, 0, 75, 67
1, 385239, Note_on_c, 0, 78, 93
1, 385240, Note_on_c, 0, 66, 91
1, 385247, Control_c, 0, 64, 103
1, 385254, Note_off_c, 0, 48, 39
1, 385260, Note_on_c, 0, 36, 67
1, 385261, Note_on_c, 0, 39, 68
1, 385262, Control_c, 0, 64, 83
1, 385272, Note_off_c, 0, 77, 61
1, 385277, Control_c, 0, 64, 63
1, 385292, Control_c, 0, 64, 0
1, 385335, Control_c, 0, 64, 39
1, 385349, Control_c, 0, 64, 68
1, 385364, Control_c, 0, 64, 79
1, 385379, Control_c, 0, 64, 90
1, 385380, Note_off_c, 0, 36, 49
1, 385383, Note_on_c, 0, 42, 40
1, 385394, Control_c, 0, 64, 95
1, 385408, Note_on_c, 0, 45, 58
1, 385409, Note_off_c, 0, 39, 58
1, 385409, Control_c, 0, 64, 97
1, 385423, Control_c, 0, 64, 100
1, 385424, Note_off_c, 0, 78, 61
1, 385433, Note_off_c, 0, 42, 61
1, 385434, Note_on_c, 0, 48, 62
1, 385437, Note_off_c, 0, 66, 56
1, 385438, Control_c, 0, 64, 103
1, 385453, Control_c, 0, 64, 107
1, 385468, Control_c, 0, 64, 113
1, 385483, Control_c, 0, 64, 119
1, 385497, Control_c, 0, 64, 126
1, 385512, Control_c, 0, 64, 127
1, 385520, Note_off_c, 0, 45, 62
1, 385536, Note_off_c, 0, 48, 62
1, 385545, Note_on_c, 0, 39, 54
1, 385550, Note_on_c, 0, 36, 44
1, 385616, Note_on_c, 0, 42, 57
1, 385632, Note_off_c, 0, 36, 53
1, 385678, Note_on_c, 0, 45, 44
1, 385697, Note_off_c, 0, 39, 51
1, 385713, Note_off_c, 0, 42, 62
1, 385715, Note_on_c, 0, 48, 57
1, 385781, Note_on_c, 0, 66, 95
1, 385785, Note_off_c, 0, 45, 52
1, 385824, Note_on_c, 0, 39, 63
1, 385824, Note_on_c, 0, 36, 42
1, 385825, Note_off_c, 0, 48, 55
1, 385892, Note_on_c, 0, 42, 51
1, 385911, Note_off_c, 0, 36, 47
1, 385933, Note_on_c, 0, 45, 45
1, 385948, Note_off_c, 0, 39, 60
1, 385957, Note_on_c, 0, 48, 60
1, 385971, Note_off_c, 0, 42, 61
1, 386026, Note_off_c, 0, 45, 62
1, 386056, Note_off_c, 0, 48, 63
1, 386056, Note_on_c, 0, 36, 59
1, 386068, Note_on_c, 0, 39, 61
1, 386072, Note_off_c, 0, 66, 62
1, 386102, Note_on_c, 0, 42, 58
1, 386133, Note_off_c, 0, 36, 58
1, 386152, Note_on_c, 0, 45, 61
1, 386161, Note_off_c, 0, 39, 62
1, 386181, Note_on_c, 0, 48, 66
1, 386191, Note_off_c, 0, 42, 62
1, 386268, Note_off_c, 0, 45, 64
1, 386271, Note_on_c, 0, 36, 62
1, 386284, Note_on_c, 0, 39, 68
1, 386285, Note_off_c, 0, 48, 65
1, 386317, Note_on_c, 0, 42, 66
1, 386348, Note_off_c, 0, 36, 61
1, 386369, Note_on_c, 0, 45, 58
1, 386370, Note_off_c, 0, 39, 61
1, 386409, Note_on_c, 0, 48, 67
1, 386455, Note_on_c, 0, 72, 77
1, 386466, Note_on_c, 0, 36, 55
1, 386471, Note_off_c, 0, 48, 65
1, 386474, Note_on_c, 0, 39, 54
1, 386506, Note_off_c, 0, 45, 59
1, 386513, Note_on_c, 0, 74, 80
1, 386516, Note_off_c, 0, 72, 62
1, 386524, Note_off_c, 0, 36, 57
1, 386542, Note_off_c, 0, 42, 61
1, 386556, Note_on_c, 0, 48, 65
1, 386556, Note_off_c, 0, 39, 58
1, 386573, Note_on_c, 0, 75, 87
1, 386595, Note_off_c, 0, 74, 65
1, 386631, Note_on_c, 0, 78, 76
1, 386646, Note_off_c, 0, 75, 69
1, 386655, Note_off_c, 0, 78, 65
1, 386680, Note_off_c, 0, 48, 59
1, 386699, Note_on_c, 0, 79, 100
1, 386699, Control_c, 0, 64, 104
1, 386714, Control_c, 0, 64, 83
1, 386719, Note_on_c, 0, 36, 81
1, 386729, Control_c, 0, 64, 65
1, 386744, Control_c, 0, 64, 0
1, 386755, Note_on_c, 0, 40, 53
1, 386788, Control_c, 0, 64, 57
1, 386803, Control_c, 0, 64, 70
1, 386818, Control_c, 0, 64, 79
1, 386833, Control_c, 0, 64, 89
1, 386837, Note_on_c, 0, 43, 68
1, 386840, Note_off_c, 0, 36, 60
1, 386848, Control_c, 0, 64, 95
1, 386858, Note_on_c, 0, 46, 72
1, 386863, Control_c, 0, 64, 101
1, 386877, Control_c, 0, 64, 108
1, 386888, Note_off_c, 0, 40, 61
1, 386892, Control_c, 0, 64, 120
1, 386907, Control_c, 0, 64, 127
1, 386922, Note_off_c, 0, 79, 56
1, 386928, Note_on_c, 0, 48, 55
1, 386974, Note_on_c, 0, 36, 60
1, 386989, Note_off_c, 0, 43, 53
1, 386993, Note_off_c, 0, 48, 62
1, 386998, Note_on_c, 0, 40, 54
1, 387091, Note_off_c, 0, 36, 62
1, 387097, Note_off_c, 0, 46, 0
1, 387100, Note_off_c, 0, 40, 60
1, 387111, Note_on_c, 0, 48, 65
1, 387163, Poly_aftertouch_c, 0, 46, 0
1, 387335, Note_on_c, 0, 80, 99
1, 387344, Note_on_c, 0, 36, 51
1, 387345, Note_on_c, 0, 68, 82
1, 387345, Control_c, 0, 64, 107
1, 387353, Note_off_c, 0, 48, 59
1, 387360, Control_c, 0, 64, 93
1, 387374, Control_c, 0, 64, 80
1, 387389, Control_c, 0, 64, 68
1, 387404, Control_c, 0, 64, 0
1, 387448, Note_on_c, 0, 41, 57
1, 387463, Control_c, 0, 64, 57
1, 387469, Note_off_c, 0, 36, 54
1, 387478, Control_c, 0, 64, 67
1, 387493, Control_c, 0, 64, 73
1, 387508, Control_c, 0, 64, 79
1, 387511, Note_on_c, 0, 44, 48
1, 387523, Control_c, 0, 64, 85
1, 387537, Note_off_c, 0, 41, 63
1, 387538, Control_c, 0, 64, 91
1, 387552, Control_c, 0, 64, 96
1, 387554, Note_on_c, 0, 48, 55
1, 387567, Control_c, 0, 64, 103
1, 387582, Control_c, 0, 64, 111
1, 387597, Note_off_c, 0, 44, 56
1, 387597, Control_c, 0, 64, 119
1, 387612, Control_c, 0, 64, 127
1, 387638, Note_off_c, 0, 48, 61
1, 387642, Note_on_c, 0, 36, 52
1, 387721, Note_on_c, 0, 41, 51
1, 387726, Note_off_c, 0, 36, 61
1, 387796, Note_on_c, 0, 48, 50
1, 387800, Note_off_c, 0, 41, 63
1, 387805, Note_on_c, 0, 44, 14
1, 387867, Note_off_c, 0, 44, 43
1, 387901, Note_on_c, 0, 36, 45
1, 387913, Note_off_c, 0, 48, 58
1, 387952, Note_on_c, 0, 41, 61
1, 387973, Note_off_c, 0, 36, 60
1, 388054, Note_off_c, 0, 41, 60
1, 388055, Note_on_c, 0, 44, 20
1, 388056, Note_on_c, 0, 48, 53
1, 388109, Note_off_c, 0, 44, 52
1, 388135, Note_on_c, 0, 36, 42
1, 388146, Note_off_c, 0, 48, 57
1, 388196, Note_on_c, 0, 41, 53
1, 388229, Note_off_c, 0, 36, 59
1, 388259, Note_on_c, 0, 44, 21
1, 388285, Note_off_c, 0, 41, 60
1, 388288, Note_on_c, 0, 48, 54
1, 388320, Note_off_c, 0, 44, 41
1, 388370, Note_off_c, 0, 48, 60
1, 388420, Control_c, 0, 64, 105
1, 388435, Control_c, 0, 64, 91
1, 388441, Note_on_c, 0, 38, 49
1, 388449, Control_c, 0, 64, 78
1, 388464, Control_c, 0, 64, 66
1, 388465, Note_off_c, 0, 68, 52
1, 388475, Note_off_c, 0, 80, 54
1, 388479, Control_c, 0, 64, 36
1, 388480, Poly_aftertouch_c, 0, 36, 127
1, 388494, Control_c, 0, 64, 0
1, 388509, Control_c, 0, 64, 58
1, 388510, Note_on_c, 0, 41, 45
1, 388521, Poly_aftertouch_c, 0, 36, 0
1, 388523, Control_c, 0, 64, 67
1, 388530, Note_off_c, 0, 38, 58
1, 388535, Note_on_c, 0, 44, 52
1, 388538, Control_c, 0, 64, 73
1, 388553, Control_c, 0, 64, 81
1, 388567, Control_c, 0, 64, 86
1, 388579, Note_off_c, 0, 41, 57
1, 388582, Control_c, 0, 64, 91
1, 388597, Note_on_c, 0, 47, 52
1, 388597, Control_c, 0, 64, 94
1, 388612, Control_c, 0, 64, 97
1, 388627, Control_c, 0, 64, 101
1, 388641, Note_off_c, 0, 47, 62
1, 388642, Control_c, 0, 64, 105
1, 388664, Control_c, 0, 64, 109
1, 388677, Note_on_c, 0, 38, 58
1, 388679, Control_c, 0, 64, 113
1, 388694, Control_c, 0, 64, 118
1, 388709, Control_c, 0, 64, 123
1, 388723, Control_c, 0, 64, 127
1, 388727, Poly_aftertouch_c, 0, 36, 127
1, 388768, Poly_aftertouch_c, 0, 36, 0
1, 388781, Note_off_c, 0, 44, 36
1, 388784, Note_off_c, 0, 38, 57
1, 388787, Note_on_c, 0, 47, 49
1, 388793, Note_on_c, 0, 80, 68
1, 388803, Poly_aftertouch_c, 0, 41, 127
1, 388808, Note_on_c, 0, 68, 47
1, 388822, Note_off_c, 0, 80, 67
1, 388834, Note_off_c, 0, 68, 57
1, 388855, Poly_aftertouch_c, 0, 41, 0
1, 388917, Note_off_c, 0, 47, 60
1, 388917, Control_c, 0, 64, 115
1, 388932, Control_c, 0, 64, 102
1, 388942, Note_on_c, 0, 77, 69
1, 388946, Control_c, 0, 64, 90
1, 388954, Note_on_c, 0, 38, 45
1, 388954, Note_on_c, 0, 65, 57
1, 388961, Control_c, 0, 64, 79
1, 388968, Note_on_c, 0, 36, 25
1, 388976, Control_c, 0, 64, 69
1, 388991, Control_c, 0, 64, 58
1, 389005, Control_c, 0, 64, 10
1, 389013, Note_off_c, 0, 36, 48
1, 389020, Control_c, 0, 64, 34
1, 389035, Control_c, 0, 64, 57
1, 389049, Note_on_c, 0, 41, 38
1, 389049, Control_c, 0, 64, 65
1, 389064, Note_off_c, 0, 38, 56
1, 389064, Control_c, 0, 64, 70
1, 389079, Control_c, 0, 64, 74
1, 389094, Control_c, 0, 64, 78
1, 389098, Note_on_c, 0, 43, 29
1, 389106, Note_off_c, 0, 41, 58
1, 389109, Control_c, 0, 64, 82
1, 389113, Note_on_c, 0, 47, 57
1, 389124, Control_c, 0, 64, 86
1, 389139, Control_c, 0, 64, 91
1, 389153, Note_off_c, 0, 65, 39
1, 389153, Control_c, 0, 64, 96
1, 389154, Note_off_c, 0, 77, 59
1, 389168, Control_c, 0, 64, 102
1, 389183, Control_c, 0, 64, 107
1, 389197, Control_c, 0, 64, 112
1, 389206, Note_off_c, 0, 47, 55
1, 389212, Control_c, 0, 64, 117
1, 389225, Note_on_c, 0, 38, 45
1, 389227, Control_c, 0, 64, 121
1, 389231, Note_off_c, 0, 43, 39
1, 389242, Control_c, 0, 64, 126
1, 389245, Note_on_c, 0, 36, 33
1, 389257, Control_c, 0, 64, 127
1, 389295, Note_off_c, 0, 36, 49
1, 389312, Note_on_c, 0, 41, 46
1, 389348, Note_off_c, 0, 38, 47
1, 389353, Note_on_c, 0, 43, 42
1, 389380, Note_off_c, 0, 41, 60
1, 389382, Note_on_c, 0, 47, 55
1, 389471, Control_c, 0, 64, 124
1, 389486, Control_c, 0, 64, 118
1, 389501, Control_c, 0, 64, 112
1, 389515, Note_off_c, 0, 47, 53
1, 389516, Control_c, 0, 64, 107
1, 389530, Control_c, 0, 64, 102
1, 389532, Note_off_c, 0, 43, 41
1, 389545, Control_c, 0, 64, 96
1, 389549, Note_on_c, 0, 38, 38
1, 389560, Control_c, 0, 64, 89
1, 389563, Note_on_c, 0, 79, 68
1, 389576, Control_c, 0, 64, 82
1, 389582, Note_on_c, 0, 36, 16
1, 389591, Control_c, 0, 64, 75
1, 389592, Note_on_c, 0, 67, 44
1, 389606, Control_c, 0, 64, 68
1, 389620, Control_c, 0, 64, 62
1, 389635, Control_c, 0, 64, 58
1, 389650, Control_c, 0, 64, 62
1, 389664, Note_on_c, 0, 41, 51
1, 389665, Control_c, 0, 64, 66
1, 389680, Control_c, 0, 64, 70
1, 389684, Note_off_c, 0, 36, 39
1, 389694, Control_c, 0, 64, 75
1, 389709, Control_c, 0, 64, 80
1, 389720, Note_on_c, 0, 43, 31
1, 389724, Control_c, 0, 64, 84
1, 389727, Note_off_c, 0, 38, 41
1, 389732, Note_on_c, 0, 47, 57
1, 389739, Control_c, 0, 64, 90
1, 389750, Note_off_c, 0, 79, 60
1, 389754, Note_off_c, 0, 41, 58
1, 389754, Control_c, 0, 64, 95
1, 389759, Note_off_c, 0, 67, 51
1, 389768, Control_c, 0, 64, 101
1, 389783, Control_c, 0, 64, 109
1, 389798, Control_c, 0, 64, 120
1, 389813, Control_c, 0, 64, 127
1, 389830, Note_off_c, 0, 47, 59
1, 389838, Note_on_c, 0, 36, 38
1, 389838, Note_on_c, 0, 38, 57
1, 389861, Note_off_c, 0, 43, 37
1, 389910, Note_on_c, 0, 41, 49
1, 389971, Note_on_c, 0, 43, 47
1, 389977, Note_off_c, 0, 36, 35
1, 389980, Note_off_c, 0, 38, 59
1, 390022, Note_off_c, 0, 41, 55
1, 390023, Note_on_c, 0, 47, 53
1, 390188, Note_on_c, 0, 72, 65
1, 390194, Note_off_c, 0, 47, 59
1, 390203, Note_on_c, 0, 36, 50
1, 390250, Control_c, 0, 64, 115
1, 390265, Control_c, 0, 64, 97
1, 390280, Control_c, 0, 64, 79
1, 390286, Note_off_c, 0, 72, 61
1, 390289, Note_on_c, 0, 71, 66
1, 390294, Note_off_c, 0, 43, 40
1, 390295, Control_c, 0, 64, 18
1, 390309, Control_c, 0, 64, 0
1, 390330, Note_on_c, 0, 39, 54
1, 390353, Note_off_c, 0, 36, 57
1, 390369, Control_c, 0, 64, 51
1, 390384, Note_on_c, 0, 69, 63
1, 390384, Control_c, 0, 64, 66
1, 390399, Control_c, 0, 64, 73
1, 390410, Note_off_c, 0, 71, 51
1, 390414, Control_c, 0, 64, 83
1, 390429, Control_c, 0, 64, 90
1, 390443, Control_c, 0, 64, 95
1, 390447, Note_on_c, 0, 43, 27
1, 390456, Note_on_c, 0, 48, 53
1, 390458, Control_c, 0, 64, 99
1, 390461, Note_off_c, 0, 39, 58
1, 390466, Note_off_c, 0, 69, 65
1, 390471, Note_on_c, 0, 67, 66
1, 390473, Control_c, 0, 64, 103
1, 390488, Control_c, 0, 64, 106
1, 390503, Control_c, 0, 64, 109
1, 390517, Control_c, 0, 64, 113
1, 390531, Note_off_c, 0, 67, 63
1, 390532, Control_c, 0, 64, 116
1, 390548, Control_c, 0, 64, 119
1, 390557, Note_on_c, 0, 65, 70
1, 390563, Control_c, 0, 64, 122
1, 390573, Note_on_c, 0, 36, 57
1, 390576, Note_off_c, 0, 48, 57
1, 390577, Control_c, 0, 64, 123
1, 390592, Control_c, 0, 64, 124
1, 390600, Note_off_c, 0, 65, 54
1, 390606, Note_off_c, 0, 43, 41
1, 390607, Control_c, 0, 64, 127
1, 390632, Note_on_c, 0, 63, 62
1, 390689, Note_on_c, 0, 39, 55
1, 390703, Note_off_c, 0, 63, 63
1, 390703, Note_on_c, 0, 62, 64
1, 390708, Note_off_c, 0, 36, 59
1, 390725, Control_c, 0, 64, 118
1, 390740, Control_c, 0, 64, 102
1, 390755, Note_off_c, 0, 62, 62
1, 390755, Control_c, 0, 64, 83
1, 390766, Note_on_c, 0, 60, 68
1, 390769, Control_c, 0, 64, 60
1, 390784, Control_c, 0, 64, 0
1, 390790, Note_on_c, 0, 48, 44
1, 390792, Note_off_c, 0, 39, 61
1, 390835, Note_off_c, 0, 60, 61
1, 390844, Note_on_c, 0, 62, 64
1, 390844, Control_c, 0, 64, 42
1, 390858, Control_c, 0, 64, 66
1, 390873, Control_c, 0, 64, 73
1, 390896, Note_on_c, 0, 36, 53
1, 390896, Control_c, 0, 64, 82
1, 390900, Note_off_c, 0, 48, 59
1, 390908, Note_off_c, 0, 62, 60
1, 390911, Control_c, 0, 64, 88
1, 390915, Note_on_c, 0, 63, 71
1, 390925, Control_c, 0, 64, 93
1, 390940, Control_c, 0, 64, 98
1, 390955, Control_c, 0, 64, 102
1, 390969, Note_off_c, 0, 63, 64
1, 390969, Control_c, 0, 64, 104
1, 390984, Control_c, 0, 64, 106
1, 390985, Note_on_c, 0, 65, 74
1, 390998, Note_on_c, 0, 39, 57
1, 390999, Control_c, 0, 64, 106
1, 391011, Note_off_c, 0, 36, 54
1, 391014, Control_c, 0, 64, 107
1, 391038, Note_off_c, 0, 65, 60
1, 391049, Note_on_c, 0, 67, 69
1, 391070, Note_on_c, 0, 48, 52
1, 391073, Control_c, 0, 64, 106
1, 391088, Control_c, 0, 64, 104
1, 391094, Note_off_c, 0, 39, 60
1, 391103, Control_c, 0, 64, 99
1, 391109, Note_on_c, 0, 69, 79
1, 391111, Note_off_c, 0, 67, 64
1, 391118, Control_c, 0, 64, 92
1, 391127, Poly_aftertouch_c, 0, 43, 127
1, 391133, Control_c, 0, 64, 84
1, 391148, Control_c, 0, 64, 78
1, 391153, Note_on_c, 0, 36, 62
1, 391163, Control_c, 0, 64, 74
1, 391177, Note_off_c, 0, 69, 66
1, 391178, Control_c, 0, 64, 73
1, 391184, Note_on_c, 0, 71, 71
1, 391192, Control_c, 0, 64, 74
1, 391207, Note_off_c, 0, 48, 33
1, 391207, Control_c, 0, 64, 76
1, 391222, Control_c, 0, 64, 80
1, 391225, Note_off_c, 0, 71, 59
1, 391237, Control_c, 0, 64, 83
1, 391252, Control_c, 0, 64, 86
1, 391255, Note_on_c, 0, 72, 74
1, 391267, Control_c, 0, 64, 88
1, 391267, Note_on_c, 0, 39, 57
1, 391270, Note_off_c, 0, 36, 62
1, 391282, Control_c, 0, 64, 90
1, 391297, Control_c, 0, 64, 91
1, 391301, Note_on_c, 0, 48, 50
1, 391305, Note_off_c, 0, 72, 58
1, 391312, Control_c, 0, 64, 92
1, 391319, Note_on_c, 0, 74, 68
1, 391326, Control_c, 0, 64, 92
1, 391341, Control_c, 0, 64, 93
1, 391356, Control_c, 0, 64, 93
1, 391364, Poly_aftertouch_c, 0, 43, 0
1, 391366, Note_off_c, 0, 39, 55
1, 391371, Control_c, 0, 64, 94
1, 391374, Note_off_c, 0, 74, 64
1, 391377, Note_on_c, 0, 75, 80
1, 391400, Control_c, 0, 64, 94
1, 391401, Poly_aftertouch_c, 0, 43, 127
1, 391401, Note_on_c, 0, 36, 55
1, 391415, Control_c, 0, 64, 95
1, 391420, Note_off_c, 0, 48, 37
1, 391429, Note_off_c, 0, 75, 67
1, 391445, Control_c, 0, 64, 95
1, 391446, Note_on_c, 0, 77, 79
1, 391499, Note_off_c, 0, 77, 60
1, 391503, Note_on_c, 0, 79, 72
1, 391509, Note_off_c, 0, 36, 59
1, 391518, Control_c, 0, 64, 95
1, 391524, Note_on_c, 0, 39, 45
1, 391533, Control_c, 0, 64, 93
1, 391536, Note_on_c, 0, 48, 53
1, 391548, Control_c, 0, 64, 90
1, 391563, Control_c, 0, 64, 86
1, 391565, Note_on_c, 0, 81, 81
1, 391578, Control_c, 0, 64, 80
1, 391579, Note_off_c, 0, 79, 56
1, 391592, Control_c, 0, 64, 72
1, 391607, Control_c, 0, 64, 60
1, 391622, Control_c, 0, 64, 0
1, 391626, Note_on_c, 0, 83, 69
1, 391633, Note_off_c, 0, 39, 51
1, 391643, Note_off_c, 0, 81, 63
1, 391683, Note_on_c, 0, 36, 44
1, 391689, Control_c, 0, 64, 40
1, 391699, Note_off_c, 0, 83, 62
1, 391701, Note_off_c, 0, 48, 55
1, 391704, Control_c, 0, 64, 65
1, 391707, Note_on_c, 0, 84, 73
1, 391718, Control_c, 0, 64, 70
1, 391733, Control_c, 0, 64, 75
1, 391748, Control_c, 0, 64, 79
1, 391763, Control_c, 0, 64, 82
1, 391776, Note_off_c, 0, 84, 64
1, 391778, Control_c, 0, 64, 85
1, 391780, Note_on_c, 0, 83, 71
1, 391789, Note_on_c, 0, 39, 56
1, 391792, Control_c, 0, 64, 88
1, 391807, Control_c, 0, 64, 93
1, 391816, Note_off_c, 0, 36, 54
1, 391822, Control_c, 0, 64, 98
1, 391825, Note_on_c, 0, 81, 75
1, 391837, Control_c, 0, 64, 101
1, 391852, Control_c, 0, 64, 105
1, 391864, Note_off_c, 0, 83, 61
1, 391865, Poly_aftertouch_c, 0, 43, 0
1, 391866, Control_c, 0, 64, 107
1, 391881, Control_c, 0, 64, 109
1, 391887, Note_off_c, 0, 81, 62
1, 391889, Note_on_c, 0, 48, 48
1, 391896, Control_c, 0, 64, 112
1, 391898, Note_on_c, 0, 79, 59
1, 391902, Poly_aftertouch_c, 0, 43, 127
1, 391911, Control_c, 0, 64, 115
1, 391921, Note_off_c, 0, 39, 55
1, 391926, Control_c, 0, 64, 119
1, 391935, Note_off_c, 0, 79, 63
1, 391941, Control_c, 0, 64, 122
1, 391951, Note_on_c, 0, 77, 69
1, 391955, Control_c, 0, 64, 123
1, 391957, Note_on_c, 0, 36, 61
1, 391971, Control_c, 0, 64, 125
1, 391986, Control_c, 0, 64, 127
1, 391989, Note_off_c, 0, 77, 53
1, 391991, Note_off_c, 0, 48, 53
1, 392001, Control_c, 0, 64, 127
1, 392013, Note_on_c, 0, 75, 74
1, 392030, Control_c, 0, 64, 126
1, 392045, Control_c, 0, 64, 118
1, 392056, Note_on_c, 0, 39, 61
1, 392060, Control_c, 0, 64, 108
1, 392072, Note_off_c, 0, 36, 59
1, 392075, Control_c, 0, 64, 96
1, 392082, Note_off_c, 0, 75, 64
1, 392084, Note_on_c, 0, 74, 72
1, 392090, Control_c, 0, 64, 84
1, 392105, Control_c, 0, 64, 73
1, 392119, Control_c, 0, 64, 62
1, 392124, Note_on_c, 0, 48, 59
1, 392134, Control_c, 0, 64, 48
1, 392137, Note_off_c, 0, 74, 65
1, 392143, Note_off_c, 0, 39, 59
1, 392146, Note_on_c, 0, 72, 73
1, 392149, Control_c, 0, 64, 62
1, 392164, Control_c, 0, 64, 68
1, 392179, Control_c, 0, 64, 75
1, 392194, Control_c, 0, 64, 82
1, 392203, Note_on_c, 0, 36, 58
1, 392209, Note_off_c, 0, 72, 63
1, 392209, Control_c, 0, 64, 87
1, 392211, Note_off_c, 0, 48, 60
1, 392218, Note_on_c, 0, 74, 65
1, 392223, Control_c, 0, 64, 93
1, 392238, Control_c, 0, 64, 98
1, 392253, Control_c, 0, 64, 105
1, 392268, Control_c, 0, 64, 115
1, 392271, Note_off_c, 0, 74, 64
1, 392272, Note_on_c, 0, 75, 77
1, 392281, Note_on_c, 0, 39, 57
1, 392283, Control_c, 0, 64, 127
1, 392313, Note_off_c, 0, 36, 62
1, 392323, Note_off_c, 0, 75, 67
1, 392339, Note_on_c, 0, 77, 80
1, 392364, Note_on_c, 0, 48, 54
1, 392364, Poly_aftertouch_c, 0, 43, 0
1, 392400, Note_off_c, 0, 39, 57
1, 392401, Note_off_c, 0, 77, 60
1, 392406, Note_on_c, 0, 79, 72
1, 392409, Poly_aftertouch_c, 0, 43, 127
1, 392459, Note_on_c, 0, 81, 83
1, 392465, Note_on_c, 0, 36, 54
1, 392475, Note_off_c, 0, 79, 59
1, 392479, Note_off_c, 0, 48, 60
1, 392509, Poly_aftertouch_c, 0, 43, 0
1, 392512, Control_c, 0, 64, 109
1, 392520, Note_on_c, 0, 83, 72
1, 392527, Control_c, 0, 64, 96
1, 392531, Note_off_c, 0, 81, 63
1, 392534, Note_on_c, 0, 39, 58
1, 392541, Control_c, 0, 64, 86
1, 392556, Control_c, 0, 64, 80
1, 392564, Note_off_c, 0, 36, 61
1, 392571, Control_c, 0, 64, 79
1, 392584, Note_off_c, 0, 83, 61
1, 392586, Control_c, 0, 64, 79
1, 392590, Note_on_c, 0, 84, 80
1, 392601, Control_c, 0, 64, 82
1, 392608, Note_on_c, 0, 48, 65
1, 392615, Control_c, 0, 64, 90
1, 392619, Note_off_c, 0, 39, 62
1, 392630, Control_c, 0, 64, 98
1, 392645, Control_c, 0, 64, 106
1, 392652, Note_on_c, 0, 83, 74
1, 392660, Control_c, 0, 64, 114
1, 392661, Note_off_c, 0, 84, 64
1, 392675, Control_c, 0, 64, 124
1, 392686, Note_on_c, 0, 36, 61
1, 392689, Control_c, 0, 64, 127
1, 392693, Note_off_c, 0, 48, 61
1, 392695, Note_on_c, 0, 81, 76
1, 392735, Note_on_c, 0, 39, 63
1, 392738, Note_off_c, 0, 83, 61
1, 392760, Note_off_c, 0, 81, 62
1, 392761, Note_on_c, 0, 79, 66
1, 392798, Note_off_c, 0, 79, 62
1, 392812, Note_on_c, 0, 77, 69
1, 392820, Note_off_c, 0, 36, 36
1, 392827, Note_on_c, 0, 48, 62
1, 392832, Note_off_c, 0, 39, 61
1, 392856, Note_off_c, 0, 77, 54
1, 392878, Note_on_c, 0, 75, 68
1, 392941, Note_off_c, 0, 75, 65
1, 392942, Note_on_c, 0, 74, 64
1, 392976, Note_off_c, 0, 74, 62
1, 392990, Note_on_c, 0, 72, 66
1, 393022, Note_off_c, 0, 72, 63
1, 393031, Control_c, 0, 64, 109
1, 393046, Control_c, 0, 64, 95
1, 393054, Note_off_c, 0, 48, 62
1, 393061, Control_c, 0, 64, 83
1, 393070, Note_on_c, 0, 36, 50
1, 393076, Control_c, 0, 64, 70
1, 393090, Note_on_c, 0, 38, 47
1, 393091, Control_c, 0, 64, 60
1, 393099, Note_on_c, 0, 86, 75
1, 393106, Control_c, 0, 64, 47
1, 393120, Control_c, 0, 64, 61
1, 393142, Control_c, 0, 64, 68
1, 393157, Control_c, 0, 64, 74
1, 393172, Control_c, 0, 64, 81
1, 393179, Note_on_c, 0, 41, 58
1, 393182, Note_off_c, 0, 86, 64
1, 393187, Control_c, 0, 64, 87
1, 393188, Note_on_c, 0, 84, 75
1, 393201, Control_c, 0, 64, 90
1, 393214, Note_off_c, 0, 36, 35
1, 393216, Control_c, 0, 64, 93
1, 393231, Control_c, 0, 64, 98
1, 393240, Note_off_c, 0, 38, 49
1, 393246, Control_c, 0, 64, 104
1, 393249, Note_on_c, 0, 44, 47
1, 393254, Note_on_c, 0, 83, 68
1, 393261, Control_c, 0, 64, 112
1, 393276, Control_c, 0, 64, 120
1, 393276, Note_on_c, 0, 47, 58
1, 393289, Note_off_c, 0, 41, 64
1, 393291, Control_c, 0, 64, 127
1, 393292, Note_off_c, 0, 84, 62
1, 393322, Note_on_c, 0, 80, 77
1, 393324, Note_off_c, 0, 83, 62
1, 393367, Note_on_c, 0, 36, 48
1, 393369, Note_off_c, 0, 44, 51
1, 393374, Note_off_c, 0, 80, 63
1, 393377, Note_off_c, 0, 47, 53
1, 393381, Note_on_c, 0, 38, 56
1, 393392, Note_on_c, 0, 79, 72
1, 393422, Note_off_c, 0, 79, 59
1, 393451, Note_on_c, 0, 77, 76
1, 393463, Note_on_c, 0, 41, 55
1, 393476, Note_off_c, 0, 36, 59
1, 393483, Control_c, 0, 64, 110
1, 393496, Note_on_c, 0, 44, 62
1, 393497, Control_c, 0, 64, 86
1, 393505, Note_off_c, 0, 38, 61
1, 393512, Control_c, 0, 64, 63
1, 393515, Note_on_c, 0, 47, 59
1, 393517, Note_off_c, 0, 77, 62
1, 393519, Note_on_c, 0, 75, 70
1, 393527, Control_c, 0, 64, 0
1, 393535, Note_off_c, 0, 41, 64
1, 393568, Note_off_c, 0, 75, 65
1, 393573, Control_c, 0, 64, 55
1, 393574, Note_on_c, 0, 74, 72
1, 393587, Control_c, 0, 64, 70
1, 393602, Control_c, 0, 64, 82
1, 393613, Note_on_c, 0, 36, 59
1, 393617, Control_c, 0, 64, 101
1, 393623, Note_off_c, 0, 44, 57
1, 393631, Note_off_c, 0, 47, 61
1, 393632, Control_c, 0, 64, 122
1, 393637, Note_on_c, 0, 75, 70
1, 393637, Note_off_c, 0, 74, 63
1, 393638, Note_on_c, 0, 38, 57
1, 393647, Control_c, 0, 64, 127
1, 393700, Note_on_c, 0, 77, 73
1, 393705, Note_off_c, 0, 75, 65
1, 393724, Note_on_c, 0, 41, 53
1, 393738, Note_off_c, 0, 36, 57
1, 393753, Note_off_c, 0, 77, 63
1, 393760, Note_on_c, 0, 44, 55
1, 393761, Note_off_c, 0, 38, 61
1, 393773, Note_on_c, 0, 79, 80
1, 393789, Note_on_c, 0, 47, 56
1, 393803, Note_off_c, 0, 41, 63
1, 393824, Note_off_c, 0, 79, 61
1, 393825, Note_on_c, 0, 81, 80
1, 393891, Note_on_c, 0, 83, 79
1, 393893, Note_off_c, 0, 47, 60
1, 393896, Note_off_c, 0, 44, 60
1, 393898, Note_on_c, 0, 36, 51
1, 393907, Note_off_c, 0, 81, 61
1, 393911, Note_on_c, 0, 38, 59
1, 393935, Control_c, 0, 64, 109
1, 393943, Note_on_c, 0, 84, 72
1, 393950, Control_c, 0, 64, 92
1, 393953, Note_off_c, 0, 83, 62
1, 393965, Control_c, 0, 64, 80
1, 393980, Control_c, 0, 64, 72
1, 393990, Note_on_c, 0, 41, 53
1, 393991, Note_off_c, 0, 36, 63
1, 393994, Control_c, 0, 64, 69
1, 394006, Note_off_c, 0, 84, 66
1, 394008, Note_on_c, 0, 86, 80
1, 394009, Control_c, 0, 64, 71
1, 394015, Note_off_c, 0, 38, 63
1, 394018, Note_on_c, 0, 44, 59
1, 394024, Control_c, 0, 64, 78
1, 394035, Note_on_c, 0, 47, 59
1, 394039, Control_c, 0, 64, 89
1, 394054, Control_c, 0, 64, 104
1, 394060, Note_off_c, 0, 41, 59
1, 394069, Control_c, 0, 64, 116
1, 394071, Note_on_c, 0, 84, 78
1, 394075, Note_off_c, 0, 86, 64
1, 394084, Control_c, 0, 64, 126
1, 394099, Control_c, 0, 64, 127
1, 394114, Note_on_c, 0, 36, 62
1, 394120, Note_on_c, 0, 83, 72
1, 394120, Note_off_c, 0, 47, 61
1, 394126, Note_on_c, 0, 38, 63
1, 394164, Note_off_c, 0, 84, 63
1, 394179, Note_on_c, 0, 80, 78
1, 394186, Note_off_c, 0, 83, 61
1, 394221, Note_off_c, 0, 38, 62
1, 394232, Note_off_c, 0, 80, 65
1, 394237, Note_on_c, 0, 47, 68
1, 394244, Note_on_c, 0, 79, 70
1, 394257, Note_off_c, 0, 44, 56
1, 394266, Poly_aftertouch_c, 0, 41, 0
1, 394267, Note_off_c, 0, 36, 37
1, 394272, Note_off_c, 0, 79, 59
1, 394299, Note_on_c, 0, 77, 71
1, 394358, Note_on_c, 0, 75, 75
1, 394360, Note_off_c, 0, 77, 61
1, 394415, Note_off_c, 0, 75, 66
1, 394419, Note_on_c, 0, 74, 78
1, 394425, Control_c, 0, 64, 99
1, 394440, Control_c, 0, 64, 84
1, 394455, Control_c, 0, 64, 72
1, 394464, Note_off_c, 0, 74, 60
1, 394470, Control_c, 0, 64, 65
1, 394481, Note_off_c, 0, 47, 62
1, 394484, Control_c, 0, 64, 65
1, 394489, Note_on_c, 0, 36, 51
1, 394499, Control_c, 0, 64, 71
1, 394501, Note_on_c, 0, 40, 58
1, 394514, Note_on_c, 0, 88, 80
1, 394514, Control_c, 0, 64, 83
1, 394529, Control_c, 0, 64, 97
1, 394543, Control_c, 0, 64, 109
1, 394558, Control_c, 0, 64, 114
1, 394573, Control_c, 0, 64, 119
1, 394583, Note_off_c, 0, 88, 66
1, 394588, Control_c, 0, 64, 127
1, 394594, Note_on_c, 0, 86, 79
1, 394599, Note_on_c, 0, 43, 58
1, 394639, Note_on_c, 0, 46, 61
1, 394647, Note_off_c, 0, 40, 63
1, 394650, Note_off_c, 0, 36, 35
1, 394660, Note_on_c, 0, 48, 60
1, 394667, Note_on_c, 0, 84, 69
1, 394677, Note_off_c, 0, 43, 61
1, 394704, Note_off_c, 0, 86, 62
1, 394726, Note_on_c, 0, 82, 78
1, 394729, Note_off_c, 0, 84, 65
1, 394733, Note_off_c, 0, 46, 62
1, 394750, Note_on_c, 0, 40, 64
1, 394752, Note_on_c, 0, 36, 55
1, 394752, Note_off_c, 0, 48, 65
1, 394785, Note_off_c, 0, 82, 64
1, 394798, Note_on_c, 0, 81, 81
1, 394832, Note_off_c, 0, 36, 61
1, 394842, Note_off_c, 0, 81, 58
1, 394851, Note_on_c, 0, 43, 42
1, 394853, Note_on_c, 0, 46, 56
1, 394862, Note_on_c, 0, 79, 76
1, 394862, Control_c, 0, 64, 119
1, 394874, Note_off_c, 0, 40, 61
1, 394877, Control_c, 0, 64, 96
1, 394880, Note_on_c, 0, 48, 67
1, 394892, Control_c, 0, 64, 74
1, 394904, Note_off_c, 0, 43, 59
1, 394907, Control_c, 0, 64, 0
1, 394921, Note_on_c, 0, 77, 80
1, 394921, Note_off_c, 0, 79, 63
1, 394936, Note_off_c, 0, 46, 56
1, 394951, Note_on_c, 0, 36, 64
1, 394960, Note_off_c, 0, 48, 63
1, 394966, Control_c, 0, 64, 62
1, 394973, Note_on_c, 0, 40, 55
1, 394981, Note_off_c, 0, 77, 62
1, 394981, Control_c, 0, 64, 75
1, 394984, Note_on_c, 0, 76, 78
1, 394996, Control_c, 0, 64, 95
1, 395010, Control_c, 0, 64, 121
1, 395025, Control_c, 0, 64, 127
1, 395051, Note_off_c, 0, 36, 60
1, 395054, Note_on_c, 0, 77, 79
1, 395055, Note_on_c, 0, 43, 51
1, 395056, Note_off_c, 0, 76, 65
1, 395062, Note_on_c, 0, 46, 54
1, 395087, Note_on_c, 0, 48, 59
1, 395101, Note_off_c, 0, 40, 60
1, 395112, Note_off_c, 0, 77, 61
1, 395116, Note_on_c, 0, 79, 78
1, 395131, Note_off_c, 0, 43, 60
1, 395162, Note_off_c, 0, 79, 63
1, 395175, Note_off_c, 0, 46, 52
1, 395187, Note_on_c, 0, 81, 75
1, 395194, Note_on_c, 0, 36, 61
1, 395204, Note_off_c, 0, 48, 63
1, 395211, Note_on_c, 0, 40, 64
1, 395237, Note_off_c, 0, 81, 62
1, 395240, Note_on_c, 0, 82, 77
1, 395274, Note_on_c, 0, 43, 59
1, 395283, Note_off_c, 0, 36, 59
1, 395306, Note_on_c, 0, 46, 52
1, 395313, Note_on_c, 0, 84, 75
1, 395318, Note_off_c, 0, 82, 64
1, 395334, Note_on_c, 0, 48, 62
1, 395336, Note_off_c, 0, 40, 61
1, 395349, Note_on_c, 0, 86, 69
1, 395366, Control_c, 0, 64, 117
1, 395370, Note_off_c, 0, 43, 60
1, 395375, Note_off_c, 0, 84, 65
1, 395389, Control_c, 0, 64, 93
1, 395404, Control_c, 0, 64, 78
1, 395419, Control_c, 0, 64, 66
1, 395423, Note_on_c, 0, 36, 66
1, 395432, Note_off_c, 0, 46, 56
1, 395434, Note_off_c, 0, 48, 65
1, 395434, Control_c, 0, 64, 59
1, 395437, Note_on_c, 0, 88, 78
1, 395437, Note_off_c, 0, 86, 64
1, 395445, Note_on_c, 0, 40, 65
1, 395448, Control_c, 0, 64, 65
1, 395463, Control_c, 0, 64, 72
1, 395478, Control_c, 0, 64, 87
1, 395493, Control_c, 0, 64, 103
1, 395504, Note_on_c, 0, 86, 77
1, 395508, Control_c, 0, 64, 119
1, 395509, Note_on_c, 0, 43, 56
1, 395509, Note_off_c, 0, 88, 65
1, 395522, Control_c, 0, 64, 127
1, 395523, Note_off_c, 0, 36, 59
1, 395548, Note_on_c, 0, 46, 59
1, 395551, Note_on_c, 0, 84, 73
1, 395569, Note_on_c, 0, 48, 61
1, 395595, Note_off_c, 0, 86, 62
1, 395607, Note_on_c, 0, 82, 73
1, 395616, Note_off_c, 0, 40, 0
1, 395616, Note_off_c, 0, 84, 63
1, 395634, Note_on_c, 0, 40, 35
1, 395643, Note_on_c, 0, 36, 66
1, 395653, Note_off_c, 0, 48, 64
1, 395661, Note_off_c, 0, 82, 64
1, 395669, Note_on_c, 0, 81, 69
1, 395694, Note_off_c, 0, 81, 67
1, 395721, Note_on_c, 0, 79, 76
1, 395732, Note_off_c, 0, 36, 49
1, 395750, Note_off_c, 0, 40, 60
1, 395752, Note_off_c, 0, 43, 41
1, 395756, Note_on_c, 0, 48, 63
1, 395769, Note_on_c, 0, 77, 68
1, 395773, Note_off_c, 0, 79, 63
1, 395815, Note_off_c, 0, 46, 38
1, 395819, Note_on_c, 0, 76, 77
1, 395824, Note_off_c, 0, 77, 62
1, 395863, Note_off_c, 0, 76, 66
1, 395892, Control_c, 0, 64, 108
1, 395907, Control_c, 0, 64, 87
1, 395917, Note_on_c, 0, 36, 69
1, 395922, Control_c, 0, 64, 64
1, 395926, Note_off_c, 0, 48, 51
1, 395929, Note_on_c, 0, 89, 83
1, 395937, Control_c, 0, 64, 0
1, 395997, Control_c, 0, 64, 53
1, 396004, Note_on_c, 0, 88, 83
1, 396012, Control_c, 0, 64, 70
1, 396027, Control_c, 0, 64, 81
1, 396033, Note_on_c, 0, 41, 58
1, 396042, Control_c, 0, 64, 96
1, 396048, Note_off_c, 0, 36, 58
1, 396051, Note_off_c, 0, 89, 64
1, 396057, Control_c, 0, 64, 112
1, 396071, Control_c, 0, 64, 122
1, 396076, Note_off_c, 0, 88, 64
1, 396083, Note_on_c, 0, 86, 69
1, 396086, Control_c, 0, 64, 127
1, 396090, Note_on_c, 0, 45, 50
1, 396108, Note_off_c, 0, 86, 66
1, 396111, Note_on_c, 0, 48, 57
1, 396129, Note_on_c, 0, 84, 73
1, 396129, Note_off_c, 0, 41, 63
1, 396167, Note_off_c, 0, 84, 56
1, 396190, Note_on_c, 0, 36, 61
1, 396194, Note_off_c, 0, 45, 63
1, 396198, Note_on_c, 0, 82, 76
1, 396224, Note_off_c, 0, 48, 54
1, 396251, Note_on_c, 0, 81, 78
1, 396255, Note_on_c, 0, 41, 64
1, 396281, Note_off_c, 0, 36, 59
1, 396301, Note_off_c, 0, 82, 53
1, 396313, Note_on_c, 0, 79, 73
1, 396315, Control_c, 0, 64, 119
1, 396327, Note_on_c, 0, 45, 42
1, 396328, Note_off_c, 0, 81, 60
1, 396330, Control_c, 0, 64, 101
1, 396343, Note_on_c, 0, 48, 70
1, 396345, Control_c, 0, 64, 84
1, 396352, Note_off_c, 0, 41, 64
1, 396360, Control_c, 0, 64, 72
1, 396364, Note_on_c, 0, 77, 80
1, 396365, Note_off_c, 0, 79, 63
1, 396375, Control_c, 0, 64, 64
1, 396389, Control_c, 0, 64, 65
1, 396404, Control_c, 0, 64, 70
1, 396419, Control_c, 0, 64, 79
1, 396424, Note_on_c, 0, 36, 60
1, 396430, Note_on_c, 0, 79, 78
1, 396434, Control_c, 0, 64, 93
1, 396442, Note_off_c, 0, 77, 60
1, 396449, Note_off_c, 0, 48, 58
1, 396449, Control_c, 0, 64, 105
1, 396463, Control_c, 0, 64, 114
1, 396464, Note_on_c, 0, 41, 70
1, 396478, Control_c, 0, 64, 120
1, 396493, Note_off_c, 0, 45, 0
1, 396493, Control_c, 0, 64, 127
1, 396502, Note_on_c, 0, 81, 88
1, 396507, Note_off_c, 0, 36, 62
1, 396508, Note_off_c, 0, 79, 60
1, 396513, Note_on_c, 0, 45, 23
1, 396555, Note_on_c, 0, 82, 77
1, 396561, Note_on_c, 0, 48, 65
1, 396561, Note_off_c, 0, 81, 61
1, 396571, Note_off_c, 0, 41, 65
1, 396589, Note_off_c, 0, 82, 66
1, 396616, Note_on_c, 0, 84, 82
1, 396649, Note_on_c, 0, 36, 62
1, 396659, Note_off_c, 0, 48, 62
1, 396674, Note_off_c, 0, 84, 62
1, 396677, Note_on_c, 0, 86, 76
1, 396685, Note_on_c, 0, 41, 66
1, 396698, Note_off_c, 0, 45, 34
1, 396716, Control_c, 0, 64, 126
1, 396725, Note_off_c, 0, 36, 62
1, 396731, Control_c, 0, 64, 99
1, 396731, Note_on_c, 0, 88, 78
1, 396746, Control_c, 0, 64, 86
1, 396746, Note_on_c, 0, 45, 31
1, 396761, Control_c, 0, 64, 77
1, 396764, Note_off_c, 0, 86, 62
1, 396771, Note_on_c, 0, 48, 70
1, 396771, Note_off_c, 0, 41, 66
1, 396776, Control_c, 0, 64, 75
1, 396791, Control_c, 0, 64, 77
1, 396801, Note_on_c, 0, 89, 86
1, 396802, Note_off_c, 0, 88, 65
1, 396805, Control_c, 0, 64, 86
1, 396820, Control_c, 0, 64, 106
1, 396834, Note_on_c, 0, 36, 68
1, 396835, Control_c, 0, 64, 127
1, 396850, Note_off_c, 0, 48, 60
1, 396856, Note_on_c, 0, 41, 65
1, 396862, Note_on_c, 0, 88, 78
1, 396918, Note_off_c, 0, 89, 64
1, 396920, Note_off_c, 0, 36, 62
1, 396928, Note_off_c, 0, 88, 65
1, 396931, Note_on_c, 0, 86, 72
1, 396955, Note_on_c, 0, 48, 54
1, 396959, Note_off_c, 0, 86, 65
1, 396966, Note_off_c, 0, 41, 57
1, 396975, Note_on_c, 0, 84, 72
1, 397005, Note_off_c, 0, 84, 61
1, 397023, Note_on_c, 0, 36, 67
1, 397035, Note_off_c, 0, 48, 63
1, 397039, Note_on_c, 0, 82, 79
1, 397047, Note_on_c, 0, 41, 46
1, 397094, Note_on_c, 0, 81, 78
1, 397118, Note_off_c, 0, 36, 43
1, 397125, Note_off_c, 0, 41, 63
1, 397144, Note_on_c, 0, 48, 71
1, 397148, Note_on_c, 0, 79, 74
1, 397149, Note_off_c, 0, 82, 62
1, 397151, Note_off_c, 0, 81, 63
1, 397154, Note_off_c, 0, 45, 40
1, 397194, Note_off_c, 0, 79, 63
1, 397196, Note_on_c, 0, 77, 70
1, 397228, Note_off_c, 0, 77, 59
1, 397228, Control_c, 0, 64, 109
1, 397243, Control_c, 0, 64, 92
1, 397258, Control_c, 0, 64, 74
1, 397273, Control_c, 0, 64, 0
1, 397308, Note_on_c, 0, 90, 82
1, 397315, Note_on_c, 0, 36, 64
1, 397318, Note_off_c, 0, 48, 60
1, 397335, Note_on_c, 0, 39, 52
1, 397345, Control_c, 0, 64, 62
1, 397360, Control_c, 0, 64, 76
1, 397375, Control_c, 0, 64, 93
1, 397381, Note_on_c, 0, 87, 79
1, 397390, Control_c, 0, 64, 125
1, 397405, Control_c, 0, 64, 127
1, 397421, Note_off_c, 0, 90, 57
1, 397438, Note_on_c, 0, 42, 48
1, 397441, Note_off_c, 0, 36, 52
1, 397455, Note_on_c, 0, 86, 77
1, 397455, Note_off_c, 0, 87, 65
1, 397479, Note_off_c, 0, 39, 61
1, 397483, Note_on_c, 0, 45, 46
1, 397488, Note_on_c, 0, 48, 60
1, 397504, Note_off_c, 0, 86, 63
1, 397515, Note_off_c, 0, 42, 61
1, 397518, Note_on_c, 0, 84, 72
1, 397559, Note_off_c, 0, 84, 57
1, 397579, Note_on_c, 0, 82, 86
1, 397586, Note_on_c, 0, 36, 60
1, 397597, Note_on_c, 0, 39, 65
1, 397603, Note_off_c, 0, 45, 0
1, 397610, Note_off_c, 0, 48, 54
1, 397647, Poly_aftertouch_c, 0, 45, 127
1, 397652, Note_on_c, 0, 42, 60
1, 397656, Note_on_c, 0, 81, 82
1, 397665, Control_c, 0, 64, 115
1, 397667, Note_off_c, 0, 82, 65
1, 397680, Control_c, 0, 64, 97
1, 397682, Note_off_c, 0, 36, 62
1, 397695, Control_c, 0, 64, 85
1, 397707, Note_off_c, 0, 39, 62
1, 397709, Note_off_c, 0, 81, 63
1, 397709, Control_c, 0, 64, 78
1, 397718, Note_on_c, 0, 79, 83
1, 397721, Note_on_c, 0, 48, 68
1, 397724, Control_c, 0, 64, 77
1, 397729, Note_off_c, 0, 42, 63
1, 397739, Control_c, 0, 64, 79
1, 397754, Control_c, 0, 64, 86
1, 397768, Control_c, 0, 64, 98
1, 397771, Note_off_c, 0, 79, 63
1, 397783, Control_c, 0, 64, 117
1, 397786, Note_on_c, 0, 78, 87
1, 397798, Control_c, 0, 64, 127
1, 397807, Note_on_c, 0, 36, 64
1, 397825, Note_on_c, 0, 39, 64
1, 397835, Note_off_c, 0, 48, 59
1, 397849, Note_off_c, 0, 78, 64
1, 397858, Note_on_c, 0, 79, 84
1, 397870, Note_on_c, 0, 42, 57
1, 397906, Note_off_c, 0, 36, 54
1, 397922, Note_on_c, 0, 81, 82
1, 397923, Note_off_c, 0, 79, 62
1, 397936, Note_on_c, 0, 48, 63
1, 397941, Note_off_c, 0, 39, 60
1, 397972, Note_off_c, 0, 42, 61
1, 397979, Note_on_c, 0, 82, 88
1, 397987, Note_off_c, 0, 81, 58
1, 398037, Note_off_c, 0, 82, 67
1, 398049, Note_on_c, 0, 84, 85
1, 398060, Note_on_c, 0, 36, 66
1, 398066, Note_on_c, 0, 39, 63
1, 398078, Control_c, 0, 64, 111
1, 398081, Note_off_c, 0, 48, 57
1, 398093, Control_c, 0, 64, 95
1, 398108, Control_c, 0, 64, 86
1, 398110, Note_on_c, 0, 86, 84
1, 398113, Note_off_c, 0, 84, 65
1, 398119, Poly_aftertouch_c, 0, 45, 0
1, 398123, Control_c, 0, 64, 83
1, 398124, Note_on_c, 0, 42, 55
1, 398138, Control_c, 0, 64, 84
1, 398144, Note_on_c, 0, 45, 13
1, 398153, Control_c, 0, 64, 90
1, 398154, Note_off_c, 0, 36, 62
1, 398164, Note_on_c, 0, 87, 83
1, 398168, Control_c, 0, 64, 103
1, 398183, Control_c, 0, 64, 125
1, 398183, Note_off_c, 0, 39, 61
1, 398186, Note_off_c, 0, 86, 62
1, 398197, Control_c, 0, 64, 127
1, 398200, Note_on_c, 0, 48, 70
1, 398211, Note_off_c, 0, 42, 62
1, 398223, Note_on_c, 0, 90, 88
1, 398228, Note_off_c, 0, 87, 63
1, 398268, Note_on_c, 0, 36, 71
1, 398286, Note_on_c, 0, 39, 65
1, 398291, Note_on_c, 0, 87, 79
1, 398296, Note_off_c, 0, 90, 66
1, 398307, Note_off_c, 0, 48, 61
1, 398341, Note_on_c, 0, 42, 57
1, 398365, Note_on_c, 0, 86, 75
1, 398383, Note_off_c, 0, 87, 64
1, 398410, Note_off_c, 0, 36, 43
1, 398419, Note_off_c, 0, 86, 65
1, 398429, Note_on_c, 0, 84, 72
1, 398436, Note_on_c, 0, 48, 70
1, 398449, Note_off_c, 0, 45, 51
1, 398451, Note_off_c, 0, 39, 55
1, 398454, Note_off_c, 0, 84, 66
1, 398472, Note_off_c, 0, 42, 58
1, 398490, Note_on_c, 0, 82, 82
1, 398560, Note_on_c, 0, 81, 79
1, 398560, Note_off_c, 0, 82, 66
1, 398603, Note_off_c, 0, 81, 63
1, 398618, Note_on_c, 0, 79, 69
1, 398680, Note_on_c, 0, 78, 88
1, 398690, Note_off_c, 0, 79, 58
1, 398695, Control_c, 0, 64, 123
1, 398709, Control_c, 0, 64, 99
1, 398722, Note_off_c, 0, 78, 63
1, 398724, Control_c, 0, 64, 84
1, 398739, Control_c, 0, 64, 67
1, 398754, Control_c, 0, 64, 43
1, 398761, Note_on_c, 0, 36, 55
1, 398769, Control_c, 0, 64, 49
1, 398783, Control_c, 0, 64, 65
1, 398796, Note_on_c, 0, 40, 51
1, 398798, Control_c, 0, 64, 74
1, 398801, Note_on_c, 0, 91, 86
1, 398813, Control_c, 0, 64, 87
1, 398817, Note_off_c, 0, 48, 32
1, 398828, Control_c, 0, 64, 103
1, 398843, Control_c, 0, 64, 113
1, 398857, Control_c, 0, 64, 119
1, 398872, Control_c, 0, 64, 127
1, 398880, Note_off_c, 0, 91, 62
1, 398886, Note_on_c, 0, 89, 83
1, 398899, Note_off_c, 0, 36, 59
1, 398913, Note_on_c, 0, 43, 53
1, 398949, Note_on_c, 0, 88, 76
1, 398949, Note_off_c, 0, 40, 62
1, 398952, Note_on_c, 0, 46, 48
1, 398963, Note_on_c, 0, 48, 58
1, 398990, Note_off_c, 0, 89, 64
1, 399006, Note_on_c, 0, 86, 76
1, 399011, Note_off_c, 0, 88, 65
1, 399029, Note_on_c, 0, 36, 58
1, 399051, Note_on_c, 0, 40, 53
1, 399055, Note_off_c, 0, 86, 65
1, 399059, Note_off_c, 0, 48, 60
1, 399066, Note_on_c, 0, 84, 72
1, 399093, Note_off_c, 0, 84, 63
1, 399123, Note_off_c, 0, 36, 59
1, 399127, Note_on_c, 0, 82, 78
1, 399136, Note_off_c, 0, 40, 62
1, 399159, Note_off_c, 0, 43, 35
1, 399164, Note_on_c, 0, 48, 69
1, 399196, Note_on_c, 0, 80, 80
1, 399196, Note_off_c, 0, 46, 48
1, 399203, Note_off_c, 0, 82, 64
1, 399221, Control_c, 0, 64, 118
1, 399236, Control_c, 0, 64, 92
1, 399247, Note_off_c, 0, 80, 65
1, 399250, Note_on_c, 0, 79, 82
1, 399251, Control_c, 0, 64, 73
1, 399266, Control_c, 0, 64, 0
1, 399280, Note_on_c, 0, 36, 65
1, 399290, Note_off_c, 0, 48, 64
1, 399310, Control_c, 0, 64, 63
1, 399325, Control_c, 0, 64, 73
1, 399327, Note_on_c, 0, 80, 80
1, 399327, Note_off_c, 0, 79, 60
1, 399339, Control_c, 0, 64, 84
1, 399354, Control_c, 0, 64, 97
1, 399369, Control_c, 0, 64, 108
1, 399375, Note_on_c, 0, 82, 86
1, 399378, Note_on_c, 0, 41, 67
1, 399383, Note_off_c, 0, 80, 63
1, 399384, Control_c, 0, 64, 118
1, 399393, Note_off_c, 0, 36, 58
1, 399399, Control_c, 0, 64, 127
1, 399429, Note_off_c, 0, 82, 66
1, 399448, Note_on_c, 0, 44, 55
1, 399448, Note_on_c, 0, 84, 88
1, 399458, Note_off_c, 0, 41, 65
1, 399476, Note_on_c, 0, 48, 59
1, 399504, Note_off_c, 0, 84, 60
1, 399513, Note_on_c, 0, 86, 79
1, 399547, Note_on_c, 0, 36, 71
1, 399554, Note_off_c, 0, 44, 62
1, 399563, Note_off_c, 0, 48, 60
1, 399564, Note_on_c, 0, 88, 85
1, 399571, Note_off_c, 0, 86, 63
1, 399610, Note_on_c, 0, 41, 57
1, 399625, Note_off_c, 0, 88, 62
1, 399637, Note_off_c, 0, 36, 61
1, 399642, Note_on_c, 0, 89, 84
1, 399682, Note_on_c, 0, 44, 52
1, 399682, Note_on_c, 0, 48, 67
1, 399682, Note_off_c, 0, 41, 65
1, 399703, Note_on_c, 0, 91, 85
1, 399708, Note_off_c, 0, 89, 64
1, 399749, Note_on_c, 0, 36, 74
1, 399753, Note_off_c, 0, 44, 59
1, 399760, Note_on_c, 0, 92, 89
1, 399765, Note_off_c, 0, 91, 60
1, 399773, Note_off_c, 0, 48, 62
1, 399816, Note_on_c, 0, 41, 62
1, 399831, Note_off_c, 0, 92, 68
1, 399841, Note_on_c, 0, 91, 81
1, 399863, Note_off_c, 0, 36, 62
1, 399873, Note_off_c, 0, 91, 59
1, 399888, Note_on_c, 0, 89, 78
1, 399897, Note_on_c, 0, 48, 71
1, 399901, Note_on_c, 0, 44, 39
1, 399939, Note_off_c, 0, 89, 61
1, 399956, Note_off_c, 0, 41, 51
1, 399956, Note_on_c, 0, 88, 82
1, 400026, Note_on_c, 0, 36, 57
1, 400028, Note_off_c, 0, 88, 64
1, 400029, Note_on_c, 0, 86, 78
1, 400078, Note_off_c, 0, 86, 61
1, 400092, Note_on_c, 0, 84, 71
1, 400096, Note_off_c, 0, 48, 0
1, 400096, Note_on_c, 0, 48, 27
1, 400100, Note_off_c, 0, 44, 0
1, 400107, Note_off_c, 0, 84, 65
1, 400120, Note_off_c, 0, 36, 60
1, 400137, Poly_aftertouch_c, 0, 44, 127
1, 400185, Note_on_c, 0, 81, 68
1, 400192, Note_off_c, 0, 48, 60
1, 400219, Note_on_c, 0, 36, 72
1, 400236, Control_c, 0, 64, 107
1, 400240, Note_off_c, 0, 81, 57
1, 400247, Poly_aftertouch_c, 0, 44, 0
1, 400251, Control_c, 0, 64, 92
1, 400266, Control_c, 0, 64, 84
1, 400266, Note_on_c, 0, 83, 67
1, 400281, Control_c, 0, 64, 83
1, 400283, Note_on_c, 0, 80, 44
1, 400284, Note_on_c, 0, 38, 37
1, 400296, Control_c, 0, 64, 84
1, 400308, Note_off_c, 0, 80, 54
1, 400311, Control_c, 0, 64, 88
1, 400326, Control_c, 0, 64, 96
1, 400341, Control_c, 0, 64, 106
1, 400342, Note_on_c, 0, 44, 66
1, 400346, Note_off_c, 0, 36, 61
1, 400355, Control_c, 0, 64, 112
1, 400362, Note_on_c, 0, 80, 72
1, 400364, Note_on_c, 0, 41, 37
1, 400365, Note_off_c, 0, 38, 56
1, 400370, Control_c, 0, 64, 113
1, 400374, Note_off_c, 0, 83, 60
1, 400385, Control_c, 0, 64, 115
1, 400400, Control_c, 0, 64, 120
1, 400402, Note_on_c, 0, 47, 49
1, 400415, Control_c, 0, 64, 127
1, 400433, Note_on_c, 0, 79, 74
1, 400437, Note_off_c, 0, 80, 62
1, 400469, Note_off_c, 0, 47, 64
1, 400469, Note_on_c, 0, 36, 59
1, 400487, Note_off_c, 0, 79, 62
1, 400493, Note_on_c, 0, 38, 57
1, 400497, Note_on_c, 0, 77, 71
1, 400532, Note_off_c, 0, 44, 54
1, 400536, Note_off_c, 0, 77, 49
1, 400561, Note_on_c, 0, 75, 75
1, 400576, Note_on_c, 0, 47, 67
1, 400576, Note_off_c, 0, 36, 58
1, 400587, Note_off_c, 0, 38, 57
1, 400614, Note_off_c, 0, 41, 13
1, 400636, Note_on_c, 0, 74, 71
1, 400642, Note_off_c, 0, 75, 65
1, 400674, Control_c, 0, 64, 120
1, 400688, Control_c, 0, 64, 90
1, 400695, Note_off_c, 0, 74, 66
1, 400701, Note_on_c, 0, 72, 77
1, 400701, Note_on_c, 0, 36, 66
1, 400702, Note_off_c, 0, 47, 57
1, 400703, Control_c, 0, 64, 66
1, 400718, Control_c, 0, 64, 0
1, 400721, Note_on_c, 0, 38, 59
1, 400756, Note_off_c, 0, 72, 65
1, 400764, Control_c, 0, 64, 53
1, 400778, Control_c, 0, 64, 69
1, 400779, Note_on_c, 0, 71, 70
1, 400793, Control_c, 0, 64, 80
1, 400802, Note_off_c, 0, 36, 61
1, 400806, Note_on_c, 0, 41, 55
1, 400808, Control_c, 0, 64, 93
1, 400823, Control_c, 0, 64, 103
1, 400834, Note_off_c, 0, 38, 60
1, 400838, Control_c, 0, 64, 112
1, 400841, Note_off_c, 0, 71, 58
1, 400842, Note_on_c, 0, 43, 50
1, 400846, Note_on_c, 0, 72, 82
1, 400847, Note_on_c, 0, 47, 61
1, 400852, Control_c, 0, 64, 117
1, 400867, Control_c, 0, 64, 119
1, 400877, Note_off_c, 0, 41, 60
1, 400882, Control_c, 0, 64, 120
1, 400897, Control_c, 0, 64, 120
1, 400913, Note_on_c, 0, 74, 77
1, 400915, Note_off_c, 0, 72, 64
1, 400931, Note_on_c, 0, 36, 64
1, 400940, Note_off_c, 0, 43, 60
1, 400940, Note_off_c, 0, 47, 64
1, 400941, Control_c, 0, 64, 119
1, 400955, Note_on_c, 0, 38, 61
1, 400956, Control_c, 0, 64, 117
1, 400971, Note_on_c, 0, 75, 87
1, 400971, Control_c, 0, 64, 112
1, 400975, Note_off_c, 0, 74, 64
1, 400985, Control_c, 0, 64, 105
1, 401000, Control_c, 0, 64, 97
1, 401015, Control_c, 0, 64, 90
1, 401029, Note_on_c, 0, 41, 61
1, 401029, Note_off_c, 0, 36, 63
1, 401030, Control_c, 0, 64, 87
1, 401034, Note_off_c, 0, 75, 66
1, 401048, Note_on_c, 0, 77, 89
1, 401050, Note_on_c, 0, 43, 61
1, 401059, Note_off_c, 0, 38, 62
1, 401074, Control_c, 0, 64, 87
1, 401085, Note_on_c, 0, 47, 61
1, 401089, Control_c, 0, 64, 88
1, 401104, Control_c, 0, 64, 88
1, 401110, Note_off_c, 0, 77, 61
1, 401112, Note_on_c, 0, 79, 78
1, 401119, Control_c, 0, 64, 89
1, 401134, Control_c, 0, 64, 89
1, 401146, Note_on_c, 0, 36, 68
1, 401154, Note_off_c, 0, 43, 56
1, 401163, Note_off_c, 0, 47, 60
1, 401163, Control_c, 0, 64, 90
1, 401164, Note_off_c, 0, 41, 38
1, 401167, Note_on_c, 0, 81, 85
1, 401168, Note_on_c, 0, 38, 66
1, 401178, Control_c, 0, 64, 90
1, 401187, Note_off_c, 0, 79, 61
1, 401193, Control_c, 0, 64, 92
1, 401208, Control_c, 0, 64, 94
1, 401223, Note_on_c, 0, 83, 78
1, 401223, Control_c, 0, 64, 98
1, 401231, Note_off_c, 0, 81, 63
1, 401238, Control_c, 0, 64, 101
1, 401252, Control_c, 0, 64, 103
1, 401261, Note_on_c, 0, 41, 65
1, 401267, Control_c, 0, 64, 106
1, 401269, Note_off_c, 0, 36, 62
1, 401273, Note_off_c, 0, 83, 60
1, 401282, Control_c, 0, 64, 108
1, 401285, Note_on_c, 0, 43, 61
1, 401294, Note_on_c, 0, 84, 85
1, 401296, Control_c, 0, 64, 111
1, 401297, Note_off_c, 0, 38, 61
1, 401301, Note_on_c, 0, 47, 63
1, 401311, Control_c, 0, 64, 115
1, 401326, Control_c, 0, 64, 117
1, 401341, Control_c, 0, 64, 117
1, 401350, Note_off_c, 0, 41, 64
1, 401354, Note_off_c, 0, 84, 63
1, 401359, Note_on_c, 0, 86, 76
1, 401408, Control_c, 0, 64, 117
1, 401417, Note_on_c, 0, 87, 85
1, 401423, Control_c, 0, 64, 115
1, 401425, Note_off_c, 0, 86, 63
1, 401435, Note_off_c, 0, 47, 49
1, 401438, Control_c, 0, 64, 111
1, 401452, Control_c, 0, 64, 105
1, 401467, Control_c, 0, 64, 96
1, 401478, Note_off_c, 0, 87, 64
1, 401482, Control_c, 0, 64, 84
1, 401489, Note_on_c, 0, 89, 84
1, 401497, Control_c, 0, 64, 67
1, 401511, Control_c, 0, 64, 0
1, 401539, Poly_aftertouch_c, 0, 36, 0
1, 401540, Note_on_c, 0, 91, 85
1, 401543, Note_off_c, 0, 89, 65
1, 401544, Poly_aftertouch_c, 0, 35, 0
1, 401608, Note_on_c, 0, 93, 82
1, 401626, Note_off_c, 0, 91, 60
1, 401641, Note_on_c, 0, 95, 75
1, 401662, Note_on_c, 0, 48, 96
1, 401664, Note_on_c, 0, 36, 81
1, 401665, Note_off_c, 0, 43, 0
1, 401665, Note_on_c, 0, 43, 19
1, 401671, Note_off_c, 0, 93, 63
1, 401673, Note_on_c, 0, 39, 81
1, 401690, Note_off_c, 0, 48, 66
1, 401697, Note_off_c, 0, 36, 67
1, 401699, Note_off_c, 0, 43, 59
1, 401700, Note_off_c, 0, 39, 66
1, 401703, Note_on_c, 0, 96, 84
1, 401705, Control_c, 0, 64, 81
1, 401713, Note_off_c, 0, 95, 66
1, 401720, Control_c, 0, 64, 127
1, 401779, Note_on_c, 0, 91, 84
1, 401785, Note_off_c, 0, 96, 66
1, 401831, Note_off_c, 0, 91, 61
1, 401878, Note_on_c, 0, 89, 70
1, 401943, Note_on_c, 0, 67, 90
1, 401947, Note_on_c, 0, 63, 83
1, 401962, Note_off_c, 0, 67, 71
1, 401963, Note_on_c, 0, 87, 84
1, 401968, Note_off_c, 0, 63, 71
1, 401971, Control_c, 0, 64, 114
1, 401986, Control_c, 0, 64, 95
1, 401995, Note_off_c, 0, 89, 62
1, 402001, Control_c, 0, 64, 82
1, 402016, Control_c, 0, 64, 70
1, 402031, Control_c, 0, 64, 41
1, 402044, Note_on_c, 0, 86, 86
1, 402046, Control_c, 0, 64, 0
1, 402047, Note_off_c, 0, 87, 68
1, 402117, Note_on_c, 0, 84, 82
1, 402117, Note_off_c, 0, 86, 64
1, 402191, Note_off_c, 0, 84, 59
1, 402214, Note_on_c, 0, 63, 87
1, 402219, Note_on_c, 0, 60, 78
1, 402219, Note_on_c, 0, 87, 89
1, 402241, Note_off_c, 0, 60, 69
1, 402249, Note_off_c, 0, 63, 64
1, 402302, Note_on_c, 0, 91, 96
1, 402306, Note_off_c, 0, 87, 64
1, 402392, Note_on_c, 0, 89, 87
1, 402417, Note_off_c, 0, 91, 58
1, 402481, Note_on_c, 0, 87, 88
1, 402483, Note_on_c, 0, 67, 87
1, 402484, Note_on_c, 0, 63, 88
1, 402513, Note_off_c, 0, 67, 63
1, 402523, Note_off_c, 0, 89, 64
1, 402535, Note_off_c, 0, 63, 60
1, 402562, Note_on_c, 0, 86, 84
1, 402571, Note_off_c, 0, 87, 64
1, 402633, Note_off_c, 0, 86, 64
1, 402636, Note_on_c, 0, 84, 82
1, 402733, Note_on_c, 0, 87, 87
1, 402742, Note_on_c, 0, 63, 88
1, 402743, Note_on_c, 0, 60, 69
1, 402743, Note_off_c, 0, 84, 61
1, 402773, Note_off_c, 0, 60, 66
1, 402793, Note_off_c, 0, 63, 67
1, 402812, Note_on_c, 0, 91, 93
1, 402815, Note_off_c, 0, 87, 65
1, 402908, Note_on_c, 0, 89, 85
1, 402934, Note_off_c, 0, 91, 58
1, 402988, Note_on_c, 0, 63, 72
1, 402991, Note_on_c, 0, 87, 85
1, 403000, Note_on_c, 0, 67, 71
1, 403022, Note_off_c, 0, 63, 66
1, 403025, Note_off_c, 0, 67, 69
1, 403032, Note_off_c, 0, 89, 60
1, 403072, Note_on_c, 0, 86, 83
1, 403082, Note_off_c, 0, 87, 64
1, 403144, Note_off_c, 0, 86, 64
1, 403150, Note_on_c, 0, 84, 83
1, 403191, Note_off_c, 0, 84, 66
1, 403241, Note_on_c, 0, 83, 89
1, 403241, Note_on_c, 0, 62, 89
1, 403244, Note_on_c, 0, 55, 75
1, 403271, Note_off_c, 0, 62, 66
1, 403272, Note_off_c, 0, 55, 69
1, 403325, Note_off_c, 0, 83, 63
1, 403328, Note_on_c, 0, 86, 89
1, 403402, Note_off_c, 0, 86, 67
1, 403415, Note_on_c, 0, 84, 85
1, 403499, Note_on_c, 0, 83, 78
1, 403500, Note_on_c, 0, 62, 85
1, 403502, Note_on_c, 0, 65, 83
1, 403523, Note_off_c, 0, 65, 73
1, 403542, Note_off_c, 0, 84, 61
1, 403547, Note_off_c, 0, 62, 62
1, 403581, Note_on_c, 0, 81, 85
1, 403584, Note_off_c, 0, 83, 64
1, 403670, Note_off_c, 0, 81, 60
1, 403674, Note_on_c, 0, 79, 82
1, 403715, Note_off_c, 0, 79, 65
1, 403758, Note_on_c, 0, 62, 89
1, 403760, Note_on_c, 0, 55, 79
1, 403763, Note_on_c, 0, 83, 88
1, 403797, Note_off_c, 0, 62, 64
1, 403798, Note_off_c, 0, 55, 68
1, 403843, Note_off_c, 0, 83, 62
1, 403848, Note_on_c, 0, 86, 90
1, 403932, Note_on_c, 0, 84, 84
1, 403939, Note_off_c, 0, 86, 64
1, 404013, Note_on_c, 0, 62, 91
1, 404013, Note_on_c, 0, 83, 82
1, 404017, Note_on_c, 0, 65, 84
1, 404037, Note_off_c, 0, 65, 72
1, 404043, Note_off_c, 0, 84, 66
1, 404056, Note_off_c, 0, 62, 63
1, 404090, Note_on_c, 0, 81, 88
1, 404095, Note_off_c, 0, 83, 64
1, 404164, Note_off_c, 0, 81, 62
1, 404174, Note_on_c, 0, 79, 80
1, 404226, Note_off_c, 0, 79, 62
1, 404257, Note_on_c, 0, 62, 86
1, 404258, Note_on_c, 0, 77, 84
1, 404264, Note_on_c, 0, 55, 72
1, 404303, Note_off_c, 0, 55, 64
1, 404314, Note_off_c, 0, 62, 63
1, 404335, Note_off_c, 0, 77, 62
1, 404345, Note_on_c, 0, 80, 83
1, 404401, Note_off_c, 0, 80, 64
1, 404410, Note_on_c, 0, 79, 56
1, 404511, Note_on_c, 0, 62, 82
1, 404514, Note_on_c, 0, 65, 75
1, 404514, Note_on_c, 0, 77, 80
1, 404538, Note_off_c, 0, 65, 70
1, 404543, Note_off_c, 0, 62, 66
1, 404555, Note_off_c, 0, 79, 60
1, 404597, Note_on_c, 0, 75, 85
1, 404601, Note_off_c, 0, 77, 63
1, 404669, Note_off_c, 0, 75, 65
1, 404675, Note_on_c, 0, 74, 83
1, 404759, Note_off_c, 0, 74, 41
1, 404765, Note_on_c, 0, 51, 90
1, 404765, Note_on_c, 0, 75, 91
1, 404770, Note_on_c, 0, 48, 69
1, 404794, Note_off_c, 0, 48, 68
1, 404810, Note_off_c, 0, 51, 64
1, 404848, Note_off_c, 0, 75, 66
1, 404850, Note_on_c, 0, 79, 90
1, 404933, Note_on_c, 0, 77, 86
1, 404946, Note_off_c, 0, 79, 54
1, 405015, Note_on_c, 0, 55, 91
1, 405018, Note_on_c, 0, 51, 85
1, 405018, Note_on_c, 0, 75, 84
1, 405049, Note_off_c, 0, 77, 60
1, 405051, Note_off_c, 0, 55, 67
1, 405068, Note_off_c, 0, 51, 64
1, 405101, Note_on_c, 0, 74, 83
1, 405105, Note_off_c, 0, 75, 67
1, 405185, Note_off_c, 0, 74, 66
1, 405188, Note_on_c, 0, 72, 80
1, 405276, Note_on_c, 0, 51, 88
1, 405283, Note_on_c, 0, 75, 87
1, 405283, Note_on_c, 0, 48, 71
1, 405287, Note_off_c, 0, 72, 39
1, 405306, Note_off_c, 0, 48, 68
1, 405321, Note_off_c, 0, 51, 64
1, 405368, Note_on_c, 0, 79, 90
1, 405372, Note_off_c, 0, 75, 66
1, 405450, Note_on_c, 0, 77, 83
1, 405465, Note_off_c, 0, 79, 59
1, 405529, Note_on_c, 0, 51, 81
1, 405530, Note_on_c, 0, 55, 81
1, 405536, Note_on_c, 0, 75, 86
1, 405554, Note_off_c, 0, 55, 69
1, 405567, Note_off_c, 0, 77, 61
1, 405578, Note_off_c, 0, 51, 64
1, 405617, Note_on_c, 0, 74, 84
1, 405631, Note_off_c, 0, 75, 64
1, 405690, Note_off_c, 0, 74, 66
1, 405692, Note_on_c, 0, 72, 82
1, 405783, Note_on_c, 0, 48, 72
1, 405787, Note_on_c, 0, 51, 85
1, 405787, Note_on_c, 0, 75, 87
1, 405797, Note_off_c, 0, 72, 56
1, 405827, Note_off_c, 0, 48, 66
1, 405836, Note_off_c, 0, 51, 64
1, 405878, Note_on_c, 0, 79, 89
1, 405879, Note_off_c, 0, 75, 65
1, 405915, Control_c, 0, 64, 10
1, 405930, Control_c, 0, 64, 13
1, 405960, Control_c, 0, 64, 10
1, 405962, Note_on_c, 0, 77, 84
1, 405975, Control_c, 0, 64, 0
1, 405987, Note_off_c, 0, 79, 61
1, 406004, Control_c, 0, 64, 10
1, 406034, Control_c, 0, 64, 13
1, 406038, Note_on_c, 0, 51, 69
1, 406043, Note_on_c, 0, 55, 70
1, 406043, Note_on_c, 0, 75, 85
1, 406066, Note_off_c, 0, 55, 68
1, 406073, Note_off_c, 0, 51, 66
1, 406080, Note_off_c, 0, 77, 58
1, 406129, Note_on_c, 0, 74, 78
1, 406138, Note_off_c, 0, 75, 65
1, 406182, Control_c, 0, 64, 16
1, 406207, Note_off_c, 0, 74, 65
1, 406213, Note_on_c, 0, 72, 79
1, 406249, Note_off_c, 0, 72, 65
1, 406256, Control_c, 0, 64, 10
1, 406271, Control_c, 0, 64, 0
1, 406291, Note_on_c, 0, 50, 79
1, 406295, Note_on_c, 0, 43, 69
1, 406296, Note_on_c, 0, 71, 86
1, 406320, Note_off_c, 0, 50, 67
1, 406329, Note_off_c, 0, 43, 63
1, 406376, Control_c, 0, 64, 10
1, 406380, Note_off_c, 0, 71, 62
1, 406382, Note_on_c, 0, 74, 89
1, 406405, Control_c, 0, 64, 13
1, 406420, Control_c, 0, 64, 16
1, 406465, Control_c, 0, 64, 13
1, 406467, Note_on_c, 0, 72, 82
1, 406472, Note_off_c, 0, 74, 68
1, 406536, Note_on_c, 0, 53, 78
1, 406539, Note_on_c, 0, 50, 74
1, 406541, Note_on_c, 0, 71, 81
1, 406559, Note_off_c, 0, 53, 68
1, 406567, Note_off_c, 0, 50, 67
1, 406568, Control_c, 0, 64, 10
1, 406589, Note_off_c, 0, 72, 63
1, 406598, Control_c, 0, 64, 0
1, 406629, Note_on_c, 0, 69, 84
1, 406638, Note_off_c, 0, 71, 63
1, 406704, Note_off_c, 0, 69, 67
1, 406711, Note_on_c, 0, 67, 77
1, 406766, Note_off_c, 0, 67, 62
1, 406783, Control_c, 0, 64, 10
1, 406788, Note_on_c, 0, 50, 77
1, 406789, Note_on_c, 0, 43, 75
1, 406794, Note_on_c, 0, 71, 83
1, 406822, Note_off_c, 0, 50, 65
1, 406827, Note_off_c, 0, 43, 62
1, 406827, Control_c, 0, 64, 0
1, 406879, Note_off_c, 0, 71, 62
1, 406881, Note_on_c, 0, 74, 87
1, 406962, Note_on_c, 0, 72, 81
1, 406966, Note_off_c, 0, 74, 64
1, 406990, Control_c, 0, 64, 10
1, 407005, Control_c, 0, 64, 13
1, 407021, Control_c, 0, 64, 18
1, 407033, Note_on_c, 0, 50, 81
1, 407036, Control_c, 0, 64, 20
1, 407036, Note_on_c, 0, 53, 77
1, 407037, Note_on_c, 0, 71, 80
1, 407060, Note_off_c, 0, 53, 70
1, 407062, Note_off_c, 0, 50, 68
1, 407079, Note_off_c, 0, 72, 63
1, 407095, Control_c, 0, 64, 18
1, 407116, Note_on_c, 0, 69, 80
1, 407122, Note_off_c, 0, 71, 63
1, 407139, Control_c, 0, 64, 20
1, 407155, Control_c, 0, 64, 23
1, 407170, Control_c, 0, 64, 25
1, 407176, Note_off_c, 0, 69, 68
1, 407184, Note_on_c, 0, 67, 82
1, 407185, Control_c, 0, 64, 28
1, 407200, Control_c, 0, 64, 30
1, 407215, Control_c, 0, 64, 31
1, 407229, Control_c, 0, 64, 32
1, 407241, Note_off_c, 0, 67, 61
1, 407259, Control_c, 0, 64, 33
1, 407270, Note_on_c, 0, 65, 81
1, 407272, Note_on_c, 0, 50, 81
1, 407279, Note_on_c, 0, 43, 72
1, 407288, Control_c, 0, 64, 34
1, 407303, Control_c, 0, 64, 35
1, 407318, Control_c, 0, 64, 36
1, 407319, Note_off_c, 0, 43, 63
1, 407334, Note_off_c, 0, 50, 62
1, 407347, Control_c, 0, 64, 36
1, 407349, Note_off_c, 0, 65, 65
1, 407356, Note_on_c, 0, 68, 82
1, 407385, Control_c, 0, 64, 38
1, 407400, Control_c, 0, 64, 38
1, 407415, Note_off_c, 0, 68, 68
1, 407443, Note_on_c, 0, 67, 76
1, 407459, Control_c, 0, 64, 38
1, 407488, Control_c, 0, 64, 37
1, 407503, Control_c, 0, 64, 36
1, 407510, Note_on_c, 0, 50, 76
1, 407516, Note_on_c, 0, 53, 70
1, 407516, Note_on_c, 0, 65, 80
1, 407533, Control_c, 0, 64, 36
1, 407543, Note_off_c, 0, 53, 68
1, 407546, Note_off_c, 0, 50, 67
1, 407547, Control_c, 0, 64, 35
1, 407555, Note_off_c, 0, 67, 61
1, 407577, Control_c, 0, 64, 34
1, 407592, Note_on_c, 0, 63, 80
1, 407599, Note_off_c, 0, 65, 66
1, 407607, Control_c, 0, 64, 34
1, 407621, Control_c, 0, 64, 35
1, 407636, Control_c, 0, 64, 36
1, 407668, Note_off_c, 0, 63, 64
1, 407670, Note_on_c, 0, 62, 77
1, 407695, Control_c, 0, 64, 35
1, 407710, Control_c, 0, 64, 34
1, 407742, Note_on_c, 0, 48, 70
1, 407742, Note_on_c, 0, 51, 81
1, 407747, Note_off_c, 0, 62, 60
1, 407753, Note_on_c, 0, 63, 78
1, 407774, Note_off_c, 0, 48, 68
1, 407784, Control_c, 0, 64, 35
1, 407789, Note_off_c, 0, 51, 63
1, 407799, Control_c, 0, 64, 36
1, 407813, Control_c, 0, 64, 36
1, 407828, Note_on_c, 0, 67, 84
1, 407828, Control_c, 0, 64, 38
1, 407835, Note_off_c, 0, 63, 65
1, 407843, Control_c, 0, 64, 39
1, 407858, Control_c, 0, 64, 41
1, 407872, Control_c, 0, 64, 42
1, 407887, Control_c, 0, 64, 42
1, 407902, Control_c, 0, 64, 43
1, 407911, Note_on_c, 0, 65, 82
1, 407917, Control_c, 0, 64, 43
1, 407927, Note_off_c, 0, 67, 61
1, 407969, Note_on_c, 0, 51, 79
1, 407973, Note_on_c, 0, 55, 68
1, 407977, Control_c, 0, 64, 44
1, 407985, Note_on_c, 0, 63, 82
1, 407998, Note_off_c, 0, 55, 67
1, 408015, Note_off_c, 0, 51, 63
1, 408019, Note_off_c, 0, 65, 62
1, 408036, Control_c, 0, 64, 43
1, 408051, Control_c, 0, 64, 43
1, 408066, Control_c, 0, 64, 42
1, 408068, Note_on_c, 0, 62, 81
1, 408081, Note_off_c, 0, 63, 66
1, 408081, Control_c, 0, 64, 38
1, 408095, Control_c, 0, 64, 0
1, 408145, Note_off_c, 0, 62, 63
1, 408146, Note_on_c, 0, 60, 79
1, 408206, Note_on_c, 0, 43, 80
1, 408222, Control_c, 0, 64, 70
1, 408223, Note_off_c, 0, 60, 54
1, 408237, Control_c, 0, 64, 96
1, 408251, Control_c, 0, 64, 127
1, 408293, Note_on_c, 0, 50, 70
1, 408321, Note_off_c, 0, 43, 60
1, 408358, Note_on_c, 0, 53, 70
1, 408467, Note_on_c, 0, 56, 108
1, 408479, Note_on_c, 0, 59, 68
1, 408538, Note_off_c, 0, 59, 62
1, 408554, Note_on_c, 0, 62, 79
1, 408644, Note_on_c, 0, 65, 75
1, 408689, Note_off_c, 0, 62, 35
1, 408735, Note_off_c, 0, 65, 64
1, 408737, Note_on_c, 0, 68, 81
1, 408789, Note_off_c, 0, 56, 58
1, 408818, Note_on_c, 0, 65, 67
1, 408858, Note_off_c, 0, 68, 54
1, 408891, Note_off_c, 0, 65, 66
1, 408894, Note_on_c, 0, 62, 69
1, 408941, Control_c, 0, 64, 117
1, 408956, Control_c, 0, 64, 108
1, 408958, Note_off_c, 0, 53, 59
1, 408969, Note_off_c, 0, 50, 60
1, 408970, Control_c, 0, 64, 99
1, 408973, Note_on_c, 0, 67, 77
1, 408976, Note_off_c, 0, 62, 58
1, 408983, Note_on_c, 0, 55, 77
1, 408985, Control_c, 0, 64, 92
1, 409000, Control_c, 0, 64, 86
1, 409015, Control_c, 0, 64, 80
1, 409029, Note_off_c, 0, 55, 62
1, 409030, Control_c, 0, 64, 73
1, 409045, Control_c, 0, 64, 65
1, 409052, Note_on_c, 0, 65, 69
1, 409060, Control_c, 0, 64, 33
1, 409063, Note_off_c, 0, 67, 62
1, 409074, Control_c, 0, 64, 0
1, 409108, Note_off_c, 0, 65, 65
1, 409131, Note_on_c, 0, 62, 72
1, 409208, Note_on_c, 0, 51, 74
1, 409213, Note_on_c, 0, 48, 64
1, 409218, Note_off_c, 0, 62, 61
1, 409224, Note_on_c, 0, 63, 71
1, 409244, Note_off_c, 0, 48, 65
1, 409261, Note_off_c, 0, 51, 61
1, 409293, Note_on_c, 0, 67, 78
1, 409296, Note_off_c, 0, 63, 65
1, 409370, Control_c, 0, 64, 20
1, 409376, Note_on_c, 0, 65, 75
1, 409385, Note_off_c, 0, 67, 63
1, 409385, Control_c, 0, 64, 37
1, 409400, Control_c, 0, 64, 45
1, 409415, Control_c, 0, 64, 50
1, 409430, Control_c, 0, 64, 54
1, 409437, Note_on_c, 0, 51, 72
1, 409439, Note_on_c, 0, 55, 63
1, 409441, Note_on_c, 0, 63, 78
1, 409444, Control_c, 0, 64, 57
1, 409459, Control_c, 0, 64, 58
1, 409467, Note_off_c, 0, 55, 67
1, 409474, Control_c, 0, 64, 58
1, 409480, Note_off_c, 0, 65, 64
1, 409491, Note_off_c, 0, 51, 59
1, 409513, Note_on_c, 0, 62, 79
1, 409527, Note_off_c, 0, 63, 67
1, 409534, Control_c, 0, 64, 55
1, 409549, Control_c, 0, 64, 0
1, 409586, Note_on_c, 0, 60, 77
1, 409588, Note_off_c, 0, 62, 62
1, 409658, Note_on_c, 0, 43, 71
1, 409660, Control_c, 0, 64, 70
1, 409674, Control_c, 0, 64, 84
1, 409677, Note_off_c, 0, 60, 54
1, 409689, Control_c, 0, 64, 104
1, 409704, Control_c, 0, 64, 118
1, 409719, Control_c, 0, 64, 122
1, 409722, Note_on_c, 0, 50, 74
1, 409734, Control_c, 0, 64, 127
1, 409762, Note_off_c, 0, 43, 60
1, 409790, Note_on_c, 0, 53, 73
1, 409890, Note_on_c, 0, 56, 103
1, 409895, Note_on_c, 0, 59, 73
1, 409960, Note_off_c, 0, 59, 64
1, 409978, Note_on_c, 0, 62, 78
1, 410060, Note_on_c, 0, 65, 80
1, 410103, Note_off_c, 0, 62, 50
1, 410152, Note_on_c, 0, 68, 87
1, 410155, Note_off_c, 0, 65, 64
1, 410207, Note_off_c, 0, 56, 60
1, 410229, Note_on_c, 0, 65, 72
1, 410264, Note_off_c, 0, 68, 59
1, 410300, Note_on_c, 0, 62, 71
1, 410304, Note_off_c, 0, 65, 63
1, 410342, Control_c, 0, 64, 117
1, 410363, Control_c, 0, 64, 110
1, 410374, Note_off_c, 0, 53, 38
1, 410378, Control_c, 0, 64, 104
1, 410388, Note_on_c, 0, 67, 77
1, 410389, Note_off_c, 0, 50, 61
1, 410393, Control_c, 0, 64, 97
1, 410395, Note_on_c, 0, 55, 77
1, 410407, Note_off_c, 0, 62, 54
1, 410408, Control_c, 0, 64, 89
1, 410423, Control_c, 0, 64, 82
1, 410437, Control_c, 0, 64, 75
1, 410444, Note_off_c, 0, 55, 65
1, 410452, Control_c, 0, 64, 68
1, 410464, Note_on_c, 0, 65, 71
1, 410467, Control_c, 0, 64, 58
1, 410476, Note_off_c, 0, 67, 62
1, 410482, Control_c, 0, 64, 0
1, 410526, Note_off_c, 0, 65, 65
1, 410540, Note_on_c, 0, 62, 70
1, 410620, Note_on_c, 0, 48, 65
1, 410624, Note_on_c, 0, 51, 69
1, 410633, Note_off_c, 0, 62, 61
1, 410641, Note_on_c, 0, 63, 69
1, 410664, Note_off_c, 0, 48, 68
1, 410667, Note_off_c, 0, 51, 62
1, 410711, Note_off_c, 0, 63, 64
1, 410711, Note_on_c, 0, 67, 75
1, 410749, Control_c, 0, 64, 31
1, 410763, Control_c, 0, 64, 42
1, 410778, Control_c, 0, 64, 48
1, 410783, Note_off_c, 0, 67, 63
1, 410790, Note_on_c, 0, 65, 69
1, 410793, Control_c, 0, 64, 51
1, 410808, Control_c, 0, 64, 55
1, 410823, Control_c, 0, 64, 58
1, 410837, Control_c, 0, 64, 61
1, 410851, Note_on_c, 0, 51, 62
1, 410851, Note_on_c, 0, 63, 69
1, 410852, Control_c, 0, 64, 63
1, 410857, Note_on_c, 0, 55, 57
1, 410867, Control_c, 0, 64, 63
1, 410878, Note_off_c, 0, 55, 63
1, 410881, Control_c, 0, 64, 64
1, 410890, Note_off_c, 0, 65, 63
1, 410890, Note_off_c, 0, 51, 65
1, 410896, Control_c, 0, 64, 65
1, 410911, Control_c, 0, 64, 66
1, 410926, Control_c, 0, 64, 67
1, 410929, Note_on_c, 0, 62, 61
1, 410936, Note_off_c, 0, 63, 63
1, 410983, Note_off_c, 0, 62, 62
1, 410986, Control_c, 0, 64, 66
1, 410993, Note_on_c, 0, 60, 62
1, 411000, Control_c, 0, 64, 62
1, 411015, Control_c, 0, 64, 0
1, 411028, Note_off_c, 0, 60, 60
1, 411069, Note_on_c, 0, 59, 67
1, 411082, Note_on_c, 0, 43, 62
1, 411104, Control_c, 0, 64, 62
1, 411126, Control_c, 0, 64, 72
1, 411133, Note_off_c, 0, 59, 61
1, 411142, Control_c, 0, 64, 83
1, 411157, Control_c, 0, 64, 96
1, 411161, Note_on_c, 0, 62, 71
1, 411167, Note_off_c, 0, 43, 61
1, 411172, Control_c, 0, 64, 106
1, 411181, Note_on_c, 0, 50, 57
1, 411186, Control_c, 0, 64, 111
1, 411201, Control_c, 0, 64, 113
1, 411216, Control_c, 0, 64, 115
1, 411231, Control_c, 0, 64, 117
1, 411239, Note_off_c, 0, 62, 51
1, 411245, Note_on_c, 0, 65, 69
1, 411245, Note_on_c, 0, 53, 60
1, 411246, Control_c, 0, 64, 121
1, 411260, Control_c, 0, 64, 127
1, 411312, Note_off_c, 0, 65, 63
1, 411319, Note_on_c, 0, 68, 75
1, 411337, Note_on_c, 0, 56, 64
1, 411404, Note_on_c, 0, 65, 64
1, 411412, Note_off_c, 0, 68, 58
1, 411454, Note_off_c, 0, 65, 62
1, 411467, Note_on_c, 0, 62, 65
1, 411501, Note_off_c, 0, 62, 59
1, 411552, Note_on_c, 0, 71, 72
1, 411629, Note_on_c, 0, 68, 72
1, 411631, Note_off_c, 0, 71, 59
1, 411687, Note_off_c, 0, 68, 63
1, 411710, Note_on_c, 0, 65, 62
1, 411742, Note_off_c, 0, 65, 67
1, 411778, Note_on_c, 0, 74, 72
1, 411845, Note_off_c, 0, 74, 63
1, 411877, Note_on_c, 0, 71, 58
1, 411912, Note_off_c, 0, 71, 63
1, 411928, Note_on_c, 0, 68, 65
1, 411957, Note_off_c, 0, 68, 66
1, 412016, Note_on_c, 0, 77, 79
1, 412094, Note_off_c, 0, 77, 61
1, 412100, Note_on_c, 0, 74, 61
1, 412156, Note_off_c, 0, 74, 64
1, 412172, Note_on_c, 0, 71, 65
1, 412217, Note_off_c, 0, 71, 57
1, 412245, Note_on_c, 0, 80, 80
1, 412324, Note_on_c, 0, 77, 68
1, 412344, Note_off_c, 0, 80, 57
1, 412383, Note_off_c, 0, 77, 61
1, 412398, Note_on_c, 0, 74, 58
1, 412428, Note_off_c, 0, 74, 65
1, 412478, Note_on_c, 0, 83, 76
1, 412548, Note_on_c, 0, 80, 73
1, 412553, Note_off_c, 0, 83, 60
1, 412619, Note_off_c, 0, 80, 63
1, 412637, Note_on_c, 0, 77, 63
1, 412668, Note_off_c, 0, 77, 62
1, 412706, Note_on_c, 0, 86, 80
1, 412781, Note_off_c, 0, 86, 63
1, 412789, Note_on_c, 0, 83, 63
1, 412845, Note_off_c, 0, 83, 58
1, 412867, Note_on_c, 0, 80, 66
1, 412893, Note_off_c, 0, 80, 67
1, 412943, Note_on_c, 0, 89, 79
1, 413022, Note_on_c, 0, 86, 69
1, 413027, Note_off_c, 0, 89, 64
1, 413081, Note_off_c, 0, 86, 64
1, 413096, Note_on_c, 0, 83, 61
1, 413168, Note_on_c, 0, 92, 77
1, 413174, Note_off_c, 0, 83, 58
1, 413230, Note_off_c, 0, 92, 67
1, 413253, Note_on_c, 0, 89, 72
1, 413326, Note_on_c, 0, 86, 70
1, 413334, Note_off_c, 0, 89, 62
1, 413406, Note_off_c, 0, 86, 62
1, 413407, Note_on_c, 0, 83, 78
1, 413490, Note_on_c, 0, 86, 72
1, 413494, Note_off_c, 0, 83, 59
1, 413559, Note_on_c, 0, 89, 68
1, 413562, Note_off_c, 0, 86, 58
1, 413615, Note_off_c, 0, 89, 66
1, 413630, Note_on_c, 0, 80, 79
1, 413674, Note_off_c, 0, 80, 63
1, 413704, Note_off_c, 0, 53, 26
1, 413716, Note_on_c, 0, 83, 69
1, 413800, Note_on_c, 0, 86, 73
1, 413805, Note_off_c, 0, 83, 58
1, 413853, Note_off_c, 0, 86, 63
1, 413870, Note_on_c, 0, 77, 78
1, 413948, Note_off_c, 0, 77, 58
1, 413951, Note_on_c, 0, 80, 73
1, 414023, Note_on_c, 0, 83, 66
1, 414034, Note_off_c, 0, 80, 60
1, 414081, Note_off_c, 0, 83, 60
1, 414105, Note_on_c, 0, 74, 72
1, 414172, Note_on_c, 0, 77, 66
1, 414175, Note_off_c, 0, 74, 63
1, 414244, Note_on_c, 0, 80, 75
1, 414261, Note_off_c, 0, 77, 58
1, 414311, Note_off_c, 0, 80, 63
1, 414324, Note_on_c, 0, 71, 72
1, 414405, Note_off_c, 0, 71, 58
1, 414407, Note_on_c, 0, 74, 62
1, 414459, Note_on_c, 0, 77, 70
1, 414474, Note_off_c, 0, 74, 60
1, 414533, Note_off_c, 0, 77, 61
1, 414550, Note_on_c, 0, 68, 74
1, 414582, Note_off_c, 0, 68, 64
1, 414642, Note_on_c, 0, 71, 55
1, 414715, Note_off_c, 0, 50, 26
1, 414720, Note_on_c, 0, 74, 63
1, 414725, Note_off_c, 0, 71, 60
1, 414753, Note_off_c, 0, 56, 38
1, 414771, Note_off_c, 0, 74, 62
1, 414775, Note_on_c, 0, 67, 67
1, 414804, Control_c, 0, 64, 121
1, 414819, Control_c, 0, 64, 113
1, 414832, Note_off_c, 0, 67, 56
1, 414834, Control_c, 0, 64, 107
1, 414849, Control_c, 0, 64, 100
1, 414870, Note_on_c, 0, 68, 71
1, 414870, Control_c, 0, 64, 94
1, 414885, Control_c, 0, 64, 88
1, 414900, Control_c, 0, 64, 83
1, 414915, Control_c, 0, 64, 77
1, 414929, Note_off_c, 0, 68, 63
1, 414930, Control_c, 0, 64, 71
1, 414944, Control_c, 0, 64, 66
1, 414951, Note_on_c, 0, 67, 63
1, 414959, Control_c, 0, 64, 59
1, 414974, Control_c, 0, 64, 34
1, 414989, Control_c, 0, 64, 0
1, 414997, Note_off_c, 0, 67, 47
1, 415025, Note_on_c, 0, 68, 67
1, 415093, Note_off_c, 0, 68, 63
1, 415103, Note_on_c, 0, 70, 65
1, 415175, Note_off_c, 0, 70, 64
1, 415183, Note_on_c, 0, 68, 62
1, 415240, Note_off_c, 0, 68, 64
1, 415255, Note_on_c, 0, 67, 65
1, 415316, Note_off_c, 0, 67, 56
1, 415334, Note_on_c, 0, 68, 65
1, 415393, Note_off_c, 0, 68, 62
1, 415414, Note_on_c, 0, 67, 60
1, 415469, Note_off_c, 0, 67, 57
1, 415487, Note_on_c, 0, 68, 65
1, 415545, Note_off_c, 0, 68, 62
1, 415558, Note_on_c, 0, 70, 64
1, 415637, Note_off_c, 0, 70, 63
1, 415645, Note_on_c, 0, 68, 59
1, 415696, Note_off_c, 0, 68, 62
1, 415719, Note_on_c, 0, 67, 60
1, 415766, Note_off_c, 0, 67, 55
1, 415798, Note_on_c, 0, 68, 61
1, 415845, Note_off_c, 0, 68, 62
1, 415866, Note_on_c, 0, 67, 58
1, 415929, Note_off_c, 0, 67, 59
1, 415944, Note_on_c, 0, 68, 66
1, 416005, Note_off_c, 0, 68, 62
1, 416017, Note_on_c, 0, 70, 64
1, 416088, Note_off_c, 0, 70, 63
1, 416098, Note_on_c, 0, 68, 59
1, 416144, Note_off_c, 0, 68, 63
1, 416166, Note_on_c, 0, 67, 64
1, 416232, Note_off_c, 0, 67, 59
1, 416247, Note_on_c, 0, 68, 66
1, 416303, Note_off_c, 0, 68, 60
1, 416336, Note_on_c, 0, 67, 55
1, 416390, Note_off_c, 0, 67, 60
1, 416404, Note_on_c, 0, 68, 66
1, 416478, Note_off_c, 0, 68, 63
1, 416484, Note_on_c, 0, 70, 65
1, 416563, Note_off_c, 0, 70, 57
1, 416566, Note_on_c, 0, 68, 47
1, 416616, Note_off_c, 0, 68, 63
1, 416631, Note_on_c, 0, 69, 65
1, 416700, Note_off_c, 0, 69, 64
1, 416710, Note_on_c, 0, 70, 61
1, 416764, Note_off_c, 0, 70, 63
1, 416783, Note_on_c, 0, 69, 57
1, 416857, Note_off_c, 0, 69, 65
1, 416867, Note_on_c, 0, 70, 68
1, 416955, Note_off_c, 0, 70, 60
1, 416973, Note_on_c, 0, 72, 63
1, 417048, Note_on_c, 0, 70, 47
1, 417048, Note_off_c, 0, 72, 61
1, 417105, Note_off_c, 0, 70, 62
1, 417122, Note_on_c, 0, 71, 60
1, 417171, Note_off_c, 0, 71, 51
1, 417198, Note_on_c, 0, 72, 58
1, 417266, Note_off_c, 0, 72, 63
1, 417284, Note_on_c, 0, 71, 48
1, 417317, Note_off_c, 0, 71, 58
1, 417340, Note_on_c, 0, 67, 57
1, 417393, Note_off_c, 0, 67, 54
1, 417423, Note_on_c, 0, 68, 61
1, 417487, Note_off_c, 0, 68, 63
1, 417497, Note_on_c, 0, 67, 55
1, 417525, Note_off_c, 0, 67, 60
1, 417610, Note_on_c, 0, 72, 65
1, 417631, Note_on_c, 0, 60, 39
1, 417639, Note_on_c, 0, 67, 33
1, 417642, Note_on_c, 0, 63, 31
1, 417655, Note_off_c, 0, 72, 61
1, 417690, Note_off_c, 0, 67, 61
1, 417712, Note_off_c, 0, 60, 62
1, 417712, Note_off_c, 0, 63, 58
1, 417766, Note_on_c, 0, 71, 64
1, 417901, Note_on_c, 0, 72, 68
1, 417906, Note_off_c, 0, 71, 60
1, 417931, Note_off_c, 0, 72, 65
1, 418036, Note_on_c, 0, 74, 63
1, 418173, Note_on_c, 0, 75, 62
1, 418173, Note_off_c, 0, 74, 62
1, 418193, Note_on_c, 0, 60, 43
1, 418194, Note_on_c, 0, 67, 34
1, 418201, Note_on_c, 0, 63, 34
1, 418201, Note_off_c, 0, 75, 68
1, 418226, Note_off_c, 0, 67, 53
1, 418237, Note_off_c, 0, 60, 64
1, 418247, Note_off_c, 0, 63, 54
1, 418312, Note_on_c, 0, 78, 63
1, 418434, Note_off_c, 0, 78, 62
1, 418444, Note_on_c, 0, 79, 70
1, 418486, Note_off_c, 0, 79, 62
1, 418574, Note_on_c, 0, 83, 77
1, 418644, Control_c, 0, 64, 13
1, 418659, Control_c, 0, 64, 16
1, 418674, Control_c, 0, 64, 20
1, 418689, Control_c, 0, 64, 24
1, 418703, Control_c, 0, 64, 27
1, 418718, Note_on_c, 0, 84, 81
1, 418718, Control_c, 0, 64, 30
1, 418733, Control_c, 0, 64, 36
1, 418736, Note_off_c, 0, 83, 61
1, 418748, Control_c, 0, 64, 41
1, 418763, Control_c, 0, 64, 45
1, 418765, Note_off_c, 0, 84, 64
1, 418778, Control_c, 0, 64, 48
1, 418793, Control_c, 0, 64, 52
1, 418807, Control_c, 0, 64, 56
1, 418822, Control_c, 0, 64, 59
1, 418837, Control_c, 0, 64, 62
1, 418843, Note_on_c, 0, 86, 80
1, 418852, Control_c, 0, 64, 63
1, 418867, Control_c, 0, 64, 64
1, 418882, Control_c, 0, 64, 64
1, 418966, Note_on_c, 0, 87, 66
1, 418972, Note_off_c, 0, 86, 60
1, 418992, Note_off_c, 0, 87, 68
1, 419044, Control_c, 0, 64, 64
1, 419074, Control_c, 0, 64, 63
1, 419089, Control_c, 0, 64, 63
1, 419103, Control_c, 0, 64, 62
1, 419118, Control_c, 0, 64, 61
1, 419124, Note_on_c, 0, 63, 50
1, 419129, Note_on_c, 0, 67, 47
1, 419134, Control_c, 0, 64, 59
1, 419138, Note_on_c, 0, 60, 34
1, 419144, Note_on_c, 0, 72, 55
1, 419149, Control_c, 0, 64, 57
1, 419156, Note_off_c, 0, 67, 58
1, 419164, Control_c, 0, 64, 54
1, 419167, Note_off_c, 0, 63, 62
1, 419168, Note_off_c, 0, 60, 53
1, 419179, Control_c, 0, 64, 52
1, 419194, Control_c, 0, 64, 49
1, 419208, Control_c, 0, 64, 47
1, 419222, Note_off_c, 0, 72, 54
1, 419223, Control_c, 0, 64, 46
1, 419252, Control_c, 0, 64, 45
1, 419267, Control_c, 0, 64, 45
1, 419281, Note_on_c, 0, 67, 45
1, 419282, Control_c, 0, 64, 44
1, 419284, Note_on_c, 0, 74, 65
1, 419285, Note_on_c, 0, 62, 59
1, 419293, Note_on_c, 0, 59, 48
1, 419314, Note_off_c, 0, 67, 60
1, 419323, Note_off_c, 0, 62, 62
1, 419326, Control_c, 0, 64, 44
1, 419328, Note_off_c, 0, 59, 63
1, 419341, Control_c, 0, 64, 43
1, 419366, Note_off_c, 0, 74, 50
1, 419408, Control_c, 0, 64, 44
1, 419423, Control_c, 0, 64, 45
1, 419430, Note_on_c, 0, 73, 60
1, 419438, Control_c, 0, 64, 46
1, 419452, Control_c, 0, 64, 47
1, 419467, Control_c, 0, 64, 47
1, 419482, Control_c, 0, 64, 48
1, 419497, Control_c, 0, 64, 48
1, 419512, Control_c, 0, 64, 49
1, 419522, Note_off_c, 0, 73, 63
1, 419526, Control_c, 0, 64, 49
1, 419549, Note_on_c, 0, 74, 65
1, 419588, Note_off_c, 0, 74, 64
1, 419660, Control_c, 0, 64, 49
1, 419684, Note_on_c, 0, 76, 65
1, 419779, Control_c, 0, 64, 49
1, 419794, Control_c, 0, 64, 50
1, 419800, Note_on_c, 0, 62, 50
1, 419809, Control_c, 0, 64, 51
1, 419810, Note_on_c, 0, 59, 46
1, 419811, Note_on_c, 0, 67, 44
1, 419816, Note_on_c, 0, 77, 66
1, 419817, Note_off_c, 0, 76, 65
1, 419824, Control_c, 0, 64, 51
1, 419839, Control_c, 0, 64, 52
1, 419840, Note_off_c, 0, 67, 60
1, 419842, Note_off_c, 0, 77, 66
1, 419847, Note_off_c, 0, 62, 63
1, 419848, Note_off_c, 0, 59, 64
1, 419853, Control_c, 0, 64, 52
1, 419883, Control_c, 0, 64, 53
1, 419913, Control_c, 0, 64, 53
1, 419943, Control_c, 0, 64, 54
1, 419954, Note_on_c, 0, 82, 65
1, 420062, Control_c, 0, 64, 53
1, 420082, Note_on_c, 0, 83, 75
1, 420103, Note_off_c, 0, 82, 60
1, 420113, Control_c, 0, 64, 53
1, 420134, Note_off_c, 0, 83, 61
1, 420203, Control_c, 0, 64, 53
1, 420211, Note_on_c, 0, 85, 80
1, 420232, Control_c, 0, 64, 54
1, 420276, Control_c, 0, 64, 54
1, 420291, Control_c, 0, 64, 55
1, 420306, Control_c, 0, 64, 55
1, 420321, Control_c, 0, 64, 56
1, 420336, Control_c, 0, 64, 57
1, 420340, Note_on_c, 0, 86, 85
1, 420350, Control_c, 0, 64, 58
1, 420352, Note_off_c, 0, 85, 64
1, 420393, Note_off_c, 0, 86, 64
1, 420454, Control_c, 0, 64, 60
1, 420461, Note_on_c, 0, 88, 87
1, 420469, Control_c, 0, 64, 62
1, 420483, Control_c, 0, 64, 64
1, 420498, Control_c, 0, 64, 65
1, 420513, Control_c, 0, 64, 66
1, 420528, Control_c, 0, 64, 67
1, 420543, Control_c, 0, 64, 69
1, 420557, Control_c, 0, 64, 72
1, 420563, Note_off_c, 0, 88, 0
1, 420572, Control_c, 0, 64, 75
1, 420587, Control_c, 0, 64, 77
1, 420590, Note_on_c, 0, 89, 57
1, 420602, Control_c, 0, 64, 78
1, 420602, Note_on_c, 0, 91, 36
1, 420607, Note_off_c, 0, 89, 61
1, 420633, Note_off_c, 0, 91, 35
1, 420641, Poly_aftertouch_c, 0, 88, 0
1, 420691, Control_c, 0, 64, 77
1, 420706, Control_c, 0, 64, 76
1, 420721, Control_c, 0, 64, 75
1, 420722, Note_on_c, 0, 59, 55
1, 420724, Note_on_c, 0, 67, 59
1, 420734, Note_on_c, 0, 74, 71
1, 420736, Control_c, 0, 64, 72
1, 420737, Note_on_c, 0, 62, 45
1, 420751, Control_c, 0, 64, 69
1, 420760, Note_off_c, 0, 59, 63
1, 420766, Control_c, 0, 64, 66
1, 420766, Note_off_c, 0, 67, 58
1, 420771, Note_off_c, 0, 62, 51
1, 420781, Control_c, 0, 64, 64
1, 420796, Control_c, 0, 64, 62
1, 420811, Control_c, 0, 64, 59
1, 420825, Control_c, 0, 64, 57
1, 420847, Control_c, 0, 64, 55
1, 420848, Note_off_c, 0, 74, 60
1, 420862, Control_c, 0, 64, 54
1, 420877, Control_c, 0, 64, 53
1, 420881, Note_on_c, 0, 67, 59
1, 420887, Note_on_c, 0, 58, 61
1, 420889, Note_on_c, 0, 76, 72
1, 420892, Control_c, 0, 64, 52
1, 420903, Note_on_c, 0, 64, 47
1, 420905, Note_on_c, 0, 60, 49
1, 420906, Control_c, 0, 64, 52
1, 420918, Note_off_c, 0, 67, 63
1, 420921, Control_c, 0, 64, 51
1, 420931, Note_off_c, 0, 64, 63
1, 420936, Control_c, 0, 64, 51
1, 420939, Note_off_c, 0, 60, 63
1, 420942, Note_off_c, 0, 58, 59
1, 420951, Control_c, 0, 64, 50
1, 420965, Note_off_c, 0, 76, 52
1, 420981, Control_c, 0, 64, 50
1, 421013, Note_on_c, 0, 75, 66
1, 421139, Note_on_c, 0, 76, 73
1, 421150, Note_off_c, 0, 75, 62
1, 421168, Note_off_c, 0, 76, 64
1, 421247, Control_c, 0, 64, 50
1, 421267, Note_on_c, 0, 78, 69
1, 421388, Note_on_c, 0, 67, 53
1, 421389, Note_on_c, 0, 58, 56
1, 421395, Control_c, 0, 64, 51
1, 421399, Note_on_c, 0, 79, 71
1, 421401, Note_off_c, 0, 78, 62
1, 421404, Note_on_c, 0, 64, 44
1, 421413, Note_on_c, 0, 60, 42
1, 421424, Note_off_c, 0, 67, 62
1, 421425, Control_c, 0, 64, 51
1, 421434, Note_off_c, 0, 79, 63
1, 421439, Note_off_c, 0, 64, 65
1, 421441, Note_off_c, 0, 60, 58
1, 421450, Note_off_c, 0, 58, 63
1, 421525, Note_on_c, 0, 83, 73
1, 421544, Control_c, 0, 64, 52
1, 421656, Note_on_c, 0, 84, 76
1, 421669, Note_off_c, 0, 83, 61
1, 421670, Control_c, 0, 64, 52
1, 421685, Control_c, 0, 64, 53
1, 421698, Note_off_c, 0, 84, 63
1, 421700, Control_c, 0, 64, 54
1, 421715, Control_c, 0, 64, 54
1, 421729, Control_c, 0, 64, 56
1, 421744, Control_c, 0, 64, 57
1, 421759, Control_c, 0, 64, 58
1, 421774, Note_on_c, 0, 87, 80
1, 421774, Control_c, 0, 64, 58
1, 421789, Control_c, 0, 64, 59
1, 421803, Control_c, 0, 64, 59
1, 421878, Control_c, 0, 64, 60
1, 421893, Control_c, 0, 64, 60
1, 421897, Note_on_c, 0, 88, 84
1, 421908, Control_c, 0, 64, 61
1, 421919, Note_off_c, 0, 87, 62
1, 421922, Control_c, 0, 64, 61
1, 421946, Note_off_c, 0, 88, 65
1, 421952, Control_c, 0, 64, 62
1, 421996, Control_c, 0, 64, 62
1, 422014, Note_on_c, 0, 90, 92
1, 422026, Control_c, 0, 64, 63
1, 422055, Control_c, 0, 64, 63
1, 422070, Control_c, 0, 64, 64
1, 422085, Control_c, 0, 64, 66
1, 422100, Control_c, 0, 64, 68
1, 422115, Control_c, 0, 64, 70
1, 422129, Note_on_c, 0, 91, 85
1, 422129, Control_c, 0, 64, 73
1, 422144, Control_c, 0, 64, 75
1, 422148, Note_off_c, 0, 90, 62
1, 422158, Note_off_c, 0, 91, 60
1, 422159, Control_c, 0, 64, 78
1, 422173, Control_c, 0, 64, 81
1, 422188, Control_c, 0, 64, 83
1, 422203, Control_c, 0, 64, 84
1, 422259, Note_on_c, 0, 67, 68
1, 422263, Note_on_c, 0, 58, 62
1, 422277, Control_c, 0, 64, 83
1, 422283, Note_on_c, 0, 60, 43
1, 422288, Note_off_c, 0, 67, 66
1, 422292, Control_c, 0, 64, 83
1, 422293, Note_on_c, 0, 76, 72
1, 422304, Note_off_c, 0, 58, 64
1, 422307, Control_c, 0, 64, 81
1, 422309, Note_off_c, 0, 60, 55
1, 422323, Control_c, 0, 64, 80
1, 422345, Control_c, 0, 64, 77
1, 422360, Control_c, 0, 64, 75
1, 422375, Control_c, 0, 64, 71
1, 422390, Control_c, 0, 64, 68
1, 422405, Control_c, 0, 64, 65
1, 422419, Control_c, 0, 64, 63
1, 422423, Note_on_c, 0, 60, 57
1, 422431, Note_off_c, 0, 76, 53
1, 422432, Note_on_c, 0, 77, 75
1, 422434, Control_c, 0, 64, 60
1, 422438, Note_on_c, 0, 65, 62
1, 422439, Note_on_c, 0, 57, 59
1, 422449, Control_c, 0, 64, 58
1, 422464, Control_c, 0, 64, 56
1, 422467, Note_off_c, 0, 65, 68
1, 422474, Note_off_c, 0, 57, 63
1, 422478, Control_c, 0, 64, 55
1, 422479, Note_off_c, 0, 60, 62
1, 422493, Control_c, 0, 64, 53
1, 422508, Control_c, 0, 64, 51
1, 422523, Control_c, 0, 64, 50
1, 422538, Control_c, 0, 64, 49
1, 422552, Control_c, 0, 64, 49
1, 422555, Note_on_c, 0, 76, 67
1, 422562, Note_off_c, 0, 77, 53
1, 422626, Control_c, 0, 64, 49
1, 422668, Note_off_c, 0, 76, 64
1, 422671, Note_on_c, 0, 77, 73
1, 422697, Note_off_c, 0, 77, 64
1, 422786, Note_on_c, 0, 80, 76
1, 422917, Note_on_c, 0, 81, 75
1, 422923, Note_off_c, 0, 80, 62
1, 422936, Note_on_c, 0, 65, 62
1, 422938, Note_on_c, 0, 60, 57
1, 422940, Note_on_c, 0, 57, 57
1, 422963, Note_off_c, 0, 81, 62
1, 422968, Note_off_c, 0, 65, 67
1, 422974, Note_off_c, 0, 60, 64
1, 422976, Note_off_c, 0, 57, 64
1, 423051, Note_on_c, 0, 83, 60
1, 423123, Control_c, 0, 64, 50
1, 423138, Control_c, 0, 64, 50
1, 423153, Control_c, 0, 64, 51
1, 423168, Control_c, 0, 64, 51
1, 423178, Note_on_c, 0, 84, 82
1, 423182, Control_c, 0, 64, 52
1, 423191, Note_off_c, 0, 83, 60
1, 423220, Note_off_c, 0, 84, 64
1, 423226, Control_c, 0, 64, 52
1, 423256, Control_c, 0, 64, 53
1, 423271, Control_c, 0, 64, 53
1, 423297, Note_on_c, 0, 88, 85
1, 423315, Control_c, 0, 64, 54
1, 423360, Control_c, 0, 64, 54
1, 423389, Control_c, 0, 64, 55
1, 423404, Control_c, 0, 64, 55
1, 423417, Note_on_c, 0, 89, 82
1, 423419, Control_c, 0, 64, 56
1, 423434, Control_c, 0, 64, 58
1, 423435, Note_off_c, 0, 88, 63
1, 423449, Control_c, 0, 64, 58
1, 423463, Note_off_c, 0, 89, 66
1, 423464, Control_c, 0, 64, 59
1, 423479, Control_c, 0, 64, 60
1, 423493, Control_c, 0, 64, 60
1, 423523, Control_c, 0, 64, 61
1, 423537, Note_on_c, 0, 92, 91
1, 423538, Control_c, 0, 64, 61
1, 423553, Control_c, 0, 64, 62
1, 423567, Control_c, 0, 64, 63
1, 423582, Control_c, 0, 64, 65
1, 423597, Control_c, 0, 64, 67
1, 423611, Control_c, 0, 64, 70
1, 423626, Control_c, 0, 64, 73
1, 423641, Control_c, 0, 64, 77
1, 423648, Note_on_c, 0, 93, 90
1, 423656, Control_c, 0, 64, 82
1, 423670, Note_off_c, 0, 92, 64
1, 423671, Control_c, 0, 64, 87
1, 423685, Control_c, 0, 64, 92
1, 423686, Note_off_c, 0, 93, 64
1, 423700, Control_c, 0, 64, 97
1, 423715, Control_c, 0, 64, 101
1, 423730, Control_c, 0, 64, 104
1, 423745, Control_c, 0, 64, 105
1, 423783, Note_on_c, 0, 57, 64
1, 423784, Note_on_c, 0, 65, 68
1, 423795, Note_on_c, 0, 60, 60
1, 423800, Note_on_c, 0, 77, 83
1, 423812, Note_off_c, 0, 65, 68
1, 423818, Control_c, 0, 64, 105
1, 423824, Note_off_c, 0, 57, 60
1, 423841, Control_c, 0, 64, 103
1, 423842, Note_off_c, 0, 60, 55
1, 423856, Control_c, 0, 64, 100
1, 423871, Control_c, 0, 64, 95
1, 423886, Control_c, 0, 64, 90
1, 423900, Control_c, 0, 64, 84
1, 423915, Control_c, 0, 64, 80
1, 423926, Note_on_c, 0, 66, 80
1, 423931, Control_c, 0, 64, 76
1, 423932, Note_on_c, 0, 78, 83
1, 423936, Note_on_c, 0, 56, 71
1, 423938, Note_on_c, 0, 63, 63
1, 423941, Note_on_c, 0, 60, 60
1, 423942, Note_off_c, 0, 77, 59
1, 423946, Control_c, 0, 64, 72
1, 423961, Control_c, 0, 64, 69
1, 423976, Control_c, 0, 64, 65
1, 423988, Note_off_c, 0, 66, 66
1, 423991, Control_c, 0, 64, 59
1, 423994, Note_off_c, 0, 63, 61
1, 423998, Note_off_c, 0, 60, 62
1, 424003, Note_off_c, 0, 56, 63
1, 424005, Control_c, 0, 64, 44
1, 424020, Control_c, 0, 64, 37
1, 424035, Control_c, 0, 64, 39
1, 424049, Control_c, 0, 64, 40
1, 424053, Note_on_c, 0, 77, 80
1, 424062, Note_off_c, 0, 78, 59
1, 424064, Control_c, 0, 64, 41
1, 424079, Control_c, 0, 64, 42
1, 424094, Control_c, 0, 64, 43
1, 424109, Control_c, 0, 64, 44
1, 424123, Control_c, 0, 64, 46
1, 424138, Control_c, 0, 64, 47
1, 424153, Control_c, 0, 64, 48
1, 424161, Note_on_c, 0, 78, 86
1, 424168, Control_c, 0, 64, 48
1, 424169, Note_off_c, 0, 77, 60
1, 424192, Note_off_c, 0, 78, 66
1, 424197, Control_c, 0, 64, 49
1, 424280, Note_on_c, 0, 83, 82
1, 424316, Control_c, 0, 64, 48
1, 424414, Note_on_c, 0, 84, 80
1, 424420, Note_off_c, 0, 83, 61
1, 424428, Note_on_c, 0, 66, 93
1, 424434, Note_on_c, 0, 56, 74
1, 424435, Note_on_c, 0, 60, 76
1, 424440, Note_on_c, 0, 63, 71
1, 424449, Control_c, 0, 64, 49
1, 424459, Note_off_c, 0, 84, 63
1, 424464, Control_c, 0, 64, 49
1, 424508, Control_c, 0, 64, 50
1, 424523, Control_c, 0, 64, 50
1, 424531, Note_on_c, 0, 86, 86
1, 424553, Control_c, 0, 64, 51
1, 424635, Control_c, 0, 64, 52
1, 424649, Control_c, 0, 64, 54
1, 424657, Note_on_c, 0, 87, 80
1, 424664, Control_c, 0, 64, 56
1, 424679, Control_c, 0, 64, 58
1, 424683, Note_off_c, 0, 86, 59
1, 424694, Control_c, 0, 64, 59
1, 424709, Control_c, 0, 64, 59
1, 424713, Note_off_c, 0, 87, 64
1, 424725, Control_c, 0, 64, 60
1, 424739, Control_c, 0, 64, 61
1, 424754, Control_c, 0, 64, 61
1, 424784, Control_c, 0, 64, 62
1, 424786, Note_on_c, 0, 89, 90
1, 424828, Control_c, 0, 64, 62
1, 424843, Control_c, 0, 64, 63
1, 424855, Note_off_c, 0, 89, 55
1, 424858, Control_c, 0, 64, 64
1, 424872, Control_c, 0, 64, 64
1, 424887, Control_c, 0, 64, 66
1, 424902, Control_c, 0, 64, 67
1, 424911, Note_on_c, 0, 90, 84
1, 424917, Control_c, 0, 64, 69
1, 424932, Control_c, 0, 64, 72
1, 424936, Note_off_c, 0, 56, 56
1, 424936, Note_off_c, 0, 66, 60
1, 424945, Note_off_c, 0, 60, 56
1, 424945, Note_off_c, 0, 63, 58
1, 424946, Control_c, 0, 64, 74
1, 424961, Control_c, 0, 64, 77
1, 424976, Control_c, 0, 64, 80
1, 424990, Control_c, 0, 64, 83
1, 424994, Note_off_c, 0, 90, 49
1, 425005, Control_c, 0, 64, 86
1, 425020, Control_c, 0, 64, 88
1, 425021, Note_on_c, 0, 89, 90
1, 425035, Control_c, 0, 64, 90
1, 425049, Control_c, 0, 64, 92
1, 425064, Control_c, 0, 64, 93
1, 425073, Note_off_c, 0, 89, 65
1, 425133, Note_on_c, 0, 90, 86
1, 425191, Note_off_c, 0, 90, 62
1, 425248, Note_on_c, 0, 90, 85
1, 425255, Note_on_c, 0, 66, 81
1, 425264, Note_on_c, 0, 60, 70
1, 425270, Note_on_c, 0, 63, 67
1, 425276, Note_on_c, 0, 56, 45
1, 425286, Control_c, 0, 64, 92
1, 425294, Note_off_c, 0, 66, 60
1, 425300, Note_off_c, 0, 56, 58
1, 425301, Control_c, 0, 64, 90
1, 425316, Control_c, 0, 64, 86
1, 425323, Note_off_c, 0, 90, 62
1, 425338, Control_c, 0, 64, 74
1, 425349, Note_off_c, 0, 60, 55
1, 425353, Control_c, 0, 64, 43
1, 425366, Note_off_c, 0, 63, 0
1, 425368, Control_c, 0, 64, 0
1, 425383, Note_on_c, 0, 63, 59
1, 425389, Note_on_c, 0, 60, 54
1, 425389, Note_on_c, 0, 67, 92
1, 425400, Note_on_c, 0, 55, 72
1, 425405, Note_on_c, 0, 91, 70
1, 425407, Note_on_c, 0, 93, 76
1, 425427, Control_c, 0, 64, 52
1, 425431, Note_off_c, 0, 93, 65
1, 425442, Control_c, 0, 64, 72
1, 425457, Control_c, 0, 64, 83
1, 425471, Control_c, 0, 64, 95
1, 425473, Note_off_c, 0, 91, 58
1, 425486, Control_c, 0, 64, 101
1, 425501, Control_c, 0, 64, 106
1, 425517, Control_c, 0, 64, 112
1, 425522, Note_on_c, 0, 79, 76
1, 425532, Control_c, 0, 64, 119
1, 425547, Control_c, 0, 64, 124
1, 425561, Control_c, 0, 64, 127
1, 425656, Note_on_c, 0, 80, 81
1, 425656, Note_off_c, 0, 63, 61
1, 425661, Note_off_c, 0, 67, 59
1, 425664, Note_off_c, 0, 60, 59
1, 425664, Note_off_c, 0, 79, 53
1, 425695, Note_off_c, 0, 55, 63
1, 425746, Note_off_c, 0, 80, 62
1, 425764, Note_on_c, 0, 79, 83
1, 425798, Control_c, 0, 64, 127
1, 425813, Control_c, 0, 64, 126
1, 425827, Control_c, 0, 64, 125
1, 425834, Note_off_c, 0, 79, 59
1, 425842, Control_c, 0, 64, 125
1, 425857, Control_c, 0, 64, 124
1, 425872, Control_c, 0, 64, 123
1, 425887, Control_c, 0, 64, 122
1, 425902, Control_c, 0, 64, 119
1, 425917, Control_c, 0, 64, 115
1, 425932, Control_c, 0, 64, 110
1, 425943, Note_on_c, 0, 80, 87
1, 425947, Control_c, 0, 64, 104
1, 425961, Control_c, 0, 64, 98
1, 425976, Control_c, 0, 64, 92
1, 425977, Note_on_c, 0, 74, 51
1, 425991, Control_c, 0, 64, 87
1, 425991, Note_on_c, 0, 65, 52
1, 425996, Note_on_c, 0, 60, 49
1, 426005, Note_on_c, 0, 56, 46
1, 426006, Control_c, 0, 64, 81
1, 426014, Note_on_c, 0, 53, 39
1, 426020, Control_c, 0, 64, 77
1, 426035, Control_c, 0, 64, 74
1, 426050, Control_c, 0, 64, 70
1, 426065, Control_c, 0, 64, 67
1, 426080, Control_c, 0, 64, 64
1, 426102, Control_c, 0, 64, 61
1, 426117, Control_c, 0, 64, 58
1, 426123, Note_on_c, 0, 72, 54
1, 426132, Control_c, 0, 64, 58
1, 426134, Note_off_c, 0, 74, 52
1, 426195, Note_off_c, 0, 72, 52
1, 426240, Note_on_c, 0, 74, 58
1, 426340, Control_c, 0, 64, 57
1, 426362, Note_on_c, 0, 72, 43
1, 426378, Note_off_c, 0, 74, 58
1, 426384, Control_c, 0, 64, 57
1, 426414, Control_c, 0, 64, 56
1, 426443, Control_c, 0, 64, 56
1, 426471, Note_off_c, 0, 72, 58
1, 426473, Control_c, 0, 64, 55
1, 426506, Note_on_c, 0, 74, 50
1, 426548, Control_c, 0, 64, 55
1, 426578, Control_c, 0, 64, 54
1, 426592, Control_c, 0, 64, 54
1, 426607, Control_c, 0, 64, 53
1, 426614, Note_on_c, 0, 72, 47
1, 426622, Note_off_c, 0, 74, 57
1, 426622, Control_c, 0, 64, 52
1, 426636, Control_c, 0, 64, 52
1, 426642, Note_off_c, 0, 65, 39
1, 426651, Control_c, 0, 64, 51
1, 426666, Control_c, 0, 64, 49
1, 426681, Control_c, 0, 64, 48
1, 426696, Control_c, 0, 64, 47
1, 426710, Control_c, 0, 64, 46
1, 426719, Note_off_c, 0, 53, 43
1, 426725, Control_c, 0, 64, 46
1, 426730, Note_off_c, 0, 72, 62
1, 426740, Control_c, 0, 64, 45
1, 426743, Note_off_c, 0, 80, 53
1, 426751, Note_on_c, 0, 74, 53
1, 426751, Note_off_c, 0, 60, 51
1, 426755, Control_c, 0, 64, 45
1, 426769, Control_c, 0, 64, 44
1, 426784, Note_off_c, 0, 56, 41
1, 426784, Control_c, 0, 64, 44
1, 426799, Control_c, 0, 64, 43
1, 426829, Control_c, 0, 64, 42
1, 426866, Control_c, 0, 64, 42
1, 426878, Note_off_c, 0, 74, 56
1, 426880, Note_on_c, 0, 72, 46
1, 426896, Control_c, 0, 64, 41
1, 426992, Note_off_c, 0, 72, 59
1, 427008, Note_on_c, 0, 74, 54
1, 427059, Control_c, 0, 64, 41
1, 427088, Control_c, 0, 64, 40
1, 427103, Control_c, 0, 64, 39
1, 427124, Note_on_c, 0, 72, 54
1, 427124, Note_off_c, 0, 74, 59
1, 427133, Control_c, 0, 64, 39
1, 427178, Control_c, 0, 64, 38
1, 427231, Note_off_c, 0, 72, 58
1, 427245, Note_on_c, 0, 74, 55
1, 427267, Control_c, 0, 64, 38
1, 427310, Note_off_c, 0, 74, 54
1, 427356, Control_c, 0, 64, 37
1, 427360, Note_on_c, 0, 80, 64
1, 427365, Note_on_c, 0, 72, 53
1, 427402, Note_on_c, 0, 65, 45
1, 427456, Note_off_c, 0, 80, 63
1, 427464, Note_off_c, 0, 72, 34
1, 427480, Note_off_c, 0, 65, 54
1, 427503, Note_on_c, 0, 77, 53
1, 427509, Note_on_c, 0, 74, 50
1, 427513, Note_on_c, 0, 68, 48
1, 427536, Note_off_c, 0, 68, 61
1, 427548, Control_c, 0, 64, 36
1, 427600, Control_c, 0, 64, 36
1, 427615, Control_c, 0, 64, 35
1, 427640, Note_off_c, 0, 74, 55
1, 427661, Note_on_c, 0, 72, 50
1, 427734, Control_c, 0, 64, 34
1, 427748, Control_c, 0, 64, 34
1, 427750, Note_off_c, 0, 72, 58
1, 427763, Control_c, 0, 64, 33
1, 427778, Note_on_c, 0, 74, 48
1, 427778, Control_c, 0, 64, 32
1, 427792, Control_c, 0, 64, 31
1, 427822, Control_c, 0, 64, 30
1, 427881, Control_c, 0, 64, 29
1, 427890, Note_on_c, 0, 72, 49
1, 427904, Note_off_c, 0, 74, 50
1, 427924, Note_off_c, 0, 77, 43
1, 428001, Note_off_c, 0, 72, 59
1, 428025, Note_on_c, 0, 79, 48
1, 428033, Note_on_c, 0, 74, 37
1, 428035, Note_on_c, 0, 67, 37
1, 428135, Control_c, 0, 64, 30
1, 428158, Note_off_c, 0, 74, 59
1, 428164, Note_off_c, 0, 67, 59
1, 428171, Note_on_c, 0, 72, 44
1, 428281, Note_off_c, 0, 72, 60
1, 428303, Note_off_c, 0, 79, 34
1, 428306, Note_on_c, 0, 74, 43
1, 428423, Control_c, 0, 64, 31
1, 428426, Note_off_c, 0, 74, 58
1, 428427, Note_on_c, 0, 72, 50
1, 428438, Control_c, 0, 64, 33
1, 428453, Control_c, 0, 64, 35
1, 428468, Control_c, 0, 64, 38
1, 428482, Control_c, 0, 64, 39
1, 428497, Control_c, 0, 64, 41
1, 428512, Control_c, 0, 64, 42
1, 428527, Control_c, 0, 64, 43
1, 428539, Note_off_c, 0, 72, 58
1, 428541, Control_c, 0, 64, 43
1, 428564, Note_on_c, 0, 74, 48
1, 428601, Control_c, 0, 64, 44
1, 428630, Control_c, 0, 64, 44
1, 428674, Note_on_c, 0, 72, 52
1, 428680, Note_off_c, 0, 74, 51
1, 428764, Control_c, 0, 64, 44
1, 428785, Note_off_c, 0, 72, 58
1, 428797, Note_on_c, 0, 74, 54
1, 428864, Note_off_c, 0, 74, 50
1, 428909, Note_on_c, 0, 72, 55
1, 428909, Note_on_c, 0, 80, 62
1, 428924, Note_on_c, 0, 65, 49
1, 428971, Control_c, 0, 64, 43
1, 429013, Note_off_c, 0, 80, 63
1, 429016, Note_off_c, 0, 65, 55
1, 429026, Note_off_c, 0, 72, 55
1, 429041, Note_on_c, 0, 68, 50
1, 429043, Note_on_c, 0, 77, 56
1, 429045, Control_c, 0, 64, 43
1, 429055, Note_on_c, 0, 74, 50
1, 429084, Note_off_c, 0, 68, 65
1, 429112, Control_c, 0, 64, 42
1, 429127, Control_c, 0, 64, 42
1, 429142, Control_c, 0, 64, 41
1, 429186, Note_off_c, 0, 74, 57
1, 429187, Note_on_c, 0, 72, 51
1, 429297, Note_off_c, 0, 72, 60
1, 429304, Control_c, 0, 64, 41
1, 429319, Note_on_c, 0, 74, 50
1, 429378, Control_c, 0, 64, 40
1, 429437, Note_off_c, 0, 74, 58
1, 429448, Note_on_c, 0, 72, 49
1, 429486, Note_off_c, 0, 77, 37
1, 429554, Note_off_c, 0, 72, 60
1, 429585, Note_on_c, 0, 79, 49
1, 429595, Note_on_c, 0, 74, 39
1, 429602, Note_on_c, 0, 67, 37
1, 429712, Note_on_c, 0, 72, 49
1, 429715, Note_off_c, 0, 79, 52
1, 429741, Note_off_c, 0, 74, 38
1, 429843, Note_off_c, 0, 72, 58
1, 429847, Control_c, 0, 64, 39
1, 429854, Note_on_c, 0, 74, 51
1, 429890, Note_off_c, 0, 67, 41
1, 429973, Note_on_c, 0, 72, 55
1, 429974, Note_off_c, 0, 74, 57
1, 430081, Note_off_c, 0, 72, 61
1, 430100, Note_on_c, 0, 74, 56
1, 430206, Note_off_c, 0, 74, 59
1, 430208, Note_on_c, 0, 72, 57
1, 430311, Note_off_c, 0, 72, 60
1, 430324, Note_on_c, 0, 74, 60
1, 430406, Note_off_c, 0, 74, 53
1, 430425, Control_c, 0, 64, 40
1, 430445, Note_on_c, 0, 72, 60
1, 430453, Note_on_c, 0, 80, 65
1, 430484, Note_on_c, 0, 65, 39
1, 430546, Note_off_c, 0, 72, 36
1, 430560, Note_off_c, 0, 80, 62
1, 430597, Note_on_c, 0, 77, 61
1, 430602, Note_on_c, 0, 74, 52
1, 430630, Note_on_c, 0, 68, 51
1, 430639, Note_off_c, 0, 65, 37
1, 430681, Note_off_c, 0, 68, 61
1, 430722, Note_on_c, 0, 72, 50
1, 430727, Note_off_c, 0, 74, 56
1, 430773, Control_c, 0, 64, 41
1, 430803, Control_c, 0, 64, 41
1, 430810, Note_off_c, 0, 72, 61
1, 430850, Note_on_c, 0, 74, 51
1, 430877, Control_c, 0, 64, 42
1, 430946, Note_on_c, 0, 72, 56
1, 430979, Note_off_c, 0, 74, 41
1, 430992, Note_off_c, 0, 77, 54
1, 431025, Note_off_c, 0, 72, 59
1, 431086, Note_on_c, 0, 79, 56
1, 431095, Note_on_c, 0, 74, 45
1, 431136, Note_on_c, 0, 67, 34
1, 431197, Note_off_c, 0, 74, 59
1, 431206, Note_on_c, 0, 71, 51
1, 431278, Control_c, 0, 64, 42
1, 431295, Note_off_c, 0, 67, 52
1, 431307, Control_c, 0, 64, 43
1, 431333, Note_off_c, 0, 71, 50
1, 431337, Note_on_c, 0, 74, 56
1, 431445, Note_off_c, 0, 74, 63
1, 431454, Note_on_c, 0, 71, 60
1, 431478, Control_c, 0, 64, 43
1, 431552, Control_c, 0, 64, 44
1, 431573, Note_off_c, 0, 71, 58
1, 431578, Note_off_c, 0, 79, 28
1, 431590, Note_on_c, 0, 72, 56
1, 431626, Control_c, 0, 64, 44
1, 431640, Note_on_c, 0, 60, 32
1, 431671, Control_c, 0, 64, 45
1, 431686, Control_c, 0, 64, 45
1, 431700, Note_off_c, 0, 72, 64
1, 431715, Note_on_c, 0, 75, 60
1, 431715, Control_c, 0, 64, 46
1, 431745, Control_c, 0, 64, 47
1, 431759, Control_c, 0, 64, 47
1, 431774, Control_c, 0, 64, 48
1, 431789, Control_c, 0, 64, 49
1, 431804, Control_c, 0, 64, 49
1, 431819, Control_c, 0, 64, 50
1, 431834, Control_c, 0, 64, 51
1, 431834, Note_off_c, 0, 75, 61
1, 431847, Note_on_c, 0, 79, 60
1, 431849, Control_c, 0, 64, 52
1, 431864, Control_c, 0, 64, 53
1, 431953, Control_c, 0, 64, 53
1, 431957, Note_off_c, 0, 79, 58
1, 431959, Note_off_c, 0, 60, 52
1, 431963, Note_on_c, 0, 75, 65
1, 432057, Control_c, 0, 64, 53
1, 432095, Note_on_c, 0, 72, 61
1, 432102, Note_off_c, 0, 75, 58
1, 432138, Control_c, 0, 64, 52
1, 432199, Note_off_c, 0, 72, 62
1, 432209, Note_on_c, 0, 75, 72
1, 432314, Note_off_c, 0, 75, 64
1, 432324, Note_on_c, 0, 72, 70
1, 432346, Control_c, 0, 64, 53
1, 432398, Note_off_c, 0, 72, 62
1, 432440, Note_on_c, 0, 67, 63
1, 432533, Note_off_c, 0, 67, 53
1, 432570, Note_on_c, 0, 63, 53
1, 432582, Control_c, 0, 64, 52
1, 432612, Control_c, 0, 64, 52
1, 432627, Control_c, 0, 64, 51
1, 432642, Control_c, 0, 64, 50
1, 432657, Control_c, 0, 64, 49
1, 432667, Note_off_c, 0, 63, 61
1, 432669, Note_on_c, 0, 67, 57
1, 432672, Control_c, 0, 64, 48
1, 432687, Control_c, 0, 64, 47
1, 432702, Control_c, 0, 64, 46
1, 432717, Control_c, 0, 64, 45
1, 432732, Control_c, 0, 64, 44
1, 432746, Control_c, 0, 64, 43
1, 432761, Control_c, 0, 64, 42
1, 432776, Control_c, 0, 64, 42
1, 432791, Control_c, 0, 64, 41
1, 432796, Note_off_c, 0, 67, 58
1, 432800, Note_on_c, 0, 63, 52
1, 432828, Control_c, 0, 64, 41
1, 432843, Control_c, 0, 64, 40
1, 432887, Control_c, 0, 64, 39
1, 432912, Note_off_c, 0, 63, 61
1, 432925, Note_on_c, 0, 60, 48
1, 432947, Control_c, 0, 64, 39
1, 433037, Note_off_c, 0, 60, 52
1, 433064, Note_on_c, 0, 62, 51
1, 433175, Note_off_c, 0, 62, 52
1, 433175, Note_on_c, 0, 60, 49
1, 433285, Note_off_c, 0, 60, 52
1, 433308, Note_on_c, 0, 62, 52
1, 433346, Control_c, 0, 64, 39
1, 433376, Control_c, 0, 64, 40
1, 433421, Note_on_c, 0, 60, 56
1, 433431, Note_off_c, 0, 62, 50
1, 433450, Control_c, 0, 64, 41
1, 433451, Note_on_c, 0, 44, 50
1, 433479, Control_c, 0, 64, 41
1, 433533, Note_off_c, 0, 44, 59
1, 433551, Note_off_c, 0, 60, 51
1, 433555, Control_c, 0, 64, 42
1, 433560, Note_on_c, 0, 62, 60
1, 433592, Note_on_c, 0, 41, 51
1, 433592, Control_c, 0, 64, 42
1, 433623, Note_off_c, 0, 41, 63
1, 433636, Control_c, 0, 64, 43
1, 433682, Note_off_c, 0, 62, 56
1, 433684, Note_on_c, 0, 60, 57
1, 433792, Note_off_c, 0, 60, 52
1, 433798, Note_on_c, 0, 62, 61
1, 433828, Control_c, 0, 64, 42
1, 433858, Control_c, 0, 64, 42
1, 433904, Note_off_c, 0, 62, 59
1, 433915, Note_on_c, 0, 68, 62
1, 433924, Note_on_c, 0, 60, 49
1, 433977, Control_c, 0, 64, 42
1, 434004, Note_off_c, 0, 68, 63
1, 434007, Control_c, 0, 64, 43
1, 434025, Note_off_c, 0, 60, 54
1, 434046, Note_on_c, 0, 65, 56
1, 434054, Note_on_c, 0, 62, 47
1, 434074, Note_on_c, 0, 43, 40
1, 434081, Control_c, 0, 64, 43
1, 434140, Control_c, 0, 64, 44
1, 434154, Note_off_c, 0, 62, 55
1, 434164, Note_on_c, 0, 60, 49
1, 434205, Note_off_c, 0, 43, 45
1, 434213, Note_off_c, 0, 65, 50
1, 434258, Control_c, 0, 64, 43
1, 434272, Note_off_c, 0, 60, 60
1, 434282, Note_on_c, 0, 67, 58
1, 434288, Control_c, 0, 64, 43
1, 434311, Note_on_c, 0, 62, 39
1, 434341, Control_c, 0, 64, 42
1, 434385, Control_c, 0, 64, 42
1, 434412, Note_on_c, 0, 60, 47
1, 434439, Note_off_c, 0, 62, 41
1, 434520, Note_off_c, 0, 67, 37
1, 434523, Note_off_c, 0, 60, 59
1, 434553, Note_on_c, 0, 62, 49
1, 434577, Control_c, 0, 64, 42
1, 434622, Control_c, 0, 64, 43
1, 434648, Note_off_c, 0, 62, 56
1, 434663, Note_on_c, 0, 60, 45
1, 434725, Control_c, 0, 64, 42
1, 434758, Note_off_c, 0, 60, 58
1, 434786, Note_on_c, 0, 62, 48
1, 434900, Note_off_c, 0, 62, 51
1, 434902, Note_on_c, 0, 60, 49
1, 434916, Note_on_c, 0, 44, 44
1, 434972, Note_off_c, 0, 44, 62
1, 435018, Note_off_c, 0, 60, 57
1, 435035, Note_on_c, 0, 62, 54
1, 435037, Note_on_c, 0, 41, 52
1, 435051, Control_c, 0, 64, 43
1, 435105, Note_off_c, 0, 41, 64
1, 435157, Note_off_c, 0, 62, 57
1, 435162, Note_on_c, 0, 60, 50
1, 435256, Note_off_c, 0, 60, 58
1, 435271, Note_on_c, 0, 62, 59
1, 435368, Note_off_c, 0, 62, 58
1, 435383, Note_on_c, 0, 60, 57
1, 435384, Note_on_c, 0, 68, 61
1, 435471, Note_off_c, 0, 68, 62
1, 435488, Control_c, 0, 64, 43
1, 435495, Note_off_c, 0, 60, 58
1, 435510, Note_on_c, 0, 62, 46
1, 435513, Note_on_c, 0, 65, 56
1, 435532, Note_on_c, 0, 43, 48
1, 435621, Control_c, 0, 64, 44
1, 435630, Note_on_c, 0, 60, 51
1, 435642, Note_off_c, 0, 62, 54
1, 435647, Note_off_c, 0, 43, 52
1, 435671, Note_off_c, 0, 65, 57
1, 435735, Note_off_c, 0, 60, 59
1, 435739, Control_c, 0, 64, 43
1, 435757, Note_on_c, 0, 67, 56
1, 435778, Note_on_c, 0, 62, 46
1, 435784, Control_c, 0, 64, 43
1, 435880, Control_c, 0, 64, 42
1, 435882, Note_off_c, 0, 62, 55
1, 435887, Note_on_c, 0, 60, 46
1, 435941, Control_c, 0, 64, 42
1, 435998, Note_off_c, 0, 60, 59
1, 436009, Note_off_c, 0, 67, 48
1, 436028, Note_on_c, 0, 62, 46
1, 436103, Control_c, 0, 64, 42
1, 436137, Note_off_c, 0, 62, 55
1, 436144, Note_on_c, 0, 60, 47
1, 436230, Note_off_c, 0, 60, 55
1, 436271, Note_on_c, 0, 62, 50
1, 436381, Note_on_c, 0, 60, 50
1, 436386, Note_off_c, 0, 62, 56
1, 436400, Note_on_c, 0, 44, 34
1, 436505, Note_off_c, 0, 60, 56
1, 436522, Note_on_c, 0, 41, 41
1, 436524, Note_off_c, 0, 44, 37
1, 436526, Note_on_c, 0, 62, 47
1, 436637, Note_off_c, 0, 62, 58
1, 436642, Note_on_c, 0, 60, 55
1, 436645, Control_c, 0, 64, 43
1, 436690, Control_c, 0, 64, 43
1, 436720, Control_c, 0, 64, 44
1, 436753, Note_off_c, 0, 60, 53
1, 436761, Note_on_c, 0, 62, 56
1, 436794, Control_c, 0, 64, 44
1, 436839, Control_c, 0, 64, 45
1, 436853, Control_c, 0, 64, 45
1, 436864, Note_off_c, 0, 62, 55
1, 436868, Note_on_c, 0, 68, 62
1, 436883, Control_c, 0, 64, 46
1, 436890, Note_on_c, 0, 60, 43
1, 436970, Note_off_c, 0, 68, 63
1, 436986, Control_c, 0, 64, 46
1, 436988, Note_off_c, 0, 60, 55
1, 437007, Note_on_c, 0, 65, 54
1, 437013, Note_on_c, 0, 62, 44
1, 437016, Control_c, 0, 64, 47
1, 437031, Control_c, 0, 64, 47
1, 437038, Note_off_c, 0, 41, 49
1, 437075, Control_c, 0, 64, 48
1, 437105, Control_c, 0, 64, 48
1, 437134, Control_c, 0, 64, 49
1, 437146, Note_off_c, 0, 62, 55
1, 437149, Note_on_c, 0, 60, 47
1, 437164, Control_c, 0, 64, 49
1, 437179, Control_c, 0, 64, 50
1, 437194, Control_c, 0, 64, 50
1, 437209, Control_c, 0, 64, 51
1, 437223, Control_c, 0, 64, 52
1, 437238, Control_c, 0, 64, 53
1, 437240, Note_off_c, 0, 60, 55
1, 437253, Control_c, 0, 64, 54
1, 437268, Control_c, 0, 64, 55
1, 437278, Note_on_c, 0, 62, 49
1, 437283, Control_c, 0, 64, 56
1, 437297, Control_c, 0, 64, 58
1, 437312, Control_c, 0, 64, 59
1, 437334, Control_c, 0, 64, 61
1, 437349, Control_c, 0, 64, 62
1, 437364, Control_c, 0, 64, 62
1, 437378, Control_c, 0, 64, 63
1, 437381, Note_off_c, 0, 62, 56
1, 437385, Note_on_c, 0, 60, 48
1, 437393, Control_c, 0, 64, 64
1, 437408, Control_c, 0, 64, 65
1, 437423, Control_c, 0, 64, 65
1, 437438, Control_c, 0, 64, 66
1, 437453, Control_c, 0, 64, 66
1, 437468, Control_c, 0, 64, 67
1, 437480, Note_off_c, 0, 60, 57
1, 437483, Control_c, 0, 64, 67
1, 437498, Control_c, 0, 64, 68
1, 437513, Control_c, 0, 64, 68
1, 437535, Note_on_c, 0, 62, 44
1, 437659, Note_off_c, 0, 62, 56
1, 437680, Note_on_c, 0, 59, 40
1, 437765, Control_c, 0, 64, 68
1, 437766, Note_off_c, 0, 59, 37
1, 437796, Note_on_c, 0, 62, 51
1, 437913, Control_c, 0, 64, 67
1, 437924, Note_off_c, 0, 62, 55
1, 437931, Note_on_c, 0, 59, 43
1, 437932, Note_on_c, 0, 43, 39
1, 437942, Control_c, 0, 64, 67
1, 437972, Control_c, 0, 64, 66
1, 437987, Control_c, 0, 64, 66
1, 438001, Control_c, 0, 64, 65
1, 438016, Control_c, 0, 64, 65
1, 438061, Control_c, 0, 64, 65
1, 438098, Control_c, 0, 64, 66
1, 438111, Note_off_c, 0, 59, 43
1, 438113, Control_c, 0, 64, 66
1, 438121, Note_on_c, 0, 62, 46
1, 438124, Note_on_c, 0, 31, 39
1, 438127, Control_c, 0, 64, 67
1, 438142, Control_c, 0, 64, 68
1, 438157, Control_c, 0, 64, 69
1, 438172, Control_c, 0, 64, 71
1, 438187, Control_c, 0, 64, 72
1, 438201, Control_c, 0, 64, 74
1, 438216, Control_c, 0, 64, 77
1, 438231, Control_c, 0, 64, 80
1, 438234, Note_off_c, 0, 62, 53
1, 438240, Note_on_c, 0, 59, 43
1, 438246, Control_c, 0, 64, 82
1, 438261, Control_c, 0, 64, 84
1, 438276, Control_c, 0, 64, 87
1, 438291, Control_c, 0, 64, 89
1, 438306, Control_c, 0, 64, 90
1, 438321, Control_c, 0, 64, 92
1, 438335, Note_off_c, 0, 65, 40
1, 438336, Control_c, 0, 64, 94
1, 438350, Control_c, 0, 64, 96
1, 438365, Control_c, 0, 64, 97
1, 438366, Note_on_c, 0, 62, 55
1, 438380, Control_c, 0, 64, 97
1, 438395, Control_c, 0, 64, 98
1, 438397, Note_off_c, 0, 59, 43
1, 438425, Control_c, 0, 64, 98
1, 438489, Note_on_c, 0, 66, 61
1, 438492, Note_off_c, 0, 62, 56
1, 438526, Note_on_c, 0, 59, 33
1, 438597, Note_off_c, 0, 66, 50
1, 438635, Note_on_c, 0, 67, 48
1, 438662, Note_on_c, 0, 62, 45
1, 438663, Note_off_c, 0, 59, 39
1, 438795, Control_c, 0, 64, 99
1, 438799, Note_on_c, 0, 59, 43
1, 438821, Note_off_c, 0, 31, 39
1, 438827, Note_off_c, 0, 62, 36
1, 438847, Control_c, 0, 64, 99
1, 438877, Control_c, 0, 64, 100
1, 438892, Control_c, 0, 64, 100
1, 438934, Note_on_c, 0, 62, 50
1, 438937, Note_off_c, 0, 59, 36
1, 438943, Note_off_c, 0, 43, 41
1, 438973, Note_off_c, 0, 67, 54
1, 439046, Note_off_c, 0, 62, 56
1, 439056, Note_on_c, 0, 59, 49
1, 439173, Control_c, 0, 64, 100
1, 439185, Note_off_c, 0, 59, 55
1, 439188, Control_c, 0, 64, 98
1, 439203, Control_c, 0, 64, 96
1, 439218, Control_c, 0, 64, 91
1, 439226, Note_on_c, 0, 67, 57
1, 439233, Control_c, 0, 64, 85
1, 439247, Control_c, 0, 64, 78
1, 439259, Note_on_c, 0, 36, 42
1, 439262, Control_c, 0, 64, 72
1, 439277, Control_c, 0, 64, 65
1, 439292, Control_c, 0, 64, 51
1, 439307, Control_c, 0, 64, 41
1, 439322, Control_c, 0, 64, 57
1, 439334, Note_off_c, 0, 67, 59
1, 439337, Control_c, 0, 64, 64
1, 439351, Note_on_c, 0, 63, 45
1, 439352, Control_c, 0, 64, 67
1, 439366, Control_c, 0, 64, 69
1, 439381, Control_c, 0, 64, 72
1, 439388, Note_on_c, 0, 60, 43
1, 439393, Note_off_c, 0, 36, 35
1, 439396, Control_c, 0, 64, 74
1, 439411, Control_c, 0, 64, 77
1, 439420, Note_off_c, 0, 63, 46
1, 439426, Control_c, 0, 64, 80
1, 439438, Note_off_c, 0, 60, 50
1, 439440, Control_c, 0, 64, 83
1, 439455, Note_on_c, 0, 67, 62
1, 439455, Control_c, 0, 64, 86
1, 439470, Control_c, 0, 64, 88
1, 439485, Control_c, 0, 64, 90
1, 439500, Control_c, 0, 64, 91
1, 439514, Control_c, 0, 64, 92
1, 439522, Note_off_c, 0, 67, 61
1, 439529, Control_c, 0, 64, 93
1, 439544, Control_c, 0, 64, 94
1, 439547, Note_on_c, 0, 63, 56
1, 439566, Control_c, 0, 64, 95
1, 439577, Note_on_c, 0, 60, 35
1, 439581, Control_c, 0, 64, 96
1, 439596, Control_c, 0, 64, 97
1, 439600, Note_on_c, 0, 43, 52
1, 439611, Note_off_c, 0, 60, 49
1, 439638, Note_off_c, 0, 63, 61
1, 439647, Note_on_c, 0, 67, 67
1, 439656, Note_off_c, 0, 43, 60
1, 439670, Control_c, 0, 64, 96
1, 439685, Control_c, 0, 64, 93
1, 439695, Note_on_c, 0, 39, 72
1, 439699, Control_c, 0, 64, 87
1, 439714, Control_c, 0, 64, 79
1, 439715, Note_off_c, 0, 67, 61
1, 439729, Control_c, 0, 64, 70
1, 439738, Note_on_c, 0, 63, 58
1, 439744, Control_c, 0, 64, 52
1, 439755, Note_on_c, 0, 60, 18
1, 439759, Control_c, 0, 64, 0
1, 439766, Note_off_c, 0, 39, 62
1, 439788, Control_c, 0, 64, 64
1, 439792, Note_off_c, 0, 60, 43
1, 439803, Control_c, 0, 64, 71
1, 439808, Note_off_c, 0, 63, 61
1, 439818, Note_on_c, 0, 67, 67
1, 439818, Control_c, 0, 64, 79
1, 439833, Control_c, 0, 64, 86
1, 439847, Control_c, 0, 64, 89
1, 439862, Control_c, 0, 64, 92
1, 439877, Control_c, 0, 64, 94
1, 439886, Note_off_c, 0, 67, 61
1, 439893, Control_c, 0, 64, 97
1, 439903, Note_on_c, 0, 60, 38
1, 439908, Control_c, 0, 64, 100
1, 439910, Note_on_c, 0, 63, 64
1, 439923, Control_c, 0, 64, 102
1, 439938, Control_c, 0, 64, 103
1, 439952, Control_c, 0, 64, 104
1, 439967, Control_c, 0, 64, 105
1, 439982, Control_c, 0, 64, 106
1, 439999, Note_off_c, 0, 60, 37
1, 439999, Note_off_c, 0, 63, 63
1, 440004, Note_on_c, 0, 67, 69
1, 440011, Control_c, 0, 64, 106
1, 440036, Note_on_c, 0, 48, 65
1, 440070, Control_c, 0, 64, 106
1, 440085, Control_c, 0, 64, 104
1, 440093, Note_off_c, 0, 67, 61
1, 440097, Note_off_c, 0, 48, 62
1, 440100, Control_c, 0, 64, 100
1, 440115, Control_c, 0, 64, 93
1, 440118, Note_on_c, 0, 43, 77
1, 440118, Note_on_c, 0, 60, 50
1, 440121, Note_on_c, 0, 63, 55
1, 440130, Control_c, 0, 64, 83
1, 440145, Control_c, 0, 64, 72
1, 440160, Control_c, 0, 64, 51
1, 440160, Note_off_c, 0, 60, 58
1, 440175, Control_c, 0, 64, 0
1, 440188, Note_off_c, 0, 63, 61
1, 440193, Note_on_c, 0, 67, 65
1, 440204, Control_c, 0, 64, 59
1, 440219, Control_c, 0, 64, 70
1, 440227, Note_off_c, 0, 43, 56
1, 440234, Control_c, 0, 64, 79
1, 440249, Control_c, 0, 64, 89
1, 440263, Control_c, 0, 64, 94
1, 440272, Note_off_c, 0, 67, 57
1, 440278, Control_c, 0, 64, 97
1, 440293, Note_on_c, 0, 60, 41
1, 440293, Control_c, 0, 64, 100
1, 440299, Note_on_c, 0, 63, 60
1, 440315, Control_c, 0, 64, 104
1, 440330, Control_c, 0, 64, 107
1, 440344, Control_c, 0, 64, 110
1, 440359, Control_c, 0, 64, 112
1, 440363, Note_off_c, 0, 60, 50
1, 440374, Control_c, 0, 64, 113
1, 440380, Note_off_c, 0, 63, 62
1, 440387, Note_on_c, 0, 67, 73
1, 440389, Control_c, 0, 64, 114
1, 440404, Control_c, 0, 64, 116
1, 440419, Control_c, 0, 64, 117
1, 440434, Control_c, 0, 64, 117
1, 440449, Control_c, 0, 64, 118
1, 440450, Note_on_c, 0, 51, 64
1, 440461, Note_off_c, 0, 67, 59
1, 440489, Note_on_c, 0, 60, 50
1, 440489, Note_on_c, 0, 63, 54
1, 440508, Control_c, 0, 64, 117
1, 440511, Note_off_c, 0, 51, 62
1, 440522, Control_c, 0, 64, 116
1, 440532, Note_off_c, 0, 60, 52
1, 440537, Control_c, 0, 64, 110
1, 440544, Note_off_c, 0, 63, 62
1, 440552, Control_c, 0, 64, 100
1, 440553, Note_on_c, 0, 67, 73
1, 440559, Note_on_c, 0, 48, 84
1, 440567, Control_c, 0, 64, 89
1, 440582, Control_c, 0, 64, 76
1, 440596, Control_c, 0, 64, 64
1, 440609, Note_off_c, 0, 67, 61
1, 440611, Control_c, 0, 64, 0
1, 440639, Note_on_c, 0, 60, 53
1, 440641, Control_c, 0, 64, 49
1, 440644, Note_on_c, 0, 63, 52
1, 440656, Control_c, 0, 64, 69
1, 440670, Control_c, 0, 64, 78
1, 440675, Note_off_c, 0, 60, 59
1, 440685, Control_c, 0, 64, 86
1, 440700, Note_off_c, 0, 48, 59
1, 440701, Note_off_c, 0, 63, 60
1, 440701, Control_c, 0, 64, 91
1, 440705, Note_on_c, 0, 67, 62
1, 440716, Control_c, 0, 64, 93
1, 440731, Control_c, 0, 64, 95
1, 440745, Control_c, 0, 64, 99
1, 440760, Control_c, 0, 64, 101
1, 440775, Control_c, 0, 64, 104
1, 440790, Control_c, 0, 64, 106
1, 440791, Note_on_c, 0, 60, 44
1, 440792, Note_off_c, 0, 67, 62
1, 440805, Control_c, 0, 64, 109
1, 440812, Note_on_c, 0, 63, 58
1, 440819, Control_c, 0, 64, 111
1, 440834, Control_c, 0, 64, 115
1, 440836, Note_on_c, 0, 55, 72
1, 440849, Control_c, 0, 64, 119
1, 440864, Control_c, 0, 64, 123
1, 440879, Control_c, 0, 64, 127
1, 440892, Note_off_c, 0, 63, 60
1, 440896, Note_off_c, 0, 55, 65
1, 440967, Control_c, 0, 64, 126
1, 440968, Note_off_c, 0, 60, 59
1, 440976, Note_on_c, 0, 51, 82
1, 440982, Control_c, 0, 64, 113
1, 440988, Note_on_c, 0, 72, 80
1, 440997, Control_c, 0, 64, 97
1, 441012, Control_c, 0, 64, 80
1, 441027, Control_c, 0, 64, 61
1, 441037, Note_off_c, 0, 51, 61
1, 441042, Control_c, 0, 64, 0
1, 441052, Note_off_c, 0, 72, 62
1, 441057, Control_c, 0, 64, 36
1, 441079, Control_c, 0, 64, 65
1, 441090, Note_on_c, 0, 63, 66
1, 441093, Control_c, 0, 64, 74
1, 441108, Control_c, 0, 64, 86
1, 441123, Control_c, 0, 64, 97
1, 441138, Control_c, 0, 64, 103
1, 441150, Note_off_c, 0, 63, 58
1, 441152, Control_c, 0, 64, 105
1, 441160, Note_on_c, 0, 72, 72
1, 441167, Control_c, 0, 64, 107
1, 441182, Control_c, 0, 64, 110
1, 441197, Control_c, 0, 64, 114
1, 441210, Note_off_c, 0, 72, 59
1, 441212, Control_c, 0, 64, 118
1, 441225, Note_on_c, 0, 63, 71
1, 441227, Control_c, 0, 64, 124
1, 441242, Control_c, 0, 64, 127
1, 441262, Note_on_c, 0, 60, 69
1, 441286, Note_off_c, 0, 60, 67
1, 441291, Note_off_c, 0, 63, 62
1, 441296, Note_on_c, 0, 72, 77
1, 441352, Note_off_c, 0, 72, 63
1, 441353, Note_on_c, 0, 63, 62
1, 441379, Note_off_c, 0, 63, 67
1, 441405, Control_c, 0, 64, 101
1, 441419, Control_c, 0, 64, 68
1, 441427, Note_on_c, 0, 71, 73
1, 441429, Note_on_c, 0, 43, 69
1, 441434, Control_c, 0, 64, 0
1, 441438, Note_on_c, 0, 67, 54
1, 441478, Control_c, 0, 64, 65
1, 441495, Note_off_c, 0, 43, 61
1, 441495, Control_c, 0, 64, 74
1, 441498, Note_on_c, 0, 62, 69
1, 441498, Note_off_c, 0, 71, 62
1, 441501, Note_off_c, 0, 67, 48
1, 441509, Control_c, 0, 64, 92
1, 441524, Control_c, 0, 64, 115
1, 441539, Control_c, 0, 64, 127
1, 441562, Note_off_c, 0, 62, 61
1, 441570, Note_on_c, 0, 71, 67
1, 441576, Note_on_c, 0, 67, 56
1, 441617, Note_off_c, 0, 71, 61
1, 441629, Note_on_c, 0, 62, 74
1, 441660, Note_on_c, 0, 53, 62
1, 441679, Note_off_c, 0, 62, 63
1, 441684, Note_off_c, 0, 67, 0
1, 441690, Note_on_c, 0, 71, 72
1, 441702, Note_on_c, 0, 67, 23
1, 441707, Note_off_c, 0, 53, 66
1, 441740, Note_off_c, 0, 71, 63
1, 441744, Note_off_c, 0, 67, 50
1, 441747, Note_on_c, 0, 62, 65
1, 441776, Note_off_c, 0, 62, 65
1, 441842, Control_c, 0, 64, 112
1, 441857, Control_c, 0, 64, 95
1, 441872, Control_c, 0, 64, 78
1, 441887, Note_on_c, 0, 48, 76
1, 441887, Control_c, 0, 64, 57
1, 441888, Note_on_c, 0, 79, 80
1, 441901, Control_c, 0, 64, 0
1, 441946, Control_c, 0, 64, 66
1, 441961, Control_c, 0, 64, 76
1, 441973, Note_off_c, 0, 79, 61
1, 441975, Note_off_c, 0, 48, 62
1, 441975, Control_c, 0, 64, 87
1, 441984, Note_on_c, 0, 75, 70
1, 441990, Control_c, 0, 64, 97
1, 442002, Note_on_c, 0, 72, 59
1, 442005, Control_c, 0, 64, 102
1, 442020, Control_c, 0, 64, 105
1, 442035, Control_c, 0, 64, 109
1, 442044, Note_off_c, 0, 72, 58
1, 442050, Control_c, 0, 64, 113
1, 442053, Note_off_c, 0, 75, 62
1, 442064, Control_c, 0, 64, 117
1, 442069, Note_on_c, 0, 79, 82
1, 442079, Control_c, 0, 64, 122
1, 442094, Control_c, 0, 64, 127
1, 442124, Note_off_c, 0, 79, 60
1, 442142, Note_on_c, 0, 75, 71
1, 442153, Note_on_c, 0, 72, 59
1, 442186, Note_off_c, 0, 72, 63
1, 442194, Note_on_c, 0, 55, 58
1, 442199, Note_off_c, 0, 75, 63
1, 442218, Note_on_c, 0, 79, 84
1, 442234, Note_off_c, 0, 55, 63
1, 442272, Control_c, 0, 64, 114
1, 442282, Note_on_c, 0, 51, 85
1, 442287, Note_off_c, 0, 79, 61
1, 442288, Control_c, 0, 64, 94
1, 442292, Note_on_c, 0, 72, 72
1, 442295, Note_on_c, 0, 75, 75
1, 442303, Control_c, 0, 64, 75
1, 442317, Control_c, 0, 64, 10
1, 442332, Control_c, 0, 64, 0
1, 442342, Note_off_c, 0, 72, 62
1, 442355, Note_off_c, 0, 51, 62
1, 442362, Control_c, 0, 64, 65
1, 442366, Note_off_c, 0, 75, 63
1, 442368, Note_on_c, 0, 79, 84
1, 442377, Control_c, 0, 64, 81
1, 442391, Control_c, 0, 64, 99
1, 442406, Control_c, 0, 64, 118
1, 442421, Control_c, 0, 64, 120
1, 442436, Control_c, 0, 64, 121
1, 442439, Note_off_c, 0, 79, 61
1, 442448, Note_on_c, 0, 75, 63
1, 442451, Control_c, 0, 64, 122
1, 442460, Note_on_c, 0, 72, 56
1, 442465, Control_c, 0, 64, 125
1, 442480, Control_c, 0, 64, 127
1, 442499, Note_off_c, 0, 72, 61
1, 442525, Note_on_c, 0, 79, 82
1, 442530, Note_off_c, 0, 75, 62
1, 442614, Note_off_c, 0, 79, 59
1, 442616, Note_on_c, 0, 60, 71
1, 442619, Note_on_c, 0, 72, 71
1, 442629, Note_on_c, 0, 75, 69
1, 442667, Note_off_c, 0, 60, 59
1, 442675, Note_off_c, 0, 72, 62
1, 442680, Control_c, 0, 64, 114
1, 442695, Control_c, 0, 64, 97
1, 442700, Note_on_c, 0, 55, 86
1, 442703, Note_on_c, 0, 79, 92
1, 442710, Control_c, 0, 64, 80
1, 442711, Note_off_c, 0, 75, 62
1, 442724, Control_c, 0, 64, 62
1, 442739, Control_c, 0, 64, 0
1, 442769, Control_c, 0, 64, 50
1, 442776, Note_off_c, 0, 79, 62
1, 442784, Control_c, 0, 64, 71
1, 442785, Note_on_c, 0, 72, 68
1, 442785, Note_on_c, 0, 75, 68
1, 442795, Note_off_c, 0, 55, 62
1, 442798, Control_c, 0, 64, 83
1, 442813, Control_c, 0, 64, 98
1, 442827, Note_off_c, 0, 72, 60
1, 442828, Control_c, 0, 64, 109
1, 442843, Control_c, 0, 64, 112
1, 442853, Note_on_c, 0, 79, 80
1, 442858, Control_c, 0, 64, 114
1, 442861, Note_off_c, 0, 75, 64
1, 442872, Control_c, 0, 64, 116
1, 442887, Control_c, 0, 64, 119
1, 442902, Control_c, 0, 64, 124
1, 442917, Control_c, 0, 64, 127
1, 442930, Note_off_c, 0, 79, 58
1, 442938, Note_on_c, 0, 75, 62
1, 442940, Note_on_c, 0, 72, 65
1, 442985, Note_on_c, 0, 63, 79
1, 443000, Note_off_c, 0, 72, 61
1, 443015, Note_on_c, 0, 79, 83
1, 443021, Note_off_c, 0, 75, 64
1, 443045, Note_off_c, 0, 63, 65
1, 443081, Note_off_c, 0, 79, 62
1, 443094, Note_on_c, 0, 72, 71
1, 443096, Control_c, 0, 64, 112
1, 443102, Note_on_c, 0, 60, 88
1, 443103, Note_on_c, 0, 75, 54
1, 443111, Control_c, 0, 64, 91
1, 443126, Control_c, 0, 64, 75
1, 443129, Note_off_c, 0, 72, 60
1, 443141, Control_c, 0, 64, 56
1, 443150, Note_on_c, 0, 79, 78
1, 443155, Control_c, 0, 64, 56
1, 443164, Note_off_c, 0, 75, 65
1, 443170, Control_c, 0, 64, 67
1, 443185, Control_c, 0, 64, 76
1, 443200, Control_c, 0, 64, 89
1, 443214, Note_off_c, 0, 79, 63
1, 443215, Control_c, 0, 64, 104
1, 443227, Note_on_c, 0, 72, 70
1, 443230, Control_c, 0, 64, 112
1, 443236, Note_on_c, 0, 75, 44
1, 443245, Control_c, 0, 64, 113
1, 443252, Note_off_c, 0, 60, 54
1, 443260, Control_c, 0, 64, 113
1, 443266, Note_off_c, 0, 72, 62
1, 443275, Control_c, 0, 64, 114
1, 443277, Note_on_c, 0, 79, 75
1, 443289, Control_c, 0, 64, 115
1, 443311, Control_c, 0, 64, 117
1, 443326, Control_c, 0, 64, 119
1, 443340, Control_c, 0, 64, 122
1, 443344, Note_off_c, 0, 79, 61
1, 443355, Control_c, 0, 64, 126
1, 443357, Note_on_c, 0, 72, 79
1, 443359, Note_on_c, 0, 67, 74
1, 443368, Note_off_c, 0, 75, 55
1, 443370, Control_c, 0, 64, 127
1, 443424, Note_off_c, 0, 67, 59
1, 443451, Note_off_c, 0, 72, 52
1, 443474, Control_c, 0, 64, 117
1, 443480, Note_on_c, 0, 63, 92
1, 443482, Note_on_c, 0, 84, 89
1, 443489, Control_c, 0, 64, 98
1, 443504, Control_c, 0, 64, 79
1, 443519, Control_c, 0, 64, 38
1, 443534, Control_c, 0, 64, 0
1, 443548, Note_off_c, 0, 84, 61
1, 443550, Note_off_c, 0, 63, 63
1, 443558, Note_on_c, 0, 75, 77
1, 443563, Control_c, 0, 64, 66
1, 443578, Control_c, 0, 64, 79
1, 443593, Control_c, 0, 64, 96
1, 443608, Control_c, 0, 64, 120
1, 443615, Note_off_c, 0, 75, 62
1, 443622, Control_c, 0, 64, 127
1, 443633, Note_on_c, 0, 84, 83
1, 443697, Note_off_c, 0, 84, 64
1, 443698, Note_on_c, 0, 75, 77
1, 443740, Note_on_c, 0, 72, 67
1, 443754, Note_off_c, 0, 75, 61
1, 443761, Note_on_c, 0, 84, 81
1, 443765, Note_off_c, 0, 72, 69
1, 443823, Note_off_c, 0, 84, 63
1, 443868, Note_on_c, 0, 74, 30
1, 443873, Control_c, 0, 64, 99
1, 443889, Control_c, 0, 64, 70
1, 443897, Note_on_c, 0, 83, 78
1, 443898, Note_off_c, 0, 74, 53
1, 443904, Control_c, 0, 64, 0
1, 443910, Note_on_c, 0, 55, 70
1, 443916, Note_on_c, 0, 79, 51
1, 443934, Control_c, 0, 64, 65
1, 443949, Control_c, 0, 64, 74
1, 443961, Note_off_c, 0, 55, 64
1, 443963, Control_c, 0, 64, 86
1, 443967, Note_on_c, 0, 74, 74
1, 443967, Note_off_c, 0, 79, 45
1, 443969, Note_off_c, 0, 83, 62
1, 443978, Control_c, 0, 64, 106
1, 443993, Control_c, 0, 64, 127
1, 444032, Note_off_c, 0, 74, 63
1, 444035, Note_on_c, 0, 83, 78
1, 444065, Note_on_c, 0, 79, 54
1, 444077, Note_on_c, 0, 65, 70
1, 444093, Note_on_c, 0, 82, 7
1, 444103, Note_off_c, 0, 65, 70
1, 444104, Note_off_c, 0, 83, 61
1, 444107, Note_on_c, 0, 74, 77
1, 444136, Note_off_c, 0, 82, 38
1, 444156, Note_off_c, 0, 79, 0
1, 444166, Note_on_c, 0, 83, 78
1, 444172, Note_on_c, 0, 79, 29
1, 444172, Note_off_c, 0, 74, 62
1, 444222, Note_off_c, 0, 79, 60
1, 444226, Note_on_c, 0, 74, 68
1, 444238, Note_off_c, 0, 83, 60
1, 444282, Control_c, 0, 64, 101
1, 444297, Control_c, 0, 64, 77
1, 444301, Note_off_c, 0, 74, 65
1, 444312, Control_c, 0, 64, 0
1, 444314, Note_on_c, 0, 48, 68
1, 444317, Note_on_c, 0, 84, 96
1, 444335, Note_off_c, 0, 84, 70
1, 444357, Control_c, 0, 64, 65
1, 444371, Control_c, 0, 64, 81
1, 444386, Control_c, 0, 64, 108
1, 444391, Note_off_c, 0, 48, 65
1, 444394, Note_on_c, 0, 51, 68
1, 444401, Control_c, 0, 64, 127
1, 444467, Note_on_c, 0, 55, 54
1, 444476, Note_off_c, 0, 51, 62
1, 444509, Note_off_c, 0, 55, 65
1, 444516, Note_on_c, 0, 60, 69
1, 444568, Note_off_c, 0, 60, 60
1, 444583, Note_on_c, 0, 55, 66
1, 444638, Note_off_c, 0, 55, 64
1, 444655, Note_on_c, 0, 51, 64
1, 444683, Control_c, 0, 64, 105
1, 444698, Control_c, 0, 64, 89
1, 444712, Control_c, 0, 64, 73
1, 444715, Note_off_c, 0, 51, 62
1, 444727, Control_c, 0, 64, 42
1, 444730, Note_on_c, 0, 75, 101
1, 444735, Note_on_c, 0, 43, 70
1, 444742, Control_c, 0, 64, 0
1, 444757, Control_c, 0, 64, 48
1, 444771, Note_off_c, 0, 75, 71
1, 444772, Control_c, 0, 64, 74
1, 444786, Control_c, 0, 64, 90
1, 444793, Note_off_c, 0, 43, 58
1, 444801, Control_c, 0, 64, 113
1, 444816, Note_on_c, 0, 51, 64
1, 444824, Control_c, 0, 64, 127
1, 444885, Note_on_c, 0, 55, 66
1, 444907, Note_off_c, 0, 51, 60
1, 444971, Note_off_c, 0, 55, 59
1, 444975, Note_on_c, 0, 60, 62
1, 445027, Note_on_c, 0, 55, 41
1, 445036, Note_off_c, 0, 60, 60
1, 445093, Note_off_c, 0, 55, 65
1, 445099, Note_on_c, 0, 51, 66
1, 445105, Control_c, 0, 64, 123
1, 445120, Control_c, 0, 64, 107
1, 445135, Control_c, 0, 64, 94
1, 445150, Control_c, 0, 64, 78
1, 445165, Control_c, 0, 64, 64
1, 445179, Control_c, 0, 64, 0
1, 445180, Note_on_c, 0, 79, 98
1, 445183, Note_off_c, 0, 51, 62
1, 445185, Note_on_c, 0, 48, 76
1, 445216, Note_off_c, 0, 79, 69
1, 445224, Control_c, 0, 64, 68
1, 445239, Control_c, 0, 64, 83
1, 445253, Control_c, 0, 64, 99
1, 445268, Control_c, 0, 64, 114
1, 445283, Control_c, 0, 64, 123
1, 445287, Note_on_c, 0, 51, 71
1, 445298, Control_c, 0, 64, 127
1, 445356, Note_on_c, 0, 55, 54
1, 445385, Note_off_c, 0, 51, 62
1, 445416, Note_on_c, 0, 60, 68
1, 445486, Note_off_c, 0, 48, 64
1, 445486, Note_off_c, 0, 55, 63
1, 445489, Note_on_c, 0, 51, 76
1, 445490, Note_off_c, 0, 60, 59
1, 445551, Note_off_c, 0, 51, 62
1, 445617, Control_c, 0, 64, 105
1, 445632, Control_c, 0, 64, 83
1, 445639, Note_on_c, 0, 77, 101
1, 445647, Control_c, 0, 64, 65
1, 445651, Note_on_c, 0, 50, 65
1, 445662, Control_c, 0, 64, 0
1, 445706, Control_c, 0, 64, 62
1, 445719, Note_off_c, 0, 50, 64
1, 445721, Control_c, 0, 64, 75
1, 445724, Note_on_c, 0, 53, 67
1, 445735, Control_c, 0, 64, 88
1, 445750, Control_c, 0, 64, 101
1, 445765, Control_c, 0, 64, 108
1, 445780, Control_c, 0, 64, 112
1, 445792, Note_off_c, 0, 53, 65
1, 445795, Control_c, 0, 64, 114
1, 445797, Note_on_c, 0, 55, 67
1, 445809, Control_c, 0, 64, 118
1, 445824, Control_c, 0, 64, 124
1, 445839, Control_c, 0, 64, 127
1, 445855, Note_off_c, 0, 55, 63
1, 445859, Note_on_c, 0, 59, 73
1, 445921, Note_off_c, 0, 59, 60
1, 445924, Note_on_c, 0, 55, 60
1, 445979, Note_off_c, 0, 77, 44
1, 445981, Note_on_c, 0, 75, 93
1, 445981, Note_off_c, 0, 55, 65
1, 446002, Note_on_c, 0, 53, 52
1, 446017, Control_c, 0, 64, 100
1, 446026, Note_off_c, 0, 53, 59
1, 446032, Control_c, 0, 64, 82
1, 446047, Control_c, 0, 64, 66
1, 446058, Note_on_c, 0, 74, 97
1, 446059, Note_off_c, 0, 75, 61
1, 446062, Control_c, 0, 64, 0
1, 446077, Control_c, 0, 64, 54
1, 446080, Note_on_c, 0, 43, 65
1, 446092, Control_c, 0, 64, 69
1, 446104, Note_off_c, 0, 74, 69
1, 446107, Control_c, 0, 64, 84
1, 446107, Note_off_c, 0, 43, 54
1, 446121, Control_c, 0, 64, 103
1, 446136, Control_c, 0, 64, 127
1, 446184, Note_on_c, 0, 53, 71
1, 446246, Note_off_c, 0, 53, 66
1, 446259, Note_on_c, 0, 55, 72
1, 446322, Note_off_c, 0, 55, 65
1, 446340, Note_on_c, 0, 59, 63
1, 446378, Note_off_c, 0, 59, 58
1, 446387, Note_on_c, 0, 55, 64
1, 446440, Control_c, 0, 64, 105
1, 446448, Note_off_c, 0, 55, 65
1, 446449, Note_on_c, 0, 53, 69
1, 446455, Control_c, 0, 64, 89
1, 446470, Control_c, 0, 64, 75
1, 446485, Control_c, 0, 64, 61
1, 446491, Note_on_c, 0, 79, 99
1, 446500, Control_c, 0, 64, 38
1, 446511, Note_off_c, 0, 53, 64
1, 446515, Control_c, 0, 64, 63
1, 446518, Note_on_c, 0, 50, 77
1, 446527, Note_off_c, 0, 79, 67
1, 446530, Control_c, 0, 64, 72
1, 446545, Control_c, 0, 64, 83
1, 446559, Control_c, 0, 64, 97
1, 446574, Control_c, 0, 64, 109
1, 446589, Control_c, 0, 64, 117
1, 446595, Note_off_c, 0, 50, 63
1, 446601, Note_on_c, 0, 53, 70
1, 446604, Control_c, 0, 64, 127
1, 446619, Control_c, 0, 64, 127
1, 446658, Note_off_c, 0, 53, 65
1, 446667, Note_on_c, 0, 55, 68
1, 446712, Note_off_c, 0, 55, 62
1, 446731, Note_on_c, 0, 59, 70
1, 446776, Note_off_c, 0, 59, 57
1, 446786, Note_on_c, 0, 55, 62
1, 446846, Note_off_c, 0, 55, 66
1, 446849, Note_on_c, 0, 53, 75
1, 446950, Note_off_c, 0, 53, 64
1, 446959, Control_c, 0, 64, 118
1, 446968, Note_on_c, 0, 48, 74
1, 446974, Note_on_c, 0, 72, 100
1, 446974, Control_c, 0, 64, 93
1, 446984, Note_on_c, 0, 60, 80
1, 446989, Control_c, 0, 64, 71
1, 447004, Control_c, 0, 64, 0
1, 447007, Note_off_c, 0, 60, 69
1, 447063, Note_off_c, 0, 48, 65
1, 447070, Control_c, 0, 64, 63
1, 447073, Note_on_c, 0, 51, 67
1, 447086, Control_c, 0, 64, 77
1, 447101, Control_c, 0, 64, 94
1, 447115, Control_c, 0, 64, 118
1, 447130, Control_c, 0, 64, 127
1, 447147, Note_off_c, 0, 51, 62
1, 447164, Note_on_c, 0, 55, 53
1, 447196, Note_off_c, 0, 55, 61
1, 447199, Note_on_c, 0, 60, 65
1, 447233, Note_off_c, 0, 60, 65
1, 447253, Note_on_c, 0, 55, 59
1, 447317, Note_off_c, 0, 55, 65
1, 447326, Note_on_c, 0, 51, 66
1, 447382, Control_c, 0, 64, 109
1, 447397, Control_c, 0, 64, 92
1, 447397, Note_off_c, 0, 51, 61
1, 447412, Control_c, 0, 64, 76
1, 447415, Note_on_c, 0, 43, 69
1, 447424, Note_on_c, 0, 63, 95
1, 447427, Control_c, 0, 64, 49
1, 447442, Control_c, 0, 64, 0
1, 447457, Note_on_c, 0, 67, 37
1, 447469, Control_c, 0, 64, 64
1, 447471, Note_off_c, 0, 43, 60
1, 447482, Note_on_c, 0, 51, 67
1, 447484, Note_off_c, 0, 63, 63
1, 447484, Control_c, 0, 64, 78
1, 447499, Control_c, 0, 64, 92
1, 447500, Note_off_c, 0, 67, 46
1, 447514, Control_c, 0, 64, 107
1, 447528, Control_c, 0, 64, 114
1, 447543, Control_c, 0, 64, 116
1, 447558, Control_c, 0, 64, 117
1, 447566, Note_on_c, 0, 55, 69
1, 447573, Control_c, 0, 64, 119
1, 447577, Note_off_c, 0, 51, 61
1, 447588, Control_c, 0, 64, 123
1, 447603, Control_c, 0, 64, 127
1, 447624, Note_off_c, 0, 55, 64
1, 447651, Note_on_c, 0, 60, 64
1, 447710, Note_on_c, 0, 55, 55
1, 447712, Note_off_c, 0, 60, 60
1, 447776, Note_on_c, 0, 51, 71
1, 447776, Note_off_c, 0, 55, 65
1, 447825, Note_off_c, 0, 72, 59
1, 447847, Control_c, 0, 64, 99
1, 447862, Control_c, 0, 64, 74
1, 447862, Note_on_c, 0, 67, 105
1, 447868, Note_on_c, 0, 48, 76
1, 447868, Note_off_c, 0, 51, 61
1, 447877, Control_c, 0, 64, 0
1, 447909, Note_off_c, 0, 67, 68
1, 447937, Control_c, 0, 64, 66
1, 447952, Control_c, 0, 64, 77
1, 447967, Control_c, 0, 64, 91
1, 447970, Note_on_c, 0, 51, 74
1, 447982, Control_c, 0, 64, 111
1, 447996, Control_c, 0, 64, 127
1, 448026, Note_on_c, 0, 55, 66
1, 448059, Note_off_c, 0, 51, 62
1, 448117, Note_on_c, 0, 60, 61
1, 448163, Note_off_c, 0, 48, 65
1, 448164, Note_off_c, 0, 55, 60
1, 448167, Note_on_c, 0, 51, 76
1, 448181, Note_off_c, 0, 60, 60
1, 448242, Note_off_c, 0, 51, 63
1, 448313, Note_on_c, 0, 71, 86
1, 448314, Note_on_c, 0, 65, 95
1, 448328, Note_on_c, 0, 50, 71
1, 448351, Control_c, 0, 64, 97
1, 448363, Note_on_c, 0, 68, 24
1, 448366, Control_c, 0, 64, 71
1, 448381, Control_c, 0, 64, 0
1, 448395, Note_off_c, 0, 50, 65
1, 448400, Note_on_c, 0, 53, 69
1, 448404, Note_off_c, 0, 68, 39
1, 448426, Control_c, 0, 64, 28
1, 448441, Control_c, 0, 64, 64
1, 448455, Control_c, 0, 64, 73
1, 448464, Note_off_c, 0, 53, 65
1, 448470, Control_c, 0, 64, 85
1, 448475, Note_on_c, 0, 55, 64
1, 448485, Control_c, 0, 64, 99
1, 448500, Control_c, 0, 64, 114
1, 448515, Control_c, 0, 64, 123
1, 448527, Note_off_c, 0, 55, 62
1, 448529, Control_c, 0, 64, 127
1, 448542, Note_on_c, 0, 59, 65
1, 448607, Note_off_c, 0, 59, 59
1, 448613, Note_on_c, 0, 55, 68
1, 448647, Note_off_c, 0, 65, 54
1, 448673, Note_on_c, 0, 53, 64
1, 448673, Note_on_c, 0, 63, 88
1, 448673, Note_off_c, 0, 55, 66
1, 448702, Note_off_c, 0, 53, 68
1, 448726, Note_off_c, 0, 63, 65
1, 448730, Control_c, 0, 64, 116
1, 448745, Control_c, 0, 64, 97
1, 448760, Note_on_c, 0, 62, 98
1, 448760, Control_c, 0, 64, 78
1, 448774, Control_c, 0, 64, 40
1, 448780, Note_on_c, 0, 43, 65
1, 448789, Control_c, 0, 64, 0
1, 448804, Control_c, 0, 64, 43
1, 448816, Note_off_c, 0, 43, 62
1, 448819, Control_c, 0, 64, 75
1, 448834, Control_c, 0, 64, 96
1, 448849, Control_c, 0, 64, 127
1, 448884, Note_on_c, 0, 53, 66
1, 448891, Note_off_c, 0, 62, 58
1, 448946, Note_off_c, 0, 53, 65
1, 448952, Note_on_c, 0, 55, 65
1, 449021, Note_off_c, 0, 55, 64
1, 449042, Note_on_c, 0, 59, 69
1, 449090, Note_off_c, 0, 59, 57
1, 449101, Note_on_c, 0, 55, 68
1, 449159, Note_on_c, 0, 53, 70
1, 449160, Control_c, 0, 64, 122
1, 449162, Note_off_c, 0, 55, 65
1, 449175, Control_c, 0, 64, 98
1, 449189, Note_on_c, 0, 67, 98
1, 449190, Control_c, 0, 64, 78
1, 449205, Control_c, 0, 64, 46
1, 449219, Note_off_c, 0, 53, 65
1, 449220, Control_c, 0, 64, 0
1, 449222, Note_on_c, 0, 50, 79
1, 449249, Control_c, 0, 64, 63
1, 449264, Control_c, 0, 64, 80
1, 449278, Control_c, 0, 64, 102
1, 449293, Control_c, 0, 64, 127
1, 449307, Note_off_c, 0, 50, 62
1, 449311, Note_on_c, 0, 53, 69
1, 449358, Note_off_c, 0, 53, 64
1, 449362, Note_on_c, 0, 55, 72
1, 449405, Note_off_c, 0, 55, 63
1, 449430, Note_on_c, 0, 59, 66
1, 449481, Note_on_c, 0, 55, 72
1, 449490, Note_off_c, 0, 59, 59
1, 449530, Note_off_c, 0, 55, 66
1, 449560, Note_on_c, 0, 53, 30
1, 449584, Note_off_c, 0, 53, 59
1, 449643, Control_c, 0, 64, 108
1, 449657, Control_c, 0, 64, 84
1, 449672, Control_c, 0, 64, 62
1, 449687, Control_c, 0, 64, 0
1, 449704, Note_on_c, 0, 60, 105
1, 449725, Note_on_c, 0, 36, 71
1, 449731, Control_c, 0, 64, 72
1, 449746, Control_c, 0, 64, 98
1, 449761, Control_c, 0, 64, 127
1, 449764, Note_off_c, 0, 36, 66
1, 449803, Note_off_c, 0, 60, 61
1, 449835, Note_off_c, 0, 71, 59
1, 449838, Note_off_c, 0, 67, 55
1, 449909, Note_on_c, 0, 48, 48
1, 449913, Note_on_c, 0, 51, 52
1, 449988, Note_off_c, 0, 48, 65
1, 449998, Note_off_c, 0, 51, 60
1, 450013, Note_on_c, 0, 55, 73
1, 450028, Note_on_c, 0, 43, 63
1, 450106, Note_off_c, 0, 55, 62
1, 450128, Note_on_c, 0, 48, 63
1, 450128, Note_on_c, 0, 51, 57
1, 450146, Note_off_c, 0, 43, 60
1, 450238, Note_on_c, 0, 84, 101
1, 450239, Note_on_c, 0, 72, 109
1, 450241, Control_c, 0, 64, 115
1, 450250, Note_on_c, 0, 55, 82
1, 450256, Note_on_c, 0, 43, 78
1, 450256, Control_c, 0, 64, 92
1, 450259, Note_off_c, 0, 48, 63
1, 450262, Note_off_c, 0, 51, 62
1, 450271, Control_c, 0, 64, 75
1, 450287, Control_c, 0, 64, 66
1, 450302, Control_c, 0, 64, 68
1, 450317, Control_c, 0, 64, 78
1, 450331, Control_c, 0, 64, 93
1, 450346, Control_c, 0, 64, 109
1, 450355, Note_off_c, 0, 55, 51
1, 450357, Note_off_c, 0, 43, 61
1, 450361, Control_c, 0, 64, 120
1, 450368, Note_on_c, 0, 48, 76
1, 450376, Note_on_c, 0, 51, 73
1, 450376, Control_c, 0, 64, 121
1, 450391, Control_c, 0, 64, 122
1, 450405, Control_c, 0, 64, 122
1, 450420, Control_c, 0, 64, 123
1, 450435, Control_c, 0, 64, 124
1, 450450, Control_c, 0, 64, 125
1, 450465, Control_c, 0, 64, 126
1, 450471, Note_on_c, 0, 55, 80
1, 450473, Note_off_c, 0, 48, 64
1, 450480, Control_c, 0, 64, 127
1, 450482, Note_off_c, 0, 51, 61
1, 450494, Control_c, 0, 64, 127
1, 450497, Note_on_c, 0, 43, 57
1, 450572, Note_off_c, 0, 43, 61
1, 450572, Note_off_c, 0, 55, 60
1, 450577, Note_on_c, 0, 48, 77
1, 450581, Note_on_c, 0, 51, 73
1, 450662, Note_off_c, 0, 72, 57
1, 450682, Note_on_c, 0, 55, 81
1, 450688, Note_off_c, 0, 48, 59
1, 450691, Note_on_c, 0, 43, 75
1, 450697, Note_off_c, 0, 84, 61
1, 450703, Note_off_c, 0, 51, 63
1, 450763, Note_off_c, 0, 55, 50
1, 450776, Note_on_c, 0, 48, 73
1, 450777, Note_off_c, 0, 43, 61
1, 450781, Note_on_c, 0, 51, 57
1, 450877, Note_on_c, 0, 55, 78
1, 450894, Note_off_c, 0, 55, 74
1, 450899, Note_on_c, 0, 43, 60
1, 450918, Note_off_c, 0, 51, 63
1, 450924, Note_off_c, 0, 48, 65
1, 450939, Note_off_c, 0, 43, 64
1, 451012, Note_on_c, 0, 75, 90
1, 451015, Note_on_c, 0, 87, 95
1, 451046, Note_off_c, 0, 75, 62
1, 451052, Note_off_c, 0, 87, 66
1, 451096, Control_c, 0, 64, 97
1, 451110, Control_c, 0, 64, 78
1, 451125, Control_c, 0, 64, 58
1, 451140, Control_c, 0, 64, 0
1, 451153, Note_on_c, 0, 36, 75
1, 451154, Control_c, 0, 64, 58
1, 451157, Note_on_c, 0, 84, 97
1, 451161, Note_on_c, 0, 72, 103
1, 451169, Control_c, 0, 64, 71
1, 451184, Control_c, 0, 64, 87
1, 451192, Note_off_c, 0, 36, 67
1, 451199, Control_c, 0, 64, 105
1, 451214, Control_c, 0, 64, 113
1, 451258, Control_c, 0, 64, 114
1, 451272, Control_c, 0, 64, 116
1, 451287, Control_c, 0, 64, 119
1, 451302, Control_c, 0, 64, 122
1, 451317, Control_c, 0, 64, 127
1, 451319, Note_on_c, 0, 47, 61
1, 451365, Note_off_c, 0, 72, 0
1, 451386, Note_on_c, 0, 50, 18
1, 451389, Note_on_c, 0, 72, 28
1, 451408, Note_off_c, 0, 47, 64
1, 451431, Note_off_c, 0, 50, 37
1, 451434, Note_on_c, 0, 55, 80
1, 451444, Note_off_c, 0, 72, 50
1, 451464, Note_on_c, 0, 43, 49
1, 451486, Note_off_c, 0, 84, 38
1, 451527, Note_off_c, 0, 55, 61
1, 451568, Note_on_c, 0, 51, 68
1, 451579, Note_on_c, 0, 48, 66
1, 451580, Note_off_c, 0, 43, 60
1, 451636, Control_c, 0, 64, 122
1, 451651, Control_c, 0, 64, 105
1, 451666, Control_c, 0, 64, 87
1, 451673, Note_on_c, 0, 55, 85
1, 451673, Note_on_c, 0, 84, 109
1, 451675, Note_on_c, 0, 72, 106
1, 451680, Control_c, 0, 64, 71
1, 451683, Note_on_c, 0, 43, 74
1, 451684, Note_off_c, 0, 48, 61
1, 451685, Note_off_c, 0, 51, 62
1, 451695, Control_c, 0, 64, 0
1, 451740, Control_c, 0, 64, 20
1, 451754, Control_c, 0, 64, 67
1, 451769, Control_c, 0, 64, 73
1, 451771, Note_off_c, 0, 55, 54
1, 451783, Note_off_c, 0, 43, 62
1, 451784, Control_c, 0, 64, 79
1, 451789, Note_on_c, 0, 48, 75
1, 451789, Note_on_c, 0, 51, 71
1, 451799, Control_c, 0, 64, 82
1, 451814, Control_c, 0, 64, 83
1, 451828, Control_c, 0, 64, 83
1, 451843, Control_c, 0, 64, 84
1, 451858, Control_c, 0, 64, 85
1, 451874, Control_c, 0, 64, 86
1, 451882, Note_off_c, 0, 48, 54
1, 451889, Control_c, 0, 64, 87
1, 451892, Note_on_c, 0, 55, 80
1, 451892, Note_off_c, 0, 51, 58
1, 451901, Note_on_c, 0, 43, 70
1, 451903, Control_c, 0, 64, 90
1, 451918, Control_c, 0, 64, 93
1, 451933, Control_c, 0, 64, 96
1, 451948, Control_c, 0, 64, 100
1, 451963, Control_c, 0, 64, 103
1, 451977, Control_c, 0, 64, 107
1, 451983, Note_off_c, 0, 43, 61
1, 451983, Note_off_c, 0, 55, 61
1, 451991, Note_on_c, 0, 48, 74
1, 451992, Control_c, 0, 64, 110
1, 451994, Note_on_c, 0, 51, 73
1, 452007, Control_c, 0, 64, 112
1, 452022, Control_c, 0, 64, 115
1, 452037, Control_c, 0, 64, 119
1, 452051, Control_c, 0, 64, 125
1, 452066, Control_c, 0, 64, 127
1, 452091, Note_off_c, 0, 48, 54
1, 452095, Note_on_c, 0, 55, 88
1, 452100, Note_on_c, 0, 43, 81
1, 452113, Note_off_c, 0, 51, 61
1, 452114, Note_off_c, 0, 72, 60
1, 452145, Note_off_c, 0, 84, 62
1, 452176, Note_off_c, 0, 55, 48
1, 452185, Note_on_c, 0, 48, 78
1, 452193, Note_off_c, 0, 43, 61
1, 452201, Note_on_c, 0, 51, 57
1, 452282, Note_on_c, 0, 55, 83
1, 452307, Note_on_c, 0, 43, 66
1, 452311, Note_off_c, 0, 55, 67
1, 452337, Note_off_c, 0, 48, 65
1, 452337, Note_off_c, 0, 51, 63
1, 452361, Note_off_c, 0, 43, 62
1, 452392, Note_on_c, 0, 87, 91
1, 452396, Note_on_c, 0, 75, 74
1, 452420, Note_off_c, 0, 75, 71
1, 452450, Note_off_c, 0, 87, 63
1, 452503, Control_c, 0, 64, 94
1, 452518, Control_c, 0, 64, 68
1, 452533, Control_c, 0, 64, 0
1, 452539, Note_on_c, 0, 91, 100
1, 452542, Note_on_c, 0, 79, 100
1, 452545, Note_on_c, 0, 31, 81
1, 452563, Control_c, 0, 64, 51
1, 452577, Control_c, 0, 64, 72
1, 452581, Note_off_c, 0, 31, 65
1, 452592, Control_c, 0, 64, 86
1, 452607, Control_c, 0, 64, 103
1, 452621, Control_c, 0, 64, 105
1, 452651, Control_c, 0, 64, 106
1, 452666, Control_c, 0, 64, 106
1, 452682, Control_c, 0, 64, 107
1, 452697, Control_c, 0, 64, 108
1, 452717, Note_on_c, 0, 50, 64
1, 452726, Note_on_c, 0, 47, 62
1, 452757, Control_c, 0, 64, 109
1, 452801, Control_c, 0, 64, 109
1, 452820, Note_on_c, 0, 55, 65
1, 452821, Note_off_c, 0, 47, 59
1, 452823, Note_off_c, 0, 50, 56
1, 452831, Control_c, 0, 64, 110
1, 452846, Control_c, 0, 64, 110
1, 452861, Control_c, 0, 64, 111
1, 452875, Control_c, 0, 64, 112
1, 452881, Note_on_c, 0, 43, 46
1, 452885, Note_off_c, 0, 79, 56
1, 452890, Control_c, 0, 64, 114
1, 452897, Note_off_c, 0, 55, 59
1, 452905, Control_c, 0, 64, 118
1, 452919, Control_c, 0, 64, 124
1, 452929, Note_on_c, 0, 47, 72
1, 452934, Control_c, 0, 64, 127
1, 452939, Note_on_c, 0, 50, 58
1, 452945, Note_off_c, 0, 43, 60
1, 453061, Note_on_c, 0, 43, 70
1, 453065, Note_on_c, 0, 55, 75
1, 453066, Note_off_c, 0, 50, 62
1, 453068, Note_off_c, 0, 47, 63
1, 453156, Note_off_c, 0, 55, 63
1, 453162, Note_off_c, 0, 43, 61
1, 453167, Note_on_c, 0, 47, 73
1, 453177, Note_on_c, 0, 50, 64
1, 453213, Note_off_c, 0, 91, 52
1, 453320, Note_on_c, 0, 92, 103
1, 453327, Note_on_c, 0, 80, 95
1, 453332, Note_on_c, 0, 55, 69
1, 453334, Note_off_c, 0, 47, 65
1, 453338, Note_off_c, 0, 50, 60
1, 453342, Note_on_c, 0, 43, 64
1, 453404, Note_off_c, 0, 55, 55
1, 453443, Note_off_c, 0, 43, 61
1, 453446, Note_off_c, 0, 80, 60
1, 453449, Note_on_c, 0, 47, 72
1, 453454, Note_off_c, 0, 92, 65
1, 453462, Note_on_c, 0, 50, 59
1, 453553, Note_on_c, 0, 89, 100
1, 453557, Note_on_c, 0, 77, 104
1, 453563, Note_on_c, 0, 55, 74
1, 453563, Note_off_c, 0, 47, 62
1, 453577, Note_off_c, 0, 50, 62
1, 453583, Note_on_c, 0, 43, 51
1, 453619, Note_off_c, 0, 55, 60
1, 453646, Note_off_c, 0, 89, 65
1, 453650, Note_off_c, 0, 77, 55
1, 453654, Note_off_c, 0, 43, 62
1, 453660, Note_on_c, 0, 47, 75
1, 453675, Poly_aftertouch_c, 0, 41, 0
1, 453697, Note_on_c, 0, 50, 39
1, 453751, Note_on_c, 0, 55, 68
1, 453756, Note_on_c, 0, 86, 103
1, 453759, Note_on_c, 0, 74, 101
1, 453776, Note_on_c, 0, 43, 75
1, 453797, Note_off_c, 0, 47, 64
1, 453798, Note_off_c, 0, 50, 61
1, 453803, Note_off_c, 0, 55, 65
1, 453839, Note_off_c, 0, 43, 62
1, 453887, Note_off_c, 0, 74, 60
1, 453905, Note_off_c, 0, 86, 58
1, 453913, Control_c, 0, 64, 99
1, 453928, Control_c, 0, 64, 74
1, 453943, Control_c, 0, 64, 0
1, 453966, Note_on_c, 0, 36, 71
1, 453972, Control_c, 0, 64, 63
1, 453982, Note_on_c, 0, 86, 97
1, 453984, Note_on_c, 0, 74, 92
1, 453987, Control_c, 0, 64, 76
1, 453991, Note_off_c, 0, 36, 66
1, 454002, Control_c, 0, 64, 96
1, 454017, Control_c, 0, 64, 127
1, 454030, Note_off_c, 0, 74, 67
1, 454072, Note_off_c, 0, 86, 62
1, 454106, Note_on_c, 0, 48, 66
1, 454114, Note_on_c, 0, 51, 57
1, 454197, Note_off_c, 0, 48, 56
1, 454202, Note_on_c, 0, 55, 79
1, 454203, Note_off_c, 0, 51, 62
1, 454207, Note_on_c, 0, 87, 104
1, 454209, Note_on_c, 0, 75, 102
1, 454214, Note_on_c, 0, 43, 74
1, 454244, Note_off_c, 0, 75, 67
1, 454253, Note_off_c, 0, 87, 63
1, 454270, Note_off_c, 0, 55, 56
1, 454307, Note_off_c, 0, 43, 61
1, 454308, Note_on_c, 0, 48, 70
1, 454319, Note_on_c, 0, 51, 67
1, 454387, Control_c, 0, 64, 104
1, 454402, Control_c, 0, 64, 89
1, 454417, Control_c, 0, 64, 78
1, 454418, Note_off_c, 0, 48, 60
1, 454420, Note_on_c, 0, 55, 83
1, 454420, Note_on_c, 0, 84, 101
1, 454423, Note_on_c, 0, 72, 106
1, 454427, Note_on_c, 0, 43, 77
1, 454432, Note_off_c, 0, 51, 60
1, 454432, Control_c, 0, 64, 69
1, 454446, Control_c, 0, 64, 69
1, 454461, Control_c, 0, 64, 73
1, 454476, Control_c, 0, 64, 80
1, 454490, Control_c, 0, 64, 88
1, 454505, Control_c, 0, 64, 93
1, 454517, Note_off_c, 0, 55, 43
1, 454520, Control_c, 0, 64, 94
1, 454523, Note_on_c, 0, 48, 76
1, 454525, Note_off_c, 0, 43, 61
1, 454535, Note_on_c, 0, 51, 75
1, 454587, Control_c, 0, 64, 95
1, 454617, Control_c, 0, 64, 96
1, 454620, Note_off_c, 0, 48, 61
1, 454637, Note_on_c, 0, 55, 83
1, 454642, Note_off_c, 0, 51, 61
1, 454647, Note_on_c, 0, 43, 71
1, 454720, Control_c, 0, 64, 96
1, 454730, Note_off_c, 0, 55, 41
1, 454731, Note_on_c, 0, 48, 76
1, 454735, Control_c, 0, 64, 97
1, 454737, Note_off_c, 0, 43, 61
1, 454742, Note_on_c, 0, 51, 73
1, 454750, Control_c, 0, 64, 99
1, 454765, Control_c, 0, 64, 100
1, 454779, Control_c, 0, 64, 102
1, 454794, Control_c, 0, 64, 103
1, 454809, Control_c, 0, 64, 105
1, 454823, Control_c, 0, 64, 108
1, 454825, Note_off_c, 0, 48, 64
1, 454838, Note_on_c, 0, 55, 82
1, 454838, Control_c, 0, 64, 111
1, 454846, Note_off_c, 0, 51, 60
1, 454853, Note_on_c, 0, 43, 72
1, 454853, Control_c, 0, 64, 115
1, 454868, Control_c, 0, 64, 122
1, 454883, Control_c, 0, 64, 127
1, 454900, Note_off_c, 0, 72, 60
1, 454916, Note_off_c, 0, 55, 53
1, 454930, Note_on_c, 0, 48, 80
1, 454933, Note_off_c, 0, 84, 62
1, 454939, Note_off_c, 0, 43, 61
1, 454948, Note_on_c, 0, 51, 70
1, 455031, Note_on_c, 0, 55, 85
1, 455049, Note_on_c, 0, 43, 65
1, 455075, Note_off_c, 0, 55, 64
1, 455093, Note_off_c, 0, 51, 62
1, 455099, Note_off_c, 0, 48, 65
1, 455121, Note_off_c, 0, 43, 62
1, 455158, Note_on_c, 0, 87, 97
1, 455163, Note_on_c, 0, 75, 83
1, 455192, Note_off_c, 0, 75, 64
1, 455222, Note_off_c, 0, 87, 62
1, 455269, Control_c, 0, 64, 105
1, 455291, Control_c, 0, 64, 74
1, 455306, Control_c, 0, 64, 0
1, 455313, Note_on_c, 0, 91, 108
1, 455316, Note_on_c, 0, 79, 98
1, 455317, Note_on_c, 0, 31, 85
1, 455350, Note_off_c, 0, 31, 66
1, 455350, Control_c, 0, 64, 64
1, 455365, Control_c, 0, 64, 78
1, 455380, Control_c, 0, 64, 95
1, 455395, Control_c, 0, 64, 113
1, 455410, Control_c, 0, 64, 114
1, 455469, Control_c, 0, 64, 115
1, 455484, Note_on_c, 0, 50, 69
1, 455484, Control_c, 0, 64, 116
1, 455499, Control_c, 0, 64, 117
1, 455502, Note_on_c, 0, 47, 57
1, 455514, Control_c, 0, 64, 117
1, 455528, Control_c, 0, 64, 118
1, 455543, Control_c, 0, 64, 118
1, 455573, Control_c, 0, 64, 119
1, 455580, Note_off_c, 0, 47, 60
1, 455584, Note_off_c, 0, 50, 56
1, 455586, Note_on_c, 0, 55, 66
1, 455588, Control_c, 0, 64, 119
1, 455602, Control_c, 0, 64, 120
1, 455617, Control_c, 0, 64, 120
1, 455627, Note_on_c, 0, 43, 53
1, 455632, Control_c, 0, 64, 121
1, 455646, Control_c, 0, 64, 121
1, 455667, Note_off_c, 0, 79, 51
1, 455668, Note_off_c, 0, 55, 54
1, 455676, Control_c, 0, 64, 122
1, 455687, Note_on_c, 0, 47, 74
1, 455691, Control_c, 0, 64, 124
1, 455707, Control_c, 0, 64, 127
1, 455712, Note_on_c, 0, 50, 57
1, 455712, Note_off_c, 0, 43, 50
1, 455721, Control_c, 0, 64, 127
1, 455800, Note_on_c, 0, 55, 69
1, 455803, Note_off_c, 0, 47, 59
1, 455812, Note_off_c, 0, 50, 60
1, 455815, Note_on_c, 0, 43, 66
1, 455878, Note_off_c, 0, 55, 49
1, 455897, Note_on_c, 0, 47, 74
1, 455904, Note_off_c, 0, 43, 61
1, 455910, Note_on_c, 0, 50, 61
1, 455949, Note_off_c, 0, 91, 56
1, 456048, Note_on_c, 0, 92, 103
1, 456053, Note_on_c, 0, 80, 96
1, 456061, Note_on_c, 0, 55, 75
1, 456067, Note_off_c, 0, 47, 63
1, 456072, Note_on_c, 0, 43, 63
1, 456072, Note_off_c, 0, 50, 62
1, 456149, Note_off_c, 0, 55, 60
1, 456167, Note_off_c, 0, 43, 60
1, 456174, Note_on_c, 0, 47, 71
1, 456176, Note_off_c, 0, 80, 59
1, 456177, Note_off_c, 0, 92, 63
1, 456181, Note_on_c, 0, 50, 59
1, 456277, Note_on_c, 0, 89, 98
1, 456283, Note_on_c, 0, 77, 98
1, 456288, Note_off_c, 0, 47, 60
1, 456289, Note_on_c, 0, 55, 76
1, 456296, Note_on_c, 0, 43, 74
1, 456298, Note_off_c, 0, 50, 62
1, 456345, Note_off_c, 0, 55, 61
1, 456364, Note_off_c, 0, 77, 57
1, 456368, Note_off_c, 0, 89, 64
1, 456385, Note_off_c, 0, 43, 61
1, 456385, Note_on_c, 0, 47, 74
1, 456402, Note_on_c, 0, 50, 56
1, 456480, Note_on_c, 0, 86, 99
1, 456482, Note_on_c, 0, 74, 97
1, 456483, Note_on_c, 0, 55, 69
1, 456502, Note_on_c, 0, 43, 72
1, 456521, Note_off_c, 0, 50, 60
1, 456525, Note_off_c, 0, 55, 65
1, 456534, Note_off_c, 0, 47, 62
1, 456566, Note_off_c, 0, 43, 62
1, 456605, Note_off_c, 0, 74, 59
1, 456611, Note_off_c, 0, 86, 59
1, 456633, Control_c, 0, 64, 106
1, 456648, Control_c, 0, 64, 80
1, 456664, Control_c, 0, 64, 47
1, 456679, Control_c, 0, 64, 0
1, 456690, Note_on_c, 0, 36, 74
1, 456699, Note_on_c, 0, 86, 94
1, 456701, Note_on_c, 0, 74, 90
1, 456708, Control_c, 0, 64, 68
1, 456718, Note_off_c, 0, 36, 64
1, 456723, Control_c, 0, 64, 83
1, 456738, Control_c, 0, 64, 102
1, 456748, Note_off_c, 0, 74, 66
1, 456753, Control_c, 0, 64, 126
1, 456767, Control_c, 0, 64, 127
1, 456799, Note_off_c, 0, 86, 62
1, 456838, Note_on_c, 0, 48, 75
1, 456841, Note_on_c, 0, 51, 65
1, 456915, Note_off_c, 0, 48, 60
1, 456932, Note_off_c, 0, 51, 56
1, 456935, Note_on_c, 0, 87, 102
1, 456937, Note_on_c, 0, 55, 83
1, 456939, Note_on_c, 0, 75, 98
1, 456952, Note_on_c, 0, 43, 75
1, 456972, Note_off_c, 0, 75, 67
1, 456983, Note_off_c, 0, 87, 63
1, 456992, Note_off_c, 0, 55, 60
1, 457038, Note_off_c, 0, 43, 61
1, 457040, Note_on_c, 0, 48, 74
1, 457046, Note_on_c, 0, 51, 66
1, 457100, Control_c, 0, 64, 112
1, 457115, Control_c, 0, 64, 92
1, 457130, Control_c, 0, 64, 77
1, 457134, Note_off_c, 0, 48, 61
1, 457145, Control_c, 0, 64, 62
1, 457155, Note_on_c, 0, 55, 82
1, 457159, Note_on_c, 0, 84, 103
1, 457160, Note_on_c, 0, 72, 97
1, 457160, Control_c, 0, 64, 0
1, 457164, Note_off_c, 0, 51, 61
1, 457165, Note_on_c, 0, 43, 71
1, 457175, Control_c, 0, 64, 16
1, 457190, Control_c, 0, 64, 65
1, 457204, Control_c, 0, 64, 76
1, 457212, Note_off_c, 0, 55, 58
1, 457219, Control_c, 0, 64, 86
1, 457234, Control_c, 0, 64, 94
1, 457248, Note_on_c, 0, 48, 74
1, 457249, Control_c, 0, 64, 97
1, 457250, Note_off_c, 0, 43, 61
1, 457264, Control_c, 0, 64, 98
1, 457267, Note_on_c, 0, 51, 68
1, 457279, Control_c, 0, 64, 100
1, 457293, Control_c, 0, 64, 101
1, 457308, Control_c, 0, 64, 103
1, 457323, Control_c, 0, 64, 104
1, 457338, Control_c, 0, 64, 106
1, 457343, Note_off_c, 0, 48, 61
1, 457353, Control_c, 0, 64, 109
1, 457359, Note_on_c, 0, 55, 81
1, 457367, Note_on_c, 0, 43, 69
1, 457367, Control_c, 0, 64, 111
1, 457368, Note_off_c, 0, 51, 61
1, 457382, Control_c, 0, 64, 112
1, 457397, Control_c, 0, 64, 113
1, 457411, Control_c, 0, 64, 114
1, 457426, Control_c, 0, 64, 115
1, 457441, Control_c, 0, 64, 117
1, 457447, Note_on_c, 0, 48, 78
1, 457447, Note_off_c, 0, 55, 41
1, 457452, Note_off_c, 0, 43, 61
1, 457456, Control_c, 0, 64, 121
1, 457467, Note_on_c, 0, 51, 69
1, 457472, Control_c, 0, 64, 124
1, 457487, Control_c, 0, 64, 127
1, 457568, Note_off_c, 0, 48, 61
1, 457569, Note_on_c, 0, 55, 75
1, 457570, Note_off_c, 0, 51, 62
1, 457586, Note_on_c, 0, 43, 66
1, 457634, Note_off_c, 0, 55, 60
1, 457666, Note_on_c, 0, 48, 79
1, 457670, Note_off_c, 0, 43, 60
1, 457687, Note_on_c, 0, 51, 64
1, 457745, Note_off_c, 0, 72, 59
1, 457777, Note_off_c, 0, 84, 61
1, 457780, Note_on_c, 0, 55, 90
1, 457792, Note_on_c, 0, 43, 69
1, 457858, Note_off_c, 0, 55, 61
1, 457866, Note_off_c, 0, 51, 60
1, 457868, Note_off_c, 0, 48, 61
1, 457885, Note_off_c, 0, 43, 60
1, 457896, Note_on_c, 0, 75, 93
1, 457896, Note_on_c, 0, 87, 93
1, 457933, Note_off_c, 0, 75, 66
1, 457973, Note_off_c, 0, 87, 61
1, 458071, Control_c, 0, 64, 108
1, 458086, Control_c, 0, 64, 86
1, 458101, Control_c, 0, 64, 62
1, 458115, Control_c, 0, 64, 0
1, 458131, Note_on_c, 0, 91, 118
1, 458133, Note_on_c, 0, 79, 110
1, 458139, Note_on_c, 0, 55, 99
1, 458143, Note_on_c, 0, 43, 84
1, 458144, Note_on_c, 0, 47, 88
1, 458146, Note_on_c, 0, 50, 83
1, 458175, Control_c, 0, 64, 71
1, 458189, Control_c, 0, 64, 87
1, 458204, Control_c, 0, 64, 110
1, 458219, Control_c, 0, 64, 123
1, 458223, Note_off_c, 0, 43, 61
1, 458233, Control_c, 0, 64, 124
1, 458239, Note_off_c, 0, 50, 63
1, 458239, Note_off_c, 0, 47, 64
1, 458240, Note_off_c, 0, 55, 59
1, 458248, Control_c, 0, 64, 126
1, 458264, Control_c, 0, 64, 127
1, 458371, Note_off_c, 0, 79, 52
1, 458422, Note_off_c, 0, 91, 58
1, 458604, Note_on_c, 0, 68, 102
1, 458606, Note_on_c, 0, 56, 92
1, 458746, Note_off_c, 0, 68, 58
1, 458813, Note_on_c, 0, 80, 95
1, 458813, Note_on_c, 0, 92, 99
1, 458880, Note_off_c, 0, 80, 62
1, 458889, Note_off_c, 0, 92, 67
1, 458916, Note_off_c, 0, 56, 59
1, 458952, Note_on_c, 0, 65, 97
1, 458954, Note_on_c, 0, 53, 82
1, 459036, Note_off_c, 0, 65, 59
1, 459068, Note_off_c, 0, 53, 64
1, 459081, Note_on_c, 0, 89, 96
1, 459083, Note_on_c, 0, 77, 99
1, 459183, Note_off_c, 0, 89, 63
1, 459184, Note_off_c, 0, 77, 60
1, 459214, Note_on_c, 0, 62, 97
1, 459220, Note_on_c, 0, 50, 87
1, 459267, Note_off_c, 0, 62, 60
1, 459298, Note_off_c, 0, 50, 62
1, 459317, Note_on_c, 0, 86, 95
1, 459321, Note_on_c, 0, 74, 95
1, 459420, Note_off_c, 0, 86, 62
1, 459422, Note_off_c, 0, 74, 63
1, 459437, Note_on_c, 0, 59, 81
1, 459438, Note_on_c, 0, 47, 90
1, 459461, Note_on_c, 0, 57, 53
1, 459462, Note_off_c, 0, 57, 127
1, 459484, Note_off_c, 0, 59, 63
1, 459512, Note_off_c, 0, 47, 63
1, 459539, Note_on_c, 0, 83, 93
1, 459542, Note_on_c, 0, 71, 94
1, 459583, Note_off_c, 0, 71, 63
1, 459593, Note_off_c, 0, 83, 60
1, 459641, Note_on_c, 0, 56, 92
1, 459646, Note_on_c, 0, 44, 83
1, 459731, Poly_aftertouch_c, 0, 46, 0
1, 459741, Note_off_c, 0, 56, 60
1, 459746, Note_on_c, 0, 80, 93
1, 459747, Note_on_c, 0, 68, 95
1, 459765, Poly_aftertouch_c, 0, 46, 0
1, 459823, Note_off_c, 0, 68, 61
1, 459828, Note_off_c, 0, 44, 61
1, 459831, Note_off_c, 0, 80, 64
1, 459872, Note_on_c, 0, 53, 96
1, 459876, Note_on_c, 0, 41, 90
1, 459914, Note_off_c, 0, 53, 67
1, 459929, Note_off_c, 0, 41, 65
1, 459963, Note_on_c, 0, 65, 95
1, 459965, Note_on_c, 0, 77, 94
1, 460012, Note_off_c, 0, 65, 65
1, 460036, Note_off_c, 0, 77, 56
1, 460078, Note_on_c, 0, 50, 94
1, 460084, Note_on_c, 0, 38, 84
1, 460120, Note_off_c, 0, 50, 65
1, 460137, Note_off_c, 0, 38, 60
1, 460169, Note_on_c, 0, 74, 87
1, 460171, Note_on_c, 0, 62, 93
1, 460222, Note_off_c, 0, 62, 59
1, 460242, Control_c, 0, 64, 126
1, 460257, Note_off_c, 0, 74, 61
1, 460257, Control_c, 0, 64, 99
1, 460272, Control_c, 0, 64, 84
1, 460287, Control_c, 0, 64, 80
1, 460289, Note_on_c, 0, 47, 92
1, 460297, Note_on_c, 0, 35, 83
1, 460302, Control_c, 0, 64, 80
1, 460317, Control_c, 0, 64, 84
1, 460331, Control_c, 0, 64, 94
1, 460338, Note_off_c, 0, 47, 65
1, 460346, Control_c, 0, 64, 109
1, 460359, Note_off_c, 0, 35, 60
1, 460361, Control_c, 0, 64, 127
1, 460383, Note_on_c, 0, 71, 90
1, 460385, Note_on_c, 0, 59, 83
1, 460429, Note_off_c, 0, 59, 64
1, 460442, Note_off_c, 0, 71, 59
1, 460498, Note_on_c, 0, 44, 94
1, 460509, Note_on_c, 0, 32, 74
1, 460521, Note_on_c, 0, 34, 62
1, 460558, Note_off_c, 0, 44, 62
1, 460558, Note_off_c, 0, 34, 64
1, 460595, Note_on_c, 0, 68, 88
1, 460599, Note_on_c, 0, 56, 80
1, 460639, Note_off_c, 0, 32, 59
1, 460650, Control_c, 0, 64, 95
1, 460662, Note_off_c, 0, 56, 61
1, 460665, Control_c, 0, 64, 77
1, 460668, Note_off_c, 0, 68, 61
1, 460680, Control_c, 0, 64, 45
1, 460695, Control_c, 0, 64, 0
1, 460726, Note_on_c, 0, 31, 79
1, 460726, Note_on_c, 0, 43, 91
1, 460740, Control_c, 0, 64, 68
1, 460755, Control_c, 0, 64, 85
1, 460764, Note_off_c, 0, 31, 65
1, 460770, Note_off_c, 0, 43, 62
1, 460770, Control_c, 0, 64, 104
1, 460785, Control_c, 0, 64, 115
1, 460799, Control_c, 0, 64, 116
1, 460814, Control_c, 0, 64, 117
1, 460829, Control_c, 0, 64, 121
1, 460844, Control_c, 0, 64, 127
1, 460850, Note_on_c, 0, 67, 85
1, 460853, Note_on_c, 0, 55, 84
1, 460897, Note_off_c, 0, 55, 65
1, 460912, Note_off_c, 0, 67, 63
1, 460947, Control_c, 0, 64, 124
1, 460962, Control_c, 0, 64, 97
1, 460977, Control_c, 0, 64, 75
1, 460992, Control_c, 0, 64, 0
1, 461004, Note_on_c, 0, 55, 98
1, 461012, Note_on_c, 0, 43, 82
1, 461012, Note_on_c, 0, 47, 86
1, 461013, Note_on_c, 0, 50, 90
1, 461021, Control_c, 0, 64, 43
1, 461036, Control_c, 0, 64, 77
1, 461044, Note_off_c, 0, 55, 67
1, 461048, Note_off_c, 0, 50, 66
1, 461051, Control_c, 0, 64, 101
1, 461062, Note_off_c, 0, 47, 65
1, 461064, Note_off_c, 0, 43, 60
1, 461065, Control_c, 0, 64, 127
1, 461149, Note_on_c, 0, 71, 85
1, 461154, Note_on_c, 0, 59, 89
1, 461157, Note_on_c, 0, 62, 77
1, 461173, Note_on_c, 0, 67, 64
1, 461184, Note_off_c, 0, 62, 64
1, 461190, Note_off_c, 0, 59, 59
1, 461202, Note_off_c, 0, 67, 67
1, 461222, Note_off_c, 0, 71, 59
1, 461325, Control_c, 0, 64, 126
1, 461339, Control_c, 0, 64, 117
1, 461354, Control_c, 0, 64, 110
1, 461369, Control_c, 0, 64, 102
1, 461384, Control_c, 0, 64, 94
1, 461399, Control_c, 0, 64, 84
1, 461413, Control_c, 0, 64, 75
1, 461428, Control_c, 0, 64, 64
1, 461434, Note_on_c, 0, 72, 87
1, 461435, Note_on_c, 0, 63, 87
1, 461435, Note_on_c, 0, 67, 73
1, 461437, Note_on_c, 0, 60, 99
1, 461438, Note_on_c, 0, 48, 95
1, 461440, Note_on_c, 0, 36, 83
1, 461443, Control_c, 0, 64, 0
1, 461826, Note_off_c, 0, 72, 60
1, 461841, Note_off_c, 0, 67, 59
1, 461852, Note_off_c, 0, 48, 63
1, 461863, Note_off_c, 0, 63, 63
1, 461864, Note_off_c, 0, 36, 63
1, 461872, Note_off_c, 0, 60, 59
1, 462668, Note_on_c, 0, 59, 49
1, 462676, Note_on_c, 0, 55, 44
1, 462686, Note_on_c, 0, 50, 41
1, 462689, Note_on_c, 0, 43, 49
1, 462737, Note_off_c, 0, 50, 59
1, 462740, Note_off_c, 0, 43, 62
1, 462742, Note_off_c, 0, 59, 62
1, 462745, Note_off_c, 0, 55, 64
1, 463334, Note_on_c, 0, 60, 44
1, 463339, Note_on_c, 0, 55, 38
1, 463345, Note_on_c, 0, 51, 34
1, 463371, Note_on_c, 0, 36, 31
1, 463491, Note_off_c, 0, 60, 60
1, 463505, Note_off_c, 0, 55, 57
1, 463507, Note_off_c, 0, 51, 57
1, 463515, Note_off_c, 0, 36, 58
1, 465471, Control_c, 0, 64, 16
1, 465485, Control_c, 0, 64, 18
1, 465500, Control_c, 0, 64, 21
1, 465648, Control_c, 0, 64, 20
1, 465663, Control_c, 0, 64, 18
1, 465693, Control_c, 0, 64, 13
1, 465708, Control_c, 0, 64, 10
1, 465722, Control_c, 0, 64, 0
1, 465722, End_track
0, 0, End_of_file
