0, 0, Header, 0, 1, 384
1, 0, Start_track
1, 0, Title_t, "Intermezzo--Osip Nikiforov      "
1, 0, Text_t, "2008 e-Piano Junior Competition recital round"
1, 0, Text_t, "recorded July 2008"
1, 0, Text_t, "http://www.piano-e-competition.com/"
1, 0, Text_t, "File processed for distribution by software from Zenph Studios, Inc., http://www.zenph.com"
1, 0, Instrument_name_t, "Yamaha Disklavier Pro Mark IV concert grand piano, model DCFIIISM4PRO"
1, 0, Sequencer_specific, 39, 67, 113, 0, 1, 0, 1, 0, 73, 110, 116, 101, 114, 109, 101, 122, 122, 111, 32, 32, 32, 32, 32, 32, 79, 115, 105, 112, 32, 78, 105, 107, 105, 102, 111, 114, 111, 118, 32, 32
1, 0, Sequencer_specific, 6, 67, 113, 0, 0, 0, 69
1, 0, System_exclusive, 21, 67, 113, 126, 21, 0, 2, 2, 0, 3, 14, 1, 4, 1, 13, 13, 10, 11, 9, 2, 7, 247
1, 0, Sequencer_specific, 5, 67, 123, 12, 2, 1
1, 0, Tempo, 512820
1, 0, Time_signature, 4, 2, 24, 8
1, 0, System_exclusive, 5, 126, 127, 9, 1, 247
1, 1, System_exclusive, 8, 67, 16, 76, 0, 0, 126, 0, 247
1, 2, System_exclusive, 8, 67, 16, 76, 8, 9, 7, 1, 247
1, 3, Control_c, 0, 0, 0
1, 3, Control_c, 1, 0, 0
1, 3, Control_c, 2, 0, 0
1, 3, Control_c, 3, 0, 0
1, 3, Control_c, 4, 0, 0
1, 3, Control_c, 5, 0, 0
1, 3, Control_c, 6, 0, 0
1, 3, Control_c, 7, 0, 0
1, 3, Control_c, 8, 0, 0
1, 3, Control_c, 9, 0, 127
1, 3, Control_c, 10, 0, 0
1, 3, Control_c, 11, 0, 0
1, 3, Control_c, 12, 0, 0
1, 3, Control_c, 13, 0, 0
1, 3, Control_c, 14, 0, 0
1, 3, Control_c, 15, 0, 0
1, 4, Control_c, 0, 32, 0
1, 4, Control_c, 1, 32, 0
1, 4, Control_c, 2, 32, 0
1, 4, Control_c, 3, 32, 0
1, 4, Control_c, 4, 32, 0
1, 4, Control_c, 5, 32, 0
1, 4, Control_c, 6, 32, 0
1, 4, Control_c, 7, 32, 0
1, 4, Control_c, 8, 32, 0
1, 4, Control_c, 9, 32, 0
1, 4, Control_c, 10, 32, 0
1, 4, Control_c, 11, 32, 0
1, 4, Control_c, 12, 32, 0
1, 4, Control_c, 13, 32, 0
1, 4, Control_c, 14, 32, 0
1, 4, Control_c, 15, 32, 0
1, 5, Program_c, 0, 0
1, 5, Program_c, 1, 0
1, 5, Program_c, 2, 0
1, 5, Program_c, 3, 0
1, 5, Program_c, 4, 0
1, 5, Program_c, 5, 0
1, 5, Program_c, 6, 0
1, 5, Program_c, 7, 0
1, 5, Program_c, 8, 0
1, 5, Program_c, 9, 0
1, 5, Program_c, 10, 0
1, 5, Program_c, 11, 0
1, 5, Program_c, 12, 0
1, 5, Program_c, 13, 0
1, 5, Program_c, 14, 0
1, 5, Program_c, 15, 0
1, 6, Control_c, 0, 7, 100
1, 6, Control_c, 1, 7, 100
1, 6, Control_c, 2, 7, 100
1, 6, Control_c, 3, 7, 100
1, 6, Control_c, 4, 7, 100
1, 6, Control_c, 5, 7, 100
1, 6, Control_c, 6, 7, 100
1, 6, Control_c, 7, 7, 100
1, 6, Control_c, 8, 7, 100
1, 6, Control_c, 9, 7, 100
1, 6, Control_c, 10, 7, 100
1, 6, Control_c, 11, 7, 100
1, 6, Control_c, 12, 7, 100
1, 6, Control_c, 13, 7, 100
1, 6, Control_c, 14, 7, 100
1, 6, Control_c, 15, 7, 100
1, 117, Control_c, 0, 64, 15
1, 229, Control_c, 0, 64, 30
1, 341, Control_c, 0, 64, 45
1, 452, Control_c, 0, 64, 60
1, 564, Control_c, 0, 64, 75
1, 676, Control_c, 0, 64, 90
1, 787, Control_c, 0, 64, 105
1, 899, Control_c, 0, 64, 121
1, 1132, Note_on_c, 0, 73, 54
1, 1140, Control_c, 0, 64, 120
1, 1144, Note_on_c, 0, 70, 44
1, 1147, Note_on_c, 0, 61, 36
1, 1156, Note_on_c, 0, 58, 35
1, 1170, Control_c, 0, 64, 119
1, 1173, Note_on_c, 0, 53, 39
1, 1174, Note_on_c, 0, 46, 35
1, 1185, Control_c, 0, 64, 117
1, 1200, Control_c, 0, 64, 114
1, 1215, Control_c, 0, 64, 111
1, 1230, Control_c, 0, 64, 109
1, 1244, Control_c, 0, 64, 106
1, 1259, Control_c, 0, 64, 103
1, 1274, Control_c, 0, 64, 100
1, 1289, Control_c, 0, 64, 96
1, 1304, Control_c, 0, 64, 91
1, 1326, Control_c, 0, 64, 87
1, 1341, Control_c, 0, 64, 82
1, 1356, Control_c, 0, 64, 76
1, 1371, Control_c, 0, 64, 70
1, 1385, Control_c, 0, 64, 59
1, 1400, Control_c, 0, 64, 0
1, 1563, Control_c, 0, 64, 28
1, 1577, Control_c, 0, 64, 54
1, 1592, Control_c, 0, 64, 60
1, 1607, Control_c, 0, 64, 63
1, 1622, Control_c, 0, 64, 66
1, 1637, Control_c, 0, 64, 70
1, 1651, Control_c, 0, 64, 74
1, 1666, Control_c, 0, 64, 79
1, 1681, Control_c, 0, 64, 83
1, 1696, Control_c, 0, 64, 86
1, 1711, Control_c, 0, 64, 89
1, 1725, Control_c, 0, 64, 92
1, 1740, Control_c, 0, 64, 96
1, 1755, Control_c, 0, 64, 101
1, 1770, Control_c, 0, 64, 107
1, 1785, Control_c, 0, 64, 111
1, 1800, Control_c, 0, 64, 115
1, 1815, Control_c, 0, 64, 120
1, 1830, Control_c, 0, 64, 127
1, 1845, Control_c, 0, 64, 127
1, 1853, Note_off_c, 0, 58, 36
1, 1997, Note_off_c, 0, 61, 40
1, 2301, Note_off_c, 0, 70, 50
1, 2372, Note_off_c, 0, 73, 34
1, 2607, Note_on_c, 0, 72, 60
1, 2608, Control_c, 0, 64, 110
1, 2623, Control_c, 0, 64, 96
1, 2632, Note_on_c, 0, 69, 48
1, 2638, Control_c, 0, 64, 86
1, 2644, Note_on_c, 0, 57, 47
1, 2653, Control_c, 0, 64, 80
1, 2668, Control_c, 0, 64, 79
1, 2697, Control_c, 0, 64, 82
1, 2712, Control_c, 0, 64, 87
1, 2727, Control_c, 0, 64, 95
1, 2742, Control_c, 0, 64, 103
1, 2758, Control_c, 0, 64, 111
1, 2763, Note_off_c, 0, 57, 60
1, 2773, Control_c, 0, 64, 121
1, 2787, Control_c, 0, 64, 127
1, 2826, Note_off_c, 0, 72, 58
1, 2837, Note_off_c, 0, 69, 61
1, 2913, Control_c, 0, 64, 122
1, 2928, Control_c, 0, 64, 102
1, 2934, Note_on_c, 0, 73, 76
1, 2943, Control_c, 0, 64, 93
1, 2957, Control_c, 0, 64, 88
1, 2958, Note_on_c, 0, 70, 59
1, 2965, Note_on_c, 0, 58, 51
1, 2972, Control_c, 0, 64, 87
1, 3002, Control_c, 0, 64, 90
1, 3017, Control_c, 0, 64, 101
1, 3031, Control_c, 0, 64, 122
1, 3046, Control_c, 0, 64, 127
1, 3064, Note_off_c, 0, 46, 49
1, 3067, Note_off_c, 0, 53, 55
1, 3085, Note_off_c, 0, 58, 61
1, 3093, Note_off_c, 0, 73, 58
1, 3108, Note_off_c, 0, 70, 55
1, 3455, Note_on_c, 0, 77, 69
1, 3490, Note_on_c, 0, 66, 47
1, 3504, Note_on_c, 0, 58, 35
1, 3504, Note_on_c, 0, 73, 39
1, 3505, Control_c, 0, 64, 121
1, 3517, Note_on_c, 0, 61, 35
1, 3520, Control_c, 0, 64, 107
1, 3522, Note_on_c, 0, 51, 33
1, 3535, Control_c, 0, 64, 94
1, 3551, Control_c, 0, 64, 82
1, 3566, Control_c, 0, 64, 69
1, 3588, Control_c, 0, 64, 0
1, 3677, Control_c, 0, 64, 57
1, 3692, Control_c, 0, 64, 67
1, 3707, Control_c, 0, 64, 72
1, 3722, Control_c, 0, 64, 78
1, 3736, Control_c, 0, 64, 84
1, 3751, Control_c, 0, 64, 89
1, 3766, Control_c, 0, 64, 96
1, 3780, Control_c, 0, 64, 105
1, 3795, Control_c, 0, 64, 113
1, 3810, Control_c, 0, 64, 122
1, 3825, Control_c, 0, 64, 127
1, 3928, Note_off_c, 0, 73, 40
1, 3944, Note_off_c, 0, 77, 50
1, 3957, Note_off_c, 0, 61, 36
1, 4240, Note_on_c, 0, 75, 57
1, 4254, Control_c, 0, 64, 118
1, 4261, Note_on_c, 0, 72, 48
1, 4269, Control_c, 0, 64, 106
1, 4280, Note_on_c, 0, 60, 43
1, 4284, Control_c, 0, 64, 94
1, 4298, Control_c, 0, 64, 80
1, 4321, Control_c, 0, 64, 65
1, 4336, Control_c, 0, 64, 0
1, 4411, Control_c, 0, 64, 61
1, 4419, Note_off_c, 0, 58, 35
1, 4426, Control_c, 0, 64, 70
1, 4441, Control_c, 0, 64, 78
1, 4456, Control_c, 0, 64, 88
1, 4471, Control_c, 0, 64, 96
1, 4485, Control_c, 0, 64, 103
1, 4500, Control_c, 0, 64, 109
1, 4515, Control_c, 0, 64, 115
1, 4530, Control_c, 0, 64, 125
1, 4545, Control_c, 0, 64, 127
1, 4578, Note_off_c, 0, 72, 60
1, 5015, Note_on_c, 0, 73, 47
1, 5017, Control_c, 0, 64, 118
1, 5024, Note_on_c, 0, 70, 41
1, 5032, Control_c, 0, 64, 110
1, 5047, Control_c, 0, 64, 101
1, 5068, Note_on_c, 0, 58, 36
1, 5069, Control_c, 0, 64, 92
1, 5084, Control_c, 0, 64, 81
1, 5099, Control_c, 0, 64, 69
1, 5114, Control_c, 0, 64, 0
1, 5128, Note_off_c, 0, 75, 37
1, 5183, Note_off_c, 0, 60, 36
1, 5218, Control_c, 0, 64, 64
1, 5233, Control_c, 0, 64, 69
1, 5248, Control_c, 0, 64, 75
1, 5263, Control_c, 0, 64, 80
1, 5278, Control_c, 0, 64, 84
1, 5292, Control_c, 0, 64, 89
1, 5307, Control_c, 0, 64, 97
1, 5322, Control_c, 0, 64, 104
1, 5337, Control_c, 0, 64, 112
1, 5351, Control_c, 0, 64, 120
1, 5367, Control_c, 0, 64, 127
1, 5374, Note_off_c, 0, 66, 42
1, 5413, Note_off_c, 0, 58, 53
1, 5455, Note_off_c, 0, 70, 56
1, 5461, Note_off_c, 0, 51, 47
1, 5462, Note_off_c, 0, 73, 28
1, 6026, Note_on_c, 0, 73, 60
1, 6048, Note_on_c, 0, 70, 49
1, 6054, Note_on_c, 0, 61, 43
1, 6077, Note_on_c, 0, 46, 38
1, 6081, Note_on_c, 0, 53, 38
1, 6081, Note_on_c, 0, 58, 35
1, 6101, Control_c, 0, 64, 119
1, 6116, Control_c, 0, 64, 113
1, 6131, Control_c, 0, 64, 106
1, 6146, Control_c, 0, 64, 99
1, 6161, Control_c, 0, 64, 91
1, 6175, Control_c, 0, 64, 81
1, 6190, Control_c, 0, 64, 72
1, 6205, Control_c, 0, 64, 60
1, 6220, Control_c, 0, 64, 0
1, 6382, Control_c, 0, 64, 37
1, 6397, Control_c, 0, 64, 59
1, 6412, Control_c, 0, 64, 63
1, 6427, Control_c, 0, 64, 64
1, 6441, Control_c, 0, 64, 64
1, 6456, Control_c, 0, 64, 66
1, 6471, Control_c, 0, 64, 69
1, 6486, Control_c, 0, 64, 73
1, 6501, Control_c, 0, 64, 79
1, 6516, Control_c, 0, 64, 85
1, 6531, Control_c, 0, 64, 89
1, 6546, Control_c, 0, 64, 93
1, 6560, Control_c, 0, 64, 97
1, 6582, Control_c, 0, 64, 102
1, 6597, Control_c, 0, 64, 107
1, 6603, Note_off_c, 0, 58, 37
1, 6612, Control_c, 0, 64, 114
1, 6627, Control_c, 0, 64, 122
1, 6642, Control_c, 0, 64, 127
1, 6704, Note_off_c, 0, 61, 35
1, 7164, Note_off_c, 0, 70, 33
1, 7229, Note_off_c, 0, 73, 36
1, 7473, Note_on_c, 0, 72, 61
1, 7479, Control_c, 0, 64, 124
1, 7494, Control_c, 0, 64, 106
1, 7495, Note_on_c, 0, 69, 48
1, 7509, Control_c, 0, 64, 88
1, 7520, Note_on_c, 0, 57, 46
1, 7523, Control_c, 0, 64, 72
1, 7538, Control_c, 0, 64, 0
1, 7584, Control_c, 0, 64, 61
1, 7599, Control_c, 0, 64, 73
1, 7613, Control_c, 0, 64, 89
1, 7627, Control_c, 0, 64, 107
1, 7642, Control_c, 0, 64, 118
1, 7651, Note_off_c, 0, 57, 59
1, 7657, Control_c, 0, 64, 127
1, 7714, Note_off_c, 0, 69, 61
1, 7722, Note_off_c, 0, 72, 57
1, 7802, Note_on_c, 0, 73, 76
1, 7819, Control_c, 0, 64, 102
1, 7821, Note_on_c, 0, 70, 61
1, 7834, Control_c, 0, 64, 83
1, 7836, Note_on_c, 0, 58, 51
1, 7849, Control_c, 0, 64, 68
1, 7864, Control_c, 0, 64, 35
1, 7879, Control_c, 0, 64, 51
1, 7893, Control_c, 0, 64, 71
1, 7908, Control_c, 0, 64, 86
1, 7923, Control_c, 0, 64, 108
1, 7938, Control_c, 0, 64, 127
1, 7943, Note_off_c, 0, 46, 44
1, 7944, Note_off_c, 0, 53, 54
1, 7950, Note_off_c, 0, 58, 63
1, 7987, Note_off_c, 0, 70, 60
1, 7990, Note_off_c, 0, 73, 61
1, 8343, Note_on_c, 0, 77, 70
1, 8346, Control_c, 0, 64, 121
1, 8361, Control_c, 0, 64, 113
1, 8374, Note_on_c, 0, 61, 36
1, 8376, Control_c, 0, 64, 106
1, 8376, Note_on_c, 0, 58, 40
1, 8377, Note_on_c, 0, 66, 45
1, 8391, Note_on_c, 0, 51, 36
1, 8391, Control_c, 0, 64, 98
1, 8395, Note_on_c, 0, 73, 37
1, 8406, Control_c, 0, 64, 90
1, 8421, Control_c, 0, 64, 80
1, 8435, Control_c, 0, 64, 67
1, 8450, Control_c, 0, 64, 0
1, 8628, Control_c, 0, 64, 62
1, 8642, Control_c, 0, 64, 68
1, 8657, Control_c, 0, 64, 74
1, 8672, Control_c, 0, 64, 79
1, 8687, Control_c, 0, 64, 83
1, 8702, Control_c, 0, 64, 87
1, 8716, Control_c, 0, 64, 90
1, 8731, Control_c, 0, 64, 95
1, 8746, Control_c, 0, 64, 101
1, 8760, Control_c, 0, 64, 106
1, 8775, Control_c, 0, 64, 112
1, 8790, Control_c, 0, 64, 118
1, 8813, Control_c, 0, 64, 125
1, 8814, Note_off_c, 0, 61, 52
1, 8817, Note_off_c, 0, 77, 51
1, 8828, Control_c, 0, 64, 127
1, 8873, Note_off_c, 0, 73, 38
1, 9133, Note_on_c, 0, 75, 53
1, 9153, Note_on_c, 0, 72, 43
1, 9244, Control_c, 0, 64, 123
1, 9259, Control_c, 0, 64, 120
1, 9273, Control_c, 0, 64, 117
1, 9288, Control_c, 0, 64, 116
1, 9303, Control_c, 0, 64, 115
1, 9318, Control_c, 0, 64, 113
1, 9333, Control_c, 0, 64, 112
1, 9348, Control_c, 0, 64, 110
1, 9363, Control_c, 0, 64, 109
1, 9377, Control_c, 0, 64, 108
1, 9392, Control_c, 0, 64, 107
1, 9407, Control_c, 0, 64, 107
1, 9422, Control_c, 0, 64, 106
1, 9437, Control_c, 0, 64, 105
1, 9452, Control_c, 0, 64, 103
1, 9466, Control_c, 0, 64, 102
1, 9481, Control_c, 0, 64, 100
1, 9496, Control_c, 0, 64, 99
1, 9510, Control_c, 0, 64, 97
1, 9525, Control_c, 0, 64, 95
1, 9540, Control_c, 0, 64, 94
1, 9555, Control_c, 0, 64, 93
1, 9577, Control_c, 0, 64, 92
1, 9580, Note_on_c, 0, 60, 49
1, 9592, Control_c, 0, 64, 91
1, 9604, Note_off_c, 0, 72, 52
1, 9607, Control_c, 0, 64, 90
1, 9622, Control_c, 0, 64, 89
1, 9637, Control_c, 0, 64, 88
1, 9648, Note_off_c, 0, 58, 36
1, 9652, Control_c, 0, 64, 87
1, 9666, Control_c, 0, 64, 85
1, 9681, Control_c, 0, 64, 83
1, 9696, Control_c, 0, 64, 81
1, 9710, Control_c, 0, 64, 79
1, 9725, Control_c, 0, 64, 77
1, 9740, Control_c, 0, 64, 75
1, 9755, Control_c, 0, 64, 72
1, 9770, Control_c, 0, 64, 68
1, 9784, Control_c, 0, 64, 63
1, 9799, Control_c, 0, 64, 50
1, 9814, Control_c, 0, 64, 14
1, 9829, Control_c, 0, 64, 0
1, 9844, Control_c, 0, 64, 22
1, 9858, Control_c, 0, 64, 27
1, 9873, Control_c, 0, 64, 28
1, 9888, Control_c, 0, 64, 29
1, 9917, Control_c, 0, 64, 33
1, 9933, Control_c, 0, 64, 36
1, 9948, Control_c, 0, 64, 38
1, 9963, Control_c, 0, 64, 40
1, 9978, Control_c, 0, 64, 41
1, 9982, Note_on_c, 0, 70, 44
1, 9987, Note_on_c, 0, 73, 45
1, 9993, Control_c, 0, 64, 43
1, 10008, Control_c, 0, 64, 44
1, 10037, Control_c, 0, 64, 45
1, 10067, Control_c, 0, 64, 46
1, 10082, Control_c, 0, 64, 47
1, 10096, Control_c, 0, 64, 48
1, 10135, Note_off_c, 0, 75, 39
1, 10170, Control_c, 0, 64, 49
1, 10185, Control_c, 0, 64, 49
1, 10200, Control_c, 0, 64, 50
1, 10215, Control_c, 0, 64, 50
1, 10230, Control_c, 0, 64, 51
1, 10245, Control_c, 0, 64, 52
1, 10260, Control_c, 0, 64, 52
1, 10275, Control_c, 0, 64, 53
1, 10289, Control_c, 0, 64, 55
1, 10304, Control_c, 0, 64, 56
1, 10326, Control_c, 0, 64, 58
1, 10340, Control_c, 0, 64, 60
1, 10355, Control_c, 0, 64, 61
1, 10370, Control_c, 0, 64, 63
1, 10385, Control_c, 0, 64, 64
1, 10400, Control_c, 0, 64, 65
1, 10415, Control_c, 0, 64, 67
1, 10419, Note_on_c, 0, 55, 39
1, 10430, Control_c, 0, 64, 70
1, 10445, Control_c, 0, 64, 73
1, 10457, Note_off_c, 0, 66, 39
1, 10459, Control_c, 0, 64, 77
1, 10474, Control_c, 0, 64, 83
1, 10489, Control_c, 0, 64, 87
1, 10504, Control_c, 0, 64, 92
1, 10517, Note_off_c, 0, 60, 48
1, 10519, Control_c, 0, 64, 97
1, 10528, Note_off_c, 0, 73, 30
1, 10534, Control_c, 0, 64, 102
1, 10541, Note_off_c, 0, 70, 35
1, 10548, Control_c, 0, 64, 107
1, 10563, Control_c, 0, 64, 111
1, 10578, Control_c, 0, 64, 116
1, 10585, Note_off_c, 0, 55, 53
1, 10593, Control_c, 0, 64, 120
1, 10606, Control_c, 0, 64, 125
1, 10618, Note_off_c, 0, 51, 38
1, 10621, Control_c, 0, 64, 127
1, 11121, Note_on_c, 0, 72, 43
1, 11132, Note_on_c, 0, 44, 30
1, 11133, Control_c, 0, 64, 123
1, 11148, Control_c, 0, 64, 119
1, 11151, Note_on_c, 0, 56, 34
1, 11158, Note_on_c, 0, 66, 31
1, 11162, Note_on_c, 0, 60, 18
1, 11163, Control_c, 0, 64, 116
1, 11167, Note_on_c, 0, 51, 31
1, 11178, Control_c, 0, 64, 114
1, 11193, Control_c, 0, 64, 111
1, 11208, Control_c, 0, 64, 109
1, 11223, Control_c, 0, 64, 106
1, 11237, Control_c, 0, 64, 104
1, 11252, Control_c, 0, 64, 101
1, 11267, Control_c, 0, 64, 98
1, 11282, Control_c, 0, 64, 94
1, 11296, Control_c, 0, 64, 91
1, 11311, Control_c, 0, 64, 87
1, 11326, Control_c, 0, 64, 83
1, 11341, Control_c, 0, 64, 78
1, 11356, Control_c, 0, 64, 73
1, 11370, Control_c, 0, 64, 68
1, 11385, Control_c, 0, 64, 59
1, 11400, Control_c, 0, 64, 0
1, 11549, Control_c, 0, 64, 38
1, 11564, Control_c, 0, 64, 52
1, 11578, Control_c, 0, 64, 58
1, 11593, Control_c, 0, 64, 60
1, 11608, Control_c, 0, 64, 62
1, 11623, Control_c, 0, 64, 64
1, 11638, Control_c, 0, 64, 66
1, 11652, Control_c, 0, 64, 68
1, 11667, Control_c, 0, 64, 71
1, 11682, Control_c, 0, 64, 75
1, 11697, Control_c, 0, 64, 80
1, 11711, Control_c, 0, 64, 83
1, 11718, Note_off_c, 0, 60, 37
1, 11726, Control_c, 0, 64, 86
1, 11741, Control_c, 0, 64, 89
1, 11756, Control_c, 0, 64, 93
1, 11771, Control_c, 0, 64, 97
1, 11786, Control_c, 0, 64, 102
1, 11788, Note_off_c, 0, 56, 40
1, 11808, Control_c, 0, 64, 106
1, 11823, Control_c, 0, 64, 111
1, 11838, Control_c, 0, 64, 114
1, 11853, Note_off_c, 0, 66, 47
1, 11853, Control_c, 0, 64, 118
1, 11867, Control_c, 0, 64, 122
1, 11882, Control_c, 0, 64, 127
1, 12447, Control_c, 0, 64, 125
1, 12462, Note_off_c, 0, 72, 34
1, 12462, Control_c, 0, 64, 110
1, 12472, Note_on_c, 0, 71, 56
1, 12476, Control_c, 0, 64, 98
1, 12491, Control_c, 0, 64, 81
1, 12501, Note_on_c, 0, 55, 46
1, 12506, Control_c, 0, 64, 65
1, 12521, Control_c, 0, 64, 0
1, 12573, Control_c, 0, 64, 62
1, 12588, Control_c, 0, 64, 73
1, 12603, Control_c, 0, 64, 83
1, 12617, Control_c, 0, 64, 95
1, 12632, Control_c, 0, 64, 106
1, 12634, Note_off_c, 0, 55, 60
1, 12647, Control_c, 0, 64, 117
1, 12662, Control_c, 0, 64, 127
1, 12788, Note_on_c, 0, 72, 76
1, 12809, Control_c, 0, 64, 101
1, 12824, Control_c, 0, 64, 82
1, 12825, Note_on_c, 0, 56, 52
1, 12826, Note_off_c, 0, 71, 52
1, 12839, Control_c, 0, 64, 69
1, 12854, Control_c, 0, 64, 67
1, 12869, Control_c, 0, 64, 76
1, 12874, Note_off_c, 0, 72, 62
1, 12883, Control_c, 0, 64, 90
1, 12898, Control_c, 0, 64, 112
1, 12913, Control_c, 0, 64, 127
1, 12923, Note_off_c, 0, 44, 45
1, 12930, Note_off_c, 0, 56, 63
1, 12940, Note_off_c, 0, 51, 49
1, 13098, Note_on_c, 0, 72, 62
1, 13284, Note_on_c, 0, 75, 68
1, 13294, Note_off_c, 0, 72, 57
1, 13329, Note_on_c, 0, 65, 40
1, 13351, Control_c, 0, 64, 126
1, 13361, Note_on_c, 0, 60, 36
1, 13363, Note_on_c, 0, 49, 38
1, 13366, Control_c, 0, 64, 117
1, 13381, Control_c, 0, 64, 110
1, 13396, Control_c, 0, 64, 104
1, 13411, Control_c, 0, 64, 99
1, 13425, Control_c, 0, 64, 95
1, 13440, Control_c, 0, 64, 90
1, 13455, Control_c, 0, 64, 85
1, 13470, Control_c, 0, 64, 81
1, 13484, Control_c, 0, 64, 76
1, 13499, Control_c, 0, 64, 71
1, 13514, Control_c, 0, 64, 64
1, 13529, Control_c, 0, 64, 45
1, 13544, Control_c, 0, 64, 0
1, 13721, Control_c, 0, 64, 26
1, 13736, Control_c, 0, 64, 31
1, 13750, Control_c, 0, 64, 34
1, 13765, Control_c, 0, 64, 38
1, 13780, Control_c, 0, 64, 41
1, 13795, Control_c, 0, 64, 43
1, 13810, Control_c, 0, 64, 46
1, 13825, Control_c, 0, 64, 48
1, 13840, Control_c, 0, 64, 49
1, 13855, Control_c, 0, 64, 49
1, 13884, Control_c, 0, 64, 50
1, 13914, Control_c, 0, 64, 51
1, 13944, Control_c, 0, 64, 52
1, 14004, Control_c, 0, 64, 51
1, 14008, Note_on_c, 0, 73, 58
1, 14028, Note_off_c, 0, 75, 51
1, 14060, Note_on_c, 0, 58, 31
1, 14117, Note_off_c, 0, 60, 50
1, 14204, Control_c, 0, 64, 52
1, 14322, Control_c, 0, 64, 51
1, 14352, Control_c, 0, 64, 52
1, 14411, Control_c, 0, 64, 52
1, 14441, Control_c, 0, 64, 53
1, 14455, Control_c, 0, 64, 54
1, 14470, Control_c, 0, 64, 55
1, 14485, Control_c, 0, 64, 57
1, 14499, Control_c, 0, 64, 57
1, 14544, Control_c, 0, 64, 58
1, 14573, Control_c, 0, 64, 59
1, 14588, Control_c, 0, 64, 59
1, 14603, Control_c, 0, 64, 60
1, 14648, Control_c, 0, 64, 60
1, 14677, Control_c, 0, 64, 59
1, 14692, Control_c, 0, 64, 58
1, 14707, Control_c, 0, 64, 58
1, 14707, Note_on_c, 0, 72, 49
1, 14722, Control_c, 0, 64, 57
1, 14737, Control_c, 0, 64, 54
1, 14752, Control_c, 0, 64, 49
1, 14758, Note_on_c, 0, 56, 40
1, 14760, Note_off_c, 0, 73, 36
1, 14767, Control_c, 0, 64, 45
1, 14782, Control_c, 0, 64, 42
1, 14797, Control_c, 0, 64, 42
1, 14819, Control_c, 0, 64, 43
1, 14820, Note_off_c, 0, 58, 36
1, 14834, Control_c, 0, 64, 46
1, 14835, Note_off_c, 0, 49, 40
1, 14849, Control_c, 0, 64, 51
1, 14864, Control_c, 0, 64, 59
1, 14879, Control_c, 0, 64, 65
1, 14893, Control_c, 0, 64, 69
1, 14908, Control_c, 0, 64, 75
1, 14923, Control_c, 0, 64, 82
1, 14937, Control_c, 0, 64, 88
1, 14952, Control_c, 0, 64, 92
1, 14967, Control_c, 0, 64, 97
1, 14982, Control_c, 0, 64, 102
1, 14997, Control_c, 0, 64, 108
1, 15002, Note_off_c, 0, 72, 58
1, 15011, Control_c, 0, 64, 112
1, 15026, Control_c, 0, 64, 117
1, 15041, Control_c, 0, 64, 121
1, 15056, Control_c, 0, 64, 126
1, 15071, Control_c, 0, 64, 127
1, 15259, Note_off_c, 0, 65, 50
1, 15277, Note_on_c, 0, 70, 43
1, 15321, Note_off_c, 0, 70, 63
1, 15332, Note_on_c, 0, 72, 54
1, 15408, Note_on_c, 0, 70, 65
1, 15439, Note_off_c, 0, 72, 34
1, 15441, Control_c, 0, 64, 123
1, 15444, Note_on_c, 0, 65, 30
1, 15455, Control_c, 0, 64, 118
1, 15455, Note_on_c, 0, 61, 36
1, 15470, Control_c, 0, 64, 114
1, 15482, Note_on_c, 0, 54, 40
1, 15485, Control_c, 0, 64, 111
1, 15500, Control_c, 0, 64, 108
1, 15514, Note_off_c, 0, 56, 41
1, 15515, Control_c, 0, 64, 104
1, 15530, Control_c, 0, 64, 101
1, 15545, Control_c, 0, 64, 97
1, 15567, Control_c, 0, 64, 94
1, 15582, Control_c, 0, 64, 91
1, 15597, Control_c, 0, 64, 88
1, 15612, Control_c, 0, 64, 85
1, 15627, Control_c, 0, 64, 82
1, 15641, Control_c, 0, 64, 79
1, 15656, Control_c, 0, 64, 76
1, 15671, Control_c, 0, 64, 74
1, 15686, Control_c, 0, 64, 71
1, 15701, Control_c, 0, 64, 68
1, 15715, Control_c, 0, 64, 63
1, 15730, Control_c, 0, 64, 51
1, 15745, Control_c, 0, 64, 14
1, 15760, Control_c, 0, 64, 0
1, 15774, Control_c, 0, 64, 18
1, 15780, Note_off_c, 0, 70, 54
1, 15783, Note_on_c, 0, 69, 64
1, 15789, Control_c, 0, 64, 20
1, 15804, Control_c, 0, 64, 18
1, 15968, Control_c, 0, 64, 20
1, 15983, Control_c, 0, 64, 23
1, 15998, Control_c, 0, 64, 26
1, 16013, Control_c, 0, 64, 31
1, 16027, Control_c, 0, 64, 39
1, 16042, Control_c, 0, 64, 47
1, 16057, Control_c, 0, 64, 54
1, 16072, Control_c, 0, 64, 58
1, 16086, Control_c, 0, 64, 61
1, 16101, Control_c, 0, 64, 64
1, 16108, Note_on_c, 0, 70, 67
1, 16116, Control_c, 0, 64, 66
1, 16131, Control_c, 0, 64, 70
1, 16146, Control_c, 0, 64, 74
1, 16160, Control_c, 0, 64, 78
1, 16164, Note_off_c, 0, 69, 56
1, 16175, Control_c, 0, 64, 82
1, 16186, Note_off_c, 0, 61, 52
1, 16190, Control_c, 0, 64, 86
1, 16201, Note_off_c, 0, 65, 42
1, 16205, Control_c, 0, 64, 90
1, 16220, Note_off_c, 0, 54, 43
1, 16220, Control_c, 0, 64, 95
1, 16234, Control_c, 0, 64, 100
1, 16249, Control_c, 0, 64, 103
1, 16264, Control_c, 0, 64, 105
1, 16278, Control_c, 0, 64, 106
1, 16301, Control_c, 0, 64, 107
1, 16316, Control_c, 0, 64, 107
1, 16347, Control_c, 0, 64, 108
1, 16509, Control_c, 0, 64, 107
1, 16539, Control_c, 0, 64, 107
1, 16554, Control_c, 0, 64, 106
1, 16569, Control_c, 0, 64, 106
1, 16583, Control_c, 0, 64, 105
1, 16598, Control_c, 0, 64, 104
1, 16613, Control_c, 0, 64, 104
1, 16628, Control_c, 0, 64, 103
1, 16639, Note_on_c, 0, 73, 54
1, 16643, Control_c, 0, 64, 102
1, 16651, Note_off_c, 0, 70, 51
1, 16655, Note_on_c, 0, 64, 32
1, 16657, Control_c, 0, 64, 101
1, 16672, Control_c, 0, 64, 99
1, 16687, Note_on_c, 0, 58, 31
1, 16687, Control_c, 0, 64, 97
1, 16696, Note_on_c, 0, 55, 35
1, 16698, Note_on_c, 0, 48, 35
1, 16702, Control_c, 0, 64, 94
1, 16716, Control_c, 0, 64, 92
1, 16731, Control_c, 0, 64, 90
1, 16746, Control_c, 0, 64, 87
1, 16761, Control_c, 0, 64, 84
1, 16776, Control_c, 0, 64, 81
1, 16791, Control_c, 0, 64, 76
1, 16806, Control_c, 0, 64, 72
1, 16821, Control_c, 0, 64, 67
1, 16836, Control_c, 0, 64, 60
1, 16850, Control_c, 0, 64, 0
1, 17170, Control_c, 0, 64, 32
1, 17184, Control_c, 0, 64, 55
1, 17199, Control_c, 0, 64, 61
1, 17214, Control_c, 0, 64, 63
1, 17229, Control_c, 0, 64, 65
1, 17244, Control_c, 0, 64, 67
1, 17259, Control_c, 0, 64, 69
1, 17273, Control_c, 0, 64, 74
1, 17288, Control_c, 0, 64, 78
1, 17303, Control_c, 0, 64, 81
1, 17318, Control_c, 0, 64, 82
1, 17332, Control_c, 0, 64, 83
1, 17347, Control_c, 0, 64, 84
1, 17362, Control_c, 0, 64, 85
1, 17377, Control_c, 0, 64, 86
1, 17392, Control_c, 0, 64, 88
1, 17406, Control_c, 0, 64, 89
1, 17421, Control_c, 0, 64, 90
1, 17436, Control_c, 0, 64, 92
1, 17441, Note_off_c, 0, 73, 28
1, 17451, Control_c, 0, 64, 93
1, 17466, Control_c, 0, 64, 94
1, 17480, Control_c, 0, 64, 95
1, 17495, Control_c, 0, 64, 97
1, 17510, Control_c, 0, 64, 99
1, 17524, Control_c, 0, 64, 101
1, 17539, Control_c, 0, 64, 103
1, 17546, Note_on_c, 0, 72, 50
1, 17554, Control_c, 0, 64, 106
1, 17569, Control_c, 0, 64, 108
1, 17584, Control_c, 0, 64, 111
1, 17596, Note_off_c, 0, 58, 41
1, 17599, Control_c, 0, 64, 114
1, 17614, Control_c, 0, 64, 116
1, 17629, Control_c, 0, 64, 118
1, 17643, Control_c, 0, 64, 120
1, 17645, Note_off_c, 0, 55, 42
1, 17658, Control_c, 0, 64, 123
1, 17673, Control_c, 0, 64, 126
1, 17682, Note_off_c, 0, 64, 52
1, 17688, Control_c, 0, 64, 127
1, 17720, Note_off_c, 0, 48, 43
1, 17782, Note_off_c, 0, 72, 32
1, 18206, Note_on_c, 0, 72, 43
1, 18215, Control_c, 0, 64, 127
1, 18220, Note_on_c, 0, 70, 41
1, 18226, Note_on_c, 0, 63, 26
1, 18229, Control_c, 0, 64, 121
1, 18244, Control_c, 0, 64, 117
1, 18246, Note_on_c, 0, 66, 33
1, 18259, Control_c, 0, 64, 113
1, 18260, Note_on_c, 0, 53, 33
1, 18262, Note_on_c, 0, 41, 32
1, 18273, Control_c, 0, 64, 109
1, 18288, Control_c, 0, 64, 105
1, 18303, Control_c, 0, 64, 100
1, 18318, Control_c, 0, 64, 95
1, 18333, Control_c, 0, 64, 90
1, 18347, Control_c, 0, 64, 84
1, 18362, Control_c, 0, 64, 76
1, 18377, Control_c, 0, 64, 66
1, 18392, Control_c, 0, 64, 0
1, 18511, Control_c, 0, 64, 53
1, 18526, Control_c, 0, 64, 65
1, 18541, Control_c, 0, 64, 70
1, 18562, Control_c, 0, 64, 74
1, 18577, Control_c, 0, 64, 78
1, 18592, Control_c, 0, 64, 82
1, 18607, Control_c, 0, 64, 86
1, 18622, Control_c, 0, 64, 91
1, 18636, Control_c, 0, 64, 96
1, 18651, Control_c, 0, 64, 100
1, 18666, Control_c, 0, 64, 105
1, 18681, Control_c, 0, 64, 109
1, 18696, Control_c, 0, 64, 113
1, 18711, Control_c, 0, 64, 118
1, 18726, Control_c, 0, 64, 122
1, 18729, Note_off_c, 0, 70, 36
1, 18741, Control_c, 0, 64, 127
1, 18862, Note_off_c, 0, 41, 47
1, 18915, Note_off_c, 0, 53, 42
1, 18951, Note_on_c, 0, 69, 45
1, 19687, Note_on_c, 0, 85, 65
1, 19779, Note_on_c, 0, 78, 81
1, 19815, Note_off_c, 0, 85, 59
1, 19907, Note_off_c, 0, 63, 41
1, 20164, Note_off_c, 0, 78, 57
1, 20334, Note_on_c, 0, 62, 33
1, 20621, Note_on_c, 0, 77, 37
1, 20727, Note_off_c, 0, 77, 51
1, 20803, Note_off_c, 0, 72, 57
1, 20862, Note_off_c, 0, 62, 38
1, 20950, Note_off_c, 0, 69, 41
1, 20997, Note_off_c, 0, 66, 43
1, 21364, Note_on_c, 0, 73, 76
1, 21383, Note_on_c, 0, 58, 58
1, 21386, Control_c, 0, 64, 116
1, 21395, Note_on_c, 0, 46, 59
1, 21396, Note_on_c, 0, 53, 56
1, 21398, Note_on_c, 0, 61, 52
1, 21398, Note_on_c, 0, 66, 45
1, 21401, Control_c, 0, 64, 98
1, 21416, Control_c, 0, 64, 81
1, 21431, Control_c, 0, 64, 60
1, 21445, Control_c, 0, 64, 0
1, 21485, Note_off_c, 0, 66, 54
1, 21504, Control_c, 0, 64, 59
1, 21519, Control_c, 0, 64, 71
1, 21534, Control_c, 0, 64, 82
1, 21557, Control_c, 0, 64, 94
1, 21571, Control_c, 0, 64, 100
1, 21575, Note_off_c, 0, 58, 58
1, 21586, Control_c, 0, 64, 104
1, 21601, Control_c, 0, 64, 108
1, 21616, Control_c, 0, 64, 118
1, 21631, Control_c, 0, 64, 127
1, 21638, Note_off_c, 0, 53, 63
1, 21686, Note_off_c, 0, 46, 60
1, 21735, Note_off_c, 0, 61, 53
1, 21833, Note_off_c, 0, 73, 28
1, 21965, Note_on_c, 0, 65, 51
1, 22020, Note_off_c, 0, 65, 64
1, 22373, Note_on_c, 0, 97, 64
1, 22376, Note_on_c, 0, 85, 53
1, 22397, Note_on_c, 0, 22, 50
1, 22397, Note_on_c, 0, 94, 59
1, 22401, Note_on_c, 0, 34, 40
1, 22405, Note_on_c, 0, 29, 38
1, 22480, Note_off_c, 0, 97, 63
1, 22490, Note_off_c, 0, 22, 59
1, 22495, Note_off_c, 0, 85, 55
1, 22496, Note_off_c, 0, 29, 52
1, 22502, Note_off_c, 0, 34, 59
1, 22522, Note_off_c, 0, 94, 58
1, 23062, Note_on_c, 0, 72, 72
1, 23081, Note_on_c, 0, 57, 48
1, 23081, Note_on_c, 0, 69, 62
1, 23262, Note_off_c, 0, 69, 59
1, 23297, Note_off_c, 0, 72, 58
1, 23354, Note_on_c, 0, 73, 81
1, 23367, Note_on_c, 0, 70, 76
1, 23381, Note_on_c, 0, 58, 59
1, 23385, Note_off_c, 0, 57, 56
1, 23479, Note_off_c, 0, 58, 57
1, 23488, Note_off_c, 0, 73, 60
1, 23489, Note_off_c, 0, 70, 60
1, 23813, Note_on_c, 0, 77, 78
1, 23848, Control_c, 0, 64, 120
1, 23852, Note_on_c, 0, 66, 43
1, 23859, Note_on_c, 0, 58, 44
1, 23860, Note_on_c, 0, 51, 45
1, 23863, Control_c, 0, 64, 108
1, 23865, Note_on_c, 0, 61, 46
1, 23868, Note_on_c, 0, 73, 36
1, 23878, Control_c, 0, 64, 96
1, 23892, Control_c, 0, 64, 85
1, 23907, Control_c, 0, 64, 72
1, 23922, Control_c, 0, 64, 0
1, 24026, Control_c, 0, 64, 48
1, 24040, Control_c, 0, 64, 65
1, 24055, Control_c, 0, 64, 72
1, 24070, Control_c, 0, 64, 80
1, 24085, Control_c, 0, 64, 85
1, 24100, Control_c, 0, 64, 89
1, 24115, Control_c, 0, 64, 93
1, 24130, Control_c, 0, 64, 97
1, 24145, Control_c, 0, 64, 103
1, 24160, Control_c, 0, 64, 110
1, 24174, Control_c, 0, 64, 117
1, 24189, Control_c, 0, 64, 123
1, 24204, Control_c, 0, 64, 127
1, 24284, Note_off_c, 0, 77, 54
1, 24288, Note_off_c, 0, 61, 32
1, 24298, Note_off_c, 0, 73, 38
1, 24568, Note_on_c, 0, 75, 74
1, 24585, Note_on_c, 0, 72, 59
1, 24611, Note_on_c, 0, 60, 49
1, 24612, Control_c, 0, 64, 118
1, 24627, Control_c, 0, 64, 105
1, 24642, Control_c, 0, 64, 91
1, 24657, Control_c, 0, 64, 76
1, 24671, Control_c, 0, 64, 0
1, 24775, Control_c, 0, 64, 42
1, 24789, Control_c, 0, 64, 67
1, 24804, Control_c, 0, 64, 73
1, 24819, Control_c, 0, 64, 79
1, 24833, Control_c, 0, 64, 84
1, 24848, Control_c, 0, 64, 88
1, 24860, Note_off_c, 0, 72, 61
1, 24863, Control_c, 0, 64, 93
1, 24878, Control_c, 0, 64, 97
1, 24890, Note_off_c, 0, 58, 37
1, 24893, Control_c, 0, 64, 101
1, 24908, Control_c, 0, 64, 106
1, 24923, Control_c, 0, 64, 113
1, 24938, Control_c, 0, 64, 118
1, 24953, Control_c, 0, 64, 121
1, 24968, Control_c, 0, 64, 123
1, 24982, Control_c, 0, 64, 123
1, 24997, Control_c, 0, 64, 124
1, 25012, Control_c, 0, 64, 125
1, 25027, Control_c, 0, 64, 127
1, 25260, Note_off_c, 0, 75, 58
1, 25279, Control_c, 0, 64, 126
1, 25301, Note_on_c, 0, 72, 73
1, 25301, Control_c, 0, 64, 119
1, 25312, Note_on_c, 0, 69, 56
1, 25316, Control_c, 0, 64, 109
1, 25325, Note_on_c, 0, 57, 51
1, 25331, Control_c, 0, 64, 98
1, 25346, Control_c, 0, 64, 85
1, 25361, Control_c, 0, 64, 71
1, 25376, Control_c, 0, 64, 0
1, 25379, Note_off_c, 0, 60, 51
1, 25420, Control_c, 0, 64, 53
1, 25435, Control_c, 0, 64, 69
1, 25450, Control_c, 0, 64, 78
1, 25464, Control_c, 0, 64, 88
1, 25479, Control_c, 0, 64, 96
1, 25494, Control_c, 0, 64, 102
1, 25509, Control_c, 0, 64, 108
1, 25524, Control_c, 0, 64, 114
1, 25525, Note_off_c, 0, 57, 61
1, 25527, Note_off_c, 0, 51, 36
1, 25538, Control_c, 0, 64, 124
1, 25553, Control_c, 0, 64, 127
1, 25567, Note_off_c, 0, 66, 43
1, 25597, Note_off_c, 0, 72, 59
1, 25604, Note_off_c, 0, 69, 62
1, 26065, Control_c, 0, 64, 120
1, 26080, Note_on_c, 0, 73, 83
1, 26080, Control_c, 0, 64, 94
1, 26094, Control_c, 0, 64, 73
1, 26098, Note_on_c, 0, 46, 60
1, 26098, Note_on_c, 0, 53, 59
1, 26099, Note_on_c, 0, 58, 61
1, 26099, Note_on_c, 0, 66, 67
1, 26106, Note_on_c, 0, 61, 65
1, 26109, Control_c, 0, 64, 0
1, 26154, Control_c, 0, 64, 53
1, 26169, Control_c, 0, 64, 74
1, 26184, Control_c, 0, 64, 89
1, 26199, Control_c, 0, 64, 107
1, 26205, Note_off_c, 0, 58, 62
1, 26214, Control_c, 0, 64, 122
1, 26228, Control_c, 0, 64, 127
1, 26258, Note_off_c, 0, 53, 64
1, 26283, Note_off_c, 0, 66, 58
1, 26291, Note_off_c, 0, 46, 62
1, 26413, Note_off_c, 0, 73, 55
1, 26423, Note_off_c, 0, 61, 57
1, 26640, Note_on_c, 0, 65, 62
1, 26679, Note_off_c, 0, 65, 66
1, 26970, Note_on_c, 0, 97, 80
1, 26981, Note_on_c, 0, 85, 66
1, 26986, Note_on_c, 0, 22, 65
1, 26987, Note_on_c, 0, 94, 68
1, 26999, Note_on_c, 0, 34, 57
1, 27027, Note_on_c, 0, 29, 37
1, 27055, Note_off_c, 0, 22, 63
1, 27074, Note_off_c, 0, 29, 48
1, 27076, Note_off_c, 0, 97, 65
1, 27077, Note_off_c, 0, 85, 61
1, 27079, Note_off_c, 0, 34, 62
1, 27113, Note_off_c, 0, 94, 63
1, 27613, Note_on_c, 0, 72, 79
1, 27621, Note_on_c, 0, 57, 63
1, 27621, Note_on_c, 0, 69, 70
1, 27802, Note_off_c, 0, 69, 61
1, 27811, Note_off_c, 0, 72, 54
1, 27864, Note_off_c, 0, 57, 59
1, 27873, Note_on_c, 0, 73, 86
1, 27880, Note_on_c, 0, 58, 64
1, 27889, Note_on_c, 0, 70, 76
1, 27913, Note_off_c, 0, 58, 63
1, 28022, Control_c, 0, 64, 96
1, 28037, Control_c, 0, 64, 70
1, 28052, Control_c, 0, 64, 0
1, 28061, Note_on_c, 0, 51, 66
1, 28081, Control_c, 0, 64, 30
1, 28096, Control_c, 0, 64, 71
1, 28100, Note_off_c, 0, 73, 61
1, 28101, Note_off_c, 0, 70, 62
1, 28111, Control_c, 0, 64, 87
1, 28126, Control_c, 0, 64, 116
1, 28127, Note_on_c, 0, 54, 69
1, 28140, Control_c, 0, 64, 127
1, 28186, Note_on_c, 0, 58, 62
1, 28205, Note_off_c, 0, 51, 56
1, 28413, Note_on_c, 0, 80, 91
1, 28424, Note_on_c, 0, 73, 56
1, 28427, Note_on_c, 0, 66, 60
1, 28434, Note_on_c, 0, 77, 68
1, 28453, Note_on_c, 0, 65, 60
1, 28630, Note_off_c, 0, 77, 58
1, 28661, Note_off_c, 0, 65, 39
1, 28798, Note_off_c, 0, 73, 59
1, 28923, Note_off_c, 0, 80, 56
1, 29097, Note_on_c, 0, 78, 92
1, 29129, Note_on_c, 0, 75, 58
1, 29137, Note_on_c, 0, 63, 49
1, 29310, Note_off_c, 0, 63, 60
1, 29380, Note_off_c, 0, 75, 59
1, 29459, Note_off_c, 0, 78, 61
1, 29564, Note_off_c, 0, 66, 57
1, 29799, Note_on_c, 0, 77, 75
1, 29809, Control_c, 0, 64, 114
1, 29823, Control_c, 0, 64, 94
1, 29828, Note_on_c, 0, 61, 46
1, 29828, Note_on_c, 0, 73, 50
1, 29838, Control_c, 0, 64, 78
1, 29853, Control_c, 0, 64, 62
1, 29868, Control_c, 0, 64, 0
1, 29898, Control_c, 0, 64, 62
1, 29913, Control_c, 0, 64, 74
1, 29928, Control_c, 0, 64, 83
1, 29943, Control_c, 0, 64, 92
1, 29958, Control_c, 0, 64, 100
1, 29972, Control_c, 0, 64, 108
1, 29987, Control_c, 0, 64, 117
1, 30002, Control_c, 0, 64, 127
1, 30023, Note_off_c, 0, 61, 54
1, 30033, Note_off_c, 0, 54, 61
1, 30142, Note_off_c, 0, 73, 35
1, 30207, Note_off_c, 0, 77, 29
1, 30250, Note_off_c, 0, 58, 16
1, 30348, Note_on_c, 0, 75, 34
1, 30379, Note_off_c, 0, 75, 61
1, 30393, Note_on_c, 0, 77, 60
1, 30471, Note_on_c, 0, 75, 64
1, 30503, Note_on_c, 0, 72, 42
1, 30517, Note_off_c, 0, 77, 36
1, 30521, Note_on_c, 0, 63, 44
1, 30556, Note_on_c, 0, 56, 34
1, 30587, Control_c, 0, 64, 121
1, 30602, Control_c, 0, 64, 115
1, 30616, Control_c, 0, 64, 109
1, 30631, Control_c, 0, 64, 104
1, 30646, Control_c, 0, 64, 98
1, 30661, Control_c, 0, 64, 91
1, 30676, Control_c, 0, 64, 83
1, 30691, Control_c, 0, 64, 75
1, 30706, Control_c, 0, 64, 67
1, 30721, Control_c, 0, 64, 28
1, 30736, Control_c, 0, 64, 0
1, 30810, Control_c, 0, 64, 23
1, 30825, Control_c, 0, 64, 59
1, 30840, Control_c, 0, 64, 65
1, 30855, Control_c, 0, 64, 67
1, 30870, Control_c, 0, 64, 70
1, 30884, Control_c, 0, 64, 73
1, 30899, Control_c, 0, 64, 78
1, 30906, Note_on_c, 0, 71, 54
1, 30907, Note_off_c, 0, 72, 51
1, 30914, Control_c, 0, 64, 83
1, 30923, Note_off_c, 0, 75, 55
1, 30929, Control_c, 0, 64, 87
1, 30944, Control_c, 0, 64, 91
1, 30958, Control_c, 0, 64, 95
1, 30973, Control_c, 0, 64, 98
1, 30988, Control_c, 0, 64, 100
1, 31003, Control_c, 0, 64, 102
1, 31018, Control_c, 0, 64, 103
1, 31032, Control_c, 0, 64, 104
1, 31047, Control_c, 0, 64, 105
1, 31055, Note_off_c, 0, 71, 55
1, 31075, Note_on_c, 0, 77, 66
1, 31076, Control_c, 0, 64, 105
1, 31154, Note_off_c, 0, 63, 38
1, 31325, Note_off_c, 0, 77, 26
1, 31395, Control_c, 0, 64, 105
1, 31402, Note_on_c, 0, 78, 52
1, 31424, Control_c, 0, 64, 104
1, 31427, Note_off_c, 0, 56, 33
1, 31433, Note_on_c, 0, 70, 37
1, 31439, Control_c, 0, 64, 102
1, 31442, Note_on_c, 0, 66, 38
1, 31454, Control_c, 0, 64, 100
1, 31461, Note_on_c, 0, 63, 34
1, 31469, Control_c, 0, 64, 97
1, 31471, Note_on_c, 0, 51, 35
1, 31484, Control_c, 0, 64, 92
1, 31499, Control_c, 0, 64, 86
1, 31514, Control_c, 0, 64, 79
1, 31529, Control_c, 0, 64, 69
1, 31544, Control_c, 0, 64, 41
1, 31559, Control_c, 0, 64, 0
1, 31678, Control_c, 0, 64, 58
1, 31679, Note_off_c, 0, 66, 56
1, 31693, Control_c, 0, 64, 66
1, 31697, Note_off_c, 0, 78, 48
1, 31707, Control_c, 0, 64, 70
1, 31722, Control_c, 0, 64, 74
1, 31737, Control_c, 0, 64, 79
1, 31752, Control_c, 0, 64, 86
1, 31767, Control_c, 0, 64, 93
1, 31779, Note_off_c, 0, 70, 55
1, 31782, Control_c, 0, 64, 102
1, 31797, Control_c, 0, 64, 113
1, 31812, Note_off_c, 0, 63, 42
1, 31812, Control_c, 0, 64, 125
1, 31826, Control_c, 0, 64, 127
1, 31874, Note_off_c, 0, 51, 40
1, 32086, Control_c, 0, 64, 120
1, 32101, Control_c, 0, 64, 114
1, 32115, Control_c, 0, 64, 107
1, 32130, Control_c, 0, 64, 101
1, 32145, Control_c, 0, 64, 96
1, 32160, Control_c, 0, 64, 90
1, 32174, Control_c, 0, 64, 85
1, 32189, Control_c, 0, 64, 80
1, 32204, Control_c, 0, 64, 74
1, 32219, Control_c, 0, 64, 69
1, 32233, Control_c, 0, 64, 62
1, 32248, Control_c, 0, 64, 27
1, 32263, Control_c, 0, 64, 0
1, 32308, Note_on_c, 0, 73, 58
1, 32347, Note_on_c, 0, 54, 38
1, 32347, Note_on_c, 0, 61, 38
1, 32378, Note_off_c, 0, 73, 62
1, 32401, Note_on_c, 0, 72, 51
1, 32441, Poly_aftertouch_c, 0, 69, 127
1, 32458, Note_on_c, 0, 73, 56
1, 32481, Note_off_c, 0, 72, 44
1, 32559, Control_c, 0, 64, 33
1, 32574, Control_c, 0, 64, 46
1, 32589, Control_c, 0, 64, 54
1, 32603, Control_c, 0, 64, 58
1, 32618, Control_c, 0, 64, 61
1, 32633, Control_c, 0, 64, 64
1, 32647, Control_c, 0, 64, 66
1, 32662, Control_c, 0, 64, 69
1, 32677, Control_c, 0, 64, 72
1, 32692, Control_c, 0, 64, 75
1, 32707, Control_c, 0, 64, 78
1, 32721, Control_c, 0, 64, 81
1, 32736, Control_c, 0, 64, 84
1, 32751, Control_c, 0, 64, 87
1, 32766, Control_c, 0, 64, 90
1, 32789, Control_c, 0, 64, 92
1, 32803, Control_c, 0, 64, 94
1, 32818, Control_c, 0, 64, 96
1, 32833, Control_c, 0, 64, 98
1, 32848, Control_c, 0, 64, 99
1, 32858, Poly_aftertouch_c, 0, 69, 0
1, 32862, Control_c, 0, 64, 100
1, 32877, Control_c, 0, 64, 100
1, 32888, Note_on_c, 0, 75, 60
1, 32892, Control_c, 0, 64, 101
1, 32902, Note_off_c, 0, 73, 57
1, 32942, Note_off_c, 0, 61, 39
1, 32951, Control_c, 0, 64, 101
1, 33105, Note_off_c, 0, 75, 25
1, 33115, Control_c, 0, 64, 101
1, 33189, Control_c, 0, 64, 100
1, 33200, Note_off_c, 0, 54, 36
1, 33204, Control_c, 0, 64, 99
1, 33211, Note_on_c, 0, 77, 51
1, 33219, Control_c, 0, 64, 98
1, 33234, Control_c, 0, 64, 95
1, 33239, Note_on_c, 0, 68, 36
1, 33249, Control_c, 0, 64, 92
1, 33261, Note_on_c, 0, 49, 34
1, 33261, Note_on_c, 0, 61, 31
1, 33263, Control_c, 0, 64, 87
1, 33278, Control_c, 0, 64, 81
1, 33293, Control_c, 0, 64, 74
1, 33308, Control_c, 0, 64, 65
1, 33323, Control_c, 0, 64, 0
1, 33441, Control_c, 0, 64, 43
1, 33456, Control_c, 0, 64, 64
1, 33470, Control_c, 0, 64, 69
1, 33485, Control_c, 0, 64, 73
1, 33500, Control_c, 0, 64, 77
1, 33504, Note_off_c, 0, 77, 56
1, 33515, Control_c, 0, 64, 81
1, 33538, Control_c, 0, 64, 86
1, 33544, Note_off_c, 0, 68, 48
1, 33552, Control_c, 0, 64, 90
1, 33567, Control_c, 0, 64, 95
1, 33582, Control_c, 0, 64, 101
1, 33597, Control_c, 0, 64, 108
1, 33611, Control_c, 0, 64, 117
1, 33626, Control_c, 0, 64, 125
1, 33636, Note_off_c, 0, 49, 39
1, 33641, Control_c, 0, 64, 127
1, 33722, Note_off_c, 0, 61, 35
1, 33848, Control_c, 0, 64, 122
1, 33863, Control_c, 0, 64, 118
1, 33877, Control_c, 0, 64, 115
1, 33893, Control_c, 0, 64, 111
1, 33908, Control_c, 0, 64, 108
1, 33923, Control_c, 0, 64, 105
1, 33938, Control_c, 0, 64, 102
1, 33953, Control_c, 0, 64, 98
1, 33967, Control_c, 0, 64, 94
1, 33982, Control_c, 0, 64, 91
1, 33997, Control_c, 0, 64, 87
1, 34012, Control_c, 0, 64, 82
1, 34027, Control_c, 0, 64, 78
1, 34041, Control_c, 0, 64, 73
1, 34056, Control_c, 0, 64, 66
1, 34071, Control_c, 0, 64, 51
1, 34086, Control_c, 0, 64, 0
1, 34363, Note_on_c, 0, 77, 65
1, 34387, Note_on_c, 0, 67, 39
1, 34423, Note_on_c, 0, 51, 27
1, 34433, Note_on_c, 0, 61, 23
1, 34553, Control_c, 0, 64, 20
1, 34568, Control_c, 0, 64, 32
1, 34582, Control_c, 0, 64, 39
1, 34597, Control_c, 0, 64, 46
1, 34612, Control_c, 0, 64, 51
1, 34626, Control_c, 0, 64, 54
1, 34641, Control_c, 0, 64, 57
1, 34656, Control_c, 0, 64, 60
1, 34671, Control_c, 0, 64, 62
1, 34686, Control_c, 0, 64, 64
1, 34702, Control_c, 0, 64, 65
1, 34717, Control_c, 0, 64, 66
1, 34731, Control_c, 0, 64, 67
1, 34746, Control_c, 0, 64, 69
1, 34761, Control_c, 0, 64, 71
1, 34776, Control_c, 0, 64, 75
1, 34791, Control_c, 0, 64, 78
1, 34805, Control_c, 0, 64, 81
1, 34820, Control_c, 0, 64, 84
1, 34835, Control_c, 0, 64, 86
1, 34849, Control_c, 0, 64, 88
1, 34864, Control_c, 0, 64, 91
1, 34879, Control_c, 0, 64, 95
1, 34894, Control_c, 0, 64, 98
1, 34909, Control_c, 0, 64, 101
1, 34924, Control_c, 0, 64, 103
1, 34939, Control_c, 0, 64, 105
1, 34954, Control_c, 0, 64, 107
1, 34968, Control_c, 0, 64, 108
1, 34983, Control_c, 0, 64, 109
1, 34998, Control_c, 0, 64, 110
1, 35020, Control_c, 0, 64, 111
1, 35035, Control_c, 0, 64, 111
1, 35160, Note_on_c, 0, 75, 63
1, 35168, Control_c, 0, 64, 111
1, 35183, Control_c, 0, 64, 110
1, 35186, Note_off_c, 0, 77, 35
1, 35198, Control_c, 0, 64, 109
1, 35200, Note_on_c, 0, 60, 43
1, 35213, Control_c, 0, 64, 107
1, 35228, Control_c, 0, 64, 106
1, 35243, Control_c, 0, 64, 105
1, 35257, Control_c, 0, 64, 103
1, 35272, Control_c, 0, 64, 102
1, 35283, Note_off_c, 0, 61, 41
1, 35287, Control_c, 0, 64, 101
1, 35302, Control_c, 0, 64, 99
1, 35317, Control_c, 0, 64, 98
1, 35332, Control_c, 0, 64, 97
1, 35347, Control_c, 0, 64, 96
1, 35362, Control_c, 0, 64, 94
1, 35376, Control_c, 0, 64, 93
1, 35391, Control_c, 0, 64, 92
1, 35406, Control_c, 0, 64, 90
1, 35421, Control_c, 0, 64, 86
1, 35436, Control_c, 0, 64, 81
1, 35450, Control_c, 0, 64, 71
1, 35465, Control_c, 0, 64, 49
1, 35480, Control_c, 0, 64, 0
1, 35517, Note_on_c, 0, 73, 70
1, 35528, Note_on_c, 0, 58, 52
1, 35530, Note_off_c, 0, 75, 56
1, 35541, Control_c, 0, 64, 48
1, 35544, Note_off_c, 0, 60, 55
1, 35555, Control_c, 0, 64, 67
1, 35570, Control_c, 0, 64, 75
1, 35585, Control_c, 0, 64, 83
1, 35600, Control_c, 0, 64, 90
1, 35604, Note_off_c, 0, 51, 41
1, 35612, Note_off_c, 0, 58, 55
1, 35615, Control_c, 0, 64, 94
1, 35629, Control_c, 0, 64, 98
1, 35639, Note_off_c, 0, 73, 56
1, 35644, Control_c, 0, 64, 103
1, 35659, Control_c, 0, 64, 107
1, 35673, Control_c, 0, 64, 112
1, 35688, Control_c, 0, 64, 116
1, 35703, Control_c, 0, 64, 120
1, 35718, Control_c, 0, 64, 122
1, 35733, Control_c, 0, 64, 123
1, 35762, Control_c, 0, 64, 124
1, 35796, Note_on_c, 0, 73, 53
1, 35803, Note_off_c, 0, 67, 56
1, 35844, Control_c, 0, 64, 123
1, 35859, Note_off_c, 0, 73, 63
1, 35875, Note_on_c, 0, 75, 60
1, 35888, Control_c, 0, 64, 122
1, 35903, Control_c, 0, 64, 121
1, 35918, Control_c, 0, 64, 119
1, 35931, Note_on_c, 0, 73, 62
1, 35933, Control_c, 0, 64, 116
1, 35941, Note_off_c, 0, 75, 64
1, 35943, Note_on_c, 0, 67, 49
1, 35947, Control_c, 0, 64, 113
1, 35961, Note_on_c, 0, 52, 41
1, 35962, Control_c, 0, 64, 111
1, 35973, Note_on_c, 0, 58, 40
1, 35977, Control_c, 0, 64, 108
1, 35991, Control_c, 0, 64, 105
1, 36006, Control_c, 0, 64, 101
1, 36021, Control_c, 0, 64, 98
1, 36036, Control_c, 0, 64, 93
1, 36051, Control_c, 0, 64, 89
1, 36065, Control_c, 0, 64, 85
1, 36080, Control_c, 0, 64, 81
1, 36095, Control_c, 0, 64, 76
1, 36110, Control_c, 0, 64, 72
1, 36125, Control_c, 0, 64, 65
1, 36140, Control_c, 0, 64, 55
1, 36154, Control_c, 0, 64, 18
1, 36169, Control_c, 0, 64, 0
1, 36499, Note_on_c, 0, 72, 63
1, 36512, Note_off_c, 0, 73, 52
1, 36535, Note_on_c, 0, 60, 47
1, 36703, Note_on_c, 0, 70, 68
1, 36723, Note_on_c, 0, 61, 47
1, 36725, Note_off_c, 0, 72, 59
1, 36728, Note_off_c, 0, 67, 56
1, 36740, Control_c, 0, 64, 26
1, 36755, Control_c, 0, 64, 63
1, 36769, Control_c, 0, 64, 69
1, 36772, Note_off_c, 0, 60, 54
1, 36784, Control_c, 0, 64, 74
1, 36799, Control_c, 0, 64, 81
1, 36810, Note_off_c, 0, 58, 59
1, 36814, Control_c, 0, 64, 87
1, 36829, Control_c, 0, 64, 93
1, 36843, Control_c, 0, 64, 99
1, 36858, Control_c, 0, 64, 105
1, 36873, Control_c, 0, 64, 109
1, 36888, Control_c, 0, 64, 113
1, 36903, Control_c, 0, 64, 118
1, 36912, Note_off_c, 0, 52, 32
1, 36918, Control_c, 0, 64, 122
1, 36920, Note_off_c, 0, 61, 58
1, 36933, Control_c, 0, 64, 127
1, 37016, Note_off_c, 0, 70, 62
1, 37141, Control_c, 0, 64, 124
1, 37148, Note_on_c, 0, 73, 56
1, 37156, Control_c, 0, 64, 120
1, 37171, Control_c, 0, 64, 116
1, 37174, Note_on_c, 0, 64, 41
1, 37186, Control_c, 0, 64, 113
1, 37197, Note_on_c, 0, 55, 39
1, 37200, Control_c, 0, 64, 109
1, 37207, Note_on_c, 0, 53, 33
1, 37215, Control_c, 0, 64, 105
1, 37230, Control_c, 0, 64, 101
1, 37244, Control_c, 0, 64, 97
1, 37259, Control_c, 0, 64, 93
1, 37282, Control_c, 0, 64, 88
1, 37297, Control_c, 0, 64, 85
1, 37311, Control_c, 0, 64, 82
1, 37326, Control_c, 0, 64, 79
1, 37341, Control_c, 0, 64, 76
1, 37356, Control_c, 0, 64, 73
1, 37371, Control_c, 0, 64, 71
1, 37386, Control_c, 0, 64, 69
1, 37400, Control_c, 0, 64, 67
1, 37415, Control_c, 0, 64, 65
1, 37430, Control_c, 0, 64, 62
1, 37444, Control_c, 0, 64, 57
1, 37459, Control_c, 0, 64, 53
1, 37474, Control_c, 0, 64, 51
1, 37489, Control_c, 0, 64, 50
1, 37504, Control_c, 0, 64, 48
1, 37518, Control_c, 0, 64, 45
1, 37533, Control_c, 0, 64, 42
1, 37548, Control_c, 0, 64, 41
1, 37563, Control_c, 0, 64, 39
1, 37577, Control_c, 0, 64, 38
1, 37592, Control_c, 0, 64, 37
1, 37607, Control_c, 0, 64, 36
1, 37622, Control_c, 0, 64, 35
1, 37666, Control_c, 0, 64, 36
1, 37679, Note_on_c, 0, 56, 36
1, 37681, Control_c, 0, 64, 37
1, 37696, Control_c, 0, 64, 38
1, 37711, Control_c, 0, 64, 39
1, 37720, Note_off_c, 0, 55, 42
1, 37726, Control_c, 0, 64, 39
1, 37741, Control_c, 0, 64, 40
1, 37756, Control_c, 0, 64, 40
1, 37785, Control_c, 0, 64, 41
1, 37800, Control_c, 0, 64, 42
1, 37815, Control_c, 0, 64, 42
1, 37830, Control_c, 0, 64, 43
1, 37844, Control_c, 0, 64, 44
1, 37934, Control_c, 0, 64, 44
1, 37949, Control_c, 0, 64, 45
1, 37979, Control_c, 0, 64, 45
1, 38045, Control_c, 0, 64, 46
1, 38075, Control_c, 0, 64, 46
1, 38104, Control_c, 0, 64, 47
1, 38116, Note_on_c, 0, 72, 42
1, 38119, Control_c, 0, 64, 47
1, 38164, Note_off_c, 0, 73, 41
1, 38644, Note_on_c, 0, 57, 36
1, 38708, Note_off_c, 0, 56, 36
1, 39017, Control_c, 0, 64, 48
1, 39224, Control_c, 0, 64, 48
1, 39422, Note_on_c, 0, 63, 13
1, 39475, Note_off_c, 0, 64, 17
1, 39603, Control_c, 0, 64, 48
1, 39721, Control_c, 0, 64, 48
1, 39736, Control_c, 0, 64, 49
1, 39751, Control_c, 0, 64, 51
1, 39766, Control_c, 0, 64, 55
1, 39781, Control_c, 0, 64, 58
1, 39795, Control_c, 0, 64, 61
1, 39809, Control_c, 0, 64, 63
1, 39824, Control_c, 0, 64, 64
1, 39839, Control_c, 0, 64, 66
1, 39854, Control_c, 0, 64, 69
1, 39869, Control_c, 0, 64, 72
1, 39884, Control_c, 0, 64, 76
1, 39899, Control_c, 0, 64, 80
1, 39913, Control_c, 0, 64, 84
1, 39928, Control_c, 0, 64, 88
1, 39943, Control_c, 0, 64, 93
1, 39958, Control_c, 0, 64, 97
1, 39972, Control_c, 0, 64, 102
1, 39987, Control_c, 0, 64, 106
1, 40002, Control_c, 0, 64, 111
1, 40017, Control_c, 0, 64, 115
1, 40018, Note_off_c, 0, 72, 37
1, 40032, Control_c, 0, 64, 120
1, 40046, Control_c, 0, 64, 126
1, 40050, Note_off_c, 0, 53, 43
1, 40061, Control_c, 0, 64, 127
1, 40069, Note_off_c, 0, 63, 43
1, 40177, Note_off_c, 0, 57, 32
1, 40469, Control_c, 0, 64, 126
1, 40484, Control_c, 0, 64, 120
1, 40499, Control_c, 0, 64, 116
1, 40514, Control_c, 0, 64, 113
1, 40529, Control_c, 0, 64, 108
1, 40543, Control_c, 0, 64, 105
1, 40558, Control_c, 0, 64, 102
1, 40573, Control_c, 0, 64, 99
1, 40587, Control_c, 0, 64, 96
1, 40602, Control_c, 0, 64, 93
1, 40617, Control_c, 0, 64, 90
1, 40632, Control_c, 0, 64, 87
1, 40647, Control_c, 0, 64, 84
1, 40662, Control_c, 0, 64, 80
1, 40677, Control_c, 0, 64, 76
1, 40692, Control_c, 0, 64, 72
1, 40707, Control_c, 0, 64, 67
1, 40722, Control_c, 0, 64, 55
1, 40736, Control_c, 0, 64, 0
1, 40780, Note_on_c, 0, 72, 42
1, 40795, Note_on_c, 0, 51, 37
1, 40796, Note_on_c, 0, 57, 39
1, 40814, Note_on_c, 0, 67, 37
1, 40835, Note_off_c, 0, 72, 59
1, 40844, Note_on_c, 0, 74, 61
1, 40906, Note_off_c, 0, 74, 62
1, 40910, Note_on_c, 0, 72, 59
1, 41248, Control_c, 0, 64, 16
1, 41263, Control_c, 0, 64, 18
1, 41278, Control_c, 0, 64, 22
1, 41292, Control_c, 0, 64, 23
1, 41307, Control_c, 0, 64, 26
1, 41322, Control_c, 0, 64, 28
1, 41337, Control_c, 0, 64, 29
1, 41352, Control_c, 0, 64, 30
1, 41366, Control_c, 0, 64, 31
1, 41381, Control_c, 0, 64, 32
1, 41396, Control_c, 0, 64, 33
1, 41397, Note_off_c, 0, 67, 44
1, 41401, Note_on_c, 0, 66, 48
1, 41410, Control_c, 0, 64, 34
1, 41425, Control_c, 0, 64, 34
1, 41440, Control_c, 0, 64, 35
1, 41470, Control_c, 0, 64, 36
1, 41663, Control_c, 0, 64, 34
1, 41678, Control_c, 0, 64, 29
1, 41692, Control_c, 0, 64, 16
1, 41693, Note_on_c, 0, 50, 34
1, 41707, Control_c, 0, 64, 0
1, 41708, Note_off_c, 0, 51, 40
1, 41818, Control_c, 0, 64, 57
1, 41833, Control_c, 0, 64, 65
1, 41848, Control_c, 0, 64, 70
1, 41863, Control_c, 0, 64, 77
1, 41878, Control_c, 0, 64, 85
1, 41893, Control_c, 0, 64, 91
1, 41908, Control_c, 0, 64, 98
1, 41923, Control_c, 0, 64, 105
1, 41938, Control_c, 0, 64, 113
1, 41949, Note_off_c, 0, 72, 64
1, 41953, Control_c, 0, 64, 122
1, 41963, Note_off_c, 0, 57, 59
1, 41968, Control_c, 0, 64, 127
1, 42016, Note_off_c, 0, 50, 53
1, 42319, Note_on_c, 0, 71, 54
1, 42486, Note_on_c, 0, 38, 45
1, 42634, Note_on_c, 0, 72, 68
1, 42647, Note_off_c, 0, 71, 51
1, 42885, Note_off_c, 0, 38, 39
1, 43018, Note_on_c, 0, 75, 65
1, 43042, Note_off_c, 0, 72, 54
1, 43691, Note_on_c, 0, 74, 63
1, 43745, Note_off_c, 0, 75, 58
1, 44364, Note_on_c, 0, 72, 67
1, 44397, Note_off_c, 0, 74, 56
1, 44615, Note_off_c, 0, 66, 53
1, 44632, Note_off_c, 0, 72, 54
1, 45008, Note_on_c, 0, 72, 64
1, 45032, Note_on_c, 0, 67, 55
1, 45039, Note_on_c, 0, 57, 48
1, 45040, Note_on_c, 0, 51, 46
1, 45078, Note_off_c, 0, 72, 64
1, 45086, Note_on_c, 0, 74, 71
1, 45125, Control_c, 0, 64, 116
1, 45140, Control_c, 0, 64, 110
1, 45146, Note_on_c, 0, 72, 69
1, 45155, Control_c, 0, 64, 104
1, 45169, Note_off_c, 0, 74, 64
1, 45170, Control_c, 0, 64, 99
1, 45184, Control_c, 0, 64, 95
1, 45199, Control_c, 0, 64, 90
1, 45214, Control_c, 0, 64, 85
1, 45229, Control_c, 0, 64, 80
1, 45244, Control_c, 0, 64, 75
1, 45259, Control_c, 0, 64, 70
1, 45273, Control_c, 0, 64, 63
1, 45288, Control_c, 0, 64, 22
1, 45303, Control_c, 0, 64, 0
1, 45670, Note_off_c, 0, 67, 60
1, 45697, Note_on_c, 0, 66, 62
1, 45755, Control_c, 0, 64, 20
1, 45770, Control_c, 0, 64, 29
1, 45784, Control_c, 0, 64, 35
1, 45799, Control_c, 0, 64, 41
1, 45814, Control_c, 0, 64, 48
1, 45829, Control_c, 0, 64, 51
1, 45844, Control_c, 0, 64, 53
1, 45889, Control_c, 0, 64, 53
1, 45949, Control_c, 0, 64, 53
1, 45963, Control_c, 0, 64, 51
1, 45978, Control_c, 0, 64, 37
1, 45993, Control_c, 0, 64, 0
1, 45996, Note_on_c, 0, 50, 57
1, 46035, Note_off_c, 0, 72, 65
1, 46037, Note_off_c, 0, 51, 36
1, 46052, Control_c, 0, 64, 56
1, 46067, Control_c, 0, 64, 67
1, 46081, Control_c, 0, 64, 78
1, 46096, Control_c, 0, 64, 90
1, 46111, Control_c, 0, 64, 101
1, 46126, Control_c, 0, 64, 108
1, 46141, Control_c, 0, 64, 115
1, 46156, Control_c, 0, 64, 127
1, 46171, Note_off_c, 0, 57, 60
1, 46214, Note_off_c, 0, 50, 63
1, 46279, Note_on_c, 0, 71, 74
1, 46495, Note_on_c, 0, 72, 82
1, 46496, Note_off_c, 0, 71, 60
1, 46644, Note_on_c, 0, 26, 75
1, 46910, Note_on_c, 0, 75, 79
1, 46917, Note_off_c, 0, 72, 61
1, 46919, Note_off_c, 0, 26, 61
1, 47528, Note_on_c, 0, 74, 77
1, 47571, Note_off_c, 0, 75, 61
1, 48207, Note_on_c, 0, 72, 80
1, 48275, Note_off_c, 0, 74, 52
1, 48446, Note_off_c, 0, 66, 55
1, 48581, Note_off_c, 0, 72, 55
1, 48995, Note_on_c, 0, 70, 90
1, 49000, Note_on_c, 0, 65, 91
1, 49002, Control_c, 0, 64, 107
1, 49010, Note_on_c, 0, 61, 87
1, 49015, Note_on_c, 0, 49, 76
1, 49015, Note_on_c, 0, 58, 80
1, 49017, Control_c, 0, 64, 83
1, 49022, Note_on_c, 0, 53, 71
1, 49032, Control_c, 0, 64, 0
1, 49092, Control_c, 0, 64, 63
1, 49107, Control_c, 0, 64, 76
1, 49122, Control_c, 0, 64, 93
1, 49137, Control_c, 0, 64, 121
1, 49152, Control_c, 0, 64, 127
1, 49198, Note_off_c, 0, 65, 60
1, 49256, Note_off_c, 0, 70, 57
1, 49317, Note_on_c, 0, 73, 87
1, 49445, Note_off_c, 0, 73, 61
1, 49548, Note_on_c, 0, 77, 93
1, 49816, Note_on_c, 0, 82, 93
1, 49849, Note_off_c, 0, 61, 60
1, 49855, Note_off_c, 0, 49, 57
1, 49891, Note_off_c, 0, 53, 37
1, 49895, Note_off_c, 0, 58, 60
1, 50181, Note_off_c, 0, 82, 56
1, 50307, Note_on_c, 0, 85, 90
1, 50431, Note_off_c, 0, 85, 57
1, 50584, Note_on_c, 0, 85, 90
1, 50588, Control_c, 0, 64, 102
1, 50597, Note_on_c, 0, 66, 96
1, 50603, Control_c, 0, 64, 74
1, 50609, Note_on_c, 0, 53, 70
1, 50613, Note_on_c, 0, 61, 68
1, 50618, Control_c, 0, 64, 0
1, 50618, Note_on_c, 0, 58, 62
1, 50637, Note_off_c, 0, 77, 59
1, 50662, Control_c, 0, 64, 60
1, 50678, Control_c, 0, 64, 73
1, 50693, Control_c, 0, 64, 88
1, 50708, Control_c, 0, 64, 105
1, 50723, Control_c, 0, 64, 115
1, 50744, Control_c, 0, 64, 122
1, 50759, Control_c, 0, 64, 127
1, 51025, Note_off_c, 0, 66, 56
1, 51092, Note_on_c, 0, 82, 64
1, 51099, Note_off_c, 0, 53, 30
1, 51118, Note_off_c, 0, 85, 54
1, 51187, Note_off_c, 0, 58, 14
1, 51250, Note_off_c, 0, 61, 25
1, 51325, Note_off_c, 0, 82, 37
1, 51334, Note_on_c, 0, 67, 89
1, 51369, Note_on_c, 0, 61, 15
1, 51444, Poly_aftertouch_c, 0, 58, 127
1, 51475, Note_off_c, 0, 67, 58
1, 51570, Note_on_c, 0, 82, 91
1, 51570, Note_off_c, 0, 61, 38
1, 51730, Control_c, 0, 64, 112
1, 51734, Note_off_c, 0, 82, 58
1, 51745, Control_c, 0, 64, 85
1, 51746, Note_on_c, 0, 84, 94
1, 51760, Poly_aftertouch_c, 0, 58, 0
1, 51760, Control_c, 0, 64, 63
1, 51775, Control_c, 0, 64, 0
1, 51805, Control_c, 0, 64, 66
1, 51820, Control_c, 0, 64, 84
1, 51825, Note_on_c, 0, 52, 69
1, 51835, Control_c, 0, 64, 111
1, 51850, Control_c, 0, 64, 127
1, 51882, Note_on_c, 0, 58, 72
1, 51895, Note_off_c, 0, 52, 66
1, 51939, Note_on_c, 0, 61, 64
1, 51976, Note_on_c, 0, 85, 93
1, 51981, Note_off_c, 0, 84, 65
1, 51994, Note_on_c, 0, 68, 93
1, 52235, Note_off_c, 0, 68, 59
1, 52435, Note_on_c, 0, 82, 81
1, 52460, Note_off_c, 0, 85, 58
1, 52587, Note_off_c, 0, 82, 58
1, 52669, Note_on_c, 0, 69, 91
1, 52857, Note_off_c, 0, 69, 62
1, 52899, Note_on_c, 0, 82, 89
1, 52905, Note_off_c, 0, 61, 59
1, 52907, Note_off_c, 0, 58, 63
1, 53131, Note_on_c, 0, 84, 89
1, 53133, Note_off_c, 0, 82, 61
1, 53472, Note_off_c, 0, 84, 45
1, 53513, Note_on_c, 0, 85, 82
1, 53537, Note_on_c, 0, 73, 60
1, 53549, Note_on_c, 0, 79, 59
1, 53570, Control_c, 0, 64, 120
1, 53576, Note_on_c, 0, 70, 49
1, 53579, Note_on_c, 0, 63, 48
1, 53584, Control_c, 0, 64, 101
1, 53599, Control_c, 0, 64, 85
1, 53614, Control_c, 0, 64, 67
1, 53629, Control_c, 0, 64, 0
1, 53703, Control_c, 0, 64, 49
1, 53718, Control_c, 0, 64, 65
1, 53733, Control_c, 0, 64, 72
1, 53755, Control_c, 0, 64, 80
1, 53770, Control_c, 0, 64, 88
1, 53785, Control_c, 0, 64, 95
1, 53799, Control_c, 0, 64, 102
1, 53814, Control_c, 0, 64, 109
1, 53829, Control_c, 0, 64, 121
1, 53844, Control_c, 0, 64, 127
1, 53906, Note_off_c, 0, 79, 33
1, 53931, Note_on_c, 0, 82, 62
1, 53988, Note_off_c, 0, 70, 52
1, 54097, Note_off_c, 0, 73, 36
1, 54115, Note_off_c, 0, 63, 31
1, 54180, Note_on_c, 0, 79, 67
1, 54219, Note_off_c, 0, 82, 36
1, 54413, Note_off_c, 0, 85, 31
1, 54535, Note_on_c, 0, 73, 57
1, 54547, Note_off_c, 0, 79, 55
1, 54965, Note_off_c, 0, 73, 35
1, 55068, Note_on_c, 0, 70, 46
1, 55185, Note_off_c, 0, 70, 49
1, 55352, Note_on_c, 0, 75, 50
1, 55411, Note_off_c, 0, 75, 63
1, 55430, Note_on_c, 0, 77, 53
1, 55491, Note_on_c, 0, 75, 49
1, 55495, Note_on_c, 0, 70, 53
1, 55536, Note_off_c, 0, 77, 37
1, 55543, Note_on_c, 0, 60, 35
1, 55546, Note_on_c, 0, 54, 33
1, 55565, Control_c, 0, 64, 117
1, 55580, Control_c, 0, 64, 111
1, 55594, Control_c, 0, 64, 105
1, 55609, Control_c, 0, 64, 100
1, 55624, Control_c, 0, 64, 96
1, 55639, Control_c, 0, 64, 91
1, 55654, Control_c, 0, 64, 87
1, 55668, Control_c, 0, 64, 83
1, 55683, Control_c, 0, 64, 78
1, 55698, Control_c, 0, 64, 73
1, 55713, Control_c, 0, 64, 65
1, 55727, Control_c, 0, 64, 33
1, 55742, Control_c, 0, 64, 0
1, 56119, Note_on_c, 0, 69, 52
1, 56126, Note_off_c, 0, 70, 49
1, 56135, Control_c, 0, 64, 18
1, 56150, Control_c, 0, 64, 25
1, 56165, Control_c, 0, 64, 27
1, 56180, Control_c, 0, 64, 28
1, 56194, Control_c, 0, 64, 29
1, 56209, Control_c, 0, 64, 31
1, 56224, Control_c, 0, 64, 33
1, 56239, Control_c, 0, 64, 34
1, 56284, Control_c, 0, 64, 35
1, 56299, Control_c, 0, 64, 36
1, 56329, Control_c, 0, 64, 34
1, 56343, Control_c, 0, 64, 30
1, 56358, Control_c, 0, 64, 14
1, 56373, Control_c, 0, 64, 0
1, 56435, Note_on_c, 0, 53, 40
1, 56451, Note_off_c, 0, 54, 40
1, 56500, Note_off_c, 0, 75, 60
1, 56506, Control_c, 0, 64, 43
1, 56521, Control_c, 0, 64, 65
1, 56535, Control_c, 0, 64, 71
1, 56550, Control_c, 0, 64, 75
1, 56565, Control_c, 0, 64, 78
1, 56580, Control_c, 0, 64, 80
1, 56595, Control_c, 0, 64, 85
1, 56610, Control_c, 0, 64, 91
1, 56616, Note_off_c, 0, 60, 57
1, 56625, Control_c, 0, 64, 98
1, 56640, Control_c, 0, 64, 104
1, 56655, Control_c, 0, 64, 108
1, 56662, Note_off_c, 0, 53, 58
1, 56669, Control_c, 0, 64, 111
1, 56684, Control_c, 0, 64, 115
1, 56698, Note_on_c, 0, 74, 62
1, 56699, Control_c, 0, 64, 121
1, 56714, Control_c, 0, 64, 127
1, 56960, Note_on_c, 0, 75, 72
1, 56993, Note_off_c, 0, 74, 60
1, 57132, Note_on_c, 0, 41, 48
1, 57450, Note_off_c, 0, 41, 40
1, 57476, Note_on_c, 0, 78, 65
1, 57485, Note_off_c, 0, 75, 54
1, 58079, Note_off_c, 0, 78, 60
1, 58163, Note_on_c, 0, 77, 58
1, 58805, Note_off_c, 0, 77, 53
1, 58832, Note_on_c, 0, 75, 54
1, 59015, Note_off_c, 0, 75, 60
1, 59329, Note_on_c, 0, 75, 55
1, 59348, Note_off_c, 0, 69, 61
1, 59386, Note_off_c, 0, 75, 65
1, 59400, Note_on_c, 0, 77, 58
1, 59447, Note_on_c, 0, 75, 58
1, 59462, Note_on_c, 0, 70, 56
1, 59482, Note_on_c, 0, 60, 44
1, 59485, Note_on_c, 0, 54, 41
1, 59492, Note_off_c, 0, 77, 60
1, 59501, Control_c, 0, 64, 124
1, 59516, Control_c, 0, 64, 115
1, 59531, Control_c, 0, 64, 109
1, 59546, Control_c, 0, 64, 104
1, 59560, Control_c, 0, 64, 98
1, 59575, Control_c, 0, 64, 92
1, 59590, Control_c, 0, 64, 87
1, 59605, Control_c, 0, 64, 81
1, 59620, Control_c, 0, 64, 76
1, 59634, Control_c, 0, 64, 71
1, 59649, Control_c, 0, 64, 64
1, 59664, Control_c, 0, 64, 18
1, 59679, Control_c, 0, 64, 0
1, 59984, Note_on_c, 0, 69, 60
1, 60015, Note_off_c, 0, 70, 52
1, 60027, Control_c, 0, 64, 20
1, 60041, Control_c, 0, 64, 29
1, 60056, Control_c, 0, 64, 33
1, 60071, Control_c, 0, 64, 34
1, 60086, Control_c, 0, 64, 31
1, 60100, Control_c, 0, 64, 18
1, 60115, Control_c, 0, 64, 0
1, 60175, Note_on_c, 0, 53, 48
1, 60211, Note_off_c, 0, 54, 47
1, 60264, Control_c, 0, 64, 57
1, 60279, Control_c, 0, 64, 69
1, 60294, Control_c, 0, 64, 78
1, 60309, Control_c, 0, 64, 86
1, 60324, Control_c, 0, 64, 91
1, 60339, Control_c, 0, 64, 96
1, 60354, Control_c, 0, 64, 103
1, 60369, Control_c, 0, 64, 115
1, 60383, Control_c, 0, 64, 127
1, 60396, Note_off_c, 0, 75, 64
1, 60407, Note_off_c, 0, 60, 51
1, 60458, Note_off_c, 0, 53, 65
1, 60715, Note_on_c, 0, 74, 67
1, 60873, Note_on_c, 0, 29, 65
1, 61009, Note_off_c, 0, 74, 61
1, 61019, Note_on_c, 0, 75, 76
1, 61236, Note_off_c, 0, 29, 57
1, 61364, Note_on_c, 0, 78, 76
1, 61373, Note_off_c, 0, 75, 57
1, 61986, Note_off_c, 0, 78, 61
1, 62030, Note_on_c, 0, 77, 76
1, 62688, Note_on_c, 0, 75, 73
1, 62801, Note_off_c, 0, 77, 37
1, 62830, Note_off_c, 0, 69, 51
1, 63523, Note_on_c, 0, 68, 81
1, 63523, Note_on_c, 0, 73, 87
1, 63534, Control_c, 0, 64, 118
1, 63540, Note_on_c, 0, 64, 79
1, 63541, Note_on_c, 0, 52, 72
1, 63545, Note_on_c, 0, 61, 73
1, 63549, Control_c, 0, 64, 97
1, 63551, Note_on_c, 0, 56, 67
1, 63561, Note_off_c, 0, 75, 37
1, 63564, Control_c, 0, 64, 77
1, 63579, Control_c, 0, 64, 0
1, 63653, Control_c, 0, 64, 48
1, 63668, Control_c, 0, 64, 66
1, 63682, Control_c, 0, 64, 72
1, 63697, Control_c, 0, 64, 76
1, 63712, Control_c, 0, 64, 81
1, 63723, Note_off_c, 0, 68, 55
1, 63726, Control_c, 0, 64, 84
1, 63741, Control_c, 0, 64, 88
1, 63756, Control_c, 0, 64, 93
1, 63771, Control_c, 0, 64, 101
1, 63786, Control_c, 0, 64, 110
1, 63800, Control_c, 0, 64, 122
1, 63815, Control_c, 0, 64, 127
1, 63832, Note_off_c, 0, 73, 60
1, 63859, Note_on_c, 0, 76, 88
1, 63952, Note_off_c, 0, 76, 63
1, 64073, Note_on_c, 0, 80, 94
1, 64333, Note_on_c, 0, 85, 91
1, 64339, Note_off_c, 0, 64, 58
1, 64362, Note_off_c, 0, 52, 60
1, 64365, Note_off_c, 0, 80, 63
1, 64397, Note_off_c, 0, 56, 56
1, 64411, Note_off_c, 0, 61, 60
1, 64831, Note_on_c, 0, 88, 93
1, 64864, Note_off_c, 0, 85, 57
1, 65015, Note_off_c, 0, 88, 46
1, 65135, Note_on_c, 0, 88, 94
1, 65136, Control_c, 0, 64, 113
1, 65140, Note_on_c, 0, 67, 93
1, 65146, Note_on_c, 0, 56, 74
1, 65150, Note_on_c, 0, 61, 75
1, 65151, Control_c, 0, 64, 90
1, 65153, Note_on_c, 0, 64, 75
1, 65166, Control_c, 0, 64, 69
1, 65180, Control_c, 0, 64, 0
1, 65240, Control_c, 0, 64, 55
1, 65254, Control_c, 0, 64, 70
1, 65269, Control_c, 0, 64, 80
1, 65284, Control_c, 0, 64, 91
1, 65298, Control_c, 0, 64, 98
1, 65313, Control_c, 0, 64, 103
1, 65328, Control_c, 0, 64, 111
1, 65343, Control_c, 0, 64, 127
1, 65584, Note_off_c, 0, 67, 51
1, 65648, Note_on_c, 0, 85, 65
1, 65658, Note_off_c, 0, 88, 56
1, 65714, Note_off_c, 0, 85, 59
1, 65882, Note_off_c, 0, 61, 0
1, 65919, Poly_aftertouch_c, 0, 61, 127
1, 65922, Note_on_c, 0, 61, 10
1, 65925, Note_on_c, 0, 68, 95
1, 66117, Note_off_c, 0, 56, 64
1, 66125, Note_off_c, 0, 68, 61
1, 66161, Note_off_c, 0, 64, 54
1, 66170, Note_off_c, 0, 61, 55
1, 66172, Note_on_c, 0, 73, 83
1, 66382, Note_on_c, 0, 75, 93
1, 66407, Note_off_c, 0, 73, 61
1, 66456, Note_off_c, 0, 75, 64
1, 66677, Note_on_c, 0, 76, 92
1, 66678, Control_c, 0, 64, 99
1, 66685, Note_on_c, 0, 67, 94
1, 66688, Note_on_c, 0, 70, 89
1, 66691, Note_on_c, 0, 73, 88
1, 66693, Control_c, 0, 64, 71
1, 66695, Note_on_c, 0, 56, 80
1, 66697, Note_on_c, 0, 68, 81
1, 66707, Control_c, 0, 64, 0
1, 66781, Control_c, 0, 64, 70
1, 66796, Control_c, 0, 64, 84
1, 66811, Control_c, 0, 64, 101
1, 66813, Note_off_c, 0, 68, 62
1, 66825, Control_c, 0, 64, 113
1, 66840, Note_off_c, 0, 56, 63
1, 66840, Control_c, 0, 64, 125
1, 66855, Control_c, 0, 64, 127
1, 66877, Note_off_c, 0, 73, 53
1, 66942, Note_off_c, 0, 70, 54
1, 66995, Note_off_c, 0, 76, 54
1, 67030, Note_on_c, 0, 73, 80
1, 67062, Note_off_c, 0, 67, 59
1, 67126, Note_on_c, 0, 70, 96
1, 67137, Note_off_c, 0, 73, 62
1, 67188, Note_off_c, 0, 70, 61
1, 67425, Control_c, 0, 64, 121
1, 67440, Control_c, 0, 64, 93
1, 67448, Note_on_c, 0, 80, 92
1, 67454, Note_on_c, 0, 70, 99
1, 67456, Control_c, 0, 64, 68
1, 67463, Note_on_c, 0, 64, 67
1, 67470, Note_on_c, 0, 63, 63
1, 67471, Control_c, 0, 64, 0
1, 67515, Control_c, 0, 64, 58
1, 67530, Control_c, 0, 64, 71
1, 67545, Control_c, 0, 64, 82
1, 67552, Note_off_c, 0, 64, 63
1, 67560, Control_c, 0, 64, 95
1, 67570, Note_off_c, 0, 63, 64
1, 67574, Control_c, 0, 64, 103
1, 67589, Control_c, 0, 64, 109
1, 67604, Control_c, 0, 64, 120
1, 67619, Control_c, 0, 64, 127
1, 67878, Note_on_c, 0, 44, 55
1, 68027, Note_on_c, 0, 52, 57
1, 68071, Control_c, 0, 64, 115
1, 68086, Control_c, 0, 64, 101
1, 68100, Control_c, 0, 64, 91
1, 68115, Control_c, 0, 64, 87
1, 68160, Control_c, 0, 64, 88
1, 68174, Control_c, 0, 64, 90
1, 68189, Control_c, 0, 64, 94
1, 68204, Control_c, 0, 64, 96
1, 68218, Control_c, 0, 64, 97
1, 68233, Control_c, 0, 64, 98
1, 68250, Control_c, 0, 64, 98
1, 68265, Control_c, 0, 64, 99
1, 68280, Control_c, 0, 64, 99
1, 68290, Note_off_c, 0, 70, 57
1, 68339, Control_c, 0, 64, 100
1, 68349, Note_on_c, 0, 71, 70
1, 68421, Note_off_c, 0, 44, 33
1, 68516, Control_c, 0, 64, 99
1, 68635, Control_c, 0, 64, 99
1, 68650, Control_c, 0, 64, 98
1, 68665, Control_c, 0, 64, 98
1, 68680, Control_c, 0, 64, 97
1, 68694, Control_c, 0, 64, 96
1, 68700, Note_on_c, 0, 51, 51
1, 68709, Control_c, 0, 64, 94
1, 68731, Control_c, 0, 64, 92
1, 68746, Control_c, 0, 64, 88
1, 68761, Control_c, 0, 64, 83
1, 68763, Note_off_c, 0, 52, 36
1, 68776, Control_c, 0, 64, 78
1, 68791, Control_c, 0, 64, 72
1, 68805, Control_c, 0, 64, 65
1, 68820, Control_c, 0, 64, 0
1, 69043, Control_c, 0, 64, 45
1, 69058, Control_c, 0, 64, 58
1, 69073, Control_c, 0, 64, 63
1, 69076, Note_on_c, 0, 57, 39
1, 69088, Control_c, 0, 64, 66
1, 69102, Control_c, 0, 64, 69
1, 69117, Control_c, 0, 64, 72
1, 69132, Control_c, 0, 64, 77
1, 69146, Control_c, 0, 64, 82
1, 69161, Control_c, 0, 64, 87
1, 69176, Control_c, 0, 64, 91
1, 69191, Control_c, 0, 64, 97
1, 69206, Control_c, 0, 64, 103
1, 69220, Control_c, 0, 64, 108
1, 69235, Control_c, 0, 64, 112
1, 69250, Control_c, 0, 64, 115
1, 69264, Control_c, 0, 64, 118
1, 69279, Control_c, 0, 64, 121
1, 69294, Control_c, 0, 64, 127
1, 69307, Note_off_c, 0, 51, 53
1, 69309, Control_c, 0, 64, 127
1, 69436, Note_on_c, 0, 72, 48
1, 69449, Note_off_c, 0, 57, 36
1, 69500, Note_off_c, 0, 71, 39
1, 69642, Control_c, 0, 64, 126
1, 69657, Control_c, 0, 64, 124
1, 69672, Control_c, 0, 64, 122
1, 69687, Control_c, 0, 64, 120
1, 69702, Control_c, 0, 64, 119
1, 69717, Control_c, 0, 64, 117
1, 69732, Control_c, 0, 64, 116
1, 69746, Control_c, 0, 64, 115
1, 69760, Control_c, 0, 64, 114
1, 69775, Control_c, 0, 64, 113
1, 69790, Control_c, 0, 64, 112
1, 69805, Control_c, 0, 64, 111
1, 69819, Control_c, 0, 64, 109
1, 69834, Control_c, 0, 64, 108
1, 69850, Control_c, 0, 64, 106
1, 69865, Control_c, 0, 64, 105
1, 69880, Control_c, 0, 64, 104
1, 69894, Control_c, 0, 64, 102
1, 69909, Control_c, 0, 64, 101
1, 69924, Control_c, 0, 64, 98
1, 69939, Control_c, 0, 64, 96
1, 69954, Control_c, 0, 64, 94
1, 69968, Control_c, 0, 64, 92
1, 69983, Control_c, 0, 64, 89
1, 69998, Control_c, 0, 64, 86
1, 70013, Control_c, 0, 64, 82
1, 70015, Note_on_c, 0, 56, 41
1, 70028, Control_c, 0, 64, 77
1, 70042, Control_c, 0, 64, 73
1, 70057, Control_c, 0, 64, 67
1, 70072, Control_c, 0, 64, 51
1, 70087, Control_c, 0, 64, 0
1, 70287, Control_c, 0, 64, 42
1, 70301, Control_c, 0, 64, 63
1, 70305, Note_on_c, 0, 63, 35
1, 70316, Control_c, 0, 64, 67
1, 70331, Control_c, 0, 64, 72
1, 70334, Note_off_c, 0, 72, 59
1, 70346, Control_c, 0, 64, 79
1, 70361, Control_c, 0, 64, 85
1, 70376, Control_c, 0, 64, 90
1, 70391, Control_c, 0, 64, 94
1, 70405, Control_c, 0, 64, 97
1, 70420, Control_c, 0, 64, 102
1, 70435, Control_c, 0, 64, 107
1, 70450, Control_c, 0, 64, 112
1, 70451, Note_off_c, 0, 80, 61
1, 70460, Note_off_c, 0, 63, 43
1, 70465, Control_c, 0, 64, 116
1, 70480, Control_c, 0, 64, 121
1, 70494, Control_c, 0, 64, 124
1, 70509, Control_c, 0, 64, 127
1, 70524, Control_c, 0, 64, 127
1, 70525, Note_off_c, 0, 56, 53
1, 70895, Control_c, 0, 64, 123
1, 70909, Control_c, 0, 64, 115
1, 70911, Note_on_c, 0, 76, 58
1, 70924, Control_c, 0, 64, 105
1, 70939, Control_c, 0, 64, 94
1, 70945, Note_on_c, 0, 80, 46
1, 70954, Control_c, 0, 64, 76
1, 70956, Note_on_c, 0, 37, 39
1, 70977, Control_c, 0, 64, 36
1, 70991, Control_c, 0, 64, 0
1, 71036, Control_c, 0, 64, 39
1, 71050, Control_c, 0, 64, 67
1, 71065, Control_c, 0, 64, 75
1, 71080, Control_c, 0, 64, 84
1, 71095, Control_c, 0, 64, 91
1, 71110, Control_c, 0, 64, 96
1, 71124, Control_c, 0, 64, 100
1, 71139, Control_c, 0, 64, 106
1, 71154, Control_c, 0, 64, 115
1, 71169, Control_c, 0, 64, 127
1, 71195, Note_off_c, 0, 80, 42
1, 71196, Note_on_c, 0, 81, 54
1, 71261, Note_off_c, 0, 81, 57
1, 71267, Note_off_c, 0, 37, 42
1, 71288, Note_on_c, 0, 80, 63
1, 71341, Note_off_c, 0, 80, 61
1, 71368, Note_on_c, 0, 81, 60
1, 71404, Note_off_c, 0, 81, 62
1, 71442, Note_on_c, 0, 80, 51
1, 71478, Note_off_c, 0, 80, 62
1, 71497, Note_on_c, 0, 81, 61
1, 71545, Note_off_c, 0, 81, 60
1, 71576, Note_on_c, 0, 80, 55
1, 71577, Note_off_c, 0, 76, 59
1, 71604, Note_off_c, 0, 80, 61
1, 71621, Note_on_c, 0, 81, 54
1, 71666, Note_off_c, 0, 81, 61
1, 71699, Note_on_c, 0, 80, 55
1, 71734, Note_off_c, 0, 80, 59
1, 71746, Note_on_c, 0, 81, 56
1, 71804, Note_off_c, 0, 81, 61
1, 71824, Note_on_c, 0, 80, 59
1, 71857, Note_on_c, 0, 56, 52
1, 71863, Note_off_c, 0, 80, 63
1, 71866, Note_on_c, 0, 64, 46
1, 71879, Note_on_c, 0, 81, 41
1, 71938, Note_off_c, 0, 81, 59
1, 71955, Note_on_c, 0, 80, 57
1, 72001, Note_off_c, 0, 80, 63
1, 72024, Note_on_c, 0, 81, 54
1, 72057, Note_on_c, 0, 80, 53
1, 72062, Note_off_c, 0, 81, 54
1, 72133, Note_on_c, 0, 75, 82
1, 72149, Note_off_c, 0, 80, 59
1, 72167, Note_off_c, 0, 64, 52
1, 72257, Note_on_c, 0, 80, 74
1, 72264, Note_off_c, 0, 75, 62
1, 72310, Note_off_c, 0, 56, 59
1, 72342, Note_on_c, 0, 76, 83
1, 72370, Note_off_c, 0, 80, 52
1, 72438, Note_on_c, 0, 81, 61
1, 72451, Note_off_c, 0, 76, 61
1, 72508, Note_on_c, 0, 80, 61
1, 72510, Note_off_c, 0, 81, 62
1, 72572, Note_off_c, 0, 80, 59
1, 72642, Note_on_c, 0, 80, 87
1, 72652, Control_c, 0, 64, 112
1, 72667, Control_c, 0, 64, 88
1, 72676, Note_on_c, 0, 42, 61
1, 72682, Control_c, 0, 64, 64
1, 72696, Control_c, 0, 64, 0
1, 72726, Control_c, 0, 64, 63
1, 72741, Control_c, 0, 64, 78
1, 72742, Poly_aftertouch_c, 0, 81, 127
1, 72756, Control_c, 0, 64, 97
1, 72770, Control_c, 0, 64, 127
1, 72792, Note_off_c, 0, 80, 62
1, 72814, Note_on_c, 0, 83, 55
1, 72820, Poly_aftertouch_c, 0, 81, 0
1, 72883, Note_off_c, 0, 83, 60
1, 72900, Note_on_c, 0, 81, 63
1, 72906, Note_off_c, 0, 42, 60
1, 72953, Note_off_c, 0, 81, 59
1, 72962, Note_on_c, 0, 83, 61
1, 73017, Note_off_c, 0, 83, 60
1, 73027, Note_on_c, 0, 81, 65
1, 73076, Note_off_c, 0, 81, 60
1, 73087, Note_on_c, 0, 83, 47
1, 73128, Note_on_c, 0, 81, 44
1, 73130, Note_off_c, 0, 83, 60
1, 73193, Note_on_c, 0, 78, 84
1, 73210, Note_off_c, 0, 81, 58
1, 73324, Note_on_c, 0, 83, 50
1, 73383, Note_off_c, 0, 83, 62
1, 73399, Note_on_c, 0, 81, 61
1, 73445, Note_off_c, 0, 78, 53
1, 73459, Note_off_c, 0, 81, 61
1, 73461, Note_on_c, 0, 57, 45
1, 73464, Note_on_c, 0, 66, 46
1, 73468, Note_on_c, 0, 83, 55
1, 73518, Note_off_c, 0, 83, 60
1, 73535, Note_on_c, 0, 81, 58
1, 73574, Note_off_c, 0, 81, 61
1, 73591, Note_on_c, 0, 83, 49
1, 73644, Note_on_c, 0, 81, 58
1, 73646, Note_off_c, 0, 83, 53
1, 73716, Note_on_c, 0, 76, 76
1, 73725, Note_off_c, 0, 81, 57
1, 73806, Note_off_c, 0, 66, 52
1, 73828, Note_on_c, 0, 83, 66
1, 73841, Note_off_c, 0, 57, 53
1, 73892, Note_off_c, 0, 83, 61
1, 73903, Note_on_c, 0, 81, 65
1, 73971, Note_off_c, 0, 81, 62
1, 73973, Note_on_c, 0, 83, 67
1, 74036, Note_off_c, 0, 83, 61
1, 74043, Note_on_c, 0, 81, 66
1, 74100, Note_off_c, 0, 81, 59
1, 74105, Note_on_c, 0, 83, 59
1, 74119, Note_off_c, 0, 76, 34
1, 74161, Note_on_c, 0, 81, 58
1, 74169, Note_off_c, 0, 83, 61
1, 74186, Poly_aftertouch_c, 0, 84, 127
1, 74204, Poly_aftertouch_c, 0, 84, 0
1, 74224, Note_off_c, 0, 81, 57
1, 74314, Note_on_c, 0, 49, 49
1, 74358, Control_c, 0, 64, 114
1, 74365, Note_on_c, 0, 76, 74
1, 74373, Control_c, 0, 64, 93
1, 74381, Note_on_c, 0, 80, 66
1, 74388, Control_c, 0, 64, 73
1, 74403, Control_c, 0, 64, 0
1, 74476, Control_c, 0, 64, 52
1, 74491, Control_c, 0, 64, 74
1, 74506, Control_c, 0, 64, 88
1, 74521, Control_c, 0, 64, 107
1, 74535, Control_c, 0, 64, 127
1, 74539, Note_off_c, 0, 80, 61
1, 74552, Note_on_c, 0, 81, 63
1, 74585, Note_off_c, 0, 49, 61
1, 74613, Note_off_c, 0, 81, 61
1, 74638, Note_on_c, 0, 80, 59
1, 74689, Note_off_c, 0, 80, 63
1, 74692, Note_on_c, 0, 81, 65
1, 74757, Note_off_c, 0, 81, 62
1, 74766, Note_on_c, 0, 80, 63
1, 74824, Note_on_c, 0, 81, 64
1, 74824, Note_off_c, 0, 76, 55
1, 74826, Note_off_c, 0, 80, 64
1, 74886, Note_off_c, 0, 81, 62
1, 74895, Note_on_c, 0, 80, 61
1, 74955, Note_off_c, 0, 80, 64
1, 74956, Note_on_c, 0, 81, 62
1, 75018, Note_off_c, 0, 81, 61
1, 75026, Note_on_c, 0, 80, 63
1, 75080, Note_off_c, 0, 80, 63
1, 75089, Note_on_c, 0, 81, 51
1, 75097, Note_on_c, 0, 56, 55
1, 75115, Note_on_c, 0, 64, 45
1, 75154, Note_on_c, 0, 80, 58
1, 75154, Note_off_c, 0, 81, 62
1, 75215, Note_off_c, 0, 80, 64
1, 75225, Note_on_c, 0, 81, 51
1, 75270, Note_on_c, 0, 80, 62
1, 75284, Note_off_c, 0, 81, 59
1, 75350, Note_on_c, 0, 75, 88
1, 75363, Note_off_c, 0, 80, 58
1, 75438, Note_off_c, 0, 64, 49
1, 75465, Poly_aftertouch_c, 0, 83, 127
1, 75481, Note_on_c, 0, 80, 70
1, 75515, Note_off_c, 0, 75, 60
1, 75521, Poly_aftertouch_c, 0, 83, 0
1, 75548, Note_off_c, 0, 56, 60
1, 75581, Note_on_c, 0, 76, 85
1, 75613, Note_off_c, 0, 80, 56
1, 75674, Note_on_c, 0, 81, 66
1, 75690, Note_off_c, 0, 76, 63
1, 75747, Note_on_c, 0, 80, 54
1, 75751, Note_off_c, 0, 81, 62
1, 75810, Note_off_c, 0, 80, 58
1, 75869, Control_c, 0, 64, 117
1, 75874, Note_on_c, 0, 80, 81
1, 75884, Control_c, 0, 64, 94
1, 75899, Control_c, 0, 64, 76
1, 75906, Note_on_c, 0, 42, 53
1, 75914, Control_c, 0, 64, 28
1, 75929, Control_c, 0, 64, 0
1, 75959, Control_c, 0, 64, 70
1, 75974, Control_c, 0, 64, 86
1, 75974, Poly_aftertouch_c, 0, 81, 127
1, 75988, Control_c, 0, 64, 108
1, 76003, Control_c, 0, 64, 127
1, 76013, Note_off_c, 0, 80, 62
1, 76023, Note_on_c, 0, 83, 60
1, 76033, Poly_aftertouch_c, 0, 81, 0
1, 76093, Note_off_c, 0, 83, 60
1, 76094, Note_off_c, 0, 42, 61
1, 76110, Note_on_c, 0, 81, 61
1, 76153, Note_off_c, 0, 81, 59
1, 76174, Note_on_c, 0, 83, 56
1, 76235, Note_off_c, 0, 83, 60
1, 76258, Note_on_c, 0, 81, 58
1, 76284, Note_off_c, 0, 81, 61
1, 76296, Note_on_c, 0, 83, 56
1, 76358, Note_off_c, 0, 83, 60
1, 76379, Note_on_c, 0, 81, 58
1, 76431, Note_on_c, 0, 78, 80
1, 76434, Note_off_c, 0, 81, 53
1, 76543, Note_on_c, 0, 83, 62
1, 76603, Note_off_c, 0, 83, 59
1, 76626, Note_on_c, 0, 81, 54
1, 76680, Note_off_c, 0, 81, 60
1, 76694, Note_on_c, 0, 66, 43
1, 76698, Note_on_c, 0, 83, 53
1, 76701, Note_on_c, 0, 57, 39
1, 76706, Note_on_c, 0, 61, 41
1, 76755, Note_off_c, 0, 83, 60
1, 76773, Note_on_c, 0, 81, 55
1, 76805, Note_off_c, 0, 81, 64
1, 76819, Note_on_c, 0, 83, 49
1, 76844, Note_off_c, 0, 78, 47
1, 76890, Note_off_c, 0, 83, 53
1, 76892, Note_on_c, 0, 81, 58
1, 76968, Note_on_c, 0, 76, 69
1, 76974, Note_off_c, 0, 81, 56
1, 77053, Note_off_c, 0, 66, 38
1, 77078, Note_off_c, 0, 57, 57
1, 77084, Note_on_c, 0, 83, 57
1, 77091, Note_off_c, 0, 61, 57
1, 77142, Note_off_c, 0, 83, 61
1, 77163, Note_on_c, 0, 81, 56
1, 77214, Note_off_c, 0, 81, 61
1, 77223, Note_on_c, 0, 83, 58
1, 77288, Note_off_c, 0, 83, 61
1, 77300, Note_on_c, 0, 81, 53
1, 77351, Note_off_c, 0, 81, 60
1, 77360, Note_on_c, 0, 83, 58
1, 77420, Note_off_c, 0, 83, 61
1, 77444, Note_on_c, 0, 81, 47
1, 77450, Note_off_c, 0, 76, 39
1, 77476, Note_off_c, 0, 81, 53
1, 77496, Note_on_c, 0, 83, 50
1, 77549, Note_off_c, 0, 83, 58
1, 77565, Note_on_c, 0, 81, 52
1, 77634, Note_off_c, 0, 81, 49
1, 77768, Note_on_c, 0, 35, 39
1, 77812, Note_on_c, 0, 75, 62
1, 77850, Control_c, 0, 64, 105
1, 77862, Note_on_c, 0, 81, 34
1, 77864, Control_c, 0, 64, 89
1, 77879, Control_c, 0, 64, 74
1, 77894, Control_c, 0, 64, 49
1, 77908, Control_c, 0, 64, 0
1, 77938, Control_c, 0, 64, 50
1, 77953, Control_c, 0, 64, 72
1, 77968, Control_c, 0, 64, 84
1, 77983, Control_c, 0, 64, 101
1, 77998, Control_c, 0, 64, 119
1, 78013, Control_c, 0, 64, 127
1, 78044, Note_off_c, 0, 81, 48
1, 78047, Note_off_c, 0, 75, 57
1, 78048, Note_on_c, 0, 83, 52
1, 78133, Note_off_c, 0, 83, 53
1, 78155, Note_on_c, 0, 81, 53
1, 78221, Note_off_c, 0, 35, 41
1, 78224, Note_off_c, 0, 81, 59
1, 78242, Note_on_c, 0, 83, 49
1, 78286, Note_off_c, 0, 83, 58
1, 78315, Note_on_c, 0, 81, 49
1, 78359, Note_off_c, 0, 81, 62
1, 78388, Note_on_c, 0, 83, 60
1, 78424, Note_off_c, 0, 83, 56
1, 78456, Note_on_c, 0, 81, 51
1, 78516, Note_off_c, 0, 81, 60
1, 78531, Note_on_c, 0, 83, 68
1, 78588, Note_off_c, 0, 83, 57
1, 78597, Note_on_c, 0, 81, 53
1, 78642, Note_off_c, 0, 81, 63
1, 78652, Note_on_c, 0, 83, 61
1, 78688, Note_on_c, 0, 81, 62
1, 78712, Note_off_c, 0, 83, 60
1, 78909, Note_on_c, 0, 69, 47
1, 78921, Note_on_c, 0, 63, 42
1, 78936, Note_on_c, 0, 59, 33
1, 79056, Note_off_c, 0, 81, 60
1, 79063, Note_on_c, 0, 80, 76
1, 79187, Note_off_c, 0, 69, 54
1, 79195, Note_off_c, 0, 80, 63
1, 79207, Note_on_c, 0, 81, 75
1, 79272, Note_off_c, 0, 59, 41
1, 79305, Note_off_c, 0, 63, 56
1, 79322, Note_on_c, 0, 86, 80
1, 79338, Note_off_c, 0, 81, 55
1, 79436, Note_off_c, 0, 86, 62
1, 79438, Note_on_c, 0, 87, 80
1, 79551, Note_on_c, 0, 90, 83
1, 79563, Note_off_c, 0, 87, 59
1, 79691, Note_off_c, 0, 90, 62
1, 79700, Note_on_c, 0, 91, 73
1, 79703, Control_c, 0, 64, 101
1, 79716, Note_on_c, 0, 40, 59
1, 79718, Control_c, 0, 64, 78
1, 79733, Control_c, 0, 64, 0
1, 79777, Control_c, 0, 64, 57
1, 79792, Control_c, 0, 64, 74
1, 79806, Control_c, 0, 64, 94
1, 79821, Note_on_c, 0, 92, 78
1, 79821, Control_c, 0, 64, 127
1, 79824, Note_off_c, 0, 91, 55
1, 79875, Note_off_c, 0, 40, 62
1, 79927, Note_off_c, 0, 92, 63
1, 79950, Note_on_c, 0, 87, 68
1, 80021, Note_off_c, 0, 87, 58
1, 80052, Note_on_c, 0, 88, 72
1, 80177, Note_on_c, 0, 82, 69
1, 80196, Note_off_c, 0, 88, 57
1, 80281, Note_off_c, 0, 82, 59
1, 80282, Note_on_c, 0, 83, 74
1, 80366, Note_off_c, 0, 83, 61
1, 80397, Note_on_c, 0, 79, 73
1, 80418, Note_on_c, 0, 59, 55
1, 80421, Note_on_c, 0, 68, 59
1, 80513, Note_on_c, 0, 80, 71
1, 80515, Note_off_c, 0, 79, 59
1, 80619, Note_off_c, 0, 80, 63
1, 80630, Note_on_c, 0, 75, 73
1, 80656, Note_off_c, 0, 59, 54
1, 80656, Note_off_c, 0, 68, 62
1, 80722, Note_off_c, 0, 75, 62
1, 80744, Note_on_c, 0, 76, 69
1, 80867, Note_on_c, 0, 70, 74
1, 80889, Note_off_c, 0, 76, 62
1, 80976, Note_off_c, 0, 70, 60
1, 80977, Note_on_c, 0, 71, 75
1, 81142, Control_c, 0, 64, 123
1, 81151, Note_on_c, 0, 72, 69
1, 81157, Control_c, 0, 64, 105
1, 81172, Control_c, 0, 64, 90
1, 81178, Note_off_c, 0, 71, 54
1, 81186, Note_on_c, 0, 45, 52
1, 81187, Control_c, 0, 64, 74
1, 81201, Control_c, 0, 64, 0
1, 81260, Control_c, 0, 64, 63
1, 81275, Control_c, 0, 64, 74
1, 81288, Note_on_c, 0, 73, 76
1, 81289, Note_off_c, 0, 72, 65
1, 81290, Control_c, 0, 64, 89
1, 81305, Control_c, 0, 64, 103
1, 81319, Control_c, 0, 64, 112
1, 81334, Control_c, 0, 64, 120
1, 81349, Control_c, 0, 64, 127
1, 81420, Note_off_c, 0, 45, 57
1, 81422, Note_off_c, 0, 73, 62
1, 81436, Note_on_c, 0, 78, 79
1, 81552, Note_off_c, 0, 78, 64
1, 81561, Note_on_c, 0, 76, 77
1, 81672, Note_on_c, 0, 75, 85
1, 81696, Note_off_c, 0, 76, 55
1, 81786, Note_on_c, 0, 73, 77
1, 81799, Note_off_c, 0, 75, 58
1, 82017, Note_on_c, 0, 72, 59
1, 82024, Control_c, 0, 64, 119
1, 82033, Note_off_c, 0, 73, 48
1, 82038, Note_on_c, 0, 64, 66
1, 82039, Control_c, 0, 64, 109
1, 82054, Control_c, 0, 64, 98
1, 82066, Note_on_c, 0, 57, 48
1, 82068, Control_c, 0, 64, 88
1, 82083, Control_c, 0, 64, 76
1, 82098, Control_c, 0, 64, 58
1, 82113, Control_c, 0, 64, 0
1, 82172, Control_c, 0, 64, 41
1, 82187, Control_c, 0, 64, 65
1, 82209, Control_c, 0, 64, 73
1, 82224, Control_c, 0, 64, 81
1, 82239, Control_c, 0, 64, 89
1, 82254, Control_c, 0, 64, 97
1, 82255, Note_on_c, 0, 73, 59
1, 82269, Note_off_c, 0, 72, 47
1, 82269, Control_c, 0, 64, 103
1, 82283, Control_c, 0, 64, 109
1, 82298, Control_c, 0, 64, 115
1, 82313, Control_c, 0, 64, 124
1, 82328, Control_c, 0, 64, 127
1, 82382, Note_on_c, 0, 79, 65
1, 82386, Note_off_c, 0, 73, 58
1, 82487, Note_on_c, 0, 76, 73
1, 82497, Note_off_c, 0, 79, 57
1, 82606, Note_on_c, 0, 75, 72
1, 82610, Note_off_c, 0, 57, 59
1, 82627, Note_on_c, 0, 67, 59
1, 82627, Note_off_c, 0, 76, 51
1, 82637, Note_off_c, 0, 64, 63
1, 82697, Control_c, 0, 64, 124
1, 82712, Control_c, 0, 64, 121
1, 82727, Control_c, 0, 64, 118
1, 82737, Note_off_c, 0, 75, 60
1, 82741, Note_on_c, 0, 73, 65
1, 82742, Control_c, 0, 64, 115
1, 82757, Control_c, 0, 64, 112
1, 82771, Control_c, 0, 64, 109
1, 82786, Control_c, 0, 64, 107
1, 82801, Control_c, 0, 64, 104
1, 82815, Control_c, 0, 64, 101
1, 82830, Control_c, 0, 64, 97
1, 82845, Control_c, 0, 64, 93
1, 82860, Control_c, 0, 64, 88
1, 82875, Control_c, 0, 64, 83
1, 82889, Control_c, 0, 64, 76
1, 82904, Control_c, 0, 64, 64
1, 82919, Control_c, 0, 64, 0
1, 82958, Note_off_c, 0, 73, 54
1, 82961, Note_on_c, 0, 80, 61
1, 82964, Note_on_c, 0, 63, 40
1, 82982, Note_on_c, 0, 56, 34
1, 83029, Note_off_c, 0, 67, 38
1, 83075, Control_c, 0, 64, 61
1, 83090, Control_c, 0, 64, 73
1, 83104, Control_c, 0, 64, 82
1, 83119, Control_c, 0, 64, 90
1, 83134, Control_c, 0, 64, 93
1, 83149, Control_c, 0, 64, 97
1, 83159, Note_on_c, 0, 75, 53
1, 83164, Control_c, 0, 64, 102
1, 83179, Control_c, 0, 64, 108
1, 83194, Control_c, 0, 64, 116
1, 83195, Note_off_c, 0, 63, 46
1, 83208, Control_c, 0, 64, 126
1, 83212, Note_off_c, 0, 56, 54
1, 83223, Control_c, 0, 64, 127
1, 83253, Note_off_c, 0, 80, 31
1, 83283, Note_on_c, 0, 71, 52
1, 83314, Note_off_c, 0, 75, 40
1, 83384, Note_off_c, 0, 71, 57
1, 83397, Note_on_c, 0, 72, 59
1, 83461, Control_c, 0, 64, 121
1, 83476, Control_c, 0, 64, 97
1, 83491, Control_c, 0, 64, 76
1, 83506, Control_c, 0, 64, 55
1, 83511, Note_off_c, 0, 72, 59
1, 83520, Control_c, 0, 64, 34
1, 83527, Note_on_c, 0, 48, 66
1, 83535, Control_c, 0, 64, 66
1, 83550, Control_c, 0, 64, 80
1, 83565, Control_c, 0, 64, 100
1, 83580, Control_c, 0, 64, 127
1, 83581, Note_off_c, 0, 48, 64
1, 83670, Note_on_c, 0, 69, 64
1, 83787, Note_off_c, 0, 69, 62
1, 83808, Note_on_c, 0, 67, 68
1, 83827, Note_on_c, 0, 66, 65
1, 83829, Note_on_c, 0, 56, 55
1, 83931, Note_on_c, 0, 68, 77
1, 83935, Note_off_c, 0, 67, 61
1, 83993, Note_off_c, 0, 56, 54
1, 83999, Note_off_c, 0, 66, 63
1, 84026, Note_off_c, 0, 68, 62
1, 84039, Note_on_c, 0, 71, 75
1, 84138, Note_on_c, 0, 72, 79
1, 84152, Note_off_c, 0, 71, 56
1, 84240, Note_on_c, 0, 74, 78
1, 84254, Note_off_c, 0, 72, 63
1, 84336, Note_off_c, 0, 74, 63
1, 84343, Note_on_c, 0, 75, 80
1, 84400, Note_off_c, 0, 75, 65
1, 84483, Note_on_c, 0, 49, 64
1, 84529, Control_c, 0, 64, 115
1, 84544, Control_c, 0, 64, 93
1, 84559, Control_c, 0, 64, 75
1, 84569, Note_on_c, 0, 76, 77
1, 84574, Control_c, 0, 64, 0
1, 84599, Note_on_c, 0, 80, 53
1, 84633, Control_c, 0, 64, 65
1, 84648, Control_c, 0, 64, 81
1, 84663, Control_c, 0, 64, 100
1, 84677, Control_c, 0, 64, 121
1, 84692, Control_c, 0, 64, 127
1, 84748, Note_on_c, 0, 81, 69
1, 84748, Note_off_c, 0, 80, 63
1, 84776, Note_off_c, 0, 49, 56
1, 84818, Note_off_c, 0, 81, 61
1, 84836, Note_on_c, 0, 80, 68
1, 84893, Note_on_c, 0, 81, 67
1, 84893, Note_off_c, 0, 80, 63
1, 84950, Note_off_c, 0, 81, 62
1, 84956, Note_on_c, 0, 80, 62
1, 85016, Note_on_c, 0, 81, 67
1, 85019, Note_off_c, 0, 80, 64
1, 85058, Note_off_c, 0, 76, 44
1, 85083, Note_off_c, 0, 81, 62
1, 85086, Note_on_c, 0, 80, 61
1, 85144, Note_on_c, 0, 81, 65
1, 85146, Note_off_c, 0, 80, 64
1, 85228, Note_on_c, 0, 80, 60
1, 85232, Note_off_c, 0, 81, 60
1, 85278, Note_on_c, 0, 56, 56
1, 85286, Note_on_c, 0, 64, 51
1, 85292, Note_off_c, 0, 80, 64
1, 85295, Note_on_c, 0, 81, 55
1, 85361, Note_off_c, 0, 81, 62
1, 85366, Note_on_c, 0, 80, 64
1, 85399, Note_off_c, 0, 80, 66
1, 85419, Note_on_c, 0, 81, 59
1, 85466, Note_on_c, 0, 80, 70
1, 85480, Note_off_c, 0, 81, 60
1, 85539, Note_on_c, 0, 75, 89
1, 85560, Note_off_c, 0, 80, 61
1, 85576, Note_off_c, 0, 64, 59
1, 85662, Note_on_c, 0, 80, 75
1, 85673, Note_off_c, 0, 56, 59
1, 85687, Note_off_c, 0, 75, 61
1, 85760, Note_on_c, 0, 76, 85
1, 85775, Note_off_c, 0, 80, 53
1, 85847, Note_on_c, 0, 81, 60
1, 85857, Note_off_c, 0, 76, 64
1, 85921, Note_on_c, 0, 80, 64
1, 85928, Note_off_c, 0, 81, 62
1, 85996, Note_off_c, 0, 80, 62
1, 86054, Note_on_c, 0, 80, 80
1, 86056, Control_c, 0, 64, 100
1, 86071, Control_c, 0, 64, 78
1, 86086, Control_c, 0, 64, 0
1, 86088, Note_on_c, 0, 42, 54
1, 86130, Control_c, 0, 64, 39
1, 86145, Control_c, 0, 64, 71
1, 86160, Control_c, 0, 64, 87
1, 86167, Note_on_c, 0, 81, 4
1, 86174, Control_c, 0, 64, 120
1, 86189, Control_c, 0, 64, 127
1, 86194, Note_off_c, 0, 80, 62
1, 86209, Note_off_c, 0, 81, 53
1, 86210, Note_on_c, 0, 83, 59
1, 86282, Note_off_c, 0, 83, 59
1, 86298, Note_on_c, 0, 81, 66
1, 86306, Note_off_c, 0, 42, 60
1, 86354, Note_off_c, 0, 81, 61
1, 86370, Note_on_c, 0, 83, 55
1, 86422, Note_off_c, 0, 83, 61
1, 86438, Note_on_c, 0, 81, 60
1, 86476, Note_off_c, 0, 81, 60
1, 86495, Note_on_c, 0, 83, 49
1, 86547, Note_off_c, 0, 83, 58
1, 86559, Note_on_c, 0, 81, 56
1, 86620, Note_on_c, 0, 78, 77
1, 86660, Note_off_c, 0, 81, 37
1, 86744, Note_on_c, 0, 83, 53
1, 86810, Note_off_c, 0, 83, 59
1, 86821, Note_on_c, 0, 81, 52
1, 86880, Note_on_c, 0, 66, 50
1, 86884, Note_on_c, 0, 57, 46
1, 86886, Note_off_c, 0, 81, 61
1, 86903, Note_on_c, 0, 83, 51
1, 86964, Note_off_c, 0, 83, 60
1, 86989, Note_on_c, 0, 81, 47
1, 87017, Note_off_c, 0, 81, 62
1, 87033, Note_on_c, 0, 83, 43
1, 87036, Note_off_c, 0, 78, 37
1, 87092, Note_off_c, 0, 83, 55
1, 87099, Note_on_c, 0, 81, 58
1, 87188, Note_on_c, 0, 75, 68
1, 87190, Note_off_c, 0, 81, 55
1, 87282, Note_off_c, 0, 66, 55
1, 87295, Note_off_c, 0, 57, 52
1, 87322, Note_on_c, 0, 83, 53
1, 87395, Note_off_c, 0, 83, 59
1, 87416, Note_on_c, 0, 81, 56
1, 87480, Note_off_c, 0, 81, 59
1, 87495, Note_on_c, 0, 83, 53
1, 87575, Note_off_c, 0, 83, 58
1, 87590, Note_on_c, 0, 81, 56
1, 87639, Note_off_c, 0, 81, 53
1, 87680, Note_on_c, 0, 83, 43
1, 87749, Note_off_c, 0, 83, 55
1, 87768, Note_on_c, 0, 81, 53
1, 87790, Note_off_c, 0, 75, 35
1, 87820, Note_off_c, 0, 81, 53
1, 88040, Note_on_c, 0, 37, 37
1, 88102, Control_c, 0, 64, 125
1, 88117, Control_c, 0, 64, 109
1, 88118, Note_on_c, 0, 80, 55
1, 88131, Control_c, 0, 64, 97
1, 88133, Note_on_c, 0, 77, 42
1, 88146, Control_c, 0, 64, 84
1, 88161, Control_c, 0, 64, 71
1, 88176, Control_c, 0, 64, 0
1, 88229, Control_c, 0, 64, 34
1, 88243, Control_c, 0, 64, 67
1, 88258, Control_c, 0, 64, 76
1, 88273, Control_c, 0, 64, 90
1, 88288, Control_c, 0, 64, 100
1, 88303, Control_c, 0, 64, 107
1, 88318, Control_c, 0, 64, 113
1, 88326, Note_on_c, 0, 82, 58
1, 88330, Note_off_c, 0, 80, 60
1, 88333, Control_c, 0, 64, 125
1, 88348, Control_c, 0, 64, 127
1, 88391, Note_off_c, 0, 37, 41
1, 88411, Note_off_c, 0, 82, 60
1, 88433, Note_on_c, 0, 80, 52
1, 88494, Note_off_c, 0, 80, 59
1, 88508, Note_on_c, 0, 82, 58
1, 88577, Note_off_c, 0, 82, 62
1, 88606, Note_on_c, 0, 80, 57
1, 88652, Note_off_c, 0, 80, 62
1, 88655, Note_off_c, 0, 77, 31
1, 88661, Note_on_c, 0, 82, 58
1, 88740, Note_off_c, 0, 82, 62
1, 88743, Note_on_c, 0, 80, 57
1, 88802, Note_off_c, 0, 80, 61
1, 88808, Note_on_c, 0, 82, 62
1, 88890, Note_on_c, 0, 80, 57
1, 88915, Note_off_c, 0, 82, 51
1, 89136, Note_off_c, 0, 80, 62
1, 89148, Note_on_c, 0, 65, 47
1, 89170, Note_on_c, 0, 56, 42
1, 89352, Note_on_c, 0, 73, 59
1, 89504, Note_off_c, 0, 73, 61
1, 89508, Note_on_c, 0, 77, 64
1, 89549, Note_off_c, 0, 77, 57
1, 89648, Note_on_c, 0, 80, 67
1, 89728, Note_off_c, 0, 65, 54
1, 89790, Note_on_c, 0, 85, 71
1, 89802, Note_off_c, 0, 80, 57
1, 89815, Note_off_c, 0, 56, 53
1, 89915, Note_on_c, 0, 89, 70
1, 89921, Note_off_c, 0, 85, 59
1, 90128, Note_off_c, 0, 89, 28
1, 90130, Note_on_c, 0, 92, 72
1, 90143, Note_on_c, 0, 84, 44
1, 90193, Note_on_c, 0, 41, 47
1, 90229, Control_c, 0, 64, 120
1, 90244, Control_c, 0, 64, 111
1, 90259, Control_c, 0, 64, 100
1, 90274, Control_c, 0, 64, 85
1, 90288, Control_c, 0, 64, 59
1, 90303, Control_c, 0, 64, 0
1, 90308, Note_on_c, 0, 89, 61
1, 90318, Note_off_c, 0, 84, 59
1, 90325, Note_off_c, 0, 92, 48
1, 90378, Control_c, 0, 64, 62
1, 90392, Control_c, 0, 64, 74
1, 90407, Control_c, 0, 64, 83
1, 90422, Control_c, 0, 64, 88
1, 90423, Note_on_c, 0, 84, 73
1, 90440, Note_off_c, 0, 89, 60
1, 90444, Control_c, 0, 64, 90
1, 90459, Control_c, 0, 64, 92
1, 90474, Control_c, 0, 64, 95
1, 90488, Control_c, 0, 64, 100
1, 90503, Control_c, 0, 64, 105
1, 90518, Control_c, 0, 64, 110
1, 90533, Control_c, 0, 64, 113
1, 90538, Note_on_c, 0, 80, 70
1, 90547, Control_c, 0, 64, 116
1, 90549, Note_off_c, 0, 84, 57
1, 90559, Note_on_c, 0, 40, 56
1, 90562, Control_c, 0, 64, 118
1, 90577, Control_c, 0, 64, 120
1, 90592, Control_c, 0, 64, 121
1, 90602, Note_off_c, 0, 41, 41
1, 90608, Control_c, 0, 64, 124
1, 90623, Control_c, 0, 64, 125
1, 90637, Control_c, 0, 64, 126
1, 90660, Note_off_c, 0, 80, 60
1, 90661, Note_on_c, 0, 84, 73
1, 90771, Note_off_c, 0, 84, 61
1, 90772, Control_c, 0, 64, 126
1, 90774, Note_on_c, 0, 89, 71
1, 90786, Control_c, 0, 64, 125
1, 90801, Control_c, 0, 64, 123
1, 90816, Control_c, 0, 64, 120
1, 90831, Control_c, 0, 64, 115
1, 90846, Control_c, 0, 64, 107
1, 90854, Note_off_c, 0, 40, 59
1, 90860, Control_c, 0, 64, 94
1, 90875, Control_c, 0, 64, 79
1, 90890, Control_c, 0, 64, 55
1, 90905, Control_c, 0, 64, 0
1, 90923, Note_off_c, 0, 89, 58
1, 90938, Note_on_c, 0, 91, 65
1, 90942, Note_on_c, 0, 82, 54
1, 90964, Note_on_c, 0, 39, 49
1, 90979, Control_c, 0, 64, 60
1, 90994, Control_c, 0, 64, 73
1, 91009, Control_c, 0, 64, 89
1, 91024, Control_c, 0, 64, 113
1, 91026, Note_off_c, 0, 39, 61
1, 91038, Control_c, 0, 64, 127
1, 91041, Note_off_c, 0, 82, 53
1, 91087, Note_on_c, 0, 87, 70
1, 91100, Note_off_c, 0, 91, 36
1, 91203, Note_on_c, 0, 82, 70
1, 91218, Note_off_c, 0, 87, 55
1, 91314, Note_on_c, 0, 79, 71
1, 91322, Note_off_c, 0, 82, 61
1, 91325, Note_on_c, 0, 67, 65
1, 91346, Note_on_c, 0, 58, 53
1, 91364, Note_off_c, 0, 67, 61
1, 91400, Note_off_c, 0, 58, 63
1, 91436, Note_on_c, 0, 82, 76
1, 91436, Note_off_c, 0, 79, 61
1, 91531, Note_on_c, 0, 87, 73
1, 91540, Note_off_c, 0, 82, 61
1, 91639, Note_off_c, 0, 87, 56
1, 91639, Control_c, 0, 64, 109
1, 91653, Control_c, 0, 64, 89
1, 91659, Note_on_c, 0, 90, 76
1, 91665, Note_on_c, 0, 82, 68
1, 91668, Control_c, 0, 64, 69
1, 91683, Control_c, 0, 64, 0
1, 91686, Note_on_c, 0, 42, 57
1, 91728, Control_c, 0, 64, 72
1, 91733, Note_off_c, 0, 42, 65
1, 91743, Control_c, 0, 64, 91
1, 91758, Control_c, 0, 64, 127
1, 91764, Note_off_c, 0, 82, 45
1, 91784, Note_off_c, 0, 90, 63
1, 91785, Note_on_c, 0, 85, 76
1, 91889, Note_on_c, 0, 82, 77
1, 91891, Note_off_c, 0, 85, 61
1, 91994, Note_on_c, 0, 78, 81
1, 92008, Note_off_c, 0, 82, 60
1, 92022, Note_on_c, 0, 58, 53
1, 92032, Note_on_c, 0, 65, 25
1, 92072, Note_off_c, 0, 65, 43
1, 92090, Note_off_c, 0, 58, 63
1, 92106, Note_on_c, 0, 82, 85
1, 92116, Note_off_c, 0, 78, 58
1, 92193, Note_on_c, 0, 85, 81
1, 92197, Note_off_c, 0, 82, 63
1, 92284, Control_c, 0, 64, 111
1, 92299, Control_c, 0, 64, 85
1, 92301, Note_off_c, 0, 85, 63
1, 92314, Note_on_c, 0, 89, 80
1, 92314, Control_c, 0, 64, 63
1, 92318, Note_on_c, 0, 49, 70
1, 92324, Note_on_c, 0, 80, 74
1, 92329, Control_c, 0, 64, 0
1, 92358, Control_c, 0, 64, 66
1, 92370, Note_off_c, 0, 80, 57
1, 92373, Control_c, 0, 64, 85
1, 92381, Note_off_c, 0, 49, 61
1, 92388, Control_c, 0, 64, 127
1, 92433, Note_on_c, 0, 85, 78
1, 92482, Note_off_c, 0, 89, 44
1, 92539, Note_on_c, 0, 80, 82
1, 92562, Note_off_c, 0, 85, 58
1, 92629, Note_on_c, 0, 65, 61
1, 92632, Note_on_c, 0, 77, 84
1, 92640, Note_on_c, 0, 56, 66
1, 92640, Note_off_c, 0, 80, 64
1, 92661, Note_off_c, 0, 65, 67
1, 92703, Note_off_c, 0, 56, 62
1, 92744, Note_on_c, 0, 80, 85
1, 92748, Note_off_c, 0, 77, 61
1, 92837, Note_on_c, 0, 85, 80
1, 92858, Note_off_c, 0, 80, 62
1, 92899, Control_c, 0, 64, 101
1, 92914, Control_c, 0, 64, 78
1, 92929, Control_c, 0, 64, 0
1, 92960, Note_on_c, 0, 40, 68
1, 92963, Note_on_c, 0, 88, 76
1, 92970, Note_on_c, 0, 80, 75
1, 92973, Control_c, 0, 64, 65
1, 92988, Control_c, 0, 64, 83
1, 93004, Control_c, 0, 64, 114
1, 93009, Note_off_c, 0, 40, 62
1, 93019, Control_c, 0, 64, 127
1, 93031, Note_off_c, 0, 80, 58
1, 93058, Note_off_c, 0, 88, 56
1, 93074, Note_on_c, 0, 83, 74
1, 93114, Note_off_c, 0, 85, 15
1, 93168, Note_on_c, 0, 80, 80
1, 93194, Note_off_c, 0, 83, 54
1, 93268, Note_on_c, 0, 76, 81
1, 93275, Note_on_c, 0, 64, 72
1, 93278, Note_on_c, 0, 56, 68
1, 93278, Note_off_c, 0, 80, 63
1, 93304, Note_off_c, 0, 64, 66
1, 93337, Note_off_c, 0, 56, 63
1, 93367, Note_on_c, 0, 80, 85
1, 93385, Note_off_c, 0, 76, 65
1, 93466, Note_on_c, 0, 83, 75
1, 93478, Note_off_c, 0, 80, 62
1, 93529, Control_c, 0, 64, 102
1, 93544, Control_c, 0, 64, 73
1, 93558, Note_off_c, 0, 83, 59
1, 93558, Control_c, 0, 64, 0
1, 93575, Note_on_c, 0, 87, 79
1, 93576, Note_on_c, 0, 78, 84
1, 93582, Note_on_c, 0, 47, 77
1, 93588, Control_c, 0, 64, 52
1, 93603, Control_c, 0, 64, 78
1, 93618, Control_c, 0, 64, 110
1, 93633, Control_c, 0, 64, 127
1, 93633, Note_off_c, 0, 47, 63
1, 93640, Note_off_c, 0, 87, 66
1, 93676, Note_off_c, 0, 78, 45
1, 93682, Note_on_c, 0, 83, 76
1, 93781, Note_on_c, 0, 78, 84
1, 93788, Note_off_c, 0, 83, 56
1, 93871, Note_on_c, 0, 63, 72
1, 93876, Note_on_c, 0, 54, 72
1, 93877, Note_on_c, 0, 75, 89
1, 93883, Note_off_c, 0, 78, 62
1, 93900, Note_off_c, 0, 63, 66
1, 93939, Note_off_c, 0, 54, 62
1, 93980, Note_on_c, 0, 78, 87
1, 93985, Note_off_c, 0, 75, 62
1, 94078, Note_on_c, 0, 83, 71
1, 94107, Note_off_c, 0, 78, 58
1, 94152, Control_c, 0, 64, 113
1, 94167, Control_c, 0, 64, 88
1, 94189, Control_c, 0, 64, 63
1, 94204, Control_c, 0, 64, 0
1, 94205, Note_on_c, 0, 78, 85
1, 94208, Note_on_c, 0, 86, 76
1, 94217, Note_on_c, 0, 38, 73
1, 94234, Control_c, 0, 64, 62
1, 94249, Control_c, 0, 64, 84
1, 94254, Note_off_c, 0, 38, 67
1, 94263, Control_c, 0, 64, 127
1, 94270, Note_off_c, 0, 83, 47
1, 94279, Note_off_c, 0, 78, 57
1, 94312, Note_off_c, 0, 86, 62
1, 94321, Note_on_c, 0, 81, 85
1, 94423, Note_on_c, 0, 78, 93
1, 94446, Note_off_c, 0, 81, 52
1, 94517, Note_on_c, 0, 62, 74
1, 94518, Note_on_c, 0, 74, 84
1, 94519, Note_on_c, 0, 54, 72
1, 94531, Note_off_c, 0, 78, 60
1, 94546, Note_off_c, 0, 62, 65
1, 94578, Note_off_c, 0, 54, 63
1, 94633, Note_on_c, 0, 78, 86
1, 94660, Note_off_c, 0, 74, 62
1, 94734, Note_on_c, 0, 81, 84
1, 94753, Note_off_c, 0, 78, 61
1, 94797, Control_c, 0, 64, 112
1, 94811, Control_c, 0, 64, 85
1, 94826, Control_c, 0, 64, 26
1, 94841, Control_c, 0, 64, 0
1, 94849, Note_off_c, 0, 81, 60
1, 94871, Control_c, 0, 64, 63
1, 94873, Note_on_c, 0, 76, 77
1, 94873, Note_on_c, 0, 45, 81
1, 94876, Note_on_c, 0, 85, 75
1, 94885, Control_c, 0, 64, 83
1, 94900, Control_c, 0, 64, 127
1, 94935, Note_off_c, 0, 45, 66
1, 94965, Note_off_c, 0, 85, 64
1, 95053, Note_on_c, 0, 81, 86
1, 95066, Note_off_c, 0, 76, 41
1, 95209, Note_off_c, 0, 81, 59
1, 95211, Note_on_c, 0, 76, 89
1, 95221, Note_on_c, 0, 52, 80
1, 95224, Note_on_c, 0, 61, 79
1, 95274, Note_off_c, 0, 61, 64
1, 95278, Note_off_c, 0, 52, 66
1, 95371, Note_off_c, 0, 76, 64
1, 95380, Note_on_c, 0, 73, 89
1, 95426, Note_off_c, 0, 73, 64
1, 95687, Note_on_c, 0, 76, 92
1, 95695, Note_on_c, 0, 67, 87
1, 96024, Note_on_c, 0, 44, 93
1, 96041, Control_c, 0, 64, 106
1, 96056, Control_c, 0, 64, 86
1, 96071, Control_c, 0, 64, 63
1, 96086, Control_c, 0, 64, 0
1, 96173, Note_off_c, 0, 76, 54
1, 96175, Control_c, 0, 64, 59
1, 96190, Control_c, 0, 64, 65
1, 96205, Control_c, 0, 64, 69
1, 96220, Control_c, 0, 64, 72
1, 96235, Control_c, 0, 64, 75
1, 96250, Control_c, 0, 64, 79
1, 96265, Control_c, 0, 64, 82
1, 96280, Control_c, 0, 64, 87
1, 96286, Note_on_c, 0, 73, 91
1, 96295, Control_c, 0, 64, 91
1, 96310, Control_c, 0, 64, 97
1, 96324, Control_c, 0, 64, 100
1, 96327, Note_off_c, 0, 67, 59
1, 96339, Control_c, 0, 64, 102
1, 96354, Control_c, 0, 64, 105
1, 96368, Control_c, 0, 64, 107
1, 96383, Control_c, 0, 64, 110
1, 96398, Control_c, 0, 64, 111
1, 96413, Control_c, 0, 64, 113
1, 96435, Control_c, 0, 64, 114
1, 96450, Control_c, 0, 64, 116
1, 96465, Control_c, 0, 64, 120
1, 96479, Control_c, 0, 64, 126
1, 96480, Note_on_c, 0, 70, 88
1, 96494, Control_c, 0, 64, 127
1, 96575, Note_off_c, 0, 73, 36
1, 96620, Note_on_c, 0, 67, 92
1, 96636, Note_off_c, 0, 70, 61
1, 96723, Note_off_c, 0, 67, 61
1, 96745, Note_on_c, 0, 64, 85
1, 96859, Note_off_c, 0, 64, 58
1, 96880, Note_on_c, 0, 61, 89
1, 96936, Note_off_c, 0, 44, 61
1, 96949, Note_off_c, 0, 61, 61
1, 97097, Note_on_c, 0, 60, 89
1, 97102, Note_on_c, 0, 57, 90
1, 97114, Note_on_c, 0, 44, 87
1, 97161, Control_c, 0, 64, 116
1, 97183, Control_c, 0, 64, 99
1, 97198, Control_c, 0, 64, 86
1, 97213, Control_c, 0, 64, 74
1, 97228, Control_c, 0, 64, 58
1, 97243, Control_c, 0, 64, 0
1, 97308, Note_off_c, 0, 57, 58
1, 97323, Note_on_c, 0, 56, 81
1, 97331, Control_c, 0, 64, 48
1, 97346, Control_c, 0, 64, 57
1, 97361, Control_c, 0, 64, 60
1, 97376, Control_c, 0, 64, 61
1, 97391, Control_c, 0, 64, 63
1, 97395, Note_off_c, 0, 60, 0
1, 97405, Control_c, 0, 64, 64
1, 97420, Control_c, 0, 64, 65
1, 97431, Poly_aftertouch_c, 0, 60, 127
1, 97435, Control_c, 0, 64, 66
1, 97448, Note_off_c, 0, 56, 64
1, 97450, Control_c, 0, 64, 67
1, 97455, Note_on_c, 0, 55, 81
1, 97463, Note_on_c, 0, 60, 3
1, 97466, Control_c, 0, 64, 69
1, 97480, Control_c, 0, 64, 70
1, 97495, Control_c, 0, 64, 71
1, 97510, Control_c, 0, 64, 71
1, 97524, Control_c, 0, 64, 72
1, 97539, Control_c, 0, 64, 73
1, 97546, Note_off_c, 0, 55, 52
1, 97554, Control_c, 0, 64, 74
1, 97567, Note_on_c, 0, 54, 80
1, 97584, Control_c, 0, 64, 75
1, 97613, Control_c, 0, 64, 75
1, 97672, Control_c, 0, 64, 75
1, 97686, Note_on_c, 0, 52, 76
1, 97687, Note_off_c, 0, 54, 61
1, 97687, Control_c, 0, 64, 74
1, 97699, Note_off_c, 0, 60, 55
1, 97702, Control_c, 0, 64, 71
1, 97717, Control_c, 0, 64, 63
1, 97731, Control_c, 0, 64, 0
1, 97737, Note_off_c, 0, 52, 63
1, 97748, Note_on_c, 0, 54, 79
1, 97784, Note_on_c, 0, 52, 83
1, 97795, Note_off_c, 0, 54, 61
1, 97807, Control_c, 0, 64, 64
1, 97821, Control_c, 0, 64, 76
1, 97836, Control_c, 0, 64, 87
1, 97843, Note_off_c, 0, 44, 64
1, 97851, Control_c, 0, 64, 94
1, 97881, Control_c, 0, 64, 94
1, 98040, Note_off_c, 0, 52, 59
1, 98051, Control_c, 0, 64, 94
1, 98059, Note_on_c, 0, 51, 81
1, 98066, Control_c, 0, 64, 93
1, 98081, Control_c, 0, 64, 91
1, 98095, Control_c, 0, 64, 87
1, 98110, Control_c, 0, 64, 79
1, 98125, Control_c, 0, 64, 64
1, 98126, Note_off_c, 0, 51, 63
1, 98140, Control_c, 0, 64, 0
1, 98229, Note_on_c, 0, 52, 96
1, 98231, Note_on_c, 0, 49, 92
1, 98234, Note_on_c, 0, 25, 80
1, 98236, Note_on_c, 0, 37, 87
1, 98259, Control_c, 0, 64, 70
1, 98264, Note_off_c, 0, 25, 67
1, 98264, Note_off_c, 0, 37, 71
1, 98267, Note_off_c, 0, 49, 66
1, 98273, Note_off_c, 0, 52, 69
1, 98274, Control_c, 0, 64, 115
1, 98289, Control_c, 0, 64, 127
1, 98495, Control_c, 0, 64, 115
1, 98499, Note_on_c, 0, 39, 79
1, 98510, Control_c, 0, 64, 104
1, 98525, Control_c, 0, 64, 93
1, 98540, Control_c, 0, 64, 81
1, 98554, Control_c, 0, 64, 67
1, 98556, Note_off_c, 0, 39, 64
1, 98569, Control_c, 0, 64, 0
1, 98585, Note_on_c, 0, 40, 94
1, 98623, Note_off_c, 0, 40, 65
1, 98781, Note_on_c, 0, 40, 98
1, 98782, Note_on_c, 0, 47, 87
1, 98782, Note_on_c, 0, 56, 83
1, 98788, Note_on_c, 0, 52, 74
1, 98815, Control_c, 0, 64, 86
1, 98824, Note_off_c, 0, 40, 67
1, 98828, Note_off_c, 0, 47, 63
1, 98830, Control_c, 0, 64, 127
1, 98833, Note_off_c, 0, 52, 65
1, 98865, Note_off_c, 0, 56, 66
1, 99031, Note_on_c, 0, 57, 93
1, 99037, Control_c, 0, 64, 122
1, 99052, Control_c, 0, 64, 112
1, 99067, Control_c, 0, 64, 102
1, 99082, Note_off_c, 0, 57, 63
1, 99082, Control_c, 0, 64, 90
1, 99096, Control_c, 0, 64, 77
1, 99111, Control_c, 0, 64, 60
1, 99122, Note_on_c, 0, 59, 82
1, 99126, Control_c, 0, 64, 0
1, 99213, Note_off_c, 0, 59, 61
1, 99320, Note_on_c, 0, 59, 81
1, 99327, Note_on_c, 0, 35, 87
1, 99327, Note_on_c, 0, 51, 90
1, 99328, Note_on_c, 0, 54, 79
1, 99348, Control_c, 0, 64, 45
1, 99356, Note_off_c, 0, 35, 68
1, 99362, Control_c, 0, 64, 100
1, 99377, Control_c, 0, 64, 127
1, 99495, Note_off_c, 0, 51, 47
1, 99515, Note_off_c, 0, 59, 50
1, 99578, Note_off_c, 0, 54, 54
1, 99593, Note_on_c, 0, 37, 82
1, 99594, Control_c, 0, 64, 126
1, 99608, Control_c, 0, 64, 116
1, 99623, Control_c, 0, 64, 106
1, 99638, Control_c, 0, 64, 97
1, 99646, Note_off_c, 0, 37, 65
1, 99653, Control_c, 0, 64, 86
1, 99666, Note_on_c, 0, 38, 91
1, 99668, Control_c, 0, 64, 72
1, 99682, Control_c, 0, 64, 0
1, 99706, Note_off_c, 0, 38, 63
1, 99834, Note_on_c, 0, 54, 94
1, 99836, Note_on_c, 0, 50, 94
1, 99843, Note_on_c, 0, 38, 95
1, 99849, Note_on_c, 0, 26, 84
1, 99869, Note_off_c, 0, 38, 70
1, 99875, Control_c, 0, 64, 84
1, 99875, Note_off_c, 0, 26, 65
1, 99883, Note_off_c, 0, 50, 62
1, 99890, Control_c, 0, 64, 127
1, 99924, Note_off_c, 0, 54, 60
1, 100077, Note_on_c, 0, 56, 89
1, 100126, Control_c, 0, 64, 116
1, 100141, Control_c, 0, 64, 104
1, 100151, Note_on_c, 0, 57, 96
1, 100156, Control_c, 0, 64, 92
1, 100159, Note_off_c, 0, 56, 63
1, 100179, Control_c, 0, 64, 78
1, 100194, Control_c, 0, 64, 54
1, 100209, Control_c, 0, 64, 0
1, 100220, Note_off_c, 0, 57, 61
1, 100361, Note_on_c, 0, 57, 94
1, 100366, Note_on_c, 0, 49, 96
1, 100375, Note_on_c, 0, 54, 83
1, 100378, Note_on_c, 0, 30, 84
1, 100378, Note_on_c, 0, 42, 83
1, 100401, Note_off_c, 0, 49, 64
1, 100402, Control_c, 0, 64, 85
1, 100408, Note_off_c, 0, 42, 67
1, 100417, Control_c, 0, 64, 127
1, 100424, Note_off_c, 0, 57, 67
1, 100433, Note_off_c, 0, 54, 63
1, 100440, Note_off_c, 0, 30, 60
1, 100631, Note_on_c, 0, 32, 84
1, 100653, Control_c, 0, 64, 120
1, 100668, Control_c, 0, 64, 109
1, 100683, Control_c, 0, 64, 100
1, 100691, Note_off_c, 0, 32, 63
1, 100697, Control_c, 0, 64, 89
1, 100711, Note_on_c, 0, 33, 95
1, 100712, Control_c, 0, 64, 74
1, 100727, Control_c, 0, 64, 28
1, 100742, Control_c, 0, 64, 0
1, 100748, Note_off_c, 0, 33, 68
1, 100894, Note_on_c, 0, 61, 95
1, 100898, Note_on_c, 0, 52, 91
1, 100906, Note_on_c, 0, 33, 93
1, 100910, Note_on_c, 0, 57, 64
1, 100941, Note_off_c, 0, 52, 69
1, 100942, Control_c, 0, 64, 88
1, 100946, Note_off_c, 0, 57, 64
1, 100952, Note_off_c, 0, 33, 69
1, 100957, Control_c, 0, 64, 127
1, 100978, Note_off_c, 0, 61, 64
1, 101161, Note_on_c, 0, 63, 77
1, 101227, Note_on_c, 0, 64, 86
1, 101229, Note_off_c, 0, 63, 65
1, 101284, Control_c, 0, 64, 127
1, 101299, Control_c, 0, 64, 109
1, 101301, Note_off_c, 0, 64, 65
1, 101314, Control_c, 0, 64, 95
1, 101328, Control_c, 0, 64, 78
1, 101343, Control_c, 0, 64, 0
1, 101463, Note_on_c, 0, 64, 89
1, 101469, Note_on_c, 0, 36, 85
1, 101469, Note_on_c, 0, 24, 86
1, 101472, Note_on_c, 0, 56, 48
1, 101473, Note_off_c, 0, 56, 127
1, 101473, Note_on_c, 0, 52, 92
1, 101478, Note_on_c, 0, 60, 72
1, 101481, Note_on_c, 0, 55, 76
1, 101490, Control_c, 0, 64, 67
1, 101505, Control_c, 0, 64, 94
1, 101511, Note_off_c, 0, 36, 62
1, 101520, Control_c, 0, 64, 112
1, 101535, Control_c, 0, 64, 118
1, 101540, Note_off_c, 0, 24, 63
1, 101550, Control_c, 0, 64, 125
1, 101553, Note_off_c, 0, 52, 61
1, 101565, Control_c, 0, 64, 127
1, 101602, Note_off_c, 0, 55, 63
1, 101608, Note_off_c, 0, 64, 63
1, 101625, Note_off_c, 0, 60, 62
1, 101713, Note_on_c, 0, 26, 81
1, 101802, Note_on_c, 0, 28, 91
1, 101805, Note_off_c, 0, 26, 64
1, 101840, Control_c, 0, 64, 119
1, 101848, Note_off_c, 0, 28, 64
1, 101855, Control_c, 0, 64, 108
1, 101869, Control_c, 0, 64, 94
1, 101884, Control_c, 0, 64, 80
1, 101899, Control_c, 0, 64, 63
1, 101914, Control_c, 0, 64, 0
1, 102039, Note_on_c, 0, 76, 90
1, 102042, Note_on_c, 0, 64, 88
1, 102055, Note_on_c, 0, 24, 82
1, 102057, Note_on_c, 0, 36, 83
1, 102062, Control_c, 0, 64, 82
1, 102077, Control_c, 0, 64, 119
1, 102084, Note_off_c, 0, 64, 64
1, 102092, Control_c, 0, 64, 127
1, 102109, Note_off_c, 0, 36, 65
1, 102113, Note_off_c, 0, 24, 62
1, 102128, Note_on_c, 0, 72, 84
1, 102149, Note_off_c, 0, 76, 70
1, 102209, Note_on_c, 0, 67, 84
1, 102236, Note_off_c, 0, 72, 64
1, 102287, Note_off_c, 0, 67, 63
1, 102293, Note_on_c, 0, 64, 82
1, 102376, Note_on_c, 0, 67, 88
1, 102376, Note_off_c, 0, 64, 62
1, 102458, Note_on_c, 0, 69, 90
1, 102462, Note_off_c, 0, 67, 64
1, 102516, Note_off_c, 0, 69, 65
1, 102589, Control_c, 0, 64, 105
1, 102598, Note_on_c, 0, 71, 83
1, 102602, Note_on_c, 0, 62, 72
1, 102604, Control_c, 0, 64, 86
1, 102609, Note_on_c, 0, 59, 70
1, 102610, Note_on_c, 0, 55, 60
1, 102618, Control_c, 0, 64, 66
1, 102633, Control_c, 0, 64, 0
1, 102641, Note_on_c, 0, 67, 40
1, 102678, Control_c, 0, 64, 66
1, 102689, Note_off_c, 0, 55, 64
1, 102692, Control_c, 0, 64, 76
1, 102707, Note_on_c, 0, 50, 64
1, 102707, Control_c, 0, 64, 87
1, 102722, Control_c, 0, 64, 96
1, 102737, Control_c, 0, 64, 100
1, 102751, Control_c, 0, 64, 104
1, 102766, Control_c, 0, 64, 108
1, 102781, Note_off_c, 0, 59, 61
1, 102781, Control_c, 0, 64, 113
1, 102790, Note_off_c, 0, 50, 64
1, 102795, Note_on_c, 0, 47, 74
1, 102796, Control_c, 0, 64, 118
1, 102811, Control_c, 0, 64, 124
1, 102812, Note_off_c, 0, 71, 59
1, 102822, Note_off_c, 0, 62, 61
1, 102826, Control_c, 0, 64, 127
1, 102838, Note_off_c, 0, 67, 62
1, 102848, Note_off_c, 0, 47, 65
1, 102882, Note_on_c, 0, 43, 63
1, 102927, Note_off_c, 0, 43, 63
1, 102973, Note_on_c, 0, 43, 71
1, 103038, Note_off_c, 0, 43, 62
1, 103058, Note_on_c, 0, 45, 77
1, 103092, Control_c, 0, 64, 113
1, 103107, Control_c, 0, 64, 89
1, 103122, Control_c, 0, 64, 66
1, 103129, Note_on_c, 0, 74, 82
1, 103136, Control_c, 0, 64, 0
1, 103139, Note_on_c, 0, 62, 80
1, 103159, Note_on_c, 0, 66, 62
1, 103159, Note_off_c, 0, 45, 64
1, 103169, Note_on_c, 0, 47, 75
1, 103189, Control_c, 0, 64, 64
1, 103204, Control_c, 0, 64, 81
1, 103218, Control_c, 0, 64, 103
1, 103222, Note_off_c, 0, 62, 56
1, 103233, Control_c, 0, 64, 127
1, 103258, Note_on_c, 0, 71, 79
1, 103266, Note_off_c, 0, 47, 61
1, 103266, Note_off_c, 0, 66, 64
1, 103276, Note_off_c, 0, 74, 63
1, 103347, Note_on_c, 0, 66, 81
1, 103354, Note_off_c, 0, 71, 62
1, 103414, Note_off_c, 0, 66, 67
1, 103426, Note_on_c, 0, 62, 81
1, 103470, Note_off_c, 0, 62, 62
1, 103511, Note_on_c, 0, 62, 72
1, 103586, Note_on_c, 0, 64, 82
1, 103598, Note_off_c, 0, 62, 61
1, 103649, Control_c, 0, 64, 115
1, 103663, Control_c, 0, 64, 98
1, 103671, Note_off_c, 0, 64, 62
1, 103676, Note_on_c, 0, 65, 83
1, 103678, Control_c, 0, 64, 78
1, 103689, Note_on_c, 0, 57, 69
1, 103693, Control_c, 0, 64, 46
1, 103696, Note_on_c, 0, 38, 59
1, 103700, Note_on_c, 0, 62, 57
1, 103708, Control_c, 0, 64, 0
1, 103753, Control_c, 0, 64, 58
1, 103767, Control_c, 0, 64, 71
1, 103782, Control_c, 0, 64, 80
1, 103784, Note_off_c, 0, 38, 62
1, 103786, Note_on_c, 0, 45, 66
1, 103797, Control_c, 0, 64, 89
1, 103812, Control_c, 0, 64, 95
1, 103827, Control_c, 0, 64, 100
1, 103838, Note_off_c, 0, 57, 55
1, 103841, Control_c, 0, 64, 105
1, 103848, Note_off_c, 0, 45, 65
1, 103856, Control_c, 0, 64, 113
1, 103871, Control_c, 0, 64, 127
1, 103872, Note_on_c, 0, 50, 64
1, 103906, Note_off_c, 0, 65, 54
1, 103929, Note_off_c, 0, 62, 53
1, 103951, Note_off_c, 0, 50, 58
1, 103961, Note_on_c, 0, 52, 79
1, 104036, Note_off_c, 0, 52, 66
1, 104042, Note_on_c, 0, 53, 78
1, 104119, Note_off_c, 0, 53, 65
1, 104122, Note_on_c, 0, 52, 80
1, 104160, Control_c, 0, 64, 110
1, 104174, Control_c, 0, 64, 90
1, 104190, Control_c, 0, 64, 69
1, 104195, Note_on_c, 0, 69, 85
1, 104197, Note_on_c, 0, 62, 72
1, 104206, Note_on_c, 0, 57, 74
1, 104206, Control_c, 0, 64, 0
1, 104215, Note_on_c, 0, 53, 85
1, 104216, Note_off_c, 0, 52, 65
1, 104251, Control_c, 0, 64, 55
1, 104265, Control_c, 0, 64, 77
1, 104270, Note_off_c, 0, 62, 57
1, 104280, Control_c, 0, 64, 97
1, 104286, Note_off_c, 0, 57, 52
1, 104294, Note_on_c, 0, 65, 79
1, 104295, Control_c, 0, 64, 127
1, 104314, Note_off_c, 0, 53, 63
1, 104325, Note_off_c, 0, 69, 64
1, 104384, Note_on_c, 0, 62, 81
1, 104410, Note_off_c, 0, 65, 64
1, 104454, Note_off_c, 0, 62, 62
1, 104474, Note_on_c, 0, 57, 77
1, 104514, Note_off_c, 0, 57, 64
1, 104561, Note_on_c, 0, 57, 67
1, 104633, Note_off_c, 0, 57, 62
1, 104644, Note_on_c, 0, 59, 75
1, 104702, Control_c, 0, 64, 110
1, 104716, Control_c, 0, 64, 94
1, 104723, Note_off_c, 0, 59, 61
1, 104731, Control_c, 0, 64, 73
1, 104734, Note_on_c, 0, 33, 61
1, 104734, Note_on_c, 0, 61, 83
1, 104746, Control_c, 0, 64, 0
1, 104755, Note_on_c, 0, 52, 60
1, 104759, Note_on_c, 0, 57, 55
1, 104805, Control_c, 0, 64, 57
1, 104811, Note_off_c, 0, 33, 65
1, 104817, Note_on_c, 0, 40, 66
1, 104820, Control_c, 0, 64, 70
1, 104835, Control_c, 0, 64, 83
1, 104850, Control_c, 0, 64, 95
1, 104856, Note_off_c, 0, 52, 61
1, 104865, Control_c, 0, 64, 102
1, 104880, Control_c, 0, 64, 105
1, 104893, Note_off_c, 0, 40, 63
1, 104895, Control_c, 0, 64, 108
1, 104909, Control_c, 0, 64, 111
1, 104910, Note_on_c, 0, 45, 68
1, 104924, Control_c, 0, 64, 117
1, 104939, Control_c, 0, 64, 122
1, 104953, Control_c, 0, 64, 127
1, 104982, Note_off_c, 0, 45, 62
1, 104998, Note_on_c, 0, 47, 75
1, 105035, Note_off_c, 0, 61, 53
1, 105073, Control_c, 0, 64, 126
1, 105073, Note_off_c, 0, 47, 64
1, 105079, Note_on_c, 0, 49, 81
1, 105087, Control_c, 0, 64, 123
1, 105102, Control_c, 0, 64, 120
1, 105111, Note_off_c, 0, 57, 39
1, 105117, Control_c, 0, 64, 117
1, 105132, Control_c, 0, 64, 114
1, 105146, Control_c, 0, 64, 111
1, 105161, Control_c, 0, 64, 108
1, 105176, Control_c, 0, 64, 106
1, 105179, Note_on_c, 0, 64, 90
1, 105186, Note_on_c, 0, 55, 81
1, 105191, Control_c, 0, 64, 103
1, 105206, Control_c, 0, 64, 100
1, 105220, Control_c, 0, 64, 96
1, 105235, Control_c, 0, 64, 93
1, 105250, Control_c, 0, 64, 89
1, 105265, Control_c, 0, 64, 84
1, 105280, Control_c, 0, 64, 78
1, 105294, Control_c, 0, 64, 69
1, 105309, Control_c, 0, 64, 0
1, 105328, Note_off_c, 0, 49, 60
1, 105336, Note_on_c, 0, 44, 89
1, 105443, Note_off_c, 0, 64, 60
1, 105450, Control_c, 0, 64, 66
1, 105465, Control_c, 0, 64, 72
1, 105474, Note_on_c, 0, 61, 77
1, 105480, Control_c, 0, 64, 79
1, 105489, Note_off_c, 0, 55, 53
1, 105494, Control_c, 0, 64, 84
1, 105509, Control_c, 0, 64, 90
1, 105524, Control_c, 0, 64, 94
1, 105538, Control_c, 0, 64, 98
1, 105553, Control_c, 0, 64, 100
1, 105568, Control_c, 0, 64, 101
1, 105569, Note_on_c, 0, 58, 78
1, 105583, Control_c, 0, 64, 101
1, 105590, Note_off_c, 0, 61, 63
1, 105613, Control_c, 0, 64, 102
1, 105660, Note_off_c, 0, 44, 62
1, 105661, Note_on_c, 0, 55, 76
1, 105661, Note_off_c, 0, 58, 66
1, 105739, Note_on_c, 0, 52, 80
1, 105742, Note_off_c, 0, 55, 64
1, 105746, Control_c, 0, 64, 101
1, 105799, Note_off_c, 0, 52, 66
1, 105807, Control_c, 0, 64, 101
1, 105822, Control_c, 0, 64, 100
1, 105836, Control_c, 0, 64, 99
1, 105836, Note_on_c, 0, 60, 90
1, 105839, Note_on_c, 0, 57, 88
1, 105851, Control_c, 0, 64, 98
1, 105866, Control_c, 0, 64, 96
1, 105881, Control_c, 0, 64, 93
1, 105896, Control_c, 0, 64, 90
1, 105910, Control_c, 0, 64, 85
1, 105925, Control_c, 0, 64, 78
1, 105940, Control_c, 0, 64, 69
1, 105955, Control_c, 0, 64, 46
1, 105968, Note_on_c, 0, 44, 89
1, 105969, Control_c, 0, 64, 0
1, 106079, Note_off_c, 0, 57, 56
1, 106093, Note_on_c, 0, 56, 75
1, 106103, Control_c, 0, 64, 25
1, 106107, Note_off_c, 0, 60, 53
1, 106117, Control_c, 0, 64, 46
1, 106132, Control_c, 0, 64, 52
1, 106147, Control_c, 0, 64, 55
1, 106169, Control_c, 0, 64, 57
1, 106179, Note_off_c, 0, 56, 65
1, 106184, Control_c, 0, 64, 59
1, 106188, Note_on_c, 0, 55, 71
1, 106199, Control_c, 0, 64, 61
1, 106214, Control_c, 0, 64, 62
1, 106229, Control_c, 0, 64, 62
1, 106236, Note_off_c, 0, 55, 64
1, 106243, Control_c, 0, 64, 63
1, 106258, Control_c, 0, 64, 63
1, 106259, Note_on_c, 0, 54, 73
1, 106273, Control_c, 0, 64, 64
1, 106287, Control_c, 0, 64, 64
1, 106353, Note_off_c, 0, 54, 59
1, 106356, Note_on_c, 0, 52, 74
1, 106400, Note_off_c, 0, 52, 64
1, 106415, Note_on_c, 0, 54, 84
1, 106473, Note_on_c, 0, 52, 83
1, 106476, Note_off_c, 0, 44, 64
1, 106480, Note_off_c, 0, 54, 63
1, 106480, Control_c, 0, 64, 64
1, 106540, Control_c, 0, 64, 64
1, 106600, Control_c, 0, 64, 64
1, 106629, Control_c, 0, 64, 63
1, 106644, Control_c, 0, 64, 63
1, 106659, Control_c, 0, 64, 62
1, 106670, Note_off_c, 0, 52, 63
1, 106674, Control_c, 0, 64, 61
1, 106684, Note_on_c, 0, 51, 81
1, 106689, Control_c, 0, 64, 56
1, 106703, Control_c, 0, 64, 37
1, 106718, Control_c, 0, 64, 0
1, 106758, Note_off_c, 0, 51, 59
1, 106817, Note_on_c, 0, 52, 92
1, 106823, Note_on_c, 0, 49, 90
1, 106828, Note_on_c, 0, 37, 88
1, 106830, Note_on_c, 0, 25, 73
1, 106852, Control_c, 0, 64, 62
1, 106856, Note_off_c, 0, 25, 65
1, 106862, Note_off_c, 0, 37, 64
1, 106862, Note_off_c, 0, 49, 64
1, 106866, Control_c, 0, 64, 100
1, 106871, Note_off_c, 0, 52, 68
1, 106881, Control_c, 0, 64, 127
1, 107113, Note_on_c, 0, 39, 77
1, 107184, Control_c, 0, 64, 123
1, 107189, Note_on_c, 0, 40, 91
1, 107192, Note_off_c, 0, 39, 63
1, 107199, Control_c, 0, 64, 116
1, 107214, Control_c, 0, 64, 108
1, 107229, Control_c, 0, 64, 99
1, 107239, Note_off_c, 0, 40, 65
1, 107243, Control_c, 0, 64, 92
1, 107258, Control_c, 0, 64, 85
1, 107273, Control_c, 0, 64, 80
1, 107288, Control_c, 0, 64, 76
1, 107302, Control_c, 0, 64, 71
1, 107317, Control_c, 0, 64, 63
1, 107332, Control_c, 0, 64, 0
1, 107410, Note_on_c, 0, 80, 93
1, 107422, Note_on_c, 0, 68, 76
1, 107427, Note_on_c, 0, 71, 72
1, 107428, Note_on_c, 0, 40, 81
1, 107467, Control_c, 0, 64, 74
1, 107481, Control_c, 0, 64, 93
1, 107491, Note_off_c, 0, 68, 52
1, 107496, Control_c, 0, 64, 127
1, 107503, Note_off_c, 0, 71, 58
1, 107506, Note_on_c, 0, 76, 73
1, 107533, Note_off_c, 0, 40, 62
1, 107547, Note_off_c, 0, 80, 67
1, 107588, Note_on_c, 0, 71, 77
1, 107605, Note_off_c, 0, 76, 63
1, 107682, Note_off_c, 0, 71, 61
1, 107682, Note_on_c, 0, 68, 74
1, 107767, Note_on_c, 0, 71, 70
1, 107768, Note_off_c, 0, 68, 61
1, 107838, Note_off_c, 0, 71, 60
1, 107840, Note_on_c, 0, 73, 80
1, 107909, Note_off_c, 0, 73, 62
1, 107957, Note_on_c, 0, 75, 84
1, 107962, Control_c, 0, 64, 120
1, 107973, Note_on_c, 0, 63, 66
1, 107977, Control_c, 0, 64, 98
1, 107985, Note_on_c, 0, 66, 63
1, 107987, Note_on_c, 0, 47, 66
1, 107992, Control_c, 0, 64, 76
1, 107993, Note_on_c, 0, 35, 60
1, 108007, Control_c, 0, 64, 0
1, 108051, Control_c, 0, 64, 63
1, 108058, Note_off_c, 0, 47, 60
1, 108066, Control_c, 0, 64, 77
1, 108081, Control_c, 0, 64, 97
1, 108093, Note_off_c, 0, 63, 63
1, 108096, Control_c, 0, 64, 119
1, 108103, Note_off_c, 0, 35, 37
1, 108111, Control_c, 0, 64, 127
1, 108126, Note_off_c, 0, 75, 61
1, 108141, Note_off_c, 0, 66, 65
1, 108251, Note_on_c, 0, 37, 78
1, 108327, Note_off_c, 0, 37, 64
1, 108331, Note_on_c, 0, 38, 87
1, 108377, Note_off_c, 0, 38, 64
1, 108445, Control_c, 0, 64, 119
1, 108460, Control_c, 0, 64, 106
1, 108475, Control_c, 0, 64, 87
1, 108489, Control_c, 0, 64, 67
1, 108504, Control_c, 0, 64, 0
1, 108529, Note_on_c, 0, 78, 91
1, 108536, Note_on_c, 0, 69, 76
1, 108537, Note_on_c, 0, 66, 87
1, 108546, Note_on_c, 0, 38, 87
1, 108563, Control_c, 0, 64, 59
1, 108578, Control_c, 0, 64, 87
1, 108593, Control_c, 0, 64, 127
1, 108613, Note_off_c, 0, 66, 61
1, 108613, Note_off_c, 0, 78, 68
1, 108620, Note_off_c, 0, 69, 62
1, 108621, Note_on_c, 0, 74, 78
1, 108639, Note_off_c, 0, 38, 61
1, 108707, Note_on_c, 0, 69, 80
1, 108720, Note_off_c, 0, 74, 61
1, 108777, Note_off_c, 0, 69, 65
1, 108785, Note_on_c, 0, 66, 82
1, 108866, Note_off_c, 0, 66, 65
1, 108869, Note_on_c, 0, 69, 78
1, 108943, Note_off_c, 0, 69, 66
1, 108945, Note_on_c, 0, 71, 80
1, 109008, Note_off_c, 0, 71, 60
1, 109093, Note_on_c, 0, 73, 78
1, 109097, Control_c, 0, 64, 103
1, 109104, Note_on_c, 0, 61, 66
1, 109110, Note_on_c, 0, 45, 60
1, 109110, Note_on_c, 0, 33, 56
1, 109110, Note_on_c, 0, 64, 60
1, 109112, Control_c, 0, 64, 84
1, 109119, Note_on_c, 0, 69, 58
1, 109127, Control_c, 0, 64, 41
1, 109142, Control_c, 0, 64, 0
1, 109223, Control_c, 0, 64, 54
1, 109238, Control_c, 0, 64, 67
1, 109253, Control_c, 0, 64, 74
1, 109268, Control_c, 0, 64, 83
1, 109282, Control_c, 0, 64, 93
1, 109297, Note_off_c, 0, 61, 62
1, 109297, Control_c, 0, 64, 103
1, 109312, Control_c, 0, 64, 115
1, 109327, Control_c, 0, 64, 127
1, 109330, Note_off_c, 0, 33, 41
1, 109344, Note_off_c, 0, 64, 63
1, 109348, Note_off_c, 0, 73, 58
1, 109354, Note_off_c, 0, 69, 62
1, 109368, Note_off_c, 0, 45, 36
1, 109378, Note_on_c, 0, 35, 70
1, 109485, Note_on_c, 0, 37, 68
1, 109493, Note_off_c, 0, 35, 53
1, 109580, Note_off_c, 0, 37, 61
1, 109667, Control_c, 0, 64, 120
1, 109682, Control_c, 0, 64, 109
1, 109693, Note_on_c, 0, 76, 79
1, 109697, Control_c, 0, 64, 97
1, 109712, Control_c, 0, 64, 78
1, 109713, Note_on_c, 0, 37, 57
1, 109722, Note_on_c, 0, 64, 52
1, 109726, Note_on_c, 0, 68, 57
1, 109727, Control_c, 0, 64, 41
1, 109741, Control_c, 0, 64, 0
1, 109761, Note_off_c, 0, 64, 45
1, 109816, Control_c, 0, 64, 64
1, 109831, Control_c, 0, 64, 72
1, 109846, Control_c, 0, 64, 83
1, 109861, Control_c, 0, 64, 96
1, 109864, Note_off_c, 0, 37, 62
1, 109871, Note_on_c, 0, 73, 76
1, 109876, Control_c, 0, 64, 110
1, 109891, Control_c, 0, 64, 127
1, 109929, Note_off_c, 0, 68, 56
1, 109947, Note_off_c, 0, 76, 40
1, 109987, Note_on_c, 0, 64, 75
1, 110042, Note_off_c, 0, 73, 53
1, 110099, Note_on_c, 0, 68, 84
1, 110141, Note_off_c, 0, 64, 59
1, 110180, Control_c, 0, 64, 112
1, 110195, Control_c, 0, 64, 87
1, 110208, Note_on_c, 0, 55, 76
1, 110209, Control_c, 0, 64, 72
1, 110224, Control_c, 0, 64, 64
1, 110239, Control_c, 0, 64, 68
1, 110254, Control_c, 0, 64, 78
1, 110269, Control_c, 0, 64, 93
1, 110273, Note_off_c, 0, 55, 64
1, 110284, Control_c, 0, 64, 121
1, 110299, Control_c, 0, 64, 127
1, 110312, Note_on_c, 0, 70, 80
1, 110334, Note_off_c, 0, 68, 62
1, 110367, Note_off_c, 0, 70, 62
1, 110561, Note_on_c, 0, 72, 72
1, 110565, Control_c, 0, 64, 110
1, 110581, Control_c, 0, 64, 96
1, 110582, Note_on_c, 0, 63, 53
1, 110583, Note_on_c, 0, 56, 51
1, 110596, Control_c, 0, 64, 82
1, 110605, Note_on_c, 0, 60, 42
1, 110611, Control_c, 0, 64, 67
1, 110612, Note_on_c, 0, 68, 45
1, 110625, Control_c, 0, 64, 0
1, 110666, Note_off_c, 0, 60, 0
1, 110666, Note_on_c, 0, 60, 8
1, 110719, Note_off_c, 0, 56, 54
1, 110722, Control_c, 0, 64, 64
1, 110737, Control_c, 0, 64, 74
1, 110740, Note_on_c, 0, 51, 51
1, 110752, Control_c, 0, 64, 86
1, 110753, Note_off_c, 0, 72, 63
1, 110766, Control_c, 0, 64, 102
1, 110771, Note_off_c, 0, 60, 53
1, 110781, Control_c, 0, 64, 112
1, 110796, Control_c, 0, 64, 125
1, 110811, Control_c, 0, 64, 127
1, 110814, Note_off_c, 0, 68, 59
1, 110824, Note_off_c, 0, 63, 61
1, 110871, Note_off_c, 0, 51, 57
1, 110877, Note_on_c, 0, 48, 58
1, 110964, Note_off_c, 0, 48, 64
1, 110985, Note_on_c, 0, 44, 58
1, 111042, Note_off_c, 0, 44, 62
1, 111190, Note_on_c, 0, 60, 72
1, 111232, Note_on_c, 0, 44, 44
1, 111333, Note_off_c, 0, 44, 62
1, 111342, Note_on_c, 0, 43, 55
1, 111342, Control_c, 0, 64, 121
1, 111357, Control_c, 0, 64, 115
1, 111373, Control_c, 0, 64, 111
1, 111388, Control_c, 0, 64, 108
1, 111411, Control_c, 0, 64, 106
1, 111426, Control_c, 0, 64, 104
1, 111441, Control_c, 0, 64, 101
1, 111455, Control_c, 0, 64, 98
1, 111455, Note_off_c, 0, 43, 59
1, 111470, Control_c, 0, 64, 95
1, 111485, Control_c, 0, 64, 93
1, 111494, Note_on_c, 0, 56, 63
1, 111500, Control_c, 0, 64, 91
1, 111504, Note_on_c, 0, 41, 61
1, 111514, Control_c, 0, 64, 89
1, 111529, Control_c, 0, 64, 86
1, 111544, Control_c, 0, 64, 83
1, 111559, Control_c, 0, 64, 81
1, 111574, Control_c, 0, 64, 78
1, 111588, Control_c, 0, 64, 75
1, 111603, Control_c, 0, 64, 72
1, 111618, Control_c, 0, 64, 68
1, 111633, Control_c, 0, 64, 61
1, 111637, Note_off_c, 0, 41, 37
1, 111647, Note_on_c, 0, 36, 54
1, 111648, Control_c, 0, 64, 46
1, 111662, Control_c, 0, 64, 31
1, 111677, Control_c, 0, 64, 32
1, 111692, Control_c, 0, 64, 33
1, 111721, Control_c, 0, 64, 30
1, 111751, Note_off_c, 0, 36, 62
1, 111751, Control_c, 0, 64, 31
1, 111766, Control_c, 0, 64, 34
1, 111773, Note_on_c, 0, 32, 53
1, 111780, Control_c, 0, 64, 35
1, 111795, Control_c, 0, 64, 34
1, 111810, Control_c, 0, 64, 33
1, 111825, Control_c, 0, 64, 34
1, 111840, Control_c, 0, 64, 40
1, 111855, Control_c, 0, 64, 50
1, 111870, Control_c, 0, 64, 59
1, 111885, Control_c, 0, 64, 64
1, 111899, Control_c, 0, 64, 66
1, 111911, Note_on_c, 0, 29, 52
1, 111911, Note_off_c, 0, 60, 53
1, 111914, Control_c, 0, 64, 69
1, 111929, Control_c, 0, 64, 71
1, 111944, Control_c, 0, 64, 72
1, 111944, Note_off_c, 0, 32, 34
1, 111959, Control_c, 0, 64, 73
1, 111973, Control_c, 0, 64, 74
1, 112003, Control_c, 0, 64, 75
1, 112018, Control_c, 0, 64, 78
1, 112033, Control_c, 0, 64, 83
1, 112047, Control_c, 0, 64, 90
1, 112062, Control_c, 0, 64, 95
1, 112077, Control_c, 0, 64, 104
1, 112091, Control_c, 0, 64, 110
1, 112106, Control_c, 0, 64, 118
1, 112115, Note_on_c, 0, 62, 51
1, 112121, Control_c, 0, 64, 126
1, 112136, Control_c, 0, 64, 127
1, 112156, Note_off_c, 0, 29, 40
1, 112211, Note_off_c, 0, 62, 60
1, 112254, Note_off_c, 0, 56, 55
1, 112564, Note_on_c, 0, 64, 51
1, 112571, Note_on_c, 0, 24, 47
1, 112573, Note_on_c, 0, 55, 42
1, 112592, Note_on_c, 0, 52, 38
1, 112603, Control_c, 0, 64, 114
1, 112613, Note_on_c, 0, 60, 32
1, 112618, Control_c, 0, 64, 101
1, 112633, Control_c, 0, 64, 87
1, 112648, Control_c, 0, 64, 75
1, 112663, Control_c, 0, 64, 63
1, 112678, Control_c, 0, 64, 27
1, 112693, Control_c, 0, 64, 58
1, 112707, Control_c, 0, 64, 68
1, 112722, Control_c, 0, 64, 75
1, 112726, Note_on_c, 0, 28, 47
1, 112728, Note_off_c, 0, 64, 63
1, 112737, Control_c, 0, 64, 83
1, 112749, Note_off_c, 0, 24, 40
1, 112752, Control_c, 0, 64, 90
1, 112766, Note_off_c, 0, 60, 55
1, 112767, Control_c, 0, 64, 95
1, 112782, Control_c, 0, 64, 99
1, 112784, Note_off_c, 0, 52, 42
1, 112796, Control_c, 0, 64, 101
1, 112811, Control_c, 0, 64, 104
1, 112818, Note_off_c, 0, 55, 40
1, 112826, Note_off_c, 0, 28, 54
1, 112826, Control_c, 0, 64, 107
1, 112836, Note_on_c, 0, 31, 56
1, 112841, Control_c, 0, 64, 112
1, 112855, Control_c, 0, 64, 119
1, 112870, Control_c, 0, 64, 127
1, 112915, Note_off_c, 0, 31, 61
1, 112938, Note_on_c, 0, 36, 47
1, 112988, Note_off_c, 0, 36, 56
1, 113089, Note_on_c, 0, 40, 56
1, 113091, Note_on_c, 0, 36, 44
1, 113152, Note_off_c, 0, 36, 60
1, 113175, Note_off_c, 0, 40, 62
1, 113196, Note_on_c, 0, 43, 55
1, 113271, Note_off_c, 0, 43, 60
1, 113286, Note_on_c, 0, 48, 65
1, 113359, Note_off_c, 0, 48, 64
1, 113381, Note_on_c, 0, 52, 51
1, 113405, Note_off_c, 0, 52, 64
1, 113471, Control_c, 0, 64, 117
1, 113482, Note_on_c, 0, 36, 53
1, 113485, Note_on_c, 0, 52, 62
1, 113485, Control_c, 0, 64, 101
1, 113500, Control_c, 0, 64, 87
1, 113515, Control_c, 0, 64, 76
1, 113530, Control_c, 0, 64, 69
1, 113545, Control_c, 0, 64, 70
1, 113560, Control_c, 0, 64, 76
1, 113569, Note_off_c, 0, 36, 61
1, 113575, Control_c, 0, 64, 86
1, 113578, Note_on_c, 0, 40, 61
1, 113588, Note_off_c, 0, 52, 65
1, 113590, Control_c, 0, 64, 97
1, 113605, Control_c, 0, 64, 108
1, 113619, Control_c, 0, 64, 115
1, 113634, Control_c, 0, 64, 120
1, 113656, Control_c, 0, 64, 126
1, 113663, Note_on_c, 0, 43, 59
1, 113663, Note_off_c, 0, 40, 62
1, 113671, Control_c, 0, 64, 127
1, 113718, Note_off_c, 0, 43, 61
1, 113720, Note_on_c, 0, 48, 68
1, 113764, Note_off_c, 0, 48, 62
1, 113833, Note_on_c, 0, 52, 68
1, 113858, Note_on_c, 0, 48, 57
1, 113897, Note_off_c, 0, 52, 65
1, 113912, Note_on_c, 0, 55, 75
1, 113920, Note_off_c, 0, 48, 61
1, 113987, Note_off_c, 0, 55, 60
1, 114001, Note_on_c, 0, 60, 74
1, 114078, Note_on_c, 0, 64, 76
1, 114078, Note_off_c, 0, 60, 62
1, 114162, Control_c, 0, 64, 113
1, 114165, Note_off_c, 0, 64, 63
1, 114170, Note_on_c, 0, 67, 82
1, 114176, Control_c, 0, 64, 94
1, 114191, Control_c, 0, 64, 76
1, 114192, Note_on_c, 0, 40, 59
1, 114206, Control_c, 0, 64, 0
1, 114250, Control_c, 0, 64, 64
1, 114265, Control_c, 0, 64, 76
1, 114280, Control_c, 0, 64, 90
1, 114281, Note_off_c, 0, 67, 57
1, 114284, Note_on_c, 0, 43, 63
1, 114284, Note_off_c, 0, 40, 62
1, 114294, Control_c, 0, 64, 107
1, 114309, Control_c, 0, 64, 119
1, 114324, Control_c, 0, 64, 127
1, 114347, Note_on_c, 0, 47, 70
1, 114361, Note_off_c, 0, 43, 59
1, 114421, Note_off_c, 0, 47, 64
1, 114435, Note_on_c, 0, 52, 72
1, 114482, Note_off_c, 0, 52, 63
1, 114514, Note_on_c, 0, 55, 73
1, 114551, Note_on_c, 0, 52, 60
1, 114583, Note_off_c, 0, 55, 64
1, 114598, Note_on_c, 0, 59, 74
1, 114611, Note_off_c, 0, 52, 66
1, 114683, Note_on_c, 0, 64, 76
1, 114720, Note_off_c, 0, 59, 56
1, 114755, Note_on_c, 0, 67, 83
1, 114764, Note_off_c, 0, 64, 63
1, 114851, Control_c, 0, 64, 112
1, 114860, Note_on_c, 0, 71, 86
1, 114863, Note_off_c, 0, 67, 62
1, 114866, Control_c, 0, 64, 89
1, 114881, Control_c, 0, 64, 63
1, 114887, Note_on_c, 0, 43, 58
1, 114895, Control_c, 0, 64, 0
1, 114940, Control_c, 0, 64, 64
1, 114955, Control_c, 0, 64, 77
1, 114966, Note_on_c, 0, 47, 73
1, 114970, Control_c, 0, 64, 99
1, 114976, Note_off_c, 0, 43, 59
1, 114985, Control_c, 0, 64, 126
1, 114990, Note_off_c, 0, 71, 59
1, 114999, Control_c, 0, 64, 127
1, 115036, Note_on_c, 0, 50, 66
1, 115043, Note_off_c, 0, 47, 64
1, 115095, Note_off_c, 0, 50, 62
1, 115110, Note_on_c, 0, 55, 69
1, 115161, Note_off_c, 0, 55, 59
1, 115202, Note_on_c, 0, 59, 73
1, 115224, Note_on_c, 0, 55, 66
1, 115266, Note_off_c, 0, 59, 63
1, 115279, Note_on_c, 0, 62, 73
1, 115283, Note_off_c, 0, 55, 64
1, 115360, Note_off_c, 0, 62, 61
1, 115361, Note_on_c, 0, 67, 76
1, 115441, Note_on_c, 0, 71, 68
1, 115443, Note_off_c, 0, 67, 64
1, 115470, Note_off_c, 0, 71, 65
1, 115539, Note_on_c, 0, 71, 85
1, 115540, Control_c, 0, 64, 117
1, 115551, Note_on_c, 0, 55, 59
1, 115554, Control_c, 0, 64, 93
1, 115569, Control_c, 0, 64, 72
1, 115584, Control_c, 0, 64, 0
1, 115629, Control_c, 0, 64, 68
1, 115643, Note_off_c, 0, 55, 64
1, 115644, Control_c, 0, 64, 87
1, 115647, Note_on_c, 0, 59, 61
1, 115659, Control_c, 0, 64, 115
1, 115665, Note_off_c, 0, 71, 61
1, 115673, Control_c, 0, 64, 127
1, 115706, Note_on_c, 0, 62, 66
1, 115716, Note_off_c, 0, 59, 61
1, 115763, Note_off_c, 0, 62, 61
1, 115787, Note_on_c, 0, 67, 70
1, 115828, Note_off_c, 0, 67, 54
1, 115881, Note_on_c, 0, 71, 71
1, 115909, Note_on_c, 0, 67, 62
1, 115960, Note_off_c, 0, 71, 61
1, 115976, Note_on_c, 0, 74, 74
1, 116014, Note_off_c, 0, 67, 59
1, 116064, Note_on_c, 0, 79, 75
1, 116124, Note_off_c, 0, 74, 39
1, 116147, Note_on_c, 0, 83, 80
1, 116151, Note_off_c, 0, 79, 65
1, 116273, Note_off_c, 0, 83, 59
1, 116276, Note_on_c, 0, 86, 78
1, 116289, Control_c, 0, 64, 105
1, 116297, Note_on_c, 0, 59, 56
1, 116303, Control_c, 0, 64, 85
1, 116318, Control_c, 0, 64, 63
1, 116333, Control_c, 0, 64, 0
1, 116377, Control_c, 0, 64, 55
1, 116392, Control_c, 0, 64, 74
1, 116404, Note_off_c, 0, 86, 60
1, 116407, Control_c, 0, 64, 97
1, 116411, Note_on_c, 0, 62, 59
1, 116412, Note_off_c, 0, 59, 57
1, 116422, Control_c, 0, 64, 127
1, 116502, Note_on_c, 0, 66, 69
1, 116510, Note_off_c, 0, 62, 54
1, 116615, Note_on_c, 0, 71, 66
1, 116677, Note_off_c, 0, 66, 39
1, 116682, Note_off_c, 0, 71, 59
1, 116777, Note_on_c, 0, 74, 61
1, 116786, Note_on_c, 0, 71, 62
1, 116902, Note_off_c, 0, 74, 62
1, 116914, Note_on_c, 0, 78, 70
1, 116965, Note_off_c, 0, 78, 64
1, 117009, Note_off_c, 0, 71, 53
1, 117054, Note_on_c, 0, 83, 77
1, 117203, Note_on_c, 0, 86, 79
1, 117572, Note_on_c, 0, 38, 44
1, 117593, Control_c, 0, 64, 126
1, 117608, Control_c, 0, 64, 111
1, 117623, Control_c, 0, 64, 99
1, 117638, Control_c, 0, 64, 85
1, 117653, Control_c, 0, 64, 67
1, 117668, Control_c, 0, 64, 0
1, 117689, Note_on_c, 0, 90, 78
1, 117712, Note_off_c, 0, 86, 55
1, 117714, Note_off_c, 0, 83, 47
1, 117757, Control_c, 0, 64, 58
1, 117772, Control_c, 0, 64, 69
1, 117787, Control_c, 0, 64, 78
1, 117802, Control_c, 0, 64, 89
1, 117817, Control_c, 0, 64, 101
1, 117832, Control_c, 0, 64, 114
1, 117847, Control_c, 0, 64, 127
1, 117897, Note_off_c, 0, 90, 57
1, 117930, Note_on_c, 0, 45, 48
1, 117956, Note_off_c, 0, 38, 40
1, 118019, Note_off_c, 0, 45, 63
1, 118079, Note_on_c, 0, 50, 46
1, 118130, Note_off_c, 0, 50, 55
1, 118197, Note_on_c, 0, 52, 57
1, 118287, Note_off_c, 0, 52, 64
1, 118318, Note_on_c, 0, 54, 50
1, 118368, Note_off_c, 0, 54, 62
1, 118404, Note_on_c, 0, 52, 53
1, 118448, Note_off_c, 0, 52, 64
1, 118479, Note_on_c, 0, 54, 56
1, 118537, Note_off_c, 0, 54, 60
1, 118556, Note_on_c, 0, 52, 63
1, 118608, Note_off_c, 0, 52, 65
1, 118657, Note_on_c, 0, 50, 58
1, 118692, Note_off_c, 0, 50, 63
1, 118749, Note_on_c, 0, 45, 63
1, 118828, Note_off_c, 0, 45, 64
1, 118845, Note_on_c, 0, 38, 68
1, 118932, Note_off_c, 0, 38, 62
1, 118965, Note_on_c, 0, 45, 55
1, 118973, Control_c, 0, 64, 109
1, 118988, Control_c, 0, 64, 89
1, 119003, Control_c, 0, 64, 70
1, 119015, Note_off_c, 0, 45, 59
1, 119018, Control_c, 0, 64, 49
1, 119033, Control_c, 0, 64, 44
1, 119043, Note_on_c, 0, 38, 63
1, 119047, Control_c, 0, 64, 66
1, 119062, Control_c, 0, 64, 78
1, 119077, Control_c, 0, 64, 94
1, 119091, Control_c, 0, 64, 118
1, 119106, Control_c, 0, 64, 127
1, 119128, Note_on_c, 0, 45, 58
1, 119134, Note_off_c, 0, 38, 59
1, 119195, Note_off_c, 0, 45, 64
1, 119239, Note_on_c, 0, 50, 58
1, 119277, Note_off_c, 0, 50, 60
1, 119330, Note_on_c, 0, 52, 58
1, 119407, Note_off_c, 0, 52, 65
1, 119424, Note_on_c, 0, 54, 57
1, 119487, Note_off_c, 0, 54, 61
1, 119510, Note_on_c, 0, 52, 61
1, 119558, Note_off_c, 0, 52, 65
1, 119578, Note_on_c, 0, 54, 61
1, 119654, Note_off_c, 0, 54, 62
1, 119671, Note_on_c, 0, 52, 70
1, 119723, Note_off_c, 0, 52, 65
1, 119754, Note_on_c, 0, 50, 73
1, 119796, Note_off_c, 0, 50, 61
1, 119850, Note_on_c, 0, 45, 65
1, 119936, Note_off_c, 0, 45, 63
1, 119959, Note_on_c, 0, 38, 64
1, 120045, Note_off_c, 0, 38, 62
1, 120065, Note_on_c, 0, 45, 63
1, 120181, Note_off_c, 0, 45, 59
1, 120190, Note_on_c, 0, 38, 62
1, 120314, Control_c, 0, 64, 124
1, 120328, Control_c, 0, 64, 111
1, 120339, Note_on_c, 0, 66, 85
1, 120343, Control_c, 0, 64, 100
1, 120358, Control_c, 0, 64, 87
1, 120373, Control_c, 0, 64, 71
1, 120395, Control_c, 0, 64, 0
1, 120455, Control_c, 0, 64, 62
1, 120469, Control_c, 0, 64, 70
1, 120484, Control_c, 0, 64, 79
1, 120499, Control_c, 0, 64, 89
1, 120514, Control_c, 0, 64, 96
1, 120514, Note_off_c, 0, 38, 55
1, 120518, Note_on_c, 0, 45, 53
1, 120529, Control_c, 0, 64, 104
1, 120543, Control_c, 0, 64, 112
1, 120558, Control_c, 0, 64, 122
1, 120573, Control_c, 0, 64, 127
1, 120596, Note_off_c, 0, 45, 64
1, 120642, Note_on_c, 0, 50, 53
1, 120710, Note_off_c, 0, 50, 54
1, 120743, Note_on_c, 0, 52, 60
1, 120831, Note_off_c, 0, 52, 65
1, 120849, Note_on_c, 0, 54, 55
1, 120919, Note_off_c, 0, 54, 61
1, 120950, Note_on_c, 0, 52, 58
1, 120995, Note_off_c, 0, 52, 63
1, 121026, Note_on_c, 0, 54, 62
1, 121097, Note_off_c, 0, 54, 62
1, 121109, Note_on_c, 0, 52, 71
1, 121182, Note_off_c, 0, 52, 66
1, 121215, Note_on_c, 0, 50, 64
1, 121218, Note_on_c, 0, 64, 86
1, 121258, Note_off_c, 0, 50, 57
1, 121342, Note_on_c, 0, 45, 46
1, 121388, Note_off_c, 0, 66, 0
1, 121391, Note_off_c, 0, 45, 62
1, 121404, Note_on_c, 0, 62, 87
1, 121414, Note_on_c, 0, 38, 64
1, 121449, Note_off_c, 0, 64, 60
1, 121451, Poly_aftertouch_c, 0, 66, 0
1, 121487, Note_off_c, 0, 38, 62
1, 121502, Note_on_c, 0, 45, 51
1, 121537, Note_off_c, 0, 45, 63
1, 121662, Control_c, 0, 64, 118
1, 121677, Control_c, 0, 64, 94
1, 121679, Note_on_c, 0, 59, 79
1, 121692, Control_c, 0, 64, 74
1, 121701, Note_off_c, 0, 62, 58
1, 121702, Note_on_c, 0, 43, 53
1, 121707, Control_c, 0, 64, 0
1, 121767, Control_c, 0, 64, 64
1, 121781, Control_c, 0, 64, 76
1, 121796, Control_c, 0, 64, 91
1, 121808, Note_off_c, 0, 43, 61
1, 121811, Control_c, 0, 64, 112
1, 121814, Note_on_c, 0, 50, 58
1, 121826, Control_c, 0, 64, 127
1, 121896, Note_off_c, 0, 50, 62
1, 121896, Note_off_c, 0, 59, 61
1, 121923, Note_on_c, 0, 55, 52
1, 121981, Note_off_c, 0, 55, 56
1, 122027, Note_on_c, 0, 57, 58
1, 122084, Note_off_c, 0, 57, 58
1, 122095, Note_on_c, 0, 62, 84
1, 122126, Note_on_c, 0, 59, 51
1, 122190, Note_off_c, 0, 59, 57
1, 122213, Note_on_c, 0, 57, 50
1, 122272, Note_off_c, 0, 57, 56
1, 122318, Note_on_c, 0, 59, 45
1, 122425, Note_off_c, 0, 59, 40
1, 122440, Note_on_c, 0, 64, 85
1, 122477, Note_off_c, 0, 62, 59
1, 122901, Note_on_c, 0, 66, 74
1, 122908, Control_c, 0, 64, 117
1, 122911, Note_on_c, 0, 38, 50
1, 122923, Control_c, 0, 64, 96
1, 122926, Note_off_c, 0, 64, 57
1, 122938, Control_c, 0, 64, 77
1, 122953, Control_c, 0, 64, 0
1, 123012, Control_c, 0, 64, 64
1, 123027, Control_c, 0, 64, 74
1, 123042, Control_c, 0, 64, 86
1, 123046, Note_off_c, 0, 38, 56
1, 123056, Control_c, 0, 64, 101
1, 123063, Note_on_c, 0, 45, 51
1, 123071, Control_c, 0, 64, 113
1, 123086, Control_c, 0, 64, 124
1, 123101, Control_c, 0, 64, 127
1, 123111, Note_off_c, 0, 45, 64
1, 123164, Note_on_c, 0, 50, 52
1, 123211, Note_off_c, 0, 50, 54
1, 123260, Note_on_c, 0, 52, 60
1, 123325, Note_off_c, 0, 52, 63
1, 123360, Note_on_c, 0, 54, 56
1, 123421, Note_off_c, 0, 54, 61
1, 123458, Note_on_c, 0, 52, 58
1, 123509, Note_off_c, 0, 52, 58
1, 123532, Note_on_c, 0, 54, 61
1, 123719, Note_on_c, 0, 64, 78
1, 123723, Note_off_c, 0, 54, 59
1, 123900, Note_on_c, 0, 62, 85
1, 123955, Note_off_c, 0, 64, 57
1, 123980, Note_off_c, 0, 66, 14
1, 124117, Control_c, 0, 64, 109
1, 124135, Note_on_c, 0, 59, 76
1, 124139, Control_c, 0, 64, 86
1, 124155, Control_c, 0, 64, 64
1, 124160, Note_on_c, 0, 43, 50
1, 124164, Note_off_c, 0, 62, 57
1, 124170, Control_c, 0, 64, 0
1, 124214, Control_c, 0, 64, 52
1, 124229, Control_c, 0, 64, 72
1, 124244, Control_c, 0, 64, 86
1, 124258, Control_c, 0, 64, 108
1, 124261, Note_off_c, 0, 43, 56
1, 124265, Note_on_c, 0, 50, 60
1, 124273, Control_c, 0, 64, 127
1, 124312, Note_off_c, 0, 50, 64
1, 124334, Note_off_c, 0, 59, 60
1, 124359, Note_on_c, 0, 55, 54
1, 124425, Note_off_c, 0, 55, 61
1, 124449, Note_on_c, 0, 57, 60
1, 124519, Note_on_c, 0, 62, 87
1, 124524, Note_off_c, 0, 57, 61
1, 124559, Note_on_c, 0, 59, 50
1, 124599, Note_off_c, 0, 59, 62
1, 124641, Note_on_c, 0, 57, 55
1, 124684, Note_off_c, 0, 57, 59
1, 124718, Note_on_c, 0, 59, 62
1, 124786, Note_off_c, 0, 59, 62
1, 124801, Note_on_c, 0, 57, 58
1, 124857, Note_off_c, 0, 57, 60
1, 124878, Note_on_c, 0, 64, 89
1, 124901, Note_off_c, 0, 62, 59
1, 124904, Note_on_c, 0, 55, 66
1, 124977, Note_off_c, 0, 55, 47
1, 125014, Note_on_c, 0, 50, 49
1, 125077, Note_off_c, 0, 64, 60
1, 125102, Note_off_c, 0, 50, 62
1, 125111, Note_on_c, 0, 43, 56
1, 125165, Note_off_c, 0, 43, 61
1, 125390, Note_on_c, 0, 69, 82
1, 125407, Control_c, 0, 64, 104
1, 125422, Control_c, 0, 64, 84
1, 125427, Note_on_c, 0, 61, 49
1, 125436, Note_on_c, 0, 42, 53
1, 125437, Control_c, 0, 64, 65
1, 125451, Control_c, 0, 64, 0
1, 125491, Note_off_c, 0, 61, 0
1, 125491, Note_on_c, 0, 61, 19
1, 125496, Control_c, 0, 64, 61
1, 125511, Control_c, 0, 64, 73
1, 125524, Note_off_c, 0, 42, 62
1, 125525, Control_c, 0, 64, 88
1, 125538, Note_on_c, 0, 49, 56
1, 125540, Control_c, 0, 64, 107
1, 125555, Control_c, 0, 64, 126
1, 125570, Control_c, 0, 64, 127
1, 125603, Note_off_c, 0, 49, 61
1, 125644, Note_on_c, 0, 54, 55
1, 125720, Note_off_c, 0, 54, 57
1, 125755, Note_on_c, 0, 56, 52
1, 125811, Note_on_c, 0, 66, 76
1, 125817, Note_off_c, 0, 69, 63
1, 125832, Note_off_c, 0, 56, 60
1, 125856, Note_on_c, 0, 57, 52
1, 125930, Note_off_c, 0, 57, 59
1, 125961, Note_on_c, 0, 56, 50
1, 126012, Note_off_c, 0, 56, 57
1, 126044, Note_on_c, 0, 57, 45
1, 126129, Note_off_c, 0, 57, 57
1, 126192, Note_on_c, 0, 69, 78
1, 126203, Note_off_c, 0, 66, 54
1, 126420, Note_off_c, 0, 69, 63
1, 126426, Note_off_c, 0, 61, 54
1, 126676, Note_on_c, 0, 71, 61
1, 126679, Note_on_c, 0, 40, 47
1, 126698, Control_c, 0, 64, 116
1, 126706, Note_on_c, 0, 68, 48
1, 126712, Control_c, 0, 64, 100
1, 126727, Control_c, 0, 64, 85
1, 126742, Note_on_c, 0, 59, 26
1, 126742, Control_c, 0, 64, 68
1, 126757, Control_c, 0, 64, 0
1, 126768, Note_on_c, 0, 64, 23
1, 126789, Note_off_c, 0, 40, 54
1, 126801, Control_c, 0, 64, 52
1, 126807, Note_on_c, 0, 47, 45
1, 126816, Control_c, 0, 64, 70
1, 126831, Control_c, 0, 64, 81
1, 126846, Control_c, 0, 64, 98
1, 126861, Control_c, 0, 64, 110
1, 126876, Control_c, 0, 64, 116
1, 126884, Note_off_c, 0, 47, 62
1, 126891, Control_c, 0, 64, 123
1, 126905, Control_c, 0, 64, 127
1, 126922, Note_on_c, 0, 52, 52
1, 126974, Note_off_c, 0, 71, 55
1, 126995, Note_off_c, 0, 52, 61
1, 127004, Note_off_c, 0, 68, 37
1, 127027, Note_on_c, 0, 54, 51
1, 127135, Note_off_c, 0, 54, 61
1, 127142, Note_on_c, 0, 68, 61
1, 127158, Note_on_c, 0, 52, 48
1, 127193, Note_off_c, 0, 64, 42
1, 127230, Note_off_c, 0, 52, 63
1, 127268, Note_on_c, 0, 54, 48
1, 127326, Note_off_c, 0, 54, 56
1, 127366, Note_on_c, 0, 56, 46
1, 127440, Note_off_c, 0, 56, 56
1, 127469, Note_on_c, 0, 54, 49
1, 127592, Note_on_c, 0, 66, 48
1, 127630, Note_on_c, 0, 56, 47
1, 127660, Note_off_c, 0, 59, 41
1, 127663, Note_off_c, 0, 54, 37
1, 127713, Note_off_c, 0, 68, 18
1, 127800, Note_off_c, 0, 56, 40
1, 127903, Note_off_c, 0, 66, 59
1, 127921, Note_on_c, 0, 64, 57
1, 128060, Note_off_c, 0, 64, 53
1, 128255, Control_c, 0, 64, 116
1, 128268, Note_on_c, 0, 66, 52
1, 128270, Control_c, 0, 64, 97
1, 128284, Control_c, 0, 64, 79
1, 128292, Note_on_c, 0, 58, 38
1, 128299, Control_c, 0, 64, 46
1, 128302, Note_on_c, 0, 42, 46
1, 128314, Control_c, 0, 64, 0
1, 128373, Control_c, 0, 64, 64
1, 128388, Control_c, 0, 64, 73
1, 128402, Control_c, 0, 64, 82
1, 128417, Control_c, 0, 64, 92
1, 128426, Note_off_c, 0, 42, 54
1, 128432, Control_c, 0, 64, 98
1, 128438, Note_on_c, 0, 49, 49
1, 128447, Control_c, 0, 64, 104
1, 128450, Note_off_c, 0, 58, 56
1, 128462, Control_c, 0, 64, 111
1, 128476, Control_c, 0, 64, 119
1, 128491, Control_c, 0, 64, 127
1, 128503, Note_off_c, 0, 49, 61
1, 128547, Note_on_c, 0, 54, 48
1, 128569, Note_off_c, 0, 66, 59
1, 128593, Note_off_c, 0, 54, 55
1, 128652, Note_on_c, 0, 56, 47
1, 128751, Note_off_c, 0, 56, 60
1, 128757, Note_on_c, 0, 54, 51
1, 128778, Note_on_c, 0, 58, 49
1, 128828, Note_off_c, 0, 54, 61
1, 128855, Note_off_c, 0, 58, 63
1, 128870, Note_on_c, 0, 61, 56
1, 128897, Note_on_c, 0, 56, 45
1, 128926, Note_off_c, 0, 61, 57
1, 128961, Note_off_c, 0, 56, 58
1, 128970, Note_on_c, 0, 66, 61
1, 128986, Note_on_c, 0, 58, 48
1, 129008, Note_off_c, 0, 58, 62
1, 129033, Note_off_c, 0, 66, 61
1, 129058, Note_on_c, 0, 68, 69
1, 129122, Control_c, 0, 64, 116
1, 129137, Control_c, 0, 64, 94
1, 129150, Note_off_c, 0, 68, 62
1, 129152, Control_c, 0, 64, 80
1, 129156, Note_on_c, 0, 70, 71
1, 129162, Note_on_c, 0, 54, 57
1, 129167, Control_c, 0, 64, 68
1, 129181, Control_c, 0, 64, 64
1, 129196, Control_c, 0, 64, 69
1, 129211, Control_c, 0, 64, 78
1, 129225, Control_c, 0, 64, 92
1, 129240, Control_c, 0, 64, 103
1, 129243, Note_off_c, 0, 70, 61
1, 129249, Note_off_c, 0, 54, 61
1, 129255, Control_c, 0, 64, 109
1, 129257, Note_on_c, 0, 68, 72
1, 129257, Note_on_c, 0, 61, 59
1, 129270, Control_c, 0, 64, 112
1, 129285, Control_c, 0, 64, 117
1, 129299, Control_c, 0, 64, 125
1, 129314, Control_c, 0, 64, 127
1, 129322, Note_off_c, 0, 61, 62
1, 129333, Note_off_c, 0, 68, 60
1, 129334, Note_on_c, 0, 70, 78
1, 129356, Note_on_c, 0, 66, 61
1, 129388, Note_off_c, 0, 70, 65
1, 129421, Note_off_c, 0, 66, 45
1, 129452, Note_on_c, 0, 68, 64
1, 129549, Note_off_c, 0, 68, 63
1, 129550, Note_on_c, 0, 66, 70
1, 129567, Note_on_c, 0, 70, 60
1, 129651, Note_off_c, 0, 70, 63
1, 129657, Note_on_c, 0, 73, 69
1, 129663, Note_off_c, 0, 66, 60
1, 129676, Note_on_c, 0, 68, 52
1, 129746, Note_off_c, 0, 73, 61
1, 129762, Note_on_c, 0, 78, 74
1, 129762, Note_off_c, 0, 68, 60
1, 129773, Note_on_c, 0, 70, 50
1, 129806, Note_off_c, 0, 70, 61
1, 129839, Note_off_c, 0, 78, 60
1, 129851, Note_on_c, 0, 80, 76
1, 129960, Note_on_c, 0, 82, 80
1, 129962, Note_off_c, 0, 80, 61
1, 130064, Note_on_c, 0, 80, 84
1, 130080, Note_off_c, 0, 82, 52
1, 130200, Note_off_c, 0, 80, 56
1, 130307, Note_on_c, 0, 82, 77
1, 130307, Control_c, 0, 64, 115
1, 130322, Control_c, 0, 64, 98
1, 130337, Control_c, 0, 64, 81
1, 130338, Note_on_c, 0, 78, 57
1, 130344, Note_on_c, 0, 70, 53
1, 130345, Note_on_c, 0, 51, 54
1, 130351, Control_c, 0, 64, 62
1, 130360, Note_on_c, 0, 75, 38
1, 130366, Control_c, 0, 64, 0
1, 130387, Note_off_c, 0, 78, 0
1, 130387, Note_on_c, 0, 78, 20
1, 130411, Control_c, 0, 64, 62
1, 130426, Control_c, 0, 64, 74
1, 130441, Note_off_c, 0, 51, 60
1, 130441, Control_c, 0, 64, 90
1, 130456, Control_c, 0, 64, 111
1, 130459, Note_on_c, 0, 58, 50
1, 130471, Control_c, 0, 64, 127
1, 130512, Note_off_c, 0, 58, 61
1, 130564, Note_on_c, 0, 63, 45
1, 130676, Note_on_c, 0, 65, 54
1, 130688, Note_off_c, 0, 63, 37
1, 130688, Note_off_c, 0, 70, 51
1, 130729, Note_off_c, 0, 82, 58
1, 130759, Note_off_c, 0, 65, 65
1, 130780, Note_on_c, 0, 66, 54
1, 130849, Note_off_c, 0, 66, 66
1, 130861, Note_on_c, 0, 65, 62
1, 130942, Note_off_c, 0, 65, 64
1, 130960, Note_on_c, 0, 66, 69
1, 130968, Note_off_c, 0, 75, 25
1, 131001, Note_off_c, 0, 78, 36
1, 131069, Note_off_c, 0, 66, 64
1, 131141, Note_on_c, 0, 80, 85
1, 131150, Note_on_c, 0, 68, 76
1, 131228, Note_off_c, 0, 68, 59
1, 131239, Note_off_c, 0, 80, 59
1, 131339, Note_on_c, 0, 78, 83
1, 131346, Note_on_c, 0, 66, 77
1, 131394, Note_off_c, 0, 78, 63
1, 131410, Note_off_c, 0, 66, 56
1, 131589, Note_on_c, 0, 75, 81
1, 131591, Control_c, 0, 64, 110
1, 131603, Note_on_c, 0, 47, 62
1, 131606, Note_on_c, 0, 63, 69
1, 131606, Control_c, 0, 64, 86
1, 131623, Note_on_c, 0, 66, 50
1, 131627, Control_c, 0, 64, 48
1, 131635, Note_on_c, 0, 71, 58
1, 131642, Control_c, 0, 64, 0
1, 131672, Control_c, 0, 64, 44
1, 131687, Control_c, 0, 64, 73
1, 131697, Note_off_c, 0, 47, 61
1, 131702, Control_c, 0, 64, 92
1, 131708, Note_on_c, 0, 54, 61
1, 131717, Control_c, 0, 64, 127
1, 131717, Note_off_c, 0, 63, 61
1, 131744, Note_off_c, 0, 66, 58
1, 131747, Note_off_c, 0, 71, 59
1, 131755, Note_off_c, 0, 75, 66
1, 131774, Note_off_c, 0, 54, 62
1, 131800, Note_on_c, 0, 59, 57
1, 131871, Note_off_c, 0, 59, 61
1, 131884, Note_on_c, 0, 61, 63
1, 131961, Note_on_c, 0, 78, 93
1, 131963, Note_off_c, 0, 61, 64
1, 131970, Note_on_c, 0, 66, 82
1, 131981, Note_on_c, 0, 63, 68
1, 132057, Note_off_c, 0, 63, 64
1, 132078, Note_on_c, 0, 61, 69
1, 132086, Note_off_c, 0, 66, 62
1, 132104, Note_off_c, 0, 78, 63
1, 132146, Note_on_c, 0, 63, 74
1, 132146, Note_off_c, 0, 61, 61
1, 132167, Note_off_c, 0, 63, 70
1, 132323, Control_c, 0, 64, 116
1, 132338, Control_c, 0, 64, 85
1, 132339, Note_on_c, 0, 80, 94
1, 132352, Note_on_c, 0, 68, 89
1, 132353, Control_c, 0, 64, 37
1, 132358, Note_on_c, 0, 71, 72
1, 132367, Note_on_c, 0, 44, 59
1, 132373, Note_on_c, 0, 75, 70
1, 132375, Control_c, 0, 64, 0
1, 132420, Control_c, 0, 64, 62
1, 132435, Control_c, 0, 64, 85
1, 132441, Note_on_c, 0, 51, 68
1, 132447, Note_off_c, 0, 44, 63
1, 132449, Control_c, 0, 64, 121
1, 132453, Note_off_c, 0, 68, 59
1, 132464, Control_c, 0, 64, 127
1, 132469, Note_off_c, 0, 71, 59
1, 132483, Note_off_c, 0, 75, 63
1, 132497, Note_off_c, 0, 80, 64
1, 132521, Note_on_c, 0, 56, 69
1, 132545, Note_off_c, 0, 51, 60
1, 132620, Note_on_c, 0, 59, 71
1, 132620, Note_off_c, 0, 56, 63
1, 132647, Note_off_c, 0, 59, 65
1, 132805, Note_on_c, 0, 82, 94
1, 132818, Note_on_c, 0, 78, 81
1, 132821, Note_on_c, 0, 70, 84
1, 132827, Note_on_c, 0, 42, 63
1, 132835, Control_c, 0, 64, 112
1, 132849, Control_c, 0, 64, 87
1, 132864, Control_c, 0, 64, 50
1, 132879, Control_c, 0, 64, 0
1, 132909, Control_c, 0, 64, 59
1, 132916, Note_off_c, 0, 42, 63
1, 132918, Note_on_c, 0, 49, 63
1, 132923, Control_c, 0, 64, 78
1, 132939, Control_c, 0, 64, 101
1, 132954, Control_c, 0, 64, 127
1, 132992, Note_off_c, 0, 49, 62
1, 133004, Note_on_c, 0, 54, 65
1, 133086, Note_off_c, 0, 70, 59
1, 133098, Note_off_c, 0, 54, 58
1, 133118, Note_on_c, 0, 56, 54
1, 133159, Note_off_c, 0, 82, 63
1, 133167, Note_on_c, 0, 73, 83
1, 133192, Note_off_c, 0, 56, 62
1, 133204, Note_on_c, 0, 58, 67
1, 133273, Note_off_c, 0, 58, 63
1, 133291, Note_on_c, 0, 56, 72
1, 133291, Note_off_c, 0, 73, 58
1, 133346, Note_on_c, 0, 58, 87
1, 133351, Note_off_c, 0, 78, 37
1, 133353, Note_off_c, 0, 56, 64
1, 133506, Note_on_c, 0, 80, 93
1, 133510, Note_on_c, 0, 68, 94
1, 133520, Note_off_c, 0, 58, 61
1, 133584, Note_off_c, 0, 68, 62
1, 133589, Note_off_c, 0, 80, 64
1, 133677, Note_on_c, 0, 66, 90
1, 133680, Note_on_c, 0, 78, 93
1, 133716, Note_off_c, 0, 66, 63
1, 133745, Note_off_c, 0, 78, 62
1, 133922, Note_on_c, 0, 46, 65
1, 133923, Note_on_c, 0, 85, 98
1, 133931, Note_on_c, 0, 73, 87
1, 133933, Control_c, 0, 64, 100
1, 133934, Note_on_c, 0, 82, 84
1, 133935, Note_on_c, 0, 77, 82
1, 133948, Control_c, 0, 64, 80
1, 133963, Control_c, 0, 64, 58
1, 133977, Control_c, 0, 64, 0
1, 134007, Control_c, 0, 64, 65
1, 134015, Note_on_c, 0, 53, 63
1, 134021, Note_off_c, 0, 46, 63
1, 134021, Control_c, 0, 64, 85
1, 134036, Control_c, 0, 64, 114
1, 134051, Control_c, 0, 64, 127
1, 134072, Note_off_c, 0, 53, 65
1, 134090, Note_off_c, 0, 85, 61
1, 134091, Note_off_c, 0, 73, 59
1, 134093, Note_on_c, 0, 58, 72
1, 134134, Note_off_c, 0, 82, 55
1, 134181, Note_off_c, 0, 58, 63
1, 134188, Note_on_c, 0, 60, 71
1, 134253, Note_off_c, 0, 77, 53
1, 134265, Note_off_c, 0, 60, 63
1, 134277, Note_on_c, 0, 82, 100
1, 134278, Note_on_c, 0, 61, 76
1, 134280, Note_on_c, 0, 70, 94
1, 134343, Note_off_c, 0, 70, 58
1, 134351, Note_off_c, 0, 61, 62
1, 134367, Note_on_c, 0, 60, 72
1, 134367, Note_off_c, 0, 82, 68
1, 134435, Note_off_c, 0, 60, 63
1, 134445, Note_on_c, 0, 61, 90
1, 134582, Note_off_c, 0, 61, 60
1, 134628, Note_on_c, 0, 85, 97
1, 134630, Note_on_c, 0, 73, 98
1, 134728, Note_off_c, 0, 73, 59
1, 134745, Note_off_c, 0, 85, 64
1, 134969, Note_on_c, 0, 87, 98
1, 134978, Note_on_c, 0, 75, 100
1, 134978, Control_c, 0, 64, 95
1, 134984, Note_on_c, 0, 80, 90
1, 134984, Note_on_c, 0, 44, 72
1, 134987, Note_on_c, 0, 84, 81
1, 134993, Control_c, 0, 64, 68
1, 135008, Control_c, 0, 64, 0
1, 135037, Control_c, 0, 64, 53
1, 135052, Control_c, 0, 64, 77
1, 135067, Control_c, 0, 64, 112
1, 135080, Note_on_c, 0, 51, 71
1, 135082, Control_c, 0, 64, 127
1, 135090, Note_off_c, 0, 44, 62
1, 135151, Note_off_c, 0, 51, 63
1, 135174, Note_on_c, 0, 56, 67
1, 135199, Note_off_c, 0, 75, 55
1, 135207, Note_off_c, 0, 87, 61
1, 135240, Note_off_c, 0, 84, 60
1, 135256, Note_off_c, 0, 56, 59
1, 135262, Note_on_c, 0, 58, 64
1, 135286, Note_off_c, 0, 80, 59
1, 135344, Note_on_c, 0, 60, 73
1, 135352, Note_off_c, 0, 58, 64
1, 135449, Note_on_c, 0, 58, 83
1, 135456, Note_off_c, 0, 60, 63
1, 135535, Note_on_c, 0, 60, 98
1, 135557, Note_off_c, 0, 58, 62
1, 135717, Note_on_c, 0, 84, 93
1, 135722, Note_on_c, 0, 72, 91
1, 135750, Note_off_c, 0, 60, 59
1, 135760, Note_off_c, 0, 72, 65
1, 135780, Note_off_c, 0, 84, 66
1, 135915, Note_on_c, 0, 75, 93
1, 135917, Note_on_c, 0, 87, 98
1, 135952, Note_off_c, 0, 75, 66
1, 135991, Note_off_c, 0, 87, 62
1, 136150, Control_c, 0, 64, 111
1, 136164, Control_c, 0, 64, 82
1, 136179, Note_on_c, 0, 91, 96
1, 136179, Control_c, 0, 64, 0
1, 136183, Note_on_c, 0, 79, 97
1, 136185, Note_on_c, 0, 39, 76
1, 136188, Note_on_c, 0, 82, 93
1, 136190, Note_on_c, 0, 87, 85
1, 136209, Control_c, 0, 64, 36
1, 136224, Control_c, 0, 64, 80
1, 136239, Control_c, 0, 64, 124
1, 136245, Note_off_c, 0, 91, 62
1, 136250, Note_off_c, 0, 79, 64
1, 136254, Control_c, 0, 64, 127
1, 136277, Note_off_c, 0, 87, 63
1, 136281, Note_on_c, 0, 46, 73
1, 136285, Note_off_c, 0, 82, 63
1, 136310, Note_off_c, 0, 39, 61
1, 136356, Note_off_c, 0, 46, 63
1, 136367, Note_on_c, 0, 51, 70
1, 136403, Note_off_c, 0, 51, 62
1, 136466, Note_on_c, 0, 75, 104
1, 136468, Note_on_c, 0, 87, 97
1, 136483, Note_on_c, 0, 53, 77
1, 136512, Note_off_c, 0, 75, 67
1, 136546, Note_off_c, 0, 87, 66
1, 136563, Note_off_c, 0, 53, 65
1, 136577, Note_on_c, 0, 55, 85
1, 136668, Note_on_c, 0, 53, 80
1, 136671, Note_off_c, 0, 55, 63
1, 136771, Note_on_c, 0, 82, 104
1, 136771, Note_on_c, 0, 94, 103
1, 136778, Note_on_c, 0, 55, 100
1, 136812, Note_off_c, 0, 53, 66
1, 136841, Note_off_c, 0, 94, 68
1, 136846, Note_off_c, 0, 82, 61
1, 136975, Note_off_c, 0, 55, 59
1, 137078, Note_on_c, 0, 91, 91
1, 137085, Note_on_c, 0, 79, 99
1, 137216, Note_off_c, 0, 91, 59
1, 137286, Note_off_c, 0, 79, 57
1, 137446, Control_c, 0, 64, 110
1, 137461, Control_c, 0, 64, 71
1, 137476, Note_on_c, 0, 89, 90
1, 137476, Control_c, 0, 64, 0
1, 137481, Note_on_c, 0, 82, 90
1, 137482, Note_on_c, 0, 77, 106
1, 137488, Note_on_c, 0, 86, 87
1, 137491, Note_on_c, 0, 22, 75
1, 137521, Control_c, 0, 64, 73
1, 137535, Control_c, 0, 64, 127
1, 137587, Note_on_c, 0, 29, 66
1, 137589, Note_off_c, 0, 89, 66
1, 137596, Note_off_c, 0, 77, 61
1, 137616, Note_off_c, 0, 86, 66
1, 137634, Note_off_c, 0, 22, 61
1, 137640, Note_off_c, 0, 82, 65
1, 137666, Note_off_c, 0, 29, 61
1, 137707, Note_on_c, 0, 34, 52
1, 137736, Note_off_c, 0, 34, 54
1, 137798, Note_on_c, 0, 36, 64
1, 137868, Note_off_c, 0, 36, 63
1, 137874, Note_on_c, 0, 38, 76
1, 137953, Note_off_c, 0, 38, 62
1, 137960, Note_on_c, 0, 36, 76
1, 138045, Note_on_c, 0, 38, 94
1, 138048, Note_on_c, 0, 34, 77
1, 138051, Note_off_c, 0, 36, 64
1, 138086, Note_off_c, 0, 38, 66
1, 138104, Note_off_c, 0, 34, 65
1, 138139, Note_on_c, 0, 41, 72
1, 138228, Note_off_c, 0, 41, 61
1, 138233, Note_on_c, 0, 46, 71
1, 138304, Note_on_c, 0, 48, 76
1, 138304, Note_off_c, 0, 46, 63
1, 138415, Note_off_c, 0, 48, 65
1, 138420, Note_on_c, 0, 50, 75
1, 138495, Note_on_c, 0, 48, 79
1, 138516, Note_off_c, 0, 50, 64
1, 138587, Note_on_c, 0, 50, 84
1, 138600, Note_off_c, 0, 48, 62
1, 138603, Note_on_c, 0, 58, 76
1, 138643, Note_off_c, 0, 50, 67
1, 138683, Note_on_c, 0, 65, 72
1, 138697, Note_off_c, 0, 58, 64
1, 138763, Note_off_c, 0, 65, 65
1, 138781, Note_on_c, 0, 70, 70
1, 138810, Note_off_c, 0, 70, 65
1, 138871, Note_on_c, 0, 72, 75
1, 138957, Note_off_c, 0, 72, 63
1, 138959, Note_on_c, 0, 74, 77
1, 139041, Note_on_c, 0, 72, 66
1, 139053, Note_off_c, 0, 74, 64
1, 139156, Note_on_c, 0, 70, 88
1, 139163, Note_on_c, 0, 74, 88
1, 139175, Note_off_c, 0, 72, 66
1, 139236, Note_off_c, 0, 70, 65
1, 139236, Note_off_c, 0, 74, 67
1, 139254, Note_on_c, 0, 77, 83
1, 139345, Note_off_c, 0, 77, 55
1, 139359, Note_on_c, 0, 82, 82
1, 139440, Note_off_c, 0, 82, 67
1, 139457, Note_on_c, 0, 84, 81
1, 139565, Note_off_c, 0, 84, 63
1, 139566, Note_on_c, 0, 86, 86
1, 139659, Note_on_c, 0, 84, 81
1, 139671, Note_off_c, 0, 86, 64
1, 139841, Control_c, 0, 64, 118
1, 139862, Note_on_c, 0, 87, 91
1, 139864, Control_c, 0, 64, 83
1, 139872, Note_on_c, 0, 75, 89
1, 139877, Note_on_c, 0, 79, 68
1, 139878, Note_on_c, 0, 36, 59
1, 139878, Control_c, 0, 64, 0
1, 139923, Control_c, 0, 64, 62
1, 139938, Control_c, 0, 64, 80
1, 139953, Control_c, 0, 64, 116
1, 139967, Control_c, 0, 64, 127
1, 139984, Note_off_c, 0, 36, 62
1, 139995, Note_on_c, 0, 43, 55
1, 139997, Note_off_c, 0, 87, 61
1, 140010, Note_off_c, 0, 84, 56
1, 140011, Note_off_c, 0, 75, 60
1, 140033, Note_off_c, 0, 43, 60
1, 140036, Note_off_c, 0, 79, 51
1, 140069, Note_on_c, 0, 48, 62
1, 140163, Note_on_c, 0, 84, 92
1, 140168, Note_on_c, 0, 72, 91
1, 140175, Control_c, 0, 64, 119
1, 140181, Note_off_c, 0, 48, 33
1, 140190, Control_c, 0, 64, 117
1, 140192, Note_on_c, 0, 50, 64
1, 140205, Control_c, 0, 64, 117
1, 140220, Control_c, 0, 64, 123
1, 140235, Control_c, 0, 64, 127
1, 140244, Note_off_c, 0, 72, 61
1, 140269, Note_off_c, 0, 50, 62
1, 140292, Note_off_c, 0, 84, 65
1, 140301, Note_on_c, 0, 51, 56
1, 140382, Note_off_c, 0, 51, 61
1, 140392, Note_on_c, 0, 50, 67
1, 140585, Note_on_c, 0, 91, 88
1, 140590, Control_c, 0, 64, 120
1, 140607, Note_on_c, 0, 79, 73
1, 140612, Control_c, 0, 64, 104
1, 140627, Control_c, 0, 64, 87
1, 140629, Note_off_c, 0, 50, 61
1, 140632, Note_on_c, 0, 51, 60
1, 140642, Control_c, 0, 64, 72
1, 140656, Control_c, 0, 64, 0
1, 140716, Control_c, 0, 64, 69
1, 140731, Control_c, 0, 64, 81
1, 140746, Control_c, 0, 64, 97
1, 140751, Note_off_c, 0, 91, 56
1, 140761, Control_c, 0, 64, 112
1, 140776, Control_c, 0, 64, 123
1, 140790, Control_c, 0, 64, 127
1, 140794, Note_off_c, 0, 79, 61
1, 140894, Note_off_c, 0, 51, 56
1, 141008, Note_on_c, 0, 87, 62
1, 141028, Note_on_c, 0, 75, 54
1, 141156, Note_off_c, 0, 87, 59
1, 141273, Note_off_c, 0, 75, 64
1, 141576, Note_on_c, 0, 86, 49
1, 141581, Note_on_c, 0, 83, 42
1, 141583, Control_c, 0, 64, 120
1, 141589, Note_on_c, 0, 43, 42
1, 141590, Note_on_c, 0, 74, 35
1, 141598, Control_c, 0, 64, 103
1, 141607, Note_on_c, 0, 79, 27
1, 141613, Control_c, 0, 64, 88
1, 141628, Control_c, 0, 64, 74
1, 141643, Control_c, 0, 64, 43
1, 141658, Control_c, 0, 64, 0
1, 141702, Control_c, 0, 64, 65
1, 141717, Control_c, 0, 64, 75
1, 141733, Control_c, 0, 64, 86
1, 141747, Control_c, 0, 64, 98
1, 141749, Note_off_c, 0, 86, 59
1, 141762, Control_c, 0, 64, 109
1, 141777, Control_c, 0, 64, 118
1, 141782, Note_on_c, 0, 50, 46
1, 141786, Note_off_c, 0, 43, 40
1, 141789, Note_off_c, 0, 83, 59
1, 141792, Control_c, 0, 64, 127
1, 141811, Note_off_c, 0, 79, 49
1, 141823, Note_off_c, 0, 74, 53
1, 141832, Note_off_c, 0, 50, 62
1, 141897, Note_on_c, 0, 55, 44
1, 141959, Note_off_c, 0, 55, 43
1, 141991, Note_on_c, 0, 57, 56
1, 142062, Note_off_c, 0, 57, 60
1, 142093, Note_on_c, 0, 59, 51
1, 142166, Note_off_c, 0, 59, 42
1, 142186, Note_on_c, 0, 57, 50
1, 142245, Note_off_c, 0, 57, 59
1, 142270, Note_on_c, 0, 59, 56
1, 142295, Note_on_c, 0, 55, 40
1, 142329, Note_off_c, 0, 59, 58
1, 142333, Note_off_c, 0, 55, 59
1, 142361, Note_on_c, 0, 62, 50
1, 142409, Note_off_c, 0, 62, 62
1, 142446, Note_on_c, 0, 67, 54
1, 142487, Note_off_c, 0, 67, 63
1, 142518, Note_on_c, 0, 69, 63
1, 142583, Note_off_c, 0, 69, 65
1, 142606, Note_on_c, 0, 71, 62
1, 142673, Note_off_c, 0, 71, 61
1, 142681, Note_on_c, 0, 69, 61
1, 142733, Control_c, 0, 64, 120
1, 142748, Control_c, 0, 64, 101
1, 142756, Note_on_c, 0, 71, 70
1, 142759, Note_off_c, 0, 69, 62
1, 142763, Control_c, 0, 64, 90
1, 142777, Control_c, 0, 64, 85
1, 142792, Control_c, 0, 64, 84
1, 142795, Note_on_c, 0, 55, 53
1, 142815, Note_off_c, 0, 71, 61
1, 142822, Control_c, 0, 64, 87
1, 142837, Control_c, 0, 64, 93
1, 142859, Control_c, 0, 64, 103
1, 142873, Note_off_c, 0, 55, 63
1, 142874, Control_c, 0, 64, 116
1, 142883, Note_on_c, 0, 62, 59
1, 142889, Control_c, 0, 64, 127
1, 142920, Note_off_c, 0, 62, 63
1, 142961, Note_on_c, 0, 67, 57
1, 143008, Note_off_c, 0, 67, 55
1, 143044, Note_on_c, 0, 69, 63
1, 143102, Note_off_c, 0, 69, 63
1, 143131, Note_on_c, 0, 71, 58
1, 143177, Note_off_c, 0, 71, 52
1, 143203, Note_on_c, 0, 69, 55
1, 143256, Note_off_c, 0, 69, 65
1, 143265, Note_on_c, 0, 71, 74
1, 143279, Note_on_c, 0, 67, 62
1, 143314, Note_off_c, 0, 71, 61
1, 143324, Note_off_c, 0, 67, 61
1, 143356, Note_on_c, 0, 74, 60
1, 143408, Note_off_c, 0, 74, 64
1, 143433, Note_on_c, 0, 79, 61
1, 143487, Note_off_c, 0, 79, 63
1, 143502, Note_on_c, 0, 81, 69
1, 143567, Note_off_c, 0, 81, 61
1, 143587, Note_on_c, 0, 83, 66
1, 143659, Note_off_c, 0, 83, 61
1, 143667, Note_on_c, 0, 81, 67
1, 143697, Control_c, 0, 64, 105
1, 143712, Control_c, 0, 64, 87
1, 143727, Control_c, 0, 64, 69
1, 143739, Note_on_c, 0, 83, 78
1, 143742, Control_c, 0, 64, 0
1, 143743, Note_off_c, 0, 81, 58
1, 143770, Note_on_c, 0, 67, 57
1, 143786, Control_c, 0, 64, 74
1, 143801, Control_c, 0, 64, 96
1, 143813, Note_off_c, 0, 83, 60
1, 143816, Control_c, 0, 64, 127
1, 143836, Note_off_c, 0, 67, 61
1, 143846, Note_on_c, 0, 74, 58
1, 143900, Note_off_c, 0, 74, 63
1, 143926, Note_on_c, 0, 77, 64
1, 143960, Note_off_c, 0, 77, 57
1, 144024, Note_on_c, 0, 79, 56
1, 144081, Note_off_c, 0, 79, 63
1, 144099, Note_on_c, 0, 80, 65
1, 144174, Note_off_c, 0, 80, 62
1, 144186, Note_on_c, 0, 79, 62
1, 144266, Note_off_c, 0, 79, 62
1, 144280, Note_on_c, 0, 80, 74
1, 144281, Note_on_c, 0, 77, 53
1, 144358, Note_off_c, 0, 77, 54
1, 144371, Note_on_c, 0, 86, 65
1, 144433, Note_off_c, 0, 86, 62
1, 144462, Note_on_c, 0, 89, 70
1, 144523, Note_off_c, 0, 89, 63
1, 144558, Note_on_c, 0, 91, 71
1, 144636, Note_off_c, 0, 91, 57
1, 144650, Note_on_c, 0, 92, 75
1, 144738, Note_off_c, 0, 92, 62
1, 144749, Note_on_c, 0, 91, 74
1, 144821, Note_off_c, 0, 91, 58
1, 144850, Note_on_c, 0, 92, 66
1, 144868, Note_on_c, 0, 83, 48
1, 144874, Note_off_c, 0, 80, 55
1, 144929, Note_off_c, 0, 92, 65
1, 144935, Note_on_c, 0, 91, 70
1, 145026, Note_off_c, 0, 91, 57
1, 145031, Note_on_c, 0, 90, 66
1, 145087, Note_off_c, 0, 90, 64
1, 145116, Note_on_c, 0, 89, 61
1, 145169, Note_off_c, 0, 89, 52
1, 145188, Note_on_c, 0, 88, 63
1, 145196, Note_off_c, 0, 83, 48
1, 145208, Note_on_c, 0, 80, 49
1, 145265, Note_off_c, 0, 88, 58
1, 145273, Note_on_c, 0, 87, 63
1, 145324, Note_off_c, 0, 87, 61
1, 145352, Note_on_c, 0, 86, 60
1, 145394, Note_off_c, 0, 86, 55
1, 145414, Note_on_c, 0, 85, 62
1, 145474, Note_off_c, 0, 80, 29
1, 145497, Note_on_c, 0, 84, 64
1, 145500, Note_off_c, 0, 85, 61
1, 145509, Note_on_c, 0, 77, 41
1, 145545, Note_off_c, 0, 84, 62
1, 145585, Note_on_c, 0, 83, 61
1, 145620, Note_off_c, 0, 77, 36
1, 145646, Note_off_c, 0, 83, 55
1, 145655, Note_on_c, 0, 82, 66
1, 145671, Note_on_c, 0, 74, 51
1, 145701, Note_off_c, 0, 74, 68
1, 145726, Note_on_c, 0, 81, 62
1, 145816, Note_off_c, 0, 81, 58
1, 145831, Note_off_c, 0, 82, 31
1, 145834, Note_on_c, 0, 80, 56
1, 145882, Note_on_c, 0, 71, 52
1, 145885, Note_off_c, 0, 80, 63
1, 145918, Note_on_c, 0, 79, 58
1, 145971, Note_off_c, 0, 79, 53
1, 145988, Note_on_c, 0, 78, 62
1, 146090, Note_on_c, 0, 77, 56
1, 146091, Note_off_c, 0, 78, 57
1, 146167, Note_off_c, 0, 77, 57
1, 146206, Note_on_c, 0, 76, 52
1, 146225, Note_off_c, 0, 71, 49
1, 146234, Note_on_c, 0, 68, 45
1, 146263, Note_off_c, 0, 76, 60
1, 146298, Note_on_c, 0, 75, 58
1, 146376, Note_off_c, 0, 75, 63
1, 146397, Note_on_c, 0, 74, 57
1, 146485, Note_off_c, 0, 74, 60
1, 146494, Note_on_c, 0, 73, 57
1, 146643, Note_on_c, 0, 72, 60
1, 146644, Note_off_c, 0, 73, 56
1, 146651, Note_on_c, 0, 65, 44
1, 146749, Note_off_c, 0, 68, 34
1, 146756, Note_off_c, 0, 72, 61
1, 146812, Note_on_c, 0, 71, 54
1, 146925, Note_on_c, 0, 70, 61
1, 146931, Note_off_c, 0, 71, 57
1, 147107, Note_on_c, 0, 69, 63
1, 147141, Note_off_c, 0, 70, 40
1, 147151, Note_on_c, 0, 62, 40
1, 147168, Note_off_c, 0, 65, 41
1, 147242, Note_off_c, 0, 62, 61
1, 147378, Note_on_c, 0, 68, 62
1, 147384, Note_off_c, 0, 69, 59
1, 147457, Note_off_c, 0, 68, 62
1, 147811, Control_c, 0, 64, 114
1, 147822, Note_on_c, 0, 75, 88
1, 147825, Control_c, 0, 64, 84
1, 147829, Note_on_c, 0, 67, 77
1, 147840, Note_on_c, 0, 55, 62
1, 147840, Control_c, 0, 64, 0
1, 147841, Note_on_c, 0, 63, 68
1, 147842, Note_on_c, 0, 72, 62
1, 147844, Note_on_c, 0, 60, 61
1, 147885, Control_c, 0, 64, 53
1, 147897, Note_off_c, 0, 55, 63
1, 147899, Control_c, 0, 64, 82
1, 147902, Note_off_c, 0, 60, 61
1, 147914, Control_c, 0, 64, 119
1, 147929, Control_c, 0, 64, 127
1, 147932, Note_off_c, 0, 63, 64
1, 147932, Note_off_c, 0, 67, 60
1, 147963, Note_off_c, 0, 72, 59
1, 148010, Note_off_c, 0, 75, 62
1, 148220, Note_on_c, 0, 67, 56
1, 148290, Note_on_c, 0, 72, 62
1, 148299, Note_off_c, 0, 67, 63
1, 148362, Note_on_c, 0, 75, 64
1, 148389, Note_off_c, 0, 72, 60
1, 148437, Note_on_c, 0, 79, 72
1, 148476, Note_on_c, 0, 80, 60
1, 148511, Note_off_c, 0, 80, 64
1, 148533, Note_on_c, 0, 84, 63
1, 148562, Note_off_c, 0, 84, 68
1, 148585, Note_on_c, 0, 87, 72
1, 148608, Note_off_c, 0, 87, 69
1, 148668, Note_on_c, 0, 91, 70
1, 148727, Note_on_c, 0, 92, 79
1, 148727, Note_off_c, 0, 91, 61
1, 148792, Note_off_c, 0, 92, 66
1, 148794, Note_on_c, 0, 99, 93
1, 148822, Note_off_c, 0, 99, 64
1, 148852, Note_off_c, 0, 79, 61
1, 148869, Note_off_c, 0, 75, 65
1, 149250, Note_on_c, 0, 74, 70
1, 149274, Note_on_c, 0, 55, 47
1, 149278, Note_on_c, 0, 62, 34
1, 149286, Note_on_c, 0, 67, 50
1, 149292, Note_on_c, 0, 72, 40
1, 149295, Note_on_c, 0, 60, 39
1, 149322, Note_off_c, 0, 62, 47
1, 149373, Note_off_c, 0, 60, 45
1, 149389, Note_off_c, 0, 55, 38
1, 149438, Note_off_c, 0, 67, 42
1, 149444, Note_off_c, 0, 72, 39
1, 149456, Note_off_c, 0, 74, 59
1, 149497, Note_on_c, 0, 75, 93
1, 149519, Note_on_c, 0, 67, 68
1, 149522, Note_on_c, 0, 55, 50
1, 149528, Note_on_c, 0, 60, 56
1, 149531, Note_on_c, 0, 63, 59
1, 149550, Note_off_c, 0, 67, 64
1, 149581, Note_off_c, 0, 55, 64
1, 149613, Note_off_c, 0, 63, 54
1, 149617, Note_off_c, 0, 60, 56
1, 149659, Note_off_c, 0, 75, 59
1, 149942, Note_on_c, 0, 79, 82
1, 149969, Control_c, 0, 64, 125
1, 149978, Note_on_c, 0, 75, 51
1, 149984, Control_c, 0, 64, 107
1, 149999, Note_on_c, 0, 63, 42
1, 149999, Control_c, 0, 64, 88
1, 150002, Note_on_c, 0, 60, 40
1, 150008, Note_on_c, 0, 68, 22
1, 150013, Note_on_c, 0, 56, 40
1, 150013, Control_c, 0, 64, 70
1, 150025, Note_on_c, 0, 53, 37
1, 150028, Control_c, 0, 64, 0
1, 150031, Poly_aftertouch_c, 0, 72, 127
1, 150088, Control_c, 0, 64, 54
1, 150103, Control_c, 0, 64, 68
1, 150117, Control_c, 0, 64, 77
1, 150132, Control_c, 0, 64, 88
1, 150147, Control_c, 0, 64, 98
1, 150161, Control_c, 0, 64, 110
1, 150176, Control_c, 0, 64, 127
1, 150237, Note_off_c, 0, 79, 50
1, 150260, Note_off_c, 0, 75, 53
1, 150289, Note_off_c, 0, 63, 53
1, 150294, Note_off_c, 0, 60, 57
1, 150300, Note_off_c, 0, 53, 41
1, 150318, Note_off_c, 0, 56, 51
1, 150351, Note_off_c, 0, 68, 34
1, 150400, Poly_aftertouch_c, 0, 72, 0
1, 150599, Note_on_c, 0, 77, 71
1, 150627, Note_on_c, 0, 75, 54
1, 150628, Control_c, 0, 64, 120
1, 150629, Note_on_c, 0, 68, 42
1, 150641, Note_on_c, 0, 63, 36
1, 150643, Control_c, 0, 64, 107
1, 150658, Control_c, 0, 64, 95
1, 150661, Note_on_c, 0, 56, 38
1, 150661, Note_on_c, 0, 60, 36
1, 150672, Control_c, 0, 64, 80
1, 150675, Note_on_c, 0, 53, 39
1, 150687, Control_c, 0, 64, 67
1, 150702, Control_c, 0, 64, 0
1, 150732, Control_c, 0, 64, 27
1, 150732, Poly_aftertouch_c, 0, 72, 127
1, 150747, Control_c, 0, 64, 66
1, 150762, Control_c, 0, 64, 77
1, 150777, Control_c, 0, 64, 88
1, 150791, Control_c, 0, 64, 98
1, 150806, Control_c, 0, 64, 107
1, 150821, Control_c, 0, 64, 117
1, 150836, Control_c, 0, 64, 127
1, 150911, Note_off_c, 0, 77, 55
1, 150942, Note_off_c, 0, 75, 57
1, 150963, Poly_aftertouch_c, 0, 72, 0
1, 151006, Note_off_c, 0, 53, 40
1, 151012, Note_off_c, 0, 63, 41
1, 151019, Note_off_c, 0, 60, 39
1, 151033, Note_off_c, 0, 56, 39
1, 151098, Note_off_c, 0, 68, 42
1, 151343, Note_on_c, 0, 74, 52
1, 151347, Control_c, 0, 64, 127
1, 151362, Control_c, 0, 64, 114
1, 151376, Note_on_c, 0, 65, 30
1, 151376, Note_on_c, 0, 72, 44
1, 151377, Control_c, 0, 64, 105
1, 151380, Note_on_c, 0, 68, 34
1, 151392, Control_c, 0, 64, 97
1, 151397, Note_on_c, 0, 62, 29
1, 151407, Control_c, 0, 64, 87
1, 151421, Control_c, 0, 64, 77
1, 151424, Note_on_c, 0, 53, 21
1, 151428, Note_on_c, 0, 56, 25
1, 151436, Control_c, 0, 64, 60
1, 151451, Control_c, 0, 64, 0
1, 151465, Note_on_c, 0, 60, 21
1, 151525, Control_c, 0, 64, 45
1, 151540, Control_c, 0, 64, 64
1, 151555, Control_c, 0, 64, 70
1, 151570, Control_c, 0, 64, 75
1, 151584, Control_c, 0, 64, 81
1, 151599, Control_c, 0, 64, 86
1, 151614, Control_c, 0, 64, 91
1, 151629, Control_c, 0, 64, 98
1, 151644, Control_c, 0, 64, 106
1, 151659, Control_c, 0, 64, 117
1, 151674, Control_c, 0, 64, 127
1, 151703, Note_off_c, 0, 65, 39
1, 151721, Note_off_c, 0, 53, 41
1, 151733, Note_off_c, 0, 74, 54
1, 151736, Note_off_c, 0, 62, 41
1, 151751, Note_off_c, 0, 56, 40
1, 151772, Note_off_c, 0, 72, 34
1, 151805, Note_off_c, 0, 60, 39
1, 151840, Note_off_c, 0, 68, 43
1, 152111, Control_c, 0, 64, 115
1, 152126, Control_c, 0, 64, 89
1, 152132, Note_on_c, 0, 75, 83
1, 152141, Control_c, 0, 64, 64
1, 152146, Note_on_c, 0, 67, 70
1, 152147, Note_on_c, 0, 68, 66
1, 152156, Note_on_c, 0, 55, 61
1, 152156, Control_c, 0, 64, 0
1, 152160, Note_on_c, 0, 63, 55
1, 152162, Note_on_c, 0, 60, 54
1, 152185, Control_c, 0, 64, 30
1, 152198, Note_off_c, 0, 60, 64
1, 152200, Control_c, 0, 64, 79
1, 152201, Note_off_c, 0, 55, 66
1, 152201, Note_off_c, 0, 67, 59
1, 152215, Control_c, 0, 64, 109
1, 152222, Note_off_c, 0, 63, 63
1, 152229, Control_c, 0, 64, 127
1, 152249, Note_off_c, 0, 68, 63
1, 152285, Note_off_c, 0, 75, 65
1, 152476, Note_on_c, 0, 67, 56
1, 152546, Note_on_c, 0, 72, 63
1, 152559, Note_off_c, 0, 67, 61
1, 152619, Note_on_c, 0, 75, 66
1, 152689, Note_on_c, 0, 79, 70
1, 152720, Note_on_c, 0, 80, 66
1, 152748, Note_off_c, 0, 80, 65
1, 152775, Note_on_c, 0, 84, 67
1, 152801, Note_off_c, 0, 84, 68
1, 152831, Note_on_c, 0, 87, 78
1, 152854, Note_off_c, 0, 87, 68
1, 152909, Note_on_c, 0, 91, 76
1, 152971, Note_off_c, 0, 91, 61
1, 152974, Note_on_c, 0, 92, 79
1, 153037, Note_off_c, 0, 92, 66
1, 153038, Note_on_c, 0, 99, 94
1, 153059, Note_off_c, 0, 99, 70
1, 153084, Note_off_c, 0, 79, 60
1, 153107, Note_off_c, 0, 75, 64
1, 153135, Note_off_c, 0, 72, 41
1, 153450, Note_on_c, 0, 74, 78
1, 153460, Note_on_c, 0, 55, 47
1, 153474, Note_on_c, 0, 60, 42
1, 153481, Note_on_c, 0, 67, 56
1, 153492, Note_on_c, 0, 72, 44
1, 153519, Poly_aftertouch_c, 0, 62, 127
1, 153546, Poly_aftertouch_c, 0, 62, 0
1, 153549, Note_off_c, 0, 55, 48
1, 153553, Note_off_c, 0, 60, 47
1, 153616, Note_off_c, 0, 74, 55
1, 153640, Note_off_c, 0, 67, 44
1, 153653, Note_off_c, 0, 72, 39
1, 153692, Note_on_c, 0, 75, 96
1, 153705, Note_on_c, 0, 67, 76
1, 153711, Note_on_c, 0, 60, 46
1, 153714, Note_on_c, 0, 55, 52
1, 153717, Note_on_c, 0, 63, 62
1, 153730, Note_off_c, 0, 67, 67
1, 153754, Note_off_c, 0, 55, 64
1, 153755, Note_off_c, 0, 60, 60
1, 153786, Note_off_c, 0, 75, 67
1, 153792, Note_off_c, 0, 63, 61
1, 154127, Note_on_c, 0, 82, 80
1, 154153, Note_on_c, 0, 72, 56
1, 154153, Note_on_c, 0, 79, 58
1, 154180, Note_on_c, 0, 75, 39
1, 154180, Control_c, 0, 64, 108
1, 154181, Note_on_c, 0, 67, 52
1, 154185, Note_on_c, 0, 56, 45
1, 154185, Note_on_c, 0, 63, 43
1, 154195, Note_on_c, 0, 60, 44
1, 154195, Control_c, 0, 64, 91
1, 154209, Control_c, 0, 64, 70
1, 154224, Control_c, 0, 64, 0
1, 154328, Control_c, 0, 64, 65
1, 154342, Control_c, 0, 64, 76
1, 154357, Control_c, 0, 64, 89
1, 154372, Control_c, 0, 64, 106
1, 154387, Control_c, 0, 64, 127
1, 154437, Note_off_c, 0, 79, 59
1, 154448, Note_off_c, 0, 82, 54
1, 154492, Note_off_c, 0, 67, 58
1, 154526, Note_off_c, 0, 60, 57
1, 154544, Note_off_c, 0, 56, 34
1, 154562, Note_off_c, 0, 63, 42
1, 154622, Note_off_c, 0, 72, 47
1, 154624, Note_off_c, 0, 75, 23
1, 154797, Note_on_c, 0, 80, 66
1, 154838, Note_on_c, 0, 72, 44
1, 154863, Note_on_c, 0, 79, 34
1, 154869, Control_c, 0, 64, 120
1, 154883, Note_on_c, 0, 65, 36
1, 154884, Control_c, 0, 64, 103
1, 154887, Note_on_c, 0, 56, 35
1, 154887, Note_on_c, 0, 63, 27
1, 154892, Note_on_c, 0, 60, 34
1, 154893, Poly_aftertouch_c, 0, 75, 127
1, 154899, Control_c, 0, 64, 90
1, 154914, Control_c, 0, 64, 77
1, 154929, Control_c, 0, 64, 61
1, 154944, Control_c, 0, 64, 0
1, 155003, Control_c, 0, 64, 60
1, 155018, Control_c, 0, 64, 68
1, 155032, Control_c, 0, 64, 75
1, 155047, Control_c, 0, 64, 82
1, 155062, Control_c, 0, 64, 90
1, 155077, Control_c, 0, 64, 98
1, 155091, Control_c, 0, 64, 107
1, 155106, Control_c, 0, 64, 117
1, 155120, Control_c, 0, 64, 127
1, 155176, Note_off_c, 0, 65, 42
1, 155205, Note_off_c, 0, 79, 37
1, 155227, Note_off_c, 0, 56, 38
1, 155238, Note_off_c, 0, 72, 35
1, 155259, Note_off_c, 0, 60, 36
1, 155273, Note_off_c, 0, 80, 38
1, 155289, Note_off_c, 0, 63, 39
1, 155534, Note_on_c, 0, 79, 52
1, 155569, Note_on_c, 0, 72, 39
1, 155588, Note_on_c, 0, 56, 36
1, 155588, Control_c, 0, 64, 125
1, 155595, Note_on_c, 0, 64, 37
1, 155597, Poly_aftertouch_c, 0, 75, 0
1, 155603, Control_c, 0, 64, 112
1, 155618, Control_c, 0, 64, 100
1, 155632, Control_c, 0, 64, 87
1, 155647, Control_c, 0, 64, 71
1, 155662, Control_c, 0, 64, 32
1, 155677, Control_c, 0, 64, 0
1, 155736, Control_c, 0, 64, 47
1, 155751, Control_c, 0, 64, 65
1, 155766, Control_c, 0, 64, 71
1, 155780, Control_c, 0, 64, 79
1, 155795, Control_c, 0, 64, 88
1, 155810, Control_c, 0, 64, 96
1, 155825, Control_c, 0, 64, 105
1, 155840, Control_c, 0, 64, 116
1, 155854, Control_c, 0, 64, 127
1, 155914, Note_off_c, 0, 79, 35
1, 155925, Note_off_c, 0, 56, 41
1, 155930, Note_off_c, 0, 72, 58
1, 155998, Note_off_c, 0, 64, 41
1, 156366, Control_c, 0, 64, 117
1, 156381, Control_c, 0, 64, 102
1, 156396, Note_on_c, 0, 68, 34
1, 156396, Control_c, 0, 64, 88
1, 156401, Note_on_c, 0, 74, 37
1, 156403, Note_on_c, 0, 77, 47
1, 156410, Control_c, 0, 64, 72
1, 156415, Note_on_c, 0, 58, 38
1, 156416, Note_on_c, 0, 65, 43
1, 156425, Control_c, 0, 64, 38
1, 156440, Control_c, 0, 64, 0
1, 156470, Control_c, 0, 64, 62
1, 156483, Poly_aftertouch_c, 0, 72, 127
1, 156485, Control_c, 0, 64, 75
1, 156500, Control_c, 0, 64, 90
1, 156504, Note_off_c, 0, 74, 38
1, 156515, Control_c, 0, 64, 105
1, 156518, Poly_aftertouch_c, 0, 72, 0
1, 156529, Note_off_c, 0, 68, 41
1, 156529, Control_c, 0, 64, 114
1, 156544, Control_c, 0, 64, 118
1, 156559, Control_c, 0, 64, 124
1, 156574, Control_c, 0, 64, 127
1, 156648, Note_off_c, 0, 77, 52
1, 156738, Note_on_c, 0, 78, 49
1, 156877, Note_off_c, 0, 78, 42
1, 156900, Note_on_c, 0, 79, 50
1, 156947, Note_off_c, 0, 58, 56
1, 156960, Note_off_c, 0, 65, 60
1, 156974, Note_off_c, 0, 79, 60
1, 157007, Note_on_c, 0, 80, 53
1, 157115, Note_off_c, 0, 80, 63
1, 157132, Note_on_c, 0, 81, 57
1, 157224, Note_off_c, 0, 81, 60
1, 157242, Note_on_c, 0, 82, 62
1, 157285, Note_off_c, 0, 82, 54
1, 157347, Note_on_c, 0, 83, 48
1, 157415, Note_off_c, 0, 83, 53
1, 157441, Note_on_c, 0, 84, 50
1, 157507, Note_off_c, 0, 84, 54
1, 157542, Note_on_c, 0, 85, 49
1, 157553, Note_on_c, 0, 76, 73
1, 157590, Note_off_c, 0, 85, 52
1, 157653, Note_on_c, 0, 86, 49
1, 157728, Note_off_c, 0, 86, 59
1, 157758, Note_on_c, 0, 87, 48
1, 157763, Note_off_c, 0, 76, 65
1, 157777, Note_on_c, 0, 77, 86
1, 157874, Note_on_c, 0, 88, 59
1, 157881, Note_off_c, 0, 87, 53
1, 157934, Note_off_c, 0, 77, 56
1, 157978, Note_off_c, 0, 88, 52
1, 157996, Control_c, 0, 64, 113
1, 158009, Note_on_c, 0, 84, 75
1, 158011, Control_c, 0, 64, 96
1, 158026, Control_c, 0, 64, 82
1, 158033, Note_on_c, 0, 77, 74
1, 158037, Note_on_c, 0, 74, 63
1, 158038, Note_on_c, 0, 68, 68
1, 158041, Control_c, 0, 64, 67
1, 158056, Control_c, 0, 64, 34
1, 158071, Control_c, 0, 64, 46
1, 158086, Control_c, 0, 64, 67
1, 158100, Control_c, 0, 64, 79
1, 158115, Control_c, 0, 64, 94
1, 158130, Control_c, 0, 64, 115
1, 158137, Note_on_c, 0, 89, 61
1, 158145, Control_c, 0, 64, 127
1, 158154, Note_off_c, 0, 74, 63
1, 158159, Note_off_c, 0, 68, 62
1, 158165, Note_off_c, 0, 77, 60
1, 158169, Note_off_c, 0, 84, 58
1, 158238, Note_off_c, 0, 89, 61
1, 158245, Note_on_c, 0, 90, 73
1, 158332, Note_off_c, 0, 90, 60
1, 158341, Note_on_c, 0, 91, 70
1, 158406, Note_off_c, 0, 91, 57
1, 158440, Note_on_c, 0, 82, 95
1, 158457, Note_on_c, 0, 92, 65
1, 158541, Note_off_c, 0, 92, 65
1, 158563, Note_on_c, 0, 93, 72
1, 158632, Note_off_c, 0, 82, 59
1, 158667, Note_off_c, 0, 93, 61
1, 158675, Note_on_c, 0, 94, 76
1, 158762, Note_off_c, 0, 94, 65
1, 158773, Note_on_c, 0, 95, 73
1, 158854, Note_on_c, 0, 80, 78
1, 158864, Control_c, 0, 64, 109
1, 158872, Note_on_c, 0, 77, 64
1, 158875, Note_on_c, 0, 72, 56
1, 158879, Control_c, 0, 64, 93
1, 158884, Note_off_c, 0, 95, 65
1, 158886, Note_on_c, 0, 74, 56
1, 158890, Note_on_c, 0, 96, 67
1, 158894, Control_c, 0, 64, 75
1, 158908, Control_c, 0, 64, 46
1, 158923, Control_c, 0, 64, 0
1, 158953, Control_c, 0, 64, 63
1, 158968, Control_c, 0, 64, 79
1, 158983, Control_c, 0, 64, 100
1, 158989, Note_off_c, 0, 96, 57
1, 158993, Note_on_c, 0, 97, 63
1, 158997, Control_c, 0, 64, 127
1, 159013, Note_off_c, 0, 74, 61
1, 159021, Note_off_c, 0, 72, 63
1, 159067, Note_off_c, 0, 97, 65
1, 159084, Note_on_c, 0, 98, 68
1, 159103, Note_off_c, 0, 80, 58
1, 159120, Note_off_c, 0, 77, 35
1, 159189, Note_off_c, 0, 98, 63
1, 159193, Note_on_c, 0, 99, 69
1, 159263, Note_off_c, 0, 99, 66
1, 159347, Control_c, 0, 64, 110
1, 159361, Control_c, 0, 64, 93
1, 159362, Note_on_c, 0, 79, 77
1, 159376, Control_c, 0, 64, 78
1, 159376, Note_on_c, 0, 77, 63
1, 159379, Note_on_c, 0, 71, 57
1, 159385, Note_on_c, 0, 74, 57
1, 159391, Control_c, 0, 64, 68
1, 159406, Control_c, 0, 64, 63
1, 159421, Control_c, 0, 64, 67
1, 159435, Control_c, 0, 64, 77
1, 159450, Control_c, 0, 64, 90
1, 159465, Control_c, 0, 64, 103
1, 159479, Control_c, 0, 64, 110
1, 159491, Note_off_c, 0, 77, 59
1, 159494, Control_c, 0, 64, 115
1, 159500, Note_on_c, 0, 99, 74
1, 159509, Control_c, 0, 64, 125
1, 159524, Control_c, 0, 64, 127
1, 159553, Note_off_c, 0, 79, 58
1, 159597, Note_on_c, 0, 94, 74
1, 159608, Note_off_c, 0, 99, 64
1, 159609, Note_on_c, 0, 78, 85
1, 159624, Note_off_c, 0, 71, 56
1, 159650, Note_off_c, 0, 74, 63
1, 159663, Note_off_c, 0, 94, 66
1, 159686, Note_on_c, 0, 88, 67
1, 159739, Note_off_c, 0, 78, 51
1, 159767, Note_on_c, 0, 92, 78
1, 159774, Note_on_c, 0, 79, 75
1, 159779, Note_off_c, 0, 88, 59
1, 159821, Control_c, 0, 64, 123
1, 159836, Control_c, 0, 64, 96
1, 159847, Note_off_c, 0, 79, 48
1, 159850, Control_c, 0, 64, 76
1, 159856, Note_on_c, 0, 91, 78
1, 159860, Note_off_c, 0, 92, 65
1, 159865, Control_c, 0, 64, 60
1, 159880, Control_c, 0, 64, 43
1, 159893, Note_on_c, 0, 70, 69
1, 159895, Control_c, 0, 64, 65
1, 159910, Control_c, 0, 64, 77
1, 159925, Control_c, 0, 64, 93
1, 159940, Control_c, 0, 64, 109
1, 159954, Control_c, 0, 64, 119
1, 159967, Note_off_c, 0, 70, 64
1, 159969, Control_c, 0, 64, 126
1, 159970, Note_on_c, 0, 77, 63
1, 159984, Control_c, 0, 64, 127
1, 159986, Note_off_c, 0, 91, 52
1, 159995, Note_on_c, 0, 79, 48
1, 160053, Note_on_c, 0, 94, 70
1, 160082, Note_on_c, 0, 85, 76
1, 160173, Note_off_c, 0, 85, 63
1, 160221, Note_on_c, 0, 92, 66
1, 160221, Note_off_c, 0, 79, 58
1, 160226, Note_off_c, 0, 94, 59
1, 160250, Note_off_c, 0, 77, 58
1, 160289, Note_off_c, 0, 92, 64
1, 160356, Note_on_c, 0, 81, 61
1, 160485, Note_off_c, 0, 81, 55
1, 160487, Note_on_c, 0, 85, 58
1, 160643, Note_off_c, 0, 85, 54
1, 160658, Note_on_c, 0, 84, 53
1, 160748, Control_c, 0, 64, 123
1, 160763, Control_c, 0, 64, 99
1, 160777, Control_c, 0, 64, 80
1, 160792, Control_c, 0, 64, 55
1, 160807, Control_c, 0, 64, 0
1, 160849, Note_on_c, 0, 53, 45
1, 160858, Control_c, 0, 64, 60
1, 160873, Control_c, 0, 64, 73
1, 160888, Control_c, 0, 64, 87
1, 160894, Note_off_c, 0, 53, 64
1, 160904, Control_c, 0, 64, 113
1, 160919, Control_c, 0, 64, 127
1, 161144, Note_on_c, 0, 72, 58
1, 161152, Note_on_c, 0, 70, 49
1, 161177, Note_on_c, 0, 66, 44
1, 161178, Note_on_c, 0, 63, 45
1, 161205, Note_off_c, 0, 84, 53
1, 161317, Note_on_c, 0, 85, 57
1, 161436, Note_off_c, 0, 85, 64
1, 161458, Note_on_c, 0, 86, 61
1, 161559, Note_off_c, 0, 86, 61
1, 161586, Note_on_c, 0, 87, 70
1, 161709, Note_off_c, 0, 87, 63
1, 161719, Note_on_c, 0, 88, 67
1, 161740, Note_off_c, 0, 66, 32
1, 161755, Note_off_c, 0, 70, 30
1, 161806, Note_off_c, 0, 63, 35
1, 161827, Note_off_c, 0, 72, 35
1, 161846, Note_off_c, 0, 88, 57
1, 161852, Note_on_c, 0, 89, 66
1, 162124, Note_on_c, 0, 92, 57
1, 162134, Note_off_c, 0, 89, 51
1, 162178, Note_on_c, 0, 69, 43
1, 162185, Control_c, 0, 64, 120
1, 162192, Note_on_c, 0, 65, 38
1, 162200, Control_c, 0, 64, 108
1, 162214, Control_c, 0, 64, 98
1, 162229, Control_c, 0, 64, 87
1, 162244, Control_c, 0, 64, 73
1, 162259, Control_c, 0, 64, 51
1, 162274, Control_c, 0, 64, 0
1, 162341, Control_c, 0, 64, 56
1, 162355, Control_c, 0, 64, 67
1, 162370, Control_c, 0, 64, 75
1, 162375, Note_off_c, 0, 92, 61
1, 162385, Control_c, 0, 64, 83
1, 162392, Note_on_c, 0, 91, 56
1, 162400, Control_c, 0, 64, 91
1, 162415, Control_c, 0, 64, 97
1, 162429, Control_c, 0, 64, 103
1, 162444, Control_c, 0, 64, 111
1, 162459, Control_c, 0, 64, 120
1, 162474, Control_c, 0, 64, 127
1, 162523, Note_off_c, 0, 91, 44
1, 162612, Note_on_c, 0, 81, 48
1, 162736, Note_off_c, 0, 69, 37
1, 162790, Note_off_c, 0, 65, 41
1, 162810, Note_on_c, 0, 85, 39
1, 162827, Note_off_c, 0, 81, 35
1, 163121, Note_on_c, 0, 84, 39
1, 163151, Note_off_c, 0, 85, 40
1, 163376, Note_off_c, 0, 84, 54
1, 163523, Note_on_c, 0, 75, 31
1, 163824, Note_off_c, 0, 75, 41
1, 163940, Note_on_c, 0, 82, 48
1, 164121, Note_on_c, 0, 81, 48
1, 164176, Note_off_c, 0, 82, 29
1, 164271, Note_on_c, 0, 72, 45
1, 164292, Note_off_c, 0, 81, 31
1, 164370, Note_off_c, 0, 72, 52
1, 164387, Note_on_c, 0, 80, 50
1, 164482, Note_off_c, 0, 80, 59
1, 164492, Note_on_c, 0, 78, 55
1, 164554, Note_off_c, 0, 78, 51
1, 164608, Note_on_c, 0, 69, 48
1, 164650, Note_off_c, 0, 69, 65
1, 164697, Note_on_c, 0, 82, 64
1, 164784, Note_on_c, 0, 81, 67
1, 164822, Note_off_c, 0, 82, 36
1, 164859, Note_off_c, 0, 81, 54
1, 164881, Note_on_c, 0, 75, 57
1, 164951, Note_off_c, 0, 75, 64
1, 164973, Note_on_c, 0, 80, 60
1, 165052, Note_off_c, 0, 80, 63
1, 165064, Note_on_c, 0, 78, 64
1, 165118, Note_on_c, 0, 72, 53
1, 165124, Note_off_c, 0, 78, 59
1, 165158, Note_off_c, 0, 72, 64
1, 165208, Note_on_c, 0, 85, 63
1, 165288, Note_off_c, 0, 85, 63
1, 165293, Note_on_c, 0, 84, 69
1, 165355, Note_off_c, 0, 84, 64
1, 165374, Note_on_c, 0, 78, 60
1, 165422, Note_off_c, 0, 78, 54
1, 165445, Note_on_c, 0, 82, 69
1, 165517, Note_off_c, 0, 82, 63
1, 165529, Note_on_c, 0, 81, 70
1, 165571, Note_off_c, 0, 81, 57
1, 165590, Note_on_c, 0, 75, 55
1, 165624, Note_off_c, 0, 75, 66
1, 165651, Note_on_c, 0, 89, 70
1, 165725, Note_off_c, 0, 89, 63
1, 165735, Note_on_c, 0, 87, 73
1, 165790, Note_off_c, 0, 87, 64
1, 165800, Note_on_c, 0, 81, 64
1, 165860, Note_off_c, 0, 81, 57
1, 165869, Note_on_c, 0, 85, 74
1, 165937, Note_off_c, 0, 85, 64
1, 165953, Note_on_c, 0, 84, 71
1, 165984, Note_off_c, 0, 84, 63
1, 165987, Note_on_c, 0, 78, 63
1, 166021, Note_off_c, 0, 78, 63
1, 166084, Note_on_c, 0, 92, 79
1, 166163, Note_on_c, 0, 90, 84
1, 166170, Note_off_c, 0, 92, 64
1, 166208, Note_off_c, 0, 90, 63
1, 166236, Note_on_c, 0, 84, 67
1, 166291, Note_off_c, 0, 84, 61
1, 166293, Note_on_c, 0, 94, 85
1, 166375, Note_on_c, 0, 93, 75
1, 166375, Note_off_c, 0, 94, 65
1, 166405, Note_off_c, 0, 93, 60
1, 166437, Note_on_c, 0, 87, 65
1, 166492, Note_off_c, 0, 87, 61
1, 166497, Note_on_c, 0, 97, 82
1, 166568, Note_off_c, 0, 97, 65
1, 166578, Note_on_c, 0, 96, 76
1, 166602, Note_off_c, 0, 96, 65
1, 166644, Note_on_c, 0, 90, 67
1, 166686, Note_on_c, 0, 101, 89
1, 166703, Note_off_c, 0, 90, 60
1, 166758, Note_off_c, 0, 101, 66
1, 166768, Note_on_c, 0, 99, 87
1, 166817, Note_off_c, 0, 99, 67
1, 166851, Note_on_c, 0, 93, 66
1, 166891, Note_off_c, 0, 93, 52
1, 166927, Note_on_c, 0, 104, 93
1, 167016, Note_on_c, 0, 102, 84
1, 167028, Note_off_c, 0, 104, 65
1, 167052, Note_on_c, 0, 96, 68
1, 167071, Note_off_c, 0, 102, 64
1, 167101, Note_off_c, 0, 96, 64
1, 167130, Note_on_c, 0, 101, 85
1, 167192, Note_off_c, 0, 101, 64
1, 167202, Note_on_c, 0, 99, 80
1, 167243, Note_on_c, 0, 93, 75
1, 167248, Note_off_c, 0, 99, 67
1, 167288, Note_off_c, 0, 93, 62
1, 167318, Note_on_c, 0, 104, 92
1, 167380, Note_on_c, 0, 102, 85
1, 167403, Note_off_c, 0, 104, 65
1, 167428, Note_on_c, 0, 96, 73
1, 167450, Note_off_c, 0, 102, 65
1, 167465, Note_off_c, 0, 96, 66
1, 167497, Note_on_c, 0, 101, 91
1, 167551, Note_off_c, 0, 101, 67
1, 167571, Note_on_c, 0, 99, 87
1, 167613, Note_off_c, 0, 99, 69
1, 167613, Note_on_c, 0, 93, 76
1, 167656, Note_off_c, 0, 93, 64
1, 167687, Note_on_c, 0, 104, 96
1, 167751, Note_on_c, 0, 102, 88
1, 167778, Note_off_c, 0, 104, 66
1, 167807, Note_on_c, 0, 96, 73
1, 167815, Note_off_c, 0, 102, 65
1, 167831, Note_off_c, 0, 96, 67
1, 167872, Note_on_c, 0, 101, 91
1, 167929, Note_off_c, 0, 101, 67
1, 167940, Note_on_c, 0, 99, 88
1, 167981, Note_off_c, 0, 99, 69
1, 167994, Note_on_c, 0, 93, 76
1, 168036, Note_off_c, 0, 93, 65
1, 168056, Note_on_c, 0, 104, 91
1, 168122, Note_on_c, 0, 102, 87
1, 168146, Note_off_c, 0, 104, 65
1, 168179, Note_on_c, 0, 96, 74
1, 168190, Note_off_c, 0, 102, 65
1, 168218, Note_off_c, 0, 96, 67
1, 168238, Note_on_c, 0, 101, 85
1, 168298, Note_off_c, 0, 101, 66
1, 168319, Note_on_c, 0, 99, 75
1, 168352, Note_off_c, 0, 99, 66
1, 168369, Note_on_c, 0, 93, 71
1, 168408, Note_off_c, 0, 93, 61
1, 168437, Note_on_c, 0, 104, 88
1, 168507, Note_on_c, 0, 102, 81
1, 168519, Note_off_c, 0, 104, 65
1, 168560, Note_on_c, 0, 96, 66
1, 168565, Note_off_c, 0, 102, 64
1, 168596, Note_off_c, 0, 96, 64
1, 168634, Note_on_c, 0, 101, 72
1, 168684, Note_off_c, 0, 101, 66
1, 168696, Note_on_c, 0, 99, 74
1, 168730, Note_off_c, 0, 99, 66
1, 168753, Note_on_c, 0, 93, 65
1, 168790, Note_off_c, 0, 93, 60
1, 168821, Note_on_c, 0, 104, 82
1, 168893, Note_on_c, 0, 102, 78
1, 168908, Note_off_c, 0, 104, 64
1, 168955, Note_on_c, 0, 96, 66
1, 168956, Note_off_c, 0, 102, 64
1, 168985, Note_off_c, 0, 96, 66
1, 169025, Note_on_c, 0, 101, 71
1, 169084, Note_off_c, 0, 101, 66
1, 169103, Note_on_c, 0, 99, 66
1, 169134, Note_off_c, 0, 99, 67
1, 169166, Note_on_c, 0, 93, 64
1, 169210, Note_off_c, 0, 93, 59
1, 169228, Note_on_c, 0, 104, 79
1, 169306, Note_on_c, 0, 102, 72
1, 169328, Note_off_c, 0, 104, 56
1, 169384, Note_off_c, 0, 102, 61
1, 169397, Note_on_c, 0, 96, 62
1, 169439, Note_off_c, 0, 96, 61
1, 169494, Note_on_c, 0, 101, 68
1, 169571, Note_off_c, 0, 101, 64
1, 169601, Note_on_c, 0, 99, 51
1, 169645, Note_off_c, 0, 99, 46
1, 169692, Note_on_c, 0, 93, 57
1, 169783, Note_off_c, 0, 93, 56
1, 169860, Note_on_c, 0, 101, 63
1, 170006, Note_on_c, 0, 99, 61
1, 170016, Note_off_c, 0, 101, 55
1, 170154, Note_on_c, 0, 96, 56
1, 170191, Note_off_c, 0, 99, 39
1, 170263, Note_off_c, 0, 96, 56
1, 170388, Note_on_c, 0, 97, 55
1, 170623, Note_on_c, 0, 96, 52
1, 170633, Note_off_c, 0, 97, 49
1, 171235, Note_on_c, 0, 93, 43
1, 171268, Note_off_c, 0, 96, 35
1, 171404, Note_off_c, 0, 93, 57
1, 173017, Control_c, 0, 64, 125
1, 173032, Control_c, 0, 64, 122
1, 173047, Control_c, 0, 64, 119
1, 173062, Control_c, 0, 64, 117
1, 173077, Control_c, 0, 64, 115
1, 173092, Control_c, 0, 64, 112
1, 173106, Control_c, 0, 64, 110
1, 173121, Control_c, 0, 64, 108
1, 173136, Control_c, 0, 64, 107
1, 173151, Control_c, 0, 64, 105
1, 173166, Control_c, 0, 64, 103
1, 173180, Control_c, 0, 64, 102
1, 173195, Control_c, 0, 64, 101
1, 173210, Control_c, 0, 64, 99
1, 173224, Control_c, 0, 64, 98
1, 173239, Control_c, 0, 64, 97
1, 173254, Control_c, 0, 64, 95
1, 173269, Control_c, 0, 64, 94
1, 173284, Control_c, 0, 64, 93
1, 173298, Control_c, 0, 64, 92
1, 173313, Control_c, 0, 64, 90
1, 173328, Control_c, 0, 64, 89
1, 173343, Control_c, 0, 64, 88
1, 173358, Control_c, 0, 64, 86
1, 173372, Control_c, 0, 64, 85
1, 173387, Control_c, 0, 64, 84
1, 173402, Control_c, 0, 64, 82
1, 173417, Control_c, 0, 64, 81
1, 173431, Control_c, 0, 64, 79
1, 173446, Control_c, 0, 64, 78
1, 173461, Control_c, 0, 64, 76
1, 173476, Control_c, 0, 64, 75
1, 173491, Control_c, 0, 64, 73
1, 173506, Control_c, 0, 64, 72
1, 173521, Control_c, 0, 64, 71
1, 173536, Control_c, 0, 64, 69
1, 173558, Control_c, 0, 64, 67
1, 173573, Control_c, 0, 64, 65
1, 173587, Control_c, 0, 64, 64
1, 173602, Control_c, 0, 64, 63
1, 173736, Control_c, 0, 64, 62
1, 174671, Note_on_c, 0, 61, 49
1, 174687, Note_on_c, 0, 58, 34
1, 174699, Note_on_c, 0, 49, 29
1, 174710, Note_on_c, 0, 42, 35
1, 174841, Control_c, 0, 64, 62
1, 175071, Control_c, 0, 64, 62
1, 175145, Control_c, 0, 64, 63
1, 175159, Control_c, 0, 64, 63
1, 175189, Control_c, 0, 64, 64
1, 175203, Control_c, 0, 64, 64
1, 175218, Control_c, 0, 64, 65
1, 175233, Control_c, 0, 64, 66
1, 175248, Control_c, 0, 64, 67
1, 175263, Control_c, 0, 64, 68
1, 175279, Control_c, 0, 64, 69
1, 175294, Control_c, 0, 64, 70
1, 175308, Control_c, 0, 64, 72
1, 175323, Control_c, 0, 64, 73
1, 175338, Control_c, 0, 64, 75
1, 175353, Control_c, 0, 64, 77
1, 175368, Control_c, 0, 64, 78
1, 175382, Control_c, 0, 64, 80
1, 175397, Control_c, 0, 64, 82
1, 175412, Control_c, 0, 64, 83
1, 175426, Control_c, 0, 64, 86
1, 175441, Control_c, 0, 64, 88
1, 175456, Control_c, 0, 64, 92
1, 175471, Control_c, 0, 64, 94
1, 175486, Control_c, 0, 64, 97
1, 175500, Control_c, 0, 64, 100
1, 175515, Control_c, 0, 64, 103
1, 175530, Control_c, 0, 64, 107
1, 175545, Control_c, 0, 64, 111
1, 175560, Control_c, 0, 64, 115
1, 175575, Control_c, 0, 64, 120
1, 175590, Control_c, 0, 64, 125
1, 175605, Control_c, 0, 64, 127
1, 176962, Note_on_c, 0, 63, 41
1, 177445, Note_off_c, 0, 58, 31
1, 177618, Note_off_c, 0, 49, 35
1, 177624, Note_off_c, 0, 61, 36
1, 177644, Note_off_c, 0, 63, 42
1, 178141, Note_off_c, 0, 42, 40
1, 178630, Note_on_c, 0, 66, 54
1, 178649, Note_on_c, 0, 56, 35
1, 178672, Note_on_c, 0, 37, 34
1, 178674, Note_on_c, 0, 49, 34
1, 178689, Control_c, 0, 64, 124
1, 178704, Control_c, 0, 64, 115
1, 178718, Control_c, 0, 64, 110
1, 178733, Control_c, 0, 64, 106
1, 178748, Control_c, 0, 64, 102
1, 178763, Control_c, 0, 64, 98
1, 178778, Control_c, 0, 64, 94
1, 178800, Control_c, 0, 64, 89
1, 178815, Control_c, 0, 64, 85
1, 178830, Control_c, 0, 64, 81
1, 178844, Control_c, 0, 64, 76
1, 178859, Control_c, 0, 64, 72
1, 178874, Control_c, 0, 64, 67
1, 178889, Control_c, 0, 64, 62
1, 178904, Control_c, 0, 64, 52
1, 178918, Control_c, 0, 64, 53
1, 178933, Control_c, 0, 64, 55
1, 178948, Control_c, 0, 64, 56
1, 178977, Control_c, 0, 64, 57
1, 178992, Control_c, 0, 64, 57
1, 179007, Control_c, 0, 64, 58
1, 179022, Control_c, 0, 64, 59
1, 179037, Control_c, 0, 64, 60
1, 179112, Control_c, 0, 64, 60
1, 179139, Note_off_c, 0, 66, 50
1, 179146, Note_on_c, 0, 65, 53
1, 179349, Control_c, 0, 64, 60
1, 179379, Control_c, 0, 64, 59
1, 179393, Control_c, 0, 64, 59
1, 179423, Control_c, 0, 64, 58
1, 179513, Control_c, 0, 64, 59
1, 179527, Control_c, 0, 64, 60
1, 179549, Control_c, 0, 64, 61
1, 179564, Control_c, 0, 64, 63
1, 179579, Control_c, 0, 64, 65
1, 179593, Control_c, 0, 64, 66
1, 179608, Control_c, 0, 64, 68
1, 179623, Control_c, 0, 64, 70
1, 179638, Control_c, 0, 64, 72
1, 179653, Control_c, 0, 64, 75
1, 179668, Control_c, 0, 64, 79
1, 179682, Control_c, 0, 64, 82
1, 179697, Control_c, 0, 64, 86
1, 179712, Control_c, 0, 64, 90
1, 179727, Control_c, 0, 64, 94
1, 179742, Control_c, 0, 64, 97
1, 179757, Control_c, 0, 64, 101
1, 179772, Control_c, 0, 64, 106
1, 179787, Control_c, 0, 64, 111
1, 179801, Control_c, 0, 64, 117
1, 179816, Control_c, 0, 64, 123
1, 179830, Control_c, 0, 64, 127
1, 179939, Note_off_c, 0, 56, 37
1, 179976, Note_off_c, 0, 65, 38
1, 180973, Note_on_c, 0, 63, 51
1, 180998, Note_on_c, 0, 53, 42
1, 181006, Note_on_c, 0, 46, 43
1, 181046, Control_c, 0, 64, 121
1, 181061, Control_c, 0, 64, 114
1, 181076, Control_c, 0, 64, 108
1, 181086, Note_off_c, 0, 37, 36
1, 181091, Control_c, 0, 64, 104
1, 181106, Control_c, 0, 64, 99
1, 181113, Note_off_c, 0, 49, 40
1, 181120, Control_c, 0, 64, 96
1, 181135, Control_c, 0, 64, 93
1, 181150, Control_c, 0, 64, 90
1, 181164, Control_c, 0, 64, 87
1, 181179, Control_c, 0, 64, 84
1, 181194, Control_c, 0, 64, 81
1, 181209, Control_c, 0, 64, 78
1, 181224, Control_c, 0, 64, 76
1, 181239, Control_c, 0, 64, 73
1, 181253, Control_c, 0, 64, 70
1, 181268, Control_c, 0, 64, 65
1, 181283, Control_c, 0, 64, 58
1, 181298, Control_c, 0, 64, 27
1, 181313, Control_c, 0, 64, 0
1, 181407, Note_on_c, 0, 61, 57
1, 181438, Note_off_c, 0, 63, 55
1, 181461, Control_c, 0, 64, 42
1, 181476, Control_c, 0, 64, 61
1, 181491, Control_c, 0, 64, 64
1, 181506, Control_c, 0, 64, 67
1, 181520, Control_c, 0, 64, 70
1, 181535, Control_c, 0, 64, 76
1, 181550, Control_c, 0, 64, 83
1, 181564, Control_c, 0, 64, 91
1, 181579, Control_c, 0, 64, 99
1, 181594, Control_c, 0, 64, 106
1, 181609, Control_c, 0, 64, 114
1, 181620, Note_off_c, 0, 53, 37
1, 181624, Control_c, 0, 64, 125
1, 181638, Control_c, 0, 64, 127
1, 181707, Note_off_c, 0, 61, 55
1, 181935, Note_on_c, 0, 60, 47
1, 181981, Note_off_c, 0, 60, 63
1, 182003, Note_on_c, 0, 61, 55
1, 182048, Note_on_c, 0, 55, 18
1, 182070, Note_on_c, 0, 60, 55
1, 182075, Control_c, 0, 64, 123
1, 182079, Note_off_c, 0, 61, 48
1, 182090, Control_c, 0, 64, 116
1, 182093, Note_on_c, 0, 51, 34
1, 182097, Note_on_c, 0, 39, 37
1, 182105, Control_c, 0, 64, 110
1, 182120, Control_c, 0, 64, 105
1, 182135, Control_c, 0, 64, 99
1, 182149, Control_c, 0, 64, 92
1, 182164, Control_c, 0, 64, 87
1, 182168, Note_off_c, 0, 46, 40
1, 182179, Control_c, 0, 64, 82
1, 182193, Control_c, 0, 64, 78
1, 182208, Control_c, 0, 64, 72
1, 182223, Control_c, 0, 64, 66
1, 182238, Control_c, 0, 64, 30
1, 182253, Control_c, 0, 64, 0
1, 182505, Control_c, 0, 64, 34
1, 182520, Control_c, 0, 64, 60
1, 182543, Control_c, 0, 64, 64
1, 182558, Control_c, 0, 64, 66
1, 182572, Control_c, 0, 64, 69
1, 182587, Control_c, 0, 64, 72
1, 182602, Control_c, 0, 64, 76
1, 182616, Control_c, 0, 64, 80
1, 182631, Control_c, 0, 64, 83
1, 182646, Control_c, 0, 64, 86
1, 182661, Control_c, 0, 64, 88
1, 182676, Control_c, 0, 64, 92
1, 182690, Control_c, 0, 64, 95
1, 182705, Control_c, 0, 64, 99
1, 182720, Control_c, 0, 64, 104
1, 182735, Control_c, 0, 64, 108
1, 182750, Control_c, 0, 64, 112
1, 182765, Control_c, 0, 64, 115
1, 182780, Control_c, 0, 64, 117
1, 182794, Control_c, 0, 64, 119
1, 182809, Control_c, 0, 64, 120
1, 182824, Control_c, 0, 64, 121
1, 182839, Control_c, 0, 64, 121
1, 182869, Control_c, 0, 64, 122
1, 182965, Note_on_c, 0, 58, 46
1, 182979, Note_off_c, 0, 60, 20
1, 183013, Note_off_c, 0, 55, 43
1, 183140, Note_off_c, 0, 51, 37
1, 183209, Control_c, 0, 64, 121
1, 183307, Control_c, 0, 64, 121
1, 183322, Control_c, 0, 64, 120
1, 183337, Control_c, 0, 64, 119
1, 183352, Control_c, 0, 64, 118
1, 183367, Control_c, 0, 64, 117
1, 183382, Control_c, 0, 64, 117
1, 183396, Control_c, 0, 64, 115
1, 183411, Control_c, 0, 64, 115
1, 183426, Control_c, 0, 64, 114
1, 183440, Control_c, 0, 64, 113
1, 183455, Control_c, 0, 64, 113
1, 183470, Control_c, 0, 64, 112
1, 183485, Control_c, 0, 64, 111
1, 183496, Note_off_c, 0, 58, 35
1, 183500, Control_c, 0, 64, 110
1, 183514, Control_c, 0, 64, 109
1, 183529, Control_c, 0, 64, 108
1, 183544, Control_c, 0, 64, 107
1, 183558, Control_c, 0, 64, 106
1, 183573, Control_c, 0, 64, 105
1, 183588, Control_c, 0, 64, 103
1, 183603, Control_c, 0, 64, 102
1, 183618, Control_c, 0, 64, 100
1, 183632, Control_c, 0, 64, 98
1, 183647, Control_c, 0, 64, 97
1, 183662, Control_c, 0, 64, 95
1, 183677, Control_c, 0, 64, 92
1, 183692, Control_c, 0, 64, 90
1, 183707, Control_c, 0, 64, 88
1, 183722, Control_c, 0, 64, 85
1, 183736, Control_c, 0, 64, 82
1, 183741, Note_on_c, 0, 60, 36
1, 183751, Control_c, 0, 64, 78
1, 183766, Control_c, 0, 64, 73
1, 183772, Note_on_c, 0, 56, 22
1, 183781, Control_c, 0, 64, 66
1, 183787, Note_on_c, 0, 44, 25
1, 183788, Note_off_c, 0, 39, 36
1, 183796, Control_c, 0, 64, 38
1, 183811, Control_c, 0, 64, 0
1, 184040, Control_c, 0, 64, 53
1, 184055, Control_c, 0, 64, 64
1, 184070, Control_c, 0, 64, 69
1, 184085, Control_c, 0, 64, 74
1, 184100, Control_c, 0, 64, 81
1, 184115, Control_c, 0, 64, 89
1, 184130, Control_c, 0, 64, 94
1, 184145, Control_c, 0, 64, 100
1, 184160, Control_c, 0, 64, 107
1, 184175, Control_c, 0, 64, 113
1, 184184, Note_off_c, 0, 56, 40
1, 184189, Control_c, 0, 64, 123
1, 184204, Control_c, 0, 64, 127
1, 184232, Note_off_c, 0, 60, 56
1, 184415, Note_off_c, 0, 44, 41
1, 184794, Note_on_c, 0, 75, 33
1, 184908, Note_off_c, 0, 75, 40
1, 184922, Note_on_c, 0, 80, 46
1, 185028, Note_off_c, 0, 80, 38
1, 185033, Note_on_c, 0, 82, 54
1, 185122, Note_off_c, 0, 82, 57
1, 185154, Note_on_c, 0, 84, 43
1, 185248, Note_on_c, 0, 82, 56
1, 185257, Note_off_c, 0, 84, 38
1, 185361, Note_on_c, 0, 84, 59
1, 185376, Note_off_c, 0, 82, 36
1, 185391, Note_on_c, 0, 68, 49
1, 185473, Note_off_c, 0, 68, 63
1, 185489, Note_on_c, 0, 75, 54
1, 185582, Note_off_c, 0, 75, 64
1, 185623, Note_on_c, 0, 80, 52
1, 185641, Note_off_c, 0, 84, 55
1, 185697, Note_off_c, 0, 80, 53
1, 185739, Note_on_c, 0, 82, 41
1, 185844, Note_on_c, 0, 84, 56
1, 185862, Note_off_c, 0, 82, 45
1, 185947, Note_on_c, 0, 82, 47
1, 185949, Note_off_c, 0, 84, 58
1, 186050, Note_off_c, 0, 82, 54
1, 186070, Note_on_c, 0, 80, 62
1, 186112, Note_on_c, 0, 84, 40
1, 186168, Note_off_c, 0, 80, 55
1, 186190, Note_on_c, 0, 87, 60
1, 186308, Note_off_c, 0, 87, 61
1, 186328, Note_on_c, 0, 92, 65
1, 186427, Note_on_c, 0, 94, 69
1, 186434, Note_off_c, 0, 92, 54
1, 186548, Note_on_c, 0, 96, 69
1, 186552, Note_off_c, 0, 94, 58
1, 186658, Note_on_c, 0, 94, 78
1, 186675, Note_off_c, 0, 96, 57
1, 186791, Note_off_c, 0, 94, 63
1, 186800, Note_on_c, 0, 96, 67
1, 186837, Note_off_c, 0, 84, 49
1, 186913, Note_on_c, 0, 94, 77
1, 186914, Note_off_c, 0, 96, 61
1, 187015, Note_off_c, 0, 94, 58
1, 187039, Note_on_c, 0, 92, 55
1, 187128, Note_off_c, 0, 92, 62
1, 187137, Note_on_c, 0, 87, 57
1, 187250, Note_off_c, 0, 87, 59
1, 187269, Note_on_c, 0, 80, 49
1, 187388, Note_on_c, 0, 75, 42
1, 187396, Note_off_c, 0, 80, 40
1, 187467, Note_off_c, 0, 75, 58
1, 187483, Note_on_c, 0, 92, 61
1, 187585, Note_off_c, 0, 92, 57
1, 187592, Note_on_c, 0, 87, 55
1, 187659, Note_off_c, 0, 87, 56
1, 187692, Note_on_c, 0, 80, 55
1, 187786, Note_off_c, 0, 80, 49
1, 187821, Note_on_c, 0, 68, 41
1, 187942, Note_on_c, 0, 87, 51
1, 188047, Note_off_c, 0, 68, 33
1, 188055, Note_off_c, 0, 87, 60
1, 188077, Note_on_c, 0, 80, 53
1, 188172, Note_off_c, 0, 80, 60
1, 188199, Note_on_c, 0, 75, 46
1, 188333, Note_off_c, 0, 75, 39
1, 188342, Note_on_c, 0, 72, 37
1, 188487, Note_off_c, 0, 72, 53
1, 188504, Note_on_c, 0, 80, 51
1, 188690, Note_on_c, 0, 75, 34
1, 188905, Note_on_c, 0, 72, 39
1, 189049, Note_off_c, 0, 80, 38
1, 189086, Note_off_c, 0, 72, 57
1, 189139, Note_off_c, 0, 75, 12
1, 189177, Note_on_c, 0, 56, 47
1, 189259, Note_off_c, 0, 56, 63
1, 189893, Note_on_c, 0, 59, 62
1, 189904, Note_on_c, 0, 56, 48
1, 189918, Note_on_c, 0, 47, 48
1, 189928, Note_on_c, 0, 40, 44
1, 189965, Control_c, 0, 64, 123
1, 189980, Control_c, 0, 64, 115
1, 189994, Control_c, 0, 64, 108
1, 190009, Control_c, 0, 64, 102
1, 190032, Control_c, 0, 64, 96
1, 190047, Control_c, 0, 64, 91
1, 190062, Control_c, 0, 64, 87
1, 190076, Control_c, 0, 64, 82
1, 190091, Control_c, 0, 64, 76
1, 190106, Control_c, 0, 64, 69
1, 190121, Control_c, 0, 64, 57
1, 190135, Control_c, 0, 64, 0
1, 190401, Control_c, 0, 64, 23
1, 190416, Control_c, 0, 64, 39
1, 190431, Control_c, 0, 64, 48
1, 190446, Control_c, 0, 64, 57
1, 190461, Control_c, 0, 64, 62
1, 190476, Control_c, 0, 64, 64
1, 190491, Control_c, 0, 64, 66
1, 190506, Control_c, 0, 64, 67
1, 190521, Control_c, 0, 64, 67
1, 190536, Control_c, 0, 64, 68
1, 190550, Control_c, 0, 64, 70
1, 190565, Control_c, 0, 64, 72
1, 190580, Control_c, 0, 64, 73
1, 190595, Control_c, 0, 64, 74
1, 190610, Control_c, 0, 64, 75
1, 190624, Control_c, 0, 64, 76
1, 190639, Control_c, 0, 64, 77
1, 190654, Control_c, 0, 64, 78
1, 190669, Control_c, 0, 64, 80
1, 190684, Control_c, 0, 64, 82
1, 190698, Control_c, 0, 64, 84
1, 190713, Control_c, 0, 64, 85
1, 190728, Control_c, 0, 64, 87
1, 190742, Control_c, 0, 64, 89
1, 190757, Control_c, 0, 64, 92
1, 190780, Control_c, 0, 64, 95
1, 190795, Control_c, 0, 64, 98
1, 190810, Control_c, 0, 64, 101
1, 190824, Control_c, 0, 64, 105
1, 190839, Control_c, 0, 64, 108
1, 190854, Control_c, 0, 64, 113
1, 190869, Control_c, 0, 64, 119
1, 190884, Control_c, 0, 64, 125
1, 190898, Control_c, 0, 64, 127
1, 191957, Note_on_c, 0, 61, 53
1, 192345, Note_off_c, 0, 56, 33
1, 192468, Note_off_c, 0, 59, 38
1, 192542, Note_off_c, 0, 61, 58
1, 192620, Note_off_c, 0, 40, 41
1, 192965, Note_off_c, 0, 47, 43
1, 193566, Note_on_c, 0, 64, 52
1, 193593, Note_on_c, 0, 54, 39
1, 193609, Note_on_c, 0, 47, 41
1, 193620, Note_on_c, 0, 35, 33
1, 193634, Control_c, 0, 64, 121
1, 193650, Control_c, 0, 64, 114
1, 193665, Control_c, 0, 64, 109
1, 193680, Control_c, 0, 64, 105
1, 193695, Control_c, 0, 64, 101
1, 193710, Control_c, 0, 64, 97
1, 193724, Control_c, 0, 64, 93
1, 193739, Control_c, 0, 64, 89
1, 193754, Control_c, 0, 64, 86
1, 193776, Control_c, 0, 64, 83
1, 193791, Control_c, 0, 64, 80
1, 193806, Control_c, 0, 64, 78
1, 193821, Control_c, 0, 64, 75
1, 193836, Control_c, 0, 64, 72
1, 193850, Control_c, 0, 64, 69
1, 193865, Control_c, 0, 64, 65
1, 193880, Control_c, 0, 64, 60
1, 193895, Control_c, 0, 64, 52
1, 193910, Control_c, 0, 64, 49
1, 193924, Control_c, 0, 64, 50
1, 193939, Control_c, 0, 64, 51
1, 193968, Control_c, 0, 64, 50
1, 194120, Note_on_c, 0, 63, 51
1, 194170, Note_off_c, 0, 64, 50
1, 194190, Control_c, 0, 64, 51
1, 194324, Control_c, 0, 64, 49
1, 194339, Control_c, 0, 64, 44
1, 194354, Control_c, 0, 64, 35
1, 194368, Control_c, 0, 64, 28
1, 194383, Control_c, 0, 64, 27
1, 194398, Control_c, 0, 64, 28
1, 194413, Control_c, 0, 64, 29
1, 194428, Control_c, 0, 64, 30
1, 194443, Control_c, 0, 64, 31
1, 194459, Control_c, 0, 64, 33
1, 194473, Control_c, 0, 64, 36
1, 194488, Control_c, 0, 64, 42
1, 194503, Control_c, 0, 64, 51
1, 194525, Control_c, 0, 64, 58
1, 194540, Control_c, 0, 64, 62
1, 194554, Control_c, 0, 64, 65
1, 194569, Control_c, 0, 64, 66
1, 194584, Control_c, 0, 64, 68
1, 194599, Control_c, 0, 64, 71
1, 194614, Control_c, 0, 64, 74
1, 194629, Control_c, 0, 64, 77
1, 194644, Control_c, 0, 64, 81
1, 194658, Control_c, 0, 64, 85
1, 194673, Control_c, 0, 64, 89
1, 194688, Control_c, 0, 64, 94
1, 194703, Control_c, 0, 64, 97
1, 194717, Control_c, 0, 64, 101
1, 194732, Control_c, 0, 64, 103
1, 194747, Control_c, 0, 64, 106
1, 194762, Control_c, 0, 64, 109
1, 194777, Control_c, 0, 64, 113
1, 194791, Control_c, 0, 64, 117
1, 194805, Control_c, 0, 64, 123
1, 194819, Control_c, 0, 64, 127
1, 194971, Note_off_c, 0, 54, 33
1, 195133, Note_off_c, 0, 63, 36
1, 195972, Note_on_c, 0, 61, 48
1, 196000, Note_on_c, 0, 51, 36
1, 196032, Note_on_c, 0, 44, 43
1, 196051, Control_c, 0, 64, 120
1, 196066, Control_c, 0, 64, 115
1, 196081, Control_c, 0, 64, 111
1, 196096, Control_c, 0, 64, 107
1, 196111, Control_c, 0, 64, 104
1, 196114, Note_off_c, 0, 47, 44
1, 196125, Control_c, 0, 64, 99
1, 196140, Control_c, 0, 64, 96
1, 196155, Note_off_c, 0, 35, 39
1, 196155, Control_c, 0, 64, 93
1, 196170, Control_c, 0, 64, 90
1, 196185, Control_c, 0, 64, 87
1, 196200, Control_c, 0, 64, 84
1, 196215, Control_c, 0, 64, 81
1, 196229, Control_c, 0, 64, 78
1, 196244, Control_c, 0, 64, 75
1, 196259, Control_c, 0, 64, 71
1, 196274, Control_c, 0, 64, 67
1, 196289, Control_c, 0, 64, 63
1, 196304, Control_c, 0, 64, 55
1, 196318, Control_c, 0, 64, 53
1, 196333, Control_c, 0, 64, 54
1, 196348, Control_c, 0, 64, 54
1, 196362, Control_c, 0, 64, 52
1, 196377, Control_c, 0, 64, 46
1, 196392, Control_c, 0, 64, 37
1, 196407, Control_c, 0, 64, 30
1, 196466, Control_c, 0, 64, 34
1, 196467, Note_on_c, 0, 59, 56
1, 196481, Control_c, 0, 64, 43
1, 196489, Note_off_c, 0, 61, 55
1, 196495, Control_c, 0, 64, 56
1, 196510, Control_c, 0, 64, 63
1, 196525, Control_c, 0, 64, 66
1, 196540, Control_c, 0, 64, 70
1, 196555, Control_c, 0, 64, 73
1, 196569, Control_c, 0, 64, 77
1, 196584, Control_c, 0, 64, 80
1, 196599, Control_c, 0, 64, 84
1, 196614, Control_c, 0, 64, 88
1, 196629, Control_c, 0, 64, 93
1, 196644, Control_c, 0, 64, 99
1, 196659, Control_c, 0, 64, 106
1, 196674, Control_c, 0, 64, 115
1, 196688, Control_c, 0, 64, 127
1, 196828, Note_off_c, 0, 59, 38
1, 196832, Note_off_c, 0, 51, 36
1, 197033, Note_on_c, 0, 58, 48
1, 197088, Note_off_c, 0, 58, 62
1, 197107, Note_on_c, 0, 59, 50
1, 197170, Control_c, 0, 64, 121
1, 197174, Note_on_c, 0, 58, 59
1, 197184, Control_c, 0, 64, 114
1, 197199, Control_c, 0, 64, 108
1, 197205, Note_off_c, 0, 59, 38
1, 197207, Note_on_c, 0, 53, 31
1, 197214, Note_on_c, 0, 49, 40
1, 197214, Control_c, 0, 64, 102
1, 197218, Note_on_c, 0, 37, 40
1, 197229, Control_c, 0, 64, 96
1, 197244, Control_c, 0, 64, 90
1, 197252, Note_off_c, 0, 44, 41
1, 197258, Control_c, 0, 64, 85
1, 197273, Control_c, 0, 64, 79
1, 197288, Control_c, 0, 64, 72
1, 197303, Control_c, 0, 64, 62
1, 197317, Control_c, 0, 64, 0
1, 197637, Control_c, 0, 64, 51
1, 197652, Control_c, 0, 64, 65
1, 197667, Control_c, 0, 64, 69
1, 197682, Control_c, 0, 64, 73
1, 197696, Control_c, 0, 64, 78
1, 197711, Control_c, 0, 64, 81
1, 197726, Control_c, 0, 64, 84
1, 197741, Control_c, 0, 64, 88
1, 197756, Control_c, 0, 64, 93
1, 197771, Control_c, 0, 64, 97
1, 197785, Control_c, 0, 64, 102
1, 197800, Control_c, 0, 64, 107
1, 197815, Control_c, 0, 64, 113
1, 197830, Control_c, 0, 64, 123
1, 197845, Control_c, 0, 64, 127
1, 197958, Note_off_c, 0, 37, 42
1, 198020, Note_on_c, 0, 56, 43
1, 198055, Note_off_c, 0, 53, 38
1, 198114, Note_off_c, 0, 58, 35
1, 198189, Note_off_c, 0, 49, 37
1, 198274, Note_off_c, 0, 56, 53
1, 198668, Control_c, 0, 64, 122
1, 198677, Note_on_c, 0, 61, 44
1, 198683, Control_c, 0, 64, 109
1, 198688, Note_on_c, 0, 58, 38
1, 198698, Control_c, 0, 64, 97
1, 198705, Note_on_c, 0, 56, 29
1, 198713, Control_c, 0, 64, 81
1, 198719, Note_on_c, 0, 49, 39
1, 198727, Control_c, 0, 64, 66
1, 198734, Note_on_c, 0, 42, 32
1, 198742, Control_c, 0, 64, 0
1, 198817, Control_c, 0, 64, 64
1, 198831, Control_c, 0, 64, 74
1, 198846, Control_c, 0, 64, 86
1, 198861, Control_c, 0, 64, 97
1, 198876, Control_c, 0, 64, 104
1, 198885, Note_off_c, 0, 58, 58
1, 198890, Control_c, 0, 64, 115
1, 198897, Note_off_c, 0, 56, 41
1, 198905, Control_c, 0, 64, 127
1, 198940, Note_off_c, 0, 61, 63
1, 199145, Note_off_c, 0, 42, 41
1, 199163, Note_off_c, 0, 49, 40
1, 199238, Note_on_c, 0, 73, 33
1, 199365, Note_off_c, 0, 73, 40
1, 199368, Note_on_c, 0, 78, 49
1, 199461, Note_off_c, 0, 78, 52
1, 199476, Note_on_c, 0, 80, 53
1, 199559, Note_off_c, 0, 80, 49
1, 199577, Note_on_c, 0, 82, 56
1, 199665, Note_off_c, 0, 82, 53
1, 199684, Note_on_c, 0, 80, 55
1, 199788, Note_on_c, 0, 82, 67
1, 199789, Note_off_c, 0, 80, 51
1, 199801, Note_on_c, 0, 66, 51
1, 199884, Note_off_c, 0, 66, 64
1, 199902, Note_on_c, 0, 73, 52
1, 199977, Note_off_c, 0, 73, 64
1, 200005, Note_on_c, 0, 78, 57
1, 200006, Note_off_c, 0, 82, 62
1, 200090, Note_off_c, 0, 78, 59
1, 200107, Note_on_c, 0, 80, 57
1, 200197, Note_off_c, 0, 80, 63
1, 200213, Note_on_c, 0, 82, 62
1, 200298, Note_off_c, 0, 82, 63
1, 200327, Note_on_c, 0, 80, 57
1, 200401, Note_on_c, 0, 78, 56
1, 200410, Note_off_c, 0, 80, 64
1, 200429, Note_on_c, 0, 82, 54
1, 200516, Note_off_c, 0, 82, 0
1, 200516, Note_on_c, 0, 82, 4
1, 200526, Note_off_c, 0, 78, 57
1, 200534, Note_on_c, 0, 85, 56
1, 200624, Note_off_c, 0, 85, 63
1, 200644, Note_on_c, 0, 90, 65
1, 200749, Note_off_c, 0, 90, 51
1, 200751, Note_on_c, 0, 92, 66
1, 200844, Note_on_c, 0, 80, 51
1, 200858, Note_off_c, 0, 82, 42
1, 200859, Note_off_c, 0, 92, 62
1, 200874, Note_on_c, 0, 94, 67
1, 200975, Note_off_c, 0, 94, 59
1, 200977, Note_on_c, 0, 92, 69
1, 201099, Note_off_c, 0, 92, 45
1, 201104, Note_on_c, 0, 94, 66
1, 201144, Note_on_c, 0, 78, 45
1, 201145, Note_off_c, 0, 80, 38
1, 201196, Note_off_c, 0, 78, 60
1, 201219, Note_on_c, 0, 92, 62
1, 201231, Note_off_c, 0, 94, 52
1, 201319, Note_off_c, 0, 92, 58
1, 201333, Note_on_c, 0, 90, 60
1, 201427, Note_off_c, 0, 90, 62
1, 201434, Note_on_c, 0, 85, 61
1, 201518, Note_off_c, 0, 85, 61
1, 201544, Note_on_c, 0, 78, 63
1, 201550, Note_on_c, 0, 82, 53
1, 201569, Note_off_c, 0, 78, 67
1, 201652, Note_off_c, 0, 82, 62
1, 201677, Note_on_c, 0, 80, 59
1, 201834, Note_off_c, 0, 80, 55
1, 201840, Note_on_c, 0, 78, 56
1, 201853, Note_on_c, 0, 70, 62
1, 201964, Note_on_c, 0, 73, 35
1, 201992, Note_on_c, 0, 68, 64
1, 201994, Note_off_c, 0, 78, 55
1, 202019, Note_off_c, 0, 70, 39
1, 202045, Note_off_c, 0, 73, 63
1, 202137, Note_on_c, 0, 66, 72
1, 202146, Note_off_c, 0, 68, 60
1, 202252, Note_on_c, 0, 61, 76
1, 202259, Note_off_c, 0, 66, 62
1, 202380, Note_on_c, 0, 58, 73
1, 202438, Note_off_c, 0, 61, 58
1, 202511, Note_on_c, 0, 56, 80
1, 202525, Note_off_c, 0, 58, 64
1, 202578, Note_off_c, 0, 56, 64
1, 202848, Note_on_c, 0, 70, 88
1, 202855, Note_on_c, 0, 63, 72
1, 202861, Note_on_c, 0, 58, 74
1, 202870, Note_on_c, 0, 54, 68
1, 202879, Control_c, 0, 64, 125
1, 202894, Control_c, 0, 64, 108
1, 202909, Control_c, 0, 64, 93
1, 202924, Control_c, 0, 64, 73
1, 202938, Control_c, 0, 64, 0
1, 203056, Control_c, 0, 64, 43
1, 203071, Control_c, 0, 64, 63
1, 203086, Control_c, 0, 64, 66
1, 203101, Control_c, 0, 64, 70
1, 203116, Control_c, 0, 64, 73
1, 203130, Control_c, 0, 64, 77
1, 203145, Control_c, 0, 64, 81
1, 203160, Control_c, 0, 64, 84
1, 203175, Control_c, 0, 64, 87
1, 203190, Control_c, 0, 64, 91
1, 203205, Control_c, 0, 64, 95
1, 203220, Control_c, 0, 64, 98
1, 203235, Control_c, 0, 64, 101
1, 203250, Control_c, 0, 64, 104
1, 203265, Control_c, 0, 64, 107
1, 203280, Control_c, 0, 64, 110
1, 203295, Control_c, 0, 64, 113
1, 203309, Control_c, 0, 64, 116
1, 203324, Control_c, 0, 64, 120
1, 203339, Control_c, 0, 64, 126
1, 203354, Control_c, 0, 64, 127
1, 203437, Note_off_c, 0, 58, 57
1, 203709, Note_off_c, 0, 70, 48
1, 203731, Note_off_c, 0, 63, 54
1, 203789, Note_on_c, 0, 53, 76
1, 203811, Note_off_c, 0, 54, 61
1, 204160, Note_on_c, 0, 72, 74
1, 204174, Note_on_c, 0, 66, 67
1, 204196, Note_on_c, 0, 51, 49
1, 204201, Note_off_c, 0, 53, 54
1, 204204, Note_on_c, 0, 65, 44
1, 204206, Control_c, 0, 64, 125
1, 204221, Control_c, 0, 64, 114
1, 204236, Control_c, 0, 64, 106
1, 204258, Control_c, 0, 64, 98
1, 204273, Control_c, 0, 64, 91
1, 204288, Control_c, 0, 64, 85
1, 204302, Control_c, 0, 64, 79
1, 204317, Control_c, 0, 64, 72
1, 204332, Control_c, 0, 64, 64
1, 204347, Control_c, 0, 64, 0
1, 204599, Control_c, 0, 64, 38
1, 204609, Note_on_c, 0, 63, 54
1, 204614, Control_c, 0, 64, 51
1, 204629, Control_c, 0, 64, 57
1, 204644, Control_c, 0, 64, 61
1, 204658, Control_c, 0, 64, 63
1, 204673, Control_c, 0, 64, 65
1, 204688, Control_c, 0, 64, 68
1, 204702, Control_c, 0, 64, 71
1, 204717, Control_c, 0, 64, 76
1, 204732, Control_c, 0, 64, 83
1, 204747, Control_c, 0, 64, 87
1, 204762, Control_c, 0, 64, 91
1, 204776, Control_c, 0, 64, 95
1, 204791, Control_c, 0, 64, 100
1, 204806, Control_c, 0, 64, 105
1, 204822, Control_c, 0, 64, 113
1, 204837, Control_c, 0, 64, 121
1, 204852, Control_c, 0, 64, 127
1, 204955, Note_off_c, 0, 66, 36
1, 205118, Note_off_c, 0, 63, 38
1, 205123, Note_off_c, 0, 65, 30
1, 205134, Note_off_c, 0, 72, 38
1, 205177, Note_off_c, 0, 51, 33
1, 205525, Control_c, 0, 64, 123
1, 205540, Control_c, 0, 64, 109
1, 205555, Note_on_c, 0, 46, 44
1, 205555, Control_c, 0, 64, 97
1, 205560, Note_on_c, 0, 65, 39
1, 205570, Control_c, 0, 64, 85
1, 205578, Note_on_c, 0, 62, 35
1, 205585, Control_c, 0, 64, 72
1, 205599, Control_c, 0, 64, 0
1, 205660, Control_c, 0, 64, 51
1, 205675, Control_c, 0, 64, 66
1, 205690, Control_c, 0, 64, 74
1, 205704, Control_c, 0, 64, 81
1, 205719, Control_c, 0, 64, 87
1, 205734, Control_c, 0, 64, 92
1, 205756, Control_c, 0, 64, 98
1, 205771, Control_c, 0, 64, 105
1, 205781, Note_off_c, 0, 46, 38
1, 205786, Control_c, 0, 64, 117
1, 205801, Control_c, 0, 64, 127
1, 206082, Note_on_c, 0, 29, 51
1, 206212, Note_off_c, 0, 62, 40
1, 206215, Control_c, 0, 64, 121
1, 206230, Control_c, 0, 64, 114
1, 206238, Note_on_c, 0, 34, 60
1, 206245, Control_c, 0, 64, 109
1, 206251, Note_off_c, 0, 29, 39
1, 206254, Note_off_c, 0, 65, 61
1, 206260, Control_c, 0, 64, 104
1, 206274, Control_c, 0, 64, 100
1, 206289, Control_c, 0, 64, 96
1, 206304, Control_c, 0, 64, 92
1, 206319, Control_c, 0, 64, 89
1, 206334, Control_c, 0, 64, 86
1, 206348, Control_c, 0, 64, 84
1, 206363, Control_c, 0, 64, 81
1, 206364, Note_on_c, 0, 36, 64
1, 206367, Note_off_c, 0, 34, 64
1, 206378, Control_c, 0, 64, 79
1, 206393, Control_c, 0, 64, 77
1, 206408, Control_c, 0, 64, 76
1, 206424, Control_c, 0, 64, 74
1, 206439, Control_c, 0, 64, 73
1, 206453, Control_c, 0, 64, 71
1, 206468, Control_c, 0, 64, 68
1, 206478, Note_on_c, 0, 38, 60
1, 206478, Note_off_c, 0, 36, 62
1, 206483, Control_c, 0, 64, 66
1, 206505, Control_c, 0, 64, 63
1, 206519, Control_c, 0, 64, 59
1, 206534, Control_c, 0, 64, 58
1, 206579, Control_c, 0, 64, 58
1, 206582, Note_off_c, 0, 38, 63
1, 206594, Control_c, 0, 64, 57
1, 206597, Note_on_c, 0, 36, 66
1, 206609, Control_c, 0, 64, 56
1, 206624, Control_c, 0, 64, 55
1, 206697, Control_c, 0, 64, 55
1, 206704, Note_on_c, 0, 38, 69
1, 206708, Note_off_c, 0, 36, 62
1, 206757, Control_c, 0, 64, 56
1, 206800, Control_c, 0, 64, 56
1, 206815, Note_on_c, 0, 45, 66
1, 206815, Control_c, 0, 64, 57
1, 206844, Control_c, 0, 64, 57
1, 206859, Control_c, 0, 64, 58
1, 206862, Note_off_c, 0, 38, 61
1, 206874, Control_c, 0, 64, 58
1, 206899, Note_off_c, 0, 45, 64
1, 206904, Control_c, 0, 64, 59
1, 206904, Note_on_c, 0, 50, 70
1, 206919, Control_c, 0, 64, 59
1, 206964, Control_c, 0, 64, 60
1, 206995, Note_on_c, 0, 52, 76
1, 207002, Note_off_c, 0, 50, 60
1, 207022, Control_c, 0, 64, 60
1, 207037, Control_c, 0, 64, 61
1, 207083, Note_off_c, 0, 52, 65
1, 207084, Note_on_c, 0, 53, 74
1, 207170, Control_c, 0, 64, 60
1, 207176, Note_on_c, 0, 52, 82
1, 207181, Note_off_c, 0, 53, 65
1, 207216, Control_c, 0, 64, 60
1, 207231, Control_c, 0, 64, 59
1, 207253, Control_c, 0, 64, 58
1, 207268, Control_c, 0, 64, 57
1, 207271, Note_off_c, 0, 52, 56
1, 207283, Control_c, 0, 64, 56
1, 207286, Note_on_c, 0, 53, 85
1, 207298, Control_c, 0, 64, 54
1, 207312, Control_c, 0, 64, 51
1, 207327, Control_c, 0, 64, 47
1, 207342, Control_c, 0, 64, 41
1, 207357, Control_c, 0, 64, 27
1, 207372, Control_c, 0, 64, 0
1, 207399, Note_on_c, 0, 37, 60
1, 207486, Note_on_c, 0, 41, 66
1, 207496, Note_off_c, 0, 37, 62
1, 207560, Note_off_c, 0, 53, 60
1, 207575, Note_on_c, 0, 43, 72
1, 207581, Note_off_c, 0, 41, 66
1, 207637, Control_c, 0, 64, 11
1, 207652, Control_c, 0, 64, 16
1, 207655, Note_on_c, 0, 44, 73
1, 207662, Note_off_c, 0, 43, 62
1, 207667, Control_c, 0, 64, 18
1, 207682, Control_c, 0, 64, 20
1, 207697, Control_c, 0, 64, 22
1, 207739, Note_off_c, 0, 44, 63
1, 207744, Note_on_c, 0, 43, 71
1, 207844, Control_c, 0, 64, 23
1, 207858, Note_on_c, 0, 45, 86
1, 207858, Note_off_c, 0, 43, 62
1, 207874, Control_c, 0, 64, 25
1, 207933, Control_c, 0, 64, 28
1, 207948, Control_c, 0, 64, 32
1, 207957, Note_on_c, 0, 48, 79
1, 207963, Control_c, 0, 64, 34
1, 207978, Control_c, 0, 64, 37
1, 208000, Control_c, 0, 64, 38
1, 208015, Control_c, 0, 64, 39
1, 208018, Note_off_c, 0, 45, 64
1, 208031, Control_c, 0, 64, 40
1, 208046, Control_c, 0, 64, 41
1, 208050, Note_on_c, 0, 53, 81
1, 208058, Note_off_c, 0, 48, 65
1, 208061, Control_c, 0, 64, 42
1, 208075, Control_c, 0, 64, 43
1, 208105, Control_c, 0, 64, 44
1, 208120, Control_c, 0, 64, 44
1, 208135, Control_c, 0, 64, 45
1, 208143, Note_on_c, 0, 55, 82
1, 208149, Control_c, 0, 64, 45
1, 208151, Note_off_c, 0, 53, 64
1, 208164, Control_c, 0, 64, 46
1, 208223, Control_c, 0, 64, 46
1, 208233, Note_on_c, 0, 57, 82
1, 208244, Note_off_c, 0, 55, 65
1, 208268, Control_c, 0, 64, 46
1, 208297, Control_c, 0, 64, 45
1, 208330, Note_on_c, 0, 55, 87
1, 208342, Control_c, 0, 64, 45
1, 208350, Note_off_c, 0, 57, 61
1, 208401, Control_c, 0, 64, 44
1, 208421, Note_off_c, 0, 55, 63
1, 208430, Note_on_c, 0, 57, 92
1, 208430, Control_c, 0, 64, 44
1, 208445, Control_c, 0, 64, 43
1, 208560, Note_on_c, 0, 41, 68
1, 208564, Control_c, 0, 64, 44
1, 208653, Control_c, 0, 64, 44
1, 208657, Note_on_c, 0, 46, 79
1, 208667, Control_c, 0, 64, 45
1, 208681, Note_off_c, 0, 41, 64
1, 208697, Control_c, 0, 64, 45
1, 208727, Control_c, 0, 64, 46
1, 208749, Control_c, 0, 64, 46
1, 208760, Note_off_c, 0, 57, 59
1, 208775, Note_off_c, 0, 46, 64
1, 208778, Note_on_c, 0, 48, 81
1, 208779, Control_c, 0, 64, 47
1, 208794, Control_c, 0, 64, 48
1, 208809, Control_c, 0, 64, 48
1, 208824, Control_c, 0, 64, 49
1, 208839, Control_c, 0, 64, 49
1, 208868, Control_c, 0, 64, 50
1, 208892, Note_on_c, 0, 49, 85
1, 208903, Note_off_c, 0, 48, 59
1, 208913, Control_c, 0, 64, 50
1, 209010, Note_on_c, 0, 51, 88
1, 209017, Control_c, 0, 64, 50
1, 209020, Note_off_c, 0, 49, 62
1, 209032, Control_c, 0, 64, 49
1, 209240, Control_c, 0, 64, 49
1, 209254, Control_c, 0, 64, 48
1, 209262, Note_on_c, 0, 68, 89
1, 209269, Control_c, 0, 64, 48
1, 209271, Note_on_c, 0, 61, 76
1, 209273, Note_on_c, 0, 56, 78
1, 209284, Control_c, 0, 64, 47
1, 209295, Note_on_c, 0, 52, 81
1, 209298, Control_c, 0, 64, 45
1, 209301, Note_off_c, 0, 51, 61
1, 209313, Control_c, 0, 64, 39
1, 209328, Control_c, 0, 64, 0
1, 209618, Control_c, 0, 64, 11
1, 209633, Control_c, 0, 64, 39
1, 209648, Control_c, 0, 64, 50
1, 209663, Control_c, 0, 64, 57
1, 209677, Control_c, 0, 64, 61
1, 209692, Control_c, 0, 64, 63
1, 209707, Control_c, 0, 64, 65
1, 209721, Control_c, 0, 64, 67
1, 209736, Control_c, 0, 64, 69
1, 209751, Control_c, 0, 64, 72
1, 209766, Control_c, 0, 64, 76
1, 209781, Control_c, 0, 64, 80
1, 209795, Control_c, 0, 64, 83
1, 209810, Control_c, 0, 64, 86
1, 209822, Note_off_c, 0, 56, 49
1, 209825, Control_c, 0, 64, 89
1, 209840, Control_c, 0, 64, 93
1, 209855, Control_c, 0, 64, 98
1, 209870, Control_c, 0, 64, 103
1, 209885, Control_c, 0, 64, 109
1, 209900, Control_c, 0, 64, 117
1, 209914, Control_c, 0, 64, 126
1, 209929, Control_c, 0, 64, 127
1, 210029, Note_off_c, 0, 61, 52
1, 210186, Note_off_c, 0, 68, 65
1, 210220, Note_on_c, 0, 51, 78
1, 210251, Note_off_c, 0, 52, 62
1, 210544, Control_c, 0, 64, 126
1, 210559, Control_c, 0, 64, 118
1, 210574, Control_c, 0, 64, 111
1, 210588, Note_on_c, 0, 70, 74
1, 210589, Control_c, 0, 64, 104
1, 210603, Note_on_c, 0, 64, 63
1, 210604, Control_c, 0, 64, 97
1, 210616, Note_on_c, 0, 63, 52
1, 210618, Control_c, 0, 64, 90
1, 210633, Control_c, 0, 64, 83
1, 210648, Control_c, 0, 64, 76
1, 210663, Control_c, 0, 64, 68
1, 210674, Note_on_c, 0, 49, 44
1, 210678, Control_c, 0, 64, 50
1, 210693, Control_c, 0, 64, 0
1, 210709, Note_off_c, 0, 51, 56
1, 211009, Note_on_c, 0, 61, 53
1, 211159, Control_c, 0, 64, 49
1, 211174, Control_c, 0, 64, 60
1, 211189, Control_c, 0, 64, 64
1, 211203, Control_c, 0, 64, 66
1, 211220, Control_c, 0, 64, 69
1, 211235, Control_c, 0, 64, 72
1, 211249, Control_c, 0, 64, 77
1, 211264, Control_c, 0, 64, 82
1, 211278, Control_c, 0, 64, 88
1, 211292, Control_c, 0, 64, 94
1, 211307, Control_c, 0, 64, 103
1, 211316, Note_off_c, 0, 64, 34
1, 211322, Control_c, 0, 64, 113
1, 211337, Control_c, 0, 64, 127
1, 211602, Note_off_c, 0, 61, 57
1, 211635, Note_off_c, 0, 63, 39
1, 211707, Note_off_c, 0, 49, 38
1, 212043, Control_c, 0, 64, 125
1, 212055, Note_on_c, 0, 63, 33
1, 212058, Control_c, 0, 64, 117
1, 212068, Note_on_c, 0, 60, 36
1, 212072, Control_c, 0, 64, 110
1, 212085, Note_on_c, 0, 44, 34
1, 212087, Control_c, 0, 64, 102
1, 212102, Control_c, 0, 64, 91
1, 212116, Control_c, 0, 64, 80
1, 212131, Control_c, 0, 64, 67
1, 212146, Control_c, 0, 64, 0
1, 212220, Control_c, 0, 64, 38
1, 212234, Control_c, 0, 64, 66
1, 212249, Control_c, 0, 64, 75
1, 212264, Control_c, 0, 64, 83
1, 212279, Control_c, 0, 64, 90
1, 212294, Control_c, 0, 64, 95
1, 212308, Control_c, 0, 64, 102
1, 212323, Control_c, 0, 64, 110
1, 212335, Note_off_c, 0, 44, 52
1, 212338, Control_c, 0, 64, 122
1, 212353, Control_c, 0, 64, 127
1, 212661, Note_on_c, 0, 27, 52
1, 212851, Control_c, 0, 64, 123
1, 212864, Note_on_c, 0, 32, 63
1, 212865, Control_c, 0, 64, 119
1, 212880, Control_c, 0, 64, 116
1, 212883, Note_off_c, 0, 60, 52
1, 212893, Note_off_c, 0, 70, 54
1, 212895, Control_c, 0, 64, 113
1, 212910, Control_c, 0, 64, 110
1, 212925, Control_c, 0, 64, 108
1, 212939, Control_c, 0, 64, 106
1, 212954, Control_c, 0, 64, 104
1, 212969, Control_c, 0, 64, 102
1, 212972, Note_off_c, 0, 63, 42
1, 212984, Control_c, 0, 64, 101
1, 212999, Control_c, 0, 64, 100
1, 213002, Note_on_c, 0, 34, 69
1, 213013, Control_c, 0, 64, 98
1, 213028, Note_off_c, 0, 27, 29
1, 213028, Control_c, 0, 64, 97
1, 213043, Control_c, 0, 64, 96
1, 213057, Control_c, 0, 64, 95
1, 213072, Control_c, 0, 64, 94
1, 213087, Control_c, 0, 64, 93
1, 213102, Control_c, 0, 64, 91
1, 213117, Control_c, 0, 64, 90
1, 213119, Note_on_c, 0, 36, 71
1, 213131, Control_c, 0, 64, 89
1, 213146, Control_c, 0, 64, 88
1, 213154, Note_off_c, 0, 34, 62
1, 213161, Control_c, 0, 64, 87
1, 213176, Control_c, 0, 64, 86
1, 213191, Control_c, 0, 64, 84
1, 213206, Control_c, 0, 64, 83
1, 213221, Control_c, 0, 64, 81
1, 213243, Control_c, 0, 64, 80
1, 213245, Note_on_c, 0, 34, 74
1, 213258, Control_c, 0, 64, 78
1, 213265, Note_off_c, 0, 36, 63
1, 213272, Control_c, 0, 64, 77
1, 213287, Control_c, 0, 64, 75
1, 213297, Note_off_c, 0, 32, 38
1, 213302, Control_c, 0, 64, 74
1, 213317, Control_c, 0, 64, 72
1, 213332, Control_c, 0, 64, 70
1, 213346, Control_c, 0, 64, 67
1, 213361, Control_c, 0, 64, 64
1, 213376, Control_c, 0, 64, 61
1, 213390, Control_c, 0, 64, 60
1, 213405, Control_c, 0, 64, 60
1, 213435, Control_c, 0, 64, 60
1, 213450, Control_c, 0, 64, 59
1, 213465, Control_c, 0, 64, 58
1, 213480, Control_c, 0, 64, 57
1, 213495, Control_c, 0, 64, 57
1, 213510, Control_c, 0, 64, 55
1, 213525, Note_on_c, 0, 63, 73
1, 213525, Control_c, 0, 64, 52
1, 213531, Note_on_c, 0, 51, 60
1, 213534, Note_on_c, 0, 56, 58
1, 213539, Control_c, 0, 64, 43
1, 213554, Control_c, 0, 64, 29
1, 213557, Note_on_c, 0, 35, 63
1, 213569, Control_c, 0, 64, 0
1, 213590, Note_off_c, 0, 34, 61
1, 213836, Control_c, 0, 64, 54
1, 213851, Control_c, 0, 64, 65
1, 213866, Control_c, 0, 64, 69
1, 213881, Control_c, 0, 64, 73
1, 213895, Control_c, 0, 64, 79
1, 213910, Control_c, 0, 64, 87
1, 213925, Control_c, 0, 64, 98
1, 213940, Control_c, 0, 64, 107
1, 213955, Control_c, 0, 64, 118
1, 213959, Note_off_c, 0, 51, 37
1, 213969, Control_c, 0, 64, 127
1, 214073, Note_off_c, 0, 35, 55
1, 214232, Note_off_c, 0, 63, 22
1, 214326, Note_on_c, 0, 65, 67
1, 214419, Note_off_c, 0, 56, 59
1, 214502, Note_off_c, 0, 65, 64
1, 214911, Note_on_c, 0, 66, 48
1, 214935, Note_on_c, 0, 58, 35
1, 214941, Note_on_c, 0, 54, 34
1, 214948, Control_c, 0, 64, 125
1, 214963, Control_c, 0, 64, 112
1, 214973, Note_on_c, 0, 39, 27
1, 214976, Note_on_c, 0, 27, 28
1, 214978, Control_c, 0, 64, 100
1, 214992, Control_c, 0, 64, 91
1, 215007, Control_c, 0, 64, 83
1, 215023, Control_c, 0, 64, 75
1, 215037, Control_c, 0, 64, 65
1, 215052, Control_c, 0, 64, 0
1, 215185, Control_c, 0, 64, 61
1, 215200, Control_c, 0, 64, 70
1, 215216, Control_c, 0, 64, 78
1, 215231, Control_c, 0, 64, 85
1, 215246, Control_c, 0, 64, 91
1, 215260, Control_c, 0, 64, 100
1, 215275, Control_c, 0, 64, 112
1, 215277, Note_off_c, 0, 54, 40
1, 215290, Control_c, 0, 64, 127
1, 215318, Note_off_c, 0, 66, 57
1, 215353, Note_off_c, 0, 58, 56
1, 215367, Note_off_c, 0, 27, 55
1, 215395, Note_off_c, 0, 39, 40
1, 215830, Control_c, 0, 64, 119
1, 215845, Control_c, 0, 64, 111
1, 215859, Control_c, 0, 64, 105
1, 215874, Control_c, 0, 64, 100
1, 215889, Control_c, 0, 64, 95
1, 215904, Control_c, 0, 64, 91
1, 215919, Control_c, 0, 64, 87
1, 215933, Control_c, 0, 64, 83
1, 215948, Control_c, 0, 64, 80
1, 215963, Control_c, 0, 64, 77
1, 215978, Control_c, 0, 64, 73
1, 215993, Control_c, 0, 64, 69
1, 216009, Control_c, 0, 64, 63
1, 216024, Control_c, 0, 64, 34
1, 216038, Control_c, 0, 64, 0
1, 216081, Note_on_c, 0, 61, 46
1, 216091, Note_on_c, 0, 49, 34
1, 216101, Note_on_c, 0, 42, 33
1, 216151, Note_off_c, 0, 61, 60
1, 216174, Note_on_c, 0, 60, 48
1, 216245, Note_off_c, 0, 60, 54
1, 216246, Note_on_c, 0, 61, 50
1, 216255, Poly_aftertouch_c, 0, 57, 127
1, 216817, Control_c, 0, 64, 46
1, 216831, Control_c, 0, 64, 55
1, 216846, Control_c, 0, 64, 58
1, 216861, Control_c, 0, 64, 61
1, 216876, Control_c, 0, 64, 63
1, 216891, Control_c, 0, 64, 66
1, 216905, Control_c, 0, 64, 69
1, 216920, Control_c, 0, 64, 72
1, 216935, Control_c, 0, 64, 76
1, 216950, Control_c, 0, 64, 79
1, 216965, Control_c, 0, 64, 81
1, 216987, Control_c, 0, 64, 84
1, 217002, Control_c, 0, 64, 86
1, 217017, Control_c, 0, 64, 90
1, 217031, Control_c, 0, 64, 93
1, 217036, Note_on_c, 0, 63, 47
1, 217046, Control_c, 0, 64, 96
1, 217061, Control_c, 0, 64, 98
1, 217076, Control_c, 0, 64, 100
1, 217091, Control_c, 0, 64, 102
1, 217095, Poly_aftertouch_c, 0, 57, 0
1, 217105, Control_c, 0, 64, 103
1, 217120, Control_c, 0, 64, 105
1, 217135, Control_c, 0, 64, 106
1, 217150, Control_c, 0, 64, 107
1, 217165, Control_c, 0, 64, 108
1, 217179, Control_c, 0, 64, 109
1, 217191, Note_off_c, 0, 49, 37
1, 217194, Control_c, 0, 64, 110
1, 217200, Note_off_c, 0, 61, 31
1, 217209, Control_c, 0, 64, 112
1, 217224, Control_c, 0, 64, 114
1, 217239, Control_c, 0, 64, 115
1, 217254, Control_c, 0, 64, 117
1, 217269, Control_c, 0, 64, 118
1, 217284, Control_c, 0, 64, 120
1, 217298, Control_c, 0, 64, 122
1, 217313, Control_c, 0, 64, 124
1, 217328, Control_c, 0, 64, 127
1, 217329, Note_off_c, 0, 63, 32
1, 217343, Control_c, 0, 64, 127
1, 217379, Note_off_c, 0, 42, 40
1, 217699, Control_c, 0, 64, 125
1, 217714, Control_c, 0, 64, 121
1, 217734, Note_on_c, 0, 65, 39
1, 217736, Control_c, 0, 64, 118
1, 217751, Control_c, 0, 64, 115
1, 217756, Note_on_c, 0, 56, 29
1, 217766, Control_c, 0, 64, 112
1, 217781, Control_c, 0, 64, 109
1, 217784, Note_on_c, 0, 49, 15
1, 217784, Note_on_c, 0, 37, 19
1, 217796, Control_c, 0, 64, 105
1, 217810, Control_c, 0, 64, 100
1, 217825, Control_c, 0, 64, 95
1, 217840, Control_c, 0, 64, 89
1, 217854, Control_c, 0, 64, 81
1, 217869, Control_c, 0, 64, 74
1, 217884, Control_c, 0, 64, 63
1, 217899, Control_c, 0, 64, 0
1, 218166, Control_c, 0, 64, 63
1, 218180, Control_c, 0, 64, 71
1, 218195, Control_c, 0, 64, 79
1, 218210, Control_c, 0, 64, 85
1, 218225, Control_c, 0, 64, 90
1, 218230, Note_off_c, 0, 56, 41
1, 218240, Control_c, 0, 64, 94
1, 218252, Note_off_c, 0, 65, 42
1, 218254, Control_c, 0, 64, 98
1, 218269, Control_c, 0, 64, 103
1, 218284, Control_c, 0, 64, 108
1, 218299, Control_c, 0, 64, 114
1, 218306, Note_off_c, 0, 37, 41
1, 218314, Control_c, 0, 64, 119
1, 218328, Control_c, 0, 64, 120
1, 218343, Control_c, 0, 64, 121
1, 218351, Note_off_c, 0, 49, 40
1, 218358, Control_c, 0, 64, 121
1, 218387, Control_c, 0, 64, 121
1, 218419, Control_c, 0, 64, 120
1, 218433, Control_c, 0, 64, 118
1, 218448, Control_c, 0, 64, 115
1, 218463, Control_c, 0, 64, 112
1, 218485, Control_c, 0, 64, 108
1, 218500, Control_c, 0, 64, 104
1, 218515, Control_c, 0, 64, 99
1, 218530, Control_c, 0, 64, 95
1, 218544, Control_c, 0, 64, 91
1, 218559, Control_c, 0, 64, 87
1, 218574, Control_c, 0, 64, 82
1, 218589, Control_c, 0, 64, 77
1, 218604, Control_c, 0, 64, 70
1, 218618, Control_c, 0, 64, 59
1, 218633, Control_c, 0, 64, 0
1, 219171, Note_on_c, 0, 77, 67
1, 219178, Note_on_c, 0, 67, 46
1, 219211, Note_on_c, 0, 61, 37
1, 219216, Note_on_c, 0, 51, 35
1, 219514, Control_c, 0, 64, 25
1, 219529, Control_c, 0, 64, 39
1, 219544, Control_c, 0, 64, 45
1, 219559, Control_c, 0, 64, 48
1, 219574, Control_c, 0, 64, 51
1, 219588, Control_c, 0, 64, 55
1, 219603, Control_c, 0, 64, 59
1, 219618, Control_c, 0, 64, 62
1, 219632, Control_c, 0, 64, 64
1, 219647, Control_c, 0, 64, 65
1, 219662, Control_c, 0, 64, 67
1, 219677, Control_c, 0, 64, 68
1, 219692, Control_c, 0, 64, 70
1, 219707, Control_c, 0, 64, 71
1, 219722, Control_c, 0, 64, 72
1, 219737, Control_c, 0, 64, 73
1, 219752, Control_c, 0, 64, 75
1, 219767, Control_c, 0, 64, 76
1, 219781, Control_c, 0, 64, 77
1, 219811, Control_c, 0, 64, 77
1, 219840, Control_c, 0, 64, 78
1, 219996, Control_c, 0, 64, 77
1, 220041, Control_c, 0, 64, 77
1, 220071, Control_c, 0, 64, 76
1, 220074, Note_on_c, 0, 75, 59
1, 220086, Control_c, 0, 64, 76
1, 220100, Control_c, 0, 64, 75
1, 220105, Note_on_c, 0, 60, 43
1, 220115, Control_c, 0, 64, 75
1, 220130, Control_c, 0, 64, 74
1, 220145, Note_off_c, 0, 77, 36
1, 220145, Control_c, 0, 64, 72
1, 220160, Control_c, 0, 64, 70
1, 220175, Control_c, 0, 64, 67
1, 220179, Note_off_c, 0, 61, 32
1, 220190, Control_c, 0, 64, 64
1, 220204, Control_c, 0, 64, 58
1, 220219, Control_c, 0, 64, 55
1, 220234, Control_c, 0, 64, 56
1, 220263, Control_c, 0, 64, 55
1, 220278, Control_c, 0, 64, 53
1, 220293, Control_c, 0, 64, 50
1, 220308, Control_c, 0, 64, 48
1, 220323, Control_c, 0, 64, 43
1, 220337, Control_c, 0, 64, 0
1, 220412, Note_on_c, 0, 73, 68
1, 220428, Note_on_c, 0, 58, 51
1, 220447, Note_off_c, 0, 75, 52
1, 220455, Control_c, 0, 64, 65
1, 220457, Note_off_c, 0, 60, 54
1, 220470, Control_c, 0, 64, 73
1, 220485, Control_c, 0, 64, 81
1, 220500, Control_c, 0, 64, 89
1, 220515, Control_c, 0, 64, 94
1, 220518, Note_off_c, 0, 51, 40
1, 220526, Note_off_c, 0, 58, 55
1, 220530, Control_c, 0, 64, 98
1, 220539, Note_off_c, 0, 73, 57
1, 220545, Control_c, 0, 64, 102
1, 220560, Control_c, 0, 64, 107
1, 220574, Control_c, 0, 64, 112
1, 220589, Control_c, 0, 64, 116
1, 220604, Control_c, 0, 64, 120
1, 220619, Control_c, 0, 64, 124
1, 220634, Control_c, 0, 64, 125
1, 220648, Control_c, 0, 64, 126
1, 220663, Control_c, 0, 64, 126
1, 220699, Note_on_c, 0, 73, 50
1, 220715, Note_off_c, 0, 67, 44
1, 220744, Control_c, 0, 64, 126
1, 220771, Note_on_c, 0, 75, 61
1, 220771, Note_off_c, 0, 73, 61
1, 220774, Control_c, 0, 64, 125
1, 220789, Control_c, 0, 64, 121
1, 220805, Control_c, 0, 64, 117
1, 220820, Control_c, 0, 64, 113
1, 220834, Control_c, 0, 64, 109
1, 220843, Note_on_c, 0, 73, 64
1, 220846, Note_off_c, 0, 75, 63
1, 220849, Control_c, 0, 64, 105
1, 220864, Control_c, 0, 64, 102
1, 220869, Note_on_c, 0, 67, 38
1, 220874, Note_on_c, 0, 52, 47
1, 220878, Control_c, 0, 64, 98
1, 220881, Note_on_c, 0, 58, 44
1, 220893, Control_c, 0, 64, 94
1, 220908, Control_c, 0, 64, 89
1, 220923, Control_c, 0, 64, 85
1, 220938, Control_c, 0, 64, 81
1, 220953, Control_c, 0, 64, 78
1, 220968, Control_c, 0, 64, 74
1, 220983, Control_c, 0, 64, 69
1, 220997, Control_c, 0, 64, 60
1, 221012, Control_c, 0, 64, 0
1, 221397, Control_c, 0, 64, 11
1, 221412, Control_c, 0, 64, 14
1, 221427, Control_c, 0, 64, 16
1, 221442, Control_c, 0, 64, 18
1, 221519, Note_on_c, 0, 72, 50
1, 221542, Note_on_c, 0, 60, 36
1, 221581, Note_off_c, 0, 73, 30
1, 221627, Control_c, 0, 64, 16
1, 221806, Control_c, 0, 64, 14
1, 221890, Note_on_c, 0, 70, 41
1, 221901, Note_on_c, 0, 61, 33
1, 221901, Note_off_c, 0, 60, 37
1, 221922, Note_off_c, 0, 72, 35
1, 222287, Control_c, 0, 64, 16
1, 222316, Control_c, 0, 64, 18
1, 222346, Control_c, 0, 64, 20
1, 222390, Control_c, 0, 64, 22
1, 222406, Control_c, 0, 64, 23
1, 222415, Note_off_c, 0, 61, 35
1, 222421, Control_c, 0, 64, 25
1, 222436, Control_c, 0, 64, 26
1, 222450, Control_c, 0, 64, 27
1, 222465, Control_c, 0, 64, 29
1, 222480, Control_c, 0, 64, 30
1, 222495, Control_c, 0, 64, 32
1, 222503, Note_off_c, 0, 67, 30
1, 222510, Control_c, 0, 64, 34
1, 222524, Control_c, 0, 64, 34
1, 222533, Note_off_c, 0, 58, 37
1, 222554, Control_c, 0, 64, 35
1, 222574, Note_off_c, 0, 70, 52
1, 222584, Control_c, 0, 64, 36
1, 222595, Note_off_c, 0, 52, 60
1, 222613, Control_c, 0, 64, 37
1, 222688, Control_c, 0, 64, 36
1, 222791, Control_c, 0, 64, 35
1, 222910, Control_c, 0, 64, 34
1, 223392, Control_c, 0, 64, 34
1, 223453, Note_on_c, 0, 61, 44
1, 223455, Note_on_c, 0, 43, 38
1, 223465, Note_on_c, 0, 41, 34
1, 223467, Note_on_c, 0, 52, 34
1, 223585, Control_c, 0, 64, 33
1, 223977, Control_c, 0, 64, 34
1, 224185, Control_c, 0, 64, 34
1, 224215, Control_c, 0, 64, 35
1, 224289, Control_c, 0, 64, 36
1, 224426, Note_on_c, 0, 44, 41
1, 224495, Note_off_c, 0, 43, 42
1, 224696, Control_c, 0, 64, 37
1, 224726, Control_c, 0, 64, 38
1, 224740, Control_c, 0, 64, 39
1, 224756, Control_c, 0, 64, 41
1, 224771, Control_c, 0, 64, 43
1, 224786, Control_c, 0, 64, 45
1, 224801, Control_c, 0, 64, 46
1, 224816, Control_c, 0, 64, 48
1, 224831, Control_c, 0, 64, 49
1, 224846, Control_c, 0, 64, 50
1, 224861, Control_c, 0, 64, 51
1, 224876, Control_c, 0, 64, 52
1, 224891, Control_c, 0, 64, 52
1, 224906, Control_c, 0, 64, 53
1, 224920, Control_c, 0, 64, 54
1, 224950, Note_off_c, 0, 61, 55
1, 224954, Note_on_c, 0, 60, 45
1, 225009, Control_c, 0, 64, 53
1, 225039, Control_c, 0, 64, 53
1, 225068, Control_c, 0, 64, 52
1, 225098, Control_c, 0, 64, 52
1, 225142, Control_c, 0, 64, 51
1, 225283, Control_c, 0, 64, 52
1, 225313, Control_c, 0, 64, 52
1, 225342, Control_c, 0, 64, 53
1, 225540, Note_on_c, 0, 45, 36
1, 225612, Note_off_c, 0, 44, 48
1, 225639, Control_c, 0, 64, 52
1, 225787, Control_c, 0, 64, 53
1, 225862, Control_c, 0, 64, 53
1, 225906, Control_c, 0, 64, 54
1, 225936, Control_c, 0, 64, 54
1, 225950, Control_c, 0, 64, 55
1, 225973, Control_c, 0, 64, 55
1, 225988, Control_c, 0, 64, 56
1, 226194, Control_c, 0, 64, 56
1, 226268, Control_c, 0, 64, 56
1, 226320, Note_on_c, 0, 51, 33
1, 226342, Control_c, 0, 64, 55
1, 226387, Control_c, 0, 64, 55
1, 226417, Control_c, 0, 64, 54
1, 226447, Control_c, 0, 64, 54
1, 226449, Note_off_c, 0, 52, 40
1, 226462, Control_c, 0, 64, 53
1, 226477, Control_c, 0, 64, 53
1, 226506, Control_c, 0, 64, 52
1, 226521, Control_c, 0, 64, 52
1, 226551, Control_c, 0, 64, 51
1, 226565, Control_c, 0, 64, 50
1, 226698, Control_c, 0, 64, 51
1, 226751, Control_c, 0, 64, 51
1, 226766, Control_c, 0, 64, 52
1, 226780, Control_c, 0, 64, 52
1, 226839, Control_c, 0, 64, 53
1, 227219, Note_off_c, 0, 45, 38
1, 227327, Note_off_c, 0, 41, 47
1, 227388, Control_c, 0, 64, 52
1, 227411, Note_off_c, 0, 51, 43
1, 227499, Control_c, 0, 64, 52
1, 227588, Control_c, 0, 64, 51
1, 227603, Control_c, 0, 64, 51
1, 227692, Control_c, 0, 64, 50
1, 228018, Control_c, 0, 64, 51
1, 228441, Note_on_c, 0, 26, 35
1, 228545, Control_c, 0, 64, 51
1, 228560, Control_c, 0, 64, 52
1, 228589, Control_c, 0, 64, 52
1, 228604, Control_c, 0, 64, 53
1, 228619, Control_c, 0, 64, 54
1, 228634, Control_c, 0, 64, 55
1, 228649, Control_c, 0, 64, 56
1, 228663, Control_c, 0, 64, 57
1, 228678, Control_c, 0, 64, 58
1, 228693, Control_c, 0, 64, 60
1, 228708, Control_c, 0, 64, 61
1, 228723, Control_c, 0, 64, 62
1, 228737, Control_c, 0, 64, 63
1, 228752, Control_c, 0, 64, 64
1, 228767, Control_c, 0, 64, 65
1, 228782, Control_c, 0, 64, 66
1, 228798, Control_c, 0, 64, 67
1, 228812, Control_c, 0, 64, 68
1, 228827, Control_c, 0, 64, 69
1, 228842, Control_c, 0, 64, 71
1, 228843, Note_on_c, 0, 38, 32
1, 228857, Control_c, 0, 64, 72
1, 228872, Control_c, 0, 64, 74
1, 228886, Control_c, 0, 64, 77
1, 228901, Control_c, 0, 64, 79
1, 228916, Control_c, 0, 64, 81
1, 228931, Control_c, 0, 64, 83
1, 228946, Control_c, 0, 64, 85
1, 228968, Control_c, 0, 64, 88
1, 228977, Note_off_c, 0, 60, 32
1, 228983, Control_c, 0, 64, 92
1, 228998, Control_c, 0, 64, 96
1, 229013, Control_c, 0, 64, 101
1, 229027, Control_c, 0, 64, 104
1, 229042, Control_c, 0, 64, 108
1, 229057, Control_c, 0, 64, 112
1, 229072, Control_c, 0, 64, 116
1, 229086, Control_c, 0, 64, 121
1, 229101, Control_c, 0, 64, 126
1, 229116, Control_c, 0, 64, 127
1, 229145, Note_on_c, 0, 48, 34
1, 229263, Note_off_c, 0, 26, 40
1, 229324, Note_off_c, 0, 38, 40
1, 229345, Note_on_c, 0, 54, 48
1, 229410, Note_off_c, 0, 48, 41
1, 229540, Note_on_c, 0, 58, 48
1, 229574, Note_off_c, 0, 54, 35
1, 229812, Note_on_c, 0, 57, 52
1, 229848, Note_off_c, 0, 58, 57
1, 230334, Note_off_c, 0, 57, 36
1, 230364, Note_on_c, 0, 59, 56
1, 230853, Note_on_c, 0, 60, 64
1, 230920, Note_off_c, 0, 59, 51
1, 231540, Note_on_c, 0, 63, 57
1, 231739, Note_off_c, 0, 60, 31
1, 232419, Note_on_c, 0, 62, 54
1, 232565, Note_off_c, 0, 63, 22
1, 232917, Note_on_c, 0, 60, 44
1, 232975, Note_off_c, 0, 62, 49
1, 233111, Control_c, 0, 64, 126
1, 233125, Control_c, 0, 64, 122
1, 233140, Control_c, 0, 64, 118
1, 233155, Control_c, 0, 64, 115
1, 233170, Control_c, 0, 64, 112
1, 233184, Control_c, 0, 64, 110
1, 233199, Control_c, 0, 64, 108
1, 233214, Control_c, 0, 64, 106
1, 233229, Control_c, 0, 64, 103
1, 233244, Control_c, 0, 64, 101
1, 233258, Control_c, 0, 64, 98
1, 233273, Control_c, 0, 64, 95
1, 233288, Control_c, 0, 64, 93
1, 233303, Control_c, 0, 64, 89
1, 233318, Control_c, 0, 64, 86
1, 233333, Control_c, 0, 64, 83
1, 233348, Control_c, 0, 64, 79
1, 233363, Control_c, 0, 64, 77
1, 233377, Control_c, 0, 64, 74
1, 233392, Control_c, 0, 64, 71
1, 233407, Control_c, 0, 64, 67
1, 233422, Control_c, 0, 64, 62
1, 233437, Control_c, 0, 64, 39
1, 233458, Control_c, 0, 64, 0
1, 233815, Control_c, 0, 64, 11
1, 233830, Control_c, 0, 64, 14
1, 233845, Control_c, 0, 64, 16
1, 233860, Control_c, 0, 64, 18
1, 233874, Control_c, 0, 64, 22
1, 233889, Control_c, 0, 64, 23
1, 233904, Control_c, 0, 64, 26
1, 233919, Control_c, 0, 64, 27
1, 233934, Control_c, 0, 64, 29
1, 233948, Control_c, 0, 64, 30
1, 233963, Control_c, 0, 64, 31
1, 233978, Control_c, 0, 64, 32
1, 234007, Control_c, 0, 64, 33
1, 234022, Control_c, 0, 64, 34
1, 234037, Control_c, 0, 64, 36
1, 234052, Control_c, 0, 64, 39
1, 234067, Control_c, 0, 64, 41
1, 234081, Control_c, 0, 64, 41
1, 234096, Control_c, 0, 64, 42
1, 234111, Control_c, 0, 64, 44
1, 234126, Control_c, 0, 64, 46
1, 234141, Control_c, 0, 64, 48
1, 234155, Control_c, 0, 64, 50
1, 234170, Control_c, 0, 64, 52
1, 234185, Control_c, 0, 64, 53
1, 234207, Control_c, 0, 64, 55
1, 234222, Control_c, 0, 64, 57
1, 234237, Control_c, 0, 64, 58
1, 234252, Control_c, 0, 64, 58
1, 234267, Control_c, 0, 64, 59
1, 234281, Control_c, 0, 64, 60
1, 234296, Control_c, 0, 64, 60
1, 234311, Control_c, 0, 64, 62
1, 234326, Control_c, 0, 64, 62
1, 234340, Control_c, 0, 64, 63
1, 234355, Control_c, 0, 64, 64
1, 234358, Note_on_c, 0, 26, 43
1, 234370, Control_c, 0, 64, 64
1, 234386, Control_c, 0, 64, 65
1, 234401, Control_c, 0, 64, 66
1, 234416, Control_c, 0, 64, 67
1, 234430, Control_c, 0, 64, 69
1, 234445, Control_c, 0, 64, 71
1, 234460, Control_c, 0, 64, 72
1, 234475, Control_c, 0, 64, 75
1, 234490, Control_c, 0, 64, 78
1, 234504, Control_c, 0, 64, 81
1, 234519, Control_c, 0, 64, 84
1, 234534, Control_c, 0, 64, 88
1, 234549, Control_c, 0, 64, 93
1, 234564, Control_c, 0, 64, 99
1, 234579, Control_c, 0, 64, 106
1, 234594, Control_c, 0, 64, 113
1, 234609, Control_c, 0, 64, 118
1, 234623, Control_c, 0, 64, 125
1, 234630, Note_on_c, 0, 38, 49
1, 234638, Control_c, 0, 64, 127
1, 234781, Note_off_c, 0, 26, 40
1, 234817, Note_off_c, 0, 38, 47
1, 234838, Note_on_c, 0, 48, 47
1, 235029, Note_on_c, 0, 54, 59
1, 235065, Note_off_c, 0, 60, 24
1, 235091, Note_off_c, 0, 48, 40
1, 235199, Note_on_c, 0, 58, 66
1, 235285, Note_off_c, 0, 54, 34
1, 235377, Note_on_c, 0, 57, 62
1, 235467, Note_off_c, 0, 58, 38
1, 235652, Note_on_c, 0, 63, 63
1, 235724, Note_off_c, 0, 57, 30
1, 235942, Note_off_c, 0, 63, 56
1, 236120, Note_on_c, 0, 59, 69
1, 236531, Note_on_c, 0, 60, 74
1, 236582, Note_off_c, 0, 59, 53
1, 237160, Note_on_c, 0, 66, 68
1, 237475, Note_off_c, 0, 60, 56
1, 237826, Note_off_c, 0, 66, 58
1, 237961, Note_on_c, 0, 65, 60
1, 238305, Note_on_c, 0, 63, 52
1, 238308, Control_c, 0, 64, 123
1, 238323, Control_c, 0, 64, 118
1, 238338, Control_c, 0, 64, 114
1, 238353, Control_c, 0, 64, 111
1, 238368, Control_c, 0, 64, 108
1, 238383, Control_c, 0, 64, 105
1, 238394, Note_off_c, 0, 65, 57
1, 238397, Control_c, 0, 64, 102
1, 238412, Control_c, 0, 64, 98
1, 238427, Control_c, 0, 64, 95
1, 238442, Control_c, 0, 64, 92
1, 238457, Control_c, 0, 64, 89
1, 238472, Control_c, 0, 64, 87
1, 238487, Control_c, 0, 64, 84
1, 238502, Control_c, 0, 64, 81
1, 238517, Control_c, 0, 64, 78
1, 238531, Control_c, 0, 64, 75
1, 238546, Control_c, 0, 64, 70
1, 238561, Control_c, 0, 64, 64
1, 238576, Control_c, 0, 64, 26
1, 238590, Control_c, 0, 64, 0
1, 239002, Note_on_c, 0, 29, 39
1, 239116, Control_c, 0, 64, 55
1, 239131, Control_c, 0, 64, 66
1, 239145, Control_c, 0, 64, 70
1, 239160, Control_c, 0, 64, 75
1, 239176, Control_c, 0, 64, 81
1, 239179, Note_off_c, 0, 63, 56
1, 239191, Control_c, 0, 64, 86
1, 239206, Control_c, 0, 64, 91
1, 239220, Control_c, 0, 64, 95
1, 239235, Control_c, 0, 64, 99
1, 239250, Control_c, 0, 64, 103
1, 239265, Control_c, 0, 64, 107
1, 239280, Control_c, 0, 64, 112
1, 239295, Control_c, 0, 64, 117
1, 239309, Control_c, 0, 64, 123
1, 239324, Control_c, 0, 64, 127
1, 239340, Note_on_c, 0, 41, 45
1, 239522, Note_off_c, 0, 29, 40
1, 239564, Note_on_c, 0, 49, 52
1, 239568, Note_off_c, 0, 41, 40
1, 239698, Note_off_c, 0, 49, 62
1, 239746, Note_on_c, 0, 57, 61
1, 239940, Note_on_c, 0, 61, 67
1, 239971, Note_off_c, 0, 57, 53
1, 240101, Note_on_c, 0, 60, 67
1, 240381, Note_on_c, 0, 66, 67
1, 240391, Note_off_c, 0, 60, 58
1, 240492, Note_off_c, 0, 66, 65
1, 240896, Note_on_c, 0, 69, 67
1, 241126, Note_on_c, 0, 73, 69
1, 241129, Note_off_c, 0, 69, 61
1, 241331, Note_on_c, 0, 72, 72
1, 241337, Note_off_c, 0, 73, 60
1, 241734, Note_on_c, 0, 78, 74
1, 241897, Note_off_c, 0, 72, 29
1, 241936, Note_off_c, 0, 78, 59
1, 242068, Note_off_c, 0, 61, 52
1, 242709, Note_on_c, 0, 62, 49
1, 243403, Note_on_c, 0, 63, 57
1, 243503, Note_off_c, 0, 62, 38
1, 244350, Note_on_c, 0, 70, 56
1, 244830, Note_off_c, 0, 63, 45
1, 245208, Note_off_c, 0, 70, 33
1, 245631, Note_on_c, 0, 69, 44
1, 246426, Note_on_c, 0, 66, 56
1, 246502, Note_off_c, 0, 69, 43
1, 246999, Note_on_c, 0, 73, 58
1, 247449, Note_off_c, 0, 66, 36
1, 247908, Note_off_c, 0, 73, 38
1, 248366, Note_on_c, 0, 72, 46
1, 249241, Note_on_c, 0, 69, 53
1, 249327, Note_off_c, 0, 72, 50
1, 250304, Note_on_c, 0, 76, 54
1, 250508, Note_off_c, 0, 69, 33
1, 251649, Note_off_c, 0, 76, 27
1, 251975, Note_on_c, 0, 75, 48
1, 252900, Note_on_c, 0, 73, 46
1, 253012, Note_off_c, 0, 75, 56
1, 253950, Note_on_c, 0, 72, 46
1, 254113, Note_off_c, 0, 72, 58
1, 254130, Note_off_c, 0, 73, 25
1, 254818, Note_on_c, 0, 72, 39
1, 255001, Note_on_c, 0, 82, 57
1, 255066, Note_off_c, 0, 72, 33
1, 257666, Note_off_c, 0, 82, 32
1, 258599, Note_on_c, 0, 81, 42
1, 262079, Note_off_c, 0, 81, 36
1, 263002, Control_c, 0, 64, 125
1, 263017, Control_c, 0, 64, 122
1, 263031, Control_c, 0, 64, 121
1, 263046, Control_c, 0, 64, 119
1, 263061, Control_c, 0, 64, 118
1, 263076, Control_c, 0, 64, 116
1, 263091, Control_c, 0, 64, 115
1, 263106, Control_c, 0, 64, 114
1, 263121, Control_c, 0, 64, 112
1, 263136, Control_c, 0, 64, 111
1, 263151, Control_c, 0, 64, 109
1, 263166, Control_c, 0, 64, 105
1, 263181, Control_c, 0, 64, 100
1, 263195, Control_c, 0, 64, 93
1, 263210, Control_c, 0, 64, 87
1, 263225, Control_c, 0, 64, 80
1, 263240, Control_c, 0, 64, 71
1, 263255, Control_c, 0, 64, 0
1, 263347, Note_on_c, 0, 85, 95
1, 263352, Note_on_c, 0, 73, 104
1, 263356, Note_on_c, 0, 77, 93
1, 263356, Note_on_c, 0, 82, 91
1, 263357, Note_on_c, 0, 22, 87
1, 263360, Note_on_c, 0, 34, 97
1, 263374, Control_c, 0, 64, 57
1, 263388, Control_c, 0, 64, 127
1, 263398, Note_off_c, 0, 22, 65
1, 263400, Note_off_c, 0, 34, 65
1, 263422, Note_on_c, 0, 80, 10
1, 263463, Note_off_c, 0, 80, 40
1, 263681, Note_off_c, 0, 85, 63
1, 263741, Note_on_c, 0, 53, 71
1, 263799, Note_off_c, 0, 82, 48
1, 263801, Note_on_c, 0, 58, 69
1, 263877, Note_on_c, 0, 60, 69
1, 263899, Note_off_c, 0, 73, 49
1, 263906, Note_off_c, 0, 77, 25
1, 263914, Note_off_c, 0, 58, 63
1, 263958, Note_on_c, 0, 61, 77
1, 263966, Note_off_c, 0, 60, 62
1, 264036, Note_on_c, 0, 60, 66
1, 264059, Note_off_c, 0, 61, 51
1, 264112, Note_on_c, 0, 61, 96
1, 264128, Note_off_c, 0, 60, 61
1, 264287, Note_off_c, 0, 61, 62
1, 264294, Note_off_c, 0, 53, 66
1, 264325, Note_on_c, 0, 84, 94
1, 264328, Note_on_c, 0, 72, 97
1, 264333, Note_on_c, 0, 77, 87
1, 264334, Note_on_c, 0, 82, 82
1, 264400, Note_off_c, 0, 72, 63
1, 264401, Note_off_c, 0, 84, 64
1, 264428, Note_off_c, 0, 82, 64
1, 264537, Note_on_c, 0, 73, 104
1, 264537, Note_on_c, 0, 85, 99
1, 264552, Note_off_c, 0, 77, 51
1, 264558, Note_on_c, 0, 82, 68
1, 264574, Note_off_c, 0, 73, 67
1, 264579, Note_off_c, 0, 82, 66
1, 264589, Note_off_c, 0, 85, 68
1, 264768, Control_c, 0, 64, 109
1, 264783, Control_c, 0, 64, 77
1, 264798, Control_c, 0, 64, 0
1, 264814, Note_on_c, 0, 89, 99
1, 264816, Note_on_c, 0, 51, 96
1, 264816, Note_on_c, 0, 78, 104
1, 264817, Note_on_c, 0, 39, 76
1, 264823, Note_on_c, 0, 82, 91
1, 264835, Note_off_c, 0, 39, 70
1, 264842, Control_c, 0, 64, 94
1, 264849, Note_on_c, 0, 87, 61
1, 264853, Note_off_c, 0, 51, 63
1, 264857, Control_c, 0, 64, 127
1, 264868, Note_off_c, 0, 87, 64
1, 264877, Note_off_c, 0, 89, 67
1, 264877, Note_off_c, 0, 78, 65
1, 264906, Note_off_c, 0, 82, 64
1, 265023, Note_on_c, 0, 58, 45
1, 265044, Note_on_c, 0, 63, 58
1, 265094, Note_on_c, 0, 65, 75
1, 265123, Note_off_c, 0, 63, 62
1, 265172, Note_on_c, 0, 66, 82
1, 265180, Note_off_c, 0, 65, 64
1, 265184, Note_on_c, 0, 87, 91
1, 265185, Note_on_c, 0, 78, 74
1, 265190, Note_on_c, 0, 75, 99
1, 265202, Note_on_c, 0, 82, 78
1, 265234, Note_off_c, 0, 66, 65
1, 265234, Note_on_c, 0, 65, 75
1, 265254, Note_off_c, 0, 87, 67
1, 265263, Note_off_c, 0, 82, 62
1, 265291, Note_off_c, 0, 75, 54
1, 265302, Note_off_c, 0, 78, 62
1, 265327, Note_on_c, 0, 66, 98
1, 265329, Note_off_c, 0, 65, 65
1, 265434, Note_off_c, 0, 66, 65
1, 265467, Note_off_c, 0, 58, 64
1, 265506, Note_on_c, 0, 84, 94
1, 265507, Note_on_c, 0, 72, 100
1, 265515, Note_on_c, 0, 78, 95
1, 265518, Note_on_c, 0, 82, 92
1, 265583, Note_off_c, 0, 72, 63
1, 265588, Note_off_c, 0, 84, 65
1, 265627, Note_off_c, 0, 82, 63
1, 265639, Note_off_c, 0, 78, 61
1, 265850, Control_c, 0, 64, 100
1, 265865, Control_c, 0, 64, 67
1, 265880, Note_on_c, 0, 85, 94
1, 265880, Control_c, 0, 64, 0
1, 265885, Note_on_c, 0, 73, 101
1, 265887, Note_on_c, 0, 77, 93
1, 265891, Note_on_c, 0, 82, 89
1, 265892, Note_on_c, 0, 46, 101
1, 265899, Note_on_c, 0, 34, 71
1, 265924, Control_c, 0, 64, 98
1, 265926, Note_off_c, 0, 34, 63
1, 265926, Note_off_c, 0, 46, 63
1, 265939, Control_c, 0, 64, 127
1, 266088, Note_off_c, 0, 73, 54
1, 266093, Note_on_c, 0, 53, 68
1, 266128, Note_off_c, 0, 85, 59
1, 266143, Note_on_c, 0, 58, 70
1, 266172, Note_on_c, 0, 80, 19
1, 266210, Note_on_c, 0, 60, 77
1, 266212, Note_off_c, 0, 82, 47
1, 266215, Note_off_c, 0, 77, 47
1, 266230, Note_off_c, 0, 58, 63
1, 266281, Note_on_c, 0, 61, 78
1, 266284, Note_off_c, 0, 60, 61
1, 266337, Note_off_c, 0, 80, 40
1, 266362, Note_on_c, 0, 60, 70
1, 266412, Note_off_c, 0, 61, 45
1, 266442, Note_on_c, 0, 61, 91
1, 266448, Note_off_c, 0, 60, 60
1, 266615, Note_off_c, 0, 61, 63
1, 266632, Note_off_c, 0, 53, 66
1, 266638, Note_on_c, 0, 84, 93
1, 266642, Note_on_c, 0, 72, 99
1, 266649, Note_on_c, 0, 77, 88
1, 266653, Note_on_c, 0, 82, 80
1, 266707, Note_off_c, 0, 72, 59
1, 266713, Note_off_c, 0, 84, 62
1, 266737, Note_off_c, 0, 82, 63
1, 266865, Note_on_c, 0, 73, 103
1, 266865, Note_on_c, 0, 85, 99
1, 266886, Note_on_c, 0, 82, 74
1, 266892, Note_off_c, 0, 77, 56
1, 266901, Note_off_c, 0, 73, 67
1, 266913, Note_off_c, 0, 82, 64
1, 266930, Note_off_c, 0, 85, 67
1, 267154, Control_c, 0, 64, 115
1, 267169, Control_c, 0, 64, 78
1, 267184, Control_c, 0, 64, 0
1, 267196, Note_on_c, 0, 92, 103
1, 267200, Note_on_c, 0, 80, 104
1, 267204, Note_on_c, 0, 27, 80
1, 267204, Note_on_c, 0, 82, 91
1, 267207, Note_on_c, 0, 39, 97
1, 267211, Note_on_c, 0, 87, 87
1, 267229, Control_c, 0, 64, 116
1, 267235, Note_off_c, 0, 27, 67
1, 267238, Note_on_c, 0, 90, 35
1, 267243, Control_c, 0, 64, 127
1, 267249, Note_off_c, 0, 39, 63
1, 267268, Note_off_c, 0, 90, 56
1, 267312, Note_off_c, 0, 80, 59
1, 267319, Note_off_c, 0, 92, 64
1, 267365, Note_off_c, 0, 87, 57
1, 267433, Note_on_c, 0, 58, 59
1, 267464, Note_on_c, 0, 63, 57
1, 267476, Note_off_c, 0, 82, 59
1, 267514, Note_on_c, 0, 65, 73
1, 267534, Note_off_c, 0, 63, 63
1, 267589, Note_on_c, 0, 66, 80
1, 267597, Note_off_c, 0, 65, 65
1, 267603, Note_on_c, 0, 90, 98
1, 267604, Note_on_c, 0, 78, 103
1, 267607, Note_on_c, 0, 82, 87
1, 267616, Note_on_c, 0, 85, 87
1, 267649, Note_on_c, 0, 87, 49
1, 267656, Note_off_c, 0, 66, 65
1, 267657, Note_on_c, 0, 65, 74
1, 267674, Note_off_c, 0, 87, 56
1, 267711, Note_off_c, 0, 82, 58
1, 267713, Note_off_c, 0, 90, 63
1, 267723, Note_off_c, 0, 78, 59
1, 267744, Note_off_c, 0, 85, 49
1, 267754, Note_on_c, 0, 66, 97
1, 267772, Note_off_c, 0, 65, 53
1, 267831, Note_off_c, 0, 66, 67
1, 267879, Note_off_c, 0, 58, 64
1, 267932, Note_on_c, 0, 89, 94
1, 267936, Note_on_c, 0, 77, 104
1, 267937, Note_on_c, 0, 85, 68
1, 267938, Note_on_c, 0, 82, 86
1, 267993, Note_off_c, 0, 89, 65
1, 268010, Note_off_c, 0, 77, 64
1, 268036, Note_off_c, 0, 82, 63
1, 268039, Note_off_c, 0, 85, 66
1, 268260, Control_c, 0, 64, 96
1, 268275, Control_c, 0, 64, 32
1, 268276, Note_on_c, 0, 87, 94
1, 268282, Note_on_c, 0, 75, 100
1, 268282, Note_on_c, 0, 80, 92
1, 268287, Note_on_c, 0, 44, 95
1, 268290, Note_on_c, 0, 32, 75
1, 268290, Control_c, 0, 64, 0
1, 268293, Note_on_c, 0, 84, 78
1, 268304, Control_c, 0, 64, 16
1, 268312, Note_off_c, 0, 32, 66
1, 268318, Note_off_c, 0, 44, 66
1, 268319, Control_c, 0, 64, 77
1, 268334, Control_c, 0, 64, 127
1, 268448, Note_off_c, 0, 75, 56
1, 268482, Note_on_c, 0, 51, 65
1, 268507, Note_off_c, 0, 87, 58
1, 268516, Note_on_c, 0, 56, 56
1, 268518, Note_off_c, 0, 84, 49
1, 268581, Note_off_c, 0, 56, 62
1, 268583, Note_on_c, 0, 58, 70
1, 268608, Note_off_c, 0, 80, 48
1, 268637, Note_on_c, 0, 60, 70
1, 268648, Note_off_c, 0, 58, 63
1, 268677, Note_off_c, 0, 60, 60
1, 268705, Note_off_c, 0, 51, 61
1, 268738, Note_on_c, 0, 58, 32
1, 268770, Note_on_c, 0, 80, 77
1, 268772, Control_c, 0, 64, 94
1, 268776, Note_on_c, 0, 83, 92
1, 268787, Control_c, 0, 64, 70
1, 268796, Note_on_c, 0, 59, 75
1, 268796, Note_off_c, 0, 58, 54
1, 268801, Control_c, 0, 64, 0
1, 268802, Note_on_c, 0, 56, 66
1, 268805, Note_on_c, 0, 51, 67
1, 268816, Control_c, 0, 64, 67
1, 268831, Control_c, 0, 64, 88
1, 268846, Control_c, 0, 64, 127
1, 268886, Note_off_c, 0, 59, 62
1, 268904, Note_off_c, 0, 80, 61
1, 268923, Note_off_c, 0, 83, 57
1, 268925, Note_off_c, 0, 51, 62
1, 268927, Note_off_c, 0, 56, 63
1, 268942, Note_on_c, 0, 89, 94
1, 268949, Note_on_c, 0, 77, 93
1, 268993, Note_off_c, 0, 77, 62
1, 269011, Note_off_c, 0, 89, 64
1, 269199, Control_c, 0, 64, 102
1, 269214, Note_on_c, 0, 90, 105
1, 269214, Control_c, 0, 64, 70
1, 269217, Note_on_c, 0, 78, 105
1, 269229, Control_c, 0, 64, 0
1, 269230, Note_on_c, 0, 51, 92
1, 269232, Note_on_c, 0, 39, 74
1, 269232, Note_on_c, 0, 82, 84
1, 269244, Control_c, 0, 64, 61
1, 269255, Note_on_c, 0, 87, 54
1, 269256, Note_off_c, 0, 39, 66
1, 269259, Control_c, 0, 64, 89
1, 269269, Note_off_c, 0, 51, 64
1, 269273, Control_c, 0, 64, 127
1, 269285, Note_off_c, 0, 90, 67
1, 269290, Note_off_c, 0, 78, 65
1, 269293, Note_off_c, 0, 87, 60
1, 269317, Note_off_c, 0, 82, 64
1, 269440, Note_on_c, 0, 63, 67
1, 269455, Note_on_c, 0, 58, 38
1, 269534, Note_on_c, 0, 65, 61
1, 269560, Note_on_c, 0, 66, 78
1, 269563, Note_on_c, 0, 73, 96
1, 269563, Note_on_c, 0, 85, 95
1, 269566, Note_off_c, 0, 65, 68
1, 269567, Note_off_c, 0, 63, 61
1, 269606, Note_off_c, 0, 58, 43
1, 269637, Note_off_c, 0, 66, 63
1, 269640, Note_on_c, 0, 65, 73
1, 269695, Note_off_c, 0, 73, 58
1, 269756, Control_c, 0, 64, 98
1, 269760, Note_on_c, 0, 78, 97
1, 269760, Note_off_c, 0, 85, 63
1, 269768, Note_on_c, 0, 57, 85
1, 269770, Note_on_c, 0, 66, 101
1, 269771, Control_c, 0, 64, 68
1, 269786, Control_c, 0, 64, 0
1, 269800, Control_c, 0, 64, 63
1, 269807, Note_off_c, 0, 65, 63
1, 269815, Control_c, 0, 64, 89
1, 269820, Note_off_c, 0, 78, 66
1, 269830, Control_c, 0, 64, 127
1, 269856, Note_off_c, 0, 66, 65
1, 269880, Note_off_c, 0, 57, 64
1, 269945, Note_on_c, 0, 87, 95
1, 269948, Note_on_c, 0, 75, 96
1, 269973, Note_on_c, 0, 85, 57
1, 269992, Note_off_c, 0, 85, 62
1, 270025, Note_off_c, 0, 75, 60
1, 270080, Note_off_c, 0, 87, 52
1, 270237, Control_c, 0, 64, 93
1, 270252, Control_c, 0, 64, 56
1, 270253, Note_on_c, 0, 89, 94
1, 270257, Note_on_c, 0, 80, 87
1, 270258, Note_on_c, 0, 77, 104
1, 270263, Note_on_c, 0, 87, 85
1, 270266, Note_on_c, 0, 49, 93
1, 270267, Control_c, 0, 64, 0
1, 270271, Note_on_c, 0, 37, 69
1, 270294, Note_off_c, 0, 37, 67
1, 270296, Control_c, 0, 64, 73
1, 270305, Note_off_c, 0, 49, 63
1, 270311, Control_c, 0, 64, 110
1, 270327, Control_c, 0, 64, 127
1, 270385, Note_off_c, 0, 77, 50
1, 270399, Note_off_c, 0, 89, 61
1, 270408, Note_off_c, 0, 80, 63
1, 270465, Note_off_c, 0, 87, 54
1, 270466, Note_on_c, 0, 53, 64
1, 270502, Note_on_c, 0, 58, 73
1, 270586, Note_on_c, 0, 60, 73
1, 270599, Note_off_c, 0, 58, 63
1, 270605, Note_off_c, 0, 53, 63
1, 270612, Note_on_c, 0, 89, 89
1, 270613, Note_on_c, 0, 77, 99
1, 270618, Note_on_c, 0, 82, 87
1, 270622, Note_on_c, 0, 85, 81
1, 270650, Note_on_c, 0, 61, 77
1, 270650, Note_off_c, 0, 60, 61
1, 270710, Note_off_c, 0, 61, 61
1, 270728, Note_on_c, 0, 60, 73
1, 270745, Note_off_c, 0, 77, 51
1, 270803, Note_off_c, 0, 89, 54
1, 270834, Note_off_c, 0, 82, 51
1, 270845, Control_c, 0, 64, 107
1, 270860, Control_c, 0, 64, 69
1, 270865, Note_on_c, 0, 61, 98
1, 270872, Note_on_c, 0, 77, 97
1, 270873, Note_on_c, 0, 79, 96
1, 270875, Note_on_c, 0, 51, 86
1, 270875, Control_c, 0, 64, 0
1, 270877, Note_off_c, 0, 60, 54
1, 270880, Note_off_c, 0, 85, 62
1, 270912, Control_c, 0, 64, 67
1, 270925, Note_on_c, 0, 86, 20
1, 270927, Control_c, 0, 64, 101
1, 270942, Control_c, 0, 64, 127
1, 270962, Note_off_c, 0, 79, 60
1, 270964, Note_off_c, 0, 86, 53
1, 270982, Note_off_c, 0, 77, 59
1, 271093, Note_on_c, 0, 87, 93
1, 271095, Note_off_c, 0, 61, 60
1, 271096, Note_on_c, 0, 75, 94
1, 271099, Note_on_c, 0, 60, 82
1, 271145, Note_off_c, 0, 75, 64
1, 271178, Note_off_c, 0, 87, 62
1, 271254, Note_on_c, 0, 58, 85
1, 271255, Note_on_c, 0, 85, 94
1, 271270, Note_on_c, 0, 73, 77
1, 271273, Note_off_c, 0, 51, 60
1, 271274, Note_off_c, 0, 60, 63
1, 271292, Note_off_c, 0, 73, 68
1, 271307, Note_off_c, 0, 58, 64
1, 271335, Note_off_c, 0, 85, 62
1, 271388, Note_on_c, 0, 85, 70
1, 271468, Note_on_c, 0, 87, 85
1, 271484, Note_off_c, 0, 85, 55
1, 271547, Note_off_c, 0, 87, 63
1, 271551, Control_c, 0, 64, 109
1, 271565, Control_c, 0, 64, 75
1, 271580, Note_on_c, 0, 85, 92
1, 271580, Control_c, 0, 64, 0
1, 271583, Note_on_c, 0, 73, 96
1, 271586, Note_on_c, 0, 79, 85
1, 271587, Note_on_c, 0, 58, 92
1, 271594, Note_on_c, 0, 52, 82
1, 271625, Control_c, 0, 64, 97
1, 271646, Control_c, 0, 64, 127
1, 271674, Note_on_c, 0, 56, 2
1, 271679, Poly_aftertouch_c, 0, 82, 127
1, 271700, Poly_aftertouch_c, 0, 82, 0
1, 271709, Note_off_c, 0, 56, 37
1, 271710, Note_off_c, 0, 79, 54
1, 271721, Note_off_c, 0, 85, 60
1, 271779, Note_off_c, 0, 73, 55
1, 271884, Note_on_c, 0, 60, 80
1, 271884, Note_on_c, 0, 84, 96
1, 271886, Note_on_c, 0, 72, 91
1, 271906, Note_off_c, 0, 52, 64
1, 271920, Note_off_c, 0, 58, 65
1, 271931, Note_off_c, 0, 72, 67
1, 271940, Note_off_c, 0, 84, 63
1, 271987, Note_on_c, 0, 61, 100
1, 272002, Note_on_c, 0, 70, 98
1, 272002, Note_on_c, 0, 82, 96
1, 272004, Note_off_c, 0, 60, 60
1, 272016, Note_off_c, 0, 61, 62
1, 272105, Note_off_c, 0, 70, 56
1, 272120, Note_off_c, 0, 82, 59
1, 272314, Control_c, 0, 64, 116
1, 272329, Control_c, 0, 64, 80
1, 272343, Control_c, 0, 64, 0
1, 272353, Note_on_c, 0, 85, 95
1, 272356, Note_on_c, 0, 73, 108
1, 272358, Note_on_c, 0, 76, 93
1, 272362, Note_on_c, 0, 82, 91
1, 272365, Note_on_c, 0, 79, 80
1, 272371, Note_on_c, 0, 29, 88
1, 272371, Note_on_c, 0, 41, 97
1, 272409, Control_c, 0, 64, 46
1, 272424, Control_c, 0, 64, 127
1, 272449, Note_off_c, 0, 29, 63
1, 272472, Note_off_c, 0, 85, 66
1, 272472, Note_off_c, 0, 41, 66
1, 272515, Note_off_c, 0, 73, 56
1, 272526, Note_off_c, 0, 82, 59
1, 272538, Note_off_c, 0, 79, 60
1, 272539, Note_off_c, 0, 76, 64
1, 272725, Note_on_c, 0, 64, 82
1, 272752, Note_on_c, 0, 58, 61
1, 272832, Note_off_c, 0, 64, 61
1, 272836, Note_on_c, 0, 61, 65
1, 272837, Note_on_c, 0, 67, 79
1, 272838, Note_off_c, 0, 58, 63
1, 272906, Note_off_c, 0, 61, 63
1, 272919, Note_off_c, 0, 67, 62
1, 272922, Note_on_c, 0, 70, 79
1, 272931, Note_on_c, 0, 64, 55
1, 272974, Note_off_c, 0, 64, 64
1, 272982, Note_off_c, 0, 70, 65
1, 272986, Note_on_c, 0, 73, 72
1, 273009, Note_on_c, 0, 67, 65
1, 273022, Note_off_c, 0, 73, 65
1, 273030, Note_off_c, 0, 67, 68
1, 273073, Note_on_c, 0, 76, 68
1, 273110, Note_on_c, 0, 70, 45
1, 273113, Note_off_c, 0, 76, 62
1, 273129, Note_on_c, 0, 79, 76
1, 273166, Note_off_c, 0, 70, 59
1, 273179, Note_on_c, 0, 73, 51
1, 273204, Note_off_c, 0, 79, 64
1, 273205, Note_on_c, 0, 82, 79
1, 273223, Note_off_c, 0, 73, 65
1, 273235, Note_on_c, 0, 76, 67
1, 273269, Note_off_c, 0, 82, 63
1, 273270, Note_off_c, 0, 76, 64
1, 273277, Note_on_c, 0, 85, 77
1, 273324, Note_on_c, 0, 79, 53
1, 273345, Note_off_c, 0, 79, 60
1, 273345, Note_on_c, 0, 82, 80
1, 273367, Note_on_c, 0, 76, 58
1, 273383, Note_off_c, 0, 85, 64
1, 273398, Note_off_c, 0, 76, 68
1, 273413, Note_off_c, 0, 82, 65
1, 273416, Note_on_c, 0, 73, 66
1, 273420, Note_on_c, 0, 79, 68
1, 273450, Note_off_c, 0, 79, 63
1, 273474, Note_off_c, 0, 73, 65
1, 273481, Note_on_c, 0, 70, 65
1, 273486, Note_on_c, 0, 76, 64
1, 273506, Note_off_c, 0, 70, 68
1, 273506, Note_off_c, 0, 76, 69
1, 273556, Note_on_c, 0, 73, 70
1, 273602, Note_on_c, 0, 70, 70
1, 273627, Note_off_c, 0, 73, 64
1, 273676, Note_on_c, 0, 67, 68
1, 273677, Note_off_c, 0, 70, 64
1, 273684, Note_on_c, 0, 61, 61
1, 273715, Poly_aftertouch_c, 0, 64, 0
1, 273724, Note_off_c, 0, 61, 61
1, 273730, Note_on_c, 0, 64, 52
1, 273731, Note_on_c, 0, 58, 71
1, 273740, Note_off_c, 0, 67, 62
1, 273802, Note_off_c, 0, 64, 63
1, 273806, Note_on_c, 0, 67, 71
1, 273817, Note_on_c, 0, 61, 69
1, 273819, Note_off_c, 0, 58, 63
1, 273864, Note_off_c, 0, 61, 63
1, 273867, Note_off_c, 0, 67, 62
1, 273868, Note_on_c, 0, 70, 80
1, 273873, Note_on_c, 0, 64, 65
1, 273923, Note_off_c, 0, 70, 66
1, 273927, Note_on_c, 0, 73, 76
1, 273943, Note_off_c, 0, 64, 64
1, 273955, Note_off_c, 0, 73, 67
1, 273965, Note_on_c, 0, 67, 68
1, 273996, Note_off_c, 0, 67, 63
1, 274003, Note_on_c, 0, 76, 76
1, 274055, Note_on_c, 0, 70, 58
1, 274056, Note_on_c, 0, 79, 79
1, 274057, Note_off_c, 0, 76, 64
1, 274098, Note_on_c, 0, 73, 64
1, 274111, Note_off_c, 0, 70, 55
1, 274122, Note_on_c, 0, 82, 84
1, 274138, Note_off_c, 0, 79, 63
1, 274169, Note_on_c, 0, 76, 69
1, 274173, Note_off_c, 0, 73, 64
1, 274204, Note_on_c, 0, 85, 99
1, 274207, Note_off_c, 0, 82, 65
1, 274229, Note_on_c, 0, 79, 89
1, 274239, Note_off_c, 0, 85, 71
1, 274240, Note_off_c, 0, 76, 62
1, 274255, Note_off_c, 0, 79, 66
1, 275206, Control_c, 0, 64, 121
1, 275214, Note_on_c, 0, 72, 66
1, 275220, Control_c, 0, 64, 96
1, 275229, Note_on_c, 0, 70, 49
1, 275229, Note_on_c, 0, 63, 48
1, 275234, Note_on_c, 0, 41, 50
1, 275235, Control_c, 0, 64, 75
1, 275241, Note_on_c, 0, 29, 44
1, 275242, Note_on_c, 0, 66, 43
1, 275250, Control_c, 0, 64, 0
1, 275310, Control_c, 0, 64, 55
1, 275325, Control_c, 0, 64, 73
1, 275340, Control_c, 0, 64, 91
1, 275355, Control_c, 0, 64, 127
1, 275405, Note_off_c, 0, 29, 36
1, 275419, Note_off_c, 0, 41, 52
1, 275423, Note_off_c, 0, 63, 41
1, 275475, Note_off_c, 0, 66, 51
1, 275506, Note_off_c, 0, 72, 63
1, 275520, Note_off_c, 0, 70, 62
1, 275734, Note_on_c, 0, 72, 53
1, 275754, Note_on_c, 0, 63, 51
1, 275833, Note_off_c, 0, 63, 62
1, 275842, Note_on_c, 0, 66, 58
1, 275847, Note_off_c, 0, 72, 46
1, 275849, Note_on_c, 0, 75, 59
1, 275913, Note_off_c, 0, 66, 64
1, 275924, Note_off_c, 0, 75, 64
1, 275929, Note_on_c, 0, 70, 61
1, 275934, Note_on_c, 0, 78, 64
1, 275992, Note_off_c, 0, 78, 63
1, 275995, Note_off_c, 0, 70, 63
1, 276028, Note_on_c, 0, 72, 61
1, 276060, Note_off_c, 0, 72, 63
1, 276125, Note_on_c, 0, 84, 64
1, 276138, Note_on_c, 0, 75, 53
1, 276194, Note_off_c, 0, 84, 59
1, 276197, Note_off_c, 0, 75, 57
1, 276207, Note_on_c, 0, 87, 65
1, 276212, Note_on_c, 0, 78, 62
1, 276278, Note_off_c, 0, 87, 62
1, 276288, Note_on_c, 0, 90, 71
1, 276292, Note_off_c, 0, 78, 61
1, 276294, Note_on_c, 0, 82, 62
1, 276351, Note_off_c, 0, 90, 63
1, 276358, Note_off_c, 0, 82, 62
1, 276367, Note_on_c, 0, 94, 67
1, 276378, Note_on_c, 0, 84, 63
1, 276431, Note_off_c, 0, 84, 59
1, 276433, Note_off_c, 0, 94, 61
1, 276437, Note_on_c, 0, 90, 63
1, 276441, Note_on_c, 0, 82, 58
1, 276506, Note_off_c, 0, 90, 63
1, 276508, Note_off_c, 0, 82, 63
1, 276510, Note_on_c, 0, 87, 68
1, 276527, Note_on_c, 0, 78, 54
1, 276561, Note_off_c, 0, 78, 64
1, 276562, Note_off_c, 0, 87, 64
1, 276575, Note_on_c, 0, 84, 68
1, 276586, Note_on_c, 0, 75, 66
1, 276647, Note_off_c, 0, 84, 62
1, 276650, Note_on_c, 0, 87, 69
1, 276663, Note_on_c, 0, 78, 71
1, 276672, Note_off_c, 0, 75, 64
1, 276720, Note_on_c, 0, 90, 80
1, 276723, Note_off_c, 0, 87, 62
1, 276732, Note_on_c, 0, 82, 68
1, 276738, Note_off_c, 0, 78, 63
1, 276792, Note_off_c, 0, 90, 64
1, 276794, Note_off_c, 0, 82, 64
1, 276794, Note_on_c, 0, 94, 83
1, 276800, Note_on_c, 0, 84, 69
1, 276860, Note_on_c, 0, 82, 62
1, 276865, Note_off_c, 0, 84, 62
1, 276871, Note_on_c, 0, 90, 76
1, 276889, Note_off_c, 0, 94, 63
1, 276951, Note_on_c, 0, 87, 79
1, 276953, Note_off_c, 0, 82, 64
1, 276957, Note_off_c, 0, 90, 64
1, 276958, Note_on_c, 0, 78, 74
1, 277015, Note_on_c, 0, 84, 79
1, 277017, Note_off_c, 0, 87, 63
1, 277021, Note_on_c, 0, 75, 74
1, 277022, Note_off_c, 0, 78, 62
1, 277097, Note_on_c, 0, 87, 77
1, 277113, Note_on_c, 0, 78, 77
1, 277122, Note_off_c, 0, 84, 61
1, 277125, Note_off_c, 0, 75, 63
1, 277170, Note_on_c, 0, 90, 85
1, 277185, Note_on_c, 0, 82, 80
1, 277186, Note_off_c, 0, 87, 63
1, 277193, Note_off_c, 0, 78, 63
1, 277259, Note_off_c, 0, 90, 65
1, 277262, Note_on_c, 0, 94, 84
1, 277265, Note_off_c, 0, 82, 66
1, 277293, Note_on_c, 0, 84, 85
1, 277313, Note_off_c, 0, 94, 64
1, 277338, Note_off_c, 0, 84, 65
1, 277397, Note_on_c, 0, 96, 95
1, 277419, Note_on_c, 0, 87, 82
1, 277527, Note_on_c, 0, 99, 97
1, 277533, Note_on_c, 0, 90, 88
1, 277540, Note_off_c, 0, 87, 62
1, 277758, Note_on_c, 0, 102, 102
1, 277765, Note_on_c, 0, 94, 99
1, 277769, Note_off_c, 0, 96, 46
1, 277772, Note_off_c, 0, 90, 64
1, 277778, Note_off_c, 0, 99, 68
1, 277795, Note_off_c, 0, 102, 68
1, 277808, Note_off_c, 0, 94, 71
1, 278830, Control_c, 0, 64, 121
1, 278845, Control_c, 0, 64, 117
1, 278860, Control_c, 0, 64, 113
1, 278875, Control_c, 0, 64, 111
1, 278890, Control_c, 0, 64, 108
1, 278905, Control_c, 0, 64, 107
1, 278920, Control_c, 0, 64, 105
1, 278935, Control_c, 0, 64, 104
1, 278949, Control_c, 0, 64, 102
1, 278964, Control_c, 0, 64, 100
1, 278979, Control_c, 0, 64, 97
1, 278994, Control_c, 0, 64, 94
1, 279009, Control_c, 0, 64, 92
1, 279024, Control_c, 0, 64, 90
1, 279038, Control_c, 0, 64, 87
1, 279053, Control_c, 0, 64, 84
1, 279068, Control_c, 0, 64, 80
1, 279083, Control_c, 0, 64, 74
1, 279098, Control_c, 0, 64, 67
1, 279099, Note_on_c, 0, 54, 95
1, 279104, Note_on_c, 0, 42, 83
1, 279113, Control_c, 0, 64, 40
1, 279135, Control_c, 0, 64, 0
1, 279224, Control_c, 0, 64, 63
1, 279239, Control_c, 0, 64, 72
1, 279254, Control_c, 0, 64, 81
1, 279268, Control_c, 0, 64, 90
1, 279283, Control_c, 0, 64, 97
1, 279298, Control_c, 0, 64, 101
1, 279313, Control_c, 0, 64, 106
1, 279328, Control_c, 0, 64, 114
1, 279343, Control_c, 0, 64, 127
1, 279488, Note_off_c, 0, 54, 59
1, 279510, Note_off_c, 0, 42, 61
1, 279575, Note_on_c, 0, 69, 90
1, 279582, Note_on_c, 0, 61, 93
1, 279583, Note_on_c, 0, 63, 88
1, 279812, Note_off_c, 0, 69, 62
1, 279812, Note_off_c, 0, 61, 59
1, 279849, Note_off_c, 0, 63, 63
1, 279856, Note_on_c, 0, 53, 95
1, 279859, Note_on_c, 0, 41, 86
1, 279932, Note_off_c, 0, 53, 61
1, 279966, Note_off_c, 0, 41, 65
1, 280091, Control_c, 0, 64, 97
1, 280105, Note_on_c, 0, 73, 90
1, 280106, Control_c, 0, 64, 73
1, 280107, Note_on_c, 0, 61, 103
1, 280112, Note_on_c, 0, 66, 88
1, 280120, Note_on_c, 0, 52, 94
1, 280121, Control_c, 0, 64, 0
1, 280123, Note_on_c, 0, 69, 77
1, 280128, Note_on_c, 0, 40, 84
1, 280151, Control_c, 0, 64, 67
1, 280166, Control_c, 0, 64, 89
1, 280177, Note_off_c, 0, 52, 65
1, 280180, Control_c, 0, 64, 127
1, 280204, Note_off_c, 0, 40, 62
1, 280240, Note_off_c, 0, 69, 59
1, 280307, Note_off_c, 0, 73, 43
1, 280327, Note_off_c, 0, 61, 58
1, 280344, Note_on_c, 0, 51, 100
1, 280351, Note_on_c, 0, 39, 93
1, 280356, Note_off_c, 0, 66, 57
1, 280372, Control_c, 0, 64, 97
1, 280387, Control_c, 0, 64, 78
1, 280401, Control_c, 0, 64, 68
1, 280416, Control_c, 0, 64, 75
1, 280431, Control_c, 0, 64, 98
1, 280446, Control_c, 0, 64, 127
1, 280582, Note_on_c, 0, 72, 89
1, 280588, Note_on_c, 0, 60, 93
1, 280639, Note_off_c, 0, 60, 65
1, 280666, Note_off_c, 0, 72, 67
1, 280681, Note_off_c, 0, 51, 54
1, 280757, Note_off_c, 0, 39, 52
1, 280929, Control_c, 0, 64, 107
1, 280944, Control_c, 0, 64, 80
1, 280948, Note_on_c, 0, 78, 96
1, 280954, Note_on_c, 0, 66, 106
1, 280954, Note_on_c, 0, 69, 92
1, 280956, Note_on_c, 0, 72, 77
1, 280959, Control_c, 0, 64, 0
1, 280964, Note_on_c, 0, 38, 86
1, 280965, Note_on_c, 0, 50, 95
1, 281033, Control_c, 0, 64, 66
1, 281048, Control_c, 0, 64, 90
1, 281060, Note_off_c, 0, 50, 62
1, 281063, Control_c, 0, 64, 120
1, 281076, Note_off_c, 0, 38, 61
1, 281078, Control_c, 0, 64, 127
1, 281302, Note_on_c, 0, 49, 100
1, 281308, Note_on_c, 0, 37, 86
1, 281314, Control_c, 0, 64, 97
1, 281329, Control_c, 0, 64, 79
1, 281344, Control_c, 0, 64, 72
1, 281358, Control_c, 0, 64, 77
1, 281381, Control_c, 0, 64, 95
1, 281396, Control_c, 0, 64, 127
1, 281433, Note_off_c, 0, 49, 59
1, 281444, Note_off_c, 0, 37, 63
1, 281511, Note_on_c, 0, 48, 88
1, 281520, Note_on_c, 0, 36, 78
1, 281553, Note_off_c, 0, 48, 66
1, 281558, Note_off_c, 0, 36, 65
1, 281623, Note_off_c, 0, 69, 56
1, 281629, Note_off_c, 0, 72, 56
1, 281638, Note_on_c, 0, 47, 84
1, 281647, Note_on_c, 0, 35, 78
1, 281667, Note_off_c, 0, 47, 67
1, 281682, Note_off_c, 0, 35, 65
1, 281740, Note_on_c, 0, 46, 91
1, 281751, Note_on_c, 0, 34, 80
1, 281786, Note_off_c, 0, 78, 50
1, 281789, Note_off_c, 0, 66, 56
1, 281792, Note_off_c, 0, 46, 61
1, 281805, Note_off_c, 0, 34, 62
1, 281850, Note_on_c, 0, 45, 86
1, 281852, Note_on_c, 0, 33, 85
1, 281888, Note_off_c, 0, 45, 65
1, 281912, Note_off_c, 0, 33, 63
1, 281953, Note_on_c, 0, 44, 86
1, 281959, Note_on_c, 0, 32, 84
1, 281988, Control_c, 0, 64, 114
1, 282003, Control_c, 0, 64, 86
1, 282005, Note_off_c, 0, 44, 63
1, 282015, Note_off_c, 0, 32, 62
1, 282018, Control_c, 0, 64, 56
1, 282028, Note_on_c, 0, 77, 93
1, 282033, Control_c, 0, 64, 0
1, 282035, Note_on_c, 0, 65, 101
1, 282035, Note_on_c, 0, 71, 93
1, 282042, Note_on_c, 0, 75, 89
1, 282062, Control_c, 0, 64, 67
1, 282064, Note_on_c, 0, 43, 90
1, 282067, Note_on_c, 0, 31, 86
1, 282077, Control_c, 0, 64, 85
1, 282092, Control_c, 0, 64, 113
1, 282097, Note_off_c, 0, 43, 64
1, 282103, Note_off_c, 0, 31, 65
1, 282106, Control_c, 0, 64, 127
1, 282169, Note_on_c, 0, 42, 88
1, 282178, Note_on_c, 0, 30, 81
1, 282221, Note_off_c, 0, 42, 62
1, 282228, Note_off_c, 0, 30, 63
1, 282281, Note_on_c, 0, 41, 88
1, 282286, Note_on_c, 0, 29, 79
1, 282313, Note_off_c, 0, 41, 69
1, 282318, Note_off_c, 0, 71, 56
1, 282329, Note_off_c, 0, 29, 64
1, 282383, Note_off_c, 0, 77, 36
1, 282393, Note_on_c, 0, 40, 92
1, 282401, Note_on_c, 0, 28, 82
1, 282416, Note_off_c, 0, 75, 58
1, 282428, Note_off_c, 0, 40, 65
1, 282437, Note_off_c, 0, 28, 65
1, 282497, Note_on_c, 0, 39, 86
1, 282503, Note_on_c, 0, 27, 89
1, 282547, Note_off_c, 0, 39, 63
1, 282559, Note_off_c, 0, 27, 62
1, 282612, Note_on_c, 0, 38, 87
1, 282620, Note_on_c, 0, 26, 77
1, 282637, Note_on_c, 0, 28, 64
1, 282649, Note_on_c, 0, 40, 41
1, 282650, Note_off_c, 0, 38, 63
1, 282664, Note_off_c, 0, 26, 67
1, 282668, Note_off_c, 0, 28, 35
1, 282672, Note_off_c, 0, 40, 66
1, 282714, Note_off_c, 0, 65, 0
1, 282728, Note_on_c, 0, 69, 107
1, 282735, Note_on_c, 0, 37, 91
1, 282736, Control_c, 0, 64, 91
1, 282740, Note_on_c, 0, 25, 93
1, 282751, Poly_aftertouch_c, 0, 65, 127
1, 282751, Control_c, 0, 64, 63
1, 282766, Control_c, 0, 64, 0
1, 282788, Note_off_c, 0, 37, 65
1, 282795, Control_c, 0, 64, 70
1, 282797, Note_off_c, 0, 25, 64
1, 282810, Control_c, 0, 64, 97
1, 282825, Control_c, 0, 64, 127
1, 282881, Note_on_c, 0, 36, 97
1, 282887, Note_on_c, 0, 24, 94
1, 282923, Note_off_c, 0, 36, 66
1, 282927, Poly_aftertouch_c, 0, 65, 0
1, 282931, Note_off_c, 0, 24, 63
1, 282951, Note_off_c, 0, 69, 63
1, 283006, Note_on_c, 0, 35, 95
1, 283013, Note_on_c, 0, 23, 90
1, 283043, Note_off_c, 0, 35, 64
1, 283051, Note_off_c, 0, 23, 63
1, 283352, Control_c, 0, 64, 105
1, 283367, Control_c, 0, 64, 80
1, 283382, Note_on_c, 0, 54, 67
1, 283382, Control_c, 0, 64, 0
1, 283383, Note_on_c, 0, 61, 90
1, 283386, Note_on_c, 0, 49, 99
1, 283391, Note_on_c, 0, 46, 94
1, 283391, Note_on_c, 0, 41, 90
1, 283396, Note_on_c, 0, 34, 78
1, 283430, Note_on_c, 0, 58, 51
1, 283469, Note_off_c, 0, 58, 49
1, 283500, Control_c, 0, 64, 63
1, 283515, Control_c, 0, 64, 76
1, 283530, Control_c, 0, 64, 88
1, 283544, Control_c, 0, 64, 105
1, 283550, Note_off_c, 0, 46, 58
1, 283559, Control_c, 0, 64, 127
1, 283604, Note_off_c, 0, 41, 61
1, 283609, Note_off_c, 0, 34, 62
1, 283647, Note_off_c, 0, 54, 54
1, 283741, Note_off_c, 0, 49, 59
1, 283749, Note_off_c, 0, 61, 61
1, 283960, Note_on_c, 0, 53, 91
1, 284201, Note_on_c, 0, 22, 122
1, 284224, Note_on_c, 0, 21, 63
1, 284225, Note_off_c, 0, 21, 127
1, 284225, Note_off_c, 0, 22, 69
1, 284235, Note_on_c, 0, 23, 43
1, 284236, Note_off_c, 0, 23, 127
1, 284273, Poly_aftertouch_c, 0, 23, 0
1, 284329, Poly_aftertouch_c, 0, 22, 127
1, 284350, Poly_aftertouch_c, 0, 22, 0
1, 284681, Note_off_c, 0, 53, 56
1, 284836, Control_c, 0, 64, 123
1, 284851, Control_c, 0, 64, 88
1, 284858, Note_on_c, 0, 60, 88
1, 284859, Note_on_c, 0, 48, 105
1, 284864, Note_on_c, 0, 33, 87
1, 284866, Control_c, 0, 64, 49
1, 284867, Note_on_c, 0, 57, 84
1, 284880, Control_c, 0, 64, 0
1, 284910, Control_c, 0, 64, 65
1, 284924, Control_c, 0, 64, 89
1, 284925, Note_off_c, 0, 48, 64
1, 284929, Note_off_c, 0, 60, 61
1, 284939, Control_c, 0, 64, 127
1, 284949, Note_off_c, 0, 57, 62
1, 285078, Note_off_c, 0, 33, 62
1, 285132, Note_on_c, 0, 49, 105
1, 285132, Note_on_c, 0, 61, 84
1, 285142, Note_on_c, 0, 34, 86
1, 285145, Note_on_c, 0, 58, 83
1, 285177, Note_off_c, 0, 34, 65
1, 285188, Note_off_c, 0, 49, 64
1, 285222, Note_off_c, 0, 61, 65
1, 285224, Note_off_c, 0, 58, 64
1, 285581, Note_on_c, 0, 65, 92
1, 285587, Note_on_c, 0, 54, 100
1, 285593, Note_on_c, 0, 58, 82
1, 285594, Note_on_c, 0, 49, 101
1, 285597, Note_on_c, 0, 61, 79
1, 285597, Note_on_c, 0, 46, 98
1, 285599, Note_on_c, 0, 39, 81
1, 285615, Control_c, 0, 64, 94
1, 285622, Note_on_c, 0, 62, 56
1, 285629, Control_c, 0, 64, 68
1, 285644, Control_c, 0, 64, 0
1, 285733, Control_c, 0, 64, 64
1, 285747, Control_c, 0, 64, 72
1, 285762, Control_c, 0, 64, 81
1, 285777, Control_c, 0, 64, 96
1, 285791, Note_off_c, 0, 54, 55
1, 285792, Control_c, 0, 64, 112
1, 285793, Note_off_c, 0, 62, 0
1, 285793, Note_on_c, 0, 62, 2
1, 285807, Control_c, 0, 64, 127
1, 285840, Note_off_c, 0, 61, 57
1, 285871, Note_off_c, 0, 58, 53
1, 285897, Note_off_c, 0, 65, 0
1, 285897, Note_on_c, 0, 65, 4
1, 285919, Note_off_c, 0, 62, 47
1, 286008, Note_off_c, 0, 49, 51
1, 286080, Note_off_c, 0, 46, 60
1, 286097, Note_off_c, 0, 65, 42
1, 286292, Note_on_c, 0, 63, 100
1, 286296, Note_on_c, 0, 57, 99
1, 286296, Note_on_c, 0, 60, 99
1, 286303, Note_on_c, 0, 48, 94
1, 286304, Note_on_c, 0, 45, 87
1, 286318, Control_c, 0, 64, 103
1, 286333, Control_c, 0, 64, 74
1, 286348, Control_c, 0, 64, 0
1, 286408, Control_c, 0, 64, 60
1, 286423, Control_c, 0, 64, 77
1, 286438, Control_c, 0, 64, 93
1, 286452, Control_c, 0, 64, 122
1, 286467, Control_c, 0, 64, 127
1, 286503, Note_off_c, 0, 48, 59
1, 286634, Note_off_c, 0, 60, 41
1, 286697, Note_off_c, 0, 57, 46
1, 286774, Note_off_c, 0, 63, 55
1, 286992, Control_c, 0, 64, 118
1, 286993, Note_on_c, 0, 60, 98
1, 286994, Note_on_c, 0, 57, 95
1, 286998, Note_on_c, 0, 48, 92
1, 287000, Note_on_c, 0, 51, 96
1, 287005, Note_off_c, 0, 45, 0
1, 287005, Note_on_c, 0, 45, 15
1, 287007, Control_c, 0, 64, 85
1, 287022, Control_c, 0, 64, 0
1, 287081, Control_c, 0, 64, 69
1, 287097, Control_c, 0, 64, 92
1, 287112, Control_c, 0, 64, 127
1, 287141, Note_off_c, 0, 57, 57
1, 287186, Note_off_c, 0, 60, 61
1, 287213, Note_off_c, 0, 51, 56
1, 287254, Note_off_c, 0, 48, 62
1, 287291, Note_off_c, 0, 45, 43
1, 287328, Note_off_c, 0, 39, 63
1, 287776, Note_on_c, 0, 61, 91
1, 287782, Note_on_c, 0, 49, 102
1, 287785, Note_on_c, 0, 34, 55
1, 287786, Note_on_c, 0, 54, 90
1, 287786, Control_c, 0, 64, 87
1, 287793, Note_on_c, 0, 41, 93
1, 287793, Note_on_c, 0, 46, 105
1, 287800, Control_c, 0, 64, 0
1, 287861, Note_on_c, 0, 59, 25
1, 287874, Control_c, 0, 64, 63
1, 287890, Control_c, 0, 64, 96
1, 287905, Control_c, 0, 64, 127
1, 287920, Note_off_c, 0, 46, 60
1, 287940, Note_off_c, 0, 59, 31
1, 287972, Note_off_c, 0, 41, 63
1, 287989, Note_off_c, 0, 34, 51
1, 288019, Note_off_c, 0, 54, 58
1, 288072, Note_off_c, 0, 49, 60
1, 288083, Note_off_c, 0, 61, 54
1, 288286, Note_on_c, 0, 53, 92
1, 288532, Note_on_c, 0, 22, 115
1, 288554, Note_off_c, 0, 22, 68
1, 288573, Note_on_c, 0, 23, 37
1, 288574, Note_off_c, 0, 23, 127
1, 288587, Note_on_c, 0, 24, 5
1, 288614, Poly_aftertouch_c, 0, 23, 0
1, 288628, Note_on_c, 0, 22, 18
1, 288643, Note_off_c, 0, 22, 67
1, 288643, Note_off_c, 0, 24, 45
1, 288714, Note_on_c, 0, 22, 27
1, 288749, Note_off_c, 0, 22, 44
1, 288938, Note_off_c, 0, 53, 55
1, 289105, Control_c, 0, 64, 118
1, 289120, Control_c, 0, 64, 82
1, 289135, Control_c, 0, 64, 0
1, 289137, Note_on_c, 0, 60, 87
1, 289140, Note_on_c, 0, 48, 104
1, 289142, Note_on_c, 0, 33, 85
1, 289145, Note_on_c, 0, 57, 84
1, 289165, Control_c, 0, 64, 46
1, 289180, Control_c, 0, 64, 79
1, 289192, Note_off_c, 0, 48, 66
1, 289195, Control_c, 0, 64, 116
1, 289205, Note_off_c, 0, 60, 62
1, 289210, Control_c, 0, 64, 127
1, 289219, Note_off_c, 0, 57, 62
1, 289362, Note_off_c, 0, 33, 61
1, 289411, Note_on_c, 0, 49, 101
1, 289412, Note_on_c, 0, 61, 81
1, 289421, Note_on_c, 0, 34, 92
1, 289428, Note_on_c, 0, 58, 81
1, 289461, Note_off_c, 0, 49, 65
1, 289462, Note_off_c, 0, 34, 63
1, 289485, Note_off_c, 0, 58, 65
1, 289493, Note_off_c, 0, 61, 65
1, 289886, Note_on_c, 0, 72, 93
1, 289892, Note_on_c, 0, 61, 105
1, 289897, Note_on_c, 0, 68, 83
1, 289899, Note_on_c, 0, 65, 85
1, 289901, Note_on_c, 0, 56, 104
1, 289904, Note_on_c, 0, 53, 94
1, 289905, Note_on_c, 0, 46, 89
1, 289907, Note_on_c, 0, 49, 89
1, 289923, Note_on_c, 0, 69, 55
1, 289928, Control_c, 0, 64, 123
1, 289934, Note_on_c, 0, 64, 37
1, 289935, Note_off_c, 0, 64, 127
1, 289942, Note_on_c, 0, 55, 44
1, 289943, Control_c, 0, 64, 87
1, 289958, Control_c, 0, 64, 0
1, 289978, Note_off_c, 0, 55, 52
1, 290077, Control_c, 0, 64, 57
1, 290092, Control_c, 0, 64, 68
1, 290097, Note_off_c, 0, 61, 46
1, 290107, Control_c, 0, 64, 75
1, 290121, Control_c, 0, 64, 85
1, 290136, Control_c, 0, 64, 95
1, 290140, Note_off_c, 0, 65, 58
1, 290151, Control_c, 0, 64, 105
1, 290166, Control_c, 0, 64, 113
1, 290181, Control_c, 0, 64, 123
1, 290195, Control_c, 0, 64, 127
1, 290199, Note_off_c, 0, 53, 62
1, 290205, Note_off_c, 0, 68, 58
1, 290235, Note_off_c, 0, 69, 41
1, 290320, Note_off_c, 0, 56, 61
1, 290530, Note_off_c, 0, 72, 48
1, 290589, Control_c, 0, 64, 123
1, 290604, Control_c, 0, 64, 92
1, 290614, Note_on_c, 0, 70, 95
1, 290618, Control_c, 0, 64, 65
1, 290621, Note_on_c, 0, 66, 96
1, 290626, Note_on_c, 0, 58, 97
1, 290627, Note_on_c, 0, 54, 79
1, 290633, Control_c, 0, 64, 0
1, 290663, Control_c, 0, 64, 64
1, 290678, Control_c, 0, 64, 87
1, 290692, Control_c, 0, 64, 127
1, 290718, Note_off_c, 0, 58, 62
1, 290754, Note_off_c, 0, 70, 60
1, 290756, Note_off_c, 0, 46, 55
1, 290783, Note_off_c, 0, 66, 64
1, 290784, Note_off_c, 0, 54, 61
1, 290810, Note_off_c, 0, 49, 61
1, 291160, Control_c, 0, 64, 122
1, 291174, Control_c, 0, 64, 93
1, 291189, Control_c, 0, 64, 66
1, 291190, Note_on_c, 0, 68, 95
1, 291199, Note_on_c, 0, 59, 92
1, 291201, Note_on_c, 0, 38, 82
1, 291201, Note_on_c, 0, 50, 94
1, 291203, Note_on_c, 0, 65, 85
1, 291204, Control_c, 0, 64, 0
1, 291249, Control_c, 0, 64, 68
1, 291264, Control_c, 0, 64, 95
1, 291278, Control_c, 0, 64, 127
1, 291299, Poly_aftertouch_c, 0, 45, 127
1, 291334, Note_off_c, 0, 50, 57
1, 291345, Note_off_c, 0, 38, 61
1, 291374, Note_off_c, 0, 59, 55
1, 291383, Note_off_c, 0, 68, 59
1, 291392, Note_off_c, 0, 65, 61
1, 291395, Poly_aftertouch_c, 0, 45, 0
1, 291648, Control_c, 0, 64, 88
1, 291656, Note_on_c, 0, 67, 92
1, 291657, Note_on_c, 0, 58, 101
1, 291663, Control_c, 0, 64, 0
1, 291666, Note_on_c, 0, 51, 101
1, 291666, Note_on_c, 0, 61, 83
1, 291672, Note_on_c, 0, 39, 84
1, 291708, Control_c, 0, 64, 68
1, 291723, Note_off_c, 0, 58, 64
1, 291723, Control_c, 0, 64, 111
1, 291738, Control_c, 0, 64, 127
1, 291740, Note_off_c, 0, 61, 64
1, 291754, Note_off_c, 0, 67, 64
1, 291794, Note_off_c, 0, 51, 60
1, 291842, Note_off_c, 0, 39, 61
1, 292086, Control_c, 0, 64, 97
1, 292091, Note_on_c, 0, 78, 97
1, 292100, Note_on_c, 0, 72, 98
1, 292101, Control_c, 0, 64, 45
1, 292103, Note_on_c, 0, 69, 97
1, 292107, Note_on_c, 0, 68, 73
1, 292112, Note_on_c, 0, 44, 97
1, 292116, Control_c, 0, 64, 0
1, 292119, Note_on_c, 0, 32, 82
1, 292146, Control_c, 0, 64, 33
1, 292161, Control_c, 0, 64, 86
1, 292176, Control_c, 0, 64, 127
1, 292197, Note_off_c, 0, 68, 0
1, 292225, Poly_aftertouch_c, 0, 68, 0
1, 292244, Note_off_c, 0, 32, 61
1, 292259, Note_off_c, 0, 69, 62
1, 292273, Note_off_c, 0, 44, 61
1, 292274, Note_off_c, 0, 78, 44
1, 292411, Note_off_c, 0, 72, 54
1, 292516, Control_c, 0, 64, 115
1, 292529, Note_on_c, 0, 77, 90
1, 292530, Control_c, 0, 64, 81
1, 292531, Note_on_c, 0, 68, 107
1, 292533, Note_on_c, 0, 49, 99
1, 292535, Note_on_c, 0, 73, 90
1, 292537, Note_on_c, 0, 37, 87
1, 292545, Control_c, 0, 64, 0
1, 292590, Control_c, 0, 64, 58
1, 292612, Control_c, 0, 64, 86
1, 292627, Control_c, 0, 64, 127
1, 292700, Note_off_c, 0, 77, 52
1, 292719, Note_off_c, 0, 73, 56
1, 292732, Note_off_c, 0, 37, 54
1, 292737, Note_off_c, 0, 49, 59
1, 292771, Note_off_c, 0, 68, 56
1, 292939, Control_c, 0, 64, 102
1, 292954, Control_c, 0, 64, 74
1, 292969, Control_c, 0, 64, 0
1, 292982, Note_on_c, 0, 76, 90
1, 292983, Note_on_c, 0, 48, 100
1, 292987, Note_on_c, 0, 36, 88
1, 292988, Note_on_c, 0, 67, 100
1, 292994, Note_on_c, 0, 70, 90
1, 292998, Control_c, 0, 64, 66
1, 293013, Control_c, 0, 64, 92
1, 293028, Control_c, 0, 64, 127
1, 293048, Note_off_c, 0, 67, 61
1, 293052, Note_off_c, 0, 76, 68
1, 293085, Note_off_c, 0, 70, 63
1, 293220, Control_c, 0, 64, 111
1, 293235, Control_c, 0, 64, 84
1, 293240, Note_off_c, 0, 36, 57
1, 293250, Control_c, 0, 64, 52
1, 293264, Control_c, 0, 64, 53
1, 293267, Note_off_c, 0, 48, 61
1, 293268, Note_on_c, 0, 75, 93
1, 293271, Note_on_c, 0, 66, 102
1, 293276, Note_on_c, 0, 41, 83
1, 293276, Note_on_c, 0, 69, 78
1, 293279, Control_c, 0, 64, 80
1, 293294, Control_c, 0, 64, 127
1, 293317, Note_on_c, 0, 73, 44
1, 293324, Note_off_c, 0, 41, 67
1, 293329, Note_off_c, 0, 69, 65
1, 293346, Note_off_c, 0, 73, 53
1, 293391, Note_off_c, 0, 75, 64
1, 293419, Note_off_c, 0, 66, 61
1, 293464, Control_c, 0, 64, 122
1, 293479, Control_c, 0, 64, 87
1, 293496, Control_c, 0, 64, 55
1, 293510, Control_c, 0, 64, 0
1, 293515, Note_on_c, 0, 74, 84
1, 293517, Note_on_c, 0, 65, 95
1, 293523, Note_on_c, 0, 46, 97
1, 293524, Note_on_c, 0, 68, 91
1, 293525, Control_c, 0, 64, 65
1, 293529, Note_on_c, 0, 34, 83
1, 293540, Control_c, 0, 64, 99
1, 293555, Control_c, 0, 64, 127
1, 293559, Note_on_c, 0, 72, 40
1, 293563, Note_off_c, 0, 34, 68
1, 293567, Note_off_c, 0, 46, 62
1, 293585, Note_off_c, 0, 72, 54
1, 293589, Note_off_c, 0, 74, 64
1, 293597, Note_off_c, 0, 65, 58
1, 293610, Note_off_c, 0, 68, 63
1, 293659, Control_c, 0, 64, 109
1, 293674, Control_c, 0, 64, 89
1, 293688, Control_c, 0, 64, 85
1, 293703, Control_c, 0, 64, 96
1, 293715, Note_on_c, 0, 64, 89
1, 293717, Note_on_c, 0, 73, 80
1, 293718, Control_c, 0, 64, 127
1, 293720, Note_on_c, 0, 51, 98
1, 293723, Note_on_c, 0, 67, 71
1, 293732, Note_on_c, 0, 39, 82
1, 293752, Note_off_c, 0, 51, 63
1, 293764, Note_off_c, 0, 39, 64
1, 293769, Note_off_c, 0, 64, 63
1, 293775, Note_off_c, 0, 67, 61
1, 293843, Note_off_c, 0, 73, 62
1, 293881, Control_c, 0, 64, 91
1, 293896, Control_c, 0, 64, 62
1, 293911, Control_c, 0, 64, 0
1, 293916, Note_on_c, 0, 72, 86
1, 293923, Note_on_c, 0, 44, 93
1, 293926, Control_c, 0, 64, 70
1, 293929, Note_on_c, 0, 32, 84
1, 293929, Note_on_c, 0, 63, 85
1, 293940, Control_c, 0, 64, 110
1, 293952, Note_off_c, 0, 44, 65
1, 293955, Note_on_c, 0, 66, 39
1, 293955, Control_c, 0, 64, 127
1, 293963, Note_off_c, 0, 32, 65
1, 293978, Note_off_c, 0, 63, 62
1, 293984, Note_off_c, 0, 66, 54
1, 294002, Note_off_c, 0, 72, 58
1, 294110, Control_c, 0, 64, 118
1, 294125, Control_c, 0, 64, 85
1, 294140, Control_c, 0, 64, 48
1, 294143, Note_on_c, 0, 71, 88
1, 294149, Note_on_c, 0, 62, 91
1, 294149, Note_on_c, 0, 65, 80
1, 294155, Control_c, 0, 64, 22
1, 294156, Note_on_c, 0, 49, 97
1, 294166, Note_on_c, 0, 37, 73
1, 294170, Control_c, 0, 64, 79
1, 294185, Control_c, 0, 64, 127
1, 294191, Note_off_c, 0, 49, 64
1, 294193, Note_off_c, 0, 37, 66
1, 294204, Note_off_c, 0, 62, 60
1, 294221, Note_off_c, 0, 71, 62
1, 294227, Note_off_c, 0, 65, 66
1, 294364, Control_c, 0, 64, 106
1, 294379, Control_c, 0, 64, 80
1, 294388, Note_on_c, 0, 70, 86
1, 294393, Control_c, 0, 64, 0
1, 294397, Note_on_c, 0, 61, 90
1, 294397, Note_on_c, 0, 64, 72
1, 294405, Note_on_c, 0, 55, 89
1, 294451, Control_c, 0, 64, 59
1, 294459, Note_on_c, 0, 68, 11
1, 294465, Control_c, 0, 64, 74
1, 294469, Note_off_c, 0, 64, 65
1, 294480, Control_c, 0, 64, 92
1, 294495, Control_c, 0, 64, 121
1, 294504, Note_off_c, 0, 61, 59
1, 294505, Note_off_c, 0, 68, 52
1, 294510, Control_c, 0, 64, 127
1, 294513, Note_off_c, 0, 70, 61
1, 294566, Note_off_c, 0, 55, 63
1, 294574, Note_on_c, 0, 69, 85
1, 294581, Note_on_c, 0, 60, 81
1, 294581, Note_on_c, 0, 54, 75
1, 294586, Note_on_c, 0, 63, 75
1, 294629, Note_off_c, 0, 60, 59
1, 294646, Note_off_c, 0, 69, 65
1, 294665, Note_off_c, 0, 63, 61
1, 294673, Control_c, 0, 64, 103
1, 294688, Control_c, 0, 64, 84
1, 294703, Control_c, 0, 64, 70
1, 294717, Control_c, 0, 64, 64
1, 294720, Note_on_c, 0, 59, 73
1, 294722, Note_on_c, 0, 68, 86
1, 294732, Control_c, 0, 64, 69
1, 294733, Note_on_c, 0, 53, 74
1, 294733, Note_off_c, 0, 54, 60
1, 294747, Control_c, 0, 64, 83
1, 294757, Note_off_c, 0, 59, 63
1, 294762, Control_c, 0, 64, 106
1, 294776, Control_c, 0, 64, 127
1, 294811, Note_off_c, 0, 68, 62
1, 294835, Note_off_c, 0, 53, 55
1, 294862, Note_on_c, 0, 67, 84
1, 294869, Note_on_c, 0, 52, 81
1, 294870, Note_on_c, 0, 58, 82
1, 294903, Note_off_c, 0, 58, 58
1, 294926, Note_off_c, 0, 67, 62
1, 294993, Note_on_c, 0, 66, 85
1, 294996, Note_off_c, 0, 52, 65
1, 294997, Note_on_c, 0, 57, 77
1, 295001, Note_on_c, 0, 51, 78
1, 295023, Note_off_c, 0, 57, 68
1, 295040, Note_off_c, 0, 66, 66
1, 295087, Note_off_c, 0, 51, 52
1, 295108, Note_on_c, 0, 50, 83
1, 295117, Note_on_c, 0, 56, 86
1, 295118, Note_on_c, 0, 65, 79
1, 295139, Note_off_c, 0, 56, 69
1, 295161, Note_off_c, 0, 65, 64
1, 295163, Note_off_c, 0, 50, 62
1, 295214, Control_c, 0, 64, 102
1, 295229, Note_on_c, 0, 64, 89
1, 295229, Control_c, 0, 64, 92
1, 295230, Note_on_c, 0, 49, 81
1, 295238, Note_on_c, 0, 55, 84
1, 295244, Control_c, 0, 64, 90
1, 295259, Control_c, 0, 64, 93
1, 295267, Note_off_c, 0, 55, 67
1, 295274, Control_c, 0, 64, 108
1, 295277, Note_off_c, 0, 64, 66
1, 295288, Control_c, 0, 64, 127
1, 295309, Note_off_c, 0, 49, 61
1, 295333, Note_on_c, 0, 48, 86
1, 295344, Note_on_c, 0, 63, 81
1, 295361, Note_on_c, 0, 54, 64
1, 295372, Note_on_c, 0, 64, 57
1, 295373, Note_off_c, 0, 64, 127
1, 295382, Note_off_c, 0, 54, 63
1, 295386, Note_off_c, 0, 48, 64
1, 295396, Note_off_c, 0, 63, 61
1, 295446, Note_on_c, 0, 47, 89
1, 295458, Note_on_c, 0, 62, 94
1, 295467, Note_on_c, 0, 53, 82
1, 295491, Note_off_c, 0, 53, 71
1, 295507, Note_off_c, 0, 62, 59
1, 295552, Poly_aftertouch_c, 0, 54, 0
1, 295593, Note_off_c, 0, 47, 61
1, 295636, Note_on_c, 0, 61, 96
1, 295640, Note_on_c, 0, 53, 102
1, 295647, Note_on_c, 0, 54, 80
1, 295650, Note_on_c, 0, 46, 91
1, 295666, Control_c, 0, 64, 115
1, 295681, Control_c, 0, 64, 99
1, 295696, Control_c, 0, 64, 86
1, 295711, Control_c, 0, 64, 73
1, 295726, Control_c, 0, 64, 52
1, 295740, Control_c, 0, 64, 0
1, 295766, Note_off_c, 0, 46, 61
1, 295795, Note_on_c, 0, 45, 90
1, 295847, Note_off_c, 0, 45, 66
1, 295919, Control_c, 0, 64, 23
1, 295927, Note_on_c, 0, 44, 87
1, 295934, Control_c, 0, 64, 34
1, 295949, Control_c, 0, 64, 40
1, 295963, Control_c, 0, 64, 43
1, 295993, Control_c, 0, 64, 43
1, 296008, Note_off_c, 0, 44, 64
1, 296008, Control_c, 0, 64, 42
1, 296023, Control_c, 0, 64, 42
1, 296037, Control_c, 0, 64, 41
1, 296052, Control_c, 0, 64, 42
1, 296065, Note_on_c, 0, 43, 91
1, 296067, Control_c, 0, 64, 43
1, 296081, Control_c, 0, 64, 44
1, 296096, Control_c, 0, 64, 46
1, 296111, Control_c, 0, 64, 48
1, 296118, Note_off_c, 0, 43, 63
1, 296126, Control_c, 0, 64, 48
1, 296141, Control_c, 0, 64, 48
1, 296155, Control_c, 0, 64, 47
1, 296185, Control_c, 0, 64, 48
1, 296200, Control_c, 0, 64, 49
1, 296202, Note_on_c, 0, 42, 90
1, 296215, Control_c, 0, 64, 50
1, 296230, Control_c, 0, 64, 51
1, 296245, Control_c, 0, 64, 52
1, 296277, Note_off_c, 0, 42, 64
1, 296319, Control_c, 0, 64, 52
1, 296334, Control_c, 0, 64, 53
1, 296337, Note_on_c, 0, 41, 93
1, 296355, Control_c, 0, 64, 54
1, 296401, Note_off_c, 0, 41, 65
1, 296415, Control_c, 0, 64, 54
1, 296444, Control_c, 0, 64, 55
1, 296459, Control_c, 0, 64, 56
1, 296474, Control_c, 0, 64, 56
1, 296486, Note_on_c, 0, 40, 95
1, 296489, Control_c, 0, 64, 57
1, 296545, Note_off_c, 0, 40, 64
1, 296593, Control_c, 0, 64, 57
1, 296623, Control_c, 0, 64, 58
1, 296634, Note_on_c, 0, 39, 87
1, 296699, Note_off_c, 0, 39, 63
1, 296793, Note_on_c, 0, 38, 96
1, 296846, Control_c, 0, 64, 58
1, 296851, Note_off_c, 0, 38, 64
1, 296860, Control_c, 0, 64, 59
1, 296875, Control_c, 0, 64, 59
1, 296949, Control_c, 0, 64, 60
1, 296955, Note_on_c, 0, 37, 95
1, 296993, Control_c, 0, 64, 60
1, 297008, Control_c, 0, 64, 61
1, 297017, Note_off_c, 0, 37, 65
1, 297038, Control_c, 0, 64, 61
1, 297053, Control_c, 0, 64, 62
1, 297067, Control_c, 0, 64, 63
1, 297082, Control_c, 0, 64, 63
1, 297104, Control_c, 0, 64, 64
1, 297119, Control_c, 0, 64, 65
1, 297133, Note_on_c, 0, 36, 97
1, 297134, Control_c, 0, 64, 65
1, 297149, Control_c, 0, 64, 66
1, 297164, Control_c, 0, 64, 67
1, 297178, Control_c, 0, 64, 68
1, 297183, Note_off_c, 0, 36, 65
1, 297193, Control_c, 0, 64, 68
1, 297208, Control_c, 0, 64, 69
1, 297223, Control_c, 0, 64, 70
1, 297237, Control_c, 0, 64, 71
1, 297252, Control_c, 0, 64, 72
1, 297267, Control_c, 0, 64, 73
1, 297282, Control_c, 0, 64, 73
1, 297307, Note_on_c, 0, 35, 95
1, 297346, Note_off_c, 0, 35, 68
1, 297386, Control_c, 0, 64, 74
1, 297460, Control_c, 0, 64, 74
1, 297476, Control_c, 0, 64, 75
1, 297491, Control_c, 0, 64, 76
1, 297506, Control_c, 0, 64, 77
1, 297521, Control_c, 0, 64, 78
1, 297535, Control_c, 0, 64, 79
1, 297550, Control_c, 0, 64, 80
1, 297565, Control_c, 0, 64, 80
1, 297580, Control_c, 0, 64, 81
1, 297595, Control_c, 0, 64, 81
1, 297601, Note_off_c, 0, 54, 54
1, 297609, Note_off_c, 0, 53, 54
1, 297620, Note_off_c, 0, 61, 60
1, 297650, Note_on_c, 0, 34, 102
1, 297655, Note_on_c, 0, 22, 92
1, 297669, Control_c, 0, 64, 81
1, 297680, Note_on_c, 0, 25, 57
1, 297683, Control_c, 0, 64, 80
1, 297698, Control_c, 0, 64, 78
1, 297713, Control_c, 0, 64, 73
1, 297722, Note_off_c, 0, 25, 44
1, 297727, Control_c, 0, 64, 64
1, 297742, Control_c, 0, 64, 0
1, 297765, Poly_aftertouch_c, 0, 35, 0
1, 297972, Control_c, 0, 64, 11
1, 297987, Control_c, 0, 64, 44
1, 298001, Control_c, 0, 64, 56
1, 298016, Control_c, 0, 64, 60
1, 298031, Control_c, 0, 64, 62
1, 298046, Control_c, 0, 64, 62
1, 298060, Control_c, 0, 64, 63
1, 298075, Control_c, 0, 64, 64
1, 298090, Control_c, 0, 64, 65
1, 298105, Control_c, 0, 64, 66
1, 298120, Control_c, 0, 64, 68
1, 298135, Control_c, 0, 64, 69
1, 298149, Control_c, 0, 64, 71
1, 298164, Control_c, 0, 64, 74
1, 298179, Control_c, 0, 64, 77
1, 298194, Control_c, 0, 64, 81
1, 298209, Control_c, 0, 64, 85
1, 298224, Control_c, 0, 64, 90
1, 298239, Control_c, 0, 64, 96
1, 298253, Control_c, 0, 64, 102
1, 298268, Control_c, 0, 64, 108
1, 298284, Control_c, 0, 64, 116
1, 298299, Control_c, 0, 64, 127
1, 298630, Note_off_c, 0, 34, 55
1, 298636, Note_off_c, 0, 22, 40
1, 299032, Control_c, 0, 64, 121
1, 299047, Control_c, 0, 64, 94
1, 299062, Control_c, 0, 64, 72
1, 299077, Control_c, 0, 64, 0
1, 299088, Note_on_c, 0, 58, 85
1, 299089, Note_on_c, 0, 46, 98
1, 299093, Note_on_c, 0, 53, 87
1, 299106, Control_c, 0, 64, 64
1, 299119, Note_on_c, 0, 37, 93
1, 299121, Control_c, 0, 64, 80
1, 299130, Note_on_c, 0, 25, 86
1, 299136, Control_c, 0, 64, 99
1, 299146, Note_off_c, 0, 37, 70
1, 299151, Control_c, 0, 64, 122
1, 299160, Note_off_c, 0, 25, 64
1, 299166, Control_c, 0, 64, 127
1, 299250, Note_on_c, 0, 34, 104
1, 299260, Note_on_c, 0, 22, 96
1, 299275, Note_off_c, 0, 34, 72
1, 299287, Note_off_c, 0, 22, 64
1, 299375, Poly_aftertouch_c, 0, 25, 0
1, 299595, Note_off_c, 0, 46, 56
1, 299729, Note_off_c, 0, 53, 58
1, 299855, Note_off_c, 0, 58, 59
1, 300248, Control_c, 0, 64, 102
1, 300263, Control_c, 0, 64, 79
1, 300278, Control_c, 0, 64, 43
1, 300293, Control_c, 0, 64, 0
1, 300308, Control_c, 0, 64, 58
1, 300314, Note_on_c, 0, 65, 90
1, 300315, Note_on_c, 0, 53, 105
1, 300316, Note_on_c, 0, 58, 98
1, 300323, Control_c, 0, 64, 80
1, 300337, Control_c, 0, 64, 108
1, 300349, Note_on_c, 0, 37, 95
1, 300352, Control_c, 0, 64, 127
1, 300358, Note_on_c, 0, 25, 88
1, 300375, Note_off_c, 0, 37, 69
1, 300387, Note_off_c, 0, 25, 64
1, 300433, Poly_aftertouch_c, 0, 27, 0
1, 300468, Poly_aftertouch_c, 0, 27, 0
1, 300495, Note_on_c, 0, 34, 101
1, 300502, Note_on_c, 0, 22, 94
1, 300516, Note_off_c, 0, 34, 74
1, 300529, Note_off_c, 0, 22, 65
1, 300883, Note_off_c, 0, 53, 54
1, 300925, Note_off_c, 0, 58, 60
1, 300932, Note_off_c, 0, 65, 63
1, 301338, Control_c, 0, 64, 109
1, 301352, Control_c, 0, 64, 80
1, 301367, Control_c, 0, 64, 0
1, 301381, Note_on_c, 0, 70, 86
1, 301385, Note_on_c, 0, 65, 95
1, 301387, Note_on_c, 0, 58, 104
1, 301399, Note_on_c, 0, 37, 100
1, 301404, Note_on_c, 0, 25, 91
1, 301411, Control_c, 0, 64, 69
1, 301424, Note_off_c, 0, 37, 69
1, 301426, Control_c, 0, 64, 87
1, 301435, Note_off_c, 0, 25, 66
1, 301441, Control_c, 0, 64, 125
1, 301456, Control_c, 0, 64, 127
1, 301602, Note_on_c, 0, 34, 102
1, 301607, Note_on_c, 0, 22, 99
1, 301623, Note_off_c, 0, 34, 74
1, 301642, Note_off_c, 0, 22, 63
1, 301899, Note_off_c, 0, 65, 59
1, 301902, Note_off_c, 0, 70, 57
1, 301966, Note_off_c, 0, 58, 58
1, 302374, Note_on_c, 0, 46, 112
1, 302376, Note_on_c, 0, 34, 105
1, 302376, Note_on_c, 0, 22, 87
1, 302376, Control_c, 0, 64, 126
1, 302391, Control_c, 0, 64, 90
1, 302406, Control_c, 0, 64, 48
1, 302421, Control_c, 0, 64, 0
1, 302439, Note_on_c, 0, 51, 17
1, 302440, Note_off_c, 0, 51, 127
1, 302495, Control_c, 0, 64, 65
1, 302510, Control_c, 0, 64, 81
1, 302524, Control_c, 0, 64, 101
1, 302539, Control_c, 0, 64, 127
1, 302549, Note_off_c, 0, 22, 64
1, 302569, Note_off_c, 0, 46, 60
1, 302581, Note_off_c, 0, 34, 63
1, 303244, Note_on_c, 0, 65, 74
1, 303307, Note_on_c, 0, 70, 66
1, 303363, Note_on_c, 0, 73, 57
1, 303383, Note_on_c, 0, 97, 95
1, 303386, Note_on_c, 0, 85, 108
1, 303392, Note_on_c, 0, 94, 91
1, 303394, Note_on_c, 0, 78, 100
1, 303420, Note_on_c, 0, 96, 59
1, 303455, Note_off_c, 0, 96, 59
1, 303567, Note_off_c, 0, 78, 47
1, 303743, Note_on_c, 0, 77, 107
1, 306073, Note_off_c, 0, 97, 65
1, 306120, Note_off_c, 0, 77, 54
1, 306121, Note_off_c, 0, 94, 64
1, 306126, Note_off_c, 0, 85, 62
1, 306136, Note_off_c, 0, 65, 61
1, 306143, Note_off_c, 0, 70, 60
1, 306144, Note_off_c, 0, 73, 53
1, 306269, Control_c, 0, 64, 114
1, 306284, Control_c, 0, 64, 103
1, 306298, Control_c, 0, 64, 94
1, 306313, Control_c, 0, 64, 87
1, 306328, Control_c, 0, 64, 80
1, 306343, Control_c, 0, 64, 73
1, 306358, Control_c, 0, 64, 64
1, 306372, Control_c, 0, 64, 0
1, 306372, End_track
0, 0, End_of_file
