0, 0, Header, 0, 1, 384
1, 0, Start_track
1, 0, Title_t, "Prelude & Fugue--Osip Nikiforov "
1, 0, Text_t, "2008 e-Piano Junior Competition recital round"
1, 0, Text_t, "recorded July 2008"
1, 0, Text_t, "http://www.piano-e-competition.com/"
1, 0, Text_t, "File processed for distribution by software from Zenph Studios, Inc., http://www.zenph.com"
1, 0, Instrument_name_t, "Yamaha Disklavier Pro Mark IV concert grand piano, model DCFIIISM4PRO"
1, 0, Sequencer_specific, 39, 67, 113, 0, 1, 0, 1, 0, 80, 114, 101, 108, 117, 100, 101, 32, 38, 32, 70, 117, 103, 117, 101, 32, 79, 115, 105, 112, 32, 78, 105, 107, 105, 102, 111, 114, 111, 118, 32, 32
1, 0, Sequencer_specific, 6, 67, 113, 0, 0, 0, 69
1, 0, System_exclusive, 21, 67, 113, 126, 21, 0, 2, 2, 0, 3, 14, 1, 4, 1, 13, 13, 10, 11, 9, 2, 7, 247
1, 0, Sequencer_specific, 5, 67, 123, 12, 2, 1
1, 0, Tempo, 512820
1, 0, Time_signature, 4, 2, 24, 8
1, 0, System_exclusive, 5, 126, 127, 9, 1, 247
1, 1, System_exclusive, 8, 67, 16, 76, 0, 0, 126, 0, 247
1, 2, System_exclusive, 8, 67, 16, 76, 8, 9, 7, 1, 247
1, 3, Control_c, 0, 0, 0
1, 3, Control_c, 1, 0, 0
1, 3, Control_c, 2, 0, 0
1, 3, Control_c, 3, 0, 0
1, 3, Control_c, 4, 0, 0
1, 3, Control_c, 5, 0, 0
1, 3, Control_c, 6, 0, 0
1, 3, Control_c, 7, 0, 0
1, 3, Control_c, 8, 0, 0
1, 3, Control_c, 9, 0, 127
1, 3, Control_c, 10, 0, 0
1, 3, Control_c, 11, 0, 0
1, 3, Control_c, 12, 0, 0
1, 3, Control_c, 13, 0, 0
1, 3, Control_c, 14, 0, 0
1, 3, Control_c, 15, 0, 0
1, 4, Control_c, 0, 32, 0
1, 4, Control_c, 1, 32, 0
1, 4, Control_c, 2, 32, 0
1, 4, Control_c, 3, 32, 0
1, 4, Control_c, 4, 32, 0
1, 4, Control_c, 5, 32, 0
1, 4, Control_c, 6, 32, 0
1, 4, Control_c, 7, 32, 0
1, 4, Control_c, 8, 32, 0
1, 4, Control_c, 9, 32, 0
1, 4, Control_c, 10, 32, 0
1, 4, Control_c, 11, 32, 0
1, 4, Control_c, 12, 32, 0
1, 4, Control_c, 13, 32, 0
1, 4, Control_c, 14, 32, 0
1, 4, Control_c, 15, 32, 0
1, 5, Program_c, 0, 0
1, 5, Program_c, 1, 0
1, 5, Program_c, 2, 0
1, 5, Program_c, 3, 0
1, 5, Program_c, 4, 0
1, 5, Program_c, 5, 0
1, 5, Program_c, 6, 0
1, 5, Program_c, 7, 0
1, 5, Program_c, 8, 0
1, 5, Program_c, 9, 0
1, 5, Program_c, 10, 0
1, 5, Program_c, 11, 0
1, 5, Program_c, 12, 0
1, 5, Program_c, 13, 0
1, 5, Program_c, 14, 0
1, 5, Program_c, 15, 0
1, 6, Control_c, 0, 7, 100
1, 6, Control_c, 1, 7, 100
1, 6, Control_c, 2, 7, 100
1, 6, Control_c, 3, 7, 100
1, 6, Control_c, 4, 7, 100
1, 6, Control_c, 5, 7, 100
1, 6, Control_c, 6, 7, 100
1, 6, Control_c, 7, 7, 100
1, 6, Control_c, 8, 7, 100
1, 6, Control_c, 9, 7, 100
1, 6, Control_c, 10, 7, 100
1, 6, Control_c, 11, 7, 100
1, 6, Control_c, 12, 7, 100
1, 6, Control_c, 13, 7, 100
1, 6, Control_c, 14, 7, 100
1, 6, Control_c, 15, 7, 100
1, 1129, Note_on_c, 0, 67, 66
1, 1149, Note_on_c, 0, 55, 52
1, 1200, Note_on_c, 0, 71, 71
1, 1207, Note_off_c, 0, 67, 61
1, 1277, Note_on_c, 0, 74, 70
1, 1282, Note_off_c, 0, 71, 60
1, 1342, Note_on_c, 0, 43, 64
1, 1346, Note_off_c, 0, 74, 66
1, 1350, Note_on_c, 0, 79, 83
1, 1360, Note_off_c, 0, 55, 60
1, 1379, Note_off_c, 0, 43, 63
1, 1426, Note_on_c, 0, 74, 75
1, 1437, Note_off_c, 0, 79, 57
1, 1492, Note_off_c, 0, 74, 65
1, 1498, Note_on_c, 0, 71, 76
1, 1573, Note_off_c, 0, 71, 60
1, 1578, Note_on_c, 0, 74, 71
1, 1632, Note_off_c, 0, 74, 66
1, 1641, Note_on_c, 0, 71, 70
1, 1698, Note_off_c, 0, 71, 60
1, 1717, Note_on_c, 0, 67, 76
1, 1787, Note_off_c, 0, 67, 49
1, 1807, Note_on_c, 0, 71, 72
1, 1810, Note_on_c, 0, 55, 68
1, 1843, Note_off_c, 0, 55, 65
1, 1879, Note_on_c, 0, 67, 80
1, 1881, Note_off_c, 0, 71, 58
1, 1947, Note_off_c, 0, 67, 62
1, 1950, Note_on_c, 0, 62, 74
1, 2014, Note_off_c, 0, 62, 63
1, 2034, Note_on_c, 0, 64, 77
1, 2050, Note_on_c, 0, 55, 74
1, 2102, Note_off_c, 0, 64, 62
1, 2107, Note_on_c, 0, 67, 76
1, 2180, Note_off_c, 0, 67, 64
1, 2187, Note_on_c, 0, 72, 77
1, 2256, Note_on_c, 0, 43, 73
1, 2256, Note_off_c, 0, 72, 65
1, 2265, Note_on_c, 0, 76, 86
1, 2273, Note_off_c, 0, 55, 65
1, 2291, Note_off_c, 0, 43, 64
1, 2342, Note_on_c, 0, 72, 85
1, 2363, Note_off_c, 0, 76, 64
1, 2413, Note_off_c, 0, 72, 67
1, 2416, Note_on_c, 0, 67, 79
1, 2480, Note_off_c, 0, 67, 63
1, 2491, Note_on_c, 0, 72, 80
1, 2560, Note_off_c, 0, 72, 66
1, 2563, Note_on_c, 0, 67, 73
1, 2622, Note_off_c, 0, 67, 62
1, 2636, Note_on_c, 0, 64, 76
1, 2701, Note_off_c, 0, 64, 62
1, 2703, Note_on_c, 0, 55, 75
1, 2714, Note_on_c, 0, 67, 82
1, 2726, Note_off_c, 0, 55, 68
1, 2790, Note_on_c, 0, 64, 70
1, 2791, Note_off_c, 0, 67, 62
1, 2846, Note_off_c, 0, 64, 65
1, 2852, Note_on_c, 0, 60, 77
1, 2923, Note_off_c, 0, 60, 60
1, 2934, Note_on_c, 0, 57, 75
1, 2944, Note_on_c, 0, 55, 76
1, 3015, Note_off_c, 0, 57, 63
1, 3022, Note_on_c, 0, 60, 71
1, 3075, Note_off_c, 0, 60, 60
1, 3097, Note_on_c, 0, 66, 76
1, 3165, Control_c, 0, 64, 10
1, 3179, Note_on_c, 0, 43, 70
1, 3179, Note_on_c, 0, 69, 82
1, 3180, Note_off_c, 0, 66, 65
1, 3194, Control_c, 0, 64, 13
1, 3200, Note_off_c, 0, 55, 65
1, 3222, Note_off_c, 0, 43, 64
1, 3263, Note_on_c, 0, 66, 80
1, 3268, Note_off_c, 0, 69, 62
1, 3290, Control_c, 0, 64, 15
1, 3305, Control_c, 0, 64, 17
1, 3336, Note_on_c, 0, 60, 74
1, 3337, Note_off_c, 0, 66, 65
1, 3349, Control_c, 0, 64, 18
1, 3412, Note_off_c, 0, 60, 61
1, 3413, Note_on_c, 0, 66, 79
1, 3424, Control_c, 0, 64, 20
1, 3469, Control_c, 0, 64, 18
1, 3478, Note_on_c, 0, 60, 74
1, 3483, Control_c, 0, 64, 17
1, 3489, Note_off_c, 0, 66, 65
1, 3498, Control_c, 0, 64, 15
1, 3513, Control_c, 0, 64, 13
1, 3539, Note_off_c, 0, 60, 63
1, 3554, Note_on_c, 0, 57, 72
1, 3557, Control_c, 0, 64, 10
1, 3602, Control_c, 0, 64, 0
1, 3629, Note_on_c, 0, 55, 73
1, 3631, Note_off_c, 0, 57, 57
1, 3635, Note_on_c, 0, 60, 77
1, 3651, Note_off_c, 0, 55, 69
1, 3701, Note_off_c, 0, 60, 63
1, 3703, Note_on_c, 0, 57, 65
1, 3770, Note_off_c, 0, 57, 64
1, 3773, Note_on_c, 0, 54, 77
1, 3824, Control_c, 0, 64, 28
1, 3839, Control_c, 0, 64, 41
1, 3850, Note_off_c, 0, 54, 63
1, 3853, Note_on_c, 0, 55, 84
1, 3854, Control_c, 0, 64, 48
1, 3869, Control_c, 0, 64, 52
1, 3884, Control_c, 0, 64, 55
1, 3898, Control_c, 0, 64, 58
1, 3913, Control_c, 0, 64, 61
1, 3928, Control_c, 0, 64, 62
1, 3937, Note_on_c, 0, 59, 74
1, 3943, Control_c, 0, 64, 63
1, 3972, Control_c, 0, 64, 62
1, 3987, Control_c, 0, 64, 62
1, 3996, Note_off_c, 0, 55, 55
1, 4010, Control_c, 0, 64, 60
1, 4022, Note_on_c, 0, 62, 77
1, 4024, Note_off_c, 0, 59, 62
1, 4025, Control_c, 0, 64, 59
1, 4039, Control_c, 0, 64, 56
1, 4054, Control_c, 0, 64, 53
1, 4069, Control_c, 0, 64, 48
1, 4083, Control_c, 0, 64, 42
1, 4087, Note_on_c, 0, 43, 72
1, 4092, Note_off_c, 0, 62, 63
1, 4095, Note_on_c, 0, 67, 82
1, 4098, Control_c, 0, 64, 37
1, 4113, Control_c, 0, 64, 27
1, 4124, Note_off_c, 0, 43, 66
1, 4128, Control_c, 0, 64, 0
1, 4169, Note_on_c, 0, 62, 73
1, 4175, Note_off_c, 0, 67, 61
1, 4229, Note_off_c, 0, 62, 63
1, 4232, Note_on_c, 0, 59, 76
1, 4300, Note_off_c, 0, 59, 63
1, 4303, Note_on_c, 0, 62, 79
1, 4351, Control_c, 0, 64, 33
1, 4365, Control_c, 0, 64, 47
1, 4369, Note_off_c, 0, 62, 63
1, 4372, Note_on_c, 0, 59, 75
1, 4380, Control_c, 0, 64, 53
1, 4395, Control_c, 0, 64, 57
1, 4410, Control_c, 0, 64, 58
1, 4420, Note_off_c, 0, 59, 63
1, 4425, Control_c, 0, 64, 60
1, 4435, Note_on_c, 0, 55, 69
1, 4439, Control_c, 0, 64, 62
1, 4454, Control_c, 0, 64, 64
1, 4468, Note_off_c, 0, 55, 65
1, 4469, Control_c, 0, 64, 66
1, 4483, Control_c, 0, 64, 67
1, 4498, Control_c, 0, 64, 68
1, 4513, Control_c, 0, 64, 69
1, 4517, Note_on_c, 0, 59, 69
1, 4522, Note_on_c, 0, 55, 65
1, 4550, Note_off_c, 0, 55, 66
1, 4573, Control_c, 0, 64, 68
1, 4587, Control_c, 0, 64, 68
1, 4592, Note_on_c, 0, 55, 68
1, 4595, Note_off_c, 0, 59, 63
1, 4602, Control_c, 0, 64, 67
1, 4617, Control_c, 0, 64, 66
1, 4632, Control_c, 0, 64, 65
1, 4647, Control_c, 0, 64, 64
1, 4655, Note_off_c, 0, 55, 62
1, 4661, Note_on_c, 0, 50, 78
1, 4661, Control_c, 0, 64, 63
1, 4676, Control_c, 0, 64, 62
1, 4691, Control_c, 0, 64, 60
1, 4692, Note_off_c, 0, 50, 63
1, 4706, Control_c, 0, 64, 57
1, 4721, Control_c, 0, 64, 55
1, 4735, Control_c, 0, 64, 53
1, 4758, Control_c, 0, 64, 47
1, 4773, Control_c, 0, 64, 40
1, 4775, Note_on_c, 0, 55, 80
1, 4787, Note_on_c, 0, 57, 64
1, 4787, Control_c, 0, 64, 31
1, 4802, Control_c, 0, 64, 18
1, 4817, Control_c, 0, 64, 0
1, 4862, Note_on_c, 0, 61, 71
1, 4887, Note_off_c, 0, 57, 56
1, 4932, Note_off_c, 0, 61, 62
1, 4935, Note_on_c, 0, 64, 78
1, 5007, Note_off_c, 0, 64, 65
1, 5008, Note_on_c, 0, 43, 68
1, 5016, Note_on_c, 0, 69, 76
1, 5031, Note_off_c, 0, 55, 63
1, 5045, Note_off_c, 0, 43, 62
1, 5073, Note_on_c, 0, 64, 69
1, 5073, Note_off_c, 0, 69, 63
1, 5098, Control_c, 0, 64, 21
1, 5113, Control_c, 0, 64, 29
1, 5128, Control_c, 0, 64, 34
1, 5143, Control_c, 0, 64, 38
1, 5153, Note_off_c, 0, 64, 65
1, 5158, Control_c, 0, 64, 43
1, 5159, Note_on_c, 0, 61, 75
1, 5173, Control_c, 0, 64, 48
1, 5187, Control_c, 0, 64, 51
1, 5202, Control_c, 0, 64, 52
1, 5226, Note_on_c, 0, 64, 72
1, 5230, Note_off_c, 0, 61, 63
1, 5232, Control_c, 0, 64, 51
1, 5261, Control_c, 0, 64, 51
1, 5276, Control_c, 0, 64, 50
1, 5291, Control_c, 0, 64, 50
1, 5298, Note_off_c, 0, 64, 65
1, 5299, Note_on_c, 0, 61, 76
1, 5305, Control_c, 0, 64, 49
1, 5320, Control_c, 0, 64, 48
1, 5336, Control_c, 0, 64, 47
1, 5351, Control_c, 0, 64, 46
1, 5356, Note_off_c, 0, 61, 64
1, 5366, Control_c, 0, 64, 45
1, 5368, Note_on_c, 0, 57, 65
1, 5381, Control_c, 0, 64, 44
1, 5396, Control_c, 0, 64, 44
1, 5425, Note_on_c, 0, 55, 62
1, 5425, Control_c, 0, 64, 43
1, 5448, Note_on_c, 0, 61, 74
1, 5448, Note_off_c, 0, 55, 65
1, 5449, Note_off_c, 0, 57, 60
1, 5455, Control_c, 0, 64, 42
1, 5470, Control_c, 0, 64, 41
1, 5484, Control_c, 0, 64, 39
1, 5507, Control_c, 0, 64, 38
1, 5525, Note_on_c, 0, 57, 62
1, 5551, Control_c, 0, 64, 37
1, 5555, Note_off_c, 0, 61, 56
1, 5566, Control_c, 0, 64, 37
1, 5581, Control_c, 0, 64, 36
1, 5596, Note_on_c, 0, 52, 72
1, 5596, Control_c, 0, 64, 34
1, 5600, Note_off_c, 0, 57, 62
1, 5610, Control_c, 0, 64, 32
1, 5625, Control_c, 0, 64, 30
1, 5640, Control_c, 0, 64, 29
1, 5654, Control_c, 0, 64, 27
1, 5669, Control_c, 0, 64, 24
1, 5677, Note_on_c, 0, 54, 64
1, 5681, Note_off_c, 0, 52, 64
1, 5684, Note_on_c, 0, 62, 77
1, 5684, Control_c, 0, 64, 17
1, 5699, Control_c, 0, 64, 0
1, 5749, Note_on_c, 0, 57, 61
1, 5761, Note_off_c, 0, 54, 61
1, 5799, Note_off_c, 0, 62, 60
1, 5819, Note_on_c, 0, 61, 71
1, 5835, Note_off_c, 0, 57, 62
1, 5880, Note_off_c, 0, 61, 63
1, 5904, Note_on_c, 0, 62, 65
1, 5921, Control_c, 0, 64, 10
1, 5936, Control_c, 0, 64, 13
1, 5940, Note_off_c, 0, 62, 57
1, 5975, Note_on_c, 0, 57, 64
1, 6010, Control_c, 0, 64, 10
1, 6025, Control_c, 0, 64, 0
1, 6040, Note_off_c, 0, 57, 63
1, 6053, Note_on_c, 0, 54, 67
1, 6111, Note_off_c, 0, 54, 59
1, 6131, Note_on_c, 0, 57, 72
1, 6214, Note_off_c, 0, 57, 60
1, 6220, Note_on_c, 0, 54, 67
1, 6285, Note_off_c, 0, 54, 61
1, 6306, Note_on_c, 0, 50, 57
1, 6344, Note_on_c, 0, 62, 75
1, 6349, Note_off_c, 0, 50, 65
1, 6368, Note_on_c, 0, 54, 58
1, 6379, Note_off_c, 0, 62, 62
1, 6421, Note_off_c, 0, 54, 62
1, 6444, Note_on_c, 0, 50, 60
1, 6505, Note_off_c, 0, 50, 63
1, 6522, Note_on_c, 0, 47, 59
1, 6575, Note_on_c, 0, 62, 63
1, 6579, Note_off_c, 0, 47, 63
1, 6593, Note_on_c, 0, 52, 78
1, 6646, Note_off_c, 0, 62, 58
1, 6662, Note_on_c, 0, 61, 61
1, 6739, Note_off_c, 0, 61, 57
1, 6755, Note_on_c, 0, 62, 46
1, 6825, Note_on_c, 0, 64, 55
1, 6835, Note_off_c, 0, 62, 57
1, 6839, Note_on_c, 0, 40, 72
1, 6850, Note_off_c, 0, 52, 64
1, 6872, Note_off_c, 0, 40, 66
1, 6906, Note_off_c, 0, 64, 63
1, 6912, Note_on_c, 0, 61, 61
1, 6977, Note_off_c, 0, 61, 63
1, 6983, Note_on_c, 0, 62, 63
1, 7067, Note_on_c, 0, 66, 73
1, 7087, Note_off_c, 0, 62, 57
1, 7152, Note_on_c, 0, 61, 61
1, 7155, Note_off_c, 0, 66, 63
1, 7204, Note_off_c, 0, 61, 59
1, 7217, Note_on_c, 0, 62, 52
1, 7293, Note_on_c, 0, 67, 69
1, 7302, Note_off_c, 0, 62, 58
1, 7306, Note_on_c, 0, 52, 71
1, 7335, Note_off_c, 0, 52, 67
1, 7385, Note_on_c, 0, 61, 62
1, 7385, Note_off_c, 0, 67, 58
1, 7438, Note_off_c, 0, 61, 59
1, 7454, Note_on_c, 0, 62, 63
1, 7543, Note_on_c, 0, 49, 60
1, 7545, Note_on_c, 0, 69, 66
1, 7561, Note_off_c, 0, 62, 57
1, 7635, Note_on_c, 0, 61, 59
1, 7637, Note_off_c, 0, 69, 59
1, 7695, Note_off_c, 0, 61, 61
1, 7704, Note_on_c, 0, 62, 60
1, 7788, Note_off_c, 0, 49, 59
1, 7794, Note_on_c, 0, 71, 70
1, 7795, Note_on_c, 0, 45, 54
1, 7815, Note_off_c, 0, 62, 52
1, 7824, Note_off_c, 0, 45, 66
1, 7890, Note_off_c, 0, 71, 56
1, 7901, Note_on_c, 0, 61, 50
1, 7939, Note_on_c, 0, 62, 63
1, 7946, Note_off_c, 0, 61, 60
1, 8030, Note_on_c, 0, 69, 75
1, 8034, Note_on_c, 0, 47, 66
1, 8047, Note_off_c, 0, 62, 60
1, 8066, Note_off_c, 0, 47, 65
1, 8126, Note_on_c, 0, 61, 64
1, 8128, Note_off_c, 0, 69, 56
1, 8187, Note_off_c, 0, 61, 61
1, 8192, Note_on_c, 0, 62, 62
1, 8269, Note_on_c, 0, 67, 78
1, 8275, Note_on_c, 0, 49, 69
1, 8286, Note_off_c, 0, 62, 59
1, 8307, Note_off_c, 0, 49, 64
1, 8355, Note_on_c, 0, 61, 65
1, 8375, Control_c, 0, 64, 10
1, 8390, Control_c, 0, 64, 13
1, 8398, Note_off_c, 0, 67, 36
1, 8404, Control_c, 0, 64, 15
1, 8430, Note_off_c, 0, 61, 56
1, 8432, Note_on_c, 0, 62, 54
1, 8478, Control_c, 0, 64, 13
1, 8524, Note_on_c, 0, 50, 63
1, 8525, Note_on_c, 0, 66, 75
1, 8531, Note_off_c, 0, 62, 62
1, 8575, Control_c, 0, 64, 15
1, 8581, Note_off_c, 0, 66, 65
1, 8584, Note_off_c, 0, 50, 59
1, 8619, Note_on_c, 0, 61, 59
1, 8679, Control_c, 0, 64, 10
1, 8693, Note_off_c, 0, 61, 59
1, 8694, Control_c, 0, 64, 0
1, 8704, Note_on_c, 0, 62, 51
1, 8765, Note_off_c, 0, 62, 58
1, 8767, Note_on_c, 0, 67, 85
1, 8768, Note_on_c, 0, 52, 62
1, 8808, Note_off_c, 0, 67, 64
1, 8840, Note_off_c, 0, 52, 65
1, 8864, Note_on_c, 0, 61, 55
1, 8940, Note_on_c, 0, 62, 53
1, 8948, Note_off_c, 0, 61, 56
1, 8975, Control_c, 0, 64, 10
1, 8994, Note_off_c, 0, 62, 55
1, 9005, Control_c, 0, 64, 13
1, 9010, Note_on_c, 0, 69, 87
1, 9013, Note_on_c, 0, 54, 59
1, 9019, Control_c, 0, 64, 15
1, 9034, Control_c, 0, 64, 18
1, 9043, Note_off_c, 0, 69, 66
1, 9049, Control_c, 0, 64, 20
1, 9064, Control_c, 0, 64, 21
1, 9079, Control_c, 0, 64, 24
1, 9088, Note_on_c, 0, 61, 59
1, 9094, Control_c, 0, 64, 26
1, 9097, Note_off_c, 0, 54, 61
1, 9123, Control_c, 0, 64, 27
1, 9168, Control_c, 0, 64, 26
1, 9180, Note_on_c, 0, 62, 59
1, 9180, Note_off_c, 0, 61, 59
1, 9183, Control_c, 0, 64, 25
1, 9198, Control_c, 0, 64, 24
1, 9254, Note_on_c, 0, 71, 80
1, 9260, Note_off_c, 0, 62, 58
1, 9263, Note_on_c, 0, 55, 55
1, 9264, Control_c, 0, 64, 25
1, 9293, Control_c, 0, 64, 26
1, 9295, Note_off_c, 0, 71, 61
1, 9308, Control_c, 0, 64, 28
1, 9324, Control_c, 0, 64, 29
1, 9326, Note_off_c, 0, 55, 63
1, 9339, Control_c, 0, 64, 31
1, 9350, Note_on_c, 0, 61, 58
1, 9354, Control_c, 0, 64, 33
1, 9369, Control_c, 0, 64, 35
1, 9383, Control_c, 0, 64, 37
1, 9397, Note_off_c, 0, 61, 57
1, 9398, Control_c, 0, 64, 38
1, 9413, Control_c, 0, 64, 38
1, 9427, Note_on_c, 0, 62, 54
1, 9442, Control_c, 0, 64, 39
1, 9472, Control_c, 0, 64, 39
1, 9502, Control_c, 0, 64, 40
1, 9502, Note_off_c, 0, 62, 59
1, 9509, Note_on_c, 0, 54, 57
1, 9514, Note_on_c, 0, 69, 71
1, 9532, Control_c, 0, 64, 41
1, 9562, Control_c, 0, 64, 41
1, 9591, Control_c, 0, 64, 41
1, 9599, Note_off_c, 0, 54, 58
1, 9603, Note_on_c, 0, 61, 57
1, 9606, Control_c, 0, 64, 40
1, 9621, Control_c, 0, 64, 40
1, 9650, Control_c, 0, 64, 39
1, 9665, Control_c, 0, 64, 39
1, 9680, Control_c, 0, 64, 38
1, 9681, Note_off_c, 0, 61, 58
1, 9686, Note_on_c, 0, 62, 52
1, 9694, Control_c, 0, 64, 37
1, 9709, Control_c, 0, 64, 37
1, 9724, Control_c, 0, 64, 36
1, 9739, Control_c, 0, 64, 35
1, 9743, Note_off_c, 0, 69, 66
1, 9752, Note_on_c, 0, 67, 76
1, 9756, Note_off_c, 0, 62, 60
1, 9764, Note_on_c, 0, 52, 59
1, 9768, Control_c, 0, 64, 34
1, 9785, Note_off_c, 0, 67, 63
1, 9814, Control_c, 0, 64, 34
1, 9836, Note_off_c, 0, 52, 65
1, 9842, Note_on_c, 0, 61, 53
1, 9858, Control_c, 0, 64, 33
1, 9887, Note_off_c, 0, 61, 62
1, 9888, Control_c, 0, 64, 32
1, 9913, Note_on_c, 0, 62, 56
1, 9932, Control_c, 0, 64, 33
1, 9947, Control_c, 0, 64, 34
1, 9962, Control_c, 0, 64, 35
1, 9976, Control_c, 0, 64, 36
1, 9995, Note_off_c, 0, 62, 54
1, 9999, Note_on_c, 0, 66, 82
1, 9999, Control_c, 0, 64, 37
1, 10008, Note_on_c, 0, 50, 62
1, 10014, Control_c, 0, 64, 37
1, 10028, Control_c, 0, 64, 38
1, 10043, Control_c, 0, 64, 39
1, 10047, Note_off_c, 0, 50, 56
1, 10053, Note_off_c, 0, 66, 66
1, 10073, Control_c, 0, 64, 39
1, 10088, Control_c, 0, 64, 40
1, 10102, Note_on_c, 0, 61, 61
1, 10102, Control_c, 0, 64, 41
1, 10117, Control_c, 0, 64, 42
1, 10133, Control_c, 0, 64, 43
1, 10148, Control_c, 0, 64, 43
1, 10178, Control_c, 0, 64, 44
1, 10183, Note_on_c, 0, 62, 55
1, 10185, Note_off_c, 0, 61, 56
1, 10207, Control_c, 0, 64, 44
1, 10222, Control_c, 0, 64, 45
1, 10235, Note_on_c, 0, 69, 86
1, 10237, Control_c, 0, 64, 46
1, 10240, Note_off_c, 0, 62, 61
1, 10250, Note_on_c, 0, 54, 62
1, 10252, Control_c, 0, 64, 47
1, 10267, Control_c, 0, 64, 49
1, 10278, Note_off_c, 0, 69, 66
1, 10281, Control_c, 0, 64, 50
1, 10296, Control_c, 0, 64, 53
1, 10311, Control_c, 0, 64, 55
1, 10319, Note_on_c, 0, 61, 69
1, 10325, Control_c, 0, 64, 57
1, 10331, Note_off_c, 0, 54, 61
1, 10340, Control_c, 0, 64, 58
1, 10355, Control_c, 0, 64, 59
1, 10370, Control_c, 0, 64, 59
1, 10385, Control_c, 0, 64, 60
1, 10387, Note_off_c, 0, 61, 62
1, 10397, Note_on_c, 0, 62, 68
1, 10424, Note_off_c, 0, 62, 65
1, 10429, Control_c, 0, 64, 59
1, 10444, Control_c, 0, 64, 58
1, 10459, Control_c, 0, 64, 57
1, 10474, Control_c, 0, 64, 56
1, 10489, Control_c, 0, 64, 52
1, 10492, Note_on_c, 0, 68, 83
1, 10503, Control_c, 0, 64, 47
1, 10509, Note_on_c, 0, 47, 74
1, 10518, Control_c, 0, 64, 41
1, 10533, Control_c, 0, 64, 29
1, 10548, Control_c, 0, 64, 0
1, 10571, Note_off_c, 0, 68, 65
1, 10581, Note_on_c, 0, 71, 71
1, 10644, Note_off_c, 0, 71, 61
1, 10647, Note_on_c, 0, 74, 71
1, 10714, Note_off_c, 0, 47, 59
1, 10720, Note_on_c, 0, 77, 86
1, 10720, Note_off_c, 0, 74, 66
1, 10727, Note_on_c, 0, 59, 72
1, 10763, Control_c, 0, 64, 18
1, 10771, Note_off_c, 0, 59, 63
1, 10778, Control_c, 0, 64, 30
1, 10793, Control_c, 0, 64, 34
1, 10807, Control_c, 0, 64, 37
1, 10811, Note_on_c, 0, 74, 72
1, 10819, Note_off_c, 0, 77, 60
1, 10822, Control_c, 0, 64, 39
1, 10837, Control_c, 0, 64, 41
1, 10851, Control_c, 0, 64, 42
1, 10879, Note_off_c, 0, 74, 65
1, 10882, Note_on_c, 0, 71, 77
1, 10911, Control_c, 0, 64, 42
1, 10927, Control_c, 0, 64, 41
1, 10948, Note_off_c, 0, 71, 60
1, 10952, Note_on_c, 0, 74, 69
1, 10956, Control_c, 0, 64, 41
1, 10971, Control_c, 0, 64, 40
1, 10986, Control_c, 0, 64, 39
1, 11001, Control_c, 0, 64, 38
1, 11016, Control_c, 0, 64, 37
1, 11019, Note_off_c, 0, 74, 65
1, 11027, Note_on_c, 0, 71, 72
1, 11030, Control_c, 0, 64, 36
1, 11066, Note_off_c, 0, 71, 57
1, 11074, Control_c, 0, 64, 37
1, 11091, Note_on_c, 0, 68, 84
1, 11104, Control_c, 0, 64, 37
1, 11125, Note_off_c, 0, 68, 64
1, 11134, Control_c, 0, 64, 37
1, 11148, Control_c, 0, 64, 36
1, 11163, Control_c, 0, 64, 34
1, 11174, Note_on_c, 0, 57, 71
1, 11178, Control_c, 0, 64, 32
1, 11180, Note_on_c, 0, 71, 77
1, 11193, Control_c, 0, 64, 30
1, 11197, Note_off_c, 0, 57, 66
1, 11208, Control_c, 0, 64, 27
1, 11222, Control_c, 0, 64, 23
1, 11237, Control_c, 0, 64, 20
1, 11252, Control_c, 0, 64, 18
1, 11260, Note_on_c, 0, 68, 77
1, 11281, Control_c, 0, 64, 20
1, 11285, Note_off_c, 0, 71, 58
1, 11311, Control_c, 0, 64, 21
1, 11331, Note_on_c, 0, 65, 74
1, 11337, Note_off_c, 0, 68, 62
1, 11340, Control_c, 0, 64, 23
1, 11355, Control_c, 0, 64, 24
1, 11370, Control_c, 0, 64, 25
1, 11385, Control_c, 0, 64, 26
1, 11402, Note_on_c, 0, 62, 75
1, 11404, Note_on_c, 0, 56, 73
1, 11404, Note_off_c, 0, 65, 64
1, 11429, Control_c, 0, 64, 25
1, 11483, Note_on_c, 0, 65, 73
1, 11496, Control_c, 0, 64, 26
1, 11508, Note_off_c, 0, 62, 58
1, 11526, Control_c, 0, 64, 27
1, 11540, Control_c, 0, 64, 28
1, 11555, Control_c, 0, 64, 29
1, 11568, Note_on_c, 0, 68, 78
1, 11569, Note_off_c, 0, 65, 64
1, 11570, Control_c, 0, 64, 29
1, 11585, Control_c, 0, 64, 30
1, 11614, Control_c, 0, 64, 31
1, 11629, Control_c, 0, 64, 32
1, 11642, Note_on_c, 0, 44, 70
1, 11644, Control_c, 0, 64, 34
1, 11645, Note_off_c, 0, 68, 63
1, 11648, Note_on_c, 0, 71, 80
1, 11659, Control_c, 0, 64, 36
1, 11668, Note_off_c, 0, 56, 63
1, 11673, Control_c, 0, 64, 37
1, 11678, Note_off_c, 0, 44, 68
1, 11688, Control_c, 0, 64, 38
1, 11703, Control_c, 0, 64, 38
1, 11719, Control_c, 0, 64, 39
1, 11726, Note_on_c, 0, 68, 76
1, 11732, Note_off_c, 0, 71, 57
1, 11734, Control_c, 0, 64, 39
1, 11749, Control_c, 0, 64, 40
1, 11764, Control_c, 0, 64, 40
1, 11797, Note_on_c, 0, 65, 75
1, 11797, Note_off_c, 0, 68, 63
1, 11808, Control_c, 0, 64, 39
1, 11823, Control_c, 0, 64, 38
1, 11838, Control_c, 0, 64, 36
1, 11852, Control_c, 0, 64, 34
1, 11866, Note_off_c, 0, 65, 64
1, 11867, Control_c, 0, 64, 33
1, 11869, Note_on_c, 0, 68, 76
1, 11882, Control_c, 0, 64, 32
1, 11896, Control_c, 0, 64, 29
1, 11911, Control_c, 0, 64, 27
1, 11926, Control_c, 0, 64, 24
1, 11939, Note_off_c, 0, 68, 66
1, 11941, Note_on_c, 0, 65, 73
1, 11941, Control_c, 0, 64, 21
1, 11956, Control_c, 0, 64, 20
1, 11997, Note_off_c, 0, 65, 65
1, 12000, Control_c, 0, 64, 23
1, 12013, Note_on_c, 0, 62, 64
1, 12015, Control_c, 0, 64, 26
1, 12030, Control_c, 0, 64, 27
1, 12045, Control_c, 0, 64, 28
1, 12072, Note_on_c, 0, 56, 63
1, 12078, Note_on_c, 0, 65, 81
1, 12080, Note_off_c, 0, 62, 59
1, 12089, Control_c, 0, 64, 29
1, 12104, Note_off_c, 0, 56, 65
1, 12119, Control_c, 0, 64, 29
1, 12134, Control_c, 0, 64, 30
1, 12147, Note_on_c, 0, 62, 67
1, 12149, Control_c, 0, 64, 31
1, 12164, Control_c, 0, 64, 32
1, 12170, Note_off_c, 0, 65, 61
1, 12178, Control_c, 0, 64, 33
1, 12208, Control_c, 0, 64, 34
1, 12215, Note_off_c, 0, 62, 63
1, 12218, Note_on_c, 0, 59, 76
1, 12223, Control_c, 0, 64, 34
1, 12244, Control_c, 0, 64, 35
1, 12259, Control_c, 0, 64, 36
1, 12274, Control_c, 0, 64, 39
1, 12289, Control_c, 0, 64, 41
1, 12295, Note_off_c, 0, 59, 63
1, 12304, Control_c, 0, 64, 43
1, 12304, Note_on_c, 0, 57, 57
1, 12317, Note_on_c, 0, 60, 83
1, 12319, Control_c, 0, 64, 44
1, 12334, Control_c, 0, 64, 45
1, 12346, Note_off_c, 0, 60, 64
1, 12349, Control_c, 0, 64, 45
1, 12378, Control_c, 0, 64, 44
1, 12386, Note_off_c, 0, 57, 61
1, 12391, Note_on_c, 0, 60, 51
1, 12393, Control_c, 0, 64, 44
1, 12452, Control_c, 0, 64, 44
1, 12454, Note_off_c, 0, 60, 62
1, 12465, Note_on_c, 0, 64, 72
1, 12482, Control_c, 0, 64, 45
1, 12496, Control_c, 0, 64, 46
1, 12527, Control_c, 0, 64, 46
1, 12543, Note_off_c, 0, 64, 64
1, 12556, Note_on_c, 0, 76, 87
1, 12557, Control_c, 0, 64, 46
1, 12572, Control_c, 0, 64, 45
1, 12573, Note_on_c, 0, 69, 73
1, 12587, Control_c, 0, 64, 45
1, 12599, Note_off_c, 0, 76, 69
1, 12601, Control_c, 0, 64, 44
1, 12614, Note_off_c, 0, 69, 60
1, 12653, Note_on_c, 0, 64, 65
1, 12675, Control_c, 0, 64, 43
1, 12690, Control_c, 0, 64, 42
1, 12702, Note_off_c, 0, 64, 62
1, 12705, Control_c, 0, 64, 42
1, 12719, Control_c, 0, 64, 41
1, 12728, Note_on_c, 0, 60, 63
1, 12734, Control_c, 0, 64, 41
1, 12764, Control_c, 0, 64, 40
1, 12792, Note_off_c, 0, 60, 62
1, 12803, Note_on_c, 0, 72, 92
1, 12821, Note_on_c, 0, 64, 72
1, 12824, Control_c, 0, 64, 40
1, 12838, Control_c, 0, 64, 39
1, 12844, Note_off_c, 0, 72, 70
1, 12859, Note_off_c, 0, 64, 59
1, 12868, Control_c, 0, 64, 39
1, 12883, Control_c, 0, 64, 39
1, 12903, Note_on_c, 0, 60, 65
1, 12913, Control_c, 0, 64, 40
1, 12957, Control_c, 0, 64, 39
1, 12963, Note_off_c, 0, 60, 63
1, 12972, Control_c, 0, 64, 39
1, 12978, Note_on_c, 0, 57, 69
1, 13024, Control_c, 0, 64, 39
1, 13039, Control_c, 0, 64, 40
1, 13042, Note_off_c, 0, 57, 63
1, 13053, Control_c, 0, 64, 40
1, 13060, Note_on_c, 0, 69, 92
1, 13068, Control_c, 0, 64, 41
1, 13070, Note_on_c, 0, 60, 76
1, 13083, Control_c, 0, 64, 42
1, 13098, Control_c, 0, 64, 43
1, 13101, Note_off_c, 0, 69, 65
1, 13113, Control_c, 0, 64, 44
1, 13126, Note_off_c, 0, 60, 46
1, 13127, Control_c, 0, 64, 46
1, 13142, Note_on_c, 0, 57, 70
1, 13142, Control_c, 0, 64, 47
1, 13157, Control_c, 0, 64, 48
1, 13172, Control_c, 0, 64, 48
1, 13201, Control_c, 0, 64, 49
1, 13208, Note_off_c, 0, 57, 61
1, 13217, Note_on_c, 0, 52, 69
1, 13246, Control_c, 0, 64, 48
1, 13261, Control_c, 0, 64, 47
1, 13290, Note_off_c, 0, 52, 64
1, 13291, Control_c, 0, 64, 46
1, 13306, Control_c, 0, 64, 46
1, 13314, Note_on_c, 0, 64, 89
1, 13317, Note_on_c, 0, 48, 79
1, 13350, Control_c, 0, 64, 46
1, 13365, Control_c, 0, 64, 47
1, 13380, Control_c, 0, 64, 47
1, 13395, Control_c, 0, 64, 48
1, 13397, Note_on_c, 0, 52, 72
1, 13402, Note_off_c, 0, 48, 60
1, 13425, Control_c, 0, 64, 49
1, 13455, Control_c, 0, 64, 48
1, 13483, Note_off_c, 0, 52, 66
1, 13484, Note_on_c, 0, 57, 63
1, 13486, Note_off_c, 0, 64, 57
1, 13488, Note_on_c, 0, 59, 63
1, 13499, Control_c, 0, 64, 48
1, 13514, Control_c, 0, 64, 47
1, 13529, Control_c, 0, 64, 47
1, 13542, Note_off_c, 0, 59, 58
1, 13543, Control_c, 0, 64, 46
1, 13546, Note_off_c, 0, 57, 61
1, 13558, Control_c, 0, 64, 45
1, 13560, Note_on_c, 0, 76, 90
1, 13569, Note_on_c, 0, 60, 73
1, 13573, Control_c, 0, 64, 45
1, 13603, Control_c, 0, 64, 44
1, 13617, Control_c, 0, 64, 43
1, 13619, Note_off_c, 0, 76, 66
1, 13632, Control_c, 0, 64, 42
1, 13633, Note_off_c, 0, 60, 59
1, 13647, Control_c, 0, 64, 40
1, 13649, Note_on_c, 0, 57, 68
1, 13661, Control_c, 0, 64, 36
1, 13676, Control_c, 0, 64, 32
1, 13691, Control_c, 0, 64, 27
1, 13706, Note_off_c, 0, 57, 62
1, 13706, Control_c, 0, 64, 21
1, 13721, Control_c, 0, 64, 15
1, 13722, Note_on_c, 0, 52, 69
1, 13743, Control_c, 0, 64, 0
1, 13794, Note_off_c, 0, 52, 66
1, 13806, Note_on_c, 0, 72, 91
1, 13815, Note_on_c, 0, 57, 81
1, 13847, Control_c, 0, 64, 10
1, 13860, Note_off_c, 0, 72, 66
1, 13862, Control_c, 0, 64, 17
1, 13869, Note_off_c, 0, 57, 60
1, 13876, Control_c, 0, 64, 21
1, 13891, Control_c, 0, 64, 23
1, 13902, Note_on_c, 0, 52, 75
1, 13936, Control_c, 0, 64, 24
1, 13958, Note_off_c, 0, 52, 64
1, 13965, Control_c, 0, 64, 26
1, 13970, Note_on_c, 0, 48, 73
1, 13980, Control_c, 0, 64, 29
1, 13995, Control_c, 0, 64, 32
1, 14010, Control_c, 0, 64, 34
1, 14024, Control_c, 0, 64, 34
1, 14037, Note_off_c, 0, 48, 65
1, 14039, Control_c, 0, 64, 35
1, 14051, Note_on_c, 0, 69, 88
1, 14063, Note_on_c, 0, 52, 82
1, 14088, Note_off_c, 0, 69, 67
1, 14114, Control_c, 0, 64, 36
1, 14123, Note_off_c, 0, 52, 63
1, 14129, Control_c, 0, 64, 38
1, 14134, Note_on_c, 0, 48, 74
1, 14144, Control_c, 0, 64, 40
1, 14158, Control_c, 0, 64, 41
1, 14173, Control_c, 0, 64, 42
1, 14188, Control_c, 0, 64, 43
1, 14194, Note_off_c, 0, 48, 65
1, 14198, Note_on_c, 0, 45, 72
1, 14203, Control_c, 0, 64, 43
1, 14233, Control_c, 0, 64, 44
1, 14250, Note_off_c, 0, 45, 63
1, 14304, Note_on_c, 0, 75, 87
1, 14327, Note_on_c, 0, 42, 72
1, 14337, Control_c, 0, 64, 44
1, 14391, Note_on_c, 0, 78, 82
1, 14396, Control_c, 0, 64, 45
1, 14411, Note_off_c, 0, 75, 60
1, 14467, Note_on_c, 0, 81, 79
1, 14488, Note_off_c, 0, 78, 62
1, 14492, Control_c, 0, 64, 44
1, 14525, Note_off_c, 0, 42, 46
1, 14549, Note_on_c, 0, 54, 62
1, 14550, Note_on_c, 0, 84, 83
1, 14552, Control_c, 0, 64, 45
1, 14555, Note_off_c, 0, 81, 63
1, 14566, Control_c, 0, 64, 46
1, 14581, Control_c, 0, 64, 47
1, 14595, Note_off_c, 0, 54, 62
1, 14596, Control_c, 0, 64, 47
1, 14611, Control_c, 0, 64, 48
1, 14624, Note_on_c, 0, 81, 73
1, 14626, Control_c, 0, 64, 49
1, 14646, Note_off_c, 0, 84, 64
1, 14655, Control_c, 0, 64, 50
1, 14700, Note_on_c, 0, 78, 81
1, 14710, Note_off_c, 0, 81, 62
1, 14729, Control_c, 0, 64, 49
1, 14759, Control_c, 0, 64, 48
1, 14773, Control_c, 0, 64, 48
1, 14780, Note_on_c, 0, 81, 75
1, 14785, Note_off_c, 0, 78, 64
1, 14788, Control_c, 0, 64, 47
1, 14803, Control_c, 0, 64, 47
1, 14817, Control_c, 0, 64, 46
1, 14850, Note_on_c, 0, 78, 81
1, 14856, Note_off_c, 0, 81, 61
1, 14906, Note_off_c, 0, 78, 64
1, 14918, Note_on_c, 0, 75, 74
1, 14922, Control_c, 0, 64, 46
1, 14937, Control_c, 0, 64, 47
1, 14993, Note_off_c, 0, 75, 62
1, 15005, Note_on_c, 0, 78, 79
1, 15008, Note_on_c, 0, 52, 63
1, 15011, Control_c, 0, 64, 46
1, 15042, Note_off_c, 0, 52, 67
1, 15085, Control_c, 0, 64, 47
1, 15090, Note_on_c, 0, 75, 67
1, 15100, Control_c, 0, 64, 47
1, 15141, Note_off_c, 0, 78, 48
1, 15161, Note_on_c, 0, 72, 75
1, 15186, Note_off_c, 0, 75, 59
1, 15203, Control_c, 0, 64, 47
1, 15252, Note_on_c, 0, 69, 75
1, 15253, Note_off_c, 0, 72, 63
1, 15261, Note_on_c, 0, 51, 54
1, 15270, Control_c, 0, 64, 46
1, 15285, Control_c, 0, 64, 46
1, 15314, Control_c, 0, 64, 45
1, 15329, Control_c, 0, 64, 44
1, 15338, Note_on_c, 0, 72, 74
1, 15349, Note_off_c, 0, 69, 60
1, 15359, Control_c, 0, 64, 44
1, 15410, Note_on_c, 0, 75, 79
1, 15411, Note_off_c, 0, 72, 65
1, 15418, Control_c, 0, 64, 44
1, 15462, Control_c, 0, 64, 45
1, 15477, Control_c, 0, 64, 46
1, 15483, Note_on_c, 0, 39, 60
1, 15491, Note_off_c, 0, 75, 64
1, 15492, Control_c, 0, 64, 47
1, 15496, Note_on_c, 0, 78, 83
1, 15507, Control_c, 0, 64, 47
1, 15520, Note_off_c, 0, 51, 57
1, 15521, Control_c, 0, 64, 48
1, 15541, Note_off_c, 0, 39, 61
1, 15551, Control_c, 0, 64, 49
1, 15568, Note_on_c, 0, 75, 72
1, 15592, Note_off_c, 0, 78, 59
1, 15640, Control_c, 0, 64, 48
1, 15644, Note_off_c, 0, 75, 65
1, 15645, Note_on_c, 0, 72, 74
1, 15654, Control_c, 0, 64, 47
1, 15669, Control_c, 0, 64, 46
1, 15684, Control_c, 0, 64, 45
1, 15699, Control_c, 0, 64, 44
1, 15715, Control_c, 0, 64, 43
1, 15716, Note_off_c, 0, 72, 64
1, 15717, Note_on_c, 0, 75, 70
1, 15730, Control_c, 0, 64, 42
1, 15744, Control_c, 0, 64, 40
1, 15759, Control_c, 0, 64, 38
1, 15775, Control_c, 0, 64, 36
1, 15790, Control_c, 0, 64, 33
1, 15792, Note_on_c, 0, 72, 73
1, 15798, Note_off_c, 0, 75, 65
1, 15805, Control_c, 0, 64, 31
1, 15819, Control_c, 0, 64, 30
1, 15847, Note_off_c, 0, 72, 65
1, 15863, Note_on_c, 0, 69, 65
1, 15934, Note_off_c, 0, 69, 56
1, 15938, Note_on_c, 0, 72, 76
1, 15943, Note_on_c, 0, 51, 47
1, 15967, Control_c, 0, 64, 31
1, 15970, Note_off_c, 0, 51, 60
1, 16005, Control_c, 0, 64, 32
1, 16013, Note_off_c, 0, 72, 65
1, 16016, Note_on_c, 0, 69, 68
1, 16034, Control_c, 0, 64, 32
1, 16084, Note_off_c, 0, 69, 65
1, 16089, Note_on_c, 0, 66, 73
1, 16123, Control_c, 0, 64, 33
1, 16137, Control_c, 0, 64, 34
1, 16152, Control_c, 0, 64, 34
1, 16167, Control_c, 0, 64, 35
1, 16174, Note_off_c, 0, 66, 66
1, 16175, Note_on_c, 0, 52, 55
1, 16179, Note_on_c, 0, 67, 73
1, 16197, Control_c, 0, 64, 36
1, 16209, Note_off_c, 0, 67, 64
1, 16212, Control_c, 0, 64, 36
1, 16218, Note_off_c, 0, 52, 64
1, 16242, Control_c, 0, 64, 37
1, 16256, Control_c, 0, 64, 38
1, 16271, Control_c, 0, 64, 39
1, 16280, Note_on_c, 0, 63, 58
1, 16286, Control_c, 0, 64, 39
1, 16301, Control_c, 0, 64, 40
1, 16331, Note_off_c, 0, 63, 55
1, 16364, Note_on_c, 0, 64, 47
1, 16419, Note_off_c, 0, 64, 60
1, 16435, Note_on_c, 0, 69, 76
1, 16441, Note_on_c, 0, 54, 49
1, 16459, Note_off_c, 0, 69, 67
1, 16509, Control_c, 0, 64, 40
1, 16516, Note_off_c, 0, 54, 60
1, 16524, Note_on_c, 0, 63, 56
1, 16524, Control_c, 0, 64, 41
1, 16599, Note_off_c, 0, 63, 61
1, 16606, Note_on_c, 0, 64, 49
1, 16613, Control_c, 0, 64, 40
1, 16628, Control_c, 0, 64, 40
1, 16672, Note_off_c, 0, 64, 58
1, 16683, Note_on_c, 0, 71, 75
1, 16695, Note_on_c, 0, 55, 54
1, 16701, Control_c, 0, 64, 40
1, 16711, Note_off_c, 0, 71, 61
1, 16716, Control_c, 0, 64, 41
1, 16739, Control_c, 0, 64, 41
1, 16757, Note_off_c, 0, 55, 61
1, 16768, Control_c, 0, 64, 42
1, 16781, Note_on_c, 0, 63, 52
1, 16783, Control_c, 0, 64, 42
1, 16855, Note_off_c, 0, 63, 58
1, 16861, Note_on_c, 0, 64, 50
1, 16916, Control_c, 0, 64, 43
1, 16923, Note_off_c, 0, 64, 56
1, 16931, Control_c, 0, 64, 44
1, 16943, Note_on_c, 0, 72, 73
1, 16946, Control_c, 0, 64, 45
1, 16960, Note_on_c, 0, 57, 54
1, 16960, Control_c, 0, 64, 46
1, 16975, Control_c, 0, 64, 47
1, 16977, Note_off_c, 0, 72, 65
1, 16990, Control_c, 0, 64, 48
1, 17005, Control_c, 0, 64, 49
1, 17015, Note_off_c, 0, 57, 58
1, 17020, Control_c, 0, 64, 50
1, 17035, Control_c, 0, 64, 51
1, 17045, Note_on_c, 0, 63, 55
1, 17050, Control_c, 0, 64, 52
1, 17064, Control_c, 0, 64, 52
1, 17106, Note_off_c, 0, 63, 55
1, 17109, Control_c, 0, 64, 52
1, 17125, Note_on_c, 0, 64, 46
1, 17139, Control_c, 0, 64, 51
1, 17208, Note_on_c, 0, 55, 43
1, 17208, Note_on_c, 0, 71, 69
1, 17213, Note_off_c, 0, 64, 60
1, 17242, Control_c, 0, 64, 51
1, 17274, Note_off_c, 0, 55, 64
1, 17294, Note_on_c, 0, 63, 60
1, 17301, Control_c, 0, 64, 50
1, 17347, Note_off_c, 0, 63, 60
1, 17386, Note_on_c, 0, 64, 54
1, 17436, Note_off_c, 0, 64, 58
1, 17445, Note_on_c, 0, 69, 79
1, 17452, Note_on_c, 0, 54, 57
1, 17452, Note_off_c, 0, 71, 59
1, 17488, Note_off_c, 0, 69, 67
1, 17488, Control_c, 0, 64, 50
1, 17503, Control_c, 0, 64, 49
1, 17517, Control_c, 0, 64, 49
1, 17532, Control_c, 0, 64, 48
1, 17536, Note_off_c, 0, 54, 59
1, 17547, Control_c, 0, 64, 48
1, 17559, Note_on_c, 0, 63, 45
1, 17562, Control_c, 0, 64, 47
1, 17577, Control_c, 0, 64, 46
1, 17586, Note_off_c, 0, 63, 58
1, 17591, Control_c, 0, 64, 46
1, 17606, Control_c, 0, 64, 45
1, 17616, Note_on_c, 0, 64, 50
1, 17621, Control_c, 0, 64, 44
1, 17635, Control_c, 0, 64, 43
1, 17650, Control_c, 0, 64, 42
1, 17695, Note_off_c, 0, 64, 55
1, 17695, Control_c, 0, 64, 43
1, 17707, Note_on_c, 0, 52, 60
1, 17709, Note_on_c, 0, 67, 69
1, 17709, Control_c, 0, 64, 43
1, 17724, Control_c, 0, 64, 44
1, 17739, Control_c, 0, 64, 44
1, 17744, Note_off_c, 0, 67, 61
1, 17754, Control_c, 0, 64, 45
1, 17761, Note_off_c, 0, 52, 53
1, 17783, Control_c, 0, 64, 45
1, 17807, Note_on_c, 0, 63, 61
1, 17828, Control_c, 0, 64, 46
1, 17857, Control_c, 0, 64, 47
1, 17886, Note_off_c, 0, 63, 60
1, 17887, Control_c, 0, 64, 47
1, 17899, Note_on_c, 0, 64, 43
1, 17947, Control_c, 0, 64, 48
1, 17953, Note_off_c, 0, 64, 54
1, 17962, Note_on_c, 0, 71, 70
1, 17962, Control_c, 0, 64, 49
1, 17965, Note_on_c, 0, 55, 59
1, 17976, Control_c, 0, 64, 49
1, 17991, Control_c, 0, 64, 50
1, 17994, Note_off_c, 0, 71, 59
1, 18006, Control_c, 0, 64, 51
1, 18035, Note_off_c, 0, 55, 63
1, 18035, Control_c, 0, 64, 51
1, 18039, Note_on_c, 0, 63, 60
1, 18050, Control_c, 0, 64, 52
1, 18065, Control_c, 0, 64, 53
1, 18095, Control_c, 0, 64, 53
1, 18101, Note_off_c, 0, 63, 65
1, 18116, Note_on_c, 0, 64, 60
1, 18141, Note_off_c, 0, 64, 65
1, 18155, Control_c, 0, 64, 53
1, 18209, Note_on_c, 0, 69, 65
1, 18218, Note_on_c, 0, 49, 71
1, 18266, Control_c, 0, 64, 52
1, 18268, Note_off_c, 0, 49, 58
1, 18279, Note_off_c, 0, 69, 63
1, 18296, Control_c, 0, 64, 52
1, 18304, Note_on_c, 0, 68, 65
1, 18325, Control_c, 0, 64, 51
1, 18355, Control_c, 0, 64, 51
1, 18359, Note_off_c, 0, 68, 60
1, 18379, Note_on_c, 0, 69, 59
1, 18385, Control_c, 0, 64, 50
1, 18444, Control_c, 0, 64, 50
1, 18457, Note_on_c, 0, 71, 63
1, 18461, Note_off_c, 0, 69, 59
1, 18463, Note_on_c, 0, 50, 65
1, 18490, Note_off_c, 0, 50, 66
1, 18518, Control_c, 0, 64, 49
1, 18532, Control_c, 0, 64, 49
1, 18537, Note_off_c, 0, 71, 57
1, 18543, Note_on_c, 0, 68, 66
1, 18606, Control_c, 0, 64, 48
1, 18615, Note_off_c, 0, 68, 62
1, 18620, Note_on_c, 0, 69, 62
1, 18651, Control_c, 0, 64, 47
1, 18665, Control_c, 0, 64, 47
1, 18680, Control_c, 0, 64, 46
1, 18700, Note_on_c, 0, 73, 73
1, 18704, Note_on_c, 0, 52, 79
1, 18710, Control_c, 0, 64, 45
1, 18713, Note_off_c, 0, 69, 61
1, 18740, Control_c, 0, 64, 45
1, 18744, Note_off_c, 0, 52, 67
1, 18788, Note_off_c, 0, 73, 62
1, 18792, Note_on_c, 0, 68, 69
1, 18799, Control_c, 0, 64, 45
1, 18814, Control_c, 0, 64, 46
1, 18850, Note_on_c, 0, 69, 66
1, 18856, Note_off_c, 0, 68, 62
1, 18945, Note_on_c, 0, 74, 69
1, 18952, Note_off_c, 0, 69, 61
1, 18953, Note_on_c, 0, 54, 80
1, 19000, Control_c, 0, 64, 46
1, 19015, Control_c, 0, 64, 47
1, 19025, Note_off_c, 0, 54, 58
1, 19030, Control_c, 0, 64, 47
1, 19041, Note_on_c, 0, 68, 72
1, 19050, Note_off_c, 0, 74, 61
1, 19059, Control_c, 0, 64, 48
1, 19088, Control_c, 0, 64, 49
1, 19112, Note_off_c, 0, 68, 63
1, 19114, Note_on_c, 0, 69, 68
1, 19148, Control_c, 0, 64, 48
1, 19163, Control_c, 0, 64, 48
1, 19178, Control_c, 0, 64, 47
1, 19208, Control_c, 0, 64, 47
1, 19211, Note_on_c, 0, 76, 72
1, 19223, Note_on_c, 0, 49, 73
1, 19226, Note_off_c, 0, 69, 62
1, 19237, Control_c, 0, 64, 46
1, 19252, Control_c, 0, 64, 46
1, 19290, Note_off_c, 0, 76, 62
1, 19296, Control_c, 0, 64, 46
1, 19297, Note_on_c, 0, 68, 69
1, 19311, Control_c, 0, 64, 47
1, 19355, Control_c, 0, 64, 47
1, 19372, Note_on_c, 0, 69, 59
1, 19373, Note_off_c, 0, 68, 61
1, 19429, Control_c, 0, 64, 48
1, 19453, Note_on_c, 0, 47, 72
1, 19453, Note_off_c, 0, 49, 58
1, 19458, Note_on_c, 0, 78, 74
1, 19469, Note_off_c, 0, 69, 63
1, 19497, Note_off_c, 0, 47, 66
1, 19542, Note_on_c, 0, 68, 68
1, 19543, Note_off_c, 0, 78, 64
1, 19548, Control_c, 0, 64, 47
1, 19577, Control_c, 0, 64, 47
1, 19612, Note_off_c, 0, 68, 63
1, 19620, Note_on_c, 0, 69, 64
1, 19622, Control_c, 0, 64, 46
1, 19637, Control_c, 0, 64, 46
1, 19667, Control_c, 0, 64, 45
1, 19681, Control_c, 0, 64, 45
1, 19697, Control_c, 0, 64, 44
1, 19708, Note_on_c, 0, 45, 62
1, 19709, Note_on_c, 0, 79, 75
1, 19712, Control_c, 0, 64, 44
1, 19714, Note_off_c, 0, 69, 58
1, 19734, Control_c, 0, 64, 43
1, 19749, Control_c, 0, 64, 43
1, 19765, Note_off_c, 0, 45, 60
1, 19793, Note_off_c, 0, 79, 62
1, 19793, Control_c, 0, 64, 43
1, 19797, Note_on_c, 0, 76, 68
1, 19823, Control_c, 0, 64, 44
1, 19852, Control_c, 0, 64, 44
1, 19865, Note_off_c, 0, 76, 66
1, 19875, Note_on_c, 0, 73, 69
1, 19897, Control_c, 0, 64, 45
1, 19911, Control_c, 0, 64, 45
1, 19933, Note_off_c, 0, 73, 63
1, 19938, Note_on_c, 0, 49, 60
1, 19941, Control_c, 0, 64, 46
1, 19945, Note_on_c, 0, 69, 70
1, 19971, Note_off_c, 0, 49, 64
1, 19971, Control_c, 0, 64, 46
1, 20016, Control_c, 0, 64, 46
1, 20016, Note_on_c, 0, 73, 64
1, 20022, Note_off_c, 0, 69, 61
1, 20089, Note_off_c, 0, 73, 63
1, 20099, Note_on_c, 0, 76, 67
1, 20134, Control_c, 0, 64, 46
1, 20172, Note_on_c, 0, 50, 52
1, 20174, Note_off_c, 0, 76, 63
1, 20190, Note_on_c, 0, 78, 71
1, 20253, Note_off_c, 0, 50, 62
1, 20265, Note_on_c, 0, 54, 59
1, 20266, Control_c, 0, 64, 47
1, 20296, Control_c, 0, 64, 47
1, 20335, Note_on_c, 0, 57, 62
1, 20338, Note_off_c, 0, 54, 62
1, 20340, Control_c, 0, 64, 48
1, 20380, Note_off_c, 0, 78, 60
1, 20397, Note_off_c, 0, 57, 62
1, 20413, Note_on_c, 0, 62, 63
1, 20459, Control_c, 0, 64, 47
1, 20469, Note_off_c, 0, 62, 52
1, 20470, Note_on_c, 0, 57, 58
1, 20496, Control_c, 0, 64, 47
1, 20527, Control_c, 0, 64, 46
1, 20566, Note_on_c, 0, 54, 67
1, 20566, Note_off_c, 0, 57, 62
1, 20571, Control_c, 0, 64, 47
1, 20615, Control_c, 0, 64, 47
1, 20657, Note_off_c, 0, 54, 61
1, 20661, Note_on_c, 0, 50, 68
1, 20669, Note_on_c, 0, 81, 77
1, 20689, Control_c, 0, 64, 48
1, 20702, Note_off_c, 0, 50, 63
1, 20749, Note_on_c, 0, 78, 82
1, 20755, Note_off_c, 0, 81, 58
1, 20822, Note_on_c, 0, 74, 76
1, 20830, Note_off_c, 0, 78, 65
1, 20867, Control_c, 0, 64, 47
1, 20897, Note_on_c, 0, 72, 76
1, 20897, Control_c, 0, 64, 47
1, 20898, Note_off_c, 0, 74, 65
1, 20911, Note_on_c, 0, 62, 59
1, 20926, Control_c, 0, 64, 46
1, 20941, Control_c, 0, 64, 46
1, 20956, Note_off_c, 0, 62, 56
1, 20956, Control_c, 0, 64, 45
1, 20969, Note_on_c, 0, 74, 72
1, 20971, Control_c, 0, 64, 44
1, 20986, Control_c, 0, 64, 43
1, 20987, Note_off_c, 0, 72, 63
1, 21000, Control_c, 0, 64, 42
1, 21015, Control_c, 0, 64, 40
1, 21030, Control_c, 0, 64, 39
1, 21045, Control_c, 0, 64, 39
1, 21050, Note_on_c, 0, 78, 78
1, 21050, Note_off_c, 0, 74, 63
1, 21059, Control_c, 0, 64, 38
1, 21074, Control_c, 0, 64, 36
1, 21089, Control_c, 0, 64, 35
1, 21104, Control_c, 0, 64, 33
1, 21119, Control_c, 0, 64, 32
1, 21133, Control_c, 0, 64, 31
1, 21143, Note_on_c, 0, 50, 53
1, 21148, Control_c, 0, 64, 30
1, 21154, Note_on_c, 0, 81, 74
1, 21156, Note_off_c, 0, 78, 58
1, 21208, Control_c, 0, 64, 31
1, 21228, Note_off_c, 0, 50, 63
1, 21230, Control_c, 0, 64, 32
1, 21235, Note_on_c, 0, 55, 58
1, 21259, Control_c, 0, 64, 32
1, 21274, Control_c, 0, 64, 33
1, 21289, Control_c, 0, 64, 34
1, 21305, Control_c, 0, 64, 34
1, 21315, Note_off_c, 0, 55, 65
1, 21316, Note_on_c, 0, 59, 63
1, 21335, Control_c, 0, 64, 35
1, 21350, Control_c, 0, 64, 36
1, 21360, Note_off_c, 0, 81, 50
1, 21364, Control_c, 0, 64, 37
1, 21379, Control_c, 0, 64, 38
1, 21385, Note_off_c, 0, 59, 61
1, 21392, Note_on_c, 0, 79, 69
1, 21394, Control_c, 0, 64, 38
1, 21409, Control_c, 0, 64, 39
1, 21411, Note_on_c, 0, 62, 60
1, 21424, Control_c, 0, 64, 40
1, 21433, Note_off_c, 0, 79, 62
1, 21438, Control_c, 0, 64, 40
1, 21453, Control_c, 0, 64, 41
1, 21468, Control_c, 0, 64, 41
1, 21472, Note_off_c, 0, 62, 56
1, 21476, Note_on_c, 0, 59, 58
1, 21512, Control_c, 0, 64, 42
1, 21550, Note_off_c, 0, 59, 62
1, 21557, Control_c, 0, 64, 41
1, 21560, Note_on_c, 0, 55, 61
1, 21586, Control_c, 0, 64, 41
1, 21616, Control_c, 0, 64, 41
1, 21625, Note_off_c, 0, 55, 64
1, 21631, Control_c, 0, 64, 42
1, 21641, Note_on_c, 0, 50, 69
1, 21641, Note_on_c, 0, 79, 75
1, 21646, Control_c, 0, 64, 43
1, 21661, Control_c, 0, 64, 44
1, 21675, Control_c, 0, 64, 44
1, 21690, Control_c, 0, 64, 46
1, 21691, Note_off_c, 0, 50, 60
1, 21705, Control_c, 0, 64, 46
1, 21719, Note_on_c, 0, 76, 79
1, 21720, Control_c, 0, 64, 47
1, 21722, Note_off_c, 0, 79, 61
1, 21735, Control_c, 0, 64, 47
1, 21792, Control_c, 0, 64, 48
1, 21802, Note_off_c, 0, 76, 66
1, 21803, Note_on_c, 0, 73, 81
1, 21866, Note_off_c, 0, 73, 64
1, 21867, Note_on_c, 0, 69, 76
1, 21902, Note_on_c, 0, 62, 60
1, 21926, Control_c, 0, 64, 47
1, 21947, Note_on_c, 0, 73, 76
1, 21954, Note_off_c, 0, 62, 55
1, 21986, Note_off_c, 0, 69, 61
1, 21993, Control_c, 0, 64, 47
1, 22028, Note_on_c, 0, 76, 76
1, 22028, Note_off_c, 0, 73, 65
1, 22037, Control_c, 0, 64, 46
1, 22052, Control_c, 0, 64, 46
1, 22112, Control_c, 0, 64, 46
1, 22115, Note_off_c, 0, 76, 66
1, 22122, Note_on_c, 0, 50, 50
1, 22123, Note_on_c, 0, 79, 78
1, 22142, Control_c, 0, 64, 47
1, 22182, Note_off_c, 0, 50, 61
1, 22186, Control_c, 0, 64, 47
1, 22214, Note_on_c, 0, 57, 52
1, 22230, Control_c, 0, 64, 48
1, 22245, Control_c, 0, 64, 48
1, 22260, Control_c, 0, 64, 49
1, 22275, Control_c, 0, 64, 50
1, 22290, Note_off_c, 0, 57, 60
1, 22290, Note_on_c, 0, 61, 58
1, 22290, Control_c, 0, 64, 50
1, 22320, Control_c, 0, 64, 51
1, 22334, Note_off_c, 0, 61, 62
1, 22356, Note_off_c, 0, 79, 58
1, 22370, Note_on_c, 0, 78, 75
1, 22372, Note_on_c, 0, 62, 56
1, 22394, Control_c, 0, 64, 50
1, 22415, Note_off_c, 0, 78, 63
1, 22432, Note_off_c, 0, 62, 55
1, 22449, Note_on_c, 0, 57, 57
1, 22453, Control_c, 0, 64, 50
1, 22520, Note_off_c, 0, 57, 62
1, 22539, Note_on_c, 0, 54, 61
1, 22543, Control_c, 0, 64, 49
1, 22558, Control_c, 0, 64, 49
1, 22587, Control_c, 0, 64, 48
1, 22609, Note_on_c, 0, 78, 79
1, 22615, Note_on_c, 0, 50, 69
1, 22617, Note_off_c, 0, 54, 62
1, 22631, Control_c, 0, 64, 49
1, 22653, Note_off_c, 0, 50, 61
1, 22661, Control_c, 0, 64, 49
1, 22689, Note_on_c, 0, 74, 70
1, 22705, Control_c, 0, 64, 50
1, 22707, Note_off_c, 0, 78, 61
1, 22776, Note_on_c, 0, 71, 75
1, 22781, Note_off_c, 0, 74, 61
1, 22844, Note_on_c, 0, 67, 77
1, 22846, Control_c, 0, 64, 50
1, 22850, Note_off_c, 0, 71, 61
1, 22866, Note_on_c, 0, 62, 68
1, 22876, Control_c, 0, 64, 50
1, 22918, Note_off_c, 0, 62, 56
1, 22921, Note_on_c, 0, 71, 68
1, 22947, Note_off_c, 0, 67, 60
1, 22966, Control_c, 0, 64, 49
1, 22994, Note_on_c, 0, 74, 73
1, 23006, Note_off_c, 0, 71, 60
1, 23010, Control_c, 0, 64, 48
1, 23054, Control_c, 0, 64, 48
1, 23077, Note_off_c, 0, 74, 63
1, 23084, Control_c, 0, 64, 47
1, 23085, Note_on_c, 0, 78, 74
1, 23100, Note_on_c, 0, 50, 53
1, 23114, Control_c, 0, 64, 47
1, 23128, Control_c, 0, 64, 46
1, 23158, Control_c, 0, 64, 45
1, 23173, Control_c, 0, 64, 44
1, 23174, Note_off_c, 0, 50, 61
1, 23178, Note_on_c, 0, 52, 62
1, 23188, Control_c, 0, 64, 43
1, 23202, Control_c, 0, 64, 42
1, 23217, Control_c, 0, 64, 41
1, 23232, Control_c, 0, 64, 41
1, 23247, Control_c, 0, 64, 40
1, 23253, Note_off_c, 0, 52, 65
1, 23259, Note_on_c, 0, 55, 62
1, 23277, Note_off_c, 0, 78, 56
1, 23320, Note_off_c, 0, 55, 62
1, 23323, Note_on_c, 0, 76, 68
1, 23340, Note_on_c, 0, 59, 57
1, 23354, Note_off_c, 0, 76, 65
1, 23380, Control_c, 0, 64, 40
1, 23395, Note_off_c, 0, 59, 57
1, 23410, Control_c, 0, 64, 39
1, 23411, Note_on_c, 0, 55, 59
1, 23425, Control_c, 0, 64, 38
1, 23440, Control_c, 0, 64, 37
1, 23454, Control_c, 0, 64, 34
1, 23476, Control_c, 0, 64, 32
1, 23482, Note_off_c, 0, 55, 63
1, 23491, Control_c, 0, 64, 28
1, 23495, Note_on_c, 0, 52, 58
1, 23506, Control_c, 0, 64, 24
1, 23521, Control_c, 0, 64, 21
1, 23536, Control_c, 0, 64, 20
1, 23578, Note_on_c, 0, 76, 67
1, 23579, Note_off_c, 0, 52, 66
1, 23580, Control_c, 0, 64, 21
1, 23595, Control_c, 0, 64, 23
1, 23598, Note_on_c, 0, 50, 53
1, 23625, Control_c, 0, 64, 24
1, 23640, Control_c, 0, 64, 26
1, 23646, Note_off_c, 0, 50, 54
1, 23654, Control_c, 0, 64, 28
1, 23657, Note_off_c, 0, 76, 61
1, 23659, Note_on_c, 0, 73, 63
1, 23669, Control_c, 0, 64, 29
1, 23684, Control_c, 0, 64, 30
1, 23700, Control_c, 0, 64, 32
1, 23715, Control_c, 0, 64, 33
1, 23730, Control_c, 0, 64, 35
1, 23734, Note_off_c, 0, 73, 63
1, 23739, Note_on_c, 0, 69, 64
1, 23744, Control_c, 0, 64, 36
1, 23759, Control_c, 0, 64, 38
1, 23774, Control_c, 0, 64, 38
1, 23789, Control_c, 0, 64, 39
1, 23804, Control_c, 0, 64, 40
1, 23807, Note_off_c, 0, 69, 64
1, 23811, Note_on_c, 0, 67, 66
1, 23814, Note_on_c, 0, 62, 56
1, 23819, Control_c, 0, 64, 40
1, 23833, Control_c, 0, 64, 41
1, 23848, Control_c, 0, 64, 41
1, 23853, Note_off_c, 0, 62, 59
1, 23863, Control_c, 0, 64, 42
1, 23877, Control_c, 0, 64, 42
1, 23892, Note_off_c, 0, 67, 60
1, 23897, Note_on_c, 0, 69, 62
1, 23951, Control_c, 0, 64, 42
1, 23971, Note_off_c, 0, 69, 65
1, 23981, Control_c, 0, 64, 41
1, 23984, Note_on_c, 0, 73, 66
1, 24040, Control_c, 0, 64, 41
1, 24067, Note_off_c, 0, 73, 56
1, 24073, Note_on_c, 0, 50, 48
1, 24088, Note_on_c, 0, 76, 59
1, 24099, Control_c, 0, 64, 41
1, 24150, Note_off_c, 0, 50, 63
1, 24171, Note_on_c, 0, 54, 53
1, 24174, Control_c, 0, 64, 42
1, 24240, Control_c, 0, 64, 42
1, 24243, Note_off_c, 0, 54, 60
1, 24266, Note_on_c, 0, 57, 46
1, 24302, Note_off_c, 0, 57, 63
1, 24314, Note_off_c, 0, 76, 56
1, 24329, Note_on_c, 0, 74, 56
1, 24338, Note_on_c, 0, 62, 56
1, 24359, Control_c, 0, 64, 43
1, 24381, Note_off_c, 0, 62, 59
1, 24389, Control_c, 0, 64, 43
1, 24401, Note_on_c, 0, 57, 49
1, 24403, Control_c, 0, 64, 44
1, 24418, Control_c, 0, 64, 44
1, 24448, Control_c, 0, 64, 45
1, 24463, Control_c, 0, 64, 46
1, 24467, Note_off_c, 0, 57, 61
1, 24487, Note_on_c, 0, 54, 61
1, 24493, Control_c, 0, 64, 47
1, 24523, Control_c, 0, 64, 47
1, 24538, Control_c, 0, 64, 48
1, 24544, Note_off_c, 0, 74, 64
1, 24552, Control_c, 0, 64, 48
1, 24558, Note_off_c, 0, 54, 60
1, 24582, Note_on_c, 0, 57, 69
1, 24582, Control_c, 0, 64, 49
1, 24653, Note_off_c, 0, 57, 56
1, 24669, Note_on_c, 0, 54, 59
1, 24671, Control_c, 0, 64, 49
1, 24716, Note_off_c, 0, 54, 64
1, 24730, Control_c, 0, 64, 50
1, 24740, Note_on_c, 0, 50, 55
1, 24745, Control_c, 0, 64, 50
1, 24760, Control_c, 0, 64, 51
1, 24774, Control_c, 0, 64, 51
1, 24788, Note_off_c, 0, 50, 64
1, 24819, Note_on_c, 0, 74, 63
1, 24821, Note_on_c, 0, 54, 57
1, 24833, Control_c, 0, 64, 51
1, 24861, Note_off_c, 0, 74, 64
1, 24886, Note_off_c, 0, 54, 59
1, 24900, Note_on_c, 0, 50, 61
1, 24984, Note_off_c, 0, 50, 62
1, 24994, Note_on_c, 0, 48, 58
1, 25048, Control_c, 0, 64, 51
1, 25066, Note_off_c, 0, 48, 64
1, 25078, Control_c, 0, 64, 52
1, 25080, Note_on_c, 0, 47, 64
1, 25082, Note_on_c, 0, 74, 60
1, 25107, Control_c, 0, 64, 52
1, 25122, Control_c, 0, 64, 53
1, 25137, Control_c, 0, 64, 53
1, 25152, Control_c, 0, 64, 54
1, 25163, Note_off_c, 0, 47, 63
1, 25165, Note_on_c, 0, 72, 64
1, 25177, Note_on_c, 0, 50, 51
1, 25179, Note_off_c, 0, 74, 49
1, 25181, Control_c, 0, 64, 54
1, 25196, Control_c, 0, 64, 55
1, 25220, Note_off_c, 0, 72, 63
1, 25226, Control_c, 0, 64, 55
1, 25228, Note_on_c, 0, 54, 57
1, 25228, Note_off_c, 0, 50, 62
1, 25229, Note_on_c, 0, 71, 66
1, 25259, Note_off_c, 0, 71, 64
1, 25286, Note_off_c, 0, 54, 60
1, 25316, Control_c, 0, 64, 55
1, 25319, Note_on_c, 0, 55, 54
1, 25328, Note_on_c, 0, 71, 60
1, 25331, Control_c, 0, 64, 54
1, 25345, Control_c, 0, 64, 54
1, 25355, Note_off_c, 0, 55, 64
1, 25360, Control_c, 0, 64, 53
1, 25375, Control_c, 0, 64, 52
1, 25388, Note_on_c, 0, 50, 58
1, 25390, Note_on_c, 0, 69, 65
1, 25390, Control_c, 0, 64, 51
1, 25405, Control_c, 0, 64, 50
1, 25420, Note_off_c, 0, 71, 57
1, 25420, Control_c, 0, 64, 50
1, 25452, Note_off_c, 0, 50, 63
1, 25458, Note_off_c, 0, 69, 65
1, 25463, Note_on_c, 0, 67, 67
1, 25466, Note_on_c, 0, 47, 65
1, 25497, Note_off_c, 0, 67, 62
1, 25508, Control_c, 0, 64, 51
1, 25512, Note_off_c, 0, 47, 66
1, 25522, Control_c, 0, 64, 51
1, 25537, Control_c, 0, 64, 52
1, 25552, Note_on_c, 0, 67, 71
1, 25554, Note_on_c, 0, 50, 66
1, 25617, Note_off_c, 0, 50, 58
1, 25632, Note_on_c, 0, 47, 63
1, 25638, Note_off_c, 0, 67, 62
1, 25639, Note_on_c, 0, 71, 68
1, 25655, Control_c, 0, 64, 51
1, 25691, Note_off_c, 0, 47, 64
1, 25700, Control_c, 0, 64, 52
1, 25703, Note_off_c, 0, 71, 61
1, 25709, Note_on_c, 0, 74, 70
1, 25719, Note_on_c, 0, 43, 58
1, 25761, Note_off_c, 0, 43, 63
1, 25784, Note_off_c, 0, 74, 65
1, 25795, Note_on_c, 0, 47, 61
1, 25795, Note_on_c, 0, 77, 77
1, 25848, Note_off_c, 0, 47, 63
1, 25865, Note_on_c, 0, 43, 62
1, 25870, Control_c, 0, 64, 52
1, 25875, Note_off_c, 0, 77, 63
1, 25879, Note_on_c, 0, 76, 68
1, 25936, Note_on_c, 0, 74, 72
1, 25951, Note_off_c, 0, 43, 60
1, 25956, Note_off_c, 0, 76, 63
1, 25959, Note_on_c, 0, 41, 60
1, 25974, Note_off_c, 0, 74, 62
1, 25989, Control_c, 0, 64, 53
1, 26017, Note_off_c, 0, 41, 64
1, 26037, Note_on_c, 0, 40, 68
1, 26052, Note_on_c, 0, 74, 65
1, 26094, Control_c, 0, 64, 52
1, 26108, Note_off_c, 0, 40, 64
1, 26117, Note_on_c, 0, 43, 65
1, 26118, Note_off_c, 0, 74, 58
1, 26123, Control_c, 0, 64, 52
1, 26129, Note_on_c, 0, 76, 77
1, 26183, Control_c, 0, 64, 51
1, 26185, Note_off_c, 0, 43, 62
1, 26193, Note_on_c, 0, 47, 73
1, 26194, Note_off_c, 0, 76, 66
1, 26207, Note_on_c, 0, 77, 76
1, 26212, Control_c, 0, 64, 51
1, 26250, Note_off_c, 0, 47, 63
1, 26274, Note_on_c, 0, 76, 75
1, 26279, Note_on_c, 0, 48, 67
1, 26287, Note_off_c, 0, 77, 60
1, 26316, Note_off_c, 0, 48, 66
1, 26317, Control_c, 0, 64, 51
1, 26346, Control_c, 0, 64, 52
1, 26361, Note_on_c, 0, 52, 68
1, 26376, Control_c, 0, 64, 52
1, 26390, Control_c, 0, 64, 53
1, 26405, Control_c, 0, 64, 54
1, 26420, Control_c, 0, 64, 54
1, 26428, Note_on_c, 0, 55, 74
1, 26435, Control_c, 0, 64, 55
1, 26441, Note_off_c, 0, 76, 61
1, 26442, Note_off_c, 0, 52, 65
1, 26472, Control_c, 0, 64, 56
1, 26500, Note_off_c, 0, 55, 62
1, 26519, Note_on_c, 0, 60, 80
1, 26532, Control_c, 0, 64, 55
1, 26546, Control_c, 0, 64, 55
1, 26561, Control_c, 0, 64, 54
1, 26576, Control_c, 0, 64, 54
1, 26580, Note_off_c, 0, 60, 59
1, 26591, Control_c, 0, 64, 53
1, 26594, Note_on_c, 0, 55, 70
1, 26620, Control_c, 0, 64, 52
1, 26635, Control_c, 0, 64, 51
1, 26650, Control_c, 0, 64, 50
1, 26661, Note_off_c, 0, 55, 64
1, 26665, Control_c, 0, 64, 50
1, 26672, Note_on_c, 0, 52, 68
1, 26679, Control_c, 0, 64, 49
1, 26694, Control_c, 0, 64, 49
1, 26726, Note_off_c, 0, 52, 64
1, 26733, Note_on_c, 0, 76, 72
1, 26757, Note_on_c, 0, 55, 60
1, 26773, Note_off_c, 0, 76, 65
1, 26809, Note_off_c, 0, 55, 64
1, 26829, Note_on_c, 0, 52, 69
1, 26872, Control_c, 0, 64, 49
1, 26887, Control_c, 0, 64, 50
1, 26896, Note_off_c, 0, 52, 64
1, 26915, Note_on_c, 0, 50, 52
1, 26917, Control_c, 0, 64, 50
1, 26932, Control_c, 0, 64, 51
1, 26947, Control_c, 0, 64, 51
1, 26956, Note_off_c, 0, 50, 60
1, 26962, Control_c, 0, 64, 52
1, 26976, Control_c, 0, 64, 53
1, 26984, Note_on_c, 0, 49, 72
1, 26985, Note_on_c, 0, 76, 72
1, 26991, Control_c, 0, 64, 53
1, 27006, Control_c, 0, 64, 54
1, 27021, Control_c, 0, 64, 55
1, 27036, Control_c, 0, 64, 56
1, 27050, Control_c, 0, 64, 56
1, 27057, Note_off_c, 0, 49, 61
1, 27065, Control_c, 0, 64, 57
1, 27068, Note_on_c, 0, 74, 63
1, 27069, Note_on_c, 0, 52, 71
1, 27080, Control_c, 0, 64, 58
1, 27090, Note_off_c, 0, 76, 48
1, 27095, Control_c, 0, 64, 58
1, 27123, Note_off_c, 0, 74, 65
1, 27125, Control_c, 0, 64, 59
1, 27131, Note_on_c, 0, 73, 68
1, 27143, Note_on_c, 0, 55, 70
1, 27149, Note_off_c, 0, 52, 65
1, 27155, Control_c, 0, 64, 59
1, 27164, Note_off_c, 0, 73, 60
1, 27169, Control_c, 0, 64, 59
1, 27194, Note_off_c, 0, 55, 64
1, 27199, Control_c, 0, 64, 58
1, 27224, Note_on_c, 0, 73, 75
1, 27231, Note_on_c, 0, 57, 70
1, 27235, Control_c, 0, 64, 58
1, 27250, Control_c, 0, 64, 57
1, 27265, Control_c, 0, 64, 56
1, 27268, Note_off_c, 0, 57, 56
1, 27280, Control_c, 0, 64, 54
1, 27295, Control_c, 0, 64, 52
1, 27303, Note_on_c, 0, 71, 68
1, 27310, Control_c, 0, 64, 49
1, 27313, Note_on_c, 0, 52, 61
1, 27324, Note_off_c, 0, 73, 61
1, 27325, Control_c, 0, 64, 46
1, 27340, Control_c, 0, 64, 42
1, 27355, Control_c, 0, 64, 40
1, 27365, Note_off_c, 0, 52, 66
1, 27366, Note_on_c, 0, 69, 76
1, 27369, Control_c, 0, 64, 38
1, 27369, Note_off_c, 0, 71, 62
1, 27378, Note_on_c, 0, 49, 68
1, 27384, Control_c, 0, 64, 34
1, 27399, Control_c, 0, 64, 29
1, 27404, Note_off_c, 0, 69, 64
1, 27413, Control_c, 0, 64, 23
1, 27428, Control_c, 0, 64, 15
1, 27437, Note_off_c, 0, 49, 62
1, 27443, Control_c, 0, 64, 0
1, 27461, Note_on_c, 0, 52, 74
1, 27462, Note_on_c, 0, 69, 74
1, 27525, Note_off_c, 0, 52, 60
1, 27535, Note_on_c, 0, 49, 66
1, 27544, Note_on_c, 0, 73, 78
1, 27563, Note_off_c, 0, 69, 60
1, 27593, Note_off_c, 0, 49, 62
1, 27605, Note_off_c, 0, 73, 64
1, 27614, Note_on_c, 0, 45, 59
1, 27615, Note_on_c, 0, 76, 75
1, 27650, Control_c, 0, 64, 13
1, 27656, Note_off_c, 0, 45, 66
1, 27665, Control_c, 0, 64, 20
1, 27674, Note_on_c, 0, 49, 68
1, 27680, Note_off_c, 0, 76, 67
1, 27680, Control_c, 0, 64, 26
1, 27692, Note_on_c, 0, 79, 79
1, 27696, Control_c, 0, 64, 30
1, 27711, Control_c, 0, 64, 32
1, 27725, Control_c, 0, 64, 35
1, 27740, Control_c, 0, 64, 37
1, 27745, Note_off_c, 0, 49, 62
1, 27745, Note_on_c, 0, 45, 67
1, 27755, Control_c, 0, 64, 40
1, 27762, Note_on_c, 0, 78, 84
1, 27769, Note_off_c, 0, 79, 61
1, 27770, Control_c, 0, 64, 42
1, 27785, Control_c, 0, 64, 45
1, 27799, Control_c, 0, 64, 47
1, 27814, Control_c, 0, 64, 47
1, 27820, Note_off_c, 0, 45, 64
1, 27828, Note_on_c, 0, 43, 67
1, 27829, Control_c, 0, 64, 48
1, 27831, Note_on_c, 0, 76, 75
1, 27843, Control_c, 0, 64, 49
1, 27852, Note_off_c, 0, 78, 62
1, 27870, Note_off_c, 0, 76, 66
1, 27873, Control_c, 0, 64, 49
1, 27888, Control_c, 0, 64, 50
1, 27897, Note_off_c, 0, 43, 61
1, 27913, Note_on_c, 0, 42, 71
1, 27918, Control_c, 0, 64, 49
1, 27926, Note_on_c, 0, 76, 72
1, 27933, Control_c, 0, 64, 49
1, 27948, Control_c, 0, 64, 48
1, 27985, Control_c, 0, 64, 48
1, 27991, Note_off_c, 0, 42, 63
1, 27998, Note_off_c, 0, 76, 60
1, 27999, Control_c, 0, 64, 47
1, 28001, Note_on_c, 0, 45, 62
1, 28014, Control_c, 0, 64, 47
1, 28017, Note_on_c, 0, 78, 79
1, 28029, Control_c, 0, 64, 46
1, 28048, Note_off_c, 0, 45, 65
1, 28054, Note_on_c, 0, 49, 65
1, 28058, Control_c, 0, 64, 46
1, 28083, Note_on_c, 0, 79, 81
1, 28084, Note_off_c, 0, 78, 65
1, 28102, Note_off_c, 0, 49, 64
1, 28118, Control_c, 0, 64, 46
1, 28133, Control_c, 0, 64, 47
1, 28137, Note_on_c, 0, 50, 64
1, 28147, Control_c, 0, 64, 47
1, 28159, Note_on_c, 0, 78, 90
1, 28162, Control_c, 0, 64, 48
1, 28170, Note_off_c, 0, 50, 63
1, 28171, Note_off_c, 0, 79, 61
1, 28177, Control_c, 0, 64, 48
1, 28192, Control_c, 0, 64, 49
1, 28207, Control_c, 0, 64, 50
1, 28218, Note_on_c, 0, 54, 71
1, 28222, Control_c, 0, 64, 51
1, 28236, Control_c, 0, 64, 51
1, 28251, Control_c, 0, 64, 52
1, 28266, Control_c, 0, 64, 52
1, 28287, Note_on_c, 0, 57, 70
1, 28296, Control_c, 0, 64, 53
1, 28314, Note_off_c, 0, 54, 61
1, 28325, Control_c, 0, 64, 54
1, 28355, Note_off_c, 0, 78, 64
1, 28360, Note_off_c, 0, 57, 63
1, 28373, Note_on_c, 0, 62, 82
1, 28429, Control_c, 0, 64, 53
1, 28434, Note_off_c, 0, 62, 57
1, 28443, Control_c, 0, 64, 53
1, 28445, Note_on_c, 0, 57, 77
1, 28473, Control_c, 0, 64, 52
1, 28489, Control_c, 0, 64, 51
1, 28504, Control_c, 0, 64, 51
1, 28517, Note_off_c, 0, 57, 62
1, 28519, Control_c, 0, 64, 50
1, 28524, Note_on_c, 0, 54, 68
1, 28534, Control_c, 0, 64, 49
1, 28548, Control_c, 0, 64, 49
1, 28595, Note_off_c, 0, 54, 62
1, 28601, Note_on_c, 0, 81, 80
1, 28611, Note_on_c, 0, 57, 76
1, 28622, Control_c, 0, 64, 48
1, 28637, Control_c, 0, 64, 48
1, 28652, Control_c, 0, 64, 47
1, 28653, Note_off_c, 0, 81, 61
1, 28681, Control_c, 0, 64, 47
1, 28684, Note_off_c, 0, 57, 60
1, 28687, Note_on_c, 0, 54, 62
1, 28696, Control_c, 0, 64, 46
1, 28719, Control_c, 0, 64, 44
1, 28734, Control_c, 0, 64, 42
1, 28741, Note_off_c, 0, 54, 63
1, 28748, Control_c, 0, 64, 40
1, 28763, Control_c, 0, 64, 36
1, 28767, Note_on_c, 0, 50, 54
1, 28778, Control_c, 0, 64, 32
1, 28792, Control_c, 0, 64, 29
1, 28807, Control_c, 0, 64, 23
1, 28809, Note_off_c, 0, 50, 63
1, 28822, Control_c, 0, 64, 10
1, 28825, Note_on_c, 0, 54, 72
1, 28837, Control_c, 0, 64, 0
1, 28842, Note_on_c, 0, 81, 74
1, 28889, Note_off_c, 0, 54, 63
1, 28907, Note_on_c, 0, 50, 66
1, 28911, Control_c, 0, 64, 20
1, 28917, Note_on_c, 0, 79, 66
1, 28926, Control_c, 0, 64, 32
1, 28940, Control_c, 0, 64, 41
1, 28943, Note_off_c, 0, 81, 48
1, 28955, Control_c, 0, 64, 47
1, 28963, Note_off_c, 0, 50, 63
1, 28970, Control_c, 0, 64, 50
1, 28979, Note_on_c, 0, 45, 60
1, 28982, Note_off_c, 0, 79, 63
1, 28985, Control_c, 0, 64, 53
1, 28987, Note_on_c, 0, 78, 68
1, 29000, Control_c, 0, 64, 56
1, 29015, Control_c, 0, 64, 57
1, 29021, Note_off_c, 0, 78, 60
1, 29025, Note_off_c, 0, 45, 66
1, 29030, Control_c, 0, 64, 58
1, 29045, Control_c, 0, 64, 59
1, 29065, Note_on_c, 0, 50, 75
1, 29074, Control_c, 0, 64, 58
1, 29078, Note_on_c, 0, 78, 77
1, 29089, Control_c, 0, 64, 57
1, 29104, Control_c, 0, 64, 56
1, 29119, Control_c, 0, 64, 55
1, 29131, Note_off_c, 0, 50, 61
1, 29134, Control_c, 0, 64, 53
1, 29140, Note_on_c, 0, 45, 70
1, 29148, Control_c, 0, 64, 50
1, 29154, Note_on_c, 0, 76, 76
1, 29163, Control_c, 0, 64, 47
1, 29178, Control_c, 0, 64, 44
1, 29192, Control_c, 0, 64, 39
1, 29200, Note_off_c, 0, 78, 57
1, 29207, Control_c, 0, 64, 35
1, 29212, Note_off_c, 0, 45, 65
1, 29220, Note_on_c, 0, 42, 68
1, 29222, Control_c, 0, 64, 32
1, 29224, Note_on_c, 0, 74, 78
1, 29224, Note_off_c, 0, 76, 66
1, 29237, Control_c, 0, 64, 30
1, 29253, Control_c, 0, 64, 29
1, 29262, Note_off_c, 0, 74, 65
1, 29289, Note_off_c, 0, 42, 63
1, 29295, Note_on_c, 0, 38, 82
1, 29298, Control_c, 0, 64, 30
1, 29313, Control_c, 0, 64, 31
1, 29322, Note_on_c, 0, 74, 74
1, 29328, Control_c, 0, 64, 32
1, 29328, Note_off_c, 0, 38, 67
1, 29343, Control_c, 0, 64, 32
1, 29358, Control_c, 0, 64, 33
1, 29409, Note_on_c, 0, 78, 82
1, 29419, Note_off_c, 0, 74, 61
1, 29488, Note_on_c, 0, 81, 83
1, 29488, Note_off_c, 0, 78, 64
1, 29498, Control_c, 0, 64, 32
1, 29513, Control_c, 0, 64, 32
1, 29528, Control_c, 0, 64, 29
1, 29543, Control_c, 0, 64, 28
1, 29557, Control_c, 0, 64, 25
1, 29566, Note_off_c, 0, 81, 62
1, 29572, Control_c, 0, 64, 23
1, 29572, Note_on_c, 0, 84, 85
1, 29573, Note_on_c, 0, 50, 81
1, 29587, Control_c, 0, 64, 18
1, 29602, Control_c, 0, 64, 10
1, 29607, Note_off_c, 0, 50, 64
1, 29616, Control_c, 0, 64, 0
1, 29653, Note_on_c, 0, 83, 76
1, 29653, Note_off_c, 0, 84, 67
1, 29676, Control_c, 0, 64, 10
1, 29690, Control_c, 0, 64, 20
1, 29705, Control_c, 0, 64, 27
1, 29716, Note_on_c, 0, 81, 82
1, 29720, Control_c, 0, 64, 33
1, 29735, Control_c, 0, 64, 35
1, 29738, Note_off_c, 0, 83, 59
1, 29750, Control_c, 0, 64, 36
1, 29759, Note_off_c, 0, 81, 61
1, 29764, Control_c, 0, 64, 36
1, 29794, Control_c, 0, 64, 36
1, 29804, Note_on_c, 0, 43, 69
1, 29814, Note_on_c, 0, 81, 79
1, 29891, Note_on_c, 0, 83, 83
1, 29895, Note_off_c, 0, 81, 61
1, 29957, Control_c, 0, 64, 37
1, 29964, Note_off_c, 0, 83, 62
1, 29966, Note_on_c, 0, 84, 86
1, 29972, Control_c, 0, 64, 38
1, 29987, Control_c, 0, 64, 38
1, 30001, Control_c, 0, 64, 39
1, 30015, Control_c, 0, 64, 40
1, 30030, Control_c, 0, 64, 40
1, 30045, Note_on_c, 0, 83, 89
1, 30045, Control_c, 0, 64, 41
1, 30060, Control_c, 0, 64, 42
1, 30067, Note_off_c, 0, 43, 57
1, 30072, Note_off_c, 0, 84, 63
1, 30075, Control_c, 0, 64, 44
1, 30085, Note_on_c, 0, 47, 64
1, 30091, Control_c, 0, 64, 46
1, 30105, Control_c, 0, 64, 47
1, 30164, Note_on_c, 0, 50, 66
1, 30167, Note_off_c, 0, 47, 64
1, 30179, Control_c, 0, 64, 46
1, 30216, Control_c, 0, 64, 46
1, 30236, Note_off_c, 0, 50, 63
1, 30252, Note_on_c, 0, 55, 68
1, 30261, Control_c, 0, 64, 45
1, 30276, Control_c, 0, 64, 45
1, 30291, Control_c, 0, 64, 44
1, 30299, Note_off_c, 0, 55, 62
1, 30306, Control_c, 0, 64, 44
1, 30320, Control_c, 0, 64, 43
1, 30333, Note_off_c, 0, 83, 59
1, 30335, Control_c, 0, 64, 43
1, 30339, Note_on_c, 0, 81, 74
1, 30343, Note_on_c, 0, 57, 68
1, 30350, Control_c, 0, 64, 42
1, 30401, Note_off_c, 0, 81, 62
1, 30406, Note_off_c, 0, 57, 63
1, 30409, Control_c, 0, 64, 42
1, 30417, Note_on_c, 0, 59, 63
1, 30426, Note_on_c, 0, 79, 66
1, 30438, Control_c, 0, 64, 41
1, 30449, Note_off_c, 0, 59, 66
1, 30461, Note_off_c, 0, 79, 57
1, 30468, Control_c, 0, 64, 41
1, 30497, Note_on_c, 0, 77, 70
1, 30498, Control_c, 0, 64, 40
1, 30508, Note_on_c, 0, 59, 54
1, 30512, Control_c, 0, 64, 38
1, 30527, Control_c, 0, 64, 36
1, 30542, Control_c, 0, 64, 35
1, 30557, Control_c, 0, 64, 34
1, 30568, Note_on_c, 0, 76, 71
1, 30571, Control_c, 0, 64, 33
1, 30574, Note_off_c, 0, 59, 62
1, 30583, Note_on_c, 0, 60, 62
1, 30586, Control_c, 0, 64, 32
1, 30589, Note_off_c, 0, 77, 51
1, 30601, Control_c, 0, 64, 31
1, 30616, Control_c, 0, 64, 30
1, 30631, Control_c, 0, 64, 29
1, 30632, Note_off_c, 0, 76, 66
1, 30639, Note_off_c, 0, 60, 62
1, 30642, Note_on_c, 0, 74, 63
1, 30645, Control_c, 0, 64, 28
1, 30648, Note_on_c, 0, 62, 66
1, 30660, Control_c, 0, 64, 25
1, 30675, Control_c, 0, 64, 23
1, 30699, Note_off_c, 0, 74, 64
1, 30704, Note_off_c, 0, 62, 61
1, 30720, Note_on_c, 0, 72, 69
1, 30720, Control_c, 0, 64, 21
1, 30733, Note_on_c, 0, 64, 71
1, 30735, Control_c, 0, 64, 20
1, 30750, Control_c, 0, 64, 18
1, 30764, Control_c, 0, 64, 15
1, 30768, Note_off_c, 0, 64, 62
1, 30779, Control_c, 0, 64, 13
1, 30790, Note_off_c, 0, 72, 63
1, 30794, Control_c, 0, 64, 10
1, 30804, Note_on_c, 0, 76, 64
1, 30824, Control_c, 0, 64, 0
1, 30865, Note_off_c, 0, 76, 64
1, 30885, Note_on_c, 0, 79, 63
1, 30899, Control_c, 0, 64, 10
1, 30914, Control_c, 0, 64, 13
1, 30943, Control_c, 0, 64, 15
1, 30965, Control_c, 0, 64, 17
1, 30973, Note_off_c, 0, 79, 60
1, 30974, Note_on_c, 0, 60, 63
1, 30977, Note_on_c, 0, 81, 72
1, 30994, Control_c, 0, 64, 18
1, 31024, Control_c, 0, 64, 20
1, 31038, Note_off_c, 0, 60, 61
1, 31054, Note_on_c, 0, 57, 61
1, 31054, Control_c, 0, 64, 21
1, 31055, Note_off_c, 0, 81, 60
1, 31057, Note_on_c, 0, 78, 70
1, 31113, Control_c, 0, 64, 23
1, 31125, Note_off_c, 0, 78, 64
1, 31126, Note_off_c, 0, 57, 61
1, 31134, Note_on_c, 0, 74, 62
1, 31139, Note_on_c, 0, 54, 64
1, 31200, Note_off_c, 0, 54, 61
1, 31200, Note_off_c, 0, 74, 65
1, 31202, Control_c, 0, 64, 24
1, 31206, Note_on_c, 0, 71, 67
1, 31215, Note_on_c, 0, 62, 73
1, 31232, Control_c, 0, 64, 23
1, 31251, Note_off_c, 0, 62, 63
1, 31289, Note_off_c, 0, 71, 60
1, 31298, Note_on_c, 0, 74, 61
1, 31361, Note_off_c, 0, 74, 63
1, 31376, Note_on_c, 0, 78, 71
1, 31439, Control_c, 0, 64, 21
1, 31452, Note_on_c, 0, 59, 56
1, 31454, Control_c, 0, 64, 20
1, 31462, Note_on_c, 0, 79, 70
1, 31468, Control_c, 0, 64, 18
1, 31469, Note_off_c, 0, 78, 63
1, 31483, Control_c, 0, 64, 17
1, 31498, Control_c, 0, 64, 15
1, 31513, Control_c, 0, 64, 13
1, 31519, Note_off_c, 0, 59, 61
1, 31528, Control_c, 0, 64, 10
1, 31531, Note_off_c, 0, 79, 61
1, 31537, Note_on_c, 0, 76, 67
1, 31537, Note_on_c, 0, 55, 63
1, 31543, Control_c, 0, 64, 0
1, 31599, Note_off_c, 0, 55, 63
1, 31605, Note_off_c, 0, 76, 66
1, 31617, Note_on_c, 0, 52, 62
1, 31620, Note_on_c, 0, 72, 65
1, 31647, Control_c, 0, 64, 10
1, 31661, Control_c, 0, 64, 13
1, 31667, Note_off_c, 0, 52, 65
1, 31677, Note_off_c, 0, 72, 62
1, 31683, Note_on_c, 0, 60, 71
1, 31687, Note_on_c, 0, 69, 68
1, 31714, Control_c, 0, 64, 15
1, 31731, Note_off_c, 0, 60, 59
1, 31773, Control_c, 0, 64, 17
1, 31780, Note_on_c, 0, 72, 65
1, 31781, Note_off_c, 0, 69, 60
1, 31817, Control_c, 0, 64, 18
1, 31841, Note_off_c, 0, 72, 63
1, 31847, Control_c, 0, 64, 20
1, 31856, Note_on_c, 0, 76, 65
1, 31862, Control_c, 0, 64, 23
1, 31877, Control_c, 0, 64, 24
1, 31891, Control_c, 0, 64, 27
1, 31906, Control_c, 0, 64, 29
1, 31921, Control_c, 0, 64, 30
1, 31933, Note_on_c, 0, 57, 57
1, 31946, Note_on_c, 0, 78, 72
1, 31951, Note_off_c, 0, 76, 57
1, 31951, Control_c, 0, 64, 31
1, 31984, Note_off_c, 0, 57, 60
1, 31990, Note_off_c, 0, 78, 64
1, 31996, Control_c, 0, 64, 30
1, 32005, Note_on_c, 0, 54, 57
1, 32010, Control_c, 0, 64, 29
1, 32024, Note_on_c, 0, 74, 62
1, 32025, Control_c, 0, 64, 29
1, 32040, Control_c, 0, 64, 28
1, 32055, Control_c, 0, 64, 27
1, 32084, Note_off_c, 0, 54, 60
1, 32084, Control_c, 0, 64, 26
1, 32087, Note_off_c, 0, 74, 64
1, 32090, Note_on_c, 0, 50, 64
1, 32098, Note_on_c, 0, 71, 66
1, 32114, Control_c, 0, 64, 25
1, 32144, Control_c, 0, 64, 26
1, 32147, Note_off_c, 0, 50, 62
1, 32157, Note_on_c, 0, 59, 70
1, 32166, Note_off_c, 0, 71, 60
1, 32170, Note_on_c, 0, 67, 66
1, 32173, Control_c, 0, 64, 27
1, 32188, Control_c, 0, 64, 28
1, 32201, Note_off_c, 0, 59, 60
1, 32232, Control_c, 0, 64, 29
1, 32246, Note_off_c, 0, 67, 62
1, 32246, Control_c, 0, 64, 29
1, 32255, Note_on_c, 0, 71, 56
1, 32276, Control_c, 0, 64, 30
1, 32318, Note_off_c, 0, 71, 59
1, 32334, Note_on_c, 0, 74, 65
1, 32398, Note_on_c, 0, 55, 59
1, 32416, Note_on_c, 0, 76, 75
1, 32424, Control_c, 0, 64, 31
1, 32427, Note_off_c, 0, 74, 55
1, 32454, Control_c, 0, 64, 30
1, 32478, Note_off_c, 0, 55, 65
1, 32492, Note_off_c, 0, 76, 66
1, 32497, Note_on_c, 0, 52, 66
1, 32499, Note_on_c, 0, 72, 69
1, 32521, Control_c, 0, 64, 29
1, 32558, Note_off_c, 0, 72, 66
1, 32561, Note_off_c, 0, 52, 64
1, 32569, Note_on_c, 0, 69, 71
1, 32576, Note_on_c, 0, 48, 60
1, 32581, Control_c, 0, 64, 30
1, 32595, Control_c, 0, 64, 32
1, 32610, Control_c, 0, 64, 34
1, 32625, Control_c, 0, 64, 36
1, 32627, Note_off_c, 0, 48, 64
1, 32640, Control_c, 0, 64, 37
1, 32642, Note_on_c, 0, 57, 72
1, 32643, Note_off_c, 0, 69, 63
1, 32655, Note_on_c, 0, 66, 72
1, 32655, Control_c, 0, 64, 39
1, 32669, Control_c, 0, 64, 40
1, 32684, Control_c, 0, 64, 40
1, 32687, Note_off_c, 0, 66, 63
1, 32692, Note_off_c, 0, 57, 60
1, 32714, Control_c, 0, 64, 40
1, 32729, Control_c, 0, 64, 39
1, 32744, Control_c, 0, 64, 38
1, 32747, Note_on_c, 0, 69, 65
1, 32758, Control_c, 0, 64, 37
1, 32773, Control_c, 0, 64, 37
1, 32788, Control_c, 0, 64, 36
1, 32799, Note_off_c, 0, 69, 65
1, 32803, Control_c, 0, 64, 36
1, 32819, Note_on_c, 0, 72, 69
1, 32832, Control_c, 0, 64, 35
1, 32847, Control_c, 0, 64, 34
1, 32862, Control_c, 0, 64, 34
1, 32875, Note_on_c, 0, 54, 65
1, 32877, Control_c, 0, 64, 33
1, 32902, Note_off_c, 0, 72, 57
1, 32902, Note_on_c, 0, 74, 65
1, 32936, Control_c, 0, 64, 32
1, 32953, Note_off_c, 0, 54, 62
1, 32962, Note_off_c, 0, 74, 65
1, 32965, Note_on_c, 0, 71, 68
1, 32965, Control_c, 0, 64, 31
1, 32970, Note_on_c, 0, 50, 58
1, 32980, Control_c, 0, 64, 30
1, 33012, Note_off_c, 0, 50, 62
1, 33012, Note_on_c, 0, 47, 63
1, 33026, Note_off_c, 0, 71, 62
1, 33035, Note_on_c, 0, 67, 70
1, 33039, Control_c, 0, 64, 31
1, 33054, Control_c, 0, 64, 32
1, 33084, Control_c, 0, 64, 32
1, 33088, Note_off_c, 0, 47, 65
1, 33099, Note_off_c, 0, 67, 62
1, 33100, Note_on_c, 0, 64, 72
1, 33107, Note_on_c, 0, 55, 74
1, 33143, Control_c, 0, 64, 33
1, 33148, Note_off_c, 0, 55, 61
1, 33183, Note_off_c, 0, 64, 62
1, 33184, Note_on_c, 0, 67, 66
1, 33254, Control_c, 0, 64, 34
1, 33257, Note_off_c, 0, 67, 61
1, 33267, Note_on_c, 0, 71, 70
1, 33285, Control_c, 0, 64, 34
1, 33330, Control_c, 0, 64, 35
1, 33348, Note_on_c, 0, 52, 62
1, 33349, Note_on_c, 0, 72, 73
1, 33360, Note_off_c, 0, 71, 54
1, 33388, Control_c, 0, 64, 34
1, 33416, Note_off_c, 0, 52, 66
1, 33418, Note_off_c, 0, 72, 65
1, 33421, Note_on_c, 0, 69, 70
1, 33430, Note_on_c, 0, 48, 65
1, 33462, Control_c, 0, 64, 35
1, 33477, Note_off_c, 0, 48, 65
1, 33477, Control_c, 0, 64, 36
1, 33483, Note_on_c, 0, 45, 63
1, 33486, Note_off_c, 0, 69, 65
1, 33490, Note_on_c, 0, 66, 78
1, 33492, Control_c, 0, 64, 36
1, 33507, Control_c, 0, 64, 37
1, 33522, Control_c, 0, 64, 37
1, 33537, Control_c, 0, 64, 38
1, 33542, Note_off_c, 0, 45, 64
1, 33552, Control_c, 0, 64, 39
1, 33560, Note_on_c, 0, 54, 82
1, 33560, Note_off_c, 0, 66, 65
1, 33565, Note_on_c, 0, 62, 72
1, 33567, Control_c, 0, 64, 41
1, 33581, Control_c, 0, 64, 42
1, 33596, Control_c, 0, 64, 43
1, 33611, Control_c, 0, 64, 44
1, 33615, Note_off_c, 0, 54, 60
1, 33649, Note_on_c, 0, 66, 72
1, 33649, Note_off_c, 0, 62, 60
1, 33655, Control_c, 0, 64, 44
1, 33670, Control_c, 0, 64, 43
1, 33700, Control_c, 0, 64, 43
1, 33716, Note_off_c, 0, 66, 65
1, 33721, Note_on_c, 0, 69, 68
1, 33729, Control_c, 0, 64, 42
1, 33759, Control_c, 0, 64, 41
1, 33774, Control_c, 0, 64, 41
1, 33788, Control_c, 0, 64, 40
1, 33791, Note_on_c, 0, 50, 62
1, 33800, Note_off_c, 0, 69, 62
1, 33802, Note_on_c, 0, 71, 71
1, 33803, Control_c, 0, 64, 39
1, 33818, Control_c, 0, 64, 38
1, 33833, Control_c, 0, 64, 38
1, 33847, Control_c, 0, 64, 37
1, 33859, Note_off_c, 0, 50, 63
1, 33862, Control_c, 0, 64, 37
1, 33871, Note_off_c, 0, 71, 62
1, 33875, Note_on_c, 0, 67, 71
1, 33877, Note_on_c, 0, 47, 68
1, 33877, Control_c, 0, 64, 36
1, 33892, Control_c, 0, 64, 34
1, 33907, Control_c, 0, 64, 33
1, 33921, Control_c, 0, 64, 32
1, 33933, Note_off_c, 0, 47, 63
1, 33937, Note_on_c, 0, 43, 69
1, 33938, Note_off_c, 0, 67, 64
1, 33947, Note_on_c, 0, 64, 68
1, 34011, Note_off_c, 0, 64, 64
1, 34014, Note_on_c, 0, 60, 74
1, 34020, Note_off_c, 0, 43, 61
1, 34031, Note_on_c, 0, 52, 68
1, 34048, Control_c, 0, 64, 31
1, 34062, Control_c, 0, 64, 30
1, 34068, Note_off_c, 0, 52, 60
1, 34077, Control_c, 0, 64, 28
1, 34093, Control_c, 0, 64, 25
1, 34094, Note_off_c, 0, 60, 59
1, 34094, Note_on_c, 0, 64, 70
1, 34106, Note_on_c, 0, 48, 64
1, 34108, Control_c, 0, 64, 23
1, 34123, Control_c, 0, 64, 21
1, 34138, Control_c, 0, 64, 20
1, 34154, Note_off_c, 0, 48, 66
1, 34163, Note_off_c, 0, 64, 64
1, 34169, Note_on_c, 0, 45, 67
1, 34171, Note_on_c, 0, 67, 76
1, 34182, Control_c, 0, 64, 23
1, 34197, Control_c, 0, 64, 25
1, 34211, Control_c, 0, 64, 27
1, 34224, Note_off_c, 0, 45, 64
1, 34226, Control_c, 0, 64, 29
1, 34241, Control_c, 0, 64, 29
1, 34242, Note_on_c, 0, 54, 73
1, 34247, Note_off_c, 0, 67, 57
1, 34249, Note_on_c, 0, 69, 74
1, 34274, Note_off_c, 0, 54, 64
1, 34285, Control_c, 0, 64, 29
1, 34300, Control_c, 0, 64, 27
1, 34316, Note_on_c, 0, 66, 76
1, 34325, Note_off_c, 0, 69, 64
1, 34327, Note_on_c, 0, 50, 60
1, 34330, Control_c, 0, 64, 26
1, 34345, Control_c, 0, 64, 25
1, 34375, Control_c, 0, 64, 24
1, 34381, Note_off_c, 0, 50, 62
1, 34388, Note_on_c, 0, 47, 68
1, 34389, Note_off_c, 0, 66, 66
1, 34398, Note_on_c, 0, 62, 71
1, 34404, Control_c, 0, 64, 23
1, 34434, Control_c, 0, 64, 21
1, 34456, Note_off_c, 0, 47, 64
1, 34461, Note_off_c, 0, 62, 61
1, 34464, Note_on_c, 0, 59, 66
1, 34464, Control_c, 0, 64, 23
1, 34471, Note_on_c, 0, 55, 78
1, 34506, Note_off_c, 0, 55, 65
1, 34549, Note_off_c, 0, 59, 61
1, 34552, Note_on_c, 0, 62, 68
1, 34552, Control_c, 0, 64, 21
1, 34567, Control_c, 0, 64, 20
1, 34582, Control_c, 0, 64, 18
1, 34625, Note_off_c, 0, 62, 59
1, 34637, Note_on_c, 0, 66, 72
1, 34671, Control_c, 0, 64, 20
1, 34731, Note_on_c, 0, 67, 72
1, 34746, Note_on_c, 0, 52, 69
1, 34747, Note_off_c, 0, 66, 64
1, 34777, Note_off_c, 0, 52, 69
1, 34804, Note_off_c, 0, 67, 62
1, 34811, Note_on_c, 0, 64, 67
1, 34856, Control_c, 0, 64, 21
1, 34871, Control_c, 0, 64, 23
1, 34887, Note_off_c, 0, 64, 64
1, 34902, Control_c, 0, 64, 24
1, 34905, Note_on_c, 0, 60, 69
1, 34946, Control_c, 0, 64, 25
1, 34976, Control_c, 0, 64, 26
1, 34990, Control_c, 0, 64, 27
1, 34995, Note_off_c, 0, 60, 60
1, 34998, Note_on_c, 0, 48, 63
1, 34999, Note_on_c, 0, 57, 67
1, 35034, Control_c, 0, 64, 28
1, 35039, Note_off_c, 0, 48, 68
1, 35104, Note_on_c, 0, 60, 71
1, 35105, Note_off_c, 0, 57, 59
1, 35138, Control_c, 0, 64, 27
1, 35182, Control_c, 0, 64, 28
1, 35189, Note_off_c, 0, 60, 59
1, 35203, Note_on_c, 0, 64, 65
1, 35316, Note_on_c, 0, 66, 73
1, 35322, Note_on_c, 0, 50, 54
1, 35353, Note_off_c, 0, 64, 50
1, 35360, Control_c, 0, 64, 27
1, 35373, Note_off_c, 0, 50, 63
1, 35390, Control_c, 0, 64, 26
1, 35405, Control_c, 0, 64, 25
1, 35420, Control_c, 0, 64, 24
1, 35434, Control_c, 0, 64, 20
1, 35442, Note_on_c, 0, 62, 70
1, 35457, Control_c, 0, 64, 15
1, 35459, Note_off_c, 0, 66, 60
1, 35472, Control_c, 0, 64, 0
1, 35560, Note_on_c, 0, 60, 67
1, 35576, Note_off_c, 0, 62, 55
1, 35696, Note_on_c, 0, 43, 48
1, 35829, Note_on_c, 0, 59, 59
1, 35830, Note_off_c, 0, 60, 56
1, 35913, Note_on_c, 0, 62, 61
1, 36017, Note_on_c, 0, 67, 59
1, 37958, Note_off_c, 0, 59, 36
1, 37996, Note_off_c, 0, 67, 50
1, 38008, Note_off_c, 0, 62, 60
1, 38038, Note_off_c, 0, 43, 61
1, 38543, Note_on_c, 0, 67, 69
1, 38569, Note_off_c, 0, 67, 67
1, 38807, Note_on_c, 0, 69, 54
1, 38898, Note_off_c, 0, 69, 63
1, 38910, Note_on_c, 0, 67, 65
1, 39011, Note_off_c, 0, 67, 59
1, 39017, Note_on_c, 0, 66, 70
1, 39108, Note_off_c, 0, 66, 66
1, 39129, Note_on_c, 0, 67, 72
1, 39265, Note_on_c, 0, 69, 84
1, 39269, Note_off_c, 0, 67, 60
1, 39299, Note_off_c, 0, 69, 66
1, 39509, Note_on_c, 0, 71, 70
1, 39605, Note_off_c, 0, 71, 48
1, 39614, Note_on_c, 0, 69, 75
1, 39725, Note_on_c, 0, 67, 75
1, 39734, Note_off_c, 0, 69, 60
1, 39835, Note_on_c, 0, 69, 77
1, 39840, Note_off_c, 0, 67, 60
1, 39960, Note_off_c, 0, 69, 63
1, 39965, Note_on_c, 0, 71, 78
1, 39990, Note_off_c, 0, 71, 65
1, 40211, Note_on_c, 0, 69, 84
1, 40247, Note_off_c, 0, 69, 66
1, 40457, Note_on_c, 0, 67, 81
1, 40494, Note_off_c, 0, 67, 64
1, 40707, Note_on_c, 0, 62, 80
1, 40744, Note_off_c, 0, 62, 63
1, 40980, Note_on_c, 0, 72, 74
1, 41435, Note_off_c, 0, 72, 60
1, 41469, Note_on_c, 0, 71, 75
1, 41510, Note_off_c, 0, 71, 62
1, 41705, Note_on_c, 0, 69, 82
1, 41753, Note_off_c, 0, 69, 64
1, 41949, Note_on_c, 0, 67, 83
1, 41985, Note_off_c, 0, 67, 65
1, 42203, Note_on_c, 0, 66, 81
1, 42244, Note_off_c, 0, 66, 66
1, 42478, Note_on_c, 0, 76, 79
1, 42971, Note_off_c, 0, 76, 48
1, 42976, Note_on_c, 0, 74, 73
1, 43013, Note_off_c, 0, 74, 65
1, 43214, Note_on_c, 0, 76, 71
1, 43325, Note_on_c, 0, 74, 71
1, 43341, Note_off_c, 0, 76, 54
1, 43442, Note_on_c, 0, 72, 72
1, 43447, Note_off_c, 0, 74, 63
1, 43556, Note_off_c, 0, 72, 64
1, 43557, Note_on_c, 0, 71, 71
1, 43655, Note_off_c, 0, 71, 61
1, 43667, Note_on_c, 0, 69, 76
1, 43740, Note_off_c, 0, 69, 62
1, 43909, Note_on_c, 0, 72, 74
1, 44016, Note_on_c, 0, 71, 76
1, 44042, Note_off_c, 0, 72, 59
1, 44134, Note_off_c, 0, 71, 61
1, 44134, Note_on_c, 0, 69, 75
1, 44218, Note_off_c, 0, 69, 65
1, 44229, Note_on_c, 0, 67, 75
1, 44319, Note_off_c, 0, 67, 56
1, 44362, Note_on_c, 0, 62, 82
1, 44363, Note_on_c, 0, 66, 82
1, 44417, Note_off_c, 0, 66, 64
1, 44455, Note_off_c, 0, 62, 56
1, 44616, Note_on_c, 0, 64, 74
1, 44616, Note_on_c, 0, 67, 77
1, 44685, Note_off_c, 0, 67, 58
1, 44723, Note_on_c, 0, 62, 79
1, 44723, Note_off_c, 0, 64, 64
1, 44822, Note_off_c, 0, 62, 58
1, 44839, Note_on_c, 0, 61, 80
1, 44848, Note_on_c, 0, 69, 83
1, 44908, Note_off_c, 0, 69, 65
1, 44930, Note_off_c, 0, 61, 63
1, 44944, Note_on_c, 0, 62, 82
1, 45043, Note_off_c, 0, 62, 60
1, 45080, Note_on_c, 0, 67, 86
1, 45082, Note_on_c, 0, 64, 78
1, 45136, Note_off_c, 0, 64, 65
1, 45139, Note_off_c, 0, 67, 59
1, 45334, Note_on_c, 0, 69, 86
1, 45337, Note_on_c, 0, 66, 77
1, 45407, Note_off_c, 0, 66, 60
1, 45408, Note_off_c, 0, 69, 61
1, 45440, Note_on_c, 0, 64, 75
1, 45558, Note_off_c, 0, 64, 62
1, 45559, Note_on_c, 0, 62, 80
1, 45563, Note_on_c, 0, 71, 86
1, 45624, Note_off_c, 0, 71, 62
1, 45657, Note_off_c, 0, 62, 62
1, 45663, Note_on_c, 0, 64, 82
1, 45783, Note_off_c, 0, 64, 62
1, 45791, Note_on_c, 0, 66, 89
1, 45796, Note_on_c, 0, 69, 77
1, 45851, Note_off_c, 0, 66, 63
1, 46030, Note_off_c, 0, 69, 58
1, 46042, Note_on_c, 0, 64, 80
1, 46043, Note_on_c, 0, 71, 70
1, 46108, Note_off_c, 0, 64, 65
1, 46149, Note_off_c, 0, 71, 60
1, 46153, Note_on_c, 0, 73, 73
1, 46270, Note_on_c, 0, 62, 84
1, 46270, Note_on_c, 0, 74, 72
1, 46271, Note_off_c, 0, 73, 57
1, 46320, Note_off_c, 0, 62, 64
1, 46347, Note_off_c, 0, 74, 61
1, 46367, Note_on_c, 0, 71, 68
1, 46492, Note_off_c, 0, 71, 53
1, 46498, Note_on_c, 0, 57, 85
1, 46505, Note_on_c, 0, 73, 73
1, 46542, Note_off_c, 0, 57, 66
1, 46605, Note_off_c, 0, 73, 57
1, 46611, Note_on_c, 0, 71, 69
1, 46745, Note_off_c, 0, 71, 53
1, 46745, Note_on_c, 0, 73, 64
1, 46751, Note_on_c, 0, 67, 94
1, 46856, Note_off_c, 0, 73, 56
1, 46862, Note_on_c, 0, 74, 69
1, 46948, Note_off_c, 0, 74, 52
1, 46980, Note_on_c, 0, 76, 69
1, 47091, Note_on_c, 0, 73, 68
1, 47096, Note_off_c, 0, 76, 60
1, 47172, Note_off_c, 0, 67, 57
1, 47195, Note_on_c, 0, 66, 79
1, 47202, Note_on_c, 0, 74, 70
1, 47204, Note_off_c, 0, 73, 60
1, 47257, Note_off_c, 0, 66, 66
1, 47296, Note_off_c, 0, 74, 61
1, 47307, Note_on_c, 0, 73, 76
1, 47412, Note_off_c, 0, 73, 62
1, 47416, Note_on_c, 0, 74, 71
1, 47434, Note_on_c, 0, 64, 80
1, 47486, Note_off_c, 0, 64, 66
1, 47539, Note_on_c, 0, 76, 72
1, 47541, Note_off_c, 0, 74, 64
1, 47650, Note_on_c, 0, 78, 82
1, 47652, Note_on_c, 0, 62, 83
1, 47664, Note_off_c, 0, 76, 59
1, 47700, Note_off_c, 0, 62, 61
1, 47761, Note_on_c, 0, 74, 70
1, 47761, Note_off_c, 0, 78, 60
1, 47871, Note_off_c, 0, 74, 55
1, 47881, Note_on_c, 0, 76, 74
1, 47890, Note_on_c, 0, 61, 84
1, 47933, Note_off_c, 0, 61, 65
1, 47991, Note_on_c, 0, 74, 68
1, 47992, Note_off_c, 0, 76, 62
1, 48096, Note_off_c, 0, 74, 54
1, 48121, Note_on_c, 0, 76, 74
1, 48134, Note_on_c, 0, 71, 85
1, 48236, Note_off_c, 0, 76, 59
1, 48239, Note_on_c, 0, 78, 74
1, 48353, Note_on_c, 0, 79, 74
1, 48356, Note_off_c, 0, 78, 59
1, 48456, Note_off_c, 0, 79, 55
1, 48463, Note_on_c, 0, 76, 74
1, 48532, Note_off_c, 0, 76, 60
1, 48563, Note_off_c, 0, 71, 58
1, 48579, Note_on_c, 0, 78, 82
1, 48590, Note_on_c, 0, 69, 67
1, 48639, Note_off_c, 0, 69, 62
1, 48722, Note_off_c, 0, 78, 61
1, 48820, Note_on_c, 0, 79, 79
1, 48829, Note_on_c, 0, 71, 69
1, 48894, Note_off_c, 0, 71, 58
1, 48939, Note_on_c, 0, 69, 67
1, 48942, Note_on_c, 0, 78, 81
1, 48983, Note_off_c, 0, 79, 56
1, 49041, Note_off_c, 0, 69, 65
1, 49050, Note_on_c, 0, 67, 71
1, 49050, Note_on_c, 0, 76, 79
1, 49060, Note_off_c, 0, 78, 63
1, 49140, Note_off_c, 0, 76, 66
1, 49145, Note_off_c, 0, 67, 61
1, 49146, Note_on_c, 0, 74, 74
1, 49157, Note_on_c, 0, 66, 71
1, 49260, Note_off_c, 0, 66, 63
1, 49268, Note_off_c, 0, 74, 59
1, 49275, Note_on_c, 0, 79, 90
1, 49585, Note_on_c, 0, 67, 77
1, 49643, Note_off_c, 0, 67, 57
1, 49685, Note_on_c, 0, 66, 67
1, 49802, Note_off_c, 0, 66, 65
1, 49811, Note_on_c, 0, 64, 69
1, 49902, Note_off_c, 0, 64, 62
1, 49923, Note_on_c, 0, 62, 64
1, 50030, Note_off_c, 0, 62, 58
1, 50040, Note_on_c, 0, 61, 76
1, 50095, Note_off_c, 0, 61, 64
1, 50118, Note_off_c, 0, 79, 53
1, 50154, Note_on_c, 0, 78, 73
1, 50272, Note_on_c, 0, 67, 67
1, 50274, Note_on_c, 0, 76, 67
1, 50288, Note_off_c, 0, 78, 62
1, 50320, Note_off_c, 0, 67, 60
1, 50377, Note_on_c, 0, 79, 68
1, 50382, Note_off_c, 0, 76, 61
1, 50507, Note_on_c, 0, 66, 66
1, 50507, Note_on_c, 0, 74, 65
1, 50515, Note_off_c, 0, 79, 56
1, 50573, Note_off_c, 0, 66, 63
1, 50612, Note_off_c, 0, 74, 59
1, 50626, Note_on_c, 0, 79, 72
1, 50735, Note_on_c, 0, 64, 64
1, 50737, Note_on_c, 0, 73, 72
1, 50743, Note_off_c, 0, 79, 59
1, 50787, Note_off_c, 0, 64, 61
1, 50852, Note_on_c, 0, 79, 71
1, 50862, Note_off_c, 0, 73, 56
1, 50969, Note_on_c, 0, 71, 69
1, 50970, Note_on_c, 0, 62, 63
1, 50976, Note_off_c, 0, 79, 61
1, 51013, Note_off_c, 0, 62, 62
1, 51081, Note_on_c, 0, 79, 72
1, 51082, Note_off_c, 0, 71, 57
1, 51184, Note_off_c, 0, 79, 54
1, 51196, Note_on_c, 0, 69, 75
1, 51220, Note_on_c, 0, 61, 49
1, 51265, Note_off_c, 0, 61, 59
1, 51310, Note_on_c, 0, 79, 77
1, 51322, Note_off_c, 0, 69, 63
1, 51390, Note_off_c, 0, 79, 61
1, 51433, Note_on_c, 0, 78, 89
1, 51446, Note_on_c, 0, 62, 54
1, 51502, Note_off_c, 0, 78, 64
1, 51545, Note_off_c, 0, 62, 60
1, 51557, Note_on_c, 0, 64, 59
1, 51658, Note_off_c, 0, 64, 62
1, 51668, Note_on_c, 0, 74, 87
1, 51673, Note_on_c, 0, 66, 65
1, 51723, Note_off_c, 0, 74, 65
1, 51775, Note_off_c, 0, 66, 63
1, 51779, Note_on_c, 0, 62, 65
1, 51897, Note_off_c, 0, 62, 60
1, 51903, Note_on_c, 0, 76, 90
1, 51907, Note_on_c, 0, 67, 64
1, 51958, Note_off_c, 0, 76, 66
1, 51998, Note_off_c, 0, 67, 53
1, 52027, Note_on_c, 0, 62, 67
1, 52143, Note_off_c, 0, 62, 60
1, 52144, Note_on_c, 0, 78, 94
1, 52147, Note_on_c, 0, 69, 67
1, 52197, Note_off_c, 0, 78, 69
1, 52245, Note_off_c, 0, 69, 61
1, 52267, Note_on_c, 0, 62, 68
1, 52373, Note_on_c, 0, 79, 93
1, 52373, Note_off_c, 0, 62, 60
1, 52388, Note_on_c, 0, 71, 67
1, 52436, Note_off_c, 0, 79, 62
1, 52476, Note_off_c, 0, 71, 55
1, 52501, Note_on_c, 0, 62, 71
1, 52587, Note_off_c, 0, 62, 57
1, 52609, Note_on_c, 0, 81, 94
1, 52613, Note_on_c, 0, 72, 70
1, 52688, Note_off_c, 0, 72, 60
1, 52716, Note_on_c, 0, 62, 70
1, 52755, Note_off_c, 0, 62, 64
1, 52849, Note_off_c, 0, 81, 53
1, 52869, Note_on_c, 0, 71, 87
1, 52878, Note_on_c, 0, 55, 88
1, 52962, Note_off_c, 0, 55, 61
1, 53108, Note_on_c, 0, 74, 78
1, 53113, Note_on_c, 0, 57, 71
1, 53209, Note_off_c, 0, 57, 60
1, 53217, Note_on_c, 0, 55, 77
1, 53315, Note_off_c, 0, 55, 58
1, 53329, Note_on_c, 0, 54, 77
1, 53348, Note_on_c, 0, 79, 84
1, 53352, Note_off_c, 0, 74, 55
1, 53358, Note_off_c, 0, 71, 49
1, 53394, Note_off_c, 0, 54, 63
1, 53443, Note_on_c, 0, 55, 74
1, 53536, Note_off_c, 0, 55, 61
1, 53572, Note_on_c, 0, 57, 76
1, 53572, Note_off_c, 0, 79, 60
1, 53581, Note_on_c, 0, 72, 87
1, 53631, Note_off_c, 0, 57, 63
1, 53820, Note_on_c, 0, 78, 89
1, 53828, Note_on_c, 0, 59, 67
1, 53890, Note_off_c, 0, 59, 55
1, 53928, Note_on_c, 0, 57, 73
1, 54008, Note_off_c, 0, 78, 59
1, 54030, Note_off_c, 0, 57, 57
1, 54040, Note_on_c, 0, 55, 83
1, 54047, Note_on_c, 0, 76, 83
1, 54140, Note_off_c, 0, 55, 63
1, 54141, Note_on_c, 0, 57, 78
1, 54236, Note_off_c, 0, 72, 51
1, 54251, Note_off_c, 0, 76, 52
1, 54275, Note_off_c, 0, 57, 61
1, 54281, Note_on_c, 0, 74, 80
1, 54284, Note_on_c, 0, 59, 84
1, 54320, Note_off_c, 0, 74, 66
1, 54338, Note_off_c, 0, 59, 63
1, 54520, Note_on_c, 0, 57, 77
1, 54522, Note_on_c, 0, 72, 75
1, 54528, Note_on_c, 0, 66, 82
1, 54573, Note_off_c, 0, 57, 64
1, 54575, Note_off_c, 0, 66, 62
1, 54604, Note_off_c, 0, 72, 58
1, 54763, Note_on_c, 0, 55, 76
1, 54763, Note_on_c, 0, 71, 81
1, 54769, Note_on_c, 0, 67, 72
1, 54804, Note_off_c, 0, 55, 68
1, 55008, Note_off_c, 0, 71, 50
1, 55012, Note_on_c, 0, 50, 80
1, 55019, Note_on_c, 0, 69, 78
1, 55054, Note_off_c, 0, 50, 64
1, 55133, Note_off_c, 0, 67, 49
1, 55192, Control_c, 0, 64, 10
1, 55205, Note_off_c, 0, 69, 55
1, 55221, Control_c, 0, 64, 13
1, 55236, Control_c, 0, 64, 15
1, 55251, Control_c, 0, 64, 18
1, 55253, Note_on_c, 0, 66, 61
1, 55263, Note_on_c, 0, 60, 89
1, 55266, Control_c, 0, 64, 23
1, 55280, Control_c, 0, 64, 25
1, 55295, Control_c, 0, 64, 26
1, 55311, Note_off_c, 0, 66, 62
1, 55354, Control_c, 0, 64, 25
1, 55369, Control_c, 0, 64, 24
1, 55374, Note_on_c, 0, 67, 60
1, 55384, Control_c, 0, 64, 21
1, 55399, Control_c, 0, 64, 18
1, 55414, Control_c, 0, 64, 13
1, 55429, Control_c, 0, 64, 0
1, 55459, Note_off_c, 0, 67, 53
1, 55488, Note_on_c, 0, 69, 71
1, 55585, Note_off_c, 0, 69, 58
1, 55607, Note_on_c, 0, 66, 65
1, 55703, Note_off_c, 0, 60, 58
1, 55715, Note_off_c, 0, 66, 64
1, 55724, Note_on_c, 0, 67, 70
1, 55735, Note_on_c, 0, 59, 67
1, 55776, Note_off_c, 0, 59, 63
1, 55831, Note_off_c, 0, 67, 62
1, 55838, Note_on_c, 0, 66, 74
1, 55939, Note_off_c, 0, 66, 63
1, 55949, Note_on_c, 0, 67, 73
1, 55959, Note_on_c, 0, 57, 74
1, 56022, Note_off_c, 0, 57, 62
1, 56052, Note_off_c, 0, 67, 60
1, 56054, Note_on_c, 0, 69, 72
1, 56108, Note_off_c, 0, 69, 61
1, 56169, Note_on_c, 0, 74, 76
1, 56171, Note_on_c, 0, 71, 78
1, 56180, Note_on_c, 0, 55, 78
1, 56223, Note_off_c, 0, 55, 66
1, 56245, Note_off_c, 0, 71, 51
1, 56279, Note_on_c, 0, 67, 75
1, 56354, Note_off_c, 0, 67, 56
1, 56399, Note_on_c, 0, 54, 77
1, 56404, Note_on_c, 0, 69, 81
1, 56458, Note_off_c, 0, 54, 62
1, 56511, Note_off_c, 0, 69, 61
1, 56516, Note_on_c, 0, 67, 71
1, 56582, Note_off_c, 0, 67, 61
1, 56609, Note_off_c, 0, 74, 58
1, 56636, Note_on_c, 0, 64, 97
1, 56639, Note_on_c, 0, 72, 77
1, 56640, Note_on_c, 0, 69, 76
1, 56694, Note_off_c, 0, 69, 58
1, 56717, Note_off_c, 0, 72, 62
1, 56747, Note_on_c, 0, 71, 75
1, 56801, Note_off_c, 0, 71, 52
1, 56862, Note_on_c, 0, 81, 90
1, 56905, Note_on_c, 0, 72, 45
1, 56973, Note_on_c, 0, 69, 66
1, 57006, Note_off_c, 0, 69, 61
1, 57011, Note_off_c, 0, 64, 54
1, 57032, Note_off_c, 0, 72, 42
1, 57090, Note_on_c, 0, 71, 78
1, 57098, Note_on_c, 0, 62, 70
1, 57128, Note_off_c, 0, 81, 37
1, 57184, Note_off_c, 0, 62, 56
1, 57226, Note_off_c, 0, 71, 58
1, 57332, Note_on_c, 0, 79, 89
1, 57341, Note_on_c, 0, 72, 84
1, 57360, Note_on_c, 0, 64, 61
1, 57413, Note_off_c, 0, 64, 55
1, 57432, Note_off_c, 0, 72, 61
1, 57449, Note_on_c, 0, 71, 71
1, 57450, Note_on_c, 0, 62, 69
1, 57497, Note_off_c, 0, 71, 57
1, 57557, Note_off_c, 0, 62, 59
1, 57563, Note_on_c, 0, 60, 75
1, 57577, Note_on_c, 0, 69, 80
1, 57659, Note_off_c, 0, 60, 61
1, 57666, Note_off_c, 0, 69, 65
1, 57667, Note_on_c, 0, 67, 79
1, 57668, Note_on_c, 0, 59, 72
1, 57712, Note_off_c, 0, 67, 61
1, 57761, Note_off_c, 0, 79, 21
1, 57772, Note_off_c, 0, 59, 51
1, 57787, Note_on_c, 0, 57, 68
1, 57796, Note_on_c, 0, 72, 86
1, 57853, Note_off_c, 0, 57, 62
1, 58031, Note_on_c, 0, 81, 87
1, 58041, Note_on_c, 0, 60, 71
1, 58106, Note_off_c, 0, 60, 59
1, 58130, Note_on_c, 0, 79, 82
1, 58138, Note_on_c, 0, 59, 71
1, 58154, Note_off_c, 0, 81, 51
1, 58242, Note_off_c, 0, 59, 62
1, 58243, Note_on_c, 0, 78, 84
1, 58247, Note_on_c, 0, 57, 76
1, 58281, Note_off_c, 0, 79, 60
1, 58290, Note_off_c, 0, 72, 58
1, 58317, Note_off_c, 0, 57, 60
1, 58330, Note_off_c, 0, 78, 66
1, 58352, Note_on_c, 0, 76, 77
1, 58353, Note_on_c, 0, 55, 76
1, 58396, Note_off_c, 0, 76, 64
1, 58457, Note_off_c, 0, 55, 59
1, 58482, Note_on_c, 0, 74, 84
1, 58486, Note_on_c, 0, 54, 69
1, 58600, Note_on_c, 0, 71, 74
1, 58678, Note_off_c, 0, 54, 55
1, 58712, Note_off_c, 0, 71, 60
1, 58714, Note_on_c, 0, 69, 80
1, 58789, Note_off_c, 0, 69, 54
1, 58826, Note_on_c, 0, 72, 78
1, 58913, Note_off_c, 0, 72, 58
1, 58934, Note_on_c, 0, 67, 77
1, 58949, Note_on_c, 0, 52, 60
1, 58997, Note_off_c, 0, 52, 63
1, 59036, Note_off_c, 0, 67, 55
1, 59047, Note_on_c, 0, 72, 76
1, 59169, Note_on_c, 0, 66, 78
1, 59170, Note_on_c, 0, 50, 61
1, 59185, Note_off_c, 0, 72, 61
1, 59242, Note_off_c, 0, 50, 61
1, 59265, Note_off_c, 0, 66, 64
1, 59268, Note_on_c, 0, 52, 59
1, 59280, Note_on_c, 0, 72, 74
1, 59366, Note_off_c, 0, 52, 65
1, 59370, Note_off_c, 0, 72, 56
1, 59389, Note_on_c, 0, 50, 62
1, 59396, Note_on_c, 0, 64, 73
1, 59477, Note_off_c, 0, 50, 58
1, 59486, Note_off_c, 0, 64, 62
1, 59510, Note_on_c, 0, 48, 61
1, 59516, Note_on_c, 0, 72, 70
1, 59602, Note_off_c, 0, 48, 65
1, 59614, Note_off_c, 0, 72, 49
1, 59620, Note_on_c, 0, 62, 71
1, 59626, Note_on_c, 0, 47, 66
1, 59709, Note_off_c, 0, 62, 58
1, 59709, Note_off_c, 0, 47, 64
1, 59736, Note_on_c, 0, 72, 72
1, 59736, Note_on_c, 0, 45, 60
1, 59812, Note_off_c, 0, 74, 56
1, 59827, Note_off_c, 0, 45, 61
1, 59836, Note_off_c, 0, 72, 54
1, 59856, Note_on_c, 0, 43, 55
1, 59865, Note_on_c, 0, 71, 74
1, 59921, Note_off_c, 0, 71, 59
1, 59958, Note_off_c, 0, 43, 59
1, 59964, Note_on_c, 0, 45, 54
1, 60084, Note_off_c, 0, 45, 64
1, 60094, Note_on_c, 0, 74, 53
1, 60097, Note_on_c, 0, 47, 60
1, 60100, Note_on_c, 0, 65, 62
1, 60118, Note_on_c, 0, 72, 46
1, 60139, Note_off_c, 0, 65, 63
1, 60142, Note_off_c, 0, 72, 37
1, 60154, Note_off_c, 0, 74, 65
1, 60171, Note_off_c, 0, 47, 61
1, 60199, Note_on_c, 0, 43, 59
1, 60323, Note_off_c, 0, 43, 60
1, 60335, Note_on_c, 0, 48, 61
1, 60340, Note_on_c, 0, 72, 72
1, 60345, Note_on_c, 0, 64, 60
1, 60383, Note_off_c, 0, 64, 62
1, 60395, Note_off_c, 0, 72, 59
1, 60434, Note_off_c, 0, 48, 58
1, 60442, Note_on_c, 0, 43, 56
1, 60559, Note_off_c, 0, 43, 60
1, 60574, Note_on_c, 0, 50, 56
1, 60580, Note_on_c, 0, 71, 69
1, 60594, Note_on_c, 0, 62, 54
1, 60624, Note_off_c, 0, 62, 61
1, 60638, Note_off_c, 0, 71, 58
1, 60646, Note_off_c, 0, 50, 58
1, 60680, Note_on_c, 0, 43, 58
1, 60785, Note_off_c, 0, 43, 59
1, 60793, Note_on_c, 0, 52, 64
1, 60806, Note_on_c, 0, 69, 66
1, 60824, Note_on_c, 0, 60, 45
1, 60851, Note_off_c, 0, 60, 58
1, 60857, Note_off_c, 0, 69, 61
1, 60880, Note_off_c, 0, 52, 61
1, 60901, Note_on_c, 0, 43, 55
1, 61018, Note_off_c, 0, 43, 61
1, 61036, Note_on_c, 0, 67, 74
1, 61037, Note_on_c, 0, 53, 62
1, 61054, Note_on_c, 0, 59, 49
1, 61078, Note_off_c, 0, 59, 56
1, 61093, Note_off_c, 0, 67, 61
1, 61129, Note_off_c, 0, 53, 63
1, 61138, Note_on_c, 0, 43, 63
1, 61230, Note_off_c, 0, 43, 56
1, 61242, Control_c, 0, 64, 10
1, 61256, Note_on_c, 0, 72, 81
1, 61257, Control_c, 0, 64, 15
1, 61262, Note_on_c, 0, 52, 61
1, 61271, Control_c, 0, 64, 18
1, 61286, Control_c, 0, 64, 23
1, 61301, Control_c, 0, 64, 26
1, 61309, Note_off_c, 0, 72, 61
1, 61316, Control_c, 0, 64, 27
1, 61331, Control_c, 0, 64, 28
1, 61346, Control_c, 0, 64, 29
1, 61356, Note_on_c, 0, 74, 78
1, 61360, Note_off_c, 0, 52, 65
1, 61374, Note_on_c, 0, 50, 62
1, 61390, Control_c, 0, 64, 27
1, 61420, Control_c, 0, 64, 26
1, 61421, Note_off_c, 0, 74, 63
1, 61435, Control_c, 0, 64, 24
1, 61449, Control_c, 0, 64, 23
1, 61456, Note_off_c, 0, 50, 61
1, 61463, Control_c, 0, 64, 21
1, 61472, Note_on_c, 0, 76, 84
1, 61478, Note_on_c, 0, 48, 56
1, 61478, Control_c, 0, 64, 20
1, 61547, Note_off_c, 0, 48, 65
1, 61552, Control_c, 0, 64, 21
1, 61581, Control_c, 0, 64, 23
1, 61585, Note_on_c, 0, 52, 60
1, 61641, Control_c, 0, 64, 21
1, 61663, Control_c, 0, 64, 20
1, 61678, Control_c, 0, 64, 17
1, 61693, Note_off_c, 0, 52, 61
1, 61693, Control_c, 0, 64, 13
1, 61708, Control_c, 0, 64, 0
1, 61715, Note_on_c, 0, 67, 70
1, 61717, Note_on_c, 0, 47, 60
1, 61770, Note_off_c, 0, 67, 61
1, 61819, Note_on_c, 0, 52, 58
1, 61823, Note_off_c, 0, 47, 56
1, 61925, Note_off_c, 0, 76, 53
1, 61934, Note_off_c, 0, 52, 64
1, 61951, Note_on_c, 0, 66, 73
1, 61952, Note_on_c, 0, 45, 60
1, 62049, Note_off_c, 0, 45, 61
1, 62060, Note_on_c, 0, 52, 64
1, 62061, Note_on_c, 0, 74, 69
1, 62164, Note_off_c, 0, 74, 61
1, 62176, Note_off_c, 0, 52, 62
1, 62177, Note_on_c, 0, 72, 73
1, 62186, Note_on_c, 0, 43, 59
1, 62263, Note_off_c, 0, 43, 61
1, 62291, Note_on_c, 0, 71, 80
1, 62296, Note_on_c, 0, 52, 60
1, 62310, Note_off_c, 0, 66, 57
1, 62329, Note_off_c, 0, 72, 59
1, 62398, Note_off_c, 0, 52, 64
1, 62413, Note_on_c, 0, 69, 81
1, 62419, Note_off_c, 0, 71, 56
1, 62421, Note_on_c, 0, 42, 60
1, 62499, Note_off_c, 0, 42, 62
1, 62526, Note_off_c, 0, 69, 61
1, 62529, Note_on_c, 0, 52, 58
1, 62530, Note_on_c, 0, 72, 83
1, 62595, Note_off_c, 0, 72, 64
1, 62604, Note_off_c, 0, 52, 64
1, 62620, Control_c, 0, 64, 10
1, 62634, Note_on_c, 0, 50, 56
1, 62635, Control_c, 0, 64, 15
1, 62640, Note_on_c, 0, 71, 89
1, 62650, Control_c, 0, 64, 17
1, 62664, Control_c, 0, 64, 18
1, 62679, Control_c, 0, 64, 20
1, 62711, Note_off_c, 0, 71, 56
1, 62734, Note_off_c, 0, 50, 63
1, 62744, Note_on_c, 0, 48, 69
1, 62749, Note_on_c, 0, 72, 87
1, 62812, Control_c, 0, 64, 18
1, 62827, Control_c, 0, 64, 17
1, 62830, Note_off_c, 0, 72, 58
1, 62840, Note_off_c, 0, 48, 59
1, 62860, Note_on_c, 0, 47, 62
1, 62866, Note_on_c, 0, 74, 88
1, 62887, Control_c, 0, 64, 15
1, 62935, Note_off_c, 0, 47, 64
1, 62968, Note_on_c, 0, 50, 63
1, 63021, Control_c, 0, 64, 10
1, 63036, Control_c, 0, 64, 0
1, 63084, Note_off_c, 0, 50, 61
1, 63099, Note_on_c, 0, 45, 62
1, 63101, Note_on_c, 0, 66, 80
1, 63185, Note_off_c, 0, 66, 63
1, 63201, Note_off_c, 0, 45, 61
1, 63220, Note_on_c, 0, 50, 57
1, 63295, Note_off_c, 0, 74, 52
1, 63325, Note_off_c, 0, 50, 62
1, 63337, Note_on_c, 0, 43, 63
1, 63341, Note_on_c, 0, 64, 71
1, 63409, Note_off_c, 0, 43, 61
1, 63449, Note_on_c, 0, 50, 64
1, 63458, Note_on_c, 0, 72, 75
1, 63557, Note_off_c, 0, 50, 59
1, 63571, Note_on_c, 0, 71, 74
1, 63573, Note_off_c, 0, 72, 58
1, 63578, Note_on_c, 0, 42, 58
1, 63670, Note_off_c, 0, 42, 59
1, 63687, Note_on_c, 0, 69, 81
1, 63691, Note_on_c, 0, 50, 56
1, 63710, Note_off_c, 0, 71, 55
1, 63778, Note_off_c, 0, 50, 63
1, 63791, Note_on_c, 0, 40, 63
1, 63801, Note_on_c, 0, 67, 81
1, 63809, Note_off_c, 0, 69, 61
1, 63842, Note_off_c, 0, 64, 58
1, 63861, Note_off_c, 0, 40, 64
1, 63890, Note_on_c, 0, 50, 64
1, 63915, Note_on_c, 0, 71, 87
1, 63924, Note_off_c, 0, 67, 58
1, 63985, Note_off_c, 0, 50, 62
1, 63994, Note_off_c, 0, 71, 60
1, 64007, Note_on_c, 0, 48, 64
1, 64027, Note_on_c, 0, 69, 90
1, 64029, Control_c, 0, 64, 10
1, 64044, Control_c, 0, 64, 15
1, 64058, Control_c, 0, 64, 17
1, 64073, Control_c, 0, 64, 21
1, 64088, Control_c, 0, 64, 26
1, 64098, Note_off_c, 0, 69, 63
1, 64103, Control_c, 0, 64, 28
1, 64105, Note_off_c, 0, 48, 64
1, 64117, Note_on_c, 0, 47, 68
1, 64118, Control_c, 0, 64, 29
1, 64133, Note_on_c, 0, 71, 89
1, 64178, Control_c, 0, 64, 29
1, 64223, Note_off_c, 0, 71, 53
1, 64225, Note_off_c, 0, 47, 63
1, 64237, Note_on_c, 0, 45, 62
1, 64257, Note_on_c, 0, 72, 90
1, 64296, Control_c, 0, 64, 29
1, 64312, Note_off_c, 0, 45, 63
1, 64340, Control_c, 0, 64, 28
1, 64346, Note_on_c, 0, 48, 66
1, 64370, Control_c, 0, 64, 27
1, 64384, Control_c, 0, 64, 25
1, 64399, Control_c, 0, 64, 23
1, 64414, Control_c, 0, 64, 21
1, 64445, Control_c, 0, 64, 20
1, 64458, Note_off_c, 0, 48, 63
1, 64459, Control_c, 0, 64, 18
1, 64480, Note_on_c, 0, 43, 61
1, 64486, Note_on_c, 0, 64, 73
1, 64489, Control_c, 0, 64, 17
1, 64504, Control_c, 0, 64, 13
1, 64519, Control_c, 0, 64, 0
1, 64556, Note_off_c, 0, 43, 61
1, 64559, Note_off_c, 0, 64, 62
1, 64585, Note_on_c, 0, 48, 64
1, 64714, Note_off_c, 0, 72, 54
1, 64716, Note_off_c, 0, 48, 62
1, 64725, Note_on_c, 0, 62, 72
1, 64733, Note_on_c, 0, 42, 60
1, 64825, Note_off_c, 0, 42, 60
1, 64833, Note_on_c, 0, 48, 64
1, 64851, Note_on_c, 0, 71, 64
1, 64939, Note_off_c, 0, 48, 62
1, 64956, Note_on_c, 0, 40, 66
1, 64957, Note_on_c, 0, 69, 71
1, 64971, Note_off_c, 0, 71, 54
1, 65036, Note_off_c, 0, 40, 62
1, 65063, Note_on_c, 0, 48, 66
1, 65069, Note_on_c, 0, 67, 75
1, 65078, Note_off_c, 0, 69, 62
1, 65172, Note_off_c, 0, 48, 61
1, 65182, Note_on_c, 0, 38, 60
1, 65183, Note_on_c, 0, 66, 76
1, 65184, Note_off_c, 0, 67, 56
1, 65235, Note_off_c, 0, 62, 52
1, 65263, Note_off_c, 0, 38, 62
1, 65286, Note_on_c, 0, 48, 70
1, 65290, Note_on_c, 0, 69, 79
1, 65302, Note_off_c, 0, 66, 59
1, 65332, Note_off_c, 0, 48, 63
1, 65347, Note_off_c, 0, 69, 63
1, 65420, Note_on_c, 0, 67, 87
1, 65425, Note_on_c, 0, 62, 82
1, 65439, Note_on_c, 0, 47, 74
1, 65504, Note_off_c, 0, 67, 58
1, 65536, Note_off_c, 0, 47, 54
1, 65538, Note_on_c, 0, 69, 73
1, 65550, Note_off_c, 0, 62, 61
1, 65588, Note_off_c, 0, 69, 63
1, 65658, Note_on_c, 0, 71, 93
1, 65671, Note_on_c, 0, 60, 78
1, 65674, Note_on_c, 0, 45, 67
1, 65716, Note_off_c, 0, 60, 48
1, 65736, Note_off_c, 0, 45, 61
1, 65785, Note_on_c, 0, 62, 79
1, 65877, Note_off_c, 0, 62, 55
1, 65900, Note_on_c, 0, 64, 80
1, 65901, Note_on_c, 0, 43, 75
1, 65960, Note_off_c, 0, 43, 63
1, 65963, Note_off_c, 0, 71, 42
1, 66006, Note_on_c, 0, 62, 83
1, 66019, Note_off_c, 0, 64, 56
1, 66129, Note_off_c, 0, 62, 60
1, 66136, Note_on_c, 0, 60, 83
1, 66137, Note_on_c, 0, 45, 79
1, 66213, Note_off_c, 0, 45, 65
1, 66232, Note_off_c, 0, 60, 58
1, 66375, Note_on_c, 0, 64, 78
1, 66386, Note_on_c, 0, 59, 61
1, 66389, Note_on_c, 0, 43, 79
1, 66419, Note_off_c, 0, 59, 63
1, 66458, Note_off_c, 0, 43, 60
1, 66460, Note_off_c, 0, 64, 63
1, 66503, Note_on_c, 0, 60, 81
1, 66571, Note_off_c, 0, 60, 50
1, 66616, Note_on_c, 0, 42, 68
1, 66622, Note_on_c, 0, 62, 78
1, 66623, Note_on_c, 0, 69, 75
1, 66669, Note_off_c, 0, 42, 61
1, 66670, Note_off_c, 0, 62, 59
1, 66730, Note_on_c, 0, 60, 80
1, 66792, Note_off_c, 0, 60, 58
1, 66852, Note_on_c, 0, 43, 60
1, 66854, Note_on_c, 0, 59, 76
1, 66908, Note_off_c, 0, 69, 61
1, 66914, Note_off_c, 0, 43, 53
1, 66933, Note_off_c, 0, 59, 57
1, 66970, Note_on_c, 0, 55, 52
1, 66986, Note_on_c, 0, 67, 69
1, 67045, Note_off_c, 0, 67, 62
1, 67062, Note_off_c, 0, 55, 63
1, 67104, Note_on_c, 0, 53, 59
1, 67109, Note_on_c, 0, 69, 81
1, 67111, Note_on_c, 0, 60, 80
1, 67170, Note_off_c, 0, 60, 58
1, 67188, Note_off_c, 0, 69, 62
1, 67211, Note_off_c, 0, 53, 65
1, 67220, Note_on_c, 0, 52, 67
1, 67320, Note_off_c, 0, 52, 60
1, 67343, Note_on_c, 0, 50, 66
1, 67345, Note_on_c, 0, 71, 85
1, 67348, Note_on_c, 0, 62, 81
1, 67383, Note_off_c, 0, 62, 63
1, 67406, Note_off_c, 0, 71, 60
1, 67446, Note_off_c, 0, 50, 63
1, 67454, Control_c, 0, 64, 13
1, 67456, Note_on_c, 0, 53, 74
1, 67469, Control_c, 0, 64, 18
1, 67483, Control_c, 0, 64, 21
1, 67498, Control_c, 0, 64, 24
1, 67513, Control_c, 0, 64, 25
1, 67558, Control_c, 0, 64, 26
1, 67566, Note_on_c, 0, 67, 74
1, 67569, Note_on_c, 0, 72, 75
1, 67573, Note_off_c, 0, 53, 66
1, 67576, Note_on_c, 0, 52, 76
1, 67633, Control_c, 0, 64, 25
1, 67655, Control_c, 0, 64, 24
1, 67656, Note_off_c, 0, 72, 51
1, 67687, Note_on_c, 0, 74, 67
1, 67693, Note_off_c, 0, 67, 0
1, 67693, Note_on_c, 0, 67, 6
1, 67693, Note_off_c, 0, 52, 64
1, 67697, Note_on_c, 0, 53, 75
1, 67729, Control_c, 0, 64, 23
1, 67788, Control_c, 0, 64, 21
1, 67803, Control_c, 0, 64, 20
1, 67810, Note_on_c, 0, 72, 77
1, 67811, Note_on_c, 0, 57, 93
1, 67814, Note_off_c, 0, 53, 65
1, 67818, Control_c, 0, 64, 18
1, 67820, Note_on_c, 0, 52, 81
1, 67822, Note_off_c, 0, 74, 46
1, 67832, Control_c, 0, 64, 15
1, 67847, Control_c, 0, 64, 0
1, 67891, Note_off_c, 0, 67, 39
1, 67919, Note_off_c, 0, 72, 61
1, 67925, Note_off_c, 0, 52, 63
1, 67932, Note_on_c, 0, 71, 57
1, 67933, Note_on_c, 0, 50, 66
1, 68030, Note_off_c, 0, 50, 62
1, 68036, Note_off_c, 0, 71, 61
1, 68046, Note_on_c, 0, 69, 70
1, 68048, Note_on_c, 0, 48, 68
1, 68072, Note_off_c, 0, 57, 56
1, 68113, Note_off_c, 0, 69, 64
1, 68131, Note_on_c, 0, 52, 75
1, 68133, Note_off_c, 0, 48, 65
1, 68145, Note_on_c, 0, 67, 64
1, 68217, Note_off_c, 0, 67, 53
1, 68232, Note_off_c, 0, 52, 65
1, 68249, Note_on_c, 0, 66, 72
1, 68263, Note_on_c, 0, 50, 69
1, 68266, Note_on_c, 0, 59, 64
1, 68269, Note_on_c, 0, 48, 62
1, 68306, Note_off_c, 0, 48, 53
1, 68318, Note_off_c, 0, 66, 65
1, 68330, Note_on_c, 0, 67, 75
1, 68353, Note_on_c, 0, 52, 79
1, 68359, Note_off_c, 0, 59, 59
1, 68360, Note_off_c, 0, 50, 64
1, 68394, Note_off_c, 0, 67, 62
1, 68408, Note_on_c, 0, 66, 65
1, 68468, Note_off_c, 0, 66, 65
1, 68473, Note_on_c, 0, 67, 84
1, 68480, Note_on_c, 0, 60, 82
1, 68490, Note_on_c, 0, 50, 79
1, 68490, Note_off_c, 0, 52, 65
1, 68521, Note_off_c, 0, 60, 60
1, 68584, Note_on_c, 0, 64, 71
1, 68585, Note_off_c, 0, 67, 62
1, 68592, Note_off_c, 0, 50, 61
1, 68607, Note_on_c, 0, 48, 65
1, 68651, Note_on_c, 0, 66, 63
1, 68682, Note_off_c, 0, 64, 61
1, 68701, Note_off_c, 0, 48, 60
1, 68718, Note_on_c, 0, 62, 92
1, 68719, Note_off_c, 0, 66, 65
1, 68723, Note_on_c, 0, 67, 85
1, 68726, Note_on_c, 0, 47, 72
1, 68830, Note_off_c, 0, 47, 63
1, 68832, Note_on_c, 0, 50, 74
1, 68849, Note_off_c, 0, 62, 43
1, 68889, Note_off_c, 0, 67, 55
1, 68946, Note_off_c, 0, 50, 64
1, 68947, Note_on_c, 0, 48, 81
1, 68950, Note_on_c, 0, 64, 83
1, 69010, Note_off_c, 0, 64, 60
1, 69065, Note_on_c, 0, 71, 75
1, 69066, Note_off_c, 0, 48, 64
1, 69072, Note_on_c, 0, 50, 71
1, 69130, Control_c, 0, 64, 10
1, 69134, Note_off_c, 0, 71, 59
1, 69191, Note_on_c, 0, 69, 85
1, 69195, Note_on_c, 0, 48, 77
1, 69195, Note_off_c, 0, 50, 62
1, 69208, Note_on_c, 0, 54, 85
1, 69242, Control_c, 0, 64, 0
1, 69282, Note_off_c, 0, 69, 52
1, 69311, Note_off_c, 0, 48, 64
1, 69316, Note_on_c, 0, 47, 64
1, 69325, Note_on_c, 0, 67, 74
1, 69413, Note_off_c, 0, 47, 64
1, 69427, Note_on_c, 0, 45, 63
1, 69427, Note_off_c, 0, 67, 61
1, 69435, Note_on_c, 0, 66, 72
1, 69450, Note_off_c, 0, 54, 58
1, 69507, Note_off_c, 0, 66, 65
1, 69527, Note_on_c, 0, 48, 66
1, 69527, Note_off_c, 0, 45, 63
1, 69545, Note_on_c, 0, 64, 60
1, 69585, Note_off_c, 0, 64, 61
1, 69642, Note_off_c, 0, 48, 65
1, 69653, Note_on_c, 0, 47, 72
1, 69655, Note_on_c, 0, 52, 67
1, 69660, Note_on_c, 0, 62, 71
1, 69723, Note_off_c, 0, 52, 56
1, 69753, Note_off_c, 0, 62, 60
1, 69758, Note_off_c, 0, 47, 62
1, 69762, Note_on_c, 0, 48, 75
1, 69883, Note_off_c, 0, 48, 65
1, 69886, Note_on_c, 0, 55, 73
1, 69889, Note_on_c, 0, 47, 75
1, 69996, Note_off_c, 0, 47, 63
1, 70000, Note_off_c, 0, 55, 57
1, 70006, Note_on_c, 0, 57, 75
1, 70016, Note_on_c, 0, 45, 65
1, 70104, Note_off_c, 0, 45, 64
1, 70114, Note_off_c, 0, 57, 49
1, 70121, Note_on_c, 0, 43, 66
1, 70125, Note_on_c, 0, 59, 78
1, 70220, Note_off_c, 0, 59, 58
1, 70235, Note_on_c, 0, 61, 82
1, 70237, Note_on_c, 0, 45, 68
1, 70239, Note_off_c, 0, 43, 55
1, 70345, Note_off_c, 0, 45, 64
1, 70346, Note_on_c, 0, 47, 76
1, 70347, Note_on_c, 0, 62, 82
1, 70366, Note_off_c, 0, 61, 61
1, 70418, Note_off_c, 0, 62, 64
1, 70441, Note_off_c, 0, 47, 63
1, 70444, Note_on_c, 0, 49, 78
1, 70558, Note_off_c, 0, 49, 61
1, 70565, Note_on_c, 0, 59, 74
1, 70566, Note_on_c, 0, 50, 67
1, 70650, Note_off_c, 0, 50, 56
1, 70679, Note_on_c, 0, 61, 76
1, 70684, Note_on_c, 0, 52, 68
1, 70684, Note_off_c, 0, 59, 59
1, 70772, Note_off_c, 0, 61, 61
1, 70776, Note_off_c, 0, 52, 65
1, 70789, Note_on_c, 0, 62, 79
1, 70790, Note_on_c, 0, 54, 73
1, 70867, Note_off_c, 0, 62, 61
1, 70896, Note_on_c, 0, 64, 74
1, 70897, Note_off_c, 0, 54, 61
1, 70900, Note_on_c, 0, 55, 64
1, 70973, Note_off_c, 0, 55, 57
1, 71018, Note_on_c, 0, 54, 76
1, 71025, Note_on_c, 0, 69, 73
1, 71027, Note_off_c, 0, 64, 57
1, 71035, Note_on_c, 0, 66, 73
1, 71052, Note_off_c, 0, 54, 63
1, 71134, Note_off_c, 0, 66, 58
1, 71143, Note_off_c, 0, 69, 58
1, 71250, Note_on_c, 0, 64, 60
1, 71251, Note_on_c, 0, 67, 68
1, 71256, Note_on_c, 0, 59, 68
1, 71302, Note_off_c, 0, 59, 58
1, 71303, Note_off_c, 0, 64, 56
1, 71317, Note_off_c, 0, 67, 60
1, 71362, Note_on_c, 0, 69, 73
1, 71447, Note_off_c, 0, 69, 54
1, 71493, Note_on_c, 0, 47, 65
1, 71500, Note_on_c, 0, 71, 73
1, 71509, Note_on_c, 0, 63, 66
1, 71543, Note_off_c, 0, 47, 62
1, 71545, Note_off_c, 0, 63, 60
1, 71588, Note_off_c, 0, 71, 58
1, 71602, Note_on_c, 0, 69, 72
1, 71690, Note_off_c, 0, 69, 61
1, 71734, Note_on_c, 0, 67, 78
1, 71738, Note_on_c, 0, 52, 65
1, 71746, Note_on_c, 0, 64, 60
1, 71764, Note_off_c, 0, 52, 69
1, 71782, Note_off_c, 0, 64, 61
1, 71794, Note_off_c, 0, 67, 61
1, 71982, Note_on_c, 0, 62, 60
1, 71982, Note_on_c, 0, 66, 69
1, 71988, Note_on_c, 0, 57, 63
1, 72032, Note_off_c, 0, 57, 55
1, 72035, Note_off_c, 0, 62, 51
1, 72059, Note_off_c, 0, 66, 60
1, 72095, Note_on_c, 0, 67, 62
1, 72178, Note_off_c, 0, 67, 51
1, 72214, Note_on_c, 0, 45, 56
1, 72215, Note_on_c, 0, 69, 70
1, 72229, Note_on_c, 0, 61, 65
1, 72257, Note_off_c, 0, 45, 62
1, 72292, Note_off_c, 0, 61, 52
1, 72301, Note_off_c, 0, 69, 59
1, 72329, Note_on_c, 0, 67, 71
1, 72419, Note_off_c, 0, 67, 56
1, 72451, Note_on_c, 0, 66, 85
1, 72459, Note_on_c, 0, 50, 62
1, 72461, Note_on_c, 0, 62, 59
1, 72489, Note_off_c, 0, 50, 66
1, 72489, Note_off_c, 0, 62, 63
1, 72505, Note_off_c, 0, 66, 68
1, 72518, Control_c, 0, 64, 18
1, 72533, Control_c, 0, 64, 24
1, 72548, Control_c, 0, 64, 28
1, 72563, Control_c, 0, 64, 30
1, 72578, Control_c, 0, 64, 32
1, 72593, Control_c, 0, 64, 32
1, 72666, Control_c, 0, 64, 32
1, 72694, Note_on_c, 0, 67, 86
1, 72709, Note_on_c, 0, 52, 48
1, 72711, Control_c, 0, 64, 31
1, 72712, Note_on_c, 0, 61, 63
1, 72740, Control_c, 0, 64, 30
1, 72745, Note_off_c, 0, 67, 64
1, 72755, Control_c, 0, 64, 29
1, 72763, Note_off_c, 0, 52, 64
1, 72785, Control_c, 0, 64, 29
1, 72807, Note_off_c, 0, 61, 62
1, 72816, Note_on_c, 0, 59, 60
1, 72873, Control_c, 0, 64, 28
1, 72903, Note_off_c, 0, 59, 57
1, 72911, Control_c, 0, 64, 27
1, 72941, Note_on_c, 0, 69, 94
1, 72941, Control_c, 0, 64, 26
1, 72950, Note_on_c, 0, 54, 66
1, 72955, Control_c, 0, 64, 25
1, 72968, Note_on_c, 0, 57, 59
1, 72983, Note_off_c, 0, 69, 64
1, 73029, Control_c, 0, 64, 26
1, 73033, Note_off_c, 0, 57, 55
1, 73059, Control_c, 0, 64, 27
1, 73069, Note_on_c, 0, 61, 57
1, 73143, Note_off_c, 0, 61, 54
1, 73171, Note_on_c, 0, 74, 87
1, 73191, Note_on_c, 0, 59, 66
1, 73207, Control_c, 0, 64, 28
1, 73218, Note_off_c, 0, 74, 68
1, 73222, Control_c, 0, 64, 29
1, 73237, Control_c, 0, 64, 30
1, 73252, Control_c, 0, 64, 32
1, 73265, Note_on_c, 0, 61, 70
1, 73267, Control_c, 0, 64, 34
1, 73272, Note_off_c, 0, 54, 61
1, 73281, Note_off_c, 0, 59, 53
1, 73282, Control_c, 0, 64, 35
1, 73296, Control_c, 0, 64, 36
1, 73311, Control_c, 0, 64, 36
1, 73326, Control_c, 0, 64, 37
1, 73335, Note_off_c, 0, 61, 59
1, 73386, Control_c, 0, 64, 36
1, 73390, Note_on_c, 0, 55, 70
1, 73395, Note_on_c, 0, 64, 85
1, 73401, Control_c, 0, 64, 36
1, 73415, Control_c, 0, 64, 35
1, 73430, Control_c, 0, 64, 34
1, 73454, Note_off_c, 0, 55, 63
1, 73460, Control_c, 0, 64, 34
1, 73478, Note_on_c, 0, 66, 84
1, 73481, Note_off_c, 0, 64, 61
1, 73488, Note_on_c, 0, 57, 67
1, 73489, Control_c, 0, 64, 33
1, 73534, Control_c, 0, 64, 32
1, 73550, Note_off_c, 0, 66, 64
1, 73565, Note_on_c, 0, 64, 70
1, 73568, Note_off_c, 0, 57, 57
1, 73594, Note_off_c, 0, 64, 63
1, 73598, Note_on_c, 0, 49, 60
1, 73616, Note_on_c, 0, 66, 74
1, 73622, Control_c, 0, 64, 32
1, 73634, Note_on_c, 0, 55, 47
1, 73645, Control_c, 0, 64, 29
1, 73660, Control_c, 0, 64, 26
1, 73675, Control_c, 0, 64, 24
1, 73690, Control_c, 0, 64, 23
1, 73691, Note_off_c, 0, 49, 61
1, 73698, Note_on_c, 0, 64, 70
1, 73699, Note_off_c, 0, 66, 66
1, 73704, Control_c, 0, 64, 21
1, 73708, Note_off_c, 0, 55, 61
1, 73725, Note_on_c, 0, 59, 66
1, 73734, Control_c, 0, 64, 20
1, 73742, Note_off_c, 0, 64, 64
1, 73746, Note_on_c, 0, 62, 67
1, 73764, Control_c, 0, 64, 18
1, 73793, Control_c, 0, 64, 17
1, 73809, Note_on_c, 0, 64, 75
1, 73812, Note_off_c, 0, 62, 62
1, 73815, Note_off_c, 0, 59, 52
1, 73822, Control_c, 0, 64, 15
1, 73837, Control_c, 0, 64, 13
1, 73849, Note_on_c, 0, 50, 60
1, 73854, Note_on_c, 0, 57, 57
1, 73854, Note_on_c, 0, 66, 81
1, 73857, Note_off_c, 0, 64, 66
1, 73889, Note_off_c, 0, 66, 69
1, 73911, Control_c, 0, 64, 15
1, 73955, Note_off_c, 0, 57, 61
1, 73965, Note_on_c, 0, 59, 60
1, 74000, Control_c, 0, 64, 13
1, 74016, Control_c, 0, 64, 0
1, 74065, Note_off_c, 0, 59, 61
1, 74080, Note_on_c, 0, 57, 65
1, 74086, Note_on_c, 0, 67, 86
1, 74131, Note_off_c, 0, 67, 63
1, 74179, Control_c, 0, 64, 10
1, 74187, Note_off_c, 0, 57, 61
1, 74203, Note_on_c, 0, 55, 69
1, 74208, Control_c, 0, 64, 13
1, 74255, Note_off_c, 0, 50, 57
1, 74301, Note_off_c, 0, 55, 62
1, 74312, Control_c, 0, 64, 15
1, 74316, Note_on_c, 0, 54, 67
1, 74319, Note_on_c, 0, 69, 93
1, 74327, Control_c, 0, 64, 17
1, 74342, Control_c, 0, 64, 20
1, 74357, Control_c, 0, 64, 24
1, 74368, Note_off_c, 0, 69, 65
1, 74372, Control_c, 0, 64, 27
1, 74393, Control_c, 0, 64, 28
1, 74408, Control_c, 0, 64, 29
1, 74418, Note_off_c, 0, 54, 61
1, 74423, Control_c, 0, 64, 30
1, 74438, Note_on_c, 0, 57, 77
1, 74438, Control_c, 0, 64, 31
1, 74498, Control_c, 0, 64, 30
1, 74512, Control_c, 0, 64, 29
1, 74546, Note_off_c, 0, 57, 59
1, 74554, Note_on_c, 0, 55, 76
1, 74561, Note_on_c, 0, 71, 89
1, 74571, Control_c, 0, 64, 30
1, 74605, Note_off_c, 0, 71, 64
1, 74650, Note_off_c, 0, 55, 63
1, 74655, Note_on_c, 0, 57, 72
1, 74660, Control_c, 0, 64, 31
1, 74762, Note_off_c, 0, 57, 60
1, 74763, Control_c, 0, 64, 30
1, 74769, Note_on_c, 0, 55, 75
1, 74778, Control_c, 0, 64, 29
1, 74781, Note_on_c, 0, 61, 89
1, 74808, Control_c, 0, 64, 29
1, 74824, Control_c, 0, 64, 28
1, 74839, Control_c, 0, 64, 27
1, 74854, Control_c, 0, 64, 26
1, 74870, Note_off_c, 0, 61, 63
1, 74876, Note_on_c, 0, 62, 73
1, 74882, Note_off_c, 0, 55, 63
1, 74883, Control_c, 0, 64, 25
1, 74891, Note_on_c, 0, 54, 63
1, 74913, Control_c, 0, 64, 24
1, 74929, Control_c, 0, 64, 23
1, 74943, Control_c, 0, 64, 20
1, 74951, Note_off_c, 0, 62, 62
1, 74958, Control_c, 0, 64, 17
1, 74962, Note_on_c, 0, 61, 74
1, 74973, Control_c, 0, 64, 15
1, 74986, Note_off_c, 0, 54, 57
1, 74988, Control_c, 0, 64, 13
1, 74999, Note_on_c, 0, 52, 61
1, 75002, Control_c, 0, 64, 10
1, 75008, Note_on_c, 0, 62, 69
1, 75010, Note_off_c, 0, 61, 62
1, 75017, Control_c, 0, 64, 0
1, 75082, Note_on_c, 0, 61, 63
1, 75089, Note_off_c, 0, 62, 63
1, 75096, Note_off_c, 0, 52, 64
1, 75106, Note_on_c, 0, 55, 62
1, 75114, Note_on_c, 0, 59, 69
1, 75129, Note_off_c, 0, 61, 56
1, 75214, Note_off_c, 0, 59, 59
1, 75219, Note_on_c, 0, 61, 65
1, 75228, Note_off_c, 0, 55, 65
1, 75239, Note_on_c, 0, 54, 68
1, 75260, Note_on_c, 0, 62, 81
1, 75283, Note_off_c, 0, 61, 63
1, 75305, Note_off_c, 0, 62, 62
1, 75349, Note_off_c, 0, 54, 61
1, 75359, Note_on_c, 0, 55, 65
1, 75471, Note_off_c, 0, 55, 64
1, 75474, Note_on_c, 0, 54, 71
1, 75475, Note_on_c, 0, 62, 75
1, 75583, Note_off_c, 0, 54, 62
1, 75584, Note_off_c, 0, 62, 54
1, 75592, Note_on_c, 0, 52, 68
1, 75594, Note_on_c, 0, 64, 72
1, 75687, Note_off_c, 0, 52, 64
1, 75705, Note_on_c, 0, 50, 65
1, 75707, Note_off_c, 0, 64, 38
1, 75710, Note_on_c, 0, 66, 82
1, 75796, Note_off_c, 0, 66, 65
1, 75826, Note_on_c, 0, 52, 67
1, 75833, Note_on_c, 0, 67, 81
1, 75852, Note_off_c, 0, 50, 38
1, 75869, Control_c, 0, 64, 10
1, 75921, Control_c, 0, 64, 0
1, 75947, Note_on_c, 0, 54, 72
1, 75949, Note_off_c, 0, 52, 66
1, 75951, Note_on_c, 0, 69, 84
1, 75961, Note_off_c, 0, 67, 51
1, 75980, Control_c, 0, 64, 10
1, 76018, Note_off_c, 0, 69, 65
1, 76061, Note_on_c, 0, 55, 76
1, 76065, Note_off_c, 0, 54, 62
1, 76084, Control_c, 0, 64, 13
1, 76113, Control_c, 0, 64, 15
1, 76175, Note_off_c, 0, 55, 63
1, 76176, Note_on_c, 0, 57, 73
1, 76185, Note_on_c, 0, 66, 85
1, 76203, Control_c, 0, 64, 17
1, 76232, Control_c, 0, 64, 18
1, 76265, Note_off_c, 0, 57, 53
1, 76289, Note_on_c, 0, 67, 83
1, 76294, Note_on_c, 0, 59, 77
1, 76298, Note_off_c, 0, 66, 62
1, 76390, Note_off_c, 0, 67, 57
1, 76399, Note_off_c, 0, 59, 61
1, 76402, Note_on_c, 0, 60, 76
1, 76409, Note_on_c, 0, 69, 90
1, 76470, Control_c, 0, 64, 20
1, 76475, Note_off_c, 0, 60, 62
1, 76493, Note_off_c, 0, 69, 61
1, 76505, Note_on_c, 0, 62, 78
1, 76518, Note_on_c, 0, 71, 85
1, 76529, Control_c, 0, 64, 21
1, 76574, Control_c, 0, 64, 23
1, 76614, Note_off_c, 0, 71, 57
1, 76625, Note_off_c, 0, 62, 59
1, 76658, Note_on_c, 0, 72, 96
1, 76662, Note_on_c, 0, 54, 79
1, 76668, Note_on_c, 0, 50, 78
1, 76670, Control_c, 0, 64, 24
1, 76685, Control_c, 0, 64, 25
1, 76703, Note_off_c, 0, 54, 65
1, 76703, Note_off_c, 0, 50, 64
1, 76744, Control_c, 0, 64, 24
1, 76759, Control_c, 0, 64, 23
1, 76803, Control_c, 0, 64, 24
1, 76818, Control_c, 0, 64, 25
1, 76908, Note_on_c, 0, 48, 80
1, 76915, Note_on_c, 0, 69, 79
1, 76921, Control_c, 0, 64, 26
1, 76996, Control_c, 0, 64, 25
1, 77008, Note_off_c, 0, 48, 65
1, 77015, Note_on_c, 0, 50, 83
1, 77068, Note_off_c, 0, 69, 60
1, 77085, Control_c, 0, 64, 24
1, 77129, Control_c, 0, 64, 23
1, 77139, Note_off_c, 0, 50, 62
1, 77139, Note_on_c, 0, 52, 82
1, 77143, Note_on_c, 0, 67, 79
1, 77146, Note_on_c, 0, 71, 77
1, 77183, Note_off_c, 0, 72, 59
1, 77207, Note_off_c, 0, 52, 62
1, 77249, Note_on_c, 0, 50, 83
1, 77308, Control_c, 0, 64, 21
1, 77323, Control_c, 0, 64, 18
1, 77337, Control_c, 0, 64, 17
1, 77352, Control_c, 0, 64, 15
1, 77358, Note_off_c, 0, 50, 60
1, 77367, Control_c, 0, 64, 10
1, 77371, Note_off_c, 0, 67, 39
1, 77380, Note_on_c, 0, 48, 81
1, 77388, Note_on_c, 0, 69, 88
1, 77404, Control_c, 0, 64, 0
1, 77428, Note_off_c, 0, 71, 60
1, 77452, Note_off_c, 0, 48, 65
1, 77631, Note_on_c, 0, 47, 68
1, 77633, Note_on_c, 0, 67, 77
1, 77708, Note_off_c, 0, 69, 52
1, 77740, Note_on_c, 0, 48, 75
1, 77743, Note_off_c, 0, 47, 64
1, 77857, Note_on_c, 0, 50, 75
1, 77859, Note_off_c, 0, 48, 62
1, 77866, Note_off_c, 0, 67, 59
1, 77874, Note_on_c, 0, 66, 76
1, 77972, Note_on_c, 0, 48, 82
1, 77973, Note_off_c, 0, 50, 63
1, 78062, Note_off_c, 0, 66, 61
1, 78088, Note_off_c, 0, 48, 61
1, 78094, Note_on_c, 0, 47, 78
1, 78101, Note_on_c, 0, 67, 72
1, 78161, Note_off_c, 0, 47, 64
1, 78204, Note_off_c, 0, 67, 58
1, 78227, Note_on_c, 0, 79, 75
1, 78358, Note_on_c, 0, 78, 75
1, 78360, Note_on_c, 0, 48, 65
1, 78394, Note_off_c, 0, 79, 52
1, 78411, Note_off_c, 0, 48, 61
1, 78466, Note_on_c, 0, 76, 73
1, 78516, Note_off_c, 0, 78, 38
1, 78590, Note_on_c, 0, 74, 76
1, 78595, Note_on_c, 0, 50, 76
1, 78597, Note_off_c, 0, 76, 59
1, 78646, Note_off_c, 0, 50, 63
1, 78686, Control_c, 0, 64, 13
1, 78701, Note_on_c, 0, 78, 80
1, 78701, Note_off_c, 0, 74, 60
1, 78701, Control_c, 0, 64, 18
1, 78716, Control_c, 0, 64, 23
1, 78731, Control_c, 0, 64, 24
1, 78745, Control_c, 0, 64, 25
1, 78805, Control_c, 0, 64, 26
1, 78821, Control_c, 0, 64, 28
1, 78832, Note_on_c, 0, 76, 81
1, 78835, Control_c, 0, 64, 29
1, 78841, Note_on_c, 0, 55, 74
1, 78846, Note_off_c, 0, 78, 60
1, 78850, Control_c, 0, 64, 31
1, 78865, Control_c, 0, 64, 32
1, 78866, Note_off_c, 0, 55, 67
1, 78917, Control_c, 0, 64, 32
1, 78942, Note_on_c, 0, 78, 83
1, 78947, Note_off_c, 0, 76, 58
1, 78947, Control_c, 0, 64, 33
1, 78962, Control_c, 0, 64, 34
1, 78977, Control_c, 0, 64, 35
1, 79035, Control_c, 0, 64, 34
1, 79050, Control_c, 0, 64, 34
1, 79078, Note_off_c, 0, 78, 53
1, 79082, Note_on_c, 0, 76, 67
1, 79094, Note_on_c, 0, 45, 74
1, 79109, Control_c, 0, 64, 33
1, 79124, Control_c, 0, 64, 32
1, 79139, Control_c, 0, 64, 32
1, 79154, Control_c, 0, 64, 30
1, 79169, Control_c, 0, 64, 29
1, 79184, Control_c, 0, 64, 28
1, 79201, Note_off_c, 0, 76, 64
1, 79206, Note_on_c, 0, 74, 67
1, 79213, Control_c, 0, 64, 27
1, 79228, Control_c, 0, 64, 26
1, 79243, Control_c, 0, 64, 25
1, 79258, Control_c, 0, 64, 24
1, 79273, Control_c, 0, 64, 23
1, 79288, Control_c, 0, 64, 20
1, 79306, Note_off_c, 0, 74, 65
1, 79310, Note_on_c, 0, 72, 70
1, 79317, Control_c, 0, 64, 18
1, 79332, Control_c, 0, 64, 17
1, 79361, Control_c, 0, 64, 15
1, 79376, Control_c, 0, 64, 13
1, 79391, Control_c, 0, 64, 0
1, 79415, Note_off_c, 0, 72, 53
1, 79426, Note_on_c, 0, 76, 74
1, 79554, Note_on_c, 0, 74, 71
1, 79555, Note_off_c, 0, 45, 63
1, 79562, Note_on_c, 0, 47, 78
1, 79574, Note_off_c, 0, 76, 47
1, 79604, Note_off_c, 0, 47, 67
1, 79682, Note_on_c, 0, 76, 78
1, 79684, Note_off_c, 0, 74, 63
1, 79798, Note_off_c, 0, 76, 61
1, 79799, Note_on_c, 0, 74, 75
1, 79806, Note_on_c, 0, 48, 82
1, 79860, Note_off_c, 0, 48, 65
1, 79915, Note_on_c, 0, 72, 80
1, 79917, Note_off_c, 0, 74, 63
1, 80006, Control_c, 0, 64, 13
1, 80021, Control_c, 0, 64, 17
1, 80023, Note_off_c, 0, 72, 63
1, 80028, Note_on_c, 0, 71, 75
1, 80035, Note_on_c, 0, 50, 85
1, 80036, Control_c, 0, 64, 18
1, 80051, Control_c, 0, 64, 21
1, 80081, Control_c, 0, 64, 23
1, 80087, Note_off_c, 0, 50, 63
1, 80132, Note_off_c, 0, 71, 43
1, 80140, Control_c, 0, 64, 25
1, 80143, Note_on_c, 0, 74, 72
1, 80155, Control_c, 0, 64, 28
1, 80169, Control_c, 0, 64, 29
1, 80183, Control_c, 0, 64, 30
1, 80257, Control_c, 0, 64, 31
1, 80266, Note_on_c, 0, 52, 89
1, 80270, Note_on_c, 0, 72, 77
1, 80271, Note_off_c, 0, 74, 34
1, 80287, Control_c, 0, 64, 32
1, 80302, Control_c, 0, 64, 32
1, 80310, Note_off_c, 0, 52, 66
1, 80400, Note_on_c, 0, 74, 69
1, 80406, Note_off_c, 0, 72, 59
1, 80429, Control_c, 0, 64, 32
1, 80444, Control_c, 0, 64, 31
1, 80459, Control_c, 0, 64, 30
1, 80474, Control_c, 0, 64, 29
1, 80488, Control_c, 0, 64, 29
1, 80510, Note_on_c, 0, 42, 81
1, 80523, Note_on_c, 0, 72, 74
1, 80524, Note_off_c, 0, 74, 63
1, 80533, Control_c, 0, 64, 28
1, 80548, Control_c, 0, 64, 26
1, 80562, Control_c, 0, 64, 25
1, 80577, Control_c, 0, 64, 23
1, 80592, Control_c, 0, 64, 21
1, 80607, Control_c, 0, 64, 18
1, 80621, Control_c, 0, 64, 17
1, 80624, Note_off_c, 0, 72, 63
1, 80632, Note_on_c, 0, 71, 67
1, 80636, Control_c, 0, 64, 15
1, 80651, Control_c, 0, 64, 13
1, 80695, Control_c, 0, 64, 10
1, 80725, Control_c, 0, 64, 0
1, 80737, Note_off_c, 0, 71, 61
1, 80745, Note_on_c, 0, 69, 67
1, 80853, Note_on_c, 0, 72, 74
1, 80861, Note_off_c, 0, 69, 61
1, 80974, Note_on_c, 0, 71, 76
1, 80983, Note_on_c, 0, 43, 78
1, 80984, Note_off_c, 0, 42, 58
1, 81005, Note_off_c, 0, 72, 53
1, 81076, Note_off_c, 0, 71, 60
1, 81076, Note_off_c, 0, 43, 62
1, 81083, Note_on_c, 0, 69, 77
1, 81085, Note_on_c, 0, 45, 78
1, 81194, Note_off_c, 0, 69, 64
1, 81198, Note_off_c, 0, 45, 65
1, 81205, Note_on_c, 0, 47, 83
1, 81208, Note_on_c, 0, 67, 70
1, 81307, Note_off_c, 0, 67, 61
1, 81315, Note_on_c, 0, 71, 71
1, 81432, Note_on_c, 0, 62, 82
1, 81436, Note_on_c, 0, 66, 76
1, 81450, Note_off_c, 0, 71, 57
1, 81535, Note_off_c, 0, 66, 61
1, 81537, Note_off_c, 0, 62, 59
1, 81547, Note_on_c, 0, 71, 68
1, 81668, Note_on_c, 0, 64, 72
1, 81670, Note_on_c, 0, 61, 81
1, 81673, Note_off_c, 0, 71, 50
1, 81753, Note_off_c, 0, 61, 57
1, 81756, Note_off_c, 0, 47, 61
1, 81774, Note_off_c, 0, 64, 60
1, 81782, Note_on_c, 0, 45, 57
1, 81786, Note_on_c, 0, 71, 74
1, 81880, Note_off_c, 0, 71, 56
1, 81892, Note_off_c, 0, 45, 63
1, 81912, Note_on_c, 0, 43, 63
1, 81924, Note_on_c, 0, 62, 68
1, 81997, Note_off_c, 0, 43, 60
1, 82018, Note_off_c, 0, 62, 55
1, 82025, Note_on_c, 0, 42, 59
1, 82041, Note_on_c, 0, 71, 58
1, 82112, Note_off_c, 0, 42, 58
1, 82139, Note_on_c, 0, 40, 61
1, 82158, Note_on_c, 0, 61, 68
1, 82163, Note_off_c, 0, 71, 49
1, 82240, Note_off_c, 0, 61, 62
1, 82251, Note_off_c, 0, 40, 62
1, 82260, Note_on_c, 0, 43, 68
1, 82277, Note_on_c, 0, 71, 71
1, 82375, Note_off_c, 0, 71, 53
1, 82376, Note_off_c, 0, 43, 62
1, 82381, Note_on_c, 0, 42, 73
1, 82398, Note_on_c, 0, 69, 70
1, 82467, Note_off_c, 0, 42, 63
1, 82483, Note_off_c, 0, 69, 47
1, 82483, Note_on_c, 0, 43, 74
1, 82507, Note_on_c, 0, 67, 63
1, 82596, Note_on_c, 0, 45, 81
1, 82596, Note_off_c, 0, 43, 62
1, 82622, Control_c, 0, 64, 10
1, 82635, Note_on_c, 0, 66, 67
1, 82636, Note_off_c, 0, 67, 53
1, 82644, Control_c, 0, 64, 13
1, 82659, Control_c, 0, 64, 15
1, 82728, Note_off_c, 0, 66, 61
1, 82734, Note_on_c, 0, 69, 72
1, 82792, Control_c, 0, 64, 13
1, 82823, Control_c, 0, 64, 10
1, 82838, Control_c, 0, 64, 0
1, 82854, Note_on_c, 0, 61, 82
1, 82856, Note_on_c, 0, 64, 76
1, 82874, Note_off_c, 0, 69, 43
1, 82957, Note_off_c, 0, 64, 60
1, 82964, Note_on_c, 0, 69, 84
1, 82974, Note_off_c, 0, 61, 60
1, 83083, Note_on_c, 0, 59, 80
1, 83087, Note_on_c, 0, 62, 76
1, 83087, Note_off_c, 0, 69, 57
1, 83145, Note_off_c, 0, 45, 61
1, 83166, Note_on_c, 0, 43, 56
1, 83169, Note_off_c, 0, 59, 59
1, 83187, Note_off_c, 0, 62, 62
1, 83201, Note_on_c, 0, 69, 77
1, 83269, Note_off_c, 0, 43, 61
1, 83294, Note_on_c, 0, 42, 53
1, 83317, Note_on_c, 0, 61, 74
1, 83326, Note_off_c, 0, 69, 58
1, 83398, Note_off_c, 0, 42, 63
1, 83418, Note_on_c, 0, 40, 59
1, 83428, Note_off_c, 0, 61, 61
1, 83443, Note_on_c, 0, 69, 74
1, 83511, Note_off_c, 0, 40, 60
1, 83527, Note_on_c, 0, 38, 61
1, 83546, Note_on_c, 0, 59, 73
1, 83562, Note_off_c, 0, 69, 59
1, 83634, Note_off_c, 0, 38, 62
1, 83637, Note_on_c, 0, 42, 63
1, 83653, Note_off_c, 0, 59, 54
1, 83661, Note_on_c, 0, 69, 78
1, 83752, Note_off_c, 0, 69, 59
1, 83762, Note_off_c, 0, 42, 63
1, 83765, Note_on_c, 0, 40, 75
1, 83768, Note_on_c, 0, 67, 73
1, 83867, Note_off_c, 0, 40, 63
1, 83873, Note_on_c, 0, 42, 75
1, 83880, Note_on_c, 0, 66, 70
1, 83881, Note_off_c, 0, 67, 46
1, 83995, Note_on_c, 0, 64, 60
1, 83995, Note_off_c, 0, 42, 63
1, 83996, Note_on_c, 0, 43, 74
1, 84001, Note_off_c, 0, 66, 65
1, 84096, Note_off_c, 0, 64, 63
1, 84107, Note_on_c, 0, 67, 68
1, 84220, Note_on_c, 0, 59, 82
1, 84224, Note_on_c, 0, 62, 79
1, 84248, Note_off_c, 0, 67, 58
1, 84337, Note_on_c, 0, 67, 78
1, 84337, Note_off_c, 0, 62, 60
1, 84338, Note_off_c, 0, 59, 55
1, 84461, Note_on_c, 0, 57, 77
1, 84464, Note_on_c, 0, 61, 76
1, 84465, Note_off_c, 0, 67, 57
1, 84540, Note_off_c, 0, 57, 57
1, 84569, Note_off_c, 0, 61, 60
1, 84570, Note_on_c, 0, 67, 77
1, 84574, Note_off_c, 0, 43, 55
1, 84584, Note_on_c, 0, 42, 58
1, 84685, Note_off_c, 0, 42, 62
1, 84695, Note_on_c, 0, 40, 61
1, 84698, Note_on_c, 0, 59, 69
1, 84711, Note_off_c, 0, 67, 32
1, 84769, Note_off_c, 0, 40, 62
1, 84796, Note_on_c, 0, 38, 58
1, 84797, Note_off_c, 0, 59, 58
1, 84813, Note_on_c, 0, 67, 67
1, 84904, Note_off_c, 0, 38, 60
1, 84916, Note_off_c, 0, 67, 54
1, 84922, Note_on_c, 0, 37, 59
1, 84933, Note_on_c, 0, 57, 67
1, 85008, Note_off_c, 0, 37, 59
1, 85012, Note_off_c, 0, 57, 59
1, 85032, Note_on_c, 0, 40, 64
1, 85035, Note_on_c, 0, 67, 70
1, 85097, Note_off_c, 0, 67, 57
1, 85142, Note_off_c, 0, 40, 61
1, 85163, Note_on_c, 0, 38, 60
1, 85166, Note_on_c, 0, 66, 63
1, 85262, Note_off_c, 0, 38, 62
1, 85262, Note_off_c, 0, 66, 62
1, 85276, Note_on_c, 0, 40, 59
1, 85280, Note_on_c, 0, 74, 64
1, 85372, Note_off_c, 0, 40, 63
1, 85382, Note_off_c, 0, 74, 57
1, 85390, Note_on_c, 0, 42, 58
1, 85396, Note_on_c, 0, 72, 70
1, 85478, Note_off_c, 0, 72, 55
1, 85497, Note_off_c, 0, 42, 60
1, 85503, Note_on_c, 0, 38, 52
1, 85507, Note_on_c, 0, 71, 70
1, 85593, Note_off_c, 0, 71, 55
1, 85610, Note_off_c, 0, 38, 60
1, 85628, Note_on_c, 0, 43, 53
1, 85628, Note_on_c, 0, 69, 64
1, 85705, Note_off_c, 0, 69, 62
1, 85721, Note_off_c, 0, 43, 57
1, 85730, Note_on_c, 0, 67, 61
1, 85756, Note_on_c, 0, 38, 47
1, 85846, Note_off_c, 0, 67, 61
1, 85853, Note_on_c, 0, 66, 63
1, 85853, Note_off_c, 0, 38, 58
1, 85865, Note_on_c, 0, 45, 56
1, 85955, Note_off_c, 0, 66, 57
1, 85957, Note_off_c, 0, 45, 62
1, 85967, Note_on_c, 0, 64, 63
1, 85977, Note_on_c, 0, 38, 58
1, 86081, Note_off_c, 0, 64, 64
1, 86084, Note_off_c, 0, 38, 61
1, 86085, Note_on_c, 0, 47, 62
1, 86086, Note_on_c, 0, 62, 63
1, 86169, Note_off_c, 0, 62, 61
1, 86177, Note_off_c, 0, 47, 56
1, 86195, Note_on_c, 0, 60, 64
1, 86204, Note_on_c, 0, 38, 63
1, 86290, Note_off_c, 0, 38, 60
1, 86292, Note_off_c, 0, 60, 58
1, 86308, Note_on_c, 0, 59, 67
1, 86316, Note_on_c, 0, 48, 64
1, 86399, Note_off_c, 0, 48, 61
1, 86412, Note_off_c, 0, 59, 59
1, 86421, Note_on_c, 0, 57, 71
1, 86422, Note_on_c, 0, 38, 66
1, 86509, Note_off_c, 0, 38, 61
1, 86523, Note_off_c, 0, 57, 55
1, 86537, Note_on_c, 0, 55, 73
1, 86540, Note_on_c, 0, 47, 77
1, 86551, Control_c, 0, 64, 17
1, 86566, Control_c, 0, 64, 24
1, 86579, Note_off_c, 0, 55, 65
1, 86581, Control_c, 0, 64, 29
1, 86596, Control_c, 0, 64, 31
1, 86625, Control_c, 0, 64, 32
1, 86633, Note_off_c, 0, 47, 64
1, 86640, Control_c, 0, 64, 32
1, 86651, Note_on_c, 0, 57, 69
1, 86662, Note_on_c, 0, 55, 80
1, 86714, Control_c, 0, 64, 33
1, 86719, Note_off_c, 0, 57, 55
1, 86758, Control_c, 0, 64, 34
1, 86759, Note_off_c, 0, 55, 62
1, 86770, Note_on_c, 0, 53, 77
1, 86774, Note_on_c, 0, 59, 69
1, 86819, Control_c, 0, 64, 34
1, 86859, Note_off_c, 0, 59, 54
1, 86883, Note_on_c, 0, 52, 82
1, 86886, Note_on_c, 0, 55, 67
1, 86888, Note_off_c, 0, 53, 66
1, 86967, Note_off_c, 0, 55, 52
1, 86982, Control_c, 0, 64, 34
1, 86998, Note_off_c, 0, 52, 64
1, 87007, Note_on_c, 0, 60, 72
1, 87014, Note_on_c, 0, 50, 81
1, 87095, Note_off_c, 0, 60, 53
1, 87109, Note_off_c, 0, 50, 58
1, 87115, Note_on_c, 0, 55, 64
1, 87128, Note_on_c, 0, 48, 77
1, 87226, Control_c, 0, 64, 33
1, 87242, Note_on_c, 0, 62, 76
1, 87245, Note_off_c, 0, 48, 65
1, 87248, Note_on_c, 0, 47, 78
1, 87248, Note_off_c, 0, 55, 57
1, 87271, Control_c, 0, 64, 32
1, 87352, Note_off_c, 0, 62, 56
1, 87354, Note_on_c, 0, 45, 75
1, 87357, Note_off_c, 0, 47, 65
1, 87363, Note_on_c, 0, 55, 68
1, 87419, Control_c, 0, 64, 32
1, 87428, Note_off_c, 0, 45, 65
1, 87448, Control_c, 0, 64, 31
1, 87462, Note_on_c, 0, 43, 74
1, 87479, Note_on_c, 0, 64, 71
1, 87483, Note_off_c, 0, 55, 57
1, 87492, Control_c, 0, 64, 30
1, 87507, Control_c, 0, 64, 29
1, 87552, Control_c, 0, 64, 30
1, 87564, Note_off_c, 0, 64, 60
1, 87571, Note_off_c, 0, 43, 53
1, 87581, Note_on_c, 0, 41, 76
1, 87597, Note_on_c, 0, 55, 73
1, 87597, Control_c, 0, 64, 31
1, 87627, Control_c, 0, 64, 32
1, 87642, Control_c, 0, 64, 32
1, 87686, Note_off_c, 0, 55, 59
1, 87695, Note_off_c, 0, 41, 65
1, 87701, Control_c, 0, 64, 32
1, 87702, Note_on_c, 0, 40, 76
1, 87714, Note_on_c, 0, 65, 72
1, 87731, Control_c, 0, 64, 31
1, 87774, Note_off_c, 0, 65, 63
1, 87804, Note_off_c, 0, 40, 63
1, 87804, Control_c, 0, 64, 32
1, 87816, Note_on_c, 0, 55, 60
1, 87819, Note_on_c, 0, 38, 70
1, 87819, Control_c, 0, 64, 32
1, 87834, Control_c, 0, 64, 33
1, 87849, Control_c, 0, 64, 34
1, 87897, Note_off_c, 0, 55, 63
1, 87901, Control_c, 0, 64, 34
1, 87921, Note_off_c, 0, 38, 60
1, 87942, Note_on_c, 0, 36, 65
1, 87946, Control_c, 0, 64, 34
1, 87961, Control_c, 0, 64, 33
1, 87972, Note_on_c, 0, 64, 39
1, 88005, Control_c, 0, 64, 32
1, 88019, Note_off_c, 0, 64, 51
1, 88020, Control_c, 0, 64, 32
1, 88054, Note_off_c, 0, 36, 62
1, 88061, Note_on_c, 0, 38, 60
1, 88065, Control_c, 0, 64, 31
1, 88087, Note_on_c, 0, 72, 57
1, 88164, Note_off_c, 0, 38, 62
1, 88166, Note_on_c, 0, 40, 69
1, 88183, Note_off_c, 0, 72, 61
1, 88189, Note_on_c, 0, 71, 68
1, 88213, Control_c, 0, 64, 32
1, 88270, Note_off_c, 0, 40, 63
1, 88287, Note_on_c, 0, 42, 64
1, 88292, Note_off_c, 0, 71, 59
1, 88294, Note_on_c, 0, 74, 71
1, 88302, Control_c, 0, 64, 32
1, 88316, Control_c, 0, 64, 33
1, 88346, Control_c, 0, 64, 34
1, 88376, Control_c, 0, 64, 34
1, 88389, Note_off_c, 0, 42, 63
1, 88392, Control_c, 0, 64, 35
1, 88395, Note_on_c, 0, 44, 69
1, 88407, Control_c, 0, 64, 36
1, 88411, Note_on_c, 0, 69, 75
1, 88421, Note_off_c, 0, 74, 60
1, 88436, Control_c, 0, 64, 36
1, 88445, Note_off_c, 0, 44, 63
1, 88481, Control_c, 0, 64, 37
1, 88503, Note_off_c, 0, 69, 61
1, 88507, Note_on_c, 0, 45, 66
1, 88522, Note_on_c, 0, 74, 70
1, 88526, Control_c, 0, 64, 36
1, 88639, Note_on_c, 0, 68, 78
1, 88646, Note_off_c, 0, 45, 65
1, 88647, Note_on_c, 0, 47, 75
1, 88647, Note_off_c, 0, 74, 60
1, 88651, Control_c, 0, 64, 37
1, 88746, Note_off_c, 0, 68, 63
1, 88749, Note_off_c, 0, 47, 63
1, 88754, Note_on_c, 0, 48, 70
1, 88754, Note_on_c, 0, 74, 71
1, 88755, Control_c, 0, 64, 36
1, 88800, Control_c, 0, 64, 37
1, 88845, Note_off_c, 0, 48, 65
1, 88859, Note_on_c, 0, 66, 82
1, 88859, Control_c, 0, 64, 37
1, 88870, Note_on_c, 0, 50, 65
1, 88874, Control_c, 0, 64, 38
1, 88886, Note_off_c, 0, 74, 56
1, 88889, Control_c, 0, 64, 38
1, 88943, Note_off_c, 0, 50, 58
1, 88967, Note_on_c, 0, 52, 66
1, 88972, Note_off_c, 0, 66, 63
1, 88976, Note_on_c, 0, 74, 76
1, 88977, Control_c, 0, 64, 39
1, 89077, Note_off_c, 0, 52, 64
1, 89085, Note_off_c, 0, 74, 49
1, 89087, Note_on_c, 0, 54, 68
1, 89094, Note_on_c, 0, 64, 74
1, 89110, Control_c, 0, 64, 39
1, 89183, Note_off_c, 0, 64, 60
1, 89207, Note_on_c, 0, 74, 73
1, 89209, Note_off_c, 0, 54, 60
1, 89210, Note_on_c, 0, 56, 59
1, 89274, Control_c, 0, 64, 39
1, 89308, Note_off_c, 0, 74, 53
1, 89314, Note_off_c, 0, 56, 62
1, 89326, Note_on_c, 0, 72, 69
1, 89330, Note_on_c, 0, 57, 61
1, 89333, Control_c, 0, 64, 38
1, 89411, Note_off_c, 0, 72, 63
1, 89426, Note_off_c, 0, 57, 54
1, 89439, Note_on_c, 0, 69, 74
1, 89450, Note_on_c, 0, 55, 60
1, 89504, Control_c, 0, 64, 38
1, 89538, Note_off_c, 0, 55, 64
1, 89551, Note_on_c, 0, 71, 75
1, 89551, Note_off_c, 0, 69, 63
1, 89553, Note_on_c, 0, 54, 66
1, 89648, Note_off_c, 0, 54, 58
1, 89649, Note_on_c, 0, 57, 73
1, 89653, Note_off_c, 0, 71, 61
1, 89657, Note_on_c, 0, 73, 76
1, 89767, Note_off_c, 0, 73, 62
1, 89770, Control_c, 0, 64, 38
1, 89771, Note_on_c, 0, 75, 76
1, 89771, Note_off_c, 0, 57, 61
1, 89774, Note_on_c, 0, 52, 78
1, 89815, Control_c, 0, 64, 38
1, 89831, Note_off_c, 0, 75, 66
1, 89849, Note_off_c, 0, 52, 66
1, 89876, Note_on_c, 0, 57, 81
1, 89876, Note_on_c, 0, 76, 75
1, 89948, Control_c, 0, 64, 37
1, 89959, Note_off_c, 0, 76, 64
1, 89984, Note_on_c, 0, 78, 87
1, 90000, Note_off_c, 0, 57, 58
1, 90006, Note_on_c, 0, 51, 78
1, 90008, Control_c, 0, 64, 38
1, 90094, Note_on_c, 0, 79, 82
1, 90096, Note_off_c, 0, 78, 63
1, 90098, Note_off_c, 0, 51, 60
1, 90103, Note_on_c, 0, 57, 75
1, 90120, Control_c, 0, 64, 37
1, 90135, Control_c, 0, 64, 37
1, 90149, Control_c, 0, 64, 36
1, 90179, Control_c, 0, 64, 36
1, 90208, Control_c, 0, 64, 35
1, 90213, Note_off_c, 0, 79, 57
1, 90220, Note_on_c, 0, 81, 92
1, 90222, Note_off_c, 0, 57, 61
1, 90231, Note_on_c, 0, 49, 76
1, 90297, Control_c, 0, 64, 36
1, 90298, Note_off_c, 0, 81, 61
1, 90311, Note_off_c, 0, 49, 62
1, 90326, Note_on_c, 0, 83, 85
1, 90326, Control_c, 0, 64, 36
1, 90327, Note_on_c, 0, 57, 79
1, 90356, Control_c, 0, 64, 37
1, 90401, Control_c, 0, 64, 37
1, 90407, Note_off_c, 0, 83, 59
1, 90416, Control_c, 0, 64, 38
1, 90422, Note_off_c, 0, 57, 59
1, 90430, Note_on_c, 0, 84, 85
1, 90430, Control_c, 0, 64, 38
1, 90436, Note_on_c, 0, 47, 77
1, 90445, Control_c, 0, 64, 39
1, 90460, Control_c, 0, 64, 39
1, 90490, Control_c, 0, 64, 39
1, 90493, Note_off_c, 0, 84, 63
1, 90517, Note_off_c, 0, 47, 60
1, 90544, Note_on_c, 0, 57, 76
1, 90545, Note_on_c, 0, 75, 84
1, 90549, Control_c, 0, 64, 39
1, 90564, Control_c, 0, 64, 40
1, 90601, Note_off_c, 0, 75, 64
1, 90608, Control_c, 0, 64, 39
1, 90610, Note_off_c, 0, 57, 60
1, 90623, Control_c, 0, 64, 39
1, 90638, Control_c, 0, 64, 38
1, 90666, Control_c, 0, 64, 38
1, 90670, Note_on_c, 0, 76, 91
1, 90673, Note_on_c, 0, 55, 92
1, 90681, Control_c, 0, 64, 37
1, 90696, Control_c, 0, 64, 36
1, 90708, Note_off_c, 0, 55, 69
1, 90711, Control_c, 0, 64, 32
1, 90726, Control_c, 0, 64, 29
1, 90740, Control_c, 0, 64, 25
1, 90755, Control_c, 0, 64, 23
1, 90770, Control_c, 0, 64, 21
1, 90792, Note_off_c, 0, 76, 58
1, 90801, Control_c, 0, 64, 23
1, 90912, Control_c, 0, 64, 21
1, 90926, Note_on_c, 0, 78, 88
1, 90933, Note_on_c, 0, 60, 82
1, 90942, Control_c, 0, 64, 20
1, 90956, Control_c, 0, 64, 18
1, 90971, Control_c, 0, 64, 17
1, 90978, Note_off_c, 0, 60, 61
1, 91001, Control_c, 0, 64, 15
1, 91029, Note_off_c, 0, 78, 55
1, 91036, Note_on_c, 0, 76, 84
1, 91060, Control_c, 0, 64, 17
1, 91090, Control_c, 0, 64, 18
1, 91131, Note_off_c, 0, 76, 60
1, 91160, Note_on_c, 0, 75, 89
1, 91164, Control_c, 0, 64, 21
1, 91167, Note_on_c, 0, 59, 81
1, 91179, Control_c, 0, 64, 23
1, 91194, Control_c, 0, 64, 24
1, 91208, Control_c, 0, 64, 25
1, 91217, Note_off_c, 0, 59, 64
1, 91223, Control_c, 0, 64, 26
1, 91238, Note_off_c, 0, 75, 61
1, 91265, Note_on_c, 0, 76, 90
1, 91268, Control_c, 0, 64, 27
1, 91297, Control_c, 0, 64, 28
1, 91327, Control_c, 0, 64, 29
1, 91356, Control_c, 0, 64, 29
1, 91386, Control_c, 0, 64, 30
1, 91390, Note_on_c, 0, 78, 94
1, 91401, Note_on_c, 0, 57, 76
1, 91402, Control_c, 0, 64, 32
1, 91410, Note_off_c, 0, 76, 55
1, 91416, Control_c, 0, 64, 32
1, 91431, Control_c, 0, 64, 34
1, 91441, Note_off_c, 0, 57, 63
1, 91446, Control_c, 0, 64, 35
1, 91461, Control_c, 0, 64, 36
1, 91476, Control_c, 0, 64, 37
1, 91478, Note_off_c, 0, 78, 61
1, 91490, Control_c, 0, 64, 38
1, 91505, Control_c, 0, 64, 39
1, 91520, Control_c, 0, 64, 40
1, 91534, Control_c, 0, 64, 40
1, 91655, Note_on_c, 0, 79, 92
1, 91670, Note_on_c, 0, 59, 73
1, 91676, Control_c, 0, 64, 41
1, 91691, Control_c, 0, 64, 42
1, 91706, Control_c, 0, 64, 42
1, 91714, Note_off_c, 0, 59, 55
1, 91763, Note_on_c, 0, 78, 90
1, 91766, Control_c, 0, 64, 42
1, 91795, Control_c, 0, 64, 41
1, 91799, Note_off_c, 0, 79, 55
1, 91810, Control_c, 0, 64, 41
1, 91825, Control_c, 0, 64, 40
1, 91840, Control_c, 0, 64, 40
1, 91869, Control_c, 0, 64, 39
1, 91875, Note_off_c, 0, 78, 51
1, 91879, Note_on_c, 0, 47, 66
1, 91880, Note_on_c, 0, 76, 89
1, 91914, Control_c, 0, 64, 39
1, 91943, Note_off_c, 0, 47, 60
1, 91943, Control_c, 0, 64, 38
1, 91972, Control_c, 0, 64, 38
1, 91984, Note_on_c, 0, 78, 90
1, 91995, Note_off_c, 0, 76, 53
1, 92070, Note_off_c, 0, 78, 64
1, 92091, Control_c, 0, 64, 38
1, 92106, Control_c, 0, 64, 39
1, 92112, Note_on_c, 0, 79, 97
1, 92120, Note_on_c, 0, 52, 63
1, 92121, Control_c, 0, 64, 40
1, 92136, Control_c, 0, 64, 40
1, 92165, Control_c, 0, 64, 41
1, 92168, Note_off_c, 0, 79, 64
1, 92180, Control_c, 0, 64, 41
1, 92225, Note_off_c, 0, 52, 65
1, 92225, Control_c, 0, 64, 42
1, 92229, Note_on_c, 0, 54, 66
1, 92239, Control_c, 0, 64, 42
1, 92298, Control_c, 0, 64, 42
1, 92354, Note_on_c, 0, 78, 96
1, 92366, Note_on_c, 0, 55, 66
1, 92375, Note_off_c, 0, 54, 61
1, 92395, Control_c, 0, 64, 41
1, 92418, Note_off_c, 0, 78, 66
1, 92442, Note_off_c, 0, 55, 54
1, 92469, Control_c, 0, 64, 42
1, 92486, Note_on_c, 0, 52, 60
1, 92529, Control_c, 0, 64, 41
1, 92544, Control_c, 0, 64, 41
1, 92559, Control_c, 0, 64, 40
1, 92593, Note_off_c, 0, 52, 65
1, 92598, Note_on_c, 0, 57, 70
1, 92601, Note_on_c, 0, 76, 90
1, 92633, Control_c, 0, 64, 41
1, 92647, Note_off_c, 0, 76, 69
1, 92648, Control_c, 0, 64, 41
1, 92677, Control_c, 0, 64, 42
1, 92692, Control_c, 0, 64, 42
1, 92694, Note_off_c, 0, 57, 60
1, 92707, Control_c, 0, 64, 43
1, 92711, Note_on_c, 0, 52, 75
1, 92721, Control_c, 0, 64, 43
1, 92830, Note_off_c, 0, 52, 64
1, 92833, Note_on_c, 0, 71, 89
1, 92835, Note_on_c, 0, 59, 74
1, 92855, Control_c, 0, 64, 44
1, 92893, Note_off_c, 0, 71, 60
1, 92914, Control_c, 0, 64, 44
1, 92920, Note_off_c, 0, 59, 61
1, 92944, Note_on_c, 0, 52, 73
1, 92958, Control_c, 0, 64, 45
1, 92973, Control_c, 0, 64, 45
1, 93003, Control_c, 0, 64, 46
1, 93077, Control_c, 0, 64, 45
1, 93079, Note_off_c, 0, 52, 62
1, 93081, Note_on_c, 0, 81, 92
1, 93087, Note_on_c, 0, 61, 65
1, 93092, Control_c, 0, 64, 45
1, 93113, Control_c, 0, 64, 44
1, 93128, Control_c, 0, 64, 43
1, 93143, Control_c, 0, 64, 42
1, 93158, Control_c, 0, 64, 42
1, 93173, Control_c, 0, 64, 41
1, 93189, Control_c, 0, 64, 40
1, 93191, Note_off_c, 0, 61, 58
1, 93203, Note_on_c, 0, 52, 72
1, 93204, Control_c, 0, 64, 39
1, 93218, Control_c, 0, 64, 38
1, 93233, Control_c, 0, 64, 37
1, 93248, Control_c, 0, 64, 37
1, 93263, Control_c, 0, 64, 36
1, 93323, Note_off_c, 0, 52, 57
1, 93334, Note_on_c, 0, 63, 78
1, 93396, Control_c, 0, 64, 36
1, 93417, Note_off_c, 0, 63, 63
1, 93426, Control_c, 0, 64, 35
1, 93435, Note_on_c, 0, 52, 76
1, 93456, Control_c, 0, 64, 34
1, 93509, Note_off_c, 0, 81, 55
1, 93515, Control_c, 0, 64, 36
1, 93528, Note_off_c, 0, 52, 55
1, 93530, Control_c, 0, 64, 37
1, 93544, Control_c, 0, 64, 38
1, 93559, Control_c, 0, 64, 39
1, 93560, Note_on_c, 0, 79, 91
1, 93573, Note_on_c, 0, 64, 66
1, 93574, Control_c, 0, 64, 40
1, 93589, Control_c, 0, 64, 41
1, 93604, Control_c, 0, 64, 41
1, 93618, Control_c, 0, 64, 42
1, 93630, Note_off_c, 0, 79, 63
1, 93633, Control_c, 0, 64, 42
1, 93648, Control_c, 0, 64, 43
1, 93663, Control_c, 0, 64, 44
1, 93665, Note_off_c, 0, 64, 62
1, 93682, Note_on_c, 0, 63, 66
1, 93692, Control_c, 0, 64, 44
1, 93736, Control_c, 0, 64, 43
1, 93751, Control_c, 0, 64, 43
1, 93766, Control_c, 0, 64, 42
1, 93793, Note_on_c, 0, 78, 93
1, 93799, Note_on_c, 0, 64, 74
1, 93800, Note_off_c, 0, 63, 62
1, 93856, Control_c, 0, 64, 42
1, 93868, Note_off_c, 0, 78, 66
1, 93911, Note_off_c, 0, 64, 63
1, 93918, Note_on_c, 0, 66, 79
1, 93937, Control_c, 0, 64, 41
1, 93951, Control_c, 0, 64, 41
1, 93966, Control_c, 0, 64, 40
1, 93981, Control_c, 0, 64, 38
1, 93997, Control_c, 0, 64, 37
1, 94012, Control_c, 0, 64, 35
1, 94027, Control_c, 0, 64, 34
1, 94028, Note_on_c, 0, 67, 74
1, 94036, Note_on_c, 0, 76, 88
1, 94039, Note_off_c, 0, 66, 62
1, 94041, Control_c, 0, 64, 33
1, 94078, Note_off_c, 0, 76, 69
1, 94086, Control_c, 0, 64, 34
1, 94101, Control_c, 0, 64, 34
1, 94103, Note_off_c, 0, 67, 58
1, 94115, Control_c, 0, 64, 35
1, 94130, Control_c, 0, 64, 36
1, 94136, Note_on_c, 0, 64, 75
1, 94145, Control_c, 0, 64, 36
1, 94160, Control_c, 0, 64, 37
1, 94174, Control_c, 0, 64, 37
1, 94189, Control_c, 0, 64, 38
1, 94219, Control_c, 0, 64, 38
1, 94249, Control_c, 0, 64, 39
1, 94249, Note_off_c, 0, 64, 63
1, 94258, Note_on_c, 0, 66, 77
1, 94260, Note_on_c, 0, 75, 91
1, 94264, Control_c, 0, 64, 39
1, 94279, Control_c, 0, 64, 40
1, 94294, Control_c, 0, 64, 40
1, 94308, Control_c, 0, 64, 41
1, 94338, Control_c, 0, 64, 41
1, 94338, Note_off_c, 0, 75, 61
1, 94353, Note_off_c, 0, 66, 58
1, 94365, Note_on_c, 0, 64, 74
1, 94382, Control_c, 0, 64, 40
1, 94396, Control_c, 0, 64, 40
1, 94411, Control_c, 0, 64, 38
1, 94426, Control_c, 0, 64, 37
1, 94440, Control_c, 0, 64, 36
1, 94455, Control_c, 0, 64, 35
1, 94470, Control_c, 0, 64, 34
1, 94485, Control_c, 0, 64, 34
1, 94494, Note_on_c, 0, 84, 97
1, 94496, Note_on_c, 0, 66, 74
1, 94496, Note_off_c, 0, 64, 63
1, 94544, Control_c, 0, 64, 33
1, 94574, Control_c, 0, 64, 32
1, 94589, Control_c, 0, 64, 32
1, 94604, Control_c, 0, 64, 31
1, 94606, Note_off_c, 0, 66, 64
1, 94614, Note_on_c, 0, 67, 66
1, 94626, Control_c, 0, 64, 29
1, 94640, Control_c, 0, 64, 28
1, 94655, Control_c, 0, 64, 27
1, 94670, Control_c, 0, 64, 26
1, 94706, Note_off_c, 0, 67, 60
1, 94715, Note_on_c, 0, 69, 75
1, 94744, Control_c, 0, 64, 27
1, 94804, Control_c, 0, 64, 26
1, 94822, Note_on_c, 0, 66, 80
1, 94822, Note_off_c, 0, 69, 63
1, 94834, Control_c, 0, 64, 25
1, 94849, Control_c, 0, 64, 24
1, 94863, Control_c, 0, 64, 23
1, 94878, Control_c, 0, 64, 20
1, 94893, Control_c, 0, 64, 18
1, 94943, Note_on_c, 0, 83, 86
1, 94943, Note_off_c, 0, 84, 60
1, 94948, Note_on_c, 0, 67, 82
1, 94952, Note_off_c, 0, 66, 65
1, 94952, Control_c, 0, 64, 20
1, 94967, Control_c, 0, 64, 21
1, 94982, Control_c, 0, 64, 23
1, 95012, Control_c, 0, 64, 24
1, 95015, Note_off_c, 0, 83, 57
1, 95025, Note_off_c, 0, 67, 59
1, 95027, Control_c, 0, 64, 26
1, 95056, Control_c, 0, 64, 27
1, 95145, Control_c, 0, 64, 28
1, 95175, Control_c, 0, 64, 29
1, 95196, Note_on_c, 0, 84, 83
1, 95207, Note_on_c, 0, 69, 73
1, 95219, Control_c, 0, 64, 29
1, 95278, Control_c, 0, 64, 29
1, 95304, Note_on_c, 0, 83, 81
1, 95306, Note_off_c, 0, 84, 63
1, 95307, Control_c, 0, 64, 29
1, 95309, Note_on_c, 0, 67, 76
1, 95311, Note_off_c, 0, 69, 63
1, 95360, Control_c, 0, 64, 30
1, 95404, Control_c, 0, 64, 31
1, 95428, Note_on_c, 0, 81, 82
1, 95432, Note_off_c, 0, 67, 62
1, 95432, Note_on_c, 0, 66, 79
1, 95449, Control_c, 0, 64, 32
1, 95459, Note_off_c, 0, 83, 30
1, 95508, Control_c, 0, 64, 31
1, 95519, Note_off_c, 0, 81, 61
1, 95530, Note_on_c, 0, 79, 83
1, 95531, Note_off_c, 0, 66, 66
1, 95535, Note_on_c, 0, 64, 75
1, 95537, Control_c, 0, 64, 30
1, 95632, Note_off_c, 0, 64, 64
1, 95660, Note_on_c, 0, 69, 89
1, 95664, Note_on_c, 0, 78, 83
1, 95665, Note_off_c, 0, 79, 62
1, 95686, Control_c, 0, 64, 31
1, 95735, Note_off_c, 0, 78, 61
1, 95760, Control_c, 0, 64, 32
1, 95775, Control_c, 0, 64, 32
1, 95790, Control_c, 0, 64, 33
1, 95820, Control_c, 0, 64, 34
1, 95906, Note_on_c, 0, 81, 79
1, 96016, Note_off_c, 0, 81, 60
1, 96019, Note_on_c, 0, 79, 81
1, 96142, Note_on_c, 0, 78, 84
1, 96172, Note_off_c, 0, 79, 51
1, 96247, Note_on_c, 0, 76, 82
1, 96249, Note_off_c, 0, 78, 62
1, 96272, Control_c, 0, 64, 33
1, 96365, Note_on_c, 0, 75, 90
1, 96375, Note_off_c, 0, 76, 59
1, 96375, Control_c, 0, 64, 34
1, 96408, Note_off_c, 0, 75, 66
1, 96435, Control_c, 0, 64, 34
1, 96450, Control_c, 0, 64, 35
1, 96458, Note_off_c, 0, 69, 59
1, 96479, Note_on_c, 0, 67, 66
1, 96524, Control_c, 0, 64, 34
1, 96539, Control_c, 0, 64, 34
1, 96589, Note_off_c, 0, 67, 61
1, 96601, Note_on_c, 0, 81, 89
1, 96604, Note_on_c, 0, 66, 69
1, 96652, Note_off_c, 0, 81, 64
1, 96702, Control_c, 0, 64, 34
1, 96711, Note_off_c, 0, 66, 60
1, 96716, Control_c, 0, 64, 35
1, 96717, Note_on_c, 0, 69, 72
1, 96760, Control_c, 0, 64, 34
1, 96805, Control_c, 0, 64, 34
1, 96833, Note_off_c, 0, 69, 61
1, 96836, Note_on_c, 0, 79, 89
1, 96839, Note_on_c, 0, 64, 72
1, 96857, Control_c, 0, 64, 34
1, 96901, Control_c, 0, 64, 35
1, 96906, Note_off_c, 0, 79, 63
1, 96916, Control_c, 0, 64, 36
1, 96917, Note_off_c, 0, 64, 64
1, 96931, Control_c, 0, 64, 36
1, 96946, Control_c, 0, 64, 37
1, 96954, Note_on_c, 0, 69, 77
1, 96960, Control_c, 0, 64, 38
1, 96975, Control_c, 0, 64, 39
1, 97078, Note_off_c, 0, 69, 60
1, 97087, Note_on_c, 0, 78, 90
1, 97088, Note_on_c, 0, 63, 76
1, 97108, Control_c, 0, 64, 39
1, 97123, Control_c, 0, 64, 40
1, 97138, Control_c, 0, 64, 40
1, 97166, Note_off_c, 0, 78, 64
1, 97191, Note_on_c, 0, 69, 74
1, 97195, Note_off_c, 0, 63, 59
1, 97198, Control_c, 0, 64, 40
1, 97257, Control_c, 0, 64, 39
1, 97323, Note_on_c, 0, 61, 75
1, 97324, Note_on_c, 0, 76, 85
1, 97325, Note_off_c, 0, 69, 61
1, 97391, Control_c, 0, 64, 39
1, 97404, Note_off_c, 0, 76, 64
1, 97421, Control_c, 0, 64, 38
1, 97428, Note_on_c, 0, 69, 77
1, 97431, Note_off_c, 0, 61, 61
1, 97436, Control_c, 0, 64, 38
1, 97465, Control_c, 0, 64, 37
1, 97549, Note_on_c, 0, 59, 71
1, 97553, Note_off_c, 0, 69, 61
1, 97560, Note_on_c, 0, 75, 87
1, 97569, Control_c, 0, 64, 38
1, 97647, Note_off_c, 0, 75, 62
1, 97662, Note_off_c, 0, 59, 62
1, 97674, Note_on_c, 0, 69, 82
1, 97680, Control_c, 0, 64, 37
1, 97695, Control_c, 0, 64, 36
1, 97709, Control_c, 0, 64, 35
1, 97724, Control_c, 0, 64, 34
1, 97739, Control_c, 0, 64, 33
1, 97754, Control_c, 0, 64, 32
1, 97769, Control_c, 0, 64, 31
1, 97772, Note_off_c, 0, 69, 60
1, 97783, Control_c, 0, 64, 30
1, 97799, Note_on_c, 0, 76, 92
1, 97800, Note_on_c, 0, 67, 88
1, 97813, Control_c, 0, 64, 29
1, 97857, Control_c, 0, 64, 30
1, 97867, Note_off_c, 0, 76, 64
1, 97872, Control_c, 0, 64, 31
1, 97879, Note_off_c, 0, 67, 58
1, 97887, Control_c, 0, 64, 32
1, 97901, Control_c, 0, 64, 32
1, 97916, Control_c, 0, 64, 33
1, 98049, Note_on_c, 0, 74, 83
1, 98050, Note_on_c, 0, 66, 83
1, 98120, Note_off_c, 0, 74, 63
1, 98165, Note_on_c, 0, 67, 79
1, 98168, Note_off_c, 0, 66, 65
1, 98274, Control_c, 0, 64, 34
1, 98280, Note_on_c, 0, 72, 89
1, 98281, Note_on_c, 0, 69, 86
1, 98284, Note_off_c, 0, 67, 61
1, 98303, Control_c, 0, 64, 34
1, 98318, Control_c, 0, 64, 35
1, 98339, Note_off_c, 0, 72, 64
1, 98378, Note_off_c, 0, 69, 56
1, 98385, Control_c, 0, 64, 34
1, 98398, Note_on_c, 0, 67, 84
1, 98429, Control_c, 0, 64, 35
1, 98516, Note_on_c, 0, 74, 86
1, 98524, Note_on_c, 0, 66, 91
1, 98529, Note_off_c, 0, 67, 61
1, 98577, Control_c, 0, 64, 36
1, 98583, Note_off_c, 0, 74, 65
1, 98592, Control_c, 0, 64, 36
1, 98603, Note_off_c, 0, 66, 64
1, 98607, Control_c, 0, 64, 37
1, 98622, Control_c, 0, 64, 37
1, 98652, Control_c, 0, 64, 38
1, 98711, Control_c, 0, 64, 37
1, 98760, Note_on_c, 0, 72, 85
1, 98765, Note_on_c, 0, 64, 71
1, 98801, Control_c, 0, 64, 38
1, 98827, Note_off_c, 0, 72, 63
1, 98869, Note_off_c, 0, 64, 59
1, 98870, Note_on_c, 0, 66, 83
1, 98890, Control_c, 0, 64, 38
1, 98904, Control_c, 0, 64, 38
1, 98991, Note_on_c, 0, 67, 82
1, 98992, Note_on_c, 0, 71, 82
1, 99002, Note_off_c, 0, 66, 65
1, 99022, Control_c, 0, 64, 38
1, 99032, Note_off_c, 0, 71, 61
1, 99067, Control_c, 0, 64, 39
1, 99095, Note_off_c, 0, 67, 62
1, 99105, Note_on_c, 0, 66, 90
1, 99134, Control_c, 0, 64, 38
1, 99221, Note_on_c, 0, 64, 77
1, 99221, Note_off_c, 0, 66, 61
1, 99230, Note_on_c, 0, 72, 79
1, 99237, Control_c, 0, 64, 39
1, 99267, Control_c, 0, 64, 39
1, 99296, Note_off_c, 0, 64, 63
1, 99324, Note_off_c, 0, 72, 60
1, 99344, Note_on_c, 0, 84, 81
1, 99430, Control_c, 0, 64, 39
1, 99460, Control_c, 0, 64, 38
1, 99467, Note_on_c, 0, 83, 78
1, 99469, Note_off_c, 0, 84, 62
1, 99471, Note_on_c, 0, 66, 72
1, 99534, Note_off_c, 0, 66, 65
1, 99563, Control_c, 0, 64, 39
1, 99575, Note_on_c, 0, 81, 79
1, 99587, Note_off_c, 0, 83, 56
1, 99664, Note_off_c, 0, 81, 55
1, 99683, Control_c, 0, 64, 39
1, 99698, Control_c, 0, 64, 40
1, 99701, Note_on_c, 0, 79, 80
1, 99701, Note_on_c, 0, 67, 77
1, 99713, Control_c, 0, 64, 41
1, 99727, Control_c, 0, 64, 42
1, 99742, Control_c, 0, 64, 42
1, 99744, Note_off_c, 0, 67, 64
1, 99806, Note_on_c, 0, 83, 77
1, 99816, Control_c, 0, 64, 43
1, 99817, Note_off_c, 0, 79, 61
1, 99897, Note_off_c, 0, 83, 53
1, 99912, Control_c, 0, 64, 43
1, 99927, Control_c, 0, 64, 44
1, 99936, Note_on_c, 0, 81, 80
1, 99942, Control_c, 0, 64, 44
1, 99951, Note_on_c, 0, 72, 82
1, 99984, Note_off_c, 0, 72, 66
1, 100046, Note_on_c, 0, 83, 77
1, 100050, Note_off_c, 0, 81, 57
1, 100060, Control_c, 0, 64, 45
1, 100075, Control_c, 0, 64, 45
1, 100134, Control_c, 0, 64, 45
1, 100149, Control_c, 0, 64, 44
1, 100175, Note_on_c, 0, 63, 78
1, 100183, Note_on_c, 0, 81, 77
1, 100203, Note_off_c, 0, 83, 45
1, 100208, Control_c, 0, 64, 44
1, 100285, Note_off_c, 0, 81, 58
1, 100297, Control_c, 0, 64, 43
1, 100309, Note_on_c, 0, 79, 67
1, 100357, Control_c, 0, 64, 43
1, 100372, Control_c, 0, 64, 42
1, 100402, Control_c, 0, 64, 41
1, 100416, Control_c, 0, 64, 41
1, 100424, Note_off_c, 0, 79, 62
1, 100431, Control_c, 0, 64, 40
1, 100434, Note_on_c, 0, 78, 76
1, 100446, Control_c, 0, 64, 39
1, 100461, Control_c, 0, 64, 39
1, 100476, Control_c, 0, 64, 38
1, 100491, Control_c, 0, 64, 38
1, 100520, Control_c, 0, 64, 37
1, 100526, Note_off_c, 0, 78, 63
1, 100535, Control_c, 0, 64, 37
1, 100542, Note_on_c, 0, 81, 77
1, 100565, Control_c, 0, 64, 36
1, 100616, Control_c, 0, 64, 37
1, 100633, Note_off_c, 0, 81, 53
1, 100634, Note_off_c, 0, 63, 62
1, 100646, Control_c, 0, 64, 37
1, 100667, Note_on_c, 0, 64, 75
1, 100670, Note_on_c, 0, 79, 81
1, 100676, Control_c, 0, 64, 38
1, 100706, Control_c, 0, 64, 38
1, 100716, Note_off_c, 0, 64, 66
1, 100750, Control_c, 0, 64, 39
1, 100781, Note_off_c, 0, 79, 57
1, 100783, Note_on_c, 0, 81, 84
1, 100795, Control_c, 0, 64, 39
1, 100887, Note_off_c, 0, 81, 57
1, 100894, Note_on_c, 0, 79, 75
1, 100901, Note_on_c, 0, 66, 84
1, 100964, Note_off_c, 0, 66, 66
1, 100987, Control_c, 0, 64, 40
1, 101004, Note_off_c, 0, 79, 61
1, 101009, Note_on_c, 0, 78, 78
1, 101105, Control_c, 0, 64, 40
1, 101111, Note_off_c, 0, 78, 62
1, 101120, Control_c, 0, 64, 41
1, 101125, Note_on_c, 0, 76, 71
1, 101132, Note_on_c, 0, 67, 88
1, 101135, Control_c, 0, 64, 41
1, 101150, Control_c, 0, 64, 42
1, 101165, Control_c, 0, 64, 42
1, 101188, Note_off_c, 0, 67, 66
1, 101195, Control_c, 0, 64, 43
1, 101210, Control_c, 0, 64, 43
1, 101224, Control_c, 0, 64, 44
1, 101234, Note_on_c, 0, 79, 76
1, 101239, Control_c, 0, 64, 45
1, 101241, Note_off_c, 0, 76, 64
1, 101254, Control_c, 0, 64, 46
1, 101269, Control_c, 0, 64, 47
1, 101299, Control_c, 0, 64, 47
1, 101344, Control_c, 0, 64, 48
1, 101365, Control_c, 0, 64, 48
1, 101368, Note_on_c, 0, 69, 86
1, 101369, Note_on_c, 0, 78, 74
1, 101381, Note_off_c, 0, 79, 52
1, 101409, Note_off_c, 0, 69, 65
1, 101473, Note_off_c, 0, 78, 57
1, 101475, Note_on_c, 0, 79, 71
1, 101484, Control_c, 0, 64, 49
1, 101558, Control_c, 0, 64, 48
1, 101591, Note_on_c, 0, 78, 74
1, 101594, Note_off_c, 0, 79, 49
1, 101606, Note_on_c, 0, 59, 83
1, 101676, Control_c, 0, 64, 47
1, 101691, Control_c, 0, 64, 47
1, 101694, Note_off_c, 0, 78, 63
1, 101706, Control_c, 0, 64, 46
1, 101710, Note_on_c, 0, 76, 68
1, 101721, Control_c, 0, 64, 46
1, 101750, Control_c, 0, 64, 45
1, 101824, Control_c, 0, 64, 45
1, 101826, Note_off_c, 0, 76, 66
1, 101835, Note_on_c, 0, 75, 72
1, 101854, Control_c, 0, 64, 44
1, 101883, Control_c, 0, 64, 44
1, 101898, Control_c, 0, 64, 43
1, 101944, Note_on_c, 0, 78, 82
1, 101956, Note_off_c, 0, 75, 61
1, 101988, Control_c, 0, 64, 44
1, 102056, Note_off_c, 0, 78, 60
1, 102062, Note_on_c, 0, 76, 86
1, 102066, Note_off_c, 0, 59, 60
1, 102077, Note_on_c, 0, 60, 72
1, 102092, Control_c, 0, 64, 43
1, 102169, Note_off_c, 0, 60, 59
1, 102184, Note_on_c, 0, 59, 73
1, 102218, Control_c, 0, 64, 44
1, 102277, Control_c, 0, 64, 44
1, 102284, Note_off_c, 0, 59, 58
1, 102302, Note_on_c, 0, 57, 66
1, 102306, Note_on_c, 0, 78, 83
1, 102321, Note_off_c, 0, 76, 54
1, 102405, Note_on_c, 0, 59, 67
1, 102408, Note_off_c, 0, 57, 57
1, 102409, Note_off_c, 0, 78, 53
1, 102422, Note_on_c, 0, 79, 88
1, 102441, Control_c, 0, 64, 44
1, 102470, Control_c, 0, 64, 43
1, 102485, Control_c, 0, 64, 43
1, 102504, Note_off_c, 0, 79, 59
1, 102514, Control_c, 0, 64, 42
1, 102527, Note_off_c, 0, 59, 62
1, 102530, Note_on_c, 0, 60, 72
1, 102536, Note_on_c, 0, 81, 89
1, 102644, Note_off_c, 0, 60, 60
1, 102648, Note_on_c, 0, 62, 73
1, 102662, Control_c, 0, 64, 43
1, 102677, Control_c, 0, 64, 43
1, 102706, Control_c, 0, 64, 44
1, 102738, Note_off_c, 0, 62, 61
1, 102752, Note_on_c, 0, 64, 67
1, 102782, Control_c, 0, 64, 44
1, 102796, Control_c, 0, 64, 45
1, 102811, Control_c, 0, 64, 45
1, 102861, Note_off_c, 0, 64, 62
1, 102864, Note_on_c, 0, 63, 74
1, 102937, Control_c, 0, 64, 46
1, 102944, Note_off_c, 0, 81, 57
1, 102952, Control_c, 0, 64, 46
1, 102967, Control_c, 0, 64, 47
1, 102980, Note_off_c, 0, 63, 64
1, 102982, Note_on_c, 0, 64, 70
1, 102989, Note_on_c, 0, 79, 86
1, 103026, Control_c, 0, 64, 47
1, 103072, Note_off_c, 0, 64, 53
1, 103072, Note_off_c, 0, 79, 63
1, 103085, Control_c, 0, 64, 48
1, 103087, Note_on_c, 0, 81, 85
1, 103096, Note_on_c, 0, 66, 75
1, 103115, Control_c, 0, 64, 48
1, 103174, Control_c, 0, 64, 49
1, 103189, Control_c, 0, 64, 50
1, 103198, Note_off_c, 0, 66, 65
1, 103201, Note_on_c, 0, 67, 74
1, 103202, Note_on_c, 0, 83, 90
1, 103204, Control_c, 0, 64, 50
1, 103204, Note_off_c, 0, 81, 41
1, 103219, Control_c, 0, 64, 51
1, 103233, Control_c, 0, 64, 52
1, 103263, Control_c, 0, 64, 52
1, 103290, Note_off_c, 0, 67, 62
1, 103296, Note_on_c, 0, 69, 80
1, 103308, Control_c, 0, 64, 53
1, 103317, Note_off_c, 0, 69, 71
1, 103396, Control_c, 0, 64, 52
1, 103424, Note_on_c, 0, 71, 87
1, 103455, Control_c, 0, 64, 52
1, 103470, Control_c, 0, 64, 51
1, 103484, Note_off_c, 0, 83, 54
1, 103485, Control_c, 0, 64, 51
1, 103500, Control_c, 0, 64, 49
1, 103514, Control_c, 0, 64, 49
1, 103529, Control_c, 0, 64, 48
1, 103537, Note_on_c, 0, 47, 62
1, 103544, Control_c, 0, 64, 47
1, 103597, Control_c, 0, 64, 47
1, 103612, Note_on_c, 0, 49, 69
1, 103612, Control_c, 0, 64, 46
1, 103615, Note_off_c, 0, 47, 65
1, 103642, Control_c, 0, 64, 45
1, 103657, Control_c, 0, 64, 44
1, 103667, Note_on_c, 0, 81, 94
1, 103672, Control_c, 0, 64, 43
1, 103681, Note_off_c, 0, 49, 63
1, 103685, Note_on_c, 0, 51, 67
1, 103687, Control_c, 0, 64, 42
1, 103716, Control_c, 0, 64, 42
1, 103749, Note_off_c, 0, 81, 61
1, 103760, Control_c, 0, 64, 42
1, 103769, Note_off_c, 0, 51, 60
1, 103773, Note_on_c, 0, 47, 67
1, 103775, Control_c, 0, 64, 43
1, 103790, Control_c, 0, 64, 43
1, 103877, Note_off_c, 0, 47, 64
1, 103878, Control_c, 0, 64, 44
1, 103886, Note_on_c, 0, 52, 72
1, 103892, Note_on_c, 0, 79, 89
1, 103893, Control_c, 0, 64, 44
1, 103923, Control_c, 0, 64, 45
1, 103952, Control_c, 0, 64, 46
1, 103953, Note_off_c, 0, 52, 61
1, 103962, Note_off_c, 0, 71, 51
1, 103967, Control_c, 0, 64, 47
1, 103982, Control_c, 0, 64, 47
1, 103994, Note_off_c, 0, 79, 54
1, 103994, Note_on_c, 0, 47, 68
1, 103997, Control_c, 0, 64, 49
1, 104012, Control_c, 0, 64, 50
1, 104026, Control_c, 0, 64, 52
1, 104041, Control_c, 0, 64, 53
1, 104056, Control_c, 0, 64, 54
1, 104105, Note_off_c, 0, 47, 64
1, 104109, Note_on_c, 0, 54, 64
1, 104120, Note_on_c, 0, 78, 89
1, 104145, Control_c, 0, 64, 53
1, 104160, Control_c, 0, 64, 51
1, 104175, Control_c, 0, 64, 45
1, 104184, Note_off_c, 0, 78, 63
1, 104190, Control_c, 0, 64, 32
1, 104205, Control_c, 0, 64, 0
1, 104214, Note_off_c, 0, 54, 60
1, 104226, Note_on_c, 0, 47, 67
1, 104233, Note_on_c, 0, 79, 91
1, 104249, Control_c, 0, 64, 15
1, 104264, Control_c, 0, 64, 42
1, 104278, Control_c, 0, 64, 53
1, 104293, Control_c, 0, 64, 58
1, 104305, Note_off_c, 0, 79, 62
1, 104308, Control_c, 0, 64, 61
1, 104323, Control_c, 0, 64, 62
1, 104345, Note_off_c, 0, 47, 64
1, 104345, Control_c, 0, 64, 64
1, 104352, Note_on_c, 0, 81, 84
1, 104355, Note_on_c, 0, 72, 73
1, 104358, Note_on_c, 0, 55, 62
1, 104360, Control_c, 0, 64, 64
1, 104375, Control_c, 0, 64, 65
1, 104381, Note_off_c, 0, 72, 70
1, 104405, Control_c, 0, 64, 64
1, 104406, Note_off_c, 0, 81, 62
1, 104420, Control_c, 0, 64, 64
1, 104435, Control_c, 0, 64, 62
1, 104437, Note_off_c, 0, 55, 61
1, 104450, Control_c, 0, 64, 61
1, 104464, Note_on_c, 0, 47, 70
1, 104465, Control_c, 0, 64, 58
1, 104479, Control_c, 0, 64, 55
1, 104494, Control_c, 0, 64, 52
1, 104509, Control_c, 0, 64, 47
1, 104524, Control_c, 0, 64, 40
1, 104539, Control_c, 0, 64, 32
1, 104554, Control_c, 0, 64, 20
1, 104559, Note_off_c, 0, 47, 63
1, 104568, Control_c, 0, 64, 0
1, 104575, Note_on_c, 0, 57, 68
1, 104578, Note_on_c, 0, 75, 80
1, 104629, Note_on_c, 0, 66, 44
1, 104678, Note_off_c, 0, 57, 57
1, 104681, Note_on_c, 0, 47, 66
1, 104724, Note_off_c, 0, 66, 45
1, 104727, Note_off_c, 0, 75, 64
1, 104768, Note_off_c, 0, 47, 59
1, 104790, Control_c, 0, 64, 15
1, 104798, Note_on_c, 0, 55, 60
1, 104803, Note_on_c, 0, 76, 80
1, 104805, Control_c, 0, 64, 20
1, 104812, Note_on_c, 0, 64, 68
1, 104820, Control_c, 0, 64, 24
1, 104835, Control_c, 0, 64, 29
1, 104847, Note_off_c, 0, 64, 58
1, 104849, Control_c, 0, 64, 32
1, 104864, Control_c, 0, 64, 34
1, 104879, Control_c, 0, 64, 35
1, 104885, Note_off_c, 0, 55, 65
1, 104894, Control_c, 0, 64, 36
1, 104897, Note_on_c, 0, 54, 63
1, 104909, Control_c, 0, 64, 38
1, 104909, Note_on_c, 0, 66, 82
1, 104924, Control_c, 0, 64, 40
1, 104939, Control_c, 0, 64, 42
1, 104953, Control_c, 0, 64, 44
1, 104968, Control_c, 0, 64, 45
1, 104983, Control_c, 0, 64, 46
1, 104995, Note_off_c, 0, 54, 61
1, 104998, Control_c, 0, 64, 47
1, 105013, Control_c, 0, 64, 48
1, 105020, Note_on_c, 0, 52, 56
1, 105022, Note_off_c, 0, 76, 48
1, 105028, Control_c, 0, 64, 48
1, 105032, Note_off_c, 0, 66, 64
1, 105038, Note_on_c, 0, 67, 75
1, 105099, Note_off_c, 0, 52, 65
1, 105108, Control_c, 0, 64, 49
1, 105138, Note_on_c, 0, 55, 60
1, 105228, Control_c, 0, 64, 48
1, 105246, Note_off_c, 0, 55, 62
1, 105258, Control_c, 0, 64, 48
1, 105264, Note_on_c, 0, 50, 57
1, 105272, Control_c, 0, 64, 47
1, 105284, Note_on_c, 0, 71, 70
1, 105287, Control_c, 0, 64, 47
1, 105302, Control_c, 0, 64, 46
1, 105317, Control_c, 0, 64, 44
1, 105347, Control_c, 0, 64, 44
1, 105350, Note_off_c, 0, 50, 60
1, 105362, Control_c, 0, 64, 43
1, 105364, Note_off_c, 0, 71, 60
1, 105371, Note_on_c, 0, 55, 60
1, 105377, Control_c, 0, 64, 43
1, 105391, Control_c, 0, 64, 42
1, 105406, Control_c, 0, 64, 42
1, 105436, Control_c, 0, 64, 41
1, 105465, Control_c, 0, 64, 41
1, 105485, Note_off_c, 0, 55, 58
1, 105499, Note_on_c, 0, 69, 72
1, 105501, Note_on_c, 0, 49, 56
1, 105508, Note_off_c, 0, 67, 56
1, 105594, Note_off_c, 0, 49, 61
1, 105598, Control_c, 0, 64, 40
1, 105613, Note_on_c, 0, 55, 62
1, 105616, Note_on_c, 0, 66, 64
1, 105628, Control_c, 0, 64, 40
1, 105642, Control_c, 0, 64, 39
1, 105657, Control_c, 0, 64, 39
1, 105687, Control_c, 0, 64, 38
1, 105702, Control_c, 0, 64, 38
1, 105725, Note_off_c, 0, 55, 60
1, 105728, Note_on_c, 0, 64, 66
1, 105729, Note_off_c, 0, 66, 65
1, 105731, Control_c, 0, 64, 37
1, 105745, Note_on_c, 0, 47, 54
1, 105746, Control_c, 0, 64, 37
1, 105821, Note_off_c, 0, 64, 64
1, 105824, Note_off_c, 0, 47, 64
1, 105837, Note_on_c, 0, 62, 65
1, 105857, Note_on_c, 0, 55, 63
1, 105887, Control_c, 0, 64, 37
1, 105965, Note_off_c, 0, 62, 62
1, 105970, Note_off_c, 0, 55, 62
1, 105970, Note_on_c, 0, 61, 72
1, 105977, Note_on_c, 0, 45, 62
1, 105992, Control_c, 0, 64, 38
1, 106007, Control_c, 0, 64, 38
1, 106021, Control_c, 0, 64, 39
1, 106036, Control_c, 0, 64, 41
1, 106051, Control_c, 0, 64, 42
1, 106066, Control_c, 0, 64, 43
1, 106068, Note_off_c, 0, 45, 62
1, 106074, Note_off_c, 0, 61, 64
1, 106079, Note_on_c, 0, 64, 77
1, 106081, Control_c, 0, 64, 44
1, 106086, Note_off_c, 0, 69, 48
1, 106095, Note_on_c, 0, 55, 59
1, 106095, Control_c, 0, 64, 45
1, 106110, Control_c, 0, 64, 45
1, 106140, Control_c, 0, 64, 46
1, 106155, Control_c, 0, 64, 46
1, 106181, Note_off_c, 0, 64, 61
1, 106183, Note_off_c, 0, 55, 56
1, 106185, Control_c, 0, 64, 47
1, 106190, Note_on_c, 0, 62, 83
1, 106191, Note_on_c, 0, 54, 66
1, 106214, Control_c, 0, 64, 47
1, 106229, Control_c, 0, 64, 48
1, 106300, Note_on_c, 0, 64, 79
1, 106300, Note_off_c, 0, 54, 62
1, 106307, Note_on_c, 0, 52, 70
1, 106315, Note_off_c, 0, 62, 58
1, 106318, Control_c, 0, 64, 49
1, 106377, Control_c, 0, 64, 49
1, 106392, Control_c, 0, 64, 50
1, 106400, Note_off_c, 0, 52, 63
1, 106407, Control_c, 0, 64, 51
1, 106419, Note_on_c, 0, 50, 65
1, 106421, Control_c, 0, 64, 51
1, 106432, Note_on_c, 0, 66, 70
1, 106434, Note_off_c, 0, 64, 61
1, 106436, Control_c, 0, 64, 52
1, 106451, Control_c, 0, 64, 53
1, 106492, Note_off_c, 0, 50, 63
1, 106510, Control_c, 0, 64, 53
1, 106538, Note_on_c, 0, 54, 62
1, 106554, Control_c, 0, 64, 53
1, 106621, Control_c, 0, 64, 52
1, 106636, Control_c, 0, 64, 52
1, 106657, Note_off_c, 0, 54, 60
1, 106666, Control_c, 0, 64, 51
1, 106670, Note_on_c, 0, 69, 72
1, 106676, Note_on_c, 0, 49, 58
1, 106680, Control_c, 0, 64, 50
1, 106695, Control_c, 0, 64, 50
1, 106710, Control_c, 0, 64, 49
1, 106725, Control_c, 0, 64, 48
1, 106740, Control_c, 0, 64, 47
1, 106754, Control_c, 0, 64, 46
1, 106763, Note_off_c, 0, 49, 57
1, 106770, Control_c, 0, 64, 46
1, 106772, Note_on_c, 0, 54, 60
1, 106785, Control_c, 0, 64, 45
1, 106787, Note_off_c, 0, 69, 61
1, 106800, Control_c, 0, 64, 45
1, 106810, Note_off_c, 0, 66, 26
1, 106830, Control_c, 0, 64, 44
1, 106885, Note_off_c, 0, 54, 57
1, 106889, Control_c, 0, 64, 44
1, 106892, Note_on_c, 0, 67, 69
1, 106903, Control_c, 0, 64, 43
1, 106905, Note_on_c, 0, 47, 58
1, 106918, Control_c, 0, 64, 43
1, 106933, Control_c, 0, 64, 42
1, 106984, Note_off_c, 0, 47, 64
1, 107013, Note_on_c, 0, 54, 54
1, 107014, Note_on_c, 0, 64, 63
1, 107037, Control_c, 0, 64, 42
1, 107052, Control_c, 0, 64, 41
1, 107098, Note_off_c, 0, 64, 58
1, 107111, Control_c, 0, 64, 42
1, 107118, Note_on_c, 0, 62, 65
1, 107126, Note_off_c, 0, 54, 59
1, 107127, Note_on_c, 0, 45, 54
1, 107192, Note_off_c, 0, 62, 58
1, 107207, Note_off_c, 0, 45, 64
1, 107233, Note_on_c, 0, 61, 66
1, 107246, Note_on_c, 0, 54, 57
1, 107302, Control_c, 0, 64, 42
1, 107339, Control_c, 0, 64, 43
1, 107350, Note_off_c, 0, 54, 58
1, 107352, Note_on_c, 0, 59, 74
1, 107354, Control_c, 0, 64, 44
1, 107356, Note_off_c, 0, 61, 58
1, 107363, Note_on_c, 0, 43, 63
1, 107368, Control_c, 0, 64, 44
1, 107398, Control_c, 0, 64, 45
1, 107413, Control_c, 0, 64, 46
1, 107428, Control_c, 0, 64, 47
1, 107442, Control_c, 0, 64, 48
1, 107443, Note_off_c, 0, 43, 60
1, 107457, Control_c, 0, 64, 48
1, 107466, Note_on_c, 0, 54, 62
1, 107470, Note_on_c, 0, 62, 74
1, 107470, Note_off_c, 0, 59, 60
1, 107472, Control_c, 0, 64, 49
1, 107502, Control_c, 0, 64, 49
1, 107508, Note_off_c, 0, 54, 62
1, 107517, Control_c, 0, 64, 50
1, 107580, Note_on_c, 0, 52, 63
1, 107590, Note_on_c, 0, 61, 76
1, 107601, Note_off_c, 0, 62, 56
1, 107606, Control_c, 0, 64, 49
1, 107656, Note_off_c, 0, 67, 45
1, 107684, Note_off_c, 0, 52, 65
1, 107696, Control_c, 0, 64, 50
1, 107696, Note_on_c, 0, 62, 78
1, 107699, Note_off_c, 0, 61, 61
1, 107700, Note_on_c, 0, 50, 65
1, 107725, Control_c, 0, 64, 49
1, 107740, Control_c, 0, 64, 49
1, 107794, Note_off_c, 0, 50, 59
1, 107806, Note_off_c, 0, 62, 56
1, 107814, Note_on_c, 0, 64, 71
1, 107819, Note_on_c, 0, 49, 61
1, 107911, Note_off_c, 0, 49, 60
1, 107934, Note_on_c, 0, 52, 63
1, 108022, Control_c, 0, 64, 49
1, 108035, Note_on_c, 0, 67, 72
1, 108035, Note_off_c, 0, 52, 62
1, 108051, Note_on_c, 0, 47, 59
1, 108051, Control_c, 0, 64, 50
1, 108089, Control_c, 0, 64, 50
1, 108112, Note_off_c, 0, 67, 60
1, 108123, Note_off_c, 0, 64, 39
1, 108128, Note_off_c, 0, 47, 64
1, 108148, Control_c, 0, 64, 51
1, 108160, Note_on_c, 0, 52, 64
1, 108178, Control_c, 0, 64, 51
1, 108207, Control_c, 0, 64, 52
1, 108265, Note_on_c, 0, 66, 69
1, 108268, Note_off_c, 0, 52, 61
1, 108281, Control_c, 0, 64, 51
1, 108295, Note_on_c, 0, 46, 59
1, 108310, Control_c, 0, 64, 51
1, 108371, Control_c, 0, 64, 50
1, 108390, Note_off_c, 0, 46, 56
1, 108393, Note_on_c, 0, 62, 64
1, 108398, Note_on_c, 0, 52, 60
1, 108445, Control_c, 0, 64, 51
1, 108474, Note_off_c, 0, 62, 50
1, 108491, Note_off_c, 0, 52, 64
1, 108503, Note_on_c, 0, 61, 63
1, 108507, Note_on_c, 0, 44, 55
1, 108578, Control_c, 0, 64, 51
1, 108587, Note_off_c, 0, 44, 61
1, 108599, Note_off_c, 0, 61, 62
1, 108614, Note_on_c, 0, 59, 60
1, 108618, Note_on_c, 0, 52, 62
1, 108653, Control_c, 0, 64, 52
1, 108665, Note_off_c, 0, 66, 37
1, 108682, Control_c, 0, 64, 52
1, 108697, Control_c, 0, 64, 53
1, 108712, Control_c, 0, 64, 54
1, 108721, Note_off_c, 0, 52, 62
1, 108724, Note_off_c, 0, 59, 60
1, 108727, Control_c, 0, 64, 54
1, 108730, Note_on_c, 0, 42, 49
1, 108730, Note_on_c, 0, 58, 68
1, 108741, Control_c, 0, 64, 55
1, 108756, Control_c, 0, 64, 56
1, 108771, Control_c, 0, 64, 56
1, 108786, Control_c, 0, 64, 57
1, 108801, Control_c, 0, 64, 57
1, 108815, Control_c, 0, 64, 58
1, 108816, Note_off_c, 0, 42, 62
1, 108838, Control_c, 0, 64, 58
1, 108849, Note_on_c, 0, 61, 65
1, 108852, Note_on_c, 0, 52, 58
1, 108852, Control_c, 0, 64, 59
1, 108855, Note_off_c, 0, 58, 62
1, 108867, Control_c, 0, 64, 60
1, 108882, Control_c, 0, 64, 60
1, 108912, Control_c, 0, 64, 61
1, 108927, Control_c, 0, 64, 61
1, 108944, Note_off_c, 0, 61, 63
1, 108947, Note_off_c, 0, 52, 58
1, 108959, Note_on_c, 0, 59, 57
1, 108975, Note_on_c, 0, 50, 53
1, 108986, Control_c, 0, 64, 62
1, 108990, Note_off_c, 0, 59, 64
1, 109015, Control_c, 0, 64, 61
1, 109030, Control_c, 0, 64, 61
1, 109045, Control_c, 0, 64, 60
1, 109059, Control_c, 0, 64, 59
1, 109074, Control_c, 0, 64, 58
1, 109075, Note_off_c, 0, 50, 60
1, 109079, Note_on_c, 0, 54, 63
1, 109088, Note_on_c, 0, 71, 66
1, 109104, Control_c, 0, 64, 58
1, 109119, Control_c, 0, 64, 57
1, 109148, Control_c, 0, 64, 57
1, 109164, Control_c, 0, 64, 56
1, 109180, Note_off_c, 0, 71, 48
1, 109181, Note_off_c, 0, 54, 62
1, 109187, Note_on_c, 0, 52, 64
1, 109194, Control_c, 0, 64, 56
1, 109200, Note_on_c, 0, 73, 67
1, 109268, Control_c, 0, 64, 55
1, 109289, Note_off_c, 0, 52, 64
1, 109297, Control_c, 0, 64, 55
1, 109299, Note_off_c, 0, 73, 48
1, 109308, Note_on_c, 0, 71, 70
1, 109314, Note_on_c, 0, 50, 58
1, 109416, Note_off_c, 0, 50, 63
1, 109428, Note_off_c, 0, 71, 48
1, 109431, Note_on_c, 0, 49, 63
1, 109435, Note_on_c, 0, 70, 71
1, 109537, Note_off_c, 0, 70, 60
1, 109540, Note_off_c, 0, 49, 62
1, 109541, Note_on_c, 0, 71, 77
1, 109547, Note_on_c, 0, 47, 63
1, 109654, Note_off_c, 0, 47, 63
1, 109659, Note_off_c, 0, 71, 57
1, 109661, Note_on_c, 0, 73, 79
1, 109666, Note_on_c, 0, 46, 61
1, 109675, Control_c, 0, 64, 55
1, 109746, Note_off_c, 0, 73, 53
1, 109774, Note_off_c, 0, 46, 63
1, 109777, Note_on_c, 0, 49, 71
1, 109838, Control_c, 0, 64, 55
1, 109868, Control_c, 0, 64, 54
1, 109892, Note_off_c, 0, 49, 63
1, 109897, Control_c, 0, 64, 54
1, 109899, Note_on_c, 0, 47, 77
1, 109900, Note_on_c, 0, 74, 79
1, 109912, Control_c, 0, 64, 53
1, 109927, Control_c, 0, 64, 52
1, 109942, Control_c, 0, 64, 51
1, 109958, Control_c, 0, 64, 50
1, 109973, Control_c, 0, 64, 48
1, 109987, Control_c, 0, 64, 46
1, 110002, Control_c, 0, 64, 43
1, 110006, Note_on_c, 0, 73, 80
1, 110007, Note_off_c, 0, 47, 64
1, 110008, Note_on_c, 0, 46, 75
1, 110017, Control_c, 0, 64, 40
1, 110032, Control_c, 0, 64, 36
1, 110046, Note_off_c, 0, 74, 54
1, 110047, Control_c, 0, 64, 32
1, 110061, Control_c, 0, 64, 29
1, 110076, Control_c, 0, 64, 24
1, 110091, Control_c, 0, 64, 15
1, 110105, Control_c, 0, 64, 0
1, 110121, Note_on_c, 0, 71, 80
1, 110122, Note_on_c, 0, 44, 78
1, 110122, Note_off_c, 0, 46, 63
1, 110126, Note_off_c, 0, 73, 45
1, 110230, Note_on_c, 0, 42, 72
1, 110231, Note_on_c, 0, 73, 83
1, 110234, Note_off_c, 0, 71, 53
1, 110239, Note_off_c, 0, 44, 58
1, 110340, Note_off_c, 0, 73, 51
1, 110357, Note_on_c, 0, 74, 86
1, 110357, Note_off_c, 0, 42, 64
1, 110358, Note_on_c, 0, 47, 87
1, 110420, Note_off_c, 0, 47, 64
1, 110420, Note_off_c, 0, 74, 65
1, 110438, Control_c, 0, 64, 10
1, 110453, Control_c, 0, 64, 15
1, 110468, Control_c, 0, 64, 18
1, 110483, Control_c, 0, 64, 21
1, 110498, Control_c, 0, 64, 23
1, 110543, Control_c, 0, 64, 21
1, 110558, Control_c, 0, 64, 20
1, 110587, Control_c, 0, 64, 18
1, 110611, Note_on_c, 0, 73, 87
1, 110625, Note_on_c, 0, 49, 79
1, 110683, Note_off_c, 0, 73, 65
1, 110706, Control_c, 0, 64, 20
1, 110730, Note_on_c, 0, 47, 81
1, 110733, Note_off_c, 0, 49, 63
1, 110735, Control_c, 0, 64, 21
1, 110796, Control_c, 0, 64, 20
1, 110825, Control_c, 0, 64, 18
1, 110838, Note_off_c, 0, 47, 63
1, 110851, Note_on_c, 0, 46, 77
1, 110853, Note_on_c, 0, 71, 85
1, 110854, Control_c, 0, 64, 20
1, 110870, Control_c, 0, 64, 21
1, 110885, Control_c, 0, 64, 24
1, 110900, Control_c, 0, 64, 26
1, 110906, Note_off_c, 0, 71, 60
1, 110915, Control_c, 0, 64, 27
1, 110929, Control_c, 0, 64, 28
1, 110944, Control_c, 0, 64, 29
1, 110945, Note_off_c, 0, 46, 62
1, 110957, Note_on_c, 0, 47, 76
1, 110959, Control_c, 0, 64, 32
1, 110974, Control_c, 0, 64, 35
1, 110989, Control_c, 0, 64, 38
1, 111003, Control_c, 0, 64, 40
1, 111018, Control_c, 0, 64, 40
1, 111049, Note_off_c, 0, 47, 62
1, 111099, Note_on_c, 0, 49, 56
1, 111100, Control_c, 0, 64, 41
1, 111109, Note_on_c, 0, 70, 88
1, 111130, Control_c, 0, 64, 41
1, 111144, Control_c, 0, 64, 42
1, 111174, Control_c, 0, 64, 41
1, 111186, Note_off_c, 0, 49, 59
1, 111189, Control_c, 0, 64, 41
1, 111192, Note_off_c, 0, 70, 52
1, 111204, Control_c, 0, 64, 40
1, 111218, Control_c, 0, 64, 40
1, 111233, Control_c, 0, 64, 39
1, 111262, Control_c, 0, 64, 39
1, 111277, Control_c, 0, 64, 38
1, 111292, Control_c, 0, 64, 38
1, 111307, Control_c, 0, 64, 37
1, 111322, Control_c, 0, 64, 36
1, 111336, Control_c, 0, 64, 35
1, 111339, Note_on_c, 0, 50, 64
1, 111347, Note_on_c, 0, 79, 87
1, 111351, Control_c, 0, 64, 34
1, 111396, Control_c, 0, 64, 34
1, 111425, Control_c, 0, 64, 33
1, 111440, Control_c, 0, 64, 32
1, 111448, Note_off_c, 0, 50, 60
1, 111459, Note_on_c, 0, 49, 65
1, 111470, Control_c, 0, 64, 31
1, 111485, Control_c, 0, 64, 30
1, 111499, Control_c, 0, 64, 29
1, 111571, Note_off_c, 0, 49, 62
1, 111579, Note_on_c, 0, 47, 76
1, 111619, Control_c, 0, 64, 30
1, 111677, Control_c, 0, 64, 29
1, 111686, Note_off_c, 0, 47, 64
1, 111689, Note_on_c, 0, 49, 79
1, 111692, Control_c, 0, 64, 28
1, 111707, Control_c, 0, 64, 25
1, 111722, Control_c, 0, 64, 21
1, 111737, Control_c, 0, 64, 18
1, 111751, Control_c, 0, 64, 15
1, 111766, Control_c, 0, 64, 13
1, 111781, Control_c, 0, 64, 10
1, 111796, Note_off_c, 0, 79, 59
1, 111802, Note_on_c, 0, 78, 85
1, 111814, Note_on_c, 0, 50, 80
1, 111817, Note_off_c, 0, 49, 61
1, 111848, Control_c, 0, 64, 13
1, 111863, Control_c, 0, 64, 15
1, 111876, Note_off_c, 0, 50, 60
1, 111878, Control_c, 0, 64, 17
1, 111890, Note_off_c, 0, 78, 63
1, 112040, Control_c, 0, 64, 18
1, 112070, Control_c, 0, 64, 20
1, 112077, Note_on_c, 0, 49, 77
1, 112077, Note_on_c, 0, 79, 76
1, 112099, Control_c, 0, 64, 21
1, 112143, Note_off_c, 0, 49, 63
1, 112182, Note_on_c, 0, 78, 82
1, 112188, Control_c, 0, 64, 23
1, 112221, Note_off_c, 0, 79, 59
1, 112309, Note_on_c, 0, 76, 76
1, 112320, Note_on_c, 0, 47, 81
1, 112322, Control_c, 0, 64, 24
1, 112352, Control_c, 0, 64, 25
1, 112358, Note_off_c, 0, 78, 49
1, 112367, Control_c, 0, 64, 26
1, 112396, Note_off_c, 0, 47, 64
1, 112409, Note_off_c, 0, 76, 66
1, 112412, Control_c, 0, 64, 27
1, 112417, Note_on_c, 0, 74, 73
1, 112427, Control_c, 0, 64, 28
1, 112441, Control_c, 0, 64, 29
1, 112456, Control_c, 0, 64, 29
1, 112486, Control_c, 0, 64, 30
1, 112519, Note_off_c, 0, 74, 62
1, 112540, Note_on_c, 0, 73, 82
1, 112545, Control_c, 0, 64, 32
1, 112549, Note_on_c, 0, 46, 83
1, 112560, Control_c, 0, 64, 33
1, 112575, Control_c, 0, 64, 35
1, 112596, Control_c, 0, 64, 36
1, 112610, Note_off_c, 0, 46, 63
1, 112611, Control_c, 0, 64, 37
1, 112632, Note_off_c, 0, 73, 56
1, 112686, Control_c, 0, 64, 38
1, 112701, Control_c, 0, 64, 38
1, 112715, Control_c, 0, 64, 39
1, 112760, Control_c, 0, 64, 39
1, 112775, Control_c, 0, 64, 40
1, 112789, Control_c, 0, 64, 41
1, 112804, Control_c, 0, 64, 42
1, 112813, Note_on_c, 0, 76, 79
1, 112819, Note_on_c, 0, 55, 86
1, 112819, Control_c, 0, 64, 43
1, 112833, Control_c, 0, 64, 44
1, 112848, Control_c, 0, 64, 45
1, 112863, Control_c, 0, 64, 45
1, 112893, Control_c, 0, 64, 45
1, 112922, Control_c, 0, 64, 44
1, 112938, Note_on_c, 0, 74, 70
1, 112939, Note_off_c, 0, 76, 55
1, 112952, Control_c, 0, 64, 44
1, 112967, Control_c, 0, 64, 43
1, 112981, Control_c, 0, 64, 42
1, 112996, Control_c, 0, 64, 42
1, 113011, Control_c, 0, 64, 41
1, 113026, Control_c, 0, 64, 40
1, 113041, Control_c, 0, 64, 39
1, 113054, Note_off_c, 0, 74, 64
1, 113056, Control_c, 0, 64, 38
1, 113059, Note_on_c, 0, 73, 73
1, 113070, Control_c, 0, 64, 38
1, 113085, Control_c, 0, 64, 36
1, 113100, Control_c, 0, 64, 36
1, 113115, Control_c, 0, 64, 34
1, 113130, Control_c, 0, 64, 33
1, 113145, Control_c, 0, 64, 32
1, 113160, Control_c, 0, 64, 32
1, 113165, Note_off_c, 0, 73, 62
1, 113173, Note_on_c, 0, 71, 65
1, 113175, Control_c, 0, 64, 31
1, 113219, Control_c, 0, 64, 30
1, 113286, Note_off_c, 0, 71, 55
1, 113291, Note_on_c, 0, 70, 71
1, 113294, Control_c, 0, 64, 29
1, 113299, Note_off_c, 0, 55, 60
1, 113303, Note_on_c, 0, 54, 60
1, 113400, Note_off_c, 0, 70, 48
1, 113411, Note_on_c, 0, 71, 68
1, 113414, Note_off_c, 0, 54, 59
1, 113422, Note_on_c, 0, 56, 58
1, 113464, Control_c, 0, 64, 29
1, 113509, Control_c, 0, 64, 29
1, 113528, Note_on_c, 0, 73, 79
1, 113534, Note_off_c, 0, 71, 33
1, 113534, Note_off_c, 0, 56, 59
1, 113538, Note_on_c, 0, 58, 61
1, 113553, Control_c, 0, 64, 30
1, 113641, Note_on_c, 0, 70, 72
1, 113646, Note_off_c, 0, 73, 55
1, 113653, Note_on_c, 0, 54, 53
1, 113656, Control_c, 0, 64, 31
1, 113660, Note_off_c, 0, 58, 62
1, 113717, Note_off_c, 0, 70, 57
1, 113762, Note_on_c, 0, 74, 73
1, 113770, Note_off_c, 0, 54, 61
1, 113771, Note_on_c, 0, 59, 55
1, 113775, Control_c, 0, 64, 32
1, 113837, Note_off_c, 0, 59, 59
1, 113848, Control_c, 0, 64, 32
1, 113880, Note_on_c, 0, 70, 58
1, 113894, Note_on_c, 0, 54, 58
1, 113900, Note_off_c, 0, 74, 55
1, 113908, Control_c, 0, 64, 33
1, 113967, Note_off_c, 0, 70, 59
1, 114000, Note_off_c, 0, 54, 61
1, 114012, Note_on_c, 0, 76, 78
1, 114018, Note_on_c, 0, 61, 61
1, 114027, Control_c, 0, 64, 34
1, 114106, Note_off_c, 0, 61, 53
1, 114116, Note_off_c, 0, 76, 65
1, 114135, Note_on_c, 0, 54, 62
1, 114144, Note_on_c, 0, 70, 66
1, 114228, Control_c, 0, 64, 34
1, 114242, Control_c, 0, 64, 35
1, 114248, Note_on_c, 0, 62, 60
1, 114252, Note_on_c, 0, 78, 81
1, 114257, Control_c, 0, 64, 36
1, 114260, Note_off_c, 0, 54, 60
1, 114272, Control_c, 0, 64, 36
1, 114291, Note_off_c, 0, 70, 59
1, 114348, Note_off_c, 0, 62, 58
1, 114361, Control_c, 0, 64, 37
1, 114369, Note_on_c, 0, 70, 61
1, 114381, Note_on_c, 0, 54, 58
1, 114394, Note_off_c, 0, 78, 59
1, 114475, Note_off_c, 0, 54, 54
1, 114494, Note_on_c, 0, 64, 60
1, 114494, Control_c, 0, 64, 36
1, 114495, Note_on_c, 0, 79, 81
1, 114524, Control_c, 0, 64, 36
1, 114527, Note_off_c, 0, 70, 53
1, 114571, Note_off_c, 0, 79, 60
1, 114573, Note_off_c, 0, 64, 61
1, 114609, Note_on_c, 0, 70, 72
1, 114611, Note_on_c, 0, 54, 55
1, 114628, Control_c, 0, 64, 36
1, 114658, Control_c, 0, 64, 37
1, 114717, Control_c, 0, 64, 36
1, 114730, Note_off_c, 0, 54, 61
1, 114734, Note_on_c, 0, 62, 58
1, 114737, Note_on_c, 0, 78, 78
1, 114760, Note_off_c, 0, 70, 56
1, 114763, Control_c, 0, 64, 37
1, 114829, Control_c, 0, 64, 36
1, 114836, Note_off_c, 0, 62, 58
1, 114866, Note_on_c, 0, 70, 74
1, 114870, Note_on_c, 0, 54, 58
1, 114889, Control_c, 0, 64, 37
1, 114903, Control_c, 0, 64, 37
1, 114918, Control_c, 0, 64, 38
1, 114944, Note_off_c, 0, 78, 47
1, 114948, Control_c, 0, 64, 38
1, 114972, Note_off_c, 0, 54, 55
1, 114972, Note_on_c, 0, 56, 57
1, 114978, Control_c, 0, 64, 39
1, 114981, Note_on_c, 0, 71, 69
1, 114990, Note_off_c, 0, 70, 51
1, 114992, Control_c, 0, 64, 39
1, 115007, Control_c, 0, 64, 40
1, 115022, Control_c, 0, 64, 41
1, 115036, Control_c, 0, 64, 41
1, 115051, Control_c, 0, 64, 42
1, 115063, Note_off_c, 0, 56, 62
1, 115081, Control_c, 0, 64, 43
1, 115082, Note_on_c, 0, 62, 60
1, 115088, Note_on_c, 0, 78, 72
1, 115096, Note_off_c, 0, 71, 61
1, 115096, Control_c, 0, 64, 43
1, 115125, Control_c, 0, 64, 44
1, 115148, Note_off_c, 0, 78, 66
1, 115152, Note_off_c, 0, 62, 49
1, 115172, Note_on_c, 0, 61, 63
1, 115182, Note_on_c, 0, 76, 68
1, 115184, Control_c, 0, 64, 43
1, 115199, Control_c, 0, 64, 43
1, 115214, Control_c, 0, 64, 42
1, 115228, Note_off_c, 0, 61, 61
1, 115244, Note_on_c, 0, 59, 67
1, 115244, Note_off_c, 0, 76, 64
1, 115246, Note_on_c, 0, 74, 68
1, 115298, Note_off_c, 0, 74, 65
1, 115302, Note_on_c, 0, 73, 72
1, 115318, Control_c, 0, 64, 43
1, 115333, Control_c, 0, 64, 43
1, 115336, Note_on_c, 0, 58, 67
1, 115336, Note_off_c, 0, 59, 58
1, 115362, Control_c, 0, 64, 44
1, 115366, Note_on_c, 0, 74, 75
1, 115383, Note_off_c, 0, 73, 61
1, 115406, Note_on_c, 0, 76, 81
1, 115408, Note_on_c, 0, 61, 70
1, 115408, Note_off_c, 0, 58, 63
1, 115419, Note_off_c, 0, 74, 65
1, 115420, Control_c, 0, 64, 43
1, 115435, Control_c, 0, 64, 43
1, 115450, Control_c, 0, 64, 42
1, 115465, Control_c, 0, 64, 42
1, 115479, Note_off_c, 0, 61, 60
1, 115480, Control_c, 0, 64, 41
1, 115495, Control_c, 0, 64, 41
1, 115522, Note_on_c, 0, 68, 82
1, 115525, Note_off_c, 0, 76, 54
1, 115540, Note_on_c, 0, 52, 70
1, 115634, Note_off_c, 0, 52, 64
1, 115640, Note_on_c, 0, 54, 66
1, 115640, Note_off_c, 0, 68, 59
1, 115641, Note_on_c, 0, 70, 76
1, 115681, Control_c, 0, 64, 41
1, 115711, Control_c, 0, 64, 42
1, 115720, Note_off_c, 0, 54, 62
1, 115725, Control_c, 0, 64, 42
1, 115735, Note_on_c, 0, 61, 71
1, 115738, Note_off_c, 0, 70, 60
1, 115740, Note_on_c, 0, 76, 82
1, 115740, Control_c, 0, 64, 43
1, 115755, Control_c, 0, 64, 43
1, 115770, Control_c, 0, 64, 44
1, 115781, Note_off_c, 0, 61, 54
1, 115818, Note_off_c, 0, 76, 66
1, 115824, Note_on_c, 0, 59, 62
1, 115828, Note_on_c, 0, 74, 70
1, 115858, Control_c, 0, 64, 44
1, 115886, Note_on_c, 0, 73, 63
1, 115893, Note_on_c, 0, 58, 76
1, 115897, Note_off_c, 0, 59, 62
1, 115922, Note_off_c, 0, 74, 63
1, 115949, Note_off_c, 0, 73, 64
1, 115950, Note_on_c, 0, 71, 75
1, 115977, Note_on_c, 0, 56, 67
1, 115977, Control_c, 0, 64, 43
1, 116007, Control_c, 0, 64, 43
1, 116013, Note_on_c, 0, 73, 73
1, 116022, Note_off_c, 0, 71, 60
1, 116029, Note_off_c, 0, 56, 63
1, 116036, Control_c, 0, 64, 42
1, 116051, Control_c, 0, 64, 42
1, 116054, Note_off_c, 0, 58, 65
1, 116066, Control_c, 0, 64, 41
1, 116072, Note_on_c, 0, 59, 63
1, 116077, Note_on_c, 0, 74, 84
1, 116081, Control_c, 0, 64, 40
1, 116084, Note_off_c, 0, 73, 65
1, 116096, Control_c, 0, 64, 40
1, 116125, Control_c, 0, 64, 39
1, 116183, Note_off_c, 0, 59, 59
1, 116216, Note_on_c, 0, 61, 60
1, 116229, Control_c, 0, 64, 39
1, 116258, Control_c, 0, 64, 38
1, 116297, Note_off_c, 0, 61, 54
1, 116303, Control_c, 0, 64, 38
1, 116340, Note_on_c, 0, 62, 77
1, 116421, Note_off_c, 0, 62, 56
1, 116454, Note_on_c, 0, 59, 57
1, 116504, Control_c, 0, 64, 38
1, 116548, Note_off_c, 0, 59, 58
1, 116578, Control_c, 0, 64, 39
1, 116585, Note_on_c, 0, 64, 80
1, 116608, Control_c, 0, 64, 39
1, 116622, Control_c, 0, 64, 40
1, 116664, Note_off_c, 0, 64, 59
1, 116667, Control_c, 0, 64, 40
1, 116696, Control_c, 0, 64, 41
1, 116711, Control_c, 0, 64, 41
1, 116720, Note_on_c, 0, 59, 46
1, 116770, Control_c, 0, 64, 42
1, 116778, Note_off_c, 0, 59, 54
1, 116835, Note_on_c, 0, 66, 83
1, 116889, Control_c, 0, 64, 42
1, 116924, Note_off_c, 0, 66, 60
1, 116963, Control_c, 0, 64, 43
1, 116974, Note_on_c, 0, 59, 45
1, 117022, Control_c, 0, 64, 43
1, 117037, Control_c, 0, 64, 44
1, 117047, Note_off_c, 0, 59, 53
1, 117052, Control_c, 0, 64, 44
1, 117067, Control_c, 0, 64, 45
1, 117083, Note_on_c, 0, 68, 84
1, 117089, Control_c, 0, 64, 46
1, 117104, Control_c, 0, 64, 47
1, 117118, Control_c, 0, 64, 47
1, 117148, Control_c, 0, 64, 48
1, 117164, Control_c, 0, 64, 48
1, 117173, Note_off_c, 0, 68, 61
1, 117208, Control_c, 0, 64, 49
1, 117211, Note_on_c, 0, 59, 51
1, 117335, Note_off_c, 0, 59, 38
1, 117341, Note_on_c, 0, 69, 82
1, 117351, Note_on_c, 0, 47, 59
1, 117371, Control_c, 0, 64, 49
1, 117422, Note_off_c, 0, 47, 63
1, 117460, Control_c, 0, 64, 50
1, 117464, Note_off_c, 0, 69, 46
1, 117467, Note_on_c, 0, 59, 60
1, 117543, Note_off_c, 0, 59, 53
1, 117581, Note_off_c, 0, 74, 48
1, 117585, Note_on_c, 0, 68, 84
1, 117598, Note_on_c, 0, 52, 62
1, 117661, Note_off_c, 0, 68, 64
1, 117668, Control_c, 0, 64, 49
1, 117700, Note_off_c, 0, 52, 64
1, 117720, Note_on_c, 0, 54, 59
1, 117742, Control_c, 0, 64, 49
1, 117771, Control_c, 0, 64, 48
1, 117836, Note_on_c, 0, 64, 81
1, 117853, Note_off_c, 0, 54, 61
1, 117854, Note_on_c, 0, 56, 64
1, 117868, Control_c, 0, 64, 49
1, 117902, Note_off_c, 0, 64, 59
1, 117953, Note_off_c, 0, 56, 62
1, 117968, Note_on_c, 0, 52, 64
1, 118078, Note_on_c, 0, 66, 87
1, 118078, Note_off_c, 0, 52, 64
1, 118089, Note_on_c, 0, 57, 66
1, 118147, Note_off_c, 0, 66, 65
1, 118178, Note_off_c, 0, 57, 59
1, 118198, Note_on_c, 0, 52, 71
1, 118239, Control_c, 0, 64, 48
1, 118254, Control_c, 0, 64, 47
1, 118269, Control_c, 0, 64, 47
1, 118320, Note_off_c, 0, 52, 64
1, 118326, Note_on_c, 0, 68, 91
1, 118327, Note_on_c, 0, 59, 67
1, 118373, Note_on_c, 0, 70, 17
1, 118380, Note_off_c, 0, 70, 41
1, 118394, Note_off_c, 0, 68, 64
1, 118403, Note_off_c, 0, 59, 59
1, 118438, Note_on_c, 0, 52, 73
1, 118461, Control_c, 0, 64, 47
1, 118586, Note_on_c, 0, 69, 91
1, 118588, Note_on_c, 0, 61, 68
1, 118595, Note_off_c, 0, 52, 62
1, 118602, Control_c, 0, 64, 48
1, 118644, Note_off_c, 0, 69, 64
1, 118655, Note_off_c, 0, 61, 60
1, 118691, Control_c, 0, 64, 47
1, 118699, Note_on_c, 0, 52, 69
1, 118735, Control_c, 0, 64, 47
1, 118781, Control_c, 0, 64, 46
1, 118796, Control_c, 0, 64, 46
1, 118806, Note_off_c, 0, 52, 62
1, 118821, Note_on_c, 0, 71, 85
1, 118821, Note_on_c, 0, 62, 74
1, 118825, Control_c, 0, 64, 45
1, 118840, Control_c, 0, 64, 44
1, 118855, Control_c, 0, 64, 44
1, 118880, Note_off_c, 0, 71, 59
1, 118884, Control_c, 0, 64, 43
1, 118899, Control_c, 0, 64, 42
1, 118915, Note_off_c, 0, 62, 53
1, 118928, Note_on_c, 0, 52, 74
1, 118944, Control_c, 0, 64, 42
1, 119030, Note_off_c, 0, 52, 59
1, 119032, Control_c, 0, 64, 41
1, 119045, Note_on_c, 0, 64, 72
1, 119059, Note_on_c, 0, 61, 88
1, 119135, Control_c, 0, 64, 42
1, 119154, Note_on_c, 0, 66, 72
1, 119159, Note_off_c, 0, 64, 61
1, 119193, Control_c, 0, 64, 42
1, 119229, Note_on_c, 0, 68, 71
1, 119236, Note_off_c, 0, 66, 64
1, 119292, Note_on_c, 0, 69, 82
1, 119327, Note_off_c, 0, 68, 62
1, 119364, Control_c, 0, 64, 42
1, 119387, Note_off_c, 0, 69, 60
1, 119396, Note_off_c, 0, 61, 61
1, 119402, Note_on_c, 0, 64, 77
1, 119403, Note_on_c, 0, 62, 69
1, 119423, Control_c, 0, 64, 42
1, 119482, Control_c, 0, 64, 43
1, 119491, Note_off_c, 0, 62, 60
1, 119497, Control_c, 0, 64, 43
1, 119512, Control_c, 0, 64, 44
1, 119524, Note_off_c, 0, 64, 59
1, 119525, Note_on_c, 0, 71, 79
1, 119527, Note_on_c, 0, 61, 63
1, 119527, Control_c, 0, 64, 44
1, 119599, Note_off_c, 0, 71, 59
1, 119602, Control_c, 0, 64, 45
1, 119630, Note_off_c, 0, 61, 62
1, 119632, Control_c, 0, 64, 45
1, 119638, Note_on_c, 0, 64, 75
1, 119647, Note_on_c, 0, 59, 63
1, 119676, Control_c, 0, 64, 45
1, 119706, Control_c, 0, 64, 44
1, 119739, Note_off_c, 0, 59, 58
1, 119759, Note_on_c, 0, 73, 78
1, 119760, Note_on_c, 0, 57, 76
1, 119771, Note_off_c, 0, 64, 33
1, 119780, Control_c, 0, 64, 45
1, 119824, Control_c, 0, 64, 44
1, 119859, Note_off_c, 0, 57, 60
1, 119864, Note_on_c, 0, 59, 71
1, 119869, Note_on_c, 0, 64, 78
1, 119880, Note_off_c, 0, 73, 52
1, 119913, Control_c, 0, 64, 45
1, 119928, Control_c, 0, 64, 45
1, 119958, Control_c, 0, 64, 46
1, 119972, Control_c, 0, 64, 47
1, 119977, Note_on_c, 0, 57, 77
1, 119977, Note_off_c, 0, 59, 61
1, 119983, Note_on_c, 0, 74, 77
1, 119984, Note_off_c, 0, 64, 51
1, 119987, Control_c, 0, 64, 47
1, 120016, Control_c, 0, 64, 48
1, 120046, Control_c, 0, 64, 48
1, 120054, Note_off_c, 0, 57, 62
1, 120061, Control_c, 0, 64, 49
1, 120080, Note_off_c, 0, 74, 61
1, 120084, Control_c, 0, 64, 50
1, 120098, Control_c, 0, 64, 51
1, 120100, Note_on_c, 0, 55, 75
1, 120100, Note_on_c, 0, 66, 79
1, 120113, Control_c, 0, 64, 51
1, 120128, Control_c, 0, 64, 52
1, 120167, Note_off_c, 0, 66, 64
1, 120204, Note_off_c, 0, 55, 57
1, 120221, Note_on_c, 0, 54, 71
1, 120222, Note_on_c, 0, 76, 89
1, 120222, Note_on_c, 0, 49, 68
1, 120231, Control_c, 0, 64, 51
1, 120246, Control_c, 0, 64, 51
1, 120261, Control_c, 0, 64, 50
1, 120276, Control_c, 0, 64, 49
1, 120290, Control_c, 0, 64, 48
1, 120297, Note_off_c, 0, 76, 66
1, 120305, Control_c, 0, 64, 47
1, 120314, Note_off_c, 0, 49, 62
1, 120320, Control_c, 0, 64, 47
1, 120324, Note_off_c, 0, 54, 60
1, 120328, Note_on_c, 0, 67, 83
1, 120329, Note_on_c, 0, 52, 82
1, 120351, Control_c, 0, 64, 46
1, 120381, Control_c, 0, 64, 46
1, 120430, Note_off_c, 0, 52, 65
1, 120446, Note_on_c, 0, 50, 92
1, 120450, Note_off_c, 0, 67, 56
1, 120451, Note_on_c, 0, 66, 73
1, 120484, Control_c, 0, 64, 45
1, 120499, Control_c, 0, 64, 45
1, 120514, Control_c, 0, 64, 44
1, 120529, Control_c, 0, 64, 44
1, 120544, Note_off_c, 0, 66, 65
1, 120544, Control_c, 0, 64, 43
1, 120550, Note_on_c, 0, 67, 73
1, 120615, Note_off_c, 0, 67, 63
1, 120624, Note_on_c, 0, 69, 70
1, 120633, Control_c, 0, 64, 43
1, 120648, Control_c, 0, 64, 42
1, 120671, Note_on_c, 0, 71, 77
1, 120679, Note_off_c, 0, 69, 64
1, 120722, Control_c, 0, 64, 42
1, 120731, Note_off_c, 0, 71, 61
1, 120737, Control_c, 0, 64, 41
1, 120752, Control_c, 0, 64, 40
1, 120760, Note_off_c, 0, 50, 61
1, 120767, Control_c, 0, 64, 40
1, 120775, Note_on_c, 0, 52, 72
1, 120782, Note_on_c, 0, 66, 80
1, 120782, Control_c, 0, 64, 39
1, 120796, Control_c, 0, 64, 39
1, 120811, Control_c, 0, 64, 37
1, 120833, Control_c, 0, 64, 35
1, 120848, Control_c, 0, 64, 32
1, 120863, Control_c, 0, 64, 29
1, 120877, Control_c, 0, 64, 28
1, 120891, Note_off_c, 0, 52, 61
1, 120892, Control_c, 0, 64, 26
1, 120904, Note_on_c, 0, 50, 69
1, 120907, Control_c, 0, 64, 24
1, 120913, Note_on_c, 0, 73, 74
1, 120922, Control_c, 0, 64, 21
1, 120933, Note_off_c, 0, 66, 60
1, 120937, Control_c, 0, 64, 15
1, 120952, Control_c, 0, 64, 10
1, 120996, Control_c, 0, 64, 13
1, 121011, Control_c, 0, 64, 17
1, 121015, Note_off_c, 0, 73, 54
1, 121016, Note_off_c, 0, 50, 63
1, 121023, Note_on_c, 0, 49, 73
1, 121024, Note_on_c, 0, 66, 77
1, 121026, Control_c, 0, 64, 18
1, 121041, Control_c, 0, 64, 20
1, 121055, Control_c, 0, 64, 21
1, 121070, Control_c, 0, 64, 23
1, 121085, Control_c, 0, 64, 24
1, 121137, Note_off_c, 0, 49, 61
1, 121141, Note_on_c, 0, 47, 72
1, 121145, Note_on_c, 0, 74, 75
1, 121175, Control_c, 0, 64, 25
1, 121181, Note_off_c, 0, 66, 59
1, 121238, Note_off_c, 0, 47, 64
1, 121250, Note_on_c, 0, 66, 60
1, 121251, Note_on_c, 0, 49, 77
1, 121263, Control_c, 0, 64, 26
1, 121293, Control_c, 0, 64, 27
1, 121295, Note_off_c, 0, 74, 54
1, 121323, Control_c, 0, 64, 25
1, 121337, Control_c, 0, 64, 24
1, 121352, Control_c, 0, 64, 21
1, 121358, Note_off_c, 0, 49, 62
1, 121363, Note_on_c, 0, 47, 73
1, 121366, Note_off_c, 0, 66, 62
1, 121367, Note_on_c, 0, 76, 79
1, 121367, Control_c, 0, 64, 20
1, 121382, Control_c, 0, 64, 18
1, 121397, Control_c, 0, 64, 17
1, 121426, Control_c, 0, 64, 15
1, 121450, Note_off_c, 0, 47, 56
1, 121450, Note_off_c, 0, 76, 65
1, 121471, Note_on_c, 0, 45, 73
1, 121484, Note_on_c, 0, 67, 74
1, 121486, Control_c, 0, 64, 17
1, 121500, Control_c, 0, 64, 18
1, 121515, Control_c, 0, 64, 20
1, 121530, Control_c, 0, 64, 21
1, 121584, Note_off_c, 0, 45, 63
1, 121595, Note_on_c, 0, 78, 80
1, 121597, Note_on_c, 0, 43, 76
1, 121615, Note_off_c, 0, 67, 60
1, 121626, Control_c, 0, 64, 23
1, 121670, Control_c, 0, 64, 24
1, 121685, Note_off_c, 0, 78, 63
1, 121698, Note_off_c, 0, 43, 61
1, 121700, Control_c, 0, 64, 25
1, 121712, Note_on_c, 0, 69, 72
1, 121712, Note_on_c, 0, 42, 70
1, 121715, Control_c, 0, 64, 26
1, 121730, Control_c, 0, 64, 27
1, 121790, Note_off_c, 0, 42, 64
1, 121804, Control_c, 0, 64, 26
1, 121809, Note_off_c, 0, 69, 64
1, 121834, Control_c, 0, 64, 27
1, 121842, Note_on_c, 0, 67, 76
1, 121849, Note_on_c, 0, 40, 80
1, 121849, Control_c, 0, 64, 28
1, 121864, Control_c, 0, 64, 29
1, 121886, Note_off_c, 0, 40, 65
1, 121893, Control_c, 0, 64, 29
1, 121939, Control_c, 0, 64, 30
1, 121954, Control_c, 0, 64, 31
1, 121960, Note_off_c, 0, 67, 62
1, 121964, Note_on_c, 0, 66, 75
1, 121968, Control_c, 0, 64, 32
1, 121983, Control_c, 0, 64, 34
1, 121998, Control_c, 0, 64, 35
1, 122012, Control_c, 0, 64, 36
1, 122068, Note_off_c, 0, 66, 64
1, 122082, Note_on_c, 0, 67, 77
1, 122086, Note_on_c, 0, 50, 78
1, 122086, Control_c, 0, 64, 36
1, 122115, Control_c, 0, 64, 36
1, 122117, Note_on_c, 0, 48, 44
1, 122118, Note_off_c, 0, 48, 127
1, 122138, Note_off_c, 0, 50, 62
1, 122145, Control_c, 0, 64, 35
1, 122159, Control_c, 0, 64, 34
1, 122174, Control_c, 0, 64, 34
1, 122196, Note_on_c, 0, 71, 73
1, 122210, Note_off_c, 0, 67, 57
1, 122301, Note_off_c, 0, 71, 55
1, 122318, Note_on_c, 0, 76, 75
1, 122323, Note_on_c, 0, 49, 82
1, 122379, Note_off_c, 0, 49, 64
1, 122402, Note_off_c, 0, 76, 64
1, 122404, Control_c, 0, 64, 34
1, 122419, Control_c, 0, 64, 35
1, 122423, Note_on_c, 0, 67, 75
1, 122433, Control_c, 0, 64, 36
1, 122448, Control_c, 0, 64, 36
1, 122463, Control_c, 0, 64, 37
1, 122553, Note_off_c, 0, 67, 58
1, 122553, Control_c, 0, 64, 37
1, 122556, Note_on_c, 0, 66, 74
1, 122574, Note_on_c, 0, 50, 76
1, 122582, Control_c, 0, 64, 38
1, 122597, Control_c, 0, 64, 38
1, 122658, Note_off_c, 0, 66, 66
1, 122673, Note_on_c, 0, 71, 75
1, 122730, Control_c, 0, 64, 38
1, 122746, Control_c, 0, 64, 37
1, 122754, Note_off_c, 0, 71, 59
1, 122761, Control_c, 0, 64, 36
1, 122776, Control_c, 0, 64, 36
1, 122790, Control_c, 0, 64, 34
1, 122792, Note_on_c, 0, 69, 80
1, 122803, Note_off_c, 0, 50, 62
1, 122804, Note_on_c, 0, 52, 71
1, 122805, Control_c, 0, 64, 33
1, 122820, Control_c, 0, 64, 32
1, 122835, Control_c, 0, 64, 31
1, 122849, Control_c, 0, 64, 30
1, 122898, Note_off_c, 0, 52, 59
1, 122901, Note_on_c, 0, 73, 83
1, 122908, Control_c, 0, 64, 31
1, 122910, Note_on_c, 0, 50, 73
1, 122919, Note_off_c, 0, 69, 60
1, 122923, Control_c, 0, 64, 32
1, 122953, Control_c, 0, 64, 32
1, 122997, Control_c, 0, 64, 33
1, 123012, Note_on_c, 0, 74, 87
1, 123026, Note_off_c, 0, 50, 64
1, 123030, Note_on_c, 0, 47, 75
1, 123042, Note_on_c, 0, 49, 63
1, 123043, Note_off_c, 0, 73, 39
1, 123079, Control_c, 0, 64, 34
1, 123094, Control_c, 0, 64, 34
1, 123143, Note_on_c, 0, 50, 86
1, 123149, Note_off_c, 0, 47, 65
1, 123164, Note_off_c, 0, 49, 63
1, 123212, Control_c, 0, 64, 34
1, 123247, Note_off_c, 0, 50, 58
1, 123270, Note_on_c, 0, 43, 79
1, 123275, Note_on_c, 0, 52, 86
1, 123316, Control_c, 0, 64, 34
1, 123318, Note_off_c, 0, 52, 64
1, 123319, Note_off_c, 0, 74, 60
1, 123328, Note_off_c, 0, 43, 61
1, 123375, Control_c, 0, 64, 34
1, 123390, Control_c, 0, 64, 32
1, 123405, Control_c, 0, 64, 31
1, 123420, Control_c, 0, 64, 29
1, 123435, Control_c, 0, 64, 26
1, 123449, Control_c, 0, 64, 23
1, 123464, Control_c, 0, 64, 20
1, 123479, Control_c, 0, 64, 17
1, 123494, Control_c, 0, 64, 13
1, 123509, Control_c, 0, 64, 10
1, 123523, Control_c, 0, 64, 0
1, 123531, Note_on_c, 0, 54, 75
1, 123531, Note_on_c, 0, 73, 84
1, 123540, Note_on_c, 0, 45, 66
1, 123647, Note_off_c, 0, 54, 61
1, 123656, Note_on_c, 0, 52, 74
1, 123767, Note_on_c, 0, 50, 78
1, 123778, Note_off_c, 0, 52, 62
1, 123894, Note_on_c, 0, 52, 80
1, 123975, Note_off_c, 0, 50, 0
1, 123991, Note_off_c, 0, 73, 59
1, 124011, Poly_aftertouch_c, 0, 50, 127
1, 124019, Note_off_c, 0, 45, 58
1, 124020, Note_on_c, 0, 54, 82
1, 124021, Note_on_c, 0, 74, 88
1, 124031, Note_off_c, 0, 52, 64
1, 124070, Poly_aftertouch_c, 0, 50, 0
1, 124072, Note_off_c, 0, 54, 58
1, 124086, Note_off_c, 0, 74, 64
1, 124273, Note_on_c, 0, 52, 76
1, 124274, Note_on_c, 0, 76, 85
1, 124278, Note_on_c, 0, 49, 68
1, 124317, Note_off_c, 0, 52, 64
1, 124338, Note_off_c, 0, 49, 60
1, 124389, Note_on_c, 0, 74, 83
1, 124415, Note_off_c, 0, 76, 31
1, 124489, Note_off_c, 0, 74, 55
1, 124511, Note_on_c, 0, 47, 76
1, 124513, Note_on_c, 0, 50, 66
1, 124517, Note_on_c, 0, 73, 85
1, 124526, Control_c, 0, 64, 13
1, 124541, Control_c, 0, 64, 20
1, 124546, Note_off_c, 0, 50, 64
1, 124556, Control_c, 0, 64, 23
1, 124577, Control_c, 0, 64, 25
1, 124586, Note_off_c, 0, 47, 64
1, 124592, Control_c, 0, 64, 26
1, 124607, Control_c, 0, 64, 27
1, 124615, Note_off_c, 0, 73, 58
1, 124621, Control_c, 0, 64, 29
1, 124626, Note_on_c, 0, 74, 82
1, 124636, Control_c, 0, 64, 29
1, 124666, Control_c, 0, 64, 30
1, 124741, Control_c, 0, 64, 31
1, 124751, Note_on_c, 0, 76, 90
1, 124756, Control_c, 0, 64, 32
1, 124770, Note_on_c, 0, 45, 79
1, 124770, Control_c, 0, 64, 34
1, 124773, Note_on_c, 0, 49, 68
1, 124785, Control_c, 0, 64, 36
1, 124787, Note_off_c, 0, 74, 28
1, 124800, Control_c, 0, 64, 37
1, 124802, Note_off_c, 0, 76, 69
1, 124812, Note_off_c, 0, 49, 64
1, 124814, Control_c, 0, 64, 38
1, 124829, Control_c, 0, 64, 39
1, 124844, Control_c, 0, 64, 40
1, 124859, Control_c, 0, 64, 40
1, 124888, Control_c, 0, 64, 41
1, 124903, Control_c, 0, 64, 42
1, 124918, Control_c, 0, 64, 42
1, 125015, Note_on_c, 0, 78, 81
1, 125021, Control_c, 0, 64, 43
1, 125025, Note_on_c, 0, 59, 85
1, 125036, Control_c, 0, 64, 43
1, 125051, Control_c, 0, 64, 44
1, 125080, Control_c, 0, 64, 45
1, 125095, Control_c, 0, 64, 45
1, 125142, Note_on_c, 0, 76, 69
1, 125150, Note_off_c, 0, 78, 60
1, 125185, Control_c, 0, 64, 45
1, 125200, Control_c, 0, 64, 44
1, 125215, Control_c, 0, 64, 43
1, 125230, Control_c, 0, 64, 42
1, 125244, Control_c, 0, 64, 41
1, 125259, Control_c, 0, 64, 40
1, 125260, Note_on_c, 0, 74, 76
1, 125268, Note_off_c, 0, 76, 60
1, 125274, Control_c, 0, 64, 39
1, 125289, Control_c, 0, 64, 38
1, 125304, Note_off_c, 0, 59, 59
1, 125304, Control_c, 0, 64, 37
1, 125326, Control_c, 0, 64, 35
1, 125341, Control_c, 0, 64, 32
1, 125356, Control_c, 0, 64, 30
1, 125371, Control_c, 0, 64, 29
1, 125380, Note_on_c, 0, 76, 86
1, 125386, Control_c, 0, 64, 29
1, 125394, Note_off_c, 0, 74, 60
1, 125430, Control_c, 0, 64, 29
1, 125459, Control_c, 0, 64, 29
1, 125474, Control_c, 0, 64, 28
1, 125483, Note_off_c, 0, 76, 58
1, 125504, Note_on_c, 0, 57, 71
1, 125504, Control_c, 0, 64, 27
1, 125507, Note_on_c, 0, 78, 92
1, 125562, Note_off_c, 0, 57, 61
1, 125563, Control_c, 0, 64, 28
1, 125578, Control_c, 0, 64, 29
1, 125593, Control_c, 0, 64, 30
1, 125608, Control_c, 0, 64, 32
1, 125623, Control_c, 0, 64, 35
1, 125637, Control_c, 0, 64, 38
1, 125652, Control_c, 0, 64, 41
1, 125667, Control_c, 0, 64, 44
1, 125682, Control_c, 0, 64, 46
1, 125697, Control_c, 0, 64, 48
1, 125711, Control_c, 0, 64, 50
1, 125726, Control_c, 0, 64, 50
1, 125741, Control_c, 0, 64, 51
1, 125747, Note_off_c, 0, 78, 47
1, 125756, Note_on_c, 0, 59, 67
1, 125766, Note_on_c, 0, 79, 87
1, 125785, Control_c, 0, 64, 51
1, 125829, Control_c, 0, 64, 51
1, 125835, Note_off_c, 0, 59, 61
1, 125844, Control_c, 0, 64, 50
1, 125879, Note_on_c, 0, 78, 90
1, 125888, Control_c, 0, 64, 50
1, 125903, Control_c, 0, 64, 48
1, 125906, Note_on_c, 0, 57, 63
1, 125918, Control_c, 0, 64, 47
1, 125933, Control_c, 0, 64, 44
1, 125946, Note_off_c, 0, 79, 48
1, 125948, Control_c, 0, 64, 41
1, 125963, Control_c, 0, 64, 38
1, 125978, Control_c, 0, 64, 37
1, 125993, Control_c, 0, 64, 36
1, 125996, Note_off_c, 0, 57, 62
1, 126002, Note_on_c, 0, 55, 74
1, 126007, Note_on_c, 0, 76, 86
1, 126008, Control_c, 0, 64, 35
1, 126019, Note_off_c, 0, 78, 63
1, 126022, Control_c, 0, 64, 34
1, 126037, Control_c, 0, 64, 32
1, 126052, Control_c, 0, 64, 31
1, 126074, Control_c, 0, 64, 30
1, 126108, Note_off_c, 0, 55, 60
1, 126112, Note_on_c, 0, 54, 70
1, 126118, Note_off_c, 0, 76, 66
1, 126124, Note_on_c, 0, 74, 81
1, 126192, Control_c, 0, 64, 32
1, 126207, Control_c, 0, 64, 33
1, 126216, Note_off_c, 0, 54, 61
1, 126222, Control_c, 0, 64, 34
1, 126237, Control_c, 0, 64, 35
1, 126245, Note_on_c, 0, 52, 75
1, 126250, Note_on_c, 0, 73, 85
1, 126252, Control_c, 0, 64, 36
1, 126259, Note_off_c, 0, 74, 63
1, 126267, Control_c, 0, 64, 38
1, 126282, Control_c, 0, 64, 40
1, 126297, Control_c, 0, 64, 42
1, 126306, Note_off_c, 0, 73, 63
1, 126312, Control_c, 0, 64, 44
1, 126327, Control_c, 0, 64, 46
1, 126341, Control_c, 0, 64, 47
1, 126400, Control_c, 0, 64, 46
1, 126415, Control_c, 0, 64, 46
1, 126430, Control_c, 0, 64, 45
1, 126445, Control_c, 0, 64, 44
1, 126459, Control_c, 0, 64, 44
1, 126474, Control_c, 0, 64, 43
1, 126489, Control_c, 0, 64, 42
1, 126507, Note_on_c, 0, 83, 86
1, 126507, Note_off_c, 0, 52, 58
1, 126519, Control_c, 0, 64, 42
1, 126532, Note_on_c, 0, 55, 53
1, 126533, Control_c, 0, 64, 41
1, 126548, Control_c, 0, 64, 40
1, 126563, Control_c, 0, 64, 39
1, 126578, Control_c, 0, 64, 38
1, 126592, Control_c, 0, 64, 36
1, 126593, Note_off_c, 0, 55, 63
1, 126607, Control_c, 0, 64, 35
1, 126625, Note_on_c, 0, 54, 62
1, 126666, Control_c, 0, 64, 36
1, 126719, Note_off_c, 0, 54, 62
1, 126741, Note_on_c, 0, 52, 72
1, 126756, Control_c, 0, 64, 35
1, 126771, Control_c, 0, 64, 34
1, 126786, Control_c, 0, 64, 34
1, 126823, Control_c, 0, 64, 33
1, 126838, Control_c, 0, 64, 32
1, 126839, Note_off_c, 0, 52, 64
1, 126853, Control_c, 0, 64, 31
1, 126857, Note_on_c, 0, 50, 64
1, 126868, Control_c, 0, 64, 29
1, 126882, Control_c, 0, 64, 28
1, 126897, Control_c, 0, 64, 27
1, 126912, Control_c, 0, 64, 25
1, 126927, Control_c, 0, 64, 24
1, 126956, Control_c, 0, 64, 25
1, 126976, Note_off_c, 0, 50, 64
1, 126980, Note_on_c, 0, 49, 77
1, 126986, Control_c, 0, 64, 26
1, 127001, Control_c, 0, 64, 27
1, 127030, Control_c, 0, 64, 28
1, 127053, Note_off_c, 0, 83, 49
1, 127060, Control_c, 0, 64, 29
1, 127075, Control_c, 0, 64, 31
1, 127090, Control_c, 0, 64, 32
1, 127093, Note_on_c, 0, 81, 79
1, 127105, Control_c, 0, 64, 33
1, 127119, Control_c, 0, 64, 34
1, 127134, Control_c, 0, 64, 34
1, 127164, Control_c, 0, 64, 35
1, 127212, Note_off_c, 0, 81, 48
1, 127218, Note_on_c, 0, 83, 74
1, 127268, Control_c, 0, 64, 34
1, 127325, Note_on_c, 0, 81, 77
1, 127343, Control_c, 0, 64, 34
1, 127349, Note_off_c, 0, 83, 48
1, 127402, Control_c, 0, 64, 34
1, 127446, Control_c, 0, 64, 35
1, 127450, Note_on_c, 0, 79, 73
1, 127456, Note_on_c, 0, 50, 76
1, 127463, Note_off_c, 0, 49, 59
1, 127469, Note_off_c, 0, 81, 45
1, 127490, Control_c, 0, 64, 36
1, 127558, Control_c, 0, 64, 36
1, 127574, Note_on_c, 0, 78, 73
1, 127575, Note_off_c, 0, 79, 59
1, 127587, Control_c, 0, 64, 37
1, 127617, Control_c, 0, 64, 38
1, 127647, Control_c, 0, 64, 38
1, 127668, Note_off_c, 0, 78, 62
1, 127677, Control_c, 0, 64, 39
1, 127678, Note_on_c, 0, 76, 66
1, 127692, Control_c, 0, 64, 39
1, 127692, Note_off_c, 0, 50, 58
1, 127706, Control_c, 0, 64, 40
1, 127721, Control_c, 0, 64, 40
1, 127736, Control_c, 0, 64, 41
1, 127749, Note_off_c, 0, 76, 66
1, 127751, Control_c, 0, 64, 42
1, 127758, Note_on_c, 0, 78, 76
1, 127766, Control_c, 0, 64, 44
1, 127780, Control_c, 0, 64, 44
1, 127797, Note_on_c, 0, 55, 66
1, 127826, Note_off_c, 0, 78, 64
1, 127835, Note_on_c, 0, 76, 69
1, 127862, Note_off_c, 0, 55, 61
1, 127865, Note_on_c, 0, 54, 73
1, 127884, Note_off_c, 0, 76, 66
1, 127884, Control_c, 0, 64, 44
1, 127886, Note_on_c, 0, 78, 75
1, 127899, Control_c, 0, 64, 43
1, 127908, Note_on_c, 0, 52, 79
1, 127913, Control_c, 0, 64, 42
1, 127926, Note_off_c, 0, 54, 61
1, 127928, Control_c, 0, 64, 40
1, 127943, Control_c, 0, 64, 38
1, 127948, Note_off_c, 0, 78, 65
1, 127957, Control_c, 0, 64, 37
1, 127958, Note_on_c, 0, 76, 70
1, 128006, Note_on_c, 0, 78, 76
1, 128011, Note_off_c, 0, 76, 66
1, 128017, Control_c, 0, 64, 38
1, 128020, Note_off_c, 0, 52, 66
1, 128027, Note_on_c, 0, 55, 75
1, 128076, Note_off_c, 0, 78, 64
1, 128092, Note_on_c, 0, 76, 65
1, 128124, Note_off_c, 0, 55, 58
1, 128138, Note_on_c, 0, 78, 74
1, 128139, Note_off_c, 0, 76, 66
1, 128144, Note_on_c, 0, 50, 78
1, 128180, Control_c, 0, 64, 37
1, 128195, Control_c, 0, 64, 37
1, 128205, Note_off_c, 0, 78, 65
1, 128210, Control_c, 0, 64, 36
1, 128220, Note_on_c, 0, 76, 67
1, 128230, Note_off_c, 0, 50, 63
1, 128247, Note_on_c, 0, 55, 67
1, 128265, Note_on_c, 0, 78, 71
1, 128265, Note_off_c, 0, 76, 66
1, 128284, Control_c, 0, 64, 37
1, 128299, Control_c, 0, 64, 37
1, 128336, Control_c, 0, 64, 38
1, 128337, Note_off_c, 0, 78, 64
1, 128351, Note_off_c, 0, 55, 59
1, 128356, Note_on_c, 0, 76, 61
1, 128387, Note_on_c, 0, 49, 80
1, 128392, Note_on_c, 0, 78, 70
1, 128400, Note_off_c, 0, 76, 68
1, 128417, Note_off_c, 0, 45, 56
1, 128425, Control_c, 0, 64, 38
1, 128463, Note_off_c, 0, 78, 64
1, 128470, Control_c, 0, 64, 39
1, 128471, Note_on_c, 0, 76, 65
1, 128495, Note_on_c, 0, 55, 60
1, 128500, Control_c, 0, 64, 39
1, 128514, Control_c, 0, 64, 40
1, 128520, Note_off_c, 0, 49, 59
1, 128523, Note_on_c, 0, 78, 61
1, 128524, Note_off_c, 0, 76, 66
1, 128544, Control_c, 0, 64, 40
1, 128559, Control_c, 0, 64, 41
1, 128586, Note_off_c, 0, 78, 64
1, 128597, Note_on_c, 0, 76, 68
1, 128603, Control_c, 0, 64, 41
1, 128617, Note_off_c, 0, 55, 63
1, 128620, Note_on_c, 0, 47, 79
1, 128643, Note_on_c, 0, 78, 63
1, 128648, Control_c, 0, 64, 42
1, 128649, Note_off_c, 0, 76, 66
1, 128677, Control_c, 0, 64, 42
1, 128711, Note_off_c, 0, 78, 64
1, 128719, Note_on_c, 0, 76, 67
1, 128736, Note_on_c, 0, 55, 73
1, 128736, Control_c, 0, 64, 43
1, 128737, Note_off_c, 0, 47, 64
1, 128771, Note_on_c, 0, 78, 67
1, 128774, Note_off_c, 0, 76, 66
1, 128849, Note_off_c, 0, 78, 60
1, 128854, Control_c, 0, 64, 42
1, 128857, Note_off_c, 0, 55, 56
1, 128863, Note_on_c, 0, 45, 67
1, 128863, Note_on_c, 0, 76, 67
1, 128899, Control_c, 0, 64, 43
1, 128956, Note_off_c, 0, 45, 63
1, 128988, Control_c, 0, 64, 43
1, 128988, Note_on_c, 0, 55, 66
1, 129018, Control_c, 0, 64, 44
1, 129033, Control_c, 0, 64, 44
1, 129048, Control_c, 0, 64, 45
1, 129069, Control_c, 0, 64, 46
1, 129084, Control_c, 0, 64, 47
1, 129099, Control_c, 0, 64, 47
1, 129117, Note_on_c, 0, 54, 78
1, 129124, Note_off_c, 0, 55, 58
1, 129129, Control_c, 0, 64, 48
1, 129145, Control_c, 0, 64, 49
1, 129159, Control_c, 0, 64, 49
1, 129174, Control_c, 0, 64, 50
1, 129189, Control_c, 0, 64, 50
1, 129218, Control_c, 0, 64, 51
1, 129229, Note_off_c, 0, 76, 63
1, 129232, Note_on_c, 0, 81, 69
1, 129236, Note_on_c, 0, 55, 86
1, 129248, Note_off_c, 0, 54, 63
1, 129248, Control_c, 0, 64, 51
1, 129293, Control_c, 0, 64, 51
1, 129310, Note_off_c, 0, 81, 62
1, 129322, Note_on_c, 0, 79, 66
1, 129322, Control_c, 0, 64, 50
1, 129338, Note_on_c, 0, 78, 72
1, 129343, Note_off_c, 0, 55, 64
1, 129348, Note_on_c, 0, 57, 80
1, 129382, Note_off_c, 0, 79, 58
1, 129397, Control_c, 0, 64, 50
1, 129426, Control_c, 0, 64, 49
1, 129441, Control_c, 0, 64, 48
1, 129456, Control_c, 0, 64, 48
1, 129471, Control_c, 0, 64, 47
1, 129485, Control_c, 0, 64, 46
1, 129486, Note_on_c, 0, 81, 75
1, 129496, Note_on_c, 0, 52, 62
1, 129500, Note_off_c, 0, 78, 54
1, 129500, Control_c, 0, 64, 44
1, 129515, Control_c, 0, 64, 42
1, 129530, Control_c, 0, 64, 40
1, 129545, Control_c, 0, 64, 39
1, 129559, Control_c, 0, 64, 37
1, 129574, Control_c, 0, 64, 37
1, 129589, Control_c, 0, 64, 36
1, 129604, Note_off_c, 0, 52, 65
1, 129618, Control_c, 0, 64, 36
1, 129619, Note_on_c, 0, 76, 69
1, 129620, Note_on_c, 0, 50, 60
1, 129623, Note_off_c, 0, 81, 53
1, 129648, Control_c, 0, 64, 35
1, 129663, Control_c, 0, 64, 34
1, 129677, Control_c, 0, 64, 34
1, 129707, Control_c, 0, 64, 33
1, 129710, Note_off_c, 0, 50, 62
1, 129732, Note_off_c, 0, 76, 38
1, 129734, Note_on_c, 0, 49, 56
1, 129738, Note_on_c, 0, 81, 77
1, 129752, Control_c, 0, 64, 34
1, 129845, Note_off_c, 0, 49, 59
1, 129861, Note_on_c, 0, 47, 63
1, 129872, Note_off_c, 0, 57, 58
1, 129879, Note_off_c, 0, 81, 57
1, 129880, Note_on_c, 0, 74, 63
1, 129966, Note_off_c, 0, 74, 64
1, 129982, Control_c, 0, 64, 34
1, 129996, Note_on_c, 0, 81, 64
1, 129999, Note_on_c, 0, 55, 60
1, 130012, Control_c, 0, 64, 35
1, 130086, Control_c, 0, 64, 36
1, 130091, Note_off_c, 0, 55, 60
1, 130115, Note_on_c, 0, 54, 64
1, 130121, Note_on_c, 0, 73, 74
1, 130130, Control_c, 0, 64, 36
1, 130141, Note_off_c, 0, 81, 35
1, 130205, Control_c, 0, 64, 36
1, 130231, Note_off_c, 0, 54, 62
1, 130234, Control_c, 0, 64, 35
1, 130237, Note_on_c, 0, 52, 73
1, 130241, Note_on_c, 0, 81, 64
1, 130248, Note_off_c, 0, 73, 61
1, 130264, Control_c, 0, 64, 34
1, 130294, Control_c, 0, 64, 34
1, 130352, Control_c, 0, 64, 34
1, 130354, Note_on_c, 0, 50, 70
1, 130365, Note_off_c, 0, 52, 53
1, 130374, Note_on_c, 0, 71, 70
1, 130382, Control_c, 0, 64, 35
1, 130383, Note_off_c, 0, 81, 56
1, 130397, Control_c, 0, 64, 36
1, 130412, Control_c, 0, 64, 37
1, 130426, Control_c, 0, 64, 38
1, 130441, Control_c, 0, 64, 39
1, 130456, Control_c, 0, 64, 40
1, 130471, Control_c, 0, 64, 41
1, 130477, Note_on_c, 0, 54, 77
1, 130486, Control_c, 0, 64, 42
1, 130497, Note_on_c, 0, 81, 83
1, 130500, Control_c, 0, 64, 43
1, 130501, Note_off_c, 0, 50, 60
1, 130503, Note_off_c, 0, 71, 36
1, 130515, Control_c, 0, 64, 44
1, 130530, Control_c, 0, 64, 44
1, 130567, Control_c, 0, 64, 45
1, 130582, Control_c, 0, 64, 46
1, 130597, Control_c, 0, 64, 46
1, 130610, Note_on_c, 0, 52, 86
1, 130612, Control_c, 0, 64, 47
1, 130616, Note_off_c, 0, 54, 62
1, 130621, Note_off_c, 0, 47, 62
1, 130627, Control_c, 0, 64, 47
1, 130629, Note_on_c, 0, 79, 73
1, 130652, Note_off_c, 0, 81, 40
1, 130671, Control_c, 0, 64, 47
1, 130730, Note_on_c, 0, 54, 81
1, 130741, Note_off_c, 0, 52, 65
1, 130746, Note_on_c, 0, 78, 76
1, 130746, Control_c, 0, 64, 46
1, 130750, Note_off_c, 0, 79, 56
1, 130761, Control_c, 0, 64, 46
1, 130850, Control_c, 0, 64, 46
1, 130852, Note_off_c, 0, 54, 62
1, 130856, Note_on_c, 0, 55, 77
1, 130873, Note_off_c, 0, 78, 63
1, 130877, Note_on_c, 0, 76, 70
1, 130879, Control_c, 0, 64, 47
1, 130968, Control_c, 0, 64, 46
1, 130984, Note_on_c, 0, 50, 68
1, 130984, Note_on_c, 0, 79, 69
1, 130992, Note_off_c, 0, 76, 60
1, 131027, Control_c, 0, 64, 46
1, 131057, Control_c, 0, 64, 45
1, 131072, Control_c, 0, 64, 44
1, 131096, Note_off_c, 0, 50, 63
1, 131102, Control_c, 0, 64, 44
1, 131103, Note_on_c, 0, 49, 71
1, 131112, Note_off_c, 0, 79, 60
1, 131114, Note_on_c, 0, 74, 63
1, 131131, Control_c, 0, 64, 43
1, 131146, Control_c, 0, 64, 43
1, 131175, Control_c, 0, 64, 42
1, 131196, Note_off_c, 0, 74, 62
1, 131224, Note_off_c, 0, 49, 62
1, 131225, Note_on_c, 0, 79, 68
1, 131239, Note_on_c, 0, 47, 65
1, 131294, Control_c, 0, 64, 43
1, 131331, Control_c, 0, 64, 43
1, 131346, Control_c, 0, 64, 44
1, 131351, Note_off_c, 0, 55, 57
1, 131354, Note_off_c, 0, 47, 62
1, 131355, Note_on_c, 0, 45, 72
1, 131361, Note_off_c, 0, 79, 57
1, 131361, Control_c, 0, 64, 44
1, 131363, Note_on_c, 0, 73, 73
1, 131375, Control_c, 0, 64, 45
1, 131390, Control_c, 0, 64, 45
1, 131405, Control_c, 0, 64, 46
1, 131460, Note_off_c, 0, 73, 57
1, 131478, Note_on_c, 0, 54, 65
1, 131479, Note_on_c, 0, 79, 69
1, 131509, Control_c, 0, 64, 45
1, 131568, Note_off_c, 0, 54, 60
1, 131594, Note_on_c, 0, 52, 66
1, 131598, Control_c, 0, 64, 45
1, 131615, Note_off_c, 0, 79, 58
1, 131615, Note_on_c, 0, 71, 56
1, 131643, Control_c, 0, 64, 45
1, 131700, Note_off_c, 0, 52, 63
1, 131707, Note_on_c, 0, 50, 71
1, 131730, Note_on_c, 0, 79, 73
1, 131734, Note_off_c, 0, 71, 57
1, 131747, Control_c, 0, 64, 45
1, 131776, Control_c, 0, 64, 45
1, 131823, Note_on_c, 0, 49, 77
1, 131844, Note_on_c, 0, 69, 76
1, 131849, Note_off_c, 0, 79, 48
1, 131852, Note_off_c, 0, 50, 61
1, 131879, Control_c, 0, 64, 46
1, 131909, Control_c, 0, 64, 46
1, 131924, Control_c, 0, 64, 47
1, 131926, Note_off_c, 0, 45, 33
1, 131939, Control_c, 0, 64, 47
1, 131948, Note_on_c, 0, 52, 83
1, 131959, Note_off_c, 0, 69, 60
1, 131960, Note_on_c, 0, 79, 74
1, 131962, Note_off_c, 0, 49, 62
1, 131968, Control_c, 0, 64, 48
1, 131983, Control_c, 0, 64, 48
1, 132012, Control_c, 0, 64, 49
1, 132037, Note_off_c, 0, 79, 58
1, 132065, Control_c, 0, 64, 50
1, 132079, Note_on_c, 0, 50, 82
1, 132089, Note_off_c, 0, 52, 65
1, 132094, Note_on_c, 0, 78, 76
1, 132094, Control_c, 0, 64, 50
1, 132109, Control_c, 0, 64, 51
1, 132124, Control_c, 0, 64, 50
1, 132138, Control_c, 0, 64, 50
1, 132153, Control_c, 0, 64, 49
1, 132168, Control_c, 0, 64, 48
1, 132183, Control_c, 0, 64, 47
1, 132197, Note_on_c, 0, 52, 85
1, 132198, Control_c, 0, 64, 46
1, 132202, Note_off_c, 0, 50, 63
1, 132210, Note_off_c, 0, 78, 58
1, 132212, Control_c, 0, 64, 45
1, 132214, Note_on_c, 0, 76, 60
1, 132227, Control_c, 0, 64, 44
1, 132242, Control_c, 0, 64, 43
1, 132257, Control_c, 0, 64, 43
1, 132286, Control_c, 0, 64, 42
1, 132311, Note_off_c, 0, 52, 64
1, 132320, Note_on_c, 0, 54, 70
1, 132332, Control_c, 0, 64, 43
1, 132335, Note_off_c, 0, 76, 64
1, 132344, Note_on_c, 0, 74, 64
1, 132347, Control_c, 0, 64, 44
1, 132362, Control_c, 0, 64, 44
1, 132431, Note_off_c, 0, 74, 56
1, 132450, Control_c, 0, 64, 45
1, 132451, Note_on_c, 0, 78, 74
1, 132463, Note_on_c, 0, 49, 62
1, 132465, Control_c, 0, 64, 45
1, 132480, Control_c, 0, 64, 46
1, 132574, Note_on_c, 0, 73, 75
1, 132575, Note_off_c, 0, 49, 61
1, 132584, Note_on_c, 0, 47, 63
1, 132586, Note_off_c, 0, 78, 58
1, 132682, Note_off_c, 0, 47, 62
1, 132687, Note_on_c, 0, 78, 76
1, 132692, Note_off_c, 0, 73, 52
1, 132694, Note_on_c, 0, 45, 62
1, 132696, Note_off_c, 0, 54, 49
1, 132701, Control_c, 0, 64, 46
1, 132745, Control_c, 0, 64, 46
1, 132772, Note_off_c, 0, 45, 62
1, 132790, Control_c, 0, 64, 45
1, 132804, Note_on_c, 0, 43, 67
1, 132822, Note_on_c, 0, 71, 71
1, 132835, Note_off_c, 0, 78, 58
1, 132887, Control_c, 0, 64, 45
1, 132930, Note_off_c, 0, 71, 55
1, 132940, Note_on_c, 0, 47, 64
1, 132941, Note_on_c, 0, 78, 75
1, 132942, Note_off_c, 0, 43, 59
1, 132960, Control_c, 0, 64, 45
1, 133047, Note_off_c, 0, 47, 64
1, 133051, Note_on_c, 0, 69, 73
1, 133056, Note_on_c, 0, 49, 70
1, 133064, Control_c, 0, 64, 46
1, 133068, Note_off_c, 0, 78, 59
1, 133152, Note_off_c, 0, 49, 62
1, 133161, Note_off_c, 0, 69, 53
1, 133165, Note_on_c, 0, 50, 68
1, 133168, Note_on_c, 0, 78, 81
1, 133198, Control_c, 0, 64, 46
1, 133228, Control_c, 0, 64, 47
1, 133267, Note_off_c, 0, 50, 64
1, 133272, Control_c, 0, 64, 47
1, 133286, Note_on_c, 0, 67, 72
1, 133288, Note_on_c, 0, 52, 69
1, 133313, Note_off_c, 0, 78, 56
1, 133317, Control_c, 0, 64, 48
1, 133332, Control_c, 0, 64, 48
1, 133347, Control_c, 0, 64, 49
1, 133361, Control_c, 0, 64, 50
1, 133376, Control_c, 0, 64, 51
1, 133388, Note_off_c, 0, 67, 57
1, 133391, Control_c, 0, 64, 51
1, 133400, Note_off_c, 0, 52, 63
1, 133406, Note_on_c, 0, 54, 77
1, 133406, Control_c, 0, 64, 52
1, 133421, Control_c, 0, 64, 52
1, 133429, Note_on_c, 0, 76, 37
1, 133433, Note_on_c, 0, 77, 43
1, 133436, Control_c, 0, 64, 53
1, 133460, Note_off_c, 0, 77, 54
1, 133512, Note_off_c, 0, 76, 0
1, 133512, Note_on_c, 0, 76, 33
1, 133516, Note_off_c, 0, 54, 62
1, 133519, Note_on_c, 0, 55, 71
1, 133539, Control_c, 0, 64, 52
1, 133561, Control_c, 0, 64, 52
1, 133579, Note_off_c, 0, 76, 63
1, 133583, Note_on_c, 0, 74, 53
1, 133591, Control_c, 0, 64, 51
1, 133636, Note_on_c, 0, 57, 69
1, 133636, Note_off_c, 0, 55, 63
1, 133695, Control_c, 0, 64, 52
1, 133697, Note_off_c, 0, 74, 59
1, 133698, Note_on_c, 0, 73, 56
1, 133728, Note_off_c, 0, 57, 60
1, 133755, Note_on_c, 0, 55, 67
1, 133798, Control_c, 0, 64, 51
1, 133806, Note_on_c, 0, 76, 65
1, 133809, Note_off_c, 0, 73, 59
1, 133859, Note_off_c, 0, 55, 64
1, 133873, Note_on_c, 0, 54, 62
1, 133970, Note_off_c, 0, 54, 62
1, 133984, Note_on_c, 0, 52, 76
1, 134000, Note_on_c, 0, 71, 63
1, 134014, Note_off_c, 0, 76, 56
1, 134089, Note_off_c, 0, 52, 65
1, 134100, Note_off_c, 0, 71, 36
1, 134101, Note_on_c, 0, 50, 60
1, 134107, Note_on_c, 0, 76, 66
1, 134219, Note_off_c, 0, 50, 63
1, 134232, Note_on_c, 0, 49, 66
1, 134238, Note_off_c, 0, 76, 52
1, 134241, Note_on_c, 0, 69, 69
1, 134311, Control_c, 0, 64, 51
1, 134339, Note_off_c, 0, 49, 59
1, 134346, Note_off_c, 0, 69, 59
1, 134357, Note_on_c, 0, 45, 59
1, 134363, Note_on_c, 0, 76, 73
1, 134471, Note_on_c, 0, 67, 74
1, 134474, Note_off_c, 0, 45, 57
1, 134475, Note_on_c, 0, 47, 65
1, 134488, Note_off_c, 0, 76, 62
1, 134562, Note_off_c, 0, 67, 55
1, 134587, Note_on_c, 0, 76, 72
1, 134592, Note_off_c, 0, 47, 63
1, 134593, Control_c, 0, 64, 51
1, 134593, Note_on_c, 0, 49, 76
1, 134667, Control_c, 0, 64, 52
1, 134679, Note_off_c, 0, 76, 61
1, 134696, Control_c, 0, 64, 53
1, 134699, Note_off_c, 0, 49, 63
1, 134702, Note_on_c, 0, 66, 79
1, 134707, Note_on_c, 0, 50, 72
1, 134727, Control_c, 0, 64, 53
1, 134756, Control_c, 0, 64, 54
1, 134786, Control_c, 0, 64, 53
1, 134795, Note_off_c, 0, 50, 64
1, 134810, Note_off_c, 0, 66, 63
1, 134816, Control_c, 0, 64, 53
1, 134816, Note_on_c, 0, 52, 78
1, 134820, Note_on_c, 0, 76, 73
1, 134890, Control_c, 0, 64, 52
1, 134908, Note_off_c, 0, 76, 62
1, 134919, Note_off_c, 0, 52, 53
1, 134933, Note_on_c, 0, 54, 77
1, 134942, Note_on_c, 0, 74, 56
1, 135050, Note_off_c, 0, 54, 62
1, 135058, Note_on_c, 0, 55, 81
1, 135062, Note_on_c, 0, 66, 68
1, 135066, Note_off_c, 0, 74, 59
1, 135119, Control_c, 0, 64, 53
1, 135159, Note_off_c, 0, 55, 64
1, 135175, Note_on_c, 0, 57, 88
1, 135185, Note_on_c, 0, 64, 68
1, 135207, Note_off_c, 0, 66, 64
1, 135216, Note_off_c, 0, 57, 64
1, 135267, Control_c, 0, 64, 52
1, 135288, Note_off_c, 0, 64, 59
1, 135297, Note_on_c, 0, 67, 65
1, 135311, Control_c, 0, 64, 52
1, 135371, Control_c, 0, 64, 51
1, 135385, Control_c, 0, 64, 51
1, 135394, Note_off_c, 0, 67, 60
1, 135406, Note_on_c, 0, 45, 76
1, 135415, Control_c, 0, 64, 50
1, 135416, Note_on_c, 0, 74, 62
1, 135430, Control_c, 0, 64, 50
1, 135445, Control_c, 0, 64, 49
1, 135460, Note_off_c, 0, 45, 64
1, 135460, Control_c, 0, 64, 47
1, 135475, Control_c, 0, 64, 46
1, 135490, Control_c, 0, 64, 45
1, 135493, Note_off_c, 0, 74, 64
1, 135504, Control_c, 0, 64, 44
1, 135520, Control_c, 0, 64, 42
1, 135533, Note_on_c, 0, 73, 62
1, 135535, Control_c, 0, 64, 41
1, 135549, Control_c, 0, 64, 40
1, 135564, Control_c, 0, 64, 39
1, 135579, Control_c, 0, 64, 39
1, 135609, Control_c, 0, 64, 38
1, 135622, Note_off_c, 0, 73, 62
1, 135640, Note_on_c, 0, 74, 61
1, 135646, Note_on_c, 0, 50, 84
1, 135668, Control_c, 0, 64, 39
1, 135683, Control_c, 0, 64, 39
1, 135686, Note_off_c, 0, 50, 67
1, 135716, Note_off_c, 0, 74, 64
1, 135723, Note_on_c, 0, 76, 69
1, 135727, Control_c, 0, 64, 39
1, 135742, Control_c, 0, 64, 38
1, 135786, Control_c, 0, 64, 38
1, 135806, Note_off_c, 0, 76, 65
1, 135827, Note_on_c, 0, 74, 63
1, 135853, Control_c, 0, 64, 38
1, 135874, Note_off_c, 0, 74, 63
1, 135891, Note_on_c, 0, 76, 65
1, 135898, Note_on_c, 0, 48, 69
1, 135927, Control_c, 0, 64, 39
1, 135953, Note_off_c, 0, 76, 66
1, 135975, Note_on_c, 0, 74, 63
1, 135991, Note_off_c, 0, 48, 65
1, 136001, Control_c, 0, 64, 39
1, 136006, Note_on_c, 0, 50, 71
1, 136016, Note_off_c, 0, 74, 65
1, 136028, Note_on_c, 0, 76, 58
1, 136045, Control_c, 0, 64, 40
1, 136075, Control_c, 0, 64, 40
1, 136083, Note_off_c, 0, 76, 65
1, 136103, Note_on_c, 0, 74, 62
1, 136105, Control_c, 0, 64, 41
1, 136115, Note_off_c, 0, 50, 63
1, 136121, Note_on_c, 0, 52, 79
1, 136134, Control_c, 0, 64, 41
1, 136146, Note_off_c, 0, 74, 65
1, 136149, Control_c, 0, 64, 42
1, 136150, Note_on_c, 0, 76, 63
1, 136192, Note_off_c, 0, 52, 60
1, 136210, Note_off_c, 0, 76, 65
1, 136222, Note_on_c, 0, 50, 75
1, 136228, Note_on_c, 0, 74, 59
1, 136271, Note_off_c, 0, 74, 66
1, 136276, Note_on_c, 0, 76, 61
1, 136283, Control_c, 0, 64, 42
1, 136313, Control_c, 0, 64, 42
1, 136336, Note_off_c, 0, 76, 66
1, 136336, Note_on_c, 0, 48, 89
1, 136336, Note_off_c, 0, 50, 60
1, 136342, Control_c, 0, 64, 42
1, 136348, Note_on_c, 0, 74, 64
1, 136372, Control_c, 0, 64, 44
1, 136376, Note_off_c, 0, 48, 68
1, 136387, Control_c, 0, 64, 45
1, 136396, Note_off_c, 0, 74, 65
1, 136398, Note_on_c, 0, 76, 67
1, 136401, Control_c, 0, 64, 45
1, 136416, Control_c, 0, 64, 46
1, 136456, Note_off_c, 0, 76, 66
1, 136461, Control_c, 0, 64, 46
1, 136475, Control_c, 0, 64, 47
1, 136481, Note_on_c, 0, 74, 61
1, 136490, Control_c, 0, 64, 47
1, 136517, Note_off_c, 0, 74, 62
1, 136519, Note_on_c, 0, 76, 63
1, 136586, Note_on_c, 0, 47, 77
1, 136586, Note_off_c, 0, 76, 65
1, 136609, Note_on_c, 0, 74, 67
1, 136631, Control_c, 0, 64, 48
1, 136645, Note_on_c, 0, 76, 63
1, 136645, Note_off_c, 0, 74, 64
1, 136646, Control_c, 0, 64, 48
1, 136661, Control_c, 0, 64, 49
1, 136694, Note_on_c, 0, 48, 76
1, 136700, Note_off_c, 0, 47, 64
1, 136700, Note_off_c, 0, 76, 66
1, 136705, Control_c, 0, 64, 50
1, 136717, Note_on_c, 0, 74, 66
1, 136719, Control_c, 0, 64, 50
1, 136749, Control_c, 0, 64, 51
1, 136752, Note_on_c, 0, 76, 65
1, 136756, Note_off_c, 0, 74, 66
1, 136813, Note_off_c, 0, 48, 63
1, 136816, Note_on_c, 0, 50, 73
1, 136816, Note_off_c, 0, 76, 68
1, 136824, Note_on_c, 0, 74, 64
1, 136853, Control_c, 0, 64, 50
1, 136933, Note_on_c, 0, 48, 79
1, 136938, Note_off_c, 0, 50, 63
1, 136971, Control_c, 0, 64, 50
1, 137001, Control_c, 0, 64, 49
1, 137031, Note_off_c, 0, 48, 64
1, 137060, Note_on_c, 0, 47, 85
1, 137114, Note_off_c, 0, 47, 64
1, 137121, Control_c, 0, 64, 49
1, 137172, Note_on_c, 0, 67, 79
1, 137195, Control_c, 0, 64, 48
1, 137311, Note_off_c, 0, 67, 59
1, 137316, Note_on_c, 0, 65, 75
1, 137325, Note_on_c, 0, 48, 81
1, 137350, Control_c, 0, 64, 48
1, 137365, Control_c, 0, 64, 47
1, 137380, Note_off_c, 0, 48, 66
1, 137380, Control_c, 0, 64, 47
1, 137392, Note_off_c, 0, 65, 63
1, 137395, Control_c, 0, 64, 46
1, 137410, Control_c, 0, 64, 45
1, 137424, Control_c, 0, 64, 45
1, 137440, Note_on_c, 0, 64, 77
1, 137484, Control_c, 0, 64, 45
1, 137499, Control_c, 0, 64, 46
1, 137529, Control_c, 0, 64, 46
1, 137543, Control_c, 0, 64, 47
1, 137558, Control_c, 0, 64, 47
1, 137565, Note_on_c, 0, 62, 74
1, 137567, Note_off_c, 0, 64, 61
1, 137570, Note_on_c, 0, 50, 86
1, 137573, Control_c, 0, 64, 48
1, 137588, Control_c, 0, 64, 49
1, 137617, Control_c, 0, 64, 49
1, 137618, Note_off_c, 0, 50, 63
1, 137635, Note_off_c, 0, 62, 60
1, 137662, Control_c, 0, 64, 50
1, 137677, Control_c, 0, 64, 50
1, 137687, Note_on_c, 0, 65, 72
1, 137691, Control_c, 0, 64, 51
1, 137706, Control_c, 0, 64, 52
1, 137721, Control_c, 0, 64, 53
1, 137750, Control_c, 0, 64, 53
1, 137816, Note_on_c, 0, 64, 72
1, 137818, Note_on_c, 0, 55, 80
1, 137818, Note_off_c, 0, 65, 62
1, 137824, Control_c, 0, 64, 54
1, 137847, Note_off_c, 0, 55, 66
1, 137869, Control_c, 0, 64, 53
1, 137884, Control_c, 0, 64, 53
1, 137911, Note_off_c, 0, 74, 33
1, 137914, Control_c, 0, 64, 52
1, 137928, Note_off_c, 0, 64, 58
1, 137935, Note_on_c, 0, 65, 70
1, 137958, Control_c, 0, 64, 52
1, 137973, Control_c, 0, 64, 51
1, 137988, Control_c, 0, 64, 50
1, 138003, Control_c, 0, 64, 49
1, 138018, Control_c, 0, 64, 47
1, 138040, Control_c, 0, 64, 45
1, 138055, Control_c, 0, 64, 43
1, 138068, Note_off_c, 0, 65, 62
1, 138070, Control_c, 0, 64, 41
1, 138072, Note_on_c, 0, 45, 78
1, 138074, Note_on_c, 0, 64, 73
1, 138074, Note_on_c, 0, 72, 78
1, 138085, Control_c, 0, 64, 39
1, 138100, Control_c, 0, 64, 36
1, 138115, Control_c, 0, 64, 34
1, 138129, Control_c, 0, 64, 31
1, 138144, Control_c, 0, 64, 28
1, 138146, Note_off_c, 0, 64, 54
1, 138159, Control_c, 0, 64, 26
1, 138173, Control_c, 0, 64, 24
1, 138202, Note_on_c, 0, 62, 66
1, 138203, Control_c, 0, 64, 23
1, 138292, Control_c, 0, 64, 21
1, 138307, Control_c, 0, 64, 20
1, 138314, Note_off_c, 0, 62, 61
1, 138324, Note_on_c, 0, 60, 66
1, 138372, Note_off_c, 0, 60, 55
1, 138426, Control_c, 0, 64, 21
1, 138440, Control_c, 0, 64, 24
1, 138441, Note_on_c, 0, 64, 66
1, 138455, Control_c, 0, 64, 26
1, 138470, Control_c, 0, 64, 28
1, 138485, Control_c, 0, 64, 29
1, 138499, Control_c, 0, 64, 31
1, 138514, Control_c, 0, 64, 32
1, 138520, Note_off_c, 0, 45, 62
1, 138529, Control_c, 0, 64, 34
1, 138544, Control_c, 0, 64, 36
1, 138559, Control_c, 0, 64, 37
1, 138562, Note_on_c, 0, 47, 78
1, 138564, Note_on_c, 0, 62, 70
1, 138569, Note_off_c, 0, 64, 57
1, 138573, Control_c, 0, 64, 37
1, 138596, Note_off_c, 0, 47, 69
1, 138603, Control_c, 0, 64, 38
1, 138618, Control_c, 0, 64, 38
1, 138656, Note_off_c, 0, 62, 54
1, 138657, Note_off_c, 0, 72, 33
1, 138682, Note_on_c, 0, 64, 75
1, 138798, Note_off_c, 0, 64, 61
1, 138809, Note_on_c, 0, 71, 78
1, 138811, Note_on_c, 0, 62, 80
1, 138814, Note_on_c, 0, 48, 82
1, 138867, Note_off_c, 0, 48, 65
1, 138867, Note_off_c, 0, 62, 59
1, 138893, Control_c, 0, 64, 39
1, 138908, Control_c, 0, 64, 39
1, 138923, Control_c, 0, 64, 40
1, 138935, Note_on_c, 0, 60, 69
1, 138996, Control_c, 0, 64, 39
1, 139041, Control_c, 0, 64, 40
1, 139048, Note_off_c, 0, 60, 62
1, 139053, Note_on_c, 0, 59, 67
1, 139056, Control_c, 0, 64, 40
1, 139058, Note_on_c, 0, 50, 82
1, 139070, Control_c, 0, 64, 41
1, 139085, Control_c, 0, 64, 41
1, 139106, Note_off_c, 0, 50, 64
1, 139106, Note_off_c, 0, 59, 57
1, 139115, Control_c, 0, 64, 42
1, 139129, Control_c, 0, 64, 42
1, 139144, Control_c, 0, 64, 43
1, 139159, Control_c, 0, 64, 44
1, 139174, Note_on_c, 0, 62, 70
1, 139174, Control_c, 0, 64, 45
1, 139189, Control_c, 0, 64, 46
1, 139204, Control_c, 0, 64, 47
1, 139219, Control_c, 0, 64, 47
1, 139249, Control_c, 0, 64, 48
1, 139278, Control_c, 0, 64, 49
1, 139296, Note_off_c, 0, 62, 48
1, 139302, Note_on_c, 0, 52, 89
1, 139308, Control_c, 0, 64, 50
1, 139311, Note_on_c, 0, 60, 68
1, 139338, Control_c, 0, 64, 50
1, 139341, Note_off_c, 0, 52, 68
1, 139383, Control_c, 0, 64, 51
1, 139392, Note_off_c, 0, 60, 52
1, 139412, Control_c, 0, 64, 52
1, 139416, Note_on_c, 0, 62, 72
1, 139427, Note_off_c, 0, 71, 30
1, 139427, Control_c, 0, 64, 52
1, 139442, Control_c, 0, 64, 53
1, 139550, Note_on_c, 0, 42, 84
1, 139552, Note_off_c, 0, 62, 58
1, 139556, Note_on_c, 0, 60, 74
1, 139560, Note_on_c, 0, 69, 77
1, 139624, Note_off_c, 0, 60, 57
1, 139642, Control_c, 0, 64, 52
1, 139657, Control_c, 0, 64, 52
1, 139672, Control_c, 0, 64, 51
1, 139687, Control_c, 0, 64, 51
1, 139693, Note_on_c, 0, 59, 68
1, 139702, Control_c, 0, 64, 50
1, 139717, Control_c, 0, 64, 50
1, 139732, Control_c, 0, 64, 49
1, 139746, Control_c, 0, 64, 47
1, 139761, Control_c, 0, 64, 47
1, 139776, Control_c, 0, 64, 46
1, 139806, Control_c, 0, 64, 45
1, 139809, Note_off_c, 0, 59, 62
1, 139812, Note_on_c, 0, 57, 67
1, 139835, Control_c, 0, 64, 45
1, 139857, Note_off_c, 0, 57, 57
1, 139865, Control_c, 0, 64, 44
1, 139880, Control_c, 0, 64, 43
1, 139894, Control_c, 0, 64, 42
1, 139925, Note_on_c, 0, 60, 72
1, 139938, Control_c, 0, 64, 43
1, 139953, Control_c, 0, 64, 43
1, 139968, Control_c, 0, 64, 44
1, 139983, Control_c, 0, 64, 44
1, 140009, Note_off_c, 0, 60, 54
1, 140042, Note_on_c, 0, 59, 77
1, 140042, Control_c, 0, 64, 45
1, 140043, Note_on_c, 0, 43, 75
1, 140057, Control_c, 0, 64, 45
1, 140070, Note_off_c, 0, 42, 31
1, 140072, Control_c, 0, 64, 46
1, 140088, Note_off_c, 0, 43, 60
1, 140090, Note_off_c, 0, 69, 37
1, 140116, Control_c, 0, 64, 45
1, 140166, Note_on_c, 0, 67, 73
1, 140235, Control_c, 0, 64, 46
1, 140295, Note_on_c, 0, 69, 79
1, 140296, Note_on_c, 0, 42, 72
1, 140314, Note_off_c, 0, 67, 33
1, 140317, Control_c, 0, 64, 47
1, 140332, Control_c, 0, 64, 47
1, 140347, Control_c, 0, 64, 48
1, 140362, Control_c, 0, 64, 48
1, 140376, Control_c, 0, 64, 49
1, 140391, Control_c, 0, 64, 50
1, 140396, Note_off_c, 0, 42, 64
1, 140406, Control_c, 0, 64, 50
1, 140413, Note_off_c, 0, 69, 58
1, 140414, Note_on_c, 0, 43, 72
1, 140416, Note_on_c, 0, 67, 78
1, 140421, Control_c, 0, 64, 51
1, 140436, Control_c, 0, 64, 51
1, 140504, Note_off_c, 0, 67, 53
1, 140515, Note_off_c, 0, 43, 61
1, 140516, Note_on_c, 0, 45, 75
1, 140527, Note_on_c, 0, 66, 76
1, 140531, Note_off_c, 0, 59, 31
1, 140539, Control_c, 0, 64, 51
1, 140554, Control_c, 0, 64, 50
1, 140569, Control_c, 0, 64, 49
1, 140584, Control_c, 0, 64, 46
1, 140599, Control_c, 0, 64, 42
1, 140608, Note_off_c, 0, 45, 64
1, 140614, Control_c, 0, 64, 37
1, 140617, Note_on_c, 0, 47, 75
1, 140629, Control_c, 0, 64, 31
1, 140635, Note_on_c, 0, 67, 72
1, 140643, Control_c, 0, 64, 23
1, 140644, Note_off_c, 0, 66, 65
1, 140658, Control_c, 0, 64, 0
1, 140729, Note_off_c, 0, 47, 61
1, 140750, Note_on_c, 0, 57, 66
1, 140751, Note_on_c, 0, 36, 75
1, 140765, Note_on_c, 0, 66, 72
1, 140787, Note_off_c, 0, 57, 58
1, 140791, Control_c, 0, 64, 61
1, 140799, Note_off_c, 0, 36, 62
1, 140806, Control_c, 0, 64, 67
1, 140815, Note_off_c, 0, 67, 44
1, 140821, Control_c, 0, 64, 72
1, 140835, Control_c, 0, 64, 75
1, 140850, Control_c, 0, 64, 77
1, 140865, Control_c, 0, 64, 78
1, 140870, Note_off_c, 0, 66, 61
1, 140872, Note_on_c, 0, 62, 60
1, 140935, Note_off_c, 0, 62, 58
1, 140939, Control_c, 0, 64, 77
1, 140951, Note_on_c, 0, 64, 52
1, 140954, Control_c, 0, 64, 76
1, 140969, Control_c, 0, 64, 74
1, 140984, Control_c, 0, 64, 71
1, 140996, Note_on_c, 0, 60, 70
1, 140999, Control_c, 0, 64, 66
1, 141007, Note_off_c, 0, 64, 62
1, 141007, Note_on_c, 0, 66, 75
1, 141013, Control_c, 0, 64, 60
1, 141028, Control_c, 0, 64, 52
1, 141050, Control_c, 0, 64, 47
1, 141065, Control_c, 0, 64, 46
1, 141070, Note_off_c, 0, 60, 57
1, 141080, Control_c, 0, 64, 43
1, 141094, Control_c, 0, 64, 37
1, 141109, Control_c, 0, 64, 24
1, 141123, Note_on_c, 0, 59, 60
1, 141124, Note_on_c, 0, 62, 65
1, 141126, Control_c, 0, 64, 0
1, 141130, Note_off_c, 0, 66, 57
1, 141231, Note_off_c, 0, 59, 61
1, 141243, Note_off_c, 0, 62, 38
1, 141244, Control_c, 0, 64, 10
1, 141246, Note_on_c, 0, 67, 77
1, 141249, Note_on_c, 0, 57, 65
1, 141259, Control_c, 0, 64, 15
1, 141273, Control_c, 0, 64, 17
1, 141316, Note_off_c, 0, 57, 61
1, 141318, Control_c, 0, 64, 18
1, 141333, Control_c, 0, 64, 21
1, 141347, Control_c, 0, 64, 25
1, 141353, Note_off_c, 0, 67, 50
1, 141356, Note_on_c, 0, 55, 63
1, 141358, Note_on_c, 0, 62, 67
1, 141362, Control_c, 0, 64, 28
1, 141377, Control_c, 0, 64, 31
1, 141392, Control_c, 0, 64, 32
1, 141422, Control_c, 0, 64, 33
1, 141422, Note_off_c, 0, 55, 54
1, 141452, Control_c, 0, 64, 34
1, 141466, Control_c, 0, 64, 35
1, 141467, Note_on_c, 0, 54, 53
1, 141479, Note_on_c, 0, 69, 75
1, 141481, Control_c, 0, 64, 37
1, 141496, Control_c, 0, 64, 38
1, 141499, Note_off_c, 0, 62, 53
1, 141510, Control_c, 0, 64, 38
1, 141575, Note_off_c, 0, 54, 62
1, 141582, Note_on_c, 0, 52, 62
1, 141585, Note_off_c, 0, 69, 59
1, 141599, Control_c, 0, 64, 39
1, 141613, Note_on_c, 0, 62, 61
1, 141614, Control_c, 0, 64, 40
1, 141629, Control_c, 0, 64, 41
1, 141644, Control_c, 0, 64, 41
1, 141671, Note_off_c, 0, 52, 64
1, 141710, Note_on_c, 0, 50, 58
1, 141724, Note_on_c, 0, 71, 67
1, 141731, Note_off_c, 0, 62, 54
1, 141747, Control_c, 0, 64, 42
1, 141762, Control_c, 0, 64, 42
1, 141797, Note_off_c, 0, 50, 52
1, 141836, Note_on_c, 0, 48, 60
1, 141845, Note_off_c, 0, 71, 58
1, 141858, Note_on_c, 0, 62, 60
1, 141888, Control_c, 0, 64, 43
1, 141903, Control_c, 0, 64, 43
1, 141933, Note_off_c, 0, 48, 61
1, 141948, Control_c, 0, 64, 43
1, 141953, Note_off_c, 0, 62, 55
1, 141961, Note_on_c, 0, 47, 58
1, 141963, Control_c, 0, 64, 42
1, 141976, Note_on_c, 0, 72, 67
1, 142033, Note_off_c, 0, 72, 62
1, 142044, Note_off_c, 0, 47, 61
1, 142078, Note_on_c, 0, 62, 58
1, 142086, Note_on_c, 0, 45, 50
1, 142126, Control_c, 0, 64, 43
1, 142161, Note_off_c, 0, 45, 56
1, 142170, Control_c, 0, 64, 43
1, 142173, Note_off_c, 0, 62, 55
1, 142203, Note_on_c, 0, 43, 47
1, 142218, Note_on_c, 0, 71, 53
1, 142274, Control_c, 0, 64, 44
1, 142289, Control_c, 0, 64, 44
1, 142303, Note_off_c, 0, 71, 60
1, 142319, Control_c, 0, 64, 45
1, 142320, Note_off_c, 0, 43, 52
1, 142327, Note_on_c, 0, 79, 66
1, 142329, Note_on_c, 0, 45, 47
1, 142348, Control_c, 0, 64, 46
1, 142378, Control_c, 0, 64, 46
1, 142393, Control_c, 0, 64, 47
1, 142422, Control_c, 0, 64, 47
1, 142455, Note_off_c, 0, 45, 56
1, 142455, Note_off_c, 0, 79, 59
1, 142456, Note_on_c, 0, 77, 70
1, 142460, Note_on_c, 0, 47, 56
1, 142467, Control_c, 0, 64, 48
1, 142496, Control_c, 0, 64, 48
1, 142543, Note_off_c, 0, 47, 62
1, 142548, Control_c, 0, 64, 49
1, 142563, Note_off_c, 0, 77, 52
1, 142568, Note_on_c, 0, 43, 50
1, 142576, Note_on_c, 0, 76, 72
1, 142622, Control_c, 0, 64, 49
1, 142652, Control_c, 0, 64, 50
1, 142667, Control_c, 0, 64, 50
1, 142682, Control_c, 0, 64, 51
1, 142687, Note_on_c, 0, 48, 58
1, 142687, Note_off_c, 0, 43, 60
1, 142697, Note_on_c, 0, 74, 65
1, 142698, Note_off_c, 0, 76, 66
1, 142742, Control_c, 0, 64, 51
1, 142771, Control_c, 0, 64, 52
1, 142786, Control_c, 0, 64, 52
1, 142790, Note_off_c, 0, 48, 58
1, 142796, Note_off_c, 0, 74, 65
1, 142801, Control_c, 0, 64, 53
1, 142811, Note_on_c, 0, 43, 57
1, 142817, Note_on_c, 0, 72, 69
1, 142831, Control_c, 0, 64, 53
1, 142845, Control_c, 0, 64, 54
1, 142875, Control_c, 0, 64, 54
1, 142919, Control_c, 0, 64, 55
1, 142929, Note_off_c, 0, 43, 60
1, 142930, Note_on_c, 0, 50, 58
1, 142934, Control_c, 0, 64, 55
1, 142939, Note_on_c, 0, 71, 67
1, 142939, Note_off_c, 0, 72, 61
1, 142949, Control_c, 0, 64, 56
1, 143032, Note_off_c, 0, 50, 61
1, 143048, Note_on_c, 0, 43, 57
1, 143055, Note_on_c, 0, 69, 73
1, 143065, Note_off_c, 0, 71, 53
1, 143142, Control_c, 0, 64, 55
1, 143169, Note_off_c, 0, 69, 65
1, 143170, Note_off_c, 0, 43, 59
1, 143172, Note_on_c, 0, 67, 71
1, 143173, Note_on_c, 0, 52, 67
1, 143201, Control_c, 0, 64, 55
1, 143263, Note_off_c, 0, 67, 62
1, 143267, Note_off_c, 0, 52, 62
1, 143292, Note_on_c, 0, 43, 62
1, 143293, Note_on_c, 0, 65, 73
1, 143297, Control_c, 0, 64, 55
1, 143312, Control_c, 0, 64, 56
1, 143405, Note_on_c, 0, 64, 75
1, 143405, Note_off_c, 0, 65, 63
1, 143409, Note_off_c, 0, 43, 59
1, 143416, Note_on_c, 0, 53, 63
1, 143416, Control_c, 0, 64, 55
1, 143431, Control_c, 0, 64, 55
1, 143445, Control_c, 0, 64, 53
1, 143460, Control_c, 0, 64, 50
1, 143475, Control_c, 0, 64, 30
1, 143489, Control_c, 0, 64, 0
1, 143508, Note_off_c, 0, 53, 59
1, 143516, Note_off_c, 0, 64, 65
1, 143518, Note_on_c, 0, 62, 78
1, 143521, Note_on_c, 0, 43, 64
1, 143579, Control_c, 0, 64, 46
1, 143594, Control_c, 0, 64, 63
1, 143609, Control_c, 0, 64, 66
1, 143614, Note_off_c, 0, 43, 61
1, 143616, Note_off_c, 0, 62, 60
1, 143624, Control_c, 0, 64, 68
1, 143631, Note_on_c, 0, 60, 76
1, 143639, Control_c, 0, 64, 71
1, 143652, Note_on_c, 0, 52, 58
1, 143654, Control_c, 0, 64, 73
1, 143668, Control_c, 0, 64, 75
1, 143687, Note_off_c, 0, 60, 59
1, 143741, Note_off_c, 0, 52, 64
1, 143742, Control_c, 0, 64, 75
1, 143757, Control_c, 0, 64, 74
1, 143767, Note_on_c, 0, 76, 77
1, 143772, Control_c, 0, 64, 72
1, 143775, Note_on_c, 0, 40, 62
1, 143786, Control_c, 0, 64, 67
1, 143801, Control_c, 0, 64, 63
1, 143817, Control_c, 0, 64, 56
1, 143832, Control_c, 0, 64, 53
1, 143845, Note_on_c, 0, 42, 65
1, 143847, Control_c, 0, 64, 52
1, 143861, Control_c, 0, 64, 51
1, 143876, Control_c, 0, 64, 48
1, 143880, Note_off_c, 0, 40, 63
1, 143884, Note_on_c, 0, 44, 73
1, 143891, Note_on_c, 0, 74, 73
1, 143891, Control_c, 0, 64, 44
1, 143905, Control_c, 0, 64, 38
1, 143920, Control_c, 0, 64, 34
1, 143921, Note_off_c, 0, 76, 61
1, 143924, Note_off_c, 0, 42, 62
1, 143935, Control_c, 0, 64, 33
1, 143950, Control_c, 0, 64, 32
1, 143965, Control_c, 0, 64, 31
1, 143994, Control_c, 0, 64, 32
1, 144009, Note_on_c, 0, 72, 79
1, 144009, Control_c, 0, 64, 33
1, 144014, Note_on_c, 0, 40, 72
1, 144024, Control_c, 0, 64, 34
1, 144025, Note_off_c, 0, 44, 64
1, 144047, Control_c, 0, 64, 34
1, 144050, Note_off_c, 0, 74, 62
1, 144120, Control_c, 0, 64, 35
1, 144130, Note_off_c, 0, 72, 63
1, 144131, Note_on_c, 0, 45, 69
1, 144131, Note_off_c, 0, 40, 64
1, 144135, Control_c, 0, 64, 36
1, 144141, Note_on_c, 0, 71, 76
1, 144150, Control_c, 0, 64, 37
1, 144165, Control_c, 0, 64, 38
1, 144180, Control_c, 0, 64, 38
1, 144220, Note_off_c, 0, 45, 60
1, 144224, Control_c, 0, 64, 38
1, 144236, Note_off_c, 0, 71, 61
1, 144250, Note_on_c, 0, 40, 67
1, 144254, Control_c, 0, 64, 38
1, 144256, Note_on_c, 0, 69, 76
1, 144269, Control_c, 0, 64, 40
1, 144283, Control_c, 0, 64, 41
1, 144298, Control_c, 0, 64, 42
1, 144373, Note_on_c, 0, 47, 69
1, 144373, Note_off_c, 0, 40, 63
1, 144373, Control_c, 0, 64, 42
1, 144382, Note_on_c, 0, 68, 78
1, 144388, Note_off_c, 0, 69, 64
1, 144388, Control_c, 0, 64, 44
1, 144403, Control_c, 0, 64, 45
1, 144418, Control_c, 0, 64, 46
1, 144433, Control_c, 0, 64, 46
1, 144462, Control_c, 0, 64, 47
1, 144490, Note_on_c, 0, 40, 72
1, 144490, Note_off_c, 0, 47, 62
1, 144493, Note_on_c, 0, 66, 80
1, 144507, Control_c, 0, 64, 47
1, 144522, Control_c, 0, 64, 48
1, 144530, Note_off_c, 0, 68, 56
1, 144536, Control_c, 0, 64, 48
1, 144551, Control_c, 0, 64, 49
1, 144611, Note_on_c, 0, 64, 78
1, 144612, Note_on_c, 0, 48, 70
1, 144616, Note_off_c, 0, 40, 60
1, 144625, Note_off_c, 0, 66, 64
1, 144638, Control_c, 0, 64, 50
1, 144653, Control_c, 0, 64, 51
1, 144668, Control_c, 0, 64, 51
1, 144710, Note_off_c, 0, 64, 64
1, 144712, Note_off_c, 0, 48, 63
1, 144713, Control_c, 0, 64, 52
1, 144724, Note_on_c, 0, 62, 78
1, 144727, Control_c, 0, 64, 52
1, 144734, Note_on_c, 0, 40, 74
1, 144742, Control_c, 0, 64, 53
1, 144757, Control_c, 0, 64, 54
1, 144772, Control_c, 0, 64, 54
1, 144794, Control_c, 0, 64, 55
1, 144838, Control_c, 0, 64, 55
1, 144846, Note_on_c, 0, 60, 78
1, 144847, Note_off_c, 0, 62, 60
1, 144859, Note_on_c, 0, 50, 73
1, 144867, Note_off_c, 0, 40, 61
1, 144951, Note_off_c, 0, 60, 60
1, 144960, Note_on_c, 0, 59, 80
1, 144975, Note_off_c, 0, 50, 51
1, 144978, Note_on_c, 0, 40, 79
1, 144987, Control_c, 0, 64, 55
1, 145068, Note_off_c, 0, 40, 61
1, 145079, Note_off_c, 0, 59, 60
1, 145085, Note_on_c, 0, 57, 73
1, 145088, Note_on_c, 0, 49, 78
1, 145090, Control_c, 0, 64, 55
1, 145121, Control_c, 0, 64, 56
1, 145145, Note_off_c, 0, 57, 62
1, 145187, Note_off_c, 0, 49, 62
1, 145205, Note_on_c, 0, 57, 78
1, 145206, Note_on_c, 0, 59, 71
1, 145225, Control_c, 0, 64, 55
1, 145239, Control_c, 0, 64, 55
1, 145311, Note_off_c, 0, 57, 58
1, 145327, Note_on_c, 0, 55, 72
1, 145328, Note_on_c, 0, 61, 77
1, 145341, Note_off_c, 0, 59, 31
1, 145387, Control_c, 0, 64, 54
1, 145431, Control_c, 0, 64, 55
1, 145440, Note_on_c, 0, 57, 68
1, 145443, Note_off_c, 0, 55, 65
1, 145449, Note_on_c, 0, 54, 79
1, 145449, Note_off_c, 0, 61, 63
1, 145476, Control_c, 0, 64, 55
1, 145506, Control_c, 0, 64, 55
1, 145562, Note_off_c, 0, 54, 62
1, 145568, Note_on_c, 0, 52, 83
1, 145571, Note_on_c, 0, 62, 79
1, 145572, Control_c, 0, 64, 55
1, 145592, Note_off_c, 0, 57, 59
1, 145679, Note_off_c, 0, 52, 62
1, 145682, Note_on_c, 0, 50, 77
1, 145691, Note_on_c, 0, 57, 75
1, 145711, Note_off_c, 0, 62, 56
1, 145780, Control_c, 0, 64, 55
1, 145804, Note_on_c, 0, 49, 74
1, 145806, Note_off_c, 0, 50, 63
1, 145813, Note_on_c, 0, 64, 83
1, 145825, Control_c, 0, 64, 55
1, 145827, Note_off_c, 0, 57, 58
1, 145883, Control_c, 0, 64, 55
1, 145908, Note_off_c, 0, 64, 62
1, 145923, Note_on_c, 0, 47, 79
1, 145927, Note_off_c, 0, 49, 62
1, 145930, Note_on_c, 0, 57, 75
1, 145995, Note_off_c, 0, 47, 64
1, 146018, Control_c, 0, 64, 54
1, 146030, Note_on_c, 0, 45, 80
1, 146041, Note_on_c, 0, 66, 85
1, 146069, Note_off_c, 0, 57, 60
1, 146106, Control_c, 0, 64, 54
1, 146139, Note_off_c, 0, 45, 62
1, 146150, Note_on_c, 0, 43, 70
1, 146151, Control_c, 0, 64, 53
1, 146156, Note_on_c, 0, 57, 68
1, 146166, Control_c, 0, 64, 53
1, 146178, Note_off_c, 0, 66, 58
1, 146180, Control_c, 0, 64, 52
1, 146195, Control_c, 0, 64, 52
1, 146210, Control_c, 0, 64, 51
1, 146225, Control_c, 0, 64, 50
1, 146240, Control_c, 0, 64, 49
1, 146254, Control_c, 0, 64, 48
1, 146269, Control_c, 0, 64, 46
1, 146271, Note_on_c, 0, 42, 81
1, 146272, Note_off_c, 0, 43, 61
1, 146273, Note_on_c, 0, 67, 79
1, 146292, Control_c, 0, 64, 45
1, 146306, Control_c, 0, 64, 44
1, 146307, Note_off_c, 0, 57, 61
1, 146321, Control_c, 0, 64, 44
1, 146373, Note_off_c, 0, 42, 64
1, 146387, Note_on_c, 0, 40, 79
1, 146399, Note_on_c, 0, 57, 70
1, 146454, Control_c, 0, 64, 44
1, 146462, Note_off_c, 0, 57, 60
1, 146466, Note_off_c, 0, 67, 56
1, 146484, Control_c, 0, 64, 45
1, 146503, Note_off_c, 0, 40, 58
1, 146513, Control_c, 0, 64, 45
1, 146525, Note_on_c, 0, 38, 79
1, 146530, Note_on_c, 0, 62, 84
1, 146532, Note_on_c, 0, 66, 87
1, 146558, Control_c, 0, 64, 46
1, 146603, Control_c, 0, 64, 46
1, 146618, Control_c, 0, 64, 47
1, 146633, Note_off_c, 0, 66, 56
1, 146647, Control_c, 0, 64, 47
1, 146679, Note_off_c, 0, 62, 52
1, 146692, Control_c, 0, 64, 48
1, 146722, Control_c, 0, 64, 48
1, 146752, Control_c, 0, 64, 49
1, 146781, Note_on_c, 0, 71, 81
1, 146784, Note_on_c, 0, 60, 80
1, 146811, Control_c, 0, 64, 48
1, 146867, Note_off_c, 0, 71, 57
1, 146900, Control_c, 0, 64, 49
1, 146908, Note_on_c, 0, 62, 83
1, 146919, Note_off_c, 0, 60, 56
1, 146986, Note_off_c, 0, 62, 56
1, 147033, Note_on_c, 0, 67, 78
1, 147040, Note_on_c, 0, 64, 80
1, 147147, Note_on_c, 0, 62, 86
1, 147157, Note_off_c, 0, 67, 52
1, 147169, Note_off_c, 0, 64, 32
1, 147189, Control_c, 0, 64, 49
1, 147235, Note_off_c, 0, 62, 59
1, 147276, Note_on_c, 0, 64, 83
1, 147285, Note_on_c, 0, 60, 78
1, 147292, Control_c, 0, 64, 50
1, 147351, Control_c, 0, 64, 49
1, 147358, Note_off_c, 0, 64, 64
1, 147381, Control_c, 0, 64, 50
1, 147394, Note_off_c, 0, 60, 53
1, 147410, Control_c, 0, 64, 50
1, 147425, Control_c, 0, 64, 51
1, 147440, Control_c, 0, 64, 51
1, 147527, Note_on_c, 0, 59, 83
1, 147528, Note_on_c, 0, 69, 79
1, 147545, Control_c, 0, 64, 52
1, 147613, Note_off_c, 0, 69, 61
1, 147645, Note_on_c, 0, 60, 75
1, 147649, Control_c, 0, 64, 52
1, 147664, Control_c, 0, 64, 53
1, 147671, Note_off_c, 0, 59, 60
1, 147679, Control_c, 0, 64, 54
1, 147694, Control_c, 0, 64, 54
1, 147752, Control_c, 0, 64, 55
1, 147760, Note_off_c, 0, 60, 55
1, 147763, Note_on_c, 0, 62, 72
1, 147764, Note_on_c, 0, 66, 87
1, 147837, Note_off_c, 0, 62, 58
1, 147849, Control_c, 0, 64, 54
1, 147884, Note_on_c, 0, 60, 79
1, 147902, Note_off_c, 0, 38, 62
1, 147930, Note_off_c, 0, 66, 63
1, 147952, Control_c, 0, 64, 54
1, 147975, Note_off_c, 0, 60, 59
1, 147982, Control_c, 0, 64, 53
1, 147997, Control_c, 0, 64, 53
1, 148014, Note_on_c, 0, 67, 89
1, 148021, Note_on_c, 0, 59, 85
1, 148117, Note_off_c, 0, 59, 57
1, 148149, Note_on_c, 0, 50, 55
1, 148225, Note_off_c, 0, 50, 51
1, 148263, Control_c, 0, 64, 53
1, 148272, Note_on_c, 0, 60, 87
1, 148274, Note_on_c, 0, 48, 59
1, 148309, Control_c, 0, 64, 54
1, 148316, Note_off_c, 0, 60, 63
1, 148323, Control_c, 0, 64, 54
1, 148374, Note_off_c, 0, 48, 64
1, 148391, Note_on_c, 0, 50, 64
1, 148499, Note_off_c, 0, 50, 64
1, 148503, Note_on_c, 0, 62, 87
1, 148510, Note_on_c, 0, 52, 75
1, 148566, Note_off_c, 0, 62, 59
1, 148568, Control_c, 0, 64, 55
1, 148578, Note_off_c, 0, 52, 64
1, 148597, Control_c, 0, 64, 55
1, 148610, Note_on_c, 0, 50, 81
1, 148642, Control_c, 0, 64, 56
1, 148671, Control_c, 0, 64, 56
1, 148686, Control_c, 0, 64, 57
1, 148697, Note_off_c, 0, 67, 55
1, 148701, Control_c, 0, 64, 57
1, 148716, Control_c, 0, 64, 58
1, 148731, Note_off_c, 0, 50, 62
1, 148731, Control_c, 0, 64, 58
1, 148731, Note_on_c, 0, 64, 79
1, 148743, Note_on_c, 0, 48, 86
1, 148746, Control_c, 0, 64, 59
1, 148761, Control_c, 0, 64, 59
1, 148775, Control_c, 0, 64, 60
1, 148790, Control_c, 0, 64, 59
1, 148820, Control_c, 0, 64, 59
1, 148845, Note_on_c, 0, 69, 83
1, 148847, Note_off_c, 0, 64, 62
1, 148879, Control_c, 0, 64, 58
1, 148894, Control_c, 0, 64, 58
1, 148908, Control_c, 0, 64, 57
1, 148923, Control_c, 0, 64, 56
1, 148938, Control_c, 0, 64, 55
1, 148946, Note_off_c, 0, 48, 62
1, 148951, Note_off_c, 0, 69, 64
1, 148953, Note_on_c, 0, 47, 76
1, 148953, Control_c, 0, 64, 54
1, 148962, Note_on_c, 0, 71, 72
1, 148963, Note_on_c, 0, 54, 74
1, 148968, Control_c, 0, 64, 54
1, 148982, Control_c, 0, 64, 53
1, 148997, Control_c, 0, 64, 53
1, 149012, Control_c, 0, 64, 52
1, 149023, Note_off_c, 0, 71, 61
1, 149026, Note_on_c, 0, 69, 75
1, 149027, Control_c, 0, 64, 52
1, 149042, Control_c, 0, 64, 51
1, 149056, Control_c, 0, 64, 50
1, 149071, Control_c, 0, 64, 50
1, 149082, Note_on_c, 0, 48, 76
1, 149084, Note_off_c, 0, 69, 66
1, 149086, Note_off_c, 0, 47, 63
1, 149086, Control_c, 0, 64, 50
1, 149101, Note_on_c, 0, 71, 76
1, 149116, Control_c, 0, 64, 51
1, 149131, Control_c, 0, 64, 51
1, 149146, Control_c, 0, 64, 52
1, 149149, Note_on_c, 0, 69, 72
1, 149155, Note_off_c, 0, 54, 54
1, 149157, Note_off_c, 0, 71, 61
1, 149161, Control_c, 0, 64, 53
1, 149176, Control_c, 0, 64, 54
1, 149190, Control_c, 0, 64, 54
1, 149198, Note_on_c, 0, 50, 79
1, 149205, Note_off_c, 0, 48, 65
1, 149209, Note_off_c, 0, 69, 66
1, 149214, Note_on_c, 0, 71, 69
1, 149280, Note_on_c, 0, 69, 67
1, 149290, Note_off_c, 0, 71, 56
1, 149302, Control_c, 0, 64, 54
1, 149317, Control_c, 0, 64, 53
1, 149324, Note_on_c, 0, 67, 75
1, 149331, Note_on_c, 0, 48, 78
1, 149331, Control_c, 0, 64, 53
1, 149333, Note_off_c, 0, 69, 64
1, 149336, Note_off_c, 0, 50, 65
1, 149346, Control_c, 0, 64, 52
1, 149395, Note_on_c, 0, 69, 75
1, 149418, Note_off_c, 0, 67, 59
1, 149420, Control_c, 0, 64, 51
1, 149435, Control_c, 0, 64, 50
1, 149443, Note_off_c, 0, 48, 64
1, 149450, Control_c, 0, 64, 49
1, 149452, Note_on_c, 0, 71, 95
1, 149452, Note_on_c, 0, 47, 81
1, 149455, Note_on_c, 0, 55, 76
1, 149461, Note_off_c, 0, 69, 65
1, 149465, Control_c, 0, 64, 49
1, 149539, Control_c, 0, 64, 48
1, 149584, Control_c, 0, 64, 48
1, 149595, Note_off_c, 0, 71, 51
1, 149598, Control_c, 0, 64, 47
1, 149628, Control_c, 0, 64, 47
1, 149643, Control_c, 0, 64, 46
1, 149676, Note_off_c, 0, 47, 60
1, 149691, Note_off_c, 0, 55, 36
1, 149700, Note_on_c, 0, 72, 81
1, 149704, Note_on_c, 0, 69, 81
1, 149725, Note_on_c, 0, 45, 71
1, 149791, Control_c, 0, 64, 46
1, 149801, Note_off_c, 0, 69, 58
1, 149813, Note_off_c, 0, 72, 63
1, 149820, Control_c, 0, 64, 46
1, 149824, Note_on_c, 0, 71, 74
1, 149826, Note_on_c, 0, 67, 77
1, 149828, Note_off_c, 0, 45, 62
1, 149829, Note_on_c, 0, 47, 69
1, 149835, Control_c, 0, 64, 47
1, 149887, Note_off_c, 0, 67, 61
1, 149919, Note_off_c, 0, 71, 56
1, 149932, Note_off_c, 0, 47, 58
1, 149939, Control_c, 0, 64, 47
1, 149950, Note_on_c, 0, 66, 77
1, 149953, Note_on_c, 0, 69, 81
1, 149954, Note_on_c, 0, 48, 77
1, 149954, Control_c, 0, 64, 48
1, 149969, Control_c, 0, 64, 49
1, 150000, Note_off_c, 0, 66, 61
1, 150036, Control_c, 0, 64, 48
1, 150063, Note_on_c, 0, 47, 79
1, 150066, Note_off_c, 0, 48, 64
1, 150072, Note_on_c, 0, 67, 82
1, 150076, Note_on_c, 0, 71, 79
1, 150081, Control_c, 0, 64, 49
1, 150089, Note_off_c, 0, 69, 56
1, 150126, Note_off_c, 0, 67, 63
1, 150140, Control_c, 0, 64, 48
1, 150147, Note_off_c, 0, 71, 58
1, 150154, Control_c, 0, 64, 48
1, 150169, Control_c, 0, 64, 47
1, 150184, Control_c, 0, 64, 47
1, 150212, Note_off_c, 0, 47, 59
1, 150212, Note_on_c, 0, 72, 87
1, 150215, Note_on_c, 0, 45, 72
1, 150216, Note_on_c, 0, 69, 82
1, 150258, Control_c, 0, 64, 47
1, 150287, Control_c, 0, 64, 48
1, 150292, Note_off_c, 0, 45, 60
1, 150299, Note_off_c, 0, 69, 63
1, 150302, Control_c, 0, 64, 48
1, 150319, Note_off_c, 0, 72, 64
1, 150332, Control_c, 0, 64, 49
1, 150347, Control_c, 0, 64, 50
1, 150362, Control_c, 0, 64, 50
1, 150376, Control_c, 0, 64, 51
1, 150451, Control_c, 0, 64, 50
1, 150454, Note_on_c, 0, 74, 83
1, 150460, Note_on_c, 0, 71, 81
1, 150463, Note_on_c, 0, 43, 64
1, 150480, Control_c, 0, 64, 50
1, 150495, Control_c, 0, 64, 49
1, 150510, Control_c, 0, 64, 49
1, 150520, Note_off_c, 0, 71, 59
1, 150540, Control_c, 0, 64, 48
1, 150557, Note_off_c, 0, 74, 63
1, 150568, Note_off_c, 0, 43, 59
1, 150575, Note_on_c, 0, 45, 64
1, 150575, Note_on_c, 0, 72, 79
1, 150576, Note_on_c, 0, 69, 83
1, 150600, Control_c, 0, 64, 49
1, 150633, Note_off_c, 0, 69, 62
1, 150651, Note_off_c, 0, 72, 64
1, 150689, Note_on_c, 0, 71, 83
1, 150691, Note_on_c, 0, 67, 78
1, 150694, Note_on_c, 0, 47, 73
1, 150695, Note_off_c, 0, 45, 65
1, 150736, Note_off_c, 0, 67, 61
1, 150761, Note_off_c, 0, 71, 61
1, 150796, Note_off_c, 0, 47, 63
1, 150815, Note_on_c, 0, 72, 85
1, 150820, Note_on_c, 0, 69, 78
1, 150822, Note_on_c, 0, 45, 72
1, 150847, Note_off_c, 0, 69, 65
1, 150859, Control_c, 0, 64, 48
1, 150875, Note_off_c, 0, 72, 66
1, 150898, Note_off_c, 0, 45, 63
1, 150919, Control_c, 0, 64, 48
1, 150923, Note_on_c, 0, 43, 70
1, 150934, Control_c, 0, 64, 48
1, 150935, Note_on_c, 0, 74, 90
1, 150940, Note_on_c, 0, 71, 86
1, 150949, Control_c, 0, 64, 49
1, 150978, Control_c, 0, 64, 49
1, 150980, Note_off_c, 0, 71, 56
1, 150993, Control_c, 0, 64, 50
1, 151001, Note_off_c, 0, 74, 66
1, 151008, Note_off_c, 0, 43, 61
1, 151023, Control_c, 0, 64, 50
1, 151038, Control_c, 0, 64, 51
1, 151047, Note_on_c, 0, 55, 67
1, 151052, Control_c, 0, 64, 53
1, 151067, Control_c, 0, 64, 54
1, 151123, Note_off_c, 0, 55, 51
1, 151126, Control_c, 0, 64, 53
1, 151138, Note_on_c, 0, 54, 70
1, 151141, Control_c, 0, 64, 52
1, 151156, Control_c, 0, 64, 52
1, 151170, Control_c, 0, 64, 51
1, 151180, Note_on_c, 0, 72, 88
1, 151181, Note_on_c, 0, 69, 85
1, 151222, Note_off_c, 0, 54, 62
1, 151228, Note_on_c, 0, 52, 69
1, 151230, Control_c, 0, 64, 52
1, 151237, Note_off_c, 0, 69, 63
1, 151257, Note_off_c, 0, 72, 64
1, 151305, Note_off_c, 0, 52, 63
1, 151322, Note_on_c, 0, 55, 68
1, 151348, Control_c, 0, 64, 52
1, 151377, Control_c, 0, 64, 52
1, 151407, Control_c, 0, 64, 51
1, 151423, Note_on_c, 0, 71, 87
1, 151426, Note_off_c, 0, 55, 61
1, 151432, Note_on_c, 0, 67, 79
1, 151439, Note_on_c, 0, 50, 67
1, 151466, Control_c, 0, 64, 52
1, 151503, Note_off_c, 0, 50, 64
1, 151506, Note_off_c, 0, 71, 62
1, 151546, Note_on_c, 0, 55, 68
1, 151548, Control_c, 0, 64, 52
1, 151563, Control_c, 0, 64, 53
1, 151578, Control_c, 0, 64, 53
1, 151593, Control_c, 0, 64, 54
1, 151622, Control_c, 0, 64, 54
1, 151652, Control_c, 0, 64, 55
1, 151670, Note_off_c, 0, 55, 61
1, 151684, Note_on_c, 0, 69, 89
1, 151691, Note_on_c, 0, 49, 65
1, 151697, Control_c, 0, 64, 55
1, 151712, Control_c, 0, 64, 56
1, 151741, Control_c, 0, 64, 56
1, 151756, Control_c, 0, 64, 57
1, 151757, Note_off_c, 0, 69, 67
1, 151789, Note_on_c, 0, 55, 66
1, 151793, Note_off_c, 0, 49, 53
1, 151904, Control_c, 0, 64, 56
1, 151933, Control_c, 0, 64, 56
1, 151948, Control_c, 0, 64, 55
1, 151950, Note_on_c, 0, 47, 63
1, 151952, Note_on_c, 0, 79, 87
1, 151956, Note_on_c, 0, 74, 77
1, 151963, Note_off_c, 0, 55, 60
1, 151963, Control_c, 0, 64, 55
1, 151978, Control_c, 0, 64, 54
1, 151992, Control_c, 0, 64, 54
1, 152007, Control_c, 0, 64, 53
1, 152022, Control_c, 0, 64, 52
1, 152037, Control_c, 0, 64, 51
1, 152052, Control_c, 0, 64, 50
1, 152067, Note_off_c, 0, 47, 62
1, 152067, Control_c, 0, 64, 50
1, 152078, Note_on_c, 0, 55, 67
1, 152082, Control_c, 0, 64, 49
1, 152096, Control_c, 0, 64, 49
1, 152111, Control_c, 0, 64, 48
1, 152126, Control_c, 0, 64, 48
1, 152141, Control_c, 0, 64, 47
1, 152154, Note_off_c, 0, 67, 55
1, 152189, Note_off_c, 0, 79, 60
1, 152194, Note_off_c, 0, 55, 62
1, 152200, Note_on_c, 0, 45, 64
1, 152203, Note_on_c, 0, 73, 87
1, 152225, Note_off_c, 0, 74, 61
1, 152230, Control_c, 0, 64, 48
1, 152244, Control_c, 0, 64, 48
1, 152259, Control_c, 0, 64, 49
1, 152276, Note_off_c, 0, 73, 61
1, 152281, Control_c, 0, 64, 50
1, 152295, Note_off_c, 0, 45, 62
1, 152297, Control_c, 0, 64, 51
1, 152312, Control_c, 0, 64, 52
1, 152316, Note_on_c, 0, 55, 67
1, 152327, Control_c, 0, 64, 53
1, 152342, Control_c, 0, 64, 53
1, 152371, Control_c, 0, 64, 54
1, 152401, Control_c, 0, 64, 54
1, 152411, Note_off_c, 0, 55, 62
1, 152430, Control_c, 0, 64, 55
1, 152439, Note_on_c, 0, 50, 68
1, 152445, Control_c, 0, 64, 56
1, 152451, Note_on_c, 0, 78, 89
1, 152460, Control_c, 0, 64, 56
1, 152461, Note_on_c, 0, 74, 68
1, 152475, Control_c, 0, 64, 57
1, 152484, Note_off_c, 0, 74, 71
1, 152490, Control_c, 0, 64, 57
1, 152515, Note_off_c, 0, 78, 67
1, 152520, Control_c, 0, 64, 58
1, 152564, Note_off_c, 0, 50, 64
1, 152566, Note_on_c, 0, 48, 76
1, 152609, Control_c, 0, 64, 58
1, 152638, Control_c, 0, 64, 57
1, 152672, Note_off_c, 0, 48, 61
1, 152685, Note_on_c, 0, 46, 79
1, 152688, Note_on_c, 0, 76, 86
1, 152692, Note_on_c, 0, 67, 81
1, 152739, Note_off_c, 0, 67, 61
1, 152745, Note_off_c, 0, 76, 66
1, 152788, Note_off_c, 0, 46, 62
1, 152798, Note_on_c, 0, 50, 81
1, 152889, Control_c, 0, 64, 57
1, 152904, Control_c, 0, 64, 56
1, 152931, Note_on_c, 0, 74, 80
1, 152933, Note_on_c, 0, 45, 78
1, 152934, Note_off_c, 0, 50, 60
1, 152938, Note_on_c, 0, 66, 88
1, 152979, Control_c, 0, 64, 56
1, 152992, Note_off_c, 0, 66, 66
1, 152994, Control_c, 0, 64, 56
1, 153006, Note_off_c, 0, 74, 65
1, 153038, Note_off_c, 0, 45, 64
1, 153045, Control_c, 0, 64, 57
1, 153049, Note_on_c, 0, 50, 80
1, 153074, Control_c, 0, 64, 57
1, 153184, Note_on_c, 0, 64, 77
1, 153184, Note_on_c, 0, 73, 89
1, 153189, Note_on_c, 0, 43, 75
1, 153195, Note_off_c, 0, 50, 60
1, 153209, Control_c, 0, 64, 57
1, 153213, Note_off_c, 0, 64, 68
1, 153253, Note_off_c, 0, 73, 65
1, 153268, Control_c, 0, 64, 56
1, 153292, Note_off_c, 0, 43, 63
1, 153298, Control_c, 0, 64, 56
1, 153300, Note_on_c, 0, 50, 83
1, 153342, Control_c, 0, 64, 55
1, 153467, Note_on_c, 0, 82, 90
1, 153478, Note_on_c, 0, 73, 72
1, 153485, Note_off_c, 0, 50, 55
1, 153488, Note_on_c, 0, 42, 79
1, 153520, Control_c, 0, 64, 55
1, 153565, Control_c, 0, 64, 54
1, 153595, Control_c, 0, 64, 54
1, 153602, Note_on_c, 0, 50, 77
1, 153610, Control_c, 0, 64, 53
1, 153625, Control_c, 0, 64, 53
1, 153635, Note_off_c, 0, 42, 60
1, 153639, Control_c, 0, 64, 52
1, 153654, Control_c, 0, 64, 51
1, 153669, Control_c, 0, 64, 51
1, 153684, Control_c, 0, 64, 50
1, 153698, Control_c, 0, 64, 50
1, 153713, Control_c, 0, 64, 49
1, 153728, Control_c, 0, 64, 49
1, 153732, Note_on_c, 0, 40, 79
1, 153741, Note_off_c, 0, 50, 62
1, 153780, Control_c, 0, 64, 48
1, 153795, Control_c, 0, 64, 48
1, 153851, Note_on_c, 0, 50, 82
1, 153854, Note_off_c, 0, 82, 17
1, 153880, Note_off_c, 0, 40, 53
1, 153907, Note_off_c, 0, 73, 53
1, 153929, Control_c, 0, 64, 48
1, 153959, Control_c, 0, 64, 49
1, 153963, Note_off_c, 0, 50, 60
1, 153989, Control_c, 0, 64, 49
1, 153990, Note_on_c, 0, 81, 87
1, 153999, Note_on_c, 0, 72, 82
1, 154003, Control_c, 0, 64, 50
1, 154004, Note_on_c, 0, 42, 74
1, 154033, Control_c, 0, 64, 50
1, 154048, Control_c, 0, 64, 51
1, 154077, Control_c, 0, 64, 51
1, 154092, Control_c, 0, 64, 52
1, 154107, Control_c, 0, 64, 52
1, 154121, Control_c, 0, 64, 53
1, 154123, Note_on_c, 0, 79, 85
1, 154128, Note_off_c, 0, 81, 60
1, 154151, Control_c, 0, 64, 53
1, 154162, Note_off_c, 0, 42, 49
1, 154166, Control_c, 0, 64, 54
1, 154181, Control_c, 0, 64, 55
1, 154195, Control_c, 0, 64, 56
1, 154210, Control_c, 0, 64, 57
1, 154216, Note_off_c, 0, 72, 0
1, 154219, Note_off_c, 0, 79, 61
1, 154225, Control_c, 0, 64, 57
1, 154249, Note_on_c, 0, 38, 79
1, 154251, Note_on_c, 0, 78, 89
1, 154252, Note_on_c, 0, 72, 25
1, 154284, Control_c, 0, 64, 57
1, 154299, Control_c, 0, 64, 56
1, 154323, Note_off_c, 0, 78, 65
1, 154374, Control_c, 0, 64, 56
1, 154377, Note_on_c, 0, 76, 86
1, 154386, Note_off_c, 0, 38, 56
1, 154403, Control_c, 0, 64, 55
1, 154418, Control_c, 0, 64, 54
1, 154477, Control_c, 0, 64, 54
1, 154495, Note_off_c, 0, 72, 61
1, 154502, Note_on_c, 0, 43, 83
1, 154504, Note_on_c, 0, 74, 75
1, 154544, Control_c, 0, 64, 53
1, 154559, Control_c, 0, 64, 53
1, 154574, Control_c, 0, 64, 52
1, 154588, Control_c, 0, 64, 52
1, 154652, Note_on_c, 0, 71, 60
1, 154653, Note_off_c, 0, 43, 58
1, 154662, Control_c, 0, 64, 51
1, 154709, Note_on_c, 0, 69, 75
1, 154717, Note_off_c, 0, 71, 62
1, 154723, Control_c, 0, 64, 51
1, 154737, Note_off_c, 0, 74, 56
1, 154737, Control_c, 0, 64, 50
1, 154761, Note_on_c, 0, 40, 84
1, 154767, Control_c, 0, 64, 50
1, 154771, Note_on_c, 0, 71, 79
1, 154782, Note_off_c, 0, 76, 61
1, 154794, Note_off_c, 0, 69, 63
1, 154871, Control_c, 0, 64, 51
1, 154886, Control_c, 0, 64, 51
1, 154887, Note_off_c, 0, 40, 57
1, 154906, Note_on_c, 0, 79, 87
1, 154922, Note_off_c, 0, 71, 62
1, 154944, Control_c, 0, 64, 51
1, 155033, Control_c, 0, 64, 51
1, 155046, Note_on_c, 0, 69, 87
1, 155052, Note_on_c, 0, 36, 83
1, 155062, Control_c, 0, 64, 52
1, 155105, Note_off_c, 0, 79, 57
1, 155107, Control_c, 0, 64, 52
1, 155151, Control_c, 0, 64, 53
1, 155181, Control_c, 0, 64, 53
1, 155185, Note_on_c, 0, 72, 87
1, 155210, Control_c, 0, 64, 54
1, 155223, Note_off_c, 0, 36, 50
1, 155225, Control_c, 0, 64, 54
1, 155240, Control_c, 0, 64, 55
1, 155255, Control_c, 0, 64, 56
1, 155277, Control_c, 0, 64, 57
1, 155292, Control_c, 0, 64, 57
1, 155330, Note_off_c, 0, 72, 63
1, 155340, Note_on_c, 0, 79, 89
1, 155351, Note_on_c, 0, 38, 82
1, 155444, Note_off_c, 0, 69, 61
1, 155471, Note_off_c, 0, 79, 63
1, 155485, Control_c, 0, 64, 57
1, 155500, Control_c, 0, 64, 57
1, 155507, Note_on_c, 0, 78, 92
1, 155589, Control_c, 0, 64, 58
1, 155604, Control_c, 0, 64, 58
1, 155648, Control_c, 0, 64, 58
1, 155649, Note_off_c, 0, 78, 54
1, 155678, Control_c, 0, 64, 57
1, 155707, Control_c, 0, 64, 57
1, 155720, Note_off_c, 0, 38, 62
1, 155737, Control_c, 0, 64, 56
1, 155742, Note_on_c, 0, 79, 92
1, 155752, Control_c, 0, 64, 55
1, 155754, Note_on_c, 0, 43, 77
1, 155754, Note_on_c, 0, 71, 74
1, 155757, Note_on_c, 0, 31, 72
1, 155766, Control_c, 0, 64, 54
1, 155781, Control_c, 0, 64, 54
1, 155792, Note_off_c, 0, 71, 53
1, 155796, Control_c, 0, 64, 53
1, 155826, Control_c, 0, 64, 54
1, 155840, Control_c, 0, 64, 54
1, 155894, Note_on_c, 0, 78, 69
1, 155915, Control_c, 0, 64, 55
1, 155923, Note_off_c, 0, 79, 47
1, 155930, Control_c, 0, 64, 56
1, 155945, Control_c, 0, 64, 56
1, 155964, Note_on_c, 0, 76, 69
1, 156026, Note_off_c, 0, 78, 53
1, 156039, Note_on_c, 0, 74, 79
1, 156041, Note_on_c, 0, 71, 70
1, 156055, Control_c, 0, 64, 56
1, 156064, Note_off_c, 0, 76, 67
1, 156085, Control_c, 0, 64, 55
1, 156173, Note_off_c, 0, 71, 56
1, 156183, Note_on_c, 0, 79, 83
1, 156189, Control_c, 0, 64, 56
1, 156195, Note_off_c, 0, 74, 62
1, 156308, Control_c, 0, 64, 56
1, 156320, Note_on_c, 0, 72, 82
1, 156320, Note_off_c, 0, 31, 57
1, 156326, Note_on_c, 0, 69, 77
1, 156349, Note_off_c, 0, 79, 56
1, 156353, Control_c, 0, 64, 57
1, 156383, Control_c, 0, 64, 57
1, 156412, Control_c, 0, 64, 58
1, 156442, Control_c, 0, 64, 58
1, 156455, Note_on_c, 0, 79, 86
1, 156460, Note_off_c, 0, 72, 62
1, 156473, Note_off_c, 0, 69, 64
1, 156483, Note_off_c, 0, 43, 56
1, 156545, Control_c, 0, 64, 58
1, 156580, Note_off_c, 0, 79, 47
1, 156585, Note_on_c, 0, 71, 81
1, 156588, Note_on_c, 0, 67, 86
1, 156634, Control_c, 0, 64, 57
1, 156724, Note_on_c, 0, 43, 66
1, 156753, Control_c, 0, 64, 58
1, 156799, Note_on_c, 0, 45, 82
1, 156817, Note_off_c, 0, 43, 62
1, 156834, Control_c, 0, 64, 57
1, 156845, Note_on_c, 0, 79, 80
1, 156867, Note_on_c, 0, 47, 86
1, 156878, Note_off_c, 0, 45, 65
1, 156881, Note_off_c, 0, 71, 58
1, 156893, Control_c, 0, 64, 57
1, 156900, Note_off_c, 0, 79, 64
1, 156967, Control_c, 0, 64, 57
1, 156990, Note_on_c, 0, 43, 82
1, 156991, Note_off_c, 0, 47, 65
1, 156997, Control_c, 0, 64, 58
1, 157048, Note_off_c, 0, 67, 0
1, 157056, Control_c, 0, 64, 57
1, 157086, Poly_aftertouch_c, 0, 67, 127
1, 157122, Note_on_c, 0, 48, 86
1, 157124, Note_on_c, 0, 69, 84
1, 157125, Note_off_c, 0, 43, 62
1, 157134, Poly_aftertouch_c, 0, 67, 0
1, 157141, Note_on_c, 0, 66, 78
1, 157176, Control_c, 0, 64, 57
1, 157191, Control_c, 0, 64, 56
1, 157209, Note_off_c, 0, 69, 64
1, 157217, Note_off_c, 0, 66, 59
1, 157238, Note_on_c, 0, 43, 79
1, 157246, Note_off_c, 0, 48, 64
1, 157279, Control_c, 0, 64, 56
1, 157293, Control_c, 0, 64, 55
1, 157308, Control_c, 0, 64, 54
1, 157323, Control_c, 0, 64, 53
1, 157337, Control_c, 0, 64, 53
1, 157367, Control_c, 0, 64, 52
1, 157381, Note_on_c, 0, 71, 81
1, 157382, Note_off_c, 0, 43, 62
1, 157382, Control_c, 0, 64, 51
1, 157387, Note_on_c, 0, 50, 87
1, 157389, Note_on_c, 0, 67, 72
1, 157397, Control_c, 0, 64, 48
1, 157411, Control_c, 0, 64, 45
1, 157426, Control_c, 0, 64, 40
1, 157441, Control_c, 0, 64, 37
1, 157456, Control_c, 0, 64, 36
1, 157486, Control_c, 0, 64, 36
1, 157501, Control_c, 0, 64, 37
1, 157503, Note_off_c, 0, 71, 60
1, 157515, Note_on_c, 0, 74, 73
1, 157519, Note_off_c, 0, 67, 57
1, 157567, Control_c, 0, 64, 36
1, 157582, Control_c, 0, 64, 36
1, 157595, Note_on_c, 0, 72, 80
1, 157595, Note_off_c, 0, 74, 68
1, 157611, Control_c, 0, 64, 36
1, 157626, Control_c, 0, 64, 37
1, 157632, Note_on_c, 0, 67, 74
1, 157632, Note_on_c, 0, 71, 79
1, 157641, Control_c, 0, 64, 38
1, 157656, Note_on_c, 0, 43, 77
1, 157656, Control_c, 0, 64, 39
1, 157666, Note_off_c, 0, 50, 61
1, 157683, Note_off_c, 0, 72, 60
1, 157772, Note_on_c, 0, 74, 80
1, 157774, Note_off_c, 0, 71, 57
1, 157775, Control_c, 0, 64, 39
1, 157789, Note_off_c, 0, 67, 28
1, 157819, Control_c, 0, 64, 39
1, 157878, Control_c, 0, 64, 40
1, 157894, Control_c, 0, 64, 41
1, 157896, Note_on_c, 0, 69, 80
1, 157900, Note_on_c, 0, 65, 76
1, 157909, Note_on_c, 0, 47, 69
1, 157909, Control_c, 0, 64, 42
1, 157918, Note_off_c, 0, 74, 63
1, 157924, Control_c, 0, 64, 42
1, 158024, Note_on_c, 0, 74, 83
1, 158028, Control_c, 0, 64, 44
1, 158031, Note_off_c, 0, 69, 61
1, 158042, Note_off_c, 0, 65, 62
1, 158042, Control_c, 0, 64, 44
1, 158086, Control_c, 0, 64, 44
1, 158101, Control_c, 0, 64, 43
1, 158116, Control_c, 0, 64, 42
1, 158128, Note_on_c, 0, 48, 71
1, 158131, Note_off_c, 0, 47, 65
1, 158146, Control_c, 0, 64, 43
1, 158157, Note_on_c, 0, 67, 77
1, 158158, Note_on_c, 0, 64, 73
1, 158160, Control_c, 0, 64, 43
1, 158169, Note_off_c, 0, 74, 61
1, 158175, Control_c, 0, 64, 44
1, 158190, Control_c, 0, 64, 44
1, 158201, Note_off_c, 0, 48, 65
1, 158219, Note_on_c, 0, 47, 63
1, 158249, Control_c, 0, 64, 45
1, 158272, Control_c, 0, 64, 45
1, 158283, Note_on_c, 0, 48, 75
1, 158286, Control_c, 0, 64, 46
1, 158301, Control_c, 0, 64, 47
1, 158316, Control_c, 0, 64, 47
1, 158322, Note_off_c, 0, 47, 62
1, 158343, Note_on_c, 0, 50, 80
1, 158360, Control_c, 0, 64, 47
1, 158368, Note_off_c, 0, 48, 65
1, 158375, Control_c, 0, 64, 46
1, 158390, Control_c, 0, 64, 46
1, 158405, Control_c, 0, 64, 45
1, 158409, Note_off_c, 0, 67, 60
1, 158413, Note_on_c, 0, 72, 85
1, 158426, Note_on_c, 0, 52, 80
1, 158427, Note_off_c, 0, 50, 63
1, 158434, Control_c, 0, 64, 45
1, 158464, Control_c, 0, 64, 45
1, 158479, Control_c, 0, 64, 45
1, 158493, Control_c, 0, 64, 44
1, 158511, Note_off_c, 0, 52, 59
1, 158534, Note_on_c, 0, 48, 79
1, 158553, Control_c, 0, 64, 45
1, 158568, Control_c, 0, 64, 45
1, 158583, Control_c, 0, 64, 46
1, 158617, Note_off_c, 0, 64, 58
1, 158642, Control_c, 0, 64, 46
1, 158657, Control_c, 0, 64, 47
1, 158672, Control_c, 0, 64, 47
1, 158674, Note_on_c, 0, 54, 81
1, 158676, Note_off_c, 0, 48, 63
1, 158678, Note_on_c, 0, 63, 79
1, 158702, Control_c, 0, 64, 48
1, 158717, Control_c, 0, 64, 47
1, 158732, Control_c, 0, 64, 47
1, 158776, Note_off_c, 0, 54, 62
1, 158777, Control_c, 0, 64, 46
1, 158783, Note_on_c, 0, 48, 78
1, 158806, Control_c, 0, 64, 47
1, 158821, Control_c, 0, 64, 47
1, 158836, Control_c, 0, 64, 48
1, 158851, Control_c, 0, 64, 48
1, 158882, Note_off_c, 0, 72, 34
1, 158895, Control_c, 0, 64, 49
1, 158898, Note_off_c, 0, 63, 64
1, 158917, Note_on_c, 0, 62, 76
1, 158923, Note_off_c, 0, 48, 64
1, 158924, Note_on_c, 0, 55, 73
1, 158969, Control_c, 0, 64, 48
1, 158991, Note_off_c, 0, 62, 58
1, 158998, Note_on_c, 0, 67, 76
1, 158998, Control_c, 0, 64, 48
1, 159021, Control_c, 0, 64, 47
1, 159080, Control_c, 0, 64, 48
1, 159082, Note_on_c, 0, 69, 82
1, 159085, Note_off_c, 0, 67, 63
1, 159109, Control_c, 0, 64, 49
1, 159139, Control_c, 0, 64, 49
1, 159146, Note_on_c, 0, 71, 73
1, 159148, Note_off_c, 0, 69, 67
1, 159169, Control_c, 0, 64, 50
1, 159183, Control_c, 0, 64, 51
1, 159198, Control_c, 0, 64, 51
1, 159218, Note_on_c, 0, 64, 75
1, 159221, Note_on_c, 0, 72, 86
1, 159228, Control_c, 0, 64, 52
1, 159233, Note_off_c, 0, 71, 57
1, 159257, Control_c, 0, 64, 52
1, 159302, Control_c, 0, 64, 53
1, 159316, Control_c, 0, 64, 54
1, 159340, Note_off_c, 0, 64, 58
1, 159346, Control_c, 0, 64, 54
1, 159376, Note_off_c, 0, 72, 60
1, 159376, Control_c, 0, 64, 54
1, 159377, Note_on_c, 0, 67, 85
1, 159391, Control_c, 0, 64, 53
1, 159406, Control_c, 0, 64, 53
1, 159435, Control_c, 0, 64, 52
1, 159450, Control_c, 0, 64, 51
1, 159465, Control_c, 0, 64, 48
1, 159480, Control_c, 0, 64, 38
1, 159495, Control_c, 0, 64, 0
1, 159506, Note_off_c, 0, 67, 58
1, 159522, Note_on_c, 0, 71, 73
1, 159527, Note_on_c, 0, 65, 79
1, 159531, Note_on_c, 0, 74, 72
1, 159599, Control_c, 0, 64, 61
1, 159611, Note_off_c, 0, 65, 59
1, 159614, Control_c, 0, 64, 67
1, 159629, Control_c, 0, 64, 71
1, 159644, Control_c, 0, 64, 76
1, 159658, Control_c, 0, 64, 79
1, 159666, Note_on_c, 0, 67, 80
1, 159673, Control_c, 0, 64, 81
1, 159686, Note_off_c, 0, 71, 51
1, 159688, Control_c, 0, 64, 82
1, 159703, Control_c, 0, 64, 83
1, 159716, Note_off_c, 0, 67, 60
1, 159719, Note_off_c, 0, 74, 63
1, 159829, Control_c, 0, 64, 82
1, 159835, Note_on_c, 0, 67, 77
1, 159835, Note_on_c, 0, 76, 73
1, 159841, Note_on_c, 0, 72, 71
1, 159844, Control_c, 0, 64, 81
1, 159858, Control_c, 0, 64, 79
1, 159873, Control_c, 0, 64, 76
1, 159888, Control_c, 0, 64, 72
1, 159903, Control_c, 0, 64, 67
1, 159916, Note_off_c, 0, 72, 62
1, 159918, Control_c, 0, 64, 59
1, 159922, Note_on_c, 0, 71, 79
1, 159932, Control_c, 0, 64, 41
1, 159938, Note_off_c, 0, 67, 54
1, 159939, Note_off_c, 0, 76, 63
1, 159947, Control_c, 0, 64, 36
1, 159962, Control_c, 0, 64, 39
1, 159999, Note_on_c, 0, 72, 83
1, 160006, Control_c, 0, 64, 38
1, 160019, Note_off_c, 0, 71, 60
1, 160021, Control_c, 0, 64, 38
1, 160051, Control_c, 0, 64, 37
1, 160065, Control_c, 0, 64, 37
1, 160070, Note_on_c, 0, 74, 70
1, 160073, Note_off_c, 0, 72, 67
1, 160080, Control_c, 0, 64, 36
1, 160139, Note_on_c, 0, 67, 63
1, 160148, Note_on_c, 0, 76, 84
1, 160169, Control_c, 0, 64, 37
1, 160178, Note_off_c, 0, 74, 64
1, 160184, Control_c, 0, 64, 36
1, 160258, Control_c, 0, 64, 37
1, 160289, Control_c, 0, 64, 37
1, 160326, Note_off_c, 0, 76, 64
1, 160327, Note_on_c, 0, 72, 79
1, 160330, Note_off_c, 0, 67, 57
1, 160363, Control_c, 0, 64, 38
1, 160378, Control_c, 0, 64, 38
1, 160393, Control_c, 0, 64, 39
1, 160408, Control_c, 0, 64, 40
1, 160452, Control_c, 0, 64, 39
1, 160467, Control_c, 0, 64, 39
1, 160482, Control_c, 0, 64, 38
1, 160496, Note_on_c, 0, 78, 90
1, 160506, Note_off_c, 0, 72, 59
1, 160514, Note_on_c, 0, 69, 70
1, 160578, Control_c, 0, 64, 38
1, 160593, Control_c, 0, 64, 37
1, 160708, Note_on_c, 0, 72, 76
1, 160712, Note_off_c, 0, 69, 62
1, 160786, Control_c, 0, 64, 38
1, 160801, Control_c, 0, 64, 39
1, 160815, Control_c, 0, 64, 40
1, 160850, Note_off_c, 0, 78, 64
1, 160919, Control_c, 0, 64, 40
1, 160938, Note_on_c, 0, 79, 84
1, 160952, Note_off_c, 0, 72, 64
1, 160959, Note_on_c, 0, 71, 70
1, 160978, Control_c, 0, 64, 40
1, 161007, Control_c, 0, 64, 39
1, 161083, Control_c, 0, 64, 39
1, 161112, Control_c, 0, 64, 38
1, 161166, Note_on_c, 0, 74, 80
1, 161201, Control_c, 0, 64, 39
1, 161355, Note_on_c, 0, 76, 81
1, 161365, Note_off_c, 0, 74, 59
1, 161401, Control_c, 0, 64, 39
1, 161460, Control_c, 0, 64, 40
1, 161534, Control_c, 0, 64, 40
1, 161543, Note_off_c, 0, 71, 58
1, 161554, Note_on_c, 0, 72, 80
1, 161564, Control_c, 0, 64, 41
1, 161579, Control_c, 0, 64, 41
1, 161638, Control_c, 0, 64, 41
1, 161653, Control_c, 0, 64, 40
1, 161683, Control_c, 0, 64, 40
1, 161744, Note_off_c, 0, 76, 29
1, 161818, Note_on_c, 0, 69, 78
1, 161920, Control_c, 0, 64, 40
1, 161964, Control_c, 0, 64, 41
1, 162075, Note_off_c, 0, 79, 62
1, 162086, Note_on_c, 0, 78, 85
1, 162090, Control_c, 0, 64, 41
1, 162105, Control_c, 0, 64, 42
1, 162120, Control_c, 0, 64, 43
1, 162134, Control_c, 0, 64, 45
1, 162149, Control_c, 0, 64, 48
1, 162164, Control_c, 0, 64, 52
1, 162179, Control_c, 0, 64, 56
1, 162194, Control_c, 0, 64, 59
1, 162206, Note_off_c, 0, 69, 58
1, 162208, Control_c, 0, 64, 62
1, 162223, Control_c, 0, 64, 64
1, 162238, Control_c, 0, 64, 66
1, 162252, Control_c, 0, 64, 68
1, 162267, Control_c, 0, 64, 71
1, 162282, Control_c, 0, 64, 73
1, 162297, Control_c, 0, 64, 74
1, 162312, Control_c, 0, 64, 76
1, 162327, Control_c, 0, 64, 76
1, 162342, Control_c, 0, 64, 77
1, 162652, Control_c, 0, 64, 76
1, 162667, Note_off_c, 0, 78, 61
1, 162683, Control_c, 0, 64, 76
1, 162696, Note_on_c, 0, 79, 82
1, 162703, Note_off_c, 0, 72, 61
1, 162711, Note_on_c, 0, 74, 71
1, 162713, Control_c, 0, 64, 75
1, 162717, Note_on_c, 0, 71, 67
1, 162728, Control_c, 0, 64, 73
1, 162743, Control_c, 0, 64, 72
1, 162765, Control_c, 0, 64, 69
1, 162780, Control_c, 0, 64, 67
1, 162795, Control_c, 0, 64, 64
1, 162810, Control_c, 0, 64, 62
1, 162825, Control_c, 0, 64, 61
1, 162839, Control_c, 0, 64, 61
1, 162854, Control_c, 0, 64, 60
1, 162869, Control_c, 0, 64, 58
1, 162883, Control_c, 0, 64, 54
1, 162898, Control_c, 0, 64, 49
1, 162913, Control_c, 0, 64, 44
1, 162928, Control_c, 0, 64, 41
1, 162943, Control_c, 0, 64, 40
1, 162957, Control_c, 0, 64, 39
1, 162987, Control_c, 0, 64, 39
1, 163224, Control_c, 0, 64, 39
1, 163269, Control_c, 0, 64, 40
1, 164485, Control_c, 0, 64, 39
1, 164604, Control_c, 0, 64, 39
1, 164648, Control_c, 0, 64, 38
1, 164678, Control_c, 0, 64, 38
1, 164737, Control_c, 0, 64, 37
1, 164841, Control_c, 0, 64, 37
1, 165175, Control_c, 0, 64, 37
1, 165190, Note_off_c, 0, 71, 60
1, 165191, Note_off_c, 0, 79, 62
1, 165198, Note_off_c, 0, 55, 64
1, 165204, Note_off_c, 0, 74, 66
1, 165220, Control_c, 0, 64, 37
1, 165221, Note_off_c, 0, 43, 54
1, 165234, Control_c, 0, 64, 36
1, 165352, Control_c, 0, 64, 37
1, 165367, Control_c, 0, 64, 37
1, 165397, Control_c, 0, 64, 38
1, 165427, Control_c, 0, 64, 38
1, 165789, Control_c, 0, 64, 38
1, 165879, Control_c, 0, 64, 38
1, 165893, Control_c, 0, 64, 39
1, 165908, Control_c, 0, 64, 40
1, 165923, Control_c, 0, 64, 40
1, 165938, Control_c, 0, 64, 41
1, 165953, Control_c, 0, 64, 42
1, 166131, Control_c, 0, 64, 41
1, 166145, Control_c, 0, 64, 41
1, 166175, Control_c, 0, 64, 40
1, 166190, Control_c, 0, 64, 39
1, 166205, Control_c, 0, 64, 38
1, 166219, Control_c, 0, 64, 38
1, 166234, Control_c, 0, 64, 37
1, 166249, Control_c, 0, 64, 36
1, 166264, Control_c, 0, 64, 32
1, 166279, Control_c, 0, 64, 31
1, 166293, Control_c, 0, 64, 29
1, 166308, Control_c, 0, 64, 29
1, 166323, Control_c, 0, 64, 28
1, 166338, Control_c, 0, 64, 27
1, 166367, Control_c, 0, 64, 25
1, 166382, Control_c, 0, 64, 24
1, 166397, Control_c, 0, 64, 23
1, 166412, Control_c, 0, 64, 21
1, 166426, Control_c, 0, 64, 20
1, 166456, Control_c, 0, 64, 18
1, 166702, Control_c, 0, 64, 17
1, 166746, Control_c, 0, 64, 13
1, 166761, Control_c, 0, 64, 0
1, 166761, End_track
0, 0, End_of_file
