0, 0, Header, 0, 1, 384
1, 0, Start_track
1, 0, Title_t, "MendelssohnOp54--Ozaki          "
1, 0, Text_t, "2011 ePiano Junior Competition"
1, 0, Text_t, "captured in spring and summer 2011"
1, 0, Text_t, "http://www.piano-e-competition.com/"
1, 0, Text_t, "standard-resolution version"
1, 0, Text_t, "File processed for distribution with software designed and coded by Dr. John Q. Walker, founder of Zenph Sound Innovations"
1, 0, Instrument_name_t, "Yamaha Disklavier Pro Mark IV concert grand piano, model DCFIIISM4PRO"
1, 0, Sequencer_specific, 39, 67, 113, 0, 1, 0, 1, 0, 77, 101, 110, 100, 101, 108, 115, 115, 111, 104, 110, 32, 79, 112, 53, 52, 77, 105, 122, 111, 114, 97, 32, 79, 122, 97, 107, 105, 32, 32, 32, 32
1, 0, Sequencer_specific, 6, 67, 113, 0, 0, 0, 69
1, 0, System_exclusive, 21, 67, 113, 126, 21, 0, 2, 2, 2, 5, 12, 8, 4, 14, 1, 4, 9, 3, 6, 8, 7, 247
1, 0, Sequencer_specific, 5, 67, 123, 12, 2, 1
1, 0, Tempo, 512820
1, 0, Time_signature, 4, 2, 24, 8
1, 0, System_exclusive, 5, 126, 127, 9, 1, 247
1, 1, System_exclusive, 8, 67, 16, 76, 0, 0, 126, 0, 247
1, 2, System_exclusive, 8, 67, 16, 76, 8, 9, 7, 1, 247
1, 3, Control_c, 0, 0, 108
1, 3, Control_c, 1, 0, 108
1, 3, Control_c, 2, 0, 0
1, 3, Control_c, 3, 0, 0
1, 3, Control_c, 4, 0, 0
1, 3, Control_c, 5, 0, 0
1, 3, Control_c, 6, 0, 0
1, 3, Control_c, 7, 0, 0
1, 3, Control_c, 8, 0, 0
1, 3, Control_c, 9, 0, 127
1, 3, Control_c, 10, 0, 0
1, 3, Control_c, 11, 0, 0
1, 3, Control_c, 12, 0, 0
1, 3, Control_c, 13, 0, 0
1, 3, Control_c, 14, 0, 0
1, 3, Control_c, 15, 0, 0
1, 4, Control_c, 0, 32, 0
1, 4, Control_c, 1, 32, 0
1, 4, Control_c, 2, 32, 0
1, 4, Control_c, 3, 32, 0
1, 4, Control_c, 4, 32, 0
1, 4, Control_c, 5, 32, 0
1, 4, Control_c, 6, 32, 0
1, 4, Control_c, 7, 32, 0
1, 4, Control_c, 8, 32, 0
1, 4, Control_c, 9, 32, 0
1, 4, Control_c, 10, 32, 0
1, 4, Control_c, 11, 32, 0
1, 4, Control_c, 12, 32, 0
1, 4, Control_c, 13, 32, 0
1, 4, Control_c, 14, 32, 0
1, 4, Control_c, 15, 32, 0
1, 5, Program_c, 0, 0
1, 5, Program_c, 1, 0
1, 5, Program_c, 2, 0
1, 5, Program_c, 3, 0
1, 5, Program_c, 4, 0
1, 5, Program_c, 5, 0
1, 5, Program_c, 6, 0
1, 5, Program_c, 7, 0
1, 5, Program_c, 8, 0
1, 5, Program_c, 9, 0
1, 5, Program_c, 10, 0
1, 5, Program_c, 11, 0
1, 5, Program_c, 12, 0
1, 5, Program_c, 13, 0
1, 5, Program_c, 14, 0
1, 5, Program_c, 15, 0
1, 6, Control_c, 0, 7, 100
1, 6, Control_c, 1, 7, 100
1, 6, Control_c, 2, 7, 100
1, 6, Control_c, 3, 7, 100
1, 6, Control_c, 4, 7, 100
1, 6, Control_c, 5, 7, 100
1, 6, Control_c, 6, 7, 100
1, 6, Control_c, 7, 7, 100
1, 6, Control_c, 8, 7, 100
1, 6, Control_c, 9, 7, 100
1, 6, Control_c, 10, 7, 100
1, 6, Control_c, 11, 7, 100
1, 6, Control_c, 12, 7, 100
1, 6, Control_c, 13, 7, 100
1, 6, Control_c, 14, 7, 100
1, 6, Control_c, 15, 7, 100
1, 42, Control_c, 0, 64, 15
1, 79, Control_c, 0, 64, 31
1, 116, Control_c, 0, 64, 46
1, 153, Control_c, 0, 64, 63
1, 190, Control_c, 0, 64, 77
1, 226, Control_c, 0, 64, 94
1, 263, Control_c, 0, 64, 108
1, 300, Control_c, 0, 64, 127
1, 381, Note_on_c, 0, 69, 63
1, 389, Note_on_c, 0, 50, 36
1, 391, Note_on_c, 0, 62, 37
1, 395, Note_on_c, 0, 65, 48
1, 1033, Note_on_c, 0, 60, 39
1, 1040, Note_on_c, 0, 64, 50
1, 1182, Note_off_c, 0, 62, 63
1, 1302, Note_off_c, 0, 65, 34
1, 1532, Note_on_c, 0, 59, 30
1, 1545, Note_on_c, 0, 52, 40
1, 1551, Note_on_c, 0, 62, 45
1, 1632, Note_off_c, 0, 64, 54
1, 1640, Control_c, 0, 64, 116
1, 1654, Control_c, 0, 64, 109
1, 1669, Control_c, 0, 64, 104
1, 1684, Control_c, 0, 64, 99
1, 1698, Control_c, 0, 64, 93
1, 1713, Control_c, 0, 64, 87
1, 1729, Control_c, 0, 64, 83
1, 1730, Note_off_c, 0, 50, 37
1, 1744, Control_c, 0, 64, 80
1, 1759, Control_c, 0, 64, 78
1, 1774, Control_c, 0, 64, 75
1, 1789, Control_c, 0, 64, 72
1, 1803, Control_c, 0, 64, 69
1, 1818, Control_c, 0, 64, 67
1, 1833, Control_c, 0, 64, 66
1, 1848, Control_c, 0, 64, 65
1, 1863, Control_c, 0, 64, 64
1, 1877, Control_c, 0, 64, 62
1, 1892, Control_c, 0, 64, 61
1, 1903, Note_off_c, 0, 60, 36
1, 1907, Control_c, 0, 64, 60
1, 1921, Control_c, 0, 64, 59
1, 1936, Control_c, 0, 64, 58
1, 1951, Control_c, 0, 64, 57
1, 1966, Control_c, 0, 64, 56
1, 1981, Control_c, 0, 64, 54
1, 1996, Control_c, 0, 64, 52
1, 2010, Control_c, 0, 64, 50
1, 2025, Control_c, 0, 64, 47
1, 2040, Control_c, 0, 64, 44
1, 2055, Control_c, 0, 64, 41
1, 2077, Control_c, 0, 64, 38
1, 2092, Control_c, 0, 64, 35
1, 2107, Control_c, 0, 64, 30
1, 2108, Note_on_c, 0, 68, 53
1, 2121, Control_c, 0, 64, 22
1, 2136, Control_c, 0, 64, 12
1, 2151, Control_c, 0, 64, 9
1, 2210, Control_c, 0, 64, 11
1, 2225, Control_c, 0, 64, 17
1, 2232, Note_off_c, 0, 69, 60
1, 2240, Control_c, 0, 64, 24
1, 2255, Control_c, 0, 64, 31
1, 2270, Control_c, 0, 64, 39
1, 2285, Control_c, 0, 64, 48
1, 2300, Control_c, 0, 64, 57
1, 2315, Control_c, 0, 64, 62
1, 2329, Control_c, 0, 64, 65
1, 2344, Control_c, 0, 64, 68
1, 2359, Control_c, 0, 64, 75
1, 2374, Control_c, 0, 64, 86
1, 2389, Control_c, 0, 64, 107
1, 2403, Control_c, 0, 64, 127
1, 2406, Note_off_c, 0, 52, 49
1, 2437, Note_off_c, 0, 62, 37
1, 2449, Note_off_c, 0, 59, 54
1, 2535, Note_off_c, 0, 68, 49
1, 2746, Note_on_c, 0, 74, 74
1, 2750, Note_on_c, 0, 55, 41
1, 2762, Note_on_c, 0, 67, 37
1, 2766, Note_on_c, 0, 70, 54
1, 2840, Control_c, 0, 64, 115
1, 2855, Control_c, 0, 64, 104
1, 2870, Control_c, 0, 64, 97
1, 2885, Control_c, 0, 64, 92
1, 2899, Control_c, 0, 64, 87
1, 2914, Control_c, 0, 64, 83
1, 2929, Control_c, 0, 64, 79
1, 2944, Control_c, 0, 64, 75
1, 2958, Control_c, 0, 64, 72
1, 2973, Control_c, 0, 64, 69
1, 2988, Control_c, 0, 64, 66
1, 3003, Control_c, 0, 64, 62
1, 3018, Control_c, 0, 64, 56
1, 3033, Control_c, 0, 64, 49
1, 3048, Control_c, 0, 64, 44
1, 3078, Control_c, 0, 64, 46
1, 3092, Control_c, 0, 64, 48
1, 3107, Control_c, 0, 64, 52
1, 3122, Control_c, 0, 64, 55
1, 3137, Control_c, 0, 64, 59
1, 3151, Control_c, 0, 64, 63
1, 3166, Control_c, 0, 64, 65
1, 3181, Control_c, 0, 64, 68
1, 3196, Control_c, 0, 64, 74
1, 3211, Control_c, 0, 64, 80
1, 3225, Control_c, 0, 64, 87
1, 3240, Control_c, 0, 64, 94
1, 3255, Control_c, 0, 64, 101
1, 3265, Note_on_c, 0, 69, 67
1, 3269, Control_c, 0, 64, 110
1, 3280, Note_on_c, 0, 65, 41
1, 3284, Control_c, 0, 64, 127
1, 3364, Note_off_c, 0, 70, 59
1, 3460, Note_off_c, 0, 67, 59
1, 3766, Control_c, 0, 64, 125
1, 3781, Note_on_c, 0, 64, 40
1, 3781, Control_c, 0, 64, 119
1, 3786, Note_on_c, 0, 67, 56
1, 3796, Note_on_c, 0, 57, 43
1, 3796, Control_c, 0, 64, 115
1, 3811, Control_c, 0, 64, 112
1, 3826, Control_c, 0, 64, 108
1, 3841, Control_c, 0, 64, 103
1, 3856, Control_c, 0, 64, 99
1, 3871, Control_c, 0, 64, 96
1, 3885, Control_c, 0, 64, 92
1, 3900, Control_c, 0, 64, 90
1, 3915, Control_c, 0, 64, 87
1, 3930, Control_c, 0, 64, 83
1, 3945, Control_c, 0, 64, 81
1, 3957, Note_off_c, 0, 69, 32
1, 3960, Control_c, 0, 64, 78
1, 3975, Control_c, 0, 64, 76
1, 3982, Note_off_c, 0, 55, 38
1, 3990, Control_c, 0, 64, 74
1, 4005, Control_c, 0, 64, 72
1, 4020, Control_c, 0, 64, 70
1, 4035, Control_c, 0, 64, 68
1, 4049, Control_c, 0, 64, 66
1, 4064, Control_c, 0, 64, 65
1, 4071, Note_off_c, 0, 65, 31
1, 4079, Control_c, 0, 64, 64
1, 4093, Control_c, 0, 64, 64
1, 4108, Control_c, 0, 64, 63
1, 4124, Control_c, 0, 64, 62
1, 4139, Control_c, 0, 64, 62
1, 4154, Control_c, 0, 64, 61
1, 4169, Control_c, 0, 64, 60
1, 4184, Control_c, 0, 64, 59
1, 4198, Control_c, 0, 64, 59
1, 4213, Control_c, 0, 64, 57
1, 4228, Control_c, 0, 64, 56
1, 4243, Control_c, 0, 64, 55
1, 4258, Control_c, 0, 64, 53
1, 4272, Control_c, 0, 64, 52
1, 4287, Control_c, 0, 64, 50
1, 4302, Control_c, 0, 64, 48
1, 4324, Control_c, 0, 64, 46
1, 4339, Control_c, 0, 64, 44
1, 4353, Control_c, 0, 64, 42
1, 4368, Note_on_c, 0, 73, 68
1, 4368, Control_c, 0, 64, 40
1, 4383, Control_c, 0, 64, 36
1, 4398, Control_c, 0, 64, 32
1, 4413, Control_c, 0, 64, 27
1, 4428, Control_c, 0, 64, 22
1, 4443, Control_c, 0, 64, 20
1, 4502, Control_c, 0, 64, 23
1, 4517, Control_c, 0, 64, 26
1, 4521, Note_off_c, 0, 74, 60
1, 4531, Control_c, 0, 64, 33
1, 4546, Control_c, 0, 64, 40
1, 4561, Control_c, 0, 64, 47
1, 4576, Control_c, 0, 64, 52
1, 4590, Control_c, 0, 64, 59
1, 4605, Control_c, 0, 64, 64
1, 4620, Control_c, 0, 64, 68
1, 4635, Control_c, 0, 64, 75
1, 4643, Note_off_c, 0, 64, 32
1, 4650, Control_c, 0, 64, 84
1, 4658, Note_off_c, 0, 67, 36
1, 4664, Control_c, 0, 64, 97
1, 4679, Control_c, 0, 64, 127
1, 4711, Note_off_c, 0, 57, 29
1, 4733, Note_off_c, 0, 73, 54
1, 4991, Control_c, 0, 64, 115
1, 5006, Control_c, 0, 64, 106
1, 5009, Note_on_c, 0, 77, 73
1, 5021, Control_c, 0, 64, 99
1, 5029, Note_on_c, 0, 62, 34
1, 5036, Control_c, 0, 64, 95
1, 5038, Note_on_c, 0, 65, 40
1, 5051, Control_c, 0, 64, 91
1, 5073, Control_c, 0, 64, 88
1, 5088, Control_c, 0, 64, 84
1, 5102, Control_c, 0, 64, 79
1, 5117, Control_c, 0, 64, 72
1, 5132, Control_c, 0, 64, 65
1, 5146, Control_c, 0, 64, 55
1, 5161, Control_c, 0, 64, 44
1, 5176, Control_c, 0, 64, 39
1, 5206, Control_c, 0, 64, 41
1, 5221, Control_c, 0, 64, 47
1, 5236, Control_c, 0, 64, 54
1, 5251, Control_c, 0, 64, 59
1, 5266, Control_c, 0, 64, 63
1, 5281, Control_c, 0, 64, 68
1, 5295, Control_c, 0, 64, 77
1, 5310, Control_c, 0, 64, 93
1, 5325, Control_c, 0, 64, 127
1, 5379, Note_off_c, 0, 65, 37
1, 5517, Control_c, 0, 64, 122
1, 5532, Control_c, 0, 64, 112
1, 5546, Control_c, 0, 64, 107
1, 5547, Note_on_c, 0, 76, 76
1, 5548, Note_on_c, 0, 57, 39
1, 5559, Note_on_c, 0, 67, 50
1, 5561, Control_c, 0, 64, 103
1, 5562, Note_on_c, 0, 61, 37
1, 5576, Control_c, 0, 64, 100
1, 5591, Control_c, 0, 64, 97
1, 5606, Control_c, 0, 64, 95
1, 5608, Note_off_c, 0, 77, 63
1, 5620, Control_c, 0, 64, 92
1, 5635, Control_c, 0, 64, 91
1, 5650, Control_c, 0, 64, 89
1, 5665, Control_c, 0, 64, 86
1, 5680, Control_c, 0, 64, 84
1, 5695, Control_c, 0, 64, 82
1, 5710, Control_c, 0, 64, 80
1, 5725, Control_c, 0, 64, 79
1, 5740, Control_c, 0, 64, 77
1, 5755, Control_c, 0, 64, 75
1, 5769, Control_c, 0, 64, 73
1, 5784, Control_c, 0, 64, 72
1, 5799, Control_c, 0, 64, 71
1, 5822, Control_c, 0, 64, 70
1, 5825, Note_off_c, 0, 62, 34
1, 5837, Control_c, 0, 64, 68
1, 5851, Control_c, 0, 64, 67
1, 5866, Control_c, 0, 64, 67
1, 5881, Control_c, 0, 64, 66
1, 5896, Control_c, 0, 64, 65
1, 5911, Control_c, 0, 64, 64
1, 5925, Control_c, 0, 64, 64
1, 5955, Control_c, 0, 64, 63
1, 5984, Control_c, 0, 64, 63
1, 5999, Control_c, 0, 64, 62
1, 6029, Control_c, 0, 64, 62
1, 6044, Control_c, 0, 64, 61
1, 6045, Note_on_c, 0, 74, 81
1, 6049, Note_on_c, 0, 58, 55
1, 6056, Note_on_c, 0, 65, 57
1, 6059, Control_c, 0, 64, 60
1, 6073, Control_c, 0, 64, 57
1, 6075, Note_on_c, 0, 62, 37
1, 6079, Note_off_c, 0, 76, 65
1, 6088, Control_c, 0, 64, 53
1, 6101, Note_off_c, 0, 57, 56
1, 6103, Control_c, 0, 64, 49
1, 6104, Note_off_c, 0, 67, 60
1, 6118, Control_c, 0, 64, 44
1, 6133, Control_c, 0, 64, 40
1, 6148, Control_c, 0, 64, 38
1, 6163, Control_c, 0, 64, 38
1, 6177, Control_c, 0, 64, 38
1, 6192, Control_c, 0, 64, 41
1, 6207, Control_c, 0, 64, 47
1, 6208, Note_off_c, 0, 61, 37
1, 6222, Control_c, 0, 64, 53
1, 6237, Control_c, 0, 64, 57
1, 6251, Control_c, 0, 64, 61
1, 6266, Control_c, 0, 64, 67
1, 6281, Control_c, 0, 64, 75
1, 6296, Control_c, 0, 64, 92
1, 6311, Control_c, 0, 64, 127
1, 6369, Note_off_c, 0, 62, 34
1, 6428, Note_off_c, 0, 65, 59
1, 6577, Note_on_c, 0, 72, 81
1, 6580, Note_on_c, 0, 53, 50
1, 6583, Note_on_c, 0, 65, 54
1, 6589, Note_on_c, 0, 69, 67
1, 6600, Control_c, 0, 64, 97
1, 6615, Control_c, 0, 64, 76
1, 6630, Control_c, 0, 64, 62
1, 6634, Note_off_c, 0, 74, 59
1, 6645, Control_c, 0, 64, 23
1, 6660, Control_c, 0, 64, 0
1, 6675, Note_off_c, 0, 58, 34
1, 6704, Control_c, 0, 64, 9
1, 6719, Control_c, 0, 64, 29
1, 6734, Control_c, 0, 64, 44
1, 6748, Control_c, 0, 64, 51
1, 6763, Control_c, 0, 64, 56
1, 6778, Control_c, 0, 64, 62
1, 6792, Control_c, 0, 64, 67
1, 6807, Control_c, 0, 64, 76
1, 6820, Note_off_c, 0, 69, 55
1, 6822, Control_c, 0, 64, 101
1, 6834, Note_off_c, 0, 53, 54
1, 6837, Control_c, 0, 64, 127
1, 6890, Note_off_c, 0, 72, 60
1, 7075, Note_off_c, 0, 65, 29
1, 7183, Note_on_c, 0, 72, 67
1, 7185, Note_on_c, 0, 64, 32
1, 7189, Note_on_c, 0, 55, 35
1, 7190, Note_on_c, 0, 67, 47
1, 7221, Control_c, 0, 64, 119
1, 7236, Control_c, 0, 64, 109
1, 7251, Control_c, 0, 64, 104
1, 7265, Control_c, 0, 64, 100
1, 7280, Control_c, 0, 64, 96
1, 7295, Control_c, 0, 64, 93
1, 7318, Control_c, 0, 64, 89
1, 7333, Control_c, 0, 64, 85
1, 7348, Control_c, 0, 64, 82
1, 7362, Control_c, 0, 64, 78
1, 7377, Control_c, 0, 64, 74
1, 7392, Control_c, 0, 64, 72
1, 7407, Control_c, 0, 64, 70
1, 7421, Control_c, 0, 64, 68
1, 7436, Control_c, 0, 64, 67
1, 7451, Control_c, 0, 64, 66
1, 7466, Control_c, 0, 64, 65
1, 7481, Control_c, 0, 64, 64
1, 7495, Control_c, 0, 64, 63
1, 7510, Control_c, 0, 64, 62
1, 7525, Control_c, 0, 64, 61
1, 7540, Control_c, 0, 64, 60
1, 7555, Control_c, 0, 64, 59
1, 7570, Control_c, 0, 64, 58
1, 7585, Control_c, 0, 64, 57
1, 7600, Control_c, 0, 64, 56
1, 7614, Control_c, 0, 64, 55
1, 7629, Control_c, 0, 64, 54
1, 7644, Control_c, 0, 64, 53
1, 7659, Control_c, 0, 64, 53
1, 7674, Control_c, 0, 64, 52
1, 7689, Control_c, 0, 64, 51
1, 7704, Control_c, 0, 64, 50
1, 7719, Control_c, 0, 64, 49
1, 7734, Control_c, 0, 64, 48
1, 7748, Control_c, 0, 64, 47
1, 7763, Control_c, 0, 64, 46
1, 7778, Control_c, 0, 64, 46
1, 7793, Control_c, 0, 64, 45
1, 7808, Control_c, 0, 64, 45
1, 7822, Control_c, 0, 64, 44
1, 7823, Note_on_c, 0, 65, 41
1, 7829, Note_on_c, 0, 62, 26
1, 7852, Control_c, 0, 64, 43
1, 7867, Control_c, 0, 64, 43
1, 7882, Control_c, 0, 64, 42
1, 7896, Control_c, 0, 64, 42
1, 7911, Control_c, 0, 64, 41
1, 7926, Control_c, 0, 64, 41
1, 7940, Control_c, 0, 64, 40
1, 7942, Note_off_c, 0, 67, 58
1, 7955, Control_c, 0, 64, 39
1, 7970, Control_c, 0, 64, 38
1, 7985, Control_c, 0, 64, 37
1, 8000, Control_c, 0, 64, 37
1, 8044, Control_c, 0, 64, 36
1, 8067, Control_c, 0, 64, 36
1, 8106, Note_off_c, 0, 64, 45
1, 8111, Control_c, 0, 64, 35
1, 8127, Control_c, 0, 64, 33
1, 8142, Control_c, 0, 64, 33
1, 8188, Note_on_c, 0, 70, 50
1, 8201, Control_c, 0, 64, 32
1, 8245, Control_c, 0, 64, 32
1, 8260, Control_c, 0, 64, 31
1, 8463, Note_off_c, 0, 72, 27
1, 8511, Note_on_c, 0, 69, 44
1, 8527, Note_on_c, 0, 57, 27
1, 8532, Note_on_c, 0, 64, 35
1, 8544, Note_on_c, 0, 61, 27
1, 8647, Note_off_c, 0, 70, 35
1, 8660, Control_c, 0, 64, 31
1, 8675, Control_c, 0, 64, 30
1, 8690, Control_c, 0, 64, 29
1, 8694, Note_off_c, 0, 55, 34
1, 8705, Control_c, 0, 64, 27
1, 8712, Note_off_c, 0, 65, 26
1, 8719, Control_c, 0, 64, 24
1, 8734, Control_c, 0, 64, 19
1, 8749, Control_c, 0, 64, 12
1, 8763, Control_c, 0, 64, 0
1, 8849, Note_off_c, 0, 62, 38
1, 8980, Control_c, 0, 64, 22
1, 8994, Control_c, 0, 64, 33
1, 9009, Control_c, 0, 64, 41
1, 9024, Control_c, 0, 64, 47
1, 9039, Control_c, 0, 64, 52
1, 9054, Control_c, 0, 64, 57
1, 9068, Control_c, 0, 64, 61
1, 9083, Control_c, 0, 64, 63
1, 9098, Control_c, 0, 64, 66
1, 9113, Control_c, 0, 64, 69
1, 9128, Control_c, 0, 64, 73
1, 9142, Control_c, 0, 64, 80
1, 9156, Control_c, 0, 64, 92
1, 9171, Control_c, 0, 64, 107
1, 9186, Control_c, 0, 64, 127
1, 9214, Note_off_c, 0, 57, 40
1, 9224, Note_off_c, 0, 69, 60
1, 9246, Note_off_c, 0, 64, 37
1, 9257, Note_off_c, 0, 61, 39
1, 9802, Control_c, 0, 64, 122
1, 9816, Control_c, 0, 64, 115
1, 9831, Control_c, 0, 64, 109
1, 9841, Note_on_c, 0, 69, 80
1, 9845, Note_on_c, 0, 50, 40
1, 9846, Control_c, 0, 64, 103
1, 9853, Note_on_c, 0, 65, 58
1, 9859, Note_on_c, 0, 62, 38
1, 9861, Control_c, 0, 64, 98
1, 9876, Control_c, 0, 64, 93
1, 9890, Control_c, 0, 64, 89
1, 9905, Control_c, 0, 64, 86
1, 9920, Control_c, 0, 64, 83
1, 9935, Control_c, 0, 64, 82
1, 9950, Control_c, 0, 64, 80
1, 9964, Control_c, 0, 64, 78
1, 9979, Control_c, 0, 64, 72
1, 9994, Control_c, 0, 64, 65
1, 10008, Control_c, 0, 64, 55
1, 10023, Control_c, 0, 64, 41
1, 10038, Control_c, 0, 64, 39
1, 10053, Control_c, 0, 64, 40
1, 10068, Control_c, 0, 64, 44
1, 10083, Control_c, 0, 64, 50
1, 10098, Control_c, 0, 64, 55
1, 10113, Control_c, 0, 64, 58
1, 10127, Control_c, 0, 64, 61
1, 10142, Control_c, 0, 64, 64
1, 10157, Control_c, 0, 64, 68
1, 10172, Control_c, 0, 64, 78
1, 10187, Control_c, 0, 64, 92
1, 10201, Control_c, 0, 64, 127
1, 10375, Note_on_c, 0, 64, 68
1, 10392, Note_on_c, 0, 60, 50
1, 10588, Note_off_c, 0, 62, 61
1, 10671, Note_off_c, 0, 65, 34
1, 10865, Note_on_c, 0, 62, 58
1, 10866, Note_on_c, 0, 52, 54
1, 10868, Note_on_c, 0, 59, 48
1, 10950, Control_c, 0, 64, 115
1, 10965, Control_c, 0, 64, 106
1, 10980, Control_c, 0, 64, 99
1, 10995, Control_c, 0, 64, 93
1, 11001, Note_off_c, 0, 50, 40
1, 11010, Control_c, 0, 64, 87
1, 11025, Control_c, 0, 64, 82
1, 11039, Control_c, 0, 64, 78
1, 11061, Control_c, 0, 64, 75
1, 11076, Control_c, 0, 64, 72
1, 11091, Control_c, 0, 64, 70
1, 11106, Control_c, 0, 64, 69
1, 11110, Note_off_c, 0, 64, 34
1, 11120, Control_c, 0, 64, 67
1, 11135, Control_c, 0, 64, 65
1, 11150, Control_c, 0, 64, 64
1, 11165, Control_c, 0, 64, 62
1, 11180, Control_c, 0, 64, 61
1, 11195, Control_c, 0, 64, 60
1, 11210, Control_c, 0, 64, 60
1, 11213, Note_off_c, 0, 60, 33
1, 11224, Control_c, 0, 64, 59
1, 11239, Control_c, 0, 64, 58
1, 11254, Control_c, 0, 64, 57
1, 11269, Control_c, 0, 64, 56
1, 11284, Control_c, 0, 64, 54
1, 11299, Control_c, 0, 64, 53
1, 11314, Control_c, 0, 64, 51
1, 11329, Control_c, 0, 64, 49
1, 11344, Control_c, 0, 64, 47
1, 11359, Control_c, 0, 64, 43
1, 11374, Control_c, 0, 64, 37
1, 11388, Control_c, 0, 64, 28
1, 11403, Control_c, 0, 64, 18
1, 11406, Note_on_c, 0, 68, 63
1, 11418, Control_c, 0, 64, 0
1, 11542, Note_off_c, 0, 69, 60
1, 11567, Control_c, 0, 64, 19
1, 11581, Control_c, 0, 64, 33
1, 11596, Control_c, 0, 64, 42
1, 11611, Control_c, 0, 64, 50
1, 11626, Control_c, 0, 64, 58
1, 11641, Control_c, 0, 64, 65
1, 11655, Control_c, 0, 64, 71
1, 11670, Control_c, 0, 64, 79
1, 11671, Note_off_c, 0, 52, 36
1, 11673, Note_off_c, 0, 59, 48
1, 11685, Control_c, 0, 64, 90
1, 11697, Note_off_c, 0, 68, 60
1, 11700, Control_c, 0, 64, 106
1, 11715, Control_c, 0, 64, 127
1, 11840, Note_off_c, 0, 62, 35
1, 11959, Control_c, 0, 64, 117
1, 11974, Control_c, 0, 64, 113
1, 11988, Control_c, 0, 64, 109
1, 12003, Control_c, 0, 64, 106
1, 12018, Control_c, 0, 64, 102
1, 12033, Control_c, 0, 64, 99
1, 12048, Control_c, 0, 64, 97
1, 12059, Note_on_c, 0, 60, 28
1, 12061, Note_on_c, 0, 67, 44
1, 12062, Control_c, 0, 64, 95
1, 12068, Note_on_c, 0, 48, 35
1, 12069, Note_on_c, 0, 63, 36
1, 12077, Control_c, 0, 64, 92
1, 12092, Control_c, 0, 64, 90
1, 12108, Control_c, 0, 64, 87
1, 12123, Control_c, 0, 64, 84
1, 12138, Control_c, 0, 64, 80
1, 12152, Control_c, 0, 64, 77
1, 12167, Control_c, 0, 64, 74
1, 12182, Control_c, 0, 64, 71
1, 12197, Control_c, 0, 64, 66
1, 12211, Control_c, 0, 64, 60
1, 12226, Control_c, 0, 64, 44
1, 12241, Control_c, 0, 64, 27
1, 12256, Control_c, 0, 64, 23
1, 12315, Control_c, 0, 64, 26
1, 12330, Control_c, 0, 64, 30
1, 12345, Control_c, 0, 64, 35
1, 12360, Control_c, 0, 64, 40
1, 12375, Control_c, 0, 64, 44
1, 12390, Control_c, 0, 64, 49
1, 12404, Control_c, 0, 64, 55
1, 12419, Control_c, 0, 64, 59
1, 12434, Control_c, 0, 64, 62
1, 12449, Control_c, 0, 64, 64
1, 12464, Control_c, 0, 64, 66
1, 12478, Control_c, 0, 64, 69
1, 12493, Control_c, 0, 64, 72
1, 12508, Control_c, 0, 64, 75
1, 12523, Control_c, 0, 64, 78
1, 12538, Control_c, 0, 64, 81
1, 12560, Control_c, 0, 64, 84
1, 12575, Control_c, 0, 64, 87
1, 12590, Control_c, 0, 64, 90
1, 12593, Note_on_c, 0, 62, 38
1, 12605, Control_c, 0, 64, 92
1, 12607, Note_on_c, 0, 58, 38
1, 12619, Control_c, 0, 64, 94
1, 12634, Control_c, 0, 64, 95
1, 12649, Control_c, 0, 64, 97
1, 12664, Control_c, 0, 64, 98
1, 12674, Note_off_c, 0, 63, 36
1, 12679, Control_c, 0, 64, 98
1, 12721, Note_off_c, 0, 60, 42
1, 12797, Control_c, 0, 64, 98
1, 12811, Control_c, 0, 64, 97
1, 12826, Control_c, 0, 64, 97
1, 12856, Control_c, 0, 64, 96
1, 12871, Control_c, 0, 64, 96
1, 12885, Control_c, 0, 64, 95
1, 12900, Control_c, 0, 64, 95
1, 12909, Note_off_c, 0, 58, 33
1, 12915, Control_c, 0, 64, 94
1, 12930, Control_c, 0, 64, 93
1, 12945, Control_c, 0, 64, 92
1, 12960, Control_c, 0, 64, 91
1, 12974, Control_c, 0, 64, 91
1, 12989, Control_c, 0, 64, 90
1, 13004, Control_c, 0, 64, 89
1, 13019, Control_c, 0, 64, 88
1, 13034, Control_c, 0, 64, 87
1, 13049, Control_c, 0, 64, 86
1, 13064, Control_c, 0, 64, 85
1, 13079, Control_c, 0, 64, 84
1, 13082, Note_on_c, 0, 60, 40
1, 13085, Note_on_c, 0, 57, 33
1, 13093, Control_c, 0, 64, 82
1, 13095, Note_on_c, 0, 50, 32
1, 13108, Control_c, 0, 64, 82
1, 13123, Control_c, 0, 64, 81
1, 13138, Control_c, 0, 64, 80
1, 13153, Control_c, 0, 64, 78
1, 13168, Control_c, 0, 64, 76
1, 13182, Control_c, 0, 64, 75
1, 13197, Control_c, 0, 64, 73
1, 13209, Note_off_c, 0, 48, 34
1, 13212, Control_c, 0, 64, 71
1, 13224, Note_off_c, 0, 62, 35
1, 13226, Control_c, 0, 64, 69
1, 13241, Control_c, 0, 64, 68
1, 13256, Control_c, 0, 64, 66
1, 13271, Control_c, 0, 64, 64
1, 13286, Control_c, 0, 64, 63
1, 13308, Control_c, 0, 64, 61
1, 13323, Control_c, 0, 64, 59
1, 13338, Control_c, 0, 64, 55
1, 13353, Control_c, 0, 64, 51
1, 13367, Control_c, 0, 64, 47
1, 13382, Control_c, 0, 64, 42
1, 13397, Control_c, 0, 64, 33
1, 13412, Control_c, 0, 64, 20
1, 13427, Control_c, 0, 64, 0
1, 13608, Note_on_c, 0, 66, 39
1, 13648, Control_c, 0, 64, 11
1, 13663, Control_c, 0, 64, 23
1, 13678, Control_c, 0, 64, 33
1, 13693, Control_c, 0, 64, 41
1, 13709, Control_c, 0, 64, 47
1, 13723, Control_c, 0, 64, 51
1, 13729, Note_off_c, 0, 67, 55
1, 13738, Control_c, 0, 64, 55
1, 13753, Control_c, 0, 64, 59
1, 13768, Control_c, 0, 64, 62
1, 13783, Control_c, 0, 64, 64
1, 13798, Control_c, 0, 64, 68
1, 13812, Control_c, 0, 64, 73
1, 13827, Control_c, 0, 64, 80
1, 13842, Control_c, 0, 64, 88
1, 13851, Note_off_c, 0, 60, 37
1, 13857, Control_c, 0, 64, 97
1, 13872, Control_c, 0, 64, 109
1, 13886, Control_c, 0, 64, 127
1, 13904, Note_off_c, 0, 57, 36
1, 13961, Note_off_c, 0, 66, 35
1, 14116, Control_c, 0, 64, 114
1, 14131, Control_c, 0, 64, 108
1, 14137, Note_off_c, 0, 50, 34
1, 14146, Control_c, 0, 64, 102
1, 14161, Control_c, 0, 64, 98
1, 14175, Control_c, 0, 64, 94
1, 14190, Control_c, 0, 64, 91
1, 14195, Note_on_c, 0, 70, 54
1, 14196, Note_on_c, 0, 55, 37
1, 14203, Note_on_c, 0, 58, 40
1, 14205, Control_c, 0, 64, 88
1, 14211, Note_on_c, 0, 43, 32
1, 14220, Control_c, 0, 64, 84
1, 14235, Control_c, 0, 64, 79
1, 14250, Control_c, 0, 64, 71
1, 14264, Control_c, 0, 64, 64
1, 14279, Control_c, 0, 64, 54
1, 14294, Control_c, 0, 64, 49
1, 14309, Control_c, 0, 64, 48
1, 14338, Control_c, 0, 64, 48
1, 14353, Control_c, 0, 64, 50
1, 14368, Control_c, 0, 64, 53
1, 14382, Control_c, 0, 64, 57
1, 14397, Control_c, 0, 64, 60
1, 14412, Control_c, 0, 64, 62
1, 14427, Control_c, 0, 64, 64
1, 14442, Control_c, 0, 64, 66
1, 14456, Control_c, 0, 64, 71
1, 14471, Control_c, 0, 64, 78
1, 14486, Control_c, 0, 64, 89
1, 14502, Control_c, 0, 64, 103
1, 14517, Control_c, 0, 64, 127
1, 14518, Note_off_c, 0, 58, 63
1, 14691, Note_on_c, 0, 69, 66
1, 14698, Note_on_c, 0, 60, 46
1, 14700, Note_on_c, 0, 45, 41
1, 14702, Note_on_c, 0, 66, 46
1, 14724, Control_c, 0, 64, 97
1, 14739, Control_c, 0, 64, 81
1, 14754, Control_c, 0, 64, 69
1, 14756, Note_off_c, 0, 70, 51
1, 14759, Note_off_c, 0, 55, 36
1, 14769, Control_c, 0, 64, 60
1, 14784, Control_c, 0, 64, 49
1, 14805, Control_c, 0, 64, 47
1, 14820, Control_c, 0, 64, 47
1, 14835, Control_c, 0, 64, 50
1, 14850, Control_c, 0, 64, 53
1, 14865, Control_c, 0, 64, 56
1, 14879, Control_c, 0, 64, 59
1, 14894, Control_c, 0, 64, 62
1, 14900, Note_off_c, 0, 43, 33
1, 14909, Control_c, 0, 64, 64
1, 14924, Control_c, 0, 64, 68
1, 14939, Control_c, 0, 64, 76
1, 14951, Note_off_c, 0, 66, 59
1, 14954, Control_c, 0, 64, 92
1, 14968, Control_c, 0, 64, 127
1, 15054, Note_off_c, 0, 60, 63
1, 15203, Note_on_c, 0, 67, 75
1, 15211, Note_on_c, 0, 46, 54
1, 15221, Control_c, 0, 64, 96
1, 15224, Note_on_c, 0, 58, 54
1, 15228, Note_on_c, 0, 62, 44
1, 15236, Control_c, 0, 64, 75
1, 15251, Control_c, 0, 64, 61
1, 15253, Note_off_c, 0, 45, 37
1, 15266, Control_c, 0, 64, 32
1, 15280, Control_c, 0, 64, 0
1, 15295, Control_c, 0, 64, 11
1, 15311, Control_c, 0, 64, 28
1, 15313, Note_off_c, 0, 69, 51
1, 15326, Control_c, 0, 64, 44
1, 15341, Control_c, 0, 64, 54
1, 15356, Control_c, 0, 64, 60
1, 15371, Control_c, 0, 64, 64
1, 15385, Control_c, 0, 64, 70
1, 15400, Control_c, 0, 64, 84
1, 15415, Control_c, 0, 64, 127
1, 15424, Note_off_c, 0, 46, 60
1, 15448, Note_off_c, 0, 62, 41
1, 15597, Note_off_c, 0, 58, 58
1, 15708, Note_on_c, 0, 47, 59
1, 15721, Note_on_c, 0, 65, 77
1, 15731, Note_on_c, 0, 56, 56
1, 15733, Note_on_c, 0, 62, 59
1, 15733, Control_c, 0, 64, 122
1, 15748, Control_c, 0, 64, 107
1, 15763, Control_c, 0, 64, 98
1, 15775, Note_off_c, 0, 67, 58
1, 15777, Control_c, 0, 64, 93
1, 15792, Control_c, 0, 64, 89
1, 15807, Control_c, 0, 64, 86
1, 15821, Control_c, 0, 64, 83
1, 15836, Control_c, 0, 64, 80
1, 15851, Control_c, 0, 64, 77
1, 15866, Control_c, 0, 64, 74
1, 15881, Control_c, 0, 64, 72
1, 15896, Control_c, 0, 64, 70
1, 15910, Control_c, 0, 64, 68
1, 15925, Control_c, 0, 64, 66
1, 15940, Control_c, 0, 64, 65
1, 15955, Control_c, 0, 64, 64
1, 15970, Control_c, 0, 64, 62
1, 15985, Control_c, 0, 64, 61
1, 16000, Control_c, 0, 64, 60
1, 16015, Control_c, 0, 64, 59
1, 16029, Control_c, 0, 64, 59
1, 16044, Control_c, 0, 64, 57
1, 16059, Control_c, 0, 64, 56
1, 16074, Control_c, 0, 64, 54
1, 16089, Control_c, 0, 64, 52
1, 16104, Control_c, 0, 64, 51
1, 16119, Control_c, 0, 64, 49
1, 16134, Control_c, 0, 64, 47
1, 16149, Control_c, 0, 64, 46
1, 16164, Control_c, 0, 64, 44
1, 16179, Control_c, 0, 64, 42
1, 16194, Control_c, 0, 64, 41
1, 16208, Control_c, 0, 64, 40
1, 16223, Control_c, 0, 64, 39
1, 16238, Control_c, 0, 64, 38
1, 16252, Control_c, 0, 64, 36
1, 16267, Control_c, 0, 64, 35
1, 16282, Control_c, 0, 64, 34
1, 16288, Note_on_c, 0, 48, 39
1, 16290, Note_on_c, 0, 64, 62
1, 16302, Note_on_c, 0, 55, 38
1, 16304, Control_c, 0, 64, 34
1, 16317, Note_on_c, 0, 60, 42
1, 16319, Control_c, 0, 64, 33
1, 16334, Control_c, 0, 64, 31
1, 16349, Control_c, 0, 64, 30
1, 16364, Control_c, 0, 64, 30
1, 16372, Note_off_c, 0, 65, 58
1, 16378, Control_c, 0, 64, 29
1, 16393, Control_c, 0, 64, 28
1, 16408, Control_c, 0, 64, 26
1, 16423, Control_c, 0, 64, 25
1, 16438, Control_c, 0, 64, 23
1, 16452, Control_c, 0, 64, 21
1, 16459, Note_off_c, 0, 56, 39
1, 16467, Control_c, 0, 64, 19
1, 16477, Note_off_c, 0, 47, 27
1, 16482, Control_c, 0, 64, 16
1, 16497, Control_c, 0, 64, 14
1, 16511, Note_off_c, 0, 62, 29
1, 16512, Control_c, 0, 64, 11
1, 16526, Control_c, 0, 64, 9
1, 16541, Control_c, 0, 64, 0
1, 16863, Note_on_c, 0, 58, 40
1, 17009, Note_off_c, 0, 60, 55
1, 17201, Control_c, 0, 64, 12
1, 17203, Note_on_c, 0, 65, 45
1, 17216, Control_c, 0, 64, 23
1, 17231, Control_c, 0, 64, 31
1, 17246, Control_c, 0, 64, 39
1, 17261, Control_c, 0, 64, 44
1, 17275, Control_c, 0, 64, 48
1, 17282, Note_off_c, 0, 64, 60
1, 17290, Control_c, 0, 64, 53
1, 17305, Control_c, 0, 64, 58
1, 17320, Control_c, 0, 64, 63
1, 17335, Control_c, 0, 64, 67
1, 17349, Control_c, 0, 64, 77
1, 17364, Control_c, 0, 64, 90
1, 17379, Control_c, 0, 64, 111
1, 17392, Control_c, 0, 64, 127
1, 17419, Note_off_c, 0, 65, 51
1, 17469, Note_off_c, 0, 55, 33
1, 17483, Note_off_c, 0, 48, 36
1, 17505, Note_off_c, 0, 58, 27
1, 17526, Control_c, 0, 64, 120
1, 17541, Control_c, 0, 64, 112
1, 17555, Control_c, 0, 64, 108
1, 17570, Control_c, 0, 64, 104
1, 17583, Note_on_c, 0, 41, 34
1, 17585, Note_on_c, 0, 65, 43
1, 17585, Control_c, 0, 64, 101
1, 17594, Note_on_c, 0, 60, 33
1, 17599, Control_c, 0, 64, 98
1, 17612, Note_on_c, 0, 57, 33
1, 17614, Control_c, 0, 64, 94
1, 17629, Control_c, 0, 64, 91
1, 17644, Control_c, 0, 64, 88
1, 17659, Control_c, 0, 64, 85
1, 17673, Control_c, 0, 64, 82
1, 17689, Control_c, 0, 64, 79
1, 17704, Control_c, 0, 64, 76
1, 17719, Control_c, 0, 64, 72
1, 17734, Control_c, 0, 64, 70
1, 17749, Control_c, 0, 64, 68
1, 17763, Control_c, 0, 64, 66
1, 17778, Control_c, 0, 64, 63
1, 17800, Control_c, 0, 64, 61
1, 17815, Control_c, 0, 64, 59
1, 17830, Control_c, 0, 64, 57
1, 17845, Control_c, 0, 64, 56
1, 17860, Control_c, 0, 64, 54
1, 17875, Control_c, 0, 64, 52
1, 17890, Control_c, 0, 64, 49
1, 17904, Control_c, 0, 64, 45
1, 17919, Control_c, 0, 64, 41
1, 17934, Control_c, 0, 64, 37
1, 17949, Control_c, 0, 64, 31
1, 17964, Control_c, 0, 64, 24
1, 17978, Control_c, 0, 64, 19
1, 17993, Control_c, 0, 64, 14
1, 18067, Control_c, 0, 64, 19
1, 18082, Control_c, 0, 64, 28
1, 18096, Control_c, 0, 64, 36
1, 18111, Control_c, 0, 64, 42
1, 18126, Control_c, 0, 64, 48
1, 18141, Control_c, 0, 64, 52
1, 18156, Control_c, 0, 64, 56
1, 18170, Control_c, 0, 64, 59
1, 18185, Control_c, 0, 64, 63
1, 18200, Control_c, 0, 64, 67
1, 18215, Control_c, 0, 64, 72
1, 18230, Control_c, 0, 64, 82
1, 18244, Control_c, 0, 64, 96
1, 18259, Control_c, 0, 64, 117
1, 18268, Note_off_c, 0, 41, 43
1, 18274, Control_c, 0, 64, 127
1, 18285, Note_off_c, 0, 60, 36
1, 18304, Note_off_c, 0, 57, 42
1, 18345, Note_off_c, 0, 65, 54
1, 18512, Control_c, 0, 64, 117
1, 18527, Control_c, 0, 64, 112
1, 18549, Control_c, 0, 64, 106
1, 18564, Control_c, 0, 64, 101
1, 18579, Control_c, 0, 64, 95
1, 18593, Control_c, 0, 64, 90
1, 18608, Control_c, 0, 64, 87
1, 18623, Control_c, 0, 64, 84
1, 18638, Control_c, 0, 64, 82
1, 18653, Control_c, 0, 64, 81
1, 18668, Control_c, 0, 64, 81
1, 18683, Control_c, 0, 64, 80
1, 18698, Control_c, 0, 64, 80
1, 18712, Control_c, 0, 64, 79
1, 18742, Control_c, 0, 64, 79
1, 18772, Control_c, 0, 64, 78
1, 18801, Control_c, 0, 64, 78
1, 19002, Note_on_c, 0, 53, 55
1, 19007, Note_on_c, 0, 72, 88
1, 19025, Note_on_c, 0, 69, 70
1, 19037, Note_on_c, 0, 65, 58
1, 19053, Control_c, 0, 64, 77
1, 19068, Control_c, 0, 64, 76
1, 19083, Control_c, 0, 64, 75
1, 19098, Control_c, 0, 64, 75
1, 19113, Control_c, 0, 64, 74
1, 19127, Control_c, 0, 64, 73
1, 19142, Control_c, 0, 64, 73
1, 19157, Control_c, 0, 64, 72
1, 19172, Control_c, 0, 64, 71
1, 19187, Control_c, 0, 64, 71
1, 19201, Control_c, 0, 64, 70
1, 19216, Control_c, 0, 64, 69
1, 19231, Control_c, 0, 64, 68
1, 19246, Control_c, 0, 64, 67
1, 19261, Control_c, 0, 64, 67
1, 19276, Control_c, 0, 64, 66
1, 19299, Control_c, 0, 64, 66
1, 19314, Control_c, 0, 64, 65
1, 19329, Control_c, 0, 64, 65
1, 19344, Control_c, 0, 64, 64
1, 19358, Control_c, 0, 64, 64
1, 19373, Control_c, 0, 64, 63
1, 19388, Control_c, 0, 64, 63
1, 19418, Control_c, 0, 64, 62
1, 19432, Control_c, 0, 64, 62
1, 19447, Control_c, 0, 64, 61
1, 19462, Control_c, 0, 64, 61
1, 19476, Control_c, 0, 64, 60
1, 19491, Control_c, 0, 64, 60
1, 19506, Control_c, 0, 64, 59
1, 19521, Control_c, 0, 64, 59
1, 19528, Note_on_c, 0, 63, 69
1, 19536, Control_c, 0, 64, 58
1, 19550, Control_c, 0, 64, 58
1, 19565, Control_c, 0, 64, 57
1, 19580, Control_c, 0, 64, 57
1, 19595, Control_c, 0, 64, 56
1, 19610, Control_c, 0, 64, 56
1, 19625, Control_c, 0, 64, 55
1, 19639, Control_c, 0, 64, 55
1, 19654, Control_c, 0, 64, 54
1, 19668, Control_c, 0, 64, 53
1, 19683, Control_c, 0, 64, 53
1, 19698, Control_c, 0, 64, 52
1, 19713, Control_c, 0, 64, 52
1, 19728, Control_c, 0, 64, 51
1, 19742, Control_c, 0, 64, 50
1, 19757, Control_c, 0, 64, 49
1, 19772, Control_c, 0, 64, 48
1, 19787, Control_c, 0, 64, 48
1, 19802, Control_c, 0, 64, 47
1, 19806, Note_off_c, 0, 65, 53
1, 19816, Control_c, 0, 64, 46
1, 19846, Control_c, 0, 64, 45
1, 19861, Control_c, 0, 64, 45
1, 19875, Control_c, 0, 64, 44
1, 19890, Control_c, 0, 64, 43
1, 19920, Control_c, 0, 64, 42
1, 19935, Control_c, 0, 64, 42
1, 19950, Control_c, 0, 64, 41
1, 19979, Control_c, 0, 64, 41
1, 20009, Control_c, 0, 64, 40
1, 20025, Note_on_c, 0, 62, 67
1, 20075, Control_c, 0, 64, 40
1, 20121, Control_c, 0, 64, 39
1, 20169, Note_off_c, 0, 63, 58
1, 20254, Control_c, 0, 64, 39
1, 20284, Control_c, 0, 64, 38
1, 20313, Control_c, 0, 64, 38
1, 20328, Control_c, 0, 64, 37
1, 20343, Control_c, 0, 64, 37
1, 20358, Control_c, 0, 64, 36
1, 20373, Control_c, 0, 64, 35
1, 20388, Control_c, 0, 64, 34
1, 20403, Control_c, 0, 64, 33
1, 20417, Control_c, 0, 64, 32
1, 20432, Control_c, 0, 64, 31
1, 20447, Control_c, 0, 64, 30
1, 20462, Control_c, 0, 64, 28
1, 20477, Control_c, 0, 64, 26
1, 20491, Control_c, 0, 64, 23
1, 20506, Control_c, 0, 64, 20
1, 20518, Note_on_c, 0, 71, 69
1, 20521, Control_c, 0, 64, 17
1, 20529, Note_on_c, 0, 68, 50
1, 20536, Control_c, 0, 64, 12
1, 20549, Note_off_c, 0, 69, 56
1, 20551, Control_c, 0, 64, 0
1, 20669, Control_c, 0, 64, 25
1, 20683, Note_off_c, 0, 72, 53
1, 20684, Control_c, 0, 64, 42
1, 20698, Control_c, 0, 64, 51
1, 20713, Control_c, 0, 64, 58
1, 20728, Control_c, 0, 64, 63
1, 20743, Control_c, 0, 64, 69
1, 20758, Control_c, 0, 64, 79
1, 20772, Control_c, 0, 64, 102
1, 20777, Note_off_c, 0, 71, 56
1, 20795, Control_c, 0, 64, 127
1, 20811, Note_off_c, 0, 68, 46
1, 20884, Control_c, 0, 64, 105
1, 20900, Control_c, 0, 64, 98
1, 20915, Control_c, 0, 64, 92
1, 20929, Control_c, 0, 64, 89
1, 20944, Control_c, 0, 64, 86
1, 20959, Control_c, 0, 64, 82
1, 20974, Control_c, 0, 64, 77
1, 20989, Control_c, 0, 64, 72
1, 21003, Control_c, 0, 64, 65
1, 21018, Control_c, 0, 64, 56
1, 21029, Note_on_c, 0, 68, 55
1, 21032, Note_on_c, 0, 71, 51
1, 21033, Control_c, 0, 64, 41
1, 21047, Control_c, 0, 64, 34
1, 21092, Control_c, 0, 64, 35
1, 21107, Control_c, 0, 64, 38
1, 21121, Control_c, 0, 64, 44
1, 21136, Control_c, 0, 64, 50
1, 21151, Control_c, 0, 64, 55
1, 21166, Control_c, 0, 64, 58
1, 21181, Control_c, 0, 64, 62
1, 21196, Control_c, 0, 64, 66
1, 21210, Control_c, 0, 64, 72
1, 21225, Control_c, 0, 64, 82
1, 21240, Control_c, 0, 64, 98
1, 21255, Control_c, 0, 64, 127
1, 21288, Note_off_c, 0, 68, 53
1, 21297, Note_off_c, 0, 62, 38
1, 21306, Note_off_c, 0, 71, 38
1, 21403, Control_c, 0, 64, 115
1, 21418, Control_c, 0, 64, 107
1, 21432, Control_c, 0, 64, 100
1, 21447, Control_c, 0, 64, 95
1, 21462, Control_c, 0, 64, 91
1, 21477, Control_c, 0, 64, 87
1, 21492, Control_c, 0, 64, 82
1, 21506, Control_c, 0, 64, 77
1, 21521, Control_c, 0, 64, 72
1, 21522, Note_on_c, 0, 55, 43
1, 21524, Note_on_c, 0, 67, 50
1, 21527, Note_on_c, 0, 71, 55
1, 21531, Note_off_c, 0, 53, 34
1, 21544, Control_c, 0, 64, 67
1, 21549, Note_on_c, 0, 62, 38
1, 21559, Control_c, 0, 64, 62
1, 21574, Control_c, 0, 64, 55
1, 21588, Control_c, 0, 64, 47
1, 21603, Control_c, 0, 64, 40
1, 21618, Control_c, 0, 64, 36
1, 21633, Control_c, 0, 64, 32
1, 21647, Control_c, 0, 64, 32
1, 21662, Control_c, 0, 64, 33
1, 21677, Control_c, 0, 64, 39
1, 21693, Control_c, 0, 64, 46
1, 21708, Control_c, 0, 64, 53
1, 21723, Control_c, 0, 64, 58
1, 21738, Control_c, 0, 64, 63
1, 21752, Control_c, 0, 64, 66
1, 21767, Control_c, 0, 64, 71
1, 21774, Note_off_c, 0, 55, 54
1, 21782, Control_c, 0, 64, 79
1, 21797, Control_c, 0, 64, 88
1, 21800, Note_off_c, 0, 67, 56
1, 21809, Note_off_c, 0, 71, 55
1, 21812, Control_c, 0, 64, 97
1, 21826, Control_c, 0, 64, 101
1, 21852, Note_off_c, 0, 62, 34
1, 21856, Control_c, 0, 64, 101
1, 21870, Control_c, 0, 64, 100
1, 21885, Control_c, 0, 64, 100
1, 21900, Control_c, 0, 64, 98
1, 21915, Control_c, 0, 64, 97
1, 21930, Control_c, 0, 64, 95
1, 21944, Control_c, 0, 64, 93
1, 21959, Control_c, 0, 64, 91
1, 21974, Control_c, 0, 64, 89
1, 21989, Control_c, 0, 64, 87
1, 22004, Control_c, 0, 64, 85
1, 22018, Control_c, 0, 64, 83
1, 22033, Control_c, 0, 64, 81
1, 22048, Control_c, 0, 64, 78
1, 22063, Control_c, 0, 64, 75
1, 22066, Note_on_c, 0, 48, 36
1, 22066, Note_on_c, 0, 71, 47
1, 22067, Note_on_c, 0, 65, 47
1, 22078, Control_c, 0, 64, 72
1, 22084, Note_on_c, 0, 67, 32
1, 22093, Control_c, 0, 64, 70
1, 22108, Control_c, 0, 64, 68
1, 22123, Control_c, 0, 64, 67
1, 22137, Control_c, 0, 64, 66
1, 22152, Control_c, 0, 64, 65
1, 22167, Control_c, 0, 64, 64
1, 22182, Control_c, 0, 64, 63
1, 22197, Control_c, 0, 64, 62
1, 22211, Control_c, 0, 64, 61
1, 22226, Control_c, 0, 64, 61
1, 22241, Control_c, 0, 64, 60
1, 22256, Control_c, 0, 64, 60
1, 22270, Control_c, 0, 64, 59
1, 22293, Control_c, 0, 64, 58
1, 22307, Control_c, 0, 64, 58
1, 22322, Control_c, 0, 64, 57
1, 22337, Control_c, 0, 64, 56
1, 22352, Control_c, 0, 64, 55
1, 22367, Control_c, 0, 64, 54
1, 22382, Control_c, 0, 64, 53
1, 22397, Control_c, 0, 64, 52
1, 22411, Control_c, 0, 64, 51
1, 22426, Control_c, 0, 64, 50
1, 22441, Control_c, 0, 64, 49
1, 22456, Control_c, 0, 64, 48
1, 22470, Control_c, 0, 64, 47
1, 22486, Control_c, 0, 64, 46
1, 22501, Control_c, 0, 64, 45
1, 22516, Control_c, 0, 64, 44
1, 22531, Control_c, 0, 64, 42
1, 22546, Control_c, 0, 64, 41
1, 22560, Control_c, 0, 64, 39
1, 22575, Control_c, 0, 64, 37
1, 22590, Control_c, 0, 64, 36
1, 22605, Control_c, 0, 64, 34
1, 22617, Note_on_c, 0, 72, 50
1, 22620, Control_c, 0, 64, 32
1, 22621, Note_on_c, 0, 64, 33
1, 22635, Control_c, 0, 64, 30
1, 22650, Control_c, 0, 64, 26
1, 22665, Control_c, 0, 64, 23
1, 22680, Control_c, 0, 64, 20
1, 22680, Note_off_c, 0, 71, 53
1, 22694, Control_c, 0, 64, 16
1, 22709, Control_c, 0, 64, 12
1, 22724, Control_c, 0, 64, 9
1, 22746, Note_off_c, 0, 65, 30
1, 22798, Control_c, 0, 64, 13
1, 22813, Control_c, 0, 64, 23
1, 22828, Control_c, 0, 64, 34
1, 22842, Control_c, 0, 64, 43
1, 22857, Control_c, 0, 64, 52
1, 22872, Control_c, 0, 64, 58
1, 22879, Note_off_c, 0, 67, 33
1, 22886, Control_c, 0, 64, 63
1, 22901, Control_c, 0, 64, 69
1, 22916, Control_c, 0, 64, 77
1, 22927, Note_off_c, 0, 64, 41
1, 22931, Control_c, 0, 64, 95
1, 22946, Control_c, 0, 64, 127
1, 22959, Note_off_c, 0, 72, 60
1, 23083, Note_off_c, 0, 48, 34
1, 23309, Control_c, 0, 64, 116
1, 23312, Note_on_c, 0, 74, 86
1, 23315, Note_on_c, 0, 55, 50
1, 23324, Control_c, 0, 64, 109
1, 23333, Note_on_c, 0, 71, 68
1, 23339, Control_c, 0, 64, 104
1, 23345, Note_on_c, 0, 67, 55
1, 23354, Control_c, 0, 64, 100
1, 23369, Control_c, 0, 64, 98
1, 23383, Control_c, 0, 64, 96
1, 23398, Control_c, 0, 64, 93
1, 23413, Control_c, 0, 64, 91
1, 23428, Control_c, 0, 64, 89
1, 23443, Control_c, 0, 64, 87
1, 23457, Control_c, 0, 64, 85
1, 23472, Control_c, 0, 64, 83
1, 23487, Control_c, 0, 64, 81
1, 23502, Control_c, 0, 64, 78
1, 23516, Control_c, 0, 64, 75
1, 23531, Control_c, 0, 64, 74
1, 23546, Control_c, 0, 64, 72
1, 23561, Control_c, 0, 64, 71
1, 23576, Control_c, 0, 64, 69
1, 23590, Control_c, 0, 64, 67
1, 23605, Control_c, 0, 64, 66
1, 23620, Control_c, 0, 64, 65
1, 23634, Control_c, 0, 64, 64
1, 23649, Control_c, 0, 64, 63
1, 23679, Control_c, 0, 64, 63
1, 23694, Control_c, 0, 64, 62
1, 23723, Control_c, 0, 64, 62
1, 23738, Control_c, 0, 64, 61
1, 23768, Control_c, 0, 64, 61
1, 23790, Control_c, 0, 64, 60
1, 23805, Control_c, 0, 64, 60
1, 23820, Control_c, 0, 64, 59
1, 23827, Note_on_c, 0, 65, 70
1, 23835, Control_c, 0, 64, 59
1, 23864, Control_c, 0, 64, 58
1, 23879, Control_c, 0, 64, 57
1, 23909, Control_c, 0, 64, 57
1, 23923, Control_c, 0, 64, 56
1, 23938, Control_c, 0, 64, 56
1, 23953, Control_c, 0, 64, 55
1, 23968, Control_c, 0, 64, 55
1, 23983, Control_c, 0, 64, 54
1, 23998, Control_c, 0, 64, 53
1, 24013, Control_c, 0, 64, 52
1, 24027, Control_c, 0, 64, 52
1, 24042, Control_c, 0, 64, 51
1, 24057, Control_c, 0, 64, 51
1, 24075, Note_off_c, 0, 67, 57
1, 24087, Control_c, 0, 64, 50
1, 24102, Control_c, 0, 64, 49
1, 24117, Control_c, 0, 64, 49
1, 24132, Control_c, 0, 64, 48
1, 24147, Control_c, 0, 64, 48
1, 24162, Control_c, 0, 64, 47
1, 24176, Control_c, 0, 64, 47
1, 24206, Control_c, 0, 64, 46
1, 24251, Control_c, 0, 64, 46
1, 24280, Control_c, 0, 64, 45
1, 24295, Control_c, 0, 64, 45
1, 24311, Note_on_c, 0, 64, 63
1, 24354, Control_c, 0, 64, 44
1, 24410, Note_off_c, 0, 65, 62
1, 24472, Control_c, 0, 64, 44
1, 24539, Control_c, 0, 64, 43
1, 24569, Control_c, 0, 64, 43
1, 24599, Control_c, 0, 64, 42
1, 24628, Control_c, 0, 64, 42
1, 24643, Control_c, 0, 64, 41
1, 24658, Control_c, 0, 64, 40
1, 24672, Control_c, 0, 64, 39
1, 24687, Control_c, 0, 64, 38
1, 24702, Control_c, 0, 64, 36
1, 24717, Control_c, 0, 64, 35
1, 24732, Control_c, 0, 64, 33
1, 24746, Control_c, 0, 64, 31
1, 24761, Control_c, 0, 64, 30
1, 24776, Control_c, 0, 64, 27
1, 24791, Control_c, 0, 64, 25
1, 24796, Note_on_c, 0, 73, 61
1, 24804, Note_on_c, 0, 70, 41
1, 24806, Control_c, 0, 64, 23
1, 24820, Control_c, 0, 64, 22
1, 24835, Control_c, 0, 64, 22
1, 24854, Note_off_c, 0, 71, 53
1, 24895, Control_c, 0, 64, 22
1, 24910, Control_c, 0, 64, 27
1, 24925, Control_c, 0, 64, 34
1, 24940, Control_c, 0, 64, 42
1, 24955, Control_c, 0, 64, 49
1, 24969, Control_c, 0, 64, 56
1, 24984, Control_c, 0, 64, 60
1, 24999, Control_c, 0, 64, 64
1, 25014, Control_c, 0, 64, 69
1, 25015, Note_off_c, 0, 74, 58
1, 25029, Control_c, 0, 64, 79
1, 25044, Control_c, 0, 64, 96
1, 25053, Note_off_c, 0, 73, 60
1, 25056, Note_off_c, 0, 70, 55
1, 25059, Control_c, 0, 64, 127
1, 25222, Control_c, 0, 64, 125
1, 25236, Control_c, 0, 64, 110
1, 25251, Control_c, 0, 64, 98
1, 25266, Control_c, 0, 64, 87
1, 25273, Note_on_c, 0, 73, 68
1, 25273, Note_on_c, 0, 70, 66
1, 25288, Control_c, 0, 64, 77
1, 25303, Control_c, 0, 64, 67
1, 25318, Control_c, 0, 64, 59
1, 25333, Control_c, 0, 64, 49
1, 25348, Control_c, 0, 64, 48
1, 25362, Control_c, 0, 64, 49
1, 25377, Control_c, 0, 64, 52
1, 25392, Control_c, 0, 64, 55
1, 25407, Control_c, 0, 64, 57
1, 25422, Control_c, 0, 64, 60
1, 25436, Control_c, 0, 64, 62
1, 25451, Control_c, 0, 64, 64
1, 25466, Control_c, 0, 64, 67
1, 25481, Control_c, 0, 64, 73
1, 25495, Control_c, 0, 64, 83
1, 25510, Control_c, 0, 64, 104
1, 25525, Control_c, 0, 64, 127
1, 25571, Note_off_c, 0, 70, 58
1, 25588, Note_off_c, 0, 73, 55
1, 25598, Note_off_c, 0, 64, 36
1, 25763, Control_c, 0, 64, 112
1, 25764, Note_off_c, 0, 55, 35
1, 25776, Note_on_c, 0, 73, 82
1, 25778, Note_on_c, 0, 57, 45
1, 25778, Control_c, 0, 64, 89
1, 25782, Note_on_c, 0, 69, 70
1, 25790, Note_on_c, 0, 64, 55
1, 25793, Control_c, 0, 64, 73
1, 25808, Control_c, 0, 64, 61
1, 25823, Control_c, 0, 64, 51
1, 25838, Control_c, 0, 64, 47
1, 25853, Control_c, 0, 64, 47
1, 25867, Control_c, 0, 64, 47
1, 25882, Control_c, 0, 64, 49
1, 25897, Control_c, 0, 64, 52
1, 25911, Control_c, 0, 64, 57
1, 25926, Control_c, 0, 64, 61
1, 25941, Control_c, 0, 64, 64
1, 25956, Control_c, 0, 64, 67
1, 25971, Control_c, 0, 64, 71
1, 25986, Control_c, 0, 64, 77
1, 26001, Control_c, 0, 64, 88
1, 26016, Control_c, 0, 64, 110
1, 26038, Control_c, 0, 64, 127
1, 26108, Note_off_c, 0, 69, 52
1, 26120, Note_off_c, 0, 73, 37
1, 26154, Note_off_c, 0, 64, 52
1, 26181, Note_off_c, 0, 57, 35
1, 26305, Control_c, 0, 64, 115
1, 26305, Note_on_c, 0, 58, 63
1, 26315, Note_on_c, 0, 73, 80
1, 26319, Control_c, 0, 64, 104
1, 26326, Note_on_c, 0, 67, 62
1, 26332, Note_on_c, 0, 64, 58
1, 26334, Control_c, 0, 64, 94
1, 26349, Control_c, 0, 64, 85
1, 26364, Control_c, 0, 64, 78
1, 26379, Control_c, 0, 64, 70
1, 26394, Control_c, 0, 64, 64
1, 26409, Control_c, 0, 64, 58
1, 26424, Control_c, 0, 64, 51
1, 26438, Control_c, 0, 64, 43
1, 26453, Control_c, 0, 64, 36
1, 26468, Control_c, 0, 64, 33
1, 26484, Control_c, 0, 64, 33
1, 26499, Control_c, 0, 64, 37
1, 26514, Control_c, 0, 64, 44
1, 26528, Control_c, 0, 64, 52
1, 26543, Control_c, 0, 64, 57
1, 26558, Control_c, 0, 64, 61
1, 26573, Control_c, 0, 64, 63
1, 26588, Control_c, 0, 64, 66
1, 26603, Control_c, 0, 64, 70
1, 26617, Control_c, 0, 64, 80
1, 26628, Note_off_c, 0, 67, 54
1, 26632, Control_c, 0, 64, 97
1, 26647, Control_c, 0, 64, 127
1, 26744, Note_off_c, 0, 73, 63
1, 26791, Note_off_c, 0, 64, 58
1, 26901, Note_on_c, 0, 74, 81
1, 26920, Note_on_c, 0, 65, 52
1, 26921, Control_c, 0, 64, 112
1, 26928, Note_on_c, 0, 62, 45
1, 26935, Control_c, 0, 64, 106
1, 26950, Control_c, 0, 64, 101
1, 26965, Control_c, 0, 64, 92
1, 26980, Control_c, 0, 64, 80
1, 26995, Control_c, 0, 64, 68
1, 27009, Control_c, 0, 64, 55
1, 27024, Control_c, 0, 64, 32
1, 27039, Control_c, 0, 64, 31
1, 27053, Control_c, 0, 64, 33
1, 27068, Control_c, 0, 64, 40
1, 27083, Control_c, 0, 64, 49
1, 27098, Control_c, 0, 64, 57
1, 27113, Control_c, 0, 64, 63
1, 27128, Control_c, 0, 64, 66
1, 27129, Note_off_c, 0, 62, 57
1, 27142, Control_c, 0, 64, 71
1, 27157, Control_c, 0, 64, 79
1, 27168, Note_off_c, 0, 65, 60
1, 27172, Control_c, 0, 64, 93
1, 27187, Control_c, 0, 64, 127
1, 27238, Note_off_c, 0, 74, 60
1, 27566, Control_c, 0, 64, 115
1, 27581, Control_c, 0, 64, 110
1, 27596, Control_c, 0, 64, 106
1, 27610, Control_c, 0, 64, 103
1, 27625, Control_c, 0, 64, 99
1, 27640, Control_c, 0, 64, 96
1, 27655, Control_c, 0, 64, 93
1, 27657, Note_on_c, 0, 77, 91
1, 27670, Control_c, 0, 64, 90
1, 27677, Note_on_c, 0, 74, 67
1, 27681, Note_on_c, 0, 70, 60
1, 27684, Control_c, 0, 64, 87
1, 27699, Control_c, 0, 64, 85
1, 27714, Control_c, 0, 64, 83
1, 27729, Control_c, 0, 64, 81
1, 27744, Control_c, 0, 64, 80
1, 27758, Control_c, 0, 64, 78
1, 27773, Control_c, 0, 64, 74
1, 27788, Control_c, 0, 64, 69
1, 27803, Control_c, 0, 64, 62
1, 27818, Control_c, 0, 64, 52
1, 27832, Control_c, 0, 64, 44
1, 27847, Control_c, 0, 64, 44
1, 27862, Control_c, 0, 64, 43
1, 27876, Control_c, 0, 64, 43
1, 27921, Control_c, 0, 64, 45
1, 27935, Control_c, 0, 64, 48
1, 27950, Control_c, 0, 64, 53
1, 27965, Control_c, 0, 64, 57
1, 27980, Control_c, 0, 64, 60
1, 27995, Control_c, 0, 64, 62
1, 28010, Control_c, 0, 64, 64
1, 28024, Control_c, 0, 64, 66
1, 28039, Control_c, 0, 64, 70
1, 28054, Control_c, 0, 64, 78
1, 28069, Control_c, 0, 64, 88
1, 28084, Control_c, 0, 64, 104
1, 28099, Control_c, 0, 64, 127
1, 28171, Note_on_c, 0, 72, 75
1, 28176, Note_on_c, 0, 69, 62
1, 28225, Note_off_c, 0, 70, 56
1, 28460, Note_off_c, 0, 69, 58
1, 28577, Note_off_c, 0, 58, 34
1, 28637, Note_on_c, 0, 70, 65
1, 28642, Note_on_c, 0, 67, 53
1, 28650, Note_on_c, 0, 46, 67
1, 28684, Control_c, 0, 64, 117
1, 28699, Control_c, 0, 64, 108
1, 28713, Control_c, 0, 64, 101
1, 28728, Control_c, 0, 64, 96
1, 28743, Control_c, 0, 64, 92
1, 28758, Control_c, 0, 64, 89
1, 28773, Control_c, 0, 64, 85
1, 28787, Control_c, 0, 64, 81
1, 28802, Control_c, 0, 64, 78
1, 28807, Note_off_c, 0, 74, 34
1, 28817, Control_c, 0, 64, 76
1, 28824, Note_off_c, 0, 72, 49
1, 28832, Control_c, 0, 64, 73
1, 28847, Control_c, 0, 64, 71
1, 28861, Control_c, 0, 64, 69
1, 28877, Control_c, 0, 64, 67
1, 28892, Control_c, 0, 64, 66
1, 28907, Control_c, 0, 64, 66
1, 28921, Control_c, 0, 64, 65
1, 28936, Control_c, 0, 64, 64
1, 28951, Control_c, 0, 64, 63
1, 28966, Control_c, 0, 64, 63
1, 28981, Control_c, 0, 64, 62
1, 28995, Control_c, 0, 64, 62
1, 29032, Control_c, 0, 64, 61
1, 29062, Control_c, 0, 64, 61
1, 29077, Control_c, 0, 64, 59
1, 29092, Control_c, 0, 64, 57
1, 29107, Control_c, 0, 64, 52
1, 29115, Note_on_c, 0, 75, 70
1, 29122, Control_c, 0, 64, 48
1, 29136, Control_c, 0, 64, 44
1, 29151, Control_c, 0, 64, 42
1, 29166, Control_c, 0, 64, 41
1, 29196, Control_c, 0, 64, 44
1, 29210, Control_c, 0, 64, 48
1, 29225, Control_c, 0, 64, 54
1, 29240, Control_c, 0, 64, 59
1, 29255, Control_c, 0, 64, 63
1, 29270, Control_c, 0, 64, 65
1, 29284, Control_c, 0, 64, 69
1, 29286, Note_off_c, 0, 77, 50
1, 29299, Control_c, 0, 64, 77
1, 29314, Control_c, 0, 64, 89
1, 29328, Control_c, 0, 64, 111
1, 29343, Control_c, 0, 64, 127
1, 29348, Note_off_c, 0, 67, 49
1, 29522, Note_off_c, 0, 75, 59
1, 29594, Note_on_c, 0, 65, 54
1, 29594, Note_on_c, 0, 74, 70
1, 29596, Control_c, 0, 64, 115
1, 29610, Control_c, 0, 64, 100
1, 29625, Control_c, 0, 64, 84
1, 29640, Control_c, 0, 64, 72
1, 29654, Control_c, 0, 64, 63
1, 29669, Control_c, 0, 64, 52
1, 29685, Control_c, 0, 64, 46
1, 29715, Control_c, 0, 64, 48
1, 29730, Control_c, 0, 64, 51
1, 29744, Control_c, 0, 64, 55
1, 29759, Control_c, 0, 64, 59
1, 29781, Control_c, 0, 64, 62
1, 29796, Control_c, 0, 64, 64
1, 29811, Control_c, 0, 64, 68
1, 29825, Control_c, 0, 64, 78
1, 29840, Control_c, 0, 64, 94
1, 29855, Control_c, 0, 64, 127
1, 29903, Note_off_c, 0, 70, 35
1, 29949, Note_off_c, 0, 65, 61
1, 30093, Control_c, 0, 64, 116
1, 30100, Note_on_c, 0, 73, 74
1, 30101, Note_on_c, 0, 69, 53
1, 30107, Note_on_c, 0, 63, 55
1, 30107, Control_c, 0, 64, 100
1, 30122, Control_c, 0, 64, 92
1, 30137, Control_c, 0, 64, 86
1, 30151, Control_c, 0, 64, 82
1, 30166, Control_c, 0, 64, 76
1, 30181, Control_c, 0, 64, 68
1, 30196, Control_c, 0, 64, 58
1, 30211, Control_c, 0, 64, 40
1, 30225, Control_c, 0, 64, 28
1, 30284, Note_off_c, 0, 74, 54
1, 30284, Control_c, 0, 64, 29
1, 30299, Control_c, 0, 64, 34
1, 30314, Control_c, 0, 64, 42
1, 30329, Control_c, 0, 64, 50
1, 30344, Control_c, 0, 64, 56
1, 30359, Control_c, 0, 64, 60
1, 30374, Control_c, 0, 64, 63
1, 30389, Control_c, 0, 64, 67
1, 30404, Control_c, 0, 64, 73
1, 30418, Control_c, 0, 64, 83
1, 30422, Note_off_c, 0, 73, 56
1, 30433, Control_c, 0, 64, 98
1, 30448, Control_c, 0, 64, 125
1, 30463, Control_c, 0, 64, 127
1, 30634, Note_off_c, 0, 46, 34
1, 30640, Note_on_c, 0, 73, 58
1, 30743, Note_off_c, 0, 63, 50
1, 30807, Note_off_c, 0, 69, 57
1, 30944, Note_off_c, 0, 73, 39
1, 30989, Control_c, 0, 64, 125
1, 31004, Control_c, 0, 64, 120
1, 31019, Control_c, 0, 64, 117
1, 31034, Control_c, 0, 64, 115
1, 31048, Control_c, 0, 64, 112
1, 31063, Control_c, 0, 64, 110
1, 31078, Control_c, 0, 64, 107
1, 31093, Control_c, 0, 64, 105
1, 31107, Control_c, 0, 64, 103
1, 31122, Control_c, 0, 64, 101
1, 31137, Control_c, 0, 64, 99
1, 31152, Control_c, 0, 64, 98
1, 31165, Note_on_c, 0, 74, 56
1, 31166, Note_on_c, 0, 58, 37
1, 31167, Control_c, 0, 64, 96
1, 31173, Note_on_c, 0, 67, 42
1, 31177, Note_on_c, 0, 62, 32
1, 31182, Control_c, 0, 64, 94
1, 31197, Control_c, 0, 64, 92
1, 31211, Control_c, 0, 64, 90
1, 31226, Control_c, 0, 64, 88
1, 31241, Control_c, 0, 64, 86
1, 31256, Control_c, 0, 64, 84
1, 31279, Control_c, 0, 64, 81
1, 31294, Control_c, 0, 64, 77
1, 31309, Control_c, 0, 64, 74
1, 31324, Control_c, 0, 64, 72
1, 31338, Control_c, 0, 64, 70
1, 31353, Control_c, 0, 64, 68
1, 31368, Control_c, 0, 64, 66
1, 31383, Control_c, 0, 64, 65
1, 31398, Control_c, 0, 64, 64
1, 31412, Control_c, 0, 64, 63
1, 31427, Control_c, 0, 64, 62
1, 31442, Control_c, 0, 64, 62
1, 31457, Control_c, 0, 64, 61
1, 31472, Control_c, 0, 64, 61
1, 31486, Control_c, 0, 64, 60
1, 31501, Control_c, 0, 64, 59
1, 31516, Control_c, 0, 64, 59
1, 31530, Control_c, 0, 64, 58
1, 31545, Control_c, 0, 64, 58
1, 31560, Control_c, 0, 64, 57
1, 31575, Control_c, 0, 64, 57
1, 31605, Control_c, 0, 64, 56
1, 31620, Control_c, 0, 64, 56
1, 31635, Control_c, 0, 64, 55
1, 31645, Note_on_c, 0, 60, 41
1, 31650, Note_on_c, 0, 57, 39
1, 31650, Control_c, 0, 64, 54
1, 31651, Note_on_c, 0, 65, 59
1, 31665, Control_c, 0, 64, 54
1, 31679, Control_c, 0, 64, 53
1, 31694, Control_c, 0, 64, 52
1, 31709, Control_c, 0, 64, 50
1, 31714, Note_off_c, 0, 58, 40
1, 31723, Control_c, 0, 64, 48
1, 31738, Control_c, 0, 64, 46
1, 31753, Control_c, 0, 64, 44
1, 31768, Control_c, 0, 64, 44
1, 31812, Control_c, 0, 64, 45
1, 31827, Control_c, 0, 64, 49
1, 31830, Note_off_c, 0, 62, 36
1, 31842, Control_c, 0, 64, 54
1, 31857, Control_c, 0, 64, 59
1, 31864, Note_off_c, 0, 67, 36
1, 31871, Control_c, 0, 64, 62
1, 31886, Control_c, 0, 64, 65
1, 31901, Control_c, 0, 64, 68
1, 31916, Control_c, 0, 64, 76
1, 31930, Control_c, 0, 64, 88
1, 31945, Control_c, 0, 64, 111
1, 31946, Note_off_c, 0, 74, 54
1, 31960, Control_c, 0, 64, 127
1, 32088, Control_c, 0, 64, 122
1, 32100, Note_off_c, 0, 60, 29
1, 32102, Control_c, 0, 64, 114
1, 32117, Control_c, 0, 64, 108
1, 32125, Note_off_c, 0, 57, 34
1, 32132, Control_c, 0, 64, 103
1, 32135, Note_on_c, 0, 55, 46
1, 32147, Control_c, 0, 64, 96
1, 32147, Note_on_c, 0, 74, 67
1, 32151, Note_on_c, 0, 64, 50
1, 32159, Note_on_c, 0, 58, 43
1, 32161, Control_c, 0, 64, 88
1, 32176, Control_c, 0, 64, 78
1, 32191, Control_c, 0, 64, 68
1, 32198, Note_off_c, 0, 65, 31
1, 32206, Control_c, 0, 64, 59
1, 32221, Control_c, 0, 64, 43
1, 32235, Control_c, 0, 64, 38
1, 32250, Control_c, 0, 64, 40
1, 32265, Control_c, 0, 64, 43
1, 32280, Control_c, 0, 64, 48
1, 32295, Control_c, 0, 64, 53
1, 32309, Control_c, 0, 64, 58
1, 32324, Control_c, 0, 64, 61
1, 32339, Control_c, 0, 64, 65
1, 32353, Control_c, 0, 64, 70
1, 32368, Control_c, 0, 64, 82
1, 32383, Control_c, 0, 64, 108
1, 32388, Note_off_c, 0, 64, 51
1, 32398, Control_c, 0, 64, 127
1, 32474, Note_off_c, 0, 58, 32
1, 32606, Control_c, 0, 64, 120
1, 32620, Control_c, 0, 64, 96
1, 32623, Note_on_c, 0, 73, 61
1, 32627, Note_on_c, 0, 57, 42
1, 32635, Control_c, 0, 64, 80
1, 32637, Note_on_c, 0, 64, 43
1, 32650, Control_c, 0, 64, 69
1, 32656, Note_off_c, 0, 74, 56
1, 32665, Control_c, 0, 64, 61
1, 32680, Control_c, 0, 64, 55
1, 32694, Control_c, 0, 64, 54
1, 32709, Control_c, 0, 64, 54
1, 32724, Control_c, 0, 64, 56
1, 32738, Control_c, 0, 64, 59
1, 32753, Control_c, 0, 64, 61
1, 32776, Control_c, 0, 64, 64
1, 32791, Control_c, 0, 64, 69
1, 32806, Control_c, 0, 64, 74
1, 32821, Control_c, 0, 64, 83
1, 32835, Control_c, 0, 64, 96
1, 32850, Control_c, 0, 64, 127
1, 32931, Note_off_c, 0, 64, 39
1, 33073, Control_c, 0, 64, 120
1, 33088, Control_c, 0, 64, 109
1, 33103, Control_c, 0, 64, 103
1, 33118, Control_c, 0, 64, 98
1, 33132, Control_c, 0, 64, 95
1, 33135, Note_on_c, 0, 74, 52
1, 33137, Note_on_c, 0, 53, 38
1, 33147, Control_c, 0, 64, 90
1, 33155, Note_on_c, 0, 65, 38
1, 33162, Control_c, 0, 64, 84
1, 33176, Control_c, 0, 64, 74
1, 33183, Note_off_c, 0, 73, 51
1, 33191, Control_c, 0, 64, 65
1, 33194, Note_off_c, 0, 55, 37
1, 33206, Control_c, 0, 64, 54
1, 33221, Control_c, 0, 64, 42
1, 33236, Control_c, 0, 64, 41
1, 33280, Control_c, 0, 64, 43
1, 33295, Control_c, 0, 64, 47
1, 33310, Control_c, 0, 64, 54
1, 33325, Control_c, 0, 64, 59
1, 33340, Control_c, 0, 64, 63
1, 33355, Control_c, 0, 64, 68
1, 33369, Control_c, 0, 64, 77
1, 33384, Control_c, 0, 64, 99
1, 33399, Control_c, 0, 64, 127
1, 33404, Note_off_c, 0, 65, 55
1, 33426, Note_off_c, 0, 57, 56
1, 33428, Note_off_c, 0, 74, 58
1, 33451, Note_off_c, 0, 53, 41
1, 33584, Control_c, 0, 64, 122
1, 33599, Control_c, 0, 64, 108
1, 33614, Control_c, 0, 64, 101
1, 33629, Control_c, 0, 64, 96
1, 33644, Control_c, 0, 64, 91
1, 33658, Control_c, 0, 64, 87
1, 33663, Note_on_c, 0, 76, 48
1, 33672, Note_on_c, 0, 55, 43
1, 33674, Control_c, 0, 64, 84
1, 33686, Note_on_c, 0, 70, 37
1, 33689, Note_on_c, 0, 64, 37
1, 33689, Control_c, 0, 64, 80
1, 33703, Control_c, 0, 64, 75
1, 33718, Control_c, 0, 64, 70
1, 33733, Control_c, 0, 64, 66
1, 33748, Control_c, 0, 64, 63
1, 33763, Control_c, 0, 64, 59
1, 33778, Control_c, 0, 64, 54
1, 33793, Control_c, 0, 64, 49
1, 33796, Note_off_c, 0, 64, 61
1, 33800, Note_off_c, 0, 70, 62
1, 33805, Note_off_c, 0, 55, 57
1, 33807, Control_c, 0, 64, 42
1, 33822, Control_c, 0, 64, 30
1, 33823, Note_off_c, 0, 76, 64
1, 33837, Control_c, 0, 64, 16
1, 33852, Control_c, 0, 64, 0
1, 34205, Note_on_c, 0, 73, 36
1, 34212, Note_on_c, 0, 57, 30
1, 34222, Note_on_c, 0, 67, 22
1, 34225, Note_on_c, 0, 69, 17
1, 34344, Note_off_c, 0, 57, 58
1, 34358, Note_off_c, 0, 67, 51
1, 34358, Note_off_c, 0, 69, 51
1, 34365, Note_off_c, 0, 73, 60
1, 34823, Note_on_c, 0, 50, 23
1, 34827, Note_on_c, 0, 69, 30
1, 34833, Note_on_c, 0, 74, 38
1, 34842, Note_on_c, 0, 65, 25
1, 35074, Note_off_c, 0, 50, 51
1, 35092, Note_off_c, 0, 69, 45
1, 35096, Note_off_c, 0, 65, 43
1, 35102, Note_off_c, 0, 74, 60
1, 36024, Note_on_c, 0, 69, 67
1, 36040, Note_on_c, 0, 65, 53
1, 36265, Note_on_c, 0, 64, 47
1, 36472, Note_on_c, 0, 50, 46
1, 36476, Note_on_c, 0, 62, 43
1, 36482, Note_on_c, 0, 38, 44
1, 36482, Note_off_c, 0, 64, 48
1, 36571, Note_off_c, 0, 50, 64
1, 36574, Note_off_c, 0, 38, 61
1, 36658, Note_off_c, 0, 62, 60
1, 36672, Note_on_c, 0, 60, 50
1, 36859, Note_off_c, 0, 60, 54
1, 36869, Note_on_c, 0, 52, 50
1, 36875, Note_on_c, 0, 40, 49
1, 36878, Note_on_c, 0, 59, 48
1, 37001, Note_off_c, 0, 59, 54
1, 37036, Note_off_c, 0, 40, 57
1, 37051, Note_off_c, 0, 52, 59
1, 37064, Note_on_c, 0, 60, 55
1, 37251, Note_on_c, 0, 62, 46
1, 37254, Note_on_c, 0, 68, 65
1, 37297, Note_off_c, 0, 60, 48
1, 37326, Note_off_c, 0, 65, 50
1, 37358, Control_c, 0, 64, 11
1, 37373, Control_c, 0, 64, 26
1, 37388, Control_c, 0, 64, 37
1, 37403, Control_c, 0, 64, 47
1, 37406, Note_off_c, 0, 69, 61
1, 37417, Control_c, 0, 64, 55
1, 37432, Control_c, 0, 64, 61
1, 37447, Control_c, 0, 64, 65
1, 37454, Note_on_c, 0, 64, 72
1, 37462, Control_c, 0, 64, 70
1, 37463, Note_off_c, 0, 62, 63
1, 37477, Control_c, 0, 64, 78
1, 37491, Control_c, 0, 64, 89
1, 37504, Note_off_c, 0, 68, 62
1, 37506, Control_c, 0, 64, 95
1, 37521, Control_c, 0, 64, 94
1, 37536, Control_c, 0, 64, 91
1, 37550, Control_c, 0, 64, 88
1, 37565, Control_c, 0, 64, 85
1, 37580, Control_c, 0, 64, 82
1, 37595, Control_c, 0, 64, 79
1, 37611, Control_c, 0, 64, 76
1, 37625, Control_c, 0, 64, 72
1, 37640, Control_c, 0, 64, 68
1, 37655, Note_on_c, 0, 74, 82
1, 37655, Control_c, 0, 64, 66
1, 37671, Control_c, 0, 64, 64
1, 37677, Note_on_c, 0, 65, 50
1, 37680, Note_on_c, 0, 70, 61
1, 37686, Control_c, 0, 64, 62
1, 37691, Note_off_c, 0, 64, 51
1, 37701, Control_c, 0, 64, 61
1, 37715, Control_c, 0, 64, 59
1, 37730, Control_c, 0, 64, 56
1, 37745, Control_c, 0, 64, 55
1, 37760, Control_c, 0, 64, 53
1, 37774, Control_c, 0, 64, 52
1, 37789, Control_c, 0, 64, 50
1, 37804, Control_c, 0, 64, 48
1, 37819, Control_c, 0, 64, 47
1, 37848, Control_c, 0, 64, 46
1, 37863, Control_c, 0, 64, 45
1, 37871, Note_on_c, 0, 64, 56
1, 37878, Control_c, 0, 64, 43
1, 37893, Control_c, 0, 64, 43
1, 37900, Note_off_c, 0, 65, 56
1, 37908, Control_c, 0, 64, 42
1, 37922, Control_c, 0, 64, 41
1, 37937, Control_c, 0, 64, 40
1, 37952, Control_c, 0, 64, 40
1, 37966, Control_c, 0, 64, 39
1, 37981, Control_c, 0, 64, 38
1, 37996, Control_c, 0, 64, 38
1, 38019, Control_c, 0, 64, 37
1, 38034, Control_c, 0, 64, 36
1, 38048, Control_c, 0, 64, 35
1, 38063, Control_c, 0, 64, 34
1, 38073, Note_on_c, 0, 55, 53
1, 38078, Note_on_c, 0, 67, 59
1, 38078, Control_c, 0, 64, 33
1, 38082, Note_on_c, 0, 43, 53
1, 38093, Control_c, 0, 64, 32
1, 38097, Note_off_c, 0, 64, 58
1, 38108, Control_c, 0, 64, 31
1, 38122, Control_c, 0, 64, 30
1, 38137, Control_c, 0, 64, 29
1, 38152, Control_c, 0, 64, 27
1, 38164, Note_off_c, 0, 55, 60
1, 38165, Note_off_c, 0, 43, 62
1, 38166, Control_c, 0, 64, 26
1, 38181, Control_c, 0, 64, 25
1, 38196, Control_c, 0, 64, 24
1, 38211, Control_c, 0, 64, 23
1, 38226, Control_c, 0, 64, 22
1, 38240, Control_c, 0, 64, 19
1, 38255, Control_c, 0, 64, 17
1, 38270, Note_on_c, 0, 65, 69
1, 38270, Control_c, 0, 64, 15
1, 38285, Control_c, 0, 64, 13
1, 38308, Note_off_c, 0, 67, 59
1, 38315, Control_c, 0, 64, 12
1, 38345, Control_c, 0, 64, 11
1, 38373, Control_c, 0, 64, 9
1, 38403, Control_c, 0, 64, 0
1, 38463, Note_on_c, 0, 64, 64
1, 38463, Note_off_c, 0, 65, 57
1, 38464, Note_on_c, 0, 45, 55
1, 38467, Note_on_c, 0, 57, 53
1, 38625, Note_off_c, 0, 45, 58
1, 38655, Note_on_c, 0, 65, 65
1, 38655, Note_off_c, 0, 57, 54
1, 38671, Note_off_c, 0, 64, 50
1, 38860, Note_on_c, 0, 67, 49
1, 38861, Note_on_c, 0, 73, 77
1, 38877, Note_off_c, 0, 65, 60
1, 38896, Note_off_c, 0, 74, 60
1, 38944, Note_off_c, 0, 70, 62
1, 39054, Note_on_c, 0, 70, 71
1, 39070, Note_off_c, 0, 67, 61
1, 39237, Note_off_c, 0, 70, 60
1, 39250, Note_on_c, 0, 77, 84
1, 39268, Note_on_c, 0, 69, 54
1, 39311, Note_off_c, 0, 73, 60
1, 39433, Note_on_c, 0, 68, 56
1, 39461, Note_off_c, 0, 69, 37
1, 39463, Control_c, 0, 64, 13
1, 39478, Control_c, 0, 64, 44
1, 39492, Control_c, 0, 64, 58
1, 39515, Control_c, 0, 64, 63
1, 39530, Control_c, 0, 64, 67
1, 39545, Control_c, 0, 64, 75
1, 39560, Control_c, 0, 64, 89
1, 39564, Note_off_c, 0, 77, 54
1, 39567, Note_off_c, 0, 68, 61
1, 39574, Control_c, 0, 64, 101
1, 39589, Control_c, 0, 64, 100
1, 39604, Control_c, 0, 64, 93
1, 39618, Control_c, 0, 64, 86
1, 39633, Control_c, 0, 64, 81
1, 39638, Note_on_c, 0, 45, 57
1, 39639, Note_on_c, 0, 57, 57
1, 39644, Note_on_c, 0, 76, 87
1, 39648, Note_on_c, 0, 73, 76
1, 39648, Control_c, 0, 64, 76
1, 39659, Note_on_c, 0, 69, 59
1, 39663, Control_c, 0, 64, 72
1, 39678, Control_c, 0, 64, 67
1, 39692, Control_c, 0, 64, 62
1, 39707, Control_c, 0, 64, 56
1, 39715, Note_off_c, 0, 45, 62
1, 39720, Note_off_c, 0, 57, 64
1, 39722, Control_c, 0, 64, 52
1, 39737, Control_c, 0, 64, 50
1, 39752, Control_c, 0, 64, 48
1, 39767, Control_c, 0, 64, 43
1, 39782, Control_c, 0, 64, 36
1, 39796, Control_c, 0, 64, 33
1, 39817, Note_on_c, 0, 67, 54
1, 39841, Control_c, 0, 64, 36
1, 39856, Control_c, 0, 64, 44
1, 39871, Control_c, 0, 64, 54
1, 39874, Note_off_c, 0, 69, 62
1, 39885, Control_c, 0, 64, 60
1, 39900, Control_c, 0, 64, 63
1, 39915, Control_c, 0, 64, 64
1, 39930, Control_c, 0, 64, 65
1, 39944, Control_c, 0, 64, 65
1, 39947, Note_off_c, 0, 76, 61
1, 39974, Control_c, 0, 64, 64
1, 39989, Control_c, 0, 64, 64
1, 40004, Control_c, 0, 64, 62
1, 40006, Note_on_c, 0, 58, 74
1, 40008, Note_on_c, 0, 46, 69
1, 40018, Control_c, 0, 64, 60
1, 40026, Note_on_c, 0, 74, 84
1, 40028, Note_on_c, 0, 65, 65
1, 40033, Control_c, 0, 64, 57
1, 40048, Control_c, 0, 64, 54
1, 40064, Control_c, 0, 64, 51
1, 40066, Note_off_c, 0, 67, 62
1, 40068, Note_off_c, 0, 73, 68
1, 40079, Control_c, 0, 64, 48
1, 40094, Control_c, 0, 64, 45
1, 40104, Note_off_c, 0, 46, 63
1, 40108, Note_off_c, 0, 58, 63
1, 40109, Control_c, 0, 64, 42
1, 40124, Control_c, 0, 64, 39
1, 40139, Control_c, 0, 64, 36
1, 40154, Control_c, 0, 64, 34
1, 40169, Control_c, 0, 64, 33
1, 40183, Control_c, 0, 64, 31
1, 40198, Control_c, 0, 64, 30
1, 40212, Note_on_c, 0, 64, 72
1, 40213, Control_c, 0, 64, 27
1, 40228, Control_c, 0, 64, 24
1, 40242, Control_c, 0, 64, 22
1, 40264, Control_c, 0, 64, 20
1, 40266, Note_off_c, 0, 65, 59
1, 40279, Control_c, 0, 64, 19
1, 40294, Control_c, 0, 64, 17
1, 40309, Control_c, 0, 64, 12
1, 40324, Control_c, 0, 64, 0
1, 40395, Note_on_c, 0, 53, 63
1, 40401, Note_on_c, 0, 72, 80
1, 40410, Note_on_c, 0, 65, 67
1, 40414, Note_on_c, 0, 41, 59
1, 40415, Note_off_c, 0, 74, 66
1, 40417, Note_off_c, 0, 64, 63
1, 40491, Note_off_c, 0, 53, 63
1, 40494, Note_off_c, 0, 41, 63
1, 40531, Control_c, 0, 64, 33
1, 40546, Control_c, 0, 64, 52
1, 40560, Control_c, 0, 64, 61
1, 40575, Control_c, 0, 64, 66
1, 40590, Control_c, 0, 64, 72
1, 40591, Note_on_c, 0, 63, 73
1, 40605, Control_c, 0, 64, 80
1, 40619, Control_c, 0, 64, 87
1, 40622, Note_off_c, 0, 65, 60
1, 40630, Note_off_c, 0, 72, 58
1, 40634, Control_c, 0, 64, 86
1, 40649, Control_c, 0, 64, 83
1, 40664, Control_c, 0, 64, 78
1, 40679, Control_c, 0, 64, 75
1, 40694, Control_c, 0, 64, 73
1, 40708, Control_c, 0, 64, 72
1, 40723, Control_c, 0, 64, 70
1, 40738, Control_c, 0, 64, 69
1, 40753, Control_c, 0, 64, 67
1, 40767, Control_c, 0, 64, 65
1, 40773, Note_on_c, 0, 72, 69
1, 40782, Control_c, 0, 64, 64
1, 40783, Note_on_c, 0, 55, 53
1, 40784, Note_on_c, 0, 69, 60
1, 40787, Note_on_c, 0, 43, 50
1, 40797, Control_c, 0, 64, 63
1, 40812, Control_c, 0, 64, 61
1, 40827, Control_c, 0, 64, 60
1, 40841, Control_c, 0, 64, 58
1, 40857, Control_c, 0, 64, 56
1, 40860, Note_off_c, 0, 55, 63
1, 40872, Control_c, 0, 64, 55
1, 40873, Note_off_c, 0, 43, 63
1, 40887, Control_c, 0, 64, 53
1, 40902, Control_c, 0, 64, 50
1, 40917, Control_c, 0, 64, 47
1, 40931, Control_c, 0, 64, 44
1, 40946, Control_c, 0, 64, 42
1, 40961, Control_c, 0, 64, 40
1, 40975, Control_c, 0, 64, 38
1, 40989, Note_on_c, 0, 62, 64
1, 40990, Control_c, 0, 64, 36
1, 41013, Control_c, 0, 64, 34
1, 41028, Control_c, 0, 64, 31
1, 41042, Control_c, 0, 64, 29
1, 41057, Control_c, 0, 64, 26
1, 41058, Note_off_c, 0, 63, 59
1, 41072, Control_c, 0, 64, 23
1, 41087, Control_c, 0, 64, 19
1, 41102, Control_c, 0, 64, 16
1, 41117, Control_c, 0, 64, 13
1, 41132, Control_c, 0, 64, 0
1, 41156, Note_off_c, 0, 62, 60
1, 41171, Note_off_c, 0, 69, 59
1, 41172, Note_on_c, 0, 31, 47
1, 41173, Note_on_c, 0, 67, 54
1, 41176, Note_on_c, 0, 64, 55
1, 41186, Note_on_c, 0, 43, 38
1, 41264, Note_off_c, 0, 31, 62
1, 41280, Note_off_c, 0, 43, 61
1, 41353, Control_c, 0, 64, 35
1, 41363, Note_on_c, 0, 62, 45
1, 41366, Note_on_c, 0, 70, 65
1, 41369, Control_c, 0, 64, 55
1, 41370, Note_off_c, 0, 64, 55
1, 41383, Control_c, 0, 64, 61
1, 41390, Note_off_c, 0, 67, 36
1, 41398, Control_c, 0, 64, 65
1, 41413, Control_c, 0, 64, 68
1, 41423, Note_off_c, 0, 72, 57
1, 41428, Control_c, 0, 64, 72
1, 41443, Control_c, 0, 64, 76
1, 41457, Control_c, 0, 64, 77
1, 41459, Note_off_c, 0, 70, 63
1, 41472, Control_c, 0, 64, 76
1, 41487, Control_c, 0, 64, 75
1, 41502, Control_c, 0, 64, 73
1, 41517, Control_c, 0, 64, 71
1, 41531, Control_c, 0, 64, 68
1, 41546, Control_c, 0, 64, 66
1, 41561, Control_c, 0, 64, 64
1, 41570, Note_on_c, 0, 33, 41
1, 41574, Note_on_c, 0, 45, 39
1, 41576, Control_c, 0, 64, 62
1, 41577, Note_on_c, 0, 69, 57
1, 41582, Note_on_c, 0, 61, 50
1, 41584, Note_on_c, 0, 67, 45
1, 41591, Control_c, 0, 64, 61
1, 41606, Control_c, 0, 64, 59
1, 41609, Note_off_c, 0, 62, 38
1, 41621, Control_c, 0, 64, 57
1, 41636, Control_c, 0, 64, 53
1, 41651, Control_c, 0, 64, 50
1, 41666, Control_c, 0, 64, 47
1, 41680, Control_c, 0, 64, 45
1, 41695, Control_c, 0, 64, 42
1, 41710, Control_c, 0, 64, 40
1, 41725, Control_c, 0, 64, 37
1, 41740, Control_c, 0, 64, 34
1, 41762, Control_c, 0, 64, 30
1, 41776, Note_off_c, 0, 33, 40
1, 41777, Control_c, 0, 64, 26
1, 41781, Note_off_c, 0, 45, 37
1, 41788, Note_on_c, 0, 64, 66
1, 41792, Control_c, 0, 64, 23
1, 41807, Control_c, 0, 64, 21
1, 41821, Control_c, 0, 64, 16
1, 41836, Control_c, 0, 64, 11
1, 41841, Note_off_c, 0, 61, 58
1, 41851, Control_c, 0, 64, 0
1, 41970, Note_on_c, 0, 65, 75
1, 42022, Note_off_c, 0, 69, 58
1, 42042, Note_off_c, 0, 67, 57
1, 42061, Note_off_c, 0, 64, 57
1, 42153, Note_on_c, 0, 67, 79
1, 42248, Note_off_c, 0, 65, 49
1, 42352, Note_on_c, 0, 69, 86
1, 42362, Note_on_c, 0, 65, 79
1, 42561, Note_on_c, 0, 64, 75
1, 42664, Note_off_c, 0, 67, 28
1, 42736, Note_on_c, 0, 50, 69
1, 42737, Note_on_c, 0, 38, 65
1, 42743, Note_on_c, 0, 62, 71
1, 42780, Note_off_c, 0, 64, 61
1, 42812, Note_off_c, 0, 50, 64
1, 42818, Note_off_c, 0, 38, 62
1, 42926, Note_on_c, 0, 61, 75
1, 42964, Note_off_c, 0, 62, 58
1, 43111, Note_on_c, 0, 47, 66
1, 43114, Note_on_c, 0, 35, 66
1, 43125, Note_on_c, 0, 62, 69
1, 43133, Note_off_c, 0, 65, 59
1, 43174, Note_off_c, 0, 61, 62
1, 43309, Note_on_c, 0, 65, 72
1, 43309, Note_off_c, 0, 35, 57
1, 43332, Note_off_c, 0, 47, 60
1, 43368, Note_off_c, 0, 62, 57
1, 43508, Note_on_c, 0, 68, 68
1, 43564, Note_off_c, 0, 69, 54
1, 43589, Note_off_c, 0, 65, 56
1, 43675, Control_c, 0, 64, 32
1, 43689, Control_c, 0, 64, 52
1, 43694, Note_on_c, 0, 62, 54
1, 43704, Control_c, 0, 64, 59
1, 43719, Control_c, 0, 64, 63
1, 43734, Control_c, 0, 64, 67
1, 43736, Note_off_c, 0, 68, 60
1, 43749, Control_c, 0, 64, 72
1, 43764, Control_c, 0, 64, 79
1, 43778, Control_c, 0, 64, 83
1, 43793, Control_c, 0, 64, 82
1, 43808, Control_c, 0, 64, 79
1, 43823, Control_c, 0, 64, 76
1, 43838, Control_c, 0, 64, 73
1, 43852, Control_c, 0, 64, 69
1, 43867, Control_c, 0, 64, 64
1, 43882, Control_c, 0, 64, 61
1, 43894, Note_on_c, 0, 63, 45
1, 43895, Note_on_c, 0, 67, 50
1, 43897, Control_c, 0, 64, 58
1, 43905, Note_off_c, 0, 62, 47
1, 43912, Control_c, 0, 64, 55
1, 43926, Control_c, 0, 64, 53
1, 43941, Control_c, 0, 64, 50
1, 43956, Control_c, 0, 64, 47
1, 43971, Control_c, 0, 64, 45
1, 43985, Control_c, 0, 64, 43
1, 44008, Control_c, 0, 64, 41
1, 44023, Control_c, 0, 64, 39
1, 44038, Control_c, 0, 64, 36
1, 44053, Control_c, 0, 64, 34
1, 44068, Control_c, 0, 64, 31
1, 44077, Note_on_c, 0, 62, 45
1, 44083, Control_c, 0, 64, 30
1, 44098, Control_c, 0, 64, 28
1, 44104, Note_off_c, 0, 63, 53
1, 44113, Control_c, 0, 64, 26
1, 44128, Control_c, 0, 64, 25
1, 44143, Control_c, 0, 64, 24
1, 44157, Control_c, 0, 64, 22
1, 44172, Control_c, 0, 64, 19
1, 44187, Control_c, 0, 64, 18
1, 44202, Control_c, 0, 64, 17
1, 44216, Control_c, 0, 64, 16
1, 44231, Control_c, 0, 64, 14
1, 44246, Control_c, 0, 64, 13
1, 44274, Note_on_c, 0, 48, 43
1, 44276, Control_c, 0, 64, 12
1, 44279, Note_on_c, 0, 60, 48
1, 44283, Note_off_c, 0, 62, 54
1, 44290, Note_on_c, 0, 36, 42
1, 44290, Control_c, 0, 64, 11
1, 44305, Control_c, 0, 64, 9
1, 44320, Control_c, 0, 64, 0
1, 44349, Note_off_c, 0, 36, 60
1, 44351, Note_off_c, 0, 48, 62
1, 44469, Note_on_c, 0, 59, 48
1, 44478, Note_off_c, 0, 60, 55
1, 44664, Note_on_c, 0, 60, 29
1, 44667, Note_on_c, 0, 33, 39
1, 44671, Note_off_c, 0, 59, 38
1, 44672, Note_on_c, 0, 45, 36
1, 44816, Note_off_c, 0, 45, 52
1, 44835, Note_off_c, 0, 33, 36
1, 44861, Note_on_c, 0, 63, 47
1, 44912, Note_off_c, 0, 60, 38
1, 45057, Note_on_c, 0, 66, 55
1, 45094, Note_off_c, 0, 67, 58
1, 45180, Note_off_c, 0, 63, 35
1, 45250, Note_on_c, 0, 60, 49
1, 45449, Note_on_c, 0, 70, 64
1, 45532, Note_off_c, 0, 60, 31
1, 45550, Note_off_c, 0, 66, 54
1, 45652, Note_on_c, 0, 62, 42
1, 45826, Note_on_c, 0, 69, 75
1, 45827, Note_on_c, 0, 45, 42
1, 45828, Note_on_c, 0, 33, 45
1, 45837, Note_on_c, 0, 66, 53
1, 45837, Note_off_c, 0, 70, 62
1, 45901, Note_off_c, 0, 33, 62
1, 45907, Note_off_c, 0, 45, 61
1, 45967, Note_off_c, 0, 66, 54
1, 46010, Note_on_c, 0, 60, 59
1, 46027, Note_off_c, 0, 62, 55
1, 46194, Note_on_c, 0, 46, 60
1, 46195, Note_on_c, 0, 67, 74
1, 46198, Note_on_c, 0, 34, 60
1, 46213, Note_on_c, 0, 62, 57
1, 46225, Note_off_c, 0, 60, 58
1, 46265, Note_off_c, 0, 69, 62
1, 46300, Note_off_c, 0, 34, 59
1, 46313, Note_off_c, 0, 46, 62
1, 46399, Note_on_c, 0, 58, 77
1, 46432, Note_off_c, 0, 62, 59
1, 46586, Note_on_c, 0, 47, 65
1, 46588, Note_on_c, 0, 65, 80
1, 46589, Note_on_c, 0, 35, 64
1, 46599, Note_on_c, 0, 62, 65
1, 46624, Note_off_c, 0, 58, 61
1, 46630, Note_off_c, 0, 67, 62
1, 46669, Note_off_c, 0, 35, 59
1, 46679, Note_off_c, 0, 47, 62
1, 46730, Control_c, 0, 64, 19
1, 46745, Control_c, 0, 64, 35
1, 46759, Control_c, 0, 64, 47
1, 46773, Note_on_c, 0, 56, 61
1, 46774, Control_c, 0, 64, 51
1, 46789, Note_off_c, 0, 62, 54
1, 46789, Control_c, 0, 64, 53
1, 46804, Control_c, 0, 64, 56
1, 46819, Control_c, 0, 64, 58
1, 46833, Control_c, 0, 64, 60
1, 46892, Control_c, 0, 64, 59
1, 46907, Control_c, 0, 64, 58
1, 46915, Note_off_c, 0, 65, 60
1, 46922, Control_c, 0, 64, 57
1, 46937, Control_c, 0, 64, 56
1, 46943, Note_off_c, 0, 56, 64
1, 46951, Control_c, 0, 64, 55
1, 46966, Control_c, 0, 64, 53
1, 46968, Note_on_c, 0, 65, 74
1, 46974, Note_on_c, 0, 55, 63
1, 46976, Note_on_c, 0, 36, 60
1, 46981, Control_c, 0, 64, 51
1, 46992, Note_on_c, 0, 48, 41
1, 47003, Control_c, 0, 64, 50
1, 47018, Control_c, 0, 64, 49
1, 47033, Control_c, 0, 64, 48
1, 47048, Control_c, 0, 64, 47
1, 47063, Control_c, 0, 64, 46
1, 47070, Note_off_c, 0, 36, 60
1, 47073, Note_off_c, 0, 48, 53
1, 47077, Control_c, 0, 64, 45
1, 47092, Control_c, 0, 64, 45
1, 47107, Control_c, 0, 64, 44
1, 47122, Control_c, 0, 64, 43
1, 47137, Control_c, 0, 64, 42
1, 47151, Control_c, 0, 64, 41
1, 47166, Note_on_c, 0, 62, 66
1, 47166, Control_c, 0, 64, 40
1, 47177, Note_off_c, 0, 55, 56
1, 47181, Control_c, 0, 64, 39
1, 47196, Control_c, 0, 64, 38
1, 47210, Control_c, 0, 64, 37
1, 47225, Control_c, 0, 64, 36
1, 47240, Control_c, 0, 64, 34
1, 47256, Control_c, 0, 64, 33
1, 47271, Control_c, 0, 64, 31
1, 47286, Control_c, 0, 64, 30
1, 47301, Control_c, 0, 64, 30
1, 47315, Control_c, 0, 64, 28
1, 47330, Control_c, 0, 64, 27
1, 47342, Note_on_c, 0, 64, 70
1, 47345, Control_c, 0, 64, 26
1, 47346, Note_on_c, 0, 36, 68
1, 47359, Note_on_c, 0, 60, 63
1, 47360, Control_c, 0, 64, 24
1, 47370, Note_off_c, 0, 65, 60
1, 47374, Control_c, 0, 64, 22
1, 47389, Control_c, 0, 64, 19
1, 47401, Note_off_c, 0, 62, 59
1, 47404, Control_c, 0, 64, 16
1, 47419, Control_c, 0, 64, 13
1, 47430, Note_off_c, 0, 36, 63
1, 47433, Control_c, 0, 64, 9
1, 47448, Control_c, 0, 64, 0
1, 47526, Note_off_c, 0, 60, 62
1, 47535, Note_on_c, 0, 58, 68
1, 47729, Note_on_c, 0, 65, 74
1, 47734, Note_on_c, 0, 29, 48
1, 47738, Note_on_c, 0, 57, 55
1, 47754, Note_on_c, 0, 41, 35
1, 47765, Note_off_c, 0, 58, 56
1, 47815, Note_off_c, 0, 64, 56
1, 47895, Note_off_c, 0, 41, 35
1, 47904, Note_off_c, 0, 29, 51
1, 47932, Note_on_c, 0, 60, 64
1, 47933, Note_off_c, 0, 57, 56
1, 48115, Note_on_c, 0, 62, 75
1, 48182, Note_off_c, 0, 65, 60
1, 48197, Note_off_c, 0, 60, 62
1, 48307, Note_on_c, 0, 64, 88
1, 48346, Note_off_c, 0, 62, 64
1, 48503, Note_on_c, 0, 72, 88
1, 48511, Note_on_c, 0, 65, 69
1, 48511, Note_on_c, 0, 69, 80
1, 48529, Note_off_c, 0, 64, 61
1, 48686, Note_on_c, 0, 64, 76
1, 48735, Note_off_c, 0, 65, 61
1, 48864, Note_on_c, 0, 53, 82
1, 48865, Note_on_c, 0, 41, 76
1, 48871, Note_on_c, 0, 65, 82
1, 48891, Note_off_c, 0, 64, 61
1, 48938, Note_off_c, 0, 53, 63
1, 48939, Note_off_c, 0, 41, 63
1, 49054, Note_on_c, 0, 67, 91
1, 49118, Note_off_c, 0, 65, 53
1, 49255, Note_on_c, 0, 50, 79
1, 49259, Note_on_c, 0, 38, 75
1, 49260, Note_on_c, 0, 68, 85
1, 49291, Note_off_c, 0, 67, 60
1, 49413, Control_c, 0, 64, 23
1, 49426, Note_off_c, 0, 38, 57
1, 49428, Note_off_c, 0, 50, 59
1, 49428, Control_c, 0, 64, 38
1, 49443, Control_c, 0, 64, 48
1, 49446, Note_on_c, 0, 64, 80
1, 49458, Control_c, 0, 64, 54
1, 49472, Control_c, 0, 64, 55
1, 49487, Control_c, 0, 64, 56
1, 49502, Control_c, 0, 64, 57
1, 49514, Note_off_c, 0, 68, 54
1, 49517, Control_c, 0, 64, 58
1, 49529, Note_off_c, 0, 72, 58
1, 49532, Control_c, 0, 64, 58
1, 49536, Note_off_c, 0, 69, 57
1, 49546, Control_c, 0, 64, 59
1, 49561, Control_c, 0, 64, 58
1, 49576, Control_c, 0, 64, 57
1, 49591, Control_c, 0, 64, 55
1, 49604, Control_c, 0, 64, 50
1, 49618, Note_on_c, 0, 71, 76
1, 49619, Control_c, 0, 64, 43
1, 49632, Note_on_c, 0, 65, 58
1, 49634, Control_c, 0, 64, 38
1, 49636, Note_on_c, 0, 68, 61
1, 49650, Control_c, 0, 64, 36
1, 49663, Note_off_c, 0, 64, 61
1, 49680, Control_c, 0, 64, 37
1, 49694, Control_c, 0, 64, 40
1, 49709, Control_c, 0, 64, 46
1, 49724, Control_c, 0, 64, 53
1, 49739, Control_c, 0, 64, 58
1, 49754, Control_c, 0, 64, 59
1, 49768, Control_c, 0, 64, 61
1, 49783, Control_c, 0, 64, 62
1, 49798, Control_c, 0, 64, 64
1, 49803, Note_off_c, 0, 65, 59
1, 49806, Note_on_c, 0, 67, 67
1, 49813, Control_c, 0, 64, 65
1, 49816, Note_off_c, 0, 68, 55
1, 49828, Control_c, 0, 64, 66
1, 49842, Control_c, 0, 64, 66
1, 49887, Control_c, 0, 64, 66
1, 49893, Note_off_c, 0, 71, 59
1, 49917, Control_c, 0, 64, 65
1, 49931, Control_c, 0, 64, 63
1, 49946, Control_c, 0, 64, 59
1, 49961, Control_c, 0, 64, 54
1, 49976, Control_c, 0, 64, 49
1, 49982, Note_on_c, 0, 71, 71
1, 49988, Note_on_c, 0, 68, 52
1, 49988, Note_off_c, 0, 67, 58
1, 49988, Note_on_c, 0, 65, 45
1, 49998, Control_c, 0, 64, 46
1, 50013, Control_c, 0, 64, 46
1, 50027, Control_c, 0, 64, 46
1, 50042, Control_c, 0, 64, 49
1, 50057, Control_c, 0, 64, 53
1, 50072, Control_c, 0, 64, 58
1, 50087, Control_c, 0, 64, 61
1, 50101, Control_c, 0, 64, 64
1, 50116, Control_c, 0, 64, 66
1, 50131, Control_c, 0, 64, 68
1, 50146, Control_c, 0, 64, 69
1, 50161, Control_c, 0, 64, 70
1, 50186, Note_off_c, 0, 68, 56
1, 50193, Note_on_c, 0, 64, 49
1, 50197, Note_off_c, 0, 65, 37
1, 50220, Control_c, 0, 64, 70
1, 50230, Note_off_c, 0, 71, 58
1, 50235, Control_c, 0, 64, 69
1, 50250, Control_c, 0, 64, 69
1, 50280, Control_c, 0, 64, 68
1, 50294, Control_c, 0, 64, 67
1, 50309, Control_c, 0, 64, 65
1, 50324, Control_c, 0, 64, 62
1, 50339, Control_c, 0, 64, 57
1, 50354, Control_c, 0, 64, 50
1, 50368, Control_c, 0, 64, 44
1, 50383, Control_c, 0, 64, 44
1, 50384, Note_on_c, 0, 71, 45
1, 50385, Note_on_c, 0, 65, 30
1, 50386, Note_on_c, 0, 55, 35
1, 50393, Note_on_c, 0, 43, 37
1, 50398, Control_c, 0, 64, 46
1, 50413, Control_c, 0, 64, 51
1, 50416, Note_on_c, 0, 67, 30
1, 50427, Control_c, 0, 64, 56
1, 50444, Control_c, 0, 64, 61
1, 50445, Note_off_c, 0, 55, 59
1, 50451, Note_off_c, 0, 64, 31
1, 50459, Control_c, 0, 64, 63
1, 50461, Note_off_c, 0, 43, 62
1, 50473, Control_c, 0, 64, 65
1, 50488, Control_c, 0, 64, 65
1, 50518, Control_c, 0, 64, 65
1, 50532, Control_c, 0, 64, 64
1, 50560, Note_off_c, 0, 65, 41
1, 50562, Control_c, 0, 64, 64
1, 50566, Note_off_c, 0, 67, 56
1, 50577, Control_c, 0, 64, 63
1, 50584, Note_on_c, 0, 62, 41
1, 50591, Control_c, 0, 64, 62
1, 50606, Control_c, 0, 64, 61
1, 50621, Control_c, 0, 64, 60
1, 50622, Note_off_c, 0, 71, 61
1, 50636, Control_c, 0, 64, 58
1, 50650, Control_c, 0, 64, 56
1, 50665, Control_c, 0, 64, 54
1, 50680, Control_c, 0, 64, 52
1, 50695, Control_c, 0, 64, 48
1, 50710, Control_c, 0, 64, 46
1, 50724, Control_c, 0, 64, 45
1, 50747, Control_c, 0, 64, 44
1, 50762, Control_c, 0, 64, 42
1, 50772, Note_off_c, 0, 62, 55
1, 50777, Control_c, 0, 64, 40
1, 50782, Note_on_c, 0, 71, 55
1, 50792, Control_c, 0, 64, 39
1, 50793, Note_on_c, 0, 36, 26
1, 50801, Note_on_c, 0, 65, 30
1, 50805, Note_on_c, 0, 67, 42
1, 50806, Control_c, 0, 64, 38
1, 50821, Control_c, 0, 64, 37
1, 50824, Note_on_c, 0, 48, 23
1, 50836, Control_c, 0, 64, 36
1, 50850, Control_c, 0, 64, 36
1, 50865, Control_c, 0, 64, 35
1, 50880, Control_c, 0, 64, 34
1, 50895, Control_c, 0, 64, 33
1, 50910, Control_c, 0, 64, 31
1, 50924, Control_c, 0, 64, 30
1, 50939, Control_c, 0, 64, 30
1, 50941, Note_off_c, 0, 48, 51
1, 50954, Control_c, 0, 64, 29
1, 50962, Note_off_c, 0, 36, 48
1, 50964, Note_off_c, 0, 65, 49
1, 50969, Control_c, 0, 64, 27
1, 50978, Note_on_c, 0, 62, 37
1, 50984, Control_c, 0, 64, 26
1, 50999, Control_c, 0, 64, 25
1, 51014, Control_c, 0, 64, 23
1, 51028, Control_c, 0, 64, 21
1, 51043, Control_c, 0, 64, 19
1, 51058, Control_c, 0, 64, 18
1, 51073, Control_c, 0, 64, 16
1, 51088, Control_c, 0, 64, 14
1, 51102, Control_c, 0, 64, 13
1, 51116, Control_c, 0, 64, 12
1, 51131, Control_c, 0, 64, 11
1, 51146, Control_c, 0, 64, 9
1, 51161, Control_c, 0, 64, 0
1, 51169, Note_off_c, 0, 62, 54
1, 51186, Note_on_c, 0, 72, 57
1, 51186, Note_on_c, 0, 64, 42
1, 51249, Note_off_c, 0, 71, 52
1, 51265, Control_c, 0, 64, 12
1, 51268, Note_off_c, 0, 67, 50
1, 51280, Control_c, 0, 64, 20
1, 51295, Control_c, 0, 64, 29
1, 51310, Control_c, 0, 64, 40
1, 51325, Control_c, 0, 64, 51
1, 51340, Control_c, 0, 64, 57
1, 51354, Control_c, 0, 64, 61
1, 51369, Control_c, 0, 64, 64
1, 51377, Note_on_c, 0, 60, 52
1, 51377, Note_off_c, 0, 64, 60
1, 51380, Note_off_c, 0, 72, 58
1, 51384, Control_c, 0, 64, 68
1, 51399, Control_c, 0, 64, 75
1, 51413, Control_c, 0, 64, 89
1, 51428, Control_c, 0, 64, 103
1, 51443, Control_c, 0, 64, 110
1, 51466, Note_off_c, 0, 60, 49
1, 51473, Control_c, 0, 64, 109
1, 51495, Control_c, 0, 64, 106
1, 51510, Control_c, 0, 64, 101
1, 51525, Control_c, 0, 64, 97
1, 51540, Control_c, 0, 64, 93
1, 51554, Control_c, 0, 64, 89
1, 51569, Control_c, 0, 64, 84
1, 51583, Note_on_c, 0, 74, 87
1, 51584, Control_c, 0, 64, 80
1, 51599, Control_c, 0, 64, 75
1, 51600, Note_on_c, 0, 71, 72
1, 51605, Note_on_c, 0, 67, 59
1, 51614, Control_c, 0, 64, 73
1, 51628, Control_c, 0, 64, 71
1, 51643, Control_c, 0, 64, 69
1, 51658, Control_c, 0, 64, 66
1, 51672, Control_c, 0, 64, 64
1, 51687, Control_c, 0, 64, 62
1, 51702, Control_c, 0, 64, 61
1, 51717, Control_c, 0, 64, 60
1, 51732, Control_c, 0, 64, 59
1, 51747, Control_c, 0, 64, 57
1, 51762, Control_c, 0, 64, 56
1, 51774, Note_off_c, 0, 67, 34
1, 51777, Control_c, 0, 64, 54
1, 51783, Note_on_c, 0, 66, 72
1, 51792, Control_c, 0, 64, 51
1, 51806, Control_c, 0, 64, 47
1, 51821, Control_c, 0, 64, 42
1, 51836, Control_c, 0, 64, 34
1, 51851, Control_c, 0, 64, 19
1, 51865, Control_c, 0, 64, 0
1, 51952, Note_on_c, 0, 43, 72
1, 51954, Note_on_c, 0, 55, 77
1, 51971, Note_on_c, 0, 67, 74
1, 52003, Note_off_c, 0, 66, 59
1, 52010, Note_off_c, 0, 55, 64
1, 52018, Note_off_c, 0, 43, 63
1, 52148, Note_on_c, 0, 69, 85
1, 52182, Note_off_c, 0, 67, 61
1, 52335, Note_on_c, 0, 52, 80
1, 52342, Note_on_c, 0, 40, 74
1, 52346, Note_on_c, 0, 70, 78
1, 52376, Note_off_c, 0, 69, 61
1, 52382, Note_off_c, 0, 71, 51
1, 52529, Note_on_c, 0, 66, 78
1, 52556, Note_off_c, 0, 40, 50
1, 52556, Note_off_c, 0, 52, 56
1, 52596, Note_off_c, 0, 70, 61
1, 52724, Note_on_c, 0, 73, 79
1, 52730, Note_on_c, 0, 67, 62
1, 52738, Note_on_c, 0, 70, 60
1, 52759, Note_off_c, 0, 66, 59
1, 52838, Control_c, 0, 64, 39
1, 52853, Control_c, 0, 64, 54
1, 52867, Note_off_c, 0, 74, 54
1, 52868, Control_c, 0, 64, 60
1, 52883, Control_c, 0, 64, 63
1, 52895, Note_off_c, 0, 70, 33
1, 52897, Control_c, 0, 64, 67
1, 52912, Control_c, 0, 64, 73
1, 52915, Note_on_c, 0, 69, 74
1, 52927, Control_c, 0, 64, 85
1, 52930, Note_off_c, 0, 67, 57
1, 52942, Control_c, 0, 64, 122
1, 52957, Control_c, 0, 64, 127
1, 53025, Note_off_c, 0, 73, 61
1, 53038, Control_c, 0, 64, 86
1, 53053, Control_c, 0, 64, 69
1, 53067, Control_c, 0, 64, 57
1, 53082, Control_c, 0, 64, 42
1, 53097, Control_c, 0, 64, 45
1, 53098, Note_on_c, 0, 73, 85
1, 53110, Note_on_c, 0, 67, 65
1, 53112, Control_c, 0, 64, 51
1, 53127, Note_on_c, 0, 70, 54
1, 53127, Control_c, 0, 64, 57
1, 53140, Note_off_c, 0, 69, 61
1, 53142, Control_c, 0, 64, 61
1, 53157, Control_c, 0, 64, 64
1, 53172, Control_c, 0, 64, 68
1, 53187, Control_c, 0, 64, 80
1, 53201, Control_c, 0, 64, 127
1, 53242, Note_off_c, 0, 70, 38
1, 53307, Note_on_c, 0, 66, 54
1, 53365, Note_off_c, 0, 66, 50
1, 53369, Note_off_c, 0, 67, 37
1, 53380, Note_off_c, 0, 73, 59
1, 53438, Control_c, 0, 64, 104
1, 53452, Control_c, 0, 64, 72
1, 53467, Control_c, 0, 64, 50
1, 53479, Note_on_c, 0, 73, 91
1, 53481, Note_on_c, 0, 57, 64
1, 53482, Control_c, 0, 64, 23
1, 53485, Note_on_c, 0, 45, 60
1, 53494, Note_on_c, 0, 67, 73
1, 53497, Control_c, 0, 64, 27
1, 53503, Note_on_c, 0, 69, 64
1, 53512, Control_c, 0, 64, 40
1, 53526, Control_c, 0, 64, 55
1, 53541, Control_c, 0, 64, 63
1, 53556, Control_c, 0, 64, 70
1, 53571, Control_c, 0, 64, 85
1, 53575, Note_off_c, 0, 57, 64
1, 53582, Note_off_c, 0, 69, 54
1, 53586, Control_c, 0, 64, 127
1, 53613, Note_off_c, 0, 45, 62
1, 53690, Note_on_c, 0, 64, 88
1, 53753, Note_off_c, 0, 67, 61
1, 53768, Note_off_c, 0, 73, 56
1, 53914, Note_on_c, 0, 46, 86
1, 53915, Note_on_c, 0, 34, 81
1, 53921, Note_on_c, 0, 73, 95
1, 53926, Note_on_c, 0, 67, 80
1, 53944, Note_off_c, 0, 64, 59
1, 54009, Control_c, 0, 64, 122
1, 54024, Control_c, 0, 64, 97
1, 54039, Control_c, 0, 64, 89
1, 54054, Control_c, 0, 64, 85
1, 54068, Control_c, 0, 64, 83
1, 54083, Control_c, 0, 64, 80
1, 54098, Control_c, 0, 64, 77
1, 54113, Control_c, 0, 64, 73
1, 54128, Control_c, 0, 64, 71
1, 54137, Note_on_c, 0, 64, 87
1, 54142, Control_c, 0, 64, 69
1, 54157, Control_c, 0, 64, 67
1, 54172, Control_c, 0, 64, 66
1, 54173, Note_off_c, 0, 67, 59
1, 54187, Control_c, 0, 64, 65
1, 54202, Control_c, 0, 64, 63
1, 54216, Control_c, 0, 64, 63
1, 54246, Control_c, 0, 64, 62
1, 54261, Control_c, 0, 64, 61
1, 54275, Control_c, 0, 64, 60
1, 54290, Control_c, 0, 64, 60
1, 54305, Control_c, 0, 64, 59
1, 54320, Control_c, 0, 64, 56
1, 54334, Note_on_c, 0, 74, 89
1, 54334, Control_c, 0, 64, 48
1, 54341, Note_on_c, 0, 65, 75
1, 54349, Control_c, 0, 64, 32
1, 54362, Note_off_c, 0, 73, 69
1, 54364, Control_c, 0, 64, 0
1, 54369, Note_off_c, 0, 64, 60
1, 54469, Control_c, 0, 64, 36
1, 54491, Control_c, 0, 64, 55
1, 54506, Control_c, 0, 64, 62
1, 54521, Control_c, 0, 64, 67
1, 54536, Control_c, 0, 64, 75
1, 54551, Control_c, 0, 64, 98
1, 54559, Note_off_c, 0, 65, 61
1, 54563, Note_on_c, 0, 62, 58
1, 54565, Control_c, 0, 64, 127
1, 54594, Note_off_c, 0, 62, 65
1, 54597, Note_off_c, 0, 74, 61
1, 54817, Note_on_c, 0, 77, 92
1, 54835, Note_on_c, 0, 74, 69
1, 54841, Note_on_c, 0, 70, 66
1, 54876, Control_c, 0, 64, 94
1, 54890, Control_c, 0, 64, 73
1, 54905, Control_c, 0, 64, 61
1, 54920, Control_c, 0, 64, 41
1, 54935, Control_c, 0, 64, 32
1, 54964, Control_c, 0, 64, 33
1, 54979, Control_c, 0, 64, 37
1, 54994, Control_c, 0, 64, 47
1, 55009, Control_c, 0, 64, 56
1, 55024, Control_c, 0, 64, 62
1, 55038, Control_c, 0, 64, 68
1, 55053, Control_c, 0, 64, 78
1, 55066, Note_off_c, 0, 74, 58
1, 55068, Control_c, 0, 64, 108
1, 55076, Note_on_c, 0, 73, 61
1, 55077, Note_off_c, 0, 70, 38
1, 55083, Control_c, 0, 64, 127
1, 55091, Note_on_c, 0, 69, 43
1, 55091, Note_off_c, 0, 34, 52
1, 55137, Note_off_c, 0, 46, 54
1, 55212, Note_off_c, 0, 69, 54
1, 55270, Note_off_c, 0, 73, 62
1, 55273, Note_on_c, 0, 74, 66
1, 55286, Note_on_c, 0, 70, 51
1, 55458, Note_on_c, 0, 68, 66
1, 55461, Note_on_c, 0, 72, 71
1, 55484, Note_off_c, 0, 70, 26
1, 55506, Control_c, 0, 64, 120
1, 55521, Control_c, 0, 64, 110
1, 55536, Control_c, 0, 64, 107
1, 55550, Control_c, 0, 64, 105
1, 55565, Control_c, 0, 64, 104
1, 55580, Control_c, 0, 64, 102
1, 55595, Control_c, 0, 64, 98
1, 55610, Control_c, 0, 64, 90
1, 55618, Note_off_c, 0, 68, 61
1, 55625, Control_c, 0, 64, 77
1, 55640, Control_c, 0, 64, 63
1, 55643, Note_on_c, 0, 58, 71
1, 55643, Note_on_c, 0, 46, 61
1, 55646, Note_on_c, 0, 70, 60
1, 55655, Note_on_c, 0, 67, 59
1, 55655, Control_c, 0, 64, 36
1, 55662, Note_off_c, 0, 74, 30
1, 55669, Control_c, 0, 64, 0
1, 55691, Note_off_c, 0, 72, 58
1, 55713, Control_c, 0, 64, 27
1, 55728, Control_c, 0, 64, 44
1, 55736, Note_off_c, 0, 67, 63
1, 55743, Control_c, 0, 64, 53
1, 55758, Control_c, 0, 64, 59
1, 55773, Control_c, 0, 64, 64
1, 55787, Control_c, 0, 64, 68
1, 55802, Control_c, 0, 64, 74
1, 55817, Control_c, 0, 64, 82
1, 55832, Control_c, 0, 64, 89
1, 55834, Note_on_c, 0, 66, 71
1, 55835, Note_off_c, 0, 77, 51
1, 55847, Control_c, 0, 64, 93
1, 55876, Control_c, 0, 64, 92
1, 55905, Control_c, 0, 64, 92
1, 55917, Note_off_c, 0, 70, 64
1, 55920, Control_c, 0, 64, 91
1, 55935, Control_c, 0, 64, 90
1, 55950, Control_c, 0, 64, 88
1, 55965, Control_c, 0, 64, 87
1, 55980, Note_off_c, 0, 66, 62
1, 55980, Control_c, 0, 64, 86
1, 56002, Control_c, 0, 64, 84
1, 56017, Control_c, 0, 64, 83
1, 56027, Note_on_c, 0, 75, 74
1, 56032, Control_c, 0, 64, 82
1, 56036, Note_on_c, 0, 67, 51
1, 56048, Control_c, 0, 64, 81
1, 56058, Note_on_c, 0, 70, 58
1, 56063, Control_c, 0, 64, 80
1, 56078, Control_c, 0, 64, 79
1, 56081, Note_off_c, 0, 46, 37
1, 56092, Control_c, 0, 64, 79
1, 56122, Control_c, 0, 64, 78
1, 56136, Control_c, 0, 64, 78
1, 56151, Control_c, 0, 64, 77
1, 56166, Control_c, 0, 64, 77
1, 56211, Note_on_c, 0, 66, 49
1, 56211, Control_c, 0, 64, 76
1, 56225, Control_c, 0, 64, 76
1, 56270, Control_c, 0, 64, 75
1, 56284, Control_c, 0, 64, 75
1, 56293, Note_off_c, 0, 67, 36
1, 56299, Control_c, 0, 64, 74
1, 56314, Control_c, 0, 64, 74
1, 56329, Control_c, 0, 64, 73
1, 56338, Note_off_c, 0, 75, 61
1, 56419, Note_on_c, 0, 74, 71
1, 56423, Note_on_c, 0, 65, 58
1, 56433, Control_c, 0, 64, 72
1, 56448, Control_c, 0, 64, 67
1, 56463, Control_c, 0, 64, 62
1, 56472, Note_off_c, 0, 66, 52
1, 56478, Control_c, 0, 64, 55
1, 56492, Control_c, 0, 64, 50
1, 56507, Control_c, 0, 64, 49
1, 56522, Control_c, 0, 64, 50
1, 56537, Control_c, 0, 64, 54
1, 56552, Control_c, 0, 64, 59
1, 56567, Control_c, 0, 64, 63
1, 56577, Note_off_c, 0, 70, 58
1, 56582, Control_c, 0, 64, 66
1, 56597, Control_c, 0, 64, 70
1, 56611, Control_c, 0, 64, 76
1, 56616, Note_on_c, 0, 64, 63
1, 56626, Control_c, 0, 64, 85
1, 56641, Control_c, 0, 64, 92
1, 56655, Note_off_c, 0, 74, 56
1, 56655, Control_c, 0, 64, 94
1, 56656, Note_off_c, 0, 65, 55
1, 56685, Control_c, 0, 64, 93
1, 56700, Control_c, 0, 64, 92
1, 56715, Control_c, 0, 64, 91
1, 56737, Control_c, 0, 64, 91
1, 56752, Control_c, 0, 64, 90
1, 56767, Control_c, 0, 64, 89
1, 56782, Control_c, 0, 64, 87
1, 56797, Control_c, 0, 64, 85
1, 56801, Note_on_c, 0, 73, 78
1, 56811, Control_c, 0, 64, 81
1, 56822, Note_on_c, 0, 65, 46
1, 56823, Note_on_c, 0, 69, 59
1, 56826, Control_c, 0, 64, 73
1, 56841, Control_c, 0, 64, 66
1, 56854, Note_off_c, 0, 64, 61
1, 56856, Control_c, 0, 64, 59
1, 56871, Control_c, 0, 64, 52
1, 56886, Control_c, 0, 64, 51
1, 56916, Control_c, 0, 64, 52
1, 56931, Control_c, 0, 64, 54
1, 56946, Control_c, 0, 64, 57
1, 56960, Control_c, 0, 64, 61
1, 56975, Control_c, 0, 64, 64
1, 56990, Control_c, 0, 64, 67
1, 57001, Note_off_c, 0, 65, 57
1, 57005, Control_c, 0, 64, 72
1, 57008, Note_on_c, 0, 63, 59
1, 57020, Control_c, 0, 64, 80
1, 57035, Control_c, 0, 64, 89
1, 57049, Control_c, 0, 64, 98
1, 57056, Note_off_c, 0, 69, 34
1, 57064, Control_c, 0, 64, 101
1, 57084, Note_off_c, 0, 73, 57
1, 57094, Control_c, 0, 64, 100
1, 57108, Control_c, 0, 64, 98
1, 57123, Control_c, 0, 64, 97
1, 57138, Control_c, 0, 64, 95
1, 57153, Control_c, 0, 64, 92
1, 57167, Control_c, 0, 64, 91
1, 57182, Control_c, 0, 64, 88
1, 57197, Control_c, 0, 64, 86
1, 57210, Note_on_c, 0, 73, 69
1, 57212, Control_c, 0, 64, 84
1, 57222, Note_on_c, 0, 65, 56
1, 57227, Control_c, 0, 64, 82
1, 57231, Note_on_c, 0, 69, 48
1, 57241, Control_c, 0, 64, 80
1, 57256, Control_c, 0, 64, 77
1, 57271, Control_c, 0, 64, 70
1, 57285, Control_c, 0, 64, 63
1, 57300, Note_off_c, 0, 63, 35
1, 57300, Control_c, 0, 64, 54
1, 57315, Control_c, 0, 64, 46
1, 57330, Control_c, 0, 64, 45
1, 57360, Control_c, 0, 64, 46
1, 57375, Control_c, 0, 64, 52
1, 57390, Control_c, 0, 64, 58
1, 57405, Control_c, 0, 64, 63
1, 57420, Control_c, 0, 64, 67
1, 57423, Note_on_c, 0, 63, 51
1, 57434, Control_c, 0, 64, 72
1, 57445, Note_off_c, 0, 69, 36
1, 57449, Note_off_c, 0, 65, 52
1, 57449, Control_c, 0, 64, 81
1, 57464, Control_c, 0, 64, 95
1, 57485, Control_c, 0, 64, 102
1, 57492, Note_off_c, 0, 73, 59
1, 57500, Control_c, 0, 64, 101
1, 57515, Control_c, 0, 64, 97
1, 57530, Control_c, 0, 64, 92
1, 57545, Control_c, 0, 64, 89
1, 57560, Control_c, 0, 64, 86
1, 57575, Control_c, 0, 64, 84
1, 57589, Control_c, 0, 64, 81
1, 57604, Note_off_c, 0, 63, 62
1, 57604, Control_c, 0, 64, 79
1, 57618, Note_on_c, 0, 74, 65
1, 57619, Control_c, 0, 64, 77
1, 57632, Note_on_c, 0, 62, 51
1, 57635, Control_c, 0, 64, 75
1, 57642, Note_on_c, 0, 70, 49
1, 57650, Control_c, 0, 64, 73
1, 57664, Control_c, 0, 64, 72
1, 57679, Control_c, 0, 64, 72
1, 57694, Control_c, 0, 64, 71
1, 57709, Control_c, 0, 64, 70
1, 57724, Control_c, 0, 64, 69
1, 57738, Control_c, 0, 64, 67
1, 57753, Control_c, 0, 64, 65
1, 57768, Control_c, 0, 64, 64
1, 57783, Control_c, 0, 64, 64
1, 57791, Note_on_c, 0, 57, 48
1, 57798, Control_c, 0, 64, 63
1, 57810, Note_on_c, 0, 60, 48
1, 57810, Note_off_c, 0, 62, 56
1, 57813, Control_c, 0, 64, 62
1, 57815, Note_off_c, 0, 58, 34
1, 57819, Note_on_c, 0, 66, 58
1, 57828, Control_c, 0, 64, 62
1, 57843, Control_c, 0, 64, 61
1, 57858, Control_c, 0, 64, 60
1, 57872, Control_c, 0, 64, 60
1, 57887, Control_c, 0, 64, 59
1, 57902, Control_c, 0, 64, 59
1, 57916, Control_c, 0, 64, 58
1, 57931, Control_c, 0, 64, 57
1, 57946, Control_c, 0, 64, 57
1, 57961, Control_c, 0, 64, 56
1, 57976, Control_c, 0, 64, 56
1, 57990, Control_c, 0, 64, 55
1, 57994, Note_off_c, 0, 70, 32
1, 57998, Note_on_c, 0, 55, 48
1, 58002, Note_off_c, 0, 57, 58
1, 58002, Note_off_c, 0, 60, 62
1, 58005, Control_c, 0, 64, 53
1, 58017, Note_on_c, 0, 58, 50
1, 58017, Note_on_c, 0, 67, 60
1, 58020, Control_c, 0, 64, 50
1, 58035, Control_c, 0, 64, 46
1, 58050, Control_c, 0, 64, 43
1, 58064, Control_c, 0, 64, 41
1, 58069, Note_off_c, 0, 66, 54
1, 58079, Control_c, 0, 64, 41
1, 58123, Control_c, 0, 64, 41
1, 58138, Control_c, 0, 64, 43
1, 58153, Control_c, 0, 64, 47
1, 58168, Control_c, 0, 64, 51
1, 58183, Control_c, 0, 64, 56
1, 58189, Note_on_c, 0, 57, 61
1, 58192, Note_off_c, 0, 74, 54
1, 58194, Note_off_c, 0, 58, 51
1, 58198, Control_c, 0, 64, 60
1, 58212, Control_c, 0, 64, 63
1, 58235, Control_c, 0, 64, 66
1, 58250, Control_c, 0, 64, 69
1, 58264, Control_c, 0, 64, 73
1, 58279, Control_c, 0, 64, 76
1, 58294, Control_c, 0, 64, 77
1, 58308, Control_c, 0, 64, 76
1, 58323, Control_c, 0, 64, 75
1, 58338, Control_c, 0, 64, 73
1, 58353, Control_c, 0, 64, 72
1, 58368, Control_c, 0, 64, 70
1, 58379, Note_on_c, 0, 53, 54
1, 58382, Control_c, 0, 64, 69
1, 58386, Note_on_c, 0, 58, 56
1, 58386, Note_on_c, 0, 74, 68
1, 58395, Note_off_c, 0, 55, 55
1, 58397, Control_c, 0, 64, 67
1, 58412, Control_c, 0, 64, 66
1, 58415, Note_off_c, 0, 57, 57
1, 58427, Control_c, 0, 64, 65
1, 58430, Note_off_c, 0, 67, 53
1, 58443, Control_c, 0, 64, 63
1, 58458, Control_c, 0, 64, 61
1, 58473, Control_c, 0, 64, 60
1, 58487, Control_c, 0, 64, 59
1, 58502, Control_c, 0, 64, 58
1, 58517, Control_c, 0, 64, 57
1, 58531, Control_c, 0, 64, 55
1, 58546, Control_c, 0, 64, 54
1, 58561, Control_c, 0, 64, 53
1, 58564, Note_on_c, 0, 57, 58
1, 58573, Note_on_c, 0, 69, 60
1, 58576, Control_c, 0, 64, 52
1, 58591, Control_c, 0, 64, 51
1, 58605, Note_off_c, 0, 58, 64
1, 58606, Control_c, 0, 64, 50
1, 58621, Control_c, 0, 64, 50
1, 58636, Control_c, 0, 64, 49
1, 58651, Control_c, 0, 64, 48
1, 58666, Control_c, 0, 64, 47
1, 58680, Control_c, 0, 64, 46
1, 58695, Control_c, 0, 64, 45
1, 58710, Control_c, 0, 64, 44
1, 58725, Control_c, 0, 64, 43
1, 58739, Control_c, 0, 64, 42
1, 58754, Control_c, 0, 64, 41
1, 58766, Note_on_c, 0, 52, 44
1, 58767, Note_on_c, 0, 55, 49
1, 58768, Note_off_c, 0, 69, 55
1, 58769, Control_c, 0, 64, 40
1, 58771, Note_off_c, 0, 57, 57
1, 58773, Note_on_c, 0, 73, 57
1, 58784, Control_c, 0, 64, 39
1, 58788, Note_on_c, 0, 70, 42
1, 58799, Control_c, 0, 64, 37
1, 58806, Note_off_c, 0, 53, 65
1, 58813, Control_c, 0, 64, 36
1, 58817, Note_off_c, 0, 74, 57
1, 58828, Control_c, 0, 64, 36
1, 58843, Control_c, 0, 64, 35
1, 58858, Control_c, 0, 64, 34
1, 58873, Control_c, 0, 64, 34
1, 58887, Control_c, 0, 64, 33
1, 58902, Control_c, 0, 64, 32
1, 58917, Control_c, 0, 64, 31
1, 58931, Note_off_c, 0, 55, 51
1, 58931, Control_c, 0, 64, 31
1, 58946, Control_c, 0, 64, 29
1, 58961, Note_on_c, 0, 53, 48
1, 58961, Control_c, 0, 64, 28
1, 58984, Control_c, 0, 64, 27
1, 58999, Control_c, 0, 64, 27
1, 59013, Control_c, 0, 64, 26
1, 59028, Control_c, 0, 64, 25
1, 59043, Control_c, 0, 64, 24
1, 59058, Control_c, 0, 64, 24
1, 59073, Control_c, 0, 64, 23
1, 59087, Control_c, 0, 64, 22
1, 59102, Control_c, 0, 64, 21
1, 59110, Note_off_c, 0, 52, 37
1, 59132, Control_c, 0, 64, 19
1, 59140, Note_off_c, 0, 53, 58
1, 59146, Control_c, 0, 64, 18
1, 59154, Note_on_c, 0, 74, 56
1, 59161, Note_on_c, 0, 55, 35
1, 59161, Control_c, 0, 64, 16
1, 59163, Note_on_c, 0, 50, 38
1, 59167, Note_off_c, 0, 70, 56
1, 59176, Control_c, 0, 64, 15
1, 59191, Control_c, 0, 64, 14
1, 59205, Control_c, 0, 64, 12
1, 59207, Note_off_c, 0, 73, 36
1, 59220, Control_c, 0, 64, 11
1, 59281, Control_c, 0, 64, 9
1, 59296, Control_c, 0, 64, 0
1, 59310, Note_off_c, 0, 50, 56
1, 59339, Note_off_c, 0, 55, 55
1, 59345, Note_on_c, 0, 53, 50
1, 59349, Note_on_c, 0, 69, 53
1, 59528, Note_off_c, 0, 53, 54
1, 59554, Note_on_c, 0, 52, 26
1, 59555, Note_on_c, 0, 43, 33
1, 59563, Note_on_c, 0, 70, 42
1, 59570, Note_on_c, 0, 76, 59
1, 59576, Note_off_c, 0, 69, 44
1, 59613, Note_off_c, 0, 74, 57
1, 59678, Note_off_c, 0, 43, 59
1, 59683, Note_off_c, 0, 52, 61
1, 59688, Note_off_c, 0, 70, 65
1, 59696, Note_off_c, 0, 76, 65
1, 60019, Note_on_c, 0, 73, 44
1, 60021, Note_on_c, 0, 57, 30
1, 60022, Note_on_c, 0, 45, 30
1, 60028, Note_on_c, 0, 67, 28
1, 60037, Note_on_c, 0, 64, 33
1, 60055, Note_on_c, 0, 69, 13
1, 60144, Note_off_c, 0, 57, 58
1, 60161, Note_off_c, 0, 67, 58
1, 60168, Note_off_c, 0, 64, 55
1, 60182, Note_off_c, 0, 45, 37
1, 60187, Note_off_c, 0, 73, 63
1, 60208, Note_off_c, 0, 69, 43
1, 60517, Note_on_c, 0, 65, 37
1, 60523, Note_on_c, 0, 74, 43
1, 60526, Control_c, 0, 64, 14
1, 60527, Note_on_c, 0, 50, 22
1, 60541, Control_c, 0, 64, 24
1, 60541, Note_on_c, 0, 38, 27
1, 60549, Note_on_c, 0, 69, 27
1, 60555, Control_c, 0, 64, 34
1, 60570, Control_c, 0, 64, 44
1, 60585, Control_c, 0, 64, 52
1, 60600, Note_off_c, 0, 38, 61
1, 60600, Control_c, 0, 64, 58
1, 60615, Control_c, 0, 64, 63
1, 60630, Control_c, 0, 64, 68
1, 60645, Control_c, 0, 64, 76
1, 60656, Note_off_c, 0, 50, 56
1, 60659, Control_c, 0, 64, 86
1, 60674, Control_c, 0, 64, 93
1, 60675, Note_off_c, 0, 65, 63
1, 60677, Note_off_c, 0, 74, 62
1, 60689, Control_c, 0, 64, 93
1, 60704, Note_off_c, 0, 69, 42
1, 60704, Control_c, 0, 64, 92
1, 60718, Control_c, 0, 64, 90
1, 60733, Control_c, 0, 64, 88
1, 60748, Control_c, 0, 64, 86
1, 60763, Control_c, 0, 64, 85
1, 60778, Control_c, 0, 64, 83
1, 60792, Control_c, 0, 64, 80
1, 60794, Note_on_c, 0, 57, 46
1, 60807, Control_c, 0, 64, 79
1, 60822, Control_c, 0, 64, 77
1, 60837, Control_c, 0, 64, 76
1, 60852, Control_c, 0, 64, 74
1, 60867, Control_c, 0, 64, 72
1, 60881, Control_c, 0, 64, 71
1, 60896, Control_c, 0, 64, 70
1, 60911, Control_c, 0, 64, 69
1, 60925, Control_c, 0, 64, 68
1, 60940, Control_c, 0, 64, 66
1, 60955, Control_c, 0, 64, 65
1, 60970, Control_c, 0, 64, 64
1, 60985, Control_c, 0, 64, 63
1, 61000, Control_c, 0, 64, 62
1, 61006, Note_on_c, 0, 62, 48
1, 61014, Control_c, 0, 64, 62
1, 61029, Control_c, 0, 64, 61
1, 61044, Control_c, 0, 64, 60
1, 61059, Control_c, 0, 64, 59
1, 61074, Control_c, 0, 64, 58
1, 61086, Note_off_c, 0, 57, 61
1, 61089, Control_c, 0, 64, 57
1, 61104, Control_c, 0, 64, 56
1, 61119, Control_c, 0, 64, 55
1, 61133, Control_c, 0, 64, 54
1, 61148, Control_c, 0, 64, 52
1, 61163, Control_c, 0, 64, 51
1, 61178, Control_c, 0, 64, 50
1, 61193, Control_c, 0, 64, 49
1, 61207, Control_c, 0, 64, 47
1, 61208, Note_on_c, 0, 64, 59
1, 61229, Control_c, 0, 64, 46
1, 61244, Control_c, 0, 64, 45
1, 61259, Control_c, 0, 64, 44
1, 61274, Control_c, 0, 64, 43
1, 61289, Control_c, 0, 64, 42
1, 61300, Note_off_c, 0, 62, 59
1, 61304, Control_c, 0, 64, 42
1, 61319, Control_c, 0, 64, 41
1, 61333, Control_c, 0, 64, 41
1, 61348, Control_c, 0, 64, 40
1, 61378, Control_c, 0, 64, 40
1, 61452, Control_c, 0, 64, 39
1, 61473, Note_on_c, 0, 69, 59
1, 61474, Note_on_c, 0, 62, 32
1, 61477, Note_off_c, 0, 64, 53
1, 61479, Note_on_c, 0, 65, 41
1, 61511, Control_c, 0, 64, 39
1, 61585, Note_off_c, 0, 65, 56
1, 61608, Note_off_c, 0, 62, 52
1, 61611, Note_on_c, 0, 64, 38
1, 61620, Note_on_c, 0, 67, 51
1, 61659, Control_c, 0, 64, 38
1, 61700, Note_off_c, 0, 64, 61
1, 61718, Control_c, 0, 64, 38
1, 61726, Note_on_c, 0, 65, 52
1, 61730, Note_on_c, 0, 62, 44
1, 61775, Note_off_c, 0, 67, 37
1, 61787, Note_off_c, 0, 62, 60
1, 61807, Note_off_c, 0, 65, 60
1, 61812, Note_on_c, 0, 60, 54
1, 61824, Note_on_c, 0, 64, 57
1, 61852, Control_c, 0, 64, 37
1, 61893, Note_off_c, 0, 64, 58
1, 61900, Note_off_c, 0, 60, 61
1, 61915, Note_on_c, 0, 62, 53
1, 61922, Note_on_c, 0, 65, 57
1, 61941, Control_c, 0, 64, 37
1, 61977, Control_c, 0, 64, 36
1, 61992, Control_c, 0, 64, 36
1, 62006, Note_off_c, 0, 62, 60
1, 62008, Note_off_c, 0, 65, 59
1, 62016, Note_on_c, 0, 60, 45
1, 62016, Note_on_c, 0, 64, 59
1, 62037, Control_c, 0, 64, 35
1, 62052, Control_c, 0, 64, 34
1, 62067, Control_c, 0, 64, 33
1, 62082, Control_c, 0, 64, 32
1, 62097, Control_c, 0, 64, 31
1, 62097, Note_off_c, 0, 64, 59
1, 62111, Control_c, 0, 64, 31
1, 62121, Note_on_c, 0, 52, 43
1, 62126, Control_c, 0, 64, 30
1, 62129, Note_on_c, 0, 59, 39
1, 62129, Note_on_c, 0, 62, 49
1, 62141, Control_c, 0, 64, 30
1, 62155, Note_off_c, 0, 60, 45
1, 62200, Control_c, 0, 64, 31
1, 62215, Control_c, 0, 64, 36
1, 62221, Note_on_c, 0, 68, 58
1, 62229, Control_c, 0, 64, 43
1, 62244, Control_c, 0, 64, 50
1, 62259, Note_off_c, 0, 69, 47
1, 62259, Control_c, 0, 64, 55
1, 62274, Control_c, 0, 64, 58
1, 62289, Control_c, 0, 64, 61
1, 62303, Control_c, 0, 64, 64
1, 62318, Control_c, 0, 64, 67
1, 62320, Note_on_c, 0, 66, 67
1, 62323, Note_off_c, 0, 52, 64
1, 62333, Control_c, 0, 64, 73
1, 62347, Control_c, 0, 64, 81
1, 62351, Note_off_c, 0, 62, 40
1, 62359, Note_off_c, 0, 59, 61
1, 62362, Control_c, 0, 64, 92
1, 62375, Note_off_c, 0, 68, 51
1, 62377, Control_c, 0, 64, 104
1, 62392, Control_c, 0, 64, 108
1, 62414, Note_on_c, 0, 64, 71
1, 62421, Note_off_c, 0, 66, 61
1, 62422, Control_c, 0, 64, 107
1, 62438, Control_c, 0, 64, 104
1, 62452, Control_c, 0, 64, 102
1, 62467, Control_c, 0, 64, 100
1, 62482, Control_c, 0, 64, 98
1, 62497, Control_c, 0, 64, 96
1, 62509, Note_on_c, 0, 68, 80
1, 62512, Control_c, 0, 64, 94
1, 62526, Control_c, 0, 64, 91
1, 62541, Control_c, 0, 64, 89
1, 62556, Note_off_c, 0, 64, 57
1, 62556, Control_c, 0, 64, 86
1, 62571, Control_c, 0, 64, 85
1, 62585, Control_c, 0, 64, 83
1, 62600, Control_c, 0, 64, 82
1, 62604, Note_on_c, 0, 71, 80
1, 62607, Note_off_c, 0, 68, 66
1, 62615, Control_c, 0, 64, 80
1, 62630, Control_c, 0, 64, 79
1, 62645, Control_c, 0, 64, 78
1, 62660, Control_c, 0, 64, 76
1, 62675, Control_c, 0, 64, 74
1, 62690, Control_c, 0, 64, 72
1, 62705, Control_c, 0, 64, 69
1, 62726, Control_c, 0, 64, 67
1, 62734, Note_on_c, 0, 67, 45
1, 62734, Note_on_c, 0, 74, 80
1, 62740, Note_off_c, 0, 71, 63
1, 62741, Control_c, 0, 64, 65
1, 62756, Control_c, 0, 64, 63
1, 62771, Control_c, 0, 64, 62
1, 62785, Control_c, 0, 64, 60
1, 62800, Control_c, 0, 64, 59
1, 62815, Control_c, 0, 64, 58
1, 62830, Control_c, 0, 64, 58
1, 62845, Control_c, 0, 64, 56
1, 62848, Note_off_c, 0, 67, 60
1, 62860, Control_c, 0, 64, 54
1, 62860, Note_on_c, 0, 72, 59
1, 62874, Note_on_c, 0, 69, 45
1, 62875, Control_c, 0, 64, 52
1, 62889, Control_c, 0, 64, 51
1, 62904, Control_c, 0, 64, 50
1, 62919, Control_c, 0, 64, 49
1, 62934, Control_c, 0, 64, 47
1, 62949, Control_c, 0, 64, 46
1, 62953, Note_off_c, 0, 69, 62
1, 62955, Note_on_c, 0, 70, 53
1, 62964, Control_c, 0, 64, 45
1, 62972, Note_on_c, 0, 67, 56
1, 62978, Control_c, 0, 64, 44
1, 62993, Control_c, 0, 64, 43
1, 63008, Control_c, 0, 64, 41
1, 63023, Note_off_c, 0, 72, 45
1, 63023, Control_c, 0, 64, 40
1, 63037, Note_off_c, 0, 70, 60
1, 63038, Control_c, 0, 64, 39
1, 63047, Note_off_c, 0, 67, 61
1, 63049, Note_on_c, 0, 69, 54
1, 63052, Control_c, 0, 64, 37
1, 63067, Control_c, 0, 64, 36
1, 63068, Note_on_c, 0, 65, 59
1, 63082, Control_c, 0, 64, 35
1, 63096, Control_c, 0, 64, 34
1, 63111, Control_c, 0, 64, 33
1, 63126, Control_c, 0, 64, 32
1, 63132, Note_off_c, 0, 69, 62
1, 63141, Control_c, 0, 64, 31
1, 63149, Note_on_c, 0, 70, 70
1, 63156, Control_c, 0, 64, 29
1, 63164, Note_on_c, 0, 67, 70
1, 63170, Control_c, 0, 64, 28
1, 63171, Note_off_c, 0, 65, 62
1, 63185, Control_c, 0, 64, 26
1, 63200, Control_c, 0, 64, 25
1, 63215, Control_c, 0, 64, 23
1, 63231, Control_c, 0, 64, 21
1, 63244, Note_on_c, 0, 69, 76
1, 63246, Control_c, 0, 64, 17
1, 63253, Note_on_c, 0, 65, 57
1, 63257, Note_off_c, 0, 67, 58
1, 63259, Note_off_c, 0, 70, 58
1, 63261, Control_c, 0, 64, 12
1, 63275, Control_c, 0, 64, 0
1, 63340, Note_off_c, 0, 69, 59
1, 63354, Note_on_c, 0, 67, 64
1, 63387, Note_on_c, 0, 57, 37
1, 63396, Note_on_c, 0, 64, 40
1, 63411, Note_off_c, 0, 65, 58
1, 63460, Note_on_c, 0, 73, 68
1, 63490, Control_c, 0, 64, 17
1, 63505, Control_c, 0, 64, 38
1, 63507, Note_off_c, 0, 74, 57
1, 63520, Control_c, 0, 64, 51
1, 63534, Control_c, 0, 64, 57
1, 63549, Control_c, 0, 64, 61
1, 63564, Control_c, 0, 64, 64
1, 63569, Note_on_c, 0, 71, 76
1, 63579, Control_c, 0, 64, 69
1, 63594, Control_c, 0, 64, 77
1, 63608, Control_c, 0, 64, 93
1, 63623, Control_c, 0, 64, 115
1, 63626, Note_off_c, 0, 73, 58
1, 63629, Note_off_c, 0, 57, 42
1, 63638, Control_c, 0, 64, 127
1, 63660, Note_on_c, 0, 69, 84
1, 63673, Note_off_c, 0, 64, 53
1, 63673, Note_off_c, 0, 71, 60
1, 63718, Note_off_c, 0, 67, 52
1, 63727, Control_c, 0, 64, 125
1, 63742, Control_c, 0, 64, 115
1, 63757, Control_c, 0, 64, 110
1, 63758, Note_on_c, 0, 73, 84
1, 63772, Control_c, 0, 64, 106
1, 63787, Control_c, 0, 64, 102
1, 63801, Control_c, 0, 64, 98
1, 63816, Control_c, 0, 64, 94
1, 63831, Control_c, 0, 64, 90
1, 63832, Note_off_c, 0, 69, 57
1, 63846, Control_c, 0, 64, 87
1, 63856, Note_on_c, 0, 76, 86
1, 63861, Control_c, 0, 64, 84
1, 63876, Control_c, 0, 64, 81
1, 63891, Control_c, 0, 64, 76
1, 63896, Note_off_c, 0, 73, 65
1, 63906, Control_c, 0, 64, 72
1, 63920, Control_c, 0, 64, 69
1, 63935, Control_c, 0, 64, 66
1, 63950, Control_c, 0, 64, 64
1, 63965, Control_c, 0, 64, 62
1, 63980, Note_on_c, 0, 81, 85
1, 63980, Control_c, 0, 64, 61
1, 63994, Control_c, 0, 64, 60
1, 64009, Control_c, 0, 64, 59
1, 64022, Note_off_c, 0, 76, 61
1, 64025, Control_c, 0, 64, 58
1, 64040, Control_c, 0, 64, 57
1, 64055, Control_c, 0, 64, 56
1, 64070, Control_c, 0, 64, 55
1, 64085, Control_c, 0, 64, 53
1, 64096, Note_on_c, 0, 69, 64
1, 64099, Control_c, 0, 64, 51
1, 64114, Control_c, 0, 64, 50
1, 64129, Control_c, 0, 64, 49
1, 64143, Control_c, 0, 64, 49
1, 64158, Control_c, 0, 64, 48
1, 64173, Control_c, 0, 64, 47
1, 64188, Control_c, 0, 64, 45
1, 64189, Note_on_c, 0, 68, 76
1, 64197, Note_off_c, 0, 69, 63
1, 64203, Control_c, 0, 64, 45
1, 64225, Control_c, 0, 64, 44
1, 64240, Control_c, 0, 64, 43
1, 64255, Control_c, 0, 64, 42
1, 64270, Control_c, 0, 64, 41
1, 64285, Control_c, 0, 64, 40
1, 64299, Control_c, 0, 64, 40
1, 64308, Note_on_c, 0, 69, 74
1, 64310, Note_on_c, 0, 79, 82
1, 64314, Control_c, 0, 64, 39
1, 64329, Control_c, 0, 64, 38
1, 64344, Control_c, 0, 64, 37
1, 64355, Note_off_c, 0, 81, 60
1, 64358, Control_c, 0, 64, 36
1, 64373, Control_c, 0, 64, 36
1, 64388, Control_c, 0, 64, 35
1, 64393, Note_off_c, 0, 68, 57
1, 64403, Control_c, 0, 64, 33
1, 64418, Control_c, 0, 64, 32
1, 64432, Control_c, 0, 64, 32
1, 64434, Note_on_c, 0, 71, 70
1, 64447, Control_c, 0, 64, 31
1, 64462, Control_c, 0, 64, 30
1, 64477, Control_c, 0, 64, 30
1, 64519, Note_on_c, 0, 73, 64
1, 64561, Note_off_c, 0, 71, 57
1, 64580, Control_c, 0, 64, 32
1, 64595, Control_c, 0, 64, 37
1, 64606, Note_on_c, 0, 62, 46
1, 64610, Control_c, 0, 64, 45
1, 64618, Note_on_c, 0, 77, 76
1, 64620, Note_off_c, 0, 73, 60
1, 64624, Control_c, 0, 64, 53
1, 64626, Note_on_c, 0, 74, 51
1, 64639, Control_c, 0, 64, 60
1, 64654, Control_c, 0, 64, 63
1, 64655, Note_off_c, 0, 79, 64
1, 64669, Note_off_c, 0, 74, 53
1, 64669, Control_c, 0, 64, 68
1, 64684, Control_c, 0, 64, 75
1, 64699, Control_c, 0, 64, 88
1, 64714, Control_c, 0, 64, 104
1, 64729, Control_c, 0, 64, 125
1, 64748, Note_on_c, 0, 76, 64
1, 64758, Control_c, 0, 64, 120
1, 64773, Control_c, 0, 64, 117
1, 64800, Note_off_c, 0, 69, 33
1, 64803, Control_c, 0, 64, 116
1, 64818, Note_off_c, 0, 76, 59
1, 64833, Control_c, 0, 64, 115
1, 64834, Note_on_c, 0, 74, 57
1, 64848, Control_c, 0, 64, 115
1, 64878, Control_c, 0, 64, 114
1, 64893, Control_c, 0, 64, 112
1, 64908, Control_c, 0, 64, 106
1, 64922, Control_c, 0, 64, 93
1, 64928, Note_on_c, 0, 73, 62
1, 64928, Note_on_c, 0, 76, 79
1, 64930, Note_off_c, 0, 74, 0
1, 64937, Control_c, 0, 64, 76
1, 64938, Note_on_c, 0, 67, 62
1, 64952, Note_on_c, 0, 57, 50
1, 64952, Control_c, 0, 64, 63
1, 64973, Control_c, 0, 64, 47
1, 64974, Poly_aftertouch_c, 0, 74, 127
1, 64981, Note_off_c, 0, 62, 59
1, 64984, Note_off_c, 0, 77, 56
1, 64988, Control_c, 0, 64, 40
1, 64999, Note_off_c, 0, 73, 58
1, 65003, Control_c, 0, 64, 44
1, 65007, Poly_aftertouch_c, 0, 74, 0
1, 65018, Control_c, 0, 64, 51
1, 65033, Control_c, 0, 64, 57
1, 65048, Control_c, 0, 64, 61
1, 65052, Note_on_c, 0, 71, 62
1, 65063, Control_c, 0, 64, 64
1, 65077, Control_c, 0, 64, 67
1, 65092, Control_c, 0, 64, 72
1, 65107, Control_c, 0, 64, 82
1, 65122, Note_on_c, 0, 73, 65
1, 65122, Control_c, 0, 64, 95
1, 65137, Control_c, 0, 64, 122
1, 65152, Control_c, 0, 64, 127
1, 65176, Note_off_c, 0, 71, 39
1, 65188, Note_off_c, 0, 57, 59
1, 65205, Note_off_c, 0, 73, 62
1, 65212, Note_off_c, 0, 76, 61
1, 65252, Note_on_c, 0, 74, 82
1, 65255, Control_c, 0, 64, 94
1, 65256, Note_on_c, 0, 58, 55
1, 65259, Note_on_c, 0, 65, 67
1, 65270, Control_c, 0, 64, 73
1, 65285, Control_c, 0, 64, 58
1, 65292, Note_off_c, 0, 67, 54
1, 65300, Control_c, 0, 64, 43
1, 65315, Control_c, 0, 64, 43
1, 65328, Control_c, 0, 64, 49
1, 65343, Control_c, 0, 64, 55
1, 65358, Control_c, 0, 64, 61
1, 65365, Note_on_c, 0, 70, 71
1, 65373, Control_c, 0, 64, 64
1, 65387, Control_c, 0, 64, 70
1, 65402, Control_c, 0, 64, 81
1, 65417, Control_c, 0, 64, 105
1, 65419, Note_off_c, 0, 74, 61
1, 65432, Control_c, 0, 64, 127
1, 65443, Note_on_c, 0, 69, 64
1, 65465, Note_off_c, 0, 70, 56
1, 65469, Note_off_c, 0, 65, 50
1, 65561, Note_off_c, 0, 58, 32
1, 65566, Control_c, 0, 64, 89
1, 65570, Note_off_c, 0, 69, 43
1, 65572, Note_on_c, 0, 76, 69
1, 65573, Note_on_c, 0, 55, 50
1, 65578, Note_on_c, 0, 70, 65
1, 65580, Control_c, 0, 64, 69
1, 65595, Control_c, 0, 64, 54
1, 65599, Note_on_c, 0, 64, 53
1, 65610, Control_c, 0, 64, 39
1, 65626, Control_c, 0, 64, 41
1, 65641, Control_c, 0, 64, 48
1, 65656, Control_c, 0, 64, 57
1, 65670, Control_c, 0, 64, 62
1, 65685, Control_c, 0, 64, 65
1, 65699, Note_on_c, 0, 67, 57
1, 65700, Control_c, 0, 64, 69
1, 65704, Note_off_c, 0, 70, 53
1, 65722, Control_c, 0, 64, 76
1, 65723, Note_off_c, 0, 76, 61
1, 65737, Control_c, 0, 64, 87
1, 65751, Note_off_c, 0, 64, 62
1, 65751, Control_c, 0, 64, 102
1, 65766, Control_c, 0, 64, 104
1, 65781, Control_c, 0, 64, 99
1, 65789, Note_off_c, 0, 67, 60
1, 65796, Control_c, 0, 64, 93
1, 65797, Note_on_c, 0, 62, 48
1, 65802, Note_on_c, 0, 65, 59
1, 65811, Control_c, 0, 64, 87
1, 65826, Control_c, 0, 64, 83
1, 65841, Control_c, 0, 64, 79
1, 65855, Control_c, 0, 64, 76
1, 65870, Control_c, 0, 64, 73
1, 65885, Control_c, 0, 64, 70
1, 65900, Control_c, 0, 64, 67
1, 65915, Control_c, 0, 64, 65
1, 65917, Note_off_c, 0, 65, 59
1, 65918, Note_on_c, 0, 57, 36
1, 65930, Control_c, 0, 64, 64
1, 65932, Note_off_c, 0, 62, 38
1, 65934, Note_on_c, 0, 61, 47
1, 65942, Note_on_c, 0, 69, 60
1, 65944, Control_c, 0, 64, 63
1, 65953, Note_off_c, 0, 55, 28
1, 65954, Note_on_c, 0, 64, 35
1, 65959, Control_c, 0, 64, 62
1, 65974, Control_c, 0, 64, 61
1, 65989, Control_c, 0, 64, 60
1, 66003, Note_off_c, 0, 64, 55
1, 66003, Control_c, 0, 64, 58
1, 66018, Control_c, 0, 64, 57
1, 66033, Control_c, 0, 64, 56
1, 66053, Note_on_c, 0, 67, 51
1, 66063, Control_c, 0, 64, 55
1, 66077, Control_c, 0, 64, 54
1, 66092, Control_c, 0, 64, 53
1, 66107, Control_c, 0, 64, 52
1, 66122, Control_c, 0, 64, 52
1, 66137, Control_c, 0, 64, 51
1, 66151, Control_c, 0, 64, 50
1, 66163, Note_on_c, 0, 65, 48
1, 66166, Control_c, 0, 64, 50
1, 66181, Control_c, 0, 64, 49
1, 66195, Control_c, 0, 64, 49
1, 66210, Control_c, 0, 64, 48
1, 66225, Control_c, 0, 64, 47
1, 66239, Note_off_c, 0, 67, 30
1, 66240, Control_c, 0, 64, 46
1, 66255, Note_on_c, 0, 64, 58
1, 66255, Control_c, 0, 64, 46
1, 66261, Note_off_c, 0, 65, 55
1, 66270, Control_c, 0, 64, 45
1, 66285, Control_c, 0, 64, 44
1, 66295, Note_off_c, 0, 61, 51
1, 66337, Note_off_c, 0, 69, 37
1, 66341, Note_on_c, 0, 59, 43
1, 66344, Control_c, 0, 64, 44
1, 66345, Note_off_c, 0, 64, 62
1, 66356, Note_on_c, 0, 62, 61
1, 66358, Note_off_c, 0, 57, 34
1, 66359, Control_c, 0, 64, 43
1, 66389, Control_c, 0, 64, 43
1, 66419, Control_c, 0, 64, 42
1, 66434, Control_c, 0, 64, 42
1, 66446, Note_on_c, 0, 61, 40
1, 66449, Note_on_c, 0, 64, 69
1, 66449, Control_c, 0, 64, 41
1, 66450, Note_off_c, 0, 62, 59
1, 66500, Control_c, 0, 64, 41
1, 66505, Note_off_c, 0, 59, 36
1, 66515, Control_c, 0, 64, 40
1, 66537, Note_off_c, 0, 61, 59
1, 66545, Control_c, 0, 64, 40
1, 66560, Control_c, 0, 64, 39
1, 66589, Control_c, 0, 64, 39
1, 66600, Note_on_c, 0, 69, 75
1, 66601, Note_on_c, 0, 65, 61
1, 66612, Note_off_c, 0, 64, 55
1, 66618, Note_on_c, 0, 62, 36
1, 66619, Control_c, 0, 64, 38
1, 66633, Control_c, 0, 64, 38
1, 66648, Control_c, 0, 64, 37
1, 66663, Control_c, 0, 64, 37
1, 66669, Note_off_c, 0, 65, 62
1, 66708, Control_c, 0, 64, 36
1, 66724, Note_off_c, 0, 62, 61
1, 66732, Note_on_c, 0, 64, 57
1, 66733, Note_on_c, 0, 67, 63
1, 66752, Control_c, 0, 64, 36
1, 66767, Control_c, 0, 64, 35
1, 66782, Control_c, 0, 64, 34
1, 66797, Control_c, 0, 64, 34
1, 66815, Note_off_c, 0, 64, 61
1, 66826, Control_c, 0, 64, 33
1, 66828, Note_on_c, 0, 62, 62
1, 66834, Note_on_c, 0, 65, 70
1, 66841, Control_c, 0, 64, 33
1, 66856, Control_c, 0, 64, 32
1, 66871, Control_c, 0, 64, 32
1, 66886, Control_c, 0, 64, 31
1, 66896, Note_off_c, 0, 67, 54
1, 66900, Control_c, 0, 64, 31
1, 66907, Note_off_c, 0, 62, 63
1, 66914, Note_on_c, 0, 60, 69
1, 66915, Control_c, 0, 64, 30
1, 66924, Note_on_c, 0, 64, 71
1, 66926, Note_off_c, 0, 65, 60
1, 66930, Control_c, 0, 64, 29
1, 66944, Control_c, 0, 64, 28
1, 66959, Control_c, 0, 64, 27
1, 66974, Control_c, 0, 64, 26
1, 66989, Control_c, 0, 64, 25
1, 67004, Control_c, 0, 64, 25
1, 67006, Note_off_c, 0, 64, 62
1, 67009, Note_off_c, 0, 60, 62
1, 67018, Note_on_c, 0, 62, 64
1, 67018, Control_c, 0, 64, 24
1, 67019, Note_on_c, 0, 65, 69
1, 67033, Control_c, 0, 64, 24
1, 67048, Control_c, 0, 64, 23
1, 67063, Control_c, 0, 64, 23
1, 67078, Control_c, 0, 64, 22
1, 67093, Control_c, 0, 64, 21
1, 67107, Control_c, 0, 64, 19
1, 67112, Note_off_c, 0, 62, 61
1, 67114, Note_on_c, 0, 64, 71
1, 67116, Note_on_c, 0, 60, 60
1, 67122, Control_c, 0, 64, 19
1, 67128, Note_off_c, 0, 65, 57
1, 67137, Control_c, 0, 64, 17
1, 67152, Control_c, 0, 64, 16
1, 67182, Control_c, 0, 64, 15
1, 67197, Control_c, 0, 64, 14
1, 67204, Note_off_c, 0, 64, 63
1, 67212, Control_c, 0, 64, 13
1, 67224, Note_on_c, 0, 59, 50
1, 67232, Note_on_c, 0, 52, 47
1, 67232, Note_on_c, 0, 62, 68
1, 67235, Control_c, 0, 64, 12
1, 67245, Note_off_c, 0, 60, 53
1, 67264, Control_c, 0, 64, 11
1, 67338, Note_off_c, 0, 69, 64
1, 67339, Note_on_c, 0, 68, 71
1, 67397, Control_c, 0, 64, 14
1, 67412, Control_c, 0, 64, 22
1, 67427, Note_off_c, 0, 68, 62
1, 67427, Control_c, 0, 64, 31
1, 67429, Note_on_c, 0, 66, 67
1, 67441, Control_c, 0, 64, 41
1, 67446, Note_off_c, 0, 62, 53
1, 67456, Control_c, 0, 64, 49
1, 67471, Control_c, 0, 64, 54
1, 67486, Control_c, 0, 64, 57
1, 67501, Control_c, 0, 64, 61
1, 67516, Control_c, 0, 64, 65
1, 67531, Control_c, 0, 64, 70
1, 67536, Note_on_c, 0, 68, 69
1, 67546, Control_c, 0, 64, 78
1, 67561, Control_c, 0, 64, 90
1, 67567, Note_off_c, 0, 59, 37
1, 67569, Note_off_c, 0, 66, 59
1, 67575, Control_c, 0, 64, 101
1, 67590, Control_c, 0, 64, 104
1, 67605, Control_c, 0, 64, 104
1, 67620, Note_off_c, 0, 68, 61
1, 67620, Control_c, 0, 64, 102
1, 67635, Control_c, 0, 64, 101
1, 67643, Note_on_c, 0, 76, 74
1, 67650, Control_c, 0, 64, 100
1, 67665, Control_c, 0, 64, 99
1, 67680, Control_c, 0, 64, 98
1, 67689, Note_off_c, 0, 76, 61
1, 67695, Control_c, 0, 64, 96
1, 67710, Control_c, 0, 64, 93
1, 67724, Note_off_c, 0, 52, 34
1, 67724, Control_c, 0, 64, 91
1, 67739, Control_c, 0, 64, 90
1, 67746, Note_on_c, 0, 64, 65
1, 67754, Control_c, 0, 64, 89
1, 67768, Control_c, 0, 64, 87
1, 67783, Control_c, 0, 64, 85
1, 67798, Control_c, 0, 64, 82
1, 67813, Control_c, 0, 64, 80
1, 67828, Control_c, 0, 64, 79
1, 67842, Control_c, 0, 64, 77
1, 67857, Note_off_c, 0, 64, 47
1, 67857, Control_c, 0, 64, 75
1, 67872, Control_c, 0, 64, 73
1, 67887, Control_c, 0, 64, 72
1, 67902, Control_c, 0, 64, 70
1, 67916, Control_c, 0, 64, 68
1, 67919, Note_on_c, 0, 60, 39
1, 67931, Control_c, 0, 64, 66
1, 67939, Note_on_c, 0, 63, 28
1, 67943, Note_on_c, 0, 67, 48
1, 67946, Control_c, 0, 64, 64
1, 67968, Control_c, 0, 64, 64
1, 67983, Control_c, 0, 64, 63
1, 67989, Note_off_c, 0, 63, 48
1, 67998, Control_c, 0, 64, 61
1, 68013, Control_c, 0, 64, 60
1, 68029, Control_c, 0, 64, 59
1, 68043, Control_c, 0, 64, 58
1, 68044, Note_off_c, 0, 60, 51
1, 68058, Control_c, 0, 64, 57
1, 68059, Note_on_c, 0, 62, 46
1, 68071, Note_on_c, 0, 65, 43
1, 68073, Control_c, 0, 64, 56
1, 68088, Control_c, 0, 64, 55
1, 68103, Control_c, 0, 64, 55
1, 68118, Control_c, 0, 64, 54
1, 68133, Control_c, 0, 64, 53
1, 68147, Control_c, 0, 64, 52
1, 68152, Note_off_c, 0, 62, 61
1, 68157, Note_on_c, 0, 63, 48
1, 68162, Control_c, 0, 64, 51
1, 68177, Control_c, 0, 64, 50
1, 68178, Note_on_c, 0, 60, 48
1, 68192, Control_c, 0, 64, 48
1, 68206, Control_c, 0, 64, 47
1, 68221, Control_c, 0, 64, 46
1, 68226, Note_off_c, 0, 65, 34
1, 68236, Control_c, 0, 64, 45
1, 68243, Note_off_c, 0, 60, 54
1, 68245, Note_off_c, 0, 63, 58
1, 68251, Control_c, 0, 64, 44
1, 68264, Note_on_c, 0, 62, 44
1, 68265, Control_c, 0, 64, 42
1, 68270, Note_on_c, 0, 58, 46
1, 68280, Control_c, 0, 64, 41
1, 68295, Control_c, 0, 64, 40
1, 68310, Control_c, 0, 64, 39
1, 68325, Control_c, 0, 64, 38
1, 68331, Note_off_c, 0, 62, 59
1, 68333, Note_off_c, 0, 58, 60
1, 68339, Control_c, 0, 64, 37
1, 68348, Note_on_c, 0, 60, 45
1, 68354, Control_c, 0, 64, 36
1, 68357, Note_on_c, 0, 63, 52
1, 68369, Control_c, 0, 64, 36
1, 68384, Control_c, 0, 64, 35
1, 68398, Control_c, 0, 64, 34
1, 68413, Control_c, 0, 64, 33
1, 68428, Control_c, 0, 64, 33
1, 68443, Note_off_c, 0, 60, 61
1, 68443, Control_c, 0, 64, 32
1, 68455, Note_off_c, 0, 63, 55
1, 68458, Control_c, 0, 64, 31
1, 68464, Note_on_c, 0, 62, 46
1, 68470, Note_on_c, 0, 58, 43
1, 68473, Control_c, 0, 64, 30
1, 68488, Control_c, 0, 64, 30
1, 68517, Control_c, 0, 64, 29
1, 68532, Control_c, 0, 64, 28
1, 68544, Note_off_c, 0, 62, 58
1, 68571, Note_on_c, 0, 50, 33
1, 68589, Note_on_c, 0, 60, 41
1, 68596, Note_on_c, 0, 57, 33
1, 68624, Note_off_c, 0, 58, 36
1, 68636, Control_c, 0, 64, 29
1, 68651, Control_c, 0, 64, 32
1, 68665, Control_c, 0, 64, 36
1, 68680, Control_c, 0, 64, 41
1, 68688, Note_on_c, 0, 66, 45
1, 68695, Control_c, 0, 64, 46
1, 68717, Control_c, 0, 64, 50
1, 68732, Control_c, 0, 64, 54
1, 68737, Note_off_c, 0, 67, 37
1, 68747, Control_c, 0, 64, 57
1, 68762, Control_c, 0, 64, 59
1, 68777, Note_off_c, 0, 66, 54
1, 68777, Control_c, 0, 64, 61
1, 68792, Control_c, 0, 64, 63
1, 68798, Note_on_c, 0, 64, 47
1, 68806, Control_c, 0, 64, 66
1, 68821, Control_c, 0, 64, 69
1, 68836, Control_c, 0, 64, 74
1, 68851, Control_c, 0, 64, 80
1, 68866, Control_c, 0, 64, 86
1, 68881, Control_c, 0, 64, 89
1, 68896, Control_c, 0, 64, 90
1, 68912, Note_off_c, 0, 60, 27
1, 68914, Note_on_c, 0, 66, 56
1, 68921, Note_off_c, 0, 50, 38
1, 68965, Note_off_c, 0, 57, 37
1, 68970, Control_c, 0, 64, 89
1, 68985, Control_c, 0, 64, 89
1, 68997, Note_off_c, 0, 64, 55
1, 68999, Note_on_c, 0, 69, 62
1, 69000, Control_c, 0, 64, 88
1, 69015, Control_c, 0, 64, 87
1, 69025, Note_off_c, 0, 66, 58
1, 69029, Control_c, 0, 64, 87
1, 69044, Control_c, 0, 64, 86
1, 69059, Control_c, 0, 64, 85
1, 69074, Control_c, 0, 64, 84
1, 69089, Control_c, 0, 64, 82
1, 69102, Note_off_c, 0, 69, 63
1, 69103, Control_c, 0, 64, 80
1, 69110, Note_on_c, 0, 72, 65
1, 69118, Control_c, 0, 64, 78
1, 69133, Control_c, 0, 64, 76
1, 69148, Control_c, 0, 64, 74
1, 69163, Control_c, 0, 64, 71
1, 69177, Control_c, 0, 64, 68
1, 69192, Control_c, 0, 64, 66
1, 69207, Control_c, 0, 64, 65
1, 69221, Control_c, 0, 64, 64
1, 69234, Note_on_c, 0, 70, 64
1, 69236, Control_c, 0, 64, 62
1, 69251, Control_c, 0, 64, 61
1, 69253, Note_off_c, 0, 72, 47
1, 69266, Control_c, 0, 64, 61
1, 69295, Control_c, 0, 64, 60
1, 69310, Control_c, 0, 64, 60
1, 69325, Control_c, 0, 64, 59
1, 69337, Note_on_c, 0, 69, 54
1, 69340, Control_c, 0, 64, 59
1, 69355, Control_c, 0, 64, 58
1, 69370, Control_c, 0, 64, 58
1, 69385, Control_c, 0, 64, 57
1, 69400, Control_c, 0, 64, 56
1, 69414, Control_c, 0, 64, 56
1, 69420, Note_off_c, 0, 69, 60
1, 69429, Control_c, 0, 64, 54
1, 69430, Note_on_c, 0, 67, 50
1, 69444, Control_c, 0, 64, 53
1, 69466, Control_c, 0, 64, 51
1, 69481, Control_c, 0, 64, 50
1, 69495, Control_c, 0, 64, 48
1, 69510, Control_c, 0, 64, 48
1, 69531, Note_off_c, 0, 67, 57
1, 69540, Control_c, 0, 64, 49
1, 69544, Note_on_c, 0, 69, 71
1, 69549, Note_on_c, 0, 45, 45
1, 69549, Note_on_c, 0, 60, 37
1, 69555, Control_c, 0, 64, 53
1, 69570, Control_c, 0, 64, 59
1, 69585, Control_c, 0, 64, 62
1, 69599, Control_c, 0, 64, 65
1, 69600, Note_off_c, 0, 70, 56
1, 69615, Control_c, 0, 64, 70
1, 69630, Control_c, 0, 64, 78
1, 69644, Poly_aftertouch_c, 0, 66, 0
1, 69644, Control_c, 0, 64, 93
1, 69645, Note_off_c, 0, 45, 61
1, 69659, Control_c, 0, 64, 127
1, 69665, Note_on_c, 0, 64, 59
1, 69671, Note_off_c, 0, 60, 65
1, 69739, Note_off_c, 0, 69, 62
1, 69743, Note_on_c, 0, 66, 70
1, 69793, Note_off_c, 0, 64, 61
1, 69810, Note_off_c, 0, 66, 61
1, 69851, Control_c, 0, 64, 91
1, 69864, Note_on_c, 0, 46, 66
1, 69866, Control_c, 0, 64, 71
1, 69870, Note_on_c, 0, 67, 77
1, 69877, Note_on_c, 0, 58, 31
1, 69881, Control_c, 0, 64, 58
1, 69896, Control_c, 0, 64, 46
1, 69911, Control_c, 0, 64, 49
1, 69925, Control_c, 0, 64, 55
1, 69927, Note_off_c, 0, 58, 60
1, 69940, Control_c, 0, 64, 61
1, 69955, Control_c, 0, 64, 64
1, 69970, Control_c, 0, 64, 68
1, 69985, Control_c, 0, 64, 75
1, 69990, Note_on_c, 0, 60, 69
1, 69999, Control_c, 0, 64, 86
1, 70014, Control_c, 0, 64, 111
1, 70029, Control_c, 0, 64, 127
1, 70062, Note_on_c, 0, 61, 74
1, 70091, Note_off_c, 0, 60, 60
1, 70144, Note_off_c, 0, 46, 54
1, 70177, Control_c, 0, 64, 110
1, 70184, Note_on_c, 0, 65, 79
1, 70189, Note_on_c, 0, 47, 69
1, 70192, Control_c, 0, 64, 80
1, 70202, Note_on_c, 0, 62, 47
1, 70207, Note_off_c, 0, 61, 52
1, 70207, Control_c, 0, 64, 62
1, 70223, Note_off_c, 0, 67, 62
1, 70229, Control_c, 0, 64, 42
1, 70243, Control_c, 0, 64, 38
1, 70258, Note_off_c, 0, 62, 56
1, 70258, Control_c, 0, 64, 42
1, 70273, Control_c, 0, 64, 48
1, 70288, Control_c, 0, 64, 56
1, 70303, Control_c, 0, 64, 62
1, 70311, Note_on_c, 0, 59, 54
1, 70318, Control_c, 0, 64, 66
1, 70333, Control_c, 0, 64, 72
1, 70348, Control_c, 0, 64, 83
1, 70363, Control_c, 0, 64, 108
1, 70377, Control_c, 0, 64, 127
1, 70388, Note_off_c, 0, 59, 60
1, 70394, Note_off_c, 0, 47, 57
1, 70397, Note_on_c, 0, 56, 57
1, 70437, Control_c, 0, 64, 115
1, 70452, Note_off_c, 0, 56, 51
1, 70452, Control_c, 0, 64, 100
1, 70467, Control_c, 0, 64, 91
1, 70482, Control_c, 0, 64, 86
1, 70497, Control_c, 0, 64, 83
1, 70512, Control_c, 0, 64, 80
1, 70527, Control_c, 0, 64, 77
1, 70535, Note_on_c, 0, 55, 49
1, 70537, Note_on_c, 0, 48, 53
1, 70541, Control_c, 0, 64, 72
1, 70556, Control_c, 0, 64, 69
1, 70571, Control_c, 0, 64, 67
1, 70585, Control_c, 0, 64, 66
1, 70600, Control_c, 0, 64, 64
1, 70615, Control_c, 0, 64, 61
1, 70630, Control_c, 0, 64, 57
1, 70634, Note_on_c, 0, 57, 57
1, 70645, Control_c, 0, 64, 54
1, 70659, Control_c, 0, 64, 51
1, 70660, Note_off_c, 0, 55, 59
1, 70674, Control_c, 0, 64, 47
1, 70689, Control_c, 0, 64, 38
1, 70704, Control_c, 0, 64, 28
1, 70719, Control_c, 0, 64, 18
1, 70734, Control_c, 0, 64, 12
1, 70741, Note_on_c, 0, 58, 53
1, 70748, Control_c, 0, 64, 0
1, 70771, Note_off_c, 0, 57, 50
1, 70854, Note_off_c, 0, 58, 58
1, 70860, Note_off_c, 0, 65, 55
1, 70866, Control_c, 0, 64, 34
1, 70869, Note_on_c, 0, 62, 39
1, 70873, Note_on_c, 0, 55, 42
1, 70873, Note_on_c, 0, 64, 58
1, 70881, Control_c, 0, 64, 52
1, 70896, Control_c, 0, 64, 60
1, 70911, Control_c, 0, 64, 64
1, 70926, Control_c, 0, 64, 68
1, 70930, Note_off_c, 0, 62, 57
1, 70941, Control_c, 0, 64, 75
1, 70956, Control_c, 0, 64, 87
1, 70976, Note_off_c, 0, 55, 64
1, 70978, Control_c, 0, 64, 117
1, 70981, Note_on_c, 0, 60, 51
1, 70992, Control_c, 0, 64, 127
1, 71018, Note_off_c, 0, 48, 39
1, 71038, Note_off_c, 0, 60, 55
1, 71081, Note_on_c, 0, 58, 50
1, 71111, Control_c, 0, 64, 120
1, 71126, Control_c, 0, 64, 114
1, 71141, Control_c, 0, 64, 105
1, 71156, Control_c, 0, 64, 91
1, 71170, Control_c, 0, 64, 75
1, 71177, Note_off_c, 0, 58, 55
1, 71185, Control_c, 0, 64, 63
1, 71188, Note_off_c, 0, 64, 54
1, 71194, Note_on_c, 0, 41, 45
1, 71200, Control_c, 0, 64, 39
1, 71206, Note_on_c, 0, 65, 53
1, 71215, Control_c, 0, 64, 0
1, 71230, Note_on_c, 0, 57, 40
1, 71245, Note_on_c, 0, 53, 5
1, 71245, Control_c, 0, 64, 21
1, 71260, Control_c, 0, 64, 36
1, 71275, Control_c, 0, 64, 48
1, 71290, Control_c, 0, 64, 55
1, 71295, Note_off_c, 0, 57, 59
1, 71305, Control_c, 0, 64, 60
1, 71319, Control_c, 0, 64, 63
1, 71325, Note_on_c, 0, 58, 48
1, 71332, Note_off_c, 0, 53, 43
1, 71334, Control_c, 0, 64, 68
1, 71349, Control_c, 0, 64, 74
1, 71364, Control_c, 0, 64, 83
1, 71379, Control_c, 0, 64, 97
1, 71394, Control_c, 0, 64, 115
1, 71408, Control_c, 0, 64, 127
1, 71431, Note_on_c, 0, 59, 60
1, 71436, Note_off_c, 0, 65, 58
1, 71437, Note_off_c, 0, 58, 52
1, 71468, Control_c, 0, 64, 122
1, 71482, Control_c, 0, 64, 110
1, 71488, Note_off_c, 0, 41, 55
1, 71497, Control_c, 0, 64, 101
1, 71507, Note_off_c, 0, 59, 59
1, 71512, Control_c, 0, 64, 92
1, 71527, Control_c, 0, 64, 84
1, 71531, Note_on_c, 0, 60, 73
1, 71542, Control_c, 0, 64, 78
1, 71556, Control_c, 0, 64, 72
1, 71571, Control_c, 0, 64, 67
1, 71586, Control_c, 0, 64, 64
1, 71601, Control_c, 0, 64, 62
1, 71615, Control_c, 0, 64, 61
1, 71616, Note_off_c, 0, 60, 64
1, 71620, Note_on_c, 0, 62, 74
1, 71630, Control_c, 0, 64, 59
1, 71645, Control_c, 0, 64, 57
1, 71660, Control_c, 0, 64, 55
1, 71675, Control_c, 0, 64, 54
1, 71689, Control_c, 0, 64, 53
1, 71712, Control_c, 0, 64, 51
1, 71727, Control_c, 0, 64, 49
1, 71728, Note_on_c, 0, 64, 83
1, 71728, Note_off_c, 0, 62, 63
1, 71742, Control_c, 0, 64, 47
1, 71757, Control_c, 0, 64, 46
1, 71771, Control_c, 0, 64, 46
1, 71786, Control_c, 0, 64, 45
1, 71801, Control_c, 0, 64, 44
1, 71815, Control_c, 0, 64, 43
1, 71830, Control_c, 0, 64, 41
1, 71845, Control_c, 0, 64, 41
1, 71853, Note_on_c, 0, 72, 83
1, 71857, Note_on_c, 0, 65, 72
1, 71860, Control_c, 0, 64, 39
1, 71867, Note_on_c, 0, 69, 74
1, 71875, Control_c, 0, 64, 38
1, 71883, Note_off_c, 0, 64, 56
1, 71889, Control_c, 0, 64, 36
1, 71904, Control_c, 0, 64, 36
1, 71934, Control_c, 0, 64, 35
1, 71949, Control_c, 0, 64, 35
1, 71974, Note_on_c, 0, 67, 72
1, 71977, Note_off_c, 0, 65, 62
1, 72008, Control_c, 0, 64, 34
1, 72024, Control_c, 0, 64, 34
1, 72038, Control_c, 0, 64, 33
1, 72056, Note_on_c, 0, 65, 68
1, 72136, Note_off_c, 0, 67, 53
1, 72142, Control_c, 0, 64, 33
1, 72152, Note_off_c, 0, 65, 58
1, 72160, Note_on_c, 0, 63, 63
1, 72268, Note_on_c, 0, 65, 67
1, 72268, Note_off_c, 0, 63, 63
1, 72357, Note_off_c, 0, 65, 63
1, 72364, Note_on_c, 0, 63, 63
1, 72364, Control_c, 0, 64, 32
1, 72378, Control_c, 0, 64, 32
1, 72393, Control_c, 0, 64, 31
1, 72423, Control_c, 0, 64, 30
1, 72437, Control_c, 0, 64, 29
1, 72460, Control_c, 0, 64, 27
1, 72475, Control_c, 0, 64, 26
1, 72490, Control_c, 0, 64, 25
1, 72492, Note_on_c, 0, 53, 64
1, 72497, Note_on_c, 0, 62, 65
1, 72505, Control_c, 0, 64, 23
1, 72519, Control_c, 0, 64, 20
1, 72525, Note_off_c, 0, 63, 52
1, 72534, Control_c, 0, 64, 19
1, 72549, Control_c, 0, 64, 18
1, 72612, Note_off_c, 0, 72, 63
1, 72614, Note_on_c, 0, 71, 72
1, 72620, Note_off_c, 0, 69, 44
1, 72623, Control_c, 0, 64, 25
1, 72637, Control_c, 0, 64, 40
1, 72652, Control_c, 0, 64, 51
1, 72667, Control_c, 0, 64, 57
1, 72682, Control_c, 0, 64, 60
1, 72697, Control_c, 0, 64, 63
1, 72700, Note_off_c, 0, 71, 64
1, 72701, Note_on_c, 0, 70, 76
1, 72712, Control_c, 0, 64, 66
1, 72726, Control_c, 0, 64, 71
1, 72741, Control_c, 0, 64, 85
1, 72756, Control_c, 0, 64, 110
1, 72771, Control_c, 0, 64, 127
1, 72791, Note_off_c, 0, 53, 63
1, 72807, Note_on_c, 0, 71, 72
1, 72808, Note_on_c, 0, 68, 58
1, 72817, Note_off_c, 0, 70, 53
1, 72846, Note_off_c, 0, 68, 62
1, 72924, Note_off_c, 0, 71, 62
1, 72925, Note_on_c, 0, 77, 83
1, 72935, Control_c, 0, 64, 113
1, 72950, Control_c, 0, 64, 107
1, 72965, Control_c, 0, 64, 103
1, 72980, Control_c, 0, 64, 100
1, 72995, Control_c, 0, 64, 96
1, 73009, Control_c, 0, 64, 93
1, 73024, Control_c, 0, 64, 90
1, 73034, Note_on_c, 0, 74, 83
1, 73039, Control_c, 0, 64, 88
1, 73054, Control_c, 0, 64, 86
1, 73068, Control_c, 0, 64, 85
1, 73083, Control_c, 0, 64, 83
1, 73098, Control_c, 0, 64, 82
1, 73113, Control_c, 0, 64, 81
1, 73127, Control_c, 0, 64, 80
1, 73142, Control_c, 0, 64, 78
1, 73157, Control_c, 0, 64, 74
1, 73162, Note_on_c, 0, 55, 45
1, 73162, Note_off_c, 0, 62, 38
1, 73167, Note_on_c, 0, 71, 74
1, 73170, Note_off_c, 0, 77, 55
1, 73172, Control_c, 0, 64, 68
1, 73186, Control_c, 0, 64, 61
1, 73209, Control_c, 0, 64, 48
1, 73224, Control_c, 0, 64, 46
1, 73225, Note_off_c, 0, 74, 58
1, 73239, Control_c, 0, 64, 46
1, 73254, Control_c, 0, 64, 50
1, 73268, Control_c, 0, 64, 54
1, 73283, Control_c, 0, 64, 59
1, 73287, Note_off_c, 0, 71, 63
1, 73288, Note_on_c, 0, 62, 48
1, 73288, Note_on_c, 0, 65, 62
1, 73298, Control_c, 0, 64, 62
1, 73313, Control_c, 0, 64, 64
1, 73328, Control_c, 0, 64, 66
1, 73342, Control_c, 0, 64, 69
1, 73357, Control_c, 0, 64, 73
1, 73361, Note_off_c, 0, 62, 59
1, 73372, Control_c, 0, 64, 77
1, 73377, Note_on_c, 0, 64, 65
1, 73386, Control_c, 0, 64, 80
1, 73388, Note_on_c, 0, 67, 68
1, 73389, Note_off_c, 0, 65, 59
1, 73401, Control_c, 0, 64, 80
1, 73475, Control_c, 0, 64, 79
1, 73477, Note_off_c, 0, 67, 55
1, 73483, Note_off_c, 0, 64, 64
1, 73489, Note_on_c, 0, 65, 81
1, 73490, Note_on_c, 0, 71, 92
1, 73490, Control_c, 0, 64, 74
1, 73505, Control_c, 0, 64, 66
1, 73513, Note_on_c, 0, 68, 58
1, 73520, Control_c, 0, 64, 56
1, 73534, Control_c, 0, 64, 43
1, 73549, Control_c, 0, 64, 42
1, 73554, Note_off_c, 0, 68, 59
1, 73564, Control_c, 0, 64, 47
1, 73579, Control_c, 0, 64, 56
1, 73581, Note_off_c, 0, 65, 62
1, 73588, Note_on_c, 0, 64, 74
1, 73594, Note_on_c, 0, 67, 76
1, 73594, Control_c, 0, 64, 61
1, 73611, Control_c, 0, 64, 65
1, 73626, Control_c, 0, 64, 69
1, 73633, Note_off_c, 0, 55, 54
1, 73640, Control_c, 0, 64, 77
1, 73655, Control_c, 0, 64, 92
1, 73670, Control_c, 0, 64, 127
1, 73672, Note_off_c, 0, 64, 63
1, 73684, Note_on_c, 0, 62, 76
1, 73686, Note_off_c, 0, 71, 53
1, 73696, Note_on_c, 0, 65, 74
1, 73729, Note_off_c, 0, 67, 60
1, 73773, Control_c, 0, 64, 116
1, 73788, Control_c, 0, 64, 104
1, 73803, Control_c, 0, 64, 95
1, 73817, Control_c, 0, 64, 89
1, 73832, Control_c, 0, 64, 85
1, 73839, Note_on_c, 0, 71, 88
1, 73840, Note_on_c, 0, 48, 61
1, 73847, Control_c, 0, 64, 82
1, 73862, Control_c, 0, 64, 80
1, 73869, Note_off_c, 0, 65, 60
1, 73877, Control_c, 0, 64, 77
1, 73892, Control_c, 0, 64, 74
1, 73907, Control_c, 0, 64, 70
1, 73922, Control_c, 0, 64, 67
1, 73937, Control_c, 0, 64, 65
1, 73957, Note_on_c, 0, 67, 73
1, 73958, Control_c, 0, 64, 64
1, 73973, Control_c, 0, 64, 63
1, 73988, Control_c, 0, 64, 62
1, 74003, Control_c, 0, 64, 61
1, 74017, Control_c, 0, 64, 59
1, 74032, Control_c, 0, 64, 58
1, 74047, Note_on_c, 0, 65, 71
1, 74047, Control_c, 0, 64, 57
1, 74062, Control_c, 0, 64, 55
1, 74077, Control_c, 0, 64, 50
1, 74084, Note_off_c, 0, 67, 59
1, 74092, Control_c, 0, 64, 42
1, 74107, Control_c, 0, 64, 31
1, 74111, Note_off_c, 0, 62, 35
1, 74122, Control_c, 0, 64, 15
1, 74136, Control_c, 0, 64, 0
1, 74148, Note_off_c, 0, 65, 59
1, 74162, Note_on_c, 0, 64, 55
1, 74164, Note_on_c, 0, 72, 88
1, 74175, Poly_aftertouch_c, 0, 50, 127
1, 74179, Note_on_c, 0, 60, 59
1, 74225, Note_off_c, 0, 64, 53
1, 74225, Control_c, 0, 64, 15
1, 74240, Control_c, 0, 64, 41
1, 74255, Control_c, 0, 64, 55
1, 74265, Note_off_c, 0, 48, 62
1, 74270, Control_c, 0, 64, 62
1, 74277, Note_on_c, 0, 65, 68
1, 74280, Note_off_c, 0, 71, 49
1, 74284, Control_c, 0, 64, 67
1, 74299, Control_c, 0, 64, 75
1, 74306, Poly_aftertouch_c, 0, 50, 0
1, 74314, Control_c, 0, 64, 104
1, 74329, Control_c, 0, 64, 127
1, 74337, Note_off_c, 0, 60, 63
1, 74351, Note_off_c, 0, 72, 59
1, 74368, Note_on_c, 0, 64, 70
1, 74369, Note_off_c, 0, 65, 62
1, 74433, Control_c, 0, 64, 100
1, 74446, Note_off_c, 0, 64, 58
1, 74448, Control_c, 0, 64, 91
1, 74463, Control_c, 0, 64, 87
1, 74478, Control_c, 0, 64, 84
1, 74493, Control_c, 0, 64, 82
1, 74507, Control_c, 0, 64, 78
1, 74522, Control_c, 0, 64, 76
1, 74537, Control_c, 0, 64, 74
1, 74552, Note_on_c, 0, 74, 85
1, 74552, Control_c, 0, 64, 73
1, 74565, Note_on_c, 0, 67, 71
1, 74566, Note_on_c, 0, 71, 75
1, 74567, Control_c, 0, 64, 72
1, 74581, Control_c, 0, 64, 70
1, 74596, Control_c, 0, 64, 69
1, 74611, Control_c, 0, 64, 67
1, 74626, Control_c, 0, 64, 66
1, 74640, Control_c, 0, 64, 65
1, 74655, Control_c, 0, 64, 65
1, 74666, Note_on_c, 0, 69, 75
1, 74670, Control_c, 0, 64, 64
1, 74684, Note_off_c, 0, 67, 62
1, 74685, Control_c, 0, 64, 64
1, 74700, Control_c, 0, 64, 63
1, 74722, Control_c, 0, 64, 62
1, 74737, Control_c, 0, 64, 62
1, 74752, Control_c, 0, 64, 61
1, 74767, Control_c, 0, 64, 60
1, 74771, Note_on_c, 0, 67, 69
1, 74782, Control_c, 0, 64, 60
1, 74796, Control_c, 0, 64, 59
1, 74811, Control_c, 0, 64, 58
1, 74826, Control_c, 0, 64, 57
1, 74840, Control_c, 0, 64, 56
1, 74855, Control_c, 0, 64, 56
1, 74857, Note_off_c, 0, 69, 42
1, 74865, Note_on_c, 0, 65, 60
1, 74870, Control_c, 0, 64, 55
1, 74883, Note_off_c, 0, 67, 45
1, 74885, Control_c, 0, 64, 55
1, 74900, Control_c, 0, 64, 54
1, 74929, Control_c, 0, 64, 54
1, 74944, Control_c, 0, 64, 53
1, 74959, Control_c, 0, 64, 52
1, 74967, Note_off_c, 0, 65, 61
1, 74970, Note_on_c, 0, 67, 64
1, 74974, Control_c, 0, 64, 52
1, 74989, Control_c, 0, 64, 51
1, 75004, Control_c, 0, 64, 50
1, 75019, Control_c, 0, 64, 49
1, 75033, Control_c, 0, 64, 48
1, 75048, Control_c, 0, 64, 47
1, 75063, Control_c, 0, 64, 45
1, 75067, Note_off_c, 0, 67, 63
1, 75072, Note_on_c, 0, 65, 69
1, 75078, Control_c, 0, 64, 43
1, 75093, Control_c, 0, 64, 41
1, 75108, Control_c, 0, 64, 40
1, 75123, Control_c, 0, 64, 39
1, 75138, Control_c, 0, 64, 37
1, 75153, Control_c, 0, 64, 36
1, 75168, Control_c, 0, 64, 35
1, 75182, Control_c, 0, 64, 34
1, 75186, Note_on_c, 0, 64, 65
1, 75195, Note_on_c, 0, 55, 57
1, 75197, Control_c, 0, 64, 34
1, 75213, Control_c, 0, 64, 33
1, 75216, Note_off_c, 0, 65, 46
1, 75272, Control_c, 0, 64, 35
1, 75287, Control_c, 0, 64, 39
1, 75302, Control_c, 0, 64, 46
1, 75308, Note_off_c, 0, 74, 63
1, 75311, Note_on_c, 0, 73, 76
1, 75317, Control_c, 0, 64, 51
1, 75325, Note_off_c, 0, 71, 40
1, 75331, Control_c, 0, 64, 54
1, 75346, Control_c, 0, 64, 57
1, 75361, Control_c, 0, 64, 61
1, 75376, Control_c, 0, 64, 63
1, 75391, Control_c, 0, 64, 66
1, 75405, Control_c, 0, 64, 70
1, 75412, Note_on_c, 0, 72, 79
1, 75420, Control_c, 0, 64, 77
1, 75424, Note_off_c, 0, 73, 62
1, 75435, Control_c, 0, 64, 92
1, 75450, Control_c, 0, 64, 111
1, 75459, Note_off_c, 0, 55, 61
1, 75472, Control_c, 0, 64, 127
1, 75529, Note_on_c, 0, 70, 54
1, 75537, Note_on_c, 0, 73, 75
1, 75556, Note_off_c, 0, 72, 57
1, 75561, Control_c, 0, 64, 125
1, 75568, Note_off_c, 0, 70, 65
1, 75576, Control_c, 0, 64, 119
1, 75591, Control_c, 0, 64, 115
1, 75606, Control_c, 0, 64, 114
1, 75620, Control_c, 0, 64, 111
1, 75635, Control_c, 0, 64, 108
1, 75636, Note_off_c, 0, 73, 63
1, 75645, Note_on_c, 0, 79, 80
1, 75650, Control_c, 0, 64, 105
1, 75664, Control_c, 0, 64, 102
1, 75679, Control_c, 0, 64, 99
1, 75694, Control_c, 0, 64, 97
1, 75709, Control_c, 0, 64, 94
1, 75724, Control_c, 0, 64, 91
1, 75738, Control_c, 0, 64, 89
1, 75753, Control_c, 0, 64, 87
1, 75755, Note_on_c, 0, 76, 85
1, 75768, Control_c, 0, 64, 85
1, 75783, Control_c, 0, 64, 83
1, 75798, Control_c, 0, 64, 82
1, 75812, Control_c, 0, 64, 82
1, 75827, Control_c, 0, 64, 81
1, 75842, Control_c, 0, 64, 80
1, 75850, Note_off_c, 0, 64, 46
1, 75856, Control_c, 0, 64, 77
1, 75871, Control_c, 0, 64, 71
1, 75874, Note_on_c, 0, 57, 40
1, 75883, Note_on_c, 0, 73, 77
1, 75886, Control_c, 0, 64, 64
1, 75887, Note_off_c, 0, 79, 54
1, 75901, Control_c, 0, 64, 54
1, 75916, Control_c, 0, 64, 51
1, 75931, Note_off_c, 0, 76, 60
1, 75945, Control_c, 0, 64, 53
1, 75960, Control_c, 0, 64, 57
1, 75975, Control_c, 0, 64, 61
1, 75986, Note_on_c, 0, 64, 49
1, 75989, Control_c, 0, 64, 64
1, 75991, Note_on_c, 0, 67, 67
1, 76001, Note_off_c, 0, 73, 63
1, 76005, Control_c, 0, 64, 67
1, 76020, Control_c, 0, 64, 71
1, 76035, Control_c, 0, 64, 78
1, 76050, Control_c, 0, 64, 87
1, 76059, Note_off_c, 0, 64, 62
1, 76065, Control_c, 0, 64, 97
1, 76077, Note_on_c, 0, 65, 60
1, 76079, Control_c, 0, 64, 108
1, 76085, Note_on_c, 0, 69, 74
1, 76091, Note_off_c, 0, 67, 57
1, 76094, Control_c, 0, 64, 110
1, 76109, Control_c, 0, 64, 111
1, 76183, Control_c, 0, 64, 110
1, 76187, Note_on_c, 0, 73, 93
1, 76188, Note_on_c, 0, 67, 82
1, 76189, Note_off_c, 0, 65, 62
1, 76205, Control_c, 0, 64, 99
1, 76213, Note_off_c, 0, 69, 50
1, 76220, Control_c, 0, 64, 82
1, 76235, Control_c, 0, 64, 68
1, 76250, Control_c, 0, 64, 58
1, 76255, Note_on_c, 0, 70, 9
1, 76265, Control_c, 0, 64, 52
1, 76280, Control_c, 0, 64, 56
1, 76294, Control_c, 0, 64, 61
1, 76300, Note_on_c, 0, 69, 84
1, 76309, Note_on_c, 0, 65, 75
1, 76309, Control_c, 0, 64, 65
1, 76314, Note_off_c, 0, 67, 64
1, 76324, Control_c, 0, 64, 70
1, 76339, Control_c, 0, 64, 79
1, 76353, Control_c, 0, 64, 97
1, 76368, Control_c, 0, 64, 127
1, 76396, Note_off_c, 0, 70, 23
1, 76399, Note_on_c, 0, 64, 81
1, 76401, Note_on_c, 0, 67, 87
1, 76408, Note_off_c, 0, 73, 0
1, 76410, Note_off_c, 0, 65, 62
1, 76434, Note_off_c, 0, 69, 62
1, 76435, Note_on_c, 0, 73, 23
1, 76472, Note_off_c, 0, 73, 57
1, 76526, Note_on_c, 0, 58, 78
1, 76536, Note_on_c, 0, 73, 96
1, 76560, Control_c, 0, 64, 105
1, 76573, Note_off_c, 0, 67, 60
1, 76575, Control_c, 0, 64, 94
1, 76576, Note_off_c, 0, 57, 28
1, 76590, Control_c, 0, 64, 87
1, 76605, Control_c, 0, 64, 82
1, 76620, Control_c, 0, 64, 79
1, 76634, Control_c, 0, 64, 76
1, 76645, Note_on_c, 0, 69, 78
1, 76649, Control_c, 0, 64, 74
1, 76664, Control_c, 0, 64, 72
1, 76679, Control_c, 0, 64, 71
1, 76694, Control_c, 0, 64, 70
1, 76709, Control_c, 0, 64, 68
1, 76724, Control_c, 0, 64, 68
1, 76739, Control_c, 0, 64, 67
1, 76747, Note_on_c, 0, 67, 80
1, 76768, Control_c, 0, 64, 66
1, 76783, Control_c, 0, 64, 66
1, 76798, Control_c, 0, 64, 65
1, 76799, Note_off_c, 0, 69, 59
1, 76813, Control_c, 0, 64, 62
1, 76828, Control_c, 0, 64, 56
1, 76843, Control_c, 0, 64, 48
1, 76858, Control_c, 0, 64, 41
1, 76872, Note_on_c, 0, 74, 89
1, 76873, Control_c, 0, 64, 38
1, 76876, Note_off_c, 0, 67, 62
1, 76877, Note_on_c, 0, 65, 71
1, 76879, Note_on_c, 0, 62, 64
1, 76888, Control_c, 0, 64, 36
1, 76899, Note_off_c, 0, 73, 65
1, 76900, Note_off_c, 0, 64, 52
1, 76902, Control_c, 0, 64, 36
1, 76932, Control_c, 0, 64, 41
1, 76954, Control_c, 0, 64, 52
1, 76969, Control_c, 0, 64, 60
1, 76983, Control_c, 0, 64, 65
1, 76998, Control_c, 0, 64, 70
1, 77010, Note_on_c, 0, 69, 78
1, 77010, Note_off_c, 0, 62, 63
1, 77013, Control_c, 0, 64, 79
1, 77028, Control_c, 0, 64, 95
1, 77041, Note_off_c, 0, 58, 61
1, 77041, Note_off_c, 0, 65, 55
1, 77043, Control_c, 0, 64, 127
1, 77105, Note_on_c, 0, 70, 83
1, 77106, Note_off_c, 0, 74, 58
1, 77134, Note_off_c, 0, 69, 63
1, 77187, Note_off_c, 0, 70, 62
1, 77319, Note_on_c, 0, 77, 87
1, 77326, Note_on_c, 0, 46, 65
1, 77329, Note_on_c, 0, 74, 73
1, 77332, Note_on_c, 0, 70, 61
1, 77354, Control_c, 0, 64, 122
1, 77369, Control_c, 0, 64, 91
1, 77383, Control_c, 0, 64, 71
1, 77398, Control_c, 0, 64, 59
1, 77413, Control_c, 0, 64, 42
1, 77427, Control_c, 0, 64, 40
1, 77442, Control_c, 0, 64, 41
1, 77457, Control_c, 0, 64, 44
1, 77458, Note_off_c, 0, 70, 64
1, 77472, Control_c, 0, 64, 51
1, 77474, Note_on_c, 0, 72, 66
1, 77487, Control_c, 0, 64, 58
1, 77502, Control_c, 0, 64, 62
1, 77517, Control_c, 0, 64, 66
1, 77532, Control_c, 0, 64, 70
1, 77547, Control_c, 0, 64, 79
1, 77561, Control_c, 0, 64, 95
1, 77576, Note_on_c, 0, 70, 76
1, 77576, Control_c, 0, 64, 127
1, 77596, Note_off_c, 0, 72, 62
1, 77666, Note_off_c, 0, 70, 60
1, 77676, Note_on_c, 0, 68, 71
1, 77732, Control_c, 0, 64, 119
1, 77747, Control_c, 0, 64, 113
1, 77762, Control_c, 0, 64, 109
1, 77776, Note_off_c, 0, 68, 61
1, 77777, Control_c, 0, 64, 105
1, 77786, Note_on_c, 0, 70, 77
1, 77792, Control_c, 0, 64, 102
1, 77806, Control_c, 0, 64, 98
1, 77821, Control_c, 0, 64, 96
1, 77836, Control_c, 0, 64, 94
1, 77851, Control_c, 0, 64, 93
1, 77866, Control_c, 0, 64, 92
1, 77874, Note_on_c, 0, 68, 79
1, 77880, Control_c, 0, 64, 90
1, 77895, Control_c, 0, 64, 89
1, 77910, Control_c, 0, 64, 86
1, 77925, Control_c, 0, 64, 84
1, 77926, Note_off_c, 0, 70, 59
1, 77940, Control_c, 0, 64, 81
1, 77940, Note_off_c, 0, 74, 57
1, 77955, Control_c, 0, 64, 78
1, 77970, Control_c, 0, 64, 77
1, 77982, Note_on_c, 0, 67, 69
1, 77985, Control_c, 0, 64, 75
1, 77987, Note_on_c, 0, 48, 74
1, 77991, Note_off_c, 0, 68, 61
1, 77999, Control_c, 0, 64, 73
1, 78014, Control_c, 0, 64, 71
1, 78029, Control_c, 0, 64, 69
1, 78044, Control_c, 0, 64, 67
1, 78058, Control_c, 0, 64, 66
1, 78073, Control_c, 0, 64, 64
1, 78088, Control_c, 0, 64, 62
1, 78103, Control_c, 0, 64, 57
1, 78110, Note_on_c, 0, 75, 75
1, 78118, Control_c, 0, 64, 49
1, 78132, Control_c, 0, 64, 38
1, 78147, Control_c, 0, 64, 31
1, 78162, Control_c, 0, 64, 27
1, 78164, Note_off_c, 0, 46, 52
1, 78166, Note_off_c, 0, 77, 59
1, 78177, Control_c, 0, 64, 24
1, 78192, Control_c, 0, 64, 24
1, 78193, Note_on_c, 0, 74, 76
1, 78221, Note_off_c, 0, 75, 59
1, 78221, Control_c, 0, 64, 27
1, 78236, Control_c, 0, 64, 37
1, 78250, Control_c, 0, 64, 48
1, 78265, Control_c, 0, 64, 56
1, 78280, Control_c, 0, 64, 61
1, 78295, Control_c, 0, 64, 64
1, 78302, Note_on_c, 0, 72, 61
1, 78302, Note_on_c, 0, 75, 76
1, 78310, Control_c, 0, 64, 68
1, 78325, Control_c, 0, 64, 77
1, 78340, Control_c, 0, 64, 93
1, 78342, Note_off_c, 0, 74, 56
1, 78348, Note_off_c, 0, 48, 58
1, 78354, Control_c, 0, 64, 127
1, 78420, Note_on_c, 0, 79, 86
1, 78421, Note_off_c, 0, 72, 61
1, 78438, Note_off_c, 0, 75, 61
1, 78441, Note_off_c, 0, 67, 61
1, 78522, Note_on_c, 0, 75, 85
1, 78554, Note_off_c, 0, 79, 64
1, 78585, Control_c, 0, 64, 117
1, 78596, Note_off_c, 0, 75, 60
1, 78600, Control_c, 0, 64, 109
1, 78615, Control_c, 0, 64, 104
1, 78629, Control_c, 0, 64, 99
1, 78638, Note_on_c, 0, 65, 63
1, 78638, Note_on_c, 0, 53, 62
1, 78641, Note_on_c, 0, 74, 77
1, 78644, Control_c, 0, 64, 94
1, 78654, Note_on_c, 0, 69, 64
1, 78659, Control_c, 0, 64, 89
1, 78674, Control_c, 0, 64, 85
1, 78688, Control_c, 0, 64, 81
1, 78703, Control_c, 0, 64, 77
1, 78718, Control_c, 0, 64, 72
1, 78733, Control_c, 0, 64, 68
1, 78748, Control_c, 0, 64, 65
1, 78757, Note_on_c, 0, 73, 78
1, 78763, Control_c, 0, 64, 63
1, 78778, Control_c, 0, 64, 63
1, 78793, Control_c, 0, 64, 62
1, 78799, Note_off_c, 0, 74, 61
1, 78808, Control_c, 0, 64, 61
1, 78822, Control_c, 0, 64, 60
1, 78837, Control_c, 0, 64, 59
1, 78852, Control_c, 0, 64, 58
1, 78863, Note_on_c, 0, 72, 76
1, 78867, Control_c, 0, 64, 57
1, 78881, Control_c, 0, 64, 55
1, 78886, Note_off_c, 0, 73, 62
1, 78896, Control_c, 0, 64, 54
1, 78911, Control_c, 0, 64, 52
1, 78926, Control_c, 0, 64, 49
1, 78941, Control_c, 0, 64, 45
1, 78955, Control_c, 0, 64, 39
1, 78962, Note_on_c, 0, 63, 53
1, 78970, Control_c, 0, 64, 34
1, 78985, Control_c, 0, 64, 31
1, 78989, Note_on_c, 0, 73, 78
1, 79000, Control_c, 0, 64, 31
1, 79044, Control_c, 0, 64, 31
1, 79046, Note_off_c, 0, 72, 53
1, 79059, Control_c, 0, 64, 38
1, 79073, Control_c, 0, 64, 46
1, 79088, Control_c, 0, 64, 53
1, 79090, Note_on_c, 0, 77, 80
1, 79100, Note_off_c, 0, 73, 63
1, 79103, Control_c, 0, 64, 59
1, 79118, Control_c, 0, 64, 62
1, 79133, Control_c, 0, 64, 65
1, 79147, Control_c, 0, 64, 69
1, 79162, Control_c, 0, 64, 78
1, 79177, Control_c, 0, 64, 90
1, 79180, Note_off_c, 0, 65, 37
1, 79192, Control_c, 0, 64, 102
1, 79207, Note_on_c, 0, 73, 82
1, 79216, Control_c, 0, 64, 105
1, 79231, Control_c, 0, 64, 104
1, 79237, Note_off_c, 0, 77, 62
1, 79246, Control_c, 0, 64, 102
1, 79260, Control_c, 0, 64, 100
1, 79275, Control_c, 0, 64, 97
1, 79281, Note_off_c, 0, 73, 63
1, 79290, Control_c, 0, 64, 94
1, 79304, Control_c, 0, 64, 91
1, 79319, Control_c, 0, 64, 87
1, 79334, Control_c, 0, 64, 84
1, 79337, Note_on_c, 0, 58, 63
1, 79349, Note_on_c, 0, 73, 72
1, 79349, Control_c, 0, 64, 80
1, 79364, Control_c, 0, 64, 76
1, 79378, Control_c, 0, 64, 73
1, 79393, Control_c, 0, 64, 71
1, 79408, Control_c, 0, 64, 69
1, 79423, Control_c, 0, 64, 67
1, 79432, Note_off_c, 0, 53, 42
1, 79438, Control_c, 0, 64, 65
1, 79452, Control_c, 0, 64, 64
1, 79467, Control_c, 0, 64, 63
1, 79481, Note_off_c, 0, 69, 41
1, 79482, Control_c, 0, 64, 62
1, 79484, Note_on_c, 0, 70, 59
1, 79497, Control_c, 0, 64, 61
1, 79511, Control_c, 0, 64, 60
1, 79526, Control_c, 0, 64, 59
1, 79541, Control_c, 0, 64, 59
1, 79557, Control_c, 0, 64, 57
1, 79568, Note_off_c, 0, 70, 57
1, 79572, Control_c, 0, 64, 56
1, 79583, Note_on_c, 0, 69, 63
1, 79586, Control_c, 0, 64, 55
1, 79601, Control_c, 0, 64, 55
1, 79616, Control_c, 0, 64, 53
1, 79630, Control_c, 0, 64, 50
1, 79645, Control_c, 0, 64, 47
1, 79657, Note_off_c, 0, 63, 34
1, 79660, Control_c, 0, 64, 43
1, 79675, Note_off_c, 0, 69, 60
1, 79675, Control_c, 0, 64, 41
1, 79685, Note_on_c, 0, 62, 46
1, 79686, Note_on_c, 0, 74, 74
1, 79688, Note_on_c, 0, 67, 56
1, 79720, Control_c, 0, 64, 43
1, 79725, Note_off_c, 0, 73, 62
1, 79735, Control_c, 0, 64, 47
1, 79749, Control_c, 0, 64, 53
1, 79764, Control_c, 0, 64, 59
1, 79779, Control_c, 0, 64, 63
1, 79779, Note_off_c, 0, 67, 57
1, 79794, Control_c, 0, 64, 66
1, 79795, Note_on_c, 0, 70, 56
1, 79809, Control_c, 0, 64, 73
1, 79823, Control_c, 0, 64, 84
1, 79838, Control_c, 0, 64, 99
1, 79851, Note_off_c, 0, 62, 55
1, 79853, Control_c, 0, 64, 115
1, 79857, Note_off_c, 0, 58, 37
1, 79868, Control_c, 0, 64, 116
1, 79883, Control_c, 0, 64, 115
1, 79889, Note_on_c, 0, 69, 56
1, 79897, Control_c, 0, 64, 111
1, 79912, Control_c, 0, 64, 110
1, 79949, Control_c, 0, 64, 109
1, 79952, Note_off_c, 0, 70, 35
1, 79964, Control_c, 0, 64, 109
1, 79979, Control_c, 0, 64, 107
1, 79993, Note_off_c, 0, 69, 57
1, 79994, Control_c, 0, 64, 104
1, 80009, Note_on_c, 0, 65, 49
1, 80009, Control_c, 0, 64, 95
1, 80021, Note_on_c, 0, 60, 57
1, 80023, Note_on_c, 0, 57, 55
1, 80024, Control_c, 0, 64, 81
1, 80039, Control_c, 0, 64, 69
1, 80054, Control_c, 0, 64, 60
1, 80069, Control_c, 0, 64, 51
1, 80083, Control_c, 0, 64, 52
1, 80098, Control_c, 0, 64, 55
1, 80113, Control_c, 0, 64, 59
1, 80126, Note_off_c, 0, 65, 54
1, 80128, Control_c, 0, 64, 62
1, 80137, Note_on_c, 0, 69, 46
1, 80143, Control_c, 0, 64, 65
1, 80158, Control_c, 0, 64, 68
1, 80173, Control_c, 0, 64, 73
1, 80188, Control_c, 0, 64, 81
1, 80202, Control_c, 0, 64, 89
1, 80217, Control_c, 0, 64, 95
1, 80226, Note_off_c, 0, 74, 46
1, 80231, Note_off_c, 0, 69, 56
1, 80232, Control_c, 0, 64, 96
1, 80232, Note_on_c, 0, 67, 52
1, 80261, Control_c, 0, 64, 95
1, 80276, Control_c, 0, 64, 95
1, 80291, Control_c, 0, 64, 94
1, 80294, Note_off_c, 0, 57, 55
1, 80305, Control_c, 0, 64, 94
1, 80317, Note_off_c, 0, 67, 58
1, 80320, Control_c, 0, 64, 92
1, 80334, Control_c, 0, 64, 91
1, 80349, Control_c, 0, 64, 87
1, 80358, Note_on_c, 0, 58, 37
1, 80360, Note_on_c, 0, 55, 41
1, 80364, Note_on_c, 0, 74, 59
1, 80364, Control_c, 0, 64, 79
1, 80371, Note_on_c, 0, 64, 47
1, 80379, Control_c, 0, 64, 70
1, 80394, Control_c, 0, 64, 62
1, 80408, Control_c, 0, 64, 50
1, 80423, Control_c, 0, 64, 45
1, 80453, Control_c, 0, 64, 47
1, 80465, Note_off_c, 0, 60, 39
1, 80468, Control_c, 0, 64, 52
1, 80480, Note_off_c, 0, 64, 59
1, 80481, Note_on_c, 0, 67, 46
1, 80483, Control_c, 0, 64, 58
1, 80498, Control_c, 0, 64, 61
1, 80513, Control_c, 0, 64, 64
1, 80527, Control_c, 0, 64, 66
1, 80527, Note_off_c, 0, 74, 58
1, 80542, Control_c, 0, 64, 70
1, 80557, Control_c, 0, 64, 77
1, 80572, Control_c, 0, 64, 83
1, 80577, Note_off_c, 0, 67, 60
1, 80582, Note_on_c, 0, 65, 54
1, 80587, Control_c, 0, 64, 87
1, 80601, Control_c, 0, 64, 87
1, 80616, Control_c, 0, 64, 87
1, 80617, Note_off_c, 0, 58, 36
1, 80631, Control_c, 0, 64, 86
1, 80645, Control_c, 0, 64, 85
1, 80660, Control_c, 0, 64, 84
1, 80674, Note_off_c, 0, 65, 59
1, 80675, Control_c, 0, 64, 82
1, 80697, Control_c, 0, 64, 80
1, 80706, Note_on_c, 0, 73, 61
1, 80712, Note_on_c, 0, 64, 45
1, 80712, Control_c, 0, 64, 78
1, 80727, Control_c, 0, 64, 75
1, 80742, Control_c, 0, 64, 73
1, 80757, Control_c, 0, 64, 72
1, 80772, Control_c, 0, 64, 71
1, 80787, Control_c, 0, 64, 70
1, 80802, Control_c, 0, 64, 69
1, 80805, Note_on_c, 0, 57, 44
1, 80817, Control_c, 0, 64, 68
1, 80821, Note_off_c, 0, 55, 58
1, 80832, Control_c, 0, 64, 67
1, 80846, Control_c, 0, 64, 66
1, 80861, Control_c, 0, 64, 65
1, 80876, Control_c, 0, 64, 65
1, 80888, Note_off_c, 0, 57, 61
1, 80891, Control_c, 0, 64, 64
1, 80906, Control_c, 0, 64, 64
1, 80906, Note_on_c, 0, 56, 49
1, 80921, Control_c, 0, 64, 63
1, 80936, Control_c, 0, 64, 62
1, 80950, Control_c, 0, 64, 62
1, 80980, Control_c, 0, 64, 61
1, 80987, Note_off_c, 0, 64, 30
1, 80995, Control_c, 0, 64, 60
1, 81010, Control_c, 0, 64, 60
1, 81020, Note_on_c, 0, 65, 40
1, 81024, Control_c, 0, 64, 59
1, 81031, Note_on_c, 0, 57, 47
1, 81031, Note_off_c, 0, 56, 55
1, 81040, Note_on_c, 0, 53, 25
1, 81041, Note_on_c, 0, 74, 50
1, 81054, Control_c, 0, 64, 58
1, 81067, Note_off_c, 0, 73, 38
1, 81069, Control_c, 0, 64, 58
1, 81082, Note_off_c, 0, 65, 58
1, 81083, Control_c, 0, 64, 57
1, 81098, Control_c, 0, 64, 56
1, 81113, Control_c, 0, 64, 56
1, 81118, Note_off_c, 0, 57, 59
1, 81143, Control_c, 0, 64, 55
1, 81144, Note_on_c, 0, 62, 47
1, 81157, Control_c, 0, 64, 55
1, 81172, Control_c, 0, 64, 54
1, 81187, Control_c, 0, 64, 53
1, 81202, Control_c, 0, 64, 52
1, 81228, Note_off_c, 0, 62, 57
1, 81231, Control_c, 0, 64, 52
1, 81244, Note_on_c, 0, 57, 50
1, 81246, Control_c, 0, 64, 51
1, 81261, Control_c, 0, 64, 51
1, 81276, Control_c, 0, 64, 50
1, 81306, Control_c, 0, 64, 49
1, 81320, Control_c, 0, 64, 49
1, 81335, Control_c, 0, 64, 48
1, 81341, Note_off_c, 0, 57, 47
1, 81350, Control_c, 0, 64, 48
1, 81365, Control_c, 0, 64, 47
1, 81380, Control_c, 0, 64, 47
1, 81394, Note_on_c, 0, 55, 36
1, 81395, Control_c, 0, 64, 46
1, 81396, Note_on_c, 0, 76, 55
1, 81397, Note_on_c, 0, 70, 34
1, 81399, Note_on_c, 0, 64, 36
1, 81403, Note_off_c, 0, 74, 54
1, 81410, Control_c, 0, 64, 45
1, 81419, Note_off_c, 0, 53, 41
1, 81424, Control_c, 0, 64, 44
1, 81439, Control_c, 0, 64, 43
1, 81461, Control_c, 0, 64, 41
1, 81475, Control_c, 0, 64, 39
1, 81487, Note_off_c, 0, 64, 62
1, 81490, Control_c, 0, 64, 37
1, 81496, Note_off_c, 0, 55, 63
1, 81501, Note_off_c, 0, 70, 64
1, 81505, Control_c, 0, 64, 35
1, 81515, Note_off_c, 0, 76, 65
1, 81520, Control_c, 0, 64, 33
1, 81535, Control_c, 0, 64, 31
1, 81550, Control_c, 0, 64, 30
1, 81565, Control_c, 0, 64, 29
1, 81580, Control_c, 0, 64, 27
1, 81595, Control_c, 0, 64, 26
1, 81610, Control_c, 0, 64, 25
1, 81625, Control_c, 0, 64, 24
1, 81640, Control_c, 0, 64, 24
1, 81654, Control_c, 0, 64, 23
1, 81783, Note_on_c, 0, 57, 28
1, 81785, Note_on_c, 0, 73, 47
1, 81794, Note_on_c, 0, 69, 35
1, 81796, Note_on_c, 0, 67, 33
1, 81896, Note_off_c, 0, 57, 62
1, 81896, Note_off_c, 0, 67, 63
1, 81901, Note_off_c, 0, 69, 61
1, 81909, Note_off_c, 0, 73, 65
1, 82024, Control_c, 0, 64, 23
1, 82222, Note_on_c, 0, 50, 36
1, 82224, Control_c, 0, 64, 24
1, 82228, Note_on_c, 0, 65, 32
1, 82229, Note_on_c, 0, 74, 42
1, 82232, Note_on_c, 0, 69, 31
1, 82239, Control_c, 0, 64, 27
1, 82253, Control_c, 0, 64, 30
1, 82268, Control_c, 0, 64, 31
1, 82283, Control_c, 0, 64, 32
1, 82298, Control_c, 0, 64, 36
1, 82313, Control_c, 0, 64, 42
1, 82328, Control_c, 0, 64, 50
1, 82343, Control_c, 0, 64, 53
1, 82358, Control_c, 0, 64, 55
1, 82372, Control_c, 0, 64, 57
1, 82375, Note_off_c, 0, 50, 39
1, 82375, Note_off_c, 0, 69, 54
1, 82387, Control_c, 0, 64, 58
1, 82388, Note_off_c, 0, 65, 51
1, 82390, Note_off_c, 0, 74, 64
1, 82403, Note_on_c, 0, 57, 40
1, 82447, Control_c, 0, 64, 58
1, 82462, Control_c, 0, 64, 57
1, 82477, Control_c, 0, 64, 56
1, 82492, Control_c, 0, 64, 55
1, 82507, Control_c, 0, 64, 54
1, 82510, Note_off_c, 0, 57, 52
1, 82510, Note_on_c, 0, 59, 44
1, 82521, Control_c, 0, 64, 53
1, 82536, Control_c, 0, 64, 52
1, 82551, Control_c, 0, 64, 51
1, 82566, Control_c, 0, 64, 50
1, 82581, Control_c, 0, 64, 49
1, 82595, Control_c, 0, 64, 49
1, 82610, Control_c, 0, 64, 48
1, 82614, Note_on_c, 0, 61, 50
1, 82617, Note_off_c, 0, 59, 60
1, 82625, Control_c, 0, 64, 47
1, 82655, Control_c, 0, 64, 47
1, 82669, Control_c, 0, 64, 46
1, 82684, Control_c, 0, 64, 46
1, 82699, Control_c, 0, 64, 45
1, 82713, Control_c, 0, 64, 44
1, 82723, Note_off_c, 0, 61, 59
1, 82724, Note_on_c, 0, 62, 58
1, 82728, Control_c, 0, 64, 43
1, 82743, Control_c, 0, 64, 42
1, 82758, Control_c, 0, 64, 41
1, 82773, Control_c, 0, 64, 41
1, 82788, Control_c, 0, 64, 40
1, 82802, Control_c, 0, 64, 39
1, 82817, Control_c, 0, 64, 38
1, 82832, Control_c, 0, 64, 37
1, 82847, Control_c, 0, 64, 36
1, 82851, Note_on_c, 0, 64, 60
1, 82853, Note_off_c, 0, 62, 59
1, 82862, Control_c, 0, 64, 36
1, 82876, Control_c, 0, 64, 35
1, 82891, Control_c, 0, 64, 35
1, 82921, Control_c, 0, 64, 34
1, 82958, Control_c, 0, 64, 33
1, 82988, Control_c, 0, 64, 33
1, 83002, Control_c, 0, 64, 32
1, 83005, Note_off_c, 0, 64, 56
1, 83032, Note_on_c, 0, 69, 76
1, 83032, Control_c, 0, 64, 32
1, 83044, Note_on_c, 0, 57, 58
1, 83047, Note_on_c, 0, 65, 59
1, 83049, Note_on_c, 0, 62, 42
1, 83061, Control_c, 0, 64, 31
1, 83121, Control_c, 0, 64, 31
1, 83153, Note_on_c, 0, 50, 65
1, 83159, Note_on_c, 0, 38, 54
1, 83166, Control_c, 0, 64, 30
1, 83180, Control_c, 0, 64, 30
1, 83184, Note_off_c, 0, 50, 65
1, 83188, Note_off_c, 0, 38, 58
1, 83211, Control_c, 0, 64, 29
1, 83276, Note_on_c, 0, 52, 68
1, 83283, Note_on_c, 0, 40, 57
1, 83291, Note_off_c, 0, 62, 61
1, 83291, Note_off_c, 0, 57, 61
1, 83301, Note_off_c, 0, 52, 65
1, 83312, Note_off_c, 0, 40, 56
1, 83322, Note_off_c, 0, 65, 62
1, 83326, Note_off_c, 0, 69, 60
1, 83389, Note_on_c, 0, 53, 77
1, 83391, Note_on_c, 0, 41, 77
1, 83416, Note_off_c, 0, 53, 67
1, 83416, Note_off_c, 0, 41, 67
1, 83519, Note_on_c, 0, 47, 71
1, 83520, Note_on_c, 0, 35, 67
1, 83625, Control_c, 0, 64, 30
1, 83650, Note_on_c, 0, 68, 70
1, 83658, Note_off_c, 0, 47, 62
1, 83659, Note_on_c, 0, 62, 56
1, 83659, Note_on_c, 0, 65, 56
1, 83669, Note_off_c, 0, 35, 62
1, 83678, Note_off_c, 0, 68, 66
1, 83681, Note_off_c, 0, 65, 61
1, 83683, Note_off_c, 0, 62, 62
1, 83773, Note_on_c, 0, 65, 64
1, 83777, Note_on_c, 0, 69, 77
1, 83790, Note_on_c, 0, 62, 41
1, 83802, Note_off_c, 0, 65, 66
1, 83805, Note_off_c, 0, 69, 64
1, 83811, Control_c, 0, 64, 29
1, 83818, Note_off_c, 0, 62, 52
1, 83825, Control_c, 0, 64, 28
1, 83840, Control_c, 0, 64, 27
1, 83855, Control_c, 0, 64, 25
1, 83869, Control_c, 0, 64, 24
1, 83884, Control_c, 0, 64, 22
1, 83885, Note_on_c, 0, 71, 85
1, 83890, Note_on_c, 0, 62, 70
1, 83899, Control_c, 0, 64, 20
1, 83908, Note_off_c, 0, 71, 66
1, 83914, Control_c, 0, 64, 19
1, 83917, Note_off_c, 0, 62, 68
1, 83929, Control_c, 0, 64, 17
1, 84013, Note_on_c, 0, 64, 74
1, 84021, Note_on_c, 0, 62, 51
1, 84052, Note_on_c, 0, 58, 24
1, 84129, Note_on_c, 0, 55, 74
1, 84134, Note_on_c, 0, 43, 66
1, 84158, Note_off_c, 0, 55, 66
1, 84163, Note_off_c, 0, 43, 65
1, 84227, Note_off_c, 0, 58, 57
1, 84241, Note_on_c, 0, 57, 89
1, 84247, Note_on_c, 0, 45, 73
1, 84254, Note_off_c, 0, 62, 63
1, 84263, Note_off_c, 0, 57, 72
1, 84266, Note_off_c, 0, 64, 62
1, 84274, Note_off_c, 0, 45, 66
1, 84346, Note_on_c, 0, 58, 92
1, 84352, Note_on_c, 0, 46, 84
1, 84372, Note_off_c, 0, 58, 67
1, 84378, Note_off_c, 0, 46, 67
1, 84480, Note_on_c, 0, 52, 100
1, 84487, Note_on_c, 0, 40, 88
1, 84603, Note_on_c, 0, 73, 88
1, 84608, Note_on_c, 0, 67, 74
1, 84608, Note_on_c, 0, 70, 77
1, 84619, Control_c, 0, 64, 18
1, 84633, Note_off_c, 0, 67, 68
1, 84634, Note_off_c, 0, 70, 68
1, 84634, Control_c, 0, 64, 19
1, 84643, Note_off_c, 0, 40, 64
1, 84644, Note_off_c, 0, 52, 60
1, 84645, Note_off_c, 0, 73, 60
1, 84648, Control_c, 0, 64, 21
1, 84663, Control_c, 0, 64, 22
1, 84678, Control_c, 0, 64, 23
1, 84726, Note_on_c, 0, 74, 94
1, 84731, Note_on_c, 0, 70, 85
1, 84734, Note_on_c, 0, 67, 81
1, 84753, Note_off_c, 0, 70, 68
1, 84756, Note_off_c, 0, 67, 71
1, 84766, Control_c, 0, 64, 22
1, 84771, Note_off_c, 0, 74, 64
1, 84797, Control_c, 0, 64, 22
1, 84812, Control_c, 0, 64, 20
1, 84827, Control_c, 0, 64, 19
1, 84842, Control_c, 0, 64, 17
1, 84849, Note_on_c, 0, 74, 91
1, 84851, Note_on_c, 0, 76, 98
1, 84857, Note_on_c, 0, 65, 81
1, 84857, Control_c, 0, 64, 16
1, 84871, Control_c, 0, 64, 15
1, 84875, Note_off_c, 0, 76, 65
1, 84878, Note_off_c, 0, 65, 71
1, 84886, Control_c, 0, 64, 14
1, 84895, Note_off_c, 0, 74, 67
1, 84901, Control_c, 0, 64, 12
1, 84915, Control_c, 0, 64, 9
1, 84945, Control_c, 0, 64, 0
1, 84966, Note_on_c, 0, 69, 101
1, 84972, Note_on_c, 0, 67, 91
1, 84978, Note_on_c, 0, 64, 77
1, 84999, Note_on_c, 0, 68, 24
1, 85000, Note_off_c, 0, 68, 127
1, 85079, Note_on_c, 0, 61, 67
1, 85087, Note_on_c, 0, 49, 60
1, 85112, Note_off_c, 0, 61, 62
1, 85118, Note_off_c, 0, 49, 65
1, 85177, Note_off_c, 0, 64, 59
1, 85207, Note_on_c, 0, 62, 93
1, 85210, Note_on_c, 0, 50, 88
1, 85228, Note_off_c, 0, 67, 61
1, 85234, Note_off_c, 0, 50, 70
1, 85237, Note_off_c, 0, 69, 65
1, 85243, Note_off_c, 0, 62, 63
1, 85321, Note_on_c, 0, 64, 97
1, 85327, Note_on_c, 0, 52, 94
1, 85351, Note_off_c, 0, 64, 66
1, 85353, Control_c, 0, 64, 9
1, 85356, Note_off_c, 0, 52, 68
1, 85368, Control_c, 0, 64, 12
1, 85383, Control_c, 0, 64, 14
1, 85455, Note_on_c, 0, 53, 107
1, 85461, Note_on_c, 0, 41, 95
1, 85577, Note_on_c, 0, 65, 79
1, 85579, Note_on_c, 0, 69, 79
1, 85579, Note_on_c, 0, 74, 81
1, 85604, Note_off_c, 0, 69, 69
1, 85606, Note_off_c, 0, 65, 64
1, 85622, Note_off_c, 0, 74, 60
1, 85670, Note_off_c, 0, 41, 63
1, 85670, Note_off_c, 0, 53, 64
1, 85699, Note_on_c, 0, 76, 92
1, 85700, Note_on_c, 0, 69, 89
1, 85702, Note_on_c, 0, 65, 84
1, 85726, Note_off_c, 0, 65, 67
1, 85736, Note_off_c, 0, 69, 61
1, 85748, Note_off_c, 0, 76, 66
1, 85814, Note_on_c, 0, 77, 104
1, 85823, Note_on_c, 0, 65, 83
1, 85843, Note_off_c, 0, 65, 70
1, 85850, Note_on_c, 0, 69, 43
1, 85851, Note_off_c, 0, 69, 127
1, 85860, Note_off_c, 0, 77, 65
1, 85935, Note_on_c, 0, 76, 106
1, 85948, Note_on_c, 0, 67, 94
1, 85950, Note_on_c, 0, 70, 77
1, 85969, Note_off_c, 0, 67, 68
1, 85972, Note_off_c, 0, 70, 71
1, 85991, Note_off_c, 0, 76, 65
1, 86062, Note_on_c, 0, 74, 95
1, 86072, Note_on_c, 0, 65, 80
1, 86079, Note_on_c, 0, 69, 72
1, 86093, Note_off_c, 0, 65, 68
1, 86095, Note_off_c, 0, 69, 66
1, 86108, Note_off_c, 0, 74, 64
1, 86173, Note_on_c, 0, 55, 87
1, 86177, Note_on_c, 0, 43, 80
1, 86184, Note_on_c, 0, 72, 89
1, 86193, Note_on_c, 0, 64, 74
1, 86196, Note_on_c, 0, 67, 71
1, 86215, Note_off_c, 0, 64, 70
1, 86221, Note_off_c, 0, 67, 69
1, 86222, Note_off_c, 0, 72, 61
1, 86291, Note_on_c, 0, 70, 93
1, 86296, Note_on_c, 0, 62, 84
1, 86310, Note_on_c, 0, 65, 55
1, 86316, Note_off_c, 0, 43, 60
1, 86322, Note_off_c, 0, 55, 55
1, 86325, Note_off_c, 0, 62, 67
1, 86334, Note_off_c, 0, 65, 38
1, 86339, Note_off_c, 0, 70, 66
1, 86414, Note_on_c, 0, 57, 94
1, 86415, Note_on_c, 0, 69, 80
1, 86420, Note_on_c, 0, 45, 85
1, 86421, Note_on_c, 0, 61, 78
1, 86424, Note_on_c, 0, 64, 63
1, 86429, Control_c, 0, 64, 13
1, 86443, Control_c, 0, 64, 0
1, 86449, Note_off_c, 0, 61, 66
1, 86452, Note_off_c, 0, 64, 67
1, 86455, Note_off_c, 0, 69, 61
1, 86533, Note_on_c, 0, 58, 84
1, 86534, Note_on_c, 0, 67, 81
1, 86541, Note_on_c, 0, 62, 67
1, 86571, Note_off_c, 0, 62, 66
1, 86581, Note_off_c, 0, 67, 62
1, 86585, Note_off_c, 0, 58, 59
1, 86602, Note_off_c, 0, 45, 62
1, 86606, Note_off_c, 0, 57, 63
1, 86653, Note_on_c, 0, 65, 87
1, 86657, Note_on_c, 0, 57, 77
1, 86662, Note_on_c, 0, 61, 79
1, 86690, Note_off_c, 0, 57, 68
1, 86692, Note_off_c, 0, 61, 69
1, 86704, Note_off_c, 0, 65, 60
1, 86772, Note_on_c, 0, 61, 70
1, 86778, Note_on_c, 0, 64, 72
1, 86787, Note_on_c, 0, 57, 63
1, 86802, Note_off_c, 0, 61, 64
1, 86808, Note_off_c, 0, 64, 62
1, 86808, Note_off_c, 0, 57, 63
1, 86919, Note_on_c, 0, 57, 38
1, 86923, Note_on_c, 0, 69, 62
1, 86942, Note_on_c, 0, 62, 39
1, 86961, Note_on_c, 0, 65, 20
1, 87026, Note_on_c, 0, 50, 49
1, 87032, Note_on_c, 0, 38, 45
1, 87056, Note_off_c, 0, 50, 63
1, 87063, Note_off_c, 0, 38, 52
1, 87156, Note_on_c, 0, 52, 46
1, 87160, Note_on_c, 0, 40, 41
1, 87181, Note_off_c, 0, 52, 57
1, 87184, Note_off_c, 0, 57, 61
1, 87194, Note_off_c, 0, 62, 56
1, 87198, Note_off_c, 0, 40, 54
1, 87217, Note_off_c, 0, 65, 42
1, 87217, Note_off_c, 0, 69, 48
1, 87261, Note_on_c, 0, 53, 56
1, 87262, Note_on_c, 0, 41, 59
1, 87285, Note_off_c, 0, 53, 59
1, 87291, Note_off_c, 0, 41, 55
1, 87401, Note_on_c, 0, 47, 40
1, 87407, Note_on_c, 0, 35, 42
1, 87531, Note_on_c, 0, 68, 56
1, 87539, Note_on_c, 0, 62, 44
1, 87543, Note_on_c, 0, 65, 37
1, 87548, Note_off_c, 0, 35, 54
1, 87551, Note_off_c, 0, 47, 52
1, 87565, Note_off_c, 0, 68, 64
1, 87567, Note_off_c, 0, 62, 53
1, 87575, Note_off_c, 0, 65, 47
1, 87649, Note_on_c, 0, 69, 70
1, 87649, Note_on_c, 0, 62, 55
1, 87654, Note_on_c, 0, 65, 57
1, 87676, Note_off_c, 0, 62, 63
1, 87677, Note_off_c, 0, 69, 64
1, 87679, Note_off_c, 0, 65, 62
1, 87762, Note_on_c, 0, 71, 78
1, 87771, Note_on_c, 0, 62, 55
1, 87774, Note_on_c, 0, 65, 48
1, 87786, Note_off_c, 0, 71, 66
1, 87797, Note_off_c, 0, 62, 63
1, 87798, Note_off_c, 0, 65, 56
1, 87893, Note_on_c, 0, 67, 69
1, 87911, Note_on_c, 0, 60, 48
1, 87914, Note_on_c, 0, 63, 47
1, 88009, Note_on_c, 0, 48, 51
1, 88010, Note_on_c, 0, 36, 51
1, 88036, Note_off_c, 0, 48, 59
1, 88043, Note_off_c, 0, 36, 62
1, 88123, Note_on_c, 0, 50, 71
1, 88132, Note_on_c, 0, 38, 57
1, 88150, Note_off_c, 0, 50, 66
1, 88159, Note_off_c, 0, 63, 56
1, 88159, Note_off_c, 0, 38, 58
1, 88162, Note_off_c, 0, 67, 61
1, 88163, Note_off_c, 0, 60, 57
1, 88245, Note_on_c, 0, 51, 81
1, 88247, Note_on_c, 0, 39, 75
1, 88270, Note_off_c, 0, 51, 68
1, 88275, Note_off_c, 0, 39, 67
1, 88376, Note_on_c, 0, 45, 87
1, 88382, Note_on_c, 0, 33, 81
1, 88501, Note_on_c, 0, 66, 78
1, 88504, Note_on_c, 0, 60, 75
1, 88507, Note_on_c, 0, 63, 75
1, 88522, Note_off_c, 0, 45, 63
1, 88529, Note_off_c, 0, 60, 69
1, 88531, Note_off_c, 0, 66, 63
1, 88532, Note_off_c, 0, 63, 68
1, 88534, Note_off_c, 0, 33, 62
1, 88618, Note_on_c, 0, 67, 93
1, 88619, Note_on_c, 0, 63, 75
1, 88621, Note_on_c, 0, 60, 88
1, 88644, Note_off_c, 0, 63, 69
1, 88645, Note_off_c, 0, 60, 67
1, 88665, Note_off_c, 0, 67, 65
1, 88734, Note_on_c, 0, 60, 104
1, 88735, Note_on_c, 0, 69, 103
1, 88767, Note_off_c, 0, 60, 69
1, 88778, Note_off_c, 0, 69, 66
1, 88862, Note_on_c, 0, 62, 93
1, 88870, Note_on_c, 0, 58, 87
1, 88990, Note_on_c, 0, 46, 84
1, 88994, Note_on_c, 0, 34, 78
1, 89026, Note_off_c, 0, 46, 63
1, 89026, Note_off_c, 0, 34, 66
1, 89076, Note_off_c, 0, 58, 59
1, 89103, Note_off_c, 0, 62, 63
1, 89111, Note_on_c, 0, 48, 94
1, 89116, Note_on_c, 0, 36, 83
1, 89139, Note_off_c, 0, 48, 67
1, 89143, Note_off_c, 0, 36, 64
1, 89215, Note_on_c, 0, 50, 98
1, 89221, Note_on_c, 0, 38, 87
1, 89247, Note_off_c, 0, 50, 67
1, 89250, Note_off_c, 0, 38, 68
1, 89356, Note_on_c, 0, 30, 90
1, 89357, Note_on_c, 0, 42, 94
1, 89387, Note_off_c, 0, 42, 63
1, 89408, Note_off_c, 0, 30, 62
1, 89472, Note_on_c, 0, 43, 87
1, 89475, Note_on_c, 0, 70, 88
1, 89477, Note_on_c, 0, 62, 83
1, 89477, Note_on_c, 0, 67, 79
1, 89478, Note_on_c, 0, 31, 75
1, 89502, Note_off_c, 0, 43, 67
1, 89508, Note_off_c, 0, 31, 63
1, 89508, Note_off_c, 0, 67, 66
1, 89515, Note_off_c, 0, 62, 58
1, 89524, Note_off_c, 0, 70, 64
1, 89589, Note_on_c, 0, 45, 77
1, 89592, Note_on_c, 0, 33, 72
1, 89598, Note_on_c, 0, 69, 90
1, 89598, Note_on_c, 0, 66, 77
1, 89599, Note_on_c, 0, 60, 86
1, 89614, Note_off_c, 0, 45, 67
1, 89620, Note_off_c, 0, 33, 64
1, 89625, Note_off_c, 0, 66, 68
1, 89625, Note_off_c, 0, 69, 64
1, 89626, Note_off_c, 0, 60, 67
1, 89711, Note_on_c, 0, 46, 76
1, 89724, Note_on_c, 0, 62, 73
1, 89724, Note_on_c, 0, 67, 82
1, 89728, Note_on_c, 0, 58, 78
1, 89734, Note_on_c, 0, 34, 41
1, 89740, Note_off_c, 0, 46, 63
1, 89752, Note_off_c, 0, 62, 67
1, 89755, Note_off_c, 0, 58, 66
1, 89768, Note_off_c, 0, 67, 62
1, 89773, Note_off_c, 0, 34, 51
1, 89834, Note_on_c, 0, 65, 78
1, 89837, Note_on_c, 0, 47, 78
1, 89843, Note_on_c, 0, 35, 66
1, 89849, Note_on_c, 0, 56, 63
1, 89851, Note_on_c, 0, 62, 66
1, 89863, Note_off_c, 0, 47, 65
1, 89872, Note_off_c, 0, 35, 63
1, 89879, Note_off_c, 0, 62, 66
1, 89881, Note_off_c, 0, 56, 66
1, 89896, Note_off_c, 0, 65, 62
1, 89948, Note_on_c, 0, 64, 77
1, 89950, Note_on_c, 0, 60, 74
1, 89951, Note_on_c, 0, 48, 71
1, 89953, Note_on_c, 0, 55, 73
1, 89957, Note_on_c, 0, 36, 63
1, 89978, Note_off_c, 0, 48, 66
1, 89981, Note_off_c, 0, 55, 66
1, 89981, Note_off_c, 0, 60, 66
1, 89987, Note_off_c, 0, 36, 62
1, 89990, Note_off_c, 0, 64, 60
1, 90065, Note_on_c, 0, 50, 70
1, 90069, Note_on_c, 0, 59, 73
1, 90071, Note_on_c, 0, 62, 69
1, 90072, Note_on_c, 0, 38, 56
1, 90077, Note_on_c, 0, 53, 64
1, 90093, Note_off_c, 0, 50, 66
1, 90098, Note_off_c, 0, 59, 67
1, 90100, Note_off_c, 0, 62, 67
1, 90102, Note_off_c, 0, 38, 57
1, 90108, Note_off_c, 0, 53, 65
1, 90180, Note_on_c, 0, 52, 71
1, 90186, Note_on_c, 0, 60, 79
1, 90188, Note_on_c, 0, 55, 73
1, 90189, Note_on_c, 0, 40, 59
1, 90207, Note_off_c, 0, 52, 67
1, 90218, Note_off_c, 0, 55, 67
1, 90218, Note_off_c, 0, 40, 56
1, 90220, Note_off_c, 0, 60, 65
1, 90297, Note_on_c, 0, 53, 81
1, 90302, Note_on_c, 0, 57, 84
1, 90302, Note_on_c, 0, 62, 85
1, 90303, Note_on_c, 0, 41, 69
1, 90323, Note_off_c, 0, 53, 68
1, 90335, Note_off_c, 0, 57, 66
1, 90335, Note_off_c, 0, 41, 65
1, 90349, Note_off_c, 0, 62, 60
1, 90415, Note_on_c, 0, 58, 93
1, 90417, Note_on_c, 0, 64, 87
1, 90418, Note_on_c, 0, 55, 90
1, 90434, Note_on_c, 0, 43, 74
1, 90452, Note_off_c, 0, 55, 65
1, 90461, Note_off_c, 0, 58, 67
1, 90465, Note_off_c, 0, 43, 65
1, 90478, Note_off_c, 0, 64, 65
1, 90541, Note_on_c, 0, 65, 97
1, 90545, Note_on_c, 0, 57, 93
1, 90545, Note_on_c, 0, 60, 88
1, 90550, Note_on_c, 0, 45, 76
1, 90567, Note_off_c, 0, 57, 70
1, 90567, Note_off_c, 0, 60, 70
1, 90577, Note_off_c, 0, 45, 67
1, 90585, Note_off_c, 0, 65, 66
1, 90651, Note_on_c, 0, 58, 99
1, 90654, Note_on_c, 0, 67, 93
1, 90656, Note_on_c, 0, 64, 92
1, 90659, Note_on_c, 0, 46, 76
1, 90681, Note_off_c, 0, 46, 67
1, 90683, Note_off_c, 0, 58, 62
1, 90683, Note_on_c, 0, 65, 54
1, 90684, Note_off_c, 0, 65, 127
1, 90692, Note_off_c, 0, 64, 66
1, 90711, Note_off_c, 0, 67, 66
1, 90796, Note_on_c, 0, 65, 94
1, 90797, Note_on_c, 0, 72, 99
1, 90799, Note_on_c, 0, 69, 92
1, 90927, Note_on_c, 0, 60, 75
1, 90930, Note_on_c, 0, 48, 68
1, 90953, Note_off_c, 0, 60, 68
1, 90961, Note_off_c, 0, 48, 65
1, 91050, Note_on_c, 0, 62, 95
1, 91054, Note_on_c, 0, 50, 84
1, 91074, Note_off_c, 0, 62, 66
1, 91076, Note_off_c, 0, 50, 68
1, 91157, Note_on_c, 0, 63, 96
1, 91159, Note_on_c, 0, 51, 98
1, 91189, Note_off_c, 0, 63, 68
1, 91192, Note_off_c, 0, 51, 67
1, 91259, Note_off_c, 0, 65, 58
1, 91287, Note_off_c, 0, 72, 62
1, 91294, Note_on_c, 0, 53, 101
1, 91296, Note_off_c, 0, 69, 62
1, 91300, Note_on_c, 0, 41, 88
1, 91418, Note_on_c, 0, 62, 71
1, 91421, Note_on_c, 0, 71, 73
1, 91423, Note_on_c, 0, 65, 62
1, 91446, Note_off_c, 0, 62, 67
1, 91448, Note_off_c, 0, 71, 64
1, 91454, Note_off_c, 0, 65, 66
1, 91492, Note_off_c, 0, 53, 64
1, 91503, Note_off_c, 0, 41, 62
1, 91542, Note_on_c, 0, 64, 66
1, 91543, Note_on_c, 0, 67, 66
1, 91545, Note_on_c, 0, 71, 65
1, 91570, Note_off_c, 0, 64, 67
1, 91575, Note_off_c, 0, 67, 64
1, 91576, Note_off_c, 0, 71, 65
1, 91664, Note_on_c, 0, 65, 60
1, 91665, Note_on_c, 0, 71, 58
1, 91676, Note_on_c, 0, 68, 58
1, 91694, Note_off_c, 0, 71, 65
1, 91695, Note_off_c, 0, 65, 64
1, 91706, Note_off_c, 0, 68, 63
1, 91782, Note_on_c, 0, 71, 67
1, 91784, Note_on_c, 0, 64, 66
1, 91786, Note_on_c, 0, 67, 64
1, 91813, Note_off_c, 0, 64, 66
1, 91815, Note_off_c, 0, 67, 67
1, 91815, Note_off_c, 0, 71, 63
1, 91898, Note_on_c, 0, 65, 58
1, 91909, Note_on_c, 0, 68, 59
1, 91915, Note_on_c, 0, 71, 46
1, 91937, Note_off_c, 0, 65, 65
1, 91946, Note_off_c, 0, 71, 57
1, 91949, Note_off_c, 0, 68, 64
1, 92015, Note_on_c, 0, 55, 58
1, 92017, Note_on_c, 0, 71, 64
1, 92019, Note_on_c, 0, 43, 53
1, 92028, Note_on_c, 0, 64, 64
1, 92042, Note_on_c, 0, 67, 39
1, 92047, Note_off_c, 0, 55, 66
1, 92051, Note_off_c, 0, 43, 63
1, 92052, Note_off_c, 0, 71, 60
1, 92058, Note_off_c, 0, 64, 66
1, 92069, Note_off_c, 0, 67, 52
1, 92123, Note_on_c, 0, 65, 21
1, 92133, Note_on_c, 0, 62, 56
1, 92161, Note_off_c, 0, 62, 63
1, 92177, Note_off_c, 0, 65, 59
1, 92199, Poly_aftertouch_c, 0, 71, 0
1, 92247, Note_on_c, 0, 36, 37
1, 92250, Note_on_c, 0, 48, 37
1, 92266, Note_on_c, 0, 71, 36
1, 92296, Note_off_c, 0, 71, 59
1, 92374, Note_on_c, 0, 62, 51
1, 92410, Note_off_c, 0, 62, 64
1, 92415, Note_off_c, 0, 36, 56
1, 92417, Note_off_c, 0, 48, 56
1, 92496, Note_on_c, 0, 72, 60
1, 92502, Note_on_c, 0, 64, 48
1, 92518, Note_on_c, 0, 67, 27
1, 92526, Note_off_c, 0, 64, 59
1, 92533, Note_off_c, 0, 72, 61
1, 92552, Note_off_c, 0, 67, 40
1, 92598, Note_on_c, 0, 60, 58
1, 92630, Note_off_c, 0, 60, 64
1, 92736, Note_on_c, 0, 74, 94
1, 92742, Note_on_c, 0, 67, 93
1, 92747, Note_on_c, 0, 71, 84
1, 92849, Note_on_c, 0, 62, 84
1, 92854, Note_on_c, 0, 50, 75
1, 92874, Note_off_c, 0, 62, 68
1, 92878, Note_off_c, 0, 50, 67
1, 92964, Note_on_c, 0, 64, 95
1, 92969, Note_on_c, 0, 52, 85
1, 92992, Note_off_c, 0, 52, 71
1, 92992, Note_off_c, 0, 64, 66
1, 93069, Note_on_c, 0, 65, 101
1, 93072, Note_on_c, 0, 53, 90
1, 93099, Note_off_c, 0, 65, 65
1, 93118, Note_off_c, 0, 53, 62
1, 93134, Note_off_c, 0, 67, 60
1, 93149, Note_off_c, 0, 74, 59
1, 93167, Note_off_c, 0, 71, 58
1, 93205, Note_on_c, 0, 55, 95
1, 93209, Note_on_c, 0, 43, 88
1, 93324, Note_on_c, 0, 64, 67
1, 93327, Note_on_c, 0, 73, 68
1, 93332, Note_on_c, 0, 67, 57
1, 93352, Note_off_c, 0, 64, 67
1, 93365, Note_off_c, 0, 67, 64
1, 93366, Note_off_c, 0, 73, 60
1, 93413, Note_off_c, 0, 55, 59
1, 93418, Note_off_c, 0, 43, 62
1, 93459, Note_on_c, 0, 69, 65
1, 93460, Note_on_c, 0, 65, 64
1, 93462, Note_on_c, 0, 73, 68
1, 93487, Note_off_c, 0, 69, 64
1, 93490, Note_off_c, 0, 73, 66
1, 93491, Note_off_c, 0, 65, 66
1, 93568, Note_on_c, 0, 67, 76
1, 93575, Note_on_c, 0, 73, 65
1, 93586, Note_on_c, 0, 70, 61
1, 93595, Note_off_c, 0, 67, 67
1, 93603, Note_off_c, 0, 73, 68
1, 93616, Note_off_c, 0, 70, 67
1, 93697, Note_on_c, 0, 69, 69
1, 93697, Note_on_c, 0, 73, 66
1, 93700, Note_on_c, 0, 65, 63
1, 93723, Note_off_c, 0, 69, 68
1, 93727, Note_off_c, 0, 65, 63
1, 93727, Note_off_c, 0, 73, 65
1, 93804, Note_on_c, 0, 67, 67
1, 93809, Note_on_c, 0, 73, 61
1, 93819, Note_on_c, 0, 70, 21
1, 93834, Note_off_c, 0, 67, 65
1, 93839, Note_off_c, 0, 73, 67
1, 93846, Note_off_c, 0, 70, 54
1, 93922, Note_on_c, 0, 73, 59
1, 93927, Note_on_c, 0, 65, 57
1, 93928, Note_on_c, 0, 45, 51
1, 93930, Note_on_c, 0, 57, 53
1, 93931, Note_on_c, 0, 69, 51
1, 93953, Note_off_c, 0, 69, 59
1, 93954, Note_off_c, 0, 65, 62
1, 93959, Note_off_c, 0, 57, 65
1, 93960, Note_off_c, 0, 73, 60
1, 93964, Note_off_c, 0, 45, 63
1, 94030, Note_on_c, 0, 67, 59
1, 94034, Note_on_c, 0, 64, 48
1, 94063, Note_off_c, 0, 64, 57
1, 94064, Note_off_c, 0, 67, 65
1, 94138, Note_on_c, 0, 46, 42
1, 94146, Note_on_c, 0, 58, 45
1, 94156, Note_on_c, 0, 70, 59
1, 94161, Note_on_c, 0, 73, 52
1, 94195, Note_off_c, 0, 73, 64
1, 94196, Note_off_c, 0, 70, 65
1, 94276, Note_on_c, 0, 64, 53
1, 94295, Note_off_c, 0, 46, 47
1, 94302, Note_off_c, 0, 58, 58
1, 94308, Note_off_c, 0, 64, 65
1, 94385, Note_on_c, 0, 74, 67
1, 94386, Note_on_c, 0, 65, 57
1, 94390, Note_on_c, 0, 70, 56
1, 94414, Note_off_c, 0, 65, 63
1, 94424, Note_off_c, 0, 70, 66
1, 94424, Note_off_c, 0, 74, 60
1, 94511, Note_on_c, 0, 62, 26
1, 94547, Note_off_c, 0, 62, 45
1, 94627, Note_on_c, 0, 77, 93
1, 94640, Note_on_c, 0, 70, 80
1, 94643, Note_on_c, 0, 74, 74
1, 94738, Note_on_c, 0, 46, 51
1, 94741, Note_on_c, 0, 58, 46
1, 94771, Note_off_c, 0, 46, 63
1, 94773, Note_off_c, 0, 58, 63
1, 94860, Note_on_c, 0, 60, 66
1, 94863, Note_on_c, 0, 48, 60
1, 94889, Note_off_c, 0, 60, 67
1, 94889, Note_off_c, 0, 48, 62
1, 94979, Note_on_c, 0, 62, 81
1, 94983, Note_on_c, 0, 50, 76
1, 95003, Note_off_c, 0, 62, 71
1, 95013, Note_off_c, 0, 50, 68
1, 95103, Note_off_c, 0, 70, 56
1, 95114, Note_off_c, 0, 77, 61
1, 95118, Note_on_c, 0, 55, 88
1, 95123, Note_on_c, 0, 43, 80
1, 95142, Note_off_c, 0, 74, 61
1, 95229, Note_on_c, 0, 75, 98
1, 95236, Note_on_c, 0, 67, 81
1, 95244, Note_on_c, 0, 70, 64
1, 95259, Note_off_c, 0, 67, 69
1, 95265, Note_off_c, 0, 70, 65
1, 95265, Note_off_c, 0, 43, 63
1, 95274, Note_off_c, 0, 75, 64
1, 95279, Note_off_c, 0, 55, 63
1, 95352, Note_on_c, 0, 57, 89
1, 95358, Note_on_c, 0, 74, 96
1, 95360, Note_on_c, 0, 45, 77
1, 95360, Note_on_c, 0, 65, 90
1, 95390, Note_off_c, 0, 65, 66
1, 95399, Note_off_c, 0, 74, 65
1, 95478, Note_on_c, 0, 72, 89
1, 95484, Note_on_c, 0, 65, 80
1, 95511, Note_off_c, 0, 65, 64
1, 95527, Note_off_c, 0, 45, 63
1, 95533, Note_off_c, 0, 72, 62
1, 95566, Note_off_c, 0, 57, 63
1, 95611, Note_on_c, 0, 65, 100
1, 95611, Note_on_c, 0, 77, 105
1, 95618, Note_on_c, 0, 70, 87
1, 95624, Note_on_c, 0, 74, 82
1, 95747, Note_on_c, 0, 58, 72
1, 95752, Note_on_c, 0, 46, 63
1, 95775, Note_off_c, 0, 58, 65
1, 95781, Note_off_c, 0, 46, 66
1, 95869, Note_on_c, 0, 60, 88
1, 95873, Note_on_c, 0, 48, 82
1, 95900, Note_off_c, 0, 60, 67
1, 95900, Note_off_c, 0, 48, 67
1, 95980, Note_on_c, 0, 62, 91
1, 95994, Note_on_c, 0, 50, 69
1, 96004, Note_off_c, 0, 62, 68
1, 96008, Note_on_c, 0, 52, 49
1, 96023, Note_off_c, 0, 50, 65
1, 96033, Note_off_c, 0, 52, 57
1, 96095, Note_off_c, 0, 65, 59
1, 96111, Note_on_c, 0, 55, 98
1, 96118, Note_on_c, 0, 43, 88
1, 96130, Note_off_c, 0, 77, 63
1, 96135, Note_off_c, 0, 70, 63
1, 96135, Note_off_c, 0, 74, 59
1, 96240, Note_on_c, 0, 75, 104
1, 96242, Note_on_c, 0, 67, 95
1, 96252, Note_on_c, 0, 70, 74
1, 96269, Note_off_c, 0, 67, 66
1, 96274, Note_off_c, 0, 70, 70
1, 96282, Note_off_c, 0, 75, 63
1, 96289, Note_off_c, 0, 43, 64
1, 96296, Note_off_c, 0, 55, 63
1, 96365, Note_on_c, 0, 57, 98
1, 96368, Note_on_c, 0, 65, 99
1, 96368, Note_on_c, 0, 74, 103
1, 96371, Note_on_c, 0, 45, 86
1, 96406, Note_off_c, 0, 65, 66
1, 96422, Note_off_c, 0, 74, 64
1, 96504, Note_on_c, 0, 72, 98
1, 96506, Note_on_c, 0, 65, 88
1, 96538, Note_off_c, 0, 65, 63
1, 96569, Note_off_c, 0, 72, 61
1, 96577, Note_off_c, 0, 45, 62
1, 96626, Note_off_c, 0, 57, 62
1, 96657, Note_on_c, 0, 65, 100
1, 96657, Note_on_c, 0, 77, 104
1, 96661, Note_on_c, 0, 70, 95
1, 96669, Note_on_c, 0, 74, 78
1, 96800, Note_on_c, 0, 58, 71
1, 96806, Note_on_c, 0, 46, 59
1, 96833, Note_off_c, 0, 58, 65
1, 96837, Note_off_c, 0, 46, 65
1, 96930, Note_on_c, 0, 60, 95
1, 96937, Note_on_c, 0, 48, 81
1, 96964, Note_off_c, 0, 48, 67
1, 96964, Note_off_c, 0, 60, 66
1, 97049, Note_on_c, 0, 62, 97
1, 97056, Note_on_c, 0, 50, 86
1, 97079, Note_off_c, 0, 62, 65
1, 97083, Note_off_c, 0, 50, 69
1, 97181, Note_off_c, 0, 65, 56
1, 97182, Note_off_c, 0, 70, 49
1, 97182, Note_off_c, 0, 74, 58
1, 97191, Note_off_c, 0, 77, 56
1, 97211, Note_on_c, 0, 55, 100
1, 97217, Note_on_c, 0, 43, 85
1, 97352, Note_on_c, 0, 75, 88
1, 97355, Note_on_c, 0, 70, 79
1, 97358, Note_on_c, 0, 67, 76
1, 97379, Note_off_c, 0, 67, 70
1, 97381, Note_off_c, 0, 70, 56
1, 97402, Note_off_c, 0, 75, 63
1, 97474, Note_off_c, 0, 43, 60
1, 97492, Note_on_c, 0, 67, 88
1, 97495, Note_on_c, 0, 77, 92
1, 97495, Note_on_c, 0, 70, 87
1, 97501, Note_off_c, 0, 55, 63
1, 97507, Note_on_c, 0, 78, 68
1, 97508, Note_off_c, 0, 78, 127
1, 97516, Note_off_c, 0, 67, 67
1, 97517, Note_on_c, 0, 75, 49
1, 97518, Note_off_c, 0, 70, 65
1, 97538, Note_off_c, 0, 75, 56
1, 97548, Note_off_c, 0, 77, 65
1, 97623, Note_on_c, 0, 79, 97
1, 97627, Note_on_c, 0, 67, 94
1, 97628, Note_on_c, 0, 70, 91
1, 97657, Note_off_c, 0, 70, 64
1, 97680, Note_off_c, 0, 67, 60
1, 97687, Note_off_c, 0, 79, 65
1, 97775, Note_on_c, 0, 74, 95
1, 97781, Note_on_c, 0, 69, 84
1, 97785, Note_on_c, 0, 65, 83
1, 97896, Note_off_c, 0, 69, 57
1, 97897, Note_on_c, 0, 53, 81
1, 97902, Note_on_c, 0, 41, 75
1, 97947, Note_off_c, 0, 41, 66
1, 97947, Note_off_c, 0, 53, 60
1, 97989, Note_off_c, 0, 74, 63
1, 97996, Note_off_c, 0, 65, 61
1, 98047, Note_on_c, 0, 55, 92
1, 98055, Note_on_c, 0, 43, 77
1, 98055, Note_on_c, 0, 64, 93
1, 98058, Note_on_c, 0, 73, 98
1, 98065, Note_on_c, 0, 67, 75
1, 98071, Note_on_c, 0, 69, 63
1, 98079, Note_off_c, 0, 55, 64
1, 98082, Note_off_c, 0, 43, 65
1, 98108, Note_on_c, 0, 70, 36
1, 98143, Note_off_c, 0, 70, 33
1, 98175, Note_on_c, 0, 57, 92
1, 98181, Note_on_c, 0, 45, 82
1, 98186, Note_off_c, 0, 69, 47
1, 98201, Note_off_c, 0, 67, 48
1, 98210, Note_off_c, 0, 57, 64
1, 98211, Note_off_c, 0, 45, 67
1, 98253, Note_off_c, 0, 73, 63
1, 98270, Note_off_c, 0, 64, 63
1, 98314, Note_on_c, 0, 65, 94
1, 98314, Note_on_c, 0, 74, 93
1, 98317, Note_on_c, 0, 50, 78
1, 98321, Note_on_c, 0, 69, 86
1, 98323, Note_on_c, 0, 38, 73
1, 98340, Note_off_c, 0, 50, 67
1, 98350, Note_off_c, 0, 38, 64
1, 98463, Note_on_c, 0, 41, 85
1, 98464, Note_on_c, 0, 29, 79
1, 98498, Note_off_c, 0, 41, 66
1, 98502, Note_off_c, 0, 29, 64
1, 98550, Note_off_c, 0, 74, 58
1, 98580, Note_off_c, 0, 69, 66
1, 98583, Note_off_c, 0, 65, 59
1, 98592, Note_on_c, 0, 43, 100
1, 98598, Note_on_c, 0, 31, 84
1, 98627, Note_off_c, 0, 31, 68
1, 98627, Note_off_c, 0, 43, 62
1, 98714, Note_on_c, 0, 45, 95
1, 98718, Note_on_c, 0, 33, 86
1, 98756, Note_off_c, 0, 45, 63
1, 98761, Note_off_c, 0, 33, 61
1, 98854, Note_on_c, 0, 38, 89
1, 98858, Note_on_c, 0, 26, 88
1, 98860, Note_on_c, 0, 69, 84
1, 98904, Note_off_c, 0, 69, 65
1, 98975, Note_on_c, 0, 65, 69
1, 99004, Note_off_c, 0, 26, 62
1, 99004, Note_off_c, 0, 65, 67
1, 99054, Note_off_c, 0, 38, 61
1, 99084, Note_on_c, 0, 65, 75
1, 99104, Note_on_c, 0, 64, 73
1, 99110, Note_off_c, 0, 65, 68
1, 99128, Note_off_c, 0, 64, 69
1, 99218, Note_on_c, 0, 62, 56
1, 99251, Note_off_c, 0, 62, 63
1, 99333, Note_on_c, 0, 59, 49
1, 99343, Note_on_c, 0, 68, 53
1, 99359, Note_off_c, 0, 59, 55
1, 99376, Note_off_c, 0, 68, 63
1, 99455, Note_on_c, 0, 56, 35
1, 99463, Note_on_c, 0, 69, 51
1, 99489, Note_off_c, 0, 56, 46
1, 99492, Note_off_c, 0, 69, 63
1, 99572, Note_on_c, 0, 54, 43
1, 99573, Note_on_c, 0, 71, 58
1, 99590, Note_on_c, 0, 56, 12
1, 99601, Note_off_c, 0, 54, 59
1, 99606, Note_off_c, 0, 71, 63
1, 99625, Note_off_c, 0, 56, 41
1, 99678, Note_on_c, 0, 52, 53
1, 99683, Note_on_c, 0, 64, 53
1, 99705, Note_off_c, 0, 52, 64
1, 99721, Note_off_c, 0, 64, 62
1, 99802, Note_on_c, 0, 74, 62
1, 99802, Note_on_c, 0, 58, 54
1, 99833, Note_off_c, 0, 58, 64
1, 99838, Note_off_c, 0, 74, 62
1, 99924, Note_on_c, 0, 60, 49
1, 99926, Note_on_c, 0, 70, 63
1, 99949, Note_off_c, 0, 60, 60
1, 99955, Note_off_c, 0, 70, 68
1, 100026, Note_on_c, 0, 70, 68
1, 100040, Note_on_c, 0, 69, 74
1, 100046, Note_on_c, 0, 62, 48
1, 100054, Note_off_c, 0, 70, 68
1, 100073, Note_off_c, 0, 62, 60
1, 100082, Note_off_c, 0, 69, 59
1, 100154, Note_on_c, 0, 55, 56
1, 100158, Note_on_c, 0, 67, 55
1, 100187, Note_off_c, 0, 55, 61
1, 100190, Note_off_c, 0, 67, 62
1, 100275, Note_on_c, 0, 64, 67
1, 100277, Note_on_c, 0, 73, 66
1, 100303, Note_off_c, 0, 64, 67
1, 100306, Note_off_c, 0, 73, 67
1, 100387, Note_on_c, 0, 74, 74
1, 100389, Note_on_c, 0, 61, 54
1, 100412, Note_off_c, 0, 61, 59
1, 100417, Note_off_c, 0, 74, 62
1, 100495, Note_on_c, 0, 61, 51
1, 100500, Note_on_c, 0, 76, 81
1, 100523, Note_on_c, 0, 59, 52
1, 100528, Note_off_c, 0, 61, 60
1, 100536, Note_off_c, 0, 76, 64
1, 100559, Note_off_c, 0, 59, 61
1, 100602, Note_on_c, 0, 57, 50
1, 100609, Note_on_c, 0, 69, 76
1, 100627, Note_off_c, 0, 57, 58
1, 100642, Note_off_c, 0, 69, 65
1, 100730, Note_on_c, 0, 65, 64
1, 100735, Note_on_c, 0, 81, 79
1, 100762, Note_off_c, 0, 65, 65
1, 100773, Note_off_c, 0, 81, 65
1, 100860, Note_on_c, 0, 74, 73
1, 100865, Note_on_c, 0, 67, 58
1, 100884, Note_off_c, 0, 74, 69
1, 100885, Note_off_c, 0, 67, 63
1, 100978, Note_on_c, 0, 73, 78
1, 100982, Note_on_c, 0, 69, 56
1, 101006, Note_off_c, 0, 73, 63
1, 101012, Note_off_c, 0, 69, 64
1, 101091, Note_on_c, 0, 79, 82
1, 101093, Note_on_c, 0, 61, 46
1, 101123, Note_off_c, 0, 79, 66
1, 101127, Note_off_c, 0, 61, 62
1, 101214, Note_on_c, 0, 73, 72
1, 101234, Note_on_c, 0, 64, 41
1, 101239, Note_off_c, 0, 73, 70
1, 101263, Note_off_c, 0, 64, 54
1, 101324, Note_on_c, 0, 79, 76
1, 101334, Note_on_c, 0, 57, 45
1, 101356, Note_off_c, 0, 79, 62
1, 101360, Note_off_c, 0, 57, 60
1, 101442, Note_on_c, 0, 78, 69
1, 101456, Note_on_c, 0, 62, 47
1, 101476, Note_off_c, 0, 78, 62
1, 101482, Note_off_c, 0, 62, 57
1, 101552, Note_on_c, 0, 74, 63
1, 101565, Note_on_c, 0, 60, 48
1, 101583, Note_off_c, 0, 74, 65
1, 101590, Note_off_c, 0, 60, 58
1, 101674, Note_on_c, 0, 77, 65
1, 101681, Note_on_c, 0, 59, 49
1, 101707, Note_off_c, 0, 59, 59
1, 101709, Note_off_c, 0, 77, 61
1, 101787, Note_on_c, 0, 62, 59
1, 101789, Note_on_c, 0, 69, 64
1, 101820, Note_off_c, 0, 62, 65
1, 101820, Note_off_c, 0, 69, 66
1, 101907, Note_on_c, 0, 68, 55
1, 101910, Note_on_c, 0, 64, 60
1, 101941, Note_off_c, 0, 64, 66
1, 101941, Note_off_c, 0, 68, 63
1, 102020, Note_on_c, 0, 62, 60
1, 102020, Note_on_c, 0, 76, 62
1, 102052, Note_off_c, 0, 62, 65
1, 102056, Note_off_c, 0, 76, 62
1, 102138, Note_on_c, 0, 61, 49
1, 102141, Note_on_c, 0, 67, 51
1, 102164, Note_off_c, 0, 61, 61
1, 102176, Note_off_c, 0, 67, 63
1, 102247, Note_on_c, 0, 74, 49
1, 102251, Note_on_c, 0, 58, 47
1, 102283, Note_off_c, 0, 58, 58
1, 102285, Note_off_c, 0, 74, 61
1, 102371, Note_on_c, 0, 57, 53
1, 102376, Note_on_c, 0, 73, 53
1, 102395, Note_off_c, 0, 57, 59
1, 102427, Note_off_c, 0, 73, 60
1, 102506, Note_on_c, 0, 69, 44
1, 102541, Note_off_c, 0, 69, 60
1, 102619, Note_on_c, 0, 57, 61
1, 102647, Note_off_c, 0, 57, 65
1, 102721, Note_on_c, 0, 53, 61
1, 102752, Note_off_c, 0, 53, 65
1, 102825, Note_on_c, 0, 53, 68
1, 102845, Note_on_c, 0, 52, 65
1, 102860, Note_off_c, 0, 53, 60
1, 102873, Note_off_c, 0, 52, 65
1, 102955, Note_on_c, 0, 50, 67
1, 102982, Note_off_c, 0, 50, 66
1, 103068, Note_on_c, 0, 77, 55
1, 103072, Note_on_c, 0, 56, 57
1, 103104, Note_off_c, 0, 56, 66
1, 103105, Note_off_c, 0, 77, 64
1, 103193, Note_on_c, 0, 59, 62
1, 103195, Note_on_c, 0, 74, 52
1, 103218, Note_off_c, 0, 74, 62
1, 103221, Note_off_c, 0, 59, 64
1, 103295, Note_on_c, 0, 74, 66
1, 103303, Note_on_c, 0, 62, 80
1, 103311, Note_on_c, 0, 72, 76
1, 103324, Note_off_c, 0, 74, 67
1, 103338, Note_off_c, 0, 62, 63
1, 103349, Note_off_c, 0, 72, 63
1, 103420, Note_on_c, 0, 65, 84
1, 103430, Note_on_c, 0, 71, 71
1, 103450, Note_off_c, 0, 65, 64
1, 103457, Note_off_c, 0, 71, 69
1, 103539, Note_on_c, 0, 67, 81
1, 103543, Note_on_c, 0, 75, 77
1, 103570, Note_off_c, 0, 75, 63
1, 103576, Note_off_c, 0, 67, 62
1, 103648, Note_on_c, 0, 77, 90
1, 103650, Note_on_c, 0, 63, 76
1, 103682, Note_off_c, 0, 63, 62
1, 103691, Note_off_c, 0, 77, 62
1, 103758, Note_on_c, 0, 62, 47
1, 103762, Note_on_c, 0, 63, 72
1, 103766, Note_on_c, 0, 79, 90
1, 103795, Note_off_c, 0, 63, 62
1, 103802, Note_off_c, 0, 79, 67
1, 103802, Note_off_c, 0, 62, 62
1, 103874, Note_on_c, 0, 72, 84
1, 103876, Note_on_c, 0, 60, 79
1, 103899, Note_off_c, 0, 60, 70
1, 103924, Note_off_c, 0, 72, 64
1, 104003, Note_on_c, 0, 84, 93
1, 104019, Note_on_c, 0, 67, 71
1, 104046, Note_off_c, 0, 67, 68
1, 104051, Note_off_c, 0, 84, 66
1, 104119, Note_on_c, 0, 81, 92
1, 104121, Note_on_c, 0, 69, 89
1, 104146, Note_off_c, 0, 69, 67
1, 104160, Note_off_c, 0, 81, 67
1, 104237, Note_on_c, 0, 72, 93
1, 104241, Note_on_c, 0, 81, 85
1, 104249, Note_on_c, 0, 79, 85
1, 104260, Note_off_c, 0, 81, 71
1, 104285, Note_off_c, 0, 79, 66
1, 104287, Note_off_c, 0, 72, 64
1, 104367, Note_on_c, 0, 75, 93
1, 104372, Note_on_c, 0, 78, 92
1, 104412, Note_off_c, 0, 75, 64
1, 104413, Note_off_c, 0, 78, 62
1, 104509, Note_on_c, 0, 82, 93
1, 104549, Note_off_c, 0, 82, 65
1, 104641, Note_on_c, 0, 74, 62
1, 104642, Note_on_c, 0, 86, 88
1, 104676, Note_off_c, 0, 74, 63
1, 104700, Note_off_c, 0, 86, 63
1, 104767, Note_on_c, 0, 73, 70
1, 104768, Note_on_c, 0, 78, 85
1, 104796, Note_off_c, 0, 73, 64
1, 104807, Note_off_c, 0, 78, 60
1, 104878, Note_on_c, 0, 81, 83
1, 104883, Note_on_c, 0, 72, 70
1, 104910, Note_off_c, 0, 72, 69
1, 104924, Note_off_c, 0, 81, 64
1, 104996, Note_on_c, 0, 79, 70
1, 104999, Note_on_c, 0, 71, 78
1, 105022, Note_off_c, 0, 79, 69
1, 105023, Note_off_c, 0, 71, 67
1, 105107, Note_on_c, 0, 82, 78
1, 105109, Note_on_c, 0, 70, 80
1, 105141, Note_off_c, 0, 70, 63
1, 105148, Note_off_c, 0, 82, 61
1, 105224, Note_on_c, 0, 69, 79
1, 105227, Note_on_c, 0, 76, 81
1, 105251, Note_off_c, 0, 76, 67
1, 105253, Note_off_c, 0, 69, 65
1, 105341, Note_on_c, 0, 77, 84
1, 105344, Note_on_c, 0, 68, 77
1, 105370, Note_off_c, 0, 77, 64
1, 105373, Note_off_c, 0, 68, 63
1, 105464, Note_on_c, 0, 76, 77
1, 105466, Note_on_c, 0, 67, 76
1, 105498, Note_off_c, 0, 67, 66
1, 105499, Note_off_c, 0, 76, 60
1, 105582, Note_on_c, 0, 66, 66
1, 105609, Note_on_c, 0, 79, 31
1, 105612, Note_on_c, 0, 81, 26
1, 105615, Note_off_c, 0, 66, 62
1, 105638, Note_off_c, 0, 79, 46
1, 105645, Note_off_c, 0, 81, 32
1, 105703, Note_on_c, 0, 65, 63
1, 105706, Note_on_c, 0, 71, 56
1, 105734, Note_off_c, 0, 71, 64
1, 105735, Note_off_c, 0, 65, 65
1, 105817, Note_on_c, 0, 72, 53
1, 105820, Note_on_c, 0, 64, 48
1, 105843, Note_off_c, 0, 64, 59
1, 105844, Note_off_c, 0, 72, 63
1, 105929, Note_on_c, 0, 71, 58
1, 105945, Note_on_c, 0, 63, 32
1, 105964, Note_off_c, 0, 71, 58
1, 105971, Note_off_c, 0, 63, 49
1, 106047, Note_on_c, 0, 77, 61
1, 106059, Note_on_c, 0, 62, 53
1, 106085, Note_off_c, 0, 62, 63
1, 106086, Note_off_c, 0, 77, 60
1, 106178, Note_on_c, 0, 71, 58
1, 106199, Note_on_c, 0, 61, 36
1, 106221, Note_off_c, 0, 71, 60
1, 106229, Note_off_c, 0, 61, 50
1, 106319, Note_on_c, 0, 72, 57
1, 106325, Note_on_c, 0, 60, 47
1, 106358, Note_off_c, 0, 72, 64
1, 106359, Note_off_c, 0, 60, 65
1, 106461, Note_on_c, 0, 70, 54
1, 106499, Note_off_c, 0, 70, 65
1, 106592, Note_on_c, 0, 67, 49
1, 106616, Note_off_c, 0, 67, 59
1, 106701, Note_on_c, 0, 67, 49
1, 106714, Note_on_c, 0, 58, 50
1, 106728, Note_on_c, 0, 65, 60
1, 106739, Note_off_c, 0, 67, 65
1, 106750, Note_off_c, 0, 58, 64
1, 106766, Note_off_c, 0, 65, 62
1, 106848, Note_on_c, 0, 64, 45
1, 106849, Note_on_c, 0, 55, 47
1, 106876, Note_off_c, 0, 64, 59
1, 106887, Note_off_c, 0, 55, 61
1, 106974, Note_on_c, 0, 72, 62
1, 106979, Note_on_c, 0, 53, 46
1, 107010, Note_off_c, 0, 72, 62
1, 107013, Note_off_c, 0, 53, 62
1, 107088, Note_on_c, 0, 52, 48
1, 107096, Note_on_c, 0, 69, 45
1, 107118, Note_off_c, 0, 52, 59
1, 107120, Note_off_c, 0, 69, 55
1, 107205, Note_on_c, 0, 69, 55
1, 107218, Note_on_c, 0, 60, 53
1, 107235, Note_off_c, 0, 69, 65
1, 107236, Note_on_c, 0, 67, 55
1, 107242, Note_off_c, 0, 60, 59
1, 107260, Note_off_c, 0, 67, 63
1, 107333, Note_on_c, 0, 65, 46
1, 107335, Note_on_c, 0, 57, 50
1, 107359, Note_off_c, 0, 65, 58
1, 107363, Note_off_c, 0, 57, 64
1, 107466, Note_on_c, 0, 72, 55
1, 107468, Note_on_c, 0, 55, 43
1, 107499, Note_off_c, 0, 55, 58
1, 107501, Note_off_c, 0, 72, 64
1, 107579, Note_on_c, 0, 53, 42
1, 107584, Note_on_c, 0, 69, 55
1, 107609, Note_off_c, 0, 53, 58
1, 107615, Note_off_c, 0, 69, 64
1, 107710, Note_on_c, 0, 60, 56
1, 107710, Note_on_c, 0, 69, 57
1, 107729, Note_on_c, 0, 67, 63
1, 107731, Note_off_c, 0, 69, 64
1, 107750, Note_off_c, 0, 60, 63
1, 107759, Note_off_c, 0, 67, 65
1, 107829, Note_on_c, 0, 57, 68
1, 107833, Note_on_c, 0, 66, 68
1, 107868, Note_off_c, 0, 57, 65
1, 107868, Note_off_c, 0, 66, 64
1, 107955, Note_on_c, 0, 55, 67
1, 107963, Note_on_c, 0, 74, 70
1, 107990, Note_off_c, 0, 74, 67
1, 107996, Note_off_c, 0, 55, 61
1, 108068, Note_on_c, 0, 54, 78
1, 108077, Note_on_c, 0, 70, 78
1, 108104, Note_off_c, 0, 54, 64
1, 108108, Note_off_c, 0, 70, 64
1, 108190, Note_on_c, 0, 62, 75
1, 108195, Note_on_c, 0, 70, 65
1, 108199, Note_on_c, 0, 69, 85
1, 108217, Note_off_c, 0, 70, 65
1, 108220, Note_off_c, 0, 62, 66
1, 108243, Note_off_c, 0, 69, 62
1, 108301, Note_on_c, 0, 58, 70
1, 108304, Note_on_c, 0, 67, 75
1, 108332, Note_off_c, 0, 67, 67
1, 108336, Note_off_c, 0, 58, 63
1, 108431, Note_on_c, 0, 74, 85
1, 108442, Note_on_c, 0, 57, 63
1, 108474, Note_off_c, 0, 74, 64
1, 108474, Note_off_c, 0, 57, 64
1, 108545, Note_on_c, 0, 55, 61
1, 108551, Note_on_c, 0, 71, 84
1, 108576, Note_off_c, 0, 55, 65
1, 108582, Note_off_c, 0, 71, 64
1, 108655, Note_on_c, 0, 71, 84
1, 108668, Note_on_c, 0, 62, 67
1, 108673, Note_on_c, 0, 69, 86
1, 108684, Note_off_c, 0, 71, 64
1, 108705, Note_off_c, 0, 62, 61
1, 108714, Note_off_c, 0, 69, 62
1, 108784, Note_on_c, 0, 68, 87
1, 108790, Note_on_c, 0, 59, 58
1, 108816, Note_off_c, 0, 59, 63
1, 108824, Note_off_c, 0, 68, 61
1, 108900, Note_on_c, 0, 76, 95
1, 108905, Note_on_c, 0, 57, 65
1, 108935, Note_off_c, 0, 57, 65
1, 108942, Note_off_c, 0, 76, 67
1, 109016, Note_on_c, 0, 56, 61
1, 109020, Note_on_c, 0, 73, 92
1, 109048, Note_off_c, 0, 56, 65
1, 109057, Note_off_c, 0, 73, 63
1, 109131, Note_on_c, 0, 64, 78
1, 109138, Note_on_c, 0, 73, 70
1, 109138, Note_on_c, 0, 70, 100
1, 109166, Note_off_c, 0, 64, 68
1, 109172, Note_off_c, 0, 73, 68
1, 109191, Note_off_c, 0, 70, 64
1, 109250, Note_on_c, 0, 69, 83
1, 109253, Note_on_c, 0, 61, 68
1, 109282, Note_off_c, 0, 61, 66
1, 109283, Note_off_c, 0, 69, 64
1, 109367, Note_on_c, 0, 79, 96
1, 109377, Note_on_c, 0, 58, 63
1, 109406, Note_off_c, 0, 58, 65
1, 109412, Note_off_c, 0, 79, 69
1, 109488, Note_on_c, 0, 57, 54
1, 109491, Note_on_c, 0, 76, 92
1, 109517, Note_off_c, 0, 57, 65
1, 109526, Note_off_c, 0, 76, 64
1, 109603, Note_on_c, 0, 67, 85
1, 109604, Note_on_c, 0, 76, 92
1, 109615, Note_on_c, 0, 74, 91
1, 109627, Note_off_c, 0, 76, 67
1, 109648, Note_off_c, 0, 67, 64
1, 109652, Note_off_c, 0, 74, 64
1, 109725, Note_on_c, 0, 73, 98
1, 109728, Note_on_c, 0, 64, 71
1, 109757, Note_off_c, 0, 64, 66
1, 109761, Note_off_c, 0, 73, 65
1, 109848, Note_on_c, 0, 82, 98
1, 109848, Note_on_c, 0, 62, 77
1, 109880, Note_off_c, 0, 62, 64
1, 109891, Note_off_c, 0, 82, 67
1, 109973, Note_on_c, 0, 79, 100
1, 109995, Note_on_c, 0, 60, 58
1, 110008, Note_off_c, 0, 79, 68
1, 110019, Note_off_c, 0, 60, 59
1, 110094, Note_on_c, 0, 79, 83
1, 110095, Note_on_c, 0, 70, 93
1, 110102, Note_on_c, 0, 77, 100
1, 110114, Note_off_c, 0, 79, 71
1, 110134, Note_on_c, 0, 71, 43
1, 110139, Note_off_c, 0, 77, 68
1, 110141, Note_off_c, 0, 70, 62
1, 110162, Note_off_c, 0, 71, 38
1, 110216, Note_on_c, 0, 76, 93
1, 110219, Note_on_c, 0, 67, 91
1, 110253, Note_off_c, 0, 67, 65
1, 110261, Note_off_c, 0, 76, 67
1, 110360, Note_on_c, 0, 65, 95
1, 110371, Note_on_c, 0, 89, 93
1, 110418, Note_off_c, 0, 89, 65
1, 110503, Note_on_c, 0, 86, 92
1, 110544, Note_off_c, 0, 86, 65
1, 110601, Note_off_c, 0, 65, 61
1, 110620, Note_on_c, 0, 86, 90
1, 110632, Note_on_c, 0, 84, 85
1, 110652, Note_off_c, 0, 86, 66
1, 110674, Note_off_c, 0, 84, 65
1, 110749, Note_on_c, 0, 82, 89
1, 110778, Note_off_c, 0, 82, 66
1, 110858, Note_on_c, 0, 77, 86
1, 110868, Note_on_c, 0, 81, 85
1, 110889, Note_off_c, 0, 81, 67
1, 110890, Note_off_c, 0, 77, 64
1, 110977, Note_on_c, 0, 74, 81
1, 110983, Note_on_c, 0, 82, 79
1, 111002, Note_off_c, 0, 74, 67
1, 111016, Note_off_c, 0, 82, 63
1, 111091, Note_on_c, 0, 74, 77
1, 111093, Note_on_c, 0, 72, 76
1, 111103, Note_on_c, 0, 84, 80
1, 111116, Note_off_c, 0, 74, 68
1, 111118, Note_off_c, 0, 72, 67
1, 111132, Note_off_c, 0, 84, 61
1, 111203, Note_on_c, 0, 70, 79
1, 111207, Note_on_c, 0, 76, 83
1, 111246, Note_off_c, 0, 76, 61
1, 111255, Note_off_c, 0, 70, 64
1, 111323, Note_on_c, 0, 69, 79
1, 111327, Note_on_c, 0, 77, 81
1, 111347, Note_off_c, 0, 69, 67
1, 111366, Note_off_c, 0, 77, 62
1, 111449, Note_on_c, 0, 70, 81
1, 111455, Note_on_c, 0, 74, 83
1, 111479, Note_off_c, 0, 70, 66
1, 111488, Note_off_c, 0, 74, 64
1, 111568, Note_on_c, 0, 74, 81
1, 111580, Note_on_c, 0, 72, 85
1, 111589, Note_off_c, 0, 74, 68
1, 111624, Note_off_c, 0, 72, 64
1, 111690, Note_on_c, 0, 64, 71
1, 111699, Note_on_c, 0, 70, 85
1, 111714, Note_off_c, 0, 64, 68
1, 111720, Note_off_c, 0, 70, 71
1, 111810, Note_on_c, 0, 65, 76
1, 111818, Note_on_c, 0, 69, 79
1, 111840, Note_off_c, 0, 69, 68
1, 111841, Note_off_c, 0, 65, 65
1, 111925, Note_on_c, 0, 62, 75
1, 111931, Note_on_c, 0, 70, 68
1, 111956, Note_off_c, 0, 62, 66
1, 111966, Note_off_c, 0, 70, 65
1, 112051, Note_on_c, 0, 60, 65
1, 112054, Note_on_c, 0, 62, 60
1, 112059, Note_on_c, 0, 72, 59
1, 112080, Note_off_c, 0, 62, 63
1, 112081, Note_off_c, 0, 60, 67
1, 112099, Note_off_c, 0, 72, 59
1, 112173, Note_on_c, 0, 64, 57
1, 112177, Note_on_c, 0, 58, 60
1, 112205, Note_off_c, 0, 64, 64
1, 112211, Note_off_c, 0, 58, 63
1, 112289, Note_on_c, 0, 57, 62
1, 112298, Note_on_c, 0, 65, 54
1, 112324, Note_off_c, 0, 57, 64
1, 112336, Note_off_c, 0, 65, 64
1, 112405, Note_on_c, 0, 58, 58
1, 112419, Note_on_c, 0, 62, 39
1, 112437, Note_off_c, 0, 58, 66
1, 112450, Note_off_c, 0, 62, 48
1, 112526, Note_on_c, 0, 62, 59
1, 112542, Note_on_c, 0, 60, 64
1, 112558, Note_off_c, 0, 62, 65
1, 112574, Note_off_c, 0, 60, 65
1, 112660, Note_on_c, 0, 58, 60
1, 112661, Note_on_c, 0, 52, 38
1, 112688, Note_off_c, 0, 52, 53
1, 112692, Note_off_c, 0, 58, 65
1, 112780, Note_on_c, 0, 53, 62
1, 112783, Note_on_c, 0, 57, 60
1, 112810, Note_off_c, 0, 53, 66
1, 112816, Note_off_c, 0, 57, 63
1, 112903, Note_on_c, 0, 50, 62
1, 112906, Note_on_c, 0, 58, 57
1, 112934, Note_off_c, 0, 50, 66
1, 112945, Note_off_c, 0, 58, 62
1, 113014, Note_on_c, 0, 50, 60
1, 113025, Note_on_c, 0, 60, 62
1, 113029, Note_on_c, 0, 48, 54
1, 113045, Note_off_c, 0, 50, 65
1, 113054, Note_off_c, 0, 48, 60
1, 113063, Note_off_c, 0, 60, 63
1, 113137, Note_on_c, 0, 52, 63
1, 113148, Note_on_c, 0, 46, 48
1, 113173, Note_off_c, 0, 52, 63
1, 113177, Note_off_c, 0, 46, 61
1, 113255, Note_on_c, 0, 45, 52
1, 113257, Note_on_c, 0, 53, 63
1, 113289, Note_off_c, 0, 45, 63
1, 113291, Note_off_c, 0, 53, 64
1, 113382, Note_on_c, 0, 41, 54
1, 113382, Note_on_c, 0, 62, 58
1, 113413, Note_off_c, 0, 41, 62
1, 113417, Note_off_c, 0, 62, 62
1, 113507, Note_on_c, 0, 43, 46
1, 113509, Note_on_c, 0, 52, 42
1, 113537, Note_off_c, 0, 52, 57
1, 113538, Note_off_c, 0, 43, 57
1, 113624, Note_on_c, 0, 55, 47
1, 113630, Note_on_c, 0, 45, 41
1, 113630, Note_on_c, 0, 61, 46
1, 113661, Note_off_c, 0, 55, 61
1, 113668, Note_off_c, 0, 45, 52
1, 113677, Note_off_c, 0, 61, 62
1, 113801, Note_on_c, 0, 53, 42
1, 113803, Note_on_c, 0, 62, 40
1, 113815, Note_on_c, 0, 38, 30
1, 113943, Note_off_c, 0, 38, 56
1, 113954, Note_off_c, 0, 53, 53
1, 113963, Note_off_c, 0, 62, 62
1, 114161, Control_c, 0, 64, 15
1, 114175, Control_c, 0, 64, 26
1, 114190, Control_c, 0, 64, 38
1, 114205, Control_c, 0, 64, 46
1, 114220, Control_c, 0, 64, 51
1, 114235, Control_c, 0, 64, 55
1, 114249, Control_c, 0, 64, 58
1, 114264, Control_c, 0, 64, 60
1, 114279, Control_c, 0, 64, 63
1, 114293, Control_c, 0, 64, 65
1, 114308, Control_c, 0, 64, 67
1, 114323, Control_c, 0, 64, 71
1, 114339, Control_c, 0, 64, 75
1, 114354, Control_c, 0, 64, 81
1, 114369, Control_c, 0, 64, 86
1, 114384, Control_c, 0, 64, 92
1, 114405, Control_c, 0, 64, 98
1, 114420, Control_c, 0, 64, 106
1, 114435, Control_c, 0, 64, 127
1, 114727, Note_on_c, 0, 69, 33
1, 114728, Note_on_c, 0, 65, 22
1, 114741, Note_on_c, 0, 62, 24
1, 114977, Note_off_c, 0, 65, 37
1, 114997, Note_on_c, 0, 57, 21
1, 114997, Note_off_c, 0, 69, 40
1, 114999, Note_on_c, 0, 53, 17
1, 115006, Note_on_c, 0, 50, 16
1, 115018, Note_off_c, 0, 62, 35
1, 115167, Note_off_c, 0, 53, 42
1, 115180, Note_off_c, 0, 57, 43
1, 115181, Note_off_c, 0, 50, 40
1, 115200, Note_on_c, 0, 69, 47
1, 115204, Note_on_c, 0, 62, 32
1, 115209, Note_on_c, 0, 65, 35
1, 115282, Note_off_c, 0, 65, 47
1, 115320, Note_off_c, 0, 69, 57
1, 115346, Note_on_c, 0, 53, 30
1, 115355, Note_on_c, 0, 57, 24
1, 115362, Note_on_c, 0, 50, 27
1, 115462, Note_off_c, 0, 50, 38
1, 115467, Note_off_c, 0, 62, 0
1, 115472, Note_off_c, 0, 53, 36
1, 115488, Note_off_c, 0, 57, 36
1, 115496, Note_on_c, 0, 69, 54
1, 115503, Poly_aftertouch_c, 0, 62, 127
1, 115553, Note_on_c, 0, 65, 11
1, 115569, Control_c, 0, 64, 114
1, 115584, Control_c, 0, 64, 104
1, 115599, Control_c, 0, 64, 93
1, 115610, Note_off_c, 0, 65, 44
1, 115614, Control_c, 0, 64, 84
1, 115628, Note_on_c, 0, 53, 37
1, 115628, Note_on_c, 0, 59, 45
1, 115628, Control_c, 0, 64, 76
1, 115632, Note_on_c, 0, 50, 27
1, 115643, Control_c, 0, 64, 73
1, 115673, Control_c, 0, 64, 74
1, 115687, Control_c, 0, 64, 77
1, 115702, Control_c, 0, 64, 81
1, 115717, Control_c, 0, 64, 87
1, 115732, Control_c, 0, 64, 96
1, 115739, Note_off_c, 0, 53, 34
1, 115747, Control_c, 0, 64, 122
1, 115753, Note_off_c, 0, 59, 38
1, 115754, Note_on_c, 0, 68, 67
1, 115755, Note_off_c, 0, 50, 36
1, 115762, Control_c, 0, 64, 127
1, 115767, Note_on_c, 0, 65, 32
1, 115821, Note_off_c, 0, 69, 50
1, 115825, Note_off_c, 0, 65, 56
1, 115878, Note_on_c, 0, 59, 57
1, 115895, Note_on_c, 0, 53, 37
1, 115905, Note_on_c, 0, 50, 42
1, 115905, Note_off_c, 0, 68, 57
1, 115923, Poly_aftertouch_c, 0, 62, 0
1, 115952, Note_off_c, 0, 53, 55
1, 115981, Note_off_c, 0, 50, 51
1, 115982, Note_off_c, 0, 59, 60
1, 116013, Note_on_c, 0, 67, 66
1, 116020, Note_on_c, 0, 64, 55
1, 116051, Control_c, 0, 64, 115
1, 116066, Control_c, 0, 64, 98
1, 116081, Control_c, 0, 64, 82
1, 116096, Control_c, 0, 64, 70
1, 116111, Control_c, 0, 64, 62
1, 116125, Control_c, 0, 64, 58
1, 116140, Note_on_c, 0, 55, 53
1, 116140, Control_c, 0, 64, 60
1, 116142, Note_on_c, 0, 58, 61
1, 116149, Note_on_c, 0, 50, 43
1, 116155, Control_c, 0, 64, 63
1, 116170, Control_c, 0, 64, 65
1, 116185, Control_c, 0, 64, 68
1, 116200, Control_c, 0, 64, 73
1, 116201, Note_off_c, 0, 67, 61
1, 116206, Note_off_c, 0, 64, 49
1, 116215, Control_c, 0, 64, 85
1, 116230, Control_c, 0, 64, 104
1, 116242, Note_off_c, 0, 55, 56
1, 116244, Control_c, 0, 64, 127
1, 116257, Note_off_c, 0, 58, 59
1, 116270, Note_on_c, 0, 67, 79
1, 116270, Note_off_c, 0, 50, 36
1, 116284, Note_on_c, 0, 64, 59
1, 116314, Note_off_c, 0, 64, 65
1, 116376, Note_off_c, 0, 67, 62
1, 116379, Note_on_c, 0, 58, 61
1, 116381, Note_on_c, 0, 55, 55
1, 116405, Note_on_c, 0, 50, 45
1, 116480, Note_off_c, 0, 55, 54
1, 116485, Note_off_c, 0, 50, 49
1, 116501, Note_off_c, 0, 58, 57
1, 116524, Note_on_c, 0, 74, 83
1, 116538, Note_on_c, 0, 64, 45
1, 116555, Control_c, 0, 64, 116
1, 116570, Control_c, 0, 64, 109
1, 116580, Note_on_c, 0, 67, 14
1, 116584, Control_c, 0, 64, 98
1, 116599, Control_c, 0, 64, 85
1, 116614, Control_c, 0, 64, 74
1, 116629, Note_on_c, 0, 50, 23
1, 116629, Control_c, 0, 64, 65
1, 116630, Note_off_c, 0, 67, 43
1, 116648, Note_on_c, 0, 55, 45
1, 116651, Control_c, 0, 64, 57
1, 116655, Note_on_c, 0, 52, 41
1, 116665, Note_on_c, 0, 57, 49
1, 116666, Control_c, 0, 64, 56
1, 116681, Control_c, 0, 64, 59
1, 116695, Control_c, 0, 64, 62
1, 116710, Control_c, 0, 64, 65
1, 116725, Control_c, 0, 64, 68
1, 116741, Control_c, 0, 64, 72
1, 116756, Control_c, 0, 64, 81
1, 116771, Control_c, 0, 64, 101
1, 116775, Note_off_c, 0, 52, 54
1, 116784, Note_off_c, 0, 57, 54
1, 116785, Note_on_c, 0, 73, 85
1, 116786, Control_c, 0, 64, 127
1, 116796, Note_off_c, 0, 50, 35
1, 116803, Note_on_c, 0, 67, 58
1, 116811, Note_off_c, 0, 74, 61
1, 116815, Note_off_c, 0, 64, 53
1, 116816, Note_off_c, 0, 55, 30
1, 116843, Note_off_c, 0, 67, 59
1, 116891, Note_on_c, 0, 55, 42
1, 116912, Note_on_c, 0, 57, 50
1, 116923, Note_on_c, 0, 50, 42
1, 116934, Note_off_c, 0, 73, 62
1, 116939, Note_on_c, 0, 52, 32
1, 116944, Note_off_c, 0, 55, 62
1, 116957, Note_off_c, 0, 57, 62
1, 116959, Note_off_c, 0, 50, 58
1, 116971, Note_off_c, 0, 52, 55
1, 117062, Note_on_c, 0, 77, 81
1, 117071, Note_on_c, 0, 69, 61
1, 117127, Control_c, 0, 64, 99
1, 117142, Control_c, 0, 64, 78
1, 117157, Control_c, 0, 64, 66
1, 117172, Control_c, 0, 64, 58
1, 117184, Note_on_c, 0, 52, 37
1, 117187, Control_c, 0, 64, 57
1, 117196, Note_on_c, 0, 57, 43
1, 117198, Note_off_c, 0, 69, 62
1, 117201, Control_c, 0, 64, 60
1, 117209, Note_on_c, 0, 61, 44
1, 117215, Note_on_c, 0, 50, 36
1, 117216, Control_c, 0, 64, 63
1, 117231, Control_c, 0, 64, 67
1, 117246, Control_c, 0, 64, 73
1, 117260, Control_c, 0, 64, 82
1, 117275, Control_c, 0, 64, 98
1, 117290, Control_c, 0, 64, 127
1, 117306, Note_off_c, 0, 50, 55
1, 117317, Note_off_c, 0, 77, 56
1, 117326, Note_off_c, 0, 57, 56
1, 117329, Note_off_c, 0, 61, 55
1, 117345, Note_off_c, 0, 52, 44
1, 117346, Note_on_c, 0, 76, 82
1, 117368, Note_on_c, 0, 67, 60
1, 117455, Note_off_c, 0, 67, 55
1, 117472, Note_on_c, 0, 50, 46
1, 117476, Note_on_c, 0, 52, 56
1, 117477, Note_on_c, 0, 61, 56
1, 117486, Note_on_c, 0, 57, 49
1, 117488, Note_off_c, 0, 76, 61
1, 117529, Note_off_c, 0, 52, 56
1, 117540, Note_off_c, 0, 50, 56
1, 117550, Note_off_c, 0, 57, 56
1, 117558, Note_off_c, 0, 61, 60
1, 117573, Note_on_c, 0, 76, 71
1, 117616, Note_on_c, 0, 74, 78
1, 117625, Note_on_c, 0, 65, 54
1, 117639, Control_c, 0, 64, 100
1, 117650, Note_off_c, 0, 76, 66
1, 117654, Control_c, 0, 64, 82
1, 117669, Control_c, 0, 64, 68
1, 117684, Control_c, 0, 64, 58
1, 117698, Control_c, 0, 64, 51
1, 117713, Control_c, 0, 64, 54
1, 117726, Note_on_c, 0, 50, 40
1, 117728, Note_on_c, 0, 53, 49
1, 117728, Control_c, 0, 64, 58
1, 117733, Note_on_c, 0, 57, 40
1, 117740, Note_on_c, 0, 62, 46
1, 117741, Control_c, 0, 64, 61
1, 117756, Control_c, 0, 64, 65
1, 117768, Note_off_c, 0, 65, 55
1, 117771, Control_c, 0, 64, 68
1, 117786, Control_c, 0, 64, 73
1, 117801, Control_c, 0, 64, 85
1, 117816, Control_c, 0, 64, 104
1, 117827, Note_off_c, 0, 74, 58
1, 117831, Control_c, 0, 64, 127
1, 117833, Note_off_c, 0, 50, 56
1, 117845, Note_off_c, 0, 53, 58
1, 117851, Note_off_c, 0, 62, 55
1, 117852, Note_off_c, 0, 57, 57
1, 117853, Note_on_c, 0, 73, 79
1, 117875, Note_on_c, 0, 64, 60
1, 117954, Note_off_c, 0, 64, 50
1, 117992, Note_on_c, 0, 50, 43
1, 118003, Note_on_c, 0, 53, 37
1, 118004, Note_on_c, 0, 57, 36
1, 118009, Note_on_c, 0, 62, 37
1, 118045, Note_off_c, 0, 50, 56
1, 118060, Note_off_c, 0, 53, 52
1, 118060, Note_off_c, 0, 62, 56
1, 118061, Note_off_c, 0, 57, 55
1, 118081, Note_off_c, 0, 73, 57
1, 118083, Control_c, 0, 64, 116
1, 118097, Control_c, 0, 64, 109
1, 118102, Note_on_c, 0, 74, 63
1, 118112, Control_c, 0, 64, 104
1, 118126, Note_on_c, 0, 65, 48
1, 118127, Control_c, 0, 64, 99
1, 118149, Control_c, 0, 64, 93
1, 118164, Control_c, 0, 64, 82
1, 118179, Control_c, 0, 64, 71
1, 118194, Control_c, 0, 64, 62
1, 118209, Control_c, 0, 64, 53
1, 118223, Control_c, 0, 64, 54
1, 118238, Control_c, 0, 64, 57
1, 118247, Note_on_c, 0, 53, 33
1, 118253, Control_c, 0, 64, 61
1, 118255, Note_on_c, 0, 57, 34
1, 118260, Note_on_c, 0, 50, 40
1, 118262, Note_on_c, 0, 62, 41
1, 118267, Control_c, 0, 64, 64
1, 118270, Note_off_c, 0, 65, 58
1, 118282, Control_c, 0, 64, 67
1, 118297, Control_c, 0, 64, 71
1, 118312, Control_c, 0, 64, 80
1, 118327, Control_c, 0, 64, 95
1, 118330, Note_off_c, 0, 50, 51
1, 118339, Note_off_c, 0, 62, 51
1, 118343, Control_c, 0, 64, 127
1, 118343, Note_off_c, 0, 57, 49
1, 118370, Note_off_c, 0, 53, 36
1, 118387, Note_on_c, 0, 76, 66
1, 118393, Note_on_c, 0, 67, 50
1, 118430, Note_off_c, 0, 74, 59
1, 118471, Note_off_c, 0, 67, 55
1, 118521, Note_on_c, 0, 62, 36
1, 118523, Note_on_c, 0, 50, 35
1, 118532, Note_on_c, 0, 53, 33
1, 118540, Note_on_c, 0, 57, 33
1, 118546, Note_off_c, 0, 76, 55
1, 118572, Note_off_c, 0, 53, 56
1, 118580, Note_off_c, 0, 50, 57
1, 118591, Note_off_c, 0, 62, 54
1, 118594, Note_off_c, 0, 57, 55
1, 118624, Control_c, 0, 64, 119
1, 118638, Control_c, 0, 64, 115
1, 118653, Control_c, 0, 64, 110
1, 118668, Control_c, 0, 64, 107
1, 118672, Note_on_c, 0, 73, 58
1, 118680, Note_on_c, 0, 69, 40
1, 118683, Note_on_c, 0, 64, 40
1, 118683, Control_c, 0, 64, 103
1, 118698, Control_c, 0, 64, 99
1, 118713, Control_c, 0, 64, 96
1, 118728, Control_c, 0, 64, 92
1, 118743, Control_c, 0, 64, 89
1, 118757, Control_c, 0, 64, 87
1, 118772, Control_c, 0, 64, 84
1, 118787, Control_c, 0, 64, 79
1, 118802, Control_c, 0, 64, 72
1, 118817, Control_c, 0, 64, 63
1, 118819, Note_on_c, 0, 55, 33
1, 118827, Note_on_c, 0, 50, 28
1, 118829, Note_on_c, 0, 57, 30
1, 118832, Control_c, 0, 64, 51
1, 118832, Note_on_c, 0, 52, 33
1, 118846, Control_c, 0, 64, 44
1, 118861, Control_c, 0, 64, 46
1, 118876, Control_c, 0, 64, 48
1, 118898, Control_c, 0, 64, 53
1, 118913, Control_c, 0, 64, 59
1, 118927, Control_c, 0, 64, 62
1, 118939, Note_off_c, 0, 57, 59
1, 118942, Note_off_c, 0, 52, 53
1, 118942, Control_c, 0, 64, 64
1, 118949, Note_off_c, 0, 55, 48
1, 118957, Control_c, 0, 64, 67
1, 118970, Note_off_c, 0, 50, 34
1, 118972, Control_c, 0, 64, 70
1, 118975, Note_off_c, 0, 69, 51
1, 118987, Control_c, 0, 64, 76
1, 118992, Note_off_c, 0, 73, 60
1, 119002, Control_c, 0, 64, 85
1, 119017, Control_c, 0, 64, 92
1, 119032, Control_c, 0, 64, 96
1, 119036, Note_off_c, 0, 64, 56
1, 119046, Control_c, 0, 64, 97
1, 119114, Note_on_c, 0, 55, 31
1, 119129, Note_on_c, 0, 52, 28
1, 119134, Note_on_c, 0, 50, 35
1, 119139, Note_on_c, 0, 57, 24
1, 119166, Control_c, 0, 64, 97
1, 119195, Control_c, 0, 64, 96
1, 119208, Note_off_c, 0, 57, 51
1, 119220, Note_off_c, 0, 55, 55
1, 119223, Note_off_c, 0, 52, 36
1, 119225, Control_c, 0, 64, 96
1, 119240, Control_c, 0, 64, 95
1, 119255, Control_c, 0, 64, 94
1, 119258, Note_off_c, 0, 50, 36
1, 119269, Control_c, 0, 64, 93
1, 119284, Control_c, 0, 64, 91
1, 119299, Control_c, 0, 64, 90
1, 119314, Control_c, 0, 64, 89
1, 119316, Note_on_c, 0, 69, 52
1, 119327, Note_on_c, 0, 62, 36
1, 119329, Note_on_c, 0, 65, 43
1, 119329, Control_c, 0, 64, 88
1, 119343, Control_c, 0, 64, 87
1, 119358, Control_c, 0, 64, 86
1, 119373, Control_c, 0, 64, 85
1, 119387, Control_c, 0, 64, 83
1, 119402, Control_c, 0, 64, 80
1, 119417, Control_c, 0, 64, 75
1, 119432, Control_c, 0, 64, 68
1, 119447, Control_c, 0, 64, 62
1, 119461, Control_c, 0, 64, 57
1, 119469, Note_on_c, 0, 57, 41
1, 119471, Note_on_c, 0, 53, 35
1, 119476, Control_c, 0, 64, 58
1, 119479, Note_on_c, 0, 50, 19
1, 119491, Control_c, 0, 64, 60
1, 119506, Control_c, 0, 64, 62
1, 119521, Control_c, 0, 64, 64
1, 119521, Note_off_c, 0, 69, 61
1, 119536, Control_c, 0, 64, 67
1, 119545, Note_off_c, 0, 62, 46
1, 119550, Note_off_c, 0, 65, 38
1, 119550, Control_c, 0, 64, 71
1, 119565, Control_c, 0, 64, 81
1, 119580, Control_c, 0, 64, 93
1, 119582, Note_off_c, 0, 57, 58
1, 119595, Control_c, 0, 64, 109
1, 119603, Note_off_c, 0, 53, 36
1, 119604, Note_on_c, 0, 69, 70
1, 119607, Note_off_c, 0, 50, 34
1, 119610, Control_c, 0, 64, 127
1, 119616, Note_on_c, 0, 62, 43
1, 119623, Note_on_c, 0, 65, 43
1, 119661, Control_c, 0, 64, 125
1, 119676, Control_c, 0, 64, 122
1, 119689, Note_off_c, 0, 65, 54
1, 119691, Control_c, 0, 64, 120
1, 119706, Control_c, 0, 64, 119
1, 119720, Control_c, 0, 64, 117
1, 119724, Note_off_c, 0, 69, 55
1, 119733, Note_on_c, 0, 57, 58
1, 119735, Control_c, 0, 64, 115
1, 119744, Note_on_c, 0, 53, 51
1, 119750, Control_c, 0, 64, 111
1, 119753, Note_on_c, 0, 50, 48
1, 119765, Control_c, 0, 64, 108
1, 119773, Note_off_c, 0, 62, 32
1, 119780, Control_c, 0, 64, 107
1, 119795, Control_c, 0, 64, 106
1, 119810, Control_c, 0, 64, 104
1, 119814, Note_off_c, 0, 50, 53
1, 119815, Note_off_c, 0, 53, 56
1, 119825, Control_c, 0, 64, 102
1, 119834, Note_off_c, 0, 57, 59
1, 119840, Control_c, 0, 64, 100
1, 119855, Control_c, 0, 64, 98
1, 119861, Note_on_c, 0, 62, 44
1, 119861, Note_on_c, 0, 69, 68
1, 119869, Control_c, 0, 64, 97
1, 119884, Control_c, 0, 64, 95
1, 119899, Control_c, 0, 64, 92
1, 119906, Note_on_c, 0, 65, 37
1, 119913, Control_c, 0, 64, 88
1, 119928, Control_c, 0, 64, 84
1, 119944, Control_c, 0, 64, 77
1, 119953, Note_off_c, 0, 65, 43
1, 119959, Control_c, 0, 64, 70
1, 119974, Control_c, 0, 64, 64
1, 119976, Note_on_c, 0, 59, 64
1, 119986, Note_on_c, 0, 53, 45
1, 119989, Control_c, 0, 64, 59
1, 119998, Note_on_c, 0, 50, 37
1, 120004, Control_c, 0, 64, 58
1, 120018, Control_c, 0, 64, 60
1, 120033, Control_c, 0, 64, 61
1, 120048, Control_c, 0, 64, 63
1, 120063, Control_c, 0, 64, 65
1, 120065, Note_off_c, 0, 50, 52
1, 120074, Note_off_c, 0, 53, 55
1, 120078, Control_c, 0, 64, 68
1, 120092, Control_c, 0, 64, 72
1, 120107, Control_c, 0, 64, 80
1, 120111, Note_off_c, 0, 59, 58
1, 120120, Note_on_c, 0, 68, 76
1, 120122, Control_c, 0, 64, 96
1, 120128, Note_on_c, 0, 65, 57
1, 120136, Control_c, 0, 64, 127
1, 120160, Note_off_c, 0, 69, 60
1, 120190, Note_off_c, 0, 65, 56
1, 120197, Note_off_c, 0, 62, 38
1, 120217, Note_on_c, 0, 59, 77
1, 120224, Note_on_c, 0, 53, 56
1, 120232, Note_on_c, 0, 50, 48
1, 120254, Note_off_c, 0, 68, 57
1, 120308, Note_off_c, 0, 53, 56
1, 120331, Note_off_c, 0, 50, 46
1, 120349, Note_on_c, 0, 67, 80
1, 120370, Note_off_c, 0, 59, 54
1, 120371, Note_on_c, 0, 63, 57
1, 120373, Control_c, 0, 64, 107
1, 120396, Control_c, 0, 64, 88
1, 120410, Control_c, 0, 64, 71
1, 120425, Control_c, 0, 64, 62
1, 120440, Control_c, 0, 64, 57
1, 120455, Control_c, 0, 64, 59
1, 120470, Control_c, 0, 64, 62
1, 120484, Control_c, 0, 64, 64
1, 120487, Note_on_c, 0, 60, 70
1, 120496, Note_on_c, 0, 55, 57
1, 120498, Note_on_c, 0, 50, 42
1, 120499, Control_c, 0, 64, 68
1, 120514, Control_c, 0, 64, 72
1, 120529, Control_c, 0, 64, 79
1, 120533, Note_off_c, 0, 63, 52
1, 120536, Note_off_c, 0, 67, 60
1, 120543, Control_c, 0, 64, 91
1, 120558, Control_c, 0, 64, 120
1, 120573, Control_c, 0, 64, 127
1, 120582, Note_off_c, 0, 55, 58
1, 120584, Note_off_c, 0, 50, 52
1, 120604, Note_off_c, 0, 60, 58
1, 120611, Note_on_c, 0, 67, 84
1, 120623, Note_on_c, 0, 63, 68
1, 120660, Note_off_c, 0, 63, 55
1, 120716, Note_off_c, 0, 67, 59
1, 120725, Note_on_c, 0, 60, 71
1, 120733, Note_on_c, 0, 55, 63
1, 120739, Note_on_c, 0, 50, 54
1, 120799, Note_off_c, 0, 55, 62
1, 120814, Note_off_c, 0, 50, 58
1, 120830, Note_off_c, 0, 60, 58
1, 120841, Control_c, 0, 64, 122
1, 120855, Note_on_c, 0, 67, 82
1, 120856, Control_c, 0, 64, 113
1, 120871, Control_c, 0, 64, 104
1, 120876, Note_on_c, 0, 62, 60
1, 120886, Control_c, 0, 64, 99
1, 120901, Control_c, 0, 64, 94
1, 120916, Control_c, 0, 64, 92
1, 120931, Control_c, 0, 64, 91
1, 120946, Control_c, 0, 64, 90
1, 120960, Control_c, 0, 64, 88
1, 120972, Note_on_c, 0, 60, 56
1, 120975, Note_on_c, 0, 50, 49
1, 120975, Control_c, 0, 64, 85
1, 120981, Note_on_c, 0, 57, 59
1, 120990, Control_c, 0, 64, 81
1, 121005, Control_c, 0, 64, 76
1, 121020, Control_c, 0, 64, 72
1, 121034, Control_c, 0, 64, 66
1, 121049, Control_c, 0, 64, 56
1, 121064, Control_c, 0, 64, 49
1, 121079, Control_c, 0, 64, 48
1, 121110, Note_on_c, 0, 66, 83
1, 121123, Control_c, 0, 64, 50
1, 121144, Note_off_c, 0, 50, 57
1, 121145, Note_off_c, 0, 57, 59
1, 121145, Control_c, 0, 64, 54
1, 121150, Note_off_c, 0, 67, 63
1, 121155, Note_off_c, 0, 60, 61
1, 121160, Control_c, 0, 64, 59
1, 121167, Note_off_c, 0, 62, 59
1, 121175, Control_c, 0, 64, 63
1, 121190, Control_c, 0, 64, 66
1, 121205, Control_c, 0, 64, 70
1, 121220, Control_c, 0, 64, 77
1, 121234, Control_c, 0, 64, 89
1, 121244, Note_on_c, 0, 57, 62
1, 121247, Note_on_c, 0, 60, 61
1, 121249, Control_c, 0, 64, 111
1, 121262, Note_on_c, 0, 50, 48
1, 121264, Control_c, 0, 64, 127
1, 121302, Note_off_c, 0, 66, 57
1, 121323, Control_c, 0, 64, 122
1, 121336, Note_off_c, 0, 57, 59
1, 121337, Note_off_c, 0, 50, 52
1, 121338, Control_c, 0, 64, 115
1, 121353, Control_c, 0, 64, 112
1, 121367, Control_c, 0, 64, 109
1, 121375, Note_off_c, 0, 60, 52
1, 121382, Control_c, 0, 64, 106
1, 121383, Note_on_c, 0, 70, 80
1, 121397, Control_c, 0, 64, 104
1, 121412, Control_c, 0, 64, 101
1, 121418, Note_on_c, 0, 62, 48
1, 121427, Control_c, 0, 64, 96
1, 121441, Control_c, 0, 64, 86
1, 121456, Control_c, 0, 64, 73
1, 121471, Control_c, 0, 64, 64
1, 121486, Control_c, 0, 64, 56
1, 121501, Control_c, 0, 64, 55
1, 121515, Control_c, 0, 64, 57
1, 121520, Note_on_c, 0, 54, 51
1, 121527, Note_on_c, 0, 60, 49
1, 121527, Note_on_c, 0, 50, 42
1, 121531, Control_c, 0, 64, 61
1, 121546, Control_c, 0, 64, 64
1, 121561, Control_c, 0, 64, 68
1, 121576, Control_c, 0, 64, 73
1, 121590, Control_c, 0, 64, 80
1, 121597, Note_off_c, 0, 70, 61
1, 121605, Control_c, 0, 64, 92
1, 121620, Control_c, 0, 64, 104
1, 121623, Note_off_c, 0, 50, 50
1, 121631, Note_off_c, 0, 62, 0
1, 121635, Control_c, 0, 64, 114
1, 121644, Note_on_c, 0, 62, 42
1, 121646, Note_off_c, 0, 60, 51
1, 121650, Note_on_c, 0, 69, 79
1, 121650, Control_c, 0, 64, 115
1, 121679, Control_c, 0, 64, 113
1, 121694, Note_off_c, 0, 54, 32
1, 121709, Control_c, 0, 64, 112
1, 121724, Control_c, 0, 64, 112
1, 121738, Control_c, 0, 64, 110
1, 121753, Control_c, 0, 64, 109
1, 121758, Note_on_c, 0, 54, 33
1, 121764, Note_off_c, 0, 62, 47
1, 121768, Control_c, 0, 64, 107
1, 121771, Note_off_c, 0, 69, 59
1, 121777, Note_on_c, 0, 60, 52
1, 121780, Note_on_c, 0, 50, 45
1, 121783, Control_c, 0, 64, 105
1, 121798, Control_c, 0, 64, 103
1, 121813, Control_c, 0, 64, 102
1, 121824, Note_off_c, 0, 54, 58
1, 121828, Control_c, 0, 64, 100
1, 121831, Note_off_c, 0, 50, 58
1, 121840, Note_off_c, 0, 60, 56
1, 121843, Control_c, 0, 64, 98
1, 121857, Control_c, 0, 64, 96
1, 121872, Control_c, 0, 64, 94
1, 121873, Note_on_c, 0, 69, 62
1, 121894, Control_c, 0, 64, 92
1, 121909, Control_c, 0, 64, 89
1, 121921, Note_on_c, 0, 62, 51
1, 121924, Control_c, 0, 64, 86
1, 121932, Note_on_c, 0, 67, 67
1, 121938, Control_c, 0, 64, 83
1, 121953, Control_c, 0, 64, 80
1, 121968, Note_off_c, 0, 69, 62
1, 121968, Control_c, 0, 64, 76
1, 121983, Control_c, 0, 64, 67
1, 121998, Control_c, 0, 64, 58
1, 122013, Control_c, 0, 64, 40
1, 122028, Control_c, 0, 64, 37
1, 122037, Note_on_c, 0, 55, 39
1, 122040, Note_on_c, 0, 58, 43
1, 122043, Note_on_c, 0, 50, 32
1, 122043, Control_c, 0, 64, 43
1, 122057, Control_c, 0, 64, 51
1, 122072, Control_c, 0, 64, 58
1, 122087, Control_c, 0, 64, 62
1, 122102, Control_c, 0, 64, 65
1, 122103, Note_off_c, 0, 62, 56
1, 122117, Control_c, 0, 64, 70
1, 122131, Control_c, 0, 64, 77
1, 122132, Note_off_c, 0, 67, 58
1, 122146, Note_off_c, 0, 55, 59
1, 122146, Control_c, 0, 64, 86
1, 122152, Note_off_c, 0, 58, 56
1, 122161, Control_c, 0, 64, 93
1, 122170, Note_on_c, 0, 66, 70
1, 122174, Note_on_c, 0, 62, 51
1, 122176, Control_c, 0, 64, 94
1, 122192, Note_off_c, 0, 50, 35
1, 122263, Control_c, 0, 64, 94
1, 122278, Control_c, 0, 64, 93
1, 122293, Note_on_c, 0, 55, 43
1, 122293, Control_c, 0, 64, 92
1, 122301, Note_off_c, 0, 66, 55
1, 122308, Note_on_c, 0, 58, 43
1, 122308, Control_c, 0, 64, 92
1, 122319, Note_on_c, 0, 50, 39
1, 122323, Control_c, 0, 64, 91
1, 122324, Note_off_c, 0, 62, 37
1, 122339, Control_c, 0, 64, 91
1, 122353, Control_c, 0, 64, 89
1, 122359, Note_off_c, 0, 55, 55
1, 122367, Note_off_c, 0, 58, 54
1, 122368, Control_c, 0, 64, 89
1, 122371, Note_off_c, 0, 50, 51
1, 122383, Control_c, 0, 64, 87
1, 122398, Control_c, 0, 64, 86
1, 122412, Control_c, 0, 64, 85
1, 122427, Control_c, 0, 64, 84
1, 122429, Note_on_c, 0, 67, 58
1, 122438, Note_on_c, 0, 61, 45
1, 122442, Control_c, 0, 64, 83
1, 122457, Control_c, 0, 64, 82
1, 122472, Control_c, 0, 64, 81
1, 122487, Control_c, 0, 64, 79
1, 122502, Control_c, 0, 64, 75
1, 122516, Control_c, 0, 64, 68
1, 122531, Control_c, 0, 64, 60
1, 122546, Control_c, 0, 64, 46
1, 122561, Control_c, 0, 64, 45
1, 122563, Note_on_c, 0, 55, 32
1, 122567, Note_on_c, 0, 57, 36
1, 122568, Note_on_c, 0, 52, 34
1, 122569, Note_on_c, 0, 50, 23
1, 122576, Control_c, 0, 64, 47
1, 122591, Control_c, 0, 64, 51
1, 122603, Note_off_c, 0, 61, 49
1, 122605, Control_c, 0, 64, 55
1, 122620, Control_c, 0, 64, 58
1, 122642, Control_c, 0, 64, 61
1, 122654, Note_off_c, 0, 67, 55
1, 122657, Control_c, 0, 64, 63
1, 122672, Control_c, 0, 64, 66
1, 122685, Note_off_c, 0, 55, 55
1, 122686, Control_c, 0, 64, 69
1, 122691, Note_off_c, 0, 57, 56
1, 122701, Control_c, 0, 64, 73
1, 122716, Control_c, 0, 64, 78
1, 122720, Note_on_c, 0, 69, 64
1, 122720, Note_off_c, 0, 50, 36
1, 122731, Note_on_c, 0, 61, 37
1, 122731, Control_c, 0, 64, 83
1, 122732, Note_off_c, 0, 52, 34
1, 122746, Control_c, 0, 64, 86
1, 122761, Control_c, 0, 64, 87
1, 122835, Note_off_c, 0, 69, 53
1, 122852, Note_off_c, 0, 61, 37
1, 122859, Note_on_c, 0, 55, 38
1, 122862, Note_on_c, 0, 57, 39
1, 122865, Control_c, 0, 64, 87
1, 122880, Note_on_c, 0, 52, 36
1, 122881, Note_on_c, 0, 50, 31
1, 122894, Control_c, 0, 64, 86
1, 122909, Control_c, 0, 64, 86
1, 122924, Control_c, 0, 64, 85
1, 122928, Note_off_c, 0, 55, 58
1, 122934, Note_off_c, 0, 50, 46
1, 122937, Note_off_c, 0, 52, 46
1, 122946, Note_off_c, 0, 57, 56
1, 122953, Control_c, 0, 64, 85
1, 122968, Control_c, 0, 64, 84
1, 122983, Control_c, 0, 64, 83
1, 122998, Control_c, 0, 64, 82
1, 123012, Control_c, 0, 64, 82
1, 123017, Note_on_c, 0, 62, 53
1, 123027, Control_c, 0, 64, 81
1, 123042, Control_c, 0, 64, 81
1, 123057, Control_c, 0, 64, 80
1, 123072, Control_c, 0, 64, 80
1, 123086, Control_c, 0, 64, 79
1, 123101, Control_c, 0, 64, 78
1, 123116, Control_c, 0, 64, 78
1, 123132, Control_c, 0, 64, 77
1, 123147, Control_c, 0, 64, 73
1, 123162, Control_c, 0, 64, 65
1, 123176, Control_c, 0, 64, 53
1, 123187, Note_on_c, 0, 54, 30
1, 123187, Note_on_c, 0, 57, 27
1, 123191, Control_c, 0, 64, 30
1, 123197, Note_on_c, 0, 50, 19
1, 123206, Control_c, 0, 64, 31
1, 123221, Control_c, 0, 64, 36
1, 123235, Control_c, 0, 64, 44
1, 123250, Control_c, 0, 64, 51
1, 123265, Control_c, 0, 64, 56
1, 123280, Control_c, 0, 64, 60
1, 123295, Control_c, 0, 64, 62
1, 123309, Control_c, 0, 64, 65
1, 123324, Control_c, 0, 64, 69
1, 123326, Note_off_c, 0, 54, 51
1, 123333, Note_off_c, 0, 57, 54
1, 123339, Control_c, 0, 64, 76
1, 123345, Note_off_c, 0, 50, 40
1, 123354, Control_c, 0, 64, 86
1, 123369, Control_c, 0, 64, 99
1, 123391, Control_c, 0, 64, 106
1, 123406, Control_c, 0, 64, 107
1, 123465, Control_c, 0, 64, 106
1, 123480, Control_c, 0, 64, 105
1, 123495, Control_c, 0, 64, 105
1, 123509, Control_c, 0, 64, 104
1, 123530, Note_on_c, 0, 57, 24
1, 123531, Note_on_c, 0, 50, 27
1, 123531, Note_on_c, 0, 54, 29
1, 123539, Control_c, 0, 64, 104
1, 123560, Note_off_c, 0, 62, 32
1, 123584, Control_c, 0, 64, 103
1, 123599, Control_c, 0, 64, 103
1, 123670, Note_on_c, 0, 72, 45
1, 123676, Note_on_c, 0, 66, 43
1, 123676, Note_off_c, 0, 54, 38
1, 123677, Note_off_c, 0, 57, 35
1, 123681, Note_off_c, 0, 50, 33
1, 123688, Control_c, 0, 64, 102
1, 123830, Note_off_c, 0, 72, 50
1, 123831, Note_off_c, 0, 66, 55
1, 123843, Note_on_c, 0, 54, 37
1, 123849, Note_on_c, 0, 57, 29
1, 123854, Note_on_c, 0, 50, 29
1, 123918, Note_off_c, 0, 50, 44
1, 123932, Note_off_c, 0, 57, 46
1, 123943, Note_off_c, 0, 54, 36
1, 123990, Note_on_c, 0, 66, 60
1, 124006, Note_on_c, 0, 72, 49
1, 124073, Control_c, 0, 64, 102
1, 124088, Control_c, 0, 64, 101
1, 124103, Control_c, 0, 64, 101
1, 124115, Note_off_c, 0, 66, 54
1, 124118, Control_c, 0, 64, 100
1, 124122, Note_on_c, 0, 54, 42
1, 124132, Note_on_c, 0, 57, 42
1, 124140, Control_c, 0, 64, 100
1, 124175, Note_off_c, 0, 57, 62
1, 124181, Note_off_c, 0, 54, 61
1, 124184, Control_c, 0, 64, 99
1, 124186, Poly_aftertouch_c, 0, 50, 127
1, 124197, Note_off_c, 0, 72, 35
1, 124199, Control_c, 0, 64, 98
1, 124214, Control_c, 0, 64, 97
1, 124217, Poly_aftertouch_c, 0, 50, 0
1, 124229, Control_c, 0, 64, 96
1, 124244, Control_c, 0, 64, 95
1, 124258, Control_c, 0, 64, 94
1, 124273, Control_c, 0, 64, 93
1, 124288, Control_c, 0, 64, 92
1, 124303, Control_c, 0, 64, 91
1, 124308, Note_on_c, 0, 65, 55
1, 124318, Control_c, 0, 64, 90
1, 124326, Note_on_c, 0, 72, 50
1, 124332, Control_c, 0, 64, 89
1, 124347, Control_c, 0, 64, 87
1, 124362, Control_c, 0, 64, 84
1, 124377, Control_c, 0, 64, 82
1, 124391, Control_c, 0, 64, 80
1, 124406, Control_c, 0, 64, 77
1, 124421, Control_c, 0, 64, 74
1, 124436, Control_c, 0, 64, 70
1, 124451, Control_c, 0, 64, 64
1, 124466, Note_on_c, 0, 49, 32
1, 124466, Control_c, 0, 64, 55
1, 124475, Note_on_c, 0, 60, 33
1, 124480, Control_c, 0, 64, 48
1, 124481, Note_on_c, 0, 53, 29
1, 124490, Note_on_c, 0, 56, 23
1, 124495, Control_c, 0, 64, 47
1, 124524, Control_c, 0, 64, 48
1, 124539, Control_c, 0, 64, 50
1, 124554, Control_c, 0, 64, 53
1, 124569, Control_c, 0, 64, 56
1, 124583, Control_c, 0, 64, 60
1, 124598, Control_c, 0, 64, 62
1, 124601, Note_on_c, 0, 68, 51
1, 124605, Note_on_c, 0, 71, 45
1, 124613, Control_c, 0, 64, 64
1, 124616, Note_off_c, 0, 60, 56
1, 124627, Note_off_c, 0, 49, 45
1, 124628, Control_c, 0, 64, 67
1, 124641, Note_off_c, 0, 72, 37
1, 124643, Control_c, 0, 64, 70
1, 124650, Note_off_c, 0, 53, 41
1, 124657, Note_off_c, 0, 56, 41
1, 124657, Control_c, 0, 64, 73
1, 124672, Control_c, 0, 64, 78
1, 124687, Control_c, 0, 64, 85
1, 124701, Control_c, 0, 64, 92
1, 124716, Control_c, 0, 64, 100
1, 124723, Note_off_c, 0, 65, 29
1, 124733, Control_c, 0, 64, 111
1, 124743, Note_off_c, 0, 71, 57
1, 124747, Control_c, 0, 64, 127
1, 124758, Note_on_c, 0, 59, 47
1, 124763, Note_on_c, 0, 49, 41
1, 124773, Note_off_c, 0, 68, 38
1, 124791, Note_on_c, 0, 53, 29
1, 124843, Note_off_c, 0, 49, 52
1, 124851, Note_off_c, 0, 53, 48
1, 124860, Note_off_c, 0, 59, 49
1, 124879, Note_on_c, 0, 67, 68
1, 124886, Note_on_c, 0, 71, 63
1, 125015, Note_on_c, 0, 59, 57
1, 125020, Note_on_c, 0, 49, 48
1, 125020, Note_on_c, 0, 53, 53
1, 125020, Note_off_c, 0, 67, 59
1, 125032, Note_off_c, 0, 71, 56
1, 125116, Note_off_c, 0, 53, 57
1, 125118, Note_off_c, 0, 49, 54
1, 125122, Note_off_c, 0, 59, 55
1, 125128, Note_on_c, 0, 65, 84
1, 125142, Note_on_c, 0, 71, 76
1, 125251, Note_on_c, 0, 59, 67
1, 125252, Note_on_c, 0, 49, 61
1, 125257, Note_off_c, 0, 71, 55
1, 125260, Note_on_c, 0, 53, 56
1, 125266, Note_off_c, 0, 65, 57
1, 125332, Note_off_c, 0, 53, 59
1, 125345, Note_off_c, 0, 59, 56
1, 125361, Note_off_c, 0, 49, 48
1, 125367, Note_on_c, 0, 71, 82
1, 125375, Note_on_c, 0, 65, 76
1, 125375, Note_on_c, 0, 67, 73
1, 125421, Control_c, 0, 64, 125
1, 125436, Control_c, 0, 64, 115
1, 125451, Control_c, 0, 64, 110
1, 125466, Control_c, 0, 64, 106
1, 125480, Control_c, 0, 64, 103
1, 125495, Control_c, 0, 64, 101
1, 125505, Note_on_c, 0, 55, 60
1, 125508, Note_on_c, 0, 60, 67
1, 125509, Note_on_c, 0, 48, 61
1, 125510, Control_c, 0, 64, 99
1, 125526, Control_c, 0, 64, 98
1, 125541, Control_c, 0, 64, 95
1, 125556, Control_c, 0, 64, 88
1, 125570, Control_c, 0, 64, 76
1, 125585, Control_c, 0, 64, 65
1, 125600, Control_c, 0, 64, 51
1, 125615, Control_c, 0, 64, 36
1, 125633, Note_on_c, 0, 72, 86
1, 125637, Control_c, 0, 64, 37
1, 125640, Note_on_c, 0, 64, 75
1, 125640, Note_off_c, 0, 67, 34
1, 125645, Note_off_c, 0, 65, 59
1, 125652, Control_c, 0, 64, 41
1, 125652, Note_off_c, 0, 55, 58
1, 125665, Note_off_c, 0, 48, 58
1, 125667, Control_c, 0, 64, 49
1, 125677, Note_off_c, 0, 60, 56
1, 125682, Control_c, 0, 64, 56
1, 125691, Note_off_c, 0, 71, 57
1, 125697, Control_c, 0, 64, 61
1, 125711, Control_c, 0, 64, 64
1, 125726, Control_c, 0, 64, 68
1, 125741, Control_c, 0, 64, 75
1, 125756, Control_c, 0, 64, 86
1, 125770, Note_on_c, 0, 60, 77
1, 125771, Note_on_c, 0, 55, 71
1, 125771, Control_c, 0, 64, 101
1, 125772, Note_off_c, 0, 64, 52
1, 125780, Note_on_c, 0, 48, 65
1, 125785, Control_c, 0, 64, 120
1, 125792, Note_off_c, 0, 72, 58
1, 125800, Control_c, 0, 64, 127
1, 125874, Control_c, 0, 64, 122
1, 125879, Note_off_c, 0, 55, 61
1, 125879, Note_off_c, 0, 48, 53
1, 125889, Control_c, 0, 64, 116
1, 125896, Note_on_c, 0, 74, 91
1, 125903, Control_c, 0, 64, 113
1, 125907, Note_on_c, 0, 64, 68
1, 125915, Note_on_c, 0, 67, 56
1, 125915, Note_off_c, 0, 60, 58
1, 125918, Control_c, 0, 64, 110
1, 125933, Control_c, 0, 64, 109
1, 125948, Control_c, 0, 64, 108
1, 125962, Control_c, 0, 64, 105
1, 125977, Control_c, 0, 64, 100
1, 125992, Control_c, 0, 64, 86
1, 126007, Control_c, 0, 64, 72
1, 126022, Control_c, 0, 64, 61
1, 126028, Note_on_c, 0, 48, 59
1, 126031, Note_on_c, 0, 58, 65
1, 126037, Control_c, 0, 64, 52
1, 126040, Note_on_c, 0, 60, 63
1, 126052, Control_c, 0, 64, 54
1, 126067, Control_c, 0, 64, 58
1, 126082, Control_c, 0, 64, 63
1, 126085, Note_off_c, 0, 64, 55
1, 126085, Note_off_c, 0, 74, 61
1, 126096, Control_c, 0, 64, 66
1, 126100, Note_off_c, 0, 67, 17
1, 126111, Control_c, 0, 64, 70
1, 126126, Control_c, 0, 64, 78
1, 126141, Control_c, 0, 64, 94
1, 126153, Note_on_c, 0, 74, 93
1, 126155, Control_c, 0, 64, 127
1, 126162, Note_off_c, 0, 48, 57
1, 126171, Note_on_c, 0, 64, 75
1, 126174, Note_off_c, 0, 58, 53
1, 126194, Note_off_c, 0, 60, 58
1, 126271, Note_on_c, 0, 58, 62
1, 126276, Note_on_c, 0, 60, 65
1, 126278, Note_off_c, 0, 64, 36
1, 126284, Note_on_c, 0, 48, 68
1, 126301, Note_off_c, 0, 74, 57
1, 126411, Note_off_c, 0, 58, 51
1, 126421, Note_on_c, 0, 74, 91
1, 126422, Note_off_c, 0, 48, 55
1, 126432, Note_off_c, 0, 60, 57
1, 126434, Note_on_c, 0, 64, 75
1, 126445, Control_c, 0, 64, 125
1, 126460, Control_c, 0, 64, 122
1, 126475, Control_c, 0, 64, 120
1, 126505, Control_c, 0, 64, 119
1, 126520, Control_c, 0, 64, 117
1, 126534, Control_c, 0, 64, 116
1, 126558, Note_on_c, 0, 48, 61
1, 126558, Note_on_c, 0, 58, 62
1, 126559, Note_on_c, 0, 60, 63
1, 126564, Control_c, 0, 64, 115
1, 126607, Note_off_c, 0, 64, 55
1, 126678, Note_on_c, 0, 72, 88
1, 126681, Note_off_c, 0, 58, 50
1, 126682, Control_c, 0, 64, 115
1, 126686, Note_off_c, 0, 60, 54
1, 126694, Note_on_c, 0, 64, 67
1, 126696, Note_off_c, 0, 74, 65
1, 126697, Control_c, 0, 64, 114
1, 126699, Note_off_c, 0, 48, 34
1, 126712, Control_c, 0, 64, 113
1, 126726, Control_c, 0, 64, 112
1, 126741, Control_c, 0, 64, 112
1, 126785, Control_c, 0, 64, 111
1, 126807, Note_on_c, 0, 48, 71
1, 126808, Note_on_c, 0, 58, 58
1, 126810, Note_on_c, 0, 60, 67
1, 126814, Note_off_c, 0, 64, 53
1, 126815, Control_c, 0, 64, 110
1, 126830, Control_c, 0, 64, 109
1, 126845, Control_c, 0, 64, 109
1, 126860, Control_c, 0, 64, 108
1, 126869, Note_off_c, 0, 72, 62
1, 126875, Control_c, 0, 64, 107
1, 126889, Control_c, 0, 64, 106
1, 126927, Note_off_c, 0, 48, 55
1, 126939, Note_on_c, 0, 65, 88
1, 126940, Note_on_c, 0, 72, 81
1, 126949, Control_c, 0, 64, 106
1, 126964, Control_c, 0, 64, 104
1, 126978, Control_c, 0, 64, 95
1, 126982, Note_off_c, 0, 60, 53
1, 126993, Control_c, 0, 64, 83
1, 127008, Control_c, 0, 64, 70
1, 127023, Control_c, 0, 64, 64
1, 127031, Note_off_c, 0, 58, 0
1, 127038, Control_c, 0, 64, 61
1, 127045, Note_on_c, 0, 60, 48
1, 127046, Note_on_c, 0, 50, 73
1, 127052, Note_on_c, 0, 58, 26
1, 127052, Control_c, 0, 64, 62
1, 127067, Control_c, 0, 64, 64
1, 127082, Control_c, 0, 64, 66
1, 127097, Control_c, 0, 64, 70
1, 127112, Control_c, 0, 64, 74
1, 127132, Note_off_c, 0, 72, 58
1, 127135, Control_c, 0, 64, 80
1, 127142, Note_off_c, 0, 65, 58
1, 127149, Control_c, 0, 64, 85
1, 127164, Control_c, 0, 64, 92
1, 127179, Control_c, 0, 64, 101
1, 127194, Control_c, 0, 64, 112
1, 127195, Note_on_c, 0, 70, 94
1, 127198, Note_on_c, 0, 67, 86
1, 127199, Note_off_c, 0, 50, 57
1, 127206, Note_off_c, 0, 58, 38
1, 127208, Control_c, 0, 64, 127
1, 127265, Note_off_c, 0, 60, 36
1, 127268, Control_c, 0, 64, 106
1, 127283, Control_c, 0, 64, 86
1, 127298, Control_c, 0, 64, 68
1, 127300, Note_on_c, 0, 52, 84
1, 127309, Note_on_c, 0, 60, 59
1, 127313, Control_c, 0, 64, 57
1, 127316, Note_on_c, 0, 58, 70
1, 127328, Control_c, 0, 64, 51
1, 127343, Control_c, 0, 64, 55
1, 127357, Control_c, 0, 64, 60
1, 127372, Control_c, 0, 64, 64
1, 127378, Note_off_c, 0, 67, 58
1, 127387, Control_c, 0, 64, 70
1, 127389, Note_off_c, 0, 70, 62
1, 127401, Control_c, 0, 64, 80
1, 127416, Control_c, 0, 64, 107
1, 127425, Note_off_c, 0, 58, 63
1, 127431, Control_c, 0, 64, 127
1, 127435, Note_off_c, 0, 52, 64
1, 127451, Note_on_c, 0, 70, 92
1, 127456, Note_on_c, 0, 67, 90
1, 127494, Note_off_c, 0, 60, 53
1, 127581, Note_on_c, 0, 53, 80
1, 127584, Note_on_c, 0, 61, 88
1, 127623, Control_c, 0, 64, 115
1, 127638, Control_c, 0, 64, 83
1, 127653, Control_c, 0, 64, 65
1, 127668, Control_c, 0, 64, 39
1, 127682, Control_c, 0, 64, 18
1, 127688, Note_off_c, 0, 70, 58
1, 127704, Note_off_c, 0, 67, 51
1, 127712, Control_c, 0, 64, 19
1, 127726, Note_on_c, 0, 69, 96
1, 127727, Control_c, 0, 64, 28
1, 127730, Note_on_c, 0, 65, 86
1, 127742, Control_c, 0, 64, 40
1, 127757, Control_c, 0, 64, 54
1, 127772, Control_c, 0, 64, 60
1, 127772, Note_off_c, 0, 53, 54
1, 127787, Control_c, 0, 64, 64
1, 127797, Note_off_c, 0, 61, 60
1, 127801, Control_c, 0, 64, 69
1, 127816, Control_c, 0, 64, 79
1, 127831, Control_c, 0, 64, 117
1, 127846, Note_off_c, 0, 65, 56
1, 127846, Control_c, 0, 64, 127
1, 127876, Note_on_c, 0, 62, 87
1, 127883, Note_on_c, 0, 53, 80
1, 127885, Note_off_c, 0, 69, 64
1, 127979, Note_off_c, 0, 53, 63
1, 128025, Note_off_c, 0, 62, 58
1, 128045, Note_on_c, 0, 77, 96
1, 128055, Note_on_c, 0, 65, 74
1, 128069, Note_on_c, 0, 69, 68
1, 128135, Control_c, 0, 64, 88
1, 128150, Control_c, 0, 64, 69
1, 128165, Control_c, 0, 64, 52
1, 128180, Control_c, 0, 64, 19
1, 128195, Note_on_c, 0, 53, 64
1, 128195, Control_c, 0, 64, 20
1, 128195, Note_on_c, 0, 50, 65
1, 128195, Note_on_c, 0, 62, 74
1, 128197, Note_on_c, 0, 57, 69
1, 128210, Control_c, 0, 64, 26
1, 128224, Control_c, 0, 64, 40
1, 128239, Control_c, 0, 64, 52
1, 128254, Control_c, 0, 64, 59
1, 128269, Control_c, 0, 64, 64
1, 128281, Note_off_c, 0, 69, 51
1, 128284, Control_c, 0, 64, 68
1, 128285, Note_off_c, 0, 77, 60
1, 128289, Note_off_c, 0, 65, 57
1, 128298, Control_c, 0, 64, 76
1, 128313, Control_c, 0, 64, 99
1, 128328, Control_c, 0, 64, 127
1, 128356, Note_on_c, 0, 77, 98
1, 128362, Note_on_c, 0, 65, 82
1, 128371, Note_off_c, 0, 50, 62
1, 128372, Note_on_c, 0, 69, 78
1, 128386, Note_off_c, 0, 62, 57
1, 128401, Note_off_c, 0, 57, 56
1, 128405, Note_off_c, 0, 53, 56
1, 128502, Note_off_c, 0, 69, 61
1, 128506, Note_on_c, 0, 62, 83
1, 128514, Note_on_c, 0, 50, 67
1, 128515, Note_on_c, 0, 57, 69
1, 128520, Note_on_c, 0, 53, 61
1, 128544, Note_off_c, 0, 65, 56
1, 128573, Note_off_c, 0, 77, 51
1, 128633, Note_off_c, 0, 57, 63
1, 128649, Note_off_c, 0, 50, 60
1, 128652, Note_off_c, 0, 53, 57
1, 128669, Note_on_c, 0, 77, 95
1, 128673, Note_off_c, 0, 62, 59
1, 128681, Note_on_c, 0, 70, 69
1, 128682, Note_on_c, 0, 67, 72
1, 128705, Control_c, 0, 64, 122
1, 128721, Control_c, 0, 64, 111
1, 128736, Control_c, 0, 64, 105
1, 128751, Control_c, 0, 64, 101
1, 128766, Control_c, 0, 64, 97
1, 128781, Control_c, 0, 64, 88
1, 128795, Control_c, 0, 64, 77
1, 128810, Control_c, 0, 64, 65
1, 128814, Note_on_c, 0, 50, 52
1, 128818, Note_on_c, 0, 58, 61
1, 128819, Note_on_c, 0, 55, 54
1, 128825, Note_on_c, 0, 62, 57
1, 128825, Control_c, 0, 64, 47
1, 128840, Control_c, 0, 64, 11
1, 128854, Control_c, 0, 64, 0
1, 128869, Control_c, 0, 64, 15
1, 128884, Note_off_c, 0, 70, 45
1, 128884, Control_c, 0, 64, 29
1, 128899, Control_c, 0, 64, 42
1, 128908, Note_off_c, 0, 67, 56
1, 128914, Control_c, 0, 64, 52
1, 128928, Control_c, 0, 64, 57
1, 128943, Control_c, 0, 64, 60
1, 128958, Control_c, 0, 64, 63
1, 128963, Note_on_c, 0, 75, 89
1, 128973, Note_off_c, 0, 55, 61
1, 128973, Control_c, 0, 64, 66
1, 128975, Note_off_c, 0, 50, 59
1, 128977, Note_on_c, 0, 67, 60
1, 128978, Note_off_c, 0, 58, 61
1, 128979, Note_off_c, 0, 62, 60
1, 128982, Note_on_c, 0, 70, 63
1, 128988, Control_c, 0, 64, 70
1, 128997, Note_off_c, 0, 77, 57
1, 129003, Control_c, 0, 64, 76
1, 129018, Control_c, 0, 64, 83
1, 129033, Control_c, 0, 64, 92
1, 129047, Control_c, 0, 64, 101
1, 129062, Control_c, 0, 64, 111
1, 129077, Control_c, 0, 64, 120
1, 129092, Control_c, 0, 64, 127
1, 129092, Note_on_c, 0, 50, 50
1, 129101, Note_on_c, 0, 62, 63
1, 129102, Note_on_c, 0, 55, 59
1, 129108, Note_on_c, 0, 58, 57
1, 129135, Note_off_c, 0, 70, 35
1, 129148, Note_off_c, 0, 67, 35
1, 129151, Note_off_c, 0, 75, 60
1, 129202, Note_off_c, 0, 58, 58
1, 129209, Note_off_c, 0, 55, 58
1, 129210, Note_off_c, 0, 50, 56
1, 129217, Note_on_c, 0, 74, 88
1, 129223, Note_off_c, 0, 62, 55
1, 129236, Note_on_c, 0, 67, 70
1, 129236, Note_on_c, 0, 70, 61
1, 129322, Note_off_c, 0, 70, 52
1, 129345, Note_on_c, 0, 62, 69
1, 129346, Note_on_c, 0, 55, 62
1, 129349, Note_on_c, 0, 58, 67
1, 129349, Note_on_c, 0, 50, 65
1, 129393, Note_off_c, 0, 74, 58
1, 129408, Note_off_c, 0, 67, 35
1, 129462, Note_off_c, 0, 58, 58
1, 129463, Note_off_c, 0, 50, 55
1, 129466, Note_off_c, 0, 55, 59
1, 129470, Note_on_c, 0, 73, 90
1, 129473, Note_off_c, 0, 62, 55
1, 129476, Note_on_c, 0, 70, 74
1, 129483, Note_on_c, 0, 67, 75
1, 129580, Note_off_c, 0, 67, 54
1, 129584, Note_off_c, 0, 70, 57
1, 129604, Note_on_c, 0, 55, 58
1, 129606, Note_on_c, 0, 58, 62
1, 129609, Note_on_c, 0, 62, 63
1, 129612, Note_on_c, 0, 50, 55
1, 129618, Control_c, 0, 64, 122
1, 129633, Control_c, 0, 64, 116
1, 129648, Control_c, 0, 64, 112
1, 129661, Note_off_c, 0, 73, 59
1, 129663, Control_c, 0, 64, 109
1, 129677, Control_c, 0, 64, 105
1, 129692, Control_c, 0, 64, 102
1, 129702, Note_off_c, 0, 58, 59
1, 129703, Note_off_c, 0, 55, 53
1, 129707, Control_c, 0, 64, 98
1, 129722, Control_c, 0, 64, 96
1, 129730, Note_on_c, 0, 73, 82
1, 129736, Note_off_c, 0, 50, 35
1, 129737, Control_c, 0, 64, 94
1, 129739, Note_off_c, 0, 62, 47
1, 129746, Note_on_c, 0, 65, 66
1, 129746, Note_on_c, 0, 69, 66
1, 129751, Control_c, 0, 64, 93
1, 129766, Control_c, 0, 64, 91
1, 129781, Control_c, 0, 64, 90
1, 129796, Control_c, 0, 64, 88
1, 129811, Control_c, 0, 64, 85
1, 129826, Control_c, 0, 64, 81
1, 129841, Control_c, 0, 64, 74
1, 129855, Control_c, 0, 64, 65
1, 129870, Control_c, 0, 64, 52
1, 129871, Note_on_c, 0, 50, 56
1, 129872, Note_on_c, 0, 62, 58
1, 129875, Note_on_c, 0, 57, 57
1, 129885, Note_on_c, 0, 53, 51
1, 129885, Control_c, 0, 64, 24
1, 129900, Control_c, 0, 64, 23
1, 129905, Note_off_c, 0, 69, 45
1, 129915, Control_c, 0, 64, 26
1, 129930, Control_c, 0, 64, 36
1, 129941, Note_off_c, 0, 65, 56
1, 129944, Control_c, 0, 64, 47
1, 129959, Control_c, 0, 64, 55
1, 129974, Control_c, 0, 64, 59
1, 129988, Control_c, 0, 64, 63
1, 129998, Note_on_c, 0, 74, 90
1, 130003, Control_c, 0, 64, 67
1, 130009, Note_on_c, 0, 65, 64
1, 130010, Note_on_c, 0, 69, 65
1, 130018, Control_c, 0, 64, 74
1, 130027, Note_off_c, 0, 50, 59
1, 130033, Control_c, 0, 64, 86
1, 130037, Note_off_c, 0, 62, 57
1, 130038, Note_off_c, 0, 57, 58
1, 130039, Note_off_c, 0, 53, 58
1, 130048, Control_c, 0, 64, 100
1, 130062, Control_c, 0, 64, 116
1, 130077, Control_c, 0, 64, 125
1, 130086, Note_off_c, 0, 73, 61
1, 130145, Note_on_c, 0, 57, 59
1, 130147, Note_on_c, 0, 62, 63
1, 130150, Note_on_c, 0, 50, 57
1, 130153, Note_on_c, 0, 53, 53
1, 130160, Note_off_c, 0, 74, 58
1, 130174, Control_c, 0, 64, 120
1, 130189, Control_c, 0, 64, 115
1, 130195, Note_off_c, 0, 65, 32
1, 130204, Control_c, 0, 64, 112
1, 130212, Note_off_c, 0, 69, 30
1, 130219, Control_c, 0, 64, 110
1, 130234, Control_c, 0, 64, 108
1, 130249, Note_off_c, 0, 50, 54
1, 130249, Control_c, 0, 64, 105
1, 130264, Control_c, 0, 64, 102
1, 130273, Note_off_c, 0, 53, 51
1, 130276, Note_off_c, 0, 57, 52
1, 130278, Control_c, 0, 64, 99
1, 130281, Note_on_c, 0, 77, 87
1, 130284, Note_off_c, 0, 62, 53
1, 130288, Note_on_c, 0, 69, 55
1, 130293, Note_on_c, 0, 65, 59
1, 130293, Control_c, 0, 64, 97
1, 130308, Control_c, 0, 64, 95
1, 130323, Control_c, 0, 64, 93
1, 130338, Control_c, 0, 64, 90
1, 130353, Control_c, 0, 64, 84
1, 130368, Control_c, 0, 64, 74
1, 130383, Control_c, 0, 64, 65
1, 130398, Control_c, 0, 64, 56
1, 130413, Control_c, 0, 64, 52
1, 130426, Note_on_c, 0, 57, 58
1, 130427, Note_on_c, 0, 62, 56
1, 130427, Control_c, 0, 64, 54
1, 130432, Note_on_c, 0, 53, 53
1, 130434, Note_on_c, 0, 50, 53
1, 130442, Control_c, 0, 64, 57
1, 130457, Control_c, 0, 64, 60
1, 130472, Control_c, 0, 64, 63
1, 130483, Note_off_c, 0, 69, 56
1, 130487, Control_c, 0, 64, 65
1, 130496, Note_off_c, 0, 65, 56
1, 130501, Control_c, 0, 64, 68
1, 130509, Note_off_c, 0, 77, 59
1, 130516, Control_c, 0, 64, 75
1, 130531, Control_c, 0, 64, 87
1, 130546, Control_c, 0, 64, 115
1, 130561, Control_c, 0, 64, 127
1, 130563, Note_off_c, 0, 50, 57
1, 130572, Note_off_c, 0, 57, 60
1, 130574, Note_off_c, 0, 53, 57
1, 130582, Note_on_c, 0, 77, 88
1, 130582, Note_off_c, 0, 62, 57
1, 130599, Note_on_c, 0, 65, 61
1, 130601, Note_on_c, 0, 69, 67
1, 130699, Note_off_c, 0, 69, 59
1, 130723, Control_c, 0, 64, 120
1, 130732, Note_off_c, 0, 65, 33
1, 130735, Note_on_c, 0, 57, 45
1, 130738, Control_c, 0, 64, 112
1, 130748, Note_on_c, 0, 50, 49
1, 130748, Note_on_c, 0, 62, 43
1, 130753, Control_c, 0, 64, 107
1, 130768, Control_c, 0, 64, 103
1, 130771, Note_off_c, 0, 77, 56
1, 130783, Control_c, 0, 64, 99
1, 130791, Note_off_c, 0, 57, 60
1, 130797, Control_c, 0, 64, 95
1, 130798, Note_off_c, 0, 50, 56
1, 130806, Poly_aftertouch_c, 0, 53, 127
1, 130812, Control_c, 0, 64, 93
1, 130818, Note_off_c, 0, 62, 48
1, 130827, Control_c, 0, 64, 91
1, 130841, Poly_aftertouch_c, 0, 53, 0
1, 130842, Control_c, 0, 64, 90
1, 130857, Control_c, 0, 64, 88
1, 130879, Control_c, 0, 64, 86
1, 130893, Control_c, 0, 64, 84
1, 130908, Control_c, 0, 64, 82
1, 130923, Control_c, 0, 64, 79
1, 130938, Control_c, 0, 64, 78
1, 130953, Control_c, 0, 64, 76
1, 130962, Note_on_c, 0, 77, 50
1, 130968, Control_c, 0, 64, 73
1, 130972, Note_on_c, 0, 67, 36
1, 130979, Note_on_c, 0, 70, 32
1, 130982, Control_c, 0, 64, 71
1, 130997, Control_c, 0, 64, 68
1, 131012, Control_c, 0, 64, 65
1, 131027, Control_c, 0, 64, 61
1, 131042, Control_c, 0, 64, 56
1, 131057, Control_c, 0, 64, 50
1, 131072, Control_c, 0, 64, 45
1, 131087, Control_c, 0, 64, 42
1, 131101, Control_c, 0, 64, 41
1, 131131, Control_c, 0, 64, 42
1, 131134, Note_on_c, 0, 50, 24
1, 131135, Note_on_c, 0, 55, 33
1, 131143, Note_on_c, 0, 62, 25
1, 131145, Note_on_c, 0, 58, 33
1, 131146, Control_c, 0, 64, 45
1, 131161, Control_c, 0, 64, 50
1, 131176, Control_c, 0, 64, 55
1, 131180, Note_off_c, 0, 70, 39
1, 131191, Control_c, 0, 64, 59
1, 131206, Control_c, 0, 64, 62
1, 131219, Note_off_c, 0, 67, 32
1, 131221, Control_c, 0, 64, 65
1, 131236, Control_c, 0, 64, 68
1, 131250, Control_c, 0, 64, 73
1, 131265, Control_c, 0, 64, 81
1, 131267, Note_off_c, 0, 58, 53
1, 131274, Note_off_c, 0, 55, 49
1, 131280, Control_c, 0, 64, 89
1, 131281, Note_off_c, 0, 62, 48
1, 131286, Note_off_c, 0, 50, 40
1, 131295, Control_c, 0, 64, 93
1, 131297, Note_on_c, 0, 75, 63
1, 131298, Note_on_c, 0, 67, 27
1, 131310, Control_c, 0, 64, 94
1, 131313, Note_on_c, 0, 70, 39
1, 131330, Note_off_c, 0, 77, 38
1, 131339, Control_c, 0, 64, 93
1, 131366, Note_off_c, 0, 70, 44
1, 131369, Control_c, 0, 64, 93
1, 131384, Control_c, 0, 64, 92
1, 131398, Control_c, 0, 64, 92
1, 131413, Control_c, 0, 64, 91
1, 131415, Note_off_c, 0, 67, 38
1, 131421, Note_off_c, 0, 75, 57
1, 131428, Note_on_c, 0, 55, 40
1, 131428, Control_c, 0, 64, 90
1, 131442, Control_c, 0, 64, 89
1, 131444, Note_on_c, 0, 62, 22
1, 131445, Note_on_c, 0, 58, 33
1, 131449, Note_on_c, 0, 50, 22
1, 131457, Control_c, 0, 64, 89
1, 131472, Control_c, 0, 64, 88
1, 131487, Control_c, 0, 64, 88
1, 131502, Control_c, 0, 64, 87
1, 131506, Note_off_c, 0, 58, 58
1, 131508, Note_off_c, 0, 55, 54
1, 131516, Control_c, 0, 64, 87
1, 131519, Note_off_c, 0, 50, 43
1, 131531, Control_c, 0, 64, 86
1, 131546, Control_c, 0, 64, 84
1, 131547, Note_off_c, 0, 62, 36
1, 131561, Control_c, 0, 64, 83
1, 131576, Control_c, 0, 64, 82
1, 131590, Control_c, 0, 64, 82
1, 131599, Note_on_c, 0, 67, 36
1, 131599, Note_on_c, 0, 74, 53
1, 131605, Note_on_c, 0, 70, 37
1, 131605, Control_c, 0, 64, 81
1, 131628, Control_c, 0, 64, 80
1, 131643, Control_c, 0, 64, 78
1, 131657, Control_c, 0, 64, 76
1, 131672, Control_c, 0, 64, 73
1, 131687, Control_c, 0, 64, 68
1, 131702, Control_c, 0, 64, 64
1, 131716, Control_c, 0, 64, 60
1, 131731, Control_c, 0, 64, 59
1, 131746, Control_c, 0, 64, 60
1, 131761, Control_c, 0, 64, 62
1, 131770, Note_on_c, 0, 55, 33
1, 131773, Note_on_c, 0, 58, 31
1, 131775, Control_c, 0, 64, 64
1, 131776, Note_on_c, 0, 50, 28
1, 131776, Note_on_c, 0, 62, 24
1, 131790, Control_c, 0, 64, 66
1, 131805, Control_c, 0, 64, 68
1, 131820, Control_c, 0, 64, 71
1, 131823, Note_off_c, 0, 70, 40
1, 131829, Note_off_c, 0, 67, 41
1, 131835, Control_c, 0, 64, 75
1, 131850, Control_c, 0, 64, 80
1, 131865, Control_c, 0, 64, 84
1, 131880, Control_c, 0, 64, 89
1, 131894, Control_c, 0, 64, 91
1, 131915, Note_off_c, 0, 58, 54
1, 131921, Note_off_c, 0, 62, 49
1, 131922, Note_off_c, 0, 55, 47
1, 131927, Note_off_c, 0, 50, 39
1, 131976, Note_on_c, 0, 73, 48
1, 131981, Note_on_c, 0, 67, 37
1, 131987, Note_on_c, 0, 70, 34
1, 132000, Control_c, 0, 64, 90
1, 132015, Note_off_c, 0, 74, 51
1, 132029, Control_c, 0, 64, 90
1, 132059, Control_c, 0, 64, 89
1, 132073, Control_c, 0, 64, 89
1, 132103, Control_c, 0, 64, 88
1, 132112, Note_off_c, 0, 70, 37
1, 132118, Control_c, 0, 64, 88
1, 132163, Control_c, 0, 64, 87
1, 132170, Note_off_c, 0, 67, 40
1, 132190, Note_on_c, 0, 62, 26
1, 132192, Note_on_c, 0, 55, 25
1, 132193, Control_c, 0, 64, 87
1, 132204, Note_on_c, 0, 50, 24
1, 132210, Note_on_c, 0, 58, 30
1, 132237, Control_c, 0, 64, 86
1, 132252, Control_c, 0, 64, 86
1, 132266, Control_c, 0, 64, 85
1, 132282, Note_off_c, 0, 58, 39
1, 132296, Control_c, 0, 64, 85
1, 132326, Control_c, 0, 64, 84
1, 132340, Control_c, 0, 64, 84
1, 132355, Control_c, 0, 64, 83
1, 132377, Control_c, 0, 64, 82
1, 132392, Control_c, 0, 64, 82
1, 132407, Control_c, 0, 64, 81
1, 132422, Control_c, 0, 64, 80
1, 132452, Control_c, 0, 64, 80
1, 132466, Control_c, 0, 64, 79
1, 132481, Control_c, 0, 64, 78
1, 132496, Control_c, 0, 64, 78
1, 132526, Control_c, 0, 64, 77
1, 132540, Control_c, 0, 64, 77
1, 132547, Note_on_c, 0, 74, 38
1, 132552, Note_on_c, 0, 57, 26
1, 132555, Control_c, 0, 64, 76
1, 132565, Note_on_c, 0, 53, 29
1, 132570, Control_c, 0, 64, 75
1, 132572, Note_on_c, 0, 65, 28
1, 132576, Note_on_c, 0, 69, 24
1, 132585, Control_c, 0, 64, 74
1, 132599, Control_c, 0, 64, 72
1, 132600, Note_off_c, 0, 55, 41
1, 132614, Control_c, 0, 64, 70
1, 132623, Note_off_c, 0, 73, 29
1, 132629, Control_c, 0, 64, 69
1, 132644, Control_c, 0, 64, 66
1, 132659, Control_c, 0, 64, 63
1, 132673, Control_c, 0, 64, 58
1, 132688, Control_c, 0, 64, 50
1, 132703, Control_c, 0, 64, 44
1, 132718, Control_c, 0, 64, 38
1, 132733, Control_c, 0, 64, 31
1, 132748, Control_c, 0, 64, 22
1, 132762, Control_c, 0, 64, 12
1, 132777, Control_c, 0, 64, 0
1, 132851, Control_c, 0, 64, 11
1, 132866, Control_c, 0, 64, 21
1, 132881, Control_c, 0, 64, 31
1, 132896, Control_c, 0, 64, 38
1, 132911, Control_c, 0, 64, 44
1, 132926, Control_c, 0, 64, 48
1, 132941, Control_c, 0, 64, 50
1, 132956, Control_c, 0, 64, 53
1, 132970, Control_c, 0, 64, 56
1, 132985, Control_c, 0, 64, 59
1, 133000, Control_c, 0, 64, 61
1, 133014, Control_c, 0, 64, 63
1, 133029, Control_c, 0, 64, 65
1, 133044, Control_c, 0, 64, 66
1, 133059, Control_c, 0, 64, 69
1, 133074, Control_c, 0, 64, 72
1, 133088, Control_c, 0, 64, 76
1, 133103, Control_c, 0, 64, 79
1, 133126, Control_c, 0, 64, 82
1, 133140, Control_c, 0, 64, 85
1, 133155, Control_c, 0, 64, 87
1, 133169, Note_off_c, 0, 62, 36
1, 133169, Note_off_c, 0, 65, 40
1, 133170, Control_c, 0, 64, 89
1, 133176, Note_off_c, 0, 50, 41
1, 133182, Note_off_c, 0, 57, 42
1, 133183, Note_off_c, 0, 69, 43
1, 133185, Control_c, 0, 64, 91
1, 133186, Note_off_c, 0, 53, 42
1, 133200, Control_c, 0, 64, 93
1, 133206, Note_off_c, 0, 74, 63
1, 133215, Control_c, 0, 64, 94
1, 133289, Control_c, 0, 64, 94
1, 133303, Control_c, 0, 64, 93
1, 133318, Control_c, 0, 64, 93
1, 133333, Control_c, 0, 64, 92
1, 133362, Control_c, 0, 64, 91
1, 133377, Control_c, 0, 64, 91
1, 133392, Control_c, 0, 64, 90
1, 133407, Control_c, 0, 64, 89
1, 133421, Control_c, 0, 64, 87
1, 133436, Control_c, 0, 64, 84
1, 133451, Control_c, 0, 64, 79
1, 133466, Control_c, 0, 64, 72
1, 133481, Control_c, 0, 64, 64
1, 133495, Control_c, 0, 64, 52
1, 133511, Control_c, 0, 64, 29
1, 133526, Control_c, 0, 64, 0
1, 133825, Note_on_c, 0, 81, 70
1, 133835, Note_on_c, 0, 69, 54
1, 133835, Note_on_c, 0, 62, 41
1, 133840, Note_on_c, 0, 65, 40
1, 133844, Note_on_c, 0, 74, 36
1, 133847, Note_on_c, 0, 77, 41
1, 133852, Note_off_c, 0, 81, 68
1, 133868, Note_off_c, 0, 69, 62
1, 133871, Note_off_c, 0, 62, 52
1, 133877, Note_off_c, 0, 65, 49
1, 133877, Note_off_c, 0, 74, 35
1, 133878, Note_off_c, 0, 77, 48
1, 134199, Note_on_c, 0, 69, 52
1, 134208, Note_on_c, 0, 38, 41
1, 134212, Note_on_c, 0, 57, 38
1, 134214, Note_on_c, 0, 62, 35
1, 134216, Note_on_c, 0, 65, 41
1, 134217, Note_on_c, 0, 50, 36
1, 134255, Note_off_c, 0, 50, 64
1, 134258, Note_off_c, 0, 38, 62
1, 134267, Note_off_c, 0, 62, 61
1, 134267, Note_off_c, 0, 57, 62
1, 134288, Note_off_c, 0, 69, 61
1, 134291, Note_off_c, 0, 65, 56
1, 134477, Note_on_c, 0, 35, 45
1, 134478, Note_on_c, 0, 47, 46
1, 134480, Note_on_c, 0, 68, 55
1, 134482, Control_c, 0, 64, 35
1, 134497, Note_on_c, 0, 62, 22
1, 134497, Control_c, 0, 64, 60
1, 134505, Note_off_c, 0, 47, 56
1, 134511, Note_off_c, 0, 68, 65
1, 134512, Control_c, 0, 64, 67
1, 134514, Note_off_c, 0, 35, 48
1, 134527, Control_c, 0, 64, 79
1, 134537, Note_off_c, 0, 62, 40
1, 134541, Control_c, 0, 64, 127
1, 134697, Control_c, 0, 64, 104
1, 134712, Control_c, 0, 64, 74
1, 134727, Control_c, 0, 64, 49
1, 134741, Note_on_c, 0, 80, 74
1, 134741, Control_c, 0, 64, 0
1, 134747, Note_on_c, 0, 77, 63
1, 134750, Note_on_c, 0, 74, 48
1, 134763, Note_off_c, 0, 80, 71
1, 134765, Note_off_c, 0, 77, 64
1, 134771, Note_on_c, 0, 71, 17
1, 134771, Note_off_c, 0, 74, 52
1, 134810, Note_off_c, 0, 71, 29
1, 135001, Note_on_c, 0, 86, 85
1, 135004, Note_on_c, 0, 70, 57
1, 135010, Note_on_c, 0, 79, 62
1, 135032, Note_off_c, 0, 70, 67
1, 135034, Note_off_c, 0, 79, 65
1, 135037, Note_on_c, 0, 76, 8
1, 135037, Note_off_c, 0, 86, 66
1, 135088, Note_off_c, 0, 76, 28
1, 135287, Note_on_c, 0, 43, 55
1, 135291, Note_on_c, 0, 74, 62
1, 135296, Note_on_c, 0, 64, 54
1, 135303, Note_on_c, 0, 55, 46
1, 135307, Note_on_c, 0, 70, 47
1, 135314, Note_on_c, 0, 67, 32
1, 135392, Note_off_c, 0, 43, 64
1, 135394, Note_off_c, 0, 55, 64
1, 135395, Note_off_c, 0, 67, 57
1, 135405, Note_off_c, 0, 70, 60
1, 135409, Note_off_c, 0, 64, 61
1, 135414, Note_off_c, 0, 74, 61
1, 135553, Note_on_c, 0, 67, 58
1, 135558, Note_on_c, 0, 45, 61
1, 135558, Note_on_c, 0, 57, 61
1, 135560, Note_on_c, 0, 64, 44
1, 135564, Control_c, 0, 64, 36
1, 135579, Control_c, 0, 64, 60
1, 135582, Note_off_c, 0, 67, 65
1, 135586, Note_off_c, 0, 64, 57
1, 135587, Note_off_c, 0, 45, 65
1, 135587, Note_off_c, 0, 57, 66
1, 135594, Control_c, 0, 64, 69
1, 135609, Control_c, 0, 64, 85
1, 135624, Control_c, 0, 64, 127
1, 135757, Control_c, 0, 64, 80
1, 135771, Control_c, 0, 64, 55
1, 135786, Control_c, 0, 64, 0
1, 135803, Note_on_c, 0, 78, 75
1, 135805, Note_on_c, 0, 80, 77
1, 135814, Note_on_c, 0, 64, 42
1, 135828, Note_off_c, 0, 80, 68
1, 135829, Note_off_c, 0, 78, 67
1, 135834, Note_on_c, 0, 67, 13
1, 135842, Note_off_c, 0, 64, 55
1, 135880, Note_off_c, 0, 67, 29
1, 136060, Note_on_c, 0, 88, 95
1, 136063, Note_on_c, 0, 61, 70
1, 136064, Note_on_c, 0, 69, 55
1, 136073, Note_on_c, 0, 79, 70
1, 136077, Note_on_c, 0, 76, 59
1, 136086, Note_off_c, 0, 69, 60
1, 136095, Note_off_c, 0, 61, 67
1, 136096, Note_off_c, 0, 76, 62
1, 136099, Note_off_c, 0, 79, 66
1, 136100, Note_off_c, 0, 88, 68
1, 136328, Note_on_c, 0, 69, 75
1, 136333, Note_on_c, 0, 45, 68
1, 136339, Note_on_c, 0, 33, 58
1, 136341, Note_on_c, 0, 67, 69
1, 136369, Note_on_c, 0, 35, 36
1, 136413, Note_off_c, 0, 35, 29
1, 136413, Note_off_c, 0, 67, 62
1, 136417, Note_off_c, 0, 33, 63
1, 136419, Note_off_c, 0, 45, 64
1, 136431, Note_off_c, 0, 69, 62
1, 136577, Note_on_c, 0, 50, 78
1, 136577, Note_on_c, 0, 69, 69
1, 136580, Control_c, 0, 64, 39
1, 136580, Note_on_c, 0, 38, 74
1, 136584, Note_on_c, 0, 65, 67
1, 136586, Note_on_c, 0, 77, 71
1, 136586, Note_on_c, 0, 79, 79
1, 136588, Note_on_c, 0, 74, 66
1, 136594, Control_c, 0, 64, 64
1, 136604, Note_off_c, 0, 50, 68
1, 136605, Note_off_c, 0, 38, 64
1, 136607, Note_off_c, 0, 69, 68
1, 136609, Control_c, 0, 64, 76
1, 136613, Note_off_c, 0, 65, 68
1, 136617, Note_off_c, 0, 74, 67
1, 136620, Note_off_c, 0, 79, 68
1, 136624, Control_c, 0, 64, 127
1, 136633, Note_off_c, 0, 77, 64
1, 136803, Control_c, 0, 64, 97
1, 136817, Control_c, 0, 64, 63
1, 136825, Note_on_c, 0, 53, 73
1, 136826, Note_on_c, 0, 62, 67
1, 136826, Note_on_c, 0, 74, 92
1, 136832, Note_on_c, 0, 57, 58
1, 136832, Control_c, 0, 64, 0
1, 136837, Note_on_c, 0, 69, 78
1, 136861, Note_off_c, 0, 57, 63
1, 136861, Note_off_c, 0, 62, 66
1, 136863, Note_off_c, 0, 53, 65
1, 136866, Note_off_c, 0, 69, 70
1, 136873, Note_off_c, 0, 74, 67
1, 137085, Note_on_c, 0, 82, 96
1, 137086, Note_on_c, 0, 55, 73
1, 137089, Note_on_c, 0, 58, 67
1, 137089, Note_on_c, 0, 67, 59
1, 137090, Note_on_c, 0, 70, 89
1, 137093, Note_on_c, 0, 74, 79
1, 137095, Note_on_c, 0, 62, 56
1, 137109, Note_off_c, 0, 67, 63
1, 137117, Note_off_c, 0, 74, 69
1, 137119, Note_off_c, 0, 58, 65
1, 137119, Note_off_c, 0, 62, 63
1, 137121, Note_off_c, 0, 55, 66
1, 137122, Note_on_c, 0, 79, 38
1, 137136, Note_off_c, 0, 82, 68
1, 137138, Note_off_c, 0, 70, 65
1, 137150, Note_off_c, 0, 79, 35
1, 137364, Note_on_c, 0, 67, 90
1, 137366, Note_on_c, 0, 34, 76
1, 137366, Note_on_c, 0, 46, 77
1, 137373, Note_on_c, 0, 62, 78
1, 137478, Note_off_c, 0, 34, 61
1, 137481, Note_off_c, 0, 46, 62
1, 137481, Note_off_c, 0, 62, 62
1, 137505, Note_off_c, 0, 67, 56
1, 137647, Note_on_c, 0, 45, 71
1, 137652, Note_on_c, 0, 33, 64
1, 137654, Note_on_c, 0, 64, 70
1, 137654, Note_on_c, 0, 73, 85
1, 137656, Note_on_c, 0, 61, 68
1, 137662, Control_c, 0, 64, 24
1, 137677, Control_c, 0, 64, 56
1, 137680, Note_off_c, 0, 64, 68
1, 137681, Note_on_c, 0, 69, 39
1, 137684, Note_off_c, 0, 61, 66
1, 137685, Note_off_c, 0, 33, 64
1, 137689, Note_off_c, 0, 45, 64
1, 137692, Control_c, 0, 64, 65
1, 137707, Control_c, 0, 64, 75
1, 137710, Note_off_c, 0, 69, 49
1, 137711, Note_off_c, 0, 73, 67
1, 137722, Control_c, 0, 64, 127
1, 137870, Control_c, 0, 64, 100
1, 137884, Control_c, 0, 64, 84
1, 137899, Control_c, 0, 64, 69
1, 137914, Control_c, 0, 64, 54
1, 137929, Control_c, 0, 64, 0
1, 137997, Note_on_c, 0, 61, 53
1, 137997, Note_on_c, 0, 69, 58
1, 137998, Note_on_c, 0, 67, 50
1, 138002, Note_on_c, 0, 64, 46
1, 138021, Note_off_c, 0, 67, 58
1, 138025, Note_off_c, 0, 61, 62
1, 138025, Note_off_c, 0, 69, 64
1, 138027, Note_off_c, 0, 64, 57
1, 138266, Note_on_c, 0, 81, 70
1, 138277, Note_on_c, 0, 69, 51
1, 138278, Note_on_c, 0, 62, 38
1, 138281, Note_on_c, 0, 65, 33
1, 138297, Note_on_c, 0, 77, 28
1, 138298, Note_on_c, 0, 74, 15
1, 138303, Note_off_c, 0, 81, 65
1, 138303, Note_off_c, 0, 69, 60
1, 138308, Note_off_c, 0, 62, 49
1, 138315, Note_off_c, 0, 65, 44
1, 138321, Note_off_c, 0, 77, 35
1, 138324, Note_off_c, 0, 74, 34
1, 138574, Note_on_c, 0, 69, 59
1, 138581, Note_on_c, 0, 38, 40
1, 138585, Note_on_c, 0, 50, 33
1, 138599, Note_on_c, 0, 60, 39
1, 138614, Note_on_c, 0, 65, 49
1, 138620, Note_on_c, 0, 62, 26
1, 138667, Note_off_c, 0, 50, 60
1, 138668, Note_off_c, 0, 38, 61
1, 138672, Note_off_c, 0, 62, 58
1, 138685, Note_off_c, 0, 60, 62
1, 138686, Note_off_c, 0, 65, 58
1, 138692, Note_off_c, 0, 69, 57
1, 138826, Control_c, 0, 64, 46
1, 138840, Control_c, 0, 64, 63
1, 138842, Note_on_c, 0, 43, 46
1, 138843, Note_on_c, 0, 55, 43
1, 138846, Note_on_c, 0, 67, 55
1, 138849, Note_on_c, 0, 59, 38
1, 138852, Note_on_c, 0, 65, 39
1, 138855, Control_c, 0, 64, 71
1, 138861, Note_on_c, 0, 62, 21
1, 138870, Control_c, 0, 64, 88
1, 138874, Note_off_c, 0, 43, 51
1, 138875, Note_off_c, 0, 55, 52
1, 138877, Note_off_c, 0, 67, 65
1, 138882, Note_off_c, 0, 65, 50
1, 138883, Note_off_c, 0, 59, 44
1, 138885, Control_c, 0, 64, 127
1, 138903, Note_off_c, 0, 62, 53
1, 139019, Control_c, 0, 64, 89
1, 139033, Control_c, 0, 64, 70
1, 139048, Control_c, 0, 64, 50
1, 139063, Control_c, 0, 64, 0
1, 139087, Note_on_c, 0, 79, 74
1, 139090, Note_on_c, 0, 59, 54
1, 139090, Note_on_c, 0, 67, 54
1, 139095, Note_on_c, 0, 74, 60
1, 139098, Note_on_c, 0, 77, 62
1, 139110, Note_on_c, 0, 62, 46
1, 139124, Note_off_c, 0, 74, 63
1, 139126, Note_off_c, 0, 59, 63
1, 139126, Note_off_c, 0, 67, 63
1, 139128, Note_off_c, 0, 79, 66
1, 139134, Note_off_c, 0, 77, 64
1, 139136, Note_off_c, 0, 62, 55
1, 139367, Note_on_c, 0, 60, 57
1, 139367, Note_on_c, 0, 79, 76
1, 139368, Note_on_c, 0, 75, 67
1, 139374, Note_on_c, 0, 63, 53
1, 139378, Note_on_c, 0, 72, 63
1, 139385, Note_on_c, 0, 67, 16
1, 139397, Note_off_c, 0, 75, 67
1, 139399, Note_off_c, 0, 60, 66
1, 139404, Note_off_c, 0, 72, 65
1, 139404, Note_off_c, 0, 79, 64
1, 139406, Note_off_c, 0, 63, 65
1, 139421, Note_off_c, 0, 67, 37
1, 139628, Note_on_c, 0, 67, 73
1, 139636, Note_on_c, 0, 48, 65
1, 139636, Note_on_c, 0, 36, 67
1, 139642, Note_on_c, 0, 60, 43
1, 139643, Note_on_c, 0, 63, 57
1, 139644, Note_on_c, 0, 58, 63
1, 139730, Note_off_c, 0, 36, 64
1, 139740, Note_off_c, 0, 63, 52
1, 139746, Note_off_c, 0, 48, 64
1, 139751, Note_off_c, 0, 60, 58
1, 139755, Note_off_c, 0, 67, 60
1, 139762, Note_off_c, 0, 58, 62
1, 139879, Control_c, 0, 64, 50
1, 139892, Note_on_c, 0, 53, 69
1, 139892, Note_on_c, 0, 60, 64
1, 139892, Note_on_c, 0, 65, 68
1, 139893, Note_on_c, 0, 41, 70
1, 139893, Note_on_c, 0, 57, 57
1, 139894, Control_c, 0, 64, 63
1, 139900, Note_on_c, 0, 63, 54
1, 139910, Control_c, 0, 64, 74
1, 139917, Note_off_c, 0, 57, 60
1, 139919, Note_off_c, 0, 53, 66
1, 139923, Note_off_c, 0, 60, 66
1, 139924, Note_off_c, 0, 41, 65
1, 139925, Control_c, 0, 64, 102
1, 139928, Note_off_c, 0, 65, 66
1, 139933, Note_off_c, 0, 63, 65
1, 139940, Control_c, 0, 64, 127
1, 140087, Control_c, 0, 64, 125
1, 140102, Control_c, 0, 64, 92
1, 140117, Control_c, 0, 64, 73
1, 140132, Control_c, 0, 64, 58
1, 140147, Control_c, 0, 64, 0
1, 140152, Note_on_c, 0, 60, 53
1, 140152, Note_on_c, 0, 77, 68
1, 140154, Note_on_c, 0, 57, 49
1, 140160, Note_on_c, 0, 75, 54
1, 140161, Note_on_c, 0, 65, 47
1, 140161, Note_on_c, 0, 72, 56
1, 140180, Note_off_c, 0, 57, 63
1, 140181, Note_off_c, 0, 60, 65
1, 140189, Note_off_c, 0, 65, 54
1, 140190, Note_off_c, 0, 77, 61
1, 140191, Note_off_c, 0, 72, 66
1, 140193, Note_off_c, 0, 75, 64
1, 140399, Note_on_c, 0, 77, 81
1, 140405, Note_on_c, 0, 65, 47
1, 140410, Note_on_c, 0, 74, 61
1, 140411, Note_on_c, 0, 58, 57
1, 140419, Note_on_c, 0, 70, 52
1, 140430, Note_off_c, 0, 65, 59
1, 140438, Note_off_c, 0, 74, 64
1, 140441, Note_off_c, 0, 70, 62
1, 140443, Note_off_c, 0, 58, 65
1, 140456, Note_off_c, 0, 77, 64
1, 140674, Note_on_c, 0, 33, 76
1, 140675, Note_on_c, 0, 45, 76
1, 140676, Note_on_c, 0, 66, 78
1, 140684, Note_on_c, 0, 63, 72
1, 140691, Note_on_c, 0, 60, 62
1, 140783, Note_off_c, 0, 60, 59
1, 140789, Note_off_c, 0, 45, 63
1, 140800, Note_off_c, 0, 33, 62
1, 140831, Note_off_c, 0, 63, 57
1, 140834, Note_off_c, 0, 66, 58
1, 140919, Note_on_c, 0, 67, 92
1, 140920, Note_on_c, 0, 34, 76
1, 140921, Note_on_c, 0, 46, 83
1, 140921, Note_on_c, 0, 58, 89
1, 140925, Control_c, 0, 64, 24
1, 140927, Note_on_c, 0, 62, 73
1, 140940, Control_c, 0, 64, 67
1, 140944, Note_off_c, 0, 58, 71
1, 140950, Note_off_c, 0, 46, 68
1, 140952, Note_off_c, 0, 34, 66
1, 140953, Note_off_c, 0, 62, 67
1, 140955, Control_c, 0, 64, 102
1, 140970, Control_c, 0, 64, 127
1, 140971, Note_off_c, 0, 67, 68
1, 141162, Control_c, 0, 64, 80
1, 141165, Note_on_c, 0, 77, 98
1, 141171, Note_on_c, 0, 68, 87
1, 141172, Note_on_c, 0, 59, 86
1, 141174, Note_on_c, 0, 74, 78
1, 141177, Control_c, 0, 64, 44
1, 141177, Note_on_c, 0, 78, 58
1, 141178, Note_off_c, 0, 78, 53
1, 141192, Control_c, 0, 64, 0
1, 141192, Note_off_c, 0, 59, 72
1, 141197, Note_off_c, 0, 68, 63
1, 141198, Note_off_c, 0, 74, 69
1, 141219, Note_off_c, 0, 77, 66
1, 141433, Note_on_c, 0, 60, 90
1, 141434, Note_on_c, 0, 77, 107
1, 141442, Note_on_c, 0, 67, 96
1, 141454, Note_off_c, 0, 60, 70
1, 141461, Note_on_c, 0, 72, 59
1, 141480, Note_off_c, 0, 67, 65
1, 141481, Note_off_c, 0, 72, 63
1, 141487, Note_off_c, 0, 77, 68
1, 141699, Note_on_c, 0, 64, 90
1, 141705, Note_on_c, 0, 55, 83
1, 141707, Note_on_c, 0, 36, 79
1, 141710, Note_on_c, 0, 50, 81
1, 141711, Note_on_c, 0, 48, 81
1, 141721, Note_on_c, 0, 58, 66
1, 141724, Note_on_c, 0, 60, 66
1, 141767, Note_off_c, 0, 36, 63
1, 141774, Note_off_c, 0, 50, 64
1, 141786, Note_off_c, 0, 58, 57
1, 141787, Note_off_c, 0, 48, 64
1, 141791, Note_off_c, 0, 55, 59
1, 141811, Note_off_c, 0, 60, 57
1, 141827, Note_off_c, 0, 64, 59
1, 141962, Note_on_c, 0, 53, 101
1, 141965, Note_on_c, 0, 57, 88
1, 141967, Note_on_c, 0, 65, 93
1, 141978, Note_on_c, 0, 60, 71
1, 141982, Note_on_c, 0, 43, 71
1, 141985, Control_c, 0, 64, 66
1, 141988, Note_on_c, 0, 41, 50
1, 141996, Note_off_c, 0, 57, 67
1, 142000, Note_off_c, 0, 53, 66
1, 142000, Control_c, 0, 64, 127
1, 142004, Note_off_c, 0, 43, 62
1, 142006, Note_off_c, 0, 60, 68
1, 142017, Note_off_c, 0, 65, 69
1, 142026, Note_off_c, 0, 41, 55
1, 142200, Control_c, 0, 64, 90
1, 142214, Control_c, 0, 64, 63
1, 142217, Note_on_c, 0, 72, 95
1, 142219, Note_on_c, 0, 60, 87
1, 142221, Note_on_c, 0, 57, 76
1, 142229, Control_c, 0, 64, 0
1, 142231, Note_on_c, 0, 53, 67
1, 142250, Note_off_c, 0, 60, 67
1, 142252, Note_off_c, 0, 53, 70
1, 142253, Note_off_c, 0, 57, 63
1, 142265, Note_off_c, 0, 72, 66
1, 142473, Note_on_c, 0, 52, 84
1, 142474, Note_on_c, 0, 60, 82
1, 142476, Note_on_c, 0, 72, 101
1, 142477, Note_on_c, 0, 84, 96
1, 142478, Note_on_c, 0, 82, 87
1, 142480, Note_on_c, 0, 55, 73
1, 142490, Note_on_c, 0, 79, 70
1, 142495, Note_off_c, 0, 60, 70
1, 142497, Control_c, 0, 64, 71
1, 142512, Control_c, 0, 64, 127
1, 142513, Note_off_c, 0, 55, 65
1, 142513, Note_off_c, 0, 72, 67
1, 142515, Note_off_c, 0, 79, 69
1, 142518, Note_off_c, 0, 52, 66
1, 142519, Note_off_c, 0, 84, 67
1, 142524, Note_off_c, 0, 82, 66
1, 142719, Control_c, 0, 64, 115
1, 142731, Note_on_c, 0, 58, 74
1, 142731, Note_on_c, 0, 60, 80
1, 142734, Control_c, 0, 64, 69
1, 142736, Note_on_c, 0, 55, 74
1, 142740, Note_on_c, 0, 48, 81
1, 142742, Note_on_c, 0, 36, 76
1, 142748, Control_c, 0, 64, 0
1, 142760, Note_off_c, 0, 55, 66
1, 142767, Note_off_c, 0, 36, 65
1, 142769, Note_off_c, 0, 48, 66
1, 142779, Note_off_c, 0, 58, 58
1, 142801, Note_off_c, 0, 60, 65
1, 142977, Note_on_c, 0, 53, 79
1, 142977, Note_on_c, 0, 41, 72
1, 142978, Note_on_c, 0, 60, 85
1, 142986, Note_on_c, 0, 57, 69
1, 142993, Control_c, 0, 64, 56
1, 143005, Note_off_c, 0, 53, 69
1, 143007, Note_off_c, 0, 41, 66
1, 143008, Control_c, 0, 64, 73
1, 143010, Note_off_c, 0, 57, 68
1, 143023, Note_off_c, 0, 60, 68
1, 143023, Control_c, 0, 64, 127
1, 143186, Control_c, 0, 64, 77
1, 143201, Control_c, 0, 64, 51
1, 143213, Note_on_c, 0, 71, 88
1, 143216, Control_c, 0, 64, 0
1, 143218, Note_on_c, 0, 59, 68
1, 143221, Note_on_c, 0, 56, 64
1, 143224, Note_on_c, 0, 50, 59
1, 143228, Note_on_c, 0, 53, 62
1, 143245, Note_off_c, 0, 59, 66
1, 143249, Note_off_c, 0, 56, 66
1, 143255, Note_off_c, 0, 50, 65
1, 143257, Note_off_c, 0, 71, 62
1, 143261, Note_off_c, 0, 53, 63
1, 143448, Note_on_c, 0, 83, 91
1, 143451, Note_on_c, 0, 50, 65
1, 143454, Note_on_c, 0, 71, 80
1, 143457, Note_on_c, 0, 53, 61
1, 143457, Note_on_c, 0, 80, 73
1, 143475, Note_off_c, 0, 71, 71
1, 143476, Note_off_c, 0, 50, 66
1, 143478, Note_on_c, 0, 59, 15
1, 143479, Note_off_c, 0, 59, 127
1, 143482, Note_off_c, 0, 80, 70
1, 143483, Control_c, 0, 64, 70
1, 143487, Note_on_c, 0, 77, 28
1, 143488, Note_off_c, 0, 77, 127
1, 143488, Note_off_c, 0, 53, 65
1, 143493, Note_off_c, 0, 83, 67
1, 143497, Control_c, 0, 64, 127
1, 143533, Poly_aftertouch_c, 0, 56, 0
1, 143697, Control_c, 0, 64, 95
1, 143707, Note_on_c, 0, 59, 92
1, 143711, Note_on_c, 0, 55, 85
1, 143712, Control_c, 0, 64, 66
1, 143714, Note_on_c, 0, 43, 77
1, 143714, Note_on_c, 0, 31, 71
1, 143727, Control_c, 0, 64, 0
1, 143736, Note_off_c, 0, 55, 69
1, 143741, Note_off_c, 0, 43, 66
1, 143746, Note_off_c, 0, 31, 64
1, 143758, Note_off_c, 0, 59, 64
1, 143940, Note_on_c, 0, 48, 90
1, 143943, Note_on_c, 0, 59, 87
1, 143948, Note_on_c, 0, 53, 77
1, 143949, Note_on_c, 0, 36, 74
1, 143950, Note_on_c, 0, 55, 71
1, 143965, Control_c, 0, 64, 55
1, 143967, Note_off_c, 0, 48, 69
1, 143973, Note_off_c, 0, 36, 65
1, 143975, Note_off_c, 0, 55, 66
1, 143976, Note_off_c, 0, 53, 66
1, 143980, Control_c, 0, 64, 76
1, 143993, Note_off_c, 0, 59, 67
1, 143995, Control_c, 0, 64, 127
1, 144187, Note_on_c, 0, 72, 102
1, 144188, Note_on_c, 0, 60, 96
1, 144188, Control_c, 0, 64, 77
1, 144191, Note_on_c, 0, 52, 80
1, 144199, Note_on_c, 0, 55, 68
1, 144202, Control_c, 0, 64, 18
1, 144217, Note_off_c, 0, 52, 70
1, 144217, Control_c, 0, 64, 0
1, 144219, Note_off_c, 0, 60, 64
1, 144228, Note_off_c, 0, 55, 61
1, 144230, Note_off_c, 0, 72, 66
1, 144461, Note_on_c, 0, 62, 86
1, 144462, Note_on_c, 0, 86, 102
1, 144463, Note_on_c, 0, 55, 79
1, 144466, Note_on_c, 0, 79, 88
1, 144467, Note_on_c, 0, 58, 83
1, 144473, Note_on_c, 0, 82, 81
1, 144491, Control_c, 0, 64, 68
1, 144498, Note_off_c, 0, 62, 64
1, 144506, Control_c, 0, 64, 127
1, 144508, Note_off_c, 0, 79, 67
1, 144513, Note_off_c, 0, 55, 62
1, 144514, Note_off_c, 0, 58, 66
1, 144516, Note_off_c, 0, 82, 63
1, 144516, Note_off_c, 0, 86, 69
1, 144718, Note_on_c, 0, 55, 93
1, 144723, Note_on_c, 0, 58, 87
1, 144724, Note_on_c, 0, 62, 81
1, 144725, Note_on_c, 0, 43, 81
1, 144729, Control_c, 0, 64, 114
1, 144743, Control_c, 0, 64, 71
1, 144747, Note_off_c, 0, 55, 64
1, 144754, Note_off_c, 0, 43, 66
1, 144758, Control_c, 0, 64, 25
1, 144773, Control_c, 0, 64, 0
1, 144775, Note_off_c, 0, 58, 63
1, 144776, Note_off_c, 0, 62, 64
1, 144957, Note_on_c, 0, 52, 96
1, 144960, Note_on_c, 0, 62, 91
1, 144963, Note_on_c, 0, 40, 79
1, 144963, Note_on_c, 0, 58, 84
1, 144964, Note_on_c, 0, 55, 84
1, 144988, Note_off_c, 0, 52, 67
1, 144989, Note_off_c, 0, 55, 69
1, 144990, Note_off_c, 0, 40, 66
1, 144995, Control_c, 0, 64, 65
1, 145008, Note_off_c, 0, 62, 68
1, 145009, Note_off_c, 0, 58, 66
1, 145010, Control_c, 0, 64, 91
1, 145025, Control_c, 0, 64, 127
1, 145209, Note_on_c, 0, 61, 90
1, 145210, Note_on_c, 0, 73, 104
1, 145210, Control_c, 0, 64, 74
1, 145220, Note_on_c, 0, 55, 68
1, 145221, Note_on_c, 0, 58, 68
1, 145222, Note_on_c, 0, 52, 62
1, 145225, Control_c, 0, 64, 0
1, 145233, Note_off_c, 0, 61, 65
1, 145243, Note_off_c, 0, 52, 64
1, 145244, Note_off_c, 0, 58, 69
1, 145246, Note_off_c, 0, 55, 65
1, 145259, Note_off_c, 0, 73, 65
1, 145453, Note_on_c, 0, 52, 81
1, 145458, Note_on_c, 0, 61, 81
1, 145463, Note_on_c, 0, 73, 106
1, 145463, Note_on_c, 0, 85, 100
1, 145465, Note_on_c, 0, 82, 84
1, 145472, Note_on_c, 0, 79, 76
1, 145477, Control_c, 0, 64, 61
1, 145478, Note_off_c, 0, 61, 68
1, 145488, Note_on_c, 0, 55, 38
1, 145493, Control_c, 0, 64, 127
1, 145495, Note_on_c, 0, 58, 26
1, 145495, Note_off_c, 0, 52, 65
1, 145499, Note_off_c, 0, 79, 70
1, 145504, Note_off_c, 0, 73, 67
1, 145515, Note_off_c, 0, 85, 65
1, 145517, Note_off_c, 0, 82, 61
1, 145523, Note_off_c, 0, 55, 53
1, 145532, Note_off_c, 0, 58, 55
1, 145616, Poly_aftertouch_c, 0, 61, 0
1, 145716, Note_on_c, 0, 61, 88
1, 145718, Note_on_c, 0, 45, 100
1, 145718, Note_on_c, 0, 52, 93
1, 145720, Note_on_c, 0, 33, 88
1, 145730, Control_c, 0, 64, 109
1, 145732, Note_on_c, 0, 57, 71
1, 145745, Control_c, 0, 64, 71
1, 145750, Note_off_c, 0, 33, 68
1, 145758, Note_on_c, 0, 62, 47
1, 145759, Note_off_c, 0, 45, 65
1, 145760, Control_c, 0, 64, 13
1, 145765, Note_off_c, 0, 57, 65
1, 145774, Control_c, 0, 64, 0
1, 145779, Note_off_c, 0, 52, 59
1, 145782, Note_off_c, 0, 62, 58
1, 145791, Note_off_c, 0, 61, 61
1, 145992, Note_on_c, 0, 46, 94
1, 145995, Note_on_c, 0, 52, 86
1, 145996, Note_on_c, 0, 61, 92
1, 146000, Note_on_c, 0, 55, 77
1, 146002, Note_on_c, 0, 34, 76
1, 146004, Control_c, 0, 64, 12
1, 146019, Control_c, 0, 64, 63
1, 146024, Note_off_c, 0, 52, 68
1, 146024, Note_off_c, 0, 34, 64
1, 146032, Note_off_c, 0, 55, 66
1, 146034, Control_c, 0, 64, 80
1, 146043, Note_off_c, 0, 46, 64
1, 146048, Control_c, 0, 64, 127
1, 146057, Note_off_c, 0, 61, 67
1, 146240, Control_c, 0, 64, 103
1, 146254, Control_c, 0, 64, 74
1, 146269, Control_c, 0, 64, 49
1, 146271, Note_on_c, 0, 74, 90
1, 146276, Note_on_c, 0, 62, 72
1, 146278, Note_on_c, 0, 65, 75
1, 146279, Note_on_c, 0, 70, 79
1, 146281, Note_on_c, 0, 58, 69
1, 146283, Note_on_c, 0, 53, 63
1, 146284, Control_c, 0, 64, 0
1, 146304, Note_off_c, 0, 62, 66
1, 146304, Note_off_c, 0, 65, 68
1, 146304, Note_off_c, 0, 70, 68
1, 146316, Note_off_c, 0, 58, 64
1, 146317, Note_off_c, 0, 53, 64
1, 146328, Note_off_c, 0, 74, 64
1, 146522, Note_on_c, 0, 77, 90
1, 146524, Note_on_c, 0, 53, 62
1, 146528, Note_on_c, 0, 60, 52
1, 146528, Note_on_c, 0, 75, 80
1, 146530, Note_on_c, 0, 57, 60
1, 146531, Note_on_c, 0, 65, 74
1, 146537, Control_c, 0, 64, 55
1, 146551, Note_off_c, 0, 60, 58
1, 146552, Control_c, 0, 64, 79
1, 146552, Note_off_c, 0, 53, 66
1, 146558, Note_off_c, 0, 57, 66
1, 146558, Note_off_c, 0, 65, 67
1, 146566, Note_off_c, 0, 77, 67
1, 146566, Control_c, 0, 64, 127
1, 146573, Note_off_c, 0, 75, 61
1, 146611, Poly_aftertouch_c, 0, 72, 127
1, 146634, Poly_aftertouch_c, 0, 72, 0
1, 146781, Control_c, 0, 64, 107
1, 146783, Note_on_c, 0, 41, 81
1, 146784, Note_on_c, 0, 29, 73
1, 146786, Note_on_c, 0, 60, 66
1, 146787, Note_on_c, 0, 57, 68
1, 146793, Note_on_c, 0, 65, 66
1, 146796, Control_c, 0, 64, 75
1, 146800, Note_on_c, 0, 63, 58
1, 146811, Control_c, 0, 64, 50
1, 146820, Note_off_c, 0, 60, 66
1, 146821, Note_off_c, 0, 41, 66
1, 146822, Note_off_c, 0, 29, 64
1, 146823, Note_off_c, 0, 57, 64
1, 146826, Control_c, 0, 64, 0
1, 146835, Note_off_c, 0, 63, 65
1, 146859, Note_off_c, 0, 65, 60
1, 147024, Note_on_c, 0, 46, 76
1, 147026, Note_on_c, 0, 34, 65
1, 147027, Note_on_c, 0, 65, 85
1, 147029, Note_on_c, 0, 58, 78
1, 147038, Note_on_c, 0, 62, 71
1, 147049, Control_c, 0, 64, 54
1, 147055, Note_off_c, 0, 58, 69
1, 147056, Note_off_c, 0, 46, 68
1, 147059, Note_off_c, 0, 34, 63
1, 147064, Control_c, 0, 64, 76
1, 147064, Note_off_c, 0, 62, 67
1, 147072, Note_off_c, 0, 65, 66
1, 147078, Control_c, 0, 64, 127
1, 147257, Control_c, 0, 64, 90
1, 147260, Note_on_c, 0, 74, 104
1, 147263, Note_on_c, 0, 62, 79
1, 147267, Note_on_c, 0, 65, 79
1, 147267, Note_on_c, 0, 70, 82
1, 147270, Note_on_c, 0, 58, 70
1, 147272, Control_c, 0, 64, 60
1, 147284, Note_on_c, 0, 53, 36
1, 147286, Control_c, 0, 64, 0
1, 147287, Note_off_c, 0, 65, 69
1, 147288, Note_off_c, 0, 62, 69
1, 147288, Note_off_c, 0, 70, 69
1, 147294, Note_off_c, 0, 58, 70
1, 147315, Note_off_c, 0, 74, 66
1, 147318, Note_off_c, 0, 53, 33
1, 147521, Note_on_c, 0, 53, 72
1, 147525, Note_on_c, 0, 60, 74
1, 147526, Note_on_c, 0, 65, 102
1, 147529, Note_on_c, 0, 77, 94
1, 147529, Note_on_c, 0, 57, 74
1, 147529, Note_on_c, 0, 75, 86
1, 147539, Note_on_c, 0, 72, 75
1, 147539, Note_on_c, 0, 76, 75
1, 147545, Control_c, 0, 64, 55
1, 147550, Note_off_c, 0, 60, 70
1, 147557, Note_off_c, 0, 76, 42
1, 147559, Note_off_c, 0, 57, 70
1, 147560, Note_off_c, 0, 53, 65
1, 147560, Control_c, 0, 64, 82
1, 147564, Note_off_c, 0, 72, 68
1, 147575, Control_c, 0, 64, 127
1, 147576, Note_off_c, 0, 65, 65
1, 147580, Note_off_c, 0, 77, 65
1, 147590, Note_off_c, 0, 75, 63
1, 147774, Note_on_c, 0, 41, 99
1, 147778, Note_on_c, 0, 29, 91
1, 147778, Note_on_c, 0, 57, 91
1, 147783, Note_on_c, 0, 65, 81
1, 147791, Note_on_c, 0, 60, 71
1, 147792, Note_on_c, 0, 63, 61
1, 147806, Note_off_c, 0, 29, 70
1, 147812, Control_c, 0, 64, 84
1, 147813, Note_off_c, 0, 41, 66
1, 147815, Note_off_c, 0, 63, 56
1, 147822, Note_off_c, 0, 60, 65
1, 147827, Control_c, 0, 64, 58
1, 147835, Note_off_c, 0, 57, 61
1, 147842, Control_c, 0, 64, 0
1, 147850, Note_off_c, 0, 65, 59
1, 148048, Note_on_c, 0, 46, 100
1, 148053, Note_on_c, 0, 58, 90
1, 148053, Note_on_c, 0, 65, 90
1, 148055, Note_on_c, 0, 34, 86
1, 148060, Note_on_c, 0, 62, 78
1, 148080, Control_c, 0, 64, 54
1, 148083, Note_off_c, 0, 34, 65
1, 148102, Note_off_c, 0, 46, 63
1, 148102, Control_c, 0, 64, 76
1, 148105, Note_off_c, 0, 58, 66
1, 148109, Note_off_c, 0, 62, 63
1, 148116, Control_c, 0, 64, 127
1, 148119, Note_off_c, 0, 65, 64
1, 148179, Poly_aftertouch_c, 0, 63, 0
1, 148324, Note_on_c, 0, 65, 84
1, 148327, Note_on_c, 0, 77, 109
1, 148329, Note_on_c, 0, 69, 100
1, 148330, Note_on_c, 0, 60, 73
1, 148334, Note_on_c, 0, 57, 61
1, 148340, Note_on_c, 0, 72, 82
1, 148354, Note_off_c, 0, 65, 63
1, 148354, Control_c, 0, 64, 75
1, 148360, Note_off_c, 0, 60, 69
1, 148361, Note_off_c, 0, 72, 72
1, 148367, Note_off_c, 0, 57, 66
1, 148367, Note_off_c, 0, 69, 64
1, 148368, Control_c, 0, 64, 40
1, 148379, Note_off_c, 0, 77, 61
1, 148383, Control_c, 0, 64, 0
1, 148575, Note_on_c, 0, 63, 80
1, 148580, Note_on_c, 0, 55, 80
1, 148582, Note_on_c, 0, 75, 101
1, 148584, Note_on_c, 0, 58, 75
1, 148586, Note_on_c, 0, 67, 94
1, 148592, Note_on_c, 0, 70, 80
1, 148599, Note_off_c, 0, 63, 69
1, 148605, Control_c, 0, 64, 55
1, 148609, Note_off_c, 0, 55, 69
1, 148615, Note_off_c, 0, 58, 68
1, 148620, Note_off_c, 0, 70, 64
1, 148620, Control_c, 0, 64, 76
1, 148625, Note_off_c, 0, 67, 65
1, 148635, Control_c, 0, 64, 127
1, 148638, Note_off_c, 0, 75, 67
1, 148850, Note_on_c, 0, 53, 88
1, 148850, Note_on_c, 0, 62, 88
1, 148852, Note_on_c, 0, 57, 84
1, 148857, Note_on_c, 0, 41, 91
1, 148860, Note_on_c, 0, 43, 77
1, 148864, Note_on_c, 0, 29, 76
1, 148876, Note_on_c, 0, 31, 59
1, 148880, Note_off_c, 0, 43, 63
1, 148880, Control_c, 0, 64, 89
1, 148889, Note_off_c, 0, 41, 68
1, 148893, Note_off_c, 0, 29, 63
1, 148895, Control_c, 0, 64, 61
1, 148898, Note_off_c, 0, 53, 64
1, 148903, Note_off_c, 0, 57, 61
1, 148906, Note_off_c, 0, 31, 55
1, 148910, Control_c, 0, 64, 0
1, 148925, Note_off_c, 0, 62, 57
1, 149112, Note_on_c, 0, 40, 98
1, 149118, Note_on_c, 0, 28, 86
1, 149118, Note_on_c, 0, 55, 90
1, 149118, Note_on_c, 0, 61, 93
1, 149124, Note_on_c, 0, 58, 88
1, 149147, Control_c, 0, 64, 64
1, 149148, Note_off_c, 0, 28, 69
1, 149162, Control_c, 0, 64, 87
1, 149165, Note_off_c, 0, 55, 64
1, 149166, Note_off_c, 0, 40, 64
1, 149177, Note_off_c, 0, 58, 65
1, 149177, Control_c, 0, 64, 127
1, 149192, Note_off_c, 0, 61, 66
1, 149377, Note_on_c, 0, 62, 85
1, 149378, Note_on_c, 0, 53, 77
1, 149381, Note_on_c, 0, 74, 102
1, 149384, Note_on_c, 0, 57, 72
1, 149384, Note_on_c, 0, 69, 98
1, 149386, Note_on_c, 0, 65, 90
1, 149410, Note_off_c, 0, 53, 66
1, 149416, Note_off_c, 0, 57, 68
1, 149416, Note_off_c, 0, 62, 65
1, 149419, Note_off_c, 0, 69, 60
1, 149428, Note_off_c, 0, 65, 60
1, 149428, Control_c, 0, 64, 88
1, 149443, Control_c, 0, 64, 63
1, 149444, Note_off_c, 0, 74, 67
1, 149458, Control_c, 0, 64, 0
1, 149661, Note_on_c, 0, 64, 89
1, 149664, Note_on_c, 0, 55, 81
1, 149664, Note_on_c, 0, 76, 102
1, 149668, Note_on_c, 0, 58, 82
1, 149670, Note_on_c, 0, 67, 93
1, 149673, Note_on_c, 0, 70, 91
1, 149685, Note_off_c, 0, 64, 67
1, 149688, Control_c, 0, 64, 61
1, 149698, Note_off_c, 0, 58, 67
1, 149702, Note_off_c, 0, 70, 65
1, 149702, Control_c, 0, 64, 82
1, 149705, Note_off_c, 0, 55, 65
1, 149711, Note_off_c, 0, 67, 65
1, 149714, Note_off_c, 0, 76, 68
1, 149717, Control_c, 0, 64, 127
1, 149945, Note_on_c, 0, 45, 93
1, 149949, Note_on_c, 0, 33, 81
1, 149950, Note_on_c, 0, 52, 98
1, 149951, Note_on_c, 0, 61, 92
1, 149954, Control_c, 0, 64, 92
1, 149961, Note_on_c, 0, 57, 73
1, 149965, Note_on_c, 0, 55, 73
1, 149969, Control_c, 0, 64, 66
1, 149984, Control_c, 0, 64, 0
1, 149989, Note_off_c, 0, 55, 66
1, 149994, Note_off_c, 0, 33, 63
1, 149998, Note_off_c, 0, 45, 65
1, 150009, Note_off_c, 0, 52, 65
1, 150028, Note_off_c, 0, 57, 64
1, 150048, Note_off_c, 0, 61, 60
1, 150247, Note_on_c, 0, 50, 95
1, 150251, Note_on_c, 0, 53, 89
1, 150253, Note_on_c, 0, 38, 78
1, 150253, Note_on_c, 0, 62, 90
1, 150258, Note_on_c, 0, 57, 76
1, 150266, Control_c, 0, 64, 38
1, 150281, Control_c, 0, 64, 71
1, 150284, Note_off_c, 0, 38, 67
1, 150296, Note_off_c, 0, 53, 66
1, 150296, Control_c, 0, 64, 108
1, 150298, Note_off_c, 0, 50, 65
1, 150310, Control_c, 0, 64, 127
1, 150311, Note_off_c, 0, 57, 65
1, 150313, Note_off_c, 0, 62, 70
1, 150496, Control_c, 0, 64, 88
1, 150511, Control_c, 0, 64, 60
1, 150525, Control_c, 0, 64, 0
1, 150540, Note_on_c, 0, 50, 62
1, 150556, Note_on_c, 0, 53, 74
1, 150570, Control_c, 0, 64, 39
1, 150585, Control_c, 0, 64, 61
1, 150590, Note_off_c, 0, 50, 60
1, 150600, Control_c, 0, 64, 72
1, 150603, Note_on_c, 0, 57, 73
1, 150614, Control_c, 0, 64, 102
1, 150629, Control_c, 0, 64, 127
1, 150634, Note_on_c, 0, 62, 70
1, 150638, Note_off_c, 0, 53, 60
1, 150671, Note_on_c, 0, 65, 82
1, 150674, Note_off_c, 0, 62, 64
1, 150677, Note_off_c, 0, 57, 64
1, 150692, Note_on_c, 0, 69, 78
1, 150734, Note_on_c, 0, 74, 98
1, 150741, Note_off_c, 0, 65, 64
1, 150751, Note_off_c, 0, 69, 65
1, 150769, Note_off_c, 0, 74, 68
1, 150852, Control_c, 0, 64, 110
1, 150867, Control_c, 0, 64, 74
1, 150882, Control_c, 0, 64, 47
1, 150897, Control_c, 0, 64, 0
1, 150973, Note_on_c, 0, 53, 72
1, 150974, Note_on_c, 0, 41, 68
1, 150980, Note_on_c, 0, 69, 85
1, 150981, Note_on_c, 0, 57, 81
1, 150988, Note_on_c, 0, 62, 69
1, 151004, Note_off_c, 0, 53, 65
1, 151006, Note_off_c, 0, 41, 64
1, 151009, Note_off_c, 0, 57, 66
1, 151012, Note_off_c, 0, 69, 62
1, 151017, Note_off_c, 0, 62, 66
1, 151091, Note_on_c, 0, 53, 82
1, 151093, Note_on_c, 0, 41, 76
1, 151094, Note_on_c, 0, 57, 85
1, 151094, Note_on_c, 0, 69, 87
1, 151102, Note_on_c, 0, 62, 67
1, 151127, Note_off_c, 0, 53, 64
1, 151130, Note_off_c, 0, 57, 61
1, 151133, Note_off_c, 0, 41, 66
1, 151145, Note_off_c, 0, 69, 63
1, 151171, Note_off_c, 0, 62, 60
1, 151212, Note_on_c, 0, 52, 97
1, 151213, Note_on_c, 0, 68, 92
1, 151214, Note_on_c, 0, 59, 88
1, 151217, Note_on_c, 0, 62, 56
1, 151220, Note_on_c, 0, 40, 80
1, 151226, Note_on_c, 0, 64, 68
1, 151231, Control_c, 0, 64, 63
1, 151246, Note_off_c, 0, 40, 66
1, 151246, Note_off_c, 0, 52, 67
1, 151246, Control_c, 0, 64, 76
1, 151252, Note_off_c, 0, 59, 64
1, 151254, Note_off_c, 0, 62, 66
1, 151260, Control_c, 0, 64, 127
1, 151276, Note_off_c, 0, 64, 65
1, 151285, Note_off_c, 0, 68, 65
1, 151393, Control_c, 0, 64, 92
1, 151408, Control_c, 0, 64, 58
1, 151423, Control_c, 0, 64, 0
1, 151464, Note_on_c, 0, 52, 61
1, 151497, Control_c, 0, 64, 35
1, 151498, Note_on_c, 0, 56, 70
1, 151501, Note_off_c, 0, 52, 65
1, 151512, Control_c, 0, 64, 60
1, 151527, Control_c, 0, 64, 71
1, 151538, Note_off_c, 0, 56, 63
1, 151542, Note_on_c, 0, 59, 70
1, 151542, Control_c, 0, 64, 95
1, 151556, Note_on_c, 0, 64, 65
1, 151556, Control_c, 0, 64, 127
1, 151595, Note_off_c, 0, 59, 60
1, 151604, Note_on_c, 0, 68, 80
1, 151618, Note_on_c, 0, 71, 71
1, 151631, Note_off_c, 0, 64, 62
1, 151662, Note_on_c, 0, 76, 95
1, 151675, Note_off_c, 0, 71, 65
1, 151676, Note_off_c, 0, 68, 65
1, 151694, Note_off_c, 0, 76, 69
1, 151765, Control_c, 0, 64, 119
1, 151780, Control_c, 0, 64, 79
1, 151794, Control_c, 0, 64, 63
1, 151809, Control_c, 0, 64, 11
1, 151824, Control_c, 0, 64, 0
1, 151899, Note_on_c, 0, 55, 76
1, 151901, Note_on_c, 0, 74, 91
1, 151906, Note_on_c, 0, 64, 83
1, 151910, Note_on_c, 0, 43, 62
1, 151915, Note_on_c, 0, 67, 68
1, 151927, Note_off_c, 0, 55, 68
1, 151932, Note_off_c, 0, 64, 66
1, 151941, Note_off_c, 0, 43, 65
1, 151942, Note_off_c, 0, 67, 67
1, 151950, Note_off_c, 0, 74, 61
1, 152002, Note_on_c, 0, 74, 89
1, 152012, Note_on_c, 0, 55, 87
1, 152012, Note_on_c, 0, 64, 83
1, 152013, Note_on_c, 0, 43, 78
1, 152018, Note_on_c, 0, 67, 67
1, 152039, Note_off_c, 0, 55, 65
1, 152043, Note_off_c, 0, 64, 61
1, 152044, Note_off_c, 0, 43, 64
1, 152057, Note_off_c, 0, 74, 63
1, 152062, Note_off_c, 0, 67, 57
1, 152123, Note_on_c, 0, 57, 96
1, 152126, Note_on_c, 0, 73, 89
1, 152128, Note_on_c, 0, 64, 86
1, 152130, Note_on_c, 0, 45, 80
1, 152133, Note_on_c, 0, 69, 70
1, 152144, Control_c, 0, 64, 63
1, 152145, Note_on_c, 0, 67, 52
1, 152157, Note_off_c, 0, 45, 70
1, 152159, Control_c, 0, 64, 73
1, 152162, Note_off_c, 0, 64, 60
1, 152166, Note_off_c, 0, 67, 61
1, 152167, Note_off_c, 0, 57, 67
1, 152173, Control_c, 0, 64, 98
1, 152185, Note_off_c, 0, 69, 61
1, 152188, Control_c, 0, 64, 127
1, 152200, Note_off_c, 0, 73, 66
1, 152335, Control_c, 0, 64, 71
1, 152350, Control_c, 0, 64, 29
1, 152365, Control_c, 0, 64, 0
1, 152380, Note_on_c, 0, 57, 77
1, 152409, Control_c, 0, 64, 44
1, 152424, Control_c, 0, 64, 65
1, 152429, Note_on_c, 0, 61, 74
1, 152439, Control_c, 0, 64, 78
1, 152450, Note_off_c, 0, 57, 63
1, 152454, Control_c, 0, 64, 127
1, 152471, Note_on_c, 0, 64, 81
1, 152489, Note_on_c, 0, 69, 69
1, 152493, Note_off_c, 0, 61, 60
1, 152527, Note_on_c, 0, 73, 86
1, 152539, Note_off_c, 0, 64, 62
1, 152546, Note_on_c, 0, 76, 71
1, 152561, Note_off_c, 0, 69, 64
1, 152604, Note_on_c, 0, 81, 99
1, 152615, Note_off_c, 0, 73, 67
1, 152618, Note_off_c, 0, 76, 66
1, 152635, Note_off_c, 0, 81, 70
1, 152714, Control_c, 0, 64, 111
1, 152729, Control_c, 0, 64, 81
1, 152744, Control_c, 0, 64, 65
1, 152759, Control_c, 0, 64, 42
1, 152774, Control_c, 0, 64, 0
1, 152847, Note_on_c, 0, 37, 67
1, 152847, Note_on_c, 0, 76, 88
1, 152848, Note_on_c, 0, 49, 69
1, 152850, Note_on_c, 0, 67, 79
1, 152853, Note_on_c, 0, 69, 73
1, 152877, Note_off_c, 0, 69, 69
1, 152879, Note_off_c, 0, 49, 65
1, 152881, Note_off_c, 0, 67, 65
1, 152883, Note_off_c, 0, 37, 64
1, 152895, Note_off_c, 0, 76, 63
1, 152950, Note_on_c, 0, 69, 94
1, 152952, Note_on_c, 0, 76, 93
1, 152953, Note_on_c, 0, 49, 77
1, 152955, Note_on_c, 0, 37, 75
1, 152957, Note_on_c, 0, 67, 89
1, 152993, Note_off_c, 0, 37, 62
1, 152999, Note_off_c, 0, 49, 62
1, 153000, Note_off_c, 0, 67, 57
1, 153007, Note_off_c, 0, 69, 62
1, 153008, Note_off_c, 0, 76, 66
1, 153069, Note_on_c, 0, 50, 101
1, 153077, Note_on_c, 0, 38, 83
1, 153078, Note_on_c, 0, 77, 98
1, 153080, Note_on_c, 0, 65, 95
1, 153085, Control_c, 0, 64, 20
1, 153089, Note_on_c, 0, 69, 80
1, 153100, Control_c, 0, 64, 61
1, 153108, Note_on_c, 0, 76, 53
1, 153109, Note_off_c, 0, 76, 127
1, 153110, Note_off_c, 0, 69, 68
1, 153114, Control_c, 0, 64, 71
1, 153118, Note_off_c, 0, 65, 67
1, 153129, Control_c, 0, 64, 97
1, 153138, Note_off_c, 0, 77, 67
1, 153142, Note_off_c, 0, 38, 60
1, 153144, Control_c, 0, 64, 127
1, 153163, Note_off_c, 0, 50, 67
1, 153292, Control_c, 0, 64, 73
1, 153306, Control_c, 0, 64, 44
1, 153321, Control_c, 0, 64, 0
1, 153324, Note_on_c, 0, 62, 64
1, 153357, Note_off_c, 0, 62, 67
1, 153359, Control_c, 0, 64, 46
1, 153360, Note_on_c, 0, 65, 73
1, 153373, Control_c, 0, 64, 59
1, 153388, Control_c, 0, 64, 66
1, 153392, Note_off_c, 0, 65, 66
1, 153400, Note_on_c, 0, 69, 75
1, 153403, Control_c, 0, 64, 75
1, 153418, Control_c, 0, 64, 104
1, 153420, Note_off_c, 0, 69, 65
1, 153433, Control_c, 0, 64, 127
1, 153457, Note_on_c, 0, 74, 81
1, 153500, Note_on_c, 0, 77, 84
1, 153523, Note_off_c, 0, 74, 63
1, 153534, Note_on_c, 0, 81, 74
1, 153563, Note_on_c, 0, 86, 103
1, 153569, Note_off_c, 0, 77, 63
1, 153575, Note_off_c, 0, 81, 67
1, 153595, Note_off_c, 0, 86, 68
1, 153744, Control_c, 0, 64, 97
1, 153759, Control_c, 0, 64, 74
1, 153774, Control_c, 0, 64, 57
1, 153788, Control_c, 0, 64, 0
1, 153795, Note_on_c, 0, 43, 81
1, 153796, Note_on_c, 0, 31, 72
1, 153803, Note_on_c, 0, 74, 85
1, 153804, Note_on_c, 0, 65, 79
1, 153810, Note_on_c, 0, 70, 76
1, 153834, Note_off_c, 0, 43, 64
1, 153835, Note_off_c, 0, 31, 65
1, 153837, Note_off_c, 0, 65, 64
1, 153838, Note_off_c, 0, 70, 66
1, 153849, Note_off_c, 0, 74, 64
1, 153911, Note_on_c, 0, 74, 90
1, 153914, Note_on_c, 0, 43, 88
1, 153914, Note_on_c, 0, 31, 80
1, 153916, Note_on_c, 0, 65, 87
1, 153918, Note_on_c, 0, 70, 83
1, 153941, Note_off_c, 0, 43, 68
1, 153944, Note_off_c, 0, 31, 67
1, 153947, Note_off_c, 0, 70, 63
1, 153948, Note_off_c, 0, 65, 60
1, 153962, Note_off_c, 0, 74, 64
1, 154032, Note_on_c, 0, 45, 94
1, 154037, Note_on_c, 0, 64, 90
1, 154037, Note_on_c, 0, 73, 95
1, 154041, Note_on_c, 0, 69, 76
1, 154042, Note_on_c, 0, 33, 77
1, 154069, Control_c, 0, 64, 57
1, 154086, Note_off_c, 0, 64, 65
1, 154092, Control_c, 0, 64, 68
1, 154097, Note_off_c, 0, 69, 61
1, 154102, Note_off_c, 0, 33, 63
1, 154107, Control_c, 0, 64, 92
1, 154122, Control_c, 0, 64, 127
1, 154126, Note_off_c, 0, 73, 66
1, 154128, Note_off_c, 0, 45, 65
1, 154269, Control_c, 0, 64, 85
1, 154285, Control_c, 0, 64, 59
1, 154300, Control_c, 0, 64, 0
1, 154304, Note_on_c, 0, 69, 74
1, 154344, Note_on_c, 0, 73, 76
1, 154345, Control_c, 0, 64, 9
1, 154348, Note_off_c, 0, 69, 60
1, 154359, Control_c, 0, 64, 50
1, 154374, Control_c, 0, 64, 63
1, 154379, Note_off_c, 0, 73, 64
1, 154381, Note_on_c, 0, 76, 70
1, 154389, Control_c, 0, 64, 73
1, 154404, Control_c, 0, 64, 97
1, 154408, Note_off_c, 0, 76, 68
1, 154418, Control_c, 0, 64, 127
1, 154461, Note_on_c, 0, 81, 68
1, 154463, Note_on_c, 0, 79, 66
1, 154488, Note_off_c, 0, 79, 67
1, 154507, Note_on_c, 0, 85, 78
1, 154530, Note_on_c, 0, 88, 64
1, 154530, Note_off_c, 0, 81, 62
1, 154548, Note_on_c, 0, 93, 90
1, 154558, Note_off_c, 0, 88, 67
1, 154564, Note_off_c, 0, 85, 66
1, 154585, Note_off_c, 0, 93, 68
1, 154686, Control_c, 0, 64, 90
1, 154701, Control_c, 0, 64, 72
1, 154716, Control_c, 0, 64, 60
1, 154731, Control_c, 0, 64, 39
1, 154746, Control_c, 0, 64, 0
1, 154797, Note_on_c, 0, 69, 72
1, 154801, Note_on_c, 0, 50, 57
1, 154805, Note_on_c, 0, 65, 55
1, 154809, Note_on_c, 0, 62, 59
1, 154813, Note_on_c, 0, 38, 41
1, 154839, Note_off_c, 0, 50, 65
1, 154845, Note_off_c, 0, 65, 64
1, 154850, Note_off_c, 0, 62, 64
1, 154854, Note_off_c, 0, 38, 51
1, 154854, Note_off_c, 0, 69, 59
1, 154913, Note_on_c, 0, 50, 71
1, 154919, Note_on_c, 0, 65, 70
1, 154920, Note_on_c, 0, 69, 68
1, 154924, Note_on_c, 0, 62, 69
1, 154928, Note_on_c, 0, 38, 60
1, 154946, Note_off_c, 0, 50, 65
1, 154949, Note_off_c, 0, 65, 65
1, 154954, Note_off_c, 0, 62, 66
1, 154958, Note_off_c, 0, 38, 62
1, 154977, Note_off_c, 0, 69, 61
1, 155047, Note_on_c, 0, 52, 72
1, 155050, Note_on_c, 0, 68, 83
1, 155056, Note_on_c, 0, 40, 63
1, 155056, Note_on_c, 0, 64, 66
1, 155058, Note_on_c, 0, 62, 61
1, 155064, Control_c, 0, 64, 13
1, 155079, Control_c, 0, 64, 52
1, 155089, Note_off_c, 0, 64, 66
1, 155095, Control_c, 0, 64, 64
1, 155097, Note_off_c, 0, 62, 64
1, 155109, Control_c, 0, 64, 74
1, 155123, Note_off_c, 0, 40, 63
1, 155124, Control_c, 0, 64, 101
1, 155137, Note_off_c, 0, 68, 63
1, 155139, Control_c, 0, 64, 127
1, 155151, Note_off_c, 0, 52, 54
1, 155287, Control_c, 0, 64, 106
1, 155300, Note_on_c, 0, 64, 64
1, 155302, Control_c, 0, 64, 71
1, 155316, Control_c, 0, 64, 36
1, 155331, Control_c, 0, 64, 0
1, 155341, Note_off_c, 0, 64, 64
1, 155345, Note_on_c, 0, 68, 70
1, 155346, Control_c, 0, 64, 9
1, 155361, Control_c, 0, 64, 45
1, 155376, Control_c, 0, 64, 58
1, 155378, Note_off_c, 0, 68, 67
1, 155387, Note_on_c, 0, 71, 63
1, 155390, Control_c, 0, 64, 65
1, 155404, Note_off_c, 0, 71, 65
1, 155405, Control_c, 0, 64, 76
1, 155420, Control_c, 0, 64, 110
1, 155435, Control_c, 0, 64, 127
1, 155455, Note_on_c, 0, 76, 76
1, 155512, Note_on_c, 0, 80, 73
1, 155524, Note_off_c, 0, 76, 59
1, 155541, Note_on_c, 0, 83, 64
1, 155559, Note_on_c, 0, 88, 83
1, 155568, Note_off_c, 0, 83, 66
1, 155572, Note_off_c, 0, 80, 65
1, 155602, Note_off_c, 0, 88, 64
1, 155694, Control_c, 0, 64, 109
1, 155709, Control_c, 0, 64, 90
1, 155724, Control_c, 0, 64, 78
1, 155739, Control_c, 0, 64, 68
1, 155754, Control_c, 0, 64, 61
1, 155768, Control_c, 0, 64, 50
1, 155783, Control_c, 0, 64, 37
1, 155798, Control_c, 0, 64, 28
1, 155813, Control_c, 0, 64, 12
1, 155823, Note_on_c, 0, 67, 62
1, 155825, Note_on_c, 0, 36, 53
1, 155828, Control_c, 0, 64, 0
1, 155830, Note_on_c, 0, 48, 51
1, 155832, Note_on_c, 0, 60, 51
1, 155835, Note_on_c, 0, 63, 44
1, 155861, Note_off_c, 0, 36, 62
1, 155861, Note_off_c, 0, 63, 59
1, 155863, Note_off_c, 0, 67, 60
1, 155864, Note_off_c, 0, 48, 64
1, 155864, Note_off_c, 0, 60, 62
1, 155938, Note_on_c, 0, 63, 62
1, 155944, Note_on_c, 0, 67, 65
1, 155946, Note_on_c, 0, 36, 55
1, 155950, Note_on_c, 0, 60, 59
1, 155954, Note_on_c, 0, 48, 52
1, 155974, Note_off_c, 0, 63, 64
1, 155977, Note_off_c, 0, 36, 61
1, 155982, Note_off_c, 0, 48, 54
1, 155982, Note_off_c, 0, 60, 63
1, 156000, Note_off_c, 0, 67, 54
1, 156075, Note_on_c, 0, 50, 54
1, 156080, Control_c, 0, 64, 19
1, 156085, Note_on_c, 0, 38, 52
1, 156087, Note_on_c, 0, 66, 64
1, 156090, Note_on_c, 0, 60, 47
1, 156095, Control_c, 0, 64, 46
1, 156096, Note_on_c, 0, 62, 54
1, 156110, Control_c, 0, 64, 59
1, 156125, Control_c, 0, 64, 65
1, 156126, Note_off_c, 0, 60, 65
1, 156128, Note_off_c, 0, 62, 65
1, 156139, Note_off_c, 0, 38, 62
1, 156139, Control_c, 0, 64, 72
1, 156140, Note_off_c, 0, 50, 64
1, 156153, Note_off_c, 0, 66, 63
1, 156154, Control_c, 0, 64, 87
1, 156169, Control_c, 0, 64, 127
1, 156354, Control_c, 0, 64, 84
1, 156358, Note_on_c, 0, 62, 53
1, 156369, Control_c, 0, 64, 65
1, 156383, Control_c, 0, 64, 40
1, 156390, Note_off_c, 0, 62, 63
1, 156394, Note_on_c, 0, 66, 64
1, 156398, Control_c, 0, 64, 25
1, 156413, Control_c, 0, 64, 46
1, 156423, Note_off_c, 0, 66, 67
1, 156428, Control_c, 0, 64, 59
1, 156443, Control_c, 0, 64, 65
1, 156445, Note_on_c, 0, 69, 46
1, 156457, Control_c, 0, 64, 71
1, 156470, Note_off_c, 0, 69, 55
1, 156472, Control_c, 0, 64, 84
1, 156487, Control_c, 0, 64, 127
1, 156505, Note_on_c, 0, 74, 70
1, 156557, Note_on_c, 0, 78, 70
1, 156568, Note_off_c, 0, 74, 55
1, 156578, Note_on_c, 0, 81, 61
1, 156615, Note_off_c, 0, 81, 65
1, 156619, Note_on_c, 0, 86, 75
1, 156623, Note_off_c, 0, 78, 64
1, 156645, Note_off_c, 0, 86, 68
1, 156768, Control_c, 0, 64, 99
1, 156783, Control_c, 0, 64, 87
1, 156797, Control_c, 0, 64, 77
1, 156812, Control_c, 0, 64, 71
1, 156827, Control_c, 0, 64, 65
1, 156842, Control_c, 0, 64, 58
1, 156857, Control_c, 0, 64, 49
1, 156871, Control_c, 0, 64, 41
1, 156886, Note_on_c, 0, 30, 46
1, 156886, Control_c, 0, 64, 33
1, 156896, Note_on_c, 0, 62, 50
1, 156901, Control_c, 0, 64, 25
1, 156909, Note_on_c, 0, 42, 23
1, 156915, Note_on_c, 0, 60, 41
1, 156916, Control_c, 0, 64, 0
1, 156937, Note_off_c, 0, 62, 63
1, 156938, Note_off_c, 0, 30, 56
1, 156952, Note_off_c, 0, 42, 46
1, 156952, Note_off_c, 0, 60, 52
1, 157026, Note_on_c, 0, 60, 46
1, 157029, Note_on_c, 0, 30, 38
1, 157030, Note_on_c, 0, 42, 41
1, 157030, Note_on_c, 0, 62, 59
1, 157063, Note_off_c, 0, 60, 65
1, 157083, Note_off_c, 0, 42, 59
1, 157092, Note_off_c, 0, 30, 60
1, 157104, Note_off_c, 0, 62, 52
1, 157187, Note_on_c, 0, 70, 64
1, 157191, Note_on_c, 0, 31, 39
1, 157192, Note_on_c, 0, 43, 40
1, 157196, Note_on_c, 0, 58, 55
1, 157201, Note_on_c, 0, 62, 27
1, 157220, Control_c, 0, 64, 28
1, 157235, Control_c, 0, 64, 44
1, 157250, Control_c, 0, 64, 54
1, 157265, Control_c, 0, 64, 61
1, 157279, Control_c, 0, 64, 64
1, 157280, Note_off_c, 0, 62, 50
1, 157291, Note_off_c, 0, 58, 60
1, 157294, Control_c, 0, 64, 68
1, 157302, Note_off_c, 0, 43, 57
1, 157308, Note_off_c, 0, 31, 52
1, 157309, Control_c, 0, 64, 72
1, 157324, Control_c, 0, 64, 79
1, 157327, Note_off_c, 0, 70, 62
1, 157339, Control_c, 0, 64, 89
1, 157353, Control_c, 0, 64, 101
1, 157368, Control_c, 0, 64, 113
1, 157383, Control_c, 0, 64, 112
1, 157398, Control_c, 0, 64, 108
1, 157412, Control_c, 0, 64, 104
1, 157427, Control_c, 0, 64, 96
1, 157442, Control_c, 0, 64, 87
1, 157447, Note_on_c, 0, 69, 68
1, 157454, Note_on_c, 0, 60, 55
1, 157457, Control_c, 0, 64, 75
1, 157458, Note_on_c, 0, 45, 44
1, 157461, Note_on_c, 0, 33, 40
1, 157462, Note_on_c, 0, 66, 50
1, 157473, Control_c, 0, 64, 66
1, 157479, Note_off_c, 0, 60, 61
1, 157484, Note_off_c, 0, 69, 60
1, 157488, Control_c, 0, 64, 57
1, 157489, Note_off_c, 0, 66, 58
1, 157490, Note_off_c, 0, 45, 50
1, 157500, Note_off_c, 0, 33, 45
1, 157502, Control_c, 0, 64, 43
1, 157517, Control_c, 0, 64, 36
1, 157532, Control_c, 0, 64, 28
1, 157547, Control_c, 0, 64, 0
1, 157565, Note_on_c, 0, 60, 61
1, 157566, Note_on_c, 0, 69, 75
1, 157568, Note_on_c, 0, 45, 60
1, 157569, Note_on_c, 0, 66, 69
1, 157581, Note_on_c, 0, 33, 47
1, 157597, Note_off_c, 0, 45, 65
1, 157603, Note_off_c, 0, 60, 66
1, 157615, Note_off_c, 0, 33, 54
1, 157617, Note_off_c, 0, 69, 60
1, 157631, Note_off_c, 0, 66, 60
1, 157699, Note_on_c, 0, 46, 76
1, 157703, Note_on_c, 0, 67, 81
1, 157704, Note_on_c, 0, 34, 67
1, 157704, Note_on_c, 0, 62, 69
1, 157709, Note_on_c, 0, 58, 74
1, 157739, Control_c, 0, 64, 53
1, 157754, Control_c, 0, 64, 65
1, 157757, Note_on_c, 0, 66, 2
1, 157769, Control_c, 0, 64, 76
1, 157769, Note_off_c, 0, 46, 63
1, 157769, Note_off_c, 0, 62, 63
1, 157779, Note_off_c, 0, 58, 60
1, 157781, Note_off_c, 0, 34, 62
1, 157784, Control_c, 0, 64, 117
1, 157786, Note_off_c, 0, 67, 64
1, 157798, Control_c, 0, 64, 127
1, 157814, Note_off_c, 0, 66, 41
1, 157954, Control_c, 0, 64, 99
1, 157955, Note_on_c, 0, 65, 83
1, 157959, Note_on_c, 0, 47, 74
1, 157962, Note_on_c, 0, 35, 69
1, 157965, Note_on_c, 0, 56, 76
1, 157966, Note_on_c, 0, 62, 69
1, 157969, Control_c, 0, 64, 79
1, 157983, Control_c, 0, 64, 65
1, 157989, Note_off_c, 0, 47, 66
1, 157993, Note_off_c, 0, 35, 63
1, 157998, Control_c, 0, 64, 47
1, 158001, Note_off_c, 0, 56, 62
1, 158013, Note_off_c, 0, 65, 63
1, 158013, Control_c, 0, 64, 0
1, 158017, Note_off_c, 0, 62, 59
1, 158076, Note_on_c, 0, 47, 85
1, 158078, Note_on_c, 0, 35, 73
1, 158079, Note_on_c, 0, 65, 87
1, 158084, Note_on_c, 0, 62, 72
1, 158094, Note_on_c, 0, 56, 78
1, 158112, Note_off_c, 0, 35, 65
1, 158114, Note_off_c, 0, 47, 62
1, 158120, Note_off_c, 0, 56, 68
1, 158143, Note_off_c, 0, 62, 63
1, 158148, Note_off_c, 0, 65, 62
1, 158210, Note_on_c, 0, 48, 97
1, 158210, Note_on_c, 0, 64, 96
1, 158214, Note_on_c, 0, 60, 88
1, 158218, Note_on_c, 0, 36, 80
1, 158219, Note_on_c, 0, 55, 84
1, 158236, Control_c, 0, 64, 48
1, 158251, Control_c, 0, 64, 63
1, 158266, Control_c, 0, 64, 77
1, 158269, Note_off_c, 0, 36, 62
1, 158281, Control_c, 0, 64, 127
1, 158287, Note_off_c, 0, 55, 57
1, 158297, Note_off_c, 0, 48, 64
1, 158305, Note_off_c, 0, 60, 60
1, 158323, Note_off_c, 0, 64, 61
1, 158469, Note_on_c, 0, 53, 93
1, 158476, Note_on_c, 0, 62, 88
1, 158477, Note_on_c, 0, 41, 82
1, 158477, Note_on_c, 0, 59, 88
1, 158479, Note_on_c, 0, 55, 85
1, 158489, Control_c, 0, 64, 108
1, 158502, Note_off_c, 0, 41, 67
1, 158504, Control_c, 0, 64, 76
1, 158505, Note_off_c, 0, 55, 63
1, 158510, Note_off_c, 0, 53, 63
1, 158512, Note_off_c, 0, 59, 61
1, 158518, Control_c, 0, 64, 57
1, 158528, Note_off_c, 0, 62, 64
1, 158533, Control_c, 0, 64, 0
1, 158604, Note_on_c, 0, 41, 73
1, 158606, Note_on_c, 0, 53, 98
1, 158606, Note_on_c, 0, 62, 88
1, 158608, Note_on_c, 0, 59, 91
1, 158611, Note_on_c, 0, 55, 81
1, 158637, Note_off_c, 0, 53, 63
1, 158645, Note_off_c, 0, 55, 62
1, 158648, Note_off_c, 0, 41, 64
1, 158652, Note_off_c, 0, 59, 64
1, 158677, Note_off_c, 0, 62, 65
1, 158745, Note_on_c, 0, 52, 105
1, 158748, Note_on_c, 0, 60, 105
1, 158753, Note_on_c, 0, 40, 87
1, 158763, Control_c, 0, 64, 49
1, 158778, Control_c, 0, 64, 68
1, 158781, Note_off_c, 0, 52, 67
1, 158783, Note_off_c, 0, 40, 69
1, 158788, Note_on_c, 0, 42, 37
1, 158793, Control_c, 0, 64, 94
1, 158794, Note_off_c, 0, 60, 70
1, 158807, Control_c, 0, 64, 127
1, 158826, Note_off_c, 0, 42, 51
1, 159015, Control_c, 0, 64, 83
1, 159030, Control_c, 0, 64, 61
1, 159033, Note_on_c, 0, 48, 87
1, 159033, Note_on_c, 0, 68, 86
1, 159033, Note_on_c, 0, 70, 92
1, 159036, Note_on_c, 0, 60, 79
1, 159039, Note_on_c, 0, 36, 80
1, 159044, Note_on_c, 0, 62, 79
1, 159044, Control_c, 0, 64, 0
1, 159050, Note_on_c, 0, 65, 53
1, 159051, Note_on_c, 0, 71, 79
1, 159059, Note_on_c, 0, 64, 58
1, 159059, Note_off_c, 0, 48, 67
1, 159068, Note_off_c, 0, 36, 65
1, 159070, Note_off_c, 0, 62, 67
1, 159073, Note_off_c, 0, 60, 67
1, 159076, Note_off_c, 0, 71, 68
1, 159080, Note_off_c, 0, 64, 62
1, 159085, Note_off_c, 0, 65, 64
1, 159085, Note_off_c, 0, 70, 63
1, 159092, Note_off_c, 0, 68, 62
1, 159173, Note_on_c, 0, 36, 72
1, 159173, Note_on_c, 0, 48, 91
1, 159175, Note_on_c, 0, 70, 100
1, 159177, Note_on_c, 0, 64, 62
1, 159178, Note_on_c, 0, 60, 95
1, 159196, Note_on_c, 0, 67, 55
1, 159196, Note_off_c, 0, 48, 70
1, 159199, Note_off_c, 0, 36, 64
1, 159221, Note_off_c, 0, 64, 61
1, 159222, Note_off_c, 0, 67, 63
1, 159230, Note_off_c, 0, 60, 55
1, 159262, Note_off_c, 0, 70, 62
1, 159334, Note_on_c, 0, 53, 93
1, 159341, Note_on_c, 0, 41, 85
1, 159346, Note_on_c, 0, 69, 95
1, 159347, Note_on_c, 0, 60, 91
1, 159349, Note_on_c, 0, 65, 86
1, 159359, Note_off_c, 0, 53, 68
1, 159363, Control_c, 0, 64, 58
1, 159372, Note_off_c, 0, 41, 68
1, 159378, Control_c, 0, 64, 70
1, 159393, Control_c, 0, 64, 102
1, 159408, Control_c, 0, 64, 127
1, 159556, Control_c, 0, 64, 109
1, 159571, Control_c, 0, 64, 68
1, 159576, Note_on_c, 0, 29, 75
1, 159586, Control_c, 0, 64, 0
1, 159599, Note_on_c, 0, 33, 72
1, 159630, Control_c, 0, 64, 34
1, 159631, Note_off_c, 0, 60, 49
1, 159635, Note_on_c, 0, 37, 42
1, 159644, Note_off_c, 0, 29, 63
1, 159645, Control_c, 0, 64, 59
1, 159650, Note_off_c, 0, 65, 35
1, 159653, Note_on_c, 0, 36, 74
1, 159660, Control_c, 0, 64, 71
1, 159673, Note_off_c, 0, 37, 52
1, 159673, Control_c, 0, 64, 97
1, 159674, Note_off_c, 0, 33, 62
1, 159685, Note_off_c, 0, 36, 66
1, 159688, Control_c, 0, 64, 127
1, 159694, Note_on_c, 0, 41, 71
1, 159724, Note_off_c, 0, 41, 65
1, 159770, Note_on_c, 0, 45, 73
1, 159772, Note_off_c, 0, 69, 14
1, 159797, Note_off_c, 0, 45, 66
1, 159807, Note_on_c, 0, 48, 58
1, 159811, Note_on_c, 0, 47, 48
1, 159831, Note_off_c, 0, 48, 62
1, 159831, Note_on_c, 0, 53, 95
1, 159840, Note_off_c, 0, 47, 56
1, 159867, Note_off_c, 0, 53, 67
1, 159927, Control_c, 0, 64, 108
1, 159942, Control_c, 0, 64, 84
1, 159957, Control_c, 0, 64, 71
1, 159971, Control_c, 0, 64, 62
1, 159986, Control_c, 0, 64, 52
1, 160001, Control_c, 0, 64, 36
1, 160016, Control_c, 0, 64, 0
1, 160099, Note_on_c, 0, 53, 67
1, 160100, Note_on_c, 0, 41, 67
1, 160107, Note_on_c, 0, 71, 81
1, 160108, Note_on_c, 0, 62, 76
1, 160117, Note_on_c, 0, 68, 66
1, 160136, Note_off_c, 0, 53, 64
1, 160136, Note_off_c, 0, 62, 64
1, 160144, Note_off_c, 0, 41, 63
1, 160147, Note_off_c, 0, 68, 64
1, 160153, Note_off_c, 0, 71, 62
1, 160216, Note_on_c, 0, 71, 92
1, 160221, Note_on_c, 0, 62, 89
1, 160221, Note_on_c, 0, 68, 80
1, 160224, Note_on_c, 0, 41, 73
1, 160224, Note_on_c, 0, 53, 80
1, 160255, Note_off_c, 0, 53, 65
1, 160262, Note_off_c, 0, 62, 61
1, 160263, Note_off_c, 0, 41, 63
1, 160273, Note_off_c, 0, 68, 63
1, 160288, Note_off_c, 0, 71, 65
1, 160347, Note_on_c, 0, 52, 92
1, 160347, Note_on_c, 0, 72, 99
1, 160349, Control_c, 0, 64, 21
1, 160351, Note_on_c, 0, 67, 83
1, 160353, Note_on_c, 0, 64, 87
1, 160356, Note_on_c, 0, 40, 79
1, 160364, Control_c, 0, 64, 59
1, 160378, Control_c, 0, 64, 71
1, 160393, Control_c, 0, 64, 103
1, 160404, Note_off_c, 0, 67, 63
1, 160408, Control_c, 0, 64, 127
1, 160409, Note_off_c, 0, 64, 65
1, 160419, Note_off_c, 0, 40, 63
1, 160424, Note_off_c, 0, 72, 67
1, 160436, Note_off_c, 0, 52, 65
1, 160556, Control_c, 0, 64, 120
1, 160571, Control_c, 0, 64, 72
1, 160586, Control_c, 0, 64, 45
1, 160601, Control_c, 0, 64, 0
1, 160601, Note_on_c, 0, 60, 81
1, 160615, Control_c, 0, 64, 19
1, 160630, Control_c, 0, 64, 51
1, 160641, Note_off_c, 0, 60, 66
1, 160645, Control_c, 0, 64, 62
1, 160647, Note_on_c, 0, 64, 75
1, 160660, Control_c, 0, 64, 69
1, 160675, Control_c, 0, 64, 85
1, 160685, Note_on_c, 0, 67, 77
1, 160687, Note_off_c, 0, 64, 64
1, 160690, Control_c, 0, 64, 127
1, 160709, Note_off_c, 0, 67, 70
1, 160745, Note_on_c, 0, 72, 88
1, 160794, Note_on_c, 0, 76, 91
1, 160811, Note_off_c, 0, 72, 64
1, 160844, Note_on_c, 0, 79, 69
1, 160872, Note_on_c, 0, 84, 104
1, 160884, Note_off_c, 0, 76, 64
1, 160887, Note_off_c, 0, 79, 65
1, 160903, Note_off_c, 0, 84, 69
1, 161129, Note_on_c, 0, 72, 88
1, 161134, Note_on_c, 0, 48, 86
1, 161136, Note_on_c, 0, 63, 83
1, 161138, Note_on_c, 0, 36, 77
1, 161140, Note_on_c, 0, 66, 79
1, 161142, Control_c, 0, 64, 115
1, 161143, Note_on_c, 0, 69, 73
1, 161157, Control_c, 0, 64, 82
1, 161160, Note_off_c, 0, 48, 69
1, 161168, Note_off_c, 0, 36, 67
1, 161172, Control_c, 0, 64, 64
1, 161176, Note_off_c, 0, 63, 58
1, 161183, Note_off_c, 0, 72, 65
1, 161187, Control_c, 0, 64, 39
1, 161191, Note_off_c, 0, 66, 53
1, 161191, Note_off_c, 0, 69, 58
1, 161201, Control_c, 0, 64, 0
1, 161257, Note_on_c, 0, 72, 85
1, 161262, Note_on_c, 0, 63, 82
1, 161262, Note_on_c, 0, 66, 68
1, 161262, Note_on_c, 0, 69, 70
1, 161267, Note_on_c, 0, 35, 74
1, 161267, Note_on_c, 0, 47, 77
1, 161293, Note_off_c, 0, 69, 65
1, 161295, Note_off_c, 0, 47, 67
1, 161301, Note_off_c, 0, 35, 63
1, 161301, Note_off_c, 0, 66, 57
1, 161310, Note_off_c, 0, 63, 58
1, 161319, Note_off_c, 0, 72, 63
1, 161391, Note_on_c, 0, 71, 87
1, 161393, Note_on_c, 0, 67, 77
1, 161394, Note_on_c, 0, 62, 82
1, 161396, Note_on_c, 0, 43, 87
1, 161399, Note_on_c, 0, 31, 81
1, 161408, Control_c, 0, 64, 49
1, 161423, Note_off_c, 0, 43, 67
1, 161423, Control_c, 0, 64, 65
1, 161424, Note_off_c, 0, 31, 65
1, 161438, Control_c, 0, 64, 78
1, 161453, Control_c, 0, 64, 127
1, 161624, Control_c, 0, 64, 74
1, 161638, Note_off_c, 0, 62, 38
1, 161639, Control_c, 0, 64, 22
1, 161650, Note_off_c, 0, 71, 50
1, 161654, Control_c, 0, 64, 0
1, 161661, Note_on_c, 0, 31, 87
1, 161668, Note_off_c, 0, 67, 36
1, 161683, Control_c, 0, 64, 26
1, 161690, Note_on_c, 0, 35, 69
1, 161698, Control_c, 0, 64, 57
1, 161713, Control_c, 0, 64, 69
1, 161728, Control_c, 0, 64, 96
1, 161743, Control_c, 0, 64, 127
1, 161747, Note_off_c, 0, 31, 60
1, 161757, Note_on_c, 0, 38, 65
1, 161780, Note_off_c, 0, 35, 60
1, 161793, Note_off_c, 0, 38, 62
1, 161802, Note_on_c, 0, 43, 71
1, 161838, Note_off_c, 0, 43, 64
1, 161879, Note_on_c, 0, 47, 80
1, 161900, Note_on_c, 0, 50, 78
1, 161910, Note_off_c, 0, 47, 63
1, 161930, Note_off_c, 0, 50, 69
1, 161933, Note_on_c, 0, 55, 96
1, 161972, Note_on_c, 0, 49, 24
1, 161980, Note_off_c, 0, 55, 66
1, 162010, Note_off_c, 0, 49, 30
1, 162188, Control_c, 0, 64, 97
1, 162196, Note_on_c, 0, 55, 93
1, 162200, Note_on_c, 0, 73, 91
1, 162202, Control_c, 0, 64, 72
1, 162203, Note_on_c, 0, 64, 87
1, 162204, Note_on_c, 0, 43, 80
1, 162208, Note_on_c, 0, 70, 81
1, 162217, Control_c, 0, 64, 57
1, 162232, Control_c, 0, 64, 0
1, 162233, Note_off_c, 0, 43, 69
1, 162234, Note_off_c, 0, 55, 67
1, 162243, Note_off_c, 0, 64, 61
1, 162243, Note_off_c, 0, 70, 61
1, 162265, Note_off_c, 0, 73, 63
1, 162356, Note_on_c, 0, 73, 97
1, 162357, Note_on_c, 0, 64, 98
1, 162359, Note_on_c, 0, 55, 93
1, 162363, Note_on_c, 0, 70, 78
1, 162370, Note_on_c, 0, 43, 80
1, 162383, Note_off_c, 0, 55, 68
1, 162383, Note_off_c, 0, 64, 65
1, 162387, Note_off_c, 0, 70, 67
1, 162395, Note_off_c, 0, 43, 66
1, 162431, Note_off_c, 0, 73, 60
1, 162529, Note_on_c, 0, 53, 101
1, 162530, Note_on_c, 0, 74, 100
1, 162531, Note_on_c, 0, 65, 97
1, 162536, Note_on_c, 0, 41, 87
1, 162538, Note_on_c, 0, 69, 80
1, 162552, Control_c, 0, 64, 50
1, 162567, Control_c, 0, 64, 66
1, 162581, Control_c, 0, 64, 84
1, 162590, Note_off_c, 0, 69, 41
1, 162596, Control_c, 0, 64, 127
1, 162600, Note_off_c, 0, 65, 64
1, 162618, Note_off_c, 0, 74, 66
1, 162637, Note_off_c, 0, 41, 63
1, 162693, Note_off_c, 0, 53, 57
1, 162789, Control_c, 0, 64, 86
1, 162803, Note_on_c, 0, 65, 81
1, 162803, Control_c, 0, 64, 62
1, 162818, Control_c, 0, 64, 15
1, 162833, Control_c, 0, 64, 31
1, 162840, Note_on_c, 0, 69, 79
1, 162844, Note_off_c, 0, 65, 65
1, 162848, Control_c, 0, 64, 56
1, 162863, Control_c, 0, 64, 64
1, 162878, Control_c, 0, 64, 72
1, 162891, Note_off_c, 0, 69, 66
1, 162892, Note_on_c, 0, 74, 84
1, 162892, Control_c, 0, 64, 97
1, 162907, Control_c, 0, 64, 127
1, 162911, Note_off_c, 0, 74, 70
1, 162964, Note_on_c, 0, 77, 84
1, 163006, Note_on_c, 0, 81, 81
1, 163028, Note_off_c, 0, 77, 63
1, 163051, Note_on_c, 0, 86, 80
1, 163081, Note_on_c, 0, 89, 102
1, 163088, Note_off_c, 0, 81, 65
1, 163103, Note_off_c, 0, 86, 67
1, 163119, Note_off_c, 0, 89, 68
1, 163315, Control_c, 0, 64, 82
1, 163330, Control_c, 0, 64, 57
1, 163339, Note_on_c, 0, 29, 56
1, 163345, Note_on_c, 0, 75, 79
1, 163345, Control_c, 0, 64, 27
1, 163349, Note_on_c, 0, 79, 88
1, 163353, Note_on_c, 0, 67, 80
1, 163360, Control_c, 0, 64, 45
1, 163373, Note_on_c, 0, 34, 58
1, 163375, Control_c, 0, 64, 59
1, 163385, Note_off_c, 0, 29, 62
1, 163388, Note_off_c, 0, 67, 62
1, 163390, Control_c, 0, 64, 65
1, 163400, Note_on_c, 0, 38, 58
1, 163401, Note_off_c, 0, 75, 62
1, 163404, Control_c, 0, 64, 74
1, 163415, Note_off_c, 0, 79, 65
1, 163419, Control_c, 0, 64, 104
1, 163428, Note_off_c, 0, 34, 62
1, 163429, Note_off_c, 0, 38, 63
1, 163434, Control_c, 0, 64, 127
1, 163447, Note_on_c, 0, 41, 69
1, 163491, Note_off_c, 0, 41, 65
1, 163497, Note_on_c, 0, 77, 83
1, 163520, Note_on_c, 0, 75, 46
1, 163534, Note_on_c, 0, 46, 63
1, 163539, Note_off_c, 0, 75, 59
1, 163551, Note_off_c, 0, 77, 59
1, 163558, Note_on_c, 0, 50, 61
1, 163582, Control_c, 0, 64, 79
1, 163592, Note_off_c, 0, 50, 63
1, 163596, Poly_aftertouch_c, 0, 65, 0
1, 163596, Control_c, 0, 64, 44
1, 163611, Control_c, 0, 64, 0
1, 163614, Note_on_c, 0, 53, 94
1, 163626, Note_on_c, 0, 76, 85
1, 163626, Control_c, 0, 64, 29
1, 163635, Note_off_c, 0, 46, 63
1, 163636, Note_on_c, 0, 65, 56
1, 163641, Control_c, 0, 64, 57
1, 163647, Note_on_c, 0, 73, 52
1, 163656, Control_c, 0, 64, 65
1, 163659, Note_off_c, 0, 53, 67
1, 163671, Control_c, 0, 64, 76
1, 163682, Note_off_c, 0, 73, 59
1, 163686, Control_c, 0, 64, 127
1, 163700, Note_off_c, 0, 65, 53
1, 163757, Note_off_c, 0, 76, 59
1, 163886, Note_on_c, 0, 64, 81
1, 163891, Note_on_c, 0, 61, 68
1, 163894, Note_on_c, 0, 53, 68
1, 163908, Note_on_c, 0, 67, 45
1, 163927, Note_off_c, 0, 61, 58
1, 163932, Note_off_c, 0, 53, 63
1, 163935, Note_off_c, 0, 67, 55
1, 163939, Note_off_c, 0, 64, 61
1, 163947, Note_on_c, 0, 73, 62
1, 163975, Note_off_c, 0, 73, 66
1, 164021, Note_on_c, 0, 64, 82
1, 164023, Note_on_c, 0, 53, 71
1, 164052, Note_off_c, 0, 53, 58
1, 164052, Note_on_c, 0, 77, 71
1, 164074, Note_off_c, 0, 64, 62
1, 164096, Poly_aftertouch_c, 0, 61, 127
1, 164117, Note_off_c, 0, 77, 60
1, 164123, Poly_aftertouch_c, 0, 61, 0
1, 164124, Control_c, 0, 64, 72
1, 164135, Note_on_c, 0, 82, 43
1, 164139, Control_c, 0, 64, 42
1, 164153, Note_on_c, 0, 63, 85
1, 164154, Control_c, 0, 64, 0
1, 164157, Note_off_c, 0, 82, 37
1, 164157, Note_on_c, 0, 53, 80
1, 164159, Note_on_c, 0, 60, 77
1, 164161, Note_on_c, 0, 89, 91
1, 164168, Control_c, 0, 64, 49
1, 164183, Control_c, 0, 64, 66
1, 164198, Control_c, 0, 64, 82
1, 164198, Note_off_c, 0, 89, 65
1, 164201, Note_off_c, 0, 63, 64
1, 164212, Control_c, 0, 64, 127
1, 164213, Note_off_c, 0, 60, 63
1, 164235, Note_off_c, 0, 53, 65
1, 164419, Note_on_c, 0, 29, 49
1, 164444, Note_on_c, 0, 75, 87
1, 164447, Note_on_c, 0, 32, 43
1, 164454, Note_on_c, 0, 72, 70
1, 164457, Note_on_c, 0, 65, 70
1, 164476, Note_on_c, 0, 33, 56
1, 164479, Note_off_c, 0, 29, 58
1, 164485, Note_off_c, 0, 32, 50
1, 164488, Note_off_c, 0, 65, 62
1, 164490, Note_on_c, 0, 36, 63
1, 164500, Note_off_c, 0, 72, 55
1, 164510, Note_off_c, 0, 33, 62
1, 164513, Note_off_c, 0, 75, 61
1, 164528, Note_off_c, 0, 36, 62
1, 164547, Note_on_c, 0, 41, 55
1, 164585, Note_off_c, 0, 41, 64
1, 164598, Note_on_c, 0, 75, 94
1, 164611, Note_on_c, 0, 65, 71
1, 164621, Note_on_c, 0, 72, 49
1, 164623, Note_on_c, 0, 45, 69
1, 164641, Note_off_c, 0, 72, 63
1, 164649, Note_off_c, 0, 65, 54
1, 164656, Note_off_c, 0, 45, 64
1, 164672, Note_off_c, 0, 75, 65
1, 164683, Note_on_c, 0, 48, 35
1, 164694, Control_c, 0, 64, 93
1, 164709, Control_c, 0, 64, 64
1, 164713, Note_off_c, 0, 48, 53
1, 164724, Control_c, 0, 64, 0
1, 164727, Note_on_c, 0, 53, 77
1, 164738, Note_on_c, 0, 74, 89
1, 164747, Note_on_c, 0, 71, 78
1, 164748, Note_on_c, 0, 65, 88
1, 164754, Control_c, 0, 64, 32
1, 164768, Control_c, 0, 64, 54
1, 164774, Note_off_c, 0, 53, 65
1, 164783, Control_c, 0, 64, 63
1, 164798, Control_c, 0, 64, 70
1, 164813, Control_c, 0, 64, 92
1, 164828, Control_c, 0, 64, 127
1, 164841, Note_off_c, 0, 65, 56
1, 164884, Note_off_c, 0, 71, 57
1, 164897, Note_off_c, 0, 74, 54
1, 165009, Note_on_c, 0, 62, 85
1, 165009, Note_on_c, 0, 71, 56
1, 165021, Note_on_c, 0, 59, 79
1, 165029, Note_on_c, 0, 53, 64
1, 165039, Note_off_c, 0, 71, 67
1, 165043, Note_on_c, 0, 74, 61
1, 165048, Note_off_c, 0, 59, 67
1, 165051, Note_off_c, 0, 62, 64
1, 165060, Note_off_c, 0, 53, 63
1, 165069, Note_off_c, 0, 74, 64
1, 165121, Note_on_c, 0, 77, 69
1, 165137, Note_on_c, 0, 62, 81
1, 165146, Note_on_c, 0, 53, 64
1, 165154, Note_on_c, 0, 59, 52
1, 165165, Note_on_c, 0, 83, 74
1, 165171, Note_off_c, 0, 59, 65
1, 165176, Note_off_c, 0, 53, 62
1, 165179, Note_off_c, 0, 77, 62
1, 165188, Note_off_c, 0, 62, 55
1, 165212, Control_c, 0, 64, 100
1, 165214, Note_on_c, 0, 86, 71
1, 165227, Control_c, 0, 64, 68
1, 165235, Note_off_c, 0, 83, 60
1, 165242, Control_c, 0, 64, 40
1, 165257, Control_c, 0, 64, 0
1, 165269, Note_on_c, 0, 89, 85
1, 165270, Note_on_c, 0, 61, 91
1, 165272, Control_c, 0, 64, 29
1, 165273, Note_on_c, 0, 53, 77
1, 165275, Note_on_c, 0, 58, 75
1, 165279, Note_off_c, 0, 86, 64
1, 165287, Control_c, 0, 64, 55
1, 165298, Note_off_c, 0, 89, 64
1, 165301, Control_c, 0, 64, 66
1, 165324, Control_c, 0, 64, 82
1, 165328, Note_off_c, 0, 61, 66
1, 165339, Control_c, 0, 64, 127
1, 165340, Note_off_c, 0, 58, 65
1, 165348, Note_off_c, 0, 53, 65
1, 165554, Note_on_c, 0, 29, 49
1, 165579, Note_on_c, 0, 73, 75
1, 165588, Note_on_c, 0, 70, 63
1, 165595, Note_on_c, 0, 65, 51
1, 165596, Note_on_c, 0, 33, 59
1, 165602, Note_off_c, 0, 29, 56
1, 165617, Note_off_c, 0, 70, 66
1, 165617, Note_off_c, 0, 65, 62
1, 165626, Note_off_c, 0, 73, 58
1, 165632, Note_on_c, 0, 36, 58
1, 165633, Note_off_c, 0, 33, 63
1, 165665, Note_off_c, 0, 36, 62
1, 165674, Note_on_c, 0, 41, 62
1, 165708, Note_off_c, 0, 41, 63
1, 165713, Note_on_c, 0, 73, 79
1, 165717, Note_on_c, 0, 65, 51
1, 165719, Note_on_c, 0, 70, 57
1, 165749, Note_off_c, 0, 70, 66
1, 165759, Note_off_c, 0, 65, 61
1, 165763, Note_on_c, 0, 45, 45
1, 165790, Note_off_c, 0, 73, 63
1, 165793, Note_off_c, 0, 45, 54
1, 165797, Note_on_c, 0, 48, 49
1, 165814, Control_c, 0, 64, 102
1, 165826, Note_off_c, 0, 48, 53
1, 165829, Control_c, 0, 64, 66
1, 165844, Control_c, 0, 64, 13
1, 165859, Control_c, 0, 64, 0
1, 165867, Note_on_c, 0, 53, 65
1, 165874, Control_c, 0, 64, 28
1, 165882, Note_on_c, 0, 72, 76
1, 165883, Note_on_c, 0, 65, 61
1, 165888, Note_on_c, 0, 69, 66
1, 165889, Control_c, 0, 64, 52
1, 165904, Control_c, 0, 64, 62
1, 165905, Note_off_c, 0, 53, 66
1, 165918, Note_off_c, 0, 65, 64
1, 165918, Control_c, 0, 64, 70
1, 165927, Note_off_c, 0, 69, 61
1, 165933, Control_c, 0, 64, 87
1, 165948, Control_c, 0, 64, 127
1, 165959, Note_off_c, 0, 72, 65
1, 166160, Note_on_c, 0, 69, 58
1, 166165, Note_on_c, 0, 57, 62
1, 166169, Note_on_c, 0, 45, 58
1, 166193, Note_off_c, 0, 69, 63
1, 166202, Note_off_c, 0, 57, 63
1, 166207, Note_on_c, 0, 74, 63
1, 166212, Note_off_c, 0, 45, 62
1, 166241, Note_off_c, 0, 74, 64
1, 166243, Note_on_c, 0, 77, 70
1, 166272, Note_off_c, 0, 77, 66
1, 166317, Note_on_c, 0, 57, 79
1, 166321, Note_on_c, 0, 81, 75
1, 166324, Note_on_c, 0, 45, 73
1, 166360, Note_off_c, 0, 45, 62
1, 166361, Note_off_c, 0, 57, 62
1, 166366, Note_on_c, 0, 86, 83
1, 166400, Note_off_c, 0, 81, 61
1, 166413, Note_on_c, 0, 89, 83
1, 166460, Control_c, 0, 64, 114
1, 166470, Note_on_c, 0, 93, 98
1, 166473, Note_on_c, 0, 57, 100
1, 166473, Note_off_c, 0, 86, 63
1, 166474, Control_c, 0, 64, 70
1, 166478, Note_on_c, 0, 45, 87
1, 166489, Control_c, 0, 64, 25
1, 166490, Note_off_c, 0, 89, 63
1, 166504, Control_c, 0, 64, 35
1, 166509, Note_off_c, 0, 93, 69
1, 166519, Control_c, 0, 64, 61
1, 166527, Note_off_c, 0, 57, 65
1, 166530, Note_off_c, 0, 45, 63
1, 166534, Control_c, 0, 64, 71
1, 166548, Control_c, 0, 64, 96
1, 166563, Control_c, 0, 64, 127
1, 166786, Control_c, 0, 64, 73
1, 166798, Note_on_c, 0, 57, 84
1, 166800, Note_on_c, 0, 73, 93
1, 166801, Control_c, 0, 64, 0
1, 166801, Note_on_c, 0, 64, 88
1, 166804, Note_on_c, 0, 45, 68
1, 166816, Note_on_c, 0, 69, 74
1, 166819, Note_on_c, 0, 67, 69
1, 166833, Note_off_c, 0, 57, 68
1, 166836, Note_off_c, 0, 64, 65
1, 166844, Note_off_c, 0, 45, 65
1, 166846, Note_off_c, 0, 67, 68
1, 166854, Note_off_c, 0, 69, 60
1, 166869, Note_off_c, 0, 73, 62
1, 166994, Note_on_c, 0, 57, 85
1, 166998, Note_on_c, 0, 45, 79
1, 166999, Note_on_c, 0, 73, 99
1, 167000, Note_on_c, 0, 64, 93
1, 167004, Note_on_c, 0, 69, 74
1, 167006, Note_on_c, 0, 67, 72
1, 167019, Note_off_c, 0, 57, 68
1, 167030, Note_off_c, 0, 45, 69
1, 167030, Note_off_c, 0, 67, 70
1, 167036, Note_off_c, 0, 64, 61
1, 167041, Note_off_c, 0, 69, 65
1, 167075, Note_off_c, 0, 73, 58
1, 167251, Note_on_c, 0, 74, 95
1, 167253, Note_on_c, 0, 50, 86
1, 167257, Note_on_c, 0, 38, 79
1, 167257, Note_on_c, 0, 65, 84
1, 167264, Note_on_c, 0, 69, 80
1, 167283, Control_c, 0, 64, 52
1, 167297, Control_c, 0, 64, 70
1, 167311, Note_off_c, 0, 65, 65
1, 167312, Control_c, 0, 64, 102
1, 167321, Note_off_c, 0, 69, 64
1, 167324, Note_off_c, 0, 74, 67
1, 167325, Note_off_c, 0, 50, 66
1, 167327, Control_c, 0, 64, 127
1, 167331, Note_off_c, 0, 38, 59
1, 167624, Note_on_c, 0, 62, 48
1, 167670, Note_off_c, 0, 62, 59
1, 167674, Note_on_c, 0, 64, 56
1, 167707, Note_off_c, 0, 64, 65
1, 167711, Note_on_c, 0, 65, 67
1, 167719, Control_c, 0, 64, 80
1, 167734, Control_c, 0, 64, 45
1, 167737, Note_off_c, 0, 65, 69
1, 167749, Control_c, 0, 64, 0
1, 167782, Note_on_c, 0, 65, 80
1, 167832, Note_off_c, 0, 65, 64
1, 167840, Note_on_c, 0, 64, 68
1, 167873, Note_off_c, 0, 64, 65
1, 167910, Note_on_c, 0, 62, 44
1, 167946, Note_off_c, 0, 62, 52
1, 167966, Note_on_c, 0, 35, 51
1, 167970, Note_on_c, 0, 65, 61
1, 167975, Note_on_c, 0, 69, 62
1, 167978, Note_on_c, 0, 47, 39
1, 167999, Note_off_c, 0, 35, 52
1, 168004, Note_off_c, 0, 65, 64
1, 168011, Note_off_c, 0, 47, 33
1, 168015, Note_off_c, 0, 69, 63
1, 168018, Note_on_c, 0, 64, 50
1, 168058, Note_off_c, 0, 64, 65
1, 168091, Note_on_c, 0, 62, 35
1, 168122, Note_off_c, 0, 62, 53
1, 168160, Note_on_c, 0, 52, 53
1, 168165, Note_on_c, 0, 40, 50
1, 168166, Note_on_c, 0, 68, 59
1, 168174, Note_on_c, 0, 65, 35
1, 168183, Note_off_c, 0, 52, 60
1, 168197, Note_off_c, 0, 40, 55
1, 168204, Note_off_c, 0, 65, 54
1, 168211, Note_off_c, 0, 68, 61
1, 168213, Note_on_c, 0, 64, 52
1, 168247, Note_off_c, 0, 64, 65
1, 168272, Note_on_c, 0, 62, 47
1, 168318, Note_off_c, 0, 62, 0
1, 168356, Poly_aftertouch_c, 0, 62, 127
1, 168358, Note_on_c, 0, 59, 47
1, 168366, Note_on_c, 0, 56, 46
1, 168384, Note_off_c, 0, 59, 57
1, 168394, Note_off_c, 0, 56, 54
1, 168405, Poly_aftertouch_c, 0, 62, 0
1, 168425, Note_on_c, 0, 64, 63
1, 168463, Note_off_c, 0, 64, 64
1, 168477, Note_on_c, 0, 65, 63
1, 168507, Note_off_c, 0, 65, 66
1, 168534, Note_on_c, 0, 65, 90
1, 168586, Note_off_c, 0, 65, 62
1, 168618, Note_on_c, 0, 64, 58
1, 168647, Note_off_c, 0, 64, 65
1, 168665, Note_on_c, 0, 62, 51
1, 168694, Note_off_c, 0, 62, 57
1, 168726, Note_on_c, 0, 35, 45
1, 168727, Note_on_c, 0, 65, 63
1, 168728, Note_on_c, 0, 69, 69
1, 168732, Note_on_c, 0, 47, 32
1, 168762, Note_off_c, 0, 65, 63
1, 168763, Note_off_c, 0, 35, 50
1, 168768, Note_off_c, 0, 47, 32
1, 168784, Note_off_c, 0, 69, 60
1, 168790, Note_on_c, 0, 64, 46
1, 168828, Note_off_c, 0, 64, 65
1, 168873, Note_on_c, 0, 62, 4
1, 168920, Note_on_c, 0, 52, 48
1, 168920, Note_on_c, 0, 40, 52
1, 168920, Note_off_c, 0, 62, 38
1, 168923, Note_on_c, 0, 68, 56
1, 168944, Note_off_c, 0, 52, 59
1, 168950, Note_off_c, 0, 40, 58
1, 168970, Note_off_c, 0, 68, 60
1, 168977, Note_on_c, 0, 64, 45
1, 169011, Note_off_c, 0, 64, 65
1, 169039, Note_on_c, 0, 62, 44
1, 169091, Note_off_c, 0, 62, 0
1, 169114, Note_on_c, 0, 59, 56
1, 169123, Note_on_c, 0, 56, 49
1, 169129, Poly_aftertouch_c, 0, 62, 127
1, 169141, Note_off_c, 0, 59, 63
1, 169151, Note_off_c, 0, 56, 63
1, 169169, Poly_aftertouch_c, 0, 62, 0
1, 169183, Note_on_c, 0, 64, 60
1, 169220, Note_off_c, 0, 64, 64
1, 169233, Note_on_c, 0, 65, 64
1, 169263, Note_off_c, 0, 65, 66
1, 169297, Note_on_c, 0, 65, 86
1, 169348, Note_off_c, 0, 65, 64
1, 169371, Note_on_c, 0, 64, 59
1, 169403, Note_off_c, 0, 64, 65
1, 169415, Note_on_c, 0, 62, 59
1, 169453, Note_off_c, 0, 62, 60
1, 169487, Note_on_c, 0, 35, 49
1, 169489, Note_on_c, 0, 47, 43
1, 169495, Note_on_c, 0, 69, 64
1, 169499, Note_on_c, 0, 65, 54
1, 169519, Note_off_c, 0, 47, 48
1, 169519, Note_off_c, 0, 35, 53
1, 169537, Note_off_c, 0, 65, 65
1, 169548, Note_off_c, 0, 69, 56
1, 169560, Note_on_c, 0, 64, 40
1, 169591, Note_off_c, 0, 64, 56
1, 169618, Note_on_c, 0, 62, 27
1, 169655, Note_off_c, 0, 62, 52
1, 169684, Note_on_c, 0, 52, 45
1, 169685, Note_on_c, 0, 40, 42
1, 169690, Note_on_c, 0, 68, 51
1, 169712, Note_off_c, 0, 52, 54
1, 169720, Note_on_c, 0, 64, 47
1, 169721, Note_off_c, 0, 40, 53
1, 169739, Note_off_c, 0, 68, 60
1, 169768, Note_off_c, 0, 64, 64
1, 169800, Note_on_c, 0, 62, 42
1, 169847, Note_off_c, 0, 62, 63
1, 169877, Note_on_c, 0, 71, 77
1, 169883, Note_on_c, 0, 56, 58
1, 169886, Note_on_c, 0, 59, 50
1, 169892, Note_on_c, 0, 68, 60
1, 169910, Note_off_c, 0, 56, 63
1, 169910, Note_off_c, 0, 59, 57
1, 169928, Note_off_c, 0, 68, 63
1, 169946, Note_off_c, 0, 71, 62
1, 169959, Note_on_c, 0, 65, 32
1, 169979, Note_on_c, 0, 62, 60
1, 169993, Note_off_c, 0, 65, 44
1, 170016, Note_off_c, 0, 62, 63
1, 170059, Note_on_c, 0, 74, 83
1, 170060, Note_on_c, 0, 59, 49
1, 170063, Note_on_c, 0, 56, 56
1, 170066, Note_on_c, 0, 71, 75
1, 170085, Note_off_c, 0, 59, 55
1, 170086, Note_off_c, 0, 56, 60
1, 170124, Note_on_c, 0, 68, 74
1, 170125, Note_off_c, 0, 71, 63
1, 170138, Note_off_c, 0, 74, 62
1, 170170, Note_off_c, 0, 68, 64
1, 170177, Note_on_c, 0, 65, 65
1, 170208, Note_off_c, 0, 65, 65
1, 170255, Note_on_c, 0, 52, 66
1, 170258, Note_on_c, 0, 40, 65
1, 170262, Note_on_c, 0, 68, 76
1, 170266, Note_on_c, 0, 65, 61
1, 170285, Note_off_c, 0, 52, 66
1, 170291, Note_off_c, 0, 40, 64
1, 170303, Note_on_c, 0, 64, 63
1, 170304, Note_off_c, 0, 65, 60
1, 170331, Note_off_c, 0, 68, 61
1, 170352, Note_off_c, 0, 64, 61
1, 170358, Note_on_c, 0, 62, 66
1, 170393, Note_off_c, 0, 62, 64
1, 170451, Note_on_c, 0, 69, 79
1, 170453, Note_on_c, 0, 61, 72
1, 170460, Note_on_c, 0, 57, 58
1, 170461, Note_on_c, 0, 45, 60
1, 170480, Note_off_c, 0, 61, 68
1, 170484, Control_c, 0, 64, 60
1, 170486, Note_off_c, 0, 57, 63
1, 170486, Note_off_c, 0, 69, 63
1, 170492, Note_off_c, 0, 45, 65
1, 170499, Control_c, 0, 64, 68
1, 170513, Control_c, 0, 64, 81
1, 170528, Control_c, 0, 64, 127
1, 170564, Poly_aftertouch_c, 0, 64, 0
1, 170658, Note_on_c, 0, 67, 62
1, 170670, Note_on_c, 0, 64, 54
1, 170680, Note_on_c, 0, 61, 55
1, 170702, Note_off_c, 0, 64, 65
1, 170712, Note_off_c, 0, 61, 64
1, 170713, Note_on_c, 0, 69, 63
1, 170716, Note_off_c, 0, 67, 59
1, 170762, Note_off_c, 0, 69, 62
1, 170775, Note_on_c, 0, 70, 67
1, 170801, Note_off_c, 0, 70, 68
1, 170802, Control_c, 0, 64, 88
1, 170817, Control_c, 0, 64, 57
1, 170832, Control_c, 0, 64, 0
1, 170837, Note_on_c, 0, 70, 94
1, 170887, Note_off_c, 0, 70, 69
1, 170903, Note_on_c, 0, 69, 76
1, 170947, Note_on_c, 0, 67, 63
1, 170951, Note_off_c, 0, 69, 61
1, 170986, Note_off_c, 0, 67, 59
1, 171031, Note_on_c, 0, 52, 67
1, 171034, Note_on_c, 0, 74, 80
1, 171037, Note_on_c, 0, 40, 57
1, 171041, Note_on_c, 0, 70, 66
1, 171054, Note_off_c, 0, 52, 64
1, 171069, Note_off_c, 0, 40, 56
1, 171075, Note_off_c, 0, 70, 60
1, 171081, Note_on_c, 0, 69, 61
1, 171088, Note_off_c, 0, 74, 57
1, 171132, Note_off_c, 0, 69, 62
1, 171159, Note_on_c, 0, 67, 51
1, 171188, Note_off_c, 0, 67, 57
1, 171227, Note_on_c, 0, 45, 66
1, 171227, Note_on_c, 0, 57, 67
1, 171230, Note_on_c, 0, 70, 57
1, 171231, Note_on_c, 0, 73, 68
1, 171254, Note_off_c, 0, 45, 66
1, 171254, Note_off_c, 0, 57, 67
1, 171283, Note_off_c, 0, 70, 55
1, 171294, Note_on_c, 0, 69, 64
1, 171308, Note_off_c, 0, 73, 63
1, 171338, Note_off_c, 0, 69, 65
1, 171368, Note_on_c, 0, 67, 48
1, 171416, Note_off_c, 0, 67, 0
1, 171427, Note_on_c, 0, 67, 58
1, 171431, Note_on_c, 0, 64, 62
1, 171436, Note_on_c, 0, 61, 58
1, 171463, Note_off_c, 0, 64, 66
1, 171466, Note_off_c, 0, 61, 65
1, 171481, Note_on_c, 0, 69, 66
1, 171493, Note_off_c, 0, 67, 61
1, 171529, Note_off_c, 0, 69, 63
1, 171544, Note_on_c, 0, 70, 66
1, 171568, Note_off_c, 0, 70, 68
1, 171604, Note_on_c, 0, 70, 94
1, 171656, Note_off_c, 0, 70, 68
1, 171663, Note_on_c, 0, 69, 74
1, 171711, Note_on_c, 0, 67, 66
1, 171716, Note_off_c, 0, 69, 65
1, 171752, Note_off_c, 0, 67, 61
1, 171792, Note_on_c, 0, 40, 52
1, 171796, Note_on_c, 0, 52, 47
1, 171798, Note_on_c, 0, 74, 78
1, 171811, Note_on_c, 0, 70, 62
1, 171820, Note_off_c, 0, 52, 57
1, 171822, Note_off_c, 0, 40, 55
1, 171844, Note_off_c, 0, 70, 63
1, 171856, Note_off_c, 0, 74, 64
1, 171857, Note_on_c, 0, 69, 56
1, 171896, Note_off_c, 0, 69, 65
1, 171914, Note_on_c, 0, 67, 54
1, 171951, Note_off_c, 0, 67, 63
1, 171980, Note_on_c, 0, 57, 61
1, 171986, Note_on_c, 0, 73, 74
1, 171990, Note_on_c, 0, 45, 56
1, 172003, Note_off_c, 0, 57, 64
1, 172010, Note_on_c, 0, 70, 48
1, 172016, Note_off_c, 0, 45, 60
1, 172045, Note_off_c, 0, 70, 55
1, 172068, Note_on_c, 0, 69, 28
1, 172074, Note_off_c, 0, 73, 63
1, 172100, Note_off_c, 0, 69, 52
1, 172107, Note_on_c, 0, 67, 40
1, 172149, Note_off_c, 0, 67, 61
1, 172175, Note_on_c, 0, 69, 67
1, 172186, Note_on_c, 0, 72, 67
1, 172190, Note_on_c, 0, 38, 49
1, 172198, Note_on_c, 0, 50, 38
1, 172214, Note_off_c, 0, 69, 63
1, 172223, Note_off_c, 0, 38, 53
1, 172232, Note_off_c, 0, 50, 33
1, 172237, Note_off_c, 0, 72, 60
1, 172251, Note_on_c, 0, 67, 53
1, 172287, Note_off_c, 0, 67, 62
1, 172314, Note_on_c, 0, 66, 47
1, 172348, Note_off_c, 0, 66, 63
1, 172356, Note_on_c, 0, 55, 63
1, 172365, Note_on_c, 0, 43, 51
1, 172366, Note_on_c, 0, 71, 65
1, 172370, Note_on_c, 0, 68, 54
1, 172384, Note_off_c, 0, 55, 62
1, 172393, Note_off_c, 0, 43, 60
1, 172411, Note_off_c, 0, 68, 64
1, 172420, Note_off_c, 0, 71, 59
1, 172425, Note_on_c, 0, 67, 49
1, 172461, Note_off_c, 0, 67, 64
1, 172510, Note_on_c, 0, 65, 9
1, 172556, Note_off_c, 0, 65, 38
1, 172557, Note_on_c, 0, 70, 61
1, 172565, Note_on_c, 0, 36, 45
1, 172569, Note_on_c, 0, 67, 45
1, 172585, Note_on_c, 0, 48, 14
1, 172586, Note_off_c, 0, 48, 127
1, 172596, Note_off_c, 0, 70, 65
1, 172600, Note_off_c, 0, 36, 52
1, 172610, Note_off_c, 0, 67, 61
1, 172622, Note_on_c, 0, 65, 46
1, 172665, Note_off_c, 0, 65, 60
1, 172685, Note_on_c, 0, 64, 47
1, 172717, Note_off_c, 0, 64, 60
1, 172745, Note_on_c, 0, 41, 58
1, 172745, Note_on_c, 0, 53, 54
1, 172751, Note_on_c, 0, 65, 67
1, 172752, Note_on_c, 0, 69, 69
1, 172769, Note_off_c, 0, 53, 58
1, 172775, Note_off_c, 0, 41, 63
1, 172811, Note_off_c, 0, 65, 55
1, 172821, Note_off_c, 0, 69, 60
1, 172822, Note_on_c, 0, 64, 61
1, 172860, Note_off_c, 0, 64, 65
1, 172882, Note_on_c, 0, 62, 53
1, 172915, Note_off_c, 0, 62, 63
1, 172940, Note_on_c, 0, 71, 84
1, 172945, Note_on_c, 0, 47, 72
1, 172948, Note_on_c, 0, 65, 69
1, 172952, Note_on_c, 0, 35, 61
1, 172974, Note_off_c, 0, 47, 65
1, 172980, Note_off_c, 0, 35, 56
1, 173002, Note_off_c, 0, 65, 55
1, 173015, Note_on_c, 0, 64, 67
1, 173017, Note_off_c, 0, 71, 59
1, 173052, Note_off_c, 0, 64, 63
1, 173068, Note_on_c, 0, 62, 57
1, 173109, Note_off_c, 0, 62, 61
1, 173123, Note_on_c, 0, 52, 75
1, 173131, Note_on_c, 0, 40, 66
1, 173141, Note_on_c, 0, 64, 66
1, 173154, Note_off_c, 0, 52, 66
1, 173164, Note_off_c, 0, 40, 63
1, 173179, Note_off_c, 0, 64, 61
1, 173197, Note_on_c, 0, 62, 63
1, 173228, Note_off_c, 0, 62, 66
1, 173255, Note_on_c, 0, 60, 51
1, 173299, Note_off_c, 0, 60, 54
1, 173319, Note_on_c, 0, 62, 52
1, 173327, Note_on_c, 0, 68, 63
1, 173339, Note_on_c, 0, 40, 37
1, 173340, Note_on_c, 0, 52, 34
1, 173341, Note_off_c, 0, 52, 127
1, 173360, Note_off_c, 0, 62, 63
1, 173377, Note_off_c, 0, 40, 53
1, 173382, Note_off_c, 0, 68, 53
1, 173395, Note_on_c, 0, 60, 42
1, 173422, Note_off_c, 0, 60, 52
1, 173433, Note_on_c, 0, 59, 53
1, 173516, Note_off_c, 0, 59, 51
1, 173546, Note_on_c, 0, 60, 32
1, 173559, Note_on_c, 0, 69, 56
1, 173570, Note_on_c, 0, 33, 48
1, 173605, Control_c, 0, 64, 38
1, 173615, Note_off_c, 0, 33, 63
1, 173620, Control_c, 0, 64, 59
1, 173625, Note_off_c, 0, 69, 62
1, 173633, Note_off_c, 0, 60, 64
1, 173635, Control_c, 0, 64, 67
1, 173650, Control_c, 0, 64, 79
1, 173665, Control_c, 0, 64, 127
1, 173667, Poly_aftertouch_c, 0, 45, 0
1, 173802, Note_on_c, 0, 57, 47
1, 173803, Note_on_c, 0, 48, 45
1, 173803, Note_on_c, 0, 52, 45
1, 173830, Note_off_c, 0, 52, 60
1, 173839, Note_off_c, 0, 48, 64
1, 173852, Note_off_c, 0, 57, 56
1, 173858, Note_on_c, 0, 59, 52
1, 173894, Note_off_c, 0, 59, 64
1, 173919, Note_on_c, 0, 60, 57
1, 173941, Note_off_c, 0, 60, 62
1, 173961, Control_c, 0, 64, 91
1, 173976, Control_c, 0, 64, 69
1, 173988, Note_on_c, 0, 60, 73
1, 173991, Control_c, 0, 64, 38
1, 174006, Control_c, 0, 64, 0
1, 174021, Note_on_c, 0, 59, 65
1, 174021, Note_off_c, 0, 60, 68
1, 174075, Note_off_c, 0, 59, 61
1, 174102, Note_on_c, 0, 57, 54
1, 174140, Note_off_c, 0, 57, 64
1, 174165, Note_on_c, 0, 33, 54
1, 174171, Note_on_c, 0, 67, 67
1, 174173, Note_on_c, 0, 45, 42
1, 174184, Note_on_c, 0, 63, 48
1, 174196, Note_off_c, 0, 33, 59
1, 174205, Note_off_c, 0, 45, 49
1, 174219, Note_off_c, 0, 67, 59
1, 174223, Note_off_c, 0, 63, 60
1, 174237, Note_on_c, 0, 60, 43
1, 174270, Note_off_c, 0, 60, 62
1, 174288, Note_on_c, 0, 57, 36
1, 174339, Note_off_c, 0, 57, 57
1, 174370, Note_on_c, 0, 38, 46
1, 174372, Note_on_c, 0, 50, 41
1, 174373, Note_on_c, 0, 62, 37
1, 174375, Note_on_c, 0, 66, 51
1, 174384, Control_c, 0, 64, 46
1, 174399, Control_c, 0, 64, 63
1, 174402, Note_off_c, 0, 50, 55
1, 174402, Note_off_c, 0, 38, 58
1, 174404, Note_off_c, 0, 62, 57
1, 174414, Control_c, 0, 64, 72
1, 174415, Note_on_c, 0, 60, 39
1, 174429, Control_c, 0, 64, 94
1, 174435, Note_off_c, 0, 66, 55
1, 174444, Control_c, 0, 64, 127
1, 174450, Note_off_c, 0, 60, 65
1, 174487, Note_on_c, 0, 57, 37
1, 174521, Note_off_c, 0, 57, 53
1, 174572, Note_on_c, 0, 50, 52
1, 174578, Note_on_c, 0, 69, 54
1, 174583, Note_on_c, 0, 66, 44
1, 174591, Note_on_c, 0, 54, 44
1, 174592, Control_c, 0, 64, 101
1, 174605, Note_off_c, 0, 50, 65
1, 174607, Control_c, 0, 64, 89
1, 174613, Note_off_c, 0, 66, 61
1, 174620, Note_off_c, 0, 69, 60
1, 174621, Note_off_c, 0, 54, 55
1, 174622, Control_c, 0, 64, 81
1, 174628, Note_on_c, 0, 62, 60
1, 174636, Control_c, 0, 64, 76
1, 174650, Control_c, 0, 64, 72
1, 174662, Note_off_c, 0, 62, 64
1, 174665, Control_c, 0, 64, 68
1, 174680, Control_c, 0, 64, 65
1, 174695, Control_c, 0, 64, 63
1, 174702, Note_on_c, 0, 60, 57
1, 174709, Control_c, 0, 64, 59
1, 174724, Control_c, 0, 64, 52
1, 174739, Note_off_c, 0, 60, 65
1, 174739, Control_c, 0, 64, 41
1, 174754, Control_c, 0, 64, 19
1, 174762, Note_on_c, 0, 54, 61
1, 174764, Note_on_c, 0, 57, 71
1, 174766, Note_on_c, 0, 72, 74
1, 174769, Control_c, 0, 64, 0
1, 174772, Note_on_c, 0, 69, 71
1, 174796, Note_off_c, 0, 57, 67
1, 174798, Note_off_c, 0, 54, 67
1, 174825, Note_off_c, 0, 69, 60
1, 174843, Note_off_c, 0, 72, 62
1, 174942, Note_on_c, 0, 60, 44
1, 174956, Note_on_c, 0, 75, 79
1, 174961, Note_on_c, 0, 57, 70
1, 174973, Note_on_c, 0, 72, 56
1, 174986, Note_off_c, 0, 57, 67
1, 175010, Note_off_c, 0, 60, 65
1, 175019, Note_on_c, 0, 69, 42
1, 175031, Note_off_c, 0, 72, 60
1, 175053, Note_off_c, 0, 69, 58
1, 175059, Note_on_c, 0, 66, 56
1, 175070, Note_off_c, 0, 75, 58
1, 175100, Note_off_c, 0, 66, 62
1, 175160, Note_on_c, 0, 62, 77
1, 175171, Note_on_c, 0, 58, 65
1, 175174, Note_on_c, 0, 74, 82
1, 175187, Note_on_c, 0, 70, 65
1, 175192, Control_c, 0, 64, 17
1, 175207, Control_c, 0, 64, 58
1, 175215, Note_off_c, 0, 70, 67
1, 175216, Note_off_c, 0, 58, 61
1, 175222, Control_c, 0, 64, 68
1, 175222, Note_off_c, 0, 62, 63
1, 175232, Note_off_c, 0, 74, 63
1, 175237, Control_c, 0, 64, 90
1, 175251, Control_c, 0, 64, 127
1, 175371, Note_on_c, 0, 67, 69
1, 175427, Note_on_c, 0, 69, 59
1, 175449, Note_off_c, 0, 67, 58
1, 175475, Note_off_c, 0, 69, 62
1, 175477, Note_on_c, 0, 70, 74
1, 175505, Note_off_c, 0, 70, 65
1, 175517, Control_c, 0, 64, 95
1, 175532, Control_c, 0, 64, 71
1, 175547, Control_c, 0, 64, 47
1, 175552, Note_on_c, 0, 70, 81
1, 175562, Control_c, 0, 64, 0
1, 175603, Note_on_c, 0, 69, 72
1, 175609, Note_off_c, 0, 70, 66
1, 175648, Note_off_c, 0, 69, 62
1, 175671, Note_on_c, 0, 67, 61
1, 175703, Note_off_c, 0, 67, 63
1, 175741, Note_on_c, 0, 43, 57
1, 175743, Note_on_c, 0, 77, 78
1, 175744, Note_on_c, 0, 55, 62
1, 175746, Note_on_c, 0, 73, 69
1, 175765, Note_off_c, 0, 55, 61
1, 175770, Note_off_c, 0, 43, 62
1, 175773, Note_off_c, 0, 73, 67
1, 175824, Note_on_c, 0, 70, 59
1, 175832, Note_off_c, 0, 77, 58
1, 175860, Note_off_c, 0, 70, 64
1, 175870, Note_on_c, 0, 67, 51
1, 175913, Note_off_c, 0, 67, 62
1, 175946, Note_on_c, 0, 60, 83
1, 175958, Note_on_c, 0, 76, 66
1, 175960, Note_on_c, 0, 48, 63
1, 175973, Note_off_c, 0, 60, 66
1, 175982, Note_on_c, 0, 72, 33
1, 175985, Note_off_c, 0, 48, 62
1, 176011, Note_on_c, 0, 70, 54
1, 176013, Note_off_c, 0, 72, 53
1, 176040, Note_off_c, 0, 76, 58
1, 176056, Note_off_c, 0, 70, 61
1, 176068, Note_on_c, 0, 67, 63
1, 176116, Note_off_c, 0, 67, 58
1, 176149, Note_on_c, 0, 55, 84
1, 176155, Note_on_c, 0, 43, 76
1, 176159, Note_on_c, 0, 72, 73
1, 176165, Note_on_c, 0, 70, 69
1, 176176, Note_off_c, 0, 55, 67
1, 176186, Note_off_c, 0, 43, 64
1, 176223, Note_on_c, 0, 67, 59
1, 176229, Note_off_c, 0, 72, 64
1, 176231, Note_off_c, 0, 70, 61
1, 176265, Note_off_c, 0, 67, 64
1, 176284, Note_on_c, 0, 64, 58
1, 176320, Note_off_c, 0, 64, 63
1, 176360, Note_on_c, 0, 52, 62
1, 176360, Note_on_c, 0, 70, 67
1, 176364, Note_on_c, 0, 40, 62
1, 176381, Note_off_c, 0, 52, 64
1, 176396, Note_off_c, 0, 40, 64
1, 176418, Note_on_c, 0, 67, 3
1, 176421, Note_off_c, 0, 70, 64
1, 176426, Note_on_c, 0, 64, 53
1, 176459, Note_off_c, 0, 67, 27
1, 176469, Note_off_c, 0, 64, 64
1, 176483, Note_on_c, 0, 60, 61
1, 176532, Note_off_c, 0, 60, 54
1, 176568, Note_on_c, 0, 67, 53
1, 176571, Note_on_c, 0, 34, 50
1, 176583, Note_on_c, 0, 46, 32
1, 176608, Note_off_c, 0, 34, 57
1, 176619, Note_off_c, 0, 46, 48
1, 176630, Note_on_c, 0, 64, 36
1, 176650, Note_off_c, 0, 67, 50
1, 176665, Note_off_c, 0, 64, 53
1, 176680, Note_on_c, 0, 60, 45
1, 176741, Note_off_c, 0, 60, 53
1, 176784, Note_on_c, 0, 65, 48
1, 176801, Note_on_c, 0, 33, 32
1, 176808, Control_c, 0, 64, 15
1, 176810, Note_on_c, 0, 45, 19
1, 176823, Control_c, 0, 64, 52
1, 176835, Note_off_c, 0, 65, 60
1, 176838, Control_c, 0, 64, 61
1, 176852, Control_c, 0, 64, 66
1, 176864, Note_off_c, 0, 33, 56
1, 176867, Control_c, 0, 64, 73
1, 176871, Note_off_c, 0, 45, 45
1, 176882, Control_c, 0, 64, 85
1, 176897, Control_c, 0, 64, 113
1, 176912, Control_c, 0, 64, 127
1, 176999, Note_on_c, 0, 58, 56
1, 177052, Note_on_c, 0, 60, 59
1, 177053, Note_off_c, 0, 58, 53
1, 177094, Note_off_c, 0, 60, 65
1, 177104, Control_c, 0, 64, 91
1, 177105, Note_on_c, 0, 62, 64
1, 177119, Control_c, 0, 64, 66
1, 177133, Note_off_c, 0, 62, 66
1, 177134, Control_c, 0, 64, 0
1, 177174, Note_on_c, 0, 62, 94
1, 177244, Note_off_c, 0, 62, 64
1, 177252, Note_on_c, 0, 60, 77
1, 177305, Note_off_c, 0, 60, 63
1, 177311, Note_on_c, 0, 58, 79
1, 177358, Note_on_c, 0, 41, 77
1, 177359, Note_off_c, 0, 58, 58
1, 177370, Note_on_c, 0, 29, 51
1, 177374, Note_on_c, 0, 65, 84
1, 177385, Note_off_c, 0, 41, 66
1, 177397, Note_on_c, 0, 31, 27
1, 177408, Note_off_c, 0, 29, 50
1, 177442, Note_off_c, 0, 31, 44
1, 177446, Note_on_c, 0, 62, 52
1, 177484, Note_off_c, 0, 65, 56
1, 177488, Note_off_c, 0, 62, 63
1, 177490, Note_on_c, 0, 58, 69
1, 177549, Note_off_c, 0, 58, 63
1, 177568, Note_on_c, 0, 53, 72
1, 177574, Note_on_c, 0, 41, 62
1, 177577, Note_on_c, 0, 64, 80
1, 177580, Note_on_c, 0, 61, 77
1, 177586, Control_c, 0, 64, 44
1, 177601, Control_c, 0, 64, 63
1, 177616, Control_c, 0, 64, 74
1, 177620, Note_off_c, 0, 41, 65
1, 177623, Note_off_c, 0, 61, 58
1, 177624, Note_off_c, 0, 53, 63
1, 177631, Control_c, 0, 64, 127
1, 177641, Note_off_c, 0, 64, 61
1, 177765, Control_c, 0, 64, 107
1, 177776, Note_on_c, 0, 57, 64
1, 177779, Control_c, 0, 64, 88
1, 177794, Control_c, 0, 64, 78
1, 177809, Control_c, 0, 64, 73
1, 177824, Control_c, 0, 64, 68
1, 177837, Note_on_c, 0, 58, 53
1, 177839, Control_c, 0, 64, 62
1, 177854, Note_off_c, 0, 57, 58
1, 177854, Control_c, 0, 64, 50
1, 177869, Control_c, 0, 64, 11
1, 177877, Note_on_c, 0, 60, 67
1, 177878, Note_off_c, 0, 58, 65
1, 177884, Control_c, 0, 64, 0
1, 177903, Note_off_c, 0, 60, 67
1, 177954, Note_on_c, 0, 60, 80
1, 178002, Note_on_c, 0, 58, 67
1, 178004, Note_off_c, 0, 60, 64
1, 178061, Note_off_c, 0, 58, 62
1, 178101, Note_on_c, 0, 57, 34
1, 178141, Note_off_c, 0, 57, 51
1, 178146, Note_on_c, 0, 63, 61
1, 178149, Note_on_c, 0, 29, 46
1, 178167, Note_on_c, 0, 41, 19
1, 178188, Note_off_c, 0, 29, 45
1, 178201, Note_on_c, 0, 60, 46
1, 178209, Note_off_c, 0, 63, 61
1, 178216, Note_off_c, 0, 41, 36
1, 178243, Note_off_c, 0, 60, 63
1, 178263, Note_on_c, 0, 57, 48
1, 178330, Note_off_c, 0, 57, 52
1, 178352, Note_on_c, 0, 41, 27
1, 178373, Note_on_c, 0, 53, 41
1, 178381, Control_c, 0, 64, 47
1, 178385, Note_on_c, 0, 62, 45
1, 178394, Note_on_c, 0, 59, 33
1, 178394, Control_c, 0, 64, 62
1, 178408, Control_c, 0, 64, 68
1, 178415, Note_off_c, 0, 53, 64
1, 178417, Note_off_c, 0, 41, 61
1, 178423, Control_c, 0, 64, 78
1, 178427, Note_off_c, 0, 59, 52
1, 178429, Note_off_c, 0, 62, 61
1, 178438, Control_c, 0, 64, 97
1, 178453, Control_c, 0, 64, 127
1, 178557, Control_c, 0, 64, 104
1, 178572, Control_c, 0, 64, 90
1, 178587, Control_c, 0, 64, 81
1, 178590, Note_on_c, 0, 56, 46
1, 178601, Control_c, 0, 64, 76
1, 178616, Control_c, 0, 64, 72
1, 178629, Note_off_c, 0, 56, 50
1, 178631, Control_c, 0, 64, 69
1, 178646, Control_c, 0, 64, 66
1, 178647, Note_on_c, 0, 57, 49
1, 178661, Control_c, 0, 64, 64
1, 178675, Control_c, 0, 64, 61
1, 178685, Note_off_c, 0, 57, 65
1, 178690, Control_c, 0, 64, 58
1, 178698, Note_on_c, 0, 59, 56
1, 178705, Control_c, 0, 64, 52
1, 178720, Control_c, 0, 64, 45
1, 178735, Note_off_c, 0, 59, 60
1, 178735, Control_c, 0, 64, 30
1, 178749, Control_c, 0, 64, 0
1, 178800, Poly_aftertouch_c, 0, 59, 127
1, 178819, Poly_aftertouch_c, 0, 59, 0
1, 178851, Note_on_c, 0, 57, 60
1, 178897, Note_off_c, 0, 57, 60
1, 178914, Note_on_c, 0, 56, 61
1, 178946, Note_on_c, 0, 52, 46
1, 178948, Note_on_c, 0, 40, 51
1, 178962, Note_off_c, 0, 56, 62
1, 178969, Note_on_c, 0, 62, 69
1, 178974, Note_off_c, 0, 52, 55
1, 178978, Note_off_c, 0, 40, 61
1, 179031, Note_on_c, 0, 59, 58
1, 179053, Note_off_c, 0, 62, 59
1, 179074, Note_off_c, 0, 59, 64
1, 179093, Note_on_c, 0, 56, 53
1, 179135, Note_off_c, 0, 56, 62
1, 179171, Note_on_c, 0, 33, 48
1, 179172, Note_on_c, 0, 62, 68
1, 179174, Note_on_c, 0, 45, 43
1, 179175, Note_on_c, 0, 55, 43
1, 179186, Note_on_c, 0, 58, 56
1, 179187, Control_c, 0, 64, 24
1, 179202, Control_c, 0, 64, 57
1, 179213, Note_off_c, 0, 45, 62
1, 179213, Note_off_c, 0, 55, 58
1, 179216, Control_c, 0, 64, 68
1, 179219, Note_off_c, 0, 33, 62
1, 179224, Note_off_c, 0, 58, 65
1, 179231, Control_c, 0, 64, 86
1, 179242, Note_off_c, 0, 62, 64
1, 179246, Control_c, 0, 64, 127
1, 179321, Control_c, 0, 64, 107
1, 179335, Control_c, 0, 64, 93
1, 179350, Control_c, 0, 64, 85
1, 179365, Control_c, 0, 64, 78
1, 179380, Control_c, 0, 64, 72
1, 179395, Control_c, 0, 64, 67
1, 179400, Note_on_c, 0, 55, 52
1, 179410, Control_c, 0, 64, 64
1, 179424, Control_c, 0, 64, 61
1, 179439, Control_c, 0, 64, 58
1, 179448, Note_on_c, 0, 57, 59
1, 179454, Control_c, 0, 64, 54
1, 179455, Note_off_c, 0, 55, 57
1, 179469, Control_c, 0, 64, 47
1, 179484, Control_c, 0, 64, 37
1, 179488, Note_off_c, 0, 57, 66
1, 179498, Control_c, 0, 64, 19
1, 179510, Note_on_c, 0, 58, 49
1, 179513, Control_c, 0, 64, 0
1, 179536, Note_off_c, 0, 58, 60
1, 179577, Note_on_c, 0, 58, 74
1, 179639, Note_off_c, 0, 58, 65
1, 179659, Note_on_c, 0, 57, 60
1, 179697, Note_off_c, 0, 57, 64
1, 179716, Note_on_c, 0, 55, 44
1, 179759, Note_off_c, 0, 55, 46
1, 179780, Note_on_c, 0, 33, 43
1, 179780, Note_on_c, 0, 61, 61
1, 179782, Note_on_c, 0, 45, 37
1, 179815, Note_off_c, 0, 45, 46
1, 179818, Note_off_c, 0, 33, 49
1, 179843, Note_off_c, 0, 61, 58
1, 179848, Note_on_c, 0, 57, 43
1, 179881, Note_off_c, 0, 57, 64
1, 179898, Note_on_c, 0, 55, 42
1, 179952, Note_off_c, 0, 55, 60
1, 180033, Note_on_c, 0, 53, 42
1, 180037, Note_on_c, 0, 62, 49
1, 180040, Control_c, 0, 64, 40
1, 180040, Note_on_c, 0, 38, 36
1, 180048, Poly_aftertouch_c, 0, 57, 127
1, 180054, Control_c, 0, 64, 57
1, 180068, Note_off_c, 0, 53, 64
1, 180069, Control_c, 0, 64, 63
1, 180072, Poly_aftertouch_c, 0, 57, 0
1, 180078, Note_off_c, 0, 38, 46
1, 180084, Control_c, 0, 64, 67
1, 180086, Note_off_c, 0, 62, 63
1, 180099, Control_c, 0, 64, 72
1, 180114, Control_c, 0, 64, 76
1, 180128, Control_c, 0, 64, 79
1, 180173, Control_c, 0, 64, 79
1, 180203, Control_c, 0, 64, 78
1, 180218, Control_c, 0, 64, 77
1, 180233, Control_c, 0, 64, 73
1, 180247, Control_c, 0, 64, 65
1, 180262, Control_c, 0, 64, 49
1, 180267, Note_on_c, 0, 53, 49
1, 180277, Control_c, 0, 64, 35
1, 180282, Note_on_c, 0, 62, 40
1, 180299, Control_c, 0, 64, 42
1, 180310, Note_off_c, 0, 53, 64
1, 180314, Control_c, 0, 64, 53
1, 180328, Control_c, 0, 64, 60
1, 180340, Note_off_c, 0, 62, 58
1, 180342, Note_on_c, 0, 55, 52
1, 180343, Control_c, 0, 64, 64
1, 180348, Note_on_c, 0, 64, 49
1, 180358, Control_c, 0, 64, 68
1, 180372, Note_off_c, 0, 55, 63
1, 180373, Control_c, 0, 64, 73
1, 180384, Note_off_c, 0, 64, 65
1, 180388, Control_c, 0, 64, 74
1, 180388, Note_on_c, 0, 57, 62
1, 180403, Note_on_c, 0, 65, 54
1, 180403, Control_c, 0, 64, 69
1, 180418, Control_c, 0, 64, 62
1, 180421, Note_off_c, 0, 57, 65
1, 180432, Control_c, 0, 64, 49
1, 180447, Control_c, 0, 64, 48
1, 180462, Control_c, 0, 64, 55
1, 180472, Poly_aftertouch_c, 0, 57, 127
1, 180477, Control_c, 0, 64, 61
1, 180492, Control_c, 0, 64, 64
1, 180503, Poly_aftertouch_c, 0, 57, 0
1, 180506, Note_off_c, 0, 65, 56
1, 180507, Control_c, 0, 64, 68
1, 180515, Note_on_c, 0, 64, 51
1, 180521, Control_c, 0, 64, 72
1, 180528, Note_on_c, 0, 55, 62
1, 180536, Control_c, 0, 64, 80
1, 180551, Control_c, 0, 64, 87
1, 180553, Note_off_c, 0, 64, 64
1, 180565, Control_c, 0, 64, 83
1, 180578, Note_off_c, 0, 55, 61
1, 180580, Note_on_c, 0, 62, 51
1, 180580, Control_c, 0, 64, 73
1, 180595, Control_c, 0, 64, 62
1, 180610, Control_c, 0, 64, 45
1, 180615, Note_off_c, 0, 62, 60
1, 180625, Control_c, 0, 64, 41
1, 180628, Note_on_c, 0, 53, 17
1, 180641, Control_c, 0, 64, 52
1, 180644, Note_on_c, 0, 57, 57
1, 180656, Control_c, 0, 64, 59
1, 180663, Note_off_c, 0, 53, 42
1, 180665, Note_on_c, 0, 69, 55
1, 180670, Control_c, 0, 64, 63
1, 180685, Control_c, 0, 64, 65
1, 180689, Note_on_c, 0, 65, 7
1, 180692, Note_off_c, 0, 57, 63
1, 180700, Control_c, 0, 64, 68
1, 180707, Note_off_c, 0, 69, 62
1, 180713, Note_on_c, 0, 64, 46
1, 180715, Control_c, 0, 64, 72
1, 180730, Control_c, 0, 64, 79
1, 180731, Note_on_c, 0, 53, 40
1, 180737, Note_off_c, 0, 65, 35
1, 180744, Control_c, 0, 64, 83
1, 180752, Note_off_c, 0, 64, 62
1, 180769, Note_on_c, 0, 62, 39
1, 180772, Note_off_c, 0, 53, 63
1, 180774, Control_c, 0, 64, 80
1, 180788, Control_c, 0, 64, 71
1, 180803, Control_c, 0, 64, 60
1, 180808, Note_off_c, 0, 62, 57
1, 180818, Control_c, 0, 64, 37
1, 180833, Control_c, 0, 64, 39
1, 180836, Note_on_c, 0, 50, 9
1, 180848, Control_c, 0, 64, 48
1, 180861, Note_on_c, 0, 68, 56
1, 180863, Note_off_c, 0, 50, 45
1, 180863, Control_c, 0, 64, 56
1, 180867, Note_on_c, 0, 59, 44
1, 180878, Control_c, 0, 64, 61
1, 180893, Control_c, 0, 64, 64
1, 180907, Note_on_c, 0, 64, 37
1, 180908, Control_c, 0, 64, 68
1, 180911, Note_off_c, 0, 59, 61
1, 180923, Poly_aftertouch_c, 0, 65, 0
1, 180923, Control_c, 0, 64, 73
1, 180928, Note_off_c, 0, 68, 56
1, 180934, Note_on_c, 0, 53, 47
1, 180937, Control_c, 0, 64, 82
1, 180950, Note_off_c, 0, 64, 61
1, 180952, Control_c, 0, 64, 99
1, 180967, Control_c, 0, 64, 127
1, 180979, Note_on_c, 0, 62, 37
1, 180981, Note_off_c, 0, 53, 60
1, 180999, Note_on_c, 0, 50, 45
1, 181011, Control_c, 0, 64, 88
1, 181015, Note_off_c, 0, 62, 51
1, 181026, Control_c, 0, 64, 71
1, 181049, Control_c, 0, 64, 59
1, 181054, Note_on_c, 0, 71, 70
1, 181064, Note_off_c, 0, 50, 62
1, 181064, Control_c, 0, 64, 51
1, 181070, Note_on_c, 0, 68, 52
1, 181078, Control_c, 0, 64, 57
1, 181085, Note_on_c, 0, 59, 48
1, 181093, Control_c, 0, 64, 62
1, 181108, Control_c, 0, 64, 65
1, 181112, Note_off_c, 0, 68, 59
1, 181123, Note_off_c, 0, 71, 61
1, 181123, Control_c, 0, 64, 69
1, 181130, Note_on_c, 0, 65, 50
1, 181138, Note_off_c, 0, 59, 60
1, 181138, Control_c, 0, 64, 74
1, 181152, Control_c, 0, 64, 83
1, 181164, Note_on_c, 0, 53, 53
1, 181165, Note_off_c, 0, 65, 65
1, 181167, Control_c, 0, 64, 100
1, 181180, Note_on_c, 0, 62, 60
1, 181182, Control_c, 0, 64, 127
1, 181206, Note_off_c, 0, 53, 63
1, 181211, Control_c, 0, 64, 104
1, 181213, Note_off_c, 0, 62, 64
1, 181223, Note_on_c, 0, 50, 57
1, 181226, Control_c, 0, 64, 79
1, 181241, Control_c, 0, 64, 64
1, 181251, Note_on_c, 0, 74, 84
1, 181256, Control_c, 0, 64, 49
1, 181260, Note_on_c, 0, 71, 77
1, 181270, Control_c, 0, 64, 51
1, 181274, Note_off_c, 0, 50, 64
1, 181283, Note_on_c, 0, 59, 54
1, 181285, Control_c, 0, 64, 60
1, 181300, Control_c, 0, 64, 65
1, 181315, Control_c, 0, 64, 69
1, 181321, Note_off_c, 0, 71, 63
1, 181329, Note_on_c, 0, 68, 66
1, 181330, Control_c, 0, 64, 76
1, 181331, Note_off_c, 0, 74, 61
1, 181345, Control_c, 0, 64, 87
1, 181352, Note_off_c, 0, 59, 61
1, 181360, Control_c, 0, 64, 93
1, 181362, Note_off_c, 0, 68, 63
1, 181363, Note_on_c, 0, 53, 62
1, 181369, Note_on_c, 0, 65, 69
1, 181374, Control_c, 0, 64, 86
1, 181389, Control_c, 0, 64, 70
1, 181401, Note_off_c, 0, 65, 65
1, 181404, Control_c, 0, 64, 59
1, 181419, Control_c, 0, 64, 47
1, 181428, Note_on_c, 0, 50, 48
1, 181434, Control_c, 0, 64, 52
1, 181449, Control_c, 0, 64, 59
1, 181450, Note_on_c, 0, 65, 68
1, 181453, Note_on_c, 0, 68, 82
1, 181464, Control_c, 0, 64, 64
1, 181473, Note_on_c, 0, 59, 66
1, 181479, Control_c, 0, 64, 70
1, 181490, Note_on_c, 0, 66, 23
1, 181494, Control_c, 0, 64, 77
1, 181509, Control_c, 0, 64, 90
1, 181523, Note_off_c, 0, 65, 56
1, 181523, Control_c, 0, 64, 117
1, 181529, Note_off_c, 0, 59, 55
1, 181529, Note_off_c, 0, 66, 52
1, 181532, Note_on_c, 0, 64, 70
1, 181538, Control_c, 0, 64, 127
1, 181540, Note_off_c, 0, 50, 62
1, 181545, Note_off_c, 0, 68, 61
1, 181559, Note_off_c, 0, 53, 19
1, 181568, Control_c, 0, 64, 115
1, 181581, Note_off_c, 0, 64, 59
1, 181583, Note_on_c, 0, 62, 61
1, 181583, Control_c, 0, 64, 78
1, 181598, Control_c, 0, 64, 58
1, 181612, Control_c, 0, 64, 0
1, 181622, Note_off_c, 0, 62, 61
1, 181651, Note_on_c, 0, 49, 57
1, 181653, Note_on_c, 0, 69, 83
1, 181655, Note_on_c, 0, 64, 74
1, 181657, Control_c, 0, 64, 34
1, 181664, Note_on_c, 0, 52, 41
1, 181665, Note_on_c, 0, 57, 48
1, 181672, Control_c, 0, 64, 56
1, 181679, Note_off_c, 0, 49, 66
1, 181679, Note_off_c, 0, 64, 68
1, 181686, Control_c, 0, 64, 65
1, 181690, Note_off_c, 0, 57, 57
1, 181692, Note_off_c, 0, 52, 51
1, 181692, Note_off_c, 0, 69, 65
1, 181701, Control_c, 0, 64, 71
1, 181716, Control_c, 0, 64, 81
1, 181731, Control_c, 0, 64, 98
1, 181746, Control_c, 0, 64, 127
1, 181760, Control_c, 0, 64, 120
1, 181775, Control_c, 0, 64, 111
1, 181798, Control_c, 0, 64, 108
1, 181857, Control_c, 0, 64, 107
1, 181872, Control_c, 0, 64, 106
1, 181881, Note_on_c, 0, 67, 65
1, 181887, Control_c, 0, 64, 104
1, 181891, Note_on_c, 0, 58, 63
1, 181901, Control_c, 0, 64, 101
1, 181916, Control_c, 0, 64, 98
1, 181931, Control_c, 0, 64, 96
1, 181946, Control_c, 0, 64, 95
1, 181949, Note_on_c, 0, 60, 69
1, 181950, Note_on_c, 0, 69, 62
1, 181950, Note_off_c, 0, 67, 58
1, 181952, Note_off_c, 0, 58, 58
1, 181989, Note_off_c, 0, 60, 63
1, 181990, Control_c, 0, 64, 96
1, 181997, Note_on_c, 0, 70, 77
1, 182000, Note_off_c, 0, 69, 63
1, 182005, Note_on_c, 0, 62, 68
1, 182005, Control_c, 0, 64, 89
1, 182019, Control_c, 0, 64, 72
1, 182023, Note_off_c, 0, 70, 68
1, 182031, Note_off_c, 0, 62, 62
1, 182034, Control_c, 0, 64, 46
1, 182049, Control_c, 0, 64, 0
1, 182079, Note_on_c, 0, 62, 87
1, 182079, Note_on_c, 0, 70, 88
1, 182079, Control_c, 0, 64, 27
1, 182093, Control_c, 0, 64, 49
1, 182108, Control_c, 0, 64, 58
1, 182123, Control_c, 0, 64, 64
1, 182138, Control_c, 0, 64, 68
1, 182139, Note_on_c, 0, 69, 67
1, 182148, Note_off_c, 0, 62, 61
1, 182152, Note_on_c, 0, 60, 74
1, 182152, Control_c, 0, 64, 74
1, 182155, Note_off_c, 0, 70, 63
1, 182167, Control_c, 0, 64, 85
1, 182182, Control_c, 0, 64, 101
1, 182197, Note_off_c, 0, 69, 63
1, 182197, Control_c, 0, 64, 127
1, 182200, Note_on_c, 0, 67, 63
1, 182217, Note_off_c, 0, 60, 63
1, 182227, Control_c, 0, 64, 92
1, 182236, Note_off_c, 0, 67, 61
1, 182242, Note_on_c, 0, 58, 54
1, 182242, Control_c, 0, 64, 71
1, 182257, Control_c, 0, 64, 53
1, 182272, Control_c, 0, 64, 26
1, 182284, Note_off_c, 0, 58, 62
1, 182287, Control_c, 0, 64, 39
1, 182289, Note_on_c, 0, 62, 59
1, 182294, Note_on_c, 0, 74, 69
1, 182302, Control_c, 0, 64, 53
1, 182306, Note_on_c, 0, 70, 48
1, 182316, Control_c, 0, 64, 60
1, 182331, Control_c, 0, 64, 64
1, 182336, Note_off_c, 0, 62, 62
1, 182343, Note_off_c, 0, 70, 61
1, 182346, Note_on_c, 0, 69, 58
1, 182346, Control_c, 0, 64, 67
1, 182361, Control_c, 0, 64, 71
1, 182369, Note_on_c, 0, 58, 62
1, 182370, Note_off_c, 0, 74, 60
1, 182376, Control_c, 0, 64, 78
1, 182391, Control_c, 0, 64, 89
1, 182404, Note_off_c, 0, 69, 57
1, 182406, Note_off_c, 0, 58, 62
1, 182406, Control_c, 0, 64, 104
1, 182421, Control_c, 0, 64, 108
1, 182434, Note_on_c, 0, 67, 41
1, 182436, Control_c, 0, 64, 106
1, 182448, Note_on_c, 0, 55, 52
1, 182450, Control_c, 0, 64, 99
1, 182462, Note_off_c, 0, 67, 55
1, 182465, Control_c, 0, 64, 86
1, 182480, Control_c, 0, 64, 71
1, 182495, Control_c, 0, 64, 59
1, 182498, Note_on_c, 0, 73, 71
1, 182501, Note_off_c, 0, 55, 61
1, 182509, Control_c, 0, 64, 51
1, 182511, Note_on_c, 0, 64, 52
1, 182518, Note_on_c, 0, 70, 51
1, 182524, Control_c, 0, 64, 53
1, 182546, Control_c, 0, 64, 57
1, 182561, Control_c, 0, 64, 61
1, 182568, Note_off_c, 0, 70, 60
1, 182570, Note_on_c, 0, 69, 57
1, 182576, Control_c, 0, 64, 64
1, 182583, Note_off_c, 0, 64, 60
1, 182591, Control_c, 0, 64, 68
1, 182597, Note_on_c, 0, 58, 57
1, 182601, Note_off_c, 0, 73, 59
1, 182606, Control_c, 0, 64, 74
1, 182620, Control_c, 0, 64, 82
1, 182626, Note_off_c, 0, 69, 62
1, 182635, Control_c, 0, 64, 96
1, 182643, Note_off_c, 0, 58, 61
1, 182646, Note_on_c, 0, 67, 54
1, 182650, Control_c, 0, 64, 127
1, 182661, Note_on_c, 0, 55, 54
1, 182685, Note_off_c, 0, 67, 64
1, 182695, Control_c, 0, 64, 116
1, 182709, Note_on_c, 0, 76, 88
1, 182710, Control_c, 0, 64, 83
1, 182718, Note_on_c, 0, 73, 79
1, 182719, Note_off_c, 0, 55, 60
1, 182724, Control_c, 0, 64, 66
1, 182725, Note_on_c, 0, 64, 63
1, 182739, Control_c, 0, 64, 52
1, 182754, Control_c, 0, 64, 50
1, 182768, Control_c, 0, 64, 58
1, 182783, Control_c, 0, 64, 64
1, 182790, Note_on_c, 0, 70, 66
1, 182796, Note_on_c, 0, 58, 68
1, 182798, Control_c, 0, 64, 70
1, 182802, Note_off_c, 0, 73, 60
1, 182804, Note_off_c, 0, 64, 61
1, 182813, Control_c, 0, 64, 79
1, 182817, Note_off_c, 0, 76, 61
1, 182828, Control_c, 0, 64, 99
1, 182832, Note_on_c, 0, 67, 71
1, 182837, Note_off_c, 0, 70, 62
1, 182842, Control_c, 0, 64, 127
1, 182862, Note_off_c, 0, 58, 62
1, 182864, Note_on_c, 0, 55, 60
1, 182885, Note_off_c, 0, 67, 60
1, 182902, Control_c, 0, 64, 85
1, 182914, Note_on_c, 0, 79, 89
1, 182916, Control_c, 0, 64, 65
1, 182925, Note_on_c, 0, 76, 81
1, 182927, Note_on_c, 0, 64, 76
1, 182931, Control_c, 0, 64, 46
1, 182935, Note_off_c, 0, 55, 61
1, 182946, Control_c, 0, 64, 41
1, 182960, Control_c, 0, 64, 53
1, 182975, Control_c, 0, 64, 60
1, 182988, Note_on_c, 0, 73, 76
1, 182990, Control_c, 0, 64, 64
1, 182993, Note_off_c, 0, 76, 63
1, 183000, Note_off_c, 0, 79, 65
1, 183005, Control_c, 0, 64, 70
1, 183011, Note_on_c, 0, 58, 66
1, 183020, Control_c, 0, 64, 81
1, 183032, Note_off_c, 0, 64, 60
1, 183036, Control_c, 0, 64, 109
1, 183040, Note_off_c, 0, 73, 64
1, 183047, Note_on_c, 0, 70, 80
1, 183051, Control_c, 0, 64, 127
1, 183065, Note_on_c, 0, 55, 58
1, 183080, Control_c, 0, 64, 81
1, 183092, Note_off_c, 0, 70, 60
1, 183095, Control_c, 0, 64, 63
1, 183103, Note_off_c, 0, 58, 53
1, 183110, Control_c, 0, 64, 37
1, 183125, Note_on_c, 0, 73, 91
1, 183125, Control_c, 0, 64, 36
1, 183129, Note_on_c, 0, 70, 62
1, 183133, Note_on_c, 0, 64, 79
1, 183139, Control_c, 0, 64, 53
1, 183154, Control_c, 0, 64, 64
1, 183169, Control_c, 0, 64, 71
1, 183184, Control_c, 0, 64, 85
1, 183199, Control_c, 0, 64, 127
1, 183211, Note_on_c, 0, 69, 70
1, 183217, Note_off_c, 0, 64, 60
1, 183219, Note_off_c, 0, 70, 61
1, 183244, Note_off_c, 0, 73, 64
1, 183247, Poly_aftertouch_c, 0, 58, 127
1, 183253, Note_off_c, 0, 55, 58
1, 183291, Poly_aftertouch_c, 0, 58, 0
1, 183291, Note_off_c, 0, 69, 63
1, 183292, Note_on_c, 0, 67, 60
1, 183295, Control_c, 0, 64, 80
1, 183301, Note_on_c, 0, 57, 36
1, 183310, Control_c, 0, 64, 57
1, 183325, Note_off_c, 0, 67, 63
1, 183325, Control_c, 0, 64, 0
1, 183339, Note_on_c, 0, 53, 54
1, 183342, Note_on_c, 0, 62, 64
1, 183348, Note_on_c, 0, 74, 92
1, 183353, Note_on_c, 0, 69, 76
1, 183369, Control_c, 0, 64, 46
1, 183384, Control_c, 0, 64, 61
1, 183385, Note_off_c, 0, 69, 67
1, 183398, Note_off_c, 0, 62, 63
1, 183398, Control_c, 0, 64, 67
1, 183402, Note_off_c, 0, 57, 65
1, 183404, Note_off_c, 0, 53, 64
1, 183410, Note_off_c, 0, 74, 64
1, 183413, Control_c, 0, 64, 75
1, 183428, Control_c, 0, 64, 89
1, 183443, Control_c, 0, 64, 127
1, 183580, Note_on_c, 0, 62, 65
1, 183582, Note_on_c, 0, 53, 56
1, 183621, Control_c, 0, 64, 119
1, 183631, Note_off_c, 0, 53, 62
1, 183636, Control_c, 0, 64, 117
1, 183646, Note_on_c, 0, 55, 67
1, 183649, Note_off_c, 0, 62, 57
1, 183655, Note_on_c, 0, 64, 59
1, 183673, Note_off_c, 0, 55, 66
1, 183695, Control_c, 0, 64, 116
1, 183702, Note_on_c, 0, 57, 79
1, 183704, Note_off_c, 0, 64, 62
1, 183707, Note_on_c, 0, 65, 69
1, 183710, Control_c, 0, 64, 94
1, 183725, Control_c, 0, 64, 73
1, 183727, Note_off_c, 0, 57, 68
1, 183734, Note_off_c, 0, 65, 67
1, 183739, Control_c, 0, 64, 55
1, 183754, Control_c, 0, 64, 0
1, 183770, Note_on_c, 0, 57, 85
1, 183776, Note_on_c, 0, 65, 94
1, 183783, Control_c, 0, 64, 27
1, 183798, Control_c, 0, 64, 51
1, 183813, Control_c, 0, 64, 60
1, 183828, Control_c, 0, 64, 65
1, 183844, Control_c, 0, 64, 70
1, 183845, Note_on_c, 0, 64, 82
1, 183851, Note_on_c, 0, 55, 77
1, 183856, Note_off_c, 0, 57, 62
1, 183856, Note_off_c, 0, 65, 60
1, 183859, Control_c, 0, 64, 80
1, 183874, Control_c, 0, 64, 101
1, 183888, Control_c, 0, 64, 127
1, 183902, Note_off_c, 0, 64, 65
1, 183904, Note_on_c, 0, 62, 72
1, 183917, Note_off_c, 0, 55, 63
1, 183924, Note_on_c, 0, 53, 61
1, 183941, Note_off_c, 0, 62, 60
1, 183948, Control_c, 0, 64, 94
1, 183962, Control_c, 0, 64, 69
1, 183967, Note_off_c, 0, 53, 61
1, 183968, Note_on_c, 0, 57, 79
1, 183976, Note_on_c, 0, 69, 89
1, 183977, Control_c, 0, 64, 40
1, 183988, Note_on_c, 0, 65, 80
1, 183992, Control_c, 0, 64, 18
1, 184007, Control_c, 0, 64, 39
1, 184021, Control_c, 0, 64, 54
1, 184044, Control_c, 0, 64, 61
1, 184059, Control_c, 0, 64, 65
1, 184065, Note_off_c, 0, 57, 63
1, 184070, Note_on_c, 0, 53, 59
1, 184074, Control_c, 0, 64, 69
1, 184077, Note_on_c, 0, 64, 53
1, 184088, Control_c, 0, 64, 80
1, 184095, Note_off_c, 0, 65, 54
1, 184096, Note_off_c, 0, 69, 60
1, 184103, Control_c, 0, 64, 102
1, 184110, Note_off_c, 0, 53, 63
1, 184111, Note_on_c, 0, 50, 53
1, 184113, Note_off_c, 0, 64, 63
1, 184117, Note_on_c, 0, 62, 66
1, 184118, Control_c, 0, 64, 127
1, 184180, Note_off_c, 0, 62, 60
1, 184192, Control_c, 0, 64, 99
1, 184207, Control_c, 0, 64, 69
1, 184211, Note_on_c, 0, 53, 55
1, 184211, Note_on_c, 0, 70, 94
1, 184221, Note_on_c, 0, 65, 65
1, 184221, Control_c, 0, 64, 36
1, 184224, Note_on_c, 0, 58, 77
1, 184236, Control_c, 0, 64, 0
1, 184250, Note_off_c, 0, 50, 63
1, 184260, Note_off_c, 0, 65, 64
1, 184266, Control_c, 0, 64, 49
1, 184271, Note_off_c, 0, 53, 62
1, 184281, Control_c, 0, 64, 61
1, 184295, Note_off_c, 0, 58, 64
1, 184296, Control_c, 0, 64, 67
1, 184302, Note_off_c, 0, 70, 64
1, 184311, Control_c, 0, 64, 76
1, 184326, Control_c, 0, 64, 94
1, 184340, Control_c, 0, 64, 127
1, 184458, Note_on_c, 0, 53, 57
1, 184460, Note_on_c, 0, 62, 63
1, 184508, Note_off_c, 0, 53, 64
1, 184524, Note_on_c, 0, 55, 66
1, 184528, Note_on_c, 0, 64, 59
1, 184531, Note_off_c, 0, 62, 59
1, 184555, Note_off_c, 0, 55, 65
1, 184572, Note_off_c, 0, 64, 62
1, 184573, Note_on_c, 0, 65, 71
1, 184582, Note_on_c, 0, 57, 67
1, 184605, Note_off_c, 0, 65, 66
1, 184606, Control_c, 0, 64, 90
1, 184610, Note_off_c, 0, 57, 65
1, 184621, Control_c, 0, 64, 68
1, 184637, Control_c, 0, 64, 30
1, 184652, Control_c, 0, 64, 0
1, 184655, Note_on_c, 0, 57, 82
1, 184657, Note_on_c, 0, 65, 79
1, 184667, Control_c, 0, 64, 35
1, 184682, Control_c, 0, 64, 52
1, 184697, Control_c, 0, 64, 59
1, 184711, Control_c, 0, 64, 64
1, 184726, Note_off_c, 0, 65, 63
1, 184726, Control_c, 0, 64, 69
1, 184731, Note_on_c, 0, 64, 63
1, 184741, Control_c, 0, 64, 77
1, 184754, Note_off_c, 0, 57, 63
1, 184756, Control_c, 0, 64, 97
1, 184759, Note_on_c, 0, 55, 63
1, 184771, Control_c, 0, 64, 127
1, 184777, Note_off_c, 0, 64, 60
1, 184796, Note_on_c, 0, 62, 61
1, 184806, Note_off_c, 0, 55, 63
1, 184823, Control_c, 0, 64, 101
1, 184838, Control_c, 0, 64, 71
1, 184840, Note_off_c, 0, 62, 57
1, 184852, Control_c, 0, 64, 55
1, 184867, Control_c, 0, 64, 40
1, 184880, Note_on_c, 0, 71, 74
1, 184882, Control_c, 0, 64, 50
1, 184891, Note_on_c, 0, 65, 51
1, 184897, Control_c, 0, 64, 59
1, 184908, Note_on_c, 0, 59, 62
1, 184911, Control_c, 0, 64, 64
1, 184926, Control_c, 0, 64, 69
1, 184931, Note_off_c, 0, 65, 62
1, 184941, Control_c, 0, 64, 75
1, 184956, Control_c, 0, 64, 85
1, 184958, Note_on_c, 0, 64, 52
1, 184963, Note_off_c, 0, 71, 57
1, 184971, Control_c, 0, 64, 99
1, 184981, Note_off_c, 0, 59, 61
1, 184985, Control_c, 0, 64, 127
1, 184991, Note_on_c, 0, 62, 52
1, 184993, Note_off_c, 0, 64, 61
1, 185053, Poly_aftertouch_c, 0, 50, 0
1, 185056, Note_off_c, 0, 62, 54
1, 185059, Control_c, 0, 64, 98
1, 185074, Control_c, 0, 64, 77
1, 185089, Control_c, 0, 64, 63
1, 185104, Control_c, 0, 64, 50
1, 185118, Control_c, 0, 64, 55
1, 185121, Note_on_c, 0, 60, 58
1, 185126, Note_on_c, 0, 72, 61
1, 185133, Control_c, 0, 64, 60
1, 185148, Control_c, 0, 64, 63
1, 185155, Note_on_c, 0, 69, 37
1, 185163, Control_c, 0, 64, 66
1, 185178, Control_c, 0, 64, 69
1, 185186, Note_off_c, 0, 60, 59
1, 185193, Control_c, 0, 64, 74
1, 185200, Note_off_c, 0, 72, 60
1, 185208, Control_c, 0, 64, 82
1, 185210, Note_off_c, 0, 69, 52
1, 185221, Note_on_c, 0, 67, 44
1, 185223, Control_c, 0, 64, 91
1, 185237, Control_c, 0, 64, 102
1, 185252, Control_c, 0, 64, 115
1, 185266, Note_on_c, 0, 57, 2
1, 185267, Note_off_c, 0, 67, 59
1, 185267, Control_c, 0, 64, 127
1, 185288, Note_on_c, 0, 48, 44
1, 185288, Note_on_c, 0, 65, 38
1, 185309, Note_off_c, 0, 57, 47
1, 185311, Control_c, 0, 64, 125
1, 185326, Control_c, 0, 64, 106
1, 185341, Control_c, 0, 64, 90
1, 185342, Note_off_c, 0, 48, 55
1, 185348, Note_off_c, 0, 65, 51
1, 185355, Control_c, 0, 64, 75
1, 185370, Note_on_c, 0, 59, 51
1, 185370, Control_c, 0, 64, 63
1, 185378, Note_on_c, 0, 71, 57
1, 185385, Control_c, 0, 64, 57
1, 185400, Control_c, 0, 64, 60
1, 185409, Note_on_c, 0, 69, 38
1, 185415, Control_c, 0, 64, 63
1, 185431, Control_c, 0, 64, 65
1, 185440, Note_on_c, 0, 57, 42
1, 185446, Control_c, 0, 64, 68
1, 185448, Note_off_c, 0, 59, 55
1, 185456, Note_off_c, 0, 69, 45
1, 185460, Control_c, 0, 64, 73
1, 185462, Note_off_c, 0, 71, 59
1, 185464, Note_on_c, 0, 67, 50
1, 185475, Control_c, 0, 64, 81
1, 185490, Control_c, 0, 64, 94
1, 185505, Control_c, 0, 64, 127
1, 185507, Note_on_c, 0, 48, 42
1, 185511, Note_off_c, 0, 67, 59
1, 185535, Note_on_c, 0, 65, 38
1, 185543, Note_off_c, 0, 57, 48
1, 185572, Control_c, 0, 64, 94
1, 185575, Note_off_c, 0, 65, 56
1, 185575, Note_off_c, 0, 48, 59
1, 185586, Control_c, 0, 64, 72
1, 185598, Note_on_c, 0, 60, 60
1, 185601, Control_c, 0, 64, 59
1, 185609, Note_on_c, 0, 69, 59
1, 185610, Note_on_c, 0, 72, 67
1, 185616, Control_c, 0, 64, 53
1, 185631, Control_c, 0, 64, 58
1, 185646, Control_c, 0, 64, 62
1, 185658, Note_off_c, 0, 60, 62
1, 185661, Control_c, 0, 64, 65
1, 185675, Control_c, 0, 64, 69
1, 185676, Note_off_c, 0, 72, 63
1, 185685, Note_on_c, 0, 57, 50
1, 185690, Control_c, 0, 64, 76
1, 185694, Note_on_c, 0, 67, 50
1, 185700, Note_off_c, 0, 69, 61
1, 185705, Control_c, 0, 64, 88
1, 185720, Control_c, 0, 64, 127
1, 185731, Note_on_c, 0, 48, 43
1, 185735, Note_off_c, 0, 67, 62
1, 185741, Note_on_c, 0, 65, 45
1, 185769, Note_off_c, 0, 57, 39
1, 185779, Control_c, 0, 64, 107
1, 185780, Note_off_c, 0, 65, 58
1, 185793, Control_c, 0, 64, 77
1, 185803, Note_on_c, 0, 61, 74
1, 185807, Note_on_c, 0, 73, 83
1, 185808, Control_c, 0, 64, 63
1, 185810, Note_on_c, 0, 69, 69
1, 185813, Note_off_c, 0, 48, 53
1, 185820, Note_on_c, 0, 67, 58
1, 185823, Control_c, 0, 64, 53
1, 185837, Note_on_c, 0, 70, 47
1, 185838, Control_c, 0, 64, 58
1, 185853, Control_c, 0, 64, 63
1, 185867, Control_c, 0, 64, 66
1, 185869, Note_off_c, 0, 70, 55
1, 185873, Note_on_c, 0, 57, 58
1, 185882, Control_c, 0, 64, 71
1, 185885, Note_off_c, 0, 61, 60
1, 185897, Control_c, 0, 64, 81
1, 185905, Note_off_c, 0, 69, 61
1, 185912, Control_c, 0, 64, 100
1, 185914, Note_on_c, 0, 65, 65
1, 185920, Note_off_c, 0, 73, 62
1, 185927, Control_c, 0, 64, 127
1, 185932, Note_off_c, 0, 67, 58
1, 185958, Note_on_c, 0, 48, 55
1, 185972, Note_off_c, 0, 57, 60
1, 185981, Note_off_c, 0, 65, 62
1, 186001, Control_c, 0, 64, 95
1, 186016, Control_c, 0, 64, 72
1, 186018, Note_on_c, 0, 74, 90
1, 186029, Note_on_c, 0, 62, 73
1, 186031, Note_on_c, 0, 67, 75
1, 186031, Control_c, 0, 64, 56
1, 186041, Note_off_c, 0, 48, 60
1, 186046, Control_c, 0, 64, 50
1, 186051, Poly_aftertouch_c, 0, 51, 127
1, 186060, Control_c, 0, 64, 56
1, 186075, Control_c, 0, 64, 61
1, 186090, Control_c, 0, 64, 66
1, 186102, Poly_aftertouch_c, 0, 51, 0
1, 186104, Note_on_c, 0, 65, 68
1, 186105, Control_c, 0, 64, 72
1, 186114, Note_off_c, 0, 62, 61
1, 186115, Note_on_c, 0, 58, 53
1, 186120, Control_c, 0, 64, 84
1, 186134, Control_c, 0, 64, 127
1, 186136, Note_off_c, 0, 67, 60
1, 186138, Note_off_c, 0, 74, 59
1, 186162, Note_off_c, 0, 58, 60
1, 186173, Note_off_c, 0, 65, 61
1, 186175, Note_on_c, 0, 48, 54
1, 186192, Note_on_c, 0, 64, 48
1, 186208, Control_c, 0, 64, 107
1, 186218, Note_off_c, 0, 64, 59
1, 186223, Control_c, 0, 64, 73
1, 186232, Poly_aftertouch_c, 0, 51, 127
1, 186236, Note_on_c, 0, 51, 2
1, 186239, Control_c, 0, 64, 59
1, 186245, Note_on_c, 0, 73, 93
1, 186246, Note_on_c, 0, 61, 86
1, 186248, Note_on_c, 0, 67, 78
1, 186254, Control_c, 0, 64, 49
1, 186264, Note_off_c, 0, 48, 55
1, 186269, Control_c, 0, 64, 54
1, 186290, Control_c, 0, 64, 59
1, 186305, Control_c, 0, 64, 63
1, 186320, Control_c, 0, 64, 68
1, 186335, Control_c, 0, 64, 75
1, 186336, Note_on_c, 0, 58, 68
1, 186341, Note_on_c, 0, 65, 63
1, 186346, Note_off_c, 0, 61, 60
1, 186350, Control_c, 0, 64, 90
1, 186364, Control_c, 0, 64, 127
1, 186380, Note_off_c, 0, 67, 57
1, 186382, Note_off_c, 0, 73, 62
1, 186393, Note_off_c, 0, 51, 0
1, 186400, Note_on_c, 0, 64, 58
1, 186407, Note_on_c, 0, 48, 58
1, 186413, Note_off_c, 0, 65, 60
1, 186429, Note_off_c, 0, 58, 59
1, 186430, Poly_aftertouch_c, 0, 51, 127
1, 186451, Note_off_c, 0, 64, 58
1, 186454, Control_c, 0, 64, 88
1, 186469, Control_c, 0, 64, 67
1, 186480, Note_on_c, 0, 74, 86
1, 186484, Control_c, 0, 64, 51
1, 186487, Poly_aftertouch_c, 0, 50, 127
1, 186489, Note_on_c, 0, 62, 69
1, 186493, Note_off_c, 0, 48, 61
1, 186496, Note_on_c, 0, 67, 70
1, 186499, Control_c, 0, 64, 43
1, 186514, Control_c, 0, 64, 53
1, 186525, Poly_aftertouch_c, 0, 50, 0
1, 186525, Poly_aftertouch_c, 0, 51, 0
1, 186528, Control_c, 0, 64, 59
1, 186543, Control_c, 0, 64, 64
1, 186555, Note_on_c, 0, 58, 56
1, 186558, Control_c, 0, 64, 67
1, 186558, Note_off_c, 0, 62, 63
1, 186573, Control_c, 0, 64, 72
1, 186575, Note_off_c, 0, 74, 58
1, 186585, Note_on_c, 0, 65, 53
1, 186588, Control_c, 0, 64, 82
1, 186592, Note_off_c, 0, 67, 59
1, 186594, Note_off_c, 0, 58, 64
1, 186603, Control_c, 0, 64, 100
1, 186617, Control_c, 0, 64, 127
1, 186627, Note_on_c, 0, 64, 54
1, 186630, Note_off_c, 0, 65, 60
1, 186636, Note_on_c, 0, 48, 49
1, 186662, Control_c, 0, 64, 93
1, 186677, Control_c, 0, 64, 73
1, 186683, Note_off_c, 0, 48, 58
1, 186685, Note_off_c, 0, 64, 51
1, 186691, Control_c, 0, 64, 57
1, 186706, Control_c, 0, 64, 45
1, 186712, Note_on_c, 0, 58, 60
1, 186713, Note_on_c, 0, 70, 74
1, 186720, Note_on_c, 0, 67, 59
1, 186721, Control_c, 0, 64, 51
1, 186731, Note_on_c, 0, 55, 47
1, 186736, Control_c, 0, 64, 57
1, 186751, Control_c, 0, 64, 61
1, 186765, Control_c, 0, 64, 64
1, 186773, Note_off_c, 0, 55, 59
1, 186778, Note_off_c, 0, 58, 55
1, 186780, Control_c, 0, 64, 67
1, 186782, Note_off_c, 0, 67, 55
1, 186794, Note_on_c, 0, 65, 13
1, 186795, Control_c, 0, 64, 71
1, 186809, Control_c, 0, 64, 77
1, 186812, Note_on_c, 0, 48, 46
1, 186815, Note_off_c, 0, 70, 63
1, 186824, Control_c, 0, 64, 85
1, 186831, Note_on_c, 0, 64, 50
1, 186839, Control_c, 0, 64, 91
1, 186847, Note_off_c, 0, 65, 46
1, 186854, Control_c, 0, 64, 90
1, 186869, Control_c, 0, 64, 82
1, 186880, Note_off_c, 0, 48, 49
1, 186883, Control_c, 0, 64, 69
1, 186889, Note_off_c, 0, 64, 51
1, 186898, Control_c, 0, 64, 56
1, 186913, Control_c, 0, 64, 17
1, 186927, Note_on_c, 0, 57, 44
1, 186928, Control_c, 0, 64, 14
1, 186933, Note_on_c, 0, 53, 40
1, 186942, Note_on_c, 0, 69, 64
1, 186943, Control_c, 0, 64, 31
1, 186958, Control_c, 0, 64, 46
1, 186963, Note_on_c, 0, 65, 36
1, 186973, Control_c, 0, 64, 58
1, 186987, Control_c, 0, 64, 62
1, 186992, Note_off_c, 0, 65, 53
1, 186996, Note_off_c, 0, 69, 61
1, 187000, Note_off_c, 0, 57, 64
1, 187002, Control_c, 0, 64, 64
1, 187013, Note_off_c, 0, 53, 64
1, 187017, Control_c, 0, 64, 67
1, 187041, Control_c, 0, 64, 72
1, 187056, Control_c, 0, 64, 79
1, 187071, Control_c, 0, 64, 93
1, 187086, Control_c, 0, 64, 112
1, 187101, Control_c, 0, 64, 127
1, 187115, Control_c, 0, 64, 116
1, 187130, Control_c, 0, 64, 93
1, 187145, Control_c, 0, 64, 73
1, 187160, Control_c, 0, 64, 56
1, 187175, Control_c, 0, 64, 41
1, 187178, Note_on_c, 0, 60, 61
1, 187181, Note_on_c, 0, 48, 57
1, 187189, Control_c, 0, 64, 48
1, 187204, Control_c, 0, 64, 56
1, 187219, Control_c, 0, 64, 61
1, 187229, Note_off_c, 0, 48, 62
1, 187233, Control_c, 0, 64, 64
1, 187235, Note_off_c, 0, 60, 59
1, 187244, Note_on_c, 0, 62, 51
1, 187248, Control_c, 0, 64, 69
1, 187251, Note_on_c, 0, 50, 60
1, 187263, Control_c, 0, 64, 78
1, 187276, Note_off_c, 0, 50, 62
1, 187278, Control_c, 0, 64, 99
1, 187282, Note_off_c, 0, 62, 65
1, 187283, Note_on_c, 0, 63, 76
1, 187292, Note_on_c, 0, 51, 81
1, 187293, Control_c, 0, 64, 127
1, 187309, Note_off_c, 0, 63, 69
1, 187316, Note_off_c, 0, 51, 67
1, 187322, Control_c, 0, 64, 105
1, 187337, Control_c, 0, 64, 71
1, 187352, Control_c, 0, 64, 53
1, 187354, Note_on_c, 0, 51, 94
1, 187355, Note_on_c, 0, 63, 89
1, 187367, Control_c, 0, 64, 0
1, 187381, Control_c, 0, 64, 9
1, 187396, Control_c, 0, 64, 39
1, 187411, Control_c, 0, 64, 55
1, 187420, Note_on_c, 0, 62, 77
1, 187423, Note_on_c, 0, 50, 66
1, 187426, Control_c, 0, 64, 64
1, 187436, Note_off_c, 0, 51, 61
1, 187441, Control_c, 0, 64, 68
1, 187446, Note_off_c, 0, 63, 61
1, 187455, Control_c, 0, 64, 76
1, 187470, Control_c, 0, 64, 91
1, 187479, Note_on_c, 0, 60, 85
1, 187485, Control_c, 0, 64, 127
1, 187486, Note_on_c, 0, 48, 70
1, 187491, Note_off_c, 0, 62, 63
1, 187497, Note_off_c, 0, 50, 62
1, 187530, Control_c, 0, 64, 79
1, 187534, Note_off_c, 0, 60, 58
1, 187541, Note_on_c, 0, 46, 78
1, 187545, Control_c, 0, 64, 60
1, 187556, Note_on_c, 0, 66, 91
1, 187557, Note_off_c, 0, 48, 60
1, 187560, Control_c, 0, 64, 0
1, 187589, Control_c, 0, 64, 13
1, 187604, Control_c, 0, 64, 45
1, 187619, Control_c, 0, 64, 61
1, 187623, Note_on_c, 0, 48, 62
1, 187633, Control_c, 0, 64, 67
1, 187637, Note_on_c, 0, 63, 74
1, 187648, Control_c, 0, 64, 75
1, 187663, Control_c, 0, 64, 95
1, 187667, Note_off_c, 0, 46, 61
1, 187678, Control_c, 0, 64, 127
1, 187683, Note_on_c, 0, 60, 71
1, 187687, Note_on_c, 0, 54, 46
1, 187695, Note_off_c, 0, 63, 62
1, 187695, Note_off_c, 0, 66, 58
1, 187706, Note_off_c, 0, 48, 59
1, 187718, Note_off_c, 0, 54, 62
1, 187719, Note_off_c, 0, 60, 65
1, 187722, Control_c, 0, 64, 88
1, 187737, Control_c, 0, 64, 64
1, 187752, Control_c, 0, 64, 0
1, 187754, Note_on_c, 0, 53, 81
1, 187763, Note_on_c, 0, 45, 78
1, 187763, Note_on_c, 0, 65, 91
1, 187767, Note_on_c, 0, 48, 53
1, 187771, Note_on_c, 0, 63, 76
1, 187789, Control_c, 0, 64, 28
1, 187804, Control_c, 0, 64, 53
1, 187806, Note_off_c, 0, 63, 66
1, 187810, Note_off_c, 0, 53, 65
1, 187813, Note_off_c, 0, 48, 66
1, 187816, Note_off_c, 0, 45, 62
1, 187819, Control_c, 0, 64, 64
1, 187828, Note_off_c, 0, 65, 65
1, 187834, Control_c, 0, 64, 72
1, 187849, Control_c, 0, 64, 86
1, 187864, Control_c, 0, 64, 120
1, 187879, Control_c, 0, 64, 127
1, 187909, Control_c, 0, 64, 116
1, 187923, Control_c, 0, 64, 101
1, 187938, Control_c, 0, 64, 90
1, 187953, Control_c, 0, 64, 78
1, 187968, Control_c, 0, 64, 66
1, 187983, Control_c, 0, 64, 48
1, 187998, Control_c, 0, 64, 0
1, 188003, Note_on_c, 0, 48, 55
1, 188003, Note_on_c, 0, 60, 59
1, 188037, Note_off_c, 0, 48, 64
1, 188052, Note_off_c, 0, 60, 60
1, 188081, Note_on_c, 0, 50, 32
1, 188118, Note_on_c, 0, 51, 68
1, 188118, Note_off_c, 0, 50, 33
1, 188123, Note_on_c, 0, 62, 5
1, 188126, Note_on_c, 0, 63, 57
1, 188153, Note_off_c, 0, 62, 35
1, 188154, Note_off_c, 0, 51, 63
1, 188155, Note_off_c, 0, 63, 65
1, 188208, Poly_aftertouch_c, 0, 51, 127
1, 188213, Note_on_c, 0, 63, 60
1, 188242, Poly_aftertouch_c, 0, 51, 0
1, 188253, Note_off_c, 0, 63, 62
1, 188261, Note_on_c, 0, 62, 57
1, 188302, Note_off_c, 0, 62, 63
1, 188329, Note_on_c, 0, 60, 51
1, 188344, Note_on_c, 0, 48, 37
1, 188365, Note_off_c, 0, 60, 62
1, 188377, Note_on_c, 0, 45, 42
1, 188395, Note_on_c, 0, 66, 61
1, 188437, Note_off_c, 0, 45, 59
1, 188461, Note_on_c, 0, 63, 36
1, 188470, Note_off_c, 0, 66, 59
1, 188481, Note_on_c, 0, 54, 33
1, 188496, Note_off_c, 0, 63, 54
1, 188505, Note_off_c, 0, 48, 43
1, 188511, Note_on_c, 0, 60, 40
1, 188518, Note_off_c, 0, 54, 53
1, 188555, Note_off_c, 0, 60, 56
1, 188582, Control_c, 0, 64, 27
1, 188591, Note_on_c, 0, 46, 29
1, 188597, Poly_aftertouch_c, 0, 50, 127
1, 188597, Control_c, 0, 64, 50
1, 188602, Note_on_c, 0, 55, 25
1, 188608, Note_on_c, 0, 67, 56
1, 188612, Control_c, 0, 64, 60
1, 188627, Control_c, 0, 64, 66
1, 188630, Note_on_c, 0, 62, 32
1, 188642, Control_c, 0, 64, 76
1, 188652, Note_off_c, 0, 55, 61
1, 188655, Note_off_c, 0, 67, 61
1, 188657, Control_c, 0, 64, 94
1, 188664, Note_off_c, 0, 62, 49
1, 188668, Note_off_c, 0, 46, 61
1, 188672, Poly_aftertouch_c, 0, 50, 0
1, 188672, Control_c, 0, 64, 127
1, 188806, Control_c, 0, 64, 122
1, 188821, Control_c, 0, 64, 116
1, 188835, Control_c, 0, 64, 112
1, 188846, Note_on_c, 0, 50, 63
1, 188848, Note_on_c, 0, 62, 55
1, 188850, Control_c, 0, 64, 109
1, 188865, Control_c, 0, 64, 108
1, 188878, Control_c, 0, 64, 107
1, 188881, Note_off_c, 0, 50, 66
1, 188905, Note_on_c, 0, 64, 61
1, 188906, Note_on_c, 0, 52, 69
1, 188914, Note_off_c, 0, 62, 52
1, 188937, Note_off_c, 0, 52, 67
1, 188938, Control_c, 0, 64, 108
1, 188952, Note_off_c, 0, 64, 62
1, 188955, Note_on_c, 0, 65, 71
1, 188967, Control_c, 0, 64, 103
1, 188972, Note_on_c, 0, 53, 61
1, 188982, Note_off_c, 0, 65, 68
1, 188982, Control_c, 0, 64, 84
1, 188993, Note_off_c, 0, 53, 63
1, 188997, Control_c, 0, 64, 66
1, 189012, Control_c, 0, 64, 34
1, 189023, Note_on_c, 0, 65, 86
1, 189026, Control_c, 0, 64, 24
1, 189028, Note_on_c, 0, 53, 84
1, 189041, Control_c, 0, 64, 41
1, 189056, Control_c, 0, 64, 51
1, 189071, Control_c, 0, 64, 58
1, 189086, Control_c, 0, 64, 62
1, 189093, Note_on_c, 0, 64, 80
1, 189101, Control_c, 0, 64, 67
1, 189104, Note_off_c, 0, 65, 63
1, 189106, Note_on_c, 0, 52, 75
1, 189116, Note_off_c, 0, 53, 63
1, 189116, Control_c, 0, 64, 75
1, 189131, Control_c, 0, 64, 92
1, 189146, Control_c, 0, 64, 127
1, 189149, Note_off_c, 0, 64, 66
1, 189155, Note_on_c, 0, 62, 81
1, 189159, Note_on_c, 0, 50, 68
1, 189170, Note_off_c, 0, 52, 64
1, 189204, Control_c, 0, 64, 76
1, 189215, Note_on_c, 0, 48, 76
1, 189219, Control_c, 0, 64, 58
1, 189226, Note_on_c, 0, 68, 92
1, 189230, Note_off_c, 0, 50, 61
1, 189234, Control_c, 0, 64, 12
1, 189236, Note_off_c, 0, 62, 55
1, 189249, Control_c, 0, 64, 15
1, 189264, Control_c, 0, 64, 41
1, 189286, Control_c, 0, 64, 55
1, 189301, Control_c, 0, 64, 63
1, 189312, Note_on_c, 0, 65, 69
1, 189313, Note_on_c, 0, 50, 67
1, 189316, Control_c, 0, 64, 69
1, 189330, Control_c, 0, 64, 80
1, 189345, Control_c, 0, 64, 114
1, 189348, Note_off_c, 0, 48, 63
1, 189353, Note_on_c, 0, 56, 54
1, 189360, Control_c, 0, 64, 127
1, 189364, Note_on_c, 0, 62, 63
1, 189375, Note_off_c, 0, 68, 60
1, 189375, Note_off_c, 0, 65, 62
1, 189389, Note_off_c, 0, 50, 60
1, 189393, Note_off_c, 0, 56, 65
1, 189405, Control_c, 0, 64, 83
1, 189405, Note_off_c, 0, 62, 63
1, 189419, Control_c, 0, 64, 62
1, 189435, Control_c, 0, 64, 0
1, 189443, Note_on_c, 0, 55, 88
1, 189448, Note_on_c, 0, 67, 97
1, 189450, Note_on_c, 0, 47, 79
1, 189458, Note_on_c, 0, 50, 52
1, 189462, Note_on_c, 0, 65, 76
1, 189465, Control_c, 0, 64, 28
1, 189480, Control_c, 0, 64, 57
1, 189487, Note_off_c, 0, 65, 69
1, 189494, Control_c, 0, 64, 67
1, 189495, Note_off_c, 0, 50, 67
1, 189497, Note_off_c, 0, 55, 65
1, 189499, Note_off_c, 0, 47, 62
1, 189509, Note_off_c, 0, 67, 66
1, 189509, Control_c, 0, 64, 80
1, 189524, Control_c, 0, 64, 127
1, 189642, Control_c, 0, 64, 105
1, 189657, Control_c, 0, 64, 95
1, 189672, Control_c, 0, 64, 85
1, 189687, Control_c, 0, 64, 78
1, 189699, Note_on_c, 0, 50, 64
1, 189699, Note_on_c, 0, 62, 66
1, 189701, Control_c, 0, 64, 71
1, 189716, Control_c, 0, 64, 65
1, 189731, Control_c, 0, 64, 61
1, 189735, Note_off_c, 0, 50, 66
1, 189746, Control_c, 0, 64, 59
1, 189760, Note_on_c, 0, 52, 69
1, 189761, Control_c, 0, 64, 57
1, 189765, Note_on_c, 0, 64, 58
1, 189772, Note_off_c, 0, 62, 61
1, 189775, Control_c, 0, 64, 53
1, 189783, Note_off_c, 0, 52, 68
1, 189790, Control_c, 0, 64, 48
1, 189800, Note_off_c, 0, 64, 66
1, 189805, Control_c, 0, 64, 41
1, 189810, Note_on_c, 0, 65, 62
1, 189820, Control_c, 0, 64, 34
1, 189828, Note_on_c, 0, 53, 64
1, 189834, Control_c, 0, 64, 30
1, 189841, Note_off_c, 0, 65, 65
1, 189849, Control_c, 0, 64, 27
1, 189864, Control_c, 0, 64, 25
1, 189879, Control_c, 0, 64, 24
1, 189888, Note_on_c, 0, 65, 79
1, 189894, Control_c, 0, 64, 23
1, 189909, Control_c, 0, 64, 22
1, 189924, Control_c, 0, 64, 21
1, 189939, Control_c, 0, 64, 20
1, 189945, Note_off_c, 0, 65, 62
1, 189953, Control_c, 0, 64, 19
1, 189957, Note_off_c, 0, 53, 58
1, 189959, Note_on_c, 0, 64, 59
1, 189990, Note_off_c, 0, 64, 65
1, 190009, Note_on_c, 0, 62, 60
1, 190012, Note_on_c, 0, 52, 14
1, 190046, Note_on_c, 0, 50, 22
1, 190060, Note_off_c, 0, 62, 59
1, 190062, Note_off_c, 0, 52, 30
1, 190085, Note_on_c, 0, 47, 51
1, 190094, Note_on_c, 0, 68, 66
1, 190100, Note_off_c, 0, 50, 42
1, 190171, Note_off_c, 0, 47, 50
1, 190172, Note_off_c, 0, 68, 60
1, 190176, Note_on_c, 0, 65, 29
1, 190201, Poly_aftertouch_c, 0, 50, 127
1, 190214, Note_on_c, 0, 62, 46
1, 190214, Note_off_c, 0, 65, 52
1, 190221, Note_on_c, 0, 56, 32
1, 190252, Poly_aftertouch_c, 0, 50, 0
1, 190274, Note_off_c, 0, 56, 47
1, 190275, Note_off_c, 0, 62, 53
1, 190317, Control_c, 0, 64, 22
1, 190332, Control_c, 0, 64, 28
1, 190333, Note_on_c, 0, 48, 33
1, 190341, Note_on_c, 0, 69, 46
1, 190341, Note_on_c, 0, 57, 38
1, 190347, Control_c, 0, 64, 39
1, 190359, Note_on_c, 0, 64, 33
1, 190362, Control_c, 0, 64, 49
1, 190369, Poly_aftertouch_c, 0, 52, 127
1, 190377, Control_c, 0, 64, 57
1, 190392, Control_c, 0, 64, 62
1, 190406, Control_c, 0, 64, 67
1, 190421, Control_c, 0, 64, 76
1, 190421, Note_off_c, 0, 64, 61
1, 190427, Note_off_c, 0, 69, 63
1, 190435, Note_off_c, 0, 57, 62
1, 190436, Poly_aftertouch_c, 0, 52, 0
1, 190436, Control_c, 0, 64, 92
1, 190446, Note_off_c, 0, 48, 56
1, 190451, Control_c, 0, 64, 127
1, 190584, Control_c, 0, 64, 115
1, 190585, Note_on_c, 0, 64, 53
1, 190594, Note_on_c, 0, 55, 54
1, 190598, Control_c, 0, 64, 109
1, 190613, Control_c, 0, 64, 105
1, 190628, Control_c, 0, 64, 102
1, 190636, Note_off_c, 0, 64, 52
1, 190642, Note_off_c, 0, 55, 62
1, 190643, Control_c, 0, 64, 101
1, 190654, Note_on_c, 0, 65, 56
1, 190656, Note_on_c, 0, 53, 61
1, 190687, Control_c, 0, 64, 100
1, 190691, Note_off_c, 0, 65, 65
1, 190693, Note_off_c, 0, 53, 65
1, 190699, Note_on_c, 0, 67, 67
1, 190702, Control_c, 0, 64, 95
1, 190716, Note_on_c, 0, 52, 49
1, 190717, Control_c, 0, 64, 81
1, 190726, Note_off_c, 0, 67, 68
1, 190731, Control_c, 0, 64, 66
1, 190741, Note_off_c, 0, 52, 57
1, 190746, Control_c, 0, 64, 50
1, 190761, Control_c, 0, 64, 46
1, 190781, Note_on_c, 0, 67, 78
1, 190784, Control_c, 0, 64, 54
1, 190799, Control_c, 0, 64, 59
1, 190800, Note_on_c, 0, 52, 54
1, 190813, Control_c, 0, 64, 62
1, 190828, Control_c, 0, 64, 65
1, 190836, Note_off_c, 0, 67, 63
1, 190839, Note_on_c, 0, 65, 68
1, 190843, Control_c, 0, 64, 68
1, 190849, Note_off_c, 0, 52, 63
1, 190857, Control_c, 0, 64, 73
1, 190872, Control_c, 0, 64, 81
1, 190881, Note_on_c, 0, 53, 33
1, 190882, Note_off_c, 0, 65, 59
1, 190887, Control_c, 0, 64, 91
1, 190902, Control_c, 0, 64, 92
1, 190904, Note_on_c, 0, 64, 57
1, 190912, Note_on_c, 0, 55, 58
1, 190914, Note_off_c, 0, 53, 51
1, 190917, Control_c, 0, 64, 83
1, 190931, Control_c, 0, 64, 71
1, 190943, Note_off_c, 0, 64, 63
1, 190946, Control_c, 0, 64, 61
1, 190961, Control_c, 0, 64, 46
1, 190965, Note_off_c, 0, 55, 58
1, 190976, Control_c, 0, 64, 49
1, 190983, Note_on_c, 0, 70, 60
1, 190991, Note_on_c, 0, 50, 49
1, 190991, Control_c, 0, 64, 57
1, 191003, Note_on_c, 0, 52, 45
1, 191004, Note_on_c, 0, 67, 39
1, 191006, Control_c, 0, 64, 62
1, 191021, Control_c, 0, 64, 65
1, 191036, Note_off_c, 0, 50, 62
1, 191036, Control_c, 0, 64, 68
1, 191051, Control_c, 0, 64, 73
1, 191053, Note_off_c, 0, 67, 51
1, 191057, Note_off_c, 0, 70, 58
1, 191059, Note_on_c, 0, 65, 55
1, 191066, Control_c, 0, 64, 82
1, 191076, Note_off_c, 0, 52, 64
1, 191080, Control_c, 0, 64, 91
1, 191095, Note_on_c, 0, 55, 53
1, 191095, Control_c, 0, 64, 99
1, 191100, Note_off_c, 0, 65, 61
1, 191110, Control_c, 0, 64, 100
1, 191120, Note_on_c, 0, 64, 47
1, 191125, Control_c, 0, 64, 99
1, 191139, Poly_aftertouch_c, 0, 53, 0
1, 191140, Control_c, 0, 64, 94
1, 191154, Control_c, 0, 64, 81
1, 191161, Note_off_c, 0, 55, 55
1, 191166, Note_off_c, 0, 64, 55
1, 191169, Control_c, 0, 64, 69
1, 191184, Control_c, 0, 64, 60
1, 191199, Note_on_c, 0, 49, 36
1, 191199, Control_c, 0, 64, 54
1, 191201, Note_on_c, 0, 67, 40
1, 191201, Note_on_c, 0, 69, 57
1, 191214, Control_c, 0, 64, 57
1, 191217, Note_on_c, 0, 52, 43
1, 191228, Control_c, 0, 64, 60
1, 191243, Control_c, 0, 64, 63
1, 191251, Note_off_c, 0, 69, 58
1, 191258, Control_c, 0, 64, 67
1, 191259, Note_off_c, 0, 49, 55
1, 191259, Note_off_c, 0, 67, 55
1, 191273, Control_c, 0, 64, 71
1, 191280, Note_on_c, 0, 65, 46
1, 191287, Control_c, 0, 64, 78
1, 191297, Note_on_c, 0, 55, 48
1, 191302, Control_c, 0, 64, 87
1, 191317, Control_c, 0, 64, 102
1, 191320, Note_off_c, 0, 65, 61
1, 191332, Note_on_c, 0, 64, 42
1, 191332, Control_c, 0, 64, 127
1, 191375, Poly_aftertouch_c, 0, 53, 0
1, 191376, Control_c, 0, 64, 100
1, 191381, Note_off_c, 0, 64, 58
1, 191390, Note_off_c, 0, 52, 0
1, 191391, Control_c, 0, 64, 79
1, 191404, Note_on_c, 0, 70, 63
1, 191406, Note_on_c, 0, 48, 55
1, 191406, Note_on_c, 0, 52, 28
1, 191406, Control_c, 0, 64, 66
1, 191417, Note_on_c, 0, 67, 45
1, 191417, Note_off_c, 0, 55, 57
1, 191420, Control_c, 0, 64, 59
1, 191435, Control_c, 0, 64, 61
1, 191450, Control_c, 0, 64, 65
1, 191465, Control_c, 0, 64, 69
1, 191471, Note_off_c, 0, 48, 56
1, 191480, Control_c, 0, 64, 75
1, 191480, Note_on_c, 0, 65, 54
1, 191487, Note_off_c, 0, 70, 63
1, 191495, Control_c, 0, 64, 87
1, 191496, Note_on_c, 0, 53, 48
1, 191504, Note_off_c, 0, 67, 52
1, 191510, Control_c, 0, 64, 127
1, 191536, Note_off_c, 0, 65, 60
1, 191545, Note_on_c, 0, 64, 60
1, 191546, Note_off_c, 0, 53, 61
1, 191550, Note_on_c, 0, 55, 57
1, 191554, Note_off_c, 0, 52, 43
1, 191580, Note_off_c, 0, 64, 65
1, 191591, Control_c, 0, 64, 84
1, 191606, Control_c, 0, 64, 66
1, 191620, Note_on_c, 0, 71, 89
1, 191620, Note_on_c, 0, 47, 69
1, 191621, Note_on_c, 0, 67, 83
1, 191621, Control_c, 0, 64, 51
1, 191635, Control_c, 0, 64, 52
1, 191637, Note_off_c, 0, 55, 61
1, 191638, Note_on_c, 0, 52, 72
1, 191650, Control_c, 0, 64, 59
1, 191665, Control_c, 0, 64, 64
1, 191679, Control_c, 0, 64, 68
1, 191685, Note_off_c, 0, 47, 61
1, 191694, Note_on_c, 0, 65, 70
1, 191694, Control_c, 0, 64, 76
1, 191698, Note_on_c, 0, 53, 47
1, 191709, Control_c, 0, 64, 95
1, 191716, Note_off_c, 0, 67, 59
1, 191724, Control_c, 0, 64, 127
1, 191730, Note_off_c, 0, 52, 63
1, 191731, Note_off_c, 0, 71, 60
1, 191736, Note_off_c, 0, 53, 64
1, 191752, Note_on_c, 0, 64, 71
1, 191753, Note_off_c, 0, 65, 63
1, 191755, Note_on_c, 0, 55, 66
1, 191779, Note_off_c, 0, 64, 68
1, 191784, Control_c, 0, 64, 113
1, 191798, Control_c, 0, 64, 76
1, 191813, Control_c, 0, 64, 56
1, 191814, Note_on_c, 0, 46, 79
1, 191824, Note_on_c, 0, 72, 92
1, 191825, Note_off_c, 0, 55, 58
1, 191828, Note_on_c, 0, 52, 78
1, 191829, Control_c, 0, 64, 42
1, 191831, Note_on_c, 0, 67, 84
1, 191844, Control_c, 0, 64, 52
1, 191852, Note_on_c, 0, 53, 39
1, 191858, Control_c, 0, 64, 60
1, 191873, Control_c, 0, 64, 65
1, 191885, Note_on_c, 0, 65, 57
1, 191888, Control_c, 0, 64, 72
1, 191903, Control_c, 0, 64, 91
1, 191918, Control_c, 0, 64, 127
1, 191918, Note_off_c, 0, 46, 57
1, 191921, Note_off_c, 0, 72, 61
1, 191923, Note_off_c, 0, 52, 57
1, 191924, Note_off_c, 0, 67, 56
1, 191939, Note_off_c, 0, 53, 50
1, 191940, Note_on_c, 0, 55, 66
1, 191948, Note_off_c, 0, 65, 63
1, 191949, Note_on_c, 0, 64, 71
1, 191996, Note_off_c, 0, 55, 59
1, 192010, Note_off_c, 0, 64, 62
1, 192022, Control_c, 0, 64, 79
1, 192028, Note_on_c, 0, 45, 84
1, 192037, Control_c, 0, 64, 57
1, 192038, Note_on_c, 0, 73, 101
1, 192051, Control_c, 0, 64, 0
1, 192081, Control_c, 0, 64, 18
1, 192095, Control_c, 0, 64, 50
1, 192110, Control_c, 0, 64, 61
1, 192115, Note_on_c, 0, 52, 70
1, 192125, Control_c, 0, 64, 68
1, 192130, Note_off_c, 0, 45, 60
1, 192133, Note_on_c, 0, 67, 60
1, 192140, Control_c, 0, 64, 79
1, 192155, Control_c, 0, 64, 115
1, 192169, Control_c, 0, 64, 127
1, 192171, Note_off_c, 0, 73, 58
1, 192175, Note_off_c, 0, 52, 64
1, 192186, Note_off_c, 0, 67, 58
1, 192192, Note_on_c, 0, 55, 68
1, 192197, Note_on_c, 0, 64, 66
1, 192255, Note_off_c, 0, 64, 49
1, 192261, Note_off_c, 0, 55, 58
1, 192275, Note_on_c, 0, 52, 61
1, 192283, Note_on_c, 0, 67, 76
1, 192330, Note_off_c, 0, 52, 62
1, 192340, Note_on_c, 0, 53, 66
1, 192340, Note_off_c, 0, 67, 62
1, 192344, Note_on_c, 0, 65, 72
1, 192383, Note_off_c, 0, 53, 61
1, 192400, Note_off_c, 0, 65, 63
1, 192407, Note_on_c, 0, 64, 69
1, 192412, Note_on_c, 0, 55, 60
1, 192443, Note_off_c, 0, 55, 66
1, 192465, Note_off_c, 0, 64, 62
1, 192487, Note_on_c, 0, 50, 88
1, 192488, Control_c, 0, 64, 79
1, 192496, Note_on_c, 0, 74, 101
1, 192502, Control_c, 0, 64, 59
1, 192517, Control_c, 0, 64, 0
1, 192547, Control_c, 0, 64, 17
1, 192562, Control_c, 0, 64, 46
1, 192576, Note_on_c, 0, 65, 73
1, 192577, Control_c, 0, 64, 58
1, 192585, Note_on_c, 0, 53, 71
1, 192592, Control_c, 0, 64, 64
1, 192595, Note_off_c, 0, 50, 63
1, 192604, Note_off_c, 0, 74, 59
1, 192606, Control_c, 0, 64, 71
1, 192623, Control_c, 0, 64, 85
1, 192638, Control_c, 0, 64, 127
1, 192645, Note_off_c, 0, 65, 63
1, 192654, Note_on_c, 0, 62, 73
1, 192663, Note_off_c, 0, 53, 62
1, 192675, Note_on_c, 0, 57, 66
1, 192726, Note_off_c, 0, 62, 61
1, 192726, Note_on_c, 0, 65, 79
1, 192728, Note_off_c, 0, 57, 57
1, 192735, Note_on_c, 0, 53, 59
1, 192786, Note_on_c, 0, 55, 71
1, 192791, Note_off_c, 0, 53, 61
1, 192794, Note_on_c, 0, 64, 77
1, 192797, Note_off_c, 0, 65, 62
1, 192852, Note_off_c, 0, 55, 62
1, 192854, Note_off_c, 0, 64, 65
1, 192858, Note_on_c, 0, 62, 77
1, 192863, Note_on_c, 0, 57, 67
1, 192908, Note_off_c, 0, 57, 61
1, 192915, Note_off_c, 0, 62, 62
1, 192934, Control_c, 0, 64, 90
1, 192937, Note_on_c, 0, 45, 86
1, 192938, Note_on_c, 0, 74, 99
1, 192949, Control_c, 0, 64, 65
1, 192964, Control_c, 0, 64, 23
1, 192979, Control_c, 0, 64, 0
1, 193009, Control_c, 0, 64, 40
1, 193030, Note_on_c, 0, 67, 72
1, 193031, Control_c, 0, 64, 57
1, 193039, Note_on_c, 0, 52, 74
1, 193046, Control_c, 0, 64, 64
1, 193060, Control_c, 0, 64, 70
1, 193074, Note_off_c, 0, 45, 61
1, 193075, Control_c, 0, 64, 82
1, 193077, Note_off_c, 0, 74, 57
1, 193090, Control_c, 0, 64, 127
1, 193107, Note_off_c, 0, 67, 63
1, 193108, Note_on_c, 0, 64, 72
1, 193111, Note_off_c, 0, 52, 65
1, 193115, Note_on_c, 0, 55, 75
1, 193166, Note_off_c, 0, 64, 62
1, 193188, Note_on_c, 0, 52, 71
1, 193189, Note_off_c, 0, 55, 61
1, 193193, Note_on_c, 0, 67, 88
1, 193242, Note_on_c, 0, 53, 73
1, 193254, Note_off_c, 0, 52, 61
1, 193259, Note_off_c, 0, 67, 64
1, 193259, Note_on_c, 0, 65, 82
1, 193307, Note_off_c, 0, 53, 63
1, 193313, Note_off_c, 0, 65, 62
1, 193315, Note_on_c, 0, 55, 72
1, 193331, Note_on_c, 0, 64, 72
1, 193380, Note_off_c, 0, 55, 63
1, 193383, Note_off_c, 0, 64, 60
1, 193387, Control_c, 0, 64, 92
1, 193390, Note_on_c, 0, 45, 84
1, 193401, Note_on_c, 0, 73, 101
1, 193401, Control_c, 0, 64, 61
1, 193416, Control_c, 0, 64, 0
1, 193447, Control_c, 0, 64, 15
1, 193462, Control_c, 0, 64, 49
1, 193474, Note_on_c, 0, 52, 64
1, 193474, Note_on_c, 0, 67, 70
1, 193476, Control_c, 0, 64, 62
1, 193486, Note_off_c, 0, 45, 58
1, 193491, Control_c, 0, 64, 67
1, 193506, Control_c, 0, 64, 76
1, 193510, Note_off_c, 0, 73, 62
1, 193521, Control_c, 0, 64, 93
1, 193536, Control_c, 0, 64, 127
1, 193545, Note_off_c, 0, 52, 64
1, 193549, Note_on_c, 0, 55, 72
1, 193555, Note_off_c, 0, 67, 63
1, 193560, Note_on_c, 0, 64, 71
1, 193617, Note_off_c, 0, 55, 62
1, 193618, Note_on_c, 0, 52, 60
1, 193632, Note_off_c, 0, 64, 60
1, 193640, Note_on_c, 0, 67, 76
1, 193670, Note_on_c, 0, 53, 66
1, 193671, Note_off_c, 0, 52, 62
1, 193687, Note_on_c, 0, 65, 71
1, 193691, Note_off_c, 0, 67, 63
1, 193720, Note_off_c, 0, 53, 61
1, 193728, Note_on_c, 0, 55, 71
1, 193730, Note_off_c, 0, 65, 60
1, 193742, Note_on_c, 0, 64, 72
1, 193795, Control_c, 0, 64, 85
1, 193808, Note_off_c, 0, 55, 57
1, 193810, Control_c, 0, 64, 57
1, 193811, Note_off_c, 0, 64, 61
1, 193824, Control_c, 0, 64, 0
1, 193839, Note_on_c, 0, 50, 73
1, 193839, Note_on_c, 0, 53, 84
1, 193839, Note_on_c, 0, 74, 93
1, 193842, Note_on_c, 0, 65, 88
1, 193869, Control_c, 0, 64, 18
1, 193875, Note_off_c, 0, 65, 64
1, 193883, Control_c, 0, 64, 53
1, 193885, Note_off_c, 0, 50, 63
1, 193888, Note_off_c, 0, 53, 66
1, 193898, Control_c, 0, 64, 64
1, 193901, Note_off_c, 0, 74, 67
1, 193913, Control_c, 0, 64, 73
1, 193928, Control_c, 0, 64, 94
1, 193943, Control_c, 0, 64, 127
1, 194068, Note_on_c, 0, 67, 70
1, 194074, Note_on_c, 0, 76, 75
1, 194130, Note_off_c, 0, 67, 62
1, 194139, Note_on_c, 0, 65, 64
1, 194150, Note_on_c, 0, 77, 65
1, 194156, Note_off_c, 0, 76, 63
1, 194174, Note_off_c, 0, 65, 63
1, 194199, Note_on_c, 0, 64, 51
1, 194202, Note_on_c, 0, 79, 71
1, 194203, Note_off_c, 0, 77, 63
1, 194225, Control_c, 0, 64, 97
1, 194226, Note_off_c, 0, 64, 57
1, 194228, Note_off_c, 0, 79, 68
1, 194240, Control_c, 0, 64, 68
1, 194255, Control_c, 0, 64, 33
1, 194270, Control_c, 0, 64, 0
1, 194274, Note_on_c, 0, 79, 88
1, 194281, Note_on_c, 0, 64, 64
1, 194285, Control_c, 0, 64, 15
1, 194299, Control_c, 0, 64, 44
1, 194314, Control_c, 0, 64, 56
1, 194326, Note_off_c, 0, 64, 55
1, 194329, Control_c, 0, 64, 64
1, 194336, Note_off_c, 0, 79, 64
1, 194338, Note_on_c, 0, 77, 69
1, 194344, Control_c, 0, 64, 69
1, 194353, Note_on_c, 0, 65, 46
1, 194359, Control_c, 0, 64, 76
1, 194373, Control_c, 0, 64, 88
1, 194388, Control_c, 0, 64, 111
1, 194395, Note_off_c, 0, 77, 63
1, 194398, Note_on_c, 0, 76, 63
1, 194399, Note_on_c, 0, 67, 57
1, 194403, Control_c, 0, 64, 127
1, 194407, Note_off_c, 0, 65, 57
1, 194446, Note_off_c, 0, 76, 53
1, 194447, Control_c, 0, 64, 113
1, 194462, Control_c, 0, 64, 80
1, 194467, Note_off_c, 0, 67, 61
1, 194477, Note_on_c, 0, 64, 47
1, 194477, Control_c, 0, 64, 64
1, 194478, Note_on_c, 0, 62, 51
1, 194478, Note_on_c, 0, 82, 68
1, 194487, Note_on_c, 0, 79, 52
1, 194491, Control_c, 0, 64, 51
1, 194506, Control_c, 0, 64, 54
1, 194529, Control_c, 0, 64, 60
1, 194542, Note_off_c, 0, 62, 61
1, 194544, Control_c, 0, 64, 64
1, 194559, Control_c, 0, 64, 68
1, 194562, Note_on_c, 0, 77, 52
1, 194573, Control_c, 0, 64, 75
1, 194577, Note_off_c, 0, 82, 60
1, 194579, Note_off_c, 0, 64, 62
1, 194583, Note_off_c, 0, 79, 58
1, 194588, Control_c, 0, 64, 87
1, 194603, Control_c, 0, 64, 127
1, 194609, Note_on_c, 0, 67, 51
1, 194622, Note_off_c, 0, 77, 56
1, 194630, Note_on_c, 0, 76, 49
1, 194677, Control_c, 0, 64, 98
1, 194684, Note_off_c, 0, 67, 58
1, 194687, Note_off_c, 0, 76, 57
1, 194692, Control_c, 0, 64, 77
1, 194694, Note_on_c, 0, 61, 49
1, 194703, Note_on_c, 0, 81, 64
1, 194705, Note_on_c, 0, 79, 57
1, 194706, Control_c, 0, 64, 65
1, 194721, Control_c, 0, 64, 61
1, 194732, Note_on_c, 0, 64, 35
1, 194736, Control_c, 0, 64, 63
1, 194751, Control_c, 0, 64, 65
1, 194766, Control_c, 0, 64, 68
1, 194775, Note_off_c, 0, 61, 50
1, 194777, Note_off_c, 0, 81, 63
1, 194780, Control_c, 0, 64, 72
1, 194788, Note_on_c, 0, 65, 39
1, 194789, Note_on_c, 0, 77, 56
1, 194795, Control_c, 0, 64, 83
1, 194797, Note_off_c, 0, 79, 58
1, 194810, Control_c, 0, 64, 106
1, 194824, Note_on_c, 0, 67, 50
1, 194824, Control_c, 0, 64, 127
1, 194833, Note_off_c, 0, 77, 59
1, 194846, Note_off_c, 0, 65, 60
1, 194860, Note_off_c, 0, 64, 46
1, 194860, Note_on_c, 0, 76, 40
1, 194884, Control_c, 0, 64, 88
1, 194892, Note_off_c, 0, 76, 53
1, 194899, Control_c, 0, 64, 69
1, 194909, Note_on_c, 0, 82, 81
1, 194910, Note_on_c, 0, 60, 70
1, 194913, Note_off_c, 0, 67, 60
1, 194914, Note_on_c, 0, 79, 68
1, 194914, Control_c, 0, 64, 59
1, 194926, Note_on_c, 0, 64, 57
1, 194929, Control_c, 0, 64, 57
1, 194944, Control_c, 0, 64, 62
1, 194958, Control_c, 0, 64, 65
1, 194973, Control_c, 0, 64, 71
1, 194988, Control_c, 0, 64, 82
1, 194988, Note_on_c, 0, 77, 69
1, 194994, Note_off_c, 0, 60, 62
1, 195003, Control_c, 0, 64, 127
1, 195005, Note_on_c, 0, 65, 53
1, 195016, Note_off_c, 0, 82, 65
1, 195022, Note_off_c, 0, 64, 60
1, 195030, Note_off_c, 0, 79, 59
1, 195037, Note_on_c, 0, 67, 63
1, 195042, Note_on_c, 0, 76, 63
1, 195042, Note_off_c, 0, 65, 65
1, 195051, Note_off_c, 0, 77, 63
1, 195086, Note_off_c, 0, 76, 62
1, 195093, Control_c, 0, 64, 83
1, 195107, Control_c, 0, 64, 64
1, 195117, Note_on_c, 0, 59, 77
1, 195120, Note_on_c, 0, 83, 93
1, 195122, Control_c, 0, 64, 48
1, 195125, Note_off_c, 0, 67, 53
1, 195127, Note_on_c, 0, 79, 87
1, 195133, Note_on_c, 0, 64, 74
1, 195137, Control_c, 0, 64, 51
1, 195152, Control_c, 0, 64, 58
1, 195167, Control_c, 0, 64, 64
1, 195182, Control_c, 0, 64, 69
1, 195191, Note_off_c, 0, 59, 63
1, 195196, Control_c, 0, 64, 80
1, 195197, Note_on_c, 0, 77, 74
1, 195206, Note_on_c, 0, 65, 57
1, 195211, Control_c, 0, 64, 127
1, 195236, Note_off_c, 0, 79, 63
1, 195237, Note_on_c, 0, 67, 72
1, 195238, Note_off_c, 0, 83, 61
1, 195242, Note_off_c, 0, 64, 55
1, 195245, Note_on_c, 0, 76, 81
1, 195246, Note_off_c, 0, 65, 61
1, 195262, Note_off_c, 0, 77, 63
1, 195301, Note_off_c, 0, 76, 65
1, 195304, Note_off_c, 0, 67, 62
1, 195307, Control_c, 0, 64, 95
1, 195322, Control_c, 0, 64, 66
1, 195324, Note_on_c, 0, 58, 90
1, 195337, Control_c, 0, 64, 35
1, 195337, Note_on_c, 0, 84, 97
1, 195348, Note_on_c, 0, 64, 71
1, 195350, Note_on_c, 0, 79, 83
1, 195352, Control_c, 0, 64, 27
1, 195367, Control_c, 0, 64, 52
1, 195382, Control_c, 0, 64, 62
1, 195382, Note_on_c, 0, 65, 49
1, 195383, Note_on_c, 0, 77, 49
1, 195396, Control_c, 0, 64, 69
1, 195411, Control_c, 0, 64, 84
1, 195426, Control_c, 0, 64, 127
1, 195435, Note_off_c, 0, 58, 56
1, 195437, Note_off_c, 0, 79, 59
1, 195447, Note_on_c, 0, 67, 67
1, 195447, Note_off_c, 0, 84, 61
1, 195450, Note_off_c, 0, 65, 60
1, 195453, Note_on_c, 0, 76, 80
1, 195457, Note_off_c, 0, 77, 64
1, 195458, Note_off_c, 0, 64, 61
1, 195513, Note_off_c, 0, 67, 63
1, 195526, Note_off_c, 0, 76, 62
1, 195540, Note_on_c, 0, 57, 83
1, 195544, Control_c, 0, 64, 95
1, 195552, Note_on_c, 0, 85, 98
1, 195559, Control_c, 0, 64, 66
1, 195574, Control_c, 0, 64, 0
1, 195603, Control_c, 0, 64, 25
1, 195617, Control_c, 0, 64, 52
1, 195629, Note_on_c, 0, 64, 74
1, 195632, Control_c, 0, 64, 63
1, 195641, Note_off_c, 0, 57, 62
1, 195647, Control_c, 0, 64, 71
1, 195657, Note_on_c, 0, 79, 64
1, 195662, Control_c, 0, 64, 87
1, 195677, Control_c, 0, 64, 127
1, 195687, Note_off_c, 0, 85, 59
1, 195694, Note_off_c, 0, 64, 61
1, 195701, Note_on_c, 0, 67, 72
1, 195702, Note_off_c, 0, 79, 63
1, 195710, Note_on_c, 0, 76, 68
1, 195751, Note_off_c, 0, 67, 57
1, 195766, Note_off_c, 0, 76, 56
1, 195782, Note_on_c, 0, 79, 81
1, 195788, Note_on_c, 0, 64, 51
1, 195821, Note_off_c, 0, 64, 66
1, 195825, Note_on_c, 0, 65, 72
1, 195844, Note_on_c, 0, 77, 83
1, 195849, Note_off_c, 0, 79, 64
1, 195876, Note_off_c, 0, 65, 61
1, 195897, Note_on_c, 0, 67, 25
1, 195900, Note_off_c, 0, 77, 63
1, 195903, Note_on_c, 0, 76, 68
1, 195925, Note_off_c, 0, 67, 53
1, 195944, Control_c, 0, 64, 110
1, 195959, Control_c, 0, 64, 71
1, 195963, Note_off_c, 0, 76, 62
1, 195974, Note_on_c, 0, 50, 86
1, 195974, Control_c, 0, 64, 36
1, 195982, Note_on_c, 0, 86, 100
1, 195989, Control_c, 0, 64, 0
1, 196004, Control_c, 0, 64, 12
1, 196026, Control_c, 0, 64, 51
1, 196040, Control_c, 0, 64, 64
1, 196052, Note_off_c, 0, 50, 63
1, 196055, Control_c, 0, 64, 75
1, 196064, Note_on_c, 0, 62, 74
1, 196070, Control_c, 0, 64, 127
1, 196085, Note_on_c, 0, 77, 84
1, 196126, Note_off_c, 0, 86, 59
1, 196128, Note_off_c, 0, 62, 64
1, 196147, Note_on_c, 0, 65, 71
1, 196151, Note_off_c, 0, 77, 63
1, 196158, Note_on_c, 0, 74, 70
1, 196198, Note_off_c, 0, 65, 51
1, 196222, Note_on_c, 0, 62, 69
1, 196227, Note_off_c, 0, 74, 62
1, 196228, Note_on_c, 0, 77, 75
1, 196285, Note_off_c, 0, 62, 62
1, 196285, Note_on_c, 0, 64, 72
1, 196287, Note_on_c, 0, 76, 81
1, 196287, Note_off_c, 0, 77, 63
1, 196345, Note_off_c, 0, 64, 62
1, 196351, Note_off_c, 0, 76, 64
1, 196356, Note_on_c, 0, 74, 77
1, 196362, Note_on_c, 0, 65, 61
1, 196395, Note_on_c, 0, 67, 20
1, 196402, Note_off_c, 0, 65, 64
1, 196422, Note_off_c, 0, 74, 62
1, 196437, Note_off_c, 0, 67, 43
1, 196438, Note_on_c, 0, 57, 87
1, 196444, Note_on_c, 0, 86, 99
1, 196470, Control_c, 0, 64, 104
1, 196485, Control_c, 0, 64, 71
1, 196500, Control_c, 0, 64, 49
1, 196515, Control_c, 0, 64, 0
1, 196530, Control_c, 0, 64, 15
1, 196538, Note_on_c, 0, 64, 70
1, 196538, Note_on_c, 0, 79, 80
1, 196544, Control_c, 0, 64, 38
1, 196559, Control_c, 0, 64, 56
1, 196574, Control_c, 0, 64, 63
1, 196578, Note_off_c, 0, 57, 61
1, 196589, Control_c, 0, 64, 70
1, 196601, Note_off_c, 0, 86, 61
1, 196604, Control_c, 0, 64, 83
1, 196616, Note_off_c, 0, 64, 63
1, 196620, Note_on_c, 0, 67, 72
1, 196620, Control_c, 0, 64, 127
1, 196624, Note_on_c, 0, 76, 81
1, 196628, Note_off_c, 0, 79, 65
1, 196701, Note_off_c, 0, 67, 60
1, 196702, Note_on_c, 0, 64, 71
1, 196704, Note_off_c, 0, 76, 61
1, 196705, Note_on_c, 0, 79, 90
1, 196773, Note_on_c, 0, 65, 69
1, 196780, Note_off_c, 0, 64, 61
1, 196791, Note_off_c, 0, 79, 64
1, 196792, Note_on_c, 0, 77, 85
1, 196840, Note_off_c, 0, 65, 63
1, 196846, Note_on_c, 0, 67, 66
1, 196848, Note_off_c, 0, 77, 64
1, 196856, Note_on_c, 0, 76, 79
1, 196907, Note_off_c, 0, 67, 63
1, 196924, Note_off_c, 0, 76, 59
1, 196927, Note_on_c, 0, 57, 85
1, 196938, Control_c, 0, 64, 90
1, 196948, Note_on_c, 0, 85, 99
1, 196953, Control_c, 0, 64, 65
1, 196968, Control_c, 0, 64, 27
1, 196982, Control_c, 0, 64, 0
1, 197012, Control_c, 0, 64, 33
1, 197027, Control_c, 0, 64, 54
1, 197042, Control_c, 0, 64, 62
1, 197048, Note_on_c, 0, 64, 66
1, 197050, Note_on_c, 0, 79, 74
1, 197057, Control_c, 0, 64, 68
1, 197072, Control_c, 0, 64, 79
1, 197079, Note_off_c, 0, 57, 62
1, 197087, Control_c, 0, 64, 127
1, 197087, Note_off_c, 0, 85, 62
1, 197129, Note_on_c, 0, 76, 82
1, 197131, Note_off_c, 0, 64, 63
1, 197133, Note_on_c, 0, 67, 71
1, 197141, Note_off_c, 0, 79, 64
1, 197213, Note_on_c, 0, 64, 62
1, 197225, Note_off_c, 0, 67, 59
1, 197229, Note_on_c, 0, 79, 91
1, 197239, Note_off_c, 0, 76, 63
1, 197288, Note_on_c, 0, 65, 66
1, 197306, Note_on_c, 0, 77, 88
1, 197316, Note_off_c, 0, 64, 54
1, 197328, Note_off_c, 0, 79, 63
1, 197385, Note_on_c, 0, 76, 87
1, 197389, Note_on_c, 0, 67, 72
1, 197394, Note_off_c, 0, 77, 61
1, 197399, Note_off_c, 0, 65, 61
1, 197504, Note_off_c, 0, 67, 56
1, 197530, Note_on_c, 0, 62, 74
1, 197530, Note_on_c, 0, 65, 81
1, 197532, Note_on_c, 0, 86, 92
1, 197539, Control_c, 0, 64, 82
1, 197554, Control_c, 0, 64, 62
1, 197566, Note_off_c, 0, 76, 61
1, 197569, Control_c, 0, 64, 0
1, 197643, Control_c, 0, 64, 40
1, 197658, Control_c, 0, 64, 56
1, 197672, Control_c, 0, 64, 64
1, 197687, Control_c, 0, 64, 74
1, 197702, Control_c, 0, 64, 97
1, 197703, Note_on_c, 0, 81, 71
1, 197716, Control_c, 0, 64, 127
1, 197731, Note_off_c, 0, 65, 61
1, 197744, Note_off_c, 0, 86, 61
1, 197746, Note_off_c, 0, 62, 56
1, 197810, Note_on_c, 0, 77, 73
1, 197839, Note_off_c, 0, 81, 61
1, 197893, Note_off_c, 0, 77, 63
1, 197910, Note_on_c, 0, 74, 75
1, 197941, Note_off_c, 0, 74, 63
1, 197996, Note_on_c, 0, 69, 79
1, 198070, Note_on_c, 0, 65, 81
1, 198082, Note_off_c, 0, 69, 59
1, 198136, Note_on_c, 0, 62, 80
1, 198143, Note_off_c, 0, 65, 62
1, 198146, Control_c, 0, 64, 112
1, 198161, Control_c, 0, 64, 107
1, 198176, Control_c, 0, 64, 103
1, 198190, Control_c, 0, 64, 98
1, 198205, Control_c, 0, 64, 91
1, 198221, Control_c, 0, 64, 85
1, 198233, Note_on_c, 0, 57, 79
1, 198236, Control_c, 0, 64, 80
1, 198241, Note_off_c, 0, 62, 59
1, 198251, Control_c, 0, 64, 78
1, 198273, Control_c, 0, 64, 75
1, 198288, Control_c, 0, 64, 72
1, 198303, Control_c, 0, 64, 69
1, 198318, Control_c, 0, 64, 66
1, 198333, Control_c, 0, 64, 64
1, 198347, Control_c, 0, 64, 62
1, 198362, Control_c, 0, 64, 61
1, 198377, Control_c, 0, 64, 59
1, 198392, Control_c, 0, 64, 57
1, 198407, Control_c, 0, 64, 55
1, 198421, Control_c, 0, 64, 53
1, 198436, Control_c, 0, 64, 51
1, 198451, Control_c, 0, 64, 47
1, 198466, Control_c, 0, 64, 43
1, 198481, Control_c, 0, 64, 40
1, 198495, Control_c, 0, 64, 38
1, 198510, Control_c, 0, 64, 36
1, 198525, Control_c, 0, 64, 33
1, 198539, Control_c, 0, 64, 29
1, 198554, Control_c, 0, 64, 26
1, 198569, Control_c, 0, 64, 24
1, 198584, Control_c, 0, 64, 23
1, 198599, Control_c, 0, 64, 20
1, 198614, Control_c, 0, 64, 17
1, 198628, Control_c, 0, 64, 15
1, 198643, Control_c, 0, 64, 13
1, 198658, Control_c, 0, 64, 11
1, 198673, Control_c, 0, 64, 9
1, 198688, Control_c, 0, 64, 0
1, 199265, Note_on_c, 0, 56, 35
1, 199380, Note_off_c, 0, 57, 60
1, 199421, Control_c, 0, 64, 24
1, 199436, Control_c, 0, 64, 39
1, 199451, Control_c, 0, 64, 53
1, 199466, Control_c, 0, 64, 60
1, 199480, Control_c, 0, 64, 66
1, 199495, Control_c, 0, 64, 73
1, 199510, Control_c, 0, 64, 89
1, 199525, Control_c, 0, 64, 127
1, 199570, Note_off_c, 0, 56, 41
1, 199769, Control_c, 0, 64, 119
1, 199784, Control_c, 0, 64, 111
1, 199799, Control_c, 0, 64, 106
1, 199799, Note_on_c, 0, 59, 44
1, 199814, Control_c, 0, 64, 102
1, 199829, Control_c, 0, 64, 98
1, 199844, Control_c, 0, 64, 96
1, 199859, Control_c, 0, 64, 93
1, 199874, Control_c, 0, 64, 91
1, 199889, Control_c, 0, 64, 89
1, 199904, Control_c, 0, 64, 87
1, 199918, Control_c, 0, 64, 85
1, 199933, Control_c, 0, 64, 83
1, 199948, Control_c, 0, 64, 81
1, 199952, Note_on_c, 0, 60, 53
1, 199963, Control_c, 0, 64, 80
1, 199978, Control_c, 0, 64, 78
1, 199992, Control_c, 0, 64, 76
1, 200007, Control_c, 0, 64, 74
1, 200022, Control_c, 0, 64, 72
1, 200037, Control_c, 0, 64, 71
1, 200052, Control_c, 0, 64, 69
1, 200066, Control_c, 0, 64, 68
1, 200081, Control_c, 0, 64, 68
1, 200096, Control_c, 0, 64, 67
1, 200108, Note_off_c, 0, 59, 37
1, 200110, Control_c, 0, 64, 66
1, 200125, Control_c, 0, 64, 65
1, 200136, Note_on_c, 0, 62, 55
1, 200140, Control_c, 0, 64, 65
1, 200155, Control_c, 0, 64, 64
1, 200170, Control_c, 0, 64, 63
1, 200184, Control_c, 0, 64, 63
1, 200199, Control_c, 0, 64, 62
1, 200214, Control_c, 0, 64, 62
1, 200229, Control_c, 0, 64, 61
1, 200235, Note_off_c, 0, 60, 60
1, 200244, Control_c, 0, 64, 60
1, 200258, Control_c, 0, 64, 59
1, 200273, Control_c, 0, 64, 59
1, 200288, Control_c, 0, 64, 58
1, 200303, Control_c, 0, 64, 57
1, 200318, Control_c, 0, 64, 57
1, 200333, Control_c, 0, 64, 56
1, 200348, Control_c, 0, 64, 55
1, 200363, Control_c, 0, 64, 55
1, 200378, Control_c, 0, 64, 54
1, 200392, Control_c, 0, 64, 53
1, 200407, Control_c, 0, 64, 53
1, 200422, Control_c, 0, 64, 52
1, 200437, Control_c, 0, 64, 51
1, 200452, Control_c, 0, 64, 50
1, 200463, Note_on_c, 0, 60, 59
1, 200466, Control_c, 0, 64, 50
1, 200481, Control_c, 0, 64, 49
1, 200496, Control_c, 0, 64, 49
1, 200518, Control_c, 0, 64, 48
1, 200533, Control_c, 0, 64, 47
1, 200548, Control_c, 0, 64, 47
1, 200557, Note_off_c, 0, 62, 60
1, 200563, Control_c, 0, 64, 46
1, 200577, Control_c, 0, 64, 46
1, 200592, Control_c, 0, 64, 45
1, 200607, Control_c, 0, 64, 44
1, 200622, Note_on_c, 0, 59, 62
1, 200622, Control_c, 0, 64, 44
1, 200637, Control_c, 0, 64, 43
1, 200652, Control_c, 0, 64, 42
1, 200667, Control_c, 0, 64, 41
1, 200682, Control_c, 0, 64, 40
1, 200684, Note_off_c, 0, 60, 62
1, 200697, Control_c, 0, 64, 40
1, 200712, Control_c, 0, 64, 39
1, 200726, Control_c, 0, 64, 38
1, 200741, Control_c, 0, 64, 38
1, 200756, Control_c, 0, 64, 37
1, 200771, Control_c, 0, 64, 36
1, 200786, Control_c, 0, 64, 36
1, 200801, Control_c, 0, 64, 35
1, 200808, Note_on_c, 0, 60, 65
1, 200815, Control_c, 0, 64, 34
1, 200830, Control_c, 0, 64, 34
1, 200845, Control_c, 0, 64, 33
1, 200860, Control_c, 0, 64, 32
1, 200875, Control_c, 0, 64, 31
1, 200904, Control_c, 0, 64, 31
1, 200919, Control_c, 0, 64, 30
1, 200933, Control_c, 0, 64, 30
1, 200938, Note_off_c, 0, 59, 60
1, 200978, Control_c, 0, 64, 29
1, 201007, Control_c, 0, 64, 29
1, 201067, Control_c, 0, 64, 28
1, 201168, Note_on_c, 0, 57, 63
1, 201337, Note_off_c, 0, 60, 55
1, 201522, Note_on_c, 0, 58, 46
1, 201526, Note_on_c, 0, 62, 75
1, 201748, Note_off_c, 0, 57, 40
1, 201903, Note_on_c, 0, 56, 45
1, 202133, Note_off_c, 0, 58, 37
1, 202266, Note_on_c, 0, 61, 55
1, 202268, Note_on_c, 0, 57, 42
1, 202334, Note_off_c, 0, 62, 54
1, 202415, Note_off_c, 0, 56, 62
1, 202609, Note_on_c, 0, 55, 51
1, 202616, Note_on_c, 0, 64, 57
1, 202777, Note_on_c, 0, 65, 68
1, 202911, Note_off_c, 0, 61, 27
1, 202938, Note_off_c, 0, 64, 34
1, 202949, Note_on_c, 0, 52, 43
1, 202950, Note_on_c, 0, 67, 74
1, 203105, Control_c, 0, 64, 28
1, 203130, Note_off_c, 0, 65, 38
1, 203135, Control_c, 0, 64, 27
1, 203153, Note_off_c, 0, 55, 57
1, 203165, Control_c, 0, 64, 27
1, 203209, Control_c, 0, 64, 26
1, 203212, Note_off_c, 0, 57, 37
1, 203239, Control_c, 0, 64, 26
1, 203269, Control_c, 0, 64, 25
1, 203302, Note_on_c, 0, 49, 43
1, 203303, Note_on_c, 0, 65, 64
1, 203357, Control_c, 0, 64, 25
1, 203402, Control_c, 0, 64, 24
1, 203417, Note_off_c, 0, 67, 54
1, 203431, Control_c, 0, 64, 24
1, 203461, Control_c, 0, 64, 23
1, 203470, Note_on_c, 0, 64, 73
1, 203490, Control_c, 0, 64, 23
1, 203528, Control_c, 0, 64, 22
1, 203541, Note_off_c, 0, 52, 36
1, 203542, Control_c, 0, 64, 22
1, 203563, Note_off_c, 0, 65, 60
1, 203572, Control_c, 0, 64, 21
1, 203616, Control_c, 0, 64, 20
1, 203661, Control_c, 0, 64, 19
1, 203670, Note_on_c, 0, 50, 50
1, 203674, Note_on_c, 0, 65, 71
1, 203720, Control_c, 0, 64, 19
1, 203764, Control_c, 0, 64, 18
1, 203810, Control_c, 0, 64, 17
1, 203855, Control_c, 0, 64, 16
1, 203863, Note_off_c, 0, 64, 56
1, 203927, Note_off_c, 0, 49, 36
1, 203988, Control_c, 0, 64, 15
1, 204053, Note_on_c, 0, 62, 71
1, 204271, Note_off_c, 0, 65, 54
1, 204442, Note_off_c, 0, 50, 34
1, 204470, Note_on_c, 0, 67, 76
1, 204485, Note_on_c, 0, 63, 49
1, 204685, Note_off_c, 0, 62, 56
1, 204862, Note_on_c, 0, 61, 45
1, 204870, Note_on_c, 0, 51, 43
1, 204930, Note_off_c, 0, 63, 53
1, 205263, Note_on_c, 0, 50, 41
1, 205263, Note_on_c, 0, 66, 59
1, 205265, Note_on_c, 0, 62, 37
1, 205266, Note_off_c, 0, 61, 57
1, 205293, Control_c, 0, 64, 22
1, 205301, Note_off_c, 0, 51, 36
1, 205307, Control_c, 0, 64, 30
1, 205314, Note_off_c, 0, 67, 59
1, 205322, Control_c, 0, 64, 40
1, 205337, Control_c, 0, 64, 50
1, 205352, Control_c, 0, 64, 59
1, 205367, Control_c, 0, 64, 65
1, 205381, Control_c, 0, 64, 73
1, 205396, Control_c, 0, 64, 90
1, 205412, Control_c, 0, 64, 127
1, 205433, Note_off_c, 0, 62, 53
1, 205625, Note_on_c, 0, 55, 50
1, 205639, Note_on_c, 0, 69, 66
1, 205651, Note_on_c, 0, 63, 47
1, 205693, Control_c, 0, 64, 115
1, 205708, Control_c, 0, 64, 108
1, 205722, Control_c, 0, 64, 103
1, 205737, Note_off_c, 0, 50, 40
1, 205737, Control_c, 0, 64, 99
1, 205760, Control_c, 0, 64, 96
1, 205775, Control_c, 0, 64, 93
1, 205790, Control_c, 0, 64, 91
1, 205799, Note_on_c, 0, 70, 77
1, 205804, Control_c, 0, 64, 89
1, 205819, Control_c, 0, 64, 87
1, 205834, Control_c, 0, 64, 84
1, 205849, Control_c, 0, 64, 82
1, 205864, Control_c, 0, 64, 79
1, 205866, Note_off_c, 0, 66, 37
1, 205875, Note_off_c, 0, 69, 49
1, 205878, Control_c, 0, 64, 77
1, 205893, Control_c, 0, 64, 76
1, 205908, Control_c, 0, 64, 75
1, 205923, Control_c, 0, 64, 75
1, 205937, Control_c, 0, 64, 74
1, 205952, Control_c, 0, 64, 73
1, 205967, Control_c, 0, 64, 71
1, 205976, Note_off_c, 0, 63, 63
1, 205982, Control_c, 0, 64, 70
1, 205986, Note_on_c, 0, 72, 85
1, 205988, Note_on_c, 0, 54, 51
1, 205997, Control_c, 0, 64, 69
1, 206002, Note_on_c, 0, 62, 61
1, 206012, Control_c, 0, 64, 68
1, 206027, Control_c, 0, 64, 68
1, 206041, Control_c, 0, 64, 66
1, 206047, Note_off_c, 0, 70, 58
1, 206056, Control_c, 0, 64, 63
1, 206071, Control_c, 0, 64, 56
1, 206077, Note_off_c, 0, 55, 48
1, 206086, Control_c, 0, 64, 45
1, 206101, Control_c, 0, 64, 35
1, 206115, Control_c, 0, 64, 28
1, 206129, Control_c, 0, 64, 26
1, 206159, Control_c, 0, 64, 30
1, 206174, Control_c, 0, 64, 38
1, 206189, Control_c, 0, 64, 47
1, 206205, Control_c, 0, 64, 54
1, 206220, Control_c, 0, 64, 59
1, 206234, Control_c, 0, 64, 63
1, 206249, Control_c, 0, 64, 69
1, 206264, Control_c, 0, 64, 79
1, 206279, Control_c, 0, 64, 98
1, 206284, Note_off_c, 0, 62, 35
1, 206294, Control_c, 0, 64, 127
1, 206352, Note_on_c, 0, 62, 36
1, 206356, Note_on_c, 0, 70, 80
1, 206371, Note_on_c, 0, 66, 57
1, 206405, Note_off_c, 0, 54, 30
1, 206413, Note_off_c, 0, 72, 61
1, 206523, Control_c, 0, 64, 119
1, 206533, Note_off_c, 0, 70, 65
1, 206538, Control_c, 0, 64, 107
1, 206545, Note_on_c, 0, 69, 84
1, 206552, Control_c, 0, 64, 99
1, 206567, Control_c, 0, 64, 93
1, 206582, Control_c, 0, 64, 90
1, 206597, Control_c, 0, 64, 87
1, 206602, Note_off_c, 0, 66, 47
1, 206612, Control_c, 0, 64, 85
1, 206626, Control_c, 0, 64, 82
1, 206641, Control_c, 0, 64, 79
1, 206656, Control_c, 0, 64, 77
1, 206671, Control_c, 0, 64, 75
1, 206686, Control_c, 0, 64, 72
1, 206700, Control_c, 0, 64, 69
1, 206715, Control_c, 0, 64, 63
1, 206730, Control_c, 0, 64, 56
1, 206745, Control_c, 0, 64, 46
1, 206751, Note_on_c, 0, 70, 82
1, 206757, Note_on_c, 0, 67, 57
1, 206760, Control_c, 0, 64, 32
1, 206775, Control_c, 0, 64, 9
1, 206781, Note_off_c, 0, 69, 61
1, 206790, Control_c, 0, 64, 0
1, 206849, Control_c, 0, 64, 22
1, 206864, Control_c, 0, 64, 42
1, 206879, Control_c, 0, 64, 56
1, 206894, Control_c, 0, 64, 64
1, 206900, Note_off_c, 0, 67, 55
1, 206908, Control_c, 0, 64, 69
1, 206923, Control_c, 0, 64, 77
1, 206938, Control_c, 0, 64, 96
1, 206952, Control_c, 0, 64, 127
1, 206966, Note_off_c, 0, 62, 60
1, 207156, Note_on_c, 0, 67, 69
1, 207161, Control_c, 0, 64, 112
1, 207162, Note_on_c, 0, 62, 47
1, 207167, Note_on_c, 0, 58, 52
1, 207175, Control_c, 0, 64, 102
1, 207190, Control_c, 0, 64, 92
1, 207205, Control_c, 0, 64, 80
1, 207220, Control_c, 0, 64, 67
1, 207235, Control_c, 0, 64, 52
1, 207257, Control_c, 0, 64, 26
1, 207272, Control_c, 0, 64, 23
1, 207287, Control_c, 0, 64, 24
1, 207302, Control_c, 0, 64, 33
1, 207315, Note_off_c, 0, 70, 61
1, 207317, Control_c, 0, 64, 44
1, 207331, Control_c, 0, 64, 52
1, 207346, Control_c, 0, 64, 58
1, 207361, Control_c, 0, 64, 63
1, 207376, Control_c, 0, 64, 68
1, 207390, Control_c, 0, 64, 75
1, 207405, Control_c, 0, 64, 88
1, 207420, Control_c, 0, 64, 117
1, 207435, Control_c, 0, 64, 127
1, 207444, Note_off_c, 0, 67, 54
1, 207478, Note_off_c, 0, 58, 59
1, 207504, Note_off_c, 0, 62, 27
1, 207628, Control_c, 0, 64, 119
1, 207643, Control_c, 0, 64, 110
1, 207657, Control_c, 0, 64, 104
1, 207663, Note_on_c, 0, 50, 39
1, 207672, Note_on_c, 0, 59, 35
1, 207672, Note_on_c, 0, 68, 53
1, 207672, Control_c, 0, 64, 100
1, 207675, Note_on_c, 0, 38, 43
1, 207682, Note_on_c, 0, 65, 41
1, 207687, Control_c, 0, 64, 98
1, 207702, Control_c, 0, 64, 95
1, 207717, Control_c, 0, 64, 93
1, 207732, Control_c, 0, 64, 90
1, 207746, Control_c, 0, 64, 86
1, 207761, Control_c, 0, 64, 80
1, 207776, Control_c, 0, 64, 72
1, 207791, Control_c, 0, 64, 62
1, 207806, Control_c, 0, 64, 39
1, 207821, Control_c, 0, 64, 0
1, 207881, Control_c, 0, 64, 25
1, 207896, Control_c, 0, 64, 43
1, 207910, Control_c, 0, 64, 57
1, 207922, Note_off_c, 0, 65, 38
1, 207925, Control_c, 0, 64, 63
1, 207940, Control_c, 0, 64, 68
1, 207955, Control_c, 0, 64, 74
1, 207958, Note_off_c, 0, 59, 61
1, 207970, Control_c, 0, 64, 85
1, 207981, Note_off_c, 0, 68, 60
1, 207985, Control_c, 0, 64, 101
1, 208006, Control_c, 0, 64, 127
1, 208182, Note_on_c, 0, 65, 50
1, 208193, Note_on_c, 0, 53, 37
1, 208217, Note_on_c, 0, 59, 21
1, 208229, Note_off_c, 0, 38, 37
1, 208333, Control_c, 0, 64, 125
1, 208348, Control_c, 0, 64, 120
1, 208362, Control_c, 0, 64, 117
1, 208377, Control_c, 0, 64, 115
1, 208385, Note_off_c, 0, 59, 39
1, 208392, Control_c, 0, 64, 115
1, 208406, Control_c, 0, 64, 114
1, 208417, Note_off_c, 0, 53, 41
1, 208421, Control_c, 0, 64, 112
1, 208436, Control_c, 0, 64, 111
1, 208451, Control_c, 0, 64, 109
1, 208466, Control_c, 0, 64, 106
1, 208480, Control_c, 0, 64, 104
1, 208495, Control_c, 0, 64, 101
1, 208510, Control_c, 0, 64, 99
1, 208525, Control_c, 0, 64, 98
1, 208539, Control_c, 0, 64, 96
1, 208543, Note_off_c, 0, 50, 32
1, 208554, Control_c, 0, 64, 95
1, 208569, Note_off_c, 0, 65, 54
1, 208569, Control_c, 0, 64, 93
1, 208584, Control_c, 0, 64, 91
1, 208600, Control_c, 0, 64, 89
1, 208606, Note_on_c, 0, 64, 43
1, 208611, Note_on_c, 0, 55, 27
1, 208615, Control_c, 0, 64, 87
1, 208618, Note_on_c, 0, 60, 43
1, 208624, Note_on_c, 0, 36, 38
1, 208629, Control_c, 0, 64, 84
1, 208644, Control_c, 0, 64, 82
1, 208659, Control_c, 0, 64, 79
1, 208674, Control_c, 0, 64, 75
1, 208689, Control_c, 0, 64, 68
1, 208703, Control_c, 0, 64, 59
1, 208718, Control_c, 0, 64, 34
1, 208733, Control_c, 0, 64, 13
1, 208756, Control_c, 0, 64, 16
1, 208771, Control_c, 0, 64, 25
1, 208785, Control_c, 0, 64, 38
1, 208800, Control_c, 0, 64, 50
1, 208815, Control_c, 0, 64, 57
1, 208829, Control_c, 0, 64, 62
1, 208844, Control_c, 0, 64, 66
1, 208848, Note_off_c, 0, 55, 43
1, 208859, Control_c, 0, 64, 71
1, 208874, Control_c, 0, 64, 77
1, 208889, Control_c, 0, 64, 85
1, 208903, Control_c, 0, 64, 91
1, 208918, Control_c, 0, 64, 93
1, 208931, Note_off_c, 0, 60, 27
1, 208948, Control_c, 0, 64, 92
1, 208963, Control_c, 0, 64, 92
1, 208992, Note_off_c, 0, 36, 34
1, 208993, Control_c, 0, 64, 91
1, 209005, Note_off_c, 0, 64, 24
1, 209007, Control_c, 0, 64, 91
1, 209010, Note_on_c, 0, 67, 50
1, 209016, Note_on_c, 0, 40, 38
1, 209022, Control_c, 0, 64, 90
1, 209028, Note_on_c, 0, 55, 33
1, 209033, Note_on_c, 0, 48, 31
1, 209037, Control_c, 0, 64, 89
1, 209052, Control_c, 0, 64, 89
1, 209067, Control_c, 0, 64, 88
1, 209075, Note_off_c, 0, 67, 57
1, 209082, Control_c, 0, 64, 88
1, 209097, Control_c, 0, 64, 87
1, 209111, Control_c, 0, 64, 86
1, 209126, Control_c, 0, 64, 85
1, 209141, Control_c, 0, 64, 84
1, 209155, Control_c, 0, 64, 83
1, 209162, Note_on_c, 0, 41, 49
1, 209170, Control_c, 0, 64, 82
1, 209183, Note_on_c, 0, 57, 52
1, 209185, Control_c, 0, 64, 80
1, 209200, Control_c, 0, 64, 79
1, 209215, Control_c, 0, 64, 77
1, 209222, Note_off_c, 0, 40, 38
1, 209229, Control_c, 0, 64, 76
1, 209244, Control_c, 0, 64, 74
1, 209259, Control_c, 0, 64, 73
1, 209274, Control_c, 0, 64, 71
1, 209289, Control_c, 0, 64, 69
1, 209303, Control_c, 0, 64, 68
1, 209318, Control_c, 0, 64, 66
1, 209333, Control_c, 0, 64, 65
1, 209347, Control_c, 0, 64, 64
1, 209362, Control_c, 0, 64, 63
1, 209371, Note_on_c, 0, 43, 43
1, 209377, Control_c, 0, 64, 63
1, 209378, Note_on_c, 0, 60, 50
1, 209380, Note_on_c, 0, 58, 36
1, 209393, Control_c, 0, 64, 62
1, 209408, Control_c, 0, 64, 62
1, 209423, Control_c, 0, 64, 61
1, 209437, Note_off_c, 0, 57, 36
1, 209438, Control_c, 0, 64, 60
1, 209452, Control_c, 0, 64, 59
1, 209467, Control_c, 0, 64, 58
1, 209475, Note_off_c, 0, 41, 36
1, 209482, Control_c, 0, 64, 57
1, 209505, Control_c, 0, 64, 56
1, 209520, Control_c, 0, 64, 56
1, 209534, Control_c, 0, 64, 55
1, 209549, Control_c, 0, 64, 54
1, 209555, Note_off_c, 0, 55, 37
1, 209564, Control_c, 0, 64, 54
1, 209578, Control_c, 0, 64, 53
1, 209593, Control_c, 0, 64, 52
1, 209608, Control_c, 0, 64, 52
1, 209638, Control_c, 0, 64, 51
1, 209652, Control_c, 0, 64, 50
1, 209667, Control_c, 0, 64, 50
1, 209697, Control_c, 0, 64, 49
1, 209712, Control_c, 0, 64, 49
1, 209726, Control_c, 0, 64, 48
1, 209741, Control_c, 0, 64, 48
1, 209756, Control_c, 0, 64, 47
1, 209765, Note_on_c, 0, 57, 46
1, 209777, Note_on_c, 0, 41, 40
1, 209785, Control_c, 0, 64, 47
1, 209815, Control_c, 0, 64, 46
1, 209830, Control_c, 0, 64, 46
1, 209839, Note_off_c, 0, 43, 49
1, 209856, Note_off_c, 0, 58, 34
1, 209874, Control_c, 0, 64, 45
1, 209919, Control_c, 0, 64, 45
1, 209933, Control_c, 0, 64, 44
1, 209945, Note_on_c, 0, 55, 52
1, 209948, Control_c, 0, 64, 44
1, 209958, Note_on_c, 0, 40, 38
1, 209963, Control_c, 0, 64, 43
1, 209975, Note_off_c, 0, 57, 58
1, 209977, Control_c, 0, 64, 42
1, 209985, Note_off_c, 0, 41, 40
1, 209992, Control_c, 0, 64, 41
1, 210007, Control_c, 0, 64, 40
1, 210022, Control_c, 0, 64, 38
1, 210037, Control_c, 0, 64, 37
1, 210051, Control_c, 0, 64, 36
1, 210066, Control_c, 0, 64, 35
1, 210081, Control_c, 0, 64, 34
1, 210096, Control_c, 0, 64, 32
1, 210111, Control_c, 0, 64, 31
1, 210125, Control_c, 0, 64, 30
1, 210137, Note_on_c, 0, 41, 37
1, 210148, Note_on_c, 0, 57, 47
1, 210157, Note_off_c, 0, 55, 57
1, 210165, Note_off_c, 0, 40, 45
1, 210215, Control_c, 0, 64, 33
1, 210230, Control_c, 0, 64, 40
1, 210253, Control_c, 0, 64, 50
1, 210268, Control_c, 0, 64, 56
1, 210282, Control_c, 0, 64, 60
1, 210297, Control_c, 0, 64, 64
1, 210312, Note_off_c, 0, 48, 39
1, 210312, Control_c, 0, 64, 69
1, 210327, Control_c, 0, 64, 79
1, 210331, Note_off_c, 0, 41, 53
1, 210333, Note_off_c, 0, 57, 63
1, 210342, Control_c, 0, 64, 99
1, 210356, Control_c, 0, 64, 127
1, 210358, Note_off_c, 0, 60, 63
1, 210519, Control_c, 0, 64, 120
1, 210534, Control_c, 0, 64, 112
1, 210549, Control_c, 0, 64, 109
1, 210558, Note_on_c, 0, 65, 58
1, 210560, Note_on_c, 0, 45, 40
1, 210563, Control_c, 0, 64, 106
1, 210571, Note_on_c, 0, 60, 38
1, 210574, Note_on_c, 0, 48, 36
1, 210578, Control_c, 0, 64, 103
1, 210593, Control_c, 0, 64, 101
1, 210607, Control_c, 0, 64, 99
1, 210622, Control_c, 0, 64, 96
1, 210637, Control_c, 0, 64, 93
1, 210652, Control_c, 0, 64, 91
1, 210667, Control_c, 0, 64, 89
1, 210681, Control_c, 0, 64, 88
1, 210696, Control_c, 0, 64, 86
1, 210711, Control_c, 0, 64, 84
1, 210726, Control_c, 0, 64, 83
1, 210741, Control_c, 0, 64, 82
1, 210755, Control_c, 0, 64, 81
1, 210770, Control_c, 0, 64, 80
1, 210785, Control_c, 0, 64, 79
1, 210799, Control_c, 0, 64, 77
1, 210814, Control_c, 0, 64, 76
1, 210829, Control_c, 0, 64, 75
1, 210844, Control_c, 0, 64, 74
1, 210859, Control_c, 0, 64, 73
1, 210873, Control_c, 0, 64, 72
1, 210888, Control_c, 0, 64, 71
1, 210903, Control_c, 0, 64, 70
1, 210918, Control_c, 0, 64, 69
1, 210932, Note_on_c, 0, 58, 58
1, 210933, Control_c, 0, 64, 68
1, 210933, Note_on_c, 0, 43, 51
1, 210936, Note_on_c, 0, 64, 67
1, 210948, Control_c, 0, 64, 67
1, 210963, Control_c, 0, 64, 66
1, 210978, Control_c, 0, 64, 65
1, 211001, Control_c, 0, 64, 64
1, 211016, Control_c, 0, 64, 64
1, 211030, Control_c, 0, 64, 63
1, 211045, Control_c, 0, 64, 62
1, 211060, Control_c, 0, 64, 62
1, 211075, Control_c, 0, 64, 61
1, 211090, Control_c, 0, 64, 61
1, 211104, Control_c, 0, 64, 60
1, 211109, Note_off_c, 0, 65, 35
1, 211119, Control_c, 0, 64, 60
1, 211134, Control_c, 0, 64, 59
1, 211149, Control_c, 0, 64, 59
1, 211160, Note_off_c, 0, 60, 38
1, 211164, Control_c, 0, 64, 58
1, 211193, Control_c, 0, 64, 58
1, 211208, Control_c, 0, 64, 57
1, 211216, Note_off_c, 0, 45, 54
1, 211222, Control_c, 0, 64, 57
1, 211252, Control_c, 0, 64, 56
1, 211267, Control_c, 0, 64, 56
1, 211282, Control_c, 0, 64, 55
1, 211297, Control_c, 0, 64, 54
1, 211312, Control_c, 0, 64, 54
1, 211313, Note_on_c, 0, 57, 72
1, 211318, Note_on_c, 0, 41, 59
1, 211318, Note_on_c, 0, 65, 75
1, 211327, Control_c, 0, 64, 53
1, 211341, Control_c, 0, 64, 51
1, 211357, Control_c, 0, 64, 47
1, 211371, Control_c, 0, 64, 41
1, 211386, Control_c, 0, 64, 33
1, 211395, Note_off_c, 0, 64, 58
1, 211401, Control_c, 0, 64, 25
1, 211416, Control_c, 0, 64, 23
1, 211416, Note_off_c, 0, 58, 61
1, 211431, Control_c, 0, 64, 23
1, 211476, Control_c, 0, 64, 25
1, 211490, Note_off_c, 0, 43, 51
1, 211491, Control_c, 0, 64, 32
1, 211505, Control_c, 0, 64, 41
1, 211520, Control_c, 0, 64, 51
1, 211535, Control_c, 0, 64, 59
1, 211550, Control_c, 0, 64, 64
1, 211564, Control_c, 0, 64, 69
1, 211579, Control_c, 0, 64, 78
1, 211590, Note_off_c, 0, 57, 60
1, 211594, Control_c, 0, 64, 92
1, 211609, Control_c, 0, 64, 127
1, 211713, Note_on_c, 0, 67, 77
1, 211718, Note_on_c, 0, 40, 59
1, 211718, Note_on_c, 0, 55, 68
1, 211751, Note_off_c, 0, 41, 29
1, 211764, Control_c, 0, 64, 113
1, 211775, Note_off_c, 0, 65, 57
1, 211779, Control_c, 0, 64, 93
1, 211784, Note_off_c, 0, 48, 40
1, 211794, Control_c, 0, 64, 77
1, 211809, Control_c, 0, 64, 63
1, 211824, Control_c, 0, 64, 34
1, 211839, Control_c, 0, 64, 0
1, 211914, Control_c, 0, 64, 39
1, 211928, Control_c, 0, 64, 54
1, 211943, Control_c, 0, 64, 61
1, 211958, Control_c, 0, 64, 64
1, 211973, Control_c, 0, 64, 68
1, 211985, Note_off_c, 0, 55, 54
1, 211988, Control_c, 0, 64, 74
1, 212002, Control_c, 0, 64, 87
1, 212017, Control_c, 0, 64, 127
1, 212071, Note_off_c, 0, 40, 57
1, 212118, Note_on_c, 0, 55, 74
1, 212187, Note_off_c, 0, 67, 38
1, 212286, Note_on_c, 0, 57, 87
1, 212367, Note_off_c, 0, 55, 56
1, 212460, Control_c, 0, 64, 113
1, 212475, Control_c, 0, 64, 104
1, 212482, Note_on_c, 0, 61, 82
1, 212492, Note_on_c, 0, 39, 67
1, 212497, Note_on_c, 0, 58, 69
1, 212498, Control_c, 0, 64, 98
1, 212504, Note_on_c, 0, 55, 57
1, 212513, Control_c, 0, 64, 92
1, 212527, Control_c, 0, 64, 86
1, 212542, Control_c, 0, 64, 81
1, 212557, Control_c, 0, 64, 77
1, 212560, Note_off_c, 0, 57, 51
1, 212571, Control_c, 0, 64, 73
1, 212586, Control_c, 0, 64, 71
1, 212602, Control_c, 0, 64, 68
1, 212617, Control_c, 0, 64, 66
1, 212632, Control_c, 0, 64, 64
1, 212647, Control_c, 0, 64, 62
1, 212662, Control_c, 0, 64, 60
1, 212676, Control_c, 0, 64, 59
1, 212691, Control_c, 0, 64, 58
1, 212706, Control_c, 0, 64, 57
1, 212721, Control_c, 0, 64, 56
1, 212736, Control_c, 0, 64, 54
1, 212750, Control_c, 0, 64, 53
1, 212765, Control_c, 0, 64, 52
1, 212780, Control_c, 0, 64, 50
1, 212794, Control_c, 0, 64, 49
1, 212809, Control_c, 0, 64, 48
1, 212824, Control_c, 0, 64, 47
1, 212839, Control_c, 0, 64, 46
1, 212854, Control_c, 0, 64, 43
1, 212868, Control_c, 0, 64, 42
1, 212883, Control_c, 0, 64, 41
1, 212898, Control_c, 0, 64, 41
1, 212913, Note_on_c, 0, 57, 66
1, 212913, Control_c, 0, 64, 40
1, 212928, Control_c, 0, 64, 38
1, 212942, Control_c, 0, 64, 36
1, 212957, Control_c, 0, 64, 36
1, 212972, Control_c, 0, 64, 35
1, 212987, Control_c, 0, 64, 34
1, 212994, Note_off_c, 0, 55, 61
1, 213002, Control_c, 0, 64, 33
1, 213017, Control_c, 0, 64, 32
1, 213032, Control_c, 0, 64, 31
1, 213047, Control_c, 0, 64, 29
1, 213061, Control_c, 0, 64, 27
1, 213076, Control_c, 0, 64, 26
1, 213087, Note_off_c, 0, 58, 26
1, 213091, Control_c, 0, 64, 24
1, 213100, Note_on_c, 0, 55, 75
1, 213106, Control_c, 0, 64, 23
1, 213121, Control_c, 0, 64, 22
1, 213135, Control_c, 0, 64, 19
1, 213150, Control_c, 0, 64, 17
1, 213165, Control_c, 0, 64, 15
1, 213180, Control_c, 0, 64, 14
1, 213194, Control_c, 0, 64, 13
1, 213209, Control_c, 0, 64, 9
1, 213224, Control_c, 0, 64, 0
1, 213318, Note_on_c, 0, 58, 55
1, 213326, Note_on_c, 0, 62, 73
1, 213334, Note_on_c, 0, 38, 51
1, 213354, Note_off_c, 0, 57, 55
1, 213360, Note_off_c, 0, 39, 49
1, 213380, Note_off_c, 0, 61, 60
1, 213425, Control_c, 0, 64, 13
1, 213440, Control_c, 0, 64, 27
1, 213455, Control_c, 0, 64, 40
1, 213470, Control_c, 0, 64, 51
1, 213485, Control_c, 0, 64, 57
1, 213499, Control_c, 0, 64, 63
1, 213514, Control_c, 0, 64, 67
1, 213529, Control_c, 0, 64, 75
1, 213544, Control_c, 0, 64, 91
1, 213547, Note_off_c, 0, 58, 63
1, 213559, Control_c, 0, 64, 127
1, 213577, Note_off_c, 0, 55, 59
1, 213606, Note_off_c, 0, 62, 63
1, 213676, Note_off_c, 0, 38, 29
1, 213762, Note_on_c, 0, 46, 52
1, 213763, Note_on_c, 0, 67, 80
1, 213768, Note_on_c, 0, 50, 48
1, 213779, Note_on_c, 0, 62, 60
1, 213869, Control_c, 0, 64, 112
1, 213884, Control_c, 0, 64, 105
1, 213899, Control_c, 0, 64, 101
1, 213914, Control_c, 0, 64, 97
1, 213929, Control_c, 0, 64, 94
1, 213944, Control_c, 0, 64, 90
1, 213959, Control_c, 0, 64, 87
1, 213973, Control_c, 0, 64, 84
1, 213995, Control_c, 0, 64, 82
1, 214010, Control_c, 0, 64, 79
1, 214024, Control_c, 0, 64, 76
1, 214039, Control_c, 0, 64, 74
1, 214054, Control_c, 0, 64, 73
1, 214069, Control_c, 0, 64, 72
1, 214084, Control_c, 0, 64, 71
1, 214099, Control_c, 0, 64, 69
1, 214114, Control_c, 0, 64, 68
1, 214129, Control_c, 0, 64, 67
1, 214144, Control_c, 0, 64, 66
1, 214145, Note_on_c, 0, 45, 72
1, 214146, Note_on_c, 0, 66, 81
1, 214151, Note_on_c, 0, 60, 70
1, 214158, Control_c, 0, 64, 66
1, 214173, Control_c, 0, 64, 65
1, 214188, Control_c, 0, 64, 64
1, 214203, Control_c, 0, 64, 64
1, 214218, Control_c, 0, 64, 63
1, 214226, Note_off_c, 0, 67, 54
1, 214233, Control_c, 0, 64, 62
1, 214248, Control_c, 0, 64, 61
1, 214263, Control_c, 0, 64, 60
1, 214293, Control_c, 0, 64, 59
1, 214313, Note_off_c, 0, 62, 51
1, 214322, Control_c, 0, 64, 59
1, 214352, Control_c, 0, 64, 58
1, 214367, Control_c, 0, 64, 58
1, 214396, Note_off_c, 0, 46, 52
1, 214396, Control_c, 0, 64, 57
1, 214440, Control_c, 0, 64, 57
1, 214500, Control_c, 0, 64, 56
1, 214544, Control_c, 0, 64, 55
1, 214546, Note_on_c, 0, 43, 73
1, 214548, Note_on_c, 0, 67, 87
1, 214549, Note_on_c, 0, 58, 78
1, 214559, Control_c, 0, 64, 53
1, 214574, Control_c, 0, 64, 47
1, 214575, Note_off_c, 0, 66, 66
1, 214588, Control_c, 0, 64, 40
1, 214603, Control_c, 0, 64, 33
1, 214610, Note_off_c, 0, 60, 58
1, 214618, Control_c, 0, 64, 28
1, 214633, Control_c, 0, 64, 25
1, 214665, Note_off_c, 0, 45, 56
1, 214692, Control_c, 0, 64, 31
1, 214707, Control_c, 0, 64, 43
1, 214722, Control_c, 0, 64, 54
1, 214744, Control_c, 0, 64, 60
1, 214759, Control_c, 0, 64, 64
1, 214773, Control_c, 0, 64, 68
1, 214788, Control_c, 0, 64, 78
1, 214803, Control_c, 0, 64, 109
1, 214818, Control_c, 0, 64, 127
1, 214853, Note_off_c, 0, 67, 58
1, 214900, Note_off_c, 0, 58, 61
1, 214905, Note_off_c, 0, 43, 54
1, 214957, Note_on_c, 0, 42, 77
1, 214969, Note_on_c, 0, 69, 93
1, 214976, Note_on_c, 0, 57, 73
1, 214989, Note_off_c, 0, 50, 31
1, 215011, Control_c, 0, 64, 112
1, 215026, Control_c, 0, 64, 79
1, 215041, Control_c, 0, 64, 62
1, 215056, Control_c, 0, 64, 31
1, 215071, Control_c, 0, 64, 0
1, 215116, Control_c, 0, 64, 27
1, 215131, Control_c, 0, 64, 44
1, 215145, Control_c, 0, 64, 54
1, 215160, Control_c, 0, 64, 60
1, 215175, Control_c, 0, 64, 65
1, 215190, Control_c, 0, 64, 70
1, 215205, Control_c, 0, 64, 83
1, 215220, Control_c, 0, 64, 127
1, 215245, Note_off_c, 0, 57, 55
1, 215261, Note_off_c, 0, 42, 57
1, 215361, Note_on_c, 0, 57, 77
1, 215464, Note_off_c, 0, 69, 54
1, 215547, Note_on_c, 0, 59, 91
1, 215611, Note_off_c, 0, 57, 59
1, 215759, Note_on_c, 0, 41, 79
1, 215761, Note_on_c, 0, 63, 88
1, 215766, Note_on_c, 0, 60, 74
1, 215771, Note_on_c, 0, 57, 69
1, 215791, Control_c, 0, 64, 119
1, 215806, Control_c, 0, 64, 108
1, 215812, Note_off_c, 0, 59, 59
1, 215821, Control_c, 0, 64, 101
1, 215835, Control_c, 0, 64, 94
1, 215850, Control_c, 0, 64, 90
1, 215865, Control_c, 0, 64, 86
1, 215880, Control_c, 0, 64, 83
1, 215894, Control_c, 0, 64, 80
1, 215909, Control_c, 0, 64, 78
1, 215924, Control_c, 0, 64, 75
1, 215939, Control_c, 0, 64, 72
1, 215954, Control_c, 0, 64, 70
1, 215968, Control_c, 0, 64, 68
1, 215983, Control_c, 0, 64, 66
1, 215998, Control_c, 0, 64, 64
1, 216013, Control_c, 0, 64, 63
1, 216027, Control_c, 0, 64, 61
1, 216042, Control_c, 0, 64, 61
1, 216057, Control_c, 0, 64, 60
1, 216072, Control_c, 0, 64, 60
1, 216087, Control_c, 0, 64, 59
1, 216102, Control_c, 0, 64, 58
1, 216117, Control_c, 0, 64, 57
1, 216132, Control_c, 0, 64, 57
1, 216147, Control_c, 0, 64, 56
1, 216161, Control_c, 0, 64, 55
1, 216176, Control_c, 0, 64, 55
1, 216191, Control_c, 0, 64, 54
1, 216194, Note_on_c, 0, 59, 67
1, 216206, Control_c, 0, 64, 54
1, 216220, Control_c, 0, 64, 53
1, 216242, Control_c, 0, 64, 52
1, 216257, Control_c, 0, 64, 52
1, 216272, Control_c, 0, 64, 51
1, 216275, Note_off_c, 0, 60, 55
1, 216286, Note_off_c, 0, 57, 56
1, 216287, Control_c, 0, 64, 50
1, 216302, Control_c, 0, 64, 49
1, 216317, Control_c, 0, 64, 49
1, 216331, Control_c, 0, 64, 48
1, 216346, Control_c, 0, 64, 48
1, 216361, Control_c, 0, 64, 47
1, 216376, Control_c, 0, 64, 46
1, 216387, Note_on_c, 0, 57, 84
1, 216391, Control_c, 0, 64, 45
1, 216406, Control_c, 0, 64, 44
1, 216420, Control_c, 0, 64, 44
1, 216435, Control_c, 0, 64, 43
1, 216450, Control_c, 0, 64, 43
1, 216465, Control_c, 0, 64, 42
1, 216480, Control_c, 0, 64, 41
1, 216494, Control_c, 0, 64, 39
1, 216509, Control_c, 0, 64, 38
1, 216524, Control_c, 0, 64, 36
1, 216539, Control_c, 0, 64, 35
1, 216554, Control_c, 0, 64, 33
1, 216568, Control_c, 0, 64, 31
1, 216583, Control_c, 0, 64, 29
1, 216598, Control_c, 0, 64, 27
1, 216613, Note_on_c, 0, 40, 59
1, 216613, Control_c, 0, 64, 24
1, 216619, Note_on_c, 0, 60, 54
1, 216621, Note_on_c, 0, 64, 79
1, 216628, Control_c, 0, 64, 22
1, 216642, Control_c, 0, 64, 19
1, 216646, Note_off_c, 0, 59, 61
1, 216657, Control_c, 0, 64, 14
1, 216672, Control_c, 0, 64, 0
1, 216677, Note_off_c, 0, 63, 59
1, 216678, Note_off_c, 0, 41, 55
1, 216761, Control_c, 0, 64, 11
1, 216776, Control_c, 0, 64, 26
1, 216791, Control_c, 0, 64, 38
1, 216805, Control_c, 0, 64, 47
1, 216820, Control_c, 0, 64, 52
1, 216835, Control_c, 0, 64, 57
1, 216842, Note_off_c, 0, 57, 59
1, 216850, Control_c, 0, 64, 62
1, 216865, Control_c, 0, 64, 66
1, 216880, Control_c, 0, 64, 73
1, 216895, Control_c, 0, 64, 86
1, 216898, Note_off_c, 0, 60, 61
1, 216909, Control_c, 0, 64, 112
1, 216924, Control_c, 0, 64, 127
1, 216990, Note_off_c, 0, 40, 52
1, 217065, Note_on_c, 0, 60, 74
1, 217067, Note_off_c, 0, 64, 55
1, 217296, Note_on_c, 0, 62, 68
1, 217302, Control_c, 0, 64, 116
1, 217316, Control_c, 0, 64, 110
1, 217331, Control_c, 0, 64, 107
1, 217346, Control_c, 0, 64, 104
1, 217360, Control_c, 0, 64, 101
1, 217375, Control_c, 0, 64, 97
1, 217392, Control_c, 0, 64, 93
1, 217407, Control_c, 0, 64, 89
1, 217421, Control_c, 0, 64, 86
1, 217436, Control_c, 0, 64, 83
1, 217451, Control_c, 0, 64, 81
1, 217465, Control_c, 0, 64, 79
1, 217480, Control_c, 0, 64, 78
1, 217495, Control_c, 0, 64, 77
1, 217510, Control_c, 0, 64, 75
1, 217525, Control_c, 0, 64, 73
1, 217539, Control_c, 0, 64, 71
1, 217554, Control_c, 0, 64, 69
1, 217569, Control_c, 0, 64, 67
1, 217584, Control_c, 0, 64, 65
1, 217599, Control_c, 0, 64, 64
1, 217612, Note_on_c, 0, 41, 36
1, 217613, Control_c, 0, 64, 63
1, 217615, Note_on_c, 0, 69, 54
1, 217618, Note_off_c, 0, 60, 31
1, 217628, Control_c, 0, 64, 62
1, 217638, Note_on_c, 0, 65, 35
1, 217639, Note_on_c, 0, 63, 29
1, 217643, Control_c, 0, 64, 62
1, 217658, Control_c, 0, 64, 61
1, 217661, Note_off_c, 0, 62, 52
1, 217673, Control_c, 0, 64, 60
1, 217688, Control_c, 0, 64, 59
1, 217703, Control_c, 0, 64, 57
1, 217718, Control_c, 0, 64, 56
1, 217739, Control_c, 0, 64, 55
1, 217754, Control_c, 0, 64, 52
1, 217769, Control_c, 0, 64, 48
1, 217784, Control_c, 0, 64, 43
1, 217799, Control_c, 0, 64, 38
1, 217813, Control_c, 0, 64, 34
1, 217828, Control_c, 0, 64, 30
1, 217843, Control_c, 0, 64, 27
1, 217858, Control_c, 0, 64, 24
1, 217873, Control_c, 0, 64, 22
1, 217917, Control_c, 0, 64, 27
1, 217932, Control_c, 0, 64, 37
1, 217947, Control_c, 0, 64, 46
1, 217962, Control_c, 0, 64, 51
1, 217977, Control_c, 0, 64, 55
1, 217991, Control_c, 0, 64, 59
1, 218006, Control_c, 0, 64, 62
1, 218021, Control_c, 0, 64, 65
1, 218036, Control_c, 0, 64, 68
1, 218051, Control_c, 0, 64, 72
1, 218065, Control_c, 0, 64, 77
1, 218080, Control_c, 0, 64, 83
1, 218095, Control_c, 0, 64, 89
1, 218110, Control_c, 0, 64, 94
1, 218125, Control_c, 0, 64, 97
1, 218139, Control_c, 0, 64, 98
1, 218148, Note_on_c, 0, 62, 30
1, 218154, Control_c, 0, 64, 98
1, 218169, Control_c, 0, 64, 99
1, 218185, Control_c, 0, 64, 101
1, 218200, Control_c, 0, 64, 102
1, 218215, Control_c, 0, 64, 102
1, 218249, Note_off_c, 0, 63, 36
1, 218314, Note_off_c, 0, 65, 38
1, 218318, Control_c, 0, 64, 102
1, 218333, Control_c, 0, 64, 101
1, 218362, Control_c, 0, 64, 101
1, 218398, Note_off_c, 0, 69, 32
1, 218403, Note_on_c, 0, 60, 40
1, 218407, Control_c, 0, 64, 100
1, 218422, Control_c, 0, 64, 100
1, 218451, Control_c, 0, 64, 99
1, 218466, Control_c, 0, 64, 98
1, 218486, Note_off_c, 0, 62, 43
1, 218488, Control_c, 0, 64, 98
1, 218503, Control_c, 0, 64, 97
1, 218518, Control_c, 0, 64, 96
1, 218533, Control_c, 0, 64, 95
1, 218548, Control_c, 0, 64, 94
1, 218562, Control_c, 0, 64, 93
1, 218577, Control_c, 0, 64, 92
1, 218592, Control_c, 0, 64, 90
1, 218607, Control_c, 0, 64, 89
1, 218621, Control_c, 0, 64, 86
1, 218636, Control_c, 0, 64, 84
1, 218640, Note_off_c, 0, 41, 32
1, 218651, Control_c, 0, 64, 82
1, 218666, Control_c, 0, 64, 81
1, 218680, Control_c, 0, 64, 79
1, 218683, Note_on_c, 0, 53, 37
1, 218693, Note_on_c, 0, 62, 37
1, 218693, Note_on_c, 0, 70, 42
1, 218695, Control_c, 0, 64, 75
1, 218710, Control_c, 0, 64, 69
1, 218711, Note_on_c, 0, 65, 35
1, 218721, Note_off_c, 0, 60, 25
1, 218725, Control_c, 0, 64, 59
1, 218740, Control_c, 0, 64, 42
1, 218755, Control_c, 0, 64, 34
1, 218770, Control_c, 0, 64, 35
1, 218785, Control_c, 0, 64, 40
1, 218800, Control_c, 0, 64, 49
1, 218814, Control_c, 0, 64, 58
1, 218829, Control_c, 0, 64, 63
1, 218844, Control_c, 0, 64, 68
1, 218859, Control_c, 0, 64, 75
1, 218874, Control_c, 0, 64, 87
1, 218889, Control_c, 0, 64, 110
1, 218902, Note_off_c, 0, 62, 55
1, 218904, Control_c, 0, 64, 127
1, 218935, Note_off_c, 0, 70, 60
1, 218939, Note_off_c, 0, 65, 0
1, 218939, Note_on_c, 0, 65, 13
1, 219068, Control_c, 0, 64, 120
1, 219083, Control_c, 0, 64, 112
1, 219098, Control_c, 0, 64, 107
1, 219112, Control_c, 0, 64, 103
1, 219127, Control_c, 0, 64, 100
1, 219142, Control_c, 0, 64, 97
1, 219157, Control_c, 0, 64, 94
1, 219172, Control_c, 0, 64, 92
1, 219186, Control_c, 0, 64, 91
1, 219201, Control_c, 0, 64, 90
1, 219216, Control_c, 0, 64, 89
1, 219222, Note_on_c, 0, 57, 36
1, 219234, Note_on_c, 0, 72, 45
1, 219238, Control_c, 0, 64, 88
1, 219253, Control_c, 0, 64, 87
1, 219268, Control_c, 0, 64, 86
1, 219283, Control_c, 0, 64, 84
1, 219297, Control_c, 0, 64, 82
1, 219312, Control_c, 0, 64, 81
1, 219327, Control_c, 0, 64, 80
1, 219342, Control_c, 0, 64, 79
1, 219357, Control_c, 0, 64, 78
1, 219372, Control_c, 0, 64, 76
1, 219386, Control_c, 0, 64, 75
1, 219401, Control_c, 0, 64, 74
1, 219416, Control_c, 0, 64, 73
1, 219422, Note_on_c, 0, 58, 38
1, 219427, Note_on_c, 0, 74, 50
1, 219431, Control_c, 0, 64, 72
1, 219445, Control_c, 0, 64, 71
1, 219460, Control_c, 0, 64, 69
1, 219471, Note_off_c, 0, 72, 29
1, 219475, Control_c, 0, 64, 69
1, 219490, Control_c, 0, 64, 68
1, 219505, Control_c, 0, 64, 67
1, 219519, Control_c, 0, 64, 67
1, 219520, Note_off_c, 0, 57, 25
1, 219534, Control_c, 0, 64, 66
1, 219549, Control_c, 0, 64, 66
1, 219564, Control_c, 0, 64, 65
1, 219579, Control_c, 0, 64, 65
1, 219593, Control_c, 0, 64, 64
1, 219608, Control_c, 0, 64, 64
1, 219635, Note_on_c, 0, 75, 56
1, 219636, Note_on_c, 0, 60, 34
1, 219637, Control_c, 0, 64, 63
1, 219652, Control_c, 0, 64, 63
1, 219667, Control_c, 0, 64, 62
1, 219676, Note_off_c, 0, 74, 53
1, 219682, Control_c, 0, 64, 62
1, 219712, Note_off_c, 0, 58, 31
1, 219712, Control_c, 0, 64, 61
1, 219727, Control_c, 0, 64, 61
1, 219757, Control_c, 0, 64, 60
1, 219787, Control_c, 0, 64, 60
1, 219801, Control_c, 0, 64, 59
1, 219831, Control_c, 0, 64, 59
1, 219846, Control_c, 0, 64, 58
1, 219861, Control_c, 0, 64, 58
1, 219891, Control_c, 0, 64, 57
1, 219921, Control_c, 0, 64, 57
1, 219965, Control_c, 0, 64, 56
1, 220002, Note_on_c, 0, 74, 53
1, 220016, Control_c, 0, 64, 56
1, 220019, Note_on_c, 0, 58, 35
1, 220087, Note_off_c, 0, 75, 36
1, 220105, Control_c, 0, 64, 55
1, 220180, Note_on_c, 0, 72, 62
1, 220180, Control_c, 0, 64, 55
1, 220183, Note_on_c, 0, 57, 43
1, 220195, Control_c, 0, 64, 54
1, 220207, Note_off_c, 0, 74, 56
1, 220239, Control_c, 0, 64, 54
1, 220262, Note_off_c, 0, 58, 36
1, 220268, Control_c, 0, 64, 53
1, 220294, Note_off_c, 0, 60, 34
1, 220298, Control_c, 0, 64, 53
1, 220328, Control_c, 0, 64, 52
1, 220341, Control_c, 0, 64, 52
1, 220371, Control_c, 0, 64, 51
1, 220397, Note_on_c, 0, 77, 59
1, 220400, Note_off_c, 0, 72, 56
1, 220401, Control_c, 0, 64, 51
1, 220403, Note_on_c, 0, 62, 43
1, 220445, Control_c, 0, 64, 50
1, 220490, Control_c, 0, 64, 50
1, 220519, Note_off_c, 0, 57, 50
1, 220549, Control_c, 0, 64, 49
1, 220579, Control_c, 0, 64, 49
1, 220594, Control_c, 0, 64, 48
1, 220624, Control_c, 0, 64, 48
1, 220639, Control_c, 0, 64, 47
1, 220713, Control_c, 0, 64, 48
1, 220735, Control_c, 0, 64, 49
1, 220750, Control_c, 0, 64, 51
1, 220764, Control_c, 0, 64, 53
1, 220779, Control_c, 0, 64, 54
1, 220794, Control_c, 0, 64, 56
1, 220802, Note_on_c, 0, 74, 65
1, 220805, Note_on_c, 0, 58, 37
1, 220807, Note_on_c, 0, 70, 48
1, 220809, Control_c, 0, 64, 58
1, 220824, Control_c, 0, 64, 60
1, 220839, Control_c, 0, 64, 61
1, 220854, Control_c, 0, 64, 63
1, 220868, Control_c, 0, 64, 65
1, 220880, Note_off_c, 0, 77, 56
1, 220883, Control_c, 0, 64, 67
1, 220898, Control_c, 0, 64, 69
1, 220913, Control_c, 0, 64, 73
1, 220921, Note_off_c, 0, 65, 37
1, 220927, Note_off_c, 0, 53, 38
1, 220928, Control_c, 0, 64, 78
1, 220943, Control_c, 0, 64, 84
1, 220957, Control_c, 0, 64, 93
1, 220972, Control_c, 0, 64, 103
1, 220987, Control_c, 0, 64, 117
1, 221002, Control_c, 0, 64, 127
1, 221019, Note_off_c, 0, 62, 54
1, 221206, Note_on_c, 0, 60, 47
1, 221208, Note_on_c, 0, 75, 78
1, 221218, Note_on_c, 0, 53, 48
1, 221219, Note_on_c, 0, 69, 52
1, 221282, Control_c, 0, 64, 108
1, 221297, Control_c, 0, 64, 99
1, 221298, Note_off_c, 0, 70, 36
1, 221312, Control_c, 0, 64, 92
1, 221327, Control_c, 0, 64, 87
1, 221342, Control_c, 0, 64, 84
1, 221356, Control_c, 0, 64, 81
1, 221371, Control_c, 0, 64, 79
1, 221378, Note_off_c, 0, 58, 38
1, 221387, Control_c, 0, 64, 77
1, 221402, Control_c, 0, 64, 75
1, 221417, Control_c, 0, 64, 74
1, 221432, Control_c, 0, 64, 73
1, 221446, Control_c, 0, 64, 72
1, 221461, Control_c, 0, 64, 70
1, 221476, Control_c, 0, 64, 69
1, 221498, Control_c, 0, 64, 68
1, 221512, Control_c, 0, 64, 67
1, 221527, Control_c, 0, 64, 67
1, 221542, Control_c, 0, 64, 66
1, 221557, Control_c, 0, 64, 65
1, 221572, Control_c, 0, 64, 65
1, 221602, Control_c, 0, 64, 64
1, 221617, Control_c, 0, 64, 64
1, 221630, Note_off_c, 0, 74, 0
1, 221631, Control_c, 0, 64, 63
1, 221632, Note_on_c, 0, 63, 53
1, 221637, Note_on_c, 0, 73, 77
1, 221661, Control_c, 0, 64, 63
1, 221667, Poly_aftertouch_c, 0, 74, 127
1, 221676, Control_c, 0, 64, 62
1, 221691, Control_c, 0, 64, 62
1, 221720, Control_c, 0, 64, 61
1, 221735, Control_c, 0, 64, 61
1, 221765, Control_c, 0, 64, 60
1, 221779, Control_c, 0, 64, 60
1, 221794, Control_c, 0, 64, 59
1, 221801, Note_off_c, 0, 75, 53
1, 221809, Control_c, 0, 64, 59
1, 221838, Control_c, 0, 64, 58
1, 221852, Poly_aftertouch_c, 0, 74, 0
1, 221861, Note_off_c, 0, 60, 64
1, 221868, Control_c, 0, 64, 58
1, 221883, Control_c, 0, 64, 57
1, 221898, Control_c, 0, 64, 57
1, 221912, Control_c, 0, 64, 56
1, 221927, Control_c, 0, 64, 56
1, 221957, Control_c, 0, 64, 55
1, 221972, Control_c, 0, 64, 55
1, 221986, Control_c, 0, 64, 54
1, 222001, Control_c, 0, 64, 54
1, 222016, Control_c, 0, 64, 53
1, 222031, Control_c, 0, 64, 52
1, 222046, Control_c, 0, 64, 52
1, 222061, Control_c, 0, 64, 51
1, 222076, Note_on_c, 0, 74, 69
1, 222076, Control_c, 0, 64, 50
1, 222091, Note_on_c, 0, 62, 51
1, 222091, Control_c, 0, 64, 49
1, 222095, Note_on_c, 0, 58, 46
1, 222105, Control_c, 0, 64, 48
1, 222120, Control_c, 0, 64, 47
1, 222135, Control_c, 0, 64, 45
1, 222150, Control_c, 0, 64, 42
1, 222165, Control_c, 0, 64, 41
1, 222175, Note_off_c, 0, 73, 55
1, 222180, Control_c, 0, 64, 41
1, 222196, Note_off_c, 0, 53, 33
1, 222277, Control_c, 0, 64, 41
1, 222291, Control_c, 0, 64, 42
1, 222306, Control_c, 0, 64, 42
1, 222317, Note_off_c, 0, 63, 54
1, 222321, Control_c, 0, 64, 43
1, 222335, Control_c, 0, 64, 45
1, 222350, Control_c, 0, 64, 49
1, 222365, Control_c, 0, 64, 53
1, 222380, Control_c, 0, 64, 56
1, 222395, Control_c, 0, 64, 58
1, 222410, Control_c, 0, 64, 61
1, 222424, Control_c, 0, 64, 64
1, 222439, Control_c, 0, 64, 68
1, 222454, Control_c, 0, 64, 74
1, 222469, Control_c, 0, 64, 84
1, 222473, Note_on_c, 0, 57, 62
1, 222474, Note_on_c, 0, 67, 63
1, 222484, Control_c, 0, 64, 97
1, 222499, Control_c, 0, 64, 109
1, 222514, Control_c, 0, 64, 113
1, 222519, Note_off_c, 0, 69, 37
1, 222543, Control_c, 0, 64, 114
1, 222632, Control_c, 0, 64, 113
1, 222646, Control_c, 0, 64, 112
1, 222651, Note_on_c, 0, 69, 77
1, 222661, Control_c, 0, 64, 110
1, 222670, Note_off_c, 0, 62, 25
1, 222676, Control_c, 0, 64, 109
1, 222689, Note_off_c, 0, 74, 56
1, 222691, Control_c, 0, 64, 108
1, 222701, Note_off_c, 0, 58, 37
1, 222706, Control_c, 0, 64, 106
1, 222721, Control_c, 0, 64, 104
1, 222735, Control_c, 0, 64, 103
1, 222737, Note_off_c, 0, 67, 55
1, 222750, Control_c, 0, 64, 101
1, 222765, Control_c, 0, 64, 99
1, 222780, Control_c, 0, 64, 96
1, 222795, Control_c, 0, 64, 94
1, 222809, Control_c, 0, 64, 91
1, 222824, Control_c, 0, 64, 89
1, 222839, Control_c, 0, 64, 87
1, 222845, Note_on_c, 0, 70, 77
1, 222852, Note_on_c, 0, 67, 72
1, 222854, Control_c, 0, 64, 85
1, 222858, Note_on_c, 0, 55, 54
1, 222869, Control_c, 0, 64, 81
1, 222884, Control_c, 0, 64, 73
1, 222898, Control_c, 0, 64, 61
1, 222912, Note_off_c, 0, 69, 56
1, 222913, Control_c, 0, 64, 43
1, 222919, Note_off_c, 0, 57, 39
1, 222928, Control_c, 0, 64, 32
1, 222943, Control_c, 0, 64, 32
1, 222958, Control_c, 0, 64, 35
1, 222973, Control_c, 0, 64, 43
1, 222996, Control_c, 0, 64, 54
1, 223011, Control_c, 0, 64, 62
1, 223026, Control_c, 0, 64, 67
1, 223040, Control_c, 0, 64, 75
1, 223049, Note_off_c, 0, 55, 58
1, 223055, Control_c, 0, 64, 92
1, 223070, Control_c, 0, 64, 127
1, 223240, Note_on_c, 0, 57, 53
1, 223250, Note_on_c, 0, 73, 84
1, 223255, Note_on_c, 0, 65, 59
1, 223261, Note_on_c, 0, 69, 71
1, 223292, Note_off_c, 0, 67, 61
1, 223307, Note_off_c, 0, 70, 58
1, 223322, Control_c, 0, 64, 110
1, 223337, Control_c, 0, 64, 104
1, 223351, Control_c, 0, 64, 100
1, 223366, Control_c, 0, 64, 97
1, 223381, Control_c, 0, 64, 95
1, 223396, Control_c, 0, 64, 93
1, 223411, Control_c, 0, 64, 91
1, 223425, Control_c, 0, 64, 87
1, 223432, Note_on_c, 0, 64, 67
1, 223440, Control_c, 0, 64, 84
1, 223445, Note_on_c, 0, 67, 78
1, 223455, Control_c, 0, 64, 82
1, 223456, Note_off_c, 0, 65, 60
1, 223469, Control_c, 0, 64, 79
1, 223483, Note_off_c, 0, 69, 63
1, 223484, Control_c, 0, 64, 77
1, 223499, Control_c, 0, 64, 75
1, 223514, Control_c, 0, 64, 73
1, 223529, Control_c, 0, 64, 72
1, 223543, Control_c, 0, 64, 70
1, 223558, Control_c, 0, 64, 68
1, 223573, Control_c, 0, 64, 67
1, 223588, Control_c, 0, 64, 66
1, 223603, Control_c, 0, 64, 66
1, 223618, Control_c, 0, 64, 65
1, 223632, Control_c, 0, 64, 65
1, 223647, Control_c, 0, 64, 64
1, 223662, Control_c, 0, 64, 64
1, 223676, Control_c, 0, 64, 63
1, 223679, Note_on_c, 0, 62, 47
1, 223682, Note_on_c, 0, 58, 47
1, 223682, Note_on_c, 0, 74, 78
1, 223687, Note_on_c, 0, 65, 61
1, 223706, Control_c, 0, 64, 63
1, 223729, Control_c, 0, 64, 62
1, 223736, Note_off_c, 0, 73, 66
1, 223744, Control_c, 0, 64, 61
1, 223758, Control_c, 0, 64, 58
1, 223760, Note_off_c, 0, 57, 51
1, 223766, Note_off_c, 0, 67, 55
1, 223773, Control_c, 0, 64, 55
1, 223789, Control_c, 0, 64, 51
1, 223804, Control_c, 0, 64, 49
1, 223819, Control_c, 0, 64, 46
1, 223828, Note_off_c, 0, 64, 58
1, 223834, Control_c, 0, 64, 43
1, 223849, Control_c, 0, 64, 42
1, 223863, Control_c, 0, 64, 43
1, 223878, Control_c, 0, 64, 46
1, 223893, Control_c, 0, 64, 52
1, 223907, Control_c, 0, 64, 57
1, 223922, Control_c, 0, 64, 61
1, 223937, Control_c, 0, 64, 65
1, 223952, Control_c, 0, 64, 69
1, 223967, Control_c, 0, 64, 76
1, 223981, Control_c, 0, 64, 92
1, 223996, Control_c, 0, 64, 127
1, 224074, Note_off_c, 0, 62, 27
1, 224075, Note_off_c, 0, 58, 37
1, 224097, Note_on_c, 0, 55, 56
1, 224106, Note_on_c, 0, 70, 76
1, 224182, Note_off_c, 0, 65, 38
1, 224186, Note_off_c, 0, 74, 54
1, 224270, Note_on_c, 0, 53, 66
1, 224291, Note_off_c, 0, 55, 49
1, 224341, Note_off_c, 0, 53, 63
1, 224366, Control_c, 0, 64, 125
1, 224381, Control_c, 0, 64, 113
1, 224396, Control_c, 0, 64, 108
1, 224411, Control_c, 0, 64, 104
1, 224425, Control_c, 0, 64, 101
1, 224440, Control_c, 0, 64, 98
1, 224455, Control_c, 0, 64, 95
1, 224478, Control_c, 0, 64, 91
1, 224493, Control_c, 0, 64, 87
1, 224503, Note_on_c, 0, 67, 68
1, 224506, Note_on_c, 0, 52, 48
1, 224507, Control_c, 0, 64, 82
1, 224515, Note_on_c, 0, 61, 54
1, 224522, Control_c, 0, 64, 79
1, 224537, Control_c, 0, 64, 76
1, 224552, Control_c, 0, 64, 74
1, 224567, Control_c, 0, 64, 72
1, 224583, Control_c, 0, 64, 70
1, 224591, Note_off_c, 0, 70, 55
1, 224598, Control_c, 0, 64, 67
1, 224612, Control_c, 0, 64, 65
1, 224627, Control_c, 0, 64, 62
1, 224642, Control_c, 0, 64, 58
1, 224657, Control_c, 0, 64, 52
1, 224672, Control_c, 0, 64, 44
1, 224686, Control_c, 0, 64, 39
1, 224701, Control_c, 0, 64, 36
1, 224716, Control_c, 0, 64, 34
1, 224730, Control_c, 0, 64, 33
1, 224760, Control_c, 0, 64, 35
1, 224775, Control_c, 0, 64, 40
1, 224790, Control_c, 0, 64, 44
1, 224804, Control_c, 0, 64, 48
1, 224819, Control_c, 0, 64, 52
1, 224834, Control_c, 0, 64, 56
1, 224849, Control_c, 0, 64, 59
1, 224864, Control_c, 0, 64, 61
1, 224878, Control_c, 0, 64, 63
1, 224893, Control_c, 0, 64, 65
1, 224908, Control_c, 0, 64, 67
1, 224919, Note_on_c, 0, 70, 68
1, 224920, Note_on_c, 0, 53, 44
1, 224922, Control_c, 0, 64, 71
1, 224937, Control_c, 0, 64, 76
1, 224944, Note_off_c, 0, 52, 58
1, 224952, Control_c, 0, 64, 81
1, 224958, Note_off_c, 0, 67, 59
1, 224967, Control_c, 0, 64, 84
1, 224982, Control_c, 0, 64, 84
1, 225012, Control_c, 0, 64, 84
1, 225042, Control_c, 0, 64, 83
1, 225056, Control_c, 0, 64, 82
1, 225071, Control_c, 0, 64, 81
1, 225086, Control_c, 0, 64, 80
1, 225101, Control_c, 0, 64, 79
1, 225114, Note_on_c, 0, 55, 58
1, 225116, Control_c, 0, 64, 78
1, 225125, Note_off_c, 0, 53, 55
1, 225130, Control_c, 0, 64, 76
1, 225145, Control_c, 0, 64, 75
1, 225160, Control_c, 0, 64, 75
1, 225175, Control_c, 0, 64, 74
1, 225190, Control_c, 0, 64, 73
1, 225204, Control_c, 0, 64, 72
1, 225227, Control_c, 0, 64, 71
1, 225241, Control_c, 0, 64, 70
1, 225256, Control_c, 0, 64, 69
1, 225271, Control_c, 0, 64, 68
1, 225277, Note_off_c, 0, 61, 56
1, 225286, Control_c, 0, 64, 68
1, 225301, Control_c, 0, 64, 67
1, 225316, Control_c, 0, 64, 66
1, 225330, Control_c, 0, 64, 65
1, 225345, Control_c, 0, 64, 62
1, 225360, Note_on_c, 0, 69, 63
1, 225360, Control_c, 0, 64, 55
1, 225362, Note_on_c, 0, 53, 51
1, 225370, Note_on_c, 0, 62, 51
1, 225376, Control_c, 0, 64, 42
1, 225377, Note_off_c, 0, 55, 54
1, 225385, Note_off_c, 0, 70, 64
1, 225390, Control_c, 0, 64, 30
1, 225405, Control_c, 0, 64, 28
1, 225450, Control_c, 0, 64, 29
1, 225465, Control_c, 0, 64, 36
1, 225480, Control_c, 0, 64, 45
1, 225495, Control_c, 0, 64, 54
1, 225509, Control_c, 0, 64, 60
1, 225524, Control_c, 0, 64, 64
1, 225539, Control_c, 0, 64, 68
1, 225545, Note_off_c, 0, 53, 64
1, 225553, Control_c, 0, 64, 76
1, 225555, Note_off_c, 0, 69, 61
1, 225568, Control_c, 0, 64, 87
1, 225583, Control_c, 0, 64, 102
1, 225598, Control_c, 0, 64, 117
1, 225613, Control_c, 0, 64, 116
1, 225627, Control_c, 0, 64, 113
1, 225642, Control_c, 0, 64, 111
1, 225657, Control_c, 0, 64, 110
1, 225671, Control_c, 0, 64, 109
1, 225686, Control_c, 0, 64, 106
1, 225701, Control_c, 0, 64, 104
1, 225716, Control_c, 0, 64, 102
1, 225731, Control_c, 0, 64, 99
1, 225745, Control_c, 0, 64, 97
1, 225760, Control_c, 0, 64, 94
1, 225775, Control_c, 0, 64, 91
1, 225790, Control_c, 0, 64, 89
1, 225805, Control_c, 0, 64, 87
1, 225813, Note_on_c, 0, 43, 37
1, 225815, Note_on_c, 0, 58, 46
1, 225817, Note_on_c, 0, 52, 36
1, 225818, Note_on_c, 0, 67, 58
1, 225820, Control_c, 0, 64, 82
1, 225835, Control_c, 0, 64, 74
1, 225850, Control_c, 0, 64, 64
1, 225864, Control_c, 0, 64, 51
1, 225879, Control_c, 0, 64, 36
1, 225912, Note_off_c, 0, 62, 38
1, 225924, Control_c, 0, 64, 37
1, 225939, Control_c, 0, 64, 42
1, 225953, Control_c, 0, 64, 48
1, 225975, Control_c, 0, 64, 55
1, 225990, Control_c, 0, 64, 59
1, 226005, Control_c, 0, 64, 62
1, 226020, Control_c, 0, 64, 65
1, 226034, Control_c, 0, 64, 68
1, 226049, Control_c, 0, 64, 73
1, 226054, Note_on_c, 0, 53, 57
1, 226064, Control_c, 0, 64, 81
1, 226071, Note_off_c, 0, 43, 40
1, 226079, Control_c, 0, 64, 93
1, 226094, Control_c, 0, 64, 104
1, 226101, Note_off_c, 0, 52, 64
1, 226109, Control_c, 0, 64, 109
1, 226183, Control_c, 0, 64, 108
1, 226198, Control_c, 0, 64, 108
1, 226213, Control_c, 0, 64, 107
1, 226228, Control_c, 0, 64, 106
1, 226243, Control_c, 0, 64, 104
1, 226258, Control_c, 0, 64, 102
1, 226273, Control_c, 0, 64, 100
1, 226288, Control_c, 0, 64, 98
1, 226302, Control_c, 0, 64, 97
1, 226317, Control_c, 0, 64, 95
1, 226332, Control_c, 0, 64, 93
1, 226335, Note_on_c, 0, 55, 47
1, 226340, Note_on_c, 0, 45, 41
1, 226340, Note_on_c, 0, 61, 56
1, 226347, Note_on_c, 0, 57, 42
1, 226347, Control_c, 0, 64, 91
1, 226362, Control_c, 0, 64, 89
1, 226377, Control_c, 0, 64, 86
1, 226392, Control_c, 0, 64, 84
1, 226407, Control_c, 0, 64, 83
1, 226422, Control_c, 0, 64, 82
1, 226437, Control_c, 0, 64, 80
1, 226451, Control_c, 0, 64, 77
1, 226458, Note_off_c, 0, 58, 33
1, 226466, Control_c, 0, 64, 74
1, 226481, Control_c, 0, 64, 72
1, 226495, Control_c, 0, 64, 70
1, 226510, Note_off_c, 0, 67, 29
1, 226510, Control_c, 0, 64, 68
1, 226525, Control_c, 0, 64, 67
1, 226540, Control_c, 0, 64, 66
1, 226544, Note_off_c, 0, 53, 32
1, 226555, Control_c, 0, 64, 64
1, 226569, Control_c, 0, 64, 63
1, 226584, Control_c, 0, 64, 63
1, 226599, Control_c, 0, 64, 62
1, 226614, Control_c, 0, 64, 62
1, 226629, Control_c, 0, 64, 61
1, 226643, Control_c, 0, 64, 60
1, 226658, Control_c, 0, 64, 59
1, 226673, Control_c, 0, 64, 58
1, 226688, Control_c, 0, 64, 57
1, 226702, Control_c, 0, 64, 56
1, 226725, Control_c, 0, 64, 55
1, 226740, Control_c, 0, 64, 53
1, 226755, Control_c, 0, 64, 51
1, 226770, Control_c, 0, 64, 48
1, 226784, Control_c, 0, 64, 45
1, 226799, Control_c, 0, 64, 41
1, 226814, Control_c, 0, 64, 36
1, 226829, Control_c, 0, 64, 27
1, 226844, Control_c, 0, 64, 0
1, 226956, Note_on_c, 0, 53, 40
1, 227030, Note_off_c, 0, 55, 63
1, 227264, Note_on_c, 0, 52, 38
1, 227273, Control_c, 0, 64, 13
1, 227288, Control_c, 0, 64, 30
1, 227300, Note_off_c, 0, 53, 41
1, 227303, Control_c, 0, 64, 42
1, 227317, Control_c, 0, 64, 51
1, 227332, Control_c, 0, 64, 57
1, 227347, Control_c, 0, 64, 61
1, 227362, Control_c, 0, 64, 64
1, 227377, Control_c, 0, 64, 69
1, 227391, Control_c, 0, 64, 76
1, 227403, Note_off_c, 0, 52, 58
1, 227406, Control_c, 0, 64, 86
1, 227414, Note_off_c, 0, 45, 52
1, 227421, Control_c, 0, 64, 96
1, 227436, Control_c, 0, 64, 103
1, 227451, Control_c, 0, 64, 104
1, 227532, Control_c, 0, 64, 103
1, 227547, Control_c, 0, 64, 102
1, 227562, Control_c, 0, 64, 101
1, 227577, Control_c, 0, 64, 100
1, 227592, Control_c, 0, 64, 99
1, 227606, Control_c, 0, 64, 99
1, 227621, Control_c, 0, 64, 97
1, 227636, Control_c, 0, 64, 96
1, 227650, Control_c, 0, 64, 95
1, 227665, Control_c, 0, 64, 93
1, 227680, Control_c, 0, 64, 92
1, 227695, Control_c, 0, 64, 91
1, 227710, Control_c, 0, 64, 89
1, 227725, Control_c, 0, 64, 87
1, 227729, Note_on_c, 0, 62, 42
1, 227733, Note_on_c, 0, 38, 32
1, 227733, Note_on_c, 0, 53, 35
1, 227740, Control_c, 0, 64, 86
1, 227755, Control_c, 0, 64, 84
1, 227771, Control_c, 0, 64, 82
1, 227786, Control_c, 0, 64, 80
1, 227801, Control_c, 0, 64, 78
1, 227816, Control_c, 0, 64, 76
1, 227830, Control_c, 0, 64, 73
1, 227845, Control_c, 0, 64, 69
1, 227860, Control_c, 0, 64, 65
1, 227867, Note_off_c, 0, 61, 38
1, 227875, Control_c, 0, 64, 61
1, 227890, Control_c, 0, 64, 54
1, 227904, Control_c, 0, 64, 49
1, 227919, Control_c, 0, 64, 42
1, 227934, Control_c, 0, 64, 28
1, 227948, Control_c, 0, 64, 0
1, 228082, Control_c, 0, 64, 11
1, 228097, Control_c, 0, 64, 32
1, 228112, Control_c, 0, 64, 47
1, 228127, Control_c, 0, 64, 55
1, 228141, Control_c, 0, 64, 60
1, 228156, Control_c, 0, 64, 63
1, 228171, Control_c, 0, 64, 66
1, 228186, Control_c, 0, 64, 69
1, 228201, Control_c, 0, 64, 74
1, 228222, Control_c, 0, 64, 82
1, 228237, Control_c, 0, 64, 91
1, 228252, Control_c, 0, 64, 104
1, 228267, Control_c, 0, 64, 127
1, 228811, Note_off_c, 0, 53, 39
1, 228852, Note_off_c, 0, 57, 37
1, 228889, Note_off_c, 0, 38, 35
1, 228897, Note_off_c, 0, 62, 30
1, 229016, Control_c, 0, 67, 14
1, 229031, Control_c, 0, 67, 24
1, 229045, Control_c, 0, 67, 33
1, 229060, Control_c, 0, 67, 41
1, 229075, Control_c, 0, 67, 44
1, 229179, Control_c, 0, 64, 116
1, 229194, Control_c, 0, 64, 106
1, 229209, Control_c, 0, 64, 100
1, 229224, Control_c, 0, 64, 96
1, 229239, Control_c, 0, 64, 91
1, 229253, Control_c, 0, 64, 87
1, 229268, Control_c, 0, 64, 84
1, 229283, Control_c, 0, 64, 81
1, 229297, Control_c, 0, 64, 79
1, 229312, Control_c, 0, 64, 77
1, 229327, Control_c, 0, 64, 75
1, 229342, Control_c, 0, 64, 73
1, 229357, Control_c, 0, 64, 70
1, 229373, Control_c, 0, 64, 69
1, 229388, Control_c, 0, 64, 68
1, 229402, Control_c, 0, 64, 68
1, 229417, Control_c, 0, 64, 67
1, 229417, Control_c, 0, 67, 43
1, 229432, Control_c, 0, 64, 67
1, 229447, Control_c, 0, 64, 66
1, 229462, Control_c, 0, 64, 65
1, 229476, Control_c, 0, 64, 64
1, 229491, Control_c, 0, 64, 63
1, 229506, Control_c, 0, 64, 63
1, 229520, Control_c, 0, 64, 62
1, 229535, Control_c, 0, 64, 62
1, 229550, Control_c, 0, 64, 61
1, 229565, Control_c, 0, 64, 61
1, 229580, Control_c, 0, 64, 60
1, 229594, Control_c, 0, 64, 59
1, 229609, Control_c, 0, 64, 59
1, 229624, Control_c, 0, 64, 58
1, 229639, Control_c, 0, 64, 57
1, 229654, Control_c, 0, 64, 56
1, 229668, Control_c, 0, 64, 54
1, 229683, Control_c, 0, 64, 52
1, 229698, Control_c, 0, 64, 51
1, 229720, Control_c, 0, 64, 50
1, 229735, Control_c, 0, 64, 48
1, 229750, Control_c, 0, 64, 46
1, 229765, Control_c, 0, 64, 43
1, 229780, Control_c, 0, 64, 43
1, 229809, Control_c, 0, 64, 44
1, 229824, Control_c, 0, 64, 46
1, 229839, Control_c, 0, 64, 50
1, 229854, Control_c, 0, 64, 54
1, 229868, Control_c, 0, 64, 58
1, 229883, Control_c, 0, 64, 60
1, 229898, Control_c, 0, 64, 62
1, 229913, Control_c, 0, 64, 64
1, 229927, Control_c, 0, 64, 67
1, 229942, Control_c, 0, 64, 70
1, 229957, Control_c, 0, 64, 75
1, 229972, Control_c, 0, 64, 82
1, 229972, Control_c, 0, 67, 42
1, 229987, Control_c, 0, 64, 88
1, 230002, Control_c, 0, 64, 94
1, 230017, Control_c, 0, 64, 99
1, 230032, Control_c, 0, 64, 107
1, 230047, Control_c, 0, 64, 122
1, 230061, Control_c, 0, 64, 127
1, 230076, Control_c, 0, 67, 42
1, 230133, Note_on_c, 0, 69, 45
1, 230141, Note_on_c, 0, 60, 31
1, 230154, Note_on_c, 0, 38, 20
1, 230315, Control_c, 0, 67, 41
1, 230525, Note_off_c, 0, 38, 39
1, 230609, Note_on_c, 0, 62, 22
1, 230774, Note_off_c, 0, 62, 31
1, 230925, Note_on_c, 0, 54, 26
1, 231122, Control_c, 0, 67, 41
1, 231130, Note_off_c, 0, 54, 41
1, 231169, Note_on_c, 0, 62, 29
1, 231352, Control_c, 0, 67, 40
1, 231381, Control_c, 0, 64, 120
1, 231396, Control_c, 0, 64, 114
1, 231411, Control_c, 0, 64, 109
1, 231412, Note_on_c, 0, 67, 48
1, 231422, Note_on_c, 0, 38, 21
1, 231426, Control_c, 0, 64, 104
1, 231440, Control_c, 0, 64, 100
1, 231455, Control_c, 0, 64, 97
1, 231470, Control_c, 0, 64, 93
1, 231473, Note_off_c, 0, 62, 38
1, 231485, Control_c, 0, 64, 87
1, 231499, Control_c, 0, 64, 79
1, 231502, Note_off_c, 0, 60, 42
1, 231514, Control_c, 0, 64, 71
1, 231514, Control_c, 0, 67, 39
1, 231529, Control_c, 0, 64, 64
1, 231540, Note_off_c, 0, 69, 34
1, 231544, Control_c, 0, 64, 58
1, 231559, Control_c, 0, 64, 59
1, 231573, Control_c, 0, 64, 61
1, 231588, Control_c, 0, 64, 63
1, 231603, Control_c, 0, 64, 66
1, 231618, Control_c, 0, 64, 69
1, 231633, Control_c, 0, 64, 75
1, 231647, Control_c, 0, 64, 85
1, 231662, Control_c, 0, 64, 109
1, 231668, Note_on_c, 0, 58, 35
1, 231668, Note_off_c, 0, 38, 50
1, 231677, Control_c, 0, 64, 127
1, 231677, Control_c, 0, 67, 39
1, 231678, Note_on_c, 0, 62, 30
1, 231782, Control_c, 0, 67, 38
1, 231813, Note_off_c, 0, 58, 36
1, 231835, Note_off_c, 0, 62, 35
1, 231848, Note_on_c, 0, 55, 43
1, 231886, Control_c, 0, 67, 37
1, 231950, Note_off_c, 0, 55, 61
1, 232053, Note_off_c, 0, 67, 56
1, 232054, Note_on_c, 0, 62, 44
1, 232055, Note_on_c, 0, 58, 41
1, 232085, Note_off_c, 0, 58, 52
1, 232088, Note_off_c, 0, 62, 63
1, 232145, Control_c, 0, 67, 37
1, 232263, Control_c, 0, 67, 36
1, 232279, Note_on_c, 0, 74, 59
1, 232282, Note_on_c, 0, 38, 33
1, 232321, Control_c, 0, 64, 125
1, 232336, Control_c, 0, 64, 109
1, 232351, Control_c, 0, 64, 95
1, 232366, Control_c, 0, 64, 82
1, 232381, Control_c, 0, 64, 69
1, 232396, Control_c, 0, 64, 58
1, 232396, Control_c, 0, 67, 36
1, 232410, Control_c, 0, 64, 52
1, 232425, Control_c, 0, 64, 56
1, 232440, Control_c, 0, 64, 61
1, 232455, Control_c, 0, 64, 65
1, 232470, Control_c, 0, 64, 70
1, 232485, Control_c, 0, 64, 80
1, 232488, Note_on_c, 0, 67, 43
1, 232499, Note_off_c, 0, 38, 52
1, 232500, Control_c, 0, 64, 110
1, 232509, Note_on_c, 0, 62, 38
1, 232514, Control_c, 0, 64, 127
1, 232604, Control_c, 0, 67, 36
1, 232661, Note_off_c, 0, 67, 35
1, 232695, Note_on_c, 0, 58, 51
1, 232697, Note_off_c, 0, 62, 32
1, 232715, Control_c, 0, 67, 37
1, 232789, Note_off_c, 0, 58, 61
1, 232849, Control_c, 0, 67, 37
1, 232882, Note_on_c, 0, 67, 52
1, 232900, Note_on_c, 0, 62, 35
1, 233091, Note_on_c, 0, 73, 75
1, 233099, Control_c, 0, 67, 37
1, 233101, Note_on_c, 0, 38, 34
1, 233115, Note_off_c, 0, 62, 38
1, 233125, Note_off_c, 0, 67, 56
1, 233144, Note_off_c, 0, 74, 55
1, 233144, Control_c, 0, 64, 115
1, 233159, Control_c, 0, 64, 107
1, 233174, Control_c, 0, 64, 99
1, 233189, Control_c, 0, 64, 89
1, 233203, Control_c, 0, 64, 76
1, 233218, Control_c, 0, 64, 65
1, 233233, Control_c, 0, 64, 54
1, 233248, Control_c, 0, 64, 55
1, 233263, Control_c, 0, 64, 59
1, 233278, Control_c, 0, 64, 62
1, 233292, Control_c, 0, 64, 66
1, 233307, Control_c, 0, 64, 71
1, 233308, Note_off_c, 0, 38, 56
1, 233313, Note_on_c, 0, 67, 44
1, 233319, Note_on_c, 0, 64, 40
1, 233322, Control_c, 0, 64, 80
1, 233336, Control_c, 0, 64, 104
1, 233351, Control_c, 0, 64, 127
1, 233400, Note_off_c, 0, 64, 49
1, 233428, Note_off_c, 0, 67, 56
1, 233525, Note_on_c, 0, 57, 40
1, 233612, Control_c, 0, 67, 36
1, 233752, Note_off_c, 0, 73, 57
1, 233760, Note_on_c, 0, 64, 41
1, 233764, Note_off_c, 0, 57, 38
1, 233767, Note_on_c, 0, 67, 45
1, 233798, Note_off_c, 0, 64, 62
1, 233803, Note_off_c, 0, 67, 64
1, 234050, Note_on_c, 0, 50, 31
1, 234079, Note_on_c, 0, 81, 71
1, 234190, Control_c, 0, 64, 117
1, 234213, Control_c, 0, 64, 110
1, 234228, Control_c, 0, 64, 104
1, 234243, Control_c, 0, 64, 99
1, 234258, Control_c, 0, 64, 95
1, 234272, Control_c, 0, 64, 90
1, 234287, Control_c, 0, 64, 87
1, 234302, Control_c, 0, 64, 84
1, 234317, Control_c, 0, 64, 81
1, 234332, Control_c, 0, 64, 79
1, 234346, Control_c, 0, 64, 78
1, 234361, Control_c, 0, 64, 76
1, 234376, Control_c, 0, 64, 73
1, 234390, Control_c, 0, 64, 71
1, 234390, Control_c, 0, 67, 37
1, 234405, Control_c, 0, 64, 68
1, 234420, Control_c, 0, 64, 64
1, 234434, Note_on_c, 0, 67, 31
1, 234435, Control_c, 0, 64, 58
1, 234443, Note_on_c, 0, 69, 34
1, 234450, Control_c, 0, 64, 51
1, 234464, Control_c, 0, 64, 50
1, 234479, Control_c, 0, 64, 51
1, 234494, Control_c, 0, 64, 54
1, 234509, Control_c, 0, 64, 58
1, 234524, Control_c, 0, 64, 62
1, 234539, Control_c, 0, 64, 64
1, 234554, Control_c, 0, 64, 68
1, 234554, Control_c, 0, 67, 37
1, 234569, Control_c, 0, 64, 73
1, 234572, Note_off_c, 0, 69, 36
1, 234583, Control_c, 0, 64, 83
1, 234593, Note_off_c, 0, 67, 32
1, 234598, Control_c, 0, 64, 97
1, 234613, Control_c, 0, 64, 127
1, 234676, Note_on_c, 0, 57, 36
1, 234688, Note_on_c, 0, 61, 36
1, 234777, Note_off_c, 0, 50, 40
1, 234838, Note_off_c, 0, 81, 51
1, 234895, Note_on_c, 0, 67, 35
1, 234903, Note_on_c, 0, 69, 38
1, 234913, Note_off_c, 0, 57, 36
1, 235130, Note_on_c, 0, 50, 33
1, 235144, Note_on_c, 0, 77, 54
1, 235155, Control_c, 0, 64, 125
1, 235169, Control_c, 0, 64, 116
1, 235184, Control_c, 0, 64, 112
1, 235199, Control_c, 0, 64, 108
1, 235208, Note_off_c, 0, 69, 39
1, 235213, Control_c, 0, 64, 104
1, 235228, Control_c, 0, 64, 101
1, 235236, Note_off_c, 0, 67, 41
1, 235243, Control_c, 0, 64, 99
1, 235258, Control_c, 0, 64, 97
1, 235273, Control_c, 0, 64, 94
1, 235287, Control_c, 0, 64, 91
1, 235302, Control_c, 0, 64, 89
1, 235302, Control_c, 0, 67, 38
1, 235308, Note_off_c, 0, 61, 38
1, 235317, Control_c, 0, 64, 86
1, 235332, Control_c, 0, 64, 81
1, 235347, Control_c, 0, 64, 75
1, 235360, Note_on_c, 0, 65, 43
1, 235362, Control_c, 0, 64, 68
1, 235375, Note_on_c, 0, 69, 34
1, 235376, Control_c, 0, 64, 61
1, 235391, Control_c, 0, 64, 57
1, 235406, Control_c, 0, 64, 58
1, 235421, Control_c, 0, 64, 59
1, 235421, Control_c, 0, 67, 39
1, 235436, Control_c, 0, 64, 61
1, 235451, Control_c, 0, 64, 63
1, 235466, Control_c, 0, 64, 65
1, 235480, Control_c, 0, 64, 68
1, 235495, Control_c, 0, 64, 72
1, 235510, Control_c, 0, 64, 79
1, 235525, Control_c, 0, 64, 88
1, 235539, Control_c, 0, 64, 98
1, 235554, Control_c, 0, 64, 109
1, 235569, Control_c, 0, 64, 119
1, 235573, Note_on_c, 0, 73, 64
1, 235574, Note_on_c, 0, 57, 36
1, 235584, Note_on_c, 0, 62, 32
1, 235584, Control_c, 0, 64, 127
1, 235633, Note_off_c, 0, 69, 41
1, 235654, Note_off_c, 0, 65, 36
1, 235658, Control_c, 0, 67, 38
1, 235692, Note_off_c, 0, 50, 39
1, 235720, Note_off_c, 0, 77, 39
1, 235761, Note_on_c, 0, 69, 50
1, 235798, Note_on_c, 0, 65, 40
1, 235844, Control_c, 0, 64, 125
1, 235859, Control_c, 0, 64, 120
1, 235859, Control_c, 0, 67, 37
1, 235874, Control_c, 0, 64, 119
1, 235889, Control_c, 0, 64, 116
1, 235904, Control_c, 0, 64, 114
1, 235918, Control_c, 0, 64, 112
1, 235933, Control_c, 0, 64, 109
1, 235948, Control_c, 0, 64, 106
1, 235962, Control_c, 0, 64, 103
1, 235976, Note_off_c, 0, 57, 33
1, 235977, Control_c, 0, 64, 100
1, 235979, Note_on_c, 0, 74, 71
1, 235980, Note_on_c, 0, 50, 34
1, 235992, Control_c, 0, 64, 96
1, 235992, Control_c, 0, 67, 37
1, 235997, Note_off_c, 0, 69, 55
1, 236007, Control_c, 0, 64, 92
1, 236022, Control_c, 0, 64, 87
1, 236036, Control_c, 0, 64, 83
1, 236051, Control_c, 0, 64, 82
1, 236061, Note_off_c, 0, 65, 35
1, 236081, Control_c, 0, 64, 82
1, 236096, Control_c, 0, 64, 80
1, 236110, Control_c, 0, 64, 76
1, 236125, Control_c, 0, 64, 69
1, 236125, Control_c, 0, 67, 36
1, 236140, Control_c, 0, 64, 62
1, 236145, Note_off_c, 0, 62, 27
1, 236155, Control_c, 0, 64, 54
1, 236169, Control_c, 0, 64, 53
1, 236177, Note_on_c, 0, 69, 46
1, 236184, Control_c, 0, 64, 55
1, 236199, Control_c, 0, 64, 57
1, 236202, Note_on_c, 0, 65, 39
1, 236214, Control_c, 0, 64, 60
1, 236229, Control_c, 0, 64, 62
1, 236244, Control_c, 0, 64, 63
1, 236259, Control_c, 0, 64, 66
1, 236268, Note_off_c, 0, 73, 19
1, 236274, Control_c, 0, 64, 70
1, 236274, Control_c, 0, 67, 36
1, 236289, Control_c, 0, 64, 77
1, 236303, Control_c, 0, 64, 86
1, 236318, Control_c, 0, 64, 97
1, 236333, Control_c, 0, 64, 103
1, 236348, Control_c, 0, 64, 105
1, 236400, Note_on_c, 0, 76, 76
1, 236403, Note_on_c, 0, 57, 36
1, 236405, Note_off_c, 0, 69, 56
1, 236449, Note_off_c, 0, 65, 38
1, 236479, Note_off_c, 0, 50, 40
1, 236484, Note_off_c, 0, 74, 48
1, 236518, Control_c, 0, 64, 104
1, 236548, Control_c, 0, 64, 104
1, 236578, Control_c, 0, 64, 103
1, 236593, Control_c, 0, 64, 103
1, 236608, Control_c, 0, 64, 102
1, 236623, Note_on_c, 0, 69, 43
1, 236625, Note_on_c, 0, 65, 32
1, 236652, Control_c, 0, 64, 102
1, 236667, Control_c, 0, 64, 101
1, 236682, Control_c, 0, 64, 100
1, 236697, Control_c, 0, 64, 100
1, 236726, Note_off_c, 0, 57, 36
1, 236727, Control_c, 0, 64, 99
1, 236741, Control_c, 0, 64, 99
1, 236756, Control_c, 0, 64, 98
1, 236771, Control_c, 0, 64, 98
1, 236785, Control_c, 0, 64, 97
1, 236800, Control_c, 0, 64, 96
1, 236815, Control_c, 0, 64, 96
1, 236830, Control_c, 0, 64, 95
1, 236845, Control_c, 0, 64, 94
1, 236854, Note_off_c, 0, 76, 51
1, 236855, Note_on_c, 0, 73, 60
1, 236856, Note_on_c, 0, 50, 27
1, 236859, Control_c, 0, 64, 93
1, 236874, Control_c, 0, 64, 93
1, 236889, Control_c, 0, 64, 92
1, 236897, Note_off_c, 0, 69, 46
1, 236904, Control_c, 0, 64, 92
1, 236919, Control_c, 0, 64, 90
1, 236933, Control_c, 0, 64, 89
1, 236948, Control_c, 0, 64, 87
1, 236962, Note_off_c, 0, 65, 40
1, 236963, Control_c, 0, 64, 84
1, 236977, Control_c, 0, 64, 82
1, 236992, Control_c, 0, 64, 79
1, 237007, Control_c, 0, 64, 78
1, 237022, Control_c, 0, 64, 76
1, 237037, Control_c, 0, 64, 75
1, 237052, Control_c, 0, 64, 74
1, 237067, Control_c, 0, 64, 72
1, 237082, Control_c, 0, 64, 68
1, 237096, Control_c, 0, 64, 63
1, 237111, Control_c, 0, 64, 54
1, 237126, Control_c, 0, 64, 47
1, 237127, Note_on_c, 0, 67, 36
1, 237133, Note_on_c, 0, 64, 33
1, 237156, Control_c, 0, 64, 48
1, 237171, Control_c, 0, 64, 51
1, 237185, Control_c, 0, 64, 55
1, 237207, Control_c, 0, 64, 58
1, 237222, Control_c, 0, 64, 60
1, 237237, Control_c, 0, 64, 62
1, 237252, Control_c, 0, 64, 65
1, 237266, Control_c, 0, 64, 69
1, 237281, Control_c, 0, 64, 74
1, 237293, Note_off_c, 0, 67, 35
1, 237296, Control_c, 0, 64, 79
1, 237308, Note_off_c, 0, 64, 43
1, 237311, Control_c, 0, 64, 84
1, 237326, Control_c, 0, 64, 88
1, 237341, Control_c, 0, 64, 90
1, 237356, Note_on_c, 0, 57, 33
1, 237482, Note_off_c, 0, 50, 38
1, 237535, Control_c, 0, 64, 90
1, 237573, Note_off_c, 0, 73, 54
1, 237586, Note_on_c, 0, 67, 38
1, 237590, Note_on_c, 0, 64, 37
1, 237623, Control_c, 0, 64, 89
1, 237647, Note_off_c, 0, 67, 56
1, 237663, Note_off_c, 0, 57, 34
1, 237682, Control_c, 0, 64, 89
1, 237727, Control_c, 0, 64, 88
1, 237756, Control_c, 0, 64, 88
1, 237771, Control_c, 0, 64, 87
1, 237800, Control_c, 0, 64, 87
1, 237830, Control_c, 0, 64, 86
1, 237845, Control_c, 0, 64, 86
1, 237860, Control_c, 0, 64, 85
1, 237861, Note_on_c, 0, 69, 59
1, 237865, Note_on_c, 0, 50, 30
1, 237874, Control_c, 0, 64, 84
1, 237882, Note_off_c, 0, 64, 37
1, 237889, Control_c, 0, 64, 84
1, 237904, Control_c, 0, 64, 83
1, 237919, Control_c, 0, 64, 82
1, 237934, Control_c, 0, 64, 81
1, 237956, Control_c, 0, 64, 80
1, 237971, Control_c, 0, 64, 79
1, 237986, Control_c, 0, 64, 78
1, 238001, Control_c, 0, 64, 77
1, 238015, Control_c, 0, 64, 76
1, 238030, Control_c, 0, 64, 75
1, 238045, Control_c, 0, 64, 74
1, 238060, Control_c, 0, 64, 73
1, 238075, Control_c, 0, 64, 71
1, 238089, Control_c, 0, 64, 69
1, 238104, Control_c, 0, 64, 65
1, 238119, Control_c, 0, 64, 61
1, 238134, Control_c, 0, 64, 59
1, 238146, Note_on_c, 0, 65, 30
1, 238165, Control_c, 0, 64, 60
1, 238165, Control_c, 0, 67, 35
1, 238168, Note_on_c, 0, 62, 27
1, 238179, Control_c, 0, 64, 61
1, 238194, Control_c, 0, 64, 62
1, 238209, Control_c, 0, 64, 63
1, 238224, Control_c, 0, 64, 64
1, 238238, Control_c, 0, 64, 65
1, 238253, Control_c, 0, 64, 66
1, 238268, Control_c, 0, 64, 68
1, 238283, Control_c, 0, 64, 72
1, 238298, Control_c, 0, 64, 77
1, 238313, Control_c, 0, 64, 83
1, 238328, Control_c, 0, 64, 90
1, 238342, Control_c, 0, 64, 97
1, 238350, Note_on_c, 0, 57, 35
1, 238357, Control_c, 0, 64, 103
1, 238372, Control_c, 0, 64, 108
1, 238384, Note_off_c, 0, 65, 35
1, 238387, Control_c, 0, 64, 113
1, 238393, Note_off_c, 0, 62, 38
1, 238402, Control_c, 0, 64, 115
1, 238417, Control_c, 0, 64, 116
1, 238431, Control_c, 0, 64, 117
1, 238446, Control_c, 0, 64, 119
1, 238527, Note_off_c, 0, 50, 40
1, 238536, Note_on_c, 0, 65, 40
1, 238543, Note_on_c, 0, 62, 37
1, 238549, Control_c, 0, 64, 117
1, 238579, Control_c, 0, 64, 116
1, 238594, Control_c, 0, 64, 115
1, 238609, Control_c, 0, 64, 113
1, 238623, Control_c, 0, 64, 112
1, 238638, Control_c, 0, 64, 110
1, 238653, Control_c, 0, 64, 108
1, 238668, Control_c, 0, 64, 106
1, 238683, Control_c, 0, 64, 104
1, 238705, Control_c, 0, 64, 102
1, 238720, Control_c, 0, 64, 101
1, 238723, Note_on_c, 0, 50, 32
1, 238735, Control_c, 0, 64, 98
1, 238737, Note_on_c, 0, 70, 72
1, 238750, Control_c, 0, 64, 96
1, 238764, Control_c, 0, 64, 93
1, 238779, Control_c, 0, 64, 91
1, 238794, Control_c, 0, 64, 88
1, 238809, Control_c, 0, 64, 87
1, 238816, Note_off_c, 0, 62, 38
1, 238824, Control_c, 0, 64, 85
1, 238829, Note_off_c, 0, 65, 31
1, 238836, Note_off_c, 0, 69, 36
1, 238838, Control_c, 0, 64, 83
1, 238853, Control_c, 0, 64, 80
1, 238868, Control_c, 0, 64, 76
1, 238883, Control_c, 0, 64, 70
1, 238898, Control_c, 0, 64, 65
1, 238912, Control_c, 0, 64, 61
1, 238942, Control_c, 0, 64, 63
1, 238953, Note_off_c, 0, 57, 33
1, 238957, Note_on_c, 0, 62, 32
1, 238958, Control_c, 0, 64, 64
1, 238960, Note_on_c, 0, 65, 42
1, 238973, Control_c, 0, 64, 65
1, 238988, Control_c, 0, 64, 67
1, 239002, Control_c, 0, 64, 69
1, 239017, Control_c, 0, 64, 74
1, 239032, Control_c, 0, 64, 79
1, 239047, Control_c, 0, 64, 87
1, 239047, Control_c, 0, 67, 34
1, 239061, Control_c, 0, 64, 96
1, 239076, Control_c, 0, 64, 107
1, 239091, Control_c, 0, 64, 120
1, 239106, Control_c, 0, 64, 127
1, 239151, Note_on_c, 0, 58, 46
1, 239165, Note_off_c, 0, 62, 36
1, 239180, Note_off_c, 0, 65, 34
1, 239320, Note_on_c, 0, 65, 46
1, 239322, Note_on_c, 0, 62, 37
1, 239323, Note_off_c, 0, 50, 40
1, 239469, Control_c, 0, 64, 122
1, 239484, Control_c, 0, 64, 117
1, 239499, Control_c, 0, 64, 114
1, 239514, Control_c, 0, 64, 110
1, 239516, Note_on_c, 0, 50, 36
1, 239523, Note_on_c, 0, 71, 78
1, 239528, Control_c, 0, 64, 107
1, 239543, Control_c, 0, 64, 105
1, 239544, Note_off_c, 0, 65, 53
1, 239558, Control_c, 0, 64, 102
1, 239573, Control_c, 0, 64, 99
1, 239587, Control_c, 0, 64, 96
1, 239591, Note_off_c, 0, 62, 39
1, 239602, Control_c, 0, 64, 92
1, 239617, Control_c, 0, 64, 87
1, 239632, Control_c, 0, 64, 82
1, 239647, Control_c, 0, 64, 77
1, 239661, Control_c, 0, 64, 71
1, 239663, Note_off_c, 0, 70, 31
1, 239676, Control_c, 0, 64, 66
1, 239691, Control_c, 0, 64, 63
1, 239706, Control_c, 0, 64, 62
1, 239721, Control_c, 0, 64, 63
1, 239723, Note_on_c, 0, 68, 51
1, 239735, Note_on_c, 0, 65, 38
1, 239735, Control_c, 0, 64, 64
1, 239735, Control_c, 0, 67, 35
1, 239751, Control_c, 0, 64, 65
1, 239763, Note_off_c, 0, 58, 32
1, 239766, Control_c, 0, 64, 68
1, 239781, Control_c, 0, 64, 71
1, 239796, Control_c, 0, 64, 75
1, 239810, Control_c, 0, 64, 81
1, 239825, Control_c, 0, 64, 90
1, 239825, Control_c, 0, 67, 36
1, 239840, Control_c, 0, 64, 104
1, 239855, Control_c, 0, 64, 127
1, 239913, Note_on_c, 0, 59, 64
1, 239934, Note_off_c, 0, 68, 28
1, 239953, Note_off_c, 0, 65, 37
1, 239976, Note_off_c, 0, 50, 46
1, 240083, Note_on_c, 0, 68, 57
1, 240083, Note_on_c, 0, 65, 50
1, 240244, Note_off_c, 0, 65, 47
1, 240288, Note_on_c, 0, 48, 45
1, 240289, Note_on_c, 0, 72, 82
1, 240303, Note_off_c, 0, 68, 29
1, 240307, Control_c, 0, 64, 120
1, 240322, Control_c, 0, 64, 113
1, 240337, Control_c, 0, 64, 109
1, 240340, Note_off_c, 0, 71, 53
1, 240351, Control_c, 0, 64, 106
1, 240366, Control_c, 0, 64, 104
1, 240381, Control_c, 0, 64, 101
1, 240396, Control_c, 0, 64, 99
1, 240410, Control_c, 0, 64, 96
1, 240425, Control_c, 0, 64, 94
1, 240427, Note_off_c, 0, 59, 37
1, 240440, Control_c, 0, 64, 92
1, 240455, Control_c, 0, 64, 90
1, 240470, Control_c, 0, 64, 86
1, 240471, Note_on_c, 0, 69, 60
1, 240480, Note_on_c, 0, 65, 47
1, 240484, Control_c, 0, 64, 80
1, 240499, Control_c, 0, 64, 73
1, 240514, Control_c, 0, 64, 66
1, 240529, Control_c, 0, 64, 60
1, 240544, Control_c, 0, 64, 56
1, 240560, Control_c, 0, 64, 57
1, 240574, Control_c, 0, 64, 58
1, 240589, Control_c, 0, 64, 59
1, 240604, Control_c, 0, 64, 61
1, 240619, Control_c, 0, 64, 63
1, 240633, Control_c, 0, 64, 65
1, 240648, Control_c, 0, 64, 67
1, 240663, Control_c, 0, 64, 70
1, 240666, Note_on_c, 0, 60, 70
1, 240678, Control_c, 0, 64, 76
1, 240693, Control_c, 0, 64, 85
1, 240704, Note_off_c, 0, 65, 50
1, 240705, Note_off_c, 0, 69, 38
1, 240707, Control_c, 0, 64, 96
1, 240722, Control_c, 0, 64, 111
1, 240737, Control_c, 0, 64, 127
1, 240752, Poly_aftertouch_c, 0, 51, 127
1, 240797, Note_off_c, 0, 48, 57
1, 240858, Note_on_c, 0, 65, 62
1, 240864, Note_on_c, 0, 69, 67
1, 240915, Poly_aftertouch_c, 0, 51, 0
1, 241029, Note_off_c, 0, 72, 62
1, 241040, Control_c, 0, 67, 36
1, 241076, Note_on_c, 0, 73, 88
1, 241089, Note_on_c, 0, 48, 36
1, 241120, Note_off_c, 0, 65, 47
1, 241134, Note_off_c, 0, 69, 53
1, 241237, Note_off_c, 0, 60, 44
1, 241248, Control_c, 0, 64, 115
1, 241263, Control_c, 0, 64, 107
1, 241278, Control_c, 0, 64, 100
1, 241278, Control_c, 0, 67, 37
1, 241293, Control_c, 0, 64, 95
1, 241296, Note_on_c, 0, 69, 59
1, 241307, Control_c, 0, 64, 90
1, 241313, Note_on_c, 0, 65, 38
1, 241322, Control_c, 0, 64, 86
1, 241337, Control_c, 0, 64, 83
1, 241353, Control_c, 0, 64, 81
1, 241368, Control_c, 0, 64, 80
1, 241383, Control_c, 0, 64, 79
1, 241397, Control_c, 0, 64, 79
1, 241397, Control_c, 0, 67, 37
1, 241412, Control_c, 0, 64, 78
1, 241427, Control_c, 0, 64, 75
1, 241442, Control_c, 0, 64, 72
1, 241456, Control_c, 0, 64, 67
1, 241471, Control_c, 0, 64, 62
1, 241486, Control_c, 0, 64, 57
1, 241501, Control_c, 0, 64, 55
1, 241516, Control_c, 0, 64, 56
1, 241523, Note_on_c, 0, 61, 67
1, 241530, Control_c, 0, 64, 58
1, 241532, Note_off_c, 0, 69, 55
1, 241544, Note_off_c, 0, 65, 40
1, 241545, Control_c, 0, 64, 61
1, 241560, Control_c, 0, 64, 63
1, 241575, Control_c, 0, 64, 64
1, 241590, Control_c, 0, 64, 67
1, 241604, Control_c, 0, 64, 71
1, 241619, Control_c, 0, 64, 79
1, 241634, Control_c, 0, 64, 89
1, 241648, Control_c, 0, 64, 101
1, 241663, Control_c, 0, 64, 116
1, 241678, Control_c, 0, 64, 127
1, 241681, Note_off_c, 0, 48, 36
1, 241781, Note_on_c, 0, 69, 69
1, 241802, Note_on_c, 0, 65, 49
1, 241825, Note_off_c, 0, 73, 54
1, 242042, Control_c, 0, 67, 37
1, 242056, Control_c, 0, 64, 122
1, 242071, Control_c, 0, 64, 115
1, 242071, Control_c, 0, 67, 36
1, 242082, Note_on_c, 0, 74, 74
1, 242086, Control_c, 0, 64, 112
1, 242093, Note_on_c, 0, 48, 36
1, 242101, Control_c, 0, 64, 108
1, 242113, Note_off_c, 0, 69, 61
1, 242116, Control_c, 0, 64, 105
1, 242130, Control_c, 0, 64, 102
1, 242146, Control_c, 0, 64, 99
1, 242146, Note_off_c, 0, 65, 37
1, 242161, Control_c, 0, 64, 96
1, 242176, Control_c, 0, 64, 92
1, 242191, Control_c, 0, 64, 87
1, 242206, Control_c, 0, 64, 82
1, 242220, Control_c, 0, 64, 78
1, 242235, Control_c, 0, 64, 74
1, 242250, Control_c, 0, 64, 71
1, 242265, Control_c, 0, 64, 67
1, 242279, Control_c, 0, 64, 65
1, 242294, Control_c, 0, 64, 62
1, 242297, Note_off_c, 0, 61, 37
1, 242309, Control_c, 0, 64, 59
1, 242324, Control_c, 0, 64, 55
1, 242339, Control_c, 0, 64, 52
1, 242353, Control_c, 0, 64, 49
1, 242368, Control_c, 0, 64, 45
1, 242383, Control_c, 0, 64, 44
1, 242450, Control_c, 0, 64, 46
1, 242463, Note_on_c, 0, 70, 42
1, 242465, Control_c, 0, 64, 49
1, 242472, Note_on_c, 0, 65, 36
1, 242479, Control_c, 0, 64, 52
1, 242494, Control_c, 0, 64, 55
1, 242509, Control_c, 0, 64, 57
1, 242524, Control_c, 0, 64, 59
1, 242539, Control_c, 0, 64, 61
1, 242553, Control_c, 0, 64, 64
1, 242568, Control_c, 0, 64, 66
1, 242583, Control_c, 0, 64, 68
1, 242597, Control_c, 0, 64, 72
1, 242612, Control_c, 0, 64, 77
1, 242627, Control_c, 0, 64, 81
1, 242627, Control_c, 0, 67, 36
1, 242642, Control_c, 0, 64, 86
1, 242648, Note_off_c, 0, 65, 29
1, 242657, Control_c, 0, 64, 90
1, 242671, Control_c, 0, 64, 92
1, 242671, Control_c, 0, 67, 35
1, 242682, Note_off_c, 0, 70, 27
1, 242686, Control_c, 0, 64, 94
1, 242701, Control_c, 0, 64, 96
1, 242716, Control_c, 0, 64, 98
1, 242731, Control_c, 0, 64, 103
1, 242745, Control_c, 0, 64, 108
1, 242760, Control_c, 0, 64, 112
1, 242763, Note_on_c, 0, 62, 47
1, 242775, Control_c, 0, 64, 115
1, 242790, Control_c, 0, 64, 115
1, 242804, Control_c, 0, 67, 34
1, 242810, Poly_aftertouch_c, 0, 51, 127
1, 242819, Control_c, 0, 64, 116
1, 242915, Note_off_c, 0, 48, 36
1, 243028, Note_on_c, 0, 70, 40
1, 243035, Note_on_c, 0, 65, 35
1, 243042, Control_c, 0, 67, 35
1, 243057, Control_c, 0, 64, 115
1, 243072, Control_c, 0, 64, 115
1, 243087, Control_c, 0, 64, 114
1, 243101, Control_c, 0, 64, 113
1, 243107, Note_off_c, 0, 65, 49
1, 243116, Control_c, 0, 64, 112
1, 243131, Control_c, 0, 64, 111
1, 243146, Control_c, 0, 64, 110
1, 243161, Control_c, 0, 64, 110
1, 243175, Control_c, 0, 64, 109
1, 243175, Control_c, 0, 67, 36
1, 243198, Control_c, 0, 64, 108
1, 243213, Note_off_c, 0, 70, 43
1, 243213, Control_c, 0, 64, 107
1, 243227, Control_c, 0, 64, 106
1, 243235, Note_on_c, 0, 48, 41
1, 243242, Control_c, 0, 64, 105
1, 243257, Control_c, 0, 64, 104
1, 243272, Control_c, 0, 64, 103
1, 243287, Control_c, 0, 64, 102
1, 243301, Control_c, 0, 64, 100
1, 243316, Control_c, 0, 64, 99
1, 243331, Control_c, 0, 64, 98
1, 243346, Control_c, 0, 64, 96
1, 243361, Control_c, 0, 64, 95
1, 243362, Note_off_c, 0, 62, 22
1, 243375, Control_c, 0, 64, 93
1, 243390, Control_c, 0, 64, 90
1, 243405, Control_c, 0, 64, 88
1, 243419, Control_c, 0, 64, 87
1, 243431, Note_on_c, 0, 64, 40
1, 243434, Control_c, 0, 64, 85
1, 243434, Control_c, 0, 67, 36
1, 243437, Note_on_c, 0, 67, 45
1, 243449, Control_c, 0, 64, 85
1, 243464, Control_c, 0, 64, 84
1, 243479, Control_c, 0, 64, 82
1, 243493, Control_c, 0, 64, 80
1, 243493, Control_c, 0, 67, 37
1, 243508, Control_c, 0, 64, 78
1, 243523, Control_c, 0, 64, 76
1, 243538, Control_c, 0, 64, 75
1, 243553, Control_c, 0, 64, 73
1, 243567, Control_c, 0, 64, 71
1, 243567, Control_c, 0, 67, 37
1, 243582, Control_c, 0, 64, 69
1, 243597, Control_c, 0, 64, 66
1, 243612, Control_c, 0, 64, 63
1, 243612, Control_c, 0, 67, 38
1, 243623, Note_off_c, 0, 67, 54
1, 243626, Control_c, 0, 64, 60
1, 243641, Control_c, 0, 64, 59
1, 243648, Note_on_c, 0, 70, 55
1, 243651, Note_on_c, 0, 58, 32
1, 243663, Note_off_c, 0, 64, 42
1, 243664, Poly_aftertouch_c, 0, 51, 0
1, 243671, Control_c, 0, 64, 59
1, 243686, Control_c, 0, 64, 60
1, 243700, Control_c, 0, 64, 62
1, 243715, Control_c, 0, 64, 64
1, 243730, Control_c, 0, 64, 65
1, 243746, Control_c, 0, 64, 68
1, 243746, Control_c, 0, 67, 39
1, 243761, Control_c, 0, 64, 72
1, 243776, Control_c, 0, 64, 78
1, 243790, Control_c, 0, 64, 85
1, 243793, Note_off_c, 0, 74, 43
1, 243805, Control_c, 0, 64, 95
1, 243820, Control_c, 0, 64, 106
1, 243835, Control_c, 0, 64, 115
1, 243849, Control_c, 0, 64, 117
1, 243860, Note_on_c, 0, 67, 42
1, 243869, Note_on_c, 0, 64, 32
1, 243873, Note_off_c, 0, 70, 57
1, 243896, Note_off_c, 0, 67, 58
1, 243909, Control_c, 0, 64, 116
1, 243923, Control_c, 0, 64, 115
1, 243935, Note_off_c, 0, 64, 50
1, 243946, Control_c, 0, 64, 113
1, 243961, Control_c, 0, 64, 112
1, 243976, Control_c, 0, 64, 110
1, 243990, Control_c, 0, 64, 109
1, 244005, Control_c, 0, 64, 108
1, 244020, Control_c, 0, 64, 107
1, 244035, Control_c, 0, 64, 107
1, 244049, Control_c, 0, 64, 105
1, 244064, Control_c, 0, 64, 104
1, 244079, Control_c, 0, 64, 103
1, 244094, Control_c, 0, 64, 102
1, 244096, Note_on_c, 0, 53, 36
1, 244100, Note_on_c, 0, 69, 49
1, 244109, Control_c, 0, 64, 100
1, 244123, Control_c, 0, 64, 98
1, 244138, Control_c, 0, 64, 95
1, 244153, Control_c, 0, 64, 93
1, 244167, Note_off_c, 0, 48, 18
1, 244168, Control_c, 0, 64, 90
1, 244183, Control_c, 0, 64, 86
1, 244197, Control_c, 0, 64, 83
1, 244212, Control_c, 0, 64, 80
1, 244227, Control_c, 0, 64, 76
1, 244242, Control_c, 0, 64, 73
1, 244257, Control_c, 0, 64, 70
1, 244264, Note_off_c, 0, 58, 36
1, 244272, Control_c, 0, 64, 67
1, 244286, Control_c, 0, 64, 64
1, 244301, Control_c, 0, 64, 60
1, 244316, Control_c, 0, 64, 52
1, 244331, Control_c, 0, 64, 49
1, 244346, Control_c, 0, 64, 48
1, 244361, Control_c, 0, 64, 49
1, 244366, Note_on_c, 0, 65, 31
1, 244375, Control_c, 0, 64, 50
1, 244375, Control_c, 0, 67, 39
1, 244390, Control_c, 0, 64, 53
1, 244405, Control_c, 0, 64, 56
1, 244420, Control_c, 0, 64, 59
1, 244435, Control_c, 0, 64, 61
1, 244449, Control_c, 0, 64, 63
1, 244464, Control_c, 0, 64, 65
1, 244479, Control_c, 0, 64, 68
1, 244494, Control_c, 0, 64, 72
1, 244509, Control_c, 0, 64, 78
1, 244523, Control_c, 0, 64, 83
1, 244539, Control_c, 0, 64, 88
1, 244554, Control_c, 0, 64, 92
1, 244569, Control_c, 0, 64, 95
1, 244569, Control_c, 0, 67, 39
1, 244574, Note_on_c, 0, 57, 32
1, 244584, Control_c, 0, 64, 98
1, 244599, Control_c, 0, 64, 100
1, 244613, Control_c, 0, 64, 100
1, 244628, Control_c, 0, 64, 101
1, 244693, Note_off_c, 0, 53, 41
1, 244710, Control_c, 0, 67, 38
1, 244725, Control_c, 0, 64, 100
1, 244754, Control_c, 0, 64, 100
1, 244764, Note_off_c, 0, 57, 47
1, 244799, Control_c, 0, 64, 99
1, 244814, Control_c, 0, 67, 37
1, 244828, Control_c, 0, 64, 98
1, 244857, Note_on_c, 0, 60, 38
1, 244858, Control_c, 0, 64, 98
1, 244917, Control_c, 0, 64, 97
1, 244918, Note_off_c, 0, 65, 15
1, 244932, Control_c, 0, 64, 97
1, 244933, Note_off_c, 0, 69, 35
1, 244946, Note_off_c, 0, 60, 51
1, 244961, Control_c, 0, 64, 96
1, 244976, Control_c, 0, 64, 96
1, 244990, Control_c, 0, 64, 95
1, 245005, Control_c, 0, 64, 95
1, 245035, Control_c, 0, 64, 94
1, 245051, Control_c, 0, 64, 94
1, 245065, Control_c, 0, 64, 93
1, 245080, Control_c, 0, 64, 93
1, 245095, Control_c, 0, 64, 92
1, 245110, Control_c, 0, 64, 92
1, 245125, Control_c, 0, 64, 91
1, 245154, Control_c, 0, 64, 90
1, 245169, Control_c, 0, 64, 90
1, 245179, Note_on_c, 0, 41, 37
1, 245180, Note_on_c, 0, 65, 46
1, 245184, Control_c, 0, 64, 89
1, 245199, Control_c, 0, 64, 89
1, 245213, Control_c, 0, 64, 87
1, 245228, Control_c, 0, 64, 85
1, 245243, Control_c, 0, 64, 83
1, 245258, Control_c, 0, 64, 81
1, 245273, Control_c, 0, 64, 78
1, 245288, Control_c, 0, 64, 76
1, 245303, Control_c, 0, 64, 74
1, 245318, Control_c, 0, 64, 70
1, 245333, Control_c, 0, 64, 64
1, 245348, Control_c, 0, 64, 58
1, 245348, Control_c, 0, 67, 37
1, 245363, Control_c, 0, 64, 53
1, 245377, Control_c, 0, 64, 52
1, 245392, Control_c, 0, 64, 53
1, 245407, Control_c, 0, 64, 54
1, 245407, Control_c, 0, 67, 36
1, 245422, Control_c, 0, 64, 56
1, 245444, Control_c, 0, 64, 59
1, 245444, Control_c, 0, 67, 36
1, 245459, Control_c, 0, 64, 61
1, 245459, Control_c, 0, 67, 35
1, 245474, Control_c, 0, 64, 62
1, 245474, Control_c, 0, 67, 34
1, 245489, Control_c, 0, 64, 64
1, 245489, Control_c, 0, 67, 34
1, 245491, Note_on_c, 0, 60, 32
1, 245501, Note_on_c, 0, 57, 23
1, 245503, Control_c, 0, 64, 66
1, 245503, Control_c, 0, 67, 33
1, 245518, Control_c, 0, 64, 69
1, 245518, Control_c, 0, 67, 32
1, 245533, Control_c, 0, 64, 73
1, 245548, Control_c, 0, 64, 78
1, 245548, Control_c, 0, 67, 32
1, 245563, Control_c, 0, 64, 82
1, 245563, Control_c, 0, 67, 31
1, 245577, Control_c, 0, 64, 86
1, 245577, Control_c, 0, 67, 31
1, 245592, Control_c, 0, 64, 89
1, 245607, Control_c, 0, 64, 91
1, 245607, Control_c, 0, 67, 30
1, 245637, Control_c, 0, 64, 91
1, 245637, Control_c, 0, 67, 29
1, 245652, Control_c, 0, 67, 29
1, 245667, Control_c, 0, 64, 92
1, 245667, Control_c, 0, 67, 28
1, 245670, Note_off_c, 0, 57, 38
1, 245676, Note_off_c, 0, 60, 40
1, 245681, Control_c, 0, 67, 27
1, 245696, Control_c, 0, 67, 27
1, 245708, Note_on_c, 0, 53, 46
1, 245711, Control_c, 0, 67, 26
1, 245726, Control_c, 0, 67, 26
1, 245756, Control_c, 0, 67, 25
1, 245800, Control_c, 0, 64, 91
1, 245829, Control_c, 0, 64, 91
1, 245888, Control_c, 0, 64, 90
1, 245906, Note_on_c, 0, 57, 32
1, 245909, Note_on_c, 0, 60, 42
1, 245933, Control_c, 0, 64, 90
1, 245962, Control_c, 0, 64, 89
1, 245977, Control_c, 0, 64, 89
1, 245992, Control_c, 0, 64, 88
1, 246007, Control_c, 0, 64, 87
1, 246009, Note_off_c, 0, 41, 21
1, 246021, Control_c, 0, 64, 87
1, 246036, Control_c, 0, 64, 86
1, 246036, Control_c, 0, 67, 26
1, 246051, Control_c, 0, 64, 85
1, 246066, Control_c, 0, 64, 84
1, 246081, Control_c, 0, 64, 83
1, 246096, Control_c, 0, 64, 82
1, 246111, Control_c, 0, 64, 80
1, 246122, Note_on_c, 0, 45, 39
1, 246125, Note_on_c, 0, 67, 57
1, 246126, Control_c, 0, 64, 79
1, 246137, Note_off_c, 0, 57, 31
1, 246141, Control_c, 0, 64, 78
1, 246156, Control_c, 0, 64, 76
1, 246159, Note_off_c, 0, 60, 38
1, 246171, Control_c, 0, 64, 75
1, 246193, Control_c, 0, 64, 74
1, 246208, Control_c, 0, 64, 73
1, 246223, Control_c, 0, 64, 72
1, 246238, Control_c, 0, 64, 70
1, 246252, Control_c, 0, 64, 68
1, 246267, Control_c, 0, 64, 65
1, 246282, Control_c, 0, 64, 60
1, 246284, Note_off_c, 0, 53, 35
1, 246290, Note_off_c, 0, 65, 21
1, 246297, Control_c, 0, 64, 56
1, 246312, Control_c, 0, 64, 56
1, 246341, Control_c, 0, 64, 57
1, 246356, Control_c, 0, 64, 59
1, 246371, Control_c, 0, 64, 61
1, 246383, Note_on_c, 0, 63, 34
1, 246386, Control_c, 0, 64, 63
1, 246392, Note_on_c, 0, 60, 30
1, 246400, Control_c, 0, 64, 64
1, 246415, Control_c, 0, 64, 66
1, 246430, Control_c, 0, 64, 69
1, 246445, Control_c, 0, 64, 72
1, 246459, Control_c, 0, 64, 79
1, 246474, Control_c, 0, 64, 85
1, 246489, Control_c, 0, 64, 91
1, 246504, Note_off_c, 0, 60, 30
1, 246504, Control_c, 0, 64, 94
1, 246519, Note_off_c, 0, 63, 32
1, 246519, Control_c, 0, 64, 95
1, 246549, Control_c, 0, 64, 96
1, 246564, Control_c, 0, 64, 96
1, 246579, Control_c, 0, 64, 97
1, 246593, Control_c, 0, 64, 97
1, 246601, Note_on_c, 0, 55, 59
1, 246756, Control_c, 0, 64, 97
1, 246765, Note_off_c, 0, 45, 28
1, 246785, Control_c, 0, 64, 96
1, 246799, Note_on_c, 0, 60, 38
1, 246815, Control_c, 0, 64, 96
1, 246819, Note_on_c, 0, 63, 36
1, 246844, Control_c, 0, 64, 95
1, 246859, Control_c, 0, 64, 95
1, 246889, Control_c, 0, 64, 94
1, 246904, Control_c, 0, 64, 94
1, 246919, Control_c, 0, 64, 93
1, 246942, Control_c, 0, 64, 92
1, 246972, Control_c, 0, 64, 91
1, 246987, Control_c, 0, 64, 90
1, 247002, Control_c, 0, 64, 89
1, 247016, Control_c, 0, 64, 88
1, 247017, Note_on_c, 0, 65, 62
1, 247025, Note_on_c, 0, 45, 36
1, 247031, Control_c, 0, 64, 87
1, 247032, Note_off_c, 0, 63, 36
1, 247046, Control_c, 0, 64, 86
1, 247051, Note_off_c, 0, 60, 40
1, 247061, Control_c, 0, 64, 84
1, 247075, Control_c, 0, 64, 82
1, 247090, Control_c, 0, 64, 81
1, 247105, Control_c, 0, 64, 79
1, 247105, Control_c, 0, 67, 25
1, 247120, Control_c, 0, 64, 78
1, 247135, Control_c, 0, 64, 77
1, 247149, Control_c, 0, 64, 76
1, 247164, Control_c, 0, 64, 75
1, 247176, Note_off_c, 0, 67, 27
1, 247179, Control_c, 0, 64, 73
1, 247194, Control_c, 0, 64, 72
1, 247209, Control_c, 0, 64, 69
1, 247223, Control_c, 0, 64, 66
1, 247227, Note_on_c, 0, 63, 32
1, 247229, Note_on_c, 0, 60, 10
1, 247238, Control_c, 0, 64, 63
1, 247246, Note_off_c, 0, 55, 33
1, 247253, Control_c, 0, 64, 61
1, 247253, Control_c, 0, 67, 24
1, 247267, Control_c, 0, 64, 61
1, 247282, Control_c, 0, 64, 61
1, 247297, Control_c, 0, 64, 62
1, 247312, Control_c, 0, 64, 63
1, 247327, Control_c, 0, 64, 64
1, 247342, Control_c, 0, 64, 65
1, 247357, Control_c, 0, 64, 67
1, 247372, Control_c, 0, 64, 69
1, 247387, Control_c, 0, 64, 72
1, 247401, Control_c, 0, 64, 76
1, 247410, Note_on_c, 0, 53, 56
1, 247416, Control_c, 0, 64, 82
1, 247431, Control_c, 0, 64, 91
1, 247437, Note_off_c, 0, 60, 17
1, 247446, Control_c, 0, 64, 104
1, 247460, Control_c, 0, 64, 127
1, 247467, Note_off_c, 0, 63, 41
1, 247532, Note_off_c, 0, 45, 52
1, 247595, Note_on_c, 0, 63, 38
1, 247610, Note_on_c, 0, 60, 29
1, 247801, Note_on_c, 0, 66, 67
1, 247801, Note_on_c, 0, 46, 35
1, 247844, Note_off_c, 0, 65, 57
1, 247877, Note_off_c, 0, 63, 34
1, 247884, Control_c, 0, 64, 122
1, 247893, Note_off_c, 0, 60, 40
1, 247898, Control_c, 0, 64, 115
1, 247913, Control_c, 0, 64, 110
1, 247928, Control_c, 0, 64, 105
1, 247943, Control_c, 0, 64, 100
1, 247958, Control_c, 0, 64, 95
1, 247966, Note_off_c, 0, 53, 41
1, 247972, Control_c, 0, 64, 92
1, 247987, Control_c, 0, 64, 91
1, 248002, Control_c, 0, 64, 90
1, 248003, Note_on_c, 0, 63, 40
1, 248017, Control_c, 0, 64, 88
1, 248022, Note_on_c, 0, 60, 46
1, 248032, Control_c, 0, 64, 86
1, 248045, Control_c, 0, 64, 84
1, 248060, Control_c, 0, 64, 82
1, 248075, Control_c, 0, 64, 81
1, 248090, Control_c, 0, 64, 79
1, 248090, Control_c, 0, 67, 24
1, 248105, Control_c, 0, 64, 75
1, 248120, Control_c, 0, 64, 71
1, 248135, Control_c, 0, 64, 65
1, 248150, Control_c, 0, 64, 62
1, 248164, Control_c, 0, 64, 61
1, 248179, Control_c, 0, 64, 62
1, 248182, Note_on_c, 0, 54, 64
1, 248194, Control_c, 0, 64, 62
1, 248194, Control_c, 0, 67, 23
1, 248208, Control_c, 0, 64, 63
1, 248213, Note_off_c, 0, 60, 39
1, 248223, Control_c, 0, 64, 65
1, 248238, Control_c, 0, 64, 66
1, 248253, Control_c, 0, 64, 69
1, 248264, Note_off_c, 0, 63, 34
1, 248268, Control_c, 0, 64, 74
1, 248282, Control_c, 0, 64, 80
1, 248297, Control_c, 0, 64, 90
1, 248297, Control_c, 0, 67, 22
1, 248312, Control_c, 0, 64, 111
1, 248320, Note_off_c, 0, 46, 42
1, 248327, Control_c, 0, 64, 127
1, 248356, Control_c, 0, 67, 22
1, 248381, Note_on_c, 0, 63, 62
1, 248395, Note_on_c, 0, 60, 51
1, 248507, Note_off_c, 0, 63, 57
1, 248537, Note_off_c, 0, 60, 37
1, 248573, Control_c, 0, 64, 114
1, 248581, Note_on_c, 0, 67, 82
1, 248585, Note_on_c, 0, 46, 43
1, 248588, Control_c, 0, 64, 103
1, 248602, Control_c, 0, 64, 95
1, 248602, Control_c, 0, 67, 21
1, 248617, Control_c, 0, 64, 91
1, 248632, Control_c, 0, 64, 87
1, 248634, Note_off_c, 0, 66, 56
1, 248646, Control_c, 0, 64, 83
1, 248646, Control_c, 0, 67, 21
1, 248661, Control_c, 0, 64, 80
1, 248676, Control_c, 0, 64, 78
1, 248688, Note_off_c, 0, 54, 34
1, 248691, Control_c, 0, 64, 76
1, 248706, Control_c, 0, 64, 75
1, 248720, Control_c, 0, 64, 74
1, 248735, Control_c, 0, 64, 72
1, 248750, Control_c, 0, 64, 71
1, 248765, Control_c, 0, 64, 70
1, 248779, Note_on_c, 0, 62, 52
1, 248780, Control_c, 0, 64, 69
1, 248782, Note_on_c, 0, 58, 52
1, 248795, Control_c, 0, 64, 66
1, 248810, Control_c, 0, 64, 65
1, 248825, Control_c, 0, 64, 63
1, 248839, Control_c, 0, 64, 61
1, 248854, Control_c, 0, 64, 60
1, 248869, Control_c, 0, 64, 59
1, 248884, Control_c, 0, 64, 58
1, 248899, Control_c, 0, 64, 57
1, 248913, Control_c, 0, 64, 56
1, 248943, Control_c, 0, 64, 57
1, 248957, Note_on_c, 0, 55, 73
1, 248958, Control_c, 0, 64, 58
1, 248973, Control_c, 0, 64, 60
1, 248987, Control_c, 0, 64, 62
1, 249002, Control_c, 0, 64, 64
1, 249017, Control_c, 0, 64, 67
1, 249020, Note_off_c, 0, 58, 58
1, 249032, Control_c, 0, 64, 70
1, 249047, Control_c, 0, 64, 76
1, 249062, Control_c, 0, 64, 86
1, 249077, Control_c, 0, 64, 99
1, 249080, Note_off_c, 0, 62, 37
1, 249092, Control_c, 0, 64, 127
1, 249092, Control_c, 0, 67, 20
1, 249121, Note_off_c, 0, 46, 60
1, 249154, Note_on_c, 0, 58, 60
1, 249158, Note_on_c, 0, 62, 66
1, 249217, Control_c, 0, 67, 19
1, 249242, Note_off_c, 0, 58, 58
1, 249336, Control_c, 0, 67, 19
1, 249351, Note_off_c, 0, 62, 54
1, 249361, Note_off_c, 0, 67, 35
1, 249412, Note_on_c, 0, 69, 85
1, 249423, Note_on_c, 0, 47, 48
1, 249425, Control_c, 0, 64, 117
1, 249440, Control_c, 0, 64, 104
1, 249455, Control_c, 0, 64, 97
1, 249470, Control_c, 0, 64, 90
1, 249485, Control_c, 0, 64, 84
1, 249493, Note_off_c, 0, 55, 18
1, 249500, Control_c, 0, 64, 78
1, 249515, Control_c, 0, 64, 74
1, 249530, Control_c, 0, 64, 70
1, 249544, Control_c, 0, 64, 66
1, 249559, Control_c, 0, 64, 61
1, 249574, Control_c, 0, 64, 53
1, 249589, Control_c, 0, 64, 48
1, 249604, Control_c, 0, 64, 47
1, 249648, Control_c, 0, 64, 47
1, 249656, Note_on_c, 0, 62, 51
1, 249661, Note_on_c, 0, 65, 54
1, 249662, Control_c, 0, 64, 49
1, 249677, Control_c, 0, 64, 52
1, 249692, Control_c, 0, 64, 55
1, 249692, Control_c, 0, 67, 18
1, 249707, Control_c, 0, 64, 59
1, 249722, Control_c, 0, 64, 61
1, 249736, Control_c, 0, 64, 64
1, 249751, Control_c, 0, 64, 66
1, 249766, Control_c, 0, 64, 70
1, 249781, Control_c, 0, 64, 76
1, 249781, Control_c, 0, 67, 17
1, 249796, Control_c, 0, 64, 85
1, 249810, Control_c, 0, 64, 97
1, 249825, Control_c, 0, 64, 109
1, 249825, Control_c, 0, 67, 17
1, 249840, Control_c, 0, 64, 117
1, 249843, Note_off_c, 0, 62, 48
1, 249844, Note_off_c, 0, 65, 47
1, 249853, Note_on_c, 0, 57, 74
1, 249855, Control_c, 0, 64, 120
1, 249885, Control_c, 0, 64, 122
1, 249899, Control_c, 0, 64, 127
1, 249914, Control_c, 0, 67, 16
1, 249951, Control_c, 0, 67, 16
1, 249987, Note_off_c, 0, 47, 49
1, 249996, Control_c, 0, 67, 15
1, 250067, Note_on_c, 0, 65, 53
1, 250069, Control_c, 0, 67, 14
1, 250072, Note_on_c, 0, 62, 42
1, 250129, Control_c, 0, 67, 14
1, 250159, Control_c, 0, 67, 13
1, 250174, Control_c, 0, 64, 125
1, 250189, Control_c, 0, 64, 119
1, 250189, Control_c, 0, 67, 12
1, 250204, Control_c, 0, 64, 115
1, 250204, Control_c, 0, 67, 11
1, 250219, Control_c, 0, 64, 111
1, 250219, Control_c, 0, 67, 0
1, 250231, Note_off_c, 0, 69, 56
1, 250233, Control_c, 0, 64, 108
1, 250248, Control_c, 0, 64, 104
1, 250263, Control_c, 0, 64, 101
1, 250266, Note_on_c, 0, 67, 81
1, 250278, Control_c, 0, 64, 98
1, 250288, Note_on_c, 0, 47, 42
1, 250293, Control_c, 0, 64, 96
1, 250302, Note_off_c, 0, 65, 62
1, 250306, Note_off_c, 0, 62, 61
1, 250308, Control_c, 0, 64, 92
1, 250323, Control_c, 0, 64, 89
1, 250338, Control_c, 0, 64, 85
1, 250353, Control_c, 0, 64, 82
1, 250367, Control_c, 0, 64, 78
1, 250382, Control_c, 0, 64, 72
1, 250397, Control_c, 0, 64, 67
1, 250412, Control_c, 0, 64, 61
1, 250427, Control_c, 0, 64, 56
1, 250441, Control_c, 0, 64, 56
1, 250456, Note_on_c, 0, 65, 60
1, 250456, Control_c, 0, 64, 56
1, 250464, Note_on_c, 0, 62, 42
1, 250471, Control_c, 0, 64, 58
1, 250485, Control_c, 0, 64, 59
1, 250500, Control_c, 0, 64, 61
1, 250515, Control_c, 0, 64, 63
1, 250521, Note_off_c, 0, 57, 34
1, 250530, Control_c, 0, 64, 64
1, 250545, Control_c, 0, 64, 67
1, 250559, Control_c, 0, 64, 71
1, 250574, Control_c, 0, 64, 77
1, 250589, Control_c, 0, 64, 84
1, 250604, Control_c, 0, 64, 93
1, 250619, Control_c, 0, 64, 104
1, 250633, Control_c, 0, 64, 122
1, 250648, Control_c, 0, 64, 127
1, 250652, Note_on_c, 0, 55, 75
1, 250708, Note_off_c, 0, 65, 50
1, 250724, Note_off_c, 0, 62, 37
1, 250785, Note_off_c, 0, 47, 56
1, 250836, Note_on_c, 0, 65, 68
1, 250847, Note_on_c, 0, 62, 54
1, 250982, Control_c, 0, 64, 117
1, 250997, Control_c, 0, 64, 110
1, 251012, Control_c, 0, 64, 105
1, 251027, Control_c, 0, 64, 101
1, 251039, Note_on_c, 0, 48, 53
1, 251042, Control_c, 0, 64, 98
1, 251043, Note_on_c, 0, 68, 86
1, 251056, Control_c, 0, 64, 95
1, 251071, Control_c, 0, 64, 91
1, 251086, Control_c, 0, 64, 85
1, 251098, Note_off_c, 0, 67, 56
1, 251101, Control_c, 0, 64, 78
1, 251115, Note_off_c, 0, 65, 56
1, 251116, Control_c, 0, 64, 69
1, 251119, Note_off_c, 0, 62, 35
1, 251131, Control_c, 0, 64, 62
1, 251131, Poly_aftertouch_c, 0, 57, 127
1, 251145, Control_c, 0, 64, 55
1, 251160, Control_c, 0, 64, 53
1, 251171, Note_off_c, 0, 55, 44
1, 251175, Control_c, 0, 64, 54
1, 251190, Control_c, 0, 64, 56
1, 251205, Control_c, 0, 64, 59
1, 251220, Control_c, 0, 64, 62
1, 251235, Control_c, 0, 64, 64
1, 251238, Note_on_c, 0, 62, 51
1, 251240, Note_on_c, 0, 65, 60
1, 251249, Control_c, 0, 64, 66
1, 251264, Control_c, 0, 64, 69
1, 251275, Poly_aftertouch_c, 0, 57, 0
1, 251279, Control_c, 0, 64, 74
1, 251294, Control_c, 0, 64, 84
1, 251308, Control_c, 0, 64, 98
1, 251323, Control_c, 0, 64, 127
1, 251420, Note_on_c, 0, 56, 77
1, 251478, Note_off_c, 0, 65, 55
1, 251507, Note_off_c, 0, 62, 36
1, 251565, Note_off_c, 0, 48, 58
1, 251615, Note_on_c, 0, 65, 69
1, 251616, Note_on_c, 0, 62, 65
1, 251795, Note_off_c, 0, 62, 57
1, 251807, Note_on_c, 0, 48, 72
1, 251816, Note_on_c, 0, 69, 92
1, 251837, Note_off_c, 0, 65, 54
1, 251848, Note_on_c, 0, 62, 20
1, 251849, Control_c, 0, 64, 117
1, 251864, Control_c, 0, 64, 88
1, 251879, Control_c, 0, 64, 73
1, 251889, Note_off_c, 0, 62, 41
1, 251894, Control_c, 0, 64, 64
1, 251899, Note_off_c, 0, 68, 62
1, 251909, Control_c, 0, 64, 54
1, 251923, Control_c, 0, 64, 51
1, 251938, Control_c, 0, 64, 52
1, 251953, Control_c, 0, 64, 54
1, 251965, Note_off_c, 0, 56, 33
1, 251968, Control_c, 0, 64, 57
1, 251983, Control_c, 0, 64, 61
1, 251998, Control_c, 0, 64, 63
1, 252012, Control_c, 0, 64, 67
1, 252018, Note_on_c, 0, 64, 63
1, 252027, Note_on_c, 0, 60, 61
1, 252027, Control_c, 0, 64, 73
1, 252042, Control_c, 0, 64, 94
1, 252056, Control_c, 0, 64, 127
1, 252224, Note_off_c, 0, 64, 54
1, 252236, Note_on_c, 0, 57, 84
1, 252238, Note_off_c, 0, 60, 55
1, 252354, Note_off_c, 0, 48, 58
1, 252433, Note_on_c, 0, 64, 68
1, 252439, Note_on_c, 0, 60, 65
1, 252467, Note_off_c, 0, 69, 59
1, 252523, Note_off_c, 0, 64, 60
1, 252636, Note_off_c, 0, 57, 33
1, 252687, Note_on_c, 0, 49, 61
1, 252700, Note_on_c, 0, 70, 94
1, 252764, Note_off_c, 0, 60, 24
1, 252791, Control_c, 0, 64, 108
1, 252806, Control_c, 0, 64, 102
1, 252821, Control_c, 0, 64, 98
1, 252836, Control_c, 0, 64, 95
1, 252851, Control_c, 0, 64, 89
1, 252865, Control_c, 0, 64, 83
1, 252880, Control_c, 0, 64, 76
1, 252895, Control_c, 0, 64, 71
1, 252910, Control_c, 0, 64, 65
1, 252932, Control_c, 0, 64, 58
1, 252947, Control_c, 0, 64, 48
1, 252961, Control_c, 0, 64, 42
1, 252976, Control_c, 0, 64, 41
1, 253004, Note_on_c, 0, 64, 63
1, 253008, Note_on_c, 0, 67, 60
1, 253021, Control_c, 0, 64, 44
1, 253035, Control_c, 0, 64, 49
1, 253050, Control_c, 0, 64, 55
1, 253065, Control_c, 0, 64, 60
1, 253080, Control_c, 0, 64, 64
1, 253095, Control_c, 0, 64, 67
1, 253110, Control_c, 0, 64, 73
1, 253125, Control_c, 0, 64, 83
1, 253140, Control_c, 0, 64, 101
1, 253154, Control_c, 0, 64, 127
1, 253229, Note_on_c, 0, 58, 76
1, 253244, Note_off_c, 0, 67, 56
1, 253244, Note_off_c, 0, 64, 53
1, 253373, Note_off_c, 0, 49, 55
1, 253414, Note_on_c, 0, 64, 44
1, 253438, Note_on_c, 0, 67, 48
1, 253581, Note_off_c, 0, 70, 54
1, 253636, Note_on_c, 0, 49, 38
1, 253643, Control_c, 0, 64, 112
1, 253647, Note_on_c, 0, 69, 73
1, 253658, Control_c, 0, 64, 105
1, 253680, Control_c, 0, 64, 100
1, 253691, Note_off_c, 0, 67, 55
1, 253695, Control_c, 0, 64, 95
1, 253709, Control_c, 0, 64, 91
1, 253716, Note_off_c, 0, 64, 53
1, 253724, Control_c, 0, 64, 88
1, 253739, Control_c, 0, 64, 85
1, 253754, Control_c, 0, 64, 84
1, 253769, Control_c, 0, 64, 82
1, 253784, Control_c, 0, 64, 80
1, 253798, Control_c, 0, 64, 79
1, 253813, Control_c, 0, 64, 77
1, 253828, Control_c, 0, 64, 77
1, 253843, Control_c, 0, 64, 76
1, 253858, Control_c, 0, 64, 73
1, 253861, Note_on_c, 0, 64, 43
1, 253864, Note_on_c, 0, 67, 46
1, 253873, Control_c, 0, 64, 71
1, 253888, Control_c, 0, 64, 67
1, 253902, Control_c, 0, 64, 63
1, 253917, Control_c, 0, 64, 58
1, 253932, Control_c, 0, 64, 54
1, 253947, Control_c, 0, 64, 54
1, 253948, Note_off_c, 0, 58, 32
1, 253976, Control_c, 0, 64, 54
1, 253991, Control_c, 0, 64, 55
1, 254006, Control_c, 0, 64, 57
1, 254021, Control_c, 0, 64, 59
1, 254035, Control_c, 0, 64, 62
1, 254046, Note_on_c, 0, 57, 66
1, 254049, Control_c, 0, 64, 63
1, 254064, Control_c, 0, 64, 65
1, 254075, Note_off_c, 0, 67, 33
1, 254079, Control_c, 0, 64, 68
1, 254094, Control_c, 0, 64, 75
1, 254108, Control_c, 0, 64, 87
1, 254124, Control_c, 0, 64, 116
1, 254138, Note_off_c, 0, 64, 34
1, 254139, Control_c, 0, 64, 127
1, 254183, Note_off_c, 0, 49, 46
1, 254234, Note_off_c, 0, 57, 63
1, 254252, Note_on_c, 0, 67, 77
1, 254258, Note_on_c, 0, 64, 66
1, 254271, Note_off_c, 0, 69, 34
1, 254457, Note_on_c, 0, 46, 65
1, 254463, Note_on_c, 0, 74, 90
1, 254487, Control_c, 0, 64, 94
1, 254496, Note_off_c, 0, 67, 60
1, 254502, Control_c, 0, 64, 73
1, 254508, Note_off_c, 0, 64, 62
1, 254517, Control_c, 0, 64, 61
1, 254532, Control_c, 0, 64, 48
1, 254547, Control_c, 0, 64, 50
1, 254562, Control_c, 0, 64, 56
1, 254576, Control_c, 0, 64, 60
1, 254591, Control_c, 0, 64, 65
1, 254606, Control_c, 0, 64, 71
1, 254621, Control_c, 0, 64, 83
1, 254636, Control_c, 0, 64, 127
1, 254639, Note_off_c, 0, 46, 62
1, 254690, Note_on_c, 0, 64, 54
1, 254692, Note_on_c, 0, 67, 62
1, 254867, Note_on_c, 0, 62, 90
1, 254910, Note_off_c, 0, 67, 57
1, 254955, Note_off_c, 0, 64, 38
1, 255061, Note_on_c, 0, 64, 72
1, 255065, Note_on_c, 0, 67, 78
1, 255075, Note_off_c, 0, 62, 60
1, 255214, Note_off_c, 0, 74, 57
1, 255304, Note_on_c, 0, 46, 64
1, 255308, Note_on_c, 0, 73, 92
1, 255366, Note_off_c, 0, 64, 54
1, 255368, Note_off_c, 0, 67, 59
1, 255533, Control_c, 0, 64, 104
1, 255547, Control_c, 0, 64, 81
1, 255552, Note_on_c, 0, 67, 73
1, 255562, Control_c, 0, 64, 67
1, 255563, Note_on_c, 0, 64, 61
1, 255577, Control_c, 0, 64, 52
1, 255592, Control_c, 0, 64, 47
1, 255607, Control_c, 0, 64, 51
1, 255621, Control_c, 0, 64, 55
1, 255636, Control_c, 0, 64, 60
1, 255651, Control_c, 0, 64, 65
1, 255666, Control_c, 0, 64, 71
1, 255680, Control_c, 0, 64, 92
1, 255695, Control_c, 0, 64, 127
1, 255750, Note_off_c, 0, 67, 57
1, 255757, Note_off_c, 0, 64, 53
1, 255758, Note_off_c, 0, 46, 55
1, 255782, Note_on_c, 0, 61, 86
1, 255991, Note_off_c, 0, 61, 61
1, 256031, Note_on_c, 0, 67, 79
1, 256036, Note_on_c, 0, 64, 70
1, 256054, Note_off_c, 0, 73, 61
1, 256064, Note_off_c, 0, 64, 66
1, 256086, Note_off_c, 0, 67, 63
1, 256331, Note_on_c, 0, 45, 74
1, 256344, Note_on_c, 0, 77, 94
1, 256356, Control_c, 0, 64, 108
1, 256371, Control_c, 0, 64, 76
1, 256386, Control_c, 0, 64, 59
1, 256401, Control_c, 0, 64, 24
1, 256416, Control_c, 0, 64, 21
1, 256431, Control_c, 0, 64, 36
1, 256445, Control_c, 0, 64, 51
1, 256460, Control_c, 0, 64, 61
1, 256475, Control_c, 0, 64, 66
1, 256490, Control_c, 0, 64, 75
1, 256504, Control_c, 0, 64, 106
1, 256520, Control_c, 0, 64, 127
1, 256520, Note_off_c, 0, 45, 63
1, 256686, Note_on_c, 0, 69, 74
1, 256690, Note_on_c, 0, 67, 65
1, 256893, Note_off_c, 0, 69, 30
1, 256923, Note_off_c, 0, 67, 33
1, 256933, Note_on_c, 0, 65, 91
1, 256947, Note_on_c, 0, 61, 59
1, 257163, Note_on_c, 0, 67, 59
1, 257172, Note_on_c, 0, 69, 59
1, 257349, Note_off_c, 0, 61, 26
1, 257392, Note_on_c, 0, 57, 75
1, 257442, Note_off_c, 0, 69, 32
1, 257469, Control_c, 0, 64, 113
1, 257484, Control_c, 0, 64, 89
1, 257498, Control_c, 0, 64, 76
1, 257513, Control_c, 0, 64, 69
1, 257528, Control_c, 0, 64, 64
1, 257543, Control_c, 0, 64, 62
1, 257547, Note_off_c, 0, 67, 36
1, 257572, Control_c, 0, 64, 63
1, 257587, Control_c, 0, 64, 64
1, 257602, Control_c, 0, 64, 66
1, 257617, Control_c, 0, 64, 70
1, 257632, Control_c, 0, 64, 78
1, 257647, Control_c, 0, 64, 92
1, 257659, Note_on_c, 0, 69, 69
1, 257662, Control_c, 0, 64, 127
1, 257665, Note_on_c, 0, 67, 58
1, 257732, Note_off_c, 0, 77, 48
1, 257825, Note_off_c, 0, 65, 46
1, 257911, Note_off_c, 0, 57, 59
1, 257926, Note_on_c, 0, 76, 91
1, 257927, Note_on_c, 0, 61, 65
1, 257930, Note_on_c, 0, 64, 69
1, 257972, Note_off_c, 0, 69, 59
1, 257979, Note_off_c, 0, 67, 50
1, 258053, Note_off_c, 0, 64, 61
1, 258090, Note_off_c, 0, 61, 58
1, 258223, Note_on_c, 0, 67, 55
1, 258233, Note_on_c, 0, 69, 69
1, 258294, Note_off_c, 0, 76, 56
1, 258393, Note_off_c, 0, 67, 38
1, 258528, Control_c, 0, 64, 81
1, 258543, Control_c, 0, 64, 61
1, 258546, Note_on_c, 0, 74, 84
1, 258547, Note_on_c, 0, 50, 75
1, 258558, Control_c, 0, 64, 0
1, 258587, Control_c, 0, 64, 20
1, 258592, Note_off_c, 0, 69, 62
1, 258602, Control_c, 0, 64, 43
1, 258617, Control_c, 0, 64, 58
1, 258632, Control_c, 0, 64, 66
1, 258638, Note_off_c, 0, 74, 65
1, 258646, Control_c, 0, 64, 78
1, 258661, Control_c, 0, 64, 127
1, 258764, Note_off_c, 0, 50, 64
1, 258883, Note_on_c, 0, 69, 73
1, 258884, Note_on_c, 0, 65, 61
1, 258958, Note_off_c, 0, 65, 63
1, 258975, Note_off_c, 0, 69, 63
1, 259238, Note_on_c, 0, 65, 83
1, 259245, Note_on_c, 0, 62, 75
1, 259325, Note_off_c, 0, 62, 60
1, 259355, Note_off_c, 0, 65, 61
1, 259661, Note_on_c, 0, 62, 82
1, 259662, Note_on_c, 0, 57, 76
1, 259746, Note_off_c, 0, 57, 59
1, 259785, Note_off_c, 0, 62, 62
1, 259981, Control_c, 0, 64, 107
1, 259996, Control_c, 0, 64, 82
1, 260011, Control_c, 0, 64, 63
1, 260026, Control_c, 0, 64, 21
1, 260041, Control_c, 0, 64, 0
1, 260071, Control_c, 0, 64, 44
1, 260086, Control_c, 0, 64, 62
1, 260087, Note_on_c, 0, 50, 86
1, 260091, Note_on_c, 0, 38, 76
1, 260100, Control_c, 0, 64, 73
1, 260112, Note_off_c, 0, 50, 68
1, 260115, Control_c, 0, 64, 104
1, 260116, Note_off_c, 0, 38, 65
1, 260130, Control_c, 0, 64, 127
1, 260170, Note_on_c, 0, 38, 72
1, 260173, Note_on_c, 0, 50, 82
1, 260195, Note_off_c, 0, 50, 70
1, 260200, Note_off_c, 0, 38, 62
1, 260249, Control_c, 0, 64, 103
1, 260252, Note_on_c, 0, 57, 84
1, 260255, Note_on_c, 0, 53, 74
1, 260264, Control_c, 0, 64, 88
1, 260276, Note_off_c, 0, 57, 71
1, 260279, Control_c, 0, 64, 79
1, 260288, Note_off_c, 0, 53, 60
1, 260293, Control_c, 0, 64, 72
1, 260308, Control_c, 0, 64, 67
1, 260323, Control_c, 0, 64, 64
1, 260332, Note_on_c, 0, 57, 77
1, 260337, Control_c, 0, 64, 62
1, 260352, Control_c, 0, 64, 60
1, 260353, Note_off_c, 0, 57, 70
1, 260367, Control_c, 0, 64, 58
1, 260382, Control_c, 0, 64, 55
1, 260397, Control_c, 0, 64, 51
1, 260400, Note_on_c, 0, 57, 86
1, 260405, Note_on_c, 0, 53, 79
1, 260419, Control_c, 0, 64, 46
1, 260428, Note_off_c, 0, 57, 69
1, 260434, Control_c, 0, 64, 37
1, 260439, Note_off_c, 0, 53, 68
1, 260449, Control_c, 0, 64, 22
1, 260464, Control_c, 0, 64, 0
1, 260497, Note_on_c, 0, 53, 79
1, 260497, Note_on_c, 0, 57, 84
1, 260521, Note_off_c, 0, 57, 67
1, 260526, Note_off_c, 0, 53, 67
1, 260571, Note_on_c, 0, 65, 75
1, 260582, Note_on_c, 0, 62, 57
1, 260622, Note_off_c, 0, 62, 60
1, 260635, Note_on_c, 0, 57, 53
1, 260646, Note_on_c, 0, 53, 64
1, 260649, Note_off_c, 0, 65, 62
1, 260678, Note_off_c, 0, 57, 66
1, 260687, Note_off_c, 0, 53, 64
1, 260731, Note_on_c, 0, 50, 64
1, 260731, Control_c, 0, 64, 50
1, 260732, Note_on_c, 0, 38, 62
1, 260746, Control_c, 0, 64, 63
1, 260761, Note_off_c, 0, 50, 66
1, 260761, Control_c, 0, 64, 70
1, 260775, Control_c, 0, 64, 86
1, 260788, Note_off_c, 0, 38, 0
1, 260790, Control_c, 0, 64, 127
1, 260798, Note_on_c, 0, 50, 69
1, 260801, Note_on_c, 0, 38, 53
1, 260825, Note_off_c, 0, 38, 58
1, 260827, Note_off_c, 0, 50, 66
1, 260891, Note_on_c, 0, 57, 71
1, 260892, Note_on_c, 0, 52, 63
1, 260894, Control_c, 0, 64, 106
1, 260909, Control_c, 0, 64, 91
1, 260917, Note_off_c, 0, 57, 64
1, 260923, Control_c, 0, 64, 80
1, 260930, Note_off_c, 0, 52, 66
1, 260938, Control_c, 0, 64, 72
1, 260953, Control_c, 0, 64, 65
1, 260968, Control_c, 0, 64, 60
1, 260982, Control_c, 0, 64, 50
1, 260997, Control_c, 0, 64, 37
1, 261012, Control_c, 0, 64, 0
1, 261028, Note_on_c, 0, 52, 68
1, 261035, Note_on_c, 0, 56, 60
1, 261054, Note_off_c, 0, 52, 67
1, 261057, Note_off_c, 0, 56, 61
1, 261108, Note_on_c, 0, 56, 68
1, 261109, Note_on_c, 0, 52, 70
1, 261134, Note_off_c, 0, 52, 68
1, 261135, Note_off_c, 0, 56, 64
1, 261191, Note_on_c, 0, 64, 70
1, 261225, Note_on_c, 0, 62, 36
1, 261251, Note_on_c, 0, 56, 67
1, 261257, Note_off_c, 0, 62, 57
1, 261263, Note_off_c, 0, 64, 62
1, 261268, Note_on_c, 0, 52, 36
1, 261287, Note_off_c, 0, 56, 67
1, 261295, Note_off_c, 0, 52, 54
1, 261342, Note_on_c, 0, 50, 80
1, 261346, Control_c, 0, 64, 43
1, 261348, Note_on_c, 0, 38, 70
1, 261361, Control_c, 0, 64, 64
1, 261367, Note_off_c, 0, 50, 67
1, 261376, Control_c, 0, 64, 74
1, 261382, Note_off_c, 0, 38, 63
1, 261391, Control_c, 0, 64, 107
1, 261406, Control_c, 0, 64, 127
1, 261410, Note_on_c, 0, 50, 85
1, 261440, Poly_aftertouch_c, 0, 38, 0
1, 261450, Note_off_c, 0, 50, 63
1, 261509, Note_on_c, 0, 58, 76
1, 261513, Note_on_c, 0, 62, 81
1, 261534, Note_off_c, 0, 58, 67
1, 261534, Note_off_c, 0, 62, 70
1, 261554, Control_c, 0, 64, 110
1, 261569, Control_c, 0, 64, 100
1, 261579, Note_on_c, 0, 62, 78
1, 261584, Control_c, 0, 64, 95
1, 261598, Control_c, 0, 64, 90
1, 261607, Note_off_c, 0, 62, 60
1, 261613, Control_c, 0, 64, 86
1, 261628, Control_c, 0, 64, 82
1, 261643, Control_c, 0, 64, 78
1, 261658, Control_c, 0, 64, 72
1, 261659, Note_on_c, 0, 58, 79
1, 261662, Note_on_c, 0, 62, 87
1, 261672, Control_c, 0, 64, 65
1, 261687, Control_c, 0, 64, 58
1, 261697, Note_off_c, 0, 62, 64
1, 261702, Control_c, 0, 64, 46
1, 261706, Note_off_c, 0, 58, 63
1, 261716, Control_c, 0, 64, 24
1, 261731, Control_c, 0, 64, 0
1, 261753, Note_on_c, 0, 62, 83
1, 261757, Note_on_c, 0, 58, 74
1, 261784, Note_off_c, 0, 62, 68
1, 261786, Note_off_c, 0, 58, 66
1, 261809, Note_on_c, 0, 70, 89
1, 261820, Note_on_c, 0, 67, 71
1, 261883, Note_on_c, 0, 62, 74
1, 261886, Note_off_c, 0, 67, 55
1, 261889, Note_on_c, 0, 58, 73
1, 261898, Note_off_c, 0, 70, 64
1, 261927, Note_off_c, 0, 62, 64
1, 261931, Note_off_c, 0, 58, 64
1, 261961, Control_c, 0, 64, 27
1, 261976, Control_c, 0, 64, 60
1, 261982, Note_on_c, 0, 50, 74
1, 261990, Note_on_c, 0, 38, 62
1, 261991, Control_c, 0, 64, 68
1, 262005, Note_off_c, 0, 50, 67
1, 262005, Control_c, 0, 64, 84
1, 262017, Note_off_c, 0, 38, 60
1, 262020, Control_c, 0, 64, 127
1, 262065, Note_on_c, 0, 50, 78
1, 262079, Control_c, 0, 64, 119
1, 262087, Note_off_c, 0, 50, 67
1, 262094, Control_c, 0, 64, 98
1, 262109, Control_c, 0, 64, 92
1, 262125, Control_c, 0, 64, 89
1, 262140, Control_c, 0, 64, 83
1, 262147, Note_on_c, 0, 57, 61
1, 262155, Control_c, 0, 64, 75
1, 262157, Note_on_c, 0, 62, 56
1, 262169, Control_c, 0, 64, 67
1, 262172, Poly_aftertouch_c, 0, 38, 0
1, 262184, Control_c, 0, 64, 60
1, 262196, Note_off_c, 0, 57, 63
1, 262199, Note_off_c, 0, 62, 0
1, 262199, Control_c, 0, 64, 53
1, 262211, Note_on_c, 0, 62, 51
1, 262214, Control_c, 0, 64, 51
1, 262228, Control_c, 0, 64, 48
1, 262243, Note_off_c, 0, 62, 64
1, 262243, Control_c, 0, 64, 41
1, 262258, Control_c, 0, 64, 20
1, 262273, Control_c, 0, 64, 0
1, 262299, Note_on_c, 0, 57, 61
1, 262328, Note_off_c, 0, 57, 66
1, 262379, Note_on_c, 0, 57, 74
1, 262410, Note_off_c, 0, 57, 68
1, 262413, Poly_aftertouch_c, 0, 60, 0
1, 262436, Note_on_c, 0, 69, 65
1, 262462, Note_on_c, 0, 67, 44
1, 262500, Note_off_c, 0, 67, 57
1, 262503, Note_on_c, 0, 61, 67
1, 262511, Note_off_c, 0, 69, 63
1, 262523, Note_on_c, 0, 57, 47
1, 262535, Note_off_c, 0, 61, 66
1, 262548, Note_off_c, 0, 57, 57
1, 262595, Note_on_c, 0, 50, 59
1, 262596, Note_on_c, 0, 38, 58
1, 262598, Control_c, 0, 64, 43
1, 262613, Control_c, 0, 64, 62
1, 262619, Note_off_c, 0, 50, 62
1, 262623, Note_off_c, 0, 38, 59
1, 262628, Control_c, 0, 64, 69
1, 262643, Control_c, 0, 64, 81
1, 262665, Control_c, 0, 64, 127
1, 262693, Note_on_c, 0, 50, 46
1, 262724, Note_off_c, 0, 50, 55
1, 262740, Poly_aftertouch_c, 0, 38, 127
1, 262773, Poly_aftertouch_c, 0, 38, 0
1, 262774, Note_on_c, 0, 65, 70
1, 262777, Note_on_c, 0, 62, 54
1, 262783, Control_c, 0, 64, 107
1, 262798, Control_c, 0, 64, 94
1, 262800, Note_off_c, 0, 65, 64
1, 262813, Control_c, 0, 64, 86
1, 262826, Note_off_c, 0, 62, 61
1, 262828, Control_c, 0, 64, 81
1, 262843, Control_c, 0, 64, 76
1, 262848, Poly_aftertouch_c, 0, 65, 0
1, 262857, Control_c, 0, 64, 72
1, 262872, Control_c, 0, 64, 69
1, 262887, Control_c, 0, 64, 66
1, 262902, Control_c, 0, 64, 64
1, 262917, Control_c, 0, 64, 63
1, 262923, Note_on_c, 0, 64, 76
1, 262926, Note_on_c, 0, 60, 73
1, 262932, Control_c, 0, 64, 61
1, 262946, Note_off_c, 0, 64, 70
1, 262947, Control_c, 0, 64, 58
1, 262952, Note_off_c, 0, 60, 67
1, 262962, Control_c, 0, 64, 55
1, 262977, Control_c, 0, 64, 52
1, 262992, Control_c, 0, 64, 48
1, 263000, Note_on_c, 0, 64, 82
1, 263006, Note_on_c, 0, 60, 77
1, 263006, Control_c, 0, 64, 41
1, 263021, Control_c, 0, 64, 22
1, 263023, Note_off_c, 0, 64, 70
1, 263029, Note_off_c, 0, 60, 71
1, 263036, Control_c, 0, 64, 0
1, 263062, Note_on_c, 0, 69, 90
1, 263135, Note_on_c, 0, 64, 74
1, 263148, Note_on_c, 0, 60, 69
1, 263149, Note_off_c, 0, 69, 64
1, 263178, Note_off_c, 0, 60, 67
1, 263178, Note_off_c, 0, 64, 63
1, 263222, Note_on_c, 0, 50, 85
1, 263228, Note_on_c, 0, 38, 74
1, 263243, Control_c, 0, 64, 53
1, 263248, Note_off_c, 0, 50, 68
1, 263254, Note_off_c, 0, 38, 64
1, 263258, Control_c, 0, 64, 67
1, 263273, Control_c, 0, 64, 82
1, 263288, Control_c, 0, 64, 127
1, 263298, Note_on_c, 0, 50, 80
1, 263304, Note_on_c, 0, 38, 64
1, 263327, Note_off_c, 0, 50, 66
1, 263331, Note_off_c, 0, 38, 61
1, 263373, Note_on_c, 0, 58, 80
1, 263379, Note_on_c, 0, 62, 83
1, 263397, Note_off_c, 0, 58, 68
1, 263403, Note_off_c, 0, 62, 66
1, 263429, Control_c, 0, 64, 106
1, 263443, Control_c, 0, 64, 93
1, 263446, Note_on_c, 0, 62, 81
1, 263458, Control_c, 0, 64, 86
1, 263473, Control_c, 0, 64, 81
1, 263487, Note_off_c, 0, 62, 65
1, 263488, Control_c, 0, 64, 76
1, 263503, Control_c, 0, 64, 70
1, 263517, Control_c, 0, 64, 64
1, 263523, Note_on_c, 0, 60, 94
1, 263528, Note_on_c, 0, 57, 81
1, 263532, Control_c, 0, 64, 56
1, 263546, Note_off_c, 0, 60, 69
1, 263547, Control_c, 0, 64, 41
1, 263552, Note_off_c, 0, 57, 70
1, 263562, Control_c, 0, 64, 15
1, 263576, Control_c, 0, 64, 0
1, 263609, Note_on_c, 0, 57, 82
1, 263609, Note_on_c, 0, 60, 92
1, 263635, Note_off_c, 0, 60, 66
1, 263647, Note_off_c, 0, 57, 65
1, 263686, Note_on_c, 0, 65, 88
1, 263753, Note_on_c, 0, 60, 77
1, 263760, Note_on_c, 0, 57, 73
1, 263765, Note_off_c, 0, 65, 63
1, 263794, Note_off_c, 0, 57, 66
1, 263800, Note_off_c, 0, 60, 66
1, 263840, Note_on_c, 0, 43, 88
1, 263845, Note_on_c, 0, 31, 77
1, 263858, Control_c, 0, 64, 59
1, 263868, Note_off_c, 0, 43, 69
1, 263872, Note_off_c, 0, 31, 65
1, 263873, Control_c, 0, 64, 71
1, 263888, Control_c, 0, 64, 89
1, 263903, Control_c, 0, 64, 127
1, 263928, Note_on_c, 0, 43, 80
1, 263931, Note_on_c, 0, 31, 69
1, 263951, Note_off_c, 0, 43, 70
1, 263958, Note_off_c, 0, 31, 60
1, 263977, Control_c, 0, 64, 106
1, 263991, Control_c, 0, 64, 98
1, 264002, Note_on_c, 0, 57, 77
1, 264002, Note_on_c, 0, 60, 88
1, 264006, Control_c, 0, 64, 93
1, 264021, Control_c, 0, 64, 87
1, 264023, Note_off_c, 0, 60, 70
1, 264033, Note_off_c, 0, 57, 60
1, 264036, Control_c, 0, 64, 82
1, 264051, Control_c, 0, 64, 80
1, 264065, Control_c, 0, 64, 79
1, 264066, Note_on_c, 0, 60, 86
1, 264080, Control_c, 0, 64, 79
1, 264092, Note_off_c, 0, 60, 66
1, 264095, Control_c, 0, 64, 78
1, 264110, Control_c, 0, 64, 76
1, 264125, Control_c, 0, 64, 75
1, 264139, Control_c, 0, 64, 73
1, 264161, Note_on_c, 0, 55, 84
1, 264162, Control_c, 0, 64, 71
1, 264163, Note_on_c, 0, 58, 88
1, 264177, Control_c, 0, 64, 68
1, 264185, Note_off_c, 0, 58, 68
1, 264186, Note_off_c, 0, 55, 68
1, 264191, Control_c, 0, 64, 65
1, 264206, Control_c, 0, 64, 61
1, 264221, Control_c, 0, 64, 57
1, 264232, Note_on_c, 0, 58, 83
1, 264236, Control_c, 0, 64, 48
1, 264237, Note_on_c, 0, 55, 72
1, 264251, Control_c, 0, 64, 36
1, 264265, Control_c, 0, 64, 0
1, 264266, Note_off_c, 0, 58, 66
1, 264269, Note_off_c, 0, 55, 66
1, 264307, Note_on_c, 0, 64, 87
1, 264371, Note_on_c, 0, 58, 81
1, 264377, Note_off_c, 0, 64, 67
1, 264383, Note_on_c, 0, 55, 57
1, 264416, Note_off_c, 0, 55, 64
1, 264419, Note_off_c, 0, 58, 63
1, 264468, Note_on_c, 0, 45, 85
1, 264474, Note_on_c, 0, 33, 79
1, 264488, Control_c, 0, 64, 28
1, 264494, Note_off_c, 0, 45, 69
1, 264499, Note_off_c, 0, 33, 65
1, 264503, Control_c, 0, 64, 59
1, 264518, Control_c, 0, 64, 69
1, 264533, Control_c, 0, 64, 84
1, 264548, Control_c, 0, 64, 127
1, 264554, Note_on_c, 0, 33, 78
1, 264555, Note_on_c, 0, 45, 88
1, 264577, Note_off_c, 0, 33, 68
1, 264581, Note_off_c, 0, 45, 65
1, 264629, Note_on_c, 0, 57, 85
1, 264634, Note_on_c, 0, 55, 75
1, 264652, Note_off_c, 0, 57, 70
1, 264659, Note_off_c, 0, 55, 66
1, 264682, Control_c, 0, 64, 111
1, 264696, Control_c, 0, 64, 101
1, 264711, Control_c, 0, 64, 95
1, 264726, Control_c, 0, 64, 89
1, 264726, Note_on_c, 0, 57, 44
1, 264741, Control_c, 0, 64, 83
1, 264749, Note_off_c, 0, 57, 62
1, 264755, Control_c, 0, 64, 77
1, 264770, Control_c, 0, 64, 71
1, 264776, Note_on_c, 0, 55, 69
1, 264785, Control_c, 0, 64, 68
1, 264786, Note_on_c, 0, 57, 74
1, 264800, Control_c, 0, 64, 66
1, 264802, Note_off_c, 0, 55, 69
1, 264810, Note_off_c, 0, 57, 68
1, 264814, Control_c, 0, 64, 66
1, 264829, Control_c, 0, 64, 65
1, 264844, Control_c, 0, 64, 65
1, 264854, Note_on_c, 0, 57, 83
1, 264859, Note_on_c, 0, 55, 80
1, 264859, Control_c, 0, 64, 64
1, 264880, Note_off_c, 0, 57, 68
1, 264885, Note_off_c, 0, 55, 67
1, 264888, Control_c, 0, 64, 64
1, 264926, Control_c, 0, 64, 63
1, 264940, Control_c, 0, 64, 63
1, 264943, Note_on_c, 0, 61, 93
1, 264955, Control_c, 0, 64, 61
1, 264970, Control_c, 0, 64, 59
1, 264985, Control_c, 0, 64, 49
1, 265000, Control_c, 0, 64, 0
1, 265023, Note_on_c, 0, 58, 55
1, 265024, Note_off_c, 0, 58, 127
1, 265027, Note_on_c, 0, 57, 89
1, 265033, Note_on_c, 0, 55, 77
1, 265034, Note_off_c, 0, 61, 63
1, 265069, Note_off_c, 0, 55, 64
1, 265073, Note_off_c, 0, 57, 65
1, 265131, Note_on_c, 0, 50, 94
1, 265139, Note_on_c, 0, 38, 77
1, 265147, Control_c, 0, 64, 11
1, 265162, Control_c, 0, 64, 63
1, 265163, Note_off_c, 0, 38, 66
1, 265168, Note_off_c, 0, 50, 62
1, 265177, Control_c, 0, 64, 76
1, 265192, Control_c, 0, 64, 127
1, 265218, Note_on_c, 0, 38, 80
1, 265218, Note_on_c, 0, 50, 88
1, 265248, Note_off_c, 0, 38, 65
1, 265265, Note_off_c, 0, 50, 66
1, 265308, Note_on_c, 0, 69, 95
1, 265309, Note_on_c, 0, 65, 80
1, 265329, Note_off_c, 0, 69, 66
1, 265338, Note_off_c, 0, 65, 61
1, 265341, Control_c, 0, 64, 101
1, 265356, Control_c, 0, 64, 91
1, 265370, Control_c, 0, 64, 87
1, 265372, Note_on_c, 0, 69, 85
1, 265385, Control_c, 0, 64, 86
1, 265392, Note_off_c, 0, 69, 68
1, 265400, Control_c, 0, 64, 84
1, 265415, Control_c, 0, 64, 82
1, 265430, Control_c, 0, 64, 80
1, 265445, Control_c, 0, 64, 78
1, 265460, Control_c, 0, 64, 76
1, 265461, Note_on_c, 0, 69, 94
1, 265467, Note_on_c, 0, 65, 80
1, 265475, Control_c, 0, 64, 74
1, 265476, Note_off_c, 0, 69, 73
1, 265488, Note_off_c, 0, 65, 70
1, 265490, Control_c, 0, 64, 71
1, 265504, Control_c, 0, 64, 68
1, 265519, Control_c, 0, 64, 65
1, 265534, Control_c, 0, 64, 62
1, 265540, Note_on_c, 0, 69, 90
1, 265549, Control_c, 0, 64, 60
1, 265549, Note_on_c, 0, 65, 80
1, 265563, Control_c, 0, 64, 58
1, 265573, Note_off_c, 0, 69, 65
1, 265578, Note_off_c, 0, 65, 67
1, 265578, Control_c, 0, 64, 55
1, 265593, Control_c, 0, 64, 49
1, 265606, Note_on_c, 0, 77, 92
1, 265608, Control_c, 0, 64, 29
1, 265616, Note_on_c, 0, 74, 76
1, 265623, Control_c, 0, 64, 0
1, 265690, Note_on_c, 0, 69, 81
1, 265695, Note_off_c, 0, 74, 60
1, 265709, Note_on_c, 0, 65, 60
1, 265714, Note_off_c, 0, 77, 61
1, 265737, Note_off_c, 0, 69, 62
1, 265742, Note_off_c, 0, 65, 65
1, 265784, Note_on_c, 0, 64, 74
1, 265785, Note_on_c, 0, 52, 73
1, 265793, Control_c, 0, 64, 47
1, 265807, Note_off_c, 0, 64, 70
1, 265808, Control_c, 0, 64, 62
1, 265809, Note_off_c, 0, 52, 67
1, 265823, Control_c, 0, 64, 69
1, 265837, Control_c, 0, 64, 78
1, 265852, Control_c, 0, 64, 91
1, 265861, Note_on_c, 0, 64, 78
1, 265863, Note_on_c, 0, 52, 72
1, 265867, Control_c, 0, 64, 99
1, 265882, Control_c, 0, 64, 97
1, 265883, Note_off_c, 0, 64, 69
1, 265888, Note_off_c, 0, 52, 66
1, 265897, Control_c, 0, 64, 91
1, 265911, Control_c, 0, 64, 84
1, 265926, Control_c, 0, 64, 81
1, 265941, Control_c, 0, 64, 78
1, 265947, Note_on_c, 0, 69, 78
1, 265951, Note_on_c, 0, 64, 59
1, 265955, Control_c, 0, 64, 75
1, 265969, Note_off_c, 0, 69, 68
1, 265970, Control_c, 0, 64, 72
1, 265985, Control_c, 0, 64, 68
1, 265990, Note_off_c, 0, 64, 55
1, 266000, Control_c, 0, 64, 66
1, 266015, Control_c, 0, 64, 63
1, 266029, Note_on_c, 0, 69, 63
1, 266029, Control_c, 0, 64, 61
1, 266044, Note_off_c, 0, 69, 42
1, 266044, Control_c, 0, 64, 59
1, 266059, Control_c, 0, 64, 55
1, 266074, Control_c, 0, 64, 50
1, 266089, Control_c, 0, 64, 43
1, 266094, Note_on_c, 0, 64, 57
1, 266105, Control_c, 0, 64, 30
1, 266120, Control_c, 0, 64, 0
1, 266147, Note_off_c, 0, 64, 0
1, 266193, Poly_aftertouch_c, 0, 64, 0
1, 266235, Note_on_c, 0, 76, 74
1, 266266, Note_on_c, 0, 74, 42
1, 266295, Note_off_c, 0, 74, 53
1, 266307, Note_on_c, 0, 68, 69
1, 266315, Note_off_c, 0, 76, 63
1, 266333, Note_on_c, 0, 64, 42
1, 266336, Note_off_c, 0, 68, 66
1, 266359, Note_off_c, 0, 64, 57
1, 266417, Note_on_c, 0, 48, 63
1, 266418, Note_on_c, 0, 60, 60
1, 266423, Control_c, 0, 64, 46
1, 266438, Control_c, 0, 64, 61
1, 266444, Note_off_c, 0, 60, 63
1, 266449, Note_off_c, 0, 48, 65
1, 266453, Control_c, 0, 64, 68
1, 266467, Control_c, 0, 64, 78
1, 266482, Control_c, 0, 64, 109
1, 266489, Note_on_c, 0, 60, 68
1, 266497, Control_c, 0, 64, 127
1, 266505, Note_on_c, 0, 48, 39
1, 266521, Note_off_c, 0, 60, 67
1, 266529, Note_off_c, 0, 48, 58
1, 266572, Note_on_c, 0, 63, 72
1, 266578, Note_on_c, 0, 67, 73
1, 266598, Note_off_c, 0, 63, 67
1, 266598, Note_off_c, 0, 67, 64
1, 266601, Control_c, 0, 64, 125
1, 266616, Control_c, 0, 64, 105
1, 266631, Control_c, 0, 64, 97
1, 266645, Note_on_c, 0, 67, 81
1, 266646, Control_c, 0, 64, 90
1, 266660, Control_c, 0, 64, 85
1, 266665, Note_off_c, 0, 67, 67
1, 266675, Control_c, 0, 64, 81
1, 266690, Control_c, 0, 64, 79
1, 266705, Control_c, 0, 64, 76
1, 266720, Control_c, 0, 64, 73
1, 266725, Note_on_c, 0, 63, 73
1, 266730, Note_on_c, 0, 67, 80
1, 266734, Control_c, 0, 64, 69
1, 266748, Note_off_c, 0, 63, 69
1, 266749, Control_c, 0, 64, 65
1, 266752, Note_off_c, 0, 67, 70
1, 266764, Control_c, 0, 64, 61
1, 266778, Control_c, 0, 64, 58
1, 266793, Control_c, 0, 64, 54
1, 266808, Control_c, 0, 64, 47
1, 266810, Note_on_c, 0, 67, 87
1, 266811, Note_on_c, 0, 63, 75
1, 266823, Control_c, 0, 64, 31
1, 266834, Note_off_c, 0, 63, 69
1, 266835, Note_off_c, 0, 67, 64
1, 266838, Control_c, 0, 64, 0
1, 266880, Note_on_c, 0, 75, 88
1, 266895, Note_on_c, 0, 72, 58
1, 266946, Note_on_c, 0, 67, 76
1, 266952, Note_on_c, 0, 63, 62
1, 266957, Note_off_c, 0, 72, 63
1, 266967, Note_off_c, 0, 75, 63
1, 266990, Note_off_c, 0, 67, 62
1, 266996, Note_off_c, 0, 63, 60
1, 267044, Note_on_c, 0, 62, 79
1, 267049, Note_on_c, 0, 50, 74
1, 267061, Control_c, 0, 64, 23
1, 267066, Note_off_c, 0, 62, 70
1, 267075, Control_c, 0, 64, 57
1, 267078, Note_off_c, 0, 50, 66
1, 267090, Control_c, 0, 64, 66
1, 267105, Control_c, 0, 64, 74
1, 267120, Control_c, 0, 64, 87
1, 267125, Note_on_c, 0, 62, 79
1, 267133, Note_on_c, 0, 50, 69
1, 267135, Control_c, 0, 64, 91
1, 267150, Note_off_c, 0, 50, 69
1, 267150, Control_c, 0, 64, 90
1, 267162, Note_off_c, 0, 62, 66
1, 267172, Control_c, 0, 64, 85
1, 267187, Control_c, 0, 64, 80
1, 267202, Control_c, 0, 64, 75
1, 267216, Note_on_c, 0, 67, 74
1, 267216, Control_c, 0, 64, 72
1, 267223, Note_on_c, 0, 62, 59
1, 267231, Control_c, 0, 64, 70
1, 267233, Note_off_c, 0, 67, 67
1, 267246, Control_c, 0, 64, 68
1, 267259, Note_off_c, 0, 62, 59
1, 267261, Control_c, 0, 64, 67
1, 267276, Control_c, 0, 64, 65
1, 267287, Note_on_c, 0, 67, 71
1, 267290, Control_c, 0, 64, 63
1, 267302, Note_off_c, 0, 67, 66
1, 267305, Control_c, 0, 64, 62
1, 267320, Control_c, 0, 64, 59
1, 267335, Control_c, 0, 64, 56
1, 267350, Control_c, 0, 64, 53
1, 267365, Control_c, 0, 64, 49
1, 267376, Note_on_c, 0, 62, 63
1, 267379, Control_c, 0, 64, 42
1, 267385, Note_on_c, 0, 66, 49
1, 267394, Control_c, 0, 64, 30
1, 267395, Note_off_c, 0, 62, 65
1, 267408, Note_off_c, 0, 66, 38
1, 267409, Control_c, 0, 64, 0
1, 267448, Note_on_c, 0, 66, 57
1, 267466, Note_on_c, 0, 62, 56
1, 267469, Note_off_c, 0, 66, 61
1, 267490, Note_off_c, 0, 62, 57
1, 267514, Note_on_c, 0, 74, 68
1, 267552, Note_on_c, 0, 72, 31
1, 267580, Note_on_c, 0, 66, 57
1, 267589, Note_off_c, 0, 72, 51
1, 267592, Note_off_c, 0, 74, 60
1, 267595, Note_on_c, 0, 62, 44
1, 267624, Note_off_c, 0, 62, 62
1, 267624, Note_off_c, 0, 66, 62
1, 267677, Note_on_c, 0, 43, 61
1, 267679, Note_on_c, 0, 55, 58
1, 267690, Control_c, 0, 64, 36
1, 267706, Control_c, 0, 64, 58
1, 267707, Note_off_c, 0, 55, 62
1, 267708, Note_off_c, 0, 43, 63
1, 267721, Control_c, 0, 64, 66
1, 267736, Control_c, 0, 64, 73
1, 267751, Control_c, 0, 64, 85
1, 267755, Note_on_c, 0, 43, 48
1, 267766, Control_c, 0, 64, 98
1, 267769, Note_on_c, 0, 55, 42
1, 267780, Control_c, 0, 64, 106
1, 267784, Note_off_c, 0, 43, 56
1, 267794, Note_off_c, 0, 55, 56
1, 267795, Control_c, 0, 64, 102
1, 267810, Control_c, 0, 64, 96
1, 267824, Control_c, 0, 64, 92
1, 267839, Control_c, 0, 64, 88
1, 267842, Note_on_c, 0, 67, 57
1, 267843, Note_on_c, 0, 70, 70
1, 267854, Control_c, 0, 64, 84
1, 267869, Note_off_c, 0, 70, 70
1, 267869, Control_c, 0, 64, 79
1, 267884, Control_c, 0, 64, 75
1, 267885, Note_off_c, 0, 67, 56
1, 267906, Control_c, 0, 64, 73
1, 267918, Note_on_c, 0, 70, 66
1, 267921, Control_c, 0, 64, 72
1, 267936, Control_c, 0, 64, 70
1, 267946, Note_off_c, 0, 70, 69
1, 267951, Control_c, 0, 64, 69
1, 267966, Control_c, 0, 64, 66
1, 267980, Control_c, 0, 64, 64
1, 267995, Control_c, 0, 64, 62
1, 267999, Note_on_c, 0, 57, 62
1, 268002, Note_on_c, 0, 69, 72
1, 268010, Control_c, 0, 64, 61
1, 268014, Note_on_c, 0, 66, 50
1, 268016, Note_on_c, 0, 63, 49
1, 268025, Control_c, 0, 64, 59
1, 268029, Note_off_c, 0, 69, 68
1, 268039, Control_c, 0, 64, 56
1, 268041, Note_off_c, 0, 63, 57
1, 268041, Note_off_c, 0, 66, 61
1, 268054, Control_c, 0, 64, 51
1, 268055, Note_off_c, 0, 57, 0
1, 268069, Control_c, 0, 64, 47
1, 268080, Note_on_c, 0, 69, 80
1, 268084, Control_c, 0, 64, 42
1, 268089, Poly_aftertouch_c, 0, 60, 127
1, 268099, Control_c, 0, 64, 36
1, 268104, Note_on_c, 0, 66, 28
1, 268110, Note_off_c, 0, 69, 63
1, 268113, Control_c, 0, 64, 28
1, 268116, Poly_aftertouch_c, 0, 57, 0
1, 268120, Poly_aftertouch_c, 0, 60, 0
1, 268128, Control_c, 0, 64, 0
1, 268137, Note_off_c, 0, 66, 44
1, 268149, Note_on_c, 0, 81, 86
1, 268221, Note_on_c, 0, 72, 79
1, 268229, Note_on_c, 0, 69, 71
1, 268230, Note_off_c, 0, 81, 64
1, 268264, Note_off_c, 0, 72, 64
1, 268273, Note_off_c, 0, 69, 60
1, 268315, Note_on_c, 0, 46, 76
1, 268319, Note_on_c, 0, 58, 66
1, 268346, Note_off_c, 0, 46, 67
1, 268349, Note_off_c, 0, 58, 66
1, 268351, Control_c, 0, 64, 54
1, 268366, Control_c, 0, 64, 67
1, 268381, Control_c, 0, 64, 84
1, 268396, Control_c, 0, 64, 127
1, 268396, Note_on_c, 0, 46, 72
1, 268397, Note_on_c, 0, 58, 86
1, 268422, Note_off_c, 0, 46, 69
1, 268423, Note_off_c, 0, 58, 66
1, 268470, Control_c, 0, 64, 109
1, 268477, Note_on_c, 0, 62, 75
1, 268485, Note_on_c, 0, 67, 88
1, 268485, Control_c, 0, 64, 98
1, 268500, Control_c, 0, 64, 93
1, 268506, Note_off_c, 0, 62, 67
1, 268512, Note_off_c, 0, 67, 63
1, 268515, Control_c, 0, 64, 86
1, 268530, Control_c, 0, 64, 80
1, 268545, Control_c, 0, 64, 75
1, 268551, Note_on_c, 0, 67, 74
1, 268560, Control_c, 0, 64, 71
1, 268574, Control_c, 0, 64, 69
1, 268583, Note_off_c, 0, 67, 66
1, 268589, Control_c, 0, 64, 66
1, 268604, Control_c, 0, 64, 65
1, 268619, Control_c, 0, 64, 63
1, 268628, Note_on_c, 0, 65, 83
1, 268634, Control_c, 0, 64, 60
1, 268636, Note_on_c, 0, 59, 72
1, 268637, Note_on_c, 0, 62, 68
1, 268655, Control_c, 0, 64, 57
1, 268658, Note_off_c, 0, 65, 69
1, 268670, Control_c, 0, 64, 53
1, 268672, Note_off_c, 0, 59, 67
1, 268672, Note_off_c, 0, 62, 66
1, 268685, Control_c, 0, 64, 46
1, 268700, Control_c, 0, 64, 35
1, 268715, Control_c, 0, 64, 0
1, 268724, Note_on_c, 0, 62, 79
1, 268724, Note_on_c, 0, 65, 91
1, 268730, Note_on_c, 0, 59, 78
1, 268757, Note_off_c, 0, 62, 66
1, 268761, Note_off_c, 0, 59, 67
1, 268763, Note_off_c, 0, 65, 59
1, 268785, Note_on_c, 0, 74, 94
1, 268859, Note_on_c, 0, 65, 85
1, 268864, Note_off_c, 0, 74, 59
1, 268867, Note_on_c, 0, 62, 70
1, 268909, Note_off_c, 0, 65, 65
1, 268922, Note_off_c, 0, 62, 61
1, 268947, Note_on_c, 0, 60, 87
1, 268951, Note_on_c, 0, 48, 82
1, 268952, Control_c, 0, 64, 36
1, 268967, Control_c, 0, 64, 61
1, 268976, Note_off_c, 0, 48, 69
1, 268976, Note_off_c, 0, 60, 65
1, 268981, Control_c, 0, 64, 70
1, 268996, Control_c, 0, 64, 91
1, 269010, Control_c, 0, 64, 127
1, 269034, Note_on_c, 0, 60, 88
1, 269042, Note_on_c, 0, 48, 75
1, 269055, Control_c, 0, 64, 122
1, 269067, Note_off_c, 0, 48, 69
1, 269070, Control_c, 0, 64, 96
1, 269085, Note_off_c, 0, 60, 0
1, 269085, Control_c, 0, 64, 86
1, 269099, Control_c, 0, 64, 83
1, 269108, Note_on_c, 0, 65, 87
1, 269114, Control_c, 0, 64, 81
1, 269122, Poly_aftertouch_c, 0, 60, 127
1, 269129, Control_c, 0, 64, 78
1, 269136, Poly_aftertouch_c, 0, 60, 0
1, 269137, Note_off_c, 0, 65, 60
1, 269144, Control_c, 0, 64, 73
1, 269159, Control_c, 0, 64, 70
1, 269174, Control_c, 0, 64, 68
1, 269180, Note_on_c, 0, 65, 80
1, 269188, Control_c, 0, 64, 67
1, 269203, Control_c, 0, 64, 65
1, 269212, Note_off_c, 0, 65, 67
1, 269218, Control_c, 0, 64, 64
1, 269233, Control_c, 0, 64, 63
1, 269254, Note_on_c, 0, 60, 84
1, 269257, Note_on_c, 0, 64, 84
1, 269262, Control_c, 0, 64, 62
1, 269277, Control_c, 0, 64, 61
1, 269278, Note_off_c, 0, 64, 70
1, 269290, Note_off_c, 0, 60, 65
1, 269292, Control_c, 0, 64, 59
1, 269308, Control_c, 0, 64, 58
1, 269323, Control_c, 0, 64, 58
1, 269332, Note_on_c, 0, 60, 60
1, 269332, Note_on_c, 0, 64, 83
1, 269338, Control_c, 0, 64, 57
1, 269352, Control_c, 0, 64, 55
1, 269355, Note_off_c, 0, 64, 71
1, 269367, Control_c, 0, 64, 53
1, 269370, Note_off_c, 0, 60, 67
1, 269382, Control_c, 0, 64, 52
1, 269397, Control_c, 0, 64, 50
1, 269408, Note_on_c, 0, 72, 89
1, 269418, Control_c, 0, 64, 44
1, 269433, Control_c, 0, 64, 20
1, 269448, Control_c, 0, 64, 0
1, 269468, Note_on_c, 0, 64, 53
1, 269478, Note_on_c, 0, 67, 66
1, 269494, Note_on_c, 0, 60, 56
1, 269496, Note_off_c, 0, 72, 63
1, 269518, Note_off_c, 0, 64, 63
1, 269519, Note_off_c, 0, 67, 63
1, 269530, Note_off_c, 0, 60, 65
1, 269570, Note_on_c, 0, 53, 78
1, 269572, Note_on_c, 0, 41, 75
1, 269597, Control_c, 0, 64, 54
1, 269600, Note_off_c, 0, 53, 67
1, 269611, Control_c, 0, 64, 64
1, 269622, Note_off_c, 0, 41, 0
1, 269626, Control_c, 0, 64, 73
1, 269641, Control_c, 0, 64, 102
1, 269652, Note_on_c, 0, 53, 87
1, 269656, Control_c, 0, 64, 127
1, 269660, Poly_aftertouch_c, 0, 41, 127
1, 269681, Poly_aftertouch_c, 0, 41, 0
1, 269682, Note_off_c, 0, 53, 63
1, 269731, Note_on_c, 0, 60, 78
1, 269732, Note_on_c, 0, 69, 76
1, 269736, Note_on_c, 0, 65, 66
1, 269755, Note_off_c, 0, 60, 68
1, 269756, Note_off_c, 0, 69, 66
1, 269763, Note_off_c, 0, 65, 63
1, 269799, Note_on_c, 0, 69, 78
1, 269809, Note_on_c, 0, 65, 82
1, 269814, Note_on_c, 0, 60, 62
1, 269832, Note_off_c, 0, 65, 66
1, 269845, Note_off_c, 0, 60, 65
1, 269848, Control_c, 0, 64, 81
1, 269851, Note_off_c, 0, 69, 64
1, 269863, Control_c, 0, 64, 54
1, 269877, Control_c, 0, 64, 0
1, 269885, Note_on_c, 0, 53, 96
1, 269889, Note_on_c, 0, 41, 87
1, 269922, Control_c, 0, 64, 12
1, 269926, Note_off_c, 0, 41, 65
1, 269930, Note_off_c, 0, 53, 62
1, 269937, Control_c, 0, 64, 58
1, 269952, Control_c, 0, 64, 73
1, 269959, Note_on_c, 0, 53, 72
1, 269961, Note_on_c, 0, 41, 67
1, 269967, Control_c, 0, 64, 127
1, 270025, Note_off_c, 0, 53, 63
1, 270030, Note_off_c, 0, 41, 64
1, 270056, Note_on_c, 0, 60, 83
1, 270056, Note_on_c, 0, 65, 83
1, 270058, Note_on_c, 0, 57, 83
1, 270083, Poly_aftertouch_c, 0, 43, 127
1, 270084, Note_off_c, 0, 57, 68
1, 270085, Note_off_c, 0, 60, 64
1, 270091, Note_off_c, 0, 65, 61
1, 270120, Poly_aftertouch_c, 0, 43, 0
1, 270131, Control_c, 0, 64, 96
1, 270139, Note_on_c, 0, 65, 85
1, 270146, Control_c, 0, 64, 71
1, 270146, Note_on_c, 0, 60, 82
1, 270147, Note_on_c, 0, 57, 81
1, 270168, Control_c, 0, 64, 43
1, 270182, Control_c, 0, 64, 0
1, 270211, Note_off_c, 0, 60, 62
1, 270226, Note_off_c, 0, 57, 60
1, 270245, Note_off_c, 0, 65, 63
1, 270274, Note_on_c, 0, 52, 94
1, 270280, Note_on_c, 0, 40, 85
1, 270324, Note_off_c, 0, 52, 65
1, 270328, Note_off_c, 0, 40, 62
1, 270331, Control_c, 0, 64, 66
1, 270345, Control_c, 0, 64, 97
1, 270360, Control_c, 0, 64, 127
1, 270367, Note_on_c, 0, 40, 70
1, 270367, Note_on_c, 0, 52, 85
1, 270423, Note_off_c, 0, 40, 64
1, 270443, Note_off_c, 0, 52, 65
1, 270456, Note_on_c, 0, 55, 85
1, 270462, Note_on_c, 0, 60, 75
1, 270472, Note_on_c, 0, 58, 63
1, 270487, Note_off_c, 0, 55, 65
1, 270489, Note_off_c, 0, 60, 69
1, 270494, Note_off_c, 0, 58, 61
1, 270494, Control_c, 0, 64, 107
1, 270508, Control_c, 0, 64, 92
1, 270523, Control_c, 0, 64, 85
1, 270538, Control_c, 0, 64, 79
1, 270542, Note_on_c, 0, 60, 84
1, 270552, Control_c, 0, 64, 74
1, 270554, Note_on_c, 0, 58, 63
1, 270563, Note_off_c, 0, 60, 70
1, 270567, Control_c, 0, 64, 69
1, 270582, Control_c, 0, 64, 64
1, 270584, Note_off_c, 0, 58, 52
1, 270597, Control_c, 0, 64, 61
1, 270612, Control_c, 0, 64, 58
1, 270625, Note_on_c, 0, 60, 89
1, 270626, Note_on_c, 0, 55, 75
1, 270626, Control_c, 0, 64, 57
1, 270638, Note_on_c, 0, 58, 62
1, 270641, Control_c, 0, 64, 55
1, 270647, Note_off_c, 0, 60, 66
1, 270651, Note_off_c, 0, 55, 66
1, 270656, Control_c, 0, 64, 48
1, 270661, Note_off_c, 0, 58, 61
1, 270671, Control_c, 0, 64, 37
1, 270686, Control_c, 0, 64, 21
1, 270700, Control_c, 0, 64, 0
1, 270702, Note_on_c, 0, 55, 77
1, 270709, Note_on_c, 0, 60, 74
1, 270716, Note_on_c, 0, 58, 69
1, 270739, Note_off_c, 0, 60, 67
1, 270748, Note_off_c, 0, 58, 65
1, 270754, Note_off_c, 0, 55, 62
1, 270781, Note_on_c, 0, 67, 75
1, 270861, Note_off_c, 0, 67, 63
1, 270864, Note_on_c, 0, 60, 42
1, 270869, Note_on_c, 0, 55, 56
1, 270882, Note_on_c, 0, 59, 31
1, 270891, Note_off_c, 0, 60, 60
1, 270894, Note_off_c, 0, 55, 58
1, 270924, Note_off_c, 0, 59, 32
1, 270942, Note_on_c, 0, 53, 76
1, 270947, Note_on_c, 0, 41, 71
1, 270961, Control_c, 0, 64, 43
1, 270974, Note_off_c, 0, 53, 64
1, 270976, Control_c, 0, 64, 61
1, 270991, Control_c, 0, 64, 68
1, 270994, Note_off_c, 0, 41, 0
1, 271005, Control_c, 0, 64, 78
1, 271020, Control_c, 0, 64, 100
1, 271022, Note_on_c, 0, 53, 74
1, 271034, Poly_aftertouch_c, 0, 41, 0
1, 271035, Control_c, 0, 64, 127
1, 271045, Note_off_c, 0, 53, 70
1, 271094, Control_c, 0, 64, 103
1, 271106, Note_on_c, 0, 57, 64
1, 271109, Note_on_c, 0, 60, 76
1, 271109, Control_c, 0, 64, 94
1, 271124, Control_c, 0, 64, 89
1, 271136, Note_off_c, 0, 57, 66
1, 271138, Note_off_c, 0, 60, 61
1, 271138, Control_c, 0, 64, 82
1, 271153, Control_c, 0, 64, 76
1, 271168, Control_c, 0, 64, 71
1, 271183, Control_c, 0, 64, 68
1, 271186, Poly_aftertouch_c, 0, 60, 0
1, 271198, Control_c, 0, 64, 65
1, 271213, Control_c, 0, 64, 62
1, 271228, Control_c, 0, 64, 58
1, 271243, Control_c, 0, 64, 54
1, 271256, Note_on_c, 0, 56, 69
1, 271257, Note_on_c, 0, 59, 65
1, 271257, Control_c, 0, 64, 48
1, 271272, Control_c, 0, 64, 42
1, 271284, Note_off_c, 0, 56, 67
1, 271285, Note_off_c, 0, 59, 66
1, 271287, Control_c, 0, 64, 34
1, 271302, Control_c, 0, 64, 18
1, 271317, Control_c, 0, 64, 0
1, 271338, Note_on_c, 0, 56, 76
1, 271341, Note_on_c, 0, 59, 74
1, 271366, Note_off_c, 0, 56, 66
1, 271366, Note_off_c, 0, 59, 68
1, 271420, Note_on_c, 0, 65, 72
1, 271481, Note_on_c, 0, 59, 62
1, 271493, Note_on_c, 0, 56, 54
1, 271493, Note_off_c, 0, 65, 60
1, 271518, Note_off_c, 0, 59, 67
1, 271526, Note_off_c, 0, 56, 65
1, 271567, Note_on_c, 0, 55, 69
1, 271574, Note_on_c, 0, 43, 64
1, 271583, Control_c, 0, 64, 45
1, 271597, Control_c, 0, 64, 63
1, 271598, Note_off_c, 0, 55, 64
1, 271604, Note_off_c, 0, 43, 64
1, 271612, Control_c, 0, 64, 71
1, 271627, Control_c, 0, 64, 84
1, 271649, Control_c, 0, 64, 119
1, 271658, Note_on_c, 0, 55, 79
1, 271664, Control_c, 0, 64, 127
1, 271671, Note_on_c, 0, 43, 56
1, 271687, Note_off_c, 0, 55, 64
1, 271710, Control_c, 0, 64, 105
1, 271711, Note_off_c, 0, 43, 51
1, 271725, Control_c, 0, 64, 95
1, 271740, Control_c, 0, 64, 90
1, 271746, Note_on_c, 0, 55, 59
1, 271748, Note_on_c, 0, 59, 45
1, 271754, Control_c, 0, 64, 88
1, 271761, Note_off_c, 0, 55, 66
1, 271769, Control_c, 0, 64, 84
1, 271774, Note_off_c, 0, 59, 56
1, 271784, Control_c, 0, 64, 79
1, 271799, Control_c, 0, 64, 76
1, 271809, Note_on_c, 0, 59, 70
1, 271814, Control_c, 0, 64, 73
1, 271820, Note_on_c, 0, 55, 62
1, 271828, Control_c, 0, 64, 71
1, 271834, Note_off_c, 0, 55, 69
1, 271842, Note_off_c, 0, 59, 67
1, 271843, Control_c, 0, 64, 68
1, 271858, Control_c, 0, 64, 65
1, 271873, Control_c, 0, 64, 62
1, 271883, Note_on_c, 0, 55, 82
1, 271887, Note_on_c, 0, 53, 82
1, 271887, Control_c, 0, 64, 59
1, 271902, Control_c, 0, 64, 56
1, 271912, Note_off_c, 0, 55, 65
1, 271915, Note_off_c, 0, 53, 69
1, 271917, Control_c, 0, 64, 52
1, 271932, Control_c, 0, 64, 47
1, 271947, Control_c, 0, 64, 41
1, 271961, Control_c, 0, 64, 35
1, 271970, Note_on_c, 0, 55, 79
1, 271973, Note_on_c, 0, 53, 78
1, 271976, Control_c, 0, 64, 23
1, 271991, Control_c, 0, 64, 0
1, 272000, Note_off_c, 0, 55, 68
1, 272005, Note_off_c, 0, 53, 67
1, 272041, Note_on_c, 0, 65, 78
1, 272081, Note_on_c, 0, 64, 35
1, 272082, Note_off_c, 0, 64, 127
1, 272113, Note_on_c, 0, 59, 67
1, 272119, Note_on_c, 0, 55, 63
1, 272119, Note_off_c, 0, 65, 62
1, 272119, Note_on_c, 0, 53, 65
1, 272151, Note_off_c, 0, 59, 64
1, 272156, Note_off_c, 0, 55, 66
1, 272158, Note_off_c, 0, 53, 64
1, 272199, Note_on_c, 0, 48, 80
1, 272206, Note_on_c, 0, 36, 71
1, 272229, Control_c, 0, 64, 35
1, 272232, Note_off_c, 0, 48, 64
1, 272238, Note_off_c, 0, 36, 64
1, 272244, Control_c, 0, 64, 61
1, 272259, Control_c, 0, 64, 71
1, 272273, Control_c, 0, 64, 92
1, 272287, Note_on_c, 0, 48, 70
1, 272288, Control_c, 0, 64, 127
1, 272295, Note_on_c, 0, 36, 71
1, 272341, Note_off_c, 0, 48, 63
1, 272345, Note_off_c, 0, 36, 63
1, 272361, Note_on_c, 0, 59, 88
1, 272364, Note_on_c, 0, 53, 79
1, 272365, Note_on_c, 0, 55, 80
1, 272389, Note_off_c, 0, 55, 67
1, 272390, Note_off_c, 0, 59, 65
1, 272398, Note_off_c, 0, 53, 68
1, 272447, Note_on_c, 0, 55, 83
1, 272450, Note_on_c, 0, 59, 87
1, 272459, Note_on_c, 0, 53, 80
1, 272482, Note_off_c, 0, 53, 69
1, 272488, Control_c, 0, 64, 70
1, 272496, Note_off_c, 0, 55, 63
1, 272504, Control_c, 0, 64, 0
1, 272512, Note_off_c, 0, 59, 64
1, 272532, Note_on_c, 0, 48, 98
1, 272539, Note_on_c, 0, 36, 85
1, 272572, Note_off_c, 0, 36, 65
1, 272577, Note_off_c, 0, 48, 62
1, 272578, Control_c, 0, 64, 57
1, 272593, Control_c, 0, 64, 73
1, 272608, Control_c, 0, 64, 127
1, 272617, Note_on_c, 0, 48, 77
1, 272618, Note_on_c, 0, 36, 69
1, 272668, Note_off_c, 0, 36, 62
1, 272681, Note_off_c, 0, 48, 63
1, 272688, Note_on_c, 0, 60, 92
1, 272691, Note_on_c, 0, 52, 85
1, 272692, Note_on_c, 0, 55, 83
1, 272716, Note_off_c, 0, 55, 69
1, 272718, Note_off_c, 0, 52, 68
1, 272727, Note_off_c, 0, 60, 63
1, 272776, Note_on_c, 0, 60, 83
1, 272785, Note_on_c, 0, 55, 80
1, 272811, Note_off_c, 0, 55, 66
1, 272814, Control_c, 0, 64, 98
1, 272829, Control_c, 0, 64, 64
1, 272833, Note_off_c, 0, 60, 66
1, 272843, Control_c, 0, 64, 0
1, 272896, Note_on_c, 0, 55, 91
1, 272903, Note_on_c, 0, 43, 89
1, 272933, Control_c, 0, 64, 43
1, 272945, Note_off_c, 0, 43, 62
1, 272948, Note_off_c, 0, 55, 64
1, 272948, Control_c, 0, 64, 66
1, 272963, Control_c, 0, 64, 86
1, 272977, Control_c, 0, 64, 127
1, 272990, Note_on_c, 0, 55, 82
1, 273000, Note_on_c, 0, 43, 63
1, 273028, Note_off_c, 0, 43, 67
1, 273047, Note_off_c, 0, 55, 63
1, 273061, Note_on_c, 0, 67, 86
1, 273064, Note_on_c, 0, 74, 87
1, 273067, Note_on_c, 0, 70, 80
1, 273087, Note_off_c, 0, 70, 72
1, 273088, Note_off_c, 0, 67, 63
1, 273095, Note_off_c, 0, 74, 62
1, 273138, Note_on_c, 0, 74, 85
1, 273159, Note_on_c, 0, 70, 72
1, 273162, Control_c, 0, 64, 112
1, 273173, Note_off_c, 0, 70, 71
1, 273177, Control_c, 0, 64, 100
1, 273181, Note_off_c, 0, 74, 66
1, 273192, Control_c, 0, 64, 92
1, 273207, Control_c, 0, 64, 84
1, 273222, Control_c, 0, 64, 78
1, 273234, Note_on_c, 0, 70, 77
1, 273236, Control_c, 0, 64, 74
1, 273240, Note_on_c, 0, 74, 91
1, 273241, Note_on_c, 0, 67, 75
1, 273251, Control_c, 0, 64, 70
1, 273263, Note_off_c, 0, 67, 67
1, 273266, Control_c, 0, 64, 65
1, 273267, Note_off_c, 0, 74, 66
1, 273281, Control_c, 0, 64, 60
1, 273291, Note_off_c, 0, 70, 55
1, 273297, Control_c, 0, 64, 53
1, 273311, Control_c, 0, 64, 48
1, 273316, Note_on_c, 0, 74, 77
1, 273324, Note_on_c, 0, 70, 45
1, 273326, Control_c, 0, 64, 41
1, 273335, Note_on_c, 0, 67, 71
1, 273341, Control_c, 0, 64, 21
1, 273344, Note_off_c, 0, 74, 67
1, 273356, Control_c, 0, 64, 0
1, 273359, Note_off_c, 0, 67, 68
1, 273368, Note_off_c, 0, 70, 65
1, 273388, Note_on_c, 0, 79, 86
1, 273464, Note_on_c, 0, 74, 75
1, 273476, Note_on_c, 0, 67, 54
1, 273481, Note_on_c, 0, 70, 75
1, 273493, Note_off_c, 0, 79, 63
1, 273517, Note_off_c, 0, 67, 65
1, 273529, Note_off_c, 0, 74, 64
1, 273530, Note_off_c, 0, 70, 63
1, 273563, Control_c, 0, 64, 19
1, 273568, Note_on_c, 0, 64, 95
1, 273571, Note_on_c, 0, 52, 87
1, 273578, Control_c, 0, 64, 63
1, 273592, Control_c, 0, 64, 75
1, 273598, Note_off_c, 0, 52, 68
1, 273606, Note_off_c, 0, 64, 65
1, 273607, Control_c, 0, 64, 127
1, 273657, Note_on_c, 0, 64, 82
1, 273703, Note_off_c, 0, 64, 59
1, 273720, Note_on_c, 0, 67, 78
1, 273722, Note_on_c, 0, 73, 78
1, 273723, Note_on_c, 0, 70, 79
1, 273743, Note_off_c, 0, 73, 71
1, 273745, Note_off_c, 0, 67, 67
1, 273745, Note_off_c, 0, 70, 71
1, 273771, Control_c, 0, 64, 116
1, 273785, Control_c, 0, 64, 107
1, 273800, Control_c, 0, 64, 100
1, 273801, Note_on_c, 0, 70, 82
1, 273801, Note_on_c, 0, 73, 94
1, 273815, Control_c, 0, 64, 93
1, 273824, Note_off_c, 0, 70, 71
1, 273827, Note_off_c, 0, 73, 65
1, 273830, Control_c, 0, 64, 87
1, 273844, Control_c, 0, 64, 81
1, 273859, Control_c, 0, 64, 78
1, 273874, Control_c, 0, 64, 74
1, 273889, Note_on_c, 0, 67, 72
1, 273889, Note_on_c, 0, 70, 75
1, 273889, Control_c, 0, 64, 72
1, 273890, Note_on_c, 0, 73, 79
1, 273911, Control_c, 0, 64, 68
1, 273918, Note_off_c, 0, 67, 71
1, 273919, Note_off_c, 0, 73, 70
1, 273922, Note_off_c, 0, 70, 63
1, 273926, Control_c, 0, 64, 64
1, 273940, Control_c, 0, 64, 61
1, 273955, Control_c, 0, 64, 60
1, 273970, Control_c, 0, 64, 59
1, 273974, Note_on_c, 0, 73, 80
1, 273976, Note_on_c, 0, 67, 76
1, 273976, Note_on_c, 0, 70, 66
1, 273985, Control_c, 0, 64, 58
1, 273998, Note_off_c, 0, 73, 67
1, 274000, Control_c, 0, 64, 54
1, 274007, Note_off_c, 0, 67, 66
1, 274015, Control_c, 0, 64, 41
1, 274018, Note_off_c, 0, 70, 63
1, 274030, Control_c, 0, 64, 0
1, 274046, Note_on_c, 0, 79, 90
1, 274128, Note_on_c, 0, 67, 59
1, 274131, Note_on_c, 0, 70, 68
1, 274134, Note_on_c, 0, 73, 67
1, 274140, Note_off_c, 0, 79, 63
1, 274157, Note_off_c, 0, 70, 67
1, 274161, Note_off_c, 0, 67, 66
1, 274166, Note_off_c, 0, 73, 64
1, 274209, Control_c, 0, 64, 12
1, 274218, Note_on_c, 0, 45, 68
1, 274221, Note_on_c, 0, 57, 67
1, 274223, Control_c, 0, 64, 58
1, 274238, Control_c, 0, 64, 67
1, 274249, Note_off_c, 0, 45, 58
1, 274253, Control_c, 0, 64, 78
1, 274262, Note_off_c, 0, 57, 0
1, 274267, Control_c, 0, 64, 110
1, 274282, Control_c, 0, 64, 127
1, 274299, Poly_aftertouch_c, 0, 45, 0
1, 274299, Poly_aftertouch_c, 0, 57, 127
1, 274316, Poly_aftertouch_c, 0, 57, 0
1, 274374, Note_on_c, 0, 67, 69
1, 274388, Note_on_c, 0, 73, 53
1, 274389, Note_on_c, 0, 69, 55
1, 274400, Note_off_c, 0, 67, 68
1, 274410, Note_off_c, 0, 69, 59
1, 274410, Note_off_c, 0, 73, 59
1, 274442, Note_on_c, 0, 73, 87
1, 274480, Note_off_c, 0, 73, 64
1, 274526, Note_on_c, 0, 73, 80
1, 274528, Note_on_c, 0, 69, 57
1, 274534, Note_on_c, 0, 67, 58
1, 274563, Note_off_c, 0, 73, 62
1, 274564, Note_off_c, 0, 67, 65
1, 274566, Note_off_c, 0, 69, 61
1, 274593, Control_c, 0, 64, 122
1, 274601, Note_on_c, 0, 73, 67
1, 274608, Control_c, 0, 64, 112
1, 274611, Note_on_c, 0, 69, 62
1, 274621, Note_on_c, 0, 67, 75
1, 274623, Control_c, 0, 64, 107
1, 274633, Note_off_c, 0, 73, 65
1, 274638, Control_c, 0, 64, 104
1, 274650, Note_off_c, 0, 67, 71
1, 274650, Note_off_c, 0, 69, 66
1, 274660, Control_c, 0, 64, 101
1, 274674, Control_c, 0, 64, 100
1, 274690, Note_on_c, 0, 79, 90
1, 274704, Control_c, 0, 64, 101
1, 274719, Control_c, 0, 64, 102
1, 274734, Control_c, 0, 64, 102
1, 274748, Control_c, 0, 64, 103
1, 274757, Note_on_c, 0, 73, 78
1, 274763, Control_c, 0, 64, 103
1, 274764, Note_on_c, 0, 69, 74
1, 274765, Note_on_c, 0, 67, 69
1, 274770, Note_off_c, 0, 79, 65
1, 274778, Control_c, 0, 64, 99
1, 274793, Control_c, 0, 64, 79
1, 274805, Note_off_c, 0, 67, 61
1, 274808, Control_c, 0, 64, 56
1, 274810, Note_off_c, 0, 73, 64
1, 274811, Note_off_c, 0, 69, 62
1, 274823, Control_c, 0, 64, 0
1, 274862, Note_on_c, 0, 58, 86
1, 274865, Note_on_c, 0, 46, 82
1, 274894, Note_off_c, 0, 58, 61
1, 274897, Control_c, 0, 64, 56
1, 274901, Note_off_c, 0, 46, 60
1, 274912, Control_c, 0, 64, 69
1, 274927, Control_c, 0, 64, 90
1, 274942, Control_c, 0, 64, 127
1, 274946, Note_on_c, 0, 46, 59
1, 274960, Note_on_c, 0, 58, 57
1, 274993, Note_off_c, 0, 58, 64
1, 274996, Note_off_c, 0, 46, 63
1, 275025, Note_on_c, 0, 73, 80
1, 275026, Note_on_c, 0, 64, 79
1, 275031, Note_on_c, 0, 67, 69
1, 275046, Note_off_c, 0, 73, 71
1, 275048, Note_off_c, 0, 64, 70
1, 275056, Note_off_c, 0, 67, 68
1, 275101, Note_on_c, 0, 64, 85
1, 275103, Note_on_c, 0, 73, 96
1, 275115, Note_on_c, 0, 67, 75
1, 275139, Note_off_c, 0, 67, 69
1, 275143, Note_off_c, 0, 64, 61
1, 275149, Control_c, 0, 64, 91
1, 275163, Control_c, 0, 64, 61
1, 275172, Note_off_c, 0, 73, 65
1, 275178, Control_c, 0, 64, 0
1, 275203, Note_on_c, 0, 58, 101
1, 275207, Note_on_c, 0, 46, 89
1, 275222, Control_c, 0, 64, 19
1, 275234, Note_off_c, 0, 58, 63
1, 275237, Control_c, 0, 64, 58
1, 275239, Note_off_c, 0, 46, 61
1, 275252, Control_c, 0, 64, 72
1, 275267, Control_c, 0, 64, 113
1, 275282, Control_c, 0, 64, 127
1, 275297, Note_on_c, 0, 58, 83
1, 275298, Note_on_c, 0, 46, 72
1, 275330, Note_off_c, 0, 46, 67
1, 275342, Note_off_c, 0, 58, 64
1, 275383, Note_on_c, 0, 74, 88
1, 275395, Note_on_c, 0, 62, 79
1, 275395, Note_on_c, 0, 65, 79
1, 275411, Note_off_c, 0, 74, 67
1, 275417, Note_off_c, 0, 62, 70
1, 275418, Note_off_c, 0, 65, 69
1, 275425, Poly_aftertouch_c, 0, 47, 0
1, 275480, Note_on_c, 0, 62, 89
1, 275481, Note_on_c, 0, 74, 97
1, 275482, Control_c, 0, 64, 125
1, 275484, Note_on_c, 0, 65, 73
1, 275496, Control_c, 0, 64, 105
1, 275511, Control_c, 0, 64, 97
1, 275526, Control_c, 0, 64, 91
1, 275541, Control_c, 0, 64, 84
1, 275553, Note_off_c, 0, 62, 57
1, 275553, Note_off_c, 0, 65, 60
1, 275556, Control_c, 0, 64, 71
1, 275571, Note_off_c, 0, 74, 59
1, 275571, Control_c, 0, 64, 48
1, 275586, Control_c, 0, 64, 0
1, 275624, Note_on_c, 0, 53, 94
1, 275628, Note_on_c, 0, 41, 85
1, 275664, Note_off_c, 0, 41, 66
1, 275666, Note_off_c, 0, 53, 64
1, 275675, Control_c, 0, 64, 55
1, 275690, Control_c, 0, 64, 70
1, 275705, Control_c, 0, 64, 94
1, 275715, Note_on_c, 0, 53, 77
1, 275719, Note_on_c, 0, 41, 71
1, 275720, Control_c, 0, 64, 127
1, 275750, Note_off_c, 0, 41, 68
1, 275772, Note_off_c, 0, 53, 63
1, 275824, Note_on_c, 0, 62, 70
1, 275830, Note_on_c, 0, 65, 79
1, 275853, Control_c, 0, 64, 107
1, 275861, Note_off_c, 0, 65, 62
1, 275868, Control_c, 0, 64, 92
1, 275875, Note_off_c, 0, 62, 50
1, 275883, Control_c, 0, 64, 85
1, 275898, Note_on_c, 0, 65, 73
1, 275898, Control_c, 0, 64, 80
1, 275913, Control_c, 0, 64, 77
1, 275922, Note_off_c, 0, 65, 66
1, 275927, Control_c, 0, 64, 74
1, 275942, Control_c, 0, 64, 72
1, 275957, Control_c, 0, 64, 68
1, 275972, Control_c, 0, 64, 64
1, 275978, Note_on_c, 0, 65, 86
1, 275985, Note_on_c, 0, 62, 76
1, 275986, Control_c, 0, 64, 60
1, 276001, Control_c, 0, 64, 58
1, 276003, Note_off_c, 0, 65, 67
1, 276005, Note_off_c, 0, 62, 71
1, 276016, Control_c, 0, 64, 56
1, 276031, Control_c, 0, 64, 54
1, 276045, Control_c, 0, 64, 52
1, 276060, Control_c, 0, 64, 47
1, 276066, Note_on_c, 0, 65, 79
1, 276069, Note_on_c, 0, 62, 72
1, 276075, Control_c, 0, 64, 39
1, 276087, Note_off_c, 0, 65, 68
1, 276090, Control_c, 0, 64, 18
1, 276093, Note_off_c, 0, 62, 70
1, 276105, Control_c, 0, 64, 0
1, 276148, Note_on_c, 0, 74, 83
1, 276212, Note_on_c, 0, 65, 69
1, 276227, Note_on_c, 0, 62, 53
1, 276243, Note_off_c, 0, 74, 61
1, 276251, Note_off_c, 0, 65, 62
1, 276266, Note_off_c, 0, 62, 64
1, 276297, Note_on_c, 0, 53, 70
1, 276301, Note_on_c, 0, 41, 66
1, 276319, Control_c, 0, 64, 30
1, 276328, Note_off_c, 0, 53, 59
1, 276334, Control_c, 0, 64, 54
1, 276349, Control_c, 0, 64, 65
1, 276364, Control_c, 0, 64, 72
1, 276379, Control_c, 0, 64, 87
1, 276384, Note_off_c, 0, 41, 62
1, 276389, Poly_aftertouch_c, 0, 53, 0
1, 276394, Control_c, 0, 64, 127
1, 276462, Note_on_c, 0, 62, 58
1, 276468, Control_c, 0, 64, 112
1, 276483, Control_c, 0, 64, 104
1, 276483, Note_on_c, 0, 65, 58
1, 276496, Note_off_c, 0, 62, 64
1, 276498, Control_c, 0, 64, 97
1, 276505, Note_off_c, 0, 65, 61
1, 276513, Control_c, 0, 64, 91
1, 276528, Control_c, 0, 64, 85
1, 276543, Control_c, 0, 64, 82
1, 276554, Note_on_c, 0, 65, 40
1, 276558, Control_c, 0, 64, 79
1, 276573, Control_c, 0, 64, 76
1, 276585, Note_off_c, 0, 65, 51
1, 276587, Control_c, 0, 64, 72
1, 276602, Control_c, 0, 64, 69
1, 276617, Control_c, 0, 64, 64
1, 276623, Note_on_c, 0, 64, 68
1, 276626, Note_on_c, 0, 61, 60
1, 276632, Control_c, 0, 64, 61
1, 276647, Control_c, 0, 64, 60
1, 276652, Note_off_c, 0, 64, 68
1, 276659, Note_off_c, 0, 61, 63
1, 276662, Control_c, 0, 64, 59
1, 276676, Control_c, 0, 64, 58
1, 276691, Control_c, 0, 64, 56
1, 276701, Note_on_c, 0, 64, 63
1, 276706, Control_c, 0, 64, 53
1, 276721, Control_c, 0, 64, 50
1, 276725, Note_on_c, 0, 61, 49
1, 276734, Note_off_c, 0, 64, 65
1, 276736, Control_c, 0, 64, 47
1, 276745, Note_off_c, 0, 61, 59
1, 276750, Control_c, 0, 64, 40
1, 276765, Control_c, 0, 64, 28
1, 276776, Note_on_c, 0, 73, 72
1, 276780, Control_c, 0, 64, 0
1, 276836, Note_on_c, 0, 61, 52
1, 276840, Note_on_c, 0, 64, 44
1, 276852, Note_off_c, 0, 73, 63
1, 276880, Note_off_c, 0, 64, 65
1, 276884, Note_off_c, 0, 61, 59
1, 276928, Note_on_c, 0, 53, 68
1, 276931, Note_on_c, 0, 41, 63
1, 276955, Note_off_c, 0, 53, 66
1, 276963, Note_off_c, 0, 41, 63
1, 276980, Control_c, 0, 64, 51
1, 276995, Control_c, 0, 64, 64
1, 277005, Note_on_c, 0, 41, 58
1, 277010, Control_c, 0, 64, 71
1, 277011, Note_on_c, 0, 53, 70
1, 277024, Control_c, 0, 64, 82
1, 277031, Note_off_c, 0, 41, 60
1, 277039, Control_c, 0, 64, 96
1, 277040, Note_off_c, 0, 53, 64
1, 277054, Control_c, 0, 64, 103
1, 277068, Control_c, 0, 64, 99
1, 277083, Control_c, 0, 64, 92
1, 277098, Control_c, 0, 64, 87
1, 277102, Note_on_c, 0, 60, 62
1, 277105, Note_on_c, 0, 63, 74
1, 277113, Control_c, 0, 64, 84
1, 277128, Control_c, 0, 64, 83
1, 277131, Note_off_c, 0, 63, 69
1, 277133, Note_off_c, 0, 60, 67
1, 277142, Control_c, 0, 64, 80
1, 277157, Control_c, 0, 64, 77
1, 277170, Note_on_c, 0, 63, 59
1, 277172, Control_c, 0, 64, 74
1, 277187, Control_c, 0, 64, 72
1, 277196, Note_off_c, 0, 63, 68
1, 277202, Control_c, 0, 64, 71
1, 277216, Control_c, 0, 64, 69
1, 277231, Control_c, 0, 64, 66
1, 277246, Control_c, 0, 64, 63
1, 277257, Note_on_c, 0, 62, 74
1, 277258, Note_on_c, 0, 59, 70
1, 277261, Control_c, 0, 64, 60
1, 277276, Control_c, 0, 64, 55
1, 277283, Note_off_c, 0, 62, 69
1, 277285, Note_off_c, 0, 59, 66
1, 277291, Control_c, 0, 64, 54
1, 277306, Control_c, 0, 64, 53
1, 277321, Control_c, 0, 64, 51
1, 277334, Note_on_c, 0, 62, 74
1, 277336, Control_c, 0, 64, 46
1, 277345, Note_on_c, 0, 59, 60
1, 277351, Control_c, 0, 64, 38
1, 277357, Note_off_c, 0, 62, 70
1, 277365, Control_c, 0, 64, 25
1, 277377, Note_off_c, 0, 59, 65
1, 277380, Control_c, 0, 64, 0
1, 277403, Note_on_c, 0, 71, 84
1, 277477, Note_on_c, 0, 62, 74
1, 277488, Note_on_c, 0, 59, 57
1, 277498, Note_off_c, 0, 71, 62
1, 277521, Note_off_c, 0, 59, 65
1, 277523, Note_off_c, 0, 62, 62
1, 277567, Note_on_c, 0, 53, 78
1, 277593, Note_off_c, 0, 53, 67
1, 277596, Note_on_c, 0, 41, 29
1, 277618, Control_c, 0, 64, 29
1, 277633, Control_c, 0, 64, 57
1, 277636, Note_on_c, 0, 43, 15
1, 277652, Note_on_c, 0, 53, 79
1, 277655, Control_c, 0, 64, 69
1, 277656, Note_off_c, 0, 41, 0
1, 277656, Note_on_c, 0, 41, 13
1, 277670, Control_c, 0, 64, 81
1, 277682, Note_off_c, 0, 53, 66
1, 277684, Control_c, 0, 64, 106
1, 277685, Note_off_c, 0, 43, 60
1, 277699, Control_c, 0, 64, 127
1, 277707, Note_off_c, 0, 41, 37
1, 277735, Note_on_c, 0, 58, 80
1, 277738, Note_on_c, 0, 61, 85
1, 277760, Note_off_c, 0, 58, 67
1, 277761, Note_off_c, 0, 61, 69
1, 277797, Note_on_c, 0, 61, 76
1, 277817, Control_c, 0, 64, 119
1, 277823, Note_off_c, 0, 61, 66
1, 277832, Control_c, 0, 64, 106
1, 277847, Control_c, 0, 64, 97
1, 277862, Control_c, 0, 64, 89
1, 277872, Note_on_c, 0, 60, 92
1, 277876, Note_on_c, 0, 57, 80
1, 277877, Control_c, 0, 64, 83
1, 277891, Control_c, 0, 64, 79
1, 277896, Note_off_c, 0, 60, 69
1, 277902, Note_off_c, 0, 57, 69
1, 277906, Control_c, 0, 64, 74
1, 277921, Control_c, 0, 64, 69
1, 277936, Control_c, 0, 64, 65
1, 277951, Control_c, 0, 64, 62
1, 277965, Note_on_c, 0, 60, 88
1, 277965, Control_c, 0, 64, 59
1, 277970, Note_on_c, 0, 57, 78
1, 277980, Control_c, 0, 64, 55
1, 277993, Note_off_c, 0, 60, 65
1, 277995, Control_c, 0, 64, 48
1, 278008, Note_off_c, 0, 57, 66
1, 278010, Control_c, 0, 64, 36
1, 278024, Control_c, 0, 64, 0
1, 278034, Note_on_c, 0, 69, 94
1, 278108, Note_on_c, 0, 60, 81
1, 278115, Note_on_c, 0, 57, 60
1, 278123, Note_off_c, 0, 69, 63
1, 278149, Note_off_c, 0, 60, 65
1, 278150, Note_off_c, 0, 57, 65
1, 278195, Note_on_c, 0, 53, 91
1, 278198, Note_on_c, 0, 41, 79
1, 278218, Control_c, 0, 64, 37
1, 278219, Note_off_c, 0, 53, 69
1, 278227, Note_off_c, 0, 41, 65
1, 278233, Control_c, 0, 64, 60
1, 278248, Control_c, 0, 64, 68
1, 278263, Control_c, 0, 64, 78
1, 278278, Control_c, 0, 64, 99
1, 278279, Note_on_c, 0, 41, 73
1, 278281, Note_on_c, 0, 53, 85
1, 278293, Control_c, 0, 64, 127
1, 278306, Note_off_c, 0, 41, 66
1, 278308, Note_off_c, 0, 53, 66
1, 278337, Control_c, 0, 64, 109
1, 278352, Control_c, 0, 64, 99
1, 278356, Note_on_c, 0, 56, 78
1, 278363, Note_on_c, 0, 59, 81
1, 278367, Control_c, 0, 64, 94
1, 278382, Control_c, 0, 64, 88
1, 278390, Note_off_c, 0, 56, 69
1, 278396, Note_off_c, 0, 59, 63
1, 278403, Control_c, 0, 64, 83
1, 278418, Control_c, 0, 64, 79
1, 278433, Control_c, 0, 64, 76
1, 278435, Note_on_c, 0, 59, 83
1, 278448, Control_c, 0, 64, 73
1, 278462, Note_off_c, 0, 59, 66
1, 278462, Control_c, 0, 64, 71
1, 278477, Control_c, 0, 64, 70
1, 278492, Control_c, 0, 64, 67
1, 278504, Note_on_c, 0, 55, 78
1, 278507, Control_c, 0, 64, 66
1, 278513, Note_on_c, 0, 58, 67
1, 278522, Control_c, 0, 64, 64
1, 278532, Note_off_c, 0, 55, 67
1, 278532, Note_off_c, 0, 58, 64
1, 278537, Control_c, 0, 64, 63
1, 278552, Control_c, 0, 64, 61
1, 278567, Control_c, 0, 64, 59
1, 278582, Control_c, 0, 64, 58
1, 278585, Note_on_c, 0, 58, 86
1, 278585, Note_on_c, 0, 55, 73
1, 278596, Control_c, 0, 64, 57
1, 278611, Control_c, 0, 64, 55
1, 278613, Note_off_c, 0, 58, 64
1, 278614, Note_off_c, 0, 55, 68
1, 278626, Control_c, 0, 64, 51
1, 278640, Control_c, 0, 64, 46
1, 278655, Control_c, 0, 64, 40
1, 278665, Note_on_c, 0, 67, 83
1, 278670, Control_c, 0, 64, 22
1, 278685, Control_c, 0, 64, 0
1, 278729, Note_on_c, 0, 58, 76
1, 278730, Note_off_c, 0, 67, 62
1, 278748, Note_on_c, 0, 55, 43
1, 278761, Note_off_c, 0, 58, 67
1, 278778, Note_off_c, 0, 55, 55
1, 278820, Note_on_c, 0, 53, 76
1, 278843, Note_on_c, 0, 41, 41
1, 278844, Note_on_c, 0, 40, 45
1, 278847, Control_c, 0, 64, 37
1, 278851, Note_off_c, 0, 53, 66
1, 278862, Control_c, 0, 64, 61
1, 278877, Control_c, 0, 64, 69
1, 278879, Note_off_c, 0, 40, 54
1, 278882, Note_off_c, 0, 41, 53
1, 278893, Control_c, 0, 64, 83
1, 278908, Control_c, 0, 64, 127
1, 278927, Note_on_c, 0, 53, 58
1, 278937, Note_on_c, 0, 41, 25
1, 278946, Note_off_c, 0, 53, 64
1, 278958, Note_on_c, 0, 52, 11
1, 278982, Note_off_c, 0, 41, 53
1, 278996, Note_on_c, 0, 57, 85
1, 279000, Note_off_c, 0, 52, 43
1, 279019, Note_off_c, 0, 57, 67
1, 279066, Note_on_c, 0, 57, 69
1, 279071, Control_c, 0, 64, 119
1, 279074, Poly_aftertouch_c, 0, 53, 127
1, 279084, Note_off_c, 0, 57, 67
1, 279085, Control_c, 0, 64, 72
1, 279100, Control_c, 0, 64, 32
1, 279106, Poly_aftertouch_c, 0, 53, 0
1, 279115, Control_c, 0, 64, 0
1, 279147, Note_on_c, 0, 55, 87
1, 279149, Note_on_c, 0, 51, 81
1, 279151, Note_on_c, 0, 43, 72
1, 279152, Control_c, 0, 64, 11
1, 279157, Note_on_c, 0, 46, 70
1, 279167, Control_c, 0, 64, 56
1, 279182, Control_c, 0, 64, 70
1, 279197, Control_c, 0, 64, 101
1, 279209, Note_off_c, 0, 55, 57
1, 279212, Control_c, 0, 64, 127
1, 279214, Note_off_c, 0, 51, 58
1, 279252, Note_on_c, 0, 55, 59
1, 279252, Note_on_c, 0, 51, 52
1, 279300, Note_on_c, 0, 58, 93
1, 279304, Note_on_c, 0, 70, 80
1, 279315, Note_on_c, 0, 63, 66
1, 279318, Note_off_c, 0, 43, 61
1, 279318, Note_off_c, 0, 46, 61
1, 279319, Note_off_c, 0, 55, 59
1, 279320, Note_off_c, 0, 51, 60
1, 279323, Note_on_c, 0, 67, 45
1, 279329, Note_off_c, 0, 70, 65
1, 279330, Note_off_c, 0, 58, 59
1, 279346, Note_off_c, 0, 63, 63
1, 279348, Note_off_c, 0, 67, 58
1, 279369, Note_on_c, 0, 58, 67
1, 279377, Note_on_c, 0, 70, 74
1, 279398, Poly_aftertouch_c, 0, 63, 127
1, 279400, Note_on_c, 0, 67, 57
1, 279418, Note_off_c, 0, 58, 62
1, 279419, Control_c, 0, 64, 69
1, 279425, Poly_aftertouch_c, 0, 63, 0
1, 279433, Note_off_c, 0, 67, 65
1, 279434, Control_c, 0, 64, 0
1, 279443, Note_off_c, 0, 70, 63
1, 279463, Note_on_c, 0, 57, 99
1, 279469, Note_on_c, 0, 45, 81
1, 279469, Note_on_c, 0, 53, 80
1, 279472, Note_on_c, 0, 50, 77
1, 279478, Control_c, 0, 64, 40
1, 279493, Control_c, 0, 64, 63
1, 279508, Control_c, 0, 64, 82
1, 279511, Note_off_c, 0, 57, 63
1, 279523, Control_c, 0, 64, 127
1, 279536, Note_off_c, 0, 53, 55
1, 279537, Note_off_c, 0, 45, 0
1, 279568, Note_on_c, 0, 57, 75
1, 279574, Poly_aftertouch_c, 0, 45, 127
1, 279585, Note_on_c, 0, 53, 30
1, 279610, Note_off_c, 0, 53, 55
1, 279610, Note_off_c, 0, 57, 65
1, 279617, Note_off_c, 0, 50, 64
1, 279618, Note_on_c, 0, 62, 92
1, 279622, Note_on_c, 0, 69, 85
1, 279624, Note_on_c, 0, 65, 74
1, 279634, Poly_aftertouch_c, 0, 45, 0
1, 279650, Note_off_c, 0, 62, 61
1, 279653, Note_off_c, 0, 65, 67
1, 279653, Note_off_c, 0, 69, 63
1, 279699, Note_on_c, 0, 62, 79
1, 279699, Note_on_c, 0, 69, 83
1, 279702, Note_on_c, 0, 65, 71
1, 279747, Note_off_c, 0, 62, 64
1, 279761, Note_off_c, 0, 65, 62
1, 279768, Note_off_c, 0, 69, 66
1, 279775, Control_c, 0, 64, 67
1, 279790, Control_c, 0, 64, 0
1, 279799, Note_on_c, 0, 45, 93
1, 279803, Note_on_c, 0, 33, 84
1, 279834, Control_c, 0, 64, 45
1, 279846, Note_off_c, 0, 45, 65
1, 279849, Note_off_c, 0, 33, 62
1, 279849, Control_c, 0, 64, 66
1, 279864, Control_c, 0, 64, 94
1, 279886, Control_c, 0, 64, 127
1, 279901, Note_on_c, 0, 33, 72
1, 279904, Note_on_c, 0, 45, 87
1, 279965, Note_on_c, 0, 73, 91
1, 279968, Note_on_c, 0, 64, 85
1, 279968, Note_off_c, 0, 33, 63
1, 279974, Note_on_c, 0, 69, 72
1, 279974, Note_on_c, 0, 67, 73
1, 279982, Note_off_c, 0, 45, 63
1, 280001, Note_off_c, 0, 64, 58
1, 280006, Note_off_c, 0, 67, 61
1, 280007, Note_off_c, 0, 69, 60
1, 280008, Note_off_c, 0, 73, 63
1, 280055, Note_on_c, 0, 73, 90
1, 280057, Note_on_c, 0, 64, 83
1, 280066, Note_on_c, 0, 69, 72
1, 280070, Note_on_c, 0, 67, 67
1, 280106, Note_off_c, 0, 64, 65
1, 280117, Note_off_c, 0, 67, 60
1, 280132, Note_off_c, 0, 69, 63
1, 280138, Control_c, 0, 64, 70
1, 280153, Control_c, 0, 64, 0
1, 280157, Note_off_c, 0, 73, 65
1, 280167, Note_on_c, 0, 50, 96
1, 280174, Note_on_c, 0, 38, 83
1, 280257, Control_c, 0, 64, 57
1, 280272, Note_off_c, 0, 38, 63
1, 280272, Control_c, 0, 64, 68
1, 280286, Control_c, 0, 64, 93
1, 280301, Control_c, 0, 64, 127
1, 280306, Note_off_c, 0, 50, 65
1, 280576, Note_on_c, 0, 62, 89
1, 280579, Note_on_c, 0, 50, 83
1, 280579, Note_on_c, 0, 77, 89
1, 280579, Note_on_c, 0, 86, 101
1, 280582, Note_on_c, 0, 74, 96
1, 280582, Note_on_c, 0, 57, 81
1, 280584, Note_on_c, 0, 53, 76
1, 280588, Note_on_c, 0, 81, 79
1, 280674, Note_off_c, 0, 50, 63
1, 280674, Note_off_c, 0, 62, 65
1, 280674, Note_off_c, 0, 74, 61
1, 280689, Note_off_c, 0, 53, 60
1, 280708, Note_off_c, 0, 57, 63
1, 280741, Note_off_c, 0, 77, 60
1, 280768, Note_off_c, 0, 81, 63
1, 280777, Note_off_c, 0, 86, 64
1, 281050, Control_c, 0, 64, 89
1, 281065, Control_c, 0, 64, 69
1, 281080, Control_c, 0, 64, 41
1, 281095, Control_c, 0, 64, 0
1, 281664, Note_on_c, 0, 53, 48
1, 281668, Note_on_c, 0, 57, 59
1, 281721, Note_off_c, 0, 53, 63
1, 281761, Note_on_c, 0, 61, 37
1, 281816, Note_off_c, 0, 61, 57
1, 281847, Note_on_c, 0, 62, 40
1, 281892, Note_off_c, 0, 62, 63
1, 281930, Note_on_c, 0, 64, 49
1, 281955, Note_off_c, 0, 64, 58
1, 282022, Note_on_c, 0, 65, 58
1, 282024, Note_on_c, 0, 47, 42
1, 282061, Note_off_c, 0, 65, 63
1, 282079, Note_off_c, 0, 47, 60
1, 282109, Note_on_c, 0, 69, 56
1, 282159, Note_off_c, 0, 69, 59
1, 282190, Note_on_c, 0, 67, 69
1, 282227, Note_off_c, 0, 67, 64
1, 282280, Note_on_c, 0, 65, 70
1, 282306, Note_off_c, 0, 65, 67
1, 282367, Note_on_c, 0, 64, 61
1, 282390, Note_on_c, 0, 52, 31
1, 282414, Note_off_c, 0, 64, 60
1, 282433, Note_off_c, 0, 52, 59
1, 282459, Note_on_c, 0, 71, 60
1, 282492, Note_off_c, 0, 71, 56
1, 282526, Note_on_c, 0, 74, 63
1, 282564, Note_off_c, 0, 74, 61
1, 282600, Note_on_c, 0, 77, 69
1, 282631, Note_off_c, 0, 77, 62
1, 282701, Note_on_c, 0, 76, 57
1, 282705, Note_on_c, 0, 56, 50
1, 282748, Note_off_c, 0, 76, 60
1, 282779, Note_on_c, 0, 74, 54
1, 282782, Note_off_c, 0, 57, 55
1, 282825, Note_off_c, 0, 74, 58
1, 282868, Note_on_c, 0, 71, 57
1, 282907, Note_off_c, 0, 71, 66
1, 282967, Note_on_c, 0, 64, 54
1, 283005, Note_off_c, 0, 64, 63
1, 283010, Note_off_c, 0, 56, 28
1, 283072, Note_on_c, 0, 62, 75
1, 283083, Note_on_c, 0, 58, 55
1, 283171, Note_off_c, 0, 58, 56
1, 283180, Note_on_c, 0, 66, 45
1, 283220, Note_off_c, 0, 66, 56
1, 283260, Note_on_c, 0, 67, 57
1, 283291, Note_off_c, 0, 67, 64
1, 283415, Note_on_c, 0, 52, 54
1, 283434, Note_on_c, 0, 70, 54
1, 283467, Note_off_c, 0, 70, 65
1, 283473, Note_off_c, 0, 52, 63
1, 283500, Note_on_c, 0, 74, 69
1, 283568, Note_off_c, 0, 74, 59
1, 283582, Note_on_c, 0, 72, 71
1, 283622, Note_off_c, 0, 72, 61
1, 283670, Note_on_c, 0, 70, 74
1, 283701, Note_off_c, 0, 70, 67
1, 283757, Note_on_c, 0, 69, 70
1, 283764, Note_on_c, 0, 57, 48
1, 283797, Note_off_c, 0, 69, 62
1, 283810, Note_off_c, 0, 57, 62
1, 283852, Note_on_c, 0, 76, 66
1, 283897, Note_off_c, 0, 76, 48
1, 283918, Note_on_c, 0, 79, 75
1, 283958, Note_off_c, 0, 79, 62
1, 284013, Note_on_c, 0, 82, 71
1, 284046, Note_off_c, 0, 82, 57
1, 284098, Note_on_c, 0, 61, 50
1, 284123, Note_on_c, 0, 81, 48
1, 284153, Note_off_c, 0, 62, 54
1, 284159, Note_off_c, 0, 81, 65
1, 284174, Note_on_c, 0, 79, 63
1, 284217, Note_off_c, 0, 79, 63
1, 284262, Note_on_c, 0, 76, 66
1, 284293, Note_off_c, 0, 76, 67
1, 284349, Note_on_c, 0, 69, 64
1, 284374, Note_off_c, 0, 61, 29
1, 284395, Note_off_c, 0, 69, 58
1, 284445, Note_on_c, 0, 65, 74
1, 284458, Note_on_c, 0, 62, 51
1, 284539, Note_off_c, 0, 62, 60
1, 284545, Note_on_c, 0, 68, 47
1, 284578, Note_off_c, 0, 68, 58
1, 284621, Note_on_c, 0, 69, 59
1, 284639, Note_off_c, 0, 69, 62
1, 284699, Note_on_c, 0, 71, 65
1, 284731, Note_off_c, 0, 71, 63
1, 284778, Note_on_c, 0, 64, 76
1, 284786, Note_on_c, 0, 57, 57
1, 284791, Note_on_c, 0, 73, 66
1, 284823, Note_off_c, 0, 73, 66
1, 284859, Note_off_c, 0, 57, 57
1, 284870, Note_on_c, 0, 76, 69
1, 284878, Note_off_c, 0, 65, 57
1, 284901, Note_off_c, 0, 76, 62
1, 284944, Note_on_c, 0, 79, 79
1, 284994, Note_off_c, 0, 79, 62
1, 285023, Note_on_c, 0, 85, 81
1, 285053, Note_off_c, 0, 85, 66
1, 285134, Note_on_c, 0, 58, 48
1, 285135, Note_on_c, 0, 62, 73
1, 285182, Note_off_c, 0, 64, 63
1, 285207, Note_off_c, 0, 58, 62
1, 285234, Note_on_c, 0, 64, 61
1, 285277, Note_off_c, 0, 64, 61
1, 285305, Note_on_c, 0, 65, 57
1, 285351, Note_off_c, 0, 65, 62
1, 285381, Note_on_c, 0, 67, 66
1, 285413, Note_off_c, 0, 67, 66
1, 285453, Note_on_c, 0, 53, 48
1, 285461, Note_on_c, 0, 60, 58
1, 285477, Note_on_c, 0, 69, 66
1, 285513, Note_off_c, 0, 69, 63
1, 285536, Note_off_c, 0, 53, 58
1, 285542, Note_off_c, 0, 62, 58
1, 285560, Note_on_c, 0, 72, 53
1, 285601, Note_off_c, 0, 72, 62
1, 285632, Note_on_c, 0, 75, 57
1, 285679, Note_off_c, 0, 75, 56
1, 285707, Note_on_c, 0, 81, 55
1, 285710, Note_off_c, 0, 60, 64
1, 285739, Note_off_c, 0, 81, 67
1, 285814, Note_on_c, 0, 55, 44
1, 285814, Note_on_c, 0, 60, 67
1, 285883, Note_off_c, 0, 55, 61
1, 285912, Note_on_c, 0, 62, 51
1, 285974, Note_off_c, 0, 62, 51
1, 286002, Note_on_c, 0, 64, 45
1, 286040, Note_off_c, 0, 64, 59
1, 286070, Note_on_c, 0, 66, 59
1, 286103, Note_off_c, 0, 66, 64
1, 286156, Note_on_c, 0, 52, 42
1, 286171, Note_on_c, 0, 67, 54
1, 286174, Note_on_c, 0, 58, 57
1, 286209, Note_off_c, 0, 67, 62
1, 286234, Note_off_c, 0, 52, 60
1, 286245, Note_on_c, 0, 70, 61
1, 286281, Note_off_c, 0, 70, 61
1, 286314, Note_off_c, 0, 60, 62
1, 286327, Note_on_c, 0, 76, 64
1, 286387, Note_off_c, 0, 76, 60
1, 286407, Note_on_c, 0, 74, 59
1, 286443, Note_off_c, 0, 74, 60
1, 286487, Note_on_c, 0, 57, 50
1, 286505, Note_on_c, 0, 73, 57
1, 286548, Note_off_c, 0, 73, 59
1, 286584, Note_off_c, 0, 58, 58
1, 286585, Note_on_c, 0, 76, 54
1, 286631, Note_off_c, 0, 76, 62
1, 286678, Note_on_c, 0, 79, 58
1, 286734, Note_off_c, 0, 79, 60
1, 286750, Note_on_c, 0, 76, 61
1, 286816, Note_off_c, 0, 76, 63
1, 286839, Note_on_c, 0, 73, 63
1, 286887, Note_off_c, 0, 73, 56
1, 286928, Note_on_c, 0, 69, 56
1, 286956, Note_off_c, 0, 69, 64
1, 287006, Note_on_c, 0, 67, 61
1, 287053, Note_off_c, 0, 67, 55
1, 287079, Note_on_c, 0, 64, 63
1, 287108, Note_off_c, 0, 64, 66
1, 287110, Note_off_c, 0, 57, 37
1, 287197, Note_on_c, 0, 57, 87
1, 287205, Note_on_c, 0, 53, 64
1, 287274, Note_off_c, 0, 53, 56
1, 287296, Note_on_c, 0, 61, 57
1, 287351, Note_off_c, 0, 61, 57
1, 287365, Note_on_c, 0, 62, 64
1, 287419, Note_off_c, 0, 62, 60
1, 287453, Note_on_c, 0, 64, 65
1, 287483, Note_off_c, 0, 64, 65
1, 287552, Note_on_c, 0, 65, 66
1, 287557, Note_on_c, 0, 47, 49
1, 287594, Note_off_c, 0, 65, 60
1, 287601, Note_off_c, 0, 47, 63
1, 287641, Note_on_c, 0, 69, 71
1, 287693, Note_off_c, 0, 69, 60
1, 287724, Note_on_c, 0, 67, 72
1, 287761, Note_off_c, 0, 67, 64
1, 287804, Note_on_c, 0, 65, 78
1, 287835, Note_off_c, 0, 65, 65
1, 287902, Note_on_c, 0, 52, 56
1, 287906, Note_on_c, 0, 64, 70
1, 287960, Note_off_c, 0, 64, 60
1, 287970, Note_off_c, 0, 52, 62
1, 287992, Note_on_c, 0, 71, 68
1, 288024, Note_off_c, 0, 71, 62
1, 288077, Note_on_c, 0, 74, 64
1, 288115, Note_off_c, 0, 74, 61
1, 288153, Note_on_c, 0, 77, 68
1, 288185, Note_off_c, 0, 77, 63
1, 288246, Note_on_c, 0, 76, 63
1, 288261, Note_on_c, 0, 56, 52
1, 288296, Note_off_c, 0, 76, 58
1, 288329, Note_on_c, 0, 74, 54
1, 288339, Note_off_c, 0, 57, 53
1, 288371, Note_off_c, 0, 74, 59
1, 288430, Note_on_c, 0, 71, 47
1, 288460, Note_off_c, 0, 71, 64
1, 288531, Note_on_c, 0, 64, 46
1, 288537, Note_off_c, 0, 56, 35
1, 288577, Note_off_c, 0, 64, 61
1, 288617, Note_on_c, 0, 55, 50
1, 288618, Note_on_c, 0, 51, 42
1, 288702, Note_off_c, 0, 51, 61
1, 288741, Note_on_c, 0, 59, 40
1, 288775, Note_off_c, 0, 59, 53
1, 288808, Note_on_c, 0, 60, 53
1, 288836, Note_off_c, 0, 60, 64
1, 288899, Note_on_c, 0, 62, 48
1, 288933, Note_off_c, 0, 62, 64
1, 288993, Note_on_c, 0, 45, 34
1, 289003, Note_on_c, 0, 63, 22
1, 289029, Note_off_c, 0, 45, 60
1, 289034, Note_off_c, 0, 63, 47
1, 289059, Note_on_c, 0, 67, 55
1, 289122, Note_off_c, 0, 67, 56
1, 289153, Note_on_c, 0, 65, 54
1, 289193, Note_off_c, 0, 65, 64
1, 289234, Note_on_c, 0, 63, 54
1, 289267, Note_off_c, 0, 63, 64
1, 289315, Note_on_c, 0, 62, 60
1, 289322, Note_on_c, 0, 50, 46
1, 289349, Note_off_c, 0, 62, 65
1, 289395, Note_off_c, 0, 50, 62
1, 289401, Note_on_c, 0, 69, 61
1, 289438, Note_off_c, 0, 69, 59
1, 289477, Note_on_c, 0, 72, 62
1, 289513, Note_off_c, 0, 72, 64
1, 289560, Note_on_c, 0, 75, 65
1, 289607, Note_off_c, 0, 75, 49
1, 289664, Note_on_c, 0, 54, 43
1, 289671, Note_on_c, 0, 74, 50
1, 289706, Note_off_c, 0, 55, 57
1, 289715, Note_off_c, 0, 74, 58
1, 289747, Note_on_c, 0, 72, 52
1, 289789, Note_off_c, 0, 72, 61
1, 289844, Note_on_c, 0, 69, 46
1, 289869, Note_off_c, 0, 69, 61
1, 289927, Note_on_c, 0, 62, 46
1, 289954, Note_off_c, 0, 54, 51
1, 289969, Note_off_c, 0, 62, 61
1, 290024, Note_on_c, 0, 58, 68
1, 290029, Note_on_c, 0, 55, 48
1, 290082, Note_off_c, 0, 55, 60
1, 290115, Note_on_c, 0, 61, 47
1, 290164, Note_off_c, 0, 61, 57
1, 290201, Note_on_c, 0, 62, 58
1, 290233, Note_off_c, 0, 62, 65
1, 290291, Note_on_c, 0, 64, 59
1, 290326, Note_off_c, 0, 64, 62
1, 290370, Note_on_c, 0, 57, 78
1, 290379, Note_on_c, 0, 50, 52
1, 290386, Note_on_c, 0, 66, 60
1, 290419, Note_off_c, 0, 66, 64
1, 290428, Note_off_c, 0, 50, 61
1, 290461, Note_on_c, 0, 69, 69
1, 290500, Note_off_c, 0, 58, 62
1, 290504, Note_off_c, 0, 69, 59
1, 290537, Note_on_c, 0, 72, 68
1, 290580, Note_off_c, 0, 72, 57
1, 290625, Note_on_c, 0, 77, 70
1, 290653, Note_off_c, 0, 77, 67
1, 290712, Note_on_c, 0, 55, 79
1, 290717, Note_on_c, 0, 46, 63
1, 290764, Note_off_c, 0, 57, 64
1, 290794, Note_off_c, 0, 46, 59
1, 290814, Note_on_c, 0, 57, 62
1, 290863, Note_off_c, 0, 57, 53
1, 290884, Note_on_c, 0, 58, 65
1, 290955, Note_off_c, 0, 58, 55
1, 290960, Note_on_c, 0, 60, 72
1, 291001, Note_off_c, 0, 60, 64
1, 291065, Note_on_c, 0, 53, 79
1, 291071, Note_on_c, 0, 62, 62
1, 291091, Note_on_c, 0, 47, 46
1, 291122, Note_off_c, 0, 62, 57
1, 291148, Note_on_c, 0, 65, 65
1, 291154, Note_off_c, 0, 55, 60
1, 291165, Note_off_c, 0, 47, 54
1, 291215, Note_off_c, 0, 65, 57
1, 291232, Note_on_c, 0, 68, 62
1, 291295, Note_off_c, 0, 68, 60
1, 291304, Note_on_c, 0, 74, 63
1, 291335, Note_off_c, 0, 74, 65
1, 291373, Note_off_c, 0, 53, 63
1, 291433, Note_on_c, 0, 53, 78
1, 291452, Note_on_c, 0, 48, 53
1, 291519, Note_on_c, 0, 54, 61
1, 291574, Note_off_c, 0, 48, 36
1, 291587, Note_off_c, 0, 54, 61
1, 291605, Note_on_c, 0, 55, 64
1, 291645, Note_off_c, 0, 55, 55
1, 291684, Note_on_c, 0, 57, 62
1, 291720, Note_off_c, 0, 57, 64
1, 291775, Note_on_c, 0, 58, 69
1, 291779, Note_on_c, 0, 52, 75
1, 291839, Note_off_c, 0, 58, 62
1, 291859, Note_on_c, 0, 62, 70
1, 291912, Note_off_c, 0, 53, 53
1, 291931, Note_off_c, 0, 62, 49
1, 291945, Note_on_c, 0, 60, 78
1, 292006, Note_off_c, 0, 60, 64
1, 292023, Note_on_c, 0, 58, 77
1, 292068, Note_off_c, 0, 58, 57
1, 292116, Note_on_c, 0, 53, 78
1, 292121, Note_on_c, 0, 57, 68
1, 292123, Note_on_c, 0, 41, 62
1, 292170, Note_off_c, 0, 52, 60
1, 292177, Note_off_c, 0, 57, 60
1, 292213, Note_on_c, 0, 60, 61
1, 292240, Note_off_c, 0, 41, 54
1, 292278, Note_off_c, 0, 60, 64
1, 292290, Note_on_c, 0, 65, 56
1, 292360, Note_off_c, 0, 65, 62
1, 292365, Note_on_c, 0, 68, 72
1, 292415, Note_off_c, 0, 68, 63
1, 292467, Note_on_c, 0, 69, 76
1, 292526, Note_off_c, 0, 69, 60
1, 292533, Note_on_c, 0, 72, 81
1, 292535, Control_c, 0, 64, 45
1, 292550, Control_c, 0, 64, 60
1, 292562, Note_off_c, 0, 53, 63
1, 292564, Control_c, 0, 64, 67
1, 292579, Control_c, 0, 64, 76
1, 292594, Control_c, 0, 64, 88
1, 292605, Note_off_c, 0, 72, 60
1, 292609, Control_c, 0, 64, 95
1, 292626, Note_on_c, 0, 77, 85
1, 292631, Control_c, 0, 64, 94
1, 292646, Control_c, 0, 64, 90
1, 292661, Control_c, 0, 64, 85
1, 292675, Control_c, 0, 64, 81
1, 292678, Note_off_c, 0, 77, 60
1, 292690, Control_c, 0, 64, 79
1, 292705, Control_c, 0, 64, 78
1, 292715, Note_on_c, 0, 81, 88
1, 292720, Control_c, 0, 64, 76
1, 292735, Control_c, 0, 64, 74
1, 292750, Control_c, 0, 64, 71
1, 292765, Control_c, 0, 64, 69
1, 292773, Note_off_c, 0, 81, 65
1, 292779, Control_c, 0, 64, 67
1, 292794, Control_c, 0, 64, 66
1, 292809, Control_c, 0, 64, 65
1, 292824, Control_c, 0, 64, 64
1, 292839, Control_c, 0, 64, 62
1, 292853, Control_c, 0, 64, 61
1, 292856, Note_on_c, 0, 60, 84
1, 292857, Note_on_c, 0, 79, 80
1, 292868, Control_c, 0, 64, 60
1, 292873, Note_on_c, 0, 52, 58
1, 292898, Control_c, 0, 64, 60
1, 292912, Control_c, 0, 64, 59
1, 292917, Note_off_c, 0, 79, 64
1, 292922, Note_off_c, 0, 52, 59
1, 292927, Control_c, 0, 64, 58
1, 292942, Control_c, 0, 64, 57
1, 292946, Note_on_c, 0, 76, 76
1, 292957, Control_c, 0, 64, 57
1, 292971, Control_c, 0, 64, 56
1, 292976, Note_off_c, 0, 76, 65
1, 292986, Control_c, 0, 64, 55
1, 293001, Control_c, 0, 64, 53
1, 293016, Control_c, 0, 64, 51
1, 293031, Control_c, 0, 64, 49
1, 293045, Control_c, 0, 64, 48
1, 293047, Note_on_c, 0, 72, 69
1, 293075, Control_c, 0, 64, 48
1, 293087, Note_off_c, 0, 72, 55
1, 293090, Control_c, 0, 64, 47
1, 293105, Control_c, 0, 64, 45
1, 293120, Control_c, 0, 64, 44
1, 293123, Note_on_c, 0, 70, 76
1, 293134, Control_c, 0, 64, 43
1, 293149, Control_c, 0, 64, 41
1, 293164, Control_c, 0, 64, 40
1, 293179, Control_c, 0, 64, 38
1, 293192, Note_off_c, 0, 70, 50
1, 293194, Control_c, 0, 64, 35
1, 293209, Control_c, 0, 64, 32
1, 293218, Note_on_c, 0, 67, 70
1, 293224, Control_c, 0, 64, 30
1, 293230, Note_on_c, 0, 48, 49
1, 293238, Control_c, 0, 64, 27
1, 293253, Control_c, 0, 64, 22
1, 293269, Control_c, 0, 64, 16
1, 293270, Note_off_c, 0, 48, 64
1, 293279, Note_off_c, 0, 67, 62
1, 293284, Control_c, 0, 64, 0
1, 293303, Note_on_c, 0, 64, 61
1, 293355, Note_off_c, 0, 64, 53
1, 293395, Note_on_c, 0, 67, 63
1, 293444, Note_off_c, 0, 67, 60
1, 293452, Note_on_c, 0, 70, 61
1, 293489, Note_off_c, 0, 70, 63
1, 293543, Control_c, 0, 64, 13
1, 293558, Control_c, 0, 64, 39
1, 293573, Control_c, 0, 64, 56
1, 293576, Note_on_c, 0, 53, 47
1, 293588, Control_c, 0, 64, 63
1, 293602, Control_c, 0, 64, 70
1, 293617, Control_c, 0, 64, 84
1, 293618, Note_off_c, 0, 60, 60
1, 293632, Control_c, 0, 64, 127
1, 293665, Note_on_c, 0, 69, 51
1, 293668, Note_off_c, 0, 53, 63
1, 293758, Note_off_c, 0, 69, 57
1, 293776, Note_on_c, 0, 67, 48
1, 293855, Note_on_c, 0, 65, 39
1, 293863, Note_off_c, 0, 67, 37
1, 293927, Control_c, 0, 64, 122
1, 293942, Control_c, 0, 64, 109
1, 293957, Control_c, 0, 64, 102
1, 293964, Note_on_c, 0, 59, 64
1, 293965, Note_on_c, 0, 43, 41
1, 293972, Control_c, 0, 64, 96
1, 293976, Note_off_c, 0, 65, 56
1, 293979, Note_on_c, 0, 31, 31
1, 293986, Control_c, 0, 64, 89
1, 294001, Control_c, 0, 64, 80
1, 294016, Control_c, 0, 64, 70
1, 294031, Control_c, 0, 64, 59
1, 294046, Control_c, 0, 64, 48
1, 294047, Note_on_c, 0, 62, 41
1, 294062, Control_c, 0, 64, 47
1, 294076, Control_c, 0, 64, 49
1, 294091, Control_c, 0, 64, 52
1, 294106, Control_c, 0, 64, 56
1, 294128, Control_c, 0, 64, 61
1, 294143, Control_c, 0, 64, 63
1, 294154, Note_on_c, 0, 68, 49
1, 294158, Control_c, 0, 64, 65
1, 294172, Control_c, 0, 64, 68
1, 294187, Control_c, 0, 64, 71
1, 294202, Control_c, 0, 64, 76
1, 294217, Control_c, 0, 64, 83
1, 294231, Control_c, 0, 64, 90
1, 294246, Control_c, 0, 64, 98
1, 294249, Note_on_c, 0, 65, 47
1, 294256, Note_off_c, 0, 31, 36
1, 294261, Note_off_c, 0, 59, 51
1, 294261, Control_c, 0, 64, 106
1, 294276, Control_c, 0, 64, 125
1, 294291, Control_c, 0, 64, 127
1, 294294, Note_off_c, 0, 62, 30
1, 294296, Note_off_c, 0, 43, 34
1, 294354, Note_on_c, 0, 59, 84
1, 294360, Note_on_c, 0, 43, 44
1, 294369, Note_on_c, 0, 31, 48
1, 294404, Note_off_c, 0, 65, 55
1, 294407, Note_off_c, 0, 68, 34
1, 294440, Note_on_c, 0, 62, 53
1, 294515, Note_on_c, 0, 68, 62
1, 294522, Note_off_c, 0, 31, 35
1, 294557, Note_off_c, 0, 43, 37
1, 294604, Note_off_c, 0, 59, 56
1, 294611, Note_on_c, 0, 65, 59
1, 294657, Note_off_c, 0, 62, 53
1, 294715, Note_on_c, 0, 59, 88
1, 294727, Note_on_c, 0, 43, 63
1, 294733, Note_on_c, 0, 31, 55
1, 294750, Note_off_c, 0, 68, 22
1, 294771, Note_off_c, 0, 65, 57
1, 294806, Note_on_c, 0, 62, 53
1, 294810, Note_off_c, 0, 31, 54
1, 294886, Note_off_c, 0, 43, 60
1, 294888, Note_on_c, 0, 68, 68
1, 294995, Note_off_c, 0, 59, 54
1, 295006, Note_on_c, 0, 65, 51
1, 295055, Control_c, 0, 64, 115
1, 295070, Control_c, 0, 64, 110
1, 295085, Control_c, 0, 64, 104
1, 295087, Note_off_c, 0, 68, 37
1, 295092, Note_off_c, 0, 62, 35
1, 295100, Control_c, 0, 64, 99
1, 295111, Note_on_c, 0, 59, 83
1, 295114, Control_c, 0, 64, 93
1, 295115, Note_on_c, 0, 48, 61
1, 295120, Note_on_c, 0, 36, 57
1, 295129, Control_c, 0, 64, 86
1, 295144, Control_c, 0, 64, 74
1, 295159, Control_c, 0, 64, 63
1, 295165, Note_off_c, 0, 65, 38
1, 295173, Control_c, 0, 64, 33
1, 295188, Control_c, 0, 64, 0
1, 295224, Note_on_c, 0, 62, 57
1, 295248, Control_c, 0, 64, 17
1, 295263, Control_c, 0, 64, 45
1, 295275, Note_on_c, 0, 68, 62
1, 295278, Control_c, 0, 64, 59
1, 295293, Control_c, 0, 64, 66
1, 295308, Control_c, 0, 64, 73
1, 295318, Note_off_c, 0, 36, 58
1, 295322, Control_c, 0, 64, 91
1, 295337, Control_c, 0, 64, 127
1, 295367, Note_off_c, 0, 59, 58
1, 295367, Note_on_c, 0, 65, 65
1, 295372, Note_off_c, 0, 68, 60
1, 295381, Note_off_c, 0, 48, 61
1, 295415, Note_off_c, 0, 62, 58
1, 295457, Note_off_c, 0, 65, 63
1, 295470, Control_c, 0, 64, 122
1, 295485, Control_c, 0, 64, 105
1, 295488, Note_on_c, 0, 60, 89
1, 295500, Control_c, 0, 64, 97
1, 295514, Control_c, 0, 64, 92
1, 295529, Control_c, 0, 64, 89
1, 295544, Control_c, 0, 64, 87
1, 295558, Control_c, 0, 64, 85
1, 295573, Control_c, 0, 64, 83
1, 295576, Note_on_c, 0, 64, 85
1, 295588, Control_c, 0, 64, 81
1, 295603, Control_c, 0, 64, 79
1, 295607, Note_off_c, 0, 60, 63
1, 295626, Control_c, 0, 64, 77
1, 295640, Control_c, 0, 64, 76
1, 295655, Control_c, 0, 64, 75
1, 295670, Note_on_c, 0, 67, 80
1, 295671, Control_c, 0, 64, 74
1, 295686, Control_c, 0, 64, 73
1, 295701, Control_c, 0, 64, 72
1, 295703, Note_off_c, 0, 64, 60
1, 295716, Control_c, 0, 64, 70
1, 295731, Control_c, 0, 64, 68
1, 295734, Note_on_c, 0, 72, 85
1, 295743, Note_off_c, 0, 67, 64
1, 295745, Control_c, 0, 64, 67
1, 295760, Control_c, 0, 64, 65
1, 295774, Note_off_c, 0, 72, 66
1, 295775, Control_c, 0, 64, 64
1, 295789, Control_c, 0, 64, 64
1, 295804, Control_c, 0, 64, 63
1, 295819, Control_c, 0, 64, 61
1, 295834, Control_c, 0, 64, 60
1, 295849, Control_c, 0, 64, 59
1, 295863, Control_c, 0, 64, 58
1, 295871, Note_on_c, 0, 62, 91
1, 295878, Control_c, 0, 64, 57
1, 295880, Note_on_c, 0, 58, 58
1, 295893, Control_c, 0, 64, 56
1, 295908, Control_c, 0, 64, 53
1, 295923, Control_c, 0, 64, 52
1, 295937, Control_c, 0, 64, 50
1, 295952, Control_c, 0, 64, 49
1, 295966, Control_c, 0, 64, 47
1, 295968, Note_on_c, 0, 86, 75
1, 295981, Control_c, 0, 64, 44
1, 295990, Note_off_c, 0, 58, 59
1, 295995, Control_c, 0, 64, 41
1, 296010, Control_c, 0, 64, 39
1, 296025, Control_c, 0, 64, 38
1, 296031, Note_off_c, 0, 86, 64
1, 296040, Control_c, 0, 64, 37
1, 296044, Note_on_c, 0, 82, 70
1, 296055, Control_c, 0, 64, 35
1, 296069, Control_c, 0, 64, 33
1, 296084, Control_c, 0, 64, 30
1, 296097, Note_off_c, 0, 82, 57
1, 296099, Control_c, 0, 64, 29
1, 296114, Control_c, 0, 64, 27
1, 296129, Note_on_c, 0, 79, 71
1, 296129, Control_c, 0, 64, 25
1, 296143, Control_c, 0, 64, 23
1, 296158, Note_off_c, 0, 79, 65
1, 296158, Control_c, 0, 64, 22
1, 296173, Control_c, 0, 64, 22
1, 296202, Control_c, 0, 64, 21
1, 296227, Note_on_c, 0, 74, 64
1, 296238, Note_on_c, 0, 52, 49
1, 296258, Note_off_c, 0, 74, 66
1, 296306, Note_off_c, 0, 52, 61
1, 296317, Note_on_c, 0, 70, 60
1, 296394, Note_off_c, 0, 70, 56
1, 296405, Note_on_c, 0, 67, 56
1, 296449, Note_off_c, 0, 67, 61
1, 296499, Note_on_c, 0, 64, 45
1, 296507, Control_c, 0, 64, 22
1, 296522, Control_c, 0, 64, 25
1, 296537, Control_c, 0, 64, 31
1, 296551, Note_off_c, 0, 64, 59
1, 296552, Control_c, 0, 64, 40
1, 296566, Control_c, 0, 64, 48
1, 296577, Note_on_c, 0, 57, 49
1, 296581, Control_c, 0, 64, 55
1, 296596, Control_c, 0, 64, 60
1, 296610, Control_c, 0, 64, 64
1, 296625, Control_c, 0, 64, 69
1, 296640, Control_c, 0, 64, 82
1, 296641, Note_off_c, 0, 62, 60
1, 296655, Control_c, 0, 64, 127
1, 296661, Note_on_c, 0, 70, 52
1, 296677, Note_off_c, 0, 57, 63
1, 296754, Note_on_c, 0, 69, 57
1, 296787, Note_off_c, 0, 70, 48
1, 296849, Note_on_c, 0, 67, 43
1, 296901, Note_off_c, 0, 69, 33
1, 296907, Control_c, 0, 64, 125
1, 296922, Control_c, 0, 64, 87
1, 296935, Note_on_c, 0, 45, 41
1, 296937, Control_c, 0, 64, 69
1, 296941, Note_on_c, 0, 61, 67
1, 296949, Note_on_c, 0, 33, 27
1, 296952, Control_c, 0, 64, 55
1, 296966, Control_c, 0, 64, 29
1, 296981, Control_c, 0, 64, 31
1, 296996, Note_off_c, 0, 67, 37
1, 296996, Control_c, 0, 64, 41
1, 297010, Control_c, 0, 64, 51
1, 297025, Control_c, 0, 64, 56
1, 297040, Control_c, 0, 64, 60
1, 297055, Control_c, 0, 64, 63
1, 297064, Note_on_c, 0, 64, 50
1, 297070, Control_c, 0, 64, 66
1, 297084, Control_c, 0, 64, 69
1, 297099, Control_c, 0, 64, 76
1, 297122, Control_c, 0, 64, 85
1, 297136, Control_c, 0, 64, 96
1, 297144, Note_on_c, 0, 70, 50
1, 297151, Control_c, 0, 64, 112
1, 297166, Control_c, 0, 64, 127
1, 297218, Note_off_c, 0, 61, 59
1, 297224, Note_off_c, 0, 45, 58
1, 297226, Note_on_c, 0, 67, 54
1, 297248, Note_off_c, 0, 33, 37
1, 297270, Note_off_c, 0, 64, 58
1, 297286, Note_off_c, 0, 70, 34
1, 297305, Note_on_c, 0, 33, 44
1, 297309, Note_on_c, 0, 45, 56
1, 297309, Note_on_c, 0, 61, 84
1, 297356, Note_off_c, 0, 67, 55
1, 297424, Note_on_c, 0, 64, 52
1, 297501, Note_on_c, 0, 70, 62
1, 297516, Note_off_c, 0, 33, 35
1, 297519, Note_off_c, 0, 45, 49
1, 297559, Note_off_c, 0, 61, 57
1, 297582, Note_on_c, 0, 67, 59
1, 297622, Note_off_c, 0, 70, 54
1, 297638, Note_off_c, 0, 64, 55
1, 297687, Note_on_c, 0, 61, 91
1, 297697, Note_on_c, 0, 45, 66
1, 297701, Note_on_c, 0, 33, 58
1, 297745, Note_off_c, 0, 67, 58
1, 297809, Note_on_c, 0, 64, 56
1, 297848, Note_off_c, 0, 33, 36
1, 297908, Note_on_c, 0, 70, 65
1, 297921, Note_off_c, 0, 45, 50
1, 297993, Note_on_c, 0, 67, 51
1, 298002, Note_off_c, 0, 61, 53
1, 298053, Note_off_c, 0, 64, 33
1, 298079, Control_c, 0, 64, 122
1, 298094, Control_c, 0, 64, 115
1, 298109, Control_c, 0, 64, 112
1, 298119, Note_off_c, 0, 70, 31
1, 298124, Note_on_c, 0, 46, 58
1, 298124, Control_c, 0, 64, 108
1, 298125, Note_on_c, 0, 34, 55
1, 298130, Note_on_c, 0, 61, 82
1, 298138, Control_c, 0, 64, 105
1, 298153, Control_c, 0, 64, 101
1, 298168, Note_off_c, 0, 67, 55
1, 298168, Control_c, 0, 64, 94
1, 298183, Control_c, 0, 64, 85
1, 298198, Control_c, 0, 64, 76
1, 298213, Control_c, 0, 64, 66
1, 298228, Control_c, 0, 64, 51
1, 298243, Control_c, 0, 64, 25
1, 298257, Control_c, 0, 64, 14
1, 298272, Control_c, 0, 64, 13
1, 298276, Note_on_c, 0, 64, 45
1, 298317, Control_c, 0, 64, 15
1, 298331, Control_c, 0, 64, 29
1, 298342, Note_on_c, 0, 70, 52
1, 298346, Control_c, 0, 64, 45
1, 298361, Control_c, 0, 64, 57
1, 298376, Control_c, 0, 64, 63
1, 298384, Note_off_c, 0, 34, 54
1, 298390, Control_c, 0, 64, 68
1, 298405, Control_c, 0, 64, 79
1, 298420, Control_c, 0, 64, 98
1, 298423, Note_off_c, 0, 46, 58
1, 298435, Control_c, 0, 64, 127
1, 298468, Note_on_c, 0, 67, 50
1, 298472, Note_off_c, 0, 61, 53
1, 298494, Control_c, 0, 64, 113
1, 298500, Note_off_c, 0, 70, 38
1, 298509, Control_c, 0, 64, 106
1, 298520, Note_off_c, 0, 64, 36
1, 298524, Control_c, 0, 64, 101
1, 298539, Control_c, 0, 64, 96
1, 298550, Note_off_c, 0, 67, 55
1, 298554, Control_c, 0, 64, 92
1, 298557, Note_on_c, 0, 62, 77
1, 298569, Control_c, 0, 64, 88
1, 298584, Control_c, 0, 64, 84
1, 298606, Control_c, 0, 64, 78
1, 298621, Control_c, 0, 64, 71
1, 298636, Control_c, 0, 64, 64
1, 298651, Control_c, 0, 64, 53
1, 298665, Control_c, 0, 64, 45
1, 298680, Control_c, 0, 64, 46
1, 298682, Note_on_c, 0, 65, 65
1, 298695, Control_c, 0, 64, 51
1, 298710, Control_c, 0, 64, 56
1, 298725, Control_c, 0, 64, 60
1, 298739, Control_c, 0, 64, 64
1, 298754, Control_c, 0, 64, 67
1, 298766, Note_off_c, 0, 62, 54
1, 298769, Control_c, 0, 64, 71
1, 298771, Note_on_c, 0, 70, 61
1, 298783, Control_c, 0, 64, 78
1, 298798, Control_c, 0, 64, 83
1, 298813, Control_c, 0, 64, 85
1, 298828, Control_c, 0, 64, 84
1, 298843, Control_c, 0, 64, 83
1, 298849, Note_off_c, 0, 65, 59
1, 298853, Note_on_c, 0, 74, 65
1, 298859, Control_c, 0, 64, 81
1, 298874, Control_c, 0, 64, 79
1, 298885, Note_off_c, 0, 70, 62
1, 298887, Note_off_c, 0, 74, 63
1, 298888, Control_c, 0, 64, 77
1, 298903, Control_c, 0, 64, 75
1, 298918, Control_c, 0, 64, 73
1, 298933, Control_c, 0, 64, 71
1, 298948, Control_c, 0, 64, 70
1, 298962, Control_c, 0, 64, 68
1, 298977, Control_c, 0, 64, 67
1, 298992, Control_c, 0, 64, 65
1, 298997, Note_on_c, 0, 65, 71
1, 299006, Note_on_c, 0, 53, 56
1, 299007, Control_c, 0, 64, 64
1, 299022, Control_c, 0, 64, 62
1, 299037, Control_c, 0, 64, 61
1, 299052, Control_c, 0, 64, 61
1, 299066, Control_c, 0, 64, 58
1, 299081, Control_c, 0, 64, 55
1, 299096, Control_c, 0, 64, 52
1, 299110, Note_on_c, 0, 66, 47
1, 299111, Control_c, 0, 64, 51
1, 299117, Note_off_c, 0, 53, 59
1, 299126, Control_c, 0, 64, 51
1, 299141, Control_c, 0, 64, 49
1, 299155, Control_c, 0, 64, 47
1, 299170, Control_c, 0, 64, 46
1, 299183, Note_off_c, 0, 66, 63
1, 299185, Control_c, 0, 64, 45
1, 299200, Control_c, 0, 64, 44
1, 299204, Note_on_c, 0, 67, 51
1, 299227, Note_off_c, 0, 67, 58
1, 299244, Control_c, 0, 64, 44
1, 299259, Control_c, 0, 64, 43
1, 299282, Note_on_c, 0, 69, 62
1, 299333, Control_c, 0, 64, 43
1, 299334, Note_off_c, 0, 69, 51
1, 299380, Note_on_c, 0, 70, 49
1, 299424, Note_off_c, 0, 70, 63
1, 299445, Note_on_c, 0, 74, 54
1, 299534, Note_off_c, 0, 74, 59
1, 299540, Note_on_c, 0, 72, 52
1, 299583, Note_off_c, 0, 72, 63
1, 299624, Note_on_c, 0, 70, 25
1, 299655, Note_off_c, 0, 70, 48
1, 299689, Note_on_c, 0, 64, 53
1, 299713, Note_on_c, 0, 53, 40
1, 299781, Note_off_c, 0, 65, 39
1, 299802, Note_on_c, 0, 67, 27
1, 299821, Note_off_c, 0, 53, 55
1, 299853, Note_off_c, 0, 67, 47
1, 299865, Note_on_c, 0, 72, 52
1, 299925, Note_off_c, 0, 72, 59
1, 299949, Note_on_c, 0, 70, 44
1, 299982, Note_off_c, 0, 70, 61
1, 300026, Note_on_c, 0, 63, 65
1, 300046, Note_on_c, 0, 69, 53
1, 300089, Note_off_c, 0, 69, 61
1, 300126, Note_on_c, 0, 72, 61
1, 300148, Note_off_c, 0, 64, 59
1, 300189, Note_off_c, 0, 72, 61
1, 300204, Note_on_c, 0, 75, 62
1, 300280, Note_off_c, 0, 75, 61
1, 300280, Note_on_c, 0, 79, 67
1, 300314, Note_off_c, 0, 79, 63
1, 300392, Note_on_c, 0, 62, 66
1, 300399, Note_on_c, 0, 53, 44
1, 300441, Note_on_c, 0, 55, 14
1, 300474, Note_on_c, 0, 77, 67
1, 300494, Note_off_c, 0, 55, 27
1, 300510, Note_off_c, 0, 63, 62
1, 300526, Note_off_c, 0, 53, 50
1, 300553, Note_off_c, 0, 77, 62
1, 300565, Note_on_c, 0, 74, 65
1, 300631, Note_off_c, 0, 74, 63
1, 300642, Note_on_c, 0, 70, 65
1, 300688, Note_off_c, 0, 70, 58
1, 300723, Note_on_c, 0, 60, 72
1, 300766, Note_on_c, 0, 75, 71
1, 300786, Control_c, 0, 64, 42
1, 300839, Note_on_c, 0, 72, 64
1, 300841, Note_off_c, 0, 75, 61
1, 300882, Note_off_c, 0, 62, 57
1, 300915, Note_on_c, 0, 69, 78
1, 300937, Note_off_c, 0, 72, 64
1, 300941, Control_c, 0, 64, 42
1, 300986, Note_off_c, 0, 69, 61
1, 300988, Note_on_c, 0, 63, 76
1, 301051, Note_off_c, 0, 63, 62
1, 301092, Note_on_c, 0, 61, 85
1, 301104, Note_on_c, 0, 54, 69
1, 301119, Control_c, 0, 64, 41
1, 301156, Note_off_c, 0, 60, 56
1, 301185, Note_on_c, 0, 69, 59
1, 301192, Control_c, 0, 64, 41
1, 301211, Note_off_c, 0, 54, 62
1, 301261, Note_off_c, 0, 69, 60
1, 301269, Note_on_c, 0, 66, 71
1, 301347, Note_off_c, 0, 66, 62
1, 301350, Note_on_c, 0, 69, 72
1, 301386, Note_off_c, 0, 69, 64
1, 301458, Note_on_c, 0, 62, 84
1, 301465, Note_on_c, 0, 72, 70
1, 301508, Note_off_c, 0, 72, 60
1, 301543, Note_on_c, 0, 75, 73
1, 301627, Note_on_c, 0, 74, 80
1, 301642, Note_off_c, 0, 75, 60
1, 301670, Note_off_c, 0, 61, 49
1, 301676, Note_off_c, 0, 74, 63
1, 301710, Note_on_c, 0, 72, 72
1, 301758, Note_off_c, 0, 72, 62
1, 301802, Note_on_c, 0, 55, 57
1, 301805, Note_on_c, 0, 70, 82
1, 301838, Note_off_c, 0, 70, 62
1, 301853, Control_c, 0, 64, 41
1, 301884, Note_on_c, 0, 74, 74
1, 301931, Note_off_c, 0, 74, 59
1, 301952, Note_off_c, 0, 55, 37
1, 301977, Note_on_c, 0, 79, 75
1, 302016, Note_off_c, 0, 79, 63
1, 302042, Note_on_c, 0, 86, 76
1, 302086, Note_off_c, 0, 86, 59
1, 302095, Note_off_c, 0, 62, 61
1, 302158, Note_on_c, 0, 62, 75
1, 302166, Note_on_c, 0, 82, 69
1, 302227, Note_off_c, 0, 82, 59
1, 302246, Note_on_c, 0, 79, 67
1, 302274, Note_off_c, 0, 79, 66
1, 302334, Note_on_c, 0, 74, 63
1, 302376, Note_off_c, 0, 74, 62
1, 302432, Note_on_c, 0, 70, 59
1, 302466, Note_off_c, 0, 70, 60
1, 302527, Note_on_c, 0, 61, 62
1, 302539, Note_on_c, 0, 57, 40
1, 302635, Note_on_c, 0, 69, 56
1, 302647, Note_off_c, 0, 57, 55
1, 302676, Note_off_c, 0, 69, 64
1, 302715, Note_off_c, 0, 62, 57
1, 302718, Note_on_c, 0, 65, 63
1, 302768, Note_off_c, 0, 65, 53
1, 302796, Note_on_c, 0, 69, 61
1, 302833, Note_off_c, 0, 69, 60
1, 302883, Note_on_c, 0, 62, 81
1, 302897, Note_on_c, 0, 77, 42
1, 302919, Note_on_c, 0, 76, 36
1, 302950, Note_off_c, 0, 76, 42
1, 302967, Note_off_c, 0, 77, 56
1, 302972, Note_on_c, 0, 74, 65
1, 303047, Control_c, 0, 64, 41
1, 303058, Note_on_c, 0, 69, 74
1, 303058, Note_off_c, 0, 74, 63
1, 303084, Note_off_c, 0, 61, 57
1, 303115, Control_c, 0, 64, 40
1, 303131, Note_off_c, 0, 69, 60
1, 303149, Note_on_c, 0, 65, 75
1, 303199, Note_off_c, 0, 65, 59
1, 303243, Note_on_c, 0, 64, 87
1, 303248, Control_c, 0, 64, 40
1, 303258, Note_on_c, 0, 57, 61
1, 303307, Control_c, 0, 64, 39
1, 303344, Note_on_c, 0, 69, 76
1, 303362, Note_off_c, 0, 57, 58
1, 303381, Control_c, 0, 64, 39
1, 303389, Note_off_c, 0, 62, 39
1, 303392, Note_off_c, 0, 69, 56
1, 303427, Note_on_c, 0, 67, 75
1, 303499, Control_c, 0, 64, 38
1, 303500, Note_on_c, 0, 69, 79
1, 303502, Note_off_c, 0, 67, 63
1, 303514, Control_c, 0, 64, 36
1, 303529, Control_c, 0, 64, 32
1, 303544, Control_c, 0, 64, 30
1, 303553, Note_off_c, 0, 69, 58
1, 303559, Control_c, 0, 64, 25
1, 303573, Control_c, 0, 64, 20
1, 303579, Note_on_c, 0, 61, 81
1, 303588, Control_c, 0, 64, 19
1, 303594, Note_on_c, 0, 79, 81
1, 303633, Control_c, 0, 64, 25
1, 303648, Control_c, 0, 64, 37
1, 303658, Note_off_c, 0, 64, 61
1, 303663, Control_c, 0, 64, 49
1, 303675, Note_on_c, 0, 76, 80
1, 303678, Control_c, 0, 64, 57
1, 303693, Control_c, 0, 64, 63
1, 303708, Control_c, 0, 64, 69
1, 303723, Control_c, 0, 64, 79
1, 303738, Control_c, 0, 64, 101
1, 303745, Note_off_c, 0, 79, 52
1, 303752, Control_c, 0, 64, 127
1, 303755, Note_on_c, 0, 69, 85
1, 303758, Note_off_c, 0, 61, 61
1, 303808, Note_off_c, 0, 76, 62
1, 303841, Note_on_c, 0, 67, 81
1, 303871, Note_off_c, 0, 69, 63
1, 303922, Note_off_c, 0, 67, 58
1, 303953, Note_on_c, 0, 62, 83
1, 303956, Note_on_c, 0, 50, 73
1, 303982, Control_c, 0, 64, 94
1, 303997, Control_c, 0, 64, 71
1, 304012, Control_c, 0, 64, 57
1, 304026, Control_c, 0, 64, 35
1, 304042, Note_on_c, 0, 69, 72
1, 304056, Control_c, 0, 64, 42
1, 304071, Control_c, 0, 64, 49
1, 304085, Control_c, 0, 64, 56
1, 304100, Control_c, 0, 64, 61
1, 304115, Control_c, 0, 64, 64
1, 304129, Note_off_c, 0, 69, 60
1, 304130, Control_c, 0, 64, 69
1, 304134, Note_on_c, 0, 65, 73
1, 304145, Control_c, 0, 64, 76
1, 304159, Control_c, 0, 64, 87
1, 304174, Control_c, 0, 64, 107
1, 304189, Control_c, 0, 64, 127
1, 304226, Note_on_c, 0, 77, 83
1, 304229, Note_off_c, 0, 65, 56
1, 304274, Note_off_c, 0, 50, 55
1, 304315, Note_off_c, 0, 62, 59
1, 304317, Note_on_c, 0, 74, 77
1, 304408, Note_on_c, 0, 70, 87
1, 304431, Note_off_c, 0, 77, 63
1, 304502, Note_off_c, 0, 74, 60
1, 304506, Note_on_c, 0, 69, 86
1, 304553, Note_off_c, 0, 70, 61
1, 304584, Note_on_c, 0, 67, 87
1, 304620, Note_off_c, 0, 69, 63
1, 304656, Note_off_c, 0, 67, 63
1, 304762, Note_on_c, 0, 41, 71
1, 304762, Note_on_c, 0, 53, 81
1, 304770, Note_on_c, 0, 65, 95
1, 304774, Control_c, 0, 64, 108
1, 304789, Control_c, 0, 64, 83
1, 304804, Control_c, 0, 64, 68
1, 304819, Control_c, 0, 64, 55
1, 304833, Control_c, 0, 64, 41
1, 304848, Control_c, 0, 64, 42
1, 304863, Control_c, 0, 64, 46
1, 304878, Control_c, 0, 64, 52
1, 304893, Control_c, 0, 64, 58
1, 304907, Control_c, 0, 64, 63
1, 304922, Control_c, 0, 64, 69
1, 304937, Control_c, 0, 64, 77
1, 304950, Note_on_c, 0, 66, 22
1, 304952, Control_c, 0, 64, 94
1, 304967, Control_c, 0, 64, 127
1, 304979, Note_on_c, 0, 67, 62
1, 305009, Note_off_c, 0, 66, 40
1, 305053, Note_off_c, 0, 41, 60
1, 305056, Note_off_c, 0, 67, 60
1, 305080, Note_on_c, 0, 69, 68
1, 305121, Note_off_c, 0, 69, 56
1, 305168, Poly_aftertouch_c, 0, 44, 0
1, 305176, Note_on_c, 0, 70, 67
1, 305243, Note_off_c, 0, 70, 61
1, 305264, Note_on_c, 0, 74, 65
1, 305357, Note_off_c, 0, 65, 54
1, 305358, Note_on_c, 0, 72, 64
1, 305380, Note_off_c, 0, 74, 54
1, 305450, Note_on_c, 0, 70, 58
1, 305492, Note_off_c, 0, 72, 60
1, 305493, Control_c, 0, 64, 113
1, 305508, Control_c, 0, 64, 96
1, 305520, Note_off_c, 0, 70, 59
1, 305523, Control_c, 0, 64, 80
1, 305532, Note_on_c, 0, 64, 77
1, 305537, Note_off_c, 0, 53, 52
1, 305538, Control_c, 0, 64, 67
1, 305544, Note_on_c, 0, 52, 58
1, 305553, Control_c, 0, 64, 56
1, 305556, Note_on_c, 0, 41, 29
1, 305568, Control_c, 0, 64, 50
1, 305583, Control_c, 0, 64, 55
1, 305597, Control_c, 0, 64, 60
1, 305612, Control_c, 0, 64, 64
1, 305627, Control_c, 0, 64, 67
1, 305642, Note_on_c, 0, 70, 62
1, 305642, Control_c, 0, 64, 74
1, 305656, Control_c, 0, 64, 87
1, 305670, Note_off_c, 0, 41, 52
1, 305671, Control_c, 0, 64, 127
1, 305706, Note_off_c, 0, 64, 54
1, 305717, Note_off_c, 0, 70, 63
1, 305721, Note_on_c, 0, 67, 58
1, 305735, Note_off_c, 0, 52, 61
1, 305798, Note_on_c, 0, 76, 57
1, 305823, Note_off_c, 0, 67, 60
1, 305887, Note_off_c, 0, 76, 56
1, 305895, Control_c, 0, 64, 114
1, 305910, Control_c, 0, 64, 84
1, 305920, Note_on_c, 0, 51, 70
1, 305924, Control_c, 0, 64, 68
1, 305928, Note_on_c, 0, 63, 84
1, 305931, Note_on_c, 0, 41, 32
1, 305939, Control_c, 0, 64, 56
1, 305954, Control_c, 0, 64, 55
1, 305969, Control_c, 0, 64, 60
1, 305984, Control_c, 0, 64, 63
1, 305998, Control_c, 0, 64, 67
1, 306010, Note_off_c, 0, 41, 58
1, 306013, Control_c, 0, 64, 71
1, 306022, Note_on_c, 0, 69, 61
1, 306028, Control_c, 0, 64, 79
1, 306044, Control_c, 0, 64, 94
1, 306059, Control_c, 0, 64, 127
1, 306130, Note_on_c, 0, 65, 62
1, 306155, Note_off_c, 0, 63, 54
1, 306180, Note_on_c, 0, 75, 62
1, 306180, Note_off_c, 0, 69, 58
1, 306281, Note_off_c, 0, 75, 60
1, 306288, Control_c, 0, 64, 109
1, 306289, Note_on_c, 0, 50, 79
1, 306299, Note_on_c, 0, 62, 89
1, 306301, Note_on_c, 0, 41, 62
1, 306303, Control_c, 0, 64, 81
1, 306305, Note_off_c, 0, 65, 37
1, 306318, Control_c, 0, 64, 65
1, 306333, Control_c, 0, 64, 56
1, 306347, Control_c, 0, 64, 56
1, 306362, Control_c, 0, 64, 61
1, 306377, Control_c, 0, 64, 64
1, 306382, Note_off_c, 0, 51, 64
1, 306392, Control_c, 0, 64, 67
1, 306401, Note_on_c, 0, 69, 67
1, 306407, Control_c, 0, 64, 72
1, 306421, Control_c, 0, 64, 85
1, 306436, Control_c, 0, 64, 110
1, 306451, Control_c, 0, 64, 127
1, 306481, Note_off_c, 0, 41, 50
1, 306495, Note_on_c, 0, 65, 74
1, 306534, Note_off_c, 0, 62, 56
1, 306557, Note_off_c, 0, 69, 60
1, 306566, Note_on_c, 0, 74, 71
1, 306606, Note_off_c, 0, 50, 62
1, 306632, Note_off_c, 0, 65, 60
1, 306662, Note_off_c, 0, 74, 56
1, 306662, Note_on_c, 0, 41, 63
1, 306667, Note_on_c, 0, 48, 77
1, 306672, Note_on_c, 0, 60, 95
1, 306673, Control_c, 0, 64, 85
1, 306688, Control_c, 0, 64, 64
1, 306703, Control_c, 0, 64, 47
1, 306718, Control_c, 0, 64, 42
1, 306733, Control_c, 0, 64, 51
1, 306747, Control_c, 0, 64, 59
1, 306757, Note_off_c, 0, 41, 63
1, 306759, Note_on_c, 0, 69, 67
1, 306762, Control_c, 0, 64, 64
1, 306777, Control_c, 0, 64, 70
1, 306792, Control_c, 0, 64, 84
1, 306807, Control_c, 0, 64, 127
1, 306856, Note_off_c, 0, 48, 62
1, 306866, Note_on_c, 0, 65, 70
1, 306894, Note_off_c, 0, 69, 62
1, 306915, Note_off_c, 0, 60, 59
1, 306955, Note_on_c, 0, 72, 64
1, 306966, Note_off_c, 0, 65, 61
1, 307037, Control_c, 0, 64, 90
1, 307050, Note_on_c, 0, 42, 69
1, 307052, Note_on_c, 0, 49, 72
1, 307052, Control_c, 0, 64, 66
1, 307067, Control_c, 0, 64, 31
1, 307071, Note_on_c, 0, 61, 87
1, 307082, Control_c, 0, 64, 0
1, 307096, Control_c, 0, 64, 35
1, 307111, Control_c, 0, 64, 52
1, 307115, Note_off_c, 0, 72, 63
1, 307126, Control_c, 0, 64, 61
1, 307141, Control_c, 0, 64, 66
1, 307156, Control_c, 0, 64, 77
1, 307170, Control_c, 0, 64, 104
1, 307175, Note_off_c, 0, 42, 62
1, 307179, Note_on_c, 0, 69, 71
1, 307185, Control_c, 0, 64, 127
1, 307195, Note_off_c, 0, 49, 62
1, 307205, Note_off_c, 0, 61, 60
1, 307248, Note_on_c, 0, 66, 75
1, 307258, Note_off_c, 0, 69, 61
1, 307334, Note_off_c, 0, 66, 62
1, 307344, Note_on_c, 0, 69, 70
1, 307382, Note_off_c, 0, 69, 62
1, 307420, Control_c, 0, 64, 101
1, 307430, Note_on_c, 0, 62, 80
1, 307435, Control_c, 0, 64, 69
1, 307436, Note_on_c, 0, 50, 71
1, 307448, Note_on_c, 0, 72, 73
1, 307450, Control_c, 0, 64, 49
1, 307465, Control_c, 0, 64, 35
1, 307480, Control_c, 0, 64, 46
1, 307494, Control_c, 0, 64, 56
1, 307509, Control_c, 0, 64, 63
1, 307515, Note_off_c, 0, 72, 61
1, 307521, Note_on_c, 0, 75, 81
1, 307524, Control_c, 0, 64, 69
1, 307539, Control_c, 0, 64, 82
1, 307543, Note_off_c, 0, 62, 60
1, 307554, Control_c, 0, 64, 127
1, 307571, Note_off_c, 0, 50, 61
1, 307608, Note_on_c, 0, 74, 78
1, 307632, Note_off_c, 0, 75, 61
1, 307670, Note_off_c, 0, 74, 62
1, 307687, Note_on_c, 0, 72, 78
1, 307741, Note_off_c, 0, 72, 61
1, 307755, Control_c, 0, 64, 99
1, 307770, Control_c, 0, 64, 68
1, 307785, Control_c, 0, 64, 32
1, 307787, Note_on_c, 0, 43, 55
1, 307795, Note_on_c, 0, 70, 75
1, 307799, Control_c, 0, 64, 0
1, 307814, Control_c, 0, 64, 15
1, 307829, Control_c, 0, 64, 46
1, 307844, Control_c, 0, 64, 59
1, 307848, Note_off_c, 0, 70, 62
1, 307859, Control_c, 0, 64, 66
1, 307871, Note_on_c, 0, 74, 68
1, 307873, Control_c, 0, 64, 76
1, 307879, Note_off_c, 0, 43, 62
1, 307888, Control_c, 0, 64, 108
1, 307903, Control_c, 0, 64, 127
1, 307964, Note_off_c, 0, 74, 58
1, 307988, Note_on_c, 0, 88, 69
1, 307989, Note_on_c, 0, 86, 69
1, 308065, Note_on_c, 0, 82, 73
1, 308085, Note_off_c, 0, 88, 61
1, 308094, Note_off_c, 0, 86, 62
1, 308152, Note_on_c, 0, 62, 76
1, 308161, Note_on_c, 0, 79, 68
1, 308161, Note_off_c, 0, 82, 63
1, 308161, Note_on_c, 0, 50, 58
1, 308205, Note_off_c, 0, 79, 62
1, 308245, Note_off_c, 0, 50, 61
1, 308248, Note_on_c, 0, 74, 66
1, 308281, Note_off_c, 0, 62, 57
1, 308281, Note_off_c, 0, 74, 65
1, 308358, Note_on_c, 0, 70, 62
1, 308450, Note_off_c, 0, 70, 59
1, 308456, Note_on_c, 0, 67, 57
1, 308521, Note_off_c, 0, 67, 62
1, 308534, Control_c, 0, 64, 108
1, 308548, Control_c, 0, 64, 81
1, 308551, Note_on_c, 0, 45, 48
1, 308552, Note_on_c, 0, 49, 49
1, 308552, Note_on_c, 0, 61, 78
1, 308563, Control_c, 0, 64, 62
1, 308578, Control_c, 0, 64, 36
1, 308593, Control_c, 0, 64, 25
1, 308608, Control_c, 0, 64, 34
1, 308622, Control_c, 0, 64, 45
1, 308637, Control_c, 0, 64, 55
1, 308642, Note_on_c, 0, 69, 58
1, 308652, Control_c, 0, 64, 62
1, 308666, Control_c, 0, 64, 66
1, 308681, Control_c, 0, 64, 71
1, 308696, Control_c, 0, 64, 83
1, 308711, Control_c, 0, 64, 112
1, 308724, Note_off_c, 0, 45, 61
1, 308726, Control_c, 0, 64, 127
1, 308736, Note_on_c, 0, 65, 56
1, 308795, Note_off_c, 0, 69, 54
1, 308820, Note_on_c, 0, 73, 60
1, 308864, Note_off_c, 0, 61, 34
1, 308874, Note_off_c, 0, 49, 57
1, 308899, Note_off_c, 0, 65, 60
1, 308918, Note_off_c, 0, 73, 64
1, 308928, Note_on_c, 0, 45, 60
1, 308930, Note_on_c, 0, 50, 64
1, 308933, Control_c, 0, 64, 84
1, 308934, Note_on_c, 0, 62, 88
1, 308948, Control_c, 0, 64, 66
1, 308963, Control_c, 0, 64, 46
1, 308978, Control_c, 0, 64, 37
1, 308993, Control_c, 0, 64, 47
1, 309008, Control_c, 0, 64, 55
1, 309022, Control_c, 0, 64, 61
1, 309032, Note_on_c, 0, 69, 68
1, 309037, Control_c, 0, 64, 65
1, 309052, Control_c, 0, 64, 70
1, 309066, Control_c, 0, 64, 78
1, 309081, Control_c, 0, 64, 94
1, 309103, Control_c, 0, 64, 127
1, 309144, Note_on_c, 0, 65, 64
1, 309159, Note_off_c, 0, 62, 53
1, 309174, Note_off_c, 0, 45, 28
1, 309199, Note_on_c, 0, 74, 70
1, 309245, Note_off_c, 0, 69, 50
1, 309256, Note_off_c, 0, 65, 60
1, 309326, Note_on_c, 0, 52, 76
1, 309327, Control_c, 0, 64, 125
1, 309335, Note_on_c, 0, 45, 56
1, 309336, Note_on_c, 0, 64, 93
1, 309342, Control_c, 0, 64, 84
1, 309357, Control_c, 0, 64, 66
1, 309361, Note_off_c, 0, 74, 60
1, 309371, Control_c, 0, 64, 48
1, 309386, Control_c, 0, 64, 33
1, 309400, Note_off_c, 0, 50, 12
1, 309401, Control_c, 0, 64, 43
1, 309416, Control_c, 0, 64, 53
1, 309431, Control_c, 0, 64, 59
1, 309446, Control_c, 0, 64, 64
1, 309449, Note_on_c, 0, 69, 72
1, 309461, Control_c, 0, 64, 68
1, 309476, Control_c, 0, 64, 75
1, 309490, Control_c, 0, 64, 99
1, 309505, Control_c, 0, 64, 127
1, 309534, Note_off_c, 0, 45, 52
1, 309545, Note_on_c, 0, 67, 77
1, 309556, Note_off_c, 0, 64, 56
1, 309646, Note_on_c, 0, 76, 80
1, 309667, Note_off_c, 0, 52, 60
1, 309691, Note_off_c, 0, 67, 54
1, 309708, Note_off_c, 0, 76, 63
1, 309735, Note_off_c, 0, 69, 30
1, 309785, Note_on_c, 0, 45, 72
1, 309788, Note_on_c, 0, 49, 68
1, 309794, Note_on_c, 0, 61, 90
1, 309801, Control_c, 0, 64, 93
1, 309816, Control_c, 0, 64, 70
1, 309831, Control_c, 0, 64, 54
1, 309853, Control_c, 0, 64, 35
1, 309868, Control_c, 0, 64, 43
1, 309883, Control_c, 0, 64, 52
1, 309897, Control_c, 0, 64, 58
1, 309912, Control_c, 0, 64, 63
1, 309927, Control_c, 0, 64, 67
1, 309934, Note_on_c, 0, 69, 68
1, 309942, Control_c, 0, 64, 75
1, 309949, Note_off_c, 0, 45, 58
1, 309957, Control_c, 0, 64, 100
1, 309971, Control_c, 0, 64, 127
1, 309985, Note_off_c, 0, 49, 59
1, 310077, Note_on_c, 0, 67, 76
1, 310174, Note_off_c, 0, 69, 53
1, 310238, Note_on_c, 0, 73, 86
1, 310266, Note_off_c, 0, 61, 57
1, 310286, Note_off_c, 0, 67, 61
1, 310390, Note_off_c, 0, 73, 63
1, 310487, Note_on_c, 0, 38, 64
1, 310490, Note_on_c, 0, 50, 69
1, 310490, Note_on_c, 0, 74, 89
1, 310491, Note_on_c, 0, 65, 66
1, 310497, Note_on_c, 0, 62, 78
1, 310503, Note_on_c, 0, 69, 70
1, 310520, Control_c, 0, 64, 112
1, 310535, Control_c, 0, 64, 100
1, 310550, Control_c, 0, 64, 91
1, 310565, Control_c, 0, 64, 84
1, 310580, Control_c, 0, 64, 78
1, 310602, Control_c, 0, 64, 71
1, 310617, Control_c, 0, 64, 65
1, 310632, Control_c, 0, 64, 59
1, 310646, Control_c, 0, 64, 48
1, 310661, Control_c, 0, 64, 38
1, 310676, Control_c, 0, 64, 25
1, 310691, Control_c, 0, 64, 0
1, 311017, Control_c, 0, 64, 30
1, 311032, Control_c, 0, 64, 40
1, 311047, Control_c, 0, 64, 47
1, 311062, Control_c, 0, 64, 52
1, 311077, Control_c, 0, 64, 55
1, 311091, Control_c, 0, 64, 58
1, 311106, Control_c, 0, 64, 60
1, 311121, Control_c, 0, 64, 62
1, 311135, Control_c, 0, 64, 64
1, 311150, Control_c, 0, 64, 67
1, 311165, Control_c, 0, 64, 72
1, 311180, Control_c, 0, 64, 78
1, 311195, Control_c, 0, 64, 84
1, 311209, Control_c, 0, 64, 89
1, 311224, Control_c, 0, 64, 93
1, 311239, Control_c, 0, 64, 95
1, 311254, Control_c, 0, 64, 98
1, 311268, Control_c, 0, 64, 102
1, 311283, Control_c, 0, 64, 108
1, 311298, Control_c, 0, 64, 117
1, 311313, Control_c, 0, 64, 127
1, 311500, Note_off_c, 0, 62, 30
1, 311591, Note_off_c, 0, 50, 22
1, 311618, Note_off_c, 0, 38, 36
1, 311644, Note_off_c, 0, 65, 33
1, 311703, Note_off_c, 0, 69, 39
1, 311708, Note_off_c, 0, 74, 51
1, 311944, Control_c, 0, 64, 122
1, 311958, Control_c, 0, 64, 115
1, 311973, Control_c, 0, 64, 110
1, 311988, Control_c, 0, 64, 105
1, 312003, Control_c, 0, 64, 100
1, 312018, Control_c, 0, 64, 97
1, 312032, Control_c, 0, 64, 95
1, 312047, Control_c, 0, 64, 92
1, 312062, Control_c, 0, 64, 88
1, 312077, Control_c, 0, 64, 84
1, 312099, Control_c, 0, 64, 80
1, 312114, Control_c, 0, 64, 75
1, 312129, Control_c, 0, 64, 70
1, 312144, Control_c, 0, 64, 66
1, 312159, Control_c, 0, 64, 61
1, 312173, Control_c, 0, 64, 56
1, 312188, Control_c, 0, 64, 52
1, 312203, Control_c, 0, 64, 48
1, 312218, Control_c, 0, 64, 39
1, 312233, Control_c, 0, 64, 19
1, 312247, Control_c, 0, 64, 0
1, 312648, Control_c, 0, 64, 11
1, 312662, Control_c, 0, 64, 17
1, 312677, Control_c, 0, 64, 21
1, 312692, Control_c, 0, 64, 24
1, 312707, Control_c, 0, 64, 27
1, 312722, Control_c, 0, 64, 30
1, 312737, Control_c, 0, 64, 33
1, 312752, Control_c, 0, 64, 35
1, 312767, Control_c, 0, 64, 37
1, 312781, Control_c, 0, 64, 39
1, 312796, Control_c, 0, 64, 41
1, 312811, Control_c, 0, 64, 42
1, 312826, Control_c, 0, 64, 44
1, 312848, Control_c, 0, 64, 46
1, 312862, Control_c, 0, 64, 48
1, 312877, Control_c, 0, 64, 49
1, 312892, Control_c, 0, 64, 50
1, 312907, Control_c, 0, 64, 51
1, 312922, Control_c, 0, 64, 52
1, 312937, Control_c, 0, 64, 53
1, 312952, Control_c, 0, 64, 54
1, 312966, Control_c, 0, 64, 55
1, 312981, Control_c, 0, 64, 56
1, 312996, Control_c, 0, 64, 57
1, 313011, Control_c, 0, 64, 57
1, 313026, Control_c, 0, 64, 58
1, 313041, Control_c, 0, 64, 58
1, 313056, Control_c, 0, 64, 59
1, 313070, Control_c, 0, 64, 59
1, 313100, Control_c, 0, 64, 60
1, 313114, Control_c, 0, 64, 60
1, 313129, Control_c, 0, 64, 61
1, 313159, Control_c, 0, 64, 61
1, 313174, Control_c, 0, 64, 62
1, 313204, Control_c, 0, 64, 62
1, 313219, Control_c, 0, 64, 63
1, 313235, Control_c, 0, 64, 63
1, 313279, Control_c, 0, 64, 64
1, 313309, Control_c, 0, 64, 64
1, 313324, Control_c, 0, 64, 65
1, 313353, Control_c, 0, 64, 65
1, 313368, Control_c, 0, 64, 66
1, 313383, Control_c, 0, 64, 67
1, 313398, Control_c, 0, 64, 68
1, 313412, Control_c, 0, 64, 69
1, 313427, Control_c, 0, 64, 70
1, 313442, Control_c, 0, 64, 71
1, 313457, Control_c, 0, 64, 72
1, 313472, Control_c, 0, 64, 72
1, 313486, Control_c, 0, 64, 74
1, 313501, Control_c, 0, 64, 75
1, 313516, Control_c, 0, 64, 76
1, 313530, Control_c, 0, 64, 77
1, 313545, Control_c, 0, 64, 79
1, 313560, Control_c, 0, 64, 80
1, 313575, Control_c, 0, 64, 82
1, 313598, Control_c, 0, 64, 84
1, 313612, Control_c, 0, 64, 86
1, 313627, Control_c, 0, 64, 89
1, 313642, Control_c, 0, 64, 90
1, 313657, Control_c, 0, 64, 92
1, 313672, Control_c, 0, 64, 93
1, 313686, Control_c, 0, 64, 95
1, 313701, Control_c, 0, 64, 97
1, 313716, Control_c, 0, 64, 100
1, 313731, Control_c, 0, 64, 103
1, 313745, Control_c, 0, 64, 107
1, 313760, Control_c, 0, 64, 112
1, 313775, Control_c, 0, 64, 119
1, 313790, Control_c, 0, 64, 127
1, 314144, Note_on_c, 0, 57, 41
1, 314144, Note_on_c, 0, 66, 51
1, 314150, Note_on_c, 0, 62, 43
1, 314155, Note_on_c, 0, 38, 36
1, 314158, Note_on_c, 0, 50, 31
1, 315072, Note_off_c, 0, 50, 32
1, 315563, Note_on_c, 0, 52, 44
1, 315576, Note_on_c, 0, 40, 42
1, 315673, Control_c, 0, 64, 114
1, 315688, Control_c, 0, 64, 107
1, 315703, Control_c, 0, 64, 102
1, 315718, Control_c, 0, 64, 98
1, 315732, Control_c, 0, 64, 94
1, 315747, Control_c, 0, 64, 91
1, 315762, Control_c, 0, 64, 85
1, 315777, Control_c, 0, 64, 76
1, 315792, Control_c, 0, 64, 67
1, 315806, Control_c, 0, 64, 57
1, 315821, Control_c, 0, 64, 51
1, 315843, Control_c, 0, 64, 53
1, 315858, Control_c, 0, 64, 55
1, 315873, Control_c, 0, 64, 58
1, 315888, Control_c, 0, 64, 61
1, 315903, Control_c, 0, 64, 63
1, 315918, Control_c, 0, 64, 67
1, 315932, Control_c, 0, 64, 72
1, 315939, Note_off_c, 0, 57, 59
1, 315947, Control_c, 0, 64, 82
1, 315962, Control_c, 0, 64, 97
1, 315977, Control_c, 0, 64, 127
1, 316004, Note_off_c, 0, 38, 38
1, 316125, Control_c, 0, 64, 125
1, 316139, Control_c, 0, 64, 114
1, 316154, Control_c, 0, 64, 108
1, 316169, Control_c, 0, 64, 104
1, 316180, Note_on_c, 0, 64, 58
1, 316184, Control_c, 0, 64, 99
1, 316196, Note_on_c, 0, 56, 40
1, 316199, Control_c, 0, 64, 92
1, 316213, Control_c, 0, 64, 81
1, 316228, Control_c, 0, 64, 70
1, 316243, Control_c, 0, 64, 61
1, 316258, Control_c, 0, 64, 50
1, 316273, Control_c, 0, 64, 49
1, 316287, Control_c, 0, 64, 54
1, 316302, Control_c, 0, 64, 58
1, 316317, Control_c, 0, 64, 62
1, 316332, Control_c, 0, 64, 65
1, 316338, Note_off_c, 0, 52, 37
1, 316347, Control_c, 0, 64, 68
1, 316362, Control_c, 0, 64, 73
1, 316377, Control_c, 0, 64, 82
1, 316390, Note_off_c, 0, 66, 54
1, 316391, Control_c, 0, 64, 95
1, 316406, Control_c, 0, 64, 120
1, 316421, Control_c, 0, 64, 127
1, 316467, Note_off_c, 0, 56, 63
1, 316478, Note_off_c, 0, 62, 36
1, 316625, Note_off_c, 0, 64, 59
1, 316952, Note_on_c, 0, 31, 31
1, 316961, Note_on_c, 0, 71, 78
1, 316968, Note_on_c, 0, 64, 49
1, 316971, Note_on_c, 0, 43, 45
1, 316973, Note_on_c, 0, 67, 57
1, 316976, Note_on_c, 0, 62, 50
1, 317141, Control_c, 0, 64, 122
1, 317155, Control_c, 0, 64, 112
1, 317170, Control_c, 0, 64, 105
1, 317185, Control_c, 0, 64, 99
1, 317200, Control_c, 0, 64, 94
1, 317215, Control_c, 0, 64, 89
1, 317231, Control_c, 0, 64, 85
1, 317246, Control_c, 0, 64, 82
1, 317260, Control_c, 0, 64, 79
1, 317275, Control_c, 0, 64, 75
1, 317290, Control_c, 0, 64, 71
1, 317305, Control_c, 0, 64, 68
1, 317320, Control_c, 0, 64, 65
1, 317342, Control_c, 0, 64, 62
1, 317357, Control_c, 0, 64, 57
1, 317372, Control_c, 0, 64, 48
1, 317386, Control_c, 0, 64, 31
1, 317401, Control_c, 0, 64, 13
1, 317417, Note_off_c, 0, 40, 42
1, 317431, Control_c, 0, 64, 14
1, 317446, Control_c, 0, 64, 25
1, 317460, Control_c, 0, 64, 36
1, 317475, Control_c, 0, 64, 47
1, 317490, Control_c, 0, 64, 55
1, 317505, Control_c, 0, 64, 60
1, 317520, Control_c, 0, 64, 62
1, 317534, Control_c, 0, 64, 65
1, 317549, Control_c, 0, 64, 68
1, 317564, Control_c, 0, 64, 72
1, 317579, Control_c, 0, 64, 79
1, 317593, Control_c, 0, 64, 88
1, 317608, Control_c, 0, 64, 95
1, 317623, Control_c, 0, 64, 101
1, 317638, Control_c, 0, 64, 105
1, 317652, Control_c, 0, 64, 111
1, 317667, Control_c, 0, 64, 127
1, 317866, Note_off_c, 0, 43, 34
1, 318382, Note_on_c, 0, 45, 37
1, 318394, Note_on_c, 0, 33, 39
1, 318430, Control_c, 0, 64, 122
1, 318445, Control_c, 0, 64, 115
1, 318460, Control_c, 0, 64, 109
1, 318474, Control_c, 0, 64, 105
1, 318489, Control_c, 0, 64, 101
1, 318504, Control_c, 0, 64, 98
1, 318519, Control_c, 0, 64, 95
1, 318533, Control_c, 0, 64, 93
1, 318548, Control_c, 0, 64, 91
1, 318563, Control_c, 0, 64, 89
1, 318578, Control_c, 0, 64, 87
1, 318593, Control_c, 0, 64, 85
1, 318607, Control_c, 0, 64, 82
1, 318622, Control_c, 0, 64, 78
1, 318637, Control_c, 0, 64, 72
1, 318652, Control_c, 0, 64, 65
1, 318667, Control_c, 0, 64, 56
1, 318681, Control_c, 0, 64, 47
1, 318696, Control_c, 0, 64, 48
1, 318708, Note_off_c, 0, 31, 40
1, 318711, Control_c, 0, 64, 51
1, 318726, Control_c, 0, 64, 55
1, 318740, Control_c, 0, 64, 59
1, 318755, Control_c, 0, 64, 62
1, 318770, Control_c, 0, 64, 65
1, 318785, Control_c, 0, 64, 68
1, 318800, Control_c, 0, 64, 77
1, 318812, Note_off_c, 0, 62, 41
1, 318815, Control_c, 0, 64, 88
1, 318838, Control_c, 0, 64, 105
1, 318853, Control_c, 0, 64, 127
1, 318971, Control_c, 0, 64, 122
1, 318986, Control_c, 0, 64, 115
1, 319001, Control_c, 0, 64, 111
1, 319016, Control_c, 0, 64, 108
1, 319030, Control_c, 0, 64, 105
1, 319038, Note_on_c, 0, 69, 58
1, 319045, Control_c, 0, 64, 101
1, 319047, Note_on_c, 0, 61, 41
1, 319060, Control_c, 0, 64, 98
1, 319075, Control_c, 0, 64, 91
1, 319090, Control_c, 0, 64, 81
1, 319104, Control_c, 0, 64, 70
1, 319119, Control_c, 0, 64, 61
1, 319134, Control_c, 0, 64, 51
1, 319164, Control_c, 0, 64, 55
1, 319179, Control_c, 0, 64, 59
1, 319194, Control_c, 0, 64, 62
1, 319208, Control_c, 0, 64, 65
1, 319223, Control_c, 0, 64, 69
1, 319238, Control_c, 0, 64, 77
1, 319253, Control_c, 0, 64, 93
1, 319268, Control_c, 0, 64, 127
1, 319297, Note_off_c, 0, 64, 25
1, 319311, Note_off_c, 0, 67, 36
1, 319334, Note_off_c, 0, 69, 61
1, 319337, Note_off_c, 0, 71, 30
1, 319448, Note_off_c, 0, 61, 35
1, 319580, Note_on_c, 0, 71, 71
1, 319599, Note_on_c, 0, 69, 61
1, 319601, Note_off_c, 0, 33, 39
1, 319619, Note_on_c, 0, 66, 34
1, 319629, Note_off_c, 0, 45, 31
1, 319972, Note_off_c, 0, 66, 42
1, 320121, Note_on_c, 0, 45, 53
1, 320121, Note_on_c, 0, 67, 59
1, 320121, Note_on_c, 0, 73, 86
1, 320124, Note_on_c, 0, 33, 57
1, 320136, Note_on_c, 0, 64, 60
1, 320165, Control_c, 0, 64, 115
1, 320177, Note_off_c, 0, 69, 55
1, 320179, Control_c, 0, 64, 104
1, 320194, Control_c, 0, 64, 89
1, 320204, Note_off_c, 0, 71, 54
1, 320209, Control_c, 0, 64, 76
1, 320224, Control_c, 0, 64, 64
1, 320239, Control_c, 0, 64, 53
1, 320253, Control_c, 0, 64, 46
1, 320268, Control_c, 0, 64, 46
1, 320283, Control_c, 0, 64, 49
1, 320297, Control_c, 0, 64, 52
1, 320312, Control_c, 0, 64, 57
1, 320335, Control_c, 0, 64, 60
1, 320350, Control_c, 0, 64, 63
1, 320365, Control_c, 0, 64, 66
1, 320379, Control_c, 0, 64, 70
1, 320394, Control_c, 0, 64, 78
1, 320409, Control_c, 0, 64, 91
1, 320425, Control_c, 0, 64, 127
1, 320474, Note_off_c, 0, 45, 37
1, 320520, Note_off_c, 0, 67, 58
1, 320535, Note_off_c, 0, 64, 53
1, 320613, Note_off_c, 0, 33, 31
1, 320669, Note_off_c, 0, 73, 52
1, 320785, Note_on_c, 0, 47, 45
1, 320785, Note_on_c, 0, 74, 78
1, 320792, Note_on_c, 0, 66, 59
1, 320794, Note_on_c, 0, 35, 46
1, 320795, Control_c, 0, 64, 113
1, 320796, Note_on_c, 0, 62, 59
1, 320810, Control_c, 0, 64, 106
1, 320825, Control_c, 0, 64, 101
1, 320840, Control_c, 0, 64, 95
1, 320855, Control_c, 0, 64, 84
1, 320869, Control_c, 0, 64, 71
1, 320884, Control_c, 0, 64, 61
1, 320899, Control_c, 0, 64, 41
1, 320914, Control_c, 0, 64, 31
1, 320943, Control_c, 0, 64, 34
1, 320958, Control_c, 0, 64, 39
1, 320973, Control_c, 0, 64, 47
1, 320988, Control_c, 0, 64, 55
1, 321003, Control_c, 0, 64, 60
1, 321018, Control_c, 0, 64, 64
1, 321033, Control_c, 0, 64, 69
1, 321048, Control_c, 0, 64, 76
1, 321063, Control_c, 0, 64, 90
1, 321063, Note_off_c, 0, 74, 54
1, 321084, Control_c, 0, 64, 127
1, 321103, Note_off_c, 0, 66, 59
1, 321131, Note_off_c, 0, 47, 36
1, 321193, Note_off_c, 0, 62, 58
1, 321253, Note_off_c, 0, 35, 37
1, 321447, Note_on_c, 0, 69, 72
1, 321450, Note_on_c, 0, 30, 48
1, 321452, Note_on_c, 0, 42, 46
1, 321454, Note_on_c, 0, 61, 52
1, 321467, Note_on_c, 0, 62, 48
1, 321470, Control_c, 0, 64, 122
1, 321485, Control_c, 0, 64, 108
1, 321499, Control_c, 0, 64, 91
1, 321514, Control_c, 0, 64, 77
1, 321529, Control_c, 0, 64, 65
1, 321543, Control_c, 0, 64, 54
1, 321558, Control_c, 0, 64, 44
1, 321573, Control_c, 0, 64, 44
1, 321588, Control_c, 0, 64, 46
1, 321603, Control_c, 0, 64, 49
1, 321617, Control_c, 0, 64, 53
1, 321632, Control_c, 0, 64, 57
1, 321647, Control_c, 0, 64, 61
1, 321662, Control_c, 0, 64, 64
1, 321677, Control_c, 0, 64, 68
1, 321692, Control_c, 0, 64, 73
1, 321706, Control_c, 0, 64, 82
1, 321721, Control_c, 0, 64, 99
1, 321736, Control_c, 0, 64, 127
1, 321875, Note_off_c, 0, 62, 30
1, 321898, Note_off_c, 0, 69, 32
1, 321912, Note_off_c, 0, 61, 34
1, 322032, Note_off_c, 0, 42, 37
1, 322079, Note_off_c, 0, 30, 42
1, 322181, Note_on_c, 0, 31, 37
1, 322182, Note_on_c, 0, 43, 28
1, 322184, Note_on_c, 0, 61, 44
1, 322184, Note_on_c, 0, 69, 62
1, 322202, Note_on_c, 0, 62, 44
1, 322248, Control_c, 0, 64, 116
1, 322263, Control_c, 0, 64, 112
1, 322278, Control_c, 0, 64, 108
1, 322293, Control_c, 0, 64, 104
1, 322308, Control_c, 0, 64, 101
1, 322322, Control_c, 0, 64, 98
1, 322337, Control_c, 0, 64, 94
1, 322352, Control_c, 0, 64, 92
1, 322366, Control_c, 0, 64, 89
1, 322381, Control_c, 0, 64, 86
1, 322396, Control_c, 0, 64, 84
1, 322411, Control_c, 0, 64, 81
1, 322426, Control_c, 0, 64, 78
1, 322440, Control_c, 0, 64, 75
1, 322455, Control_c, 0, 64, 73
1, 322470, Control_c, 0, 64, 71
1, 322485, Control_c, 0, 64, 70
1, 322500, Control_c, 0, 64, 68
1, 322514, Control_c, 0, 64, 67
1, 322529, Control_c, 0, 64, 66
1, 322544, Control_c, 0, 64, 65
1, 322559, Control_c, 0, 64, 64
1, 322581, Control_c, 0, 64, 62
1, 322596, Control_c, 0, 64, 60
1, 322611, Control_c, 0, 64, 54
1, 322626, Control_c, 0, 64, 48
1, 322641, Control_c, 0, 64, 45
1, 322655, Control_c, 0, 64, 45
1, 322670, Control_c, 0, 64, 45
1, 322685, Control_c, 0, 64, 47
1, 322700, Control_c, 0, 64, 51
1, 322715, Control_c, 0, 64, 56
1, 322729, Control_c, 0, 64, 59
1, 322744, Control_c, 0, 64, 61
1, 322759, Control_c, 0, 64, 63
1, 322774, Control_c, 0, 64, 64
1, 322789, Control_c, 0, 64, 67
1, 322803, Control_c, 0, 64, 70
1, 322818, Control_c, 0, 64, 73
1, 322834, Control_c, 0, 64, 77
1, 322849, Control_c, 0, 64, 81
1, 322864, Control_c, 0, 64, 83
1, 322869, Note_on_c, 0, 59, 44
1, 322878, Control_c, 0, 64, 86
1, 322893, Control_c, 0, 64, 90
1, 322908, Control_c, 0, 64, 93
1, 322923, Control_c, 0, 64, 97
1, 322938, Control_c, 0, 64, 102
1, 322952, Control_c, 0, 64, 110
1, 322967, Control_c, 0, 64, 120
1, 322982, Control_c, 0, 64, 127
1, 323072, Note_off_c, 0, 69, 38
1, 323297, Note_on_c, 0, 67, 46
1, 323383, Note_off_c, 0, 62, 58
1, 323415, Note_off_c, 0, 31, 26
1, 323418, Note_off_c, 0, 61, 39
1, 323460, Note_off_c, 0, 59, 60
1, 323737, Note_on_c, 0, 66, 42
1, 323739, Note_on_c, 0, 62, 30
1, 323755, Note_on_c, 0, 57, 29
1, 323761, Control_c, 0, 64, 122
1, 323763, Note_on_c, 0, 38, 29
1, 323775, Control_c, 0, 64, 119
1, 323790, Control_c, 0, 64, 115
1, 323805, Control_c, 0, 64, 112
1, 323820, Control_c, 0, 64, 108
1, 323835, Control_c, 0, 64, 104
1, 323850, Control_c, 0, 64, 101
1, 323865, Control_c, 0, 64, 99
1, 323880, Control_c, 0, 64, 96
1, 323894, Control_c, 0, 64, 94
1, 323909, Control_c, 0, 64, 89
1, 323924, Control_c, 0, 64, 85
1, 323939, Control_c, 0, 64, 80
1, 323954, Control_c, 0, 64, 75
1, 323968, Control_c, 0, 64, 71
1, 323983, Control_c, 0, 64, 67
1, 323998, Control_c, 0, 64, 65
1, 323999, Note_off_c, 0, 67, 27
1, 324011, Note_off_c, 0, 43, 33
1, 324012, Control_c, 0, 64, 62
1, 324027, Control_c, 0, 64, 61
1, 324042, Control_c, 0, 64, 59
1, 324057, Control_c, 0, 64, 58
1, 324079, Control_c, 0, 64, 56
1, 324094, Control_c, 0, 64, 53
1, 324109, Control_c, 0, 64, 50
1, 324124, Control_c, 0, 64, 46
1, 324139, Control_c, 0, 64, 43
1, 324153, Control_c, 0, 64, 41
1, 324168, Control_c, 0, 64, 39
1, 324183, Control_c, 0, 64, 37
1, 324198, Control_c, 0, 64, 36
1, 324213, Control_c, 0, 64, 35
1, 324227, Control_c, 0, 64, 34
1, 324301, Control_c, 0, 64, 35
1, 324316, Control_c, 0, 64, 37
1, 324331, Control_c, 0, 64, 41
1, 324345, Control_c, 0, 64, 45
1, 324360, Control_c, 0, 64, 48
1, 324375, Control_c, 0, 64, 50
1, 324390, Control_c, 0, 64, 52
1, 324405, Control_c, 0, 64, 54
1, 324422, Control_c, 0, 64, 56
1, 324437, Control_c, 0, 64, 58
1, 324451, Control_c, 0, 64, 59
1, 324466, Control_c, 0, 64, 61
1, 324481, Control_c, 0, 64, 62
1, 324496, Control_c, 0, 64, 63
1, 324511, Control_c, 0, 64, 64
1, 324525, Control_c, 0, 64, 65
1, 324540, Control_c, 0, 64, 66
1, 324555, Control_c, 0, 64, 68
1, 324569, Control_c, 0, 64, 70
1, 324584, Control_c, 0, 64, 72
1, 324599, Control_c, 0, 64, 75
1, 324606, Note_off_c, 0, 38, 40
1, 324614, Control_c, 0, 64, 79
1, 324629, Control_c, 0, 64, 83
1, 324643, Control_c, 0, 64, 87
1, 324658, Control_c, 0, 64, 92
1, 324673, Control_c, 0, 64, 95
1, 324688, Control_c, 0, 64, 98
1, 324703, Note_off_c, 0, 57, 41
1, 324703, Control_c, 0, 64, 102
1, 324717, Control_c, 0, 64, 109
1, 324732, Control_c, 0, 64, 127
1, 324753, Note_off_c, 0, 66, 35
1, 324776, Note_off_c, 0, 62, 36
1, 325404, Note_on_c, 0, 50, 50
1, 325405, Note_on_c, 0, 66, 74
1, 325406, Note_on_c, 0, 57, 61
1, 325408, Note_on_c, 0, 38, 49
1, 325412, Note_on_c, 0, 62, 61
1, 326294, Note_off_c, 0, 50, 31
1, 326634, Note_on_c, 0, 52, 57
1, 326638, Note_on_c, 0, 40, 52
1, 326726, Control_c, 0, 64, 116
1, 326740, Control_c, 0, 64, 109
1, 326755, Control_c, 0, 64, 104
1, 326770, Control_c, 0, 64, 99
1, 326785, Control_c, 0, 64, 94
1, 326800, Control_c, 0, 64, 89
1, 326816, Control_c, 0, 64, 83
1, 326831, Control_c, 0, 64, 76
1, 326845, Control_c, 0, 64, 67
1, 326860, Control_c, 0, 64, 58
1, 326875, Control_c, 0, 64, 48
1, 326890, Control_c, 0, 64, 48
1, 326905, Control_c, 0, 64, 49
1, 326919, Control_c, 0, 64, 52
1, 326934, Control_c, 0, 64, 56
1, 326949, Control_c, 0, 64, 61
1, 326964, Control_c, 0, 64, 64
1, 326979, Control_c, 0, 64, 68
1, 326989, Note_off_c, 0, 57, 48
1, 326993, Control_c, 0, 64, 75
1, 327001, Note_off_c, 0, 38, 33
1, 327008, Control_c, 0, 64, 89
1, 327023, Control_c, 0, 64, 127
1, 327189, Note_on_c, 0, 64, 65
1, 327196, Note_on_c, 0, 56, 49
1, 327223, Control_c, 0, 64, 107
1, 327237, Control_c, 0, 64, 94
1, 327252, Control_c, 0, 64, 82
1, 327267, Control_c, 0, 64, 68
1, 327282, Control_c, 0, 64, 56
1, 327290, Note_off_c, 0, 66, 53
1, 327297, Control_c, 0, 64, 36
1, 327311, Control_c, 0, 64, 36
1, 327326, Control_c, 0, 64, 39
1, 327341, Control_c, 0, 64, 45
1, 327356, Control_c, 0, 64, 51
1, 327370, Control_c, 0, 64, 57
1, 327385, Note_off_c, 0, 62, 54
1, 327385, Control_c, 0, 64, 61
1, 327389, Note_off_c, 0, 52, 38
1, 327400, Control_c, 0, 64, 64
1, 327415, Control_c, 0, 64, 68
1, 327430, Control_c, 0, 64, 73
1, 327445, Control_c, 0, 64, 82
1, 327460, Control_c, 0, 64, 102
1, 327473, Note_off_c, 0, 40, 46
1, 327474, Control_c, 0, 64, 127
1, 327491, Note_off_c, 0, 64, 57
1, 327671, Note_off_c, 0, 56, 29
1, 327713, Control_c, 0, 64, 112
1, 327728, Control_c, 0, 64, 104
1, 327742, Control_c, 0, 64, 100
1, 327757, Control_c, 0, 64, 97
1, 327772, Control_c, 0, 64, 94
1, 327786, Control_c, 0, 64, 92
1, 327801, Control_c, 0, 64, 89
1, 327823, Control_c, 0, 64, 86
1, 327838, Control_c, 0, 64, 82
1, 327853, Control_c, 0, 64, 79
1, 327868, Control_c, 0, 64, 76
1, 327883, Control_c, 0, 64, 74
1, 327898, Control_c, 0, 64, 72
1, 327913, Control_c, 0, 64, 72
1, 327928, Control_c, 0, 64, 71
1, 327942, Control_c, 0, 64, 70
1, 327957, Control_c, 0, 64, 69
1, 327972, Control_c, 0, 64, 68
1, 327986, Control_c, 0, 64, 67
1, 328001, Control_c, 0, 64, 65
1, 328016, Control_c, 0, 64, 64
1, 328031, Control_c, 0, 64, 64
1, 328046, Control_c, 0, 64, 63
1, 328053, Note_on_c, 0, 36, 31
1, 328053, Note_on_c, 0, 60, 30
1, 328053, Note_on_c, 0, 64, 39
1, 328056, Note_on_c, 0, 48, 27
1, 328066, Note_on_c, 0, 55, 21
1, 328075, Control_c, 0, 64, 63
1, 328090, Control_c, 0, 64, 62
1, 328105, Control_c, 0, 64, 61
1, 328120, Control_c, 0, 64, 60
1, 328134, Control_c, 0, 64, 59
1, 328149, Control_c, 0, 64, 58
1, 328163, Control_c, 0, 64, 56
1, 328178, Control_c, 0, 64, 52
1, 328193, Control_c, 0, 64, 47
1, 328208, Control_c, 0, 64, 42
1, 328223, Control_c, 0, 64, 38
1, 328238, Control_c, 0, 64, 34
1, 328253, Control_c, 0, 64, 31
1, 328267, Control_c, 0, 64, 28
1, 328356, Control_c, 0, 64, 30
1, 328371, Control_c, 0, 64, 34
1, 328385, Control_c, 0, 64, 40
1, 328400, Control_c, 0, 64, 44
1, 328416, Control_c, 0, 64, 49
1, 328431, Control_c, 0, 64, 51
1, 328446, Control_c, 0, 64, 52
1, 328461, Control_c, 0, 64, 54
1, 328476, Control_c, 0, 64, 55
1, 328490, Control_c, 0, 64, 57
1, 328505, Control_c, 0, 64, 59
1, 328520, Control_c, 0, 64, 60
1, 328535, Control_c, 0, 64, 61
1, 328550, Control_c, 0, 64, 62
1, 328571, Control_c, 0, 64, 63
1, 328586, Control_c, 0, 64, 63
1, 328601, Control_c, 0, 64, 64
1, 328616, Control_c, 0, 64, 65
1, 328631, Control_c, 0, 64, 66
1, 328646, Control_c, 0, 64, 67
1, 328661, Control_c, 0, 64, 69
1, 328676, Control_c, 0, 64, 70
1, 328690, Control_c, 0, 64, 72
1, 328705, Control_c, 0, 64, 74
1, 328720, Control_c, 0, 64, 76
1, 328735, Control_c, 0, 64, 78
1, 328750, Control_c, 0, 64, 80
1, 328764, Control_c, 0, 64, 82
1, 328779, Control_c, 0, 64, 83
1, 328794, Control_c, 0, 64, 84
1, 328808, Control_c, 0, 64, 85
1, 328823, Control_c, 0, 64, 87
1, 328838, Control_c, 0, 64, 90
1, 328853, Control_c, 0, 64, 94
1, 328868, Control_c, 0, 64, 96
1, 328882, Control_c, 0, 64, 98
1, 328897, Control_c, 0, 64, 101
1, 328912, Control_c, 0, 64, 105
1, 328927, Control_c, 0, 64, 110
1, 328942, Control_c, 0, 64, 116
1, 328951, Note_off_c, 0, 60, 37
1, 328956, Control_c, 0, 64, 127
1, 328968, Note_off_c, 0, 55, 35
1, 329085, Note_off_c, 0, 48, 33
1, 329117, Note_off_c, 0, 36, 39
1, 329617, Note_on_c, 0, 35, 31
1, 329617, Control_c, 0, 64, 125
1, 329621, Note_on_c, 0, 47, 23
1, 329621, Note_on_c, 0, 62, 34
1, 329624, Note_on_c, 0, 55, 33
1, 329631, Control_c, 0, 64, 119
1, 329646, Control_c, 0, 64, 115
1, 329661, Control_c, 0, 64, 111
1, 329676, Control_c, 0, 64, 108
1, 329691, Control_c, 0, 64, 104
1, 329705, Control_c, 0, 64, 101
1, 329720, Control_c, 0, 64, 97
1, 329735, Control_c, 0, 64, 94
1, 329750, Control_c, 0, 64, 90
1, 329765, Control_c, 0, 64, 86
1, 329780, Control_c, 0, 64, 81
1, 329794, Control_c, 0, 64, 74
1, 329809, Control_c, 0, 64, 66
1, 329824, Control_c, 0, 64, 58
1, 329838, Control_c, 0, 64, 51
1, 329853, Control_c, 0, 64, 51
1, 329868, Control_c, 0, 64, 54
1, 329883, Control_c, 0, 64, 57
1, 329898, Control_c, 0, 64, 59
1, 329913, Control_c, 0, 64, 61
1, 329924, Note_off_c, 0, 64, 39
1, 329928, Control_c, 0, 64, 63
1, 329943, Control_c, 0, 64, 66
1, 329957, Control_c, 0, 64, 70
1, 329972, Control_c, 0, 64, 76
1, 329987, Control_c, 0, 64, 83
1, 330002, Control_c, 0, 64, 90
1, 330017, Control_c, 0, 64, 97
1, 330032, Control_c, 0, 64, 103
1, 330047, Control_c, 0, 64, 110
1, 330050, Note_off_c, 0, 62, 51
1, 330069, Control_c, 0, 64, 125
1, 330084, Control_c, 0, 64, 127
1, 330095, Note_off_c, 0, 55, 40
1, 330169, Note_on_c, 0, 64, 51
1, 330196, Note_on_c, 0, 55, 35
1, 330200, Note_on_c, 0, 62, 39
1, 330369, Note_off_c, 0, 47, 34
1, 330402, Note_off_c, 0, 35, 37
1, 330527, Note_off_c, 0, 64, 36
1, 330577, Note_off_c, 0, 62, 30
1, 330617, Control_c, 0, 64, 120
1, 330632, Control_c, 0, 64, 114
1, 330647, Control_c, 0, 64, 110
1, 330661, Control_c, 0, 64, 106
1, 330676, Control_c, 0, 64, 103
1, 330685, Note_on_c, 0, 66, 71
1, 330691, Control_c, 0, 64, 100
1, 330696, Note_on_c, 0, 33, 42
1, 330700, Note_on_c, 0, 45, 36
1, 330706, Note_on_c, 0, 60, 46
1, 330706, Control_c, 0, 64, 94
1, 330721, Note_on_c, 0, 62, 50
1, 330721, Control_c, 0, 64, 86
1, 330736, Control_c, 0, 64, 76
1, 330750, Control_c, 0, 64, 67
1, 330765, Control_c, 0, 64, 60
1, 330780, Control_c, 0, 64, 56
1, 330795, Control_c, 0, 64, 59
1, 330819, Control_c, 0, 64, 61
1, 330833, Control_c, 0, 64, 63
1, 330848, Control_c, 0, 64, 65
1, 330863, Control_c, 0, 64, 67
1, 330878, Control_c, 0, 64, 70
1, 330892, Control_c, 0, 64, 76
1, 330907, Control_c, 0, 64, 87
1, 330922, Control_c, 0, 64, 103
1, 330937, Control_c, 0, 64, 127
1, 330958, Note_off_c, 0, 55, 41
1, 330998, Note_off_c, 0, 33, 39
1, 331030, Note_off_c, 0, 66, 59
1, 331047, Note_off_c, 0, 45, 36
1, 331098, Note_off_c, 0, 62, 24
1, 331110, Note_off_c, 0, 60, 36
1, 331228, Note_on_c, 0, 67, 86
1, 331229, Note_on_c, 0, 31, 50
1, 331236, Note_on_c, 0, 43, 52
1, 331236, Note_on_c, 0, 62, 52
1, 331245, Note_on_c, 0, 59, 66
1, 331322, Control_c, 0, 64, 99
1, 331337, Control_c, 0, 64, 82
1, 331352, Control_c, 0, 64, 69
1, 331366, Control_c, 0, 64, 57
1, 331381, Control_c, 0, 64, 52
1, 331396, Control_c, 0, 64, 55
1, 331410, Control_c, 0, 64, 58
1, 331425, Control_c, 0, 64, 61
1, 331440, Control_c, 0, 64, 64
1, 331451, Note_off_c, 0, 62, 0
1, 331455, Control_c, 0, 64, 68
1, 331470, Control_c, 0, 64, 74
1, 331484, Control_c, 0, 64, 83
1, 331488, Poly_aftertouch_c, 0, 62, 127
1, 331499, Control_c, 0, 64, 103
1, 331514, Control_c, 0, 64, 127
1, 331645, Note_off_c, 0, 59, 55
1, 331651, Poly_aftertouch_c, 0, 62, 0
1, 331797, Note_on_c, 0, 30, 68
1, 331799, Note_on_c, 0, 69, 93
1, 331814, Note_on_c, 0, 57, 73
1, 331816, Note_on_c, 0, 62, 62
1, 331880, Note_off_c, 0, 31, 38
1, 331907, Control_c, 0, 64, 112
1, 331922, Control_c, 0, 64, 93
1, 331937, Control_c, 0, 64, 78
1, 331952, Control_c, 0, 64, 66
1, 331967, Control_c, 0, 64, 54
1, 331982, Control_c, 0, 64, 42
1, 331989, Note_off_c, 0, 43, 36
1, 332011, Control_c, 0, 64, 43
1, 332026, Control_c, 0, 64, 46
1, 332040, Note_off_c, 0, 67, 24
1, 332041, Control_c, 0, 64, 51
1, 332056, Control_c, 0, 64, 55
1, 332071, Control_c, 0, 64, 60
1, 332086, Control_c, 0, 64, 63
1, 332101, Control_c, 0, 64, 66
1, 332115, Control_c, 0, 64, 72
1, 332130, Control_c, 0, 64, 80
1, 332145, Control_c, 0, 64, 96
1, 332160, Control_c, 0, 64, 127
1, 332239, Note_off_c, 0, 69, 56
1, 332289, Note_off_c, 0, 57, 38
1, 332323, Note_off_c, 0, 62, 33
1, 332378, Note_off_c, 0, 30, 39
1, 332480, Note_on_c, 0, 31, 53
1, 332481, Note_on_c, 0, 43, 52
1, 332485, Note_on_c, 0, 71, 90
1, 332496, Note_on_c, 0, 62, 44
1, 332503, Note_on_c, 0, 59, 64
1, 332506, Note_on_c, 0, 64, 60
1, 332553, Control_c, 0, 64, 114
1, 332568, Control_c, 0, 64, 105
1, 332583, Control_c, 0, 64, 97
1, 332598, Control_c, 0, 64, 90
1, 332612, Control_c, 0, 64, 82
1, 332627, Control_c, 0, 64, 72
1, 332642, Control_c, 0, 64, 62
1, 332656, Control_c, 0, 64, 43
1, 332671, Control_c, 0, 64, 32
1, 332686, Control_c, 0, 64, 33
1, 332701, Control_c, 0, 64, 38
1, 332716, Control_c, 0, 64, 45
1, 332730, Control_c, 0, 64, 51
1, 332745, Control_c, 0, 64, 56
1, 332760, Control_c, 0, 64, 60
1, 332775, Control_c, 0, 64, 62
1, 332790, Control_c, 0, 64, 65
1, 332804, Control_c, 0, 64, 68
1, 332819, Control_c, 0, 64, 74
1, 332834, Control_c, 0, 64, 85
1, 332849, Control_c, 0, 64, 107
1, 332864, Control_c, 0, 64, 127
1, 332921, Note_off_c, 0, 43, 33
1, 332952, Note_off_c, 0, 59, 37
1, 333188, Note_on_c, 0, 32, 51
1, 333192, Note_on_c, 0, 44, 56
1, 333243, Control_c, 0, 64, 115
1, 333257, Note_off_c, 0, 62, 31
1, 333257, Control_c, 0, 64, 107
1, 333272, Control_c, 0, 64, 103
1, 333287, Control_c, 0, 64, 101
1, 333302, Control_c, 0, 64, 99
1, 333317, Control_c, 0, 64, 96
1, 333326, Note_off_c, 0, 64, 37
1, 333332, Control_c, 0, 64, 94
1, 333347, Control_c, 0, 64, 91
1, 333361, Control_c, 0, 64, 89
1, 333376, Control_c, 0, 64, 88
1, 333391, Control_c, 0, 64, 87
1, 333407, Note_off_c, 0, 31, 40
1, 333421, Control_c, 0, 64, 86
1, 333435, Control_c, 0, 64, 85
1, 333450, Control_c, 0, 64, 84
1, 333465, Control_c, 0, 64, 82
1, 333479, Control_c, 0, 64, 77
1, 333494, Control_c, 0, 64, 72
1, 333509, Control_c, 0, 64, 65
1, 333524, Control_c, 0, 64, 60
1, 333539, Control_c, 0, 64, 57
1, 333553, Control_c, 0, 64, 57
1, 333568, Control_c, 0, 64, 58
1, 333583, Control_c, 0, 64, 59
1, 333598, Control_c, 0, 64, 61
1, 333607, Note_on_c, 0, 64, 64
1, 333613, Control_c, 0, 64, 63
1, 333618, Note_on_c, 0, 59, 44
1, 333622, Note_on_c, 0, 62, 47
1, 333627, Control_c, 0, 64, 64
1, 333642, Control_c, 0, 64, 67
1, 333657, Control_c, 0, 64, 70
1, 333672, Control_c, 0, 64, 76
1, 333687, Control_c, 0, 64, 86
1, 333702, Control_c, 0, 64, 98
1, 333716, Control_c, 0, 64, 127
1, 333721, Note_off_c, 0, 71, 45
1, 333776, Note_off_c, 0, 62, 53
1, 333814, Note_off_c, 0, 32, 37
1, 333846, Note_off_c, 0, 64, 57
1, 333892, Note_off_c, 0, 44, 31
1, 334033, Note_off_c, 0, 59, 22
1, 334064, Note_on_c, 0, 45, 34
1, 334079, Note_on_c, 0, 64, 62
1, 334080, Note_on_c, 0, 61, 50
1, 334085, Note_on_c, 0, 33, 40
1, 334095, Control_c, 0, 64, 120
1, 334110, Control_c, 0, 64, 112
1, 334125, Control_c, 0, 64, 106
1, 334140, Control_c, 0, 64, 101
1, 334155, Control_c, 0, 64, 97
1, 334170, Control_c, 0, 64, 94
1, 334184, Control_c, 0, 64, 91
1, 334199, Control_c, 0, 64, 86
1, 334214, Control_c, 0, 64, 81
1, 334228, Control_c, 0, 64, 77
1, 334243, Control_c, 0, 64, 72
1, 334258, Control_c, 0, 64, 69
1, 334273, Control_c, 0, 64, 65
1, 334288, Control_c, 0, 64, 61
1, 334302, Control_c, 0, 64, 57
1, 334317, Control_c, 0, 64, 53
1, 334332, Control_c, 0, 64, 50
1, 334347, Control_c, 0, 64, 47
1, 334362, Control_c, 0, 64, 44
1, 334376, Control_c, 0, 64, 39
1, 334391, Control_c, 0, 64, 35
1, 334406, Control_c, 0, 64, 32
1, 334420, Control_c, 0, 64, 30
1, 334435, Control_c, 0, 64, 27
1, 334450, Control_c, 0, 64, 26
1, 334539, Control_c, 0, 64, 27
1, 334562, Control_c, 0, 64, 29
1, 334576, Control_c, 0, 64, 33
1, 334591, Control_c, 0, 64, 37
1, 334606, Control_c, 0, 64, 42
1, 334621, Control_c, 0, 64, 47
1, 334635, Control_c, 0, 64, 51
1, 334650, Control_c, 0, 64, 54
1, 334665, Control_c, 0, 64, 57
1, 334680, Control_c, 0, 64, 60
1, 334695, Control_c, 0, 64, 62
1, 334709, Control_c, 0, 64, 64
1, 334724, Control_c, 0, 64, 66
1, 334739, Control_c, 0, 64, 69
1, 334745, Note_off_c, 0, 33, 37
1, 334754, Control_c, 0, 64, 72
1, 334769, Control_c, 0, 64, 77
1, 334784, Control_c, 0, 64, 81
1, 334799, Control_c, 0, 64, 85
1, 334814, Control_c, 0, 64, 89
1, 334829, Control_c, 0, 64, 90
1, 334902, Note_off_c, 0, 64, 34
1, 334926, Note_off_c, 0, 61, 24
1, 334931, Note_off_c, 0, 45, 36
1, 334933, Control_c, 0, 64, 89
1, 334948, Control_c, 0, 64, 89
1, 334977, Control_c, 0, 64, 88
1, 334992, Control_c, 0, 64, 87
1, 335007, Control_c, 0, 64, 87
1, 335037, Control_c, 0, 64, 86
1, 335066, Control_c, 0, 64, 85
1, 335081, Control_c, 0, 64, 85
1, 335096, Control_c, 0, 64, 83
1, 335111, Control_c, 0, 64, 82
1, 335125, Control_c, 0, 64, 82
1, 335140, Control_c, 0, 64, 81
1, 335155, Control_c, 0, 64, 80
1, 335170, Control_c, 0, 64, 80
1, 335185, Control_c, 0, 64, 79
1, 335199, Control_c, 0, 64, 78
1, 335214, Control_c, 0, 64, 77
1, 335229, Control_c, 0, 64, 76
1, 335243, Control_c, 0, 64, 76
1, 335258, Control_c, 0, 64, 75
1, 335273, Control_c, 0, 64, 75
1, 335288, Control_c, 0, 64, 74
1, 335311, Control_c, 0, 64, 73
1, 335325, Control_c, 0, 64, 73
1, 335340, Control_c, 0, 64, 72
1, 335355, Control_c, 0, 64, 71
1, 335370, Control_c, 0, 64, 71
1, 335385, Control_c, 0, 64, 70
1, 335399, Control_c, 0, 64, 69
1, 335414, Control_c, 0, 64, 69
1, 335429, Control_c, 0, 64, 68
1, 335444, Control_c, 0, 64, 68
1, 335458, Control_c, 0, 64, 67
1, 335473, Control_c, 0, 64, 66
1, 335488, Control_c, 0, 64, 66
1, 335503, Control_c, 0, 64, 65
1, 335518, Control_c, 0, 64, 64
1, 335532, Control_c, 0, 64, 64
1, 335547, Control_c, 0, 64, 63
1, 335562, Control_c, 0, 64, 63
1, 335592, Control_c, 0, 64, 62
1, 335608, Control_c, 0, 64, 62
1, 335622, Control_c, 0, 64, 61
1, 335637, Control_c, 0, 64, 61
1, 335652, Control_c, 0, 64, 60
1, 335681, Control_c, 0, 64, 60
1, 335726, Control_c, 0, 64, 59
1, 335741, Control_c, 0, 64, 59
1, 335785, Control_c, 0, 64, 58
1, 335794, Note_on_c, 0, 64, 36
1, 335800, Note_on_c, 0, 45, 32
1, 335807, Note_on_c, 0, 60, 33
1, 335815, Control_c, 0, 64, 58
1, 335830, Control_c, 0, 64, 57
1, 335845, Control_c, 0, 64, 56
1, 335860, Control_c, 0, 64, 55
1, 335874, Control_c, 0, 64, 54
1, 335889, Control_c, 0, 64, 53
1, 335904, Control_c, 0, 64, 52
1, 335919, Control_c, 0, 64, 52
1, 335948, Control_c, 0, 64, 52
1, 335963, Control_c, 0, 64, 54
1, 335978, Control_c, 0, 64, 56
1, 335993, Control_c, 0, 64, 59
1, 336008, Control_c, 0, 64, 61
1, 336022, Control_c, 0, 64, 63
1, 336037, Control_c, 0, 64, 65
1, 336059, Control_c, 0, 64, 69
1, 336074, Control_c, 0, 64, 74
1, 336080, Note_off_c, 0, 45, 47
1, 336089, Control_c, 0, 64, 81
1, 336094, Note_off_c, 0, 60, 38
1, 336104, Control_c, 0, 64, 90
1, 336119, Control_c, 0, 64, 98
1, 336131, Note_off_c, 0, 64, 36
1, 336134, Control_c, 0, 64, 106
1, 336149, Control_c, 0, 64, 115
1, 336163, Control_c, 0, 64, 127
1, 336369, Note_on_c, 0, 45, 31
1, 336375, Note_on_c, 0, 66, 57
1, 336396, Note_on_c, 0, 60, 42
1, 336560, Note_off_c, 0, 45, 47
1, 336587, Note_off_c, 0, 60, 44
1, 336610, Note_off_c, 0, 66, 56
1, 336823, Control_c, 0, 64, 119
1, 336838, Control_c, 0, 64, 113
1, 336852, Control_c, 0, 64, 109
1, 336867, Control_c, 0, 64, 106
1, 336882, Control_c, 0, 64, 104
1, 336897, Control_c, 0, 64, 102
1, 336912, Control_c, 0, 64, 100
1, 336927, Control_c, 0, 64, 98
1, 336939, Note_on_c, 0, 67, 64
1, 336942, Control_c, 0, 64, 97
1, 336956, Note_on_c, 0, 59, 37
1, 336957, Control_c, 0, 64, 95
1, 336957, Note_on_c, 0, 47, 35
1, 336958, Note_on_c, 0, 64, 44
1, 336972, Control_c, 0, 64, 94
1, 336986, Control_c, 0, 64, 92
1, 337001, Control_c, 0, 64, 90
1, 337016, Control_c, 0, 64, 88
1, 337030, Control_c, 0, 64, 86
1, 337045, Control_c, 0, 64, 83
1, 337060, Control_c, 0, 64, 82
1, 337075, Control_c, 0, 64, 80
1, 337090, Control_c, 0, 64, 79
1, 337104, Control_c, 0, 64, 78
1, 337119, Control_c, 0, 64, 77
1, 337134, Control_c, 0, 64, 75
1, 337149, Control_c, 0, 64, 74
1, 337164, Control_c, 0, 64, 73
1, 337178, Control_c, 0, 64, 72
1, 337194, Control_c, 0, 64, 71
1, 337209, Control_c, 0, 64, 70
1, 337224, Control_c, 0, 64, 69
1, 337239, Control_c, 0, 64, 68
1, 337254, Control_c, 0, 64, 67
1, 337268, Control_c, 0, 64, 66
1, 337283, Control_c, 0, 64, 65
1, 337298, Control_c, 0, 64, 64
1, 337313, Control_c, 0, 64, 63
1, 337327, Control_c, 0, 64, 62
1, 337342, Control_c, 0, 64, 62
1, 337357, Control_c, 0, 64, 61
1, 337372, Control_c, 0, 64, 61
1, 337387, Control_c, 0, 64, 60
1, 337401, Control_c, 0, 64, 60
1, 337416, Control_c, 0, 64, 59
1, 337431, Control_c, 0, 64, 59
1, 337461, Control_c, 0, 64, 58
1, 337475, Control_c, 0, 64, 58
1, 337485, Note_on_c, 0, 66, 65
1, 337498, Note_on_c, 0, 63, 49
1, 337499, Note_on_c, 0, 57, 35
1, 337505, Control_c, 0, 64, 57
1, 337520, Control_c, 0, 64, 57
1, 337553, Note_off_c, 0, 64, 55
1, 337557, Control_c, 0, 64, 56
1, 337577, Note_off_c, 0, 67, 57
1, 337587, Control_c, 0, 64, 56
1, 337604, Note_off_c, 0, 59, 43
1, 337616, Control_c, 0, 64, 55
1, 337631, Control_c, 0, 64, 55
1, 337660, Control_c, 0, 64, 54
1, 337690, Control_c, 0, 64, 54
1, 337705, Control_c, 0, 64, 53
1, 337720, Control_c, 0, 64, 52
1, 337735, Control_c, 0, 64, 51
1, 337750, Control_c, 0, 64, 51
1, 337765, Control_c, 0, 64, 50
1, 337778, Note_on_c, 0, 64, 75
1, 337789, Note_on_c, 0, 55, 47
1, 337809, Control_c, 0, 64, 50
1, 337824, Control_c, 0, 64, 52
1, 337827, Note_off_c, 0, 66, 59
1, 337839, Control_c, 0, 64, 55
1, 337841, Note_off_c, 0, 57, 64
1, 337853, Control_c, 0, 64, 58
1, 337858, Note_off_c, 0, 63, 59
1, 337868, Control_c, 0, 64, 61
1, 337883, Control_c, 0, 64, 65
1, 337898, Control_c, 0, 64, 70
1, 337911, Note_off_c, 0, 47, 51
1, 337913, Control_c, 0, 64, 81
1, 337927, Control_c, 0, 64, 105
1, 337942, Control_c, 0, 64, 127
1, 338014, Note_off_c, 0, 64, 54
1, 338131, Note_on_c, 0, 47, 33
1, 338137, Note_on_c, 0, 71, 81
1, 338148, Note_on_c, 0, 54, 36
1, 338161, Note_on_c, 0, 64, 51
1, 338180, Control_c, 0, 64, 115
1, 338195, Control_c, 0, 64, 109
1, 338210, Control_c, 0, 64, 104
1, 338224, Control_c, 0, 64, 100
1, 338239, Control_c, 0, 64, 97
1, 338254, Control_c, 0, 64, 94
1, 338268, Control_c, 0, 64, 92
1, 338283, Control_c, 0, 64, 89
1, 338306, Control_c, 0, 64, 86
1, 338321, Control_c, 0, 64, 84
1, 338336, Control_c, 0, 64, 81
1, 338350, Control_c, 0, 64, 78
1, 338365, Control_c, 0, 64, 77
1, 338380, Control_c, 0, 64, 75
1, 338395, Control_c, 0, 64, 74
1, 338410, Control_c, 0, 64, 72
1, 338424, Control_c, 0, 64, 70
1, 338435, Note_off_c, 0, 55, 35
1, 338439, Control_c, 0, 64, 68
1, 338454, Control_c, 0, 64, 67
1, 338468, Control_c, 0, 64, 66
1, 338483, Control_c, 0, 64, 65
1, 338498, Control_c, 0, 64, 64
1, 338513, Control_c, 0, 64, 64
1, 338528, Control_c, 0, 64, 63
1, 338543, Control_c, 0, 64, 62
1, 338557, Control_c, 0, 64, 61
1, 338572, Control_c, 0, 64, 61
1, 338587, Control_c, 0, 64, 60
1, 338602, Control_c, 0, 64, 60
1, 338617, Control_c, 0, 64, 59
1, 338632, Control_c, 0, 64, 58
1, 338647, Control_c, 0, 64, 57
1, 338662, Control_c, 0, 64, 56
1, 338676, Control_c, 0, 64, 56
1, 338691, Control_c, 0, 64, 55
1, 338706, Control_c, 0, 64, 54
1, 338721, Control_c, 0, 64, 54
1, 338736, Control_c, 0, 64, 53
1, 338750, Control_c, 0, 64, 53
1, 338765, Control_c, 0, 64, 52
1, 338780, Control_c, 0, 64, 52
1, 338796, Control_c, 0, 64, 51
1, 338811, Control_c, 0, 64, 51
1, 338826, Control_c, 0, 64, 50
1, 338826, Note_on_c, 0, 59, 39
1, 338837, Note_on_c, 0, 63, 48
1, 338855, Control_c, 0, 64, 49
1, 338870, Control_c, 0, 64, 49
1, 338885, Control_c, 0, 64, 48
1, 338899, Control_c, 0, 64, 48
1, 338914, Control_c, 0, 64, 47
1, 338929, Control_c, 0, 64, 47
1, 338938, Note_off_c, 0, 64, 52
1, 338944, Control_c, 0, 64, 46
1, 338959, Control_c, 0, 64, 45
1, 338973, Control_c, 0, 64, 45
1, 338988, Control_c, 0, 64, 44
1, 339018, Control_c, 0, 64, 44
1, 339159, Control_c, 0, 64, 44
1, 339173, Control_c, 0, 64, 45
1, 339183, Note_on_c, 0, 69, 62
1, 339188, Control_c, 0, 64, 46
1, 339196, Note_off_c, 0, 54, 35
1, 339203, Control_c, 0, 64, 46
1, 339218, Control_c, 0, 64, 47
1, 339233, Control_c, 0, 64, 48
1, 339247, Control_c, 0, 64, 50
1, 339262, Control_c, 0, 64, 52
1, 339277, Control_c, 0, 64, 55
1, 339291, Control_c, 0, 64, 57
1, 339293, Note_off_c, 0, 71, 54
1, 339306, Control_c, 0, 64, 60
1, 339321, Control_c, 0, 64, 62
1, 339336, Control_c, 0, 64, 64
1, 339351, Control_c, 0, 64, 68
1, 339365, Control_c, 0, 64, 73
1, 339380, Control_c, 0, 64, 80
1, 339395, Control_c, 0, 64, 89
1, 339410, Control_c, 0, 64, 96
1, 339425, Control_c, 0, 64, 103
1, 339439, Control_c, 0, 64, 106
1, 339442, Note_off_c, 0, 69, 56
1, 339454, Control_c, 0, 64, 107
1, 339513, Control_c, 0, 64, 106
1, 339528, Control_c, 0, 64, 105
1, 339543, Control_c, 0, 64, 104
1, 339558, Control_c, 0, 64, 102
1, 339572, Control_c, 0, 64, 101
1, 339587, Control_c, 0, 64, 100
1, 339594, Note_on_c, 0, 69, 53
1, 339603, Control_c, 0, 64, 99
1, 339618, Control_c, 0, 64, 98
1, 339633, Control_c, 0, 64, 96
1, 339648, Control_c, 0, 64, 94
1, 339663, Control_c, 0, 64, 92
1, 339677, Control_c, 0, 64, 91
1, 339692, Control_c, 0, 64, 89
1, 339707, Control_c, 0, 64, 87
1, 339721, Control_c, 0, 64, 86
1, 339736, Control_c, 0, 64, 85
1, 339751, Control_c, 0, 64, 84
1, 339766, Control_c, 0, 64, 83
1, 339781, Control_c, 0, 64, 82
1, 339803, Control_c, 0, 64, 80
1, 339818, Control_c, 0, 64, 79
1, 339833, Control_c, 0, 64, 78
1, 339848, Control_c, 0, 64, 76
1, 339863, Control_c, 0, 64, 75
1, 339877, Control_c, 0, 64, 73
1, 339892, Control_c, 0, 64, 72
1, 339907, Control_c, 0, 64, 71
1, 339921, Control_c, 0, 64, 70
1, 339936, Control_c, 0, 64, 69
1, 339951, Control_c, 0, 64, 68
1, 339966, Control_c, 0, 64, 68
1, 339981, Control_c, 0, 64, 67
1, 339995, Control_c, 0, 64, 67
1, 340010, Control_c, 0, 64, 66
1, 340025, Control_c, 0, 64, 65
1, 340040, Control_c, 0, 64, 65
1, 340055, Control_c, 0, 64, 64
1, 340069, Control_c, 0, 64, 63
1, 340084, Control_c, 0, 64, 63
1, 340099, Control_c, 0, 64, 62
1, 340114, Control_c, 0, 64, 62
1, 340143, Control_c, 0, 64, 61
1, 340173, Control_c, 0, 64, 61
1, 340188, Control_c, 0, 64, 60
1, 340203, Control_c, 0, 64, 60
1, 340247, Control_c, 0, 64, 59
1, 340277, Control_c, 0, 64, 59
1, 340307, Control_c, 0, 64, 58
1, 340336, Control_c, 0, 64, 58
1, 340365, Note_on_c, 0, 52, 34
1, 340373, Note_on_c, 0, 64, 25
1, 340377, Note_on_c, 0, 67, 42
1, 340381, Control_c, 0, 64, 57
1, 340426, Control_c, 0, 64, 57
1, 340456, Control_c, 0, 64, 56
1, 340471, Control_c, 0, 64, 56
1, 340486, Control_c, 0, 64, 55
1, 340500, Control_c, 0, 64, 55
1, 340503, Note_off_c, 0, 47, 34
1, 340515, Control_c, 0, 64, 54
1, 340530, Control_c, 0, 64, 53
1, 340552, Control_c, 0, 64, 52
1, 340567, Control_c, 0, 64, 51
1, 340575, Note_off_c, 0, 69, 38
1, 340582, Control_c, 0, 64, 50
1, 340596, Control_c, 0, 64, 49
1, 340600, Note_off_c, 0, 63, 35
1, 340671, Control_c, 0, 64, 50
1, 340686, Control_c, 0, 64, 51
1, 340700, Control_c, 0, 64, 52
1, 340715, Control_c, 0, 64, 55
1, 340730, Control_c, 0, 64, 57
1, 340744, Control_c, 0, 64, 59
1, 340759, Control_c, 0, 64, 61
1, 340774, Control_c, 0, 64, 63
1, 340789, Control_c, 0, 64, 64
1, 340794, Note_off_c, 0, 59, 40
1, 340804, Control_c, 0, 64, 66
1, 340818, Control_c, 0, 64, 69
1, 340833, Control_c, 0, 64, 74
1, 340841, Note_off_c, 0, 52, 42
1, 340844, Note_off_c, 0, 67, 47
1, 340848, Control_c, 0, 64, 79
1, 340854, Note_off_c, 0, 64, 37
1, 340862, Control_c, 0, 64, 85
1, 340877, Control_c, 0, 64, 89
1, 340892, Control_c, 0, 64, 91
1, 340907, Control_c, 0, 64, 92
1, 340996, Control_c, 0, 64, 91
1, 341011, Control_c, 0, 64, 91
1, 341041, Control_c, 0, 64, 90
1, 341055, Control_c, 0, 64, 89
1, 341070, Control_c, 0, 64, 89
1, 341085, Control_c, 0, 64, 88
1, 341100, Control_c, 0, 64, 87
1, 341115, Control_c, 0, 64, 86
1, 341130, Control_c, 0, 64, 85
1, 341144, Control_c, 0, 64, 83
1, 341159, Control_c, 0, 64, 82
1, 341174, Control_c, 0, 64, 81
1, 341190, Control_c, 0, 64, 80
1, 341205, Control_c, 0, 64, 79
1, 341219, Control_c, 0, 64, 78
1, 341234, Control_c, 0, 64, 77
1, 341249, Control_c, 0, 64, 77
1, 341250, Note_on_c, 0, 67, 67
1, 341261, Note_on_c, 0, 48, 38
1, 341264, Control_c, 0, 64, 76
1, 341264, Note_on_c, 0, 60, 37
1, 341268, Note_on_c, 0, 63, 51
1, 341279, Control_c, 0, 64, 76
1, 341300, Control_c, 0, 64, 75
1, 341315, Control_c, 0, 64, 73
1, 341330, Control_c, 0, 64, 70
1, 341345, Control_c, 0, 64, 67
1, 341360, Control_c, 0, 64, 63
1, 341374, Control_c, 0, 64, 59
1, 341389, Control_c, 0, 64, 56
1, 341419, Control_c, 0, 64, 57
1, 341434, Control_c, 0, 64, 58
1, 341449, Control_c, 0, 64, 59
1, 341464, Control_c, 0, 64, 61
1, 341479, Control_c, 0, 64, 63
1, 341493, Control_c, 0, 64, 66
1, 341508, Control_c, 0, 64, 70
1, 341523, Control_c, 0, 64, 76
1, 341538, Control_c, 0, 64, 87
1, 341553, Control_c, 0, 64, 112
1, 341567, Control_c, 0, 64, 127
1, 341595, Note_off_c, 0, 67, 57
1, 341595, Note_off_c, 0, 60, 55
1, 341597, Note_off_c, 0, 63, 34
1, 341604, Note_off_c, 0, 48, 39
1, 341813, Note_on_c, 0, 48, 47
1, 341816, Note_on_c, 0, 69, 85
1, 341825, Note_on_c, 0, 60, 40
1, 341829, Note_on_c, 0, 63, 64
1, 342049, Note_off_c, 0, 48, 51
1, 342069, Note_off_c, 0, 63, 56
1, 342092, Note_off_c, 0, 60, 36
1, 342113, Note_off_c, 0, 69, 57
1, 342415, Note_on_c, 0, 50, 49
1, 342415, Note_on_c, 0, 55, 51
1, 342415, Note_on_c, 0, 71, 87
1, 342439, Note_on_c, 0, 62, 54
1, 342493, Control_c, 0, 64, 122
1, 342508, Control_c, 0, 64, 109
1, 342522, Control_c, 0, 64, 103
1, 342537, Control_c, 0, 64, 98
1, 342552, Control_c, 0, 64, 93
1, 342567, Control_c, 0, 64, 89
1, 342582, Control_c, 0, 64, 85
1, 342597, Control_c, 0, 64, 81
1, 342612, Control_c, 0, 64, 77
1, 342626, Control_c, 0, 64, 74
1, 342641, Control_c, 0, 64, 72
1, 342656, Control_c, 0, 64, 70
1, 342671, Control_c, 0, 64, 68
1, 342686, Control_c, 0, 64, 66
1, 342701, Control_c, 0, 64, 65
1, 342715, Control_c, 0, 64, 63
1, 342730, Control_c, 0, 64, 63
1, 342745, Control_c, 0, 64, 62
1, 342760, Control_c, 0, 64, 62
1, 342775, Control_c, 0, 64, 61
1, 342798, Control_c, 0, 64, 61
1, 342812, Control_c, 0, 64, 60
1, 342827, Control_c, 0, 64, 59
1, 342842, Control_c, 0, 64, 58
1, 342857, Control_c, 0, 64, 57
1, 342872, Control_c, 0, 64, 57
1, 342886, Control_c, 0, 64, 56
1, 342901, Control_c, 0, 64, 55
1, 342916, Control_c, 0, 64, 54
1, 342931, Control_c, 0, 64, 52
1, 342945, Control_c, 0, 64, 51
1, 342960, Note_on_c, 0, 69, 78
1, 342960, Control_c, 0, 64, 49
1, 342969, Note_on_c, 0, 57, 55
1, 342975, Control_c, 0, 64, 46
1, 342990, Control_c, 0, 64, 41
1, 343005, Control_c, 0, 64, 35
1, 343020, Control_c, 0, 64, 28
1, 343035, Control_c, 0, 64, 14
1, 343050, Control_c, 0, 64, 0
1, 343130, Note_off_c, 0, 71, 50
1, 343165, Note_off_c, 0, 55, 47
1, 343232, Note_on_c, 0, 59, 61
1, 343236, Note_on_c, 0, 67, 85
1, 343324, Note_off_c, 0, 69, 53
1, 343332, Control_c, 0, 64, 30
1, 343346, Control_c, 0, 64, 52
1, 343353, Note_off_c, 0, 57, 55
1, 343361, Control_c, 0, 64, 62
1, 343376, Control_c, 0, 64, 70
1, 343391, Control_c, 0, 64, 85
1, 343406, Control_c, 0, 64, 127
1, 343458, Note_off_c, 0, 67, 60
1, 343478, Note_off_c, 0, 59, 55
1, 343553, Note_off_c, 0, 62, 36
1, 343604, Note_on_c, 0, 74, 89
1, 343610, Note_on_c, 0, 60, 57
1, 343622, Control_c, 0, 64, 117
1, 343623, Note_on_c, 0, 66, 63
1, 343636, Control_c, 0, 64, 104
1, 343651, Control_c, 0, 64, 99
1, 343666, Control_c, 0, 64, 97
1, 343681, Control_c, 0, 64, 96
1, 343696, Control_c, 0, 64, 95
1, 343710, Control_c, 0, 64, 92
1, 343725, Control_c, 0, 64, 90
1, 343740, Control_c, 0, 64, 85
1, 343755, Control_c, 0, 64, 80
1, 343769, Control_c, 0, 64, 73
1, 343784, Control_c, 0, 64, 65
1, 343799, Control_c, 0, 64, 57
1, 343814, Control_c, 0, 64, 50
1, 343843, Control_c, 0, 64, 51
1, 343858, Control_c, 0, 64, 54
1, 343873, Control_c, 0, 64, 57
1, 343888, Control_c, 0, 64, 61
1, 343903, Control_c, 0, 64, 63
1, 343917, Control_c, 0, 64, 66
1, 343932, Control_c, 0, 64, 73
1, 343947, Control_c, 0, 64, 84
1, 343962, Control_c, 0, 64, 101
1, 343977, Control_c, 0, 64, 127
1, 344018, Note_off_c, 0, 50, 37
1, 344267, Note_on_c, 0, 50, 61
1, 344275, Note_on_c, 0, 57, 63
1, 344373, Note_off_c, 0, 66, 30
1, 344521, Note_off_c, 0, 60, 34
1, 344536, Note_off_c, 0, 50, 56
1, 344633, Note_on_c, 0, 72, 84
1, 344669, Note_off_c, 0, 74, 62
1, 344764, Note_off_c, 0, 57, 34
1, 344921, Note_off_c, 0, 72, 56
1, 345073, Note_on_c, 0, 51, 69
1, 345079, Note_on_c, 0, 72, 85
1, 345089, Note_on_c, 0, 66, 69
1, 345092, Note_on_c, 0, 69, 71
1, 345223, Control_c, 0, 64, 114
1, 345238, Control_c, 0, 64, 103
1, 345253, Control_c, 0, 64, 96
1, 345267, Control_c, 0, 64, 91
1, 345282, Control_c, 0, 64, 86
1, 345297, Control_c, 0, 64, 82
1, 345312, Control_c, 0, 64, 79
1, 345327, Control_c, 0, 64, 76
1, 345341, Control_c, 0, 64, 73
1, 345356, Control_c, 0, 64, 71
1, 345371, Control_c, 0, 64, 69
1, 345386, Control_c, 0, 64, 67
1, 345401, Control_c, 0, 64, 65
1, 345415, Control_c, 0, 64, 63
1, 345430, Control_c, 0, 64, 62
1, 345460, Control_c, 0, 64, 61
1, 345475, Control_c, 0, 64, 60
1, 345489, Control_c, 0, 64, 60
1, 345504, Control_c, 0, 64, 59
1, 345519, Control_c, 0, 64, 58
1, 345533, Control_c, 0, 64, 57
1, 345548, Control_c, 0, 64, 56
1, 345563, Control_c, 0, 64, 56
1, 345578, Control_c, 0, 64, 55
1, 345593, Control_c, 0, 64, 55
1, 345607, Control_c, 0, 64, 54
1, 345622, Control_c, 0, 64, 54
1, 345637, Control_c, 0, 64, 53
1, 345652, Control_c, 0, 64, 53
1, 345682, Control_c, 0, 64, 52
1, 345697, Control_c, 0, 64, 52
1, 345712, Control_c, 0, 64, 51
1, 345726, Control_c, 0, 64, 50
1, 345741, Control_c, 0, 64, 50
1, 345756, Control_c, 0, 64, 49
1, 345771, Control_c, 0, 64, 47
1, 345793, Control_c, 0, 64, 46
1, 345807, Control_c, 0, 64, 44
1, 345822, Control_c, 0, 64, 42
1, 345837, Control_c, 0, 64, 39
1, 345852, Control_c, 0, 64, 35
1, 345867, Control_c, 0, 64, 31
1, 345882, Control_c, 0, 64, 27
1, 345894, Note_on_c, 0, 71, 69
1, 345896, Control_c, 0, 64, 24
1, 345911, Control_c, 0, 64, 23
1, 345926, Control_c, 0, 64, 22
1, 345941, Control_c, 0, 64, 22
1, 345956, Control_c, 0, 64, 21
1, 346016, Control_c, 0, 64, 22
1, 346028, Note_off_c, 0, 72, 57
1, 346031, Control_c, 0, 64, 25
1, 346046, Control_c, 0, 64, 32
1, 346060, Control_c, 0, 64, 40
1, 346075, Control_c, 0, 64, 48
1, 346090, Control_c, 0, 64, 53
1, 346105, Control_c, 0, 64, 57
1, 346114, Note_off_c, 0, 69, 57
1, 346120, Control_c, 0, 64, 60
1, 346134, Control_c, 0, 64, 62
1, 346149, Control_c, 0, 64, 64
1, 346163, Control_c, 0, 64, 68
1, 346178, Control_c, 0, 64, 74
1, 346193, Control_c, 0, 64, 82
1, 346208, Control_c, 0, 64, 95
1, 346215, Note_off_c, 0, 51, 38
1, 346223, Control_c, 0, 64, 127
1, 346242, Note_off_c, 0, 71, 59
1, 346284, Note_off_c, 0, 66, 52
1, 346732, Note_on_c, 0, 71, 76
1, 346738, Note_on_c, 0, 40, 48
1, 346742, Note_on_c, 0, 52, 48
1, 346743, Note_on_c, 0, 64, 63
1, 346745, Note_on_c, 0, 67, 62
1, 346824, Control_c, 0, 64, 116
1, 346838, Control_c, 0, 64, 109
1, 346853, Control_c, 0, 64, 103
1, 346868, Control_c, 0, 64, 97
1, 346883, Control_c, 0, 64, 92
1, 346898, Control_c, 0, 64, 87
1, 346913, Control_c, 0, 64, 82
1, 346928, Control_c, 0, 64, 79
1, 346943, Control_c, 0, 64, 76
1, 346958, Control_c, 0, 64, 73
1, 346973, Control_c, 0, 64, 71
1, 346987, Control_c, 0, 64, 69
1, 347002, Control_c, 0, 64, 67
1, 347017, Control_c, 0, 64, 65
1, 347032, Control_c, 0, 64, 64
1, 347047, Control_c, 0, 64, 61
1, 347061, Control_c, 0, 64, 57
1, 347076, Control_c, 0, 64, 51
1, 347091, Control_c, 0, 64, 47
1, 347106, Control_c, 0, 64, 47
1, 347135, Control_c, 0, 64, 49
1, 347150, Control_c, 0, 64, 52
1, 347165, Control_c, 0, 64, 55
1, 347179, Control_c, 0, 64, 59
1, 347194, Control_c, 0, 64, 62
1, 347209, Control_c, 0, 64, 66
1, 347224, Control_c, 0, 64, 71
1, 347239, Control_c, 0, 64, 80
1, 347253, Control_c, 0, 64, 93
1, 347268, Control_c, 0, 64, 113
1, 347291, Control_c, 0, 64, 127
1, 347303, Note_off_c, 0, 52, 40
1, 347399, Note_on_c, 0, 62, 64
1, 347855, Control_c, 0, 64, 122
1, 347870, Control_c, 0, 64, 117
1, 347884, Control_c, 0, 64, 115
1, 347899, Control_c, 0, 64, 112
1, 347914, Control_c, 0, 64, 110
1, 347928, Control_c, 0, 64, 108
1, 347943, Control_c, 0, 64, 105
1, 347958, Control_c, 0, 64, 103
1, 347963, Note_on_c, 0, 45, 42
1, 347965, Note_on_c, 0, 61, 62
1, 347973, Note_on_c, 0, 33, 38
1, 347973, Control_c, 0, 64, 100
1, 347988, Control_c, 0, 64, 97
1, 348002, Control_c, 0, 64, 93
1, 348017, Control_c, 0, 64, 90
1, 348040, Control_c, 0, 64, 86
1, 348055, Control_c, 0, 64, 84
1, 348070, Control_c, 0, 64, 81
1, 348084, Control_c, 0, 64, 78
1, 348099, Control_c, 0, 64, 76
1, 348114, Control_c, 0, 64, 73
1, 348129, Control_c, 0, 64, 69
1, 348141, Note_off_c, 0, 62, 32
1, 348143, Control_c, 0, 64, 64
1, 348157, Note_off_c, 0, 40, 29
1, 348158, Control_c, 0, 64, 57
1, 348173, Control_c, 0, 64, 51
1, 348188, Control_c, 0, 64, 50
1, 348217, Control_c, 0, 64, 51
1, 348232, Control_c, 0, 64, 54
1, 348247, Control_c, 0, 64, 57
1, 348262, Control_c, 0, 64, 61
1, 348277, Control_c, 0, 64, 64
1, 348291, Control_c, 0, 64, 67
1, 348306, Control_c, 0, 64, 76
1, 348321, Control_c, 0, 64, 90
1, 348335, Control_c, 0, 64, 120
1, 348350, Control_c, 0, 64, 127
1, 348364, Note_off_c, 0, 71, 53
1, 348535, Note_on_c, 0, 69, 60
1, 348663, Note_off_c, 0, 64, 38
1, 348846, Note_off_c, 0, 67, 35
1, 348966, Control_c, 0, 64, 125
1, 348981, Control_c, 0, 64, 120
1, 348996, Control_c, 0, 64, 115
1, 349011, Control_c, 0, 64, 114
1, 349026, Control_c, 0, 64, 112
1, 349040, Control_c, 0, 64, 110
1, 349055, Control_c, 0, 64, 109
1, 349063, Note_on_c, 0, 67, 63
1, 349070, Control_c, 0, 64, 108
1, 349085, Control_c, 0, 64, 106
1, 349100, Control_c, 0, 64, 104
1, 349114, Control_c, 0, 64, 102
1, 349129, Control_c, 0, 64, 100
1, 349144, Control_c, 0, 64, 99
1, 349158, Control_c, 0, 64, 97
1, 349173, Control_c, 0, 64, 96
1, 349189, Control_c, 0, 64, 95
1, 349204, Control_c, 0, 64, 93
1, 349219, Control_c, 0, 64, 92
1, 349234, Control_c, 0, 64, 90
1, 349248, Control_c, 0, 64, 89
1, 349263, Control_c, 0, 64, 88
1, 349278, Control_c, 0, 64, 86
1, 349293, Control_c, 0, 64, 85
1, 349308, Control_c, 0, 64, 84
1, 349322, Control_c, 0, 64, 83
1, 349337, Control_c, 0, 64, 81
1, 349352, Control_c, 0, 64, 79
1, 349367, Control_c, 0, 64, 78
1, 349381, Control_c, 0, 64, 76
1, 349396, Control_c, 0, 64, 75
1, 349411, Control_c, 0, 64, 73
1, 349426, Control_c, 0, 64, 72
1, 349441, Control_c, 0, 64, 70
1, 349456, Control_c, 0, 64, 69
1, 349471, Control_c, 0, 64, 68
1, 349485, Control_c, 0, 64, 67
1, 349500, Control_c, 0, 64, 66
1, 349515, Control_c, 0, 64, 64
1, 349537, Control_c, 0, 64, 63
1, 349547, Note_off_c, 0, 69, 32
1, 349552, Control_c, 0, 64, 63
1, 349567, Control_c, 0, 64, 62
1, 349575, Note_on_c, 0, 62, 47
1, 349578, Note_on_c, 0, 66, 61
1, 349581, Control_c, 0, 64, 62
1, 349611, Control_c, 0, 64, 61
1, 349626, Control_c, 0, 64, 60
1, 349641, Control_c, 0, 64, 59
1, 349655, Control_c, 0, 64, 58
1, 349670, Control_c, 0, 64, 56
1, 349685, Control_c, 0, 64, 53
1, 349700, Control_c, 0, 64, 50
1, 349715, Control_c, 0, 64, 46
1, 349723, Note_off_c, 0, 67, 57
1, 349730, Control_c, 0, 64, 42
1, 349745, Control_c, 0, 64, 40
1, 349775, Control_c, 0, 64, 41
1, 349789, Control_c, 0, 64, 43
1, 349804, Control_c, 0, 64, 47
1, 349807, Note_off_c, 0, 61, 54
1, 349819, Control_c, 0, 64, 51
1, 349834, Control_c, 0, 64, 55
1, 349849, Control_c, 0, 64, 59
1, 349863, Control_c, 0, 64, 62
1, 349876, Control_c, 0, 64, 65
1, 349891, Control_c, 0, 64, 69
1, 349906, Control_c, 0, 64, 76
1, 349921, Control_c, 0, 64, 87
1, 349936, Control_c, 0, 64, 104
1, 349946, Note_off_c, 0, 66, 52
1, 349950, Control_c, 0, 64, 127
1, 350162, Note_on_c, 0, 66, 50
1, 350204, Note_off_c, 0, 45, 36
1, 350417, Note_off_c, 0, 66, 50
1, 350610, Control_c, 0, 64, 122
1, 350626, Control_c, 0, 64, 119
1, 350641, Control_c, 0, 64, 116
1, 350656, Control_c, 0, 64, 114
1, 350671, Control_c, 0, 64, 112
1, 350685, Control_c, 0, 64, 110
1, 350700, Control_c, 0, 64, 109
1, 350715, Control_c, 0, 64, 108
1, 350729, Control_c, 0, 64, 106
1, 350744, Control_c, 0, 64, 104
1, 350759, Control_c, 0, 64, 102
1, 350775, Control_c, 0, 64, 100
1, 350790, Control_c, 0, 64, 98
1, 350805, Control_c, 0, 64, 96
1, 350806, Note_on_c, 0, 46, 32
1, 350809, Note_on_c, 0, 67, 49
1, 350811, Note_on_c, 0, 61, 38
1, 350812, Note_on_c, 0, 64, 43
1, 350812, Note_off_c, 0, 62, 36
1, 350818, Note_on_c, 0, 34, 32
1, 350820, Control_c, 0, 64, 94
1, 350834, Control_c, 0, 64, 93
1, 350849, Control_c, 0, 64, 91
1, 350864, Control_c, 0, 64, 89
1, 350879, Control_c, 0, 64, 86
1, 350894, Control_c, 0, 64, 81
1, 350908, Control_c, 0, 64, 72
1, 350919, Note_off_c, 0, 33, 34
1, 350923, Control_c, 0, 64, 65
1, 350938, Control_c, 0, 64, 56
1, 350953, Control_c, 0, 64, 49
1, 350968, Control_c, 0, 64, 49
1, 350997, Control_c, 0, 64, 50
1, 351012, Control_c, 0, 64, 53
1, 351034, Control_c, 0, 64, 57
1, 351049, Control_c, 0, 64, 61
1, 351064, Control_c, 0, 64, 64
1, 351079, Control_c, 0, 64, 68
1, 351094, Control_c, 0, 64, 73
1, 351108, Control_c, 0, 64, 83
1, 351123, Control_c, 0, 64, 93
1, 351138, Control_c, 0, 64, 102
1, 351152, Control_c, 0, 64, 105
1, 351182, Control_c, 0, 64, 104
1, 351197, Control_c, 0, 64, 104
1, 351212, Control_c, 0, 64, 103
1, 351226, Control_c, 0, 64, 102
1, 351241, Control_c, 0, 64, 101
1, 351256, Control_c, 0, 64, 99
1, 351267, Note_off_c, 0, 46, 38
1, 351271, Control_c, 0, 64, 98
1, 351286, Control_c, 0, 64, 96
1, 351301, Control_c, 0, 64, 94
1, 351316, Control_c, 0, 64, 92
1, 351331, Control_c, 0, 64, 90
1, 351345, Control_c, 0, 64, 88
1, 351360, Control_c, 0, 64, 86
1, 351375, Control_c, 0, 64, 82
1, 351390, Control_c, 0, 64, 75
1, 351402, Note_on_c, 0, 59, 49
1, 351405, Control_c, 0, 64, 69
1, 351407, Note_on_c, 0, 35, 33
1, 351413, Note_on_c, 0, 47, 28
1, 351414, Note_off_c, 0, 34, 34
1, 351419, Control_c, 0, 64, 62
1, 351434, Control_c, 0, 64, 53
1, 351449, Control_c, 0, 64, 47
1, 351479, Control_c, 0, 64, 48
1, 351494, Control_c, 0, 64, 51
1, 351508, Control_c, 0, 64, 54
1, 351523, Control_c, 0, 64, 58
1, 351538, Control_c, 0, 64, 61
1, 351552, Control_c, 0, 64, 64
1, 351567, Control_c, 0, 64, 67
1, 351568, Note_off_c, 0, 47, 40
1, 351568, Note_off_c, 0, 61, 39
1, 351584, Control_c, 0, 64, 71
1, 351598, Control_c, 0, 64, 77
1, 351613, Control_c, 0, 64, 86
1, 351628, Control_c, 0, 64, 95
1, 351642, Note_off_c, 0, 64, 52
1, 351643, Control_c, 0, 64, 104
1, 351646, Note_off_c, 0, 67, 36
1, 351657, Control_c, 0, 64, 109
1, 351672, Control_c, 0, 64, 110
1, 351687, Control_c, 0, 64, 111
1, 351702, Control_c, 0, 64, 112
1, 351717, Control_c, 0, 64, 113
1, 351738, Note_off_c, 0, 59, 55
1, 351813, Control_c, 0, 64, 112
1, 351828, Control_c, 0, 64, 112
1, 351843, Control_c, 0, 64, 111
1, 351857, Control_c, 0, 64, 110
1, 351872, Control_c, 0, 64, 109
1, 351887, Control_c, 0, 64, 108
1, 351902, Control_c, 0, 64, 107
1, 351917, Control_c, 0, 64, 105
1, 351931, Control_c, 0, 64, 103
1, 351946, Control_c, 0, 64, 100
1, 351961, Control_c, 0, 64, 98
1, 351975, Control_c, 0, 64, 96
1, 351990, Control_c, 0, 64, 94
1, 352005, Control_c, 0, 64, 91
1, 352020, Control_c, 0, 64, 88
1, 352029, Note_on_c, 0, 40, 38
1, 352033, Note_on_c, 0, 62, 41
1, 352034, Note_on_c, 0, 55, 38
1, 352035, Control_c, 0, 64, 84
1, 352037, Note_on_c, 0, 28, 34
1, 352043, Note_on_c, 0, 58, 34
1, 352049, Control_c, 0, 64, 82
1, 352064, Control_c, 0, 64, 79
1, 352079, Control_c, 0, 64, 76
1, 352094, Control_c, 0, 64, 72
1, 352109, Control_c, 0, 64, 66
1, 352120, Note_off_c, 0, 35, 32
1, 352124, Control_c, 0, 64, 57
1, 352138, Control_c, 0, 64, 46
1, 352153, Control_c, 0, 64, 44
1, 352183, Control_c, 0, 64, 46
1, 352198, Control_c, 0, 64, 48
1, 352213, Control_c, 0, 64, 51
1, 352228, Control_c, 0, 64, 54
1, 352242, Control_c, 0, 64, 56
1, 352257, Control_c, 0, 64, 58
1, 352272, Control_c, 0, 64, 60
1, 352287, Control_c, 0, 64, 62
1, 352302, Control_c, 0, 64, 64
1, 352316, Control_c, 0, 64, 67
1, 352331, Control_c, 0, 64, 71
1, 352346, Control_c, 0, 64, 76
1, 352361, Control_c, 0, 64, 81
1, 352377, Control_c, 0, 64, 86
1, 352392, Control_c, 0, 64, 90
1, 352406, Control_c, 0, 64, 92
1, 352421, Control_c, 0, 64, 93
1, 352451, Note_off_c, 0, 55, 52
1, 352459, Note_off_c, 0, 58, 40
1, 352466, Control_c, 0, 64, 93
1, 352547, Control_c, 0, 64, 93
1, 352562, Control_c, 0, 64, 92
1, 352592, Control_c, 0, 64, 92
1, 352601, Poly_aftertouch_c, 0, 30, 127
1, 352606, Control_c, 0, 64, 91
1, 352621, Control_c, 0, 64, 90
1, 352636, Control_c, 0, 64, 89
1, 352651, Control_c, 0, 64, 87
1, 352666, Control_c, 0, 64, 86
1, 352678, Note_on_c, 0, 55, 37
1, 352680, Control_c, 0, 64, 85
1, 352685, Note_on_c, 0, 61, 48
1, 352689, Note_on_c, 0, 58, 35
1, 352695, Control_c, 0, 64, 83
1, 352710, Control_c, 0, 64, 81
1, 352725, Control_c, 0, 64, 79
1, 352740, Control_c, 0, 64, 77
1, 352754, Control_c, 0, 64, 74
1, 352769, Control_c, 0, 64, 71
1, 352784, Control_c, 0, 64, 66
1, 352798, Control_c, 0, 64, 60
1, 352813, Control_c, 0, 64, 54
1, 352828, Control_c, 0, 64, 52
1, 352858, Control_c, 0, 64, 53
1, 352872, Control_c, 0, 64, 54
1, 352887, Control_c, 0, 64, 55
1, 352899, Note_off_c, 0, 62, 30
1, 352902, Control_c, 0, 64, 56
1, 352916, Control_c, 0, 64, 58
1, 352931, Control_c, 0, 64, 59
1, 352946, Control_c, 0, 64, 61
1, 352961, Control_c, 0, 64, 63
1, 352976, Control_c, 0, 64, 65
1, 352991, Control_c, 0, 64, 67
1, 353005, Control_c, 0, 64, 71
1, 353020, Control_c, 0, 64, 75
1, 353035, Control_c, 0, 64, 79
1, 353050, Control_c, 0, 64, 83
1, 353065, Control_c, 0, 64, 87
1, 353079, Control_c, 0, 64, 90
1, 353094, Control_c, 0, 64, 91
1, 353109, Control_c, 0, 64, 92
1, 353123, Control_c, 0, 64, 93
1, 353138, Control_c, 0, 64, 93
1, 353153, Control_c, 0, 64, 95
1, 353169, Control_c, 0, 64, 95
1, 353184, Control_c, 0, 64, 96
1, 353199, Control_c, 0, 64, 96
1, 353218, Note_off_c, 0, 58, 49
1, 353355, Control_c, 0, 64, 96
1, 353370, Control_c, 0, 64, 95
1, 353384, Control_c, 0, 64, 95
1, 353399, Control_c, 0, 64, 94
1, 353414, Control_c, 0, 64, 93
1, 353428, Note_on_c, 0, 56, 34
1, 353428, Control_c, 0, 64, 92
1, 353435, Note_on_c, 0, 59, 43
1, 353435, Note_on_c, 0, 62, 59
1, 353443, Control_c, 0, 64, 91
1, 353458, Control_c, 0, 64, 89
1, 353473, Control_c, 0, 64, 88
1, 353488, Control_c, 0, 64, 87
1, 353502, Control_c, 0, 64, 85
1, 353517, Control_c, 0, 64, 81
1, 353532, Control_c, 0, 64, 76
1, 353547, Control_c, 0, 64, 68
1, 353562, Control_c, 0, 64, 60
1, 353569, Note_off_c, 0, 55, 36
1, 353576, Control_c, 0, 64, 48
1, 353591, Control_c, 0, 64, 45
1, 353593, Note_off_c, 0, 61, 33
1, 353606, Control_c, 0, 64, 47
1, 353620, Control_c, 0, 64, 50
1, 353635, Control_c, 0, 64, 54
1, 353650, Control_c, 0, 64, 58
1, 353665, Control_c, 0, 64, 60
1, 353680, Control_c, 0, 64, 62
1, 353695, Control_c, 0, 64, 65
1, 353709, Control_c, 0, 64, 69
1, 353710, Poly_aftertouch_c, 0, 30, 0
1, 353724, Control_c, 0, 64, 74
1, 353739, Control_c, 0, 64, 80
1, 353742, Note_off_c, 0, 28, 39
1, 353754, Control_c, 0, 64, 86
1, 353769, Control_c, 0, 64, 91
1, 353784, Control_c, 0, 64, 96
1, 353799, Control_c, 0, 64, 99
1, 353814, Control_c, 0, 64, 100
1, 353828, Control_c, 0, 64, 101
1, 353843, Note_off_c, 0, 40, 43
1, 353972, Note_off_c, 0, 59, 39
1, 354058, Control_c, 0, 64, 100
1, 354073, Control_c, 0, 64, 100
1, 354103, Control_c, 0, 64, 99
1, 354118, Control_c, 0, 64, 99
1, 354133, Control_c, 0, 64, 98
1, 354148, Control_c, 0, 64, 98
1, 354163, Control_c, 0, 64, 97
1, 354192, Control_c, 0, 64, 97
1, 354207, Control_c, 0, 64, 96
1, 354222, Control_c, 0, 64, 96
1, 354251, Control_c, 0, 64, 95
1, 354266, Control_c, 0, 64, 94
1, 354281, Control_c, 0, 64, 94
1, 354296, Control_c, 0, 64, 93
1, 354311, Control_c, 0, 64, 92
1, 354325, Control_c, 0, 64, 91
1, 354330, Note_on_c, 0, 66, 64
1, 354340, Control_c, 0, 64, 90
1, 354344, Note_on_c, 0, 33, 28
1, 354347, Note_on_c, 0, 45, 26
1, 354350, Note_on_c, 0, 57, 38
1, 354355, Control_c, 0, 64, 88
1, 354370, Control_c, 0, 64, 87
1, 354385, Control_c, 0, 64, 85
1, 354400, Control_c, 0, 64, 83
1, 354415, Control_c, 0, 64, 81
1, 354430, Control_c, 0, 64, 78
1, 354441, Note_off_c, 0, 56, 41
1, 354444, Control_c, 0, 64, 77
1, 354459, Control_c, 0, 64, 75
1, 354474, Control_c, 0, 64, 74
1, 354489, Control_c, 0, 64, 72
1, 354504, Control_c, 0, 64, 68
1, 354518, Control_c, 0, 64, 63
1, 354533, Control_c, 0, 64, 55
1, 354548, Control_c, 0, 64, 46
1, 354562, Control_c, 0, 64, 46
1, 354577, Control_c, 0, 64, 46
1, 354592, Control_c, 0, 64, 48
1, 354607, Control_c, 0, 64, 51
1, 354622, Control_c, 0, 64, 54
1, 354637, Control_c, 0, 64, 57
1, 354651, Control_c, 0, 64, 60
1, 354666, Control_c, 0, 64, 63
1, 354681, Control_c, 0, 64, 64
1, 354696, Control_c, 0, 64, 67
1, 354711, Control_c, 0, 64, 70
1, 354726, Control_c, 0, 64, 75
1, 354741, Control_c, 0, 64, 80
1, 354755, Note_off_c, 0, 62, 35
1, 354756, Control_c, 0, 64, 86
1, 354779, Control_c, 0, 64, 93
1, 354794, Control_c, 0, 64, 101
1, 354809, Control_c, 0, 64, 108
1, 354823, Control_c, 0, 64, 116
1, 354824, Note_off_c, 0, 57, 37
1, 354838, Control_c, 0, 64, 127
1, 355104, Control_c, 0, 64, 125
1, 355134, Control_c, 0, 64, 122
1, 355149, Control_c, 0, 64, 120
1, 355164, Control_c, 0, 64, 119
1, 355179, Control_c, 0, 64, 117
1, 355208, Control_c, 0, 64, 115
1, 355223, Control_c, 0, 64, 115
1, 355238, Control_c, 0, 64, 113
1, 355253, Control_c, 0, 64, 112
1, 355267, Control_c, 0, 64, 111
1, 355282, Control_c, 0, 64, 110
1, 355297, Control_c, 0, 64, 109
1, 355312, Control_c, 0, 64, 108
1, 355327, Control_c, 0, 64, 106
1, 355341, Control_c, 0, 64, 105
1, 355356, Control_c, 0, 64, 104
1, 355361, Note_on_c, 0, 61, 35
1, 355370, Note_on_c, 0, 55, 27
1, 355371, Control_c, 0, 64, 102
1, 355380, Note_on_c, 0, 57, 28
1, 355386, Control_c, 0, 64, 101
1, 355400, Control_c, 0, 64, 100
1, 355415, Control_c, 0, 64, 98
1, 355430, Control_c, 0, 64, 97
1, 355445, Control_c, 0, 64, 96
1, 355460, Control_c, 0, 64, 95
1, 355474, Control_c, 0, 64, 93
1, 355489, Control_c, 0, 64, 92
1, 355504, Control_c, 0, 64, 90
1, 355527, Control_c, 0, 64, 88
1, 355542, Control_c, 0, 64, 87
1, 355556, Control_c, 0, 64, 86
1, 355572, Control_c, 0, 64, 85
1, 355587, Control_c, 0, 64, 84
1, 355602, Control_c, 0, 64, 83
1, 355617, Control_c, 0, 64, 81
1, 355631, Control_c, 0, 64, 80
1, 355646, Control_c, 0, 64, 78
1, 355661, Control_c, 0, 64, 76
1, 355676, Control_c, 0, 64, 74
1, 355691, Control_c, 0, 64, 73
1, 355705, Control_c, 0, 64, 71
1, 355720, Control_c, 0, 64, 70
1, 355735, Control_c, 0, 64, 70
1, 355750, Control_c, 0, 64, 69
1, 355765, Control_c, 0, 64, 68
1, 355779, Control_c, 0, 64, 67
1, 355794, Control_c, 0, 64, 66
1, 355809, Control_c, 0, 64, 65
1, 355838, Control_c, 0, 64, 64
1, 355883, Control_c, 0, 64, 64
1, 355912, Control_c, 0, 64, 63
1, 355942, Note_on_c, 0, 64, 41
1, 355957, Control_c, 0, 64, 63
1, 355987, Control_c, 0, 64, 62
1, 356016, Control_c, 0, 64, 62
1, 356061, Control_c, 0, 64, 61
1, 356090, Control_c, 0, 64, 61
1, 356120, Control_c, 0, 64, 60
1, 356135, Control_c, 0, 64, 60
1, 356150, Control_c, 0, 64, 59
1, 356155, Note_off_c, 0, 66, 32
1, 356164, Control_c, 0, 64, 58
1, 356179, Control_c, 0, 64, 57
1, 356194, Control_c, 0, 64, 56
1, 356209, Control_c, 0, 64, 54
1, 356223, Control_c, 0, 64, 52
1, 356238, Control_c, 0, 64, 51
1, 356253, Control_c, 0, 64, 48
1, 356276, Control_c, 0, 64, 46
1, 356291, Control_c, 0, 64, 45
1, 356305, Control_c, 0, 64, 45
1, 356407, Note_on_c, 0, 62, 44
1, 356410, Control_c, 0, 64, 46
1, 356425, Control_c, 0, 64, 47
1, 356440, Control_c, 0, 64, 49
1, 356452, Note_off_c, 0, 64, 52
1, 356454, Control_c, 0, 64, 51
1, 356469, Control_c, 0, 64, 54
1, 356484, Control_c, 0, 64, 57
1, 356499, Control_c, 0, 64, 60
1, 356514, Control_c, 0, 64, 61
1, 356528, Control_c, 0, 64, 63
1, 356538, Note_off_c, 0, 61, 58
1, 356543, Control_c, 0, 64, 65
1, 356558, Control_c, 0, 64, 69
1, 356569, Note_off_c, 0, 45, 39
1, 356573, Control_c, 0, 64, 74
1, 356588, Control_c, 0, 64, 82
1, 356602, Control_c, 0, 64, 96
1, 356616, Control_c, 0, 64, 115
1, 356626, Note_off_c, 0, 33, 38
1, 356631, Control_c, 0, 64, 127
1, 356637, Note_off_c, 0, 62, 60
1, 356686, Note_off_c, 0, 57, 43
1, 356736, Note_off_c, 0, 55, 41
1, 357128, Note_on_c, 0, 57, 29
1, 357129, Note_on_c, 0, 62, 32
1, 357134, Note_on_c, 0, 54, 26
1, 357137, Note_on_c, 0, 38, 27
1, 357137, Note_on_c, 0, 26, 27
1, 357188, Control_c, 0, 64, 125
1, 357203, Control_c, 0, 64, 119
1, 357217, Control_c, 0, 64, 115
1, 357232, Control_c, 0, 64, 113
1, 357247, Control_c, 0, 64, 110
1, 357262, Control_c, 0, 64, 108
1, 357276, Control_c, 0, 64, 106
1, 357291, Control_c, 0, 64, 104
1, 357306, Control_c, 0, 64, 102
1, 357321, Control_c, 0, 64, 100
1, 357336, Control_c, 0, 64, 98
1, 357350, Control_c, 0, 64, 96
1, 357365, Control_c, 0, 64, 94
1, 357380, Control_c, 0, 64, 91
1, 357394, Control_c, 0, 64, 88
1, 357409, Control_c, 0, 64, 86
1, 357424, Control_c, 0, 64, 85
1, 357439, Control_c, 0, 64, 83
1, 357454, Control_c, 0, 64, 81
1, 357468, Control_c, 0, 64, 78
1, 357483, Control_c, 0, 64, 76
1, 357498, Control_c, 0, 64, 75
1, 357513, Control_c, 0, 64, 73
1, 357528, Control_c, 0, 64, 72
1, 357543, Control_c, 0, 64, 70
1, 357558, Control_c, 0, 64, 68
1, 357573, Control_c, 0, 64, 67
1, 357587, Control_c, 0, 64, 65
1, 357602, Control_c, 0, 64, 64
1, 357617, Control_c, 0, 64, 63
1, 357632, Control_c, 0, 64, 62
1, 357647, Control_c, 0, 64, 61
1, 357661, Control_c, 0, 64, 60
1, 357676, Control_c, 0, 64, 58
1, 357691, Control_c, 0, 64, 57
1, 357706, Control_c, 0, 64, 55
1, 357721, Control_c, 0, 64, 54
1, 357735, Control_c, 0, 64, 53
1, 357750, Control_c, 0, 64, 51
1, 357772, Control_c, 0, 64, 49
1, 357787, Control_c, 0, 64, 47
1, 357802, Control_c, 0, 64, 45
1, 357817, Control_c, 0, 64, 42
1, 357832, Control_c, 0, 64, 39
1, 357847, Control_c, 0, 64, 35
1, 357861, Control_c, 0, 64, 31
1, 357876, Control_c, 0, 64, 27
1, 357891, Control_c, 0, 64, 25
1, 357906, Control_c, 0, 64, 23
1, 357996, Control_c, 0, 64, 26
1, 358011, Control_c, 0, 64, 30
1, 358026, Control_c, 0, 64, 34
1, 358040, Control_c, 0, 64, 39
1, 358055, Control_c, 0, 64, 44
1, 358070, Control_c, 0, 64, 47
1, 358085, Control_c, 0, 64, 50
1, 358099, Control_c, 0, 64, 53
1, 358115, Control_c, 0, 64, 56
1, 358130, Control_c, 0, 64, 58
1, 358145, Control_c, 0, 64, 59
1, 358160, Control_c, 0, 64, 61
1, 358174, Control_c, 0, 64, 62
1, 358189, Control_c, 0, 64, 63
1, 358204, Control_c, 0, 64, 64
1, 358218, Control_c, 0, 64, 65
1, 358233, Note_off_c, 0, 38, 28
1, 358233, Control_c, 0, 64, 67
1, 358248, Control_c, 0, 64, 69
1, 358263, Control_c, 0, 64, 71
1, 358278, Control_c, 0, 64, 73
1, 358292, Control_c, 0, 64, 75
1, 358307, Control_c, 0, 64, 78
1, 358322, Control_c, 0, 64, 80
1, 358337, Control_c, 0, 64, 84
1, 358352, Control_c, 0, 64, 87
1, 358366, Control_c, 0, 64, 90
1, 358381, Control_c, 0, 64, 93
1, 358396, Control_c, 0, 64, 96
1, 358410, Control_c, 0, 64, 100
1, 358425, Control_c, 0, 64, 104
1, 358440, Control_c, 0, 64, 110
1, 358455, Control_c, 0, 64, 125
1, 358470, Control_c, 0, 64, 127
1, 358583, Note_off_c, 0, 26, 35
1, 358750, Note_off_c, 0, 54, 39
1, 358761, Note_off_c, 0, 62, 39
1, 358795, Note_off_c, 0, 57, 33
1, 358804, Control_c, 0, 64, 122
1, 358819, Control_c, 0, 64, 116
1, 358834, Control_c, 0, 64, 113
1, 358848, Control_c, 0, 64, 111
1, 358863, Control_c, 0, 64, 109
1, 358878, Control_c, 0, 64, 107
1, 358893, Control_c, 0, 64, 105
1, 358908, Control_c, 0, 64, 103
1, 358923, Control_c, 0, 64, 101
1, 358938, Control_c, 0, 64, 98
1, 358953, Control_c, 0, 64, 96
1, 358968, Control_c, 0, 64, 94
1, 358983, Control_c, 0, 64, 92
1, 358997, Control_c, 0, 64, 91
1, 359012, Control_c, 0, 64, 90
1, 359027, Control_c, 0, 64, 90
1, 359041, Control_c, 0, 64, 89
1, 359056, Control_c, 0, 64, 88
1, 359071, Control_c, 0, 64, 87
1, 359086, Control_c, 0, 64, 86
1, 359101, Control_c, 0, 64, 84
1, 359115, Control_c, 0, 64, 83
1, 359130, Control_c, 0, 64, 82
1, 359145, Control_c, 0, 64, 81
1, 359160, Control_c, 0, 64, 80
1, 359175, Control_c, 0, 64, 79
1, 359189, Control_c, 0, 64, 78
1, 359204, Control_c, 0, 64, 76
1, 359219, Control_c, 0, 64, 75
1, 359233, Control_c, 0, 64, 73
1, 359248, Control_c, 0, 64, 72
1, 359271, Control_c, 0, 64, 71
1, 359286, Control_c, 0, 64, 71
1, 359301, Control_c, 0, 64, 70
1, 359315, Control_c, 0, 64, 69
1, 359330, Control_c, 0, 64, 68
1, 359345, Control_c, 0, 64, 67
1, 359360, Control_c, 0, 64, 67
1, 359375, Control_c, 0, 64, 66
1, 359389, Control_c, 0, 64, 66
1, 359419, Control_c, 0, 64, 65
1, 359448, Control_c, 0, 64, 65
1, 359478, Control_c, 0, 64, 64
1, 359493, Control_c, 0, 64, 64
1, 359508, Control_c, 0, 64, 63
1, 359522, Control_c, 0, 64, 63
1, 359552, Control_c, 0, 64, 62
1, 359583, Control_c, 0, 64, 62
1, 359627, Control_c, 0, 64, 61
1, 359656, Control_c, 0, 64, 61
1, 359700, Note_on_c, 0, 50, 29
1, 359701, Control_c, 0, 64, 60
1, 359731, Control_c, 0, 64, 60
1, 359761, Control_c, 0, 64, 59
1, 359776, Control_c, 0, 64, 58
1, 359790, Control_c, 0, 64, 57
1, 359805, Control_c, 0, 64, 56
1, 359820, Control_c, 0, 64, 54
1, 359835, Control_c, 0, 64, 53
1, 359850, Control_c, 0, 64, 52
1, 359879, Control_c, 0, 64, 52
1, 359894, Control_c, 0, 64, 53
1, 359909, Control_c, 0, 64, 55
1, 359924, Control_c, 0, 64, 57
1, 359938, Control_c, 0, 64, 59
1, 359953, Control_c, 0, 64, 60
1, 359968, Control_c, 0, 64, 62
1, 359983, Control_c, 0, 64, 64
1, 359998, Control_c, 0, 64, 66
1, 360020, Control_c, 0, 64, 70
1, 360035, Control_c, 0, 64, 74
1, 360050, Control_c, 0, 64, 80
1, 360064, Control_c, 0, 64, 85
1, 360079, Control_c, 0, 64, 90
1, 360094, Control_c, 0, 64, 93
1, 360109, Control_c, 0, 64, 95
1, 360124, Control_c, 0, 64, 98
1, 360138, Control_c, 0, 64, 100
1, 360153, Control_c, 0, 64, 101
1, 360168, Control_c, 0, 64, 102
1, 360223, Note_on_c, 0, 57, 31
1, 360232, Note_on_c, 0, 53, 33
1, 360301, Control_c, 0, 64, 102
1, 360331, Control_c, 0, 64, 101
1, 360345, Control_c, 0, 64, 101
1, 360375, Control_c, 0, 64, 100
1, 360390, Control_c, 0, 64, 100
1, 360405, Control_c, 0, 64, 99
1, 360434, Control_c, 0, 64, 99
1, 360449, Control_c, 0, 64, 98
1, 360464, Control_c, 0, 64, 97
1, 360478, Control_c, 0, 64, 96
1, 360493, Control_c, 0, 64, 96
1, 360508, Control_c, 0, 64, 95
1, 360523, Control_c, 0, 64, 95
1, 360538, Control_c, 0, 64, 94
1, 360552, Control_c, 0, 64, 93
1, 360567, Control_c, 0, 64, 93
1, 360582, Control_c, 0, 64, 92
1, 360595, Note_on_c, 0, 44, 37
1, 360597, Control_c, 0, 64, 91
1, 360612, Control_c, 0, 64, 90
1, 360626, Control_c, 0, 64, 89
1, 360641, Control_c, 0, 64, 88
1, 360656, Control_c, 0, 64, 87
1, 360671, Control_c, 0, 64, 86
1, 360685, Control_c, 0, 64, 84
1, 360700, Control_c, 0, 64, 83
1, 360715, Control_c, 0, 64, 83
1, 360730, Control_c, 0, 64, 82
1, 360767, Control_c, 0, 64, 82
1, 360825, Note_off_c, 0, 50, 38
1, 360856, Control_c, 0, 64, 81
1, 360867, Note_off_c, 0, 53, 37
1, 360871, Control_c, 0, 64, 81
1, 360900, Control_c, 0, 64, 80
1, 360920, Note_on_c, 0, 65, 45
1, 360935, Note_on_c, 0, 59, 34
1, 360956, Note_on_c, 0, 62, 31
1, 361004, Control_c, 0, 64, 80
1, 361063, Control_c, 0, 64, 79
1, 361093, Control_c, 0, 64, 79
1, 361108, Control_c, 0, 64, 78
1, 361123, Control_c, 0, 64, 78
1, 361153, Control_c, 0, 64, 77
1, 361162, Note_off_c, 0, 57, 40
1, 361166, Note_off_c, 0, 62, 40
1, 361168, Control_c, 0, 64, 76
1, 361183, Control_c, 0, 64, 76
1, 361197, Control_c, 0, 64, 75
1, 361211, Note_on_c, 0, 55, 45
1, 361212, Control_c, 0, 64, 74
1, 361227, Control_c, 0, 64, 73
1, 361242, Control_c, 0, 64, 71
1, 361257, Control_c, 0, 64, 68
1, 361272, Control_c, 0, 64, 64
1, 361287, Control_c, 0, 64, 60
1, 361302, Control_c, 0, 64, 60
1, 361316, Control_c, 0, 64, 61
1, 361331, Control_c, 0, 64, 61
1, 361346, Control_c, 0, 64, 63
1, 361361, Control_c, 0, 64, 64
1, 361376, Control_c, 0, 64, 65
1, 361390, Control_c, 0, 64, 66
1, 361405, Control_c, 0, 64, 67
1, 361406, Note_off_c, 0, 44, 37
1, 361420, Control_c, 0, 64, 68
1, 361449, Control_c, 0, 64, 67
1, 361454, Note_on_c, 0, 64, 55
1, 361464, Control_c, 0, 64, 66
1, 361473, Note_on_c, 0, 58, 36
1, 361479, Control_c, 0, 64, 63
1, 361494, Control_c, 0, 64, 60
1, 361495, Note_off_c, 0, 59, 42
1, 361510, Note_on_c, 0, 62, 30
1, 361516, Control_c, 0, 64, 59
1, 361521, Note_off_c, 0, 65, 31
1, 361531, Control_c, 0, 64, 60
1, 361546, Control_c, 0, 64, 62
1, 361561, Control_c, 0, 64, 64
1, 361576, Control_c, 0, 64, 66
1, 361590, Control_c, 0, 64, 68
1, 361605, Control_c, 0, 64, 72
1, 361620, Control_c, 0, 64, 77
1, 361634, Control_c, 0, 64, 81
1, 361649, Control_c, 0, 64, 80
1, 361664, Control_c, 0, 64, 76
1, 361679, Control_c, 0, 64, 70
1, 361694, Control_c, 0, 64, 65
1, 361705, Note_on_c, 0, 49, 42
1, 361708, Control_c, 0, 64, 62
1, 361723, Control_c, 0, 64, 64
1, 361738, Control_c, 0, 64, 67
1, 361739, Note_off_c, 0, 58, 63
1, 361750, Note_off_c, 0, 62, 56
1, 361753, Control_c, 0, 64, 72
1, 361763, Note_off_c, 0, 55, 36
1, 361768, Control_c, 0, 64, 80
1, 361773, Note_off_c, 0, 64, 64
1, 361782, Control_c, 0, 64, 91
1, 361797, Control_c, 0, 64, 111
1, 361812, Control_c, 0, 64, 127
1, 361931, Control_c, 0, 64, 117
1, 361946, Control_c, 0, 64, 96
1, 361955, Note_on_c, 0, 70, 67
1, 361961, Control_c, 0, 64, 79
1, 361976, Control_c, 0, 64, 67
1, 361981, Note_on_c, 0, 64, 43
1, 361991, Control_c, 0, 64, 58
1, 362005, Control_c, 0, 64, 59
1, 362020, Control_c, 0, 64, 62
1, 362035, Control_c, 0, 64, 64
1, 362039, Poly_aftertouch_c, 0, 67, 127
1, 362050, Control_c, 0, 64, 67
1, 362065, Control_c, 0, 64, 72
1, 362080, Control_c, 0, 64, 82
1, 362095, Control_c, 0, 64, 100
1, 362110, Control_c, 0, 64, 127
1, 362193, Note_on_c, 0, 57, 59
1, 362199, Control_c, 0, 64, 97
1, 362212, Poly_aftertouch_c, 0, 67, 0
1, 362213, Control_c, 0, 64, 76
1, 362228, Control_c, 0, 64, 66
1, 362239, Note_off_c, 0, 64, 54
1, 362243, Control_c, 0, 64, 62
1, 362265, Control_c, 0, 64, 64
1, 362280, Control_c, 0, 64, 67
1, 362294, Control_c, 0, 64, 70
1, 362309, Control_c, 0, 64, 76
1, 362320, Note_off_c, 0, 49, 58
1, 362324, Control_c, 0, 64, 85
1, 362339, Control_c, 0, 64, 105
1, 362354, Control_c, 0, 64, 127
1, 362413, Control_c, 0, 64, 105
1, 362418, Note_off_c, 0, 70, 57
1, 362428, Control_c, 0, 64, 80
1, 362441, Note_on_c, 0, 69, 78
1, 362443, Control_c, 0, 64, 66
1, 362457, Control_c, 0, 64, 56
1, 362466, Note_on_c, 0, 61, 53
1, 362466, Note_on_c, 0, 64, 49
1, 362472, Control_c, 0, 64, 57
1, 362473, Note_on_c, 0, 67, 50
1, 362487, Control_c, 0, 64, 60
1, 362502, Control_c, 0, 64, 63
1, 362517, Control_c, 0, 64, 65
1, 362531, Control_c, 0, 64, 70
1, 362546, Control_c, 0, 64, 77
1, 362561, Control_c, 0, 64, 98
1, 362576, Control_c, 0, 64, 127
1, 362636, Control_c, 0, 64, 107
1, 362651, Control_c, 0, 64, 74
1, 362665, Control_c, 0, 64, 61
1, 362680, Control_c, 0, 64, 50
1, 362691, Note_on_c, 0, 50, 49
1, 362695, Note_off_c, 0, 61, 62
1, 362695, Control_c, 0, 64, 55
1, 362705, Note_off_c, 0, 64, 62
1, 362709, Note_off_c, 0, 67, 58
1, 362710, Control_c, 0, 64, 60
1, 362721, Note_off_c, 0, 57, 58
1, 362725, Control_c, 0, 64, 64
1, 362739, Note_off_c, 0, 69, 62
1, 362739, Control_c, 0, 64, 71
1, 362755, Control_c, 0, 64, 82
1, 362770, Control_c, 0, 64, 112
1, 362785, Control_c, 0, 64, 127
1, 362962, Control_c, 0, 64, 90
1, 362968, Note_on_c, 0, 77, 79
1, 362977, Control_c, 0, 64, 72
1, 362983, Note_on_c, 0, 65, 18
1, 362990, Note_on_c, 0, 69, 48
1, 362992, Control_c, 0, 64, 60
1, 362995, Note_on_c, 0, 74, 49
1, 363015, Control_c, 0, 64, 51
1, 363030, Control_c, 0, 64, 54
1, 363044, Control_c, 0, 64, 59
1, 363047, Note_off_c, 0, 65, 42
1, 363059, Control_c, 0, 64, 62
1, 363074, Control_c, 0, 64, 66
1, 363088, Control_c, 0, 64, 70
1, 363103, Control_c, 0, 64, 79
1, 363118, Control_c, 0, 64, 98
1, 363133, Control_c, 0, 64, 127
1, 363148, Note_off_c, 0, 50, 36
1, 363257, Note_off_c, 0, 69, 36
1, 363274, Note_off_c, 0, 74, 36
1, 363281, Control_c, 0, 64, 125
1, 363292, Note_on_c, 0, 64, 60
1, 363296, Control_c, 0, 64, 87
1, 363311, Control_c, 0, 64, 72
1, 363326, Control_c, 0, 64, 63
1, 363341, Control_c, 0, 64, 58
1, 363354, Control_c, 0, 64, 60
1, 363369, Control_c, 0, 64, 63
1, 363384, Control_c, 0, 64, 66
1, 363398, Control_c, 0, 64, 69
1, 363413, Control_c, 0, 64, 75
1, 363428, Control_c, 0, 64, 84
1, 363443, Control_c, 0, 64, 99
1, 363458, Control_c, 0, 64, 127
1, 363517, Control_c, 0, 64, 109
1, 363532, Control_c, 0, 64, 88
1, 363547, Control_c, 0, 64, 74
1, 363552, Note_on_c, 0, 74, 67
1, 363563, Control_c, 0, 64, 66
1, 363565, Note_on_c, 0, 71, 54
1, 363566, Note_on_c, 0, 68, 54
1, 363577, Control_c, 0, 64, 64
1, 363579, Note_off_c, 0, 77, 52
1, 363592, Control_c, 0, 64, 66
1, 363607, Control_c, 0, 64, 69
1, 363622, Control_c, 0, 64, 72
1, 363637, Control_c, 0, 64, 77
1, 363651, Control_c, 0, 64, 85
1, 363666, Control_c, 0, 64, 101
1, 363681, Control_c, 0, 64, 127
1, 363725, Control_c, 0, 64, 122
1, 363740, Control_c, 0, 64, 94
1, 363763, Control_c, 0, 64, 75
1, 363778, Control_c, 0, 64, 64
1, 363792, Control_c, 0, 64, 59
1, 363807, Control_c, 0, 64, 60
1, 363819, Note_on_c, 0, 57, 44
1, 363822, Control_c, 0, 64, 63
1, 363836, Control_c, 0, 64, 66
1, 363851, Control_c, 0, 64, 70
1, 363866, Control_c, 0, 64, 78
1, 363881, Note_off_c, 0, 68, 57
1, 363881, Control_c, 0, 64, 90
1, 363892, Note_off_c, 0, 64, 36
1, 363896, Control_c, 0, 64, 110
1, 363910, Control_c, 0, 64, 127
1, 363985, Control_c, 0, 64, 110
1, 363999, Control_c, 0, 64, 88
1, 364014, Control_c, 0, 64, 72
1, 364019, Note_off_c, 0, 74, 48
1, 364029, Control_c, 0, 64, 62
1, 364043, Note_off_c, 0, 71, 37
1, 364044, Control_c, 0, 64, 55
1, 364044, Note_on_c, 0, 73, 51
1, 364049, Note_on_c, 0, 64, 31
1, 364056, Note_on_c, 0, 69, 38
1, 364059, Control_c, 0, 64, 58
1, 364074, Control_c, 0, 64, 60
1, 364089, Control_c, 0, 64, 62
1, 364103, Control_c, 0, 64, 63
1, 364118, Control_c, 0, 64, 65
1, 364133, Control_c, 0, 64, 69
1, 364148, Control_c, 0, 64, 74
1, 364163, Control_c, 0, 64, 84
1, 364177, Control_c, 0, 64, 96
1, 364192, Control_c, 0, 64, 108
1, 364207, Control_c, 0, 64, 110
1, 364222, Control_c, 0, 64, 99
1, 364236, Control_c, 0, 64, 83
1, 364251, Control_c, 0, 64, 69
1, 364266, Control_c, 0, 64, 58
1, 364281, Control_c, 0, 64, 55
1, 364296, Control_c, 0, 64, 59
1, 364306, Note_on_c, 0, 50, 35
1, 364310, Control_c, 0, 64, 64
1, 364323, Note_off_c, 0, 69, 59
1, 364325, Control_c, 0, 64, 68
1, 364333, Note_off_c, 0, 57, 62
1, 364340, Control_c, 0, 64, 77
1, 364351, Note_off_c, 0, 73, 64
1, 364356, Control_c, 0, 64, 91
1, 364369, Note_off_c, 0, 64, 54
1, 364371, Control_c, 0, 64, 120
1, 364386, Control_c, 0, 64, 127
1, 364527, Control_c, 0, 64, 113
1, 364541, Control_c, 0, 64, 92
1, 364556, Control_c, 0, 64, 77
1, 364571, Control_c, 0, 64, 66
1, 364586, Control_c, 0, 64, 59
1, 364601, Control_c, 0, 64, 59
1, 364608, Note_on_c, 0, 69, 35
1, 364615, Control_c, 0, 64, 62
1, 364626, Note_on_c, 0, 62, 19
1, 364630, Control_c, 0, 64, 65
1, 364632, Note_on_c, 0, 60, 27
1, 364633, Note_on_c, 0, 66, 30
1, 364645, Control_c, 0, 64, 69
1, 364659, Control_c, 0, 64, 73
1, 364674, Control_c, 0, 64, 79
1, 364689, Control_c, 0, 64, 89
1, 364704, Control_c, 0, 64, 98
1, 364719, Control_c, 0, 64, 107
1, 364733, Control_c, 0, 64, 112
1, 364748, Control_c, 0, 64, 114
1, 364793, Control_c, 0, 64, 112
1, 364807, Control_c, 0, 64, 107
1, 364822, Control_c, 0, 64, 98
1, 364837, Control_c, 0, 64, 84
1, 364852, Control_c, 0, 64, 72
1, 364867, Control_c, 0, 64, 65
1, 364875, Note_on_c, 0, 43, 33
1, 364882, Control_c, 0, 64, 62
1, 364891, Note_off_c, 0, 69, 54
1, 364897, Control_c, 0, 64, 64
1, 364912, Control_c, 0, 64, 66
1, 364926, Control_c, 0, 64, 70
1, 364941, Control_c, 0, 64, 75
1, 364947, Note_off_c, 0, 60, 42
1, 364956, Control_c, 0, 64, 83
1, 364971, Control_c, 0, 64, 94
1, 364986, Control_c, 0, 64, 111
1, 364998, Note_off_c, 0, 66, 40
1, 365000, Control_c, 0, 64, 127
1, 365015, Note_off_c, 0, 62, 37
1, 365016, Note_off_c, 0, 50, 35
1, 365059, Control_c, 0, 64, 122
1, 365074, Control_c, 0, 64, 94
1, 365089, Control_c, 0, 64, 77
1, 365104, Control_c, 0, 64, 66
1, 365115, Note_on_c, 0, 70, 53
1, 365119, Control_c, 0, 64, 61
1, 365125, Note_on_c, 0, 58, 37
1, 365133, Note_on_c, 0, 62, 19
1, 365133, Control_c, 0, 64, 62
1, 365149, Control_c, 0, 64, 65
1, 365150, Note_on_c, 0, 67, 36
1, 365164, Control_c, 0, 64, 68
1, 365179, Control_c, 0, 64, 74
1, 365194, Control_c, 0, 64, 83
1, 365209, Control_c, 0, 64, 97
1, 365223, Control_c, 0, 64, 127
1, 365290, Control_c, 0, 64, 122
1, 365305, Control_c, 0, 64, 90
1, 365320, Control_c, 0, 64, 74
1, 365335, Control_c, 0, 64, 65
1, 365350, Control_c, 0, 64, 63
1, 365356, Note_on_c, 0, 55, 49
1, 365364, Control_c, 0, 64, 65
1, 365379, Control_c, 0, 64, 69
1, 365394, Control_c, 0, 64, 75
1, 365409, Control_c, 0, 64, 83
1, 365424, Control_c, 0, 64, 94
1, 365428, Note_off_c, 0, 58, 62
1, 365438, Control_c, 0, 64, 127
1, 365439, Note_off_c, 0, 70, 36
1, 365455, Note_off_c, 0, 43, 34
1, 365479, Note_off_c, 0, 67, 28
1, 365542, Control_c, 0, 64, 97
1, 365556, Control_c, 0, 64, 76
1, 365568, Note_off_c, 0, 62, 0
1, 365571, Control_c, 0, 64, 65
1, 365586, Control_c, 0, 64, 60
1, 365588, Note_on_c, 0, 71, 76
1, 365588, Note_on_c, 0, 62, 24
1, 365601, Note_on_c, 0, 67, 53
1, 365601, Control_c, 0, 64, 62
1, 365614, Note_on_c, 0, 65, 49
1, 365616, Control_c, 0, 64, 65
1, 365630, Control_c, 0, 64, 69
1, 365645, Control_c, 0, 64, 74
1, 365660, Control_c, 0, 64, 82
1, 365675, Control_c, 0, 64, 96
1, 365690, Control_c, 0, 64, 127
1, 365779, Control_c, 0, 64, 95
1, 365794, Control_c, 0, 64, 74
1, 365809, Control_c, 0, 64, 63
1, 365819, Note_on_c, 0, 48, 64
1, 365823, Control_c, 0, 64, 61
1, 365838, Control_c, 0, 64, 64
1, 365853, Control_c, 0, 64, 67
1, 365868, Control_c, 0, 64, 71
1, 365882, Control_c, 0, 64, 77
1, 365883, Note_off_c, 0, 62, 51
1, 365894, Note_off_c, 0, 65, 57
1, 365897, Control_c, 0, 64, 88
1, 365912, Control_c, 0, 64, 109
1, 365924, Note_off_c, 0, 67, 57
1, 365927, Control_c, 0, 64, 127
1, 365940, Note_off_c, 0, 55, 36
1, 365948, Note_off_c, 0, 71, 53
1, 366068, Control_c, 0, 64, 93
1, 366083, Control_c, 0, 64, 73
1, 366084, Note_on_c, 0, 72, 83
1, 366096, Note_on_c, 0, 67, 58
1, 366098, Control_c, 0, 64, 60
1, 366107, Note_on_c, 0, 65, 51
1, 366107, Note_on_c, 0, 60, 56
1, 366113, Control_c, 0, 64, 56
1, 366128, Control_c, 0, 64, 60
1, 366143, Control_c, 0, 64, 63
1, 366158, Control_c, 0, 64, 67
1, 366173, Control_c, 0, 64, 71
1, 366187, Control_c, 0, 64, 80
1, 366202, Control_c, 0, 64, 91
1, 366205, Note_off_c, 0, 48, 43
1, 366217, Control_c, 0, 64, 107
1, 366232, Control_c, 0, 64, 127
1, 366348, Note_on_c, 0, 58, 70
1, 366351, Control_c, 0, 64, 105
1, 366366, Control_c, 0, 64, 78
1, 366381, Control_c, 0, 64, 64
1, 366396, Control_c, 0, 64, 55
1, 366411, Control_c, 0, 64, 57
1, 366426, Control_c, 0, 64, 62
1, 366441, Control_c, 0, 64, 65
1, 366450, Note_off_c, 0, 72, 58
1, 366455, Control_c, 0, 64, 70
1, 366470, Control_c, 0, 64, 80
1, 366477, Note_off_c, 0, 65, 57
1, 366485, Control_c, 0, 64, 95
1, 366499, Control_c, 0, 64, 127
1, 366545, Note_off_c, 0, 67, 33
1, 366582, Note_off_c, 0, 60, 46
1, 366618, Control_c, 0, 64, 94
1, 366623, Note_on_c, 0, 74, 84
1, 366632, Control_c, 0, 64, 75
1, 366634, Note_on_c, 0, 60, 42
1, 366647, Control_c, 0, 64, 61
1, 366650, Note_on_c, 0, 64, 53
1, 366662, Control_c, 0, 64, 54
1, 366676, Note_on_c, 0, 67, 23
1, 366677, Control_c, 0, 64, 57
1, 366692, Control_c, 0, 64, 61
1, 366706, Control_c, 0, 64, 63
1, 366721, Control_c, 0, 64, 66
1, 366736, Control_c, 0, 64, 69
1, 366760, Control_c, 0, 64, 74
1, 366762, Note_off_c, 0, 67, 0
1, 366775, Control_c, 0, 64, 82
1, 366790, Control_c, 0, 64, 95
1, 366799, Poly_aftertouch_c, 0, 67, 127
1, 366804, Control_c, 0, 64, 113
1, 366819, Control_c, 0, 64, 127
1, 366849, Control_c, 0, 64, 125
1, 366862, Note_on_c, 0, 57, 66
1, 366864, Control_c, 0, 64, 97
1, 366878, Control_c, 0, 64, 79
1, 366893, Control_c, 0, 64, 65
1, 366908, Control_c, 0, 64, 57
1, 366923, Control_c, 0, 64, 59
1, 366937, Control_c, 0, 64, 62
1, 366952, Control_c, 0, 64, 65
1, 366958, Note_off_c, 0, 74, 53
1, 366967, Control_c, 0, 64, 69
1, 366982, Control_c, 0, 64, 77
1, 366997, Control_c, 0, 64, 90
1, 367004, Note_off_c, 0, 64, 54
1, 367011, Control_c, 0, 64, 127
1, 367021, Poly_aftertouch_c, 0, 67, 0
1, 367034, Note_off_c, 0, 60, 58
1, 367040, Note_off_c, 0, 58, 36
1, 367085, Control_c, 0, 64, 95
1, 367100, Control_c, 0, 64, 76
1, 367100, Note_on_c, 0, 72, 86
1, 367106, Note_on_c, 0, 69, 48
1, 367115, Control_c, 0, 64, 62
1, 367120, Note_on_c, 0, 60, 59
1, 367122, Note_on_c, 0, 65, 57
1, 367129, Control_c, 0, 64, 54
1, 367144, Control_c, 0, 64, 57
1, 367159, Control_c, 0, 64, 61
1, 367174, Control_c, 0, 64, 64
1, 367189, Control_c, 0, 64, 67
1, 367203, Control_c, 0, 64, 74
1, 367218, Control_c, 0, 64, 86
1, 367233, Control_c, 0, 64, 114
1, 367247, Control_c, 0, 64, 127
1, 367321, Control_c, 0, 64, 100
1, 367331, Note_on_c, 0, 52, 59
1, 367336, Control_c, 0, 64, 79
1, 367351, Control_c, 0, 64, 65
1, 367366, Control_c, 0, 64, 56
1, 367381, Control_c, 0, 64, 55
1, 367389, Note_off_c, 0, 69, 44
1, 367395, Control_c, 0, 64, 59
1, 367410, Control_c, 0, 64, 62
1, 367425, Control_c, 0, 64, 65
1, 367436, Note_off_c, 0, 60, 61
1, 367440, Control_c, 0, 64, 68
1, 367454, Control_c, 0, 64, 74
1, 367462, Note_off_c, 0, 57, 54
1, 367469, Control_c, 0, 64, 84
1, 367484, Control_c, 0, 64, 102
1, 367507, Control_c, 0, 64, 127
1, 367536, Control_c, 0, 64, 113
1, 367552, Control_c, 0, 64, 96
1, 367567, Control_c, 0, 64, 80
1, 367577, Note_on_c, 0, 70, 70
1, 367582, Control_c, 0, 64, 66
1, 367583, Note_on_c, 0, 61, 55
1, 367588, Note_on_c, 0, 67, 56
1, 367597, Control_c, 0, 64, 55
1, 367599, Note_off_c, 0, 65, 56
1, 367612, Control_c, 0, 64, 51
1, 367626, Note_off_c, 0, 72, 58
1, 367626, Control_c, 0, 64, 56
1, 367641, Control_c, 0, 64, 60
1, 367656, Control_c, 0, 64, 63
1, 367671, Control_c, 0, 64, 66
1, 367686, Control_c, 0, 64, 71
1, 367700, Control_c, 0, 64, 77
1, 367715, Control_c, 0, 64, 87
1, 367730, Control_c, 0, 64, 97
1, 367745, Control_c, 0, 64, 104
1, 367759, Control_c, 0, 64, 102
1, 367774, Control_c, 0, 64, 96
1, 367789, Control_c, 0, 64, 84
1, 367804, Control_c, 0, 64, 72
1, 367814, Note_on_c, 0, 53, 57
1, 367819, Control_c, 0, 64, 62
1, 367833, Control_c, 0, 64, 51
1, 367851, Note_off_c, 0, 52, 23
1, 367863, Control_c, 0, 64, 56
1, 367878, Control_c, 0, 64, 60
1, 367893, Control_c, 0, 64, 63
1, 367907, Control_c, 0, 64, 65
1, 367922, Control_c, 0, 64, 68
1, 367937, Control_c, 0, 64, 73
1, 367952, Control_c, 0, 64, 83
1, 367967, Control_c, 0, 64, 95
1, 367982, Control_c, 0, 64, 110
1, 367997, Control_c, 0, 64, 125
1, 368010, Note_off_c, 0, 61, 37
1, 368026, Control_c, 0, 64, 119
1, 368041, Control_c, 0, 64, 108
1, 368056, Control_c, 0, 64, 94
1, 368067, Note_on_c, 0, 60, 48
1, 368070, Note_on_c, 0, 69, 57
1, 368070, Control_c, 0, 64, 78
1, 368085, Control_c, 0, 64, 65
1, 368093, Note_on_c, 0, 65, 35
1, 368097, Note_off_c, 0, 70, 61
1, 368100, Control_c, 0, 64, 54
1, 368115, Control_c, 0, 64, 51
1, 368130, Control_c, 0, 64, 55
1, 368141, Note_off_c, 0, 67, 31
1, 368145, Control_c, 0, 64, 59
1, 368160, Control_c, 0, 64, 63
1, 368175, Control_c, 0, 64, 65
1, 368190, Control_c, 0, 64, 68
1, 368205, Control_c, 0, 64, 73
1, 368219, Control_c, 0, 64, 81
1, 368234, Control_c, 0, 64, 95
1, 368256, Control_c, 0, 64, 111
1, 368271, Control_c, 0, 64, 127
1, 368301, Control_c, 0, 64, 115
1, 368316, Control_c, 0, 64, 101
1, 368326, Note_on_c, 0, 46, 55
1, 368331, Control_c, 0, 64, 82
1, 368346, Control_c, 0, 64, 68
1, 368361, Control_c, 0, 64, 58
1, 368375, Control_c, 0, 64, 54
1, 368390, Note_off_c, 0, 65, 40
1, 368390, Control_c, 0, 64, 57
1, 368405, Control_c, 0, 64, 61
1, 368420, Control_c, 0, 64, 64
1, 368435, Control_c, 0, 64, 66
1, 368444, Note_off_c, 0, 53, 30
1, 368450, Control_c, 0, 64, 69
1, 368465, Control_c, 0, 64, 74
1, 368480, Control_c, 0, 64, 80
1, 368495, Control_c, 0, 64, 88
1, 368502, Note_off_c, 0, 60, 36
1, 368509, Control_c, 0, 64, 98
1, 368524, Control_c, 0, 64, 100
1, 368539, Control_c, 0, 64, 99
1, 368554, Control_c, 0, 64, 95
1, 368569, Control_c, 0, 64, 86
1, 368583, Control_c, 0, 64, 75
1, 368590, Note_on_c, 0, 66, 40
1, 368591, Note_on_c, 0, 60, 10
1, 368598, Control_c, 0, 64, 64
1, 368607, Note_on_c, 0, 63, 28
1, 368613, Control_c, 0, 64, 59
1, 368628, Control_c, 0, 64, 60
1, 368643, Control_c, 0, 64, 62
1, 368657, Control_c, 0, 64, 64
1, 368672, Note_off_c, 0, 69, 35
1, 368672, Control_c, 0, 64, 67
1, 368687, Control_c, 0, 64, 71
1, 368701, Control_c, 0, 64, 77
1, 368716, Control_c, 0, 64, 85
1, 368731, Control_c, 0, 64, 92
1, 368746, Control_c, 0, 64, 96
1, 368761, Control_c, 0, 64, 95
1, 368775, Control_c, 0, 64, 92
1, 368790, Control_c, 0, 64, 83
1, 368805, Control_c, 0, 64, 73
1, 368820, Control_c, 0, 64, 64
1, 368831, Note_on_c, 0, 45, 48
1, 368835, Control_c, 0, 64, 56
1, 368849, Control_c, 0, 64, 56
1, 368864, Control_c, 0, 64, 59
1, 368866, Note_off_c, 0, 60, 36
1, 368879, Control_c, 0, 64, 62
1, 368894, Control_c, 0, 64, 64
1, 368909, Control_c, 0, 64, 67
1, 368924, Control_c, 0, 64, 70
1, 368939, Control_c, 0, 64, 76
1, 368950, Note_off_c, 0, 46, 53
1, 368954, Control_c, 0, 64, 82
1, 368968, Control_c, 0, 64, 87
1, 369005, Control_c, 0, 64, 85
1, 369020, Control_c, 0, 64, 81
1, 369035, Control_c, 0, 64, 73
1, 369049, Control_c, 0, 64, 64
1, 369064, Control_c, 0, 64, 53
1, 369065, Note_on_c, 0, 65, 53
1, 369077, Note_on_c, 0, 60, 46
1, 369079, Control_c, 0, 64, 49
1, 369094, Control_c, 0, 64, 53
1, 369109, Control_c, 0, 64, 57
1, 369124, Control_c, 0, 64, 61
1, 369124, Note_off_c, 0, 66, 32
1, 369139, Control_c, 0, 64, 64
1, 369154, Control_c, 0, 64, 67
1, 369169, Control_c, 0, 64, 73
1, 369184, Control_c, 0, 64, 80
1, 369198, Control_c, 0, 64, 87
1, 369213, Control_c, 0, 64, 88
1, 369228, Control_c, 0, 64, 84
1, 369243, Control_c, 0, 64, 75
1, 369258, Control_c, 0, 64, 64
1, 369273, Control_c, 0, 64, 55
1, 369281, Note_off_c, 0, 63, 37
1, 369288, Control_c, 0, 64, 52
1, 369291, Note_on_c, 0, 42, 50
1, 369303, Control_c, 0, 64, 56
1, 369317, Control_c, 0, 64, 60
1, 369332, Control_c, 0, 64, 63
1, 369347, Note_off_c, 0, 45, 58
1, 369347, Control_c, 0, 64, 65
1, 369362, Control_c, 0, 64, 69
1, 369377, Control_c, 0, 64, 74
1, 369392, Control_c, 0, 64, 83
1, 369406, Control_c, 0, 64, 94
1, 369421, Control_c, 0, 64, 99
1, 369436, Control_c, 0, 64, 97
1, 369451, Control_c, 0, 64, 91
1, 369466, Control_c, 0, 64, 82
1, 369480, Control_c, 0, 64, 71
1, 369495, Control_c, 0, 64, 61
1, 369510, Control_c, 0, 64, 49
1, 369517, Note_off_c, 0, 60, 0
1, 369524, Control_c, 0, 64, 49
1, 369530, Note_on_c, 0, 70, 53
1, 369537, Note_on_c, 0, 60, 13
1, 369539, Control_c, 0, 64, 53
1, 369554, Control_c, 0, 64, 57
1, 369559, Note_on_c, 0, 63, 38
1, 369569, Note_off_c, 0, 65, 48
1, 369569, Control_c, 0, 64, 61
1, 369584, Control_c, 0, 64, 63
1, 369598, Control_c, 0, 64, 65
1, 369613, Control_c, 0, 64, 68
1, 369628, Control_c, 0, 64, 73
1, 369643, Control_c, 0, 64, 80
1, 369658, Control_c, 0, 64, 87
1, 369672, Control_c, 0, 64, 88
1, 369687, Control_c, 0, 64, 86
1, 369702, Control_c, 0, 64, 79
1, 369717, Control_c, 0, 64, 67
1, 369732, Control_c, 0, 64, 57
1, 369754, Control_c, 0, 64, 48
1, 369759, Note_on_c, 0, 41, 50
1, 369769, Control_c, 0, 64, 51
1, 369779, Note_off_c, 0, 42, 34
1, 369784, Control_c, 0, 64, 55
1, 369798, Control_c, 0, 64, 59
1, 369813, Control_c, 0, 64, 62
1, 369828, Control_c, 0, 64, 65
1, 369843, Control_c, 0, 64, 68
1, 369856, Note_off_c, 0, 63, 36
1, 369857, Control_c, 0, 64, 73
1, 369860, Note_off_c, 0, 60, 34
1, 369872, Control_c, 0, 64, 80
1, 369887, Control_c, 0, 64, 87
1, 369902, Control_c, 0, 64, 90
1, 369917, Control_c, 0, 64, 90
1, 369931, Control_c, 0, 64, 88
1, 369947, Control_c, 0, 64, 82
1, 369962, Control_c, 0, 64, 73
1, 369977, Control_c, 0, 64, 64
1, 369984, Note_on_c, 0, 69, 57
1, 369992, Control_c, 0, 64, 54
1, 369999, Note_on_c, 0, 63, 44
1, 370000, Note_on_c, 0, 60, 47
1, 370009, Note_off_c, 0, 70, 37
1, 370021, Control_c, 0, 64, 57
1, 370036, Control_c, 0, 64, 60
1, 370051, Control_c, 0, 64, 63
1, 370066, Control_c, 0, 64, 66
1, 370081, Control_c, 0, 64, 71
1, 370096, Control_c, 0, 64, 82
1, 370098, Note_off_c, 0, 41, 26
1, 370111, Control_c, 0, 64, 98
1, 370126, Control_c, 0, 64, 127
1, 370185, Control_c, 0, 64, 97
1, 370200, Control_c, 0, 64, 77
1, 370213, Note_on_c, 0, 51, 59
1, 370215, Control_c, 0, 64, 64
1, 370230, Control_c, 0, 64, 57
1, 370244, Control_c, 0, 64, 58
1, 370259, Control_c, 0, 64, 60
1, 370274, Control_c, 0, 64, 63
1, 370289, Control_c, 0, 64, 66
1, 370304, Control_c, 0, 64, 71
1, 370318, Note_off_c, 0, 63, 33
1, 370319, Control_c, 0, 64, 79
1, 370334, Control_c, 0, 64, 91
1, 370340, Note_off_c, 0, 60, 39
1, 370348, Control_c, 0, 64, 115
1, 370363, Control_c, 0, 64, 127
1, 370405, Note_off_c, 0, 69, 37
1, 370422, Control_c, 0, 64, 96
1, 370437, Control_c, 0, 64, 75
1, 370448, Note_on_c, 0, 71, 74
1, 370452, Control_c, 0, 64, 62
1, 370462, Note_on_c, 0, 68, 51
1, 370464, Note_on_c, 0, 59, 52
1, 370466, Control_c, 0, 64, 53
1, 370473, Note_on_c, 0, 65, 45
1, 370481, Control_c, 0, 64, 56
1, 370504, Control_c, 0, 64, 61
1, 370519, Control_c, 0, 64, 64
1, 370534, Control_c, 0, 64, 67
1, 370548, Control_c, 0, 64, 72
1, 370563, Control_c, 0, 64, 82
1, 370578, Control_c, 0, 64, 94
1, 370593, Control_c, 0, 64, 108
1, 370608, Control_c, 0, 64, 115
1, 370622, Control_c, 0, 64, 112
1, 370637, Control_c, 0, 64, 102
1, 370652, Control_c, 0, 64, 86
1, 370667, Control_c, 0, 64, 73
1, 370674, Note_on_c, 0, 50, 71
1, 370681, Control_c, 0, 64, 64
1, 370696, Control_c, 0, 64, 58
1, 370710, Note_off_c, 0, 68, 32
1, 370711, Control_c, 0, 64, 59
1, 370718, Note_off_c, 0, 65, 35
1, 370726, Control_c, 0, 64, 62
1, 370742, Control_c, 0, 64, 65
1, 370757, Control_c, 0, 64, 68
1, 370758, Note_off_c, 0, 59, 62
1, 370771, Control_c, 0, 64, 73
1, 370786, Control_c, 0, 64, 82
1, 370801, Control_c, 0, 64, 101
1, 370816, Control_c, 0, 64, 127
1, 370836, Note_off_c, 0, 71, 61
1, 370905, Control_c, 0, 64, 94
1, 370909, Note_on_c, 0, 70, 85
1, 370915, Note_on_c, 0, 58, 82
1, 370915, Note_on_c, 0, 68, 69
1, 370919, Control_c, 0, 64, 74
1, 370926, Note_on_c, 0, 65, 62
1, 370934, Control_c, 0, 64, 60
1, 370936, Note_off_c, 0, 51, 35
1, 370949, Control_c, 0, 64, 53
1, 370964, Control_c, 0, 64, 56
1, 370978, Control_c, 0, 64, 60
1, 370993, Control_c, 0, 64, 63
1, 371008, Control_c, 0, 64, 67
1, 371023, Control_c, 0, 64, 73
1, 371038, Control_c, 0, 64, 85
1, 371052, Control_c, 0, 64, 115
1, 371067, Control_c, 0, 64, 127
1, 371129, Note_on_c, 0, 47, 84
1, 371148, Note_off_c, 0, 58, 61
1, 371157, Control_c, 0, 64, 83
1, 371171, Control_c, 0, 64, 65
1, 371186, Control_c, 0, 64, 51
1, 371194, Note_off_c, 0, 70, 58
1, 371201, Control_c, 0, 64, 50
1, 371207, Note_off_c, 0, 68, 55
1, 371216, Control_c, 0, 64, 58
1, 371231, Control_c, 0, 64, 64
1, 371252, Note_off_c, 0, 65, 32
1, 371252, Control_c, 0, 64, 69
1, 371267, Control_c, 0, 64, 78
1, 371270, Note_off_c, 0, 50, 36
1, 371282, Control_c, 0, 64, 102
1, 371297, Control_c, 0, 64, 127
1, 371368, Note_on_c, 0, 75, 96
1, 371377, Note_on_c, 0, 63, 81
1, 371378, Note_on_c, 0, 65, 65
1, 371380, Note_on_c, 0, 68, 64
1, 371386, Control_c, 0, 64, 95
1, 371401, Control_c, 0, 64, 69
1, 371416, Control_c, 0, 64, 55
1, 371431, Control_c, 0, 64, 42
1, 371446, Control_c, 0, 64, 46
1, 371461, Control_c, 0, 64, 54
1, 371476, Control_c, 0, 64, 60
1, 371491, Control_c, 0, 64, 64
1, 371504, Note_off_c, 0, 47, 53
1, 371505, Control_c, 0, 64, 69
1, 371520, Control_c, 0, 64, 77
1, 371535, Control_c, 0, 64, 95
1, 371550, Control_c, 0, 64, 127
1, 371608, Note_on_c, 0, 46, 85
1, 371638, Control_c, 0, 64, 89
1, 371653, Control_c, 0, 64, 69
1, 371667, Control_c, 0, 64, 56
1, 371682, Control_c, 0, 64, 52
1, 371697, Control_c, 0, 64, 57
1, 371711, Control_c, 0, 64, 62
1, 371712, Note_off_c, 0, 65, 36
1, 371726, Note_off_c, 0, 75, 55
1, 371726, Control_c, 0, 64, 65
1, 371741, Control_c, 0, 64, 69
1, 371756, Control_c, 0, 64, 75
1, 371771, Control_c, 0, 64, 94
1, 371782, Note_off_c, 0, 68, 25
1, 371783, Note_off_c, 0, 63, 60
1, 371786, Control_c, 0, 64, 127
1, 371897, Note_on_c, 0, 74, 96
1, 371905, Control_c, 0, 64, 85
1, 371906, Note_on_c, 0, 68, 55
1, 371907, Note_on_c, 0, 62, 83
1, 371911, Note_on_c, 0, 65, 73
1, 371919, Control_c, 0, 64, 65
1, 371934, Control_c, 0, 64, 48
1, 371949, Control_c, 0, 64, 47
1, 371964, Control_c, 0, 64, 54
1, 371979, Control_c, 0, 64, 60
1, 371987, Note_off_c, 0, 46, 57
1, 372000, Control_c, 0, 64, 64
1, 372015, Control_c, 0, 64, 67
1, 372030, Control_c, 0, 64, 73
1, 372045, Control_c, 0, 64, 89
1, 372060, Control_c, 0, 64, 127
1, 372179, Control_c, 0, 64, 82
1, 372188, Note_on_c, 0, 46, 86
1, 372193, Control_c, 0, 64, 62
1, 372208, Control_c, 0, 64, 36
1, 372212, Note_off_c, 0, 62, 51
1, 372223, Control_c, 0, 64, 37
1, 372238, Control_c, 0, 64, 49
1, 372253, Control_c, 0, 64, 57
1, 372267, Note_off_c, 0, 65, 60
1, 372267, Control_c, 0, 64, 62
1, 372282, Control_c, 0, 64, 66
1, 372297, Control_c, 0, 64, 71
1, 372299, Note_off_c, 0, 68, 59
1, 372310, Note_off_c, 0, 74, 57
1, 372312, Control_c, 0, 64, 83
1, 372326, Control_c, 0, 64, 127
1, 372537, Note_on_c, 0, 79, 90
1, 372549, Control_c, 0, 64, 102
1, 372555, Note_on_c, 0, 75, 72
1, 372556, Note_on_c, 0, 67, 71
1, 372561, Note_on_c, 0, 70, 64
1, 372564, Control_c, 0, 64, 80
1, 372579, Control_c, 0, 64, 65
1, 372594, Control_c, 0, 64, 47
1, 372609, Control_c, 0, 64, 29
1, 372623, Control_c, 0, 64, 35
1, 372638, Control_c, 0, 64, 45
1, 372653, Control_c, 0, 64, 54
1, 372668, Control_c, 0, 64, 60
1, 372683, Control_c, 0, 64, 63
1, 372698, Control_c, 0, 64, 67
1, 372713, Control_c, 0, 64, 73
1, 372728, Control_c, 0, 64, 84
1, 372749, Control_c, 0, 64, 104
1, 372764, Control_c, 0, 64, 127
1, 372865, Note_on_c, 0, 58, 79
1, 372868, Control_c, 0, 64, 105
1, 372883, Control_c, 0, 64, 81
1, 372897, Control_c, 0, 64, 64
1, 372912, Control_c, 0, 64, 50
1, 372927, Control_c, 0, 64, 45
1, 372942, Control_c, 0, 64, 50
1, 372949, Note_off_c, 0, 46, 49
1, 372957, Control_c, 0, 64, 56
1, 372972, Control_c, 0, 64, 60
1, 372975, Note_off_c, 0, 70, 63
1, 372987, Control_c, 0, 64, 64
1, 373002, Control_c, 0, 64, 67
1, 373016, Control_c, 0, 64, 73
1, 373031, Control_c, 0, 64, 85
1, 373046, Control_c, 0, 64, 109
1, 373052, Note_off_c, 0, 67, 33
1, 373053, Note_off_c, 0, 79, 51
1, 373061, Control_c, 0, 64, 127
1, 373089, Note_off_c, 0, 75, 49
1, 373163, Note_on_c, 0, 79, 88
1, 373165, Control_c, 0, 64, 98
1, 373172, Note_on_c, 0, 69, 77
1, 373172, Note_on_c, 0, 75, 65
1, 373180, Control_c, 0, 64, 76
1, 373181, Note_on_c, 0, 72, 66
1, 373195, Control_c, 0, 64, 63
1, 373210, Control_c, 0, 64, 50
1, 373225, Control_c, 0, 64, 49
1, 373239, Control_c, 0, 64, 54
1, 373254, Control_c, 0, 64, 59
1, 373269, Control_c, 0, 64, 62
1, 373284, Control_c, 0, 64, 65
1, 373299, Control_c, 0, 64, 69
1, 373313, Control_c, 0, 64, 76
1, 373328, Control_c, 0, 64, 87
1, 373343, Control_c, 0, 64, 104
1, 373358, Control_c, 0, 64, 127
1, 373402, Control_c, 0, 64, 109
1, 373417, Control_c, 0, 64, 88
1, 373432, Control_c, 0, 64, 72
1, 373434, Note_on_c, 0, 46, 56
1, 373446, Control_c, 0, 64, 59
1, 373461, Control_c, 0, 64, 52
1, 373475, Note_off_c, 0, 72, 62
1, 373476, Control_c, 0, 64, 55
1, 373499, Control_c, 0, 64, 59
1, 373514, Control_c, 0, 64, 62
1, 373528, Control_c, 0, 64, 65
1, 373541, Note_off_c, 0, 58, 34
1, 373543, Control_c, 0, 64, 71
1, 373549, Note_off_c, 0, 79, 50
1, 373558, Control_c, 0, 64, 81
1, 373572, Control_c, 0, 64, 99
1, 373587, Control_c, 0, 64, 127
1, 373622, Note_off_c, 0, 75, 62
1, 373691, Note_on_c, 0, 77, 86
1, 373691, Control_c, 0, 64, 87
1, 373704, Note_on_c, 0, 68, 63
1, 373704, Note_on_c, 0, 74, 65
1, 373706, Control_c, 0, 64, 70
1, 373721, Control_c, 0, 64, 56
1, 373733, Note_off_c, 0, 69, 61
1, 373736, Control_c, 0, 64, 49
1, 373751, Control_c, 0, 64, 54
1, 373765, Control_c, 0, 64, 59
1, 373780, Control_c, 0, 64, 62
1, 373795, Control_c, 0, 64, 65
1, 373810, Control_c, 0, 64, 70
1, 373825, Control_c, 0, 64, 79
1, 373839, Control_c, 0, 64, 91
1, 373854, Control_c, 0, 64, 109
1, 373869, Control_c, 0, 64, 127
1, 373914, Control_c, 0, 64, 108
1, 373929, Control_c, 0, 64, 92
1, 373935, Note_on_c, 0, 58, 59
1, 373944, Control_c, 0, 64, 76
1, 373959, Control_c, 0, 64, 65
1, 373974, Control_c, 0, 64, 57
1, 373985, Note_off_c, 0, 77, 60
1, 373989, Control_c, 0, 64, 58
1, 374003, Control_c, 0, 64, 62
1, 374018, Control_c, 0, 64, 64
1, 374020, Note_off_c, 0, 46, 49
1, 374033, Control_c, 0, 64, 67
1, 374048, Control_c, 0, 64, 72
1, 374063, Control_c, 0, 64, 79
1, 374078, Control_c, 0, 64, 92
1, 374093, Control_c, 0, 64, 127
1, 374111, Note_off_c, 0, 74, 62
1, 374125, Note_off_c, 0, 68, 52
1, 374176, Note_on_c, 0, 75, 80
1, 374182, Control_c, 0, 64, 96
1, 374192, Note_on_c, 0, 67, 55
1, 374192, Note_on_c, 0, 70, 64
1, 374196, Control_c, 0, 64, 73
1, 374211, Control_c, 0, 64, 62
1, 374226, Control_c, 0, 64, 55
1, 374248, Control_c, 0, 64, 58
1, 374263, Control_c, 0, 64, 61
1, 374278, Control_c, 0, 64, 64
1, 374293, Control_c, 0, 64, 69
1, 374307, Control_c, 0, 64, 75
1, 374322, Control_c, 0, 64, 86
1, 374337, Control_c, 0, 64, 104
1, 374352, Control_c, 0, 64, 127
1, 374396, Control_c, 0, 64, 109
1, 374411, Control_c, 0, 64, 87
1, 374426, Control_c, 0, 64, 71
1, 374432, Note_on_c, 0, 46, 44
1, 374441, Control_c, 0, 64, 60
1, 374456, Control_c, 0, 64, 49
1, 374470, Control_c, 0, 64, 53
1, 374485, Control_c, 0, 64, 57
1, 374500, Control_c, 0, 64, 62
1, 374507, Note_off_c, 0, 58, 38
1, 374514, Control_c, 0, 64, 66
1, 374529, Control_c, 0, 64, 71
1, 374544, Control_c, 0, 64, 80
1, 374559, Control_c, 0, 64, 99
1, 374567, Note_off_c, 0, 67, 55
1, 374574, Control_c, 0, 64, 127
1, 374603, Control_c, 0, 64, 115
1, 374618, Control_c, 0, 64, 94
1, 374633, Control_c, 0, 64, 78
1, 374638, Note_off_c, 0, 75, 55
1, 374644, Note_off_c, 0, 70, 53
1, 374648, Control_c, 0, 64, 67
1, 374662, Control_c, 0, 64, 56
1, 374677, Control_c, 0, 64, 52
1, 374687, Note_on_c, 0, 74, 75
1, 374692, Control_c, 0, 64, 54
1, 374702, Note_on_c, 0, 68, 52
1, 374707, Control_c, 0, 64, 57
1, 374709, Note_on_c, 0, 65, 47
1, 374722, Control_c, 0, 64, 60
1, 374738, Control_c, 0, 64, 62
1, 374753, Control_c, 0, 64, 65
1, 374767, Control_c, 0, 64, 69
1, 374782, Control_c, 0, 64, 76
1, 374797, Control_c, 0, 64, 88
1, 374811, Control_c, 0, 64, 105
1, 374826, Control_c, 0, 64, 125
1, 374841, Control_c, 0, 64, 120
1, 374856, Control_c, 0, 64, 115
1, 374871, Control_c, 0, 64, 112
1, 374886, Control_c, 0, 64, 108
1, 374901, Control_c, 0, 64, 99
1, 374916, Control_c, 0, 64, 88
1, 374930, Control_c, 0, 64, 74
1, 374945, Control_c, 0, 64, 64
1, 374960, Control_c, 0, 64, 49
1, 374964, Note_on_c, 0, 58, 44
1, 374975, Control_c, 0, 64, 30
1, 374997, Note_off_c, 0, 46, 37
1, 374997, Control_c, 0, 64, 29
1, 375012, Control_c, 0, 64, 30
1, 375026, Control_c, 0, 64, 34
1, 375041, Control_c, 0, 64, 43
1, 375056, Control_c, 0, 64, 53
1, 375071, Control_c, 0, 64, 60
1, 375086, Control_c, 0, 64, 64
1, 375100, Control_c, 0, 64, 70
1, 375101, Note_off_c, 0, 74, 56
1, 375115, Control_c, 0, 64, 82
1, 375130, Control_c, 0, 64, 104
1, 375145, Note_off_c, 0, 65, 55
1, 375145, Control_c, 0, 64, 127
1, 375199, Note_off_c, 0, 68, 32
1, 375264, Control_c, 0, 64, 112
1, 375279, Control_c, 0, 64, 101
1, 375293, Control_c, 0, 64, 95
1, 375299, Note_on_c, 0, 76, 61
1, 375308, Control_c, 0, 64, 91
1, 375309, Note_on_c, 0, 64, 43
1, 375323, Note_on_c, 0, 67, 24
1, 375323, Control_c, 0, 64, 88
1, 375329, Note_on_c, 0, 73, 44
1, 375337, Control_c, 0, 64, 85
1, 375352, Control_c, 0, 64, 80
1, 375367, Control_c, 0, 64, 75
1, 375382, Control_c, 0, 64, 69
1, 375397, Control_c, 0, 64, 61
1, 375411, Control_c, 0, 64, 52
1, 375426, Control_c, 0, 64, 44
1, 375441, Control_c, 0, 64, 36
1, 375456, Control_c, 0, 64, 19
1, 375471, Control_c, 0, 64, 0
1, 375603, Note_on_c, 0, 57, 37
1, 375643, Note_off_c, 0, 58, 52
1, 375694, Control_c, 0, 64, 34
1, 375708, Control_c, 0, 64, 54
1, 375723, Control_c, 0, 64, 63
1, 375746, Control_c, 0, 64, 69
1, 375747, Note_off_c, 0, 73, 34
1, 375761, Control_c, 0, 64, 80
1, 375768, Note_off_c, 0, 64, 56
1, 375775, Control_c, 0, 64, 110
1, 375786, Note_off_c, 0, 67, 32
1, 375790, Control_c, 0, 64, 127
1, 375957, Note_on_c, 0, 67, 36
1, 375963, Note_on_c, 0, 64, 27
1, 375968, Control_c, 0, 64, 119
1, 375970, Note_on_c, 0, 73, 45
1, 375981, Note_on_c, 0, 69, 27
1, 375983, Control_c, 0, 64, 112
1, 375998, Control_c, 0, 64, 109
1, 376010, Note_off_c, 0, 76, 27
1, 376013, Control_c, 0, 64, 107
1, 376027, Control_c, 0, 64, 104
1, 376042, Control_c, 0, 64, 100
1, 376057, Control_c, 0, 64, 95
1, 376072, Control_c, 0, 64, 91
1, 376087, Control_c, 0, 64, 88
1, 376102, Control_c, 0, 64, 86
1, 376116, Control_c, 0, 64, 84
1, 376131, Control_c, 0, 64, 82
1, 376146, Control_c, 0, 64, 78
1, 376160, Control_c, 0, 64, 76
1, 376175, Control_c, 0, 64, 73
1, 376190, Control_c, 0, 64, 71
1, 376205, Control_c, 0, 64, 69
1, 376220, Control_c, 0, 64, 68
1, 376234, Control_c, 0, 64, 66
1, 376249, Control_c, 0, 64, 65
1, 376264, Control_c, 0, 64, 64
1, 376279, Control_c, 0, 64, 64
1, 376293, Control_c, 0, 64, 63
1, 376308, Control_c, 0, 64, 61
1, 376323, Control_c, 0, 64, 59
1, 376339, Control_c, 0, 64, 57
1, 376354, Control_c, 0, 64, 55
1, 376358, Note_on_c, 0, 50, 29
1, 376369, Control_c, 0, 64, 53
1, 376383, Control_c, 0, 64, 51
1, 376398, Control_c, 0, 64, 48
1, 376413, Control_c, 0, 64, 46
1, 376425, Note_off_c, 0, 69, 32
1, 376457, Control_c, 0, 64, 48
1, 376472, Control_c, 0, 64, 50
1, 376490, Note_off_c, 0, 57, 36
1, 376495, Control_c, 0, 64, 54
1, 376510, Control_c, 0, 64, 58
1, 376525, Control_c, 0, 64, 63
1, 376539, Control_c, 0, 64, 66
1, 376554, Control_c, 0, 64, 73
1, 376569, Control_c, 0, 64, 88
1, 376584, Control_c, 0, 64, 127
1, 376603, Note_off_c, 0, 64, 41
1, 376621, Note_off_c, 0, 67, 38
1, 376683, Note_off_c, 0, 73, 36
1, 376805, Control_c, 0, 64, 112
1, 376820, Control_c, 0, 64, 100
1, 376835, Control_c, 0, 64, 87
1, 376850, Control_c, 0, 64, 73
1, 376859, Note_on_c, 0, 74, 40
1, 376865, Control_c, 0, 64, 63
1, 376868, Note_on_c, 0, 65, 23
1, 376880, Control_c, 0, 64, 50
1, 376897, Note_on_c, 0, 69, 17
1, 376909, Control_c, 0, 64, 54
1, 376924, Control_c, 0, 64, 59
1, 376939, Control_c, 0, 64, 63
1, 376954, Control_c, 0, 64, 67
1, 376969, Control_c, 0, 64, 74
1, 376983, Control_c, 0, 64, 89
1, 376990, Note_off_c, 0, 50, 56
1, 376998, Control_c, 0, 64, 127
1, 377047, Note_off_c, 0, 65, 54
1, 377047, Note_off_c, 0, 74, 63
1, 377053, Note_off_c, 0, 69, 58
1, 377102, Control_c, 0, 64, 108
1, 377116, Control_c, 0, 64, 93
1, 377133, Control_c, 0, 64, 82
1, 377148, Control_c, 0, 64, 71
1, 377162, Control_c, 0, 64, 60
1, 377177, Control_c, 0, 64, 41
1, 377192, Control_c, 0, 64, 23
1, 377206, Control_c, 0, 64, 15
1, 377221, Control_c, 0, 64, 0
1, 377273, Control_c, 0, 64, 12
1, 377285, Note_on_c, 0, 38, 43
1, 377288, Control_c, 0, 64, 38
1, 377288, Note_on_c, 0, 50, 36
1, 377303, Control_c, 0, 64, 56
1, 377315, Note_off_c, 0, 38, 56
1, 377318, Note_off_c, 0, 50, 51
1, 377318, Control_c, 0, 64, 64
1, 377333, Control_c, 0, 64, 69
1, 377346, Note_on_c, 0, 53, 46
1, 377348, Control_c, 0, 64, 75
1, 377362, Control_c, 0, 64, 78
1, 377377, Control_c, 0, 64, 74
1, 377391, Note_off_c, 0, 53, 62
1, 377392, Control_c, 0, 64, 66
1, 377405, Note_on_c, 0, 57, 36
1, 377407, Control_c, 0, 64, 54
1, 377412, Note_on_c, 0, 65, 48
1, 377421, Control_c, 0, 64, 14
1, 377424, Note_on_c, 0, 62, 22
1, 377436, Note_off_c, 0, 57, 48
1, 377436, Control_c, 0, 64, 0
1, 377449, Note_off_c, 0, 65, 64
1, 377452, Note_off_c, 0, 62, 46
1, 377491, Note_on_c, 0, 53, 61
1, 377521, Note_off_c, 0, 53, 64
1, 377549, Note_on_c, 0, 57, 37
1, 377592, Note_on_c, 0, 69, 63
1, 377604, Note_on_c, 0, 65, 36
1, 377607, Note_off_c, 0, 57, 64
1, 377610, Note_on_c, 0, 62, 37
1, 377631, Note_off_c, 0, 69, 61
1, 377639, Note_off_c, 0, 65, 53
1, 377653, Note_off_c, 0, 62, 62
1, 377673, Control_c, 0, 64, 16
1, 377688, Control_c, 0, 64, 52
1, 377692, Note_on_c, 0, 52, 61
1, 377697, Note_on_c, 0, 40, 52
1, 377703, Control_c, 0, 64, 65
1, 377718, Control_c, 0, 64, 74
1, 377722, Note_off_c, 0, 52, 66
1, 377728, Note_off_c, 0, 40, 55
1, 377732, Control_c, 0, 64, 97
1, 377747, Control_c, 0, 64, 110
1, 377761, Note_on_c, 0, 56, 57
1, 377762, Control_c, 0, 64, 92
1, 377777, Control_c, 0, 64, 73
1, 377792, Control_c, 0, 64, 56
1, 377798, Note_off_c, 0, 56, 66
1, 377806, Control_c, 0, 64, 0
1, 377816, Note_on_c, 0, 68, 56
1, 377840, Note_on_c, 0, 64, 35
1, 377856, Note_off_c, 0, 68, 64
1, 377869, Note_off_c, 0, 64, 53
1, 377879, Note_on_c, 0, 56, 70
1, 377907, Note_off_c, 0, 56, 67
1, 377962, Note_on_c, 0, 59, 63
1, 378006, Note_off_c, 0, 59, 66
1, 378016, Note_on_c, 0, 64, 35
1, 378021, Note_on_c, 0, 71, 62
1, 378030, Note_on_c, 0, 62, 37
1, 378053, Note_off_c, 0, 64, 63
1, 378053, Note_off_c, 0, 71, 66
1, 378058, Note_off_c, 0, 62, 52
1, 378081, Control_c, 0, 64, 38
1, 378084, Note_on_c, 0, 55, 73
1, 378084, Note_on_c, 0, 43, 67
1, 378096, Control_c, 0, 64, 59
1, 378111, Note_off_c, 0, 55, 65
1, 378111, Control_c, 0, 64, 68
1, 378117, Note_off_c, 0, 43, 64
1, 378126, Control_c, 0, 64, 78
1, 378141, Control_c, 0, 64, 101
1, 378156, Control_c, 0, 64, 127
1, 378160, Note_on_c, 0, 58, 65
1, 378170, Control_c, 0, 64, 125
1, 378184, Note_on_c, 0, 62, 48
1, 378185, Control_c, 0, 64, 84
1, 378192, Note_off_c, 0, 58, 66
1, 378200, Note_on_c, 0, 70, 69
1, 378200, Control_c, 0, 64, 64
1, 378215, Control_c, 0, 64, 32
1, 378221, Note_off_c, 0, 62, 64
1, 378229, Control_c, 0, 64, 0
1, 378234, Note_on_c, 0, 67, 12
1, 378257, Note_off_c, 0, 67, 44
1, 378258, Note_off_c, 0, 70, 64
1, 378266, Note_on_c, 0, 58, 80
1, 378292, Note_off_c, 0, 58, 69
1, 378343, Note_on_c, 0, 62, 64
1, 378379, Note_on_c, 0, 67, 49
1, 378382, Note_off_c, 0, 62, 63
1, 378387, Note_on_c, 0, 70, 57
1, 378388, Note_on_c, 0, 74, 66
1, 378413, Note_off_c, 0, 67, 65
1, 378419, Note_off_c, 0, 70, 66
1, 378421, Note_off_c, 0, 74, 65
1, 378459, Note_on_c, 0, 45, 65
1, 378463, Note_on_c, 0, 57, 64
1, 378466, Control_c, 0, 64, 53
1, 378481, Control_c, 0, 64, 64
1, 378490, Note_off_c, 0, 45, 64
1, 378491, Note_off_c, 0, 57, 65
1, 378496, Control_c, 0, 64, 72
1, 378511, Control_c, 0, 64, 89
1, 378525, Control_c, 0, 64, 127
1, 378534, Note_on_c, 0, 61, 63
1, 378564, Note_off_c, 0, 61, 65
1, 378573, Note_on_c, 0, 64, 55
1, 378585, Note_on_c, 0, 73, 65
1, 378603, Note_off_c, 0, 64, 64
1, 378617, Note_off_c, 0, 73, 65
1, 378629, Control_c, 0, 64, 115
1, 378644, Control_c, 0, 64, 101
1, 378646, Note_on_c, 0, 61, 74
1, 378659, Control_c, 0, 64, 92
1, 378674, Control_c, 0, 64, 88
1, 378678, Note_off_c, 0, 61, 61
1, 378689, Control_c, 0, 64, 85
1, 378703, Control_c, 0, 64, 82
1, 378707, Note_on_c, 0, 64, 68
1, 378718, Control_c, 0, 64, 80
1, 378741, Control_c, 0, 64, 78
1, 378756, Control_c, 0, 64, 76
1, 378770, Note_off_c, 0, 64, 65
1, 378771, Control_c, 0, 64, 75
1, 378779, Note_on_c, 0, 76, 70
1, 378784, Note_on_c, 0, 70, 57
1, 378785, Control_c, 0, 64, 74
1, 378797, Note_on_c, 0, 67, 21
1, 378800, Control_c, 0, 64, 72
1, 378814, Note_off_c, 0, 70, 65
1, 378815, Control_c, 0, 64, 71
1, 378818, Note_off_c, 0, 76, 64
1, 378830, Control_c, 0, 64, 69
1, 378834, Note_off_c, 0, 67, 38
1, 378844, Note_on_c, 0, 64, 91
1, 378845, Control_c, 0, 64, 68
1, 378859, Control_c, 0, 64, 67
1, 378874, Note_off_c, 0, 64, 63
1, 378874, Control_c, 0, 64, 66
1, 378889, Control_c, 0, 64, 65
1, 378901, Note_on_c, 0, 67, 82
1, 378904, Control_c, 0, 64, 64
1, 378919, Control_c, 0, 64, 64
1, 378934, Control_c, 0, 64, 63
1, 378949, Control_c, 0, 64, 62
1, 378955, Note_off_c, 0, 67, 65
1, 378955, Note_on_c, 0, 79, 71
1, 378964, Control_c, 0, 64, 61
1, 378968, Note_on_c, 0, 70, 57
1, 378979, Control_c, 0, 64, 59
1, 378989, Note_off_c, 0, 70, 60
1, 378993, Control_c, 0, 64, 57
1, 379003, Note_on_c, 0, 75, 26
1, 379003, Note_off_c, 0, 79, 65
1, 379008, Control_c, 0, 64, 56
1, 379023, Control_c, 0, 64, 55
1, 379026, Note_off_c, 0, 75, 35
1, 379035, Note_on_c, 0, 67, 96
1, 379038, Control_c, 0, 64, 54
1, 379053, Control_c, 0, 64, 54
1, 379067, Control_c, 0, 64, 53
1, 379076, Note_off_c, 0, 67, 68
1, 379082, Control_c, 0, 64, 52
1, 379085, Note_on_c, 0, 70, 77
1, 379097, Control_c, 0, 64, 50
1, 379112, Control_c, 0, 64, 50
1, 379128, Note_on_c, 0, 73, 74
1, 379138, Note_off_c, 0, 70, 64
1, 379148, Note_on_c, 0, 82, 76
1, 379151, Note_on_c, 0, 76, 57
1, 379172, Note_off_c, 0, 76, 64
1, 379174, Note_off_c, 0, 73, 62
1, 379190, Note_off_c, 0, 82, 62
1, 379200, Control_c, 0, 64, 49
1, 379215, Control_c, 0, 64, 47
1, 379223, Note_on_c, 0, 66, 84
1, 379230, Control_c, 0, 64, 44
1, 379245, Control_c, 0, 64, 42
1, 379249, Note_off_c, 0, 66, 67
1, 379259, Control_c, 0, 64, 39
1, 379274, Control_c, 0, 64, 36
1, 379283, Note_on_c, 0, 69, 77
1, 379289, Control_c, 0, 64, 34
1, 379304, Control_c, 0, 64, 32
1, 379319, Control_c, 0, 64, 30
1, 379327, Note_on_c, 0, 71, 26
1, 379330, Note_off_c, 0, 69, 64
1, 379333, Control_c, 0, 64, 30
1, 379348, Control_c, 0, 64, 29
1, 379361, Note_on_c, 0, 74, 28
1, 379363, Note_on_c, 0, 83, 66
1, 379363, Note_off_c, 0, 71, 43
1, 379363, Control_c, 0, 64, 29
1, 379365, Note_on_c, 0, 81, 55
1, 379367, Note_on_c, 0, 78, 47
1, 379378, Control_c, 0, 64, 28
1, 379389, Note_off_c, 0, 83, 66
1, 379390, Note_off_c, 0, 78, 50
1, 379393, Note_off_c, 0, 74, 34
1, 379393, Control_c, 0, 64, 27
1, 379393, Note_off_c, 0, 81, 67
1, 379408, Control_c, 0, 64, 26
1, 379419, Note_on_c, 0, 65, 66
1, 379422, Note_on_c, 0, 69, 70
1, 379423, Control_c, 0, 64, 25
1, 379438, Control_c, 0, 64, 24
1, 379447, Note_off_c, 0, 69, 68
1, 379447, Note_off_c, 0, 65, 66
1, 379452, Control_c, 0, 64, 21
1, 379467, Control_c, 0, 64, 16
1, 379472, Note_on_c, 0, 74, 82
1, 379489, Control_c, 0, 64, 9
1, 379504, Control_c, 0, 64, 0
1, 379531, Note_off_c, 0, 74, 67
1, 379542, Note_on_c, 0, 86, 72
1, 379555, Note_on_c, 0, 84, 55
1, 379558, Note_on_c, 0, 77, 53
1, 379563, Note_on_c, 0, 81, 54
1, 379572, Note_off_c, 0, 84, 56
1, 379576, Note_off_c, 0, 86, 66
1, 379578, Note_off_c, 0, 77, 56
1, 379581, Note_off_c, 0, 81, 63
1, 379610, Note_on_c, 0, 73, 98
1, 379618, Note_on_c, 0, 67, 75
1, 379620, Note_on_c, 0, 64, 69
1, 379648, Note_off_c, 0, 64, 66
1, 379649, Note_on_c, 0, 69, 32
1, 379651, Note_off_c, 0, 73, 64
1, 379664, Note_on_c, 0, 76, 86
1, 379667, Note_off_c, 0, 67, 60
1, 379682, Note_off_c, 0, 69, 32
1, 379722, Note_off_c, 0, 76, 62
1, 379729, Note_on_c, 0, 85, 83
1, 379737, Note_on_c, 0, 79, 58
1, 379754, Note_off_c, 0, 79, 65
1, 379790, Note_off_c, 0, 85, 66
1, 379807, Note_on_c, 0, 74, 92
1, 379810, Note_on_c, 0, 62, 77
1, 379825, Note_on_c, 0, 69, 47
1, 379834, Note_off_c, 0, 74, 60
1, 379835, Note_on_c, 0, 65, 43
1, 379844, Note_on_c, 0, 77, 83
1, 379848, Note_off_c, 0, 62, 64
1, 379849, Note_off_c, 0, 69, 54
1, 379864, Note_off_c, 0, 65, 51
1, 379904, Note_off_c, 0, 77, 60
1, 379910, Note_on_c, 0, 81, 71
1, 379916, Note_on_c, 0, 86, 75
1, 379935, Note_off_c, 0, 81, 70
1, 379946, Note_off_c, 0, 86, 64
1, 379986, Note_on_c, 0, 88, 95
1, 379988, Note_on_c, 0, 69, 66
1, 379994, Control_c, 0, 64, 61
1, 379999, Note_on_c, 0, 61, 63
1, 380005, Note_on_c, 0, 64, 60
1, 380008, Control_c, 0, 64, 74
1, 380019, Note_off_c, 0, 69, 64
1, 380023, Control_c, 0, 64, 127
1, 380038, Note_off_c, 0, 64, 65
1, 380054, Note_on_c, 0, 85, 84
1, 380058, Note_off_c, 0, 61, 62
1, 380073, Note_off_c, 0, 88, 64
1, 380126, Note_on_c, 0, 81, 69
1, 380131, Note_off_c, 0, 85, 64
1, 380154, Note_off_c, 0, 81, 67
1, 380207, Note_on_c, 0, 76, 53
1, 380236, Note_off_c, 0, 76, 63
1, 380279, Note_on_c, 0, 73, 59
1, 380313, Note_off_c, 0, 73, 65
1, 380333, Note_on_c, 0, 69, 63
1, 380343, Control_c, 0, 64, 106
1, 380358, Control_c, 0, 64, 86
1, 380360, Note_off_c, 0, 69, 64
1, 380373, Control_c, 0, 64, 67
1, 380387, Control_c, 0, 64, 32
1, 380402, Control_c, 0, 64, 0
1, 380446, Note_on_c, 0, 38, 54
1, 380446, Control_c, 0, 64, 28
1, 380452, Note_on_c, 0, 50, 45
1, 380461, Control_c, 0, 64, 59
1, 380475, Note_off_c, 0, 38, 58
1, 380476, Control_c, 0, 64, 70
1, 380483, Note_off_c, 0, 50, 50
1, 380491, Control_c, 0, 64, 87
1, 380505, Control_c, 0, 64, 127
1, 380520, Control_c, 0, 64, 108
1, 380535, Control_c, 0, 64, 79
1, 380550, Control_c, 0, 64, 60
1, 380565, Control_c, 0, 64, 0
1, 380570, Poly_aftertouch_c, 0, 53, 0
1, 380577, Note_on_c, 0, 65, 46
1, 380579, Note_on_c, 0, 57, 32
1, 380607, Note_off_c, 0, 65, 63
1, 380612, Note_off_c, 0, 57, 47
1, 380645, Note_on_c, 0, 53, 60
1, 380674, Note_off_c, 0, 53, 64
1, 380695, Note_on_c, 0, 57, 60
1, 380739, Note_off_c, 0, 57, 64
1, 380766, Note_on_c, 0, 69, 59
1, 380768, Note_on_c, 0, 65, 34
1, 380798, Note_off_c, 0, 65, 54
1, 380801, Note_off_c, 0, 69, 65
1, 380836, Note_on_c, 0, 56, 67
1, 380846, Note_on_c, 0, 44, 44
1, 380846, Control_c, 0, 64, 27
1, 380861, Control_c, 0, 64, 57
1, 380871, Note_off_c, 0, 56, 66
1, 380875, Note_off_c, 0, 44, 57
1, 380876, Control_c, 0, 64, 64
1, 380891, Control_c, 0, 64, 68
1, 380905, Control_c, 0, 64, 69
1, 380906, Note_on_c, 0, 59, 68
1, 380920, Control_c, 0, 64, 67
1, 380935, Control_c, 0, 64, 63
1, 380938, Note_off_c, 0, 59, 68
1, 380949, Control_c, 0, 64, 52
1, 380964, Control_c, 0, 64, 29
1, 380987, Control_c, 0, 64, 0
1, 380993, Note_on_c, 0, 72, 57
1, 380999, Note_on_c, 0, 71, 28
1, 381000, Note_on_c, 0, 65, 23
1, 381014, Note_off_c, 0, 72, 62
1, 381025, Note_off_c, 0, 71, 52
1, 381038, Note_off_c, 0, 65, 30
1, 381047, Note_on_c, 0, 59, 86
1, 381077, Note_off_c, 0, 59, 67
1, 381113, Note_on_c, 0, 62, 77
1, 381142, Note_on_c, 0, 74, 70
1, 381147, Note_off_c, 0, 62, 65
1, 381175, Note_on_c, 0, 68, 46
1, 381196, Note_off_c, 0, 74, 65
1, 381199, Note_off_c, 0, 68, 55
1, 381240, Note_on_c, 0, 60, 86
1, 381246, Note_on_c, 0, 48, 71
1, 381269, Control_c, 0, 64, 34
1, 381272, Note_off_c, 0, 60, 65
1, 381275, Note_off_c, 0, 48, 66
1, 381284, Control_c, 0, 64, 62
1, 381291, Note_on_c, 0, 63, 76
1, 381299, Control_c, 0, 64, 70
1, 381314, Control_c, 0, 64, 86
1, 381321, Note_on_c, 0, 68, 55
1, 381329, Control_c, 0, 64, 127
1, 381333, Note_off_c, 0, 63, 61
1, 381352, Note_on_c, 0, 75, 83
1, 381359, Control_c, 0, 64, 122
1, 381371, Note_off_c, 0, 68, 59
1, 381374, Note_on_c, 0, 72, 44
1, 381374, Control_c, 0, 64, 89
1, 381388, Control_c, 0, 64, 75
1, 381400, Note_off_c, 0, 72, 56
1, 381402, Note_off_c, 0, 75, 63
1, 381403, Control_c, 0, 64, 67
1, 381418, Control_c, 0, 64, 64
1, 381432, Note_on_c, 0, 63, 86
1, 381433, Control_c, 0, 64, 63
1, 381448, Control_c, 0, 64, 62
1, 381452, Note_off_c, 0, 63, 68
1, 381462, Control_c, 0, 64, 61
1, 381477, Note_on_c, 0, 67, 84
1, 381477, Control_c, 0, 64, 60
1, 381492, Control_c, 0, 64, 60
1, 381507, Control_c, 0, 64, 59
1, 381534, Note_off_c, 0, 67, 65
1, 381539, Note_on_c, 0, 79, 86
1, 381543, Note_on_c, 0, 72, 67
1, 381551, Note_on_c, 0, 75, 73
1, 381566, Control_c, 0, 64, 57
1, 381570, Note_off_c, 0, 72, 68
1, 381578, Note_off_c, 0, 75, 67
1, 381581, Control_c, 0, 64, 45
1, 381590, Note_off_c, 0, 79, 67
1, 381596, Control_c, 0, 64, 0
1, 381620, Note_on_c, 0, 66, 92
1, 381624, Note_on_c, 0, 54, 78
1, 381657, Note_off_c, 0, 54, 66
1, 381664, Note_off_c, 0, 66, 63
1, 381681, Note_on_c, 0, 69, 86
1, 381685, Control_c, 0, 64, 48
1, 381700, Control_c, 0, 64, 64
1, 381715, Control_c, 0, 64, 74
1, 381725, Note_off_c, 0, 69, 67
1, 381736, Control_c, 0, 64, 127
1, 381748, Note_on_c, 0, 72, 71
1, 381751, Note_on_c, 0, 81, 92
1, 381752, Note_on_c, 0, 75, 71
1, 381775, Note_off_c, 0, 72, 69
1, 381775, Note_off_c, 0, 75, 68
1, 381793, Note_off_c, 0, 81, 68
1, 381818, Note_on_c, 0, 69, 96
1, 381842, Note_off_c, 0, 69, 67
1, 381885, Note_on_c, 0, 72, 93
1, 381900, Control_c, 0, 64, 119
1, 381915, Control_c, 0, 64, 114
1, 381930, Control_c, 0, 64, 113
1, 381945, Control_c, 0, 64, 112
1, 381948, Note_on_c, 0, 84, 88
1, 381951, Note_off_c, 0, 72, 62
1, 381955, Note_on_c, 0, 75, 64
1, 381962, Note_on_c, 0, 81, 58
1, 381974, Note_off_c, 0, 75, 63
1, 381974, Control_c, 0, 64, 109
1, 381980, Note_off_c, 0, 81, 65
1, 381989, Control_c, 0, 64, 87
1, 382003, Note_off_c, 0, 84, 66
1, 382004, Control_c, 0, 64, 64
1, 382019, Control_c, 0, 64, 0
1, 382035, Note_on_c, 0, 70, 95
1, 382037, Note_on_c, 0, 58, 82
1, 382078, Control_c, 0, 64, 34
1, 382088, Note_on_c, 0, 74, 85
1, 382091, Control_c, 0, 64, 59
1, 382096, Note_off_c, 0, 58, 63
1, 382104, Note_off_c, 0, 70, 57
1, 382106, Control_c, 0, 64, 71
1, 382121, Control_c, 0, 64, 94
1, 382136, Control_c, 0, 64, 127
1, 382151, Note_on_c, 0, 86, 85
1, 382153, Note_on_c, 0, 79, 75
1, 382158, Note_on_c, 0, 82, 76
1, 382161, Note_off_c, 0, 74, 65
1, 382180, Note_off_c, 0, 79, 68
1, 382183, Note_off_c, 0, 82, 69
1, 382197, Note_off_c, 0, 86, 66
1, 382238, Note_on_c, 0, 67, 87
1, 382271, Note_off_c, 0, 67, 65
1, 382301, Note_on_c, 0, 70, 79
1, 382344, Control_c, 0, 64, 111
1, 382356, Note_on_c, 0, 74, 64
1, 382358, Control_c, 0, 64, 103
1, 382359, Note_on_c, 0, 82, 78
1, 382361, Note_off_c, 0, 70, 63
1, 382373, Control_c, 0, 64, 99
1, 382375, Note_on_c, 0, 79, 48
1, 382388, Control_c, 0, 64, 95
1, 382389, Note_off_c, 0, 74, 66
1, 382398, Note_off_c, 0, 79, 58
1, 382402, Control_c, 0, 64, 91
1, 382413, Note_off_c, 0, 82, 65
1, 382417, Control_c, 0, 64, 87
1, 382432, Control_c, 0, 64, 84
1, 382436, Note_on_c, 0, 62, 86
1, 382447, Control_c, 0, 64, 81
1, 382462, Control_c, 0, 64, 78
1, 382484, Control_c, 0, 64, 74
1, 382485, Note_off_c, 0, 62, 62
1, 382499, Control_c, 0, 64, 71
1, 382503, Note_on_c, 0, 67, 76
1, 382514, Control_c, 0, 64, 70
1, 382529, Control_c, 0, 64, 69
1, 382544, Control_c, 0, 64, 68
1, 382554, Note_on_c, 0, 74, 66
1, 382558, Control_c, 0, 64, 66
1, 382561, Note_on_c, 0, 79, 75
1, 382561, Note_off_c, 0, 67, 61
1, 382563, Note_on_c, 0, 70, 51
1, 382573, Control_c, 0, 64, 65
1, 382576, Note_off_c, 0, 74, 56
1, 382588, Control_c, 0, 64, 64
1, 382589, Note_off_c, 0, 70, 65
1, 382591, Note_off_c, 0, 79, 64
1, 382602, Control_c, 0, 64, 63
1, 382617, Control_c, 0, 64, 63
1, 382632, Control_c, 0, 64, 62
1, 382634, Note_on_c, 0, 58, 81
1, 382647, Control_c, 0, 64, 62
1, 382662, Control_c, 0, 64, 60
1, 382676, Control_c, 0, 64, 59
1, 382681, Note_off_c, 0, 58, 62
1, 382691, Control_c, 0, 64, 58
1, 382695, Note_on_c, 0, 62, 74
1, 382706, Control_c, 0, 64, 57
1, 382721, Control_c, 0, 64, 56
1, 382737, Control_c, 0, 64, 54
1, 382750, Note_on_c, 0, 74, 73
1, 382751, Note_on_c, 0, 70, 63
1, 382752, Control_c, 0, 64, 52
1, 382755, Note_off_c, 0, 62, 64
1, 382767, Note_on_c, 0, 67, 43
1, 382767, Control_c, 0, 64, 51
1, 382779, Note_off_c, 0, 70, 67
1, 382781, Control_c, 0, 64, 50
1, 382782, Note_off_c, 0, 74, 65
1, 382791, Note_off_c, 0, 67, 55
1, 382796, Control_c, 0, 64, 49
1, 382811, Control_c, 0, 64, 49
1, 382825, Control_c, 0, 64, 47
1, 382828, Note_on_c, 0, 55, 79
1, 382840, Control_c, 0, 64, 46
1, 382855, Control_c, 0, 64, 45
1, 382856, Note_off_c, 0, 55, 70
1, 382887, Note_on_c, 0, 58, 72
1, 382899, Control_c, 0, 64, 44
1, 382914, Control_c, 0, 64, 43
1, 382929, Control_c, 0, 64, 42
1, 382944, Control_c, 0, 64, 41
1, 382947, Note_on_c, 0, 70, 68
1, 382950, Note_off_c, 0, 58, 63
1, 382957, Note_on_c, 0, 62, 42
1, 382959, Control_c, 0, 64, 41
1, 382973, Control_c, 0, 64, 38
1, 382983, Note_off_c, 0, 62, 57
1, 382988, Note_off_c, 0, 70, 60
1, 382988, Control_c, 0, 64, 35
1, 383003, Control_c, 0, 64, 33
1, 383018, Control_c, 0, 64, 32
1, 383022, Note_on_c, 0, 50, 59
1, 383033, Control_c, 0, 64, 30
1, 383047, Control_c, 0, 64, 25
1, 383053, Note_off_c, 0, 50, 66
1, 383062, Control_c, 0, 64, 15
1, 383077, Control_c, 0, 64, 0
1, 383094, Note_on_c, 0, 55, 58
1, 383150, Note_off_c, 0, 55, 61
1, 383165, Note_on_c, 0, 67, 33
1, 383173, Note_on_c, 0, 58, 36
1, 383194, Note_off_c, 0, 67, 48
1, 383202, Note_off_c, 0, 58, 46
1, 383227, Note_on_c, 0, 46, 61
1, 383256, Note_off_c, 0, 46, 65
1, 383289, Note_on_c, 0, 50, 67
1, 383338, Note_off_c, 0, 50, 62
1, 383340, Note_on_c, 0, 62, 66
1, 383344, Note_on_c, 0, 58, 44
1, 383353, Note_on_c, 0, 55, 41
1, 383375, Note_off_c, 0, 58, 64
1, 383386, Note_off_c, 0, 55, 52
1, 383389, Note_off_c, 0, 62, 62
1, 383415, Note_on_c, 0, 47, 90
1, 383440, Control_c, 0, 64, 55
1, 383455, Control_c, 0, 64, 71
1, 383461, Note_off_c, 0, 47, 65
1, 383468, Note_on_c, 0, 53, 77
1, 383470, Control_c, 0, 64, 104
1, 383485, Control_c, 0, 64, 127
1, 383525, Note_off_c, 0, 53, 62
1, 383533, Note_on_c, 0, 56, 68
1, 383534, Note_on_c, 0, 65, 75
1, 383560, Control_c, 0, 64, 116
1, 383564, Note_off_c, 0, 56, 66
1, 383575, Control_c, 0, 64, 88
1, 383577, Note_on_c, 0, 62, 5
1, 383584, Note_off_c, 0, 65, 61
1, 383590, Control_c, 0, 64, 70
1, 383604, Control_c, 0, 64, 56
1, 383608, Note_off_c, 0, 62, 45
1, 383619, Control_c, 0, 64, 0
1, 383620, Note_on_c, 0, 48, 72
1, 383630, Note_on_c, 0, 36, 64
1, 383658, Note_off_c, 0, 36, 64
1, 383659, Note_off_c, 0, 48, 62
1, 383689, Note_on_c, 0, 55, 70
1, 383750, Note_on_c, 0, 60, 61
1, 383750, Note_on_c, 0, 64, 64
1, 383753, Note_off_c, 0, 55, 61
1, 383782, Note_off_c, 0, 60, 66
1, 383784, Note_off_c, 0, 64, 66
1, 383820, Note_on_c, 0, 52, 59
1, 383849, Note_off_c, 0, 52, 66
1, 383877, Note_on_c, 0, 55, 69
1, 383925, Note_off_c, 0, 55, 61
1, 383933, Note_on_c, 0, 67, 68
1, 383937, Note_on_c, 0, 58, 47
1, 383963, Note_off_c, 0, 58, 59
1, 383978, Note_off_c, 0, 67, 63
1, 384021, Note_on_c, 0, 41, 68
1, 384026, Note_on_c, 0, 53, 68
1, 384049, Note_off_c, 0, 41, 66
1, 384055, Note_off_c, 0, 53, 66
1, 384079, Note_on_c, 0, 57, 63
1, 384114, Note_off_c, 0, 57, 67
1, 384133, Note_on_c, 0, 60, 52
1, 384133, Note_on_c, 0, 69, 71
1, 384159, Note_off_c, 0, 60, 63
1, 384186, Note_off_c, 0, 69, 61
1, 384217, Note_on_c, 0, 56, 77
1, 384219, Control_c, 0, 64, 34
1, 384234, Control_c, 0, 64, 59
1, 384248, Control_c, 0, 64, 69
1, 384256, Note_off_c, 0, 56, 64
1, 384263, Control_c, 0, 64, 88
1, 384266, Note_on_c, 0, 60, 62
1, 384278, Control_c, 0, 64, 127
1, 384337, Note_off_c, 0, 60, 62
1, 384338, Note_on_c, 0, 66, 67
1, 384340, Note_on_c, 0, 72, 76
1, 384367, Note_off_c, 0, 66, 65
1, 384375, Note_off_c, 0, 72, 63
1, 384416, Note_on_c, 0, 55, 89
1, 384422, Note_on_c, 0, 43, 76
1, 384441, Control_c, 0, 64, 102
1, 384448, Note_off_c, 0, 43, 65
1, 384451, Note_off_c, 0, 55, 60
1, 384456, Control_c, 0, 64, 87
1, 384470, Control_c, 0, 64, 74
1, 384485, Control_c, 0, 64, 64
1, 384488, Note_on_c, 0, 62, 76
1, 384500, Control_c, 0, 64, 45
1, 384515, Control_c, 0, 64, 0
1, 384538, Note_on_c, 0, 71, 80
1, 384549, Note_on_c, 0, 67, 66
1, 384551, Note_off_c, 0, 62, 64
1, 384577, Note_off_c, 0, 67, 66
1, 384588, Note_off_c, 0, 71, 66
1, 384604, Note_on_c, 0, 59, 94
1, 384644, Note_off_c, 0, 59, 65
1, 384672, Note_on_c, 0, 62, 80
1, 384703, Note_off_c, 0, 62, 69
1, 384732, Note_on_c, 0, 74, 85
1, 384735, Note_on_c, 0, 65, 69
1, 384762, Note_off_c, 0, 65, 67
1, 384783, Note_off_c, 0, 74, 66
1, 384802, Note_on_c, 0, 60, 91
1, 384809, Note_on_c, 0, 48, 74
1, 384832, Note_off_c, 0, 60, 68
1, 384834, Note_off_c, 0, 48, 67
1, 384872, Note_on_c, 0, 64, 86
1, 384922, Note_off_c, 0, 64, 66
1, 384927, Note_on_c, 0, 76, 92
1, 384958, Note_on_c, 0, 69, 36
1, 384973, Note_off_c, 0, 76, 67
1, 384988, Note_off_c, 0, 69, 34
1, 385014, Note_on_c, 0, 51, 97
1, 385026, Control_c, 0, 64, 59
1, 385041, Control_c, 0, 64, 78
1, 385056, Note_off_c, 0, 51, 68
1, 385056, Control_c, 0, 64, 127
1, 385077, Note_on_c, 0, 55, 82
1, 385144, Note_on_c, 0, 61, 73
1, 385144, Note_off_c, 0, 55, 58
1, 385147, Note_on_c, 0, 67, 74
1, 385174, Note_off_c, 0, 61, 64
1, 385195, Note_off_c, 0, 67, 63
1, 385206, Control_c, 0, 64, 95
1, 385220, Control_c, 0, 64, 81
1, 385227, Note_on_c, 0, 50, 88
1, 385233, Note_on_c, 0, 38, 77
1, 385235, Control_c, 0, 64, 70
1, 385250, Control_c, 0, 64, 63
1, 385265, Control_c, 0, 64, 53
1, 385267, Note_off_c, 0, 38, 65
1, 385280, Control_c, 0, 64, 44
1, 385280, Note_off_c, 0, 50, 64
1, 385294, Note_on_c, 0, 57, 77
1, 385294, Control_c, 0, 64, 32
1, 385309, Control_c, 0, 64, 0
1, 385360, Note_on_c, 0, 62, 68
1, 385367, Note_off_c, 0, 57, 61
1, 385368, Note_on_c, 0, 66, 72
1, 385390, Note_off_c, 0, 62, 66
1, 385403, Note_off_c, 0, 66, 62
1, 385431, Note_on_c, 0, 54, 87
1, 385462, Note_off_c, 0, 54, 65
1, 385501, Note_on_c, 0, 57, 82
1, 385553, Note_off_c, 0, 57, 67
1, 385563, Note_on_c, 0, 60, 65
1, 385570, Note_on_c, 0, 69, 79
1, 385590, Note_on_c, 0, 62, 29
1, 385593, Note_off_c, 0, 60, 67
1, 385614, Note_off_c, 0, 69, 63
1, 385626, Note_off_c, 0, 62, 44
1, 385636, Note_on_c, 0, 55, 89
1, 385643, Note_on_c, 0, 43, 72
1, 385668, Note_off_c, 0, 55, 63
1, 385670, Note_off_c, 0, 43, 65
1, 385695, Note_on_c, 0, 59, 68
1, 385702, Note_on_c, 0, 60, 69
1, 385731, Note_off_c, 0, 59, 65
1, 385733, Note_off_c, 0, 60, 68
1, 385749, Note_on_c, 0, 62, 71
1, 385761, Note_on_c, 0, 71, 75
1, 385773, Note_off_c, 0, 62, 67
1, 385791, Note_on_c, 0, 72, 30
1, 385792, Note_off_c, 0, 72, 127
1, 385804, Note_off_c, 0, 71, 64
1, 385839, Note_on_c, 0, 58, 99
1, 385850, Control_c, 0, 64, 43
1, 385862, Note_on_c, 0, 56, 54
1, 385864, Control_c, 0, 64, 72
1, 385879, Note_off_c, 0, 58, 68
1, 385879, Control_c, 0, 64, 127
1, 385888, Note_on_c, 0, 62, 67
1, 385890, Note_off_c, 0, 56, 62
1, 385965, Note_on_c, 0, 74, 89
1, 385969, Note_on_c, 0, 68, 82
1, 385977, Note_off_c, 0, 62, 61
1, 385993, Note_off_c, 0, 68, 67
1, 385999, Control_c, 0, 64, 101
1, 386008, Note_off_c, 0, 74, 66
1, 386013, Control_c, 0, 64, 83
1, 386028, Control_c, 0, 64, 75
1, 386043, Control_c, 0, 64, 71
1, 386058, Control_c, 0, 64, 70
1, 386058, Note_on_c, 0, 57, 97
1, 386067, Note_on_c, 0, 45, 84
1, 386073, Control_c, 0, 64, 69
1, 386088, Control_c, 0, 64, 68
1, 386094, Note_off_c, 0, 45, 68
1, 386103, Control_c, 0, 64, 65
1, 386106, Note_off_c, 0, 57, 66
1, 386117, Control_c, 0, 64, 63
1, 386119, Note_on_c, 0, 64, 82
1, 386132, Control_c, 0, 64, 62
1, 386147, Control_c, 0, 64, 62
1, 386177, Control_c, 0, 64, 61
1, 386194, Note_on_c, 0, 73, 86
1, 386195, Note_on_c, 0, 69, 72
1, 386206, Control_c, 0, 64, 61
1, 386207, Note_off_c, 0, 64, 64
1, 386228, Note_off_c, 0, 69, 68
1, 386248, Note_on_c, 0, 70, 24
1, 386249, Note_off_c, 0, 70, 127
1, 386251, Note_off_c, 0, 73, 64
1, 386258, Control_c, 0, 64, 61
1, 386267, Note_on_c, 0, 61, 94
1, 386306, Note_off_c, 0, 61, 66
1, 386325, Note_on_c, 0, 64, 86
1, 386377, Control_c, 0, 64, 62
1, 386392, Note_on_c, 0, 76, 90
1, 386392, Control_c, 0, 64, 62
1, 386395, Note_off_c, 0, 64, 63
1, 386406, Note_on_c, 0, 67, 55
1, 386421, Control_c, 0, 64, 63
1, 386428, Note_off_c, 0, 67, 59
1, 386436, Control_c, 0, 64, 61
1, 386441, Note_on_c, 0, 69, 7
1, 386450, Note_off_c, 0, 76, 66
1, 386450, Control_c, 0, 64, 50
1, 386452, Note_off_c, 0, 69, 38
1, 386465, Control_c, 0, 64, 0
1, 386490, Note_on_c, 0, 62, 95
1, 386499, Note_on_c, 0, 50, 71
1, 386522, Note_on_c, 0, 52, 54
1, 386524, Control_c, 0, 64, 50
1, 386534, Note_off_c, 0, 50, 65
1, 386539, Control_c, 0, 64, 67
1, 386547, Note_off_c, 0, 52, 41
1, 386549, Note_off_c, 0, 62, 65
1, 386554, Control_c, 0, 64, 85
1, 386559, Note_on_c, 0, 65, 73
1, 386568, Control_c, 0, 64, 127
1, 386595, Note_off_c, 0, 65, 62
1, 386600, Note_on_c, 0, 77, 89
1, 386609, Note_on_c, 0, 69, 67
1, 386622, Note_on_c, 0, 74, 64
1, 386637, Note_off_c, 0, 69, 65
1, 386653, Note_off_c, 0, 74, 66
1, 386681, Note_off_c, 0, 77, 61
1, 386700, Note_on_c, 0, 65, 95
1, 386731, Note_off_c, 0, 65, 64
1, 386778, Note_on_c, 0, 69, 81
1, 386839, Note_on_c, 0, 74, 78
1, 386847, Note_off_c, 0, 69, 62
1, 386896, Control_c, 0, 64, 80
1, 386911, Control_c, 0, 64, 56
1, 386914, Note_off_c, 0, 74, 61
1, 386926, Control_c, 0, 64, 0
1, 386931, Note_on_c, 0, 53, 83
1, 386937, Note_on_c, 0, 41, 78
1, 386977, Control_c, 0, 64, 44
1, 386980, Note_off_c, 0, 41, 66
1, 386992, Control_c, 0, 64, 63
1, 387000, Note_off_c, 0, 53, 65
1, 387007, Control_c, 0, 64, 78
1, 387009, Note_on_c, 0, 65, 73
1, 387021, Control_c, 0, 64, 127
1, 387069, Note_on_c, 0, 77, 83
1, 387070, Note_off_c, 0, 65, 63
1, 387112, Note_off_c, 0, 77, 64
1, 387148, Note_on_c, 0, 65, 86
1, 387155, Note_on_c, 0, 62, 72
1, 387167, Note_on_c, 0, 53, 62
1, 387182, Note_off_c, 0, 62, 68
1, 387194, Note_off_c, 0, 53, 63
1, 387199, Control_c, 0, 64, 119
1, 387201, Note_off_c, 0, 65, 63
1, 387206, Note_on_c, 0, 77, 91
1, 387214, Control_c, 0, 64, 103
1, 387229, Control_c, 0, 64, 92
1, 387244, Control_c, 0, 64, 86
1, 387259, Control_c, 0, 64, 81
1, 387273, Control_c, 0, 64, 76
1, 387275, Note_on_c, 0, 89, 96
1, 387288, Control_c, 0, 64, 73
1, 387292, Note_off_c, 0, 77, 63
1, 387303, Control_c, 0, 64, 71
1, 387319, Note_off_c, 0, 89, 66
1, 387333, Control_c, 0, 64, 70
1, 387347, Control_c, 0, 64, 69
1, 387354, Note_on_c, 0, 64, 89
1, 387358, Note_on_c, 0, 61, 79
1, 387361, Note_on_c, 0, 53, 81
1, 387362, Control_c, 0, 64, 68
1, 387377, Control_c, 0, 64, 67
1, 387391, Control_c, 0, 64, 66
1, 387397, Note_off_c, 0, 64, 66
1, 387403, Note_off_c, 0, 61, 61
1, 387406, Control_c, 0, 64, 64
1, 387412, Note_off_c, 0, 53, 63
1, 387421, Control_c, 0, 64, 63
1, 387426, Note_on_c, 0, 88, 96
1, 387436, Control_c, 0, 64, 63
1, 387494, Note_off_c, 0, 88, 66
1, 387507, Note_on_c, 0, 76, 86
1, 387550, Note_off_c, 0, 76, 63
1, 387570, Control_c, 0, 64, 62
1, 387574, Note_on_c, 0, 53, 83
1, 387581, Note_on_c, 0, 41, 73
1, 387600, Control_c, 0, 64, 61
1, 387602, Note_off_c, 0, 53, 67
1, 387609, Note_off_c, 0, 41, 65
1, 387614, Control_c, 0, 64, 59
1, 387629, Control_c, 0, 64, 54
1, 387644, Control_c, 0, 64, 39
1, 387647, Note_on_c, 0, 76, 88
1, 387659, Control_c, 0, 64, 0
1, 387707, Note_on_c, 0, 64, 75
1, 387724, Note_off_c, 0, 76, 65
1, 387745, Note_off_c, 0, 64, 68
1, 387767, Note_on_c, 0, 41, 68
1, 387767, Note_on_c, 0, 53, 86
1, 387794, Note_off_c, 0, 41, 65
1, 387799, Note_off_c, 0, 53, 65
1, 387800, Control_c, 0, 64, 51
1, 387815, Control_c, 0, 64, 71
1, 387829, Control_c, 0, 64, 127
1, 387835, Note_on_c, 0, 63, 81
1, 387886, Note_off_c, 0, 63, 63
1, 387904, Note_on_c, 0, 75, 84
1, 387933, Note_off_c, 0, 75, 61
1, 387974, Note_on_c, 0, 60, 52
1, 387980, Note_on_c, 0, 63, 97
1, 387998, Note_on_c, 0, 53, 57
1, 388014, Note_off_c, 0, 60, 66
1, 388015, Note_off_c, 0, 53, 65
1, 388032, Note_on_c, 0, 75, 88
1, 388049, Note_off_c, 0, 63, 52
1, 388052, Control_c, 0, 64, 107
1, 388067, Control_c, 0, 64, 96
1, 388081, Control_c, 0, 64, 90
1, 388091, Note_off_c, 0, 75, 56
1, 388095, Control_c, 0, 64, 84
1, 388104, Note_on_c, 0, 87, 81
1, 388110, Control_c, 0, 64, 79
1, 388125, Control_c, 0, 64, 74
1, 388140, Control_c, 0, 64, 69
1, 388155, Control_c, 0, 64, 65
1, 388156, Note_off_c, 0, 87, 63
1, 388169, Control_c, 0, 64, 63
1, 388181, Note_on_c, 0, 62, 83
1, 388182, Note_on_c, 0, 59, 68
1, 388184, Note_on_c, 0, 53, 75
1, 388184, Control_c, 0, 64, 62
1, 388199, Control_c, 0, 64, 62
1, 388213, Note_off_c, 0, 62, 64
1, 388213, Control_c, 0, 64, 61
1, 388219, Note_off_c, 0, 59, 64
1, 388228, Control_c, 0, 64, 60
1, 388238, Note_off_c, 0, 53, 63
1, 388243, Control_c, 0, 64, 60
1, 388257, Note_on_c, 0, 88, 70
1, 388258, Control_c, 0, 64, 59
1, 388261, Note_on_c, 0, 86, 76
1, 388273, Control_c, 0, 64, 58
1, 388288, Control_c, 0, 64, 57
1, 388294, Note_off_c, 0, 88, 67
1, 388303, Control_c, 0, 64, 57
1, 388319, Note_off_c, 0, 86, 64
1, 388326, Note_on_c, 0, 74, 77
1, 388333, Control_c, 0, 64, 56
1, 388348, Control_c, 0, 64, 56
1, 388353, Note_off_c, 0, 74, 63
1, 388363, Control_c, 0, 64, 54
1, 388378, Control_c, 0, 64, 53
1, 388390, Note_on_c, 0, 53, 70
1, 388392, Note_on_c, 0, 41, 67
1, 388392, Control_c, 0, 64, 52
1, 388407, Control_c, 0, 64, 52
1, 388419, Note_off_c, 0, 53, 66
1, 388420, Note_off_c, 0, 41, 63
1, 388422, Control_c, 0, 64, 51
1, 388437, Control_c, 0, 64, 48
1, 388452, Control_c, 0, 64, 45
1, 388459, Note_on_c, 0, 74, 67
1, 388474, Control_c, 0, 64, 36
1, 388489, Control_c, 0, 64, 9
1, 388504, Control_c, 0, 64, 0
1, 388532, Note_off_c, 0, 74, 62
1, 388534, Note_on_c, 0, 62, 57
1, 388567, Note_off_c, 0, 62, 65
1, 388592, Note_on_c, 0, 41, 61
1, 388594, Note_on_c, 0, 53, 67
1, 388607, Control_c, 0, 64, 24
1, 388622, Control_c, 0, 64, 56
1, 388623, Note_off_c, 0, 41, 65
1, 388624, Note_off_c, 0, 53, 65
1, 388637, Control_c, 0, 64, 66
1, 388652, Control_c, 0, 64, 76
1, 388666, Control_c, 0, 64, 115
1, 388669, Note_on_c, 0, 61, 59
1, 388681, Control_c, 0, 64, 127
1, 388702, Note_off_c, 0, 61, 65
1, 388735, Note_on_c, 0, 73, 67
1, 388762, Note_off_c, 0, 73, 67
1, 388795, Note_on_c, 0, 61, 66
1, 388808, Note_on_c, 0, 53, 60
1, 388814, Note_on_c, 0, 58, 63
1, 388841, Note_off_c, 0, 61, 55
1, 388854, Note_off_c, 0, 53, 61
1, 388860, Note_off_c, 0, 58, 58
1, 388866, Note_on_c, 0, 73, 71
1, 388875, Control_c, 0, 64, 122
1, 388890, Control_c, 0, 64, 106
1, 388905, Control_c, 0, 64, 96
1, 388919, Control_c, 0, 64, 91
1, 388933, Note_off_c, 0, 73, 62
1, 388934, Control_c, 0, 64, 87
1, 388935, Note_on_c, 0, 85, 67
1, 388949, Control_c, 0, 64, 83
1, 388964, Control_c, 0, 64, 81
1, 388969, Note_off_c, 0, 85, 60
1, 388979, Control_c, 0, 64, 78
1, 388993, Control_c, 0, 64, 74
1, 389007, Note_on_c, 0, 57, 69
1, 389008, Control_c, 0, 64, 71
1, 389009, Note_on_c, 0, 53, 63
1, 389023, Control_c, 0, 64, 68
1, 389037, Control_c, 0, 64, 65
1, 389042, Note_on_c, 0, 60, 25
1, 389045, Note_off_c, 0, 53, 63
1, 389052, Control_c, 0, 64, 64
1, 389067, Control_c, 0, 64, 63
1, 389072, Note_on_c, 0, 84, 76
1, 389072, Note_off_c, 0, 57, 61
1, 389082, Control_c, 0, 64, 62
1, 389083, Note_off_c, 0, 60, 30
1, 389097, Control_c, 0, 64, 61
1, 389113, Control_c, 0, 64, 60
1, 389123, Note_off_c, 0, 84, 64
1, 389128, Control_c, 0, 64, 59
1, 389142, Control_c, 0, 64, 58
1, 389157, Control_c, 0, 64, 57
1, 389158, Note_on_c, 0, 71, 48
1, 389172, Control_c, 0, 64, 56
1, 389183, Note_off_c, 0, 71, 56
1, 389187, Control_c, 0, 64, 55
1, 389202, Control_c, 0, 64, 54
1, 389221, Note_on_c, 0, 65, 80
1, 389224, Control_c, 0, 64, 53
1, 389227, Note_on_c, 0, 53, 64
1, 389232, Note_on_c, 0, 57, 54
1, 389239, Control_c, 0, 64, 51
1, 389254, Control_c, 0, 64, 50
1, 389262, Note_off_c, 0, 65, 55
1, 389265, Note_off_c, 0, 53, 62
1, 389266, Note_off_c, 0, 57, 64
1, 389268, Control_c, 0, 64, 49
1, 389283, Control_c, 0, 64, 47
1, 389287, Note_on_c, 0, 69, 53
1, 389292, Note_on_c, 0, 77, 67
1, 389309, Note_off_c, 0, 69, 61
1, 389313, Control_c, 0, 64, 47
1, 389342, Control_c, 0, 64, 46
1, 389357, Control_c, 0, 64, 46
1, 389365, Note_off_c, 0, 77, 61
1, 389386, Note_on_c, 0, 65, 27
1, 389387, Control_c, 0, 64, 45
1, 389402, Control_c, 0, 64, 44
1, 389416, Control_c, 0, 64, 44
1, 389421, Note_off_c, 0, 65, 32
1, 389430, Note_on_c, 0, 64, 61
1, 389431, Control_c, 0, 64, 43
1, 389432, Note_on_c, 0, 55, 50
1, 389436, Note_on_c, 0, 58, 51
1, 389446, Control_c, 0, 64, 42
1, 389461, Control_c, 0, 64, 41
1, 389462, Note_off_c, 0, 55, 62
1, 389462, Note_off_c, 0, 58, 61
1, 389462, Note_off_c, 0, 64, 65
1, 389475, Control_c, 0, 64, 40
1, 389490, Control_c, 0, 64, 39
1, 389504, Note_on_c, 0, 70, 48
1, 389505, Control_c, 0, 64, 38
1, 389520, Control_c, 0, 64, 38
1, 389535, Control_c, 0, 64, 36
1, 389543, Note_off_c, 0, 70, 62
1, 389549, Control_c, 0, 64, 35
1, 389564, Poly_aftertouch_c, 0, 77, 0
1, 389564, Control_c, 0, 64, 33
1, 389569, Note_on_c, 0, 67, 51
1, 389579, Control_c, 0, 64, 31
1, 389588, Poly_aftertouch_c, 0, 76, 0
1, 389594, Control_c, 0, 64, 29
1, 389598, Note_off_c, 0, 67, 60
1, 389609, Control_c, 0, 64, 25
1, 389623, Control_c, 0, 64, 19
1, 389638, Control_c, 0, 64, 0
1, 389655, Note_on_c, 0, 61, 41
1, 389657, Note_on_c, 0, 57, 37
1, 389667, Note_on_c, 0, 64, 37
1, 389680, Note_off_c, 0, 61, 57
1, 389686, Note_off_c, 0, 57, 52
1, 389697, Note_off_c, 0, 64, 51
1, 389714, Note_on_c, 0, 73, 49
1, 389718, Note_on_c, 0, 69, 53
1, 389763, Note_off_c, 0, 69, 61
1, 389769, Note_off_c, 0, 73, 57
1, 389802, Note_on_c, 0, 67, 36
1, 389837, Note_off_c, 0, 67, 52
1, 389873, Note_on_c, 0, 50, 40
1, 389892, Note_on_c, 0, 62, 18
1, 389921, Control_c, 0, 64, 50
1, 389936, Control_c, 0, 64, 62
1, 389938, Note_off_c, 0, 62, 51
1, 389942, Note_on_c, 0, 74, 50
1, 389951, Control_c, 0, 64, 69
1, 389972, Control_c, 0, 64, 81
1, 389974, Note_off_c, 0, 50, 54
1, 389980, Note_on_c, 0, 65, 19
1, 389987, Control_c, 0, 64, 127
1, 390022, Note_off_c, 0, 74, 57
1, 390023, Note_off_c, 0, 65, 45
1, 390032, Note_on_c, 0, 69, 56
1, 390090, Note_off_c, 0, 69, 54
1, 390106, Control_c, 0, 64, 113
1, 390116, Note_on_c, 0, 65, 54
1, 390121, Control_c, 0, 64, 99
1, 390136, Control_c, 0, 64, 92
1, 390151, Note_off_c, 0, 65, 63
1, 390151, Control_c, 0, 64, 86
1, 390165, Control_c, 0, 64, 81
1, 390180, Control_c, 0, 64, 78
1, 390193, Note_on_c, 0, 62, 48
1, 390195, Control_c, 0, 64, 75
1, 390210, Control_c, 0, 64, 73
1, 390220, Note_off_c, 0, 62, 59
1, 390224, Control_c, 0, 64, 72
1, 390239, Control_c, 0, 64, 70
1, 390254, Control_c, 0, 64, 68
1, 390269, Control_c, 0, 64, 66
1, 390273, Note_on_c, 0, 57, 52
1, 390284, Control_c, 0, 64, 64
1, 390298, Control_c, 0, 64, 63
1, 390313, Control_c, 0, 64, 63
1, 390333, Note_off_c, 0, 57, 51
1, 390343, Control_c, 0, 64, 62
1, 390358, Control_c, 0, 64, 61
1, 390372, Control_c, 0, 64, 60
1, 390387, Control_c, 0, 64, 59
1, 390402, Control_c, 0, 64, 58
1, 390409, Note_on_c, 0, 65, 46
1, 390416, Note_on_c, 0, 53, 38
1, 390416, Control_c, 0, 64, 58
1, 390449, Note_off_c, 0, 53, 55
1, 390482, Note_on_c, 0, 38, 42
1, 390484, Note_off_c, 0, 65, 62
1, 390491, Control_c, 0, 64, 59
1, 390506, Control_c, 0, 64, 59
1, 390513, Note_off_c, 0, 38, 54
1, 390521, Control_c, 0, 64, 60
1, 390535, Control_c, 0, 64, 60
1, 390550, Control_c, 0, 64, 61
1, 390564, Note_on_c, 0, 53, 48
1, 390565, Control_c, 0, 64, 62
1, 390580, Control_c, 0, 64, 62
1, 390595, Control_c, 0, 64, 63
1, 390598, Note_off_c, 0, 53, 65
1, 390624, Note_on_c, 0, 69, 60
1, 390651, Note_on_c, 0, 57, 28
1, 390652, Note_on_c, 0, 62, 34
1, 390673, Note_off_c, 0, 69, 54
1, 390682, Note_off_c, 0, 57, 48
1, 390688, Note_off_c, 0, 62, 55
1, 390727, Note_on_c, 0, 41, 56
1, 390736, Control_c, 0, 64, 62
1, 390759, Note_off_c, 0, 41, 64
1, 390792, Note_on_c, 0, 57, 57
1, 390824, Note_off_c, 0, 57, 66
1, 390850, Note_on_c, 0, 68, 69
1, 390863, Note_on_c, 0, 56, 53
1, 390868, Note_on_c, 0, 62, 36
1, 390884, Control_c, 0, 64, 62
1, 390893, Note_off_c, 0, 56, 64
1, 390904, Note_off_c, 0, 62, 56
1, 390929, Control_c, 0, 64, 61
1, 390932, Note_on_c, 0, 40, 50
1, 390945, Note_off_c, 0, 68, 56
1, 390959, Control_c, 0, 64, 61
1, 390965, Note_off_c, 0, 40, 55
1, 390988, Control_c, 0, 64, 60
1, 390995, Note_on_c, 0, 56, 60
1, 391003, Control_c, 0, 64, 60
1, 391024, Note_off_c, 0, 56, 63
1, 391033, Control_c, 0, 64, 59
1, 391047, Control_c, 0, 64, 59
1, 391057, Note_on_c, 0, 71, 81
1, 391062, Control_c, 0, 64, 58
1, 391069, Note_on_c, 0, 62, 46
1, 391069, Note_on_c, 0, 59, 62
1, 391077, Control_c, 0, 64, 58
1, 391100, Note_off_c, 0, 59, 65
1, 391102, Note_off_c, 0, 62, 64
1, 391126, Note_on_c, 0, 44, 65
1, 391130, Note_off_c, 0, 71, 61
1, 391165, Note_off_c, 0, 44, 64
1, 391205, Note_on_c, 0, 59, 64
1, 391239, Note_off_c, 0, 59, 67
1, 391251, Note_on_c, 0, 62, 21
1, 391262, Note_on_c, 0, 70, 87
1, 391282, Note_on_c, 0, 58, 43
1, 391290, Note_off_c, 0, 62, 64
1, 391310, Note_off_c, 0, 58, 49
1, 391334, Note_on_c, 0, 43, 67
1, 391335, Note_off_c, 0, 70, 62
1, 391363, Note_off_c, 0, 43, 65
1, 391394, Note_on_c, 0, 58, 71
1, 391418, Control_c, 0, 64, 57
1, 391432, Control_c, 0, 64, 57
1, 391433, Note_off_c, 0, 58, 63
1, 391447, Control_c, 0, 64, 56
1, 391469, Note_on_c, 0, 74, 90
1, 391477, Note_on_c, 0, 67, 66
1, 391479, Note_on_c, 0, 62, 73
1, 391499, Control_c, 0, 64, 56
1, 391512, Note_off_c, 0, 62, 65
1, 391513, Note_off_c, 0, 67, 60
1, 391530, Control_c, 0, 64, 55
1, 391540, Note_on_c, 0, 46, 67
1, 391544, Note_off_c, 0, 74, 62
1, 391544, Control_c, 0, 64, 55
1, 391573, Note_off_c, 0, 46, 67
1, 391612, Note_on_c, 0, 62, 74
1, 391618, Control_c, 0, 64, 54
1, 391644, Note_off_c, 0, 62, 65
1, 391686, Note_on_c, 0, 61, 71
1, 391686, Note_on_c, 0, 73, 80
1, 391689, Note_on_c, 0, 67, 58
1, 391716, Note_off_c, 0, 61, 67
1, 391725, Note_off_c, 0, 67, 63
1, 391737, Control_c, 0, 64, 54
1, 391752, Control_c, 0, 64, 53
1, 391752, Note_on_c, 0, 45, 66
1, 391757, Note_off_c, 0, 73, 61
1, 391767, Control_c, 0, 64, 53
1, 391781, Note_off_c, 0, 45, 63
1, 391796, Control_c, 0, 64, 52
1, 391811, Control_c, 0, 64, 52
1, 391826, Control_c, 0, 64, 51
1, 391829, Note_on_c, 0, 61, 70
1, 391841, Control_c, 0, 64, 51
1, 391860, Note_off_c, 0, 61, 65
1, 391885, Control_c, 0, 64, 50
1, 391901, Note_on_c, 0, 64, 63
1, 391902, Note_on_c, 0, 76, 75
1, 391930, Note_off_c, 0, 64, 66
1, 391965, Note_off_c, 0, 76, 63
1, 391969, Note_on_c, 0, 49, 42
1, 391997, Note_off_c, 0, 49, 61
1, 392038, Note_on_c, 0, 64, 58
1, 392074, Note_off_c, 0, 64, 67
1, 392103, Note_on_c, 0, 79, 82
1, 392105, Note_on_c, 0, 67, 74
1, 392111, Note_on_c, 0, 73, 72
1, 392132, Note_off_c, 0, 67, 67
1, 392142, Note_off_c, 0, 73, 63
1, 392160, Note_off_c, 0, 79, 65
1, 392180, Note_on_c, 0, 53, 70
1, 392218, Control_c, 0, 64, 50
1, 392221, Note_off_c, 0, 53, 67
1, 392269, Note_on_c, 0, 69, 68
1, 392273, Note_on_c, 0, 67, 61
1, 392298, Note_off_c, 0, 69, 67
1, 392305, Note_off_c, 0, 67, 65
1, 392318, Note_on_c, 0, 82, 88
1, 392318, Note_on_c, 0, 70, 82
1, 392321, Note_on_c, 0, 73, 76
1, 392344, Note_on_c, 0, 80, 53
1, 392345, Note_off_c, 0, 80, 127
1, 392349, Note_off_c, 0, 70, 61
1, 392354, Note_off_c, 0, 73, 60
1, 392390, Note_on_c, 0, 55, 75
1, 392399, Note_off_c, 0, 82, 63
1, 392415, Note_off_c, 0, 55, 67
1, 392427, Control_c, 0, 64, 50
1, 392457, Note_on_c, 0, 70, 84
1, 392484, Note_off_c, 0, 70, 66
1, 392533, Note_on_c, 0, 81, 94
1, 392534, Note_on_c, 0, 74, 74
1, 392539, Note_on_c, 0, 69, 82
1, 392561, Note_off_c, 0, 74, 67
1, 392562, Note_off_c, 0, 69, 66
1, 392598, Note_off_c, 0, 81, 65
1, 392615, Note_on_c, 0, 54, 60
1, 392639, Note_on_c, 0, 56, 41
1, 392645, Note_off_c, 0, 54, 66
1, 392671, Note_off_c, 0, 56, 53
1, 392679, Note_on_c, 0, 69, 79
1, 392692, Control_c, 0, 64, 50
1, 392714, Note_off_c, 0, 69, 63
1, 392722, Control_c, 0, 64, 49
1, 392737, Control_c, 0, 64, 48
1, 392742, Note_on_c, 0, 74, 83
1, 392744, Note_on_c, 0, 71, 80
1, 392752, Note_on_c, 0, 68, 81
1, 392752, Control_c, 0, 64, 48
1, 392766, Control_c, 0, 64, 47
1, 392780, Note_off_c, 0, 68, 62
1, 392782, Note_off_c, 0, 71, 61
1, 392798, Note_off_c, 0, 74, 63
1, 392813, Note_on_c, 0, 53, 77
1, 392841, Note_off_c, 0, 53, 69
1, 392878, Note_on_c, 0, 68, 86
1, 392911, Note_off_c, 0, 68, 62
1, 392949, Note_on_c, 0, 73, 96
1, 392960, Note_on_c, 0, 67, 83
1, 392963, Note_on_c, 0, 69, 77
1, 392966, Control_c, 0, 64, 47
1, 392989, Note_off_c, 0, 69, 64
1, 393003, Note_off_c, 0, 67, 52
1, 393010, Control_c, 0, 64, 46
1, 393025, Control_c, 0, 64, 46
1, 393033, Note_on_c, 0, 52, 78
1, 393044, Note_off_c, 0, 73, 62
1, 393058, Note_off_c, 0, 52, 70
1, 393070, Control_c, 0, 64, 45
1, 393084, Control_c, 0, 64, 43
1, 393099, Control_c, 0, 64, 39
1, 393111, Note_on_c, 0, 67, 78
1, 393115, Control_c, 0, 64, 31
1, 393130, Control_c, 0, 64, 0
1, 393138, Note_off_c, 0, 67, 67
1, 393165, Note_on_c, 0, 74, 92
1, 393169, Note_on_c, 0, 65, 84
1, 393172, Note_on_c, 0, 69, 83
1, 393197, Note_off_c, 0, 65, 65
1, 393205, Note_off_c, 0, 69, 61
1, 393233, Note_on_c, 0, 50, 75
1, 393250, Note_off_c, 0, 74, 61
1, 393256, Note_off_c, 0, 50, 68
1, 393296, Note_on_c, 0, 65, 67
1, 393336, Note_off_c, 0, 65, 55
1, 393387, Note_on_c, 0, 64, 61
1, 393388, Note_on_c, 0, 76, 93
1, 393391, Note_on_c, 0, 61, 60
1, 393397, Note_on_c, 0, 57, 59
1, 393397, Control_c, 0, 64, 22
1, 393412, Control_c, 0, 64, 60
1, 393427, Control_c, 0, 64, 72
1, 393442, Control_c, 0, 64, 108
1, 393453, Note_on_c, 0, 73, 78
1, 393456, Control_c, 0, 64, 127
1, 393458, Note_off_c, 0, 64, 63
1, 393469, Note_off_c, 0, 57, 64
1, 393471, Note_off_c, 0, 76, 61
1, 393478, Note_off_c, 0, 61, 61
1, 393517, Note_on_c, 0, 69, 70
1, 393525, Note_off_c, 0, 73, 63
1, 393559, Note_off_c, 0, 69, 60
1, 393560, Control_c, 0, 64, 120
1, 393575, Control_c, 0, 64, 100
1, 393589, Control_c, 0, 64, 89
1, 393602, Note_on_c, 0, 64, 56
1, 393604, Control_c, 0, 64, 81
1, 393619, Control_c, 0, 64, 75
1, 393631, Note_off_c, 0, 64, 63
1, 393633, Control_c, 0, 64, 71
1, 393648, Control_c, 0, 64, 67
1, 393663, Control_c, 0, 64, 66
1, 393678, Control_c, 0, 64, 65
1, 393680, Note_on_c, 0, 61, 56
1, 393693, Control_c, 0, 64, 64
1, 393715, Control_c, 0, 64, 63
1, 393730, Note_off_c, 0, 61, 60
1, 393730, Control_c, 0, 64, 61
1, 393745, Control_c, 0, 64, 59
1, 393757, Note_on_c, 0, 57, 54
1, 393760, Control_c, 0, 64, 57
1, 393775, Control_c, 0, 64, 56
1, 393789, Control_c, 0, 64, 55
1, 393804, Control_c, 0, 64, 54
1, 393812, Note_off_c, 0, 57, 60
1, 393819, Control_c, 0, 64, 52
1, 393833, Control_c, 0, 64, 49
1, 393848, Control_c, 0, 64, 46
1, 393856, Note_on_c, 0, 65, 58
1, 393863, Control_c, 0, 64, 44
1, 393865, Note_on_c, 0, 53, 52
1, 393878, Control_c, 0, 64, 44
1, 393893, Control_c, 0, 64, 43
1, 393902, Note_off_c, 0, 53, 63
1, 393908, Note_on_c, 0, 38, 45
1, 393923, Note_off_c, 0, 65, 56
1, 393938, Control_c, 0, 64, 46
1, 393942, Note_off_c, 0, 38, 61
1, 393953, Control_c, 0, 64, 50
1, 393968, Control_c, 0, 64, 52
1, 393983, Control_c, 0, 64, 54
1, 393993, Note_on_c, 0, 53, 59
1, 393998, Control_c, 0, 64, 55
1, 394012, Control_c, 0, 64, 56
1, 394026, Note_off_c, 0, 53, 65
1, 394027, Control_c, 0, 64, 57
1, 394042, Control_c, 0, 64, 58
1, 394057, Control_c, 0, 64, 59
1, 394070, Note_on_c, 0, 69, 48
1, 394075, Note_on_c, 0, 57, 42
1, 394080, Note_on_c, 0, 62, 29
1, 394104, Note_off_c, 0, 57, 58
1, 394112, Note_off_c, 0, 62, 52
1, 394119, Note_off_c, 0, 69, 55
1, 394129, Note_on_c, 0, 41, 55
1, 394160, Note_off_c, 0, 41, 65
1, 394160, Control_c, 0, 64, 59
1, 394190, Control_c, 0, 64, 58
1, 394205, Note_on_c, 0, 57, 43
1, 394232, Note_off_c, 0, 57, 56
1, 394235, Control_c, 0, 64, 58
1, 394277, Note_on_c, 0, 65, 48
1, 394277, Note_on_c, 0, 59, 51
1, 394282, Note_on_c, 0, 71, 64
1, 394286, Note_on_c, 0, 62, 14
1, 394294, Control_c, 0, 64, 57
1, 394303, Note_off_c, 0, 59, 61
1, 394308, Note_off_c, 0, 65, 63
1, 394313, Note_off_c, 0, 62, 47
1, 394339, Note_on_c, 0, 44, 43
1, 394341, Note_off_c, 0, 71, 61
1, 394378, Note_off_c, 0, 44, 64
1, 394412, Control_c, 0, 64, 57
1, 394417, Note_on_c, 0, 59, 56
1, 394442, Control_c, 0, 64, 56
1, 394463, Note_off_c, 0, 59, 65
1, 394479, Control_c, 0, 64, 56
1, 394484, Note_on_c, 0, 74, 79
1, 394487, Note_on_c, 0, 65, 62
1, 394492, Note_on_c, 0, 62, 53
1, 394492, Note_on_c, 0, 68, 60
1, 394515, Note_off_c, 0, 62, 62
1, 394518, Note_off_c, 0, 65, 66
1, 394524, Note_off_c, 0, 68, 65
1, 394546, Note_off_c, 0, 74, 63
1, 394579, Note_on_c, 0, 47, 44
1, 394608, Note_off_c, 0, 47, 49
1, 394626, Note_on_c, 0, 62, 67
1, 394672, Note_off_c, 0, 62, 62
1, 394694, Note_on_c, 0, 67, 71
1, 394695, Note_on_c, 0, 75, 86
1, 394700, Note_on_c, 0, 63, 73
1, 394724, Note_off_c, 0, 63, 66
1, 394727, Note_off_c, 0, 67, 66
1, 394761, Note_on_c, 0, 48, 69
1, 394769, Note_off_c, 0, 75, 62
1, 394786, Note_off_c, 0, 48, 66
1, 394820, Control_c, 0, 64, 55
1, 394827, Note_on_c, 0, 63, 66
1, 394873, Note_off_c, 0, 63, 63
1, 394907, Note_on_c, 0, 72, 82
1, 394908, Note_on_c, 0, 67, 85
1, 394910, Note_on_c, 0, 79, 86
1, 394937, Note_off_c, 0, 72, 65
1, 394941, Note_off_c, 0, 67, 60
1, 394970, Note_on_c, 0, 51, 76
1, 394985, Note_off_c, 0, 79, 63
1, 395001, Note_off_c, 0, 51, 68
1, 395054, Note_on_c, 0, 67, 71
1, 395078, Note_off_c, 0, 67, 69
1, 395086, Control_c, 0, 64, 55
1, 395120, Note_on_c, 0, 69, 91
1, 395120, Note_on_c, 0, 81, 90
1, 395122, Note_on_c, 0, 75, 82
1, 395125, Note_on_c, 0, 72, 80
1, 395138, Note_off_c, 0, 69, 74
1, 395149, Note_off_c, 0, 72, 68
1, 395171, Note_off_c, 0, 75, 64
1, 395182, Note_on_c, 0, 54, 70
1, 395195, Note_off_c, 0, 81, 66
1, 395227, Note_off_c, 0, 54, 66
1, 395257, Control_c, 0, 64, 54
1, 395265, Note_on_c, 0, 71, 80
1, 395276, Note_on_c, 0, 69, 67
1, 395304, Note_off_c, 0, 69, 53
1, 395305, Note_off_c, 0, 71, 64
1, 395350, Note_on_c, 0, 84, 107
1, 395353, Note_on_c, 0, 72, 95
1, 395362, Note_on_c, 0, 78, 84
1, 395393, Note_off_c, 0, 78, 60
1, 395394, Note_off_c, 0, 72, 64
1, 395407, Note_on_c, 0, 57, 77
1, 395421, Note_off_c, 0, 84, 67
1, 395442, Note_off_c, 0, 57, 65
1, 395507, Note_on_c, 0, 74, 77
1, 395511, Note_on_c, 0, 72, 63
1, 395529, Note_off_c, 0, 74, 70
1, 395542, Note_off_c, 0, 72, 65
1, 395570, Control_c, 0, 64, 54
1, 395584, Control_c, 0, 64, 53
1, 395597, Note_on_c, 0, 86, 104
1, 395600, Note_on_c, 0, 74, 100
1, 395636, Note_off_c, 0, 74, 65
1, 395666, Note_off_c, 0, 86, 63
1, 395680, Note_on_c, 0, 56, 41
1, 395688, Note_on_c, 0, 58, 63
1, 395711, Note_off_c, 0, 56, 51
1, 395722, Note_off_c, 0, 58, 65
1, 395749, Note_on_c, 0, 74, 82
1, 395776, Note_off_c, 0, 74, 64
1, 395824, Note_on_c, 0, 72, 88
1, 395825, Note_on_c, 0, 78, 83
1, 395826, Note_on_c, 0, 84, 96
1, 395853, Note_off_c, 0, 72, 65
1, 395857, Note_off_c, 0, 78, 59
1, 395867, Note_on_c, 0, 80, 26
1, 395874, Note_off_c, 0, 80, 41
1, 395894, Note_off_c, 0, 84, 65
1, 395895, Note_on_c, 0, 57, 79
1, 395928, Note_off_c, 0, 57, 66
1, 395973, Note_on_c, 0, 72, 82
1, 396009, Note_off_c, 0, 72, 64
1, 396043, Note_on_c, 0, 79, 77
1, 396044, Note_on_c, 0, 82, 94
1, 396050, Note_on_c, 0, 70, 91
1, 396095, Note_off_c, 0, 79, 64
1, 396102, Note_off_c, 0, 70, 62
1, 396112, Note_on_c, 0, 55, 78
1, 396124, Note_off_c, 0, 82, 64
1, 396142, Note_off_c, 0, 55, 68
1, 396155, Control_c, 0, 64, 53
1, 396169, Control_c, 0, 64, 52
1, 396195, Note_on_c, 0, 70, 79
1, 396199, Control_c, 0, 64, 52
1, 396214, Control_c, 0, 64, 51
1, 396229, Control_c, 0, 64, 51
1, 396230, Note_off_c, 0, 70, 65
1, 396250, Note_on_c, 0, 74, 83
1, 396250, Note_on_c, 0, 81, 97
1, 396260, Note_on_c, 0, 69, 81
1, 396260, Note_on_c, 0, 71, 75
1, 396283, Note_off_c, 0, 71, 68
1, 396289, Note_off_c, 0, 69, 61
1, 396301, Note_off_c, 0, 74, 64
1, 396325, Note_off_c, 0, 81, 66
1, 396341, Note_on_c, 0, 53, 78
1, 396366, Note_off_c, 0, 53, 67
1, 396405, Note_on_c, 0, 69, 81
1, 396441, Note_off_c, 0, 69, 61
1, 396470, Note_on_c, 0, 79, 88
1, 396470, Note_on_c, 0, 72, 85
1, 396479, Note_on_c, 0, 67, 74
1, 396503, Note_off_c, 0, 67, 70
1, 396516, Note_off_c, 0, 72, 61
1, 396545, Note_off_c, 0, 79, 62
1, 396546, Note_on_c, 0, 52, 74
1, 396574, Note_off_c, 0, 52, 67
1, 396600, Control_c, 0, 64, 50
1, 396620, Note_on_c, 0, 67, 71
1, 396652, Note_off_c, 0, 67, 66
1, 396682, Note_on_c, 0, 71, 72
1, 396685, Note_on_c, 0, 77, 80
1, 396691, Note_on_c, 0, 65, 64
1, 396722, Note_off_c, 0, 71, 62
1, 396728, Note_off_c, 0, 65, 67
1, 396753, Note_off_c, 0, 77, 61
1, 396766, Note_on_c, 0, 50, 66
1, 396789, Note_off_c, 0, 50, 67
1, 396844, Note_on_c, 0, 65, 59
1, 396870, Note_off_c, 0, 65, 63
1, 396874, Control_c, 0, 64, 50
1, 396907, Note_on_c, 0, 76, 74
1, 396910, Note_on_c, 0, 72, 65
1, 396918, Note_on_c, 0, 64, 56
1, 396938, Note_off_c, 0, 72, 66
1, 396938, Note_off_c, 0, 64, 61
1, 396953, Note_off_c, 0, 76, 59
1, 396976, Note_on_c, 0, 48, 70
1, 397010, Note_off_c, 0, 48, 64
1, 397059, Note_on_c, 0, 64, 62
1, 397102, Note_off_c, 0, 64, 62
1, 397112, Control_c, 0, 64, 50
1, 397126, Note_on_c, 0, 61, 101
1, 397126, Note_on_c, 0, 73, 104
1, 397127, Control_c, 0, 64, 51
1, 397158, Note_on_c, 0, 74, 50
1, 397162, Note_on_c, 0, 63, 39
1, 397179, Note_off_c, 0, 74, 58
1, 397181, Note_off_c, 0, 61, 60
1, 397192, Note_off_c, 0, 73, 61
1, 397195, Note_off_c, 0, 63, 36
1, 397202, Note_on_c, 0, 52, 79
1, 397268, Note_on_c, 0, 61, 81
1, 397275, Control_c, 0, 64, 50
1, 397276, Note_off_c, 0, 52, 64
1, 397290, Control_c, 0, 64, 50
1, 397314, Note_off_c, 0, 61, 62
1, 397349, Note_on_c, 0, 60, 94
1, 397350, Note_on_c, 0, 72, 96
1, 397364, Control_c, 0, 64, 49
1, 397383, Note_off_c, 0, 60, 65
1, 397397, Note_off_c, 0, 72, 64
1, 397415, Note_on_c, 0, 52, 73
1, 397493, Note_on_c, 0, 60, 80
1, 397498, Note_off_c, 0, 52, 61
1, 397526, Note_off_c, 0, 60, 65
1, 397567, Note_on_c, 0, 58, 94
1, 397568, Note_on_c, 0, 70, 92
1, 397614, Note_off_c, 0, 58, 63
1, 397618, Note_off_c, 0, 70, 63
1, 397624, Control_c, 0, 64, 49
1, 397653, Control_c, 0, 64, 48
1, 397654, Note_on_c, 0, 52, 73
1, 397668, Control_c, 0, 64, 48
1, 397682, Control_c, 0, 64, 47
1, 397697, Control_c, 0, 64, 46
1, 397712, Control_c, 0, 64, 45
1, 397717, Note_on_c, 0, 58, 81
1, 397727, Control_c, 0, 64, 44
1, 397731, Note_off_c, 0, 52, 62
1, 397742, Control_c, 0, 64, 43
1, 397771, Control_c, 0, 64, 43
1, 397779, Note_off_c, 0, 58, 63
1, 397784, Note_on_c, 0, 69, 83
1, 397794, Note_on_c, 0, 57, 70
1, 397822, Note_off_c, 0, 69, 59
1, 397823, Note_off_c, 0, 57, 67
1, 397832, Note_on_c, 0, 53, 63
1, 397889, Control_c, 0, 64, 43
1, 397906, Note_on_c, 0, 57, 65
1, 397911, Note_off_c, 0, 53, 63
1, 397941, Note_off_c, 0, 57, 67
1, 398003, Note_on_c, 0, 68, 89
1, 398004, Note_on_c, 0, 59, 70
1, 398006, Note_on_c, 0, 56, 89
1, 398072, Note_off_c, 0, 59, 60
1, 398074, Note_on_c, 0, 43, 83
1, 398083, Note_off_c, 0, 56, 64
1, 398102, Note_off_c, 0, 68, 55
1, 398134, Note_off_c, 0, 43, 62
1, 398147, Note_on_c, 0, 56, 88
1, 398205, Note_off_c, 0, 56, 63
1, 398224, Control_c, 0, 64, 44
1, 398235, Note_on_c, 0, 55, 97
1, 398236, Note_on_c, 0, 67, 94
1, 398237, Note_on_c, 0, 59, 76
1, 398281, Note_off_c, 0, 59, 58
1, 398303, Note_on_c, 0, 43, 90
1, 398307, Note_off_c, 0, 55, 58
1, 398313, Control_c, 0, 64, 43
1, 398321, Note_off_c, 0, 67, 60
1, 398357, Control_c, 0, 64, 43
1, 398372, Note_on_c, 0, 55, 98
1, 398393, Note_off_c, 0, 43, 59
1, 398409, Note_on_c, 0, 45, 22
1, 398423, Note_off_c, 0, 55, 61
1, 398453, Note_off_c, 0, 45, 29
1, 398456, Note_on_c, 0, 53, 99
1, 398459, Note_on_c, 0, 65, 97
1, 398463, Note_on_c, 0, 59, 79
1, 398476, Control_c, 0, 64, 43
1, 398494, Note_off_c, 0, 59, 66
1, 398505, Control_c, 0, 64, 43
1, 398523, Note_off_c, 0, 53, 60
1, 398530, Note_on_c, 0, 43, 87
1, 398534, Note_off_c, 0, 65, 61
1, 398550, Control_c, 0, 64, 43
1, 398564, Control_c, 0, 64, 43
1, 398602, Note_on_c, 0, 53, 83
1, 398608, Control_c, 0, 64, 43
1, 398609, Note_off_c, 0, 43, 64
1, 398642, Note_off_c, 0, 53, 61
1, 398667, Control_c, 0, 64, 43
1, 398684, Note_on_c, 0, 52, 91
1, 398684, Note_on_c, 0, 64, 90
1, 398698, Control_c, 0, 64, 43
1, 398705, Note_on_c, 0, 60, 48
1, 398708, Note_off_c, 0, 52, 70
1, 398730, Note_off_c, 0, 60, 59
1, 398731, Note_on_c, 0, 59, 25
1, 398738, Note_on_c, 0, 48, 80
1, 398745, Note_off_c, 0, 64, 67
1, 398760, Note_off_c, 0, 59, 33
1, 398819, Note_on_c, 0, 52, 82
1, 398839, Note_off_c, 0, 48, 64
1, 398846, Control_c, 0, 64, 43
1, 398876, Note_off_c, 0, 52, 66
1, 398939, Note_on_c, 0, 63, 98
1, 398939, Note_on_c, 0, 75, 99
1, 398957, Control_c, 0, 64, 43
1, 398997, Note_off_c, 0, 63, 57
1, 399011, Note_on_c, 0, 54, 83
1, 399013, Note_off_c, 0, 75, 62
1, 399088, Note_on_c, 0, 63, 89
1, 399113, Note_off_c, 0, 54, 64
1, 399144, Note_off_c, 0, 63, 64
1, 399180, Note_on_c, 0, 74, 103
1, 399185, Note_on_c, 0, 62, 95
1, 399221, Note_off_c, 0, 62, 61
1, 399245, Note_off_c, 0, 74, 61
1, 399250, Note_on_c, 0, 54, 83
1, 399296, Note_on_c, 0, 62, 83
1, 399320, Note_off_c, 0, 54, 65
1, 399344, Note_off_c, 0, 62, 66
1, 399394, Note_on_c, 0, 72, 98
1, 399398, Note_on_c, 0, 60, 94
1, 399416, Control_c, 0, 64, 44
1, 399436, Note_off_c, 0, 60, 62
1, 399466, Note_on_c, 0, 54, 86
1, 399466, Note_off_c, 0, 72, 62
1, 399529, Note_on_c, 0, 60, 81
1, 399551, Note_off_c, 0, 54, 62
1, 399581, Note_off_c, 0, 60, 66
1, 399620, Note_on_c, 0, 71, 93
1, 399624, Note_on_c, 0, 59, 88
1, 399656, Note_off_c, 0, 59, 64
1, 399665, Note_on_c, 0, 55, 73
1, 399672, Note_off_c, 0, 71, 60
1, 399755, Note_on_c, 0, 59, 80
1, 399758, Note_off_c, 0, 55, 64
1, 399806, Note_off_c, 0, 59, 62
1, 399848, Note_on_c, 0, 70, 80
1, 399852, Note_on_c, 0, 58, 73
1, 399857, Note_on_c, 0, 61, 64
1, 399899, Control_c, 0, 64, 43
1, 399907, Note_on_c, 0, 45, 76
1, 399912, Note_off_c, 0, 61, 55
1, 399916, Note_off_c, 0, 58, 62
1, 399929, Control_c, 0, 64, 43
1, 399933, Note_off_c, 0, 70, 58
1, 399968, Note_off_c, 0, 45, 64
1, 399983, Note_on_c, 0, 58, 75
1, 400018, Note_off_c, 0, 58, 66
1, 400071, Note_on_c, 0, 69, 87
1, 400074, Note_on_c, 0, 57, 82
1, 400076, Note_on_c, 0, 61, 75
1, 400106, Note_off_c, 0, 61, 64
1, 400108, Note_off_c, 0, 57, 60
1, 400134, Note_on_c, 0, 45, 85
1, 400134, Note_off_c, 0, 69, 60
1, 400197, Note_off_c, 0, 45, 54
1, 400200, Note_on_c, 0, 57, 89
1, 400249, Note_off_c, 0, 57, 66
1, 400284, Note_on_c, 0, 55, 94
1, 400286, Note_on_c, 0, 61, 82
1, 400286, Note_on_c, 0, 67, 89
1, 400332, Note_off_c, 0, 55, 60
1, 400351, Note_off_c, 0, 61, 61
1, 400357, Note_on_c, 0, 45, 80
1, 400366, Note_off_c, 0, 67, 62
1, 400390, Control_c, 0, 64, 43
1, 400405, Control_c, 0, 64, 44
1, 400420, Control_c, 0, 64, 44
1, 400429, Note_on_c, 0, 55, 85
1, 400450, Note_off_c, 0, 45, 61
1, 400499, Note_off_c, 0, 55, 61
1, 400516, Control_c, 0, 64, 45
1, 400525, Note_on_c, 0, 54, 91
1, 400525, Note_on_c, 0, 66, 92
1, 400532, Note_on_c, 0, 62, 52
1, 400557, Note_off_c, 0, 54, 64
1, 400560, Control_c, 0, 64, 45
1, 400566, Note_off_c, 0, 62, 65
1, 400604, Note_on_c, 0, 45, 66
1, 400607, Note_off_c, 0, 66, 60
1, 400650, Control_c, 0, 64, 46
1, 400650, Note_on_c, 0, 54, 76
1, 400667, Note_off_c, 0, 45, 63
1, 400679, Control_c, 0, 64, 46
1, 400704, Note_off_c, 0, 54, 64
1, 400753, Control_c, 0, 64, 47
1, 400768, Control_c, 0, 64, 47
1, 400775, Note_on_c, 0, 69, 91
1, 400779, Note_on_c, 0, 57, 75
1, 400782, Control_c, 0, 64, 48
1, 400796, Note_on_c, 0, 45, 60
1, 400797, Control_c, 0, 64, 48
1, 400805, Note_off_c, 0, 57, 69
1, 400827, Control_c, 0, 64, 49
1, 400842, Control_c, 0, 64, 49
1, 400843, Note_off_c, 0, 69, 63
1, 400856, Control_c, 0, 64, 50
1, 400871, Control_c, 0, 64, 50
1, 400886, Control_c, 0, 64, 51
1, 400897, Note_off_c, 0, 45, 63
1, 400907, Note_on_c, 0, 57, 64
1, 400915, Control_c, 0, 64, 52
1, 400930, Control_c, 0, 64, 53
1, 400945, Control_c, 0, 64, 54
1, 400957, Note_off_c, 0, 57, 63
1, 400960, Control_c, 0, 64, 54
1, 400990, Control_c, 0, 64, 55
1, 401000, Note_on_c, 0, 69, 63
1, 401004, Control_c, 0, 64, 55
1, 401005, Note_on_c, 0, 74, 84
1, 401006, Note_on_c, 0, 65, 69
1, 401007, Note_on_c, 0, 62, 71
1, 401034, Note_off_c, 0, 62, 66
1, 401040, Note_off_c, 0, 65, 65
1, 401056, Note_off_c, 0, 69, 62
1, 401089, Note_off_c, 0, 74, 64
1, 401097, Note_on_c, 0, 57, 61
1, 401153, Control_c, 0, 64, 55
1, 401168, Note_on_c, 0, 62, 52
1, 401170, Note_off_c, 0, 57, 64
1, 401183, Control_c, 0, 64, 54
1, 401225, Note_off_c, 0, 62, 61
1, 401250, Control_c, 0, 64, 54
1, 401260, Note_on_c, 0, 74, 73
1, 401260, Note_on_c, 0, 81, 89
1, 401273, Note_on_c, 0, 69, 68
1, 401294, Note_off_c, 0, 74, 62
1, 401294, Control_c, 0, 64, 53
1, 401300, Note_off_c, 0, 69, 67
1, 401309, Control_c, 0, 64, 53
1, 401322, Note_on_c, 0, 57, 64
1, 401326, Note_off_c, 0, 81, 65
1, 401338, Control_c, 0, 64, 52
1, 401353, Control_c, 0, 64, 52
1, 401368, Control_c, 0, 64, 51
1, 401384, Note_off_c, 0, 57, 65
1, 401408, Note_on_c, 0, 69, 77
1, 401444, Note_off_c, 0, 69, 62
1, 401469, Note_on_c, 0, 74, 64
1, 401472, Note_on_c, 0, 80, 96
1, 401477, Note_on_c, 0, 68, 88
1, 401487, Control_c, 0, 64, 51
1, 401499, Note_off_c, 0, 74, 66
1, 401526, Note_off_c, 0, 80, 66
1, 401529, Note_off_c, 0, 68, 60
1, 401532, Note_on_c, 0, 56, 52
1, 401558, Note_off_c, 0, 56, 59
1, 401578, Note_on_c, 0, 57, 48
1, 401617, Note_on_c, 0, 68, 78
1, 401617, Note_off_c, 0, 57, 52
1, 401639, Note_off_c, 0, 68, 69
1, 401694, Note_on_c, 0, 74, 74
1, 401696, Note_on_c, 0, 62, 75
1, 401699, Note_on_c, 0, 68, 72
1, 401702, Note_on_c, 0, 76, 69
1, 401717, Note_off_c, 0, 76, 65
1, 401735, Note_off_c, 0, 62, 62
1, 401756, Note_off_c, 0, 68, 63
1, 401767, Note_off_c, 0, 74, 62
1, 401770, Note_on_c, 0, 45, 70
1, 401824, Note_off_c, 0, 45, 59
1, 401827, Control_c, 0, 64, 51
1, 401833, Note_on_c, 0, 57, 72
1, 401842, Control_c, 0, 64, 52
1, 401857, Control_c, 0, 64, 53
1, 401869, Note_off_c, 0, 57, 65
1, 401872, Control_c, 0, 64, 54
1, 401887, Control_c, 0, 64, 55
1, 401902, Control_c, 0, 64, 55
1, 401905, Note_on_c, 0, 67, 71
1, 401906, Note_on_c, 0, 61, 74
1, 401908, Note_on_c, 0, 73, 77
1, 401917, Control_c, 0, 64, 56
1, 401930, Note_off_c, 0, 61, 67
1, 401932, Control_c, 0, 64, 57
1, 401936, Note_off_c, 0, 67, 65
1, 401984, Control_c, 0, 64, 57
1, 401988, Note_off_c, 0, 73, 64
1, 401992, Note_on_c, 0, 45, 66
1, 402030, Note_off_c, 0, 45, 67
1, 402058, Control_c, 0, 64, 57
1, 402068, Note_on_c, 0, 57, 59
1, 402088, Control_c, 0, 64, 56
1, 402097, Note_off_c, 0, 57, 67
1, 402127, Note_on_c, 0, 79, 76
1, 402128, Note_on_c, 0, 73, 67
1, 402132, Control_c, 0, 64, 56
1, 402137, Note_on_c, 0, 67, 59
1, 402164, Note_off_c, 0, 67, 63
1, 402173, Note_off_c, 0, 73, 61
1, 402176, Control_c, 0, 64, 55
1, 402189, Note_off_c, 0, 79, 62
1, 402218, Note_on_c, 0, 57, 55
1, 402250, Control_c, 0, 64, 55
1, 402277, Note_on_c, 0, 67, 55
1, 402288, Note_off_c, 0, 57, 63
1, 402310, Control_c, 0, 64, 54
1, 402316, Note_off_c, 0, 67, 63
1, 402345, Note_on_c, 0, 78, 86
1, 402350, Note_on_c, 0, 72, 58
1, 402352, Note_on_c, 0, 66, 65
1, 402384, Note_off_c, 0, 72, 66
1, 402391, Note_off_c, 0, 66, 61
1, 402411, Note_off_c, 0, 78, 65
1, 402420, Note_on_c, 0, 57, 59
1, 402473, Control_c, 0, 64, 55
1, 402490, Note_off_c, 0, 57, 65
1, 402517, Control_c, 0, 64, 55
1, 402552, Note_on_c, 0, 66, 26
1, 402566, Note_on_c, 0, 72, 70
1, 402581, Note_on_c, 0, 60, 58
1, 402621, Note_off_c, 0, 60, 60
1, 402628, Note_off_c, 0, 66, 61
1, 402646, Note_off_c, 0, 72, 61
1, 402661, Note_on_c, 0, 45, 56
1, 402727, Note_off_c, 0, 45, 61
1, 402733, Note_on_c, 0, 57, 48
1, 402765, Note_off_c, 0, 57, 63
1, 402811, Note_on_c, 0, 65, 54
1, 402812, Note_on_c, 0, 71, 60
1, 402819, Note_on_c, 0, 59, 50
1, 402846, Note_off_c, 0, 59, 61
1, 402853, Note_off_c, 0, 65, 65
1, 402884, Note_off_c, 0, 71, 62
1, 402885, Note_on_c, 0, 45, 46
1, 402927, Note_off_c, 0, 45, 63
1, 402940, Control_c, 0, 64, 55
1, 402960, Note_on_c, 0, 57, 56
1, 402984, Control_c, 0, 64, 54
1, 402986, Note_off_c, 0, 57, 66
1, 403029, Control_c, 0, 64, 54
1, 403040, Note_on_c, 0, 77, 63
1, 403048, Note_on_c, 0, 65, 53
1, 403064, Note_on_c, 0, 71, 29
1, 403093, Note_off_c, 0, 65, 60
1, 403096, Note_off_c, 0, 71, 52
1, 403110, Note_on_c, 0, 57, 47
1, 403115, Note_off_c, 0, 77, 60
1, 403162, Control_c, 0, 64, 53
1, 403191, Note_on_c, 0, 65, 59
1, 403195, Note_off_c, 0, 57, 63
1, 403221, Control_c, 0, 64, 53
1, 403252, Note_off_c, 0, 65, 40
1, 403267, Note_on_c, 0, 76, 78
1, 403276, Note_on_c, 0, 70, 56
1, 403295, Note_on_c, 0, 64, 44
1, 403309, Control_c, 0, 64, 52
1, 403311, Note_off_c, 0, 70, 63
1, 403322, Note_off_c, 0, 64, 60
1, 403335, Note_on_c, 0, 57, 45
1, 403352, Note_off_c, 0, 76, 60
1, 403400, Note_off_c, 0, 57, 60
1, 403411, Note_on_c, 0, 64, 62
1, 403463, Note_off_c, 0, 64, 60
1, 403491, Note_on_c, 0, 74, 85
1, 403498, Note_on_c, 0, 70, 70
1, 403505, Note_on_c, 0, 62, 67
1, 403531, Note_off_c, 0, 70, 62
1, 403533, Note_off_c, 0, 62, 66
1, 403541, Control_c, 0, 64, 53
1, 403567, Note_off_c, 0, 74, 63
1, 403577, Note_on_c, 0, 57, 68
1, 403599, Control_c, 0, 64, 53
1, 403622, Note_on_c, 0, 62, 58
1, 403629, Note_off_c, 0, 57, 61
1, 403691, Note_off_c, 0, 62, 60
1, 403714, Note_on_c, 0, 76, 89
1, 403727, Note_on_c, 0, 69, 66
1, 403728, Note_on_c, 0, 64, 67
1, 403731, Note_on_c, 0, 67, 61
1, 403760, Note_off_c, 0, 64, 62
1, 403762, Note_off_c, 0, 69, 58
1, 403762, Control_c, 0, 64, 53
1, 403765, Note_off_c, 0, 67, 64
1, 403792, Control_c, 0, 64, 52
1, 403795, Note_off_c, 0, 76, 63
1, 403805, Note_on_c, 0, 57, 60
1, 403821, Control_c, 0, 64, 52
1, 403836, Control_c, 0, 64, 51
1, 403851, Control_c, 0, 64, 51
1, 403854, Note_on_c, 0, 64, 77
1, 403866, Control_c, 0, 64, 50
1, 403868, Note_off_c, 0, 57, 64
1, 403878, Note_off_c, 0, 64, 71
1, 403881, Control_c, 0, 64, 48
1, 403896, Control_c, 0, 64, 45
1, 403911, Control_c, 0, 64, 39
1, 403925, Control_c, 0, 64, 25
1, 403940, Control_c, 0, 64, 0
1, 403950, Note_on_c, 0, 69, 85
1, 403956, Note_on_c, 0, 67, 75
1, 403959, Note_on_c, 0, 64, 75
1, 403987, Note_off_c, 0, 64, 66
1, 404013, Note_off_c, 0, 67, 62
1, 404021, Note_on_c, 0, 45, 69
1, 404026, Note_off_c, 0, 69, 62
1, 404104, Note_on_c, 0, 57, 68
1, 404116, Note_off_c, 0, 45, 63
1, 404187, Note_on_c, 0, 50, 70
1, 404188, Note_off_c, 0, 57, 63
1, 404206, Note_on_c, 0, 74, 89
1, 404214, Control_c, 0, 64, 42
1, 404229, Control_c, 0, 64, 64
1, 404244, Control_c, 0, 64, 80
1, 404259, Control_c, 0, 64, 127
1, 404286, Note_off_c, 0, 50, 64
1, 404286, Note_on_c, 0, 69, 79
1, 404320, Note_off_c, 0, 74, 60
1, 404364, Note_off_c, 0, 69, 63
1, 404366, Note_on_c, 0, 65, 75
1, 404430, Note_off_c, 0, 65, 62
1, 404433, Note_on_c, 0, 69, 77
1, 404492, Note_on_c, 0, 65, 75
1, 404507, Note_off_c, 0, 69, 63
1, 404556, Note_off_c, 0, 65, 61
1, 404563, Note_on_c, 0, 62, 78
1, 404585, Control_c, 0, 64, 115
1, 404600, Control_c, 0, 64, 68
1, 404607, Note_off_c, 0, 62, 60
1, 404614, Control_c, 0, 64, 0
1, 404640, Note_on_c, 0, 53, 92
1, 404645, Note_on_c, 0, 41, 78
1, 404659, Control_c, 0, 64, 39
1, 404672, Note_off_c, 0, 41, 67
1, 404674, Control_c, 0, 64, 64
1, 404685, Note_off_c, 0, 53, 67
1, 404689, Control_c, 0, 64, 85
1, 404704, Control_c, 0, 64, 127
1, 404722, Note_on_c, 0, 65, 77
1, 404777, Note_off_c, 0, 65, 64
1, 404791, Note_on_c, 0, 77, 83
1, 404833, Note_off_c, 0, 77, 65
1, 404851, Note_on_c, 0, 65, 96
1, 404853, Note_on_c, 0, 62, 59
1, 404863, Note_on_c, 0, 53, 77
1, 404887, Note_off_c, 0, 62, 66
1, 404889, Note_off_c, 0, 53, 64
1, 404896, Control_c, 0, 64, 101
1, 404911, Control_c, 0, 64, 93
1, 404913, Note_off_c, 0, 65, 58
1, 404926, Control_c, 0, 64, 91
1, 404930, Note_on_c, 0, 77, 91
1, 404948, Control_c, 0, 64, 89
1, 404963, Control_c, 0, 64, 86
1, 404978, Control_c, 0, 64, 83
1, 404993, Control_c, 0, 64, 80
1, 404998, Note_on_c, 0, 89, 88
1, 405008, Control_c, 0, 64, 76
1, 405011, Note_off_c, 0, 77, 63
1, 405022, Control_c, 0, 64, 73
1, 405037, Control_c, 0, 64, 72
1, 405047, Note_off_c, 0, 89, 64
1, 405066, Note_on_c, 0, 64, 93
1, 405071, Note_on_c, 0, 61, 75
1, 405073, Note_on_c, 0, 53, 81
1, 405082, Control_c, 0, 64, 72
1, 405097, Control_c, 0, 64, 70
1, 405112, Control_c, 0, 64, 69
1, 405115, Note_off_c, 0, 64, 66
1, 405116, Note_off_c, 0, 61, 61
1, 405127, Control_c, 0, 64, 68
1, 405127, Note_off_c, 0, 53, 62
1, 405137, Note_on_c, 0, 88, 94
1, 405142, Control_c, 0, 64, 67
1, 405157, Control_c, 0, 64, 66
1, 405186, Control_c, 0, 64, 66
1, 405205, Note_off_c, 0, 88, 62
1, 405216, Note_on_c, 0, 76, 93
1, 405245, Control_c, 0, 64, 65
1, 405259, Note_off_c, 0, 76, 65
1, 405275, Control_c, 0, 64, 65
1, 405286, Note_on_c, 0, 53, 83
1, 405290, Control_c, 0, 64, 64
1, 405292, Note_on_c, 0, 41, 75
1, 405304, Control_c, 0, 64, 63
1, 405313, Note_off_c, 0, 53, 67
1, 405318, Control_c, 0, 64, 62
1, 405322, Note_off_c, 0, 41, 65
1, 405333, Control_c, 0, 64, 61
1, 405359, Note_on_c, 0, 76, 89
1, 405377, Control_c, 0, 64, 61
1, 405392, Control_c, 0, 64, 59
1, 405407, Control_c, 0, 64, 50
1, 405422, Control_c, 0, 64, 0
1, 405425, Note_on_c, 0, 64, 70
1, 405428, Note_off_c, 0, 76, 62
1, 405459, Note_off_c, 0, 64, 65
1, 405485, Note_on_c, 0, 53, 84
1, 405486, Note_on_c, 0, 41, 71
1, 405497, Control_c, 0, 64, 25
1, 405512, Note_off_c, 0, 41, 66
1, 405512, Note_off_c, 0, 53, 69
1, 405512, Control_c, 0, 64, 55
1, 405526, Control_c, 0, 64, 66
1, 405541, Control_c, 0, 64, 81
1, 405556, Control_c, 0, 64, 127
1, 405559, Note_on_c, 0, 63, 78
1, 405595, Note_off_c, 0, 63, 59
1, 405632, Note_on_c, 0, 75, 80
1, 405656, Note_off_c, 0, 75, 65
1, 405699, Note_on_c, 0, 63, 88
1, 405707, Note_on_c, 0, 60, 51
1, 405712, Note_on_c, 0, 53, 67
1, 405738, Note_off_c, 0, 60, 65
1, 405756, Note_on_c, 0, 75, 83
1, 405760, Note_off_c, 0, 53, 45
1, 405807, Note_off_c, 0, 63, 43
1, 405813, Note_off_c, 0, 75, 58
1, 405818, Note_on_c, 0, 87, 83
1, 405863, Note_off_c, 0, 87, 64
1, 405874, Control_c, 0, 64, 107
1, 405890, Control_c, 0, 64, 71
1, 405905, Control_c, 0, 64, 45
1, 405905, Note_on_c, 0, 62, 79
1, 405907, Note_on_c, 0, 58, 65
1, 405908, Note_on_c, 0, 86, 88
1, 405916, Note_on_c, 0, 53, 71
1, 405920, Control_c, 0, 64, 0
1, 405949, Control_c, 0, 64, 36
1, 405955, Note_off_c, 0, 62, 65
1, 405964, Control_c, 0, 64, 55
1, 405979, Control_c, 0, 64, 64
1, 405986, Note_on_c, 0, 82, 78
1, 405987, Note_off_c, 0, 53, 63
1, 405989, Note_off_c, 0, 58, 63
1, 405994, Control_c, 0, 64, 71
1, 406000, Note_off_c, 0, 86, 62
1, 406009, Control_c, 0, 64, 92
1, 406024, Control_c, 0, 64, 127
1, 406059, Note_off_c, 0, 82, 63
1, 406064, Note_on_c, 0, 77, 64
1, 406094, Note_off_c, 0, 77, 65
1, 406124, Note_on_c, 0, 74, 62
1, 406154, Note_off_c, 0, 74, 65
1, 406203, Note_on_c, 0, 70, 66
1, 406248, Note_off_c, 0, 70, 56
1, 406270, Note_on_c, 0, 65, 53
1, 406290, Control_c, 0, 64, 107
1, 406305, Control_c, 0, 64, 75
1, 406306, Note_off_c, 0, 65, 64
1, 406320, Control_c, 0, 64, 55
1, 406335, Control_c, 0, 64, 0
1, 406380, Note_on_c, 0, 41, 52
1, 406383, Note_on_c, 0, 53, 52
1, 406409, Note_off_c, 0, 41, 57
1, 406409, Control_c, 0, 64, 48
1, 406415, Note_off_c, 0, 53, 64
1, 406424, Control_c, 0, 64, 63
1, 406447, Control_c, 0, 64, 75
1, 406462, Control_c, 0, 64, 116
1, 406476, Note_on_c, 0, 65, 49
1, 406476, Control_c, 0, 64, 127
1, 406516, Note_off_c, 0, 65, 64
1, 406530, Note_on_c, 0, 77, 57
1, 406564, Note_off_c, 0, 77, 65
1, 406604, Note_on_c, 0, 65, 70
1, 406623, Note_on_c, 0, 62, 44
1, 406624, Control_c, 0, 64, 108
1, 406626, Note_on_c, 0, 53, 49
1, 406639, Control_c, 0, 64, 93
1, 406650, Note_off_c, 0, 62, 56
1, 406651, Note_off_c, 0, 53, 58
1, 406654, Control_c, 0, 64, 87
1, 406661, Note_off_c, 0, 65, 62
1, 406668, Control_c, 0, 64, 85
1, 406683, Control_c, 0, 64, 84
1, 406694, Note_on_c, 0, 77, 60
1, 406699, Control_c, 0, 64, 81
1, 406714, Control_c, 0, 64, 77
1, 406729, Control_c, 0, 64, 74
1, 406743, Note_off_c, 0, 77, 54
1, 406744, Control_c, 0, 64, 72
1, 406745, Note_on_c, 0, 89, 74
1, 406773, Control_c, 0, 64, 72
1, 406780, Note_off_c, 0, 89, 59
1, 406788, Control_c, 0, 64, 71
1, 406803, Control_c, 0, 64, 70
1, 406817, Control_c, 0, 64, 69
1, 406818, Note_on_c, 0, 64, 80
1, 406832, Control_c, 0, 64, 68
1, 406834, Note_on_c, 0, 53, 63
1, 406835, Note_on_c, 0, 61, 61
1, 406847, Control_c, 0, 64, 68
1, 406862, Control_c, 0, 64, 67
1, 406865, Note_off_c, 0, 61, 65
1, 406865, Note_off_c, 0, 64, 60
1, 406869, Note_off_c, 0, 53, 66
1, 406877, Control_c, 0, 64, 67
1, 406892, Control_c, 0, 64, 66
1, 406895, Note_on_c, 0, 88, 77
1, 406922, Control_c, 0, 64, 66
1, 406949, Note_off_c, 0, 88, 66
1, 406951, Control_c, 0, 64, 65
1, 406966, Control_c, 0, 64, 65
1, 406966, Note_on_c, 0, 76, 72
1, 406995, Note_off_c, 0, 76, 68
1, 406996, Control_c, 0, 64, 64
1, 407040, Note_on_c, 0, 53, 77
1, 407040, Control_c, 0, 64, 64
1, 407044, Note_on_c, 0, 41, 69
1, 407068, Note_off_c, 0, 53, 65
1, 407077, Note_off_c, 0, 41, 65
1, 407103, Note_on_c, 0, 76, 76
1, 407143, Control_c, 0, 64, 63
1, 407158, Control_c, 0, 64, 61
1, 407172, Note_on_c, 0, 64, 65
1, 407172, Note_off_c, 0, 76, 62
1, 407173, Control_c, 0, 64, 53
1, 407196, Control_c, 0, 64, 36
1, 407211, Control_c, 0, 64, 0
1, 407212, Note_off_c, 0, 64, 66
1, 407249, Note_on_c, 0, 53, 84
1, 407254, Note_on_c, 0, 41, 75
1, 407255, Control_c, 0, 64, 34
1, 407270, Control_c, 0, 64, 57
1, 407280, Note_off_c, 0, 53, 65
1, 407283, Note_off_c, 0, 41, 65
1, 407285, Control_c, 0, 64, 67
1, 407299, Control_c, 0, 64, 78
1, 407312, Note_on_c, 0, 63, 75
1, 407314, Control_c, 0, 64, 127
1, 407364, Note_off_c, 0, 63, 61
1, 407386, Note_on_c, 0, 75, 73
1, 407437, Note_off_c, 0, 75, 61
1, 407472, Note_on_c, 0, 63, 88
1, 407494, Note_on_c, 0, 60, 46
1, 407507, Note_on_c, 0, 53, 40
1, 407521, Note_off_c, 0, 60, 55
1, 407527, Note_off_c, 0, 53, 62
1, 407531, Note_on_c, 0, 75, 76
1, 407556, Note_off_c, 0, 63, 53
1, 407595, Note_on_c, 0, 87, 78
1, 407596, Note_off_c, 0, 75, 59
1, 407639, Note_off_c, 0, 87, 60
1, 407656, Control_c, 0, 64, 110
1, 407671, Control_c, 0, 64, 74
1, 407686, Control_c, 0, 64, 53
1, 407692, Note_on_c, 0, 62, 80
1, 407694, Note_on_c, 0, 58, 66
1, 407701, Note_on_c, 0, 53, 63
1, 407701, Control_c, 0, 64, 0
1, 407703, Note_on_c, 0, 86, 84
1, 407715, Control_c, 0, 64, 20
1, 407730, Control_c, 0, 64, 46
1, 407745, Control_c, 0, 64, 60
1, 407759, Note_off_c, 0, 62, 63
1, 407759, Control_c, 0, 64, 68
1, 407774, Control_c, 0, 64, 81
1, 407777, Note_on_c, 0, 82, 73
1, 407781, Note_off_c, 0, 86, 60
1, 407787, Note_off_c, 0, 53, 64
1, 407789, Control_c, 0, 64, 127
1, 407792, Note_off_c, 0, 58, 62
1, 407849, Note_off_c, 0, 82, 63
1, 407865, Note_on_c, 0, 77, 37
1, 407891, Note_off_c, 0, 77, 53
1, 407917, Note_on_c, 0, 74, 61
1, 407955, Note_off_c, 0, 74, 64
1, 408010, Note_on_c, 0, 70, 56
1, 408070, Note_on_c, 0, 65, 63
1, 408070, Note_off_c, 0, 70, 58
1, 408114, Note_off_c, 0, 65, 60
1, 408167, Control_c, 0, 64, 79
1, 408182, Control_c, 0, 64, 59
1, 408196, Note_on_c, 0, 50, 63
1, 408197, Control_c, 0, 64, 0
1, 408201, Note_on_c, 0, 38, 58
1, 408227, Control_c, 0, 64, 11
1, 408241, Control_c, 0, 64, 42
1, 408256, Control_c, 0, 64, 58
1, 408271, Control_c, 0, 64, 66
1, 408275, Note_off_c, 0, 38, 63
1, 408286, Control_c, 0, 64, 77
1, 408297, Note_off_c, 0, 50, 64
1, 408301, Note_on_c, 0, 62, 54
1, 408302, Control_c, 0, 64, 111
1, 408317, Control_c, 0, 64, 127
1, 408357, Note_off_c, 0, 62, 59
1, 408371, Note_on_c, 0, 74, 61
1, 408412, Note_off_c, 0, 74, 59
1, 408449, Note_on_c, 0, 62, 85
1, 408450, Note_on_c, 0, 50, 72
1, 408498, Note_off_c, 0, 50, 62
1, 408499, Note_off_c, 0, 62, 65
1, 408528, Note_on_c, 0, 74, 60
1, 408576, Note_on_c, 0, 86, 70
1, 408591, Note_off_c, 0, 74, 61
1, 408616, Note_off_c, 0, 86, 59
1, 408665, Note_on_c, 0, 61, 88
1, 408669, Note_on_c, 0, 49, 77
1, 408671, Control_c, 0, 64, 75
1, 408694, Control_c, 0, 64, 53
1, 408709, Control_c, 0, 64, 23
1, 408724, Control_c, 0, 64, 44
1, 408732, Note_on_c, 0, 51, 14
1, 408733, Note_off_c, 0, 51, 127
1, 408738, Control_c, 0, 64, 60
1, 408743, Note_on_c, 0, 85, 80
1, 408745, Note_off_c, 0, 61, 62
1, 408752, Note_off_c, 0, 49, 63
1, 408753, Control_c, 0, 64, 67
1, 408768, Control_c, 0, 64, 81
1, 408783, Control_c, 0, 64, 127
1, 408809, Note_on_c, 0, 73, 69
1, 408811, Note_off_c, 0, 85, 64
1, 408844, Note_off_c, 0, 73, 64
1, 408885, Note_on_c, 0, 49, 89
1, 408901, Note_on_c, 0, 37, 71
1, 408910, Note_on_c, 0, 38, 54
1, 408946, Note_off_c, 0, 37, 57
1, 408947, Note_off_c, 0, 49, 60
1, 408955, Note_on_c, 0, 39, 8
1, 408967, Note_off_c, 0, 38, 59
1, 408972, Note_on_c, 0, 73, 78
1, 409009, Note_off_c, 0, 39, 49
1, 409020, Note_on_c, 0, 61, 69
1, 409073, Note_off_c, 0, 73, 62
1, 409078, Control_c, 0, 64, 112
1, 409083, Note_off_c, 0, 61, 60
1, 409094, Control_c, 0, 64, 69
1, 409098, Note_on_c, 0, 48, 95
1, 409106, Note_on_c, 0, 38, 70
1, 409109, Control_c, 0, 64, 0
1, 409112, Note_on_c, 0, 36, 80
1, 409139, Control_c, 0, 64, 34
1, 409154, Control_c, 0, 64, 58
1, 409163, Note_off_c, 0, 36, 59
1, 409165, Note_on_c, 0, 60, 80
1, 409168, Control_c, 0, 64, 70
1, 409175, Note_off_c, 0, 38, 62
1, 409183, Control_c, 0, 64, 99
1, 409186, Note_off_c, 0, 48, 63
1, 409198, Control_c, 0, 64, 127
1, 409229, Note_off_c, 0, 60, 66
1, 409248, Note_on_c, 0, 72, 82
1, 409295, Note_off_c, 0, 72, 67
1, 409321, Note_on_c, 0, 60, 95
1, 409328, Note_on_c, 0, 48, 83
1, 409383, Note_off_c, 0, 48, 62
1, 409387, Note_on_c, 0, 72, 86
1, 409399, Note_off_c, 0, 60, 64
1, 409462, Note_on_c, 0, 84, 89
1, 409476, Note_off_c, 0, 72, 64
1, 409504, Note_off_c, 0, 84, 65
1, 409551, Note_on_c, 0, 59, 103
1, 409560, Note_on_c, 0, 47, 95
1, 409560, Control_c, 0, 64, 85
1, 409575, Control_c, 0, 64, 58
1, 409590, Control_c, 0, 64, 34
1, 409601, Note_off_c, 0, 59, 67
1, 409605, Control_c, 0, 64, 54
1, 409610, Note_on_c, 0, 83, 92
1, 409614, Note_off_c, 0, 47, 58
1, 409619, Control_c, 0, 64, 65
1, 409634, Control_c, 0, 64, 77
1, 409649, Control_c, 0, 64, 127
1, 409683, Note_on_c, 0, 71, 90
1, 409685, Note_off_c, 0, 83, 62
1, 409730, Note_off_c, 0, 71, 62
1, 409769, Note_on_c, 0, 47, 100
1, 409780, Note_on_c, 0, 35, 77
1, 409809, Note_off_c, 0, 35, 63
1, 409810, Note_on_c, 0, 38, 32
1, 409811, Note_on_c, 0, 36, 38
1, 409821, Note_off_c, 0, 47, 61
1, 409837, Note_on_c, 0, 71, 90
1, 409852, Note_off_c, 0, 38, 48
1, 409853, Note_off_c, 0, 36, 48
1, 409905, Note_on_c, 0, 59, 79
1, 409917, Note_off_c, 0, 71, 64
1, 409950, Note_off_c, 0, 59, 63
1, 409977, Control_c, 0, 64, 74
1, 409989, Note_on_c, 0, 46, 107
1, 409991, Control_c, 0, 64, 0
1, 409998, Note_on_c, 0, 34, 83
1, 410004, Note_on_c, 0, 38, 62
1, 410033, Note_off_c, 0, 34, 66
1, 410042, Note_off_c, 0, 38, 63
1, 410050, Control_c, 0, 64, 50
1, 410056, Note_off_c, 0, 46, 64
1, 410057, Note_on_c, 0, 58, 91
1, 410065, Control_c, 0, 64, 67
1, 410080, Control_c, 0, 64, 92
1, 410095, Control_c, 0, 64, 127
1, 410118, Note_off_c, 0, 58, 65
1, 410145, Note_on_c, 0, 70, 88
1, 410209, Note_off_c, 0, 70, 62
1, 410240, Note_on_c, 0, 58, 106
1, 410243, Note_on_c, 0, 46, 78
1, 410251, Note_on_c, 0, 50, 73
1, 410296, Note_off_c, 0, 58, 60
1, 410301, Note_off_c, 0, 50, 60
1, 410311, Note_off_c, 0, 46, 63
1, 410321, Note_on_c, 0, 70, 94
1, 410388, Note_off_c, 0, 70, 0
1, 410389, Note_on_c, 0, 82, 96
1, 410407, Poly_aftertouch_c, 0, 70, 0
1, 410442, Note_off_c, 0, 82, 64
1, 410516, Control_c, 0, 64, 86
1, 410521, Note_on_c, 0, 57, 99
1, 410525, Note_on_c, 0, 45, 87
1, 410531, Note_on_c, 0, 50, 77
1, 410531, Control_c, 0, 64, 60
1, 410546, Control_c, 0, 64, 0
1, 410606, Control_c, 0, 64, 33
1, 410621, Control_c, 0, 64, 57
1, 410630, Note_on_c, 0, 81, 93
1, 410635, Control_c, 0, 64, 66
1, 410650, Control_c, 0, 64, 79
1, 410659, Note_off_c, 0, 45, 63
1, 410665, Control_c, 0, 64, 127
1, 410704, Note_off_c, 0, 57, 66
1, 410709, Note_on_c, 0, 69, 85
1, 410726, Note_off_c, 0, 81, 62
1, 410757, Note_off_c, 0, 69, 64
1, 410770, Note_on_c, 0, 54, 107
1, 410779, Note_on_c, 0, 42, 90
1, 410838, Note_on_c, 0, 78, 97
1, 410851, Note_off_c, 0, 42, 64
1, 410870, Note_off_c, 0, 54, 57
1, 410893, Note_on_c, 0, 66, 85
1, 410904, Note_off_c, 0, 50, 50
1, 410940, Control_c, 0, 64, 106
1, 410955, Control_c, 0, 64, 99
1, 410958, Note_off_c, 0, 78, 60
1, 410958, Note_off_c, 0, 66, 62
1, 410970, Control_c, 0, 64, 96
1, 410984, Control_c, 0, 64, 95
1, 410986, Note_on_c, 0, 55, 101
1, 410993, Note_on_c, 0, 43, 86
1, 410999, Control_c, 0, 64, 91
1, 411014, Control_c, 0, 64, 85
1, 411020, Note_off_c, 0, 43, 68
1, 411027, Note_off_c, 0, 55, 63
1, 411029, Control_c, 0, 64, 78
1, 411044, Control_c, 0, 64, 72
1, 411049, Note_on_c, 0, 79, 87
1, 411059, Control_c, 0, 64, 68
1, 411068, Poly_aftertouch_c, 0, 50, 0
1, 411073, Control_c, 0, 64, 66
1, 411088, Control_c, 0, 64, 65
1, 411101, Note_off_c, 0, 79, 61
1, 411103, Control_c, 0, 64, 65
1, 411113, Note_on_c, 0, 65, 69
1, 411118, Control_c, 0, 64, 63
1, 411133, Control_c, 0, 64, 61
1, 411147, Control_c, 0, 64, 59
1, 411157, Note_off_c, 0, 65, 60
1, 411162, Control_c, 0, 64, 56
1, 411177, Control_c, 0, 64, 49
1, 411191, Control_c, 0, 64, 34
1, 411202, Note_on_c, 0, 50, 85
1, 411206, Control_c, 0, 64, 0
1, 411214, Note_on_c, 0, 38, 64
1, 411228, Note_off_c, 0, 50, 68
1, 411249, Note_off_c, 0, 38, 64
1, 411270, Note_on_c, 0, 74, 72
1, 411331, Note_off_c, 0, 74, 59
1, 411336, Note_on_c, 0, 62, 57
1, 411380, Note_off_c, 0, 62, 60
1, 411411, Note_on_c, 0, 48, 74
1, 411430, Note_on_c, 0, 36, 54
1, 411432, Note_on_c, 0, 38, 32
1, 411444, Note_off_c, 0, 48, 65
1, 411453, Note_on_c, 0, 47, 29
1, 411454, Note_off_c, 0, 47, 127
1, 411461, Note_off_c, 0, 36, 61
1, 411473, Note_off_c, 0, 38, 44
1, 411501, Note_on_c, 0, 72, 65
1, 411517, Note_on_c, 0, 71, 59
1, 411566, Note_off_c, 0, 72, 62
1, 411568, Note_on_c, 0, 59, 65
1, 411573, Note_on_c, 0, 60, 61
1, 411602, Note_off_c, 0, 71, 29
1, 411604, Note_off_c, 0, 60, 64
1, 411605, Note_off_c, 0, 59, 64
1, 411610, Note_on_c, 0, 45, 93
1, 411619, Note_on_c, 0, 33, 76
1, 411628, Note_on_c, 0, 38, 57
1, 411650, Note_off_c, 0, 33, 67
1, 411659, Note_off_c, 0, 38, 63
1, 411664, Note_off_c, 0, 45, 64
1, 411690, Note_on_c, 0, 69, 99
1, 411749, Note_on_c, 0, 57, 75
1, 411790, Note_off_c, 0, 69, 64
1, 411816, Note_off_c, 0, 57, 64
1, 411831, Note_on_c, 0, 46, 99
1, 411834, Note_on_c, 0, 38, 62
1, 411850, Note_on_c, 0, 34, 71
1, 411873, Note_off_c, 0, 46, 63
1, 411879, Note_off_c, 0, 38, 61
1, 411886, Note_off_c, 0, 34, 57
1, 411906, Note_on_c, 0, 70, 85
1, 411967, Note_on_c, 0, 58, 83
1, 411992, Note_off_c, 0, 70, 63
1, 412031, Note_off_c, 0, 58, 60
1, 412055, Note_on_c, 0, 42, 104
1, 412070, Note_on_c, 0, 30, 80
1, 412092, Note_on_c, 0, 38, 31
1, 412093, Note_off_c, 0, 38, 127
1, 412095, Note_off_c, 0, 30, 65
1, 412101, Note_on_c, 0, 66, 75
1, 412128, Note_off_c, 0, 42, 61
1, 412162, Note_on_c, 0, 54, 72
1, 412214, Note_off_c, 0, 66, 56
1, 412242, Note_off_c, 0, 54, 60
1, 412286, Note_on_c, 0, 43, 97
1, 412294, Note_on_c, 0, 31, 83
1, 412312, Control_c, 0, 64, 49
1, 412325, Note_off_c, 0, 31, 68
1, 412327, Control_c, 0, 64, 80
1, 412342, Control_c, 0, 64, 127
1, 412362, Note_on_c, 0, 55, 71
1, 412386, Note_off_c, 0, 43, 64
1, 412427, Note_on_c, 0, 58, 70
1, 412456, Note_off_c, 0, 55, 54
1, 412507, Note_off_c, 0, 58, 62
1, 412520, Note_on_c, 0, 67, 65
1, 412551, Note_on_c, 0, 62, 28
1, 412582, Note_on_c, 0, 58, 66
1, 412592, Note_off_c, 0, 67, 62
1, 412630, Note_off_c, 0, 58, 59
1, 412671, Note_off_c, 0, 62, 25
1, 412722, Note_on_c, 0, 50, 59
1, 412723, Note_on_c, 0, 55, 63
1, 412780, Note_off_c, 0, 50, 53
1, 412788, Note_off_c, 0, 55, 61
1, 412791, Note_on_c, 0, 58, 67
1, 412850, Note_on_c, 0, 62, 59
1, 412851, Note_off_c, 0, 58, 62
1, 412901, Note_off_c, 0, 62, 60
1, 412914, Note_on_c, 0, 67, 60
1, 412922, Note_on_c, 0, 70, 65
1, 412958, Note_off_c, 0, 70, 59
1, 412958, Note_off_c, 0, 67, 58
1, 412976, Note_on_c, 0, 62, 73
1, 413026, Note_on_c, 0, 70, 75
1, 413030, Note_off_c, 0, 62, 64
1, 413055, Note_on_c, 0, 67, 43
1, 413077, Note_off_c, 0, 67, 59
1, 413089, Note_off_c, 0, 70, 63
1, 413106, Note_on_c, 0, 58, 90
1, 413107, Note_on_c, 0, 55, 84
1, 413152, Note_off_c, 0, 55, 63
1, 413157, Note_off_c, 0, 58, 65
1, 413172, Note_on_c, 0, 62, 75
1, 413224, Note_on_c, 0, 67, 68
1, 413253, Note_off_c, 0, 62, 60
1, 413298, Note_on_c, 0, 70, 82
1, 413310, Note_on_c, 0, 74, 82
1, 413316, Note_off_c, 0, 67, 63
1, 413372, Note_on_c, 0, 67, 80
1, 413373, Note_off_c, 0, 74, 60
1, 413380, Note_off_c, 0, 70, 57
1, 413414, Note_on_c, 0, 70, 63
1, 413427, Note_on_c, 0, 74, 82
1, 413443, Note_off_c, 0, 67, 64
1, 413464, Note_off_c, 0, 70, 64
1, 413478, Note_off_c, 0, 74, 64
1, 413506, Note_on_c, 0, 62, 94
1, 413507, Note_on_c, 0, 58, 88
1, 413557, Note_off_c, 0, 62, 66
1, 413570, Note_on_c, 0, 67, 84
1, 413573, Note_off_c, 0, 58, 66
1, 413624, Note_on_c, 0, 70, 88
1, 413674, Note_off_c, 0, 67, 59
1, 413676, Note_on_c, 0, 74, 71
1, 413698, Note_on_c, 0, 79, 89
1, 413703, Note_off_c, 0, 70, 65
1, 413730, Note_off_c, 0, 74, 63
1, 413771, Note_off_c, 0, 79, 62
1, 413777, Note_on_c, 0, 70, 92
1, 413791, Note_on_c, 0, 74, 47
1, 413827, Note_on_c, 0, 79, 86
1, 413831, Note_off_c, 0, 74, 51
1, 413837, Note_off_c, 0, 70, 66
1, 413877, Note_off_c, 0, 79, 66
1, 413936, Control_c, 0, 64, 125
1, 413950, Control_c, 0, 64, 68
1, 413953, Note_on_c, 0, 57, 91
1, 413957, Note_on_c, 0, 50, 76
1, 413963, Note_on_c, 0, 45, 68
1, 413965, Control_c, 0, 64, 0
1, 414025, Control_c, 0, 64, 31
1, 414039, Control_c, 0, 64, 60
1, 414054, Control_c, 0, 64, 73
1, 414057, Note_on_c, 0, 81, 93
1, 414069, Control_c, 0, 64, 122
1, 414083, Control_c, 0, 64, 127
1, 414111, Note_off_c, 0, 57, 62
1, 414133, Note_on_c, 0, 69, 86
1, 414142, Note_off_c, 0, 81, 66
1, 414179, Note_off_c, 0, 69, 64
1, 414180, Note_off_c, 0, 45, 54
1, 414202, Note_on_c, 0, 54, 98
1, 414211, Note_on_c, 0, 42, 80
1, 414257, Poly_aftertouch_c, 0, 45, 127
1, 414258, Note_on_c, 0, 78, 99
1, 414278, Note_off_c, 0, 42, 62
1, 414280, Note_off_c, 0, 54, 57
1, 414289, Poly_aftertouch_c, 0, 45, 0
1, 414290, Control_c, 0, 64, 122
1, 414305, Control_c, 0, 64, 106
1, 414311, Note_on_c, 0, 66, 86
1, 414319, Note_off_c, 0, 50, 34
1, 414320, Control_c, 0, 64, 102
1, 414335, Control_c, 0, 64, 101
1, 414349, Control_c, 0, 64, 98
1, 414358, Note_off_c, 0, 78, 62
1, 414364, Note_off_c, 0, 66, 61
1, 414364, Control_c, 0, 64, 93
1, 414379, Control_c, 0, 64, 87
1, 414394, Control_c, 0, 64, 81
1, 414395, Note_on_c, 0, 55, 99
1, 414399, Note_on_c, 0, 43, 81
1, 414408, Control_c, 0, 64, 75
1, 414423, Control_c, 0, 64, 71
1, 414430, Note_off_c, 0, 43, 68
1, 414435, Note_off_c, 0, 55, 64
1, 414438, Control_c, 0, 64, 69
1, 414453, Control_c, 0, 64, 66
1, 414458, Note_on_c, 0, 79, 86
1, 414468, Control_c, 0, 64, 63
1, 414482, Control_c, 0, 64, 60
1, 414495, Note_on_c, 0, 77, 45
1, 414497, Control_c, 0, 64, 58
1, 414521, Note_off_c, 0, 79, 63
1, 414535, Note_on_c, 0, 65, 72
1, 414535, Note_off_c, 0, 77, 51
1, 414542, Control_c, 0, 64, 58
1, 414556, Control_c, 0, 64, 56
1, 414571, Control_c, 0, 64, 54
1, 414573, Note_off_c, 0, 65, 60
1, 414586, Control_c, 0, 64, 51
1, 414600, Control_c, 0, 64, 47
1, 414604, Note_on_c, 0, 50, 92
1, 414615, Note_on_c, 0, 38, 72
1, 414615, Control_c, 0, 64, 40
1, 414630, Control_c, 0, 64, 13
1, 414631, Note_off_c, 0, 50, 68
1, 414645, Note_off_c, 0, 38, 64
1, 414645, Control_c, 0, 64, 0
1, 414684, Note_on_c, 0, 74, 79
1, 414752, Note_on_c, 0, 62, 71
1, 414763, Note_off_c, 0, 74, 58
1, 414800, Note_off_c, 0, 62, 61
1, 414825, Note_on_c, 0, 47, 85
1, 414839, Note_on_c, 0, 38, 51
1, 414842, Note_on_c, 0, 35, 52
1, 414857, Note_off_c, 0, 47, 64
1, 414869, Note_off_c, 0, 38, 59
1, 414873, Note_off_c, 0, 35, 57
1, 414905, Note_on_c, 0, 71, 87
1, 414973, Note_on_c, 0, 59, 83
1, 414991, Note_off_c, 0, 71, 51
1, 415024, Note_on_c, 0, 45, 93
1, 415025, Note_off_c, 0, 59, 64
1, 415031, Note_on_c, 0, 33, 79
1, 415035, Note_on_c, 0, 38, 59
1, 415061, Note_off_c, 0, 33, 63
1, 415071, Note_off_c, 0, 45, 65
1, 415071, Note_off_c, 0, 38, 64
1, 415107, Note_on_c, 0, 69, 92
1, 415157, Note_on_c, 0, 57, 69
1, 415178, Note_off_c, 0, 69, 60
1, 415223, Note_off_c, 0, 57, 65
1, 415235, Note_on_c, 0, 46, 101
1, 415245, Note_on_c, 0, 34, 76
1, 415247, Note_on_c, 0, 38, 43
1, 415283, Note_off_c, 0, 38, 61
1, 415285, Note_off_c, 0, 34, 63
1, 415288, Note_off_c, 0, 46, 61
1, 415304, Note_on_c, 0, 70, 90
1, 415362, Note_on_c, 0, 58, 81
1, 415402, Note_on_c, 0, 68, 2
1, 415407, Note_off_c, 0, 70, 62
1, 415435, Note_off_c, 0, 58, 62
1, 415451, Note_off_c, 0, 68, 26
1, 415464, Note_on_c, 0, 43, 94
1, 415474, Note_on_c, 0, 31, 81
1, 415510, Note_on_c, 0, 67, 82
1, 415512, Note_off_c, 0, 31, 63
1, 415519, Note_off_c, 0, 43, 62
1, 415574, Note_on_c, 0, 55, 66
1, 415622, Note_off_c, 0, 67, 55
1, 415634, Note_off_c, 0, 55, 62
1, 415696, Note_on_c, 0, 41, 102
1, 415701, Note_on_c, 0, 29, 84
1, 415715, Control_c, 0, 64, 65
1, 415729, Control_c, 0, 64, 86
1, 415744, Control_c, 0, 64, 127
1, 415757, Note_off_c, 0, 29, 63
1, 415779, Note_on_c, 0, 62, 70
1, 415802, Note_off_c, 0, 41, 65
1, 415835, Note_on_c, 0, 65, 68
1, 415849, Note_off_c, 0, 62, 59
1, 415911, Note_off_c, 0, 65, 62
1, 415914, Note_on_c, 0, 69, 65
1, 415926, Note_on_c, 0, 74, 73
1, 415954, Note_off_c, 0, 69, 56
1, 415965, Note_off_c, 0, 74, 55
1, 415985, Note_on_c, 0, 65, 73
1, 416049, Note_off_c, 0, 65, 60
1, 416052, Note_on_c, 0, 69, 10
1, 416071, Note_on_c, 0, 74, 55
1, 416092, Note_off_c, 0, 74, 63
1, 416094, Note_off_c, 0, 69, 39
1, 416128, Note_on_c, 0, 62, 76
1, 416131, Note_on_c, 0, 57, 71
1, 416209, Note_off_c, 0, 57, 58
1, 416210, Note_on_c, 0, 65, 68
1, 416214, Note_off_c, 0, 62, 61
1, 416252, Note_on_c, 0, 69, 78
1, 416280, Note_off_c, 0, 65, 62
1, 416332, Note_off_c, 0, 69, 61
1, 416334, Note_on_c, 0, 74, 75
1, 416335, Note_on_c, 0, 77, 84
1, 416396, Note_on_c, 0, 69, 80
1, 416400, Note_off_c, 0, 77, 62
1, 416401, Note_off_c, 0, 74, 60
1, 416450, Note_on_c, 0, 77, 74
1, 416458, Note_on_c, 0, 74, 62
1, 416460, Note_off_c, 0, 69, 63
1, 416487, Note_off_c, 0, 74, 66
1, 416502, Note_off_c, 0, 77, 64
1, 416508, Note_on_c, 0, 65, 90
1, 416511, Note_on_c, 0, 62, 86
1, 416556, Note_off_c, 0, 62, 65
1, 416556, Note_off_c, 0, 65, 64
1, 416584, Note_on_c, 0, 69, 84
1, 416619, Note_on_c, 0, 74, 80
1, 416623, Note_off_c, 0, 69, 67
1, 416701, Note_on_c, 0, 81, 88
1, 416702, Note_on_c, 0, 77, 73
1, 416703, Note_off_c, 0, 74, 63
1, 416763, Note_on_c, 0, 74, 87
1, 416765, Note_off_c, 0, 81, 65
1, 416788, Note_off_c, 0, 77, 58
1, 416825, Note_on_c, 0, 77, 62
1, 416833, Note_on_c, 0, 81, 90
1, 416839, Note_off_c, 0, 74, 65
1, 416857, Note_off_c, 0, 77, 65
1, 416872, Note_off_c, 0, 81, 67
1, 416898, Note_on_c, 0, 69, 95
1, 416902, Note_on_c, 0, 65, 87
1, 416960, Note_off_c, 0, 69, 67
1, 416973, Note_off_c, 0, 65, 66
1, 416976, Note_on_c, 0, 74, 86
1, 417027, Note_on_c, 0, 77, 84
1, 417049, Note_off_c, 0, 74, 60
1, 417092, Note_on_c, 0, 81, 80
1, 417101, Note_on_c, 0, 86, 91
1, 417107, Note_off_c, 0, 77, 64
1, 417157, Note_off_c, 0, 86, 64
1, 417182, Note_on_c, 0, 77, 76
1, 417184, Note_off_c, 0, 81, 62
1, 417234, Note_on_c, 0, 86, 102
1, 417256, Note_off_c, 0, 77, 64
1, 417277, Note_off_c, 0, 86, 69
1, 417376, Control_c, 0, 64, 99
1, 417376, Note_on_c, 0, 55, 88
1, 417378, Note_on_c, 0, 50, 76
1, 417383, Note_on_c, 0, 43, 77
1, 417390, Control_c, 0, 64, 63
1, 417405, Control_c, 0, 64, 0
1, 417450, Control_c, 0, 64, 23
1, 417465, Control_c, 0, 64, 51
1, 417475, Note_on_c, 0, 79, 93
1, 417480, Control_c, 0, 64, 65
1, 417495, Control_c, 0, 64, 78
1, 417509, Control_c, 0, 64, 127
1, 417521, Note_off_c, 0, 55, 61
1, 417539, Note_off_c, 0, 50, 63
1, 417546, Note_off_c, 0, 43, 62
1, 417551, Note_on_c, 0, 67, 81
1, 417569, Note_off_c, 0, 79, 62
1, 417614, Note_off_c, 0, 67, 63
1, 417632, Note_on_c, 0, 52, 91
1, 417642, Note_on_c, 0, 40, 80
1, 417676, Note_off_c, 0, 52, 66
1, 417682, Note_off_c, 0, 40, 64
1, 417695, Note_on_c, 0, 76, 94
1, 417739, Control_c, 0, 64, 115
1, 417754, Control_c, 0, 64, 103
1, 417769, Control_c, 0, 64, 98
1, 417774, Note_on_c, 0, 64, 84
1, 417783, Control_c, 0, 64, 96
1, 417798, Control_c, 0, 64, 94
1, 417813, Control_c, 0, 64, 91
1, 417824, Note_off_c, 0, 76, 62
1, 417826, Note_off_c, 0, 64, 64
1, 417827, Control_c, 0, 64, 87
1, 417834, Poly_aftertouch_c, 0, 74, 0
1, 417842, Control_c, 0, 64, 82
1, 417847, Note_on_c, 0, 53, 104
1, 417855, Note_on_c, 0, 41, 83
1, 417857, Control_c, 0, 64, 78
1, 417873, Control_c, 0, 64, 74
1, 417883, Note_off_c, 0, 41, 67
1, 417888, Note_off_c, 0, 53, 66
1, 417888, Control_c, 0, 64, 71
1, 417903, Control_c, 0, 64, 68
1, 417918, Control_c, 0, 64, 67
1, 417924, Note_on_c, 0, 77, 99
1, 417932, Control_c, 0, 64, 66
1, 417947, Control_c, 0, 64, 65
1, 417962, Control_c, 0, 64, 64
1, 417977, Control_c, 0, 64, 64
1, 417996, Note_off_c, 0, 77, 58
1, 418006, Control_c, 0, 64, 63
1, 418015, Note_on_c, 0, 64, 64
1, 418019, Note_on_c, 0, 65, 53
1, 418021, Control_c, 0, 64, 63
1, 418036, Control_c, 0, 64, 61
1, 418043, Note_off_c, 0, 64, 63
1, 418048, Note_off_c, 0, 65, 64
1, 418050, Control_c, 0, 64, 60
1, 418051, Note_on_c, 0, 50, 95
1, 418062, Note_on_c, 0, 38, 78
1, 418065, Control_c, 0, 64, 59
1, 418080, Control_c, 0, 64, 58
1, 418085, Note_off_c, 0, 38, 63
1, 418087, Note_off_c, 0, 50, 65
1, 418095, Control_c, 0, 64, 57
1, 418110, Control_c, 0, 64, 56
1, 418124, Control_c, 0, 64, 54
1, 418138, Note_on_c, 0, 74, 88
1, 418139, Control_c, 0, 64, 51
1, 418154, Control_c, 0, 64, 49
1, 418169, Control_c, 0, 64, 47
1, 418184, Control_c, 0, 64, 47
1, 418198, Control_c, 0, 64, 46
1, 418208, Note_off_c, 0, 74, 59
1, 418213, Control_c, 0, 64, 43
1, 418228, Control_c, 0, 64, 36
1, 418230, Note_on_c, 0, 62, 59
1, 418243, Control_c, 0, 64, 31
1, 418258, Control_c, 0, 64, 27
1, 418264, Note_on_c, 0, 46, 90
1, 418267, Note_off_c, 0, 62, 64
1, 418273, Control_c, 0, 64, 22
1, 418276, Note_on_c, 0, 34, 70
1, 418278, Note_on_c, 0, 38, 55
1, 418288, Control_c, 0, 64, 0
1, 418321, Note_off_c, 0, 38, 62
1, 418322, Note_off_c, 0, 46, 62
1, 418335, Note_off_c, 0, 34, 58
1, 418354, Note_on_c, 0, 70, 87
1, 418431, Note_off_c, 0, 70, 61
1, 418464, Note_on_c, 0, 58, 53
1, 418470, Note_on_c, 0, 56, 55
1, 418473, Note_on_c, 0, 44, 84
1, 418480, Note_on_c, 0, 32, 73
1, 418490, Note_off_c, 0, 58, 57
1, 418493, Note_on_c, 0, 38, 29
1, 418496, Note_off_c, 0, 56, 62
1, 418505, Note_on_c, 0, 42, 47
1, 418527, Note_off_c, 0, 32, 60
1, 418530, Note_off_c, 0, 44, 57
1, 418532, Note_off_c, 0, 38, 50
1, 418547, Note_off_c, 0, 42, 35
1, 418572, Note_on_c, 0, 68, 80
1, 418620, Note_on_c, 0, 56, 69
1, 418668, Note_off_c, 0, 68, 60
1, 418690, Note_off_c, 0, 56, 63
1, 418705, Note_on_c, 0, 45, 94
1, 418711, Note_on_c, 0, 38, 61
1, 418714, Note_on_c, 0, 33, 75
1, 418752, Note_off_c, 0, 33, 65
1, 418753, Note_off_c, 0, 45, 64
1, 418753, Note_off_c, 0, 38, 63
1, 418802, Note_on_c, 0, 69, 69
1, 418855, Note_on_c, 0, 57, 64
1, 418870, Note_off_c, 0, 69, 59
1, 418937, Note_off_c, 0, 57, 62
1, 418958, Note_on_c, 0, 41, 86
1, 418968, Note_on_c, 0, 29, 73
1, 419010, Note_off_c, 0, 29, 63
1, 419015, Note_off_c, 0, 41, 63
1, 419029, Note_on_c, 0, 65, 65
1, 419103, Note_on_c, 0, 53, 57
1, 419129, Note_off_c, 0, 65, 56
1, 419181, Note_off_c, 0, 53, 61
1, 419239, Note_on_c, 0, 40, 81
1, 419245, Note_on_c, 0, 28, 73
1, 419267, Control_c, 0, 64, 47
1, 419281, Control_c, 0, 64, 69
1, 419283, Note_off_c, 0, 28, 65
1, 419296, Control_c, 0, 64, 113
1, 419311, Control_c, 0, 64, 127
1, 419316, Note_off_c, 0, 40, 64
1, 419319, Note_on_c, 0, 56, 65
1, 419394, Note_off_c, 0, 56, 62
1, 419397, Note_on_c, 0, 59, 48
1, 419440, Note_off_c, 0, 59, 62
1, 419462, Note_on_c, 0, 62, 45
1, 419468, Note_on_c, 0, 68, 56
1, 419507, Note_off_c, 0, 68, 62
1, 419530, Note_off_c, 0, 62, 47
1, 419531, Note_on_c, 0, 59, 60
1, 419581, Note_off_c, 0, 59, 56
1, 419611, Note_on_c, 0, 68, 54
1, 419643, Note_off_c, 0, 68, 62
1, 419679, Note_on_c, 0, 52, 51
1, 419685, Note_on_c, 0, 56, 57
1, 419729, Note_off_c, 0, 52, 64
1, 419735, Note_off_c, 0, 56, 61
1, 419757, Note_on_c, 0, 59, 51
1, 419798, Note_off_c, 0, 59, 57
1, 419805, Note_on_c, 0, 62, 55
1, 419850, Note_off_c, 0, 62, 62
1, 419873, Note_on_c, 0, 68, 61
1, 419894, Note_on_c, 0, 71, 48
1, 419927, Note_off_c, 0, 68, 57
1, 419935, Note_off_c, 0, 71, 59
1, 419948, Note_on_c, 0, 62, 59
1, 419987, Note_off_c, 0, 62, 62
1, 420011, Note_on_c, 0, 68, 48
1, 420037, Note_off_c, 0, 68, 62
1, 420061, Note_on_c, 0, 59, 68
1, 420067, Note_on_c, 0, 56, 64
1, 420096, Note_off_c, 0, 59, 64
1, 420104, Note_off_c, 0, 56, 65
1, 420141, Note_on_c, 0, 62, 66
1, 420192, Note_on_c, 0, 68, 72
1, 420214, Note_off_c, 0, 62, 59
1, 420255, Note_off_c, 0, 68, 62
1, 420260, Note_on_c, 0, 74, 76
1, 420267, Note_on_c, 0, 71, 58
1, 420302, Note_off_c, 0, 71, 57
1, 420321, Note_on_c, 0, 68, 78
1, 420335, Note_off_c, 0, 74, 57
1, 420380, Note_on_c, 0, 71, 75
1, 420384, Note_on_c, 0, 74, 55
1, 420393, Note_off_c, 0, 68, 63
1, 420413, Note_off_c, 0, 71, 64
1, 420418, Note_off_c, 0, 74, 64
1, 420443, Note_on_c, 0, 59, 84
1, 420443, Note_on_c, 0, 62, 83
1, 420475, Note_off_c, 0, 59, 66
1, 420482, Note_off_c, 0, 62, 64
1, 420504, Note_on_c, 0, 68, 87
1, 420545, Note_on_c, 0, 71, 68
1, 420561, Note_off_c, 0, 68, 61
1, 420605, Note_on_c, 0, 74, 64
1, 420619, Note_off_c, 0, 71, 63
1, 420624, Note_on_c, 0, 80, 90
1, 420634, Note_on_c, 0, 75, 54
1, 420647, Note_off_c, 0, 74, 61
1, 420655, Note_off_c, 0, 75, 58
1, 420695, Note_on_c, 0, 71, 90
1, 420717, Note_off_c, 0, 80, 0
1, 420744, Note_off_c, 0, 71, 65
1, 420754, Poly_aftertouch_c, 0, 80, 127
1, 420789, Poly_aftertouch_c, 0, 80, 0
1, 420816, Note_on_c, 0, 62, 84
1, 420818, Note_on_c, 0, 68, 95
1, 420857, Note_off_c, 0, 62, 63
1, 420866, Note_off_c, 0, 68, 63
1, 420894, Note_on_c, 0, 71, 86
1, 420950, Note_on_c, 0, 74, 83
1, 420964, Note_off_c, 0, 71, 59
1, 421008, Note_on_c, 0, 83, 86
1, 421018, Note_off_c, 0, 74, 62
1, 421024, Note_on_c, 0, 80, 61
1, 421051, Note_off_c, 0, 80, 64
1, 421074, Note_off_c, 0, 83, 58
1, 421084, Note_on_c, 0, 74, 87
1, 421134, Note_on_c, 0, 80, 83
1, 421141, Note_off_c, 0, 74, 67
1, 421142, Note_on_c, 0, 83, 83
1, 421168, Note_off_c, 0, 83, 67
1, 421177, Note_off_c, 0, 80, 67
1, 421226, Note_on_c, 0, 71, 91
1, 421228, Note_on_c, 0, 68, 85
1, 421304, Note_off_c, 0, 68, 58
1, 421319, Note_off_c, 0, 71, 54
1, 421355, Note_on_c, 0, 95, 94
1, 421440, Note_on_c, 0, 92, 89
1, 421484, Note_off_c, 0, 95, 62
1, 421512, Note_on_c, 0, 86, 83
1, 421538, Note_off_c, 0, 92, 65
1, 421579, Note_off_c, 0, 86, 64
1, 421582, Note_on_c, 0, 83, 77
1, 421609, Note_off_c, 0, 83, 63
1, 421658, Note_on_c, 0, 80, 80
1, 421729, Note_on_c, 0, 74, 71
1, 421741, Note_off_c, 0, 80, 62
1, 421788, Note_on_c, 0, 83, 85
1, 421793, Note_off_c, 0, 74, 63
1, 421851, Note_on_c, 0, 80, 78
1, 421884, Note_off_c, 0, 83, 60
1, 421914, Note_on_c, 0, 74, 79
1, 421942, Note_off_c, 0, 80, 63
1, 421965, Note_off_c, 0, 74, 64
1, 421986, Note_on_c, 0, 71, 67
1, 422011, Note_off_c, 0, 71, 69
1, 422049, Note_on_c, 0, 68, 83
1, 422119, Note_on_c, 0, 62, 83
1, 422136, Note_off_c, 0, 68, 60
1, 422192, Note_on_c, 0, 71, 86
1, 422202, Note_off_c, 0, 62, 63
1, 422261, Note_on_c, 0, 68, 81
1, 422306, Note_off_c, 0, 71, 57
1, 422337, Note_on_c, 0, 62, 76
1, 422357, Note_off_c, 0, 68, 60
1, 422386, Note_off_c, 0, 62, 54
1, 422397, Note_on_c, 0, 59, 73
1, 422467, Note_on_c, 0, 56, 90
1, 422473, Note_off_c, 0, 59, 59
1, 422512, Note_off_c, 0, 56, 65
1, 422529, Control_c, 0, 64, 77
1, 422533, Note_on_c, 0, 44, 103
1, 422535, Note_on_c, 0, 32, 87
1, 422544, Control_c, 0, 64, 38
1, 422559, Control_c, 0, 64, 0
1, 422603, Control_c, 0, 64, 42
1, 422617, Control_c, 0, 64, 62
1, 422628, Note_off_c, 0, 32, 63
1, 422632, Control_c, 0, 64, 77
1, 422634, Note_on_c, 0, 59, 75
1, 422647, Control_c, 0, 64, 127
1, 422665, Note_off_c, 0, 44, 61
1, 422697, Note_on_c, 0, 62, 72
1, 422699, Note_off_c, 0, 59, 64
1, 422760, Note_off_c, 0, 62, 63
1, 422766, Note_on_c, 0, 71, 75
1, 422771, Note_on_c, 0, 65, 46
1, 422825, Note_off_c, 0, 71, 60
1, 422840, Note_on_c, 0, 62, 70
1, 422862, Note_off_c, 0, 65, 0
1, 422896, Note_off_c, 0, 62, 60
1, 422904, Poly_aftertouch_c, 0, 65, 0
1, 422906, Note_on_c, 0, 71, 56
1, 422945, Note_off_c, 0, 71, 66
1, 422988, Note_on_c, 0, 56, 71
1, 422992, Note_on_c, 0, 59, 68
1, 423048, Note_off_c, 0, 59, 63
1, 423058, Note_on_c, 0, 62, 71
1, 423060, Note_off_c, 0, 56, 59
1, 423109, Note_on_c, 0, 65, 76
1, 423123, Note_off_c, 0, 62, 60
1, 423179, Note_off_c, 0, 65, 62
1, 423187, Note_on_c, 0, 74, 77
1, 423188, Note_on_c, 0, 71, 72
1, 423227, Note_off_c, 0, 71, 53
1, 423238, Note_off_c, 0, 74, 62
1, 423248, Note_on_c, 0, 65, 85
1, 423299, Note_on_c, 0, 74, 78
1, 423306, Note_off_c, 0, 65, 65
1, 423311, Note_on_c, 0, 71, 68
1, 423340, Note_off_c, 0, 71, 66
1, 423341, Note_off_c, 0, 74, 64
1, 423373, Note_on_c, 0, 62, 91
1, 423376, Note_on_c, 0, 59, 86
1, 423408, Note_off_c, 0, 59, 65
1, 423408, Note_off_c, 0, 62, 64
1, 423445, Note_on_c, 0, 65, 81
1, 423492, Note_on_c, 0, 71, 86
1, 423495, Note_off_c, 0, 65, 65
1, 423570, Note_on_c, 0, 74, 75
1, 423572, Note_off_c, 0, 71, 63
1, 423574, Note_on_c, 0, 77, 89
1, 423630, Note_off_c, 0, 77, 60
1, 423637, Note_off_c, 0, 74, 36
1, 423638, Note_on_c, 0, 71, 89
1, 423692, Note_on_c, 0, 74, 69
1, 423702, Note_on_c, 0, 77, 96
1, 423714, Note_off_c, 0, 71, 65
1, 423731, Note_off_c, 0, 74, 63
1, 423749, Note_off_c, 0, 77, 65
1, 423781, Note_on_c, 0, 65, 94
1, 423783, Note_on_c, 0, 62, 92
1, 423829, Note_off_c, 0, 62, 64
1, 423835, Note_off_c, 0, 65, 65
1, 423847, Note_on_c, 0, 71, 87
1, 423890, Note_on_c, 0, 74, 81
1, 423901, Note_off_c, 0, 71, 66
1, 423962, Note_on_c, 0, 77, 79
1, 423964, Note_on_c, 0, 83, 96
1, 423970, Note_off_c, 0, 74, 64
1, 423988, Note_off_c, 0, 77, 66
1, 424029, Note_off_c, 0, 83, 62
1, 424031, Note_on_c, 0, 74, 86
1, 424086, Note_on_c, 0, 77, 23
1, 424092, Note_on_c, 0, 83, 96
1, 424109, Note_off_c, 0, 74, 64
1, 424112, Note_off_c, 0, 77, 55
1, 424139, Note_off_c, 0, 83, 67
1, 424171, Note_on_c, 0, 71, 93
1, 424174, Note_on_c, 0, 68, 90
1, 424231, Note_off_c, 0, 71, 63
1, 424245, Note_on_c, 0, 74, 92
1, 424249, Note_off_c, 0, 68, 64
1, 424305, Note_on_c, 0, 77, 86
1, 424322, Note_off_c, 0, 74, 61
1, 424363, Note_on_c, 0, 86, 88
1, 424375, Note_off_c, 0, 77, 64
1, 424377, Note_on_c, 0, 83, 69
1, 424408, Note_off_c, 0, 83, 58
1, 424450, Note_off_c, 0, 86, 62
1, 424452, Note_on_c, 0, 77, 91
1, 424510, Note_on_c, 0, 86, 91
1, 424523, Note_off_c, 0, 77, 66
1, 424524, Note_on_c, 0, 83, 72
1, 424547, Note_off_c, 0, 83, 69
1, 424556, Note_off_c, 0, 86, 68
1, 424619, Note_on_c, 0, 74, 94
1, 424621, Note_on_c, 0, 71, 90
1, 424759, Note_on_c, 0, 101, 99
1, 424826, Note_off_c, 0, 71, 40
1, 424849, Note_on_c, 0, 98, 93
1, 424858, Note_off_c, 0, 74, 53
1, 424884, Note_off_c, 0, 101, 61
1, 424923, Note_on_c, 0, 95, 89
1, 424964, Note_off_c, 0, 98, 66
1, 424993, Note_on_c, 0, 89, 82
1, 425000, Note_off_c, 0, 95, 65
1, 425040, Note_off_c, 0, 89, 64
1, 425073, Note_on_c, 0, 86, 87
1, 425145, Note_on_c, 0, 83, 85
1, 425171, Note_off_c, 0, 86, 62
1, 425225, Note_on_c, 0, 89, 93
1, 425231, Note_off_c, 0, 83, 65
1, 425299, Note_on_c, 0, 86, 85
1, 425332, Note_off_c, 0, 89, 61
1, 425379, Note_on_c, 0, 83, 89
1, 425417, Note_off_c, 0, 86, 63
1, 425454, Note_on_c, 0, 77, 84
1, 425460, Note_off_c, 0, 83, 65
1, 425498, Note_off_c, 0, 77, 66
1, 425542, Note_on_c, 0, 74, 92
1, 425621, Note_on_c, 0, 71, 90
1, 425652, Note_off_c, 0, 74, 60
1, 425713, Note_on_c, 0, 77, 91
1, 425719, Note_off_c, 0, 71, 63
1, 425809, Note_on_c, 0, 74, 84
1, 425843, Note_off_c, 0, 77, 59
1, 425901, Note_on_c, 0, 71, 83
1, 425951, Note_off_c, 0, 74, 59
1, 426001, Note_on_c, 0, 65, 84
1, 426021, Note_off_c, 0, 71, 57
1, 426070, Note_off_c, 0, 65, 62
1, 426114, Note_on_c, 0, 62, 90
1, 426267, Note_off_c, 0, 62, 55
1, 426307, Note_on_c, 0, 33, 90
1, 426330, Control_c, 0, 64, 83
1, 426345, Control_c, 0, 64, 57
1, 426360, Control_c, 0, 64, 0
1, 426449, Control_c, 0, 64, 48
1, 426464, Control_c, 0, 64, 61
1, 426479, Control_c, 0, 64, 68
1, 426494, Control_c, 0, 64, 80
1, 426509, Control_c, 0, 64, 127
1, 426546, Note_off_c, 0, 33, 58
1, 426553, Note_on_c, 0, 45, 45
1, 426631, Note_off_c, 0, 45, 52
1, 426679, Note_on_c, 0, 33, 31
1, 426731, Note_off_c, 0, 33, 49
1, 426756, Note_on_c, 0, 45, 44
1, 426825, Note_off_c, 0, 45, 53
1, 426868, Note_on_c, 0, 33, 27
1, 426916, Note_off_c, 0, 33, 47
1, 426924, Note_on_c, 0, 45, 39
1, 426993, Note_off_c, 0, 45, 52
1, 426998, Note_on_c, 0, 33, 43
1, 427040, Note_off_c, 0, 33, 55
1, 427063, Note_on_c, 0, 45, 37
1, 427145, Note_on_c, 0, 33, 55
1, 427152, Note_off_c, 0, 45, 59
1, 427213, Note_off_c, 0, 33, 56
1, 427223, Note_on_c, 0, 45, 53
1, 427295, Note_on_c, 0, 33, 67
1, 427308, Note_off_c, 0, 45, 62
1, 427366, Note_off_c, 0, 33, 60
1, 427373, Note_on_c, 0, 45, 62
1, 427448, Note_on_c, 0, 33, 71
1, 427473, Note_off_c, 0, 45, 56
1, 427517, Note_on_c, 0, 45, 46
1, 427534, Note_off_c, 0, 33, 60
1, 427613, Note_on_c, 0, 33, 57
1, 427630, Note_on_c, 0, 69, 94
1, 427635, Note_on_c, 0, 62, 71
1, 427642, Note_off_c, 0, 45, 57
1, 427642, Note_on_c, 0, 65, 82
1, 427714, Note_off_c, 0, 33, 55
1, 427722, Note_on_c, 0, 45, 45
1, 427793, Note_on_c, 0, 33, 47
1, 427815, Note_off_c, 0, 45, 50
1, 427872, Note_on_c, 0, 45, 26
1, 427923, Note_off_c, 0, 33, 0
1, 427942, Note_on_c, 0, 33, 25
1, 427954, Note_off_c, 0, 45, 54
1, 428038, Note_on_c, 0, 45, 26
1, 428092, Note_off_c, 0, 33, 0
1, 428110, Note_on_c, 0, 33, 23
1, 428134, Note_on_c, 0, 60, 55
1, 428140, Note_on_c, 0, 64, 63
1, 428202, Note_off_c, 0, 45, 0
1, 428222, Note_on_c, 0, 45, 18
1, 428259, Note_off_c, 0, 33, 0
1, 428278, Note_off_c, 0, 62, 58
1, 428281, Note_on_c, 0, 33, 21
1, 428328, Note_off_c, 0, 60, 59
1, 428347, Note_off_c, 0, 45, 0
1, 428368, Note_on_c, 0, 45, 17
1, 428422, Note_off_c, 0, 33, 0
1, 428440, Note_on_c, 0, 33, 28
1, 428496, Note_on_c, 0, 59, 56
1, 428497, Note_on_c, 0, 62, 64
1, 428517, Note_off_c, 0, 45, 0
1, 428533, Control_c, 0, 64, 112
1, 428539, Note_on_c, 0, 45, 17
1, 428548, Control_c, 0, 64, 97
1, 428563, Control_c, 0, 64, 82
1, 428578, Control_c, 0, 64, 70
1, 428593, Control_c, 0, 64, 61
1, 428600, Note_off_c, 0, 33, 0
1, 428601, Note_off_c, 0, 65, 53
1, 428607, Control_c, 0, 64, 51
1, 428617, Note_on_c, 0, 33, 30
1, 428622, Control_c, 0, 64, 53
1, 428634, Note_off_c, 0, 45, 51
1, 428637, Control_c, 0, 64, 58
1, 428637, Note_off_c, 0, 64, 60
1, 428652, Control_c, 0, 64, 61
1, 428667, Control_c, 0, 64, 64
1, 428681, Control_c, 0, 64, 67
1, 428696, Control_c, 0, 64, 71
1, 428700, Note_off_c, 0, 33, 53
1, 428709, Note_on_c, 0, 45, 37
1, 428711, Control_c, 0, 64, 80
1, 428726, Control_c, 0, 64, 95
1, 428740, Control_c, 0, 64, 127
1, 428783, Note_on_c, 0, 33, 38
1, 428795, Note_off_c, 0, 45, 55
1, 428854, Note_on_c, 0, 68, 76
1, 428859, Note_off_c, 0, 33, 54
1, 428868, Note_on_c, 0, 45, 31
1, 428879, Note_off_c, 0, 59, 54
1, 428900, Note_off_c, 0, 69, 56
1, 428930, Note_off_c, 0, 62, 62
1, 428964, Note_off_c, 0, 45, 57
1, 428980, Note_on_c, 0, 33, 39
1, 428995, Note_off_c, 0, 68, 64
1, 429039, Note_off_c, 0, 33, 55
1, 429058, Note_on_c, 0, 45, 43
1, 429189, Note_on_c, 0, 33, 44
1, 429204, Note_off_c, 0, 45, 37
1, 429243, Note_on_c, 0, 74, 86
1, 429263, Note_on_c, 0, 67, 61
1, 429263, Note_on_c, 0, 70, 71
1, 429283, Note_off_c, 0, 33, 51
1, 429290, Note_on_c, 0, 45, 40
1, 429356, Control_c, 0, 64, 115
1, 429371, Control_c, 0, 64, 100
1, 429375, Note_on_c, 0, 33, 37
1, 429383, Note_off_c, 0, 45, 50
1, 429386, Control_c, 0, 64, 86
1, 429401, Control_c, 0, 64, 72
1, 429415, Control_c, 0, 64, 64
1, 429430, Control_c, 0, 64, 57
1, 429445, Control_c, 0, 64, 57
1, 429460, Control_c, 0, 64, 60
1, 429463, Note_off_c, 0, 33, 55
1, 429475, Control_c, 0, 64, 62
1, 429479, Note_on_c, 0, 45, 35
1, 429490, Control_c, 0, 64, 65
1, 429504, Control_c, 0, 64, 69
1, 429519, Control_c, 0, 64, 78
1, 429534, Control_c, 0, 64, 97
1, 429549, Control_c, 0, 64, 127
1, 429564, Note_on_c, 0, 33, 48
1, 429623, Note_off_c, 0, 45, 0
1, 429627, Note_off_c, 0, 33, 55
1, 429639, Note_on_c, 0, 45, 26
1, 429690, Note_on_c, 0, 69, 65
1, 429712, Note_on_c, 0, 65, 51
1, 429744, Note_on_c, 0, 33, 50
1, 429798, Note_off_c, 0, 33, 56
1, 429805, Note_off_c, 0, 45, 0
1, 429819, Note_on_c, 0, 45, 34
1, 429876, Note_off_c, 0, 65, 59
1, 429898, Note_off_c, 0, 67, 35
1, 429913, Note_on_c, 0, 33, 58
1, 429949, Note_off_c, 0, 45, 0
1, 429961, Note_off_c, 0, 33, 57
1, 429970, Note_on_c, 0, 45, 21
1, 430063, Note_on_c, 0, 33, 58
1, 430065, Note_on_c, 0, 67, 74
1, 430073, Note_on_c, 0, 64, 61
1, 430105, Control_c, 0, 64, 98
1, 430110, Note_off_c, 0, 45, 0
1, 430120, Control_c, 0, 64, 81
1, 430126, Note_off_c, 0, 33, 58
1, 430134, Control_c, 0, 64, 69
1, 430136, Note_on_c, 0, 45, 9
1, 430149, Control_c, 0, 64, 61
1, 430164, Control_c, 0, 64, 60
1, 430179, Control_c, 0, 64, 62
1, 430193, Control_c, 0, 64, 64
1, 430198, Note_off_c, 0, 70, 36
1, 430208, Control_c, 0, 64, 65
1, 430221, Note_on_c, 0, 33, 52
1, 430222, Note_off_c, 0, 69, 61
1, 430223, Control_c, 0, 64, 69
1, 430230, Note_off_c, 0, 45, 53
1, 430238, Control_c, 0, 64, 76
1, 430253, Control_c, 0, 64, 88
1, 430268, Control_c, 0, 64, 127
1, 430278, Note_off_c, 0, 33, 54
1, 430286, Note_on_c, 0, 45, 32
1, 430379, Note_off_c, 0, 45, 59
1, 430382, Note_on_c, 0, 33, 54
1, 430437, Note_on_c, 0, 73, 84
1, 430440, Note_off_c, 0, 33, 55
1, 430455, Note_off_c, 0, 64, 54
1, 430477, Note_on_c, 0, 45, 31
1, 430489, Note_off_c, 0, 74, 56
1, 430545, Note_off_c, 0, 45, 55
1, 430555, Note_on_c, 0, 33, 54
1, 430558, Note_off_c, 0, 67, 57
1, 430617, Note_off_c, 0, 33, 49
1, 430625, Note_on_c, 0, 45, 38
1, 430694, Note_on_c, 0, 33, 41
1, 430755, Note_off_c, 0, 45, 0
1, 430782, Note_on_c, 0, 77, 79
1, 430784, Note_on_c, 0, 45, 8
1, 430787, Note_on_c, 0, 69, 57
1, 430839, Note_off_c, 0, 33, 0
1, 430855, Note_on_c, 0, 33, 31
1, 430918, Note_off_c, 0, 45, 0
1, 430935, Note_on_c, 0, 45, 32
1, 430939, Note_off_c, 0, 33, 53
1, 431010, Note_off_c, 0, 69, 57
1, 431014, Note_off_c, 0, 77, 57
1, 431016, Note_on_c, 0, 33, 39
1, 431090, Note_off_c, 0, 45, 0
1, 431099, Note_off_c, 0, 33, 52
1, 431109, Note_on_c, 0, 45, 24
1, 431131, Note_on_c, 0, 76, 77
1, 431139, Note_on_c, 0, 77, 67
1, 431140, Note_on_c, 0, 67, 66
1, 431166, Note_off_c, 0, 77, 39
1, 431180, Note_on_c, 0, 33, 39
1, 431195, Note_off_c, 0, 45, 51
1, 431222, Note_off_c, 0, 73, 63
1, 431246, Note_off_c, 0, 33, 56
1, 431261, Note_on_c, 0, 45, 38
1, 431320, Note_on_c, 0, 33, 53
1, 431338, Note_off_c, 0, 67, 56
1, 431376, Note_off_c, 0, 45, 0
1, 431391, Note_off_c, 0, 33, 58
1, 431392, Note_on_c, 0, 45, 31
1, 431470, Note_on_c, 0, 74, 87
1, 431474, Note_on_c, 0, 33, 62
1, 431478, Note_on_c, 0, 69, 76
1, 431479, Note_on_c, 0, 65, 74
1, 431489, Note_off_c, 0, 45, 61
1, 431489, Note_off_c, 0, 76, 66
1, 431499, Control_c, 0, 64, 84
1, 431514, Control_c, 0, 64, 67
1, 431529, Control_c, 0, 64, 56
1, 431542, Note_off_c, 0, 33, 59
1, 431544, Control_c, 0, 64, 55
1, 431558, Control_c, 0, 64, 60
1, 431567, Note_on_c, 0, 45, 50
1, 431573, Control_c, 0, 64, 63
1, 431588, Control_c, 0, 64, 67
1, 431603, Control_c, 0, 64, 74
1, 431616, Note_on_c, 0, 33, 61
1, 431618, Control_c, 0, 64, 90
1, 431632, Control_c, 0, 64, 127
1, 431669, Note_off_c, 0, 45, 0
1, 431675, Note_off_c, 0, 69, 58
1, 431684, Note_on_c, 0, 45, 39
1, 431691, Note_off_c, 0, 33, 58
1, 431742, Note_off_c, 0, 65, 61
1, 431770, Note_on_c, 0, 33, 52
1, 431782, Note_off_c, 0, 45, 60
1, 431802, Note_on_c, 0, 72, 87
1, 431808, Note_on_c, 0, 67, 82
1, 431813, Note_on_c, 0, 64, 75
1, 431833, Note_off_c, 0, 74, 66
1, 431842, Note_off_c, 0, 33, 57
1, 431858, Note_on_c, 0, 45, 41
1, 431935, Note_on_c, 0, 33, 66
1, 431949, Note_off_c, 0, 45, 61
1, 432006, Note_on_c, 0, 45, 51
1, 432021, Note_off_c, 0, 33, 57
1, 432062, Note_off_c, 0, 67, 53
1, 432097, Note_off_c, 0, 72, 60
1, 432107, Note_off_c, 0, 64, 58
1, 432121, Note_on_c, 0, 33, 55
1, 432122, Note_off_c, 0, 45, 58
1, 432164, Note_on_c, 0, 72, 94
1, 432177, Note_on_c, 0, 64, 79
1, 432178, Note_on_c, 0, 67, 76
1, 432203, Control_c, 0, 64, 86
1, 432217, Control_c, 0, 64, 70
1, 432231, Note_off_c, 0, 33, 60
1, 432232, Note_on_c, 0, 45, 51
1, 432232, Control_c, 0, 64, 62
1, 432247, Control_c, 0, 64, 59
1, 432262, Control_c, 0, 64, 63
1, 432277, Control_c, 0, 64, 66
1, 432292, Control_c, 0, 64, 73
1, 432307, Note_off_c, 0, 67, 61
1, 432307, Control_c, 0, 64, 86
1, 432311, Note_on_c, 0, 33, 57
1, 432322, Control_c, 0, 64, 127
1, 432331, Note_off_c, 0, 45, 56
1, 432397, Note_on_c, 0, 45, 50
1, 432406, Note_off_c, 0, 33, 58
1, 432480, Note_off_c, 0, 64, 61
1, 432496, Note_on_c, 0, 33, 50
1, 432517, Note_off_c, 0, 45, 57
1, 432590, Note_on_c, 0, 62, 74
1, 432598, Note_on_c, 0, 64, 73
1, 432599, Note_on_c, 0, 67, 70
1, 432608, Note_on_c, 0, 45, 52
1, 432611, Note_off_c, 0, 33, 57
1, 432720, Note_on_c, 0, 33, 49
1, 432746, Note_off_c, 0, 45, 50
1, 432769, Note_off_c, 0, 72, 63
1, 432814, Note_on_c, 0, 70, 84
1, 432820, Note_off_c, 0, 33, 49
1, 432837, Note_on_c, 0, 45, 50
1, 432852, Note_off_c, 0, 62, 63
1, 432863, Note_off_c, 0, 64, 60
1, 432886, Note_off_c, 0, 67, 59
1, 432975, Note_off_c, 0, 70, 61
1, 432990, Note_on_c, 0, 33, 44
1, 433056, Note_on_c, 0, 69, 89
1, 433059, Note_on_c, 0, 61, 77
1, 433066, Note_on_c, 0, 64, 74
1, 433066, Note_on_c, 0, 67, 67
1, 433078, Note_off_c, 0, 45, 28
1, 433142, Note_on_c, 0, 45, 37
1, 433145, Control_c, 0, 64, 103
1, 433148, Note_off_c, 0, 33, 56
1, 433159, Control_c, 0, 64, 84
1, 433174, Control_c, 0, 64, 67
1, 433189, Control_c, 0, 64, 50
1, 433204, Control_c, 0, 64, 9
1, 433219, Control_c, 0, 64, 13
1, 433234, Note_off_c, 0, 45, 56
1, 433234, Control_c, 0, 64, 28
1, 433249, Control_c, 0, 64, 42
1, 433249, Note_on_c, 0, 33, 44
1, 433264, Control_c, 0, 64, 52
1, 433278, Control_c, 0, 64, 59
1, 433293, Control_c, 0, 64, 63
1, 433308, Control_c, 0, 64, 68
1, 433323, Control_c, 0, 64, 75
1, 433329, Note_on_c, 0, 45, 45
1, 433333, Note_off_c, 0, 33, 50
1, 433338, Control_c, 0, 64, 87
1, 433352, Control_c, 0, 64, 112
1, 433367, Control_c, 0, 64, 127
1, 433421, Note_on_c, 0, 33, 37
1, 433424, Note_off_c, 0, 45, 59
1, 433428, Note_off_c, 0, 69, 57
1, 433442, Note_off_c, 0, 64, 57
1, 433452, Note_off_c, 0, 61, 58
1, 433453, Note_off_c, 0, 67, 59
1, 433495, Note_off_c, 0, 33, 54
1, 433502, Note_on_c, 0, 45, 39
1, 433598, Note_off_c, 0, 45, 61
1, 433603, Note_on_c, 0, 33, 55
1, 433669, Note_off_c, 0, 33, 52
1, 433699, Note_on_c, 0, 45, 52
1, 433782, Note_on_c, 0, 33, 67
1, 433787, Note_off_c, 0, 45, 60
1, 433861, Note_off_c, 0, 33, 57
1, 433878, Note_on_c, 0, 45, 48
1, 433958, Note_on_c, 0, 69, 87
1, 433960, Note_on_c, 0, 62, 80
1, 433970, Note_on_c, 0, 65, 75
1, 433974, Note_on_c, 0, 33, 53
1, 433998, Control_c, 0, 64, 101
1, 434013, Control_c, 0, 64, 86
1, 434027, Control_c, 0, 64, 74
1, 434042, Control_c, 0, 64, 65
1, 434057, Control_c, 0, 64, 58
1, 434062, Note_off_c, 0, 45, 0
1, 434072, Control_c, 0, 64, 57
1, 434080, Note_off_c, 0, 33, 53
1, 434082, Note_on_c, 0, 45, 21
1, 434087, Control_c, 0, 64, 59
1, 434101, Control_c, 0, 64, 60
1, 434116, Control_c, 0, 64, 62
1, 434131, Control_c, 0, 64, 65
1, 434153, Control_c, 0, 64, 68
1, 434168, Note_on_c, 0, 33, 38
1, 434168, Control_c, 0, 64, 72
1, 434183, Control_c, 0, 64, 78
1, 434198, Control_c, 0, 64, 88
1, 434213, Control_c, 0, 64, 108
1, 434227, Control_c, 0, 64, 127
1, 434233, Note_off_c, 0, 33, 55
1, 434243, Note_off_c, 0, 45, 0
1, 434258, Note_on_c, 0, 45, 36
1, 434343, Note_on_c, 0, 33, 49
1, 434390, Note_off_c, 0, 45, 0
1, 434409, Note_on_c, 0, 45, 25
1, 434429, Note_on_c, 0, 60, 61
1, 434432, Note_on_c, 0, 64, 68
1, 434461, Note_off_c, 0, 33, 0
1, 434487, Note_on_c, 0, 33, 20
1, 434530, Note_off_c, 0, 62, 57
1, 434558, Note_off_c, 0, 45, 0
1, 434573, Note_on_c, 0, 45, 35
1, 434623, Note_off_c, 0, 33, 0
1, 434644, Note_on_c, 0, 33, 27
1, 434657, Note_off_c, 0, 60, 59
1, 434707, Note_off_c, 0, 45, 0
1, 434727, Note_on_c, 0, 45, 20
1, 434761, Control_c, 0, 64, 113
1, 434775, Control_c, 0, 64, 101
1, 434778, Note_on_c, 0, 59, 62
1, 434778, Note_off_c, 0, 33, 0
1, 434779, Note_on_c, 0, 62, 68
1, 434790, Control_c, 0, 64, 89
1, 434794, Note_on_c, 0, 33, 32
1, 434805, Control_c, 0, 64, 76
1, 434812, Note_off_c, 0, 45, 56
1, 434820, Control_c, 0, 64, 67
1, 434835, Control_c, 0, 64, 62
1, 434850, Control_c, 0, 64, 59
1, 434853, Note_off_c, 0, 65, 35
1, 434865, Control_c, 0, 64, 61
1, 434869, Note_off_c, 0, 33, 49
1, 434879, Control_c, 0, 64, 63
1, 434902, Note_off_c, 0, 64, 58
1, 434902, Control_c, 0, 64, 65
1, 434903, Note_on_c, 0, 45, 36
1, 434917, Control_c, 0, 64, 67
1, 434931, Control_c, 0, 64, 71
1, 434946, Control_c, 0, 64, 76
1, 434958, Note_on_c, 0, 33, 35
1, 434961, Control_c, 0, 64, 82
1, 434968, Note_off_c, 0, 45, 56
1, 434975, Control_c, 0, 64, 90
1, 434990, Control_c, 0, 64, 102
1, 435005, Control_c, 0, 64, 115
1, 435020, Control_c, 0, 64, 127
1, 435049, Note_on_c, 0, 45, 38
1, 435079, Note_off_c, 0, 33, 0
1, 435103, Note_on_c, 0, 33, 22
1, 435129, Note_off_c, 0, 45, 51
1, 435138, Note_on_c, 0, 68, 70
1, 435189, Note_off_c, 0, 69, 57
1, 435211, Note_on_c, 0, 45, 27
1, 435229, Note_off_c, 0, 59, 51
1, 435247, Note_off_c, 0, 33, 0
1, 435247, Note_off_c, 0, 62, 62
1, 435267, Note_on_c, 0, 33, 27
1, 435278, Note_off_c, 0, 45, 55
1, 435284, Note_off_c, 0, 68, 62
1, 435356, Note_off_c, 0, 33, 38
1, 435367, Note_on_c, 0, 45, 30
1, 435433, Note_off_c, 0, 45, 53
1, 435443, Note_on_c, 0, 33, 33
1, 435450, Control_c, 0, 64, 117
1, 435465, Control_c, 0, 64, 112
1, 435479, Control_c, 0, 64, 106
1, 435494, Control_c, 0, 64, 98
1, 435502, Note_on_c, 0, 67, 63
1, 435505, Note_on_c, 0, 60, 54
1, 435509, Control_c, 0, 64, 87
1, 435520, Note_on_c, 0, 63, 60
1, 435524, Control_c, 0, 64, 75
1, 435539, Control_c, 0, 64, 64
1, 435554, Control_c, 0, 64, 56
1, 435557, Note_on_c, 0, 45, 30
1, 435569, Control_c, 0, 64, 53
1, 435584, Control_c, 0, 64, 55
1, 435598, Control_c, 0, 64, 58
1, 435613, Control_c, 0, 64, 61
1, 435616, Note_off_c, 0, 45, 49
1, 435628, Control_c, 0, 64, 63
1, 435651, Control_c, 0, 64, 65
1, 435666, Control_c, 0, 64, 68
1, 435680, Control_c, 0, 64, 72
1, 435695, Control_c, 0, 64, 79
1, 435710, Control_c, 0, 64, 87
1, 435716, Note_on_c, 0, 45, 40
1, 435725, Control_c, 0, 64, 97
1, 435740, Control_c, 0, 64, 108
1, 435742, Note_off_c, 0, 33, 0
1, 435754, Control_c, 0, 64, 111
1, 435765, Note_on_c, 0, 33, 22
1, 435776, Note_off_c, 0, 45, 54
1, 435843, Control_c, 0, 64, 110
1, 435858, Control_c, 0, 64, 109
1, 435872, Control_c, 0, 64, 109
1, 435873, Note_on_c, 0, 45, 35
1, 435878, Note_on_c, 0, 58, 58
1, 435880, Note_on_c, 0, 62, 56
1, 435887, Control_c, 0, 64, 108
1, 435902, Control_c, 0, 64, 108
1, 435911, Note_off_c, 0, 33, 0
1, 435917, Control_c, 0, 64, 107
1, 435932, Note_on_c, 0, 33, 26
1, 435932, Control_c, 0, 64, 106
1, 435933, Note_off_c, 0, 45, 53
1, 435935, Note_off_c, 0, 60, 25
1, 435976, Control_c, 0, 64, 106
1, 435991, Control_c, 0, 64, 105
1, 436006, Note_off_c, 0, 33, 52
1, 436006, Control_c, 0, 64, 104
1, 436021, Control_c, 0, 64, 103
1, 436024, Note_off_c, 0, 58, 56
1, 436030, Note_on_c, 0, 45, 40
1, 436036, Control_c, 0, 64, 102
1, 436051, Control_c, 0, 64, 101
1, 436066, Control_c, 0, 64, 100
1, 436080, Control_c, 0, 64, 98
1, 436095, Note_off_c, 0, 45, 51
1, 436095, Control_c, 0, 64, 97
1, 436097, Note_on_c, 0, 33, 37
1, 436110, Control_c, 0, 64, 96
1, 436124, Control_c, 0, 64, 95
1, 436128, Note_off_c, 0, 63, 25
1, 436139, Control_c, 0, 64, 93
1, 436154, Control_c, 0, 64, 91
1, 436169, Control_c, 0, 64, 87
1, 436177, Note_on_c, 0, 45, 31
1, 436184, Control_c, 0, 64, 79
1, 436198, Control_c, 0, 64, 68
1, 436206, Note_on_c, 0, 60, 52
1, 436213, Control_c, 0, 64, 60
1, 436215, Note_off_c, 0, 33, 0
1, 436224, Note_off_c, 0, 62, 55
1, 436226, Note_on_c, 0, 57, 37
1, 436228, Control_c, 0, 64, 52
1, 436242, Note_on_c, 0, 33, 16
1, 436244, Control_c, 0, 64, 52
1, 436249, Note_off_c, 0, 45, 55
1, 436259, Control_c, 0, 64, 54
1, 436274, Control_c, 0, 64, 57
1, 436289, Control_c, 0, 64, 60
1, 436303, Control_c, 0, 64, 63
1, 436316, Note_off_c, 0, 33, 54
1, 436318, Control_c, 0, 64, 64
1, 436333, Control_c, 0, 64, 67
1, 436340, Note_on_c, 0, 45, 34
1, 436348, Control_c, 0, 64, 71
1, 436363, Control_c, 0, 64, 77
1, 436377, Control_c, 0, 64, 88
1, 436400, Control_c, 0, 64, 99
1, 436412, Note_on_c, 0, 33, 36
1, 436415, Control_c, 0, 64, 112
1, 436420, Note_off_c, 0, 45, 50
1, 436429, Control_c, 0, 64, 127
1, 436495, Note_on_c, 0, 45, 32
1, 436531, Note_off_c, 0, 33, 0
1, 436542, Note_on_c, 0, 66, 52
1, 436555, Note_on_c, 0, 33, 18
1, 436567, Note_off_c, 0, 67, 58
1, 436617, Note_off_c, 0, 57, 34
1, 436620, Note_off_c, 0, 45, 0
1, 436623, Note_off_c, 0, 60, 58
1, 436639, Note_on_c, 0, 45, 18
1, 436701, Note_off_c, 0, 33, 0
1, 436720, Note_on_c, 0, 33, 21
1, 436722, Note_off_c, 0, 45, 52
1, 436791, Note_off_c, 0, 33, 41
1, 436801, Note_on_c, 0, 45, 24
1, 436861, Note_on_c, 0, 70, 53
1, 436861, Note_off_c, 0, 45, 51
1, 436870, Note_on_c, 0, 33, 32
1, 436870, Note_on_c, 0, 62, 38
1, 436933, Note_off_c, 0, 33, 45
1, 436955, Note_on_c, 0, 45, 30
1, 437020, Note_off_c, 0, 45, 46
1, 437022, Note_on_c, 0, 33, 36
1, 437036, Note_off_c, 0, 62, 35
1, 437067, Note_off_c, 0, 70, 56
1, 437082, Note_off_c, 0, 33, 46
1, 437097, Note_on_c, 0, 45, 33
1, 437167, Note_on_c, 0, 69, 63
1, 437172, Note_off_c, 0, 45, 54
1, 437181, Note_on_c, 0, 60, 50
1, 437181, Note_on_c, 0, 33, 37
1, 437230, Note_off_c, 0, 33, 50
1, 437232, Note_off_c, 0, 66, 52
1, 437253, Note_on_c, 0, 45, 37
1, 437260, Note_off_c, 0, 60, 60
1, 437326, Note_off_c, 0, 45, 55
1, 437330, Note_on_c, 0, 33, 47
1, 437377, Note_off_c, 0, 33, 52
1, 437386, Note_on_c, 0, 45, 37
1, 437414, Control_c, 0, 64, 112
1, 437429, Control_c, 0, 64, 90
1, 437443, Control_c, 0, 64, 74
1, 437458, Control_c, 0, 64, 64
1, 437462, Note_on_c, 0, 33, 43
1, 437464, Note_on_c, 0, 67, 60
1, 437467, Note_off_c, 0, 45, 54
1, 437473, Control_c, 0, 64, 58
1, 437474, Note_on_c, 0, 58, 54
1, 437488, Control_c, 0, 64, 59
1, 437504, Control_c, 0, 64, 63
1, 437516, Note_off_c, 0, 33, 57
1, 437518, Control_c, 0, 64, 66
1, 437524, Note_off_c, 0, 69, 38
1, 437533, Control_c, 0, 64, 72
1, 437542, Note_on_c, 0, 45, 26
1, 437548, Control_c, 0, 64, 84
1, 437562, Control_c, 0, 64, 112
1, 437571, Note_off_c, 0, 58, 63
1, 437577, Control_c, 0, 64, 127
1, 437612, Note_off_c, 0, 45, 57
1, 437621, Note_on_c, 0, 33, 46
1, 437635, Note_off_c, 0, 67, 62
1, 437663, Note_off_c, 0, 33, 53
1, 437696, Note_on_c, 0, 45, 37
1, 437734, Note_on_c, 0, 62, 55
1, 437739, Note_on_c, 0, 70, 66
1, 437764, Note_on_c, 0, 67, 55
1, 437765, Note_off_c, 0, 45, 57
1, 437771, Note_on_c, 0, 33, 48
1, 437814, Note_off_c, 0, 33, 53
1, 437843, Note_on_c, 0, 45, 38
1, 437878, Note_off_c, 0, 62, 52
1, 437880, Note_off_c, 0, 67, 58
1, 437896, Note_off_c, 0, 70, 56
1, 437917, Note_off_c, 0, 45, 56
1, 437937, Note_on_c, 0, 33, 43
1, 437976, Note_off_c, 0, 33, 50
1, 438000, Note_on_c, 0, 45, 41
1, 438019, Note_on_c, 0, 76, 81
1, 438027, Note_on_c, 0, 70, 62
1, 438029, Note_on_c, 0, 67, 56
1, 438066, Note_off_c, 0, 45, 56
1, 438073, Note_on_c, 0, 33, 51
1, 438107, Note_off_c, 0, 33, 57
1, 438129, Note_on_c, 0, 45, 45
1, 438177, Note_off_c, 0, 67, 52
1, 438183, Note_off_c, 0, 76, 58
1, 438194, Note_on_c, 0, 33, 58
1, 438194, Note_off_c, 0, 45, 58
1, 438232, Note_off_c, 0, 70, 31
1, 438238, Note_off_c, 0, 33, 60
1, 438275, Note_on_c, 0, 45, 47
1, 438290, Note_on_c, 0, 74, 90
1, 438296, Note_on_c, 0, 65, 76
1, 438296, Note_on_c, 0, 70, 65
1, 438307, Note_on_c, 0, 67, 71
1, 438322, Note_off_c, 0, 45, 61
1, 438325, Note_on_c, 0, 33, 67
1, 438370, Note_off_c, 0, 33, 57
1, 438398, Note_on_c, 0, 45, 63
1, 438403, Note_off_c, 0, 70, 58
1, 438406, Note_off_c, 0, 67, 56
1, 438465, Note_on_c, 0, 33, 68
1, 438467, Note_off_c, 0, 45, 61
1, 438467, Note_off_c, 0, 65, 55
1, 438505, Note_off_c, 0, 74, 60
1, 438508, Note_off_c, 0, 33, 58
1, 438525, Note_on_c, 0, 45, 60
1, 438534, Control_c, 0, 64, 83
1, 438549, Control_c, 0, 64, 62
1, 438550, Note_on_c, 0, 73, 95
1, 438552, Note_on_c, 0, 67, 71
1, 438555, Note_on_c, 0, 64, 85
1, 438557, Note_on_c, 0, 69, 76
1, 438564, Control_c, 0, 64, 30
1, 438579, Control_c, 0, 64, 35
1, 438591, Note_off_c, 0, 45, 62
1, 438593, Control_c, 0, 64, 52
1, 438597, Note_on_c, 0, 33, 67
1, 438608, Control_c, 0, 64, 61
1, 438623, Control_c, 0, 64, 68
1, 438640, Note_off_c, 0, 33, 63
1, 438646, Control_c, 0, 64, 79
1, 438657, Note_on_c, 0, 45, 61
1, 438661, Control_c, 0, 64, 127
1, 438684, Note_off_c, 0, 69, 59
1, 438691, Note_off_c, 0, 64, 60
1, 438711, Note_off_c, 0, 67, 60
1, 438723, Note_on_c, 0, 33, 67
1, 438728, Note_off_c, 0, 45, 59
1, 438759, Note_off_c, 0, 73, 64
1, 438780, Note_off_c, 0, 33, 58
1, 438788, Note_on_c, 0, 45, 58
1, 438829, Note_on_c, 0, 76, 98
1, 438835, Note_on_c, 0, 69, 87
1, 438850, Note_on_c, 0, 73, 75
1, 438859, Note_on_c, 0, 33, 62
1, 438865, Note_off_c, 0, 45, 62
1, 438907, Note_off_c, 0, 33, 57
1, 438928, Note_on_c, 0, 45, 60
1, 438993, Note_on_c, 0, 33, 68
1, 438997, Note_off_c, 0, 45, 61
1, 438999, Note_off_c, 0, 73, 47
1, 439043, Note_off_c, 0, 76, 59
1, 439052, Note_off_c, 0, 69, 58
1, 439054, Note_off_c, 0, 33, 59
1, 439062, Note_on_c, 0, 45, 61
1, 439102, Note_on_c, 0, 81, 94
1, 439120, Note_on_c, 0, 73, 73
1, 439127, Note_on_c, 0, 33, 63
1, 439127, Note_on_c, 0, 76, 68
1, 439133, Note_off_c, 0, 45, 61
1, 439190, Note_off_c, 0, 33, 54
1, 439200, Note_on_c, 0, 45, 58
1, 439240, Note_off_c, 0, 76, 49
1, 439246, Note_off_c, 0, 73, 55
1, 439258, Note_on_c, 0, 33, 58
1, 439274, Note_off_c, 0, 45, 59
1, 439277, Note_off_c, 0, 81, 58
1, 439321, Note_off_c, 0, 33, 57
1, 439327, Note_on_c, 0, 45, 49
1, 439361, Note_on_c, 0, 79, 93
1, 439369, Note_on_c, 0, 76, 82
1, 439375, Note_on_c, 0, 73, 71
1, 439376, Note_on_c, 0, 69, 75
1, 439397, Note_on_c, 0, 33, 58
1, 439409, Note_off_c, 0, 45, 60
1, 439452, Note_off_c, 0, 33, 55
1, 439457, Note_on_c, 0, 45, 46
1, 439489, Note_off_c, 0, 76, 58
1, 439531, Note_off_c, 0, 79, 58
1, 439534, Note_on_c, 0, 33, 65
1, 439539, Note_off_c, 0, 69, 52
1, 439541, Note_off_c, 0, 45, 61
1, 439556, Note_off_c, 0, 73, 59
1, 439580, Note_off_c, 0, 33, 61
1, 439593, Note_on_c, 0, 45, 46
1, 439619, Note_on_c, 0, 77, 97
1, 439625, Note_on_c, 0, 74, 81
1, 439628, Note_on_c, 0, 69, 86
1, 439664, Note_on_c, 0, 33, 68
1, 439665, Note_off_c, 0, 45, 62
1, 439712, Note_off_c, 0, 33, 55
1, 439729, Note_on_c, 0, 45, 53
1, 439734, Note_off_c, 0, 74, 60
1, 439781, Note_off_c, 0, 77, 56
1, 439787, Note_off_c, 0, 69, 57
1, 439803, Note_on_c, 0, 33, 64
1, 439805, Note_off_c, 0, 45, 60
1, 439854, Control_c, 0, 64, 92
1, 439864, Note_off_c, 0, 33, 58
1, 439866, Note_on_c, 0, 45, 54
1, 439869, Control_c, 0, 64, 74
1, 439876, Note_on_c, 0, 76, 91
1, 439878, Note_on_c, 0, 70, 75
1, 439882, Note_on_c, 0, 67, 80
1, 439884, Control_c, 0, 64, 65
1, 439899, Control_c, 0, 64, 62
1, 439913, Control_c, 0, 64, 63
1, 439928, Control_c, 0, 64, 65
1, 439938, Note_on_c, 0, 33, 60
1, 439943, Control_c, 0, 64, 67
1, 439950, Note_off_c, 0, 45, 61
1, 439958, Control_c, 0, 64, 71
1, 439972, Control_c, 0, 64, 76
1, 439987, Control_c, 0, 64, 86
1, 440002, Control_c, 0, 64, 106
1, 440006, Note_on_c, 0, 45, 49
1, 440009, Note_off_c, 0, 33, 60
1, 440017, Control_c, 0, 64, 127
1, 440038, Note_off_c, 0, 76, 56
1, 440066, Note_off_c, 0, 67, 60
1, 440071, Note_off_c, 0, 70, 62
1, 440086, Note_on_c, 0, 33, 64
1, 440090, Note_off_c, 0, 45, 58
1, 440106, Control_c, 0, 64, 105
1, 440120, Control_c, 0, 64, 78
1, 440126, Note_on_c, 0, 74, 95
1, 440129, Note_on_c, 0, 65, 90
1, 440129, Note_on_c, 0, 69, 82
1, 440143, Control_c, 0, 64, 65
1, 440158, Control_c, 0, 64, 58
1, 440159, Note_off_c, 0, 33, 61
1, 440162, Note_on_c, 0, 45, 52
1, 440172, Control_c, 0, 64, 60
1, 440187, Control_c, 0, 64, 63
1, 440202, Control_c, 0, 64, 67
1, 440217, Control_c, 0, 64, 72
1, 440232, Note_on_c, 0, 33, 65
1, 440232, Control_c, 0, 64, 81
1, 440242, Note_off_c, 0, 45, 59
1, 440248, Control_c, 0, 64, 100
1, 440262, Control_c, 0, 64, 127
1, 440279, Note_off_c, 0, 69, 57
1, 440293, Note_on_c, 0, 45, 52
1, 440297, Note_off_c, 0, 33, 58
1, 440322, Note_off_c, 0, 65, 58
1, 440385, Note_on_c, 0, 33, 65
1, 440385, Note_off_c, 0, 45, 54
1, 440385, Note_off_c, 0, 74, 53
1, 440396, Control_c, 0, 64, 116
1, 440403, Note_on_c, 0, 64, 89
1, 440404, Note_on_c, 0, 73, 87
1, 440406, Note_on_c, 0, 67, 81
1, 440407, Note_on_c, 0, 70, 79
1, 440411, Control_c, 0, 64, 85
1, 440425, Control_c, 0, 64, 71
1, 440433, Note_on_c, 0, 45, 44
1, 440440, Control_c, 0, 64, 65
1, 440448, Note_off_c, 0, 33, 61
1, 440469, Control_c, 0, 64, 68
1, 440484, Control_c, 0, 64, 74
1, 440498, Control_c, 0, 64, 84
1, 440513, Control_c, 0, 64, 104
1, 440522, Note_on_c, 0, 33, 65
1, 440528, Control_c, 0, 64, 127
1, 440531, Note_off_c, 0, 45, 62
1, 440564, Note_off_c, 0, 67, 59
1, 440592, Note_on_c, 0, 45, 59
1, 440599, Note_off_c, 0, 64, 61
1, 440600, Note_off_c, 0, 33, 56
1, 440657, Note_on_c, 0, 33, 54
1, 440661, Control_c, 0, 64, 106
1, 440671, Note_on_c, 0, 74, 89
1, 440674, Note_on_c, 0, 65, 83
1, 440676, Control_c, 0, 64, 76
1, 440681, Note_on_c, 0, 69, 72
1, 440691, Control_c, 0, 64, 62
1, 440706, Control_c, 0, 64, 55
1, 440709, Note_off_c, 0, 73, 58
1, 440715, Note_off_c, 0, 70, 63
1, 440721, Control_c, 0, 64, 59
1, 440722, Note_off_c, 0, 45, 0
1, 440726, Note_off_c, 0, 33, 62
1, 440735, Control_c, 0, 64, 63
1, 440737, Note_on_c, 0, 45, 37
1, 440750, Control_c, 0, 64, 68
1, 440764, Note_off_c, 0, 69, 62
1, 440765, Control_c, 0, 64, 79
1, 440780, Control_c, 0, 64, 115
1, 440794, Control_c, 0, 64, 127
1, 440797, Note_off_c, 0, 74, 64
1, 440805, Note_off_c, 0, 65, 63
1, 440807, Note_on_c, 0, 33, 65
1, 440815, Note_off_c, 0, 45, 60
1, 440867, Note_on_c, 0, 45, 54
1, 440878, Note_off_c, 0, 33, 57
1, 440939, Note_on_c, 0, 33, 54
1, 440944, Note_on_c, 0, 61, 91
1, 440944, Note_on_c, 0, 70, 92
1, 440948, Note_off_c, 0, 45, 61
1, 440955, Note_on_c, 0, 64, 66
1, 440956, Note_on_c, 0, 67, 69
1, 441009, Note_on_c, 0, 45, 58
1, 441015, Note_off_c, 0, 33, 57
1, 441060, Note_off_c, 0, 64, 60
1, 441078, Note_on_c, 0, 33, 61
1, 441090, Note_off_c, 0, 45, 61
1, 441096, Note_off_c, 0, 61, 60
1, 441101, Note_off_c, 0, 70, 62
1, 441153, Note_off_c, 0, 33, 58
1, 441154, Note_on_c, 0, 45, 59
1, 441173, Note_off_c, 0, 67, 59
1, 441202, Note_on_c, 0, 69, 98
1, 441208, Note_on_c, 0, 62, 95
1, 441213, Note_on_c, 0, 65, 79
1, 441219, Note_on_c, 0, 33, 72
1, 441228, Note_off_c, 0, 45, 55
1, 441279, Note_on_c, 0, 45, 60
1, 441291, Note_off_c, 0, 33, 60
1, 441323, Note_off_c, 0, 65, 60
1, 441363, Note_on_c, 0, 33, 73
1, 441366, Note_off_c, 0, 45, 56
1, 441426, Note_on_c, 0, 45, 53
1, 441432, Note_off_c, 0, 33, 62
1, 441433, Note_off_c, 0, 69, 60
1, 441475, Note_on_c, 0, 68, 94
1, 441480, Note_on_c, 0, 64, 94
1, 441481, Note_on_c, 0, 33, 69
1, 441500, Note_off_c, 0, 45, 63
1, 441506, Note_off_c, 0, 62, 64
1, 441557, Note_on_c, 0, 45, 59
1, 441568, Note_off_c, 0, 33, 59
1, 441626, Note_on_c, 0, 33, 64
1, 441640, Note_off_c, 0, 45, 61
1, 441677, Note_off_c, 0, 68, 59
1, 441700, Note_off_c, 0, 64, 59
1, 441712, Note_on_c, 0, 45, 65
1, 441715, Note_off_c, 0, 33, 60
1, 441730, Control_c, 0, 64, 82
1, 441744, Control_c, 0, 64, 61
1, 441750, Note_on_c, 0, 69, 98
1, 441753, Note_on_c, 0, 65, 98
1, 441759, Control_c, 0, 64, 37
1, 441760, Note_on_c, 0, 33, 64
1, 441774, Control_c, 0, 64, 46
1, 441780, Note_off_c, 0, 45, 62
1, 441788, Note_on_c, 0, 67, 54
1, 441789, Control_c, 0, 64, 60
1, 441804, Control_c, 0, 64, 67
1, 441818, Control_c, 0, 64, 77
1, 441831, Note_off_c, 0, 67, 45
1, 441833, Control_c, 0, 64, 116
1, 441843, Note_on_c, 0, 45, 60
1, 441849, Control_c, 0, 64, 127
1, 441855, Note_off_c, 0, 33, 57
1, 441894, Note_off_c, 0, 69, 59
1, 441897, Note_off_c, 0, 65, 61
1, 441914, Note_on_c, 0, 33, 61
1, 441918, Note_off_c, 0, 45, 59
1, 441993, Note_off_c, 0, 33, 59
1, 442001, Note_on_c, 0, 45, 54
1, 442046, Note_on_c, 0, 57, 95
1, 442046, Note_on_c, 0, 65, 87
1, 442048, Note_on_c, 0, 33, 61
1, 442051, Note_on_c, 0, 62, 81
1, 442069, Note_off_c, 0, 45, 61
1, 442129, Note_on_c, 0, 45, 58
1, 442179, Note_off_c, 0, 33, 0
1, 442186, Note_off_c, 0, 62, 59
1, 442195, Note_on_c, 0, 33, 44
1, 442257, Note_off_c, 0, 45, 0
1, 442257, Note_off_c, 0, 57, 60
1, 442270, Note_on_c, 0, 45, 44
1, 442271, Note_off_c, 0, 65, 54
1, 442287, Note_off_c, 0, 33, 61
1, 442354, Note_on_c, 0, 33, 79
1, 442354, Note_on_c, 0, 55, 100
1, 442356, Note_on_c, 0, 64, 91
1, 442359, Note_on_c, 0, 57, 88
1, 442363, Note_off_c, 0, 45, 54
1, 442364, Note_on_c, 0, 61, 78
1, 442367, Control_c, 0, 64, 84
1, 442389, Control_c, 0, 64, 64
1, 442404, Control_c, 0, 64, 39
1, 442419, Control_c, 0, 64, 33
1, 442434, Note_on_c, 0, 45, 62
1, 442434, Control_c, 0, 64, 49
1, 442448, Control_c, 0, 64, 59
1, 442452, Note_off_c, 0, 33, 61
1, 442463, Control_c, 0, 64, 65
1, 442478, Control_c, 0, 64, 73
1, 442493, Control_c, 0, 64, 93
1, 442508, Control_c, 0, 64, 127
1, 442519, Note_on_c, 0, 33, 67
1, 442519, Note_off_c, 0, 45, 60
1, 442552, Note_off_c, 0, 64, 56
1, 442598, Note_on_c, 0, 45, 70
1, 442615, Note_off_c, 0, 33, 60
1, 442615, Note_off_c, 0, 57, 58
1, 442647, Note_off_c, 0, 55, 57
1, 442676, Note_off_c, 0, 45, 62
1, 442689, Note_off_c, 0, 61, 58
1, 442698, Note_on_c, 0, 33, 80
1, 442709, Note_on_c, 0, 53, 101
1, 442713, Note_on_c, 0, 62, 94
1, 442715, Note_on_c, 0, 57, 88
1, 442731, Control_c, 0, 64, 96
1, 442743, Note_on_c, 0, 61, 28
1, 442746, Control_c, 0, 64, 70
1, 442761, Control_c, 0, 64, 54
1, 442776, Control_c, 0, 64, 36
1, 442787, Note_on_c, 0, 45, 72
1, 442791, Control_c, 0, 64, 43
1, 442797, Note_off_c, 0, 61, 43
1, 442806, Control_c, 0, 64, 54
1, 442820, Control_c, 0, 64, 61
1, 442835, Control_c, 0, 64, 66
1, 442850, Control_c, 0, 64, 73
1, 442864, Control_c, 0, 64, 95
1, 442871, Note_off_c, 0, 33, 0
1, 442879, Control_c, 0, 64, 127
1, 442889, Note_on_c, 0, 33, 36
1, 442911, Note_off_c, 0, 45, 39
1, 442944, Note_off_c, 0, 57, 61
1, 443002, Note_off_c, 0, 33, 49
1, 443014, Note_on_c, 0, 45, 54
1, 443023, Note_off_c, 0, 53, 58
1, 443080, Note_off_c, 0, 45, 49
1, 443116, Note_off_c, 0, 62, 58
1, 443173, Note_on_c, 0, 45, 94
1, 443173, Note_on_c, 0, 52, 96
1, 443173, Note_on_c, 0, 64, 94
1, 443174, Note_on_c, 0, 33, 86
1, 443175, Note_on_c, 0, 56, 89
1, 443186, Note_on_c, 0, 59, 77
1, 443213, Control_c, 0, 64, 116
1, 443220, Note_on_c, 0, 61, 51
1, 443228, Control_c, 0, 64, 79
1, 443243, Control_c, 0, 64, 62
1, 443258, Control_c, 0, 64, 11
1, 443265, Note_off_c, 0, 61, 45
1, 443272, Control_c, 0, 64, 0
1, 443348, Note_off_c, 0, 59, 62
1, 443390, Control_c, 0, 64, 22
1, 443405, Control_c, 0, 64, 40
1, 443420, Control_c, 0, 64, 49
1, 443436, Control_c, 0, 64, 55
1, 443451, Control_c, 0, 64, 60
1, 443466, Control_c, 0, 64, 64
1, 443481, Control_c, 0, 64, 70
1, 443495, Control_c, 0, 64, 80
1, 443503, Note_off_c, 0, 33, 58
1, 443510, Control_c, 0, 64, 101
1, 443525, Control_c, 0, 64, 127
1, 443546, Note_off_c, 0, 45, 51
1, 443551, Note_off_c, 0, 56, 56
1, 443803, Note_off_c, 0, 64, 42
1, 443910, Note_off_c, 0, 52, 29
1, 443992, Note_on_c, 0, 45, 85
1, 443995, Note_on_c, 0, 33, 80
1, 443995, Note_on_c, 0, 56, 89
1, 443995, Note_on_c, 0, 59, 94
1, 443996, Note_on_c, 0, 52, 92
1, 444066, Control_c, 0, 64, 83
1, 444081, Control_c, 0, 64, 65
1, 444095, Control_c, 0, 64, 38
1, 444110, Control_c, 0, 64, 0
1, 444184, Control_c, 0, 64, 31
1, 444199, Control_c, 0, 64, 44
1, 444213, Control_c, 0, 64, 54
1, 444228, Control_c, 0, 64, 59
1, 444244, Control_c, 0, 64, 63
1, 444259, Control_c, 0, 64, 66
1, 444274, Control_c, 0, 64, 72
1, 444289, Control_c, 0, 64, 82
1, 444304, Control_c, 0, 64, 104
1, 444318, Control_c, 0, 64, 127
1, 444416, Note_off_c, 0, 56, 55
1, 444466, Note_off_c, 0, 33, 33
1, 444580, Note_off_c, 0, 45, 26
1, 444737, Note_off_c, 0, 52, 54
1, 444954, Note_off_c, 0, 59, 0
1, 444965, Note_on_c, 0, 45, 88
1, 444965, Note_on_c, 0, 62, 96
1, 444966, Note_on_c, 0, 33, 81
1, 444966, Note_on_c, 0, 52, 96
1, 444970, Note_on_c, 0, 55, 82
1, 444976, Note_on_c, 0, 57, 73
1, 444991, Poly_aftertouch_c, 0, 59, 127
1, 445038, Control_c, 0, 64, 81
1, 445053, Control_c, 0, 64, 61
1, 445067, Control_c, 0, 64, 18
1, 445082, Control_c, 0, 64, 0
1, 445201, Control_c, 0, 64, 23
1, 445215, Control_c, 0, 64, 37
1, 445230, Control_c, 0, 64, 47
1, 445245, Control_c, 0, 64, 53
1, 445259, Control_c, 0, 64, 56
1, 445274, Control_c, 0, 64, 59
1, 445289, Control_c, 0, 64, 62
1, 445304, Control_c, 0, 64, 66
1, 445319, Control_c, 0, 64, 71
1, 445333, Control_c, 0, 64, 78
1, 445348, Control_c, 0, 64, 89
1, 445363, Control_c, 0, 64, 103
1, 445386, Control_c, 0, 64, 127
1, 445526, Poly_aftertouch_c, 0, 36, 127
1, 445588, Note_off_c, 0, 33, 51
1, 445626, Note_off_c, 0, 45, 47
1, 445706, Poly_aftertouch_c, 0, 36, 0
1, 445825, Note_off_c, 0, 57, 59
1, 445896, Note_off_c, 0, 55, 32
1, 445963, Note_off_c, 0, 62, 60
1, 445975, Poly_aftertouch_c, 0, 59, 0
1, 446054, Note_off_c, 0, 52, 29
1, 446103, Note_on_c, 0, 45, 95
1, 446105, Note_on_c, 0, 61, 95
1, 446106, Note_on_c, 0, 33, 84
1, 446107, Note_on_c, 0, 52, 82
1, 446114, Note_on_c, 0, 55, 78
1, 446120, Note_on_c, 0, 57, 73
1, 446164, Control_c, 0, 64, 82
1, 446179, Control_c, 0, 64, 61
1, 446194, Control_c, 0, 64, 0
1, 446386, Control_c, 0, 64, 27
1, 446401, Control_c, 0, 64, 46
1, 446416, Control_c, 0, 64, 56
1, 446430, Control_c, 0, 64, 61
1, 446445, Control_c, 0, 64, 65
1, 446460, Control_c, 0, 64, 69
1, 446475, Control_c, 0, 64, 78
1, 446489, Control_c, 0, 64, 98
1, 446504, Control_c, 0, 64, 127
1, 446512, Note_off_c, 0, 33, 41
1, 446580, Note_off_c, 0, 45, 51
1, 447371, Control_c, 0, 64, 95
1, 447385, Control_c, 0, 64, 69
1, 447400, Control_c, 0, 64, 46
1, 447415, Control_c, 0, 64, 26
1, 447431, Control_c, 0, 64, 52
1, 447435, Note_on_c, 0, 38, 90
1, 447436, Note_on_c, 0, 26, 83
1, 447446, Control_c, 0, 64, 67
1, 447461, Control_c, 0, 64, 127
1, 447479, Note_off_c, 0, 26, 63
1, 447488, Note_off_c, 0, 52, 64
1, 447489, Note_off_c, 0, 57, 63
1, 447491, Note_off_c, 0, 61, 58
1, 447494, Note_off_c, 0, 55, 62
1, 447500, Note_off_c, 0, 38, 63
1, 447594, Control_c, 0, 64, 95
1, 447608, Control_c, 0, 64, 78
1, 447631, Control_c, 0, 64, 67
1, 447646, Control_c, 0, 64, 58
1, 447660, Control_c, 0, 64, 54
1, 447675, Control_c, 0, 64, 51
1, 447690, Control_c, 0, 64, 48
1, 447705, Control_c, 0, 64, 43
1, 447720, Control_c, 0, 64, 35
1, 447734, Control_c, 0, 64, 24
1, 447749, Control_c, 0, 64, 14
1, 447764, Control_c, 0, 64, 11
1, 447779, Control_c, 0, 64, 0
1, 447864, Note_on_c, 0, 45, 48
1, 447879, Note_on_c, 0, 38, 36
1, 447919, Note_off_c, 0, 45, 59
1, 447922, Note_off_c, 0, 38, 55
1, 447933, Note_on_c, 0, 53, 49
1, 447936, Note_on_c, 0, 50, 44
1, 447938, Note_on_c, 0, 57, 43
1, 447970, Note_off_c, 0, 53, 61
1, 447977, Note_off_c, 0, 57, 59
1, 447980, Note_off_c, 0, 50, 59
1, 448030, Note_on_c, 0, 38, 30
1, 448064, Note_on_c, 0, 57, 42
1, 448079, Note_on_c, 0, 50, 4
1, 448088, Note_on_c, 0, 53, 10
1, 448099, Poly_aftertouch_c, 0, 45, 0
1, 448111, Note_off_c, 0, 57, 56
1, 448120, Control_c, 0, 64, 17
1, 448121, Note_off_c, 0, 38, 0
1, 448132, Note_on_c, 0, 46, 53
1, 448134, Control_c, 0, 64, 33
1, 448135, Note_on_c, 0, 38, 30
1, 448141, Note_off_c, 0, 53, 34
1, 448144, Note_off_c, 0, 50, 41
1, 448149, Control_c, 0, 64, 46
1, 448164, Control_c, 0, 64, 56
1, 448179, Control_c, 0, 64, 63
1, 448181, Note_off_c, 0, 46, 59
1, 448190, Note_off_c, 0, 38, 55
1, 448192, Note_on_c, 0, 57, 32
1, 448194, Control_c, 0, 64, 69
1, 448195, Note_on_c, 0, 53, 27
1, 448208, Control_c, 0, 64, 82
1, 448224, Control_c, 0, 64, 101
1, 448228, Poly_aftertouch_c, 0, 50, 127
1, 448238, Note_off_c, 0, 53, 48
1, 448239, Control_c, 0, 64, 127
1, 448252, Note_off_c, 0, 57, 54
1, 448254, Control_c, 0, 64, 119
1, 448269, Control_c, 0, 64, 105
1, 448273, Note_on_c, 0, 46, 56
1, 448273, Note_on_c, 0, 38, 35
1, 448283, Control_c, 0, 64, 95
1, 448293, Note_on_c, 0, 52, 43
1, 448296, Note_on_c, 0, 55, 44
1, 448298, Control_c, 0, 64, 86
1, 448308, Poly_aftertouch_c, 0, 50, 0
1, 448310, Note_off_c, 0, 46, 62
1, 448313, Control_c, 0, 64, 80
1, 448320, Note_off_c, 0, 52, 59
1, 448321, Note_off_c, 0, 38, 49
1, 448327, Note_off_c, 0, 55, 53
1, 448328, Control_c, 0, 64, 74
1, 448343, Control_c, 0, 64, 69
1, 448357, Control_c, 0, 64, 64
1, 448380, Control_c, 0, 64, 60
1, 448395, Control_c, 0, 64, 57
1, 448408, Note_on_c, 0, 46, 48
1, 448410, Control_c, 0, 64, 55
1, 448413, Note_on_c, 0, 38, 35
1, 448425, Control_c, 0, 64, 54
1, 448437, Note_on_c, 0, 52, 46
1, 448437, Note_on_c, 0, 55, 45
1, 448439, Control_c, 0, 64, 52
1, 448440, Note_off_c, 0, 46, 62
1, 448451, Note_on_c, 0, 62, 51
1, 448454, Control_c, 0, 64, 48
1, 448469, Control_c, 0, 64, 44
1, 448478, Note_off_c, 0, 38, 40
1, 448478, Note_off_c, 0, 55, 61
1, 448479, Note_off_c, 0, 52, 61
1, 448483, Control_c, 0, 64, 40
1, 448486, Note_off_c, 0, 62, 63
1, 448498, Control_c, 0, 64, 38
1, 448513, Control_c, 0, 64, 35
1, 448526, Note_on_c, 0, 38, 33
1, 448528, Control_c, 0, 64, 31
1, 448536, Note_on_c, 0, 46, 50
1, 448543, Control_c, 0, 64, 24
1, 448557, Control_c, 0, 64, 19
1, 448567, Note_off_c, 0, 46, 61
1, 448572, Control_c, 0, 64, 16
1, 448573, Note_on_c, 0, 62, 60
1, 448591, Note_on_c, 0, 52, 41
1, 448591, Note_on_c, 0, 55, 33
1, 448602, Control_c, 0, 64, 15
1, 448607, Note_off_c, 0, 38, 0
1, 448623, Note_off_c, 0, 62, 53
1, 448625, Note_off_c, 0, 52, 52
1, 448626, Note_off_c, 0, 55, 51
1, 448644, Poly_aftertouch_c, 0, 38, 127
1, 448661, Note_on_c, 0, 45, 45
1, 448661, Control_c, 0, 64, 16
1, 448672, Note_on_c, 0, 40, 39
1, 448675, Control_c, 0, 64, 25
1, 448690, Control_c, 0, 64, 40
1, 448705, Control_c, 0, 64, 54
1, 448709, Note_on_c, 0, 62, 33
1, 448715, Note_off_c, 0, 45, 50
1, 448718, Poly_aftertouch_c, 0, 38, 0
1, 448720, Control_c, 0, 64, 61
1, 448725, Note_off_c, 0, 40, 50
1, 448735, Note_on_c, 0, 52, 39
1, 448736, Control_c, 0, 64, 66
1, 448750, Control_c, 0, 64, 73
1, 448765, Control_c, 0, 64, 83
1, 448775, Note_on_c, 0, 45, 52
1, 448779, Note_on_c, 0, 40, 43
1, 448779, Poly_aftertouch_c, 0, 55, 127
1, 448780, Control_c, 0, 64, 89
1, 448784, Note_on_c, 0, 38, 37
1, 448792, Note_off_c, 0, 62, 51
1, 448795, Control_c, 0, 64, 91
1, 448810, Control_c, 0, 64, 90
1, 448818, Note_on_c, 0, 61, 61
1, 448819, Note_off_c, 0, 52, 32
1, 448823, Note_off_c, 0, 45, 62
1, 448825, Note_off_c, 0, 38, 60
1, 448825, Control_c, 0, 64, 87
1, 448833, Note_off_c, 0, 40, 60
1, 448839, Control_c, 0, 64, 85
1, 448854, Control_c, 0, 64, 82
1, 448860, Poly_aftertouch_c, 0, 55, 0
1, 448862, Note_off_c, 0, 61, 60
1, 448869, Control_c, 0, 64, 80
1, 448884, Control_c, 0, 64, 77
1, 448899, Control_c, 0, 64, 75
1, 448914, Control_c, 0, 64, 73
1, 448918, Note_on_c, 0, 45, 56
1, 448922, Note_on_c, 0, 40, 44
1, 448927, Note_on_c, 0, 38, 44
1, 448928, Control_c, 0, 64, 71
1, 448943, Control_c, 0, 64, 70
1, 448953, Note_off_c, 0, 45, 65
1, 448958, Control_c, 0, 64, 67
1, 448958, Note_on_c, 0, 67, 67
1, 448959, Note_off_c, 0, 38, 57
1, 448964, Note_off_c, 0, 40, 61
1, 448970, Note_on_c, 0, 58, 59
1, 448973, Control_c, 0, 64, 65
1, 448988, Control_c, 0, 64, 64
1, 448992, Note_off_c, 0, 58, 61
1, 449002, Control_c, 0, 64, 63
1, 449006, Note_off_c, 0, 67, 52
1, 449017, Control_c, 0, 64, 62
1, 449033, Control_c, 0, 64, 61
1, 449039, Note_on_c, 0, 45, 61
1, 449048, Control_c, 0, 64, 60
1, 449055, Note_on_c, 0, 38, 39
1, 449057, Note_on_c, 0, 40, 40
1, 449063, Control_c, 0, 64, 59
1, 449075, Note_on_c, 0, 65, 72
1, 449077, Control_c, 0, 64, 58
1, 449080, Note_off_c, 0, 45, 62
1, 449084, Note_on_c, 0, 57, 63
1, 449089, Note_off_c, 0, 38, 56
1, 449092, Control_c, 0, 64, 57
1, 449103, Note_off_c, 0, 40, 56
1, 449107, Control_c, 0, 64, 56
1, 449129, Control_c, 0, 64, 54
1, 449131, Note_off_c, 0, 57, 65
1, 449141, Note_off_c, 0, 65, 63
1, 449144, Control_c, 0, 64, 52
1, 449159, Control_c, 0, 64, 50
1, 449174, Control_c, 0, 64, 47
1, 449176, Note_on_c, 0, 45, 58
1, 449176, Note_on_c, 0, 49, 54
1, 449187, Note_on_c, 0, 40, 38
1, 449188, Control_c, 0, 64, 45
1, 449203, Control_c, 0, 64, 43
1, 449206, Note_on_c, 0, 38, 29
1, 449218, Note_on_c, 0, 65, 68
1, 449218, Note_off_c, 0, 49, 63
1, 449218, Control_c, 0, 64, 43
1, 449224, Note_off_c, 0, 45, 60
1, 449238, Note_on_c, 0, 55, 63
1, 449241, Note_on_c, 0, 64, 69
1, 449245, Note_off_c, 0, 40, 54
1, 449247, Note_off_c, 0, 38, 42
1, 449248, Control_c, 0, 64, 45
1, 449262, Control_c, 0, 64, 51
1, 449268, Note_off_c, 0, 65, 61
1, 449276, Note_off_c, 0, 55, 62
1, 449277, Control_c, 0, 64, 55
1, 449292, Control_c, 0, 64, 57
1, 449299, Note_off_c, 0, 64, 62
1, 449304, Note_on_c, 0, 49, 59
1, 449307, Control_c, 0, 64, 58
1, 449307, Note_on_c, 0, 40, 41
1, 449312, Note_on_c, 0, 45, 51
1, 449322, Control_c, 0, 64, 59
1, 449325, Note_on_c, 0, 38, 39
1, 449337, Control_c, 0, 64, 59
1, 449348, Note_off_c, 0, 49, 60
1, 449356, Note_off_c, 0, 45, 62
1, 449361, Note_on_c, 0, 62, 68
1, 449362, Note_off_c, 0, 38, 55
1, 449370, Note_on_c, 0, 53, 64
1, 449378, Note_off_c, 0, 40, 53
1, 449396, Control_c, 0, 64, 59
1, 449402, Note_off_c, 0, 53, 64
1, 449414, Note_off_c, 0, 62, 60
1, 449442, Note_on_c, 0, 40, 26
1, 449444, Note_on_c, 0, 49, 43
1, 449452, Note_on_c, 0, 38, 36
1, 449460, Note_on_c, 0, 45, 35
1, 449480, Note_off_c, 0, 49, 60
1, 449485, Control_c, 0, 64, 58
1, 449493, Note_off_c, 0, 38, 49
1, 449493, Note_off_c, 0, 45, 55
1, 449494, Note_on_c, 0, 64, 69
1, 449498, Note_on_c, 0, 55, 65
1, 449511, Note_off_c, 0, 40, 41
1, 449514, Control_c, 0, 64, 58
1, 449534, Note_off_c, 0, 55, 65
1, 449539, Note_off_c, 0, 64, 60
1, 449555, Note_on_c, 0, 49, 55
1, 449559, Control_c, 0, 64, 57
1, 449575, Note_on_c, 0, 38, 27
1, 449588, Control_c, 0, 64, 57
1, 449601, Note_off_c, 0, 49, 57
1, 449603, Control_c, 0, 64, 55
1, 449617, Note_on_c, 0, 65, 72
1, 449618, Control_c, 0, 64, 52
1, 449619, Note_off_c, 0, 38, 45
1, 449623, Note_on_c, 0, 55, 66
1, 449632, Control_c, 0, 64, 46
1, 449647, Control_c, 0, 64, 39
1, 449658, Note_off_c, 0, 55, 64
1, 449662, Note_off_c, 0, 65, 54
1, 449662, Control_c, 0, 64, 31
1, 449677, Control_c, 0, 64, 27
1, 449692, Control_c, 0, 64, 27
1, 449699, Note_on_c, 0, 50, 43
1, 449706, Control_c, 0, 64, 29
1, 449721, Control_c, 0, 64, 40
1, 449736, Control_c, 0, 64, 53
1, 449742, Note_off_c, 0, 50, 61
1, 449751, Control_c, 0, 64, 61
1, 449759, Note_on_c, 0, 62, 63
1, 449761, Note_on_c, 0, 53, 61
1, 449766, Control_c, 0, 64, 66
1, 449781, Control_c, 0, 64, 74
1, 449794, Note_off_c, 0, 53, 64
1, 449796, Control_c, 0, 64, 95
1, 449811, Control_c, 0, 64, 127
1, 449818, Note_off_c, 0, 62, 51
1, 449826, Note_on_c, 0, 50, 47
1, 449858, Note_off_c, 0, 50, 51
1, 449891, Note_on_c, 0, 65, 63
1, 449893, Control_c, 0, 64, 117
1, 449908, Control_c, 0, 64, 108
1, 449923, Control_c, 0, 64, 100
1, 449924, Note_off_c, 0, 65, 65
1, 449937, Control_c, 0, 64, 93
1, 449939, Poly_aftertouch_c, 0, 57, 127
1, 449952, Control_c, 0, 64, 86
1, 449967, Control_c, 0, 64, 80
1, 449972, Poly_aftertouch_c, 0, 57, 0
1, 449982, Control_c, 0, 64, 74
1, 449987, Note_on_c, 0, 50, 38
1, 449996, Note_on_c, 0, 53, 44
1, 449997, Control_c, 0, 64, 70
1, 450011, Control_c, 0, 64, 66
1, 450021, Note_off_c, 0, 50, 52
1, 450026, Control_c, 0, 64, 63
1, 450037, Note_off_c, 0, 53, 45
1, 450041, Control_c, 0, 64, 60
1, 450051, Note_on_c, 0, 69, 56
1, 450055, Control_c, 0, 64, 57
1, 450056, Note_on_c, 0, 62, 45
1, 450070, Control_c, 0, 64, 56
1, 450073, Note_on_c, 0, 65, 7
1, 450085, Control_c, 0, 64, 53
1, 450088, Note_off_c, 0, 69, 62
1, 450093, Note_on_c, 0, 53, 41
1, 450095, Note_off_c, 0, 62, 58
1, 450100, Control_c, 0, 64, 49
1, 450115, Note_on_c, 0, 50, 36
1, 450115, Control_c, 0, 64, 42
1, 450129, Note_off_c, 0, 53, 64
1, 450130, Control_c, 0, 64, 34
1, 450145, Control_c, 0, 64, 28
1, 450148, Note_off_c, 0, 50, 52
1, 450152, Note_off_c, 0, 65, 0
1, 450160, Control_c, 0, 64, 25
1, 450168, Note_on_c, 0, 69, 57
1, 450174, Control_c, 0, 64, 23
1, 450175, Note_on_c, 0, 65, 10
1, 450181, Note_on_c, 0, 62, 31
1, 450189, Control_c, 0, 64, 23
1, 450204, Control_c, 0, 64, 22
1, 450206, Note_off_c, 0, 69, 61
1, 450219, Note_off_c, 0, 62, 51
1, 450226, Note_off_c, 0, 65, 42
1, 450234, Control_c, 0, 64, 23
1, 450237, Note_on_c, 0, 58, 59
1, 450241, Note_on_c, 0, 50, 39
1, 450248, Control_c, 0, 64, 28
1, 450263, Control_c, 0, 64, 39
1, 450278, Control_c, 0, 64, 50
1, 450284, Note_off_c, 0, 50, 60
1, 450290, Note_off_c, 0, 58, 60
1, 450293, Control_c, 0, 64, 59
1, 450308, Control_c, 0, 64, 64
1, 450314, Note_on_c, 0, 69, 51
1, 450322, Control_c, 0, 64, 69
1, 450327, Note_on_c, 0, 65, 34
1, 450337, Control_c, 0, 64, 79
1, 450339, Note_on_c, 0, 62, 28
1, 450352, Control_c, 0, 64, 97
1, 450360, Note_off_c, 0, 65, 49
1, 450362, Note_off_c, 0, 69, 56
1, 450367, Control_c, 0, 64, 105
1, 450372, Note_on_c, 0, 58, 59
1, 450377, Note_on_c, 0, 50, 50
1, 450382, Control_c, 0, 64, 102
1, 450384, Note_off_c, 0, 62, 47
1, 450396, Control_c, 0, 64, 97
1, 450411, Control_c, 0, 64, 92
1, 450416, Note_off_c, 0, 50, 62
1, 450416, Note_off_c, 0, 58, 60
1, 450419, Note_on_c, 0, 64, 45
1, 450426, Control_c, 0, 64, 87
1, 450432, Note_on_c, 0, 67, 37
1, 450441, Control_c, 0, 64, 84
1, 450444, Note_off_c, 0, 64, 58
1, 450455, Control_c, 0, 64, 81
1, 450463, Note_off_c, 0, 67, 49
1, 450470, Control_c, 0, 64, 78
1, 450485, Control_c, 0, 64, 76
1, 450500, Control_c, 0, 64, 73
1, 450508, Note_on_c, 0, 58, 66
1, 450514, Note_on_c, 0, 50, 56
1, 450515, Control_c, 0, 64, 71
1, 450529, Control_c, 0, 64, 69
1, 450543, Note_on_c, 0, 64, 59
1, 450543, Note_on_c, 0, 74, 77
1, 450544, Note_off_c, 0, 58, 62
1, 450544, Control_c, 0, 64, 67
1, 450550, Note_on_c, 0, 67, 58
1, 450553, Note_off_c, 0, 50, 63
1, 450559, Control_c, 0, 64, 66
1, 450574, Control_c, 0, 64, 65
1, 450579, Note_off_c, 0, 64, 62
1, 450581, Note_off_c, 0, 67, 63
1, 450583, Note_off_c, 0, 74, 54
1, 450589, Control_c, 0, 64, 64
1, 450604, Control_c, 0, 64, 63
1, 450627, Control_c, 0, 64, 63
1, 450638, Note_on_c, 0, 58, 70
1, 450642, Control_c, 0, 64, 62
1, 450649, Note_on_c, 0, 50, 58
1, 450657, Control_c, 0, 64, 60
1, 450672, Control_c, 0, 64, 58
1, 450682, Note_on_c, 0, 74, 83
1, 450683, Note_off_c, 0, 58, 58
1, 450684, Note_on_c, 0, 64, 66
1, 450686, Control_c, 0, 64, 53
1, 450687, Note_off_c, 0, 50, 61
1, 450700, Note_on_c, 0, 67, 43
1, 450701, Control_c, 0, 64, 44
1, 450716, Control_c, 0, 64, 31
1, 450718, Note_off_c, 0, 64, 63
1, 450728, Note_off_c, 0, 67, 54
1, 450731, Control_c, 0, 64, 23
1, 450740, Note_off_c, 0, 74, 61
1, 450746, Control_c, 0, 64, 22
1, 450762, Note_on_c, 0, 57, 71
1, 450765, Note_on_c, 0, 50, 64
1, 450769, Note_on_c, 0, 52, 59
1, 450775, Control_c, 0, 64, 27
1, 450790, Control_c, 0, 64, 42
1, 450805, Control_c, 0, 64, 55
1, 450806, Note_off_c, 0, 50, 64
1, 450809, Note_off_c, 0, 52, 64
1, 450810, Note_off_c, 0, 57, 62
1, 450818, Note_on_c, 0, 64, 67
1, 450820, Control_c, 0, 64, 63
1, 450821, Note_on_c, 0, 74, 75
1, 450831, Note_on_c, 0, 67, 44
1, 450834, Control_c, 0, 64, 67
1, 450849, Control_c, 0, 64, 72
1, 450850, Note_off_c, 0, 64, 63
1, 450860, Note_off_c, 0, 67, 62
1, 450864, Control_c, 0, 64, 76
1, 450878, Control_c, 0, 64, 78
1, 450886, Note_off_c, 0, 74, 61
1, 450889, Note_on_c, 0, 57, 71
1, 450893, Control_c, 0, 64, 77
1, 450905, Note_on_c, 0, 50, 58
1, 450908, Control_c, 0, 64, 76
1, 450910, Note_on_c, 0, 52, 58
1, 450923, Control_c, 0, 64, 75
1, 450929, Note_off_c, 0, 57, 65
1, 450935, Note_on_c, 0, 73, 78
1, 450938, Note_off_c, 0, 50, 64
1, 450938, Control_c, 0, 64, 74
1, 450941, Note_on_c, 0, 67, 64
1, 450944, Note_off_c, 0, 52, 65
1, 450952, Control_c, 0, 64, 73
1, 450964, Note_off_c, 0, 67, 62
1, 450967, Control_c, 0, 64, 72
1, 450982, Control_c, 0, 64, 70
1, 450985, Note_off_c, 0, 73, 64
1, 450997, Control_c, 0, 64, 69
1, 451012, Control_c, 0, 64, 67
1, 451015, Note_on_c, 0, 57, 64
1, 451015, Note_on_c, 0, 50, 59
1, 451020, Note_on_c, 0, 52, 62
1, 451026, Control_c, 0, 64, 66
1, 451041, Control_c, 0, 64, 66
1, 451056, Control_c, 0, 64, 65
1, 451057, Note_on_c, 0, 79, 87
1, 451059, Note_off_c, 0, 57, 60
1, 451060, Note_off_c, 0, 52, 60
1, 451063, Note_off_c, 0, 50, 62
1, 451069, Note_on_c, 0, 70, 78
1, 451070, Control_c, 0, 64, 65
1, 451085, Control_c, 0, 64, 64
1, 451091, Note_off_c, 0, 70, 71
1, 451100, Control_c, 0, 64, 63
1, 451115, Control_c, 0, 64, 62
1, 451119, Note_off_c, 0, 79, 64
1, 451130, Control_c, 0, 64, 61
1, 451138, Note_on_c, 0, 57, 62
1, 451144, Control_c, 0, 64, 61
1, 451151, Note_on_c, 0, 52, 54
1, 451155, Note_on_c, 0, 50, 46
1, 451159, Control_c, 0, 64, 60
1, 451174, Control_c, 0, 64, 60
1, 451188, Note_on_c, 0, 77, 90
1, 451189, Control_c, 0, 64, 59
1, 451191, Note_off_c, 0, 50, 62
1, 451197, Note_on_c, 0, 69, 79
1, 451200, Note_off_c, 0, 52, 60
1, 451202, Note_off_c, 0, 57, 62
1, 451204, Control_c, 0, 64, 59
1, 451218, Control_c, 0, 64, 58
1, 451235, Note_off_c, 0, 69, 58
1, 451248, Note_off_c, 0, 77, 63
1, 451248, Control_c, 0, 64, 58
1, 451262, Note_on_c, 0, 57, 57
1, 451263, Control_c, 0, 64, 57
1, 451273, Note_on_c, 0, 52, 52
1, 451280, Note_on_c, 0, 61, 61
1, 451286, Note_on_c, 0, 50, 54
1, 451292, Control_c, 0, 64, 57
1, 451307, Control_c, 0, 64, 56
1, 451316, Note_off_c, 0, 50, 64
1, 451317, Note_off_c, 0, 61, 61
1, 451322, Note_on_c, 0, 77, 88
1, 451333, Note_off_c, 0, 57, 64
1, 451334, Note_off_c, 0, 52, 60
1, 451337, Note_on_c, 0, 76, 83
1, 451337, Control_c, 0, 64, 56
1, 451340, Note_on_c, 0, 67, 71
1, 451379, Note_off_c, 0, 67, 64
1, 451384, Note_off_c, 0, 77, 63
1, 451406, Note_on_c, 0, 52, 52
1, 451408, Note_on_c, 0, 57, 56
1, 451410, Note_off_c, 0, 76, 64
1, 451412, Note_on_c, 0, 50, 60
1, 451414, Note_on_c, 0, 61, 65
1, 451435, Control_c, 0, 64, 57
1, 451449, Control_c, 0, 64, 57
1, 451450, Note_off_c, 0, 61, 62
1, 451452, Note_off_c, 0, 50, 62
1, 451462, Note_on_c, 0, 74, 87
1, 451464, Control_c, 0, 64, 58
1, 451468, Note_off_c, 0, 57, 63
1, 451477, Note_off_c, 0, 52, 61
1, 451479, Control_c, 0, 64, 58
1, 451483, Note_on_c, 0, 65, 64
1, 451494, Control_c, 0, 64, 59
1, 451508, Control_c, 0, 64, 60
1, 451512, Note_off_c, 0, 65, 65
1, 451523, Control_c, 0, 64, 61
1, 451531, Note_off_c, 0, 74, 62
1, 451533, Note_on_c, 0, 52, 47
1, 451538, Control_c, 0, 64, 61
1, 451543, Note_on_c, 0, 57, 55
1, 451543, Note_on_c, 0, 50, 58
1, 451545, Note_on_c, 0, 61, 65
1, 451577, Note_off_c, 0, 61, 64
1, 451578, Note_off_c, 0, 50, 62
1, 451589, Note_off_c, 0, 57, 64
1, 451594, Note_off_c, 0, 52, 63
1, 451596, Note_on_c, 0, 76, 92
1, 451597, Control_c, 0, 64, 62
1, 451609, Note_on_c, 0, 67, 73
1, 451635, Note_off_c, 0, 67, 68
1, 451653, Note_off_c, 0, 76, 65
1, 451656, Control_c, 0, 64, 61
1, 451669, Note_on_c, 0, 61, 67
1, 451671, Note_on_c, 0, 50, 58
1, 451681, Note_on_c, 0, 53, 52
1, 451686, Control_c, 0, 64, 61
1, 451697, Note_on_c, 0, 57, 37
1, 451708, Note_off_c, 0, 61, 57
1, 451715, Note_off_c, 0, 50, 59
1, 451722, Note_on_c, 0, 77, 96
1, 451727, Note_off_c, 0, 53, 58
1, 451727, Note_off_c, 0, 57, 56
1, 451736, Note_on_c, 0, 67, 67
1, 451742, Note_on_c, 0, 69, 57
1, 451745, Control_c, 0, 64, 60
1, 451760, Control_c, 0, 64, 60
1, 451766, Note_off_c, 0, 67, 66
1, 451769, Note_off_c, 0, 69, 64
1, 451775, Note_off_c, 0, 77, 62
1, 451775, Control_c, 0, 64, 56
1, 451790, Control_c, 0, 64, 50
1, 451805, Control_c, 0, 64, 41
1, 451806, Note_on_c, 0, 53, 34
1, 451808, Note_on_c, 0, 62, 50
1, 451820, Control_c, 0, 64, 38
1, 451820, Note_on_c, 0, 57, 49
1, 451835, Control_c, 0, 64, 43
1, 451835, Note_off_c, 0, 53, 56
1, 451848, Note_off_c, 0, 62, 61
1, 451849, Control_c, 0, 64, 54
1, 451851, Note_off_c, 0, 57, 64
1, 451857, Note_on_c, 0, 74, 83
1, 451864, Control_c, 0, 64, 61
1, 451868, Note_on_c, 0, 65, 73
1, 451879, Control_c, 0, 64, 65
1, 451893, Control_c, 0, 64, 71
1, 451895, Note_off_c, 0, 65, 66
1, 451906, Note_off_c, 0, 74, 62
1, 451908, Control_c, 0, 64, 79
1, 451923, Control_c, 0, 64, 91
1, 451937, Note_on_c, 0, 57, 61
1, 451938, Control_c, 0, 64, 95
1, 451942, Note_on_c, 0, 62, 56
1, 451953, Control_c, 0, 64, 94
1, 451967, Control_c, 0, 64, 91
1, 451975, Note_off_c, 0, 57, 62
1, 451980, Note_off_c, 0, 62, 61
1, 451982, Control_c, 0, 64, 87
1, 451997, Control_c, 0, 64, 85
1, 452012, Note_on_c, 0, 69, 62
1, 452012, Control_c, 0, 64, 82
1, 452018, Note_on_c, 0, 65, 55
1, 452027, Control_c, 0, 64, 78
1, 452041, Control_c, 0, 64, 75
1, 452045, Note_off_c, 0, 69, 65
1, 452052, Note_off_c, 0, 65, 60
1, 452056, Control_c, 0, 64, 72
1, 452071, Control_c, 0, 64, 70
1, 452079, Note_on_c, 0, 62, 50
1, 452079, Note_on_c, 0, 57, 45
1, 452086, Control_c, 0, 64, 68
1, 452100, Control_c, 0, 64, 67
1, 452121, Note_off_c, 0, 57, 61
1, 452123, Control_c, 0, 64, 65
1, 452126, Note_off_c, 0, 62, 60
1, 452138, Note_on_c, 0, 69, 65
1, 452138, Control_c, 0, 64, 64
1, 452153, Control_c, 0, 64, 62
1, 452154, Note_on_c, 0, 65, 47
1, 452168, Control_c, 0, 64, 60
1, 452169, Note_off_c, 0, 69, 62
1, 452182, Control_c, 0, 64, 58
1, 452184, Note_off_c, 0, 65, 61
1, 452197, Control_c, 0, 64, 57
1, 452212, Control_c, 0, 64, 53
1, 452216, Note_on_c, 0, 57, 54
1, 452223, Note_on_c, 0, 62, 51
1, 452228, Control_c, 0, 64, 46
1, 452239, Note_off_c, 0, 57, 62
1, 452243, Control_c, 0, 64, 35
1, 452250, Note_off_c, 0, 62, 62
1, 452258, Control_c, 0, 64, 26
1, 452260, Note_on_c, 0, 69, 64
1, 452272, Control_c, 0, 64, 23
1, 452276, Note_on_c, 0, 65, 43
1, 452287, Control_c, 0, 64, 22
1, 452291, Note_off_c, 0, 69, 65
1, 452302, Note_off_c, 0, 65, 56
1, 452331, Note_on_c, 0, 62, 63
1, 452339, Note_on_c, 0, 58, 69
1, 452346, Control_c, 0, 64, 26
1, 452361, Control_c, 0, 64, 38
1, 452376, Control_c, 0, 64, 52
1, 452380, Note_on_c, 0, 69, 69
1, 452382, Note_off_c, 0, 58, 60
1, 452389, Note_off_c, 0, 62, 60
1, 452391, Control_c, 0, 64, 61
1, 452397, Note_on_c, 0, 65, 43
1, 452405, Control_c, 0, 64, 64
1, 452420, Control_c, 0, 64, 69
1, 452435, Control_c, 0, 64, 76
1, 452442, Note_off_c, 0, 65, 58
1, 452450, Control_c, 0, 64, 86
1, 452465, Control_c, 0, 64, 95
1, 452476, Note_on_c, 0, 58, 62
1, 452480, Control_c, 0, 64, 95
1, 452481, Note_on_c, 0, 62, 59
1, 452495, Control_c, 0, 64, 92
1, 452509, Note_off_c, 0, 69, 56
1, 452510, Note_off_c, 0, 58, 66
1, 452510, Control_c, 0, 64, 88
1, 452520, Note_on_c, 0, 68, 58
1, 452524, Control_c, 0, 64, 85
1, 452526, Note_off_c, 0, 62, 55
1, 452539, Control_c, 0, 64, 82
1, 452554, Control_c, 0, 64, 79
1, 452556, Note_off_c, 0, 68, 64
1, 452569, Control_c, 0, 64, 76
1, 452584, Control_c, 0, 64, 73
1, 452598, Control_c, 0, 64, 70
1, 452604, Note_on_c, 0, 57, 57
1, 452611, Note_on_c, 0, 62, 45
1, 452613, Control_c, 0, 64, 68
1, 452628, Control_c, 0, 64, 67
1, 452645, Note_off_c, 0, 57, 61
1, 452649, Note_on_c, 0, 69, 74
1, 452650, Note_off_c, 0, 62, 62
1, 452658, Control_c, 0, 64, 66
1, 452661, Note_on_c, 0, 65, 44
1, 452672, Control_c, 0, 64, 65
1, 452685, Note_off_c, 0, 69, 59
1, 452687, Control_c, 0, 64, 65
1, 452695, Note_off_c, 0, 65, 64
1, 452702, Control_c, 0, 64, 64
1, 452717, Control_c, 0, 64, 64
1, 452729, Note_on_c, 0, 57, 71
1, 452732, Control_c, 0, 64, 63
1, 452735, Note_on_c, 0, 62, 68
1, 452747, Control_c, 0, 64, 60
1, 452762, Control_c, 0, 64, 55
1, 452772, Note_off_c, 0, 57, 63
1, 452777, Control_c, 0, 64, 50
1, 452777, Note_on_c, 0, 69, 88
1, 452778, Note_off_c, 0, 62, 60
1, 452786, Note_on_c, 0, 65, 61
1, 452791, Control_c, 0, 64, 44
1, 452806, Control_c, 0, 64, 35
1, 452813, Note_off_c, 0, 65, 65
1, 452821, Control_c, 0, 64, 24
1, 452821, Note_off_c, 0, 69, 64
1, 452836, Control_c, 0, 64, 15
1, 452850, Control_c, 0, 64, 14
1, 452857, Note_on_c, 0, 58, 75
1, 452859, Note_on_c, 0, 62, 75
1, 452887, Control_c, 0, 64, 20
1, 452902, Control_c, 0, 64, 38
1, 452914, Note_on_c, 0, 69, 96
1, 452917, Control_c, 0, 64, 55
1, 452922, Note_off_c, 0, 62, 64
1, 452924, Note_on_c, 0, 65, 68
1, 452927, Note_off_c, 0, 58, 60
1, 452932, Control_c, 0, 64, 64
1, 452947, Control_c, 0, 64, 69
1, 452959, Note_off_c, 0, 65, 61
1, 452962, Control_c, 0, 64, 81
1, 452977, Control_c, 0, 64, 95
1, 452992, Control_c, 0, 64, 105
1, 453006, Control_c, 0, 64, 103
1, 453009, Note_on_c, 0, 58, 58
1, 453009, Note_on_c, 0, 62, 75
1, 453022, Control_c, 0, 64, 97
1, 453037, Control_c, 0, 64, 91
1, 453044, Note_off_c, 0, 58, 65
1, 453048, Note_off_c, 0, 62, 57
1, 453051, Note_on_c, 0, 68, 82
1, 453052, Control_c, 0, 64, 85
1, 453056, Note_off_c, 0, 69, 60
1, 453067, Control_c, 0, 64, 82
1, 453076, Note_on_c, 0, 65, 47
1, 453082, Control_c, 0, 64, 79
1, 453096, Note_off_c, 0, 65, 61
1, 453096, Control_c, 0, 64, 78
1, 453102, Note_off_c, 0, 68, 62
1, 453111, Control_c, 0, 64, 75
1, 453126, Control_c, 0, 64, 73
1, 453129, Note_on_c, 0, 57, 74
1, 453131, Note_on_c, 0, 62, 76
1, 453141, Control_c, 0, 64, 70
1, 453155, Control_c, 0, 64, 67
1, 453170, Note_off_c, 0, 57, 64
1, 453170, Control_c, 0, 64, 66
1, 453173, Note_on_c, 0, 74, 94
1, 453174, Note_off_c, 0, 62, 63
1, 453176, Note_on_c, 0, 65, 74
1, 453185, Control_c, 0, 64, 65
1, 453200, Note_on_c, 0, 69, 50
1, 453200, Control_c, 0, 64, 64
1, 453203, Note_off_c, 0, 65, 68
1, 453215, Control_c, 0, 64, 64
1, 453220, Note_off_c, 0, 69, 39
1, 453220, Note_off_c, 0, 74, 63
1, 453230, Control_c, 0, 64, 63
1, 453245, Control_c, 0, 64, 62
1, 453254, Note_on_c, 0, 57, 82
1, 453254, Note_on_c, 0, 62, 82
1, 453275, Control_c, 0, 64, 61
1, 453295, Note_on_c, 0, 74, 95
1, 453297, Note_off_c, 0, 57, 63
1, 453299, Note_off_c, 0, 62, 64
1, 453304, Note_on_c, 0, 65, 81
1, 453304, Control_c, 0, 64, 60
1, 453304, Note_on_c, 0, 69, 67
1, 453319, Control_c, 0, 64, 59
1, 453326, Note_off_c, 0, 65, 69
1, 453330, Note_off_c, 0, 69, 67
1, 453334, Control_c, 0, 64, 57
1, 453348, Control_c, 0, 64, 51
1, 453351, Note_off_c, 0, 74, 63
1, 453363, Control_c, 0, 64, 41
1, 453378, Control_c, 0, 64, 21
1, 453382, Note_on_c, 0, 62, 88
1, 453384, Note_on_c, 0, 58, 81
1, 453393, Control_c, 0, 64, 0
1, 453427, Note_off_c, 0, 62, 66
1, 453433, Note_on_c, 0, 74, 88
1, 453436, Note_off_c, 0, 58, 63
1, 453437, Control_c, 0, 64, 26
1, 453442, Note_on_c, 0, 65, 77
1, 453442, Note_on_c, 0, 69, 67
1, 453444, Note_on_c, 0, 72, 79
1, 453452, Control_c, 0, 64, 50
1, 453466, Note_off_c, 0, 65, 66
1, 453466, Control_c, 0, 64, 62
1, 453474, Note_off_c, 0, 69, 63
1, 453481, Control_c, 0, 64, 66
1, 453493, Note_off_c, 0, 72, 0
1, 453493, Note_on_c, 0, 72, 26
1, 453496, Control_c, 0, 64, 73
1, 453511, Control_c, 0, 64, 84
1, 453519, Note_on_c, 0, 62, 80
1, 453526, Note_on_c, 0, 58, 70
1, 453526, Control_c, 0, 64, 93
1, 453531, Note_off_c, 0, 72, 48
1, 453541, Control_c, 0, 64, 99
1, 453559, Note_off_c, 0, 74, 51
1, 453568, Note_off_c, 0, 58, 62
1, 453570, Note_on_c, 0, 68, 80
1, 453570, Control_c, 0, 64, 98
1, 453575, Note_off_c, 0, 62, 61
1, 453579, Note_on_c, 0, 65, 68
1, 453585, Control_c, 0, 64, 97
1, 453600, Control_c, 0, 64, 95
1, 453606, Note_off_c, 0, 65, 67
1, 453615, Control_c, 0, 64, 93
1, 453630, Note_off_c, 0, 68, 61
1, 453637, Control_c, 0, 64, 91
1, 453652, Control_c, 0, 64, 90
1, 453659, Note_on_c, 0, 62, 78
1, 453659, Note_on_c, 0, 57, 78
1, 453667, Control_c, 0, 64, 89
1, 453681, Control_c, 0, 64, 87
1, 453696, Control_c, 0, 64, 86
1, 453701, Note_off_c, 0, 57, 62
1, 453706, Note_off_c, 0, 62, 62
1, 453711, Control_c, 0, 64, 84
1, 453713, Note_on_c, 0, 74, 90
1, 453721, Note_on_c, 0, 65, 76
1, 453726, Control_c, 0, 64, 82
1, 453727, Note_on_c, 0, 69, 71
1, 453741, Control_c, 0, 64, 80
1, 453745, Note_off_c, 0, 65, 69
1, 453750, Note_off_c, 0, 69, 64
1, 453755, Control_c, 0, 64, 79
1, 453762, Note_off_c, 0, 74, 63
1, 453770, Control_c, 0, 64, 77
1, 453785, Control_c, 0, 64, 75
1, 453788, Note_on_c, 0, 57, 76
1, 453789, Note_on_c, 0, 62, 73
1, 453800, Control_c, 0, 64, 74
1, 453832, Note_off_c, 0, 57, 61
1, 453834, Note_off_c, 0, 62, 58
1, 453844, Note_on_c, 0, 74, 91
1, 453845, Note_on_c, 0, 69, 57
1, 453850, Note_on_c, 0, 65, 77
1, 453860, Control_c, 0, 64, 73
1, 453875, Control_c, 0, 64, 72
1, 453877, Note_off_c, 0, 65, 65
1, 453880, Note_off_c, 0, 69, 66
1, 453890, Control_c, 0, 64, 66
1, 453904, Note_off_c, 0, 74, 61
1, 453904, Control_c, 0, 64, 54
1, 453919, Control_c, 0, 64, 0
1, 453936, Note_on_c, 0, 58, 75
1, 453936, Note_on_c, 0, 62, 73
1, 453978, Control_c, 0, 64, 41
1, 453985, Note_off_c, 0, 62, 60
1, 453993, Control_c, 0, 64, 55
1, 453996, Note_on_c, 0, 74, 84
1, 453996, Note_off_c, 0, 58, 61
1, 454005, Note_on_c, 0, 65, 63
1, 454007, Note_on_c, 0, 69, 61
1, 454008, Control_c, 0, 64, 62
1, 454023, Control_c, 0, 64, 65
1, 454037, Note_off_c, 0, 69, 66
1, 454038, Note_off_c, 0, 65, 64
1, 454038, Control_c, 0, 64, 69
1, 454053, Control_c, 0, 64, 74
1, 454067, Control_c, 0, 64, 78
1, 454073, Note_on_c, 0, 58, 58
1, 454078, Note_off_c, 0, 74, 60
1, 454082, Control_c, 0, 64, 80
1, 454086, Note_on_c, 0, 62, 61
1, 454105, Note_off_c, 0, 58, 67
1, 454106, Note_off_c, 0, 62, 65
1, 454112, Control_c, 0, 64, 79
1, 454127, Control_c, 0, 64, 78
1, 454157, Control_c, 0, 64, 78
1, 454169, Note_on_c, 0, 68, 64
1, 454171, Control_c, 0, 64, 77
1, 454174, Note_on_c, 0, 65, 57
1, 454200, Note_off_c, 0, 65, 61
1, 454201, Control_c, 0, 64, 76
1, 454203, Note_off_c, 0, 68, 63
1, 454216, Control_c, 0, 64, 75
1, 454231, Control_c, 0, 64, 72
1, 454245, Control_c, 0, 64, 67
1, 454260, Control_c, 0, 64, 60
1, 454268, Note_on_c, 0, 62, 20
1, 454275, Control_c, 0, 64, 50
1, 454289, Note_on_c, 0, 58, 40
1, 454290, Control_c, 0, 64, 48
1, 454304, Control_c, 0, 64, 49
1, 454319, Control_c, 0, 64, 53
1, 454326, Note_off_c, 0, 58, 55
1, 454333, Note_off_c, 0, 62, 55
1, 454334, Control_c, 0, 64, 57
1, 454349, Control_c, 0, 64, 62
1, 454353, Note_on_c, 0, 77, 57
1, 454371, Control_c, 0, 64, 64
1, 454379, Note_on_c, 0, 65, 5
1, 454386, Control_c, 0, 64, 66
1, 454401, Control_c, 0, 64, 69
1, 454401, Note_off_c, 0, 77, 56
1, 454416, Control_c, 0, 64, 73
1, 454431, Control_c, 0, 64, 76
1, 454439, Note_off_c, 0, 65, 31
1, 454440, Note_on_c, 0, 62, 30
1, 454444, Note_on_c, 0, 58, 46
1, 454446, Control_c, 0, 64, 79
1, 454460, Control_c, 0, 64, 80
1, 454476, Note_off_c, 0, 58, 57
1, 454486, Poly_aftertouch_c, 0, 70, 0
1, 454487, Note_off_c, 0, 62, 61
1, 454500, Note_on_c, 0, 70, 38
1, 454515, Note_on_c, 0, 77, 49
1, 454534, Control_c, 0, 64, 79
1, 454540, Note_off_c, 0, 70, 65
1, 454541, Note_off_c, 0, 77, 56
1, 454549, Control_c, 0, 64, 79
1, 454564, Control_c, 0, 64, 78
1, 454578, Control_c, 0, 64, 78
1, 454586, Note_on_c, 0, 58, 41
1, 454593, Control_c, 0, 64, 75
1, 454600, Note_on_c, 0, 63, 40
1, 454602, Note_on_c, 0, 67, 49
1, 454608, Control_c, 0, 64, 70
1, 454624, Control_c, 0, 64, 64
1, 454639, Control_c, 0, 64, 60
1, 454652, Note_off_c, 0, 63, 60
1, 454654, Control_c, 0, 64, 60
1, 454655, Note_off_c, 0, 58, 55
1, 454664, Note_on_c, 0, 77, 53
1, 454664, Note_off_c, 0, 67, 52
1, 454668, Control_c, 0, 64, 62
1, 454683, Control_c, 0, 64, 64
1, 454688, Note_on_c, 0, 70, 39
1, 454698, Control_c, 0, 64, 66
1, 454713, Control_c, 0, 64, 69
1, 454717, Note_off_c, 0, 70, 56
1, 454727, Control_c, 0, 64, 73
1, 454729, Note_on_c, 0, 67, 35
1, 454729, Note_off_c, 0, 77, 55
1, 454742, Control_c, 0, 64, 76
1, 454753, Note_on_c, 0, 58, 26
1, 454757, Control_c, 0, 64, 77
1, 454769, Note_on_c, 0, 63, 43
1, 454777, Note_off_c, 0, 67, 63
1, 454795, Note_off_c, 0, 63, 56
1, 454796, Note_off_c, 0, 58, 49
1, 454801, Control_c, 0, 64, 77
1, 454803, Note_on_c, 0, 75, 57
1, 454810, Note_on_c, 0, 70, 44
1, 454831, Control_c, 0, 64, 76
1, 454838, Note_off_c, 0, 70, 56
1, 454846, Note_off_c, 0, 75, 58
1, 454846, Control_c, 0, 64, 76
1, 454861, Control_c, 0, 64, 73
1, 454875, Control_c, 0, 64, 68
1, 454888, Note_on_c, 0, 63, 44
1, 454890, Control_c, 0, 64, 62
1, 454902, Note_on_c, 0, 66, 44
1, 454903, Note_on_c, 0, 58, 45
1, 454905, Control_c, 0, 64, 55
1, 454920, Control_c, 0, 64, 54
1, 454935, Control_c, 0, 64, 55
1, 454946, Note_off_c, 0, 58, 61
1, 454946, Note_off_c, 0, 66, 58
1, 454950, Control_c, 0, 64, 58
1, 454953, Note_off_c, 0, 63, 54
1, 454963, Note_on_c, 0, 74, 58
1, 454965, Control_c, 0, 64, 61
1, 454980, Control_c, 0, 64, 64
1, 454980, Note_on_c, 0, 69, 41
1, 454994, Control_c, 0, 64, 66
1, 455001, Note_off_c, 0, 74, 62
1, 455006, Note_off_c, 0, 69, 56
1, 455009, Control_c, 0, 64, 69
1, 455024, Control_c, 0, 64, 70
1, 455033, Note_on_c, 0, 66, 45
1, 455039, Control_c, 0, 64, 71
1, 455042, Note_on_c, 0, 63, 27
1, 455047, Note_on_c, 0, 58, 48
1, 455054, Control_c, 0, 64, 71
1, 455077, Note_off_c, 0, 63, 60
1, 455083, Control_c, 0, 64, 71
1, 455093, Note_off_c, 0, 58, 60
1, 455095, Note_on_c, 0, 69, 49
1, 455101, Note_on_c, 0, 73, 59
1, 455135, Control_c, 0, 64, 70
1, 455138, Note_off_c, 0, 66, 54
1, 455140, Note_off_c, 0, 69, 62
1, 455144, Note_off_c, 0, 73, 64
1, 455150, Control_c, 0, 64, 70
1, 455164, Control_c, 0, 64, 67
1, 455179, Control_c, 0, 64, 63
1, 455194, Control_c, 0, 64, 56
1, 455194, Note_on_c, 0, 58, 44
1, 455195, Note_on_c, 0, 65, 46
1, 455200, Note_on_c, 0, 62, 42
1, 455209, Control_c, 0, 64, 54
1, 455224, Control_c, 0, 64, 55
1, 455239, Control_c, 0, 64, 57
1, 455242, Note_off_c, 0, 58, 59
1, 455249, Note_off_c, 0, 65, 57
1, 455249, Note_off_c, 0, 62, 59
1, 455254, Control_c, 0, 64, 60
1, 455258, Note_on_c, 0, 73, 57
1, 455268, Control_c, 0, 64, 63
1, 455283, Control_c, 0, 64, 66
1, 455290, Note_on_c, 0, 70, 30
1, 455296, Note_off_c, 0, 73, 64
1, 455298, Control_c, 0, 64, 68
1, 455313, Control_c, 0, 64, 71
1, 455324, Note_off_c, 0, 70, 48
1, 455325, Note_on_c, 0, 65, 49
1, 455327, Control_c, 0, 64, 73
1, 455342, Control_c, 0, 64, 76
1, 455346, Note_on_c, 0, 58, 42
1, 455357, Control_c, 0, 64, 76
1, 455361, Note_off_c, 0, 65, 64
1, 455370, Note_on_c, 0, 62, 19
1, 455376, Note_off_c, 0, 58, 54
1, 455388, Note_on_c, 0, 74, 61
1, 455410, Note_off_c, 0, 62, 40
1, 455416, Control_c, 0, 64, 76
1, 455425, Note_off_c, 0, 74, 62
1, 455432, Control_c, 0, 64, 75
1, 455447, Control_c, 0, 64, 72
1, 455462, Control_c, 0, 64, 67
1, 455476, Control_c, 0, 64, 61
1, 455484, Poly_aftertouch_c, 0, 70, 0
1, 455488, Note_on_c, 0, 58, 43
1, 455490, Control_c, 0, 64, 57
1, 455501, Note_on_c, 0, 68, 64
1, 455505, Control_c, 0, 64, 57
1, 455519, Note_on_c, 0, 62, 43
1, 455520, Control_c, 0, 64, 59
1, 455535, Control_c, 0, 64, 62
1, 455549, Control_c, 0, 64, 65
1, 455561, Note_off_c, 0, 58, 59
1, 455564, Control_c, 0, 64, 68
1, 455569, Note_off_c, 0, 62, 59
1, 455570, Note_off_c, 0, 68, 60
1, 455575, Note_on_c, 0, 70, 50
1, 455579, Note_on_c, 0, 77, 51
1, 455579, Control_c, 0, 64, 70
1, 455594, Control_c, 0, 64, 73
1, 455603, Note_off_c, 0, 70, 54
1, 455606, Note_off_c, 0, 77, 58
1, 455609, Control_c, 0, 64, 75
1, 455624, Control_c, 0, 64, 76
1, 455630, Note_on_c, 0, 68, 52
1, 455653, Note_on_c, 0, 58, 38
1, 455692, Note_on_c, 0, 77, 66
1, 455693, Note_off_c, 0, 58, 62
1, 455706, Note_on_c, 0, 70, 43
1, 455713, Note_off_c, 0, 68, 61
1, 455728, Control_c, 0, 64, 75
1, 455730, Note_off_c, 0, 70, 58
1, 455738, Note_off_c, 0, 77, 56
1, 455742, Control_c, 0, 64, 74
1, 455757, Control_c, 0, 64, 70
1, 455772, Control_c, 0, 64, 65
1, 455786, Note_on_c, 0, 67, 70
1, 455787, Control_c, 0, 64, 60
1, 455792, Note_on_c, 0, 58, 52
1, 455802, Control_c, 0, 64, 59
1, 455808, Note_on_c, 0, 63, 48
1, 455816, Control_c, 0, 64, 61
1, 455831, Control_c, 0, 64, 64
1, 455838, Note_off_c, 0, 58, 61
1, 455844, Note_off_c, 0, 63, 64
1, 455845, Note_on_c, 0, 77, 72
1, 455846, Control_c, 0, 64, 66
1, 455868, Control_c, 0, 64, 69
1, 455869, Note_off_c, 0, 67, 60
1, 455883, Control_c, 0, 64, 73
1, 455895, Note_off_c, 0, 77, 56
1, 455898, Control_c, 0, 64, 77
1, 455913, Control_c, 0, 64, 79
1, 455928, Control_c, 0, 64, 80
1, 455939, Note_on_c, 0, 67, 73
1, 455957, Note_on_c, 0, 58, 57
1, 455962, Note_on_c, 0, 63, 47
1, 455978, Note_on_c, 0, 75, 83
1, 455991, Note_off_c, 0, 58, 65
1, 455991, Note_off_c, 0, 67, 62
1, 455994, Note_off_c, 0, 63, 60
1, 456031, Control_c, 0, 64, 79
1, 456037, Note_off_c, 0, 75, 62
1, 456046, Control_c, 0, 64, 77
1, 456061, Control_c, 0, 64, 70
1, 456074, Note_on_c, 0, 66, 80
1, 456075, Control_c, 0, 64, 63
1, 456077, Note_on_c, 0, 63, 64
1, 456079, Note_on_c, 0, 58, 58
1, 456090, Control_c, 0, 64, 55
1, 456105, Control_c, 0, 64, 54
1, 456120, Control_c, 0, 64, 58
1, 456127, Note_on_c, 0, 74, 84
1, 456127, Note_off_c, 0, 58, 59
1, 456130, Note_off_c, 0, 66, 63
1, 456135, Control_c, 0, 64, 61
1, 456142, Note_off_c, 0, 63, 62
1, 456149, Control_c, 0, 64, 64
1, 456164, Control_c, 0, 64, 67
1, 456179, Control_c, 0, 64, 70
1, 456180, Note_off_c, 0, 74, 63
1, 456194, Control_c, 0, 64, 73
1, 456209, Control_c, 0, 64, 76
1, 456221, Note_on_c, 0, 66, 79
1, 456226, Control_c, 0, 64, 77
1, 456232, Note_on_c, 0, 63, 59
1, 456234, Note_on_c, 0, 58, 67
1, 456240, Control_c, 0, 64, 78
1, 456267, Note_on_c, 0, 73, 84
1, 456270, Note_off_c, 0, 63, 64
1, 456277, Note_off_c, 0, 58, 61
1, 456280, Note_on_c, 0, 69, 73
1, 456294, Note_off_c, 0, 66, 58
1, 456309, Note_off_c, 0, 69, 65
1, 456315, Control_c, 0, 64, 77
1, 456323, Note_off_c, 0, 73, 64
1, 456329, Control_c, 0, 64, 74
1, 456344, Control_c, 0, 64, 67
1, 456359, Control_c, 0, 64, 58
1, 456363, Note_on_c, 0, 65, 84
1, 456372, Note_on_c, 0, 58, 67
1, 456373, Control_c, 0, 64, 47
1, 456378, Note_on_c, 0, 62, 61
1, 456388, Control_c, 0, 64, 49
1, 456403, Control_c, 0, 64, 55
1, 456418, Control_c, 0, 64, 60
1, 456429, Note_off_c, 0, 58, 62
1, 456431, Note_on_c, 0, 73, 84
1, 456433, Control_c, 0, 64, 64
1, 456443, Note_off_c, 0, 65, 61
1, 456447, Control_c, 0, 64, 68
1, 456453, Note_off_c, 0, 62, 60
1, 456462, Control_c, 0, 64, 72
1, 456477, Control_c, 0, 64, 77
1, 456485, Note_off_c, 0, 73, 64
1, 456492, Control_c, 0, 64, 82
1, 456507, Control_c, 0, 64, 83
1, 456516, Note_on_c, 0, 65, 87
1, 456527, Note_on_c, 0, 62, 58
1, 456527, Note_on_c, 0, 58, 75
1, 456566, Note_off_c, 0, 62, 64
1, 456571, Note_on_c, 0, 74, 91
1, 456573, Note_off_c, 0, 65, 61
1, 456574, Note_off_c, 0, 58, 58
1, 456588, Note_on_c, 0, 70, 69
1, 456615, Note_off_c, 0, 70, 66
1, 456633, Control_c, 0, 64, 82
1, 456644, Note_off_c, 0, 74, 60
1, 456647, Control_c, 0, 64, 77
1, 456662, Control_c, 0, 64, 67
1, 456677, Control_c, 0, 64, 55
1, 456690, Note_on_c, 0, 65, 85
1, 456691, Control_c, 0, 64, 36
1, 456696, Note_on_c, 0, 56, 72
1, 456706, Control_c, 0, 64, 38
1, 456715, Note_on_c, 0, 58, 53
1, 456721, Control_c, 0, 64, 46
1, 456736, Control_c, 0, 64, 56
1, 456748, Note_off_c, 0, 56, 59
1, 456751, Control_c, 0, 64, 62
1, 456755, Note_off_c, 0, 58, 63
1, 456757, Note_on_c, 0, 77, 91
1, 456762, Note_off_c, 0, 65, 58
1, 456765, Note_on_c, 0, 70, 72
1, 456765, Control_c, 0, 64, 66
1, 456780, Control_c, 0, 64, 70
1, 456789, Note_off_c, 0, 70, 69
1, 456795, Control_c, 0, 64, 77
1, 456810, Control_c, 0, 64, 85
1, 456816, Note_off_c, 0, 77, 61
1, 456825, Control_c, 0, 64, 91
1, 456840, Control_c, 0, 64, 92
1, 456851, Note_on_c, 0, 65, 88
1, 456854, Note_on_c, 0, 56, 74
1, 456868, Note_on_c, 0, 58, 51
1, 456870, Control_c, 0, 64, 92
1, 456891, Note_off_c, 0, 56, 61
1, 456899, Control_c, 0, 64, 91
1, 456902, Note_off_c, 0, 65, 61
1, 456903, Note_off_c, 0, 58, 63
1, 456911, Note_on_c, 0, 77, 89
1, 456914, Control_c, 0, 64, 91
1, 456920, Note_on_c, 0, 70, 75
1, 456944, Control_c, 0, 64, 90
1, 456948, Note_off_c, 0, 70, 69
1, 456959, Control_c, 0, 64, 90
1, 456962, Note_off_c, 0, 77, 63
1, 456987, Control_c, 0, 64, 89
1, 456988, Note_on_c, 0, 65, 89
1, 456992, Note_on_c, 0, 56, 80
1, 457002, Control_c, 0, 64, 89
1, 457010, Note_on_c, 0, 58, 51
1, 457018, Control_c, 0, 64, 88
1, 457033, Control_c, 0, 64, 88
1, 457037, Note_off_c, 0, 58, 58
1, 457038, Note_off_c, 0, 65, 62
1, 457039, Note_off_c, 0, 56, 55
1, 457044, Note_on_c, 0, 77, 92
1, 457061, Note_on_c, 0, 70, 67
1, 457078, Note_off_c, 0, 70, 68
1, 457092, Control_c, 0, 64, 87
1, 457102, Note_off_c, 0, 77, 63
1, 457107, Control_c, 0, 64, 82
1, 457121, Control_c, 0, 64, 71
1, 457134, Note_on_c, 0, 63, 81
1, 457136, Control_c, 0, 64, 59
1, 457139, Note_on_c, 0, 55, 68
1, 457141, Note_on_c, 0, 58, 48
1, 457151, Control_c, 0, 64, 44
1, 457166, Control_c, 0, 64, 51
1, 457176, Note_off_c, 0, 55, 65
1, 457181, Control_c, 0, 64, 60
1, 457184, Note_off_c, 0, 58, 62
1, 457187, Note_on_c, 0, 75, 89
1, 457187, Note_off_c, 0, 63, 63
1, 457194, Note_on_c, 0, 70, 61
1, 457195, Control_c, 0, 64, 65
1, 457210, Control_c, 0, 64, 71
1, 457224, Note_off_c, 0, 70, 66
1, 457225, Control_c, 0, 64, 80
1, 457240, Control_c, 0, 64, 94
1, 457243, Note_off_c, 0, 75, 63
1, 457255, Control_c, 0, 64, 110
1, 457269, Control_c, 0, 64, 122
1, 457272, Note_on_c, 0, 62, 84
1, 457276, Note_on_c, 0, 55, 72
1, 457280, Note_on_c, 0, 58, 63
1, 457284, Control_c, 0, 64, 120
1, 457299, Control_c, 0, 64, 115
1, 457314, Control_c, 0, 64, 112
1, 457318, Note_off_c, 0, 58, 58
1, 457319, Note_off_c, 0, 55, 60
1, 457321, Note_on_c, 0, 74, 84
1, 457322, Note_off_c, 0, 62, 64
1, 457329, Control_c, 0, 64, 110
1, 457334, Note_on_c, 0, 70, 67
1, 457344, Control_c, 0, 64, 109
1, 457366, Control_c, 0, 64, 107
1, 457369, Note_off_c, 0, 70, 66
1, 457376, Note_off_c, 0, 74, 65
1, 457381, Control_c, 0, 64, 105
1, 457395, Control_c, 0, 64, 103
1, 457410, Control_c, 0, 64, 102
1, 457413, Note_on_c, 0, 55, 74
1, 457419, Note_on_c, 0, 61, 70
1, 457425, Control_c, 0, 64, 101
1, 457432, Note_on_c, 0, 58, 63
1, 457440, Control_c, 0, 64, 100
1, 457456, Note_on_c, 0, 73, 75
1, 457457, Note_on_c, 0, 70, 73
1, 457460, Note_off_c, 0, 61, 55
1, 457469, Note_off_c, 0, 55, 59
1, 457473, Note_off_c, 0, 58, 61
1, 457479, Note_off_c, 0, 70, 66
1, 457484, Control_c, 0, 64, 101
1, 457499, Control_c, 0, 64, 99
1, 457510, Note_off_c, 0, 73, 64
1, 457513, Control_c, 0, 64, 83
1, 457528, Control_c, 0, 64, 67
1, 457543, Control_c, 0, 64, 52
1, 457544, Note_on_c, 0, 53, 72
1, 457558, Note_on_c, 0, 61, 63
1, 457558, Control_c, 0, 64, 48
1, 457564, Note_on_c, 0, 57, 59
1, 457573, Control_c, 0, 64, 57
1, 457588, Control_c, 0, 64, 63
1, 457598, Note_on_c, 0, 73, 80
1, 457603, Control_c, 0, 64, 68
1, 457608, Note_off_c, 0, 61, 54
1, 457616, Note_off_c, 0, 53, 63
1, 457618, Note_off_c, 0, 57, 58
1, 457618, Control_c, 0, 64, 77
1, 457633, Control_c, 0, 64, 92
1, 457648, Control_c, 0, 64, 127
1, 457651, Note_off_c, 0, 73, 63
1, 457688, Note_on_c, 0, 62, 76
1, 457693, Note_on_c, 0, 53, 73
1, 457727, Note_on_c, 0, 69, 83
1, 457734, Note_on_c, 0, 74, 82
1, 457740, Note_off_c, 0, 62, 61
1, 457744, Note_off_c, 0, 53, 63
1, 457753, Note_on_c, 0, 57, 4
1, 457767, Note_off_c, 0, 74, 60
1, 457775, Note_off_c, 0, 69, 63
1, 457788, Note_off_c, 0, 57, 0
1, 457810, Note_on_c, 0, 58, 89
1, 457810, Control_c, 0, 64, 96
1, 457812, Note_on_c, 0, 55, 88
1, 457812, Poly_aftertouch_c, 0, 57, 0
1, 457825, Control_c, 0, 64, 70
1, 457840, Control_c, 0, 64, 57
1, 457855, Control_c, 0, 64, 58
1, 457868, Note_on_c, 0, 67, 85
1, 457870, Note_on_c, 0, 70, 86
1, 457870, Control_c, 0, 64, 65
1, 457872, Note_off_c, 0, 55, 62
1, 457882, Note_off_c, 0, 58, 64
1, 457884, Control_c, 0, 64, 76
1, 457895, Note_off_c, 0, 67, 66
1, 457899, Control_c, 0, 64, 100
1, 457909, Note_off_c, 0, 70, 58
1, 457914, Control_c, 0, 64, 127
1, 457949, Note_on_c, 0, 58, 86
1, 457953, Note_on_c, 0, 55, 81
1, 457985, Note_off_c, 0, 55, 65
1, 457994, Note_off_c, 0, 58, 64
1, 457998, Note_on_c, 0, 67, 89
1, 458000, Note_on_c, 0, 63, 88
1, 458024, Note_off_c, 0, 63, 66
1, 458045, Note_off_c, 0, 67, 62
1, 458077, Control_c, 0, 64, 107
1, 458092, Control_c, 0, 64, 71
1, 458107, Control_c, 0, 64, 42
1, 458124, Note_on_c, 0, 57, 92
1, 458126, Note_on_c, 0, 65, 96
1, 458127, Note_on_c, 0, 62, 92
1, 458129, Control_c, 0, 64, 0
1, 458173, Control_c, 0, 64, 25
1, 458188, Control_c, 0, 64, 53
1, 458203, Control_c, 0, 64, 64
1, 458217, Control_c, 0, 64, 74
1, 458232, Control_c, 0, 64, 100
1, 458247, Control_c, 0, 64, 127
1, 458268, Note_off_c, 0, 57, 63
1, 458273, Note_off_c, 0, 62, 59
1, 458304, Note_off_c, 0, 65, 56
1, 458425, Control_c, 0, 64, 77
1, 458435, Note_on_c, 0, 45, 88
1, 458440, Control_c, 0, 64, 53
1, 458442, Note_on_c, 0, 55, 95
1, 458442, Note_on_c, 0, 64, 93
1, 458449, Note_on_c, 0, 61, 80
1, 458455, Control_c, 0, 64, 0
1, 458499, Control_c, 0, 64, 41
1, 458514, Control_c, 0, 64, 61
1, 458524, Note_off_c, 0, 45, 63
1, 458529, Control_c, 0, 64, 70
1, 458543, Control_c, 0, 64, 90
1, 458558, Control_c, 0, 64, 127
1, 458668, Note_off_c, 0, 64, 49
1, 458699, Note_on_c, 0, 57, 68
1, 458702, Note_off_c, 0, 55, 58
1, 458737, Control_c, 0, 64, 84
1, 458752, Control_c, 0, 64, 57
1, 458758, Note_off_c, 0, 61, 60
1, 458766, Control_c, 0, 64, 0
1, 458791, Note_on_c, 0, 62, 90
1, 458794, Note_on_c, 0, 53, 90
1, 458796, Note_on_c, 0, 50, 87
1, 458796, Note_off_c, 0, 57, 58
1, 458800, Note_on_c, 0, 38, 77
1, 458840, Note_off_c, 0, 53, 65
1, 458840, Control_c, 0, 64, 42
1, 458863, Control_c, 0, 64, 63
1, 458878, Control_c, 0, 64, 78
1, 458879, Note_off_c, 0, 38, 62
1, 458882, Note_off_c, 0, 62, 68
1, 458893, Control_c, 0, 64, 127
1, 458911, Note_off_c, 0, 50, 62
1, 459011, Control_c, 0, 64, 103
1, 459026, Control_c, 0, 64, 94
1, 459040, Control_c, 0, 64, 89
1, 459055, Control_c, 0, 64, 84
1, 459070, Control_c, 0, 64, 79
1, 459085, Control_c, 0, 64, 72
1, 459100, Control_c, 0, 64, 62
1, 459114, Control_c, 0, 64, 50
1, 459129, Control_c, 0, 64, 35
1, 459144, Control_c, 0, 64, 30
1, 459159, Control_c, 0, 64, 29
1, 459179, Note_on_c, 0, 89, 88
1, 459185, Note_on_c, 0, 77, 80
1, 459189, Control_c, 0, 64, 30
1, 459204, Control_c, 0, 64, 36
1, 459218, Control_c, 0, 64, 47
1, 459233, Control_c, 0, 64, 57
1, 459240, Note_off_c, 0, 77, 62
1, 459248, Control_c, 0, 64, 62
1, 459263, Note_off_c, 0, 89, 64
1, 459263, Control_c, 0, 64, 64
1, 459278, Control_c, 0, 64, 66
1, 459283, Note_on_c, 0, 53, 69
1, 459285, Note_on_c, 0, 65, 64
1, 459290, Note_on_c, 0, 63, 56
1, 459292, Control_c, 0, 64, 69
1, 459307, Control_c, 0, 64, 72
1, 459317, Note_off_c, 0, 65, 64
1, 459322, Note_off_c, 0, 53, 60
1, 459322, Control_c, 0, 64, 74
1, 459323, Note_off_c, 0, 63, 64
1, 459337, Control_c, 0, 64, 75
1, 459356, Note_on_c, 0, 89, 104
1, 459359, Note_on_c, 0, 77, 92
1, 459381, Control_c, 0, 64, 74
1, 459388, Note_off_c, 0, 77, 66
1, 459396, Control_c, 0, 64, 74
1, 459412, Control_c, 0, 64, 73
1, 459418, Note_off_c, 0, 89, 62
1, 459427, Control_c, 0, 64, 72
1, 459442, Note_on_c, 0, 53, 69
1, 459442, Control_c, 0, 64, 71
1, 459445, Note_on_c, 0, 65, 64
1, 459447, Note_on_c, 0, 63, 55
1, 459456, Control_c, 0, 64, 69
1, 459471, Control_c, 0, 64, 67
1, 459486, Note_off_c, 0, 63, 60
1, 459486, Control_c, 0, 64, 63
1, 459490, Note_off_c, 0, 65, 58
1, 459496, Note_off_c, 0, 53, 63
1, 459501, Control_c, 0, 64, 59
1, 459514, Note_on_c, 0, 89, 97
1, 459516, Control_c, 0, 64, 56
1, 459520, Note_on_c, 0, 77, 89
1, 459530, Control_c, 0, 64, 55
1, 459545, Control_c, 0, 64, 56
1, 459560, Control_c, 0, 64, 59
1, 459563, Note_off_c, 0, 77, 65
1, 459575, Control_c, 0, 64, 63
1, 459589, Control_c, 0, 64, 66
1, 459591, Note_on_c, 0, 55, 71
1, 459601, Note_on_c, 0, 65, 64
1, 459612, Control_c, 0, 64, 71
1, 459622, Note_on_c, 0, 63, 30
1, 459627, Control_c, 0, 64, 78
1, 459642, Control_c, 0, 64, 85
1, 459657, Control_c, 0, 64, 87
1, 459659, Note_off_c, 0, 63, 32
1, 459664, Note_off_c, 0, 55, 62
1, 459669, Note_off_c, 0, 65, 60
1, 459671, Control_c, 0, 64, 86
1, 459672, Note_on_c, 0, 87, 82
1, 459672, Note_on_c, 0, 75, 83
1, 459686, Control_c, 0, 64, 83
1, 459695, Note_off_c, 0, 89, 62
1, 459701, Control_c, 0, 64, 80
1, 459715, Note_off_c, 0, 75, 57
1, 459715, Control_c, 0, 64, 78
1, 459728, Note_off_c, 0, 87, 65
1, 459730, Control_c, 0, 64, 76
1, 459745, Control_c, 0, 64, 75
1, 459746, Note_on_c, 0, 55, 71
1, 459747, Note_on_c, 0, 63, 66
1, 459750, Note_on_c, 0, 65, 68
1, 459760, Control_c, 0, 64, 75
1, 459775, Control_c, 0, 64, 74
1, 459789, Control_c, 0, 64, 72
1, 459795, Note_off_c, 0, 63, 59
1, 459801, Note_off_c, 0, 65, 58
1, 459804, Control_c, 0, 64, 71
1, 459806, Note_off_c, 0, 55, 63
1, 459818, Note_on_c, 0, 86, 92
1, 459819, Control_c, 0, 64, 69
1, 459820, Note_on_c, 0, 74, 88
1, 459834, Control_c, 0, 64, 68
1, 459847, Note_off_c, 0, 74, 65
1, 459849, Control_c, 0, 64, 66
1, 459862, Note_off_c, 0, 86, 65
1, 459863, Control_c, 0, 64, 65
1, 459878, Control_c, 0, 64, 63
1, 459884, Note_on_c, 0, 57, 71
1, 459893, Control_c, 0, 64, 62
1, 459901, Note_on_c, 0, 65, 66
1, 459902, Note_on_c, 0, 63, 63
1, 459907, Control_c, 0, 64, 60
1, 459922, Control_c, 0, 64, 59
1, 459937, Control_c, 0, 64, 57
1, 459940, Note_off_c, 0, 63, 62
1, 459944, Note_off_c, 0, 65, 55
1, 459949, Note_off_c, 0, 57, 64
1, 459952, Control_c, 0, 64, 54
1, 459957, Note_on_c, 0, 85, 95
1, 459958, Note_on_c, 0, 73, 95
1, 459967, Control_c, 0, 64, 51
1, 459982, Control_c, 0, 64, 48
1, 459997, Control_c, 0, 64, 46
1, 460005, Note_off_c, 0, 73, 61
1, 460011, Control_c, 0, 64, 44
1, 460026, Control_c, 0, 64, 41
1, 460030, Note_off_c, 0, 85, 64
1, 460034, Note_on_c, 0, 63, 67
1, 460041, Control_c, 0, 64, 40
1, 460047, Note_on_c, 0, 65, 67
1, 460053, Note_on_c, 0, 57, 53
1, 460059, Note_on_c, 0, 55, 47
1, 460074, Note_off_c, 0, 63, 60
1, 460082, Note_off_c, 0, 65, 59
1, 460086, Control_c, 0, 64, 42
1, 460086, Note_off_c, 0, 55, 58
1, 460089, Note_off_c, 0, 57, 66
1, 460101, Control_c, 0, 64, 46
1, 460103, Note_on_c, 0, 85, 89
1, 460106, Note_on_c, 0, 73, 90
1, 460115, Control_c, 0, 64, 53
1, 460130, Control_c, 0, 64, 58
1, 460145, Control_c, 0, 64, 61
1, 460160, Control_c, 0, 64, 63
1, 460175, Control_c, 0, 64, 65
1, 460189, Control_c, 0, 64, 67
1, 460190, Note_off_c, 0, 73, 63
1, 460190, Note_on_c, 0, 62, 63
1, 460196, Note_on_c, 0, 65, 60
1, 460197, Note_on_c, 0, 58, 57
1, 460205, Control_c, 0, 64, 70
1, 460220, Control_c, 0, 64, 74
1, 460235, Control_c, 0, 64, 75
1, 460236, Note_off_c, 0, 58, 63
1, 460236, Note_off_c, 0, 65, 62
1, 460241, Note_off_c, 0, 62, 59
1, 460247, Note_on_c, 0, 74, 84
1, 460247, Note_on_c, 0, 86, 87
1, 460250, Control_c, 0, 64, 75
1, 460265, Control_c, 0, 64, 74
1, 460273, Note_off_c, 0, 74, 65
1, 460275, Note_off_c, 0, 85, 57
1, 460279, Control_c, 0, 64, 73
1, 460294, Control_c, 0, 64, 71
1, 460302, Note_off_c, 0, 86, 66
1, 460309, Control_c, 0, 64, 70
1, 460318, Note_on_c, 0, 58, 66
1, 460324, Control_c, 0, 64, 69
1, 460329, Note_on_c, 0, 62, 53
1, 460330, Note_on_c, 0, 65, 62
1, 460349, Note_off_c, 0, 62, 65
1, 460359, Note_off_c, 0, 58, 66
1, 460369, Note_off_c, 0, 65, 65
1, 460375, Control_c, 0, 64, 69
1, 460401, Note_on_c, 0, 89, 97
1, 460405, Note_on_c, 0, 77, 86
1, 460420, Control_c, 0, 64, 68
1, 460427, Note_off_c, 0, 77, 68
1, 460448, Note_off_c, 0, 89, 63
1, 460465, Control_c, 0, 64, 68
1, 460474, Note_on_c, 0, 53, 73
1, 460475, Note_on_c, 0, 65, 70
1, 460476, Note_on_c, 0, 63, 71
1, 460494, Control_c, 0, 64, 67
1, 460511, Note_off_c, 0, 65, 59
1, 460512, Note_off_c, 0, 63, 59
1, 460524, Control_c, 0, 64, 67
1, 460526, Note_off_c, 0, 53, 61
1, 460539, Note_on_c, 0, 89, 103
1, 460541, Note_on_c, 0, 77, 93
1, 460572, Note_off_c, 0, 77, 63
1, 460588, Note_off_c, 0, 89, 63
1, 460598, Control_c, 0, 64, 67
1, 460611, Note_on_c, 0, 65, 78
1, 460612, Control_c, 0, 64, 67
1, 460614, Note_on_c, 0, 53, 74
1, 460614, Note_on_c, 0, 63, 73
1, 460627, Control_c, 0, 64, 64
1, 460642, Control_c, 0, 64, 55
1, 460657, Control_c, 0, 64, 38
1, 460670, Note_off_c, 0, 65, 59
1, 460672, Control_c, 0, 64, 34
1, 460674, Note_on_c, 0, 89, 98
1, 460676, Note_on_c, 0, 77, 88
1, 460679, Note_off_c, 0, 53, 61
1, 460684, Note_off_c, 0, 63, 55
1, 460687, Control_c, 0, 64, 44
1, 460702, Control_c, 0, 64, 56
1, 460718, Control_c, 0, 64, 64
1, 460719, Note_off_c, 0, 77, 63
1, 460732, Control_c, 0, 64, 70
1, 460747, Control_c, 0, 64, 81
1, 460749, Note_on_c, 0, 55, 72
1, 460751, Note_on_c, 0, 65, 73
1, 460754, Note_on_c, 0, 63, 59
1, 460762, Control_c, 0, 64, 98
1, 460777, Control_c, 0, 64, 116
1, 460792, Control_c, 0, 64, 109
1, 460807, Control_c, 0, 64, 99
1, 460807, Note_on_c, 0, 87, 83
1, 460807, Note_on_c, 0, 75, 86
1, 460814, Note_off_c, 0, 65, 58
1, 460815, Note_off_c, 0, 63, 59
1, 460819, Note_off_c, 0, 55, 60
1, 460821, Control_c, 0, 64, 90
1, 460831, Note_off_c, 0, 89, 62
1, 460836, Control_c, 0, 64, 84
1, 460851, Control_c, 0, 64, 81
1, 460855, Note_off_c, 0, 75, 60
1, 460864, Note_off_c, 0, 87, 65
1, 460866, Control_c, 0, 64, 79
1, 460879, Note_on_c, 0, 55, 75
1, 460881, Control_c, 0, 64, 78
1, 460885, Note_on_c, 0, 65, 72
1, 460888, Note_on_c, 0, 63, 62
1, 460910, Control_c, 0, 64, 78
1, 460925, Control_c, 0, 64, 76
1, 460939, Control_c, 0, 64, 74
1, 460941, Note_off_c, 0, 63, 61
1, 460946, Note_on_c, 0, 86, 95
1, 460946, Note_off_c, 0, 65, 60
1, 460947, Note_on_c, 0, 74, 90
1, 460949, Note_off_c, 0, 55, 61
1, 460954, Control_c, 0, 64, 71
1, 460969, Control_c, 0, 64, 69
1, 460975, Note_off_c, 0, 74, 65
1, 460984, Control_c, 0, 64, 67
1, 460986, Note_off_c, 0, 86, 67
1, 460999, Control_c, 0, 64, 65
1, 461013, Note_on_c, 0, 57, 82
1, 461015, Control_c, 0, 64, 63
1, 461017, Note_on_c, 0, 65, 75
1, 461023, Note_on_c, 0, 63, 72
1, 461029, Control_c, 0, 64, 63
1, 461076, Note_off_c, 0, 65, 62
1, 461079, Note_off_c, 0, 57, 62
1, 461082, Note_off_c, 0, 63, 61
1, 461085, Note_on_c, 0, 73, 96
1, 461086, Note_on_c, 0, 85, 101
1, 461089, Control_c, 0, 64, 62
1, 461104, Control_c, 0, 64, 60
1, 461126, Control_c, 0, 64, 58
1, 461135, Note_off_c, 0, 73, 64
1, 461141, Control_c, 0, 64, 54
1, 461156, Control_c, 0, 64, 46
1, 461158, Note_on_c, 0, 57, 81
1, 461158, Note_off_c, 0, 85, 63
1, 461162, Note_on_c, 0, 63, 66
1, 461164, Note_on_c, 0, 65, 79
1, 461170, Control_c, 0, 64, 31
1, 461185, Control_c, 0, 64, 0
1, 461222, Note_off_c, 0, 63, 63
1, 461230, Note_off_c, 0, 57, 63
1, 461231, Note_on_c, 0, 85, 94
1, 461233, Note_on_c, 0, 73, 96
1, 461235, Note_off_c, 0, 65, 61
1, 461304, Control_c, 0, 64, 35
1, 461307, Note_on_c, 0, 65, 82
1, 461308, Note_on_c, 0, 58, 76
1, 461309, Note_on_c, 0, 62, 77
1, 461318, Control_c, 0, 64, 52
1, 461324, Note_off_c, 0, 73, 64
1, 461333, Control_c, 0, 64, 62
1, 461346, Note_off_c, 0, 85, 63
1, 461348, Control_c, 0, 64, 66
1, 461362, Control_c, 0, 64, 71
1, 461377, Control_c, 0, 64, 79
1, 461387, Note_on_c, 0, 74, 98
1, 461390, Note_on_c, 0, 86, 95
1, 461392, Control_c, 0, 64, 89
1, 461397, Note_off_c, 0, 58, 63
1, 461401, Note_off_c, 0, 62, 55
1, 461401, Note_off_c, 0, 65, 60
1, 461407, Control_c, 0, 64, 96
1, 461422, Control_c, 0, 64, 97
1, 461432, Note_off_c, 0, 74, 64
1, 461436, Control_c, 0, 64, 96
1, 461451, Control_c, 0, 64, 95
1, 461466, Control_c, 0, 64, 95
1, 461468, Note_off_c, 0, 86, 65
1, 461477, Note_on_c, 0, 65, 93
1, 461486, Note_on_c, 0, 58, 74
1, 461487, Note_on_c, 0, 62, 72
1, 461525, Control_c, 0, 64, 94
1, 461540, Control_c, 0, 64, 86
1, 461554, Control_c, 0, 64, 70
1, 461567, Note_on_c, 0, 89, 98
1, 461569, Control_c, 0, 64, 54
1, 461570, Note_on_c, 0, 77, 104
1, 461575, Note_off_c, 0, 58, 58
1, 461584, Control_c, 0, 64, 0
1, 461586, Note_off_c, 0, 62, 55
1, 461591, Note_off_c, 0, 65, 59
1, 461614, Control_c, 0, 64, 18
1, 461628, Control_c, 0, 64, 43
1, 461643, Control_c, 0, 64, 58
1, 461658, Control_c, 0, 64, 66
1, 461666, Note_on_c, 0, 65, 95
1, 461673, Note_on_c, 0, 62, 61
1, 461673, Control_c, 0, 64, 73
1, 461675, Note_on_c, 0, 56, 75
1, 461675, Note_off_c, 0, 77, 61
1, 461687, Note_on_c, 0, 58, 64
1, 461687, Control_c, 0, 64, 91
1, 461692, Note_off_c, 0, 89, 61
1, 461702, Control_c, 0, 64, 127
1, 461758, Note_off_c, 0, 56, 60
1, 461765, Note_off_c, 0, 65, 56
1, 461773, Note_on_c, 0, 77, 98
1, 461776, Note_on_c, 0, 89, 99
1, 461779, Note_off_c, 0, 58, 56
1, 461791, Note_off_c, 0, 62, 58
1, 461821, Note_off_c, 0, 77, 62
1, 461862, Note_on_c, 0, 65, 96
1, 461864, Note_off_c, 0, 89, 60
1, 461867, Note_on_c, 0, 56, 85
1, 461882, Note_on_c, 0, 62, 51
1, 461913, Note_on_c, 0, 58, 37
1, 461919, Control_c, 0, 64, 116
1, 461919, Note_off_c, 0, 62, 62
1, 461933, Control_c, 0, 64, 109
1, 461948, Control_c, 0, 64, 105
1, 461949, Note_off_c, 0, 58, 55
1, 461963, Control_c, 0, 64, 102
1, 461967, Note_off_c, 0, 56, 59
1, 461970, Note_off_c, 0, 65, 57
1, 461972, Note_on_c, 0, 77, 92
1, 461972, Note_on_c, 0, 89, 94
1, 461978, Control_c, 0, 64, 100
1, 461992, Control_c, 0, 64, 98
1, 462007, Control_c, 0, 64, 95
1, 462022, Control_c, 0, 64, 91
1, 462037, Control_c, 0, 64, 81
1, 462052, Control_c, 0, 64, 69
1, 462066, Control_c, 0, 64, 56
1, 462068, Note_on_c, 0, 65, 92
1, 462076, Note_on_c, 0, 55, 75
1, 462081, Control_c, 0, 64, 33
1, 462086, Note_on_c, 0, 58, 56
1, 462086, Note_off_c, 0, 77, 63
1, 462111, Control_c, 0, 64, 41
1, 462126, Control_c, 0, 64, 52
1, 462140, Control_c, 0, 64, 60
1, 462155, Control_c, 0, 64, 65
1, 462160, Note_off_c, 0, 55, 61
1, 462170, Control_c, 0, 64, 71
1, 462178, Note_off_c, 0, 65, 58
1, 462184, Note_on_c, 0, 75, 86
1, 462184, Note_on_c, 0, 87, 79
1, 462184, Control_c, 0, 64, 81
1, 462187, Note_off_c, 0, 58, 54
1, 462199, Control_c, 0, 64, 93
1, 462210, Note_off_c, 0, 89, 53
1, 462214, Control_c, 0, 64, 95
1, 462229, Control_c, 0, 64, 90
1, 462244, Control_c, 0, 64, 83
1, 462250, Note_off_c, 0, 75, 58
1, 462259, Control_c, 0, 64, 78
1, 462264, Note_off_c, 0, 87, 65
1, 462266, Note_on_c, 0, 63, 91
1, 462271, Note_on_c, 0, 55, 67
1, 462274, Control_c, 0, 64, 74
1, 462287, Note_on_c, 0, 58, 50
1, 462289, Control_c, 0, 64, 72
1, 462304, Control_c, 0, 64, 71
1, 462319, Control_c, 0, 64, 70
1, 462333, Control_c, 0, 64, 68
1, 462341, Note_off_c, 0, 63, 60
1, 462347, Note_off_c, 0, 55, 60
1, 462347, Note_off_c, 0, 58, 51
1, 462348, Control_c, 0, 64, 65
1, 462358, Note_on_c, 0, 74, 84
1, 462358, Note_on_c, 0, 86, 88
1, 462363, Control_c, 0, 64, 61
1, 462377, Control_c, 0, 64, 60
1, 462393, Note_off_c, 0, 74, 62
1, 462410, Note_off_c, 0, 86, 64
1, 462426, Note_on_c, 0, 62, 85
1, 462437, Note_on_c, 0, 55, 69
1, 462437, Control_c, 0, 64, 59
1, 462450, Note_on_c, 0, 58, 57
1, 462466, Control_c, 0, 64, 59
1, 462491, Note_off_c, 0, 58, 61
1, 462502, Note_off_c, 0, 55, 61
1, 462503, Note_off_c, 0, 62, 61
1, 462510, Control_c, 0, 64, 58
1, 462514, Note_on_c, 0, 73, 86
1, 462515, Note_on_c, 0, 85, 85
1, 462525, Control_c, 0, 64, 57
1, 462540, Control_c, 0, 64, 56
1, 462555, Control_c, 0, 64, 52
1, 462566, Note_off_c, 0, 73, 64
1, 462570, Control_c, 0, 64, 47
1, 462581, Note_off_c, 0, 85, 62
1, 462584, Control_c, 0, 64, 38
1, 462587, Note_on_c, 0, 61, 73
1, 462593, Note_on_c, 0, 55, 62
1, 462608, Control_c, 0, 64, 26
1, 462623, Control_c, 0, 64, 12
1, 462638, Control_c, 0, 64, 0
1, 462655, Note_off_c, 0, 55, 60
1, 462655, Note_off_c, 0, 61, 62
1, 462674, Poly_aftertouch_c, 0, 58, 0
1, 462685, Note_on_c, 0, 73, 78
1, 462686, Note_on_c, 0, 85, 77
1, 462712, Control_c, 0, 64, 22
1, 462727, Control_c, 0, 64, 42
1, 462742, Control_c, 0, 64, 58
1, 462755, Note_on_c, 0, 53, 54
1, 462757, Control_c, 0, 64, 64
1, 462758, Note_on_c, 0, 62, 58
1, 462771, Control_c, 0, 64, 69
1, 462775, Note_on_c, 0, 57, 38
1, 462785, Note_off_c, 0, 73, 62
1, 462786, Control_c, 0, 64, 75
1, 462792, Note_off_c, 0, 53, 63
1, 462799, Note_off_c, 0, 62, 61
1, 462801, Control_c, 0, 64, 81
1, 462805, Note_off_c, 0, 57, 55
1, 462815, Control_c, 0, 64, 83
1, 462830, Control_c, 0, 64, 82
1, 462837, Note_on_c, 0, 74, 64
1, 462842, Note_on_c, 0, 86, 72
1, 462845, Control_c, 0, 64, 80
1, 462860, Control_c, 0, 64, 78
1, 462867, Note_off_c, 0, 74, 66
1, 462868, Note_off_c, 0, 86, 69
1, 462875, Control_c, 0, 64, 77
1, 462878, Note_on_c, 0, 53, 64
1, 462878, Note_off_c, 0, 85, 60
1, 462889, Control_c, 0, 64, 75
1, 462890, Note_on_c, 0, 62, 61
1, 462898, Note_on_c, 0, 57, 37
1, 462904, Control_c, 0, 64, 74
1, 462919, Control_c, 0, 64, 73
1, 462922, Note_off_c, 0, 53, 60
1, 462923, Note_off_c, 0, 62, 64
1, 462927, Note_off_c, 0, 57, 52
1, 462933, Control_c, 0, 64, 71
1, 462948, Control_c, 0, 64, 70
1, 462963, Control_c, 0, 64, 68
1, 462978, Control_c, 0, 64, 66
1, 462980, Note_on_c, 0, 82, 72
1, 462988, Note_on_c, 0, 79, 59
1, 462993, Control_c, 0, 64, 66
1, 463007, Control_c, 0, 64, 65
1, 463011, Note_off_c, 0, 82, 67
1, 463020, Note_off_c, 0, 79, 64
1, 463022, Control_c, 0, 64, 64
1, 463026, Note_on_c, 0, 58, 56
1, 463031, Note_on_c, 0, 55, 50
1, 463037, Control_c, 0, 64, 62
1, 463052, Control_c, 0, 64, 60
1, 463059, Note_on_c, 0, 63, 25
1, 463062, Note_off_c, 0, 55, 63
1, 463067, Control_c, 0, 64, 57
1, 463068, Note_off_c, 0, 58, 61
1, 463082, Control_c, 0, 64, 56
1, 463097, Control_c, 0, 64, 55
1, 463112, Control_c, 0, 64, 55
1, 463117, Note_on_c, 0, 79, 63
1, 463125, Note_on_c, 0, 75, 58
1, 463126, Control_c, 0, 64, 54
1, 463147, Note_on_c, 0, 55, 55
1, 463160, Note_off_c, 0, 75, 64
1, 463171, Control_c, 0, 64, 56
1, 463172, Note_off_c, 0, 55, 57
1, 463176, Note_on_c, 0, 58, 9
1, 463180, Note_off_c, 0, 79, 63
1, 463186, Control_c, 0, 64, 58
1, 463200, Control_c, 0, 64, 60
1, 463208, Note_off_c, 0, 63, 18
1, 463215, Control_c, 0, 64, 63
1, 463223, Note_off_c, 0, 58, 27
1, 463230, Control_c, 0, 64, 65
1, 463245, Control_c, 0, 64, 67
1, 463260, Note_on_c, 0, 74, 54
1, 463260, Control_c, 0, 64, 69
1, 463261, Note_on_c, 0, 77, 63
1, 463274, Control_c, 0, 64, 70
1, 463289, Control_c, 0, 64, 71
1, 463299, Note_off_c, 0, 74, 61
1, 463301, Note_off_c, 0, 77, 59
1, 463310, Note_on_c, 0, 62, 44
1, 463311, Note_on_c, 0, 65, 53
1, 463316, Note_on_c, 0, 57, 46
1, 463364, Note_off_c, 0, 57, 62
1, 463365, Note_off_c, 0, 65, 59
1, 463367, Note_off_c, 0, 62, 58
1, 463371, Control_c, 0, 64, 70
1, 463399, Note_on_c, 0, 81, 72
1, 463401, Control_c, 0, 64, 70
1, 463419, Note_on_c, 0, 77, 51
1, 463433, Note_off_c, 0, 81, 65
1, 463439, Note_off_c, 0, 77, 54
1, 463445, Control_c, 0, 64, 69
1, 463455, Note_on_c, 0, 57, 57
1, 463468, Note_on_c, 0, 65, 42
1, 463475, Control_c, 0, 64, 69
1, 463484, Note_on_c, 0, 62, 7
1, 463489, Note_off_c, 0, 57, 65
1, 463499, Note_off_c, 0, 65, 50
1, 463505, Control_c, 0, 64, 68
1, 463520, Control_c, 0, 64, 68
1, 463525, Note_off_c, 0, 62, 38
1, 463535, Control_c, 0, 64, 67
1, 463545, Note_on_c, 0, 73, 64
1, 463550, Control_c, 0, 64, 67
1, 463554, Note_on_c, 0, 76, 64
1, 463564, Control_c, 0, 64, 66
1, 463577, Note_off_c, 0, 73, 64
1, 463579, Control_c, 0, 64, 66
1, 463589, Note_off_c, 0, 76, 62
1, 463594, Control_c, 0, 64, 65
1, 463600, Note_on_c, 0, 64, 52
1, 463605, Note_on_c, 0, 55, 47
1, 463609, Note_on_c, 0, 61, 45
1, 463621, Note_on_c, 0, 57, 26
1, 463624, Control_c, 0, 64, 64
1, 463646, Note_off_c, 0, 64, 59
1, 463648, Note_off_c, 0, 55, 61
1, 463650, Note_off_c, 0, 61, 62
1, 463654, Note_off_c, 0, 57, 55
1, 463675, Note_on_c, 0, 73, 73
1, 463692, Note_on_c, 0, 69, 58
1, 463698, Control_c, 0, 64, 63
1, 463712, Control_c, 0, 64, 60
1, 463720, Note_off_c, 0, 73, 59
1, 463725, Note_off_c, 0, 69, 63
1, 463727, Control_c, 0, 64, 52
1, 463742, Control_c, 0, 64, 41
1, 463752, Note_on_c, 0, 64, 29
1, 463756, Control_c, 0, 64, 37
1, 463757, Note_on_c, 0, 61, 38
1, 463769, Note_on_c, 0, 55, 7
1, 463771, Note_on_c, 0, 57, 29
1, 463771, Control_c, 0, 64, 37
1, 463785, Note_off_c, 0, 64, 49
1, 463786, Control_c, 0, 64, 40
1, 463787, Note_off_c, 0, 61, 51
1, 463801, Control_c, 0, 64, 49
1, 463803, Note_off_c, 0, 57, 47
1, 463809, Note_on_c, 0, 77, 78
1, 463815, Note_on_c, 0, 74, 64
1, 463816, Control_c, 0, 64, 58
1, 463820, Note_off_c, 0, 55, 27
1, 463830, Control_c, 0, 64, 63
1, 463845, Note_off_c, 0, 74, 65
1, 463845, Control_c, 0, 64, 67
1, 463860, Control_c, 0, 64, 71
1, 463875, Note_on_c, 0, 53, 56
1, 463875, Control_c, 0, 64, 75
1, 463890, Control_c, 0, 64, 78
1, 463893, Note_off_c, 0, 77, 61
1, 463904, Control_c, 0, 64, 80
1, 463907, Note_on_c, 0, 62, 32
1, 463919, Control_c, 0, 64, 79
1, 463933, Note_off_c, 0, 53, 49
1, 463934, Control_c, 0, 64, 78
1, 463943, Note_on_c, 0, 74, 71
1, 463949, Control_c, 0, 64, 77
1, 463962, Note_off_c, 0, 62, 0
1, 463964, Control_c, 0, 64, 77
1, 463970, Note_on_c, 0, 69, 63
1, 463970, Note_off_c, 0, 74, 66
1, 463978, Note_on_c, 0, 62, 37
1, 463979, Control_c, 0, 64, 76
1, 463983, Poly_aftertouch_c, 0, 57, 127
1, 463994, Control_c, 0, 64, 74
1, 463997, Poly_aftertouch_c, 0, 53, 127
1, 463999, Note_off_c, 0, 69, 67
1, 464009, Control_c, 0, 64, 73
1, 464012, Note_off_c, 0, 62, 64
1, 464021, Poly_aftertouch_c, 0, 53, 0
1, 464023, Control_c, 0, 64, 70
1, 464038, Control_c, 0, 64, 69
1, 464040, Poly_aftertouch_c, 0, 57, 0
1, 464053, Control_c, 0, 64, 68
1, 464079, Note_on_c, 0, 67, 69
1, 464080, Note_on_c, 0, 70, 76
1, 464104, Control_c, 0, 64, 68
1, 464113, Note_off_c, 0, 67, 66
1, 464119, Note_off_c, 0, 70, 63
1, 464119, Control_c, 0, 64, 67
1, 464149, Note_on_c, 0, 55, 64
1, 464149, Control_c, 0, 64, 67
1, 464164, Control_c, 0, 64, 66
1, 464226, Note_on_c, 0, 67, 79
1, 464228, Note_off_c, 0, 55, 61
1, 464229, Note_on_c, 0, 63, 78
1, 464256, Note_off_c, 0, 63, 65
1, 464275, Note_on_c, 0, 55, 60
1, 464280, Note_off_c, 0, 67, 62
1, 464286, Note_on_c, 0, 58, 75
1, 464298, Control_c, 0, 64, 65
1, 464313, Control_c, 0, 64, 63
1, 464315, Note_off_c, 0, 58, 67
1, 464323, Note_off_c, 0, 55, 62
1, 464328, Control_c, 0, 64, 58
1, 464343, Control_c, 0, 64, 54
1, 464358, Control_c, 0, 64, 55
1, 464372, Note_on_c, 0, 65, 82
1, 464372, Control_c, 0, 64, 58
1, 464373, Note_on_c, 0, 62, 71
1, 464387, Control_c, 0, 64, 61
1, 464402, Control_c, 0, 64, 64
1, 464402, Note_off_c, 0, 62, 67
1, 464417, Control_c, 0, 64, 67
1, 464423, Note_off_c, 0, 65, 60
1, 464432, Control_c, 0, 64, 69
1, 464447, Control_c, 0, 64, 70
1, 464452, Note_on_c, 0, 57, 74
1, 464456, Note_on_c, 0, 45, 65
1, 464462, Control_c, 0, 64, 71
1, 464477, Control_c, 0, 64, 72
1, 464497, Note_off_c, 0, 57, 60
1, 464498, Note_off_c, 0, 45, 64
1, 464510, Note_on_c, 0, 69, 84
1, 464516, Note_on_c, 0, 65, 77
1, 464540, Note_off_c, 0, 65, 68
1, 464560, Note_off_c, 0, 69, 63
1, 464595, Control_c, 0, 64, 70
1, 464598, Note_on_c, 0, 45, 75
1, 464600, Note_on_c, 0, 55, 68
1, 464605, Note_on_c, 0, 57, 60
1, 464610, Control_c, 0, 64, 66
1, 464623, Note_off_c, 0, 57, 65
1, 464625, Control_c, 0, 64, 59
1, 464632, Note_off_c, 0, 45, 61
1, 464632, Note_off_c, 0, 55, 65
1, 464640, Control_c, 0, 64, 51
1, 464654, Control_c, 0, 64, 52
1, 464656, Note_on_c, 0, 64, 82
1, 464663, Note_on_c, 0, 61, 74
1, 464669, Control_c, 0, 64, 56
1, 464684, Control_c, 0, 64, 62
1, 464692, Note_off_c, 0, 61, 64
1, 464699, Control_c, 0, 64, 66
1, 464713, Note_off_c, 0, 64, 61
1, 464714, Control_c, 0, 64, 69
1, 464727, Note_on_c, 0, 52, 72
1, 464728, Control_c, 0, 64, 74
1, 464731, Note_on_c, 0, 43, 64
1, 464736, Note_on_c, 0, 49, 62
1, 464743, Control_c, 0, 64, 80
1, 464758, Control_c, 0, 64, 87
1, 464771, Note_on_c, 0, 45, 25
1, 464773, Control_c, 0, 64, 92
1, 464778, Note_off_c, 0, 49, 61
1, 464779, Note_off_c, 0, 43, 62
1, 464780, Note_off_c, 0, 52, 57
1, 464787, Control_c, 0, 64, 94
1, 464796, Note_on_c, 0, 61, 77
1, 464802, Control_c, 0, 64, 96
1, 464809, Note_on_c, 0, 57, 64
1, 464817, Control_c, 0, 64, 99
1, 464818, Note_off_c, 0, 45, 40
1, 464832, Control_c, 0, 64, 106
1, 464842, Note_off_c, 0, 57, 65
1, 464854, Control_c, 0, 64, 115
1, 464855, Note_off_c, 0, 61, 57
1, 464869, Control_c, 0, 64, 116
1, 464882, Note_on_c, 0, 41, 55
1, 464884, Note_on_c, 0, 49, 58
1, 464884, Control_c, 0, 64, 99
1, 464885, Note_on_c, 0, 52, 48
1, 464888, Note_on_c, 0, 45, 45
1, 464899, Control_c, 0, 64, 79
1, 464908, Note_off_c, 0, 52, 62
1, 464914, Control_c, 0, 64, 64
1, 464918, Note_off_c, 0, 41, 61
1, 464918, Note_off_c, 0, 49, 64
1, 464928, Note_off_c, 0, 45, 64
1, 464928, Control_c, 0, 64, 46
1, 464943, Control_c, 0, 64, 45
1, 464947, Note_on_c, 0, 65, 88
1, 464952, Note_on_c, 0, 62, 81
1, 464958, Control_c, 0, 64, 55
1, 464973, Control_c, 0, 64, 62
1, 464987, Control_c, 0, 64, 67
1, 465003, Control_c, 0, 64, 75
1, 465006, Note_on_c, 0, 41, 62
1, 465010, Note_off_c, 0, 62, 61
1, 465018, Control_c, 0, 64, 91
1, 465020, Note_on_c, 0, 50, 65
1, 465022, Note_on_c, 0, 45, 57
1, 465025, Note_off_c, 0, 65, 60
1, 465033, Control_c, 0, 64, 127
1, 465053, Note_off_c, 0, 41, 60
1, 465063, Note_off_c, 0, 45, 59
1, 465064, Note_off_c, 0, 50, 60
1, 465085, Note_on_c, 0, 57, 76
1, 465117, Note_on_c, 0, 62, 36
1, 465139, Note_off_c, 0, 57, 63
1, 465145, Note_off_c, 0, 62, 56
1, 465147, Note_on_c, 0, 41, 62
1, 465151, Note_on_c, 0, 50, 69
1, 465164, Note_on_c, 0, 45, 48
1, 465196, Note_off_c, 0, 41, 62
1, 465196, Note_off_c, 0, 45, 63
1, 465196, Note_off_c, 0, 50, 64
1, 465196, Control_c, 0, 64, 91
1, 465210, Control_c, 0, 64, 66
1, 465225, Note_on_c, 0, 63, 95
1, 465225, Control_c, 0, 64, 39
1, 465230, Note_on_c, 0, 55, 87
1, 465238, Note_on_c, 0, 58, 75
1, 465240, Control_c, 0, 64, 40
1, 465255, Control_c, 0, 64, 56
1, 465256, Note_off_c, 0, 55, 68
1, 465270, Control_c, 0, 64, 64
1, 465276, Note_off_c, 0, 58, 60
1, 465285, Control_c, 0, 64, 72
1, 465300, Control_c, 0, 64, 92
1, 465304, Note_on_c, 0, 51, 84
1, 465306, Note_off_c, 0, 63, 61
1, 465308, Note_on_c, 0, 46, 63
1, 465314, Control_c, 0, 64, 127
1, 465315, Note_on_c, 0, 43, 62
1, 465358, Note_off_c, 0, 51, 63
1, 465365, Note_off_c, 0, 43, 60
1, 465374, Note_on_c, 0, 58, 87
1, 465388, Note_off_c, 0, 46, 60
1, 465422, Note_off_c, 0, 58, 63
1, 465452, Note_on_c, 0, 51, 86
1, 465455, Note_on_c, 0, 43, 69
1, 465474, Note_on_c, 0, 46, 39
1, 465492, Control_c, 0, 64, 116
1, 465502, Note_off_c, 0, 46, 61
1, 465507, Note_off_c, 0, 43, 61
1, 465507, Control_c, 0, 64, 75
1, 465512, Note_on_c, 0, 57, 98
1, 465515, Note_off_c, 0, 51, 63
1, 465516, Note_on_c, 0, 62, 90
1, 465522, Control_c, 0, 64, 51
1, 465537, Control_c, 0, 64, 32
1, 465551, Control_c, 0, 64, 47
1, 465566, Control_c, 0, 64, 60
1, 465581, Control_c, 0, 64, 66
1, 465596, Control_c, 0, 64, 76
1, 465605, Note_off_c, 0, 57, 61
1, 465608, Note_off_c, 0, 62, 61
1, 465610, Note_on_c, 0, 53, 91
1, 465613, Note_on_c, 0, 45, 82
1, 465618, Control_c, 0, 64, 110
1, 465633, Control_c, 0, 64, 127
1, 465669, Note_off_c, 0, 53, 63
1, 465669, Note_off_c, 0, 45, 61
1, 465690, Note_on_c, 0, 57, 94
1, 465741, Note_off_c, 0, 57, 62
1, 465772, Note_on_c, 0, 53, 88
1, 465776, Note_on_c, 0, 45, 80
1, 465826, Control_c, 0, 64, 110
1, 465841, Control_c, 0, 64, 73
1, 465845, Note_on_c, 0, 61, 99
1, 465848, Note_on_c, 0, 55, 88
1, 465852, Note_off_c, 0, 53, 63
1, 465856, Control_c, 0, 64, 53
1, 465860, Note_off_c, 0, 45, 61
1, 465871, Control_c, 0, 64, 0
1, 465886, Control_c, 0, 64, 29
1, 465900, Control_c, 0, 64, 52
1, 465914, Note_off_c, 0, 55, 57
1, 465915, Control_c, 0, 64, 62
1, 465930, Control_c, 0, 64, 68
1, 465945, Control_c, 0, 64, 80
1, 465952, Note_on_c, 0, 52, 87
1, 465955, Note_on_c, 0, 45, 79
1, 465955, Note_off_c, 0, 61, 57
1, 465959, Control_c, 0, 64, 127
1, 466030, Note_off_c, 0, 45, 61
1, 466042, Note_off_c, 0, 52, 59
1, 466043, Note_on_c, 0, 57, 101
1, 466133, Note_on_c, 0, 52, 82
1, 466134, Note_on_c, 0, 45, 77
1, 466155, Note_off_c, 0, 52, 71
1, 466171, Note_off_c, 0, 45, 62
1, 466240, Control_c, 0, 64, 74
1, 466255, Control_c, 0, 64, 23
1, 466256, Note_off_c, 0, 57, 60
1, 466270, Control_c, 0, 64, 0
1, 466293, Note_on_c, 0, 38, 79
1, 466293, Note_on_c, 0, 50, 86
1, 466296, Note_on_c, 0, 62, 99
1, 466301, Note_on_c, 0, 53, 87
1, 466314, Control_c, 0, 64, 20
1, 466325, Note_off_c, 0, 38, 66
1, 466329, Control_c, 0, 64, 58
1, 466342, Note_off_c, 0, 50, 62
1, 466344, Control_c, 0, 64, 71
1, 466355, Note_off_c, 0, 53, 65
1, 466366, Control_c, 0, 64, 116
1, 466381, Control_c, 0, 64, 127
1, 466386, Note_off_c, 0, 62, 66
1, 466486, Note_on_c, 0, 50, 63
1, 466522, Note_off_c, 0, 50, 59
1, 466563, Note_on_c, 0, 64, 59
1, 466570, Note_on_c, 0, 57, 50
1, 466599, Note_off_c, 0, 57, 60
1, 466599, Note_off_c, 0, 64, 64
1, 466647, Note_on_c, 0, 50, 53
1, 466660, Note_on_c, 0, 53, 46
1, 466686, Note_off_c, 0, 50, 64
1, 466690, Note_off_c, 0, 53, 65
1, 466699, Note_on_c, 0, 65, 64
1, 466733, Note_off_c, 0, 65, 65
1, 466784, Note_on_c, 0, 50, 55
1, 466791, Note_on_c, 0, 53, 55
1, 466793, Note_on_c, 0, 57, 54
1, 466833, Note_off_c, 0, 50, 62
1, 466834, Note_off_c, 0, 57, 60
1, 466838, Note_on_c, 0, 69, 72
1, 466840, Note_off_c, 0, 53, 57
1, 466846, Note_on_c, 0, 64, 64
1, 466874, Note_off_c, 0, 64, 66
1, 466887, Note_off_c, 0, 69, 60
1, 466920, Note_on_c, 0, 57, 65
1, 466934, Note_on_c, 0, 50, 65
1, 466936, Note_on_c, 0, 53, 64
1, 466972, Note_off_c, 0, 53, 61
1, 466974, Note_off_c, 0, 50, 63
1, 466978, Note_on_c, 0, 74, 84
1, 466980, Note_off_c, 0, 57, 63
1, 466986, Note_on_c, 0, 65, 71
1, 467011, Note_off_c, 0, 65, 69
1, 467029, Note_off_c, 0, 74, 66
1, 467055, Note_on_c, 0, 57, 78
1, 467059, Note_on_c, 0, 50, 76
1, 467061, Note_on_c, 0, 53, 78
1, 467124, Note_on_c, 0, 76, 104
1, 467130, Note_off_c, 0, 50, 61
1, 467130, Note_off_c, 0, 57, 64
1, 467133, Note_on_c, 0, 69, 80
1, 467134, Note_off_c, 0, 53, 60
1, 467151, Note_off_c, 0, 69, 72
1, 467169, Note_off_c, 0, 76, 62
1, 467196, Note_on_c, 0, 57, 77
1, 467201, Note_on_c, 0, 50, 80
1, 467203, Note_on_c, 0, 53, 73
1, 467272, Note_on_c, 0, 77, 99
1, 467273, Note_on_c, 0, 74, 97
1, 467286, Note_off_c, 0, 57, 64
1, 467288, Note_off_c, 0, 50, 65
1, 467294, Note_off_c, 0, 53, 61
1, 467295, Note_off_c, 0, 74, 69
1, 467309, Note_off_c, 0, 77, 67
1, 467433, Note_on_c, 0, 67, 90
1, 467434, Note_on_c, 0, 69, 94
1, 467531, Control_c, 0, 64, 88
1, 467545, Note_off_c, 0, 67, 62
1, 467545, Control_c, 0, 64, 58
1, 467560, Control_c, 0, 64, 0
1, 467569, Note_on_c, 0, 50, 83
1, 467574, Note_on_c, 0, 38, 76
1, 467591, Note_on_c, 0, 74, 92
1, 467592, Note_on_c, 0, 66, 90
1, 467601, Note_off_c, 0, 50, 67
1, 467603, Note_off_c, 0, 38, 67
1, 467604, Control_c, 0, 64, 54
1, 467613, Note_off_c, 0, 69, 61
1, 467619, Control_c, 0, 64, 67
1, 467634, Control_c, 0, 64, 86
1, 467637, Note_off_c, 0, 66, 64
1, 467649, Control_c, 0, 64, 127
1, 467666, Note_off_c, 0, 74, 65
1, 467726, Note_on_c, 0, 60, 61
1, 467729, Note_on_c, 0, 57, 60
1, 467734, Note_on_c, 0, 50, 56
1, 467768, Note_off_c, 0, 60, 59
1, 467772, Note_off_c, 0, 50, 61
1, 467776, Note_off_c, 0, 57, 59
1, 467783, Note_on_c, 0, 69, 64
1, 467785, Note_on_c, 0, 76, 63
1, 467815, Note_off_c, 0, 69, 64
1, 467818, Note_off_c, 0, 76, 63
1, 467872, Note_on_c, 0, 50, 66
1, 467873, Note_on_c, 0, 57, 64
1, 467875, Note_on_c, 0, 60, 69
1, 467908, Note_off_c, 0, 60, 64
1, 467913, Note_off_c, 0, 50, 62
1, 467915, Note_off_c, 0, 57, 61
1, 467919, Note_on_c, 0, 74, 71
1, 467922, Note_on_c, 0, 78, 83
1, 467942, Note_off_c, 0, 74, 69
1, 467979, Note_off_c, 0, 78, 64
1, 468001, Note_on_c, 0, 60, 80
1, 468006, Note_on_c, 0, 50, 77
1, 468006, Note_on_c, 0, 57, 72
1, 468057, Note_on_c, 0, 81, 94
1, 468057, Note_off_c, 0, 60, 63
1, 468063, Note_off_c, 0, 57, 62
1, 468063, Note_on_c, 0, 76, 84
1, 468068, Note_off_c, 0, 50, 62
1, 468087, Note_off_c, 0, 76, 68
1, 468104, Note_off_c, 0, 81, 66
1, 468137, Note_on_c, 0, 60, 81
1, 468139, Note_on_c, 0, 50, 69
1, 468139, Note_on_c, 0, 57, 70
1, 468198, Note_on_c, 0, 78, 96
1, 468200, Note_on_c, 0, 86, 93
1, 468207, Note_off_c, 0, 60, 62
1, 468208, Note_off_c, 0, 57, 62
1, 468210, Note_off_c, 0, 50, 62
1, 468236, Note_off_c, 0, 78, 64
1, 468242, Note_off_c, 0, 86, 66
1, 468274, Note_on_c, 0, 50, 77
1, 468274, Note_on_c, 0, 60, 84
1, 468277, Note_on_c, 0, 57, 77
1, 468342, Note_on_c, 0, 88, 95
1, 468346, Note_on_c, 0, 81, 85
1, 468347, Note_off_c, 0, 60, 62
1, 468350, Note_off_c, 0, 50, 63
1, 468352, Note_off_c, 0, 57, 63
1, 468370, Note_off_c, 0, 81, 64
1, 468380, Note_off_c, 0, 88, 67
1, 468418, Note_on_c, 0, 60, 89
1, 468419, Note_on_c, 0, 57, 69
1, 468423, Note_on_c, 0, 50, 76
1, 468492, Note_off_c, 0, 60, 65
1, 468495, Note_on_c, 0, 90, 97
1, 468496, Note_on_c, 0, 86, 90
1, 468514, Note_off_c, 0, 50, 64
1, 468516, Note_off_c, 0, 57, 62
1, 468517, Note_off_c, 0, 86, 68
1, 468535, Note_off_c, 0, 90, 64
1, 468711, Note_on_c, 0, 62, 87
1, 468717, Note_on_c, 0, 60, 78
1, 468805, Control_c, 0, 64, 98
1, 468820, Control_c, 0, 64, 65
1, 468822, Note_off_c, 0, 60, 60
1, 468835, Control_c, 0, 64, 0
1, 468849, Note_on_c, 0, 50, 67
1, 468850, Note_on_c, 0, 38, 67
1, 468875, Note_on_c, 0, 58, 80
1, 468876, Note_off_c, 0, 38, 62
1, 468877, Note_on_c, 0, 67, 87
1, 468885, Note_off_c, 0, 50, 64
1, 468891, Note_off_c, 0, 62, 62
1, 468894, Control_c, 0, 64, 48
1, 468903, Note_off_c, 0, 58, 67
1, 468909, Control_c, 0, 64, 64
1, 468924, Control_c, 0, 64, 78
1, 468939, Control_c, 0, 64, 127
1, 468941, Note_off_c, 0, 67, 63
1, 469013, Note_on_c, 0, 50, 55
1, 469019, Note_on_c, 0, 55, 51
1, 469026, Note_on_c, 0, 58, 55
1, 469070, Note_off_c, 0, 58, 56
1, 469073, Note_off_c, 0, 55, 59
1, 469075, Note_off_c, 0, 50, 58
1, 469077, Note_on_c, 0, 69, 64
1, 469079, Note_on_c, 0, 62, 56
1, 469109, Note_off_c, 0, 62, 66
1, 469109, Note_off_c, 0, 69, 65
1, 469168, Note_on_c, 0, 50, 46
1, 469169, Note_on_c, 0, 58, 51
1, 469182, Note_on_c, 0, 55, 45
1, 469207, Note_off_c, 0, 50, 62
1, 469209, Note_off_c, 0, 58, 60
1, 469212, Note_on_c, 0, 70, 67
1, 469216, Note_off_c, 0, 55, 61
1, 469240, Note_off_c, 0, 70, 68
1, 469297, Poly_aftertouch_c, 0, 67, 0
1, 469300, Note_on_c, 0, 58, 62
1, 469306, Note_on_c, 0, 50, 58
1, 469308, Note_on_c, 0, 55, 55
1, 469338, Note_off_c, 0, 58, 58
1, 469341, Note_off_c, 0, 50, 63
1, 469352, Note_on_c, 0, 69, 68
1, 469357, Note_on_c, 0, 74, 63
1, 469357, Note_off_c, 0, 55, 59
1, 469377, Note_off_c, 0, 69, 66
1, 469391, Note_off_c, 0, 74, 60
1, 469424, Note_on_c, 0, 58, 57
1, 469436, Note_on_c, 0, 50, 64
1, 469440, Note_on_c, 0, 55, 60
1, 469482, Note_off_c, 0, 50, 56
1, 469484, Note_off_c, 0, 55, 57
1, 469485, Note_on_c, 0, 70, 76
1, 469496, Note_off_c, 0, 58, 59
1, 469506, Note_on_c, 0, 79, 60
1, 469507, Note_off_c, 0, 70, 72
1, 469534, Note_off_c, 0, 79, 67
1, 469552, Note_on_c, 0, 58, 56
1, 469565, Note_on_c, 0, 50, 61
1, 469567, Note_on_c, 0, 55, 60
1, 469623, Note_off_c, 0, 50, 58
1, 469626, Note_on_c, 0, 81, 82
1, 469631, Note_on_c, 0, 74, 74
1, 469634, Note_off_c, 0, 58, 57
1, 469650, Note_off_c, 0, 55, 52
1, 469662, Note_off_c, 0, 74, 59
1, 469680, Note_off_c, 0, 81, 64
1, 469687, Note_on_c, 0, 58, 49
1, 469695, Note_on_c, 0, 55, 47
1, 469702, Note_on_c, 0, 50, 58
1, 469761, Note_off_c, 0, 58, 63
1, 469764, Note_on_c, 0, 82, 91
1, 469767, Note_on_c, 0, 79, 84
1, 469767, Note_off_c, 0, 50, 62
1, 469777, Note_off_c, 0, 55, 60
1, 469790, Note_off_c, 0, 79, 69
1, 469816, Note_off_c, 0, 82, 64
1, 469837, Note_on_c, 0, 58, 66
1, 469845, Note_on_c, 0, 55, 53
1, 469848, Note_on_c, 0, 50, 59
1, 469905, Note_off_c, 0, 58, 60
1, 469909, Note_off_c, 0, 50, 61
1, 469910, Note_on_c, 0, 86, 91
1, 469915, Note_off_c, 0, 55, 61
1, 469917, Note_on_c, 0, 77, 84
1, 469950, Note_on_c, 0, 79, 30
1, 469951, Note_off_c, 0, 79, 127
1, 469984, Note_on_c, 0, 58, 66
1, 469991, Note_on_c, 0, 55, 53
1, 470000, Note_on_c, 0, 50, 58
1, 470039, Note_on_c, 0, 85, 85
1, 470041, Note_on_c, 0, 76, 85
1, 470042, Note_off_c, 0, 77, 40
1, 470048, Note_off_c, 0, 50, 62
1, 470048, Note_off_c, 0, 58, 61
1, 470056, Note_off_c, 0, 86, 64
1, 470059, Note_off_c, 0, 55, 61
1, 470075, Note_off_c, 0, 76, 63
1, 470081, Note_off_c, 0, 85, 66
1, 470134, Note_on_c, 0, 58, 65
1, 470142, Note_on_c, 0, 55, 56
1, 470156, Note_on_c, 0, 50, 58
1, 470188, Note_on_c, 0, 82, 89
1, 470191, Note_off_c, 0, 58, 63
1, 470192, Note_off_c, 0, 50, 62
1, 470194, Note_on_c, 0, 73, 84
1, 470194, Note_off_c, 0, 55, 62
1, 470214, Note_off_c, 0, 73, 72
1, 470233, Note_off_c, 0, 82, 63
1, 470274, Note_on_c, 0, 58, 63
1, 470277, Note_on_c, 0, 50, 60
1, 470290, Note_on_c, 0, 55, 51
1, 470320, Note_on_c, 0, 79, 82
1, 470327, Note_off_c, 0, 58, 61
1, 470329, Note_off_c, 0, 55, 61
1, 470331, Note_on_c, 0, 70, 76
1, 470331, Note_off_c, 0, 50, 60
1, 470352, Note_off_c, 0, 70, 71
1, 470367, Note_off_c, 0, 79, 64
1, 470411, Note_on_c, 0, 58, 60
1, 470424, Note_on_c, 0, 50, 48
1, 470426, Note_on_c, 0, 55, 58
1, 470456, Note_off_c, 0, 58, 55
1, 470458, Note_off_c, 0, 55, 64
1, 470460, Note_off_c, 0, 50, 63
1, 470472, Note_on_c, 0, 65, 70
1, 470475, Note_on_c, 0, 67, 63
1, 470477, Note_on_c, 0, 76, 47
1, 470486, Note_on_c, 0, 74, 45
1, 470502, Note_off_c, 0, 65, 66
1, 470504, Note_off_c, 0, 76, 50
1, 470504, Note_off_c, 0, 67, 64
1, 470510, Note_off_c, 0, 74, 56
1, 470548, Note_on_c, 0, 55, 49
1, 470549, Note_on_c, 0, 50, 54
1, 470555, Note_on_c, 0, 58, 64
1, 470587, Note_off_c, 0, 58, 64
1, 470594, Note_off_c, 0, 50, 61
1, 470596, Note_off_c, 0, 55, 61
1, 470601, Note_on_c, 0, 63, 67
1, 470605, Note_on_c, 0, 73, 77
1, 470622, Note_off_c, 0, 63, 39
1, 470662, Note_off_c, 0, 73, 61
1, 470683, Note_on_c, 0, 58, 55
1, 470689, Note_on_c, 0, 55, 58
1, 470696, Note_on_c, 0, 50, 45
1, 470715, Note_off_c, 0, 58, 64
1, 470716, Poly_aftertouch_c, 0, 64, 0
1, 470724, Note_off_c, 0, 55, 64
1, 470729, Note_off_c, 0, 50, 62
1, 470743, Note_on_c, 0, 61, 72
1, 470744, Note_on_c, 0, 70, 73
1, 470771, Note_off_c, 0, 61, 65
1, 470772, Note_off_c, 0, 70, 65
1, 470848, Note_on_c, 0, 55, 41
1, 470874, Note_on_c, 0, 50, 30
1, 470877, Note_off_c, 0, 55, 56
1, 470880, Note_on_c, 0, 52, 62
1, 470896, Note_on_c, 0, 67, 79
1, 470911, Note_off_c, 0, 52, 64
1, 470913, Note_on_c, 0, 58, 62
1, 470913, Note_off_c, 0, 50, 63
1, 470930, Note_off_c, 0, 67, 60
1, 470933, Note_off_c, 0, 58, 64
1, 471047, Note_on_c, 0, 57, 75
1, 471053, Note_on_c, 0, 55, 73
1, 471156, Control_c, 0, 64, 83
1, 471170, Control_c, 0, 64, 60
1, 471172, Note_off_c, 0, 55, 61
1, 471185, Control_c, 0, 64, 0
1, 471206, Note_on_c, 0, 38, 58
1, 471211, Note_on_c, 0, 50, 46
1, 471217, Note_on_c, 0, 54, 72
1, 471220, Note_on_c, 0, 62, 74
1, 471229, Note_off_c, 0, 57, 62
1, 471235, Note_off_c, 0, 50, 57
1, 471238, Note_off_c, 0, 38, 63
1, 471244, Control_c, 0, 64, 55
1, 471245, Note_off_c, 0, 54, 67
1, 471259, Control_c, 0, 64, 68
1, 471264, Note_off_c, 0, 62, 63
1, 471274, Control_c, 0, 64, 85
1, 471289, Control_c, 0, 64, 127
1, 471345, Note_on_c, 0, 50, 42
1, 471367, Note_on_c, 0, 45, 52
1, 471398, Note_on_c, 0, 54, 3
1, 471410, Note_on_c, 0, 64, 58
1, 471411, Note_off_c, 0, 45, 61
1, 471422, Note_on_c, 0, 57, 40
1, 471422, Note_off_c, 0, 50, 61
1, 471434, Note_off_c, 0, 54, 44
1, 471445, Note_off_c, 0, 64, 62
1, 471468, Note_off_c, 0, 57, 41
1, 471506, Note_on_c, 0, 45, 56
1, 471513, Note_on_c, 0, 50, 34
1, 471516, Note_on_c, 0, 54, 45
1, 471520, Note_on_c, 0, 57, 17
1, 471545, Note_off_c, 0, 45, 61
1, 471546, Note_on_c, 0, 66, 63
1, 471551, Note_off_c, 0, 54, 61
1, 471554, Note_off_c, 0, 50, 62
1, 471562, Note_off_c, 0, 57, 51
1, 471583, Note_off_c, 0, 66, 60
1, 471614, Poly_aftertouch_c, 0, 62, 0
1, 471636, Poly_aftertouch_c, 0, 62, 0
1, 471639, Note_on_c, 0, 45, 60
1, 471658, Note_on_c, 0, 54, 50
1, 471661, Note_on_c, 0, 57, 40
1, 471663, Note_on_c, 0, 50, 42
1, 471678, Note_off_c, 0, 45, 60
1, 471691, Note_off_c, 0, 54, 59
1, 471695, Note_on_c, 0, 69, 69
1, 471696, Note_off_c, 0, 57, 52
1, 471699, Note_off_c, 0, 50, 60
1, 471706, Note_on_c, 0, 64, 53
1, 471723, Note_off_c, 0, 69, 65
1, 471732, Note_off_c, 0, 64, 62
1, 471768, Note_on_c, 0, 45, 60
1, 471780, Note_on_c, 0, 57, 56
1, 471783, Note_on_c, 0, 54, 59
1, 471791, Note_on_c, 0, 50, 46
1, 471816, Note_off_c, 0, 45, 54
1, 471820, Note_off_c, 0, 57, 61
1, 471824, Note_off_c, 0, 54, 61
1, 471828, Note_off_c, 0, 50, 63
1, 471831, Note_on_c, 0, 74, 76
1, 471831, Note_on_c, 0, 66, 74
1, 471857, Note_off_c, 0, 66, 67
1, 471866, Note_off_c, 0, 74, 61
1, 471896, Note_on_c, 0, 57, 68
1, 471899, Note_on_c, 0, 45, 59
1, 471911, Note_on_c, 0, 54, 65
1, 471917, Note_on_c, 0, 50, 62
1, 471961, Note_off_c, 0, 54, 60
1, 471965, Note_on_c, 0, 76, 89
1, 471965, Note_off_c, 0, 57, 59
1, 471967, Note_off_c, 0, 45, 61
1, 471969, Note_off_c, 0, 50, 60
1, 471978, Note_on_c, 0, 69, 70
1, 472001, Note_off_c, 0, 69, 70
1, 472006, Note_off_c, 0, 76, 66
1, 472039, Note_on_c, 0, 57, 79
1, 472044, Note_on_c, 0, 45, 66
1, 472048, Note_on_c, 0, 54, 73
1, 472060, Note_on_c, 0, 50, 65
1, 472112, Note_off_c, 0, 57, 63
1, 472117, Note_on_c, 0, 78, 97
1, 472120, Note_on_c, 0, 74, 85
1, 472140, Note_off_c, 0, 74, 72
1, 472141, Note_off_c, 0, 45, 63
1, 472142, Note_off_c, 0, 50, 63
1, 472142, Note_off_c, 0, 54, 63
1, 472159, Note_off_c, 0, 78, 64
1, 472283, Note_on_c, 0, 69, 95
1, 472286, Note_on_c, 0, 67, 85
1, 472387, Control_c, 0, 64, 97
1, 472402, Control_c, 0, 64, 64
1, 472412, Note_off_c, 0, 67, 62
1, 472416, Control_c, 0, 64, 0
1, 472433, Note_on_c, 0, 50, 84
1, 472437, Note_on_c, 0, 38, 74
1, 472454, Note_on_c, 0, 66, 87
1, 472454, Note_on_c, 0, 74, 95
1, 472460, Note_off_c, 0, 38, 66
1, 472461, Control_c, 0, 64, 44
1, 472463, Note_off_c, 0, 50, 67
1, 472475, Control_c, 0, 64, 65
1, 472479, Note_off_c, 0, 69, 62
1, 472490, Control_c, 0, 64, 83
1, 472495, Note_off_c, 0, 66, 64
1, 472505, Control_c, 0, 64, 127
1, 472524, Note_off_c, 0, 74, 67
1, 472567, Note_on_c, 0, 58, 76
1, 472609, Note_on_c, 0, 52, 34
1, 472614, Note_on_c, 0, 50, 28
1, 472618, Note_on_c, 0, 62, 46
1, 472642, Note_off_c, 0, 52, 57
1, 472647, Poly_aftertouch_c, 0, 60, 127
1, 472649, Note_on_c, 0, 69, 77
1, 472651, Note_off_c, 0, 62, 63
1, 472653, Note_off_c, 0, 50, 49
1, 472654, Note_on_c, 0, 76, 75
1, 472665, Poly_aftertouch_c, 0, 57, 127
1, 472666, Note_off_c, 0, 58, 53
1, 472677, Note_off_c, 0, 69, 66
1, 472679, Poly_aftertouch_c, 0, 60, 0
1, 472681, Note_off_c, 0, 76, 66
1, 472720, Note_on_c, 0, 57, 32
1, 472731, Note_on_c, 0, 50, 73
1, 472731, Note_on_c, 0, 54, 69
1, 472734, Note_on_c, 0, 60, 72
1, 472736, Note_on_c, 0, 62, 57
1, 472780, Note_off_c, 0, 60, 61
1, 472782, Note_on_c, 0, 74, 81
1, 472785, Note_off_c, 0, 62, 61
1, 472786, Note_off_c, 0, 50, 61
1, 472790, Note_on_c, 0, 78, 87
1, 472794, Note_off_c, 0, 54, 62
1, 472797, Note_off_c, 0, 57, 63
1, 472806, Note_off_c, 0, 74, 67
1, 472839, Note_off_c, 0, 78, 65
1, 472864, Note_on_c, 0, 54, 63
1, 472867, Note_on_c, 0, 57, 61
1, 472867, Note_on_c, 0, 60, 69
1, 472871, Note_on_c, 0, 50, 73
1, 472875, Note_on_c, 0, 62, 77
1, 472928, Note_on_c, 0, 81, 98
1, 472930, Note_off_c, 0, 50, 61
1, 472933, Note_off_c, 0, 60, 63
1, 472934, Note_on_c, 0, 76, 90
1, 472934, Note_off_c, 0, 62, 60
1, 472949, Note_off_c, 0, 54, 62
1, 472949, Note_off_c, 0, 57, 62
1, 472958, Note_off_c, 0, 76, 67
1, 472972, Note_off_c, 0, 81, 65
1, 473006, Note_on_c, 0, 54, 68
1, 473007, Note_on_c, 0, 60, 79
1, 473008, Note_on_c, 0, 57, 64
1, 473011, Note_on_c, 0, 62, 76
1, 473017, Note_on_c, 0, 50, 71
1, 473078, Note_on_c, 0, 78, 99
1, 473078, Note_on_c, 0, 86, 92
1, 473078, Note_off_c, 0, 50, 62
1, 473083, Note_off_c, 0, 60, 62
1, 473086, Note_off_c, 0, 62, 62
1, 473097, Note_off_c, 0, 57, 63
1, 473103, Note_off_c, 0, 54, 63
1, 473122, Note_off_c, 0, 78, 62
1, 473134, Note_off_c, 0, 86, 67
1, 473158, Note_on_c, 0, 60, 83
1, 473160, Note_on_c, 0, 54, 70
1, 473160, Note_on_c, 0, 62, 77
1, 473163, Note_on_c, 0, 57, 66
1, 473165, Note_on_c, 0, 50, 77
1, 473228, Note_off_c, 0, 50, 61
1, 473228, Note_off_c, 0, 60, 59
1, 473231, Note_off_c, 0, 62, 60
1, 473233, Note_on_c, 0, 88, 97
1, 473236, Note_on_c, 0, 81, 87
1, 473238, Note_off_c, 0, 57, 64
1, 473244, Note_off_c, 0, 54, 62
1, 473259, Note_off_c, 0, 81, 66
1, 473271, Note_off_c, 0, 88, 66
1, 473312, Note_on_c, 0, 60, 83
1, 473313, Note_on_c, 0, 62, 80
1, 473316, Note_on_c, 0, 54, 65
1, 473319, Note_on_c, 0, 50, 77
1, 473321, Note_on_c, 0, 57, 66
1, 473392, Note_off_c, 0, 62, 64
1, 473402, Note_off_c, 0, 50, 62
1, 473402, Note_off_c, 0, 60, 63
1, 473407, Note_on_c, 0, 90, 98
1, 473408, Note_on_c, 0, 86, 89
1, 473425, Note_off_c, 0, 86, 73
1, 473434, Note_off_c, 0, 57, 63
1, 473447, Note_off_c, 0, 90, 63
1, 473450, Note_off_c, 0, 54, 63
1, 473631, Note_on_c, 0, 62, 91
1, 473635, Note_on_c, 0, 60, 86
1, 473773, Control_c, 0, 64, 73
1, 473789, Control_c, 0, 64, 13
1, 473791, Note_off_c, 0, 60, 62
1, 473804, Control_c, 0, 64, 0
1, 473809, Note_on_c, 0, 50, 71
1, 473812, Note_on_c, 0, 38, 67
1, 473827, Note_on_c, 0, 59, 90
1, 473834, Note_on_c, 0, 67, 92
1, 473852, Note_off_c, 0, 38, 65
1, 473856, Control_c, 0, 64, 51
1, 473862, Note_off_c, 0, 62, 63
1, 473862, Note_off_c, 0, 50, 63
1, 473870, Control_c, 0, 64, 66
1, 473885, Note_off_c, 0, 59, 65
1, 473885, Control_c, 0, 64, 82
1, 473900, Control_c, 0, 64, 127
1, 473945, Note_off_c, 0, 67, 64
1, 474003, Note_on_c, 0, 50, 54
1, 474005, Note_on_c, 0, 59, 56
1, 474006, Note_on_c, 0, 55, 56
1, 474048, Note_off_c, 0, 59, 54
1, 474056, Note_off_c, 0, 50, 59
1, 474057, Note_on_c, 0, 69, 72
1, 474064, Note_off_c, 0, 55, 55
1, 474066, Note_on_c, 0, 62, 60
1, 474097, Note_off_c, 0, 62, 65
1, 474122, Note_off_c, 0, 69, 61
1, 474146, Note_on_c, 0, 55, 58
1, 474147, Note_on_c, 0, 59, 64
1, 474161, Note_on_c, 0, 50, 57
1, 474185, Note_off_c, 0, 59, 59
1, 474186, Note_on_c, 0, 71, 69
1, 474194, Note_off_c, 0, 50, 65
1, 474198, Note_on_c, 0, 67, 55
1, 474204, Note_off_c, 0, 55, 60
1, 474215, Note_off_c, 0, 67, 66
1, 474237, Note_off_c, 0, 71, 64
1, 474278, Note_on_c, 0, 50, 61
1, 474285, Note_on_c, 0, 59, 70
1, 474286, Note_on_c, 0, 55, 64
1, 474322, Note_on_c, 0, 69, 77
1, 474330, Note_off_c, 0, 59, 62
1, 474340, Note_off_c, 0, 50, 60
1, 474341, Note_on_c, 0, 76, 63
1, 474341, Note_on_c, 0, 74, 66
1, 474348, Note_off_c, 0, 55, 61
1, 474364, Note_off_c, 0, 69, 59
1, 474376, Note_off_c, 0, 74, 62
1, 474376, Note_off_c, 0, 76, 63
1, 474421, Note_on_c, 0, 55, 67
1, 474421, Note_on_c, 0, 59, 76
1, 474422, Note_on_c, 0, 50, 67
1, 474471, Note_on_c, 0, 71, 87
1, 474472, Note_on_c, 0, 79, 86
1, 474475, Note_off_c, 0, 59, 61
1, 474485, Note_off_c, 0, 55, 61
1, 474487, Note_off_c, 0, 50, 63
1, 474504, Note_off_c, 0, 71, 61
1, 474531, Note_off_c, 0, 79, 66
1, 474564, Note_on_c, 0, 59, 79
1, 474564, Note_on_c, 0, 50, 65
1, 474567, Note_on_c, 0, 55, 69
1, 474623, Note_on_c, 0, 81, 98
1, 474633, Note_on_c, 0, 74, 74
1, 474642, Note_off_c, 0, 50, 62
1, 474645, Note_off_c, 0, 59, 60
1, 474646, Note_off_c, 0, 55, 60
1, 474657, Note_off_c, 0, 74, 69
1, 474683, Note_off_c, 0, 81, 64
1, 474708, Note_on_c, 0, 59, 71
1, 474713, Note_on_c, 0, 50, 70
1, 474716, Note_on_c, 0, 55, 73
1, 474776, Note_on_c, 0, 79, 96
1, 474779, Note_on_c, 0, 83, 95
1, 474782, Note_off_c, 0, 59, 59
1, 474785, Note_off_c, 0, 50, 62
1, 474792, Note_off_c, 0, 55, 62
1, 474814, Note_off_c, 0, 79, 68
1, 474833, Note_off_c, 0, 83, 65
1, 474865, Note_on_c, 0, 50, 75
1, 474869, Note_on_c, 0, 55, 79
1, 474872, Note_on_c, 0, 59, 86
1, 474931, Note_off_c, 0, 50, 63
1, 474935, Note_off_c, 0, 59, 56
1, 474949, Note_off_c, 0, 55, 60
1, 474949, Note_on_c, 0, 77, 101
1, 474953, Note_on_c, 0, 86, 96
1, 474979, Poly_aftertouch_c, 0, 53, 0
1, 475034, Note_on_c, 0, 59, 80
1, 475036, Note_on_c, 0, 55, 79
1, 475038, Note_on_c, 0, 50, 84
1, 475059, Note_off_c, 0, 59, 69
1, 475065, Note_off_c, 0, 55, 67
1, 475084, Note_off_c, 0, 50, 65
1, 475125, Note_off_c, 0, 77, 62
1, 475126, Note_off_c, 0, 86, 63
1, 475153, Control_c, 0, 64, 73
1, 475168, Control_c, 0, 64, 0
1, 475187, Note_on_c, 0, 85, 97
1, 475187, Note_on_c, 0, 76, 92
1, 475189, Note_on_c, 0, 40, 73
1, 475191, Note_on_c, 0, 52, 77
1, 475193, Note_on_c, 0, 38, 67
1, 475200, Note_on_c, 0, 50, 64
1, 475208, Note_on_c, 0, 82, 68
1, 475212, Control_c, 0, 64, 46
1, 475214, Note_off_c, 0, 40, 65
1, 475216, Note_off_c, 0, 52, 69
1, 475220, Note_off_c, 0, 38, 55
1, 475223, Note_off_c, 0, 50, 61
1, 475223, Note_off_c, 0, 82, 66
1, 475227, Control_c, 0, 64, 66
1, 475239, Note_off_c, 0, 76, 62
1, 475242, Control_c, 0, 64, 87
1, 475257, Control_c, 0, 64, 127
1, 475263, Note_off_c, 0, 85, 64
1, 475359, Note_on_c, 0, 55, 51
1, 475364, Note_on_c, 0, 52, 27
1, 475364, Note_on_c, 0, 58, 64
1, 475381, Note_on_c, 0, 50, 43
1, 475381, Note_on_c, 0, 61, 57
1, 475423, Note_on_c, 0, 82, 79
1, 475423, Note_off_c, 0, 61, 62
1, 475428, Note_off_c, 0, 50, 60
1, 475432, Note_on_c, 0, 73, 73
1, 475436, Note_off_c, 0, 58, 61
1, 475444, Note_off_c, 0, 52, 64
1, 475450, Note_off_c, 0, 55, 60
1, 475458, Note_off_c, 0, 73, 67
1, 475472, Note_off_c, 0, 82, 61
1, 475518, Note_on_c, 0, 61, 59
1, 475521, Note_on_c, 0, 58, 54
1, 475524, Note_on_c, 0, 55, 50
1, 475527, Note_on_c, 0, 50, 62
1, 475533, Note_on_c, 0, 52, 47
1, 475563, Note_off_c, 0, 50, 63
1, 475568, Note_off_c, 0, 61, 58
1, 475569, Note_off_c, 0, 58, 55
1, 475575, Note_off_c, 0, 52, 62
1, 475575, Note_off_c, 0, 55, 62
1, 475587, Note_on_c, 0, 79, 71
1, 475587, Note_on_c, 0, 70, 79
1, 475619, Note_off_c, 0, 70, 60
1, 475619, Note_off_c, 0, 79, 59
1, 475671, Note_on_c, 0, 50, 49
1, 475673, Note_on_c, 0, 52, 51
1, 475679, Note_on_c, 0, 58, 56
1, 475681, Note_on_c, 0, 55, 54
1, 475691, Note_on_c, 0, 61, 47
1, 475710, Note_off_c, 0, 50, 63
1, 475715, Note_off_c, 0, 58, 63
1, 475721, Note_on_c, 0, 67, 69
1, 475722, Note_off_c, 0, 55, 61
1, 475722, Note_off_c, 0, 61, 62
1, 475723, Note_off_c, 0, 52, 60
1, 475725, Note_on_c, 0, 76, 62
1, 475748, Note_off_c, 0, 67, 68
1, 475756, Note_off_c, 0, 76, 65
1, 475807, Note_on_c, 0, 61, 50
1, 475809, Note_on_c, 0, 50, 51
1, 475813, Note_on_c, 0, 55, 57
1, 475816, Note_on_c, 0, 58, 60
1, 475850, Note_on_c, 0, 52, 37
1, 475855, Note_on_c, 0, 82, 75
1, 475861, Note_off_c, 0, 50, 58
1, 475864, Note_off_c, 0, 58, 57
1, 475866, Note_off_c, 0, 55, 51
1, 475867, Note_off_c, 0, 61, 55
1, 475875, Note_off_c, 0, 52, 58
1, 475898, Note_on_c, 0, 73, 18
1, 475935, Note_off_c, 0, 82, 63
1, 475940, Note_off_c, 0, 73, 41
1, 475947, Note_on_c, 0, 61, 44
1, 475950, Note_on_c, 0, 55, 43
1, 475950, Note_on_c, 0, 58, 59
1, 475962, Note_on_c, 0, 50, 44
1, 475968, Note_on_c, 0, 52, 50
1, 475986, Note_on_c, 0, 70, 64
1, 475998, Note_on_c, 0, 79, 64
1, 476002, Note_off_c, 0, 50, 61
1, 476006, Note_off_c, 0, 61, 54
1, 476007, Note_off_c, 0, 52, 62
1, 476013, Note_off_c, 0, 55, 53
1, 476013, Note_off_c, 0, 58, 48
1, 476025, Note_off_c, 0, 79, 66
1, 476030, Note_off_c, 0, 70, 63
1, 476063, Note_on_c, 0, 58, 47
1, 476067, Note_on_c, 0, 61, 49
1, 476076, Note_on_c, 0, 55, 45
1, 476102, Note_on_c, 0, 50, 52
1, 476105, Note_on_c, 0, 52, 49
1, 476130, Note_on_c, 0, 76, 73
1, 476135, Note_on_c, 0, 67, 66
1, 476137, Note_off_c, 0, 50, 62
1, 476143, Note_off_c, 0, 52, 62
1, 476145, Note_off_c, 0, 61, 56
1, 476154, Note_off_c, 0, 55, 58
1, 476154, Note_off_c, 0, 58, 56
1, 476164, Note_off_c, 0, 67, 65
1, 476192, Note_off_c, 0, 76, 63
1, 476206, Note_on_c, 0, 58, 46
1, 476207, Note_on_c, 0, 61, 52
1, 476220, Note_on_c, 0, 55, 46
1, 476225, Note_on_c, 0, 50, 58
1, 476245, Note_on_c, 0, 52, 54
1, 476254, Note_on_c, 0, 73, 82
1, 476257, Note_on_c, 0, 64, 71
1, 476270, Note_off_c, 0, 50, 57
1, 476273, Note_off_c, 0, 61, 61
1, 476282, Note_off_c, 0, 52, 62
1, 476283, Note_off_c, 0, 64, 68
1, 476284, Note_off_c, 0, 58, 58
1, 476289, Note_off_c, 0, 55, 59
1, 476301, Note_off_c, 0, 73, 65
1, 476332, Note_on_c, 0, 58, 46
1, 476336, Note_on_c, 0, 61, 61
1, 476344, Note_on_c, 0, 55, 50
1, 476347, Note_on_c, 0, 50, 62
1, 476371, Note_on_c, 0, 52, 58
1, 476384, Note_on_c, 0, 79, 90
1, 476393, Note_on_c, 0, 70, 85
1, 476400, Note_off_c, 0, 50, 58
1, 476401, Note_off_c, 0, 61, 61
1, 476409, Note_off_c, 0, 52, 61
1, 476412, Note_off_c, 0, 58, 59
1, 476414, Note_off_c, 0, 55, 60
1, 476415, Note_off_c, 0, 70, 69
1, 476437, Note_off_c, 0, 79, 64
1, 476460, Note_on_c, 0, 58, 53
1, 476465, Note_on_c, 0, 61, 63
1, 476472, Note_on_c, 0, 55, 52
1, 476480, Note_on_c, 0, 50, 60
1, 476496, Note_on_c, 0, 52, 63
1, 476518, Note_on_c, 0, 67, 88
1, 476518, Note_off_c, 0, 50, 61
1, 476522, Note_on_c, 0, 76, 79
1, 476527, Note_off_c, 0, 61, 60
1, 476538, Note_off_c, 0, 52, 61
1, 476545, Note_off_c, 0, 58, 57
1, 476546, Note_off_c, 0, 55, 59
1, 476546, Note_off_c, 0, 76, 69
1, 476561, Note_off_c, 0, 67, 65
1, 476602, Note_on_c, 0, 58, 52
1, 476609, Note_on_c, 0, 61, 67
1, 476612, Note_on_c, 0, 55, 55
1, 476620, Note_on_c, 0, 50, 68
1, 476637, Note_on_c, 0, 52, 61
1, 476650, Note_off_c, 0, 61, 57
1, 476651, Note_off_c, 0, 50, 63
1, 476659, Note_on_c, 0, 73, 87
1, 476660, Note_on_c, 0, 64, 81
1, 476665, Note_off_c, 0, 52, 68
1, 476666, Note_off_c, 0, 58, 61
1, 476669, Note_off_c, 0, 55, 61
1, 476686, Note_off_c, 0, 64, 66
1, 476717, Note_off_c, 0, 73, 61
1, 476740, Note_on_c, 0, 58, 66
1, 476743, Note_on_c, 0, 50, 59
1, 476746, Note_on_c, 0, 61, 79
1, 476748, Note_on_c, 0, 55, 67
1, 476750, Note_on_c, 0, 52, 62
1, 476779, Note_on_c, 0, 70, 83
1, 476827, Note_off_c, 0, 70, 64
1, 476857, Note_off_c, 0, 61, 58
1, 476874, Note_off_c, 0, 50, 62
1, 476875, Note_off_c, 0, 52, 61
1, 476881, Note_off_c, 0, 55, 58
1, 476894, Note_off_c, 0, 58, 61
1, 476917, Note_on_c, 0, 76, 94
1, 476922, Note_on_c, 0, 67, 89
1, 476952, Note_off_c, 0, 67, 62
1, 476976, Note_off_c, 0, 76, 61
1, 477070, Note_on_c, 0, 73, 83
1, 477073, Note_on_c, 0, 64, 76
1, 477105, Note_off_c, 0, 73, 62
1, 477106, Note_off_c, 0, 64, 64
1, 477203, Note_on_c, 0, 70, 83
1, 477216, Note_on_c, 0, 61, 71
1, 477245, Note_off_c, 0, 61, 65
1, 477276, Note_off_c, 0, 70, 58
1, 477336, Note_on_c, 0, 58, 63
1, 477339, Note_on_c, 0, 67, 71
1, 477360, Note_off_c, 0, 58, 61
1, 477367, Note_off_c, 0, 67, 63
1, 477490, Control_c, 0, 64, 91
1, 477500, Note_on_c, 0, 67, 60
1, 477505, Control_c, 0, 64, 72
1, 477510, Note_on_c, 0, 76, 74
1, 477520, Control_c, 0, 64, 59
1, 477534, Control_c, 0, 64, 43
1, 477549, Control_c, 0, 64, 46
1, 477564, Control_c, 0, 64, 53
1, 477575, Note_off_c, 0, 67, 61
1, 477579, Control_c, 0, 64, 59
1, 477581, Note_on_c, 0, 73, 61
1, 477595, Note_on_c, 0, 64, 50
1, 477600, Note_off_c, 0, 76, 56
1, 477602, Control_c, 0, 64, 63
1, 477616, Control_c, 0, 64, 66
1, 477631, Control_c, 0, 64, 71
1, 477646, Control_c, 0, 64, 79
1, 477646, Note_off_c, 0, 64, 60
1, 477652, Note_on_c, 0, 61, 60
1, 477661, Control_c, 0, 64, 94
1, 477661, Note_on_c, 0, 70, 65
1, 477670, Note_off_c, 0, 73, 59
1, 477675, Control_c, 0, 64, 127
1, 477713, Note_on_c, 0, 58, 52
1, 477718, Note_off_c, 0, 70, 64
1, 477721, Note_off_c, 0, 61, 60
1, 477736, Note_on_c, 0, 67, 60
1, 477748, Note_off_c, 0, 58, 65
1, 477778, Note_off_c, 0, 67, 54
1, 477795, Note_on_c, 0, 64, 59
1, 477804, Note_on_c, 0, 73, 79
1, 477853, Note_on_c, 0, 61, 66
1, 477855, Note_off_c, 0, 64, 62
1, 477866, Note_on_c, 0, 70, 57
1, 477897, Note_off_c, 0, 73, 61
1, 477907, Note_on_c, 0, 67, 63
1, 477927, Note_on_c, 0, 58, 59
1, 477942, Note_off_c, 0, 70, 63
1, 477948, Note_off_c, 0, 61, 62
1, 477971, Note_off_c, 0, 67, 63
1, 477974, Note_on_c, 0, 64, 69
1, 477980, Note_on_c, 0, 55, 60
1, 477998, Note_off_c, 0, 58, 62
1, 478013, Note_off_c, 0, 64, 52
1, 478019, Note_off_c, 0, 55, 64
1, 478038, Note_on_c, 0, 70, 89
1, 478048, Note_on_c, 0, 61, 82
1, 478076, Note_on_c, 0, 71, 49
1, 478100, Note_off_c, 0, 71, 57
1, 478106, Note_on_c, 0, 67, 69
1, 478106, Note_off_c, 0, 61, 60
1, 478108, Note_on_c, 0, 58, 75
1, 478128, Note_off_c, 0, 70, 59
1, 478144, Note_on_c, 0, 64, 72
1, 478160, Note_on_c, 0, 55, 62
1, 478162, Poly_aftertouch_c, 0, 68, 0
1, 478192, Note_off_c, 0, 58, 62
1, 478195, Note_off_c, 0, 67, 64
1, 478213, Note_on_c, 0, 52, 60
1, 478215, Note_on_c, 0, 61, 83
1, 478224, Note_off_c, 0, 64, 64
1, 478230, Note_off_c, 0, 55, 62
1, 478249, Note_off_c, 0, 52, 66
1, 478263, Note_off_c, 0, 61, 62
1, 478290, Note_on_c, 0, 58, 83
1, 478294, Note_on_c, 0, 67, 94
1, 478341, Note_off_c, 0, 58, 64
1, 478371, Note_on_c, 0, 55, 75
1, 478373, Note_on_c, 0, 64, 69
1, 478413, Note_off_c, 0, 67, 60
1, 478420, Note_on_c, 0, 61, 82
1, 478444, Note_off_c, 0, 64, 61
1, 478445, Note_off_c, 0, 55, 61
1, 478453, Note_on_c, 0, 52, 54
1, 478463, Poly_aftertouch_c, 0, 54, 0
1, 478472, Note_on_c, 0, 49, 66
1, 478481, Note_on_c, 0, 58, 73
1, 478484, Note_off_c, 0, 52, 63
1, 478488, Note_off_c, 0, 61, 62
1, 478515, Note_off_c, 0, 58, 65
1, 478516, Note_off_c, 0, 49, 60
1, 478546, Note_on_c, 0, 55, 89
1, 478554, Note_on_c, 0, 64, 91
1, 478633, Note_on_c, 0, 52, 78
1, 478634, Note_on_c, 0, 61, 74
1, 478645, Note_off_c, 0, 55, 61
1, 478663, Note_off_c, 0, 64, 60
1, 478685, Note_on_c, 0, 58, 80
1, 478698, Note_on_c, 0, 49, 70
1, 478707, Note_off_c, 0, 61, 59
1, 478709, Note_off_c, 0, 52, 62
1, 478745, Note_off_c, 0, 58, 64
1, 478746, Note_on_c, 0, 55, 77
1, 478748, Note_on_c, 0, 46, 59
1, 478776, Note_off_c, 0, 49, 62
1, 478795, Note_off_c, 0, 55, 54
1, 478806, Note_off_c, 0, 46, 59
1, 478818, Note_on_c, 0, 52, 84
1, 478820, Note_on_c, 0, 61, 90
1, 478898, Note_on_c, 0, 49, 76
1, 478904, Note_on_c, 0, 58, 76
1, 478944, Note_off_c, 0, 52, 61
1, 478952, Note_on_c, 0, 46, 55
1, 478961, Note_on_c, 0, 55, 77
1, 478976, Note_off_c, 0, 61, 54
1, 478993, Note_on_c, 0, 43, 64
1, 478994, Note_off_c, 0, 49, 63
1, 479008, Note_off_c, 0, 58, 59
1, 479021, Note_off_c, 0, 46, 63
1, 479042, Note_on_c, 0, 52, 80
1, 479043, Note_off_c, 0, 43, 63
1, 479054, Note_off_c, 0, 55, 61
1, 479116, Note_off_c, 0, 52, 64
1, 479142, Control_c, 0, 64, 87
1, 479143, Note_on_c, 0, 38, 90
1, 479144, Note_on_c, 0, 64, 98
1, 479157, Control_c, 0, 64, 58
1, 479172, Control_c, 0, 64, 0
1, 479230, Control_c, 0, 64, 42
1, 479244, Note_on_c, 0, 61, 72
1, 479245, Control_c, 0, 64, 63
1, 479260, Control_c, 0, 64, 75
1, 479275, Control_c, 0, 64, 122
1, 479290, Control_c, 0, 64, 127
1, 479301, Note_on_c, 0, 58, 69
1, 479318, Note_off_c, 0, 64, 58
1, 479337, Note_on_c, 0, 55, 70
1, 479375, Note_off_c, 0, 61, 62
1, 479384, Note_on_c, 0, 52, 63
1, 479443, Note_off_c, 0, 58, 52
1, 479462, Note_off_c, 0, 55, 58
1, 479468, Note_off_c, 0, 52, 56
1, 479471, Note_on_c, 0, 49, 64
1, 479530, Note_on_c, 0, 46, 76
1, 479540, Note_off_c, 0, 49, 62
1, 479602, Note_on_c, 0, 49, 66
1, 479619, Note_off_c, 0, 46, 62
1, 479677, Note_on_c, 0, 52, 68
1, 479702, Note_off_c, 0, 49, 60
1, 479727, Note_on_c, 0, 55, 68
1, 479730, Note_off_c, 0, 52, 63
1, 479784, Note_on_c, 0, 58, 62
1, 479805, Note_off_c, 0, 55, 62
1, 479814, Note_on_c, 0, 61, 71
1, 479843, Note_off_c, 0, 58, 63
1, 479857, Note_off_c, 0, 61, 62
1, 479902, Note_on_c, 0, 64, 78
1, 479957, Note_on_c, 0, 67, 84
1, 479970, Note_off_c, 0, 64, 60
1, 480006, Note_on_c, 0, 70, 75
1, 480034, Note_off_c, 0, 67, 60
1, 480044, Note_on_c, 0, 73, 84
1, 480061, Note_off_c, 0, 70, 67
1, 480064, Note_off_c, 0, 73, 70
1, 480085, Note_on_c, 0, 74, 46
1, 480107, Note_off_c, 0, 74, 41
1, 480117, Note_on_c, 0, 76, 88
1, 480171, Note_on_c, 0, 79, 89
1, 480209, Note_off_c, 0, 76, 61
1, 480226, Note_on_c, 0, 82, 76
1, 480260, Note_on_c, 0, 85, 88
1, 480265, Note_off_c, 0, 79, 67
1, 480284, Note_off_c, 0, 82, 67
1, 480296, Note_off_c, 0, 85, 68
1, 480335, Note_on_c, 0, 88, 84
1, 480386, Note_on_c, 0, 91, 86
1, 480452, Note_off_c, 0, 88, 53
1, 480458, Note_on_c, 0, 94, 71
1, 480478, Note_on_c, 0, 97, 76
1, 480520, Note_off_c, 0, 91, 63
1, 480520, Note_off_c, 0, 94, 62
1, 480546, Note_on_c, 0, 100, 101
1, 480589, Note_off_c, 0, 97, 65
1, 480604, Note_off_c, 0, 100, 68
1, 481009, Note_off_c, 0, 38, 36
1, 481216, Note_on_c, 0, 61, 91
1, 481218, Note_on_c, 0, 49, 87
1, 481234, Control_c, 0, 64, 107
1, 481249, Control_c, 0, 64, 76
1, 481263, Control_c, 0, 64, 57
1, 481278, Control_c, 0, 64, 9
1, 481293, Control_c, 0, 64, 0
1, 481307, Control_c, 0, 64, 11
1, 481322, Control_c, 0, 64, 29
1, 481345, Control_c, 0, 64, 42
1, 481360, Control_c, 0, 64, 54
1, 481375, Control_c, 0, 64, 59
1, 481389, Control_c, 0, 64, 63
1, 481404, Control_c, 0, 64, 66
1, 481419, Control_c, 0, 64, 71
1, 481434, Control_c, 0, 64, 84
1, 481449, Control_c, 0, 64, 127
1, 481585, Note_off_c, 0, 49, 60
1, 481673, Note_on_c, 0, 50, 86
1, 481675, Note_on_c, 0, 62, 84
1, 481686, Control_c, 0, 64, 112
1, 481700, Control_c, 0, 64, 84
1, 481715, Control_c, 0, 64, 68
1, 481730, Control_c, 0, 64, 49
1, 481745, Control_c, 0, 64, 28
1, 481760, Control_c, 0, 64, 33
1, 481772, Note_off_c, 0, 61, 62
1, 481775, Control_c, 0, 64, 43
1, 481790, Control_c, 0, 64, 52
1, 481805, Control_c, 0, 64, 58
1, 481820, Control_c, 0, 64, 62
1, 481835, Control_c, 0, 64, 66
1, 481850, Control_c, 0, 64, 70
1, 481864, Control_c, 0, 64, 78
1, 481879, Control_c, 0, 64, 89
1, 481894, Control_c, 0, 64, 103
1, 481909, Control_c, 0, 64, 127
1, 481996, Note_off_c, 0, 62, 47
1, 482018, Note_off_c, 0, 50, 58
1, 482091, Note_on_c, 0, 31, 64
1, 482094, Control_c, 0, 64, 101
1, 482094, Note_on_c, 0, 43, 65
1, 482096, Note_on_c, 0, 58, 85
1, 482103, Note_on_c, 0, 50, 73
1, 482109, Control_c, 0, 64, 82
1, 482114, Note_on_c, 0, 62, 73
1, 482124, Control_c, 0, 64, 68
1, 482138, Control_c, 0, 64, 54
1, 482153, Control_c, 0, 64, 26
1, 482168, Control_c, 0, 64, 19
1, 482183, Control_c, 0, 64, 27
1, 482198, Control_c, 0, 64, 39
1, 482212, Control_c, 0, 64, 48
1, 482227, Control_c, 0, 64, 55
1, 482242, Control_c, 0, 64, 60
1, 482257, Control_c, 0, 64, 64
1, 482272, Control_c, 0, 64, 67
1, 482286, Control_c, 0, 64, 74
1, 482301, Control_c, 0, 64, 85
1, 482316, Control_c, 0, 64, 102
1, 482330, Control_c, 0, 64, 127
1, 482446, Note_off_c, 0, 62, 31
1, 482448, Note_off_c, 0, 43, 32
1, 482451, Note_off_c, 0, 50, 48
1, 482498, Note_off_c, 0, 58, 57
1, 482554, Note_on_c, 0, 57, 75
1, 482556, Note_on_c, 0, 29, 63
1, 482559, Note_on_c, 0, 41, 64
1, 482566, Note_on_c, 0, 50, 57
1, 482571, Note_on_c, 0, 62, 66
1, 482583, Control_c, 0, 64, 112
1, 482598, Control_c, 0, 64, 98
1, 482613, Control_c, 0, 64, 85
1, 482627, Control_c, 0, 64, 73
1, 482629, Note_off_c, 0, 31, 55
1, 482642, Control_c, 0, 64, 63
1, 482657, Control_c, 0, 64, 41
1, 482672, Control_c, 0, 64, 23
1, 482701, Control_c, 0, 64, 26
1, 482716, Control_c, 0, 64, 33
1, 482731, Control_c, 0, 64, 40
1, 482746, Control_c, 0, 64, 48
1, 482760, Control_c, 0, 64, 53
1, 482775, Control_c, 0, 64, 58
1, 482790, Control_c, 0, 64, 62
1, 482805, Control_c, 0, 64, 65
1, 482827, Control_c, 0, 64, 70
1, 482842, Control_c, 0, 64, 76
1, 482857, Control_c, 0, 64, 87
1, 482872, Control_c, 0, 64, 98
1, 482886, Control_c, 0, 64, 108
1, 482901, Control_c, 0, 64, 117
1, 482916, Control_c, 0, 64, 127
1, 482920, Note_off_c, 0, 62, 34
1, 482952, Note_off_c, 0, 41, 33
1, 483035, Note_off_c, 0, 50, 23
1, 483108, Control_c, 0, 64, 122
1, 483123, Control_c, 0, 64, 112
1, 483138, Control_c, 0, 64, 107
1, 483142, Note_on_c, 0, 28, 49
1, 483143, Note_on_c, 0, 55, 62
1, 483147, Note_on_c, 0, 40, 48
1, 483148, Note_on_c, 0, 50, 43
1, 483152, Control_c, 0, 64, 103
1, 483163, Note_on_c, 0, 62, 51
1, 483167, Control_c, 0, 64, 99
1, 483183, Control_c, 0, 64, 93
1, 483194, Note_off_c, 0, 57, 51
1, 483198, Control_c, 0, 64, 86
1, 483213, Control_c, 0, 64, 77
1, 483227, Control_c, 0, 64, 68
1, 483234, Note_off_c, 0, 29, 30
1, 483242, Control_c, 0, 64, 59
1, 483257, Control_c, 0, 64, 40
1, 483272, Control_c, 0, 64, 16
1, 483286, Control_c, 0, 64, 12
1, 483346, Control_c, 0, 64, 20
1, 483361, Control_c, 0, 64, 31
1, 483376, Control_c, 0, 64, 43
1, 483391, Control_c, 0, 64, 52
1, 483406, Control_c, 0, 64, 59
1, 483421, Control_c, 0, 64, 63
1, 483436, Control_c, 0, 64, 67
1, 483450, Control_c, 0, 64, 72
1, 483454, Note_off_c, 0, 50, 40
1, 483465, Control_c, 0, 64, 78
1, 483480, Control_c, 0, 64, 85
1, 483495, Control_c, 0, 64, 97
1, 483510, Control_c, 0, 64, 109
1, 483522, Note_off_c, 0, 55, 60
1, 483525, Control_c, 0, 64, 127
1, 483552, Note_off_c, 0, 40, 39
1, 483594, Note_off_c, 0, 62, 41
1, 483841, Note_on_c, 0, 38, 35
1, 483849, Note_on_c, 0, 26, 39
1, 483877, Note_on_c, 0, 53, 52
1, 484011, Note_on_c, 0, 62, 40
1, 484021, Control_c, 0, 64, 120
1, 484036, Control_c, 0, 64, 115
1, 484050, Control_c, 0, 64, 112
1, 484065, Control_c, 0, 64, 110
1, 484080, Control_c, 0, 64, 108
1, 484095, Control_c, 0, 64, 104
1, 484109, Control_c, 0, 64, 101
1, 484124, Control_c, 0, 64, 98
1, 484139, Control_c, 0, 64, 96
1, 484154, Control_c, 0, 64, 94
1, 484160, Note_on_c, 0, 69, 66
1, 484169, Control_c, 0, 64, 92
1, 484185, Control_c, 0, 64, 88
1, 484199, Control_c, 0, 64, 85
1, 484214, Control_c, 0, 64, 81
1, 484229, Control_c, 0, 64, 77
1, 484244, Control_c, 0, 64, 73
1, 484259, Control_c, 0, 64, 71
1, 484273, Control_c, 0, 64, 69
1, 484287, Note_off_c, 0, 28, 29
1, 484288, Control_c, 0, 64, 66
1, 484303, Control_c, 0, 64, 64
1, 484318, Control_c, 0, 64, 61
1, 484340, Control_c, 0, 64, 59
1, 484355, Control_c, 0, 64, 58
1, 484370, Control_c, 0, 64, 55
1, 484385, Control_c, 0, 64, 51
1, 484400, Control_c, 0, 64, 46
1, 484414, Control_c, 0, 64, 39
1, 484429, Control_c, 0, 64, 30
1, 484444, Control_c, 0, 64, 24
1, 484459, Control_c, 0, 64, 22
1, 484518, Control_c, 0, 64, 26
1, 484532, Control_c, 0, 64, 33
1, 484547, Control_c, 0, 64, 40
1, 484562, Control_c, 0, 64, 47
1, 484577, Control_c, 0, 64, 51
1, 484592, Control_c, 0, 64, 54
1, 484607, Control_c, 0, 64, 58
1, 484622, Control_c, 0, 64, 61
1, 484637, Control_c, 0, 64, 64
1, 484652, Control_c, 0, 64, 66
1, 484666, Control_c, 0, 64, 68
1, 484681, Control_c, 0, 64, 71
1, 484696, Control_c, 0, 64, 74
1, 484711, Control_c, 0, 64, 79
1, 484725, Control_c, 0, 64, 84
1, 484740, Control_c, 0, 64, 89
1, 484755, Control_c, 0, 64, 94
1, 484770, Control_c, 0, 64, 100
1, 484785, Control_c, 0, 64, 108
1, 484795, Note_off_c, 0, 69, 33
1, 484799, Control_c, 0, 64, 127
1, 484842, Note_off_c, 0, 62, 38
1, 484865, Note_off_c, 0, 26, 32
1, 484927, Note_off_c, 0, 38, 33
1, 485062, Note_off_c, 0, 53, 33
1, 485482, Note_on_c, 0, 65, 55
1, 485486, Note_on_c, 0, 57, 37
1, 485493, Note_on_c, 0, 53, 42
1, 485504, Note_on_c, 0, 38, 31
1, 485507, Note_on_c, 0, 62, 42
1, 485507, Note_on_c, 0, 26, 33
1, 486229, Note_off_c, 0, 26, 31
1, 486289, Note_off_c, 0, 38, 29
1, 486305, Note_off_c, 0, 57, 36
1, 486309, Note_off_c, 0, 53, 38
1, 486354, Note_off_c, 0, 62, 32
1, 486573, Note_off_c, 0, 65, 31
1, 487171, Note_on_c, 0, 57, 28
1, 487180, Note_on_c, 0, 53, 31
1, 487185, Note_on_c, 0, 62, 35
1, 487194, Note_on_c, 0, 38, 25
1, 487199, Note_on_c, 0, 26, 26
1, 489540, Note_off_c, 0, 38, 16
1, 489570, Note_off_c, 0, 62, 33
1, 489578, Note_off_c, 0, 53, 30
1, 489606, Note_off_c, 0, 57, 34
1, 489657, Note_off_c, 0, 26, 27
1, 489728, Control_c, 0, 64, 120
1, 489743, Control_c, 0, 64, 115
1, 489758, Control_c, 0, 64, 112
1, 489773, Control_c, 0, 64, 110
1, 489788, Control_c, 0, 64, 107
1, 489803, Control_c, 0, 64, 102
1, 489817, Control_c, 0, 64, 98
1, 489832, Control_c, 0, 64, 94
1, 489847, Control_c, 0, 64, 91
1, 489862, Control_c, 0, 64, 88
1, 489877, Control_c, 0, 64, 85
1, 489892, Control_c, 0, 64, 82
1, 489907, Control_c, 0, 64, 80
1, 489922, Control_c, 0, 64, 78
1, 489937, Control_c, 0, 64, 76
1, 489952, Control_c, 0, 64, 75
1, 489966, Control_c, 0, 64, 73
1, 489981, Control_c, 0, 64, 72
1, 489996, Control_c, 0, 64, 70
1, 490011, Control_c, 0, 64, 69
1, 490025, Control_c, 0, 64, 67
1, 490040, Control_c, 0, 64, 66
1, 490055, Control_c, 0, 64, 65
1, 490070, Control_c, 0, 64, 63
1, 490085, Control_c, 0, 64, 62
1, 490099, Control_c, 0, 64, 61
1, 490114, Control_c, 0, 64, 60
1, 490129, Control_c, 0, 64, 59
1, 490143, Control_c, 0, 64, 58
1, 490158, Control_c, 0, 64, 57
1, 490173, Control_c, 0, 64, 56
1, 490188, Control_c, 0, 64, 55
1, 490203, Control_c, 0, 64, 53
1, 490217, Control_c, 0, 64, 51
1, 490232, Control_c, 0, 64, 50
1, 490247, Control_c, 0, 64, 48
1, 490262, Control_c, 0, 64, 46
1, 490277, Control_c, 0, 64, 45
1, 490291, Control_c, 0, 64, 44
1, 490314, Control_c, 0, 64, 43
1, 490329, Control_c, 0, 64, 41
1, 490343, Control_c, 0, 64, 40
1, 490358, Control_c, 0, 64, 38
1, 490373, Control_c, 0, 64, 37
1, 490388, Control_c, 0, 64, 36
1, 490403, Control_c, 0, 64, 35
1, 490417, Control_c, 0, 64, 35
1, 490432, Control_c, 0, 64, 34
1, 490447, Control_c, 0, 64, 33
1, 490462, Control_c, 0, 64, 32
1, 490477, Control_c, 0, 64, 32
1, 490491, Control_c, 0, 64, 31
1, 490596, Control_c, 0, 64, 31
1, 490655, Control_c, 0, 64, 30
1, 490686, Control_c, 0, 64, 30
1, 490849, Control_c, 0, 64, 29
1, 491027, Control_c, 0, 64, 29
1, 491286, Control_c, 0, 64, 28
1, 491687, Control_c, 0, 64, 28
1, 491716, Control_c, 0, 64, 27
1, 491746, Control_c, 0, 64, 27
1, 491776, Control_c, 0, 64, 26
1, 491827, Control_c, 0, 64, 26
1, 491871, Control_c, 0, 64, 25
1, 491931, Control_c, 0, 64, 25
1, 492050, Control_c, 0, 64, 24
1, 492287, Control_c, 0, 64, 24
1, 492361, Control_c, 0, 64, 23
1, 492420, Control_c, 0, 64, 23
1, 492480, Control_c, 0, 64, 22
1, 492650, Control_c, 0, 64, 22
1, 492665, Control_c, 0, 64, 21
1, 492694, Control_c, 0, 64, 20
1, 492709, Control_c, 0, 64, 19
1, 492724, Control_c, 0, 64, 19
1, 492754, Control_c, 0, 64, 18
1, 492769, Control_c, 0, 64, 17
1, 492783, Control_c, 0, 64, 16
1, 492798, Control_c, 0, 64, 15
1, 492813, Control_c, 0, 64, 14
1, 492828, Control_c, 0, 64, 13
1, 492843, Control_c, 0, 64, 12
1, 492858, Control_c, 0, 64, 9
1, 492873, Control_c, 0, 64, 0
1, 492948, End_track
0, 0, End_of_file
