0, 0, Header, 0, 1, 384
1, 0, Start_track
1, 0, Title_t, "BalakirevGarden--Ozaki          "
1, 0, Text_t, "2011 ePiano Junior Competition"
1, 0, Text_t, "captured in spring and summer 2011"
1, 0, Text_t, "http://www.piano-e-competition.com/"
1, 0, Text_t, "standard-resolution version"
1, 0, Text_t, "File processed for distribution with software designed and coded by Dr. John Q. Walker, founder of Zenph Sound Innovations"
1, 0, Instrument_name_t, "Yamaha Disklavier Pro Mark IV concert grand piano, model DCFIIISM4PRO"
1, 0, Sequencer_specific, 39, 67, 113, 0, 1, 0, 1, 0, 66, 97, 108, 97, 107, 105, 114, 101, 118, 32, 71, 97, 114, 100, 101, 110, 77, 105, 122, 111, 114, 97, 32, 79, 122, 97, 107, 105, 32, 32, 32, 32
1, 0, Sequencer_specific, 6, 67, 113, 0, 0, 0, 69
1, 0, System_exclusive, 21, 67, 113, 126, 21, 0, 2, 2, 2, 5, 12, 8, 4, 14, 1, 4, 9, 3, 6, 8, 7, 247
1, 0, Sequencer_specific, 5, 67, 123, 12, 2, 1
1, 0, Tempo, 512820
1, 0, Time_signature, 4, 2, 24, 8
1, 0, System_exclusive, 5, 126, 127, 9, 1, 247
1, 1, System_exclusive, 8, 67, 16, 76, 0, 0, 126, 0, 247
1, 2, System_exclusive, 8, 67, 16, 76, 8, 9, 7, 1, 247
1, 3, Control_c, 0, 0, 108
1, 3, Control_c, 1, 0, 108
1, 3, Control_c, 2, 0, 0
1, 3, Control_c, 3, 0, 0
1, 3, Control_c, 4, 0, 0
1, 3, Control_c, 5, 0, 0
1, 3, Control_c, 6, 0, 0
1, 3, Control_c, 7, 0, 0
1, 3, Control_c, 8, 0, 0
1, 3, Control_c, 9, 0, 127
1, 3, Control_c, 10, 0, 0
1, 3, Control_c, 11, 0, 0
1, 3, Control_c, 12, 0, 0
1, 3, Control_c, 13, 0, 0
1, 3, Control_c, 14, 0, 0
1, 3, Control_c, 15, 0, 0
1, 4, Control_c, 0, 32, 0
1, 4, Control_c, 1, 32, 0
1, 4, Control_c, 2, 32, 0
1, 4, Control_c, 3, 32, 0
1, 4, Control_c, 4, 32, 0
1, 4, Control_c, 5, 32, 0
1, 4, Control_c, 6, 32, 0
1, 4, Control_c, 7, 32, 0
1, 4, Control_c, 8, 32, 0
1, 4, Control_c, 9, 32, 0
1, 4, Control_c, 10, 32, 0
1, 4, Control_c, 11, 32, 0
1, 4, Control_c, 12, 32, 0
1, 4, Control_c, 13, 32, 0
1, 4, Control_c, 14, 32, 0
1, 4, Control_c, 15, 32, 0
1, 5, Program_c, 0, 0
1, 5, Program_c, 1, 0
1, 5, Program_c, 2, 0
1, 5, Program_c, 3, 0
1, 5, Program_c, 4, 0
1, 5, Program_c, 5, 0
1, 5, Program_c, 6, 0
1, 5, Program_c, 7, 0
1, 5, Program_c, 8, 0
1, 5, Program_c, 9, 0
1, 5, Program_c, 10, 0
1, 5, Program_c, 11, 0
1, 5, Program_c, 12, 0
1, 5, Program_c, 13, 0
1, 5, Program_c, 14, 0
1, 5, Program_c, 15, 0
1, 6, Control_c, 0, 7, 100
1, 6, Control_c, 1, 7, 100
1, 6, Control_c, 2, 7, 100
1, 6, Control_c, 3, 7, 100
1, 6, Control_c, 4, 7, 100
1, 6, Control_c, 5, 7, 100
1, 6, Control_c, 6, 7, 100
1, 6, Control_c, 7, 7, 100
1, 6, Control_c, 8, 7, 100
1, 6, Control_c, 9, 7, 100
1, 6, Control_c, 10, 7, 100
1, 6, Control_c, 11, 7, 100
1, 6, Control_c, 12, 7, 100
1, 6, Control_c, 13, 7, 100
1, 6, Control_c, 14, 7, 100
1, 6, Control_c, 15, 7, 100
1, 42, Control_c, 0, 64, 15
1, 42, Control_c, 0, 67, 2
1, 79, Control_c, 0, 64, 31
1, 79, Control_c, 0, 67, 5
1, 116, Control_c, 0, 64, 46
1, 116, Control_c, 0, 67, 7
1, 153, Control_c, 0, 64, 63
1, 153, Control_c, 0, 67, 10
1, 190, Control_c, 0, 64, 77
1, 190, Control_c, 0, 67, 12
1, 226, Control_c, 0, 64, 94
1, 226, Control_c, 0, 67, 15
1, 263, Control_c, 0, 64, 108
1, 263, Control_c, 0, 67, 17
1, 300, Control_c, 0, 64, 127
1, 300, Control_c, 0, 67, 20
1, 388, Note_on_c, 0, 37, 39
1, 411, Control_c, 0, 67, 21
1, 514, Control_c, 0, 67, 21
1, 588, Control_c, 0, 67, 22
1, 638, Note_on_c, 0, 44, 42
1, 669, Note_off_c, 0, 37, 42
1, 693, Control_c, 0, 67, 22
1, 769, Note_off_c, 0, 44, 50
1, 804, Note_on_c, 0, 53, 52
1, 952, Note_off_c, 0, 53, 60
1, 953, Note_on_c, 0, 55, 57
1, 1026, Control_c, 0, 67, 23
1, 1079, Note_off_c, 0, 55, 57
1, 1085, Note_on_c, 0, 58, 61
1, 1212, Note_on_c, 0, 56, 62
1, 1233, Control_c, 0, 67, 24
1, 1242, Note_off_c, 0, 58, 62
1, 1262, Control_c, 0, 67, 24
1, 1277, Control_c, 0, 64, 122
1, 1292, Control_c, 0, 64, 110
1, 1307, Control_c, 0, 64, 102
1, 1307, Control_c, 0, 67, 25
1, 1321, Control_c, 0, 64, 98
1, 1335, Note_off_c, 0, 56, 55
1, 1336, Control_c, 0, 64, 95
1, 1338, Note_on_c, 0, 65, 60
1, 1351, Control_c, 0, 64, 93
1, 1366, Control_c, 0, 64, 92
1, 1381, Control_c, 0, 64, 91
1, 1441, Control_c, 0, 64, 92
1, 1456, Control_c, 0, 64, 92
1, 1471, Control_c, 0, 67, 24
1, 1472, Note_on_c, 0, 61, 63
1, 1486, Control_c, 0, 64, 93
1, 1486, Control_c, 0, 67, 24
1, 1500, Control_c, 0, 64, 94
1, 1515, Control_c, 0, 64, 94
1, 1515, Control_c, 0, 67, 23
1, 1530, Control_c, 0, 64, 95
1, 1530, Control_c, 0, 67, 22
1, 1544, Control_c, 0, 64, 96
1, 1544, Control_c, 0, 67, 22
1, 1559, Control_c, 0, 64, 96
1, 1559, Control_c, 0, 67, 21
1, 1574, Control_c, 0, 67, 20
1, 1588, Note_on_c, 0, 55, 58
1, 1589, Control_c, 0, 67, 19
1, 1626, Control_c, 0, 64, 97
1, 1627, Note_off_c, 0, 65, 33
1, 1685, Control_c, 0, 67, 18
1, 1691, Note_off_c, 0, 61, 34
1, 1700, Control_c, 0, 64, 97
1, 1700, Control_c, 0, 67, 17
1, 1713, Note_on_c, 0, 56, 54
1, 1715, Control_c, 0, 67, 17
1, 1720, Note_off_c, 0, 55, 49
1, 1730, Control_c, 0, 67, 16
1, 1759, Control_c, 0, 67, 16
1, 1774, Control_c, 0, 67, 15
1, 1789, Control_c, 0, 67, 14
1, 1804, Control_c, 0, 64, 97
1, 1841, Note_on_c, 0, 53, 61
1, 1843, Note_off_c, 0, 56, 61
1, 1848, Control_c, 0, 64, 96
1, 1863, Control_c, 0, 64, 96
1, 1892, Control_c, 0, 64, 95
1, 1907, Control_c, 0, 64, 95
1, 1937, Control_c, 0, 64, 94
1, 1952, Control_c, 0, 64, 94
1, 1961, Note_off_c, 0, 53, 61
1, 1965, Note_on_c, 0, 44, 53
1, 1967, Control_c, 0, 64, 93
1, 1982, Control_c, 0, 64, 92
1, 1997, Control_c, 0, 64, 91
1, 2000, Note_off_c, 0, 44, 64
1, 2011, Control_c, 0, 64, 90
1, 2026, Control_c, 0, 64, 89
1, 2041, Control_c, 0, 64, 87
1, 2041, Control_c, 0, 67, 15
1, 2056, Control_c, 0, 64, 84
1, 2070, Control_c, 0, 64, 82
1, 2070, Control_c, 0, 67, 16
1, 2085, Control_c, 0, 64, 79
1, 2100, Control_c, 0, 64, 77
1, 2100, Control_c, 0, 67, 16
1, 2115, Control_c, 0, 64, 75
1, 2115, Control_c, 0, 67, 17
1, 2119, Note_on_c, 0, 37, 49
1, 2130, Control_c, 0, 64, 73
1, 2144, Control_c, 0, 64, 70
1, 2159, Control_c, 0, 64, 67
1, 2159, Control_c, 0, 67, 17
1, 2174, Control_c, 0, 64, 63
1, 2174, Control_c, 0, 67, 18
1, 2190, Control_c, 0, 64, 58
1, 2205, Control_c, 0, 64, 52
1, 2220, Control_c, 0, 64, 49
1, 2235, Control_c, 0, 64, 49
1, 2249, Control_c, 0, 64, 49
1, 2264, Control_c, 0, 64, 50
1, 2279, Control_c, 0, 64, 53
1, 2292, Note_on_c, 0, 44, 52
1, 2294, Control_c, 0, 64, 57
1, 2308, Control_c, 0, 64, 61
1, 2323, Control_c, 0, 64, 64
1, 2333, Note_off_c, 0, 37, 62
1, 2338, Control_c, 0, 64, 69
1, 2338, Control_c, 0, 67, 17
1, 2360, Control_c, 0, 64, 75
1, 2360, Control_c, 0, 67, 17
1, 2375, Control_c, 0, 64, 84
1, 2390, Control_c, 0, 64, 94
1, 2390, Control_c, 0, 67, 16
1, 2405, Control_c, 0, 64, 106
1, 2405, Control_c, 0, 67, 16
1, 2408, Note_off_c, 0, 44, 60
1, 2420, Control_c, 0, 64, 115
1, 2430, Note_on_c, 0, 53, 53
1, 2435, Control_c, 0, 64, 122
1, 2449, Control_c, 0, 64, 125
1, 2553, Control_c, 0, 64, 122
1, 2568, Control_c, 0, 64, 120
1, 2575, Note_off_c, 0, 53, 51
1, 2587, Note_on_c, 0, 55, 54
1, 2597, Control_c, 0, 64, 119
1, 2612, Control_c, 0, 64, 117
1, 2627, Control_c, 0, 64, 115
1, 2642, Control_c, 0, 64, 113
1, 2656, Control_c, 0, 64, 112
1, 2671, Control_c, 0, 64, 111
1, 2674, Note_off_c, 0, 55, 55
1, 2686, Control_c, 0, 64, 110
1, 2700, Control_c, 0, 64, 110
1, 2715, Control_c, 0, 64, 108
1, 2719, Note_on_c, 0, 58, 60
1, 2730, Control_c, 0, 64, 106
1, 2745, Control_c, 0, 64, 104
1, 2760, Control_c, 0, 64, 101
1, 2775, Control_c, 0, 64, 99
1, 2789, Control_c, 0, 64, 97
1, 2804, Control_c, 0, 64, 94
1, 2819, Control_c, 0, 64, 93
1, 2834, Control_c, 0, 64, 91
1, 2849, Control_c, 0, 64, 89
1, 2849, Control_c, 0, 67, 16
1, 2852, Note_on_c, 0, 56, 53
1, 2864, Control_c, 0, 64, 87
1, 2869, Note_off_c, 0, 58, 59
1, 2879, Control_c, 0, 64, 85
1, 2893, Control_c, 0, 64, 84
1, 2908, Control_c, 0, 64, 82
1, 2908, Control_c, 0, 67, 17
1, 2923, Control_c, 0, 64, 80
1, 2938, Control_c, 0, 64, 78
1, 2950, Note_off_c, 0, 56, 58
1, 2953, Control_c, 0, 64, 77
1, 2967, Control_c, 0, 64, 76
1, 2968, Note_on_c, 0, 65, 54
1, 3013, Control_c, 0, 64, 76
1, 3028, Control_c, 0, 64, 77
1, 3058, Control_c, 0, 64, 78
1, 3072, Control_c, 0, 64, 79
1, 3094, Control_c, 0, 64, 80
1, 3094, Control_c, 0, 67, 17
1, 3107, Note_on_c, 0, 61, 52
1, 3109, Control_c, 0, 64, 81
1, 3123, Control_c, 0, 64, 83
1, 3138, Control_c, 0, 64, 85
1, 3153, Control_c, 0, 64, 88
1, 3168, Control_c, 0, 64, 92
1, 3183, Control_c, 0, 64, 96
1, 3198, Control_c, 0, 64, 98
1, 3213, Control_c, 0, 64, 100
1, 3234, Note_off_c, 0, 65, 36
1, 3243, Control_c, 0, 67, 17
1, 3246, Note_on_c, 0, 55, 50
1, 3257, Control_c, 0, 67, 16
1, 3287, Control_c, 0, 67, 16
1, 3314, Note_off_c, 0, 55, 54
1, 3317, Control_c, 0, 67, 15
1, 3346, Control_c, 0, 67, 14
1, 3368, Note_off_c, 0, 61, 31
1, 3374, Note_on_c, 0, 56, 53
1, 3391, Control_c, 0, 64, 99
1, 3420, Control_c, 0, 64, 99
1, 3435, Control_c, 0, 64, 98
1, 3495, Control_c, 0, 64, 98
1, 3508, Note_off_c, 0, 56, 60
1, 3513, Note_on_c, 0, 53, 59
1, 3584, Control_c, 0, 64, 97
1, 3637, Note_off_c, 0, 53, 57
1, 3642, Control_c, 0, 64, 97
1, 3645, Note_on_c, 0, 44, 48
1, 3681, Note_off_c, 0, 44, 63
1, 3717, Control_c, 0, 64, 96
1, 3761, Control_c, 0, 64, 96
1, 3761, Control_c, 0, 67, 15
1, 3776, Control_c, 0, 64, 95
1, 3807, Control_c, 0, 64, 94
1, 3821, Control_c, 0, 64, 93
1, 3821, Control_c, 0, 67, 16
1, 3836, Control_c, 0, 64, 92
1, 3859, Control_c, 0, 64, 91
1, 3860, Note_on_c, 0, 37, 52
1, 3874, Control_c, 0, 64, 90
1, 3889, Control_c, 0, 64, 88
1, 3889, Control_c, 0, 67, 16
1, 3903, Control_c, 0, 64, 86
1, 3918, Control_c, 0, 64, 84
1, 3918, Control_c, 0, 67, 17
1, 3933, Control_c, 0, 64, 82
1, 3947, Control_c, 0, 64, 78
1, 3947, Control_c, 0, 67, 17
1, 3962, Control_c, 0, 64, 74
1, 3962, Control_c, 0, 67, 18
1, 3977, Control_c, 0, 64, 68
1, 3992, Control_c, 0, 64, 62
1, 4007, Control_c, 0, 64, 53
1, 4021, Control_c, 0, 64, 41
1, 4051, Control_c, 0, 64, 45
1, 4066, Control_c, 0, 64, 51
1, 4070, Note_on_c, 0, 44, 56
1, 4081, Control_c, 0, 64, 56
1, 4095, Control_c, 0, 64, 61
1, 4110, Control_c, 0, 64, 66
1, 4116, Note_off_c, 0, 37, 62
1, 4125, Control_c, 0, 64, 72
1, 4140, Control_c, 0, 64, 82
1, 4155, Control_c, 0, 64, 96
1, 4170, Control_c, 0, 64, 115
1, 4185, Control_c, 0, 64, 127
1, 4238, Note_off_c, 0, 44, 53
1, 4271, Control_c, 0, 67, 17
1, 4275, Note_on_c, 0, 53, 44
1, 4326, Note_on_c, 0, 77, 79
1, 4375, Control_c, 0, 67, 17
1, 4435, Control_c, 0, 67, 16
1, 4524, Control_c, 0, 64, 125
1, 4524, Control_c, 0, 67, 16
1, 4528, Note_off_c, 0, 53, 37
1, 4538, Control_c, 0, 64, 120
1, 4545, Note_on_c, 0, 55, 41
1, 4553, Control_c, 0, 64, 117
1, 4568, Control_c, 0, 64, 115
1, 4583, Control_c, 0, 64, 114
1, 4606, Control_c, 0, 64, 113
1, 4621, Control_c, 0, 64, 112
1, 4636, Control_c, 0, 64, 111
1, 4650, Control_c, 0, 64, 109
1, 4665, Control_c, 0, 64, 108
1, 4680, Control_c, 0, 64, 107
1, 4680, Control_c, 0, 67, 15
1, 4686, Note_off_c, 0, 55, 37
1, 4695, Control_c, 0, 64, 105
1, 4710, Control_c, 0, 64, 105
1, 4724, Control_c, 0, 64, 104
1, 4731, Note_on_c, 0, 58, 48
1, 4739, Control_c, 0, 67, 14
1, 4769, Control_c, 0, 67, 14
1, 4784, Control_c, 0, 67, 13
1, 4813, Control_c, 0, 67, 12
1, 4828, Control_c, 0, 64, 105
1, 4843, Control_c, 0, 64, 106
1, 4843, Control_c, 0, 67, 12
1, 4858, Control_c, 0, 64, 106
1, 4858, Control_c, 0, 67, 11
1, 4878, Note_on_c, 0, 56, 49
1, 4887, Control_c, 0, 64, 107
1, 4887, Control_c, 0, 67, 11
1, 4902, Note_off_c, 0, 58, 52
1, 4902, Control_c, 0, 64, 107
1, 4917, Control_c, 0, 67, 10
1, 4932, Control_c, 0, 64, 108
1, 4947, Control_c, 0, 64, 108
1, 4962, Control_c, 0, 64, 109
1, 4962, Control_c, 0, 67, 9
1, 4976, Control_c, 0, 67, 9
1, 4991, Control_c, 0, 64, 109
1, 5013, Note_off_c, 0, 56, 58
1, 5021, Control_c, 0, 67, 8
1, 5050, Note_on_c, 0, 75, 80
1, 5050, Control_c, 0, 64, 110
1, 5051, Note_on_c, 0, 66, 35
1, 5080, Control_c, 0, 64, 110
1, 5080, Control_c, 0, 67, 0
1, 5094, Control_c, 0, 64, 111
1, 5151, Note_off_c, 0, 77, 51
1, 5205, Note_on_c, 0, 63, 55
1, 5273, Note_off_c, 0, 66, 40
1, 5356, Note_off_c, 0, 63, 57
1, 5365, Note_on_c, 0, 56, 43
1, 5377, Note_on_c, 0, 73, 80
1, 5399, Control_c, 0, 64, 110
1, 5429, Control_c, 0, 64, 110
1, 5432, Note_off_c, 0, 56, 62
1, 5498, Note_on_c, 0, 57, 60
1, 5501, Note_off_c, 0, 75, 53
1, 5517, Control_c, 0, 64, 109
1, 5591, Control_c, 0, 64, 109
1, 5593, Note_off_c, 0, 57, 60
1, 5609, Note_on_c, 0, 54, 57
1, 5613, Note_on_c, 0, 72, 87
1, 5621, Control_c, 0, 64, 108
1, 5636, Control_c, 0, 64, 108
1, 5651, Control_c, 0, 64, 107
1, 5666, Control_c, 0, 64, 107
1, 5669, Note_off_c, 0, 73, 60
1, 5696, Control_c, 0, 64, 106
1, 5702, Note_off_c, 0, 54, 62
1, 5711, Control_c, 0, 64, 105
1, 5722, Note_on_c, 0, 48, 53
1, 5725, Control_c, 0, 64, 105
1, 5740, Control_c, 0, 64, 104
1, 5749, Note_off_c, 0, 48, 61
1, 5755, Control_c, 0, 64, 102
1, 5770, Control_c, 0, 64, 101
1, 5785, Control_c, 0, 64, 99
1, 5799, Control_c, 0, 64, 97
1, 5814, Control_c, 0, 64, 95
1, 5829, Control_c, 0, 64, 89
1, 5844, Control_c, 0, 64, 76
1, 5859, Control_c, 0, 64, 64
1, 5860, Note_on_c, 0, 37, 49
1, 5860, Note_on_c, 0, 70, 82
1, 5873, Control_c, 0, 64, 38
1, 5888, Control_c, 0, 64, 12
1, 5903, Control_c, 0, 64, 19
1, 5909, Note_off_c, 0, 72, 63
1, 5917, Control_c, 0, 64, 31
1, 5932, Control_c, 0, 64, 45
1, 5947, Control_c, 0, 64, 55
1, 5947, Control_c, 0, 67, 8
1, 5962, Control_c, 0, 64, 63
1, 5970, Note_off_c, 0, 37, 61
1, 5977, Control_c, 0, 64, 69
1, 5991, Control_c, 0, 64, 79
1, 5992, Note_on_c, 0, 49, 56
1, 6006, Control_c, 0, 64, 95
1, 6021, Control_c, 0, 64, 127
1, 6025, Note_off_c, 0, 49, 65
1, 6107, Note_on_c, 0, 72, 87
1, 6130, Note_on_c, 0, 53, 60
1, 6147, Control_c, 0, 64, 120
1, 6162, Control_c, 0, 64, 114
1, 6166, Note_off_c, 0, 70, 56
1, 6177, Control_c, 0, 64, 110
1, 6193, Control_c, 0, 64, 107
1, 6193, Control_c, 0, 67, 9
1, 6208, Control_c, 0, 64, 104
1, 6222, Control_c, 0, 64, 102
1, 6235, Note_on_c, 0, 57, 54
1, 6237, Control_c, 0, 64, 99
1, 6237, Control_c, 0, 67, 9
1, 6252, Control_c, 0, 64, 94
1, 6267, Control_c, 0, 64, 91
1, 6277, Note_off_c, 0, 53, 58
1, 6282, Control_c, 0, 64, 88
1, 6288, Note_on_c, 0, 75, 70
1, 6296, Control_c, 0, 64, 87
1, 6311, Control_c, 0, 64, 85
1, 6326, Control_c, 0, 64, 83
1, 6340, Control_c, 0, 64, 80
1, 6355, Control_c, 0, 64, 78
1, 6355, Control_c, 0, 67, 10
1, 6361, Note_on_c, 0, 60, 36
1, 6369, Note_on_c, 0, 73, 87
1, 6370, Control_c, 0, 64, 76
1, 6385, Control_c, 0, 64, 74
1, 6400, Control_c, 0, 64, 73
1, 6405, Note_off_c, 0, 72, 62
1, 6412, Note_off_c, 0, 57, 30
1, 6414, Control_c, 0, 64, 71
1, 6429, Control_c, 0, 64, 70
1, 6433, Note_off_c, 0, 60, 41
1, 6444, Control_c, 0, 64, 69
1, 6459, Control_c, 0, 64, 69
1, 6474, Control_c, 0, 64, 68
1, 6485, Note_on_c, 0, 58, 49
1, 6489, Control_c, 0, 64, 68
1, 6504, Control_c, 0, 64, 67
1, 6505, Note_off_c, 0, 75, 52
1, 6519, Control_c, 0, 64, 66
1, 6533, Control_c, 0, 64, 66
1, 6548, Control_c, 0, 64, 65
1, 6563, Control_c, 0, 64, 65
1, 6568, Note_off_c, 0, 58, 58
1, 6578, Control_c, 0, 64, 64
1, 6593, Control_c, 0, 67, 11
1, 6608, Control_c, 0, 64, 63
1, 6608, Control_c, 0, 67, 11
1, 6622, Control_c, 0, 64, 63
1, 6624, Note_on_c, 0, 67, 53
1, 6637, Control_c, 0, 64, 62
1, 6652, Control_c, 0, 64, 62
1, 6652, Control_c, 0, 67, 12
1, 6667, Control_c, 0, 64, 61
1, 6682, Control_c, 0, 64, 61
1, 6696, Control_c, 0, 64, 60
1, 6696, Control_c, 0, 67, 12
1, 6711, Control_c, 0, 64, 59
1, 6726, Control_c, 0, 64, 58
1, 6730, Note_on_c, 0, 64, 51
1, 6740, Control_c, 0, 64, 59
1, 6755, Control_c, 0, 64, 59
1, 6766, Note_off_c, 0, 67, 56
1, 6770, Control_c, 0, 64, 60
1, 6785, Control_c, 0, 64, 61
1, 6800, Control_c, 0, 64, 63
1, 6814, Control_c, 0, 64, 64
1, 6829, Control_c, 0, 64, 66
1, 6852, Control_c, 0, 64, 69
1, 6858, Note_off_c, 0, 64, 60
1, 6867, Note_on_c, 0, 60, 43
1, 6867, Control_c, 0, 64, 73
1, 6882, Control_c, 0, 64, 79
1, 6886, Note_on_c, 0, 72, 68
1, 6896, Control_c, 0, 64, 86
1, 6911, Control_c, 0, 64, 94
1, 6926, Control_c, 0, 64, 99
1, 6940, Control_c, 0, 64, 104
1, 6950, Note_off_c, 0, 60, 64
1, 6955, Control_c, 0, 64, 108
1, 6956, Note_off_c, 0, 73, 59
1, 6970, Control_c, 0, 64, 110
1, 6985, Control_c, 0, 64, 112
1, 7028, Note_on_c, 0, 61, 48
1, 7060, Control_c, 0, 64, 111
1, 7075, Control_c, 0, 64, 110
1, 7090, Control_c, 0, 64, 110
1, 7105, Control_c, 0, 64, 109
1, 7119, Control_c, 0, 64, 108
1, 7126, Note_off_c, 0, 61, 49
1, 7133, Note_on_c, 0, 70, 74
1, 7134, Note_on_c, 0, 55, 46
1, 7134, Control_c, 0, 64, 108
1, 7149, Control_c, 0, 64, 107
1, 7163, Control_c, 0, 64, 106
1, 7167, Note_off_c, 0, 72, 61
1, 7178, Control_c, 0, 64, 106
1, 7194, Control_c, 0, 64, 105
1, 7211, Note_off_c, 0, 55, 55
1, 7224, Control_c, 0, 64, 104
1, 7238, Control_c, 0, 64, 104
1, 7238, Control_c, 0, 67, 12
1, 7241, Note_on_c, 0, 49, 51
1, 7253, Control_c, 0, 64, 102
1, 7268, Control_c, 0, 64, 101
1, 7276, Note_off_c, 0, 49, 64
1, 7283, Control_c, 0, 64, 99
1, 7298, Control_c, 0, 64, 98
1, 7312, Control_c, 0, 64, 97
1, 7327, Control_c, 0, 64, 95
1, 7342, Control_c, 0, 64, 94
1, 7357, Control_c, 0, 64, 93
1, 7371, Control_c, 0, 64, 89
1, 7386, Control_c, 0, 64, 80
1, 7389, Note_on_c, 0, 69, 66
1, 7395, Note_on_c, 0, 37, 44
1, 7395, Note_off_c, 0, 70, 61
1, 7401, Control_c, 0, 64, 67
1, 7416, Control_c, 0, 64, 52
1, 7431, Control_c, 0, 64, 0
1, 7461, Control_c, 0, 64, 32
1, 7461, Control_c, 0, 67, 12
1, 7475, Control_c, 0, 64, 50
1, 7490, Control_c, 0, 64, 61
1, 7501, Note_off_c, 0, 37, 61
1, 7505, Control_c, 0, 64, 68
1, 7520, Control_c, 0, 64, 77
1, 7535, Control_c, 0, 64, 94
1, 7541, Note_on_c, 0, 49, 48
1, 7550, Control_c, 0, 64, 127
1, 7578, Note_off_c, 0, 49, 64
1, 7666, Note_on_c, 0, 70, 65
1, 7680, Note_on_c, 0, 53, 42
1, 7705, Control_c, 0, 67, 13
1, 7750, Note_off_c, 0, 53, 61
1, 7750, Control_c, 0, 67, 14
1, 7779, Control_c, 0, 64, 116
1, 7781, Note_on_c, 0, 54, 50
1, 7794, Control_c, 0, 64, 112
1, 7809, Control_c, 0, 64, 109
1, 7824, Control_c, 0, 64, 106
1, 7839, Control_c, 0, 64, 103
1, 7854, Control_c, 0, 64, 100
1, 7854, Control_c, 0, 67, 14
1, 7860, Note_off_c, 0, 54, 58
1, 7869, Control_c, 0, 64, 99
1, 7884, Control_c, 0, 64, 98
1, 7888, Note_on_c, 0, 73, 64
1, 7899, Control_c, 0, 64, 97
1, 7914, Note_on_c, 0, 58, 35
1, 7914, Control_c, 0, 64, 95
1, 7926, Note_off_c, 0, 69, 37
1, 7929, Control_c, 0, 64, 92
1, 7942, Control_c, 0, 64, 90
1, 7955, Note_on_c, 0, 72, 70
1, 7957, Control_c, 0, 64, 88
1, 7972, Control_c, 0, 64, 87
1, 7979, Note_off_c, 0, 70, 40
1, 7986, Control_c, 0, 64, 86
1, 8001, Control_c, 0, 64, 85
1, 8016, Control_c, 0, 64, 82
1, 8031, Control_c, 0, 64, 80
1, 8046, Control_c, 0, 64, 78
1, 8060, Control_c, 0, 64, 76
1, 8066, Note_off_c, 0, 58, 36
1, 8075, Control_c, 0, 64, 75
1, 8090, Control_c, 0, 64, 73
1, 8092, Note_on_c, 0, 57, 43
1, 8104, Note_off_c, 0, 73, 53
1, 8105, Control_c, 0, 64, 72
1, 8119, Control_c, 0, 64, 70
1, 8134, Control_c, 0, 64, 69
1, 8149, Control_c, 0, 64, 67
1, 8164, Control_c, 0, 64, 67
1, 8171, Note_off_c, 0, 57, 61
1, 8194, Control_c, 0, 64, 67
1, 8209, Note_on_c, 0, 66, 56
1, 8209, Control_c, 0, 67, 14
1, 8224, Control_c, 0, 64, 68
1, 8239, Control_c, 0, 64, 69
1, 8253, Control_c, 0, 64, 70
1, 8268, Control_c, 0, 64, 72
1, 8283, Control_c, 0, 64, 75
1, 8283, Control_c, 0, 67, 13
1, 8298, Control_c, 0, 64, 80
1, 8312, Control_c, 0, 64, 87
1, 8327, Control_c, 0, 64, 98
1, 8327, Control_c, 0, 67, 12
1, 8330, Note_on_c, 0, 63, 65
1, 8349, Control_c, 0, 64, 119
1, 8364, Control_c, 0, 64, 127
1, 8380, Note_off_c, 0, 66, 53
1, 8408, Control_c, 0, 67, 12
1, 8467, Note_on_c, 0, 59, 55
1, 8474, Note_off_c, 0, 63, 59
1, 8488, Note_on_c, 0, 70, 74
1, 8512, Control_c, 0, 67, 11
1, 8530, Note_off_c, 0, 59, 60
1, 8598, Note_off_c, 0, 72, 54
1, 8612, Note_on_c, 0, 60, 65
1, 8736, Note_off_c, 0, 60, 40
1, 8789, Note_on_c, 0, 54, 43
1, 8802, Note_on_c, 0, 68, 82
1, 8854, Control_c, 0, 67, 12
1, 8877, Note_off_c, 0, 70, 59
1, 8937, Note_on_c, 0, 44, 51
1, 8952, Note_off_c, 0, 54, 33
1, 8957, Control_c, 0, 64, 122
1, 8972, Control_c, 0, 64, 117
1, 8973, Note_off_c, 0, 44, 64
1, 8987, Control_c, 0, 64, 113
1, 9002, Control_c, 0, 64, 110
1, 9017, Control_c, 0, 64, 107
1, 9031, Control_c, 0, 64, 106
1, 9046, Control_c, 0, 64, 105
1, 9046, Control_c, 0, 67, 12
1, 9061, Control_c, 0, 64, 102
1, 9076, Control_c, 0, 64, 90
1, 9098, Control_c, 0, 64, 72
1, 9101, Note_on_c, 0, 37, 58
1, 9113, Control_c, 0, 64, 54
1, 9128, Control_c, 0, 64, 0
1, 9172, Control_c, 0, 64, 38
1, 9187, Control_c, 0, 64, 56
1, 9202, Control_c, 0, 64, 63
1, 9202, Control_c, 0, 67, 13
1, 9216, Control_c, 0, 64, 69
1, 9230, Note_off_c, 0, 37, 60
1, 9231, Control_c, 0, 64, 83
1, 9246, Control_c, 0, 64, 110
1, 9253, Note_on_c, 0, 49, 60
1, 9261, Control_c, 0, 64, 127
1, 9291, Note_off_c, 0, 49, 64
1, 9380, Control_c, 0, 67, 12
1, 9440, Control_c, 0, 64, 119
1, 9450, Note_on_c, 0, 53, 40
1, 9455, Control_c, 0, 64, 116
1, 9470, Control_c, 0, 64, 113
1, 9485, Note_on_c, 0, 70, 74
1, 9485, Control_c, 0, 64, 110
1, 9499, Control_c, 0, 64, 105
1, 9514, Control_c, 0, 64, 102
1, 9529, Control_c, 0, 64, 99
1, 9544, Control_c, 0, 64, 97
1, 9550, Note_off_c, 0, 53, 56
1, 9558, Control_c, 0, 64, 95
1, 9566, Note_off_c, 0, 68, 57
1, 9573, Control_c, 0, 64, 94
1, 9588, Control_c, 0, 64, 94
1, 9603, Control_c, 0, 64, 92
1, 9613, Note_on_c, 0, 59, 50
1, 9618, Control_c, 0, 64, 91
1, 9632, Control_c, 0, 64, 90
1, 9647, Control_c, 0, 64, 90
1, 9662, Control_c, 0, 64, 89
1, 9677, Control_c, 0, 64, 88
1, 9692, Control_c, 0, 64, 87
1, 9706, Control_c, 0, 64, 87
1, 9721, Control_c, 0, 64, 86
1, 9729, Note_off_c, 0, 59, 55
1, 9736, Note_on_c, 0, 65, 76
1, 9736, Control_c, 0, 64, 86
1, 9738, Note_on_c, 0, 63, 56
1, 9751, Control_c, 0, 64, 85
1, 9765, Control_c, 0, 64, 84
1, 9780, Control_c, 0, 64, 83
1, 9795, Control_c, 0, 64, 82
1, 9798, Note_off_c, 0, 70, 57
1, 9810, Control_c, 0, 64, 82
1, 9825, Control_c, 0, 64, 81
1, 9847, Control_c, 0, 64, 80
1, 9862, Control_c, 0, 64, 80
1, 9871, Note_off_c, 0, 63, 33
1, 9873, Note_on_c, 0, 62, 51
1, 9877, Control_c, 0, 64, 78
1, 9887, Note_off_c, 0, 65, 56
1, 9892, Control_c, 0, 64, 77
1, 9907, Control_c, 0, 64, 77
1, 9914, Note_on_c, 0, 66, 60
1, 9921, Control_c, 0, 64, 76
1, 9936, Control_c, 0, 64, 75
1, 9953, Note_off_c, 0, 66, 61
1, 9965, Control_c, 0, 64, 74
1, 9976, Note_on_c, 0, 68, 64
1, 9980, Control_c, 0, 64, 73
1, 9982, Note_off_c, 0, 62, 51
1, 9995, Control_c, 0, 64, 72
1, 10010, Control_c, 0, 64, 71
1, 10015, Note_on_c, 0, 65, 56
1, 10025, Control_c, 0, 64, 70
1, 10026, Note_on_c, 0, 66, 76
1, 10039, Control_c, 0, 64, 69
1, 10054, Control_c, 0, 64, 68
1, 10069, Control_c, 0, 64, 68
1, 10084, Control_c, 0, 64, 67
1, 10090, Note_off_c, 0, 68, 53
1, 10099, Control_c, 0, 64, 67
1, 10114, Control_c, 0, 64, 66
1, 10128, Control_c, 0, 64, 66
1, 10143, Control_c, 0, 64, 65
1, 10158, Control_c, 0, 64, 64
1, 10173, Control_c, 0, 64, 63
1, 10182, Note_on_c, 0, 63, 53
1, 10188, Control_c, 0, 64, 61
1, 10202, Note_off_c, 0, 65, 53
1, 10203, Control_c, 0, 64, 60
1, 10233, Control_c, 0, 64, 60
1, 10248, Control_c, 0, 64, 61
1, 10263, Control_c, 0, 64, 62
1, 10277, Control_c, 0, 64, 64
1, 10292, Control_c, 0, 64, 65
1, 10307, Control_c, 0, 64, 68
1, 10322, Control_c, 0, 64, 72
1, 10334, Note_on_c, 0, 57, 53
1, 10337, Note_off_c, 0, 63, 60
1, 10337, Control_c, 0, 64, 80
1, 10352, Control_c, 0, 64, 92
1, 10367, Control_c, 0, 64, 111
1, 10381, Control_c, 0, 64, 127
1, 10408, Note_off_c, 0, 57, 63
1, 10476, Note_on_c, 0, 65, 73
1, 10478, Note_off_c, 0, 66, 60
1, 10493, Note_on_c, 0, 58, 44
1, 10529, Control_c, 0, 64, 116
1, 10544, Control_c, 0, 64, 111
1, 10559, Control_c, 0, 64, 107
1, 10559, Control_c, 0, 67, 13
1, 10574, Control_c, 0, 64, 103
1, 10596, Control_c, 0, 64, 99
1, 10611, Control_c, 0, 64, 95
1, 10626, Control_c, 0, 64, 91
1, 10641, Control_c, 0, 64, 88
1, 10656, Control_c, 0, 64, 86
1, 10670, Control_c, 0, 64, 82
1, 10684, Note_on_c, 0, 60, 60
1, 10685, Control_c, 0, 64, 77
1, 10693, Note_off_c, 0, 58, 38
1, 10697, Note_off_c, 0, 65, 58
1, 10698, Note_on_c, 0, 54, 36
1, 10699, Note_on_c, 0, 63, 55
1, 10700, Control_c, 0, 64, 70
1, 10700, Control_c, 0, 67, 14
1, 10714, Control_c, 0, 64, 61
1, 10729, Control_c, 0, 64, 52
1, 10744, Control_c, 0, 64, 49
1, 10759, Control_c, 0, 64, 50
1, 10774, Control_c, 0, 64, 52
1, 10788, Control_c, 0, 64, 54
1, 10803, Control_c, 0, 64, 58
1, 10818, Control_c, 0, 64, 61
1, 10833, Control_c, 0, 64, 63
1, 10848, Control_c, 0, 64, 65
1, 10862, Control_c, 0, 64, 67
1, 10869, Note_off_c, 0, 54, 49
1, 10877, Note_on_c, 0, 44, 32
1, 10877, Control_c, 0, 64, 71
1, 10892, Control_c, 0, 64, 78
1, 10906, Control_c, 0, 64, 85
1, 10909, Note_off_c, 0, 44, 54
1, 10921, Control_c, 0, 64, 89
1, 10937, Control_c, 0, 64, 89
1, 10952, Control_c, 0, 64, 89
1, 10952, Control_c, 0, 67, 14
1, 10983, Control_c, 0, 64, 88
1, 10983, Control_c, 0, 67, 15
1, 10998, Control_c, 0, 64, 87
1, 11012, Control_c, 0, 64, 87
1, 11027, Control_c, 0, 64, 85
1, 11042, Control_c, 0, 64, 84
1, 11057, Control_c, 0, 64, 83
1, 11072, Control_c, 0, 64, 82
1, 11072, Control_c, 0, 67, 16
1, 11086, Control_c, 0, 64, 79
1, 11097, Note_on_c, 0, 37, 37
1, 11101, Control_c, 0, 64, 76
1, 11101, Control_c, 0, 67, 16
1, 11115, Note_off_c, 0, 60, 36
1, 11116, Control_c, 0, 64, 71
1, 11128, Note_on_c, 0, 61, 34
1, 11130, Note_off_c, 0, 63, 52
1, 11131, Control_c, 0, 64, 65
1, 11135, Note_on_c, 0, 65, 49
1, 11146, Control_c, 0, 64, 52
1, 11160, Control_c, 0, 64, 18
1, 11175, Control_c, 0, 64, 0
1, 11205, Control_c, 0, 64, 21
1, 11219, Control_c, 0, 64, 38
1, 11234, Control_c, 0, 64, 52
1, 11249, Control_c, 0, 64, 59
1, 11264, Control_c, 0, 64, 64
1, 11279, Control_c, 0, 64, 67
1, 11279, Note_off_c, 0, 61, 61
1, 11294, Control_c, 0, 64, 72
1, 11303, Note_off_c, 0, 65, 64
1, 11309, Control_c, 0, 64, 79
1, 11324, Control_c, 0, 64, 91
1, 11345, Control_c, 0, 64, 110
1, 11360, Control_c, 0, 64, 127
1, 11364, Note_on_c, 0, 44, 38
1, 11368, Note_off_c, 0, 37, 40
1, 11419, Control_c, 0, 67, 16
1, 11494, Note_off_c, 0, 44, 36
1, 11523, Control_c, 0, 67, 15
1, 11553, Control_c, 0, 64, 122
1, 11568, Control_c, 0, 64, 117
1, 11583, Control_c, 0, 64, 115
1, 11598, Control_c, 0, 64, 114
1, 11612, Control_c, 0, 64, 113
1, 11627, Control_c, 0, 64, 112
1, 11628, Note_on_c, 0, 53, 35
1, 11631, Note_on_c, 0, 77, 63
1, 11642, Control_c, 0, 64, 112
1, 11657, Control_c, 0, 64, 110
1, 11672, Control_c, 0, 64, 109
1, 11685, Control_c, 0, 64, 107
1, 11700, Control_c, 0, 64, 106
1, 11715, Control_c, 0, 64, 105
1, 11730, Control_c, 0, 64, 105
1, 11744, Control_c, 0, 64, 104
1, 11759, Control_c, 0, 64, 104
1, 11774, Control_c, 0, 64, 102
1, 11790, Control_c, 0, 64, 101
1, 11805, Control_c, 0, 64, 100
1, 11805, Control_c, 0, 67, 14
1, 11810, Note_off_c, 0, 53, 40
1, 11820, Control_c, 0, 64, 99
1, 11834, Note_on_c, 0, 55, 34
1, 11834, Control_c, 0, 64, 98
1, 11864, Control_c, 0, 64, 98
1, 11879, Control_c, 0, 64, 97
1, 11894, Control_c, 0, 64, 96
1, 11908, Control_c, 0, 64, 95
1, 11916, Note_off_c, 0, 55, 51
1, 11923, Control_c, 0, 64, 94
1, 11938, Control_c, 0, 64, 93
1, 11953, Control_c, 0, 64, 92
1, 11983, Control_c, 0, 67, 14
1, 12003, Note_on_c, 0, 58, 38
1, 12012, Control_c, 0, 67, 13
1, 12042, Control_c, 0, 67, 12
1, 12057, Control_c, 0, 64, 93
1, 12057, Control_c, 0, 67, 12
1, 12094, Control_c, 0, 64, 93
1, 12094, Control_c, 0, 67, 11
1, 12108, Control_c, 0, 64, 94
1, 12108, Control_c, 0, 67, 11
1, 12123, Control_c, 0, 64, 95
1, 12138, Control_c, 0, 64, 95
1, 12138, Control_c, 0, 67, 10
1, 12151, Note_off_c, 0, 58, 58
1, 12155, Note_on_c, 0, 56, 42
1, 12167, Control_c, 0, 64, 96
1, 12182, Control_c, 0, 64, 96
1, 12182, Control_c, 0, 67, 9
1, 12239, Note_off_c, 0, 56, 52
1, 12272, Control_c, 0, 64, 97
1, 12272, Control_c, 0, 67, 9
1, 12331, Note_on_c, 0, 66, 24
1, 12337, Note_on_c, 0, 75, 56
1, 12346, Control_c, 0, 67, 8
1, 12390, Control_c, 0, 67, 0
1, 12468, Note_off_c, 0, 77, 52
1, 12470, Note_on_c, 0, 63, 44
1, 12482, Note_off_c, 0, 66, 39
1, 12538, Control_c, 0, 64, 96
1, 12569, Note_off_c, 0, 63, 54
1, 12594, Note_on_c, 0, 56, 37
1, 12609, Note_on_c, 0, 73, 71
1, 12647, Note_off_c, 0, 56, 61
1, 12672, Control_c, 0, 64, 96
1, 12728, Note_on_c, 0, 57, 55
1, 12734, Note_off_c, 0, 75, 52
1, 12805, Control_c, 0, 64, 95
1, 12811, Note_off_c, 0, 57, 54
1, 12867, Note_on_c, 0, 54, 42
1, 12876, Note_on_c, 0, 72, 79
1, 12902, Control_c, 0, 64, 95
1, 12928, Note_off_c, 0, 54, 58
1, 12929, Note_off_c, 0, 73, 61
1, 12931, Control_c, 0, 64, 94
1, 12961, Control_c, 0, 64, 94
1, 12965, Note_on_c, 0, 48, 50
1, 12990, Note_off_c, 0, 48, 57
1, 12990, Control_c, 0, 64, 93
1, 13020, Control_c, 0, 64, 93
1, 13035, Control_c, 0, 64, 92
1, 13065, Control_c, 0, 64, 91
1, 13080, Control_c, 0, 64, 90
1, 13094, Control_c, 0, 64, 85
1, 13105, Note_on_c, 0, 37, 45
1, 13109, Control_c, 0, 64, 75
1, 13124, Control_c, 0, 64, 64
1, 13125, Note_on_c, 0, 70, 74
1, 13139, Control_c, 0, 64, 41
1, 13154, Control_c, 0, 64, 29
1, 13169, Control_c, 0, 64, 37
1, 13176, Note_off_c, 0, 72, 61
1, 13183, Control_c, 0, 64, 48
1, 13198, Control_c, 0, 64, 58
1, 13213, Control_c, 0, 64, 63
1, 13228, Control_c, 0, 64, 68
1, 13232, Note_off_c, 0, 37, 60
1, 13243, Control_c, 0, 64, 74
1, 13257, Control_c, 0, 64, 86
1, 13258, Note_on_c, 0, 49, 52
1, 13272, Control_c, 0, 64, 112
1, 13287, Control_c, 0, 64, 127
1, 13291, Note_off_c, 0, 49, 64
1, 13384, Note_on_c, 0, 72, 78
1, 13390, Note_on_c, 0, 53, 61
1, 13443, Note_off_c, 0, 70, 61
1, 13479, Note_on_c, 0, 57, 55
1, 13548, Note_off_c, 0, 53, 51
1, 13583, Note_on_c, 0, 75, 69
1, 13613, Note_on_c, 0, 60, 35
1, 13621, Control_c, 0, 64, 122
1, 13636, Control_c, 0, 64, 116
1, 13651, Control_c, 0, 64, 114
1, 13653, Note_on_c, 0, 73, 85
1, 13666, Control_c, 0, 64, 112
1, 13680, Control_c, 0, 64, 110
1, 13693, Note_off_c, 0, 72, 61
1, 13695, Control_c, 0, 64, 109
1, 13716, Note_off_c, 0, 57, 32
1, 13725, Control_c, 0, 64, 108
1, 13728, Note_off_c, 0, 60, 54
1, 13754, Control_c, 0, 64, 108
1, 13766, Note_on_c, 0, 58, 55
1, 13779, Note_off_c, 0, 75, 56
1, 13813, Control_c, 0, 64, 107
1, 13897, Note_on_c, 0, 65, 71
1, 13917, Control_c, 0, 64, 108
1, 13947, Control_c, 0, 64, 108
1, 13971, Note_off_c, 0, 58, 54
1, 14013, Note_on_c, 0, 61, 71
1, 14060, Note_off_c, 0, 65, 60
1, 14140, Note_on_c, 0, 57, 63
1, 14141, Note_off_c, 0, 61, 61
1, 14151, Note_on_c, 0, 72, 81
1, 14170, Note_off_c, 0, 73, 61
1, 14199, Note_off_c, 0, 57, 61
1, 14263, Note_on_c, 0, 58, 74
1, 14408, Note_on_c, 0, 53, 62
1, 14416, Note_on_c, 0, 70, 87
1, 14436, Note_off_c, 0, 58, 57
1, 14469, Note_off_c, 0, 72, 60
1, 14474, Control_c, 0, 64, 108
1, 14489, Control_c, 0, 64, 107
1, 14518, Control_c, 0, 64, 107
1, 14528, Note_on_c, 0, 49, 62
1, 14533, Control_c, 0, 64, 106
1, 14537, Note_off_c, 0, 53, 62
1, 14562, Control_c, 0, 64, 105
1, 14577, Control_c, 0, 64, 105
1, 14586, Note_off_c, 0, 49, 64
1, 14592, Control_c, 0, 64, 104
1, 14607, Control_c, 0, 64, 103
1, 14622, Control_c, 0, 64, 102
1, 14636, Control_c, 0, 64, 100
1, 14651, Control_c, 0, 64, 99
1, 14666, Control_c, 0, 64, 97
1, 14682, Control_c, 0, 64, 95
1, 14697, Control_c, 0, 64, 93
1, 14701, Note_on_c, 0, 39, 63
1, 14711, Control_c, 0, 64, 91
1, 14726, Control_c, 0, 64, 83
1, 14729, Note_on_c, 0, 69, 91
1, 14741, Control_c, 0, 64, 71
1, 14755, Control_c, 0, 64, 58
1, 14770, Control_c, 0, 64, 14
1, 14780, Note_off_c, 0, 70, 59
1, 14785, Control_c, 0, 64, 0
1, 14844, Control_c, 0, 64, 27
1, 14859, Control_c, 0, 64, 46
1, 14874, Control_c, 0, 64, 57
1, 14889, Control_c, 0, 64, 63
1, 14904, Control_c, 0, 64, 69
1, 14919, Control_c, 0, 64, 77
1, 14920, Note_off_c, 0, 39, 63
1, 14928, Note_on_c, 0, 51, 65
1, 14934, Control_c, 0, 64, 91
1, 14948, Control_c, 0, 64, 127
1, 14996, Note_off_c, 0, 51, 62
1, 15084, Note_on_c, 0, 70, 86
1, 15091, Note_on_c, 0, 54, 61
1, 15121, Note_off_c, 0, 69, 61
1, 15193, Control_c, 0, 64, 114
1, 15208, Control_c, 0, 64, 109
1, 15211, Note_on_c, 0, 57, 68
1, 15223, Control_c, 0, 64, 105
1, 15238, Control_c, 0, 64, 102
1, 15253, Control_c, 0, 64, 100
1, 15268, Control_c, 0, 64, 98
1, 15282, Control_c, 0, 64, 95
1, 15290, Note_off_c, 0, 54, 53
1, 15297, Control_c, 0, 64, 93
1, 15312, Control_c, 0, 64, 91
1, 15314, Note_off_c, 0, 57, 62
1, 15325, Note_on_c, 0, 68, 84
1, 15327, Control_c, 0, 64, 89
1, 15332, Note_on_c, 0, 60, 62
1, 15342, Control_c, 0, 64, 88
1, 15357, Control_c, 0, 64, 87
1, 15372, Control_c, 0, 64, 85
1, 15373, Note_off_c, 0, 70, 60
1, 15386, Control_c, 0, 64, 84
1, 15401, Control_c, 0, 64, 83
1, 15416, Control_c, 0, 64, 81
1, 15426, Note_off_c, 0, 60, 63
1, 15429, Control_c, 0, 64, 80
1, 15444, Control_c, 0, 64, 79
1, 15452, Note_on_c, 0, 58, 58
1, 15458, Control_c, 0, 64, 77
1, 15473, Control_c, 0, 64, 76
1, 15483, Note_off_c, 0, 68, 60
1, 15488, Control_c, 0, 64, 74
1, 15495, Note_on_c, 0, 66, 60
1, 15503, Control_c, 0, 64, 73
1, 15518, Control_c, 0, 64, 72
1, 15533, Control_c, 0, 64, 71
1, 15537, Note_off_c, 0, 66, 62
1, 15542, Note_on_c, 0, 68, 63
1, 15548, Control_c, 0, 64, 70
1, 15563, Control_c, 0, 64, 69
1, 15577, Control_c, 0, 64, 69
1, 15592, Control_c, 0, 64, 68
1, 15601, Note_on_c, 0, 66, 73
1, 15607, Control_c, 0, 64, 67
1, 15614, Note_off_c, 0, 58, 56
1, 15622, Control_c, 0, 64, 66
1, 15637, Control_c, 0, 64, 66
1, 15640, Note_on_c, 0, 63, 55
1, 15651, Control_c, 0, 64, 64
1, 15658, Note_off_c, 0, 68, 57
1, 15666, Control_c, 0, 64, 63
1, 15681, Control_c, 0, 64, 61
1, 15696, Control_c, 0, 64, 60
1, 15711, Control_c, 0, 64, 59
1, 15755, Control_c, 0, 64, 60
1, 15765, Note_on_c, 0, 60, 64
1, 15771, Control_c, 0, 64, 61
1, 15786, Control_c, 0, 64, 63
1, 15800, Control_c, 0, 64, 65
1, 15812, Note_off_c, 0, 63, 55
1, 15815, Control_c, 0, 64, 67
1, 15837, Control_c, 0, 64, 71
1, 15852, Control_c, 0, 64, 76
1, 15867, Control_c, 0, 64, 83
1, 15882, Control_c, 0, 64, 91
1, 15896, Control_c, 0, 64, 99
1, 15911, Control_c, 0, 64, 103
1, 15916, Note_off_c, 0, 60, 62
1, 15917, Note_on_c, 0, 57, 57
1, 15956, Control_c, 0, 64, 102
1, 15971, Control_c, 0, 64, 101
1, 15986, Control_c, 0, 64, 100
1, 15992, Note_off_c, 0, 57, 62
1, 16000, Control_c, 0, 64, 99
1, 16015, Control_c, 0, 64, 97
1, 16030, Control_c, 0, 64, 95
1, 16041, Note_on_c, 0, 65, 69
1, 16045, Control_c, 0, 64, 94
1, 16060, Control_c, 0, 64, 92
1, 16066, Note_on_c, 0, 58, 50
1, 16073, Note_off_c, 0, 66, 58
1, 16074, Control_c, 0, 64, 91
1, 16089, Control_c, 0, 64, 90
1, 16104, Control_c, 0, 64, 88
1, 16119, Control_c, 0, 64, 86
1, 16134, Control_c, 0, 64, 84
1, 16148, Control_c, 0, 64, 83
1, 16163, Control_c, 0, 64, 82
1, 16178, Control_c, 0, 64, 80
1, 16193, Control_c, 0, 64, 79
1, 16207, Control_c, 0, 64, 75
1, 16222, Control_c, 0, 64, 72
1, 16237, Control_c, 0, 64, 67
1, 16237, Control_c, 0, 67, 8
1, 16238, Note_on_c, 0, 63, 64
1, 16252, Control_c, 0, 64, 63
1, 16255, Note_on_c, 0, 54, 38
1, 16267, Control_c, 0, 64, 57
1, 16281, Control_c, 0, 64, 52
1, 16281, Control_c, 0, 67, 9
1, 16291, Note_off_c, 0, 58, 53
1, 16294, Note_off_c, 0, 65, 58
1, 16311, Control_c, 0, 64, 53
1, 16311, Control_c, 0, 67, 9
1, 16326, Control_c, 0, 64, 55
1, 16341, Control_c, 0, 64, 58
1, 16356, Control_c, 0, 64, 61
1, 16370, Control_c, 0, 64, 63
1, 16370, Control_c, 0, 67, 10
1, 16385, Control_c, 0, 64, 66
1, 16400, Control_c, 0, 64, 69
1, 16412, Note_on_c, 0, 48, 40
1, 16415, Control_c, 0, 64, 74
1, 16428, Note_off_c, 0, 54, 45
1, 16430, Control_c, 0, 64, 81
1, 16442, Note_off_c, 0, 48, 60
1, 16445, Control_c, 0, 64, 90
1, 16460, Control_c, 0, 64, 96
1, 16474, Control_c, 0, 64, 97
1, 16504, Control_c, 0, 64, 96
1, 16519, Control_c, 0, 64, 96
1, 16534, Control_c, 0, 64, 95
1, 16548, Control_c, 0, 64, 94
1, 16563, Control_c, 0, 64, 92
1, 16586, Control_c, 0, 64, 91
1, 16601, Control_c, 0, 64, 89
1, 16616, Control_c, 0, 64, 87
1, 16630, Control_c, 0, 64, 85
1, 16645, Note_on_c, 0, 41, 45
1, 16645, Control_c, 0, 64, 83
1, 16660, Control_c, 0, 64, 81
1, 16664, Note_on_c, 0, 65, 61
1, 16675, Control_c, 0, 64, 79
1, 16690, Control_c, 0, 64, 76
1, 16704, Control_c, 0, 64, 72
1, 16707, Note_off_c, 0, 63, 59
1, 16719, Control_c, 0, 64, 67
1, 16734, Control_c, 0, 64, 63
1, 16749, Control_c, 0, 64, 56
1, 16764, Control_c, 0, 64, 50
1, 16779, Control_c, 0, 64, 49
1, 16809, Control_c, 0, 64, 48
1, 16838, Control_c, 0, 64, 50
1, 16853, Control_c, 0, 64, 53
1, 16861, Note_on_c, 0, 48, 30
1, 16868, Control_c, 0, 64, 57
1, 16883, Control_c, 0, 64, 60
1, 16891, Note_off_c, 0, 41, 37
1, 16897, Control_c, 0, 64, 63
1, 16912, Control_c, 0, 64, 65
1, 16927, Control_c, 0, 64, 68
1, 16927, Control_c, 0, 67, 9
1, 16942, Control_c, 0, 64, 73
1, 16949, Note_off_c, 0, 48, 60
1, 16957, Control_c, 0, 64, 80
1, 16971, Control_c, 0, 64, 87
1, 16986, Control_c, 0, 64, 90
1, 17001, Control_c, 0, 64, 91
1, 17020, Note_on_c, 0, 53, 44
1, 17030, Control_c, 0, 64, 90
1, 17060, Control_c, 0, 64, 90
1, 17075, Control_c, 0, 64, 89
1, 17090, Control_c, 0, 64, 88
1, 17104, Control_c, 0, 64, 87
1, 17119, Control_c, 0, 64, 86
1, 17134, Control_c, 0, 64, 86
1, 17139, Note_off_c, 0, 53, 52
1, 17148, Control_c, 0, 64, 85
1, 17154, Note_on_c, 0, 56, 47
1, 17163, Control_c, 0, 64, 84
1, 17178, Control_c, 0, 64, 83
1, 17193, Control_c, 0, 64, 82
1, 17208, Control_c, 0, 64, 82
1, 17223, Control_c, 0, 64, 81
1, 17238, Control_c, 0, 64, 81
1, 17253, Control_c, 0, 64, 80
1, 17268, Control_c, 0, 64, 80
1, 17283, Control_c, 0, 64, 79
1, 17289, Note_on_c, 0, 58, 44
1, 17297, Control_c, 0, 64, 78
1, 17312, Control_c, 0, 64, 78
1, 17312, Note_off_c, 0, 56, 36
1, 17334, Control_c, 0, 64, 77
1, 17349, Control_c, 0, 64, 76
1, 17349, Control_c, 0, 67, 10
1, 17363, Control_c, 0, 64, 76
1, 17380, Control_c, 0, 64, 75
1, 17395, Control_c, 0, 64, 74
1, 17403, Note_off_c, 0, 58, 55
1, 17409, Control_c, 0, 64, 73
1, 17409, Control_c, 0, 67, 11
1, 17422, Note_on_c, 0, 57, 42
1, 17424, Control_c, 0, 64, 72
1, 17439, Control_c, 0, 64, 71
1, 17453, Control_c, 0, 64, 70
1, 17468, Control_c, 0, 64, 70
1, 17468, Control_c, 0, 67, 11
1, 17483, Control_c, 0, 64, 69
1, 17513, Control_c, 0, 64, 68
1, 17527, Control_c, 0, 64, 68
1, 17527, Control_c, 0, 67, 12
1, 17534, Note_off_c, 0, 57, 62
1, 17542, Control_c, 0, 64, 67
1, 17557, Control_c, 0, 64, 67
1, 17568, Note_on_c, 0, 60, 46
1, 17572, Control_c, 0, 64, 66
1, 17587, Control_c, 0, 64, 66
1, 17602, Control_c, 0, 64, 65
1, 17602, Control_c, 0, 67, 12
1, 17616, Control_c, 0, 64, 65
1, 17631, Control_c, 0, 64, 64
1, 17646, Control_c, 0, 64, 63
1, 17661, Control_c, 0, 64, 63
1, 17688, Note_on_c, 0, 57, 41
1, 17691, Control_c, 0, 64, 63
1, 17696, Note_off_c, 0, 60, 53
1, 17706, Control_c, 0, 64, 64
1, 17720, Control_c, 0, 64, 64
1, 17735, Control_c, 0, 64, 65
1, 17750, Control_c, 0, 64, 66
1, 17750, Control_c, 0, 67, 13
1, 17765, Control_c, 0, 64, 67
1, 17779, Control_c, 0, 64, 69
1, 17794, Control_c, 0, 64, 71
1, 17795, Note_off_c, 0, 57, 58
1, 17809, Control_c, 0, 64, 74
1, 17824, Control_c, 0, 64, 78
1, 17834, Note_on_c, 0, 56, 39
1, 17839, Control_c, 0, 64, 84
1, 17853, Control_c, 0, 64, 91
1, 17868, Control_c, 0, 64, 99
1, 17883, Control_c, 0, 64, 108
1, 17894, Note_off_c, 0, 65, 31
1, 17898, Control_c, 0, 64, 113
1, 17904, Note_off_c, 0, 56, 56
1, 17956, Note_on_c, 0, 57, 42
1, 18001, Control_c, 0, 64, 112
1, 18016, Control_c, 0, 64, 112
1, 18031, Control_c, 0, 64, 111
1, 18061, Control_c, 0, 64, 110
1, 18083, Control_c, 0, 64, 110
1, 18084, Note_off_c, 0, 57, 56
1, 18098, Control_c, 0, 64, 109
1, 18113, Control_c, 0, 64, 108
1, 18114, Note_on_c, 0, 53, 44
1, 18127, Control_c, 0, 64, 108
1, 18142, Control_c, 0, 64, 107
1, 18157, Control_c, 0, 64, 107
1, 18172, Control_c, 0, 64, 106
1, 18188, Control_c, 0, 64, 106
1, 18203, Control_c, 0, 64, 105
1, 18218, Control_c, 0, 64, 105
1, 18222, Note_off_c, 0, 53, 56
1, 18232, Control_c, 0, 64, 104
1, 18247, Control_c, 0, 64, 104
1, 18291, Control_c, 0, 64, 103
1, 18306, Control_c, 0, 64, 103
1, 18318, Poly_aftertouch_c, 0, 48, 127
1, 18321, Control_c, 0, 64, 102
1, 18350, Control_c, 0, 64, 102
1, 18351, Poly_aftertouch_c, 0, 48, 0
1, 18365, Control_c, 0, 64, 101
1, 18380, Control_c, 0, 64, 100
1, 18394, Control_c, 0, 64, 98
1, 18409, Control_c, 0, 64, 97
1, 18424, Control_c, 0, 64, 95
1, 18439, Control_c, 0, 64, 94
1, 18454, Control_c, 0, 64, 92
1, 18466, Note_on_c, 0, 41, 43
1, 18469, Control_c, 0, 64, 91
1, 18484, Control_c, 0, 64, 89
1, 18499, Control_c, 0, 64, 88
1, 18514, Control_c, 0, 64, 87
1, 18529, Control_c, 0, 64, 85
1, 18543, Control_c, 0, 64, 81
1, 18558, Control_c, 0, 64, 75
1, 18573, Control_c, 0, 64, 66
1, 18588, Control_c, 0, 64, 56
1, 18602, Control_c, 0, 64, 43
1, 18617, Control_c, 0, 64, 43
1, 18632, Control_c, 0, 64, 47
1, 18647, Control_c, 0, 64, 53
1, 18662, Control_c, 0, 64, 59
1, 18666, Note_on_c, 0, 51, 41
1, 18676, Control_c, 0, 64, 63
1, 18682, Note_off_c, 0, 41, 42
1, 18691, Control_c, 0, 64, 66
1, 18706, Control_c, 0, 64, 69
1, 18721, Control_c, 0, 64, 77
1, 18736, Control_c, 0, 64, 87
1, 18750, Control_c, 0, 64, 100
1, 18765, Control_c, 0, 64, 116
1, 18780, Control_c, 0, 64, 127
1, 18845, Note_off_c, 0, 51, 39
1, 18876, Control_c, 0, 64, 125
1, 18888, Note_on_c, 0, 54, 34
1, 18891, Control_c, 0, 64, 122
1, 18906, Control_c, 0, 64, 119
1, 18921, Control_c, 0, 64, 117
1, 18926, Note_on_c, 0, 75, 65
1, 18936, Control_c, 0, 64, 115
1, 18950, Control_c, 0, 64, 115
1, 18965, Control_c, 0, 64, 114
1, 18973, Note_off_c, 0, 54, 58
1, 18981, Control_c, 0, 64, 113
1, 19099, Control_c, 0, 64, 115
1, 19109, Note_on_c, 0, 58, 17
1, 19114, Control_c, 0, 64, 115
1, 19129, Control_c, 0, 64, 116
1, 19144, Control_c, 0, 64, 117
1, 19154, Note_off_c, 0, 58, 37
1, 19159, Control_c, 0, 64, 119
1, 19166, Note_on_c, 0, 57, 45
1, 19173, Control_c, 0, 67, 12
1, 19271, Note_off_c, 0, 57, 49
1, 19322, Control_c, 0, 64, 117
1, 19326, Note_on_c, 0, 60, 35
1, 19351, Control_c, 0, 64, 116
1, 19381, Control_c, 0, 64, 115
1, 19411, Control_c, 0, 64, 115
1, 19447, Note_on_c, 0, 58, 41
1, 19485, Note_off_c, 0, 60, 33
1, 19499, Control_c, 0, 67, 12
1, 19544, Control_c, 0, 64, 114
1, 19588, Note_on_c, 0, 66, 35
1, 19601, Note_on_c, 0, 73, 57
1, 19604, Note_off_c, 0, 58, 38
1, 19650, Note_off_c, 0, 75, 53
1, 19699, Control_c, 0, 64, 113
1, 19724, Note_on_c, 0, 63, 44
1, 19744, Control_c, 0, 67, 11
1, 19759, Control_c, 0, 64, 112
1, 19775, Control_c, 0, 64, 112
1, 19804, Control_c, 0, 64, 111
1, 19813, Note_off_c, 0, 66, 37
1, 19819, Control_c, 0, 64, 110
1, 19830, Note_off_c, 0, 63, 53
1, 19834, Control_c, 0, 64, 110
1, 19854, Note_off_c, 0, 73, 63
1, 19863, Control_c, 0, 64, 109
1, 19865, Note_on_c, 0, 56, 44
1, 19867, Note_on_c, 0, 72, 67
1, 19878, Control_c, 0, 64, 109
1, 19893, Control_c, 0, 64, 108
1, 19893, Control_c, 0, 67, 11
1, 19908, Control_c, 0, 64, 107
1, 19922, Control_c, 0, 64, 107
1, 19937, Control_c, 0, 64, 106
1, 19952, Control_c, 0, 64, 106
1, 19967, Control_c, 0, 64, 105
1, 19986, Note_on_c, 0, 57, 53
1, 20011, Control_c, 0, 64, 105
1, 20011, Control_c, 0, 67, 10
1, 20055, Control_c, 0, 64, 104
1, 20080, Note_off_c, 0, 56, 26
1, 20085, Control_c, 0, 64, 104
1, 20100, Note_on_c, 0, 70, 80
1, 20101, Note_off_c, 0, 72, 63
1, 20112, Note_on_c, 0, 58, 64
1, 20115, Control_c, 0, 64, 102
1, 20115, Control_c, 0, 67, 9
1, 20129, Control_c, 0, 64, 101
1, 20130, Note_off_c, 0, 57, 53
1, 20144, Control_c, 0, 64, 100
1, 20159, Control_c, 0, 64, 99
1, 20174, Control_c, 0, 64, 98
1, 20174, Control_c, 0, 67, 9
1, 20189, Control_c, 0, 64, 98
1, 20204, Control_c, 0, 64, 96
1, 20216, Note_on_c, 0, 59, 64
1, 20219, Note_off_c, 0, 58, 62
1, 20219, Control_c, 0, 64, 95
1, 20234, Control_c, 0, 64, 93
1, 20248, Control_c, 0, 64, 92
1, 20263, Control_c, 0, 64, 91
1, 20278, Control_c, 0, 64, 90
1, 20293, Control_c, 0, 64, 89
1, 20308, Control_c, 0, 64, 87
1, 20329, Control_c, 0, 64, 86
1, 20344, Control_c, 0, 64, 84
1, 20345, Note_on_c, 0, 60, 59
1, 20349, Note_on_c, 0, 69, 78
1, 20359, Control_c, 0, 64, 79
1, 20362, Note_off_c, 0, 59, 57
1, 20369, Note_on_c, 0, 66, 55
1, 20374, Control_c, 0, 64, 72
1, 20377, Note_on_c, 0, 63, 50
1, 20378, Note_off_c, 0, 70, 63
1, 20389, Control_c, 0, 64, 66
1, 20404, Control_c, 0, 64, 59
1, 20419, Control_c, 0, 64, 58
1, 20433, Control_c, 0, 64, 59
1, 20433, Control_c, 0, 67, 8
1, 20448, Control_c, 0, 64, 61
1, 20460, Note_off_c, 0, 60, 60
1, 20463, Note_on_c, 0, 61, 69
1, 20463, Control_c, 0, 64, 64
1, 20478, Control_c, 0, 64, 66
1, 20493, Control_c, 0, 64, 72
1, 20508, Control_c, 0, 64, 79
1, 20522, Control_c, 0, 64, 93
1, 20537, Control_c, 0, 64, 127
1, 20572, Note_off_c, 0, 61, 60
1, 20582, Control_c, 0, 67, 0
1, 20583, Note_on_c, 0, 60, 66
1, 20596, Note_on_c, 0, 70, 91
1, 20626, Note_off_c, 0, 66, 60
1, 20653, Note_off_c, 0, 63, 51
1, 20656, Note_off_c, 0, 69, 55
1, 20705, Note_on_c, 0, 58, 66
1, 20726, Note_off_c, 0, 60, 57
1, 20837, Note_off_c, 0, 58, 58
1, 20845, Note_on_c, 0, 57, 52
1, 20864, Control_c, 0, 64, 125
1, 20866, Note_on_c, 0, 72, 90
1, 20878, Control_c, 0, 64, 111
1, 20885, Note_on_c, 0, 63, 61
1, 20893, Control_c, 0, 64, 101
1, 20893, Control_c, 0, 67, 8
1, 20901, Note_on_c, 0, 65, 31
1, 20908, Control_c, 0, 64, 91
1, 20923, Control_c, 0, 64, 80
1, 20928, Note_off_c, 0, 70, 47
1, 20938, Control_c, 0, 64, 70
1, 20952, Control_c, 0, 64, 61
1, 20967, Control_c, 0, 64, 55
1, 20980, Note_off_c, 0, 57, 53
1, 20982, Control_c, 0, 64, 55
1, 20990, Note_on_c, 0, 58, 64
1, 20997, Control_c, 0, 64, 57
1, 21012, Control_c, 0, 64, 60
1, 21027, Control_c, 0, 64, 63
1, 21042, Control_c, 0, 64, 66
1, 21056, Control_c, 0, 64, 71
1, 21078, Control_c, 0, 64, 79
1, 21093, Control_c, 0, 64, 95
1, 21101, Note_off_c, 0, 58, 63
1, 21108, Control_c, 0, 64, 127
1, 21117, Note_off_c, 0, 65, 15
1, 21119, Note_on_c, 0, 57, 68
1, 21130, Note_off_c, 0, 63, 59
1, 21235, Note_on_c, 0, 53, 73
1, 21250, Note_off_c, 0, 57, 61
1, 21271, Control_c, 0, 67, 9
1, 21338, Note_on_c, 0, 45, 68
1, 21343, Note_off_c, 0, 53, 61
1, 21435, Control_c, 0, 67, 9
1, 21464, Note_off_c, 0, 45, 60
1, 21468, Note_on_c, 0, 46, 72
1, 21568, Control_c, 0, 64, 115
1, 21583, Control_c, 0, 64, 110
1, 21588, Note_on_c, 0, 45, 52
1, 21598, Control_c, 0, 64, 106
1, 21613, Control_c, 0, 64, 100
1, 21615, Note_on_c, 0, 65, 81
1, 21627, Control_c, 0, 64, 88
1, 21635, Note_off_c, 0, 46, 58
1, 21642, Control_c, 0, 64, 72
1, 21657, Control_c, 0, 64, 55
1, 21672, Control_c, 0, 64, 0
1, 21679, Note_off_c, 0, 72, 55
1, 21727, Note_on_c, 0, 41, 72
1, 21746, Control_c, 0, 64, 13
1, 21746, Control_c, 0, 67, 9
1, 21760, Control_c, 0, 64, 38
1, 21764, Note_off_c, 0, 45, 61
1, 21775, Control_c, 0, 64, 52
1, 21790, Control_c, 0, 64, 61
1, 21805, Control_c, 0, 64, 66
1, 21827, Control_c, 0, 64, 76
1, 21836, Note_off_c, 0, 65, 64
1, 21842, Control_c, 0, 64, 107
1, 21857, Control_c, 0, 64, 127
1, 21857, Control_c, 0, 67, 8
1, 21886, Note_off_c, 0, 41, 64
1, 21912, Note_on_c, 0, 53, 74
1, 22034, Control_c, 0, 67, 9
1, 22059, Note_on_c, 0, 56, 78
1, 22064, Control_c, 0, 67, 9
1, 22079, Note_off_c, 0, 53, 61
1, 22109, Control_c, 0, 67, 10
1, 22247, Note_on_c, 0, 59, 55
1, 22273, Note_on_c, 0, 80, 90
1, 22288, Control_c, 0, 67, 11
1, 22428, Note_on_c, 0, 62, 66
1, 22500, Note_off_c, 0, 59, 53
1, 22516, Note_off_c, 0, 56, 36
1, 22570, Note_on_c, 0, 65, 74
1, 22571, Note_off_c, 0, 62, 63
1, 22650, Control_c, 0, 67, 11
1, 22680, Control_c, 0, 67, 12
1, 22694, Note_on_c, 0, 63, 72
1, 22695, Control_c, 0, 67, 12
1, 22700, Note_off_c, 0, 65, 61
1, 22724, Control_c, 0, 64, 125
1, 22724, Control_c, 0, 67, 13
1, 22739, Control_c, 0, 64, 108
1, 22754, Control_c, 0, 64, 101
1, 22754, Control_c, 0, 67, 14
1, 22769, Control_c, 0, 64, 97
1, 22769, Control_c, 0, 67, 14
1, 22784, Control_c, 0, 64, 94
1, 22798, Control_c, 0, 64, 93
1, 22813, Control_c, 0, 64, 91
1, 22813, Control_c, 0, 67, 15
1, 22828, Control_c, 0, 64, 89
1, 22839, Note_on_c, 0, 71, 63
1, 22842, Note_on_c, 0, 78, 85
1, 22842, Control_c, 0, 64, 85
1, 22857, Control_c, 0, 64, 81
1, 22872, Control_c, 0, 64, 77
1, 22878, Note_off_c, 0, 63, 57
1, 22887, Control_c, 0, 64, 74
1, 22902, Control_c, 0, 64, 71
1, 22917, Control_c, 0, 64, 70
1, 22917, Control_c, 0, 67, 14
1, 22920, Note_off_c, 0, 80, 55
1, 22931, Control_c, 0, 64, 70
1, 22946, Control_c, 0, 64, 71
1, 22962, Control_c, 0, 64, 73
1, 22974, Note_on_c, 0, 68, 75
1, 22977, Control_c, 0, 64, 76
1, 22992, Control_c, 0, 64, 80
1, 22992, Control_c, 0, 67, 14
1, 23007, Control_c, 0, 64, 87
1, 23021, Control_c, 0, 64, 96
1, 23021, Control_c, 0, 67, 13
1, 23036, Control_c, 0, 64, 110
1, 23051, Control_c, 0, 64, 127
1, 23051, Control_c, 0, 67, 12
1, 23055, Note_off_c, 0, 71, 45
1, 23080, Control_c, 0, 67, 12
1, 23106, Note_on_c, 0, 77, 90
1, 23107, Note_on_c, 0, 61, 68
1, 23113, Note_off_c, 0, 68, 61
1, 23113, Note_off_c, 0, 78, 64
1, 23140, Control_c, 0, 67, 11
1, 23170, Control_c, 0, 67, 11
1, 23214, Control_c, 0, 67, 10
1, 23224, Note_on_c, 0, 62, 75
1, 23289, Note_off_c, 0, 61, 52
1, 23304, Note_off_c, 0, 77, 58
1, 23343, Note_on_c, 0, 75, 88
1, 23347, Note_on_c, 0, 63, 84
1, 23399, Note_off_c, 0, 62, 58
1, 23429, Control_c, 0, 64, 114
1, 23444, Control_c, 0, 64, 107
1, 23459, Control_c, 0, 64, 102
1, 23459, Control_c, 0, 67, 9
1, 23460, Note_on_c, 0, 64, 75
1, 23473, Control_c, 0, 64, 99
1, 23480, Note_off_c, 0, 63, 61
1, 23488, Control_c, 0, 64, 98
1, 23503, Control_c, 0, 64, 96
1, 23518, Control_c, 0, 64, 94
1, 23533, Control_c, 0, 64, 92
1, 23547, Control_c, 0, 64, 89
1, 23562, Control_c, 0, 64, 83
1, 23572, Note_on_c, 0, 74, 82
1, 23577, Control_c, 0, 64, 74
1, 23580, Note_on_c, 0, 65, 71
1, 23590, Note_on_c, 0, 71, 61
1, 23591, Note_on_c, 0, 68, 60
1, 23592, Control_c, 0, 64, 65
1, 23593, Note_off_c, 0, 75, 44
1, 23607, Control_c, 0, 64, 55
1, 23614, Note_off_c, 0, 64, 61
1, 23622, Control_c, 0, 64, 48
1, 23637, Control_c, 0, 64, 50
1, 23652, Control_c, 0, 64, 52
1, 23666, Control_c, 0, 64, 56
1, 23681, Control_c, 0, 64, 60
1, 23681, Control_c, 0, 67, 10
1, 23696, Control_c, 0, 64, 64
1, 23697, Note_on_c, 0, 66, 77
1, 23711, Control_c, 0, 64, 67
1, 23726, Control_c, 0, 64, 72
1, 23726, Control_c, 0, 67, 11
1, 23727, Note_off_c, 0, 65, 61
1, 23740, Control_c, 0, 64, 81
1, 23755, Control_c, 0, 64, 98
1, 23771, Control_c, 0, 64, 127
1, 23820, Note_off_c, 0, 66, 61
1, 23823, Note_on_c, 0, 75, 96
1, 23834, Note_on_c, 0, 65, 72
1, 23853, Note_off_c, 0, 71, 63
1, 23888, Note_off_c, 0, 68, 45
1, 23934, Note_off_c, 0, 74, 50
1, 23941, Note_on_c, 0, 63, 76
1, 23996, Note_off_c, 0, 65, 56
1, 24075, Control_c, 0, 67, 11
1, 24079, Note_on_c, 0, 62, 60
1, 24100, Note_off_c, 0, 63, 60
1, 24104, Control_c, 0, 64, 115
1, 24107, Note_on_c, 0, 77, 91
1, 24109, Note_on_c, 0, 70, 53
1, 24118, Note_on_c, 0, 68, 64
1, 24119, Control_c, 0, 64, 105
1, 24126, Note_on_c, 0, 78, 51
1, 24127, Note_off_c, 0, 78, 127
1, 24134, Control_c, 0, 64, 93
1, 24149, Control_c, 0, 64, 83
1, 24163, Control_c, 0, 64, 73
1, 24178, Control_c, 0, 64, 64
1, 24186, Note_off_c, 0, 75, 55
1, 24193, Control_c, 0, 64, 54
1, 24208, Control_c, 0, 64, 49
1, 24208, Control_c, 0, 67, 12
1, 24221, Note_off_c, 0, 62, 61
1, 24222, Control_c, 0, 64, 51
1, 24222, Control_c, 0, 67, 12
1, 24234, Note_on_c, 0, 63, 70
1, 24237, Control_c, 0, 64, 54
1, 24252, Control_c, 0, 64, 58
1, 24267, Control_c, 0, 64, 63
1, 24267, Control_c, 0, 67, 13
1, 24282, Control_c, 0, 64, 66
1, 24297, Control_c, 0, 64, 72
1, 24312, Control_c, 0, 64, 86
1, 24326, Control_c, 0, 64, 116
1, 24336, Note_off_c, 0, 63, 63
1, 24341, Control_c, 0, 64, 127
1, 24358, Note_on_c, 0, 62, 68
1, 24384, Note_off_c, 0, 68, 59
1, 24401, Note_off_c, 0, 70, 42
1, 24481, Note_on_c, 0, 58, 78
1, 24553, Note_off_c, 0, 62, 36
1, 24592, Note_on_c, 0, 50, 74
1, 24616, Note_off_c, 0, 58, 62
1, 24712, Control_c, 0, 67, 12
1, 24717, Note_on_c, 0, 51, 79
1, 24725, Note_off_c, 0, 50, 63
1, 24824, Control_c, 0, 67, 12
1, 24879, Note_on_c, 0, 50, 79
1, 24883, Control_c, 0, 64, 117
1, 24883, Control_c, 0, 67, 11
1, 24889, Note_on_c, 0, 70, 93
1, 24890, Note_off_c, 0, 51, 57
1, 24898, Control_c, 0, 64, 112
1, 24912, Control_c, 0, 64, 108
1, 24927, Control_c, 0, 64, 104
1, 24927, Control_c, 0, 67, 11
1, 24942, Control_c, 0, 64, 100
1, 24957, Control_c, 0, 64, 98
1, 24970, Note_off_c, 0, 77, 55
1, 24972, Control_c, 0, 64, 96
1, 24986, Control_c, 0, 64, 95
1, 25001, Control_c, 0, 64, 94
1, 25016, Control_c, 0, 64, 94
1, 25030, Note_on_c, 0, 46, 69
1, 25031, Control_c, 0, 64, 93
1, 25045, Control_c, 0, 64, 92
1, 25060, Control_c, 0, 64, 91
1, 25067, Note_off_c, 0, 50, 62
1, 25075, Control_c, 0, 64, 90
1, 25090, Control_c, 0, 64, 90
1, 25163, Note_off_c, 0, 46, 62
1, 25201, Note_on_c, 0, 42, 79
1, 25209, Control_c, 0, 64, 89
1, 25224, Control_c, 0, 64, 81
1, 25224, Control_c, 0, 67, 11
1, 25238, Control_c, 0, 64, 64
1, 25239, Note_off_c, 0, 70, 61
1, 25251, Note_on_c, 0, 44, 18
1, 25253, Control_c, 0, 64, 18
1, 25268, Control_c, 0, 64, 0
1, 25295, Note_off_c, 0, 44, 38
1, 25312, Control_c, 0, 64, 20
1, 25327, Control_c, 0, 64, 59
1, 25342, Control_c, 0, 64, 70
1, 25358, Control_c, 0, 64, 96
1, 25373, Control_c, 0, 64, 127
1, 25407, Note_on_c, 0, 54, 74
1, 25417, Note_off_c, 0, 42, 63
1, 25447, Note_off_c, 0, 54, 63
1, 25602, Control_c, 0, 67, 12
1, 25645, Note_on_c, 0, 58, 57
1, 25655, Note_on_c, 0, 82, 93
1, 25854, Note_on_c, 0, 62, 61
1, 25883, Control_c, 0, 67, 11
1, 25927, Control_c, 0, 67, 11
1, 26004, Note_on_c, 0, 65, 75
1, 26136, Note_on_c, 0, 63, 82
1, 26177, Note_off_c, 0, 58, 58
1, 26227, Note_off_c, 0, 62, 33
1, 26238, Note_off_c, 0, 65, 60
1, 26348, Note_on_c, 0, 70, 74
1, 26360, Note_on_c, 0, 80, 82
1, 26442, Note_off_c, 0, 63, 56
1, 26470, Note_off_c, 0, 82, 54
1, 26503, Note_on_c, 0, 66, 74
1, 26576, Note_off_c, 0, 70, 59
1, 26649, Note_on_c, 0, 62, 68
1, 26656, Note_on_c, 0, 78, 86
1, 26656, Note_off_c, 0, 66, 60
1, 26705, Control_c, 0, 67, 10
1, 26723, Note_off_c, 0, 62, 62
1, 26732, Note_off_c, 0, 80, 58
1, 26777, Note_on_c, 0, 63, 74
1, 26839, Control_c, 0, 67, 9
1, 26896, Note_on_c, 0, 77, 92
1, 26897, Note_on_c, 0, 58, 66
1, 26922, Note_off_c, 0, 78, 60
1, 26928, Note_off_c, 0, 63, 52
1, 27002, Note_on_c, 0, 54, 72
1, 27016, Note_off_c, 0, 58, 62
1, 27042, Note_off_c, 0, 54, 64
1, 27129, Note_off_c, 0, 77, 55
1, 27144, Note_on_c, 0, 44, 69
1, 27147, Note_on_c, 0, 74, 77
1, 27158, Control_c, 0, 64, 92
1, 27158, Control_c, 0, 67, 10
1, 27173, Control_c, 0, 64, 69
1, 27177, Note_on_c, 0, 46, 46
1, 27188, Control_c, 0, 64, 43
1, 27203, Control_c, 0, 64, 0
1, 27206, Note_off_c, 0, 46, 52
1, 27248, Control_c, 0, 64, 35
1, 27262, Control_c, 0, 64, 54
1, 27262, Control_c, 0, 67, 11
1, 27277, Control_c, 0, 64, 62
1, 27289, Note_on_c, 0, 54, 70
1, 27292, Control_c, 0, 64, 67
1, 27306, Control_c, 0, 64, 76
1, 27321, Control_c, 0, 64, 92
1, 27328, Note_off_c, 0, 44, 61
1, 27336, Control_c, 0, 64, 127
1, 27387, Note_off_c, 0, 54, 63
1, 27418, Note_on_c, 0, 75, 91
1, 27425, Control_c, 0, 67, 11
1, 27426, Note_on_c, 0, 59, 58
1, 27465, Note_off_c, 0, 74, 63
1, 27507, Note_off_c, 0, 59, 59
1, 27544, Note_on_c, 0, 62, 67
1, 27588, Control_c, 0, 67, 12
1, 27686, Note_on_c, 0, 78, 90
1, 27692, Control_c, 0, 64, 122
1, 27694, Note_on_c, 0, 65, 54
1, 27694, Note_off_c, 0, 62, 53
1, 27706, Control_c, 0, 64, 117
1, 27721, Control_c, 0, 64, 115
1, 27736, Control_c, 0, 64, 112
1, 27752, Control_c, 0, 64, 109
1, 27766, Control_c, 0, 64, 108
1, 27781, Control_c, 0, 64, 108
1, 27817, Note_off_c, 0, 65, 57
1, 27818, Control_c, 0, 64, 107
1, 27826, Note_off_c, 0, 75, 50
1, 27830, Note_on_c, 0, 63, 66
1, 27922, Control_c, 0, 64, 108
1, 27945, Note_on_c, 0, 71, 78
1, 27966, Control_c, 0, 64, 108
1, 27981, Control_c, 0, 64, 109
1, 28011, Control_c, 0, 64, 109
1, 28055, Control_c, 0, 64, 110
1, 28056, Note_on_c, 0, 66, 72
1, 28059, Note_off_c, 0, 63, 34
1, 28085, Control_c, 0, 64, 110
1, 28115, Control_c, 0, 64, 111
1, 28122, Note_off_c, 0, 71, 59
1, 28159, Control_c, 0, 64, 112
1, 28186, Note_on_c, 0, 62, 67
1, 28196, Note_on_c, 0, 77, 86
1, 28199, Note_off_c, 0, 66, 61
1, 28254, Note_off_c, 0, 62, 63
1, 28307, Note_on_c, 0, 63, 74
1, 28329, Note_off_c, 0, 78, 35
1, 28407, Note_off_c, 0, 63, 54
1, 28416, Note_on_c, 0, 59, 61
1, 28436, Note_on_c, 0, 75, 90
1, 28449, Poly_aftertouch_c, 0, 64, 0
1, 28455, Control_c, 0, 67, 11
1, 28470, Control_c, 0, 64, 111
1, 28485, Control_c, 0, 64, 110
1, 28500, Control_c, 0, 64, 110
1, 28531, Note_on_c, 0, 54, 66
1, 28539, Note_off_c, 0, 59, 60
1, 28567, Control_c, 0, 64, 109
1, 28582, Control_c, 0, 64, 109
1, 28593, Note_off_c, 0, 77, 50
1, 28597, Control_c, 0, 64, 108
1, 28604, Note_off_c, 0, 54, 64
1, 28612, Control_c, 0, 64, 108
1, 28627, Control_c, 0, 64, 107
1, 28641, Control_c, 0, 64, 107
1, 28656, Control_c, 0, 64, 106
1, 28671, Control_c, 0, 64, 105
1, 28685, Control_c, 0, 64, 102
1, 28686, Note_on_c, 0, 46, 65
1, 28697, Note_on_c, 0, 74, 84
1, 28700, Control_c, 0, 64, 99
1, 28715, Control_c, 0, 64, 95
1, 28730, Control_c, 0, 64, 86
1, 28745, Control_c, 0, 64, 73
1, 28753, Note_off_c, 0, 75, 59
1, 28759, Control_c, 0, 64, 59
1, 28774, Control_c, 0, 64, 0
1, 28825, Note_on_c, 0, 54, 62
1, 28834, Control_c, 0, 64, 30
1, 28849, Control_c, 0, 64, 49
1, 28863, Control_c, 0, 64, 59
1, 28878, Control_c, 0, 64, 66
1, 28882, Note_off_c, 0, 46, 59
1, 28893, Control_c, 0, 64, 74
1, 28908, Control_c, 0, 64, 91
1, 28922, Control_c, 0, 64, 127
1, 28926, Note_off_c, 0, 54, 64
1, 28950, Note_on_c, 0, 58, 61
1, 28951, Control_c, 0, 67, 11
1, 28968, Note_on_c, 0, 75, 86
1, 28987, Note_off_c, 0, 58, 64
1, 29022, Note_off_c, 0, 74, 59
1, 29055, Control_c, 0, 67, 10
1, 29084, Control_c, 0, 64, 125
1, 29096, Note_on_c, 0, 62, 54
1, 29099, Control_c, 0, 64, 110
1, 29114, Control_c, 0, 64, 105
1, 29129, Control_c, 0, 64, 103
1, 29144, Control_c, 0, 64, 101
1, 29159, Control_c, 0, 64, 99
1, 29173, Control_c, 0, 64, 96
1, 29188, Control_c, 0, 64, 93
1, 29203, Control_c, 0, 64, 90
1, 29218, Control_c, 0, 64, 87
1, 29233, Control_c, 0, 64, 85
1, 29245, Note_on_c, 0, 78, 81
1, 29246, Note_on_c, 0, 65, 55
1, 29248, Control_c, 0, 64, 84
1, 29251, Note_off_c, 0, 62, 38
1, 29263, Control_c, 0, 64, 82
1, 29277, Control_c, 0, 64, 81
1, 29292, Control_c, 0, 64, 78
1, 29314, Control_c, 0, 64, 76
1, 29322, Note_off_c, 0, 75, 55
1, 29329, Control_c, 0, 64, 74
1, 29344, Control_c, 0, 64, 73
1, 29360, Control_c, 0, 64, 72
1, 29375, Control_c, 0, 64, 71
1, 29389, Control_c, 0, 64, 70
1, 29390, Note_on_c, 0, 63, 54
1, 29394, Note_off_c, 0, 65, 54
1, 29404, Control_c, 0, 64, 70
1, 29419, Control_c, 0, 64, 69
1, 29434, Control_c, 0, 64, 68
1, 29449, Control_c, 0, 64, 68
1, 29463, Control_c, 0, 64, 67
1, 29478, Control_c, 0, 64, 67
1, 29507, Control_c, 0, 64, 66
1, 29515, Note_on_c, 0, 70, 54
1, 29522, Control_c, 0, 67, 11
1, 29537, Control_c, 0, 64, 66
1, 29552, Control_c, 0, 64, 65
1, 29558, Note_off_c, 0, 63, 53
1, 29597, Control_c, 0, 64, 65
1, 29627, Control_c, 0, 67, 11
1, 29650, Note_on_c, 0, 66, 52
1, 29671, Control_c, 0, 64, 64
1, 29677, Note_off_c, 0, 70, 54
1, 29701, Control_c, 0, 67, 12
1, 29716, Control_c, 0, 64, 64
1, 29761, Control_c, 0, 64, 64
1, 29782, Note_off_c, 0, 66, 55
1, 29790, Control_c, 0, 64, 65
1, 29802, Note_on_c, 0, 62, 42
1, 29805, Control_c, 0, 64, 66
1, 29811, Note_on_c, 0, 77, 66
1, 29820, Control_c, 0, 64, 66
1, 29835, Control_c, 0, 64, 68
1, 29849, Control_c, 0, 64, 70
1, 29856, Note_off_c, 0, 62, 59
1, 29864, Control_c, 0, 64, 72
1, 29864, Control_c, 0, 67, 12
1, 29879, Control_c, 0, 64, 75
1, 29894, Control_c, 0, 64, 79
1, 29900, Note_off_c, 0, 78, 49
1, 29908, Control_c, 0, 64, 84
1, 29923, Control_c, 0, 64, 89
1, 29938, Control_c, 0, 64, 95
1, 29953, Control_c, 0, 64, 100
1, 29968, Control_c, 0, 64, 103
1, 29975, Note_on_c, 0, 63, 41
1, 29982, Control_c, 0, 64, 104
1, 29997, Control_c, 0, 64, 105
1, 30100, Note_off_c, 0, 63, 54
1, 30108, Control_c, 0, 64, 104
1, 30123, Control_c, 0, 64, 104
1, 30131, Note_on_c, 0, 75, 58
1, 30133, Note_on_c, 0, 58, 43
1, 30169, Control_c, 0, 64, 103
1, 30184, Control_c, 0, 64, 102
1, 30199, Control_c, 0, 64, 102
1, 30213, Control_c, 0, 64, 101
1, 30228, Control_c, 0, 64, 101
1, 30243, Control_c, 0, 64, 100
1, 30243, Control_c, 0, 67, 13
1, 30255, Note_off_c, 0, 77, 48
1, 30258, Control_c, 0, 64, 99
1, 30273, Control_c, 0, 64, 99
1, 30287, Note_off_c, 0, 58, 46
1, 30287, Control_c, 0, 64, 98
1, 30302, Control_c, 0, 64, 97
1, 30306, Note_on_c, 0, 54, 27
1, 30317, Control_c, 0, 64, 97
1, 30331, Control_c, 0, 64, 96
1, 30346, Control_c, 0, 64, 96
1, 30361, Control_c, 0, 64, 95
1, 30376, Control_c, 0, 64, 94
1, 30391, Control_c, 0, 64, 93
1, 30405, Control_c, 0, 64, 92
1, 30420, Control_c, 0, 64, 91
1, 30435, Control_c, 0, 64, 90
1, 30450, Control_c, 0, 64, 88
1, 30465, Control_c, 0, 64, 86
1, 30466, Note_off_c, 0, 54, 37
1, 30479, Control_c, 0, 64, 85
1, 30494, Note_on_c, 0, 47, 35
1, 30494, Control_c, 0, 64, 84
1, 30509, Control_c, 0, 64, 83
1, 30524, Control_c, 0, 64, 83
1, 30539, Control_c, 0, 64, 82
1, 30544, Note_on_c, 0, 74, 45
1, 30554, Control_c, 0, 64, 80
1, 30568, Control_c, 0, 64, 79
1, 30583, Control_c, 0, 64, 76
1, 30598, Control_c, 0, 64, 74
1, 30607, Note_off_c, 0, 75, 58
1, 30613, Control_c, 0, 64, 70
1, 30628, Control_c, 0, 64, 66
1, 30643, Control_c, 0, 64, 58
1, 30657, Control_c, 0, 64, 50
1, 30672, Control_c, 0, 64, 47
1, 30702, Control_c, 0, 64, 47
1, 30717, Control_c, 0, 64, 50
1, 30731, Control_c, 0, 64, 53
1, 30731, Control_c, 0, 67, 14
1, 30746, Control_c, 0, 64, 57
1, 30761, Control_c, 0, 64, 60
1, 30761, Control_c, 0, 67, 14
1, 30771, Note_on_c, 0, 54, 8
1, 30776, Control_c, 0, 64, 63
1, 30791, Control_c, 0, 64, 65
1, 30791, Control_c, 0, 67, 15
1, 30813, Control_c, 0, 64, 68
1, 30813, Control_c, 0, 67, 16
1, 30828, Control_c, 0, 64, 75
1, 30828, Control_c, 0, 67, 17
1, 30843, Control_c, 0, 64, 84
1, 30843, Control_c, 0, 67, 18
1, 30856, Note_off_c, 0, 47, 39
1, 30857, Control_c, 0, 64, 95
1, 30857, Control_c, 0, 67, 19
1, 30872, Control_c, 0, 64, 108
1, 30872, Control_c, 0, 67, 21
1, 30887, Control_c, 0, 64, 113
1, 30887, Control_c, 0, 67, 23
1, 30902, Control_c, 0, 67, 25
1, 30917, Control_c, 0, 67, 26
1, 30931, Control_c, 0, 67, 27
1, 30935, Note_off_c, 0, 54, 42
1, 30946, Control_c, 0, 67, 28
1, 30962, Control_c, 0, 67, 30
1, 30966, Note_on_c, 0, 75, 44
1, 30975, Note_on_c, 0, 57, 21
1, 30977, Control_c, 0, 67, 32
1, 30992, Control_c, 0, 64, 112
1, 30992, Control_c, 0, 67, 34
1, 31007, Control_c, 0, 64, 111
1, 31007, Control_c, 0, 67, 34
1, 31022, Control_c, 0, 64, 110
1, 31022, Control_c, 0, 67, 35
1, 31036, Control_c, 0, 64, 110
1, 31036, Control_c, 0, 67, 36
1, 31051, Control_c, 0, 64, 109
1, 31051, Control_c, 0, 67, 37
1, 31054, Note_off_c, 0, 74, 28
1, 31066, Control_c, 0, 64, 108
1, 31066, Control_c, 0, 67, 42
1, 31081, Control_c, 0, 64, 106
1, 31081, Control_c, 0, 67, 44
1, 31096, Control_c, 0, 64, 105
1, 31110, Control_c, 0, 64, 104
1, 31125, Note_on_c, 0, 58, 34
1, 31125, Control_c, 0, 64, 103
1, 31140, Control_c, 0, 64, 102
1, 31154, Control_c, 0, 64, 102
1, 31169, Control_c, 0, 64, 101
1, 31184, Control_c, 0, 64, 100
1, 31199, Control_c, 0, 64, 98
1, 31200, Note_off_c, 0, 57, 41
1, 31214, Control_c, 0, 64, 98
1, 31214, Control_c, 0, 67, 44
1, 31228, Control_c, 0, 64, 97
1, 31243, Control_c, 0, 64, 96
1, 31258, Control_c, 0, 64, 95
1, 31273, Control_c, 0, 64, 94
1, 31273, Control_c, 0, 67, 43
1, 31287, Note_on_c, 0, 78, 66
1, 31287, Control_c, 0, 64, 93
1, 31302, Control_c, 0, 64, 92
1, 31307, Note_on_c, 0, 61, 36
1, 31317, Control_c, 0, 64, 91
1, 31317, Control_c, 0, 67, 42
1, 31332, Control_c, 0, 64, 90
1, 31347, Control_c, 0, 64, 90
1, 31361, Control_c, 0, 64, 89
1, 31391, Control_c, 0, 64, 88
1, 31406, Control_c, 0, 64, 87
1, 31406, Control_c, 0, 67, 42
1, 31421, Note_off_c, 0, 75, 38
1, 31421, Control_c, 0, 64, 87
1, 31436, Control_c, 0, 64, 86
1, 31451, Control_c, 0, 64, 85
1, 31466, Control_c, 0, 64, 84
1, 31480, Control_c, 0, 64, 84
1, 31480, Control_c, 0, 67, 41
1, 31487, Note_on_c, 0, 59, 43
1, 31495, Control_c, 0, 64, 83
1, 31499, Note_off_c, 0, 58, 38
1, 31510, Control_c, 0, 64, 82
1, 31525, Control_c, 0, 64, 82
1, 31540, Control_c, 0, 64, 81
1, 31561, Control_c, 0, 64, 80
1, 31576, Control_c, 0, 64, 79
1, 31591, Control_c, 0, 64, 78
1, 31591, Control_c, 0, 67, 41
1, 31606, Control_c, 0, 64, 78
1, 31621, Control_c, 0, 64, 76
1, 31636, Control_c, 0, 64, 75
1, 31649, Note_off_c, 0, 61, 38
1, 31651, Control_c, 0, 64, 74
1, 31665, Control_c, 0, 64, 73
1, 31665, Control_c, 0, 67, 40
1, 31680, Control_c, 0, 64, 72
1, 31695, Control_c, 0, 64, 71
1, 31710, Control_c, 0, 67, 39
1, 31725, Control_c, 0, 64, 71
1, 31740, Control_c, 0, 64, 70
1, 31755, Control_c, 0, 64, 69
1, 31770, Control_c, 0, 64, 69
1, 31770, Control_c, 0, 67, 39
1, 31776, Note_on_c, 0, 69, 35
1, 31785, Control_c, 0, 64, 68
1, 31800, Control_c, 0, 64, 68
1, 31815, Control_c, 0, 64, 67
1, 31829, Control_c, 0, 64, 67
1, 31844, Control_c, 0, 64, 66
1, 31859, Control_c, 0, 64, 66
1, 31874, Control_c, 0, 64, 65
1, 31889, Control_c, 0, 64, 65
1, 31903, Control_c, 0, 64, 64
1, 31903, Control_c, 0, 67, 38
1, 31918, Control_c, 0, 64, 64
1, 31948, Control_c, 0, 64, 63
1, 31977, Control_c, 0, 64, 63
1, 31983, Note_off_c, 0, 59, 33
1, 32007, Control_c, 0, 64, 62
1, 32037, Control_c, 0, 64, 62
1, 32066, Control_c, 0, 64, 61
1, 32096, Control_c, 0, 64, 61
1, 32110, Control_c, 0, 67, 37
1, 32125, Control_c, 0, 64, 60
1, 32140, Control_c, 0, 64, 60
1, 32155, Control_c, 0, 64, 59
1, 32170, Control_c, 0, 64, 59
1, 32181, Note_off_c, 0, 69, 40
1, 32229, Control_c, 0, 67, 37
1, 32244, Control_c, 0, 64, 59
1, 32259, Control_c, 0, 64, 60
1, 32274, Control_c, 0, 64, 61
1, 32288, Control_c, 0, 64, 61
1, 32288, Control_c, 0, 67, 36
1, 32310, Control_c, 0, 64, 62
1, 32325, Control_c, 0, 64, 63
1, 32325, Control_c, 0, 67, 36
1, 32340, Control_c, 0, 64, 64
1, 32355, Control_c, 0, 64, 65
1, 32355, Control_c, 0, 67, 35
1, 32361, Note_on_c, 0, 75, 49
1, 32370, Control_c, 0, 64, 66
1, 32384, Control_c, 0, 64, 67
1, 32399, Control_c, 0, 64, 70
1, 32399, Control_c, 0, 67, 34
1, 32414, Control_c, 0, 64, 74
1, 32429, Control_c, 0, 64, 78
1, 32429, Control_c, 0, 67, 34
1, 32444, Control_c, 0, 64, 82
1, 32458, Control_c, 0, 64, 87
1, 32473, Control_c, 0, 64, 93
1, 32473, Control_c, 0, 67, 33
1, 32488, Control_c, 0, 64, 99
1, 32503, Control_c, 0, 64, 107
1, 32518, Control_c, 0, 64, 115
1, 32518, Control_c, 0, 67, 32
1, 32533, Control_c, 0, 64, 127
1, 32593, Control_c, 0, 67, 32
1, 32652, Control_c, 0, 67, 31
1, 32696, Control_c, 0, 67, 31
1, 32754, Note_on_c, 0, 73, 51
1, 32974, Note_off_c, 0, 75, 29
1, 33059, Control_c, 0, 64, 125
1, 33062, Note_off_c, 0, 78, 28
1, 33074, Control_c, 0, 64, 119
1, 33074, Control_c, 0, 67, 31
1, 33088, Control_c, 0, 64, 115
1, 33103, Control_c, 0, 64, 114
1, 33118, Control_c, 0, 64, 112
1, 33132, Control_c, 0, 64, 110
1, 33147, Control_c, 0, 64, 108
1, 33162, Control_c, 0, 64, 105
1, 33177, Control_c, 0, 64, 103
1, 33192, Control_c, 0, 64, 101
1, 33207, Control_c, 0, 64, 99
1, 33210, Note_on_c, 0, 40, 36
1, 33221, Control_c, 0, 64, 97
1, 33236, Control_c, 0, 64, 95
1, 33247, Note_on_c, 0, 71, 47
1, 33251, Control_c, 0, 64, 93
1, 33266, Control_c, 0, 64, 91
1, 33266, Control_c, 0, 67, 32
1, 33281, Control_c, 0, 64, 89
1, 33296, Control_c, 0, 64, 86
1, 33311, Control_c, 0, 64, 82
1, 33325, Control_c, 0, 64, 76
1, 33340, Control_c, 0, 64, 67
1, 33344, Note_off_c, 0, 73, 57
1, 33356, Control_c, 0, 64, 59
1, 33371, Control_c, 0, 64, 54
1, 33385, Control_c, 0, 64, 56
1, 33400, Control_c, 0, 64, 58
1, 33415, Control_c, 0, 64, 61
1, 33430, Control_c, 0, 64, 64
1, 33445, Control_c, 0, 64, 66
1, 33445, Control_c, 0, 67, 32
1, 33460, Control_c, 0, 64, 70
1, 33475, Control_c, 0, 64, 76
1, 33490, Control_c, 0, 64, 86
1, 33495, Note_off_c, 0, 40, 44
1, 33504, Control_c, 0, 64, 102
1, 33519, Note_on_c, 0, 47, 39
1, 33519, Control_c, 0, 64, 127
1, 33578, Control_c, 0, 67, 33
1, 33649, Note_off_c, 0, 47, 52
1, 33682, Control_c, 0, 67, 34
1, 33726, Control_c, 0, 67, 34
1, 33764, Note_on_c, 0, 56, 35
1, 33818, Note_on_c, 0, 80, 70
1, 33874, Note_off_c, 0, 71, 13
1, 34007, Note_off_c, 0, 56, 37
1, 34010, Note_on_c, 0, 58, 39
1, 34181, Note_on_c, 0, 61, 37
1, 34283, Note_off_c, 0, 58, 21
1, 34337, Note_on_c, 0, 59, 45
1, 34372, Control_c, 0, 67, 34
1, 34392, Note_off_c, 0, 61, 36
1, 34476, Control_c, 0, 67, 33
1, 34482, Note_off_c, 0, 59, 55
1, 34508, Note_on_c, 0, 69, 40
1, 34553, Note_on_c, 0, 78, 61
1, 34700, Note_on_c, 0, 66, 41
1, 34718, Note_off_c, 0, 69, 35
1, 34728, Note_off_c, 0, 80, 34
1, 34735, Control_c, 0, 67, 32
1, 34809, Control_c, 0, 67, 32
1, 34855, Note_off_c, 0, 66, 48
1, 34868, Control_c, 0, 67, 31
1, 34874, Note_on_c, 0, 59, 44
1, 34877, Note_on_c, 0, 76, 64
1, 34924, Note_off_c, 0, 78, 56
1, 34927, Control_c, 0, 67, 31
1, 34947, Note_off_c, 0, 59, 62
1, 35002, Control_c, 0, 64, 125
1, 35003, Note_on_c, 0, 60, 56
1, 35017, Control_c, 0, 64, 120
1, 35032, Control_c, 0, 64, 117
1, 35047, Control_c, 0, 64, 115
1, 35062, Control_c, 0, 64, 114
1, 35091, Control_c, 0, 64, 113
1, 35107, Note_off_c, 0, 60, 56
1, 35117, Note_on_c, 0, 75, 76
1, 35124, Note_on_c, 0, 57, 49
1, 35135, Control_c, 0, 64, 112
1, 35150, Control_c, 0, 64, 112
1, 35165, Note_off_c, 0, 76, 62
1, 35180, Control_c, 0, 64, 111
1, 35210, Control_c, 0, 64, 110
1, 35210, Note_off_c, 0, 57, 59
1, 35225, Control_c, 0, 64, 110
1, 35226, Note_on_c, 0, 51, 56
1, 35240, Control_c, 0, 64, 109
1, 35254, Control_c, 0, 64, 108
1, 35258, Note_off_c, 0, 51, 65
1, 35269, Control_c, 0, 64, 106
1, 35269, Control_c, 0, 67, 30
1, 35284, Control_c, 0, 64, 106
1, 35320, Control_c, 0, 64, 105
1, 35350, Control_c, 0, 64, 104
1, 35365, Control_c, 0, 64, 97
1, 35365, Control_c, 0, 67, 31
1, 35380, Control_c, 0, 64, 83
1, 35392, Note_on_c, 0, 40, 56
1, 35395, Control_c, 0, 64, 67
1, 35404, Note_on_c, 0, 73, 78
1, 35409, Control_c, 0, 64, 51
1, 35424, Control_c, 0, 64, 35
1, 35439, Control_c, 0, 64, 40
1, 35454, Control_c, 0, 64, 49
1, 35463, Note_off_c, 0, 75, 63
1, 35469, Control_c, 0, 64, 57
1, 35484, Control_c, 0, 64, 64
1, 35499, Control_c, 0, 64, 69
1, 35511, Note_off_c, 0, 40, 64
1, 35514, Control_c, 0, 64, 78
1, 35528, Control_c, 0, 64, 99
1, 35543, Control_c, 0, 64, 127
1, 35558, Control_c, 0, 67, 31
1, 35567, Note_on_c, 0, 52, 46
1, 35594, Note_off_c, 0, 52, 56
1, 35602, Control_c, 0, 67, 32
1, 35617, Control_c, 0, 67, 32
1, 35662, Control_c, 0, 67, 33
1, 35671, Note_on_c, 0, 75, 75
1, 35686, Note_on_c, 0, 56, 59
1, 35794, Note_on_c, 0, 60, 59
1, 35876, Note_off_c, 0, 73, 39
1, 35877, Note_on_c, 0, 78, 74
1, 35901, Note_off_c, 0, 56, 38
1, 35911, Note_on_c, 0, 63, 50
1, 35921, Note_off_c, 0, 75, 58
1, 35943, Note_on_c, 0, 76, 84
1, 35943, Control_c, 0, 64, 117
1, 35958, Control_c, 0, 64, 115
1, 35967, Note_off_c, 0, 60, 36
1, 35973, Control_c, 0, 64, 113
1, 35988, Control_c, 0, 64, 112
1, 36003, Control_c, 0, 64, 110
1, 36018, Control_c, 0, 64, 109
1, 36032, Control_c, 0, 64, 108
1, 36032, Control_c, 0, 67, 32
1, 36053, Note_off_c, 0, 78, 56
1, 36055, Note_on_c, 0, 61, 56
1, 36055, Control_c, 0, 64, 106
1, 36070, Control_c, 0, 64, 104
1, 36071, Note_off_c, 0, 63, 56
1, 36085, Control_c, 0, 64, 103
1, 36099, Control_c, 0, 64, 103
1, 36114, Control_c, 0, 64, 102
1, 36184, Note_on_c, 0, 70, 78
1, 36208, Note_off_c, 0, 61, 44
1, 36292, Note_on_c, 0, 67, 69
1, 36319, Note_off_c, 0, 70, 57
1, 36384, Note_off_c, 0, 67, 62
1, 36402, Note_on_c, 0, 63, 61
1, 36427, Note_on_c, 0, 75, 80
1, 36456, Note_off_c, 0, 63, 61
1, 36495, Note_off_c, 0, 76, 57
1, 36543, Control_c, 0, 67, 32
1, 36554, Note_on_c, 0, 64, 59
1, 36556, Note_on_c, 0, 65, 43
1, 36589, Note_off_c, 0, 65, 64
1, 36647, Control_c, 0, 67, 31
1, 36657, Note_on_c, 0, 58, 52
1, 36664, Note_on_c, 0, 73, 84
1, 36673, Note_off_c, 0, 64, 58
1, 36718, Note_off_c, 0, 75, 61
1, 36754, Note_off_c, 0, 58, 62
1, 36763, Note_on_c, 0, 52, 54
1, 36796, Note_off_c, 0, 52, 61
1, 36832, Control_c, 0, 64, 102
1, 36861, Control_c, 0, 64, 101
1, 36876, Control_c, 0, 64, 101
1, 36891, Control_c, 0, 64, 100
1, 36906, Control_c, 0, 64, 100
1, 36921, Control_c, 0, 64, 98
1, 36936, Control_c, 0, 64, 95
1, 36943, Note_on_c, 0, 40, 54
1, 36951, Control_c, 0, 64, 90
1, 36958, Note_off_c, 0, 73, 58
1, 36959, Note_on_c, 0, 72, 62
1, 36966, Control_c, 0, 64, 82
1, 36980, Control_c, 0, 64, 68
1, 36995, Control_c, 0, 64, 54
1, 37010, Control_c, 0, 64, 26
1, 37025, Control_c, 0, 64, 23
1, 37040, Control_c, 0, 64, 31
1, 37054, Control_c, 0, 64, 46
1, 37058, Note_off_c, 0, 40, 63
1, 37069, Control_c, 0, 64, 59
1, 37084, Control_c, 0, 64, 64
1, 37098, Control_c, 0, 64, 69
1, 37107, Note_on_c, 0, 52, 52
1, 37113, Control_c, 0, 64, 77
1, 37128, Control_c, 0, 64, 94
1, 37143, Control_c, 0, 64, 127
1, 37147, Note_off_c, 0, 52, 63
1, 37187, Control_c, 0, 67, 31
1, 37248, Note_on_c, 0, 56, 50
1, 37251, Note_on_c, 0, 73, 62
1, 37276, Control_c, 0, 64, 122
1, 37290, Control_c, 0, 64, 116
1, 37305, Control_c, 0, 64, 112
1, 37320, Control_c, 0, 64, 108
1, 37323, Note_off_c, 0, 56, 58
1, 37336, Control_c, 0, 64, 104
1, 37351, Control_c, 0, 64, 101
1, 37352, Note_on_c, 0, 57, 50
1, 37366, Control_c, 0, 64, 99
1, 37381, Control_c, 0, 64, 98
1, 37395, Control_c, 0, 64, 96
1, 37410, Control_c, 0, 64, 94
1, 37425, Control_c, 0, 64, 91
1, 37440, Control_c, 0, 64, 88
1, 37455, Control_c, 0, 64, 86
1, 37462, Note_off_c, 0, 57, 58
1, 37469, Control_c, 0, 64, 84
1, 37470, Note_off_c, 0, 72, 20
1, 37476, Note_on_c, 0, 76, 56
1, 37484, Control_c, 0, 64, 82
1, 37496, Note_on_c, 0, 61, 39
1, 37499, Control_c, 0, 64, 82
1, 37514, Control_c, 0, 64, 81
1, 37517, Note_off_c, 0, 73, 54
1, 37529, Control_c, 0, 64, 80
1, 37551, Control_c, 0, 64, 80
1, 37562, Note_on_c, 0, 75, 68
1, 37566, Control_c, 0, 64, 79
1, 37581, Control_c, 0, 64, 78
1, 37595, Control_c, 0, 64, 77
1, 37610, Control_c, 0, 64, 76
1, 37625, Control_c, 0, 64, 74
1, 37640, Control_c, 0, 64, 73
1, 37655, Control_c, 0, 64, 73
1, 37669, Control_c, 0, 64, 72
1, 37684, Control_c, 0, 64, 72
1, 37696, Note_off_c, 0, 76, 53
1, 37699, Control_c, 0, 64, 71
1, 37709, Note_on_c, 0, 60, 43
1, 37714, Control_c, 0, 64, 71
1, 37729, Control_c, 0, 64, 70
1, 37732, Note_off_c, 0, 61, 32
1, 37744, Control_c, 0, 64, 69
1, 37758, Control_c, 0, 67, 30
1, 37788, Control_c, 0, 67, 29
1, 37792, Note_off_c, 0, 60, 61
1, 37803, Control_c, 0, 64, 70
1, 37818, Control_c, 0, 64, 71
1, 37825, Note_on_c, 0, 69, 48
1, 37833, Control_c, 0, 64, 72
1, 37848, Control_c, 0, 64, 74
1, 37863, Control_c, 0, 64, 77
1, 37877, Control_c, 0, 64, 81
1, 37877, Control_c, 0, 67, 29
1, 37892, Control_c, 0, 64, 87
1, 37892, Control_c, 0, 67, 28
1, 37907, Control_c, 0, 64, 98
1, 37922, Control_c, 0, 64, 117
1, 37922, Control_c, 0, 67, 27
1, 37937, Control_c, 0, 64, 127
1, 37946, Note_on_c, 0, 66, 54
1, 37946, Note_off_c, 0, 69, 55
1, 37952, Control_c, 0, 67, 27
1, 37967, Control_c, 0, 67, 26
1, 37982, Control_c, 0, 67, 25
1, 37996, Control_c, 0, 67, 24
1, 38026, Control_c, 0, 67, 24
1, 38041, Control_c, 0, 67, 23
1, 38058, Note_off_c, 0, 66, 56
1, 38080, Note_on_c, 0, 73, 67
1, 38089, Note_on_c, 0, 62, 41
1, 38118, Note_off_c, 0, 62, 60
1, 38177, Note_off_c, 0, 75, 53
1, 38196, Note_on_c, 0, 63, 53
1, 38302, Note_off_c, 0, 63, 62
1, 38357, Note_on_c, 0, 57, 53
1, 38364, Note_on_c, 0, 71, 75
1, 38380, Note_off_c, 0, 73, 62
1, 38473, Note_off_c, 0, 71, 60
1, 38493, Control_c, 0, 67, 24
1, 38495, Note_off_c, 0, 57, 60
1, 38542, Note_on_c, 0, 47, 44
1, 38552, Control_c, 0, 67, 24
1, 38577, Note_off_c, 0, 47, 63
1, 38587, Note_on_c, 0, 71, 75
1, 38597, Control_c, 0, 67, 25
1, 38671, Control_c, 0, 67, 26
1, 38757, Note_on_c, 0, 40, 43
1, 38760, Control_c, 0, 67, 26
1, 38771, Note_on_c, 0, 68, 79
1, 38790, Control_c, 0, 64, 119
1, 38799, Note_off_c, 0, 71, 60
1, 38805, Control_c, 0, 64, 112
1, 38819, Control_c, 0, 64, 108
1, 38819, Control_c, 0, 67, 26
1, 38834, Control_c, 0, 64, 104
1, 38849, Control_c, 0, 64, 101
1, 38864, Control_c, 0, 64, 98
1, 38879, Control_c, 0, 64, 95
1, 38893, Control_c, 0, 64, 92
1, 38908, Control_c, 0, 64, 91
1, 38923, Control_c, 0, 64, 90
1, 38939, Control_c, 0, 64, 88
1, 38945, Note_on_c, 0, 47, 45
1, 38954, Control_c, 0, 64, 86
1, 38968, Control_c, 0, 64, 85
1, 38983, Control_c, 0, 64, 83
1, 38998, Control_c, 0, 64, 82
1, 39013, Control_c, 0, 64, 79
1, 39013, Control_c, 0, 67, 25
1, 39028, Control_c, 0, 64, 74
1, 39049, Control_c, 0, 64, 68
1, 39064, Control_c, 0, 64, 63
1, 39064, Control_c, 0, 67, 24
1, 39079, Control_c, 0, 64, 58
1, 39094, Control_c, 0, 64, 58
1, 39094, Control_c, 0, 67, 24
1, 39099, Note_on_c, 0, 52, 49
1, 39109, Control_c, 0, 64, 59
1, 39124, Control_c, 0, 64, 61
1, 39124, Control_c, 0, 67, 23
1, 39139, Control_c, 0, 64, 63
1, 39153, Control_c, 0, 64, 65
1, 39153, Control_c, 0, 67, 22
1, 39168, Control_c, 0, 64, 67
1, 39168, Control_c, 0, 67, 22
1, 39183, Control_c, 0, 64, 71
1, 39183, Control_c, 0, 67, 21
1, 39198, Control_c, 0, 64, 76
1, 39198, Control_c, 0, 67, 20
1, 39213, Control_c, 0, 64, 85
1, 39213, Control_c, 0, 67, 19
1, 39225, Note_on_c, 0, 56, 62
1, 39228, Control_c, 0, 64, 100
1, 39228, Control_c, 0, 67, 18
1, 39242, Control_c, 0, 64, 127
1, 39242, Control_c, 0, 67, 17
1, 39257, Control_c, 0, 67, 17
1, 39272, Control_c, 0, 67, 16
1, 39302, Control_c, 0, 67, 16
1, 39316, Control_c, 0, 67, 15
1, 39331, Control_c, 0, 67, 10
1, 39346, Control_c, 0, 67, 0
1, 39359, Note_on_c, 0, 62, 61
1, 39478, Note_on_c, 0, 66, 70
1, 39516, Note_off_c, 0, 62, 61
1, 39534, Note_off_c, 0, 52, 34
1, 39566, Note_off_c, 0, 40, 44
1, 39612, Note_on_c, 0, 64, 73
1, 39646, Note_off_c, 0, 56, 35
1, 39658, Note_off_c, 0, 47, 40
1, 39738, Note_on_c, 0, 62, 80
1, 39874, Note_on_c, 0, 56, 90
1, 40001, Note_on_c, 0, 52, 83
1, 40071, Note_off_c, 0, 66, 9
1, 40136, Note_on_c, 0, 47, 81
1, 40164, Note_off_c, 0, 56, 56
1, 40178, Note_off_c, 0, 52, 62
1, 40218, Note_off_c, 0, 64, 34
1, 40265, Note_on_c, 0, 40, 81
1, 40276, Note_off_c, 0, 47, 64
1, 40276, Note_off_c, 0, 62, 16
1, 40299, Note_off_c, 0, 40, 66
1, 40403, Note_off_c, 0, 68, 57
1, 40479, Control_c, 0, 64, 71
1, 40494, Control_c, 0, 64, 0
1, 40495, Note_on_c, 0, 33, 78
1, 40495, Note_on_c, 0, 45, 85
1, 40562, Control_c, 0, 64, 52
1, 40576, Control_c, 0, 64, 67
1, 40577, Note_off_c, 0, 33, 63
1, 40591, Control_c, 0, 64, 92
1, 40606, Control_c, 0, 64, 127
1, 40620, Note_off_c, 0, 45, 64
1, 40773, Note_on_c, 0, 52, 79
1, 40866, Note_on_c, 0, 73, 92
1, 40997, Note_on_c, 0, 61, 51
1, 41050, Note_off_c, 0, 52, 51
1, 41074, Note_on_c, 0, 85, 99
1, 41154, Note_off_c, 0, 73, 52
1, 41185, Note_off_c, 0, 61, 54
1, 41247, Note_on_c, 0, 63, 66
1, 41416, Note_on_c, 0, 66, 76
1, 41472, Note_off_c, 0, 63, 59
1, 41546, Note_on_c, 0, 64, 76
1, 41638, Note_off_c, 0, 66, 54
1, 41702, Note_off_c, 0, 85, 59
1, 41727, Note_on_c, 0, 83, 90
1, 41731, Note_on_c, 0, 74, 69
1, 41777, Note_off_c, 0, 64, 56
1, 41887, Note_on_c, 0, 71, 73
1, 41936, Note_off_c, 0, 74, 62
1, 42043, Note_on_c, 0, 64, 63
1, 42047, Note_off_c, 0, 71, 63
1, 42060, Note_on_c, 0, 81, 91
1, 42071, Note_off_c, 0, 83, 55
1, 42104, Note_off_c, 0, 64, 64
1, 42173, Note_on_c, 0, 65, 72
1, 42301, Note_on_c, 0, 61, 61
1, 42301, Note_on_c, 0, 80, 85
1, 42335, Note_off_c, 0, 81, 64
1, 42349, Note_off_c, 0, 65, 54
1, 42401, Note_on_c, 0, 53, 57
1, 42406, Note_off_c, 0, 61, 62
1, 42429, Note_off_c, 0, 53, 63
1, 42549, Control_c, 0, 64, 99
1, 42559, Note_on_c, 0, 45, 58
1, 42564, Control_c, 0, 64, 71
1, 42570, Note_on_c, 0, 77, 81
1, 42579, Control_c, 0, 64, 50
1, 42593, Control_c, 0, 64, 0
1, 42623, Control_c, 0, 64, 24
1, 42628, Note_off_c, 0, 80, 54
1, 42638, Control_c, 0, 64, 43
1, 42653, Control_c, 0, 64, 58
1, 42667, Control_c, 0, 64, 64
1, 42682, Control_c, 0, 64, 70
1, 42697, Control_c, 0, 64, 83
1, 42701, Note_on_c, 0, 54, 65
1, 42706, Note_off_c, 0, 45, 59
1, 42712, Poly_aftertouch_c, 0, 47, 127
1, 42712, Control_c, 0, 64, 127
1, 42750, Poly_aftertouch_c, 0, 47, 0
1, 42775, Note_off_c, 0, 54, 60
1, 42832, Note_on_c, 0, 61, 60
1, 42850, Note_on_c, 0, 80, 76
1, 42869, Note_off_c, 0, 61, 61
1, 42950, Note_on_c, 0, 65, 64
1, 42984, Note_off_c, 0, 77, 60
1, 43079, Note_on_c, 0, 68, 54
1, 43079, Note_off_c, 0, 65, 54
1, 43084, Note_on_c, 0, 78, 85
1, 43194, Note_on_c, 0, 66, 61
1, 43205, Note_off_c, 0, 80, 56
1, 43219, Note_off_c, 0, 68, 59
1, 43322, Note_on_c, 0, 73, 66
1, 43330, Note_on_c, 0, 76, 80
1, 43368, Note_off_c, 0, 66, 54
1, 43392, Note_off_c, 0, 78, 61
1, 43445, Note_on_c, 0, 69, 61
1, 43456, Note_off_c, 0, 73, 60
1, 43547, Note_off_c, 0, 69, 61
1, 43553, Note_on_c, 0, 65, 49
1, 43585, Note_on_c, 0, 75, 85
1, 43616, Note_off_c, 0, 65, 61
1, 43646, Note_off_c, 0, 76, 60
1, 43705, Note_on_c, 0, 66, 57
1, 43758, Note_off_c, 0, 66, 60
1, 43826, Note_on_c, 0, 72, 85
1, 43844, Note_on_c, 0, 57, 45
1, 43890, Note_off_c, 0, 75, 59
1, 43917, Note_off_c, 0, 57, 61
1, 43930, Note_on_c, 0, 54, 56
1, 43963, Note_off_c, 0, 54, 65
1, 44093, Note_on_c, 0, 45, 46
1, 44108, Note_on_c, 0, 75, 77
1, 44120, Control_c, 0, 64, 115
1, 44135, Control_c, 0, 64, 105
1, 44149, Control_c, 0, 64, 97
1, 44164, Control_c, 0, 64, 86
1, 44179, Control_c, 0, 64, 74
1, 44194, Control_c, 0, 64, 62
1, 44202, Note_off_c, 0, 72, 57
1, 44209, Control_c, 0, 64, 45
1, 44224, Control_c, 0, 64, 38
1, 44238, Control_c, 0, 64, 39
1, 44253, Control_c, 0, 64, 43
1, 44268, Control_c, 0, 64, 50
1, 44269, Note_on_c, 0, 54, 54
1, 44290, Control_c, 0, 64, 58
1, 44305, Control_c, 0, 64, 64
1, 44319, Control_c, 0, 64, 69
1, 44320, Note_off_c, 0, 45, 57
1, 44334, Control_c, 0, 64, 80
1, 44349, Control_c, 0, 64, 106
1, 44364, Control_c, 0, 64, 127
1, 44367, Note_off_c, 0, 54, 63
1, 44421, Note_on_c, 0, 73, 79
1, 44427, Note_on_c, 0, 59, 49
1, 44488, Note_off_c, 0, 75, 57
1, 44501, Note_off_c, 0, 59, 51
1, 44569, Note_on_c, 0, 57, 51
1, 44676, Note_on_c, 0, 71, 79
1, 44713, Note_off_c, 0, 73, 62
1, 44728, Note_on_c, 0, 66, 38
1, 44799, Note_off_c, 0, 57, 50
1, 44824, Note_on_c, 0, 61, 46
1, 44849, Note_off_c, 0, 71, 60
1, 44883, Control_c, 0, 64, 125
1, 44898, Control_c, 0, 64, 119
1, 44902, Note_off_c, 0, 66, 40
1, 44913, Control_c, 0, 64, 115
1, 44928, Note_on_c, 0, 69, 72
1, 44928, Control_c, 0, 64, 113
1, 44942, Control_c, 0, 64, 110
1, 44957, Control_c, 0, 64, 109
1, 44972, Control_c, 0, 64, 106
1, 44981, Note_off_c, 0, 61, 36
1, 44987, Control_c, 0, 64, 104
1, 45002, Control_c, 0, 64, 102
1, 45017, Control_c, 0, 64, 100
1, 45039, Control_c, 0, 64, 98
1, 45054, Control_c, 0, 64, 96
1, 45068, Control_c, 0, 64, 94
1, 45083, Control_c, 0, 64, 93
1, 45098, Control_c, 0, 64, 92
1, 45113, Control_c, 0, 64, 90
1, 45128, Control_c, 0, 64, 87
1, 45142, Control_c, 0, 64, 84
1, 45157, Control_c, 0, 64, 82
1, 45172, Control_c, 0, 64, 80
1, 45187, Control_c, 0, 64, 79
1, 45193, Note_on_c, 0, 65, 75
1, 45202, Control_c, 0, 64, 78
1, 45217, Control_c, 0, 64, 77
1, 45232, Control_c, 0, 64, 76
1, 45246, Control_c, 0, 64, 75
1, 45261, Control_c, 0, 64, 73
1, 45276, Control_c, 0, 64, 72
1, 45291, Control_c, 0, 64, 72
1, 45306, Control_c, 0, 64, 71
1, 45321, Control_c, 0, 64, 70
1, 45323, Note_off_c, 0, 69, 52
1, 45336, Control_c, 0, 64, 69
1, 45351, Control_c, 0, 64, 68
1, 45366, Control_c, 0, 64, 68
1, 45396, Control_c, 0, 64, 67
1, 45410, Control_c, 0, 64, 67
1, 45425, Control_c, 0, 64, 66
1, 45467, Note_on_c, 0, 66, 76
1, 45470, Control_c, 0, 64, 66
1, 45500, Control_c, 0, 64, 65
1, 45530, Control_c, 0, 64, 65
1, 45545, Control_c, 0, 64, 64
1, 45601, Note_off_c, 0, 65, 59
1, 45603, Control_c, 0, 64, 64
1, 45618, Control_c, 0, 64, 63
1, 45648, Control_c, 0, 64, 62
1, 45677, Control_c, 0, 64, 62
1, 45766, Control_c, 0, 64, 61
1, 45773, Note_on_c, 0, 63, 72
1, 45818, Control_c, 0, 64, 61
1, 45892, Control_c, 0, 64, 60
1, 45935, Note_off_c, 0, 66, 59
1, 45981, Control_c, 0, 64, 60
1, 46089, Note_on_c, 0, 64, 67
1, 46160, Control_c, 0, 64, 59
1, 46204, Control_c, 0, 64, 59
1, 46263, Control_c, 0, 64, 58
1, 46308, Note_off_c, 0, 63, 53
1, 46323, Control_c, 0, 64, 58
1, 46412, Control_c, 0, 64, 57
1, 46455, Note_on_c, 0, 66, 61
1, 46537, Control_c, 0, 64, 57
1, 46641, Note_off_c, 0, 64, 56
1, 46700, Control_c, 0, 64, 56
1, 46878, Control_c, 0, 64, 56
1, 46902, Note_on_c, 0, 61, 47
1, 46908, Note_on_c, 0, 45, 37
1, 46913, Note_on_c, 0, 54, 42
1, 47042, Control_c, 0, 64, 56
1, 47056, Control_c, 0, 64, 57
1, 47071, Control_c, 0, 64, 58
1, 47086, Control_c, 0, 64, 59
1, 47101, Control_c, 0, 64, 60
1, 47116, Control_c, 0, 64, 62
1, 47130, Control_c, 0, 64, 63
1, 47145, Control_c, 0, 64, 65
1, 47160, Control_c, 0, 64, 66
1, 47175, Control_c, 0, 64, 68
1, 47190, Control_c, 0, 64, 71
1, 47205, Control_c, 0, 64, 77
1, 47220, Control_c, 0, 64, 84
1, 47235, Control_c, 0, 64, 92
1, 47249, Control_c, 0, 64, 103
1, 47264, Control_c, 0, 64, 127
1, 47437, Note_on_c, 0, 64, 52
1, 47469, Note_off_c, 0, 54, 41
1, 47479, Note_off_c, 0, 45, 30
1, 47835, Note_on_c, 0, 63, 63
1, 47939, Note_off_c, 0, 66, 33
1, 48052, Note_off_c, 0, 64, 37
1, 48116, Note_off_c, 0, 61, 35
1, 48322, Note_on_c, 0, 44, 34
1, 48330, Control_c, 0, 64, 119
1, 48336, Note_on_c, 0, 69, 57
1, 48344, Control_c, 0, 64, 107
1, 48359, Control_c, 0, 64, 100
1, 48374, Control_c, 0, 64, 96
1, 48389, Control_c, 0, 64, 95
1, 48403, Control_c, 0, 64, 95
1, 48418, Control_c, 0, 64, 93
1, 48433, Control_c, 0, 64, 89
1, 48448, Control_c, 0, 64, 86
1, 48458, Note_off_c, 0, 63, 59
1, 48463, Control_c, 0, 64, 82
1, 48478, Control_c, 0, 64, 81
1, 48493, Control_c, 0, 64, 80
1, 48508, Control_c, 0, 64, 79
1, 48523, Control_c, 0, 64, 78
1, 48538, Control_c, 0, 64, 76
1, 48553, Control_c, 0, 64, 75
1, 48567, Control_c, 0, 64, 72
1, 48582, Control_c, 0, 64, 70
1, 48597, Control_c, 0, 64, 69
1, 48612, Control_c, 0, 64, 67
1, 48627, Control_c, 0, 64, 67
1, 48642, Control_c, 0, 64, 66
1, 48657, Control_c, 0, 64, 65
1, 48672, Control_c, 0, 64, 64
1, 48674, Note_on_c, 0, 51, 29
1, 48686, Control_c, 0, 64, 63
1, 48701, Control_c, 0, 64, 63
1, 48716, Control_c, 0, 64, 62
1, 48731, Control_c, 0, 64, 61
1, 48746, Control_c, 0, 64, 60
1, 48761, Control_c, 0, 64, 58
1, 48782, Control_c, 0, 64, 56
1, 48797, Control_c, 0, 64, 52
1, 48812, Control_c, 0, 64, 47
1, 48827, Control_c, 0, 64, 41
1, 48841, Control_c, 0, 64, 36
1, 48856, Control_c, 0, 64, 34
1, 48871, Control_c, 0, 64, 33
1, 48886, Control_c, 0, 64, 33
1, 48931, Note_off_c, 0, 69, 54
1, 48941, Note_on_c, 0, 68, 41
1, 48946, Control_c, 0, 64, 33
1, 48955, Note_on_c, 0, 60, 24
1, 48961, Control_c, 0, 64, 38
1, 48975, Control_c, 0, 64, 47
1, 48990, Control_c, 0, 64, 58
1, 49005, Control_c, 0, 64, 63
1, 49020, Control_c, 0, 64, 67
1, 49020, Note_off_c, 0, 44, 57
1, 49034, Control_c, 0, 64, 75
1, 49049, Control_c, 0, 64, 88
1, 49064, Control_c, 0, 64, 116
1, 49075, Note_off_c, 0, 51, 48
1, 49079, Control_c, 0, 64, 127
1, 49118, Note_off_c, 0, 60, 41
1, 49177, Note_off_c, 0, 68, 35
1, 49184, Note_on_c, 0, 62, 32
1, 49227, Control_c, 0, 64, 115
1, 49242, Control_c, 0, 64, 110
1, 49257, Control_c, 0, 64, 107
1, 49272, Control_c, 0, 64, 105
1, 49287, Control_c, 0, 64, 104
1, 49295, Note_off_c, 0, 62, 33
1, 49301, Control_c, 0, 64, 103
1, 49317, Control_c, 0, 64, 101
1, 49332, Control_c, 0, 64, 99
1, 49347, Control_c, 0, 64, 96
1, 49348, Note_on_c, 0, 64, 38
1, 49362, Control_c, 0, 64, 95
1, 49377, Control_c, 0, 64, 94
1, 49392, Control_c, 0, 64, 93
1, 49406, Control_c, 0, 64, 92
1, 49421, Control_c, 0, 64, 91
1, 49436, Control_c, 0, 64, 90
1, 49438, Note_off_c, 0, 64, 52
1, 49450, Control_c, 0, 64, 90
1, 49486, Note_on_c, 0, 63, 34
1, 49532, Control_c, 0, 64, 90
1, 49547, Control_c, 0, 64, 91
1, 49551, Note_off_c, 0, 63, 42
1, 49562, Control_c, 0, 64, 92
1, 49577, Control_c, 0, 64, 92
1, 49592, Control_c, 0, 64, 93
1, 49606, Control_c, 0, 64, 94
1, 49621, Control_c, 0, 64, 96
1, 49636, Control_c, 0, 64, 97
1, 49637, Note_on_c, 0, 72, 39
1, 49650, Control_c, 0, 64, 98
1, 49665, Control_c, 0, 64, 100
1, 49680, Control_c, 0, 64, 101
1, 49695, Control_c, 0, 64, 101
1, 49710, Control_c, 0, 64, 102
1, 49724, Control_c, 0, 64, 102
1, 49754, Control_c, 0, 64, 103
1, 49768, Note_on_c, 0, 68, 40
1, 49769, Control_c, 0, 64, 104
1, 49783, Note_off_c, 0, 72, 42
1, 49784, Control_c, 0, 64, 107
1, 49798, Control_c, 0, 64, 109
1, 49813, Control_c, 0, 64, 112
1, 49828, Control_c, 0, 64, 114
1, 49843, Control_c, 0, 64, 115
1, 49858, Control_c, 0, 64, 119
1, 49873, Control_c, 0, 64, 125
1, 49887, Control_c, 0, 64, 127
1, 49891, Note_on_c, 0, 62, 33
1, 49893, Note_off_c, 0, 68, 36
1, 49941, Note_off_c, 0, 62, 58
1, 49997, Note_on_c, 0, 63, 36
1, 50040, Note_off_c, 0, 63, 52
1, 50155, Note_on_c, 0, 60, 32
1, 50236, Note_off_c, 0, 60, 39
1, 50300, Note_on_c, 0, 51, 37
1, 50384, Control_c, 0, 64, 117
1, 50398, Control_c, 0, 64, 111
1, 50413, Control_c, 0, 64, 106
1, 50425, Note_off_c, 0, 51, 36
1, 50428, Control_c, 0, 64, 102
1, 50443, Control_c, 0, 64, 99
1, 50458, Control_c, 0, 64, 96
1, 50472, Control_c, 0, 64, 92
1, 50487, Control_c, 0, 64, 87
1, 50490, Note_on_c, 0, 44, 31
1, 50502, Control_c, 0, 64, 84
1, 50517, Control_c, 0, 64, 80
1, 50532, Control_c, 0, 64, 76
1, 50547, Control_c, 0, 64, 72
1, 50561, Control_c, 0, 64, 66
1, 50576, Control_c, 0, 64, 60
1, 50591, Control_c, 0, 64, 55
1, 50606, Control_c, 0, 64, 54
1, 50621, Control_c, 0, 64, 54
1, 50636, Control_c, 0, 64, 56
1, 50651, Control_c, 0, 64, 59
1, 50666, Control_c, 0, 64, 62
1, 50680, Control_c, 0, 64, 64
1, 50690, Note_on_c, 0, 51, 38
1, 50695, Control_c, 0, 64, 68
1, 50710, Control_c, 0, 64, 73
1, 50725, Control_c, 0, 64, 82
1, 50740, Control_c, 0, 64, 100
1, 50746, Note_off_c, 0, 44, 38
1, 50754, Control_c, 0, 64, 127
1, 50908, Note_off_c, 0, 51, 39
1, 50985, Note_on_c, 0, 60, 30
1, 51002, Note_on_c, 0, 80, 59
1, 51227, Note_off_c, 0, 60, 40
1, 51250, Note_on_c, 0, 62, 25
1, 51325, Note_off_c, 0, 62, 39
1, 51414, Note_on_c, 0, 64, 31
1, 51566, Note_on_c, 0, 63, 28
1, 51581, Note_off_c, 0, 64, 40
1, 51623, Note_on_c, 0, 83, 56
1, 51658, Note_off_c, 0, 80, 51
1, 51703, Note_off_c, 0, 63, 35
1, 51711, Note_on_c, 0, 81, 67
1, 51733, Note_on_c, 0, 72, 27
1, 51820, Note_off_c, 0, 83, 55
1, 51900, Note_on_c, 0, 68, 37
1, 51926, Note_off_c, 0, 72, 45
1, 52020, Note_on_c, 0, 62, 41
1, 52043, Note_off_c, 0, 68, 34
1, 52087, Note_off_c, 0, 62, 59
1, 52128, Note_on_c, 0, 63, 48
1, 52196, Note_off_c, 0, 63, 57
1, 52262, Note_on_c, 0, 80, 66
1, 52272, Note_on_c, 0, 60, 48
1, 52361, Note_off_c, 0, 60, 51
1, 52406, Note_on_c, 0, 51, 49
1, 52439, Note_off_c, 0, 51, 64
1, 52542, Control_c, 0, 64, 120
1, 52543, Note_off_c, 0, 81, 32
1, 52556, Control_c, 0, 64, 113
1, 52571, Control_c, 0, 64, 107
1, 52585, Note_on_c, 0, 44, 32
1, 52586, Control_c, 0, 64, 98
1, 52601, Control_c, 0, 64, 89
1, 52612, Note_on_c, 0, 77, 54
1, 52616, Control_c, 0, 64, 79
1, 52630, Control_c, 0, 64, 71
1, 52645, Control_c, 0, 64, 63
1, 52660, Control_c, 0, 64, 55
1, 52669, Note_off_c, 0, 80, 57
1, 52675, Control_c, 0, 64, 51
1, 52705, Control_c, 0, 64, 52
1, 52720, Control_c, 0, 64, 54
1, 52734, Control_c, 0, 64, 57
1, 52749, Control_c, 0, 64, 61
1, 52764, Control_c, 0, 64, 64
1, 52772, Note_on_c, 0, 49, 28
1, 52779, Control_c, 0, 64, 67
1, 52794, Control_c, 0, 64, 74
1, 52809, Control_c, 0, 64, 85
1, 52818, Note_off_c, 0, 44, 39
1, 52823, Control_c, 0, 64, 108
1, 52837, Note_off_c, 0, 49, 55
1, 52838, Control_c, 0, 64, 127
1, 52899, Note_on_c, 0, 57, 38
1, 52900, Note_on_c, 0, 80, 58
1, 52952, Note_off_c, 0, 57, 56
1, 52998, Note_off_c, 0, 77, 56
1, 53027, Note_on_c, 0, 60, 37
1, 53104, Note_off_c, 0, 60, 56
1, 53156, Note_on_c, 0, 78, 74
1, 53157, Note_on_c, 0, 63, 42
1, 53240, Note_off_c, 0, 80, 56
1, 53256, Note_off_c, 0, 63, 55
1, 53273, Note_on_c, 0, 61, 52
1, 53381, Note_off_c, 0, 61, 51
1, 53393, Note_on_c, 0, 69, 49
1, 53411, Note_on_c, 0, 76, 78
1, 53447, Note_off_c, 0, 78, 63
1, 53507, Note_off_c, 0, 69, 55
1, 53515, Note_on_c, 0, 66, 49
1, 53615, Note_off_c, 0, 66, 58
1, 53626, Note_on_c, 0, 60, 48
1, 53643, Note_on_c, 0, 75, 78
1, 53673, Note_off_c, 0, 60, 62
1, 53694, Note_off_c, 0, 76, 59
1, 53766, Note_on_c, 0, 61, 52
1, 53855, Note_off_c, 0, 61, 53
1, 53862, Note_on_c, 0, 57, 52
1, 53887, Note_on_c, 0, 72, 77
1, 53929, Note_off_c, 0, 75, 61
1, 53969, Note_off_c, 0, 57, 63
1, 53984, Note_on_c, 0, 49, 50
1, 54019, Note_off_c, 0, 49, 62
1, 54143, Control_c, 0, 64, 119
1, 54158, Note_on_c, 0, 44, 41
1, 54158, Control_c, 0, 64, 109
1, 54173, Control_c, 0, 64, 99
1, 54177, Note_on_c, 0, 75, 66
1, 54188, Control_c, 0, 64, 87
1, 54202, Control_c, 0, 64, 72
1, 54217, Control_c, 0, 64, 62
1, 54232, Control_c, 0, 64, 51
1, 54247, Control_c, 0, 64, 48
1, 54262, Control_c, 0, 64, 50
1, 54276, Note_off_c, 0, 72, 60
1, 54276, Control_c, 0, 64, 54
1, 54291, Control_c, 0, 64, 60
1, 54306, Control_c, 0, 64, 63
1, 54320, Control_c, 0, 64, 67
1, 54333, Note_on_c, 0, 49, 39
1, 54335, Control_c, 0, 64, 72
1, 54350, Control_c, 0, 64, 82
1, 54365, Control_c, 0, 64, 98
1, 54376, Note_off_c, 0, 44, 40
1, 54380, Control_c, 0, 64, 127
1, 54392, Note_off_c, 0, 49, 57
1, 54452, Note_on_c, 0, 66, 69
1, 54461, Note_on_c, 0, 57, 41
1, 54478, Note_on_c, 0, 73, 59
1, 54496, Note_off_c, 0, 75, 60
1, 54502, Note_off_c, 0, 57, 64
1, 54654, Poly_aftertouch_c, 0, 60, 127
1, 54669, Note_off_c, 0, 73, 62
1, 54700, Note_on_c, 0, 72, 68
1, 54702, Note_off_c, 0, 66, 60
1, 54732, Note_on_c, 0, 63, 46
1, 54736, Poly_aftertouch_c, 0, 60, 0
1, 54802, Control_c, 0, 64, 122
1, 54817, Control_c, 0, 64, 117
1, 54827, Note_off_c, 0, 63, 46
1, 54832, Control_c, 0, 64, 113
1, 54846, Control_c, 0, 64, 107
1, 54851, Note_on_c, 0, 61, 43
1, 54855, Note_on_c, 0, 69, 48
1, 54861, Control_c, 0, 64, 103
1, 54876, Control_c, 0, 64, 100
1, 54891, Control_c, 0, 64, 98
1, 54906, Control_c, 0, 64, 96
1, 54922, Control_c, 0, 64, 94
1, 54936, Control_c, 0, 64, 93
1, 54951, Control_c, 0, 64, 91
1, 54962, Note_on_c, 0, 68, 73
1, 54966, Control_c, 0, 64, 89
1, 54981, Control_c, 0, 64, 87
1, 54994, Note_on_c, 0, 71, 59
1, 54994, Note_off_c, 0, 69, 35
1, 54996, Control_c, 0, 64, 84
1, 55010, Control_c, 0, 64, 81
1, 55025, Control_c, 0, 64, 77
1, 55040, Control_c, 0, 64, 72
1, 55043, Note_off_c, 0, 61, 36
1, 55055, Control_c, 0, 64, 69
1, 55069, Control_c, 0, 64, 67
1, 55088, Note_off_c, 0, 72, 55
1, 55099, Control_c, 0, 64, 67
1, 55114, Control_c, 0, 64, 68
1, 55126, Note_on_c, 0, 66, 46
1, 55129, Control_c, 0, 64, 70
1, 55143, Control_c, 0, 64, 73
1, 55158, Control_c, 0, 64, 76
1, 55165, Note_off_c, 0, 68, 58
1, 55173, Control_c, 0, 64, 80
1, 55188, Control_c, 0, 64, 84
1, 55203, Control_c, 0, 64, 90
1, 55218, Control_c, 0, 64, 98
1, 55225, Note_off_c, 0, 66, 58
1, 55232, Control_c, 0, 64, 106
1, 55244, Note_on_c, 0, 60, 43
1, 55247, Control_c, 0, 64, 117
1, 55258, Note_on_c, 0, 69, 67
1, 55262, Control_c, 0, 64, 127
1, 55286, Note_off_c, 0, 60, 63
1, 55298, Note_off_c, 0, 71, 62
1, 55366, Control_c, 0, 64, 122
1, 55379, Note_on_c, 0, 61, 51
1, 55381, Control_c, 0, 64, 119
1, 55396, Control_c, 0, 64, 116
1, 55410, Control_c, 0, 64, 115
1, 55425, Control_c, 0, 64, 114
1, 55440, Control_c, 0, 64, 112
1, 55455, Control_c, 0, 64, 110
1, 55456, Note_off_c, 0, 61, 54
1, 55469, Control_c, 0, 64, 109
1, 55484, Control_c, 0, 64, 106
1, 55499, Control_c, 0, 64, 105
1, 55522, Note_on_c, 0, 66, 69
1, 55522, Control_c, 0, 64, 104
1, 55529, Note_on_c, 0, 57, 20
1, 55537, Control_c, 0, 64, 103
1, 55551, Control_c, 0, 64, 102
1, 55566, Control_c, 0, 64, 101
1, 55581, Control_c, 0, 64, 99
1, 55584, Note_off_c, 0, 57, 48
1, 55596, Control_c, 0, 64, 98
1, 55611, Control_c, 0, 64, 96
1, 55625, Control_c, 0, 64, 95
1, 55633, Note_on_c, 0, 49, 15
1, 55640, Control_c, 0, 64, 94
1, 55655, Control_c, 0, 64, 93
1, 55669, Control_c, 0, 64, 92
1, 55673, Note_off_c, 0, 49, 39
1, 55684, Control_c, 0, 64, 90
1, 55699, Control_c, 0, 64, 88
1, 55715, Control_c, 0, 64, 87
1, 55730, Control_c, 0, 64, 85
1, 55745, Control_c, 0, 64, 84
1, 55759, Control_c, 0, 64, 82
1, 55774, Control_c, 0, 64, 80
1, 55789, Control_c, 0, 64, 78
1, 55802, Note_on_c, 0, 44, 36
1, 55804, Control_c, 0, 64, 77
1, 55819, Control_c, 0, 64, 75
1, 55833, Control_c, 0, 64, 74
1, 55834, Note_on_c, 0, 63, 60
1, 55848, Control_c, 0, 64, 71
1, 55863, Control_c, 0, 64, 67
1, 55878, Control_c, 0, 64, 61
1, 55886, Note_off_c, 0, 66, 55
1, 55892, Control_c, 0, 64, 53
1, 55907, Control_c, 0, 64, 49
1, 55937, Control_c, 0, 64, 51
1, 55952, Control_c, 0, 64, 53
1, 55962, Note_on_c, 0, 47, 34
1, 55966, Control_c, 0, 64, 57
1, 55981, Control_c, 0, 64, 59
1, 55996, Control_c, 0, 64, 61
1, 56011, Control_c, 0, 64, 63
1, 56026, Note_off_c, 0, 44, 37
1, 56026, Control_c, 0, 64, 64
1, 56040, Control_c, 0, 64, 66
1, 56055, Control_c, 0, 64, 69
1, 56058, Note_off_c, 0, 47, 56
1, 56070, Control_c, 0, 64, 73
1, 56085, Control_c, 0, 64, 77
1, 56100, Control_c, 0, 64, 81
1, 56115, Control_c, 0, 64, 83
1, 56127, Note_on_c, 0, 56, 31
1, 56130, Control_c, 0, 64, 84
1, 56155, Note_on_c, 0, 66, 46
1, 56156, Note_on_c, 0, 68, 51
1, 56219, Control_c, 0, 64, 83
1, 56248, Control_c, 0, 64, 83
1, 56251, Note_off_c, 0, 63, 53
1, 56287, Note_on_c, 0, 58, 43
1, 56290, Note_off_c, 0, 56, 41
1, 56300, Control_c, 0, 64, 82
1, 56329, Control_c, 0, 64, 82
1, 56344, Control_c, 0, 64, 81
1, 56359, Control_c, 0, 64, 81
1, 56365, Note_off_c, 0, 58, 57
1, 56374, Control_c, 0, 64, 80
1, 56389, Control_c, 0, 64, 80
1, 56404, Note_off_c, 0, 69, 30
1, 56404, Control_c, 0, 64, 79
1, 56409, Note_on_c, 0, 64, 71
1, 56413, Note_on_c, 0, 61, 44
1, 56419, Control_c, 0, 64, 78
1, 56434, Control_c, 0, 64, 77
1, 56448, Control_c, 0, 64, 76
1, 56463, Control_c, 0, 64, 75
1, 56507, Control_c, 0, 64, 75
1, 56523, Control_c, 0, 64, 74
1, 56531, Note_on_c, 0, 59, 55
1, 56538, Control_c, 0, 64, 74
1, 56553, Control_c, 0, 64, 73
1, 56565, Note_off_c, 0, 61, 37
1, 56568, Control_c, 0, 64, 72
1, 56583, Control_c, 0, 64, 71
1, 56597, Control_c, 0, 64, 68
1, 56612, Control_c, 0, 64, 64
1, 56628, Control_c, 0, 64, 62
1, 56645, Note_off_c, 0, 66, 31
1, 56657, Control_c, 0, 64, 63
1, 56661, Note_on_c, 0, 63, 73
1, 56667, Note_off_c, 0, 59, 64
1, 56667, Note_off_c, 0, 64, 61
1, 56672, Control_c, 0, 64, 64
1, 56687, Control_c, 0, 64, 66
1, 56695, Note_off_c, 0, 68, 61
1, 56702, Control_c, 0, 64, 70
1, 56716, Control_c, 0, 64, 75
1, 56731, Control_c, 0, 64, 82
1, 56746, Control_c, 0, 64, 90
1, 56761, Control_c, 0, 64, 99
1, 56776, Control_c, 0, 64, 107
1, 56789, Note_off_c, 0, 63, 58
1, 56790, Control_c, 0, 64, 110
1, 56801, Note_on_c, 0, 59, 59
1, 56805, Control_c, 0, 64, 109
1, 56820, Control_c, 0, 64, 109
1, 56834, Control_c, 0, 64, 108
1, 56849, Control_c, 0, 64, 107
1, 56864, Control_c, 0, 64, 105
1, 56874, Note_off_c, 0, 59, 58
1, 56879, Control_c, 0, 64, 103
1, 56894, Control_c, 0, 64, 101
1, 56897, Note_on_c, 0, 55, 57
1, 56908, Control_c, 0, 64, 99
1, 56911, Note_on_c, 0, 61, 77
1, 56923, Control_c, 0, 64, 98
1, 56938, Control_c, 0, 64, 98
1, 56953, Note_off_c, 0, 55, 59
1, 56953, Control_c, 0, 64, 96
1, 56968, Control_c, 0, 64, 94
1, 56982, Control_c, 0, 64, 92
1, 56997, Control_c, 0, 64, 90
1, 57020, Control_c, 0, 64, 89
1, 57035, Control_c, 0, 64, 89
1, 57036, Note_on_c, 0, 56, 56
1, 57049, Control_c, 0, 64, 88
1, 57064, Control_c, 0, 64, 86
1, 57079, Control_c, 0, 64, 85
1, 57094, Control_c, 0, 64, 84
1, 57109, Control_c, 0, 64, 82
1, 57123, Control_c, 0, 64, 81
1, 57138, Control_c, 0, 64, 80
1, 57153, Control_c, 0, 64, 79
1, 57161, Note_on_c, 0, 52, 51
1, 57168, Control_c, 0, 64, 78
1, 57180, Note_on_c, 0, 58, 81
1, 57183, Control_c, 0, 64, 77
1, 57197, Control_c, 0, 64, 76
1, 57212, Control_c, 0, 64, 75
1, 57227, Control_c, 0, 64, 75
1, 57242, Control_c, 0, 64, 74
1, 57246, Note_off_c, 0, 61, 55
1, 57257, Control_c, 0, 64, 73
1, 57271, Control_c, 0, 64, 72
1, 57286, Control_c, 0, 64, 72
1, 57301, Control_c, 0, 64, 71
1, 57317, Control_c, 0, 64, 71
1, 57321, Note_on_c, 0, 47, 43
1, 57332, Control_c, 0, 64, 70
1, 57346, Control_c, 0, 64, 68
1, 57361, Control_c, 0, 64, 65
1, 57364, Note_off_c, 0, 52, 38
1, 57376, Control_c, 0, 64, 62
1, 57391, Control_c, 0, 64, 60
1, 57406, Control_c, 0, 64, 59
1, 57439, Note_on_c, 0, 44, 46
1, 57465, Control_c, 0, 64, 60
1, 57480, Control_c, 0, 64, 61
1, 57481, Note_on_c, 0, 61, 78
1, 57495, Control_c, 0, 64, 64
1, 57510, Control_c, 0, 64, 67
1, 57516, Note_off_c, 0, 58, 64
1, 57522, Note_off_c, 0, 56, 39
1, 57525, Control_c, 0, 64, 73
1, 57539, Control_c, 0, 64, 85
1, 57554, Control_c, 0, 64, 112
1, 57567, Note_off_c, 0, 61, 64
1, 57569, Control_c, 0, 64, 127
1, 57608, Note_on_c, 0, 52, 53
1, 57638, Note_off_c, 0, 44, 50
1, 57670, Note_off_c, 0, 47, 13
1, 57769, Note_off_c, 0, 52, 58
1, 57772, Note_on_c, 0, 59, 77
1, 57784, Control_c, 0, 64, 120
1, 57790, Note_on_c, 0, 76, 81
1, 57799, Control_c, 0, 64, 95
1, 57813, Control_c, 0, 64, 79
1, 57828, Control_c, 0, 64, 66
1, 57843, Control_c, 0, 64, 61
1, 57857, Control_c, 0, 64, 62
1, 57872, Control_c, 0, 64, 64
1, 57887, Control_c, 0, 64, 67
1, 57902, Control_c, 0, 64, 70
1, 57911, Note_on_c, 0, 47, 58
1, 57917, Control_c, 0, 64, 76
1, 57932, Control_c, 0, 64, 82
1, 57946, Control_c, 0, 64, 89
1, 57961, Control_c, 0, 64, 96
1, 57976, Control_c, 0, 64, 100
1, 57991, Control_c, 0, 64, 101
1, 58020, Control_c, 0, 64, 100
1, 58035, Control_c, 0, 64, 95
1, 58042, Note_on_c, 0, 58, 83
1, 58050, Control_c, 0, 64, 83
1, 58064, Control_c, 0, 64, 70
1, 58079, Control_c, 0, 64, 61
1, 58094, Control_c, 0, 64, 55
1, 58110, Control_c, 0, 64, 59
1, 58115, Note_off_c, 0, 47, 35
1, 58124, Control_c, 0, 64, 62
1, 58139, Control_c, 0, 64, 65
1, 58154, Control_c, 0, 64, 69
1, 58155, Note_off_c, 0, 59, 55
1, 58168, Control_c, 0, 64, 76
1, 58183, Control_c, 0, 64, 88
1, 58198, Control_c, 0, 64, 109
1, 58199, Note_on_c, 0, 52, 51
1, 58213, Control_c, 0, 64, 127
1, 58276, Note_on_c, 0, 80, 78
1, 58294, Note_off_c, 0, 76, 62
1, 58331, Control_c, 0, 64, 112
1, 58346, Control_c, 0, 64, 96
1, 58351, Note_on_c, 0, 57, 67
1, 58360, Control_c, 0, 64, 79
1, 58365, Note_on_c, 0, 78, 78
1, 58375, Control_c, 0, 64, 65
1, 58390, Control_c, 0, 64, 56
1, 58405, Control_c, 0, 64, 53
1, 58419, Note_off_c, 0, 58, 60
1, 58420, Control_c, 0, 64, 56
1, 58433, Note_off_c, 0, 80, 57
1, 58434, Note_off_c, 0, 52, 52
1, 58434, Control_c, 0, 64, 60
1, 58449, Control_c, 0, 64, 63
1, 58464, Control_c, 0, 64, 66
1, 58479, Control_c, 0, 64, 71
1, 58494, Control_c, 0, 64, 78
1, 58497, Note_on_c, 0, 47, 47
1, 58516, Control_c, 0, 64, 91
1, 58529, Note_off_c, 0, 57, 64
1, 58531, Control_c, 0, 64, 106
1, 58546, Control_c, 0, 64, 115
1, 58560, Control_c, 0, 64, 112
1, 58561, Note_off_c, 0, 47, 53
1, 58575, Control_c, 0, 64, 107
1, 58590, Control_c, 0, 64, 104
1, 58605, Control_c, 0, 64, 103
1, 58620, Control_c, 0, 64, 101
1, 58634, Note_on_c, 0, 56, 59
1, 58634, Control_c, 0, 64, 98
1, 58649, Control_c, 0, 64, 96
1, 58664, Control_c, 0, 64, 94
1, 58678, Control_c, 0, 64, 92
1, 58693, Control_c, 0, 64, 90
1, 58708, Control_c, 0, 64, 88
1, 58723, Control_c, 0, 64, 86
1, 58738, Control_c, 0, 64, 85
1, 58753, Control_c, 0, 64, 83
1, 58768, Control_c, 0, 64, 79
1, 58778, Note_on_c, 0, 52, 40
1, 58783, Control_c, 0, 64, 72
1, 58798, Control_c, 0, 64, 65
1, 58813, Control_c, 0, 64, 59
1, 58827, Control_c, 0, 64, 56
1, 58842, Control_c, 0, 64, 57
1, 58857, Control_c, 0, 64, 58
1, 58872, Control_c, 0, 64, 60
1, 58886, Control_c, 0, 64, 62
1, 58893, Note_on_c, 0, 46, 31
1, 58901, Note_on_c, 0, 76, 72
1, 58901, Control_c, 0, 64, 64
1, 58917, Control_c, 0, 64, 67
1, 58932, Control_c, 0, 64, 70
1, 58933, Note_off_c, 0, 78, 58
1, 58947, Control_c, 0, 64, 76
1, 58962, Control_c, 0, 64, 84
1, 58977, Control_c, 0, 64, 93
1, 58991, Control_c, 0, 64, 101
1, 58992, Note_off_c, 0, 52, 40
1, 59006, Control_c, 0, 64, 106
1, 59029, Note_off_c, 0, 46, 34
1, 59036, Note_on_c, 0, 47, 36
1, 59065, Control_c, 0, 64, 105
1, 59080, Control_c, 0, 64, 104
1, 59095, Control_c, 0, 64, 102
1, 59109, Control_c, 0, 64, 101
1, 59124, Control_c, 0, 64, 98
1, 59139, Control_c, 0, 64, 96
1, 59154, Control_c, 0, 64, 94
1, 59169, Control_c, 0, 64, 92
1, 59183, Control_c, 0, 64, 91
1, 59192, Note_on_c, 0, 44, 44
1, 59198, Control_c, 0, 64, 88
1, 59213, Control_c, 0, 64, 85
1, 59228, Control_c, 0, 64, 82
1, 59237, Note_on_c, 0, 73, 63
1, 59243, Control_c, 0, 64, 80
1, 59265, Control_c, 0, 64, 75
1, 59280, Control_c, 0, 64, 68
1, 59295, Control_c, 0, 64, 60
1, 59301, Note_off_c, 0, 56, 43
1, 59305, Note_off_c, 0, 47, 26
1, 59309, Control_c, 0, 64, 47
1, 59316, Note_off_c, 0, 76, 62
1, 59324, Control_c, 0, 64, 43
1, 59339, Control_c, 0, 64, 45
1, 59354, Control_c, 0, 64, 48
1, 59369, Control_c, 0, 64, 53
1, 59383, Control_c, 0, 64, 58
1, 59385, Note_on_c, 0, 51, 43
1, 59398, Control_c, 0, 64, 62
1, 59413, Control_c, 0, 64, 65
1, 59428, Control_c, 0, 64, 68
1, 59443, Control_c, 0, 64, 72
1, 59457, Control_c, 0, 64, 79
1, 59472, Control_c, 0, 64, 88
1, 59487, Control_c, 0, 64, 96
1, 59502, Control_c, 0, 64, 102
1, 59516, Control_c, 0, 64, 102
1, 59532, Note_off_c, 0, 44, 30
1, 59543, Note_on_c, 0, 54, 43
1, 59546, Control_c, 0, 64, 102
1, 59549, Note_off_c, 0, 51, 36
1, 59552, Note_on_c, 0, 76, 62
1, 59574, Note_off_c, 0, 73, 60
1, 59576, Control_c, 0, 64, 101
1, 59591, Control_c, 0, 64, 100
1, 59601, Note_off_c, 0, 54, 60
1, 59605, Control_c, 0, 64, 98
1, 59620, Control_c, 0, 64, 98
1, 59635, Control_c, 0, 64, 97
1, 59665, Control_c, 0, 64, 96
1, 59666, Note_on_c, 0, 56, 47
1, 59680, Control_c, 0, 64, 96
1, 59695, Control_c, 0, 64, 95
1, 59710, Control_c, 0, 64, 94
1, 59725, Control_c, 0, 64, 92
1, 59740, Control_c, 0, 64, 92
1, 59755, Control_c, 0, 64, 91
1, 59761, Note_off_c, 0, 56, 52
1, 59769, Control_c, 0, 64, 91
1, 59784, Control_c, 0, 64, 90
1, 59788, Note_on_c, 0, 75, 75
1, 59799, Control_c, 0, 64, 89
1, 59802, Note_on_c, 0, 59, 48
1, 59814, Control_c, 0, 64, 88
1, 59829, Control_c, 0, 64, 86
1, 59844, Control_c, 0, 64, 85
1, 59859, Control_c, 0, 64, 83
1, 59872, Note_off_c, 0, 76, 56
1, 59874, Control_c, 0, 64, 82
1, 59879, Note_off_c, 0, 59, 54
1, 59888, Control_c, 0, 64, 82
1, 59898, Note_on_c, 0, 57, 44
1, 59918, Control_c, 0, 64, 81
1, 59932, Control_c, 0, 64, 80
1, 59947, Control_c, 0, 64, 79
1, 59962, Control_c, 0, 64, 77
1, 59977, Control_c, 0, 64, 75
1, 59992, Control_c, 0, 64, 73
1, 59999, Note_off_c, 0, 57, 60
1, 60014, Control_c, 0, 64, 71
1, 60029, Control_c, 0, 64, 70
1, 60038, Note_on_c, 0, 73, 76
1, 60044, Note_on_c, 0, 66, 43
1, 60044, Control_c, 0, 64, 70
1, 60059, Control_c, 0, 64, 71
1, 60073, Control_c, 0, 64, 72
1, 60088, Control_c, 0, 64, 74
1, 60103, Control_c, 0, 64, 77
1, 60118, Control_c, 0, 64, 81
1, 60132, Control_c, 0, 64, 86
1, 60140, Note_off_c, 0, 66, 62
1, 60147, Control_c, 0, 64, 92
1, 60150, Note_on_c, 0, 61, 53
1, 60162, Control_c, 0, 64, 99
1, 60173, Note_off_c, 0, 75, 54
1, 60177, Control_c, 0, 64, 106
1, 60192, Control_c, 0, 64, 114
1, 60206, Control_c, 0, 64, 122
1, 60221, Control_c, 0, 64, 127
1, 60253, Note_off_c, 0, 61, 58
1, 60267, Note_on_c, 0, 56, 38
1, 60288, Note_on_c, 0, 71, 73
1, 60310, Control_c, 0, 64, 125
1, 60319, Note_off_c, 0, 56, 62
1, 60325, Control_c, 0, 64, 122
1, 60330, Note_off_c, 0, 73, 62
1, 60339, Control_c, 0, 64, 120
1, 60354, Control_c, 0, 64, 117
1, 60369, Control_c, 0, 64, 116
1, 60384, Control_c, 0, 64, 115
1, 60399, Control_c, 0, 64, 114
1, 60405, Note_on_c, 0, 57, 51
1, 60413, Control_c, 0, 64, 112
1, 60428, Control_c, 0, 64, 110
1, 60443, Control_c, 0, 64, 109
1, 60458, Control_c, 0, 64, 108
1, 60473, Control_c, 0, 64, 106
1, 60488, Control_c, 0, 64, 104
1, 60494, Note_off_c, 0, 57, 56
1, 60503, Control_c, 0, 64, 102
1, 60518, Control_c, 0, 64, 101
1, 60533, Control_c, 0, 64, 100
1, 60541, Note_on_c, 0, 54, 39
1, 60547, Control_c, 0, 64, 98
1, 60548, Note_on_c, 0, 68, 66
1, 60562, Control_c, 0, 64, 96
1, 60577, Control_c, 0, 64, 94
1, 60589, Note_off_c, 0, 71, 58
1, 60592, Control_c, 0, 64, 91
1, 60607, Control_c, 0, 64, 88
1, 60611, Note_off_c, 0, 54, 52
1, 60622, Control_c, 0, 64, 87
1, 60637, Control_c, 0, 64, 85
1, 60647, Note_on_c, 0, 51, 37
1, 60652, Control_c, 0, 64, 84
1, 60667, Control_c, 0, 64, 83
1, 60682, Control_c, 0, 64, 82
1, 60696, Control_c, 0, 64, 81
1, 60711, Control_c, 0, 64, 79
1, 60726, Control_c, 0, 64, 78
1, 60741, Control_c, 0, 64, 76
1, 60762, Control_c, 0, 64, 75
1, 60771, Note_off_c, 0, 51, 33
1, 60774, Note_on_c, 0, 44, 33
1, 60777, Control_c, 0, 64, 73
1, 60792, Control_c, 0, 64, 71
1, 60807, Control_c, 0, 64, 68
1, 60822, Control_c, 0, 64, 64
1, 60832, Note_on_c, 0, 71, 57
1, 60837, Control_c, 0, 64, 58
1, 60851, Control_c, 0, 64, 52
1, 60866, Control_c, 0, 64, 50
1, 60896, Control_c, 0, 64, 51
1, 60911, Control_c, 0, 64, 52
1, 60914, Note_off_c, 0, 68, 56
1, 60919, Note_on_c, 0, 51, 35
1, 60926, Control_c, 0, 64, 55
1, 60941, Control_c, 0, 64, 59
1, 60955, Control_c, 0, 64, 62
1, 60970, Control_c, 0, 64, 64
1, 60981, Note_off_c, 0, 44, 41
1, 60985, Control_c, 0, 64, 66
1, 61000, Control_c, 0, 64, 68
1, 61015, Control_c, 0, 64, 72
1, 61021, Note_off_c, 0, 51, 52
1, 61029, Control_c, 0, 64, 78
1, 61044, Control_c, 0, 64, 83
1, 61059, Control_c, 0, 64, 89
1, 61074, Control_c, 0, 64, 93
1, 61082, Note_on_c, 0, 53, 37
1, 61088, Control_c, 0, 64, 96
1, 61097, Note_on_c, 0, 61, 61
1, 61102, Note_on_c, 0, 69, 61
1, 61103, Control_c, 0, 64, 97
1, 61105, Note_off_c, 0, 71, 58
1, 61118, Control_c, 0, 64, 98
1, 61133, Control_c, 0, 64, 99
1, 61170, Note_off_c, 0, 53, 52
1, 61192, Control_c, 0, 64, 98
1, 61215, Note_on_c, 0, 54, 39
1, 61222, Control_c, 0, 64, 98
1, 61232, Note_off_c, 0, 69, 54
1, 61251, Control_c, 0, 64, 97
1, 61266, Control_c, 0, 64, 97
1, 61281, Control_c, 0, 64, 96
1, 61284, Note_on_c, 0, 69, 36
1, 61312, Control_c, 0, 64, 96
1, 61314, Note_on_c, 0, 55, 42
1, 61326, Control_c, 0, 64, 95
1, 61330, Note_off_c, 0, 54, 35
1, 61349, Note_on_c, 0, 68, 67
1, 61356, Control_c, 0, 64, 95
1, 61370, Control_c, 0, 64, 94
1, 61400, Control_c, 0, 64, 94
1, 61415, Control_c, 0, 64, 93
1, 61430, Control_c, 0, 64, 93
1, 61431, Note_off_c, 0, 69, 32
1, 61445, Control_c, 0, 64, 92
1, 61445, Note_off_c, 0, 55, 51
1, 61455, Note_on_c, 0, 56, 48
1, 61473, Note_off_c, 0, 61, 60
1, 61474, Control_c, 0, 64, 91
1, 61489, Control_c, 0, 64, 91
1, 61511, Control_c, 0, 64, 90
1, 61519, Note_on_c, 0, 64, 37
1, 61526, Control_c, 0, 64, 89
1, 61541, Control_c, 0, 64, 88
1, 61556, Control_c, 0, 64, 87
1, 61569, Note_off_c, 0, 56, 49
1, 61571, Control_c, 0, 64, 86
1, 61585, Control_c, 0, 64, 85
1, 61591, Note_on_c, 0, 63, 70
1, 61594, Note_off_c, 0, 68, 55
1, 61600, Control_c, 0, 64, 83
1, 61601, Note_on_c, 0, 59, 45
1, 61615, Control_c, 0, 64, 82
1, 61617, Note_on_c, 0, 66, 56
1, 61630, Control_c, 0, 64, 80
1, 61645, Control_c, 0, 64, 79
1, 61659, Control_c, 0, 64, 78
1, 61674, Control_c, 0, 64, 76
1, 61689, Control_c, 0, 64, 74
1, 61699, Note_off_c, 0, 64, 40
1, 61704, Control_c, 0, 64, 73
1, 61719, Control_c, 0, 64, 71
1, 61734, Control_c, 0, 64, 70
1, 61744, Note_on_c, 0, 57, 41
1, 61749, Control_c, 0, 64, 68
1, 61758, Note_off_c, 0, 59, 37
1, 61764, Control_c, 0, 64, 67
1, 61778, Control_c, 0, 64, 66
1, 61793, Control_c, 0, 64, 65
1, 61808, Control_c, 0, 64, 64
1, 61823, Control_c, 0, 64, 63
1, 61838, Control_c, 0, 64, 63
1, 61846, Note_off_c, 0, 57, 59
1, 61852, Control_c, 0, 64, 62
1, 61874, Note_on_c, 0, 56, 38
1, 61892, Note_on_c, 0, 67, 56
1, 61897, Control_c, 0, 64, 61
1, 61965, Note_off_c, 0, 56, 59
1, 61969, Note_off_c, 0, 66, 38
1, 61971, Control_c, 0, 64, 61
1, 61998, Note_on_c, 0, 57, 44
1, 62030, Control_c, 0, 64, 60
1, 62134, Control_c, 0, 64, 60
1, 62182, Note_on_c, 0, 52, 28
1, 62184, Note_on_c, 0, 61, 55
1, 62193, Control_c, 0, 64, 59
1, 62269, Note_off_c, 0, 57, 29
1, 62290, Control_c, 0, 64, 59
1, 62334, Note_off_c, 0, 63, 61
1, 62349, Control_c, 0, 64, 58
1, 62352, Note_on_c, 0, 51, 37
1, 62383, Note_off_c, 0, 52, 41
1, 62394, Control_c, 0, 64, 58
1, 62423, Control_c, 0, 64, 57
1, 62453, Control_c, 0, 64, 57
1, 62468, Control_c, 0, 64, 56
1, 62482, Control_c, 0, 64, 56
1, 62497, Control_c, 0, 64, 55
1, 62527, Control_c, 0, 64, 55
1, 62529, Note_off_c, 0, 51, 40
1, 62533, Note_on_c, 0, 44, 25
1, 62542, Control_c, 0, 64, 54
1, 62557, Control_c, 0, 64, 53
1, 62571, Control_c, 0, 64, 51
1, 62577, Note_on_c, 0, 60, 40
1, 62586, Control_c, 0, 64, 50
1, 62601, Control_c, 0, 64, 48
1, 62616, Control_c, 0, 64, 47
1, 62622, Note_off_c, 0, 61, 59
1, 62631, Control_c, 0, 64, 46
1, 62676, Control_c, 0, 64, 48
1, 62690, Control_c, 0, 64, 53
1, 62705, Control_c, 0, 64, 58
1, 62720, Control_c, 0, 64, 63
1, 62734, Control_c, 0, 64, 67
1, 62749, Control_c, 0, 64, 72
1, 62762, Note_on_c, 0, 51, 46
1, 62764, Control_c, 0, 64, 81
1, 62767, Note_off_c, 0, 44, 52
1, 62779, Control_c, 0, 64, 89
1, 62794, Control_c, 0, 64, 93
1, 62814, Note_off_c, 0, 51, 58
1, 62823, Control_c, 0, 64, 92
1, 62838, Control_c, 0, 64, 92
1, 62852, Control_c, 0, 64, 91
1, 62867, Control_c, 0, 64, 90
1, 62882, Control_c, 0, 64, 88
1, 62898, Control_c, 0, 64, 87
1, 62913, Control_c, 0, 64, 85
1, 62928, Control_c, 0, 64, 84
1, 62943, Control_c, 0, 64, 82
1, 62957, Control_c, 0, 64, 80
1, 62972, Control_c, 0, 64, 78
1, 62987, Note_on_c, 0, 63, 32
1, 62987, Control_c, 0, 64, 77
1, 62991, Note_on_c, 0, 68, 38
1, 63010, Control_c, 0, 64, 74
1, 63025, Control_c, 0, 64, 69
1, 63030, Note_off_c, 0, 67, 35
1, 63039, Control_c, 0, 64, 64
1, 63054, Control_c, 0, 64, 60
1, 63069, Control_c, 0, 64, 61
1, 63084, Control_c, 0, 64, 62
1, 63099, Control_c, 0, 64, 64
1, 63113, Control_c, 0, 64, 66
1, 63128, Control_c, 0, 64, 68
1, 63137, Note_on_c, 0, 51, 38
1, 63143, Control_c, 0, 64, 71
1, 63157, Control_c, 0, 64, 74
1, 63172, Control_c, 0, 64, 77
1, 63202, Control_c, 0, 64, 76
1, 63203, Note_off_c, 0, 60, 28
1, 63217, Control_c, 0, 64, 74
1, 63231, Control_c, 0, 64, 69
1, 63246, Control_c, 0, 64, 66
1, 63261, Control_c, 0, 64, 65
1, 63276, Control_c, 0, 64, 66
1, 63291, Control_c, 0, 64, 67
1, 63304, Note_on_c, 0, 61, 38
1, 63305, Control_c, 0, 64, 70
1, 63311, Note_off_c, 0, 51, 41
1, 63320, Control_c, 0, 64, 73
1, 63335, Control_c, 0, 64, 77
1, 63349, Note_off_c, 0, 68, 46
1, 63349, Control_c, 0, 64, 81
1, 63364, Control_c, 0, 64, 83
1, 63379, Control_c, 0, 64, 84
1, 63429, Note_off_c, 0, 63, 38
1, 63445, Note_on_c, 0, 56, 32
1, 63498, Control_c, 0, 64, 83
1, 63513, Control_c, 0, 64, 82
1, 63525, Note_off_c, 0, 61, 29
1, 63528, Control_c, 0, 64, 79
1, 63543, Control_c, 0, 64, 74
1, 63557, Control_c, 0, 64, 69
1, 63572, Control_c, 0, 64, 66
1, 63585, Note_on_c, 0, 60, 32
1, 63587, Control_c, 0, 64, 66
1, 63602, Control_c, 0, 64, 68
1, 63612, Note_off_c, 0, 56, 42
1, 63617, Control_c, 0, 64, 70
1, 63631, Control_c, 0, 64, 73
1, 63646, Control_c, 0, 64, 76
1, 63661, Control_c, 0, 64, 80
1, 63675, Control_c, 0, 64, 82
1, 63690, Control_c, 0, 64, 85
1, 63692, Note_on_c, 0, 51, 44
1, 63707, Control_c, 0, 64, 86
1, 63779, Note_off_c, 0, 60, 39
1, 63788, Control_c, 0, 64, 86
1, 63803, Control_c, 0, 64, 85
1, 63817, Control_c, 0, 64, 85
1, 63832, Control_c, 0, 64, 84
1, 63847, Control_c, 0, 64, 83
1, 63862, Control_c, 0, 64, 82
1, 63877, Control_c, 0, 64, 78
1, 63878, Note_off_c, 0, 51, 36
1, 63888, Note_on_c, 0, 66, 45
1, 63892, Note_on_c, 0, 57, 39
1, 63892, Control_c, 0, 64, 73
1, 63906, Control_c, 0, 64, 67
1, 63921, Control_c, 0, 64, 62
1, 63936, Control_c, 0, 64, 61
1, 63951, Control_c, 0, 64, 62
1, 63966, Control_c, 0, 64, 63
1, 63980, Control_c, 0, 64, 65
1, 63995, Control_c, 0, 64, 68
1, 64010, Control_c, 0, 64, 72
1, 64025, Control_c, 0, 64, 76
1, 64029, Note_on_c, 0, 63, 39
1, 64030, Note_off_c, 0, 57, 0
1, 64040, Control_c, 0, 64, 82
1, 64054, Control_c, 0, 64, 89
1, 64069, Control_c, 0, 64, 96
1, 64084, Control_c, 0, 64, 100
1, 64089, Poly_aftertouch_c, 0, 57, 0
1, 64098, Control_c, 0, 64, 103
1, 64113, Control_c, 0, 64, 103
1, 64171, Note_on_c, 0, 56, 37
1, 64194, Note_on_c, 0, 68, 66
1, 64265, Note_off_c, 0, 63, 36
1, 64277, Control_c, 0, 64, 103
1, 64278, Note_off_c, 0, 66, 33
1, 64291, Control_c, 0, 64, 102
1, 64310, Note_on_c, 0, 51, 48
1, 64321, Control_c, 0, 64, 102
1, 64336, Control_c, 0, 64, 101
1, 64339, Note_off_c, 0, 51, 58
1, 64351, Control_c, 0, 64, 101
1, 64353, Note_off_c, 0, 56, 41
1, 64380, Control_c, 0, 64, 100
1, 64395, Control_c, 0, 64, 100
1, 64410, Control_c, 0, 64, 99
1, 64425, Control_c, 0, 64, 98
1, 64440, Control_c, 0, 64, 97
1, 64454, Control_c, 0, 64, 96
1, 64469, Control_c, 0, 64, 95
1, 64484, Control_c, 0, 64, 94
1, 64507, Control_c, 0, 64, 93
1, 64522, Control_c, 0, 64, 91
1, 64537, Control_c, 0, 64, 84
1, 64539, Note_on_c, 0, 47, 34
1, 64551, Control_c, 0, 64, 74
1, 64553, Note_off_c, 0, 68, 61
1, 64564, Note_on_c, 0, 69, 63
1, 64566, Control_c, 0, 64, 64
1, 64581, Control_c, 0, 64, 52
1, 64596, Control_c, 0, 64, 50
1, 64610, Control_c, 0, 64, 53
1, 64625, Control_c, 0, 64, 57
1, 64640, Control_c, 0, 64, 60
1, 64655, Control_c, 0, 64, 63
1, 64670, Control_c, 0, 64, 66
1, 64685, Control_c, 0, 64, 70
1, 64700, Control_c, 0, 64, 77
1, 64704, Note_off_c, 0, 47, 41
1, 64715, Control_c, 0, 64, 91
1, 64729, Control_c, 0, 64, 114
1, 64744, Control_c, 0, 64, 127
1, 64747, Note_on_c, 0, 54, 40
1, 64777, Note_off_c, 0, 54, 58
1, 64903, Note_on_c, 0, 66, 52
1, 64936, Note_on_c, 0, 75, 48
1, 65019, Note_on_c, 0, 54, 52
1, 65101, Note_off_c, 0, 66, 36
1, 65173, Note_on_c, 0, 76, 76
1, 65185, Note_off_c, 0, 54, 42
1, 65189, Note_on_c, 0, 64, 47
1, 65223, Note_off_c, 0, 75, 58
1, 65270, Control_c, 0, 64, 120
1, 65275, Note_off_c, 0, 64, 59
1, 65284, Control_c, 0, 64, 115
1, 65300, Control_c, 0, 64, 113
1, 65315, Control_c, 0, 64, 109
1, 65330, Note_on_c, 0, 57, 34
1, 65330, Control_c, 0, 64, 106
1, 65345, Control_c, 0, 64, 102
1, 65359, Control_c, 0, 64, 100
1, 65368, Note_off_c, 0, 57, 58
1, 65374, Control_c, 0, 64, 98
1, 65389, Control_c, 0, 64, 98
1, 65404, Control_c, 0, 64, 96
1, 65419, Control_c, 0, 64, 93
1, 65433, Control_c, 0, 64, 87
1, 65448, Control_c, 0, 64, 82
1, 65459, Note_on_c, 0, 63, 44
1, 65463, Control_c, 0, 64, 77
1, 65464, Note_on_c, 0, 78, 83
1, 65478, Control_c, 0, 64, 73
1, 65493, Control_c, 0, 64, 72
1, 65508, Control_c, 0, 64, 73
1, 65523, Control_c, 0, 64, 76
1, 65524, Note_off_c, 0, 76, 57
1, 65537, Control_c, 0, 64, 80
1, 65552, Control_c, 0, 64, 88
1, 65567, Control_c, 0, 64, 98
1, 65576, Note_off_c, 0, 69, 48
1, 65582, Control_c, 0, 64, 117
1, 65597, Note_off_c, 0, 63, 58
1, 65597, Control_c, 0, 64, 127
1, 65624, Note_on_c, 0, 54, 44
1, 65764, Note_off_c, 0, 54, 35
1, 65782, Note_on_c, 0, 47, 34
1, 65790, Note_on_c, 0, 69, 76
1, 65943, Note_off_c, 0, 47, 45
1, 65943, Note_on_c, 0, 54, 39
1, 66071, Note_on_c, 0, 73, 78
1, 66073, Note_on_c, 0, 51, 39
1, 66184, Note_off_c, 0, 69, 54
1, 66204, Note_on_c, 0, 45, 43
1, 66224, Note_off_c, 0, 54, 33
1, 66238, Note_off_c, 0, 45, 62
1, 66286, Control_c, 0, 64, 125
1, 66301, Control_c, 0, 64, 116
1, 66316, Control_c, 0, 64, 112
1, 66330, Control_c, 0, 64, 109
1, 66335, Note_off_c, 0, 51, 41
1, 66345, Control_c, 0, 64, 107
1, 66360, Control_c, 0, 64, 102
1, 66375, Note_off_c, 0, 73, 62
1, 66375, Control_c, 0, 64, 95
1, 66387, Note_on_c, 0, 44, 38
1, 66390, Control_c, 0, 64, 82
1, 66398, Note_on_c, 0, 72, 59
1, 66405, Control_c, 0, 64, 71
1, 66420, Control_c, 0, 64, 62
1, 66435, Control_c, 0, 64, 55
1, 66449, Control_c, 0, 64, 55
1, 66464, Control_c, 0, 64, 58
1, 66479, Control_c, 0, 64, 62
1, 66494, Control_c, 0, 64, 65
1, 66509, Control_c, 0, 64, 70
1, 66523, Control_c, 0, 64, 77
1, 66538, Control_c, 0, 64, 89
1, 66553, Control_c, 0, 64, 105
1, 66557, Note_on_c, 0, 51, 48
1, 66557, Note_off_c, 0, 44, 48
1, 66567, Control_c, 0, 64, 120
1, 66597, Control_c, 0, 64, 117
1, 66598, Note_off_c, 0, 51, 62
1, 66612, Control_c, 0, 64, 115
1, 66627, Control_c, 0, 64, 113
1, 66641, Control_c, 0, 64, 111
1, 66656, Control_c, 0, 64, 108
1, 66671, Control_c, 0, 64, 106
1, 66686, Control_c, 0, 64, 104
1, 66694, Note_off_c, 0, 72, 32
1, 66700, Control_c, 0, 64, 102
1, 66715, Control_c, 0, 64, 100
1, 66730, Control_c, 0, 64, 97
1, 66753, Control_c, 0, 64, 91
1, 66759, Note_on_c, 0, 80, 58
1, 66763, Note_on_c, 0, 68, 41
1, 66768, Control_c, 0, 64, 80
1, 66777, Note_on_c, 0, 63, 39
1, 66782, Control_c, 0, 64, 71
1, 66794, Note_off_c, 0, 78, 50
1, 66797, Control_c, 0, 64, 64
1, 66812, Control_c, 0, 64, 62
1, 66827, Control_c, 0, 64, 63
1, 66842, Control_c, 0, 64, 65
1, 66856, Control_c, 0, 64, 67
1, 66871, Control_c, 0, 64, 70
1, 66886, Control_c, 0, 64, 74
1, 66900, Note_on_c, 0, 51, 36
1, 66902, Control_c, 0, 64, 78
1, 66917, Control_c, 0, 64, 82
1, 66932, Control_c, 0, 64, 83
1, 66946, Control_c, 0, 64, 82
1, 66961, Control_c, 0, 64, 79
1, 66976, Control_c, 0, 64, 73
1, 66990, Control_c, 0, 64, 69
1, 67005, Control_c, 0, 64, 68
1, 67020, Control_c, 0, 64, 70
1, 67035, Control_c, 0, 64, 74
1, 67037, Note_on_c, 0, 61, 45
1, 67050, Control_c, 0, 64, 82
1, 67064, Control_c, 0, 64, 88
1, 67079, Control_c, 0, 64, 93
1, 67082, Note_off_c, 0, 51, 41
1, 67094, Control_c, 0, 64, 98
1, 67109, Control_c, 0, 64, 101
1, 67124, Control_c, 0, 64, 102
1, 67146, Note_off_c, 0, 63, 36
1, 67173, Note_on_c, 0, 56, 44
1, 67187, Note_off_c, 0, 68, 33
1, 67219, Note_off_c, 0, 61, 36
1, 67291, Note_off_c, 0, 56, 49
1, 67293, Note_on_c, 0, 60, 49
1, 67308, Note_off_c, 0, 80, 39
1, 67346, Control_c, 0, 64, 102
1, 67361, Control_c, 0, 64, 101
1, 67364, Note_off_c, 0, 60, 50
1, 67376, Control_c, 0, 64, 100
1, 67390, Control_c, 0, 64, 100
1, 67398, Note_on_c, 0, 51, 44
1, 67405, Control_c, 0, 64, 99
1, 67435, Control_c, 0, 64, 98
1, 67464, Control_c, 0, 64, 98
1, 67479, Control_c, 0, 64, 97
1, 67502, Control_c, 0, 64, 96
1, 67517, Control_c, 0, 64, 90
1, 67531, Control_c, 0, 64, 83
1, 67546, Control_c, 0, 64, 74
1, 67552, Note_on_c, 0, 57, 45
1, 67556, Note_on_c, 0, 78, 62
1, 67561, Control_c, 0, 64, 68
1, 67567, Note_off_c, 0, 51, 35
1, 67576, Control_c, 0, 64, 66
1, 67577, Note_on_c, 0, 66, 49
1, 67591, Control_c, 0, 64, 67
1, 67605, Control_c, 0, 64, 69
1, 67620, Control_c, 0, 64, 72
1, 67635, Control_c, 0, 64, 76
1, 67650, Control_c, 0, 64, 81
1, 67665, Control_c, 0, 64, 89
1, 67673, Note_on_c, 0, 63, 55
1, 67679, Control_c, 0, 64, 102
1, 67695, Control_c, 0, 64, 127
1, 67731, Note_off_c, 0, 66, 60
1, 67745, Note_off_c, 0, 57, 32
1, 67797, Note_on_c, 0, 56, 48
1, 67817, Note_on_c, 0, 80, 82
1, 67824, Note_on_c, 0, 68, 70
1, 67831, Note_off_c, 0, 63, 60
1, 67904, Note_on_c, 0, 51, 59
1, 67922, Note_off_c, 0, 56, 63
1, 67925, Note_off_c, 0, 78, 53
1, 67935, Note_off_c, 0, 51, 66
1, 68037, Note_off_c, 0, 68, 61
1, 68079, Note_on_c, 0, 47, 61
1, 68104, Note_on_c, 0, 81, 85
1, 68107, Note_on_c, 0, 69, 84
1, 68125, Control_c, 0, 64, 93
1, 68134, Note_off_c, 0, 80, 64
1, 68140, Control_c, 0, 64, 74
1, 68155, Control_c, 0, 64, 61
1, 68170, Control_c, 0, 64, 50
1, 68185, Control_c, 0, 64, 49
1, 68199, Control_c, 0, 64, 52
1, 68214, Control_c, 0, 64, 56
1, 68229, Control_c, 0, 64, 60
1, 68251, Control_c, 0, 64, 64
1, 68266, Control_c, 0, 64, 67
1, 68268, Note_on_c, 0, 54, 61
1, 68281, Control_c, 0, 64, 72
1, 68286, Note_off_c, 0, 47, 58
1, 68295, Control_c, 0, 64, 81
1, 68310, Control_c, 0, 64, 96
1, 68325, Control_c, 0, 64, 127
1, 68331, Note_off_c, 0, 54, 62
1, 68371, Note_on_c, 0, 59, 57
1, 68409, Note_off_c, 0, 59, 50
1, 68416, Note_off_c, 0, 69, 52
1, 68483, Note_on_c, 0, 54, 62
1, 68599, Note_on_c, 0, 63, 71
1, 68656, Note_off_c, 0, 81, 61
1, 68709, Note_on_c, 0, 59, 75
1, 68756, Note_off_c, 0, 54, 49
1, 68799, Note_off_c, 0, 63, 58
1, 68829, Note_on_c, 0, 68, 78
1, 68887, Note_off_c, 0, 59, 60
1, 68933, Note_on_c, 0, 63, 69
1, 68951, Note_off_c, 0, 68, 61
1, 69082, Note_on_c, 0, 66, 75
1, 69086, Note_on_c, 0, 87, 84
1, 69091, Note_off_c, 0, 63, 58
1, 69098, Note_on_c, 0, 75, 66
1, 69191, Note_on_c, 0, 59, 73
1, 69237, Note_off_c, 0, 66, 52
1, 69270, Note_off_c, 0, 87, 63
1, 69280, Note_off_c, 0, 75, 61
1, 69332, Note_on_c, 0, 88, 101
1, 69337, Note_on_c, 0, 64, 82
1, 69337, Note_on_c, 0, 76, 98
1, 69408, Note_off_c, 0, 59, 52
1, 69459, Note_on_c, 0, 54, 78
1, 69471, Note_off_c, 0, 64, 62
1, 69472, Note_off_c, 0, 76, 56
1, 69487, Note_off_c, 0, 54, 66
1, 69604, Note_off_c, 0, 88, 61
1, 69633, Note_on_c, 0, 47, 75
1, 69648, Note_on_c, 0, 90, 94
1, 69651, Note_on_c, 0, 78, 92
1, 69651, Control_c, 0, 64, 80
1, 69666, Control_c, 0, 64, 60
1, 69681, Control_c, 0, 64, 0
1, 69711, Control_c, 0, 64, 37
1, 69726, Control_c, 0, 64, 56
1, 69747, Control_c, 0, 64, 68
1, 69762, Control_c, 0, 64, 87
1, 69777, Control_c, 0, 64, 127
1, 69815, Note_off_c, 0, 90, 65
1, 69816, Note_off_c, 0, 78, 61
1, 69818, Note_on_c, 0, 54, 76
1, 69832, Note_off_c, 0, 47, 62
1, 69890, Note_off_c, 0, 54, 64
1, 69909, Poly_aftertouch_c, 0, 50, 0
1, 69963, Note_on_c, 0, 63, 83
1, 69976, Note_on_c, 0, 69, 93
1, 69977, Note_on_c, 0, 81, 90
1, 70009, Note_off_c, 0, 63, 63
1, 70100, Note_on_c, 0, 66, 91
1, 70140, Note_off_c, 0, 69, 57
1, 70223, Note_on_c, 0, 71, 103
1, 70226, Note_on_c, 0, 83, 98
1, 70226, Note_on_c, 0, 63, 78
1, 70272, Note_off_c, 0, 81, 58
1, 70273, Note_off_c, 0, 66, 56
1, 70331, Note_on_c, 0, 54, 79
1, 70342, Note_off_c, 0, 63, 64
1, 70355, Note_off_c, 0, 54, 70
1, 70368, Note_off_c, 0, 71, 59
1, 70465, Note_on_c, 0, 45, 84
1, 70475, Note_on_c, 0, 73, 98
1, 70480, Note_on_c, 0, 85, 93
1, 70496, Control_c, 0, 64, 74
1, 70510, Note_off_c, 0, 83, 61
1, 70511, Control_c, 0, 64, 24
1, 70526, Control_c, 0, 64, 0
1, 70555, Control_c, 0, 64, 44
1, 70570, Control_c, 0, 64, 67
1, 70585, Control_c, 0, 64, 127
1, 70590, Note_off_c, 0, 73, 65
1, 70637, Note_off_c, 0, 85, 64
1, 70638, Note_on_c, 0, 54, 82
1, 70659, Note_off_c, 0, 45, 62
1, 70702, Note_off_c, 0, 54, 65
1, 70785, Note_on_c, 0, 92, 101
1, 70786, Note_on_c, 0, 80, 94
1, 70787, Note_on_c, 0, 63, 87
1, 70802, Note_on_c, 0, 90, 76
1, 70815, Note_off_c, 0, 90, 68
1, 70837, Note_on_c, 0, 65, 37
1, 70850, Note_off_c, 0, 63, 62
1, 70870, Note_off_c, 0, 65, 50
1, 70870, Note_on_c, 0, 64, 2
1, 70911, Note_off_c, 0, 64, 51
1, 70939, Note_on_c, 0, 66, 92
1, 71011, Note_off_c, 0, 80, 58
1, 71106, Note_on_c, 0, 93, 98
1, 71107, Note_on_c, 0, 81, 102
1, 71124, Note_on_c, 0, 63, 75
1, 71127, Note_off_c, 0, 92, 66
1, 71174, Note_off_c, 0, 81, 65
1, 71177, Note_off_c, 0, 93, 67
1, 71198, Note_off_c, 0, 66, 58
1, 71300, Note_on_c, 0, 54, 80
1, 71317, Note_off_c, 0, 63, 63
1, 71342, Note_on_c, 0, 53, 57
1, 71350, Note_off_c, 0, 54, 63
1, 71364, Note_off_c, 0, 53, 60
1, 71492, Note_on_c, 0, 32, 83
1, 71526, Control_c, 0, 64, 86
1, 71538, Note_on_c, 0, 72, 79
1, 71541, Control_c, 0, 64, 55
1, 71556, Control_c, 0, 64, 0
1, 71601, Control_c, 0, 64, 49
1, 71606, Note_on_c, 0, 78, 78
1, 71616, Control_c, 0, 64, 67
1, 71624, Note_off_c, 0, 72, 61
1, 71630, Control_c, 0, 64, 98
1, 71645, Control_c, 0, 64, 127
1, 71674, Note_on_c, 0, 82, 75
1, 71674, Note_off_c, 0, 78, 65
1, 71696, Note_off_c, 0, 82, 70
1, 71746, Note_on_c, 0, 44, 61
1, 71750, Note_on_c, 0, 84, 85
1, 71769, Note_off_c, 0, 32, 60
1, 71809, Note_on_c, 0, 90, 80
1, 71816, Note_off_c, 0, 84, 62
1, 71825, Note_off_c, 0, 44, 61
1, 71867, Note_on_c, 0, 94, 102
1, 71872, Note_off_c, 0, 90, 64
1, 71917, Note_off_c, 0, 94, 65
1, 72158, Note_on_c, 0, 51, 45
1, 72184, Note_on_c, 0, 60, 49
1, 72259, Note_off_c, 0, 51, 59
1, 72271, Note_off_c, 0, 60, 43
1, 72282, Note_on_c, 0, 54, 51
1, 72296, Note_on_c, 0, 63, 50
1, 72337, Note_off_c, 0, 54, 59
1, 72370, Note_off_c, 0, 63, 59
1, 72385, Note_on_c, 0, 66, 51
1, 72394, Note_on_c, 0, 58, 33
1, 72428, Note_off_c, 0, 58, 46
1, 72438, Note_off_c, 0, 66, 58
1, 72467, Note_on_c, 0, 70, 62
1, 72477, Note_on_c, 0, 60, 43
1, 72500, Note_off_c, 0, 70, 67
1, 72510, Note_off_c, 0, 60, 55
1, 72561, Note_on_c, 0, 72, 66
1, 72567, Note_on_c, 0, 63, 55
1, 72647, Note_off_c, 0, 63, 60
1, 72647, Note_on_c, 0, 75, 73
1, 72656, Note_off_c, 0, 72, 53
1, 72657, Note_on_c, 0, 66, 62
1, 72726, Note_off_c, 0, 66, 60
1, 72730, Note_on_c, 0, 78, 74
1, 72746, Note_off_c, 0, 75, 62
1, 72754, Note_on_c, 0, 70, 55
1, 72781, Note_off_c, 0, 70, 64
1, 72801, Note_on_c, 0, 82, 79
1, 72801, Note_off_c, 0, 78, 63
1, 72814, Note_on_c, 0, 72, 62
1, 72848, Note_off_c, 0, 82, 65
1, 72854, Note_off_c, 0, 72, 61
1, 72897, Note_on_c, 0, 84, 80
1, 72897, Note_on_c, 0, 75, 61
1, 72981, Note_off_c, 0, 75, 62
1, 72982, Note_on_c, 0, 87, 76
1, 72998, Note_off_c, 0, 84, 56
1, 73001, Note_on_c, 0, 78, 52
1, 73108, Note_off_c, 0, 78, 57
1, 73111, Note_off_c, 0, 87, 59
1, 73119, Note_on_c, 0, 90, 60
1, 73130, Note_on_c, 0, 82, 36
1, 73175, Note_off_c, 0, 90, 59
1, 73196, Note_on_c, 0, 92, 65
1, 73210, Note_off_c, 0, 82, 57
1, 73239, Note_on_c, 0, 81, 42
1, 73267, Note_off_c, 0, 92, 63
1, 73278, Note_on_c, 0, 90, 68
1, 73291, Note_off_c, 0, 81, 60
1, 73342, Note_off_c, 0, 90, 63
1, 73350, Note_on_c, 0, 89, 72
1, 73351, Note_on_c, 0, 80, 42
1, 73415, Note_off_c, 0, 80, 57
1, 73443, Note_on_c, 0, 98, 77
1, 73451, Note_on_c, 0, 83, 48
1, 73452, Note_off_c, 0, 89, 61
1, 73520, Note_off_c, 0, 83, 58
1, 73543, Note_on_c, 0, 97, 82
1, 73553, Note_off_c, 0, 98, 58
1, 73561, Note_on_c, 0, 82, 45
1, 73592, Note_off_c, 0, 82, 58
1, 73622, Note_on_c, 0, 88, 79
1, 73625, Note_off_c, 0, 97, 63
1, 73643, Note_on_c, 0, 80, 53
1, 73684, Note_off_c, 0, 80, 62
1, 73708, Note_on_c, 0, 87, 71
1, 73708, Note_off_c, 0, 88, 62
1, 73737, Note_on_c, 0, 79, 46
1, 73753, Note_off_c, 0, 87, 61
1, 73774, Note_on_c, 0, 89, 67
1, 73783, Note_off_c, 0, 79, 61
1, 73813, Note_on_c, 0, 78, 52
1, 73830, Note_on_c, 0, 87, 69
1, 73838, Note_off_c, 0, 89, 63
1, 73884, Note_off_c, 0, 87, 65
1, 73892, Note_on_c, 0, 86, 71
1, 73912, Note_off_c, 0, 78, 55
1, 73914, Note_on_c, 0, 77, 48
1, 73965, Note_off_c, 0, 77, 61
1, 73969, Note_off_c, 0, 86, 57
1, 73976, Note_on_c, 0, 95, 82
1, 73987, Note_on_c, 0, 80, 59
1, 74039, Note_off_c, 0, 80, 57
1, 74063, Note_on_c, 0, 94, 79
1, 74078, Note_on_c, 0, 79, 56
1, 74090, Note_off_c, 0, 95, 61
1, 74133, Note_off_c, 0, 79, 58
1, 74139, Note_on_c, 0, 85, 79
1, 74154, Note_on_c, 0, 76, 52
1, 74170, Note_off_c, 0, 94, 61
1, 74175, Control_c, 0, 64, 125
1, 74190, Control_c, 0, 64, 117
1, 74204, Control_c, 0, 64, 115
1, 74209, Note_off_c, 0, 76, 55
1, 74219, Control_c, 0, 64, 110
1, 74221, Note_on_c, 0, 75, 55
1, 74221, Note_on_c, 0, 84, 68
1, 74221, Note_off_c, 0, 85, 64
1, 74242, Control_c, 0, 64, 106
1, 74257, Control_c, 0, 64, 101
1, 74271, Control_c, 0, 64, 96
1, 74286, Control_c, 0, 64, 92
1, 74295, Note_off_c, 0, 75, 56
1, 74301, Control_c, 0, 64, 88
1, 74304, Note_on_c, 0, 93, 77
1, 74310, Note_off_c, 0, 84, 62
1, 74316, Note_on_c, 0, 78, 60
1, 74316, Control_c, 0, 64, 85
1, 74331, Control_c, 0, 64, 84
1, 74345, Control_c, 0, 64, 83
1, 74360, Control_c, 0, 64, 83
1, 74362, Note_off_c, 0, 78, 58
1, 74382, Note_on_c, 0, 92, 83
1, 74389, Note_on_c, 0, 77, 63
1, 74389, Control_c, 0, 64, 82
1, 74403, Note_off_c, 0, 93, 63
1, 74419, Control_c, 0, 64, 82
1, 74449, Control_c, 0, 64, 81
1, 74451, Note_off_c, 0, 77, 58
1, 74456, Note_on_c, 0, 83, 77
1, 74460, Note_on_c, 0, 74, 59
1, 74465, Note_off_c, 0, 92, 65
1, 74478, Control_c, 0, 64, 81
1, 74527, Note_off_c, 0, 74, 60
1, 74530, Note_on_c, 0, 73, 64
1, 74534, Note_on_c, 0, 82, 80
1, 74540, Note_off_c, 0, 83, 61
1, 74552, Control_c, 0, 64, 81
1, 74582, Control_c, 0, 64, 82
1, 74586, Note_off_c, 0, 73, 60
1, 74596, Control_c, 0, 64, 82
1, 74598, Note_on_c, 0, 91, 83
1, 74602, Note_off_c, 0, 82, 64
1, 74607, Note_on_c, 0, 76, 67
1, 74611, Control_c, 0, 64, 83
1, 74641, Control_c, 0, 64, 83
1, 74675, Note_off_c, 0, 76, 62
1, 74676, Note_on_c, 0, 90, 81
1, 74681, Note_on_c, 0, 75, 67
1, 74685, Control_c, 0, 64, 83
1, 74708, Note_off_c, 0, 91, 64
1, 74733, Note_off_c, 0, 75, 53
1, 74740, Note_on_c, 0, 81, 78
1, 74744, Control_c, 0, 64, 82
1, 74754, Note_on_c, 0, 72, 55
1, 74755, Note_off_c, 0, 90, 64
1, 74788, Control_c, 0, 64, 82
1, 74818, Note_on_c, 0, 80, 83
1, 74818, Control_c, 0, 64, 81
1, 74819, Note_on_c, 0, 71, 62
1, 74821, Note_off_c, 0, 72, 61
1, 74830, Note_off_c, 0, 81, 60
1, 74848, Control_c, 0, 64, 81
1, 74862, Control_c, 0, 64, 80
1, 74883, Note_on_c, 0, 89, 88
1, 74883, Note_off_c, 0, 71, 63
1, 74893, Control_c, 0, 64, 80
1, 74895, Note_off_c, 0, 80, 64
1, 74905, Note_on_c, 0, 74, 65
1, 74908, Control_c, 0, 64, 79
1, 74923, Control_c, 0, 64, 78
1, 74938, Control_c, 0, 64, 77
1, 74952, Control_c, 0, 64, 76
1, 74960, Note_off_c, 0, 74, 62
1, 74962, Note_on_c, 0, 73, 63
1, 74962, Note_on_c, 0, 88, 80
1, 74967, Control_c, 0, 64, 75
1, 74990, Control_c, 0, 64, 75
1, 75002, Note_off_c, 0, 89, 63
1, 75005, Control_c, 0, 64, 74
1, 75019, Control_c, 0, 64, 74
1, 75025, Note_off_c, 0, 73, 60
1, 75034, Note_on_c, 0, 79, 74
1, 75036, Note_on_c, 0, 70, 56
1, 75039, Note_off_c, 0, 88, 66
1, 75064, Control_c, 0, 64, 73
1, 75079, Control_c, 0, 64, 73
1, 75092, Note_off_c, 0, 70, 59
1, 75093, Control_c, 0, 64, 72
1, 75108, Control_c, 0, 64, 72
1, 75112, Note_off_c, 0, 79, 66
1, 75116, Note_on_c, 0, 69, 58
1, 75118, Note_on_c, 0, 78, 73
1, 75123, Control_c, 0, 64, 71
1, 75179, Note_off_c, 0, 78, 63
1, 75181, Note_off_c, 0, 69, 63
1, 75186, Note_on_c, 0, 87, 78
1, 75197, Note_on_c, 0, 72, 59
1, 75197, Control_c, 0, 64, 70
1, 75241, Control_c, 0, 64, 70
1, 75262, Note_off_c, 0, 72, 63
1, 75264, Note_on_c, 0, 86, 70
1, 75269, Note_on_c, 0, 71, 60
1, 75271, Control_c, 0, 64, 69
1, 75291, Note_off_c, 0, 87, 61
1, 75300, Control_c, 0, 64, 69
1, 75313, Note_off_c, 0, 71, 59
1, 75315, Control_c, 0, 64, 68
1, 75324, Note_off_c, 0, 86, 64
1, 75330, Control_c, 0, 64, 68
1, 75336, Note_on_c, 0, 77, 63
1, 75346, Control_c, 0, 64, 67
1, 75351, Note_on_c, 0, 68, 42
1, 75375, Control_c, 0, 64, 67
1, 75387, Note_off_c, 0, 68, 59
1, 75390, Control_c, 0, 64, 66
1, 75404, Control_c, 0, 64, 66
1, 75405, Note_off_c, 0, 77, 64
1, 75416, Note_on_c, 0, 67, 47
1, 75417, Note_on_c, 0, 76, 61
1, 75419, Control_c, 0, 64, 65
1, 75434, Control_c, 0, 64, 64
1, 75464, Note_off_c, 0, 76, 61
1, 75492, Note_off_c, 0, 67, 57
1, 75494, Control_c, 0, 64, 65
1, 75495, Note_on_c, 0, 85, 63
1, 75499, Note_on_c, 0, 70, 57
1, 75509, Control_c, 0, 64, 66
1, 75523, Control_c, 0, 64, 68
1, 75538, Control_c, 0, 64, 70
1, 75553, Note_off_c, 0, 70, 56
1, 75553, Control_c, 0, 64, 72
1, 75568, Control_c, 0, 64, 74
1, 75583, Control_c, 0, 64, 75
1, 75597, Note_on_c, 0, 84, 61
1, 75598, Control_c, 0, 64, 75
1, 75602, Note_on_c, 0, 69, 34
1, 75631, Note_off_c, 0, 85, 37
1, 75653, Note_off_c, 0, 69, 45
1, 75657, Control_c, 0, 64, 75
1, 75668, Note_on_c, 0, 66, 41
1, 75675, Note_on_c, 0, 75, 51
1, 75680, Note_off_c, 0, 84, 58
1, 75702, Control_c, 0, 64, 74
1, 75711, Note_off_c, 0, 66, 60
1, 75739, Control_c, 0, 64, 74
1, 75742, Note_off_c, 0, 75, 51
1, 75754, Control_c, 0, 64, 73
1, 75768, Note_on_c, 0, 65, 46
1, 75768, Note_on_c, 0, 74, 50
1, 75769, Control_c, 0, 64, 72
1, 75783, Control_c, 0, 64, 70
1, 75798, Control_c, 0, 64, 67
1, 75813, Control_c, 0, 64, 65
1, 75842, Control_c, 0, 64, 66
1, 75857, Control_c, 0, 64, 66
1, 75867, Note_on_c, 0, 68, 44
1, 75872, Control_c, 0, 64, 68
1, 75883, Note_on_c, 0, 83, 60
1, 75887, Control_c, 0, 64, 70
1, 75902, Control_c, 0, 64, 74
1, 75903, Note_off_c, 0, 74, 58
1, 75914, Note_off_c, 0, 65, 61
1, 75917, Control_c, 0, 64, 78
1, 75919, Note_off_c, 0, 68, 58
1, 75932, Control_c, 0, 64, 82
1, 75947, Control_c, 0, 64, 88
1, 75951, Note_on_c, 0, 67, 47
1, 75962, Control_c, 0, 64, 92
1, 75974, Note_on_c, 0, 82, 68
1, 75977, Control_c, 0, 64, 94
1, 76006, Control_c, 0, 64, 93
1, 76017, Note_off_c, 0, 83, 58
1, 76021, Control_c, 0, 64, 93
1, 76035, Control_c, 0, 64, 92
1, 76050, Control_c, 0, 64, 91
1, 76055, Note_off_c, 0, 67, 54
1, 76063, Note_on_c, 0, 64, 46
1, 76065, Control_c, 0, 64, 91
1, 76078, Note_on_c, 0, 73, 64
1, 76080, Control_c, 0, 64, 90
1, 76095, Control_c, 0, 64, 89
1, 76109, Control_c, 0, 64, 88
1, 76124, Control_c, 0, 64, 87
1, 76139, Control_c, 0, 64, 86
1, 76148, Note_off_c, 0, 82, 56
1, 76154, Control_c, 0, 64, 84
1, 76169, Control_c, 0, 64, 82
1, 76181, Note_off_c, 0, 73, 57
1, 76183, Control_c, 0, 64, 80
1, 76198, Control_c, 0, 64, 79
1, 76201, Note_on_c, 0, 72, 57
1, 76207, Note_on_c, 0, 63, 41
1, 76213, Control_c, 0, 64, 79
1, 76220, Note_off_c, 0, 64, 30
1, 76227, Control_c, 0, 64, 78
1, 76242, Control_c, 0, 64, 77
1, 76257, Control_c, 0, 64, 75
1, 76272, Control_c, 0, 64, 71
1, 76287, Control_c, 0, 64, 67
1, 76302, Control_c, 0, 64, 63
1, 76316, Note_on_c, 0, 81, 54
1, 76316, Control_c, 0, 64, 61
1, 76325, Note_on_c, 0, 66, 31
1, 76346, Control_c, 0, 64, 61
1, 76361, Control_c, 0, 64, 62
1, 76376, Control_c, 0, 64, 63
1, 76391, Note_off_c, 0, 72, 37
1, 76391, Control_c, 0, 64, 64
1, 76406, Control_c, 0, 64, 65
1, 76421, Control_c, 0, 64, 66
1, 76435, Control_c, 0, 64, 68
1, 76442, Note_on_c, 0, 61, 36
1, 76442, Note_off_c, 0, 63, 29
1, 76449, Note_on_c, 0, 82, 60
1, 76450, Control_c, 0, 64, 70
1, 76465, Control_c, 0, 64, 72
1, 76471, Note_off_c, 0, 81, 53
1, 76488, Control_c, 0, 64, 75
1, 76495, Note_off_c, 0, 66, 37
1, 76503, Control_c, 0, 64, 79
1, 76518, Control_c, 0, 64, 84
1, 76532, Control_c, 0, 64, 88
1, 76543, Note_on_c, 0, 73, 56
1, 76547, Control_c, 0, 64, 93
1, 76562, Control_c, 0, 64, 98
1, 76567, Note_on_c, 0, 70, 36
1, 76577, Control_c, 0, 64, 105
1, 76592, Control_c, 0, 64, 117
1, 76606, Control_c, 0, 64, 127
1, 76623, Note_off_c, 0, 73, 61
1, 76636, Note_off_c, 0, 82, 54
1, 76647, Note_on_c, 0, 72, 49
1, 76652, Note_off_c, 0, 61, 34
1, 76656, Note_on_c, 0, 63, 47
1, 76695, Note_off_c, 0, 70, 34
1, 76733, Note_on_c, 0, 81, 58
1, 76755, Note_on_c, 0, 66, 48
1, 76782, Note_off_c, 0, 72, 35
1, 76790, Note_off_c, 0, 63, 35
1, 76820, Note_off_c, 0, 66, 55
1, 76834, Note_on_c, 0, 82, 74
1, 76837, Note_on_c, 0, 61, 54
1, 76847, Note_off_c, 0, 81, 57
1, 76919, Note_on_c, 0, 73, 69
1, 76942, Note_on_c, 0, 70, 47
1, 76992, Note_off_c, 0, 61, 34
1, 77005, Note_off_c, 0, 73, 63
1, 77005, Note_off_c, 0, 82, 57
1, 77015, Note_on_c, 0, 63, 57
1, 77015, Note_on_c, 0, 72, 67
1, 77017, Note_off_c, 0, 70, 56
1, 77097, Note_on_c, 0, 81, 75
1, 77100, Note_on_c, 0, 66, 63
1, 77110, Control_c, 0, 64, 125
1, 77124, Note_off_c, 0, 63, 53
1, 77124, Control_c, 0, 64, 117
1, 77139, Control_c, 0, 64, 114
1, 77141, Note_off_c, 0, 72, 59
1, 77154, Control_c, 0, 64, 111
1, 77169, Control_c, 0, 64, 108
1, 77184, Control_c, 0, 64, 104
1, 77196, Note_on_c, 0, 61, 61
1, 77196, Note_off_c, 0, 66, 59
1, 77196, Note_on_c, 0, 82, 86
1, 77199, Control_c, 0, 64, 101
1, 77214, Control_c, 0, 64, 99
1, 77229, Note_off_c, 0, 81, 64
1, 77236, Control_c, 0, 64, 96
1, 77251, Control_c, 0, 64, 94
1, 77265, Control_c, 0, 64, 92
1, 77281, Control_c, 0, 64, 90
1, 77296, Control_c, 0, 64, 89
1, 77311, Control_c, 0, 64, 87
1, 77312, Note_on_c, 0, 73, 73
1, 77314, Note_on_c, 0, 70, 47
1, 77326, Control_c, 0, 64, 86
1, 77341, Control_c, 0, 64, 85
1, 77355, Control_c, 0, 64, 84
1, 77370, Control_c, 0, 64, 82
1, 77385, Control_c, 0, 64, 81
1, 77400, Control_c, 0, 64, 80
1, 77406, Note_off_c, 0, 73, 59
1, 77407, Note_on_c, 0, 63, 51
1, 77408, Note_off_c, 0, 61, 30
1, 77412, Note_on_c, 0, 72, 64
1, 77415, Control_c, 0, 64, 80
1, 77429, Control_c, 0, 64, 79
1, 77444, Control_c, 0, 64, 79
1, 77459, Control_c, 0, 64, 78
1, 77462, Note_off_c, 0, 82, 52
1, 77474, Control_c, 0, 64, 77
1, 77476, Note_off_c, 0, 70, 28
1, 77488, Control_c, 0, 64, 76
1, 77503, Control_c, 0, 64, 75
1, 77508, Note_on_c, 0, 80, 67
1, 77515, Note_on_c, 0, 66, 43
1, 77518, Control_c, 0, 64, 74
1, 77533, Control_c, 0, 64, 74
1, 77548, Control_c, 0, 64, 73
1, 77562, Control_c, 0, 64, 73
1, 77577, Control_c, 0, 64, 72
1, 77585, Note_off_c, 0, 72, 38
1, 77592, Control_c, 0, 64, 71
1, 77607, Control_c, 0, 64, 70
1, 77622, Control_c, 0, 64, 68
1, 77631, Note_on_c, 0, 61, 42
1, 77635, Note_off_c, 0, 63, 31
1, 77637, Control_c, 0, 64, 68
1, 77652, Control_c, 0, 64, 67
1, 77657, Note_on_c, 0, 81, 59
1, 77667, Control_c, 0, 64, 67
1, 77679, Note_off_c, 0, 66, 30
1, 77681, Control_c, 0, 64, 66
1, 77689, Note_off_c, 0, 80, 59
1, 77696, Control_c, 0, 64, 66
1, 77711, Control_c, 0, 64, 65
1, 77726, Control_c, 0, 64, 64
1, 77741, Control_c, 0, 64, 63
1, 77755, Note_on_c, 0, 73, 51
1, 77767, Note_on_c, 0, 69, 35
1, 77770, Control_c, 0, 64, 63
1, 77799, Control_c, 0, 64, 62
1, 77829, Control_c, 0, 64, 62
1, 77841, Note_off_c, 0, 73, 57
1, 77850, Note_off_c, 0, 81, 33
1, 77855, Note_off_c, 0, 61, 34
1, 77872, Note_on_c, 0, 72, 41
1, 77872, Note_on_c, 0, 63, 38
1, 77873, Control_c, 0, 64, 61
1, 77933, Control_c, 0, 64, 61
1, 77960, Note_off_c, 0, 69, 36
1, 78005, Note_on_c, 0, 66, 10
1, 78014, Note_on_c, 0, 80, 32
1, 78029, Control_c, 0, 64, 60
1, 78111, Note_on_c, 0, 61, 34
1, 78114, Note_off_c, 0, 72, 23
1, 78141, Note_on_c, 0, 81, 40
1, 78149, Control_c, 0, 64, 60
1, 78153, Note_off_c, 0, 80, 35
1, 78156, Note_off_c, 0, 63, 26
1, 78193, Control_c, 0, 64, 60
1, 78208, Control_c, 0, 64, 61
1, 78212, Note_off_c, 0, 66, 16
1, 78223, Control_c, 0, 64, 61
1, 78237, Control_c, 0, 64, 63
1, 78252, Control_c, 0, 64, 64
1, 78265, Note_on_c, 0, 73, 26
1, 78267, Control_c, 0, 64, 66
1, 78272, Note_on_c, 0, 69, 31
1, 78282, Control_c, 0, 64, 68
1, 78297, Control_c, 0, 64, 70
1, 78311, Control_c, 0, 64, 72
1, 78326, Control_c, 0, 64, 75
1, 78341, Control_c, 0, 64, 77
1, 78356, Control_c, 0, 64, 78
1, 78400, Control_c, 0, 64, 78
1, 78415, Control_c, 0, 64, 77
1, 78421, Note_on_c, 0, 62, 36
1, 78428, Note_on_c, 0, 72, 38
1, 78430, Control_c, 0, 64, 77
1, 78442, Note_off_c, 0, 73, 35
1, 78445, Control_c, 0, 64, 76
1, 78460, Control_c, 0, 64, 76
1, 78475, Control_c, 0, 64, 75
1, 78489, Control_c, 0, 64, 74
1, 78504, Control_c, 0, 64, 73
1, 78519, Note_off_c, 0, 61, 34
1, 78519, Control_c, 0, 64, 73
1, 78522, Note_off_c, 0, 81, 18
1, 78534, Control_c, 0, 64, 72
1, 78549, Control_c, 0, 64, 71
1, 78564, Control_c, 0, 64, 70
1, 78578, Control_c, 0, 64, 70
1, 78593, Control_c, 0, 64, 69
1, 78605, Note_on_c, 0, 80, 30
1, 78608, Control_c, 0, 64, 68
1, 78609, Note_on_c, 0, 66, 26
1, 78622, Control_c, 0, 64, 68
1, 78637, Control_c, 0, 64, 67
1, 78652, Control_c, 0, 64, 66
1, 78667, Control_c, 0, 64, 66
1, 78682, Control_c, 0, 64, 65
1, 78696, Control_c, 0, 64, 65
1, 78734, Control_c, 0, 64, 64
1, 78749, Control_c, 0, 64, 64
1, 78764, Control_c, 0, 64, 63
1, 78772, Note_off_c, 0, 69, 12
1, 78776, Note_on_c, 0, 61, 44
1, 78778, Control_c, 0, 64, 62
1, 78793, Control_c, 0, 64, 61
1, 78808, Control_c, 0, 64, 60
1, 78814, Note_on_c, 0, 81, 35
1, 78823, Control_c, 0, 64, 60
1, 78826, Note_off_c, 0, 80, 35
1, 78867, Control_c, 0, 64, 60
1, 78883, Control_c, 0, 64, 61
1, 78888, Note_off_c, 0, 66, 26
1, 78898, Control_c, 0, 64, 62
1, 78913, Control_c, 0, 64, 64
1, 78920, Note_off_c, 0, 62, 33
1, 78927, Control_c, 0, 64, 65
1, 78942, Control_c, 0, 64, 67
1, 78950, Note_off_c, 0, 72, 35
1, 78957, Control_c, 0, 64, 69
1, 78972, Control_c, 0, 64, 73
1, 78987, Control_c, 0, 64, 79
1, 79001, Control_c, 0, 64, 87
1, 79008, Note_on_c, 0, 69, 40
1, 79016, Control_c, 0, 64, 98
1, 79025, Note_on_c, 0, 73, 23
1, 79031, Note_off_c, 0, 81, 34
1, 79031, Control_c, 0, 64, 115
1, 79046, Control_c, 0, 64, 127
1, 79130, Note_off_c, 0, 73, 47
1, 79164, Control_c, 0, 64, 117
1, 79179, Control_c, 0, 64, 112
1, 79194, Control_c, 0, 64, 108
1, 79208, Control_c, 0, 64, 104
1, 79223, Control_c, 0, 64, 101
1, 79238, Control_c, 0, 64, 98
1, 79253, Control_c, 0, 64, 95
1, 79265, Note_on_c, 0, 59, 49
1, 79268, Control_c, 0, 64, 91
1, 79282, Control_c, 0, 64, 88
1, 79297, Control_c, 0, 64, 85
1, 79312, Control_c, 0, 64, 83
1, 79327, Control_c, 0, 64, 82
1, 79342, Control_c, 0, 64, 80
1, 79357, Control_c, 0, 64, 78
1, 79372, Control_c, 0, 64, 76
1, 79387, Control_c, 0, 64, 74
1, 79399, Note_off_c, 0, 69, 37
1, 79401, Control_c, 0, 64, 71
1, 79416, Control_c, 0, 64, 68
1, 79431, Control_c, 0, 64, 64
1, 79440, Note_off_c, 0, 61, 28
1, 79445, Control_c, 0, 64, 61
1, 79460, Control_c, 0, 64, 58
1, 79482, Control_c, 0, 64, 58
1, 79527, Note_on_c, 0, 66, 34
1, 79542, Control_c, 0, 64, 58
1, 79557, Control_c, 0, 64, 59
1, 79572, Control_c, 0, 64, 60
1, 79586, Control_c, 0, 64, 61
1, 79601, Control_c, 0, 64, 63
1, 79616, Control_c, 0, 64, 64
1, 79631, Control_c, 0, 64, 65
1, 79646, Control_c, 0, 64, 67
1, 79660, Control_c, 0, 64, 68
1, 79676, Control_c, 0, 64, 70
1, 79682, Note_on_c, 0, 69, 35
1, 79691, Control_c, 0, 64, 73
1, 79706, Control_c, 0, 64, 77
1, 79721, Control_c, 0, 64, 82
1, 79736, Control_c, 0, 64, 87
1, 79750, Control_c, 0, 64, 93
1, 79765, Control_c, 0, 64, 101
1, 79780, Control_c, 0, 64, 113
1, 79783, Note_on_c, 0, 75, 39
1, 79795, Control_c, 0, 64, 127
1, 79818, Note_off_c, 0, 66, 27
1, 79902, Note_on_c, 0, 81, 46
1, 79946, Note_off_c, 0, 75, 36
1, 79980, Note_off_c, 0, 81, 62
1, 79983, Note_off_c, 0, 59, 37
1, 79999, Note_on_c, 0, 85, 58
1, 80079, Note_off_c, 0, 69, 40
1, 80100, Note_off_c, 0, 85, 60
1, 80118, Note_on_c, 0, 82, 52
1, 80171, Note_off_c, 0, 82, 55
1, 80204, Note_on_c, 0, 83, 58
1, 80242, Note_off_c, 0, 83, 66
1, 80312, Note_on_c, 0, 87, 71
1, 80405, Note_on_c, 0, 90, 72
1, 80444, Note_off_c, 0, 87, 49
1, 80508, Note_on_c, 0, 93, 73
1, 80559, Note_off_c, 0, 90, 58
1, 80596, Note_on_c, 0, 99, 82
1, 80654, Note_off_c, 0, 93, 46
1, 80680, Note_off_c, 0, 99, 64
1, 80728, Note_on_c, 0, 56, 72
1, 80794, Control_c, 0, 64, 82
1, 80809, Control_c, 0, 64, 64
1, 80824, Control_c, 0, 64, 48
1, 80838, Control_c, 0, 64, 49
1, 80853, Control_c, 0, 64, 56
1, 80868, Control_c, 0, 64, 62
1, 80883, Control_c, 0, 64, 69
1, 80895, Note_on_c, 0, 66, 73
1, 80898, Control_c, 0, 64, 83
1, 80913, Control_c, 0, 64, 127
1, 80956, Note_off_c, 0, 56, 63
1, 81038, Note_on_c, 0, 72, 78
1, 81093, Note_off_c, 0, 66, 57
1, 81136, Note_on_c, 0, 78, 83
1, 81238, Note_on_c, 0, 84, 86
1, 81244, Note_off_c, 0, 78, 64
1, 81345, Note_on_c, 0, 89, 95
1, 81373, Note_off_c, 0, 84, 62
1, 81479, Note_on_c, 0, 86, 89
1, 81500, Note_off_c, 0, 89, 61
1, 81573, Note_off_c, 0, 72, 33
1, 81605, Note_on_c, 0, 87, 91
1, 81625, Note_off_c, 0, 86, 62
1, 81655, Note_off_c, 0, 87, 66
1, 81761, Note_on_c, 0, 90, 85
1, 81886, Note_on_c, 0, 92, 92
1, 81906, Note_off_c, 0, 90, 63
1, 82004, Note_off_c, 0, 92, 62
1, 82022, Note_on_c, 0, 93, 92
1, 82208, Note_on_c, 0, 102, 90
1, 82250, Note_off_c, 0, 93, 63
1, 82420, Note_on_c, 0, 101, 74
1, 82454, Note_off_c, 0, 102, 65
1, 82627, Note_on_c, 0, 99, 78
1, 82701, Note_off_c, 0, 101, 51
1, 82749, Note_on_c, 0, 96, 78
1, 82805, Note_off_c, 0, 99, 62
1, 82862, Note_on_c, 0, 92, 85
1, 82901, Note_off_c, 0, 96, 63
1, 82966, Note_off_c, 0, 92, 65
1, 82974, Note_on_c, 0, 91, 79
1, 83037, Note_off_c, 0, 91, 62
1, 83075, Note_on_c, 0, 90, 69
1, 83104, Note_off_c, 0, 90, 64
1, 83192, Note_on_c, 0, 89, 76
1, 83314, Note_on_c, 0, 87, 73
1, 83397, Note_off_c, 0, 89, 51
1, 83429, Note_on_c, 0, 84, 75
1, 83508, Note_off_c, 0, 87, 55
1, 83538, Note_on_c, 0, 80, 75
1, 83583, Note_off_c, 0, 84, 61
1, 83657, Note_off_c, 0, 80, 64
1, 83667, Note_on_c, 0, 79, 72
1, 83775, Control_c, 0, 64, 120
1, 83790, Control_c, 0, 64, 113
1, 83804, Control_c, 0, 64, 108
1, 83807, Note_on_c, 0, 78, 72
1, 83819, Control_c, 0, 64, 102
1, 83825, Note_off_c, 0, 79, 55
1, 83834, Control_c, 0, 64, 98
1, 83849, Control_c, 0, 64, 94
1, 83864, Control_c, 0, 64, 91
1, 83879, Control_c, 0, 64, 89
1, 83894, Control_c, 0, 64, 87
1, 83909, Control_c, 0, 64, 85
1, 83923, Control_c, 0, 64, 84
1, 83938, Control_c, 0, 64, 82
1, 83953, Control_c, 0, 64, 80
1, 83969, Note_on_c, 0, 77, 63
1, 83975, Control_c, 0, 64, 78
1, 83990, Control_c, 0, 64, 77
1, 84004, Control_c, 0, 64, 75
1, 84019, Control_c, 0, 64, 74
1, 84034, Control_c, 0, 64, 72
1, 84049, Control_c, 0, 64, 71
1, 84055, Note_off_c, 0, 78, 54
1, 84064, Control_c, 0, 64, 71
1, 84079, Control_c, 0, 64, 70
1, 84094, Control_c, 0, 64, 69
1, 84108, Control_c, 0, 64, 68
1, 84123, Control_c, 0, 64, 68
1, 84138, Control_c, 0, 64, 67
1, 84153, Control_c, 0, 64, 66
1, 84167, Note_on_c, 0, 75, 63
1, 84168, Control_c, 0, 64, 66
1, 84183, Control_c, 0, 64, 65
1, 84197, Control_c, 0, 64, 65
1, 84212, Control_c, 0, 64, 64
1, 84227, Control_c, 0, 64, 64
1, 84241, Control_c, 0, 64, 63
1, 84256, Control_c, 0, 64, 63
1, 84261, Note_off_c, 0, 77, 55
1, 84271, Control_c, 0, 64, 62
1, 84301, Control_c, 0, 64, 62
1, 84315, Control_c, 0, 64, 61
1, 84345, Control_c, 0, 64, 61
1, 84375, Control_c, 0, 64, 60
1, 84395, Note_on_c, 0, 72, 48
1, 84419, Control_c, 0, 64, 60
1, 84448, Control_c, 0, 64, 59
1, 84452, Note_off_c, 0, 75, 61
1, 84480, Control_c, 0, 64, 59
1, 84509, Control_c, 0, 64, 58
1, 84524, Control_c, 0, 64, 58
1, 84538, Control_c, 0, 64, 57
1, 84562, Note_off_c, 0, 72, 54
1, 84583, Control_c, 0, 64, 57
1, 84612, Control_c, 0, 64, 56
1, 84642, Control_c, 0, 64, 56
1, 84672, Control_c, 0, 64, 55
1, 84682, Note_on_c, 0, 73, 57
1, 84702, Control_c, 0, 64, 55
1, 84724, Control_c, 0, 64, 54
1, 84739, Control_c, 0, 64, 54
1, 84753, Control_c, 0, 64, 53
1, 84768, Control_c, 0, 64, 53
1, 84798, Control_c, 0, 64, 52
1, 84813, Control_c, 0, 64, 52
1, 84827, Control_c, 0, 64, 51
1, 84837, Note_off_c, 0, 73, 49
1, 84842, Control_c, 0, 64, 51
1, 85029, Note_on_c, 0, 74, 45
1, 85227, Note_off_c, 0, 74, 52
1, 85450, Control_c, 0, 64, 50
1, 85452, Note_on_c, 0, 75, 46
1, 85605, Control_c, 0, 64, 50
1, 85709, Control_c, 0, 64, 49
1, 85724, Note_off_c, 0, 75, 36
1, 85768, Control_c, 0, 64, 49
1, 85798, Control_c, 0, 64, 48
1, 85828, Control_c, 0, 64, 48
1, 85857, Control_c, 0, 64, 47
1, 85946, Control_c, 0, 64, 47
1, 86045, Note_on_c, 0, 76, 41
1, 86280, Control_c, 0, 64, 46
1, 86502, Note_off_c, 0, 76, 35
1, 86740, Control_c, 0, 64, 47
1, 86755, Control_c, 0, 64, 47
1, 86770, Control_c, 0, 64, 48
1, 86785, Control_c, 0, 64, 49
1, 86799, Control_c, 0, 64, 51
1, 86814, Control_c, 0, 64, 52
1, 86829, Control_c, 0, 64, 54
1, 86843, Control_c, 0, 64, 56
1, 86851, Note_on_c, 0, 37, 31
1, 86860, Control_c, 0, 64, 58
1, 86875, Control_c, 0, 64, 60
1, 86889, Control_c, 0, 64, 62
1, 86904, Control_c, 0, 64, 64
1, 86919, Control_c, 0, 64, 66
1, 86933, Control_c, 0, 64, 69
1, 86948, Control_c, 0, 64, 73
1, 86970, Control_c, 0, 64, 80
1, 86985, Control_c, 0, 64, 87
1, 87000, Control_c, 0, 64, 94
1, 87015, Control_c, 0, 64, 101
1, 87030, Control_c, 0, 64, 104
1, 87045, Control_c, 0, 64, 104
1, 87057, Note_off_c, 0, 37, 39
1, 87119, Control_c, 0, 64, 104
1, 87148, Control_c, 0, 64, 103
1, 87163, Control_c, 0, 64, 102
1, 87178, Control_c, 0, 64, 101
1, 87193, Control_c, 0, 64, 101
1, 87208, Control_c, 0, 64, 100
1, 87218, Note_on_c, 0, 76, 45
1, 87222, Control_c, 0, 64, 99
1, 87237, Control_c, 0, 64, 98
1, 87252, Control_c, 0, 64, 97
1, 87266, Control_c, 0, 64, 96
1, 87281, Control_c, 0, 64, 96
1, 87296, Control_c, 0, 64, 95
1, 87311, Control_c, 0, 64, 95
1, 87326, Control_c, 0, 64, 94
1, 87340, Control_c, 0, 64, 94
1, 87355, Control_c, 0, 64, 93
1, 87385, Control_c, 0, 64, 93
1, 87393, Note_off_c, 0, 76, 35
1, 87450, Note_on_c, 0, 65, 39
1, 87453, Note_on_c, 0, 61, 26
1, 87453, Note_on_c, 0, 77, 49
1, 87456, Note_on_c, 0, 56, 33
1, 87459, Control_c, 0, 64, 92
1, 87516, Note_off_c, 0, 65, 61
1, 87528, Note_off_c, 0, 61, 51
1, 87531, Note_off_c, 0, 56, 52
1, 87578, Control_c, 0, 64, 92
1, 87593, Control_c, 0, 64, 91
1, 87608, Control_c, 0, 64, 91
1, 87617, Note_on_c, 0, 88, 62
1, 87622, Control_c, 0, 64, 90
1, 87628, Note_off_c, 0, 77, 52
1, 87637, Control_c, 0, 64, 89
1, 87652, Control_c, 0, 64, 88
1, 87668, Control_c, 0, 64, 88
1, 87682, Control_c, 0, 64, 87
1, 87719, Control_c, 0, 64, 86
1, 87734, Control_c, 0, 64, 81
1, 87749, Control_c, 0, 64, 72
1, 87763, Control_c, 0, 64, 64
1, 87778, Control_c, 0, 64, 56
1, 87789, Note_off_c, 0, 88, 64
1, 87791, Note_on_c, 0, 49, 40
1, 87793, Control_c, 0, 64, 56
1, 87794, Note_on_c, 0, 89, 71
1, 87808, Control_c, 0, 64, 60
1, 87821, Note_off_c, 0, 49, 61
1, 87823, Control_c, 0, 64, 64
1, 87838, Control_c, 0, 64, 69
1, 87853, Control_c, 0, 64, 77
1, 87867, Control_c, 0, 64, 93
1, 87882, Control_c, 0, 64, 127
1, 87907, Note_off_c, 0, 89, 61
1, 87959, Note_on_c, 0, 77, 31
1, 87991, Note_off_c, 0, 77, 42
1, 88016, Control_c, 0, 64, 112
1, 88031, Control_c, 0, 64, 86
1, 88045, Control_c, 0, 64, 69
1, 88049, Note_on_c, 0, 57, 45
1, 88060, Control_c, 0, 64, 57
1, 88075, Control_c, 0, 64, 50
1, 88089, Control_c, 0, 64, 55
1, 88094, Note_on_c, 0, 63, 29
1, 88097, Note_on_c, 0, 66, 54
1, 88099, Note_on_c, 0, 75, 53
1, 88104, Control_c, 0, 64, 61
1, 88119, Control_c, 0, 64, 65
1, 88134, Control_c, 0, 64, 70
1, 88145, Note_off_c, 0, 63, 63
1, 88147, Note_off_c, 0, 66, 62
1, 88149, Control_c, 0, 64, 80
1, 88156, Note_off_c, 0, 57, 64
1, 88163, Control_c, 0, 64, 102
1, 88178, Control_c, 0, 64, 127
1, 88225, Note_on_c, 0, 87, 64
1, 88240, Note_off_c, 0, 75, 52
1, 88355, Note_on_c, 0, 49, 53
1, 88359, Note_on_c, 0, 85, 75
1, 88385, Note_off_c, 0, 87, 59
1, 88388, Note_off_c, 0, 49, 64
1, 88494, Note_on_c, 0, 73, 67
1, 88559, Note_off_c, 0, 85, 58
1, 88593, Note_off_c, 0, 73, 64
1, 88601, Note_on_c, 0, 66, 60
1, 88607, Note_on_c, 0, 57, 57
1, 88607, Note_on_c, 0, 72, 73
1, 88610, Note_on_c, 0, 63, 53
1, 88631, Note_off_c, 0, 66, 65
1, 88639, Note_off_c, 0, 63, 64
1, 88645, Note_off_c, 0, 57, 65
1, 88723, Note_on_c, 0, 84, 78
1, 88729, Note_off_c, 0, 72, 59
1, 88809, Control_c, 0, 64, 106
1, 88824, Control_c, 0, 64, 75
1, 88839, Control_c, 0, 64, 60
1, 88848, Note_on_c, 0, 37, 62
1, 88854, Control_c, 0, 64, 31
1, 88864, Note_on_c, 0, 82, 79
1, 88868, Control_c, 0, 64, 30
1, 88883, Control_c, 0, 64, 43
1, 88898, Control_c, 0, 64, 54
1, 88906, Note_off_c, 0, 84, 53
1, 88912, Control_c, 0, 64, 62
1, 88927, Control_c, 0, 64, 67
1, 88941, Note_off_c, 0, 37, 62
1, 88942, Control_c, 0, 64, 75
1, 88957, Control_c, 0, 64, 93
1, 88972, Control_c, 0, 64, 127
1, 89004, Note_on_c, 0, 70, 64
1, 89033, Note_off_c, 0, 70, 67
1, 89047, Note_off_c, 0, 82, 61
1, 89120, Note_on_c, 0, 72, 67
1, 89131, Note_on_c, 0, 65, 58
1, 89134, Note_on_c, 0, 58, 53
1, 89146, Note_on_c, 0, 61, 49
1, 89170, Note_off_c, 0, 65, 62
1, 89180, Note_off_c, 0, 61, 64
1, 89188, Note_off_c, 0, 58, 62
1, 89197, Note_off_c, 0, 72, 63
1, 89248, Note_on_c, 0, 85, 77
1, 89298, Note_off_c, 0, 85, 61
1, 89330, Note_on_c, 0, 84, 18
1, 89365, Control_c, 0, 64, 101
1, 89368, Note_off_c, 0, 84, 30
1, 89380, Control_c, 0, 64, 77
1, 89394, Note_on_c, 0, 87, 75
1, 89395, Control_c, 0, 64, 61
1, 89402, Note_on_c, 0, 49, 48
1, 89409, Control_c, 0, 64, 50
1, 89424, Control_c, 0, 64, 52
1, 89432, Note_on_c, 0, 85, 82
1, 89439, Control_c, 0, 64, 58
1, 89454, Control_c, 0, 64, 64
1, 89469, Control_c, 0, 64, 70
1, 89470, Note_off_c, 0, 49, 63
1, 89474, Note_off_c, 0, 87, 65
1, 89484, Control_c, 0, 64, 90
1, 89498, Control_c, 0, 64, 127
1, 89557, Note_on_c, 0, 75, 71
1, 89587, Note_off_c, 0, 85, 58
1, 89600, Note_off_c, 0, 75, 60
1, 89661, Control_c, 0, 64, 75
1, 89666, Note_on_c, 0, 58, 43
1, 89672, Note_on_c, 0, 67, 68
1, 89676, Control_c, 0, 64, 57
1, 89677, Note_on_c, 0, 73, 77
1, 89681, Note_on_c, 0, 64, 55
1, 89690, Control_c, 0, 64, 38
1, 89705, Control_c, 0, 64, 47
1, 89720, Control_c, 0, 64, 58
1, 89734, Control_c, 0, 64, 64
1, 89740, Note_off_c, 0, 67, 62
1, 89744, Note_off_c, 0, 64, 63
1, 89749, Control_c, 0, 64, 73
1, 89764, Control_c, 0, 64, 93
1, 89767, Note_off_c, 0, 58, 64
1, 89779, Control_c, 0, 64, 127
1, 89805, Note_on_c, 0, 85, 88
1, 89844, Note_off_c, 0, 73, 60
1, 89885, Note_off_c, 0, 85, 64
1, 89924, Note_on_c, 0, 49, 64
1, 89936, Note_on_c, 0, 84, 88
1, 90002, Note_off_c, 0, 49, 61
1, 90050, Note_on_c, 0, 72, 82
1, 90070, Note_off_c, 0, 84, 60
1, 90100, Note_off_c, 0, 72, 64
1, 90173, Note_on_c, 0, 67, 57
1, 90174, Note_on_c, 0, 61, 60
1, 90174, Note_on_c, 0, 70, 83
1, 90179, Note_on_c, 0, 64, 51
1, 90204, Note_off_c, 0, 64, 62
1, 90207, Note_off_c, 0, 67, 65
1, 90234, Note_off_c, 0, 61, 63
1, 90287, Note_on_c, 0, 82, 91
1, 90330, Note_off_c, 0, 70, 61
1, 90362, Note_off_c, 0, 82, 64
1, 90380, Control_c, 0, 64, 97
1, 90395, Control_c, 0, 64, 70
1, 90410, Control_c, 0, 64, 43
1, 90410, Note_on_c, 0, 37, 59
1, 90422, Note_on_c, 0, 81, 86
1, 90425, Control_c, 0, 64, 19
1, 90439, Control_c, 0, 64, 35
1, 90454, Control_c, 0, 64, 49
1, 90469, Control_c, 0, 64, 59
1, 90483, Control_c, 0, 64, 65
1, 90498, Control_c, 0, 64, 75
1, 90501, Note_off_c, 0, 37, 62
1, 90513, Control_c, 0, 64, 101
1, 90528, Control_c, 0, 64, 127
1, 90547, Note_on_c, 0, 69, 77
1, 90577, Note_off_c, 0, 69, 63
1, 90612, Note_off_c, 0, 81, 63
1, 90666, Note_on_c, 0, 70, 77
1, 90667, Note_on_c, 0, 66, 58
1, 90674, Note_on_c, 0, 61, 54
1, 90683, Note_on_c, 0, 63, 40
1, 90696, Note_off_c, 0, 66, 64
1, 90710, Note_off_c, 0, 61, 63
1, 90720, Note_off_c, 0, 63, 52
1, 90756, Note_off_c, 0, 70, 62
1, 90779, Note_on_c, 0, 82, 78
1, 90885, Note_off_c, 0, 82, 61
1, 90909, Note_on_c, 0, 85, 70
1, 90936, Control_c, 0, 64, 87
1, 90950, Note_on_c, 0, 49, 44
1, 90951, Control_c, 0, 64, 68
1, 90962, Note_on_c, 0, 84, 70
1, 90966, Control_c, 0, 64, 50
1, 90980, Control_c, 0, 64, 41
1, 90995, Control_c, 0, 64, 46
1, 91002, Note_off_c, 0, 85, 64
1, 91010, Control_c, 0, 64, 54
1, 91025, Control_c, 0, 64, 60
1, 91035, Note_off_c, 0, 49, 61
1, 91040, Control_c, 0, 64, 64
1, 91054, Control_c, 0, 64, 68
1, 91069, Control_c, 0, 64, 78
1, 91084, Control_c, 0, 64, 93
1, 91099, Control_c, 0, 64, 127
1, 91119, Note_on_c, 0, 73, 61
1, 91135, Note_off_c, 0, 84, 59
1, 91196, Note_off_c, 0, 73, 63
1, 91242, Note_on_c, 0, 66, 39
1, 91248, Note_on_c, 0, 72, 50
1, 91250, Note_on_c, 0, 63, 36
1, 91355, Note_on_c, 0, 84, 64
1, 91385, Note_off_c, 0, 72, 59
1, 91507, Note_on_c, 0, 82, 71
1, 91507, Control_c, 0, 64, 120
1, 91510, Note_on_c, 0, 56, 44
1, 91521, Control_c, 0, 64, 98
1, 91536, Control_c, 0, 64, 80
1, 91551, Control_c, 0, 64, 69
1, 91555, Note_off_c, 0, 84, 53
1, 91566, Control_c, 0, 64, 62
1, 91581, Control_c, 0, 64, 57
1, 91595, Control_c, 0, 64, 59
1, 91596, Note_off_c, 0, 66, 39
1, 91606, Note_off_c, 0, 63, 32
1, 91610, Control_c, 0, 64, 61
1, 91625, Control_c, 0, 64, 64
1, 91640, Control_c, 0, 64, 68
1, 91653, Note_on_c, 0, 70, 61
1, 91656, Control_c, 0, 64, 75
1, 91671, Control_c, 0, 64, 89
1, 91685, Control_c, 0, 64, 127
1, 91715, Note_off_c, 0, 70, 62
1, 91717, Note_off_c, 0, 82, 62
1, 91795, Note_on_c, 0, 68, 67
1, 91800, Note_on_c, 0, 60, 39
1, 91808, Note_on_c, 0, 66, 38
1, 91836, Note_off_c, 0, 66, 56
1, 91857, Note_off_c, 0, 56, 38
1, 91866, Note_off_c, 0, 60, 62
1, 91956, Note_on_c, 0, 80, 68
1, 91984, Note_off_c, 0, 68, 53
1, 92016, Note_off_c, 0, 80, 60
1, 92099, Note_on_c, 0, 80, 57
1, 92114, Control_c, 0, 64, 88
1, 92128, Control_c, 0, 64, 71
1, 92143, Control_c, 0, 64, 63
1, 92158, Control_c, 0, 64, 61
1, 92173, Control_c, 0, 64, 63
1, 92177, Note_on_c, 0, 37, 42
1, 92188, Control_c, 0, 64, 66
1, 92207, Note_off_c, 0, 80, 60
1, 92208, Note_on_c, 0, 77, 63
1, 92210, Control_c, 0, 64, 72
1, 92225, Control_c, 0, 64, 85
1, 92240, Control_c, 0, 64, 127
1, 92286, Note_off_c, 0, 37, 58
1, 92301, Note_off_c, 0, 77, 60
1, 92417, Control_c, 0, 67, 8
1, 92432, Control_c, 0, 67, 24
1, 92447, Control_c, 0, 67, 35
1, 92453, Note_on_c, 0, 65, 45
1, 92463, Control_c, 0, 67, 42
1, 92478, Control_c, 0, 67, 44
1, 92508, Note_off_c, 0, 65, 52
1, 92592, Note_on_c, 0, 65, 29
1, 92604, Note_on_c, 0, 59, 36
1, 92613, Note_on_c, 0, 61, 35
1, 92640, Control_c, 0, 67, 43
1, 92646, Note_off_c, 0, 59, 62
1, 92664, Note_off_c, 0, 65, 55
1, 92670, Control_c, 0, 67, 42
1, 92686, Note_on_c, 0, 68, 45
1, 92729, Control_c, 0, 67, 42
1, 92760, Note_off_c, 0, 68, 61
1, 92774, Control_c, 0, 67, 41
1, 92781, Note_on_c, 0, 77, 49
1, 92789, Control_c, 0, 67, 41
1, 92812, Note_off_c, 0, 77, 64
1, 92819, Control_c, 0, 67, 40
1, 92863, Control_c, 0, 67, 39
1, 92866, Note_off_c, 0, 61, 31
1, 92886, Note_on_c, 0, 49, 35
1, 92893, Note_on_c, 0, 77, 61
1, 92907, Control_c, 0, 67, 39
1, 92930, Note_off_c, 0, 77, 57
1, 92959, Control_c, 0, 67, 38
1, 92968, Note_on_c, 0, 80, 67
1, 92989, Control_c, 0, 67, 37
1, 93024, Note_off_c, 0, 80, 64
1, 93039, Note_on_c, 0, 89, 68
1, 93069, Note_off_c, 0, 89, 67
1, 93091, Note_off_c, 0, 49, 39
1, 93092, Control_c, 0, 67, 37
1, 93128, Note_on_c, 0, 89, 77
1, 93129, Note_on_c, 0, 58, 49
1, 93130, Note_on_c, 0, 61, 47
1, 93166, Control_c, 0, 67, 36
1, 93173, Note_off_c, 0, 61, 63
1, 93178, Note_off_c, 0, 58, 61
1, 93195, Note_on_c, 0, 92, 78
1, 93221, Note_off_c, 0, 89, 47
1, 93226, Control_c, 0, 67, 36
1, 93272, Note_on_c, 0, 101, 75
1, 93289, Note_off_c, 0, 92, 65
1, 93301, Control_c, 0, 67, 35
1, 93305, Note_off_c, 0, 101, 64
1, 93358, Note_on_c, 0, 101, 76
1, 93360, Control_c, 0, 64, 90
1, 93373, Note_on_c, 0, 42, 54
1, 93374, Control_c, 0, 64, 70
1, 93389, Control_c, 0, 64, 56
1, 93404, Control_c, 0, 64, 53
1, 93419, Control_c, 0, 64, 58
1, 93434, Control_c, 0, 64, 63
1, 93448, Control_c, 0, 64, 68
1, 93454, Note_on_c, 0, 92, 85
1, 93463, Control_c, 0, 64, 79
1, 93466, Note_off_c, 0, 42, 63
1, 93472, Note_off_c, 0, 101, 64
1, 93478, Control_c, 0, 64, 127
1, 93529, Note_off_c, 0, 92, 65
1, 93537, Control_c, 0, 67, 34
1, 93540, Note_on_c, 0, 89, 73
1, 93552, Control_c, 0, 67, 34
1, 93578, Note_off_c, 0, 89, 59
1, 93627, Control_c, 0, 67, 33
1, 93656, Control_c, 0, 67, 32
1, 93669, Note_on_c, 0, 57, 39
1, 93671, Note_on_c, 0, 89, 49
1, 93680, Note_on_c, 0, 61, 34
1, 93686, Control_c, 0, 67, 32
1, 93746, Note_off_c, 0, 61, 54
1, 93762, Note_off_c, 0, 57, 60
1, 93767, Note_off_c, 0, 89, 59
1, 93767, Control_c, 0, 67, 31
1, 93777, Note_on_c, 0, 80, 57
1, 93782, Control_c, 0, 67, 31
1, 93796, Control_c, 0, 67, 30
1, 93811, Control_c, 0, 67, 29
1, 93856, Control_c, 0, 67, 29
1, 93873, Note_off_c, 0, 80, 52
1, 93886, Control_c, 0, 67, 28
1, 93900, Control_c, 0, 67, 27
1, 93915, Control_c, 0, 67, 27
1, 93921, Note_on_c, 0, 77, 43
1, 93969, Note_off_c, 0, 77, 60
1, 94080, Control_c, 0, 67, 26
1, 94095, Control_c, 0, 64, 115
1, 94109, Control_c, 0, 64, 96
1, 94109, Control_c, 0, 67, 26
1, 94124, Control_c, 0, 64, 79
1, 94124, Control_c, 0, 67, 25
1, 94131, Note_on_c, 0, 37, 39
1, 94139, Control_c, 0, 64, 64
1, 94139, Control_c, 0, 67, 24
1, 94154, Control_c, 0, 64, 52
1, 94154, Control_c, 0, 67, 22
1, 94169, Control_c, 0, 64, 47
1, 94169, Control_c, 0, 67, 22
1, 94184, Control_c, 0, 64, 51
1, 94184, Control_c, 0, 67, 21
1, 94199, Control_c, 0, 64, 56
1, 94199, Control_c, 0, 67, 18
1, 94213, Control_c, 0, 64, 61
1, 94213, Control_c, 0, 67, 16
1, 94228, Control_c, 0, 64, 66
1, 94228, Control_c, 0, 67, 11
1, 94243, Control_c, 0, 64, 70
1, 94243, Control_c, 0, 67, 0
1, 94258, Control_c, 0, 64, 77
1, 94273, Control_c, 0, 64, 86
1, 94287, Control_c, 0, 64, 97
1, 94302, Control_c, 0, 64, 110
1, 94312, Note_off_c, 0, 37, 36
1, 94317, Control_c, 0, 64, 117
1, 94420, Control_c, 0, 64, 116
1, 94431, Note_on_c, 0, 76, 47
1, 94435, Control_c, 0, 64, 115
1, 94560, Note_off_c, 0, 76, 54
1, 94592, Note_on_c, 0, 56, 36
1, 94600, Note_on_c, 0, 77, 52
1, 94608, Note_on_c, 0, 61, 35
1, 94613, Note_on_c, 0, 65, 34
1, 94687, Note_off_c, 0, 65, 62
1, 94697, Note_off_c, 0, 61, 62
1, 94702, Note_off_c, 0, 56, 54
1, 94709, Control_c, 0, 64, 115
1, 94723, Control_c, 0, 64, 114
1, 94746, Note_on_c, 0, 88, 65
1, 94783, Control_c, 0, 64, 112
1, 94798, Control_c, 0, 64, 107
1, 94813, Control_c, 0, 64, 93
1, 94820, Note_off_c, 0, 77, 37
1, 94828, Control_c, 0, 64, 78
1, 94843, Control_c, 0, 64, 66
1, 94858, Control_c, 0, 64, 59
1, 94873, Control_c, 0, 64, 60
1, 94888, Control_c, 0, 64, 63
1, 94890, Note_off_c, 0, 88, 63
1, 94893, Note_on_c, 0, 89, 69
1, 94894, Note_on_c, 0, 49, 39
1, 94902, Control_c, 0, 64, 67
1, 94917, Control_c, 0, 64, 74
1, 94926, Note_off_c, 0, 49, 62
1, 94932, Control_c, 0, 64, 87
1, 94947, Control_c, 0, 64, 127
1, 95005, Note_off_c, 0, 89, 63
1, 95052, Note_on_c, 0, 77, 39
1, 95079, Note_off_c, 0, 77, 51
1, 95125, Control_c, 0, 64, 87
1, 95140, Control_c, 0, 64, 69
1, 95143, Note_on_c, 0, 57, 44
1, 95155, Control_c, 0, 64, 57
1, 95170, Control_c, 0, 64, 57
1, 95185, Control_c, 0, 64, 61
1, 95190, Note_on_c, 0, 66, 47
1, 95190, Note_on_c, 0, 75, 55
1, 95203, Note_on_c, 0, 63, 33
1, 95207, Control_c, 0, 64, 64
1, 95222, Control_c, 0, 64, 67
1, 95236, Control_c, 0, 64, 73
1, 95251, Control_c, 0, 64, 86
1, 95252, Note_off_c, 0, 63, 62
1, 95254, Note_off_c, 0, 66, 61
1, 95263, Note_off_c, 0, 57, 64
1, 95266, Control_c, 0, 64, 104
1, 95281, Control_c, 0, 64, 127
1, 95314, Note_on_c, 0, 87, 66
1, 95335, Note_off_c, 0, 75, 56
1, 95434, Note_on_c, 0, 49, 52
1, 95440, Note_on_c, 0, 85, 79
1, 95474, Note_off_c, 0, 49, 64
1, 95475, Note_off_c, 0, 87, 62
1, 95558, Note_on_c, 0, 73, 63
1, 95623, Note_off_c, 0, 85, 59
1, 95658, Note_off_c, 0, 73, 63
1, 95669, Note_on_c, 0, 72, 72
1, 95670, Note_on_c, 0, 66, 61
1, 95674, Note_on_c, 0, 63, 56
1, 95677, Note_on_c, 0, 57, 54
1, 95701, Note_off_c, 0, 66, 64
1, 95707, Note_off_c, 0, 63, 65
1, 95719, Note_off_c, 0, 57, 65
1, 95787, Note_on_c, 0, 84, 81
1, 95799, Note_off_c, 0, 72, 61
1, 95889, Control_c, 0, 64, 86
1, 95904, Control_c, 0, 64, 64
1, 95916, Note_on_c, 0, 37, 48
1, 95919, Control_c, 0, 64, 46
1, 95927, Note_on_c, 0, 82, 79
1, 95933, Control_c, 0, 64, 45
1, 95955, Control_c, 0, 64, 53
1, 95970, Control_c, 0, 64, 60
1, 95974, Note_off_c, 0, 84, 57
1, 95984, Control_c, 0, 64, 66
1, 95999, Control_c, 0, 64, 77
1, 96002, Note_off_c, 0, 37, 62
1, 96014, Control_c, 0, 64, 107
1, 96029, Control_c, 0, 64, 127
1, 96067, Note_on_c, 0, 70, 73
1, 96107, Note_off_c, 0, 70, 60
1, 96120, Note_off_c, 0, 82, 61
1, 96186, Note_on_c, 0, 64, 58
1, 96186, Note_on_c, 0, 67, 56
1, 96187, Note_on_c, 0, 72, 75
1, 96192, Note_on_c, 0, 58, 54
1, 96217, Note_off_c, 0, 64, 66
1, 96220, Note_off_c, 0, 67, 65
1, 96231, Note_off_c, 0, 58, 64
1, 96248, Note_off_c, 0, 72, 64
1, 96296, Note_on_c, 0, 84, 78
1, 96381, Note_off_c, 0, 84, 61
1, 96429, Control_c, 0, 64, 97
1, 96433, Note_on_c, 0, 49, 54
1, 96436, Note_on_c, 0, 87, 76
1, 96445, Control_c, 0, 64, 73
1, 96460, Control_c, 0, 64, 58
1, 96474, Control_c, 0, 64, 51
1, 96479, Note_on_c, 0, 85, 80
1, 96489, Control_c, 0, 64, 56
1, 96504, Control_c, 0, 64, 61
1, 96519, Control_c, 0, 64, 65
1, 96534, Control_c, 0, 64, 72
1, 96540, Note_off_c, 0, 87, 65
1, 96548, Control_c, 0, 64, 90
1, 96563, Control_c, 0, 64, 127
1, 96578, Note_off_c, 0, 49, 63
1, 96607, Note_on_c, 0, 75, 78
1, 96657, Note_off_c, 0, 75, 62
1, 96661, Note_off_c, 0, 85, 62
1, 96726, Note_on_c, 0, 65, 73
1, 96727, Note_on_c, 0, 58, 58
1, 96732, Note_on_c, 0, 73, 84
1, 96733, Note_on_c, 0, 61, 60
1, 96734, Control_c, 0, 64, 100
1, 96748, Control_c, 0, 64, 72
1, 96763, Control_c, 0, 64, 58
1, 96778, Control_c, 0, 64, 50
1, 96793, Control_c, 0, 64, 58
1, 96807, Control_c, 0, 64, 64
1, 96822, Control_c, 0, 64, 69
1, 96826, Note_off_c, 0, 65, 63
1, 96834, Note_off_c, 0, 61, 62
1, 96837, Control_c, 0, 64, 81
1, 96843, Note_off_c, 0, 58, 63
1, 96852, Control_c, 0, 64, 112
1, 96854, Note_on_c, 0, 85, 90
1, 96867, Control_c, 0, 64, 127
1, 96889, Note_off_c, 0, 73, 61
1, 96924, Note_off_c, 0, 85, 66
1, 96970, Note_on_c, 0, 49, 69
1, 96975, Note_on_c, 0, 84, 94
1, 97067, Note_off_c, 0, 49, 62
1, 97084, Note_on_c, 0, 72, 82
1, 97100, Note_off_c, 0, 84, 62
1, 97129, Note_off_c, 0, 72, 64
1, 97203, Note_on_c, 0, 65, 73
1, 97207, Note_on_c, 0, 70, 85
1, 97209, Note_on_c, 0, 61, 65
1, 97210, Note_on_c, 0, 58, 65
1, 97240, Note_off_c, 0, 65, 61
1, 97248, Note_off_c, 0, 61, 62
1, 97267, Note_off_c, 0, 58, 63
1, 97314, Note_on_c, 0, 82, 93
1, 97353, Note_off_c, 0, 70, 60
1, 97406, Note_off_c, 0, 82, 64
1, 97455, Note_on_c, 0, 39, 76
1, 97468, Control_c, 0, 64, 91
1, 97473, Note_on_c, 0, 81, 89
1, 97483, Control_c, 0, 64, 65
1, 97497, Control_c, 0, 64, 44
1, 97512, Control_c, 0, 64, 38
1, 97527, Control_c, 0, 64, 48
1, 97542, Control_c, 0, 64, 57
1, 97556, Control_c, 0, 64, 64
1, 97571, Control_c, 0, 64, 70
1, 97583, Note_off_c, 0, 39, 63
1, 97586, Control_c, 0, 64, 92
1, 97601, Control_c, 0, 64, 127
1, 97605, Note_on_c, 0, 69, 89
1, 97654, Note_off_c, 0, 69, 64
1, 97725, Note_on_c, 0, 66, 71
1, 97737, Note_on_c, 0, 70, 87
1, 97738, Note_on_c, 0, 60, 72
1, 97753, Note_off_c, 0, 66, 66
1, 97768, Note_off_c, 0, 60, 67
1, 97776, Note_off_c, 0, 81, 66
1, 97847, Note_on_c, 0, 82, 91
1, 97874, Note_off_c, 0, 70, 61
1, 97925, Note_off_c, 0, 82, 62
1, 97969, Note_on_c, 0, 48, 76
1, 97998, Note_on_c, 0, 80, 84
1, 98031, Control_c, 0, 64, 94
1, 98047, Control_c, 0, 64, 66
1, 98062, Control_c, 0, 64, 48
1, 98077, Control_c, 0, 64, 41
1, 98092, Control_c, 0, 64, 49
1, 98104, Note_on_c, 0, 68, 83
1, 98107, Control_c, 0, 64, 57
1, 98121, Control_c, 0, 64, 63
1, 98123, Note_off_c, 0, 80, 64
1, 98136, Control_c, 0, 64, 69
1, 98142, Note_off_c, 0, 48, 56
1, 98151, Control_c, 0, 64, 80
1, 98163, Note_off_c, 0, 68, 60
1, 98165, Control_c, 0, 64, 106
1, 98180, Control_c, 0, 64, 127
1, 98232, Note_on_c, 0, 68, 66
1, 98245, Note_on_c, 0, 58, 59
1, 98250, Note_on_c, 0, 63, 64
1, 98280, Note_on_c, 0, 66, 79
1, 98291, Note_off_c, 0, 63, 59
1, 98298, Note_off_c, 0, 58, 59
1, 98301, Note_off_c, 0, 68, 61
1, 98401, Note_on_c, 0, 78, 82
1, 98452, Note_off_c, 0, 66, 56
1, 98500, Note_off_c, 0, 78, 61
1, 98531, Note_on_c, 0, 42, 64
1, 98542, Note_on_c, 0, 77, 78
1, 98602, Control_c, 0, 64, 80
1, 98617, Control_c, 0, 64, 62
1, 98632, Control_c, 0, 64, 36
1, 98646, Control_c, 0, 64, 31
1, 98661, Control_c, 0, 64, 45
1, 98676, Control_c, 0, 64, 56
1, 98682, Note_on_c, 0, 65, 66
1, 98691, Control_c, 0, 64, 64
1, 98706, Control_c, 0, 64, 71
1, 98708, Note_off_c, 0, 42, 64
1, 98721, Control_c, 0, 64, 85
1, 98736, Control_c, 0, 64, 127
1, 98742, Note_off_c, 0, 65, 62
1, 98853, Note_on_c, 0, 60, 55
1, 98860, Note_on_c, 0, 58, 51
1, 98860, Note_on_c, 0, 63, 67
1, 98935, Note_off_c, 0, 58, 61
1, 98936, Note_off_c, 0, 60, 55
1, 98988, Note_off_c, 0, 63, 61
1, 99022, Note_on_c, 0, 75, 73
1, 99063, Note_off_c, 0, 77, 59
1, 99233, Note_on_c, 0, 41, 43
1, 99233, Control_c, 0, 64, 96
1, 99248, Control_c, 0, 64, 73
1, 99263, Control_c, 0, 64, 53
1, 99274, Note_on_c, 0, 77, 64
1, 99277, Control_c, 0, 64, 0
1, 99290, Note_off_c, 0, 75, 58
1, 99307, Control_c, 0, 64, 19
1, 99321, Control_c, 0, 64, 44
1, 99336, Control_c, 0, 64, 59
1, 99351, Control_c, 0, 64, 68
1, 99366, Control_c, 0, 64, 83
1, 99381, Control_c, 0, 64, 127
1, 99389, Note_off_c, 0, 41, 63
1, 99521, Note_on_c, 0, 65, 44
1, 99529, Control_c, 0, 67, 9
1, 99544, Control_c, 0, 67, 22
1, 99559, Control_c, 0, 67, 32
1, 99562, Note_off_c, 0, 65, 58
1, 99573, Control_c, 0, 67, 41
1, 99588, Control_c, 0, 67, 51
1, 99590, Note_off_c, 0, 77, 24
1, 99603, Control_c, 0, 67, 62
1, 99618, Control_c, 0, 67, 76
1, 99633, Control_c, 0, 67, 93
1, 99648, Control_c, 0, 67, 113
1, 99663, Control_c, 0, 67, 127
1, 99677, Note_on_c, 0, 65, 41
1, 99742, Note_off_c, 0, 65, 58
1, 99773, Note_on_c, 0, 69, 47
1, 99827, Note_off_c, 0, 69, 61
1, 99847, Note_on_c, 0, 77, 57
1, 99882, Note_off_c, 0, 77, 65
1, 99925, Note_on_c, 0, 45, 37
1, 99956, Note_on_c, 0, 77, 63
1, 99957, Note_off_c, 0, 45, 57
1, 100003, Note_off_c, 0, 77, 55
1, 100024, Note_on_c, 0, 81, 63
1, 100092, Note_off_c, 0, 81, 64
1, 100096, Note_on_c, 0, 89, 74
1, 100132, Note_off_c, 0, 89, 62
1, 100178, Note_on_c, 0, 89, 69
1, 100182, Note_on_c, 0, 65, 47
1, 100188, Note_on_c, 0, 60, 47
1, 100191, Note_on_c, 0, 57, 47
1, 100219, Note_off_c, 0, 65, 64
1, 100226, Note_off_c, 0, 60, 65
1, 100232, Note_off_c, 0, 57, 63
1, 100251, Note_on_c, 0, 93, 73
1, 100261, Note_off_c, 0, 89, 57
1, 100319, Note_on_c, 0, 101, 83
1, 100326, Note_off_c, 0, 93, 66
1, 100363, Note_off_c, 0, 101, 66
1, 100411, Note_on_c, 0, 101, 78
1, 100418, Note_on_c, 0, 48, 53
1, 100512, Note_on_c, 0, 93, 82
1, 100527, Note_off_c, 0, 48, 64
1, 100530, Note_off_c, 0, 101, 63
1, 100571, Note_off_c, 0, 93, 66
1, 100588, Note_on_c, 0, 89, 71
1, 100620, Note_off_c, 0, 89, 64
1, 100718, Note_on_c, 0, 60, 40
1, 100722, Note_on_c, 0, 57, 39
1, 100723, Note_on_c, 0, 89, 54
1, 100729, Note_on_c, 0, 65, 38
1, 100762, Note_off_c, 0, 65, 61
1, 100765, Note_off_c, 0, 60, 64
1, 100766, Note_off_c, 0, 57, 63
1, 100802, Note_off_c, 0, 89, 54
1, 100828, Note_on_c, 0, 81, 48
1, 100884, Note_off_c, 0, 81, 57
1, 100947, Note_on_c, 0, 77, 32
1, 100978, Note_off_c, 0, 77, 52
1, 101004, Note_on_c, 0, 41, 51
1, 101025, Control_c, 0, 67, 125
1, 101040, Control_c, 0, 67, 117
1, 101055, Control_c, 0, 64, 114
1, 101055, Control_c, 0, 67, 103
1, 101070, Control_c, 0, 64, 78
1, 101070, Control_c, 0, 67, 86
1, 101085, Control_c, 0, 64, 58
1, 101085, Control_c, 0, 67, 61
1, 101100, Control_c, 0, 64, 0
1, 101100, Control_c, 0, 67, 29
1, 101104, Note_on_c, 0, 51, 68
1, 101114, Control_c, 0, 67, 0
1, 101129, Control_c, 0, 64, 19
1, 101144, Control_c, 0, 64, 47
1, 101155, Note_on_c, 0, 54, 72
1, 101158, Control_c, 0, 64, 62
1, 101172, Note_off_c, 0, 41, 55
1, 101173, Control_c, 0, 64, 72
1, 101188, Control_c, 0, 64, 114
1, 101210, Control_c, 0, 64, 127
1, 101211, Note_off_c, 0, 51, 64
1, 101214, Poly_aftertouch_c, 0, 43, 0
1, 101270, Note_off_c, 0, 54, 63
1, 101543, Note_on_c, 0, 66, 45
1, 101549, Note_on_c, 0, 75, 84
1, 101573, Note_on_c, 0, 70, 58
1, 101697, Note_off_c, 0, 66, 53
1, 101708, Note_off_c, 0, 70, 35
1, 101749, Note_on_c, 0, 68, 50
1, 101758, Note_on_c, 0, 72, 67
1, 101893, Note_on_c, 0, 66, 57
1, 101900, Note_on_c, 0, 70, 74
1, 101916, Note_off_c, 0, 68, 54
1, 102030, Note_on_c, 0, 65, 62
1, 102039, Note_on_c, 0, 68, 76
1, 102039, Note_off_c, 0, 75, 58
1, 102042, Note_off_c, 0, 66, 57
1, 102044, Note_off_c, 0, 72, 60
1, 102081, Note_off_c, 0, 70, 59
1, 102158, Note_off_c, 0, 65, 55
1, 102176, Note_on_c, 0, 66, 53
1, 102179, Note_on_c, 0, 73, 78
1, 102203, Note_off_c, 0, 68, 35
1, 102231, Note_on_c, 0, 70, 21
1, 102285, Note_off_c, 0, 70, 45
1, 102301, Note_on_c, 0, 65, 54
1, 102302, Note_off_c, 0, 66, 59
1, 102325, Note_on_c, 0, 68, 63
1, 102393, Note_off_c, 0, 73, 59
1, 102429, Note_off_c, 0, 68, 57
1, 102439, Note_off_c, 0, 65, 56
1, 102447, Note_on_c, 0, 64, 53
1, 102453, Note_on_c, 0, 72, 78
1, 102468, Note_on_c, 0, 67, 61
1, 102554, Note_off_c, 0, 67, 58
1, 102572, Note_off_c, 0, 64, 59
1, 102573, Note_on_c, 0, 63, 55
1, 102574, Note_on_c, 0, 66, 61
1, 102644, Note_off_c, 0, 63, 60
1, 102652, Note_off_c, 0, 66, 59
1, 102680, Note_on_c, 0, 70, 80
1, 102690, Note_on_c, 0, 62, 52
1, 102707, Note_on_c, 0, 65, 59
1, 102718, Note_off_c, 0, 72, 62
1, 102805, Note_off_c, 0, 65, 55
1, 102808, Note_on_c, 0, 61, 51
1, 102808, Note_on_c, 0, 64, 65
1, 102808, Note_off_c, 0, 62, 57
1, 102840, Note_off_c, 0, 70, 60
1, 102873, Note_off_c, 0, 64, 63
1, 102902, Control_c, 0, 64, 105
1, 102916, Control_c, 0, 64, 87
1, 102930, Note_off_c, 0, 61, 56
1, 102931, Control_c, 0, 64, 71
1, 102936, Note_on_c, 0, 60, 52
1, 102937, Note_on_c, 0, 69, 74
1, 102946, Control_c, 0, 64, 60
1, 102952, Note_on_c, 0, 63, 60
1, 102961, Control_c, 0, 64, 50
1, 102976, Control_c, 0, 64, 53
1, 102990, Control_c, 0, 64, 57
1, 103005, Control_c, 0, 64, 61
1, 103020, Control_c, 0, 64, 64
1, 103034, Control_c, 0, 64, 67
1, 103049, Control_c, 0, 64, 72
1, 103060, Note_on_c, 0, 61, 61
1, 103060, Note_off_c, 0, 60, 60
1, 103064, Control_c, 0, 64, 83
1, 103067, Note_on_c, 0, 65, 65
1, 103074, Note_off_c, 0, 63, 55
1, 103079, Control_c, 0, 64, 103
1, 103094, Control_c, 0, 64, 127
1, 103145, Note_off_c, 0, 61, 61
1, 103183, Note_on_c, 0, 60, 61
1, 103190, Note_on_c, 0, 70, 85
1, 103217, Note_off_c, 0, 65, 60
1, 103285, Note_off_c, 0, 60, 60
1, 103294, Note_on_c, 0, 61, 64
1, 103297, Note_off_c, 0, 69, 54
1, 103317, Note_on_c, 0, 58, 53
1, 103382, Note_off_c, 0, 61, 61
1, 103397, Note_off_c, 0, 70, 62
1, 103474, Note_off_c, 0, 58, 49
1, 103483, Note_on_c, 0, 57, 50
1, 103483, Note_on_c, 0, 72, 82
1, 103505, Note_on_c, 0, 63, 48
1, 103541, Note_on_c, 0, 66, 10
1, 103586, Note_off_c, 0, 66, 51
1, 103590, Control_c, 0, 64, 106
1, 103605, Control_c, 0, 64, 86
1, 103620, Control_c, 0, 64, 72
1, 103636, Control_c, 0, 64, 62
1, 103643, Note_on_c, 0, 68, 68
1, 103651, Control_c, 0, 64, 59
1, 103665, Control_c, 0, 64, 60
1, 103680, Control_c, 0, 64, 62
1, 103695, Control_c, 0, 64, 65
1, 103710, Control_c, 0, 64, 69
1, 103725, Control_c, 0, 64, 77
1, 103739, Control_c, 0, 64, 92
1, 103754, Control_c, 0, 64, 127
1, 103772, Note_on_c, 0, 66, 69
1, 103786, Note_off_c, 0, 68, 58
1, 103825, Note_off_c, 0, 57, 32
1, 103851, Note_off_c, 0, 66, 58
1, 103874, Note_on_c, 0, 65, 67
1, 103905, Note_on_c, 0, 53, 46
1, 103917, Note_off_c, 0, 63, 53
1, 104008, Note_on_c, 0, 54, 64
1, 104024, Note_on_c, 0, 63, 74
1, 104034, Note_off_c, 0, 65, 59
1, 104116, Note_off_c, 0, 63, 63
1, 104122, Note_on_c, 0, 61, 76
1, 104133, Note_on_c, 0, 55, 73
1, 104138, Note_off_c, 0, 53, 35
1, 104221, Control_c, 0, 64, 114
1, 104236, Control_c, 0, 64, 88
1, 104236, Note_off_c, 0, 61, 0
1, 104250, Control_c, 0, 64, 72
1, 104252, Note_off_c, 0, 54, 59
1, 104265, Control_c, 0, 64, 61
1, 104266, Note_on_c, 0, 65, 77
1, 104272, Note_on_c, 0, 56, 75
1, 104273, Poly_aftertouch_c, 0, 61, 127
1, 104280, Control_c, 0, 64, 53
1, 104289, Note_off_c, 0, 72, 59
1, 104295, Control_c, 0, 64, 56
1, 104310, Control_c, 0, 64, 61
1, 104320, Note_off_c, 0, 55, 61
1, 104325, Control_c, 0, 64, 66
1, 104328, Poly_aftertouch_c, 0, 61, 0
1, 104339, Control_c, 0, 64, 73
1, 104354, Control_c, 0, 64, 92
1, 104369, Control_c, 0, 64, 127
1, 104371, Note_off_c, 0, 56, 64
1, 104373, Poly_aftertouch_c, 0, 67, 127
1, 104396, Note_on_c, 0, 57, 63
1, 104399, Poly_aftertouch_c, 0, 67, 0
1, 104420, Note_on_c, 0, 63, 66
1, 104425, Note_off_c, 0, 57, 66
1, 104501, Note_on_c, 0, 41, 67
1, 104548, Control_c, 0, 64, 82
1, 104562, Control_c, 0, 64, 43
1, 104570, Note_off_c, 0, 63, 61
1, 104577, Control_c, 0, 64, 0
1, 104593, Note_on_c, 0, 59, 82
1, 104611, Note_on_c, 0, 56, 71
1, 104636, Control_c, 0, 64, 50
1, 104645, Note_off_c, 0, 41, 63
1, 104648, Note_off_c, 0, 59, 65
1, 104651, Control_c, 0, 64, 71
1, 104666, Control_c, 0, 64, 127
1, 104693, Note_off_c, 0, 65, 65
1, 104708, Note_off_c, 0, 56, 64
1, 105004, Note_on_c, 0, 80, 87
1, 105011, Note_on_c, 0, 71, 32
1, 105044, Note_on_c, 0, 75, 48
1, 105070, Note_off_c, 0, 75, 55
1, 105198, Note_on_c, 0, 73, 59
1, 105201, Note_on_c, 0, 77, 65
1, 105203, Note_off_c, 0, 71, 53
1, 105354, Note_on_c, 0, 71, 61
1, 105354, Note_on_c, 0, 75, 77
1, 105395, Note_off_c, 0, 73, 60
1, 105482, Note_on_c, 0, 70, 66
1, 105494, Note_off_c, 0, 80, 57
1, 105495, Note_on_c, 0, 73, 81
1, 105538, Note_off_c, 0, 71, 58
1, 105553, Note_off_c, 0, 77, 56
1, 105568, Note_off_c, 0, 75, 57
1, 105633, Note_off_c, 0, 70, 59
1, 105634, Note_off_c, 0, 73, 58
1, 105652, Note_on_c, 0, 71, 58
1, 105658, Note_on_c, 0, 78, 83
1, 105702, Note_on_c, 0, 75, 53
1, 105748, Note_off_c, 0, 75, 54
1, 105812, Note_on_c, 0, 70, 50
1, 105818, Note_on_c, 0, 73, 65
1, 105818, Note_off_c, 0, 71, 55
1, 105899, Note_off_c, 0, 78, 61
1, 105905, Note_off_c, 0, 73, 61
1, 105940, Note_off_c, 0, 70, 59
1, 105950, Note_on_c, 0, 77, 88
1, 105953, Note_on_c, 0, 69, 64
1, 105963, Note_on_c, 0, 72, 74
1, 106058, Note_off_c, 0, 72, 62
1, 106069, Note_on_c, 0, 68, 66
1, 106074, Note_on_c, 0, 71, 73
1, 106084, Note_off_c, 0, 69, 55
1, 106158, Note_off_c, 0, 71, 58
1, 106186, Note_on_c, 0, 67, 68
1, 106188, Note_on_c, 0, 75, 89
1, 106196, Note_on_c, 0, 70, 75
1, 106197, Note_off_c, 0, 68, 57
1, 106224, Note_off_c, 0, 77, 60
1, 106268, Note_off_c, 0, 70, 57
1, 106303, Note_on_c, 0, 69, 71
1, 106313, Note_on_c, 0, 66, 67
1, 106355, Note_off_c, 0, 67, 57
1, 106355, Note_off_c, 0, 75, 60
1, 106422, Note_on_c, 0, 74, 84
1, 106438, Note_on_c, 0, 65, 65
1, 106438, Control_c, 0, 64, 86
1, 106439, Note_on_c, 0, 68, 71
1, 106453, Control_c, 0, 64, 66
1, 106461, Note_off_c, 0, 69, 49
1, 106468, Control_c, 0, 64, 51
1, 106473, Note_off_c, 0, 66, 51
1, 106483, Control_c, 0, 64, 47
1, 106498, Control_c, 0, 64, 53
1, 106513, Control_c, 0, 64, 58
1, 106514, Note_off_c, 0, 68, 56
1, 106528, Control_c, 0, 64, 63
1, 106542, Control_c, 0, 64, 66
1, 106557, Control_c, 0, 64, 72
1, 106560, Note_on_c, 0, 66, 67
1, 106565, Note_on_c, 0, 70, 68
1, 106572, Control_c, 0, 64, 82
1, 106586, Control_c, 0, 64, 110
1, 106597, Note_off_c, 0, 65, 61
1, 106601, Control_c, 0, 64, 127
1, 106664, Note_off_c, 0, 66, 60
1, 106668, Note_on_c, 0, 65, 66
1, 106680, Note_on_c, 0, 75, 91
1, 106680, Note_on_c, 0, 68, 76
1, 106700, Note_off_c, 0, 70, 61
1, 106751, Note_off_c, 0, 68, 58
1, 106797, Note_on_c, 0, 66, 79
1, 106802, Note_off_c, 0, 65, 60
1, 106810, Note_on_c, 0, 63, 65
1, 106826, Note_off_c, 0, 74, 41
1, 106867, Note_off_c, 0, 66, 59
1, 106897, Note_off_c, 0, 75, 66
1, 106968, Note_on_c, 0, 62, 53
1, 106968, Note_on_c, 0, 77, 90
1, 106975, Note_on_c, 0, 68, 62
1, 106989, Note_on_c, 0, 71, 59
1, 107038, Note_off_c, 0, 63, 31
1, 107076, Control_c, 0, 64, 91
1, 107082, Note_off_c, 0, 71, 54
1, 107091, Control_c, 0, 64, 71
1, 107106, Control_c, 0, 64, 59
1, 107121, Control_c, 0, 64, 52
1, 107136, Control_c, 0, 64, 54
1, 107145, Note_on_c, 0, 73, 61
1, 107151, Control_c, 0, 64, 58
1, 107165, Control_c, 0, 64, 63
1, 107187, Control_c, 0, 64, 66
1, 107202, Control_c, 0, 64, 72
1, 107216, Control_c, 0, 64, 85
1, 107231, Control_c, 0, 64, 127
1, 107255, Note_off_c, 0, 73, 64
1, 107277, Note_on_c, 0, 71, 68
1, 107291, Note_off_c, 0, 62, 50
1, 107351, Note_off_c, 0, 68, 58
1, 107380, Note_on_c, 0, 58, 52
1, 107400, Note_off_c, 0, 71, 55
1, 107404, Note_on_c, 0, 70, 73
1, 107506, Note_on_c, 0, 59, 69
1, 107520, Note_on_c, 0, 68, 80
1, 107553, Note_off_c, 0, 70, 63
1, 107631, Note_on_c, 0, 60, 81
1, 107646, Note_on_c, 0, 66, 77
1, 107700, Note_off_c, 0, 58, 39
1, 107702, Note_off_c, 0, 59, 55
1, 107705, Note_off_c, 0, 68, 60
1, 107736, Control_c, 0, 64, 104
1, 107751, Control_c, 0, 64, 78
1, 107766, Control_c, 0, 64, 64
1, 107772, Note_off_c, 0, 66, 62
1, 107775, Note_on_c, 0, 61, 80
1, 107780, Control_c, 0, 64, 51
1, 107781, Note_on_c, 0, 70, 83
1, 107795, Control_c, 0, 64, 50
1, 107798, Note_on_c, 0, 65, 68
1, 107810, Control_c, 0, 64, 57
1, 107822, Note_off_c, 0, 77, 60
1, 107825, Control_c, 0, 64, 61
1, 107829, Note_off_c, 0, 60, 62
1, 107839, Control_c, 0, 64, 65
1, 107854, Control_c, 0, 64, 72
1, 107869, Control_c, 0, 64, 85
1, 107884, Control_c, 0, 64, 127
1, 107911, Note_off_c, 0, 61, 62
1, 107930, Note_on_c, 0, 62, 64
1, 107956, Note_on_c, 0, 68, 56
1, 107958, Note_off_c, 0, 70, 63
1, 107961, Note_off_c, 0, 62, 65
1, 107962, Note_off_c, 0, 65, 31
1, 107977, Note_off_c, 0, 68, 60
1, 108083, Note_on_c, 0, 42, 51
1, 108144, Control_c, 0, 64, 97
1, 108152, Note_on_c, 0, 51, 71
1, 108158, Control_c, 0, 64, 66
1, 108164, Note_on_c, 0, 58, 47
1, 108173, Control_c, 0, 64, 0
1, 108185, Note_on_c, 0, 66, 86
1, 108188, Note_on_c, 0, 63, 62
1, 108196, Note_on_c, 0, 54, 68
1, 108218, Control_c, 0, 64, 19
1, 108220, Note_off_c, 0, 58, 63
1, 108232, Control_c, 0, 64, 56
1, 108245, Note_off_c, 0, 42, 64
1, 108247, Control_c, 0, 64, 68
1, 108248, Note_off_c, 0, 63, 59
1, 108259, Note_off_c, 0, 51, 61
1, 108262, Control_c, 0, 64, 89
1, 108277, Control_c, 0, 64, 127
1, 108288, Note_off_c, 0, 66, 63
1, 108290, Note_off_c, 0, 54, 62
1, 108358, Poly_aftertouch_c, 0, 67, 0
1, 108556, Note_on_c, 0, 58, 39
1, 108557, Note_on_c, 0, 66, 49
1, 108570, Note_on_c, 0, 63, 46
1, 108573, Note_on_c, 0, 81, 71
1, 108746, Note_off_c, 0, 63, 46
1, 108748, Note_on_c, 0, 93, 83
1, 108755, Note_off_c, 0, 58, 37
1, 108813, Note_off_c, 0, 81, 61
1, 108920, Note_on_c, 0, 94, 91
1, 108926, Note_on_c, 0, 54, 46
1, 108945, Note_off_c, 0, 93, 66
1, 108954, Note_off_c, 0, 66, 35
1, 108966, Control_c, 0, 64, 116
1, 108981, Control_c, 0, 64, 85
1, 108996, Control_c, 0, 64, 69
1, 109011, Control_c, 0, 64, 60
1, 109026, Control_c, 0, 64, 55
1, 109041, Control_c, 0, 64, 58
1, 109056, Control_c, 0, 64, 61
1, 109071, Control_c, 0, 64, 64
1, 109083, Note_on_c, 0, 82, 52
1, 109085, Control_c, 0, 64, 67
1, 109100, Note_off_c, 0, 54, 53
1, 109100, Control_c, 0, 64, 71
1, 109113, Note_off_c, 0, 82, 64
1, 109115, Control_c, 0, 64, 79
1, 109118, Note_on_c, 0, 58, 43
1, 109124, Note_off_c, 0, 94, 59
1, 109130, Control_c, 0, 64, 97
1, 109145, Control_c, 0, 64, 127
1, 109156, Note_on_c, 0, 63, 44
1, 109203, Note_on_c, 0, 80, 71
1, 109210, Note_on_c, 0, 70, 56
1, 109240, Note_off_c, 0, 70, 67
1, 109249, Note_off_c, 0, 58, 60
1, 109249, Note_off_c, 0, 63, 61
1, 109317, Note_on_c, 0, 92, 83
1, 109317, Note_off_c, 0, 80, 49
1, 109379, Note_off_c, 0, 92, 64
1, 109413, Control_c, 0, 64, 105
1, 109434, Control_c, 0, 64, 75
1, 109446, Note_on_c, 0, 42, 61
1, 109449, Control_c, 0, 64, 61
1, 109459, Note_on_c, 0, 90, 77
1, 109464, Control_c, 0, 64, 55
1, 109479, Control_c, 0, 64, 60
1, 109494, Control_c, 0, 64, 65
1, 109509, Control_c, 0, 64, 70
1, 109519, Note_off_c, 0, 42, 63
1, 109524, Control_c, 0, 64, 80
1, 109539, Control_c, 0, 64, 104
1, 109553, Control_c, 0, 64, 127
1, 109572, Note_on_c, 0, 78, 67
1, 109617, Note_off_c, 0, 90, 49
1, 109673, Note_off_c, 0, 78, 59
1, 109693, Note_on_c, 0, 77, 66
1, 109698, Note_on_c, 0, 63, 49
1, 109706, Note_on_c, 0, 58, 45
1, 109711, Note_on_c, 0, 54, 49
1, 109724, Note_off_c, 0, 63, 62
1, 109732, Note_off_c, 0, 58, 59
1, 109742, Note_off_c, 0, 54, 64
1, 109780, Note_off_c, 0, 77, 55
1, 109797, Note_on_c, 0, 89, 73
1, 109831, Note_off_c, 0, 89, 60
1, 109908, Control_c, 0, 64, 80
1, 109923, Control_c, 0, 64, 63
1, 109926, Note_on_c, 0, 44, 55
1, 109938, Control_c, 0, 64, 46
1, 109942, Note_on_c, 0, 86, 67
1, 109953, Control_c, 0, 64, 50
1, 109968, Control_c, 0, 64, 59
1, 109983, Control_c, 0, 64, 64
1, 109995, Note_off_c, 0, 44, 63
1, 109998, Control_c, 0, 64, 69
1, 110012, Control_c, 0, 64, 78
1, 110028, Control_c, 0, 64, 100
1, 110043, Control_c, 0, 64, 127
1, 110046, Note_on_c, 0, 74, 56
1, 110074, Note_off_c, 0, 74, 63
1, 110112, Note_off_c, 0, 86, 62
1, 110150, Note_on_c, 0, 58, 52
1, 110170, Note_on_c, 0, 75, 69
1, 110200, Note_on_c, 0, 63, 36
1, 110208, Note_off_c, 0, 58, 63
1, 110232, Note_off_c, 0, 63, 49
1, 110261, Note_off_c, 0, 75, 58
1, 110267, Note_on_c, 0, 87, 76
1, 110332, Control_c, 0, 64, 120
1, 110346, Control_c, 0, 64, 92
1, 110361, Control_c, 0, 64, 78
1, 110374, Note_on_c, 0, 56, 64
1, 110376, Control_c, 0, 64, 69
1, 110391, Control_c, 0, 64, 64
1, 110392, Note_on_c, 0, 90, 83
1, 110406, Control_c, 0, 64, 65
1, 110408, Note_off_c, 0, 87, 59
1, 110421, Control_c, 0, 64, 68
1, 110435, Control_c, 0, 64, 75
1, 110450, Control_c, 0, 64, 84
1, 110465, Control_c, 0, 64, 101
1, 110480, Control_c, 0, 64, 127
1, 110501, Note_on_c, 0, 78, 63
1, 110536, Note_off_c, 0, 78, 65
1, 110549, Note_off_c, 0, 56, 64
1, 110554, Note_off_c, 0, 90, 56
1, 110558, Note_on_c, 0, 63, 37
1, 110584, Note_on_c, 0, 65, 29
1, 110603, Note_on_c, 0, 71, 79
1, 110606, Note_on_c, 0, 78, 83
1, 110628, Note_off_c, 0, 71, 67
1, 110639, Note_off_c, 0, 65, 63
1, 110646, Note_off_c, 0, 63, 63
1, 110715, Note_on_c, 0, 90, 85
1, 110730, Note_off_c, 0, 78, 59
1, 110782, Note_off_c, 0, 90, 63
1, 110832, Note_on_c, 0, 45, 78
1, 110835, Control_c, 0, 64, 84
1, 110842, Note_on_c, 0, 89, 90
1, 110850, Control_c, 0, 64, 65
1, 110865, Control_c, 0, 64, 53
1, 110880, Control_c, 0, 64, 55
1, 110895, Control_c, 0, 64, 61
1, 110910, Control_c, 0, 64, 66
1, 110930, Note_off_c, 0, 45, 64
1, 110931, Control_c, 0, 64, 73
1, 110946, Control_c, 0, 64, 89
1, 110961, Note_on_c, 0, 77, 81
1, 110961, Control_c, 0, 64, 127
1, 110972, Note_off_c, 0, 89, 64
1, 110995, Note_off_c, 0, 77, 63
1, 111062, Note_on_c, 0, 63, 74
1, 111065, Note_on_c, 0, 53, 63
1, 111071, Note_on_c, 0, 75, 87
1, 111079, Note_on_c, 0, 59, 51
1, 111088, Note_off_c, 0, 63, 68
1, 111098, Note_off_c, 0, 53, 65
1, 111105, Note_off_c, 0, 59, 56
1, 111171, Note_on_c, 0, 87, 86
1, 111187, Note_off_c, 0, 75, 41
1, 111241, Note_off_c, 0, 87, 64
1, 111272, Control_c, 0, 64, 99
1, 111286, Control_c, 0, 64, 69
1, 111287, Note_on_c, 0, 46, 87
1, 111301, Note_on_c, 0, 86, 89
1, 111301, Control_c, 0, 64, 40
1, 111316, Control_c, 0, 64, 0
1, 111330, Control_c, 0, 64, 26
1, 111345, Control_c, 0, 64, 50
1, 111360, Control_c, 0, 64, 63
1, 111375, Control_c, 0, 64, 70
1, 111390, Control_c, 0, 64, 87
1, 111405, Control_c, 0, 64, 127
1, 111412, Note_on_c, 0, 74, 77
1, 111420, Note_off_c, 0, 46, 62
1, 111447, Note_off_c, 0, 74, 63
1, 111485, Note_off_c, 0, 86, 63
1, 111522, Note_on_c, 0, 75, 81
1, 111525, Note_on_c, 0, 54, 37
1, 111535, Note_on_c, 0, 63, 65
1, 111542, Note_on_c, 0, 61, 33
1, 111560, Note_off_c, 0, 54, 53
1, 111565, Note_off_c, 0, 63, 66
1, 111578, Note_off_c, 0, 61, 50
1, 111606, Note_off_c, 0, 75, 62
1, 111622, Note_on_c, 0, 87, 86
1, 111736, Note_on_c, 0, 58, 92
1, 111753, Note_on_c, 0, 90, 90
1, 111763, Note_off_c, 0, 87, 63
1, 111864, Note_on_c, 0, 78, 76
1, 111894, Note_off_c, 0, 78, 65
1, 111926, Note_off_c, 0, 90, 55
1, 111927, Note_off_c, 0, 58, 61
1, 111931, Note_on_c, 0, 63, 49
1, 111949, Note_on_c, 0, 66, 55
1, 111953, Note_on_c, 0, 70, 78
1, 111970, Note_on_c, 0, 78, 95
1, 111976, Note_off_c, 0, 70, 71
1, 111980, Note_off_c, 0, 66, 65
1, 111989, Note_off_c, 0, 63, 63
1, 112064, Note_on_c, 0, 90, 95
1, 112097, Note_off_c, 0, 78, 58
1, 112147, Note_off_c, 0, 90, 62
1, 112188, Note_on_c, 0, 47, 84
1, 112207, Note_on_c, 0, 89, 99
1, 112213, Control_c, 0, 64, 80
1, 112227, Control_c, 0, 64, 61
1, 112242, Control_c, 0, 64, 27
1, 112257, Control_c, 0, 64, 26
1, 112272, Control_c, 0, 64, 43
1, 112287, Control_c, 0, 64, 59
1, 112302, Control_c, 0, 64, 67
1, 112317, Control_c, 0, 64, 84
1, 112325, Note_on_c, 0, 77, 93
1, 112332, Control_c, 0, 64, 127
1, 112347, Note_off_c, 0, 47, 56
1, 112364, Note_off_c, 0, 89, 62
1, 112376, Note_off_c, 0, 77, 65
1, 112464, Note_on_c, 0, 63, 78
1, 112466, Note_on_c, 0, 75, 96
1, 112472, Note_on_c, 0, 54, 70
1, 112499, Note_off_c, 0, 63, 55
1, 112515, Note_off_c, 0, 54, 62
1, 112570, Note_on_c, 0, 87, 97
1, 112589, Note_off_c, 0, 75, 40
1, 112653, Note_off_c, 0, 87, 64
1, 112691, Note_on_c, 0, 48, 91
1, 112728, Note_on_c, 0, 86, 97
1, 112740, Control_c, 0, 64, 110
1, 112749, Note_on_c, 0, 84, 73
1, 112755, Control_c, 0, 64, 66
1, 112770, Control_c, 0, 64, 0
1, 112783, Note_off_c, 0, 84, 0
1, 112783, Note_on_c, 0, 84, 41
1, 112814, Control_c, 0, 64, 40
1, 112823, Note_off_c, 0, 84, 43
1, 112829, Control_c, 0, 64, 62
1, 112844, Control_c, 0, 64, 81
1, 112858, Control_c, 0, 64, 127
1, 112866, Note_on_c, 0, 51, 22
1, 112889, Note_on_c, 0, 74, 83
1, 112907, Note_off_c, 0, 48, 58
1, 112926, Note_on_c, 0, 54, 50
1, 112940, Note_off_c, 0, 74, 62
1, 112971, Note_off_c, 0, 86, 63
1, 112979, Note_on_c, 0, 56, 36
1, 112979, Note_off_c, 0, 51, 36
1, 112991, Note_on_c, 0, 63, 78
1, 113007, Note_on_c, 0, 75, 83
1, 113008, Note_off_c, 0, 54, 64
1, 113014, Note_off_c, 0, 56, 48
1, 113023, Note_off_c, 0, 63, 63
1, 113110, Note_on_c, 0, 87, 84
1, 113125, Note_on_c, 0, 85, 63
1, 113128, Note_off_c, 0, 75, 62
1, 113142, Note_off_c, 0, 85, 66
1, 113232, Note_on_c, 0, 56, 89
1, 113248, Note_on_c, 0, 90, 91
1, 113260, Note_off_c, 0, 87, 59
1, 113364, Note_on_c, 0, 78, 81
1, 113399, Control_c, 0, 64, 116
1, 113414, Control_c, 0, 64, 109
1, 113420, Note_off_c, 0, 78, 63
1, 113429, Control_c, 0, 64, 111
1, 113435, Note_on_c, 0, 63, 61
1, 113442, Note_off_c, 0, 90, 53
1, 113447, Note_off_c, 0, 56, 65
1, 113461, Note_on_c, 0, 66, 59
1, 113488, Control_c, 0, 64, 115
1, 113494, Note_on_c, 0, 72, 91
1, 113503, Note_on_c, 0, 78, 94
1, 113503, Control_c, 0, 64, 127
1, 113549, Note_off_c, 0, 63, 62
1, 113637, Note_on_c, 0, 90, 90
1, 113667, Note_off_c, 0, 78, 61
1, 113670, Note_off_c, 0, 66, 60
1, 113674, Note_off_c, 0, 72, 62
1, 113709, Note_off_c, 0, 90, 64
1, 113766, Note_on_c, 0, 89, 99
1, 113926, Note_on_c, 0, 77, 85
1, 113992, Note_off_c, 0, 77, 60
1, 114065, Note_off_c, 0, 89, 44
1, 114107, Note_on_c, 0, 75, 93
1, 114299, Note_on_c, 0, 87, 96
1, 114364, Note_off_c, 0, 75, 55
1, 114418, Poly_aftertouch_c, 0, 88, 0
1, 114442, Note_off_c, 0, 87, 57
1, 114512, Note_on_c, 0, 37, 85
1, 114689, Control_c, 0, 64, 88
1, 114704, Control_c, 0, 64, 66
1, 114719, Control_c, 0, 64, 34
1, 114734, Control_c, 0, 64, 0
1, 114763, Control_c, 0, 64, 28
1, 114766, Note_on_c, 0, 44, 79
1, 114778, Control_c, 0, 64, 49
1, 114793, Control_c, 0, 64, 61
1, 114808, Control_c, 0, 64, 71
1, 114824, Control_c, 0, 64, 96
1, 114839, Control_c, 0, 64, 127
1, 114855, Note_off_c, 0, 37, 59
1, 114979, Note_off_c, 0, 44, 60
1, 114996, Note_on_c, 0, 53, 54
1, 115023, Note_on_c, 0, 89, 104
1, 115032, Note_on_c, 0, 77, 85
1, 115032, Note_on_c, 0, 80, 79
1, 115186, Note_off_c, 0, 53, 59
1, 115198, Note_on_c, 0, 55, 59
1, 115393, Note_on_c, 0, 58, 75
1, 115408, Note_off_c, 0, 80, 56
1, 115410, Note_off_c, 0, 55, 33
1, 115445, Note_off_c, 0, 89, 61
1, 115450, Note_off_c, 0, 77, 50
1, 115536, Note_on_c, 0, 56, 73
1, 115617, Note_off_c, 0, 58, 62
1, 115697, Note_on_c, 0, 87, 79
1, 115705, Note_on_c, 0, 75, 71
1, 115707, Note_on_c, 0, 78, 69
1, 115712, Note_on_c, 0, 66, 61
1, 115727, Note_off_c, 0, 56, 62
1, 115854, Note_on_c, 0, 63, 69
1, 115893, Note_off_c, 0, 87, 61
1, 115903, Note_off_c, 0, 75, 59
1, 115906, Note_off_c, 0, 66, 56
1, 115998, Note_on_c, 0, 56, 63
1, 116007, Note_on_c, 0, 85, 85
1, 116010, Note_off_c, 0, 63, 62
1, 116013, Note_on_c, 0, 73, 81
1, 116067, Note_off_c, 0, 56, 64
1, 116124, Note_on_c, 0, 57, 80
1, 116195, Note_off_c, 0, 85, 64
1, 116215, Note_off_c, 0, 73, 63
1, 116254, Note_on_c, 0, 54, 72
1, 116257, Note_on_c, 0, 72, 82
1, 116258, Note_on_c, 0, 84, 93
1, 116278, Note_off_c, 0, 57, 59
1, 116289, Note_off_c, 0, 78, 63
1, 116356, Note_off_c, 0, 54, 64
1, 116358, Note_on_c, 0, 48, 62
1, 116388, Note_off_c, 0, 72, 63
1, 116389, Note_off_c, 0, 48, 65
1, 116484, Control_c, 0, 64, 88
1, 116486, Note_on_c, 0, 37, 67
1, 116499, Control_c, 0, 64, 62
1, 116507, Note_on_c, 0, 82, 83
1, 116511, Note_on_c, 0, 77, 68
1, 116514, Control_c, 0, 64, 0
1, 116519, Note_on_c, 0, 70, 66
1, 116539, Note_on_c, 0, 36, 37
1, 116558, Control_c, 0, 64, 26
1, 116573, Control_c, 0, 64, 58
1, 116574, Note_off_c, 0, 84, 54
1, 116577, Note_off_c, 0, 36, 51
1, 116588, Control_c, 0, 64, 68
1, 116603, Control_c, 0, 64, 85
1, 116617, Control_c, 0, 64, 127
1, 116618, Note_off_c, 0, 37, 61
1, 116624, Note_on_c, 0, 49, 56
1, 116641, Note_off_c, 0, 70, 59
1, 116660, Note_off_c, 0, 49, 65
1, 116758, Note_off_c, 0, 77, 57
1, 116774, Note_on_c, 0, 84, 91
1, 116782, Note_on_c, 0, 72, 75
1, 116797, Note_on_c, 0, 53, 43
1, 116800, Note_on_c, 0, 55, 50
1, 116832, Note_off_c, 0, 72, 63
1, 116848, Note_off_c, 0, 82, 58
1, 116874, Note_on_c, 0, 57, 52
1, 116889, Note_off_c, 0, 55, 54
1, 116894, Note_off_c, 0, 53, 57
1, 116895, Note_off_c, 0, 84, 64
1, 116936, Note_on_c, 0, 73, 71
1, 116994, Note_on_c, 0, 79, 65
1, 116999, Note_on_c, 0, 60, 31
1, 117024, Control_c, 0, 64, 110
1, 117027, Note_off_c, 0, 73, 61
1, 117039, Control_c, 0, 64, 103
1, 117044, Note_off_c, 0, 57, 33
1, 117054, Control_c, 0, 64, 98
1, 117065, Note_on_c, 0, 87, 78
1, 117068, Control_c, 0, 64, 95
1, 117083, Control_c, 0, 64, 91
1, 117098, Control_c, 0, 64, 89
1, 117113, Note_on_c, 0, 85, 72
1, 117113, Control_c, 0, 64, 86
1, 117119, Note_off_c, 0, 60, 45
1, 117128, Control_c, 0, 64, 84
1, 117143, Control_c, 0, 64, 82
1, 117158, Control_c, 0, 64, 79
1, 117158, Note_on_c, 0, 58, 52
1, 117173, Note_off_c, 0, 87, 66
1, 117173, Control_c, 0, 64, 77
1, 117188, Control_c, 0, 64, 76
1, 117202, Control_c, 0, 64, 74
1, 117218, Control_c, 0, 64, 73
1, 117233, Control_c, 0, 64, 71
1, 117247, Control_c, 0, 64, 68
1, 117262, Control_c, 0, 64, 65
1, 117277, Note_off_c, 0, 58, 63
1, 117277, Control_c, 0, 64, 63
1, 117292, Control_c, 0, 64, 64
1, 117297, Note_on_c, 0, 67, 74
1, 117307, Control_c, 0, 64, 65
1, 117322, Control_c, 0, 64, 68
1, 117322, Note_off_c, 0, 79, 45
1, 117337, Control_c, 0, 64, 73
1, 117352, Control_c, 0, 64, 80
1, 117366, Control_c, 0, 64, 87
1, 117381, Control_c, 0, 64, 98
1, 117396, Control_c, 0, 64, 119
1, 117411, Control_c, 0, 64, 127
1, 117418, Note_on_c, 0, 64, 63
1, 117430, Note_off_c, 0, 85, 63
1, 117438, Note_off_c, 0, 67, 57
1, 117500, Note_off_c, 0, 64, 62
1, 117518, Note_on_c, 0, 60, 53
1, 117545, Note_on_c, 0, 84, 77
1, 117554, Note_on_c, 0, 72, 65
1, 117561, Note_off_c, 0, 60, 64
1, 117562, Note_on_c, 0, 76, 38
1, 117636, Note_off_c, 0, 72, 60
1, 117658, Note_on_c, 0, 61, 59
1, 117682, Note_off_c, 0, 84, 61
1, 117745, Note_off_c, 0, 61, 61
1, 117765, Note_on_c, 0, 55, 57
1, 117793, Note_on_c, 0, 82, 87
1, 117811, Note_on_c, 0, 70, 65
1, 117840, Note_off_c, 0, 55, 62
1, 117857, Note_off_c, 0, 76, 61
1, 117867, Note_on_c, 0, 49, 57
1, 117897, Note_off_c, 0, 49, 65
1, 117939, Note_off_c, 0, 70, 62
1, 117941, Note_off_c, 0, 82, 63
1, 118011, Note_on_c, 0, 37, 59
1, 118011, Control_c, 0, 64, 103
1, 118026, Control_c, 0, 64, 76
1, 118034, Note_on_c, 0, 81, 79
1, 118041, Control_c, 0, 64, 61
1, 118042, Note_on_c, 0, 75, 64
1, 118050, Note_on_c, 0, 69, 62
1, 118056, Control_c, 0, 64, 34
1, 118070, Control_c, 0, 64, 40
1, 118085, Control_c, 0, 64, 50
1, 118100, Control_c, 0, 64, 57
1, 118115, Control_c, 0, 64, 63
1, 118130, Control_c, 0, 64, 69
1, 118134, Note_off_c, 0, 37, 60
1, 118134, Note_off_c, 0, 69, 61
1, 118144, Control_c, 0, 64, 83
1, 118159, Control_c, 0, 64, 127
1, 118165, Note_on_c, 0, 49, 54
1, 118209, Note_off_c, 0, 49, 63
1, 118302, Note_on_c, 0, 53, 58
1, 118302, Note_on_c, 0, 82, 91
1, 118308, Note_on_c, 0, 70, 62
1, 118317, Note_off_c, 0, 75, 35
1, 118343, Note_off_c, 0, 70, 62
1, 118357, Note_off_c, 0, 81, 63
1, 118395, Note_off_c, 0, 53, 59
1, 118398, Note_on_c, 0, 54, 59
1, 118418, Note_off_c, 0, 82, 64
1, 118454, Note_on_c, 0, 72, 62
1, 118517, Note_on_c, 0, 78, 68
1, 118518, Note_off_c, 0, 54, 61
1, 118526, Note_off_c, 0, 72, 63
1, 118561, Note_on_c, 0, 58, 40
1, 118565, Note_on_c, 0, 85, 72
1, 118636, Note_on_c, 0, 84, 84
1, 118641, Control_c, 0, 64, 120
1, 118656, Control_c, 0, 64, 111
1, 118670, Control_c, 0, 64, 106
1, 118685, Control_c, 0, 64, 102
1, 118690, Note_off_c, 0, 85, 62
1, 118700, Control_c, 0, 64, 97
1, 118714, Control_c, 0, 64, 93
1, 118729, Control_c, 0, 64, 91
1, 118744, Control_c, 0, 64, 90
1, 118748, Note_on_c, 0, 57, 58
1, 118759, Control_c, 0, 64, 89
1, 118762, Note_off_c, 0, 58, 46
1, 118774, Control_c, 0, 64, 88
1, 118788, Control_c, 0, 64, 87
1, 118803, Control_c, 0, 64, 85
1, 118819, Control_c, 0, 64, 83
1, 118834, Control_c, 0, 64, 79
1, 118849, Control_c, 0, 64, 75
1, 118864, Control_c, 0, 64, 73
1, 118870, Note_off_c, 0, 57, 63
1, 118879, Control_c, 0, 64, 73
1, 118887, Note_on_c, 0, 66, 74
1, 118893, Control_c, 0, 64, 74
1, 118908, Control_c, 0, 64, 75
1, 118967, Control_c, 0, 64, 74
1, 118968, Note_off_c, 0, 84, 56
1, 118997, Note_off_c, 0, 78, 61
1, 118997, Control_c, 0, 64, 74
1, 119005, Note_on_c, 0, 63, 64
1, 119042, Control_c, 0, 64, 74
1, 119057, Control_c, 0, 64, 75
1, 119057, Note_off_c, 0, 66, 50
1, 119072, Control_c, 0, 64, 76
1, 119086, Control_c, 0, 64, 80
1, 119101, Control_c, 0, 64, 86
1, 119116, Control_c, 0, 64, 94
1, 119127, Note_on_c, 0, 59, 56
1, 119128, Note_on_c, 0, 82, 78
1, 119131, Control_c, 0, 64, 104
1, 119139, Note_on_c, 0, 70, 63
1, 119139, Note_off_c, 0, 63, 60
1, 119145, Control_c, 0, 64, 125
1, 119153, Note_on_c, 0, 75, 59
1, 119167, Control_c, 0, 64, 127
1, 119215, Note_off_c, 0, 59, 62
1, 119275, Note_on_c, 0, 60, 75
1, 119283, Note_off_c, 0, 70, 56
1, 119336, Note_off_c, 0, 82, 61
1, 119404, Note_off_c, 0, 60, 56
1, 119414, Note_on_c, 0, 80, 81
1, 119424, Note_on_c, 0, 68, 69
1, 119429, Note_on_c, 0, 54, 57
1, 119432, Note_off_c, 0, 75, 60
1, 119525, Note_off_c, 0, 68, 49
1, 119554, Note_off_c, 0, 80, 59
1, 119563, Note_off_c, 0, 54, 55
1, 119581, Note_on_c, 0, 44, 53
1, 119626, Note_off_c, 0, 44, 63
1, 119648, Note_on_c, 0, 80, 80
1, 119652, Note_on_c, 0, 68, 73
1, 119683, Note_off_c, 0, 68, 59
1, 119696, Note_off_c, 0, 80, 60
1, 119775, Control_c, 0, 64, 122
1, 119790, Control_c, 0, 64, 112
1, 119792, Note_on_c, 0, 37, 48
1, 119800, Note_on_c, 0, 77, 83
1, 119805, Control_c, 0, 64, 104
1, 119810, Note_on_c, 0, 71, 60
1, 119816, Note_on_c, 0, 65, 64
1, 119820, Control_c, 0, 64, 93
1, 119835, Control_c, 0, 64, 82
1, 119850, Control_c, 0, 64, 71
1, 119864, Control_c, 0, 64, 61
1, 119879, Control_c, 0, 64, 46
1, 119894, Control_c, 0, 64, 41
1, 119916, Control_c, 0, 64, 44
1, 119931, Control_c, 0, 64, 51
1, 119946, Control_c, 0, 64, 57
1, 119961, Control_c, 0, 64, 62
1, 119975, Control_c, 0, 64, 65
1, 119990, Control_c, 0, 64, 69
1, 119993, Note_off_c, 0, 77, 64
1, 120003, Note_on_c, 0, 44, 54
1, 120005, Control_c, 0, 64, 75
1, 120012, Note_off_c, 0, 71, 64
1, 120020, Control_c, 0, 64, 89
1, 120031, Note_off_c, 0, 65, 60
1, 120035, Control_c, 0, 64, 122
1, 120049, Control_c, 0, 64, 127
1, 120139, Note_on_c, 0, 49, 55
1, 120251, Note_on_c, 0, 53, 60
1, 120359, Note_off_c, 0, 49, 62
1, 120369, Note_off_c, 0, 37, 29
1, 120372, Note_on_c, 0, 59, 66
1, 120476, Note_off_c, 0, 44, 34
1, 120490, Note_on_c, 0, 63, 76
1, 120530, Note_off_c, 0, 59, 62
1, 120587, Note_off_c, 0, 53, 36
1, 120625, Note_on_c, 0, 61, 79
1, 120760, Note_off_c, 0, 63, 57
1, 120765, Note_on_c, 0, 59, 80
1, 120881, Note_on_c, 0, 53, 85
1, 120923, Note_off_c, 0, 61, 0
1, 120961, Poly_aftertouch_c, 0, 61, 127
1, 121010, Note_on_c, 0, 49, 84
1, 121059, Poly_aftertouch_c, 0, 61, 0
1, 121072, Note_off_c, 0, 53, 56
1, 121104, Note_off_c, 0, 59, 38
1, 121154, Note_on_c, 0, 44, 83
1, 121218, Note_off_c, 0, 49, 59
1, 121286, Note_on_c, 0, 37, 80
1, 121306, Note_off_c, 0, 44, 63
1, 121339, Note_off_c, 0, 37, 61
1, 121518, Control_c, 0, 64, 78
1, 121533, Control_c, 0, 64, 43
1, 121543, Note_on_c, 0, 30, 86
1, 121545, Note_on_c, 0, 42, 91
1, 121547, Control_c, 0, 64, 0
1, 121592, Control_c, 0, 64, 32
1, 121606, Control_c, 0, 64, 61
1, 121607, Note_off_c, 0, 30, 63
1, 121621, Control_c, 0, 64, 75
1, 121636, Control_c, 0, 64, 127
1, 121640, Note_off_c, 0, 42, 63
1, 121789, Note_on_c, 0, 49, 81
1, 122025, Note_on_c, 0, 58, 53
1, 122035, Note_on_c, 0, 94, 100
1, 122036, Note_on_c, 0, 82, 91
1, 122044, Note_on_c, 0, 85, 81
1, 122101, Note_off_c, 0, 49, 60
1, 122184, Note_off_c, 0, 58, 56
1, 122229, Note_on_c, 0, 59, 66
1, 122395, Note_on_c, 0, 63, 73
1, 122409, Note_off_c, 0, 59, 61
1, 122425, Note_on_c, 0, 61, 37
1, 122455, Note_off_c, 0, 61, 54
1, 122465, Note_off_c, 0, 94, 59
1, 122519, Note_off_c, 0, 85, 60
1, 122530, Note_on_c, 0, 61, 77
1, 122613, Note_off_c, 0, 63, 55
1, 122661, Note_off_c, 0, 82, 53
1, 122699, Note_on_c, 0, 71, 74
1, 122704, Note_on_c, 0, 92, 97
1, 122709, Note_on_c, 0, 83, 71
1, 122712, Note_on_c, 0, 80, 78
1, 122753, Note_off_c, 0, 61, 59
1, 122870, Note_on_c, 0, 68, 76
1, 122890, Note_off_c, 0, 92, 61
1, 122921, Note_off_c, 0, 71, 60
1, 122933, Note_off_c, 0, 80, 61
1, 123009, Note_on_c, 0, 61, 71
1, 123031, Note_on_c, 0, 90, 99
1, 123031, Note_off_c, 0, 68, 61
1, 123035, Note_on_c, 0, 78, 92
1, 123092, Note_off_c, 0, 61, 60
1, 123149, Note_on_c, 0, 62, 75
1, 123209, Note_off_c, 0, 90, 62
1, 123218, Note_off_c, 0, 78, 62
1, 123259, Note_off_c, 0, 83, 0
1, 123268, Note_on_c, 0, 59, 69
1, 123275, Note_on_c, 0, 89, 94
1, 123279, Note_on_c, 0, 77, 91
1, 123283, Note_off_c, 0, 62, 60
1, 123293, Note_on_c, 0, 83, 16
1, 123370, Note_off_c, 0, 59, 63
1, 123375, Note_on_c, 0, 50, 68
1, 123394, Note_off_c, 0, 83, 57
1, 123400, Note_off_c, 0, 50, 66
1, 123433, Note_off_c, 0, 77, 61
1, 123434, Note_off_c, 0, 89, 56
1, 123522, Note_on_c, 0, 42, 61
1, 123542, Note_on_c, 0, 86, 84
1, 123546, Note_on_c, 0, 74, 85
1, 123547, Note_on_c, 0, 82, 75
1, 123547, Control_c, 0, 64, 79
1, 123562, Control_c, 0, 64, 59
1, 123576, Control_c, 0, 64, 0
1, 123637, Control_c, 0, 64, 47
1, 123659, Control_c, 0, 64, 61
1, 123674, Control_c, 0, 64, 67
1, 123686, Note_on_c, 0, 51, 64
1, 123689, Control_c, 0, 64, 75
1, 123704, Control_c, 0, 64, 99
1, 123719, Control_c, 0, 64, 127
1, 123725, Note_off_c, 0, 42, 60
1, 123748, Note_off_c, 0, 74, 58
1, 123796, Note_off_c, 0, 51, 62
1, 123826, Note_on_c, 0, 58, 60
1, 123845, Note_on_c, 0, 89, 88
1, 123850, Note_on_c, 0, 77, 78
1, 123867, Note_off_c, 0, 58, 63
1, 123935, Note_off_c, 0, 86, 37
1, 123968, Note_on_c, 0, 62, 64
1, 123975, Note_off_c, 0, 77, 60
1, 123993, Note_off_c, 0, 89, 61
1, 124085, Note_on_c, 0, 87, 92
1, 124091, Note_on_c, 0, 65, 61
1, 124094, Note_on_c, 0, 75, 86
1, 124097, Note_off_c, 0, 62, 56
1, 124125, Note_off_c, 0, 82, 64
1, 124193, Control_c, 0, 64, 119
1, 124203, Note_off_c, 0, 65, 58
1, 124207, Control_c, 0, 64, 110
1, 124211, Note_on_c, 0, 63, 62
1, 124222, Control_c, 0, 64, 104
1, 124224, Note_off_c, 0, 87, 62
1, 124237, Control_c, 0, 64, 99
1, 124252, Control_c, 0, 64, 96
1, 124254, Note_off_c, 0, 75, 61
1, 124267, Control_c, 0, 64, 93
1, 124281, Control_c, 0, 64, 91
1, 124296, Control_c, 0, 64, 89
1, 124311, Control_c, 0, 64, 88
1, 124325, Control_c, 0, 64, 85
1, 124326, Note_off_c, 0, 63, 56
1, 124333, Note_on_c, 0, 85, 92
1, 124339, Note_on_c, 0, 70, 65
1, 124340, Control_c, 0, 64, 81
1, 124348, Note_on_c, 0, 73, 70
1, 124350, Note_on_c, 0, 78, 72
1, 124355, Control_c, 0, 64, 77
1, 124370, Control_c, 0, 64, 73
1, 124385, Control_c, 0, 64, 70
1, 124408, Control_c, 0, 64, 69
1, 124423, Control_c, 0, 64, 70
1, 124437, Control_c, 0, 64, 70
1, 124452, Control_c, 0, 64, 71
1, 124460, Note_on_c, 0, 66, 57
1, 124467, Control_c, 0, 64, 75
1, 124482, Note_off_c, 0, 70, 53
1, 124482, Control_c, 0, 64, 84
1, 124497, Control_c, 0, 64, 102
1, 124512, Control_c, 0, 64, 127
1, 124544, Note_off_c, 0, 73, 63
1, 124545, Note_off_c, 0, 85, 64
1, 124566, Note_off_c, 0, 66, 60
1, 124584, Note_on_c, 0, 62, 53
1, 124603, Note_on_c, 0, 84, 90
1, 124617, Note_on_c, 0, 72, 70
1, 124636, Note_off_c, 0, 62, 60
1, 124714, Note_off_c, 0, 72, 59
1, 124724, Note_on_c, 0, 63, 66
1, 124749, Note_off_c, 0, 84, 55
1, 124856, Note_off_c, 0, 63, 60
1, 124859, Note_on_c, 0, 81, 89
1, 124862, Note_on_c, 0, 54, 58
1, 124874, Note_on_c, 0, 69, 73
1, 124890, Note_off_c, 0, 78, 64
1, 124962, Note_on_c, 0, 51, 56
1, 124962, Note_off_c, 0, 54, 62
1, 124967, Note_off_c, 0, 69, 54
1, 124992, Note_off_c, 0, 51, 64
1, 125105, Control_c, 0, 64, 125
1, 125120, Note_on_c, 0, 42, 51
1, 125120, Control_c, 0, 64, 122
1, 125135, Control_c, 0, 64, 112
1, 125144, Note_on_c, 0, 84, 87
1, 125156, Control_c, 0, 64, 101
1, 125163, Note_on_c, 0, 75, 54
1, 125171, Control_c, 0, 64, 87
1, 125183, Note_on_c, 0, 72, 52
1, 125186, Control_c, 0, 64, 74
1, 125201, Control_c, 0, 64, 63
1, 125217, Control_c, 0, 64, 49
1, 125222, Note_off_c, 0, 81, 53
1, 125232, Control_c, 0, 64, 42
1, 125247, Control_c, 0, 64, 45
1, 125261, Control_c, 0, 64, 50
1, 125276, Control_c, 0, 64, 56
1, 125291, Control_c, 0, 64, 61
1, 125306, Control_c, 0, 64, 65
1, 125321, Control_c, 0, 64, 72
1, 125330, Note_on_c, 0, 51, 44
1, 125334, Note_off_c, 0, 72, 61
1, 125335, Control_c, 0, 64, 83
1, 125350, Control_c, 0, 64, 109
1, 125354, Note_off_c, 0, 84, 62
1, 125363, Note_off_c, 0, 42, 38
1, 125365, Control_c, 0, 64, 127
1, 125409, Note_off_c, 0, 51, 57
1, 125457, Note_on_c, 0, 82, 82
1, 125462, Note_on_c, 0, 56, 56
1, 125489, Note_on_c, 0, 70, 63
1, 125504, Note_off_c, 0, 56, 64
1, 125594, Note_off_c, 0, 70, 61
1, 125601, Note_on_c, 0, 54, 55
1, 125613, Note_off_c, 0, 82, 60
1, 125702, Note_on_c, 0, 80, 79
1, 125731, Note_on_c, 0, 68, 59
1, 125737, Note_on_c, 0, 63, 44
1, 125750, Control_c, 0, 64, 125
1, 125765, Control_c, 0, 64, 114
1, 125779, Control_c, 0, 64, 108
1, 125794, Control_c, 0, 64, 104
1, 125809, Control_c, 0, 64, 102
1, 125824, Control_c, 0, 64, 99
1, 125839, Control_c, 0, 64, 97
1, 125841, Note_off_c, 0, 68, 59
1, 125848, Note_off_c, 0, 54, 40
1, 125850, Note_on_c, 0, 58, 40
1, 125852, Note_off_c, 0, 80, 57
1, 125853, Control_c, 0, 64, 94
1, 125868, Control_c, 0, 64, 92
1, 125883, Control_c, 0, 64, 89
1, 125905, Control_c, 0, 64, 87
1, 125920, Control_c, 0, 64, 85
1, 125935, Control_c, 0, 64, 83
1, 125940, Note_off_c, 0, 63, 37
1, 125950, Control_c, 0, 64, 81
1, 125965, Control_c, 0, 64, 79
1, 125979, Control_c, 0, 64, 78
1, 125994, Control_c, 0, 64, 76
1, 126000, Note_on_c, 0, 78, 74
1, 126010, Note_off_c, 0, 58, 34
1, 126010, Control_c, 0, 64, 75
1, 126025, Note_on_c, 0, 66, 49
1, 126025, Control_c, 0, 64, 73
1, 126040, Control_c, 0, 64, 72
1, 126055, Control_c, 0, 64, 71
1, 126070, Control_c, 0, 64, 69
1, 126084, Control_c, 0, 64, 68
1, 126099, Control_c, 0, 64, 67
1, 126114, Control_c, 0, 64, 66
1, 126129, Control_c, 0, 64, 65
1, 126144, Control_c, 0, 64, 63
1, 126158, Control_c, 0, 64, 62
1, 126188, Control_c, 0, 64, 63
1, 126202, Control_c, 0, 64, 63
1, 126216, Note_off_c, 0, 78, 64
1, 126217, Control_c, 0, 64, 64
1, 126232, Control_c, 0, 64, 64
1, 126247, Control_c, 0, 64, 65
1, 126256, Note_off_c, 0, 66, 57
1, 126262, Control_c, 0, 64, 66
1, 126276, Control_c, 0, 64, 68
1, 126288, Note_on_c, 0, 77, 75
1, 126291, Control_c, 0, 64, 70
1, 126302, Note_on_c, 0, 65, 50
1, 126306, Control_c, 0, 64, 73
1, 126321, Control_c, 0, 64, 77
1, 126327, Note_off_c, 0, 75, 57
1, 126336, Control_c, 0, 64, 82
1, 126351, Control_c, 0, 64, 87
1, 126366, Control_c, 0, 64, 93
1, 126381, Control_c, 0, 64, 98
1, 126395, Control_c, 0, 64, 101
1, 126399, Note_off_c, 0, 65, 60
1, 126410, Control_c, 0, 64, 103
1, 126425, Control_c, 0, 64, 104
1, 126546, Note_on_c, 0, 75, 73
1, 126573, Control_c, 0, 64, 103
1, 126574, Note_on_c, 0, 63, 49
1, 126655, Control_c, 0, 64, 103
1, 126657, Note_off_c, 0, 77, 45
1, 126684, Control_c, 0, 64, 102
1, 126714, Control_c, 0, 64, 101
1, 126728, Control_c, 0, 64, 101
1, 126743, Control_c, 0, 64, 100
1, 126758, Control_c, 0, 64, 100
1, 126773, Control_c, 0, 64, 99
1, 126788, Control_c, 0, 64, 98
1, 126796, Note_off_c, 0, 63, 59
1, 126799, Note_off_c, 0, 75, 58
1, 126804, Control_c, 0, 64, 96
1, 126819, Control_c, 0, 64, 94
1, 126833, Control_c, 0, 64, 91
1, 126848, Control_c, 0, 64, 89
1, 126863, Control_c, 0, 64, 86
1, 126864, Note_on_c, 0, 59, 35
1, 126867, Note_on_c, 0, 68, 34
1, 126871, Note_on_c, 0, 44, 38
1, 126873, Note_on_c, 0, 54, 38
1, 126878, Control_c, 0, 64, 84
1, 126882, Note_on_c, 0, 74, 64
1, 126893, Control_c, 0, 64, 82
1, 126907, Control_c, 0, 64, 78
1, 126914, Note_on_c, 0, 62, 42
1, 126922, Control_c, 0, 64, 72
1, 126937, Control_c, 0, 64, 65
1, 126952, Control_c, 0, 64, 58
1, 126967, Control_c, 0, 64, 52
1, 126981, Control_c, 0, 64, 53
1, 126996, Control_c, 0, 64, 56
1, 127010, Control_c, 0, 64, 58
1, 127025, Control_c, 0, 64, 61
1, 127039, Control_c, 0, 64, 63
1, 127054, Control_c, 0, 64, 65
1, 127069, Control_c, 0, 64, 67
1, 127083, Note_off_c, 0, 62, 64
1, 127084, Control_c, 0, 64, 72
1, 127099, Control_c, 0, 64, 78
1, 127114, Control_c, 0, 64, 85
1, 127129, Control_c, 0, 64, 94
1, 127144, Control_c, 0, 64, 105
1, 127158, Control_c, 0, 64, 119
1, 127173, Control_c, 0, 64, 127
1, 127200, Note_on_c, 0, 75, 70
1, 127217, Note_on_c, 0, 63, 52
1, 127247, Note_off_c, 0, 74, 59
1, 127334, Note_off_c, 0, 63, 52
1, 127492, Control_c, 0, 64, 125
1, 127506, Control_c, 0, 64, 116
1, 127521, Control_c, 0, 64, 112
1, 127536, Control_c, 0, 64, 108
1, 127550, Control_c, 0, 64, 104
1, 127565, Control_c, 0, 64, 101
1, 127580, Control_c, 0, 64, 98
1, 127595, Control_c, 0, 64, 95
1, 127601, Note_on_c, 0, 77, 69
1, 127611, Control_c, 0, 64, 92
1, 127624, Note_on_c, 0, 65, 38
1, 127626, Control_c, 0, 64, 90
1, 127641, Control_c, 0, 64, 88
1, 127655, Control_c, 0, 64, 86
1, 127670, Control_c, 0, 64, 83
1, 127685, Control_c, 0, 64, 79
1, 127700, Control_c, 0, 64, 72
1, 127715, Control_c, 0, 64, 64
1, 127729, Control_c, 0, 64, 53
1, 127732, Note_off_c, 0, 75, 53
1, 127744, Control_c, 0, 64, 42
1, 127759, Control_c, 0, 64, 43
1, 127773, Control_c, 0, 64, 46
1, 127788, Control_c, 0, 64, 52
1, 127803, Control_c, 0, 64, 58
1, 127818, Control_c, 0, 64, 62
1, 127833, Control_c, 0, 64, 66
1, 127847, Control_c, 0, 64, 71
1, 127862, Control_c, 0, 64, 80
1, 127877, Control_c, 0, 64, 95
1, 127892, Control_c, 0, 64, 127
1, 127919, Note_off_c, 0, 59, 40
1, 127956, Note_off_c, 0, 44, 41
1, 128011, Control_c, 0, 64, 120
1, 128026, Control_c, 0, 64, 114
1, 128041, Control_c, 0, 64, 110
1, 128055, Control_c, 0, 64, 106
1, 128070, Control_c, 0, 64, 103
1, 128085, Control_c, 0, 64, 100
1, 128100, Control_c, 0, 64, 97
1, 128105, Note_on_c, 0, 60, 40
1, 128114, Control_c, 0, 64, 94
1, 128129, Control_c, 0, 64, 92
1, 128151, Control_c, 0, 64, 90
1, 128166, Control_c, 0, 64, 88
1, 128181, Control_c, 0, 64, 87
1, 128196, Control_c, 0, 64, 86
1, 128211, Control_c, 0, 64, 85
1, 128226, Control_c, 0, 64, 83
1, 128241, Control_c, 0, 64, 81
1, 128255, Control_c, 0, 64, 78
1, 128270, Control_c, 0, 64, 75
1, 128285, Control_c, 0, 64, 72
1, 128314, Control_c, 0, 64, 73
1, 128329, Control_c, 0, 64, 74
1, 128344, Control_c, 0, 64, 75
1, 128359, Control_c, 0, 64, 77
1, 128373, Control_c, 0, 64, 80
1, 128388, Control_c, 0, 64, 84
1, 128404, Control_c, 0, 64, 87
1, 128408, Note_off_c, 0, 65, 53
1, 128419, Control_c, 0, 64, 91
1, 128434, Control_c, 0, 64, 97
1, 128449, Control_c, 0, 64, 106
1, 128464, Control_c, 0, 64, 127
1, 128635, Note_off_c, 0, 60, 37
1, 128645, Note_on_c, 0, 75, 50
1, 128658, Note_on_c, 0, 63, 33
1, 128729, Note_off_c, 0, 77, 27
1, 128814, Note_off_c, 0, 54, 36
1, 128823, Note_off_c, 0, 63, 40
1, 129051, Note_on_c, 0, 77, 60
1, 129058, Note_on_c, 0, 65, 36
1, 129259, Note_off_c, 0, 68, 34
1, 129275, Note_off_c, 0, 77, 56
1, 129291, Note_off_c, 0, 65, 35
1, 129348, Note_off_c, 0, 75, 37
1, 129502, Note_on_c, 0, 37, 32
1, 129530, Note_on_c, 0, 75, 57
1, 129539, Control_c, 0, 64, 119
1, 129549, Note_on_c, 0, 68, 29
1, 129554, Control_c, 0, 64, 110
1, 129559, Note_on_c, 0, 63, 30
1, 129568, Control_c, 0, 64, 105
1, 129583, Control_c, 0, 64, 102
1, 129598, Control_c, 0, 64, 98
1, 129613, Control_c, 0, 64, 95
1, 129627, Control_c, 0, 64, 91
1, 129650, Control_c, 0, 64, 86
1, 129665, Control_c, 0, 64, 79
1, 129680, Control_c, 0, 64, 71
1, 129695, Control_c, 0, 64, 64
1, 129709, Control_c, 0, 64, 56
1, 129724, Control_c, 0, 64, 55
1, 129739, Control_c, 0, 64, 57
1, 129753, Control_c, 0, 64, 58
1, 129768, Control_c, 0, 64, 60
1, 129783, Control_c, 0, 64, 62
1, 129798, Control_c, 0, 64, 64
1, 129813, Control_c, 0, 64, 67
1, 129826, Note_on_c, 0, 44, 34
1, 129827, Control_c, 0, 64, 71
1, 129842, Control_c, 0, 64, 78
1, 129857, Control_c, 0, 64, 88
1, 129867, Note_off_c, 0, 63, 41
1, 129872, Control_c, 0, 64, 96
1, 129877, Note_off_c, 0, 37, 40
1, 129887, Control_c, 0, 64, 98
1, 129901, Control_c, 0, 64, 98
1, 129931, Control_c, 0, 64, 97
1, 129946, Control_c, 0, 64, 97
1, 129961, Control_c, 0, 64, 96
1, 129976, Control_c, 0, 64, 95
1, 129991, Control_c, 0, 64, 94
1, 129996, Note_off_c, 0, 44, 39
1, 130006, Control_c, 0, 64, 93
1, 130021, Control_c, 0, 64, 92
1, 130036, Control_c, 0, 64, 91
1, 130050, Control_c, 0, 64, 90
1, 130065, Control_c, 0, 64, 89
1, 130078, Note_on_c, 0, 53, 33
1, 130080, Control_c, 0, 64, 88
1, 130089, Note_on_c, 0, 73, 45
1, 130095, Control_c, 0, 64, 87
1, 130101, Note_on_c, 0, 61, 34
1, 130110, Control_c, 0, 64, 86
1, 130125, Control_c, 0, 64, 85
1, 130137, Note_off_c, 0, 75, 33
1, 130140, Control_c, 0, 64, 85
1, 130155, Control_c, 0, 64, 84
1, 130169, Control_c, 0, 64, 83
1, 130184, Control_c, 0, 64, 82
1, 130199, Control_c, 0, 64, 82
1, 130243, Control_c, 0, 64, 82
1, 130258, Control_c, 0, 64, 83
1, 130273, Control_c, 0, 64, 84
1, 130281, Note_off_c, 0, 61, 39
1, 130288, Control_c, 0, 64, 85
1, 130289, Note_off_c, 0, 53, 41
1, 130295, Note_on_c, 0, 55, 29
1, 130303, Control_c, 0, 64, 86
1, 130317, Control_c, 0, 64, 87
1, 130332, Control_c, 0, 64, 88
1, 130347, Control_c, 0, 64, 89
1, 130399, Control_c, 0, 64, 90
1, 130411, Note_off_c, 0, 55, 32
1, 130414, Control_c, 0, 64, 90
1, 130429, Control_c, 0, 64, 91
1, 130429, Note_off_c, 0, 68, 30
1, 130444, Control_c, 0, 64, 92
1, 130455, Note_off_c, 0, 73, 33
1, 130458, Note_on_c, 0, 58, 36
1, 130458, Control_c, 0, 64, 95
1, 130473, Control_c, 0, 64, 98
1, 130488, Control_c, 0, 64, 101
1, 130503, Control_c, 0, 64, 104
1, 130518, Control_c, 0, 64, 106
1, 130532, Control_c, 0, 64, 107
1, 130604, Note_on_c, 0, 56, 26
1, 130604, Note_off_c, 0, 58, 36
1, 130710, Control_c, 0, 64, 106
1, 130713, Note_on_c, 0, 65, 37
1, 130718, Note_off_c, 0, 56, 36
1, 130724, Control_c, 0, 64, 106
1, 130754, Control_c, 0, 64, 105
1, 130769, Control_c, 0, 64, 105
1, 130783, Control_c, 0, 64, 104
1, 130800, Control_c, 0, 64, 104
1, 130829, Control_c, 0, 64, 103
1, 130844, Control_c, 0, 64, 102
1, 130850, Note_on_c, 0, 61, 37
1, 130859, Control_c, 0, 64, 102
1, 130873, Control_c, 0, 64, 101
1, 130884, Note_off_c, 0, 65, 30
1, 130888, Control_c, 0, 64, 100
1, 130918, Control_c, 0, 64, 99
1, 130933, Control_c, 0, 64, 99
1, 130947, Control_c, 0, 64, 98
1, 130977, Note_off_c, 0, 61, 37
1, 130977, Control_c, 0, 64, 98
1, 130978, Note_on_c, 0, 55, 39
1, 130992, Control_c, 0, 64, 97
1, 131007, Control_c, 0, 64, 96
1, 131022, Control_c, 0, 64, 95
1, 131037, Control_c, 0, 64, 93
1, 131047, Note_off_c, 0, 55, 58
1, 131052, Control_c, 0, 64, 92
1, 131066, Control_c, 0, 64, 92
1, 131096, Control_c, 0, 64, 91
1, 131111, Note_on_c, 0, 56, 39
1, 131171, Note_off_c, 0, 56, 52
1, 131222, Control_c, 0, 64, 91
1, 131251, Control_c, 0, 64, 90
1, 131266, Control_c, 0, 64, 90
1, 131278, Note_on_c, 0, 53, 38
1, 131281, Control_c, 0, 64, 89
1, 131296, Control_c, 0, 64, 87
1, 131311, Control_c, 0, 64, 86
1, 131326, Control_c, 0, 64, 84
1, 131341, Control_c, 0, 64, 84
1, 131355, Control_c, 0, 64, 83
1, 131370, Control_c, 0, 64, 81
1, 131385, Control_c, 0, 64, 80
1, 131399, Control_c, 0, 64, 79
1, 131414, Note_off_c, 0, 53, 34
1, 131414, Control_c, 0, 64, 78
1, 131429, Control_c, 0, 64, 78
1, 131435, Note_on_c, 0, 44, 33
1, 131444, Control_c, 0, 64, 77
1, 131459, Control_c, 0, 64, 76
1, 131473, Control_c, 0, 64, 76
1, 131488, Control_c, 0, 64, 75
1, 131502, Control_c, 0, 64, 74
1, 131517, Control_c, 0, 64, 73
1, 131532, Control_c, 0, 64, 72
1, 131547, Control_c, 0, 64, 71
1, 131562, Control_c, 0, 64, 70
1, 131576, Control_c, 0, 64, 69
1, 131583, Note_off_c, 0, 44, 47
1, 131592, Control_c, 0, 64, 69
1, 131607, Control_c, 0, 64, 68
1, 131621, Control_c, 0, 64, 68
1, 131627, Note_on_c, 0, 37, 32
1, 131636, Control_c, 0, 64, 67
1, 131651, Control_c, 0, 64, 67
1, 131666, Control_c, 0, 64, 66
1, 131681, Control_c, 0, 64, 65
1, 131696, Control_c, 0, 64, 63
1, 131711, Control_c, 0, 64, 61
1, 131725, Control_c, 0, 64, 58
1, 131740, Control_c, 0, 64, 56
1, 131755, Control_c, 0, 64, 54
1, 131770, Control_c, 0, 64, 53
1, 131800, Control_c, 0, 64, 54
1, 131814, Control_c, 0, 64, 57
1, 131829, Control_c, 0, 64, 61
1, 131836, Note_on_c, 0, 44, 38
1, 131844, Control_c, 0, 64, 64
1, 131859, Control_c, 0, 64, 67
1, 131866, Note_off_c, 0, 37, 48
1, 131874, Control_c, 0, 64, 70
1, 131895, Control_c, 0, 64, 75
1, 131910, Control_c, 0, 64, 82
1, 131925, Control_c, 0, 64, 92
1, 131940, Control_c, 0, 64, 106
1, 131955, Control_c, 0, 64, 127
1, 132065, Note_off_c, 0, 44, 38
1, 132072, Note_on_c, 0, 53, 34
1, 132133, Note_on_c, 0, 85, 68
1, 132344, Note_off_c, 0, 53, 42
1, 132348, Note_on_c, 0, 55, 41
1, 132440, Note_off_c, 0, 55, 51
1, 132535, Note_on_c, 0, 58, 31
1, 132679, Note_on_c, 0, 56, 31
1, 132715, Note_off_c, 0, 58, 36
1, 132718, Note_on_c, 0, 77, 42
1, 132775, Note_on_c, 0, 80, 45
1, 132827, Note_on_c, 0, 65, 31
1, 132828, Note_on_c, 0, 88, 60
1, 132834, Note_off_c, 0, 56, 33
1, 132851, Note_off_c, 0, 85, 36
1, 132939, Note_on_c, 0, 86, 73
1, 132989, Note_off_c, 0, 88, 61
1, 133028, Note_on_c, 0, 61, 28
1, 133091, Note_off_c, 0, 65, 37
1, 133106, Note_off_c, 0, 77, 40
1, 133107, Note_off_c, 0, 80, 39
1, 133135, Note_off_c, 0, 61, 38
1, 133140, Note_on_c, 0, 55, 38
1, 133220, Note_off_c, 0, 55, 60
1, 133259, Note_on_c, 0, 56, 44
1, 133318, Note_off_c, 0, 56, 58
1, 133422, Note_on_c, 0, 53, 37
1, 133446, Note_on_c, 0, 85, 63
1, 133502, Note_off_c, 0, 53, 47
1, 133510, Note_off_c, 0, 86, 47
1, 133575, Note_on_c, 0, 44, 25
1, 133612, Note_on_c, 0, 74, 43
1, 133619, Note_off_c, 0, 44, 41
1, 133630, Control_c, 0, 64, 117
1, 133645, Control_c, 0, 64, 112
1, 133660, Control_c, 0, 64, 107
1, 133675, Control_c, 0, 64, 102
1, 133689, Note_on_c, 0, 78, 45
1, 133690, Control_c, 0, 64, 97
1, 133705, Control_c, 0, 64, 94
1, 133720, Control_c, 0, 64, 91
1, 133735, Control_c, 0, 64, 88
1, 133737, Note_on_c, 0, 37, 32
1, 133748, Control_c, 0, 64, 85
1, 133763, Control_c, 0, 64, 80
1, 133770, Note_on_c, 0, 82, 49
1, 133778, Control_c, 0, 64, 73
1, 133792, Control_c, 0, 64, 64
1, 133807, Control_c, 0, 64, 56
1, 133822, Control_c, 0, 64, 51
1, 133837, Control_c, 0, 64, 52
1, 133852, Control_c, 0, 64, 54
1, 133866, Control_c, 0, 64, 58
1, 133870, Note_off_c, 0, 85, 57
1, 133881, Control_c, 0, 64, 61
1, 133896, Control_c, 0, 64, 64
1, 133902, Note_on_c, 0, 42, 39
1, 133911, Control_c, 0, 64, 66
1, 133926, Control_c, 0, 64, 70
1, 133931, Note_off_c, 0, 37, 41
1, 133940, Control_c, 0, 64, 75
1, 133955, Control_c, 0, 64, 83
1, 133970, Control_c, 0, 64, 96
1, 133973, Note_off_c, 0, 42, 56
1, 133986, Control_c, 0, 64, 109
1, 134001, Control_c, 0, 64, 127
1, 134047, Note_on_c, 0, 50, 41
1, 134082, Note_on_c, 0, 85, 53
1, 134089, Note_off_c, 0, 50, 61
1, 134101, Note_off_c, 0, 82, 51
1, 134203, Note_on_c, 0, 53, 38
1, 134318, Note_off_c, 0, 53, 38
1, 134319, Note_on_c, 0, 56, 37
1, 134321, Note_on_c, 0, 83, 70
1, 134367, Note_off_c, 0, 85, 63
1, 134429, Note_off_c, 0, 56, 52
1, 134438, Note_on_c, 0, 54, 50
1, 134449, Note_off_c, 0, 83, 62
1, 134519, Note_off_c, 0, 74, 18
1, 134525, Note_off_c, 0, 54, 54
1, 134542, Note_off_c, 0, 78, 34
1, 134570, Note_on_c, 0, 81, 71
1, 134580, Note_on_c, 0, 64, 41
1, 134691, Note_off_c, 0, 64, 49
1, 134740, Note_on_c, 0, 59, 21
1, 134742, Note_on_c, 0, 60, 13
1, 134787, Note_off_c, 0, 59, 61
1, 134791, Note_off_c, 0, 60, 39
1, 134811, Note_on_c, 0, 53, 52
1, 134828, Note_on_c, 0, 80, 75
1, 134861, Note_off_c, 0, 53, 62
1, 134895, Note_off_c, 0, 81, 58
1, 134958, Note_on_c, 0, 54, 58
1, 135046, Note_on_c, 0, 50, 51
1, 135046, Note_off_c, 0, 54, 56
1, 135078, Note_on_c, 0, 77, 79
1, 135130, Note_off_c, 0, 80, 63
1, 135152, Note_off_c, 0, 50, 62
1, 135176, Note_on_c, 0, 42, 47
1, 135204, Note_off_c, 0, 42, 55
1, 135309, Note_on_c, 0, 37, 48
1, 135320, Control_c, 0, 64, 112
1, 135335, Control_c, 0, 64, 98
1, 135336, Note_on_c, 0, 80, 72
1, 135350, Control_c, 0, 64, 83
1, 135365, Control_c, 0, 64, 68
1, 135380, Control_c, 0, 64, 53
1, 135383, Note_off_c, 0, 77, 59
1, 135394, Control_c, 0, 64, 45
1, 135409, Control_c, 0, 64, 50
1, 135424, Control_c, 0, 64, 56
1, 135438, Control_c, 0, 64, 60
1, 135453, Control_c, 0, 64, 64
1, 135462, Note_on_c, 0, 42, 44
1, 135468, Control_c, 0, 64, 69
1, 135481, Note_off_c, 0, 37, 53
1, 135483, Control_c, 0, 64, 77
1, 135498, Control_c, 0, 64, 91
1, 135512, Control_c, 0, 64, 127
1, 135541, Note_off_c, 0, 42, 57
1, 135592, Note_on_c, 0, 50, 49
1, 135624, Note_on_c, 0, 78, 75
1, 135626, Note_on_c, 0, 71, 73
1, 135642, Note_off_c, 0, 50, 62
1, 135651, Note_off_c, 0, 80, 63
1, 135762, Note_on_c, 0, 53, 30
1, 135817, Note_off_c, 0, 78, 61
1, 135871, Note_on_c, 0, 77, 73
1, 135878, Note_on_c, 0, 56, 45
1, 135884, Note_off_c, 0, 53, 36
1, 135950, Control_c, 0, 64, 116
1, 135965, Note_off_c, 0, 56, 58
1, 135965, Control_c, 0, 64, 111
1, 135980, Note_on_c, 0, 54, 49
1, 135980, Control_c, 0, 64, 108
1, 135996, Control_c, 0, 64, 105
1, 136007, Note_on_c, 0, 74, 49
1, 136010, Control_c, 0, 64, 102
1, 136025, Control_c, 0, 64, 98
1, 136040, Control_c, 0, 64, 96
1, 136055, Control_c, 0, 64, 94
1, 136069, Control_c, 0, 64, 92
1, 136084, Control_c, 0, 64, 91
1, 136096, Note_off_c, 0, 71, 52
1, 136099, Control_c, 0, 64, 90
1, 136114, Control_c, 0, 64, 87
1, 136129, Control_c, 0, 64, 84
1, 136133, Note_off_c, 0, 54, 37
1, 136139, Note_on_c, 0, 73, 77
1, 136143, Control_c, 0, 64, 79
1, 136151, Note_on_c, 0, 66, 49
1, 136152, Note_on_c, 0, 76, 70
1, 136158, Control_c, 0, 64, 74
1, 136173, Control_c, 0, 64, 70
1, 136182, Note_off_c, 0, 74, 54
1, 136182, Note_off_c, 0, 77, 61
1, 136188, Control_c, 0, 64, 67
1, 136203, Control_c, 0, 64, 66
1, 136218, Control_c, 0, 64, 67
1, 136233, Control_c, 0, 64, 67
1, 136247, Control_c, 0, 64, 69
1, 136262, Control_c, 0, 64, 71
1, 136263, Note_off_c, 0, 66, 44
1, 136277, Control_c, 0, 64, 73
1, 136279, Note_on_c, 0, 59, 44
1, 136292, Control_c, 0, 64, 77
1, 136307, Control_c, 0, 64, 83
1, 136322, Control_c, 0, 64, 90
1, 136336, Control_c, 0, 64, 100
1, 136351, Control_c, 0, 64, 115
1, 136366, Control_c, 0, 64, 127
1, 136370, Note_off_c, 0, 59, 57
1, 136419, Note_on_c, 0, 53, 34
1, 136432, Note_on_c, 0, 74, 67
1, 136454, Note_off_c, 0, 53, 52
1, 136466, Note_off_c, 0, 76, 60
1, 136530, Note_off_c, 0, 73, 51
1, 136557, Note_on_c, 0, 54, 49
1, 136635, Note_off_c, 0, 54, 50
1, 136685, Control_c, 0, 64, 120
1, 136691, Note_on_c, 0, 50, 34
1, 136694, Note_on_c, 0, 71, 72
1, 136700, Control_c, 0, 64, 116
1, 136715, Control_c, 0, 64, 114
1, 136730, Control_c, 0, 64, 111
1, 136745, Control_c, 0, 64, 109
1, 136750, Note_off_c, 0, 50, 52
1, 136759, Control_c, 0, 64, 108
1, 136774, Control_c, 0, 64, 106
1, 136787, Note_on_c, 0, 42, 36
1, 136789, Control_c, 0, 64, 105
1, 136804, Control_c, 0, 64, 103
1, 136818, Control_c, 0, 64, 101
1, 136826, Note_off_c, 0, 42, 47
1, 136833, Control_c, 0, 64, 98
1, 136848, Control_c, 0, 64, 96
1, 136863, Control_c, 0, 64, 93
1, 136878, Control_c, 0, 64, 92
1, 136892, Control_c, 0, 64, 91
1, 136907, Control_c, 0, 64, 90
1, 136922, Control_c, 0, 64, 89
1, 136937, Control_c, 0, 64, 88
1, 136952, Control_c, 0, 64, 86
1, 136954, Note_on_c, 0, 37, 38
1, 136966, Control_c, 0, 64, 85
1, 136981, Control_c, 0, 64, 83
1, 136989, Note_on_c, 0, 68, 70
1, 136996, Control_c, 0, 64, 80
1, 137011, Control_c, 0, 64, 76
1, 137026, Control_c, 0, 64, 70
1, 137040, Control_c, 0, 64, 64
1, 137055, Control_c, 0, 64, 56
1, 137070, Control_c, 0, 64, 53
1, 137085, Control_c, 0, 64, 54
1, 137097, Note_off_c, 0, 71, 53
1, 137100, Control_c, 0, 64, 56
1, 137115, Control_c, 0, 64, 59
1, 137137, Control_c, 0, 64, 62
1, 137151, Note_on_c, 0, 40, 39
1, 137152, Control_c, 0, 64, 64
1, 137166, Control_c, 0, 64, 67
1, 137181, Control_c, 0, 64, 70
1, 137183, Note_off_c, 0, 37, 42
1, 137197, Control_c, 0, 64, 75
1, 137212, Control_c, 0, 64, 81
1, 137227, Control_c, 0, 64, 86
1, 137242, Control_c, 0, 64, 91
1, 137243, Note_off_c, 0, 40, 55
1, 137257, Control_c, 0, 64, 92
1, 137306, Note_on_c, 0, 49, 34
1, 137316, Note_on_c, 0, 73, 58
1, 137321, Note_on_c, 0, 71, 54
1, 137341, Note_off_c, 0, 74, 54
1, 137389, Control_c, 0, 64, 92
1, 137404, Control_c, 0, 64, 91
1, 137410, Note_off_c, 0, 49, 47
1, 137419, Control_c, 0, 64, 91
1, 137431, Note_on_c, 0, 51, 47
1, 137449, Control_c, 0, 64, 90
1, 137479, Control_c, 0, 64, 90
1, 137493, Control_c, 0, 64, 89
1, 137507, Control_c, 0, 64, 89
1, 137522, Control_c, 0, 64, 88
1, 137532, Note_off_c, 0, 71, 54
1, 137537, Control_c, 0, 64, 87
1, 137552, Control_c, 0, 64, 87
1, 137565, Note_on_c, 0, 69, 71
1, 137567, Control_c, 0, 64, 86
1, 137570, Note_on_c, 0, 54, 41
1, 137581, Control_c, 0, 64, 86
1, 137583, Note_off_c, 0, 51, 33
1, 137596, Control_c, 0, 64, 85
1, 137605, Note_off_c, 0, 73, 57
1, 137611, Note_off_c, 0, 68, 58
1, 137611, Control_c, 0, 64, 85
1, 137626, Control_c, 0, 64, 84
1, 137640, Control_c, 0, 64, 84
1, 137655, Control_c, 0, 64, 83
1, 137670, Control_c, 0, 64, 82
1, 137681, Note_off_c, 0, 54, 55
1, 137685, Control_c, 0, 64, 81
1, 137690, Note_on_c, 0, 52, 40
1, 137700, Control_c, 0, 64, 81
1, 137714, Control_c, 0, 64, 80
1, 137729, Control_c, 0, 64, 79
1, 137744, Control_c, 0, 64, 79
1, 137759, Control_c, 0, 64, 78
1, 137774, Control_c, 0, 64, 78
1, 137787, Note_off_c, 0, 52, 55
1, 137789, Control_c, 0, 64, 77
1, 137791, Note_on_c, 0, 61, 47
1, 137798, Note_on_c, 0, 68, 74
1, 137804, Control_c, 0, 64, 77
1, 137818, Control_c, 0, 64, 76
1, 137833, Control_c, 0, 64, 75
1, 137848, Control_c, 0, 64, 73
1, 137863, Control_c, 0, 64, 69
1, 137885, Control_c, 0, 64, 64
1, 137892, Note_off_c, 0, 69, 59
1, 137900, Control_c, 0, 64, 60
1, 137914, Control_c, 0, 64, 59
1, 137929, Control_c, 0, 64, 60
1, 137931, Note_on_c, 0, 57, 53
1, 137944, Control_c, 0, 64, 61
1, 137950, Note_off_c, 0, 61, 55
1, 137959, Control_c, 0, 64, 62
1, 137974, Control_c, 0, 64, 64
1, 137990, Control_c, 0, 64, 66
1, 138005, Control_c, 0, 64, 68
1, 138019, Control_c, 0, 64, 71
1, 138034, Control_c, 0, 64, 76
1, 138036, Note_off_c, 0, 57, 61
1, 138049, Control_c, 0, 64, 81
1, 138054, Note_on_c, 0, 51, 53
1, 138063, Control_c, 0, 64, 88
1, 138075, Note_on_c, 0, 66, 77
1, 138078, Control_c, 0, 64, 95
1, 138093, Control_c, 0, 64, 99
1, 138108, Control_c, 0, 64, 100
1, 138123, Control_c, 0, 64, 100
1, 138125, Note_off_c, 0, 51, 62
1, 138135, Note_off_c, 0, 68, 62
1, 138193, Note_on_c, 0, 52, 62
1, 138227, Control_c, 0, 64, 100
1, 138256, Control_c, 0, 64, 99
1, 138271, Control_c, 0, 64, 99
1, 138307, Note_on_c, 0, 49, 53
1, 138315, Note_off_c, 0, 52, 56
1, 138330, Control_c, 0, 64, 98
1, 138336, Note_on_c, 0, 63, 81
1, 138375, Control_c, 0, 64, 98
1, 138401, Note_on_c, 0, 40, 52
1, 138415, Note_off_c, 0, 49, 61
1, 138419, Control_c, 0, 64, 97
1, 138421, Note_off_c, 0, 66, 61
1, 138434, Control_c, 0, 64, 97
1, 138441, Note_off_c, 0, 40, 63
1, 138478, Control_c, 0, 64, 96
1, 138508, Control_c, 0, 64, 96
1, 138523, Control_c, 0, 64, 95
1, 138537, Control_c, 0, 64, 94
1, 138552, Control_c, 0, 64, 92
1, 138561, Note_on_c, 0, 49, 42
1, 138567, Control_c, 0, 64, 91
1, 138582, Note_on_c, 0, 37, 38
1, 138582, Control_c, 0, 64, 87
1, 138597, Control_c, 0, 64, 78
1, 138611, Control_c, 0, 64, 67
1, 138634, Control_c, 0, 64, 56
1, 138649, Control_c, 0, 64, 52
1, 138663, Control_c, 0, 64, 56
1, 138664, Note_on_c, 0, 66, 81
1, 138678, Control_c, 0, 64, 62
1, 138693, Control_c, 0, 64, 67
1, 138700, Note_off_c, 0, 49, 63
1, 138701, Note_off_c, 0, 63, 61
1, 138708, Control_c, 0, 64, 75
1, 138710, Note_off_c, 0, 37, 43
1, 138723, Control_c, 0, 64, 91
1, 138737, Control_c, 0, 64, 127
1, 138756, Note_off_c, 0, 66, 64
1, 138841, Note_on_c, 0, 57, 53
1, 138946, Control_c, 0, 64, 113
1, 138960, Control_c, 0, 64, 95
1, 138964, Note_on_c, 0, 64, 75
1, 138966, Note_off_c, 0, 57, 49
1, 138975, Control_c, 0, 64, 80
1, 138981, Note_on_c, 0, 81, 73
1, 138990, Control_c, 0, 64, 70
1, 139005, Control_c, 0, 64, 63
1, 139020, Control_c, 0, 64, 62
1, 139035, Control_c, 0, 64, 64
1, 139050, Control_c, 0, 64, 66
1, 139064, Control_c, 0, 64, 69
1, 139079, Control_c, 0, 64, 74
1, 139094, Control_c, 0, 64, 79
1, 139107, Note_on_c, 0, 52, 51
1, 139109, Control_c, 0, 64, 84
1, 139124, Control_c, 0, 64, 88
1, 139139, Control_c, 0, 64, 91
1, 139153, Control_c, 0, 64, 92
1, 139168, Control_c, 0, 64, 92
1, 139213, Control_c, 0, 64, 91
1, 139227, Note_on_c, 0, 63, 79
1, 139227, Control_c, 0, 64, 85
1, 139242, Control_c, 0, 64, 75
1, 139257, Control_c, 0, 64, 65
1, 139272, Control_c, 0, 64, 59
1, 139273, Note_off_c, 0, 52, 41
1, 139286, Control_c, 0, 64, 61
1, 139301, Control_c, 0, 64, 64
1, 139316, Control_c, 0, 64, 68
1, 139331, Control_c, 0, 64, 74
1, 139346, Control_c, 0, 64, 85
1, 139360, Note_off_c, 0, 64, 59
1, 139360, Control_c, 0, 64, 102
1, 139383, Control_c, 0, 64, 127
1, 139399, Note_on_c, 0, 73, 55
1, 139404, Note_on_c, 0, 57, 41
1, 139464, Note_on_c, 0, 76, 58
1, 139510, Note_off_c, 0, 81, 65
1, 139529, Note_on_c, 0, 85, 71
1, 139554, Note_on_c, 0, 62, 63
1, 139560, Control_c, 0, 64, 120
1, 139575, Control_c, 0, 64, 94
1, 139591, Control_c, 0, 64, 77
1, 139600, Note_on_c, 0, 83, 72
1, 139606, Control_c, 0, 64, 66
1, 139608, Note_off_c, 0, 63, 58
1, 139621, Control_c, 0, 64, 58
1, 139637, Note_off_c, 0, 85, 66
1, 139651, Control_c, 0, 64, 62
1, 139655, Note_off_c, 0, 57, 35
1, 139665, Control_c, 0, 64, 64
1, 139680, Control_c, 0, 64, 68
1, 139695, Control_c, 0, 64, 74
1, 139709, Control_c, 0, 64, 85
1, 139724, Control_c, 0, 64, 107
1, 139735, Note_on_c, 0, 52, 37
1, 139740, Control_c, 0, 64, 127
1, 139742, Note_off_c, 0, 62, 62
1, 139777, Note_off_c, 0, 52, 61
1, 139860, Note_on_c, 0, 61, 62
1, 139902, Control_c, 0, 64, 114
1, 139917, Control_c, 0, 64, 90
1, 139932, Control_c, 0, 64, 73
1, 139947, Control_c, 0, 64, 65
1, 139956, Note_on_c, 0, 57, 48
1, 139962, Control_c, 0, 64, 62
1, 139977, Control_c, 0, 64, 63
1, 139991, Control_c, 0, 64, 65
1, 140006, Control_c, 0, 64, 68
1, 140021, Control_c, 0, 64, 73
1, 140036, Control_c, 0, 64, 80
1, 140051, Control_c, 0, 64, 91
1, 140066, Control_c, 0, 64, 112
1, 140081, Control_c, 0, 64, 127
1, 140105, Note_on_c, 0, 52, 37
1, 140133, Note_on_c, 0, 81, 66
1, 140161, Note_off_c, 0, 83, 56
1, 140162, Note_off_c, 0, 76, 54
1, 140168, Note_off_c, 0, 61, 54
1, 140191, Note_off_c, 0, 73, 63
1, 140210, Note_off_c, 0, 57, 48
1, 140217, Note_on_c, 0, 49, 37
1, 140258, Note_off_c, 0, 49, 64
1, 140263, Note_off_c, 0, 52, 37
1, 140313, Note_on_c, 0, 71, 48
1, 140367, Note_on_c, 0, 74, 46
1, 140415, Control_c, 0, 64, 115
1, 140430, Control_c, 0, 64, 108
1, 140430, Note_on_c, 0, 37, 41
1, 140445, Control_c, 0, 64, 98
1, 140460, Control_c, 0, 64, 86
1, 140474, Control_c, 0, 64, 72
1, 140489, Control_c, 0, 64, 61
1, 140504, Control_c, 0, 64, 46
1, 140513, Note_on_c, 0, 78, 61
1, 140519, Control_c, 0, 64, 47
1, 140533, Control_c, 0, 64, 53
1, 140534, Note_off_c, 0, 81, 54
1, 140548, Control_c, 0, 64, 58
1, 140563, Control_c, 0, 64, 63
1, 140578, Control_c, 0, 64, 66
1, 140583, Note_off_c, 0, 37, 52
1, 140593, Control_c, 0, 64, 74
1, 140607, Control_c, 0, 64, 87
1, 140615, Note_on_c, 0, 49, 45
1, 140622, Control_c, 0, 64, 120
1, 140637, Control_c, 0, 64, 127
1, 140643, Note_off_c, 0, 49, 59
1, 140792, Note_on_c, 0, 59, 48
1, 140800, Note_on_c, 0, 81, 61
1, 140816, Note_off_c, 0, 78, 49
1, 140888, Note_off_c, 0, 59, 61
1, 140930, Note_on_c, 0, 62, 51
1, 140943, Note_off_c, 0, 74, 37
1, 141008, Note_off_c, 0, 62, 49
1, 141051, Note_on_c, 0, 66, 50
1, 141059, Note_on_c, 0, 80, 68
1, 141085, Note_off_c, 0, 71, 41
1, 141123, Note_off_c, 0, 66, 53
1, 141165, Note_on_c, 0, 64, 53
1, 141224, Note_off_c, 0, 81, 37
1, 141288, Note_on_c, 0, 62, 46
1, 141292, Note_off_c, 0, 64, 57
1, 141306, Note_on_c, 0, 78, 75
1, 141363, Note_off_c, 0, 80, 62
1, 141390, Note_off_c, 0, 62, 61
1, 141419, Note_on_c, 0, 59, 48
1, 141506, Note_off_c, 0, 78, 64
1, 141527, Note_off_c, 0, 59, 62
1, 141547, Note_on_c, 0, 76, 71
1, 141552, Note_on_c, 0, 53, 52
1, 141583, Note_off_c, 0, 53, 63
1, 141688, Note_on_c, 0, 54, 58
1, 141763, Control_c, 0, 64, 125
1, 141772, Note_off_c, 0, 54, 59
1, 141778, Control_c, 0, 64, 122
1, 141792, Note_on_c, 0, 73, 72
1, 141793, Control_c, 0, 64, 120
1, 141797, Note_on_c, 0, 50, 48
1, 141808, Control_c, 0, 64, 119
1, 141823, Control_c, 0, 64, 116
1, 141827, Note_off_c, 0, 76, 60
1, 141837, Control_c, 0, 64, 115
1, 141852, Control_c, 0, 64, 113
1, 141860, Note_off_c, 0, 50, 61
1, 141867, Control_c, 0, 64, 112
1, 141881, Control_c, 0, 64, 110
1, 141892, Note_on_c, 0, 42, 52
1, 141896, Control_c, 0, 64, 108
1, 141911, Control_c, 0, 64, 107
1, 141921, Note_off_c, 0, 42, 58
1, 141926, Control_c, 0, 64, 104
1, 141941, Control_c, 0, 64, 102
1, 141956, Control_c, 0, 64, 100
1, 141971, Control_c, 0, 64, 98
1, 141986, Control_c, 0, 64, 95
1, 142001, Control_c, 0, 64, 92
1, 142016, Control_c, 0, 64, 87
1, 142030, Control_c, 0, 64, 79
1, 142045, Control_c, 0, 64, 70
1, 142060, Control_c, 0, 64, 62
1, 142062, Note_on_c, 0, 37, 34
1, 142075, Control_c, 0, 64, 49
1, 142084, Note_on_c, 0, 76, 55
1, 142090, Control_c, 0, 64, 46
1, 142097, Note_off_c, 0, 73, 61
1, 142103, Note_on_c, 0, 75, 23
1, 142104, Control_c, 0, 64, 48
1, 142119, Control_c, 0, 64, 53
1, 142134, Control_c, 0, 64, 58
1, 142141, Note_off_c, 0, 75, 37
1, 142149, Control_c, 0, 64, 62
1, 142164, Control_c, 0, 64, 66
1, 142170, Note_on_c, 0, 42, 41
1, 142178, Control_c, 0, 64, 72
1, 142193, Control_c, 0, 64, 81
1, 142208, Control_c, 0, 64, 95
1, 142223, Control_c, 0, 64, 127
1, 142224, Note_off_c, 0, 37, 36
1, 142254, Note_off_c, 0, 42, 57
1, 142329, Note_on_c, 0, 50, 41
1, 142329, Note_on_c, 0, 66, 62
1, 142332, Note_off_c, 0, 76, 63
1, 142342, Note_on_c, 0, 74, 59
1, 142370, Note_off_c, 0, 50, 62
1, 142487, Note_on_c, 0, 54, 41
1, 142591, Note_on_c, 0, 58, 51
1, 142591, Note_on_c, 0, 73, 66
1, 142616, Note_off_c, 0, 54, 34
1, 142617, Note_off_c, 0, 74, 58
1, 142692, Note_off_c, 0, 58, 56
1, 142712, Note_on_c, 0, 59, 45
1, 142719, Control_c, 0, 64, 122
1, 142725, Note_off_c, 0, 66, 56
1, 142734, Control_c, 0, 64, 115
1, 142739, Note_on_c, 0, 69, 46
1, 142749, Control_c, 0, 64, 110
1, 142764, Control_c, 0, 64, 107
1, 142779, Control_c, 0, 64, 104
1, 142788, Note_off_c, 0, 59, 54
1, 142794, Control_c, 0, 64, 102
1, 142808, Control_c, 0, 64, 100
1, 142823, Control_c, 0, 64, 98
1, 142838, Control_c, 0, 64, 95
1, 142853, Control_c, 0, 64, 92
1, 142868, Note_on_c, 0, 68, 65
1, 142868, Control_c, 0, 64, 90
1, 142883, Control_c, 0, 64, 88
1, 142889, Note_on_c, 0, 64, 40
1, 142898, Control_c, 0, 64, 87
1, 142908, Note_off_c, 0, 73, 46
1, 142913, Control_c, 0, 64, 86
1, 142917, Note_on_c, 0, 71, 50
1, 142927, Control_c, 0, 64, 84
1, 142942, Control_c, 0, 64, 83
1, 142957, Control_c, 0, 64, 81
1, 142972, Control_c, 0, 64, 79
1, 142987, Control_c, 0, 64, 77
1, 143001, Control_c, 0, 64, 75
1, 143016, Control_c, 0, 64, 72
1, 143023, Note_off_c, 0, 69, 33
1, 143029, Note_off_c, 0, 64, 54
1, 143031, Control_c, 0, 64, 69
1, 143044, Note_on_c, 0, 62, 41
1, 143045, Control_c, 0, 64, 66
1, 143060, Control_c, 0, 64, 64
1, 143075, Control_c, 0, 64, 63
1, 143105, Control_c, 0, 64, 64
1, 143127, Control_c, 0, 64, 64
1, 143142, Control_c, 0, 64, 66
1, 143157, Control_c, 0, 64, 67
1, 143167, Note_off_c, 0, 62, 55
1, 143172, Control_c, 0, 64, 70
1, 143187, Control_c, 0, 64, 73
1, 143202, Control_c, 0, 64, 76
1, 143204, Note_on_c, 0, 72, 53
1, 143215, Note_on_c, 0, 61, 39
1, 143216, Control_c, 0, 64, 79
1, 143231, Control_c, 0, 64, 82
1, 143246, Control_c, 0, 64, 84
1, 143259, Note_off_c, 0, 71, 35
1, 143260, Control_c, 0, 64, 87
1, 143265, Note_off_c, 0, 61, 60
1, 143275, Control_c, 0, 64, 87
1, 143320, Control_c, 0, 64, 87
1, 143334, Control_c, 0, 64, 86
1, 143339, Note_on_c, 0, 62, 41
1, 143349, Control_c, 0, 64, 86
1, 143364, Control_c, 0, 64, 85
1, 143379, Control_c, 0, 64, 85
1, 143408, Control_c, 0, 64, 84
1, 143423, Control_c, 0, 64, 84
1, 143438, Control_c, 0, 64, 83
1, 143446, Note_off_c, 0, 62, 42
1, 143452, Control_c, 0, 64, 80
1, 143467, Control_c, 0, 64, 74
1, 143482, Control_c, 0, 64, 68
1, 143497, Note_on_c, 0, 66, 55
1, 143497, Control_c, 0, 64, 66
1, 143506, Note_on_c, 0, 56, 40
1, 143512, Control_c, 0, 64, 67
1, 143527, Control_c, 0, 64, 69
1, 143542, Control_c, 0, 64, 73
1, 143557, Control_c, 0, 64, 78
1, 143565, Note_off_c, 0, 56, 58
1, 143572, Control_c, 0, 64, 84
1, 143587, Control_c, 0, 64, 90
1, 143602, Control_c, 0, 64, 95
1, 143617, Control_c, 0, 64, 98
1, 143625, Note_off_c, 0, 68, 29
1, 143667, Note_on_c, 0, 44, 50
1, 143676, Control_c, 0, 64, 97
1, 143702, Note_off_c, 0, 44, 63
1, 143706, Control_c, 0, 64, 96
1, 143721, Control_c, 0, 64, 95
1, 143736, Control_c, 0, 64, 94
1, 143750, Control_c, 0, 64, 92
1, 143765, Control_c, 0, 64, 91
1, 143780, Control_c, 0, 64, 90
1, 143795, Control_c, 0, 64, 89
1, 143810, Control_c, 0, 64, 87
1, 143824, Control_c, 0, 64, 86
1, 143839, Control_c, 0, 64, 84
1, 143854, Control_c, 0, 64, 82
1, 143876, Control_c, 0, 64, 80
1, 143891, Control_c, 0, 64, 77
1, 143905, Note_on_c, 0, 65, 49
1, 143905, Control_c, 0, 64, 72
1, 143912, Note_on_c, 0, 37, 28
1, 143920, Control_c, 0, 64, 66
1, 143935, Control_c, 0, 64, 60
1, 143950, Control_c, 0, 64, 53
1, 143951, Note_off_c, 0, 66, 55
1, 143980, Control_c, 0, 64, 53
1, 143995, Control_c, 0, 64, 55
1, 144010, Control_c, 0, 64, 57
1, 144024, Control_c, 0, 64, 59
1, 144039, Control_c, 0, 64, 61
1, 144054, Control_c, 0, 64, 63
1, 144069, Control_c, 0, 64, 65
1, 144075, Note_off_c, 0, 37, 50
1, 144083, Control_c, 0, 64, 67
1, 144098, Control_c, 0, 64, 71
1, 144104, Note_on_c, 0, 44, 31
1, 144113, Control_c, 0, 64, 75
1, 144128, Control_c, 0, 64, 79
1, 144143, Control_c, 0, 64, 80
1, 144156, Note_off_c, 0, 44, 56
1, 144187, Control_c, 0, 64, 80
1, 144217, Control_c, 0, 64, 79
1, 144230, Control_c, 0, 64, 79
1, 144245, Control_c, 0, 64, 78
1, 144260, Control_c, 0, 64, 78
1, 144275, Control_c, 0, 64, 77
1, 144290, Control_c, 0, 64, 76
1, 144297, Note_on_c, 0, 73, 48
1, 144305, Control_c, 0, 64, 73
1, 144312, Note_on_c, 0, 56, 35
1, 144320, Control_c, 0, 64, 69
1, 144320, Note_off_c, 0, 72, 33
1, 144335, Control_c, 0, 64, 67
1, 144349, Control_c, 0, 64, 65
1, 144364, Control_c, 0, 64, 66
1, 144379, Control_c, 0, 64, 67
1, 144394, Control_c, 0, 64, 68
1, 144409, Control_c, 0, 64, 69
1, 144424, Control_c, 0, 64, 71
1, 144439, Control_c, 0, 64, 73
1, 144451, Note_on_c, 0, 44, 31
1, 144454, Control_c, 0, 64, 75
1, 144469, Control_c, 0, 64, 76
1, 144498, Control_c, 0, 64, 75
1, 144513, Control_c, 0, 64, 74
1, 144528, Control_c, 0, 64, 72
1, 144543, Control_c, 0, 64, 69
1, 144558, Control_c, 0, 64, 67
1, 144572, Control_c, 0, 64, 68
1, 144587, Control_c, 0, 64, 69
1, 144596, Note_on_c, 0, 54, 47
1, 144602, Control_c, 0, 64, 70
1, 144603, Note_off_c, 0, 65, 39
1, 144624, Control_c, 0, 64, 73
1, 144636, Note_off_c, 0, 44, 36
1, 144639, Control_c, 0, 64, 75
1, 144654, Control_c, 0, 64, 77
1, 144662, Note_off_c, 0, 73, 47
1, 144669, Control_c, 0, 64, 78
1, 144674, Note_off_c, 0, 56, 41
1, 144683, Control_c, 0, 64, 79
1, 144698, Control_c, 0, 64, 80
1, 144740, Note_on_c, 0, 49, 30
1, 144787, Control_c, 0, 64, 79
1, 144802, Control_c, 0, 64, 77
1, 144806, Note_off_c, 0, 54, 30
1, 144817, Control_c, 0, 64, 74
1, 144832, Control_c, 0, 64, 70
1, 144844, Note_on_c, 0, 53, 46
1, 144846, Control_c, 0, 64, 67
1, 144861, Control_c, 0, 64, 65
1, 144876, Control_c, 0, 64, 66
1, 144891, Control_c, 0, 64, 68
1, 144901, Note_off_c, 0, 49, 43
1, 144905, Control_c, 0, 64, 70
1, 144920, Control_c, 0, 64, 73
1, 144935, Control_c, 0, 64, 78
1, 144950, Control_c, 0, 64, 82
1, 144965, Control_c, 0, 64, 86
1, 144975, Note_on_c, 0, 44, 36
1, 144979, Control_c, 0, 64, 89
1, 144994, Control_c, 0, 64, 91
1, 145009, Control_c, 0, 64, 92
1, 145038, Note_off_c, 0, 53, 43
1, 145083, Control_c, 0, 64, 92
1, 145098, Control_c, 0, 64, 91
1, 145113, Control_c, 0, 64, 91
1, 145128, Control_c, 0, 64, 90
1, 145143, Control_c, 0, 64, 89
1, 145157, Control_c, 0, 64, 88
1, 145170, Note_on_c, 0, 59, 64
1, 145173, Control_c, 0, 64, 85
1, 145184, Note_on_c, 0, 50, 29
1, 145188, Control_c, 0, 64, 79
1, 145202, Control_c, 0, 64, 71
1, 145217, Control_c, 0, 64, 65
1, 145230, Note_off_c, 0, 44, 36
1, 145232, Control_c, 0, 64, 62
1, 145247, Control_c, 0, 64, 62
1, 145262, Control_c, 0, 64, 64
1, 145277, Control_c, 0, 64, 66
1, 145292, Control_c, 0, 64, 68
1, 145306, Control_c, 0, 64, 72
1, 145321, Control_c, 0, 64, 77
1, 145329, Note_on_c, 0, 56, 45
1, 145336, Control_c, 0, 64, 85
1, 145351, Control_c, 0, 64, 94
1, 145373, Control_c, 0, 64, 105
1, 145388, Control_c, 0, 64, 127
1, 145470, Note_off_c, 0, 50, 39
1, 145485, Note_on_c, 0, 61, 77
1, 145494, Note_on_c, 0, 49, 41
1, 145499, Note_off_c, 0, 56, 47
1, 145564, Note_off_c, 0, 59, 57
1, 145653, Note_off_c, 0, 49, 59
1, 145824, Note_on_c, 0, 40, 43
1, 145846, Control_c, 0, 64, 120
1, 145851, Note_on_c, 0, 62, 76
1, 145861, Control_c, 0, 64, 102
1, 145876, Control_c, 0, 64, 86
1, 145891, Control_c, 0, 64, 72
1, 145895, Note_off_c, 0, 61, 61
1, 145906, Control_c, 0, 64, 63
1, 145921, Control_c, 0, 64, 56
1, 145935, Control_c, 0, 64, 57
1, 145950, Control_c, 0, 64, 59
1, 145966, Control_c, 0, 64, 62
1, 145981, Control_c, 0, 64, 65
1, 145996, Control_c, 0, 64, 69
1, 146011, Control_c, 0, 64, 76
1, 146025, Control_c, 0, 64, 87
1, 146040, Note_off_c, 0, 40, 40
1, 146040, Control_c, 0, 64, 110
1, 146044, Note_on_c, 0, 47, 39
1, 146055, Control_c, 0, 64, 127
1, 146097, Note_off_c, 0, 47, 57
1, 146237, Note_on_c, 0, 68, 55
1, 146251, Note_on_c, 0, 59, 43
1, 146324, Note_off_c, 0, 59, 54
1, 146372, Note_on_c, 0, 47, 28
1, 146507, Control_c, 0, 64, 115
1, 146522, Control_c, 0, 64, 111
1, 146524, Note_on_c, 0, 69, 70
1, 146526, Note_on_c, 0, 57, 40
1, 146537, Control_c, 0, 64, 108
1, 146551, Control_c, 0, 64, 105
1, 146566, Control_c, 0, 64, 103
1, 146570, Note_off_c, 0, 47, 32
1, 146581, Control_c, 0, 64, 101
1, 146596, Control_c, 0, 64, 100
1, 146611, Note_off_c, 0, 57, 53
1, 146611, Control_c, 0, 64, 99
1, 146616, Note_off_c, 0, 68, 37
1, 146625, Control_c, 0, 64, 98
1, 146640, Control_c, 0, 64, 97
1, 146655, Control_c, 0, 64, 96
1, 146669, Control_c, 0, 64, 96
1, 146684, Control_c, 0, 64, 95
1, 146698, Note_on_c, 0, 52, 30
1, 146699, Control_c, 0, 64, 94
1, 146714, Control_c, 0, 64, 93
1, 146728, Note_off_c, 0, 62, 50
1, 146729, Control_c, 0, 64, 92
1, 146743, Control_c, 0, 64, 91
1, 146758, Control_c, 0, 64, 91
1, 146774, Control_c, 0, 64, 90
1, 146789, Control_c, 0, 64, 89
1, 146804, Control_c, 0, 64, 88
1, 146819, Control_c, 0, 64, 87
1, 146834, Control_c, 0, 64, 86
1, 146848, Control_c, 0, 64, 84
1, 146854, Note_on_c, 0, 71, 67
1, 146860, Note_on_c, 0, 56, 36
1, 146863, Control_c, 0, 64, 82
1, 146886, Control_c, 0, 64, 78
1, 146889, Note_off_c, 0, 52, 40
1, 146901, Control_c, 0, 64, 74
1, 146907, Note_off_c, 0, 69, 58
1, 146916, Control_c, 0, 64, 72
1, 146930, Control_c, 0, 64, 71
1, 146945, Control_c, 0, 64, 72
1, 146960, Control_c, 0, 64, 73
1, 146974, Control_c, 0, 64, 74
1, 146989, Control_c, 0, 64, 76
1, 147000, Note_off_c, 0, 56, 43
1, 147004, Control_c, 0, 64, 78
1, 147018, Note_on_c, 0, 64, 44
1, 147019, Control_c, 0, 64, 82
1, 147034, Control_c, 0, 64, 87
1, 147048, Control_c, 0, 64, 92
1, 147063, Control_c, 0, 64, 99
1, 147078, Control_c, 0, 64, 108
1, 147092, Control_c, 0, 64, 127
1, 147134, Note_off_c, 0, 64, 47
1, 147155, Note_on_c, 0, 56, 35
1, 147197, Note_on_c, 0, 62, 66
1, 147303, Note_on_c, 0, 52, 46
1, 147304, Note_off_c, 0, 56, 35
1, 147352, Note_off_c, 0, 52, 63
1, 147441, Note_on_c, 0, 50, 47
1, 147459, Note_on_c, 0, 66, 75
1, 147554, Note_off_c, 0, 62, 55
1, 147578, Note_on_c, 0, 38, 47
1, 147596, Note_off_c, 0, 50, 33
1, 147611, Note_off_c, 0, 38, 56
1, 147709, Control_c, 0, 64, 117
1, 147724, Control_c, 0, 64, 101
1, 147739, Control_c, 0, 64, 86
1, 147748, Note_on_c, 0, 65, 78
1, 147754, Note_on_c, 0, 37, 51
1, 147754, Control_c, 0, 64, 71
1, 147768, Note_off_c, 0, 66, 63
1, 147769, Control_c, 0, 64, 63
1, 147784, Control_c, 0, 64, 57
1, 147798, Control_c, 0, 64, 58
1, 147813, Control_c, 0, 64, 61
1, 147828, Control_c, 0, 64, 63
1, 147843, Control_c, 0, 64, 66
1, 147858, Control_c, 0, 64, 70
1, 147872, Control_c, 0, 64, 77
1, 147887, Control_c, 0, 64, 88
1, 147900, Note_on_c, 0, 44, 58
1, 147902, Control_c, 0, 64, 106
1, 147903, Note_off_c, 0, 37, 61
1, 147916, Control_c, 0, 64, 127
1, 147971, Note_off_c, 0, 44, 60
1, 148034, Control_c, 0, 64, 117
1, 148049, Control_c, 0, 64, 108
1, 148064, Note_on_c, 0, 73, 77
1, 148064, Control_c, 0, 64, 97
1, 148070, Note_on_c, 0, 56, 56
1, 148079, Control_c, 0, 64, 86
1, 148085, Note_on_c, 0, 61, 51
1, 148094, Control_c, 0, 64, 77
1, 148108, Control_c, 0, 64, 70
1, 148123, Control_c, 0, 64, 65
1, 148138, Control_c, 0, 64, 64
1, 148152, Note_off_c, 0, 71, 48
1, 148153, Control_c, 0, 64, 65
1, 148161, Note_off_c, 0, 65, 48
1, 148168, Control_c, 0, 64, 66
1, 148183, Control_c, 0, 64, 66
1, 148188, Note_on_c, 0, 44, 41
1, 148197, Control_c, 0, 64, 67
1, 148212, Control_c, 0, 64, 69
1, 148227, Control_c, 0, 64, 70
1, 148242, Control_c, 0, 64, 71
1, 148257, Control_c, 0, 64, 69
1, 148271, Control_c, 0, 64, 67
1, 148286, Control_c, 0, 64, 65
1, 148290, Note_on_c, 0, 54, 66
1, 148301, Control_c, 0, 64, 63
1, 148330, Control_c, 0, 64, 65
1, 148345, Control_c, 0, 64, 67
1, 148368, Control_c, 0, 64, 71
1, 148383, Control_c, 0, 64, 75
1, 148398, Control_c, 0, 64, 78
1, 148407, Note_on_c, 0, 49, 63
1, 148413, Control_c, 0, 64, 81
1, 148427, Control_c, 0, 64, 82
1, 148432, Note_off_c, 0, 56, 37
1, 148445, Note_off_c, 0, 44, 35
1, 148472, Control_c, 0, 64, 81
1, 148487, Control_c, 0, 64, 78
1, 148491, Note_off_c, 0, 54, 62
1, 148502, Control_c, 0, 64, 72
1, 148517, Control_c, 0, 64, 67
1, 148532, Control_c, 0, 64, 65
1, 148546, Control_c, 0, 64, 66
1, 148547, Note_on_c, 0, 53, 76
1, 148561, Control_c, 0, 64, 68
1, 148576, Control_c, 0, 64, 72
1, 148588, Note_off_c, 0, 73, 39
1, 148591, Control_c, 0, 64, 78
1, 148602, Note_off_c, 0, 49, 61
1, 148606, Control_c, 0, 64, 84
1, 148620, Control_c, 0, 64, 90
1, 148635, Control_c, 0, 64, 96
1, 148642, Note_off_c, 0, 61, 38
1, 148650, Control_c, 0, 64, 101
1, 148653, Note_on_c, 0, 44, 68
1, 148665, Control_c, 0, 64, 106
1, 148680, Control_c, 0, 64, 112
1, 148694, Control_c, 0, 64, 120
1, 148709, Control_c, 0, 64, 125
1, 148726, Note_off_c, 0, 53, 62
1, 148739, Control_c, 0, 64, 120
1, 148753, Control_c, 0, 64, 110
1, 148768, Control_c, 0, 64, 96
1, 148783, Control_c, 0, 64, 76
1, 148791, Note_on_c, 0, 50, 71
1, 148798, Control_c, 0, 64, 64
1, 148806, Note_on_c, 0, 59, 85
1, 148807, Note_on_c, 0, 71, 80
1, 148813, Control_c, 0, 64, 52
1, 148820, Note_on_c, 0, 68, 72
1, 148827, Control_c, 0, 64, 49
1, 148842, Control_c, 0, 64, 53
1, 148843, Note_off_c, 0, 44, 55
1, 148857, Control_c, 0, 64, 58
1, 148872, Control_c, 0, 64, 62
1, 148887, Control_c, 0, 64, 66
1, 148901, Control_c, 0, 64, 72
1, 148916, Control_c, 0, 64, 84
1, 148931, Note_on_c, 0, 56, 82
1, 148931, Control_c, 0, 64, 115
1, 148937, Note_off_c, 0, 68, 57
1, 148946, Control_c, 0, 64, 127
1, 148967, Note_off_c, 0, 59, 61
1, 149047, Note_off_c, 0, 50, 53
1, 149049, Note_on_c, 0, 49, 58
1, 149061, Note_on_c, 0, 73, 95
1, 149070, Note_on_c, 0, 61, 86
1, 149074, Note_on_c, 0, 68, 69
1, 149132, Note_off_c, 0, 56, 62
1, 149154, Note_on_c, 0, 44, 61
1, 149200, Note_off_c, 0, 44, 63
1, 149201, Note_off_c, 0, 49, 61
1, 149258, Note_off_c, 0, 71, 37
1, 149292, Note_off_c, 0, 61, 60
1, 149299, Note_off_c, 0, 73, 61
1, 149315, Note_off_c, 0, 68, 28
1, 149323, Note_on_c, 0, 40, 72
1, 149355, Control_c, 0, 64, 96
1, 149355, Note_on_c, 0, 74, 93
1, 149357, Note_on_c, 0, 62, 89
1, 149360, Note_on_c, 0, 68, 61
1, 149369, Control_c, 0, 64, 78
1, 149384, Control_c, 0, 64, 64
1, 149399, Control_c, 0, 64, 47
1, 149414, Control_c, 0, 64, 24
1, 149429, Control_c, 0, 64, 25
1, 149443, Control_c, 0, 64, 29
1, 149458, Control_c, 0, 64, 38
1, 149473, Control_c, 0, 64, 47
1, 149488, Control_c, 0, 64, 54
1, 149492, Note_on_c, 0, 47, 63
1, 149503, Control_c, 0, 64, 59
1, 149517, Control_c, 0, 64, 64
1, 149522, Note_off_c, 0, 40, 58
1, 149532, Control_c, 0, 64, 68
1, 149547, Control_c, 0, 64, 76
1, 149561, Control_c, 0, 64, 89
1, 149576, Control_c, 0, 64, 114
1, 149591, Control_c, 0, 64, 127
1, 149601, Note_off_c, 0, 47, 62
1, 149612, Note_on_c, 0, 52, 64
1, 149649, Note_off_c, 0, 52, 62
1, 149725, Note_on_c, 0, 47, 67
1, 149767, Note_off_c, 0, 62, 55
1, 149849, Note_on_c, 0, 56, 70
1, 149961, Note_on_c, 0, 52, 64
1, 149969, Note_off_c, 0, 68, 54
1, 149978, Note_off_c, 0, 47, 53
1, 150010, Note_off_c, 0, 74, 61
1, 150038, Note_off_c, 0, 56, 58
1, 150067, Poly_aftertouch_c, 0, 50, 127
1, 150087, Note_on_c, 0, 61, 83
1, 150139, Poly_aftertouch_c, 0, 50, 0
1, 150189, Note_on_c, 0, 56, 73
1, 150190, Note_off_c, 0, 52, 36
1, 150247, Note_off_c, 0, 61, 60
1, 150321, Note_on_c, 0, 59, 84
1, 150332, Note_on_c, 0, 80, 90
1, 150337, Note_on_c, 0, 68, 83
1, 150344, Note_on_c, 0, 74, 67
1, 150362, Note_off_c, 0, 56, 63
1, 150434, Note_on_c, 0, 52, 75
1, 150508, Note_off_c, 0, 59, 55
1, 150536, Note_off_c, 0, 68, 60
1, 150538, Note_off_c, 0, 74, 57
1, 150538, Note_off_c, 0, 80, 62
1, 150581, Note_on_c, 0, 57, 81
1, 150592, Note_on_c, 0, 81, 99
1, 150593, Note_on_c, 0, 69, 97
1, 150616, Note_on_c, 0, 74, 65
1, 150642, Note_off_c, 0, 52, 61
1, 150712, Note_on_c, 0, 47, 78
1, 150730, Note_off_c, 0, 57, 64
1, 150750, Note_off_c, 0, 47, 62
1, 150814, Note_off_c, 0, 69, 56
1, 150824, Note_off_c, 0, 81, 57
1, 150842, Note_off_c, 0, 74, 41
1, 150890, Note_on_c, 0, 40, 76
1, 150914, Note_on_c, 0, 83, 96
1, 150915, Note_on_c, 0, 74, 71
1, 150919, Note_on_c, 0, 71, 85
1, 150926, Control_c, 0, 64, 98
1, 150940, Control_c, 0, 64, 76
1, 150955, Control_c, 0, 64, 61
1, 150971, Control_c, 0, 64, 9
1, 150986, Control_c, 0, 64, 0
1, 151015, Control_c, 0, 64, 20
1, 151030, Control_c, 0, 64, 48
1, 151045, Control_c, 0, 64, 60
1, 151057, Note_on_c, 0, 47, 71
1, 151060, Control_c, 0, 64, 66
1, 151075, Control_c, 0, 64, 74
1, 151077, Note_off_c, 0, 40, 63
1, 151089, Control_c, 0, 64, 97
1, 151104, Control_c, 0, 64, 127
1, 151110, Poly_aftertouch_c, 0, 44, 127
1, 151143, Poly_aftertouch_c, 0, 44, 0
1, 151163, Note_off_c, 0, 71, 55
1, 151165, Note_off_c, 0, 47, 61
1, 151206, Note_on_c, 0, 56, 66
1, 151234, Note_off_c, 0, 74, 62
1, 151238, Note_off_c, 0, 56, 66
1, 151346, Note_on_c, 0, 62, 69
1, 151495, Note_on_c, 0, 56, 74
1, 151531, Note_off_c, 0, 62, 55
1, 151560, Note_off_c, 0, 83, 53
1, 151638, Note_on_c, 0, 47, 73
1, 151671, Note_off_c, 0, 56, 64
1, 151695, Note_off_c, 0, 47, 64
1, 151867, Note_on_c, 0, 39, 60
1, 151898, Control_c, 0, 64, 122
1, 151912, Control_c, 0, 64, 109
1, 151913, Note_on_c, 0, 84, 79
1, 151927, Control_c, 0, 64, 103
1, 151938, Note_on_c, 0, 72, 55
1, 151938, Note_on_c, 0, 78, 58
1, 151942, Control_c, 0, 64, 97
1, 151957, Control_c, 0, 64, 91
1, 151972, Control_c, 0, 64, 82
1, 151987, Control_c, 0, 64, 71
1, 152002, Control_c, 0, 64, 60
1, 152016, Control_c, 0, 64, 37
1, 152031, Control_c, 0, 64, 0
1, 152112, Control_c, 0, 64, 21
1, 152115, Note_on_c, 0, 44, 44
1, 152127, Control_c, 0, 64, 38
1, 152142, Control_c, 0, 64, 52
1, 152157, Control_c, 0, 64, 58
1, 152171, Control_c, 0, 64, 61
1, 152186, Control_c, 0, 64, 64
1, 152196, Note_off_c, 0, 39, 55
1, 152201, Control_c, 0, 64, 68
1, 152216, Control_c, 0, 64, 74
1, 152231, Control_c, 0, 64, 87
1, 152246, Control_c, 0, 64, 107
1, 152261, Note_off_c, 0, 44, 51
1, 152261, Control_c, 0, 64, 127
1, 152292, Note_on_c, 0, 54, 44
1, 152321, Note_off_c, 0, 54, 59
1, 152354, Note_off_c, 0, 72, 40
1, 152480, Note_on_c, 0, 63, 39
1, 152575, Note_off_c, 0, 63, 57
1, 152645, Note_off_c, 0, 78, 22
1, 152668, Note_on_c, 0, 54, 45
1, 152811, Note_off_c, 0, 54, 30
1, 152824, Control_c, 0, 67, 11
1, 152839, Control_c, 0, 67, 18
1, 152860, Control_c, 0, 67, 26
1, 152875, Control_c, 0, 67, 34
1, 152887, Note_off_c, 0, 84, 57
1, 152890, Control_c, 0, 67, 38
1, 152905, Control_c, 0, 67, 42
1, 152908, Note_on_c, 0, 44, 37
1, 152920, Control_c, 0, 67, 47
1, 152935, Control_c, 0, 67, 57
1, 152941, Note_off_c, 0, 44, 57
1, 152949, Control_c, 0, 67, 67
1, 152964, Control_c, 0, 67, 74
1, 152979, Control_c, 0, 67, 78
1, 152994, Control_c, 0, 67, 80
1, 153009, Control_c, 0, 67, 81
1, 153039, Control_c, 0, 67, 81
1, 153054, Control_c, 0, 64, 122
1, 153068, Control_c, 0, 64, 117
1, 153083, Control_c, 0, 64, 115
1, 153098, Control_c, 0, 64, 112
1, 153112, Control_c, 0, 64, 109
1, 153127, Control_c, 0, 64, 106
1, 153127, Control_c, 0, 67, 81
1, 153142, Control_c, 0, 64, 103
1, 153142, Control_c, 0, 67, 80
1, 153158, Control_c, 0, 64, 101
1, 153158, Control_c, 0, 67, 79
1, 153173, Control_c, 0, 64, 100
1, 153188, Control_c, 0, 64, 99
1, 153188, Control_c, 0, 67, 79
1, 153203, Control_c, 0, 64, 98
1, 153217, Control_c, 0, 64, 97
1, 153217, Control_c, 0, 67, 78
1, 153222, Note_on_c, 0, 37, 34
1, 153232, Control_c, 0, 64, 95
1, 153247, Control_c, 0, 64, 94
1, 153247, Control_c, 0, 67, 77
1, 153262, Control_c, 0, 64, 92
1, 153277, Control_c, 0, 64, 89
1, 153277, Control_c, 0, 67, 77
1, 153277, Note_on_c, 0, 85, 55
1, 153291, Control_c, 0, 64, 87
1, 153301, Note_on_c, 0, 73, 34
1, 153306, Control_c, 0, 64, 86
1, 153309, Note_on_c, 0, 77, 38
1, 153321, Control_c, 0, 64, 84
1, 153336, Control_c, 0, 64, 82
1, 153351, Control_c, 0, 64, 80
1, 153351, Control_c, 0, 67, 76
1, 153365, Control_c, 0, 64, 78
1, 153380, Control_c, 0, 64, 75
1, 153395, Control_c, 0, 64, 70
1, 153409, Control_c, 0, 64, 64
1, 153424, Control_c, 0, 64, 55
1, 153424, Control_c, 0, 67, 76
1, 153439, Control_c, 0, 64, 44
1, 153454, Control_c, 0, 64, 44
1, 153469, Control_c, 0, 67, 75
1, 153483, Control_c, 0, 64, 45
1, 153498, Control_c, 0, 64, 50
1, 153513, Control_c, 0, 64, 55
1, 153528, Control_c, 0, 64, 61
1, 153534, Note_on_c, 0, 44, 26
1, 153542, Note_off_c, 0, 37, 49
1, 153543, Control_c, 0, 64, 64
1, 153558, Control_c, 0, 64, 67
1, 153558, Control_c, 0, 67, 74
1, 153572, Control_c, 0, 64, 71
1, 153587, Control_c, 0, 64, 77
1, 153587, Control_c, 0, 67, 74
1, 153609, Control_c, 0, 64, 85
1, 153609, Control_c, 0, 67, 73
1, 153624, Control_c, 0, 64, 96
1, 153624, Control_c, 0, 67, 72
1, 153639, Control_c, 0, 64, 102
1, 153639, Control_c, 0, 67, 72
1, 153645, Note_off_c, 0, 73, 34
1, 153654, Control_c, 0, 64, 104
1, 153658, Note_off_c, 0, 44, 35
1, 153684, Note_off_c, 0, 77, 30
1, 153698, Control_c, 0, 67, 71
1, 153728, Control_c, 0, 67, 71
1, 153730, Note_on_c, 0, 53, 31
1, 153757, Control_c, 0, 64, 103
1, 153757, Control_c, 0, 67, 70
1, 153772, Control_c, 0, 64, 102
1, 153787, Control_c, 0, 64, 101
1, 153802, Control_c, 0, 64, 101
1, 153817, Control_c, 0, 67, 69
1, 153820, Note_off_c, 0, 53, 39
1, 153832, Control_c, 0, 64, 100
1, 153847, Control_c, 0, 64, 100
1, 153863, Note_on_c, 0, 55, 19
1, 153891, Control_c, 0, 64, 99
1, 153935, Control_c, 0, 64, 98
1, 153950, Control_c, 0, 64, 98
1, 153957, Note_off_c, 0, 55, 37
1, 153966, Control_c, 0, 64, 96
1, 153981, Control_c, 0, 64, 96
1, 153981, Control_c, 0, 67, 69
1, 153996, Control_c, 0, 64, 95
1, 154004, Note_on_c, 0, 58, 35
1, 154011, Control_c, 0, 64, 95
1, 154011, Control_c, 0, 67, 68
1, 154031, Note_off_c, 0, 85, 39
1, 154040, Control_c, 0, 64, 94
1, 154055, Control_c, 0, 67, 67
1, 154085, Control_c, 0, 64, 95
1, 154100, Control_c, 0, 64, 95
1, 154100, Control_c, 0, 67, 67
1, 154114, Control_c, 0, 64, 96
1, 154129, Control_c, 0, 64, 97
1, 154144, Note_on_c, 0, 56, 34
1, 154144, Control_c, 0, 64, 99
1, 154158, Control_c, 0, 64, 101
1, 154173, Control_c, 0, 64, 104
1, 154177, Note_off_c, 0, 58, 40
1, 154187, Note_on_c, 0, 73, 45
1, 154188, Note_off_c, 0, 56, 57
1, 154188, Control_c, 0, 64, 109
1, 154203, Control_c, 0, 64, 117
1, 154218, Control_c, 0, 64, 127
1, 154240, Note_off_c, 0, 73, 60
1, 154265, Note_on_c, 0, 80, 52
1, 154402, Note_on_c, 0, 89, 65
1, 154414, Note_on_c, 0, 68, 36
1, 154426, Note_off_c, 0, 80, 51
1, 154507, Control_c, 0, 67, 66
1, 154551, Note_on_c, 0, 65, 33
1, 154558, Note_off_c, 0, 68, 32
1, 154580, Control_c, 0, 67, 66
1, 154610, Control_c, 0, 67, 65
1, 154638, Note_off_c, 0, 65, 55
1, 154683, Note_on_c, 0, 60, 42
1, 154710, Note_off_c, 0, 89, 53
1, 154726, Note_off_c, 0, 60, 64
1, 154788, Control_c, 0, 67, 64
1, 154819, Note_on_c, 0, 61, 39
1, 154904, Note_off_c, 0, 61, 49
1, 154930, Note_on_c, 0, 56, 41
1, 154966, Control_c, 0, 64, 122
1, 154980, Control_c, 0, 64, 115
1, 154995, Control_c, 0, 64, 109
1, 155010, Control_c, 0, 64, 105
1, 155015, Note_off_c, 0, 56, 52
1, 155025, Note_on_c, 0, 49, 37
1, 155025, Control_c, 0, 64, 101
1, 155040, Control_c, 0, 64, 99
1, 155054, Control_c, 0, 64, 98
1, 155069, Control_c, 0, 64, 96
1, 155084, Control_c, 0, 64, 94
1, 155107, Control_c, 0, 64, 92
1, 155122, Control_c, 0, 64, 90
1, 155136, Control_c, 0, 64, 86
1, 155151, Control_c, 0, 64, 80
1, 155164, Note_on_c, 0, 46, 47
1, 155166, Control_c, 0, 64, 72
1, 155181, Control_c, 0, 64, 64
1, 155181, Control_c, 0, 67, 64
1, 155195, Control_c, 0, 64, 58
1, 155210, Control_c, 0, 64, 55
1, 155225, Control_c, 0, 64, 56
1, 155240, Control_c, 0, 64, 57
1, 155255, Control_c, 0, 64, 59
1, 155269, Control_c, 0, 64, 61
1, 155282, Note_off_c, 0, 49, 20
1, 155284, Control_c, 0, 64, 64
1, 155298, Note_off_c, 0, 46, 59
1, 155299, Control_c, 0, 64, 66
1, 155306, Note_on_c, 0, 55, 44
1, 155314, Control_c, 0, 64, 70
1, 155329, Control_c, 0, 64, 75
1, 155343, Control_c, 0, 64, 84
1, 155358, Control_c, 0, 64, 98
1, 155369, Note_off_c, 0, 55, 61
1, 155373, Control_c, 0, 64, 127
1, 155429, Note_on_c, 0, 61, 40
1, 155531, Note_off_c, 0, 61, 48
1, 155546, Note_on_c, 0, 63, 48
1, 155664, Note_off_c, 0, 63, 37
1, 155673, Note_on_c, 0, 66, 46
1, 155759, Note_off_c, 0, 66, 58
1, 155767, Note_on_c, 0, 64, 49
1, 155805, Note_on_c, 0, 73, 45
1, 155835, Note_off_c, 0, 64, 60
1, 155865, Note_off_c, 0, 73, 62
1, 155874, Note_on_c, 0, 79, 58
1, 155924, Note_on_c, 0, 70, 43
1, 155966, Note_on_c, 0, 88, 81
1, 155974, Control_c, 0, 67, 63
1, 155989, Control_c, 0, 67, 62
1, 156017, Note_off_c, 0, 70, 60
1, 156018, Control_c, 0, 67, 62
1, 156033, Control_c, 0, 67, 61
1, 156043, Note_off_c, 0, 79, 36
1, 156056, Note_on_c, 0, 64, 45
1, 156063, Control_c, 0, 67, 61
1, 156077, Control_c, 0, 67, 60
1, 156092, Control_c, 0, 67, 59
1, 156122, Control_c, 0, 67, 59
1, 156136, Control_c, 0, 67, 58
1, 156151, Control_c, 0, 67, 57
1, 156153, Note_off_c, 0, 64, 58
1, 156172, Note_on_c, 0, 60, 51
1, 156181, Control_c, 0, 67, 57
1, 156196, Control_c, 0, 67, 56
1, 156208, Note_off_c, 0, 60, 65
1, 156226, Control_c, 0, 67, 56
1, 156239, Note_off_c, 0, 88, 54
1, 156240, Control_c, 0, 67, 55
1, 156255, Control_c, 0, 67, 54
1, 156285, Control_c, 0, 67, 54
1, 156314, Note_on_c, 0, 61, 54
1, 156315, Control_c, 0, 67, 53
1, 156344, Control_c, 0, 67, 52
1, 156389, Control_c, 0, 67, 52
1, 156417, Note_off_c, 0, 61, 52
1, 156424, Note_on_c, 0, 55, 50
1, 156518, Note_off_c, 0, 55, 62
1, 156524, Note_on_c, 0, 49, 52
1, 156559, Note_off_c, 0, 49, 64
1, 156679, Control_c, 0, 64, 119
1, 156679, Note_on_c, 0, 45, 63
1, 156694, Control_c, 0, 64, 98
1, 156708, Control_c, 0, 64, 80
1, 156723, Control_c, 0, 64, 65
1, 156738, Control_c, 0, 64, 48
1, 156753, Control_c, 0, 64, 38
1, 156767, Control_c, 0, 64, 45
1, 156782, Control_c, 0, 64, 52
1, 156797, Control_c, 0, 64, 59
1, 156812, Control_c, 0, 64, 63
1, 156826, Control_c, 0, 64, 67
1, 156828, Note_off_c, 0, 45, 56
1, 156835, Note_on_c, 0, 54, 61
1, 156841, Control_c, 0, 64, 74
1, 156856, Control_c, 0, 64, 88
1, 156871, Control_c, 0, 64, 127
1, 156871, Control_c, 0, 67, 51
1, 156886, Control_c, 0, 67, 51
1, 156908, Note_off_c, 0, 54, 61
1, 156958, Note_on_c, 0, 61, 66
1, 156974, Control_c, 0, 67, 51
1, 156990, Note_off_c, 0, 61, 65
1, 157072, Note_on_c, 0, 65, 71
1, 157123, Control_c, 0, 67, 51
1, 157188, Note_on_c, 0, 68, 73
1, 157194, Note_off_c, 0, 65, 61
1, 157197, Control_c, 0, 67, 51
1, 157269, Note_on_c, 0, 66, 70
1, 157316, Note_off_c, 0, 68, 60
1, 157330, Note_on_c, 0, 73, 63
1, 157391, Note_off_c, 0, 66, 58
1, 157402, Note_on_c, 0, 78, 80
1, 157421, Note_on_c, 0, 69, 66
1, 157429, Note_off_c, 0, 73, 60
1, 157442, Control_c, 0, 67, 52
1, 157492, Note_on_c, 0, 87, 91
1, 157531, Control_c, 0, 67, 51
1, 157538, Note_off_c, 0, 78, 61
1, 157589, Note_on_c, 0, 66, 61
1, 157590, Control_c, 0, 67, 51
1, 157603, Note_off_c, 0, 69, 57
1, 157635, Control_c, 0, 67, 50
1, 157649, Control_c, 0, 67, 49
1, 157705, Note_off_c, 0, 66, 60
1, 157715, Note_on_c, 0, 60, 72
1, 157753, Control_c, 0, 67, 49
1, 157755, Note_off_c, 0, 60, 63
1, 157782, Control_c, 0, 67, 48
1, 157809, Note_off_c, 0, 87, 59
1, 157812, Control_c, 0, 67, 47
1, 157842, Control_c, 0, 67, 46
1, 157847, Note_on_c, 0, 61, 70
1, 157856, Control_c, 0, 67, 44
1, 157871, Control_c, 0, 67, 32
1, 157886, Control_c, 0, 67, 27
1, 157901, Control_c, 0, 67, 25
1, 157916, Control_c, 0, 67, 24
1, 157931, Control_c, 0, 67, 24
1, 157967, Note_on_c, 0, 54, 72
1, 158023, Note_off_c, 0, 61, 53
1, 158082, Note_on_c, 0, 49, 67
1, 158095, Control_c, 0, 67, 23
1, 158131, Note_off_c, 0, 54, 62
1, 158178, Note_off_c, 0, 49, 62
1, 158259, Note_on_c, 0, 44, 71
1, 158369, Control_c, 0, 64, 111
1, 158369, Control_c, 0, 67, 24
1, 158384, Control_c, 0, 64, 95
1, 158398, Control_c, 0, 64, 80
1, 158413, Control_c, 0, 64, 66
1, 158428, Control_c, 0, 64, 52
1, 158428, Control_c, 0, 67, 24
1, 158443, Control_c, 0, 64, 33
1, 158472, Control_c, 0, 64, 38
1, 158476, Note_on_c, 0, 54, 71
1, 158487, Control_c, 0, 64, 48
1, 158502, Control_c, 0, 64, 58
1, 158517, Control_c, 0, 64, 65
1, 158517, Control_c, 0, 67, 25
1, 158532, Control_c, 0, 64, 74
1, 158546, Control_c, 0, 64, 101
1, 158561, Control_c, 0, 64, 127
1, 158581, Note_off_c, 0, 44, 61
1, 158641, Note_off_c, 0, 54, 62
1, 158698, Note_on_c, 0, 60, 43
1, 158723, Note_on_c, 0, 89, 94
1, 158749, Note_on_c, 0, 77, 65
1, 158750, Note_on_c, 0, 80, 52
1, 158833, Note_off_c, 0, 77, 52
1, 158884, Note_off_c, 0, 89, 61
1, 158893, Note_off_c, 0, 80, 54
1, 158923, Note_off_c, 0, 60, 27
1, 158928, Note_on_c, 0, 62, 46
1, 159093, Note_on_c, 0, 87, 87
1, 159112, Note_on_c, 0, 65, 46
1, 159116, Note_on_c, 0, 75, 66
1, 159116, Note_off_c, 0, 62, 38
1, 159118, Control_c, 0, 67, 24
1, 159119, Note_on_c, 0, 78, 51
1, 159208, Note_off_c, 0, 65, 57
1, 159236, Note_on_c, 0, 63, 54
1, 159237, Note_off_c, 0, 87, 63
1, 159256, Note_off_c, 0, 75, 60
1, 159300, Note_off_c, 0, 78, 30
1, 159358, Note_off_c, 0, 63, 51
1, 159382, Note_on_c, 0, 82, 78
1, 159390, Note_on_c, 0, 72, 53
1, 159417, Note_on_c, 0, 70, 37
1, 159420, Note_on_c, 0, 78, 34
1, 159454, Note_off_c, 0, 78, 50
1, 159466, Note_off_c, 0, 70, 45
1, 159503, Note_off_c, 0, 72, 60
1, 159520, Note_on_c, 0, 66, 47
1, 159640, Note_off_c, 0, 66, 55
1, 159683, Note_on_c, 0, 62, 37
1, 159691, Note_on_c, 0, 84, 69
1, 159707, Note_on_c, 0, 78, 43
1, 159712, Note_on_c, 0, 72, 26
1, 159733, Note_off_c, 0, 82, 53
1, 159734, Note_off_c, 0, 62, 59
1, 159749, Control_c, 0, 67, 25
1, 159764, Note_off_c, 0, 72, 53
1, 159791, Note_off_c, 0, 78, 63
1, 159792, Note_off_c, 0, 84, 61
1, 159794, Control_c, 0, 67, 26
1, 159858, Note_on_c, 0, 63, 49
1, 159868, Control_c, 0, 67, 26
1, 159954, Note_off_c, 0, 63, 59
1, 160031, Control_c, 0, 67, 27
1, 160056, Note_on_c, 0, 80, 57
1, 160071, Note_on_c, 0, 54, 36
1, 160092, Note_on_c, 0, 75, 33
1, 160095, Note_on_c, 0, 68, 23
1, 160208, Note_off_c, 0, 54, 30
1, 160250, Note_on_c, 0, 44, 40
1, 160253, Control_c, 0, 67, 27
1, 160280, Note_off_c, 0, 44, 59
1, 160301, Note_off_c, 0, 68, 39
1, 160365, Control_c, 0, 67, 28
1, 160375, Note_off_c, 0, 75, 34
1, 160395, Note_off_c, 0, 80, 50
1, 160395, Control_c, 0, 67, 29
1, 160424, Control_c, 0, 64, 125
1, 160439, Control_c, 0, 64, 115
1, 160454, Control_c, 0, 64, 111
1, 160469, Control_c, 0, 64, 107
1, 160483, Control_c, 0, 64, 103
1, 160485, Note_on_c, 0, 37, 36
1, 160498, Control_c, 0, 64, 100
1, 160513, Control_c, 0, 64, 97
1, 160528, Control_c, 0, 64, 94
1, 160528, Control_c, 0, 67, 29
1, 160543, Control_c, 0, 64, 91
1, 160543, Control_c, 0, 67, 30
1, 160557, Control_c, 0, 64, 86
1, 160557, Control_c, 0, 67, 31
1, 160572, Control_c, 0, 64, 78
1, 160572, Control_c, 0, 67, 31
1, 160587, Control_c, 0, 64, 70
1, 160587, Control_c, 0, 67, 32
1, 160601, Control_c, 0, 64, 60
1, 160601, Control_c, 0, 67, 33
1, 160616, Control_c, 0, 64, 49
1, 160631, Control_c, 0, 64, 45
1, 160661, Control_c, 0, 64, 48
1, 160676, Control_c, 0, 64, 52
1, 160684, Note_on_c, 0, 44, 37
1, 160691, Control_c, 0, 64, 56
1, 160706, Control_c, 0, 64, 60
1, 160710, Note_off_c, 0, 37, 54
1, 160721, Control_c, 0, 64, 63
1, 160736, Control_c, 0, 64, 65
1, 160750, Control_c, 0, 64, 69
1, 160765, Control_c, 0, 64, 76
1, 160780, Control_c, 0, 64, 86
1, 160783, Note_off_c, 0, 44, 48
1, 160795, Control_c, 0, 64, 100
1, 160809, Control_c, 0, 64, 117
1, 160809, Control_c, 0, 67, 32
1, 160824, Control_c, 0, 64, 127
1, 160831, Note_on_c, 0, 53, 46
1, 160917, Note_off_c, 0, 53, 53
1, 160966, Note_on_c, 0, 55, 47
1, 161046, Note_off_c, 0, 55, 51
1, 161090, Control_c, 0, 67, 32
1, 161108, Note_on_c, 0, 58, 37
1, 161222, Note_on_c, 0, 56, 35
1, 161243, Note_off_c, 0, 58, 52
1, 161268, Note_off_c, 0, 56, 60
1, 161278, Note_on_c, 0, 73, 43
1, 161337, Note_off_c, 0, 73, 60
1, 161353, Note_on_c, 0, 80, 51
1, 161366, Control_c, 0, 67, 32
1, 161454, Note_on_c, 0, 68, 35
1, 161475, Note_on_c, 0, 89, 65
1, 161522, Note_off_c, 0, 80, 53
1, 161578, Note_on_c, 0, 65, 36
1, 161588, Control_c, 0, 67, 32
1, 161611, Note_off_c, 0, 68, 31
1, 161632, Control_c, 0, 67, 31
1, 161662, Control_c, 0, 67, 31
1, 161672, Note_off_c, 0, 65, 55
1, 161706, Control_c, 0, 67, 30
1, 161707, Note_on_c, 0, 60, 44
1, 161721, Control_c, 0, 67, 29
1, 161751, Control_c, 0, 67, 29
1, 161756, Note_off_c, 0, 60, 62
1, 161766, Control_c, 0, 67, 28
1, 161780, Control_c, 0, 67, 27
1, 161795, Control_c, 0, 67, 27
1, 161806, Note_off_c, 0, 89, 50
1, 161854, Note_on_c, 0, 61, 45
1, 161862, Control_c, 0, 67, 26
1, 161949, Note_off_c, 0, 61, 52
1, 161970, Note_on_c, 0, 56, 46
1, 162044, Note_off_c, 0, 56, 60
1, 162063, Note_on_c, 0, 49, 43
1, 162070, Control_c, 0, 64, 125
1, 162100, Control_c, 0, 64, 122
1, 162111, Note_off_c, 0, 49, 61
1, 162115, Control_c, 0, 64, 119
1, 162129, Control_c, 0, 64, 117
1, 162144, Control_c, 0, 64, 115
1, 162144, Control_c, 0, 67, 26
1, 162159, Control_c, 0, 64, 115
1, 162174, Control_c, 0, 64, 114
1, 162189, Control_c, 0, 64, 112
1, 162204, Control_c, 0, 64, 112
1, 162206, Note_on_c, 0, 45, 53
1, 162219, Control_c, 0, 64, 107
1, 162234, Control_c, 0, 64, 94
1, 162234, Control_c, 0, 67, 25
1, 162248, Control_c, 0, 64, 78
1, 162263, Control_c, 0, 64, 66
1, 162278, Control_c, 0, 64, 53
1, 162293, Control_c, 0, 64, 48
1, 162293, Control_c, 0, 67, 24
1, 162308, Control_c, 0, 64, 51
1, 162322, Control_c, 0, 64, 56
1, 162337, Control_c, 0, 64, 62
1, 162351, Note_on_c, 0, 52, 55
1, 162352, Control_c, 0, 64, 67
1, 162357, Note_off_c, 0, 45, 59
1, 162366, Control_c, 0, 64, 77
1, 162366, Control_c, 0, 67, 23
1, 162381, Control_c, 0, 64, 120
1, 162381, Control_c, 0, 67, 22
1, 162396, Control_c, 0, 64, 127
1, 162411, Control_c, 0, 67, 22
1, 162417, Note_off_c, 0, 52, 62
1, 162456, Control_c, 0, 67, 21
1, 162469, Note_on_c, 0, 61, 56
1, 162530, Control_c, 0, 67, 21
1, 162540, Note_off_c, 0, 61, 52
1, 162545, Control_c, 0, 67, 20
1, 162574, Note_on_c, 0, 63, 66
1, 162574, Control_c, 0, 67, 19
1, 162596, Control_c, 0, 67, 18
1, 162611, Control_c, 0, 67, 16
1, 162626, Control_c, 0, 67, 0
1, 162703, Note_on_c, 0, 66, 68
1, 162730, Note_off_c, 0, 63, 52
1, 162806, Note_on_c, 0, 64, 63
1, 162837, Note_off_c, 0, 66, 57
1, 162880, Note_on_c, 0, 73, 62
1, 162911, Note_off_c, 0, 64, 61
1, 162931, Note_on_c, 0, 69, 56
1, 162938, Note_on_c, 0, 79, 74
1, 162958, Note_off_c, 0, 73, 64
1, 163020, Note_on_c, 0, 88, 92
1, 163069, Note_on_c, 0, 64, 48
1, 163089, Note_off_c, 0, 69, 59
1, 163098, Note_off_c, 0, 79, 50
1, 163195, Note_off_c, 0, 64, 63
1, 163195, Note_on_c, 0, 60, 63
1, 163227, Note_off_c, 0, 60, 66
1, 163257, Note_off_c, 0, 88, 57
1, 163327, Note_on_c, 0, 61, 76
1, 163394, Note_off_c, 0, 61, 63
1, 163436, Note_on_c, 0, 52, 72
1, 163543, Note_on_c, 0, 45, 78
1, 163547, Note_off_c, 0, 52, 65
1, 163592, Note_off_c, 0, 45, 63
1, 163687, Control_c, 0, 64, 71
1, 163701, Control_c, 0, 64, 40
1, 163708, Note_on_c, 0, 38, 79
1, 163716, Control_c, 0, 64, 0
1, 163746, Control_c, 0, 64, 37
1, 163761, Control_c, 0, 64, 59
1, 163775, Control_c, 0, 64, 72
1, 163790, Control_c, 0, 64, 104
1, 163805, Control_c, 0, 64, 127
1, 163815, Note_off_c, 0, 38, 64
1, 163869, Note_on_c, 0, 50, 67
1, 163896, Note_off_c, 0, 50, 65
1, 164016, Note_on_c, 0, 54, 74
1, 164133, Note_on_c, 0, 60, 72
1, 164238, Note_on_c, 0, 64, 83
1, 164256, Note_off_c, 0, 54, 59
1, 164289, Note_off_c, 0, 60, 64
1, 164327, Note_on_c, 0, 72, 60
1, 164351, Note_on_c, 0, 62, 73
1, 164369, Note_off_c, 0, 64, 61
1, 164397, Note_on_c, 0, 78, 80
1, 164420, Note_off_c, 0, 62, 63
1, 164436, Note_off_c, 0, 72, 59
1, 164478, Note_on_c, 0, 86, 88
1, 164490, Note_off_c, 0, 78, 65
1, 164512, Note_on_c, 0, 69, 78
1, 164518, Note_off_c, 0, 86, 66
1, 164626, Note_on_c, 0, 66, 77
1, 164670, Note_off_c, 0, 69, 61
1, 164748, Note_on_c, 0, 59, 75
1, 164749, Note_on_c, 0, 90, 92
1, 164751, Note_on_c, 0, 78, 89
1, 164759, Note_on_c, 0, 86, 79
1, 164763, Note_off_c, 0, 66, 62
1, 164813, Note_off_c, 0, 59, 64
1, 164885, Note_off_c, 0, 86, 61
1, 164905, Note_on_c, 0, 60, 93
1, 164939, Note_off_c, 0, 78, 60
1, 164966, Note_off_c, 0, 90, 59
1, 165042, Note_on_c, 0, 93, 99
1, 165044, Note_on_c, 0, 81, 89
1, 165064, Note_on_c, 0, 54, 72
1, 165066, Note_on_c, 0, 90, 77
1, 165138, Note_off_c, 0, 60, 54
1, 165169, Note_off_c, 0, 81, 64
1, 165179, Note_on_c, 0, 50, 81
1, 165184, Note_off_c, 0, 90, 62
1, 165191, Note_off_c, 0, 54, 65
1, 165192, Note_off_c, 0, 93, 66
1, 165216, Note_off_c, 0, 50, 64
1, 165369, Note_on_c, 0, 32, 78
1, 165371, Note_on_c, 0, 94, 98
1, 165377, Note_on_c, 0, 82, 86
1, 165392, Note_on_c, 0, 90, 76
1, 165419, Control_c, 0, 64, 78
1, 165434, Control_c, 0, 64, 57
1, 165449, Control_c, 0, 64, 0
1, 165508, Control_c, 0, 64, 45
1, 165523, Control_c, 0, 64, 61
1, 165536, Note_off_c, 0, 90, 54
1, 165538, Control_c, 0, 64, 72
1, 165553, Control_c, 0, 64, 102
1, 165568, Control_c, 0, 64, 127
1, 165581, Note_off_c, 0, 32, 61
1, 165594, Note_on_c, 0, 44, 71
1, 165623, Note_off_c, 0, 82, 63
1, 165647, Note_off_c, 0, 44, 63
1, 165660, Note_off_c, 0, 94, 56
1, 165798, Note_on_c, 0, 96, 102
1, 165800, Note_on_c, 0, 54, 64
1, 165812, Note_on_c, 0, 84, 78
1, 165812, Note_on_c, 0, 90, 64
1, 165937, Note_off_c, 0, 90, 63
1, 165946, Note_off_c, 0, 84, 57
1, 165946, Note_off_c, 0, 96, 65
1, 165976, Note_on_c, 0, 60, 59
1, 166077, Note_off_c, 0, 54, 61
1, 166084, Note_off_c, 0, 60, 60
1, 166117, Note_on_c, 0, 65, 60
1, 166119, Note_on_c, 0, 92, 94
1, 166121, Note_on_c, 0, 84, 56
1, 166140, Note_on_c, 0, 80, 71
1, 166169, Note_on_c, 0, 90, 22
1, 166170, Note_off_c, 0, 90, 127
1, 166241, Note_off_c, 0, 84, 62
1, 166255, Note_on_c, 0, 63, 68
1, 166256, Note_off_c, 0, 65, 61
1, 166301, Note_off_c, 0, 92, 65
1, 166319, Note_off_c, 0, 80, 63
1, 166399, Note_on_c, 0, 89, 91
1, 166410, Note_on_c, 0, 77, 71
1, 166413, Note_off_c, 0, 63, 58
1, 166417, Note_on_c, 0, 80, 61
1, 166429, Note_on_c, 0, 68, 56
1, 166536, Note_off_c, 0, 77, 62
1, 166562, Note_on_c, 0, 66, 68
1, 166566, Note_off_c, 0, 89, 62
1, 166574, Note_off_c, 0, 80, 63
1, 166605, Note_off_c, 0, 68, 58
1, 166721, Note_on_c, 0, 59, 55
1, 166721, Note_on_c, 0, 87, 86
1, 166722, Note_off_c, 0, 66, 60
1, 166745, Note_on_c, 0, 75, 60
1, 166749, Note_on_c, 0, 78, 58
1, 166809, Note_off_c, 0, 59, 62
1, 166845, Note_off_c, 0, 87, 63
1, 166850, Note_off_c, 0, 78, 61
1, 166861, Note_off_c, 0, 75, 62
1, 166897, Note_on_c, 0, 60, 62
1, 167051, Note_off_c, 0, 60, 38
1, 167110, Note_on_c, 0, 54, 44
1, 167111, Note_on_c, 0, 80, 73
1, 167127, Note_on_c, 0, 75, 44
1, 167157, Note_on_c, 0, 68, 7
1, 167188, Note_off_c, 0, 75, 50
1, 167216, Note_off_c, 0, 68, 45
1, 167221, Note_off_c, 0, 54, 47
1, 167258, Note_on_c, 0, 44, 38
1, 167317, Note_off_c, 0, 44, 57
1, 167371, Note_on_c, 0, 68, 49
1, 167447, Note_off_c, 0, 80, 58
1, 167458, Control_c, 0, 64, 115
1, 167469, Note_on_c, 0, 77, 48
1, 167473, Control_c, 0, 64, 94
1, 167488, Control_c, 0, 64, 75
1, 167503, Control_c, 0, 64, 63
1, 167510, Note_on_c, 0, 37, 44
1, 167517, Control_c, 0, 64, 51
1, 167533, Control_c, 0, 64, 48
1, 167543, Note_off_c, 0, 68, 60
1, 167548, Control_c, 0, 64, 54
1, 167563, Control_c, 0, 64, 59
1, 167578, Control_c, 0, 64, 64
1, 167593, Control_c, 0, 64, 67
1, 167607, Control_c, 0, 64, 74
1, 167622, Control_c, 0, 64, 87
1, 167629, Note_on_c, 0, 85, 78
1, 167637, Control_c, 0, 64, 127
1, 167729, Note_on_c, 0, 44, 40
1, 167741, Note_off_c, 0, 37, 55
1, 167824, Note_off_c, 0, 44, 53
1, 167845, Note_off_c, 0, 85, 57
1, 167881, Note_off_c, 0, 77, 41
1, 167898, Note_on_c, 0, 53, 43
1, 168007, Note_off_c, 0, 53, 57
1, 168030, Note_on_c, 0, 55, 45
1, 168111, Note_off_c, 0, 55, 52
1, 168175, Note_on_c, 0, 58, 45
1, 168290, Note_off_c, 0, 58, 53
1, 168298, Note_on_c, 0, 56, 34
1, 168370, Note_on_c, 0, 68, 47
1, 168406, Note_off_c, 0, 56, 38
1, 168418, Note_on_c, 0, 65, 32
1, 168420, Note_on_c, 0, 73, 48
1, 168473, Note_off_c, 0, 68, 54
1, 168496, Note_on_c, 0, 80, 68
1, 168592, Note_on_c, 0, 61, 33
1, 168653, Note_off_c, 0, 65, 33
1, 168666, Note_off_c, 0, 61, 51
1, 168697, Note_on_c, 0, 55, 40
1, 168777, Note_off_c, 0, 55, 62
1, 168827, Note_on_c, 0, 56, 43
1, 168874, Note_off_c, 0, 56, 62
1, 168951, Note_off_c, 0, 80, 37
1, 168963, Note_on_c, 0, 53, 44
1, 168977, Note_off_c, 0, 73, 21
1, 169029, Note_off_c, 0, 53, 56
1, 169091, Note_on_c, 0, 44, 37
1, 169134, Control_c, 0, 64, 116
1, 169149, Control_c, 0, 64, 109
1, 169164, Control_c, 0, 64, 103
1, 169178, Note_off_c, 0, 44, 48
1, 169179, Control_c, 0, 64, 99
1, 169193, Control_c, 0, 64, 96
1, 169208, Control_c, 0, 64, 94
1, 169215, Note_on_c, 0, 37, 46
1, 169223, Control_c, 0, 64, 92
1, 169238, Control_c, 0, 64, 90
1, 169253, Control_c, 0, 64, 85
1, 169267, Control_c, 0, 64, 80
1, 169282, Control_c, 0, 64, 73
1, 169297, Control_c, 0, 64, 65
1, 169312, Control_c, 0, 64, 58
1, 169327, Control_c, 0, 64, 54
1, 169349, Control_c, 0, 64, 55
1, 169364, Control_c, 0, 64, 56
1, 169379, Control_c, 0, 64, 58
1, 169393, Control_c, 0, 64, 59
1, 169395, Note_on_c, 0, 44, 39
1, 169408, Control_c, 0, 64, 61
1, 169409, Note_off_c, 0, 37, 61
1, 169423, Control_c, 0, 64, 63
1, 169438, Control_c, 0, 64, 65
1, 169453, Control_c, 0, 64, 68
1, 169467, Control_c, 0, 64, 72
1, 169477, Note_off_c, 0, 44, 58
1, 169482, Control_c, 0, 64, 79
1, 169497, Control_c, 0, 64, 89
1, 169512, Control_c, 0, 64, 108
1, 169523, Note_on_c, 0, 53, 41
1, 169526, Control_c, 0, 64, 127
1, 169648, Note_off_c, 0, 53, 35
1, 169651, Note_on_c, 0, 55, 35
1, 169735, Note_off_c, 0, 55, 55
1, 169774, Note_on_c, 0, 58, 42
1, 169897, Note_off_c, 0, 58, 56
1, 169907, Note_on_c, 0, 68, 45
1, 169909, Note_on_c, 0, 56, 32
1, 169959, Note_on_c, 0, 73, 47
1, 170019, Note_off_c, 0, 56, 37
1, 170046, Note_on_c, 0, 77, 65
1, 170058, Note_on_c, 0, 65, 36
1, 170099, Note_off_c, 0, 68, 40
1, 170196, Note_on_c, 0, 61, 37
1, 170203, Note_off_c, 0, 65, 0
1, 170242, Poly_aftertouch_c, 0, 65, 0
1, 170272, Note_off_c, 0, 61, 52
1, 170295, Note_on_c, 0, 55, 38
1, 170367, Note_off_c, 0, 55, 60
1, 170429, Note_on_c, 0, 56, 35
1, 170465, Note_off_c, 0, 56, 55
1, 170546, Note_off_c, 0, 73, 25
1, 170557, Note_on_c, 0, 53, 41
1, 170563, Note_off_c, 0, 77, 46
1, 170609, Note_off_c, 0, 53, 56
1, 170632, Control_c, 0, 64, 117
1, 170647, Control_c, 0, 64, 109
1, 170661, Control_c, 0, 64, 102
1, 170674, Note_on_c, 0, 44, 37
1, 170676, Control_c, 0, 64, 98
1, 170691, Control_c, 0, 64, 96
1, 170706, Control_c, 0, 64, 93
1, 170721, Control_c, 0, 64, 90
1, 170737, Control_c, 0, 64, 87
1, 170749, Note_off_c, 0, 44, 51
1, 170751, Control_c, 0, 64, 84
1, 170766, Control_c, 0, 64, 82
1, 170781, Control_c, 0, 64, 80
1, 170796, Control_c, 0, 64, 79
1, 170801, Note_on_c, 0, 37, 39
1, 170811, Control_c, 0, 64, 78
1, 170832, Control_c, 0, 64, 76
1, 170847, Control_c, 0, 64, 74
1, 170862, Control_c, 0, 64, 70
1, 170877, Control_c, 0, 64, 66
1, 170892, Control_c, 0, 64, 62
1, 170906, Control_c, 0, 64, 59
1, 170921, Control_c, 0, 64, 58
1, 170951, Control_c, 0, 64, 57
1, 170979, Note_on_c, 0, 44, 41
1, 170981, Control_c, 0, 64, 58
1, 170989, Note_off_c, 0, 37, 60
1, 170996, Control_c, 0, 64, 61
1, 171011, Control_c, 0, 64, 64
1, 171026, Control_c, 0, 64, 68
1, 171040, Control_c, 0, 64, 74
1, 171055, Control_c, 0, 64, 83
1, 171055, Note_off_c, 0, 44, 56
1, 171070, Control_c, 0, 64, 95
1, 171084, Control_c, 0, 64, 116
1, 171099, Control_c, 0, 64, 127
1, 171127, Note_on_c, 0, 53, 38
1, 171195, Note_off_c, 0, 53, 49
1, 171264, Note_on_c, 0, 55, 29
1, 171336, Control_c, 0, 64, 122
1, 171345, Note_off_c, 0, 55, 50
1, 171351, Control_c, 0, 64, 116
1, 171366, Control_c, 0, 64, 112
1, 171380, Control_c, 0, 64, 109
1, 171395, Control_c, 0, 64, 107
1, 171410, Note_on_c, 0, 58, 29
1, 171410, Control_c, 0, 64, 106
1, 171425, Control_c, 0, 64, 106
1, 171532, Note_on_c, 0, 56, 32
1, 171557, Note_off_c, 0, 58, 37
1, 171566, Note_on_c, 0, 68, 44
1, 171581, Control_c, 0, 64, 106
1, 171596, Control_c, 0, 64, 107
1, 171611, Control_c, 0, 64, 108
1, 171626, Control_c, 0, 64, 109
1, 171641, Control_c, 0, 64, 109
1, 171654, Note_off_c, 0, 56, 33
1, 171655, Note_on_c, 0, 73, 56
1, 171655, Control_c, 0, 64, 110
1, 171670, Control_c, 0, 64, 112
1, 171685, Note_on_c, 0, 65, 31
1, 171685, Control_c, 0, 64, 115
1, 171700, Control_c, 0, 64, 119
1, 171714, Control_c, 0, 64, 127
1, 171841, Note_on_c, 0, 61, 36
1, 171871, Note_off_c, 0, 65, 39
1, 171875, Note_off_c, 0, 68, 33
1, 171906, Note_off_c, 0, 61, 50
1, 171951, Note_on_c, 0, 55, 35
1, 172022, Note_off_c, 0, 73, 54
1, 172041, Note_off_c, 0, 55, 59
1, 172087, Note_on_c, 0, 56, 37
1, 172145, Note_off_c, 0, 56, 54
1, 172247, Note_on_c, 0, 53, 36
1, 172370, Note_off_c, 0, 53, 36
1, 172421, Note_on_c, 0, 44, 28
1, 172558, Note_off_c, 0, 44, 33
1, 172582, Control_c, 0, 64, 115
1, 172597, Control_c, 0, 64, 111
1, 172612, Control_c, 0, 64, 107
1, 172626, Control_c, 0, 64, 103
1, 172641, Control_c, 0, 64, 100
1, 172656, Control_c, 0, 64, 98
1, 172671, Note_on_c, 0, 37, 30
1, 172671, Control_c, 0, 64, 96
1, 172686, Control_c, 0, 64, 94
1, 172692, Note_on_c, 0, 53, 40
1, 172701, Control_c, 0, 64, 92
1, 172716, Control_c, 0, 64, 90
1, 172730, Control_c, 0, 64, 87
1, 172745, Control_c, 0, 64, 83
1, 172760, Control_c, 0, 64, 79
1, 172775, Control_c, 0, 64, 74
1, 172790, Control_c, 0, 64, 69
1, 172804, Control_c, 0, 64, 66
1, 172834, Control_c, 0, 64, 67
1, 172849, Control_c, 0, 64, 68
1, 172863, Control_c, 0, 64, 69
1, 172878, Control_c, 0, 64, 71
1, 172893, Control_c, 0, 64, 73
1, 172901, Note_on_c, 0, 56, 25
1, 172905, Note_on_c, 0, 44, 24
1, 172908, Control_c, 0, 64, 76
1, 172918, Note_off_c, 0, 53, 37
1, 172919, Note_off_c, 0, 37, 41
1, 172923, Control_c, 0, 64, 80
1, 172937, Control_c, 0, 64, 84
1, 172952, Control_c, 0, 64, 90
1, 172967, Control_c, 0, 64, 96
1, 172982, Control_c, 0, 64, 102
1, 172997, Control_c, 0, 64, 104
1, 173007, Note_off_c, 0, 44, 34
1, 173041, Note_off_c, 0, 56, 43
1, 173056, Control_c, 0, 64, 102
1, 173057, Note_on_c, 0, 61, 38
1, 173068, Note_on_c, 0, 53, 42
1, 173071, Control_c, 0, 64, 102
1, 173093, Control_c, 0, 64, 101
1, 173107, Note_off_c, 0, 61, 57
1, 173108, Control_c, 0, 64, 100
1, 173123, Control_c, 0, 64, 99
1, 173130, Note_off_c, 0, 53, 48
1, 173139, Control_c, 0, 64, 98
1, 173153, Control_c, 0, 64, 97
1, 173168, Control_c, 0, 64, 96
1, 173183, Control_c, 0, 64, 95
1, 173193, Note_on_c, 0, 64, 46
1, 173198, Control_c, 0, 64, 94
1, 173200, Note_on_c, 0, 55, 39
1, 173213, Control_c, 0, 64, 94
1, 173228, Control_c, 0, 64, 92
1, 173242, Control_c, 0, 64, 91
1, 173246, Note_off_c, 0, 64, 57
1, 173255, Note_off_c, 0, 55, 44
1, 173257, Control_c, 0, 64, 90
1, 173272, Control_c, 0, 64, 88
1, 173287, Control_c, 0, 64, 87
1, 173301, Control_c, 0, 64, 85
1, 173316, Control_c, 0, 64, 84
1, 173321, Note_on_c, 0, 58, 43
1, 173321, Note_on_c, 0, 66, 40
1, 173331, Control_c, 0, 64, 83
1, 173346, Control_c, 0, 64, 82
1, 173360, Control_c, 0, 64, 81
1, 173375, Control_c, 0, 64, 79
1, 173376, Note_off_c, 0, 66, 42
1, 173384, Note_off_c, 0, 58, 53
1, 173390, Control_c, 0, 64, 78
1, 173405, Control_c, 0, 64, 76
1, 173409, Note_on_c, 0, 65, 47
1, 173420, Control_c, 0, 64, 74
1, 173429, Note_on_c, 0, 56, 36
1, 173434, Control_c, 0, 64, 73
1, 173449, Control_c, 0, 64, 71
1, 173464, Control_c, 0, 64, 69
1, 173479, Control_c, 0, 64, 67
1, 173487, Note_off_c, 0, 56, 54
1, 173490, Note_off_c, 0, 65, 0
1, 173494, Control_c, 0, 64, 65
1, 173509, Control_c, 0, 64, 64
1, 173527, Poly_aftertouch_c, 0, 65, 127
1, 173529, Note_on_c, 0, 65, 14
1, 173536, Note_on_c, 0, 73, 50
1, 173539, Control_c, 0, 64, 65
1, 173553, Control_c, 0, 64, 65
1, 173568, Control_c, 0, 64, 66
1, 173583, Control_c, 0, 64, 68
1, 173598, Control_c, 0, 64, 70
1, 173613, Control_c, 0, 64, 72
1, 173627, Control_c, 0, 64, 76
1, 173636, Note_off_c, 0, 73, 59
1, 173642, Control_c, 0, 64, 82
1, 173645, Note_off_c, 0, 65, 36
1, 173646, Note_on_c, 0, 61, 37
1, 173657, Control_c, 0, 64, 90
1, 173661, Note_on_c, 0, 68, 50
1, 173671, Control_c, 0, 64, 102
1, 173686, Control_c, 0, 64, 127
1, 173714, Note_off_c, 0, 61, 53
1, 173716, Control_c, 0, 67, 22
1, 173719, Note_off_c, 0, 68, 55
1, 173731, Control_c, 0, 67, 37
1, 173746, Control_c, 0, 67, 50
1, 173760, Note_on_c, 0, 64, 50
1, 173760, Control_c, 0, 67, 57
1, 173775, Control_c, 0, 67, 60
1, 173778, Note_on_c, 0, 55, 21
1, 173790, Control_c, 0, 67, 61
1, 173803, Note_off_c, 0, 64, 60
1, 173828, Note_off_c, 0, 55, 51
1, 173865, Note_on_c, 0, 56, 40
1, 173880, Note_on_c, 0, 65, 49
1, 173911, Note_off_c, 0, 56, 61
1, 173932, Control_c, 0, 64, 125
1, 173947, Control_c, 0, 64, 119
1, 173962, Control_c, 0, 64, 115
1, 173977, Control_c, 0, 64, 112
1, 173977, Control_c, 0, 67, 61
1, 173980, Note_off_c, 0, 65, 53
1, 173986, Note_on_c, 0, 53, 44
1, 173991, Control_c, 0, 64, 110
1, 173998, Note_on_c, 0, 61, 44
1, 174006, Control_c, 0, 64, 108
1, 174006, Control_c, 0, 67, 60
1, 174016, Note_off_c, 0, 53, 57
1, 174021, Control_c, 0, 64, 105
1, 174036, Control_c, 0, 64, 103
1, 174036, Control_c, 0, 67, 59
1, 174051, Control_c, 0, 64, 100
1, 174065, Control_c, 0, 64, 98
1, 174065, Control_c, 0, 67, 59
1, 174080, Control_c, 0, 64, 95
1, 174093, Note_on_c, 0, 44, 38
1, 174095, Control_c, 0, 64, 92
1, 174107, Note_on_c, 0, 56, 48
1, 174109, Control_c, 0, 64, 89
1, 174109, Control_c, 0, 67, 58
1, 174120, Note_off_c, 0, 61, 38
1, 174124, Control_c, 0, 64, 86
1, 174139, Control_c, 0, 64, 82
1, 174154, Control_c, 0, 64, 77
1, 174154, Control_c, 0, 67, 57
1, 174157, Note_off_c, 0, 44, 55
1, 174169, Control_c, 0, 64, 70
1, 174183, Control_c, 0, 64, 63
1, 174198, Control_c, 0, 64, 52
1, 174198, Control_c, 0, 67, 57
1, 174206, Note_off_c, 0, 56, 57
1, 174213, Control_c, 0, 64, 50
1, 174219, Note_on_c, 0, 37, 39
1, 174228, Note_on_c, 0, 53, 41
1, 174228, Control_c, 0, 64, 52
1, 174243, Control_c, 0, 64, 54
1, 174243, Control_c, 0, 67, 56
1, 174257, Control_c, 0, 64, 57
1, 174272, Control_c, 0, 64, 61
1, 174287, Control_c, 0, 64, 63
1, 174302, Control_c, 0, 64, 66
1, 174317, Control_c, 0, 64, 70
1, 174327, Note_off_c, 0, 37, 58
1, 174332, Control_c, 0, 64, 76
1, 174332, Control_c, 0, 67, 56
1, 174346, Control_c, 0, 64, 82
1, 174346, Control_c, 0, 67, 55
1, 174349, Note_on_c, 0, 44, 35
1, 174350, Note_off_c, 0, 53, 37
1, 174354, Note_on_c, 0, 56, 45
1, 174361, Control_c, 0, 64, 87
1, 174376, Control_c, 0, 64, 91
1, 174376, Control_c, 0, 67, 54
1, 174391, Control_c, 0, 64, 92
1, 174391, Note_off_c, 0, 44, 53
1, 174410, Note_off_c, 0, 56, 58
1, 174450, Control_c, 0, 64, 91
1, 174463, Note_on_c, 0, 61, 33
1, 174465, Control_c, 0, 64, 90
1, 174470, Note_on_c, 0, 53, 33
1, 174480, Control_c, 0, 64, 90
1, 174480, Control_c, 0, 67, 54
1, 174494, Control_c, 0, 64, 89
1, 174495, Note_off_c, 0, 61, 50
1, 174509, Control_c, 0, 64, 88
1, 174524, Control_c, 0, 64, 87
1, 174526, Note_off_c, 0, 53, 44
1, 174539, Control_c, 0, 64, 86
1, 174554, Control_c, 0, 64, 86
1, 174576, Note_on_c, 0, 55, 43
1, 174576, Control_c, 0, 64, 85
1, 174591, Control_c, 0, 64, 84
1, 174606, Control_c, 0, 64, 84
1, 174621, Control_c, 0, 64, 83
1, 174624, Note_off_c, 0, 55, 44
1, 174636, Control_c, 0, 64, 82
1, 174650, Control_c, 0, 64, 82
1, 174665, Control_c, 0, 64, 81
1, 174680, Control_c, 0, 64, 81
1, 174686, Note_on_c, 0, 66, 35
1, 174698, Note_on_c, 0, 58, 44
1, 174724, Control_c, 0, 64, 80
1, 174731, Note_off_c, 0, 66, 45
1, 174754, Note_off_c, 0, 58, 59
1, 174755, Control_c, 0, 64, 80
1, 174770, Control_c, 0, 64, 79
1, 174772, Note_on_c, 0, 65, 37
1, 174800, Control_c, 0, 64, 79
1, 174806, Note_on_c, 0, 56, 39
1, 174814, Control_c, 0, 64, 78
1, 174823, Note_off_c, 0, 65, 42
1, 174829, Control_c, 0, 64, 77
1, 174844, Control_c, 0, 64, 76
1, 174850, Note_off_c, 0, 56, 46
1, 174859, Control_c, 0, 64, 75
1, 174859, Control_c, 0, 67, 54
1, 174874, Control_c, 0, 64, 74
1, 174888, Note_on_c, 0, 73, 47
1, 174888, Control_c, 0, 64, 73
1, 174888, Control_c, 0, 67, 55
1, 174903, Control_c, 0, 64, 72
1, 174910, Note_on_c, 0, 65, 8
1, 174918, Control_c, 0, 64, 72
1, 174932, Control_c, 0, 64, 71
1, 174932, Control_c, 0, 67, 56
1, 174949, Note_off_c, 0, 73, 57
1, 174961, Note_off_c, 0, 65, 45
1, 174962, Control_c, 0, 64, 72
1, 174977, Control_c, 0, 64, 73
1, 174992, Control_c, 0, 64, 74
1, 174995, Note_on_c, 0, 68, 43
1, 175006, Control_c, 0, 64, 76
1, 175016, Note_on_c, 0, 61, 16
1, 175021, Control_c, 0, 64, 78
1, 175036, Control_c, 0, 64, 81
1, 175036, Control_c, 0, 67, 56
1, 175051, Control_c, 0, 64, 84
1, 175060, Note_off_c, 0, 61, 50
1, 175062, Note_off_c, 0, 68, 51
1, 175066, Control_c, 0, 64, 84
1, 175089, Note_on_c, 0, 64, 52
1, 175100, Note_on_c, 0, 55, 37
1, 175149, Note_off_c, 0, 64, 59
1, 175157, Note_off_c, 0, 55, 48
1, 175184, Note_on_c, 0, 65, 53
1, 175184, Control_c, 0, 64, 84
1, 175189, Note_on_c, 0, 56, 42
1, 175214, Control_c, 0, 64, 83
1, 175229, Control_c, 0, 64, 83
1, 175244, Control_c, 0, 64, 82
1, 175244, Control_c, 0, 67, 56
1, 175270, Note_off_c, 0, 56, 54
1, 175273, Control_c, 0, 64, 82
1, 175278, Note_off_c, 0, 65, 47
1, 175288, Control_c, 0, 64, 81
1, 175297, Note_on_c, 0, 68, 55
1, 175300, Note_on_c, 0, 61, 46
1, 175303, Control_c, 0, 64, 81
1, 175339, Control_c, 0, 64, 80
1, 175348, Note_off_c, 0, 61, 63
1, 175354, Control_c, 0, 64, 80
1, 175354, Control_c, 0, 67, 55
1, 175369, Control_c, 0, 64, 79
1, 175384, Control_c, 0, 64, 78
1, 175394, Note_off_c, 0, 68, 56
1, 175399, Control_c, 0, 64, 78
1, 175399, Note_on_c, 0, 73, 59
1, 175414, Control_c, 0, 64, 77
1, 175419, Note_on_c, 0, 65, 45
1, 175428, Control_c, 0, 64, 76
1, 175443, Control_c, 0, 64, 75
1, 175458, Control_c, 0, 64, 74
1, 175473, Control_c, 0, 64, 73
1, 175473, Note_off_c, 0, 65, 57
1, 175488, Control_c, 0, 64, 72
1, 175500, Note_on_c, 0, 77, 65
1, 175503, Control_c, 0, 64, 70
1, 175518, Control_c, 0, 64, 68
1, 175522, Note_on_c, 0, 68, 42
1, 175525, Note_off_c, 0, 73, 34
1, 175533, Control_c, 0, 64, 66
1, 175548, Control_c, 0, 64, 64
1, 175563, Control_c, 0, 64, 64
1, 175563, Control_c, 0, 67, 54
1, 175592, Control_c, 0, 64, 64
1, 175594, Note_off_c, 0, 68, 59
1, 175607, Control_c, 0, 64, 65
1, 175611, Note_on_c, 0, 65, 49
1, 175622, Control_c, 0, 64, 66
1, 175622, Control_c, 0, 67, 54
1, 175626, Note_on_c, 0, 73, 58
1, 175637, Control_c, 0, 64, 67
1, 175649, Note_off_c, 0, 77, 54
1, 175652, Control_c, 0, 64, 68
1, 175652, Control_c, 0, 67, 53
1, 175667, Control_c, 0, 64, 69
1, 175680, Control_c, 0, 64, 71
1, 175680, Control_c, 0, 67, 52
1, 175694, Note_off_c, 0, 65, 56
1, 175695, Control_c, 0, 64, 73
1, 175709, Control_c, 0, 64, 76
1, 175715, Note_on_c, 0, 61, 51
1, 175715, Note_off_c, 0, 73, 57
1, 175721, Note_on_c, 0, 67, 62
1, 175724, Control_c, 0, 64, 79
1, 175739, Control_c, 0, 64, 82
1, 175753, Control_c, 0, 64, 86
1, 175768, Control_c, 0, 64, 91
1, 175783, Control_c, 0, 64, 94
1, 175798, Control_c, 0, 64, 95
1, 175822, Note_on_c, 0, 68, 66
1, 175834, Note_on_c, 0, 64, 55
1, 175849, Note_off_c, 0, 67, 39
1, 175902, Control_c, 0, 64, 94
1, 175917, Control_c, 0, 64, 94
1, 175923, Note_off_c, 0, 61, 29
1, 175932, Control_c, 0, 64, 93
1, 175939, Note_on_c, 0, 73, 65
1, 175939, Note_off_c, 0, 68, 60
1, 175943, Note_on_c, 0, 65, 48
1, 175946, Control_c, 0, 64, 92
1, 175961, Control_c, 0, 64, 92
1, 175963, Note_off_c, 0, 64, 48
1, 175976, Control_c, 0, 64, 91
1, 175991, Control_c, 0, 64, 90
1, 176006, Control_c, 0, 64, 89
1, 176020, Control_c, 0, 64, 88
1, 176035, Control_c, 0, 64, 86
1, 176050, Control_c, 0, 64, 85
1, 176051, Note_on_c, 0, 68, 41
1, 176065, Note_on_c, 0, 77, 69
1, 176065, Control_c, 0, 64, 84
1, 176081, Note_off_c, 0, 73, 61
1, 176084, Note_off_c, 0, 65, 50
1, 176087, Control_c, 0, 64, 82
1, 176102, Control_c, 0, 64, 80
1, 176117, Control_c, 0, 64, 79
1, 176132, Control_c, 0, 64, 77
1, 176147, Control_c, 0, 64, 76
1, 176161, Control_c, 0, 64, 74
1, 176176, Control_c, 0, 64, 73
1, 176191, Control_c, 0, 64, 72
1, 176206, Control_c, 0, 64, 71
1, 176220, Control_c, 0, 64, 69
1, 176235, Control_c, 0, 64, 68
1, 176250, Control_c, 0, 64, 67
1, 176258, Note_off_c, 0, 77, 56
1, 176265, Control_c, 0, 64, 66
1, 176274, Note_on_c, 0, 69, 38
1, 176279, Control_c, 0, 64, 66
1, 176280, Note_on_c, 0, 78, 50
1, 176288, Note_off_c, 0, 68, 33
1, 176294, Control_c, 0, 64, 65
1, 176309, Control_c, 0, 64, 65
1, 176325, Control_c, 0, 64, 64
1, 176340, Control_c, 0, 64, 64
1, 176355, Control_c, 0, 64, 63
1, 176369, Control_c, 0, 64, 62
1, 176384, Control_c, 0, 64, 60
1, 176399, Control_c, 0, 64, 59
1, 176414, Control_c, 0, 64, 58
1, 176444, Note_off_c, 0, 78, 50
1, 176445, Note_on_c, 0, 73, 42
1, 176452, Note_on_c, 0, 66, 31
1, 176458, Control_c, 0, 64, 58
1, 176473, Control_c, 0, 64, 60
1, 176486, Note_off_c, 0, 69, 31
1, 176488, Control_c, 0, 64, 62
1, 176502, Control_c, 0, 64, 63
1, 176517, Control_c, 0, 64, 65
1, 176532, Control_c, 0, 64, 67
1, 176547, Control_c, 0, 64, 69
1, 176562, Control_c, 0, 64, 72
1, 176576, Control_c, 0, 64, 77
1, 176577, Note_on_c, 0, 60, 36
1, 176591, Control_c, 0, 64, 83
1, 176599, Note_on_c, 0, 68, 40
1, 176600, Note_off_c, 0, 66, 22
1, 176606, Control_c, 0, 64, 90
1, 176621, Control_c, 0, 64, 101
1, 176636, Control_c, 0, 64, 108
1, 176651, Control_c, 0, 64, 111
1, 176667, Note_off_c, 0, 68, 62
1, 176674, Note_off_c, 0, 73, 25
1, 176695, Control_c, 0, 64, 110
1, 176710, Control_c, 0, 64, 109
1, 176725, Control_c, 0, 64, 107
1, 176728, Note_on_c, 0, 69, 56
1, 176740, Control_c, 0, 64, 106
1, 176747, Note_on_c, 0, 61, 41
1, 176755, Control_c, 0, 64, 104
1, 176764, Note_off_c, 0, 60, 29
1, 176769, Control_c, 0, 64, 102
1, 176774, Note_off_c, 0, 69, 54
1, 176784, Control_c, 0, 64, 101
1, 176799, Control_c, 0, 64, 98
1, 176814, Control_c, 0, 64, 96
1, 176836, Control_c, 0, 64, 95
1, 176850, Control_c, 0, 64, 93
1, 176865, Control_c, 0, 64, 90
1, 176880, Control_c, 0, 64, 87
1, 176895, Control_c, 0, 64, 79
1, 176910, Control_c, 0, 64, 71
1, 176925, Control_c, 0, 64, 63
1, 176930, Note_on_c, 0, 66, 30
1, 176934, Note_on_c, 0, 81, 59
1, 176940, Control_c, 0, 64, 56
1, 176947, Note_on_c, 0, 73, 45
1, 176955, Control_c, 0, 64, 57
1, 176958, Note_off_c, 0, 61, 38
1, 176969, Control_c, 0, 64, 59
1, 176984, Control_c, 0, 64, 61
1, 176984, Control_c, 0, 67, 53
1, 176999, Control_c, 0, 64, 63
1, 177014, Control_c, 0, 64, 65
1, 177014, Control_c, 0, 67, 54
1, 177029, Control_c, 0, 64, 67
1, 177044, Control_c, 0, 64, 70
1, 177058, Control_c, 0, 64, 74
1, 177073, Control_c, 0, 64, 79
1, 177088, Control_c, 0, 64, 84
1, 177102, Control_c, 0, 64, 86
1, 177104, Note_off_c, 0, 66, 42
1, 177122, Note_on_c, 0, 69, 39
1, 177128, Note_off_c, 0, 81, 61
1, 177130, Note_on_c, 0, 75, 43
1, 177130, Note_off_c, 0, 73, 41
1, 177170, Note_off_c, 0, 75, 45
1, 177208, Control_c, 0, 64, 86
1, 177223, Control_c, 0, 64, 85
1, 177237, Note_off_c, 0, 69, 32
1, 177238, Control_c, 0, 64, 85
1, 177253, Control_c, 0, 64, 84
1, 177267, Control_c, 0, 64, 83
1, 177282, Control_c, 0, 64, 83
1, 177282, Control_c, 0, 67, 54
1, 177297, Control_c, 0, 64, 82
1, 177312, Control_c, 0, 64, 82
1, 177326, Control_c, 0, 64, 81
1, 177341, Control_c, 0, 64, 79
1, 177354, Note_on_c, 0, 61, 27
1, 177356, Control_c, 0, 64, 76
1, 177361, Note_on_c, 0, 68, 27
1, 177371, Note_on_c, 0, 77, 41
1, 177371, Control_c, 0, 64, 72
1, 177374, Note_on_c, 0, 85, 53
1, 177386, Control_c, 0, 64, 66
1, 177400, Control_c, 0, 64, 61
1, 177415, Control_c, 0, 64, 57
1, 177430, Control_c, 0, 64, 57
1, 177445, Control_c, 0, 64, 59
1, 177460, Control_c, 0, 64, 61
1, 177474, Control_c, 0, 64, 62
1, 177486, Note_off_c, 0, 77, 54
1, 177489, Control_c, 0, 64, 64
1, 177504, Control_c, 0, 64, 66
1, 177518, Control_c, 0, 64, 68
1, 177533, Control_c, 0, 64, 71
1, 177548, Control_c, 0, 64, 77
1, 177563, Control_c, 0, 64, 84
1, 177586, Control_c, 0, 64, 91
1, 177590, Note_on_c, 0, 73, 38
1, 177590, Note_on_c, 0, 80, 41
1, 177596, Note_off_c, 0, 68, 40
1, 177600, Control_c, 0, 64, 98
1, 177615, Control_c, 0, 64, 104
1, 177630, Control_c, 0, 64, 107
1, 177643, Note_off_c, 0, 85, 56
1, 177667, Note_off_c, 0, 73, 58
1, 177676, Note_off_c, 0, 80, 56
1, 177725, Note_on_c, 0, 68, 46
1, 177733, Control_c, 0, 64, 106
1, 177735, Note_on_c, 0, 77, 48
1, 177736, Note_off_c, 0, 61, 40
1, 177748, Control_c, 0, 64, 105
1, 177754, Note_off_c, 0, 68, 58
1, 177763, Control_c, 0, 64, 104
1, 177776, Note_off_c, 0, 77, 61
1, 177778, Control_c, 0, 64, 104
1, 177793, Control_c, 0, 64, 103
1, 177807, Control_c, 0, 64, 103
1, 177837, Control_c, 0, 64, 102
1, 177852, Control_c, 0, 64, 102
1, 177861, Note_on_c, 0, 65, 43
1, 177862, Note_on_c, 0, 73, 40
1, 177867, Control_c, 0, 64, 101
1, 177882, Control_c, 0, 64, 101
1, 177897, Control_c, 0, 64, 100
1, 177906, Note_off_c, 0, 65, 57
1, 177912, Control_c, 0, 64, 100
1, 177912, Control_c, 0, 67, 54
1, 177927, Control_c, 0, 64, 99
1, 177941, Control_c, 0, 64, 98
1, 177956, Control_c, 0, 64, 98
1, 177962, Note_off_c, 0, 73, 56
1, 177964, Note_on_c, 0, 61, 38
1, 177971, Control_c, 0, 64, 97
1, 177986, Note_on_c, 0, 68, 46
1, 177986, Control_c, 0, 64, 96
1, 178016, Control_c, 0, 64, 95
1, 178018, Note_off_c, 0, 61, 52
1, 178077, Note_off_c, 0, 68, 38
1, 178083, Note_on_c, 0, 56, 41
1, 178099, Note_on_c, 0, 65, 43
1, 178171, Note_off_c, 0, 56, 46
1, 178196, Note_off_c, 0, 65, 39
1, 178202, Note_on_c, 0, 61, 32
1, 178219, Note_on_c, 0, 68, 40
1, 178243, Note_off_c, 0, 61, 49
1, 178268, Control_c, 0, 67, 53
1, 178281, Note_off_c, 0, 68, 46
1, 178297, Control_c, 0, 67, 52
1, 178306, Note_on_c, 0, 73, 52
1, 178320, Note_on_c, 0, 65, 26
1, 178342, Note_off_c, 0, 73, 60
1, 178349, Control_c, 0, 64, 95
1, 178349, Control_c, 0, 67, 52
1, 178362, Note_off_c, 0, 65, 51
1, 178364, Control_c, 0, 64, 94
1, 178409, Control_c, 0, 64, 94
1, 178423, Control_c, 0, 64, 93
1, 178427, Note_on_c, 0, 76, 58
1, 178429, Note_on_c, 0, 67, 47
1, 178438, Control_c, 0, 64, 93
1, 178468, Control_c, 0, 64, 92
1, 178475, Note_off_c, 0, 67, 58
1, 178483, Control_c, 0, 64, 91
1, 178487, Note_off_c, 0, 76, 56
1, 178497, Control_c, 0, 64, 91
1, 178512, Control_c, 0, 64, 90
1, 178522, Note_on_c, 0, 68, 47
1, 178523, Note_on_c, 0, 77, 59
1, 178527, Control_c, 0, 64, 89
1, 178542, Control_c, 0, 64, 88
1, 178556, Control_c, 0, 64, 87
1, 178571, Control_c, 0, 64, 86
1, 178586, Control_c, 0, 64, 86
1, 178601, Control_c, 0, 64, 85
1, 178603, Note_off_c, 0, 68, 58
1, 178616, Control_c, 0, 64, 84
1, 178630, Control_c, 0, 64, 84
1, 178632, Note_on_c, 0, 73, 52
1, 178637, Note_on_c, 0, 80, 57
1, 178642, Note_off_c, 0, 77, 36
1, 178671, Note_off_c, 0, 73, 63
1, 178693, Note_off_c, 0, 80, 57
1, 178717, Note_on_c, 0, 85, 50
1, 178754, Note_on_c, 0, 77, 51
1, 178804, Note_off_c, 0, 77, 56
1, 178811, Note_off_c, 0, 85, 48
1, 178839, Note_on_c, 0, 89, 63
1, 178843, Note_on_c, 0, 80, 48
1, 178890, Note_off_c, 0, 80, 45
1, 178944, Note_on_c, 0, 85, 60
1, 178949, Note_on_c, 0, 77, 46
1, 178958, Control_c, 0, 67, 51
1, 178976, Note_off_c, 0, 89, 51
1, 179001, Note_off_c, 0, 77, 42
1, 179048, Note_on_c, 0, 79, 61
1, 179049, Note_on_c, 0, 73, 51
1, 179051, Note_off_c, 0, 85, 61
1, 179159, Note_on_c, 0, 80, 68
1, 179168, Note_on_c, 0, 76, 50
1, 179172, Control_c, 0, 67, 51
1, 179194, Note_off_c, 0, 79, 38
1, 179245, Note_off_c, 0, 73, 32
1, 179292, Note_on_c, 0, 85, 68
1, 179302, Note_on_c, 0, 77, 46
1, 179307, Note_off_c, 0, 80, 62
1, 179309, Note_off_c, 0, 76, 53
1, 179412, Note_on_c, 0, 80, 44
1, 179423, Note_off_c, 0, 77, 56
1, 179424, Note_on_c, 0, 89, 73
1, 179430, Note_off_c, 0, 85, 62
1, 179468, Control_c, 0, 67, 51
1, 179471, Note_off_c, 0, 80, 60
1, 179483, Control_c, 0, 64, 83
1, 179528, Control_c, 0, 64, 83
1, 179542, Control_c, 0, 64, 82
1, 179557, Control_c, 0, 64, 82
1, 179572, Control_c, 0, 64, 81
1, 179587, Control_c, 0, 64, 80
1, 179602, Control_c, 0, 64, 78
1, 179617, Control_c, 0, 64, 77
1, 179620, Note_on_c, 0, 82, 38
1, 179627, Note_on_c, 0, 90, 59
1, 179632, Control_c, 0, 64, 76
1, 179646, Control_c, 0, 64, 75
1, 179661, Control_c, 0, 64, 74
1, 179671, Note_off_c, 0, 89, 55
1, 179676, Control_c, 0, 64, 73
1, 179676, Control_c, 0, 67, 52
1, 179691, Control_c, 0, 64, 71
1, 179706, Control_c, 0, 64, 69
1, 179721, Control_c, 0, 64, 67
1, 179736, Control_c, 0, 64, 65
1, 179750, Control_c, 0, 64, 62
1, 179765, Control_c, 0, 64, 59
1, 179780, Control_c, 0, 64, 57
1, 179793, Note_on_c, 0, 78, 41
1, 179794, Control_c, 0, 67, 52
1, 179823, Note_on_c, 0, 85, 40
1, 179831, Control_c, 0, 64, 57
1, 179846, Control_c, 0, 64, 58
1, 179861, Control_c, 0, 64, 60
1, 179876, Control_c, 0, 64, 62
1, 179891, Control_c, 0, 64, 63
1, 179901, Note_off_c, 0, 90, 48
1, 179906, Control_c, 0, 64, 65
1, 179920, Control_c, 0, 64, 67
1, 179920, Control_c, 0, 67, 53
1, 179927, Note_off_c, 0, 82, 42
1, 179935, Control_c, 0, 64, 70
1, 179948, Note_off_c, 0, 85, 56
1, 179950, Control_c, 0, 64, 74
1, 179964, Note_on_c, 0, 81, 50
1, 179965, Control_c, 0, 64, 80
1, 179971, Note_on_c, 0, 72, 25
1, 179980, Control_c, 0, 64, 86
1, 179983, Note_off_c, 0, 78, 36
1, 179994, Control_c, 0, 64, 91
1, 180009, Control_c, 0, 64, 93
1, 180094, Note_off_c, 0, 81, 59
1, 180114, Note_on_c, 0, 82, 50
1, 180117, Note_on_c, 0, 73, 42
1, 180127, Control_c, 0, 64, 93
1, 180135, Note_off_c, 0, 82, 59
1, 180138, Note_off_c, 0, 72, 41
1, 180142, Control_c, 0, 64, 92
1, 180157, Control_c, 0, 64, 91
1, 180172, Control_c, 0, 64, 91
1, 180186, Control_c, 0, 64, 90
1, 180201, Control_c, 0, 64, 89
1, 180216, Control_c, 0, 64, 88
1, 180231, Control_c, 0, 64, 87
1, 180246, Control_c, 0, 64, 86
1, 180261, Control_c, 0, 64, 84
1, 180275, Control_c, 0, 64, 83
1, 180290, Control_c, 0, 64, 81
1, 180305, Control_c, 0, 64, 80
1, 180321, Control_c, 0, 64, 77
1, 180326, Note_on_c, 0, 94, 65
1, 180330, Note_on_c, 0, 78, 35
1, 180336, Control_c, 0, 64, 73
1, 180347, Note_on_c, 0, 85, 44
1, 180351, Control_c, 0, 64, 69
1, 180351, Control_c, 0, 67, 52
1, 180365, Control_c, 0, 64, 65
1, 180380, Control_c, 0, 64, 63
1, 180395, Control_c, 0, 64, 63
1, 180410, Control_c, 0, 64, 63
1, 180424, Control_c, 0, 64, 64
1, 180439, Control_c, 0, 64, 65
1, 180454, Control_c, 0, 64, 67
1, 180469, Control_c, 0, 64, 69
1, 180484, Control_c, 0, 64, 73
1, 180499, Control_c, 0, 64, 78
1, 180514, Control_c, 0, 64, 85
1, 180529, Control_c, 0, 64, 96
1, 180543, Control_c, 0, 64, 109
1, 180558, Control_c, 0, 64, 127
1, 180578, Note_on_c, 0, 82, 38
1, 180590, Note_on_c, 0, 87, 40
1, 180610, Note_off_c, 0, 73, 35
1, 180629, Note_off_c, 0, 78, 41
1, 180657, Note_off_c, 0, 85, 32
1, 180788, Control_c, 0, 64, 122
1, 180803, Control_c, 0, 64, 117
1, 180817, Control_c, 0, 64, 115
1, 180832, Control_c, 0, 64, 112
1, 180847, Control_c, 0, 64, 109
1, 180862, Control_c, 0, 64, 107
1, 180877, Control_c, 0, 64, 105
1, 180891, Control_c, 0, 64, 104
1, 180906, Control_c, 0, 64, 102
1, 180922, Control_c, 0, 64, 100
1, 180936, Control_c, 0, 64, 99
1, 180951, Control_c, 0, 64, 97
1, 180966, Control_c, 0, 64, 95
1, 180970, Note_on_c, 0, 73, 30
1, 180971, Note_on_c, 0, 97, 53
1, 180981, Control_c, 0, 64, 93
1, 180990, Note_on_c, 0, 80, 30
1, 180994, Note_on_c, 0, 89, 45
1, 180996, Note_off_c, 0, 87, 40
1, 180996, Control_c, 0, 64, 91
1, 181010, Control_c, 0, 64, 90
1, 181025, Control_c, 0, 64, 88
1, 181040, Control_c, 0, 64, 86
1, 181055, Control_c, 0, 64, 84
1, 181070, Control_c, 0, 64, 83
1, 181085, Control_c, 0, 64, 81
1, 181099, Control_c, 0, 64, 79
1, 181115, Control_c, 0, 64, 77
1, 181130, Control_c, 0, 64, 73
1, 181145, Control_c, 0, 64, 70
1, 181159, Control_c, 0, 64, 67
1, 181174, Control_c, 0, 64, 64
1, 181189, Control_c, 0, 64, 63
1, 181189, Control_c, 0, 67, 53
1, 181195, Note_off_c, 0, 94, 26
1, 181204, Control_c, 0, 64, 62
1, 181204, Control_c, 0, 67, 54
1, 181219, Control_c, 0, 64, 61
1, 181234, Control_c, 0, 64, 60
1, 181234, Control_c, 0, 67, 54
1, 181248, Control_c, 0, 64, 59
1, 181248, Control_c, 0, 67, 55
1, 181263, Note_off_c, 0, 82, 32
1, 181263, Control_c, 0, 64, 58
1, 181263, Control_c, 0, 67, 56
1, 181278, Control_c, 0, 67, 57
1, 181293, Control_c, 0, 67, 57
1, 181308, Control_c, 0, 64, 59
1, 181308, Control_c, 0, 67, 58
1, 181330, Control_c, 0, 64, 60
1, 181330, Control_c, 0, 67, 59
1, 181345, Control_c, 0, 64, 61
1, 181345, Control_c, 0, 67, 59
1, 181360, Control_c, 0, 64, 62
1, 181360, Control_c, 0, 67, 60
1, 181374, Control_c, 0, 64, 64
1, 181389, Control_c, 0, 64, 65
1, 181389, Control_c, 0, 67, 61
1, 181404, Control_c, 0, 64, 67
1, 181404, Control_c, 0, 67, 61
1, 181419, Control_c, 0, 64, 70
1, 181434, Control_c, 0, 64, 73
1, 181448, Control_c, 0, 64, 78
1, 181463, Control_c, 0, 64, 84
1, 181478, Control_c, 0, 64, 89
1, 181493, Control_c, 0, 64, 92
1, 181508, Control_c, 0, 64, 94
1, 181522, Control_c, 0, 67, 62
1, 181556, Note_off_c, 0, 89, 26
1, 181596, Control_c, 0, 67, 62
1, 181635, Note_off_c, 0, 80, 37
1, 181641, Control_c, 0, 67, 63
1, 181654, Note_off_c, 0, 73, 36
1, 181656, Control_c, 0, 64, 93
1, 181656, Control_c, 0, 67, 64
1, 181669, Note_off_c, 0, 97, 40
1, 181670, Control_c, 0, 64, 93
1, 181685, Control_c, 0, 67, 64
1, 181700, Control_c, 0, 64, 92
1, 181715, Control_c, 0, 64, 92
1, 181715, Control_c, 0, 67, 66
1, 181730, Control_c, 0, 64, 91
1, 181730, Control_c, 0, 67, 66
1, 181745, Control_c, 0, 64, 90
1, 181760, Control_c, 0, 67, 67
1, 181774, Control_c, 0, 64, 89
1, 181774, Control_c, 0, 67, 84
1, 181789, Control_c, 0, 67, 100
1, 181804, Control_c, 0, 64, 88
1, 181804, Control_c, 0, 67, 111
1, 181819, Control_c, 0, 64, 88
1, 181819, Control_c, 0, 67, 122
1, 181833, Control_c, 0, 64, 87
1, 181833, Control_c, 0, 67, 127
1, 181848, Control_c, 0, 64, 87
1, 181863, Control_c, 0, 64, 86
1, 181892, Control_c, 0, 64, 86
1, 181909, Control_c, 0, 64, 85
1, 181924, Control_c, 0, 64, 84
1, 181938, Control_c, 0, 64, 84
1, 181953, Control_c, 0, 64, 83
1, 181968, Control_c, 0, 64, 82
1, 181982, Control_c, 0, 64, 80
1, 181997, Control_c, 0, 64, 80
1, 182012, Control_c, 0, 64, 79
1, 182027, Control_c, 0, 64, 78
1, 182042, Control_c, 0, 64, 77
1, 182057, Control_c, 0, 64, 77
1, 182079, Control_c, 0, 64, 75
1, 182094, Control_c, 0, 64, 74
1, 182109, Control_c, 0, 64, 73
1, 182124, Control_c, 0, 64, 72
1, 182138, Control_c, 0, 64, 72
1, 182168, Control_c, 0, 64, 71
1, 182183, Control_c, 0, 64, 71
1, 182197, Control_c, 0, 64, 70
1, 182212, Control_c, 0, 64, 69
1, 182227, Control_c, 0, 64, 68
1, 182242, Control_c, 0, 64, 67
1, 182257, Control_c, 0, 64, 67
1, 182271, Control_c, 0, 64, 66
1, 182286, Control_c, 0, 64, 66
1, 182301, Control_c, 0, 64, 65
1, 182316, Control_c, 0, 64, 65
1, 182331, Control_c, 0, 64, 64
1, 182345, Control_c, 0, 64, 63
1, 182360, Control_c, 0, 64, 62
1, 182375, Control_c, 0, 64, 61
1, 182389, Control_c, 0, 64, 60
1, 182419, Control_c, 0, 64, 60
1, 182434, Control_c, 0, 64, 59
1, 182449, Control_c, 0, 64, 58
1, 182463, Control_c, 0, 64, 58
1, 182478, Control_c, 0, 64, 57
1, 182508, Control_c, 0, 64, 57
1, 182568, Control_c, 0, 64, 57
1, 182583, Control_c, 0, 64, 58
1, 182597, Control_c, 0, 64, 59
1, 182612, Control_c, 0, 64, 59
1, 182627, Control_c, 0, 64, 60
1, 182642, Control_c, 0, 64, 61
1, 182657, Control_c, 0, 64, 62
1, 182671, Control_c, 0, 64, 63
1, 182686, Control_c, 0, 64, 64
1, 182701, Control_c, 0, 64, 64
1, 182717, Control_c, 0, 64, 65
1, 182732, Control_c, 0, 64, 65
1, 182747, Control_c, 0, 64, 66
1, 182761, Control_c, 0, 64, 67
1, 182776, Control_c, 0, 64, 69
1, 182791, Control_c, 0, 64, 72
1, 182812, Control_c, 0, 64, 75
1, 182827, Control_c, 0, 64, 78
1, 182842, Control_c, 0, 64, 81
1, 182857, Control_c, 0, 64, 84
1, 182866, Note_on_c, 0, 49, 24
1, 182872, Control_c, 0, 64, 87
1, 182887, Control_c, 0, 64, 93
1, 182902, Control_c, 0, 64, 100
1, 182917, Control_c, 0, 64, 112
1, 182931, Control_c, 0, 64, 127
1, 182994, Note_on_c, 0, 55, 37
1, 183026, Note_off_c, 0, 49, 41
1, 183072, Note_off_c, 0, 55, 59
1, 183084, Note_on_c, 0, 58, 50
1, 183122, Note_off_c, 0, 58, 64
1, 183182, Note_on_c, 0, 65, 45
1, 183267, Note_on_c, 0, 67, 48
1, 183268, Note_off_c, 0, 65, 56
1, 183319, Note_on_c, 0, 70, 52
1, 183382, Note_on_c, 0, 73, 60
1, 183408, Note_off_c, 0, 67, 35
1, 183429, Note_off_c, 0, 70, 39
1, 183462, Note_on_c, 0, 77, 54
1, 183516, Note_off_c, 0, 73, 57
1, 183536, Note_on_c, 0, 82, 69
1, 183666, Note_off_c, 0, 77, 38
1, 183749, Note_on_c, 0, 85, 73
1, 184041, Note_off_c, 0, 82, 32
1, 184733, Note_off_c, 0, 85, 26
1, 185688, Note_on_c, 0, 37, 38
1, 185726, Control_c, 0, 64, 125
1, 185740, Control_c, 0, 64, 112
1, 185755, Control_c, 0, 64, 104
1, 185770, Control_c, 0, 64, 99
1, 185785, Control_c, 0, 64, 93
1, 185800, Control_c, 0, 64, 88
1, 185822, Control_c, 0, 64, 81
1, 185837, Control_c, 0, 64, 73
1, 185852, Control_c, 0, 64, 67
1, 185867, Control_c, 0, 64, 61
1, 185882, Control_c, 0, 64, 55
1, 185896, Control_c, 0, 64, 53
1, 185912, Control_c, 0, 64, 54
1, 185927, Control_c, 0, 64, 56
1, 185942, Control_c, 0, 64, 59
1, 185957, Control_c, 0, 64, 63
1, 185963, Note_on_c, 0, 44, 42
1, 185972, Control_c, 0, 64, 66
1, 185986, Control_c, 0, 64, 71
1, 186001, Control_c, 0, 64, 82
1, 186016, Control_c, 0, 64, 103
1, 186031, Control_c, 0, 64, 127
1, 186035, Note_off_c, 0, 37, 39
1, 186147, Note_on_c, 0, 49, 46
1, 186163, Control_c, 0, 67, 127
1, 186185, Note_off_c, 0, 44, 35
1, 186237, Note_off_c, 0, 49, 59
1, 186277, Note_on_c, 0, 53, 52
1, 186282, Control_c, 0, 67, 126
1, 186404, Note_off_c, 0, 53, 57
1, 186420, Note_on_c, 0, 56, 53
1, 186547, Note_on_c, 0, 61, 58
1, 186681, Note_on_c, 0, 65, 56
1, 186773, Note_off_c, 0, 56, 28
1, 186818, Note_on_c, 0, 68, 61
1, 186880, Note_off_c, 0, 65, 55
1, 186926, Control_c, 0, 67, 125
1, 186979, Note_on_c, 0, 73, 65
1, 186979, Note_off_c, 0, 68, 61
1, 187034, Note_off_c, 0, 73, 64
1, 187168, Note_on_c, 0, 77, 63
1, 187418, Note_on_c, 0, 80, 56
1, 187784, Note_on_c, 0, 85, 59
1, 188086, Note_off_c, 0, 77, 27
1, 188215, Control_c, 0, 67, 126
1, 188239, Note_off_c, 0, 80, 37
1, 188283, Note_off_c, 0, 85, 35
1, 188410, Control_c, 0, 67, 127
1, 188488, Note_on_c, 0, 89, 69
1, 190025, Control_c, 0, 67, 126
1, 190232, Control_c, 0, 67, 125
1, 190373, Control_c, 0, 67, 125
1, 190432, Control_c, 0, 67, 124
1, 190506, Control_c, 0, 67, 124
1, 190551, Control_c, 0, 67, 123
1, 190580, Control_c, 0, 67, 122
1, 190610, Control_c, 0, 67, 122
1, 190640, Control_c, 0, 67, 121
1, 190655, Control_c, 0, 67, 120
1, 190670, Control_c, 0, 67, 120
1, 190693, Note_off_c, 0, 61, 24
1, 190700, Control_c, 0, 67, 119
1, 190729, Control_c, 0, 67, 119
1, 190744, Control_c, 0, 67, 117
1, 190759, Control_c, 0, 67, 117
1, 190804, Control_c, 0, 67, 116
1, 190819, Control_c, 0, 67, 115
1, 190833, Control_c, 0, 67, 115
1, 190878, Control_c, 0, 67, 114
1, 190907, Control_c, 0, 67, 114
1, 190922, Control_c, 0, 67, 113
1, 190937, Control_c, 0, 67, 112
1, 190967, Control_c, 0, 67, 112
1, 190981, Control_c, 0, 67, 111
1, 191011, Control_c, 0, 67, 110
1, 191025, Control_c, 0, 67, 110
1, 191039, Note_off_c, 0, 89, 32
1, 191063, Control_c, 0, 67, 109
1, 191078, Control_c, 0, 67, 109
1, 191093, Control_c, 0, 67, 108
1, 191107, Control_c, 0, 67, 107
1, 191122, Control_c, 0, 67, 107
1, 191137, Control_c, 0, 67, 106
1, 191152, Control_c, 0, 67, 105
1, 191167, Control_c, 0, 67, 105
1, 191181, Control_c, 0, 67, 104
1, 191211, Control_c, 0, 67, 104
1, 191225, Control_c, 0, 67, 103
1, 191255, Control_c, 0, 67, 102
1, 191285, Control_c, 0, 67, 102
1, 191299, Control_c, 0, 67, 100
1, 191314, Control_c, 0, 67, 91
1, 191329, Control_c, 0, 67, 85
1, 191344, Control_c, 0, 67, 81
1, 191359, Control_c, 0, 64, 119
1, 191359, Control_c, 0, 67, 81
1, 191373, Control_c, 0, 64, 114
1, 191373, Control_c, 0, 67, 80
1, 191388, Control_c, 0, 64, 110
1, 191403, Control_c, 0, 64, 107
1, 191403, Control_c, 0, 67, 79
1, 191418, Control_c, 0, 64, 104
1, 191418, Control_c, 0, 67, 79
1, 191433, Control_c, 0, 64, 101
1, 191433, Control_c, 0, 67, 78
1, 191448, Control_c, 0, 64, 99
1, 191448, Control_c, 0, 67, 77
1, 191463, Control_c, 0, 64, 98
1, 191463, Control_c, 0, 67, 77
1, 191478, Control_c, 0, 64, 97
1, 191478, Control_c, 0, 67, 76
1, 191493, Control_c, 0, 64, 97
1, 191493, Control_c, 0, 67, 69
1, 191508, Control_c, 0, 64, 96
1, 191508, Control_c, 0, 67, 59
1, 191522, Control_c, 0, 64, 96
1, 191522, Control_c, 0, 67, 49
1, 191537, Control_c, 0, 64, 95
1, 191537, Control_c, 0, 67, 42
1, 191552, Control_c, 0, 64, 94
1, 191552, Control_c, 0, 67, 38
1, 191567, Control_c, 0, 64, 93
1, 191567, Control_c, 0, 67, 36
1, 191582, Control_c, 0, 64, 92
1, 191582, Control_c, 0, 67, 35
1, 191597, Control_c, 0, 64, 91
1, 191597, Control_c, 0, 67, 34
1, 191612, Control_c, 0, 64, 90
1, 191612, Control_c, 0, 67, 34
1, 191627, Control_c, 0, 64, 88
1, 191627, Control_c, 0, 67, 33
1, 191642, Control_c, 0, 64, 87
1, 191656, Control_c, 0, 64, 86
1, 191656, Control_c, 0, 67, 32
1, 191671, Control_c, 0, 64, 86
1, 191686, Control_c, 0, 64, 84
1, 191686, Control_c, 0, 67, 32
1, 191701, Control_c, 0, 64, 83
1, 191716, Control_c, 0, 64, 82
1, 191716, Control_c, 0, 67, 31
1, 191730, Control_c, 0, 64, 81
1, 191745, Control_c, 0, 64, 80
1, 191745, Control_c, 0, 67, 31
1, 191760, Control_c, 0, 64, 79
1, 191775, Control_c, 0, 64, 78
1, 191775, Control_c, 0, 67, 30
1, 191790, Control_c, 0, 64, 77
1, 191812, Control_c, 0, 64, 76
1, 191812, Control_c, 0, 67, 29
1, 191826, Control_c, 0, 64, 76
1, 191826, Control_c, 0, 67, 27
1, 191841, Control_c, 0, 64, 75
1, 191841, Control_c, 0, 67, 15
1, 191856, Control_c, 0, 64, 74
1, 191856, Control_c, 0, 67, 0
1, 191871, Control_c, 0, 64, 74
1, 191886, Control_c, 0, 64, 73
1, 191916, Control_c, 0, 64, 73
1, 191930, Control_c, 0, 64, 72
1, 191945, Control_c, 0, 64, 72
1, 191960, Control_c, 0, 64, 71
1, 191990, Control_c, 0, 64, 71
1, 192004, Control_c, 0, 64, 70
1, 192019, Control_c, 0, 64, 70
1, 192034, Control_c, 0, 64, 69
1, 192063, Control_c, 0, 64, 69
1, 192093, Control_c, 0, 64, 68
1, 192108, Control_c, 0, 64, 68
1, 192137, Control_c, 0, 64, 67
1, 192153, Control_c, 0, 64, 67
1, 192167, Control_c, 0, 64, 66
1, 192212, Control_c, 0, 64, 66
1, 192227, Control_c, 0, 64, 65
1, 192242, Control_c, 0, 64, 65
1, 192256, Control_c, 0, 64, 64
1, 192317, Control_c, 0, 64, 64
1, 192361, Control_c, 0, 64, 63
1, 192376, Control_c, 0, 64, 63
1, 192435, Control_c, 0, 64, 62
1, 192450, Control_c, 0, 64, 62
1, 192494, Control_c, 0, 64, 61
1, 192524, Control_c, 0, 64, 61
1, 192561, Control_c, 0, 64, 60
1, 192576, Control_c, 0, 64, 60
1, 192591, Control_c, 0, 64, 59
1, 192635, Control_c, 0, 64, 59
1, 192650, Control_c, 0, 64, 58
1, 192665, Control_c, 0, 64, 58
1, 192694, Control_c, 0, 64, 57
1, 192724, Control_c, 0, 64, 57
1, 192739, Control_c, 0, 64, 56
1, 192753, Control_c, 0, 64, 56
1, 192768, Control_c, 0, 64, 55
1, 192813, Control_c, 0, 64, 55
1, 192828, Control_c, 0, 64, 54
1, 192858, Control_c, 0, 64, 54
1, 192887, Control_c, 0, 64, 53
1, 192902, Control_c, 0, 64, 52
1, 192917, Control_c, 0, 64, 52
1, 192932, Control_c, 0, 64, 51
1, 192946, Control_c, 0, 64, 50
1, 192961, Control_c, 0, 64, 50
1, 192976, Control_c, 0, 64, 49
1, 192991, Control_c, 0, 64, 48
1, 193005, Control_c, 0, 64, 48
1, 193020, Control_c, 0, 64, 47
1, 193035, Control_c, 0, 64, 46
1, 193050, Control_c, 0, 64, 46
1, 193065, Control_c, 0, 64, 45
1, 193079, Control_c, 0, 64, 45
1, 193095, Control_c, 0, 64, 44
1, 193110, Control_c, 0, 64, 43
1, 193125, Control_c, 0, 64, 43
1, 193140, Control_c, 0, 64, 42
1, 193155, Control_c, 0, 64, 41
1, 193184, Control_c, 0, 64, 41
1, 193199, Control_c, 0, 64, 40
1, 193229, Control_c, 0, 64, 40
1, 193258, Control_c, 0, 64, 39
1, 193288, Control_c, 0, 64, 39
1, 193310, Control_c, 0, 64, 38
1, 193355, Control_c, 0, 64, 38
1, 193443, Control_c, 0, 64, 37
1, 193473, Control_c, 0, 64, 37
1, 193517, Control_c, 0, 64, 36
1, 193591, Control_c, 0, 64, 36
1, 193681, Control_c, 0, 64, 35
1, 193725, Control_c, 0, 64, 35
1, 193828, Control_c, 0, 64, 34
1, 193858, Control_c, 0, 64, 34
1, 193904, Control_c, 0, 64, 33
1, 193933, Control_c, 0, 64, 33
1, 193978, Control_c, 0, 64, 32
1, 194022, Control_c, 0, 64, 32
1, 194037, Control_c, 0, 64, 31
1, 194148, Control_c, 0, 64, 31
1, 194193, Control_c, 0, 64, 30
1, 194222, Control_c, 0, 64, 30
1, 194251, Control_c, 0, 64, 29
1, 194266, Control_c, 0, 64, 29
1, 194296, Control_c, 0, 64, 28
1, 194311, Control_c, 0, 64, 27
1, 194325, Control_c, 0, 64, 27
1, 194340, Control_c, 0, 64, 26
1, 194355, Control_c, 0, 64, 26
1, 194370, Control_c, 0, 64, 25
1, 194385, Control_c, 0, 64, 25
1, 194399, Control_c, 0, 64, 24
1, 194414, Control_c, 0, 64, 24
1, 194429, Control_c, 0, 64, 23
1, 194443, Control_c, 0, 64, 23
1, 194458, Control_c, 0, 64, 22
1, 194473, Control_c, 0, 64, 22
1, 194503, Control_c, 0, 64, 21
1, 194547, Control_c, 0, 64, 20
1, 194577, Control_c, 0, 64, 19
1, 194606, Control_c, 0, 64, 19
1, 194665, Control_c, 0, 64, 18
1, 194792, Control_c, 0, 64, 17
1, 194926, Control_c, 0, 64, 16
1, 194985, Control_c, 0, 64, 15
1, 195044, Control_c, 0, 64, 14
1, 195088, Control_c, 0, 64, 13
1, 195162, Control_c, 0, 64, 12
1, 196134, Control_c, 0, 64, 9
1, 196149, Control_c, 0, 64, 0
1, 196224, End_track
0, 0, End_of_file
