0, 0, Header, 0, 1, 384
1, 0, Start_track
1, 0, Title_t, "SchubertOp142No1_D935           "
1, 0, Text_t, "2011 ePiano Junior Competition"
1, 0, Text_t, "captured in spring and summer 2011"
1, 0, Text_t, "http://www.piano-e-competition.com/"
1, 0, Text_t, "standard-resolution version"
1, 0, Text_t, "File processed for distribution with software designed and coded by Dr. John Q. Walker, founder of Zenph Sound Innovations"
1, 0, Instrument_name_t, "Yamaha Disklavier Pro Mark IV concert grand piano, model DCFIIISM4PRO"
1, 0, Sequencer_specific, 39, 67, 113, 0, 1, 0, 1, 0, 83, 99, 104, 117, 98, 101, 114, 116, 79, 112, 49, 52, 50, 78, 111, 49, 77, 105, 115, 111, 114, 97, 32, 79, 122, 97, 107, 105, 32, 32, 32, 32
1, 0, Sequencer_specific, 6, 67, 113, 0, 0, 0, 69
1, 0, System_exclusive, 21, 67, 113, 126, 21, 0, 2, 2, 2, 5, 12, 8, 4, 14, 1, 3, 4, 11, 10, 12, 0, 247
1, 0, Sequencer_specific, 5, 67, 123, 12, 2, 1
1, 0, Tempo, 512820
1, 0, Time_signature, 4, 2, 24, 8
1, 0, System_exclusive, 5, 126, 127, 9, 1, 247
1, 1, System_exclusive, 8, 67, 16, 76, 0, 0, 126, 0, 247
1, 2, System_exclusive, 8, 67, 16, 76, 8, 9, 7, 1, 247
1, 3, Control_c, 0, 0, 108
1, 3, Control_c, 1, 0, 108
1, 3, Control_c, 2, 0, 0
1, 3, Control_c, 3, 0, 0
1, 3, Control_c, 4, 0, 0
1, 3, Control_c, 5, 0, 0
1, 3, Control_c, 6, 0, 0
1, 3, Control_c, 7, 0, 0
1, 3, Control_c, 8, 0, 0
1, 3, Control_c, 9, 0, 127
1, 3, Control_c, 10, 0, 0
1, 3, Control_c, 11, 0, 0
1, 3, Control_c, 12, 0, 0
1, 3, Control_c, 13, 0, 0
1, 3, Control_c, 14, 0, 0
1, 3, Control_c, 15, 0, 0
1, 4, Control_c, 0, 32, 0
1, 4, Control_c, 1, 32, 0
1, 4, Control_c, 2, 32, 0
1, 4, Control_c, 3, 32, 0
1, 4, Control_c, 4, 32, 0
1, 4, Control_c, 5, 32, 0
1, 4, Control_c, 6, 32, 0
1, 4, Control_c, 7, 32, 0
1, 4, Control_c, 8, 32, 0
1, 4, Control_c, 9, 32, 0
1, 4, Control_c, 10, 32, 0
1, 4, Control_c, 11, 32, 0
1, 4, Control_c, 12, 32, 0
1, 4, Control_c, 13, 32, 0
1, 4, Control_c, 14, 32, 0
1, 4, Control_c, 15, 32, 0
1, 5, Program_c, 0, 0
1, 5, Program_c, 1, 0
1, 5, Program_c, 2, 0
1, 5, Program_c, 3, 0
1, 5, Program_c, 4, 0
1, 5, Program_c, 5, 0
1, 5, Program_c, 6, 0
1, 5, Program_c, 7, 0
1, 5, Program_c, 8, 0
1, 5, Program_c, 9, 0
1, 5, Program_c, 10, 0
1, 5, Program_c, 11, 0
1, 5, Program_c, 12, 0
1, 5, Program_c, 13, 0
1, 5, Program_c, 14, 0
1, 5, Program_c, 15, 0
1, 6, Control_c, 0, 7, 100
1, 6, Control_c, 1, 7, 100
1, 6, Control_c, 2, 7, 100
1, 6, Control_c, 3, 7, 100
1, 6, Control_c, 4, 7, 100
1, 6, Control_c, 5, 7, 100
1, 6, Control_c, 6, 7, 100
1, 6, Control_c, 7, 7, 100
1, 6, Control_c, 8, 7, 100
1, 6, Control_c, 9, 7, 100
1, 6, Control_c, 10, 7, 100
1, 6, Control_c, 11, 7, 100
1, 6, Control_c, 12, 7, 100
1, 6, Control_c, 13, 7, 100
1, 6, Control_c, 14, 7, 100
1, 6, Control_c, 15, 7, 100
1, 42, Control_c, 0, 64, 15
1, 79, Control_c, 0, 64, 31
1, 116, Control_c, 0, 64, 46
1, 153, Control_c, 0, 64, 63
1, 190, Control_c, 0, 64, 77
1, 226, Control_c, 0, 64, 94
1, 263, Control_c, 0, 64, 108
1, 300, Control_c, 0, 64, 127
1, 382, Note_on_c, 0, 41, 63
1, 391, Note_on_c, 0, 60, 55
1, 445, Note_on_c, 0, 65, 71
1, 469, Note_on_c, 0, 48, 63
1, 484, Note_on_c, 0, 68, 79
1, 491, Note_off_c, 0, 60, 63
1, 547, Note_on_c, 0, 72, 92
1, 552, Note_on_c, 0, 56, 75
1, 567, Note_off_c, 0, 65, 61
1, 615, Note_off_c, 0, 68, 55
1, 1546, Note_off_c, 0, 56, 35
1, 1569, Note_on_c, 0, 70, 63
1, 1667, Note_on_c, 0, 68, 68
1, 1719, Note_off_c, 0, 72, 55
1, 1791, Note_off_c, 0, 70, 55
1, 2004, Note_on_c, 0, 70, 62
1, 2072, Control_c, 0, 64, 107
1, 2073, Note_off_c, 0, 68, 33
1, 2085, Note_on_c, 0, 67, 69
1, 2087, Control_c, 0, 64, 92
1, 2089, Note_on_c, 0, 52, 52
1, 2092, Note_on_c, 0, 43, 42
1, 2109, Control_c, 0, 64, 76
1, 2124, Control_c, 0, 64, 65
1, 2139, Control_c, 0, 64, 53
1, 2154, Control_c, 0, 64, 44
1, 2166, Note_off_c, 0, 70, 55
1, 2168, Control_c, 0, 64, 46
1, 2183, Control_c, 0, 64, 50
1, 2198, Control_c, 0, 64, 55
1, 2213, Control_c, 0, 64, 60
1, 2227, Control_c, 0, 64, 65
1, 2242, Control_c, 0, 64, 72
1, 2257, Control_c, 0, 64, 82
1, 2272, Control_c, 0, 64, 97
1, 2280, Note_off_c, 0, 43, 35
1, 2287, Control_c, 0, 64, 123
1, 2301, Control_c, 0, 64, 127
1, 2353, Note_off_c, 0, 48, 16
1, 2363, Note_off_c, 0, 52, 60
1, 2401, Note_on_c, 0, 68, 60
1, 2414, Note_off_c, 0, 67, 56
1, 2421, Control_c, 0, 64, 121
1, 2435, Control_c, 0, 64, 113
1, 2450, Control_c, 0, 64, 107
1, 2465, Control_c, 0, 64, 98
1, 2473, Note_on_c, 0, 65, 67
1, 2480, Control_c, 0, 64, 82
1, 2482, Note_on_c, 0, 53, 52
1, 2484, Note_on_c, 0, 44, 43
1, 2484, Note_off_c, 0, 68, 61
1, 2495, Control_c, 0, 64, 69
1, 2509, Control_c, 0, 64, 58
1, 2524, Control_c, 0, 64, 36
1, 2539, Control_c, 0, 64, 33
1, 2554, Control_c, 0, 64, 39
1, 2569, Control_c, 0, 64, 49
1, 2583, Control_c, 0, 64, 57
1, 2599, Control_c, 0, 64, 63
1, 2614, Control_c, 0, 64, 67
1, 2629, Control_c, 0, 64, 73
1, 2644, Control_c, 0, 64, 82
1, 2659, Control_c, 0, 64, 96
1, 2673, Control_c, 0, 64, 108
1, 2688, Control_c, 0, 64, 115
1, 2703, Control_c, 0, 64, 116
1, 2747, Control_c, 0, 64, 115
1, 2762, Control_c, 0, 64, 113
1, 2777, Control_c, 0, 64, 111
1, 2784, Note_on_c, 0, 66, 54
1, 2792, Control_c, 0, 64, 108
1, 2806, Control_c, 0, 64, 106
1, 2821, Control_c, 0, 64, 102
1, 2836, Control_c, 0, 64, 97
1, 2858, Control_c, 0, 64, 85
1, 2866, Note_on_c, 0, 63, 66
1, 2869, Note_on_c, 0, 45, 47
1, 2873, Control_c, 0, 64, 73
1, 2888, Control_c, 0, 64, 62
1, 2896, Note_off_c, 0, 65, 55
1, 2903, Control_c, 0, 64, 44
1, 2918, Control_c, 0, 64, 40
1, 2932, Control_c, 0, 64, 46
1, 2947, Control_c, 0, 64, 52
1, 2951, Note_off_c, 0, 66, 60
1, 2962, Control_c, 0, 64, 58
1, 2977, Control_c, 0, 64, 63
1, 2992, Control_c, 0, 64, 67
1, 3006, Control_c, 0, 64, 72
1, 3012, Note_off_c, 0, 44, 35
1, 3021, Control_c, 0, 64, 78
1, 3036, Control_c, 0, 64, 88
1, 3051, Control_c, 0, 64, 94
1, 3066, Control_c, 0, 64, 98
1, 3081, Control_c, 0, 64, 99
1, 3148, Note_on_c, 0, 65, 56
1, 3155, Control_c, 0, 64, 98
1, 3170, Control_c, 0, 64, 97
1, 3185, Control_c, 0, 64, 96
1, 3199, Control_c, 0, 64, 94
1, 3214, Control_c, 0, 64, 91
1, 3221, Note_on_c, 0, 61, 71
1, 3222, Note_on_c, 0, 46, 56
1, 3229, Control_c, 0, 64, 84
1, 3244, Control_c, 0, 64, 75
1, 3258, Control_c, 0, 64, 65
1, 3268, Note_off_c, 0, 63, 27
1, 3273, Control_c, 0, 64, 55
1, 3288, Control_c, 0, 64, 47
1, 3293, Note_off_c, 0, 45, 58
1, 3303, Control_c, 0, 64, 51
1, 3318, Control_c, 0, 64, 54
1, 3325, Note_off_c, 0, 65, 53
1, 3332, Control_c, 0, 64, 59
1, 3347, Control_c, 0, 64, 63
1, 3362, Control_c, 0, 64, 68
1, 3377, Control_c, 0, 64, 76
1, 3392, Control_c, 0, 64, 89
1, 3408, Control_c, 0, 64, 110
1, 3422, Control_c, 0, 64, 127
1, 3516, Note_on_c, 0, 63, 63
1, 3554, Note_off_c, 0, 61, 58
1, 3570, Control_c, 0, 64, 103
1, 3574, Note_on_c, 0, 48, 63
1, 3580, Note_on_c, 0, 60, 73
1, 3585, Control_c, 0, 64, 84
1, 3608, Control_c, 0, 64, 70
1, 3622, Note_off_c, 0, 63, 61
1, 3623, Control_c, 0, 64, 59
1, 3637, Control_c, 0, 64, 43
1, 3652, Control_c, 0, 64, 44
1, 3667, Control_c, 0, 64, 48
1, 3681, Control_c, 0, 64, 53
1, 3682, Note_off_c, 0, 46, 41
1, 3696, Control_c, 0, 64, 58
1, 3711, Control_c, 0, 64, 63
1, 3726, Control_c, 0, 64, 69
1, 3741, Control_c, 0, 64, 76
1, 3755, Control_c, 0, 64, 89
1, 3770, Control_c, 0, 64, 111
1, 3785, Control_c, 0, 64, 127
1, 3818, Note_off_c, 0, 48, 62
1, 3864, Note_on_c, 0, 61, 62
1, 3948, Control_c, 0, 64, 106
1, 3954, Note_on_c, 0, 58, 79
1, 3962, Note_on_c, 0, 49, 53
1, 3963, Control_c, 0, 64, 80
1, 3978, Control_c, 0, 64, 66
1, 3983, Note_off_c, 0, 60, 53
1, 3993, Control_c, 0, 64, 53
1, 4008, Control_c, 0, 64, 42
1, 4022, Control_c, 0, 64, 46
1, 4035, Note_off_c, 0, 61, 61
1, 4037, Control_c, 0, 64, 51
1, 4052, Control_c, 0, 64, 56
1, 4067, Control_c, 0, 64, 60
1, 4081, Control_c, 0, 64, 64
1, 4096, Control_c, 0, 64, 70
1, 4111, Control_c, 0, 64, 81
1, 4126, Control_c, 0, 64, 104
1, 4141, Control_c, 0, 64, 127
1, 4190, Note_off_c, 0, 49, 62
1, 4239, Note_off_c, 0, 58, 61
1, 4246, Note_on_c, 0, 60, 64
1, 4319, Control_c, 0, 64, 102
1, 4321, Note_on_c, 0, 48, 59
1, 4330, Note_on_c, 0, 56, 84
1, 4334, Control_c, 0, 64, 76
1, 4356, Control_c, 0, 64, 63
1, 4371, Note_off_c, 0, 60, 64
1, 4371, Control_c, 0, 64, 48
1, 4386, Control_c, 0, 64, 44
1, 4401, Control_c, 0, 64, 50
1, 4416, Control_c, 0, 64, 56
1, 4431, Control_c, 0, 64, 61
1, 4446, Control_c, 0, 64, 65
1, 4460, Control_c, 0, 64, 71
1, 4461, Note_off_c, 0, 41, 43
1, 4473, Note_off_c, 0, 53, 38
1, 4475, Control_c, 0, 64, 83
1, 4490, Control_c, 0, 64, 127
1, 4628, Note_on_c, 0, 58, 74
1, 4639, Note_off_c, 0, 56, 62
1, 4682, Control_c, 0, 64, 99
1, 4690, Note_on_c, 0, 46, 65
1, 4690, Note_on_c, 0, 49, 73
1, 4693, Note_on_c, 0, 54, 89
1, 4696, Control_c, 0, 64, 74
1, 4709, Note_off_c, 0, 48, 31
1, 4711, Control_c, 0, 64, 57
1, 4726, Control_c, 0, 64, 30
1, 4741, Control_c, 0, 64, 27
1, 4750, Note_off_c, 0, 58, 59
1, 4756, Control_c, 0, 64, 36
1, 4771, Control_c, 0, 64, 46
1, 4786, Control_c, 0, 64, 54
1, 4801, Control_c, 0, 64, 60
1, 4816, Control_c, 0, 64, 64
1, 4830, Control_c, 0, 64, 69
1, 4845, Control_c, 0, 64, 80
1, 4860, Control_c, 0, 64, 109
1, 4875, Control_c, 0, 64, 127
1, 4978, Note_on_c, 0, 56, 88
1, 5009, Note_off_c, 0, 46, 56
1, 5012, Note_off_c, 0, 54, 64
1, 5024, Control_c, 0, 64, 90
1, 5036, Note_on_c, 0, 44, 77
1, 5037, Note_on_c, 0, 48, 81
1, 5039, Note_off_c, 0, 49, 39
1, 5039, Control_c, 0, 64, 68
1, 5050, Note_on_c, 0, 53, 98
1, 5054, Control_c, 0, 64, 46
1, 5068, Control_c, 0, 64, 0
1, 5086, Note_off_c, 0, 56, 65
1, 5105, Control_c, 0, 64, 30
1, 5120, Control_c, 0, 64, 49
1, 5134, Control_c, 0, 64, 59
1, 5149, Control_c, 0, 64, 64
1, 5164, Control_c, 0, 64, 71
1, 5179, Control_c, 0, 64, 93
1, 5194, Control_c, 0, 64, 127
1, 5293, Note_off_c, 0, 48, 61
1, 5310, Note_off_c, 0, 44, 53
1, 5313, Note_on_c, 0, 55, 84
1, 5322, Note_off_c, 0, 53, 61
1, 5342, Control_c, 0, 64, 101
1, 5357, Control_c, 0, 64, 63
1, 5369, Note_off_c, 0, 55, 65
1, 5372, Control_c, 0, 64, 0
1, 5396, Note_on_c, 0, 43, 80
1, 5397, Note_on_c, 0, 46, 76
1, 5397, Note_on_c, 0, 52, 99
1, 5431, Control_c, 0, 64, 42
1, 5445, Control_c, 0, 64, 65
1, 5460, Control_c, 0, 64, 95
1, 5475, Control_c, 0, 64, 127
1, 5483, Note_off_c, 0, 43, 63
1, 5489, Note_off_c, 0, 52, 70
1, 5501, Note_off_c, 0, 46, 64
1, 5579, Control_c, 0, 64, 115
1, 5594, Control_c, 0, 64, 90
1, 5608, Control_c, 0, 64, 78
1, 5623, Control_c, 0, 64, 70
1, 5638, Control_c, 0, 64, 65
1, 5653, Control_c, 0, 64, 63
1, 5668, Control_c, 0, 64, 60
1, 5683, Control_c, 0, 64, 55
1, 5698, Control_c, 0, 64, 45
1, 5713, Control_c, 0, 64, 32
1, 5727, Control_c, 0, 64, 17
1, 5742, Control_c, 0, 64, 0
1, 5910, Note_on_c, 0, 73, 99
1, 5914, Note_on_c, 0, 55, 62
1, 5916, Note_on_c, 0, 52, 65
1, 5916, Note_on_c, 0, 70, 82
1, 5918, Note_on_c, 0, 58, 64
1, 5918, Note_on_c, 0, 61, 65
1, 5925, Note_on_c, 0, 67, 76
1, 6017, Control_c, 0, 64, 52
1, 6032, Control_c, 0, 64, 64
1, 6047, Control_c, 0, 64, 75
1, 6061, Note_off_c, 0, 67, 52
1, 6062, Control_c, 0, 64, 119
1, 6076, Control_c, 0, 64, 127
1, 6081, Note_off_c, 0, 61, 62
1, 6115, Note_off_c, 0, 58, 60
1, 6137, Note_off_c, 0, 70, 63
1, 6146, Note_off_c, 0, 52, 60
1, 6151, Note_off_c, 0, 55, 62
1, 6169, Note_off_c, 0, 73, 65
1, 6224, Control_c, 0, 64, 107
1, 6239, Control_c, 0, 64, 96
1, 6254, Control_c, 0, 64, 88
1, 6268, Control_c, 0, 64, 82
1, 6283, Control_c, 0, 64, 77
1, 6298, Control_c, 0, 64, 72
1, 6313, Control_c, 0, 64, 70
1, 6328, Control_c, 0, 64, 68
1, 6342, Control_c, 0, 64, 67
1, 6357, Control_c, 0, 64, 65
1, 6372, Control_c, 0, 64, 63
1, 6387, Control_c, 0, 64, 59
1, 6402, Control_c, 0, 64, 55
1, 6416, Control_c, 0, 64, 48
1, 6431, Control_c, 0, 64, 35
1, 6446, Control_c, 0, 64, 0
1, 6780, Control_c, 0, 64, 17
1, 6795, Control_c, 0, 64, 36
1, 6810, Control_c, 0, 64, 50
1, 6825, Control_c, 0, 64, 58
1, 6840, Control_c, 0, 64, 62
1, 6854, Control_c, 0, 64, 65
1, 6869, Control_c, 0, 64, 69
1, 6884, Control_c, 0, 64, 76
1, 6898, Control_c, 0, 64, 92
1, 6913, Control_c, 0, 64, 127
1, 7089, Note_on_c, 0, 72, 44
1, 7105, Control_c, 0, 64, 113
1, 7120, Control_c, 0, 64, 105
1, 7135, Control_c, 0, 64, 99
1, 7150, Control_c, 0, 64, 95
1, 7164, Control_c, 0, 64, 91
1, 7167, Note_on_c, 0, 73, 52
1, 7179, Control_c, 0, 64, 88
1, 7184, Note_off_c, 0, 72, 51
1, 7194, Control_c, 0, 64, 84
1, 7209, Control_c, 0, 64, 80
1, 7216, Note_off_c, 0, 73, 59
1, 7224, Control_c, 0, 64, 76
1, 7227, Note_on_c, 0, 75, 59
1, 7239, Control_c, 0, 64, 73
1, 7254, Control_c, 0, 64, 71
1, 7269, Control_c, 0, 64, 69
1, 7284, Control_c, 0, 64, 67
1, 7298, Control_c, 0, 64, 65
1, 7306, Note_on_c, 0, 73, 63
1, 7313, Control_c, 0, 64, 62
1, 7328, Control_c, 0, 64, 60
1, 7350, Control_c, 0, 64, 60
1, 7365, Control_c, 0, 64, 58
1, 7379, Control_c, 0, 64, 57
1, 7395, Control_c, 0, 64, 55
1, 7409, Note_off_c, 0, 75, 53
1, 7410, Control_c, 0, 64, 53
1, 7425, Control_c, 0, 64, 51
1, 7440, Control_c, 0, 64, 48
1, 7455, Control_c, 0, 64, 44
1, 7469, Control_c, 0, 64, 40
1, 7484, Control_c, 0, 64, 37
1, 7499, Control_c, 0, 64, 34
1, 7514, Control_c, 0, 64, 31
1, 7528, Control_c, 0, 64, 27
1, 7543, Control_c, 0, 64, 22
1, 7558, Control_c, 0, 64, 17
1, 7573, Control_c, 0, 64, 12
1, 7588, Control_c, 0, 64, 0
1, 7659, Note_on_c, 0, 72, 63
1, 7695, Note_off_c, 0, 73, 51
1, 7749, Note_off_c, 0, 72, 64
1, 7787, Note_on_c, 0, 53, 39
1, 7790, Note_on_c, 0, 72, 60
1, 7809, Note_on_c, 0, 56, 30
1, 7884, Control_c, 0, 64, 28
1, 7899, Control_c, 0, 64, 43
1, 7913, Control_c, 0, 64, 51
1, 7928, Control_c, 0, 64, 55
1, 7943, Control_c, 0, 64, 59
1, 7958, Control_c, 0, 64, 63
1, 7973, Control_c, 0, 64, 68
1, 7988, Control_c, 0, 64, 75
1, 8002, Note_off_c, 0, 72, 61
1, 8002, Control_c, 0, 64, 85
1, 8017, Control_c, 0, 64, 99
1, 8032, Control_c, 0, 64, 121
1, 8047, Control_c, 0, 64, 127
1, 8163, Note_off_c, 0, 53, 41
1, 8200, Note_off_c, 0, 56, 41
1, 8204, Control_c, 0, 64, 119
1, 8218, Control_c, 0, 64, 113
1, 8233, Control_c, 0, 64, 109
1, 8248, Control_c, 0, 64, 104
1, 8263, Control_c, 0, 64, 99
1, 8278, Control_c, 0, 64, 94
1, 8292, Control_c, 0, 64, 91
1, 8307, Control_c, 0, 64, 87
1, 8322, Control_c, 0, 64, 85
1, 8331, Note_on_c, 0, 77, 70
1, 8337, Control_c, 0, 64, 82
1, 8351, Control_c, 0, 64, 79
1, 8366, Control_c, 0, 64, 76
1, 8381, Control_c, 0, 64, 72
1, 8396, Control_c, 0, 64, 69
1, 8410, Control_c, 0, 64, 67
1, 8425, Control_c, 0, 64, 64
1, 8440, Control_c, 0, 64, 62
1, 8455, Control_c, 0, 64, 59
1, 8470, Control_c, 0, 64, 56
1, 8485, Control_c, 0, 64, 54
1, 8499, Control_c, 0, 64, 51
1, 8514, Control_c, 0, 64, 47
1, 8529, Control_c, 0, 64, 41
1, 8543, Control_c, 0, 64, 33
1, 8558, Control_c, 0, 64, 24
1, 8573, Control_c, 0, 64, 12
1, 8588, Control_c, 0, 64, 0
1, 8849, Note_on_c, 0, 55, 28
1, 8855, Note_on_c, 0, 46, 28
1, 8872, Note_on_c, 0, 49, 11
1, 8921, Control_c, 0, 64, 17
1, 8936, Control_c, 0, 64, 30
1, 8950, Control_c, 0, 64, 36
1, 8965, Control_c, 0, 64, 41
1, 8980, Control_c, 0, 64, 46
1, 8996, Control_c, 0, 64, 52
1, 9010, Note_on_c, 0, 67, 45
1, 9011, Control_c, 0, 64, 57
1, 9026, Control_c, 0, 64, 60
1, 9040, Control_c, 0, 64, 63
1, 9055, Control_c, 0, 64, 65
1, 9070, Control_c, 0, 64, 68
1, 9085, Control_c, 0, 64, 72
1, 9088, Note_off_c, 0, 77, 30
1, 9100, Control_c, 0, 64, 76
1, 9115, Control_c, 0, 64, 77
1, 9134, Note_off_c, 0, 46, 41
1, 9141, Note_on_c, 0, 70, 55
1, 9160, Control_c, 0, 64, 77
1, 9161, Note_off_c, 0, 49, 37
1, 9174, Control_c, 0, 64, 76
1, 9189, Control_c, 0, 64, 75
1, 9204, Control_c, 0, 64, 74
1, 9206, Note_off_c, 0, 55, 43
1, 9219, Control_c, 0, 64, 73
1, 9224, Note_off_c, 0, 67, 36
1, 9234, Control_c, 0, 64, 71
1, 9248, Control_c, 0, 64, 69
1, 9259, Note_on_c, 0, 73, 67
1, 9263, Control_c, 0, 64, 68
1, 9268, Note_off_c, 0, 70, 57
1, 9278, Control_c, 0, 64, 67
1, 9293, Control_c, 0, 64, 66
1, 9308, Control_c, 0, 64, 65
1, 9323, Control_c, 0, 64, 64
1, 9338, Control_c, 0, 64, 64
1, 9352, Control_c, 0, 64, 63
1, 9367, Control_c, 0, 64, 63
1, 9382, Control_c, 0, 64, 62
1, 9383, Note_on_c, 0, 70, 74
1, 9397, Control_c, 0, 64, 62
1, 9412, Control_c, 0, 64, 61
1, 9427, Control_c, 0, 64, 60
1, 9433, Note_off_c, 0, 73, 60
1, 9441, Control_c, 0, 64, 59
1, 9456, Control_c, 0, 64, 59
1, 9471, Control_c, 0, 64, 58
1, 9485, Control_c, 0, 64, 57
1, 9493, Note_on_c, 0, 67, 72
1, 9494, Note_off_c, 0, 70, 60
1, 9500, Control_c, 0, 64, 56
1, 9515, Control_c, 0, 64, 56
1, 9545, Control_c, 0, 64, 55
1, 9559, Control_c, 0, 64, 55
1, 9574, Control_c, 0, 64, 54
1, 9597, Control_c, 0, 64, 53
1, 9612, Control_c, 0, 64, 52
1, 9626, Note_on_c, 0, 48, 39
1, 9627, Control_c, 0, 64, 52
1, 9641, Control_c, 0, 64, 51
1, 9653, Note_on_c, 0, 65, 72
1, 9656, Control_c, 0, 64, 51
1, 9671, Control_c, 0, 64, 50
1, 9686, Control_c, 0, 64, 50
1, 9696, Note_off_c, 0, 67, 59
1, 9700, Control_c, 0, 64, 49
1, 9715, Control_c, 0, 64, 48
1, 9730, Control_c, 0, 64, 48
1, 9745, Control_c, 0, 64, 47
1, 9760, Control_c, 0, 64, 47
1, 9774, Control_c, 0, 64, 46
1, 9790, Control_c, 0, 64, 45
1, 9791, Note_on_c, 0, 53, 49
1, 9805, Control_c, 0, 64, 44
1, 9835, Control_c, 0, 64, 44
1, 9850, Control_c, 0, 64, 43
1, 9865, Control_c, 0, 64, 43
1, 9895, Control_c, 0, 64, 42
1, 9910, Control_c, 0, 64, 42
1, 9924, Note_on_c, 0, 56, 51
1, 9924, Control_c, 0, 64, 41
1, 9939, Control_c, 0, 64, 40
1, 9954, Control_c, 0, 64, 40
1, 9969, Control_c, 0, 64, 39
1, 9975, Note_off_c, 0, 53, 60
1, 9984, Control_c, 0, 64, 39
1, 9998, Control_c, 0, 64, 38
1, 10013, Control_c, 0, 64, 37
1, 10028, Control_c, 0, 64, 36
1, 10043, Control_c, 0, 64, 35
1, 10058, Control_c, 0, 64, 34
1, 10063, Note_on_c, 0, 60, 50
1, 10072, Control_c, 0, 64, 33
1, 10087, Control_c, 0, 64, 31
1, 10101, Note_off_c, 0, 56, 63
1, 10102, Control_c, 0, 64, 30
1, 10116, Control_c, 0, 64, 27
1, 10131, Control_c, 0, 64, 26
1, 10146, Control_c, 0, 64, 24
1, 10161, Control_c, 0, 64, 22
1, 10176, Control_c, 0, 64, 18
1, 10190, Control_c, 0, 64, 15
1, 10202, Note_on_c, 0, 58, 53
1, 10205, Control_c, 0, 64, 0
1, 10228, Note_off_c, 0, 60, 52
1, 10320, Note_on_c, 0, 56, 45
1, 10348, Note_off_c, 0, 58, 51
1, 10485, Note_off_c, 0, 56, 53
1, 10500, Note_off_c, 0, 65, 53
1, 10512, Note_on_c, 0, 64, 40
1, 10518, Note_on_c, 0, 55, 34
1, 10584, Control_c, 0, 64, 56
1, 10599, Control_c, 0, 64, 69
1, 10613, Control_c, 0, 64, 90
1, 10615, Note_off_c, 0, 64, 64
1, 10628, Control_c, 0, 64, 127
1, 10787, Note_on_c, 0, 78, 60
1, 10880, Note_off_c, 0, 78, 63
1, 10883, Note_on_c, 0, 79, 70
1, 10925, Note_off_c, 0, 48, 41
1, 10941, Note_off_c, 0, 55, 41
1, 10969, Control_c, 0, 64, 102
1, 10971, Note_on_c, 0, 80, 79
1, 10973, Note_off_c, 0, 79, 65
1, 10984, Control_c, 0, 64, 77
1, 10999, Control_c, 0, 64, 61
1, 11013, Control_c, 0, 64, 28
1, 11028, Control_c, 0, 64, 23
1, 11043, Control_c, 0, 64, 44
1, 11053, Note_on_c, 0, 81, 87
1, 11053, Note_off_c, 0, 80, 65
1, 11058, Control_c, 0, 64, 57
1, 11073, Control_c, 0, 64, 65
1, 11095, Control_c, 0, 64, 72
1, 11110, Control_c, 0, 64, 87
1, 11125, Control_c, 0, 64, 127
1, 11148, Note_on_c, 0, 82, 93
1, 11165, Note_off_c, 0, 81, 66
1, 11226, Note_on_c, 0, 83, 91
1, 11278, Note_off_c, 0, 82, 59
1, 11284, Note_on_c, 0, 41, 81
1, 11308, Note_on_c, 0, 72, 76
1, 11347, Control_c, 0, 64, 84
1, 11356, Note_off_c, 0, 83, 63
1, 11359, Note_on_c, 0, 77, 79
1, 11362, Control_c, 0, 64, 60
1, 11368, Note_on_c, 0, 48, 69
1, 11376, Control_c, 0, 64, 0
1, 11406, Note_on_c, 0, 80, 81
1, 11436, Control_c, 0, 64, 46
1, 11440, Note_off_c, 0, 72, 56
1, 11451, Control_c, 0, 64, 64
1, 11466, Note_on_c, 0, 56, 94
1, 11466, Control_c, 0, 64, 78
1, 11469, Note_on_c, 0, 84, 103
1, 11481, Control_c, 0, 64, 127
1, 11485, Note_off_c, 0, 77, 63
1, 11510, Note_off_c, 0, 80, 64
1, 12304, Note_off_c, 0, 56, 49
1, 12307, Note_on_c, 0, 82, 67
1, 12381, Note_off_c, 0, 84, 53
1, 12454, Note_on_c, 0, 80, 71
1, 12476, Note_off_c, 0, 82, 60
1, 12550, Note_off_c, 0, 80, 63
1, 12576, Note_on_c, 0, 82, 60
1, 12628, Note_off_c, 0, 82, 60
1, 12636, Note_on_c, 0, 80, 61
1, 12677, Note_off_c, 0, 80, 61
1, 12694, Note_on_c, 0, 79, 57
1, 12733, Note_on_c, 0, 80, 57
1, 12734, Note_off_c, 0, 79, 60
1, 12785, Note_on_c, 0, 82, 60
1, 12792, Note_off_c, 0, 80, 60
1, 12799, Control_c, 0, 64, 118
1, 12814, Control_c, 0, 64, 99
1, 12829, Control_c, 0, 64, 80
1, 12844, Control_c, 0, 64, 65
1, 12849, Note_on_c, 0, 43, 42
1, 12849, Note_on_c, 0, 52, 60
1, 12858, Note_on_c, 0, 79, 69
1, 12858, Control_c, 0, 64, 44
1, 12871, Note_off_c, 0, 82, 61
1, 12873, Control_c, 0, 64, 25
1, 12888, Control_c, 0, 64, 37
1, 12903, Control_c, 0, 64, 53
1, 12918, Control_c, 0, 64, 61
1, 12933, Control_c, 0, 64, 67
1, 12933, Note_off_c, 0, 79, 64
1, 12938, Note_off_c, 0, 48, 37
1, 12947, Control_c, 0, 64, 77
1, 12962, Control_c, 0, 64, 98
1, 12968, Note_on_c, 0, 80, 59
1, 12971, Note_off_c, 0, 43, 56
1, 12977, Control_c, 0, 64, 127
1, 13019, Note_on_c, 0, 79, 62
1, 13028, Note_off_c, 0, 80, 59
1, 13059, Note_off_c, 0, 79, 65
1, 13078, Note_on_c, 0, 77, 64
1, 13099, Note_off_c, 0, 52, 57
1, 13109, Note_on_c, 0, 79, 60
1, 13111, Note_off_c, 0, 77, 62
1, 13159, Note_on_c, 0, 80, 66
1, 13179, Note_off_c, 0, 79, 62
1, 13215, Control_c, 0, 64, 111
1, 13222, Note_off_c, 0, 80, 63
1, 13230, Control_c, 0, 64, 87
1, 13235, Note_on_c, 0, 77, 66
1, 13245, Control_c, 0, 64, 69
1, 13246, Note_on_c, 0, 44, 48
1, 13246, Note_on_c, 0, 53, 57
1, 13260, Control_c, 0, 64, 55
1, 13275, Control_c, 0, 64, 39
1, 13289, Control_c, 0, 64, 47
1, 13304, Control_c, 0, 64, 55
1, 13312, Note_on_c, 0, 79, 64
1, 13313, Note_off_c, 0, 77, 59
1, 13319, Control_c, 0, 64, 61
1, 13341, Control_c, 0, 64, 64
1, 13356, Control_c, 0, 64, 69
1, 13371, Control_c, 0, 64, 79
1, 13383, Note_off_c, 0, 79, 61
1, 13386, Control_c, 0, 64, 95
1, 13394, Note_on_c, 0, 77, 50
1, 13401, Control_c, 0, 64, 127
1, 13441, Note_on_c, 0, 76, 59
1, 13454, Note_off_c, 0, 77, 49
1, 13483, Note_off_c, 0, 76, 62
1, 13519, Note_on_c, 0, 78, 69
1, 13563, Control_c, 0, 64, 116
1, 13571, Note_off_c, 0, 78, 55
1, 13578, Control_c, 0, 64, 96
1, 13593, Control_c, 0, 64, 78
1, 13597, Note_on_c, 0, 75, 61
1, 13609, Control_c, 0, 64, 64
1, 13621, Note_on_c, 0, 45, 40
1, 13623, Control_c, 0, 64, 51
1, 13638, Control_c, 0, 64, 50
1, 13645, Note_off_c, 0, 75, 59
1, 13653, Control_c, 0, 64, 57
1, 13668, Control_c, 0, 64, 62
1, 13672, Note_on_c, 0, 77, 60
1, 13682, Control_c, 0, 64, 66
1, 13697, Control_c, 0, 64, 70
1, 13712, Control_c, 0, 64, 78
1, 13716, Note_off_c, 0, 44, 32
1, 13727, Control_c, 0, 64, 90
1, 13737, Note_off_c, 0, 77, 52
1, 13738, Note_on_c, 0, 75, 61
1, 13741, Control_c, 0, 64, 115
1, 13756, Control_c, 0, 64, 127
1, 13782, Note_off_c, 0, 75, 56
1, 13799, Note_on_c, 0, 73, 57
1, 13846, Note_off_c, 0, 73, 61
1, 13851, Note_on_c, 0, 75, 28
1, 13876, Note_on_c, 0, 77, 59
1, 13883, Note_off_c, 0, 75, 50
1, 13935, Control_c, 0, 64, 123
1, 13950, Control_c, 0, 64, 98
1, 13960, Note_on_c, 0, 73, 69
1, 13964, Control_c, 0, 64, 78
1, 13967, Note_on_c, 0, 46, 53
1, 13979, Note_off_c, 0, 77, 53
1, 13979, Control_c, 0, 64, 64
1, 13992, Note_off_c, 0, 45, 36
1, 13994, Control_c, 0, 64, 51
1, 14009, Control_c, 0, 64, 49
1, 14021, Note_off_c, 0, 73, 64
1, 14024, Control_c, 0, 64, 57
1, 14036, Note_on_c, 0, 75, 64
1, 14038, Control_c, 0, 64, 62
1, 14053, Control_c, 0, 64, 66
1, 14068, Control_c, 0, 64, 70
1, 14091, Control_c, 0, 64, 78
1, 14099, Note_on_c, 0, 73, 62
1, 14104, Note_off_c, 0, 75, 61
1, 14106, Control_c, 0, 64, 91
1, 14120, Control_c, 0, 64, 127
1, 14196, Note_on_c, 0, 75, 65
1, 14241, Note_off_c, 0, 73, 55
1, 14265, Note_off_c, 0, 75, 61
1, 14268, Note_on_c, 0, 72, 70
1, 14304, Note_on_c, 0, 48, 68
1, 14313, Control_c, 0, 64, 80
1, 14328, Control_c, 0, 64, 61
1, 14342, Control_c, 0, 64, 15
1, 14351, Note_off_c, 0, 46, 41
1, 14357, Control_c, 0, 64, 0
1, 14362, Note_on_c, 0, 73, 67
1, 14364, Note_off_c, 0, 72, 61
1, 14372, Control_c, 0, 64, 37
1, 14387, Control_c, 0, 64, 55
1, 14402, Control_c, 0, 64, 65
1, 14417, Control_c, 0, 64, 72
1, 14431, Note_off_c, 0, 73, 62
1, 14432, Control_c, 0, 64, 86
1, 14432, Note_on_c, 0, 72, 55
1, 14446, Control_c, 0, 64, 127
1, 14475, Note_off_c, 0, 48, 61
1, 14497, Note_on_c, 0, 70, 65
1, 14560, Note_off_c, 0, 70, 63
1, 14566, Note_on_c, 0, 73, 64
1, 14579, Note_off_c, 0, 72, 31
1, 14625, Control_c, 0, 64, 117
1, 14640, Control_c, 0, 64, 103
1, 14652, Note_off_c, 0, 73, 60
1, 14654, Control_c, 0, 64, 95
1, 14667, Note_on_c, 0, 70, 71
1, 14669, Control_c, 0, 64, 85
1, 14670, Note_on_c, 0, 49, 56
1, 14684, Control_c, 0, 64, 76
1, 14699, Control_c, 0, 64, 67
1, 14712, Note_off_c, 0, 49, 63
1, 14714, Note_off_c, 0, 41, 36
1, 14714, Control_c, 0, 64, 60
1, 14728, Note_off_c, 0, 53, 53
1, 14728, Control_c, 0, 64, 51
1, 14729, Note_off_c, 0, 70, 62
1, 14743, Control_c, 0, 64, 47
1, 14747, Note_on_c, 0, 73, 50
1, 14758, Control_c, 0, 64, 44
1, 14773, Control_c, 0, 64, 39
1, 14787, Control_c, 0, 64, 33
1, 14802, Control_c, 0, 64, 23
1, 14812, Note_off_c, 0, 73, 59
1, 14817, Control_c, 0, 64, 0
1, 14846, Note_on_c, 0, 70, 66
1, 14859, Note_on_c, 0, 53, 55
1, 14861, Note_on_c, 0, 49, 47
1, 14892, Note_off_c, 0, 49, 62
1, 14892, Note_off_c, 0, 53, 65
1, 14909, Note_off_c, 0, 70, 60
1, 14928, Note_on_c, 0, 73, 56
1, 15019, Note_off_c, 0, 73, 60
1, 15021, Note_on_c, 0, 68, 70
1, 15025, Note_on_c, 0, 48, 54
1, 15028, Note_on_c, 0, 51, 61
1, 15068, Note_off_c, 0, 51, 64
1, 15071, Note_off_c, 0, 48, 62
1, 15100, Note_off_c, 0, 68, 61
1, 15110, Note_on_c, 0, 73, 64
1, 15186, Note_on_c, 0, 48, 59
1, 15188, Note_on_c, 0, 51, 68
1, 15189, Note_on_c, 0, 68, 89
1, 15194, Note_off_c, 0, 73, 63
1, 15224, Note_off_c, 0, 48, 63
1, 15224, Note_off_c, 0, 51, 66
1, 15266, Note_off_c, 0, 68, 61
1, 15272, Note_on_c, 0, 73, 71
1, 15352, Note_on_c, 0, 49, 80
1, 15356, Note_on_c, 0, 46, 69
1, 15356, Note_on_c, 0, 66, 89
1, 15368, Note_off_c, 0, 73, 64
1, 15399, Note_off_c, 0, 49, 61
1, 15406, Note_off_c, 0, 46, 60
1, 15440, Note_off_c, 0, 66, 62
1, 15442, Note_on_c, 0, 73, 75
1, 15523, Note_on_c, 0, 49, 84
1, 15526, Note_on_c, 0, 46, 70
1, 15529, Note_on_c, 0, 66, 101
1, 15550, Note_off_c, 0, 73, 63
1, 15565, Note_off_c, 0, 49, 61
1, 15574, Note_off_c, 0, 46, 57
1, 15630, Note_on_c, 0, 73, 75
1, 15630, Note_off_c, 0, 66, 63
1, 15702, Note_on_c, 0, 48, 82
1, 15703, Note_on_c, 0, 44, 79
1, 15712, Note_on_c, 0, 65, 91
1, 15742, Note_off_c, 0, 73, 64
1, 15760, Note_off_c, 0, 48, 62
1, 15789, Note_off_c, 0, 44, 60
1, 15797, Note_on_c, 0, 73, 71
1, 15798, Note_off_c, 0, 65, 59
1, 15877, Note_on_c, 0, 48, 82
1, 15881, Note_on_c, 0, 65, 98
1, 15883, Note_off_c, 0, 73, 43
1, 15884, Note_on_c, 0, 44, 82
1, 15928, Note_off_c, 0, 48, 64
1, 15964, Note_on_c, 0, 73, 87
1, 15973, Note_off_c, 0, 44, 62
1, 15983, Note_off_c, 0, 65, 63
1, 16078, Note_on_c, 0, 43, 77
1, 16079, Note_on_c, 0, 64, 96
1, 16080, Note_on_c, 0, 46, 72
1, 16114, Note_off_c, 0, 73, 66
1, 16135, Note_off_c, 0, 43, 64
1, 16136, Control_c, 0, 64, 52
1, 16151, Control_c, 0, 64, 67
1, 16157, Note_off_c, 0, 64, 66
1, 16164, Note_off_c, 0, 46, 64
1, 16166, Control_c, 0, 64, 97
1, 16182, Control_c, 0, 64, 127
1, 16300, Control_c, 0, 64, 97
1, 16315, Control_c, 0, 64, 79
1, 16337, Control_c, 0, 64, 69
1, 16352, Control_c, 0, 64, 60
1, 16367, Control_c, 0, 64, 49
1, 16381, Control_c, 0, 64, 29
1, 16396, Control_c, 0, 64, 0
1, 16576, Note_on_c, 0, 85, 96
1, 16579, Note_on_c, 0, 55, 62
1, 16580, Note_on_c, 0, 82, 85
1, 16582, Note_on_c, 0, 58, 69
1, 16584, Note_on_c, 0, 52, 66
1, 16586, Note_on_c, 0, 61, 65
1, 16587, Note_on_c, 0, 79, 76
1, 16677, Control_c, 0, 64, 45
1, 16692, Control_c, 0, 64, 62
1, 16706, Control_c, 0, 64, 73
1, 16721, Control_c, 0, 64, 119
1, 16736, Control_c, 0, 64, 127
1, 16746, Note_off_c, 0, 61, 62
1, 16772, Note_off_c, 0, 79, 55
1, 16802, Note_off_c, 0, 55, 63
1, 16803, Note_off_c, 0, 52, 62
1, 16805, Note_off_c, 0, 58, 58
1, 16823, Note_off_c, 0, 82, 61
1, 16881, Note_off_c, 0, 85, 65
1, 16885, Control_c, 0, 64, 111
1, 16899, Control_c, 0, 64, 101
1, 16914, Control_c, 0, 64, 95
1, 16929, Control_c, 0, 64, 90
1, 16944, Control_c, 0, 64, 85
1, 16958, Control_c, 0, 64, 80
1, 16974, Control_c, 0, 64, 76
1, 16989, Control_c, 0, 64, 72
1, 17004, Control_c, 0, 64, 68
1, 17019, Control_c, 0, 64, 65
1, 17034, Control_c, 0, 64, 63
1, 17048, Control_c, 0, 64, 61
1, 17063, Control_c, 0, 64, 59
1, 17085, Control_c, 0, 64, 57
1, 17100, Control_c, 0, 64, 54
1, 17115, Control_c, 0, 64, 48
1, 17130, Control_c, 0, 64, 39
1, 17145, Control_c, 0, 64, 21
1, 17159, Control_c, 0, 64, 0
1, 17529, Control_c, 0, 64, 28
1, 17544, Control_c, 0, 64, 47
1, 17559, Control_c, 0, 64, 55
1, 17574, Control_c, 0, 64, 58
1, 17589, Control_c, 0, 64, 62
1, 17604, Control_c, 0, 64, 65
1, 17618, Control_c, 0, 64, 70
1, 17633, Control_c, 0, 64, 76
1, 17648, Control_c, 0, 64, 86
1, 17663, Control_c, 0, 64, 97
1, 17678, Control_c, 0, 64, 116
1, 17693, Control_c, 0, 64, 127
1, 17741, Note_on_c, 0, 72, 45
1, 17782, Control_c, 0, 64, 113
1, 17797, Control_c, 0, 64, 104
1, 17812, Control_c, 0, 64, 98
1, 17829, Note_off_c, 0, 72, 53
1, 17830, Note_on_c, 0, 73, 49
1, 17834, Control_c, 0, 64, 92
1, 17849, Control_c, 0, 64, 86
1, 17864, Control_c, 0, 64, 81
1, 17878, Note_off_c, 0, 73, 61
1, 17878, Control_c, 0, 64, 76
1, 17880, Note_on_c, 0, 75, 60
1, 17893, Control_c, 0, 64, 72
1, 17908, Control_c, 0, 64, 69
1, 17923, Control_c, 0, 64, 67
1, 17938, Control_c, 0, 64, 65
1, 17952, Control_c, 0, 64, 63
1, 17967, Control_c, 0, 64, 61
1, 17973, Note_on_c, 0, 73, 63
1, 17982, Control_c, 0, 64, 60
1, 17997, Control_c, 0, 64, 59
1, 18012, Control_c, 0, 64, 58
1, 18027, Control_c, 0, 64, 56
1, 18042, Control_c, 0, 64, 54
1, 18057, Note_off_c, 0, 75, 52
1, 18057, Control_c, 0, 64, 53
1, 18072, Control_c, 0, 64, 51
1, 18086, Control_c, 0, 64, 48
1, 18101, Control_c, 0, 64, 45
1, 18116, Control_c, 0, 64, 43
1, 18130, Control_c, 0, 64, 42
1, 18145, Control_c, 0, 64, 40
1, 18160, Control_c, 0, 64, 38
1, 18175, Control_c, 0, 64, 33
1, 18190, Control_c, 0, 64, 29
1, 18204, Control_c, 0, 64, 26
1, 18219, Control_c, 0, 64, 24
1, 18234, Control_c, 0, 64, 21
1, 18249, Control_c, 0, 64, 15
1, 18264, Control_c, 0, 64, 0
1, 18295, Note_on_c, 0, 72, 57
1, 18307, Note_off_c, 0, 73, 57
1, 18417, Note_off_c, 0, 72, 64
1, 18468, Note_on_c, 0, 72, 43
1, 18474, Note_on_c, 0, 53, 29
1, 18485, Note_on_c, 0, 56, 29
1, 18583, Control_c, 0, 64, 20
1, 18598, Control_c, 0, 64, 36
1, 18613, Control_c, 0, 64, 48
1, 18627, Control_c, 0, 64, 56
1, 18642, Control_c, 0, 64, 61
1, 18657, Control_c, 0, 64, 64
1, 18672, Control_c, 0, 64, 67
1, 18687, Control_c, 0, 64, 71
1, 18701, Control_c, 0, 64, 77
1, 18703, Note_on_c, 0, 80, 63
1, 18716, Control_c, 0, 64, 84
1, 18724, Note_off_c, 0, 72, 53
1, 18731, Control_c, 0, 64, 91
1, 18746, Control_c, 0, 64, 97
1, 18760, Control_c, 0, 64, 98
1, 18790, Control_c, 0, 64, 97
1, 18805, Control_c, 0, 64, 96
1, 18820, Note_off_c, 0, 53, 41
1, 18820, Control_c, 0, 64, 95
1, 18829, Note_off_c, 0, 56, 41
1, 18835, Control_c, 0, 64, 94
1, 18839, Note_on_c, 0, 79, 71
1, 18849, Control_c, 0, 64, 91
1, 18864, Control_c, 0, 64, 89
1, 18879, Control_c, 0, 64, 86
1, 18882, Note_off_c, 0, 80, 64
1, 18894, Control_c, 0, 64, 82
1, 18908, Control_c, 0, 64, 78
1, 18923, Control_c, 0, 64, 75
1, 18938, Control_c, 0, 64, 73
1, 18952, Control_c, 0, 64, 71
1, 18967, Control_c, 0, 64, 68
1, 18980, Note_on_c, 0, 77, 75
1, 18982, Control_c, 0, 64, 65
1, 18997, Control_c, 0, 64, 63
1, 19008, Note_off_c, 0, 79, 63
1, 19012, Control_c, 0, 64, 61
1, 19026, Control_c, 0, 64, 59
1, 19041, Control_c, 0, 64, 57
1, 19056, Control_c, 0, 64, 54
1, 19071, Control_c, 0, 64, 52
1, 19086, Control_c, 0, 64, 50
1, 19095, Note_off_c, 0, 77, 64
1, 19100, Control_c, 0, 64, 47
1, 19103, Note_on_c, 0, 72, 74
1, 19115, Control_c, 0, 64, 44
1, 19130, Control_c, 0, 64, 42
1, 19145, Control_c, 0, 64, 41
1, 19160, Control_c, 0, 64, 40
1, 19175, Control_c, 0, 64, 39
1, 19189, Control_c, 0, 64, 37
1, 19204, Control_c, 0, 64, 33
1, 19219, Note_on_c, 0, 68, 72
1, 19219, Control_c, 0, 64, 28
1, 19221, Note_off_c, 0, 72, 58
1, 19234, Control_c, 0, 64, 21
1, 19249, Control_c, 0, 64, 15
1, 19264, Control_c, 0, 64, 9
1, 19279, Control_c, 0, 64, 0
1, 19364, Note_on_c, 0, 67, 57
1, 19369, Note_on_c, 0, 46, 40
1, 19381, Note_on_c, 0, 55, 38
1, 19385, Note_on_c, 0, 49, 34
1, 19388, Note_off_c, 0, 68, 52
1, 19479, Control_c, 0, 64, 23
1, 19494, Control_c, 0, 64, 42
1, 19509, Control_c, 0, 64, 56
1, 19520, Note_on_c, 0, 75, 66
1, 19522, Note_off_c, 0, 67, 51
1, 19523, Control_c, 0, 64, 64
1, 19538, Control_c, 0, 64, 70
1, 19553, Control_c, 0, 64, 81
1, 19568, Control_c, 0, 64, 100
1, 19583, Control_c, 0, 64, 127
1, 19619, Note_off_c, 0, 55, 58
1, 19626, Note_off_c, 0, 46, 41
1, 19631, Note_on_c, 0, 72, 77
1, 19643, Control_c, 0, 64, 119
1, 19643, Note_off_c, 0, 49, 38
1, 19654, Note_off_c, 0, 75, 61
1, 19657, Control_c, 0, 64, 108
1, 19672, Control_c, 0, 64, 99
1, 19687, Control_c, 0, 64, 90
1, 19702, Control_c, 0, 64, 80
1, 19717, Control_c, 0, 64, 74
1, 19731, Control_c, 0, 64, 69
1, 19746, Control_c, 0, 64, 66
1, 19750, Note_on_c, 0, 73, 82
1, 19761, Control_c, 0, 64, 63
1, 19775, Control_c, 0, 64, 60
1, 19785, Note_off_c, 0, 72, 61
1, 19790, Control_c, 0, 64, 56
1, 19805, Control_c, 0, 64, 52
1, 19820, Control_c, 0, 64, 48
1, 19835, Control_c, 0, 64, 42
1, 19849, Control_c, 0, 64, 30
1, 19864, Control_c, 0, 64, 0
1, 19871, Note_on_c, 0, 70, 77
1, 19917, Note_off_c, 0, 73, 60
1, 19988, Note_on_c, 0, 67, 74
1, 19990, Note_off_c, 0, 70, 58
1, 20113, Note_on_c, 0, 65, 75
1, 20116, Note_on_c, 0, 48, 41
1, 20119, Note_on_c, 0, 53, 47
1, 20122, Note_on_c, 0, 56, 49
1, 20138, Control_c, 0, 64, 45
1, 20153, Control_c, 0, 64, 61
1, 20168, Control_c, 0, 64, 68
1, 20184, Control_c, 0, 64, 76
1, 20190, Note_off_c, 0, 67, 21
1, 20198, Control_c, 0, 64, 86
1, 20208, Note_off_c, 0, 48, 62
1, 20213, Control_c, 0, 64, 102
1, 20223, Note_off_c, 0, 53, 63
1, 20226, Note_off_c, 0, 56, 64
1, 20228, Control_c, 0, 64, 127
1, 20234, Note_off_c, 0, 65, 57
1, 20251, Note_on_c, 0, 60, 61
1, 20272, Control_c, 0, 64, 118
1, 20287, Control_c, 0, 64, 111
1, 20302, Control_c, 0, 64, 106
1, 20317, Control_c, 0, 64, 98
1, 20332, Control_c, 0, 64, 90
1, 20345, Note_on_c, 0, 65, 75
1, 20346, Control_c, 0, 64, 82
1, 20347, Note_off_c, 0, 60, 57
1, 20361, Control_c, 0, 64, 78
1, 20376, Control_c, 0, 64, 75
1, 20391, Control_c, 0, 64, 74
1, 20406, Control_c, 0, 64, 72
1, 20421, Control_c, 0, 64, 70
1, 20435, Control_c, 0, 64, 68
1, 20450, Control_c, 0, 64, 65
1, 20455, Note_on_c, 0, 56, 62
1, 20463, Note_on_c, 0, 68, 73
1, 20465, Control_c, 0, 64, 63
1, 20480, Control_c, 0, 64, 62
1, 20480, Note_off_c, 0, 65, 60
1, 20495, Control_c, 0, 64, 59
1, 20510, Control_c, 0, 64, 57
1, 20525, Control_c, 0, 64, 54
1, 20540, Control_c, 0, 64, 49
1, 20554, Control_c, 0, 64, 45
1, 20561, Note_on_c, 0, 53, 71
1, 20569, Control_c, 0, 64, 40
1, 20576, Note_on_c, 0, 65, 83
1, 20584, Control_c, 0, 64, 31
1, 20588, Note_off_c, 0, 68, 59
1, 20598, Control_c, 0, 64, 0
1, 20608, Note_off_c, 0, 56, 61
1, 20671, Note_on_c, 0, 61, 69
1, 20673, Note_on_c, 0, 73, 85
1, 20696, Note_off_c, 0, 65, 60
1, 20711, Note_off_c, 0, 53, 62
1, 20777, Note_on_c, 0, 60, 81
1, 20788, Note_off_c, 0, 61, 63
1, 20789, Note_on_c, 0, 72, 88
1, 20826, Note_off_c, 0, 73, 60
1, 20872, Control_c, 0, 64, 39
1, 20881, Note_off_c, 0, 60, 66
1, 20887, Control_c, 0, 64, 64
1, 20892, Note_off_c, 0, 72, 67
1, 20902, Control_c, 0, 64, 81
1, 20917, Control_c, 0, 64, 127
1, 20992, Control_c, 0, 64, 83
1, 21007, Control_c, 0, 64, 59
1, 21021, Control_c, 0, 64, 0
1, 21192, Note_on_c, 0, 60, 74
1, 21193, Note_on_c, 0, 76, 97
1, 21196, Note_on_c, 0, 48, 74
1, 21196, Note_on_c, 0, 67, 88
1, 21199, Note_on_c, 0, 72, 83
1, 21215, Control_c, 0, 64, 48
1, 21229, Control_c, 0, 64, 67
1, 21244, Control_c, 0, 64, 99
1, 21257, Note_off_c, 0, 60, 66
1, 21259, Control_c, 0, 64, 127
1, 21269, Note_on_c, 0, 51, 29
1, 21270, Note_off_c, 0, 72, 60
1, 21275, Note_off_c, 0, 67, 62
1, 21278, Note_off_c, 0, 48, 62
1, 21308, Note_off_c, 0, 76, 63
1, 21311, Note_off_c, 0, 51, 41
1, 21348, Control_c, 0, 64, 103
1, 21363, Control_c, 0, 64, 81
1, 21377, Control_c, 0, 64, 65
1, 21392, Control_c, 0, 64, 50
1, 21407, Control_c, 0, 64, 16
1, 21422, Control_c, 0, 64, 0
1, 21634, Note_on_c, 0, 41, 74
1, 21638, Note_on_c, 0, 53, 78
1, 21640, Note_on_c, 0, 77, 92
1, 21643, Note_on_c, 0, 68, 86
1, 21647, Note_on_c, 0, 72, 80
1, 21667, Control_c, 0, 64, 9
1, 21681, Control_c, 0, 64, 62
1, 21696, Control_c, 0, 64, 76
1, 21703, Note_off_c, 0, 72, 64
1, 21710, Note_off_c, 0, 41, 64
1, 21711, Control_c, 0, 64, 127
1, 21725, Note_off_c, 0, 68, 61
1, 21728, Note_off_c, 0, 77, 65
1, 21730, Note_off_c, 0, 53, 63
1, 21845, Control_c, 0, 64, 113
1, 21860, Control_c, 0, 64, 95
1, 21875, Control_c, 0, 64, 87
1, 21890, Control_c, 0, 64, 82
1, 21905, Control_c, 0, 64, 78
1, 21920, Control_c, 0, 64, 73
1, 21934, Control_c, 0, 64, 69
1, 21949, Control_c, 0, 64, 64
1, 21950, Note_on_c, 0, 68, 47
1, 21964, Control_c, 0, 64, 61
1, 21979, Control_c, 0, 64, 56
1, 21993, Control_c, 0, 64, 50
1, 22004, Note_off_c, 0, 68, 54
1, 22008, Control_c, 0, 64, 32
1, 22023, Control_c, 0, 64, 0
1, 22031, Note_on_c, 0, 72, 49
1, 22087, Note_off_c, 0, 72, 57
1, 22129, Note_on_c, 0, 68, 43
1, 22148, Note_on_c, 0, 53, 40
1, 22152, Note_on_c, 0, 65, 36
1, 22156, Control_c, 0, 64, 42
1, 22170, Control_c, 0, 64, 56
1, 22182, Note_off_c, 0, 68, 59
1, 22185, Control_c, 0, 64, 62
1, 22200, Control_c, 0, 64, 66
1, 22215, Control_c, 0, 64, 71
1, 22225, Note_on_c, 0, 72, 36
1, 22230, Control_c, 0, 64, 79
1, 22245, Control_c, 0, 64, 89
1, 22258, Note_off_c, 0, 72, 52
1, 22260, Control_c, 0, 64, 98
1, 22275, Control_c, 0, 64, 99
1, 22304, Control_c, 0, 64, 99
1, 22307, Note_on_c, 0, 68, 38
1, 22326, Control_c, 0, 64, 98
1, 22341, Control_c, 0, 64, 96
1, 22356, Control_c, 0, 64, 94
1, 22357, Note_off_c, 0, 68, 45
1, 22370, Control_c, 0, 64, 92
1, 22371, Note_on_c, 0, 72, 49
1, 22383, Note_off_c, 0, 53, 41
1, 22385, Control_c, 0, 64, 92
1, 22400, Control_c, 0, 64, 91
1, 22404, Note_off_c, 0, 65, 35
1, 22415, Control_c, 0, 64, 89
1, 22430, Control_c, 0, 64, 83
1, 22445, Control_c, 0, 64, 72
1, 22459, Control_c, 0, 64, 62
1, 22474, Control_c, 0, 64, 44
1, 22489, Control_c, 0, 64, 35
1, 22491, Note_on_c, 0, 67, 47
1, 22504, Control_c, 0, 64, 42
1, 22519, Control_c, 0, 64, 50
1, 22530, Note_off_c, 0, 72, 35
1, 22534, Control_c, 0, 64, 57
1, 22549, Control_c, 0, 64, 61
1, 22558, Note_off_c, 0, 67, 51
1, 22564, Control_c, 0, 64, 63
1, 22573, Note_on_c, 0, 71, 44
1, 22579, Control_c, 0, 64, 66
1, 22594, Control_c, 0, 64, 69
1, 22609, Control_c, 0, 64, 73
1, 22623, Control_c, 0, 64, 77
1, 22638, Control_c, 0, 64, 80
1, 22653, Control_c, 0, 64, 81
1, 22662, Note_on_c, 0, 68, 44
1, 22689, Note_off_c, 0, 71, 35
1, 22697, Control_c, 0, 64, 80
1, 22716, Note_off_c, 0, 68, 56
1, 22727, Control_c, 0, 64, 80
1, 22742, Control_c, 0, 64, 79
1, 22749, Note_on_c, 0, 72, 40
1, 22756, Control_c, 0, 64, 79
1, 22771, Control_c, 0, 64, 78
1, 22786, Control_c, 0, 64, 75
1, 22800, Control_c, 0, 64, 70
1, 22815, Control_c, 0, 64, 63
1, 22830, Control_c, 0, 64, 52
1, 22838, Note_on_c, 0, 53, 36
1, 22838, Note_off_c, 0, 72, 38
1, 22844, Note_on_c, 0, 65, 36
1, 22845, Control_c, 0, 64, 46
1, 22847, Note_on_c, 0, 68, 46
1, 22860, Control_c, 0, 64, 47
1, 22874, Control_c, 0, 64, 51
1, 22889, Control_c, 0, 64, 56
1, 22902, Note_off_c, 0, 68, 58
1, 22904, Control_c, 0, 64, 60
1, 22917, Note_on_c, 0, 72, 29
1, 22919, Control_c, 0, 64, 63
1, 22934, Control_c, 0, 64, 65
1, 22948, Control_c, 0, 64, 68
1, 22963, Control_c, 0, 64, 74
1, 22978, Control_c, 0, 64, 80
1, 22987, Note_off_c, 0, 72, 54
1, 22993, Control_c, 0, 64, 87
1, 23008, Control_c, 0, 64, 92
1, 23015, Note_on_c, 0, 68, 49
1, 23023, Control_c, 0, 64, 93
1, 23038, Control_c, 0, 64, 93
1, 23053, Control_c, 0, 64, 92
1, 23071, Note_off_c, 0, 68, 59
1, 23074, Control_c, 0, 64, 92
1, 23089, Control_c, 0, 64, 91
1, 23090, Note_on_c, 0, 72, 49
1, 23104, Control_c, 0, 64, 90
1, 23117, Note_off_c, 0, 53, 41
1, 23119, Control_c, 0, 64, 90
1, 23128, Note_off_c, 0, 65, 35
1, 23134, Control_c, 0, 64, 89
1, 23148, Control_c, 0, 64, 87
1, 23151, Note_off_c, 0, 72, 56
1, 23163, Control_c, 0, 64, 80
1, 23178, Control_c, 0, 64, 69
1, 23193, Note_on_c, 0, 69, 56
1, 23193, Control_c, 0, 64, 59
1, 23208, Control_c, 0, 64, 45
1, 23237, Control_c, 0, 64, 48
1, 23252, Control_c, 0, 64, 54
1, 23267, Control_c, 0, 64, 59
1, 23279, Note_on_c, 0, 75, 54
1, 23282, Control_c, 0, 64, 63
1, 23288, Note_off_c, 0, 69, 53
1, 23297, Control_c, 0, 64, 66
1, 23312, Control_c, 0, 64, 69
1, 23327, Control_c, 0, 64, 73
1, 23341, Control_c, 0, 64, 79
1, 23356, Control_c, 0, 64, 86
1, 23367, Note_on_c, 0, 70, 55
1, 23372, Control_c, 0, 64, 90
1, 23381, Note_off_c, 0, 75, 56
1, 23387, Control_c, 0, 64, 91
1, 23431, Control_c, 0, 64, 90
1, 23437, Note_off_c, 0, 70, 61
1, 23444, Note_on_c, 0, 73, 61
1, 23461, Control_c, 0, 64, 90
1, 23476, Control_c, 0, 64, 89
1, 23490, Control_c, 0, 64, 87
1, 23505, Control_c, 0, 64, 82
1, 23520, Control_c, 0, 64, 70
1, 23535, Note_on_c, 0, 53, 38
1, 23535, Control_c, 0, 64, 60
1, 23538, Note_on_c, 0, 65, 36
1, 23541, Note_off_c, 0, 73, 61
1, 23544, Note_on_c, 0, 70, 65
1, 23550, Control_c, 0, 64, 48
1, 23579, Control_c, 0, 64, 51
1, 23594, Control_c, 0, 64, 55
1, 23609, Control_c, 0, 64, 60
1, 23610, Note_off_c, 0, 70, 64
1, 23610, Note_on_c, 0, 73, 66
1, 23623, Control_c, 0, 64, 63
1, 23638, Control_c, 0, 64, 66
1, 23653, Control_c, 0, 64, 70
1, 23668, Control_c, 0, 64, 76
1, 23683, Control_c, 0, 64, 85
1, 23694, Note_off_c, 0, 73, 65
1, 23697, Control_c, 0, 64, 99
1, 23703, Note_on_c, 0, 70, 73
1, 23712, Control_c, 0, 64, 127
1, 23761, Note_off_c, 0, 53, 42
1, 23772, Note_on_c, 0, 73, 79
1, 23783, Note_off_c, 0, 70, 62
1, 23788, Note_off_c, 0, 65, 45
1, 23835, Note_off_c, 0, 73, 66
1, 23868, Control_c, 0, 64, 105
1, 23883, Control_c, 0, 64, 84
1, 23888, Note_on_c, 0, 73, 66
1, 23897, Control_c, 0, 64, 66
1, 23912, Control_c, 0, 64, 52
1, 23927, Control_c, 0, 64, 42
1, 23942, Control_c, 0, 64, 44
1, 23957, Control_c, 0, 64, 50
1, 23971, Control_c, 0, 64, 56
1, 23980, Note_on_c, 0, 77, 68
1, 23982, Note_off_c, 0, 73, 63
1, 23986, Control_c, 0, 64, 62
1, 24001, Control_c, 0, 64, 65
1, 24016, Control_c, 0, 64, 68
1, 24030, Control_c, 0, 64, 73
1, 24045, Control_c, 0, 64, 79
1, 24060, Control_c, 0, 64, 87
1, 24075, Note_on_c, 0, 70, 66
1, 24075, Control_c, 0, 64, 94
1, 24090, Control_c, 0, 64, 94
1, 24092, Note_off_c, 0, 77, 46
1, 24135, Control_c, 0, 64, 94
1, 24146, Note_off_c, 0, 70, 61
1, 24150, Control_c, 0, 64, 93
1, 24165, Control_c, 0, 64, 92
1, 24173, Note_on_c, 0, 73, 59
1, 24180, Control_c, 0, 64, 88
1, 24194, Control_c, 0, 64, 79
1, 24209, Control_c, 0, 64, 68
1, 24224, Control_c, 0, 64, 56
1, 24239, Note_off_c, 0, 73, 56
1, 24239, Control_c, 0, 64, 41
1, 24246, Note_on_c, 0, 65, 32
1, 24250, Note_on_c, 0, 53, 31
1, 24254, Control_c, 0, 64, 41
1, 24256, Note_on_c, 0, 68, 56
1, 24269, Control_c, 0, 64, 48
1, 24284, Control_c, 0, 64, 55
1, 24299, Control_c, 0, 64, 60
1, 24313, Control_c, 0, 64, 64
1, 24318, Note_off_c, 0, 68, 59
1, 24328, Control_c, 0, 64, 67
1, 24343, Control_c, 0, 64, 71
1, 24348, Note_on_c, 0, 73, 61
1, 24358, Control_c, 0, 64, 79
1, 24373, Control_c, 0, 64, 87
1, 24387, Control_c, 0, 64, 96
1, 24391, Note_off_c, 0, 73, 61
1, 24402, Control_c, 0, 64, 101
1, 24406, Note_off_c, 0, 65, 49
1, 24414, Note_off_c, 0, 53, 38
1, 24417, Control_c, 0, 64, 101
1, 24427, Note_on_c, 0, 67, 61
1, 24432, Control_c, 0, 64, 100
1, 24446, Control_c, 0, 64, 99
1, 24461, Control_c, 0, 64, 99
1, 24476, Control_c, 0, 64, 98
1, 24491, Control_c, 0, 64, 97
1, 24492, Note_off_c, 0, 67, 55
1, 24506, Control_c, 0, 64, 97
1, 24508, Note_on_c, 0, 73, 63
1, 24520, Control_c, 0, 64, 95
1, 24535, Control_c, 0, 64, 94
1, 24550, Control_c, 0, 64, 89
1, 24570, Note_off_c, 0, 73, 50
1, 24573, Control_c, 0, 64, 81
1, 24588, Control_c, 0, 64, 69
1, 24602, Control_c, 0, 64, 58
1, 24608, Note_on_c, 0, 68, 54
1, 24617, Control_c, 0, 64, 37
1, 24632, Control_c, 0, 64, 35
1, 24646, Control_c, 0, 64, 43
1, 24661, Control_c, 0, 64, 52
1, 24662, Note_off_c, 0, 68, 58
1, 24676, Control_c, 0, 64, 59
1, 24686, Note_on_c, 0, 73, 60
1, 24691, Control_c, 0, 64, 63
1, 24706, Control_c, 0, 64, 65
1, 24720, Control_c, 0, 64, 67
1, 24735, Control_c, 0, 64, 72
1, 24750, Control_c, 0, 64, 78
1, 24764, Note_off_c, 0, 73, 54
1, 24765, Control_c, 0, 64, 84
1, 24775, Note_on_c, 0, 68, 52
1, 24779, Control_c, 0, 64, 89
1, 24794, Control_c, 0, 64, 93
1, 24809, Control_c, 0, 64, 94
1, 24831, Note_off_c, 0, 68, 57
1, 24839, Control_c, 0, 64, 92
1, 24848, Note_on_c, 0, 72, 56
1, 24853, Control_c, 0, 64, 86
1, 24868, Control_c, 0, 64, 76
1, 24883, Control_c, 0, 64, 65
1, 24898, Control_c, 0, 64, 50
1, 24913, Control_c, 0, 64, 43
1, 24925, Note_off_c, 0, 72, 62
1, 24928, Control_c, 0, 64, 49
1, 24933, Note_on_c, 0, 53, 40
1, 24933, Note_on_c, 0, 65, 38
1, 24943, Control_c, 0, 64, 56
1, 24944, Note_on_c, 0, 68, 63
1, 24957, Control_c, 0, 64, 61
1, 24973, Control_c, 0, 64, 65
1, 24988, Control_c, 0, 64, 70
1, 24990, Note_off_c, 0, 68, 59
1, 25002, Note_off_c, 0, 65, 63
1, 25003, Control_c, 0, 64, 78
1, 25010, Note_on_c, 0, 72, 57
1, 25014, Note_off_c, 0, 53, 60
1, 25017, Control_c, 0, 64, 89
1, 25032, Control_c, 0, 64, 96
1, 25047, Control_c, 0, 64, 95
1, 25062, Control_c, 0, 64, 92
1, 25077, Control_c, 0, 64, 88
1, 25084, Note_off_c, 0, 72, 63
1, 25092, Control_c, 0, 64, 85
1, 25095, Note_on_c, 0, 68, 67
1, 25107, Control_c, 0, 64, 81
1, 25121, Control_c, 0, 64, 78
1, 25136, Control_c, 0, 64, 76
1, 25151, Control_c, 0, 64, 73
1, 25162, Note_off_c, 0, 68, 58
1, 25166, Control_c, 0, 64, 71
1, 25175, Note_on_c, 0, 72, 53
1, 25181, Control_c, 0, 64, 68
1, 25196, Control_c, 0, 64, 66
1, 25210, Control_c, 0, 64, 64
1, 25225, Control_c, 0, 64, 62
1, 25240, Control_c, 0, 64, 60
1, 25255, Control_c, 0, 64, 60
1, 25265, Note_off_c, 0, 72, 61
1, 25269, Control_c, 0, 64, 59
1, 25273, Note_on_c, 0, 46, 49
1, 25279, Note_on_c, 0, 68, 68
1, 25284, Control_c, 0, 64, 56
1, 25299, Control_c, 0, 64, 52
1, 25321, Control_c, 0, 64, 51
1, 25336, Control_c, 0, 64, 50
1, 25351, Control_c, 0, 64, 47
1, 25366, Control_c, 0, 64, 45
1, 25378, Note_off_c, 0, 68, 60
1, 25381, Note_on_c, 0, 72, 64
1, 25381, Control_c, 0, 64, 42
1, 25385, Note_off_c, 0, 46, 63
1, 25395, Control_c, 0, 64, 41
1, 25410, Control_c, 0, 64, 40
1, 25425, Control_c, 0, 64, 38
1, 25440, Control_c, 0, 64, 37
1, 25455, Note_on_c, 0, 66, 66
1, 25455, Note_off_c, 0, 72, 60
1, 25455, Control_c, 0, 64, 36
1, 25469, Control_c, 0, 64, 35
1, 25484, Control_c, 0, 64, 34
1, 25499, Control_c, 0, 64, 33
1, 25514, Control_c, 0, 64, 30
1, 25527, Note_off_c, 0, 66, 61
1, 25529, Control_c, 0, 64, 27
1, 25543, Note_on_c, 0, 70, 62
1, 25543, Control_c, 0, 64, 24
1, 25558, Control_c, 0, 64, 22
1, 25573, Control_c, 0, 64, 20
1, 25589, Control_c, 0, 64, 19
1, 25603, Control_c, 0, 64, 17
1, 25618, Control_c, 0, 64, 16
1, 25625, Note_on_c, 0, 58, 45
1, 25633, Control_c, 0, 64, 13
1, 25634, Note_on_c, 0, 66, 58
1, 25634, Note_off_c, 0, 70, 59
1, 25648, Control_c, 0, 64, 11
1, 25663, Control_c, 0, 64, 9
1, 25692, Control_c, 0, 64, 0
1, 25694, Note_off_c, 0, 66, 60
1, 25697, Note_off_c, 0, 58, 64
1, 25715, Note_on_c, 0, 70, 59
1, 25794, Note_off_c, 0, 70, 62
1, 25795, Note_on_c, 0, 66, 70
1, 25857, Note_off_c, 0, 66, 62
1, 25864, Note_on_c, 0, 70, 56
1, 25943, Note_off_c, 0, 70, 62
1, 25944, Note_on_c, 0, 48, 56
1, 25945, Control_c, 0, 64, 9
1, 25950, Note_on_c, 0, 66, 69
1, 25959, Control_c, 0, 64, 46
1, 25974, Control_c, 0, 64, 61
1, 25989, Control_c, 0, 64, 67
1, 26004, Control_c, 0, 64, 72
1, 26019, Control_c, 0, 64, 76
1, 26025, Note_off_c, 0, 48, 63
1, 26034, Control_c, 0, 64, 75
1, 26034, Note_off_c, 0, 66, 61
1, 26040, Note_on_c, 0, 70, 71
1, 26048, Control_c, 0, 64, 72
1, 26071, Control_c, 0, 64, 68
1, 26086, Control_c, 0, 64, 65
1, 26100, Control_c, 0, 64, 63
1, 26108, Note_off_c, 0, 70, 63
1, 26115, Control_c, 0, 64, 60
1, 26126, Note_on_c, 0, 65, 67
1, 26130, Control_c, 0, 64, 57
1, 26145, Control_c, 0, 64, 53
1, 26160, Control_c, 0, 64, 49
1, 26174, Control_c, 0, 64, 45
1, 26189, Control_c, 0, 64, 41
1, 26203, Note_off_c, 0, 65, 60
1, 26204, Note_on_c, 0, 68, 65
1, 26204, Control_c, 0, 64, 37
1, 26218, Control_c, 0, 64, 31
1, 26233, Control_c, 0, 64, 24
1, 26248, Control_c, 0, 64, 22
1, 26263, Control_c, 0, 64, 21
1, 26278, Control_c, 0, 64, 20
1, 26286, Note_off_c, 0, 68, 60
1, 26289, Note_on_c, 0, 53, 45
1, 26291, Note_on_c, 0, 65, 64
1, 26293, Note_on_c, 0, 56, 45
1, 26293, Control_c, 0, 64, 17
1, 26308, Control_c, 0, 64, 16
1, 26323, Control_c, 0, 64, 13
1, 26338, Control_c, 0, 64, 12
1, 26353, Control_c, 0, 64, 9
1, 26363, Note_off_c, 0, 65, 62
1, 26367, Control_c, 0, 64, 0
1, 26373, Note_off_c, 0, 53, 64
1, 26375, Note_off_c, 0, 56, 64
1, 26379, Note_on_c, 0, 68, 55
1, 26440, Note_off_c, 0, 68, 58
1, 26457, Note_on_c, 0, 65, 53
1, 26514, Note_off_c, 0, 65, 60
1, 26537, Note_on_c, 0, 68, 45
1, 26633, Note_on_c, 0, 48, 44
1, 26641, Note_on_c, 0, 65, 38
1, 26696, Note_off_c, 0, 48, 60
1, 26705, Note_off_c, 0, 65, 57
1, 26790, Note_off_c, 0, 68, 53
1, 26800, Note_on_c, 0, 64, 46
1, 26862, Note_off_c, 0, 64, 57
1, 26885, Note_on_c, 0, 67, 52
1, 26938, Note_off_c, 0, 67, 57
1, 26973, Note_on_c, 0, 64, 53
1, 26979, Note_on_c, 0, 55, 36
1, 26979, Note_on_c, 0, 52, 33
1, 27025, Note_off_c, 0, 64, 58
1, 27062, Note_off_c, 0, 55, 64
1, 27065, Note_on_c, 0, 67, 45
1, 27079, Note_off_c, 0, 52, 62
1, 27099, Note_off_c, 0, 67, 59
1, 27134, Note_on_c, 0, 64, 50
1, 27199, Note_off_c, 0, 64, 48
1, 27213, Note_on_c, 0, 67, 43
1, 27289, Note_off_c, 0, 67, 47
1, 27315, Note_on_c, 0, 41, 39
1, 27321, Note_on_c, 0, 65, 43
1, 27352, Control_c, 0, 64, 24
1, 27368, Control_c, 0, 64, 54
1, 27383, Control_c, 0, 64, 63
1, 27393, Note_off_c, 0, 65, 64
1, 27396, Note_off_c, 0, 41, 64
1, 27398, Control_c, 0, 64, 69
1, 27412, Control_c, 0, 64, 76
1, 27427, Control_c, 0, 64, 83
1, 27442, Control_c, 0, 64, 86
1, 27457, Control_c, 0, 64, 85
1, 27471, Control_c, 0, 64, 84
1, 27486, Control_c, 0, 64, 84
1, 27501, Control_c, 0, 64, 83
1, 27516, Control_c, 0, 64, 82
1, 27531, Control_c, 0, 64, 79
1, 27545, Control_c, 0, 64, 76
1, 27568, Control_c, 0, 64, 73
1, 27583, Control_c, 0, 64, 70
1, 27591, Note_on_c, 0, 68, 39
1, 27598, Control_c, 0, 64, 69
1, 27612, Control_c, 0, 64, 68
1, 27627, Control_c, 0, 64, 67
1, 27642, Note_off_c, 0, 68, 54
1, 27642, Control_c, 0, 64, 66
1, 27657, Control_c, 0, 64, 63
1, 27660, Note_on_c, 0, 72, 42
1, 27671, Control_c, 0, 64, 56
1, 27686, Control_c, 0, 64, 43
1, 27701, Control_c, 0, 64, 33
1, 27716, Control_c, 0, 64, 32
1, 27718, Note_off_c, 0, 72, 57
1, 27731, Control_c, 0, 64, 32
1, 27745, Control_c, 0, 64, 36
1, 27751, Note_on_c, 0, 53, 39
1, 27760, Control_c, 0, 64, 45
1, 27761, Note_on_c, 0, 68, 36
1, 27764, Note_on_c, 0, 65, 29
1, 27775, Control_c, 0, 64, 54
1, 27790, Control_c, 0, 64, 60
1, 27805, Control_c, 0, 64, 64
1, 27813, Note_off_c, 0, 68, 57
1, 27819, Control_c, 0, 64, 67
1, 27834, Control_c, 0, 64, 71
1, 27836, Note_on_c, 0, 72, 36
1, 27849, Control_c, 0, 64, 77
1, 27863, Control_c, 0, 64, 86
1, 27878, Control_c, 0, 64, 97
1, 27880, Note_off_c, 0, 72, 56
1, 27893, Control_c, 0, 64, 105
1, 27908, Control_c, 0, 64, 106
1, 27910, Note_on_c, 0, 68, 36
1, 27923, Control_c, 0, 64, 106
1, 27937, Control_c, 0, 64, 105
1, 27952, Control_c, 0, 64, 104
1, 27967, Control_c, 0, 64, 104
1, 27969, Note_on_c, 0, 72, 37
1, 27982, Control_c, 0, 64, 102
1, 27986, Note_off_c, 0, 68, 38
1, 27989, Note_off_c, 0, 53, 42
1, 27997, Control_c, 0, 64, 99
1, 28004, Note_off_c, 0, 65, 39
1, 28011, Control_c, 0, 64, 92
1, 28026, Control_c, 0, 64, 82
1, 28041, Control_c, 0, 64, 71
1, 28055, Control_c, 0, 64, 62
1, 28070, Control_c, 0, 64, 52
1, 28084, Note_on_c, 0, 67, 48
1, 28085, Control_c, 0, 64, 50
1, 28100, Control_c, 0, 64, 53
1, 28110, Note_off_c, 0, 72, 35
1, 28115, Control_c, 0, 64, 58
1, 28129, Control_c, 0, 64, 62
1, 28144, Control_c, 0, 64, 65
1, 28151, Note_on_c, 0, 71, 47
1, 28160, Control_c, 0, 64, 69
1, 28162, Note_off_c, 0, 67, 51
1, 28175, Control_c, 0, 64, 75
1, 28190, Control_c, 0, 64, 81
1, 28205, Control_c, 0, 64, 88
1, 28220, Control_c, 0, 64, 93
1, 28234, Control_c, 0, 64, 96
1, 28247, Note_off_c, 0, 71, 55
1, 28249, Note_on_c, 0, 68, 53
1, 28249, Control_c, 0, 64, 96
1, 28317, Note_off_c, 0, 68, 56
1, 28331, Control_c, 0, 64, 95
1, 28333, Note_on_c, 0, 72, 49
1, 28346, Control_c, 0, 64, 93
1, 28360, Control_c, 0, 64, 87
1, 28375, Control_c, 0, 64, 73
1, 28390, Control_c, 0, 64, 63
1, 28405, Control_c, 0, 64, 50
1, 28417, Note_on_c, 0, 53, 38
1, 28420, Control_c, 0, 64, 47
1, 28421, Note_on_c, 0, 65, 34
1, 28435, Note_off_c, 0, 72, 56
1, 28435, Control_c, 0, 64, 49
1, 28440, Note_on_c, 0, 68, 55
1, 28449, Control_c, 0, 64, 54
1, 28464, Control_c, 0, 64, 59
1, 28479, Control_c, 0, 64, 62
1, 28490, Note_off_c, 0, 68, 60
1, 28493, Control_c, 0, 64, 65
1, 28496, Note_on_c, 0, 72, 40
1, 28508, Control_c, 0, 64, 69
1, 28523, Control_c, 0, 64, 76
1, 28538, Control_c, 0, 64, 88
1, 28553, Control_c, 0, 64, 114
1, 28567, Control_c, 0, 64, 127
1, 28574, Note_off_c, 0, 72, 62
1, 28592, Note_on_c, 0, 68, 63
1, 28614, Note_off_c, 0, 53, 40
1, 28633, Note_off_c, 0, 65, 39
1, 28647, Note_on_c, 0, 72, 60
1, 28651, Note_off_c, 0, 68, 60
1, 28716, Control_c, 0, 64, 104
1, 28731, Control_c, 0, 64, 83
1, 28734, Note_off_c, 0, 72, 62
1, 28746, Control_c, 0, 64, 66
1, 28760, Note_on_c, 0, 69, 69
1, 28760, Control_c, 0, 64, 51
1, 28775, Control_c, 0, 64, 41
1, 28790, Control_c, 0, 64, 46
1, 28804, Control_c, 0, 64, 54
1, 28819, Control_c, 0, 64, 60
1, 28834, Control_c, 0, 64, 64
1, 28849, Control_c, 0, 64, 67
1, 28850, Note_on_c, 0, 75, 68
1, 28855, Note_off_c, 0, 69, 60
1, 28864, Control_c, 0, 64, 72
1, 28878, Control_c, 0, 64, 80
1, 28893, Control_c, 0, 64, 90
1, 28908, Control_c, 0, 64, 101
1, 28923, Control_c, 0, 64, 113
1, 28938, Control_c, 0, 64, 117
1, 28940, Note_on_c, 0, 70, 67
1, 28964, Note_off_c, 0, 75, 60
1, 29019, Note_on_c, 0, 73, 73
1, 29020, Note_off_c, 0, 70, 63
1, 29028, Control_c, 0, 64, 116
1, 29043, Control_c, 0, 64, 111
1, 29065, Control_c, 0, 64, 103
1, 29080, Control_c, 0, 64, 89
1, 29095, Control_c, 0, 64, 73
1, 29109, Control_c, 0, 64, 59
1, 29113, Note_on_c, 0, 58, 44
1, 29117, Note_off_c, 0, 73, 62
1, 29118, Note_on_c, 0, 65, 45
1, 29122, Note_on_c, 0, 70, 76
1, 29124, Control_c, 0, 64, 41
1, 29139, Control_c, 0, 64, 43
1, 29154, Control_c, 0, 64, 50
1, 29169, Control_c, 0, 64, 56
1, 29183, Control_c, 0, 64, 61
1, 29198, Control_c, 0, 64, 65
1, 29199, Note_on_c, 0, 73, 80
1, 29199, Note_off_c, 0, 70, 64
1, 29213, Control_c, 0, 64, 70
1, 29228, Control_c, 0, 64, 78
1, 29242, Control_c, 0, 64, 95
1, 29257, Control_c, 0, 64, 127
1, 29280, Note_off_c, 0, 73, 63
1, 29289, Note_on_c, 0, 70, 81
1, 29326, Note_off_c, 0, 65, 58
1, 29357, Note_on_c, 0, 73, 81
1, 29360, Note_off_c, 0, 58, 58
1, 29364, Note_off_c, 0, 70, 64
1, 29402, Note_off_c, 0, 73, 67
1, 29435, Control_c, 0, 64, 107
1, 29450, Control_c, 0, 64, 85
1, 29465, Control_c, 0, 64, 69
1, 29471, Note_on_c, 0, 73, 71
1, 29479, Control_c, 0, 64, 51
1, 29494, Control_c, 0, 64, 28
1, 29509, Control_c, 0, 64, 30
1, 29524, Control_c, 0, 64, 36
1, 29539, Control_c, 0, 64, 44
1, 29554, Control_c, 0, 64, 52
1, 29554, Note_off_c, 0, 73, 62
1, 29560, Note_on_c, 0, 77, 70
1, 29569, Control_c, 0, 64, 58
1, 29583, Control_c, 0, 64, 62
1, 29598, Control_c, 0, 64, 66
1, 29613, Control_c, 0, 64, 70
1, 29627, Control_c, 0, 64, 77
1, 29642, Control_c, 0, 64, 86
1, 29650, Note_on_c, 0, 70, 68
1, 29657, Control_c, 0, 64, 97
1, 29658, Note_off_c, 0, 77, 50
1, 29672, Control_c, 0, 64, 109
1, 29687, Control_c, 0, 64, 111
1, 29702, Control_c, 0, 64, 112
1, 29716, Note_off_c, 0, 70, 60
1, 29730, Note_on_c, 0, 73, 67
1, 29746, Control_c, 0, 64, 111
1, 29762, Control_c, 0, 64, 104
1, 29777, Control_c, 0, 64, 91
1, 29792, Control_c, 0, 64, 75
1, 29813, Control_c, 0, 64, 63
1, 29816, Note_off_c, 0, 73, 58
1, 29826, Note_on_c, 0, 68, 60
1, 29828, Control_c, 0, 64, 45
1, 29834, Note_on_c, 0, 51, 42
1, 29841, Note_on_c, 0, 63, 32
1, 29843, Control_c, 0, 64, 41
1, 29858, Control_c, 0, 64, 48
1, 29873, Control_c, 0, 64, 55
1, 29888, Control_c, 0, 64, 60
1, 29897, Note_off_c, 0, 68, 60
1, 29903, Control_c, 0, 64, 63
1, 29915, Note_on_c, 0, 73, 55
1, 29918, Control_c, 0, 64, 66
1, 29932, Control_c, 0, 64, 70
1, 29947, Control_c, 0, 64, 76
1, 29962, Control_c, 0, 64, 83
1, 29968, Note_off_c, 0, 73, 59
1, 29977, Control_c, 0, 64, 89
1, 29992, Control_c, 0, 64, 92
1, 30001, Note_on_c, 0, 67, 62
1, 30017, Note_off_c, 0, 51, 58
1, 30020, Note_off_c, 0, 63, 59
1, 30070, Note_off_c, 0, 67, 61
1, 30080, Control_c, 0, 64, 92
1, 30082, Note_on_c, 0, 73, 63
1, 30095, Control_c, 0, 64, 90
1, 30110, Control_c, 0, 64, 85
1, 30125, Control_c, 0, 64, 75
1, 30132, Note_off_c, 0, 73, 51
1, 30139, Control_c, 0, 64, 62
1, 30154, Control_c, 0, 64, 45
1, 30169, Control_c, 0, 64, 42
1, 30175, Note_on_c, 0, 68, 60
1, 30184, Control_c, 0, 64, 49
1, 30199, Control_c, 0, 64, 55
1, 30213, Control_c, 0, 64, 60
1, 30228, Control_c, 0, 64, 63
1, 30229, Note_off_c, 0, 68, 59
1, 30243, Control_c, 0, 64, 66
1, 30252, Note_on_c, 0, 73, 61
1, 30258, Control_c, 0, 64, 69
1, 30272, Control_c, 0, 64, 74
1, 30287, Control_c, 0, 64, 79
1, 30302, Control_c, 0, 64, 84
1, 30317, Control_c, 0, 64, 86
1, 30320, Note_off_c, 0, 73, 52
1, 30344, Note_on_c, 0, 68, 55
1, 30388, Note_off_c, 0, 68, 58
1, 30406, Control_c, 0, 64, 84
1, 30421, Control_c, 0, 64, 78
1, 30432, Note_on_c, 0, 72, 24
1, 30436, Control_c, 0, 64, 67
1, 30451, Control_c, 0, 64, 54
1, 30465, Control_c, 0, 64, 21
1, 30480, Control_c, 0, 64, 17
1, 30495, Control_c, 0, 64, 21
1, 30502, Note_on_c, 0, 56, 32
1, 30510, Control_c, 0, 64, 33
1, 30520, Note_on_c, 0, 63, 36
1, 30525, Note_on_c, 0, 68, 43
1, 30525, Control_c, 0, 64, 48
1, 30539, Control_c, 0, 64, 57
1, 30562, Control_c, 0, 64, 63
1, 30572, Note_off_c, 0, 68, 60
1, 30577, Control_c, 0, 64, 68
1, 30592, Control_c, 0, 64, 77
1, 30607, Control_c, 0, 64, 102
1, 30609, Note_off_c, 0, 63, 62
1, 30622, Control_c, 0, 64, 127
1, 30626, Note_off_c, 0, 56, 53
1, 30658, Note_off_c, 0, 72, 54
1, 30681, Note_on_c, 0, 68, 51
1, 30734, Note_on_c, 0, 72, 46
1, 30739, Note_off_c, 0, 68, 58
1, 30755, Control_c, 0, 64, 107
1, 30768, Note_off_c, 0, 72, 66
1, 30770, Control_c, 0, 64, 99
1, 30785, Control_c, 0, 64, 91
1, 30800, Control_c, 0, 64, 83
1, 30815, Control_c, 0, 64, 77
1, 30829, Control_c, 0, 64, 72
1, 30844, Control_c, 0, 64, 68
1, 30859, Control_c, 0, 64, 65
1, 30862, Note_on_c, 0, 72, 53
1, 30874, Control_c, 0, 64, 61
1, 30877, Note_on_c, 0, 49, 40
1, 30888, Control_c, 0, 64, 55
1, 30903, Control_c, 0, 64, 52
1, 30918, Note_off_c, 0, 72, 60
1, 30918, Control_c, 0, 64, 50
1, 30933, Control_c, 0, 64, 47
1, 30934, Note_off_c, 0, 49, 61
1, 30941, Note_on_c, 0, 75, 54
1, 30948, Control_c, 0, 64, 43
1, 30962, Control_c, 0, 64, 39
1, 30977, Control_c, 0, 64, 36
1, 30992, Control_c, 0, 64, 35
1, 30997, Note_off_c, 0, 75, 54
1, 31007, Control_c, 0, 64, 34
1, 31022, Control_c, 0, 64, 33
1, 31033, Note_on_c, 0, 65, 51
1, 31036, Control_c, 0, 64, 32
1, 31051, Control_c, 0, 64, 30
1, 31066, Control_c, 0, 64, 28
1, 31080, Control_c, 0, 64, 28
1, 31089, Note_off_c, 0, 65, 57
1, 31112, Note_on_c, 0, 70, 56
1, 31125, Control_c, 0, 64, 27
1, 31155, Control_c, 0, 64, 27
1, 31170, Control_c, 0, 64, 26
1, 31185, Control_c, 0, 64, 26
1, 31199, Control_c, 0, 64, 25
1, 31202, Note_on_c, 0, 73, 65
1, 31206, Note_on_c, 0, 61, 40
1, 31208, Note_on_c, 0, 65, 45
1, 31211, Note_off_c, 0, 70, 57
1, 31229, Control_c, 0, 64, 24
1, 31244, Control_c, 0, 64, 22
1, 31258, Note_off_c, 0, 65, 63
1, 31259, Control_c, 0, 64, 17
1, 31266, Note_off_c, 0, 61, 62
1, 31274, Control_c, 0, 64, 11
1, 31282, Note_off_c, 0, 73, 64
1, 31283, Note_on_c, 0, 77, 72
1, 31288, Control_c, 0, 64, 0
1, 31378, Note_on_c, 0, 75, 79
1, 31411, Note_off_c, 0, 77, 62
1, 31459, Note_on_c, 0, 73, 72
1, 31497, Note_off_c, 0, 75, 58
1, 31533, Note_on_c, 0, 51, 57
1, 31541, Note_on_c, 0, 70, 77
1, 31545, Note_off_c, 0, 73, 65
1, 31548, Control_c, 0, 64, 50
1, 31563, Control_c, 0, 64, 64
1, 31578, Control_c, 0, 64, 72
1, 31593, Control_c, 0, 64, 86
1, 31608, Control_c, 0, 64, 99
1, 31608, Note_off_c, 0, 51, 63
1, 31618, Note_on_c, 0, 73, 77
1, 31623, Control_c, 0, 64, 94
1, 31631, Note_off_c, 0, 70, 60
1, 31638, Control_c, 0, 64, 85
1, 31652, Control_c, 0, 64, 75
1, 31667, Control_c, 0, 64, 68
1, 31682, Control_c, 0, 64, 62
1, 31697, Control_c, 0, 64, 55
1, 31700, Note_off_c, 0, 73, 58
1, 31709, Note_on_c, 0, 63, 73
1, 31711, Control_c, 0, 64, 47
1, 31726, Control_c, 0, 64, 42
1, 31741, Control_c, 0, 64, 38
1, 31756, Control_c, 0, 64, 32
1, 31771, Control_c, 0, 64, 25
1, 31785, Control_c, 0, 64, 20
1, 31788, Note_off_c, 0, 63, 59
1, 31793, Note_on_c, 0, 68, 69
1, 31800, Control_c, 0, 64, 18
1, 31815, Control_c, 0, 64, 13
1, 31829, Control_c, 0, 64, 0
1, 31867, Note_on_c, 0, 60, 52
1, 31873, Note_on_c, 0, 63, 44
1, 31897, Note_off_c, 0, 68, 60
1, 31898, Note_on_c, 0, 72, 63
1, 31931, Note_off_c, 0, 63, 61
1, 31933, Note_off_c, 0, 60, 64
1, 31961, Note_off_c, 0, 72, 64
1, 31972, Note_on_c, 0, 75, 65
1, 32040, Note_on_c, 0, 73, 64
1, 32074, Note_off_c, 0, 75, 62
1, 32136, Note_off_c, 0, 73, 64
1, 32140, Note_on_c, 0, 72, 62
1, 32216, Note_on_c, 0, 51, 47
1, 32217, Note_off_c, 0, 72, 61
1, 32228, Note_on_c, 0, 69, 50
1, 32293, Note_off_c, 0, 69, 63
1, 32303, Note_off_c, 0, 51, 63
1, 32323, Note_on_c, 0, 72, 51
1, 32394, Note_on_c, 0, 63, 52
1, 32395, Note_off_c, 0, 72, 56
1, 32460, Note_on_c, 0, 67, 48
1, 32466, Note_off_c, 0, 63, 54
1, 32550, Note_off_c, 0, 67, 59
1, 32562, Note_on_c, 0, 61, 43
1, 32563, Note_on_c, 0, 70, 51
1, 32564, Note_on_c, 0, 55, 44
1, 32609, Note_off_c, 0, 70, 61
1, 32629, Note_on_c, 0, 73, 57
1, 32629, Note_off_c, 0, 61, 61
1, 32630, Note_off_c, 0, 55, 63
1, 32718, Note_on_c, 0, 72, 51
1, 32741, Note_off_c, 0, 73, 38
1, 32808, Note_on_c, 0, 70, 47
1, 32827, Note_off_c, 0, 72, 50
1, 32867, Note_off_c, 0, 70, 55
1, 32903, Note_on_c, 0, 68, 42
1, 32914, Note_on_c, 0, 56, 35
1, 32925, Note_on_c, 0, 60, 21
1, 32957, Control_c, 0, 64, 9
1, 32961, Note_off_c, 0, 68, 62
1, 32972, Control_c, 0, 64, 55
1, 32975, Note_off_c, 0, 60, 64
1, 32987, Control_c, 0, 64, 67
1, 32988, Note_off_c, 0, 56, 63
1, 33002, Control_c, 0, 64, 80
1, 33017, Control_c, 0, 64, 127
1, 33105, Control_c, 0, 64, 123
1, 33119, Note_on_c, 0, 63, 60
1, 33120, Control_c, 0, 64, 86
1, 33135, Control_c, 0, 64, 67
1, 33150, Control_c, 0, 64, 30
1, 33153, Note_off_c, 0, 63, 64
1, 33156, Note_on_c, 0, 72, 24
1, 33164, Control_c, 0, 64, 0
1, 33193, Note_off_c, 0, 72, 53
1, 33210, Note_on_c, 0, 75, 42
1, 33260, Note_off_c, 0, 75, 59
1, 33287, Note_on_c, 0, 63, 64
1, 33287, Note_on_c, 0, 72, 53
1, 33318, Note_off_c, 0, 63, 66
1, 33331, Note_off_c, 0, 72, 62
1, 33373, Note_on_c, 0, 75, 46
1, 33417, Note_off_c, 0, 75, 59
1, 33433, Note_on_c, 0, 63, 66
1, 33444, Note_on_c, 0, 72, 55
1, 33473, Note_off_c, 0, 63, 60
1, 33494, Note_off_c, 0, 72, 57
1, 33525, Note_on_c, 0, 75, 49
1, 33584, Note_off_c, 0, 75, 57
1, 33618, Note_on_c, 0, 64, 69
1, 33620, Note_on_c, 0, 71, 53
1, 33702, Note_on_c, 0, 74, 53
1, 33707, Note_off_c, 0, 71, 59
1, 33786, Note_on_c, 0, 63, 63
1, 33786, Note_off_c, 0, 74, 60
1, 33808, Note_off_c, 0, 64, 62
1, 33820, Note_off_c, 0, 63, 64
1, 33826, Note_on_c, 0, 72, 29
1, 33851, Note_off_c, 0, 72, 52
1, 33855, Note_on_c, 0, 75, 56
1, 33900, Note_off_c, 0, 75, 58
1, 33951, Note_on_c, 0, 72, 56
1, 33957, Note_on_c, 0, 63, 71
1, 34005, Note_off_c, 0, 63, 57
1, 34011, Note_off_c, 0, 72, 59
1, 34038, Note_on_c, 0, 75, 47
1, 34094, Note_off_c, 0, 75, 59
1, 34113, Note_on_c, 0, 63, 74
1, 34126, Note_on_c, 0, 72, 60
1, 34167, Note_off_c, 0, 63, 60
1, 34169, Note_off_c, 0, 72, 63
1, 34191, Note_on_c, 0, 75, 57
1, 34251, Note_off_c, 0, 75, 59
1, 34283, Note_on_c, 0, 51, 59
1, 34291, Note_on_c, 0, 72, 56
1, 34338, Note_off_c, 0, 51, 60
1, 34342, Note_off_c, 0, 72, 65
1, 34350, Control_c, 0, 64, 53
1, 34365, Control_c, 0, 64, 66
1, 34368, Note_on_c, 0, 75, 59
1, 34380, Control_c, 0, 64, 78
1, 34395, Control_c, 0, 64, 127
1, 34412, Note_off_c, 0, 75, 58
1, 34451, Note_on_c, 0, 73, 67
1, 34473, Note_on_c, 0, 63, 55
1, 34507, Note_off_c, 0, 63, 63
1, 34523, Note_on_c, 0, 76, 59
1, 34523, Note_off_c, 0, 73, 61
1, 34528, Control_c, 0, 64, 102
1, 34543, Control_c, 0, 64, 80
1, 34559, Control_c, 0, 64, 64
1, 34574, Control_c, 0, 64, 30
1, 34589, Control_c, 0, 64, 0
1, 34613, Note_on_c, 0, 79, 71
1, 34624, Note_off_c, 0, 76, 60
1, 34638, Note_on_c, 0, 63, 55
1, 34670, Note_off_c, 0, 63, 64
1, 34687, Note_on_c, 0, 82, 81
1, 34720, Note_off_c, 0, 79, 62
1, 34783, Note_on_c, 0, 72, 75
1, 34786, Note_on_c, 0, 63, 55
1, 34811, Note_off_c, 0, 82, 59
1, 34817, Note_off_c, 0, 63, 63
1, 34848, Note_on_c, 0, 75, 76
1, 34848, Note_off_c, 0, 72, 64
1, 34933, Note_on_c, 0, 73, 81
1, 34935, Note_off_c, 0, 75, 62
1, 34936, Note_on_c, 0, 51, 67
1, 34973, Control_c, 0, 64, 27
1, 34988, Control_c, 0, 64, 49
1, 34991, Note_off_c, 0, 51, 57
1, 35003, Control_c, 0, 64, 61
1, 35014, Note_on_c, 0, 76, 74
1, 35018, Control_c, 0, 64, 69
1, 35033, Control_c, 0, 64, 84
1, 35033, Note_off_c, 0, 73, 55
1, 35054, Control_c, 0, 64, 127
1, 35109, Note_on_c, 0, 79, 80
1, 35115, Note_on_c, 0, 63, 63
1, 35128, Control_c, 0, 64, 114
1, 35142, Note_off_c, 0, 76, 60
1, 35143, Control_c, 0, 64, 77
1, 35147, Note_off_c, 0, 63, 63
1, 35158, Control_c, 0, 64, 56
1, 35173, Control_c, 0, 64, 0
1, 35190, Note_on_c, 0, 82, 83
1, 35192, Note_off_c, 0, 79, 66
1, 35271, Note_on_c, 0, 80, 83
1, 35278, Note_on_c, 0, 63, 59
1, 35313, Note_off_c, 0, 63, 63
1, 35322, Note_off_c, 0, 82, 62
1, 35354, Note_on_c, 0, 79, 78
1, 35385, Note_off_c, 0, 80, 63
1, 35428, Note_on_c, 0, 63, 68
1, 35430, Note_on_c, 0, 51, 65
1, 35430, Note_on_c, 0, 77, 81
1, 35432, Note_off_c, 0, 79, 64
1, 35434, Note_on_c, 0, 61, 69
1, 35455, Note_off_c, 0, 63, 63
1, 35468, Note_off_c, 0, 51, 62
1, 35471, Note_off_c, 0, 61, 65
1, 35502, Note_on_c, 0, 79, 73
1, 35515, Note_off_c, 0, 77, 60
1, 35601, Note_off_c, 0, 79, 64
1, 35602, Note_on_c, 0, 80, 80
1, 35602, Note_on_c, 0, 56, 58
1, 35602, Note_on_c, 0, 60, 52
1, 35617, Note_on_c, 0, 63, 29
1, 35619, Control_c, 0, 64, 56
1, 35629, Note_off_c, 0, 60, 64
1, 35633, Note_off_c, 0, 56, 66
1, 35633, Control_c, 0, 64, 68
1, 35644, Note_off_c, 0, 63, 50
1, 35648, Control_c, 0, 64, 86
1, 35650, Note_off_c, 0, 80, 64
1, 35663, Control_c, 0, 64, 127
1, 35787, Note_on_c, 0, 63, 58
1, 35818, Note_on_c, 0, 72, 55
1, 35819, Control_c, 0, 64, 104
1, 35833, Control_c, 0, 64, 87
1, 35842, Note_off_c, 0, 63, 61
1, 35848, Control_c, 0, 64, 74
1, 35858, Note_off_c, 0, 72, 63
1, 35863, Control_c, 0, 64, 62
1, 35873, Note_on_c, 0, 75, 54
1, 35877, Control_c, 0, 64, 29
1, 35892, Control_c, 0, 64, 0
1, 35936, Note_off_c, 0, 75, 57
1, 35951, Note_on_c, 0, 63, 74
1, 35959, Note_on_c, 0, 72, 56
1, 35993, Note_off_c, 0, 63, 58
1, 36007, Note_off_c, 0, 72, 60
1, 36046, Note_on_c, 0, 75, 45
1, 36090, Note_off_c, 0, 75, 61
1, 36102, Note_on_c, 0, 63, 80
1, 36122, Note_on_c, 0, 72, 58
1, 36152, Note_off_c, 0, 63, 62
1, 36165, Note_off_c, 0, 72, 62
1, 36195, Note_on_c, 0, 75, 54
1, 36243, Note_off_c, 0, 75, 57
1, 36273, Note_on_c, 0, 64, 80
1, 36284, Note_on_c, 0, 71, 60
1, 36368, Note_on_c, 0, 74, 54
1, 36368, Note_off_c, 0, 71, 59
1, 36443, Note_on_c, 0, 63, 69
1, 36444, Note_off_c, 0, 74, 61
1, 36455, Note_off_c, 0, 64, 62
1, 36470, Note_on_c, 0, 72, 49
1, 36488, Note_off_c, 0, 63, 62
1, 36505, Note_off_c, 0, 72, 66
1, 36512, Note_on_c, 0, 75, 60
1, 36569, Note_off_c, 0, 75, 54
1, 36627, Note_on_c, 0, 63, 74
1, 36627, Note_on_c, 0, 72, 60
1, 36701, Note_off_c, 0, 72, 62
1, 36709, Note_on_c, 0, 75, 60
1, 36780, Note_off_c, 0, 75, 62
1, 36791, Note_on_c, 0, 66, 56
1, 36797, Note_on_c, 0, 72, 55
1, 36825, Note_off_c, 0, 63, 61
1, 36853, Note_off_c, 0, 72, 61
1, 36868, Note_on_c, 0, 75, 54
1, 36869, Note_off_c, 0, 66, 61
1, 36953, Note_off_c, 0, 75, 59
1, 36970, Note_on_c, 0, 74, 62
1, 36976, Note_on_c, 0, 53, 47
1, 36998, Control_c, 0, 64, 45
1, 37013, Control_c, 0, 64, 63
1, 37016, Note_off_c, 0, 53, 61
1, 37028, Control_c, 0, 64, 74
1, 37039, Note_off_c, 0, 74, 61
1, 37043, Control_c, 0, 64, 96
1, 37058, Control_c, 0, 64, 127
1, 37066, Note_on_c, 0, 77, 47
1, 37098, Note_off_c, 0, 77, 63
1, 37139, Note_on_c, 0, 65, 58
1, 37143, Note_on_c, 0, 75, 75
1, 37173, Note_off_c, 0, 65, 64
1, 37206, Control_c, 0, 64, 92
1, 37221, Control_c, 0, 64, 69
1, 37229, Note_on_c, 0, 78, 74
1, 37229, Note_off_c, 0, 75, 58
1, 37236, Control_c, 0, 64, 49
1, 37251, Control_c, 0, 64, 0
1, 37303, Note_on_c, 0, 65, 56
1, 37314, Note_on_c, 0, 81, 79
1, 37334, Note_off_c, 0, 65, 65
1, 37340, Note_off_c, 0, 78, 63
1, 37397, Note_on_c, 0, 84, 86
1, 37418, Note_off_c, 0, 81, 63
1, 37460, Note_on_c, 0, 65, 60
1, 37470, Note_on_c, 0, 74, 79
1, 37492, Note_off_c, 0, 65, 65
1, 37516, Note_off_c, 0, 84, 62
1, 37546, Note_on_c, 0, 77, 82
1, 37547, Note_off_c, 0, 74, 64
1, 37606, Note_off_c, 0, 77, 58
1, 37617, Note_on_c, 0, 53, 69
1, 37629, Note_on_c, 0, 75, 86
1, 37642, Control_c, 0, 64, 22
1, 37657, Control_c, 0, 64, 59
1, 37671, Control_c, 0, 64, 69
1, 37686, Control_c, 0, 64, 93
1, 37692, Note_off_c, 0, 53, 60
1, 37701, Control_c, 0, 64, 127
1, 37705, Note_on_c, 0, 78, 84
1, 37728, Note_off_c, 0, 75, 61
1, 37785, Note_on_c, 0, 81, 82
1, 37795, Note_on_c, 0, 65, 72
1, 37826, Note_off_c, 0, 78, 63
1, 37830, Note_off_c, 0, 65, 61
1, 37835, Control_c, 0, 64, 109
1, 37850, Control_c, 0, 64, 77
1, 37862, Note_on_c, 0, 84, 90
1, 37865, Control_c, 0, 64, 49
1, 37868, Note_off_c, 0, 81, 66
1, 37880, Control_c, 0, 64, 0
1, 37951, Note_on_c, 0, 65, 76
1, 37951, Note_on_c, 0, 82, 90
1, 37986, Note_off_c, 0, 65, 64
1, 38016, Note_off_c, 0, 84, 63
1, 38047, Note_on_c, 0, 81, 82
1, 38082, Note_off_c, 0, 82, 64
1, 38114, Note_on_c, 0, 63, 74
1, 38117, Note_on_c, 0, 65, 67
1, 38118, Note_on_c, 0, 79, 86
1, 38120, Note_on_c, 0, 53, 60
1, 38127, Note_off_c, 0, 81, 64
1, 38136, Note_off_c, 0, 65, 64
1, 38146, Note_off_c, 0, 53, 55
1, 38146, Note_off_c, 0, 63, 61
1, 38198, Note_on_c, 0, 81, 78
1, 38218, Note_off_c, 0, 79, 64
1, 38279, Note_on_c, 0, 61, 63
1, 38284, Note_on_c, 0, 58, 65
1, 38284, Note_on_c, 0, 65, 43
1, 38285, Note_on_c, 0, 82, 87
1, 38292, Note_off_c, 0, 81, 65
1, 38302, Control_c, 0, 64, 59
1, 38311, Note_off_c, 0, 65, 60
1, 38313, Note_off_c, 0, 61, 66
1, 38316, Note_off_c, 0, 58, 64
1, 38317, Control_c, 0, 64, 74
1, 38324, Note_off_c, 0, 82, 65
1, 38332, Control_c, 0, 64, 127
1, 38470, Note_on_c, 0, 65, 68
1, 38472, Note_on_c, 0, 73, 70
1, 38494, Control_c, 0, 64, 91
1, 38500, Note_off_c, 0, 65, 63
1, 38509, Control_c, 0, 64, 68
1, 38524, Control_c, 0, 64, 0
1, 38535, Note_off_c, 0, 73, 62
1, 38545, Note_on_c, 0, 77, 62
1, 38628, Note_on_c, 0, 65, 88
1, 38629, Note_off_c, 0, 77, 60
1, 38646, Note_on_c, 0, 73, 69
1, 38668, Note_off_c, 0, 65, 63
1, 38708, Note_off_c, 0, 73, 63
1, 38720, Note_on_c, 0, 77, 59
1, 38780, Note_off_c, 0, 77, 56
1, 38798, Note_on_c, 0, 65, 88
1, 38814, Note_on_c, 0, 73, 65
1, 38839, Note_off_c, 0, 65, 61
1, 38869, Note_off_c, 0, 73, 61
1, 38878, Note_on_c, 0, 77, 64
1, 38969, Note_off_c, 0, 77, 58
1, 38981, Note_on_c, 0, 66, 83
1, 38993, Note_on_c, 0, 72, 63
1, 39074, Note_on_c, 0, 76, 59
1, 39090, Note_off_c, 0, 72, 58
1, 39151, Note_on_c, 0, 65, 67
1, 39166, Note_off_c, 0, 66, 61
1, 39169, Note_on_c, 0, 73, 64
1, 39176, Note_off_c, 0, 76, 60
1, 39191, Note_off_c, 0, 65, 64
1, 39234, Note_off_c, 0, 73, 64
1, 39245, Note_on_c, 0, 77, 60
1, 39328, Note_off_c, 0, 77, 58
1, 39339, Note_on_c, 0, 65, 66
1, 39343, Note_on_c, 0, 73, 62
1, 39375, Note_off_c, 0, 65, 60
1, 39387, Note_off_c, 0, 73, 62
1, 39408, Note_on_c, 0, 77, 45
1, 39469, Note_off_c, 0, 77, 59
1, 39498, Note_on_c, 0, 73, 59
1, 39507, Note_on_c, 0, 65, 54
1, 39556, Note_off_c, 0, 65, 60
1, 39576, Note_off_c, 0, 73, 60
1, 39577, Control_c, 0, 64, 44
1, 39582, Note_on_c, 0, 77, 64
1, 39592, Control_c, 0, 64, 59
1, 39606, Control_c, 0, 64, 66
1, 39621, Control_c, 0, 64, 73
1, 39628, Note_off_c, 0, 77, 61
1, 39636, Control_c, 0, 64, 83
1, 39651, Control_c, 0, 64, 89
1, 39666, Control_c, 0, 64, 93
1, 39695, Control_c, 0, 64, 90
1, 39703, Note_on_c, 0, 55, 42
1, 39710, Control_c, 0, 64, 85
1, 39722, Note_on_c, 0, 82, 71
1, 39725, Control_c, 0, 64, 74
1, 39740, Control_c, 0, 64, 63
1, 39755, Control_c, 0, 64, 27
1, 39770, Control_c, 0, 64, 0
1, 39813, Control_c, 0, 64, 39
1, 39818, Note_on_c, 0, 73, 29
1, 39828, Control_c, 0, 64, 58
1, 39843, Control_c, 0, 64, 64
1, 39858, Control_c, 0, 64, 67
1, 39872, Control_c, 0, 64, 73
1, 39887, Control_c, 0, 64, 85
1, 39888, Note_off_c, 0, 73, 41
1, 39902, Control_c, 0, 64, 112
1, 39916, Control_c, 0, 64, 127
1, 39923, Note_on_c, 0, 76, 55
1, 39930, Note_on_c, 0, 64, 46
1, 39937, Note_on_c, 0, 61, 37
1, 39987, Note_off_c, 0, 76, 56
1, 40002, Note_on_c, 0, 73, 48
1, 40033, Note_off_c, 0, 82, 52
1, 40048, Note_off_c, 0, 64, 45
1, 40051, Note_off_c, 0, 73, 60
1, 40064, Note_off_c, 0, 55, 36
1, 40086, Note_on_c, 0, 75, 57
1, 40102, Note_on_c, 0, 63, 47
1, 40121, Note_off_c, 0, 61, 32
1, 40155, Note_off_c, 0, 75, 56
1, 40170, Note_on_c, 0, 73, 44
1, 40223, Note_off_c, 0, 73, 60
1, 40246, Note_on_c, 0, 76, 60
1, 40247, Note_off_c, 0, 63, 36
1, 40258, Note_on_c, 0, 64, 52
1, 40312, Note_off_c, 0, 64, 54
1, 40336, Note_off_c, 0, 76, 57
1, 40339, Note_on_c, 0, 73, 55
1, 40407, Note_off_c, 0, 73, 56
1, 40429, Note_on_c, 0, 56, 57
1, 40431, Note_on_c, 0, 80, 80
1, 40443, Control_c, 0, 64, 88
1, 40458, Control_c, 0, 64, 68
1, 40473, Control_c, 0, 64, 39
1, 40488, Control_c, 0, 64, 0
1, 40503, Control_c, 0, 64, 30
1, 40518, Control_c, 0, 64, 48
1, 40533, Control_c, 0, 64, 57
1, 40540, Note_on_c, 0, 72, 47
1, 40547, Control_c, 0, 64, 63
1, 40562, Control_c, 0, 64, 69
1, 40577, Control_c, 0, 64, 79
1, 40592, Control_c, 0, 64, 110
1, 40607, Control_c, 0, 64, 127
1, 40608, Note_on_c, 0, 60, 55
1, 40610, Note_on_c, 0, 65, 61
1, 40613, Note_on_c, 0, 77, 72
1, 40625, Note_off_c, 0, 72, 62
1, 40634, Note_off_c, 0, 80, 63
1, 40694, Note_on_c, 0, 72, 57
1, 40711, Note_off_c, 0, 77, 60
1, 40749, Note_off_c, 0, 65, 59
1, 40785, Note_on_c, 0, 63, 66
1, 40785, Note_on_c, 0, 75, 85
1, 40786, Note_off_c, 0, 72, 65
1, 40868, Note_on_c, 0, 72, 73
1, 40875, Note_off_c, 0, 75, 60
1, 40907, Note_off_c, 0, 60, 61
1, 40932, Note_off_c, 0, 56, 50
1, 40944, Note_off_c, 0, 72, 63
1, 40953, Note_on_c, 0, 80, 90
1, 40956, Note_on_c, 0, 68, 64
1, 40979, Note_off_c, 0, 63, 61
1, 41030, Note_off_c, 0, 80, 64
1, 41033, Note_off_c, 0, 68, 46
1, 41057, Note_on_c, 0, 72, 63
1, 41114, Note_off_c, 0, 72, 60
1, 41157, Note_on_c, 0, 55, 49
1, 41164, Note_on_c, 0, 85, 93
1, 41188, Note_on_c, 0, 82, 65
1, 41209, Control_c, 0, 64, 93
1, 41224, Control_c, 0, 64, 71
1, 41238, Control_c, 0, 64, 56
1, 41253, Control_c, 0, 64, 0
1, 41287, Note_on_c, 0, 73, 56
1, 41313, Control_c, 0, 64, 37
1, 41327, Control_c, 0, 64, 53
1, 41342, Control_c, 0, 64, 62
1, 41354, Note_off_c, 0, 73, 63
1, 41355, Note_off_c, 0, 82, 57
1, 41357, Control_c, 0, 64, 67
1, 41366, Note_on_c, 0, 61, 44
1, 41366, Note_on_c, 0, 76, 65
1, 41370, Note_on_c, 0, 64, 46
1, 41371, Control_c, 0, 64, 74
1, 41386, Control_c, 0, 64, 90
1, 41401, Control_c, 0, 64, 127
1, 41441, Note_off_c, 0, 76, 64
1, 41448, Note_off_c, 0, 85, 62
1, 41448, Note_on_c, 0, 73, 64
1, 41498, Note_off_c, 0, 55, 36
1, 41513, Note_off_c, 0, 64, 55
1, 41527, Note_off_c, 0, 73, 64
1, 41534, Note_on_c, 0, 75, 72
1, 41537, Note_on_c, 0, 63, 54
1, 41581, Note_off_c, 0, 61, 35
1, 41596, Note_off_c, 0, 75, 61
1, 41623, Note_on_c, 0, 73, 59
1, 41680, Note_off_c, 0, 73, 62
1, 41689, Note_on_c, 0, 76, 66
1, 41698, Note_on_c, 0, 64, 47
1, 41701, Note_off_c, 0, 63, 32
1, 41758, Control_c, 0, 64, 118
1, 41772, Note_off_c, 0, 64, 52
1, 41773, Control_c, 0, 64, 110
1, 41794, Control_c, 0, 64, 108
1, 41795, Note_on_c, 0, 73, 51
1, 41805, Note_off_c, 0, 76, 62
1, 41809, Control_c, 0, 64, 107
1, 41839, Control_c, 0, 64, 106
1, 41851, Note_on_c, 0, 56, 53
1, 41854, Control_c, 0, 64, 99
1, 41859, Note_off_c, 0, 73, 50
1, 41868, Control_c, 0, 64, 82
1, 41874, Note_on_c, 0, 84, 73
1, 41883, Control_c, 0, 64, 63
1, 41892, Note_on_c, 0, 80, 50
1, 41898, Control_c, 0, 64, 0
1, 41972, Note_on_c, 0, 72, 50
1, 41987, Control_c, 0, 64, 24
1, 42002, Control_c, 0, 64, 48
1, 42017, Control_c, 0, 64, 60
1, 42032, Control_c, 0, 64, 65
1, 42044, Note_off_c, 0, 72, 63
1, 42045, Note_on_c, 0, 60, 46
1, 42047, Control_c, 0, 64, 71
1, 42053, Note_on_c, 0, 65, 41
1, 42059, Note_on_c, 0, 77, 61
1, 42062, Control_c, 0, 64, 84
1, 42076, Control_c, 0, 64, 112
1, 42086, Note_off_c, 0, 84, 55
1, 42091, Control_c, 0, 64, 127
1, 42109, Note_off_c, 0, 65, 58
1, 42113, Note_off_c, 0, 80, 30
1, 42127, Note_off_c, 0, 77, 61
1, 42133, Note_on_c, 0, 72, 49
1, 42191, Note_off_c, 0, 72, 59
1, 42216, Note_on_c, 0, 63, 57
1, 42226, Note_on_c, 0, 75, 55
1, 42268, Note_off_c, 0, 56, 39
1, 42277, Note_off_c, 0, 75, 54
1, 42316, Note_on_c, 0, 72, 28
1, 42330, Note_off_c, 0, 60, 36
1, 42351, Note_off_c, 0, 72, 51
1, 42364, Note_on_c, 0, 80, 66
1, 42367, Note_on_c, 0, 68, 52
1, 42367, Note_off_c, 0, 63, 59
1, 42390, Note_off_c, 0, 68, 57
1, 42405, Note_off_c, 0, 80, 59
1, 42417, Control_c, 0, 64, 119
1, 42432, Control_c, 0, 64, 112
1, 42446, Control_c, 0, 64, 108
1, 42461, Control_c, 0, 64, 104
1, 42476, Control_c, 0, 64, 101
1, 42491, Control_c, 0, 64, 97
1, 42506, Control_c, 0, 64, 92
1, 42520, Control_c, 0, 64, 81
1, 42543, Control_c, 0, 64, 71
1, 42546, Note_on_c, 0, 49, 50
1, 42558, Control_c, 0, 64, 61
1, 42562, Note_on_c, 0, 84, 61
1, 42573, Control_c, 0, 64, 39
1, 42588, Note_off_c, 0, 49, 65
1, 42588, Control_c, 0, 64, 0
1, 42631, Note_off_c, 0, 84, 63
1, 42643, Note_on_c, 0, 87, 59
1, 42708, Note_off_c, 0, 87, 55
1, 42725, Note_on_c, 0, 65, 53
1, 42731, Note_on_c, 0, 77, 63
1, 42733, Note_on_c, 0, 61, 47
1, 42807, Note_on_c, 0, 82, 71
1, 42819, Note_off_c, 0, 77, 54
1, 42855, Control_c, 0, 64, 48
1, 42861, Note_off_c, 0, 65, 61
1, 42863, Note_off_c, 0, 61, 62
1, 42870, Control_c, 0, 64, 62
1, 42884, Control_c, 0, 64, 69
1, 42889, Note_on_c, 0, 85, 80
1, 42899, Control_c, 0, 64, 80
1, 42910, Note_off_c, 0, 82, 64
1, 42914, Control_c, 0, 64, 92
1, 42929, Control_c, 0, 64, 102
1, 42943, Control_c, 0, 64, 104
1, 42956, Note_on_c, 0, 89, 85
1, 42958, Control_c, 0, 64, 98
1, 42963, Note_off_c, 0, 85, 65
1, 42973, Control_c, 0, 64, 92
1, 42988, Control_c, 0, 64, 85
1, 43003, Control_c, 0, 64, 79
1, 43017, Control_c, 0, 64, 72
1, 43032, Control_c, 0, 64, 64
1, 43043, Note_on_c, 0, 65, 51
1, 43044, Note_on_c, 0, 61, 51
1, 43047, Note_on_c, 0, 87, 86
1, 43047, Control_c, 0, 64, 55
1, 43062, Control_c, 0, 64, 40
1, 43067, Note_off_c, 0, 65, 57
1, 43077, Note_off_c, 0, 61, 64
1, 43077, Control_c, 0, 64, 15
1, 43083, Note_off_c, 0, 89, 62
1, 43091, Control_c, 0, 64, 0
1, 43129, Note_on_c, 0, 85, 76
1, 43167, Note_off_c, 0, 87, 62
1, 43199, Note_on_c, 0, 51, 70
1, 43210, Note_on_c, 0, 82, 82
1, 43219, Note_off_c, 0, 85, 65
1, 43239, Note_off_c, 0, 51, 62
1, 43294, Note_on_c, 0, 85, 81
1, 43297, Note_off_c, 0, 82, 62
1, 43375, Note_off_c, 0, 85, 63
1, 43377, Note_on_c, 0, 75, 81
1, 43378, Note_on_c, 0, 60, 56
1, 43379, Note_on_c, 0, 63, 60
1, 43451, Note_on_c, 0, 80, 75
1, 43455, Control_c, 0, 64, 42
1, 43470, Control_c, 0, 64, 60
1, 43478, Note_off_c, 0, 75, 57
1, 43485, Control_c, 0, 64, 67
1, 43500, Control_c, 0, 64, 76
1, 43508, Note_off_c, 0, 63, 62
1, 43511, Note_off_c, 0, 60, 64
1, 43514, Control_c, 0, 64, 92
1, 43529, Control_c, 0, 64, 127
1, 43537, Note_on_c, 0, 84, 81
1, 43558, Control_c, 0, 64, 118
1, 43573, Note_off_c, 0, 80, 63
1, 43573, Control_c, 0, 64, 98
1, 43588, Control_c, 0, 64, 87
1, 43603, Control_c, 0, 64, 81
1, 43614, Note_on_c, 0, 87, 87
1, 43618, Control_c, 0, 64, 75
1, 43619, Note_off_c, 0, 84, 65
1, 43633, Control_c, 0, 64, 69
1, 43647, Control_c, 0, 64, 61
1, 43662, Control_c, 0, 64, 49
1, 43677, Control_c, 0, 64, 35
1, 43692, Control_c, 0, 64, 12
1, 43692, Note_on_c, 0, 85, 77
1, 43700, Note_on_c, 0, 60, 57
1, 43703, Note_on_c, 0, 63, 49
1, 43706, Control_c, 0, 64, 0
1, 43728, Note_off_c, 0, 63, 56
1, 43730, Note_off_c, 0, 60, 66
1, 43740, Note_off_c, 0, 87, 64
1, 43761, Note_on_c, 0, 84, 73
1, 43783, Note_off_c, 0, 85, 65
1, 43843, Note_off_c, 0, 84, 60
1, 43844, Note_on_c, 0, 81, 63
1, 43850, Note_on_c, 0, 51, 64
1, 43880, Note_off_c, 0, 51, 66
1, 43911, Note_off_c, 0, 81, 64
1, 43940, Note_on_c, 0, 84, 57
1, 44026, Note_off_c, 0, 84, 54
1, 44041, Note_on_c, 0, 75, 49
1, 44043, Note_on_c, 0, 55, 61
1, 44065, Note_on_c, 0, 63, 46
1, 44069, Note_on_c, 0, 61, 45
1, 44104, Note_on_c, 0, 79, 56
1, 44150, Note_off_c, 0, 75, 46
1, 44199, Note_on_c, 0, 82, 60
1, 44203, Note_off_c, 0, 79, 62
1, 44261, Note_off_c, 0, 82, 64
1, 44270, Note_on_c, 0, 85, 62
1, 44357, Note_on_c, 0, 84, 63
1, 44360, Note_on_c, 0, 56, 62
1, 44372, Note_off_c, 0, 55, 60
1, 44375, Note_off_c, 0, 85, 52
1, 44414, Note_off_c, 0, 56, 58
1, 44434, Note_on_c, 0, 82, 62
1, 44466, Note_off_c, 0, 63, 37
1, 44479, Note_off_c, 0, 84, 58
1, 44479, Note_off_c, 0, 61, 0
1, 44515, Note_on_c, 0, 80, 68
1, 44517, Poly_aftertouch_c, 0, 61, 127
1, 44519, Note_on_c, 0, 58, 61
1, 44521, Note_off_c, 0, 82, 61
1, 44556, Note_off_c, 0, 58, 60
1, 44557, Poly_aftertouch_c, 0, 61, 0
1, 44577, Note_off_c, 0, 80, 64
1, 44586, Note_on_c, 0, 79, 69
1, 44670, Note_off_c, 0, 79, 60
1, 44671, Note_on_c, 0, 56, 64
1, 44671, Note_on_c, 0, 77, 82
1, 44687, Note_on_c, 0, 63, 38
1, 44715, Note_off_c, 0, 63, 56
1, 44732, Note_off_c, 0, 56, 53
1, 44736, Note_off_c, 0, 77, 63
1, 44744, Note_on_c, 0, 76, 82
1, 44832, Note_on_c, 0, 55, 71
1, 44838, Note_on_c, 0, 75, 93
1, 44843, Note_on_c, 0, 61, 58
1, 44843, Note_on_c, 0, 63, 43
1, 44851, Note_off_c, 0, 76, 62
1, 44863, Note_off_c, 0, 55, 66
1, 44870, Note_off_c, 0, 63, 56
1, 44876, Note_off_c, 0, 61, 64
1, 44912, Note_on_c, 0, 73, 87
1, 44941, Note_off_c, 0, 75, 61
1, 44981, Note_off_c, 0, 73, 61
1, 44992, Note_on_c, 0, 61, 71
1, 44992, Note_on_c, 0, 72, 86
1, 45001, Note_on_c, 0, 51, 70
1, 45001, Note_on_c, 0, 63, 57
1, 45028, Note_off_c, 0, 61, 58
1, 45029, Note_off_c, 0, 63, 64
1, 45035, Note_off_c, 0, 51, 63
1, 45073, Note_on_c, 0, 70, 85
1, 45082, Note_off_c, 0, 72, 66
1, 45136, Note_off_c, 0, 70, 54
1, 45156, Note_on_c, 0, 63, 60
1, 45156, Note_on_c, 0, 68, 94
1, 45159, Note_on_c, 0, 56, 77
1, 45175, Control_c, 0, 64, 50
1, 45178, Note_off_c, 0, 68, 67
1, 45180, Note_off_c, 0, 63, 63
1, 45187, Note_off_c, 0, 56, 69
1, 45190, Control_c, 0, 64, 77
1, 45205, Control_c, 0, 64, 127
1, 45345, Note_on_c, 0, 56, 92
1, 45347, Note_on_c, 0, 44, 84
1, 45353, Control_c, 0, 64, 76
1, 45368, Control_c, 0, 64, 33
1, 45373, Note_off_c, 0, 56, 68
1, 45375, Note_off_c, 0, 44, 67
1, 45383, Control_c, 0, 64, 0
1, 45507, Note_on_c, 0, 44, 83
1, 45510, Note_on_c, 0, 56, 88
1, 45543, Note_off_c, 0, 44, 68
1, 45547, Note_off_c, 0, 56, 67
1, 45678, Note_on_c, 0, 44, 84
1, 45680, Note_on_c, 0, 56, 93
1, 45707, Note_off_c, 0, 44, 69
1, 45716, Note_off_c, 0, 56, 66
1, 45844, Note_on_c, 0, 43, 76
1, 45850, Note_on_c, 0, 55, 89
1, 46023, Note_on_c, 0, 56, 82
1, 46028, Note_on_c, 0, 44, 75
1, 46038, Note_off_c, 0, 55, 64
1, 46040, Note_off_c, 0, 43, 63
1, 46053, Note_off_c, 0, 56, 68
1, 46057, Note_off_c, 0, 44, 64
1, 46194, Note_on_c, 0, 44, 75
1, 46196, Note_on_c, 0, 56, 87
1, 46223, Note_off_c, 0, 56, 67
1, 46226, Note_off_c, 0, 44, 66
1, 46361, Note_on_c, 0, 44, 79
1, 46361, Note_on_c, 0, 56, 92
1, 46392, Note_off_c, 0, 44, 67
1, 46399, Note_off_c, 0, 56, 64
1, 46534, Note_on_c, 0, 57, 93
1, 46536, Note_on_c, 0, 45, 69
1, 46569, Control_c, 0, 64, 29
1, 46584, Control_c, 0, 64, 60
1, 46599, Control_c, 0, 64, 80
1, 46614, Control_c, 0, 64, 127
1, 46722, Note_off_c, 0, 45, 56
1, 46727, Note_off_c, 0, 57, 57
1, 46763, Note_on_c, 0, 58, 66
1, 46767, Note_on_c, 0, 46, 62
1, 46803, Note_off_c, 0, 46, 64
1, 46805, Note_on_c, 0, 60, 71
1, 46806, Note_off_c, 0, 58, 61
1, 46809, Note_on_c, 0, 48, 66
1, 46855, Note_on_c, 0, 46, 87
1, 46860, Note_on_c, 0, 58, 88
1, 46863, Note_off_c, 0, 48, 64
1, 46880, Control_c, 0, 64, 75
1, 46887, Note_off_c, 0, 60, 65
1, 46895, Control_c, 0, 64, 0
1, 47061, Note_off_c, 0, 58, 62
1, 47085, Note_on_c, 0, 60, 76
1, 47090, Note_on_c, 0, 48, 57
1, 47123, Note_off_c, 0, 46, 59
1, 47147, Note_on_c, 0, 49, 69
1, 47150, Note_on_c, 0, 61, 80
1, 47158, Note_off_c, 0, 48, 60
1, 47174, Note_on_c, 0, 51, 76
1, 47179, Note_off_c, 0, 60, 41
1, 47193, Note_on_c, 0, 63, 88
1, 47196, Note_off_c, 0, 49, 62
1, 47212, Note_off_c, 0, 51, 64
1, 47219, Note_off_c, 0, 61, 64
1, 47228, Control_c, 0, 64, 63
1, 47231, Note_off_c, 0, 63, 68
1, 47243, Control_c, 0, 64, 81
1, 47258, Control_c, 0, 64, 127
1, 47381, Note_on_c, 0, 51, 65
1, 47381, Note_on_c, 0, 58, 64
1, 47385, Note_on_c, 0, 61, 56
1, 47385, Note_on_c, 0, 67, 76
1, 47407, Control_c, 0, 64, 85
1, 47407, Note_off_c, 0, 61, 62
1, 47411, Note_off_c, 0, 51, 65
1, 47413, Note_off_c, 0, 58, 64
1, 47422, Control_c, 0, 64, 62
1, 47436, Control_c, 0, 64, 0
1, 47459, Note_on_c, 0, 70, 81
1, 47469, Note_off_c, 0, 67, 57
1, 47528, Note_on_c, 0, 61, 60
1, 47534, Note_on_c, 0, 58, 63
1, 47535, Note_on_c, 0, 75, 90
1, 47538, Note_on_c, 0, 51, 59
1, 47541, Note_off_c, 0, 70, 64
1, 47563, Note_off_c, 0, 61, 63
1, 47571, Note_off_c, 0, 58, 61
1, 47574, Note_off_c, 0, 51, 63
1, 47574, Note_off_c, 0, 75, 67
1, 47619, Note_on_c, 0, 79, 85
1, 47630, Note_on_c, 0, 77, 60
1, 47648, Note_off_c, 0, 77, 60
1, 47682, Note_on_c, 0, 51, 64
1, 47691, Note_on_c, 0, 61, 66
1, 47693, Note_on_c, 0, 82, 91
1, 47698, Note_on_c, 0, 58, 49
1, 47705, Note_off_c, 0, 79, 63
1, 47718, Note_off_c, 0, 51, 62
1, 47722, Note_off_c, 0, 58, 58
1, 47723, Note_off_c, 0, 61, 64
1, 47757, Note_on_c, 0, 87, 93
1, 47761, Note_off_c, 0, 82, 67
1, 47836, Note_off_c, 0, 87, 66
1, 47855, Note_on_c, 0, 60, 64
1, 47855, Note_on_c, 0, 80, 94
1, 47860, Note_on_c, 0, 56, 71
1, 47874, Control_c, 0, 64, 66
1, 47875, Note_off_c, 0, 80, 69
1, 47881, Note_off_c, 0, 60, 66
1, 47888, Control_c, 0, 64, 90
1, 47890, Note_off_c, 0, 56, 67
1, 47903, Control_c, 0, 64, 127
1, 48047, Note_on_c, 0, 56, 87
1, 48051, Control_c, 0, 64, 106
1, 48059, Note_on_c, 0, 45, 69
1, 48066, Control_c, 0, 64, 67
1, 48076, Note_off_c, 0, 56, 66
1, 48080, Control_c, 0, 64, 0
1, 48086, Note_off_c, 0, 45, 63
1, 48208, Note_on_c, 0, 44, 89
1, 48211, Note_on_c, 0, 56, 94
1, 48241, Note_off_c, 0, 44, 65
1, 48250, Note_off_c, 0, 56, 64
1, 48367, Note_on_c, 0, 44, 88
1, 48369, Note_on_c, 0, 56, 94
1, 48396, Note_off_c, 0, 44, 67
1, 48406, Note_off_c, 0, 56, 66
1, 48548, Note_on_c, 0, 43, 79
1, 48551, Note_on_c, 0, 55, 93
1, 48721, Note_on_c, 0, 56, 83
1, 48726, Note_on_c, 0, 44, 71
1, 48739, Note_off_c, 0, 43, 63
1, 48740, Note_off_c, 0, 55, 64
1, 48756, Note_off_c, 0, 44, 64
1, 48760, Note_off_c, 0, 56, 64
1, 48890, Note_on_c, 0, 56, 91
1, 48897, Note_on_c, 0, 44, 73
1, 48924, Note_off_c, 0, 44, 65
1, 48930, Note_off_c, 0, 56, 64
1, 49058, Note_on_c, 0, 56, 90
1, 49064, Note_on_c, 0, 44, 69
1, 49089, Note_off_c, 0, 44, 66
1, 49091, Note_off_c, 0, 56, 67
1, 49236, Note_on_c, 0, 57, 90
1, 49240, Note_on_c, 0, 45, 78
1, 49282, Control_c, 0, 64, 54
1, 49297, Control_c, 0, 64, 65
1, 49312, Control_c, 0, 64, 79
1, 49326, Control_c, 0, 64, 127
1, 49434, Note_off_c, 0, 45, 60
1, 49463, Note_off_c, 0, 57, 54
1, 49490, Note_on_c, 0, 58, 60
1, 49490, Note_on_c, 0, 46, 56
1, 49527, Note_on_c, 0, 48, 70
1, 49527, Note_off_c, 0, 46, 64
1, 49532, Note_off_c, 0, 58, 62
1, 49534, Note_on_c, 0, 60, 69
1, 49575, Note_on_c, 0, 46, 83
1, 49580, Note_on_c, 0, 58, 86
1, 49590, Note_off_c, 0, 48, 62
1, 49607, Control_c, 0, 64, 103
1, 49610, Note_off_c, 0, 60, 65
1, 49622, Control_c, 0, 64, 74
1, 49637, Control_c, 0, 64, 49
1, 49651, Control_c, 0, 64, 0
1, 49781, Note_off_c, 0, 58, 64
1, 49798, Note_on_c, 0, 48, 58
1, 49800, Note_on_c, 0, 60, 71
1, 49849, Note_off_c, 0, 46, 61
1, 49862, Note_on_c, 0, 49, 64
1, 49867, Note_on_c, 0, 61, 77
1, 49872, Note_off_c, 0, 60, 59
1, 49890, Note_off_c, 0, 48, 62
1, 49899, Note_on_c, 0, 51, 82
1, 49906, Note_on_c, 0, 63, 90
1, 49925, Note_off_c, 0, 49, 63
1, 49935, Note_off_c, 0, 51, 64
1, 49937, Note_off_c, 0, 61, 63
1, 49949, Control_c, 0, 64, 47
1, 49952, Note_off_c, 0, 63, 67
1, 49964, Control_c, 0, 64, 72
1, 49979, Control_c, 0, 64, 127
1, 50105, Note_on_c, 0, 55, 50
1, 50107, Note_on_c, 0, 64, 75
1, 50110, Note_on_c, 0, 58, 64
1, 50119, Control_c, 0, 64, 90
1, 50134, Note_on_c, 0, 48, 35
1, 50134, Control_c, 0, 64, 73
1, 50148, Note_off_c, 0, 58, 63
1, 50149, Control_c, 0, 64, 61
1, 50152, Note_off_c, 0, 55, 60
1, 50164, Control_c, 0, 64, 24
1, 50166, Note_off_c, 0, 48, 51
1, 50172, Note_off_c, 0, 64, 62
1, 50179, Control_c, 0, 64, 0
1, 50187, Note_on_c, 0, 67, 69
1, 50247, Note_off_c, 0, 67, 62
1, 50266, Note_on_c, 0, 48, 48
1, 50268, Note_on_c, 0, 58, 57
1, 50268, Note_on_c, 0, 72, 66
1, 50271, Note_on_c, 0, 55, 50
1, 50291, Note_on_c, 0, 74, 40
1, 50298, Note_off_c, 0, 72, 68
1, 50301, Note_off_c, 0, 48, 63
1, 50303, Note_off_c, 0, 58, 63
1, 50313, Note_off_c, 0, 55, 59
1, 50315, Note_off_c, 0, 74, 56
1, 50347, Note_on_c, 0, 76, 83
1, 50410, Note_off_c, 0, 76, 66
1, 50415, Note_on_c, 0, 55, 57
1, 50415, Note_on_c, 0, 79, 84
1, 50422, Note_on_c, 0, 58, 55
1, 50447, Note_off_c, 0, 55, 64
1, 50447, Note_on_c, 0, 48, 12
1, 50453, Note_off_c, 0, 58, 64
1, 50493, Note_off_c, 0, 79, 66
1, 50498, Note_on_c, 0, 84, 76
1, 50498, Note_off_c, 0, 48, 27
1, 50586, Note_off_c, 0, 84, 64
1, 50596, Note_on_c, 0, 77, 74
1, 50597, Note_on_c, 0, 56, 51
1, 50601, Note_on_c, 0, 53, 52
1, 50608, Control_c, 0, 64, 61
1, 50622, Note_off_c, 0, 77, 67
1, 50623, Note_off_c, 0, 56, 60
1, 50623, Control_c, 0, 64, 81
1, 50628, Note_off_c, 0, 53, 58
1, 50638, Control_c, 0, 64, 127
1, 50798, Note_on_c, 0, 66, 58
1, 50809, Note_on_c, 0, 53, 51
1, 50814, Note_on_c, 0, 49, 52
1, 50826, Note_off_c, 0, 66, 51
1, 50838, Control_c, 0, 64, 82
1, 50841, Note_off_c, 0, 53, 63
1, 50844, Note_on_c, 0, 65, 37
1, 50844, Note_off_c, 0, 49, 63
1, 50853, Control_c, 0, 64, 62
1, 50867, Control_c, 0, 64, 0
1, 50875, Note_off_c, 0, 65, 47
1, 50959, Note_on_c, 0, 65, 70
1, 50964, Note_on_c, 0, 49, 48
1, 50966, Note_on_c, 0, 53, 58
1, 50975, Note_on_c, 0, 56, 55
1, 50997, Note_off_c, 0, 53, 65
1, 50999, Note_off_c, 0, 49, 65
1, 51008, Note_off_c, 0, 56, 65
1, 51016, Note_off_c, 0, 65, 61
1, 51118, Note_on_c, 0, 53, 58
1, 51122, Note_on_c, 0, 65, 81
1, 51130, Note_on_c, 0, 49, 35
1, 51136, Note_on_c, 0, 56, 52
1, 51150, Note_off_c, 0, 53, 64
1, 51160, Note_off_c, 0, 49, 48
1, 51161, Note_off_c, 0, 56, 59
1, 51162, Note_off_c, 0, 65, 57
1, 51300, Note_on_c, 0, 64, 81
1, 51304, Note_on_c, 0, 52, 56
1, 51306, Note_on_c, 0, 48, 46
1, 51314, Note_on_c, 0, 56, 61
1, 51451, Note_off_c, 0, 48, 57
1, 51458, Note_off_c, 0, 52, 63
1, 51467, Note_on_c, 0, 53, 53
1, 51470, Note_on_c, 0, 65, 74
1, 51473, Note_on_c, 0, 49, 53
1, 51495, Note_off_c, 0, 64, 64
1, 51503, Note_off_c, 0, 56, 59
1, 51504, Note_off_c, 0, 53, 65
1, 51507, Note_off_c, 0, 49, 64
1, 51529, Note_off_c, 0, 65, 61
1, 51650, Note_on_c, 0, 65, 76
1, 51654, Note_on_c, 0, 49, 55
1, 51654, Note_on_c, 0, 56, 67
1, 51656, Note_on_c, 0, 53, 60
1, 51687, Note_off_c, 0, 49, 65
1, 51688, Note_off_c, 0, 53, 64
1, 51689, Note_off_c, 0, 56, 65
1, 51696, Note_off_c, 0, 65, 58
1, 51802, Note_on_c, 0, 49, 66
1, 51806, Note_on_c, 0, 53, 66
1, 51810, Note_on_c, 0, 65, 82
1, 51815, Note_on_c, 0, 56, 70
1, 51833, Note_off_c, 0, 49, 65
1, 51837, Note_off_c, 0, 53, 66
1, 51847, Note_off_c, 0, 56, 66
1, 51860, Note_off_c, 0, 65, 61
1, 51984, Note_on_c, 0, 65, 82
1, 51988, Note_on_c, 0, 50, 65
1, 51995, Note_on_c, 0, 59, 75
1, 52000, Note_on_c, 0, 52, 60
1, 52002, Control_c, 0, 64, 25
1, 52013, Note_on_c, 0, 53, 48
1, 52017, Control_c, 0, 64, 62
1, 52032, Control_c, 0, 64, 71
1, 52043, Note_off_c, 0, 53, 55
1, 52046, Control_c, 0, 64, 99
1, 52061, Control_c, 0, 64, 127
1, 52092, Note_off_c, 0, 59, 53
1, 52140, Note_off_c, 0, 50, 37
1, 52163, Note_off_c, 0, 52, 61
1, 52224, Note_on_c, 0, 54, 70
1, 52227, Note_on_c, 0, 66, 64
1, 52239, Note_off_c, 0, 65, 55
1, 52259, Note_on_c, 0, 68, 73
1, 52263, Note_off_c, 0, 66, 64
1, 52271, Note_off_c, 0, 54, 62
1, 52294, Note_on_c, 0, 56, 63
1, 52307, Control_c, 0, 64, 72
1, 52313, Note_on_c, 0, 51, 76
1, 52322, Control_c, 0, 64, 0
1, 52323, Note_on_c, 0, 66, 86
1, 52327, Note_on_c, 0, 58, 79
1, 52330, Note_on_c, 0, 53, 70
1, 52331, Note_off_c, 0, 56, 67
1, 52336, Note_off_c, 0, 68, 63
1, 52356, Note_on_c, 0, 50, 49
1, 52395, Control_c, 0, 64, 34
1, 52410, Control_c, 0, 64, 59
1, 52425, Control_c, 0, 64, 70
1, 52435, Note_off_c, 0, 53, 54
1, 52440, Control_c, 0, 64, 95
1, 52455, Control_c, 0, 64, 127
1, 52462, Note_off_c, 0, 58, 54
1, 52467, Note_off_c, 0, 51, 50
1, 52479, Note_off_c, 0, 50, 39
1, 52510, Note_on_c, 0, 56, 60
1, 52543, Note_on_c, 0, 68, 61
1, 52547, Note_off_c, 0, 56, 64
1, 52563, Note_on_c, 0, 69, 72
1, 52572, Note_on_c, 0, 57, 69
1, 52576, Note_off_c, 0, 66, 37
1, 52587, Note_off_c, 0, 68, 56
1, 52602, Control_c, 0, 64, 76
1, 52617, Note_off_c, 0, 69, 63
1, 52617, Control_c, 0, 64, 0
1, 52629, Note_off_c, 0, 57, 60
1, 52656, Note_on_c, 0, 68, 87
1, 52657, Note_on_c, 0, 60, 78
1, 52662, Note_on_c, 0, 51, 80
1, 52665, Note_on_c, 0, 44, 70
1, 52665, Note_on_c, 0, 66, 73
1, 52680, Note_off_c, 0, 60, 70
1, 52688, Note_off_c, 0, 51, 69
1, 52692, Control_c, 0, 64, 60
1, 52694, Note_off_c, 0, 44, 65
1, 52701, Note_off_c, 0, 66, 64
1, 52707, Control_c, 0, 64, 79
1, 52713, Note_off_c, 0, 68, 66
1, 52722, Control_c, 0, 64, 127
1, 52860, Note_on_c, 0, 72, 83
1, 52882, Note_on_c, 0, 66, 51
1, 52886, Note_on_c, 0, 62, 48
1, 52889, Note_on_c, 0, 54, 47
1, 52902, Note_off_c, 0, 66, 63
1, 52913, Note_off_c, 0, 62, 59
1, 52917, Note_off_c, 0, 54, 58
1, 52924, Poly_aftertouch_c, 0, 56, 127
1, 52930, Control_c, 0, 64, 98
1, 52933, Note_on_c, 0, 75, 90
1, 52945, Control_c, 0, 64, 78
1, 52960, Control_c, 0, 64, 61
1, 52960, Note_off_c, 0, 72, 60
1, 52961, Poly_aftertouch_c, 0, 56, 0
1, 52974, Control_c, 0, 64, 0
1, 53004, Note_on_c, 0, 80, 85
1, 53010, Note_off_c, 0, 75, 63
1, 53014, Note_on_c, 0, 66, 64
1, 53029, Note_on_c, 0, 63, 67
1, 53031, Note_on_c, 0, 56, 59
1, 53050, Note_off_c, 0, 80, 63
1, 53055, Note_off_c, 0, 66, 62
1, 53060, Note_off_c, 0, 63, 65
1, 53067, Note_off_c, 0, 56, 63
1, 53094, Note_on_c, 0, 84, 87
1, 53163, Note_on_c, 0, 87, 90
1, 53168, Note_on_c, 0, 56, 64
1, 53169, Note_on_c, 0, 66, 74
1, 53169, Note_off_c, 0, 84, 65
1, 53178, Note_on_c, 0, 63, 49
1, 53195, Note_off_c, 0, 66, 66
1, 53202, Note_off_c, 0, 63, 59
1, 53209, Note_off_c, 0, 56, 64
1, 53230, Note_off_c, 0, 87, 64
1, 53235, Note_on_c, 0, 92, 99
1, 53315, Note_off_c, 0, 92, 65
1, 53324, Note_on_c, 0, 61, 73
1, 53326, Note_on_c, 0, 85, 93
1, 53329, Note_on_c, 0, 65, 58
1, 53337, Control_c, 0, 64, 60
1, 53341, Note_off_c, 0, 85, 77
1, 53350, Note_off_c, 0, 65, 63
1, 53351, Note_off_c, 0, 61, 69
1, 53352, Control_c, 0, 64, 93
1, 53367, Control_c, 0, 64, 127
1, 53524, Note_on_c, 0, 49, 64
1, 53524, Note_on_c, 0, 53, 68
1, 53538, Note_on_c, 0, 65, 62
1, 53553, Note_off_c, 0, 49, 66
1, 53555, Note_off_c, 0, 53, 65
1, 53556, Note_on_c, 0, 56, 33
1, 53559, Control_c, 0, 64, 99
1, 53572, Note_off_c, 0, 65, 62
1, 53574, Control_c, 0, 64, 67
1, 53589, Control_c, 0, 64, 0
1, 53589, Note_off_c, 0, 56, 49
1, 53685, Note_on_c, 0, 53, 70
1, 53685, Note_on_c, 0, 65, 84
1, 53686, Note_on_c, 0, 49, 63
1, 53691, Note_on_c, 0, 56, 69
1, 53711, Note_off_c, 0, 53, 66
1, 53716, Note_off_c, 0, 49, 65
1, 53726, Note_off_c, 0, 56, 67
1, 53737, Note_off_c, 0, 65, 64
1, 53849, Note_on_c, 0, 53, 77
1, 53853, Note_on_c, 0, 65, 90
1, 53855, Note_on_c, 0, 49, 57
1, 53866, Note_on_c, 0, 56, 76
1, 53878, Note_off_c, 0, 53, 69
1, 53887, Note_off_c, 0, 49, 65
1, 53894, Note_off_c, 0, 56, 67
1, 53911, Note_off_c, 0, 65, 61
1, 54024, Note_on_c, 0, 52, 78
1, 54030, Note_on_c, 0, 48, 72
1, 54030, Note_on_c, 0, 64, 94
1, 54039, Note_on_c, 0, 56, 77
1, 54194, Note_on_c, 0, 49, 62
1, 54196, Note_on_c, 0, 53, 65
1, 54203, Note_off_c, 0, 48, 62
1, 54203, Note_on_c, 0, 65, 77
1, 54205, Note_off_c, 0, 52, 62
1, 54219, Note_off_c, 0, 56, 64
1, 54221, Note_off_c, 0, 64, 62
1, 54230, Note_off_c, 0, 53, 63
1, 54231, Note_off_c, 0, 49, 66
1, 54246, Note_off_c, 0, 65, 62
1, 54376, Note_on_c, 0, 65, 86
1, 54377, Note_on_c, 0, 49, 67
1, 54378, Note_on_c, 0, 53, 80
1, 54385, Note_on_c, 0, 56, 76
1, 54409, Note_off_c, 0, 53, 68
1, 54413, Note_off_c, 0, 49, 65
1, 54415, Note_off_c, 0, 56, 67
1, 54434, Note_off_c, 0, 65, 62
1, 54543, Note_on_c, 0, 65, 92
1, 54546, Note_on_c, 0, 49, 67
1, 54548, Note_on_c, 0, 53, 74
1, 54550, Note_on_c, 0, 56, 72
1, 54576, Note_off_c, 0, 56, 67
1, 54578, Note_off_c, 0, 53, 63
1, 54587, Note_off_c, 0, 49, 60
1, 54597, Note_off_c, 0, 65, 63
1, 54738, Note_on_c, 0, 47, 66
1, 54743, Note_on_c, 0, 71, 98
1, 54744, Note_on_c, 0, 53, 63
1, 54755, Note_on_c, 0, 62, 74
1, 54758, Note_on_c, 0, 56, 72
1, 54760, Note_on_c, 0, 65, 57
1, 54775, Control_c, 0, 64, 46
1, 54790, Note_off_c, 0, 65, 64
1, 54790, Control_c, 0, 64, 64
1, 54805, Control_c, 0, 64, 75
1, 54819, Control_c, 0, 64, 127
1, 54865, Note_off_c, 0, 62, 56
1, 54870, Note_off_c, 0, 56, 60
1, 54877, Note_off_c, 0, 47, 60
1, 54935, Note_on_c, 0, 56, 58
1, 54936, Note_on_c, 0, 46, 70
1, 54945, Note_on_c, 0, 69, 83
1, 54950, Note_off_c, 0, 71, 63
1, 54955, Note_on_c, 0, 62, 53
1, 54960, Note_on_c, 0, 65, 47
1, 54964, Note_off_c, 0, 56, 67
1, 54975, Note_off_c, 0, 62, 64
1, 54983, Note_off_c, 0, 53, 51
1, 54987, Note_off_c, 0, 65, 56
1, 54987, Note_off_c, 0, 69, 61
1, 54987, Note_off_c, 0, 46, 57
1, 54996, Control_c, 0, 64, 111
1, 55011, Control_c, 0, 64, 77
1, 55026, Control_c, 0, 64, 58
1, 55041, Control_c, 0, 64, 0
1, 55106, Note_on_c, 0, 53, 67
1, 55106, Note_on_c, 0, 70, 87
1, 55108, Note_on_c, 0, 46, 68
1, 55115, Note_on_c, 0, 65, 57
1, 55116, Note_on_c, 0, 62, 54
1, 55118, Note_on_c, 0, 56, 56
1, 55136, Note_off_c, 0, 53, 65
1, 55139, Note_off_c, 0, 56, 62
1, 55142, Note_off_c, 0, 65, 63
1, 55143, Note_off_c, 0, 46, 61
1, 55150, Note_off_c, 0, 62, 65
1, 55163, Note_off_c, 0, 70, 63
1, 55279, Note_on_c, 0, 70, 85
1, 55281, Note_on_c, 0, 56, 55
1, 55285, Note_on_c, 0, 53, 34
1, 55291, Note_on_c, 0, 65, 58
1, 55293, Note_on_c, 0, 46, 45
1, 55299, Note_on_c, 0, 62, 50
1, 55315, Note_off_c, 0, 56, 66
1, 55315, Note_off_c, 0, 65, 63
1, 55316, Note_off_c, 0, 53, 50
1, 55323, Note_off_c, 0, 46, 55
1, 55325, Note_off_c, 0, 62, 58
1, 55333, Note_off_c, 0, 70, 63
1, 55450, Note_on_c, 0, 51, 63
1, 55453, Note_on_c, 0, 67, 86
1, 55455, Note_on_c, 0, 63, 69
1, 55459, Note_on_c, 0, 55, 39
1, 55464, Control_c, 0, 64, 61
1, 55479, Control_c, 0, 64, 74
1, 55481, Note_off_c, 0, 51, 66
1, 55482, Note_off_c, 0, 63, 66
1, 55490, Note_off_c, 0, 55, 53
1, 55491, Note_off_c, 0, 67, 64
1, 55494, Control_c, 0, 64, 127
1, 55627, Note_on_c, 0, 67, 75
1, 55628, Note_on_c, 0, 63, 53
1, 55664, Note_off_c, 0, 63, 63
1, 55694, Note_on_c, 0, 70, 83
1, 55697, Note_off_c, 0, 67, 59
1, 55774, Note_off_c, 0, 70, 62
1, 55780, Note_on_c, 0, 75, 96
1, 55781, Note_on_c, 0, 63, 80
1, 55811, Note_off_c, 0, 75, 63
1, 55831, Note_off_c, 0, 63, 57
1, 55857, Note_on_c, 0, 79, 91
1, 55928, Note_on_c, 0, 82, 90
1, 55934, Note_off_c, 0, 79, 65
1, 55935, Note_on_c, 0, 63, 72
1, 55958, Note_off_c, 0, 63, 70
1, 55985, Note_off_c, 0, 82, 66
1, 55986, Note_on_c, 0, 87, 83
1, 56033, Note_off_c, 0, 87, 56
1, 56042, Note_on_c, 0, 88, 22
1, 56043, Note_off_c, 0, 88, 127
1, 56109, Control_c, 0, 64, 85
1, 56125, Control_c, 0, 64, 37
1, 56135, Note_on_c, 0, 49, 78
1, 56137, Note_on_c, 0, 58, 81
1, 56140, Control_c, 0, 64, 0
1, 56146, Note_on_c, 0, 73, 100
1, 56150, Note_on_c, 0, 55, 57
1, 56163, Note_on_c, 0, 64, 77
1, 56185, Control_c, 0, 64, 26
1, 56199, Control_c, 0, 64, 57
1, 56214, Control_c, 0, 64, 70
1, 56229, Control_c, 0, 64, 98
1, 56243, Control_c, 0, 64, 127
1, 56267, Note_off_c, 0, 58, 57
1, 56273, Note_off_c, 0, 73, 61
1, 56275, Note_off_c, 0, 64, 53
1, 56287, Note_off_c, 0, 49, 61
1, 56287, Note_off_c, 0, 55, 58
1, 56339, Note_on_c, 0, 55, 63
1, 56339, Note_on_c, 0, 72, 93
1, 56341, Note_on_c, 0, 58, 69
1, 56343, Note_on_c, 0, 48, 70
1, 56347, Note_on_c, 0, 67, 72
1, 56350, Note_on_c, 0, 64, 73
1, 56368, Note_off_c, 0, 58, 67
1, 56371, Note_off_c, 0, 67, 68
1, 56373, Note_off_c, 0, 64, 70
1, 56377, Note_off_c, 0, 48, 58
1, 56377, Control_c, 0, 64, 99
1, 56379, Note_off_c, 0, 55, 62
1, 56391, Control_c, 0, 64, 68
1, 56397, Note_off_c, 0, 72, 64
1, 56406, Control_c, 0, 64, 0
1, 56506, Note_on_c, 0, 72, 89
1, 56513, Note_on_c, 0, 55, 70
1, 56513, Note_on_c, 0, 58, 71
1, 56513, Note_on_c, 0, 67, 75
1, 56516, Note_on_c, 0, 48, 61
1, 56521, Note_on_c, 0, 64, 67
1, 56537, Note_off_c, 0, 67, 67
1, 56543, Note_off_c, 0, 58, 66
1, 56544, Note_off_c, 0, 55, 63
1, 56550, Note_off_c, 0, 48, 61
1, 56550, Note_off_c, 0, 64, 64
1, 56561, Note_off_c, 0, 72, 65
1, 56677, Note_on_c, 0, 72, 91
1, 56681, Note_on_c, 0, 55, 62
1, 56682, Note_on_c, 0, 67, 76
1, 56684, Note_on_c, 0, 48, 62
1, 56686, Note_on_c, 0, 58, 69
1, 56687, Note_on_c, 0, 64, 68
1, 56706, Note_off_c, 0, 67, 69
1, 56710, Note_off_c, 0, 55, 65
1, 56713, Note_off_c, 0, 58, 66
1, 56713, Note_off_c, 0, 64, 66
1, 56718, Note_off_c, 0, 48, 62
1, 56736, Note_off_c, 0, 72, 65
1, 56864, Note_on_c, 0, 57, 71
1, 56866, Note_on_c, 0, 53, 67
1, 56867, Note_on_c, 0, 65, 77
1, 56867, Note_on_c, 0, 69, 94
1, 56888, Control_c, 0, 64, 64
1, 56892, Note_off_c, 0, 53, 66
1, 56892, Note_off_c, 0, 57, 68
1, 56897, Note_off_c, 0, 65, 66
1, 56903, Control_c, 0, 64, 80
1, 56919, Note_off_c, 0, 69, 68
1, 56919, Control_c, 0, 64, 127
1, 57043, Note_on_c, 0, 69, 88
1, 57047, Note_on_c, 0, 65, 70
1, 57071, Note_off_c, 0, 65, 66
1, 57098, Note_off_c, 0, 69, 66
1, 57111, Note_on_c, 0, 72, 89
1, 57196, Note_on_c, 0, 77, 96
1, 57203, Note_on_c, 0, 65, 78
1, 57208, Note_off_c, 0, 72, 62
1, 57233, Note_off_c, 0, 65, 61
1, 57234, Note_off_c, 0, 77, 69
1, 57251, Note_on_c, 0, 76, 12
1, 57281, Note_on_c, 0, 81, 92
1, 57293, Note_off_c, 0, 76, 32
1, 57346, Note_on_c, 0, 65, 82
1, 57351, Note_on_c, 0, 84, 94
1, 57360, Note_off_c, 0, 81, 63
1, 57369, Note_off_c, 0, 65, 69
1, 57418, Note_on_c, 0, 89, 99
1, 57426, Note_off_c, 0, 84, 65
1, 57467, Note_off_c, 0, 89, 66
1, 57571, Note_on_c, 0, 66, 82
1, 57571, Note_on_c, 0, 90, 99
1, 57572, Note_on_c, 0, 54, 80
1, 57573, Note_on_c, 0, 78, 100
1, 57577, Control_c, 0, 64, 73
1, 57592, Control_c, 0, 64, 42
1, 57607, Note_on_c, 0, 56, 46
1, 57607, Control_c, 0, 64, 0
1, 57639, Note_off_c, 0, 56, 54
1, 57666, Control_c, 0, 64, 9
1, 57681, Control_c, 0, 64, 52
1, 57696, Control_c, 0, 64, 64
1, 57712, Control_c, 0, 64, 79
1, 57727, Control_c, 0, 64, 127
1, 57737, Note_off_c, 0, 66, 61
1, 57737, Note_off_c, 0, 78, 61
1, 57738, Note_off_c, 0, 90, 63
1, 57762, Note_off_c, 0, 54, 57
1, 57798, Note_on_c, 0, 65, 79
1, 57801, Note_on_c, 0, 53, 74
1, 57801, Note_on_c, 0, 77, 97
1, 57801, Note_on_c, 0, 89, 102
1, 57850, Note_off_c, 0, 77, 59
1, 57864, Note_off_c, 0, 53, 59
1, 57883, Note_off_c, 0, 65, 49
1, 57887, Note_off_c, 0, 89, 60
1, 57949, Control_c, 0, 64, 97
1, 57963, Control_c, 0, 64, 68
1, 57977, Note_on_c, 0, 53, 80
1, 57978, Control_c, 0, 64, 0
1, 57980, Note_on_c, 0, 77, 91
1, 57980, Note_on_c, 0, 89, 96
1, 57980, Note_on_c, 0, 65, 82
1, 58037, Control_c, 0, 64, 42
1, 58052, Control_c, 0, 64, 60
1, 58067, Control_c, 0, 64, 69
1, 58071, Note_off_c, 0, 65, 60
1, 58082, Control_c, 0, 64, 87
1, 58084, Note_off_c, 0, 77, 60
1, 58096, Note_off_c, 0, 53, 59
1, 58096, Control_c, 0, 64, 127
1, 58102, Note_off_c, 0, 89, 62
1, 58155, Note_on_c, 0, 64, 86
1, 58158, Note_on_c, 0, 76, 96
1, 58159, Note_on_c, 0, 88, 92
1, 58160, Note_on_c, 0, 52, 75
1, 58227, Note_off_c, 0, 76, 59
1, 58229, Note_off_c, 0, 52, 57
1, 58233, Note_off_c, 0, 64, 56
1, 58244, Note_off_c, 0, 88, 63
1, 58311, Control_c, 0, 64, 95
1, 58326, Control_c, 0, 64, 67
1, 58335, Note_on_c, 0, 52, 81
1, 58336, Note_on_c, 0, 76, 96
1, 58338, Note_on_c, 0, 88, 92
1, 58340, Note_on_c, 0, 64, 79
1, 58341, Control_c, 0, 64, 0
1, 58372, Note_on_c, 0, 86, 46
1, 58401, Note_off_c, 0, 86, 37
1, 58415, Control_c, 0, 64, 28
1, 58430, Control_c, 0, 64, 54
1, 58439, Note_off_c, 0, 64, 62
1, 58439, Note_off_c, 0, 76, 61
1, 58440, Note_off_c, 0, 52, 62
1, 58445, Control_c, 0, 64, 64
1, 58460, Control_c, 0, 64, 73
1, 58475, Control_c, 0, 64, 96
1, 58489, Control_c, 0, 64, 127
1, 58505, Note_on_c, 0, 53, 76
1, 58505, Note_on_c, 0, 65, 78
1, 58513, Note_on_c, 0, 77, 95
1, 58514, Note_on_c, 0, 89, 99
1, 58570, Note_off_c, 0, 65, 57
1, 58573, Note_off_c, 0, 77, 59
1, 58578, Note_off_c, 0, 88, 39
1, 58595, Note_off_c, 0, 53, 56
1, 58597, Note_off_c, 0, 89, 58
1, 58637, Control_c, 0, 64, 102
1, 58652, Control_c, 0, 64, 69
1, 58667, Control_c, 0, 64, 28
1, 58682, Control_c, 0, 64, 0
1, 58689, Note_on_c, 0, 65, 79
1, 58692, Note_on_c, 0, 89, 98
1, 58695, Note_on_c, 0, 53, 80
1, 58697, Note_on_c, 0, 77, 91
1, 58711, Control_c, 0, 64, 51
1, 58726, Control_c, 0, 64, 64
1, 58730, Note_off_c, 0, 65, 57
1, 58741, Control_c, 0, 64, 71
1, 58746, Note_off_c, 0, 89, 63
1, 58754, Note_off_c, 0, 77, 58
1, 58755, Note_off_c, 0, 53, 63
1, 58756, Control_c, 0, 64, 87
1, 58771, Control_c, 0, 64, 127
1, 58870, Note_on_c, 0, 60, 78
1, 58871, Note_on_c, 0, 48, 75
1, 58871, Note_on_c, 0, 84, 89
1, 58875, Note_on_c, 0, 72, 82
1, 58896, Note_off_c, 0, 60, 69
1, 58901, Note_off_c, 0, 48, 65
1, 58909, Note_off_c, 0, 72, 63
1, 58922, Note_off_c, 0, 84, 62
1, 59030, Control_c, 0, 64, 113
1, 59044, Control_c, 0, 64, 75
1, 59048, Note_on_c, 0, 58, 75
1, 59049, Note_on_c, 0, 82, 88
1, 59050, Note_on_c, 0, 46, 74
1, 59056, Note_on_c, 0, 70, 81
1, 59059, Control_c, 0, 64, 54
1, 59074, Control_c, 0, 64, 0
1, 59134, Control_c, 0, 64, 38
1, 59148, Control_c, 0, 64, 55
1, 59163, Control_c, 0, 64, 64
1, 59178, Control_c, 0, 64, 70
1, 59187, Note_off_c, 0, 58, 63
1, 59192, Note_off_c, 0, 70, 61
1, 59193, Control_c, 0, 64, 89
1, 59194, Note_off_c, 0, 82, 56
1, 59208, Control_c, 0, 64, 127
1, 59218, Note_on_c, 0, 69, 84
1, 59223, Note_on_c, 0, 81, 87
1, 59224, Note_on_c, 0, 45, 68
1, 59229, Note_on_c, 0, 57, 73
1, 59259, Note_off_c, 0, 46, 57
1, 59289, Note_off_c, 0, 69, 59
1, 59297, Note_off_c, 0, 57, 62
1, 59302, Note_off_c, 0, 45, 61
1, 59315, Note_off_c, 0, 81, 63
1, 59372, Control_c, 0, 64, 80
1, 59387, Control_c, 0, 64, 55
1, 59397, Note_on_c, 0, 81, 87
1, 59399, Note_on_c, 0, 57, 87
1, 59399, Note_on_c, 0, 69, 83
1, 59402, Control_c, 0, 64, 0
1, 59405, Note_on_c, 0, 45, 78
1, 59447, Control_c, 0, 64, 43
1, 59461, Control_c, 0, 64, 59
1, 59476, Control_c, 0, 64, 67
1, 59491, Control_c, 0, 64, 77
1, 59498, Note_off_c, 0, 69, 61
1, 59502, Note_off_c, 0, 57, 60
1, 59506, Control_c, 0, 64, 101
1, 59521, Control_c, 0, 64, 127
1, 59569, Note_on_c, 0, 67, 84
1, 59569, Note_on_c, 0, 79, 83
1, 59571, Note_on_c, 0, 55, 83
1, 59572, Note_on_c, 0, 43, 76
1, 59602, Note_off_c, 0, 45, 56
1, 59607, Note_off_c, 0, 81, 65
1, 59620, Note_off_c, 0, 67, 59
1, 59631, Note_off_c, 0, 55, 61
1, 59634, Note_off_c, 0, 43, 61
1, 59652, Note_off_c, 0, 79, 62
1, 59713, Control_c, 0, 64, 88
1, 59727, Control_c, 0, 64, 64
1, 59742, Note_on_c, 0, 55, 75
1, 59742, Control_c, 0, 64, 0
1, 59747, Note_on_c, 0, 67, 74
1, 59747, Note_on_c, 0, 79, 86
1, 59750, Note_on_c, 0, 43, 70
1, 59795, Control_c, 0, 64, 39
1, 59810, Control_c, 0, 64, 58
1, 59824, Control_c, 0, 64, 66
1, 59837, Note_off_c, 0, 67, 58
1, 59839, Control_c, 0, 64, 76
1, 59854, Control_c, 0, 64, 117
1, 59864, Note_off_c, 0, 55, 59
1, 59868, Control_c, 0, 64, 127
1, 59876, Note_off_c, 0, 43, 61
1, 59929, Note_on_c, 0, 77, 80
1, 59931, Note_on_c, 0, 65, 71
1, 59932, Note_on_c, 0, 53, 76
1, 59934, Note_on_c, 0, 41, 71
1, 59950, Note_off_c, 0, 79, 63
1, 59963, Note_off_c, 0, 65, 62
1, 59965, Note_off_c, 0, 53, 65
1, 59972, Control_c, 0, 64, 82
1, 59974, Note_off_c, 0, 41, 64
1, 59981, Note_off_c, 0, 77, 64
1, 59987, Control_c, 0, 64, 55
1, 60002, Control_c, 0, 64, 0
1, 60093, Note_on_c, 0, 53, 76
1, 60094, Note_on_c, 0, 41, 70
1, 60101, Note_on_c, 0, 77, 90
1, 60105, Note_on_c, 0, 65, 77
1, 60129, Note_off_c, 0, 53, 65
1, 60135, Note_off_c, 0, 65, 65
1, 60137, Note_off_c, 0, 41, 66
1, 60150, Note_off_c, 0, 77, 60
1, 60262, Note_on_c, 0, 53, 74
1, 60265, Note_on_c, 0, 41, 71
1, 60272, Note_on_c, 0, 77, 90
1, 60276, Note_on_c, 0, 65, 79
1, 60288, Note_off_c, 0, 53, 66
1, 60293, Note_off_c, 0, 41, 66
1, 60303, Note_off_c, 0, 65, 65
1, 60326, Note_off_c, 0, 77, 60
1, 60465, Note_on_c, 0, 78, 87
1, 60466, Note_on_c, 0, 42, 64
1, 60472, Note_on_c, 0, 54, 62
1, 60475, Note_on_c, 0, 66, 70
1, 60543, Control_c, 0, 64, 42
1, 60557, Control_c, 0, 64, 56
1, 60572, Control_c, 0, 64, 64
1, 60587, Control_c, 0, 64, 73
1, 60602, Control_c, 0, 64, 92
1, 60617, Control_c, 0, 64, 127
1, 60641, Note_off_c, 0, 66, 59
1, 60642, Note_off_c, 0, 54, 64
1, 60646, Note_off_c, 0, 42, 53
1, 60669, Note_off_c, 0, 78, 64
1, 60671, Note_on_c, 0, 41, 53
1, 60674, Note_on_c, 0, 77, 86
1, 60677, Note_on_c, 0, 53, 59
1, 60677, Note_on_c, 0, 65, 70
1, 60739, Note_off_c, 0, 65, 61
1, 60748, Note_off_c, 0, 41, 62
1, 60752, Note_off_c, 0, 53, 60
1, 60768, Note_off_c, 0, 77, 61
1, 60794, Control_c, 0, 64, 94
1, 60809, Control_c, 0, 64, 70
1, 60824, Control_c, 0, 64, 47
1, 60838, Control_c, 0, 64, 0
1, 60839, Note_on_c, 0, 77, 86
1, 60847, Note_on_c, 0, 65, 80
1, 60848, Note_on_c, 0, 53, 71
1, 60851, Note_on_c, 0, 41, 71
1, 60882, Control_c, 0, 64, 29
1, 60897, Control_c, 0, 64, 51
1, 60913, Control_c, 0, 64, 62
1, 60927, Note_off_c, 0, 53, 59
1, 60928, Control_c, 0, 64, 67
1, 60943, Note_off_c, 0, 65, 57
1, 60943, Control_c, 0, 64, 76
1, 60958, Control_c, 0, 64, 99
1, 60968, Note_off_c, 0, 41, 59
1, 60973, Control_c, 0, 64, 127
1, 60988, Note_off_c, 0, 77, 61
1, 61020, Note_on_c, 0, 52, 79
1, 61020, Note_on_c, 0, 76, 89
1, 61023, Note_on_c, 0, 64, 88
1, 61029, Note_on_c, 0, 40, 68
1, 61073, Note_off_c, 0, 40, 62
1, 61077, Note_off_c, 0, 64, 59
1, 61080, Note_off_c, 0, 52, 60
1, 61111, Note_off_c, 0, 76, 62
1, 61150, Control_c, 0, 64, 88
1, 61165, Control_c, 0, 64, 68
1, 61179, Control_c, 0, 64, 44
1, 61194, Control_c, 0, 64, 0
1, 61197, Note_on_c, 0, 52, 66
1, 61201, Note_on_c, 0, 76, 89
1, 61202, Note_on_c, 0, 64, 75
1, 61205, Note_on_c, 0, 40, 60
1, 61276, Control_c, 0, 64, 26
1, 61286, Note_off_c, 0, 52, 59
1, 61291, Control_c, 0, 64, 51
1, 61297, Note_off_c, 0, 64, 55
1, 61305, Control_c, 0, 64, 61
1, 61320, Control_c, 0, 64, 66
1, 61327, Note_off_c, 0, 40, 60
1, 61335, Control_c, 0, 64, 73
1, 61350, Control_c, 0, 64, 83
1, 61365, Control_c, 0, 64, 100
1, 61380, Control_c, 0, 64, 127
1, 61381, Note_on_c, 0, 77, 89
1, 61383, Note_on_c, 0, 53, 69
1, 61384, Note_on_c, 0, 41, 60
1, 61388, Note_on_c, 0, 65, 69
1, 61411, Note_off_c, 0, 76, 62
1, 61438, Note_off_c, 0, 65, 58
1, 61441, Note_off_c, 0, 53, 61
1, 61446, Note_off_c, 0, 41, 58
1, 61456, Note_off_c, 0, 77, 60
1, 61498, Control_c, 0, 64, 101
1, 61512, Control_c, 0, 64, 73
1, 61527, Control_c, 0, 64, 48
1, 61542, Control_c, 0, 64, 0
1, 61560, Note_on_c, 0, 77, 84
1, 61562, Note_on_c, 0, 41, 62
1, 61563, Note_on_c, 0, 53, 64
1, 61572, Note_on_c, 0, 65, 59
1, 61572, Control_c, 0, 64, 40
1, 61587, Control_c, 0, 64, 59
1, 61596, Note_off_c, 0, 53, 64
1, 61602, Control_c, 0, 64, 68
1, 61606, Note_off_c, 0, 77, 63
1, 61607, Note_off_c, 0, 65, 64
1, 61617, Control_c, 0, 64, 82
1, 61620, Note_off_c, 0, 41, 64
1, 61631, Control_c, 0, 64, 127
1, 61735, Note_on_c, 0, 72, 77
1, 61739, Note_on_c, 0, 48, 61
1, 61746, Note_on_c, 0, 36, 56
1, 61746, Note_on_c, 0, 60, 60
1, 61766, Note_off_c, 0, 48, 63
1, 61778, Note_off_c, 0, 60, 67
1, 61781, Note_off_c, 0, 36, 61
1, 61793, Note_off_c, 0, 72, 60
1, 61869, Control_c, 0, 64, 104
1, 61884, Control_c, 0, 64, 78
1, 61899, Control_c, 0, 64, 56
1, 61911, Note_on_c, 0, 70, 76
1, 61913, Note_on_c, 0, 34, 58
1, 61914, Control_c, 0, 64, 0
1, 61915, Note_on_c, 0, 46, 53
1, 61925, Note_on_c, 0, 58, 60
1, 61973, Control_c, 0, 64, 38
1, 61988, Control_c, 0, 64, 56
1, 62010, Control_c, 0, 64, 63
1, 62025, Control_c, 0, 64, 67
1, 62040, Control_c, 0, 64, 74
1, 62048, Note_off_c, 0, 58, 62
1, 62055, Control_c, 0, 64, 86
1, 62058, Note_off_c, 0, 46, 40
1, 62061, Note_off_c, 0, 70, 59
1, 62069, Control_c, 0, 64, 111
1, 62084, Control_c, 0, 64, 127
1, 62089, Note_on_c, 0, 69, 76
1, 62093, Note_on_c, 0, 33, 60
1, 62096, Note_on_c, 0, 57, 63
1, 62099, Note_on_c, 0, 45, 57
1, 62125, Note_off_c, 0, 34, 35
1, 62148, Note_off_c, 0, 45, 61
1, 62148, Note_off_c, 0, 57, 58
1, 62156, Note_off_c, 0, 33, 59
1, 62177, Note_off_c, 0, 69, 58
1, 62217, Control_c, 0, 64, 99
1, 62232, Control_c, 0, 64, 72
1, 62247, Control_c, 0, 64, 49
1, 62261, Control_c, 0, 64, 0
1, 62266, Note_on_c, 0, 45, 52
1, 62272, Note_on_c, 0, 69, 74
1, 62272, Note_on_c, 0, 33, 59
1, 62274, Note_on_c, 0, 57, 54
1, 62306, Control_c, 0, 64, 38
1, 62321, Control_c, 0, 64, 57
1, 62335, Note_off_c, 0, 57, 61
1, 62335, Control_c, 0, 64, 64
1, 62342, Note_off_c, 0, 45, 59
1, 62350, Control_c, 0, 64, 69
1, 62365, Control_c, 0, 64, 81
1, 62380, Control_c, 0, 64, 102
1, 62395, Control_c, 0, 64, 127
1, 62407, Note_off_c, 0, 33, 53
1, 62442, Note_on_c, 0, 67, 73
1, 62445, Note_on_c, 0, 31, 57
1, 62448, Note_on_c, 0, 55, 61
1, 62452, Note_on_c, 0, 43, 55
1, 62465, Note_off_c, 0, 69, 59
1, 62489, Note_off_c, 0, 55, 62
1, 62490, Note_off_c, 0, 43, 63
1, 62496, Note_off_c, 0, 31, 58
1, 62514, Note_off_c, 0, 67, 61
1, 62559, Control_c, 0, 64, 90
1, 62573, Control_c, 0, 64, 67
1, 62588, Control_c, 0, 64, 37
1, 62603, Control_c, 0, 64, 0
1, 62612, Note_on_c, 0, 31, 47
1, 62626, Note_on_c, 0, 67, 68
1, 62628, Note_on_c, 0, 43, 40
1, 62642, Note_on_c, 0, 55, 40
1, 62663, Control_c, 0, 64, 37
1, 62677, Control_c, 0, 64, 56
1, 62681, Note_off_c, 0, 43, 58
1, 62692, Note_off_c, 0, 55, 60
1, 62692, Control_c, 0, 64, 63
1, 62707, Control_c, 0, 64, 68
1, 62722, Control_c, 0, 64, 78
1, 62727, Note_off_c, 0, 31, 58
1, 62737, Control_c, 0, 64, 101
1, 62758, Control_c, 0, 64, 127
1, 62811, Note_off_c, 0, 67, 56
1, 62815, Note_on_c, 0, 65, 61
1, 62817, Note_on_c, 0, 29, 52
1, 62818, Control_c, 0, 64, 93
1, 62820, Note_on_c, 0, 53, 56
1, 62829, Note_on_c, 0, 41, 39
1, 62833, Control_c, 0, 64, 73
1, 62848, Control_c, 0, 64, 61
1, 62854, Note_off_c, 0, 53, 61
1, 62858, Note_off_c, 0, 65, 59
1, 62860, Note_off_c, 0, 29, 60
1, 62863, Control_c, 0, 64, 33
1, 62866, Note_off_c, 0, 41, 50
1, 62878, Control_c, 0, 64, 0
1, 62995, Note_on_c, 0, 41, 34
1, 62995, Note_on_c, 0, 65, 61
1, 62997, Note_on_c, 0, 29, 39
1, 63004, Note_on_c, 0, 53, 52
1, 63034, Note_off_c, 0, 41, 49
1, 63036, Note_off_c, 0, 65, 56
1, 63037, Note_off_c, 0, 29, 50
1, 63039, Note_off_c, 0, 53, 59
1, 63163, Note_on_c, 0, 41, 46
1, 63164, Note_on_c, 0, 29, 41
1, 63164, Note_on_c, 0, 65, 58
1, 63167, Note_on_c, 0, 53, 48
1, 63208, Note_off_c, 0, 29, 60
1, 63209, Note_off_c, 0, 65, 57
1, 63211, Note_off_c, 0, 41, 59
1, 63214, Note_off_c, 0, 53, 60
1, 63341, Note_on_c, 0, 41, 46
1, 63343, Note_on_c, 0, 65, 52
1, 63345, Note_on_c, 0, 53, 47
1, 63393, Note_off_c, 0, 53, 59
1, 63393, Note_off_c, 0, 41, 57
1, 63393, Note_off_c, 0, 65, 57
1, 63527, Note_on_c, 0, 53, 45
1, 63530, Note_on_c, 0, 41, 51
1, 63530, Note_on_c, 0, 65, 49
1, 63572, Note_off_c, 0, 41, 62
1, 63581, Note_off_c, 0, 53, 58
1, 63581, Note_off_c, 0, 65, 56
1, 63703, Note_on_c, 0, 65, 50
1, 63706, Note_on_c, 0, 41, 48
1, 63706, Note_on_c, 0, 53, 49
1, 63743, Note_off_c, 0, 41, 62
1, 63756, Note_off_c, 0, 65, 57
1, 63757, Note_off_c, 0, 53, 58
1, 63875, Note_on_c, 0, 65, 53
1, 63879, Note_on_c, 0, 53, 47
1, 63882, Note_on_c, 0, 41, 57
1, 63929, Note_off_c, 0, 41, 61
1, 63932, Note_off_c, 0, 53, 58
1, 63943, Note_off_c, 0, 65, 55
1, 64054, Note_on_c, 0, 53, 47
1, 64057, Note_on_c, 0, 41, 51
1, 64061, Note_on_c, 0, 65, 55
1, 64112, Note_off_c, 0, 53, 57
1, 64114, Note_off_c, 0, 41, 57
1, 64115, Note_off_c, 0, 65, 55
1, 64228, Note_on_c, 0, 41, 51
1, 64237, Note_on_c, 0, 53, 45
1, 64239, Note_on_c, 0, 65, 56
1, 64290, Note_off_c, 0, 41, 58
1, 64299, Note_off_c, 0, 53, 58
1, 64311, Note_off_c, 0, 65, 53
1, 64411, Note_on_c, 0, 41, 50
1, 64424, Note_on_c, 0, 65, 56
1, 64428, Note_on_c, 0, 53, 47
1, 64475, Note_off_c, 0, 41, 61
1, 64485, Note_off_c, 0, 53, 58
1, 64494, Note_off_c, 0, 65, 57
1, 64600, Note_on_c, 0, 41, 43
1, 64610, Note_on_c, 0, 65, 59
1, 64614, Note_on_c, 0, 53, 45
1, 64652, Note_off_c, 0, 41, 57
1, 64669, Note_off_c, 0, 53, 55
1, 64693, Note_off_c, 0, 65, 56
1, 64842, Note_on_c, 0, 52, 33
1, 64845, Note_on_c, 0, 64, 51
1, 64849, Note_on_c, 0, 61, 29
1, 64854, Note_on_c, 0, 58, 19
1, 64863, Note_on_c, 0, 55, 28
1, 65089, Note_on_c, 0, 63, 48
1, 65093, Note_on_c, 0, 51, 37
1, 65098, Note_off_c, 0, 64, 53
1, 65115, Note_off_c, 0, 52, 44
1, 65124, Control_c, 0, 64, 15
1, 65139, Control_c, 0, 64, 33
1, 65153, Control_c, 0, 64, 54
1, 65168, Control_c, 0, 64, 63
1, 65173, Note_off_c, 0, 51, 61
1, 65174, Note_off_c, 0, 58, 38
1, 65176, Note_off_c, 0, 55, 42
1, 65183, Note_off_c, 0, 61, 41
1, 65183, Note_off_c, 0, 63, 61
1, 65183, Control_c, 0, 64, 67
1, 65198, Control_c, 0, 64, 71
1, 65213, Control_c, 0, 64, 75
1, 65227, Control_c, 0, 64, 79
1, 65242, Control_c, 0, 64, 85
1, 65257, Control_c, 0, 64, 91
1, 65271, Control_c, 0, 64, 94
1, 65272, Note_on_c, 0, 63, 51
1, 65280, Note_on_c, 0, 51, 39
1, 65286, Control_c, 0, 64, 97
1, 65293, Note_on_c, 0, 55, 42
1, 65301, Note_on_c, 0, 61, 41
1, 65301, Control_c, 0, 64, 99
1, 65314, Note_on_c, 0, 58, 25
1, 65316, Control_c, 0, 64, 102
1, 65321, Note_off_c, 0, 51, 53
1, 65331, Control_c, 0, 64, 102
1, 65338, Note_off_c, 0, 55, 55
1, 65340, Note_off_c, 0, 61, 49
1, 65344, Note_off_c, 0, 63, 54
1, 65355, Note_off_c, 0, 58, 44
1, 65390, Control_c, 0, 64, 101
1, 65405, Control_c, 0, 64, 100
1, 65420, Control_c, 0, 64, 98
1, 65435, Control_c, 0, 64, 97
1, 65445, Note_on_c, 0, 51, 47
1, 65465, Note_on_c, 0, 55, 41
1, 65471, Note_on_c, 0, 63, 54
1, 65474, Note_on_c, 0, 58, 37
1, 65475, Note_on_c, 0, 61, 38
1, 65494, Note_off_c, 0, 51, 53
1, 65504, Note_off_c, 0, 55, 54
1, 65507, Note_off_c, 0, 58, 53
1, 65509, Note_off_c, 0, 61, 56
1, 65513, Note_off_c, 0, 63, 60
1, 65539, Control_c, 0, 64, 97
1, 65553, Control_c, 0, 64, 96
1, 65568, Control_c, 0, 64, 96
1, 65583, Control_c, 0, 64, 95
1, 65598, Control_c, 0, 64, 95
1, 65643, Note_on_c, 0, 63, 56
1, 65645, Note_on_c, 0, 51, 41
1, 65649, Note_on_c, 0, 55, 40
1, 65659, Note_on_c, 0, 61, 35
1, 65674, Note_on_c, 0, 58, 6
1, 65697, Note_off_c, 0, 51, 48
1, 65697, Note_off_c, 0, 55, 54
1, 65697, Note_off_c, 0, 61, 52
1, 65706, Note_off_c, 0, 63, 51
1, 65724, Note_off_c, 0, 58, 38
1, 65829, Control_c, 0, 64, 95
1, 65854, Note_on_c, 0, 63, 52
1, 65858, Note_on_c, 0, 55, 38
1, 65863, Note_on_c, 0, 58, 35
1, 65864, Note_on_c, 0, 51, 43
1, 65873, Note_on_c, 0, 61, 36
1, 65888, Control_c, 0, 64, 96
1, 65902, Control_c, 0, 64, 96
1, 65904, Note_off_c, 0, 58, 49
1, 65909, Note_off_c, 0, 55, 52
1, 65910, Note_off_c, 0, 61, 52
1, 65918, Note_off_c, 0, 51, 54
1, 65919, Note_off_c, 0, 63, 51
1, 65947, Control_c, 0, 64, 97
1, 65991, Control_c, 0, 64, 97
1, 66021, Control_c, 0, 64, 98
1, 66036, Control_c, 0, 64, 98
1, 66050, Control_c, 0, 64, 99
1, 66065, Control_c, 0, 64, 99
1, 66080, Control_c, 0, 64, 100
1, 66091, Note_on_c, 0, 63, 48
1, 66094, Note_on_c, 0, 51, 44
1, 66095, Control_c, 0, 64, 101
1, 66104, Note_on_c, 0, 61, 42
1, 66107, Note_on_c, 0, 55, 35
1, 66109, Control_c, 0, 64, 102
1, 66124, Control_c, 0, 64, 103
1, 66135, Note_on_c, 0, 58, 7
1, 66139, Control_c, 0, 64, 104
1, 66145, Note_off_c, 0, 51, 58
1, 66145, Note_off_c, 0, 63, 52
1, 66148, Note_off_c, 0, 61, 55
1, 66154, Control_c, 0, 64, 104
1, 66160, Note_off_c, 0, 55, 45
1, 66168, Control_c, 0, 64, 105
1, 66183, Control_c, 0, 64, 106
1, 66184, Note_off_c, 0, 58, 50
1, 66198, Control_c, 0, 64, 107
1, 66228, Control_c, 0, 64, 107
1, 66258, Control_c, 0, 64, 108
1, 66347, Control_c, 0, 64, 107
1, 66356, Note_on_c, 0, 51, 42
1, 66362, Control_c, 0, 64, 107
1, 66363, Note_on_c, 0, 63, 48
1, 66370, Note_on_c, 0, 61, 37
1, 66376, Control_c, 0, 64, 106
1, 66383, Note_on_c, 0, 55, 22
1, 66391, Control_c, 0, 64, 106
1, 66421, Control_c, 0, 64, 105
1, 66428, Note_off_c, 0, 55, 48
1, 66428, Note_off_c, 0, 61, 50
1, 66450, Control_c, 0, 64, 105
1, 66455, Note_off_c, 0, 51, 36
1, 66465, Note_off_c, 0, 63, 38
1, 66465, Control_c, 0, 64, 104
1, 66480, Control_c, 0, 64, 104
1, 66518, Control_c, 0, 64, 103
1, 66532, Control_c, 0, 64, 103
1, 66547, Control_c, 0, 64, 102
1, 66562, Control_c, 0, 64, 102
1, 66577, Control_c, 0, 64, 101
1, 66592, Control_c, 0, 64, 100
1, 66607, Control_c, 0, 64, 99
1, 66622, Control_c, 0, 64, 98
1, 66636, Control_c, 0, 64, 96
1, 66651, Control_c, 0, 64, 94
1, 66666, Control_c, 0, 64, 93
1, 66681, Control_c, 0, 64, 92
1, 66696, Control_c, 0, 64, 91
1, 66711, Control_c, 0, 64, 89
1, 66725, Control_c, 0, 64, 84
1, 66740, Control_c, 0, 64, 73
1, 66744, Note_on_c, 0, 44, 46
1, 66744, Note_on_c, 0, 63, 41
1, 66755, Control_c, 0, 64, 63
1, 66763, Note_on_c, 0, 56, 32
1, 66768, Note_on_c, 0, 60, 30
1, 66771, Control_c, 0, 64, 40
1, 66786, Control_c, 0, 64, 0
1, 66830, Control_c, 0, 64, 34
1, 66845, Control_c, 0, 64, 51
1, 66860, Control_c, 0, 64, 62
1, 66874, Control_c, 0, 64, 69
1, 66877, Note_off_c, 0, 56, 58
1, 66886, Note_off_c, 0, 60, 60
1, 66889, Control_c, 0, 64, 78
1, 66904, Control_c, 0, 64, 92
1, 66916, Note_off_c, 0, 63, 63
1, 66919, Control_c, 0, 64, 111
1, 66933, Control_c, 0, 64, 127
1, 66978, Control_c, 0, 64, 123
1, 66993, Control_c, 0, 64, 119
1, 67007, Control_c, 0, 64, 116
1, 67022, Control_c, 0, 64, 111
1, 67037, Control_c, 0, 64, 108
1, 67052, Control_c, 0, 64, 105
1, 67067, Control_c, 0, 64, 102
1, 67081, Control_c, 0, 64, 100
1, 67096, Control_c, 0, 64, 98
1, 67111, Control_c, 0, 64, 95
1, 67125, Control_c, 0, 64, 92
1, 67140, Control_c, 0, 64, 85
1, 67150, Note_on_c, 0, 72, 51
1, 67155, Control_c, 0, 64, 76
1, 67166, Note_on_c, 0, 51, 27
1, 67170, Control_c, 0, 64, 67
1, 67182, Note_on_c, 0, 63, 6
1, 67185, Control_c, 0, 64, 59
1, 67200, Control_c, 0, 64, 56
1, 67203, Note_on_c, 0, 68, 8
1, 67215, Control_c, 0, 64, 59
1, 67230, Control_c, 0, 64, 62
1, 67251, Control_c, 0, 64, 64
1, 67266, Control_c, 0, 64, 67
1, 67271, Note_off_c, 0, 68, 45
1, 67275, Note_off_c, 0, 63, 39
1, 67281, Control_c, 0, 64, 72
1, 67289, Note_off_c, 0, 72, 59
1, 67296, Control_c, 0, 64, 83
1, 67300, Note_off_c, 0, 51, 36
1, 67312, Control_c, 0, 64, 98
1, 67327, Control_c, 0, 64, 127
1, 67411, Note_on_c, 0, 72, 61
1, 67414, Note_on_c, 0, 63, 39
1, 67429, Note_on_c, 0, 51, 41
1, 67458, Note_off_c, 0, 63, 53
1, 67465, Note_off_c, 0, 51, 53
1, 67480, Note_off_c, 0, 72, 52
1, 67617, Note_on_c, 0, 72, 61
1, 67620, Note_on_c, 0, 51, 48
1, 67631, Note_on_c, 0, 63, 49
1, 67662, Note_on_c, 0, 68, 19
1, 67671, Note_off_c, 0, 51, 59
1, 67685, Note_off_c, 0, 63, 54
1, 67710, Note_off_c, 0, 68, 45
1, 67727, Control_c, 0, 64, 119
1, 67739, Note_off_c, 0, 72, 55
1, 67742, Control_c, 0, 64, 116
1, 67756, Control_c, 0, 64, 113
1, 67771, Control_c, 0, 64, 108
1, 67786, Control_c, 0, 64, 97
1, 67801, Control_c, 0, 64, 83
1, 67809, Note_on_c, 0, 51, 43
1, 67814, Note_on_c, 0, 71, 62
1, 67816, Control_c, 0, 64, 70
1, 67830, Control_c, 0, 64, 60
1, 67835, Note_on_c, 0, 68, 30
1, 67844, Note_on_c, 0, 62, 36
1, 67845, Control_c, 0, 64, 48
1, 67860, Control_c, 0, 64, 52
1, 67874, Control_c, 0, 64, 57
1, 67889, Control_c, 0, 64, 61
1, 67894, Note_off_c, 0, 62, 52
1, 67904, Control_c, 0, 64, 64
1, 67919, Control_c, 0, 64, 67
1, 67934, Control_c, 0, 64, 72
1, 67948, Control_c, 0, 64, 81
1, 67963, Control_c, 0, 64, 91
1, 67978, Control_c, 0, 64, 99
1, 68001, Control_c, 0, 64, 103
1, 68016, Control_c, 0, 64, 104
1, 68024, Note_on_c, 0, 56, 46
1, 68030, Control_c, 0, 64, 100
1, 68032, Note_on_c, 0, 72, 68
1, 68045, Control_c, 0, 64, 87
1, 68052, Note_off_c, 0, 71, 52
1, 68055, Note_on_c, 0, 63, 45
1, 68060, Control_c, 0, 64, 73
1, 68074, Control_c, 0, 64, 63
1, 68089, Control_c, 0, 64, 55
1, 68106, Control_c, 0, 64, 59
1, 68115, Note_off_c, 0, 51, 34
1, 68121, Control_c, 0, 64, 63
1, 68121, Note_off_c, 0, 68, 34
1, 68135, Control_c, 0, 64, 67
1, 68143, Note_off_c, 0, 72, 60
1, 68149, Note_off_c, 0, 56, 61
1, 68150, Control_c, 0, 64, 74
1, 68165, Control_c, 0, 64, 90
1, 68166, Note_off_c, 0, 63, 38
1, 68179, Control_c, 0, 64, 127
1, 68222, Note_on_c, 0, 56, 51
1, 68234, Note_on_c, 0, 72, 85
1, 68259, Note_on_c, 0, 63, 53
1, 68276, Note_on_c, 0, 68, 6
1, 68285, Note_off_c, 0, 63, 58
1, 68309, Note_off_c, 0, 72, 59
1, 68325, Note_off_c, 0, 68, 37
1, 68331, Note_off_c, 0, 56, 37
1, 68416, Note_on_c, 0, 72, 84
1, 68418, Note_on_c, 0, 56, 57
1, 68425, Note_on_c, 0, 63, 61
1, 68427, Note_on_c, 0, 68, 66
1, 68431, Note_off_c, 0, 44, 40
1, 68455, Note_off_c, 0, 68, 66
1, 68457, Note_off_c, 0, 63, 65
1, 68505, Note_off_c, 0, 72, 59
1, 68601, Note_off_c, 0, 56, 42
1, 68609, Control_c, 0, 64, 111
1, 68624, Control_c, 0, 64, 104
1, 68639, Note_on_c, 0, 49, 44
1, 68639, Control_c, 0, 64, 99
1, 68646, Note_on_c, 0, 75, 80
1, 68653, Control_c, 0, 64, 94
1, 68668, Control_c, 0, 64, 91
1, 68669, Note_on_c, 0, 66, 54
1, 68683, Control_c, 0, 64, 87
1, 68697, Control_c, 0, 64, 83
1, 68702, Note_on_c, 0, 68, 6
1, 68712, Control_c, 0, 64, 80
1, 68727, Control_c, 0, 64, 77
1, 68750, Control_c, 0, 64, 74
1, 68765, Control_c, 0, 64, 72
1, 68779, Control_c, 0, 64, 69
1, 68794, Control_c, 0, 64, 68
1, 68809, Control_c, 0, 64, 67
1, 68824, Control_c, 0, 64, 65
1, 68839, Control_c, 0, 64, 64
1, 68852, Note_off_c, 0, 68, 0
1, 68853, Control_c, 0, 64, 60
1, 68866, Note_off_c, 0, 66, 61
1, 68868, Control_c, 0, 64, 53
1, 68883, Control_c, 0, 64, 39
1, 68886, Note_on_c, 0, 73, 76
1, 68888, Note_on_c, 0, 56, 45
1, 68890, Poly_aftertouch_c, 0, 68, 127
1, 68899, Control_c, 0, 64, 25
1, 68900, Note_on_c, 0, 65, 52
1, 68914, Control_c, 0, 64, 19
1, 68925, Note_off_c, 0, 75, 61
1, 68958, Control_c, 0, 64, 22
1, 68973, Control_c, 0, 64, 35
1, 68984, Note_off_c, 0, 65, 54
1, 68988, Control_c, 0, 64, 48
1, 68988, Note_off_c, 0, 56, 62
1, 69002, Control_c, 0, 64, 57
1, 69009, Note_off_c, 0, 73, 63
1, 69016, Control_c, 0, 64, 62
1, 69018, Poly_aftertouch_c, 0, 68, 0
1, 69031, Control_c, 0, 64, 66
1, 69046, Control_c, 0, 64, 71
1, 69061, Control_c, 0, 64, 84
1, 69075, Control_c, 0, 64, 109
1, 69082, Note_on_c, 0, 73, 82
1, 69085, Note_on_c, 0, 56, 54
1, 69090, Control_c, 0, 64, 127
1, 69105, Note_on_c, 0, 65, 49
1, 69129, Note_off_c, 0, 65, 59
1, 69144, Note_off_c, 0, 56, 59
1, 69158, Note_off_c, 0, 73, 62
1, 69166, Poly_aftertouch_c, 0, 68, 127
1, 69194, Poly_aftertouch_c, 0, 68, 0
1, 69265, Note_on_c, 0, 56, 55
1, 69265, Note_on_c, 0, 73, 75
1, 69270, Note_on_c, 0, 65, 29
1, 69285, Note_on_c, 0, 68, 36
1, 69304, Note_off_c, 0, 56, 62
1, 69317, Note_off_c, 0, 68, 52
1, 69331, Note_off_c, 0, 65, 41
1, 69335, Note_off_c, 0, 73, 58
1, 69467, Note_on_c, 0, 73, 56
1, 69471, Note_on_c, 0, 56, 46
1, 69479, Note_on_c, 0, 65, 32
1, 69528, Note_off_c, 0, 65, 50
1, 69555, Poly_aftertouch_c, 0, 68, 0
1, 69555, Note_off_c, 0, 73, 63
1, 69631, Control_c, 0, 64, 121
1, 69646, Control_c, 0, 64, 98
1, 69661, Control_c, 0, 64, 79
1, 69673, Note_on_c, 0, 57, 44
1, 69675, Control_c, 0, 64, 64
1, 69681, Note_on_c, 0, 72, 62
1, 69689, Note_off_c, 0, 56, 38
1, 69691, Control_c, 0, 64, 46
1, 69703, Note_on_c, 0, 63, 48
1, 69704, Note_on_c, 0, 65, 20
1, 69706, Control_c, 0, 64, 28
1, 69721, Control_c, 0, 64, 35
1, 69736, Control_c, 0, 64, 43
1, 69750, Control_c, 0, 64, 51
1, 69765, Control_c, 0, 64, 57
1, 69769, Note_off_c, 0, 63, 57
1, 69780, Control_c, 0, 64, 63
1, 69795, Control_c, 0, 64, 67
1, 69810, Control_c, 0, 64, 76
1, 69824, Control_c, 0, 64, 89
1, 69839, Control_c, 0, 64, 98
1, 69854, Control_c, 0, 64, 89
1, 69869, Control_c, 0, 64, 76
1, 69871, Note_on_c, 0, 58, 46
1, 69879, Note_on_c, 0, 70, 69
1, 69884, Control_c, 0, 64, 65
1, 69887, Note_on_c, 0, 61, 46
1, 69892, Note_off_c, 0, 49, 40
1, 69898, Control_c, 0, 64, 54
1, 69913, Control_c, 0, 64, 55
1, 69928, Control_c, 0, 64, 62
1, 69942, Control_c, 0, 64, 68
1, 69957, Control_c, 0, 64, 79
1, 69972, Control_c, 0, 64, 127
1, 70011, Note_off_c, 0, 57, 50
1, 70017, Control_c, 0, 64, 94
1, 70032, Control_c, 0, 64, 73
1, 70037, Note_off_c, 0, 58, 51
1, 70044, Note_off_c, 0, 61, 55
1, 70047, Control_c, 0, 64, 60
1, 70058, Note_on_c, 0, 53, 39
1, 70062, Control_c, 0, 64, 53
1, 70062, Note_off_c, 0, 72, 54
1, 70067, Note_on_c, 0, 68, 73
1, 70075, Note_on_c, 0, 50, 40
1, 70076, Control_c, 0, 64, 60
1, 70085, Note_on_c, 0, 60, 46
1, 70091, Control_c, 0, 64, 66
1, 70106, Control_c, 0, 64, 75
1, 70120, Note_off_c, 0, 65, 53
1, 70121, Control_c, 0, 64, 95
1, 70125, Note_off_c, 0, 70, 57
1, 70132, Note_off_c, 0, 50, 63
1, 70136, Control_c, 0, 64, 127
1, 70140, Note_off_c, 0, 53, 62
1, 70142, Note_off_c, 0, 60, 57
1, 70166, Note_off_c, 0, 68, 60
1, 70261, Control_c, 0, 64, 111
1, 70276, Control_c, 0, 64, 76
1, 70291, Control_c, 0, 64, 60
1, 70296, Note_on_c, 0, 68, 65
1, 70297, Note_on_c, 0, 39, 50
1, 70306, Note_on_c, 0, 60, 35
1, 70306, Control_c, 0, 64, 16
1, 70321, Control_c, 0, 64, 9
1, 70336, Control_c, 0, 64, 38
1, 70350, Control_c, 0, 64, 51
1, 70365, Control_c, 0, 64, 60
1, 70380, Control_c, 0, 64, 66
1, 70380, Poly_aftertouch_c, 0, 63, 127
1, 70386, Note_off_c, 0, 60, 59
1, 70395, Control_c, 0, 64, 73
1, 70410, Control_c, 0, 64, 85
1, 70424, Control_c, 0, 64, 103
1, 70439, Control_c, 0, 64, 127
1, 70469, Control_c, 0, 64, 119
1, 70484, Control_c, 0, 64, 116
1, 70500, Control_c, 0, 64, 114
1, 70515, Control_c, 0, 64, 111
1, 70518, Note_on_c, 0, 67, 56
1, 70518, Note_on_c, 0, 51, 49
1, 70530, Control_c, 0, 64, 107
1, 70540, Note_on_c, 0, 58, 53
1, 70544, Control_c, 0, 64, 102
1, 70558, Note_off_c, 0, 68, 35
1, 70559, Control_c, 0, 64, 97
1, 70574, Control_c, 0, 64, 91
1, 70578, Note_off_c, 0, 51, 56
1, 70589, Control_c, 0, 64, 87
1, 70589, Note_off_c, 0, 58, 56
1, 70604, Control_c, 0, 64, 84
1, 70615, Poly_aftertouch_c, 0, 63, 0
1, 70615, Note_off_c, 0, 67, 58
1, 70619, Control_c, 0, 64, 82
1, 70634, Control_c, 0, 64, 78
1, 70648, Control_c, 0, 64, 70
1, 70663, Control_c, 0, 64, 61
1, 70678, Control_c, 0, 64, 35
1, 70693, Control_c, 0, 64, 0
1, 70712, Note_on_c, 0, 51, 44
1, 70720, Note_on_c, 0, 67, 58
1, 70722, Note_on_c, 0, 58, 41
1, 70722, Control_c, 0, 64, 12
1, 70737, Note_on_c, 0, 63, 46
1, 70737, Control_c, 0, 64, 32
1, 70752, Control_c, 0, 64, 44
1, 70766, Control_c, 0, 64, 51
1, 70781, Control_c, 0, 64, 56
1, 70789, Note_off_c, 0, 58, 55
1, 70791, Note_off_c, 0, 63, 56
1, 70792, Note_off_c, 0, 51, 56
1, 70796, Control_c, 0, 64, 60
1, 70802, Note_off_c, 0, 67, 60
1, 70811, Control_c, 0, 64, 63
1, 70826, Control_c, 0, 64, 67
1, 70840, Control_c, 0, 64, 73
1, 70855, Control_c, 0, 64, 80
1, 70870, Control_c, 0, 64, 89
1, 70885, Control_c, 0, 64, 99
1, 70889, Note_on_c, 0, 51, 45
1, 70900, Control_c, 0, 64, 106
1, 70914, Note_on_c, 0, 67, 54
1, 70915, Control_c, 0, 64, 108
1, 70915, Note_on_c, 0, 58, 39
1, 70915, Note_on_c, 0, 63, 42
1, 70929, Control_c, 0, 64, 108
1, 70950, Note_off_c, 0, 58, 52
1, 70951, Note_off_c, 0, 63, 52
1, 70959, Note_off_c, 0, 67, 56
1, 70962, Note_off_c, 0, 51, 51
1, 71026, Control_c, 0, 64, 108
1, 71070, Control_c, 0, 64, 107
1, 71085, Control_c, 0, 64, 107
1, 71110, Note_on_c, 0, 67, 57
1, 71111, Note_on_c, 0, 51, 39
1, 71125, Note_on_c, 0, 58, 40
1, 71135, Note_on_c, 0, 63, 30
1, 71156, Note_off_c, 0, 58, 56
1, 71164, Note_off_c, 0, 67, 56
1, 71169, Note_off_c, 0, 63, 46
1, 71173, Control_c, 0, 64, 106
1, 71188, Control_c, 0, 64, 106
1, 71203, Note_off_c, 0, 51, 39
1, 71203, Control_c, 0, 64, 105
1, 71218, Control_c, 0, 64, 104
1, 71233, Control_c, 0, 64, 104
1, 71248, Control_c, 0, 64, 103
1, 71261, Control_c, 0, 64, 102
1, 71299, Note_on_c, 0, 67, 59
1, 71307, Control_c, 0, 64, 102
1, 71319, Note_on_c, 0, 51, 44
1, 71322, Control_c, 0, 64, 101
1, 71323, Note_on_c, 0, 58, 50
1, 71336, Note_on_c, 0, 63, 28
1, 71337, Control_c, 0, 64, 100
1, 71351, Control_c, 0, 64, 100
1, 71366, Control_c, 0, 64, 99
1, 71381, Control_c, 0, 64, 98
1, 71394, Note_off_c, 0, 58, 60
1, 71395, Control_c, 0, 64, 97
1, 71427, Note_off_c, 0, 51, 38
1, 71440, Control_c, 0, 64, 96
1, 71442, Note_off_c, 0, 63, 0
1, 71455, Control_c, 0, 64, 94
1, 71469, Control_c, 0, 64, 86
1, 71478, Poly_aftertouch_c, 0, 63, 127
1, 71484, Control_c, 0, 64, 72
1, 71499, Control_c, 0, 64, 61
1, 71504, Note_on_c, 0, 68, 61
1, 71514, Control_c, 0, 64, 44
1, 71515, Note_on_c, 0, 51, 41
1, 71527, Note_on_c, 0, 60, 39
1, 71529, Control_c, 0, 64, 42
1, 71543, Control_c, 0, 64, 49
1, 71558, Note_off_c, 0, 67, 54
1, 71558, Control_c, 0, 64, 56
1, 71573, Control_c, 0, 64, 62
1, 71588, Control_c, 0, 64, 67
1, 71588, Note_off_c, 0, 60, 62
1, 71603, Control_c, 0, 64, 74
1, 71618, Control_c, 0, 64, 85
1, 71621, Note_off_c, 0, 51, 39
1, 71632, Control_c, 0, 64, 101
1, 71647, Control_c, 0, 64, 127
1, 71706, Note_on_c, 0, 70, 62
1, 71711, Note_on_c, 0, 51, 40
1, 71727, Note_on_c, 0, 61, 47
1, 71777, Poly_aftertouch_c, 0, 63, 0
1, 71780, Note_off_c, 0, 39, 38
1, 71784, Note_off_c, 0, 61, 57
1, 71792, Note_off_c, 0, 68, 33
1, 71802, Control_c, 0, 64, 114
1, 71817, Control_c, 0, 64, 107
1, 71832, Control_c, 0, 64, 102
1, 71847, Control_c, 0, 64, 99
1, 71862, Control_c, 0, 64, 96
1, 71877, Control_c, 0, 64, 92
1, 71892, Control_c, 0, 64, 89
1, 71907, Control_c, 0, 64, 87
1, 71916, Note_on_c, 0, 44, 43
1, 71921, Control_c, 0, 64, 85
1, 71922, Note_on_c, 0, 63, 56
1, 71936, Control_c, 0, 64, 82
1, 71947, Note_off_c, 0, 70, 35
1, 71951, Control_c, 0, 64, 79
1, 71953, Note_on_c, 0, 61, 43
1, 71966, Control_c, 0, 64, 76
1, 71981, Control_c, 0, 64, 74
1, 71995, Control_c, 0, 64, 72
1, 71999, Note_off_c, 0, 51, 37
1, 72010, Control_c, 0, 64, 70
1, 72025, Control_c, 0, 64, 69
1, 72040, Control_c, 0, 64, 68
1, 72055, Control_c, 0, 64, 67
1, 72100, Control_c, 0, 64, 66
1, 72109, Note_off_c, 0, 61, 62
1, 72115, Control_c, 0, 64, 65
1, 72130, Control_c, 0, 64, 62
1, 72139, Note_on_c, 0, 51, 37
1, 72144, Control_c, 0, 64, 53
1, 72154, Note_on_c, 0, 68, 57
1, 72159, Control_c, 0, 64, 40
1, 72169, Note_on_c, 0, 60, 35
1, 72174, Control_c, 0, 64, 25
1, 72189, Control_c, 0, 64, 23
1, 72218, Control_c, 0, 64, 27
1, 72233, Control_c, 0, 64, 37
1, 72235, Note_off_c, 0, 51, 58
1, 72247, Note_off_c, 0, 60, 57
1, 72247, Note_off_c, 0, 63, 58
1, 72248, Control_c, 0, 64, 46
1, 72263, Control_c, 0, 64, 54
1, 72276, Note_off_c, 0, 68, 59
1, 72278, Control_c, 0, 64, 59
1, 72292, Control_c, 0, 64, 63
1, 72307, Control_c, 0, 64, 67
1, 72322, Control_c, 0, 64, 73
1, 72336, Control_c, 0, 64, 82
1, 72339, Note_on_c, 0, 51, 51
1, 72340, Note_on_c, 0, 68, 60
1, 72351, Control_c, 0, 64, 92
1, 72366, Control_c, 0, 64, 103
1, 72372, Note_on_c, 0, 60, 37
1, 72378, Note_on_c, 0, 63, 42
1, 72381, Control_c, 0, 64, 109
1, 72396, Control_c, 0, 64, 110
1, 72405, Note_off_c, 0, 60, 49
1, 72407, Note_off_c, 0, 63, 53
1, 72425, Control_c, 0, 64, 110
1, 72431, Note_off_c, 0, 68, 52
1, 72440, Note_off_c, 0, 51, 37
1, 72536, Note_on_c, 0, 51, 47
1, 72538, Note_on_c, 0, 68, 72
1, 72542, Note_on_c, 0, 60, 54
1, 72553, Note_on_c, 0, 63, 45
1, 72581, Note_off_c, 0, 63, 56
1, 72583, Note_off_c, 0, 60, 60
1, 72596, Control_c, 0, 64, 110
1, 72603, Note_off_c, 0, 51, 55
1, 72618, Note_off_c, 0, 68, 56
1, 72625, Control_c, 0, 64, 108
1, 72640, Control_c, 0, 64, 108
1, 72655, Control_c, 0, 64, 107
1, 72670, Control_c, 0, 64, 106
1, 72700, Control_c, 0, 64, 106
1, 72726, Note_on_c, 0, 68, 77
1, 72728, Note_on_c, 0, 51, 57
1, 72729, Control_c, 0, 64, 105
1, 72736, Note_on_c, 0, 60, 51
1, 72746, Note_on_c, 0, 63, 39
1, 72769, Note_off_c, 0, 44, 35
1, 72774, Control_c, 0, 64, 105
1, 72774, Note_off_c, 0, 60, 58
1, 72779, Note_off_c, 0, 63, 52
1, 72789, Note_off_c, 0, 51, 52
1, 72809, Note_off_c, 0, 68, 56
1, 72848, Control_c, 0, 64, 104
1, 72913, Note_on_c, 0, 68, 80
1, 72914, Note_on_c, 0, 51, 55
1, 72923, Control_c, 0, 64, 104
1, 72961, Note_off_c, 0, 68, 63
1, 73018, Note_on_c, 0, 68, 63
1, 73027, Control_c, 0, 64, 103
1, 73041, Control_c, 0, 64, 103
1, 73056, Control_c, 0, 64, 102
1, 73071, Control_c, 0, 64, 101
1, 73086, Control_c, 0, 64, 101
1, 73101, Control_c, 0, 64, 100
1, 73115, Control_c, 0, 64, 99
1, 73130, Control_c, 0, 64, 98
1, 73145, Control_c, 0, 64, 96
1, 73159, Control_c, 0, 64, 94
1, 73162, Note_on_c, 0, 44, 36
1, 73167, Note_on_c, 0, 72, 72
1, 73174, Control_c, 0, 64, 93
1, 73189, Control_c, 0, 64, 92
1, 73200, Note_on_c, 0, 63, 44
1, 73204, Control_c, 0, 64, 90
1, 73219, Control_c, 0, 64, 86
1, 73241, Control_c, 0, 64, 79
1, 73255, Note_off_c, 0, 68, 60
1, 73256, Control_c, 0, 64, 67
1, 73271, Control_c, 0, 64, 55
1, 73286, Control_c, 0, 64, 33
1, 73301, Control_c, 0, 64, 30
1, 73315, Control_c, 0, 64, 33
1, 73330, Control_c, 0, 64, 42
1, 73345, Control_c, 0, 64, 51
1, 73360, Control_c, 0, 64, 59
1, 73374, Control_c, 0, 64, 63
1, 73377, Note_off_c, 0, 63, 60
1, 73389, Control_c, 0, 64, 66
1, 73398, Note_off_c, 0, 51, 40
1, 73404, Control_c, 0, 64, 70
1, 73419, Control_c, 0, 64, 78
1, 73434, Control_c, 0, 64, 91
1, 73448, Control_c, 0, 64, 115
1, 73451, Note_on_c, 0, 48, 51
1, 73463, Control_c, 0, 64, 127
1, 73532, Note_off_c, 0, 72, 54
1, 73536, Note_on_c, 0, 68, 70
1, 73547, Note_on_c, 0, 63, 48
1, 73558, Note_on_c, 0, 60, 42
1, 73584, Note_off_c, 0, 63, 56
1, 73596, Note_off_c, 0, 60, 54
1, 73612, Control_c, 0, 64, 119
1, 73618, Note_off_c, 0, 68, 60
1, 73621, Note_off_c, 0, 44, 30
1, 73627, Control_c, 0, 64, 112
1, 73641, Control_c, 0, 64, 108
1, 73656, Control_c, 0, 64, 102
1, 73671, Control_c, 0, 64, 92
1, 73680, Note_off_c, 0, 48, 35
1, 73683, Note_on_c, 0, 39, 46
1, 73686, Control_c, 0, 64, 78
1, 73691, Note_on_c, 0, 68, 60
1, 73701, Control_c, 0, 64, 67
1, 73716, Note_on_c, 0, 60, 47
1, 73716, Control_c, 0, 64, 54
1, 73731, Control_c, 0, 64, 35
1, 73746, Control_c, 0, 64, 38
1, 73761, Control_c, 0, 64, 45
1, 73776, Control_c, 0, 64, 54
1, 73782, Note_off_c, 0, 60, 55
1, 73790, Control_c, 0, 64, 60
1, 73805, Control_c, 0, 64, 64
1, 73820, Control_c, 0, 64, 70
1, 73835, Control_c, 0, 64, 77
1, 73850, Control_c, 0, 64, 87
1, 73864, Control_c, 0, 64, 94
1, 73879, Control_c, 0, 64, 96
1, 73894, Control_c, 0, 64, 95
1, 73909, Control_c, 0, 64, 93
1, 73920, Poly_aftertouch_c, 0, 63, 127
1, 73924, Control_c, 0, 64, 91
1, 73932, Note_on_c, 0, 51, 41
1, 73932, Note_on_c, 0, 67, 59
1, 73938, Control_c, 0, 64, 90
1, 73945, Note_on_c, 0, 58, 43
1, 73953, Control_c, 0, 64, 88
1, 73955, Note_off_c, 0, 68, 58
1, 73968, Control_c, 0, 64, 86
1, 73987, Note_off_c, 0, 51, 48
1, 73990, Control_c, 0, 64, 83
1, 73999, Note_off_c, 0, 58, 55
1, 74005, Control_c, 0, 64, 80
1, 74019, Note_off_c, 0, 67, 60
1, 74020, Control_c, 0, 64, 78
1, 74022, Poly_aftertouch_c, 0, 63, 0
1, 74035, Control_c, 0, 64, 76
1, 74050, Control_c, 0, 64, 75
1, 74064, Control_c, 0, 64, 72
1, 74079, Control_c, 0, 64, 66
1, 74094, Control_c, 0, 64, 53
1, 74109, Control_c, 0, 64, 29
1, 74115, Note_on_c, 0, 51, 42
1, 74124, Control_c, 0, 64, 20
1, 74139, Note_on_c, 0, 67, 60
1, 74147, Note_on_c, 0, 63, 41
1, 74149, Note_on_c, 0, 58, 25
1, 74153, Control_c, 0, 64, 26
1, 74168, Control_c, 0, 64, 37
1, 74183, Control_c, 0, 64, 48
1, 74197, Control_c, 0, 64, 54
1, 74199, Note_off_c, 0, 51, 48
1, 74208, Note_off_c, 0, 63, 54
1, 74212, Control_c, 0, 64, 58
1, 74217, Note_off_c, 0, 58, 55
1, 74223, Note_off_c, 0, 67, 60
1, 74227, Control_c, 0, 64, 61
1, 74242, Control_c, 0, 64, 64
1, 74258, Control_c, 0, 64, 66
1, 74272, Control_c, 0, 64, 69
1, 74287, Control_c, 0, 64, 75
1, 74302, Control_c, 0, 64, 81
1, 74316, Control_c, 0, 64, 89
1, 74321, Note_on_c, 0, 51, 42
1, 74331, Control_c, 0, 64, 98
1, 74340, Note_on_c, 0, 67, 52
1, 74346, Control_c, 0, 64, 107
1, 74348, Note_on_c, 0, 58, 37
1, 74349, Note_on_c, 0, 63, 31
1, 74361, Control_c, 0, 64, 111
1, 74376, Control_c, 0, 64, 112
1, 74388, Note_off_c, 0, 67, 57
1, 74390, Note_off_c, 0, 58, 48
1, 74392, Note_off_c, 0, 63, 47
1, 74415, Note_off_c, 0, 51, 37
1, 74495, Control_c, 0, 64, 111
1, 74510, Control_c, 0, 64, 111
1, 74536, Note_on_c, 0, 51, 39
1, 74540, Note_on_c, 0, 67, 51
1, 74554, Note_on_c, 0, 63, 31
1, 74555, Note_on_c, 0, 58, 38
1, 74569, Control_c, 0, 64, 110
1, 74584, Control_c, 0, 64, 110
1, 74591, Note_off_c, 0, 63, 50
1, 74597, Note_off_c, 0, 58, 52
1, 74599, Note_off_c, 0, 51, 42
1, 74602, Note_off_c, 0, 67, 57
1, 74628, Control_c, 0, 64, 109
1, 74643, Control_c, 0, 64, 108
1, 74658, Control_c, 0, 64, 108
1, 74673, Control_c, 0, 64, 107
1, 74688, Control_c, 0, 64, 107
1, 74703, Control_c, 0, 64, 106
1, 74718, Control_c, 0, 64, 105
1, 74740, Control_c, 0, 64, 104
1, 74745, Note_on_c, 0, 67, 57
1, 74751, Note_on_c, 0, 58, 50
1, 74753, Note_on_c, 0, 51, 46
1, 74755, Control_c, 0, 64, 104
1, 74782, Note_on_c, 0, 63, 31
1, 74784, Control_c, 0, 64, 102
1, 74814, Control_c, 0, 64, 101
1, 74828, Control_c, 0, 64, 101
1, 74841, Note_off_c, 0, 51, 49
1, 74843, Control_c, 0, 64, 100
1, 74849, Note_off_c, 0, 58, 63
1, 74858, Control_c, 0, 64, 99
1, 74873, Control_c, 0, 64, 96
1, 74888, Control_c, 0, 64, 85
1, 74892, Note_off_c, 0, 63, 0
1, 74903, Control_c, 0, 64, 72
1, 74917, Control_c, 0, 64, 61
1, 74929, Poly_aftertouch_c, 0, 63, 127
1, 74932, Control_c, 0, 64, 44
1, 74941, Note_on_c, 0, 68, 60
1, 74947, Control_c, 0, 64, 48
1, 74947, Note_on_c, 0, 60, 45
1, 74950, Note_on_c, 0, 51, 42
1, 74962, Control_c, 0, 64, 55
1, 74977, Control_c, 0, 64, 60
1, 74992, Control_c, 0, 64, 64
1, 74996, Note_off_c, 0, 67, 51
1, 75003, Note_off_c, 0, 60, 62
1, 75006, Control_c, 0, 64, 69
1, 75020, Control_c, 0, 64, 76
1, 75035, Control_c, 0, 64, 94
1, 75050, Control_c, 0, 64, 127
1, 75054, Note_off_c, 0, 51, 37
1, 75130, Note_on_c, 0, 70, 68
1, 75135, Note_on_c, 0, 51, 53
1, 75138, Note_on_c, 0, 61, 53
1, 75153, Note_off_c, 0, 39, 41
1, 75181, Note_off_c, 0, 61, 59
1, 75192, Poly_aftertouch_c, 0, 63, 0
1, 75199, Note_off_c, 0, 68, 33
1, 75227, Control_c, 0, 64, 107
1, 75242, Control_c, 0, 64, 100
1, 75257, Control_c, 0, 64, 95
1, 75272, Control_c, 0, 64, 93
1, 75288, Control_c, 0, 64, 91
1, 75303, Control_c, 0, 64, 88
1, 75317, Control_c, 0, 64, 84
1, 75327, Note_on_c, 0, 63, 54
1, 75332, Control_c, 0, 64, 81
1, 75334, Note_off_c, 0, 51, 43
1, 75335, Note_on_c, 0, 44, 44
1, 75344, Note_off_c, 0, 70, 36
1, 75347, Control_c, 0, 64, 78
1, 75362, Note_on_c, 0, 61, 44
1, 75362, Control_c, 0, 64, 76
1, 75376, Control_c, 0, 64, 74
1, 75391, Control_c, 0, 64, 72
1, 75406, Control_c, 0, 64, 70
1, 75421, Control_c, 0, 64, 69
1, 75436, Control_c, 0, 64, 67
1, 75451, Control_c, 0, 64, 66
1, 75466, Control_c, 0, 64, 65
1, 75488, Control_c, 0, 64, 64
1, 75503, Control_c, 0, 64, 63
1, 75517, Note_off_c, 0, 61, 63
1, 75517, Control_c, 0, 64, 63
1, 75535, Note_on_c, 0, 51, 41
1, 75547, Control_c, 0, 64, 62
1, 75556, Note_on_c, 0, 68, 60
1, 75562, Control_c, 0, 64, 61
1, 75567, Note_on_c, 0, 60, 41
1, 75576, Control_c, 0, 64, 60
1, 75591, Control_c, 0, 64, 59
1, 75621, Control_c, 0, 64, 59
1, 75635, Note_off_c, 0, 60, 56
1, 75636, Control_c, 0, 64, 58
1, 75646, Note_off_c, 0, 63, 57
1, 75651, Control_c, 0, 64, 58
1, 75653, Note_off_c, 0, 68, 60
1, 75666, Control_c, 0, 64, 57
1, 75681, Control_c, 0, 64, 56
1, 75695, Control_c, 0, 64, 56
1, 75710, Control_c, 0, 64, 55
1, 75733, Note_on_c, 0, 48, 41
1, 75737, Note_off_c, 0, 51, 36
1, 75738, Note_on_c, 0, 68, 58
1, 75740, Control_c, 0, 64, 54
1, 75752, Note_on_c, 0, 60, 37
1, 75755, Control_c, 0, 64, 54
1, 75766, Note_on_c, 0, 63, 33
1, 75769, Control_c, 0, 64, 53
1, 75784, Control_c, 0, 64, 52
1, 75803, Note_off_c, 0, 60, 45
1, 75808, Note_off_c, 0, 63, 49
1, 75829, Control_c, 0, 64, 52
1, 75838, Note_off_c, 0, 68, 58
1, 75858, Control_c, 0, 64, 51
1, 75888, Control_c, 0, 64, 51
1, 75903, Control_c, 0, 64, 50
1, 75909, Note_on_c, 0, 51, 43
1, 75917, Control_c, 0, 64, 50
1, 75919, Note_off_c, 0, 48, 42
1, 75929, Note_on_c, 0, 68, 57
1, 75932, Control_c, 0, 64, 49
1, 75937, Note_on_c, 0, 63, 42
1, 75947, Control_c, 0, 64, 48
1, 75949, Note_on_c, 0, 60, 38
1, 75961, Control_c, 0, 64, 47
1, 75976, Control_c, 0, 64, 45
1, 75988, Note_off_c, 0, 60, 50
1, 75990, Note_off_c, 0, 63, 58
1, 75991, Control_c, 0, 64, 44
1, 76006, Control_c, 0, 64, 43
1, 76021, Control_c, 0, 64, 43
1, 76027, Note_off_c, 0, 68, 52
1, 76084, Note_off_c, 0, 51, 35
1, 76096, Control_c, 0, 64, 44
1, 76111, Control_c, 0, 64, 49
1, 76126, Control_c, 0, 64, 56
1, 76129, Note_off_c, 0, 44, 39
1, 76136, Note_on_c, 0, 68, 25
1, 76140, Note_on_c, 0, 56, 33
1, 76140, Control_c, 0, 64, 62
1, 76152, Note_on_c, 0, 63, 25
1, 76155, Control_c, 0, 64, 66
1, 76170, Control_c, 0, 64, 73
1, 76184, Control_c, 0, 64, 88
1, 76187, Note_off_c, 0, 63, 55
1, 76196, Note_off_c, 0, 68, 61
1, 76199, Control_c, 0, 64, 127
1, 76208, Note_off_c, 0, 56, 62
1, 76390, Note_on_c, 0, 75, 46
1, 76397, Note_on_c, 0, 63, 36
1, 76410, Note_on_c, 0, 60, 18
1, 76430, Note_on_c, 0, 72, 20
1, 76447, Note_off_c, 0, 63, 59
1, 76456, Note_off_c, 0, 60, 48
1, 76485, Note_off_c, 0, 72, 44
1, 76544, Note_off_c, 0, 75, 29
1, 76563, Control_c, 0, 64, 119
1, 76578, Control_c, 0, 64, 95
1, 76592, Control_c, 0, 64, 78
1, 76600, Note_on_c, 0, 63, 31
1, 76607, Control_c, 0, 64, 65
1, 76608, Note_on_c, 0, 80, 62
1, 76609, Note_on_c, 0, 60, 33
1, 76614, Note_on_c, 0, 68, 38
1, 76622, Control_c, 0, 64, 57
1, 76637, Control_c, 0, 64, 59
1, 76652, Control_c, 0, 64, 63
1, 76655, Poly_aftertouch_c, 0, 75, 0
1, 76666, Control_c, 0, 64, 65
1, 76670, Note_off_c, 0, 63, 41
1, 76681, Control_c, 0, 64, 68
1, 76696, Control_c, 0, 64, 73
1, 76701, Note_off_c, 0, 68, 49
1, 76711, Control_c, 0, 64, 80
1, 76726, Control_c, 0, 64, 92
1, 76740, Control_c, 0, 64, 127
1, 76814, Control_c, 0, 64, 108
1, 76824, Note_off_c, 0, 60, 40
1, 76829, Control_c, 0, 64, 82
1, 76834, Note_off_c, 0, 80, 62
1, 76834, Note_on_c, 0, 63, 34
1, 76842, Note_on_c, 0, 67, 34
1, 76844, Note_on_c, 0, 82, 66
1, 76844, Control_c, 0, 64, 68
1, 76853, Note_on_c, 0, 70, 38
1, 76858, Control_c, 0, 64, 62
1, 76864, Note_on_c, 0, 79, 43
1, 76873, Control_c, 0, 64, 61
1, 76886, Note_on_c, 0, 75, 22
1, 76889, Control_c, 0, 64, 64
1, 76904, Control_c, 0, 64, 67
1, 76914, Note_off_c, 0, 67, 62
1, 76918, Note_off_c, 0, 70, 62
1, 76919, Control_c, 0, 64, 71
1, 76934, Control_c, 0, 64, 78
1, 76947, Note_off_c, 0, 63, 58
1, 76949, Control_c, 0, 64, 92
1, 76959, Note_off_c, 0, 79, 63
1, 76963, Control_c, 0, 64, 127
1, 76971, Note_off_c, 0, 75, 35
1, 77014, Note_off_c, 0, 82, 62
1, 77080, Note_on_c, 0, 56, 55
1, 77104, Control_c, 0, 64, 110
1, 77119, Control_c, 0, 64, 78
1, 77134, Control_c, 0, 64, 62
1, 77149, Control_c, 0, 64, 35
1, 77163, Control_c, 0, 64, 28
1, 77178, Control_c, 0, 64, 45
1, 77193, Control_c, 0, 64, 56
1, 77207, Control_c, 0, 64, 63
1, 77222, Control_c, 0, 64, 67
1, 77226, Note_off_c, 0, 56, 64
1, 77237, Control_c, 0, 64, 73
1, 77252, Control_c, 0, 64, 84
1, 77267, Control_c, 0, 64, 113
1, 77281, Control_c, 0, 64, 127
1, 77337, Note_on_c, 0, 84, 55
1, 77353, Note_on_c, 0, 63, 37
1, 77356, Note_on_c, 0, 72, 32
1, 77358, Note_on_c, 0, 75, 31
1, 77359, Note_on_c, 0, 68, 31
1, 77381, Note_on_c, 0, 80, 14
1, 77399, Note_off_c, 0, 63, 48
1, 77409, Note_off_c, 0, 75, 41
1, 77409, Note_off_c, 0, 72, 46
1, 77410, Note_off_c, 0, 68, 45
1, 77424, Note_off_c, 0, 80, 50
1, 77433, Note_off_c, 0, 84, 58
1, 77532, Note_on_c, 0, 72, 51
1, 77534, Note_on_c, 0, 63, 40
1, 77539, Note_on_c, 0, 84, 75
1, 77547, Note_on_c, 0, 68, 46
1, 77558, Note_on_c, 0, 75, 43
1, 77560, Note_on_c, 0, 80, 34
1, 77577, Note_off_c, 0, 72, 58
1, 77580, Note_off_c, 0, 63, 55
1, 77583, Note_off_c, 0, 68, 56
1, 77587, Note_off_c, 0, 75, 54
1, 77591, Note_off_c, 0, 80, 53
1, 77608, Note_off_c, 0, 84, 59
1, 77732, Note_on_c, 0, 84, 78
1, 77740, Note_on_c, 0, 68, 40
1, 77744, Note_on_c, 0, 63, 37
1, 77746, Note_on_c, 0, 72, 53
1, 77750, Note_on_c, 0, 75, 56
1, 77756, Note_on_c, 0, 80, 39
1, 77793, Note_off_c, 0, 80, 49
1, 77794, Note_off_c, 0, 63, 45
1, 77794, Note_off_c, 0, 72, 55
1, 77798, Note_off_c, 0, 75, 53
1, 77814, Note_off_c, 0, 68, 47
1, 77898, Control_c, 0, 64, 117
1, 77903, Note_off_c, 0, 84, 58
1, 77912, Control_c, 0, 64, 97
1, 77927, Control_c, 0, 64, 79
1, 77928, Note_on_c, 0, 62, 45
1, 77933, Note_on_c, 0, 71, 52
1, 77934, Note_on_c, 0, 83, 77
1, 77942, Control_c, 0, 64, 65
1, 77949, Note_on_c, 0, 80, 50
1, 77954, Note_on_c, 0, 74, 48
1, 77956, Control_c, 0, 64, 50
1, 77971, Control_c, 0, 64, 38
1, 77986, Control_c, 0, 64, 45
1, 77997, Poly_aftertouch_c, 0, 68, 127
1, 78002, Control_c, 0, 64, 52
1, 78006, Note_off_c, 0, 74, 58
1, 78017, Control_c, 0, 64, 59
1, 78031, Control_c, 0, 64, 63
1, 78037, Note_off_c, 0, 71, 60
1, 78046, Control_c, 0, 64, 68
1, 78061, Control_c, 0, 64, 77
1, 78076, Control_c, 0, 64, 94
1, 78091, Control_c, 0, 64, 127
1, 78115, Note_off_c, 0, 62, 37
1, 78134, Note_on_c, 0, 84, 81
1, 78141, Note_on_c, 0, 72, 57
1, 78148, Note_on_c, 0, 63, 43
1, 78152, Note_on_c, 0, 75, 59
1, 78166, Note_off_c, 0, 83, 63
1, 78176, Note_off_c, 0, 80, 49
1, 78190, Note_off_c, 0, 75, 60
1, 78199, Note_off_c, 0, 63, 58
1, 78215, Note_off_c, 0, 84, 61
1, 78222, Note_off_c, 0, 72, 59
1, 78238, Poly_aftertouch_c, 0, 68, 0
1, 78283, Control_c, 0, 64, 96
1, 78298, Control_c, 0, 64, 74
1, 78313, Control_c, 0, 64, 62
1, 78326, Note_on_c, 0, 84, 89
1, 78328, Control_c, 0, 64, 51
1, 78339, Note_on_c, 0, 72, 60
1, 78341, Note_on_c, 0, 63, 40
1, 78342, Control_c, 0, 64, 55
1, 78347, Note_on_c, 0, 75, 59
1, 78348, Note_on_c, 0, 80, 42
1, 78357, Control_c, 0, 64, 61
1, 78367, Note_on_c, 0, 68, 31
1, 78372, Control_c, 0, 64, 65
1, 78372, Note_off_c, 0, 80, 55
1, 78376, Note_off_c, 0, 75, 63
1, 78381, Note_off_c, 0, 63, 51
1, 78384, Note_off_c, 0, 72, 57
1, 78387, Control_c, 0, 64, 71
1, 78402, Control_c, 0, 64, 85
1, 78403, Note_off_c, 0, 68, 46
1, 78414, Note_off_c, 0, 84, 58
1, 78417, Control_c, 0, 64, 127
1, 78533, Note_on_c, 0, 84, 95
1, 78539, Note_on_c, 0, 63, 42
1, 78539, Note_on_c, 0, 72, 47
1, 78558, Note_on_c, 0, 68, 28
1, 78558, Note_on_c, 0, 75, 52
1, 78563, Note_on_c, 0, 80, 38
1, 78568, Note_off_c, 0, 72, 61
1, 78580, Note_off_c, 0, 75, 57
1, 78586, Note_off_c, 0, 63, 53
1, 78590, Note_off_c, 0, 80, 53
1, 78593, Note_off_c, 0, 68, 49
1, 78621, Note_off_c, 0, 84, 61
1, 78706, Control_c, 0, 64, 112
1, 78721, Control_c, 0, 64, 104
1, 78736, Control_c, 0, 64, 99
1, 78745, Note_on_c, 0, 61, 40
1, 78751, Control_c, 0, 64, 94
1, 78766, Note_on_c, 0, 87, 83
1, 78766, Control_c, 0, 64, 91
1, 78780, Control_c, 0, 64, 87
1, 78795, Control_c, 0, 64, 85
1, 78797, Note_on_c, 0, 78, 52
1, 78810, Control_c, 0, 64, 82
1, 78825, Control_c, 0, 64, 80
1, 78840, Control_c, 0, 64, 77
1, 78852, Poly_aftertouch_c, 0, 80, 127
1, 78854, Control_c, 0, 64, 73
1, 78869, Control_c, 0, 64, 71
1, 78884, Control_c, 0, 64, 68
1, 78899, Control_c, 0, 64, 66
1, 78914, Control_c, 0, 64, 65
1, 78928, Control_c, 0, 64, 64
1, 78939, Note_off_c, 0, 78, 59
1, 78943, Control_c, 0, 64, 63
1, 78958, Control_c, 0, 64, 63
1, 78973, Control_c, 0, 64, 61
1, 78982, Poly_aftertouch_c, 0, 80, 0
1, 78987, Control_c, 0, 64, 56
1, 78996, Note_on_c, 0, 85, 80
1, 79002, Control_c, 0, 64, 47
1, 79008, Note_on_c, 0, 65, 42
1, 79011, Note_on_c, 0, 77, 53
1, 79013, Note_on_c, 0, 73, 48
1, 79015, Note_on_c, 0, 68, 40
1, 79017, Control_c, 0, 64, 36
1, 79019, Poly_aftertouch_c, 0, 80, 127
1, 79032, Control_c, 0, 64, 29
1, 79033, Note_off_c, 0, 87, 64
1, 79061, Control_c, 0, 64, 30
1, 79063, Note_off_c, 0, 77, 56
1, 79067, Note_off_c, 0, 73, 58
1, 79070, Note_off_c, 0, 68, 56
1, 79073, Poly_aftertouch_c, 0, 80, 0
1, 79076, Control_c, 0, 64, 35
1, 79088, Note_off_c, 0, 65, 58
1, 79091, Control_c, 0, 64, 44
1, 79105, Note_off_c, 0, 85, 63
1, 79106, Control_c, 0, 64, 52
1, 79121, Control_c, 0, 64, 59
1, 79135, Control_c, 0, 64, 62
1, 79150, Control_c, 0, 64, 66
1, 79165, Control_c, 0, 64, 71
1, 79180, Control_c, 0, 64, 79
1, 79192, Note_on_c, 0, 85, 87
1, 79193, Note_on_c, 0, 73, 49
1, 79195, Control_c, 0, 64, 92
1, 79198, Note_on_c, 0, 65, 47
1, 79202, Note_on_c, 0, 77, 58
1, 79204, Note_on_c, 0, 68, 46
1, 79207, Note_on_c, 0, 80, 53
1, 79210, Control_c, 0, 64, 117
1, 79232, Control_c, 0, 64, 127
1, 79251, Note_off_c, 0, 68, 55
1, 79251, Note_off_c, 0, 80, 62
1, 79251, Note_off_c, 0, 77, 60
1, 79255, Note_off_c, 0, 65, 60
1, 79261, Note_off_c, 0, 73, 53
1, 79283, Note_off_c, 0, 85, 61
1, 79388, Note_on_c, 0, 73, 56
1, 79388, Note_on_c, 0, 85, 81
1, 79392, Note_on_c, 0, 65, 44
1, 79395, Note_on_c, 0, 68, 43
1, 79407, Note_on_c, 0, 80, 45
1, 79411, Note_on_c, 0, 77, 46
1, 79436, Note_off_c, 0, 80, 58
1, 79436, Note_off_c, 0, 65, 62
1, 79438, Note_off_c, 0, 68, 54
1, 79445, Note_off_c, 0, 77, 51
1, 79448, Note_off_c, 0, 73, 50
1, 79474, Note_off_c, 0, 85, 59
1, 79588, Note_on_c, 0, 73, 52
1, 79589, Note_on_c, 0, 85, 69
1, 79591, Note_on_c, 0, 68, 42
1, 79600, Note_on_c, 0, 65, 35
1, 79609, Note_on_c, 0, 77, 32
1, 79609, Note_on_c, 0, 80, 32
1, 79640, Note_off_c, 0, 68, 56
1, 79642, Note_off_c, 0, 65, 60
1, 79642, Note_off_c, 0, 77, 51
1, 79643, Note_off_c, 0, 80, 46
1, 79676, Note_off_c, 0, 73, 56
1, 79682, Note_off_c, 0, 85, 63
1, 79750, Control_c, 0, 64, 118
1, 79765, Control_c, 0, 64, 101
1, 79780, Control_c, 0, 64, 82
1, 79788, Note_on_c, 0, 65, 34
1, 79792, Note_on_c, 0, 84, 68
1, 79795, Control_c, 0, 64, 69
1, 79798, Note_on_c, 0, 69, 46
1, 79809, Control_c, 0, 64, 61
1, 79810, Note_on_c, 0, 75, 47
1, 79812, Note_on_c, 0, 72, 37
1, 79824, Control_c, 0, 64, 58
1, 79839, Control_c, 0, 64, 61
1, 79854, Control_c, 0, 64, 63
1, 79855, Note_off_c, 0, 69, 62
1, 79856, Poly_aftertouch_c, 0, 77, 127
1, 79869, Control_c, 0, 64, 66
1, 79878, Note_off_c, 0, 65, 57
1, 79884, Control_c, 0, 64, 71
1, 79885, Note_off_c, 0, 75, 58
1, 79899, Control_c, 0, 64, 82
1, 79913, Control_c, 0, 64, 127
1, 79918, Poly_aftertouch_c, 0, 77, 0
1, 79958, Control_c, 0, 64, 114
1, 79980, Control_c, 0, 64, 84
1, 79981, Note_on_c, 0, 70, 61
1, 79988, Note_on_c, 0, 82, 76
1, 79995, Control_c, 0, 64, 69
1, 79997, Note_off_c, 0, 61, 56
1, 80001, Note_on_c, 0, 73, 53
1, 80006, Note_off_c, 0, 72, 47
1, 80009, Control_c, 0, 64, 63
1, 80021, Note_on_c, 0, 65, 25
1, 80024, Control_c, 0, 64, 64
1, 80037, Poly_aftertouch_c, 0, 77, 127
1, 80039, Control_c, 0, 64, 69
1, 80054, Control_c, 0, 64, 80
1, 80062, Note_off_c, 0, 65, 47
1, 80069, Control_c, 0, 64, 104
1, 80083, Note_off_c, 0, 70, 40
1, 80085, Control_c, 0, 64, 127
1, 80131, Note_off_c, 0, 73, 55
1, 80160, Note_off_c, 0, 84, 55
1, 80169, Note_on_c, 0, 65, 22
1, 80176, Note_on_c, 0, 80, 76
1, 80180, Note_on_c, 0, 62, 49
1, 80184, Poly_aftertouch_c, 0, 77, 0
1, 80201, Note_on_c, 0, 72, 47
1, 80211, Note_off_c, 0, 65, 58
1, 80217, Note_off_c, 0, 62, 64
1, 80227, Note_off_c, 0, 82, 58
1, 80239, Note_off_c, 0, 72, 56
1, 80251, Poly_aftertouch_c, 0, 77, 0
1, 80265, Note_off_c, 0, 80, 62
1, 80266, Poly_aftertouch_c, 0, 68, 0
1, 80367, Control_c, 0, 64, 116
1, 80381, Control_c, 0, 64, 84
1, 80396, Control_c, 0, 64, 66
1, 80401, Note_on_c, 0, 51, 46
1, 80402, Note_on_c, 0, 80, 65
1, 80411, Control_c, 0, 64, 44
1, 80425, Control_c, 0, 64, 17
1, 80426, Note_on_c, 0, 72, 24
1, 80440, Control_c, 0, 64, 34
1, 80455, Control_c, 0, 64, 50
1, 80470, Control_c, 0, 64, 60
1, 80472, Note_on_c, 0, 75, 3
1, 80485, Control_c, 0, 64, 65
1, 80486, Note_off_c, 0, 72, 46
1, 80497, Note_off_c, 0, 51, 64
1, 80499, Control_c, 0, 64, 71
1, 80514, Control_c, 0, 64, 82
1, 80529, Control_c, 0, 64, 95
1, 80542, Note_off_c, 0, 75, 33
1, 80544, Control_c, 0, 64, 106
1, 80558, Control_c, 0, 64, 104
1, 80573, Control_c, 0, 64, 100
1, 80588, Control_c, 0, 64, 98
1, 80603, Control_c, 0, 64, 97
1, 80618, Control_c, 0, 64, 96
1, 80619, Note_on_c, 0, 75, 32
1, 80620, Note_on_c, 0, 79, 61
1, 80624, Note_on_c, 0, 67, 41
1, 80625, Note_on_c, 0, 63, 36
1, 80628, Note_on_c, 0, 58, 43
1, 80632, Control_c, 0, 64, 94
1, 80647, Control_c, 0, 64, 90
1, 80648, Note_on_c, 0, 70, 39
1, 80662, Control_c, 0, 64, 85
1, 80667, Note_off_c, 0, 67, 56
1, 80668, Note_off_c, 0, 63, 49
1, 80671, Note_off_c, 0, 58, 60
1, 80672, Note_off_c, 0, 75, 58
1, 80675, Note_off_c, 0, 80, 50
1, 80677, Control_c, 0, 64, 81
1, 80682, Note_off_c, 0, 70, 51
1, 80692, Control_c, 0, 64, 78
1, 80695, Note_off_c, 0, 79, 57
1, 80706, Control_c, 0, 64, 76
1, 80744, Control_c, 0, 64, 76
1, 80758, Control_c, 0, 64, 74
1, 80773, Control_c, 0, 64, 71
1, 80788, Control_c, 0, 64, 65
1, 80803, Control_c, 0, 64, 56
1, 80806, Note_on_c, 0, 58, 38
1, 80818, Control_c, 0, 64, 47
1, 80820, Note_on_c, 0, 79, 66
1, 80824, Note_on_c, 0, 67, 33
1, 80825, Note_on_c, 0, 63, 26
1, 80832, Control_c, 0, 64, 46
1, 80837, Note_on_c, 0, 75, 39
1, 80837, Note_on_c, 0, 70, 27
1, 80862, Control_c, 0, 64, 47
1, 80871, Note_off_c, 0, 75, 53
1, 80878, Control_c, 0, 64, 50
1, 80879, Note_off_c, 0, 63, 56
1, 80882, Note_off_c, 0, 67, 59
1, 80885, Note_off_c, 0, 70, 49
1, 80887, Note_off_c, 0, 58, 57
1, 80893, Control_c, 0, 64, 54
1, 80895, Note_off_c, 0, 79, 62
1, 80908, Control_c, 0, 64, 58
1, 80923, Control_c, 0, 64, 61
1, 80937, Control_c, 0, 64, 63
1, 80952, Control_c, 0, 64, 65
1, 80967, Control_c, 0, 64, 68
1, 80982, Control_c, 0, 64, 75
1, 80997, Control_c, 0, 64, 84
1, 81011, Control_c, 0, 64, 100
1, 81016, Note_on_c, 0, 58, 45
1, 81016, Note_on_c, 0, 75, 34
1, 81016, Note_on_c, 0, 70, 44
1, 81019, Note_on_c, 0, 67, 38
1, 81022, Note_on_c, 0, 79, 51
1, 81026, Control_c, 0, 64, 127
1, 81046, Note_on_c, 0, 63, 16
1, 81061, Note_off_c, 0, 75, 45
1, 81063, Note_off_c, 0, 67, 48
1, 81065, Note_off_c, 0, 70, 53
1, 81066, Note_off_c, 0, 58, 56
1, 81071, Note_off_c, 0, 79, 57
1, 81088, Note_off_c, 0, 63, 46
1, 81204, Note_on_c, 0, 58, 45
1, 81206, Note_on_c, 0, 79, 59
1, 81219, Note_on_c, 0, 67, 18
1, 81220, Note_on_c, 0, 75, 41
1, 81221, Note_on_c, 0, 63, 36
1, 81227, Note_on_c, 0, 70, 35
1, 81249, Note_off_c, 0, 58, 60
1, 81252, Note_off_c, 0, 75, 57
1, 81259, Note_off_c, 0, 70, 53
1, 81260, Note_off_c, 0, 67, 49
1, 81267, Note_off_c, 0, 63, 46
1, 81278, Note_off_c, 0, 79, 61
1, 81381, Note_on_c, 0, 58, 45
1, 81396, Note_on_c, 0, 67, 33
1, 81401, Note_on_c, 0, 79, 71
1, 81409, Note_on_c, 0, 70, 42
1, 81430, Note_off_c, 0, 67, 59
1, 81440, Note_on_c, 0, 75, 23
1, 81493, Note_off_c, 0, 70, 61
1, 81529, Poly_aftertouch_c, 0, 63, 0
1, 81581, Control_c, 0, 64, 95
1, 81596, Control_c, 0, 64, 76
1, 81597, Note_on_c, 0, 60, 43
1, 81606, Note_on_c, 0, 80, 63
1, 81610, Note_on_c, 0, 63, 5
1, 81611, Note_on_c, 0, 68, 36
1, 81611, Control_c, 0, 64, 63
1, 81626, Control_c, 0, 64, 48
1, 81635, Note_on_c, 0, 72, 32
1, 81635, Note_off_c, 0, 58, 38
1, 81641, Control_c, 0, 64, 45
1, 81655, Control_c, 0, 64, 50
1, 81662, Note_off_c, 0, 79, 54
1, 81670, Control_c, 0, 64, 56
1, 81684, Note_off_c, 0, 68, 59
1, 81686, Control_c, 0, 64, 61
1, 81695, Note_off_c, 0, 72, 57
1, 81701, Control_c, 0, 64, 64
1, 81716, Control_c, 0, 64, 67
1, 81731, Control_c, 0, 64, 76
1, 81741, Note_off_c, 0, 60, 53
1, 81745, Control_c, 0, 64, 90
1, 81759, Control_c, 0, 64, 127
1, 81808, Note_on_c, 0, 61, 40
1, 81810, Note_on_c, 0, 82, 68
1, 81816, Note_on_c, 0, 70, 42
1, 81833, Note_on_c, 0, 73, 42
1, 81850, Note_off_c, 0, 80, 49
1, 81869, Note_off_c, 0, 73, 51
1, 81870, Note_off_c, 0, 70, 48
1, 81873, Note_off_c, 0, 75, 44
1, 81919, Note_off_c, 0, 63, 40
1, 81923, Control_c, 0, 64, 117
1, 81937, Control_c, 0, 64, 110
1, 81952, Control_c, 0, 64, 105
1, 81966, Note_off_c, 0, 61, 38
1, 81967, Control_c, 0, 64, 100
1, 81982, Control_c, 0, 64, 96
1, 81995, Note_on_c, 0, 56, 41
1, 81996, Control_c, 0, 64, 94
1, 82011, Control_c, 0, 64, 93
1, 82026, Control_c, 0, 64, 92
1, 82030, Note_on_c, 0, 75, 64
1, 82041, Control_c, 0, 64, 90
1, 82056, Control_c, 0, 64, 87
1, 82070, Note_on_c, 0, 73, 50
1, 82071, Control_c, 0, 64, 85
1, 82085, Control_c, 0, 64, 83
1, 82100, Control_c, 0, 64, 82
1, 82115, Control_c, 0, 64, 80
1, 82130, Control_c, 0, 64, 78
1, 82145, Control_c, 0, 64, 76
1, 82159, Control_c, 0, 64, 74
1, 82171, Note_off_c, 0, 82, 58
1, 82174, Control_c, 0, 64, 73
1, 82189, Control_c, 0, 64, 72
1, 82203, Control_c, 0, 64, 71
1, 82204, Note_off_c, 0, 73, 63
1, 82226, Control_c, 0, 64, 69
1, 82241, Control_c, 0, 64, 66
1, 82247, Note_on_c, 0, 60, 38
1, 82248, Note_on_c, 0, 80, 59
1, 82256, Control_c, 0, 64, 61
1, 82258, Note_on_c, 0, 63, 32
1, 82270, Note_on_c, 0, 72, 36
1, 82271, Control_c, 0, 64, 54
1, 82272, Note_on_c, 0, 68, 39
1, 82285, Control_c, 0, 64, 48
1, 82300, Control_c, 0, 64, 47
1, 82328, Note_off_c, 0, 68, 57
1, 82330, Control_c, 0, 64, 49
1, 82331, Note_off_c, 0, 63, 55
1, 82337, Note_off_c, 0, 60, 62
1, 82340, Note_off_c, 0, 75, 59
1, 82341, Note_off_c, 0, 72, 56
1, 82345, Control_c, 0, 64, 52
1, 82359, Control_c, 0, 64, 55
1, 82361, Note_off_c, 0, 80, 64
1, 82374, Control_c, 0, 64, 59
1, 82389, Control_c, 0, 64, 63
1, 82403, Control_c, 0, 64, 65
1, 82418, Control_c, 0, 64, 69
1, 82425, Note_on_c, 0, 80, 69
1, 82433, Control_c, 0, 64, 74
1, 82444, Note_on_c, 0, 60, 38
1, 82444, Note_on_c, 0, 63, 35
1, 82448, Note_on_c, 0, 68, 33
1, 82448, Control_c, 0, 64, 84
1, 82456, Note_on_c, 0, 72, 36
1, 82463, Control_c, 0, 64, 100
1, 82479, Control_c, 0, 64, 127
1, 82485, Note_off_c, 0, 63, 53
1, 82486, Note_off_c, 0, 60, 62
1, 82491, Note_off_c, 0, 72, 52
1, 82494, Note_off_c, 0, 68, 47
1, 82510, Note_off_c, 0, 80, 60
1, 82601, Note_on_c, 0, 60, 52
1, 82604, Note_on_c, 0, 63, 45
1, 82610, Note_on_c, 0, 68, 48
1, 82610, Note_on_c, 0, 80, 80
1, 82620, Note_on_c, 0, 72, 47
1, 82632, Note_on_c, 0, 75, 49
1, 82649, Note_off_c, 0, 63, 58
1, 82650, Note_off_c, 0, 72, 54
1, 82651, Note_off_c, 0, 60, 60
1, 82654, Note_off_c, 0, 75, 57
1, 82662, Note_off_c, 0, 68, 50
1, 82691, Note_off_c, 0, 80, 60
1, 82784, Note_on_c, 0, 60, 52
1, 82790, Note_on_c, 0, 63, 44
1, 82793, Note_on_c, 0, 80, 81
1, 82802, Note_on_c, 0, 68, 52
1, 82808, Note_on_c, 0, 72, 58
1, 82814, Note_on_c, 0, 75, 49
1, 82829, Note_off_c, 0, 63, 65
1, 82830, Note_off_c, 0, 60, 62
1, 82832, Note_off_c, 0, 56, 40
1, 82838, Note_off_c, 0, 75, 56
1, 82841, Note_off_c, 0, 68, 61
1, 82850, Note_off_c, 0, 72, 57
1, 82885, Note_off_c, 0, 80, 60
1, 82987, Note_on_c, 0, 68, 52
1, 82988, Note_on_c, 0, 80, 84
1, 82999, Note_on_c, 0, 60, 39
1, 83001, Note_on_c, 0, 75, 46
1, 83007, Note_on_c, 0, 63, 32
1, 83025, Note_off_c, 0, 75, 51
1, 83046, Note_off_c, 0, 80, 65
1, 83053, Note_off_c, 0, 63, 47
1, 83066, Note_off_c, 0, 68, 57
1, 83098, Note_on_c, 0, 80, 69
1, 83152, Control_c, 0, 64, 121
1, 83167, Control_c, 0, 64, 114
1, 83182, Control_c, 0, 64, 110
1, 83197, Control_c, 0, 64, 107
1, 83212, Control_c, 0, 64, 104
1, 83226, Control_c, 0, 64, 101
1, 83234, Note_on_c, 0, 63, 40
1, 83241, Control_c, 0, 64, 98
1, 83243, Note_on_c, 0, 84, 77
1, 83247, Note_on_c, 0, 68, 31
1, 83247, Note_on_c, 0, 72, 45
1, 83256, Control_c, 0, 64, 91
1, 83272, Control_c, 0, 64, 79
1, 83276, Note_on_c, 0, 75, 42
1, 83287, Control_c, 0, 64, 67
1, 83292, Note_off_c, 0, 80, 61
1, 83302, Control_c, 0, 64, 56
1, 83317, Control_c, 0, 64, 43
1, 83323, Note_off_c, 0, 60, 59
1, 83331, Control_c, 0, 64, 46
1, 83346, Control_c, 0, 64, 51
1, 83356, Note_off_c, 0, 63, 59
1, 83361, Control_c, 0, 64, 57
1, 83366, Note_off_c, 0, 68, 53
1, 83376, Control_c, 0, 64, 62
1, 83391, Control_c, 0, 64, 65
1, 83405, Control_c, 0, 64, 71
1, 83409, Note_off_c, 0, 75, 61
1, 83420, Control_c, 0, 64, 82
1, 83435, Control_c, 0, 64, 104
1, 83449, Control_c, 0, 64, 127
1, 83481, Note_on_c, 0, 60, 37
1, 83505, Note_on_c, 0, 63, 44
1, 83505, Note_on_c, 0, 68, 50
1, 83514, Note_off_c, 0, 72, 37
1, 83531, Note_off_c, 0, 60, 63
1, 83537, Note_off_c, 0, 68, 63
1, 83542, Note_off_c, 0, 63, 64
1, 83564, Note_on_c, 0, 80, 76
1, 83570, Note_off_c, 0, 84, 55
1, 83583, Note_on_c, 0, 75, 45
1, 83604, Note_off_c, 0, 75, 56
1, 83634, Note_off_c, 0, 80, 61
1, 83634, Poly_aftertouch_c, 0, 72, 127
1, 83657, Control_c, 0, 64, 109
1, 83672, Control_c, 0, 64, 87
1, 83687, Control_c, 0, 64, 68
1, 83702, Control_c, 0, 64, 55
1, 83709, Poly_aftertouch_c, 0, 72, 0
1, 83712, Note_on_c, 0, 80, 70
1, 83723, Control_c, 0, 64, 45
1, 83728, Note_on_c, 0, 51, 47
1, 83738, Control_c, 0, 64, 49
1, 83741, Note_on_c, 0, 72, 10
1, 83753, Control_c, 0, 64, 55
1, 83768, Control_c, 0, 64, 61
1, 83782, Note_off_c, 0, 51, 64
1, 83783, Control_c, 0, 64, 66
1, 83784, Note_off_c, 0, 72, 51
1, 83798, Control_c, 0, 64, 72
1, 83812, Control_c, 0, 64, 84
1, 83827, Control_c, 0, 64, 104
1, 83842, Control_c, 0, 64, 127
1, 83902, Control_c, 0, 64, 117
1, 83917, Control_c, 0, 64, 108
1, 83931, Control_c, 0, 64, 102
1, 83932, Note_on_c, 0, 79, 71
1, 83933, Note_on_c, 0, 58, 45
1, 83943, Note_on_c, 0, 67, 41
1, 83945, Note_on_c, 0, 63, 35
1, 83946, Control_c, 0, 64, 97
1, 83957, Note_on_c, 0, 75, 48
1, 83961, Control_c, 0, 64, 94
1, 83964, Note_on_c, 0, 70, 35
1, 83964, Note_off_c, 0, 80, 59
1, 83976, Control_c, 0, 64, 91
1, 83985, Note_off_c, 0, 75, 56
1, 83988, Note_off_c, 0, 58, 58
1, 83991, Control_c, 0, 64, 87
1, 83993, Note_off_c, 0, 63, 46
1, 83993, Note_off_c, 0, 67, 55
1, 83997, Note_off_c, 0, 70, 53
1, 84005, Control_c, 0, 64, 83
1, 84020, Control_c, 0, 64, 80
1, 84021, Note_off_c, 0, 79, 62
1, 84035, Control_c, 0, 64, 78
1, 84049, Control_c, 0, 64, 76
1, 84064, Control_c, 0, 64, 73
1, 84080, Control_c, 0, 64, 69
1, 84095, Control_c, 0, 64, 64
1, 84110, Control_c, 0, 64, 56
1, 84119, Note_on_c, 0, 58, 45
1, 84125, Control_c, 0, 64, 46
1, 84127, Note_on_c, 0, 67, 43
1, 84132, Note_on_c, 0, 63, 36
1, 84133, Note_on_c, 0, 79, 67
1, 84140, Control_c, 0, 64, 43
1, 84149, Note_on_c, 0, 70, 27
1, 84157, Note_on_c, 0, 75, 33
1, 84169, Control_c, 0, 64, 44
1, 84184, Control_c, 0, 64, 49
1, 84188, Note_off_c, 0, 75, 51
1, 84193, Note_off_c, 0, 63, 56
1, 84197, Note_off_c, 0, 67, 57
1, 84197, Note_off_c, 0, 58, 60
1, 84199, Control_c, 0, 64, 55
1, 84201, Note_off_c, 0, 70, 45
1, 84214, Control_c, 0, 64, 60
1, 84221, Note_off_c, 0, 79, 60
1, 84228, Control_c, 0, 64, 63
1, 84243, Control_c, 0, 64, 67
1, 84258, Control_c, 0, 64, 71
1, 84272, Control_c, 0, 64, 79
1, 84287, Control_c, 0, 64, 92
1, 84302, Control_c, 0, 64, 121
1, 84317, Control_c, 0, 64, 127
1, 84320, Note_on_c, 0, 58, 44
1, 84328, Note_on_c, 0, 79, 65
1, 84331, Note_on_c, 0, 67, 46
1, 84333, Note_on_c, 0, 75, 38
1, 84342, Note_on_c, 0, 63, 31
1, 84342, Note_on_c, 0, 70, 36
1, 84364, Note_off_c, 0, 75, 53
1, 84366, Note_off_c, 0, 58, 59
1, 84370, Note_off_c, 0, 67, 56
1, 84379, Note_off_c, 0, 70, 51
1, 84381, Note_off_c, 0, 79, 55
1, 84382, Note_off_c, 0, 63, 49
1, 84507, Note_on_c, 0, 58, 48
1, 84511, Note_on_c, 0, 63, 38
1, 84519, Note_on_c, 0, 79, 64
1, 84528, Note_on_c, 0, 67, 31
1, 84541, Note_on_c, 0, 70, 35
1, 84547, Note_on_c, 0, 75, 33
1, 84552, Note_off_c, 0, 58, 59
1, 84573, Note_off_c, 0, 63, 49
1, 84574, Note_off_c, 0, 67, 56
1, 84576, Note_off_c, 0, 75, 51
1, 84579, Note_off_c, 0, 70, 51
1, 84590, Note_off_c, 0, 79, 63
1, 84710, Note_on_c, 0, 58, 41
1, 84722, Note_on_c, 0, 67, 37
1, 84725, Note_on_c, 0, 79, 63
1, 84725, Note_on_c, 0, 70, 46
1, 84737, Note_on_c, 0, 63, 25
1, 84750, Note_off_c, 0, 67, 55
1, 84784, Poly_aftertouch_c, 0, 75, 127
1, 84789, Note_off_c, 0, 70, 60
1, 84812, Note_off_c, 0, 63, 37
1, 84858, Control_c, 0, 64, 117
1, 84873, Note_off_c, 0, 58, 30
1, 84874, Control_c, 0, 64, 104
1, 84886, Poly_aftertouch_c, 0, 75, 0
1, 84889, Control_c, 0, 64, 86
1, 84903, Note_on_c, 0, 60, 40
1, 84903, Control_c, 0, 64, 68
1, 84910, Note_on_c, 0, 80, 60
1, 84918, Control_c, 0, 64, 54
1, 84922, Poly_aftertouch_c, 0, 75, 127
1, 84929, Poly_aftertouch_c, 0, 63, 127
1, 84931, Note_on_c, 0, 68, 43
1, 84933, Control_c, 0, 64, 44
1, 84945, Note_on_c, 0, 72, 35
1, 84948, Control_c, 0, 64, 49
1, 84957, Note_off_c, 0, 79, 35
1, 84963, Control_c, 0, 64, 55
1, 84977, Control_c, 0, 64, 60
1, 84988, Note_off_c, 0, 68, 60
1, 84990, Note_off_c, 0, 72, 60
1, 84992, Control_c, 0, 64, 65
1, 85007, Control_c, 0, 64, 69
1, 85022, Control_c, 0, 64, 78
1, 85026, Note_off_c, 0, 60, 58
1, 85037, Control_c, 0, 64, 92
1, 85051, Control_c, 0, 64, 127
1, 85107, Poly_aftertouch_c, 0, 75, 0
1, 85113, Note_on_c, 0, 61, 41
1, 85113, Note_on_c, 0, 82, 68
1, 85127, Note_on_c, 0, 70, 37
1, 85133, Note_on_c, 0, 73, 47
1, 85145, Poly_aftertouch_c, 0, 75, 127
1, 85148, Note_off_c, 0, 80, 44
1, 85175, Note_off_c, 0, 73, 59
1, 85182, Poly_aftertouch_c, 0, 75, 0
1, 85199, Note_off_c, 0, 70, 54
1, 85202, Poly_aftertouch_c, 0, 63, 0
1, 85221, Control_c, 0, 64, 121
1, 85236, Control_c, 0, 64, 110
1, 85251, Control_c, 0, 64, 103
1, 85266, Control_c, 0, 64, 97
1, 85270, Note_off_c, 0, 61, 36
1, 85281, Control_c, 0, 64, 91
1, 85295, Control_c, 0, 64, 87
1, 85310, Control_c, 0, 64, 84
1, 85325, Note_on_c, 0, 56, 44
1, 85325, Control_c, 0, 64, 80
1, 85333, Note_on_c, 0, 75, 60
1, 85340, Control_c, 0, 64, 77
1, 85355, Control_c, 0, 64, 73
1, 85369, Control_c, 0, 64, 70
1, 85370, Note_on_c, 0, 73, 42
1, 85384, Control_c, 0, 64, 69
1, 85399, Control_c, 0, 64, 69
1, 85414, Control_c, 0, 64, 68
1, 85427, Note_off_c, 0, 82, 28
1, 85428, Control_c, 0, 64, 68
1, 85443, Control_c, 0, 64, 66
1, 85458, Control_c, 0, 64, 65
1, 85473, Control_c, 0, 64, 64
1, 85488, Control_c, 0, 64, 63
1, 85499, Note_off_c, 0, 73, 63
1, 85503, Control_c, 0, 64, 62
1, 85518, Control_c, 0, 64, 61
1, 85532, Control_c, 0, 64, 59
1, 85536, Note_on_c, 0, 80, 61
1, 85547, Control_c, 0, 64, 55
1, 85548, Note_on_c, 0, 60, 37
1, 85555, Note_on_c, 0, 63, 32
1, 85560, Note_on_c, 0, 68, 38
1, 85562, Control_c, 0, 64, 51
1, 85564, Note_on_c, 0, 72, 36
1, 85577, Control_c, 0, 64, 48
1, 85592, Control_c, 0, 64, 46
1, 85607, Control_c, 0, 64, 44
1, 85619, Note_off_c, 0, 63, 56
1, 85621, Control_c, 0, 64, 43
1, 85622, Note_off_c, 0, 68, 57
1, 85627, Note_off_c, 0, 60, 59
1, 85629, Note_off_c, 0, 72, 54
1, 85634, Note_off_c, 0, 75, 58
1, 85651, Note_off_c, 0, 80, 63
1, 85667, Control_c, 0, 64, 44
1, 85681, Control_c, 0, 64, 46
1, 85696, Control_c, 0, 64, 48
1, 85711, Control_c, 0, 64, 51
1, 85726, Control_c, 0, 64, 54
1, 85733, Note_on_c, 0, 60, 31
1, 85733, Note_on_c, 0, 80, 63
1, 85741, Note_on_c, 0, 63, 29
1, 85741, Control_c, 0, 64, 57
1, 85745, Note_on_c, 0, 68, 33
1, 85755, Note_on_c, 0, 72, 39
1, 85756, Control_c, 0, 64, 60
1, 85771, Control_c, 0, 64, 62
1, 85771, Note_on_c, 0, 75, 37
1, 85786, Control_c, 0, 64, 64
1, 85797, Note_off_c, 0, 63, 57
1, 85798, Note_off_c, 0, 72, 51
1, 85800, Note_off_c, 0, 60, 58
1, 85800, Control_c, 0, 64, 67
1, 85801, Note_off_c, 0, 75, 51
1, 85807, Note_off_c, 0, 68, 54
1, 85815, Control_c, 0, 64, 71
1, 85823, Note_off_c, 0, 80, 62
1, 85830, Control_c, 0, 64, 78
1, 85844, Control_c, 0, 64, 83
1, 85859, Control_c, 0, 64, 88
1, 85874, Control_c, 0, 64, 92
1, 85889, Control_c, 0, 64, 93
1, 85933, Note_on_c, 0, 63, 33
1, 85933, Control_c, 0, 64, 94
1, 85936, Note_on_c, 0, 60, 32
1, 85943, Note_on_c, 0, 80, 58
1, 85946, Note_on_c, 0, 68, 19
1, 85947, Note_on_c, 0, 72, 39
1, 85957, Note_on_c, 0, 75, 27
1, 85991, Note_off_c, 0, 60, 58
1, 85994, Note_off_c, 0, 63, 50
1, 85997, Note_off_c, 0, 72, 46
1, 86000, Note_off_c, 0, 80, 54
1, 86001, Note_off_c, 0, 75, 47
1, 86010, Note_off_c, 0, 68, 44
1, 86015, Control_c, 0, 64, 93
1, 86059, Control_c, 0, 64, 93
1, 86074, Control_c, 0, 64, 92
1, 86104, Control_c, 0, 64, 92
1, 86148, Control_c, 0, 64, 91
1, 86164, Note_on_c, 0, 63, 35
1, 86168, Note_on_c, 0, 60, 35
1, 86176, Note_on_c, 0, 80, 44
1, 86187, Note_on_c, 0, 68, 24
1, 86202, Note_on_c, 0, 72, 24
1, 86240, Note_off_c, 0, 68, 45
1, 86240, Note_off_c, 0, 72, 52
1, 86245, Note_off_c, 0, 56, 37
1, 86251, Note_off_c, 0, 60, 57
1, 86251, Note_off_c, 0, 63, 57
1, 86264, Note_off_c, 0, 80, 62
1, 86430, Note_on_c, 0, 63, 40
1, 86436, Note_on_c, 0, 60, 38
1, 86465, Note_on_c, 0, 75, 9
1, 86491, Note_off_c, 0, 60, 61
1, 86493, Note_off_c, 0, 63, 60
1, 86522, Note_on_c, 0, 87, 47
1, 86579, Control_c, 0, 64, 91
1, 86588, Note_off_c, 0, 87, 42
1, 86609, Control_c, 0, 64, 87
1, 86623, Control_c, 0, 64, 80
1, 86638, Control_c, 0, 64, 71
1, 86652, Note_on_c, 0, 68, 60
1, 86653, Control_c, 0, 64, 64
1, 86656, Note_on_c, 0, 80, 32
1, 86662, Note_on_c, 0, 63, 34
1, 86665, Note_on_c, 0, 60, 33
1, 86667, Control_c, 0, 64, 62
1, 86682, Control_c, 0, 64, 63
1, 86687, Note_off_c, 0, 75, 15
1, 86697, Control_c, 0, 64, 65
1, 86705, Note_off_c, 0, 63, 63
1, 86708, Note_off_c, 0, 60, 65
1, 86712, Control_c, 0, 64, 68
1, 86734, Control_c, 0, 64, 72
1, 86740, Note_off_c, 0, 80, 50
1, 86746, Note_off_c, 0, 68, 63
1, 86749, Control_c, 0, 64, 78
1, 86749, Note_on_c, 0, 87, 45
1, 86764, Control_c, 0, 64, 85
1, 86778, Control_c, 0, 64, 93
1, 86793, Control_c, 0, 64, 105
1, 86808, Control_c, 0, 64, 127
1, 86852, Note_off_c, 0, 87, 51
1, 86853, Control_c, 0, 64, 104
1, 86868, Control_c, 0, 64, 79
1, 86882, Control_c, 0, 64, 65
1, 86886, Note_on_c, 0, 70, 53
1, 86895, Note_on_c, 0, 67, 38
1, 86895, Note_on_c, 0, 63, 40
1, 86897, Control_c, 0, 64, 55
1, 86907, Note_on_c, 0, 82, 36
1, 86912, Control_c, 0, 64, 57
1, 86927, Control_c, 0, 64, 63
1, 86936, Note_off_c, 0, 67, 64
1, 86941, Control_c, 0, 64, 67
1, 86954, Note_off_c, 0, 70, 64
1, 86956, Control_c, 0, 64, 72
1, 86968, Note_off_c, 0, 63, 63
1, 86971, Control_c, 0, 64, 78
1, 86986, Note_off_c, 0, 82, 48
1, 86986, Control_c, 0, 64, 86
1, 86999, Note_on_c, 0, 87, 44
1, 87001, Control_c, 0, 64, 93
1, 87016, Control_c, 0, 64, 98
1, 87030, Control_c, 0, 64, 98
1, 87074, Control_c, 0, 64, 98
1, 87089, Control_c, 0, 64, 95
1, 87090, Note_off_c, 0, 87, 52
1, 87104, Control_c, 0, 64, 85
1, 87116, Note_on_c, 0, 56, 38
1, 87119, Control_c, 0, 64, 70
1, 87127, Note_on_c, 0, 75, 43
1, 87134, Control_c, 0, 64, 50
1, 87148, Control_c, 0, 64, 32
1, 87163, Control_c, 0, 64, 44
1, 87178, Control_c, 0, 64, 55
1, 87193, Control_c, 0, 64, 61
1, 87201, Note_off_c, 0, 56, 63
1, 87208, Control_c, 0, 64, 65
1, 87223, Note_on_c, 0, 87, 49
1, 87223, Control_c, 0, 64, 70
1, 87237, Control_c, 0, 64, 78
1, 87252, Control_c, 0, 64, 90
1, 87259, Note_off_c, 0, 75, 36
1, 87268, Control_c, 0, 64, 106
1, 87283, Control_c, 0, 64, 119
1, 87303, Note_off_c, 0, 87, 54
1, 87333, Note_on_c, 0, 72, 53
1, 87337, Note_on_c, 0, 63, 39
1, 87339, Note_on_c, 0, 84, 45
1, 87345, Note_on_c, 0, 68, 37
1, 87379, Note_off_c, 0, 63, 51
1, 87381, Note_off_c, 0, 68, 54
1, 87385, Note_off_c, 0, 84, 61
1, 87387, Note_off_c, 0, 72, 58
1, 87409, Note_on_c, 0, 75, 51
1, 87431, Control_c, 0, 64, 117
1, 87446, Control_c, 0, 64, 116
1, 87448, Note_off_c, 0, 75, 57
1, 87483, Control_c, 0, 64, 115
1, 87512, Control_c, 0, 64, 114
1, 87525, Note_on_c, 0, 72, 65
1, 87527, Control_c, 0, 64, 113
1, 87536, Note_on_c, 0, 68, 36
1, 87538, Note_on_c, 0, 63, 39
1, 87538, Note_on_c, 0, 75, 49
1, 87542, Control_c, 0, 64, 112
1, 87557, Control_c, 0, 64, 111
1, 87571, Control_c, 0, 64, 110
1, 87579, Note_off_c, 0, 63, 54
1, 87584, Note_off_c, 0, 68, 55
1, 87598, Note_off_c, 0, 72, 58
1, 87607, Note_on_c, 0, 87, 51
1, 87615, Note_off_c, 0, 75, 54
1, 87616, Control_c, 0, 64, 110
1, 87631, Control_c, 0, 64, 109
1, 87646, Control_c, 0, 64, 108
1, 87661, Control_c, 0, 64, 107
1, 87676, Control_c, 0, 64, 107
1, 87691, Control_c, 0, 64, 106
1, 87697, Note_off_c, 0, 87, 58
1, 87705, Control_c, 0, 64, 106
1, 87709, Note_on_c, 0, 72, 74
1, 87723, Note_on_c, 0, 84, 53
1, 87729, Note_on_c, 0, 63, 32
1, 87736, Note_on_c, 0, 68, 42
1, 87765, Control_c, 0, 64, 105
1, 87770, Note_off_c, 0, 84, 56
1, 87770, Note_off_c, 0, 63, 47
1, 87779, Note_off_c, 0, 68, 46
1, 87779, Control_c, 0, 64, 105
1, 87794, Control_c, 0, 64, 104
1, 87796, Note_off_c, 0, 72, 61
1, 87807, Note_on_c, 0, 75, 50
1, 87809, Control_c, 0, 64, 104
1, 87837, Note_off_c, 0, 75, 56
1, 87868, Control_c, 0, 64, 102
1, 87883, Control_c, 0, 64, 93
1, 87897, Control_c, 0, 64, 80
1, 87905, Note_on_c, 0, 71, 73
1, 87912, Control_c, 0, 64, 69
1, 87914, Note_on_c, 0, 62, 54
1, 87926, Note_on_c, 0, 75, 52
1, 87927, Control_c, 0, 64, 60
1, 87942, Control_c, 0, 64, 54
1, 87947, Note_on_c, 0, 68, 29
1, 87957, Control_c, 0, 64, 56
1, 87971, Control_c, 0, 64, 59
1, 87986, Control_c, 0, 64, 62
1, 87993, Note_on_c, 0, 87, 58
1, 88001, Control_c, 0, 64, 63
1, 88013, Note_off_c, 0, 75, 56
1, 88016, Control_c, 0, 64, 66
1, 88030, Control_c, 0, 64, 69
1, 88040, Note_off_c, 0, 71, 62
1, 88042, Note_off_c, 0, 68, 0
1, 88045, Control_c, 0, 64, 77
1, 88053, Note_off_c, 0, 62, 50
1, 88060, Control_c, 0, 64, 94
1, 88076, Control_c, 0, 64, 127
1, 88080, Poly_aftertouch_c, 0, 68, 127
1, 88087, Note_off_c, 0, 87, 60
1, 88092, Note_on_c, 0, 84, 55
1, 88106, Note_on_c, 0, 72, 81
1, 88123, Note_on_c, 0, 63, 51
1, 88148, Note_off_c, 0, 84, 57
1, 88168, Note_off_c, 0, 63, 58
1, 88169, Note_on_c, 0, 75, 55
1, 88200, Note_off_c, 0, 72, 62
1, 88201, Poly_aftertouch_c, 0, 68, 0
1, 88204, Note_off_c, 0, 75, 64
1, 88276, Control_c, 0, 64, 86
1, 88287, Note_on_c, 0, 72, 84
1, 88291, Control_c, 0, 64, 67
1, 88305, Note_on_c, 0, 75, 65
1, 88306, Control_c, 0, 64, 54
1, 88309, Note_on_c, 0, 63, 48
1, 88320, Control_c, 0, 64, 53
1, 88331, Note_on_c, 0, 68, 35
1, 88335, Control_c, 0, 64, 59
1, 88348, Note_off_c, 0, 63, 59
1, 88350, Control_c, 0, 64, 64
1, 88359, Note_off_c, 0, 75, 61
1, 88363, Note_off_c, 0, 68, 47
1, 88365, Control_c, 0, 64, 67
1, 88370, Note_on_c, 0, 87, 63
1, 88379, Note_off_c, 0, 72, 61
1, 88380, Control_c, 0, 64, 73
1, 88394, Control_c, 0, 64, 83
1, 88409, Control_c, 0, 64, 99
1, 88424, Control_c, 0, 64, 127
1, 88434, Note_off_c, 0, 87, 57
1, 88474, Note_on_c, 0, 72, 84
1, 88476, Note_on_c, 0, 80, 75
1, 88489, Note_on_c, 0, 63, 51
1, 88507, Note_on_c, 0, 68, 33
1, 88529, Note_off_c, 0, 63, 62
1, 88535, Note_off_c, 0, 72, 59
1, 88541, Note_off_c, 0, 68, 50
1, 88555, Note_off_c, 0, 80, 60
1, 88572, Note_on_c, 0, 92, 71
1, 88653, Note_off_c, 0, 92, 60
1, 88676, Control_c, 0, 64, 91
1, 88691, Control_c, 0, 64, 72
1, 88692, Note_on_c, 0, 66, 50
1, 88699, Note_on_c, 0, 75, 74
1, 88702, Note_on_c, 0, 61, 52
1, 88706, Control_c, 0, 64, 60
1, 88712, Note_on_c, 0, 68, 36
1, 88719, Note_on_c, 0, 80, 62
1, 88720, Control_c, 0, 64, 45
1, 88735, Control_c, 0, 64, 46
1, 88750, Control_c, 0, 64, 49
1, 88765, Control_c, 0, 64, 54
1, 88780, Control_c, 0, 64, 59
1, 88792, Note_on_c, 0, 92, 66
1, 88794, Control_c, 0, 64, 63
1, 88809, Control_c, 0, 64, 66
1, 88816, Note_off_c, 0, 66, 55
1, 88824, Control_c, 0, 64, 69
1, 88838, Control_c, 0, 64, 74
1, 88844, Note_off_c, 0, 75, 61
1, 88850, Note_off_c, 0, 80, 61
1, 88853, Control_c, 0, 64, 81
1, 88869, Control_c, 0, 64, 90
1, 88884, Control_c, 0, 64, 99
1, 88889, Note_off_c, 0, 68, 35
1, 88899, Control_c, 0, 64, 110
1, 88914, Control_c, 0, 64, 113
1, 88927, Note_off_c, 0, 92, 60
1, 88931, Note_on_c, 0, 89, 66
1, 88933, Note_on_c, 0, 73, 73
1, 88938, Note_on_c, 0, 68, 34
1, 88943, Control_c, 0, 64, 103
1, 88966, Control_c, 0, 64, 85
1, 88969, Note_on_c, 0, 65, 46
1, 88981, Control_c, 0, 64, 68
1, 88996, Control_c, 0, 64, 52
1, 89011, Control_c, 0, 64, 50
1, 89016, Note_off_c, 0, 89, 59
1, 89023, Note_off_c, 0, 65, 55
1, 89025, Control_c, 0, 64, 56
1, 89030, Note_on_c, 0, 80, 69
1, 89035, Note_off_c, 0, 73, 62
1, 89040, Control_c, 0, 64, 60
1, 89055, Control_c, 0, 64, 64
1, 89066, Note_off_c, 0, 80, 63
1, 89069, Control_c, 0, 64, 67
1, 89084, Control_c, 0, 64, 72
1, 89099, Control_c, 0, 64, 83
1, 89109, Note_off_c, 0, 68, 0
1, 89114, Control_c, 0, 64, 105
1, 89117, Note_on_c, 0, 73, 80
1, 89124, Note_on_c, 0, 68, 30
1, 89129, Control_c, 0, 64, 127
1, 89130, Note_on_c, 0, 65, 48
1, 89133, Note_on_c, 0, 80, 66
1, 89189, Note_off_c, 0, 65, 58
1, 89200, Note_off_c, 0, 68, 47
1, 89203, Note_on_c, 0, 92, 70
1, 89203, Note_off_c, 0, 73, 59
1, 89206, Note_off_c, 0, 61, 36
1, 89214, Note_off_c, 0, 80, 62
1, 89291, Note_off_c, 0, 92, 62
1, 89299, Note_on_c, 0, 89, 68
1, 89303, Note_on_c, 0, 73, 73
1, 89329, Note_on_c, 0, 65, 46
1, 89335, Note_on_c, 0, 68, 26
1, 89367, Note_off_c, 0, 89, 60
1, 89369, Note_off_c, 0, 65, 58
1, 89383, Note_off_c, 0, 73, 57
1, 89387, Note_on_c, 0, 80, 62
1, 89388, Note_off_c, 0, 68, 45
1, 89421, Note_off_c, 0, 80, 62
1, 89488, Note_on_c, 0, 73, 72
1, 89493, Note_on_c, 0, 80, 60
1, 89500, Note_on_c, 0, 65, 41
1, 89569, Note_off_c, 0, 80, 56
1, 89572, Note_on_c, 0, 92, 66
1, 89589, Poly_aftertouch_c, 0, 68, 0
1, 89624, Note_off_c, 0, 73, 61
1, 89633, Control_c, 0, 64, 99
1, 89641, Note_off_c, 0, 92, 60
1, 89644, Note_off_c, 0, 65, 0
1, 89648, Control_c, 0, 64, 79
1, 89664, Control_c, 0, 64, 67
1, 89679, Control_c, 0, 64, 59
1, 89680, Note_on_c, 0, 72, 68
1, 89682, Poly_aftertouch_c, 0, 65, 127
1, 89682, Note_on_c, 0, 81, 62
1, 89687, Note_on_c, 0, 63, 51
1, 89693, Control_c, 0, 64, 58
1, 89715, Control_c, 0, 64, 61
1, 89730, Control_c, 0, 64, 64
1, 89745, Control_c, 0, 64, 69
1, 89760, Control_c, 0, 64, 78
1, 89762, Note_off_c, 0, 81, 60
1, 89766, Poly_aftertouch_c, 0, 65, 0
1, 89774, Control_c, 0, 64, 95
1, 89786, Note_on_c, 0, 93, 67
1, 89789, Control_c, 0, 64, 127
1, 89847, Note_off_c, 0, 93, 63
1, 89849, Control_c, 0, 64, 90
1, 89861, Note_on_c, 0, 70, 66
1, 89864, Control_c, 0, 64, 72
1, 89867, Note_off_c, 0, 72, 59
1, 89879, Control_c, 0, 64, 63
1, 89879, Note_on_c, 0, 82, 67
1, 89885, Note_on_c, 0, 61, 45
1, 89893, Control_c, 0, 64, 62
1, 89908, Control_c, 0, 64, 65
1, 89923, Note_off_c, 0, 61, 46
1, 89923, Control_c, 0, 64, 69
1, 89938, Control_c, 0, 64, 77
1, 89950, Note_off_c, 0, 82, 59
1, 89953, Control_c, 0, 64, 90
1, 89955, Note_on_c, 0, 94, 74
1, 89967, Control_c, 0, 64, 127
1, 89979, Note_off_c, 0, 70, 56
1, 89992, Note_off_c, 0, 63, 32
1, 90010, Note_off_c, 0, 94, 58
1, 90011, Control_c, 0, 64, 112
1, 90026, Control_c, 0, 64, 78
1, 90040, Control_c, 0, 64, 64
1, 90055, Control_c, 0, 64, 56
1, 90057, Note_on_c, 0, 68, 63
1, 90063, Note_on_c, 0, 60, 50
1, 90063, Note_on_c, 0, 96, 68
1, 90070, Control_c, 0, 64, 60
1, 90084, Control_c, 0, 64, 65
1, 90093, Poly_aftertouch_c, 0, 63, 127
1, 90099, Control_c, 0, 64, 71
1, 90105, Note_off_c, 0, 60, 67
1, 90109, Note_off_c, 0, 68, 61
1, 90114, Control_c, 0, 64, 82
1, 90116, Poly_aftertouch_c, 0, 63, 0
1, 90129, Control_c, 0, 64, 101
1, 90144, Control_c, 0, 64, 127
1, 90157, Note_off_c, 0, 96, 63
1, 90160, Note_on_c, 0, 85, 65
1, 90167, Note_on_c, 0, 97, 68
1, 90189, Note_off_c, 0, 85, 65
1, 90218, Control_c, 0, 64, 107
1, 90233, Control_c, 0, 64, 77
1, 90239, Note_off_c, 0, 97, 62
1, 90248, Control_c, 0, 64, 60
1, 90259, Note_on_c, 0, 51, 46
1, 90263, Control_c, 0, 64, 32
1, 90267, Note_on_c, 0, 87, 65
1, 90278, Control_c, 0, 64, 38
1, 90292, Control_c, 0, 64, 50
1, 90307, Control_c, 0, 64, 58
1, 90322, Control_c, 0, 64, 63
1, 90326, Note_off_c, 0, 51, 63
1, 90337, Control_c, 0, 64, 67
1, 90352, Control_c, 0, 64, 73
1, 90365, Note_on_c, 0, 99, 61
1, 90366, Control_c, 0, 64, 85
1, 90372, Note_off_c, 0, 87, 61
1, 90381, Control_c, 0, 64, 108
1, 90396, Control_c, 0, 64, 127
1, 90446, Note_off_c, 0, 99, 59
1, 90466, Note_on_c, 0, 67, 56
1, 90470, Note_on_c, 0, 58, 45
1, 90470, Note_on_c, 0, 97, 55
1, 90473, Note_on_c, 0, 63, 41
1, 90508, Note_off_c, 0, 63, 55
1, 90513, Note_off_c, 0, 58, 60
1, 90513, Note_off_c, 0, 67, 59
1, 90521, Note_off_c, 0, 97, 61
1, 90554, Note_on_c, 0, 87, 54
1, 90584, Note_off_c, 0, 87, 60
1, 90641, Note_on_c, 0, 67, 61
1, 90652, Note_on_c, 0, 58, 42
1, 90652, Note_on_c, 0, 63, 30
1, 90665, Note_on_c, 0, 87, 59
1, 90694, Note_off_c, 0, 58, 60
1, 90695, Note_off_c, 0, 63, 53
1, 90703, Note_off_c, 0, 67, 61
1, 90736, Note_off_c, 0, 87, 54
1, 90739, Note_on_c, 0, 99, 58
1, 90824, Note_on_c, 0, 67, 66
1, 90832, Note_off_c, 0, 99, 59
1, 90834, Note_on_c, 0, 58, 46
1, 90842, Note_on_c, 0, 63, 29
1, 90842, Note_on_c, 0, 97, 61
1, 90877, Note_off_c, 0, 58, 61
1, 90886, Note_off_c, 0, 63, 51
1, 90898, Note_off_c, 0, 67, 58
1, 90911, Note_off_c, 0, 97, 56
1, 90924, Note_on_c, 0, 87, 45
1, 90954, Note_off_c, 0, 87, 54
1, 91023, Note_on_c, 0, 67, 59
1, 91031, Note_on_c, 0, 87, 47
1, 91056, Note_on_c, 0, 58, 37
1, 91080, Poly_aftertouch_c, 0, 63, 127
1, 91095, Note_off_c, 0, 87, 52
1, 91097, Note_off_c, 0, 58, 53
1, 91110, Note_off_c, 0, 67, 58
1, 91115, Note_on_c, 0, 99, 54
1, 91128, Poly_aftertouch_c, 0, 63, 0
1, 91220, Note_on_c, 0, 97, 61
1, 91224, Note_on_c, 0, 67, 63
1, 91227, Note_on_c, 0, 58, 51
1, 91236, Note_off_c, 0, 99, 48
1, 91301, Note_on_c, 0, 87, 55
1, 91303, Note_off_c, 0, 67, 62
1, 91327, Note_off_c, 0, 97, 55
1, 91375, Control_c, 0, 64, 106
1, 91390, Control_c, 0, 64, 87
1, 91404, Note_on_c, 0, 68, 74
1, 91405, Control_c, 0, 64, 71
1, 91406, Note_on_c, 0, 60, 50
1, 91412, Note_on_c, 0, 96, 60
1, 91420, Control_c, 0, 64, 60
1, 91435, Control_c, 0, 64, 54
1, 91437, Note_off_c, 0, 87, 38
1, 91440, Note_off_c, 0, 58, 37
1, 91450, Control_c, 0, 64, 57
1, 91464, Control_c, 0, 64, 60
1, 91479, Control_c, 0, 64, 64
1, 91486, Poly_aftertouch_c, 0, 63, 127
1, 91494, Control_c, 0, 64, 67
1, 91498, Note_on_c, 0, 99, 66
1, 91509, Control_c, 0, 64, 74
1, 91522, Note_off_c, 0, 96, 60
1, 91524, Poly_aftertouch_c, 0, 63, 0
1, 91524, Control_c, 0, 64, 87
1, 91527, Note_off_c, 0, 68, 62
1, 91538, Control_c, 0, 64, 115
1, 91553, Control_c, 0, 64, 127
1, 91566, Note_off_c, 0, 60, 37
1, 91590, Note_off_c, 0, 99, 60
1, 91598, Control_c, 0, 64, 85
1, 91600, Note_on_c, 0, 94, 62
1, 91601, Note_on_c, 0, 61, 48
1, 91601, Note_on_c, 0, 70, 69
1, 91612, Control_c, 0, 64, 69
1, 91627, Control_c, 0, 64, 59
1, 91630, Note_on_c, 0, 63, 52
1, 91642, Control_c, 0, 64, 56
1, 91656, Control_c, 0, 64, 61
1, 91671, Control_c, 0, 64, 65
1, 91686, Control_c, 0, 64, 69
1, 91700, Note_off_c, 0, 94, 58
1, 91701, Control_c, 0, 64, 77
1, 91716, Control_c, 0, 64, 90
1, 91718, Note_off_c, 0, 63, 55
1, 91721, Note_on_c, 0, 99, 43
1, 91730, Control_c, 0, 64, 127
1, 91736, Note_off_c, 0, 70, 60
1, 91750, Note_off_c, 0, 99, 54
1, 91783, Note_on_c, 0, 56, 54
1, 91794, Note_off_c, 0, 61, 0
1, 91800, Note_on_c, 0, 87, 55
1, 91818, Note_on_c, 0, 61, 7
1, 91819, Control_c, 0, 64, 114
1, 91822, Note_on_c, 0, 63, 52
1, 91834, Control_c, 0, 64, 82
1, 91849, Control_c, 0, 64, 65
1, 91864, Control_c, 0, 64, 44
1, 91879, Control_c, 0, 64, 19
1, 91894, Note_on_c, 0, 99, 52
1, 91894, Control_c, 0, 64, 21
1, 91909, Control_c, 0, 64, 30
1, 91923, Control_c, 0, 64, 44
1, 91932, Note_off_c, 0, 61, 57
1, 91938, Control_c, 0, 64, 53
1, 91942, Note_off_c, 0, 87, 36
1, 91960, Control_c, 0, 64, 59
1, 91975, Control_c, 0, 64, 62
1, 91990, Control_c, 0, 64, 65
1, 91998, Note_off_c, 0, 99, 59
1, 92001, Note_on_c, 0, 96, 55
1, 92005, Control_c, 0, 64, 70
1, 92009, Note_on_c, 0, 68, 59
1, 92010, Note_on_c, 0, 60, 50
1, 92019, Control_c, 0, 64, 79
1, 92034, Control_c, 0, 64, 99
1, 92049, Control_c, 0, 64, 127
1, 92050, Note_off_c, 0, 56, 59
1, 92061, Note_off_c, 0, 96, 65
1, 92078, Note_on_c, 0, 87, 60
1, 92090, Note_off_c, 0, 68, 58
1, 92095, Note_off_c, 0, 60, 60
1, 92108, Note_off_c, 0, 87, 66
1, 92129, Note_off_c, 0, 63, 36
1, 92197, Note_on_c, 0, 68, 81
1, 92206, Note_on_c, 0, 63, 41
1, 92216, Note_on_c, 0, 60, 59
1, 92225, Note_on_c, 0, 75, 68
1, 92251, Note_off_c, 0, 60, 59
1, 92261, Note_off_c, 0, 63, 53
1, 92271, Note_off_c, 0, 68, 55
1, 92296, Note_on_c, 0, 87, 60
1, 92302, Note_off_c, 0, 75, 56
1, 92375, Note_off_c, 0, 87, 58
1, 92377, Note_on_c, 0, 84, 61
1, 92388, Note_on_c, 0, 68, 66
1, 92417, Note_off_c, 0, 68, 61
1, 92434, Note_off_c, 0, 84, 58
1, 92458, Note_on_c, 0, 75, 57
1, 92499, Note_off_c, 0, 75, 59
1, 92544, Note_on_c, 0, 68, 62
1, 92552, Control_c, 0, 64, 102
1, 92567, Control_c, 0, 64, 81
1, 92582, Control_c, 0, 64, 67
1, 92597, Control_c, 0, 64, 55
1, 92612, Control_c, 0, 64, 47
1, 92622, Note_on_c, 0, 72, 64
1, 92622, Note_on_c, 0, 75, 29
1, 92626, Control_c, 0, 64, 50
1, 92641, Control_c, 0, 64, 55
1, 92656, Control_c, 0, 64, 60
1, 92671, Control_c, 0, 64, 64
1, 92685, Control_c, 0, 64, 68
1, 92693, Note_on_c, 0, 87, 53
1, 92695, Poly_aftertouch_c, 0, 63, 127
1, 92707, Control_c, 0, 64, 75
1, 92710, Note_off_c, 0, 68, 59
1, 92721, Note_off_c, 0, 75, 37
1, 92722, Control_c, 0, 64, 90
1, 92737, Control_c, 0, 64, 127
1, 92784, Poly_aftertouch_c, 0, 63, 0
1, 92788, Note_off_c, 0, 87, 60
1, 92809, Note_on_c, 0, 63, 4
1, 92816, Note_on_c, 0, 60, 54
1, 92823, Note_on_c, 0, 84, 47
1, 92838, Note_on_c, 0, 68, 55
1, 92862, Note_off_c, 0, 60, 60
1, 92867, Note_off_c, 0, 72, 62
1, 92879, Note_off_c, 0, 68, 62
1, 92880, Note_off_c, 0, 84, 54
1, 92892, Note_off_c, 0, 63, 49
1, 92893, Note_on_c, 0, 75, 55
1, 92913, Note_off_c, 0, 75, 62
1, 93000, Note_on_c, 0, 68, 60
1, 93006, Note_on_c, 0, 60, 43
1, 93022, Note_on_c, 0, 80, 63
1, 93026, Note_on_c, 0, 63, 35
1, 93037, Note_off_c, 0, 68, 61
1, 93042, Note_off_c, 0, 60, 63
1, 93058, Note_off_c, 0, 63, 52
1, 93090, Note_off_c, 0, 80, 61
1, 93101, Note_on_c, 0, 92, 76
1, 93140, Note_off_c, 0, 92, 61
1, 93222, Note_on_c, 0, 63, 8
1, 93226, Note_on_c, 0, 68, 39
1, 93226, Note_on_c, 0, 60, 33
1, 93233, Note_on_c, 0, 75, 64
1, 93250, Note_off_c, 0, 68, 58
1, 93251, Note_off_c, 0, 60, 60
1, 93263, Note_off_c, 0, 63, 52
1, 93298, Note_off_c, 0, 75, 57
1, 93319, Note_on_c, 0, 87, 55
1, 93361, Control_c, 0, 64, 118
1, 93370, Note_off_c, 0, 87, 55
1, 93376, Control_c, 0, 64, 107
1, 93390, Control_c, 0, 64, 97
1, 93405, Control_c, 0, 64, 83
1, 93420, Control_c, 0, 64, 68
1, 93435, Note_on_c, 0, 51, 41
1, 93435, Control_c, 0, 64, 54
1, 93440, Note_on_c, 0, 75, 46
1, 93450, Control_c, 0, 64, 38
1, 93472, Control_c, 0, 64, 45
1, 93487, Control_c, 0, 64, 54
1, 93502, Control_c, 0, 64, 61
1, 93505, Note_off_c, 0, 51, 62
1, 93516, Control_c, 0, 64, 66
1, 93524, Note_off_c, 0, 75, 48
1, 93531, Control_c, 0, 64, 72
1, 93533, Note_on_c, 0, 87, 45
1, 93546, Control_c, 0, 64, 82
1, 93561, Control_c, 0, 64, 106
1, 93576, Control_c, 0, 64, 127
1, 93636, Note_off_c, 0, 87, 47
1, 93658, Note_on_c, 0, 63, 36
1, 93659, Note_on_c, 0, 67, 47
1, 93660, Note_on_c, 0, 58, 39
1, 93667, Note_on_c, 0, 85, 40
1, 93705, Note_off_c, 0, 85, 54
1, 93709, Note_off_c, 0, 63, 56
1, 93710, Note_off_c, 0, 58, 58
1, 93720, Note_off_c, 0, 67, 58
1, 93732, Note_on_c, 0, 75, 51
1, 93760, Note_off_c, 0, 75, 58
1, 93836, Note_on_c, 0, 67, 63
1, 93846, Note_on_c, 0, 58, 39
1, 93855, Note_on_c, 0, 63, 36
1, 93858, Note_on_c, 0, 75, 50
1, 93891, Note_off_c, 0, 58, 56
1, 93891, Note_off_c, 0, 63, 53
1, 93909, Note_off_c, 0, 67, 57
1, 93921, Note_on_c, 0, 87, 50
1, 93921, Note_off_c, 0, 75, 51
1, 94010, Note_off_c, 0, 87, 56
1, 94025, Note_on_c, 0, 67, 67
1, 94025, Note_on_c, 0, 85, 56
1, 94039, Note_on_c, 0, 58, 32
1, 94043, Note_on_c, 0, 63, 33
1, 94078, Note_off_c, 0, 58, 53
1, 94088, Note_off_c, 0, 63, 52
1, 94090, Note_off_c, 0, 67, 56
1, 94117, Note_on_c, 0, 75, 45
1, 94136, Note_off_c, 0, 85, 37
1, 94141, Note_off_c, 0, 75, 55
1, 94220, Note_on_c, 0, 67, 63
1, 94221, Note_on_c, 0, 58, 46
1, 94229, Note_on_c, 0, 75, 50
1, 94257, Note_on_c, 0, 63, 18
1, 94277, Note_off_c, 0, 58, 59
1, 94289, Note_off_c, 0, 67, 59
1, 94294, Note_on_c, 0, 87, 61
1, 94303, Note_off_c, 0, 63, 46
1, 94306, Note_off_c, 0, 75, 56
1, 94392, Note_on_c, 0, 85, 71
1, 94412, Note_on_c, 0, 67, 57
1, 94413, Note_on_c, 0, 58, 46
1, 94433, Note_off_c, 0, 87, 57
1, 94451, Note_off_c, 0, 67, 63
1, 94469, Note_on_c, 0, 75, 59
1, 94532, Note_off_c, 0, 85, 60
1, 94548, Control_c, 0, 64, 113
1, 94562, Control_c, 0, 64, 93
1, 94564, Note_off_c, 0, 75, 47
1, 94577, Note_on_c, 0, 60, 47
1, 94577, Control_c, 0, 64, 74
1, 94581, Note_on_c, 0, 68, 66
1, 94587, Note_on_c, 0, 84, 67
1, 94592, Control_c, 0, 64, 63
1, 94604, Note_off_c, 0, 58, 40
1, 94607, Control_c, 0, 64, 54
1, 94612, Note_on_c, 0, 63, 15
1, 94622, Control_c, 0, 64, 54
1, 94636, Control_c, 0, 64, 58
1, 94651, Control_c, 0, 64, 62
1, 94660, Note_off_c, 0, 63, 50
1, 94666, Control_c, 0, 64, 65
1, 94675, Note_on_c, 0, 87, 63
1, 94681, Control_c, 0, 64, 70
1, 94696, Note_off_c, 0, 84, 59
1, 94696, Control_c, 0, 64, 78
1, 94699, Note_off_c, 0, 68, 62
1, 94711, Control_c, 0, 64, 93
1, 94726, Control_c, 0, 64, 127
1, 94733, Note_off_c, 0, 60, 58
1, 94762, Note_off_c, 0, 87, 61
1, 94770, Control_c, 0, 64, 94
1, 94775, Note_on_c, 0, 70, 70
1, 94775, Note_on_c, 0, 82, 64
1, 94776, Note_on_c, 0, 61, 50
1, 94781, Note_on_c, 0, 63, 46
1, 94785, Control_c, 0, 64, 74
1, 94800, Control_c, 0, 64, 63
1, 94815, Control_c, 0, 64, 56
1, 94829, Control_c, 0, 64, 59
1, 94844, Control_c, 0, 64, 64
1, 94859, Control_c, 0, 64, 68
1, 94867, Note_off_c, 0, 82, 58
1, 94874, Control_c, 0, 64, 74
1, 94875, Note_on_c, 0, 87, 49
1, 94888, Control_c, 0, 64, 84
1, 94903, Control_c, 0, 64, 100
1, 94904, Note_off_c, 0, 70, 61
1, 94907, Note_off_c, 0, 63, 52
1, 94918, Control_c, 0, 64, 127
1, 94924, Note_off_c, 0, 87, 60
1, 94965, Note_on_c, 0, 56, 60
1, 94972, Note_on_c, 0, 75, 67
1, 94984, Note_on_c, 0, 63, 33
1, 95029, Control_c, 0, 64, 96
1, 95044, Control_c, 0, 64, 76
1, 95059, Control_c, 0, 64, 59
1, 95071, Note_on_c, 0, 87, 58
1, 95074, Control_c, 0, 64, 25
1, 95086, Note_off_c, 0, 75, 55
1, 95088, Control_c, 0, 64, 11
1, 95100, Note_off_c, 0, 61, 56
1, 95103, Control_c, 0, 64, 15
1, 95118, Control_c, 0, 64, 20
1, 95133, Control_c, 0, 64, 31
1, 95148, Control_c, 0, 64, 43
1, 95161, Note_on_c, 0, 60, 51
1, 95162, Control_c, 0, 64, 52
1, 95163, Note_on_c, 0, 68, 67
1, 95164, Note_on_c, 0, 84, 62
1, 95175, Note_off_c, 0, 87, 60
1, 95177, Control_c, 0, 64, 57
1, 95192, Control_c, 0, 64, 62
1, 95207, Control_c, 0, 64, 65
1, 95208, Note_off_c, 0, 56, 60
1, 95222, Control_c, 0, 64, 71
1, 95231, Note_off_c, 0, 84, 58
1, 95236, Note_on_c, 0, 75, 66
1, 95236, Control_c, 0, 64, 86
1, 95241, Note_off_c, 0, 60, 60
1, 95243, Note_off_c, 0, 68, 58
1, 95247, Note_off_c, 0, 63, 55
1, 95252, Control_c, 0, 64, 127
1, 95275, Note_off_c, 0, 75, 60
1, 95349, Note_on_c, 0, 68, 77
1, 95350, Note_on_c, 0, 75, 66
1, 95352, Note_on_c, 0, 63, 42
1, 95363, Note_on_c, 0, 60, 56
1, 95405, Note_off_c, 0, 63, 58
1, 95412, Note_off_c, 0, 68, 59
1, 95415, Note_off_c, 0, 60, 57
1, 95426, Note_on_c, 0, 87, 64
1, 95428, Note_off_c, 0, 75, 61
1, 95507, Note_off_c, 0, 87, 62
1, 95522, Note_on_c, 0, 68, 74
1, 95523, Note_on_c, 0, 63, 56
1, 95523, Note_on_c, 0, 84, 63
1, 95557, Note_off_c, 0, 63, 65
1, 95571, Note_off_c, 0, 68, 59
1, 95583, Note_off_c, 0, 84, 62
1, 95602, Note_on_c, 0, 75, 57
1, 95632, Note_off_c, 0, 75, 62
1, 95682, Control_c, 0, 64, 106
1, 95686, Note_on_c, 0, 68, 68
1, 95703, Control_c, 0, 64, 77
1, 95718, Control_c, 0, 64, 63
1, 95723, Note_on_c, 0, 75, 55
1, 95733, Control_c, 0, 64, 47
1, 95748, Control_c, 0, 64, 46
1, 95763, Control_c, 0, 64, 53
1, 95767, Note_on_c, 0, 72, 70
1, 95778, Control_c, 0, 64, 58
1, 95793, Control_c, 0, 64, 64
1, 95808, Control_c, 0, 64, 68
1, 95809, Note_off_c, 0, 75, 49
1, 95810, Note_on_c, 0, 87, 71
1, 95820, Note_off_c, 0, 68, 57
1, 95822, Control_c, 0, 64, 77
1, 95837, Control_c, 0, 64, 93
1, 95852, Control_c, 0, 64, 127
1, 95863, Poly_aftertouch_c, 0, 63, 127
1, 95919, Note_off_c, 0, 87, 60
1, 95931, Note_on_c, 0, 84, 58
1, 95950, Note_on_c, 0, 60, 52
1, 95952, Note_on_c, 0, 68, 66
1, 95984, Note_off_c, 0, 72, 61
1, 95994, Note_off_c, 0, 60, 60
1, 96008, Note_on_c, 0, 75, 62
1, 96010, Note_off_c, 0, 84, 63
1, 96015, Note_off_c, 0, 68, 60
1, 96037, Note_off_c, 0, 75, 64
1, 96040, Poly_aftertouch_c, 0, 63, 0
1, 96132, Note_on_c, 0, 68, 66
1, 96132, Note_on_c, 0, 80, 72
1, 96150, Note_on_c, 0, 63, 40
1, 96161, Note_on_c, 0, 60, 10
1, 96165, Note_off_c, 0, 68, 61
1, 96179, Note_off_c, 0, 63, 56
1, 96198, Note_off_c, 0, 60, 41
1, 96199, Note_off_c, 0, 80, 63
1, 96217, Note_on_c, 0, 92, 78
1, 96248, Note_off_c, 0, 92, 63
1, 96320, Note_on_c, 0, 60, 34
1, 96330, Note_on_c, 0, 68, 53
1, 96341, Note_on_c, 0, 75, 74
1, 96356, Note_on_c, 0, 63, 12
1, 96362, Note_off_c, 0, 68, 63
1, 96363, Note_off_c, 0, 60, 64
1, 96402, Note_off_c, 0, 63, 37
1, 96404, Note_off_c, 0, 75, 62
1, 96427, Note_on_c, 0, 87, 73
1, 96462, Note_off_c, 0, 87, 64
1, 96556, Control_c, 0, 64, 100
1, 96566, Note_on_c, 0, 51, 54
1, 96571, Control_c, 0, 64, 75
1, 96586, Control_c, 0, 64, 59
1, 96586, Note_on_c, 0, 87, 63
1, 96600, Control_c, 0, 64, 22
1, 96615, Control_c, 0, 64, 16
1, 96630, Control_c, 0, 64, 36
1, 96645, Control_c, 0, 64, 50
1, 96660, Control_c, 0, 64, 59
1, 96663, Note_off_c, 0, 51, 63
1, 96674, Control_c, 0, 64, 64
1, 96687, Note_on_c, 0, 99, 62
1, 96689, Control_c, 0, 64, 69
1, 96704, Control_c, 0, 64, 77
1, 96707, Note_off_c, 0, 87, 59
1, 96720, Control_c, 0, 64, 90
1, 96734, Control_c, 0, 64, 127
1, 96794, Note_off_c, 0, 99, 60
1, 96801, Note_on_c, 0, 97, 57
1, 96805, Note_on_c, 0, 63, 43
1, 96809, Note_on_c, 0, 67, 55
1, 96809, Note_on_c, 0, 58, 43
1, 96849, Note_off_c, 0, 63, 60
1, 96854, Note_off_c, 0, 58, 59
1, 96854, Note_off_c, 0, 67, 58
1, 96866, Note_off_c, 0, 97, 63
1, 96890, Note_on_c, 0, 87, 59
1, 96925, Note_off_c, 0, 87, 63
1, 96981, Note_on_c, 0, 67, 63
1, 96990, Note_on_c, 0, 58, 43
1, 96997, Note_on_c, 0, 63, 37
1, 96997, Note_on_c, 0, 87, 63
1, 97037, Note_off_c, 0, 63, 57
1, 97042, Note_off_c, 0, 58, 58
1, 97056, Note_off_c, 0, 67, 59
1, 97072, Note_off_c, 0, 87, 56
1, 97077, Note_on_c, 0, 99, 76
1, 97182, Note_on_c, 0, 67, 60
1, 97184, Note_on_c, 0, 97, 77
1, 97206, Note_on_c, 0, 58, 39
1, 97215, Note_on_c, 0, 63, 27
1, 97226, Note_off_c, 0, 99, 60
1, 97247, Note_off_c, 0, 58, 60
1, 97250, Note_off_c, 0, 63, 51
1, 97250, Note_off_c, 0, 67, 54
1, 97275, Note_on_c, 0, 87, 68
1, 97315, Note_off_c, 0, 97, 53
1, 97324, Note_off_c, 0, 87, 58
1, 97382, Note_on_c, 0, 67, 59
1, 97382, Note_on_c, 0, 87, 49
1, 97387, Note_on_c, 0, 58, 46
1, 97391, Note_on_c, 0, 63, 34
1, 97441, Note_off_c, 0, 58, 59
1, 97458, Note_off_c, 0, 67, 60
1, 97463, Note_on_c, 0, 99, 71
1, 97469, Note_off_c, 0, 63, 49
1, 97477, Note_off_c, 0, 87, 58
1, 97585, Note_on_c, 0, 58, 44
1, 97585, Note_on_c, 0, 97, 77
1, 97587, Note_on_c, 0, 67, 59
1, 97609, Note_on_c, 0, 63, 24
1, 97626, Note_off_c, 0, 99, 61
1, 97657, Note_off_c, 0, 67, 62
1, 97676, Note_on_c, 0, 87, 60
1, 97740, Note_off_c, 0, 97, 60
1, 97765, Note_off_c, 0, 58, 34
1, 97780, Control_c, 0, 64, 108
1, 97781, Note_off_c, 0, 63, 0
1, 97795, Control_c, 0, 64, 88
1, 97797, Note_on_c, 0, 60, 49
1, 97799, Note_on_c, 0, 68, 68
1, 97799, Note_off_c, 0, 87, 54
1, 97806, Note_on_c, 0, 63, 13
1, 97807, Note_on_c, 0, 96, 77
1, 97810, Control_c, 0, 64, 73
1, 97825, Control_c, 0, 64, 62
1, 97840, Control_c, 0, 64, 50
1, 97854, Control_c, 0, 64, 52
1, 97869, Control_c, 0, 64, 56
1, 97884, Control_c, 0, 64, 60
1, 97899, Control_c, 0, 64, 64
1, 97910, Note_off_c, 0, 63, 47
1, 97914, Control_c, 0, 64, 67
1, 97927, Note_on_c, 0, 99, 75
1, 97928, Control_c, 0, 64, 71
1, 97929, Note_off_c, 0, 60, 57
1, 97941, Note_off_c, 0, 68, 61
1, 97943, Control_c, 0, 64, 80
1, 97966, Control_c, 0, 64, 93
1, 97969, Note_off_c, 0, 96, 62
1, 97980, Control_c, 0, 64, 127
1, 98066, Note_on_c, 0, 63, 49
1, 98069, Control_c, 0, 64, 86
1, 98074, Note_on_c, 0, 70, 55
1, 98075, Note_on_c, 0, 61, 51
1, 98078, Note_on_c, 0, 94, 86
1, 98084, Control_c, 0, 64, 68
1, 98099, Control_c, 0, 64, 55
1, 98112, Note_off_c, 0, 99, 63
1, 98113, Control_c, 0, 64, 48
1, 98128, Control_c, 0, 64, 55
1, 98143, Control_c, 0, 64, 60
1, 98158, Control_c, 0, 64, 64
1, 98168, Note_off_c, 0, 70, 64
1, 98172, Control_c, 0, 64, 68
1, 98187, Control_c, 0, 64, 77
1, 98202, Control_c, 0, 64, 99
1, 98217, Control_c, 0, 64, 127
1, 98219, Note_off_c, 0, 63, 60
1, 98221, Note_on_c, 0, 99, 81
1, 98234, Note_off_c, 0, 61, 62
1, 98277, Note_off_c, 0, 94, 59
1, 98390, Note_on_c, 0, 51, 57
1, 98395, Control_c, 0, 64, 98
1, 98410, Control_c, 0, 64, 69
1, 98413, Note_on_c, 0, 94, 94
1, 98425, Control_c, 0, 64, 42
1, 98440, Control_c, 0, 64, 0
1, 98484, Control_c, 0, 64, 22
1, 98499, Control_c, 0, 64, 48
1, 98500, Note_off_c, 0, 99, 58
1, 98514, Control_c, 0, 64, 57
1, 98529, Control_c, 0, 64, 63
1, 98544, Control_c, 0, 64, 67
1, 98559, Control_c, 0, 64, 74
1, 98574, Control_c, 0, 64, 90
1, 98589, Control_c, 0, 64, 127
1, 98625, Note_off_c, 0, 51, 63
1, 98897, Note_on_c, 0, 61, 51
1, 98900, Note_on_c, 0, 70, 67
1, 98902, Note_on_c, 0, 63, 51
1, 99756, Note_on_c, 0, 96, 40
1, 99981, Note_on_c, 0, 97, 71
1, 100011, Note_off_c, 0, 94, 29
1, 100161, Note_off_c, 0, 96, 42
1, 100216, Note_on_c, 0, 98, 83
1, 100294, Note_off_c, 0, 97, 61
1, 100492, Note_on_c, 0, 99, 86
1, 100533, Note_off_c, 0, 98, 63
1, 101235, Note_off_c, 0, 70, 38
1, 101660, Note_off_c, 0, 61, 32
1, 101868, Note_on_c, 0, 91, 40
1, 102110, Note_off_c, 0, 99, 53
1, 102346, Control_c, 0, 64, 123
1, 102361, Control_c, 0, 64, 116
1, 102363, Note_on_c, 0, 60, 32
1, 102367, Note_on_c, 0, 56, 31
1, 102376, Control_c, 0, 64, 111
1, 102383, Note_on_c, 0, 96, 38
1, 102385, Note_on_c, 0, 68, 31
1, 102391, Control_c, 0, 64, 108
1, 102406, Control_c, 0, 64, 102
1, 102420, Control_c, 0, 64, 96
1, 102443, Control_c, 0, 64, 86
1, 102458, Control_c, 0, 64, 74
1, 102473, Control_c, 0, 64, 64
1, 102488, Control_c, 0, 64, 48
1, 102503, Control_c, 0, 64, 36
1, 102518, Control_c, 0, 64, 39
1, 102527, Note_on_c, 0, 99, 48
1, 102530, Note_off_c, 0, 91, 30
1, 102533, Control_c, 0, 64, 46
1, 102547, Note_off_c, 0, 96, 41
1, 102547, Control_c, 0, 64, 54
1, 102562, Control_c, 0, 64, 59
1, 102577, Control_c, 0, 64, 63
1, 102592, Control_c, 0, 64, 67
1, 102607, Control_c, 0, 64, 73
1, 102619, Note_off_c, 0, 99, 61
1, 102622, Control_c, 0, 64, 84
1, 102634, Note_on_c, 0, 92, 53
1, 102637, Control_c, 0, 64, 111
1, 102651, Control_c, 0, 64, 127
1, 102688, Note_off_c, 0, 92, 60
1, 102734, Note_on_c, 0, 96, 57
1, 102785, Note_off_c, 0, 96, 61
1, 102843, Note_on_c, 0, 87, 51
1, 102899, Note_off_c, 0, 87, 59
1, 102924, Note_on_c, 0, 92, 59
1, 102974, Note_off_c, 0, 92, 60
1, 103013, Note_on_c, 0, 84, 52
1, 103051, Note_off_c, 0, 84, 59
1, 103105, Note_on_c, 0, 87, 54
1, 103167, Note_off_c, 0, 87, 48
1, 103192, Note_on_c, 0, 80, 59
1, 103235, Note_off_c, 0, 80, 61
1, 103292, Note_on_c, 0, 84, 60
1, 103371, Note_off_c, 0, 84, 53
1, 103386, Note_on_c, 0, 75, 58
1, 103393, Note_off_c, 0, 68, 38
1, 103455, Note_off_c, 0, 75, 62
1, 103475, Note_on_c, 0, 80, 56
1, 103529, Note_off_c, 0, 80, 59
1, 103565, Note_on_c, 0, 72, 60
1, 103582, Note_off_c, 0, 63, 38
1, 103606, Note_off_c, 0, 72, 57
1, 103634, Note_off_c, 0, 60, 35
1, 103662, Note_on_c, 0, 75, 53
1, 103717, Note_off_c, 0, 75, 54
1, 103745, Note_on_c, 0, 68, 53
1, 103790, Note_off_c, 0, 68, 59
1, 103847, Note_on_c, 0, 72, 47
1, 103859, Note_off_c, 0, 56, 37
1, 103943, Note_on_c, 0, 63, 55
1, 103960, Note_off_c, 0, 72, 38
1, 104009, Note_off_c, 0, 63, 60
1, 104038, Note_on_c, 0, 68, 53
1, 104081, Note_off_c, 0, 68, 60
1, 104121, Note_on_c, 0, 60, 55
1, 104160, Note_off_c, 0, 60, 60
1, 104236, Note_on_c, 0, 63, 42
1, 104304, Note_on_c, 0, 56, 44
1, 104374, Note_off_c, 0, 56, 48
1, 104386, Note_on_c, 0, 60, 43
1, 104467, Note_off_c, 0, 60, 56
1, 104483, Note_on_c, 0, 51, 49
1, 104518, Note_off_c, 0, 63, 37
1, 104579, Note_on_c, 0, 56, 41
1, 104628, Note_off_c, 0, 51, 28
1, 104669, Note_on_c, 0, 60, 39
1, 104733, Note_off_c, 0, 56, 35
1, 104756, Note_on_c, 0, 63, 42
1, 104847, Note_off_c, 0, 60, 42
1, 104857, Note_on_c, 0, 51, 40
1, 104915, Note_on_c, 0, 56, 41
1, 104941, Note_off_c, 0, 63, 29
1, 105023, Note_on_c, 0, 60, 35
1, 105025, Note_off_c, 0, 51, 31
1, 105093, Note_on_c, 0, 63, 38
1, 105093, Note_off_c, 0, 56, 41
1, 105212, Note_on_c, 0, 51, 44
1, 105225, Note_off_c, 0, 60, 37
1, 105280, Note_on_c, 0, 56, 43
1, 105318, Note_off_c, 0, 63, 30
1, 105384, Note_on_c, 0, 60, 43
1, 105398, Note_off_c, 0, 51, 41
1, 105447, Note_off_c, 0, 56, 54
1, 105484, Note_on_c, 0, 63, 39
1, 105595, Note_on_c, 0, 51, 41
1, 105610, Note_off_c, 0, 60, 36
1, 105659, Note_off_c, 0, 63, 30
1, 105661, Note_on_c, 0, 56, 43
1, 105776, Note_on_c, 0, 60, 45
1, 105784, Note_off_c, 0, 51, 34
1, 105842, Note_off_c, 0, 56, 36
1, 105854, Note_on_c, 0, 63, 27
1, 105979, Note_on_c, 0, 51, 41
1, 105999, Note_off_c, 0, 60, 33
1, 106034, Note_off_c, 0, 63, 39
1, 106061, Note_on_c, 0, 56, 32
1, 106166, Note_on_c, 0, 60, 35
1, 106174, Note_off_c, 0, 51, 39
1, 106260, Note_off_c, 0, 56, 40
1, 106272, Note_on_c, 0, 63, 37
1, 106381, Note_on_c, 0, 51, 43
1, 106429, Note_off_c, 0, 60, 38
1, 106453, Note_on_c, 0, 56, 41
1, 106495, Note_off_c, 0, 63, 26
1, 106584, Note_on_c, 0, 60, 39
1, 106595, Note_off_c, 0, 51, 38
1, 106650, Note_off_c, 0, 56, 40
1, 106682, Note_on_c, 0, 63, 21
1, 106806, Note_on_c, 0, 51, 36
1, 106884, Note_on_c, 0, 56, 37
1, 107002, Note_off_c, 0, 63, 32
1, 107046, Note_off_c, 0, 60, 33
1, 107068, Control_c, 0, 64, 123
1, 107083, Control_c, 0, 64, 114
1, 107091, Note_on_c, 0, 32, 50
1, 107093, Note_on_c, 0, 44, 48
1, 107093, Note_on_c, 0, 59, 38
1, 107097, Control_c, 0, 64, 110
1, 107112, Control_c, 0, 64, 107
1, 107127, Control_c, 0, 64, 103
1, 107135, Note_off_c, 0, 51, 38
1, 107141, Control_c, 0, 64, 99
1, 107156, Control_c, 0, 64, 93
1, 107171, Control_c, 0, 64, 89
1, 107174, Note_off_c, 0, 56, 38
1, 107186, Control_c, 0, 64, 84
1, 107201, Control_c, 0, 64, 80
1, 107216, Control_c, 0, 64, 75
1, 107230, Control_c, 0, 64, 70
1, 107246, Control_c, 0, 64, 62
1, 107261, Control_c, 0, 64, 48
1, 107276, Control_c, 0, 64, 30
1, 107291, Control_c, 0, 64, 28
1, 107306, Control_c, 0, 64, 28
1, 107319, Poly_aftertouch_c, 0, 63, 127
1, 107320, Control_c, 0, 64, 33
1, 107329, Note_on_c, 0, 51, 37
1, 107335, Control_c, 0, 64, 41
1, 107350, Control_c, 0, 64, 49
1, 107364, Note_off_c, 0, 59, 33
1, 107365, Control_c, 0, 64, 55
1, 107380, Control_c, 0, 64, 59
1, 107394, Control_c, 0, 64, 62
1, 107409, Control_c, 0, 64, 65
1, 107417, Note_on_c, 0, 56, 32
1, 107424, Control_c, 0, 64, 70
1, 107428, Poly_aftertouch_c, 0, 63, 0
1, 107439, Control_c, 0, 64, 79
1, 107454, Control_c, 0, 64, 92
1, 107469, Control_c, 0, 64, 121
1, 107484, Control_c, 0, 64, 127
1, 107522, Note_on_c, 0, 59, 39
1, 107531, Note_off_c, 0, 51, 40
1, 107570, Note_off_c, 0, 32, 32
1, 107594, Note_off_c, 0, 56, 42
1, 107618, Note_off_c, 0, 44, 55
1, 107627, Note_on_c, 0, 63, 24
1, 107715, Note_off_c, 0, 59, 36
1, 107743, Note_on_c, 0, 51, 38
1, 107801, Note_on_c, 0, 56, 41
1, 107844, Note_off_c, 0, 63, 36
1, 107893, Note_on_c, 0, 59, 41
1, 107920, Note_off_c, 0, 51, 27
1, 107985, Note_off_c, 0, 56, 41
1, 107997, Note_on_c, 0, 63, 36
1, 108073, Note_off_c, 0, 59, 47
1, 108104, Note_on_c, 0, 51, 37
1, 108174, Note_on_c, 0, 56, 40
1, 108238, Note_off_c, 0, 63, 39
1, 108312, Note_on_c, 0, 71, 55
1, 108324, Note_on_c, 0, 68, 45
1, 108330, Note_on_c, 0, 59, 41
1, 108343, Note_off_c, 0, 51, 34
1, 108388, Note_on_c, 0, 63, 33
1, 108510, Note_off_c, 0, 59, 38
1, 108539, Note_on_c, 0, 73, 72
1, 108554, Note_on_c, 0, 61, 48
1, 108558, Note_on_c, 0, 70, 53
1, 108581, Note_off_c, 0, 63, 0
1, 108593, Note_off_c, 0, 56, 37
1, 108608, Note_off_c, 0, 71, 55
1, 108618, Poly_aftertouch_c, 0, 63, 127
1, 108685, Control_c, 0, 64, 117
1, 108700, Control_c, 0, 64, 112
1, 108715, Control_c, 0, 64, 108
1, 108728, Poly_aftertouch_c, 0, 63, 0
1, 108729, Control_c, 0, 64, 105
1, 108744, Control_c, 0, 64, 101
1, 108758, Note_off_c, 0, 61, 35
1, 108759, Control_c, 0, 64, 98
1, 108763, Note_off_c, 0, 70, 28
1, 108774, Control_c, 0, 64, 95
1, 108779, Note_on_c, 0, 75, 69
1, 108785, Note_on_c, 0, 59, 37
1, 108788, Control_c, 0, 64, 93
1, 108789, Note_on_c, 0, 71, 52
1, 108803, Control_c, 0, 64, 90
1, 108818, Control_c, 0, 64, 87
1, 108834, Control_c, 0, 64, 83
1, 108837, Note_off_c, 0, 68, 35
1, 108849, Control_c, 0, 64, 80
1, 108853, Note_on_c, 0, 63, 41
1, 108864, Control_c, 0, 64, 77
1, 108878, Control_c, 0, 64, 75
1, 108882, Note_off_c, 0, 73, 57
1, 108893, Control_c, 0, 64, 73
1, 108908, Control_c, 0, 64, 70
1, 108923, Control_c, 0, 64, 68
1, 108925, Note_off_c, 0, 59, 36
1, 108938, Control_c, 0, 64, 66
1, 108953, Control_c, 0, 64, 64
1, 108967, Control_c, 0, 64, 61
1, 108982, Control_c, 0, 64, 56
1, 108992, Note_on_c, 0, 51, 33
1, 108997, Control_c, 0, 64, 50
1, 109011, Control_c, 0, 64, 45
1, 109026, Control_c, 0, 64, 40
1, 109066, Note_off_c, 0, 63, 37
1, 109070, Note_on_c, 0, 56, 32
1, 109071, Control_c, 0, 64, 42
1, 109085, Control_c, 0, 64, 46
1, 109100, Control_c, 0, 64, 52
1, 109102, Note_off_c, 0, 51, 35
1, 109115, Control_c, 0, 64, 59
1, 109125, Note_off_c, 0, 71, 38
1, 109130, Control_c, 0, 64, 63
1, 109145, Control_c, 0, 64, 65
1, 109152, Note_on_c, 0, 59, 36
1, 109159, Control_c, 0, 64, 70
1, 109172, Note_off_c, 0, 75, 59
1, 109174, Control_c, 0, 64, 77
1, 109187, Note_off_c, 0, 56, 35
1, 109197, Control_c, 0, 64, 89
1, 109211, Control_c, 0, 64, 112
1, 109226, Control_c, 0, 64, 127
1, 109271, Note_on_c, 0, 63, 28
1, 109311, Note_off_c, 0, 59, 37
1, 109348, Note_on_c, 0, 51, 41
1, 109412, Note_off_c, 0, 51, 51
1, 109418, Note_on_c, 0, 56, 39
1, 109462, Note_off_c, 0, 63, 26
1, 109532, Note_on_c, 0, 59, 42
1, 109616, Note_off_c, 0, 56, 39
1, 109617, Note_on_c, 0, 63, 22
1, 109631, Note_off_c, 0, 59, 51
1, 109708, Note_off_c, 0, 63, 38
1, 109731, Control_c, 0, 64, 123
1, 109741, Note_on_c, 0, 47, 60
1, 109746, Control_c, 0, 64, 121
1, 109749, Note_on_c, 0, 59, 37
1, 109761, Control_c, 0, 64, 119
1, 109769, Note_on_c, 0, 51, 44
1, 109790, Control_c, 0, 64, 118
1, 109805, Control_c, 0, 64, 117
1, 109820, Control_c, 0, 64, 115
1, 109834, Control_c, 0, 64, 113
1, 109849, Control_c, 0, 64, 113
1, 109864, Control_c, 0, 64, 112
1, 109879, Control_c, 0, 64, 111
1, 109890, Note_off_c, 0, 59, 36
1, 109894, Control_c, 0, 64, 108
1, 109905, Poly_aftertouch_c, 0, 63, 127
1, 109908, Control_c, 0, 64, 98
1, 109923, Control_c, 0, 64, 83
1, 109941, Note_off_c, 0, 51, 0
1, 109946, Control_c, 0, 64, 70
1, 109952, Note_on_c, 0, 46, 61
1, 109957, Note_on_c, 0, 61, 48
1, 109961, Control_c, 0, 64, 60
1, 109968, Poly_aftertouch_c, 0, 63, 0
1, 109976, Control_c, 0, 64, 54
1, 109978, Poly_aftertouch_c, 0, 51, 127
1, 109985, Note_on_c, 0, 55, 35
1, 109990, Control_c, 0, 64, 56
1, 110005, Control_c, 0, 64, 59
1, 110020, Control_c, 0, 64, 62
1, 110034, Control_c, 0, 64, 65
1, 110049, Control_c, 0, 64, 71
1, 110056, Note_off_c, 0, 47, 54
1, 110064, Control_c, 0, 64, 80
1, 110072, Poly_aftertouch_c, 0, 63, 127
1, 110079, Control_c, 0, 64, 99
1, 110094, Control_c, 0, 64, 127
1, 110123, Poly_aftertouch_c, 0, 63, 0
1, 110132, Note_off_c, 0, 61, 36
1, 110138, Control_c, 0, 64, 87
1, 110143, Note_on_c, 0, 44, 72
1, 110153, Control_c, 0, 64, 69
1, 110155, Note_off_c, 0, 55, 27
1, 110158, Note_on_c, 0, 59, 53
1, 110168, Control_c, 0, 64, 58
1, 110182, Control_c, 0, 64, 53
1, 110187, Note_on_c, 0, 56, 30
1, 110197, Control_c, 0, 64, 57
1, 110212, Control_c, 0, 64, 63
1, 110223, Note_off_c, 0, 59, 58
1, 110227, Control_c, 0, 64, 67
1, 110230, Note_off_c, 0, 56, 52
1, 110232, Note_off_c, 0, 46, 61
1, 110241, Control_c, 0, 64, 75
1, 110251, Note_on_c, 0, 63, 45
1, 110256, Control_c, 0, 64, 89
1, 110271, Control_c, 0, 64, 127
1, 110347, Note_off_c, 0, 63, 55
1, 110381, Note_on_c, 0, 39, 65
1, 110384, Note_on_c, 0, 58, 50
1, 110405, Control_c, 0, 64, 117
1, 110420, Control_c, 0, 64, 96
1, 110431, Poly_aftertouch_c, 0, 51, 0
1, 110435, Control_c, 0, 64, 82
1, 110450, Control_c, 0, 64, 70
1, 110456, Note_on_c, 0, 55, 3
1, 110460, Note_off_c, 0, 44, 56
1, 110465, Control_c, 0, 64, 58
1, 110480, Control_c, 0, 64, 24
1, 110494, Control_c, 0, 64, 0
1, 110495, Note_off_c, 0, 55, 50
1, 110514, Note_on_c, 0, 63, 34
1, 110542, Note_off_c, 0, 58, 54
1, 110575, Note_on_c, 0, 51, 43
1, 110613, Control_c, 0, 64, 11
1, 110628, Control_c, 0, 64, 32
1, 110643, Control_c, 0, 64, 45
1, 110657, Control_c, 0, 64, 55
1, 110679, Control_c, 0, 64, 60
1, 110681, Note_on_c, 0, 55, 27
1, 110694, Control_c, 0, 64, 64
1, 110709, Control_c, 0, 64, 68
1, 110724, Control_c, 0, 64, 74
1, 110728, Note_off_c, 0, 63, 37
1, 110733, Note_off_c, 0, 39, 57
1, 110739, Control_c, 0, 64, 83
1, 110751, Note_off_c, 0, 51, 30
1, 110754, Control_c, 0, 64, 96
1, 110769, Control_c, 0, 64, 119
1, 110783, Control_c, 0, 64, 127
1, 110792, Note_on_c, 0, 58, 48
1, 110853, Note_off_c, 0, 55, 44
1, 110861, Note_on_c, 0, 63, 45
1, 110911, Note_off_c, 0, 58, 53
1, 110980, Note_on_c, 0, 51, 46
1, 110989, Control_c, 0, 64, 123
1, 111004, Control_c, 0, 64, 118
1, 111019, Control_c, 0, 64, 113
1, 111034, Control_c, 0, 64, 109
1, 111049, Control_c, 0, 64, 107
1, 111058, Note_on_c, 0, 55, 36
1, 111064, Control_c, 0, 64, 107
1, 111079, Control_c, 0, 64, 105
1, 111084, Note_off_c, 0, 51, 36
1, 111088, Note_off_c, 0, 63, 28
1, 111094, Control_c, 0, 64, 104
1, 111109, Control_c, 0, 64, 101
1, 111123, Control_c, 0, 64, 99
1, 111138, Control_c, 0, 64, 96
1, 111153, Control_c, 0, 64, 95
1, 111162, Note_on_c, 0, 58, 51
1, 111168, Control_c, 0, 64, 94
1, 111198, Note_off_c, 0, 55, 36
1, 111212, Control_c, 0, 64, 94
1, 111228, Control_c, 0, 64, 93
1, 111243, Control_c, 0, 64, 92
1, 111249, Note_on_c, 0, 63, 39
1, 111258, Control_c, 0, 64, 90
1, 111272, Control_c, 0, 64, 89
1, 111287, Control_c, 0, 64, 88
1, 111302, Control_c, 0, 64, 87
1, 111309, Note_off_c, 0, 58, 33
1, 111317, Control_c, 0, 64, 87
1, 111332, Control_c, 0, 64, 85
1, 111344, Note_on_c, 0, 51, 46
1, 111346, Control_c, 0, 64, 84
1, 111361, Control_c, 0, 64, 83
1, 111376, Control_c, 0, 64, 82
1, 111391, Control_c, 0, 64, 81
1, 111405, Control_c, 0, 64, 80
1, 111413, Note_off_c, 0, 63, 35
1, 111426, Note_on_c, 0, 55, 40
1, 111428, Control_c, 0, 64, 78
1, 111442, Control_c, 0, 64, 75
1, 111457, Control_c, 0, 64, 73
1, 111472, Control_c, 0, 64, 69
1, 111487, Control_c, 0, 64, 66
1, 111502, Control_c, 0, 64, 65
1, 111517, Control_c, 0, 64, 65
1, 111526, Note_off_c, 0, 51, 23
1, 111532, Control_c, 0, 64, 66
1, 111532, Note_on_c, 0, 73, 62
1, 111535, Note_on_c, 0, 70, 53
1, 111547, Control_c, 0, 64, 67
1, 111554, Note_on_c, 0, 58, 49
1, 111561, Control_c, 0, 64, 68
1, 111576, Control_c, 0, 64, 71
1, 111591, Control_c, 0, 64, 76
1, 111598, Note_off_c, 0, 55, 30
1, 111605, Control_c, 0, 64, 83
1, 111620, Control_c, 0, 64, 94
1, 111624, Note_on_c, 0, 63, 46
1, 111635, Control_c, 0, 64, 127
1, 111647, Note_off_c, 0, 58, 54
1, 111723, Note_off_c, 0, 63, 54
1, 111753, Note_off_c, 0, 73, 0
1, 111753, Note_on_c, 0, 73, 16
1, 111759, Note_on_c, 0, 76, 77
1, 111772, Note_on_c, 0, 61, 53
1, 111859, Note_on_c, 0, 63, 43
1, 111864, Note_off_c, 0, 70, 59
1, 111914, Note_off_c, 0, 73, 44
1, 111917, Control_c, 0, 64, 109
1, 111928, Note_off_c, 0, 63, 54
1, 111932, Control_c, 0, 64, 102
1, 111947, Control_c, 0, 64, 97
1, 111961, Control_c, 0, 64, 93
1, 111967, Note_off_c, 0, 61, 37
1, 111976, Control_c, 0, 64, 89
1, 111979, Note_on_c, 0, 75, 75
1, 111991, Control_c, 0, 64, 85
1, 112004, Note_on_c, 0, 71, 55
1, 112005, Note_on_c, 0, 59, 46
1, 112006, Control_c, 0, 64, 83
1, 112021, Control_c, 0, 64, 80
1, 112037, Control_c, 0, 64, 78
1, 112051, Control_c, 0, 64, 74
1, 112066, Control_c, 0, 64, 71
1, 112072, Note_on_c, 0, 63, 37
1, 112074, Note_off_c, 0, 76, 60
1, 112081, Control_c, 0, 64, 67
1, 112083, Note_off_c, 0, 59, 42
1, 112095, Control_c, 0, 64, 62
1, 112110, Control_c, 0, 64, 58
1, 112125, Control_c, 0, 64, 52
1, 112140, Control_c, 0, 64, 44
1, 112155, Control_c, 0, 64, 32
1, 112170, Control_c, 0, 64, 9
1, 112192, Control_c, 0, 64, 0
1, 112195, Note_on_c, 0, 51, 40
1, 112266, Control_c, 0, 64, 20
1, 112268, Note_off_c, 0, 63, 33
1, 112271, Note_on_c, 0, 56, 36
1, 112281, Control_c, 0, 64, 41
1, 112296, Control_c, 0, 64, 53
1, 112301, Note_off_c, 0, 51, 37
1, 112310, Control_c, 0, 64, 60
1, 112325, Control_c, 0, 64, 64
1, 112340, Note_off_c, 0, 71, 49
1, 112340, Control_c, 0, 64, 68
1, 112355, Control_c, 0, 64, 74
1, 112370, Control_c, 0, 64, 83
1, 112381, Note_on_c, 0, 59, 39
1, 112383, Note_off_c, 0, 75, 55
1, 112384, Control_c, 0, 64, 90
1, 112399, Control_c, 0, 64, 93
1, 112436, Note_off_c, 0, 56, 41
1, 112459, Control_c, 0, 64, 92
1, 112489, Control_c, 0, 64, 92
1, 112495, Note_on_c, 0, 63, 24
1, 112522, Note_off_c, 0, 59, 35
1, 112548, Control_c, 0, 64, 91
1, 112563, Control_c, 0, 64, 91
1, 112577, Control_c, 0, 64, 90
1, 112587, Note_on_c, 0, 51, 37
1, 112607, Control_c, 0, 64, 90
1, 112656, Note_on_c, 0, 56, 35
1, 112659, Note_off_c, 0, 63, 34
1, 112723, Note_off_c, 0, 51, 25
1, 112740, Control_c, 0, 64, 89
1, 112780, Note_on_c, 0, 59, 34
1, 112784, Control_c, 0, 64, 89
1, 112834, Note_off_c, 0, 56, 39
1, 112870, Note_on_c, 0, 63, 32
1, 112894, Note_off_c, 0, 59, 45
1, 112963, Note_on_c, 0, 51, 35
1, 112986, Control_c, 0, 64, 88
1, 113015, Control_c, 0, 64, 88
1, 113025, Note_off_c, 0, 51, 41
1, 113030, Control_c, 0, 64, 87
1, 113034, Note_on_c, 0, 56, 39
1, 113074, Control_c, 0, 64, 87
1, 113083, Note_off_c, 0, 63, 32
1, 113089, Control_c, 0, 64, 86
1, 113104, Control_c, 0, 64, 85
1, 113119, Control_c, 0, 64, 83
1, 113133, Control_c, 0, 64, 78
1, 113148, Control_c, 0, 64, 72
1, 113163, Control_c, 0, 64, 66
1, 113171, Note_on_c, 0, 47, 51
1, 113177, Note_on_c, 0, 59, 30
1, 113178, Control_c, 0, 64, 60
1, 113193, Control_c, 0, 64, 56
1, 113198, Note_on_c, 0, 51, 38
1, 113207, Control_c, 0, 64, 57
1, 113222, Control_c, 0, 64, 59
1, 113237, Control_c, 0, 64, 61
1, 113252, Control_c, 0, 64, 63
1, 113267, Control_c, 0, 64, 65
1, 113282, Control_c, 0, 64, 68
1, 113289, Note_off_c, 0, 59, 51
1, 113297, Control_c, 0, 64, 72
1, 113311, Control_c, 0, 64, 80
1, 113326, Control_c, 0, 64, 87
1, 113341, Control_c, 0, 64, 91
1, 113351, Poly_aftertouch_c, 0, 63, 0
1, 113355, Note_off_c, 0, 56, 34
1, 113356, Control_c, 0, 64, 89
1, 113371, Control_c, 0, 64, 82
1, 113380, Note_on_c, 0, 61, 39
1, 113386, Control_c, 0, 64, 72
1, 113390, Note_on_c, 0, 46, 43
1, 113398, Note_off_c, 0, 47, 56
1, 113399, Note_on_c, 0, 55, 32
1, 113400, Control_c, 0, 64, 62
1, 113415, Control_c, 0, 64, 53
1, 113430, Control_c, 0, 64, 54
1, 113444, Control_c, 0, 64, 57
1, 113459, Control_c, 0, 64, 60
1, 113474, Control_c, 0, 64, 63
1, 113489, Control_c, 0, 64, 65
1, 113504, Control_c, 0, 64, 68
1, 113512, Poly_aftertouch_c, 0, 63, 127
1, 113518, Control_c, 0, 64, 71
1, 113533, Control_c, 0, 64, 74
1, 113548, Control_c, 0, 64, 74
1, 113550, Poly_aftertouch_c, 0, 63, 0
1, 113577, Control_c, 0, 64, 74
1, 113579, Note_off_c, 0, 55, 40
1, 113580, Note_off_c, 0, 61, 32
1, 113592, Control_c, 0, 64, 73
1, 113602, Note_off_c, 0, 46, 31
1, 113607, Control_c, 0, 64, 72
1, 113618, Note_on_c, 0, 44, 40
1, 113618, Note_on_c, 0, 59, 42
1, 113623, Control_c, 0, 64, 71
1, 113636, Note_on_c, 0, 56, 17
1, 113638, Control_c, 0, 64, 69
1, 113653, Control_c, 0, 64, 64
1, 113658, Note_off_c, 0, 51, 28
1, 113668, Control_c, 0, 64, 54
1, 113690, Control_c, 0, 64, 37
1, 113705, Control_c, 0, 64, 23
1, 113717, Note_off_c, 0, 56, 39
1, 113720, Control_c, 0, 64, 22
1, 113728, Note_on_c, 0, 63, 12
1, 113764, Control_c, 0, 64, 25
1, 113779, Control_c, 0, 64, 32
1, 113794, Control_c, 0, 64, 40
1, 113803, Note_off_c, 0, 59, 54
1, 113809, Control_c, 0, 64, 48
1, 113824, Control_c, 0, 64, 54
1, 113838, Control_c, 0, 64, 58
1, 113840, Note_on_c, 0, 51, 41
1, 113853, Control_c, 0, 64, 62
1, 113868, Control_c, 0, 64, 65
1, 113882, Control_c, 0, 64, 68
1, 113897, Control_c, 0, 64, 73
1, 113912, Control_c, 0, 64, 79
1, 113927, Control_c, 0, 64, 85
1, 113928, Note_on_c, 0, 56, 40
1, 113940, Control_c, 0, 64, 91
1, 113943, Note_off_c, 0, 63, 30
1, 113955, Control_c, 0, 64, 98
1, 113970, Control_c, 0, 64, 103
1, 113985, Control_c, 0, 64, 107
1, 113985, Note_off_c, 0, 44, 39
1, 113985, Note_off_c, 0, 51, 28
1, 114000, Control_c, 0, 64, 110
1, 114015, Control_c, 0, 64, 110
1, 114023, Note_on_c, 0, 59, 34
1, 114029, Control_c, 0, 64, 111
1, 114084, Note_off_c, 0, 56, 35
1, 114103, Control_c, 0, 64, 110
1, 114108, Note_on_c, 0, 63, 31
1, 114118, Control_c, 0, 64, 110
1, 114133, Control_c, 0, 64, 109
1, 114162, Control_c, 0, 64, 108
1, 114177, Control_c, 0, 64, 107
1, 114191, Control_c, 0, 64, 107
1, 114205, Note_off_c, 0, 59, 39
1, 114221, Control_c, 0, 64, 106
1, 114230, Note_on_c, 0, 51, 36
1, 114236, Control_c, 0, 64, 106
1, 114251, Control_c, 0, 64, 105
1, 114303, Note_on_c, 0, 56, 35
1, 114310, Note_off_c, 0, 51, 36
1, 114316, Note_off_c, 0, 63, 32
1, 114385, Control_c, 0, 64, 106
1, 114399, Control_c, 0, 64, 106
1, 114423, Control_c, 0, 64, 107
1, 114426, Note_on_c, 0, 59, 35
1, 114439, Note_off_c, 0, 56, 34
1, 114511, Control_c, 0, 64, 107
1, 114516, Note_off_c, 0, 59, 43
1, 114526, Control_c, 0, 64, 108
1, 114528, Note_on_c, 0, 63, 31
1, 114571, Control_c, 0, 64, 109
1, 114600, Control_c, 0, 64, 110
1, 114610, Note_on_c, 0, 51, 35
1, 114615, Control_c, 0, 64, 110
1, 114629, Control_c, 0, 64, 111
1, 114638, Note_off_c, 0, 63, 31
1, 114644, Control_c, 0, 64, 112
1, 114674, Note_on_c, 0, 56, 37
1, 114748, Note_off_c, 0, 51, 25
1, 114795, Note_on_c, 0, 59, 39
1, 114823, Note_on_c, 0, 71, 54
1, 114826, Note_on_c, 0, 68, 40
1, 114831, Note_off_c, 0, 56, 29
1, 114879, Note_off_c, 0, 59, 58
1, 114899, Note_on_c, 0, 63, 45
1, 114911, Control_c, 0, 64, 111
1, 114926, Control_c, 0, 64, 111
1, 114942, Note_off_c, 0, 63, 60
1, 115000, Control_c, 0, 64, 110
1, 115015, Control_c, 0, 64, 106
1, 115029, Control_c, 0, 64, 95
1, 115044, Control_c, 0, 64, 79
1, 115050, Note_on_c, 0, 73, 72
1, 115054, Note_on_c, 0, 61, 52
1, 115056, Note_on_c, 0, 70, 58
1, 115059, Control_c, 0, 64, 65
1, 115061, Note_on_c, 0, 54, 44
1, 115074, Control_c, 0, 64, 49
1, 115089, Control_c, 0, 64, 41
1, 115094, Note_off_c, 0, 71, 59
1, 115103, Control_c, 0, 64, 43
1, 115118, Control_c, 0, 64, 49
1, 115133, Control_c, 0, 64, 57
1, 115148, Control_c, 0, 64, 62
1, 115170, Control_c, 0, 64, 67
1, 115185, Control_c, 0, 64, 74
1, 115200, Control_c, 0, 64, 86
1, 115211, Note_off_c, 0, 61, 38
1, 115215, Control_c, 0, 64, 127
1, 115219, Note_on_c, 0, 66, 37
1, 115272, Note_off_c, 0, 66, 56
1, 115318, Note_on_c, 0, 75, 73
1, 115327, Note_on_c, 0, 71, 52
1, 115330, Note_off_c, 0, 70, 34
1, 115341, Note_on_c, 0, 63, 51
1, 115345, Note_off_c, 0, 68, 37
1, 115393, Poly_aftertouch_c, 0, 59, 127
1, 115400, Note_off_c, 0, 54, 43
1, 115408, Control_c, 0, 64, 113
1, 115413, Note_on_c, 0, 66, 40
1, 115423, Control_c, 0, 64, 110
1, 115438, Control_c, 0, 64, 105
1, 115444, Note_off_c, 0, 73, 57
1, 115446, Poly_aftertouch_c, 0, 59, 0
1, 115452, Control_c, 0, 64, 99
1, 115467, Control_c, 0, 64, 90
1, 115482, Control_c, 0, 64, 78
1, 115497, Control_c, 0, 64, 66
1, 115512, Control_c, 0, 64, 48
1, 115517, Note_off_c, 0, 63, 37
1, 115526, Control_c, 0, 64, 0
1, 115530, Note_on_c, 0, 54, 50
1, 115586, Control_c, 0, 64, 13
1, 115598, Note_off_c, 0, 71, 54
1, 115601, Control_c, 0, 64, 46
1, 115615, Note_on_c, 0, 59, 34
1, 115616, Control_c, 0, 64, 60
1, 115619, Note_off_c, 0, 66, 50
1, 115631, Control_c, 0, 64, 68
1, 115645, Control_c, 0, 64, 78
1, 115660, Control_c, 0, 64, 102
1, 115671, Note_off_c, 0, 75, 56
1, 115675, Control_c, 0, 64, 127
1, 115711, Note_off_c, 0, 54, 28
1, 115727, Note_on_c, 0, 63, 50
1, 115760, Note_off_c, 0, 59, 57
1, 115792, Note_on_c, 0, 66, 48
1, 115830, Note_off_c, 0, 63, 50
1, 115899, Note_on_c, 0, 54, 54
1, 115976, Note_on_c, 0, 59, 55
1, 115980, Note_off_c, 0, 54, 58
1, 116000, Note_off_c, 0, 66, 32
1, 116090, Note_on_c, 0, 63, 54
1, 116143, Note_off_c, 0, 59, 57
1, 116160, Note_on_c, 0, 66, 44
1, 116176, Note_off_c, 0, 63, 54
1, 116267, Note_off_c, 0, 66, 50
1, 116282, Note_on_c, 0, 51, 68
1, 116305, Note_on_c, 0, 54, 47
1, 116306, Note_on_c, 0, 63, 56
1, 116325, Note_on_c, 0, 59, 20
1, 116383, Note_off_c, 0, 59, 48
1, 116418, Note_on_c, 0, 66, 38
1, 116420, Note_off_c, 0, 63, 57
1, 116454, Control_c, 0, 64, 97
1, 116462, Note_off_c, 0, 66, 54
1, 116468, Control_c, 0, 64, 73
1, 116483, Control_c, 0, 64, 61
1, 116486, Note_on_c, 0, 49, 70
1, 116495, Note_on_c, 0, 64, 60
1, 116498, Control_c, 0, 64, 47
1, 116505, Note_on_c, 0, 58, 51
1, 116513, Control_c, 0, 64, 48
1, 116528, Control_c, 0, 64, 54
1, 116543, Control_c, 0, 64, 60
1, 116558, Control_c, 0, 64, 65
1, 116573, Control_c, 0, 64, 71
1, 116587, Control_c, 0, 64, 82
1, 116602, Control_c, 0, 64, 127
1, 116614, Note_off_c, 0, 58, 55
1, 116620, Note_off_c, 0, 51, 59
1, 116675, Note_on_c, 0, 47, 75
1, 116683, Control_c, 0, 64, 108
1, 116688, Note_on_c, 0, 63, 64
1, 116698, Control_c, 0, 64, 79
1, 116701, Note_on_c, 0, 59, 53
1, 116713, Control_c, 0, 64, 64
1, 116715, Note_off_c, 0, 64, 37
1, 116728, Control_c, 0, 64, 52
1, 116743, Control_c, 0, 64, 52
1, 116757, Control_c, 0, 64, 58
1, 116772, Control_c, 0, 64, 62
1, 116781, Note_off_c, 0, 59, 59
1, 116787, Control_c, 0, 64, 66
1, 116798, Note_off_c, 0, 63, 60
1, 116802, Control_c, 0, 64, 71
1, 116806, Note_on_c, 0, 66, 46
1, 116818, Control_c, 0, 64, 81
1, 116833, Control_c, 0, 64, 105
1, 116844, Note_off_c, 0, 49, 32
1, 116847, Control_c, 0, 64, 127
1, 116895, Note_on_c, 0, 42, 79
1, 116907, Note_off_c, 0, 66, 55
1, 116924, Note_on_c, 0, 61, 58
1, 116926, Note_on_c, 0, 58, 55
1, 116935, Note_off_c, 0, 54, 42
1, 116959, Note_off_c, 0, 47, 52
1, 117025, Control_c, 0, 64, 107
1, 117026, Note_off_c, 0, 58, 57
1, 117038, Note_on_c, 0, 66, 52
1, 117039, Control_c, 0, 64, 90
1, 117054, Control_c, 0, 64, 79
1, 117069, Control_c, 0, 64, 69
1, 117078, Note_off_c, 0, 61, 55
1, 117084, Control_c, 0, 64, 60
1, 117098, Control_c, 0, 64, 44
1, 117107, Note_on_c, 0, 54, 62
1, 117113, Control_c, 0, 64, 20
1, 117128, Control_c, 0, 64, 0
1, 117196, Note_on_c, 0, 58, 53
1, 117216, Control_c, 0, 64, 25
1, 117231, Control_c, 0, 64, 45
1, 117246, Control_c, 0, 64, 56
1, 117261, Note_off_c, 0, 54, 54
1, 117261, Control_c, 0, 64, 63
1, 117264, Note_off_c, 0, 66, 52
1, 117276, Control_c, 0, 64, 69
1, 117291, Note_off_c, 0, 42, 57
1, 117291, Control_c, 0, 64, 80
1, 117306, Control_c, 0, 64, 127
1, 117315, Note_on_c, 0, 61, 56
1, 117368, Note_off_c, 0, 58, 59
1, 117401, Note_on_c, 0, 66, 56
1, 117451, Note_off_c, 0, 61, 55
1, 117497, Note_on_c, 0, 54, 57
1, 117560, Note_on_c, 0, 58, 64
1, 117570, Note_off_c, 0, 66, 51
1, 117626, Note_off_c, 0, 54, 49
1, 117677, Note_on_c, 0, 61, 61
1, 117684, Control_c, 0, 64, 114
1, 117699, Control_c, 0, 64, 108
1, 117714, Control_c, 0, 64, 105
1, 117729, Control_c, 0, 64, 103
1, 117729, Note_off_c, 0, 58, 55
1, 117744, Control_c, 0, 64, 102
1, 117759, Control_c, 0, 64, 101
1, 117774, Control_c, 0, 64, 100
1, 117779, Note_on_c, 0, 66, 54
1, 117788, Control_c, 0, 64, 98
1, 117803, Control_c, 0, 64, 95
1, 117810, Note_off_c, 0, 61, 57
1, 117818, Control_c, 0, 64, 92
1, 117833, Control_c, 0, 64, 90
1, 117848, Control_c, 0, 64, 90
1, 117862, Control_c, 0, 64, 89
1, 117877, Note_on_c, 0, 54, 56
1, 117877, Control_c, 0, 64, 88
1, 117892, Control_c, 0, 64, 87
1, 117907, Control_c, 0, 64, 85
1, 117921, Control_c, 0, 64, 84
1, 117936, Control_c, 0, 64, 83
1, 117938, Note_on_c, 0, 58, 60
1, 117951, Control_c, 0, 64, 82
1, 117966, Control_c, 0, 64, 82
1, 117981, Control_c, 0, 64, 81
1, 117988, Note_off_c, 0, 66, 30
1, 117995, Control_c, 0, 64, 81
1, 118010, Control_c, 0, 64, 79
1, 118012, Note_off_c, 0, 54, 35
1, 118025, Control_c, 0, 64, 76
1, 118039, Control_c, 0, 64, 74
1, 118054, Control_c, 0, 64, 70
1, 118057, Note_on_c, 0, 76, 76
1, 118064, Note_on_c, 0, 73, 62
1, 118069, Control_c, 0, 64, 68
1, 118084, Note_on_c, 0, 61, 60
1, 118084, Control_c, 0, 64, 66
1, 118099, Control_c, 0, 64, 66
1, 118114, Control_c, 0, 64, 68
1, 118129, Control_c, 0, 64, 70
1, 118143, Control_c, 0, 64, 76
1, 118158, Control_c, 0, 64, 83
1, 118176, Note_on_c, 0, 66, 43
1, 118181, Control_c, 0, 64, 94
1, 118195, Control_c, 0, 64, 118
1, 118209, Note_off_c, 0, 61, 57
1, 118210, Control_c, 0, 64, 127
1, 118254, Note_off_c, 0, 58, 22
1, 118284, Note_on_c, 0, 80, 82
1, 118293, Note_off_c, 0, 66, 52
1, 118313, Note_on_c, 0, 64, 59
1, 118385, Note_off_c, 0, 73, 39
1, 118430, Note_on_c, 0, 66, 38
1, 118448, Control_c, 0, 64, 115
1, 118463, Control_c, 0, 64, 110
1, 118477, Control_c, 0, 64, 104
1, 118492, Control_c, 0, 64, 100
1, 118498, Note_off_c, 0, 76, 40
1, 118507, Control_c, 0, 64, 96
1, 118522, Control_c, 0, 64, 93
1, 118533, Note_off_c, 0, 66, 49
1, 118536, Note_on_c, 0, 78, 74
1, 118537, Control_c, 0, 64, 90
1, 118552, Control_c, 0, 64, 87
1, 118564, Note_on_c, 0, 63, 53
1, 118565, Note_on_c, 0, 75, 50
1, 118567, Control_c, 0, 64, 84
1, 118570, Note_off_c, 0, 64, 36
1, 118582, Control_c, 0, 64, 82
1, 118597, Control_c, 0, 64, 80
1, 118611, Control_c, 0, 64, 78
1, 118626, Control_c, 0, 64, 77
1, 118641, Control_c, 0, 64, 75
1, 118653, Note_on_c, 0, 66, 42
1, 118656, Control_c, 0, 64, 74
1, 118670, Control_c, 0, 64, 71
1, 118685, Control_c, 0, 64, 68
1, 118700, Control_c, 0, 64, 62
1, 118705, Note_off_c, 0, 80, 56
1, 118715, Control_c, 0, 64, 55
1, 118720, Note_off_c, 0, 63, 41
1, 118730, Control_c, 0, 64, 47
1, 118744, Control_c, 0, 64, 40
1, 118759, Control_c, 0, 64, 32
1, 118772, Note_on_c, 0, 54, 47
1, 118774, Control_c, 0, 64, 24
1, 118789, Control_c, 0, 64, 23
1, 118804, Control_c, 0, 64, 24
1, 118818, Control_c, 0, 64, 32
1, 118833, Control_c, 0, 64, 44
1, 118848, Control_c, 0, 64, 53
1, 118853, Note_on_c, 0, 59, 43
1, 118860, Note_off_c, 0, 66, 35
1, 118862, Control_c, 0, 64, 59
1, 118877, Control_c, 0, 64, 63
1, 118892, Control_c, 0, 64, 67
1, 118904, Note_off_c, 0, 54, 35
1, 118915, Control_c, 0, 64, 72
1, 118924, Note_off_c, 0, 75, 40
1, 118930, Control_c, 0, 64, 81
1, 118942, Note_off_c, 0, 78, 61
1, 118944, Control_c, 0, 64, 94
1, 118959, Control_c, 0, 64, 116
1, 118968, Note_on_c, 0, 63, 42
1, 118974, Control_c, 0, 64, 127
1, 118994, Note_off_c, 0, 59, 50
1, 119029, Note_on_c, 0, 66, 34
1, 119107, Note_off_c, 0, 63, 36
1, 119151, Note_on_c, 0, 54, 44
1, 119217, Note_off_c, 0, 54, 54
1, 119238, Note_on_c, 0, 59, 37
1, 119256, Control_c, 0, 64, 123
1, 119271, Control_c, 0, 64, 119
1, 119282, Note_off_c, 0, 66, 31
1, 119286, Control_c, 0, 64, 117
1, 119300, Control_c, 0, 64, 115
1, 119345, Control_c, 0, 64, 114
1, 119350, Note_on_c, 0, 63, 42
1, 119387, Note_off_c, 0, 59, 38
1, 119390, Control_c, 0, 64, 113
1, 119419, Control_c, 0, 64, 113
1, 119438, Note_on_c, 0, 66, 40
1, 119449, Control_c, 0, 64, 112
1, 119493, Control_c, 0, 64, 111
1, 119503, Note_off_c, 0, 63, 33
1, 119508, Note_on_c, 0, 54, 41
1, 119508, Control_c, 0, 64, 111
1, 119523, Control_c, 0, 64, 110
1, 119538, Control_c, 0, 64, 109
1, 119553, Control_c, 0, 64, 107
1, 119565, Note_off_c, 0, 54, 51
1, 119567, Control_c, 0, 64, 106
1, 119582, Control_c, 0, 64, 105
1, 119591, Note_on_c, 0, 59, 42
1, 119597, Control_c, 0, 64, 104
1, 119612, Control_c, 0, 64, 104
1, 119627, Control_c, 0, 64, 103
1, 119641, Control_c, 0, 64, 102
1, 119656, Control_c, 0, 64, 100
1, 119676, Note_off_c, 0, 66, 33
1, 119679, Control_c, 0, 64, 97
1, 119693, Control_c, 0, 64, 92
1, 119708, Control_c, 0, 64, 84
1, 119723, Control_c, 0, 64, 77
1, 119730, Note_on_c, 0, 63, 38
1, 119738, Control_c, 0, 64, 70
1, 119738, Note_on_c, 0, 51, 52
1, 119753, Control_c, 0, 64, 66
1, 119760, Note_on_c, 0, 54, 28
1, 119767, Control_c, 0, 64, 65
1, 119782, Control_c, 0, 64, 66
1, 119797, Control_c, 0, 64, 68
1, 119812, Control_c, 0, 64, 71
1, 119822, Note_off_c, 0, 59, 26
1, 119827, Control_c, 0, 64, 77
1, 119841, Control_c, 0, 64, 84
1, 119847, Poly_aftertouch_c, 0, 66, 127
1, 119856, Control_c, 0, 64, 94
1, 119867, Note_off_c, 0, 63, 35
1, 119871, Control_c, 0, 64, 108
1, 119885, Control_c, 0, 64, 127
1, 119900, Control_c, 0, 64, 117
1, 119915, Control_c, 0, 64, 97
1, 119931, Control_c, 0, 64, 80
1, 119945, Note_on_c, 0, 49, 43
1, 119946, Control_c, 0, 64, 68
1, 119947, Poly_aftertouch_c, 0, 66, 0
1, 119950, Note_on_c, 0, 64, 32
1, 119961, Control_c, 0, 64, 60
1, 119970, Note_on_c, 0, 58, 27
1, 119975, Control_c, 0, 64, 57
1, 119977, Note_off_c, 0, 51, 55
1, 119990, Control_c, 0, 64, 60
1, 120005, Control_c, 0, 64, 63
1, 120021, Control_c, 0, 64, 66
1, 120036, Control_c, 0, 64, 69
1, 120051, Control_c, 0, 64, 73
1, 120065, Control_c, 0, 64, 78
1, 120080, Control_c, 0, 64, 84
1, 120095, Control_c, 0, 64, 87
1, 120124, Control_c, 0, 64, 86
1, 120139, Control_c, 0, 64, 86
1, 120141, Note_off_c, 0, 58, 28
1, 120154, Control_c, 0, 64, 85
1, 120160, Note_off_c, 0, 64, 36
1, 120169, Control_c, 0, 64, 84
1, 120184, Control_c, 0, 64, 83
1, 120187, Note_off_c, 0, 49, 32
1, 120193, Note_on_c, 0, 47, 38
1, 120195, Note_on_c, 0, 63, 38
1, 120198, Control_c, 0, 64, 82
1, 120199, Note_on_c, 0, 59, 22
1, 120213, Control_c, 0, 64, 81
1, 120228, Control_c, 0, 64, 78
1, 120243, Control_c, 0, 64, 72
1, 120258, Control_c, 0, 64, 66
1, 120267, Note_off_c, 0, 54, 43
1, 120272, Control_c, 0, 64, 59
1, 120287, Control_c, 0, 64, 41
1, 120302, Control_c, 0, 64, 32
1, 120323, Note_on_c, 0, 66, 11
1, 120343, Note_off_c, 0, 59, 27
1, 120361, Control_c, 0, 64, 36
1, 120376, Control_c, 0, 64, 45
1, 120383, Note_off_c, 0, 63, 32
1, 120391, Control_c, 0, 64, 53
1, 120394, Note_on_c, 0, 54, 43
1, 120406, Control_c, 0, 64, 59
1, 120428, Control_c, 0, 64, 62
1, 120443, Control_c, 0, 64, 65
1, 120458, Control_c, 0, 64, 68
1, 120472, Control_c, 0, 64, 75
1, 120487, Control_c, 0, 64, 89
1, 120499, Note_on_c, 0, 59, 42
1, 120502, Control_c, 0, 64, 108
1, 120514, Note_off_c, 0, 66, 34
1, 120516, Control_c, 0, 64, 127
1, 120517, Note_off_c, 0, 47, 34
1, 120547, Note_off_c, 0, 54, 29
1, 120637, Note_on_c, 0, 63, 37
1, 120647, Note_off_c, 0, 59, 51
1, 120710, Note_on_c, 0, 66, 21
1, 120788, Note_off_c, 0, 63, 35
1, 120799, Note_on_c, 0, 54, 35
1, 120881, Note_on_c, 0, 59, 30
1, 120896, Note_off_c, 0, 66, 36
1, 120981, Note_off_c, 0, 54, 22
1, 121015, Note_on_c, 0, 63, 36
1, 121068, Note_off_c, 0, 59, 38
1, 121121, Note_on_c, 0, 66, 23
1, 121209, Note_off_c, 0, 63, 41
1, 121229, Note_on_c, 0, 75, 48
1, 121247, Note_on_c, 0, 54, 21
1, 121309, Note_on_c, 0, 59, 29
1, 121328, Note_off_c, 0, 66, 32
1, 121405, Note_off_c, 0, 54, 31
1, 121425, Note_on_c, 0, 73, 67
1, 121427, Note_on_c, 0, 63, 38
1, 121461, Note_off_c, 0, 59, 36
1, 121477, Note_on_c, 0, 66, 42
1, 121582, Note_on_c, 0, 54, 39
1, 121588, Note_off_c, 0, 63, 31
1, 121616, Note_on_c, 0, 71, 73
1, 121659, Note_off_c, 0, 75, 56
1, 121666, Control_c, 0, 64, 121
1, 121671, Note_on_c, 0, 59, 40
1, 121673, Note_off_c, 0, 66, 31
1, 121680, Control_c, 0, 64, 118
1, 121695, Control_c, 0, 64, 117
1, 121700, Note_off_c, 0, 54, 37
1, 121710, Control_c, 0, 64, 115
1, 121725, Control_c, 0, 64, 114
1, 121740, Control_c, 0, 64, 113
1, 121754, Control_c, 0, 64, 113
1, 121766, Note_off_c, 0, 73, 39
1, 121769, Control_c, 0, 64, 112
1, 121784, Control_c, 0, 64, 111
1, 121787, Note_off_c, 0, 59, 55
1, 121828, Note_on_c, 0, 68, 75
1, 121829, Control_c, 0, 64, 111
1, 121843, Control_c, 0, 64, 107
1, 121844, Note_on_c, 0, 64, 48
1, 121858, Control_c, 0, 64, 94
1, 121873, Control_c, 0, 64, 76
1, 121888, Control_c, 0, 64, 64
1, 121902, Control_c, 0, 64, 51
1, 121914, Note_off_c, 0, 71, 57
1, 121925, Control_c, 0, 64, 40
1, 121940, Control_c, 0, 64, 38
1, 121956, Note_on_c, 0, 59, 39
1, 121967, Note_off_c, 0, 64, 51
1, 121984, Control_c, 0, 64, 41
1, 121999, Control_c, 0, 64, 47
1, 122014, Control_c, 0, 64, 54
1, 122015, Note_off_c, 0, 59, 62
1, 122029, Control_c, 0, 64, 60
1, 122038, Note_on_c, 0, 56, 51
1, 122043, Control_c, 0, 64, 65
1, 122058, Control_c, 0, 64, 73
1, 122073, Control_c, 0, 64, 86
1, 122087, Control_c, 0, 64, 127
1, 122137, Note_on_c, 0, 59, 47
1, 122159, Note_off_c, 0, 56, 37
1, 122165, Note_off_c, 0, 68, 59
1, 122233, Note_on_c, 0, 64, 51
1, 122233, Note_off_c, 0, 59, 54
1, 122310, Note_on_c, 0, 68, 49
1, 122367, Note_off_c, 0, 64, 51
1, 122411, Note_on_c, 0, 56, 54
1, 122491, Note_on_c, 0, 59, 57
1, 122505, Note_off_c, 0, 68, 32
1, 122566, Note_off_c, 0, 56, 32
1, 122597, Note_on_c, 0, 64, 61
1, 122625, Note_off_c, 0, 59, 58
1, 122664, Note_on_c, 0, 68, 43
1, 122774, Note_off_c, 0, 64, 50
1, 122778, Control_c, 0, 64, 118
1, 122785, Note_on_c, 0, 52, 74
1, 122785, Note_on_c, 0, 56, 50
1, 122792, Control_c, 0, 64, 113
1, 122807, Control_c, 0, 64, 109
1, 122822, Control_c, 0, 64, 107
1, 122837, Control_c, 0, 64, 105
1, 122852, Control_c, 0, 64, 103
1, 122866, Control_c, 0, 64, 101
1, 122867, Note_on_c, 0, 61, 51
1, 122881, Control_c, 0, 64, 100
1, 122896, Control_c, 0, 64, 99
1, 122901, Note_off_c, 0, 68, 27
1, 122910, Control_c, 0, 64, 99
1, 122925, Control_c, 0, 64, 98
1, 122940, Control_c, 0, 64, 97
1, 122955, Control_c, 0, 64, 97
1, 122984, Note_on_c, 0, 51, 84
1, 122984, Control_c, 0, 64, 96
1, 122994, Note_off_c, 0, 56, 33
1, 122999, Note_on_c, 0, 64, 56
1, 123014, Note_off_c, 0, 61, 56
1, 123014, Control_c, 0, 64, 95
1, 123029, Control_c, 0, 64, 94
1, 123044, Control_c, 0, 64, 93
1, 123059, Control_c, 0, 64, 92
1, 123071, Note_on_c, 0, 68, 47
1, 123089, Control_c, 0, 64, 92
1, 123104, Control_c, 0, 64, 91
1, 123118, Control_c, 0, 64, 90
1, 123133, Control_c, 0, 64, 89
1, 123141, Note_off_c, 0, 52, 52
1, 123148, Control_c, 0, 64, 88
1, 123163, Control_c, 0, 64, 87
1, 123168, Note_on_c, 0, 49, 85
1, 123168, Note_off_c, 0, 64, 50
1, 123178, Control_c, 0, 64, 86
1, 123179, Note_on_c, 0, 56, 59
1, 123192, Control_c, 0, 64, 84
1, 123204, Note_off_c, 0, 68, 49
1, 123208, Control_c, 0, 64, 82
1, 123223, Control_c, 0, 64, 81
1, 123238, Control_c, 0, 64, 80
1, 123244, Note_on_c, 0, 61, 57
1, 123253, Control_c, 0, 64, 78
1, 123268, Control_c, 0, 64, 76
1, 123282, Control_c, 0, 64, 74
1, 123297, Control_c, 0, 64, 72
1, 123306, Note_off_c, 0, 51, 54
1, 123312, Control_c, 0, 64, 72
1, 123327, Control_c, 0, 64, 71
1, 123341, Control_c, 0, 64, 70
1, 123356, Control_c, 0, 64, 69
1, 123357, Note_off_c, 0, 56, 24
1, 123371, Control_c, 0, 64, 68
1, 123384, Note_on_c, 0, 46, 82
1, 123386, Control_c, 0, 64, 67
1, 123390, Note_off_c, 0, 61, 53
1, 123408, Control_c, 0, 64, 65
1, 123422, Note_on_c, 0, 64, 51
1, 123423, Control_c, 0, 64, 64
1, 123438, Control_c, 0, 64, 63
1, 123452, Control_c, 0, 64, 59
1, 123467, Control_c, 0, 64, 51
1, 123482, Control_c, 0, 64, 42
1, 123487, Note_on_c, 0, 66, 48
1, 123497, Control_c, 0, 64, 30
1, 123512, Control_c, 0, 64, 13
1, 123527, Control_c, 0, 64, 0
1, 123534, Note_off_c, 0, 49, 56
1, 123575, Note_off_c, 0, 64, 54
1, 123593, Note_on_c, 0, 54, 61
1, 123631, Control_c, 0, 64, 29
1, 123646, Control_c, 0, 64, 45
1, 123660, Control_c, 0, 64, 54
1, 123676, Control_c, 0, 64, 59
1, 123682, Note_on_c, 0, 61, 58
1, 123691, Control_c, 0, 64, 63
1, 123706, Control_c, 0, 64, 66
1, 123721, Note_off_c, 0, 66, 35
1, 123721, Control_c, 0, 64, 72
1, 123735, Control_c, 0, 64, 84
1, 123750, Control_c, 0, 64, 102
1, 123765, Control_c, 0, 64, 127
1, 123790, Note_off_c, 0, 54, 36
1, 123791, Note_on_c, 0, 64, 50
1, 123819, Note_off_c, 0, 61, 52
1, 123887, Note_on_c, 0, 66, 50
1, 123928, Control_c, 0, 64, 111
1, 123942, Control_c, 0, 64, 101
1, 123957, Control_c, 0, 64, 93
1, 123972, Control_c, 0, 64, 89
1, 123986, Note_off_c, 0, 64, 32
1, 123987, Control_c, 0, 64, 86
1, 123994, Note_on_c, 0, 54, 52
1, 124002, Control_c, 0, 64, 83
1, 124018, Control_c, 0, 64, 81
1, 124032, Control_c, 0, 64, 79
1, 124047, Control_c, 0, 64, 78
1, 124062, Control_c, 0, 64, 77
1, 124064, Note_off_c, 0, 66, 49
1, 124067, Note_on_c, 0, 61, 53
1, 124077, Control_c, 0, 64, 75
1, 124092, Control_c, 0, 64, 69
1, 124106, Control_c, 0, 64, 61
1, 124121, Control_c, 0, 64, 43
1, 124136, Control_c, 0, 64, 0
1, 124174, Note_off_c, 0, 54, 32
1, 124202, Note_on_c, 0, 47, 67
1, 124233, Note_off_c, 0, 61, 55
1, 124242, Note_on_c, 0, 63, 50
1, 124254, Note_off_c, 0, 46, 53
1, 124262, Control_c, 0, 64, 30
1, 124273, Note_off_c, 0, 47, 63
1, 124277, Control_c, 0, 64, 55
1, 124292, Control_c, 0, 64, 66
1, 124307, Control_c, 0, 64, 84
1, 124321, Control_c, 0, 64, 127
1, 124349, Note_off_c, 0, 63, 55
1, 124356, Note_on_c, 0, 66, 43
1, 124413, Note_on_c, 0, 54, 46
1, 124439, Note_on_c, 0, 75, 71
1, 124469, Note_off_c, 0, 66, 34
1, 124488, Note_on_c, 0, 59, 41
1, 124588, Note_off_c, 0, 54, 28
1, 124641, Note_on_c, 0, 76, 81
1, 124650, Note_on_c, 0, 63, 57
1, 124655, Note_off_c, 0, 59, 56
1, 124734, Note_on_c, 0, 66, 49
1, 124764, Note_off_c, 0, 75, 60
1, 124827, Note_on_c, 0, 77, 94
1, 124852, Note_on_c, 0, 54, 60
1, 124854, Note_off_c, 0, 63, 36
1, 124933, Note_off_c, 0, 76, 58
1, 124955, Note_on_c, 0, 59, 50
1, 124969, Note_off_c, 0, 66, 34
1, 125035, Note_off_c, 0, 54, 29
1, 125039, Control_c, 0, 64, 123
1, 125054, Control_c, 0, 64, 112
1, 125068, Control_c, 0, 64, 107
1, 125082, Note_on_c, 0, 78, 93
1, 125083, Control_c, 0, 64, 103
1, 125098, Control_c, 0, 64, 99
1, 125113, Control_c, 0, 64, 94
1, 125118, Note_on_c, 0, 61, 59
1, 125128, Control_c, 0, 64, 89
1, 125133, Note_off_c, 0, 59, 52
1, 125143, Control_c, 0, 64, 85
1, 125158, Control_c, 0, 64, 82
1, 125172, Control_c, 0, 64, 81
1, 125187, Control_c, 0, 64, 78
1, 125196, Note_on_c, 0, 66, 54
1, 125202, Control_c, 0, 64, 75
1, 125202, Note_off_c, 0, 77, 49
1, 125217, Control_c, 0, 64, 72
1, 125232, Control_c, 0, 64, 69
1, 125247, Control_c, 0, 64, 67
1, 125253, Note_off_c, 0, 61, 50
1, 125261, Control_c, 0, 64, 65
1, 125276, Control_c, 0, 64, 64
1, 125291, Control_c, 0, 64, 63
1, 125295, Note_on_c, 0, 54, 56
1, 125305, Control_c, 0, 64, 62
1, 125320, Control_c, 0, 64, 61
1, 125335, Control_c, 0, 64, 59
1, 125350, Control_c, 0, 64, 55
1, 125365, Control_c, 0, 64, 50
1, 125379, Control_c, 0, 64, 45
1, 125381, Note_on_c, 0, 59, 50
1, 125394, Control_c, 0, 64, 41
1, 125397, Note_off_c, 0, 66, 36
1, 125409, Control_c, 0, 64, 36
1, 125424, Control_c, 0, 64, 33
1, 125439, Control_c, 0, 64, 28
1, 125453, Control_c, 0, 64, 24
1, 125486, Note_off_c, 0, 54, 35
1, 125493, Note_on_c, 0, 61, 48
1, 125512, Control_c, 0, 64, 26
1, 125526, Note_off_c, 0, 59, 58
1, 125527, Control_c, 0, 64, 33
1, 125542, Control_c, 0, 64, 43
1, 125557, Control_c, 0, 64, 52
1, 125572, Control_c, 0, 64, 59
1, 125580, Note_on_c, 0, 66, 33
1, 125587, Control_c, 0, 64, 63
1, 125602, Control_c, 0, 64, 66
1, 125617, Control_c, 0, 64, 69
1, 125632, Control_c, 0, 64, 74
1, 125643, Note_off_c, 0, 61, 55
1, 125647, Control_c, 0, 64, 81
1, 125670, Control_c, 0, 64, 84
1, 125682, Note_on_c, 0, 54, 49
1, 125699, Control_c, 0, 64, 83
1, 125729, Control_c, 0, 64, 83
1, 125743, Control_c, 0, 64, 82
1, 125755, Note_on_c, 0, 59, 40
1, 125758, Control_c, 0, 64, 81
1, 125770, Note_off_c, 0, 66, 37
1, 125773, Control_c, 0, 64, 80
1, 125788, Control_c, 0, 64, 78
1, 125803, Control_c, 0, 64, 76
1, 125817, Control_c, 0, 64, 75
1, 125856, Note_off_c, 0, 54, 23
1, 125870, Note_on_c, 0, 61, 42
1, 125877, Control_c, 0, 64, 74
1, 125891, Control_c, 0, 64, 73
1, 125906, Control_c, 0, 64, 70
1, 125909, Note_off_c, 0, 59, 32
1, 125921, Control_c, 0, 64, 66
1, 125936, Control_c, 0, 64, 61
1, 125945, Note_on_c, 0, 66, 28
1, 125950, Control_c, 0, 64, 54
1, 125965, Control_c, 0, 64, 53
1, 125995, Control_c, 0, 64, 54
1, 126010, Control_c, 0, 64, 56
1, 126025, Control_c, 0, 64, 59
1, 126040, Control_c, 0, 64, 61
1, 126055, Control_c, 0, 64, 63
1, 126070, Control_c, 0, 64, 65
1, 126079, Note_on_c, 0, 54, 37
1, 126084, Control_c, 0, 64, 67
1, 126098, Note_off_c, 0, 61, 36
1, 126099, Control_c, 0, 64, 69
1, 126114, Control_c, 0, 64, 72
1, 126128, Control_c, 0, 64, 76
1, 126143, Control_c, 0, 64, 80
1, 126146, Note_on_c, 0, 58, 42
1, 126158, Control_c, 0, 64, 85
1, 126173, Control_c, 0, 64, 89
1, 126188, Control_c, 0, 64, 92
1, 126202, Control_c, 0, 64, 95
1, 126217, Control_c, 0, 64, 98
1, 126220, Note_off_c, 0, 66, 30
1, 126232, Control_c, 0, 64, 100
1, 126247, Control_c, 0, 64, 101
1, 126252, Note_on_c, 0, 61, 45
1, 126265, Note_off_c, 0, 54, 41
1, 126310, Note_off_c, 0, 58, 35
1, 126335, Control_c, 0, 64, 101
1, 126350, Control_c, 0, 64, 100
1, 126354, Note_on_c, 0, 66, 11
1, 126404, Control_c, 0, 64, 99
1, 126433, Control_c, 0, 64, 99
1, 126448, Control_c, 0, 64, 98
1, 126452, Note_off_c, 0, 61, 34
1, 126463, Control_c, 0, 64, 97
1, 126472, Note_on_c, 0, 54, 35
1, 126478, Control_c, 0, 64, 97
1, 126493, Control_c, 0, 64, 96
1, 126507, Control_c, 0, 64, 95
1, 126522, Control_c, 0, 64, 95
1, 126537, Control_c, 0, 64, 94
1, 126552, Control_c, 0, 64, 93
1, 126556, Note_on_c, 0, 58, 27
1, 126566, Control_c, 0, 64, 92
1, 126581, Control_c, 0, 64, 92
1, 126596, Control_c, 0, 64, 91
1, 126607, Note_off_c, 0, 66, 32
1, 126611, Control_c, 0, 64, 90
1, 126626, Control_c, 0, 64, 89
1, 126640, Control_c, 0, 64, 88
1, 126655, Control_c, 0, 64, 87
1, 126670, Note_on_c, 0, 75, 46
1, 126670, Control_c, 0, 64, 86
1, 126684, Control_c, 0, 64, 84
1, 126699, Control_c, 0, 64, 83
1, 126708, Note_on_c, 0, 63, 34
1, 126712, Note_off_c, 0, 54, 41
1, 126714, Control_c, 0, 64, 82
1, 126729, Control_c, 0, 64, 81
1, 126731, Note_off_c, 0, 58, 31
1, 126744, Control_c, 0, 64, 80
1, 126758, Control_c, 0, 64, 79
1, 126760, Note_on_c, 0, 66, 22
1, 126773, Control_c, 0, 64, 77
1, 126788, Control_c, 0, 64, 74
1, 126803, Control_c, 0, 64, 69
1, 126818, Control_c, 0, 64, 63
1, 126826, Note_off_c, 0, 78, 50
1, 126833, Control_c, 0, 64, 54
1, 126848, Control_c, 0, 64, 49
1, 126863, Control_c, 0, 64, 48
1, 126873, Note_on_c, 0, 54, 29
1, 126885, Note_off_c, 0, 63, 36
1, 126892, Control_c, 0, 64, 49
1, 126907, Control_c, 0, 64, 52
1, 126922, Control_c, 0, 64, 57
1, 126937, Control_c, 0, 64, 61
1, 126951, Control_c, 0, 64, 64
1, 126960, Note_on_c, 0, 59, 18
1, 126966, Control_c, 0, 64, 67
1, 126981, Control_c, 0, 64, 72
1, 126988, Note_off_c, 0, 66, 34
1, 126996, Control_c, 0, 64, 82
1, 127011, Control_c, 0, 64, 95
1, 127025, Control_c, 0, 64, 121
1, 127036, Note_off_c, 0, 54, 28
1, 127037, Note_off_c, 0, 75, 56
1, 127040, Control_c, 0, 64, 127
1, 127049, Note_on_c, 0, 63, 37
1, 127128, Note_off_c, 0, 59, 42
1, 127179, Poly_aftertouch_c, 0, 66, 127
1, 127253, Note_on_c, 0, 54, 36
1, 127256, Control_c, 0, 64, 121
1, 127271, Control_c, 0, 64, 116
1, 127286, Control_c, 0, 64, 111
1, 127301, Control_c, 0, 64, 107
1, 127316, Control_c, 0, 64, 105
1, 127318, Note_on_c, 0, 59, 30
1, 127330, Control_c, 0, 64, 102
1, 127331, Note_off_c, 0, 63, 27
1, 127343, Poly_aftertouch_c, 0, 66, 0
1, 127345, Control_c, 0, 64, 99
1, 127360, Control_c, 0, 64, 96
1, 127374, Control_c, 0, 64, 92
1, 127389, Control_c, 0, 64, 89
1, 127404, Control_c, 0, 64, 86
1, 127419, Control_c, 0, 64, 83
1, 127434, Control_c, 0, 64, 79
1, 127449, Control_c, 0, 64, 76
1, 127462, Note_on_c, 0, 62, 39
1, 127463, Control_c, 0, 64, 71
1, 127465, Note_off_c, 0, 54, 41
1, 127478, Control_c, 0, 64, 67
1, 127493, Control_c, 0, 64, 62
1, 127495, Note_off_c, 0, 59, 40
1, 127508, Control_c, 0, 64, 54
1, 127523, Control_c, 0, 64, 48
1, 127537, Control_c, 0, 64, 47
1, 127567, Control_c, 0, 64, 48
1, 127581, Control_c, 0, 64, 49
1, 127596, Control_c, 0, 64, 51
1, 127597, Poly_aftertouch_c, 0, 66, 127
1, 127611, Control_c, 0, 64, 53
1, 127626, Control_c, 0, 64, 56
1, 127641, Control_c, 0, 64, 59
1, 127656, Control_c, 0, 64, 61
1, 127662, Note_on_c, 0, 54, 39
1, 127670, Control_c, 0, 64, 63
1, 127685, Note_on_c, 0, 47, 42
1, 127685, Control_c, 0, 64, 65
1, 127700, Control_c, 0, 64, 67
1, 127715, Control_c, 0, 64, 70
1, 127730, Control_c, 0, 64, 76
1, 127745, Control_c, 0, 64, 85
1, 127760, Control_c, 0, 64, 95
1, 127760, Note_off_c, 0, 62, 29
1, 127768, Note_on_c, 0, 59, 34
1, 127774, Control_c, 0, 64, 109
1, 127789, Control_c, 0, 64, 127
1, 127869, Note_on_c, 0, 49, 67
1, 127870, Poly_aftertouch_c, 0, 66, 0
1, 127885, Note_on_c, 0, 62, 41
1, 127909, Note_off_c, 0, 54, 43
1, 127947, Note_off_c, 0, 59, 41
1, 127999, Note_on_c, 0, 66, 20
1, 128050, Note_off_c, 0, 47, 35
1, 128075, Note_on_c, 0, 50, 74
1, 128085, Note_on_c, 0, 54, 53
1, 128111, Note_off_c, 0, 62, 37
1, 128176, Note_off_c, 0, 49, 58
1, 128177, Note_on_c, 0, 59, 40
1, 128202, Note_off_c, 0, 66, 35
1, 128287, Note_on_c, 0, 42, 77
1, 128315, Note_off_c, 0, 54, 41
1, 128321, Note_on_c, 0, 61, 52
1, 128360, Control_c, 0, 64, 103
1, 128362, Note_off_c, 0, 59, 36
1, 128375, Control_c, 0, 64, 83
1, 128390, Control_c, 0, 64, 67
1, 128395, Note_off_c, 0, 50, 52
1, 128404, Control_c, 0, 64, 56
1, 128419, Note_on_c, 0, 66, 38
1, 128419, Control_c, 0, 64, 40
1, 128434, Control_c, 0, 64, 35
1, 128464, Control_c, 0, 64, 36
1, 128478, Control_c, 0, 64, 43
1, 128489, Note_on_c, 0, 54, 56
1, 128493, Note_off_c, 0, 61, 51
1, 128493, Control_c, 0, 64, 50
1, 128508, Control_c, 0, 64, 55
1, 128523, Control_c, 0, 64, 60
1, 128538, Control_c, 0, 64, 63
1, 128553, Control_c, 0, 64, 65
1, 128568, Control_c, 0, 64, 70
1, 128575, Note_on_c, 0, 59, 51
1, 128583, Control_c, 0, 64, 80
1, 128597, Control_c, 0, 64, 97
1, 128612, Control_c, 0, 64, 127
1, 128659, Note_off_c, 0, 66, 27
1, 128678, Note_on_c, 0, 61, 54
1, 128702, Note_off_c, 0, 54, 40
1, 128731, Note_off_c, 0, 59, 59
1, 128789, Note_on_c, 0, 66, 47
1, 128863, Note_on_c, 0, 54, 52
1, 128910, Note_off_c, 0, 61, 31
1, 128976, Control_c, 0, 64, 107
1, 128991, Control_c, 0, 64, 84
1, 129006, Control_c, 0, 64, 69
1, 129021, Control_c, 0, 64, 56
1, 129035, Control_c, 0, 64, 36
1, 129036, Note_on_c, 0, 61, 37
1, 129045, Note_off_c, 0, 66, 35
1, 129049, Note_off_c, 0, 54, 37
1, 129065, Control_c, 0, 64, 46
1, 129080, Control_c, 0, 64, 55
1, 129094, Control_c, 0, 64, 61
1, 129109, Control_c, 0, 64, 65
1, 129124, Control_c, 0, 64, 72
1, 129139, Control_c, 0, 64, 89
1, 129153, Control_c, 0, 64, 127
1, 129185, Note_off_c, 0, 61, 54
1, 129196, Note_on_c, 0, 66, 43
1, 129239, Note_on_c, 0, 54, 49
1, 129330, Note_on_c, 0, 58, 54
1, 129341, Note_off_c, 0, 66, 34
1, 129428, Note_off_c, 0, 54, 29
1, 129431, Note_on_c, 0, 61, 57
1, 129450, Note_off_c, 0, 58, 54
1, 129501, Note_on_c, 0, 66, 46
1, 129554, Note_off_c, 0, 61, 52
1, 129575, Note_on_c, 0, 54, 46
1, 129650, Note_on_c, 0, 58, 52
1, 129658, Note_off_c, 0, 66, 33
1, 129693, Note_off_c, 0, 58, 61
1, 129786, Note_on_c, 0, 35, 64
1, 129792, Note_off_c, 0, 54, 43
1, 129799, Control_c, 0, 64, 123
1, 129806, Note_on_c, 0, 59, 47
1, 129814, Control_c, 0, 64, 95
1, 129829, Control_c, 0, 64, 78
1, 129844, Control_c, 0, 64, 65
1, 129858, Control_c, 0, 64, 49
1, 129873, Control_c, 0, 64, 31
1, 129888, Control_c, 0, 64, 34
1, 129894, Note_off_c, 0, 42, 57
1, 129901, Note_on_c, 0, 63, 47
1, 129903, Control_c, 0, 64, 40
1, 129918, Control_c, 0, 64, 47
1, 129925, Note_off_c, 0, 59, 52
1, 129932, Control_c, 0, 64, 54
1, 129947, Control_c, 0, 64, 58
1, 129962, Control_c, 0, 64, 62
1, 129966, Note_on_c, 0, 51, 57
1, 129976, Control_c, 0, 64, 66
1, 129991, Control_c, 0, 64, 73
1, 130006, Control_c, 0, 64, 85
1, 130021, Control_c, 0, 64, 110
1, 130036, Control_c, 0, 64, 127
1, 130047, Note_on_c, 0, 54, 67
1, 130084, Note_off_c, 0, 35, 60
1, 130086, Note_off_c, 0, 63, 31
1, 130138, Note_off_c, 0, 51, 35
1, 130139, Note_on_c, 0, 59, 64
1, 130192, Note_off_c, 0, 54, 63
1, 130222, Note_on_c, 0, 63, 62
1, 130265, Control_c, 0, 64, 111
1, 130280, Control_c, 0, 64, 99
1, 130285, Note_off_c, 0, 59, 58
1, 130295, Control_c, 0, 64, 92
1, 130309, Note_on_c, 0, 51, 83
1, 130309, Control_c, 0, 64, 87
1, 130324, Control_c, 0, 64, 84
1, 130339, Control_c, 0, 64, 82
1, 130354, Control_c, 0, 64, 80
1, 130369, Control_c, 0, 64, 77
1, 130381, Note_on_c, 0, 54, 74
1, 130383, Control_c, 0, 64, 73
1, 130399, Control_c, 0, 64, 70
1, 130414, Note_off_c, 0, 63, 50
1, 130414, Control_c, 0, 64, 67
1, 130429, Control_c, 0, 64, 65
1, 130444, Control_c, 0, 64, 61
1, 130459, Control_c, 0, 64, 53
1, 130473, Note_off_c, 0, 51, 53
1, 130473, Control_c, 0, 64, 34
1, 130488, Control_c, 0, 64, 0
1, 130492, Note_on_c, 0, 39, 87
1, 130515, Note_on_c, 0, 61, 67
1, 130553, Note_off_c, 0, 54, 61
1, 130604, Note_on_c, 0, 63, 58
1, 130622, Control_c, 0, 64, 34
1, 130636, Control_c, 0, 64, 55
1, 130651, Control_c, 0, 64, 62
1, 130666, Note_off_c, 0, 61, 57
1, 130666, Control_c, 0, 64, 66
1, 130681, Control_c, 0, 64, 74
1, 130692, Note_on_c, 0, 51, 59
1, 130696, Control_c, 0, 64, 92
1, 130711, Control_c, 0, 64, 127
1, 130750, Note_off_c, 0, 63, 59
1, 130764, Note_on_c, 0, 55, 61
1, 130857, Note_on_c, 0, 61, 62
1, 130860, Note_off_c, 0, 51, 33
1, 130887, Note_off_c, 0, 55, 60
1, 130926, Note_on_c, 0, 63, 50
1, 130970, Control_c, 0, 64, 111
1, 130985, Control_c, 0, 64, 98
1, 130999, Control_c, 0, 64, 87
1, 131014, Control_c, 0, 64, 82
1, 131026, Note_off_c, 0, 61, 33
1, 131029, Control_c, 0, 64, 79
1, 131040, Note_on_c, 0, 51, 36
1, 131044, Control_c, 0, 64, 77
1, 131054, Note_on_c, 0, 37, 55
1, 131059, Control_c, 0, 64, 76
1, 131060, Note_off_c, 0, 39, 60
1, 131073, Control_c, 0, 64, 74
1, 131088, Control_c, 0, 64, 72
1, 131096, Note_off_c, 0, 63, 34
1, 131101, Note_on_c, 0, 35, 49
1, 131103, Control_c, 0, 64, 69
1, 131106, Note_off_c, 0, 51, 52
1, 131110, Note_on_c, 0, 55, 46
1, 131117, Control_c, 0, 64, 67
1, 131132, Control_c, 0, 64, 65
1, 131147, Control_c, 0, 64, 63
1, 131158, Note_off_c, 0, 37, 56
1, 131163, Control_c, 0, 64, 61
1, 131178, Note_on_c, 0, 34, 50
1, 131178, Control_c, 0, 64, 60
1, 131193, Control_c, 0, 64, 58
1, 131197, Note_off_c, 0, 35, 57
1, 131209, Control_c, 0, 64, 56
1, 131223, Control_c, 0, 64, 52
1, 131238, Control_c, 0, 64, 47
1, 131245, Note_off_c, 0, 55, 37
1, 131253, Control_c, 0, 64, 43
1, 131268, Control_c, 0, 64, 41
1, 131283, Control_c, 0, 64, 35
1, 131292, Note_on_c, 0, 32, 47
1, 131297, Control_c, 0, 64, 27
1, 131301, Note_off_c, 0, 34, 49
1, 131307, Note_on_c, 0, 44, 41
1, 131311, Note_on_c, 0, 59, 26
1, 131312, Control_c, 0, 64, 9
1, 131327, Control_c, 0, 64, 0
1, 131411, Note_on_c, 0, 63, 16
1, 131459, Note_off_c, 0, 59, 32
1, 131500, Note_on_c, 0, 51, 35
1, 131519, Control_c, 0, 64, 21
1, 131534, Control_c, 0, 64, 38
1, 131549, Control_c, 0, 64, 47
1, 131564, Control_c, 0, 64, 52
1, 131570, Note_on_c, 0, 56, 41
1, 131578, Note_off_c, 0, 63, 35
1, 131578, Control_c, 0, 64, 56
1, 131593, Control_c, 0, 64, 60
1, 131608, Control_c, 0, 64, 64
1, 131623, Control_c, 0, 64, 67
1, 131638, Control_c, 0, 64, 71
1, 131660, Control_c, 0, 64, 77
1, 131671, Note_off_c, 0, 51, 23
1, 131675, Control_c, 0, 64, 85
1, 131690, Control_c, 0, 64, 94
1, 131704, Control_c, 0, 64, 106
1, 131709, Note_off_c, 0, 32, 34
1, 131716, Note_on_c, 0, 59, 40
1, 131719, Control_c, 0, 64, 127
1, 131757, Note_off_c, 0, 56, 42
1, 131778, Note_off_c, 0, 44, 41
1, 131814, Note_on_c, 0, 63, 30
1, 131859, Note_off_c, 0, 59, 52
1, 131915, Note_on_c, 0, 51, 40
1, 131990, Note_on_c, 0, 56, 38
1, 132036, Note_off_c, 0, 63, 30
1, 132085, Note_off_c, 0, 51, 24
1, 132112, Note_on_c, 0, 59, 42
1, 132139, Note_off_c, 0, 56, 35
1, 132201, Note_on_c, 0, 63, 22
1, 132244, Note_off_c, 0, 59, 51
1, 132312, Note_on_c, 0, 51, 40
1, 132374, Note_on_c, 0, 56, 39
1, 132414, Note_off_c, 0, 63, 30
1, 132520, Note_on_c, 0, 71, 57
1, 132527, Note_on_c, 0, 68, 43
1, 132545, Note_off_c, 0, 51, 33
1, 132554, Note_on_c, 0, 59, 28
1, 132589, Note_on_c, 0, 63, 33
1, 132616, Control_c, 0, 64, 121
1, 132631, Control_c, 0, 64, 116
1, 132645, Control_c, 0, 64, 113
1, 132660, Control_c, 0, 64, 111
1, 132662, Note_off_c, 0, 59, 35
1, 132675, Control_c, 0, 64, 108
1, 132690, Control_c, 0, 64, 106
1, 132704, Control_c, 0, 64, 103
1, 132718, Note_on_c, 0, 73, 68
1, 132719, Control_c, 0, 64, 100
1, 132730, Note_on_c, 0, 61, 46
1, 132732, Note_on_c, 0, 70, 51
1, 132734, Control_c, 0, 64, 97
1, 132749, Control_c, 0, 64, 96
1, 132752, Note_off_c, 0, 63, 0
1, 132762, Note_off_c, 0, 56, 16
1, 132763, Control_c, 0, 64, 94
1, 132778, Control_c, 0, 64, 92
1, 132789, Poly_aftertouch_c, 0, 63, 127
1, 132794, Control_c, 0, 64, 91
1, 132809, Control_c, 0, 64, 90
1, 132815, Note_off_c, 0, 71, 39
1, 132824, Control_c, 0, 64, 89
1, 132839, Control_c, 0, 64, 87
1, 132854, Control_c, 0, 64, 85
1, 132868, Control_c, 0, 64, 81
1, 132883, Control_c, 0, 64, 79
1, 132898, Control_c, 0, 64, 78
1, 132906, Poly_aftertouch_c, 0, 63, 0
1, 132912, Note_off_c, 0, 70, 31
1, 132913, Control_c, 0, 64, 77
1, 132924, Note_off_c, 0, 61, 35
1, 132928, Control_c, 0, 64, 76
1, 132934, Note_on_c, 0, 71, 41
1, 132939, Note_on_c, 0, 75, 68
1, 132942, Control_c, 0, 64, 75
1, 132944, Note_on_c, 0, 59, 39
1, 132956, Note_off_c, 0, 68, 36
1, 132957, Control_c, 0, 64, 75
1, 132972, Control_c, 0, 64, 74
1, 132987, Control_c, 0, 64, 73
1, 133001, Control_c, 0, 64, 70
1, 133016, Control_c, 0, 64, 66
1, 133031, Control_c, 0, 64, 61
1, 133045, Note_on_c, 0, 63, 33
1, 133046, Control_c, 0, 64, 50
1, 133049, Note_off_c, 0, 73, 56
1, 133061, Control_c, 0, 64, 40
1, 133075, Control_c, 0, 64, 36
1, 133090, Control_c, 0, 64, 35
1, 133098, Note_off_c, 0, 59, 35
1, 133120, Control_c, 0, 64, 37
1, 133135, Control_c, 0, 64, 41
1, 133157, Control_c, 0, 64, 46
1, 133165, Note_on_c, 0, 51, 35
1, 133172, Control_c, 0, 64, 51
1, 133187, Control_c, 0, 64, 56
1, 133201, Control_c, 0, 64, 61
1, 133208, Note_off_c, 0, 71, 46
1, 133216, Control_c, 0, 64, 64
1, 133231, Control_c, 0, 64, 69
1, 133240, Note_off_c, 0, 63, 41
1, 133246, Control_c, 0, 64, 78
1, 133250, Note_on_c, 0, 56, 29
1, 133261, Control_c, 0, 64, 94
1, 133268, Note_off_c, 0, 75, 57
1, 133275, Control_c, 0, 64, 127
1, 133284, Note_off_c, 0, 51, 32
1, 133333, Note_on_c, 0, 59, 40
1, 133345, Note_off_c, 0, 56, 36
1, 133409, Note_on_c, 0, 63, 25
1, 133411, Note_off_c, 0, 59, 53
1, 133500, Note_on_c, 0, 51, 31
1, 133577, Note_on_c, 0, 56, 36
1, 133588, Note_off_c, 0, 51, 38
1, 133683, Note_off_c, 0, 63, 37
1, 133695, Note_on_c, 0, 59, 45
1, 133769, Note_off_c, 0, 56, 42
1, 133781, Note_off_c, 0, 59, 55
1, 133808, Note_on_c, 0, 63, 5
1, 133855, Note_off_c, 0, 63, 49
1, 133904, Note_on_c, 0, 47, 43
1, 133915, Note_on_c, 0, 59, 52
1, 133960, Note_on_c, 0, 51, 12
1, 134003, Note_on_c, 0, 63, 5
1, 134056, Note_off_c, 0, 59, 38
1, 134062, Note_off_c, 0, 63, 44
1, 134069, Control_c, 0, 64, 99
1, 134084, Control_c, 0, 64, 78
1, 134096, Note_on_c, 0, 61, 62
1, 134098, Control_c, 0, 64, 68
1, 134106, Note_on_c, 0, 46, 46
1, 134113, Control_c, 0, 64, 62
1, 134126, Note_on_c, 0, 55, 31
1, 134128, Control_c, 0, 64, 61
1, 134142, Control_c, 0, 64, 63
1, 134157, Control_c, 0, 64, 65
1, 134172, Control_c, 0, 64, 70
1, 134173, Note_off_c, 0, 47, 35
1, 134187, Control_c, 0, 64, 77
1, 134202, Control_c, 0, 64, 89
1, 134217, Control_c, 0, 64, 127
1, 134223, Note_on_c, 0, 63, 11
1, 134268, Note_off_c, 0, 55, 34
1, 134274, Note_off_c, 0, 63, 47
1, 134291, Control_c, 0, 64, 121
1, 134294, Note_on_c, 0, 44, 63
1, 134298, Note_on_c, 0, 59, 69
1, 134306, Control_c, 0, 64, 86
1, 134321, Control_c, 0, 64, 71
1, 134327, Note_on_c, 0, 56, 48
1, 134336, Control_c, 0, 64, 64
1, 134350, Note_off_c, 0, 46, 54
1, 134350, Control_c, 0, 64, 63
1, 134352, Note_off_c, 0, 61, 27
1, 134365, Control_c, 0, 64, 66
1, 134380, Control_c, 0, 64, 71
1, 134383, Note_off_c, 0, 56, 58
1, 134395, Control_c, 0, 64, 80
1, 134399, Note_off_c, 0, 59, 62
1, 134410, Control_c, 0, 64, 101
1, 134417, Note_on_c, 0, 63, 43
1, 134425, Control_c, 0, 64, 127
1, 134442, Note_off_c, 0, 51, 35
1, 134503, Note_off_c, 0, 63, 53
1, 134507, Note_on_c, 0, 39, 64
1, 134518, Note_on_c, 0, 58, 66
1, 134532, Note_on_c, 0, 55, 52
1, 134603, Control_c, 0, 64, 99
1, 134614, Note_off_c, 0, 44, 34
1, 134618, Control_c, 0, 64, 81
1, 134629, Note_off_c, 0, 55, 54
1, 134633, Control_c, 0, 64, 65
1, 134655, Control_c, 0, 64, 43
1, 134664, Note_on_c, 0, 63, 45
1, 134670, Control_c, 0, 64, 0
1, 134735, Note_on_c, 0, 51, 51
1, 134742, Note_off_c, 0, 58, 55
1, 134788, Control_c, 0, 64, 24
1, 134803, Control_c, 0, 64, 42
1, 134810, Note_on_c, 0, 55, 40
1, 134818, Control_c, 0, 64, 54
1, 134833, Control_c, 0, 64, 61
1, 134847, Control_c, 0, 64, 67
1, 134862, Control_c, 0, 64, 76
1, 134872, Note_off_c, 0, 63, 53
1, 134877, Control_c, 0, 64, 93
1, 134884, Note_off_c, 0, 51, 33
1, 134892, Control_c, 0, 64, 127
1, 134915, Note_off_c, 0, 39, 48
1, 134916, Note_on_c, 0, 58, 57
1, 134966, Note_off_c, 0, 55, 61
1, 135010, Note_on_c, 0, 63, 52
1, 135048, Note_off_c, 0, 58, 54
1, 135109, Note_on_c, 0, 51, 50
1, 135193, Note_on_c, 0, 55, 43
1, 135264, Note_off_c, 0, 63, 39
1, 135268, Note_off_c, 0, 51, 27
1, 135290, Note_on_c, 0, 58, 52
1, 135358, Note_off_c, 0, 55, 34
1, 135382, Note_on_c, 0, 63, 51
1, 135435, Note_off_c, 0, 58, 56
1, 135464, Control_c, 0, 64, 117
1, 135478, Control_c, 0, 64, 115
1, 135493, Control_c, 0, 64, 114
1, 135501, Note_on_c, 0, 51, 46
1, 135508, Control_c, 0, 64, 112
1, 135523, Control_c, 0, 64, 108
1, 135538, Control_c, 0, 64, 104
1, 135552, Control_c, 0, 64, 100
1, 135567, Control_c, 0, 64, 97
1, 135570, Note_on_c, 0, 55, 51
1, 135582, Control_c, 0, 64, 95
1, 135606, Note_off_c, 0, 63, 28
1, 135626, Control_c, 0, 64, 95
1, 135641, Control_c, 0, 64, 93
1, 135656, Control_c, 0, 64, 86
1, 135666, Note_off_c, 0, 51, 29
1, 135669, Control_c, 0, 64, 78
1, 135684, Control_c, 0, 64, 70
1, 135686, Note_on_c, 0, 70, 58
1, 135689, Note_on_c, 0, 73, 71
1, 135699, Control_c, 0, 64, 64
1, 135714, Control_c, 0, 64, 60
1, 135716, Note_on_c, 0, 58, 54
1, 135729, Control_c, 0, 64, 59
1, 135743, Control_c, 0, 64, 61
1, 135758, Control_c, 0, 64, 63
1, 135773, Control_c, 0, 64, 66
1, 135782, Note_on_c, 0, 63, 46
1, 135787, Control_c, 0, 64, 70
1, 135799, Note_off_c, 0, 55, 32
1, 135802, Control_c, 0, 64, 76
1, 135817, Control_c, 0, 64, 86
1, 135818, Note_off_c, 0, 58, 55
1, 135832, Control_c, 0, 64, 104
1, 135847, Control_c, 0, 64, 127
1, 135907, Note_off_c, 0, 63, 57
1, 135924, Note_off_c, 0, 73, 0
1, 135934, Note_on_c, 0, 76, 79
1, 135945, Note_on_c, 0, 73, 19
1, 135947, Note_on_c, 0, 61, 54
1, 136039, Note_on_c, 0, 63, 37
1, 136076, Note_off_c, 0, 70, 50
1, 136085, Control_c, 0, 64, 114
1, 136100, Control_c, 0, 64, 108
1, 136109, Note_off_c, 0, 73, 42
1, 136115, Control_c, 0, 64, 103
1, 136130, Note_off_c, 0, 63, 55
1, 136130, Control_c, 0, 64, 99
1, 136152, Control_c, 0, 64, 95
1, 136166, Control_c, 0, 64, 92
1, 136168, Note_off_c, 0, 61, 48
1, 136181, Control_c, 0, 64, 89
1, 136190, Note_on_c, 0, 75, 73
1, 136196, Control_c, 0, 64, 87
1, 136205, Note_on_c, 0, 59, 46
1, 136211, Note_on_c, 0, 71, 47
1, 136211, Control_c, 0, 64, 85
1, 136226, Control_c, 0, 64, 82
1, 136241, Control_c, 0, 64, 80
1, 136255, Control_c, 0, 64, 78
1, 136270, Control_c, 0, 64, 76
1, 136280, Note_on_c, 0, 63, 45
1, 136285, Control_c, 0, 64, 75
1, 136300, Control_c, 0, 64, 73
1, 136315, Control_c, 0, 64, 70
1, 136328, Note_off_c, 0, 76, 57
1, 136330, Control_c, 0, 64, 67
1, 136345, Control_c, 0, 64, 63
1, 136354, Note_off_c, 0, 59, 52
1, 136360, Control_c, 0, 64, 56
1, 136374, Control_c, 0, 64, 44
1, 136389, Control_c, 0, 64, 34
1, 136404, Control_c, 0, 64, 24
1, 136405, Note_on_c, 0, 51, 43
1, 136418, Control_c, 0, 64, 13
1, 136433, Control_c, 0, 64, 0
1, 136478, Control_c, 0, 64, 23
1, 136488, Note_on_c, 0, 56, 38
1, 136492, Control_c, 0, 64, 41
1, 136507, Control_c, 0, 64, 52
1, 136511, Note_off_c, 0, 63, 36
1, 136522, Control_c, 0, 64, 59
1, 136537, Control_c, 0, 64, 62
1, 136552, Control_c, 0, 64, 65
1, 136562, Note_off_c, 0, 51, 30
1, 136566, Control_c, 0, 64, 69
1, 136581, Note_off_c, 0, 71, 33
1, 136581, Control_c, 0, 64, 76
1, 136596, Control_c, 0, 64, 86
1, 136600, Note_on_c, 0, 59, 43
1, 136602, Note_off_c, 0, 75, 58
1, 136610, Control_c, 0, 64, 95
1, 136625, Control_c, 0, 64, 101
1, 136640, Control_c, 0, 64, 102
1, 136652, Note_off_c, 0, 56, 46
1, 136689, Note_on_c, 0, 63, 28
1, 136700, Control_c, 0, 64, 102
1, 136715, Control_c, 0, 64, 101
1, 136729, Control_c, 0, 64, 101
1, 136744, Control_c, 0, 64, 100
1, 136749, Note_off_c, 0, 59, 33
1, 136759, Control_c, 0, 64, 99
1, 136774, Control_c, 0, 64, 98
1, 136797, Note_on_c, 0, 51, 44
1, 136804, Control_c, 0, 64, 97
1, 136834, Control_c, 0, 64, 97
1, 136849, Control_c, 0, 64, 96
1, 136864, Control_c, 0, 64, 96
1, 136888, Note_off_c, 0, 51, 45
1, 136890, Note_on_c, 0, 56, 36
1, 136915, Control_c, 0, 64, 95
1, 136930, Note_off_c, 0, 63, 28
1, 136960, Control_c, 0, 64, 95
1, 136991, Note_on_c, 0, 59, 46
1, 137019, Control_c, 0, 64, 94
1, 137039, Note_off_c, 0, 56, 33
1, 137102, Note_on_c, 0, 63, 26
1, 137138, Control_c, 0, 64, 94
1, 137153, Note_off_c, 0, 59, 34
1, 137153, Control_c, 0, 64, 93
1, 137165, Note_on_c, 0, 51, 41
1, 137212, Control_c, 0, 64, 93
1, 137227, Control_c, 0, 64, 92
1, 137256, Note_on_c, 0, 56, 35
1, 137271, Control_c, 0, 64, 92
1, 137294, Note_off_c, 0, 51, 32
1, 137296, Note_off_c, 0, 63, 31
1, 137315, Control_c, 0, 64, 89
1, 137330, Control_c, 0, 64, 81
1, 137345, Control_c, 0, 64, 73
1, 137358, Note_on_c, 0, 47, 52
1, 137359, Control_c, 0, 64, 66
1, 137374, Control_c, 0, 64, 62
1, 137380, Note_on_c, 0, 51, 6
1, 137382, Note_on_c, 0, 59, 32
1, 137389, Control_c, 0, 64, 60
1, 137404, Control_c, 0, 64, 61
1, 137419, Control_c, 0, 64, 63
1, 137433, Control_c, 0, 64, 65
1, 137448, Control_c, 0, 64, 69
1, 137463, Control_c, 0, 64, 75
1, 137478, Control_c, 0, 64, 84
1, 137493, Control_c, 0, 64, 100
1, 137507, Control_c, 0, 64, 127
1, 137530, Note_off_c, 0, 59, 38
1, 137567, Control_c, 0, 64, 99
1, 137580, Note_on_c, 0, 46, 50
1, 137582, Note_off_c, 0, 56, 39
1, 137583, Control_c, 0, 64, 76
1, 137592, Note_on_c, 0, 61, 36
1, 137596, Note_on_c, 0, 55, 40
1, 137598, Control_c, 0, 64, 63
1, 137612, Control_c, 0, 64, 49
1, 137613, Note_off_c, 0, 47, 54
1, 137627, Control_c, 0, 64, 51
1, 137650, Control_c, 0, 64, 56
1, 137664, Control_c, 0, 64, 61
1, 137679, Control_c, 0, 64, 64
1, 137694, Control_c, 0, 64, 67
1, 137709, Control_c, 0, 64, 71
1, 137724, Control_c, 0, 64, 77
1, 137738, Control_c, 0, 64, 84
1, 137753, Control_c, 0, 64, 87
1, 137783, Control_c, 0, 64, 85
1, 137787, Poly_aftertouch_c, 0, 63, 0
1, 137794, Note_off_c, 0, 61, 32
1, 137798, Note_off_c, 0, 55, 33
1, 137798, Control_c, 0, 64, 83
1, 137812, Note_off_c, 0, 46, 37
1, 137812, Control_c, 0, 64, 79
1, 137819, Note_on_c, 0, 44, 40
1, 137822, Note_on_c, 0, 59, 41
1, 137827, Control_c, 0, 64, 73
1, 137838, Note_off_c, 0, 51, 19
1, 137842, Control_c, 0, 64, 66
1, 137847, Note_on_c, 0, 56, 16
1, 137857, Control_c, 0, 64, 53
1, 137871, Control_c, 0, 64, 0
1, 137903, Note_off_c, 0, 56, 44
1, 137924, Note_on_c, 0, 63, 38
1, 137945, Control_c, 0, 64, 23
1, 137960, Control_c, 0, 64, 39
1, 137975, Control_c, 0, 64, 51
1, 137989, Control_c, 0, 64, 58
1, 138004, Control_c, 0, 64, 63
1, 138008, Note_off_c, 0, 59, 42
1, 138019, Control_c, 0, 64, 67
1, 138029, Note_on_c, 0, 51, 41
1, 138034, Control_c, 0, 64, 72
1, 138049, Control_c, 0, 64, 81
1, 138063, Control_c, 0, 64, 92
1, 138078, Control_c, 0, 64, 110
1, 138093, Control_c, 0, 64, 127
1, 138102, Note_on_c, 0, 56, 40
1, 138122, Note_off_c, 0, 63, 28
1, 138124, Note_off_c, 0, 44, 40
1, 138146, Note_off_c, 0, 51, 32
1, 138220, Note_on_c, 0, 59, 39
1, 138226, Control_c, 0, 64, 121
1, 138241, Control_c, 0, 64, 117
1, 138252, Note_off_c, 0, 56, 35
1, 138256, Control_c, 0, 64, 115
1, 138271, Control_c, 0, 64, 113
1, 138282, Note_on_c, 0, 63, 28
1, 138285, Control_c, 0, 64, 112
1, 138300, Control_c, 0, 64, 110
1, 138315, Control_c, 0, 64, 108
1, 138330, Control_c, 0, 64, 107
1, 138333, Note_off_c, 0, 59, 53
1, 138345, Control_c, 0, 64, 107
1, 138360, Control_c, 0, 64, 106
1, 138383, Control_c, 0, 64, 104
1, 138398, Control_c, 0, 64, 102
1, 138413, Note_on_c, 0, 51, 38
1, 138413, Control_c, 0, 64, 99
1, 138428, Control_c, 0, 64, 97
1, 138442, Control_c, 0, 64, 96
1, 138457, Control_c, 0, 64, 95
1, 138486, Control_c, 0, 64, 96
1, 138488, Note_on_c, 0, 56, 34
1, 138501, Control_c, 0, 64, 96
1, 138516, Control_c, 0, 64, 97
1, 138527, Note_off_c, 0, 63, 30
1, 138531, Control_c, 0, 64, 97
1, 138546, Control_c, 0, 64, 98
1, 138560, Control_c, 0, 64, 98
1, 138575, Note_off_c, 0, 51, 23
1, 138575, Control_c, 0, 64, 99
1, 138590, Control_c, 0, 64, 100
1, 138605, Control_c, 0, 64, 101
1, 138613, Note_on_c, 0, 59, 39
1, 138619, Control_c, 0, 64, 102
1, 138634, Control_c, 0, 64, 104
1, 138658, Note_off_c, 0, 56, 37
1, 138665, Control_c, 0, 64, 104
1, 138727, Note_on_c, 0, 63, 10
1, 138762, Note_off_c, 0, 59, 36
1, 138803, Note_on_c, 0, 51, 33
1, 138836, Note_off_c, 0, 63, 30
1, 138868, Note_on_c, 0, 56, 34
1, 138932, Control_c, 0, 64, 104
1, 138942, Note_off_c, 0, 51, 26
1, 138998, Note_on_c, 0, 59, 35
1, 139004, Note_on_c, 0, 71, 48
1, 139019, Note_on_c, 0, 68, 38
1, 139023, Note_off_c, 0, 56, 27
1, 139072, Note_off_c, 0, 59, 55
1, 139078, Note_on_c, 0, 63, 44
1, 139118, Note_off_c, 0, 63, 60
1, 139192, Control_c, 0, 64, 102
1, 139207, Control_c, 0, 64, 96
1, 139221, Control_c, 0, 64, 83
1, 139234, Note_on_c, 0, 70, 48
1, 139236, Control_c, 0, 64, 70
1, 139236, Note_on_c, 0, 73, 63
1, 139241, Note_on_c, 0, 61, 53
1, 139245, Note_on_c, 0, 54, 39
1, 139251, Control_c, 0, 64, 60
1, 139266, Control_c, 0, 64, 50
1, 139272, Note_off_c, 0, 71, 53
1, 139296, Control_c, 0, 64, 54
1, 139310, Control_c, 0, 64, 59
1, 139325, Control_c, 0, 64, 64
1, 139340, Control_c, 0, 64, 67
1, 139355, Control_c, 0, 64, 72
1, 139356, Note_off_c, 0, 61, 57
1, 139370, Control_c, 0, 64, 82
1, 139384, Control_c, 0, 64, 106
1, 139388, Note_on_c, 0, 66, 41
1, 139399, Control_c, 0, 64, 127
1, 139449, Note_off_c, 0, 66, 56
1, 139475, Note_on_c, 0, 75, 75
1, 139487, Note_off_c, 0, 70, 39
1, 139490, Note_off_c, 0, 68, 35
1, 139491, Note_on_c, 0, 71, 45
1, 139508, Note_on_c, 0, 63, 51
1, 139520, Note_on_c, 0, 59, 30
1, 139526, Note_off_c, 0, 54, 44
1, 139576, Note_off_c, 0, 59, 45
1, 139583, Note_on_c, 0, 66, 46
1, 139603, Note_off_c, 0, 73, 49
1, 139636, Control_c, 0, 64, 104
1, 139651, Control_c, 0, 64, 85
1, 139666, Control_c, 0, 64, 67
1, 139672, Note_off_c, 0, 63, 38
1, 139680, Note_on_c, 0, 54, 50
1, 139681, Control_c, 0, 64, 50
1, 139695, Control_c, 0, 64, 0
1, 139740, Control_c, 0, 64, 26
1, 139754, Control_c, 0, 64, 47
1, 139769, Control_c, 0, 64, 58
1, 139778, Note_on_c, 0, 59, 45
1, 139784, Control_c, 0, 64, 64
1, 139786, Note_off_c, 0, 71, 55
1, 139799, Control_c, 0, 64, 70
1, 139814, Control_c, 0, 64, 81
1, 139828, Control_c, 0, 64, 112
1, 139830, Note_off_c, 0, 66, 34
1, 139843, Control_c, 0, 64, 127
1, 139856, Note_off_c, 0, 75, 56
1, 139862, Note_off_c, 0, 54, 33
1, 139885, Note_on_c, 0, 63, 52
1, 139915, Note_off_c, 0, 59, 62
1, 139963, Note_on_c, 0, 66, 52
1, 139991, Note_off_c, 0, 63, 48
1, 140060, Note_on_c, 0, 54, 56
1, 140131, Note_off_c, 0, 54, 58
1, 140150, Note_on_c, 0, 59, 49
1, 140244, Note_on_c, 0, 63, 51
1, 140250, Note_off_c, 0, 66, 37
1, 140274, Note_off_c, 0, 59, 51
1, 140321, Note_off_c, 0, 63, 52
1, 140340, Control_c, 0, 64, 123
1, 140370, Control_c, 0, 64, 121
1, 140376, Poly_aftertouch_c, 0, 66, 127
1, 140430, Poly_aftertouch_c, 0, 66, 0
1, 140451, Note_on_c, 0, 63, 66
1, 140454, Note_on_c, 0, 51, 51
1, 140459, Control_c, 0, 64, 119
1, 140473, Control_c, 0, 64, 118
1, 140487, Note_on_c, 0, 54, 35
1, 140488, Control_c, 0, 64, 116
1, 140503, Control_c, 0, 64, 115
1, 140518, Control_c, 0, 64, 114
1, 140548, Control_c, 0, 64, 113
1, 140578, Control_c, 0, 64, 113
1, 140591, Poly_aftertouch_c, 0, 59, 0
1, 140592, Control_c, 0, 64, 110
1, 140593, Note_off_c, 0, 63, 58
1, 140595, Note_on_c, 0, 66, 17
1, 140607, Control_c, 0, 64, 97
1, 140622, Control_c, 0, 64, 80
1, 140644, Control_c, 0, 64, 67
1, 140652, Note_off_c, 0, 66, 46
1, 140658, Control_c, 0, 64, 56
1, 140660, Note_on_c, 0, 49, 59
1, 140666, Note_on_c, 0, 64, 70
1, 140673, Control_c, 0, 64, 51
1, 140681, Note_on_c, 0, 58, 48
1, 140688, Control_c, 0, 64, 55
1, 140703, Control_c, 0, 64, 58
1, 140718, Control_c, 0, 64, 62
1, 140733, Control_c, 0, 64, 66
1, 140745, Note_off_c, 0, 51, 54
1, 140748, Control_c, 0, 64, 70
1, 140763, Control_c, 0, 64, 77
1, 140772, Note_off_c, 0, 58, 38
1, 140777, Control_c, 0, 64, 95
1, 140793, Control_c, 0, 64, 127
1, 140865, Note_on_c, 0, 63, 74
1, 140867, Note_on_c, 0, 47, 69
1, 140867, Control_c, 0, 64, 98
1, 140882, Control_c, 0, 64, 74
1, 140897, Control_c, 0, 64, 61
1, 140912, Control_c, 0, 64, 50
1, 140921, Note_on_c, 0, 59, 16
1, 140927, Control_c, 0, 64, 54
1, 140927, Note_off_c, 0, 49, 54
1, 140941, Control_c, 0, 64, 61
1, 140954, Note_off_c, 0, 64, 34
1, 140956, Control_c, 0, 64, 66
1, 140962, Note_off_c, 0, 59, 52
1, 140971, Control_c, 0, 64, 73
1, 140985, Note_off_c, 0, 63, 61
1, 140986, Control_c, 0, 64, 85
1, 141000, Note_on_c, 0, 66, 50
1, 141001, Control_c, 0, 64, 127
1, 141047, Note_off_c, 0, 54, 43
1, 141074, Note_off_c, 0, 66, 55
1, 141076, Note_on_c, 0, 42, 75
1, 141083, Note_on_c, 0, 61, 73
1, 141090, Note_on_c, 0, 58, 63
1, 141132, Note_off_c, 0, 47, 51
1, 141134, Control_c, 0, 64, 107
1, 141149, Control_c, 0, 64, 77
1, 141163, Control_c, 0, 64, 63
1, 141178, Control_c, 0, 64, 37
1, 141193, Control_c, 0, 64, 0
1, 141199, Note_on_c, 0, 66, 46
1, 141203, Note_off_c, 0, 58, 56
1, 141281, Control_c, 0, 64, 33
1, 141291, Note_on_c, 0, 54, 53
1, 141296, Control_c, 0, 64, 48
1, 141305, Note_off_c, 0, 61, 55
1, 141311, Control_c, 0, 64, 56
1, 141326, Control_c, 0, 64, 60
1, 141341, Control_c, 0, 64, 65
1, 141356, Control_c, 0, 64, 71
1, 141362, Note_on_c, 0, 58, 48
1, 141371, Control_c, 0, 64, 85
1, 141393, Control_c, 0, 64, 127
1, 141460, Note_off_c, 0, 66, 55
1, 141474, Note_on_c, 0, 61, 61
1, 141478, Note_off_c, 0, 42, 59
1, 141484, Note_off_c, 0, 54, 34
1, 141541, Note_off_c, 0, 58, 56
1, 141587, Note_on_c, 0, 66, 64
1, 141634, Note_off_c, 0, 61, 56
1, 141675, Note_on_c, 0, 54, 60
1, 141752, Note_on_c, 0, 58, 61
1, 141830, Note_off_c, 0, 54, 36
1, 141831, Note_off_c, 0, 66, 48
1, 141843, Note_on_c, 0, 61, 61
1, 141889, Note_off_c, 0, 58, 59
1, 141963, Note_on_c, 0, 66, 58
1, 141988, Note_off_c, 0, 61, 56
1, 142041, Note_on_c, 0, 54, 55
1, 142060, Control_c, 0, 64, 118
1, 142075, Control_c, 0, 64, 114
1, 142090, Control_c, 0, 64, 111
1, 142104, Control_c, 0, 64, 108
1, 142108, Note_on_c, 0, 58, 65
1, 142116, Note_off_c, 0, 66, 52
1, 142119, Control_c, 0, 64, 104
1, 142142, Control_c, 0, 64, 101
1, 142157, Control_c, 0, 64, 100
1, 142172, Control_c, 0, 64, 99
1, 142184, Note_off_c, 0, 54, 36
1, 142201, Control_c, 0, 64, 99
1, 142216, Control_c, 0, 64, 98
1, 142230, Control_c, 0, 64, 96
1, 142245, Control_c, 0, 64, 91
1, 142260, Control_c, 0, 64, 81
1, 142262, Note_on_c, 0, 76, 78
1, 142275, Note_on_c, 0, 73, 66
1, 142275, Control_c, 0, 64, 70
1, 142286, Note_on_c, 0, 61, 65
1, 142290, Control_c, 0, 64, 63
1, 142304, Control_c, 0, 64, 56
1, 142319, Control_c, 0, 64, 57
1, 142334, Control_c, 0, 64, 59
1, 142344, Note_off_c, 0, 58, 54
1, 142349, Control_c, 0, 64, 62
1, 142364, Control_c, 0, 64, 65
1, 142380, Control_c, 0, 64, 68
1, 142395, Control_c, 0, 64, 73
1, 142409, Control_c, 0, 64, 83
1, 142424, Control_c, 0, 64, 100
1, 142439, Control_c, 0, 64, 127
1, 142462, Note_off_c, 0, 61, 58
1, 142514, Poly_aftertouch_c, 0, 66, 127
1, 142517, Note_on_c, 0, 80, 86
1, 142543, Note_on_c, 0, 64, 61
1, 142549, Poly_aftertouch_c, 0, 66, 0
1, 142574, Note_off_c, 0, 73, 30
1, 142676, Control_c, 0, 64, 116
1, 142682, Note_on_c, 0, 66, 36
1, 142691, Control_c, 0, 64, 109
1, 142706, Control_c, 0, 64, 105
1, 142721, Control_c, 0, 64, 102
1, 142724, Note_off_c, 0, 76, 39
1, 142735, Control_c, 0, 64, 97
1, 142750, Control_c, 0, 64, 92
1, 142765, Control_c, 0, 64, 87
1, 142778, Note_on_c, 0, 78, 73
1, 142780, Control_c, 0, 64, 84
1, 142795, Control_c, 0, 64, 82
1, 142799, Note_off_c, 0, 66, 37
1, 142809, Control_c, 0, 64, 81
1, 142816, Note_on_c, 0, 75, 41
1, 142824, Control_c, 0, 64, 79
1, 142825, Note_on_c, 0, 63, 53
1, 142839, Control_c, 0, 64, 78
1, 142844, Note_off_c, 0, 64, 28
1, 142853, Control_c, 0, 64, 75
1, 142868, Control_c, 0, 64, 73
1, 142891, Control_c, 0, 64, 70
1, 142906, Control_c, 0, 64, 68
1, 142921, Control_c, 0, 64, 66
1, 142930, Note_on_c, 0, 66, 36
1, 142935, Control_c, 0, 64, 64
1, 142950, Control_c, 0, 64, 61
1, 142965, Control_c, 0, 64, 55
1, 142980, Control_c, 0, 64, 45
1, 142986, Note_off_c, 0, 63, 37
1, 142989, Note_off_c, 0, 80, 56
1, 142995, Control_c, 0, 64, 36
1, 143009, Control_c, 0, 64, 33
1, 143052, Note_on_c, 0, 54, 45
1, 143053, Control_c, 0, 64, 34
1, 143068, Control_c, 0, 64, 37
1, 143083, Control_c, 0, 64, 42
1, 143098, Control_c, 0, 64, 48
1, 143100, Note_off_c, 0, 66, 48
1, 143113, Control_c, 0, 64, 55
1, 143126, Note_on_c, 0, 59, 38
1, 143127, Control_c, 0, 64, 60
1, 143142, Control_c, 0, 64, 64
1, 143157, Control_c, 0, 64, 67
1, 143172, Control_c, 0, 64, 71
1, 143188, Control_c, 0, 64, 78
1, 143193, Note_off_c, 0, 75, 38
1, 143203, Control_c, 0, 64, 88
1, 143211, Note_off_c, 0, 54, 26
1, 143218, Control_c, 0, 64, 102
1, 143230, Note_off_c, 0, 78, 56
1, 143232, Control_c, 0, 64, 127
1, 143240, Note_on_c, 0, 63, 41
1, 143277, Note_off_c, 0, 59, 38
1, 143339, Note_on_c, 0, 66, 34
1, 143384, Note_off_c, 0, 63, 35
1, 143409, Note_on_c, 0, 54, 41
1, 143497, Note_on_c, 0, 59, 35
1, 143529, Note_off_c, 0, 66, 33
1, 143583, Note_off_c, 0, 54, 24
1, 143602, Note_on_c, 0, 63, 41
1, 143639, Control_c, 0, 64, 123
1, 143654, Control_c, 0, 64, 121
1, 143669, Note_off_c, 0, 59, 33
1, 143669, Control_c, 0, 64, 119
1, 143699, Control_c, 0, 64, 118
1, 143699, Note_on_c, 0, 66, 33
1, 143714, Control_c, 0, 64, 117
1, 143729, Control_c, 0, 64, 116
1, 143743, Control_c, 0, 64, 115
1, 143768, Note_off_c, 0, 63, 34
1, 143773, Control_c, 0, 64, 114
1, 143792, Note_on_c, 0, 54, 43
1, 143817, Control_c, 0, 64, 113
1, 143832, Control_c, 0, 64, 113
1, 143847, Control_c, 0, 64, 111
1, 143862, Control_c, 0, 64, 109
1, 143876, Control_c, 0, 64, 108
1, 143882, Note_on_c, 0, 59, 34
1, 143891, Control_c, 0, 64, 108
1, 143921, Control_c, 0, 64, 107
1, 143922, Note_off_c, 0, 54, 29
1, 143936, Control_c, 0, 64, 107
1, 143950, Control_c, 0, 64, 103
1, 143965, Control_c, 0, 64, 96
1, 143967, Note_off_c, 0, 66, 39
1, 143981, Control_c, 0, 64, 85
1, 143993, Note_on_c, 0, 51, 53
1, 143994, Note_on_c, 0, 63, 43
1, 143996, Control_c, 0, 64, 75
1, 144011, Control_c, 0, 64, 66
1, 144017, Note_on_c, 0, 54, 8
1, 144026, Control_c, 0, 64, 62
1, 144041, Control_c, 0, 64, 61
1, 144055, Control_c, 0, 64, 63
1, 144070, Control_c, 0, 64, 65
1, 144085, Control_c, 0, 64, 68
1, 144099, Control_c, 0, 64, 73
1, 144114, Control_c, 0, 64, 78
1, 144119, Note_off_c, 0, 59, 33
1, 144129, Control_c, 0, 64, 88
1, 144144, Control_c, 0, 64, 100
1, 144158, Note_off_c, 0, 63, 33
1, 144159, Control_c, 0, 64, 111
1, 144166, Poly_aftertouch_c, 0, 66, 127
1, 144173, Control_c, 0, 64, 110
1, 144188, Control_c, 0, 64, 100
1, 144203, Control_c, 0, 64, 86
1, 144211, Note_on_c, 0, 64, 38
1, 144212, Note_on_c, 0, 49, 48
1, 144218, Note_on_c, 0, 58, 42
1, 144218, Control_c, 0, 64, 71
1, 144233, Control_c, 0, 64, 62
1, 144247, Control_c, 0, 64, 55
1, 144256, Note_off_c, 0, 51, 56
1, 144262, Control_c, 0, 64, 56
1, 144277, Control_c, 0, 64, 60
1, 144292, Control_c, 0, 64, 63
1, 144307, Control_c, 0, 64, 65
1, 144322, Control_c, 0, 64, 68
1, 144334, Poly_aftertouch_c, 0, 66, 0
1, 144337, Control_c, 0, 64, 71
1, 144352, Control_c, 0, 64, 75
1, 144367, Control_c, 0, 64, 78
1, 144384, Note_off_c, 0, 54, 29
1, 144388, Control_c, 0, 64, 79
1, 144407, Note_off_c, 0, 58, 28
1, 144418, Control_c, 0, 64, 78
1, 144423, Note_off_c, 0, 64, 30
1, 144432, Control_c, 0, 64, 78
1, 144444, Note_on_c, 0, 47, 46
1, 144455, Note_on_c, 0, 59, 23
1, 144461, Note_on_c, 0, 63, 38
1, 144462, Control_c, 0, 64, 77
1, 144469, Note_off_c, 0, 49, 34
1, 144477, Control_c, 0, 64, 76
1, 144492, Control_c, 0, 64, 75
1, 144507, Control_c, 0, 64, 72
1, 144522, Control_c, 0, 64, 68
1, 144536, Control_c, 0, 64, 63
1, 144551, Control_c, 0, 64, 54
1, 144566, Control_c, 0, 64, 42
1, 144581, Control_c, 0, 64, 38
1, 144587, Note_on_c, 0, 66, 13
1, 144596, Note_off_c, 0, 59, 34
1, 144640, Control_c, 0, 64, 39
1, 144641, Note_off_c, 0, 63, 42
1, 144655, Control_c, 0, 64, 43
1, 144659, Note_on_c, 0, 54, 43
1, 144670, Control_c, 0, 64, 47
1, 144685, Control_c, 0, 64, 54
1, 144699, Control_c, 0, 64, 58
1, 144714, Control_c, 0, 64, 62
1, 144729, Control_c, 0, 64, 65
1, 144744, Control_c, 0, 64, 69
1, 144751, Note_on_c, 0, 59, 33
1, 144757, Note_off_c, 0, 66, 37
1, 144759, Control_c, 0, 64, 75
1, 144764, Note_off_c, 0, 47, 60
1, 144775, Control_c, 0, 64, 82
1, 144790, Control_c, 0, 64, 90
1, 144800, Note_off_c, 0, 54, 29
1, 144804, Control_c, 0, 64, 92
1, 144863, Control_c, 0, 64, 92
1, 144867, Note_on_c, 0, 63, 38
1, 144878, Control_c, 0, 64, 91
1, 144893, Control_c, 0, 64, 91
1, 144908, Control_c, 0, 64, 89
1, 144912, Note_off_c, 0, 59, 34
1, 144922, Control_c, 0, 64, 88
1, 144937, Control_c, 0, 64, 87
1, 144940, Note_on_c, 0, 66, 22
1, 144952, Control_c, 0, 64, 86
1, 144962, Note_off_c, 0, 63, 47
1, 144967, Control_c, 0, 64, 85
1, 144982, Control_c, 0, 64, 85
1, 144996, Control_c, 0, 64, 84
1, 145011, Control_c, 0, 64, 84
1, 145026, Control_c, 0, 64, 83
1, 145034, Note_on_c, 0, 54, 36
1, 145041, Control_c, 0, 64, 81
1, 145055, Control_c, 0, 64, 80
1, 145070, Control_c, 0, 64, 78
1, 145085, Control_c, 0, 64, 78
1, 145100, Control_c, 0, 64, 77
1, 145110, Note_on_c, 0, 59, 26
1, 145115, Control_c, 0, 64, 77
1, 145150, Note_off_c, 0, 66, 34
1, 145152, Control_c, 0, 64, 76
1, 145167, Control_c, 0, 64, 76
1, 145182, Control_c, 0, 64, 75
1, 145197, Control_c, 0, 64, 74
1, 145211, Control_c, 0, 64, 73
1, 145242, Note_off_c, 0, 54, 20
1, 145255, Control_c, 0, 64, 73
1, 145258, Note_on_c, 0, 63, 27
1, 145270, Control_c, 0, 64, 72
1, 145285, Control_c, 0, 64, 72
1, 145300, Control_c, 0, 64, 71
1, 145308, Note_off_c, 0, 59, 42
1, 145315, Control_c, 0, 64, 71
1, 145329, Control_c, 0, 64, 69
1, 145343, Note_on_c, 0, 66, 22
1, 145344, Control_c, 0, 64, 69
1, 145374, Control_c, 0, 64, 69
1, 145389, Control_c, 0, 64, 70
1, 145404, Control_c, 0, 64, 71
1, 145419, Control_c, 0, 64, 72
1, 145425, Note_off_c, 0, 63, 42
1, 145434, Control_c, 0, 64, 74
1, 145448, Control_c, 0, 64, 76
1, 145459, Note_on_c, 0, 75, 50
1, 145463, Control_c, 0, 64, 78
1, 145463, Note_on_c, 0, 54, 27
1, 145478, Control_c, 0, 64, 81
1, 145493, Control_c, 0, 64, 84
1, 145508, Control_c, 0, 64, 88
1, 145522, Control_c, 0, 64, 93
1, 145537, Control_c, 0, 64, 98
1, 145538, Note_on_c, 0, 59, 32
1, 145552, Control_c, 0, 64, 104
1, 145567, Control_c, 0, 64, 116
1, 145583, Control_c, 0, 64, 127
1, 145615, Note_off_c, 0, 66, 38
1, 145653, Note_on_c, 0, 63, 44
1, 145663, Note_on_c, 0, 73, 70
1, 145666, Note_off_c, 0, 54, 43
1, 145705, Note_off_c, 0, 59, 33
1, 145725, Note_on_c, 0, 66, 42
1, 145829, Note_off_c, 0, 63, 37
1, 145842, Note_on_c, 0, 71, 74
1, 145852, Note_on_c, 0, 54, 47
1, 145890, Note_off_c, 0, 75, 56
1, 145920, Note_off_c, 0, 66, 33
1, 145940, Note_on_c, 0, 59, 37
1, 146021, Note_off_c, 0, 73, 51
1, 146034, Note_off_c, 0, 54, 32
1, 146071, Note_on_c, 0, 68, 76
1, 146086, Note_off_c, 0, 59, 35
1, 146093, Note_on_c, 0, 64, 53
1, 146108, Control_c, 0, 64, 121
1, 146123, Control_c, 0, 64, 115
1, 146138, Control_c, 0, 64, 106
1, 146152, Control_c, 0, 64, 92
1, 146167, Control_c, 0, 64, 78
1, 146170, Note_off_c, 0, 71, 54
1, 146182, Control_c, 0, 64, 65
1, 146196, Control_c, 0, 64, 54
1, 146206, Note_on_c, 0, 59, 49
1, 146211, Control_c, 0, 64, 46
1, 146219, Note_off_c, 0, 64, 52
1, 146226, Control_c, 0, 64, 47
1, 146241, Control_c, 0, 64, 49
1, 146255, Note_off_c, 0, 59, 60
1, 146256, Control_c, 0, 64, 52
1, 146271, Control_c, 0, 64, 56
1, 146281, Note_on_c, 0, 56, 54
1, 146285, Control_c, 0, 64, 60
1, 146300, Control_c, 0, 64, 63
1, 146315, Control_c, 0, 64, 66
1, 146330, Control_c, 0, 64, 69
1, 146344, Control_c, 0, 64, 76
1, 146359, Control_c, 0, 64, 88
1, 146375, Note_on_c, 0, 59, 51
1, 146375, Control_c, 0, 64, 111
1, 146376, Note_off_c, 0, 56, 51
1, 146385, Note_off_c, 0, 68, 56
1, 146390, Control_c, 0, 64, 127
1, 146462, Note_on_c, 0, 64, 50
1, 146484, Note_off_c, 0, 59, 56
1, 146534, Note_on_c, 0, 68, 51
1, 146593, Note_off_c, 0, 64, 55
1, 146644, Note_on_c, 0, 56, 56
1, 146729, Note_on_c, 0, 59, 58
1, 146755, Note_off_c, 0, 68, 31
1, 146810, Note_off_c, 0, 56, 33
1, 146835, Note_on_c, 0, 64, 58
1, 146860, Note_off_c, 0, 59, 58
1, 146906, Note_on_c, 0, 68, 47
1, 147002, Note_off_c, 0, 64, 57
1, 147021, Note_on_c, 0, 56, 49
1, 147028, Note_on_c, 0, 52, 77
1, 147104, Note_on_c, 0, 61, 54
1, 147119, Note_off_c, 0, 68, 32
1, 147230, Note_on_c, 0, 51, 83
1, 147233, Note_off_c, 0, 56, 41
1, 147243, Note_on_c, 0, 64, 52
1, 147256, Note_off_c, 0, 61, 50
1, 147312, Note_on_c, 0, 68, 50
1, 147411, Note_off_c, 0, 64, 56
1, 147423, Note_on_c, 0, 49, 82
1, 147434, Note_on_c, 0, 56, 53
1, 147442, Note_off_c, 0, 68, 53
1, 147458, Note_off_c, 0, 52, 53
1, 147493, Note_on_c, 0, 61, 51
1, 147502, Control_c, 0, 64, 112
1, 147517, Control_c, 0, 64, 107
1, 147531, Control_c, 0, 64, 104
1, 147546, Control_c, 0, 64, 102
1, 147561, Control_c, 0, 64, 101
1, 147576, Control_c, 0, 64, 99
1, 147591, Control_c, 0, 64, 96
1, 147605, Control_c, 0, 64, 92
1, 147611, Note_off_c, 0, 51, 56
1, 147620, Control_c, 0, 64, 89
1, 147635, Control_c, 0, 64, 86
1, 147646, Note_on_c, 0, 46, 83
1, 147649, Control_c, 0, 64, 85
1, 147664, Control_c, 0, 64, 83
1, 147679, Control_c, 0, 64, 80
1, 147682, Note_off_c, 0, 56, 41
1, 147694, Control_c, 0, 64, 77
1, 147695, Note_off_c, 0, 61, 34
1, 147696, Note_on_c, 0, 64, 51
1, 147709, Control_c, 0, 64, 73
1, 147723, Control_c, 0, 64, 69
1, 147738, Control_c, 0, 64, 65
1, 147750, Note_on_c, 0, 66, 47
1, 147753, Control_c, 0, 64, 62
1, 147768, Control_c, 0, 64, 57
1, 147783, Control_c, 0, 64, 52
1, 147798, Control_c, 0, 64, 45
1, 147805, Note_off_c, 0, 49, 54
1, 147812, Control_c, 0, 64, 36
1, 147827, Control_c, 0, 64, 24
1, 147842, Control_c, 0, 64, 15
1, 147847, Note_on_c, 0, 54, 55
1, 147857, Control_c, 0, 64, 13
1, 147860, Note_off_c, 0, 64, 39
1, 147887, Control_c, 0, 64, 15
1, 147902, Control_c, 0, 64, 24
1, 147917, Control_c, 0, 64, 38
1, 147931, Control_c, 0, 64, 49
1, 147945, Note_on_c, 0, 61, 53
1, 147946, Control_c, 0, 64, 56
1, 147961, Control_c, 0, 64, 60
1, 147976, Control_c, 0, 64, 63
1, 147985, Note_off_c, 0, 66, 36
1, 147991, Control_c, 0, 64, 66
1, 148006, Control_c, 0, 64, 72
1, 148021, Control_c, 0, 64, 84
1, 148030, Note_off_c, 0, 54, 51
1, 148036, Control_c, 0, 64, 105
1, 148049, Note_on_c, 0, 64, 54
1, 148051, Control_c, 0, 64, 127
1, 148054, Note_off_c, 0, 61, 56
1, 148166, Note_on_c, 0, 66, 42
1, 148225, Note_off_c, 0, 64, 49
1, 148248, Note_on_c, 0, 54, 53
1, 148251, Control_c, 0, 64, 118
1, 148266, Control_c, 0, 64, 105
1, 148280, Control_c, 0, 64, 98
1, 148295, Control_c, 0, 64, 93
1, 148310, Control_c, 0, 64, 90
1, 148310, Note_off_c, 0, 66, 51
1, 148317, Note_on_c, 0, 61, 52
1, 148325, Control_c, 0, 64, 88
1, 148340, Control_c, 0, 64, 87
1, 148354, Control_c, 0, 64, 85
1, 148369, Control_c, 0, 64, 84
1, 148384, Control_c, 0, 64, 81
1, 148398, Control_c, 0, 64, 76
1, 148413, Control_c, 0, 64, 68
1, 148427, Control_c, 0, 64, 61
1, 148442, Control_c, 0, 64, 44
1, 148445, Note_off_c, 0, 54, 21
1, 148457, Control_c, 0, 64, 11
1, 148467, Note_off_c, 0, 61, 56
1, 148471, Control_c, 0, 64, 0
1, 148482, Note_on_c, 0, 47, 75
1, 148499, Note_on_c, 0, 63, 44
1, 148502, Note_off_c, 0, 46, 60
1, 148546, Control_c, 0, 64, 31
1, 148547, Note_off_c, 0, 47, 64
1, 148561, Control_c, 0, 64, 58
1, 148576, Control_c, 0, 64, 69
1, 148590, Control_c, 0, 64, 93
1, 148605, Control_c, 0, 64, 127
1, 148620, Note_on_c, 0, 66, 41
1, 148620, Note_off_c, 0, 63, 53
1, 148695, Note_on_c, 0, 54, 52
1, 148715, Note_on_c, 0, 75, 70
1, 148780, Note_on_c, 0, 59, 38
1, 148824, Note_off_c, 0, 66, 31
1, 148850, Note_off_c, 0, 54, 29
1, 148918, Note_on_c, 0, 76, 79
1, 148928, Note_on_c, 0, 63, 55
1, 148963, Note_off_c, 0, 59, 50
1, 149011, Note_on_c, 0, 66, 47
1, 149075, Note_off_c, 0, 75, 52
1, 149091, Note_off_c, 0, 63, 54
1, 149120, Note_on_c, 0, 77, 93
1, 149128, Note_on_c, 0, 54, 53
1, 149210, Note_on_c, 0, 59, 49
1, 149223, Note_off_c, 0, 66, 35
1, 149225, Note_off_c, 0, 76, 59
1, 149335, Note_off_c, 0, 54, 40
1, 149372, Note_on_c, 0, 78, 90
1, 149388, Note_on_c, 0, 61, 44
1, 149393, Note_off_c, 0, 59, 50
1, 149398, Control_c, 0, 64, 109
1, 149413, Control_c, 0, 64, 99
1, 149428, Control_c, 0, 64, 92
1, 149443, Control_c, 0, 64, 86
1, 149445, Note_on_c, 0, 66, 49
1, 149458, Control_c, 0, 64, 82
1, 149473, Control_c, 0, 64, 79
1, 149487, Control_c, 0, 64, 77
1, 149502, Control_c, 0, 64, 75
1, 149507, Note_off_c, 0, 77, 50
1, 149517, Control_c, 0, 64, 72
1, 149532, Control_c, 0, 64, 70
1, 149547, Control_c, 0, 64, 68
1, 149562, Note_off_c, 0, 61, 36
1, 149562, Control_c, 0, 64, 66
1, 149577, Control_c, 0, 64, 65
1, 149584, Note_on_c, 0, 54, 49
1, 149592, Control_c, 0, 64, 64
1, 149607, Control_c, 0, 64, 64
1, 149629, Control_c, 0, 64, 62
1, 149644, Control_c, 0, 64, 60
1, 149659, Control_c, 0, 64, 56
1, 149673, Control_c, 0, 64, 49
1, 149683, Note_on_c, 0, 59, 42
1, 149688, Control_c, 0, 64, 42
1, 149693, Note_off_c, 0, 66, 35
1, 149703, Control_c, 0, 64, 38
1, 149718, Control_c, 0, 64, 34
1, 149732, Control_c, 0, 64, 32
1, 149762, Control_c, 0, 64, 33
1, 149777, Control_c, 0, 64, 38
1, 149778, Note_off_c, 0, 54, 36
1, 149785, Note_on_c, 0, 61, 47
1, 149792, Control_c, 0, 64, 44
1, 149807, Control_c, 0, 64, 50
1, 149818, Note_off_c, 0, 59, 55
1, 149822, Control_c, 0, 64, 57
1, 149836, Control_c, 0, 64, 62
1, 149851, Control_c, 0, 64, 65
1, 149866, Control_c, 0, 64, 69
1, 149881, Control_c, 0, 64, 74
1, 149886, Note_on_c, 0, 66, 23
1, 149896, Control_c, 0, 64, 81
1, 149911, Control_c, 0, 64, 89
1, 149926, Control_c, 0, 64, 94
1, 149941, Control_c, 0, 64, 95
1, 149956, Control_c, 0, 64, 94
1, 149970, Note_off_c, 0, 61, 36
1, 149979, Note_on_c, 0, 54, 38
1, 149986, Control_c, 0, 64, 93
1, 150000, Control_c, 0, 64, 92
1, 150015, Control_c, 0, 64, 90
1, 150030, Control_c, 0, 64, 89
1, 150044, Control_c, 0, 64, 87
1, 150045, Note_on_c, 0, 59, 38
1, 150059, Control_c, 0, 64, 85
1, 150074, Control_c, 0, 64, 83
1, 150078, Note_off_c, 0, 66, 35
1, 150089, Control_c, 0, 64, 81
1, 150104, Control_c, 0, 64, 79
1, 150118, Control_c, 0, 64, 78
1, 150133, Control_c, 0, 64, 76
1, 150148, Control_c, 0, 64, 75
1, 150159, Note_off_c, 0, 54, 34
1, 150163, Note_on_c, 0, 61, 38
1, 150163, Control_c, 0, 64, 72
1, 150178, Control_c, 0, 64, 69
1, 150192, Control_c, 0, 64, 64
1, 150206, Note_off_c, 0, 59, 34
1, 150207, Control_c, 0, 64, 60
1, 150222, Control_c, 0, 64, 54
1, 150236, Control_c, 0, 64, 52
1, 150245, Note_on_c, 0, 66, 23
1, 150251, Control_c, 0, 64, 53
1, 150266, Control_c, 0, 64, 55
1, 150281, Control_c, 0, 64, 58
1, 150296, Control_c, 0, 64, 59
1, 150310, Control_c, 0, 64, 61
1, 150325, Control_c, 0, 64, 63
1, 150340, Control_c, 0, 64, 65
1, 150355, Control_c, 0, 64, 66
1, 150378, Note_on_c, 0, 54, 24
1, 150379, Control_c, 0, 64, 69
1, 150394, Control_c, 0, 64, 72
1, 150403, Note_off_c, 0, 61, 33
1, 150409, Control_c, 0, 64, 76
1, 150423, Control_c, 0, 64, 80
1, 150438, Control_c, 0, 64, 85
1, 150453, Control_c, 0, 64, 91
1, 150454, Note_on_c, 0, 58, 33
1, 150468, Control_c, 0, 64, 99
1, 150483, Control_c, 0, 64, 104
1, 150497, Control_c, 0, 64, 106
1, 150512, Control_c, 0, 64, 106
1, 150527, Control_c, 0, 64, 107
1, 150532, Note_off_c, 0, 66, 35
1, 150556, Control_c, 0, 64, 107
1, 150557, Note_on_c, 0, 61, 43
1, 150557, Note_off_c, 0, 54, 43
1, 150628, Note_off_c, 0, 58, 37
1, 150645, Control_c, 0, 64, 107
1, 150660, Control_c, 0, 64, 106
1, 150675, Poly_aftertouch_c, 0, 66, 127
1, 150675, Control_c, 0, 64, 105
1, 150690, Control_c, 0, 64, 105
1, 150704, Control_c, 0, 64, 104
1, 150719, Control_c, 0, 64, 104
1, 150734, Control_c, 0, 64, 103
1, 150746, Note_on_c, 0, 54, 33
1, 150749, Control_c, 0, 64, 102
1, 150752, Note_off_c, 0, 61, 34
1, 150764, Control_c, 0, 64, 101
1, 150778, Control_c, 0, 64, 101
1, 150793, Control_c, 0, 64, 100
1, 150808, Control_c, 0, 64, 99
1, 150823, Control_c, 0, 64, 99
1, 150838, Control_c, 0, 64, 98
1, 150850, Note_on_c, 0, 58, 17
1, 150853, Control_c, 0, 64, 98
1, 150882, Control_c, 0, 64, 97
1, 150897, Control_c, 0, 64, 97
1, 150912, Control_c, 0, 64, 96
1, 150913, Poly_aftertouch_c, 0, 66, 0
1, 150927, Control_c, 0, 64, 95
1, 150941, Control_c, 0, 64, 93
1, 150954, Note_on_c, 0, 75, 46
1, 150956, Control_c, 0, 64, 92
1, 150986, Control_c, 0, 64, 92
1, 150990, Note_on_c, 0, 63, 35
1, 151001, Control_c, 0, 64, 91
1, 151015, Control_c, 0, 64, 90
1, 151017, Note_off_c, 0, 58, 37
1, 151019, Note_off_c, 0, 54, 41
1, 151030, Control_c, 0, 64, 88
1, 151045, Control_c, 0, 64, 86
1, 151059, Control_c, 0, 64, 85
1, 151065, Poly_aftertouch_c, 0, 66, 127
1, 151074, Control_c, 0, 64, 85
1, 151089, Control_c, 0, 64, 83
1, 151104, Control_c, 0, 64, 80
1, 151127, Control_c, 0, 64, 74
1, 151141, Control_c, 0, 64, 67
1, 151144, Note_off_c, 0, 78, 31
1, 151156, Control_c, 0, 64, 60
1, 151169, Note_off_c, 0, 63, 51
1, 151172, Control_c, 0, 64, 53
1, 151185, Note_on_c, 0, 54, 27
1, 151187, Control_c, 0, 64, 52
1, 151202, Control_c, 0, 64, 53
1, 151217, Control_c, 0, 64, 55
1, 151232, Control_c, 0, 64, 57
1, 151246, Control_c, 0, 64, 60
1, 151246, Note_on_c, 0, 59, 35
1, 151261, Control_c, 0, 64, 63
1, 151276, Control_c, 0, 64, 66
1, 151279, Poly_aftertouch_c, 0, 66, 0
1, 151291, Control_c, 0, 64, 69
1, 151306, Control_c, 0, 64, 74
1, 151320, Control_c, 0, 64, 81
1, 151335, Control_c, 0, 64, 90
1, 151350, Control_c, 0, 64, 100
1, 151363, Note_on_c, 0, 63, 35
1, 151364, Control_c, 0, 64, 110
1, 151366, Note_off_c, 0, 75, 57
1, 151367, Note_off_c, 0, 54, 43
1, 151379, Control_c, 0, 64, 118
1, 151394, Control_c, 0, 64, 121
1, 151441, Note_off_c, 0, 59, 34
1, 151455, Note_on_c, 0, 66, 11
1, 151483, Control_c, 0, 64, 118
1, 151497, Control_c, 0, 64, 117
1, 151512, Control_c, 0, 64, 114
1, 151527, Control_c, 0, 64, 112
1, 151542, Control_c, 0, 64, 108
1, 151548, Note_on_c, 0, 54, 33
1, 151557, Control_c, 0, 64, 105
1, 151571, Control_c, 0, 64, 104
1, 151586, Control_c, 0, 64, 102
1, 151601, Control_c, 0, 64, 101
1, 151610, Note_on_c, 0, 59, 30
1, 151616, Control_c, 0, 64, 99
1, 151627, Note_off_c, 0, 63, 35
1, 151631, Control_c, 0, 64, 97
1, 151646, Control_c, 0, 64, 96
1, 151661, Control_c, 0, 64, 94
1, 151662, Note_off_c, 0, 66, 37
1, 151676, Control_c, 0, 64, 91
1, 151690, Control_c, 0, 64, 88
1, 151705, Control_c, 0, 64, 86
1, 151720, Control_c, 0, 64, 84
1, 151735, Control_c, 0, 64, 82
1, 151750, Control_c, 0, 64, 81
1, 151758, Note_on_c, 0, 62, 40
1, 151764, Control_c, 0, 64, 80
1, 151779, Control_c, 0, 64, 78
1, 151794, Control_c, 0, 64, 75
1, 151807, Note_off_c, 0, 54, 38
1, 151809, Control_c, 0, 64, 71
1, 151824, Control_c, 0, 64, 65
1, 151827, Note_off_c, 0, 59, 37
1, 151838, Control_c, 0, 64, 60
1, 151853, Control_c, 0, 64, 55
1, 151875, Control_c, 0, 64, 56
1, 151890, Control_c, 0, 64, 56
1, 151905, Control_c, 0, 64, 57
1, 151914, Poly_aftertouch_c, 0, 66, 127
1, 151920, Control_c, 0, 64, 59
1, 151935, Control_c, 0, 64, 60
1, 151950, Control_c, 0, 64, 62
1, 151965, Control_c, 0, 64, 64
1, 151974, Note_on_c, 0, 54, 28
1, 151980, Control_c, 0, 64, 66
1, 151995, Control_c, 0, 64, 68
1, 151998, Note_on_c, 0, 47, 33
1, 152010, Control_c, 0, 64, 72
1, 152024, Control_c, 0, 64, 78
1, 152039, Control_c, 0, 64, 86
1, 152054, Control_c, 0, 64, 98
1, 152068, Note_off_c, 0, 62, 30
1, 152069, Control_c, 0, 64, 111
1, 152084, Control_c, 0, 64, 127
1, 152099, Note_on_c, 0, 59, 29
1, 152190, Poly_aftertouch_c, 0, 66, 0
1, 152197, Note_on_c, 0, 49, 57
1, 152239, Note_on_c, 0, 62, 40
1, 152242, Note_off_c, 0, 54, 42
1, 152271, Note_off_c, 0, 59, 43
1, 152333, Note_off_c, 0, 47, 47
1, 152358, Note_on_c, 0, 66, 21
1, 152390, Note_off_c, 0, 62, 54
1, 152397, Note_on_c, 0, 50, 71
1, 152416, Note_on_c, 0, 54, 45
1, 152470, Note_off_c, 0, 49, 59
1, 152501, Note_on_c, 0, 59, 38
1, 152513, Note_off_c, 0, 66, 38
1, 152626, Note_on_c, 0, 42, 74
1, 152627, Note_off_c, 0, 54, 21
1, 152645, Note_on_c, 0, 61, 50
1, 152666, Note_off_c, 0, 59, 38
1, 152698, Control_c, 0, 64, 106
1, 152713, Control_c, 0, 64, 94
1, 152721, Note_off_c, 0, 50, 53
1, 152723, Note_on_c, 0, 66, 41
1, 152728, Control_c, 0, 64, 82
1, 152743, Control_c, 0, 64, 72
1, 152758, Control_c, 0, 64, 63
1, 152773, Control_c, 0, 64, 55
1, 152788, Control_c, 0, 64, 53
1, 152813, Note_on_c, 0, 54, 54
1, 152817, Control_c, 0, 64, 53
1, 152820, Note_off_c, 0, 61, 37
1, 152832, Control_c, 0, 64, 55
1, 152847, Control_c, 0, 64, 58
1, 152862, Control_c, 0, 64, 61
1, 152877, Control_c, 0, 64, 64
1, 152891, Control_c, 0, 64, 68
1, 152892, Note_on_c, 0, 59, 51
1, 152906, Control_c, 0, 64, 73
1, 152921, Control_c, 0, 64, 81
1, 152935, Control_c, 0, 64, 95
1, 152950, Control_c, 0, 64, 127
1, 152980, Note_off_c, 0, 66, 28
1, 153006, Note_on_c, 0, 61, 55
1, 153006, Note_off_c, 0, 54, 40
1, 153044, Note_off_c, 0, 59, 61
1, 153095, Note_on_c, 0, 66, 48
1, 153168, Note_on_c, 0, 54, 51
1, 153175, Note_off_c, 0, 61, 36
1, 153253, Note_on_c, 0, 59, 54
1, 153345, Note_off_c, 0, 66, 31
1, 153372, Control_c, 0, 64, 119
1, 153381, Note_on_c, 0, 61, 57
1, 153387, Control_c, 0, 64, 92
1, 153390, Note_off_c, 0, 54, 41
1, 153402, Control_c, 0, 64, 78
1, 153417, Control_c, 0, 64, 67
1, 153431, Control_c, 0, 64, 61
1, 153444, Note_off_c, 0, 59, 52
1, 153446, Control_c, 0, 64, 60
1, 153461, Control_c, 0, 64, 62
1, 153470, Note_on_c, 0, 66, 40
1, 153476, Control_c, 0, 64, 64
1, 153491, Control_c, 0, 64, 67
1, 153506, Control_c, 0, 64, 70
1, 153521, Control_c, 0, 64, 74
1, 153536, Control_c, 0, 64, 81
1, 153541, Note_on_c, 0, 54, 45
1, 153550, Control_c, 0, 64, 91
1, 153566, Control_c, 0, 64, 107
1, 153580, Control_c, 0, 64, 127
1, 153610, Note_off_c, 0, 61, 50
1, 153641, Note_on_c, 0, 58, 52
1, 153754, Note_off_c, 0, 66, 34
1, 153762, Note_on_c, 0, 61, 50
1, 153764, Note_off_c, 0, 54, 43
1, 153776, Note_off_c, 0, 58, 49
1, 153828, Note_on_c, 0, 66, 22
1, 153914, Note_off_c, 0, 61, 46
1, 153941, Note_on_c, 0, 54, 44
1, 154010, Note_on_c, 0, 58, 44
1, 154044, Note_off_c, 0, 66, 37
1, 154099, Control_c, 0, 64, 118
1, 154122, Control_c, 0, 64, 111
1, 154137, Control_c, 0, 64, 107
1, 154152, Control_c, 0, 64, 102
1, 154166, Control_c, 0, 64, 100
1, 154173, Note_on_c, 0, 35, 55
1, 154181, Control_c, 0, 64, 98
1, 154190, Note_off_c, 0, 54, 40
1, 154196, Control_c, 0, 64, 96
1, 154203, Note_on_c, 0, 63, 39
1, 154211, Control_c, 0, 64, 94
1, 154217, Note_off_c, 0, 58, 34
1, 154226, Control_c, 0, 64, 89
1, 154240, Control_c, 0, 64, 83
1, 154255, Control_c, 0, 64, 75
1, 154270, Control_c, 0, 64, 67
1, 154284, Note_on_c, 0, 66, 28
1, 154284, Control_c, 0, 64, 58
1, 154299, Control_c, 0, 64, 49
1, 154314, Control_c, 0, 64, 47
1, 154348, Note_off_c, 0, 42, 57
1, 154359, Control_c, 0, 64, 48
1, 154367, Note_on_c, 0, 54, 46
1, 154375, Control_c, 0, 64, 49
1, 154379, Note_off_c, 0, 63, 35
1, 154389, Control_c, 0, 64, 50
1, 154404, Control_c, 0, 64, 52
1, 154419, Control_c, 0, 64, 55
1, 154434, Control_c, 0, 64, 58
1, 154443, Note_off_c, 0, 66, 42
1, 154449, Control_c, 0, 64, 60
1, 154454, Note_on_c, 0, 59, 38
1, 154463, Control_c, 0, 64, 62
1, 154478, Control_c, 0, 64, 65
1, 154493, Control_c, 0, 64, 70
1, 154508, Control_c, 0, 64, 78
1, 154522, Control_c, 0, 64, 88
1, 154537, Control_c, 0, 64, 103
1, 154552, Control_c, 0, 64, 127
1, 154594, Note_off_c, 0, 54, 35
1, 154595, Note_on_c, 0, 63, 49
1, 154644, Note_off_c, 0, 59, 36
1, 154646, Note_off_c, 0, 35, 58
1, 154693, Note_on_c, 0, 66, 38
1, 154761, Note_on_c, 0, 54, 48
1, 154774, Note_off_c, 0, 63, 33
1, 154804, Control_c, 0, 64, 118
1, 154819, Control_c, 0, 64, 110
1, 154834, Control_c, 0, 64, 104
1, 154849, Control_c, 0, 64, 99
1, 154851, Note_on_c, 0, 59, 43
1, 154864, Note_off_c, 0, 66, 41
1, 154871, Control_c, 0, 64, 96
1, 154886, Control_c, 0, 64, 94
1, 154901, Control_c, 0, 64, 92
1, 154915, Control_c, 0, 64, 90
1, 154930, Control_c, 0, 64, 88
1, 154945, Control_c, 0, 64, 87
1, 154960, Control_c, 0, 64, 87
1, 154973, Note_on_c, 0, 63, 43
1, 154982, Note_off_c, 0, 54, 42
1, 155004, Control_c, 0, 64, 86
1, 155019, Control_c, 0, 64, 83
1, 155023, Note_off_c, 0, 59, 35
1, 155034, Control_c, 0, 64, 79
1, 155049, Control_c, 0, 64, 76
1, 155063, Control_c, 0, 64, 73
1, 155068, Note_on_c, 0, 66, 37
1, 155078, Control_c, 0, 64, 71
1, 155107, Control_c, 0, 64, 72
1, 155122, Control_c, 0, 64, 74
1, 155137, Control_c, 0, 64, 76
1, 155152, Control_c, 0, 64, 79
1, 155154, Note_on_c, 0, 54, 40
1, 155160, Note_on_c, 0, 75, 59
1, 155168, Control_c, 0, 64, 85
1, 155183, Control_c, 0, 64, 94
1, 155198, Control_c, 0, 64, 105
1, 155205, Note_off_c, 0, 63, 27
1, 155212, Control_c, 0, 64, 127
1, 155240, Note_on_c, 0, 59, 38
1, 155247, Note_off_c, 0, 66, 39
1, 155267, Note_off_c, 0, 75, 62
1, 155345, Note_off_c, 0, 54, 30
1, 155348, Note_on_c, 0, 75, 85
1, 155358, Note_on_c, 0, 63, 52
1, 155371, Note_off_c, 0, 59, 57
1, 155444, Note_on_c, 0, 66, 40
1, 155515, Note_on_c, 0, 54, 50
1, 155524, Note_off_c, 0, 66, 55
1, 155540, Note_on_c, 0, 76, 89
1, 155555, Note_off_c, 0, 63, 45
1, 155571, Note_off_c, 0, 54, 61
1, 155596, Note_off_c, 0, 75, 60
1, 155599, Note_on_c, 0, 59, 49
1, 155764, Note_off_c, 0, 59, 37
1, 155770, Note_on_c, 0, 75, 82
1, 155775, Note_on_c, 0, 73, 69
1, 155783, Control_c, 0, 64, 105
1, 155783, Note_on_c, 0, 70, 62
1, 155798, Control_c, 0, 64, 80
1, 155812, Control_c, 0, 64, 64
1, 155813, Note_off_c, 0, 76, 59
1, 155827, Control_c, 0, 64, 45
1, 155833, Note_on_c, 0, 67, 45
1, 155842, Control_c, 0, 64, 29
1, 155857, Control_c, 0, 64, 30
1, 155872, Control_c, 0, 64, 35
1, 155886, Control_c, 0, 64, 44
1, 155901, Control_c, 0, 64, 51
1, 155916, Control_c, 0, 64, 58
1, 155930, Control_c, 0, 64, 63
1, 155945, Control_c, 0, 64, 67
1, 155947, Poly_aftertouch_c, 0, 63, 0
1, 155961, Control_c, 0, 64, 75
1, 155974, Note_off_c, 0, 70, 52
1, 155976, Control_c, 0, 64, 91
1, 155986, Note_on_c, 0, 55, 49
1, 155989, Note_off_c, 0, 73, 58
1, 155991, Control_c, 0, 64, 127
1, 156049, Note_off_c, 0, 67, 31
1, 156084, Note_on_c, 0, 58, 42
1, 156208, Note_on_c, 0, 70, 70
1, 156232, Note_off_c, 0, 58, 36
1, 156234, Note_off_c, 0, 55, 39
1, 156247, Note_on_c, 0, 63, 42
1, 156257, Note_off_c, 0, 75, 57
1, 156311, Note_on_c, 0, 67, 40
1, 156317, Note_off_c, 0, 70, 62
1, 156368, Note_off_c, 0, 63, 42
1, 156430, Note_on_c, 0, 55, 45
1, 156507, Note_off_c, 0, 67, 32
1, 156510, Note_on_c, 0, 58, 47
1, 156517, Note_off_c, 0, 55, 42
1, 156611, Note_on_c, 0, 63, 48
1, 156613, Note_off_c, 0, 58, 52
1, 156688, Note_on_c, 0, 67, 36
1, 156707, Control_c, 0, 64, 107
1, 156722, Control_c, 0, 64, 88
1, 156737, Control_c, 0, 64, 76
1, 156753, Control_c, 0, 64, 68
1, 156764, Note_off_c, 0, 63, 41
1, 156768, Control_c, 0, 64, 65
1, 156775, Note_off_c, 0, 67, 48
1, 156779, Note_on_c, 0, 51, 64
1, 156779, Note_on_c, 0, 55, 42
1, 156782, Control_c, 0, 64, 64
1, 156791, Note_on_c, 0, 39, 55
1, 156797, Control_c, 0, 64, 66
1, 156812, Control_c, 0, 64, 68
1, 156827, Control_c, 0, 64, 72
1, 156842, Control_c, 0, 64, 79
1, 156856, Control_c, 0, 64, 91
1, 156858, Note_on_c, 0, 58, 55
1, 156871, Control_c, 0, 64, 127
1, 156895, Note_off_c, 0, 51, 60
1, 156899, Note_off_c, 0, 39, 60
1, 156975, Note_on_c, 0, 51, 81
1, 156978, Note_on_c, 0, 63, 54
1, 156978, Note_off_c, 0, 55, 40
1, 156984, Note_on_c, 0, 39, 67
1, 156985, Note_off_c, 0, 58, 54
1, 157032, Note_on_c, 0, 67, 62
1, 157053, Note_off_c, 0, 51, 64
1, 157089, Note_off_c, 0, 39, 63
1, 157155, Note_on_c, 0, 55, 53
1, 157157, Note_off_c, 0, 63, 36
1, 157169, Note_on_c, 0, 46, 83
1, 157169, Note_on_c, 0, 34, 78
1, 157207, Note_on_c, 0, 58, 61
1, 157211, Note_off_c, 0, 67, 61
1, 157234, Note_off_c, 0, 46, 58
1, 157276, Note_off_c, 0, 55, 56
1, 157308, Note_off_c, 0, 34, 31
1, 157357, Note_off_c, 0, 58, 59
1, 157369, Note_on_c, 0, 35, 72
1, 157372, Note_on_c, 0, 47, 76
1, 157380, Note_on_c, 0, 63, 54
1, 157383, Control_c, 0, 64, 87
1, 157398, Control_c, 0, 64, 69
1, 157413, Control_c, 0, 64, 53
1, 157428, Control_c, 0, 64, 0
1, 157468, Note_on_c, 0, 68, 55
1, 157487, Control_c, 0, 64, 20
1, 157502, Control_c, 0, 64, 41
1, 157516, Control_c, 0, 64, 55
1, 157527, Note_off_c, 0, 63, 55
1, 157531, Control_c, 0, 64, 62
1, 157546, Control_c, 0, 64, 68
1, 157562, Control_c, 0, 64, 77
1, 157572, Note_off_c, 0, 47, 58
1, 157577, Control_c, 0, 64, 97
1, 157584, Note_on_c, 0, 56, 51
1, 157592, Control_c, 0, 64, 127
1, 157667, Note_on_c, 0, 59, 42
1, 157672, Note_off_c, 0, 68, 36
1, 157748, Note_off_c, 0, 56, 27
1, 157783, Note_on_c, 0, 32, 59
1, 157784, Note_on_c, 0, 44, 61
1, 157784, Control_c, 0, 64, 111
1, 157798, Control_c, 0, 64, 91
1, 157807, Note_on_c, 0, 63, 51
1, 157813, Control_c, 0, 64, 73
1, 157828, Control_c, 0, 64, 57
1, 157830, Note_off_c, 0, 35, 40
1, 157831, Note_off_c, 0, 59, 38
1, 157843, Control_c, 0, 64, 26
1, 157866, Control_c, 0, 64, 19
1, 157880, Control_c, 0, 64, 28
1, 157895, Control_c, 0, 64, 42
1, 157908, Note_on_c, 0, 68, 37
1, 157910, Control_c, 0, 64, 54
1, 157925, Control_c, 0, 64, 62
1, 157936, Note_off_c, 0, 32, 62
1, 157939, Control_c, 0, 64, 66
1, 157954, Control_c, 0, 64, 74
1, 157969, Control_c, 0, 64, 91
1, 157975, Note_off_c, 0, 63, 40
1, 157983, Note_off_c, 0, 44, 63
1, 157984, Control_c, 0, 64, 127
1, 157991, Note_on_c, 0, 56, 54
1, 158071, Note_on_c, 0, 59, 54
1, 158082, Note_off_c, 0, 68, 39
1, 158107, Note_off_c, 0, 56, 35
1, 158179, Note_on_c, 0, 63, 54
1, 158206, Control_c, 0, 64, 110
1, 158220, Note_off_c, 0, 59, 38
1, 158221, Control_c, 0, 64, 100
1, 158236, Control_c, 0, 64, 91
1, 158246, Note_on_c, 0, 68, 52
1, 158251, Control_c, 0, 64, 85
1, 158266, Control_c, 0, 64, 83
1, 158280, Control_c, 0, 64, 85
1, 158295, Control_c, 0, 64, 88
1, 158310, Control_c, 0, 64, 92
1, 158311, Note_off_c, 0, 63, 52
1, 158324, Control_c, 0, 64, 99
1, 158339, Control_c, 0, 64, 114
1, 158348, Note_on_c, 0, 75, 80
1, 158356, Control_c, 0, 64, 127
1, 158363, Note_on_c, 0, 56, 52
1, 158364, Note_on_c, 0, 71, 60
1, 158413, Note_on_c, 0, 59, 61
1, 158416, Note_off_c, 0, 68, 37
1, 158427, Note_off_c, 0, 75, 59
1, 158436, Note_off_c, 0, 71, 60
1, 158445, Note_off_c, 0, 56, 53
1, 158531, Note_on_c, 0, 63, 53
1, 158534, Note_off_c, 0, 59, 56
1, 158537, Note_on_c, 0, 75, 89
1, 158544, Note_on_c, 0, 71, 79
1, 158596, Note_on_c, 0, 68, 62
1, 158623, Note_off_c, 0, 71, 55
1, 158644, Note_off_c, 0, 75, 61
1, 158685, Note_off_c, 0, 63, 49
1, 158698, Note_on_c, 0, 56, 59
1, 158724, Note_on_c, 0, 76, 97
1, 158733, Note_on_c, 0, 71, 77
1, 158740, Note_off_c, 0, 68, 52
1, 158764, Note_off_c, 0, 71, 56
1, 158764, Note_off_c, 0, 56, 64
1, 158765, Note_on_c, 0, 59, 56
1, 158840, Note_off_c, 0, 76, 61
1, 158924, Note_on_c, 0, 75, 90
1, 158925, Control_c, 0, 64, 97
1, 158931, Note_on_c, 0, 70, 80
1, 158932, Note_off_c, 0, 59, 57
1, 158935, Note_on_c, 0, 73, 77
1, 158940, Control_c, 0, 64, 69
1, 158954, Control_c, 0, 64, 52
1, 158963, Note_on_c, 0, 63, 57
1, 158969, Control_c, 0, 64, 16
1, 158984, Control_c, 0, 64, 0
1, 159003, Note_on_c, 0, 67, 53
1, 159014, Control_c, 0, 64, 12
1, 159028, Control_c, 0, 64, 40
1, 159043, Control_c, 0, 64, 57
1, 159052, Note_off_c, 0, 70, 61
1, 159058, Control_c, 0, 64, 66
1, 159073, Control_c, 0, 64, 76
1, 159088, Control_c, 0, 64, 112
1, 159098, Note_off_c, 0, 73, 59
1, 159099, Note_off_c, 0, 63, 52
1, 159102, Control_c, 0, 64, 127
1, 159136, Note_on_c, 0, 55, 63
1, 159205, Note_off_c, 0, 67, 35
1, 159236, Note_on_c, 0, 58, 53
1, 159310, Note_on_c, 0, 70, 80
1, 159360, Note_on_c, 0, 63, 52
1, 159378, Note_off_c, 0, 75, 59
1, 159396, Note_off_c, 0, 55, 36
1, 159410, Note_off_c, 0, 58, 37
1, 159421, Note_off_c, 0, 70, 63
1, 159431, Note_on_c, 0, 67, 61
1, 159473, Note_off_c, 0, 63, 57
1, 159521, Note_on_c, 0, 55, 60
1, 159612, Note_on_c, 0, 58, 60
1, 159679, Note_off_c, 0, 67, 37
1, 159697, Note_on_c, 0, 63, 64
1, 159717, Note_off_c, 0, 55, 31
1, 159749, Note_off_c, 0, 58, 50
1, 159808, Note_on_c, 0, 67, 52
1, 159844, Note_off_c, 0, 63, 57
1, 159851, Control_c, 0, 64, 119
1, 159866, Control_c, 0, 64, 123
1, 159867, Note_on_c, 0, 51, 81
1, 159871, Note_on_c, 0, 39, 74
1, 159881, Control_c, 0, 64, 127
1, 159891, Note_on_c, 0, 55, 62
1, 159969, Note_on_c, 0, 58, 68
1, 159969, Note_off_c, 0, 39, 58
1, 159976, Note_off_c, 0, 51, 60
1, 159998, Note_off_c, 0, 67, 35
1, 160028, Note_off_c, 0, 55, 52
1, 160055, Note_on_c, 0, 51, 88
1, 160062, Note_on_c, 0, 39, 79
1, 160079, Note_on_c, 0, 63, 71
1, 160119, Note_off_c, 0, 58, 61
1, 160127, Note_off_c, 0, 51, 66
1, 160181, Note_off_c, 0, 39, 60
1, 160183, Note_on_c, 0, 67, 73
1, 160233, Note_off_c, 0, 63, 59
1, 160253, Note_on_c, 0, 55, 73
1, 160254, Note_on_c, 0, 46, 86
1, 160255, Note_on_c, 0, 34, 81
1, 160294, Note_off_c, 0, 46, 58
1, 160311, Note_off_c, 0, 34, 58
1, 160322, Note_off_c, 0, 67, 62
1, 160335, Note_on_c, 0, 58, 66
1, 160397, Note_off_c, 0, 55, 60
1, 160443, Note_on_c, 0, 47, 97
1, 160445, Note_on_c, 0, 35, 86
1, 160452, Control_c, 0, 64, 77
1, 160466, Note_on_c, 0, 63, 68
1, 160467, Control_c, 0, 64, 50
1, 160481, Control_c, 0, 64, 0
1, 160485, Note_off_c, 0, 58, 58
1, 160550, Note_on_c, 0, 68, 62
1, 160571, Control_c, 0, 64, 42
1, 160586, Control_c, 0, 64, 59
1, 160600, Control_c, 0, 64, 66
1, 160615, Control_c, 0, 64, 77
1, 160630, Control_c, 0, 64, 98
1, 160633, Note_off_c, 0, 63, 52
1, 160645, Note_on_c, 0, 56, 72
1, 160645, Control_c, 0, 64, 127
1, 160651, Note_off_c, 0, 47, 58
1, 160718, Note_on_c, 0, 59, 67
1, 160732, Note_off_c, 0, 68, 51
1, 160804, Note_off_c, 0, 56, 54
1, 160831, Note_off_c, 0, 35, 53
1, 160854, Note_on_c, 0, 32, 71
1, 160856, Note_on_c, 0, 44, 83
1, 160860, Control_c, 0, 64, 89
1, 160868, Note_on_c, 0, 63, 63
1, 160875, Control_c, 0, 64, 68
1, 160890, Control_c, 0, 64, 45
1, 160905, Control_c, 0, 64, 0
1, 160913, Note_off_c, 0, 59, 59
1, 160943, Note_on_c, 0, 68, 61
1, 160964, Control_c, 0, 64, 19
1, 160979, Control_c, 0, 64, 47
1, 160994, Control_c, 0, 64, 60
1, 160997, Note_off_c, 0, 32, 62
1, 160997, Note_off_c, 0, 63, 56
1, 161009, Control_c, 0, 64, 67
1, 161023, Control_c, 0, 64, 78
1, 161038, Control_c, 0, 64, 112
1, 161042, Note_on_c, 0, 56, 72
1, 161053, Control_c, 0, 64, 127
1, 161059, Note_off_c, 0, 44, 63
1, 161061, Poly_aftertouch_c, 0, 45, 127
1, 161088, Poly_aftertouch_c, 0, 45, 0
1, 161119, Note_on_c, 0, 59, 69
1, 161124, Note_off_c, 0, 68, 50
1, 161177, Note_off_c, 0, 56, 55
1, 161231, Note_on_c, 0, 63, 67
1, 161281, Note_off_c, 0, 59, 60
1, 161312, Note_on_c, 0, 68, 65
1, 161320, Control_c, 0, 64, 117
1, 161335, Control_c, 0, 64, 96
1, 161349, Control_c, 0, 64, 83
1, 161364, Control_c, 0, 64, 74
1, 161375, Note_off_c, 0, 63, 57
1, 161379, Control_c, 0, 64, 69
1, 161394, Control_c, 0, 64, 66
1, 161405, Note_on_c, 0, 56, 60
1, 161409, Control_c, 0, 64, 67
1, 161417, Note_on_c, 0, 75, 81
1, 161423, Control_c, 0, 64, 69
1, 161438, Control_c, 0, 64, 73
1, 161453, Control_c, 0, 64, 80
1, 161468, Control_c, 0, 64, 89
1, 161478, Note_on_c, 0, 59, 55
1, 161483, Control_c, 0, 64, 111
1, 161487, Note_off_c, 0, 68, 36
1, 161498, Control_c, 0, 64, 127
1, 161500, Note_off_c, 0, 75, 59
1, 161554, Note_off_c, 0, 56, 30
1, 161587, Note_on_c, 0, 63, 59
1, 161605, Note_on_c, 0, 75, 102
1, 161630, Note_off_c, 0, 59, 56
1, 161650, Note_on_c, 0, 76, 32
1, 161680, Note_on_c, 0, 68, 63
1, 161680, Note_off_c, 0, 76, 46
1, 161693, Note_off_c, 0, 75, 59
1, 161738, Note_off_c, 0, 63, 58
1, 161775, Note_on_c, 0, 75, 99
1, 161777, Note_on_c, 0, 56, 68
1, 161829, Note_off_c, 0, 75, 59
1, 161844, Note_off_c, 0, 68, 37
1, 161872, Note_on_c, 0, 59, 49
1, 161945, Note_off_c, 0, 56, 37
1, 161951, Control_c, 0, 64, 86
1, 161966, Control_c, 0, 64, 64
1, 161980, Note_on_c, 0, 76, 104
1, 161980, Control_c, 0, 64, 23
1, 161995, Control_c, 0, 64, 0
1, 162003, Note_on_c, 0, 64, 66
1, 162018, Note_off_c, 0, 59, 56
1, 162025, Control_c, 0, 64, 42
1, 162040, Control_c, 0, 64, 62
1, 162054, Control_c, 0, 64, 75
1, 162058, Note_off_c, 0, 76, 66
1, 162069, Control_c, 0, 64, 127
1, 162094, Note_on_c, 0, 68, 70
1, 162180, Note_on_c, 0, 56, 69
1, 162188, Note_off_c, 0, 64, 56
1, 162254, Note_off_c, 0, 68, 58
1, 162260, Note_on_c, 0, 59, 67
1, 162318, Note_off_c, 0, 56, 54
1, 162381, Note_on_c, 0, 40, 92
1, 162389, Control_c, 0, 64, 84
1, 162403, Control_c, 0, 64, 61
1, 162407, Note_on_c, 0, 64, 55
1, 162415, Note_off_c, 0, 59, 60
1, 162418, Control_c, 0, 64, 0
1, 162437, Note_on_c, 0, 68, 64
1, 162463, Control_c, 0, 64, 46
1, 162477, Control_c, 0, 64, 62
1, 162492, Control_c, 0, 64, 73
1, 162507, Control_c, 0, 64, 110
1, 162522, Control_c, 0, 64, 127
1, 162526, Note_on_c, 0, 56, 74
1, 162526, Note_off_c, 0, 64, 38
1, 162602, Note_off_c, 0, 68, 52
1, 162604, Note_off_c, 0, 56, 63
1, 162614, Note_on_c, 0, 59, 68
1, 162684, Control_c, 0, 64, 116
1, 162699, Control_c, 0, 64, 73
1, 162714, Control_c, 0, 64, 49
1, 162729, Control_c, 0, 64, 0
1, 162733, Note_on_c, 0, 64, 63
1, 162736, Note_off_c, 0, 59, 55
1, 162744, Control_c, 0, 64, 15
1, 162758, Note_off_c, 0, 40, 62
1, 162759, Control_c, 0, 64, 54
1, 162774, Control_c, 0, 64, 64
1, 162788, Control_c, 0, 64, 75
1, 162803, Control_c, 0, 64, 110
1, 162810, Note_on_c, 0, 69, 69
1, 162818, Control_c, 0, 64, 127
1, 162859, Note_off_c, 0, 64, 59
1, 162905, Note_on_c, 0, 57, 72
1, 162951, Note_off_c, 0, 69, 54
1, 162972, Note_on_c, 0, 60, 65
1, 163008, Note_off_c, 0, 57, 51
1, 163066, Note_on_c, 0, 72, 91
1, 163080, Note_on_c, 0, 64, 55
1, 163096, Note_off_c, 0, 60, 57
1, 163141, Note_on_c, 0, 69, 68
1, 163173, Note_off_c, 0, 64, 61
1, 163223, Note_on_c, 0, 57, 59
1, 163282, Note_off_c, 0, 69, 60
1, 163289, Note_on_c, 0, 60, 64
1, 163296, Note_off_c, 0, 57, 60
1, 163346, Note_on_c, 0, 74, 87
1, 163371, Note_off_c, 0, 72, 63
1, 163388, Control_c, 0, 64, 98
1, 163397, Note_off_c, 0, 60, 62
1, 163397, Note_on_c, 0, 64, 56
1, 163403, Control_c, 0, 64, 67
1, 163417, Control_c, 0, 64, 0
1, 163429, Note_on_c, 0, 76, 100
1, 163441, Note_off_c, 0, 74, 58
1, 163477, Control_c, 0, 64, 42
1, 163492, Control_c, 0, 64, 62
1, 163495, Note_on_c, 0, 68, 67
1, 163507, Control_c, 0, 64, 76
1, 163508, Note_off_c, 0, 76, 68
1, 163513, Note_off_c, 0, 64, 58
1, 163522, Control_c, 0, 64, 127
1, 163619, Note_on_c, 0, 56, 75
1, 163696, Note_off_c, 0, 68, 59
1, 163702, Note_on_c, 0, 59, 63
1, 163783, Note_off_c, 0, 56, 54
1, 163788, Control_c, 0, 64, 93
1, 163795, Note_on_c, 0, 40, 93
1, 163803, Control_c, 0, 64, 65
1, 163817, Control_c, 0, 64, 0
1, 163829, Note_on_c, 0, 64, 60
1, 163870, Note_off_c, 0, 59, 59
1, 163870, Control_c, 0, 64, 38
1, 163885, Control_c, 0, 64, 61
1, 163897, Note_on_c, 0, 68, 60
1, 163900, Control_c, 0, 64, 69
1, 163914, Control_c, 0, 64, 86
1, 163929, Control_c, 0, 64, 127
1, 163984, Note_off_c, 0, 64, 58
1, 163996, Note_on_c, 0, 56, 71
1, 164049, Note_off_c, 0, 68, 55
1, 164069, Note_on_c, 0, 59, 71
1, 164070, Note_off_c, 0, 56, 64
1, 164122, Control_c, 0, 64, 81
1, 164137, Control_c, 0, 64, 60
1, 164152, Control_c, 0, 64, 0
1, 164167, Control_c, 0, 64, 29
1, 164182, Note_on_c, 0, 64, 75
1, 164182, Control_c, 0, 64, 56
1, 164191, Note_off_c, 0, 40, 64
1, 164196, Control_c, 0, 64, 66
1, 164211, Control_c, 0, 64, 81
1, 164212, Note_off_c, 0, 59, 60
1, 164226, Control_c, 0, 64, 127
1, 164250, Note_on_c, 0, 69, 81
1, 164297, Note_off_c, 0, 64, 60
1, 164339, Note_on_c, 0, 57, 77
1, 164401, Note_off_c, 0, 69, 42
1, 164407, Note_on_c, 0, 60, 70
1, 164474, Note_off_c, 0, 57, 53
1, 164481, Note_on_c, 0, 72, 92
1, 164515, Note_on_c, 0, 64, 62
1, 164541, Note_off_c, 0, 60, 63
1, 164574, Note_on_c, 0, 69, 70
1, 164619, Note_off_c, 0, 64, 63
1, 164658, Note_on_c, 0, 57, 67
1, 164712, Note_off_c, 0, 69, 60
1, 164732, Note_on_c, 0, 60, 64
1, 164757, Note_on_c, 0, 74, 89
1, 164764, Note_off_c, 0, 57, 53
1, 164780, Note_off_c, 0, 72, 64
1, 164827, Control_c, 0, 64, 87
1, 164842, Control_c, 0, 64, 62
1, 164850, Note_off_c, 0, 60, 64
1, 164854, Note_off_c, 0, 74, 65
1, 164857, Control_c, 0, 64, 0
1, 164858, Note_on_c, 0, 64, 52
1, 164863, Note_on_c, 0, 76, 101
1, 164917, Control_c, 0, 64, 43
1, 164932, Control_c, 0, 64, 65
1, 164944, Note_off_c, 0, 76, 68
1, 164945, Note_on_c, 0, 68, 67
1, 164946, Control_c, 0, 64, 85
1, 164961, Control_c, 0, 64, 127
1, 164981, Note_off_c, 0, 64, 63
1, 165088, Note_on_c, 0, 56, 72
1, 165159, Note_off_c, 0, 68, 58
1, 165161, Note_on_c, 0, 59, 69
1, 165253, Note_off_c, 0, 56, 52
1, 165292, Note_on_c, 0, 40, 86
1, 165312, Note_on_c, 0, 64, 61
1, 165362, Note_off_c, 0, 59, 59
1, 165412, Note_on_c, 0, 68, 65
1, 165519, Note_on_c, 0, 56, 65
1, 165519, Note_off_c, 0, 64, 58
1, 165596, Note_off_c, 0, 68, 53
1, 165601, Note_on_c, 0, 59, 68
1, 165650, Control_c, 0, 64, 111
1, 165665, Control_c, 0, 64, 104
1, 165680, Control_c, 0, 64, 99
1, 165686, Note_off_c, 0, 56, 55
1, 165695, Control_c, 0, 64, 95
1, 165708, Note_on_c, 0, 64, 67
1, 165710, Control_c, 0, 64, 92
1, 165725, Control_c, 0, 64, 89
1, 165740, Control_c, 0, 64, 88
1, 165754, Control_c, 0, 64, 87
1, 165769, Control_c, 0, 64, 87
1, 165784, Control_c, 0, 64, 86
1, 165791, Note_on_c, 0, 68, 64
1, 165793, Note_off_c, 0, 59, 53
1, 165798, Poly_aftertouch_c, 0, 45, 127
1, 165799, Control_c, 0, 64, 85
1, 165814, Control_c, 0, 64, 83
1, 165828, Control_c, 0, 64, 82
1, 165843, Control_c, 0, 64, 81
1, 165858, Control_c, 0, 64, 81
1, 165873, Control_c, 0, 64, 80
1, 165883, Note_on_c, 0, 56, 63
1, 165887, Control_c, 0, 64, 79
1, 165902, Control_c, 0, 64, 79
1, 165917, Control_c, 0, 64, 78
1, 165932, Control_c, 0, 64, 76
1, 165947, Control_c, 0, 64, 75
1, 165948, Note_on_c, 0, 59, 60
1, 165961, Control_c, 0, 64, 75
1, 165991, Control_c, 0, 64, 74
1, 165992, Note_off_c, 0, 64, 32
1, 166006, Control_c, 0, 64, 73
1, 166020, Control_c, 0, 64, 71
1, 166027, Note_off_c, 0, 68, 52
1, 166035, Control_c, 0, 64, 70
1, 166036, Poly_aftertouch_c, 0, 45, 0
1, 166050, Control_c, 0, 64, 69
1, 166062, Note_off_c, 0, 56, 35
1, 166065, Control_c, 0, 64, 67
1, 166072, Note_on_c, 0, 39, 61
1, 166080, Control_c, 0, 64, 66
1, 166082, Note_on_c, 0, 63, 55
1, 166102, Control_c, 0, 64, 65
1, 166117, Control_c, 0, 64, 64
1, 166132, Control_c, 0, 64, 64
1, 166147, Note_off_c, 0, 59, 56
1, 166147, Control_c, 0, 64, 63
1, 166162, Control_c, 0, 64, 63
1, 166176, Control_c, 0, 64, 62
1, 166191, Control_c, 0, 64, 62
1, 166198, Note_on_c, 0, 68, 43
1, 166206, Control_c, 0, 64, 61
1, 166220, Note_off_c, 0, 40, 55
1, 166220, Control_c, 0, 64, 61
1, 166235, Control_c, 0, 64, 60
1, 166250, Control_c, 0, 64, 60
1, 166264, Note_off_c, 0, 63, 57
1, 166265, Control_c, 0, 64, 59
1, 166280, Control_c, 0, 64, 59
1, 166294, Control_c, 0, 64, 58
1, 166304, Note_on_c, 0, 56, 42
1, 166309, Control_c, 0, 64, 58
1, 166324, Control_c, 0, 64, 57
1, 166339, Control_c, 0, 64, 57
1, 166355, Control_c, 0, 64, 56
1, 166370, Control_c, 0, 64, 56
1, 166377, Note_on_c, 0, 59, 43
1, 166385, Control_c, 0, 64, 55
1, 166399, Control_c, 0, 64, 54
1, 166404, Note_off_c, 0, 68, 32
1, 166414, Control_c, 0, 64, 53
1, 166429, Control_c, 0, 64, 52
1, 166443, Control_c, 0, 64, 51
1, 166455, Note_off_c, 0, 56, 29
1, 166458, Control_c, 0, 64, 51
1, 166473, Control_c, 0, 64, 49
1, 166488, Control_c, 0, 64, 47
1, 166503, Control_c, 0, 64, 45
1, 166507, Note_off_c, 0, 59, 53
1, 166518, Control_c, 0, 64, 41
1, 166518, Note_on_c, 0, 38, 42
1, 166529, Note_on_c, 0, 65, 41
1, 166533, Control_c, 0, 64, 32
1, 166547, Control_c, 0, 64, 0
1, 166554, Note_off_c, 0, 39, 58
1, 166637, Control_c, 0, 64, 41
1, 166651, Control_c, 0, 64, 58
1, 166656, Note_on_c, 0, 68, 33
1, 166666, Control_c, 0, 64, 65
1, 166670, Note_off_c, 0, 38, 62
1, 166681, Control_c, 0, 64, 73
1, 166696, Control_c, 0, 64, 90
1, 166710, Control_c, 0, 64, 127
1, 166721, Note_off_c, 0, 65, 29
1, 166744, Note_off_c, 0, 68, 36
1, 166762, Note_on_c, 0, 56, 45
1, 166852, Note_on_c, 0, 58, 43
1, 166969, Control_c, 0, 64, 111
1, 166984, Control_c, 0, 64, 102
1, 166999, Control_c, 0, 64, 97
1, 167014, Control_c, 0, 64, 93
1, 167018, Note_off_c, 0, 56, 19
1, 167019, Note_on_c, 0, 77, 61
1, 167029, Control_c, 0, 64, 92
1, 167043, Control_c, 0, 64, 91
1, 167045, Note_off_c, 0, 58, 33
1, 167052, Note_on_c, 0, 65, 41
1, 167058, Control_c, 0, 64, 89
1, 167073, Control_c, 0, 64, 85
1, 167088, Control_c, 0, 64, 81
1, 167103, Control_c, 0, 64, 77
1, 167117, Control_c, 0, 64, 72
1, 167121, Note_on_c, 0, 68, 40
1, 167132, Control_c, 0, 64, 68
1, 167147, Control_c, 0, 64, 65
1, 167162, Control_c, 0, 64, 64
1, 167177, Control_c, 0, 64, 65
1, 167192, Control_c, 0, 64, 66
1, 167207, Control_c, 0, 64, 68
1, 167221, Control_c, 0, 64, 70
1, 167235, Note_off_c, 0, 65, 27
1, 167236, Control_c, 0, 64, 75
1, 167243, Note_on_c, 0, 56, 36
1, 167251, Control_c, 0, 64, 80
1, 167266, Control_c, 0, 64, 87
1, 167281, Control_c, 0, 64, 97
1, 167296, Control_c, 0, 64, 127
1, 167319, Note_on_c, 0, 58, 46
1, 167322, Note_off_c, 0, 77, 56
1, 167343, Note_off_c, 0, 68, 35
1, 167381, Note_off_c, 0, 56, 25
1, 167429, Note_off_c, 0, 58, 52
1, 167442, Note_on_c, 0, 65, 34
1, 167508, Note_on_c, 0, 68, 26
1, 167626, Note_off_c, 0, 65, 41
1, 167647, Note_on_c, 0, 56, 30
1, 167655, Note_on_c, 0, 77, 56
1, 167704, Note_on_c, 0, 58, 38
1, 167705, Note_off_c, 0, 68, 36
1, 167791, Control_c, 0, 64, 123
1, 167806, Control_c, 0, 64, 118
1, 167807, Note_off_c, 0, 56, 23
1, 167821, Control_c, 0, 64, 117
1, 167836, Control_c, 0, 64, 116
1, 167851, Control_c, 0, 64, 113
1, 167852, Note_on_c, 0, 79, 72
1, 167857, Note_on_c, 0, 65, 41
1, 167859, Note_off_c, 0, 58, 34
1, 167865, Control_c, 0, 64, 108
1, 167880, Control_c, 0, 64, 105
1, 167895, Control_c, 0, 64, 104
1, 167910, Control_c, 0, 64, 102
1, 167925, Control_c, 0, 64, 99
1, 167928, Note_off_c, 0, 77, 58
1, 167940, Control_c, 0, 64, 98
1, 167945, Note_on_c, 0, 68, 27
1, 167955, Control_c, 0, 64, 97
1, 167969, Control_c, 0, 64, 96
1, 167984, Control_c, 0, 64, 94
1, 167999, Control_c, 0, 64, 92
1, 168008, Note_off_c, 0, 68, 37
1, 168014, Control_c, 0, 64, 91
1, 168016, Note_on_c, 0, 56, 36
1, 168029, Control_c, 0, 64, 89
1, 168044, Control_c, 0, 64, 88
1, 168056, Note_on_c, 0, 80, 77
1, 168059, Control_c, 0, 64, 87
1, 168074, Control_c, 0, 64, 86
1, 168078, Note_off_c, 0, 56, 43
1, 168079, Note_off_c, 0, 65, 36
1, 168088, Control_c, 0, 64, 85
1, 168094, Note_on_c, 0, 58, 46
1, 168103, Control_c, 0, 64, 83
1, 168105, Note_off_c, 0, 79, 58
1, 168118, Control_c, 0, 64, 82
1, 168133, Control_c, 0, 64, 81
1, 168148, Control_c, 0, 64, 80
1, 168162, Control_c, 0, 64, 79
1, 168177, Control_c, 0, 64, 78
1, 168192, Control_c, 0, 64, 77
1, 168206, Control_c, 0, 64, 77
1, 168221, Control_c, 0, 64, 76
1, 168236, Control_c, 0, 64, 73
1, 168246, Note_off_c, 0, 58, 52
1, 168251, Control_c, 0, 64, 67
1, 168266, Control_c, 0, 64, 61
1, 168281, Control_c, 0, 64, 50
1, 168282, Note_on_c, 0, 63, 39
1, 168284, Note_on_c, 0, 79, 73
1, 168295, Control_c, 0, 64, 38
1, 168296, Note_off_c, 0, 80, 62
1, 168310, Control_c, 0, 64, 31
1, 168325, Control_c, 0, 64, 30
1, 168348, Control_c, 0, 64, 34
1, 168363, Control_c, 0, 64, 48
1, 168372, Note_on_c, 0, 67, 37
1, 168377, Control_c, 0, 64, 59
1, 168392, Note_off_c, 0, 63, 50
1, 168392, Control_c, 0, 64, 65
1, 168407, Control_c, 0, 64, 70
1, 168413, Note_off_c, 0, 79, 65
1, 168421, Control_c, 0, 64, 78
1, 168436, Control_c, 0, 64, 95
1, 168451, Control_c, 0, 64, 127
1, 168521, Note_on_c, 0, 55, 47
1, 168561, Note_off_c, 0, 67, 27
1, 168582, Note_off_c, 0, 55, 53
1, 168648, Note_on_c, 0, 58, 18
1, 168706, Note_off_c, 0, 58, 45
1, 168758, Note_on_c, 0, 63, 28
1, 168763, Note_on_c, 0, 39, 50
1, 168779, Control_c, 0, 64, 118
1, 168793, Control_c, 0, 64, 110
1, 168808, Control_c, 0, 64, 101
1, 168813, Note_on_c, 0, 67, 38
1, 168819, Note_off_c, 0, 63, 41
1, 168823, Control_c, 0, 64, 92
1, 168837, Control_c, 0, 64, 81
1, 168852, Control_c, 0, 64, 70
1, 168867, Control_c, 0, 64, 61
1, 168882, Control_c, 0, 64, 52
1, 168911, Control_c, 0, 64, 57
1, 168926, Control_c, 0, 64, 62
1, 168935, Note_on_c, 0, 55, 37
1, 168941, Control_c, 0, 64, 66
1, 168956, Control_c, 0, 64, 71
1, 168971, Control_c, 0, 64, 79
1, 168978, Note_off_c, 0, 39, 61
1, 168986, Control_c, 0, 64, 93
1, 168986, Note_off_c, 0, 67, 31
1, 169001, Control_c, 0, 64, 127
1, 169026, Note_on_c, 0, 58, 41
1, 169081, Note_off_c, 0, 55, 32
1, 169167, Note_on_c, 0, 63, 37
1, 169191, Note_off_c, 0, 58, 33
1, 169236, Note_on_c, 0, 67, 35
1, 169239, Note_off_c, 0, 63, 48
1, 169355, Note_on_c, 0, 77, 52
1, 169382, Note_on_c, 0, 55, 29
1, 169451, Note_off_c, 0, 67, 25
1, 169489, Note_on_c, 0, 58, 29
1, 169522, Note_off_c, 0, 55, 29
1, 169541, Control_c, 0, 64, 118
1, 169556, Control_c, 0, 64, 113
1, 169560, Note_on_c, 0, 75, 66
1, 169571, Control_c, 0, 64, 110
1, 169586, Note_off_c, 0, 58, 38
1, 169586, Control_c, 0, 64, 107
1, 169596, Note_on_c, 0, 63, 35
1, 169601, Control_c, 0, 64, 105
1, 169615, Control_c, 0, 64, 104
1, 169630, Control_c, 0, 64, 102
1, 169640, Note_on_c, 0, 67, 32
1, 169645, Note_off_c, 0, 63, 45
1, 169645, Control_c, 0, 64, 101
1, 169659, Control_c, 0, 64, 100
1, 169674, Control_c, 0, 64, 99
1, 169689, Control_c, 0, 64, 97
1, 169704, Control_c, 0, 64, 95
1, 169719, Control_c, 0, 64, 93
1, 169722, Note_on_c, 0, 55, 37
1, 169723, Note_off_c, 0, 77, 36
1, 169734, Control_c, 0, 64, 92
1, 169749, Control_c, 0, 64, 91
1, 169753, Note_on_c, 0, 74, 66
1, 169764, Control_c, 0, 64, 90
1, 169779, Control_c, 0, 64, 89
1, 169783, Note_off_c, 0, 67, 37
1, 169790, Note_on_c, 0, 58, 49
1, 169793, Note_off_c, 0, 75, 60
1, 169794, Control_c, 0, 64, 87
1, 169808, Control_c, 0, 64, 86
1, 169823, Control_c, 0, 64, 84
1, 169845, Control_c, 0, 64, 83
1, 169904, Control_c, 0, 64, 82
1, 169905, Note_off_c, 0, 55, 31
1, 169908, Note_off_c, 0, 58, 56
1, 169919, Control_c, 0, 64, 79
1, 169934, Control_c, 0, 64, 70
1, 169944, Note_on_c, 0, 63, 35
1, 169949, Control_c, 0, 64, 62
1, 169960, Note_on_c, 0, 72, 62
1, 169964, Control_c, 0, 64, 49
1, 169978, Note_off_c, 0, 74, 60
1, 169978, Control_c, 0, 64, 37
1, 169993, Control_c, 0, 64, 32
1, 170008, Control_c, 0, 64, 31
1, 170023, Control_c, 0, 64, 41
1, 170035, Note_on_c, 0, 68, 43
1, 170038, Control_c, 0, 64, 57
1, 170053, Control_c, 0, 64, 66
1, 170067, Control_c, 0, 64, 75
1, 170074, Note_off_c, 0, 72, 64
1, 170082, Control_c, 0, 64, 101
1, 170097, Control_c, 0, 64, 127
1, 170107, Note_off_c, 0, 63, 34
1, 170147, Note_on_c, 0, 56, 46
1, 170185, Note_off_c, 0, 68, 35
1, 170222, Note_off_c, 0, 56, 48
1, 170224, Note_on_c, 0, 60, 37
1, 170309, Note_off_c, 0, 60, 53
1, 170357, Note_on_c, 0, 44, 59
1, 170365, Note_on_c, 0, 63, 38
1, 170442, Note_on_c, 0, 68, 33
1, 170482, Control_c, 0, 64, 116
1, 170497, Control_c, 0, 64, 108
1, 170512, Control_c, 0, 64, 104
1, 170527, Control_c, 0, 64, 101
1, 170542, Control_c, 0, 64, 99
1, 170552, Note_off_c, 0, 63, 32
1, 170557, Control_c, 0, 64, 97
1, 170572, Note_on_c, 0, 56, 51
1, 170572, Control_c, 0, 64, 95
1, 170594, Control_c, 0, 64, 93
1, 170608, Control_c, 0, 64, 90
1, 170623, Control_c, 0, 64, 89
1, 170625, Note_off_c, 0, 68, 38
1, 170638, Control_c, 0, 64, 87
1, 170653, Control_c, 0, 64, 85
1, 170661, Note_on_c, 0, 60, 43
1, 170668, Control_c, 0, 64, 83
1, 170682, Control_c, 0, 64, 81
1, 170697, Control_c, 0, 64, 81
1, 170712, Control_c, 0, 64, 80
1, 170727, Control_c, 0, 64, 78
1, 170742, Control_c, 0, 64, 74
1, 170756, Note_off_c, 0, 56, 23
1, 170756, Control_c, 0, 64, 67
1, 170765, Note_on_c, 0, 41, 53
1, 170771, Control_c, 0, 64, 54
1, 170786, Control_c, 0, 64, 31
1, 170801, Note_on_c, 0, 65, 38
1, 170801, Control_c, 0, 64, 0
1, 170803, Note_off_c, 0, 44, 62
1, 170809, Note_off_c, 0, 60, 33
1, 170846, Control_c, 0, 64, 35
1, 170861, Control_c, 0, 64, 57
1, 170876, Control_c, 0, 64, 65
1, 170880, Note_on_c, 0, 68, 40
1, 170890, Control_c, 0, 64, 75
1, 170898, Note_off_c, 0, 41, 64
1, 170905, Control_c, 0, 64, 110
1, 170920, Control_c, 0, 64, 127
1, 170945, Note_off_c, 0, 65, 36
1, 170980, Note_on_c, 0, 56, 45
1, 171038, Note_on_c, 0, 60, 44
1, 171046, Note_off_c, 0, 56, 49
1, 171055, Note_off_c, 0, 68, 30
1, 171155, Note_off_c, 0, 60, 52
1, 171171, Note_on_c, 0, 72, 80
1, 171186, Note_on_c, 0, 65, 44
1, 171244, Note_on_c, 0, 68, 38
1, 171371, Note_on_c, 0, 56, 54
1, 171397, Note_off_c, 0, 65, 35
1, 171417, Control_c, 0, 64, 118
1, 171432, Control_c, 0, 64, 110
1, 171445, Note_on_c, 0, 60, 52
1, 171446, Control_c, 0, 64, 106
1, 171456, Note_off_c, 0, 68, 34
1, 171461, Control_c, 0, 64, 102
1, 171476, Control_c, 0, 64, 98
1, 171491, Control_c, 0, 64, 94
1, 171505, Control_c, 0, 64, 91
1, 171520, Control_c, 0, 64, 90
1, 171579, Control_c, 0, 64, 89
1, 171594, Control_c, 0, 64, 83
1, 171605, Note_on_c, 0, 74, 77
1, 171609, Control_c, 0, 64, 70
1, 171618, Note_off_c, 0, 56, 34
1, 171621, Note_off_c, 0, 60, 53
1, 171624, Control_c, 0, 64, 56
1, 171639, Control_c, 0, 64, 0
1, 171657, Note_off_c, 0, 72, 59
1, 171670, Note_on_c, 0, 65, 39
1, 171693, Note_on_c, 0, 68, 47
1, 171698, Control_c, 0, 64, 36
1, 171713, Control_c, 0, 64, 61
1, 171728, Control_c, 0, 64, 72
1, 171739, Note_off_c, 0, 74, 65
1, 171743, Control_c, 0, 64, 101
1, 171758, Control_c, 0, 64, 127
1, 171824, Note_on_c, 0, 56, 43
1, 171859, Note_off_c, 0, 65, 41
1, 171916, Note_on_c, 0, 62, 46
1, 171922, Note_off_c, 0, 68, 30
1, 171979, Note_off_c, 0, 56, 32
1, 172031, Note_on_c, 0, 46, 65
1, 172062, Note_on_c, 0, 65, 34
1, 172066, Note_off_c, 0, 62, 34
1, 172122, Note_on_c, 0, 68, 34
1, 172230, Note_on_c, 0, 56, 54
1, 172251, Note_off_c, 0, 65, 43
1, 172322, Note_on_c, 0, 62, 43
1, 172337, Note_off_c, 0, 68, 33
1, 172359, Control_c, 0, 64, 116
1, 172374, Control_c, 0, 64, 109
1, 172389, Control_c, 0, 64, 104
1, 172404, Control_c, 0, 64, 99
1, 172418, Control_c, 0, 64, 96
1, 172433, Control_c, 0, 64, 94
1, 172435, Note_on_c, 0, 47, 66
1, 172435, Note_off_c, 0, 56, 38
1, 172448, Control_c, 0, 64, 91
1, 172462, Control_c, 0, 64, 88
1, 172477, Control_c, 0, 64, 85
1, 172479, Note_on_c, 0, 65, 43
1, 172492, Control_c, 0, 64, 82
1, 172507, Control_c, 0, 64, 79
1, 172512, Note_off_c, 0, 62, 33
1, 172522, Control_c, 0, 64, 77
1, 172536, Control_c, 0, 64, 75
1, 172551, Control_c, 0, 64, 74
1, 172566, Control_c, 0, 64, 73
1, 172570, Note_on_c, 0, 68, 23
1, 172581, Control_c, 0, 64, 72
1, 172586, Note_off_c, 0, 46, 59
1, 172596, Control_c, 0, 64, 71
1, 172611, Control_c, 0, 64, 69
1, 172625, Control_c, 0, 64, 68
1, 172640, Control_c, 0, 64, 66
1, 172643, Note_off_c, 0, 65, 52
1, 172648, Note_on_c, 0, 56, 46
1, 172655, Control_c, 0, 64, 65
1, 172670, Control_c, 0, 64, 65
1, 172685, Control_c, 0, 64, 64
1, 172700, Control_c, 0, 64, 63
1, 172715, Control_c, 0, 64, 62
1, 172726, Note_off_c, 0, 68, 39
1, 172730, Control_c, 0, 64, 61
1, 172745, Control_c, 0, 64, 60
1, 172757, Note_on_c, 0, 62, 35
1, 172760, Control_c, 0, 64, 59
1, 172775, Control_c, 0, 64, 58
1, 172789, Control_c, 0, 64, 56
1, 172804, Control_c, 0, 64, 54
1, 172819, Control_c, 0, 64, 51
1, 172836, Note_off_c, 0, 56, 38
1, 172841, Control_c, 0, 64, 46
1, 172856, Control_c, 0, 64, 41
1, 172871, Control_c, 0, 64, 36
1, 172879, Note_on_c, 0, 46, 42
1, 172885, Control_c, 0, 64, 33
1, 172900, Control_c, 0, 64, 30
1, 172906, Note_on_c, 0, 65, 35
1, 172910, Note_off_c, 0, 47, 58
1, 172915, Control_c, 0, 64, 28
1, 172930, Note_off_c, 0, 62, 35
1, 172959, Control_c, 0, 64, 35
1, 172974, Control_c, 0, 64, 47
1, 172989, Control_c, 0, 64, 57
1, 173004, Control_c, 0, 64, 63
1, 173019, Control_c, 0, 64, 68
1, 173029, Poly_aftertouch_c, 0, 68, 127
1, 173032, Note_off_c, 0, 46, 62
1, 173034, Control_c, 0, 64, 77
1, 173049, Control_c, 0, 64, 104
1, 173064, Control_c, 0, 64, 127
1, 173116, Note_on_c, 0, 56, 35
1, 173126, Poly_aftertouch_c, 0, 68, 0
1, 173149, Note_off_c, 0, 65, 34
1, 173187, Note_on_c, 0, 62, 39
1, 173191, Note_off_c, 0, 56, 49
1, 173285, Control_c, 0, 64, 116
1, 173300, Control_c, 0, 64, 111
1, 173315, Control_c, 0, 64, 107
1, 173330, Control_c, 0, 64, 103
1, 173345, Control_c, 0, 64, 99
1, 173359, Control_c, 0, 64, 96
1, 173374, Control_c, 0, 64, 94
1, 173388, Note_on_c, 0, 75, 63
1, 173389, Control_c, 0, 64, 93
1, 173418, Control_c, 0, 64, 91
1, 173433, Note_off_c, 0, 62, 37
1, 173433, Control_c, 0, 64, 85
1, 173448, Control_c, 0, 64, 74
1, 173449, Note_on_c, 0, 63, 33
1, 173463, Control_c, 0, 64, 62
1, 173478, Control_c, 0, 64, 50
1, 173493, Control_c, 0, 64, 43
1, 173508, Note_off_c, 0, 63, 41
1, 173523, Control_c, 0, 64, 44
1, 173530, Note_on_c, 0, 67, 20
1, 173538, Control_c, 0, 64, 49
1, 173553, Control_c, 0, 64, 56
1, 173568, Control_c, 0, 64, 63
1, 173590, Control_c, 0, 64, 67
1, 173605, Control_c, 0, 64, 73
1, 173620, Control_c, 0, 64, 81
1, 173626, Note_on_c, 0, 55, 39
1, 173629, Note_off_c, 0, 75, 63
1, 173635, Control_c, 0, 64, 96
1, 173650, Control_c, 0, 64, 127
1, 173671, Note_off_c, 0, 67, 27
1, 173719, Note_off_c, 0, 55, 46
1, 173744, Note_on_c, 0, 58, 20
1, 173797, Note_off_c, 0, 58, 46
1, 173825, Note_on_c, 0, 63, 37
1, 173891, Note_off_c, 0, 63, 50
1, 173918, Note_on_c, 0, 67, 29
1, 173995, Note_on_c, 0, 55, 41
1, 174034, Note_off_c, 0, 67, 33
1, 174095, Note_on_c, 0, 58, 35
1, 174184, Note_off_c, 0, 58, 50
1, 174200, Note_on_c, 0, 39, 55
1, 174203, Note_off_c, 0, 55, 28
1, 174218, Note_on_c, 0, 63, 35
1, 174295, Note_off_c, 0, 63, 50
1, 174333, Note_on_c, 0, 67, 33
1, 174399, Note_on_c, 0, 55, 43
1, 174435, Note_off_c, 0, 67, 39
1, 174492, Note_on_c, 0, 58, 46
1, 174578, Note_off_c, 0, 55, 30
1, 174583, Note_on_c, 0, 63, 56
1, 174632, Note_off_c, 0, 58, 37
1, 174664, Note_on_c, 0, 67, 63
1, 174700, Note_off_c, 0, 63, 55
1, 174767, Note_on_c, 0, 55, 55
1, 174802, Note_off_c, 0, 67, 58
1, 174829, Note_on_c, 0, 58, 59
1, 174886, Control_c, 0, 64, 123
1, 174901, Control_c, 0, 64, 112
1, 174915, Note_off_c, 0, 55, 52
1, 174916, Control_c, 0, 64, 107
1, 174930, Control_c, 0, 64, 104
1, 174936, Note_on_c, 0, 41, 67
1, 174940, Note_on_c, 0, 62, 58
1, 174945, Control_c, 0, 64, 100
1, 174960, Control_c, 0, 64, 96
1, 174969, Note_off_c, 0, 58, 52
1, 174975, Control_c, 0, 64, 93
1, 174990, Control_c, 0, 64, 90
1, 175004, Control_c, 0, 64, 88
1, 175019, Control_c, 0, 64, 86
1, 175034, Control_c, 0, 64, 85
1, 175049, Control_c, 0, 64, 81
1, 175064, Control_c, 0, 64, 77
1, 175079, Note_on_c, 0, 68, 57
1, 175086, Control_c, 0, 64, 71
1, 175101, Control_c, 0, 64, 65
1, 175111, Note_off_c, 0, 39, 41
1, 175116, Control_c, 0, 64, 58
1, 175132, Control_c, 0, 64, 51
1, 175147, Control_c, 0, 64, 50
1, 175166, Note_off_c, 0, 62, 56
1, 175168, Note_on_c, 0, 56, 46
1, 175176, Control_c, 0, 64, 52
1, 175191, Control_c, 0, 64, 56
1, 175206, Control_c, 0, 64, 60
1, 175221, Control_c, 0, 64, 62
1, 175235, Control_c, 0, 64, 64
1, 175250, Control_c, 0, 64, 67
1, 175256, Note_on_c, 0, 58, 63
1, 175265, Control_c, 0, 64, 71
1, 175280, Control_c, 0, 64, 76
1, 175284, Note_off_c, 0, 68, 35
1, 175294, Control_c, 0, 64, 86
1, 175309, Control_c, 0, 64, 102
1, 175324, Control_c, 0, 64, 127
1, 175339, Note_off_c, 0, 56, 32
1, 175348, Note_on_c, 0, 62, 63
1, 175409, Note_off_c, 0, 58, 56
1, 175446, Note_on_c, 0, 68, 55
1, 175500, Note_off_c, 0, 62, 60
1, 175533, Note_off_c, 0, 68, 54
1, 175541, Note_on_c, 0, 56, 53
1, 175609, Note_on_c, 0, 58, 54
1, 175621, Control_c, 0, 64, 117
1, 175635, Control_c, 0, 64, 108
1, 175650, Note_off_c, 0, 56, 35
1, 175650, Control_c, 0, 64, 102
1, 175665, Control_c, 0, 64, 96
1, 175679, Control_c, 0, 64, 92
1, 175694, Control_c, 0, 64, 89
1, 175709, Control_c, 0, 64, 86
1, 175724, Note_on_c, 0, 43, 45
1, 175724, Control_c, 0, 64, 82
1, 175739, Control_c, 0, 64, 78
1, 175743, Note_on_c, 0, 61, 52
1, 175753, Control_c, 0, 64, 73
1, 175768, Control_c, 0, 64, 67
1, 175775, Note_off_c, 0, 58, 52
1, 175783, Control_c, 0, 64, 62
1, 175798, Control_c, 0, 64, 52
1, 175812, Note_off_c, 0, 41, 35
1, 175813, Control_c, 0, 64, 43
1, 175835, Control_c, 0, 64, 38
1, 175850, Control_c, 0, 64, 34
1, 175865, Control_c, 0, 64, 32
1, 175878, Note_on_c, 0, 63, 40
1, 175909, Control_c, 0, 64, 34
1, 175925, Control_c, 0, 64, 42
1, 175940, Control_c, 0, 64, 49
1, 175955, Control_c, 0, 64, 54
1, 175969, Note_on_c, 0, 51, 40
1, 175970, Control_c, 0, 64, 57
1, 175984, Control_c, 0, 64, 60
1, 175985, Note_off_c, 0, 61, 36
1, 175999, Control_c, 0, 64, 63
1, 176014, Control_c, 0, 64, 65
1, 176025, Note_off_c, 0, 63, 34
1, 176029, Control_c, 0, 64, 68
1, 176044, Control_c, 0, 64, 72
1, 176058, Control_c, 0, 64, 77
1, 176073, Control_c, 0, 64, 82
1, 176086, Note_on_c, 0, 58, 40
1, 176088, Control_c, 0, 64, 86
1, 176103, Control_c, 0, 64, 89
1, 176118, Control_c, 0, 64, 91
1, 176133, Control_c, 0, 64, 92
1, 176148, Control_c, 0, 64, 93
1, 176170, Note_off_c, 0, 51, 37
1, 176189, Note_on_c, 0, 61, 42
1, 176215, Note_off_c, 0, 58, 52
1, 176222, Control_c, 0, 64, 92
1, 176251, Control_c, 0, 64, 92
1, 176262, Note_on_c, 0, 63, 33
1, 176281, Control_c, 0, 64, 91
1, 176295, Control_c, 0, 64, 91
1, 176310, Control_c, 0, 64, 90
1, 176325, Control_c, 0, 64, 90
1, 176355, Control_c, 0, 64, 89
1, 176365, Note_on_c, 0, 51, 37
1, 176369, Control_c, 0, 64, 89
1, 176384, Control_c, 0, 64, 88
1, 176399, Control_c, 0, 64, 88
1, 176414, Control_c, 0, 64, 87
1, 176429, Note_off_c, 0, 61, 26
1, 176429, Control_c, 0, 64, 87
1, 176433, Note_off_c, 0, 63, 33
1, 176444, Note_on_c, 0, 58, 35
1, 176444, Control_c, 0, 64, 86
1, 176459, Control_c, 0, 64, 85
1, 176474, Control_c, 0, 64, 85
1, 176503, Control_c, 0, 64, 84
1, 176518, Control_c, 0, 64, 84
1, 176533, Control_c, 0, 64, 83
1, 176548, Control_c, 0, 64, 81
1, 176563, Control_c, 0, 64, 80
1, 176584, Control_c, 0, 64, 79
1, 176585, Note_off_c, 0, 58, 34
1, 176599, Control_c, 0, 64, 79
1, 176602, Note_off_c, 0, 51, 36
1, 176605, Note_on_c, 0, 60, 43
1, 176606, Note_on_c, 0, 44, 34
1, 176614, Control_c, 0, 64, 78
1, 176629, Control_c, 0, 64, 78
1, 176644, Control_c, 0, 64, 77
1, 176659, Control_c, 0, 64, 76
1, 176674, Control_c, 0, 64, 73
1, 176688, Control_c, 0, 64, 69
1, 176703, Control_c, 0, 64, 64
1, 176707, Note_off_c, 0, 43, 36
1, 176718, Control_c, 0, 64, 55
1, 176721, Note_on_c, 0, 63, 19
1, 176733, Control_c, 0, 64, 46
1, 176748, Control_c, 0, 64, 45
1, 176763, Control_c, 0, 64, 46
1, 176778, Control_c, 0, 64, 49
1, 176787, Note_off_c, 0, 60, 51
1, 176793, Control_c, 0, 64, 53
1, 176808, Control_c, 0, 64, 57
1, 176822, Note_on_c, 0, 51, 38
1, 176823, Control_c, 0, 64, 60
1, 176837, Control_c, 0, 64, 62
1, 176852, Control_c, 0, 64, 64
1, 176867, Control_c, 0, 64, 67
1, 176872, Note_off_c, 0, 63, 37
1, 176882, Control_c, 0, 64, 70
1, 176897, Control_c, 0, 64, 76
1, 176904, Note_on_c, 0, 56, 23
1, 176912, Control_c, 0, 64, 83
1, 176926, Control_c, 0, 64, 92
1, 176941, Control_c, 0, 64, 97
1, 176956, Control_c, 0, 64, 99
1, 176989, Note_on_c, 0, 60, 24
1, 177000, Control_c, 0, 64, 99
1, 177013, Note_off_c, 0, 51, 39
1, 177042, Note_off_c, 0, 56, 30
1, 177050, Note_off_c, 0, 44, 39
1, 177087, Note_on_c, 0, 63, 31
1, 177133, Control_c, 0, 64, 99
1, 177159, Note_on_c, 0, 51, 36
1, 177176, Note_off_c, 0, 60, 38
1, 177192, Control_c, 0, 64, 98
1, 177207, Control_c, 0, 64, 98
1, 177252, Control_c, 0, 64, 97
1, 177258, Note_on_c, 0, 56, 38
1, 177267, Control_c, 0, 64, 97
1, 177282, Control_c, 0, 64, 96
1, 177290, Note_off_c, 0, 63, 33
1, 177311, Control_c, 0, 64, 96
1, 177333, Control_c, 0, 64, 95
1, 177362, Note_off_c, 0, 51, 33
1, 177378, Control_c, 0, 64, 95
1, 177383, Note_on_c, 0, 60, 30
1, 177402, Note_off_c, 0, 56, 32
1, 177422, Control_c, 0, 64, 94
1, 177459, Note_on_c, 0, 63, 23
1, 177586, Note_on_c, 0, 51, 23
1, 177598, Note_off_c, 0, 60, 28
1, 177648, Note_on_c, 0, 56, 36
1, 177735, Note_off_c, 0, 63, 33
1, 177764, Note_off_c, 0, 51, 19
1, 177797, Note_on_c, 0, 68, 49
1, 177827, Note_on_c, 0, 60, 30
1, 177836, Note_off_c, 0, 56, 40
1, 177879, Note_on_c, 0, 63, 34
1, 178016, Note_on_c, 0, 70, 61
1, 178020, Note_on_c, 0, 67, 43
1, 178036, Note_on_c, 0, 58, 46
1, 178045, Control_c, 0, 64, 94
1, 178048, Note_off_c, 0, 60, 38
1, 178075, Note_off_c, 0, 63, 0
1, 178096, Control_c, 0, 64, 93
1, 178097, Note_on_c, 0, 63, 14
1, 178108, Note_off_c, 0, 68, 35
1, 178126, Control_c, 0, 64, 93
1, 178155, Control_c, 0, 64, 92
1, 178170, Control_c, 0, 64, 91
1, 178185, Control_c, 0, 64, 91
1, 178200, Control_c, 0, 64, 90
1, 178215, Control_c, 0, 64, 90
1, 178230, Control_c, 0, 64, 88
1, 178240, Note_off_c, 0, 63, 49
1, 178244, Control_c, 0, 64, 87
1, 178259, Control_c, 0, 64, 85
1, 178268, Note_on_c, 0, 72, 64
1, 178274, Control_c, 0, 64, 83
1, 178274, Note_on_c, 0, 68, 42
1, 178289, Note_off_c, 0, 67, 33
1, 178289, Control_c, 0, 64, 81
1, 178290, Note_on_c, 0, 60, 43
1, 178304, Note_off_c, 0, 58, 38
1, 178304, Control_c, 0, 64, 79
1, 178319, Control_c, 0, 64, 75
1, 178334, Control_c, 0, 64, 70
1, 178349, Control_c, 0, 64, 64
1, 178364, Control_c, 0, 64, 57
1, 178376, Note_off_c, 0, 70, 47
1, 178378, Control_c, 0, 64, 51
1, 178382, Note_on_c, 0, 63, 17
1, 178393, Control_c, 0, 64, 50
1, 178408, Control_c, 0, 64, 50
1, 178423, Control_c, 0, 64, 51
1, 178438, Control_c, 0, 64, 54
1, 178452, Control_c, 0, 64, 57
1, 178462, Note_off_c, 0, 60, 34
1, 178467, Control_c, 0, 64, 61
1, 178482, Control_c, 0, 64, 63
1, 178483, Note_on_c, 0, 51, 41
1, 178496, Control_c, 0, 64, 66
1, 178511, Control_c, 0, 64, 68
1, 178526, Control_c, 0, 64, 73
1, 178541, Control_c, 0, 64, 79
1, 178556, Control_c, 0, 64, 89
1, 178563, Note_on_c, 0, 56, 37
1, 178570, Control_c, 0, 64, 101
1, 178580, Note_off_c, 0, 72, 56
1, 178581, Note_off_c, 0, 51, 37
1, 178581, Note_off_c, 0, 63, 35
1, 178584, Note_off_c, 0, 68, 38
1, 178585, Control_c, 0, 64, 127
1, 178662, Note_on_c, 0, 60, 32
1, 178674, Note_off_c, 0, 56, 37
1, 178739, Note_on_c, 0, 63, 28
1, 178766, Note_off_c, 0, 60, 48
1, 178808, Control_c, 0, 64, 123
1, 178830, Control_c, 0, 64, 118
1, 178845, Control_c, 0, 64, 116
1, 178853, Note_on_c, 0, 51, 35
1, 178859, Control_c, 0, 64, 115
1, 178874, Control_c, 0, 64, 114
1, 178889, Control_c, 0, 64, 113
1, 178899, Note_off_c, 0, 51, 48
1, 178903, Control_c, 0, 64, 112
1, 178918, Control_c, 0, 64, 111
1, 178933, Control_c, 0, 64, 110
1, 178935, Note_on_c, 0, 56, 32
1, 178948, Control_c, 0, 64, 108
1, 178963, Control_c, 0, 64, 108
1, 178984, Note_off_c, 0, 63, 35
1, 179034, Note_on_c, 0, 60, 39
1, 179108, Note_off_c, 0, 56, 25
1, 179118, Note_off_c, 0, 60, 52
1, 179133, Note_on_c, 0, 63, 34
1, 179186, Note_off_c, 0, 63, 46
1, 179234, Note_on_c, 0, 48, 47
1, 179262, Note_on_c, 0, 60, 49
1, 179277, Note_on_c, 0, 51, 24
1, 179344, Note_on_c, 0, 63, 29
1, 179357, Note_off_c, 0, 60, 54
1, 179379, Control_c, 0, 64, 107
1, 179393, Control_c, 0, 64, 98
1, 179395, Note_off_c, 0, 63, 43
1, 179408, Control_c, 0, 64, 82
1, 179423, Control_c, 0, 64, 68
1, 179438, Control_c, 0, 64, 60
1, 179440, Note_on_c, 0, 46, 49
1, 179442, Note_on_c, 0, 61, 56
1, 179453, Control_c, 0, 64, 58
1, 179467, Control_c, 0, 64, 61
1, 179475, Note_on_c, 0, 55, 24
1, 179482, Control_c, 0, 64, 64
1, 179497, Control_c, 0, 64, 68
1, 179512, Control_c, 0, 64, 76
1, 179517, Note_off_c, 0, 48, 37
1, 179524, Note_on_c, 0, 63, 33
1, 179526, Control_c, 0, 64, 94
1, 179541, Control_c, 0, 64, 127
1, 179603, Note_off_c, 0, 61, 50
1, 179608, Note_off_c, 0, 63, 51
1, 179623, Control_c, 0, 64, 102
1, 179638, Control_c, 0, 64, 79
1, 179645, Note_on_c, 0, 44, 58
1, 179647, Note_off_c, 0, 55, 19
1, 179653, Control_c, 0, 64, 66
1, 179656, Note_on_c, 0, 60, 61
1, 179668, Control_c, 0, 64, 60
1, 179682, Control_c, 0, 64, 61
1, 179685, Note_off_c, 0, 46, 58
1, 179697, Control_c, 0, 64, 65
1, 179712, Control_c, 0, 64, 70
1, 179725, Note_off_c, 0, 60, 64
1, 179726, Control_c, 0, 64, 79
1, 179741, Control_c, 0, 64, 94
1, 179756, Control_c, 0, 64, 127
1, 179759, Poly_aftertouch_c, 0, 56, 0
1, 179762, Note_on_c, 0, 63, 42
1, 179801, Note_off_c, 0, 51, 39
1, 179819, Note_off_c, 0, 63, 51
1, 179870, Note_on_c, 0, 39, 58
1, 179873, Note_on_c, 0, 58, 49
1, 179890, Control_c, 0, 64, 110
1, 179905, Control_c, 0, 64, 99
1, 179906, Note_on_c, 0, 55, 23
1, 179920, Control_c, 0, 64, 93
1, 179935, Control_c, 0, 64, 86
1, 179950, Control_c, 0, 64, 77
1, 179957, Note_off_c, 0, 44, 37
1, 179964, Note_on_c, 0, 63, 41
1, 179964, Control_c, 0, 64, 68
1, 179979, Control_c, 0, 64, 57
1, 179985, Note_off_c, 0, 55, 42
1, 179994, Control_c, 0, 64, 38
1, 180009, Control_c, 0, 64, 34
1, 180025, Note_off_c, 0, 58, 54
1, 180070, Note_on_c, 0, 51, 45
1, 180084, Control_c, 0, 64, 37
1, 180098, Control_c, 0, 64, 42
1, 180113, Control_c, 0, 64, 47
1, 180128, Control_c, 0, 64, 52
1, 180142, Control_c, 0, 64, 56
1, 180143, Note_on_c, 0, 55, 26
1, 180145, Note_off_c, 0, 51, 51
1, 180157, Control_c, 0, 64, 59
1, 180172, Control_c, 0, 64, 63
1, 180187, Control_c, 0, 64, 65
1, 180197, Note_off_c, 0, 63, 32
1, 180202, Control_c, 0, 64, 69
1, 180216, Control_c, 0, 64, 74
1, 180231, Control_c, 0, 64, 82
1, 180246, Control_c, 0, 64, 90
1, 180261, Control_c, 0, 64, 98
1, 180267, Note_on_c, 0, 58, 48
1, 180275, Control_c, 0, 64, 100
1, 180306, Note_off_c, 0, 39, 36
1, 180334, Note_off_c, 0, 55, 44
1, 180356, Note_on_c, 0, 63, 36
1, 180372, Control_c, 0, 64, 99
1, 180389, Note_off_c, 0, 58, 47
1, 180402, Control_c, 0, 64, 99
1, 180431, Control_c, 0, 64, 98
1, 180446, Control_c, 0, 64, 97
1, 180459, Note_on_c, 0, 51, 43
1, 180461, Control_c, 0, 64, 96
1, 180475, Control_c, 0, 64, 95
1, 180505, Control_c, 0, 64, 95
1, 180520, Control_c, 0, 64, 94
1, 180535, Control_c, 0, 64, 94
1, 180548, Note_on_c, 0, 55, 30
1, 180549, Control_c, 0, 64, 93
1, 180555, Note_off_c, 0, 63, 29
1, 180564, Control_c, 0, 64, 93
1, 180579, Control_c, 0, 64, 92
1, 180594, Control_c, 0, 64, 92
1, 180609, Control_c, 0, 64, 91
1, 180613, Note_off_c, 0, 51, 26
1, 180623, Control_c, 0, 64, 90
1, 180638, Control_c, 0, 64, 90
1, 180650, Note_on_c, 0, 58, 44
1, 180653, Control_c, 0, 64, 89
1, 180683, Control_c, 0, 64, 89
1, 180698, Control_c, 0, 64, 88
1, 180703, Note_off_c, 0, 55, 33
1, 180713, Control_c, 0, 64, 87
1, 180728, Control_c, 0, 64, 87
1, 180754, Note_on_c, 0, 63, 39
1, 180772, Control_c, 0, 64, 86
1, 180791, Note_off_c, 0, 58, 36
1, 180802, Control_c, 0, 64, 85
1, 180817, Control_c, 0, 64, 85
1, 180832, Control_c, 0, 64, 84
1, 180847, Control_c, 0, 64, 83
1, 180850, Note_on_c, 0, 51, 39
1, 180862, Control_c, 0, 64, 82
1, 180877, Control_c, 0, 64, 81
1, 180891, Control_c, 0, 64, 80
1, 180906, Control_c, 0, 64, 78
1, 180923, Note_off_c, 0, 63, 31
1, 180927, Note_on_c, 0, 55, 38
1, 180965, Control_c, 0, 64, 79
1, 180980, Control_c, 0, 64, 80
1, 180995, Control_c, 0, 64, 81
1, 181000, Note_off_c, 0, 51, 23
1, 181010, Control_c, 0, 64, 83
1, 181025, Control_c, 0, 64, 85
1, 181039, Note_on_c, 0, 73, 66
1, 181039, Control_c, 0, 64, 89
1, 181054, Control_c, 0, 64, 95
1, 181055, Note_on_c, 0, 70, 51
1, 181073, Note_on_c, 0, 58, 54
1, 181076, Control_c, 0, 64, 102
1, 181091, Control_c, 0, 64, 111
1, 181106, Control_c, 0, 64, 127
1, 181109, Note_off_c, 0, 55, 29
1, 181159, Note_off_c, 0, 58, 54
1, 181163, Note_on_c, 0, 63, 40
1, 181193, Note_off_c, 0, 73, 53
1, 181225, Note_off_c, 0, 63, 54
1, 181300, Note_on_c, 0, 77, 76
1, 181348, Note_on_c, 0, 61, 35
1, 181360, Note_on_c, 0, 63, 49
1, 181362, Note_off_c, 0, 70, 27
1, 181401, Poly_aftertouch_c, 0, 73, 0
1, 181476, Control_c, 0, 64, 114
1, 181479, Note_off_c, 0, 61, 36
1, 181485, Note_off_c, 0, 63, 56
1, 181491, Control_c, 0, 64, 106
1, 181506, Control_c, 0, 64, 100
1, 181521, Control_c, 0, 64, 97
1, 181532, Note_on_c, 0, 75, 71
1, 181536, Control_c, 0, 64, 94
1, 181551, Control_c, 0, 64, 92
1, 181559, Note_on_c, 0, 60, 42
1, 181566, Note_on_c, 0, 72, 42
1, 181566, Control_c, 0, 64, 90
1, 181581, Control_c, 0, 64, 87
1, 181595, Control_c, 0, 64, 84
1, 181610, Control_c, 0, 64, 81
1, 181625, Control_c, 0, 64, 77
1, 181640, Control_c, 0, 64, 71
1, 181652, Note_on_c, 0, 63, 19
1, 181655, Control_c, 0, 64, 63
1, 181661, Note_off_c, 0, 77, 57
1, 181670, Control_c, 0, 64, 50
1, 181684, Control_c, 0, 64, 43
1, 181725, Note_off_c, 0, 60, 35
1, 181744, Control_c, 0, 64, 46
1, 181759, Control_c, 0, 64, 51
1, 181765, Note_on_c, 0, 51, 38
1, 181774, Control_c, 0, 64, 57
1, 181788, Control_c, 0, 64, 61
1, 181803, Control_c, 0, 64, 63
1, 181816, Note_off_c, 0, 63, 39
1, 181825, Control_c, 0, 64, 66
1, 181836, Note_on_c, 0, 56, 42
1, 181840, Control_c, 0, 64, 69
1, 181855, Control_c, 0, 64, 76
1, 181866, Note_off_c, 0, 72, 41
1, 181869, Control_c, 0, 64, 85
1, 181884, Control_c, 0, 64, 97
1, 181899, Control_c, 0, 64, 110
1, 181914, Control_c, 0, 64, 115
1, 181914, Note_off_c, 0, 51, 27
1, 181917, Note_off_c, 0, 75, 53
1, 181959, Control_c, 0, 64, 114
1, 181962, Note_on_c, 0, 60, 40
1, 181987, Note_off_c, 0, 56, 33
1, 181988, Control_c, 0, 64, 113
1, 182003, Control_c, 0, 64, 112
1, 182018, Control_c, 0, 64, 111
1, 182033, Control_c, 0, 64, 110
1, 182048, Control_c, 0, 64, 109
1, 182060, Note_on_c, 0, 63, 30
1, 182063, Control_c, 0, 64, 107
1, 182077, Control_c, 0, 64, 107
1, 182092, Control_c, 0, 64, 106
1, 182106, Note_off_c, 0, 60, 37
1, 182107, Control_c, 0, 64, 105
1, 182121, Control_c, 0, 64, 104
1, 182136, Control_c, 0, 64, 104
1, 182168, Note_on_c, 0, 51, 27
1, 182181, Control_c, 0, 64, 103
1, 182195, Control_c, 0, 64, 103
1, 182210, Control_c, 0, 64, 102
1, 182227, Note_on_c, 0, 56, 39
1, 182256, Note_off_c, 0, 51, 34
1, 182281, Note_off_c, 0, 63, 28
1, 182284, Control_c, 0, 64, 102
1, 182299, Control_c, 0, 64, 101
1, 182315, Control_c, 0, 64, 101
1, 182346, Note_on_c, 0, 60, 43
1, 182359, Note_off_c, 0, 56, 37
1, 182374, Control_c, 0, 64, 100
1, 182418, Control_c, 0, 64, 100
1, 182433, Control_c, 0, 64, 99
1, 182459, Note_on_c, 0, 63, 23
1, 182463, Control_c, 0, 64, 99
1, 182507, Control_c, 0, 64, 98
1, 182512, Note_off_c, 0, 60, 32
1, 182522, Control_c, 0, 64, 98
1, 182529, Note_on_c, 0, 51, 40
1, 182552, Control_c, 0, 64, 97
1, 182589, Control_c, 0, 64, 96
1, 182604, Control_c, 0, 64, 95
1, 182618, Control_c, 0, 64, 95
1, 182622, Note_on_c, 0, 56, 31
1, 182625, Note_off_c, 0, 51, 34
1, 182633, Control_c, 0, 64, 94
1, 182663, Control_c, 0, 64, 94
1, 182678, Control_c, 0, 64, 93
1, 182684, Note_off_c, 0, 63, 36
1, 182692, Control_c, 0, 64, 91
1, 182707, Control_c, 0, 64, 86
1, 182722, Control_c, 0, 64, 78
1, 182729, Note_on_c, 0, 48, 48
1, 182737, Control_c, 0, 64, 71
1, 182739, Note_on_c, 0, 60, 35
1, 182752, Control_c, 0, 64, 65
1, 182759, Note_on_c, 0, 51, 9
1, 182767, Control_c, 0, 64, 61
1, 182781, Control_c, 0, 64, 62
1, 182796, Control_c, 0, 64, 63
1, 182805, Note_off_c, 0, 56, 36
1, 182811, Control_c, 0, 64, 65
1, 182826, Control_c, 0, 64, 67
1, 182837, Note_on_c, 0, 63, 17
1, 182841, Control_c, 0, 64, 69
1, 182856, Control_c, 0, 64, 72
1, 182857, Note_off_c, 0, 60, 37
1, 182871, Control_c, 0, 64, 76
1, 182885, Control_c, 0, 64, 80
1, 182900, Control_c, 0, 64, 84
1, 182907, Note_off_c, 0, 63, 39
1, 182915, Control_c, 0, 64, 85
1, 182930, Control_c, 0, 64, 80
1, 182944, Control_c, 0, 64, 73
1, 182952, Note_on_c, 0, 61, 41
1, 182959, Control_c, 0, 64, 65
1, 182960, Note_on_c, 0, 46, 40
1, 182974, Control_c, 0, 64, 58
1, 182984, Note_off_c, 0, 48, 37
1, 183004, Control_c, 0, 64, 62
1, 183018, Control_c, 0, 64, 65
1, 183033, Control_c, 0, 64, 68
1, 183045, Poly_aftertouch_c, 0, 63, 127
1, 183048, Control_c, 0, 64, 73
1, 183062, Control_c, 0, 64, 80
1, 183077, Control_c, 0, 64, 85
1, 183092, Control_c, 0, 64, 87
1, 183107, Control_c, 0, 64, 86
1, 183120, Poly_aftertouch_c, 0, 63, 0
1, 183123, Control_c, 0, 64, 86
1, 183127, Note_off_c, 0, 51, 38
1, 183138, Control_c, 0, 64, 85
1, 183142, Note_off_c, 0, 61, 36
1, 183153, Control_c, 0, 64, 85
1, 183164, Note_on_c, 0, 60, 43
1, 183167, Control_c, 0, 64, 84
1, 183168, Note_off_c, 0, 46, 38
1, 183172, Note_on_c, 0, 44, 43
1, 183182, Control_c, 0, 64, 83
1, 183197, Control_c, 0, 64, 82
1, 183212, Control_c, 0, 64, 79
1, 183227, Control_c, 0, 64, 74
1, 183241, Control_c, 0, 64, 66
1, 183256, Control_c, 0, 64, 56
1, 183271, Control_c, 0, 64, 41
1, 183272, Note_on_c, 0, 63, 30
1, 183286, Control_c, 0, 64, 36
1, 183323, Control_c, 0, 64, 37
1, 183336, Note_off_c, 0, 60, 52
1, 183338, Control_c, 0, 64, 41
1, 183353, Control_c, 0, 64, 48
1, 183367, Control_c, 0, 64, 53
1, 183381, Note_on_c, 0, 51, 34
1, 183382, Control_c, 0, 64, 57
1, 183397, Control_c, 0, 64, 60
1, 183412, Control_c, 0, 64, 62
1, 183427, Control_c, 0, 64, 65
1, 183441, Control_c, 0, 64, 69
1, 183456, Control_c, 0, 64, 75
1, 183471, Control_c, 0, 64, 83
1, 183477, Note_on_c, 0, 56, 33
1, 183486, Control_c, 0, 64, 91
1, 183499, Note_off_c, 0, 63, 33
1, 183501, Control_c, 0, 64, 97
1, 183515, Control_c, 0, 64, 98
1, 183545, Control_c, 0, 64, 98
1, 183560, Control_c, 0, 64, 99
1, 183562, Note_off_c, 0, 44, 35
1, 183574, Control_c, 0, 64, 99
1, 183595, Note_off_c, 0, 51, 39
1, 183597, Note_on_c, 0, 60, 34
1, 183620, Control_c, 0, 64, 99
1, 183639, Note_off_c, 0, 56, 31
1, 183649, Control_c, 0, 64, 98
1, 183664, Control_c, 0, 64, 97
1, 183670, Note_on_c, 0, 63, 26
1, 183723, Control_c, 0, 64, 97
1, 183753, Control_c, 0, 64, 96
1, 183759, Note_off_c, 0, 60, 33
1, 183768, Control_c, 0, 64, 96
1, 183774, Note_on_c, 0, 51, 32
1, 183783, Control_c, 0, 64, 95
1, 183855, Note_on_c, 0, 56, 32
1, 183886, Control_c, 0, 64, 95
1, 183911, Note_off_c, 0, 63, 36
1, 183970, Note_off_c, 0, 51, 39
1, 183974, Note_on_c, 0, 60, 38
1, 184011, Note_off_c, 0, 56, 30
1, 184066, Note_on_c, 0, 63, 26
1, 184144, Note_off_c, 0, 60, 33
1, 184179, Note_on_c, 0, 51, 30
1, 184206, Control_c, 0, 64, 94
1, 184246, Note_on_c, 0, 56, 37
1, 184293, Note_off_c, 0, 63, 36
1, 184398, Note_off_c, 0, 51, 36
1, 184399, Note_on_c, 0, 72, 53
1, 184403, Note_on_c, 0, 60, 37
1, 184405, Note_on_c, 0, 68, 45
1, 184475, Note_on_c, 0, 63, 35
1, 184482, Note_off_c, 0, 60, 45
1, 184516, Control_c, 0, 64, 94
1, 184546, Control_c, 0, 64, 93
1, 184606, Note_on_c, 0, 73, 70
1, 184607, Note_on_c, 0, 70, 60
1, 184613, Note_off_c, 0, 56, 22
1, 184620, Note_on_c, 0, 61, 51
1, 184620, Control_c, 0, 64, 93
1, 184637, Note_off_c, 0, 63, 0
1, 184650, Control_c, 0, 64, 92
1, 184664, Control_c, 0, 64, 92
1, 184667, Note_off_c, 0, 72, 55
1, 184674, Poly_aftertouch_c, 0, 63, 127
1, 184694, Control_c, 0, 64, 91
1, 184710, Control_c, 0, 64, 91
1, 184725, Control_c, 0, 64, 90
1, 184739, Control_c, 0, 64, 90
1, 184754, Control_c, 0, 64, 89
1, 184769, Control_c, 0, 64, 88
1, 184784, Control_c, 0, 64, 87
1, 184799, Poly_aftertouch_c, 0, 63, 0
1, 184799, Control_c, 0, 64, 86
1, 184804, Note_off_c, 0, 61, 46
1, 184820, Control_c, 0, 64, 85
1, 184829, Note_on_c, 0, 72, 52
1, 184835, Note_on_c, 0, 75, 79
1, 184835, Control_c, 0, 64, 83
1, 184837, Note_off_c, 0, 68, 34
1, 184850, Control_c, 0, 64, 82
1, 184854, Note_off_c, 0, 70, 38
1, 184855, Note_on_c, 0, 60, 40
1, 184880, Control_c, 0, 64, 82
1, 184895, Control_c, 0, 64, 81
1, 184910, Control_c, 0, 64, 78
1, 184924, Note_on_c, 0, 63, 42
1, 184925, Control_c, 0, 64, 71
1, 184937, Note_off_c, 0, 73, 57
1, 184939, Control_c, 0, 64, 64
1, 184949, Note_off_c, 0, 60, 50
1, 184954, Control_c, 0, 64, 55
1, 184969, Control_c, 0, 64, 46
1, 184984, Control_c, 0, 64, 45
1, 185013, Control_c, 0, 64, 47
1, 185028, Control_c, 0, 64, 51
1, 185043, Control_c, 0, 64, 55
1, 185048, Note_on_c, 0, 51, 49
1, 185058, Control_c, 0, 64, 59
1, 185068, Note_off_c, 0, 72, 62
1, 185073, Control_c, 0, 64, 62
1, 185087, Control_c, 0, 64, 64
1, 185102, Control_c, 0, 64, 66
1, 185104, Note_off_c, 0, 63, 53
1, 185117, Control_c, 0, 64, 70
1, 185132, Control_c, 0, 64, 76
1, 185133, Note_on_c, 0, 56, 46
1, 185139, Note_off_c, 0, 75, 58
1, 185146, Control_c, 0, 64, 86
1, 185161, Control_c, 0, 64, 99
1, 185176, Control_c, 0, 64, 116
1, 185191, Control_c, 0, 64, 127
1, 185202, Note_off_c, 0, 51, 28
1, 185226, Note_on_c, 0, 60, 46
1, 185271, Note_off_c, 0, 56, 36
1, 185314, Note_on_c, 0, 63, 43
1, 185353, Note_off_c, 0, 60, 36
1, 185397, Note_on_c, 0, 51, 50
1, 185447, Note_off_c, 0, 63, 35
1, 185471, Note_on_c, 0, 56, 54
1, 185473, Control_c, 0, 64, 123
1, 185473, Note_off_c, 0, 51, 56
1, 185487, Control_c, 0, 64, 121
1, 185533, Control_c, 0, 64, 119
1, 185584, Control_c, 0, 64, 118
1, 185600, Note_on_c, 0, 60, 50
1, 185655, Note_off_c, 0, 60, 55
1, 185660, Note_off_c, 0, 56, 35
1, 185667, Note_on_c, 0, 63, 51
1, 185703, Control_c, 0, 64, 117
1, 185774, Note_off_c, 0, 63, 37
1, 185798, Note_on_c, 0, 51, 68
1, 185804, Note_on_c, 0, 44, 44
1, 185808, Note_on_c, 0, 48, 48
1, 185828, Note_on_c, 0, 60, 46
1, 185851, Control_c, 0, 64, 116
1, 185866, Control_c, 0, 64, 115
1, 185935, Note_on_c, 0, 63, 32
1, 185955, Control_c, 0, 64, 112
1, 185969, Control_c, 0, 64, 105
1, 185973, Note_off_c, 0, 60, 34
1, 185984, Control_c, 0, 64, 91
1, 185999, Control_c, 0, 64, 77
1, 186014, Control_c, 0, 64, 66
1, 186019, Note_on_c, 0, 49, 53
1, 186019, Note_on_c, 0, 53, 74
1, 186021, Note_off_c, 0, 44, 57
1, 186029, Control_c, 0, 64, 60
1, 186035, Note_on_c, 0, 61, 35
1, 186037, Note_off_c, 0, 63, 49
1, 186043, Control_c, 0, 64, 59
1, 186053, Note_off_c, 0, 48, 35
1, 186058, Control_c, 0, 64, 62
1, 186073, Control_c, 0, 64, 65
1, 186088, Control_c, 0, 64, 69
1, 186090, Note_off_c, 0, 61, 58
1, 186096, Note_off_c, 0, 51, 61
1, 186103, Control_c, 0, 64, 76
1, 186108, Note_on_c, 0, 65, 48
1, 186109, Note_off_c, 0, 49, 60
1, 186117, Control_c, 0, 64, 86
1, 186132, Control_c, 0, 64, 112
1, 186147, Control_c, 0, 64, 127
1, 186221, Note_on_c, 0, 55, 75
1, 186221, Control_c, 0, 64, 83
1, 186229, Note_on_c, 0, 46, 66
1, 186236, Control_c, 0, 64, 65
1, 186242, Note_on_c, 0, 58, 64
1, 186251, Control_c, 0, 64, 52
1, 186266, Control_c, 0, 64, 52
1, 186269, Note_off_c, 0, 53, 64
1, 186280, Control_c, 0, 64, 58
1, 186295, Control_c, 0, 64, 63
1, 186319, Control_c, 0, 64, 67
1, 186334, Note_off_c, 0, 65, 50
1, 186334, Control_c, 0, 64, 75
1, 186338, Note_on_c, 0, 67, 59
1, 186341, Note_off_c, 0, 58, 63
1, 186348, Control_c, 0, 64, 89
1, 186363, Control_c, 0, 64, 127
1, 186385, Note_off_c, 0, 67, 55
1, 186457, Note_off_c, 0, 46, 33
1, 186462, Note_on_c, 0, 48, 60
1, 186465, Note_on_c, 0, 56, 83
1, 186496, Control_c, 0, 64, 111
1, 186509, Note_on_c, 0, 60, 42
1, 186511, Control_c, 0, 64, 75
1, 186525, Control_c, 0, 64, 57
1, 186535, Note_off_c, 0, 55, 55
1, 186540, Control_c, 0, 64, 0
1, 186543, Note_off_c, 0, 60, 55
1, 186582, Note_on_c, 0, 68, 48
1, 186600, Control_c, 0, 64, 23
1, 186615, Control_c, 0, 64, 47
1, 186630, Control_c, 0, 64, 58
1, 186642, Note_off_c, 0, 48, 62
1, 186645, Control_c, 0, 64, 64
1, 186653, Note_off_c, 0, 56, 64
1, 186659, Control_c, 0, 64, 70
1, 186674, Control_c, 0, 64, 84
1, 186689, Control_c, 0, 64, 127
1, 186705, Note_on_c, 0, 56, 67
1, 186740, Note_off_c, 0, 68, 54
1, 186795, Note_on_c, 0, 60, 63
1, 186818, Note_off_c, 0, 56, 57
1, 186887, Note_on_c, 0, 63, 64
1, 186928, Note_off_c, 0, 60, 60
1, 186974, Note_on_c, 0, 68, 54
1, 187022, Note_off_c, 0, 63, 57
1, 187066, Note_on_c, 0, 56, 52
1, 187144, Note_on_c, 0, 60, 55
1, 187199, Note_off_c, 0, 68, 27
1, 187216, Note_off_c, 0, 56, 35
1, 187290, Note_on_c, 0, 63, 58
1, 187342, Note_off_c, 0, 60, 54
1, 187409, Note_on_c, 0, 68, 39
1, 187447, Note_off_c, 0, 63, 55
1, 187463, Note_off_c, 0, 68, 50
1, 187512, Note_on_c, 0, 80, 74
1, 187517, Note_on_c, 0, 60, 51
1, 187522, Note_on_c, 0, 72, 55
1, 187611, Note_on_c, 0, 68, 41
1, 187634, Note_off_c, 0, 60, 54
1, 187774, Note_off_c, 0, 80, 60
1, 187776, Note_off_c, 0, 68, 29
1, 187783, Note_off_c, 0, 72, 33
1, 187790, Note_on_c, 0, 63, 50
1, 187792, Note_on_c, 0, 79, 72
1, 187794, Control_c, 0, 64, 104
1, 187814, Note_on_c, 0, 75, 55
1, 187816, Control_c, 0, 64, 79
1, 187831, Control_c, 0, 64, 67
1, 187846, Control_c, 0, 64, 59
1, 187861, Control_c, 0, 64, 58
1, 187876, Control_c, 0, 64, 60
1, 187890, Control_c, 0, 64, 63
1, 187905, Control_c, 0, 64, 66
1, 187920, Control_c, 0, 64, 69
1, 187935, Control_c, 0, 64, 72
1, 187950, Control_c, 0, 64, 77
1, 187954, Note_on_c, 0, 67, 29
1, 187965, Control_c, 0, 64, 85
1, 187980, Control_c, 0, 64, 95
1, 187995, Control_c, 0, 64, 107
1, 188010, Control_c, 0, 64, 103
1, 188023, Note_on_c, 0, 77, 68
1, 188024, Note_on_c, 0, 73, 59
1, 188025, Control_c, 0, 64, 89
1, 188039, Control_c, 0, 64, 75
1, 188040, Note_off_c, 0, 75, 38
1, 188050, Note_on_c, 0, 61, 44
1, 188050, Note_off_c, 0, 63, 31
1, 188054, Control_c, 0, 64, 65
1, 188069, Control_c, 0, 64, 58
1, 188088, Note_off_c, 0, 79, 59
1, 188098, Control_c, 0, 64, 63
1, 188112, Control_c, 0, 64, 66
1, 188127, Control_c, 0, 64, 69
1, 188142, Control_c, 0, 64, 75
1, 188156, Control_c, 0, 64, 82
1, 188160, Note_off_c, 0, 67, 39
1, 188167, Note_on_c, 0, 65, 43
1, 188171, Control_c, 0, 64, 93
1, 188174, Note_off_c, 0, 61, 36
1, 188186, Control_c, 0, 64, 108
1, 188201, Control_c, 0, 64, 115
1, 188216, Control_c, 0, 64, 113
1, 188231, Control_c, 0, 64, 111
1, 188245, Control_c, 0, 64, 111
1, 188260, Control_c, 0, 64, 110
1, 188268, Note_off_c, 0, 77, 58
1, 188283, Note_on_c, 0, 75, 56
1, 188290, Control_c, 0, 64, 108
1, 188292, Note_on_c, 0, 72, 50
1, 188302, Note_off_c, 0, 65, 47
1, 188305, Control_c, 0, 64, 104
1, 188307, Note_on_c, 0, 60, 49
1, 188320, Control_c, 0, 64, 94
1, 188331, Note_off_c, 0, 73, 26
1, 188335, Control_c, 0, 64, 79
1, 188349, Control_c, 0, 64, 65
1, 188364, Control_c, 0, 64, 45
1, 188379, Control_c, 0, 64, 22
1, 188394, Control_c, 0, 64, 26
1, 188409, Control_c, 0, 64, 36
1, 188423, Control_c, 0, 64, 48
1, 188433, Note_off_c, 0, 60, 59
1, 188438, Control_c, 0, 64, 56
1, 188453, Control_c, 0, 64, 61
1, 188457, Note_on_c, 0, 63, 46
1, 188468, Control_c, 0, 64, 64
1, 188483, Control_c, 0, 64, 67
1, 188497, Control_c, 0, 64, 73
1, 188512, Control_c, 0, 64, 83
1, 188527, Control_c, 0, 64, 99
1, 188542, Control_c, 0, 64, 127
1, 188546, Note_off_c, 0, 75, 62
1, 188558, Note_off_c, 0, 72, 37
1, 188586, Note_on_c, 0, 51, 44
1, 188677, Note_off_c, 0, 51, 45
1, 188689, Note_on_c, 0, 56, 31
1, 188701, Note_off_c, 0, 63, 34
1, 188743, Control_c, 0, 64, 123
1, 188750, Note_on_c, 0, 60, 43
1, 188758, Control_c, 0, 64, 121
1, 188761, Note_off_c, 0, 56, 42
1, 188773, Control_c, 0, 64, 119
1, 188787, Control_c, 0, 64, 118
1, 188846, Control_c, 0, 64, 117
1, 188850, Note_on_c, 0, 63, 42
1, 188860, Control_c, 0, 64, 116
1, 188862, Note_off_c, 0, 60, 54
1, 188875, Control_c, 0, 64, 114
1, 188890, Control_c, 0, 64, 113
1, 188905, Control_c, 0, 64, 113
1, 188930, Note_on_c, 0, 51, 41
1, 188949, Control_c, 0, 64, 112
1, 188994, Control_c, 0, 64, 111
1, 188995, Note_off_c, 0, 51, 54
1, 189023, Control_c, 0, 64, 110
1, 189030, Note_on_c, 0, 56, 32
1, 189038, Control_c, 0, 64, 110
1, 189056, Note_off_c, 0, 63, 28
1, 189068, Control_c, 0, 64, 109
1, 189119, Note_on_c, 0, 60, 43
1, 189214, Note_off_c, 0, 60, 52
1, 189238, Note_off_c, 0, 56, 32
1, 189239, Poly_aftertouch_c, 0, 63, 127
1, 189277, Poly_aftertouch_c, 0, 63, 0
1, 189334, Note_on_c, 0, 48, 47
1, 189340, Note_on_c, 0, 51, 57
1, 189357, Note_on_c, 0, 60, 19
1, 189372, Control_c, 0, 64, 108
1, 189386, Control_c, 0, 64, 108
1, 189406, Note_off_c, 0, 60, 48
1, 189431, Note_on_c, 0, 63, 17
1, 189446, Control_c, 0, 64, 107
1, 189449, Note_off_c, 0, 51, 62
1, 189460, Control_c, 0, 64, 107
1, 189475, Control_c, 0, 64, 103
1, 189483, Note_off_c, 0, 63, 45
1, 189490, Control_c, 0, 64, 89
1, 189506, Control_c, 0, 64, 75
1, 189521, Control_c, 0, 64, 64
1, 189536, Control_c, 0, 64, 54
1, 189547, Note_on_c, 0, 55, 26
1, 189550, Note_on_c, 0, 46, 43
1, 189550, Note_on_c, 0, 49, 49
1, 189551, Control_c, 0, 64, 55
1, 189552, Note_on_c, 0, 61, 34
1, 189555, Note_off_c, 0, 48, 34
1, 189565, Control_c, 0, 64, 60
1, 189580, Control_c, 0, 64, 64
1, 189595, Control_c, 0, 64, 68
1, 189609, Control_c, 0, 64, 76
1, 189620, Note_off_c, 0, 61, 49
1, 189624, Control_c, 0, 64, 89
1, 189639, Control_c, 0, 64, 115
1, 189654, Note_on_c, 0, 63, 16
1, 189654, Control_c, 0, 64, 127
1, 189688, Note_off_c, 0, 46, 0
1, 189705, Note_off_c, 0, 63, 46
1, 189706, Note_on_c, 0, 46, 23
1, 189729, Note_on_c, 0, 58, 48
1, 189748, Note_on_c, 0, 39, 43
1, 189782, Note_off_c, 0, 55, 42
1, 189801, Control_c, 0, 64, 115
1, 189816, Note_off_c, 0, 58, 52
1, 189816, Control_c, 0, 64, 106
1, 189831, Control_c, 0, 64, 101
1, 189839, Note_on_c, 0, 63, 36
1, 189846, Control_c, 0, 64, 98
1, 189853, Note_off_c, 0, 49, 37
1, 189861, Control_c, 0, 64, 95
1, 189876, Control_c, 0, 64, 91
1, 189891, Control_c, 0, 64, 87
1, 189906, Control_c, 0, 64, 84
1, 189921, Control_c, 0, 64, 80
1, 189929, Note_off_c, 0, 63, 0
1, 189936, Control_c, 0, 64, 74
1, 189938, Note_off_c, 0, 39, 43
1, 189950, Control_c, 0, 64, 66
1, 189959, Note_on_c, 0, 48, 36
1, 189965, Control_c, 0, 64, 55
1, 189965, Note_off_c, 0, 46, 40
1, 189965, Poly_aftertouch_c, 0, 63, 127
1, 189971, Note_on_c, 0, 44, 37
1, 189978, Note_on_c, 0, 60, 35
1, 189980, Control_c, 0, 64, 37
1, 189995, Control_c, 0, 64, 28
1, 190001, Poly_aftertouch_c, 0, 56, 127
1, 190059, Poly_aftertouch_c, 0, 56, 0
1, 190061, Control_c, 0, 64, 33
1, 190076, Control_c, 0, 64, 40
1, 190091, Control_c, 0, 64, 47
1, 190105, Control_c, 0, 64, 52
1, 190120, Control_c, 0, 64, 55
1, 190132, Note_off_c, 0, 60, 58
1, 190135, Control_c, 0, 64, 57
1, 190150, Control_c, 0, 64, 60
1, 190165, Control_c, 0, 64, 63
1, 190166, Note_on_c, 0, 51, 46
1, 190180, Control_c, 0, 64, 65
1, 190195, Control_c, 0, 64, 67
1, 190209, Control_c, 0, 64, 70
1, 190222, Poly_aftertouch_c, 0, 63, 0
1, 190224, Control_c, 0, 64, 74
1, 190239, Control_c, 0, 64, 79
1, 190254, Control_c, 0, 64, 83
1, 190269, Control_c, 0, 64, 86
1, 190277, Note_on_c, 0, 56, 27
1, 190283, Control_c, 0, 64, 88
1, 190287, Note_off_c, 0, 48, 41
1, 190299, Control_c, 0, 64, 90
1, 190314, Control_c, 0, 64, 91
1, 190314, Note_off_c, 0, 51, 27
1, 190317, Note_off_c, 0, 44, 38
1, 190350, Note_on_c, 0, 60, 35
1, 190414, Note_off_c, 0, 56, 38
1, 190459, Note_off_c, 0, 60, 54
1, 190460, Note_on_c, 0, 63, 40
1, 190525, Note_off_c, 0, 63, 54
1, 190544, Note_on_c, 0, 51, 39
1, 190565, Control_c, 0, 64, 90
1, 190621, Note_off_c, 0, 51, 35
1, 190622, Note_on_c, 0, 56, 37
1, 190654, Control_c, 0, 64, 90
1, 190684, Control_c, 0, 64, 89
1, 190720, Note_off_c, 0, 56, 35
1, 190721, Note_on_c, 0, 60, 39
1, 190728, Control_c, 0, 64, 89
1, 190844, Note_on_c, 0, 63, 36
1, 190866, Note_off_c, 0, 60, 35
1, 190922, Note_on_c, 0, 51, 34
1, 190980, Note_on_c, 0, 56, 39
1, 190985, Note_off_c, 0, 51, 40
1, 190994, Note_off_c, 0, 63, 29
1, 191061, Control_c, 0, 64, 88
1, 191134, Note_on_c, 0, 72, 56
1, 191147, Note_on_c, 0, 60, 34
1, 191154, Note_on_c, 0, 68, 49
1, 191181, Control_c, 0, 64, 88
1, 191196, Control_c, 0, 64, 87
1, 191202, Note_on_c, 0, 63, 42
1, 191202, Note_off_c, 0, 56, 36
1, 191203, Note_off_c, 0, 60, 44
1, 191211, Control_c, 0, 64, 87
1, 191241, Control_c, 0, 64, 86
1, 191270, Control_c, 0, 64, 86
1, 191285, Control_c, 0, 64, 85
1, 191300, Control_c, 0, 64, 85
1, 191320, Note_off_c, 0, 63, 53
1, 191329, Control_c, 0, 64, 84
1, 191343, Note_on_c, 0, 73, 71
1, 191344, Control_c, 0, 64, 83
1, 191359, Control_c, 0, 64, 83
1, 191364, Note_on_c, 0, 70, 55
1, 191366, Note_on_c, 0, 61, 47
1, 191373, Control_c, 0, 64, 82
1, 191404, Note_on_c, 0, 63, 9
1, 191415, Note_off_c, 0, 72, 57
1, 191418, Control_c, 0, 64, 82
1, 191447, Control_c, 0, 64, 81
1, 191462, Control_c, 0, 64, 81
1, 191477, Control_c, 0, 64, 80
1, 191492, Control_c, 0, 64, 80
1, 191507, Control_c, 0, 64, 79
1, 191521, Control_c, 0, 64, 78
1, 191528, Note_off_c, 0, 63, 52
1, 191531, Note_off_c, 0, 61, 50
1, 191536, Control_c, 0, 64, 78
1, 191577, Note_on_c, 0, 75, 78
1, 191579, Note_off_c, 0, 68, 21
1, 191584, Note_on_c, 0, 72, 54
1, 191591, Note_on_c, 0, 60, 37
1, 191603, Control_c, 0, 64, 77
1, 191606, Note_off_c, 0, 70, 32
1, 191618, Control_c, 0, 64, 75
1, 191633, Control_c, 0, 64, 67
1, 191648, Control_c, 0, 64, 60
1, 191661, Note_off_c, 0, 73, 61
1, 191662, Control_c, 0, 64, 50
1, 191669, Note_on_c, 0, 63, 41
1, 191677, Control_c, 0, 64, 45
1, 191679, Note_off_c, 0, 60, 53
1, 191722, Control_c, 0, 64, 48
1, 191736, Control_c, 0, 64, 54
1, 191751, Control_c, 0, 64, 60
1, 191766, Control_c, 0, 64, 64
1, 191781, Control_c, 0, 64, 68
1, 191787, Note_on_c, 0, 51, 47
1, 191790, Note_off_c, 0, 72, 62
1, 191796, Control_c, 0, 64, 73
1, 191811, Control_c, 0, 64, 84
1, 191825, Control_c, 0, 64, 127
1, 191852, Note_off_c, 0, 75, 57
1, 191858, Note_off_c, 0, 63, 34
1, 191864, Note_on_c, 0, 56, 52
1, 191926, Note_off_c, 0, 51, 32
1, 191977, Note_on_c, 0, 60, 48
1, 191987, Note_off_c, 0, 56, 48
1, 192060, Note_on_c, 0, 63, 48
1, 192111, Note_off_c, 0, 60, 35
1, 192138, Note_on_c, 0, 51, 56
1, 192210, Note_off_c, 0, 63, 35
1, 192220, Note_on_c, 0, 56, 53
1, 192226, Note_off_c, 0, 51, 61
1, 192342, Note_on_c, 0, 60, 51
1, 192407, Note_off_c, 0, 56, 34
1, 192418, Note_off_c, 0, 60, 60
1, 192419, Note_on_c, 0, 63, 50
1, 192520, Note_off_c, 0, 63, 38
1, 192532, Note_on_c, 0, 48, 58
1, 192536, Note_on_c, 0, 51, 75
1, 192539, Note_on_c, 0, 44, 49
1, 192556, Note_on_c, 0, 60, 51
1, 192661, Note_on_c, 0, 63, 42
1, 192680, Note_off_c, 0, 60, 53
1, 192727, Note_off_c, 0, 63, 53
1, 192745, Note_off_c, 0, 48, 32
1, 192746, Note_on_c, 0, 49, 56
1, 192747, Note_on_c, 0, 53, 83
1, 192748, Note_off_c, 0, 44, 31
1, 192754, Control_c, 0, 64, 86
1, 192757, Note_on_c, 0, 61, 51
1, 192768, Control_c, 0, 64, 69
1, 192783, Control_c, 0, 64, 58
1, 192798, Control_c, 0, 64, 53
1, 192813, Control_c, 0, 64, 57
1, 192814, Note_off_c, 0, 51, 63
1, 192827, Control_c, 0, 64, 62
1, 192839, Note_off_c, 0, 49, 61
1, 192841, Note_off_c, 0, 61, 58
1, 192842, Control_c, 0, 64, 66
1, 192843, Note_on_c, 0, 65, 53
1, 192857, Control_c, 0, 64, 70
1, 192872, Control_c, 0, 64, 77
1, 192887, Control_c, 0, 64, 94
1, 192902, Control_c, 0, 64, 127
1, 192952, Note_on_c, 0, 55, 84
1, 192958, Note_on_c, 0, 46, 75
1, 192961, Control_c, 0, 64, 99
1, 192976, Control_c, 0, 64, 72
1, 192979, Note_on_c, 0, 58, 75
1, 192987, Note_off_c, 0, 53, 63
1, 192991, Control_c, 0, 64, 56
1, 193006, Control_c, 0, 64, 42
1, 193020, Control_c, 0, 64, 52
1, 193035, Control_c, 0, 64, 61
1, 193057, Control_c, 0, 64, 66
1, 193072, Control_c, 0, 64, 73
1, 193086, Note_off_c, 0, 65, 58
1, 193087, Control_c, 0, 64, 90
1, 193089, Note_off_c, 0, 58, 63
1, 193090, Note_on_c, 0, 67, 58
1, 193101, Control_c, 0, 64, 127
1, 193131, Note_off_c, 0, 67, 58
1, 193146, Note_off_c, 0, 46, 51
1, 193164, Note_off_c, 0, 55, 62
1, 193194, Note_on_c, 0, 48, 63
1, 193196, Note_on_c, 0, 56, 86
1, 193250, Note_on_c, 0, 60, 43
1, 193250, Control_c, 0, 64, 85
1, 193265, Control_c, 0, 64, 65
1, 193280, Control_c, 0, 64, 19
1, 193295, Control_c, 0, 64, 0
1, 193313, Note_off_c, 0, 60, 57
1, 193329, Note_on_c, 0, 68, 52
1, 193353, Control_c, 0, 64, 30
1, 193368, Control_c, 0, 64, 51
1, 193381, Note_off_c, 0, 48, 57
1, 193383, Control_c, 0, 64, 60
1, 193398, Control_c, 0, 64, 67
1, 193400, Note_off_c, 0, 56, 65
1, 193413, Control_c, 0, 64, 76
1, 193427, Control_c, 0, 64, 101
1, 193442, Control_c, 0, 64, 127
1, 193445, Note_on_c, 0, 56, 69
1, 193510, Note_off_c, 0, 68, 39
1, 193529, Note_on_c, 0, 60, 63
1, 193568, Note_off_c, 0, 56, 55
1, 193623, Note_on_c, 0, 63, 70
1, 193674, Note_off_c, 0, 60, 59
1, 193739, Note_on_c, 0, 68, 60
1, 193785, Note_off_c, 0, 63, 58
1, 193822, Note_on_c, 0, 56, 63
1, 193907, Note_on_c, 0, 60, 55
1, 193933, Note_off_c, 0, 56, 56
1, 193948, Note_off_c, 0, 68, 31
1, 194042, Note_on_c, 0, 63, 55
1, 194100, Note_off_c, 0, 60, 55
1, 194127, Note_on_c, 0, 68, 47
1, 194189, Note_off_c, 0, 63, 49
1, 194255, Note_on_c, 0, 80, 82
1, 194267, Note_on_c, 0, 60, 53
1, 194272, Note_on_c, 0, 72, 55
1, 194273, Note_off_c, 0, 68, 31
1, 194367, Note_on_c, 0, 68, 41
1, 194390, Note_off_c, 0, 60, 55
1, 194520, Note_off_c, 0, 80, 64
1, 194551, Note_on_c, 0, 79, 73
1, 194553, Note_off_c, 0, 68, 38
1, 194570, Control_c, 0, 64, 111
1, 194571, Note_on_c, 0, 75, 58
1, 194578, Note_on_c, 0, 63, 51
1, 194585, Control_c, 0, 64, 86
1, 194599, Control_c, 0, 64, 71
1, 194613, Note_off_c, 0, 72, 39
1, 194614, Control_c, 0, 64, 61
1, 194629, Control_c, 0, 64, 55
1, 194644, Control_c, 0, 64, 57
1, 194659, Control_c, 0, 64, 60
1, 194674, Control_c, 0, 64, 62
1, 194688, Control_c, 0, 64, 64
1, 194703, Control_c, 0, 64, 66
1, 194718, Control_c, 0, 64, 69
1, 194733, Control_c, 0, 64, 75
1, 194745, Note_on_c, 0, 67, 29
1, 194747, Control_c, 0, 64, 85
1, 194762, Control_c, 0, 64, 105
1, 194777, Control_c, 0, 64, 127
1, 194793, Note_on_c, 0, 77, 67
1, 194797, Note_on_c, 0, 73, 60
1, 194806, Control_c, 0, 64, 102
1, 194809, Note_off_c, 0, 63, 48
1, 194821, Control_c, 0, 64, 78
1, 194822, Note_off_c, 0, 75, 43
1, 194829, Note_on_c, 0, 61, 46
1, 194836, Control_c, 0, 64, 64
1, 194851, Control_c, 0, 64, 53
1, 194864, Note_off_c, 0, 79, 59
1, 194866, Control_c, 0, 64, 54
1, 194881, Control_c, 0, 64, 60
1, 194896, Control_c, 0, 64, 64
1, 194911, Control_c, 0, 64, 68
1, 194926, Control_c, 0, 64, 72
1, 194936, Note_off_c, 0, 67, 41
1, 194941, Control_c, 0, 64, 79
1, 194955, Control_c, 0, 64, 86
1, 194956, Note_on_c, 0, 65, 42
1, 194970, Control_c, 0, 64, 92
1, 194979, Note_off_c, 0, 61, 31
1, 194985, Control_c, 0, 64, 95
1, 194999, Control_c, 0, 64, 94
1, 195028, Note_off_c, 0, 77, 55
1, 195059, Control_c, 0, 64, 94
1, 195060, Note_on_c, 0, 75, 49
1, 195063, Note_off_c, 0, 65, 49
1, 195069, Note_on_c, 0, 72, 42
1, 195070, Note_off_c, 0, 73, 30
1, 195073, Control_c, 0, 64, 93
1, 195080, Note_on_c, 0, 60, 47
1, 195088, Control_c, 0, 64, 92
1, 195104, Control_c, 0, 64, 87
1, 195119, Control_c, 0, 64, 78
1, 195134, Control_c, 0, 64, 67
1, 195149, Control_c, 0, 64, 55
1, 195164, Control_c, 0, 64, 39
1, 195178, Control_c, 0, 64, 38
1, 195193, Control_c, 0, 64, 41
1, 195208, Control_c, 0, 64, 49
1, 195222, Control_c, 0, 64, 56
1, 195237, Control_c, 0, 64, 60
1, 195240, Note_off_c, 0, 60, 45
1, 195244, Note_on_c, 0, 63, 39
1, 195252, Control_c, 0, 64, 63
1, 195267, Control_c, 0, 64, 65
1, 195282, Control_c, 0, 64, 68
1, 195304, Control_c, 0, 64, 73
1, 195319, Control_c, 0, 64, 81
1, 195334, Control_c, 0, 64, 92
1, 195349, Control_c, 0, 64, 107
1, 195364, Control_c, 0, 64, 127
1, 195371, Note_off_c, 0, 72, 39
1, 195375, Note_on_c, 0, 51, 51
1, 195381, Note_off_c, 0, 75, 57
1, 195452, Note_off_c, 0, 63, 40
1, 195488, Note_on_c, 0, 56, 21
1, 195493, Note_off_c, 0, 51, 35
1, 195540, Note_on_c, 0, 60, 43
1, 195542, Note_off_c, 0, 56, 46
1, 195668, Note_on_c, 0, 63, 20
1, 195690, Note_off_c, 0, 60, 34
1, 195715, Note_on_c, 0, 51, 27
1, 195784, Note_off_c, 0, 51, 41
1, 195793, Control_c, 0, 64, 123
1, 195799, Note_on_c, 0, 56, 39
1, 195811, Note_off_c, 0, 63, 26
1, 195822, Control_c, 0, 64, 121
1, 195867, Control_c, 0, 64, 119
1, 195882, Control_c, 0, 64, 118
1, 195897, Control_c, 0, 64, 117
1, 195910, Note_on_c, 0, 60, 40
1, 195927, Control_c, 0, 64, 116
1, 196002, Note_off_c, 0, 56, 23
1, 196010, Note_off_c, 0, 60, 49
1, 196096, Poly_aftertouch_c, 0, 63, 0
1, 196119, Note_on_c, 0, 48, 46
1, 196127, Note_on_c, 0, 51, 56
1, 196140, Note_on_c, 0, 60, 32
1, 196204, Note_off_c, 0, 60, 53
1, 196237, Note_off_c, 0, 51, 63
1, 196239, Note_on_c, 0, 63, 23
1, 196290, Control_c, 0, 64, 110
1, 196291, Note_off_c, 0, 63, 45
1, 196305, Control_c, 0, 64, 95
1, 196309, Note_off_c, 0, 48, 37
1, 196319, Control_c, 0, 64, 78
1, 196325, Note_on_c, 0, 49, 57
1, 196330, Note_on_c, 0, 46, 45
1, 196334, Control_c, 0, 64, 67
1, 196341, Note_on_c, 0, 55, 35
1, 196342, Note_on_c, 0, 61, 41
1, 196349, Control_c, 0, 64, 59
1, 196364, Control_c, 0, 64, 58
1, 196379, Control_c, 0, 64, 62
1, 196393, Control_c, 0, 64, 65
1, 196408, Control_c, 0, 64, 69
1, 196422, Note_on_c, 0, 63, 26
1, 196423, Control_c, 0, 64, 77
1, 196425, Note_off_c, 0, 46, 53
1, 196431, Note_off_c, 0, 61, 47
1, 196438, Control_c, 0, 64, 93
1, 196452, Control_c, 0, 64, 127
1, 196510, Note_on_c, 0, 46, 35
1, 196523, Note_on_c, 0, 58, 56
1, 196535, Note_on_c, 0, 39, 48
1, 196538, Note_off_c, 0, 63, 35
1, 196595, Note_off_c, 0, 55, 40
1, 196607, Note_on_c, 0, 63, 30
1, 196629, Note_off_c, 0, 58, 54
1, 196677, Note_off_c, 0, 49, 36
1, 196738, Note_on_c, 0, 48, 54
1, 196741, Note_on_c, 0, 44, 51
1, 196761, Note_on_c, 0, 60, 49
1, 196765, Control_c, 0, 64, 110
1, 196770, Note_on_c, 0, 56, 29
1, 196780, Control_c, 0, 64, 96
1, 196800, Note_off_c, 0, 39, 31
1, 196802, Control_c, 0, 64, 81
1, 196816, Control_c, 0, 64, 68
1, 196831, Control_c, 0, 64, 56
1, 196841, Note_off_c, 0, 46, 42
1, 196842, Note_off_c, 0, 56, 40
1, 196846, Control_c, 0, 64, 22
1, 196861, Control_c, 0, 64, 0
1, 196890, Control_c, 0, 64, 9
1, 196905, Control_c, 0, 64, 24
1, 196920, Control_c, 0, 64, 33
1, 196935, Control_c, 0, 64, 42
1, 196950, Control_c, 0, 64, 51
1, 196953, Note_off_c, 0, 60, 58
1, 196957, Note_on_c, 0, 51, 53
1, 196965, Control_c, 0, 64, 56
1, 196979, Control_c, 0, 64, 60
1, 196994, Control_c, 0, 64, 64
1, 197009, Control_c, 0, 64, 68
1, 197024, Control_c, 0, 64, 76
1, 197039, Control_c, 0, 64, 92
1, 197049, Note_off_c, 0, 48, 50
1, 197051, Note_off_c, 0, 63, 41
1, 197054, Control_c, 0, 64, 115
1, 197059, Note_on_c, 0, 56, 44
1, 197068, Control_c, 0, 64, 127
1, 197081, Note_off_c, 0, 44, 36
1, 197114, Note_off_c, 0, 51, 28
1, 197137, Note_on_c, 0, 60, 40
1, 197153, Note_off_c, 0, 56, 52
1, 197157, Control_c, 0, 64, 118
1, 197172, Control_c, 0, 64, 115
1, 197187, Control_c, 0, 64, 114
1, 197201, Control_c, 0, 64, 113
1, 197216, Control_c, 0, 64, 109
1, 197231, Control_c, 0, 64, 105
1, 197246, Control_c, 0, 64, 102
1, 197254, Note_on_c, 0, 63, 28
1, 197254, Note_off_c, 0, 60, 48
1, 197261, Control_c, 0, 64, 100
1, 197275, Control_c, 0, 64, 99
1, 197290, Control_c, 0, 64, 97
1, 197305, Control_c, 0, 64, 95
1, 197320, Control_c, 0, 64, 93
1, 197334, Note_on_c, 0, 51, 36
1, 197335, Control_c, 0, 64, 92
1, 197349, Control_c, 0, 64, 91
1, 197364, Control_c, 0, 64, 90
1, 197379, Control_c, 0, 64, 89
1, 197382, Note_off_c, 0, 51, 46
1, 197396, Note_off_c, 0, 63, 29
1, 197406, Note_on_c, 0, 56, 41
1, 197424, Control_c, 0, 64, 90
1, 197439, Control_c, 0, 64, 91
1, 197453, Control_c, 0, 64, 91
1, 197468, Control_c, 0, 64, 93
1, 197483, Control_c, 0, 64, 94
1, 197498, Control_c, 0, 64, 95
1, 197513, Control_c, 0, 64, 95
1, 197518, Note_on_c, 0, 60, 47
1, 197528, Control_c, 0, 64, 96
1, 197551, Control_c, 0, 64, 97
1, 197566, Control_c, 0, 64, 98
1, 197569, Note_off_c, 0, 56, 30
1, 197594, Note_off_c, 0, 60, 54
1, 197595, Control_c, 0, 64, 99
1, 197722, Note_on_c, 0, 48, 47
1, 197728, Note_on_c, 0, 60, 62
1, 197738, Note_on_c, 0, 51, 55
1, 197820, Note_off_c, 0, 51, 62
1, 197832, Control_c, 0, 64, 98
1, 197838, Note_off_c, 0, 60, 57
1, 197841, Note_on_c, 0, 63, 30
1, 197847, Control_c, 0, 64, 98
1, 197862, Control_c, 0, 64, 97
1, 197877, Control_c, 0, 64, 96
1, 197889, Note_off_c, 0, 63, 45
1, 197891, Note_off_c, 0, 48, 37
1, 197891, Control_c, 0, 64, 92
1, 197906, Control_c, 0, 64, 83
1, 197921, Control_c, 0, 64, 72
1, 197927, Note_on_c, 0, 49, 54
1, 197932, Note_on_c, 0, 46, 45
1, 197933, Note_on_c, 0, 61, 56
1, 197936, Control_c, 0, 64, 64
1, 197951, Control_c, 0, 64, 60
1, 197954, Note_on_c, 0, 55, 41
1, 197965, Control_c, 0, 64, 62
1, 197980, Control_c, 0, 64, 65
1, 197995, Control_c, 0, 64, 69
1, 198010, Control_c, 0, 64, 75
1, 198024, Control_c, 0, 64, 86
1, 198026, Note_on_c, 0, 63, 44
1, 198026, Note_off_c, 0, 46, 52
1, 198039, Control_c, 0, 64, 102
1, 198043, Note_off_c, 0, 55, 53
1, 198054, Control_c, 0, 64, 127
1, 198068, Note_off_c, 0, 61, 54
1, 198118, Note_on_c, 0, 46, 34
1, 198126, Note_off_c, 0, 63, 51
1, 198134, Note_on_c, 0, 58, 58
1, 198141, Note_on_c, 0, 39, 48
1, 198144, Note_on_c, 0, 55, 35
1, 198208, Note_off_c, 0, 55, 54
1, 198217, Control_c, 0, 64, 121
1, 198229, Note_on_c, 0, 63, 34
1, 198231, Control_c, 0, 64, 108
1, 198243, Note_off_c, 0, 58, 54
1, 198246, Control_c, 0, 64, 101
1, 198252, Note_off_c, 0, 49, 38
1, 198261, Control_c, 0, 64, 97
1, 198276, Control_c, 0, 64, 93
1, 198300, Control_c, 0, 64, 89
1, 198315, Control_c, 0, 64, 86
1, 198329, Control_c, 0, 64, 82
1, 198344, Control_c, 0, 64, 76
1, 198359, Control_c, 0, 64, 69
1, 198369, Note_off_c, 0, 39, 32
1, 198374, Control_c, 0, 64, 63
1, 198375, Note_on_c, 0, 48, 35
1, 198380, Note_on_c, 0, 56, 26
1, 198382, Note_on_c, 0, 44, 36
1, 198382, Note_on_c, 0, 60, 44
1, 198389, Control_c, 0, 64, 54
1, 198395, Note_off_c, 0, 46, 38
1, 198403, Control_c, 0, 64, 41
1, 198418, Control_c, 0, 64, 34
1, 198448, Note_off_c, 0, 56, 42
1, 198477, Control_c, 0, 64, 36
1, 198492, Control_c, 0, 64, 42
1, 198507, Control_c, 0, 64, 48
1, 198521, Control_c, 0, 64, 54
1, 198536, Control_c, 0, 64, 57
1, 198550, Note_off_c, 0, 60, 58
1, 198551, Control_c, 0, 64, 59
1, 198566, Control_c, 0, 64, 62
1, 198581, Control_c, 0, 64, 64
1, 198582, Note_on_c, 0, 51, 45
1, 198595, Control_c, 0, 64, 67
1, 198610, Control_c, 0, 64, 71
1, 198619, Note_off_c, 0, 63, 38
1, 198625, Control_c, 0, 64, 77
1, 198640, Control_c, 0, 64, 82
1, 198655, Control_c, 0, 64, 86
1, 198660, Note_off_c, 0, 51, 47
1, 198670, Control_c, 0, 64, 88
1, 198678, Note_on_c, 0, 56, 33
1, 198685, Control_c, 0, 64, 89
1, 198690, Note_off_c, 0, 48, 40
1, 198709, Note_off_c, 0, 44, 36
1, 198771, Note_on_c, 0, 60, 43
1, 198795, Note_off_c, 0, 56, 35
1, 198884, Note_on_c, 0, 63, 35
1, 198899, Note_off_c, 0, 60, 36
1, 198944, Note_on_c, 0, 51, 37
1, 199045, Note_on_c, 0, 56, 39
1, 199053, Note_off_c, 0, 63, 27
1, 199056, Note_off_c, 0, 51, 30
1, 199156, Note_on_c, 0, 60, 39
1, 199241, Control_c, 0, 64, 88
1, 199255, Note_off_c, 0, 56, 34
1, 199269, Note_off_c, 0, 60, 48
1, 199310, Poly_aftertouch_c, 0, 63, 127
1, 199354, Poly_aftertouch_c, 0, 63, 0
1, 199374, Control_c, 0, 64, 88
1, 199400, Note_on_c, 0, 48, 39
1, 199409, Note_on_c, 0, 60, 58
1, 199412, Note_on_c, 0, 51, 46
1, 199516, Note_off_c, 0, 51, 59
1, 199546, Note_on_c, 0, 63, 22
1, 199563, Note_off_c, 0, 60, 33
1, 199596, Control_c, 0, 64, 87
1, 199611, Control_c, 0, 64, 86
1, 199612, Note_off_c, 0, 48, 36
1, 199626, Control_c, 0, 64, 81
1, 199641, Control_c, 0, 64, 72
1, 199643, Note_on_c, 0, 46, 42
1, 199653, Note_on_c, 0, 61, 61
1, 199656, Control_c, 0, 64, 65
1, 199665, Note_on_c, 0, 49, 38
1, 199670, Control_c, 0, 64, 60
1, 199674, Note_on_c, 0, 55, 38
1, 199684, Note_off_c, 0, 63, 31
1, 199700, Control_c, 0, 64, 63
1, 199715, Control_c, 0, 64, 65
1, 199730, Control_c, 0, 64, 69
1, 199744, Control_c, 0, 64, 74
1, 199759, Control_c, 0, 64, 82
1, 199774, Control_c, 0, 64, 93
1, 199796, Control_c, 0, 64, 115
1, 199811, Control_c, 0, 64, 127
1, 199813, Note_off_c, 0, 55, 48
1, 199889, Note_off_c, 0, 46, 0
1, 199907, Note_on_c, 0, 46, 27
1, 199916, Control_c, 0, 64, 89
1, 199931, Control_c, 0, 64, 70
1, 199936, Note_on_c, 0, 39, 43
1, 199945, Control_c, 0, 64, 63
1, 199949, Note_on_c, 0, 63, 36
1, 199951, Note_on_c, 0, 55, 49
1, 199953, Note_off_c, 0, 49, 37
1, 199960, Control_c, 0, 64, 61
1, 199966, Note_on_c, 0, 58, 58
1, 199975, Control_c, 0, 64, 64
1, 199987, Note_off_c, 0, 63, 51
1, 199990, Control_c, 0, 64, 67
1, 200000, Note_off_c, 0, 61, 23
1, 200005, Control_c, 0, 64, 72
1, 200020, Control_c, 0, 64, 83
1, 200035, Note_off_c, 0, 46, 57
1, 200035, Control_c, 0, 64, 100
1, 200046, Note_off_c, 0, 39, 59
1, 200049, Control_c, 0, 64, 127
1, 200099, Note_off_c, 0, 55, 35
1, 200146, Note_off_c, 0, 58, 54
1, 200171, Note_on_c, 0, 63, 33
1, 200225, Note_off_c, 0, 63, 51
1, 200270, Control_c, 0, 64, 119
1, 200278, Note_on_c, 0, 56, 59
1, 200279, Note_on_c, 0, 32, 46
1, 200285, Control_c, 0, 64, 112
1, 200297, Note_on_c, 0, 44, 35
1, 200300, Control_c, 0, 64, 106
1, 200314, Note_on_c, 0, 36, 43
1, 200315, Control_c, 0, 64, 98
1, 200330, Control_c, 0, 64, 89
1, 200345, Control_c, 0, 64, 80
1, 200359, Control_c, 0, 64, 71
1, 200374, Control_c, 0, 64, 64
1, 200389, Control_c, 0, 64, 53
1, 200404, Control_c, 0, 64, 44
1, 200418, Control_c, 0, 64, 43
1, 200448, Control_c, 0, 64, 43
1, 200463, Control_c, 0, 64, 46
1, 200478, Control_c, 0, 64, 51
1, 200492, Control_c, 0, 64, 56
1, 200503, Note_on_c, 0, 60, 41
1, 200507, Note_off_c, 0, 56, 49
1, 200507, Control_c, 0, 64, 59
1, 200522, Control_c, 0, 64, 61
1, 200545, Control_c, 0, 64, 63
1, 200559, Control_c, 0, 64, 65
1, 200574, Control_c, 0, 64, 67
1, 200589, Control_c, 0, 64, 71
1, 200604, Control_c, 0, 64, 76
1, 200618, Control_c, 0, 64, 82
1, 200633, Control_c, 0, 64, 88
1, 200648, Control_c, 0, 64, 94
1, 200653, Note_on_c, 0, 48, 38
1, 200663, Control_c, 0, 64, 99
1, 200678, Control_c, 0, 64, 103
1, 200690, Note_off_c, 0, 60, 27
1, 200694, Control_c, 0, 64, 108
1, 200709, Control_c, 0, 64, 123
1, 200723, Control_c, 0, 64, 127
1, 200732, Note_off_c, 0, 48, 46
1, 200735, Note_on_c, 0, 51, 42
1, 200816, Note_off_c, 0, 51, 51
1, 200837, Note_on_c, 0, 56, 37
1, 200917, Note_on_c, 0, 60, 40
1, 200947, Note_off_c, 0, 56, 35
1, 201033, Note_on_c, 0, 48, 31
1, 201043, Note_off_c, 0, 60, 31
1, 201095, Note_on_c, 0, 51, 37
1, 201146, Note_off_c, 0, 48, 31
1, 201219, Note_off_c, 0, 51, 37
1, 201226, Note_on_c, 0, 56, 28
1, 201307, Note_on_c, 0, 60, 24
1, 201363, Note_off_c, 0, 56, 30
1, 201411, Note_on_c, 0, 48, 37
1, 201439, Note_off_c, 0, 60, 31
1, 201478, Note_on_c, 0, 51, 34
1, 201514, Note_off_c, 0, 48, 35
1, 201521, Note_off_c, 0, 36, 32
1, 201588, Note_off_c, 0, 51, 37
1, 201591, Note_on_c, 0, 56, 38
1, 201653, Note_off_c, 0, 32, 35
1, 201685, Note_on_c, 0, 60, 30
1, 201738, Note_off_c, 0, 56, 33
1, 201779, Note_on_c, 0, 48, 34
1, 201814, Note_off_c, 0, 60, 31
1, 201841, Note_on_c, 0, 51, 40
1, 201950, Note_off_c, 0, 48, 23
1, 201966, Note_on_c, 0, 56, 44
1, 202014, Note_off_c, 0, 51, 41
1, 202070, Note_on_c, 0, 60, 39
1, 202138, Note_off_c, 0, 56, 36
1, 202172, Note_on_c, 0, 48, 38
1, 202233, Note_on_c, 0, 51, 45
1, 202276, Note_off_c, 0, 44, 16
1, 202287, Note_off_c, 0, 60, 32
1, 202342, Note_on_c, 0, 32, 66
1, 202364, Note_off_c, 0, 48, 24
1, 202390, Note_on_c, 0, 56, 37
1, 202405, Note_off_c, 0, 51, 44
1, 202450, Note_on_c, 0, 60, 33
1, 202536, Note_off_c, 0, 56, 35
1, 202546, Note_on_c, 0, 48, 48
1, 202546, Note_off_c, 0, 32, 57
1, 202634, Note_on_c, 0, 51, 50
1, 202661, Note_off_c, 0, 60, 34
1, 202759, Note_on_c, 0, 32, 76
1, 202759, Note_off_c, 0, 48, 28
1, 202792, Note_on_c, 0, 56, 52
1, 202806, Note_off_c, 0, 51, 45
1, 202858, Note_on_c, 0, 60, 48
1, 202956, Note_off_c, 0, 56, 47
1, 202961, Note_on_c, 0, 48, 62
1, 202990, Note_off_c, 0, 32, 58
1, 203048, Note_on_c, 0, 51, 72
1, 203096, Note_off_c, 0, 60, 31
1, 203162, Note_on_c, 0, 32, 84
1, 203171, Note_off_c, 0, 48, 37
1, 203187, Note_on_c, 0, 56, 68
1, 203266, Note_on_c, 0, 60, 56
1, 203270, Note_off_c, 0, 51, 37
1, 203321, Note_off_c, 0, 32, 57
1, 203367, Note_off_c, 0, 56, 53
1, 203384, Note_on_c, 0, 48, 66
1, 203498, Note_on_c, 0, 51, 44
1, 203559, Note_off_c, 0, 51, 55
1, 203585, Note_off_c, 0, 60, 25
1, 203635, Note_on_c, 0, 43, 80
1, 203637, Note_on_c, 0, 31, 71
1, 203639, Note_on_c, 0, 36, 65
1, 203644, Note_off_c, 0, 48, 30
1, 203657, Note_on_c, 0, 58, 57
1, 203688, Control_c, 0, 64, 103
1, 203703, Control_c, 0, 64, 91
1, 203717, Control_c, 0, 64, 81
1, 203732, Control_c, 0, 64, 73
1, 203747, Control_c, 0, 64, 65
1, 203762, Control_c, 0, 64, 56
1, 203777, Control_c, 0, 64, 42
1, 203790, Note_on_c, 0, 60, 56
1, 203791, Control_c, 0, 64, 23
1, 203806, Control_c, 0, 64, 0
1, 203830, Note_off_c, 0, 58, 59
1, 203880, Note_on_c, 0, 48, 46
1, 203917, Note_off_c, 0, 60, 39
1, 203926, Control_c, 0, 64, 40
1, 203940, Control_c, 0, 64, 52
1, 203949, Note_on_c, 0, 52, 53
1, 203955, Control_c, 0, 64, 59
1, 203970, Control_c, 0, 64, 63
1, 203971, Note_off_c, 0, 48, 54
1, 203985, Control_c, 0, 64, 67
1, 204000, Control_c, 0, 64, 75
1, 204014, Control_c, 0, 64, 99
1, 204029, Control_c, 0, 64, 127
1, 204047, Note_on_c, 0, 58, 65
1, 204050, Note_off_c, 0, 52, 63
1, 204150, Note_on_c, 0, 60, 59
1, 204157, Note_off_c, 0, 58, 62
1, 204199, Note_off_c, 0, 60, 60
1, 204238, Note_on_c, 0, 52, 58
1, 204314, Note_on_c, 0, 58, 63
1, 204343, Note_off_c, 0, 52, 54
1, 204424, Note_on_c, 0, 60, 58
1, 204429, Note_off_c, 0, 58, 61
1, 204509, Note_on_c, 0, 64, 58
1, 204511, Note_off_c, 0, 60, 65
1, 204557, Note_off_c, 0, 64, 57
1, 204594, Note_on_c, 0, 58, 71
1, 204679, Note_on_c, 0, 60, 67
1, 204680, Note_off_c, 0, 58, 62
1, 204776, Note_on_c, 0, 64, 69
1, 204793, Note_off_c, 0, 60, 62
1, 204861, Note_on_c, 0, 70, 71
1, 204872, Note_off_c, 0, 64, 62
1, 204891, Note_on_c, 0, 68, 43
1, 204918, Note_off_c, 0, 68, 55
1, 204953, Note_off_c, 0, 70, 61
1, 204959, Note_on_c, 0, 60, 77
1, 204964, Note_off_c, 0, 36, 54
1, 205003, Note_off_c, 0, 31, 32
1, 205007, Note_off_c, 0, 43, 58
1, 205048, Note_on_c, 0, 64, 75
1, 205147, Note_on_c, 0, 70, 77
1, 205163, Note_off_c, 0, 60, 35
1, 205190, Note_off_c, 0, 64, 60
1, 205251, Note_on_c, 0, 72, 75
1, 205294, Note_off_c, 0, 70, 59
1, 205341, Note_on_c, 0, 60, 63
1, 205408, Note_on_c, 0, 64, 69
1, 205439, Note_off_c, 0, 72, 53
1, 205463, Note_off_c, 0, 60, 55
1, 205502, Note_on_c, 0, 55, 79
1, 205505, Note_on_c, 0, 43, 71
1, 205505, Note_on_c, 0, 48, 69
1, 205529, Note_on_c, 0, 70, 70
1, 205558, Note_off_c, 0, 64, 60
1, 205644, Note_on_c, 0, 72, 71
1, 205702, Note_off_c, 0, 70, 56
1, 205717, Note_on_c, 0, 60, 79
1, 205743, Note_off_c, 0, 43, 58
1, 205749, Note_off_c, 0, 48, 62
1, 205789, Note_off_c, 0, 55, 60
1, 205818, Note_on_c, 0, 64, 80
1, 205839, Note_off_c, 0, 72, 52
1, 205907, Note_on_c, 0, 55, 88
1, 205913, Note_on_c, 0, 43, 77
1, 205919, Note_on_c, 0, 48, 70
1, 205931, Note_on_c, 0, 70, 80
1, 205964, Note_off_c, 0, 64, 62
1, 205966, Note_off_c, 0, 60, 29
1, 206037, Note_on_c, 0, 72, 88
1, 206125, Note_on_c, 0, 60, 86
1, 206125, Note_off_c, 0, 70, 58
1, 206137, Note_off_c, 0, 43, 62
1, 206155, Note_off_c, 0, 48, 60
1, 206178, Note_off_c, 0, 55, 56
1, 206219, Note_on_c, 0, 64, 84
1, 206238, Note_off_c, 0, 72, 56
1, 206337, Note_on_c, 0, 55, 94
1, 206340, Note_on_c, 0, 43, 79
1, 206345, Note_on_c, 0, 48, 74
1, 206357, Note_on_c, 0, 70, 84
1, 206399, Note_off_c, 0, 64, 61
1, 206444, Note_off_c, 0, 60, 35
1, 206483, Note_on_c, 0, 72, 92
1, 206492, Note_off_c, 0, 43, 61
1, 206536, Note_off_c, 0, 55, 59
1, 206577, Note_off_c, 0, 48, 59
1, 206601, Note_off_c, 0, 70, 62
1, 206635, Note_on_c, 0, 60, 85
1, 206756, Note_on_c, 0, 64, 78
1, 206758, Note_on_c, 0, 65, 75
1, 206769, Note_off_c, 0, 72, 47
1, 206820, Note_off_c, 0, 60, 63
1, 206877, Note_off_c, 0, 64, 58
1, 206879, Note_on_c, 0, 41, 74
1, 206879, Note_off_c, 0, 65, 58
1, 206935, Control_c, 0, 64, 80
1, 206938, Note_on_c, 0, 60, 77
1, 206950, Control_c, 0, 64, 62
1, 206965, Control_c, 0, 64, 19
1, 206980, Control_c, 0, 64, 0
1, 207003, Note_on_c, 0, 48, 64
1, 207010, Note_on_c, 0, 65, 77
1, 207053, Control_c, 0, 64, 36
1, 207063, Note_on_c, 0, 68, 83
1, 207068, Control_c, 0, 64, 56
1, 207071, Note_off_c, 0, 60, 62
1, 207085, Control_c, 0, 64, 67
1, 207099, Note_on_c, 0, 56, 80
1, 207099, Control_c, 0, 64, 113
1, 207114, Control_c, 0, 64, 127
1, 207124, Note_on_c, 0, 72, 95
1, 207130, Note_off_c, 0, 65, 63
1, 207166, Note_off_c, 0, 68, 62
1, 208100, Note_on_c, 0, 70, 61
1, 208179, Note_off_c, 0, 56, 49
1, 208194, Note_on_c, 0, 68, 71
1, 208237, Note_off_c, 0, 72, 54
1, 208322, Note_off_c, 0, 70, 53
1, 208550, Note_on_c, 0, 70, 60
1, 208611, Control_c, 0, 64, 100
1, 208622, Note_on_c, 0, 67, 70
1, 208626, Control_c, 0, 64, 83
1, 208633, Note_on_c, 0, 52, 53
1, 208636, Note_on_c, 0, 43, 40
1, 208641, Control_c, 0, 64, 69
1, 208655, Control_c, 0, 64, 58
1, 208659, Note_off_c, 0, 68, 34
1, 208671, Control_c, 0, 64, 42
1, 208685, Control_c, 0, 64, 43
1, 208700, Control_c, 0, 64, 49
1, 208715, Control_c, 0, 64, 55
1, 208730, Control_c, 0, 64, 59
1, 208739, Note_off_c, 0, 70, 39
1, 208745, Control_c, 0, 64, 63
1, 208760, Control_c, 0, 64, 67
1, 208782, Control_c, 0, 64, 74
1, 208790, Note_off_c, 0, 43, 35
1, 208796, Control_c, 0, 64, 83
1, 208811, Control_c, 0, 64, 92
1, 208826, Control_c, 0, 64, 100
1, 208841, Control_c, 0, 64, 104
1, 208866, Note_off_c, 0, 48, 18
1, 208888, Note_off_c, 0, 52, 54
1, 208945, Note_on_c, 0, 68, 63
1, 208975, Control_c, 0, 64, 102
1, 208987, Note_off_c, 0, 67, 52
1, 208990, Control_c, 0, 64, 101
1, 209004, Control_c, 0, 64, 96
1, 209019, Control_c, 0, 64, 86
1, 209029, Note_on_c, 0, 44, 46
1, 209032, Note_on_c, 0, 65, 65
1, 209034, Control_c, 0, 64, 74
1, 209036, Note_on_c, 0, 53, 48
1, 209040, Note_off_c, 0, 68, 58
1, 209048, Control_c, 0, 64, 62
1, 209063, Control_c, 0, 64, 51
1, 209077, Control_c, 0, 64, 52
1, 209092, Control_c, 0, 64, 57
1, 209107, Control_c, 0, 64, 61
1, 209121, Control_c, 0, 64, 64
1, 209136, Control_c, 0, 64, 68
1, 209151, Control_c, 0, 64, 74
1, 209166, Control_c, 0, 64, 86
1, 209181, Control_c, 0, 64, 108
1, 209195, Control_c, 0, 64, 127
1, 209314, Note_on_c, 0, 66, 51
1, 209372, Note_off_c, 0, 65, 37
1, 209389, Control_c, 0, 64, 99
1, 209395, Note_on_c, 0, 63, 61
1, 209400, Note_on_c, 0, 45, 47
1, 209403, Control_c, 0, 64, 80
1, 209418, Control_c, 0, 64, 66
1, 209433, Control_c, 0, 64, 58
1, 209436, Note_off_c, 0, 66, 56
1, 209447, Control_c, 0, 64, 57
1, 209462, Control_c, 0, 64, 60
1, 209478, Control_c, 0, 64, 62
1, 209493, Control_c, 0, 64, 65
1, 209508, Control_c, 0, 64, 68
1, 209530, Control_c, 0, 64, 72
1, 209545, Control_c, 0, 64, 77
1, 209559, Control_c, 0, 64, 85
1, 209562, Note_off_c, 0, 44, 27
1, 209574, Control_c, 0, 64, 96
1, 209589, Control_c, 0, 64, 115
1, 209604, Control_c, 0, 64, 127
1, 209665, Note_off_c, 0, 63, 61
1, 209684, Note_on_c, 0, 65, 43
1, 209738, Control_c, 0, 64, 118
1, 209752, Control_c, 0, 64, 92
1, 209756, Note_on_c, 0, 61, 68
1, 209767, Control_c, 0, 64, 76
1, 209774, Note_on_c, 0, 46, 46
1, 209782, Control_c, 0, 64, 65
1, 209797, Control_c, 0, 64, 58
1, 209806, Note_off_c, 0, 45, 48
1, 209812, Control_c, 0, 64, 59
1, 209826, Note_off_c, 0, 65, 52
1, 209827, Control_c, 0, 64, 62
1, 209842, Control_c, 0, 64, 64
1, 209857, Control_c, 0, 64, 67
1, 209871, Control_c, 0, 64, 72
1, 209886, Control_c, 0, 64, 80
1, 209901, Control_c, 0, 64, 91
1, 209916, Control_c, 0, 64, 111
1, 209931, Control_c, 0, 64, 127
1, 210048, Note_on_c, 0, 63, 61
1, 210082, Note_off_c, 0, 61, 59
1, 210108, Control_c, 0, 64, 119
1, 210119, Note_on_c, 0, 60, 74
1, 210121, Note_on_c, 0, 48, 62
1, 210123, Control_c, 0, 64, 90
1, 210137, Note_off_c, 0, 63, 59
1, 210138, Control_c, 0, 64, 73
1, 210152, Control_c, 0, 64, 63
1, 210167, Control_c, 0, 64, 53
1, 210182, Control_c, 0, 64, 54
1, 210197, Control_c, 0, 64, 57
1, 210212, Control_c, 0, 64, 60
1, 210227, Control_c, 0, 64, 64
1, 210241, Control_c, 0, 64, 67
1, 210256, Control_c, 0, 64, 72
1, 210260, Note_off_c, 0, 46, 37
1, 210280, Control_c, 0, 64, 78
1, 210295, Control_c, 0, 64, 90
1, 210310, Control_c, 0, 64, 112
1, 210324, Control_c, 0, 64, 127
1, 210359, Note_off_c, 0, 48, 62
1, 210397, Note_on_c, 0, 61, 66
1, 210470, Note_on_c, 0, 58, 80
1, 210486, Note_on_c, 0, 49, 55
1, 210487, Control_c, 0, 64, 97
1, 210501, Control_c, 0, 64, 80
1, 210504, Note_off_c, 0, 60, 59
1, 210516, Control_c, 0, 64, 67
1, 210531, Control_c, 0, 64, 59
1, 210536, Note_off_c, 0, 61, 61
1, 210546, Control_c, 0, 64, 52
1, 210560, Control_c, 0, 64, 55
1, 210575, Control_c, 0, 64, 58
1, 210590, Control_c, 0, 64, 61
1, 210605, Control_c, 0, 64, 65
1, 210620, Control_c, 0, 64, 68
1, 210635, Control_c, 0, 64, 76
1, 210649, Control_c, 0, 64, 87
1, 210664, Control_c, 0, 64, 107
1, 210679, Control_c, 0, 64, 127
1, 210705, Note_off_c, 0, 49, 57
1, 210749, Note_off_c, 0, 58, 62
1, 210755, Note_on_c, 0, 60, 73
1, 210829, Note_on_c, 0, 56, 89
1, 210838, Note_on_c, 0, 48, 60
1, 210842, Control_c, 0, 64, 88
1, 210856, Note_off_c, 0, 60, 64
1, 210856, Control_c, 0, 64, 71
1, 210871, Control_c, 0, 64, 61
1, 210886, Control_c, 0, 64, 54
1, 210900, Control_c, 0, 64, 57
1, 210915, Control_c, 0, 64, 62
1, 210930, Control_c, 0, 64, 66
1, 210945, Control_c, 0, 64, 71
1, 210960, Control_c, 0, 64, 81
1, 210961, Note_off_c, 0, 41, 39
1, 210975, Control_c, 0, 64, 101
1, 210990, Control_c, 0, 64, 127
1, 211006, Note_off_c, 0, 53, 53
1, 211127, Note_on_c, 0, 58, 74
1, 211140, Note_off_c, 0, 56, 59
1, 211190, Note_on_c, 0, 54, 89
1, 211191, Control_c, 0, 64, 108
1, 211201, Note_on_c, 0, 46, 69
1, 211204, Note_on_c, 0, 49, 73
1, 211205, Control_c, 0, 64, 81
1, 211220, Control_c, 0, 64, 66
1, 211234, Note_off_c, 0, 48, 30
1, 211235, Control_c, 0, 64, 54
1, 211238, Note_off_c, 0, 58, 61
1, 211250, Control_c, 0, 64, 43
1, 211265, Control_c, 0, 64, 43
1, 211279, Control_c, 0, 64, 49
1, 211294, Control_c, 0, 64, 58
1, 211309, Control_c, 0, 64, 63
1, 211323, Control_c, 0, 64, 68
1, 211338, Control_c, 0, 64, 75
1, 211353, Control_c, 0, 64, 90
1, 211368, Control_c, 0, 64, 127
1, 211461, Note_on_c, 0, 56, 88
1, 211493, Note_off_c, 0, 46, 60
1, 211496, Note_off_c, 0, 54, 64
1, 211505, Note_off_c, 0, 49, 62
1, 211530, Control_c, 0, 64, 82
1, 211535, Note_on_c, 0, 44, 78
1, 211537, Note_on_c, 0, 48, 84
1, 211541, Note_on_c, 0, 53, 98
1, 211545, Control_c, 0, 64, 64
1, 211560, Control_c, 0, 64, 26
1, 211575, Control_c, 0, 64, 0
1, 211576, Note_off_c, 0, 56, 65
1, 211604, Control_c, 0, 64, 13
1, 211619, Control_c, 0, 64, 37
1, 211634, Control_c, 0, 64, 51
1, 211649, Control_c, 0, 64, 59
1, 211663, Control_c, 0, 64, 63
1, 211678, Control_c, 0, 64, 68
1, 211693, Control_c, 0, 64, 76
1, 211708, Control_c, 0, 64, 99
1, 211723, Control_c, 0, 64, 127
1, 211777, Note_off_c, 0, 48, 61
1, 211822, Note_on_c, 0, 55, 86
1, 211835, Note_off_c, 0, 44, 31
1, 211842, Note_off_c, 0, 53, 60
1, 211863, Control_c, 0, 64, 94
1, 211880, Control_c, 0, 64, 67
1, 211888, Note_off_c, 0, 55, 53
1, 211894, Control_c, 0, 64, 0
1, 211899, Note_on_c, 0, 46, 74
1, 211900, Note_on_c, 0, 43, 79
1, 211904, Note_on_c, 0, 52, 99
1, 211968, Control_c, 0, 64, 48
1, 211983, Control_c, 0, 64, 66
1, 211994, Note_off_c, 0, 43, 64
1, 211998, Control_c, 0, 64, 85
1, 212009, Note_off_c, 0, 52, 68
1, 212013, Note_off_c, 0, 46, 63
1, 212013, Control_c, 0, 64, 127
1, 212116, Control_c, 0, 64, 107
1, 212131, Control_c, 0, 64, 85
1, 212146, Control_c, 0, 64, 73
1, 212161, Control_c, 0, 64, 65
1, 212176, Control_c, 0, 64, 56
1, 212191, Control_c, 0, 64, 43
1, 212206, Control_c, 0, 64, 23
1, 212220, Control_c, 0, 64, 0
1, 212412, Note_on_c, 0, 73, 96
1, 212417, Note_on_c, 0, 55, 64
1, 212418, Note_on_c, 0, 70, 80
1, 212419, Note_on_c, 0, 52, 70
1, 212419, Note_on_c, 0, 58, 68
1, 212424, Note_on_c, 0, 61, 72
1, 212424, Note_on_c, 0, 67, 76
1, 212486, Control_c, 0, 64, 43
1, 212501, Control_c, 0, 64, 63
1, 212524, Control_c, 0, 64, 77
1, 212539, Control_c, 0, 64, 127
1, 212567, Note_off_c, 0, 61, 62
1, 212575, Note_off_c, 0, 67, 59
1, 212620, Note_off_c, 0, 58, 61
1, 212633, Note_off_c, 0, 52, 63
1, 212643, Note_off_c, 0, 55, 62
1, 212645, Note_off_c, 0, 70, 59
1, 212714, Note_off_c, 0, 73, 62
1, 212732, Control_c, 0, 64, 119
1, 212747, Control_c, 0, 64, 105
1, 212762, Control_c, 0, 64, 97
1, 212776, Control_c, 0, 64, 90
1, 212791, Control_c, 0, 64, 85
1, 212806, Control_c, 0, 64, 81
1, 212821, Control_c, 0, 64, 76
1, 212836, Control_c, 0, 64, 72
1, 212850, Control_c, 0, 64, 68
1, 212865, Control_c, 0, 64, 64
1, 212880, Control_c, 0, 64, 61
1, 212894, Control_c, 0, 64, 58
1, 212909, Control_c, 0, 64, 54
1, 212924, Control_c, 0, 64, 47
1, 212939, Control_c, 0, 64, 34
1, 212954, Control_c, 0, 64, 0
1, 213317, Control_c, 0, 64, 11
1, 213332, Control_c, 0, 64, 38
1, 213347, Control_c, 0, 64, 51
1, 213362, Control_c, 0, 64, 57
1, 213376, Control_c, 0, 64, 59
1, 213391, Control_c, 0, 64, 61
1, 213406, Control_c, 0, 64, 64
1, 213421, Control_c, 0, 64, 67
1, 213436, Control_c, 0, 64, 74
1, 213450, Control_c, 0, 64, 84
1, 213466, Control_c, 0, 64, 98
1, 213481, Control_c, 0, 64, 127
1, 213576, Note_on_c, 0, 72, 39
1, 213644, Control_c, 0, 64, 110
1, 213659, Note_off_c, 0, 72, 53
1, 213659, Control_c, 0, 64, 100
1, 213660, Note_on_c, 0, 73, 47
1, 213673, Control_c, 0, 64, 93
1, 213688, Control_c, 0, 64, 89
1, 213703, Control_c, 0, 64, 83
1, 213706, Note_off_c, 0, 73, 59
1, 213711, Note_on_c, 0, 75, 57
1, 213717, Control_c, 0, 64, 78
1, 213732, Control_c, 0, 64, 74
1, 213747, Control_c, 0, 64, 71
1, 213762, Control_c, 0, 64, 70
1, 213777, Control_c, 0, 64, 68
1, 213792, Control_c, 0, 64, 67
1, 213792, Note_on_c, 0, 73, 65
1, 213807, Control_c, 0, 64, 65
1, 213822, Control_c, 0, 64, 63
1, 213836, Control_c, 0, 64, 61
1, 213851, Control_c, 0, 64, 61
1, 213866, Control_c, 0, 64, 60
1, 213881, Control_c, 0, 64, 59
1, 213887, Note_off_c, 0, 75, 53
1, 213896, Control_c, 0, 64, 58
1, 213910, Control_c, 0, 64, 56
1, 213925, Control_c, 0, 64, 55
1, 213940, Control_c, 0, 64, 54
1, 213955, Control_c, 0, 64, 52
1, 213970, Control_c, 0, 64, 51
1, 213984, Control_c, 0, 64, 50
1, 213999, Control_c, 0, 64, 49
1, 214021, Control_c, 0, 64, 48
1, 214036, Control_c, 0, 64, 47
1, 214051, Control_c, 0, 64, 45
1, 214066, Control_c, 0, 64, 44
1, 214081, Control_c, 0, 64, 42
1, 214096, Control_c, 0, 64, 40
1, 214111, Control_c, 0, 64, 39
1, 214125, Control_c, 0, 64, 37
1, 214140, Control_c, 0, 64, 36
1, 214150, Note_on_c, 0, 72, 66
1, 214155, Control_c, 0, 64, 33
1, 214170, Control_c, 0, 64, 32
1, 214173, Note_off_c, 0, 73, 54
1, 214185, Control_c, 0, 64, 30
1, 214199, Control_c, 0, 64, 27
1, 214214, Control_c, 0, 64, 21
1, 214229, Control_c, 0, 64, 16
1, 214244, Note_off_c, 0, 72, 65
1, 214244, Control_c, 0, 64, 15
1, 214277, Note_on_c, 0, 53, 36
1, 214288, Note_on_c, 0, 72, 65
1, 214290, Control_c, 0, 64, 13
1, 214299, Note_on_c, 0, 56, 38
1, 214349, Control_c, 0, 64, 15
1, 214364, Control_c, 0, 64, 24
1, 214379, Control_c, 0, 64, 34
1, 214394, Control_c, 0, 64, 46
1, 214409, Control_c, 0, 64, 55
1, 214423, Control_c, 0, 64, 59
1, 214438, Control_c, 0, 64, 62
1, 214453, Control_c, 0, 64, 66
1, 214468, Control_c, 0, 64, 72
1, 214483, Control_c, 0, 64, 84
1, 214497, Control_c, 0, 64, 105
1, 214512, Control_c, 0, 64, 127
1, 214519, Note_off_c, 0, 72, 62
1, 214598, Note_off_c, 0, 53, 41
1, 214638, Note_off_c, 0, 56, 41
1, 214786, Control_c, 0, 64, 116
1, 214801, Control_c, 0, 64, 107
1, 214815, Control_c, 0, 64, 100
1, 214827, Note_on_c, 0, 77, 72
1, 214830, Control_c, 0, 64, 93
1, 214845, Control_c, 0, 64, 88
1, 214860, Control_c, 0, 64, 84
1, 214875, Control_c, 0, 64, 80
1, 214889, Control_c, 0, 64, 77
1, 214904, Control_c, 0, 64, 74
1, 214919, Control_c, 0, 64, 70
1, 214934, Control_c, 0, 64, 66
1, 214948, Control_c, 0, 64, 63
1, 214963, Control_c, 0, 64, 61
1, 214978, Control_c, 0, 64, 59
1, 214993, Control_c, 0, 64, 58
1, 215008, Control_c, 0, 64, 57
1, 215023, Control_c, 0, 64, 54
1, 215038, Control_c, 0, 64, 49
1, 215053, Control_c, 0, 64, 42
1, 215068, Control_c, 0, 64, 37
1, 215083, Control_c, 0, 64, 34
1, 215098, Control_c, 0, 64, 33
1, 215112, Control_c, 0, 64, 32
1, 215127, Control_c, 0, 64, 30
1, 215142, Control_c, 0, 64, 28
1, 215157, Control_c, 0, 64, 26
1, 215172, Control_c, 0, 64, 26
1, 215202, Control_c, 0, 64, 25
1, 215217, Control_c, 0, 64, 25
1, 215372, Note_on_c, 0, 55, 33
1, 215378, Note_on_c, 0, 49, 16
1, 215379, Note_on_c, 0, 46, 35
1, 215394, Control_c, 0, 64, 26
1, 215409, Control_c, 0, 64, 28
1, 215424, Control_c, 0, 64, 30
1, 215438, Control_c, 0, 64, 32
1, 215453, Control_c, 0, 64, 36
1, 215468, Control_c, 0, 64, 41
1, 215483, Control_c, 0, 64, 46
1, 215498, Control_c, 0, 64, 48
1, 215520, Control_c, 0, 64, 50
1, 215535, Control_c, 0, 64, 52
1, 215548, Note_on_c, 0, 67, 34
1, 215550, Control_c, 0, 64, 54
1, 215565, Control_c, 0, 64, 57
1, 215579, Control_c, 0, 64, 59
1, 215594, Control_c, 0, 64, 61
1, 215609, Control_c, 0, 64, 63
1, 215624, Control_c, 0, 64, 65
1, 215625, Note_off_c, 0, 77, 38
1, 215638, Control_c, 0, 64, 69
1, 215653, Control_c, 0, 64, 76
1, 215668, Control_c, 0, 64, 88
1, 215682, Note_on_c, 0, 70, 55
1, 215683, Control_c, 0, 64, 102
1, 215687, Note_off_c, 0, 46, 40
1, 215698, Control_c, 0, 64, 110
1, 215710, Note_off_c, 0, 49, 37
1, 215712, Control_c, 0, 64, 109
1, 215727, Control_c, 0, 64, 105
1, 215742, Control_c, 0, 64, 101
1, 215757, Control_c, 0, 64, 96
1, 215771, Control_c, 0, 64, 92
1, 215775, Note_off_c, 0, 55, 43
1, 215786, Control_c, 0, 64, 87
1, 215787, Note_off_c, 0, 67, 41
1, 215798, Note_on_c, 0, 73, 70
1, 215801, Control_c, 0, 64, 83
1, 215805, Note_off_c, 0, 70, 60
1, 215816, Control_c, 0, 64, 79
1, 215831, Control_c, 0, 64, 76
1, 215845, Control_c, 0, 64, 72
1, 215860, Control_c, 0, 64, 70
1, 215875, Control_c, 0, 64, 69
1, 215890, Control_c, 0, 64, 68
1, 215905, Control_c, 0, 64, 67
1, 215920, Control_c, 0, 64, 66
1, 215921, Note_on_c, 0, 70, 72
1, 215935, Control_c, 0, 64, 65
1, 215950, Control_c, 0, 64, 64
1, 215965, Control_c, 0, 64, 64
1, 215971, Note_off_c, 0, 73, 59
1, 215980, Control_c, 0, 64, 63
1, 215994, Control_c, 0, 64, 63
1, 216009, Control_c, 0, 64, 62
1, 216024, Control_c, 0, 64, 62
1, 216033, Note_on_c, 0, 67, 72
1, 216039, Control_c, 0, 64, 61
1, 216045, Note_off_c, 0, 70, 60
1, 216054, Control_c, 0, 64, 60
1, 216068, Control_c, 0, 64, 60
1, 216083, Control_c, 0, 64, 59
1, 216098, Control_c, 0, 64, 59
1, 216113, Control_c, 0, 64, 58
1, 216128, Control_c, 0, 64, 58
1, 216142, Control_c, 0, 64, 57
1, 216181, Note_on_c, 0, 48, 41
1, 216186, Control_c, 0, 64, 57
1, 216200, Note_on_c, 0, 65, 70
1, 216216, Control_c, 0, 64, 56
1, 216231, Control_c, 0, 64, 56
1, 216266, Note_off_c, 0, 67, 58
1, 216268, Control_c, 0, 64, 55
1, 216298, Control_c, 0, 64, 55
1, 216328, Control_c, 0, 64, 54
1, 216344, Note_on_c, 0, 53, 49
1, 216357, Control_c, 0, 64, 54
1, 216401, Control_c, 0, 64, 53
1, 216469, Note_on_c, 0, 56, 50
1, 216511, Note_off_c, 0, 53, 59
1, 216519, Control_c, 0, 64, 53
1, 216564, Control_c, 0, 64, 52
1, 216594, Control_c, 0, 64, 52
1, 216612, Note_on_c, 0, 60, 46
1, 216624, Control_c, 0, 64, 51
1, 216642, Note_off_c, 0, 56, 63
1, 216653, Control_c, 0, 64, 50
1, 216669, Control_c, 0, 64, 50
1, 216728, Control_c, 0, 64, 49
1, 216743, Control_c, 0, 64, 49
1, 216758, Note_on_c, 0, 58, 51
1, 216758, Control_c, 0, 64, 48
1, 216763, Note_off_c, 0, 60, 54
1, 216773, Control_c, 0, 64, 48
1, 216788, Control_c, 0, 64, 47
1, 216802, Control_c, 0, 64, 46
1, 216817, Control_c, 0, 64, 46
1, 216832, Control_c, 0, 64, 45
1, 216862, Control_c, 0, 64, 44
1, 216877, Control_c, 0, 64, 43
1, 216880, Note_on_c, 0, 56, 44
1, 216891, Control_c, 0, 64, 42
1, 216898, Note_off_c, 0, 58, 54
1, 216906, Control_c, 0, 64, 41
1, 216921, Control_c, 0, 64, 39
1, 216936, Control_c, 0, 64, 37
1, 216951, Control_c, 0, 64, 35
1, 216965, Control_c, 0, 64, 33
1, 216980, Control_c, 0, 64, 31
1, 216995, Control_c, 0, 64, 28
1, 217017, Control_c, 0, 64, 24
1, 217032, Control_c, 0, 64, 17
1, 217047, Control_c, 0, 64, 0
1, 217059, Note_off_c, 0, 56, 36
1, 217075, Note_off_c, 0, 65, 54
1, 217091, Note_on_c, 0, 64, 42
1, 217098, Note_on_c, 0, 55, 30
1, 217135, Control_c, 0, 64, 13
1, 217150, Control_c, 0, 64, 50
1, 217165, Control_c, 0, 64, 64
1, 217180, Control_c, 0, 64, 75
1, 217190, Note_off_c, 0, 64, 64
1, 217195, Control_c, 0, 64, 107
1, 217209, Control_c, 0, 64, 127
1, 217397, Note_on_c, 0, 77, 18
1, 217435, Note_on_c, 0, 78, 63
1, 217437, Note_off_c, 0, 77, 51
1, 217471, Note_off_c, 0, 55, 44
1, 217480, Note_off_c, 0, 48, 38
1, 217509, Note_off_c, 0, 78, 63
1, 217522, Note_on_c, 0, 79, 60
1, 217536, Control_c, 0, 64, 106
1, 217551, Control_c, 0, 64, 84
1, 217566, Control_c, 0, 64, 72
1, 217580, Control_c, 0, 64, 68
1, 217595, Control_c, 0, 64, 69
1, 217610, Control_c, 0, 64, 72
1, 217614, Note_off_c, 0, 79, 66
1, 217616, Note_on_c, 0, 80, 72
1, 217625, Control_c, 0, 64, 74
1, 217640, Control_c, 0, 64, 75
1, 217655, Control_c, 0, 64, 74
1, 217670, Control_c, 0, 64, 74
1, 217685, Control_c, 0, 64, 72
1, 217695, Note_on_c, 0, 81, 86
1, 217699, Note_off_c, 0, 80, 65
1, 217700, Control_c, 0, 64, 70
1, 217714, Control_c, 0, 64, 68
1, 217729, Control_c, 0, 64, 66
1, 217744, Control_c, 0, 64, 63
1, 217765, Control_c, 0, 64, 59
1, 217780, Control_c, 0, 64, 55
1, 217792, Note_on_c, 0, 82, 90
1, 217795, Control_c, 0, 64, 50
1, 217807, Note_off_c, 0, 81, 65
1, 217810, Control_c, 0, 64, 45
1, 217825, Control_c, 0, 64, 43
1, 217866, Note_on_c, 0, 83, 88
1, 217870, Control_c, 0, 64, 46
1, 217885, Control_c, 0, 64, 52
1, 217885, Note_on_c, 0, 41, 71
1, 217899, Control_c, 0, 64, 61
1, 217914, Control_c, 0, 64, 67
1, 217916, Note_off_c, 0, 82, 59
1, 217929, Control_c, 0, 64, 75
1, 217944, Control_c, 0, 64, 91
1, 217950, Note_on_c, 0, 72, 77
1, 217958, Control_c, 0, 64, 127
1, 217969, Note_on_c, 0, 48, 63
1, 217990, Note_off_c, 0, 83, 65
1, 217992, Note_on_c, 0, 77, 85
1, 218044, Note_on_c, 0, 80, 81
1, 218065, Note_on_c, 0, 56, 86
1, 218078, Control_c, 0, 64, 90
1, 218080, Note_off_c, 0, 72, 56
1, 218089, Note_on_c, 0, 84, 99
1, 218093, Control_c, 0, 64, 64
1, 218107, Control_c, 0, 64, 12
1, 218115, Note_off_c, 0, 77, 62
1, 218122, Control_c, 0, 64, 0
1, 218124, Note_on_c, 0, 82, 52
1, 218145, Note_off_c, 0, 82, 63
1, 218152, Control_c, 0, 64, 38
1, 218153, Note_off_c, 0, 80, 60
1, 218166, Control_c, 0, 64, 57
1, 218181, Control_c, 0, 64, 66
1, 218196, Control_c, 0, 64, 76
1, 218211, Control_c, 0, 64, 108
1, 218226, Control_c, 0, 64, 127
1, 218871, Note_off_c, 0, 56, 34
1, 218926, Note_on_c, 0, 82, 81
1, 218964, Note_off_c, 0, 84, 63
1, 219035, Note_on_c, 0, 80, 88
1, 219104, Note_off_c, 0, 82, 63
1, 219419, Note_on_c, 0, 92, 76
1, 219472, Control_c, 0, 64, 119
1, 219482, Note_on_c, 0, 43, 42
1, 219486, Control_c, 0, 64, 89
1, 219488, Note_on_c, 0, 52, 52
1, 219499, Note_on_c, 0, 79, 78
1, 219501, Control_c, 0, 64, 73
1, 219516, Control_c, 0, 64, 63
1, 219524, Note_off_c, 0, 80, 63
1, 219530, Control_c, 0, 64, 51
1, 219560, Control_c, 0, 64, 55
1, 219562, Note_off_c, 0, 92, 63
1, 219575, Control_c, 0, 64, 60
1, 219590, Control_c, 0, 64, 64
1, 219604, Control_c, 0, 64, 68
1, 219619, Control_c, 0, 64, 74
1, 219634, Control_c, 0, 64, 85
1, 219643, Note_off_c, 0, 43, 48
1, 219649, Control_c, 0, 64, 112
1, 219664, Control_c, 0, 64, 127
1, 219703, Note_off_c, 0, 41, 61
1, 219760, Note_off_c, 0, 52, 61
1, 219786, Note_off_c, 0, 48, 32
1, 219803, Note_on_c, 0, 91, 74
1, 219823, Note_off_c, 0, 79, 64
1, 219866, Note_off_c, 0, 91, 58
1, 219872, Control_c, 0, 64, 96
1, 219878, Note_on_c, 0, 41, 50
1, 219887, Note_on_c, 0, 53, 59
1, 219887, Control_c, 0, 64, 75
1, 219889, Note_on_c, 0, 44, 54
1, 219891, Note_on_c, 0, 77, 83
1, 219901, Control_c, 0, 64, 62
1, 219916, Control_c, 0, 64, 50
1, 219946, Control_c, 0, 64, 55
1, 219961, Control_c, 0, 64, 59
1, 219975, Control_c, 0, 64, 63
1, 219990, Control_c, 0, 64, 66
1, 220013, Control_c, 0, 64, 71
1, 220028, Control_c, 0, 64, 78
1, 220042, Control_c, 0, 64, 93
1, 220057, Control_c, 0, 64, 127
1, 220180, Note_off_c, 0, 77, 61
1, 220198, Note_on_c, 0, 89, 60
1, 220236, Note_off_c, 0, 89, 64
1, 220264, Control_c, 0, 64, 90
1, 220265, Note_on_c, 0, 45, 57
1, 220277, Note_on_c, 0, 75, 77
1, 220279, Control_c, 0, 64, 72
1, 220294, Control_c, 0, 64, 62
1, 220308, Control_c, 0, 64, 55
1, 220323, Control_c, 0, 64, 58
1, 220338, Control_c, 0, 64, 62
1, 220353, Control_c, 0, 64, 66
1, 220368, Control_c, 0, 64, 71
1, 220383, Control_c, 0, 64, 79
1, 220397, Control_c, 0, 64, 94
1, 220412, Control_c, 0, 64, 127
1, 220506, Note_off_c, 0, 44, 23
1, 220555, Note_on_c, 0, 87, 70
1, 220558, Note_off_c, 0, 75, 62
1, 220605, Control_c, 0, 64, 91
1, 220620, Control_c, 0, 64, 71
1, 220633, Note_on_c, 0, 46, 64
1, 220634, Note_on_c, 0, 73, 88
1, 220634, Control_c, 0, 64, 59
1, 220650, Control_c, 0, 64, 45
1, 220665, Control_c, 0, 64, 46
1, 220680, Control_c, 0, 64, 50
1, 220683, Note_off_c, 0, 87, 59
1, 220695, Control_c, 0, 64, 57
1, 220710, Control_c, 0, 64, 62
1, 220721, Note_off_c, 0, 45, 59
1, 220724, Control_c, 0, 64, 65
1, 220739, Control_c, 0, 64, 71
1, 220761, Control_c, 0, 64, 82
1, 220776, Control_c, 0, 64, 107
1, 220791, Control_c, 0, 64, 127
1, 220909, Note_on_c, 0, 85, 77
1, 220953, Note_off_c, 0, 73, 61
1, 220969, Control_c, 0, 64, 104
1, 220983, Control_c, 0, 64, 74
1, 220998, Control_c, 0, 64, 58
1, 221005, Note_on_c, 0, 48, 67
1, 221005, Note_on_c, 0, 72, 83
1, 221013, Control_c, 0, 64, 32
1, 221020, Note_off_c, 0, 85, 65
1, 221027, Control_c, 0, 64, 38
1, 221042, Control_c, 0, 64, 52
1, 221056, Control_c, 0, 64, 61
1, 221071, Note_off_c, 0, 46, 57
1, 221071, Control_c, 0, 64, 68
1, 221086, Control_c, 0, 64, 78
1, 221101, Control_c, 0, 64, 105
1, 221116, Control_c, 0, 64, 127
1, 221193, Note_off_c, 0, 48, 62
1, 221258, Note_on_c, 0, 84, 68
1, 221264, Control_c, 0, 64, 105
1, 221279, Control_c, 0, 64, 98
1, 221282, Note_off_c, 0, 72, 53
1, 221294, Control_c, 0, 64, 94
1, 221309, Control_c, 0, 64, 91
1, 221323, Control_c, 0, 64, 87
1, 221331, Note_off_c, 0, 84, 62
1, 221338, Control_c, 0, 64, 81
1, 221353, Control_c, 0, 64, 77
1, 221368, Control_c, 0, 64, 74
1, 221378, Note_on_c, 0, 49, 52
1, 221382, Control_c, 0, 64, 71
1, 221390, Note_on_c, 0, 70, 60
1, 221397, Control_c, 0, 64, 68
1, 221412, Note_off_c, 0, 41, 39
1, 221412, Control_c, 0, 64, 65
1, 221427, Note_off_c, 0, 49, 60
1, 221427, Control_c, 0, 64, 63
1, 221442, Control_c, 0, 64, 62
1, 221444, Note_off_c, 0, 53, 59
1, 221458, Control_c, 0, 64, 60
1, 221460, Note_off_c, 0, 70, 57
1, 221472, Control_c, 0, 64, 58
1, 221479, Note_on_c, 0, 82, 58
1, 221487, Control_c, 0, 64, 55
1, 221509, Control_c, 0, 64, 52
1, 221524, Control_c, 0, 64, 50
1, 221539, Control_c, 0, 64, 47
1, 221554, Control_c, 0, 64, 45
1, 221558, Note_off_c, 0, 82, 54
1, 221569, Control_c, 0, 64, 44
1, 221582, Note_on_c, 0, 70, 62
1, 221584, Control_c, 0, 64, 44
1, 221593, Note_on_c, 0, 53, 54
1, 221594, Note_on_c, 0, 49, 48
1, 221599, Control_c, 0, 64, 43
1, 221613, Control_c, 0, 64, 41
1, 221628, Control_c, 0, 64, 38
1, 221629, Note_off_c, 0, 53, 65
1, 221633, Note_off_c, 0, 49, 61
1, 221643, Control_c, 0, 64, 37
1, 221649, Note_off_c, 0, 70, 60
1, 221658, Control_c, 0, 64, 36
1, 221661, Note_on_c, 0, 82, 61
1, 221673, Control_c, 0, 64, 35
1, 221687, Control_c, 0, 64, 35
1, 221715, Note_off_c, 0, 82, 61
1, 221717, Control_c, 0, 64, 34
1, 221747, Control_c, 0, 64, 34
1, 221751, Note_on_c, 0, 68, 71
1, 221753, Note_on_c, 0, 51, 67
1, 221760, Note_on_c, 0, 48, 55
1, 221762, Control_c, 0, 64, 33
1, 221777, Control_c, 0, 64, 32
1, 221792, Control_c, 0, 64, 32
1, 221797, Note_off_c, 0, 51, 60
1, 221803, Note_off_c, 0, 48, 62
1, 221806, Control_c, 0, 64, 31
1, 221821, Control_c, 0, 64, 30
1, 221828, Note_off_c, 0, 68, 60
1, 221833, Note_on_c, 0, 80, 68
1, 221836, Control_c, 0, 64, 29
1, 221851, Control_c, 0, 64, 28
1, 221866, Control_c, 0, 64, 27
1, 221880, Control_c, 0, 64, 26
1, 221895, Control_c, 0, 64, 25
1, 221899, Note_off_c, 0, 80, 61
1, 221910, Control_c, 0, 64, 23
1, 221913, Note_on_c, 0, 51, 73
1, 221915, Note_on_c, 0, 68, 84
1, 221916, Note_on_c, 0, 48, 58
1, 221925, Control_c, 0, 64, 21
1, 221940, Control_c, 0, 64, 17
1, 221954, Control_c, 0, 64, 13
1, 221959, Note_off_c, 0, 48, 64
1, 221962, Note_off_c, 0, 51, 61
1, 221969, Control_c, 0, 64, 0
1, 221991, Note_on_c, 0, 80, 76
1, 221997, Note_off_c, 0, 68, 62
1, 222055, Note_off_c, 0, 80, 64
1, 222074, Note_on_c, 0, 49, 83
1, 222076, Note_on_c, 0, 66, 85
1, 222079, Note_on_c, 0, 46, 72
1, 222129, Note_off_c, 0, 49, 62
1, 222148, Note_off_c, 0, 46, 62
1, 222160, Note_on_c, 0, 78, 85
1, 222170, Note_off_c, 0, 66, 63
1, 222236, Note_off_c, 0, 78, 57
1, 222246, Note_on_c, 0, 66, 91
1, 222255, Note_on_c, 0, 49, 88
1, 222263, Note_on_c, 0, 46, 75
1, 222310, Note_off_c, 0, 46, 56
1, 222319, Note_off_c, 0, 49, 58
1, 222343, Note_on_c, 0, 78, 90
1, 222353, Note_off_c, 0, 66, 64
1, 222384, Note_off_c, 0, 78, 68
1, 222416, Note_on_c, 0, 49, 91
1, 222418, Note_on_c, 0, 44, 78
1, 222423, Note_on_c, 0, 48, 75
1, 222424, Note_on_c, 0, 65, 96
1, 222492, Note_off_c, 0, 49, 55
1, 222502, Note_off_c, 0, 48, 62
1, 222506, Note_off_c, 0, 65, 60
1, 222508, Note_off_c, 0, 44, 62
1, 222523, Note_on_c, 0, 77, 73
1, 222571, Note_off_c, 0, 77, 62
1, 222579, Note_on_c, 0, 44, 72
1, 222582, Note_on_c, 0, 48, 76
1, 222584, Note_on_c, 0, 49, 84
1, 222589, Note_on_c, 0, 65, 92
1, 222634, Note_off_c, 0, 49, 56
1, 222646, Note_off_c, 0, 48, 61
1, 222663, Note_on_c, 0, 77, 92
1, 222681, Note_off_c, 0, 65, 61
1, 222691, Note_off_c, 0, 44, 58
1, 222729, Note_off_c, 0, 77, 63
1, 222770, Note_on_c, 0, 64, 88
1, 222770, Note_on_c, 0, 46, 71
1, 222770, Note_on_c, 0, 43, 81
1, 222772, Note_on_c, 0, 76, 89
1, 222821, Control_c, 0, 64, 45
1, 222828, Note_off_c, 0, 43, 64
1, 222833, Note_off_c, 0, 64, 64
1, 222836, Control_c, 0, 64, 68
1, 222850, Note_off_c, 0, 46, 64
1, 222851, Control_c, 0, 64, 94
1, 222866, Control_c, 0, 64, 127
1, 222870, Note_off_c, 0, 76, 68
1, 222985, Control_c, 0, 64, 99
1, 223007, Control_c, 0, 64, 79
1, 223022, Control_c, 0, 64, 66
1, 223036, Control_c, 0, 64, 56
1, 223052, Control_c, 0, 64, 44
1, 223067, Control_c, 0, 64, 31
1, 223082, Control_c, 0, 64, 0
1, 223262, Note_on_c, 0, 85, 97
1, 223264, Note_on_c, 0, 55, 66
1, 223266, Note_on_c, 0, 52, 70
1, 223266, Note_on_c, 0, 58, 71
1, 223267, Note_on_c, 0, 82, 84
1, 223271, Note_on_c, 0, 79, 80
1, 223274, Note_on_c, 0, 61, 68
1, 223349, Control_c, 0, 64, 35
1, 223363, Control_c, 0, 64, 59
1, 223378, Control_c, 0, 64, 69
1, 223393, Control_c, 0, 64, 88
1, 223408, Control_c, 0, 64, 127
1, 223426, Note_off_c, 0, 61, 62
1, 223459, Note_off_c, 0, 79, 52
1, 223501, Note_off_c, 0, 58, 54
1, 223502, Note_off_c, 0, 52, 58
1, 223507, Note_off_c, 0, 55, 61
1, 223527, Note_off_c, 0, 82, 64
1, 223570, Note_off_c, 0, 85, 64
1, 223570, Control_c, 0, 64, 112
1, 223585, Control_c, 0, 64, 98
1, 223600, Control_c, 0, 64, 91
1, 223615, Control_c, 0, 64, 88
1, 223630, Control_c, 0, 64, 86
1, 223644, Control_c, 0, 64, 83
1, 223659, Control_c, 0, 64, 78
1, 223674, Control_c, 0, 64, 74
1, 223689, Control_c, 0, 64, 71
1, 223704, Control_c, 0, 64, 69
1, 223718, Control_c, 0, 64, 67
1, 223733, Control_c, 0, 64, 64
1, 223756, Control_c, 0, 64, 62
1, 223771, Control_c, 0, 64, 59
1, 223785, Control_c, 0, 64, 58
1, 223800, Control_c, 0, 64, 57
1, 223815, Control_c, 0, 64, 54
1, 223830, Control_c, 0, 64, 50
1, 223845, Control_c, 0, 64, 44
1, 223861, Control_c, 0, 64, 30
1, 223876, Control_c, 0, 64, 0
1, 224142, Control_c, 0, 64, 40
1, 224156, Control_c, 0, 64, 49
1, 224171, Control_c, 0, 64, 54
1, 224186, Control_c, 0, 64, 59
1, 224201, Control_c, 0, 64, 63
1, 224216, Control_c, 0, 64, 67
1, 224231, Control_c, 0, 64, 73
1, 224246, Control_c, 0, 64, 80
1, 224261, Control_c, 0, 64, 91
1, 224275, Control_c, 0, 64, 111
1, 224290, Control_c, 0, 64, 127
1, 224406, Note_on_c, 0, 72, 41
1, 224482, Control_c, 0, 64, 111
1, 224487, Note_off_c, 0, 72, 53
1, 224505, Control_c, 0, 64, 100
1, 224506, Note_on_c, 0, 73, 40
1, 224520, Control_c, 0, 64, 91
1, 224535, Control_c, 0, 64, 85
1, 224547, Note_off_c, 0, 73, 57
1, 224549, Control_c, 0, 64, 81
1, 224556, Note_on_c, 0, 75, 55
1, 224564, Control_c, 0, 64, 77
1, 224579, Control_c, 0, 64, 74
1, 224594, Control_c, 0, 64, 72
1, 224608, Control_c, 0, 64, 70
1, 224623, Control_c, 0, 64, 69
1, 224638, Control_c, 0, 64, 68
1, 224647, Note_on_c, 0, 73, 65
1, 224654, Control_c, 0, 64, 66
1, 224669, Control_c, 0, 64, 65
1, 224684, Control_c, 0, 64, 64
1, 224699, Control_c, 0, 64, 62
1, 224713, Control_c, 0, 64, 61
1, 224728, Control_c, 0, 64, 59
1, 224738, Note_off_c, 0, 75, 54
1, 224743, Control_c, 0, 64, 58
1, 224758, Control_c, 0, 64, 57
1, 224772, Control_c, 0, 64, 55
1, 224787, Control_c, 0, 64, 54
1, 224802, Control_c, 0, 64, 53
1, 224817, Control_c, 0, 64, 52
1, 224831, Control_c, 0, 64, 51
1, 224846, Control_c, 0, 64, 50
1, 224861, Control_c, 0, 64, 48
1, 224876, Control_c, 0, 64, 46
1, 224891, Control_c, 0, 64, 44
1, 224905, Control_c, 0, 64, 43
1, 224920, Control_c, 0, 64, 41
1, 224935, Control_c, 0, 64, 39
1, 224950, Control_c, 0, 64, 37
1, 224965, Control_c, 0, 64, 36
1, 224979, Control_c, 0, 64, 34
1, 224994, Control_c, 0, 64, 33
1, 224996, Note_on_c, 0, 72, 63
1, 225009, Control_c, 0, 64, 30
1, 225011, Note_off_c, 0, 73, 57
1, 225024, Control_c, 0, 64, 29
1, 225039, Control_c, 0, 64, 27
1, 225054, Control_c, 0, 64, 26
1, 225069, Control_c, 0, 64, 24
1, 225083, Control_c, 0, 64, 23
1, 225113, Control_c, 0, 64, 23
1, 225119, Note_off_c, 0, 72, 65
1, 225128, Control_c, 0, 64, 22
1, 225143, Control_c, 0, 64, 21
1, 225158, Control_c, 0, 64, 20
1, 225173, Note_on_c, 0, 53, 36
1, 225173, Note_on_c, 0, 72, 46
1, 225189, Note_on_c, 0, 56, 30
1, 225283, Control_c, 0, 64, 22
1, 225298, Control_c, 0, 64, 26
1, 225313, Control_c, 0, 64, 32
1, 225328, Control_c, 0, 64, 43
1, 225343, Control_c, 0, 64, 52
1, 225357, Control_c, 0, 64, 57
1, 225372, Control_c, 0, 64, 60
1, 225387, Control_c, 0, 64, 62
1, 225402, Control_c, 0, 64, 65
1, 225411, Note_on_c, 0, 80, 68
1, 225417, Control_c, 0, 64, 70
1, 225429, Note_off_c, 0, 72, 56
1, 225431, Control_c, 0, 64, 78
1, 225447, Control_c, 0, 64, 92
1, 225462, Control_c, 0, 64, 113
1, 225477, Control_c, 0, 64, 127
1, 225504, Note_off_c, 0, 53, 42
1, 225539, Note_off_c, 0, 56, 42
1, 225551, Note_on_c, 0, 79, 76
1, 225551, Control_c, 0, 64, 112
1, 225566, Control_c, 0, 64, 103
1, 225581, Control_c, 0, 64, 95
1, 225596, Control_c, 0, 64, 88
1, 225597, Note_off_c, 0, 80, 63
1, 225611, Control_c, 0, 64, 83
1, 225626, Control_c, 0, 64, 79
1, 225641, Control_c, 0, 64, 76
1, 225655, Control_c, 0, 64, 74
1, 225670, Control_c, 0, 64, 71
1, 225685, Control_c, 0, 64, 69
1, 225692, Note_on_c, 0, 77, 76
1, 225700, Control_c, 0, 64, 66
1, 225715, Control_c, 0, 64, 64
1, 225725, Note_off_c, 0, 79, 63
1, 225729, Control_c, 0, 64, 62
1, 225744, Control_c, 0, 64, 62
1, 225774, Control_c, 0, 64, 61
1, 225789, Control_c, 0, 64, 61
1, 225803, Control_c, 0, 64, 60
1, 225815, Note_off_c, 0, 77, 63
1, 225817, Note_on_c, 0, 72, 77
1, 225818, Control_c, 0, 64, 60
1, 225833, Control_c, 0, 64, 59
1, 225847, Control_c, 0, 64, 58
1, 225862, Control_c, 0, 64, 57
1, 225877, Control_c, 0, 64, 56
1, 225892, Control_c, 0, 64, 56
1, 225907, Control_c, 0, 64, 55
1, 225921, Control_c, 0, 64, 54
1, 225936, Control_c, 0, 64, 53
1, 225939, Note_off_c, 0, 72, 61
1, 225942, Note_on_c, 0, 68, 70
1, 225951, Control_c, 0, 64, 52
1, 225966, Control_c, 0, 64, 51
1, 225981, Control_c, 0, 64, 49
1, 226003, Control_c, 0, 64, 47
1, 226018, Control_c, 0, 64, 45
1, 226033, Control_c, 0, 64, 41
1, 226048, Control_c, 0, 64, 35
1, 226062, Control_c, 0, 64, 29
1, 226077, Control_c, 0, 64, 22
1, 226090, Note_on_c, 0, 46, 35
1, 226092, Control_c, 0, 64, 13
1, 226098, Note_on_c, 0, 49, 30
1, 226101, Note_on_c, 0, 67, 49
1, 226102, Note_on_c, 0, 55, 32
1, 226107, Control_c, 0, 64, 0
1, 226108, Note_off_c, 0, 68, 58
1, 226225, Control_c, 0, 64, 20
1, 226240, Control_c, 0, 64, 39
1, 226255, Note_on_c, 0, 75, 64
1, 226256, Control_c, 0, 64, 51
1, 226270, Control_c, 0, 64, 58
1, 226285, Control_c, 0, 64, 63
1, 226291, Note_off_c, 0, 67, 47
1, 226300, Control_c, 0, 64, 66
1, 226315, Control_c, 0, 64, 70
1, 226329, Control_c, 0, 64, 75
1, 226344, Control_c, 0, 64, 79
1, 226359, Control_c, 0, 64, 80
1, 226360, Note_off_c, 0, 46, 41
1, 226374, Control_c, 0, 64, 79
1, 226379, Note_on_c, 0, 72, 77
1, 226381, Note_off_c, 0, 49, 36
1, 226389, Control_c, 0, 64, 78
1, 226393, Note_off_c, 0, 55, 41
1, 226403, Control_c, 0, 64, 77
1, 226412, Note_off_c, 0, 75, 63
1, 226418, Control_c, 0, 64, 75
1, 226433, Control_c, 0, 64, 72
1, 226448, Control_c, 0, 64, 69
1, 226463, Control_c, 0, 64, 67
1, 226477, Control_c, 0, 64, 66
1, 226492, Control_c, 0, 64, 64
1, 226495, Note_on_c, 0, 73, 79
1, 226507, Control_c, 0, 64, 63
1, 226522, Control_c, 0, 64, 61
1, 226537, Control_c, 0, 64, 60
1, 226538, Note_off_c, 0, 72, 61
1, 226551, Control_c, 0, 64, 58
1, 226566, Control_c, 0, 64, 57
1, 226581, Control_c, 0, 64, 55
1, 226596, Control_c, 0, 64, 54
1, 226611, Control_c, 0, 64, 52
1, 226614, Note_on_c, 0, 70, 77
1, 226625, Control_c, 0, 64, 50
1, 226640, Control_c, 0, 64, 47
1, 226655, Control_c, 0, 64, 42
1, 226663, Note_off_c, 0, 73, 60
1, 226669, Control_c, 0, 64, 38
1, 226684, Control_c, 0, 64, 33
1, 226699, Control_c, 0, 64, 27
1, 226714, Control_c, 0, 64, 19
1, 226720, Note_on_c, 0, 67, 77
1, 226723, Note_off_c, 0, 70, 62
1, 226729, Control_c, 0, 64, 0
1, 226813, Note_off_c, 0, 67, 58
1, 226848, Note_on_c, 0, 48, 52
1, 226850, Note_on_c, 0, 53, 57
1, 226851, Note_on_c, 0, 65, 80
1, 226857, Note_on_c, 0, 56, 59
1, 226869, Control_c, 0, 64, 42
1, 226884, Control_c, 0, 64, 58
1, 226899, Control_c, 0, 64, 65
1, 226914, Control_c, 0, 64, 71
1, 226929, Control_c, 0, 64, 89
1, 226938, Note_off_c, 0, 48, 63
1, 226943, Control_c, 0, 64, 127
1, 226955, Note_off_c, 0, 53, 63
1, 226955, Note_off_c, 0, 56, 64
1, 226969, Note_off_c, 0, 65, 51
1, 226975, Note_on_c, 0, 60, 73
1, 227076, Note_off_c, 0, 60, 62
1, 227080, Note_on_c, 0, 65, 81
1, 227093, Control_c, 0, 64, 109
1, 227107, Control_c, 0, 64, 102
1, 227122, Control_c, 0, 64, 95
1, 227137, Control_c, 0, 64, 91
1, 227152, Control_c, 0, 64, 87
1, 227167, Control_c, 0, 64, 84
1, 227182, Control_c, 0, 64, 82
1, 227193, Note_on_c, 0, 68, 81
1, 227197, Control_c, 0, 64, 79
1, 227200, Note_on_c, 0, 56, 46
1, 227206, Note_off_c, 0, 65, 59
1, 227212, Control_c, 0, 64, 76
1, 227224, Note_on_c, 0, 57, 63
1, 227226, Control_c, 0, 64, 74
1, 227241, Control_c, 0, 64, 71
1, 227256, Control_c, 0, 64, 69
1, 227271, Control_c, 0, 64, 68
1, 227286, Control_c, 0, 64, 66
1, 227300, Control_c, 0, 64, 65
1, 227304, Note_on_c, 0, 65, 87
1, 227310, Note_off_c, 0, 68, 61
1, 227313, Note_on_c, 0, 53, 74
1, 227315, Control_c, 0, 64, 64
1, 227318, Note_off_c, 0, 56, 28
1, 227327, Note_off_c, 0, 57, 61
1, 227330, Control_c, 0, 64, 63
1, 227345, Control_c, 0, 64, 62
1, 227360, Control_c, 0, 64, 60
1, 227374, Control_c, 0, 64, 57
1, 227389, Control_c, 0, 64, 47
1, 227404, Note_on_c, 0, 73, 92
1, 227404, Control_c, 0, 64, 15
1, 227418, Control_c, 0, 64, 0
1, 227421, Note_on_c, 0, 61, 81
1, 227423, Note_off_c, 0, 65, 60
1, 227463, Note_off_c, 0, 53, 62
1, 227507, Note_off_c, 0, 73, 51
1, 227519, Note_on_c, 0, 60, 82
1, 227525, Note_on_c, 0, 72, 90
1, 227531, Note_off_c, 0, 61, 63
1, 227613, Note_off_c, 0, 60, 67
1, 227619, Control_c, 0, 64, 57
1, 227620, Note_off_c, 0, 72, 68
1, 227633, Control_c, 0, 64, 70
1, 227648, Control_c, 0, 64, 95
1, 227663, Control_c, 0, 64, 127
1, 227707, Control_c, 0, 64, 92
1, 227722, Control_c, 0, 64, 69
1, 227737, Control_c, 0, 64, 31
1, 227752, Control_c, 0, 64, 0
1, 227915, Note_on_c, 0, 76, 97
1, 227917, Note_on_c, 0, 60, 81
1, 227918, Note_on_c, 0, 67, 85
1, 227919, Note_on_c, 0, 72, 85
1, 227922, Note_on_c, 0, 48, 78
1, 227945, Control_c, 0, 64, 51
1, 227960, Control_c, 0, 64, 71
1, 227973, Note_off_c, 0, 60, 65
1, 227975, Control_c, 0, 64, 127
1, 227993, Note_off_c, 0, 48, 63
1, 227998, Note_off_c, 0, 67, 62
1, 228005, Note_off_c, 0, 72, 60
1, 228037, Note_off_c, 0, 76, 61
1, 228079, Control_c, 0, 64, 113
1, 228094, Control_c, 0, 64, 82
1, 228109, Control_c, 0, 64, 66
1, 228123, Control_c, 0, 64, 46
1, 228138, Control_c, 0, 64, 0
1, 228359, Note_on_c, 0, 41, 76
1, 228362, Note_on_c, 0, 53, 79
1, 228365, Note_on_c, 0, 77, 93
1, 228367, Note_on_c, 0, 68, 87
1, 228371, Note_on_c, 0, 72, 81
1, 228397, Control_c, 0, 64, 55
1, 228412, Control_c, 0, 64, 68
1, 228425, Note_off_c, 0, 72, 65
1, 228427, Control_c, 0, 64, 98
1, 228440, Note_off_c, 0, 41, 64
1, 228442, Control_c, 0, 64, 127
1, 228449, Note_off_c, 0, 68, 62
1, 228452, Note_off_c, 0, 77, 65
1, 228458, Note_off_c, 0, 53, 64
1, 228530, Control_c, 0, 64, 107
1, 228545, Control_c, 0, 64, 96
1, 228560, Control_c, 0, 64, 88
1, 228574, Control_c, 0, 64, 82
1, 228589, Control_c, 0, 64, 79
1, 228604, Control_c, 0, 64, 76
1, 228619, Control_c, 0, 64, 74
1, 228634, Control_c, 0, 64, 72
1, 228650, Control_c, 0, 64, 70
1, 228664, Control_c, 0, 64, 68
1, 228679, Control_c, 0, 64, 67
1, 228687, Note_on_c, 0, 68, 41
1, 228694, Control_c, 0, 64, 65
1, 228709, Control_c, 0, 64, 64
1, 228724, Control_c, 0, 64, 63
1, 228738, Control_c, 0, 64, 62
1, 228749, Note_off_c, 0, 68, 53
1, 228753, Control_c, 0, 64, 60
1, 228757, Note_on_c, 0, 72, 49
1, 228768, Control_c, 0, 64, 56
1, 228783, Control_c, 0, 64, 48
1, 228798, Control_c, 0, 64, 34
1, 228813, Control_c, 0, 64, 26
1, 228827, Control_c, 0, 64, 23
1, 228830, Note_off_c, 0, 72, 54
1, 228842, Control_c, 0, 64, 21
1, 228872, Control_c, 0, 64, 24
1, 228879, Note_on_c, 0, 68, 38
1, 228883, Note_on_c, 0, 65, 39
1, 228885, Note_on_c, 0, 53, 40
1, 228887, Control_c, 0, 64, 41
1, 228902, Control_c, 0, 64, 53
1, 228917, Control_c, 0, 64, 60
1, 228922, Note_off_c, 0, 68, 58
1, 228932, Control_c, 0, 64, 64
1, 228944, Note_on_c, 0, 72, 38
1, 228946, Control_c, 0, 64, 69
1, 228961, Control_c, 0, 64, 77
1, 228976, Control_c, 0, 64, 101
1, 228998, Control_c, 0, 64, 127
1, 229003, Note_off_c, 0, 72, 59
1, 229052, Note_on_c, 0, 68, 41
1, 229106, Note_off_c, 0, 65, 48
1, 229114, Note_off_c, 0, 68, 49
1, 229118, Note_off_c, 0, 53, 42
1, 229127, Note_on_c, 0, 72, 45
1, 229161, Control_c, 0, 64, 112
1, 229176, Control_c, 0, 64, 100
1, 229191, Control_c, 0, 64, 86
1, 229206, Control_c, 0, 64, 73
1, 229220, Control_c, 0, 64, 62
1, 229235, Control_c, 0, 64, 46
1, 229245, Note_on_c, 0, 67, 44
1, 229250, Control_c, 0, 64, 43
1, 229263, Note_off_c, 0, 72, 35
1, 229266, Control_c, 0, 64, 49
1, 229280, Control_c, 0, 64, 55
1, 229295, Control_c, 0, 64, 59
1, 229310, Control_c, 0, 64, 62
1, 229321, Note_on_c, 0, 71, 42
1, 229325, Control_c, 0, 64, 64
1, 229327, Note_off_c, 0, 67, 48
1, 229339, Control_c, 0, 64, 66
1, 229354, Control_c, 0, 64, 69
1, 229369, Control_c, 0, 64, 72
1, 229384, Control_c, 0, 64, 76
1, 229398, Control_c, 0, 64, 79
1, 229412, Note_on_c, 0, 68, 44
1, 229412, Note_off_c, 0, 71, 52
1, 229413, Control_c, 0, 64, 82
1, 229428, Control_c, 0, 64, 82
1, 229469, Note_off_c, 0, 68, 59
1, 229492, Note_on_c, 0, 72, 48
1, 229503, Control_c, 0, 64, 82
1, 229533, Control_c, 0, 64, 81
1, 229548, Control_c, 0, 64, 79
1, 229562, Control_c, 0, 64, 73
1, 229571, Note_off_c, 0, 72, 47
1, 229577, Control_c, 0, 64, 66
1, 229592, Control_c, 0, 64, 59
1, 229593, Note_on_c, 0, 53, 35
1, 229594, Note_on_c, 0, 65, 37
1, 229598, Note_on_c, 0, 68, 44
1, 229607, Control_c, 0, 64, 52
1, 229622, Control_c, 0, 64, 51
1, 229636, Control_c, 0, 64, 53
1, 229650, Note_off_c, 0, 68, 60
1, 229651, Control_c, 0, 64, 57
1, 229663, Note_on_c, 0, 72, 36
1, 229666, Control_c, 0, 64, 62
1, 229681, Control_c, 0, 64, 64
1, 229695, Control_c, 0, 64, 67
1, 229710, Control_c, 0, 64, 71
1, 229725, Control_c, 0, 64, 78
1, 229734, Note_off_c, 0, 72, 59
1, 229748, Control_c, 0, 64, 89
1, 229763, Control_c, 0, 64, 103
1, 229772, Note_on_c, 0, 68, 51
1, 229777, Control_c, 0, 64, 118
1, 229792, Control_c, 0, 64, 119
1, 229819, Note_off_c, 0, 68, 60
1, 229822, Control_c, 0, 64, 118
1, 229844, Note_off_c, 0, 65, 54
1, 229847, Note_on_c, 0, 72, 46
1, 229859, Note_off_c, 0, 53, 42
1, 229866, Control_c, 0, 64, 117
1, 229881, Control_c, 0, 64, 114
1, 229895, Control_c, 0, 64, 107
1, 229901, Note_off_c, 0, 72, 60
1, 229910, Control_c, 0, 64, 94
1, 229925, Control_c, 0, 64, 80
1, 229940, Control_c, 0, 64, 68
1, 229942, Note_on_c, 0, 69, 56
1, 229955, Control_c, 0, 64, 58
1, 229969, Control_c, 0, 64, 49
1, 229984, Control_c, 0, 64, 52
1, 229999, Control_c, 0, 64, 56
1, 230013, Control_c, 0, 64, 61
1, 230028, Control_c, 0, 64, 65
1, 230035, Note_off_c, 0, 69, 58
1, 230036, Note_on_c, 0, 75, 55
1, 230043, Control_c, 0, 64, 68
1, 230058, Control_c, 0, 64, 71
1, 230073, Control_c, 0, 64, 77
1, 230087, Control_c, 0, 64, 83
1, 230102, Control_c, 0, 64, 91
1, 230109, Note_on_c, 0, 70, 57
1, 230117, Control_c, 0, 64, 95
1, 230128, Note_off_c, 0, 75, 58
1, 230132, Control_c, 0, 64, 96
1, 230183, Note_off_c, 0, 70, 62
1, 230188, Note_on_c, 0, 73, 68
1, 230206, Control_c, 0, 64, 95
1, 230220, Control_c, 0, 64, 94
1, 230237, Control_c, 0, 64, 88
1, 230252, Control_c, 0, 64, 78
1, 230266, Control_c, 0, 64, 67
1, 230281, Note_on_c, 0, 53, 44
1, 230281, Control_c, 0, 64, 57
1, 230282, Note_on_c, 0, 65, 41
1, 230288, Note_on_c, 0, 70, 70
1, 230291, Note_off_c, 0, 73, 61
1, 230296, Control_c, 0, 64, 52
1, 230310, Control_c, 0, 64, 53
1, 230325, Control_c, 0, 64, 56
1, 230340, Control_c, 0, 64, 60
1, 230355, Control_c, 0, 64, 64
1, 230360, Note_off_c, 0, 70, 63
1, 230363, Note_on_c, 0, 73, 70
1, 230370, Control_c, 0, 64, 68
1, 230385, Control_c, 0, 64, 73
1, 230399, Control_c, 0, 64, 81
1, 230414, Control_c, 0, 64, 93
1, 230429, Control_c, 0, 64, 127
1, 230444, Note_off_c, 0, 73, 63
1, 230452, Note_on_c, 0, 70, 75
1, 230475, Note_off_c, 0, 53, 43
1, 230504, Note_off_c, 0, 65, 52
1, 230521, Note_on_c, 0, 73, 76
1, 230532, Note_off_c, 0, 70, 62
1, 230571, Note_off_c, 0, 73, 65
1, 230585, Control_c, 0, 64, 110
1, 230599, Control_c, 0, 64, 86
1, 230614, Control_c, 0, 64, 70
1, 230628, Note_on_c, 0, 73, 69
1, 230629, Control_c, 0, 64, 59
1, 230643, Control_c, 0, 64, 50
1, 230658, Control_c, 0, 64, 53
1, 230673, Control_c, 0, 64, 58
1, 230688, Control_c, 0, 64, 62
1, 230703, Control_c, 0, 64, 66
1, 230717, Control_c, 0, 64, 70
1, 230720, Note_off_c, 0, 73, 64
1, 230720, Note_on_c, 0, 77, 71
1, 230732, Control_c, 0, 64, 75
1, 230747, Control_c, 0, 64, 87
1, 230762, Control_c, 0, 64, 101
1, 230777, Control_c, 0, 64, 127
1, 230816, Note_on_c, 0, 70, 72
1, 230825, Note_off_c, 0, 77, 48
1, 230866, Control_c, 0, 64, 123
1, 230881, Control_c, 0, 64, 117
1, 230881, Note_off_c, 0, 70, 61
1, 230896, Control_c, 0, 64, 110
1, 230903, Note_on_c, 0, 73, 65
1, 230910, Control_c, 0, 64, 98
1, 230925, Control_c, 0, 64, 82
1, 230940, Control_c, 0, 64, 67
1, 230955, Control_c, 0, 64, 54
1, 230970, Control_c, 0, 64, 43
1, 230974, Note_off_c, 0, 73, 55
1, 230980, Note_on_c, 0, 53, 37
1, 230980, Note_on_c, 0, 68, 62
1, 230985, Note_on_c, 0, 65, 35
1, 230985, Control_c, 0, 64, 45
1, 230999, Control_c, 0, 64, 49
1, 231014, Control_c, 0, 64, 55
1, 231029, Control_c, 0, 64, 61
1, 231045, Control_c, 0, 64, 64
1, 231052, Note_off_c, 0, 68, 60
1, 231060, Control_c, 0, 64, 66
1, 231073, Note_on_c, 0, 73, 58
1, 231075, Control_c, 0, 64, 70
1, 231089, Control_c, 0, 64, 76
1, 231104, Control_c, 0, 64, 84
1, 231119, Control_c, 0, 64, 94
1, 231121, Note_off_c, 0, 73, 59
1, 231133, Control_c, 0, 64, 98
1, 231148, Control_c, 0, 64, 98
1, 231153, Note_on_c, 0, 67, 59
1, 231156, Note_off_c, 0, 53, 42
1, 231158, Note_off_c, 0, 65, 61
1, 231163, Control_c, 0, 64, 97
1, 231207, Control_c, 0, 64, 97
1, 231224, Note_off_c, 0, 67, 58
1, 231245, Control_c, 0, 64, 96
1, 231245, Note_on_c, 0, 73, 60
1, 231260, Control_c, 0, 64, 94
1, 231274, Control_c, 0, 64, 90
1, 231289, Control_c, 0, 64, 80
1, 231299, Note_off_c, 0, 73, 55
1, 231304, Control_c, 0, 64, 69
1, 231319, Control_c, 0, 64, 55
1, 231328, Note_on_c, 0, 68, 54
1, 231334, Control_c, 0, 64, 44
1, 231348, Control_c, 0, 64, 48
1, 231363, Control_c, 0, 64, 54
1, 231378, Control_c, 0, 64, 60
1, 231392, Note_off_c, 0, 68, 56
1, 231393, Control_c, 0, 64, 63
1, 231408, Control_c, 0, 64, 66
1, 231419, Note_on_c, 0, 73, 53
1, 231422, Control_c, 0, 64, 69
1, 231437, Control_c, 0, 64, 74
1, 231452, Control_c, 0, 64, 80
1, 231466, Control_c, 0, 64, 86
1, 231469, Note_off_c, 0, 73, 55
1, 231481, Control_c, 0, 64, 91
1, 231492, Note_on_c, 0, 68, 53
1, 231496, Control_c, 0, 64, 92
1, 231556, Note_off_c, 0, 68, 58
1, 231570, Control_c, 0, 64, 90
1, 231578, Note_on_c, 0, 72, 53
1, 231585, Control_c, 0, 64, 85
1, 231600, Control_c, 0, 64, 75
1, 231614, Control_c, 0, 64, 65
1, 231629, Control_c, 0, 64, 56
1, 231637, Note_off_c, 0, 72, 58
1, 231644, Control_c, 0, 64, 50
1, 231647, Note_on_c, 0, 65, 37
1, 231650, Note_on_c, 0, 53, 37
1, 231658, Note_on_c, 0, 68, 51
1, 231658, Control_c, 0, 64, 53
1, 231673, Control_c, 0, 64, 58
1, 231688, Control_c, 0, 64, 63
1, 231703, Control_c, 0, 64, 66
1, 231707, Note_off_c, 0, 68, 63
1, 231718, Control_c, 0, 64, 70
1, 231728, Note_on_c, 0, 72, 50
1, 231732, Note_off_c, 0, 65, 62
1, 231732, Control_c, 0, 64, 76
1, 231747, Control_c, 0, 64, 83
1, 231755, Note_off_c, 0, 53, 57
1, 231762, Control_c, 0, 64, 92
1, 231777, Control_c, 0, 64, 97
1, 231789, Note_off_c, 0, 72, 58
1, 231791, Control_c, 0, 64, 96
1, 231806, Control_c, 0, 64, 95
1, 231813, Note_on_c, 0, 68, 63
1, 231821, Control_c, 0, 64, 94
1, 231837, Control_c, 0, 64, 94
1, 231852, Control_c, 0, 64, 93
1, 231867, Control_c, 0, 64, 92
1, 231876, Note_off_c, 0, 68, 55
1, 231881, Control_c, 0, 64, 91
1, 231896, Control_c, 0, 64, 88
1, 231902, Note_on_c, 0, 72, 57
1, 231911, Control_c, 0, 64, 83
1, 231926, Control_c, 0, 64, 73
1, 231941, Control_c, 0, 64, 64
1, 231955, Control_c, 0, 64, 49
1, 231970, Control_c, 0, 64, 40
1, 231975, Note_off_c, 0, 72, 54
1, 231998, Note_on_c, 0, 46, 53
1, 232005, Note_on_c, 0, 68, 60
1, 232008, Control_c, 0, 64, 42
1, 232023, Control_c, 0, 64, 47
1, 232037, Control_c, 0, 64, 54
1, 232052, Control_c, 0, 64, 60
1, 232067, Control_c, 0, 64, 64
1, 232082, Control_c, 0, 64, 68
1, 232083, Note_off_c, 0, 68, 59
1, 232089, Note_off_c, 0, 46, 62
1, 232092, Note_on_c, 0, 72, 57
1, 232096, Control_c, 0, 64, 73
1, 232111, Control_c, 0, 64, 75
1, 232126, Control_c, 0, 64, 74
1, 232141, Control_c, 0, 64, 71
1, 232143, Note_off_c, 0, 72, 55
1, 232156, Control_c, 0, 64, 67
1, 232165, Note_on_c, 0, 66, 63
1, 232170, Control_c, 0, 64, 64
1, 232185, Control_c, 0, 64, 61
1, 232200, Control_c, 0, 64, 58
1, 232215, Control_c, 0, 64, 57
1, 232230, Control_c, 0, 64, 55
1, 232235, Note_off_c, 0, 66, 62
1, 232244, Control_c, 0, 64, 52
1, 232253, Note_on_c, 0, 70, 57
1, 232258, Control_c, 0, 64, 48
1, 232273, Control_c, 0, 64, 44
1, 232288, Control_c, 0, 64, 42
1, 232303, Control_c, 0, 64, 42
1, 232318, Control_c, 0, 64, 40
1, 232327, Note_off_c, 0, 70, 56
1, 232331, Note_on_c, 0, 54, 50
1, 232333, Control_c, 0, 64, 38
1, 232337, Note_on_c, 0, 58, 53
1, 232341, Note_on_c, 0, 66, 58
1, 232348, Control_c, 0, 64, 37
1, 232362, Control_c, 0, 64, 36
1, 232377, Control_c, 0, 64, 35
1, 232392, Control_c, 0, 64, 34
1, 232400, Note_off_c, 0, 66, 61
1, 232407, Control_c, 0, 64, 34
1, 232409, Note_off_c, 0, 58, 64
1, 232409, Note_off_c, 0, 54, 65
1, 232419, Note_on_c, 0, 70, 57
1, 232436, Control_c, 0, 64, 33
1, 232451, Control_c, 0, 64, 33
1, 232466, Control_c, 0, 64, 32
1, 232480, Control_c, 0, 64, 31
1, 232495, Control_c, 0, 64, 29
1, 232497, Note_off_c, 0, 70, 59
1, 232500, Note_on_c, 0, 66, 63
1, 232510, Control_c, 0, 64, 26
1, 232525, Control_c, 0, 64, 24
1, 232540, Control_c, 0, 64, 24
1, 232554, Control_c, 0, 64, 23
1, 232559, Note_off_c, 0, 66, 59
1, 232569, Control_c, 0, 64, 22
1, 232579, Note_on_c, 0, 70, 47
1, 232584, Control_c, 0, 64, 20
1, 232599, Control_c, 0, 64, 19
1, 232667, Note_on_c, 0, 48, 45
1, 232673, Note_on_c, 0, 66, 66
1, 232673, Note_off_c, 0, 70, 57
1, 232674, Control_c, 0, 64, 29
1, 232689, Control_c, 0, 64, 46
1, 232703, Control_c, 0, 64, 60
1, 232718, Control_c, 0, 64, 63
1, 232736, Note_off_c, 0, 48, 60
1, 232741, Control_c, 0, 64, 64
1, 232756, Control_c, 0, 64, 65
1, 232756, Note_off_c, 0, 66, 62
1, 232768, Note_on_c, 0, 70, 58
1, 232771, Control_c, 0, 64, 64
1, 232785, Control_c, 0, 64, 64
1, 232800, Control_c, 0, 64, 63
1, 232815, Control_c, 0, 64, 61
1, 232820, Note_off_c, 0, 70, 62
1, 232830, Control_c, 0, 64, 60
1, 232845, Note_on_c, 0, 65, 67
1, 232845, Control_c, 0, 64, 59
1, 232859, Control_c, 0, 64, 59
1, 232874, Control_c, 0, 64, 58
1, 232889, Control_c, 0, 64, 57
1, 232904, Control_c, 0, 64, 55
1, 232918, Control_c, 0, 64, 54
1, 232926, Note_off_c, 0, 65, 59
1, 232931, Note_on_c, 0, 68, 61
1, 232948, Control_c, 0, 64, 53
1, 232963, Control_c, 0, 64, 52
1, 232978, Control_c, 0, 64, 51
1, 232992, Control_c, 0, 64, 50
1, 233006, Note_on_c, 0, 53, 46
1, 233008, Control_c, 0, 64, 49
1, 233009, Note_on_c, 0, 56, 49
1, 233016, Note_off_c, 0, 68, 60
1, 233017, Note_on_c, 0, 65, 62
1, 233023, Control_c, 0, 64, 49
1, 233037, Control_c, 0, 64, 48
1, 233052, Control_c, 0, 64, 47
1, 233067, Control_c, 0, 64, 46
1, 233082, Control_c, 0, 64, 45
1, 233087, Note_off_c, 0, 56, 63
1, 233089, Note_off_c, 0, 65, 62
1, 233090, Note_off_c, 0, 53, 64
1, 233097, Control_c, 0, 64, 43
1, 233099, Note_on_c, 0, 68, 54
1, 233111, Control_c, 0, 64, 42
1, 233126, Control_c, 0, 64, 40
1, 233141, Control_c, 0, 64, 39
1, 233156, Control_c, 0, 64, 38
1, 233165, Note_off_c, 0, 68, 60
1, 233171, Control_c, 0, 64, 34
1, 233180, Note_on_c, 0, 65, 62
1, 233186, Control_c, 0, 64, 31
1, 233200, Control_c, 0, 64, 28
1, 233215, Control_c, 0, 64, 26
1, 233230, Control_c, 0, 64, 23
1, 233232, Note_off_c, 0, 65, 59
1, 233245, Control_c, 0, 64, 17
1, 233246, Note_on_c, 0, 68, 47
1, 233260, Control_c, 0, 64, 11
1, 233314, Note_off_c, 0, 68, 56
1, 233347, Note_on_c, 0, 65, 50
1, 233349, Control_c, 0, 64, 25
1, 233355, Note_on_c, 0, 48, 46
1, 233364, Control_c, 0, 64, 43
1, 233379, Control_c, 0, 64, 57
1, 233393, Control_c, 0, 64, 63
1, 233403, Note_off_c, 0, 65, 55
1, 233403, Note_on_c, 0, 68, 42
1, 233408, Control_c, 0, 64, 66
1, 233417, Note_off_c, 0, 48, 62
1, 233423, Control_c, 0, 64, 70
1, 233439, Control_c, 0, 64, 75
1, 233454, Control_c, 0, 64, 77
1, 233469, Control_c, 0, 64, 75
1, 233490, Control_c, 0, 64, 72
1, 233493, Note_off_c, 0, 68, 57
1, 233505, Control_c, 0, 64, 68
1, 233518, Note_on_c, 0, 64, 54
1, 233520, Control_c, 0, 64, 64
1, 233534, Control_c, 0, 64, 60
1, 233549, Control_c, 0, 64, 54
1, 233564, Control_c, 0, 64, 49
1, 233570, Note_off_c, 0, 64, 54
1, 233579, Control_c, 0, 64, 46
1, 233594, Control_c, 0, 64, 43
1, 233600, Note_on_c, 0, 67, 48
1, 233609, Control_c, 0, 64, 41
1, 233624, Control_c, 0, 64, 38
1, 233639, Control_c, 0, 64, 32
1, 233654, Control_c, 0, 64, 27
1, 233668, Control_c, 0, 64, 25
1, 233676, Note_off_c, 0, 67, 56
1, 233683, Control_c, 0, 64, 24
1, 233694, Note_on_c, 0, 52, 37
1, 233694, Note_on_c, 0, 64, 54
1, 233698, Control_c, 0, 64, 22
1, 233704, Note_on_c, 0, 55, 41
1, 233713, Control_c, 0, 64, 19
1, 233728, Control_c, 0, 64, 12
1, 233742, Control_c, 0, 64, 0
1, 233746, Note_off_c, 0, 64, 57
1, 233782, Note_off_c, 0, 55, 63
1, 233794, Note_on_c, 0, 67, 40
1, 233803, Note_off_c, 0, 52, 61
1, 233825, Note_off_c, 0, 67, 57
1, 233869, Note_on_c, 0, 64, 48
1, 233921, Note_off_c, 0, 64, 58
1, 233941, Note_on_c, 0, 67, 41
1, 234010, Note_off_c, 0, 67, 52
1, 234050, Note_on_c, 0, 41, 33
1, 234052, Note_on_c, 0, 65, 41
1, 234053, Control_c, 0, 64, 17
1, 234068, Control_c, 0, 64, 46
1, 234083, Control_c, 0, 64, 59
1, 234098, Control_c, 0, 64, 67
1, 234107, Note_off_c, 0, 65, 63
1, 234113, Control_c, 0, 64, 76
1, 234124, Note_off_c, 0, 41, 64
1, 234127, Control_c, 0, 64, 95
1, 234142, Control_c, 0, 64, 127
1, 234216, Control_c, 0, 64, 123
1, 234239, Control_c, 0, 64, 114
1, 234254, Control_c, 0, 64, 107
1, 234269, Control_c, 0, 64, 101
1, 234283, Control_c, 0, 64, 94
1, 234298, Control_c, 0, 64, 87
1, 234313, Control_c, 0, 64, 83
1, 234318, Note_on_c, 0, 69, 41
1, 234328, Control_c, 0, 64, 81
1, 234343, Control_c, 0, 64, 79
1, 234357, Control_c, 0, 64, 79
1, 234372, Control_c, 0, 64, 78
1, 234387, Control_c, 0, 64, 75
1, 234393, Note_on_c, 0, 72, 41
1, 234402, Control_c, 0, 64, 71
1, 234411, Note_off_c, 0, 69, 36
1, 234417, Control_c, 0, 64, 64
1, 234432, Control_c, 0, 64, 55
1, 234446, Control_c, 0, 64, 47
1, 234476, Control_c, 0, 64, 49
1, 234486, Note_off_c, 0, 72, 57
1, 234491, Control_c, 0, 64, 53
1, 234503, Note_on_c, 0, 69, 34
1, 234506, Control_c, 0, 64, 57
1, 234511, Note_on_c, 0, 53, 37
1, 234518, Note_on_c, 0, 65, 24
1, 234521, Control_c, 0, 64, 60
1, 234536, Control_c, 0, 64, 63
1, 234551, Control_c, 0, 64, 65
1, 234565, Control_c, 0, 64, 69
1, 234578, Note_off_c, 0, 69, 54
1, 234580, Control_c, 0, 64, 72
1, 234595, Note_on_c, 0, 72, 22
1, 234595, Control_c, 0, 64, 78
1, 234610, Control_c, 0, 64, 86
1, 234625, Control_c, 0, 64, 97
1, 234639, Control_c, 0, 64, 111
1, 234654, Control_c, 0, 64, 119
1, 234683, Control_c, 0, 64, 118
1, 234685, Note_on_c, 0, 69, 38
1, 234698, Control_c, 0, 64, 117
1, 234713, Control_c, 0, 64, 115
1, 234728, Control_c, 0, 64, 113
1, 234730, Note_off_c, 0, 69, 57
1, 234757, Control_c, 0, 64, 113
1, 234772, Control_c, 0, 64, 108
1, 234783, Note_off_c, 0, 53, 41
1, 234787, Control_c, 0, 64, 95
1, 234802, Note_off_c, 0, 65, 39
1, 234802, Control_c, 0, 64, 80
1, 234817, Control_c, 0, 64, 67
1, 234828, Note_on_c, 0, 68, 47
1, 234831, Control_c, 0, 64, 59
1, 234839, Note_off_c, 0, 72, 44
1, 234846, Control_c, 0, 64, 55
1, 234861, Control_c, 0, 64, 58
1, 234876, Control_c, 0, 64, 62
1, 234891, Control_c, 0, 64, 65
1, 234893, Note_off_c, 0, 68, 53
1, 234897, Note_on_c, 0, 71, 41
1, 234905, Control_c, 0, 64, 69
1, 234920, Control_c, 0, 64, 74
1, 234935, Control_c, 0, 64, 82
1, 234950, Control_c, 0, 64, 90
1, 234965, Control_c, 0, 64, 97
1, 234987, Control_c, 0, 64, 101
1, 234991, Note_off_c, 0, 71, 55
1, 234992, Note_on_c, 0, 69, 46
1, 235045, Note_off_c, 0, 69, 55
1, 235081, Note_on_c, 0, 72, 47
1, 235092, Control_c, 0, 64, 99
1, 235107, Control_c, 0, 64, 97
1, 235121, Control_c, 0, 64, 90
1, 235136, Control_c, 0, 64, 77
1, 235151, Control_c, 0, 64, 66
1, 235166, Control_c, 0, 64, 57
1, 235171, Note_off_c, 0, 72, 49
1, 235180, Control_c, 0, 64, 55
1, 235186, Note_on_c, 0, 53, 34
1, 235187, Note_on_c, 0, 69, 44
1, 235195, Note_on_c, 0, 65, 31
1, 235195, Control_c, 0, 64, 57
1, 235210, Control_c, 0, 64, 61
1, 235225, Control_c, 0, 64, 64
1, 235240, Control_c, 0, 64, 68
1, 235242, Note_off_c, 0, 69, 60
1, 235254, Note_on_c, 0, 72, 33
1, 235254, Control_c, 0, 64, 72
1, 235269, Control_c, 0, 64, 77
1, 235284, Control_c, 0, 64, 84
1, 235299, Control_c, 0, 64, 92
1, 235314, Control_c, 0, 64, 106
1, 235329, Control_c, 0, 64, 121
1, 235336, Note_off_c, 0, 72, 58
1, 235344, Control_c, 0, 64, 127
1, 235369, Note_on_c, 0, 69, 49
1, 235409, Note_off_c, 0, 69, 60
1, 235451, Note_on_c, 0, 72, 41
1, 235477, Control_c, 0, 64, 113
1, 235480, Note_off_c, 0, 65, 40
1, 235487, Note_off_c, 0, 53, 42
1, 235489, Note_off_c, 0, 72, 59
1, 235492, Control_c, 0, 64, 99
1, 235506, Control_c, 0, 64, 80
1, 235521, Control_c, 0, 64, 68
1, 235536, Control_c, 0, 64, 60
1, 235540, Note_on_c, 0, 69, 52
1, 235551, Control_c, 0, 64, 58
1, 235566, Control_c, 0, 64, 61
1, 235580, Control_c, 0, 64, 64
1, 235595, Control_c, 0, 64, 67
1, 235610, Control_c, 0, 64, 73
1, 235623, Note_off_c, 0, 69, 54
1, 235625, Control_c, 0, 64, 81
1, 235635, Note_on_c, 0, 75, 57
1, 235640, Control_c, 0, 64, 92
1, 235654, Control_c, 0, 64, 110
1, 235669, Control_c, 0, 64, 127
1, 235720, Note_on_c, 0, 70, 58
1, 235731, Note_off_c, 0, 75, 59
1, 235797, Note_off_c, 0, 70, 61
1, 235801, Note_on_c, 0, 74, 57
1, 235825, Control_c, 0, 64, 106
1, 235841, Control_c, 0, 64, 83
1, 235856, Control_c, 0, 64, 69
1, 235871, Control_c, 0, 64, 58
1, 235881, Note_on_c, 0, 53, 45
1, 235885, Control_c, 0, 64, 55
1, 235890, Note_on_c, 0, 65, 35
1, 235900, Control_c, 0, 64, 57
1, 235904, Note_off_c, 0, 74, 61
1, 235910, Note_on_c, 0, 70, 65
1, 235915, Control_c, 0, 64, 61
1, 235930, Control_c, 0, 64, 64
1, 235944, Control_c, 0, 64, 68
1, 235959, Control_c, 0, 64, 74
1, 235972, Note_off_c, 0, 70, 63
1, 235974, Control_c, 0, 64, 83
1, 235979, Note_on_c, 0, 74, 70
1, 235989, Control_c, 0, 64, 97
1, 236004, Control_c, 0, 64, 127
1, 236047, Note_off_c, 0, 74, 62
1, 236072, Note_on_c, 0, 70, 70
1, 236078, Note_off_c, 0, 53, 35
1, 236088, Note_off_c, 0, 65, 45
1, 236142, Note_on_c, 0, 74, 67
1, 236143, Note_off_c, 0, 70, 60
1, 236175, Note_off_c, 0, 74, 63
1, 236181, Control_c, 0, 64, 99
1, 236196, Control_c, 0, 64, 78
1, 236211, Control_c, 0, 64, 65
1, 236226, Control_c, 0, 64, 53
1, 236241, Control_c, 0, 64, 49
1, 236245, Note_on_c, 0, 74, 63
1, 236256, Control_c, 0, 64, 54
1, 236271, Control_c, 0, 64, 58
1, 236285, Control_c, 0, 64, 63
1, 236300, Control_c, 0, 64, 66
1, 236315, Control_c, 0, 64, 70
1, 236319, Note_off_c, 0, 74, 62
1, 236329, Control_c, 0, 64, 76
1, 236332, Note_on_c, 0, 77, 66
1, 236344, Control_c, 0, 64, 84
1, 236359, Control_c, 0, 64, 96
1, 236374, Control_c, 0, 64, 115
1, 236389, Control_c, 0, 64, 127
1, 236422, Note_on_c, 0, 70, 64
1, 236472, Note_off_c, 0, 77, 50
1, 236484, Note_off_c, 0, 70, 59
1, 236500, Control_c, 0, 64, 115
1, 236510, Note_on_c, 0, 74, 61
1, 236515, Control_c, 0, 64, 97
1, 236529, Control_c, 0, 64, 78
1, 236544, Control_c, 0, 64, 66
1, 236559, Control_c, 0, 64, 56
1, 236569, Note_off_c, 0, 74, 55
1, 236574, Control_c, 0, 64, 54
1, 236585, Note_on_c, 0, 53, 30
1, 236589, Control_c, 0, 64, 57
1, 236593, Note_on_c, 0, 65, 28
1, 236603, Control_c, 0, 64, 60
1, 236604, Note_on_c, 0, 69, 58
1, 236618, Control_c, 0, 64, 64
1, 236634, Control_c, 0, 64, 67
1, 236649, Control_c, 0, 64, 71
1, 236657, Note_off_c, 0, 69, 52
1, 236664, Control_c, 0, 64, 77
1, 236679, Control_c, 0, 64, 86
1, 236691, Note_on_c, 0, 74, 51
1, 236694, Control_c, 0, 64, 99
1, 236708, Control_c, 0, 64, 127
1, 236754, Note_off_c, 0, 65, 52
1, 236757, Note_on_c, 0, 68, 58
1, 236759, Note_off_c, 0, 53, 43
1, 236760, Note_off_c, 0, 74, 56
1, 236837, Note_off_c, 0, 68, 56
1, 236856, Control_c, 0, 64, 118
1, 236871, Control_c, 0, 64, 111
1, 236873, Note_on_c, 0, 74, 48
1, 236885, Control_c, 0, 64, 101
1, 236900, Control_c, 0, 64, 84
1, 236912, Note_off_c, 0, 74, 60
1, 236915, Control_c, 0, 64, 70
1, 236930, Control_c, 0, 64, 58
1, 236938, Note_on_c, 0, 69, 51
1, 236945, Control_c, 0, 64, 46
1, 236959, Control_c, 0, 64, 49
1, 236974, Control_c, 0, 64, 55
1, 236989, Control_c, 0, 64, 61
1, 237004, Control_c, 0, 64, 64
1, 237019, Control_c, 0, 64, 67
1, 237021, Note_on_c, 0, 74, 52
1, 237022, Note_off_c, 0, 69, 51
1, 237034, Control_c, 0, 64, 70
1, 237049, Control_c, 0, 64, 75
1, 237064, Control_c, 0, 64, 81
1, 237078, Control_c, 0, 64, 86
1, 237093, Note_on_c, 0, 69, 47
1, 237093, Control_c, 0, 64, 88
1, 237103, Note_off_c, 0, 74, 55
1, 237138, Control_c, 0, 64, 88
1, 237180, Note_off_c, 0, 69, 58
1, 237182, Control_c, 0, 64, 86
1, 237197, Control_c, 0, 64, 79
1, 237199, Note_on_c, 0, 72, 53
1, 237212, Control_c, 0, 64, 68
1, 237234, Control_c, 0, 64, 58
1, 237248, Control_c, 0, 64, 49
1, 237257, Note_on_c, 0, 53, 39
1, 237259, Note_on_c, 0, 65, 37
1, 237263, Control_c, 0, 64, 52
1, 237268, Note_off_c, 0, 72, 59
1, 237278, Control_c, 0, 64, 57
1, 237291, Note_on_c, 0, 69, 53
1, 237293, Control_c, 0, 64, 62
1, 237308, Control_c, 0, 64, 66
1, 237323, Control_c, 0, 64, 70
1, 237338, Control_c, 0, 64, 77
1, 237341, Note_off_c, 0, 69, 62
1, 237343, Note_off_c, 0, 65, 63
1, 237352, Control_c, 0, 64, 87
1, 237365, Note_off_c, 0, 53, 58
1, 237367, Control_c, 0, 64, 101
1, 237376, Note_on_c, 0, 72, 59
1, 237382, Control_c, 0, 64, 107
1, 237412, Control_c, 0, 64, 105
1, 237427, Control_c, 0, 64, 103
1, 237436, Note_off_c, 0, 72, 54
1, 237442, Control_c, 0, 64, 101
1, 237457, Control_c, 0, 64, 99
1, 237460, Note_on_c, 0, 69, 65
1, 237472, Control_c, 0, 64, 95
1, 237487, Control_c, 0, 64, 93
1, 237501, Note_off_c, 0, 69, 59
1, 237501, Control_c, 0, 64, 89
1, 237516, Control_c, 0, 64, 85
1, 237531, Control_c, 0, 64, 81
1, 237535, Note_on_c, 0, 72, 46
1, 237546, Control_c, 0, 64, 78
1, 237561, Control_c, 0, 64, 75
1, 237566, Note_off_c, 0, 72, 52
1, 237575, Control_c, 0, 64, 73
1, 237590, Control_c, 0, 64, 70
1, 237605, Control_c, 0, 64, 68
1, 237620, Control_c, 0, 64, 66
1, 237627, Note_on_c, 0, 46, 42
1, 237635, Control_c, 0, 64, 65
1, 237650, Control_c, 0, 64, 65
1, 237654, Note_on_c, 0, 69, 49
1, 237664, Control_c, 0, 64, 63
1, 237679, Control_c, 0, 64, 62
1, 237694, Control_c, 0, 64, 60
1, 237708, Control_c, 0, 64, 60
1, 237714, Note_off_c, 0, 46, 62
1, 237723, Control_c, 0, 64, 58
1, 237724, Note_off_c, 0, 69, 59
1, 237736, Note_on_c, 0, 72, 43
1, 237738, Control_c, 0, 64, 56
1, 237753, Control_c, 0, 64, 53
1, 237768, Control_c, 0, 64, 51
1, 237779, Note_off_c, 0, 72, 61
1, 237782, Control_c, 0, 64, 50
1, 237797, Control_c, 0, 64, 49
1, 237812, Note_on_c, 0, 62, 51
1, 237812, Control_c, 0, 64, 47
1, 237827, Control_c, 0, 64, 45
1, 237842, Control_c, 0, 64, 44
1, 237857, Control_c, 0, 64, 42
1, 237871, Control_c, 0, 64, 40
1, 237886, Note_on_c, 0, 67, 56
1, 237886, Control_c, 0, 64, 38
1, 237892, Note_off_c, 0, 62, 55
1, 237901, Control_c, 0, 64, 36
1, 237916, Control_c, 0, 64, 34
1, 237931, Control_c, 0, 64, 33
1, 237946, Control_c, 0, 64, 32
1, 237958, Note_on_c, 0, 55, 35
1, 237961, Control_c, 0, 64, 31
1, 237979, Note_on_c, 0, 58, 35
1, 237982, Control_c, 0, 64, 30
1, 237991, Note_on_c, 0, 70, 60
1, 237997, Control_c, 0, 64, 29
1, 237998, Note_off_c, 0, 67, 56
1, 238012, Control_c, 0, 64, 28
1, 238027, Control_c, 0, 64, 27
1, 238041, Control_c, 0, 64, 26
1, 238047, Note_off_c, 0, 58, 64
1, 238051, Note_off_c, 0, 55, 63
1, 238056, Control_c, 0, 64, 25
1, 238062, Note_off_c, 0, 70, 63
1, 238066, Note_on_c, 0, 74, 72
1, 238071, Control_c, 0, 64, 24
1, 238086, Control_c, 0, 64, 23
1, 238101, Control_c, 0, 64, 21
1, 238116, Control_c, 0, 64, 19
1, 238131, Control_c, 0, 64, 17
1, 238146, Control_c, 0, 64, 17
1, 238153, Note_on_c, 0, 72, 74
1, 238161, Control_c, 0, 64, 13
1, 238176, Control_c, 0, 64, 11
1, 238183, Note_off_c, 0, 74, 62
1, 238190, Control_c, 0, 64, 9
1, 238205, Control_c, 0, 64, 0
1, 238237, Note_on_c, 0, 70, 70
1, 238261, Note_off_c, 0, 72, 59
1, 238295, Control_c, 0, 64, 11
1, 238307, Note_on_c, 0, 48, 51
1, 238310, Control_c, 0, 64, 29
1, 238322, Note_off_c, 0, 70, 64
1, 238323, Note_on_c, 0, 67, 74
1, 238324, Control_c, 0, 64, 45
1, 238339, Control_c, 0, 64, 55
1, 238354, Control_c, 0, 64, 57
1, 238369, Control_c, 0, 64, 56
1, 238375, Note_off_c, 0, 48, 63
1, 238384, Control_c, 0, 64, 55
1, 238393, Note_on_c, 0, 70, 66
1, 238394, Note_off_c, 0, 67, 62
1, 238398, Control_c, 0, 64, 54
1, 238413, Control_c, 0, 64, 52
1, 238428, Control_c, 0, 64, 49
1, 238443, Control_c, 0, 64, 47
1, 238458, Control_c, 0, 64, 46
1, 238471, Note_off_c, 0, 70, 60
1, 238473, Control_c, 0, 64, 45
1, 238485, Note_on_c, 0, 60, 70
1, 238487, Control_c, 0, 64, 43
1, 238502, Control_c, 0, 64, 41
1, 238517, Control_c, 0, 64, 40
1, 238531, Control_c, 0, 64, 38
1, 238546, Control_c, 0, 64, 37
1, 238560, Note_on_c, 0, 65, 68
1, 238561, Control_c, 0, 64, 35
1, 238567, Note_off_c, 0, 60, 61
1, 238576, Control_c, 0, 64, 32
1, 238591, Control_c, 0, 64, 30
1, 238605, Control_c, 0, 64, 29
1, 238620, Control_c, 0, 64, 28
1, 238635, Control_c, 0, 64, 26
1, 238650, Control_c, 0, 64, 23
1, 238653, Note_on_c, 0, 69, 65
1, 238658, Note_off_c, 0, 65, 60
1, 238658, Note_on_c, 0, 53, 43
1, 238661, Note_on_c, 0, 57, 42
1, 238665, Control_c, 0, 64, 18
1, 238679, Control_c, 0, 64, 12
1, 238694, Control_c, 0, 64, 0
1, 238715, Note_off_c, 0, 53, 63
1, 238715, Note_off_c, 0, 57, 64
1, 238727, Note_off_c, 0, 69, 64
1, 238745, Note_on_c, 0, 72, 60
1, 238822, Note_on_c, 0, 70, 60
1, 238846, Note_off_c, 0, 72, 61
1, 238904, Note_on_c, 0, 69, 56
1, 238909, Note_off_c, 0, 70, 62
1, 238970, Note_off_c, 0, 69, 58
1, 238989, Note_on_c, 0, 48, 46
1, 239001, Note_on_c, 0, 66, 49
1, 239043, Control_c, 0, 64, 38
1, 239056, Note_off_c, 0, 66, 61
1, 239058, Control_c, 0, 64, 54
1, 239064, Note_off_c, 0, 48, 64
1, 239073, Control_c, 0, 64, 60
1, 239086, Note_on_c, 0, 69, 56
1, 239088, Control_c, 0, 64, 64
1, 239103, Control_c, 0, 64, 66
1, 239118, Control_c, 0, 64, 67
1, 239132, Control_c, 0, 64, 65
1, 239146, Note_off_c, 0, 69, 53
1, 239147, Control_c, 0, 64, 63
1, 239162, Control_c, 0, 64, 57
1, 239171, Note_on_c, 0, 60, 54
1, 239177, Control_c, 0, 64, 47
1, 239192, Control_c, 0, 64, 24
1, 239207, Control_c, 0, 64, 0
1, 239232, Note_on_c, 0, 64, 50
1, 239234, Note_off_c, 0, 60, 56
1, 239321, Note_on_c, 0, 58, 45
1, 239322, Note_on_c, 0, 52, 45
1, 239327, Note_off_c, 0, 64, 60
1, 239337, Note_on_c, 0, 67, 49
1, 239403, Note_off_c, 0, 58, 64
1, 239403, Note_off_c, 0, 67, 62
1, 239407, Note_off_c, 0, 52, 64
1, 239416, Note_on_c, 0, 70, 56
1, 239493, Note_off_c, 0, 70, 59
1, 239509, Note_on_c, 0, 69, 51
1, 239602, Note_on_c, 0, 67, 46
1, 239619, Note_off_c, 0, 69, 38
1, 239662, Note_off_c, 0, 67, 54
1, 239674, Note_on_c, 0, 57, 35
1, 239678, Note_on_c, 0, 53, 37
1, 239696, Note_on_c, 0, 65, 40
1, 239717, Control_c, 0, 64, 39
1, 239732, Control_c, 0, 64, 59
1, 239738, Note_off_c, 0, 65, 65
1, 239741, Note_off_c, 0, 57, 65
1, 239746, Note_off_c, 0, 53, 63
1, 239747, Control_c, 0, 64, 67
1, 239761, Control_c, 0, 64, 78
1, 239776, Control_c, 0, 64, 102
1, 239791, Control_c, 0, 64, 127
1, 239891, Note_on_c, 0, 60, 54
1, 239892, Note_on_c, 0, 69, 49
1, 239896, Control_c, 0, 64, 92
1, 239911, Control_c, 0, 64, 70
1, 239925, Note_off_c, 0, 60, 65
1, 239925, Control_c, 0, 64, 46
1, 239940, Control_c, 0, 64, 0
1, 239946, Note_off_c, 0, 69, 57
1, 239988, Note_on_c, 0, 72, 38
1, 240037, Note_off_c, 0, 72, 61
1, 240047, Note_on_c, 0, 60, 65
1, 240071, Note_on_c, 0, 69, 47
1, 240084, Note_off_c, 0, 60, 63
1, 240112, Note_off_c, 0, 69, 63
1, 240152, Note_on_c, 0, 72, 41
1, 240183, Note_off_c, 0, 72, 56
1, 240208, Note_on_c, 0, 60, 79
1, 240223, Note_on_c, 0, 69, 52
1, 240250, Note_off_c, 0, 60, 65
1, 240266, Note_off_c, 0, 69, 61
1, 240288, Note_on_c, 0, 72, 50
1, 240364, Note_off_c, 0, 72, 54
1, 240391, Note_on_c, 0, 68, 52
1, 240393, Note_on_c, 0, 61, 73
1, 240470, Note_on_c, 0, 71, 51
1, 240473, Note_off_c, 0, 68, 56
1, 240554, Note_off_c, 0, 71, 61
1, 240566, Note_on_c, 0, 60, 61
1, 240573, Note_on_c, 0, 69, 56
1, 240581, Note_off_c, 0, 61, 62
1, 240613, Note_off_c, 0, 60, 62
1, 240620, Note_off_c, 0, 69, 60
1, 240659, Note_on_c, 0, 72, 39
1, 240688, Note_off_c, 0, 72, 59
1, 240742, Note_on_c, 0, 60, 61
1, 240743, Note_on_c, 0, 69, 50
1, 240780, Note_off_c, 0, 60, 63
1, 240787, Note_off_c, 0, 69, 62
1, 240799, Note_on_c, 0, 72, 44
1, 240871, Note_off_c, 0, 72, 54
1, 240891, Note_on_c, 0, 69, 53
1, 240903, Note_on_c, 0, 60, 60
1, 240936, Note_off_c, 0, 60, 64
1, 240938, Note_off_c, 0, 69, 61
1, 240978, Note_on_c, 0, 72, 38
1, 241027, Note_off_c, 0, 72, 62
1, 241071, Note_on_c, 0, 69, 52
1, 241082, Note_on_c, 0, 48, 44
1, 241097, Control_c, 0, 64, 30
1, 241112, Note_off_c, 0, 69, 65
1, 241112, Control_c, 0, 64, 54
1, 241121, Note_off_c, 0, 48, 62
1, 241126, Control_c, 0, 64, 64
1, 241141, Note_on_c, 0, 72, 54
1, 241141, Control_c, 0, 64, 73
1, 241156, Control_c, 0, 64, 99
1, 241171, Control_c, 0, 64, 127
1, 241180, Note_off_c, 0, 72, 62
1, 241238, Note_on_c, 0, 70, 56
1, 241253, Note_on_c, 0, 60, 50
1, 241260, Control_c, 0, 64, 90
1, 241274, Control_c, 0, 64, 66
1, 241282, Note_off_c, 0, 60, 61
1, 241289, Control_c, 0, 64, 24
1, 241293, Note_off_c, 0, 70, 55
1, 241304, Control_c, 0, 64, 0
1, 241316, Note_on_c, 0, 73, 61
1, 241401, Note_off_c, 0, 73, 60
1, 241403, Note_on_c, 0, 76, 69
1, 241414, Note_on_c, 0, 60, 46
1, 241449, Note_off_c, 0, 60, 63
1, 241479, Note_on_c, 0, 79, 79
1, 241502, Note_off_c, 0, 76, 61
1, 241569, Note_on_c, 0, 69, 76
1, 241571, Note_on_c, 0, 60, 52
1, 241598, Note_off_c, 0, 79, 59
1, 241604, Note_off_c, 0, 60, 64
1, 241630, Note_off_c, 0, 69, 64
1, 241635, Note_on_c, 0, 72, 72
1, 241693, Note_off_c, 0, 72, 61
1, 241729, Note_on_c, 0, 48, 55
1, 241733, Note_on_c, 0, 70, 76
1, 241756, Control_c, 0, 64, 22
1, 241771, Control_c, 0, 64, 53
1, 241773, Note_off_c, 0, 48, 61
1, 241786, Control_c, 0, 64, 62
1, 241801, Control_c, 0, 64, 68
1, 241815, Note_on_c, 0, 73, 78
1, 241815, Note_off_c, 0, 70, 63
1, 241816, Control_c, 0, 64, 78
1, 241830, Control_c, 0, 64, 127
1, 241896, Note_on_c, 0, 76, 78
1, 241907, Note_on_c, 0, 60, 60
1, 241920, Note_off_c, 0, 73, 63
1, 241920, Control_c, 0, 64, 101
1, 241934, Control_c, 0, 64, 74
1, 241940, Note_off_c, 0, 60, 64
1, 241949, Control_c, 0, 64, 56
1, 241964, Control_c, 0, 64, 0
1, 241970, Note_on_c, 0, 79, 86
1, 241973, Note_off_c, 0, 76, 65
1, 242057, Note_on_c, 0, 77, 87
1, 242064, Note_on_c, 0, 60, 50
1, 242094, Note_off_c, 0, 60, 63
1, 242097, Note_off_c, 0, 79, 64
1, 242137, Note_on_c, 0, 76, 80
1, 242161, Note_off_c, 0, 77, 61
1, 242210, Note_on_c, 0, 48, 70
1, 242212, Note_on_c, 0, 74, 84
1, 242218, Note_off_c, 0, 76, 64
1, 242220, Note_on_c, 0, 58, 61
1, 242221, Note_on_c, 0, 60, 48
1, 242246, Note_off_c, 0, 60, 58
1, 242247, Note_off_c, 0, 48, 61
1, 242252, Note_off_c, 0, 58, 64
1, 242289, Note_on_c, 0, 76, 77
1, 242307, Note_off_c, 0, 74, 59
1, 242385, Note_on_c, 0, 77, 79
1, 242388, Note_off_c, 0, 76, 61
1, 242396, Note_on_c, 0, 60, 44
1, 242397, Note_on_c, 0, 53, 59
1, 242399, Note_on_c, 0, 57, 55
1, 242409, Control_c, 0, 64, 48
1, 242422, Note_off_c, 0, 60, 62
1, 242424, Control_c, 0, 64, 63
1, 242429, Note_off_c, 0, 53, 65
1, 242430, Note_off_c, 0, 57, 65
1, 242430, Note_off_c, 0, 77, 63
1, 242439, Control_c, 0, 64, 71
1, 242453, Control_c, 0, 64, 87
1, 242476, Control_c, 0, 64, 127
1, 242577, Note_on_c, 0, 60, 51
1, 242592, Note_on_c, 0, 69, 55
1, 242609, Control_c, 0, 64, 90
1, 242615, Note_off_c, 0, 60, 65
1, 242624, Control_c, 0, 64, 67
1, 242635, Note_off_c, 0, 69, 62
1, 242639, Control_c, 0, 64, 21
1, 242653, Control_c, 0, 64, 0
1, 242669, Note_on_c, 0, 72, 47
1, 242714, Note_off_c, 0, 72, 62
1, 242736, Note_on_c, 0, 60, 76
1, 242757, Note_on_c, 0, 69, 58
1, 242774, Note_off_c, 0, 60, 65
1, 242794, Note_off_c, 0, 69, 64
1, 242818, Note_on_c, 0, 72, 51
1, 242864, Note_off_c, 0, 72, 60
1, 242897, Note_on_c, 0, 60, 80
1, 242898, Note_on_c, 0, 69, 53
1, 242932, Note_off_c, 0, 60, 65
1, 242940, Note_off_c, 0, 69, 61
1, 242973, Note_on_c, 0, 72, 42
1, 243032, Note_off_c, 0, 72, 55
1, 243061, Note_on_c, 0, 68, 47
1, 243072, Note_on_c, 0, 61, 77
1, 243133, Note_on_c, 0, 71, 58
1, 243136, Note_off_c, 0, 68, 57
1, 243207, Note_off_c, 0, 71, 57
1, 243240, Note_on_c, 0, 60, 68
1, 243252, Note_on_c, 0, 69, 56
1, 243259, Note_off_c, 0, 61, 61
1, 243294, Note_off_c, 0, 60, 64
1, 243297, Note_off_c, 0, 69, 59
1, 243314, Note_on_c, 0, 72, 58
1, 243353, Note_off_c, 0, 72, 61
1, 243416, Note_on_c, 0, 69, 58
1, 243418, Note_on_c, 0, 60, 71
1, 243485, Note_off_c, 0, 69, 59
1, 243496, Note_on_c, 0, 72, 54
1, 243570, Note_off_c, 0, 72, 59
1, 243575, Note_on_c, 0, 63, 63
1, 243598, Note_on_c, 0, 69, 56
1, 243601, Note_off_c, 0, 60, 63
1, 243645, Note_off_c, 0, 69, 57
1, 243660, Note_off_c, 0, 63, 60
1, 243671, Note_on_c, 0, 72, 52
1, 243713, Note_off_c, 0, 72, 63
1, 243757, Note_on_c, 0, 50, 50
1, 243769, Note_on_c, 0, 71, 61
1, 243786, Control_c, 0, 64, 35
1, 243801, Control_c, 0, 64, 57
1, 243806, Note_off_c, 0, 50, 60
1, 243815, Note_off_c, 0, 71, 62
1, 243816, Control_c, 0, 64, 65
1, 243831, Control_c, 0, 64, 71
1, 243845, Note_on_c, 0, 74, 58
1, 243846, Control_c, 0, 64, 84
1, 243861, Control_c, 0, 64, 108
1, 243876, Control_c, 0, 64, 127
1, 243883, Note_off_c, 0, 74, 61
1, 243920, Control_c, 0, 64, 98
1, 243929, Note_on_c, 0, 72, 65
1, 243930, Note_on_c, 0, 62, 53
1, 243935, Control_c, 0, 64, 83
1, 243950, Control_c, 0, 64, 72
1, 243972, Note_off_c, 0, 62, 63
1, 243972, Control_c, 0, 64, 61
1, 243987, Control_c, 0, 64, 32
1, 244001, Note_off_c, 0, 72, 61
1, 244002, Control_c, 0, 64, 0
1, 244005, Note_on_c, 0, 75, 73
1, 244089, Note_on_c, 0, 78, 82
1, 244101, Note_off_c, 0, 75, 61
1, 244105, Note_on_c, 0, 62, 60
1, 244140, Note_off_c, 0, 62, 64
1, 244163, Note_on_c, 0, 81, 83
1, 244194, Note_off_c, 0, 78, 62
1, 244251, Note_on_c, 0, 62, 60
1, 244254, Note_on_c, 0, 71, 82
1, 244286, Note_off_c, 0, 81, 62
1, 244286, Note_off_c, 0, 62, 63
1, 244326, Note_on_c, 0, 74, 78
1, 244339, Note_off_c, 0, 71, 63
1, 244405, Note_off_c, 0, 74, 62
1, 244412, Note_on_c, 0, 50, 66
1, 244421, Note_on_c, 0, 72, 82
1, 244447, Control_c, 0, 64, 46
1, 244462, Control_c, 0, 64, 59
1, 244477, Control_c, 0, 64, 65
1, 244484, Note_off_c, 0, 50, 59
1, 244491, Control_c, 0, 64, 71
1, 244493, Note_on_c, 0, 75, 85
1, 244506, Control_c, 0, 64, 87
1, 244521, Control_c, 0, 64, 127
1, 244528, Note_off_c, 0, 72, 61
1, 244580, Note_on_c, 0, 78, 86
1, 244590, Note_on_c, 0, 62, 67
1, 244611, Control_c, 0, 64, 109
1, 244614, Note_off_c, 0, 75, 61
1, 244625, Note_off_c, 0, 62, 63
1, 244626, Control_c, 0, 64, 76
1, 244640, Control_c, 0, 64, 59
1, 244653, Note_on_c, 0, 81, 91
1, 244655, Control_c, 0, 64, 0
1, 244665, Note_off_c, 0, 78, 65
1, 244754, Note_on_c, 0, 79, 86
1, 244757, Note_on_c, 0, 62, 70
1, 244790, Note_off_c, 0, 62, 63
1, 244798, Note_off_c, 0, 81, 65
1, 244834, Note_on_c, 0, 78, 86
1, 244863, Note_off_c, 0, 79, 63
1, 244906, Note_on_c, 0, 76, 83
1, 244912, Note_on_c, 0, 62, 62
1, 244915, Note_on_c, 0, 50, 48
1, 244915, Note_on_c, 0, 60, 60
1, 244918, Note_off_c, 0, 78, 63
1, 244948, Note_off_c, 0, 50, 51
1, 244950, Note_off_c, 0, 60, 66
1, 244957, Note_off_c, 0, 62, 52
1, 244983, Note_on_c, 0, 78, 77
1, 245016, Note_off_c, 0, 76, 60
1, 245076, Note_on_c, 0, 79, 87
1, 245080, Note_on_c, 0, 58, 69
1, 245082, Note_on_c, 0, 55, 70
1, 245083, Note_on_c, 0, 62, 63
1, 245107, Note_off_c, 0, 78, 65
1, 245107, Control_c, 0, 64, 61
1, 245110, Note_off_c, 0, 55, 65
1, 245112, Note_off_c, 0, 58, 67
1, 245113, Note_off_c, 0, 62, 66
1, 245121, Control_c, 0, 64, 71
1, 245124, Note_off_c, 0, 79, 66
1, 245136, Control_c, 0, 64, 92
1, 245151, Control_c, 0, 64, 127
1, 245270, Note_on_c, 0, 62, 73
1, 245270, Note_on_c, 0, 70, 73
1, 245285, Control_c, 0, 64, 108
1, 245300, Control_c, 0, 64, 82
1, 245302, Note_off_c, 0, 62, 63
1, 245314, Control_c, 0, 64, 65
1, 245329, Control_c, 0, 64, 29
1, 245331, Note_off_c, 0, 70, 62
1, 245332, Note_on_c, 0, 74, 61
1, 245344, Control_c, 0, 64, 0
1, 245420, Note_off_c, 0, 74, 61
1, 245431, Note_on_c, 0, 62, 82
1, 245447, Note_on_c, 0, 70, 64
1, 245479, Note_off_c, 0, 62, 63
1, 245501, Note_off_c, 0, 70, 61
1, 245520, Note_on_c, 0, 74, 60
1, 245589, Note_off_c, 0, 74, 58
1, 245601, Note_on_c, 0, 62, 81
1, 245620, Note_on_c, 0, 70, 55
1, 245648, Note_off_c, 0, 62, 62
1, 245661, Note_on_c, 0, 74, 44
1, 245661, Note_off_c, 0, 70, 63
1, 245765, Note_off_c, 0, 74, 58
1, 245769, Note_on_c, 0, 63, 81
1, 245778, Note_on_c, 0, 69, 66
1, 245855, Note_on_c, 0, 73, 57
1, 245864, Note_off_c, 0, 69, 58
1, 245941, Note_on_c, 0, 62, 64
1, 245943, Note_off_c, 0, 73, 58
1, 245953, Note_on_c, 0, 70, 60
1, 245968, Note_off_c, 0, 63, 62
1, 245992, Note_off_c, 0, 62, 61
1, 246009, Note_off_c, 0, 70, 60
1, 246027, Note_on_c, 0, 74, 54
1, 246110, Note_off_c, 0, 74, 58
1, 246111, Note_on_c, 0, 62, 69
1, 246129, Note_on_c, 0, 70, 60
1, 246148, Note_off_c, 0, 62, 61
1, 246169, Note_off_c, 0, 70, 60
1, 246189, Note_on_c, 0, 74, 43
1, 246257, Note_off_c, 0, 74, 58
1, 246288, Note_on_c, 0, 70, 55
1, 246293, Note_on_c, 0, 62, 50
1, 246308, Control_c, 0, 64, 31
1, 246323, Control_c, 0, 64, 54
1, 246336, Note_off_c, 0, 70, 59
1, 246338, Control_c, 0, 64, 62
1, 246340, Note_off_c, 0, 62, 61
1, 246352, Note_on_c, 0, 74, 54
1, 246352, Control_c, 0, 64, 66
1, 246367, Control_c, 0, 64, 71
1, 246382, Control_c, 0, 64, 80
1, 246386, Note_off_c, 0, 74, 66
1, 246397, Control_c, 0, 64, 95
1, 246412, Control_c, 0, 64, 108
1, 246427, Control_c, 0, 64, 111
1, 246442, Control_c, 0, 64, 110
1, 246456, Control_c, 0, 64, 109
1, 246469, Note_on_c, 0, 52, 43
1, 246471, Control_c, 0, 64, 108
1, 246484, Note_on_c, 0, 79, 73
1, 246486, Control_c, 0, 64, 105
1, 246501, Control_c, 0, 64, 92
1, 246516, Control_c, 0, 64, 76
1, 246531, Control_c, 0, 64, 62
1, 246545, Control_c, 0, 64, 31
1, 246560, Control_c, 0, 64, 0
1, 246575, Control_c, 0, 64, 28
1, 246590, Control_c, 0, 64, 49
1, 246605, Control_c, 0, 64, 58
1, 246611, Note_on_c, 0, 70, 35
1, 246619, Control_c, 0, 64, 62
1, 246634, Control_c, 0, 64, 65
1, 246649, Control_c, 0, 64, 70
1, 246664, Control_c, 0, 64, 78
1, 246679, Control_c, 0, 64, 100
1, 246692, Note_on_c, 0, 58, 45
1, 246693, Note_on_c, 0, 61, 44
1, 246693, Control_c, 0, 64, 127
1, 246699, Note_on_c, 0, 73, 58
1, 246704, Note_off_c, 0, 70, 37
1, 246768, Note_off_c, 0, 73, 52
1, 246775, Note_on_c, 0, 70, 38
1, 246816, Note_off_c, 0, 61, 36
1, 246821, Note_off_c, 0, 79, 34
1, 246859, Note_off_c, 0, 70, 50
1, 246862, Note_off_c, 0, 52, 39
1, 246867, Note_on_c, 0, 72, 54
1, 246869, Note_on_c, 0, 60, 45
1, 246920, Note_off_c, 0, 58, 37
1, 246922, Note_off_c, 0, 72, 57
1, 246930, Note_on_c, 0, 70, 24
1, 246997, Note_off_c, 0, 70, 58
1, 247017, Note_on_c, 0, 73, 60
1, 247029, Note_on_c, 0, 61, 39
1, 247040, Note_off_c, 0, 60, 37
1, 247094, Note_on_c, 0, 70, 56
1, 247102, Note_off_c, 0, 73, 52
1, 247160, Note_off_c, 0, 61, 46
1, 247163, Note_off_c, 0, 70, 60
1, 247198, Note_on_c, 0, 53, 58
1, 247205, Control_c, 0, 64, 107
1, 247208, Note_on_c, 0, 77, 83
1, 247220, Control_c, 0, 64, 79
1, 247235, Control_c, 0, 64, 61
1, 247249, Control_c, 0, 64, 36
1, 247264, Control_c, 0, 64, 30
1, 247279, Control_c, 0, 64, 45
1, 247294, Control_c, 0, 64, 55
1, 247294, Note_on_c, 0, 69, 59
1, 247309, Control_c, 0, 64, 61
1, 247323, Control_c, 0, 64, 66
1, 247338, Control_c, 0, 64, 72
1, 247353, Control_c, 0, 64, 84
1, 247366, Note_off_c, 0, 77, 59
1, 247367, Control_c, 0, 64, 127
1, 247378, Note_on_c, 0, 57, 57
1, 247381, Note_on_c, 0, 74, 68
1, 247381, Note_on_c, 0, 62, 60
1, 247390, Note_off_c, 0, 69, 60
1, 247463, Note_on_c, 0, 69, 66
1, 247469, Note_off_c, 0, 74, 61
1, 247547, Note_on_c, 0, 60, 70
1, 247547, Note_off_c, 0, 69, 62
1, 247553, Note_off_c, 0, 62, 58
1, 247557, Note_on_c, 0, 72, 80
1, 247593, Note_off_c, 0, 53, 51
1, 247604, Note_off_c, 0, 57, 62
1, 247627, Note_off_c, 0, 72, 64
1, 247670, Note_on_c, 0, 69, 49
1, 247704, Note_off_c, 0, 69, 61
1, 247714, Note_on_c, 0, 77, 91
1, 247722, Note_on_c, 0, 65, 66
1, 247744, Note_off_c, 0, 60, 63
1, 247773, Note_off_c, 0, 77, 61
1, 247783, Note_off_c, 0, 65, 42
1, 247816, Note_on_c, 0, 69, 53
1, 247849, Note_off_c, 0, 69, 61
1, 247908, Note_on_c, 0, 52, 66
1, 247917, Note_on_c, 0, 82, 92
1, 247925, Note_on_c, 0, 79, 70
1, 247953, Control_c, 0, 64, 111
1, 247968, Control_c, 0, 64, 83
1, 247984, Control_c, 0, 64, 64
1, 247998, Control_c, 0, 64, 43
1, 248013, Control_c, 0, 64, 0
1, 248017, Note_on_c, 0, 70, 59
1, 248018, Note_off_c, 0, 79, 60
1, 248043, Control_c, 0, 64, 16
1, 248058, Control_c, 0, 64, 30
1, 248072, Control_c, 0, 64, 45
1, 248087, Control_c, 0, 64, 55
1, 248102, Control_c, 0, 64, 61
1, 248103, Note_off_c, 0, 70, 62
1, 248105, Note_on_c, 0, 73, 71
1, 248113, Note_on_c, 0, 58, 50
1, 248117, Control_c, 0, 64, 65
1, 248123, Note_on_c, 0, 61, 54
1, 248132, Control_c, 0, 64, 70
1, 248147, Control_c, 0, 64, 80
1, 248162, Control_c, 0, 64, 114
1, 248176, Control_c, 0, 64, 127
1, 248181, Note_off_c, 0, 82, 57
1, 248186, Note_on_c, 0, 70, 61
1, 248188, Note_off_c, 0, 73, 63
1, 248191, Note_off_c, 0, 52, 56
1, 248269, Note_off_c, 0, 70, 61
1, 248276, Note_on_c, 0, 72, 70
1, 248279, Note_on_c, 0, 60, 56
1, 248288, Note_off_c, 0, 61, 37
1, 248301, Note_off_c, 0, 58, 53
1, 248331, Note_off_c, 0, 72, 64
1, 248355, Note_on_c, 0, 70, 59
1, 248416, Note_off_c, 0, 70, 59
1, 248429, Note_on_c, 0, 73, 70
1, 248440, Note_on_c, 0, 61, 52
1, 248445, Note_off_c, 0, 60, 56
1, 248528, Note_off_c, 0, 73, 60
1, 248532, Note_on_c, 0, 70, 50
1, 248570, Note_off_c, 0, 70, 61
1, 248583, Control_c, 0, 64, 121
1, 248598, Control_c, 0, 64, 110
1, 248610, Note_on_c, 0, 53, 53
1, 248614, Control_c, 0, 64, 95
1, 248623, Note_on_c, 0, 81, 76
1, 248629, Control_c, 0, 64, 74
1, 248644, Control_c, 0, 64, 59
1, 248644, Note_on_c, 0, 77, 56
1, 248645, Note_off_c, 0, 61, 38
1, 248659, Control_c, 0, 64, 0
1, 248723, Note_on_c, 0, 69, 53
1, 248748, Control_c, 0, 64, 11
1, 248762, Control_c, 0, 64, 39
1, 248777, Control_c, 0, 64, 52
1, 248785, Note_off_c, 0, 69, 54
1, 248792, Control_c, 0, 64, 58
1, 248805, Note_on_c, 0, 62, 48
1, 248807, Control_c, 0, 64, 63
1, 248809, Note_off_c, 0, 77, 57
1, 248815, Note_on_c, 0, 57, 44
1, 248817, Note_off_c, 0, 81, 56
1, 248820, Note_on_c, 0, 74, 46
1, 248821, Control_c, 0, 64, 67
1, 248836, Control_c, 0, 64, 74
1, 248851, Control_c, 0, 64, 88
1, 248866, Control_c, 0, 64, 123
1, 248868, Note_on_c, 0, 69, 51
1, 248868, Note_off_c, 0, 74, 61
1, 248881, Control_c, 0, 64, 127
1, 248928, Note_off_c, 0, 62, 52
1, 248960, Note_off_c, 0, 69, 55
1, 248969, Note_on_c, 0, 60, 52
1, 248971, Note_on_c, 0, 72, 59
1, 248995, Note_off_c, 0, 53, 37
1, 248996, Note_off_c, 0, 57, 60
1, 249032, Note_off_c, 0, 72, 60
1, 249137, Note_on_c, 0, 65, 57
1, 249140, Note_on_c, 0, 77, 64
1, 249148, Control_c, 0, 64, 123
1, 249157, Note_off_c, 0, 60, 54
1, 249161, Note_off_c, 0, 65, 63
1, 249162, Control_c, 0, 64, 113
1, 249177, Control_c, 0, 64, 109
1, 249178, Note_off_c, 0, 77, 61
1, 249192, Control_c, 0, 64, 107
1, 249212, Note_on_c, 0, 69, 35
1, 249214, Control_c, 0, 64, 107
1, 249229, Control_c, 0, 64, 106
1, 249242, Note_off_c, 0, 69, 54
1, 249244, Control_c, 0, 64, 103
1, 249259, Control_c, 0, 64, 99
1, 249273, Control_c, 0, 64, 94
1, 249288, Control_c, 0, 64, 85
1, 249302, Note_on_c, 0, 46, 57
1, 249303, Control_c, 0, 64, 75
1, 249317, Note_on_c, 0, 81, 64
1, 249318, Control_c, 0, 64, 66
1, 249333, Control_c, 0, 64, 52
1, 249341, Note_off_c, 0, 46, 64
1, 249347, Control_c, 0, 64, 0
1, 249386, Note_off_c, 0, 81, 64
1, 249409, Note_on_c, 0, 84, 45
1, 249453, Note_off_c, 0, 84, 55
1, 249493, Note_on_c, 0, 74, 58
1, 249496, Note_on_c, 0, 62, 54
1, 249500, Note_on_c, 0, 58, 50
1, 249568, Note_on_c, 0, 79, 69
1, 249571, Control_c, 0, 64, 37
1, 249578, Note_off_c, 0, 74, 58
1, 249585, Control_c, 0, 64, 56
1, 249600, Control_c, 0, 64, 65
1, 249615, Control_c, 0, 64, 73
1, 249621, Note_off_c, 0, 62, 61
1, 249628, Note_off_c, 0, 58, 62
1, 249630, Control_c, 0, 64, 88
1, 249644, Control_c, 0, 64, 127
1, 249656, Note_on_c, 0, 82, 77
1, 249681, Note_off_c, 0, 79, 60
1, 249726, Note_on_c, 0, 86, 82
1, 249733, Note_off_c, 0, 82, 64
1, 249733, Control_c, 0, 64, 113
1, 249748, Control_c, 0, 64, 95
1, 249762, Control_c, 0, 64, 85
1, 249777, Control_c, 0, 64, 78
1, 249792, Control_c, 0, 64, 73
1, 249807, Control_c, 0, 64, 69
1, 249815, Note_on_c, 0, 58, 53
1, 249818, Note_on_c, 0, 84, 86
1, 249822, Control_c, 0, 64, 66
1, 249827, Note_on_c, 0, 62, 39
1, 249837, Control_c, 0, 64, 64
1, 249847, Note_off_c, 0, 58, 65
1, 249852, Control_c, 0, 64, 62
1, 249855, Note_off_c, 0, 62, 53
1, 249856, Note_off_c, 0, 86, 64
1, 249867, Control_c, 0, 64, 59
1, 249882, Control_c, 0, 64, 55
1, 249896, Control_c, 0, 64, 50
1, 249900, Note_on_c, 0, 82, 84
1, 249911, Control_c, 0, 64, 46
1, 249926, Control_c, 0, 64, 40
1, 249937, Note_off_c, 0, 84, 61
1, 249941, Control_c, 0, 64, 28
1, 249962, Control_c, 0, 64, 0
1, 249990, Note_on_c, 0, 48, 60
1, 249996, Note_on_c, 0, 79, 76
1, 250001, Note_off_c, 0, 82, 64
1, 250026, Note_off_c, 0, 48, 63
1, 250061, Note_on_c, 0, 82, 80
1, 250065, Note_off_c, 0, 79, 65
1, 250137, Note_off_c, 0, 82, 63
1, 250154, Note_on_c, 0, 72, 75
1, 250155, Note_on_c, 0, 57, 60
1, 250159, Note_on_c, 0, 60, 52
1, 250223, Note_on_c, 0, 77, 82
1, 250233, Note_off_c, 0, 72, 59
1, 250245, Control_c, 0, 64, 26
1, 250260, Control_c, 0, 64, 53
1, 250275, Control_c, 0, 64, 62
1, 250290, Control_c, 0, 64, 67
1, 250291, Note_off_c, 0, 57, 63
1, 250305, Control_c, 0, 64, 74
1, 250310, Note_off_c, 0, 60, 61
1, 250311, Note_on_c, 0, 81, 82
1, 250320, Control_c, 0, 64, 82
1, 250326, Note_off_c, 0, 77, 63
1, 250334, Control_c, 0, 64, 87
1, 250349, Control_c, 0, 64, 87
1, 250364, Control_c, 0, 64, 84
1, 250378, Control_c, 0, 64, 81
1, 250389, Note_on_c, 0, 84, 87
1, 250393, Control_c, 0, 64, 78
1, 250394, Note_off_c, 0, 81, 66
1, 250408, Control_c, 0, 64, 74
1, 250423, Control_c, 0, 64, 70
1, 250438, Control_c, 0, 64, 66
1, 250452, Control_c, 0, 64, 62
1, 250467, Control_c, 0, 64, 56
1, 250468, Note_on_c, 0, 57, 58
1, 250472, Note_on_c, 0, 82, 75
1, 250476, Note_on_c, 0, 60, 49
1, 250482, Control_c, 0, 64, 50
1, 250496, Note_off_c, 0, 57, 66
1, 250497, Control_c, 0, 64, 46
1, 250502, Note_off_c, 0, 60, 60
1, 250512, Control_c, 0, 64, 41
1, 250522, Note_off_c, 0, 84, 62
1, 250526, Control_c, 0, 64, 33
1, 250541, Control_c, 0, 64, 20
1, 250549, Note_on_c, 0, 81, 71
1, 250556, Control_c, 0, 64, 0
1, 250577, Note_off_c, 0, 82, 64
1, 250636, Note_off_c, 0, 81, 61
1, 250639, Note_on_c, 0, 48, 67
1, 250650, Note_on_c, 0, 78, 61
1, 250672, Note_off_c, 0, 48, 67
1, 250719, Note_off_c, 0, 78, 61
1, 250749, Note_on_c, 0, 81, 47
1, 250813, Note_on_c, 0, 52, 60
1, 250815, Note_off_c, 0, 81, 56
1, 250830, Note_on_c, 0, 72, 48
1, 250838, Note_on_c, 0, 60, 45
1, 250861, Note_on_c, 0, 58, 45
1, 250890, Note_on_c, 0, 76, 56
1, 250956, Note_off_c, 0, 72, 37
1, 250972, Note_on_c, 0, 79, 64
1, 250977, Note_off_c, 0, 76, 62
1, 251038, Note_off_c, 0, 79, 64
1, 251054, Note_on_c, 0, 82, 67
1, 251141, Note_off_c, 0, 82, 60
1, 251142, Note_on_c, 0, 53, 57
1, 251145, Note_on_c, 0, 81, 65
1, 251164, Note_off_c, 0, 52, 64
1, 251198, Note_off_c, 0, 53, 60
1, 251213, Note_on_c, 0, 79, 66
1, 251244, Note_off_c, 0, 81, 59
1, 251280, Note_off_c, 0, 58, 0
1, 251303, Note_on_c, 0, 55, 61
1, 251303, Note_on_c, 0, 77, 72
1, 251303, Note_off_c, 0, 79, 63
1, 251317, Poly_aftertouch_c, 0, 58, 127
1, 251340, Poly_aftertouch_c, 0, 58, 0
1, 251349, Note_off_c, 0, 55, 60
1, 251353, Note_off_c, 0, 60, 22
1, 251369, Note_off_c, 0, 77, 63
1, 251375, Note_on_c, 0, 76, 74
1, 251470, Note_on_c, 0, 74, 83
1, 251471, Note_off_c, 0, 76, 0
1, 251476, Note_on_c, 0, 53, 65
1, 251477, Note_on_c, 0, 60, 55
1, 251511, Note_off_c, 0, 60, 62
1, 251521, Poly_aftertouch_c, 0, 76, 0
1, 251525, Note_off_c, 0, 53, 56
1, 251543, Note_on_c, 0, 73, 87
1, 251563, Note_off_c, 0, 74, 61
1, 251619, Note_off_c, 0, 73, 66
1, 251628, Note_on_c, 0, 72, 87
1, 251631, Note_on_c, 0, 58, 82
1, 251639, Note_on_c, 0, 50, 78
1, 251644, Note_on_c, 0, 60, 66
1, 251663, Note_off_c, 0, 60, 64
1, 251668, Note_off_c, 0, 58, 60
1, 251671, Note_off_c, 0, 50, 65
1, 251703, Note_on_c, 0, 70, 86
1, 251713, Note_off_c, 0, 72, 64
1, 251793, Note_on_c, 0, 69, 85
1, 251798, Note_on_c, 0, 48, 78
1, 251812, Note_on_c, 0, 60, 42
1, 251821, Note_on_c, 0, 58, 46
1, 251829, Note_off_c, 0, 70, 61
1, 251834, Note_off_c, 0, 48, 61
1, 251837, Note_off_c, 0, 60, 53
1, 251850, Note_off_c, 0, 58, 48
1, 251879, Note_on_c, 0, 67, 80
1, 251890, Note_off_c, 0, 69, 62
1, 251945, Note_off_c, 0, 67, 63
1, 251962, Note_on_c, 0, 60, 71
1, 251963, Note_on_c, 0, 53, 79
1, 251966, Note_on_c, 0, 57, 66
1, 251966, Note_on_c, 0, 65, 89
1, 251980, Control_c, 0, 64, 62
1, 251989, Note_off_c, 0, 60, 68
1, 251991, Note_off_c, 0, 53, 69
1, 251995, Note_off_c, 0, 57, 65
1, 251995, Control_c, 0, 64, 78
1, 251998, Note_off_c, 0, 65, 64
1, 252010, Control_c, 0, 64, 127
1, 252149, Note_on_c, 0, 41, 90
1, 252151, Note_on_c, 0, 53, 91
1, 252158, Control_c, 0, 64, 83
1, 252173, Control_c, 0, 64, 47
1, 252177, Note_off_c, 0, 41, 68
1, 252177, Note_off_c, 0, 53, 67
1, 252187, Control_c, 0, 64, 0
1, 252317, Note_on_c, 0, 41, 87
1, 252320, Note_on_c, 0, 53, 95
1, 252344, Note_off_c, 0, 41, 67
1, 252353, Note_off_c, 0, 53, 64
1, 252487, Note_on_c, 0, 41, 85
1, 252487, Note_on_c, 0, 53, 98
1, 252520, Note_off_c, 0, 41, 67
1, 252523, Note_off_c, 0, 53, 64
1, 252666, Note_on_c, 0, 52, 95
1, 252667, Note_on_c, 0, 40, 83
1, 252843, Note_on_c, 0, 53, 84
1, 252844, Note_on_c, 0, 41, 72
1, 252859, Note_off_c, 0, 40, 61
1, 252874, Note_off_c, 0, 52, 62
1, 252874, Note_off_c, 0, 41, 66
1, 252882, Note_off_c, 0, 53, 63
1, 253020, Note_on_c, 0, 53, 88
1, 253027, Note_on_c, 0, 41, 78
1, 253057, Note_off_c, 0, 53, 63
1, 253059, Note_off_c, 0, 41, 65
1, 253186, Note_on_c, 0, 41, 73
1, 253190, Note_on_c, 0, 53, 88
1, 253216, Note_off_c, 0, 41, 66
1, 253227, Note_off_c, 0, 53, 62
1, 253356, Note_on_c, 0, 42, 80
1, 253360, Note_on_c, 0, 54, 86
1, 253402, Control_c, 0, 64, 54
1, 253417, Control_c, 0, 64, 63
1, 253432, Control_c, 0, 64, 73
1, 253447, Control_c, 0, 64, 101
1, 253462, Control_c, 0, 64, 127
1, 253578, Note_off_c, 0, 54, 51
1, 253603, Note_on_c, 0, 55, 59
1, 253608, Note_off_c, 0, 42, 57
1, 253621, Note_on_c, 0, 43, 53
1, 253643, Note_on_c, 0, 57, 68
1, 253648, Note_off_c, 0, 55, 64
1, 253655, Note_off_c, 0, 43, 62
1, 253658, Note_on_c, 0, 45, 63
1, 253682, Note_off_c, 0, 57, 54
1, 253709, Note_on_c, 0, 43, 86
1, 253712, Note_on_c, 0, 55, 90
1, 253722, Note_off_c, 0, 45, 62
1, 253751, Control_c, 0, 64, 82
1, 253765, Control_c, 0, 64, 60
1, 253780, Control_c, 0, 64, 0
1, 253920, Note_on_c, 0, 45, 55
1, 253936, Note_on_c, 0, 57, 68
1, 253938, Note_off_c, 0, 55, 50
1, 253960, Note_off_c, 0, 43, 60
1, 253978, Note_on_c, 0, 58, 71
1, 253980, Note_on_c, 0, 46, 69
1, 254003, Note_off_c, 0, 45, 62
1, 254006, Note_off_c, 0, 57, 63
1, 254031, Note_on_c, 0, 48, 81
1, 254034, Note_on_c, 0, 60, 87
1, 254043, Note_off_c, 0, 46, 63
1, 254057, Note_off_c, 0, 48, 68
1, 254066, Note_off_c, 0, 58, 64
1, 254076, Control_c, 0, 64, 45
1, 254079, Note_off_c, 0, 60, 68
1, 254091, Control_c, 0, 64, 69
1, 254105, Control_c, 0, 64, 93
1, 254120, Control_c, 0, 64, 127
1, 254219, Note_on_c, 0, 55, 61
1, 254222, Note_on_c, 0, 48, 57
1, 254225, Note_on_c, 0, 64, 75
1, 254229, Note_on_c, 0, 58, 69
1, 254260, Note_off_c, 0, 55, 63
1, 254264, Note_off_c, 0, 58, 63
1, 254267, Note_off_c, 0, 48, 62
1, 254269, Control_c, 0, 64, 101
1, 254284, Control_c, 0, 64, 79
1, 254293, Note_off_c, 0, 64, 62
1, 254296, Note_on_c, 0, 67, 80
1, 254299, Control_c, 0, 64, 64
1, 254314, Control_c, 0, 64, 0
1, 254374, Note_on_c, 0, 58, 69
1, 254374, Note_on_c, 0, 72, 86
1, 254376, Note_on_c, 0, 55, 66
1, 254377, Note_on_c, 0, 48, 59
1, 254379, Note_off_c, 0, 67, 61
1, 254402, Note_off_c, 0, 58, 66
1, 254410, Note_off_c, 0, 55, 63
1, 254414, Note_off_c, 0, 48, 61
1, 254416, Note_off_c, 0, 72, 65
1, 254467, Note_on_c, 0, 76, 93
1, 254534, Note_on_c, 0, 48, 64
1, 254535, Note_on_c, 0, 58, 70
1, 254546, Note_on_c, 0, 79, 91
1, 254562, Note_off_c, 0, 76, 59
1, 254566, Note_off_c, 0, 58, 66
1, 254567, Note_off_c, 0, 48, 63
1, 254618, Note_on_c, 0, 84, 90
1, 254630, Note_off_c, 0, 79, 66
1, 254692, Note_off_c, 0, 84, 65
1, 254705, Note_on_c, 0, 77, 90
1, 254705, Note_on_c, 0, 57, 64
1, 254706, Control_c, 0, 64, 63
1, 254717, Note_on_c, 0, 52, 66
1, 254718, Note_on_c, 0, 53, 52
1, 254721, Control_c, 0, 64, 83
1, 254724, Note_off_c, 0, 77, 70
1, 254726, Note_off_c, 0, 57, 63
1, 254730, Note_on_c, 0, 55, 32
1, 254736, Control_c, 0, 64, 127
1, 254738, Note_off_c, 0, 52, 64
1, 254743, Note_off_c, 0, 53, 58
1, 254764, Note_off_c, 0, 55, 37
1, 254884, Note_on_c, 0, 53, 79
1, 254891, Note_on_c, 0, 41, 76
1, 254898, Control_c, 0, 64, 91
1, 254913, Control_c, 0, 64, 63
1, 254916, Note_off_c, 0, 53, 63
1, 254919, Note_off_c, 0, 41, 66
1, 254928, Control_c, 0, 64, 0
1, 255055, Note_on_c, 0, 41, 75
1, 255060, Note_on_c, 0, 53, 91
1, 255083, Note_off_c, 0, 41, 66
1, 255090, Note_off_c, 0, 53, 66
1, 255219, Note_on_c, 0, 41, 75
1, 255227, Note_on_c, 0, 53, 96
1, 255262, Note_off_c, 0, 41, 64
1, 255268, Note_off_c, 0, 53, 64
1, 255402, Note_on_c, 0, 40, 83
1, 255402, Note_on_c, 0, 52, 91
1, 255570, Note_on_c, 0, 41, 74
1, 255574, Note_on_c, 0, 53, 83
1, 255592, Note_off_c, 0, 52, 65
1, 255592, Note_off_c, 0, 40, 63
1, 255608, Note_off_c, 0, 41, 66
1, 255617, Note_off_c, 0, 53, 62
1, 255736, Note_on_c, 0, 53, 84
1, 255741, Note_on_c, 0, 41, 75
1, 255769, Note_off_c, 0, 53, 65
1, 255774, Note_off_c, 0, 41, 66
1, 255906, Note_on_c, 0, 41, 74
1, 255910, Note_on_c, 0, 53, 81
1, 255939, Note_off_c, 0, 53, 68
1, 255943, Note_off_c, 0, 41, 66
1, 256086, Note_on_c, 0, 42, 82
1, 256087, Note_on_c, 0, 54, 82
1, 256117, Control_c, 0, 64, 50
1, 256132, Control_c, 0, 64, 64
1, 256146, Control_c, 0, 64, 79
1, 256161, Control_c, 0, 64, 127
1, 256293, Note_off_c, 0, 42, 53
1, 256300, Note_off_c, 0, 54, 59
1, 256337, Note_on_c, 0, 43, 41
1, 256344, Note_on_c, 0, 55, 39
1, 256359, Note_on_c, 0, 45, 68
1, 256359, Note_on_c, 0, 57, 74
1, 256371, Note_off_c, 0, 43, 51
1, 256374, Note_off_c, 0, 55, 59
1, 256387, Note_off_c, 0, 45, 65
1, 256392, Note_off_c, 0, 57, 61
1, 256416, Note_on_c, 0, 43, 78
1, 256427, Note_on_c, 0, 55, 93
1, 256457, Control_c, 0, 64, 101
1, 256472, Control_c, 0, 64, 77
1, 256487, Control_c, 0, 64, 61
1, 256502, Control_c, 0, 64, 0
1, 256639, Note_off_c, 0, 55, 56
1, 256641, Note_on_c, 0, 57, 65
1, 256642, Note_on_c, 0, 45, 57
1, 256669, Note_off_c, 0, 43, 60
1, 256690, Note_on_c, 0, 58, 73
1, 256693, Note_on_c, 0, 46, 69
1, 256723, Note_off_c, 0, 57, 63
1, 256726, Note_off_c, 0, 45, 61
1, 256756, Note_on_c, 0, 48, 75
1, 256759, Note_on_c, 0, 60, 86
1, 256767, Note_off_c, 0, 46, 62
1, 256784, Note_off_c, 0, 58, 64
1, 256785, Note_off_c, 0, 48, 69
1, 256804, Note_off_c, 0, 60, 66
1, 256806, Control_c, 0, 64, 61
1, 256821, Control_c, 0, 64, 77
1, 256836, Control_c, 0, 64, 127
1, 256948, Note_on_c, 0, 52, 54
1, 256953, Note_on_c, 0, 61, 70
1, 256955, Note_on_c, 0, 45, 55
1, 256955, Note_on_c, 0, 55, 59
1, 256985, Note_off_c, 0, 52, 62
1, 256989, Note_off_c, 0, 55, 63
1, 256993, Note_off_c, 0, 45, 61
1, 256999, Control_c, 0, 64, 118
1, 257014, Control_c, 0, 64, 89
1, 257015, Note_off_c, 0, 61, 63
1, 257024, Note_on_c, 0, 64, 73
1, 257028, Control_c, 0, 64, 76
1, 257043, Control_c, 0, 64, 67
1, 257058, Control_c, 0, 64, 61
1, 257073, Control_c, 0, 64, 55
1, 257088, Control_c, 0, 64, 49
1, 257100, Note_off_c, 0, 64, 63
1, 257102, Control_c, 0, 64, 43
1, 257104, Note_on_c, 0, 69, 72
1, 257107, Note_on_c, 0, 55, 52
1, 257110, Note_on_c, 0, 52, 46
1, 257116, Note_on_c, 0, 45, 43
1, 257117, Control_c, 0, 64, 36
1, 257129, Note_off_c, 0, 69, 69
1, 257132, Control_c, 0, 64, 21
1, 257144, Note_off_c, 0, 52, 56
1, 257144, Note_off_c, 0, 55, 62
1, 257147, Control_c, 0, 64, 0
1, 257148, Note_off_c, 0, 45, 59
1, 257184, Note_on_c, 0, 73, 78
1, 257227, Note_off_c, 0, 73, 59
1, 257256, Note_on_c, 0, 45, 42
1, 257257, Note_on_c, 0, 55, 51
1, 257259, Note_on_c, 0, 76, 74
1, 257266, Note_on_c, 0, 52, 27
1, 257289, Note_off_c, 0, 45, 62
1, 257292, Note_off_c, 0, 55, 64
1, 257302, Note_off_c, 0, 52, 44
1, 257335, Note_on_c, 0, 81, 75
1, 257344, Note_off_c, 0, 76, 63
1, 257421, Note_off_c, 0, 81, 66
1, 257436, Note_on_c, 0, 74, 71
1, 257438, Note_on_c, 0, 50, 54
1, 257439, Note_on_c, 0, 53, 49
1, 257451, Control_c, 0, 64, 44
1, 257466, Control_c, 0, 64, 65
1, 257469, Note_off_c, 0, 74, 68
1, 257473, Note_off_c, 0, 53, 58
1, 257475, Note_off_c, 0, 50, 65
1, 257481, Control_c, 0, 64, 85
1, 257496, Control_c, 0, 64, 127
1, 257647, Note_on_c, 0, 62, 70
1, 257672, Note_on_c, 0, 53, 35
1, 257674, Control_c, 0, 64, 93
1, 257678, Note_on_c, 0, 50, 29
1, 257683, Note_off_c, 0, 62, 64
1, 257689, Control_c, 0, 64, 72
1, 257703, Control_c, 0, 64, 56
1, 257704, Note_off_c, 0, 53, 52
1, 257714, Note_off_c, 0, 50, 43
1, 257718, Control_c, 0, 64, 0
1, 257808, Note_on_c, 0, 50, 60
1, 257812, Note_on_c, 0, 62, 78
1, 257817, Note_on_c, 0, 46, 52
1, 257820, Note_on_c, 0, 53, 58
1, 257837, Note_off_c, 0, 50, 65
1, 257845, Note_off_c, 0, 46, 59
1, 257852, Note_off_c, 0, 53, 64
1, 257859, Note_off_c, 0, 62, 59
1, 257972, Note_on_c, 0, 62, 83
1, 257979, Note_on_c, 0, 46, 38
1, 257979, Note_on_c, 0, 50, 53
1, 257991, Note_on_c, 0, 53, 53
1, 258013, Note_off_c, 0, 50, 60
1, 258014, Note_off_c, 0, 46, 54
1, 258018, Note_off_c, 0, 53, 62
1, 258022, Note_off_c, 0, 62, 62
1, 258151, Note_on_c, 0, 61, 71
1, 258158, Note_on_c, 0, 45, 50
1, 258158, Note_on_c, 0, 49, 51
1, 258168, Note_on_c, 0, 53, 49
1, 258333, Note_on_c, 0, 62, 73
1, 258341, Note_off_c, 0, 49, 63
1, 258342, Note_on_c, 0, 50, 43
1, 258344, Note_off_c, 0, 45, 49
1, 258346, Note_on_c, 0, 46, 53
1, 258361, Note_off_c, 0, 61, 62
1, 258367, Note_off_c, 0, 53, 54
1, 258377, Note_off_c, 0, 50, 60
1, 258383, Note_off_c, 0, 46, 64
1, 258389, Note_off_c, 0, 62, 62
1, 258510, Note_on_c, 0, 46, 56
1, 258510, Note_on_c, 0, 62, 75
1, 258512, Note_on_c, 0, 50, 60
1, 258516, Note_on_c, 0, 53, 63
1, 258543, Note_off_c, 0, 50, 64
1, 258548, Note_off_c, 0, 53, 65
1, 258550, Note_off_c, 0, 46, 62
1, 258562, Note_off_c, 0, 62, 60
1, 258674, Note_on_c, 0, 62, 85
1, 258675, Note_on_c, 0, 46, 68
1, 258677, Note_on_c, 0, 50, 67
1, 258681, Note_on_c, 0, 53, 66
1, 258705, Note_off_c, 0, 50, 66
1, 258707, Note_off_c, 0, 46, 65
1, 258710, Note_off_c, 0, 53, 65
1, 258727, Note_off_c, 0, 62, 63
1, 258853, Note_on_c, 0, 50, 77
1, 258853, Note_on_c, 0, 62, 86
1, 258855, Note_on_c, 0, 47, 74
1, 258859, Note_on_c, 0, 56, 76
1, 258866, Control_c, 0, 64, 33
1, 258881, Control_c, 0, 64, 62
1, 258896, Control_c, 0, 64, 73
1, 258911, Control_c, 0, 64, 113
1, 258926, Control_c, 0, 64, 127
1, 258939, Note_off_c, 0, 56, 59
1, 258994, Note_off_c, 0, 47, 53
1, 259059, Note_off_c, 0, 50, 56
1, 259090, Note_on_c, 0, 51, 61
1, 259094, Note_off_c, 0, 62, 49
1, 259101, Note_on_c, 0, 63, 60
1, 259125, Note_off_c, 0, 51, 64
1, 259134, Note_on_c, 0, 53, 67
1, 259139, Note_on_c, 0, 65, 72
1, 259161, Note_off_c, 0, 63, 61
1, 259170, Control_c, 0, 64, 119
1, 259185, Control_c, 0, 64, 73
1, 259191, Note_on_c, 0, 51, 81
1, 259197, Note_off_c, 0, 53, 61
1, 259198, Note_on_c, 0, 63, 78
1, 259199, Note_on_c, 0, 48, 73
1, 259200, Control_c, 0, 64, 34
1, 259207, Note_on_c, 0, 55, 82
1, 259216, Control_c, 0, 64, 0
1, 259225, Note_off_c, 0, 65, 63
1, 259275, Control_c, 0, 64, 40
1, 259290, Control_c, 0, 64, 60
1, 259304, Control_c, 0, 64, 69
1, 259313, Note_off_c, 0, 48, 61
1, 259313, Note_off_c, 0, 55, 46
1, 259319, Control_c, 0, 64, 84
1, 259334, Control_c, 0, 64, 127
1, 259361, Note_on_c, 0, 53, 50
1, 259374, Note_off_c, 0, 51, 58
1, 259417, Note_off_c, 0, 53, 63
1, 259419, Note_on_c, 0, 65, 62
1, 259438, Note_on_c, 0, 54, 63
1, 259454, Note_on_c, 0, 66, 72
1, 259474, Note_off_c, 0, 54, 65
1, 259476, Note_off_c, 0, 63, 54
1, 259483, Note_off_c, 0, 65, 58
1, 259497, Control_c, 0, 64, 83
1, 259512, Control_c, 0, 64, 47
1, 259527, Control_c, 0, 64, 0
1, 259529, Note_off_c, 0, 66, 46
1, 259540, Note_on_c, 0, 41, 69
1, 259546, Note_on_c, 0, 65, 77
1, 259551, Note_on_c, 0, 57, 78
1, 259552, Note_on_c, 0, 63, 76
1, 259556, Note_on_c, 0, 48, 66
1, 259570, Note_off_c, 0, 41, 65
1, 259571, Control_c, 0, 64, 59
1, 259574, Note_off_c, 0, 57, 68
1, 259577, Note_off_c, 0, 48, 62
1, 259581, Note_off_c, 0, 63, 67
1, 259586, Control_c, 0, 64, 78
1, 259597, Note_off_c, 0, 65, 65
1, 259601, Control_c, 0, 64, 127
1, 259739, Note_on_c, 0, 60, 57
1, 259745, Note_on_c, 0, 69, 85
1, 259752, Note_on_c, 0, 53, 58
1, 259754, Note_on_c, 0, 63, 62
1, 259771, Control_c, 0, 64, 113
1, 259781, Note_off_c, 0, 63, 65
1, 259786, Control_c, 0, 64, 92
1, 259799, Note_off_c, 0, 60, 62
1, 259802, Note_off_c, 0, 53, 62
1, 259802, Control_c, 0, 64, 78
1, 259817, Control_c, 0, 64, 67
1, 259820, Note_on_c, 0, 72, 86
1, 259826, Note_off_c, 0, 69, 63
1, 259832, Control_c, 0, 64, 59
1, 259846, Control_c, 0, 64, 49
1, 259861, Control_c, 0, 64, 41
1, 259876, Control_c, 0, 64, 13
1, 259891, Control_c, 0, 64, 0
1, 259898, Note_on_c, 0, 77, 90
1, 259902, Note_on_c, 0, 53, 60
1, 259902, Note_on_c, 0, 60, 64
1, 259905, Note_on_c, 0, 63, 59
1, 259906, Note_off_c, 0, 72, 65
1, 259933, Note_off_c, 0, 77, 67
1, 259935, Note_off_c, 0, 63, 63
1, 259939, Note_off_c, 0, 60, 61
1, 259945, Note_off_c, 0, 53, 59
1, 259978, Note_on_c, 0, 81, 92
1, 260049, Note_on_c, 0, 63, 63
1, 260049, Note_on_c, 0, 84, 92
1, 260058, Note_on_c, 0, 53, 49
1, 260064, Note_on_c, 0, 60, 43
1, 260067, Note_off_c, 0, 81, 63
1, 260083, Note_off_c, 0, 53, 57
1, 260085, Note_off_c, 0, 63, 63
1, 260094, Note_off_c, 0, 60, 35
1, 260118, Note_on_c, 0, 89, 92
1, 260125, Note_off_c, 0, 84, 64
1, 260199, Note_off_c, 0, 89, 64
1, 260201, Control_c, 0, 64, 62
1, 260205, Note_on_c, 0, 58, 74
1, 260205, Note_on_c, 0, 82, 91
1, 260207, Note_on_c, 0, 62, 58
1, 260216, Control_c, 0, 64, 94
1, 260224, Note_off_c, 0, 82, 70
1, 260231, Note_off_c, 0, 62, 60
1, 260231, Control_c, 0, 64, 127
1, 260233, Note_off_c, 0, 58, 67
1, 260390, Note_on_c, 0, 62, 86
1, 260392, Note_on_c, 0, 50, 73
1, 260395, Note_on_c, 0, 46, 71
1, 260399, Note_on_c, 0, 53, 73
1, 260417, Note_off_c, 0, 50, 66
1, 260424, Control_c, 0, 64, 92
1, 260427, Note_off_c, 0, 46, 65
1, 260428, Note_off_c, 0, 53, 66
1, 260446, Note_off_c, 0, 62, 61
1, 260446, Control_c, 0, 64, 64
1, 260461, Control_c, 0, 64, 0
1, 260561, Note_on_c, 0, 50, 73
1, 260565, Note_on_c, 0, 62, 88
1, 260565, Note_on_c, 0, 46, 70
1, 260572, Note_on_c, 0, 53, 71
1, 260587, Note_off_c, 0, 50, 66
1, 260595, Note_off_c, 0, 46, 66
1, 260602, Note_off_c, 0, 53, 65
1, 260614, Note_off_c, 0, 62, 64
1, 260720, Note_on_c, 0, 50, 74
1, 260723, Note_on_c, 0, 46, 67
1, 260723, Note_on_c, 0, 62, 97
1, 260738, Note_on_c, 0, 53, 74
1, 260761, Note_off_c, 0, 50, 63
1, 260766, Note_off_c, 0, 53, 66
1, 260781, Note_off_c, 0, 62, 63
1, 260787, Note_off_c, 0, 46, 57
1, 260897, Note_on_c, 0, 45, 74
1, 260898, Note_on_c, 0, 49, 74
1, 260907, Note_on_c, 0, 61, 97
1, 260923, Note_on_c, 0, 53, 77
1, 261081, Note_on_c, 0, 46, 66
1, 261082, Note_off_c, 0, 45, 62
1, 261087, Note_on_c, 0, 50, 60
1, 261091, Note_on_c, 0, 62, 84
1, 261104, Note_off_c, 0, 49, 65
1, 261118, Note_off_c, 0, 50, 64
1, 261118, Note_off_c, 0, 53, 64
1, 261119, Note_off_c, 0, 61, 61
1, 261124, Note_off_c, 0, 46, 64
1, 261144, Note_off_c, 0, 62, 65
1, 261266, Note_on_c, 0, 46, 72
1, 261269, Note_on_c, 0, 62, 93
1, 261272, Note_on_c, 0, 50, 74
1, 261279, Note_on_c, 0, 53, 76
1, 261301, Note_off_c, 0, 50, 65
1, 261304, Note_off_c, 0, 46, 65
1, 261307, Note_off_c, 0, 53, 64
1, 261322, Note_off_c, 0, 62, 63
1, 261430, Note_on_c, 0, 50, 77
1, 261433, Note_on_c, 0, 62, 94
1, 261435, Note_on_c, 0, 46, 74
1, 261437, Note_on_c, 0, 53, 74
1, 261461, Note_off_c, 0, 50, 67
1, 261465, Note_off_c, 0, 53, 66
1, 261469, Note_off_c, 0, 46, 65
1, 261483, Note_off_c, 0, 62, 65
1, 261630, Note_on_c, 0, 44, 71
1, 261633, Note_on_c, 0, 53, 73
1, 261635, Note_on_c, 0, 68, 97
1, 261641, Note_on_c, 0, 50, 57
1, 261651, Note_on_c, 0, 59, 70
1, 261669, Control_c, 0, 64, 33
1, 261683, Control_c, 0, 64, 59
1, 261698, Control_c, 0, 64, 70
1, 261713, Control_c, 0, 64, 97
1, 261714, Note_off_c, 0, 59, 50
1, 261728, Control_c, 0, 64, 127
1, 261746, Note_off_c, 0, 50, 56
1, 261765, Note_off_c, 0, 44, 59
1, 261766, Note_off_c, 0, 53, 56
1, 261775, Note_off_c, 0, 68, 59
1, 261841, Note_on_c, 0, 50, 54
1, 261845, Note_on_c, 0, 67, 88
1, 261846, Note_on_c, 0, 43, 63
1, 261846, Note_on_c, 0, 53, 53
1, 261853, Note_on_c, 0, 59, 71
1, 261855, Note_on_c, 0, 62, 70
1, 261878, Note_off_c, 0, 50, 62
1, 261878, Note_off_c, 0, 53, 64
1, 261878, Note_off_c, 0, 59, 68
1, 261882, Note_off_c, 0, 43, 59
1, 261884, Note_off_c, 0, 62, 67
1, 261891, Control_c, 0, 64, 87
1, 261905, Note_off_c, 0, 67, 62
1, 261906, Control_c, 0, 64, 70
1, 261921, Control_c, 0, 64, 53
1, 261943, Control_c, 0, 64, 0
1, 262019, Note_on_c, 0, 67, 82
1, 262023, Note_on_c, 0, 62, 70
1, 262026, Note_on_c, 0, 50, 65
1, 262027, Note_on_c, 0, 43, 61
1, 262031, Note_on_c, 0, 53, 61
1, 262036, Note_on_c, 0, 59, 57
1, 262053, Note_off_c, 0, 62, 66
1, 262053, Note_off_c, 0, 50, 65
1, 262058, Note_off_c, 0, 53, 63
1, 262058, Note_off_c, 0, 59, 60
1, 262059, Note_off_c, 0, 43, 62
1, 262073, Note_off_c, 0, 67, 62
1, 262187, Note_on_c, 0, 50, 56
1, 262188, Note_on_c, 0, 67, 80
1, 262189, Note_on_c, 0, 43, 62
1, 262192, Note_on_c, 0, 53, 57
1, 262192, Note_on_c, 0, 59, 62
1, 262192, Note_on_c, 0, 62, 74
1, 262216, Note_off_c, 0, 50, 65
1, 262219, Note_off_c, 0, 62, 68
1, 262220, Note_off_c, 0, 59, 65
1, 262221, Note_off_c, 0, 43, 61
1, 262222, Note_off_c, 0, 53, 65
1, 262243, Note_off_c, 0, 67, 62
1, 262362, Note_on_c, 0, 64, 81
1, 262363, Note_on_c, 0, 53, 30
1, 262366, Note_on_c, 0, 60, 72
1, 262374, Control_c, 0, 64, 53
1, 262377, Note_on_c, 0, 50, 39
1, 262388, Control_c, 0, 64, 65
1, 262392, Note_off_c, 0, 60, 67
1, 262400, Note_off_c, 0, 53, 44
1, 262403, Control_c, 0, 64, 74
1, 262404, Note_off_c, 0, 64, 62
1, 262410, Note_off_c, 0, 50, 44
1, 262418, Control_c, 0, 64, 99
1, 262433, Control_c, 0, 64, 127
1, 262477, Control_c, 0, 64, 110
1, 262492, Control_c, 0, 64, 88
1, 262506, Control_c, 0, 64, 78
1, 262521, Control_c, 0, 64, 79
1, 262536, Control_c, 0, 64, 82
1, 262543, Note_on_c, 0, 64, 77
1, 262551, Control_c, 0, 64, 88
1, 262566, Control_c, 0, 64, 100
1, 262580, Control_c, 0, 64, 127
1, 262607, Note_on_c, 0, 67, 85
1, 262607, Note_off_c, 0, 64, 62
1, 262618, Poly_aftertouch_c, 0, 60, 0
1, 262699, Note_off_c, 0, 67, 62
1, 262700, Note_on_c, 0, 72, 90
1, 262711, Note_on_c, 0, 60, 64
1, 262732, Note_off_c, 0, 72, 68
1, 262733, Note_off_c, 0, 60, 64
1, 262777, Note_on_c, 0, 76, 88
1, 262847, Note_on_c, 0, 79, 89
1, 262855, Note_off_c, 0, 76, 62
1, 262868, Note_on_c, 0, 60, 17
1, 262889, Note_on_c, 0, 59, 5
1, 262893, Note_off_c, 0, 60, 56
1, 262910, Note_off_c, 0, 79, 67
1, 262911, Note_on_c, 0, 84, 76
1, 262918, Note_on_c, 0, 83, 70
1, 262932, Note_off_c, 0, 84, 71
1, 262942, Note_off_c, 0, 59, 36
1, 262944, Note_off_c, 0, 83, 68
1, 263034, Control_c, 0, 64, 105
1, 263049, Control_c, 0, 64, 69
1, 263057, Note_on_c, 0, 46, 72
1, 263059, Note_on_c, 0, 55, 73
1, 263061, Note_on_c, 0, 70, 96
1, 263064, Control_c, 0, 64, 0
1, 263069, Note_on_c, 0, 52, 52
1, 263075, Note_on_c, 0, 61, 76
1, 263102, Note_on_c, 0, 64, 24
1, 263102, Note_on_c, 0, 71, 43
1, 263104, Note_on_c, 0, 72, 59
1, 263108, Control_c, 0, 64, 31
1, 263123, Control_c, 0, 64, 58
1, 263133, Note_off_c, 0, 64, 49
1, 263138, Control_c, 0, 64, 69
1, 263151, Note_off_c, 0, 72, 55
1, 263153, Control_c, 0, 64, 90
1, 263155, Note_off_c, 0, 71, 53
1, 263167, Note_off_c, 0, 52, 55
1, 263167, Control_c, 0, 64, 127
1, 263171, Note_off_c, 0, 61, 54
1, 263182, Note_off_c, 0, 55, 56
1, 263188, Note_off_c, 0, 70, 61
1, 263194, Note_off_c, 0, 46, 60
1, 263248, Note_on_c, 0, 52, 62
1, 263251, Note_on_c, 0, 69, 87
1, 263252, Note_on_c, 0, 64, 59
1, 263254, Note_on_c, 0, 55, 54
1, 263257, Note_on_c, 0, 45, 63
1, 263264, Note_on_c, 0, 61, 64
1, 263278, Note_off_c, 0, 52, 65
1, 263280, Note_off_c, 0, 55, 64
1, 263283, Note_off_c, 0, 64, 65
1, 263286, Control_c, 0, 64, 86
1, 263290, Note_off_c, 0, 45, 63
1, 263295, Note_off_c, 0, 61, 62
1, 263301, Control_c, 0, 64, 63
1, 263308, Note_off_c, 0, 69, 61
1, 263316, Control_c, 0, 64, 0
1, 263419, Note_on_c, 0, 52, 69
1, 263419, Note_on_c, 0, 69, 83
1, 263424, Note_on_c, 0, 55, 59
1, 263426, Note_on_c, 0, 64, 57
1, 263427, Note_on_c, 0, 45, 58
1, 263431, Note_on_c, 0, 61, 61
1, 263463, Note_off_c, 0, 55, 65
1, 263463, Note_off_c, 0, 64, 66
1, 263463, Note_off_c, 0, 52, 63
1, 263469, Note_off_c, 0, 45, 63
1, 263471, Note_off_c, 0, 61, 64
1, 263484, Note_off_c, 0, 69, 61
1, 263597, Note_on_c, 0, 69, 81
1, 263598, Note_on_c, 0, 61, 74
1, 263600, Note_on_c, 0, 45, 61
1, 263600, Note_on_c, 0, 52, 48
1, 263603, Note_on_c, 0, 64, 60
1, 263624, Note_on_c, 0, 55, 32
1, 263626, Note_off_c, 0, 52, 57
1, 263628, Note_off_c, 0, 61, 66
1, 263630, Note_off_c, 0, 64, 66
1, 263641, Note_off_c, 0, 45, 64
1, 263656, Note_off_c, 0, 69, 61
1, 263658, Note_off_c, 0, 55, 32
1, 263755, Note_on_c, 0, 50, 56
1, 263764, Note_on_c, 0, 54, 67
1, 263766, Control_c, 0, 64, 57
1, 263769, Note_on_c, 0, 66, 90
1, 263773, Note_on_c, 0, 62, 77
1, 263781, Control_c, 0, 64, 71
1, 263787, Note_off_c, 0, 50, 64
1, 263792, Note_off_c, 0, 54, 68
1, 263796, Control_c, 0, 64, 127
1, 263799, Note_off_c, 0, 62, 68
1, 263818, Note_off_c, 0, 66, 64
1, 263943, Note_on_c, 0, 66, 81
1, 263953, Note_on_c, 0, 62, 70
1, 263990, Note_off_c, 0, 62, 64
1, 264011, Note_on_c, 0, 69, 81
1, 264014, Note_off_c, 0, 66, 64
1, 264093, Note_on_c, 0, 74, 92
1, 264103, Note_on_c, 0, 62, 79
1, 264109, Note_off_c, 0, 69, 65
1, 264131, Note_off_c, 0, 74, 68
1, 264145, Note_off_c, 0, 62, 61
1, 264199, Note_on_c, 0, 78, 89
1, 264237, Note_off_c, 0, 78, 65
1, 264248, Note_on_c, 0, 82, 89
1, 264254, Note_on_c, 0, 62, 80
1, 264266, Note_off_c, 0, 82, 71
1, 264275, Note_off_c, 0, 62, 71
1, 264279, Note_on_c, 0, 79, 10
1, 264281, Note_on_c, 0, 81, 76
1, 264287, Note_on_c, 0, 83, 70
1, 264310, Note_off_c, 0, 83, 53
1, 264329, Note_off_c, 0, 79, 38
1, 264333, Note_on_c, 0, 86, 96
1, 264342, Note_off_c, 0, 81, 66
1, 264381, Note_off_c, 0, 86, 66
1, 264470, Control_c, 0, 64, 86
1, 264477, Note_on_c, 0, 51, 84
1, 264477, Note_on_c, 0, 87, 100
1, 264478, Note_on_c, 0, 63, 82
1, 264485, Note_on_c, 0, 75, 94
1, 264485, Control_c, 0, 64, 61
1, 264500, Control_c, 0, 64, 0
1, 264518, Note_on_c, 0, 61, 39
1, 264553, Note_off_c, 0, 61, 49
1, 264559, Control_c, 0, 64, 30
1, 264574, Control_c, 0, 64, 57
1, 264589, Control_c, 0, 64, 66
1, 264604, Control_c, 0, 64, 79
1, 264619, Control_c, 0, 64, 127
1, 264632, Note_off_c, 0, 75, 60
1, 264632, Note_off_c, 0, 87, 63
1, 264635, Note_off_c, 0, 63, 62
1, 264657, Note_off_c, 0, 51, 57
1, 264698, Note_on_c, 0, 62, 78
1, 264700, Note_on_c, 0, 86, 101
1, 264702, Note_on_c, 0, 50, 75
1, 264703, Note_on_c, 0, 74, 93
1, 264746, Note_off_c, 0, 74, 62
1, 264750, Note_off_c, 0, 50, 61
1, 264752, Note_off_c, 0, 62, 61
1, 264778, Note_off_c, 0, 86, 61
1, 264842, Control_c, 0, 64, 106
1, 264856, Control_c, 0, 64, 72
1, 264871, Control_c, 0, 64, 50
1, 264873, Note_on_c, 0, 62, 89
1, 264875, Note_on_c, 0, 86, 99
1, 264876, Note_on_c, 0, 74, 92
1, 264878, Note_on_c, 0, 50, 79
1, 264886, Control_c, 0, 64, 0
1, 264915, Control_c, 0, 64, 36
1, 264938, Control_c, 0, 64, 56
1, 264953, Control_c, 0, 64, 64
1, 264956, Note_off_c, 0, 74, 58
1, 264968, Control_c, 0, 64, 70
1, 264974, Note_off_c, 0, 62, 64
1, 264983, Control_c, 0, 64, 83
1, 264989, Note_off_c, 0, 50, 63
1, 264997, Control_c, 0, 64, 127
1, 265058, Note_on_c, 0, 61, 82
1, 265060, Note_on_c, 0, 49, 73
1, 265060, Note_on_c, 0, 73, 94
1, 265060, Note_on_c, 0, 85, 90
1, 265091, Note_off_c, 0, 86, 60
1, 265132, Note_off_c, 0, 73, 60
1, 265141, Note_off_c, 0, 61, 54
1, 265150, Note_off_c, 0, 49, 56
1, 265161, Note_off_c, 0, 85, 63
1, 265204, Control_c, 0, 64, 92
1, 265219, Control_c, 0, 64, 64
1, 265231, Note_on_c, 0, 49, 77
1, 265234, Note_on_c, 0, 61, 85
1, 265234, Control_c, 0, 64, 0
1, 265235, Note_on_c, 0, 73, 91
1, 265235, Note_on_c, 0, 85, 95
1, 265278, Control_c, 0, 64, 38
1, 265293, Control_c, 0, 64, 54
1, 265308, Control_c, 0, 64, 63
1, 265323, Control_c, 0, 64, 69
1, 265338, Control_c, 0, 64, 82
1, 265352, Control_c, 0, 64, 127
1, 265367, Note_off_c, 0, 73, 63
1, 265369, Note_off_c, 0, 61, 62
1, 265374, Note_off_c, 0, 49, 62
1, 265406, Note_on_c, 0, 74, 86
1, 265408, Note_on_c, 0, 62, 76
1, 265408, Note_on_c, 0, 86, 90
1, 265409, Note_on_c, 0, 50, 73
1, 265442, Note_off_c, 0, 85, 63
1, 265475, Note_off_c, 0, 74, 59
1, 265490, Note_off_c, 0, 50, 60
1, 265491, Note_off_c, 0, 62, 58
1, 265507, Note_off_c, 0, 86, 61
1, 265531, Control_c, 0, 64, 80
1, 265546, Control_c, 0, 64, 60
1, 265561, Control_c, 0, 64, 0
1, 265576, Control_c, 0, 64, 29
1, 265579, Note_on_c, 0, 86, 98
1, 265581, Note_on_c, 0, 50, 76
1, 265581, Note_on_c, 0, 62, 80
1, 265581, Note_on_c, 0, 74, 90
1, 265591, Control_c, 0, 64, 52
1, 265605, Control_c, 0, 64, 61
1, 265612, Note_off_c, 0, 62, 63
1, 265620, Control_c, 0, 64, 67
1, 265635, Control_c, 0, 64, 75
1, 265638, Note_off_c, 0, 86, 65
1, 265639, Note_off_c, 0, 74, 57
1, 265642, Note_off_c, 0, 50, 64
1, 265650, Control_c, 0, 64, 94
1, 265665, Control_c, 0, 64, 127
1, 265758, Note_on_c, 0, 57, 79
1, 265761, Note_on_c, 0, 81, 95
1, 265762, Note_on_c, 0, 45, 77
1, 265769, Note_on_c, 0, 69, 88
1, 265784, Note_off_c, 0, 57, 68
1, 265794, Note_off_c, 0, 45, 64
1, 265809, Note_off_c, 0, 69, 61
1, 265834, Note_off_c, 0, 81, 62
1, 265909, Control_c, 0, 64, 113
1, 265924, Control_c, 0, 64, 78
1, 265937, Note_on_c, 0, 79, 90
1, 265938, Note_on_c, 0, 55, 80
1, 265938, Control_c, 0, 64, 60
1, 265943, Note_on_c, 0, 43, 70
1, 265946, Note_on_c, 0, 67, 80
1, 265953, Control_c, 0, 64, 0
1, 265998, Control_c, 0, 64, 18
1, 266012, Control_c, 0, 64, 44
1, 266020, Note_off_c, 0, 67, 61
1, 266027, Note_off_c, 0, 55, 62
1, 266027, Control_c, 0, 64, 57
1, 266042, Control_c, 0, 64, 64
1, 266051, Note_off_c, 0, 43, 61
1, 266056, Control_c, 0, 64, 70
1, 266071, Control_c, 0, 64, 81
1, 266086, Control_c, 0, 64, 109
1, 266101, Control_c, 0, 64, 127
1, 266109, Note_on_c, 0, 78, 86
1, 266110, Note_on_c, 0, 42, 74
1, 266112, Note_on_c, 0, 54, 78
1, 266113, Note_on_c, 0, 66, 78
1, 266128, Note_off_c, 0, 79, 63
1, 266163, Note_off_c, 0, 66, 59
1, 266167, Note_off_c, 0, 54, 63
1, 266179, Note_off_c, 0, 42, 62
1, 266196, Note_off_c, 0, 78, 62
1, 266235, Control_c, 0, 64, 111
1, 266250, Control_c, 0, 64, 77
1, 266265, Control_c, 0, 64, 60
1, 266279, Control_c, 0, 64, 12
1, 266282, Note_on_c, 0, 54, 77
1, 266285, Note_on_c, 0, 42, 77
1, 266285, Note_on_c, 0, 66, 76
1, 266285, Note_on_c, 0, 78, 88
1, 266294, Control_c, 0, 64, 0
1, 266309, Control_c, 0, 64, 30
1, 266324, Control_c, 0, 64, 51
1, 266339, Control_c, 0, 64, 60
1, 266354, Control_c, 0, 64, 65
1, 266369, Control_c, 0, 64, 70
1, 266381, Note_off_c, 0, 54, 64
1, 266384, Control_c, 0, 64, 81
1, 266390, Note_off_c, 0, 66, 61
1, 266391, Note_off_c, 0, 78, 64
1, 266399, Control_c, 0, 64, 106
1, 266414, Control_c, 0, 64, 127
1, 266461, Note_on_c, 0, 52, 77
1, 266463, Note_on_c, 0, 40, 70
1, 266464, Note_on_c, 0, 76, 92
1, 266466, Note_off_c, 0, 42, 38
1, 266467, Note_on_c, 0, 64, 82
1, 266510, Note_off_c, 0, 64, 60
1, 266529, Note_off_c, 0, 52, 61
1, 266536, Note_off_c, 0, 40, 61
1, 266545, Note_off_c, 0, 76, 62
1, 266598, Control_c, 0, 64, 79
1, 266613, Control_c, 0, 64, 55
1, 266628, Control_c, 0, 64, 0
1, 266633, Note_on_c, 0, 52, 77
1, 266636, Note_on_c, 0, 76, 90
1, 266642, Note_on_c, 0, 40, 73
1, 266642, Note_on_c, 0, 64, 74
1, 266658, Control_c, 0, 64, 30
1, 266673, Control_c, 0, 64, 53
1, 266687, Control_c, 0, 64, 63
1, 266703, Control_c, 0, 64, 70
1, 266718, Control_c, 0, 64, 83
1, 266733, Control_c, 0, 64, 127
1, 266735, Note_off_c, 0, 64, 59
1, 266748, Note_off_c, 0, 52, 61
1, 266781, Note_off_c, 0, 40, 59
1, 266816, Note_on_c, 0, 74, 77
1, 266817, Note_off_c, 0, 76, 48
1, 266821, Note_on_c, 0, 50, 74
1, 266824, Note_on_c, 0, 62, 72
1, 266825, Note_on_c, 0, 38, 67
1, 266836, Control_c, 0, 64, 106
1, 266851, Control_c, 0, 64, 80
1, 266862, Note_off_c, 0, 50, 62
1, 266864, Note_off_c, 0, 62, 59
1, 266866, Note_off_c, 0, 38, 61
1, 266866, Control_c, 0, 64, 64
1, 266876, Note_off_c, 0, 74, 63
1, 266880, Control_c, 0, 64, 0
1, 266992, Note_on_c, 0, 74, 79
1, 266993, Note_on_c, 0, 50, 70
1, 266995, Note_on_c, 0, 62, 70
1, 267003, Note_on_c, 0, 38, 54
1, 267023, Note_off_c, 0, 50, 65
1, 267029, Note_off_c, 0, 62, 64
1, 267036, Note_off_c, 0, 38, 61
1, 267049, Note_off_c, 0, 74, 59
1, 267163, Note_on_c, 0, 50, 62
1, 267166, Note_on_c, 0, 38, 55
1, 267172, Note_on_c, 0, 74, 80
1, 267188, Note_on_c, 0, 62, 69
1, 267200, Note_off_c, 0, 50, 64
1, 267210, Note_off_c, 0, 38, 62
1, 267217, Note_off_c, 0, 62, 67
1, 267248, Note_off_c, 0, 74, 57
1, 267382, Note_on_c, 0, 75, 77
1, 267383, Note_on_c, 0, 51, 49
1, 267388, Note_on_c, 0, 39, 49
1, 267406, Note_on_c, 0, 63, 45
1, 267437, Control_c, 0, 64, 24
1, 267452, Control_c, 0, 64, 52
1, 267466, Control_c, 0, 64, 61
1, 267481, Control_c, 0, 64, 65
1, 267496, Control_c, 0, 64, 69
1, 267511, Control_c, 0, 64, 77
1, 267526, Control_c, 0, 64, 92
1, 267534, Note_off_c, 0, 51, 64
1, 267540, Control_c, 0, 64, 127
1, 267546, Note_off_c, 0, 63, 58
1, 267574, Note_on_c, 0, 50, 55
1, 267577, Note_on_c, 0, 38, 52
1, 267583, Note_on_c, 0, 74, 71
1, 267588, Note_on_c, 0, 62, 59
1, 267606, Note_off_c, 0, 39, 29
1, 267606, Note_off_c, 0, 75, 59
1, 267637, Note_off_c, 0, 62, 57
1, 267651, Note_off_c, 0, 38, 56
1, 267655, Note_off_c, 0, 50, 58
1, 267663, Note_off_c, 0, 74, 62
1, 267689, Control_c, 0, 64, 114
1, 267703, Control_c, 0, 64, 82
1, 267718, Control_c, 0, 64, 65
1, 267733, Control_c, 0, 64, 37
1, 267748, Control_c, 0, 64, 17
1, 267749, Note_on_c, 0, 50, 68
1, 267750, Note_on_c, 0, 74, 75
1, 267753, Note_on_c, 0, 62, 67
1, 267758, Note_on_c, 0, 38, 58
1, 267763, Control_c, 0, 64, 23
1, 267779, Control_c, 0, 64, 36
1, 267794, Control_c, 0, 64, 48
1, 267808, Control_c, 0, 64, 56
1, 267818, Note_off_c, 0, 62, 63
1, 267823, Control_c, 0, 64, 62
1, 267832, Note_off_c, 0, 50, 63
1, 267838, Control_c, 0, 64, 66
1, 267853, Control_c, 0, 64, 71
1, 267866, Note_off_c, 0, 38, 54
1, 267868, Control_c, 0, 64, 79
1, 267882, Control_c, 0, 64, 93
1, 267897, Control_c, 0, 64, 127
1, 267919, Note_on_c, 0, 49, 72
1, 267923, Note_on_c, 0, 73, 82
1, 267924, Note_on_c, 0, 37, 64
1, 267925, Note_on_c, 0, 61, 73
1, 267973, Note_off_c, 0, 74, 59
1, 267994, Note_off_c, 0, 49, 60
1, 267995, Note_off_c, 0, 61, 60
1, 268005, Note_off_c, 0, 37, 57
1, 268025, Note_off_c, 0, 73, 62
1, 268053, Control_c, 0, 64, 104
1, 268068, Control_c, 0, 64, 80
1, 268082, Control_c, 0, 64, 63
1, 268097, Control_c, 0, 64, 0
1, 268107, Note_on_c, 0, 49, 66
1, 268110, Note_on_c, 0, 73, 74
1, 268111, Note_on_c, 0, 61, 68
1, 268112, Note_on_c, 0, 37, 59
1, 268141, Control_c, 0, 64, 15
1, 268156, Control_c, 0, 64, 40
1, 268171, Control_c, 0, 64, 52
1, 268186, Control_c, 0, 64, 59
1, 268200, Control_c, 0, 64, 63
1, 268214, Control_c, 0, 64, 66
1, 268224, Note_off_c, 0, 61, 62
1, 268228, Note_off_c, 0, 49, 63
1, 268229, Control_c, 0, 64, 70
1, 268244, Control_c, 0, 64, 75
1, 268259, Control_c, 0, 64, 83
1, 268274, Control_c, 0, 64, 95
1, 268279, Note_on_c, 0, 50, 59
1, 268281, Note_off_c, 0, 37, 42
1, 268286, Note_on_c, 0, 38, 57
1, 268286, Note_on_c, 0, 74, 78
1, 268289, Note_on_c, 0, 62, 68
1, 268289, Control_c, 0, 64, 113
1, 268304, Control_c, 0, 64, 127
1, 268312, Note_off_c, 0, 73, 61
1, 268342, Note_off_c, 0, 62, 59
1, 268348, Note_off_c, 0, 38, 58
1, 268357, Note_off_c, 0, 50, 57
1, 268369, Note_off_c, 0, 74, 60
1, 268378, Control_c, 0, 64, 117
1, 268393, Control_c, 0, 64, 93
1, 268407, Control_c, 0, 64, 72
1, 268422, Control_c, 0, 64, 55
1, 268437, Control_c, 0, 64, 0
1, 268455, Note_on_c, 0, 50, 52
1, 268463, Note_on_c, 0, 74, 77
1, 268466, Control_c, 0, 64, 37
1, 268467, Note_on_c, 0, 38, 49
1, 268470, Note_on_c, 0, 62, 60
1, 268481, Control_c, 0, 64, 56
1, 268496, Control_c, 0, 64, 64
1, 268511, Control_c, 0, 64, 69
1, 268515, Note_off_c, 0, 62, 63
1, 268519, Note_off_c, 0, 74, 63
1, 268525, Control_c, 0, 64, 78
1, 268538, Note_off_c, 0, 50, 60
1, 268540, Control_c, 0, 64, 93
1, 268555, Control_c, 0, 64, 127
1, 268610, Note_off_c, 0, 38, 27
1, 268634, Note_on_c, 0, 45, 60
1, 268638, Note_on_c, 0, 69, 78
1, 268649, Note_on_c, 0, 57, 63
1, 268687, Note_off_c, 0, 45, 63
1, 268696, Note_off_c, 0, 57, 63
1, 268699, Note_off_c, 0, 69, 53
1, 268727, Control_c, 0, 64, 123
1, 268742, Control_c, 0, 64, 117
1, 268756, Control_c, 0, 64, 113
1, 268771, Control_c, 0, 64, 102
1, 268786, Control_c, 0, 64, 84
1, 268801, Control_c, 0, 64, 68
1, 268816, Control_c, 0, 64, 51
1, 268823, Note_on_c, 0, 43, 54
1, 268825, Note_on_c, 0, 67, 69
1, 268830, Control_c, 0, 64, 0
1, 268834, Note_on_c, 0, 55, 60
1, 268860, Control_c, 0, 64, 30
1, 268875, Control_c, 0, 64, 45
1, 268882, Note_off_c, 0, 55, 62
1, 268890, Control_c, 0, 64, 55
1, 268904, Control_c, 0, 64, 60
1, 268919, Control_c, 0, 64, 64
1, 268934, Control_c, 0, 64, 69
1, 268949, Control_c, 0, 64, 76
1, 268963, Control_c, 0, 64, 88
1, 268978, Control_c, 0, 64, 105
1, 268986, Note_on_c, 0, 42, 61
1, 268987, Note_on_c, 0, 66, 68
1, 268989, Note_on_c, 0, 54, 64
1, 268993, Control_c, 0, 64, 127
1, 268997, Note_off_c, 0, 67, 56
1, 269002, Note_off_c, 0, 43, 59
1, 269023, Control_c, 0, 64, 121
1, 269036, Note_off_c, 0, 54, 59
1, 269037, Control_c, 0, 64, 118
1, 269043, Note_off_c, 0, 42, 59
1, 269052, Control_c, 0, 64, 116
1, 269066, Note_off_c, 0, 66, 59
1, 269067, Control_c, 0, 64, 113
1, 269082, Control_c, 0, 64, 110
1, 269096, Control_c, 0, 64, 104
1, 269111, Control_c, 0, 64, 93
1, 269126, Control_c, 0, 64, 76
1, 269141, Control_c, 0, 64, 64
1, 269156, Control_c, 0, 64, 43
1, 269168, Note_on_c, 0, 42, 51
1, 269171, Control_c, 0, 64, 19
1, 269178, Note_on_c, 0, 54, 59
1, 269178, Note_on_c, 0, 66, 69
1, 269186, Control_c, 0, 64, 28
1, 269201, Control_c, 0, 64, 41
1, 269216, Control_c, 0, 64, 53
1, 269230, Control_c, 0, 64, 59
1, 269245, Control_c, 0, 64, 64
1, 269260, Control_c, 0, 64, 67
1, 269263, Note_off_c, 0, 54, 63
1, 269274, Control_c, 0, 64, 74
1, 269275, Note_off_c, 0, 66, 62
1, 269289, Control_c, 0, 64, 84
1, 269304, Control_c, 0, 64, 101
1, 269319, Control_c, 0, 64, 117
1, 269334, Control_c, 0, 64, 123
1, 269348, Control_c, 0, 64, 121
1, 269356, Note_on_c, 0, 40, 52
1, 269356, Note_on_c, 0, 64, 69
1, 269363, Note_on_c, 0, 52, 57
1, 269363, Control_c, 0, 64, 118
1, 269379, Control_c, 0, 64, 116
1, 269390, Note_off_c, 0, 42, 46
1, 269409, Control_c, 0, 64, 114
1, 269410, Note_off_c, 0, 52, 60
1, 269431, Control_c, 0, 64, 111
1, 269445, Note_off_c, 0, 64, 59
1, 269446, Control_c, 0, 64, 108
1, 269451, Note_off_c, 0, 40, 52
1, 269460, Control_c, 0, 64, 106
1, 269475, Control_c, 0, 64, 101
1, 269490, Control_c, 0, 64, 92
1, 269505, Control_c, 0, 64, 75
1, 269520, Control_c, 0, 64, 62
1, 269535, Control_c, 0, 64, 36
1, 269536, Note_on_c, 0, 40, 38
1, 269550, Control_c, 0, 64, 0
1, 269553, Note_on_c, 0, 64, 61
1, 269563, Note_on_c, 0, 52, 36
1, 269564, Control_c, 0, 64, 25
1, 269579, Control_c, 0, 64, 43
1, 269594, Control_c, 0, 64, 56
1, 269608, Note_off_c, 0, 52, 51
1, 269609, Control_c, 0, 64, 62
1, 269624, Control_c, 0, 64, 66
1, 269639, Control_c, 0, 64, 69
1, 269653, Control_c, 0, 64, 74
1, 269668, Control_c, 0, 64, 75
1, 269683, Control_c, 0, 64, 75
1, 269698, Control_c, 0, 64, 73
1, 269713, Control_c, 0, 64, 70
1, 269720, Note_on_c, 0, 62, 57
1, 269726, Note_off_c, 0, 64, 38
1, 269727, Control_c, 0, 64, 67
1, 269728, Note_on_c, 0, 38, 39
1, 269731, Note_off_c, 0, 40, 36
1, 269731, Note_on_c, 0, 50, 50
1, 269742, Control_c, 0, 64, 65
1, 269757, Control_c, 0, 64, 61
1, 269767, Note_off_c, 0, 62, 59
1, 269770, Note_off_c, 0, 38, 61
1, 269772, Control_c, 0, 64, 54
1, 269773, Note_off_c, 0, 50, 62
1, 269786, Control_c, 0, 64, 45
1, 269801, Control_c, 0, 64, 40
1, 269816, Control_c, 0, 64, 37
1, 269831, Control_c, 0, 64, 34
1, 269846, Control_c, 0, 64, 29
1, 269860, Control_c, 0, 64, 21
1, 269875, Control_c, 0, 64, 0
1, 269906, Note_on_c, 0, 38, 42
1, 269906, Note_on_c, 0, 62, 54
1, 269908, Note_on_c, 0, 50, 49
1, 269949, Note_off_c, 0, 50, 60
1, 269951, Note_off_c, 0, 62, 59
1, 269956, Note_off_c, 0, 38, 59
1, 270078, Note_on_c, 0, 38, 44
1, 270087, Note_on_c, 0, 62, 52
1, 270092, Note_on_c, 0, 50, 40
1, 270126, Note_off_c, 0, 38, 59
1, 270128, Note_off_c, 0, 50, 53
1, 270131, Note_off_c, 0, 62, 58
1, 270261, Note_on_c, 0, 38, 49
1, 270264, Note_on_c, 0, 50, 47
1, 270264, Note_on_c, 0, 62, 52
1, 270316, Note_off_c, 0, 38, 58
1, 270317, Note_off_c, 0, 62, 56
1, 270319, Note_off_c, 0, 50, 56
1, 270439, Note_on_c, 0, 38, 46
1, 270441, Note_on_c, 0, 62, 47
1, 270451, Note_on_c, 0, 50, 42
1, 270489, Note_off_c, 0, 38, 58
1, 270498, Note_off_c, 0, 50, 56
1, 270500, Note_off_c, 0, 62, 57
1, 270615, Note_on_c, 0, 38, 44
1, 270617, Note_on_c, 0, 62, 47
1, 270624, Note_on_c, 0, 50, 46
1, 270665, Note_off_c, 0, 38, 58
1, 270668, Note_off_c, 0, 50, 59
1, 270673, Note_off_c, 0, 62, 57
1, 270786, Note_on_c, 0, 50, 49
1, 270787, Note_on_c, 0, 38, 47
1, 270792, Note_on_c, 0, 62, 53
1, 270836, Note_off_c, 0, 38, 57
1, 270840, Note_off_c, 0, 50, 56
1, 270843, Note_off_c, 0, 62, 57
1, 270974, Note_on_c, 0, 38, 46
1, 270976, Note_on_c, 0, 50, 44
1, 270981, Note_on_c, 0, 62, 51
1, 271025, Note_off_c, 0, 38, 58
1, 271025, Note_off_c, 0, 50, 58
1, 271031, Note_off_c, 0, 62, 58
1, 271153, Note_on_c, 0, 38, 46
1, 271156, Note_on_c, 0, 62, 53
1, 271159, Note_on_c, 0, 50, 41
1, 271205, Note_off_c, 0, 38, 57
1, 271210, Note_off_c, 0, 50, 59
1, 271216, Note_off_c, 0, 62, 54
1, 271332, Note_on_c, 0, 38, 48
1, 271341, Note_on_c, 0, 50, 41
1, 271341, Note_on_c, 0, 62, 57
1, 271388, Note_off_c, 0, 38, 57
1, 271396, Note_off_c, 0, 50, 57
1, 271400, Note_off_c, 0, 62, 56
1, 271532, Note_on_c, 0, 50, 41
1, 271532, Note_on_c, 0, 62, 52
1, 271533, Note_on_c, 0, 38, 37
1, 271591, Note_off_c, 0, 38, 54
1, 271605, Note_off_c, 0, 50, 58
1, 271609, Note_off_c, 0, 62, 60
1, 271761, Note_on_c, 0, 58, 32
1, 271762, Note_on_c, 0, 49, 28
1, 271767, Note_on_c, 0, 61, 48
1, 271780, Note_on_c, 0, 55, 30
1, 271791, Note_on_c, 0, 52, 28
1, 271901, Control_c, 0, 64, 11
1, 271916, Control_c, 0, 64, 13
1, 271930, Control_c, 0, 64, 15
1, 271944, Control_c, 0, 64, 17
1, 271959, Control_c, 0, 64, 17
1, 271973, Control_c, 0, 64, 18
1, 271988, Control_c, 0, 64, 21
1, 271994, Note_on_c, 0, 60, 50
1, 272000, Note_off_c, 0, 49, 51
1, 272003, Control_c, 0, 64, 24
1, 272014, Note_on_c, 0, 48, 38
1, 272018, Control_c, 0, 64, 28
1, 272021, Note_off_c, 0, 61, 38
1, 272033, Control_c, 0, 64, 31
1, 272048, Control_c, 0, 64, 35
1, 272062, Control_c, 0, 64, 40
1, 272077, Control_c, 0, 64, 46
1, 272092, Control_c, 0, 64, 52
1, 272094, Note_off_c, 0, 55, 33
1, 272101, Note_off_c, 0, 60, 60
1, 272107, Control_c, 0, 64, 57
1, 272108, Note_off_c, 0, 52, 42
1, 272113, Note_off_c, 0, 48, 58
1, 272116, Note_off_c, 0, 58, 44
1, 272122, Control_c, 0, 64, 60
1, 272137, Control_c, 0, 64, 64
1, 272152, Control_c, 0, 64, 67
1, 272167, Control_c, 0, 64, 72
1, 272181, Control_c, 0, 64, 78
1, 272185, Note_on_c, 0, 48, 28
1, 272185, Note_on_c, 0, 60, 49
1, 272196, Control_c, 0, 64, 86
1, 272198, Note_on_c, 0, 58, 45
1, 272201, Note_on_c, 0, 52, 44
1, 272211, Control_c, 0, 64, 92
1, 272212, Note_on_c, 0, 55, 18
1, 272226, Control_c, 0, 64, 96
1, 272241, Control_c, 0, 64, 97
1, 272246, Note_off_c, 0, 52, 48
1, 272247, Note_off_c, 0, 48, 52
1, 272255, Control_c, 0, 64, 98
1, 272258, Note_off_c, 0, 58, 53
1, 272262, Note_off_c, 0, 60, 53
1, 272265, Note_off_c, 0, 55, 44
1, 272285, Control_c, 0, 64, 98
1, 272359, Note_on_c, 0, 48, 39
1, 272364, Note_on_c, 0, 60, 46
1, 272377, Note_on_c, 0, 52, 46
1, 272386, Note_on_c, 0, 58, 38
1, 272402, Note_on_c, 0, 55, 24
1, 272408, Note_off_c, 0, 48, 56
1, 272426, Note_off_c, 0, 52, 50
1, 272429, Note_off_c, 0, 58, 52
1, 272441, Note_off_c, 0, 60, 54
1, 272452, Note_off_c, 0, 55, 49
1, 272572, Note_on_c, 0, 48, 38
1, 272583, Note_on_c, 0, 58, 31
1, 272584, Note_on_c, 0, 52, 37
1, 272587, Note_on_c, 0, 55, 34
1, 272596, Note_on_c, 0, 60, 39
1, 272623, Note_off_c, 0, 48, 53
1, 272632, Note_off_c, 0, 58, 47
1, 272633, Note_off_c, 0, 55, 50
1, 272635, Note_off_c, 0, 52, 46
1, 272644, Note_off_c, 0, 60, 54
1, 272708, Control_c, 0, 64, 98
1, 272790, Note_on_c, 0, 60, 42
1, 272791, Note_on_c, 0, 52, 37
1, 272793, Note_on_c, 0, 48, 32
1, 272796, Note_on_c, 0, 58, 36
1, 272805, Note_on_c, 0, 55, 23
1, 272848, Note_off_c, 0, 58, 52
1, 272861, Note_off_c, 0, 48, 42
1, 272866, Note_off_c, 0, 52, 46
1, 272868, Note_off_c, 0, 55, 44
1, 272869, Note_off_c, 0, 60, 43
1, 272990, Control_c, 0, 64, 98
1, 273027, Note_on_c, 0, 48, 40
1, 273033, Note_on_c, 0, 52, 39
1, 273037, Note_on_c, 0, 58, 33
1, 273040, Note_on_c, 0, 60, 42
1, 273041, Note_on_c, 0, 55, 22
1, 273076, Note_off_c, 0, 48, 58
1, 273095, Note_off_c, 0, 58, 48
1, 273105, Note_off_c, 0, 55, 44
1, 273110, Note_off_c, 0, 60, 50
1, 273112, Note_off_c, 0, 52, 47
1, 273174, Control_c, 0, 64, 98
1, 273219, Control_c, 0, 64, 97
1, 273264, Control_c, 0, 64, 97
1, 273296, Note_on_c, 0, 52, 40
1, 273300, Note_on_c, 0, 48, 39
1, 273301, Note_on_c, 0, 58, 32
1, 273307, Note_on_c, 0, 60, 40
1, 273337, Control_c, 0, 64, 96
1, 273346, Poly_aftertouch_c, 0, 55, 127
1, 273364, Note_off_c, 0, 58, 49
1, 273367, Control_c, 0, 64, 96
1, 273368, Note_off_c, 0, 52, 47
1, 273383, Control_c, 0, 64, 95
1, 273393, Poly_aftertouch_c, 0, 55, 0
1, 273413, Control_c, 0, 64, 95
1, 273437, Note_off_c, 0, 48, 34
1, 273442, Control_c, 0, 64, 94
1, 273460, Note_off_c, 0, 60, 36
1, 273487, Control_c, 0, 64, 94
1, 273516, Control_c, 0, 64, 93
1, 273531, Control_c, 0, 64, 93
1, 273545, Control_c, 0, 64, 92
1, 273560, Control_c, 0, 64, 92
1, 273575, Control_c, 0, 64, 91
1, 273590, Control_c, 0, 64, 90
1, 273605, Control_c, 0, 64, 90
1, 273619, Control_c, 0, 64, 89
1, 273634, Control_c, 0, 64, 87
1, 273649, Control_c, 0, 64, 83
1, 273662, Note_on_c, 0, 41, 39
1, 273664, Note_on_c, 0, 60, 40
1, 273664, Control_c, 0, 64, 73
1, 273669, Note_on_c, 0, 57, 30
1, 273669, Note_on_c, 0, 53, 33
1, 273679, Control_c, 0, 64, 62
1, 273693, Control_c, 0, 64, 44
1, 273708, Control_c, 0, 64, 32
1, 273723, Control_c, 0, 64, 38
1, 273738, Control_c, 0, 64, 50
1, 273753, Control_c, 0, 64, 59
1, 273768, Control_c, 0, 64, 64
1, 273773, Note_off_c, 0, 53, 57
1, 273782, Control_c, 0, 64, 69
1, 273795, Note_off_c, 0, 57, 58
1, 273797, Control_c, 0, 64, 79
1, 273812, Control_c, 0, 64, 97
1, 273827, Control_c, 0, 64, 127
1, 273833, Note_off_c, 0, 60, 64
1, 274012, Control_c, 0, 64, 113
1, 274027, Control_c, 0, 64, 98
1, 274042, Control_c, 0, 64, 83
1, 274052, Note_on_c, 0, 69, 53
1, 274057, Control_c, 0, 64, 70
1, 274072, Control_c, 0, 64, 62
1, 274074, Note_on_c, 0, 48, 27
1, 274084, Note_on_c, 0, 60, 20
1, 274086, Control_c, 0, 64, 58
1, 274101, Control_c, 0, 64, 60
1, 274116, Control_c, 0, 64, 62
1, 274131, Control_c, 0, 64, 64
1, 274145, Control_c, 0, 64, 67
1, 274146, Note_off_c, 0, 60, 39
1, 274160, Control_c, 0, 64, 70
1, 274176, Control_c, 0, 64, 76
1, 274191, Control_c, 0, 64, 84
1, 274194, Note_off_c, 0, 69, 55
1, 274206, Control_c, 0, 64, 97
1, 274209, Note_off_c, 0, 48, 32
1, 274221, Control_c, 0, 64, 127
1, 274304, Note_on_c, 0, 48, 35
1, 274304, Note_on_c, 0, 69, 62
1, 274316, Note_on_c, 0, 60, 42
1, 274331, Note_on_c, 0, 65, 34
1, 274355, Note_off_c, 0, 60, 56
1, 274358, Note_off_c, 0, 48, 57
1, 274366, Note_off_c, 0, 65, 50
1, 274389, Note_off_c, 0, 69, 53
1, 274507, Note_on_c, 0, 69, 71
1, 274509, Note_on_c, 0, 48, 43
1, 274516, Note_on_c, 0, 60, 38
1, 274551, Note_off_c, 0, 60, 52
1, 274558, Note_off_c, 0, 48, 59
1, 274650, Note_off_c, 0, 69, 55
1, 274703, Control_c, 0, 64, 106
1, 274712, Note_on_c, 0, 68, 66
1, 274718, Control_c, 0, 64, 79
1, 274723, Note_on_c, 0, 48, 32
1, 274732, Control_c, 0, 64, 66
1, 274734, Note_on_c, 0, 65, 42
1, 274747, Note_on_c, 0, 59, 32
1, 274747, Control_c, 0, 64, 59
1, 274762, Control_c, 0, 64, 57
1, 274776, Control_c, 0, 64, 61
1, 274791, Control_c, 0, 64, 65
1, 274806, Control_c, 0, 64, 70
1, 274807, Note_off_c, 0, 59, 55
1, 274821, Control_c, 0, 64, 77
1, 274836, Control_c, 0, 64, 87
1, 274850, Control_c, 0, 64, 107
1, 274865, Control_c, 0, 64, 127
1, 274918, Note_on_c, 0, 69, 74
1, 274930, Note_on_c, 0, 53, 43
1, 274939, Note_on_c, 0, 60, 53
1, 274973, Note_off_c, 0, 68, 52
1, 274987, Note_off_c, 0, 60, 58
1, 274996, Note_off_c, 0, 48, 39
1, 275002, Note_off_c, 0, 65, 42
1, 275031, Note_off_c, 0, 53, 56
1, 275034, Note_off_c, 0, 69, 59
1, 275072, Control_c, 0, 64, 87
1, 275087, Control_c, 0, 64, 70
1, 275102, Control_c, 0, 64, 62
1, 275115, Note_on_c, 0, 69, 84
1, 275117, Control_c, 0, 64, 61
1, 275124, Note_on_c, 0, 53, 49
1, 275132, Control_c, 0, 64, 65
1, 275133, Note_on_c, 0, 60, 53
1, 275137, Note_on_c, 0, 65, 42
1, 275146, Control_c, 0, 64, 69
1, 275161, Control_c, 0, 64, 78
1, 275163, Note_off_c, 0, 65, 57
1, 275170, Note_off_c, 0, 60, 60
1, 275176, Control_c, 0, 64, 99
1, 275190, Control_c, 0, 64, 127
1, 275202, Note_off_c, 0, 69, 58
1, 275203, Note_off_c, 0, 53, 52
1, 275283, Note_off_c, 0, 41, 42
1, 275307, Note_on_c, 0, 69, 87
1, 275313, Note_on_c, 0, 53, 47
1, 275329, Note_on_c, 0, 60, 43
1, 275331, Note_on_c, 0, 65, 44
1, 275351, Note_off_c, 0, 60, 60
1, 275357, Note_off_c, 0, 65, 55
1, 275397, Note_off_c, 0, 69, 61
1, 275509, Control_c, 0, 64, 117
1, 275523, Control_c, 0, 64, 106
1, 275538, Control_c, 0, 64, 99
1, 275553, Note_on_c, 0, 46, 38
1, 275553, Control_c, 0, 64, 94
1, 275558, Note_off_c, 0, 53, 36
1, 275565, Note_on_c, 0, 72, 74
1, 275567, Poly_aftertouch_c, 0, 65, 127
1, 275568, Control_c, 0, 64, 90
1, 275583, Control_c, 0, 64, 86
1, 275598, Control_c, 0, 64, 82
1, 275599, Note_on_c, 0, 63, 45
1, 275613, Control_c, 0, 64, 78
1, 275628, Control_c, 0, 64, 76
1, 275643, Control_c, 0, 64, 73
1, 275657, Control_c, 0, 64, 72
1, 275672, Control_c, 0, 64, 70
1, 275687, Control_c, 0, 64, 68
1, 275702, Control_c, 0, 64, 67
1, 275716, Control_c, 0, 64, 67
1, 275731, Control_c, 0, 64, 65
1, 275746, Control_c, 0, 64, 63
1, 275761, Control_c, 0, 64, 58
1, 275769, Note_off_c, 0, 63, 59
1, 275777, Control_c, 0, 64, 49
1, 275792, Control_c, 0, 64, 41
1, 275793, Note_on_c, 0, 70, 73
1, 275799, Note_on_c, 0, 53, 48
1, 275806, Control_c, 0, 64, 35
1, 275816, Note_on_c, 0, 62, 43
1, 275821, Control_c, 0, 64, 34
1, 275836, Note_off_c, 0, 72, 60
1, 275836, Control_c, 0, 64, 35
1, 275851, Control_c, 0, 64, 39
1, 275866, Control_c, 0, 64, 46
1, 275881, Control_c, 0, 64, 54
1, 275884, Note_off_c, 0, 62, 56
1, 275886, Note_off_c, 0, 53, 60
1, 275895, Control_c, 0, 64, 58
1, 275905, Poly_aftertouch_c, 0, 65, 0
1, 275909, Note_off_c, 0, 70, 64
1, 275910, Control_c, 0, 64, 62
1, 275925, Control_c, 0, 64, 64
1, 275940, Control_c, 0, 64, 68
1, 275955, Control_c, 0, 64, 73
1, 275969, Control_c, 0, 64, 82
1, 275976, Note_on_c, 0, 70, 73
1, 275984, Control_c, 0, 64, 92
1, 275999, Control_c, 0, 64, 102
1, 276000, Note_on_c, 0, 53, 43
1, 276009, Note_on_c, 0, 62, 37
1, 276013, Control_c, 0, 64, 112
1, 276021, Note_on_c, 0, 65, 35
1, 276028, Control_c, 0, 64, 116
1, 276048, Note_off_c, 0, 53, 51
1, 276048, Note_off_c, 0, 62, 51
1, 276057, Note_off_c, 0, 70, 61
1, 276057, Note_off_c, 0, 65, 49
1, 276087, Control_c, 0, 64, 115
1, 276102, Control_c, 0, 64, 113
1, 276117, Control_c, 0, 64, 111
1, 276132, Control_c, 0, 64, 110
1, 276147, Control_c, 0, 64, 109
1, 276169, Control_c, 0, 64, 108
1, 276176, Note_on_c, 0, 70, 69
1, 276184, Note_on_c, 0, 62, 38
1, 276185, Note_on_c, 0, 53, 47
1, 276192, Note_on_c, 0, 65, 36
1, 276225, Note_off_c, 0, 62, 50
1, 276226, Note_off_c, 0, 53, 58
1, 276228, Control_c, 0, 64, 107
1, 276230, Note_off_c, 0, 65, 50
1, 276243, Control_c, 0, 64, 107
1, 276250, Note_off_c, 0, 70, 59
1, 276258, Control_c, 0, 64, 106
1, 276273, Control_c, 0, 64, 105
1, 276288, Control_c, 0, 64, 104
1, 276302, Control_c, 0, 64, 104
1, 276380, Note_on_c, 0, 70, 59
1, 276397, Note_on_c, 0, 62, 29
1, 276401, Note_on_c, 0, 53, 42
1, 276406, Control_c, 0, 64, 103
1, 276421, Control_c, 0, 64, 102
1, 276434, Note_off_c, 0, 62, 52
1, 276437, Note_off_c, 0, 70, 54
1, 276450, Control_c, 0, 64, 101
1, 276480, Control_c, 0, 64, 100
1, 276495, Control_c, 0, 64, 100
1, 276510, Control_c, 0, 64, 99
1, 276525, Control_c, 0, 64, 97
1, 276539, Control_c, 0, 64, 93
1, 276554, Control_c, 0, 64, 84
1, 276570, Control_c, 0, 64, 71
1, 276579, Note_on_c, 0, 69, 63
1, 276581, Note_on_c, 0, 54, 46
1, 276585, Control_c, 0, 64, 63
1, 276599, Control_c, 0, 64, 56
1, 276613, Note_on_c, 0, 60, 30
1, 276614, Control_c, 0, 64, 57
1, 276626, Note_off_c, 0, 53, 44
1, 276629, Control_c, 0, 64, 60
1, 276644, Control_c, 0, 64, 62
1, 276645, Note_off_c, 0, 60, 51
1, 276652, Poly_aftertouch_c, 0, 62, 127
1, 276659, Control_c, 0, 64, 64
1, 276674, Control_c, 0, 64, 67
1, 276689, Control_c, 0, 64, 71
1, 276704, Control_c, 0, 64, 79
1, 276718, Control_c, 0, 64, 91
1, 276733, Control_c, 0, 64, 105
1, 276748, Control_c, 0, 64, 99
1, 276757, Poly_aftertouch_c, 0, 62, 0
1, 276762, Control_c, 0, 64, 81
1, 276772, Note_on_c, 0, 55, 55
1, 276777, Control_c, 0, 64, 68
1, 276778, Note_on_c, 0, 62, 16
1, 276781, Note_on_c, 0, 67, 67
1, 276792, Control_c, 0, 64, 59
1, 276794, Note_on_c, 0, 58, 47
1, 276807, Control_c, 0, 64, 58
1, 276822, Control_c, 0, 64, 62
1, 276836, Control_c, 0, 64, 66
1, 276851, Control_c, 0, 64, 75
1, 276866, Control_c, 0, 64, 91
1, 276881, Control_c, 0, 64, 127
1, 276884, Note_off_c, 0, 62, 0
1, 276889, Note_off_c, 0, 46, 54
1, 276918, Control_c, 0, 64, 111
1, 276928, Poly_aftertouch_c, 0, 62, 127
1, 276930, Note_off_c, 0, 58, 59
1, 276933, Control_c, 0, 64, 80
1, 276948, Control_c, 0, 64, 64
1, 276952, Note_off_c, 0, 54, 40
1, 276953, Note_off_c, 0, 69, 59
1, 276963, Control_c, 0, 64, 55
1, 276967, Note_on_c, 0, 50, 41
1, 276974, Note_on_c, 0, 47, 43
1, 276975, Note_on_c, 0, 65, 70
1, 276977, Control_c, 0, 64, 58
1, 276984, Note_off_c, 0, 55, 63
1, 276992, Control_c, 0, 64, 63
1, 276993, Note_on_c, 0, 57, 42
1, 277007, Control_c, 0, 64, 67
1, 277017, Note_off_c, 0, 67, 60
1, 277022, Control_c, 0, 64, 75
1, 277037, Control_c, 0, 64, 92
1, 277038, Note_off_c, 0, 47, 63
1, 277040, Note_off_c, 0, 50, 63
1, 277045, Poly_aftertouch_c, 0, 62, 0
1, 277049, Note_off_c, 0, 57, 52
1, 277051, Control_c, 0, 64, 127
1, 277072, Note_off_c, 0, 65, 61
1, 277169, Control_c, 0, 64, 101
1, 277184, Control_c, 0, 64, 78
1, 277191, Note_on_c, 0, 36, 49
1, 277196, Note_on_c, 0, 57, 41
1, 277199, Control_c, 0, 64, 63
1, 277203, Note_on_c, 0, 65, 63
1, 277214, Control_c, 0, 64, 41
1, 277229, Control_c, 0, 64, 36
1, 277243, Control_c, 0, 64, 45
1, 277254, Note_on_c, 0, 60, 10
1, 277258, Control_c, 0, 64, 52
1, 277273, Control_c, 0, 64, 58
1, 277288, Control_c, 0, 64, 62
1, 277291, Note_off_c, 0, 57, 58
1, 277303, Control_c, 0, 64, 66
1, 277318, Control_c, 0, 64, 72
1, 277333, Control_c, 0, 64, 78
1, 277348, Control_c, 0, 64, 84
1, 277363, Control_c, 0, 64, 85
1, 277378, Note_off_c, 0, 60, 0
1, 277392, Control_c, 0, 64, 84
1, 277398, Note_on_c, 0, 60, 18
1, 277414, Note_on_c, 0, 64, 62
1, 277427, Note_on_c, 0, 48, 41
1, 277431, Note_on_c, 0, 55, 45
1, 277437, Control_c, 0, 64, 83
1, 277452, Control_c, 0, 64, 82
1, 277453, Note_off_c, 0, 65, 60
1, 277467, Control_c, 0, 64, 80
1, 277482, Note_off_c, 0, 55, 56
1, 277482, Control_c, 0, 64, 78
1, 277486, Note_off_c, 0, 60, 51
1, 277487, Note_off_c, 0, 48, 55
1, 277497, Control_c, 0, 64, 76
1, 277506, Note_off_c, 0, 64, 60
1, 277512, Control_c, 0, 64, 75
1, 277526, Control_c, 0, 64, 74
1, 277541, Control_c, 0, 64, 73
1, 277556, Control_c, 0, 64, 69
1, 277571, Control_c, 0, 64, 62
1, 277585, Control_c, 0, 64, 47
1, 277600, Control_c, 0, 64, 21
1, 277615, Control_c, 0, 64, 21
1, 277616, Note_on_c, 0, 64, 57
1, 277620, Note_on_c, 0, 55, 37
1, 277625, Note_on_c, 0, 48, 32
1, 277628, Note_on_c, 0, 60, 43
1, 277630, Control_c, 0, 64, 25
1, 277645, Control_c, 0, 64, 35
1, 277667, Control_c, 0, 64, 45
1, 277681, Control_c, 0, 64, 52
1, 277682, Note_off_c, 0, 48, 46
1, 277690, Note_off_c, 0, 55, 54
1, 277690, Note_off_c, 0, 60, 54
1, 277696, Control_c, 0, 64, 57
1, 277703, Note_off_c, 0, 64, 59
1, 277711, Control_c, 0, 64, 61
1, 277726, Control_c, 0, 64, 64
1, 277741, Control_c, 0, 64, 68
1, 277756, Control_c, 0, 64, 74
1, 277771, Control_c, 0, 64, 83
1, 277786, Control_c, 0, 64, 95
1, 277800, Control_c, 0, 64, 105
1, 277815, Control_c, 0, 64, 108
1, 277819, Note_on_c, 0, 48, 38
1, 277834, Note_on_c, 0, 55, 34
1, 277836, Note_on_c, 0, 64, 41
1, 277860, Control_c, 0, 64, 108
1, 277869, Note_off_c, 0, 48, 49
1, 277874, Control_c, 0, 64, 107
1, 277881, Poly_aftertouch_c, 0, 60, 127
1, 277882, Note_off_c, 0, 55, 45
1, 277884, Note_off_c, 0, 64, 52
1, 277889, Control_c, 0, 64, 107
1, 277904, Control_c, 0, 64, 106
1, 277917, Poly_aftertouch_c, 0, 60, 0
1, 277919, Control_c, 0, 64, 105
1, 277949, Control_c, 0, 64, 105
1, 277964, Control_c, 0, 64, 104
1, 277979, Control_c, 0, 64, 104
1, 277993, Control_c, 0, 64, 103
1, 278008, Control_c, 0, 64, 103
1, 278021, Note_on_c, 0, 64, 54
1, 278023, Control_c, 0, 64, 102
1, 278024, Note_on_c, 0, 48, 38
1, 278024, Note_on_c, 0, 55, 42
1, 278048, Note_on_c, 0, 60, 36
1, 278078, Note_off_c, 0, 55, 53
1, 278081, Note_off_c, 0, 60, 51
1, 278096, Note_off_c, 0, 48, 42
1, 278105, Note_off_c, 0, 64, 56
1, 278126, Control_c, 0, 64, 101
1, 278156, Control_c, 0, 64, 100
1, 278209, Note_on_c, 0, 64, 64
1, 278215, Note_on_c, 0, 55, 49
1, 278217, Note_on_c, 0, 48, 41
1, 278231, Control_c, 0, 64, 100
1, 278233, Note_on_c, 0, 60, 28
1, 278246, Control_c, 0, 64, 99
1, 278261, Control_c, 0, 64, 99
1, 278271, Note_off_c, 0, 60, 50
1, 278282, Note_off_c, 0, 55, 56
1, 278290, Control_c, 0, 64, 98
1, 278300, Note_off_c, 0, 48, 48
1, 278335, Control_c, 0, 64, 98
1, 278350, Control_c, 0, 64, 95
1, 278364, Control_c, 0, 64, 86
1, 278379, Control_c, 0, 64, 73
1, 278394, Control_c, 0, 64, 61
1, 278406, Note_on_c, 0, 65, 60
1, 278409, Control_c, 0, 64, 45
1, 278431, Note_on_c, 0, 57, 46
1, 278431, Control_c, 0, 64, 44
1, 278433, Note_on_c, 0, 48, 32
1, 278434, Note_on_c, 0, 60, 33
1, 278446, Control_c, 0, 64, 50
1, 278459, Note_off_c, 0, 64, 61
1, 278461, Control_c, 0, 64, 56
1, 278476, Control_c, 0, 64, 61
1, 278488, Note_off_c, 0, 57, 60
1, 278491, Control_c, 0, 64, 64
1, 278505, Control_c, 0, 64, 69
1, 278520, Control_c, 0, 64, 77
1, 278535, Control_c, 0, 64, 94
1, 278542, Note_off_c, 0, 48, 47
1, 278550, Control_c, 0, 64, 127
1, 278607, Note_on_c, 0, 67, 68
1, 278628, Note_on_c, 0, 48, 29
1, 278640, Note_on_c, 0, 58, 44
1, 278649, Note_off_c, 0, 65, 54
1, 278668, Control_c, 0, 64, 121
1, 278671, Note_off_c, 0, 58, 59
1, 278683, Control_c, 0, 64, 111
1, 278693, Note_off_c, 0, 60, 38
1, 278697, Control_c, 0, 64, 106
1, 278712, Control_c, 0, 64, 101
1, 278727, Control_c, 0, 64, 97
1, 278741, Control_c, 0, 64, 94
1, 278756, Control_c, 0, 64, 91
1, 278771, Control_c, 0, 64, 87
1, 278786, Control_c, 0, 64, 83
1, 278801, Control_c, 0, 64, 80
1, 278808, Note_on_c, 0, 60, 60
1, 278812, Note_on_c, 0, 41, 44
1, 278815, Note_off_c, 0, 36, 16
1, 278815, Control_c, 0, 64, 76
1, 278830, Control_c, 0, 64, 72
1, 278836, Note_on_c, 0, 58, 43
1, 278845, Control_c, 0, 64, 70
1, 278860, Control_c, 0, 64, 69
1, 278875, Control_c, 0, 64, 67
1, 278886, Note_off_c, 0, 48, 34
1, 278889, Control_c, 0, 64, 66
1, 278904, Control_c, 0, 64, 66
1, 278919, Control_c, 0, 64, 65
1, 278933, Control_c, 0, 64, 65
1, 278948, Control_c, 0, 64, 64
1, 278965, Control_c, 0, 64, 64
1, 278968, Note_off_c, 0, 67, 55
1, 278994, Control_c, 0, 64, 62
1, 278996, Note_off_c, 0, 58, 60
1, 279009, Control_c, 0, 64, 60
1, 279024, Control_c, 0, 64, 54
1, 279028, Note_on_c, 0, 65, 50
1, 279038, Control_c, 0, 64, 44
1, 279040, Note_on_c, 0, 48, 35
1, 279044, Note_on_c, 0, 57, 39
1, 279053, Control_c, 0, 64, 31
1, 279068, Control_c, 0, 64, 28
1, 279098, Control_c, 0, 64, 29
1, 279112, Control_c, 0, 64, 35
1, 279127, Control_c, 0, 64, 43
1, 279132, Note_off_c, 0, 48, 57
1, 279135, Note_off_c, 0, 60, 60
1, 279142, Note_off_c, 0, 57, 56
1, 279142, Control_c, 0, 64, 50
1, 279155, Note_off_c, 0, 65, 60
1, 279165, Control_c, 0, 64, 55
1, 279180, Control_c, 0, 64, 58
1, 279194, Control_c, 0, 64, 62
1, 279209, Control_c, 0, 64, 65
1, 279224, Control_c, 0, 64, 70
1, 279231, Note_on_c, 0, 65, 52
1, 279235, Note_on_c, 0, 48, 36
1, 279238, Note_on_c, 0, 57, 40
1, 279239, Control_c, 0, 64, 76
1, 279254, Control_c, 0, 64, 86
1, 279269, Control_c, 0, 64, 102
1, 279284, Control_c, 0, 64, 127
1, 279289, Note_off_c, 0, 57, 55
1, 279320, Note_off_c, 0, 48, 53
1, 279330, Note_off_c, 0, 65, 55
1, 279349, Poly_aftertouch_c, 0, 60, 0
1, 279419, Note_on_c, 0, 48, 43
1, 279434, Note_on_c, 0, 65, 64
1, 279441, Note_on_c, 0, 57, 50
1, 279458, Note_on_c, 0, 60, 38
1, 279478, Note_off_c, 0, 57, 55
1, 279488, Note_off_c, 0, 60, 50
1, 279491, Note_off_c, 0, 48, 52
1, 279509, Note_off_c, 0, 65, 58
1, 279543, Note_off_c, 0, 41, 37
1, 279610, Note_on_c, 0, 48, 42
1, 279616, Note_on_c, 0, 65, 76
1, 279625, Note_on_c, 0, 57, 53
1, 279629, Note_on_c, 0, 60, 46
1, 279658, Note_off_c, 0, 60, 63
1, 279663, Note_off_c, 0, 57, 63
1, 279682, Note_off_c, 0, 48, 55
1, 279697, Note_off_c, 0, 65, 55
1, 279797, Note_on_c, 0, 65, 79
1, 279801, Note_on_c, 0, 48, 47
1, 279806, Note_on_c, 0, 60, 46
1, 279829, Note_off_c, 0, 60, 57
1, 279854, Note_off_c, 0, 65, 63
1, 279877, Control_c, 0, 64, 121
1, 279892, Control_c, 0, 64, 118
1, 279894, Note_on_c, 0, 65, 65
1, 279914, Control_c, 0, 64, 116
1, 279929, Control_c, 0, 64, 113
1, 279944, Control_c, 0, 64, 111
1, 279959, Control_c, 0, 64, 108
1, 279974, Control_c, 0, 64, 106
1, 279988, Control_c, 0, 64, 102
1, 280003, Control_c, 0, 64, 99
1, 280018, Control_c, 0, 64, 96
1, 280033, Control_c, 0, 64, 94
1, 280048, Control_c, 0, 64, 92
1, 280062, Control_c, 0, 64, 90
1, 280066, Note_on_c, 0, 41, 40
1, 280072, Note_on_c, 0, 69, 71
1, 280077, Control_c, 0, 64, 87
1, 280092, Control_c, 0, 64, 85
1, 280103, Note_on_c, 0, 60, 40
1, 280107, Control_c, 0, 64, 83
1, 280122, Control_c, 0, 64, 79
1, 280124, Note_off_c, 0, 65, 55
1, 280136, Control_c, 0, 64, 72
1, 280151, Control_c, 0, 64, 63
1, 280166, Control_c, 0, 64, 48
1, 280181, Control_c, 0, 64, 32
1, 280195, Control_c, 0, 64, 33
1, 280210, Control_c, 0, 64, 42
1, 280225, Control_c, 0, 64, 51
1, 280240, Control_c, 0, 64, 58
1, 280255, Control_c, 0, 64, 62
1, 280260, Note_off_c, 0, 60, 58
1, 280269, Control_c, 0, 64, 64
1, 280284, Control_c, 0, 64, 68
1, 280291, Note_off_c, 0, 48, 32
1, 280299, Control_c, 0, 64, 76
1, 280314, Control_c, 0, 64, 85
1, 280329, Control_c, 0, 64, 97
1, 280339, Note_on_c, 0, 45, 48
1, 280343, Control_c, 0, 64, 108
1, 280358, Control_c, 0, 64, 110
1, 280388, Control_c, 0, 64, 110
1, 280400, Note_off_c, 0, 69, 52
1, 280403, Control_c, 0, 64, 108
1, 280418, Control_c, 0, 64, 107
1, 280427, Note_on_c, 0, 65, 56
1, 280433, Control_c, 0, 64, 106
1, 280448, Control_c, 0, 64, 104
1, 280449, Note_on_c, 0, 57, 39
1, 280456, Note_on_c, 0, 60, 26
1, 280462, Control_c, 0, 64, 103
1, 280476, Note_off_c, 0, 65, 57
1, 280477, Control_c, 0, 64, 102
1, 280486, Note_off_c, 0, 57, 52
1, 280492, Note_off_c, 0, 60, 43
1, 280492, Control_c, 0, 64, 100
1, 280507, Control_c, 0, 64, 99
1, 280522, Control_c, 0, 64, 96
1, 280525, Note_off_c, 0, 41, 36
1, 280536, Control_c, 0, 64, 92
1, 280551, Control_c, 0, 64, 84
1, 280554, Note_on_c, 0, 36, 52
1, 280567, Control_c, 0, 64, 71
1, 280570, Note_on_c, 0, 65, 55
1, 280582, Control_c, 0, 64, 62
1, 280588, Note_off_c, 0, 45, 35
1, 280597, Control_c, 0, 64, 50
1, 280597, Note_on_c, 0, 57, 39
1, 280611, Control_c, 0, 64, 46
1, 280626, Control_c, 0, 64, 49
1, 280641, Control_c, 0, 64, 53
1, 280663, Control_c, 0, 64, 57
1, 280668, Note_off_c, 0, 57, 53
1, 280678, Control_c, 0, 64, 62
1, 280684, Poly_aftertouch_c, 0, 60, 127
1, 280692, Control_c, 0, 64, 64
1, 280707, Control_c, 0, 64, 67
1, 280722, Control_c, 0, 64, 71
1, 280737, Control_c, 0, 64, 75
1, 280752, Control_c, 0, 64, 78
1, 280765, Poly_aftertouch_c, 0, 60, 0
1, 280782, Control_c, 0, 64, 77
1, 280797, Control_c, 0, 64, 77
1, 280802, Poly_aftertouch_c, 0, 60, 127
1, 280811, Control_c, 0, 64, 76
1, 280825, Note_on_c, 0, 48, 36
1, 280825, Note_on_c, 0, 64, 56
1, 280826, Control_c, 0, 64, 75
1, 280837, Note_on_c, 0, 55, 45
1, 280841, Control_c, 0, 64, 74
1, 280856, Control_c, 0, 64, 72
1, 280862, Note_off_c, 0, 65, 35
1, 280871, Control_c, 0, 64, 71
1, 280883, Note_off_c, 0, 48, 41
1, 280885, Control_c, 0, 64, 70
1, 280895, Note_off_c, 0, 55, 56
1, 280900, Control_c, 0, 64, 69
1, 280909, Note_off_c, 0, 64, 58
1, 280913, Poly_aftertouch_c, 0, 60, 0
1, 280915, Control_c, 0, 64, 69
1, 280930, Control_c, 0, 64, 67
1, 280945, Control_c, 0, 64, 64
1, 280959, Control_c, 0, 64, 58
1, 280974, Control_c, 0, 64, 48
1, 280989, Control_c, 0, 64, 39
1, 281004, Control_c, 0, 64, 38
1, 281006, Note_on_c, 0, 48, 39
1, 281012, Note_on_c, 0, 64, 48
1, 281030, Note_on_c, 0, 55, 29
1, 281033, Control_c, 0, 64, 39
1, 281041, Note_on_c, 0, 60, 25
1, 281048, Control_c, 0, 64, 45
1, 281063, Control_c, 0, 64, 50
1, 281070, Note_off_c, 0, 48, 55
1, 281077, Control_c, 0, 64, 55
1, 281087, Note_off_c, 0, 55, 46
1, 281089, Note_off_c, 0, 60, 47
1, 281092, Note_off_c, 0, 64, 57
1, 281092, Control_c, 0, 64, 59
1, 281107, Control_c, 0, 64, 62
1, 281122, Control_c, 0, 64, 65
1, 281137, Control_c, 0, 64, 68
1, 281152, Control_c, 0, 64, 71
1, 281166, Control_c, 0, 64, 75
1, 281181, Control_c, 0, 64, 78
1, 281196, Control_c, 0, 64, 81
1, 281211, Control_c, 0, 64, 83
1, 281211, Note_on_c, 0, 64, 51
1, 281215, Note_on_c, 0, 48, 37
1, 281221, Note_on_c, 0, 60, 38
1, 281226, Note_on_c, 0, 55, 34
1, 281226, Control_c, 0, 64, 85
1, 281241, Control_c, 0, 64, 85
1, 281258, Note_off_c, 0, 60, 50
1, 281266, Note_off_c, 0, 55, 49
1, 281271, Note_off_c, 0, 48, 43
1, 281274, Note_off_c, 0, 64, 52
1, 281360, Control_c, 0, 64, 85
1, 281416, Note_on_c, 0, 48, 40
1, 281422, Note_on_c, 0, 64, 57
1, 281426, Note_on_c, 0, 55, 34
1, 281456, Control_c, 0, 64, 84
1, 281473, Note_on_c, 0, 60, 3
1, 281474, Note_off_c, 0, 55, 46
1, 281482, Note_off_c, 0, 48, 52
1, 281495, Note_off_c, 0, 64, 53
1, 281501, Control_c, 0, 64, 84
1, 281509, Note_off_c, 0, 60, 52
1, 281515, Control_c, 0, 64, 83
1, 281560, Control_c, 0, 64, 83
1, 281589, Control_c, 0, 64, 82
1, 281601, Note_on_c, 0, 64, 63
1, 281611, Note_on_c, 0, 55, 45
1, 281616, Note_on_c, 0, 48, 44
1, 281649, Control_c, 0, 64, 82
1, 281655, Note_on_c, 0, 60, 5
1, 281679, Control_c, 0, 64, 81
1, 281682, Note_off_c, 0, 48, 51
1, 281682, Note_off_c, 0, 55, 54
1, 281704, Note_off_c, 0, 60, 36
1, 281724, Control_c, 0, 64, 81
1, 281738, Control_c, 0, 64, 80
1, 281753, Control_c, 0, 64, 76
1, 281768, Control_c, 0, 64, 68
1, 281783, Control_c, 0, 64, 60
1, 281791, Note_on_c, 0, 65, 62
1, 281798, Control_c, 0, 64, 46
1, 281804, Note_on_c, 0, 48, 43
1, 281813, Control_c, 0, 64, 47
1, 281821, Note_off_c, 0, 64, 62
1, 281823, Note_on_c, 0, 57, 45
1, 281828, Control_c, 0, 64, 51
1, 281831, Note_on_c, 0, 60, 42
1, 281842, Control_c, 0, 64, 56
1, 281857, Control_c, 0, 64, 61
1, 281872, Control_c, 0, 64, 65
1, 281873, Note_off_c, 0, 57, 61
1, 281887, Control_c, 0, 64, 70
1, 281902, Control_c, 0, 64, 78
1, 281916, Control_c, 0, 64, 89
1, 281931, Control_c, 0, 64, 99
1, 281939, Note_off_c, 0, 48, 33
1, 281946, Control_c, 0, 64, 102
1, 281976, Control_c, 0, 64, 101
1, 281987, Note_on_c, 0, 67, 70
1, 281998, Note_on_c, 0, 48, 40
1, 282005, Control_c, 0, 64, 100
1, 282009, Note_off_c, 0, 36, 40
1, 282011, Note_on_c, 0, 58, 54
1, 282020, Control_c, 0, 64, 100
1, 282023, Note_off_c, 0, 65, 58
1, 282034, Control_c, 0, 64, 99
1, 282047, Note_off_c, 0, 58, 59
1, 282048, Note_off_c, 0, 60, 57
1, 282049, Control_c, 0, 64, 97
1, 282064, Control_c, 0, 64, 95
1, 282079, Control_c, 0, 64, 93
1, 282094, Control_c, 0, 64, 91
1, 282108, Control_c, 0, 64, 89
1, 282123, Control_c, 0, 64, 87
1, 282138, Control_c, 0, 64, 85
1, 282162, Control_c, 0, 64, 81
1, 282177, Control_c, 0, 64, 79
1, 282192, Control_c, 0, 64, 77
1, 282200, Note_on_c, 0, 60, 60
1, 282203, Note_on_c, 0, 41, 42
1, 282206, Control_c, 0, 64, 76
1, 282215, Note_off_c, 0, 48, 37
1, 282221, Control_c, 0, 64, 75
1, 282232, Note_on_c, 0, 58, 45
1, 282236, Control_c, 0, 64, 74
1, 282251, Control_c, 0, 64, 72
1, 282265, Control_c, 0, 64, 70
1, 282280, Control_c, 0, 64, 68
1, 282295, Control_c, 0, 64, 66
1, 282296, Note_off_c, 0, 67, 35
1, 282310, Control_c, 0, 64, 65
1, 282325, Control_c, 0, 64, 64
1, 282339, Control_c, 0, 64, 63
1, 282354, Control_c, 0, 64, 63
1, 282356, Note_off_c, 0, 58, 58
1, 282384, Control_c, 0, 64, 62
1, 282399, Control_c, 0, 64, 61
1, 282409, Note_on_c, 0, 48, 38
1, 282412, Note_on_c, 0, 65, 55
1, 282413, Control_c, 0, 64, 61
1, 282421, Note_on_c, 0, 57, 37
1, 282427, Control_c, 0, 64, 60
1, 282457, Control_c, 0, 64, 60
1, 282472, Control_c, 0, 64, 59
1, 282487, Control_c, 0, 64, 59
1, 282493, Note_off_c, 0, 57, 52
1, 282496, Note_off_c, 0, 60, 58
1, 282516, Control_c, 0, 64, 58
1, 282517, Note_off_c, 0, 65, 60
1, 282546, Control_c, 0, 64, 58
1, 282573, Note_off_c, 0, 48, 42
1, 282576, Control_c, 0, 64, 57
1, 282591, Control_c, 0, 64, 57
1, 282599, Note_on_c, 0, 65, 54
1, 282609, Note_on_c, 0, 45, 34
1, 282627, Note_on_c, 0, 57, 23
1, 282653, Note_on_c, 0, 60, 16
1, 282678, Note_off_c, 0, 57, 46
1, 282693, Note_off_c, 0, 60, 45
1, 282698, Note_off_c, 0, 65, 61
1, 282709, Control_c, 0, 64, 56
1, 282787, Note_on_c, 0, 48, 45
1, 282797, Control_c, 0, 64, 56
1, 282800, Note_on_c, 0, 65, 54
1, 282812, Note_on_c, 0, 60, 37
1, 282812, Note_off_c, 0, 45, 40
1, 282819, Note_on_c, 0, 57, 39
1, 282827, Control_c, 0, 64, 55
1, 282856, Control_c, 0, 64, 55
1, 282862, Note_off_c, 0, 60, 57
1, 282865, Note_off_c, 0, 57, 52
1, 282881, Note_off_c, 0, 65, 58
1, 282886, Control_c, 0, 64, 54
1, 282909, Control_c, 0, 64, 54
1, 282924, Control_c, 0, 64, 53
1, 282938, Control_c, 0, 64, 52
1, 282942, Note_off_c, 0, 48, 57
1, 282953, Control_c, 0, 64, 51
1, 282969, Control_c, 0, 64, 50
1, 282999, Control_c, 0, 64, 52
1, 283011, Note_on_c, 0, 57, 28
1, 283014, Control_c, 0, 64, 58
1, 283019, Note_on_c, 0, 65, 45
1, 283022, Note_on_c, 0, 60, 34
1, 283029, Control_c, 0, 64, 64
1, 283030, Note_on_c, 0, 53, 28
1, 283034, Note_off_c, 0, 41, 41
1, 283043, Note_off_c, 0, 57, 54
1, 283043, Control_c, 0, 64, 69
1, 283056, Note_off_c, 0, 60, 61
1, 283058, Control_c, 0, 64, 78
1, 283073, Control_c, 0, 64, 95
1, 283087, Control_c, 0, 64, 127
1, 283089, Note_off_c, 0, 65, 62
1, 283097, Note_off_c, 0, 53, 60
1, 283240, Note_on_c, 0, 60, 40
1, 283245, Note_on_c, 0, 57, 44
1, 283251, Note_on_c, 0, 72, 54
1, 283262, Note_on_c, 0, 69, 48
1, 283303, Note_off_c, 0, 60, 57
1, 283310, Note_off_c, 0, 57, 54
1, 283316, Note_off_c, 0, 69, 54
1, 283332, Note_off_c, 0, 72, 56
1, 283399, Control_c, 0, 64, 111
1, 283413, Control_c, 0, 64, 88
1, 283428, Control_c, 0, 64, 71
1, 283443, Control_c, 0, 64, 60
1, 283455, Note_on_c, 0, 77, 67
1, 283458, Note_on_c, 0, 57, 40
1, 283458, Control_c, 0, 64, 52
1, 283462, Note_on_c, 0, 65, 40
1, 283473, Control_c, 0, 64, 56
1, 283480, Note_on_c, 0, 72, 40
1, 283487, Note_on_c, 0, 60, 4
1, 283487, Control_c, 0, 64, 60
1, 283502, Control_c, 0, 64, 63
1, 283517, Control_c, 0, 64, 67
1, 283518, Note_off_c, 0, 57, 58
1, 283527, Note_off_c, 0, 72, 45
1, 283532, Control_c, 0, 64, 71
1, 283545, Note_off_c, 0, 60, 38
1, 283547, Control_c, 0, 64, 79
1, 283560, Note_off_c, 0, 65, 50
1, 283561, Control_c, 0, 64, 91
1, 283576, Control_c, 0, 64, 105
1, 283591, Control_c, 0, 64, 127
1, 283635, Control_c, 0, 64, 108
1, 283658, Control_c, 0, 64, 80
1, 283667, Note_off_c, 0, 77, 58
1, 283673, Control_c, 0, 64, 64
1, 283687, Control_c, 0, 64, 49
1, 283688, Note_on_c, 0, 60, 22
1, 283695, Note_on_c, 0, 79, 61
1, 283702, Control_c, 0, 64, 49
1, 283703, Note_on_c, 0, 64, 29
1, 283704, Note_on_c, 0, 67, 35
1, 283709, Note_on_c, 0, 76, 36
1, 283717, Control_c, 0, 64, 56
1, 283732, Control_c, 0, 64, 61
1, 283733, Note_on_c, 0, 72, 28
1, 283747, Control_c, 0, 64, 65
1, 283759, Note_off_c, 0, 64, 63
1, 283762, Control_c, 0, 64, 71
1, 283763, Note_off_c, 0, 67, 63
1, 283775, Note_off_c, 0, 60, 63
1, 283777, Control_c, 0, 64, 82
1, 283787, Note_off_c, 0, 72, 46
1, 283792, Control_c, 0, 64, 100
1, 283805, Note_off_c, 0, 76, 63
1, 283807, Control_c, 0, 64, 127
1, 283821, Note_off_c, 0, 79, 66
1, 283925, Control_c, 0, 64, 94
1, 283935, Note_on_c, 0, 53, 53
1, 283940, Control_c, 0, 64, 69
1, 283955, Control_c, 0, 64, 54
1, 283970, Control_c, 0, 64, 44
1, 283984, Control_c, 0, 64, 52
1, 283999, Control_c, 0, 64, 60
1, 284014, Control_c, 0, 64, 65
1, 284028, Control_c, 0, 64, 72
1, 284029, Note_off_c, 0, 53, 64
1, 284043, Control_c, 0, 64, 83
1, 284058, Control_c, 0, 64, 105
1, 284073, Control_c, 0, 64, 127
1, 284174, Note_on_c, 0, 81, 63
1, 284182, Note_on_c, 0, 60, 39
1, 284187, Note_on_c, 0, 69, 42
1, 284210, Note_on_c, 0, 72, 28
1, 284248, Note_off_c, 0, 60, 56
1, 284251, Note_off_c, 0, 72, 49
1, 284251, Poly_aftertouch_c, 0, 65, 127
1, 284255, Note_off_c, 0, 69, 55
1, 284271, Note_off_c, 0, 81, 59
1, 284285, Poly_aftertouch_c, 0, 77, 0
1, 284297, Poly_aftertouch_c, 0, 65, 0
1, 284376, Note_on_c, 0, 81, 74
1, 284383, Note_on_c, 0, 69, 56
1, 284384, Note_on_c, 0, 65, 32
1, 284388, Note_on_c, 0, 77, 52
1, 284389, Note_on_c, 0, 60, 41
1, 284406, Note_on_c, 0, 72, 36
1, 284433, Note_off_c, 0, 77, 60
1, 284439, Note_off_c, 0, 69, 57
1, 284440, Note_off_c, 0, 72, 52
1, 284441, Note_off_c, 0, 60, 57
1, 284452, Note_off_c, 0, 65, 51
1, 284461, Note_off_c, 0, 81, 59
1, 284525, Control_c, 0, 64, 123
1, 284564, Note_on_c, 0, 69, 58
1, 284569, Note_on_c, 0, 65, 42
1, 284570, Note_on_c, 0, 81, 81
1, 284577, Note_on_c, 0, 60, 45
1, 284586, Note_on_c, 0, 72, 52
1, 284603, Note_on_c, 0, 77, 43
1, 284606, Note_off_c, 0, 69, 60
1, 284612, Note_off_c, 0, 60, 64
1, 284615, Control_c, 0, 64, 121
1, 284618, Note_off_c, 0, 72, 64
1, 284620, Note_off_c, 0, 65, 58
1, 284628, Note_off_c, 0, 77, 54
1, 284630, Control_c, 0, 64, 117
1, 284645, Control_c, 0, 64, 116
1, 284659, Control_c, 0, 64, 115
1, 284674, Control_c, 0, 64, 114
1, 284689, Control_c, 0, 64, 113
1, 284704, Control_c, 0, 64, 110
1, 284719, Control_c, 0, 64, 105
1, 284733, Control_c, 0, 64, 99
1, 284748, Control_c, 0, 64, 89
1, 284752, Note_off_c, 0, 81, 62
1, 284763, Control_c, 0, 64, 78
1, 284767, Note_on_c, 0, 80, 77
1, 284768, Note_on_c, 0, 59, 39
1, 284772, Note_on_c, 0, 68, 53
1, 284778, Control_c, 0, 64, 67
1, 284785, Note_on_c, 0, 77, 52
1, 284791, Note_on_c, 0, 71, 57
1, 284793, Control_c, 0, 64, 61
1, 284807, Control_c, 0, 64, 58
1, 284822, Control_c, 0, 64, 60
1, 284837, Control_c, 0, 64, 61
1, 284845, Note_off_c, 0, 71, 55
1, 284847, Poly_aftertouch_c, 0, 65, 127
1, 284851, Control_c, 0, 64, 63
1, 284866, Control_c, 0, 64, 67
1, 284881, Control_c, 0, 64, 71
1, 284896, Control_c, 0, 64, 77
1, 284911, Note_off_c, 0, 59, 52
1, 284911, Control_c, 0, 64, 85
1, 284921, Poly_aftertouch_c, 0, 65, 0
1, 284925, Note_off_c, 0, 68, 59
1, 284926, Control_c, 0, 64, 99
1, 284940, Control_c, 0, 64, 127
1, 284958, Poly_aftertouch_c, 0, 65, 127
1, 284958, Note_on_c, 0, 69, 60
1, 284961, Note_off_c, 0, 77, 0
1, 284967, Note_on_c, 0, 81, 82
1, 284969, Note_on_c, 0, 60, 50
1, 284979, Note_on_c, 0, 77, 19
1, 284981, Note_on_c, 0, 72, 66
1, 285013, Note_off_c, 0, 80, 62
1, 285013, Note_off_c, 0, 77, 59
1, 285014, Note_off_c, 0, 72, 61
1, 285070, Note_off_c, 0, 69, 60
1, 285073, Note_off_c, 0, 60, 58
1, 285075, Note_off_c, 0, 81, 60
1, 285101, Poly_aftertouch_c, 0, 65, 0
1, 285119, Control_c, 0, 64, 113
1, 285133, Control_c, 0, 64, 83
1, 285155, Control_c, 0, 64, 65
1, 285164, Note_on_c, 0, 69, 74
1, 285164, Note_on_c, 0, 81, 89
1, 285170, Control_c, 0, 64, 58
1, 285172, Note_on_c, 0, 60, 52
1, 285178, Note_on_c, 0, 65, 45
1, 285180, Note_on_c, 0, 77, 62
1, 285184, Control_c, 0, 64, 62
1, 285187, Note_on_c, 0, 72, 54
1, 285199, Control_c, 0, 64, 66
1, 285210, Note_off_c, 0, 72, 60
1, 285211, Note_off_c, 0, 77, 63
1, 285214, Control_c, 0, 64, 72
1, 285223, Note_off_c, 0, 65, 60
1, 285225, Note_off_c, 0, 60, 60
1, 285229, Control_c, 0, 64, 84
1, 285240, Note_off_c, 0, 69, 55
1, 285244, Control_c, 0, 64, 127
1, 285257, Note_off_c, 0, 81, 62
1, 285351, Note_on_c, 0, 81, 97
1, 285359, Note_on_c, 0, 69, 68
1, 285363, Note_on_c, 0, 60, 50
1, 285376, Note_on_c, 0, 65, 36
1, 285377, Note_on_c, 0, 77, 56
1, 285378, Note_on_c, 0, 72, 53
1, 285396, Note_off_c, 0, 77, 60
1, 285399, Note_off_c, 0, 72, 61
1, 285402, Note_off_c, 0, 69, 57
1, 285411, Note_off_c, 0, 60, 60
1, 285412, Note_off_c, 0, 65, 57
1, 285437, Note_off_c, 0, 81, 64
1, 285560, Note_on_c, 0, 58, 48
1, 285589, Note_on_c, 0, 84, 88
1, 285600, Control_c, 0, 64, 119
1, 285602, Note_on_c, 0, 77, 18
1, 285615, Control_c, 0, 64, 108
1, 285620, Note_on_c, 0, 75, 52
1, 285629, Control_c, 0, 64, 103
1, 285644, Control_c, 0, 64, 97
1, 285659, Control_c, 0, 64, 91
1, 285673, Control_c, 0, 64, 86
1, 285688, Control_c, 0, 64, 82
1, 285703, Control_c, 0, 64, 79
1, 285718, Control_c, 0, 64, 78
1, 285733, Control_c, 0, 64, 78
1, 285757, Note_off_c, 0, 75, 60
1, 285763, Control_c, 0, 64, 77
1, 285778, Control_c, 0, 64, 74
1, 285792, Control_c, 0, 64, 65
1, 285804, Note_on_c, 0, 82, 79
1, 285807, Control_c, 0, 64, 52
1, 285809, Note_on_c, 0, 62, 41
1, 285813, Note_on_c, 0, 65, 43
1, 285813, Note_on_c, 0, 70, 48
1, 285819, Note_on_c, 0, 74, 50
1, 285822, Control_c, 0, 64, 29
1, 285837, Control_c, 0, 64, 24
1, 285848, Note_off_c, 0, 84, 61
1, 285852, Control_c, 0, 64, 25
1, 285867, Control_c, 0, 64, 34
1, 285873, Note_off_c, 0, 65, 57
1, 285874, Note_off_c, 0, 70, 59
1, 285880, Note_off_c, 0, 74, 52
1, 285881, Control_c, 0, 64, 49
1, 285892, Note_off_c, 0, 77, 41
1, 285894, Note_off_c, 0, 62, 60
1, 285896, Control_c, 0, 64, 57
1, 285918, Control_c, 0, 64, 61
1, 285932, Note_off_c, 0, 82, 64
1, 285933, Control_c, 0, 64, 65
1, 285948, Control_c, 0, 64, 69
1, 285962, Control_c, 0, 64, 78
1, 285977, Control_c, 0, 64, 104
1, 285992, Control_c, 0, 64, 127
1, 286000, Note_on_c, 0, 62, 43
1, 286001, Note_on_c, 0, 70, 59
1, 286004, Note_on_c, 0, 82, 79
1, 286012, Note_on_c, 0, 74, 60
1, 286013, Note_on_c, 0, 65, 48
1, 286015, Note_on_c, 0, 77, 54
1, 286049, Note_off_c, 0, 74, 62
1, 286052, Note_off_c, 0, 77, 61
1, 286052, Note_off_c, 0, 65, 62
1, 286052, Note_off_c, 0, 70, 54
1, 286057, Note_off_c, 0, 62, 59
1, 286082, Note_off_c, 0, 82, 63
1, 286188, Note_on_c, 0, 70, 56
1, 286190, Note_on_c, 0, 65, 43
1, 286194, Note_on_c, 0, 82, 74
1, 286201, Note_on_c, 0, 62, 42
1, 286228, Note_on_c, 0, 77, 26
1, 286235, Note_on_c, 0, 74, 18
1, 286236, Note_off_c, 0, 65, 59
1, 286237, Note_off_c, 0, 70, 52
1, 286242, Note_off_c, 0, 62, 61
1, 286266, Note_off_c, 0, 77, 38
1, 286269, Note_off_c, 0, 82, 60
1, 286274, Note_off_c, 0, 74, 43
1, 286380, Note_on_c, 0, 70, 49
1, 286391, Note_on_c, 0, 82, 65
1, 286392, Note_on_c, 0, 65, 39
1, 286411, Note_on_c, 0, 62, 14
1, 286417, Note_on_c, 0, 74, 40
1, 286433, Note_off_c, 0, 65, 63
1, 286450, Note_off_c, 0, 74, 55
1, 286457, Note_off_c, 0, 62, 49
1, 286460, Note_off_c, 0, 82, 61
1, 286543, Note_off_c, 0, 70, 44
1, 286556, Control_c, 0, 64, 109
1, 286571, Control_c, 0, 64, 85
1, 286578, Note_on_c, 0, 62, 41
1, 286585, Control_c, 0, 64, 72
1, 286586, Note_on_c, 0, 69, 48
1, 286591, Note_on_c, 0, 81, 68
1, 286595, Note_on_c, 0, 66, 46
1, 286600, Control_c, 0, 64, 65
1, 286615, Control_c, 0, 64, 63
1, 286624, Note_on_c, 0, 74, 20
1, 286627, Note_on_c, 0, 72, 45
1, 286630, Control_c, 0, 64, 65
1, 286652, Control_c, 0, 64, 67
1, 286663, Note_off_c, 0, 72, 58
1, 286667, Note_off_c, 0, 74, 48
1, 286667, Control_c, 0, 64, 70
1, 286681, Note_off_c, 0, 66, 59
1, 286682, Control_c, 0, 64, 75
1, 286697, Control_c, 0, 64, 83
1, 286711, Control_c, 0, 64, 99
1, 286726, Control_c, 0, 64, 127
1, 286771, Control_c, 0, 64, 95
1, 286785, Control_c, 0, 64, 74
1, 286796, Note_on_c, 0, 79, 74
1, 286799, Note_on_c, 0, 67, 55
1, 286800, Control_c, 0, 64, 63
1, 286809, Note_on_c, 0, 74, 50
1, 286815, Note_on_c, 0, 70, 59
1, 286815, Control_c, 0, 64, 58
1, 286823, Note_off_c, 0, 58, 42
1, 286824, Note_off_c, 0, 69, 61
1, 286830, Control_c, 0, 64, 62
1, 286845, Control_c, 0, 64, 67
1, 286860, Control_c, 0, 64, 75
1, 286875, Control_c, 0, 64, 93
1, 286889, Control_c, 0, 64, 127
1, 286923, Note_off_c, 0, 67, 54
1, 286940, Note_off_c, 0, 70, 60
1, 286949, Control_c, 0, 64, 89
1, 286955, Note_off_c, 0, 81, 63
1, 286964, Control_c, 0, 64, 70
1, 286979, Control_c, 0, 64, 64
1, 286990, Note_on_c, 0, 77, 72
1, 286994, Control_c, 0, 64, 66
1, 286997, Note_on_c, 0, 59, 50
1, 287006, Note_on_c, 0, 65, 36
1, 287006, Note_on_c, 0, 69, 54
1, 287009, Control_c, 0, 64, 72
1, 287024, Control_c, 0, 64, 83
1, 287033, Note_off_c, 0, 59, 64
1, 287034, Note_off_c, 0, 62, 57
1, 287037, Note_off_c, 0, 79, 58
1, 287039, Control_c, 0, 64, 103
1, 287039, Note_off_c, 0, 65, 48
1, 287042, Note_off_c, 0, 74, 62
1, 287053, Control_c, 0, 64, 127
1, 287059, Note_off_c, 0, 69, 56
1, 287081, Note_off_c, 0, 77, 61
1, 287172, Control_c, 0, 64, 114
1, 287187, Control_c, 0, 64, 78
1, 287201, Control_c, 0, 64, 62
1, 287209, Note_on_c, 0, 48, 43
1, 287216, Note_on_c, 0, 77, 72
1, 287216, Control_c, 0, 64, 45
1, 287231, Control_c, 0, 64, 47
1, 287240, Note_on_c, 0, 69, 46
1, 287245, Control_c, 0, 64, 55
1, 287260, Control_c, 0, 64, 61
1, 287275, Control_c, 0, 64, 65
1, 287290, Control_c, 0, 64, 72
1, 287298, Note_off_c, 0, 48, 64
1, 287305, Control_c, 0, 64, 83
1, 287316, Poly_aftertouch_c, 0, 72, 127
1, 287319, Note_off_c, 0, 69, 56
1, 287319, Control_c, 0, 64, 104
1, 287334, Control_c, 0, 64, 127
1, 287376, Poly_aftertouch_c, 0, 72, 0
1, 287446, Control_c, 0, 64, 117
1, 287447, Note_on_c, 0, 60, 39
1, 287447, Note_on_c, 0, 76, 65
1, 287453, Note_on_c, 0, 64, 37
1, 287453, Note_on_c, 0, 72, 29
1, 287454, Note_on_c, 0, 55, 36
1, 287460, Control_c, 0, 64, 106
1, 287475, Control_c, 0, 64, 99
1, 287477, Note_on_c, 0, 67, 24
1, 287485, Note_off_c, 0, 77, 60
1, 287490, Control_c, 0, 64, 95
1, 287505, Control_c, 0, 64, 92
1, 287514, Note_off_c, 0, 72, 54
1, 287515, Note_off_c, 0, 55, 57
1, 287520, Control_c, 0, 64, 90
1, 287523, Note_off_c, 0, 67, 48
1, 287526, Note_off_c, 0, 64, 53
1, 287528, Note_off_c, 0, 60, 53
1, 287534, Control_c, 0, 64, 88
1, 287536, Note_off_c, 0, 76, 62
1, 287549, Control_c, 0, 64, 87
1, 287564, Control_c, 0, 64, 85
1, 287579, Control_c, 0, 64, 81
1, 287594, Control_c, 0, 64, 73
1, 287608, Control_c, 0, 64, 63
1, 287623, Control_c, 0, 64, 42
1, 287635, Note_on_c, 0, 60, 9
1, 287635, Note_on_c, 0, 76, 65
1, 287638, Control_c, 0, 64, 23
1, 287641, Note_on_c, 0, 55, 44
1, 287643, Note_on_c, 0, 64, 41
1, 287647, Note_on_c, 0, 72, 46
1, 287647, Note_on_c, 0, 67, 35
1, 287653, Control_c, 0, 64, 30
1, 287667, Control_c, 0, 64, 43
1, 287682, Control_c, 0, 64, 54
1, 287696, Note_off_c, 0, 64, 59
1, 287697, Note_off_c, 0, 55, 57
1, 287697, Control_c, 0, 64, 61
1, 287700, Note_off_c, 0, 72, 55
1, 287700, Note_off_c, 0, 67, 53
1, 287708, Note_off_c, 0, 60, 51
1, 287712, Control_c, 0, 64, 64
1, 287727, Note_off_c, 0, 76, 61
1, 287727, Control_c, 0, 64, 67
1, 287742, Control_c, 0, 64, 73
1, 287757, Control_c, 0, 64, 82
1, 287772, Control_c, 0, 64, 92
1, 287787, Control_c, 0, 64, 103
1, 287802, Control_c, 0, 64, 113
1, 287817, Control_c, 0, 64, 121
1, 287828, Note_on_c, 0, 76, 56
1, 287830, Note_on_c, 0, 55, 40
1, 287831, Control_c, 0, 64, 123
1, 287833, Note_on_c, 0, 64, 34
1, 287835, Note_on_c, 0, 60, 34
1, 287852, Note_on_c, 0, 72, 29
1, 287852, Note_on_c, 0, 67, 29
1, 287872, Note_off_c, 0, 64, 51
1, 287879, Note_off_c, 0, 55, 57
1, 287883, Note_off_c, 0, 60, 54
1, 287885, Note_off_c, 0, 76, 55
1, 287887, Note_off_c, 0, 72, 51
1, 287891, Note_off_c, 0, 67, 49
1, 287936, Control_c, 0, 64, 121
1, 287995, Control_c, 0, 64, 119
1, 288010, Control_c, 0, 64, 118
1, 288024, Note_on_c, 0, 55, 30
1, 288024, Control_c, 0, 64, 117
1, 288027, Note_on_c, 0, 76, 53
1, 288039, Control_c, 0, 64, 116
1, 288045, Note_on_c, 0, 60, 32
1, 288047, Note_on_c, 0, 64, 20
1, 288048, Note_on_c, 0, 67, 15
1, 288062, Note_off_c, 0, 55, 54
1, 288069, Note_on_c, 0, 72, 9
1, 288093, Note_off_c, 0, 64, 48
1, 288098, Note_off_c, 0, 60, 45
1, 288100, Note_off_c, 0, 67, 46
1, 288112, Note_off_c, 0, 76, 51
1, 288113, Control_c, 0, 64, 115
1, 288124, Note_off_c, 0, 72, 47
1, 288128, Control_c, 0, 64, 113
1, 288150, Control_c, 0, 64, 113
1, 288165, Control_c, 0, 64, 112
1, 288180, Control_c, 0, 64, 111
1, 288210, Control_c, 0, 64, 111
1, 288213, Note_on_c, 0, 55, 33
1, 288226, Note_on_c, 0, 64, 50
1, 288231, Note_on_c, 0, 76, 74
1, 288234, Note_on_c, 0, 67, 50
1, 288269, Control_c, 0, 64, 110
1, 288273, Note_on_c, 0, 72, 12
1, 288279, Note_off_c, 0, 64, 55
1, 288283, Control_c, 0, 64, 108
1, 288286, Note_on_c, 0, 60, 3
1, 288295, Note_off_c, 0, 67, 50
1, 288298, Control_c, 0, 64, 107
1, 288318, Note_off_c, 0, 72, 50
1, 288328, Control_c, 0, 64, 106
1, 288357, Control_c, 0, 64, 105
1, 288368, Note_off_c, 0, 60, 0
1, 288372, Control_c, 0, 64, 101
1, 288387, Control_c, 0, 64, 90
1, 288401, Control_c, 0, 64, 74
1, 288404, Poly_aftertouch_c, 0, 60, 127
1, 288416, Control_c, 0, 64, 64
1, 288418, Note_on_c, 0, 57, 36
1, 288425, Note_on_c, 0, 77, 69
1, 288431, Control_c, 0, 64, 56
1, 288434, Note_off_c, 0, 55, 33
1, 288443, Note_on_c, 0, 65, 42
1, 288446, Control_c, 0, 64, 55
1, 288454, Note_off_c, 0, 76, 63
1, 288457, Note_on_c, 0, 69, 39
1, 288460, Note_on_c, 0, 72, 29
1, 288461, Control_c, 0, 64, 58
1, 288475, Control_c, 0, 64, 61
1, 288490, Control_c, 0, 64, 65
1, 288498, Note_off_c, 0, 69, 58
1, 288505, Control_c, 0, 64, 69
1, 288507, Note_off_c, 0, 65, 57
1, 288508, Note_off_c, 0, 57, 53
1, 288520, Control_c, 0, 64, 76
1, 288535, Control_c, 0, 64, 88
1, 288551, Control_c, 0, 64, 123
1, 288566, Control_c, 0, 64, 127
1, 288590, Note_off_c, 0, 72, 0
1, 288615, Note_on_c, 0, 58, 45
1, 288621, Note_on_c, 0, 72, 9
1, 288627, Note_on_c, 0, 79, 69
1, 288653, Note_on_c, 0, 67, 37
1, 288654, Note_on_c, 0, 70, 41
1, 288669, Note_off_c, 0, 77, 58
1, 288687, Note_off_c, 0, 70, 53
1, 288696, Note_off_c, 0, 72, 42
1, 288714, Control_c, 0, 64, 116
1, 288715, Poly_aftertouch_c, 0, 60, 0
1, 288717, Note_off_c, 0, 67, 48
1, 288729, Control_c, 0, 64, 105
1, 288744, Control_c, 0, 64, 99
1, 288758, Control_c, 0, 64, 96
1, 288773, Control_c, 0, 64, 93
1, 288783, Note_off_c, 0, 58, 37
1, 288788, Control_c, 0, 64, 90
1, 288803, Control_c, 0, 64, 85
1, 288818, Control_c, 0, 64, 82
1, 288827, Note_on_c, 0, 53, 37
1, 288827, Note_on_c, 0, 72, 49
1, 288833, Control_c, 0, 64, 79
1, 288847, Control_c, 0, 64, 77
1, 288862, Note_on_c, 0, 70, 38
1, 288862, Control_c, 0, 64, 76
1, 288877, Control_c, 0, 64, 75
1, 288899, Control_c, 0, 64, 74
1, 288914, Control_c, 0, 64, 73
1, 288928, Control_c, 0, 64, 72
1, 288943, Control_c, 0, 64, 71
1, 288954, Note_off_c, 0, 79, 53
1, 288958, Control_c, 0, 64, 70
1, 288973, Control_c, 0, 64, 68
1, 288988, Control_c, 0, 64, 66
1, 288988, Note_off_c, 0, 70, 63
1, 289003, Control_c, 0, 64, 62
1, 289018, Control_c, 0, 64, 56
1, 289033, Control_c, 0, 64, 53
1, 289039, Note_on_c, 0, 57, 35
1, 289049, Note_on_c, 0, 77, 50
1, 289063, Note_on_c, 0, 60, 25
1, 289069, Note_on_c, 0, 69, 36
1, 289081, Note_on_c, 0, 65, 26
1, 289092, Control_c, 0, 64, 54
1, 289106, Control_c, 0, 64, 55
1, 289121, Note_off_c, 0, 60, 56
1, 289121, Control_c, 0, 64, 57
1, 289131, Note_off_c, 0, 72, 54
1, 289132, Note_off_c, 0, 65, 46
1, 289135, Note_off_c, 0, 57, 56
1, 289136, Control_c, 0, 64, 60
1, 289137, Note_off_c, 0, 69, 55
1, 289151, Control_c, 0, 64, 63
1, 289161, Note_off_c, 0, 77, 60
1, 289166, Control_c, 0, 64, 65
1, 289180, Control_c, 0, 64, 68
1, 289195, Control_c, 0, 64, 72
1, 289210, Control_c, 0, 64, 78
1, 289224, Control_c, 0, 64, 87
1, 289238, Note_on_c, 0, 57, 29
1, 289239, Control_c, 0, 64, 104
1, 289247, Note_on_c, 0, 77, 68
1, 289254, Control_c, 0, 64, 127
1, 289258, Note_on_c, 0, 60, 37
1, 289258, Note_on_c, 0, 65, 43
1, 289267, Note_on_c, 0, 69, 42
1, 289293, Note_off_c, 0, 60, 56
1, 289294, Note_on_c, 0, 72, 8
1, 289295, Note_off_c, 0, 65, 56
1, 289298, Note_off_c, 0, 57, 53
1, 289300, Note_off_c, 0, 69, 51
1, 289341, Note_off_c, 0, 72, 53
1, 289349, Note_off_c, 0, 77, 56
1, 289440, Note_on_c, 0, 65, 40
1, 289441, Note_on_c, 0, 60, 37
1, 289446, Note_on_c, 0, 57, 43
1, 289448, Note_on_c, 0, 77, 79
1, 289456, Note_on_c, 0, 72, 46
1, 289457, Note_on_c, 0, 69, 55
1, 289483, Note_off_c, 0, 57, 59
1, 289483, Note_off_c, 0, 72, 61
1, 289484, Note_off_c, 0, 60, 59
1, 289489, Note_off_c, 0, 65, 54
1, 289495, Note_off_c, 0, 69, 59
1, 289522, Note_off_c, 0, 77, 57
1, 289602, Note_on_c, 0, 57, 45
1, 289614, Note_on_c, 0, 60, 47
1, 289629, Note_on_c, 0, 77, 78
1, 289639, Note_on_c, 0, 69, 59
1, 289649, Note_on_c, 0, 65, 36
1, 289650, Note_off_c, 0, 57, 62
1, 289651, Note_off_c, 0, 60, 65
1, 289660, Note_off_c, 0, 53, 41
1, 289679, Note_off_c, 0, 65, 55
1, 289691, Note_off_c, 0, 69, 59
1, 289725, Note_off_c, 0, 77, 60
1, 289820, Note_on_c, 0, 60, 41
1, 289821, Note_on_c, 0, 57, 51
1, 289822, Note_on_c, 0, 65, 42
1, 289829, Note_on_c, 0, 77, 81
1, 289841, Note_on_c, 0, 72, 45
1, 289865, Note_off_c, 0, 72, 57
1, 289873, Note_off_c, 0, 60, 56
1, 289873, Note_off_c, 0, 65, 53
1, 289883, Note_off_c, 0, 77, 63
1, 289927, Note_on_c, 0, 77, 77
1, 290018, Control_c, 0, 64, 118
1, 290033, Control_c, 0, 64, 114
1, 290047, Control_c, 0, 64, 110
1, 290062, Control_c, 0, 64, 105
1, 290076, Note_on_c, 0, 65, 36
1, 290077, Control_c, 0, 64, 95
1, 290081, Note_on_c, 0, 69, 42
1, 290082, Note_on_c, 0, 81, 79
1, 290092, Control_c, 0, 64, 84
1, 290093, Note_on_c, 0, 60, 43
1, 290100, Note_on_c, 0, 72, 51
1, 290107, Control_c, 0, 64, 73
1, 290121, Control_c, 0, 64, 65
1, 290131, Note_off_c, 0, 57, 55
1, 290136, Control_c, 0, 64, 58
1, 290152, Control_c, 0, 64, 57
1, 290154, Note_off_c, 0, 77, 62
1, 290167, Control_c, 0, 64, 60
1, 290170, Note_off_c, 0, 60, 58
1, 290179, Note_off_c, 0, 65, 53
1, 290182, Control_c, 0, 64, 63
1, 290197, Control_c, 0, 64, 66
1, 290212, Control_c, 0, 64, 71
1, 290226, Control_c, 0, 64, 78
1, 290241, Control_c, 0, 64, 92
1, 290256, Control_c, 0, 64, 127
1, 290257, Note_off_c, 0, 72, 57
1, 290314, Note_off_c, 0, 69, 37
1, 290327, Note_on_c, 0, 65, 48
1, 290343, Note_on_c, 0, 57, 39
1, 290356, Note_off_c, 0, 65, 64
1, 290372, Note_off_c, 0, 57, 60
1, 290374, Note_off_c, 0, 81, 55
1, 290407, Note_on_c, 0, 77, 73
1, 290424, Note_on_c, 0, 72, 50
1, 290425, Poly_aftertouch_c, 0, 60, 0
1, 290434, Note_on_c, 0, 69, 44
1, 290461, Note_off_c, 0, 72, 56
1, 290471, Note_off_c, 0, 69, 50
1, 290495, Note_off_c, 0, 77, 60
1, 290544, Control_c, 0, 64, 96
1, 290559, Control_c, 0, 64, 78
1, 290574, Control_c, 0, 64, 64
1, 290580, Note_on_c, 0, 77, 77
1, 290586, Note_on_c, 0, 48, 41
1, 290589, Control_c, 0, 64, 43
1, 290592, Note_on_c, 0, 69, 45
1, 290604, Control_c, 0, 64, 28
1, 290619, Control_c, 0, 64, 38
1, 290633, Control_c, 0, 64, 51
1, 290648, Control_c, 0, 64, 59
1, 290663, Control_c, 0, 64, 64
1, 290666, Note_off_c, 0, 69, 54
1, 290667, Note_off_c, 0, 48, 63
1, 290678, Control_c, 0, 64, 70
1, 290693, Control_c, 0, 64, 79
1, 290708, Control_c, 0, 64, 94
1, 290723, Control_c, 0, 64, 127
1, 290767, Control_c, 0, 64, 121
1, 290782, Control_c, 0, 64, 111
1, 290797, Control_c, 0, 64, 108
1, 290812, Control_c, 0, 64, 104
1, 290812, Note_on_c, 0, 76, 73
1, 290813, Note_on_c, 0, 64, 43
1, 290815, Note_on_c, 0, 55, 37
1, 290816, Note_on_c, 0, 60, 37
1, 290826, Control_c, 0, 64, 99
1, 290835, Note_on_c, 0, 72, 45
1, 290841, Control_c, 0, 64, 94
1, 290845, Note_on_c, 0, 67, 34
1, 290846, Note_off_c, 0, 77, 62
1, 290856, Control_c, 0, 64, 91
1, 290865, Note_off_c, 0, 72, 55
1, 290870, Control_c, 0, 64, 87
1, 290874, Note_off_c, 0, 55, 56
1, 290874, Note_off_c, 0, 60, 56
1, 290875, Note_off_c, 0, 64, 55
1, 290878, Note_off_c, 0, 67, 52
1, 290885, Control_c, 0, 64, 84
1, 290900, Control_c, 0, 64, 82
1, 290904, Note_off_c, 0, 76, 60
1, 290915, Control_c, 0, 64, 79
1, 290930, Control_c, 0, 64, 77
1, 290946, Control_c, 0, 64, 74
1, 290961, Control_c, 0, 64, 68
1, 290975, Control_c, 0, 64, 62
1, 290990, Control_c, 0, 64, 50
1, 291002, Note_on_c, 0, 76, 71
1, 291005, Control_c, 0, 64, 41
1, 291010, Note_on_c, 0, 64, 45
1, 291011, Note_on_c, 0, 67, 35
1, 291012, Note_on_c, 0, 55, 37
1, 291019, Note_on_c, 0, 60, 32
1, 291019, Note_on_c, 0, 72, 45
1, 291035, Control_c, 0, 64, 44
1, 291049, Control_c, 0, 64, 50
1, 291061, Note_off_c, 0, 72, 60
1, 291062, Note_off_c, 0, 55, 56
1, 291063, Note_off_c, 0, 64, 58
1, 291063, Note_off_c, 0, 67, 56
1, 291064, Control_c, 0, 64, 56
1, 291066, Note_off_c, 0, 60, 55
1, 291079, Control_c, 0, 64, 59
1, 291090, Note_off_c, 0, 76, 60
1, 291093, Control_c, 0, 64, 62
1, 291108, Control_c, 0, 64, 65
1, 291123, Control_c, 0, 64, 68
1, 291146, Control_c, 0, 64, 74
1, 291161, Control_c, 0, 64, 81
1, 291175, Control_c, 0, 64, 89
1, 291190, Control_c, 0, 64, 97
1, 291201, Note_on_c, 0, 64, 40
1, 291205, Control_c, 0, 64, 100
1, 291206, Note_on_c, 0, 67, 44
1, 291206, Note_on_c, 0, 76, 65
1, 291211, Note_on_c, 0, 55, 39
1, 291212, Note_on_c, 0, 60, 35
1, 291215, Note_on_c, 0, 72, 41
1, 291241, Note_off_c, 0, 67, 52
1, 291247, Note_off_c, 0, 64, 49
1, 291247, Note_off_c, 0, 72, 55
1, 291254, Note_off_c, 0, 55, 55
1, 291259, Note_off_c, 0, 76, 56
1, 291262, Note_off_c, 0, 60, 49
1, 291323, Control_c, 0, 64, 100
1, 291338, Control_c, 0, 64, 99
1, 291367, Control_c, 0, 64, 99
1, 291395, Note_on_c, 0, 76, 56
1, 291397, Note_on_c, 0, 55, 36
1, 291406, Note_on_c, 0, 60, 38
1, 291413, Note_on_c, 0, 64, 29
1, 291427, Control_c, 0, 64, 98
1, 291429, Note_off_c, 0, 55, 54
1, 291436, Note_on_c, 0, 67, 6
1, 291448, Note_off_c, 0, 64, 51
1, 291452, Note_off_c, 0, 60, 56
1, 291456, Control_c, 0, 64, 98
1, 291461, Poly_aftertouch_c, 0, 72, 127
1, 291483, Note_off_c, 0, 76, 59
1, 291486, Note_off_c, 0, 67, 44
1, 291486, Control_c, 0, 64, 97
1, 291508, Poly_aftertouch_c, 0, 72, 0
1, 291531, Control_c, 0, 64, 97
1, 291561, Control_c, 0, 64, 96
1, 291575, Note_on_c, 0, 55, 28
1, 291586, Note_on_c, 0, 64, 38
1, 291598, Note_on_c, 0, 76, 60
1, 291605, Note_on_c, 0, 67, 44
1, 291605, Control_c, 0, 64, 96
1, 291619, Control_c, 0, 64, 95
1, 291634, Control_c, 0, 64, 95
1, 291639, Note_off_c, 0, 64, 58
1, 291645, Note_off_c, 0, 67, 51
1, 291649, Control_c, 0, 64, 94
1, 291656, Poly_aftertouch_c, 0, 60, 127
1, 291664, Control_c, 0, 64, 94
1, 291679, Control_c, 0, 64, 93
1, 291693, Control_c, 0, 64, 93
1, 291708, Control_c, 0, 64, 92
1, 291723, Control_c, 0, 64, 91
1, 291739, Control_c, 0, 64, 87
1, 291750, Note_off_c, 0, 55, 32
1, 291754, Control_c, 0, 64, 75
1, 291757, Poly_aftertouch_c, 0, 60, 0
1, 291769, Control_c, 0, 64, 65
1, 291784, Control_c, 0, 64, 55
1, 291787, Note_on_c, 0, 77, 63
1, 291787, Note_on_c, 0, 57, 23
1, 291792, Note_off_c, 0, 76, 61
1, 291794, Poly_aftertouch_c, 0, 60, 127
1, 291798, Control_c, 0, 64, 53
1, 291805, Note_on_c, 0, 65, 41
1, 291810, Note_on_c, 0, 72, 30
1, 291813, Control_c, 0, 64, 56
1, 291826, Note_on_c, 0, 69, 33
1, 291828, Control_c, 0, 64, 59
1, 291843, Control_c, 0, 64, 63
1, 291847, Note_off_c, 0, 57, 44
1, 291858, Control_c, 0, 64, 65
1, 291865, Note_off_c, 0, 69, 57
1, 291872, Control_c, 0, 64, 69
1, 291873, Note_off_c, 0, 65, 55
1, 291894, Control_c, 0, 64, 75
1, 291909, Control_c, 0, 64, 84
1, 291924, Control_c, 0, 64, 95
1, 291939, Control_c, 0, 64, 106
1, 291954, Control_c, 0, 64, 107
1, 291963, Note_on_c, 0, 58, 41
1, 291984, Control_c, 0, 64, 107
1, 291997, Note_on_c, 0, 79, 62
1, 291998, Control_c, 0, 64, 106
1, 292013, Control_c, 0, 64, 105
1, 292016, Note_on_c, 0, 67, 42
1, 292028, Control_c, 0, 64, 104
1, 292033, Note_on_c, 0, 70, 32
1, 292043, Control_c, 0, 64, 102
1, 292049, Note_off_c, 0, 77, 47
1, 292058, Control_c, 0, 64, 100
1, 292069, Poly_aftertouch_c, 0, 60, 0
1, 292070, Note_off_c, 0, 70, 49
1, 292072, Note_off_c, 0, 67, 49
1, 292072, Control_c, 0, 64, 98
1, 292087, Control_c, 0, 64, 96
1, 292099, Note_off_c, 0, 72, 42
1, 292102, Control_c, 0, 64, 94
1, 292116, Control_c, 0, 64, 92
1, 292131, Control_c, 0, 64, 90
1, 292143, Note_off_c, 0, 58, 35
1, 292146, Control_c, 0, 64, 88
1, 292161, Control_c, 0, 64, 85
1, 292176, Control_c, 0, 64, 82
1, 292190, Control_c, 0, 64, 80
1, 292194, Note_on_c, 0, 53, 40
1, 292204, Note_on_c, 0, 70, 38
1, 292205, Control_c, 0, 64, 78
1, 292207, Note_on_c, 0, 72, 57
1, 292220, Control_c, 0, 64, 77
1, 292235, Control_c, 0, 64, 76
1, 292249, Control_c, 0, 64, 75
1, 292264, Control_c, 0, 64, 74
1, 292279, Control_c, 0, 64, 72
1, 292294, Control_c, 0, 64, 70
1, 292295, Note_off_c, 0, 79, 52
1, 292309, Control_c, 0, 64, 68
1, 292324, Control_c, 0, 64, 67
1, 292339, Control_c, 0, 64, 66
1, 292353, Control_c, 0, 64, 65
1, 292354, Note_off_c, 0, 70, 61
1, 292368, Control_c, 0, 64, 64
1, 292383, Control_c, 0, 64, 62
1, 292398, Control_c, 0, 64, 60
1, 292400, Note_on_c, 0, 57, 35
1, 292404, Note_on_c, 0, 77, 51
1, 292413, Control_c, 0, 64, 54
1, 292419, Note_on_c, 0, 69, 41
1, 292428, Control_c, 0, 64, 49
1, 292437, Note_on_c, 0, 60, 14
1, 292441, Note_on_c, 0, 65, 30
1, 292442, Control_c, 0, 64, 44
1, 292457, Control_c, 0, 64, 43
1, 292479, Note_off_c, 0, 69, 55
1, 292479, Note_off_c, 0, 72, 56
1, 292488, Note_off_c, 0, 65, 52
1, 292491, Note_off_c, 0, 60, 46
1, 292494, Note_off_c, 0, 57, 55
1, 292502, Control_c, 0, 64, 45
1, 292516, Control_c, 0, 64, 49
1, 292518, Note_off_c, 0, 77, 62
1, 292531, Control_c, 0, 64, 53
1, 292547, Control_c, 0, 64, 56
1, 292562, Control_c, 0, 64, 59
1, 292577, Control_c, 0, 64, 61
1, 292592, Control_c, 0, 64, 63
1, 292606, Note_on_c, 0, 57, 20
1, 292607, Control_c, 0, 64, 65
1, 292608, Note_on_c, 0, 77, 64
1, 292621, Control_c, 0, 64, 68
1, 292622, Note_on_c, 0, 69, 43
1, 292625, Note_on_c, 0, 65, 39
1, 292629, Note_on_c, 0, 60, 32
1, 292641, Note_on_c, 0, 72, 32
1, 292643, Control_c, 0, 64, 72
1, 292658, Control_c, 0, 64, 78
1, 292672, Note_off_c, 0, 69, 54
1, 292672, Control_c, 0, 64, 85
1, 292676, Note_off_c, 0, 60, 49
1, 292676, Note_off_c, 0, 65, 56
1, 292682, Note_off_c, 0, 72, 48
1, 292687, Control_c, 0, 64, 93
1, 292693, Note_off_c, 0, 57, 41
1, 292702, Control_c, 0, 64, 98
1, 292708, Note_off_c, 0, 77, 55
1, 292717, Control_c, 0, 64, 100
1, 292732, Control_c, 0, 64, 101
1, 292747, Control_c, 0, 64, 101
1, 292810, Note_on_c, 0, 57, 31
1, 292818, Note_on_c, 0, 65, 39
1, 292818, Note_on_c, 0, 60, 35
1, 292821, Note_on_c, 0, 77, 60
1, 292826, Note_on_c, 0, 69, 39
1, 292851, Control_c, 0, 64, 101
1, 292862, Note_off_c, 0, 65, 54
1, 292863, Note_off_c, 0, 60, 49
1, 292866, Note_off_c, 0, 77, 55
1, 292869, Note_off_c, 0, 57, 53
1, 292869, Poly_aftertouch_c, 0, 72, 127
1, 292874, Note_off_c, 0, 69, 45
1, 292880, Control_c, 0, 64, 100
1, 292892, Poly_aftertouch_c, 0, 72, 0
1, 292911, Poly_aftertouch_c, 0, 72, 0
1, 292954, Control_c, 0, 64, 100
1, 292999, Control_c, 0, 64, 99
1, 293036, Note_on_c, 0, 57, 16
1, 293049, Note_on_c, 0, 60, 24
1, 293056, Note_on_c, 0, 77, 51
1, 293059, Note_on_c, 0, 65, 30
1, 293071, Note_on_c, 0, 69, 14
1, 293096, Note_off_c, 0, 60, 57
1, 293105, Note_off_c, 0, 65, 57
1, 293106, Note_off_c, 0, 57, 51
1, 293117, Note_off_c, 0, 69, 52
1, 293133, Note_off_c, 0, 77, 61
1, 293137, Note_off_c, 0, 53, 41
1, 293206, Control_c, 0, 64, 99
1, 293292, Note_on_c, 0, 60, 46
1, 293296, Note_on_c, 0, 57, 35
1, 293311, Note_on_c, 0, 72, 41
1, 293355, Control_c, 0, 64, 98
1, 293356, Note_off_c, 0, 57, 58
1, 293369, Note_off_c, 0, 60, 55
1, 293370, Control_c, 0, 64, 98
1, 293410, Note_on_c, 0, 84, 47
1, 293466, Control_c, 0, 64, 97
1, 293469, Note_off_c, 0, 84, 54
1, 293481, Control_c, 0, 64, 92
1, 293492, Note_off_c, 0, 72, 28
1, 293495, Control_c, 0, 64, 82
1, 293510, Control_c, 0, 64, 72
1, 293525, Control_c, 0, 64, 64
1, 293528, Note_on_c, 0, 65, 57
1, 293538, Note_on_c, 0, 57, 31
1, 293539, Note_on_c, 0, 60, 30
1, 293540, Control_c, 0, 64, 62
1, 293546, Note_on_c, 0, 77, 35
1, 293555, Control_c, 0, 64, 64
1, 293570, Control_c, 0, 64, 67
1, 293582, Note_off_c, 0, 60, 64
1, 293582, Note_off_c, 0, 57, 62
1, 293585, Control_c, 0, 64, 70
1, 293599, Control_c, 0, 64, 75
1, 293614, Control_c, 0, 64, 83
1, 293615, Note_off_c, 0, 77, 46
1, 293618, Note_on_c, 0, 84, 47
1, 293623, Note_off_c, 0, 65, 63
1, 293629, Control_c, 0, 64, 92
1, 293644, Control_c, 0, 64, 107
1, 293659, Control_c, 0, 64, 127
1, 293714, Note_off_c, 0, 84, 54
1, 293718, Control_c, 0, 64, 121
1, 293733, Control_c, 0, 64, 87
1, 293748, Control_c, 0, 64, 70
1, 293752, Note_on_c, 0, 67, 63
1, 293757, Note_on_c, 0, 60, 37
1, 293763, Control_c, 0, 64, 61
1, 293769, Note_on_c, 0, 79, 42
1, 293775, Note_on_c, 0, 64, 44
1, 293777, Control_c, 0, 64, 59
1, 293792, Control_c, 0, 64, 63
1, 293807, Control_c, 0, 64, 66
1, 293822, Control_c, 0, 64, 72
1, 293829, Note_off_c, 0, 64, 62
1, 293835, Note_off_c, 0, 60, 63
1, 293836, Control_c, 0, 64, 82
1, 293839, Note_off_c, 0, 67, 63
1, 293850, Note_off_c, 0, 79, 56
1, 293851, Control_c, 0, 64, 101
1, 293866, Control_c, 0, 64, 127
1, 293868, Note_on_c, 0, 84, 41
1, 293960, Note_off_c, 0, 84, 54
1, 293999, Control_c, 0, 64, 107
1, 294008, Note_on_c, 0, 53, 45
1, 294014, Note_on_c, 0, 72, 48
1, 294014, Control_c, 0, 64, 76
1, 294029, Control_c, 0, 64, 59
1, 294044, Control_c, 0, 64, 30
1, 294059, Control_c, 0, 64, 36
1, 294073, Control_c, 0, 64, 50
1, 294088, Control_c, 0, 64, 61
1, 294100, Note_off_c, 0, 53, 63
1, 294103, Control_c, 0, 64, 66
1, 294118, Control_c, 0, 64, 73
1, 294125, Note_on_c, 0, 84, 41
1, 294141, Control_c, 0, 64, 87
1, 294156, Control_c, 0, 64, 127
1, 294185, Note_off_c, 0, 72, 36
1, 294217, Note_off_c, 0, 84, 52
1, 294224, Note_on_c, 0, 69, 56
1, 294256, Note_on_c, 0, 81, 36
1, 294271, Note_on_c, 0, 60, 9
1, 294285, Note_off_c, 0, 69, 56
1, 294297, Note_off_c, 0, 81, 53
1, 294306, Poly_aftertouch_c, 0, 65, 127
1, 294317, Note_on_c, 0, 72, 50
1, 294318, Note_off_c, 0, 60, 37
1, 294334, Poly_aftertouch_c, 0, 65, 0
1, 294363, Note_off_c, 0, 72, 58
1, 294428, Note_on_c, 0, 69, 64
1, 294446, Note_on_c, 0, 65, 41
1, 294446, Note_on_c, 0, 72, 44
1, 294456, Note_on_c, 0, 60, 23
1, 294491, Note_off_c, 0, 65, 57
1, 294493, Note_off_c, 0, 60, 48
1, 294512, Note_off_c, 0, 69, 53
1, 294515, Note_off_c, 0, 72, 58
1, 294518, Note_on_c, 0, 84, 52
1, 294597, Note_off_c, 0, 84, 58
1, 294610, Note_on_c, 0, 81, 58
1, 294616, Note_on_c, 0, 69, 78
1, 294621, Note_on_c, 0, 60, 35
1, 294636, Note_on_c, 0, 65, 42
1, 294670, Note_off_c, 0, 81, 57
1, 294679, Note_off_c, 0, 60, 60
1, 294684, Note_off_c, 0, 65, 55
1, 294690, Note_off_c, 0, 69, 59
1, 294703, Note_on_c, 0, 72, 59
1, 294739, Note_off_c, 0, 72, 62
1, 294778, Control_c, 0, 64, 111
1, 294792, Control_c, 0, 64, 94
1, 294805, Note_on_c, 0, 68, 79
1, 294807, Control_c, 0, 64, 77
1, 294819, Note_on_c, 0, 59, 54
1, 294822, Control_c, 0, 64, 64
1, 294837, Note_on_c, 0, 72, 55
1, 294837, Control_c, 0, 64, 53
1, 294840, Note_on_c, 0, 65, 26
1, 294851, Control_c, 0, 64, 52
1, 294866, Control_c, 0, 64, 56
1, 294889, Control_c, 0, 64, 60
1, 294904, Control_c, 0, 64, 63
1, 294909, Note_off_c, 0, 65, 38
1, 294911, Note_on_c, 0, 84, 54
1, 294914, Note_off_c, 0, 72, 57
1, 294918, Control_c, 0, 64, 67
1, 294933, Control_c, 0, 64, 70
1, 294943, Note_off_c, 0, 59, 57
1, 294949, Control_c, 0, 64, 76
1, 294964, Control_c, 0, 64, 86
1, 294979, Control_c, 0, 64, 99
1, 294981, Note_off_c, 0, 68, 63
1, 294981, Note_off_c, 0, 84, 59
1, 294989, Note_on_c, 0, 69, 82
1, 294992, Note_on_c, 0, 81, 62
1, 294994, Control_c, 0, 64, 118
1, 295009, Control_c, 0, 64, 127
1, 295019, Note_on_c, 0, 60, 48
1, 295038, Note_on_c, 0, 65, 19
1, 295053, Note_off_c, 0, 81, 60
1, 295077, Note_on_c, 0, 72, 62
1, 295096, Note_off_c, 0, 60, 54
1, 295105, Note_off_c, 0, 69, 62
1, 295107, Note_off_c, 0, 65, 41
1, 295108, Note_off_c, 0, 72, 66
1, 295141, Control_c, 0, 64, 118
1, 295156, Control_c, 0, 64, 99
1, 295171, Control_c, 0, 64, 80
1, 295185, Note_on_c, 0, 69, 88
1, 295186, Control_c, 0, 64, 67
1, 295195, Note_on_c, 0, 72, 64
1, 295201, Control_c, 0, 64, 60
1, 295209, Note_on_c, 0, 60, 49
1, 295215, Control_c, 0, 64, 62
1, 295230, Control_c, 0, 64, 65
1, 295239, Note_on_c, 0, 65, 18
1, 295243, Note_off_c, 0, 72, 59
1, 295245, Control_c, 0, 64, 69
1, 295248, Note_off_c, 0, 60, 59
1, 295260, Control_c, 0, 64, 76
1, 295266, Note_on_c, 0, 84, 63
1, 295275, Control_c, 0, 64, 89
1, 295281, Note_off_c, 0, 65, 41
1, 295281, Note_off_c, 0, 69, 57
1, 295290, Control_c, 0, 64, 127
1, 295322, Note_off_c, 0, 84, 62
1, 295372, Note_on_c, 0, 77, 74
1, 295373, Note_on_c, 0, 69, 90
1, 295377, Note_on_c, 0, 60, 45
1, 295385, Note_on_c, 0, 65, 56
1, 295401, Note_off_c, 0, 60, 59
1, 295417, Note_off_c, 0, 65, 64
1, 295442, Note_off_c, 0, 77, 61
1, 295447, Note_off_c, 0, 69, 59
1, 295464, Note_on_c, 0, 89, 72
1, 295537, Note_off_c, 0, 89, 56
1, 295539, Note_on_c, 0, 65, 13
1, 295556, Control_c, 0, 64, 105
1, 295571, Control_c, 0, 64, 78
1, 295580, Note_on_c, 0, 63, 45
1, 295586, Control_c, 0, 64, 65
1, 295590, Note_on_c, 0, 72, 76
1, 295592, Note_on_c, 0, 58, 60
1, 295601, Control_c, 0, 64, 53
1, 295612, Note_on_c, 0, 77, 62
1, 295615, Control_c, 0, 64, 51
1, 295638, Control_c, 0, 64, 55
1, 295653, Control_c, 0, 64, 60
1, 295654, Note_on_c, 0, 71, 5
1, 295667, Control_c, 0, 64, 64
1, 295682, Control_c, 0, 64, 67
1, 295697, Control_c, 0, 64, 72
1, 295698, Note_on_c, 0, 89, 63
1, 295704, Note_off_c, 0, 71, 28
1, 295711, Note_off_c, 0, 63, 56
1, 295712, Control_c, 0, 64, 78
1, 295715, Note_off_c, 0, 72, 65
1, 295727, Control_c, 0, 64, 85
1, 295736, Note_off_c, 0, 77, 56
1, 295743, Control_c, 0, 64, 94
1, 295758, Control_c, 0, 64, 103
1, 295772, Control_c, 0, 64, 115
1, 295787, Control_c, 0, 64, 127
1, 295805, Note_on_c, 0, 86, 66
1, 295812, Note_on_c, 0, 70, 80
1, 295817, Control_c, 0, 64, 111
1, 295821, Note_on_c, 0, 62, 55
1, 295822, Note_off_c, 0, 89, 57
1, 295832, Control_c, 0, 64, 91
1, 295846, Control_c, 0, 64, 74
1, 295861, Control_c, 0, 64, 63
1, 295876, Control_c, 0, 64, 60
1, 295886, Note_off_c, 0, 86, 59
1, 295891, Control_c, 0, 64, 63
1, 295896, Note_off_c, 0, 70, 61
1, 295904, Note_on_c, 0, 77, 69
1, 295904, Control_c, 0, 64, 66
1, 295909, Note_off_c, 0, 62, 54
1, 295919, Control_c, 0, 64, 70
1, 295934, Control_c, 0, 64, 76
1, 295934, Note_off_c, 0, 77, 65
1, 295936, Note_off_c, 0, 58, 51
1, 295948, Control_c, 0, 64, 88
1, 295963, Control_c, 0, 64, 110
1, 295978, Control_c, 0, 64, 127
1, 295990, Note_on_c, 0, 70, 83
1, 295990, Note_off_c, 0, 65, 0
1, 296003, Note_on_c, 0, 62, 39
1, 296003, Note_on_c, 0, 65, 37
1, 296005, Note_on_c, 0, 77, 77
1, 296047, Note_off_c, 0, 62, 62
1, 296059, Note_off_c, 0, 65, 58
1, 296062, Note_off_c, 0, 70, 56
1, 296076, Note_on_c, 0, 89, 75
1, 296093, Note_off_c, 0, 77, 60
1, 296174, Note_on_c, 0, 70, 84
1, 296175, Note_off_c, 0, 89, 59
1, 296178, Note_on_c, 0, 86, 66
1, 296187, Note_on_c, 0, 62, 51
1, 296190, Note_on_c, 0, 65, 60
1, 296234, Note_off_c, 0, 62, 61
1, 296242, Note_off_c, 0, 65, 52
1, 296252, Note_off_c, 0, 86, 59
1, 296267, Note_off_c, 0, 70, 58
1, 296269, Note_on_c, 0, 77, 66
1, 296298, Note_off_c, 0, 77, 66
1, 296364, Note_on_c, 0, 70, 81
1, 296366, Note_on_c, 0, 62, 52
1, 296372, Note_on_c, 0, 65, 46
1, 296387, Note_on_c, 0, 77, 72
1, 296417, Note_off_c, 0, 62, 61
1, 296418, Note_off_c, 0, 65, 65
1, 296455, Note_off_c, 0, 77, 63
1, 296458, Note_on_c, 0, 89, 64
1, 296469, Note_off_c, 0, 70, 61
1, 296518, Control_c, 0, 64, 102
1, 296523, Note_off_c, 0, 89, 61
1, 296534, Control_c, 0, 64, 80
1, 296549, Control_c, 0, 64, 66
1, 296562, Note_on_c, 0, 69, 78
1, 296564, Control_c, 0, 64, 58
1, 296565, Note_on_c, 0, 78, 65
1, 296579, Note_on_c, 0, 60, 52
1, 296579, Control_c, 0, 64, 59
1, 296583, Note_on_c, 0, 62, 48
1, 296593, Control_c, 0, 64, 63
1, 296608, Control_c, 0, 64, 66
1, 296623, Control_c, 0, 64, 71
1, 296638, Control_c, 0, 64, 82
1, 296639, Note_off_c, 0, 78, 60
1, 296651, Note_on_c, 0, 90, 73
1, 296654, Control_c, 0, 64, 114
1, 296657, Note_off_c, 0, 60, 51
1, 296668, Control_c, 0, 64, 127
1, 296716, Note_off_c, 0, 90, 61
1, 296727, Control_c, 0, 64, 88
1, 296735, Note_on_c, 0, 67, 72
1, 296738, Note_off_c, 0, 69, 60
1, 296742, Control_c, 0, 64, 71
1, 296747, Note_on_c, 0, 79, 70
1, 296750, Note_on_c, 0, 58, 38
1, 296757, Control_c, 0, 64, 64
1, 296772, Control_c, 0, 64, 65
1, 296786, Control_c, 0, 64, 70
1, 296797, Note_off_c, 0, 58, 62
1, 296801, Control_c, 0, 64, 77
1, 296808, Note_off_c, 0, 79, 63
1, 296816, Control_c, 0, 64, 89
1, 296828, Note_on_c, 0, 91, 73
1, 296831, Note_off_c, 0, 67, 60
1, 296831, Control_c, 0, 64, 127
1, 296854, Note_off_c, 0, 62, 26
1, 296864, Note_off_c, 0, 91, 62
1, 296890, Control_c, 0, 64, 87
1, 296905, Control_c, 0, 64, 68
1, 296920, Control_c, 0, 64, 57
1, 296929, Note_on_c, 0, 65, 59
1, 296932, Note_on_c, 0, 81, 63
1, 296932, Note_on_c, 0, 93, 76
1, 296935, Control_c, 0, 64, 58
1, 296935, Note_on_c, 0, 57, 50
1, 296949, Note_off_c, 0, 81, 65
1, 296950, Control_c, 0, 64, 64
1, 296965, Control_c, 0, 64, 70
1, 296971, Note_off_c, 0, 65, 61
1, 296974, Note_off_c, 0, 57, 66
1, 296980, Control_c, 0, 64, 78
1, 296994, Control_c, 0, 64, 88
1, 297009, Control_c, 0, 64, 101
1, 297010, Note_off_c, 0, 93, 66
1, 297019, Note_on_c, 0, 94, 78
1, 297024, Control_c, 0, 64, 127
1, 297049, Note_on_c, 0, 82, 35
1, 297068, Control_c, 0, 64, 111
1, 297078, Note_off_c, 0, 82, 48
1, 297083, Control_c, 0, 64, 81
1, 297098, Control_c, 0, 64, 63
1, 297112, Control_c, 0, 64, 29
1, 297127, Control_c, 0, 64, 0
1, 297138, Note_on_c, 0, 48, 47
1, 297144, Note_off_c, 0, 94, 61
1, 297147, Note_on_c, 0, 84, 61
1, 297150, Control_c, 0, 64, 11
1, 297165, Control_c, 0, 64, 43
1, 297180, Control_c, 0, 64, 57
1, 297194, Control_c, 0, 64, 64
1, 297195, Note_off_c, 0, 48, 63
1, 297209, Control_c, 0, 64, 68
1, 297224, Control_c, 0, 64, 75
1, 297239, Control_c, 0, 64, 87
1, 297247, Note_on_c, 0, 96, 61
1, 297254, Control_c, 0, 64, 127
1, 297264, Note_off_c, 0, 84, 58
1, 297341, Note_off_c, 0, 96, 63
1, 297343, Note_on_c, 0, 64, 46
1, 297349, Note_on_c, 0, 94, 65
1, 297355, Note_on_c, 0, 55, 35
1, 297361, Note_on_c, 0, 60, 32
1, 297392, Note_off_c, 0, 64, 58
1, 297395, Note_off_c, 0, 55, 60
1, 297396, Note_off_c, 0, 60, 52
1, 297406, Note_off_c, 0, 94, 59
1, 297444, Note_on_c, 0, 84, 49
1, 297466, Note_off_c, 0, 84, 58
1, 297524, Note_on_c, 0, 55, 38
1, 297525, Note_on_c, 0, 60, 35
1, 297530, Note_on_c, 0, 64, 63
1, 297546, Note_on_c, 0, 84, 57
1, 297580, Note_off_c, 0, 60, 57
1, 297582, Note_off_c, 0, 55, 60
1, 297595, Note_off_c, 0, 64, 59
1, 297624, Note_on_c, 0, 96, 62
1, 297645, Note_off_c, 0, 84, 55
1, 297713, Note_on_c, 0, 94, 75
1, 297714, Note_on_c, 0, 64, 70
1, 297733, Note_off_c, 0, 96, 61
1, 297740, Note_on_c, 0, 55, 30
1, 297740, Note_on_c, 0, 60, 35
1, 297779, Note_off_c, 0, 60, 56
1, 297779, Note_off_c, 0, 55, 50
1, 297795, Note_off_c, 0, 64, 59
1, 297803, Note_on_c, 0, 84, 63
1, 297810, Note_off_c, 0, 94, 58
1, 297848, Note_off_c, 0, 84, 59
1, 297904, Note_on_c, 0, 84, 58
1, 297907, Note_on_c, 0, 64, 73
1, 297919, Note_on_c, 0, 55, 32
1, 297924, Note_on_c, 0, 60, 37
1, 297960, Note_off_c, 0, 55, 60
1, 297969, Note_off_c, 0, 60, 58
1, 297979, Note_off_c, 0, 64, 60
1, 297993, Note_off_c, 0, 84, 57
1, 297993, Note_on_c, 0, 96, 74
1, 298089, Note_on_c, 0, 55, 49
1, 298092, Note_on_c, 0, 94, 83
1, 298097, Note_on_c, 0, 64, 69
1, 298130, Note_off_c, 0, 96, 60
1, 298140, Note_on_c, 0, 60, 20
1, 298181, Note_on_c, 0, 84, 75
1, 298208, Note_off_c, 0, 64, 63
1, 298230, Note_off_c, 0, 94, 64
1, 298267, Note_off_c, 0, 60, 0
1, 298270, Control_c, 0, 64, 90
1, 298282, Note_on_c, 0, 57, 43
1, 298282, Note_on_c, 0, 65, 82
1, 298283, Note_on_c, 0, 60, 32
1, 298285, Control_c, 0, 64, 72
1, 298291, Note_on_c, 0, 93, 74
1, 298300, Control_c, 0, 64, 60
1, 298300, Note_off_c, 0, 55, 34
1, 298306, Note_off_c, 0, 84, 54
1, 298314, Control_c, 0, 64, 48
1, 298329, Control_c, 0, 64, 50
1, 298344, Control_c, 0, 64, 55
1, 298358, Control_c, 0, 64, 60
1, 298373, Control_c, 0, 64, 64
1, 298377, Note_off_c, 0, 57, 51
1, 298388, Control_c, 0, 64, 68
1, 298398, Note_on_c, 0, 96, 70
1, 298403, Control_c, 0, 64, 76
1, 298405, Note_off_c, 0, 60, 55
1, 298414, Note_off_c, 0, 93, 62
1, 298416, Note_off_c, 0, 65, 59
1, 298418, Control_c, 0, 64, 89
1, 298432, Control_c, 0, 64, 116
1, 298447, Control_c, 0, 64, 127
1, 298477, Control_c, 0, 64, 95
1, 298479, Note_on_c, 0, 91, 71
1, 298487, Note_on_c, 0, 60, 42
1, 298487, Note_off_c, 0, 96, 61
1, 298490, Note_on_c, 0, 67, 74
1, 298492, Control_c, 0, 64, 74
1, 298494, Note_on_c, 0, 58, 59
1, 298506, Control_c, 0, 64, 61
1, 298521, Control_c, 0, 64, 51
1, 298536, Control_c, 0, 64, 55
1, 298551, Control_c, 0, 64, 61
1, 298566, Control_c, 0, 64, 65
1, 298577, Note_off_c, 0, 60, 55
1, 298581, Control_c, 0, 64, 68
1, 298587, Note_off_c, 0, 91, 60
1, 298595, Control_c, 0, 64, 73
1, 298605, Note_on_c, 0, 96, 57
1, 298609, Note_off_c, 0, 67, 55
1, 298610, Control_c, 0, 64, 79
1, 298632, Control_c, 0, 64, 85
1, 298647, Control_c, 0, 64, 91
1, 298659, Note_off_c, 0, 96, 59
1, 298662, Control_c, 0, 64, 91
1, 298677, Control_c, 0, 64, 91
1, 298683, Note_on_c, 0, 84, 64
1, 298691, Note_on_c, 0, 53, 52
1, 298691, Control_c, 0, 64, 89
1, 298706, Control_c, 0, 64, 86
1, 298716, Note_on_c, 0, 60, 66
1, 298721, Control_c, 0, 64, 77
1, 298736, Control_c, 0, 64, 66
1, 298751, Control_c, 0, 64, 45
1, 298765, Control_c, 0, 64, 0
1, 298787, Note_on_c, 0, 96, 64
1, 298792, Note_off_c, 0, 84, 53
1, 298810, Control_c, 0, 64, 9
1, 298825, Control_c, 0, 64, 23
1, 298840, Control_c, 0, 64, 34
1, 298844, Note_off_c, 0, 58, 55
1, 298855, Control_c, 0, 64, 43
1, 298870, Control_c, 0, 64, 50
1, 298884, Control_c, 0, 64, 56
1, 298896, Note_off_c, 0, 96, 59
1, 298899, Note_on_c, 0, 65, 66
1, 298899, Control_c, 0, 64, 60
1, 298900, Note_on_c, 0, 93, 58
1, 298903, Note_on_c, 0, 57, 53
1, 298914, Control_c, 0, 64, 64
1, 298929, Control_c, 0, 64, 69
1, 298935, Note_off_c, 0, 53, 48
1, 298944, Control_c, 0, 64, 78
1, 298959, Control_c, 0, 64, 97
1, 298972, Note_off_c, 0, 93, 61
1, 298974, Control_c, 0, 64, 127
1, 298984, Note_off_c, 0, 60, 57
1, 298986, Note_off_c, 0, 57, 59
1, 298988, Note_on_c, 0, 84, 67
1, 298993, Note_off_c, 0, 65, 58
1, 299019, Note_off_c, 0, 84, 63
1, 299090, Note_on_c, 0, 65, 81
1, 299094, Note_on_c, 0, 84, 66
1, 299102, Note_on_c, 0, 57, 62
1, 299106, Note_on_c, 0, 60, 59
1, 299138, Note_off_c, 0, 57, 63
1, 299140, Note_off_c, 0, 60, 64
1, 299150, Note_off_c, 0, 65, 57
1, 299161, Note_on_c, 0, 96, 67
1, 299173, Note_off_c, 0, 84, 59
1, 299254, Note_on_c, 0, 60, 62
1, 299261, Note_on_c, 0, 93, 63
1, 299264, Note_on_c, 0, 65, 73
1, 299268, Note_off_c, 0, 96, 60
1, 299286, Note_off_c, 0, 60, 64
1, 299295, Note_off_c, 0, 65, 60
1, 299325, Note_off_c, 0, 93, 62
1, 299348, Note_on_c, 0, 84, 67
1, 299399, Note_off_c, 0, 84, 55
1, 299426, Control_c, 0, 64, 99
1, 299435, Note_on_c, 0, 65, 60
1, 299435, Note_on_c, 0, 66, 51
1, 299441, Control_c, 0, 64, 76
1, 299455, Control_c, 0, 64, 63
1, 299470, Control_c, 0, 64, 50
1, 299485, Control_c, 0, 64, 48
1, 299500, Control_c, 0, 64, 54
1, 299514, Control_c, 0, 64, 60
1, 299521, Note_on_c, 0, 69, 73
1, 299529, Control_c, 0, 64, 65
1, 299530, Note_on_c, 0, 84, 20
1, 299544, Control_c, 0, 64, 70
1, 299559, Control_c, 0, 64, 81
1, 299574, Control_c, 0, 64, 104
1, 299575, Note_on_c, 0, 96, 67
1, 299575, Note_off_c, 0, 66, 57
1, 299579, Note_off_c, 0, 84, 44
1, 299581, Note_on_c, 0, 60, 22
1, 299588, Control_c, 0, 64, 127
1, 299600, Note_off_c, 0, 65, 61
1, 299624, Note_off_c, 0, 60, 48
1, 299655, Note_off_c, 0, 96, 60
1, 299664, Note_on_c, 0, 93, 58
1, 299695, Note_off_c, 0, 69, 60
1, 299701, Note_on_c, 0, 65, 57
1, 299711, Note_on_c, 0, 57, 38
1, 299711, Note_on_c, 0, 60, 42
1, 299740, Note_off_c, 0, 93, 62
1, 299743, Note_off_c, 0, 57, 56
1, 299749, Note_off_c, 0, 65, 54
1, 299753, Note_on_c, 0, 84, 64
1, 299753, Note_off_c, 0, 60, 61
1, 299767, Control_c, 0, 64, 123
1, 299778, Note_off_c, 0, 84, 63
1, 299782, Control_c, 0, 64, 121
1, 299797, Control_c, 0, 64, 119
1, 299811, Control_c, 0, 64, 118
1, 299826, Control_c, 0, 64, 117
1, 299841, Control_c, 0, 64, 115
1, 299856, Control_c, 0, 64, 114
1, 299885, Control_c, 0, 64, 113
1, 299889, Note_on_c, 0, 65, 49
1, 299895, Note_on_c, 0, 89, 65
1, 299901, Note_on_c, 0, 60, 32
1, 299907, Note_on_c, 0, 57, 29
1, 299932, Note_off_c, 0, 65, 59
1, 299941, Note_off_c, 0, 60, 54
1, 299946, Note_off_c, 0, 57, 50
1, 299979, Note_off_c, 0, 89, 54
1, 299988, Note_on_c, 0, 101, 69
1, 300017, Note_off_c, 0, 101, 67
1, 300127, Note_on_c, 0, 57, 37
1, 300129, Note_on_c, 0, 65, 35
1, 300134, Note_on_c, 0, 84, 53
1, 300144, Control_c, 0, 64, 113
1, 300158, Note_off_c, 0, 65, 52
1, 300159, Control_c, 0, 64, 112
1, 300162, Note_off_c, 0, 57, 63
1, 300174, Control_c, 0, 64, 111
1, 300189, Control_c, 0, 64, 111
1, 300193, Note_off_c, 0, 84, 52
1, 300203, Control_c, 0, 64, 110
1, 300211, Note_on_c, 0, 96, 61
1, 300218, Control_c, 0, 64, 110
1, 300233, Control_c, 0, 64, 107
1, 300248, Control_c, 0, 64, 105
1, 300263, Control_c, 0, 64, 102
1, 300277, Control_c, 0, 64, 98
1, 300280, Note_off_c, 0, 96, 58
1, 300292, Control_c, 0, 64, 86
1, 300307, Control_c, 0, 64, 70
1, 300322, Control_c, 0, 64, 48
1, 300330, Note_on_c, 0, 84, 48
1, 300336, Control_c, 0, 64, 0
1, 300351, Control_c, 0, 64, 20
1, 300353, Note_on_c, 0, 48, 40
1, 300366, Control_c, 0, 64, 43
1, 300381, Control_c, 0, 64, 57
1, 300391, Note_off_c, 0, 48, 63
1, 300397, Control_c, 0, 64, 64
1, 300411, Control_c, 0, 64, 70
1, 300414, Note_on_c, 0, 96, 48
1, 300423, Note_off_c, 0, 84, 49
1, 300426, Control_c, 0, 64, 78
1, 300441, Control_c, 0, 64, 89
1, 300456, Control_c, 0, 64, 103
1, 300471, Control_c, 0, 64, 115
1, 300492, Note_off_c, 0, 96, 58
1, 300536, Note_on_c, 0, 94, 46
1, 300544, Note_on_c, 0, 64, 52
1, 300558, Note_on_c, 0, 60, 34
1, 300569, Note_on_c, 0, 55, 20
1, 300575, Control_c, 0, 64, 114
1, 300590, Note_off_c, 0, 64, 60
1, 300590, Note_off_c, 0, 94, 57
1, 300594, Note_off_c, 0, 60, 54
1, 300605, Control_c, 0, 64, 113
1, 300610, Note_off_c, 0, 55, 51
1, 300620, Control_c, 0, 64, 113
1, 300622, Note_on_c, 0, 84, 42
1, 300634, Control_c, 0, 64, 112
1, 300646, Note_off_c, 0, 84, 55
1, 300724, Control_c, 0, 64, 111
1, 300726, Note_on_c, 0, 55, 38
1, 300730, Note_on_c, 0, 60, 32
1, 300730, Note_on_c, 0, 64, 54
1, 300745, Note_on_c, 0, 84, 48
1, 300773, Note_off_c, 0, 55, 57
1, 300774, Note_off_c, 0, 60, 52
1, 300775, Note_off_c, 0, 64, 59
1, 300783, Control_c, 0, 64, 111
1, 300818, Note_on_c, 0, 96, 48
1, 300830, Note_off_c, 0, 84, 51
1, 300842, Control_c, 0, 64, 110
1, 300857, Control_c, 0, 64, 110
1, 300872, Control_c, 0, 64, 109
1, 300924, Control_c, 0, 64, 108
1, 300928, Note_off_c, 0, 96, 57
1, 300929, Note_on_c, 0, 94, 57
1, 300933, Note_on_c, 0, 64, 50
1, 300940, Note_on_c, 0, 55, 37
1, 300944, Note_on_c, 0, 60, 31
1, 300979, Note_off_c, 0, 55, 59
1, 300986, Note_off_c, 0, 60, 56
1, 300990, Note_off_c, 0, 64, 58
1, 301015, Note_off_c, 0, 94, 57
1, 301018, Note_on_c, 0, 84, 38
1, 301049, Note_off_c, 0, 84, 49
1, 301112, Note_on_c, 0, 84, 45
1, 301118, Note_on_c, 0, 64, 58
1, 301137, Note_on_c, 0, 60, 26
1, 301138, Note_on_c, 0, 55, 43
1, 301160, Control_c, 0, 64, 108
1, 301183, Note_off_c, 0, 55, 58
1, 301190, Note_off_c, 0, 60, 44
1, 301190, Control_c, 0, 64, 107
1, 301197, Note_on_c, 0, 96, 54
1, 301200, Note_off_c, 0, 64, 61
1, 301205, Note_off_c, 0, 84, 48
1, 301234, Control_c, 0, 64, 107
1, 301307, Note_on_c, 0, 94, 63
1, 301312, Note_on_c, 0, 55, 43
1, 301316, Note_on_c, 0, 64, 66
1, 301339, Control_c, 0, 64, 106
1, 301341, Note_off_c, 0, 96, 56
1, 301354, Control_c, 0, 64, 105
1, 301369, Control_c, 0, 64, 104
1, 301383, Control_c, 0, 64, 104
1, 301388, Note_on_c, 0, 84, 55
1, 301406, Note_off_c, 0, 64, 61
1, 301412, Poly_aftertouch_c, 0, 60, 127
1, 301413, Control_c, 0, 64, 103
1, 301418, Note_off_c, 0, 94, 61
1, 301443, Control_c, 0, 64, 100
1, 301457, Control_c, 0, 64, 91
1, 301472, Control_c, 0, 64, 78
1, 301485, Note_on_c, 0, 57, 37
1, 301487, Control_c, 0, 64, 67
1, 301497, Note_off_c, 0, 55, 31
1, 301502, Control_c, 0, 64, 60
1, 301508, Note_on_c, 0, 65, 63
1, 301511, Note_on_c, 0, 93, 59
1, 301517, Control_c, 0, 64, 59
1, 301520, Note_off_c, 0, 84, 52
1, 301532, Control_c, 0, 64, 61
1, 301547, Control_c, 0, 64, 63
1, 301561, Control_c, 0, 64, 65
1, 301576, Control_c, 0, 64, 68
1, 301586, Note_off_c, 0, 57, 58
1, 301591, Control_c, 0, 64, 72
1, 301602, Note_on_c, 0, 96, 56
1, 301606, Control_c, 0, 64, 79
1, 301612, Note_off_c, 0, 65, 62
1, 301619, Note_off_c, 0, 93, 60
1, 301621, Control_c, 0, 64, 94
1, 301643, Control_c, 0, 64, 127
1, 301646, Poly_aftertouch_c, 0, 60, 0
1, 301682, Note_off_c, 0, 96, 60
1, 301687, Control_c, 0, 64, 90
1, 301702, Control_c, 0, 64, 72
1, 301703, Note_on_c, 0, 91, 59
1, 301707, Note_on_c, 0, 67, 66
1, 301714, Note_on_c, 0, 58, 43
1, 301717, Control_c, 0, 64, 59
1, 301727, Note_on_c, 0, 60, 31
1, 301731, Control_c, 0, 64, 54
1, 301746, Control_c, 0, 64, 59
1, 301761, Control_c, 0, 64, 64
1, 301776, Control_c, 0, 64, 70
1, 301791, Control_c, 0, 64, 79
1, 301793, Note_off_c, 0, 91, 58
1, 301800, Note_off_c, 0, 60, 52
1, 301806, Control_c, 0, 64, 94
1, 301809, Note_on_c, 0, 96, 50
1, 301809, Note_off_c, 0, 67, 55
1, 301821, Control_c, 0, 64, 127
1, 301854, Note_off_c, 0, 58, 35
1, 301860, Note_off_c, 0, 96, 63
1, 301895, Note_on_c, 0, 84, 61
1, 301897, Note_on_c, 0, 53, 56
1, 301909, Note_on_c, 0, 60, 47
1, 301910, Control_c, 0, 64, 104
1, 301916, Note_on_c, 0, 58, 16
1, 301925, Control_c, 0, 64, 85
1, 301939, Control_c, 0, 64, 68
1, 301954, Control_c, 0, 64, 52
1, 301969, Control_c, 0, 64, 0
1, 301990, Note_off_c, 0, 58, 47
1, 302000, Note_off_c, 0, 84, 53
1, 302020, Note_on_c, 0, 96, 54
1, 302043, Control_c, 0, 64, 23
1, 302057, Control_c, 0, 64, 34
1, 302072, Control_c, 0, 64, 44
1, 302083, Note_on_c, 0, 57, 49
1, 302087, Control_c, 0, 64, 52
1, 302099, Note_on_c, 0, 65, 58
1, 302101, Control_c, 0, 64, 57
1, 302107, Note_off_c, 0, 96, 59
1, 302116, Control_c, 0, 64, 61
1, 302126, Note_on_c, 0, 93, 44
1, 302133, Control_c, 0, 64, 65
1, 302147, Control_c, 0, 64, 70
1, 302162, Control_c, 0, 64, 78
1, 302172, Note_off_c, 0, 53, 34
1, 302175, Note_off_c, 0, 93, 59
1, 302176, Note_off_c, 0, 60, 58
1, 302176, Note_off_c, 0, 65, 61
1, 302177, Control_c, 0, 64, 92
1, 302185, Note_off_c, 0, 57, 59
1, 302192, Control_c, 0, 64, 127
1, 302193, Note_on_c, 0, 84, 51
1, 302214, Note_off_c, 0, 84, 60
1, 302282, Note_on_c, 0, 65, 76
1, 302286, Note_on_c, 0, 57, 61
1, 302290, Note_on_c, 0, 84, 67
1, 302303, Note_on_c, 0, 60, 49
1, 302331, Note_off_c, 0, 57, 58
1, 302335, Note_off_c, 0, 60, 60
1, 302345, Note_off_c, 0, 65, 53
1, 302354, Note_on_c, 0, 96, 61
1, 302360, Note_off_c, 0, 84, 58
1, 302454, Note_on_c, 0, 60, 53
1, 302460, Note_off_c, 0, 96, 58
1, 302461, Note_on_c, 0, 93, 58
1, 302467, Note_on_c, 0, 65, 71
1, 302484, Note_off_c, 0, 60, 65
1, 302497, Note_off_c, 0, 65, 64
1, 302520, Note_off_c, 0, 93, 58
1, 302542, Note_on_c, 0, 84, 51
1, 302584, Control_c, 0, 64, 106
1, 302592, Note_off_c, 0, 84, 53
1, 302599, Control_c, 0, 64, 83
1, 302601, Note_on_c, 0, 65, 55
1, 302614, Control_c, 0, 64, 67
1, 302629, Control_c, 0, 64, 52
1, 302644, Control_c, 0, 64, 43
1, 302658, Control_c, 0, 64, 49
1, 302673, Control_c, 0, 64, 56
1, 302688, Control_c, 0, 64, 61
1, 302703, Poly_aftertouch_c, 0, 84, 127
1, 302703, Control_c, 0, 64, 65
1, 302710, Note_on_c, 0, 69, 70
1, 302718, Control_c, 0, 64, 69
1, 302732, Control_c, 0, 64, 76
1, 302733, Note_on_c, 0, 60, 35
1, 302747, Control_c, 0, 64, 90
1, 302748, Poly_aftertouch_c, 0, 84, 0
1, 302750, Note_on_c, 0, 96, 56
1, 302762, Control_c, 0, 64, 108
1, 302771, Note_off_c, 0, 65, 57
1, 302777, Control_c, 0, 64, 127
1, 302788, Note_off_c, 0, 60, 50
1, 302824, Note_off_c, 0, 96, 61
1, 302860, Note_on_c, 0, 93, 50
1, 302870, Poly_aftertouch_c, 0, 57, 0
1, 302885, Note_off_c, 0, 69, 58
1, 302887, Note_on_c, 0, 57, 31
1, 302896, Note_on_c, 0, 65, 60
1, 302903, Note_on_c, 0, 60, 41
1, 302931, Note_off_c, 0, 93, 63
1, 302947, Note_off_c, 0, 57, 60
1, 302951, Note_on_c, 0, 84, 56
1, 302951, Note_off_c, 0, 60, 60
1, 302953, Note_off_c, 0, 65, 57
1, 302971, Note_off_c, 0, 84, 62
1, 303094, Note_on_c, 0, 65, 51
1, 303100, Note_on_c, 0, 89, 54
1, 303107, Note_on_c, 0, 57, 31
1, 303108, Note_on_c, 0, 60, 26
1, 303145, Note_off_c, 0, 65, 60
1, 303152, Note_off_c, 0, 60, 51
1, 303153, Note_off_c, 0, 57, 52
1, 303165, Note_off_c, 0, 89, 62
1, 303186, Note_on_c, 0, 101, 62
1, 303206, Note_off_c, 0, 101, 63
1, 303305, Note_on_c, 0, 57, 40
1, 303317, Note_on_c, 0, 84, 58
1, 303339, Note_off_c, 0, 57, 64
1, 303350, Poly_aftertouch_c, 0, 65, 127
1, 303382, Poly_aftertouch_c, 0, 65, 0
1, 303386, Note_off_c, 0, 84, 48
1, 303398, Note_on_c, 0, 96, 59
1, 303466, Control_c, 0, 64, 115
1, 303471, Note_off_c, 0, 96, 57
1, 303481, Control_c, 0, 64, 104
1, 303495, Control_c, 0, 64, 81
1, 303510, Control_c, 0, 64, 64
1, 303525, Control_c, 0, 64, 30
1, 303532, Note_on_c, 0, 48, 35
1, 303533, Note_on_c, 0, 84, 49
1, 303540, Control_c, 0, 64, 0
1, 303554, Control_c, 0, 64, 21
1, 303569, Control_c, 0, 64, 47
1, 303584, Control_c, 0, 64, 62
1, 303595, Note_off_c, 0, 48, 63
1, 303599, Control_c, 0, 64, 69
1, 303614, Control_c, 0, 64, 79
1, 303628, Control_c, 0, 64, 102
1, 303643, Control_c, 0, 64, 127
1, 303649, Note_off_c, 0, 84, 47
1, 303665, Note_on_c, 0, 96, 32
1, 303741, Note_off_c, 0, 96, 51
1, 303743, Note_on_c, 0, 64, 47
1, 303750, Note_on_c, 0, 55, 41
1, 303752, Note_on_c, 0, 94, 47
1, 303767, Note_on_c, 0, 60, 17
1, 303797, Note_off_c, 0, 64, 57
1, 303800, Note_off_c, 0, 55, 59
1, 303804, Note_off_c, 0, 60, 50
1, 303815, Note_off_c, 0, 94, 55
1, 303837, Note_on_c, 0, 84, 44
1, 303874, Note_off_c, 0, 84, 52
1, 303947, Note_on_c, 0, 84, 50
1, 303952, Note_on_c, 0, 64, 53
1, 303955, Note_on_c, 0, 60, 30
1, 303955, Note_on_c, 0, 55, 38
1, 304009, Note_off_c, 0, 60, 57
1, 304011, Note_off_c, 0, 55, 59
1, 304015, Note_off_c, 0, 64, 57
1, 304039, Note_on_c, 0, 96, 57
1, 304059, Note_off_c, 0, 84, 55
1, 304140, Note_on_c, 0, 64, 57
1, 304143, Note_on_c, 0, 94, 75
1, 304149, Note_on_c, 0, 55, 39
1, 304151, Note_on_c, 0, 60, 44
1, 304175, Note_off_c, 0, 96, 60
1, 304200, Note_off_c, 0, 55, 60
1, 304200, Note_off_c, 0, 60, 58
1, 304202, Note_off_c, 0, 64, 56
1, 304240, Note_on_c, 0, 84, 53
1, 304280, Note_off_c, 0, 84, 61
1, 304293, Note_off_c, 0, 94, 57
1, 304343, Note_on_c, 0, 64, 59
1, 304345, Note_on_c, 0, 55, 46
1, 304352, Note_on_c, 0, 60, 43
1, 304356, Note_on_c, 0, 84, 65
1, 304390, Note_off_c, 0, 55, 61
1, 304405, Note_off_c, 0, 60, 57
1, 304417, Note_off_c, 0, 64, 60
1, 304445, Note_on_c, 0, 96, 59
1, 304452, Note_off_c, 0, 84, 59
1, 304554, Note_on_c, 0, 64, 64
1, 304557, Note_on_c, 0, 55, 50
1, 304560, Note_on_c, 0, 94, 79
1, 304575, Note_on_c, 0, 60, 38
1, 304578, Note_off_c, 0, 96, 58
1, 304666, Note_on_c, 0, 84, 67
1, 304692, Note_off_c, 0, 64, 60
1, 304712, Note_off_c, 0, 55, 37
1, 304721, Note_off_c, 0, 94, 63
1, 304771, Control_c, 0, 64, 106
1, 304786, Control_c, 0, 64, 86
1, 304787, Note_on_c, 0, 57, 11
1, 304793, Note_on_c, 0, 65, 70
1, 304794, Note_on_c, 0, 93, 82
1, 304800, Control_c, 0, 64, 68
1, 304804, Note_off_c, 0, 84, 54
1, 304815, Control_c, 0, 64, 59
1, 304830, Control_c, 0, 64, 55
1, 304845, Control_c, 0, 64, 58
1, 304860, Control_c, 0, 64, 60
1, 304874, Control_c, 0, 64, 63
1, 304890, Control_c, 0, 64, 66
1, 304905, Control_c, 0, 64, 70
1, 304907, Note_off_c, 0, 57, 39
1, 304920, Control_c, 0, 64, 76
1, 304933, Note_off_c, 0, 65, 57
1, 304935, Control_c, 0, 64, 83
1, 304936, Note_on_c, 0, 96, 66
1, 304949, Control_c, 0, 64, 93
1, 304950, Note_off_c, 0, 60, 36
1, 304964, Control_c, 0, 64, 104
1, 304974, Note_off_c, 0, 93, 61
1, 304979, Control_c, 0, 64, 116
1, 304993, Control_c, 0, 64, 118
1, 305023, Control_c, 0, 64, 115
1, 305038, Control_c, 0, 64, 104
1, 305052, Note_on_c, 0, 58, 60
1, 305053, Note_on_c, 0, 60, 54
1, 305053, Control_c, 0, 64, 87
1, 305054, Note_on_c, 0, 67, 67
1, 305061, Note_on_c, 0, 91, 89
1, 305067, Control_c, 0, 64, 70
1, 305082, Control_c, 0, 64, 62
1, 305097, Note_off_c, 0, 96, 63
1, 305097, Control_c, 0, 64, 59
1, 305112, Control_c, 0, 64, 62
1, 305127, Control_c, 0, 64, 65
1, 305142, Control_c, 0, 64, 68
1, 305151, Note_off_c, 0, 67, 58
1, 305156, Control_c, 0, 64, 75
1, 305171, Control_c, 0, 64, 91
1, 305186, Control_c, 0, 64, 127
1, 305192, Note_off_c, 0, 60, 63
1, 305203, Note_on_c, 0, 96, 81
1, 305216, Note_off_c, 0, 58, 63
1, 305267, Note_off_c, 0, 91, 59
1, 305365, Control_c, 0, 64, 108
1, 305384, Note_on_c, 0, 48, 59
1, 305387, Control_c, 0, 64, 80
1, 305393, Note_on_c, 0, 91, 90
1, 305402, Control_c, 0, 64, 63
1, 305417, Control_c, 0, 64, 39
1, 305431, Control_c, 0, 64, 22
1, 305446, Control_c, 0, 64, 30
1, 305461, Control_c, 0, 64, 39
1, 305476, Control_c, 0, 64, 50
1, 305491, Control_c, 0, 64, 57
1, 305505, Control_c, 0, 64, 62
1, 305510, Note_off_c, 0, 96, 51
1, 305520, Control_c, 0, 64, 65
1, 305535, Control_c, 0, 64, 70
1, 305550, Control_c, 0, 64, 84
1, 305565, Control_c, 0, 64, 127
1, 305569, Note_off_c, 0, 48, 60
1, 305874, Note_on_c, 0, 58, 52
1, 305881, Note_on_c, 0, 67, 66
1, 305887, Note_on_c, 0, 60, 53
1, 306690, Note_on_c, 0, 93, 46
1, 306915, Note_on_c, 0, 94, 76
1, 306963, Note_off_c, 0, 93, 59
1, 307140, Note_on_c, 0, 95, 87
1, 307162, Note_off_c, 0, 91, 52
1, 307348, Note_off_c, 0, 94, 53
1, 307427, Note_on_c, 0, 96, 86
1, 307542, Note_off_c, 0, 95, 56
1, 308554, Note_off_c, 0, 67, 30
1, 308717, Note_off_c, 0, 60, 33
1, 308818, Note_on_c, 0, 88, 40
1, 308928, Note_off_c, 0, 96, 39
1, 309328, Note_off_c, 0, 58, 30
1, 309353, Control_c, 0, 64, 113
1, 309355, Note_on_c, 0, 57, 27
1, 309368, Control_c, 0, 64, 107
1, 309368, Note_off_c, 0, 88, 41
1, 309370, Note_on_c, 0, 65, 34
1, 309372, Note_on_c, 0, 53, 38
1, 309373, Note_on_c, 0, 89, 38
1, 309383, Control_c, 0, 64, 100
1, 309390, Note_on_c, 0, 60, 24
1, 309398, Control_c, 0, 64, 91
1, 309413, Control_c, 0, 64, 79
1, 309427, Control_c, 0, 64, 68
1, 309442, Control_c, 0, 64, 57
1, 309457, Control_c, 0, 64, 45
1, 309471, Control_c, 0, 64, 49
1, 309481, Note_off_c, 0, 89, 54
1, 309486, Control_c, 0, 64, 54
1, 309501, Control_c, 0, 64, 58
1, 309516, Control_c, 0, 64, 62
1, 309519, Note_on_c, 0, 93, 54
1, 309531, Control_c, 0, 64, 65
1, 309545, Control_c, 0, 64, 70
1, 309560, Control_c, 0, 64, 78
1, 309575, Control_c, 0, 64, 93
1, 309589, Control_c, 0, 64, 127
1, 309609, Note_off_c, 0, 93, 40
1, 309643, Note_on_c, 0, 84, 43
1, 309702, Note_off_c, 0, 84, 61
1, 309722, Note_on_c, 0, 89, 54
1, 309762, Note_off_c, 0, 89, 62
1, 309812, Note_on_c, 0, 81, 45
1, 309847, Note_off_c, 0, 81, 59
1, 309908, Note_on_c, 0, 84, 58
1, 310009, Note_on_c, 0, 77, 40
1, 310021, Note_off_c, 0, 84, 58
1, 310070, Note_off_c, 0, 77, 54
1, 310087, Note_on_c, 0, 81, 49
1, 310132, Note_off_c, 0, 81, 63
1, 310188, Note_on_c, 0, 72, 43
1, 310230, Note_off_c, 0, 72, 63
1, 310281, Note_on_c, 0, 77, 49
1, 310376, Note_off_c, 0, 65, 39
1, 310382, Note_on_c, 0, 69, 43
1, 310409, Note_off_c, 0, 77, 37
1, 310455, Note_on_c, 0, 72, 50
1, 310466, Note_off_c, 0, 69, 50
1, 310471, Note_off_c, 0, 60, 37
1, 310503, Note_off_c, 0, 72, 62
1, 310564, Note_on_c, 0, 65, 42
1, 310600, Note_off_c, 0, 65, 57
1, 310650, Note_on_c, 0, 69, 53
1, 310704, Note_off_c, 0, 69, 61
1, 310757, Note_on_c, 0, 60, 54
1, 310766, Note_off_c, 0, 57, 38
1, 310827, Note_off_c, 0, 60, 51
1, 310867, Note_on_c, 0, 65, 31
1, 310954, Note_off_c, 0, 65, 51
1, 310963, Note_on_c, 0, 69, 43
1, 310965, Note_off_c, 0, 53, 37
1, 311048, Note_on_c, 0, 72, 40
1, 311118, Note_off_c, 0, 69, 32
1, 311130, Note_on_c, 0, 60, 40
1, 311191, Note_off_c, 0, 72, 33
1, 311211, Note_on_c, 0, 65, 40
1, 311211, Note_off_c, 0, 60, 48
1, 311322, Note_on_c, 0, 69, 51
1, 311384, Note_off_c, 0, 65, 36
1, 311422, Note_on_c, 0, 72, 35
1, 311511, Note_off_c, 0, 69, 33
1, 311514, Note_on_c, 0, 60, 44
1, 311594, Note_on_c, 0, 65, 41
1, 311615, Note_off_c, 0, 72, 38
1, 311697, Note_off_c, 0, 60, 21
1, 311717, Note_on_c, 0, 69, 55
1, 311785, Note_off_c, 0, 65, 36
1, 311811, Note_on_c, 0, 72, 37
1, 311909, Note_off_c, 0, 69, 36
1, 311912, Note_on_c, 0, 60, 45
1, 312004, Note_on_c, 0, 65, 39
1, 312020, Note_off_c, 0, 72, 37
1, 312136, Note_off_c, 0, 60, 40
1, 312144, Note_on_c, 0, 69, 50
1, 312218, Note_off_c, 0, 65, 32
1, 312232, Note_on_c, 0, 72, 23
1, 312348, Note_on_c, 0, 60, 37
1, 312433, Note_off_c, 0, 72, 35
1, 312433, Note_off_c, 0, 69, 38
1, 312445, Note_on_c, 0, 65, 25
1, 312585, Control_c, 0, 64, 119
1, 312600, Control_c, 0, 64, 114
1, 312615, Control_c, 0, 64, 110
1, 312630, Control_c, 0, 64, 107
1, 312644, Control_c, 0, 64, 104
1, 312651, Note_on_c, 0, 41, 45
1, 312655, Note_off_c, 0, 60, 20
1, 312656, Note_on_c, 0, 68, 43
1, 312659, Control_c, 0, 64, 102
1, 312674, Control_c, 0, 64, 100
1, 312689, Control_c, 0, 64, 98
1, 312704, Control_c, 0, 64, 92
1, 312719, Control_c, 0, 64, 86
1, 312734, Note_off_c, 0, 65, 38
1, 312734, Control_c, 0, 64, 77
1, 312749, Control_c, 0, 64, 67
1, 312763, Control_c, 0, 64, 57
1, 312778, Control_c, 0, 64, 43
1, 312793, Control_c, 0, 64, 41
1, 312798, Note_on_c, 0, 72, 17
1, 312807, Control_c, 0, 64, 43
1, 312822, Control_c, 0, 64, 46
1, 312837, Control_c, 0, 64, 50
1, 312852, Control_c, 0, 64, 54
1, 312874, Control_c, 0, 64, 58
1, 312889, Control_c, 0, 64, 60
1, 312904, Control_c, 0, 64, 63
1, 312907, Note_on_c, 0, 60, 30
1, 312909, Note_off_c, 0, 68, 35
1, 312919, Control_c, 0, 64, 66
1, 312934, Control_c, 0, 64, 71
1, 312949, Control_c, 0, 64, 78
1, 312963, Control_c, 0, 64, 88
1, 312978, Control_c, 0, 64, 100
1, 312990, Note_on_c, 0, 65, 36
1, 312993, Control_c, 0, 64, 127
1, 313056, Note_off_c, 0, 72, 38
1, 313092, Note_off_c, 0, 60, 29
1, 313097, Note_on_c, 0, 68, 43
1, 313139, Note_off_c, 0, 41, 51
1, 313155, Note_off_c, 0, 65, 32
1, 313196, Note_on_c, 0, 72, 35
1, 313270, Note_off_c, 0, 68, 32
1, 313304, Note_on_c, 0, 60, 34
1, 313373, Note_on_c, 0, 65, 35
1, 313393, Note_off_c, 0, 72, 38
1, 313446, Note_off_c, 0, 60, 28
1, 313477, Note_on_c, 0, 68, 50
1, 313511, Note_off_c, 0, 65, 33
1, 313569, Note_on_c, 0, 72, 36
1, 313637, Note_off_c, 0, 68, 34
1, 313683, Note_on_c, 0, 60, 40
1, 313750, Note_on_c, 0, 65, 34
1, 313760, Note_off_c, 0, 72, 30
1, 313890, Note_on_c, 0, 80, 60
1, 313898, Note_on_c, 0, 68, 45
1, 313901, Note_off_c, 0, 60, 22
1, 313907, Note_on_c, 0, 77, 48
1, 313951, Note_off_c, 0, 65, 24
1, 314002, Note_on_c, 0, 72, 33
1, 314026, Note_off_c, 0, 68, 35
1, 314071, Note_off_c, 0, 72, 55
1, 314114, Note_on_c, 0, 82, 71
1, 314123, Note_on_c, 0, 79, 50
1, 314136, Note_on_c, 0, 70, 48
1, 314206, Note_off_c, 0, 80, 56
1, 314220, Note_on_c, 0, 72, 36
1, 314276, Note_off_c, 0, 72, 54
1, 314304, Note_off_c, 0, 77, 26
1, 314305, Control_c, 0, 64, 119
1, 314320, Control_c, 0, 64, 113
1, 314320, Note_off_c, 0, 70, 39
1, 314334, Control_c, 0, 64, 108
1, 314347, Note_on_c, 0, 80, 51
1, 314356, Control_c, 0, 64, 105
1, 314358, Note_on_c, 0, 84, 73
1, 314370, Note_on_c, 0, 68, 37
1, 314371, Control_c, 0, 64, 101
1, 314380, Note_off_c, 0, 79, 33
1, 314386, Control_c, 0, 64, 96
1, 314401, Control_c, 0, 64, 92
1, 314415, Control_c, 0, 64, 90
1, 314430, Control_c, 0, 64, 88
1, 314433, Note_on_c, 0, 72, 40
1, 314445, Control_c, 0, 64, 85
1, 314455, Note_off_c, 0, 82, 53
1, 314460, Control_c, 0, 64, 83
1, 314475, Control_c, 0, 64, 80
1, 314490, Control_c, 0, 64, 77
1, 314505, Control_c, 0, 64, 76
1, 314519, Control_c, 0, 64, 74
1, 314529, Note_off_c, 0, 68, 27
1, 314534, Control_c, 0, 64, 73
1, 314549, Control_c, 0, 64, 71
1, 314564, Control_c, 0, 64, 68
1, 314566, Note_on_c, 0, 60, 38
1, 314579, Control_c, 0, 64, 65
1, 314594, Control_c, 0, 64, 63
1, 314608, Control_c, 0, 64, 61
1, 314623, Control_c, 0, 64, 59
1, 314638, Control_c, 0, 64, 59
1, 314645, Note_off_c, 0, 60, 48
1, 314648, Note_off_c, 0, 72, 32
1, 314671, Note_on_c, 0, 65, 33
1, 314682, Control_c, 0, 64, 60
1, 314697, Control_c, 0, 64, 61
1, 314712, Control_c, 0, 64, 62
1, 314727, Control_c, 0, 64, 64
1, 314741, Control_c, 0, 64, 67
1, 314743, Note_off_c, 0, 80, 56
1, 314756, Note_off_c, 0, 84, 59
1, 314756, Control_c, 0, 64, 71
1, 314764, Note_on_c, 0, 68, 42
1, 314771, Control_c, 0, 64, 76
1, 314785, Control_c, 0, 64, 83
1, 314800, Control_c, 0, 64, 94
1, 314802, Note_off_c, 0, 65, 35
1, 314815, Control_c, 0, 64, 108
1, 314830, Control_c, 0, 64, 127
1, 314860, Note_on_c, 0, 72, 27
1, 314901, Note_off_c, 0, 68, 33
1, 314939, Note_on_c, 0, 60, 32
1, 315014, Note_off_c, 0, 60, 47
1, 315021, Note_off_c, 0, 72, 32
1, 315023, Note_on_c, 0, 65, 36
1, 315133, Note_on_c, 0, 68, 40
1, 315181, Note_off_c, 0, 65, 32
1, 315208, Note_off_c, 0, 68, 47
1, 315210, Note_on_c, 0, 72, 32
1, 315294, Note_off_c, 0, 72, 39
1, 315333, Note_on_c, 0, 56, 49
1, 315356, Note_on_c, 0, 68, 21
1, 315359, Note_on_c, 0, 60, 39
1, 315387, Control_c, 0, 64, 123
1, 315402, Control_c, 0, 64, 121
1, 315454, Note_on_c, 0, 72, 22
1, 315460, Note_off_c, 0, 68, 32
1, 315475, Control_c, 0, 64, 116
1, 315490, Control_c, 0, 64, 104
1, 315499, Note_off_c, 0, 72, 48
1, 315505, Control_c, 0, 64, 85
1, 315520, Control_c, 0, 64, 73
1, 315532, Note_on_c, 0, 55, 60
1, 315534, Note_on_c, 0, 70, 45
1, 315535, Control_c, 0, 64, 66
1, 315550, Control_c, 0, 64, 64
1, 315560, Note_on_c, 0, 64, 34
1, 315564, Control_c, 0, 64, 65
1, 315579, Control_c, 0, 64, 66
1, 315594, Control_c, 0, 64, 70
1, 315608, Control_c, 0, 64, 76
1, 315623, Control_c, 0, 64, 85
1, 315638, Control_c, 0, 64, 106
1, 315643, Note_off_c, 0, 64, 42
1, 315653, Control_c, 0, 64, 127
1, 315679, Note_off_c, 0, 56, 37
1, 315713, Control_c, 0, 64, 89
1, 315718, Note_off_c, 0, 70, 38
1, 315726, Note_on_c, 0, 53, 69
1, 315728, Control_c, 0, 64, 70
1, 315730, Note_on_c, 0, 68, 54
1, 315743, Control_c, 0, 64, 60
1, 315758, Control_c, 0, 64, 59
1, 315773, Control_c, 0, 64, 63
1, 315787, Control_c, 0, 64, 68
1, 315802, Control_c, 0, 64, 75
1, 315803, Poly_aftertouch_c, 0, 65, 127
1, 315804, Note_off_c, 0, 55, 57
1, 315817, Control_c, 0, 64, 92
1, 315832, Control_c, 0, 64, 127
1, 315837, Note_off_c, 0, 68, 51
1, 315843, Note_on_c, 0, 72, 36
1, 315845, Poly_aftertouch_c, 0, 65, 0
1, 315862, Note_off_c, 0, 60, 33
1, 315932, Note_off_c, 0, 72, 38
1, 315960, Note_on_c, 0, 48, 67
1, 315980, Note_on_c, 0, 67, 45
1, 316017, Control_c, 0, 64, 119
1, 316022, Note_on_c, 0, 64, 9
1, 316031, Control_c, 0, 64, 100
1, 316046, Control_c, 0, 64, 92
1, 316047, Note_off_c, 0, 53, 50
1, 316061, Control_c, 0, 64, 86
1, 316076, Control_c, 0, 64, 82
1, 316081, Note_off_c, 0, 64, 46
1, 316091, Control_c, 0, 64, 75
1, 316092, Note_on_c, 0, 72, 36
1, 316105, Control_c, 0, 64, 67
1, 316121, Control_c, 0, 64, 59
1, 316136, Control_c, 0, 64, 48
1, 316146, Note_off_c, 0, 67, 42
1, 316151, Control_c, 0, 64, 41
1, 316161, Note_on_c, 0, 60, 51
1, 316166, Control_c, 0, 64, 41
1, 316210, Control_c, 0, 64, 41
1, 316225, Control_c, 0, 64, 43
1, 316239, Control_c, 0, 64, 47
1, 316254, Control_c, 0, 64, 53
1, 316263, Note_on_c, 0, 64, 35
1, 316269, Note_off_c, 0, 60, 36
1, 316269, Control_c, 0, 64, 57
1, 316275, Note_off_c, 0, 72, 39
1, 316284, Control_c, 0, 64, 61
1, 316299, Control_c, 0, 64, 64
1, 316314, Control_c, 0, 64, 67
1, 316329, Control_c, 0, 64, 73
1, 316344, Control_c, 0, 64, 85
1, 316356, Note_off_c, 0, 48, 57
1, 316359, Control_c, 0, 64, 103
1, 316359, Note_on_c, 0, 67, 43
1, 316373, Control_c, 0, 64, 127
1, 316388, Note_off_c, 0, 64, 35
1, 316441, Note_on_c, 0, 72, 33
1, 316505, Note_off_c, 0, 67, 34
1, 316539, Note_on_c, 0, 60, 41
1, 316619, Note_on_c, 0, 64, 38
1, 316627, Note_off_c, 0, 60, 46
1, 316635, Note_off_c, 0, 72, 39
1, 316693, Note_off_c, 0, 64, 52
1, 316723, Note_on_c, 0, 67, 40
1, 316737, Control_c, 0, 64, 123
1, 316752, Control_c, 0, 64, 119
1, 316767, Control_c, 0, 64, 115
1, 316782, Control_c, 0, 64, 111
1, 316797, Control_c, 0, 64, 107
1, 316811, Control_c, 0, 64, 106
1, 316817, Note_on_c, 0, 72, 40
1, 316826, Control_c, 0, 64, 104
1, 316841, Control_c, 0, 64, 104
1, 316855, Control_c, 0, 64, 103
1, 316865, Note_off_c, 0, 67, 35
1, 316870, Control_c, 0, 64, 102
1, 316885, Control_c, 0, 64, 100
1, 316900, Control_c, 0, 64, 99
1, 316907, Note_on_c, 0, 60, 38
1, 316915, Control_c, 0, 64, 97
1, 316929, Control_c, 0, 64, 95
1, 316944, Control_c, 0, 64, 95
1, 316974, Control_c, 0, 64, 94
1, 316984, Note_on_c, 0, 64, 45
1, 316989, Control_c, 0, 64, 94
1, 317003, Control_c, 0, 64, 92
1, 317018, Control_c, 0, 64, 90
1, 317033, Control_c, 0, 64, 86
1, 317048, Control_c, 0, 64, 82
1, 317061, Note_off_c, 0, 72, 40
1, 317062, Control_c, 0, 64, 77
1, 317077, Control_c, 0, 64, 73
1, 317092, Control_c, 0, 64, 72
1, 317101, Note_on_c, 0, 82, 72
1, 317107, Control_c, 0, 64, 73
1, 317113, Note_off_c, 0, 60, 21
1, 317114, Note_on_c, 0, 79, 55
1, 317122, Control_c, 0, 64, 75
1, 317129, Note_on_c, 0, 67, 51
1, 317137, Control_c, 0, 64, 78
1, 317152, Control_c, 0, 64, 83
1, 317167, Control_c, 0, 64, 90
1, 317175, Note_off_c, 0, 64, 26
1, 317181, Control_c, 0, 64, 107
1, 317191, Note_on_c, 0, 72, 48
1, 317196, Control_c, 0, 64, 127
1, 317209, Note_off_c, 0, 67, 58
1, 317332, Note_off_c, 0, 72, 56
1, 317339, Note_on_c, 0, 85, 84
1, 317365, Note_on_c, 0, 70, 63
1, 317445, Note_off_c, 0, 82, 45
1, 317485, Note_on_c, 0, 72, 39
1, 317515, Control_c, 0, 64, 123
1, 317530, Control_c, 0, 64, 113
1, 317545, Control_c, 0, 64, 106
1, 317553, Note_off_c, 0, 72, 56
1, 317560, Control_c, 0, 64, 99
1, 317575, Note_off_c, 0, 70, 36
1, 317575, Control_c, 0, 64, 94
1, 317587, Note_on_c, 0, 84, 79
1, 317590, Control_c, 0, 64, 91
1, 317604, Note_off_c, 0, 79, 36
1, 317605, Control_c, 0, 64, 88
1, 317606, Note_on_c, 0, 68, 53
1, 317619, Note_on_c, 0, 80, 49
1, 317620, Control_c, 0, 64, 86
1, 317632, Control_c, 0, 64, 84
1, 317647, Control_c, 0, 64, 80
1, 317662, Control_c, 0, 64, 77
1, 317676, Control_c, 0, 64, 75
1, 317691, Control_c, 0, 64, 73
1, 317692, Note_on_c, 0, 72, 42
1, 317706, Control_c, 0, 64, 70
1, 317721, Control_c, 0, 64, 66
1, 317736, Control_c, 0, 64, 60
1, 317738, Note_off_c, 0, 85, 52
1, 317742, Note_off_c, 0, 68, 34
1, 317751, Control_c, 0, 64, 53
1, 317766, Control_c, 0, 64, 47
1, 317781, Control_c, 0, 64, 43
1, 317784, Note_on_c, 0, 60, 37
1, 317795, Control_c, 0, 64, 41
1, 317840, Control_c, 0, 64, 43
1, 317855, Control_c, 0, 64, 48
1, 317855, Note_off_c, 0, 72, 33
1, 317870, Control_c, 0, 64, 54
1, 317884, Control_c, 0, 64, 59
1, 317886, Note_on_c, 0, 65, 43
1, 317899, Control_c, 0, 64, 62
1, 317914, Control_c, 0, 64, 66
1, 317918, Note_off_c, 0, 60, 31
1, 317929, Control_c, 0, 64, 71
1, 317944, Control_c, 0, 64, 78
1, 317958, Control_c, 0, 64, 88
1, 317973, Control_c, 0, 64, 101
1, 317987, Note_off_c, 0, 84, 54
1, 317988, Control_c, 0, 64, 121
1, 317989, Note_on_c, 0, 68, 42
1, 318002, Note_off_c, 0, 65, 36
1, 318002, Control_c, 0, 64, 127
1, 318016, Note_off_c, 0, 80, 38
1, 318076, Note_on_c, 0, 72, 26
1, 318140, Note_off_c, 0, 68, 35
1, 318174, Control_c, 0, 64, 123
1, 318179, Note_on_c, 0, 60, 37
1, 318189, Control_c, 0, 64, 121
1, 318204, Control_c, 0, 64, 119
1, 318219, Control_c, 0, 64, 118
1, 318230, Note_off_c, 0, 72, 35
1, 318234, Control_c, 0, 64, 117
1, 318263, Control_c, 0, 64, 116
1, 318269, Note_on_c, 0, 65, 33
1, 318278, Control_c, 0, 64, 115
1, 318282, Note_off_c, 0, 60, 37
1, 318293, Control_c, 0, 64, 114
1, 318307, Control_c, 0, 64, 113
1, 318359, Note_off_c, 0, 65, 47
1, 318371, Note_on_c, 0, 68, 40
1, 318396, Control_c, 0, 64, 113
1, 318426, Control_c, 0, 64, 112
1, 318441, Control_c, 0, 64, 111
1, 318445, Note_on_c, 0, 72, 34
1, 318470, Control_c, 0, 64, 111
1, 318473, Note_off_c, 0, 68, 36
1, 318485, Control_c, 0, 64, 110
1, 318499, Control_c, 0, 64, 109
1, 318514, Control_c, 0, 64, 107
1, 318529, Control_c, 0, 64, 106
1, 318533, Note_on_c, 0, 60, 39
1, 318544, Control_c, 0, 64, 105
1, 318559, Control_c, 0, 64, 104
1, 318573, Control_c, 0, 64, 104
1, 318586, Note_off_c, 0, 72, 31
1, 318588, Control_c, 0, 64, 103
1, 318592, Note_off_c, 0, 60, 53
1, 318611, Note_on_c, 0, 65, 40
1, 318618, Control_c, 0, 64, 103
1, 318633, Control_c, 0, 64, 102
1, 318648, Control_c, 0, 64, 101
1, 318663, Control_c, 0, 64, 99
1, 318678, Control_c, 0, 64, 92
1, 318693, Control_c, 0, 64, 83
1, 318707, Control_c, 0, 64, 74
1, 318722, Control_c, 0, 64, 67
1, 318737, Control_c, 0, 64, 64
1, 318740, Note_on_c, 0, 68, 36
1, 318740, Note_on_c, 0, 56, 50
1, 318752, Note_on_c, 0, 60, 40
1, 318767, Control_c, 0, 64, 65
1, 318781, Control_c, 0, 64, 67
1, 318796, Control_c, 0, 64, 69
1, 318811, Control_c, 0, 64, 72
1, 318812, Note_off_c, 0, 65, 23
1, 318825, Control_c, 0, 64, 76
1, 318840, Control_c, 0, 64, 81
1, 318842, Note_on_c, 0, 72, 5
1, 318860, Note_off_c, 0, 68, 35
1, 318863, Control_c, 0, 64, 88
1, 318878, Control_c, 0, 64, 94
1, 318892, Control_c, 0, 64, 95
1, 318908, Control_c, 0, 64, 91
1, 318913, Note_off_c, 0, 72, 43
1, 318922, Control_c, 0, 64, 83
1, 318937, Control_c, 0, 64, 73
1, 318952, Control_c, 0, 64, 64
1, 318956, Note_on_c, 0, 55, 47
1, 318965, Note_on_c, 0, 64, 26
1, 318967, Control_c, 0, 64, 60
1, 318970, Note_on_c, 0, 70, 25
1, 318982, Control_c, 0, 64, 62
1, 318997, Control_c, 0, 64, 65
1, 319012, Control_c, 0, 64, 67
1, 319018, Note_off_c, 0, 56, 52
1, 319027, Control_c, 0, 64, 71
1, 319041, Control_c, 0, 64, 75
1, 319056, Control_c, 0, 64, 79
1, 319071, Control_c, 0, 64, 82
1, 319086, Control_c, 0, 64, 82
1, 319101, Control_c, 0, 64, 82
1, 319113, Note_off_c, 0, 64, 30
1, 319116, Control_c, 0, 64, 81
1, 319130, Control_c, 0, 64, 81
1, 319145, Control_c, 0, 64, 80
1, 319148, Note_off_c, 0, 70, 23
1, 319160, Control_c, 0, 64, 80
1, 319175, Control_c, 0, 64, 79
1, 319179, Note_on_c, 0, 68, 41
1, 319187, Note_off_c, 0, 55, 56
1, 319188, Note_on_c, 0, 53, 42
1, 319190, Control_c, 0, 64, 78
1, 319204, Control_c, 0, 64, 77
1, 319219, Control_c, 0, 64, 76
1, 319229, Poly_aftertouch_c, 0, 65, 127
1, 319234, Control_c, 0, 64, 74
1, 319248, Control_c, 0, 64, 72
1, 319263, Control_c, 0, 64, 71
1, 319268, Note_off_c, 0, 60, 36
1, 319278, Control_c, 0, 64, 69
1, 319293, Poly_aftertouch_c, 0, 65, 0
1, 319293, Control_c, 0, 64, 65
1, 319308, Control_c, 0, 64, 60
1, 319309, Note_on_c, 0, 72, 25
1, 319322, Control_c, 0, 64, 50
1, 319337, Control_c, 0, 64, 44
1, 319352, Control_c, 0, 64, 42
1, 319354, Note_off_c, 0, 68, 46
1, 319396, Control_c, 0, 64, 45
1, 319399, Note_on_c, 0, 60, 40
1, 319411, Control_c, 0, 64, 50
1, 319426, Control_c, 0, 64, 55
1, 319441, Control_c, 0, 64, 59
1, 319456, Control_c, 0, 64, 62
1, 319461, Note_off_c, 0, 72, 38
1, 319468, Note_on_c, 0, 65, 26
1, 319469, Note_off_c, 0, 60, 52
1, 319471, Control_c, 0, 64, 64
1, 319486, Control_c, 0, 64, 66
1, 319501, Control_c, 0, 64, 71
1, 319515, Control_c, 0, 64, 77
1, 319530, Control_c, 0, 64, 86
1, 319545, Control_c, 0, 64, 95
1, 319560, Control_c, 0, 64, 105
1, 319563, Note_off_c, 0, 53, 42
1, 319575, Control_c, 0, 64, 113
1, 319577, Note_on_c, 0, 68, 42
1, 319590, Control_c, 0, 64, 127
1, 319608, Note_off_c, 0, 65, 33
1, 319656, Note_on_c, 0, 72, 29
1, 319733, Note_off_c, 0, 68, 34
1, 319763, Note_on_c, 0, 60, 28
1, 319811, Note_off_c, 0, 60, 45
1, 319822, Note_on_c, 0, 65, 37
1, 319870, Note_off_c, 0, 72, 33
1, 319902, Note_off_c, 0, 65, 50
1, 319913, Note_on_c, 0, 68, 42
1, 320013, Note_off_c, 0, 68, 53
1, 320082, Note_on_c, 0, 60, 35
1, 320082, Poly_aftertouch_c, 0, 72, 127
1, 320127, Poly_aftertouch_c, 0, 72, 0
1, 320142, Note_off_c, 0, 60, 50
1, 320148, Note_on_c, 0, 65, 40
1, 320238, Note_off_c, 0, 65, 53
1, 320276, Note_on_c, 0, 68, 44
1, 320311, Note_on_c, 0, 80, 45
1, 320317, Note_on_c, 0, 77, 47
1, 320367, Note_off_c, 0, 68, 57
1, 320391, Note_on_c, 0, 72, 19
1, 320431, Note_off_c, 0, 72, 45
1, 320494, Control_c, 0, 64, 99
1, 320503, Note_on_c, 0, 82, 72
1, 320510, Note_on_c, 0, 79, 55
1, 320510, Control_c, 0, 64, 75
1, 320513, Note_on_c, 0, 70, 46
1, 320521, Note_on_c, 0, 63, 40
1, 320525, Control_c, 0, 64, 62
1, 320540, Control_c, 0, 64, 53
1, 320550, Note_off_c, 0, 80, 58
1, 320555, Control_c, 0, 64, 58
1, 320570, Control_c, 0, 64, 63
1, 320584, Control_c, 0, 64, 68
1, 320597, Note_off_c, 0, 70, 56
1, 320599, Control_c, 0, 64, 77
1, 320614, Control_c, 0, 64, 95
1, 320628, Control_c, 0, 64, 127
1, 320630, Note_on_c, 0, 75, 45
1, 320672, Note_off_c, 0, 75, 58
1, 320684, Note_off_c, 0, 77, 33
1, 320712, Note_on_c, 0, 80, 50
1, 320721, Note_on_c, 0, 84, 74
1, 320756, Note_off_c, 0, 63, 41
1, 320767, Note_on_c, 0, 72, 48
1, 320794, Poly_aftertouch_c, 0, 68, 127
1, 320806, Control_c, 0, 64, 97
1, 320819, Note_off_c, 0, 79, 41
1, 320821, Control_c, 0, 64, 80
1, 320821, Note_on_c, 0, 75, 44
1, 320828, Note_off_c, 0, 82, 55
1, 320835, Poly_aftertouch_c, 0, 68, 0
1, 320836, Control_c, 0, 64, 68
1, 320850, Control_c, 0, 64, 58
1, 320865, Control_c, 0, 64, 45
1, 320880, Control_c, 0, 64, 40
1, 320909, Control_c, 0, 64, 46
1, 320919, Note_on_c, 0, 63, 30
1, 320920, Note_off_c, 0, 72, 34
1, 320924, Control_c, 0, 64, 52
1, 320939, Control_c, 0, 64, 57
1, 320954, Control_c, 0, 64, 61
1, 320968, Control_c, 0, 64, 65
1, 320983, Control_c, 0, 64, 71
1, 320986, Note_on_c, 0, 68, 43
1, 320998, Control_c, 0, 64, 88
1, 321010, Note_off_c, 0, 75, 38
1, 321013, Control_c, 0, 64, 127
1, 321039, Note_off_c, 0, 80, 57
1, 321043, Note_off_c, 0, 84, 59
1, 321080, Note_off_c, 0, 63, 28
1, 321116, Note_on_c, 0, 72, 49
1, 321138, Note_off_c, 0, 68, 36
1, 321191, Note_on_c, 0, 75, 36
1, 321267, Note_off_c, 0, 72, 34
1, 321295, Note_on_c, 0, 63, 46
1, 321366, Note_off_c, 0, 63, 49
1, 321371, Note_on_c, 0, 68, 50
1, 321440, Note_off_c, 0, 75, 34
1, 321493, Note_on_c, 0, 72, 49
1, 321566, Note_on_c, 0, 75, 44
1, 321589, Note_off_c, 0, 68, 28
1, 321606, Note_off_c, 0, 72, 43
1, 321643, Note_off_c, 0, 75, 49
1, 321683, Note_on_c, 0, 60, 62
1, 321695, Note_on_c, 0, 72, 46
1, 321702, Note_on_c, 0, 63, 48
1, 321775, Note_on_c, 0, 75, 20
1, 321834, Note_off_c, 0, 75, 52
1, 321843, Control_c, 0, 64, 117
1, 321847, Note_off_c, 0, 72, 34
1, 321858, Control_c, 0, 64, 90
1, 321873, Control_c, 0, 64, 73
1, 321885, Note_on_c, 0, 58, 73
1, 321888, Control_c, 0, 64, 62
1, 321896, Note_on_c, 0, 73, 55
1, 321903, Control_c, 0, 64, 54
1, 321917, Control_c, 0, 64, 56
1, 321919, Note_on_c, 0, 67, 44
1, 321932, Control_c, 0, 64, 61
1, 321947, Control_c, 0, 64, 64
1, 321962, Control_c, 0, 64, 68
1, 321975, Note_on_c, 0, 75, 49
1, 321977, Control_c, 0, 64, 76
1, 321992, Control_c, 0, 64, 91
1, 322006, Control_c, 0, 64, 127
1, 322031, Note_off_c, 0, 60, 46
1, 322040, Note_off_c, 0, 73, 56
1, 322049, Note_off_c, 0, 75, 56
1, 322063, Note_off_c, 0, 67, 36
1, 322065, Control_c, 0, 64, 113
1, 322077, Note_on_c, 0, 56, 73
1, 322080, Control_c, 0, 64, 80
1, 322096, Control_c, 0, 64, 65
1, 322097, Note_on_c, 0, 72, 63
1, 322111, Control_c, 0, 64, 58
1, 322112, Note_on_c, 0, 68, 50
1, 322126, Control_c, 0, 64, 61
1, 322141, Control_c, 0, 64, 66
1, 322155, Control_c, 0, 64, 72
1, 322163, Note_off_c, 0, 58, 63
1, 322165, Note_off_c, 0, 68, 57
1, 322170, Control_c, 0, 64, 84
1, 322174, Note_off_c, 0, 72, 61
1, 322185, Control_c, 0, 64, 113
1, 322187, Note_on_c, 0, 75, 55
1, 322200, Control_c, 0, 64, 127
1, 322294, Note_on_c, 0, 51, 79
1, 322297, Note_off_c, 0, 75, 49
1, 322319, Note_on_c, 0, 70, 60
1, 322321, Note_on_c, 0, 67, 52
1, 322338, Note_off_c, 0, 63, 42
1, 322362, Control_c, 0, 64, 119
1, 322377, Control_c, 0, 64, 98
1, 322392, Control_c, 0, 64, 88
1, 322407, Control_c, 0, 64, 84
1, 322412, Note_on_c, 0, 75, 48
1, 322422, Note_off_c, 0, 56, 37
1, 322422, Control_c, 0, 64, 80
1, 322427, Note_off_c, 0, 67, 57
1, 322437, Control_c, 0, 64, 75
1, 322452, Control_c, 0, 64, 69
1, 322466, Control_c, 0, 64, 61
1, 322481, Control_c, 0, 64, 50
1, 322492, Note_off_c, 0, 70, 59
1, 322496, Note_on_c, 0, 63, 62
1, 322496, Control_c, 0, 64, 47
1, 322526, Control_c, 0, 64, 46
1, 322540, Control_c, 0, 64, 46
1, 322577, Note_on_c, 0, 67, 50
1, 322585, Control_c, 0, 64, 47
1, 322607, Control_c, 0, 64, 50
1, 322622, Control_c, 0, 64, 53
1, 322636, Control_c, 0, 64, 57
1, 322648, Note_off_c, 0, 75, 56
1, 322651, Control_c, 0, 64, 61
1, 322657, Note_off_c, 0, 63, 56
1, 322666, Control_c, 0, 64, 64
1, 322681, Control_c, 0, 64, 68
1, 322695, Note_on_c, 0, 70, 60
1, 322696, Control_c, 0, 64, 74
1, 322711, Control_c, 0, 64, 84
1, 322726, Control_c, 0, 64, 105
1, 322740, Control_c, 0, 64, 127
1, 322747, Note_off_c, 0, 67, 60
1, 322771, Note_off_c, 0, 51, 63
1, 322779, Note_on_c, 0, 75, 56
1, 322829, Note_off_c, 0, 70, 56
1, 322876, Note_on_c, 0, 63, 58
1, 322960, Note_on_c, 0, 67, 55
1, 323022, Note_off_c, 0, 75, 36
1, 323039, Note_off_c, 0, 63, 36
1, 323059, Note_on_c, 0, 70, 57
1, 323104, Note_off_c, 0, 67, 54
1, 323111, Control_c, 0, 64, 118
1, 323126, Control_c, 0, 64, 114
1, 323137, Note_on_c, 0, 75, 58
1, 323141, Control_c, 0, 64, 113
1, 323156, Control_c, 0, 64, 112
1, 323170, Control_c, 0, 64, 110
1, 323172, Note_off_c, 0, 70, 56
1, 323185, Control_c, 0, 64, 108
1, 323200, Control_c, 0, 64, 106
1, 323215, Control_c, 0, 64, 105
1, 323230, Control_c, 0, 64, 104
1, 323241, Note_on_c, 0, 63, 49
1, 323245, Control_c, 0, 64, 102
1, 323259, Control_c, 0, 64, 101
1, 323274, Control_c, 0, 64, 101
1, 323289, Control_c, 0, 64, 100
1, 323297, Note_off_c, 0, 75, 37
1, 323304, Control_c, 0, 64, 99
1, 323319, Note_on_c, 0, 67, 42
1, 323319, Control_c, 0, 64, 98
1, 323334, Control_c, 0, 64, 97
1, 323370, Control_c, 0, 64, 97
1, 323400, Control_c, 0, 64, 96
1, 323415, Control_c, 0, 64, 93
1, 323430, Control_c, 0, 64, 84
1, 323444, Control_c, 0, 64, 75
1, 323451, Note_on_c, 0, 85, 79
1, 323453, Note_off_c, 0, 63, 33
1, 323459, Control_c, 0, 64, 67
1, 323460, Note_on_c, 0, 82, 63
1, 323474, Control_c, 0, 64, 63
1, 323476, Note_off_c, 0, 67, 56
1, 323477, Note_on_c, 0, 70, 62
1, 323489, Control_c, 0, 64, 62
1, 323504, Control_c, 0, 64, 64
1, 323519, Control_c, 0, 64, 68
1, 323534, Control_c, 0, 64, 75
1, 323549, Control_c, 0, 64, 90
1, 323564, Control_c, 0, 64, 127
1, 323580, Note_on_c, 0, 75, 51
1, 323597, Note_off_c, 0, 70, 52
1, 323662, Note_off_c, 0, 75, 59
1, 323692, Note_on_c, 0, 89, 87
1, 323717, Note_on_c, 0, 73, 61
1, 323757, Note_off_c, 0, 82, 25
1, 323769, Note_off_c, 0, 85, 62
1, 323787, Note_on_c, 0, 75, 54
1, 323896, Note_off_c, 0, 73, 52
1, 323901, Note_off_c, 0, 75, 58
1, 323935, Control_c, 0, 64, 113
1, 323943, Note_on_c, 0, 87, 72
1, 323950, Control_c, 0, 64, 107
1, 323965, Control_c, 0, 64, 104
1, 323972, Note_on_c, 0, 84, 43
1, 323974, Note_on_c, 0, 72, 45
1, 323980, Control_c, 0, 64, 99
1, 323994, Control_c, 0, 64, 96
1, 324009, Control_c, 0, 64, 93
1, 324024, Control_c, 0, 64, 91
1, 324039, Control_c, 0, 64, 90
1, 324054, Control_c, 0, 64, 88
1, 324057, Note_on_c, 0, 75, 35
1, 324068, Control_c, 0, 64, 83
1, 324083, Control_c, 0, 64, 79
1, 324106, Control_c, 0, 64, 73
1, 324115, Note_off_c, 0, 89, 47
1, 324120, Control_c, 0, 64, 66
1, 324135, Control_c, 0, 64, 59
1, 324147, Note_off_c, 0, 72, 38
1, 324150, Control_c, 0, 64, 50
1, 324165, Control_c, 0, 64, 47
1, 324182, Note_on_c, 0, 63, 39
1, 324209, Control_c, 0, 64, 48
1, 324224, Control_c, 0, 64, 51
1, 324239, Control_c, 0, 64, 55
1, 324244, Note_off_c, 0, 75, 39
1, 324249, Note_on_c, 0, 68, 40
1, 324253, Control_c, 0, 64, 59
1, 324268, Control_c, 0, 64, 63
1, 324283, Control_c, 0, 64, 66
1, 324298, Control_c, 0, 64, 69
1, 324309, Note_off_c, 0, 84, 38
1, 324313, Control_c, 0, 64, 76
1, 324317, Note_off_c, 0, 63, 31
1, 324327, Control_c, 0, 64, 85
1, 324334, Note_off_c, 0, 87, 63
1, 324342, Control_c, 0, 64, 98
1, 324357, Note_on_c, 0, 72, 44
1, 324357, Control_c, 0, 64, 111
1, 324371, Control_c, 0, 64, 113
1, 324398, Note_off_c, 0, 68, 32
1, 324431, Note_on_c, 0, 75, 35
1, 324460, Control_c, 0, 64, 112
1, 324475, Control_c, 0, 64, 111
1, 324491, Control_c, 0, 64, 111
1, 324492, Note_off_c, 0, 72, 0
1, 324505, Control_c, 0, 64, 110
1, 324520, Control_c, 0, 64, 110
1, 324530, Poly_aftertouch_c, 0, 72, 0
1, 324535, Control_c, 0, 64, 109
1, 324550, Control_c, 0, 64, 108
1, 324554, Note_on_c, 0, 63, 36
1, 324565, Control_c, 0, 64, 108
1, 324609, Control_c, 0, 64, 107
1, 324639, Control_c, 0, 64, 107
1, 324643, Note_on_c, 0, 68, 36
1, 324666, Note_off_c, 0, 75, 36
1, 324679, Note_off_c, 0, 63, 28
1, 324728, Control_c, 0, 64, 106
1, 324742, Control_c, 0, 64, 106
1, 324744, Note_on_c, 0, 72, 40
1, 324757, Control_c, 0, 64, 105
1, 324772, Control_c, 0, 64, 105
1, 324787, Control_c, 0, 64, 104
1, 324788, Note_off_c, 0, 68, 30
1, 324802, Control_c, 0, 64, 104
1, 324824, Note_on_c, 0, 75, 31
1, 324873, Note_off_c, 0, 72, 49
1, 324928, Note_on_c, 0, 63, 37
1, 324928, Control_c, 0, 64, 103
1, 324942, Control_c, 0, 64, 103
1, 324972, Control_c, 0, 64, 102
1, 324997, Note_off_c, 0, 63, 47
1, 325002, Control_c, 0, 64, 102
1, 325016, Control_c, 0, 64, 101
1, 325020, Note_on_c, 0, 68, 33
1, 325046, Control_c, 0, 64, 101
1, 325058, Note_off_c, 0, 75, 33
1, 325061, Control_c, 0, 64, 100
1, 325075, Control_c, 0, 64, 99
1, 325090, Control_c, 0, 64, 98
1, 325105, Control_c, 0, 64, 94
1, 325120, Note_on_c, 0, 60, 52
1, 325120, Control_c, 0, 64, 85
1, 325135, Control_c, 0, 64, 75
1, 325145, Note_on_c, 0, 72, 36
1, 325149, Control_c, 0, 64, 66
1, 325151, Note_on_c, 0, 63, 30
1, 325164, Control_c, 0, 64, 61
1, 325179, Control_c, 0, 64, 62
1, 325194, Control_c, 0, 64, 64
1, 325209, Control_c, 0, 64, 67
1, 325224, Control_c, 0, 64, 70
1, 325239, Control_c, 0, 64, 75
1, 325243, Note_off_c, 0, 72, 39
1, 325254, Control_c, 0, 64, 81
1, 325259, Poly_aftertouch_c, 0, 75, 127
1, 325268, Control_c, 0, 64, 91
1, 325283, Control_c, 0, 64, 106
1, 325299, Control_c, 0, 64, 123
1, 325300, Poly_aftertouch_c, 0, 75, 0
1, 325313, Control_c, 0, 64, 110
1, 325327, Note_on_c, 0, 58, 50
1, 325328, Control_c, 0, 64, 94
1, 325343, Control_c, 0, 64, 79
1, 325351, Note_on_c, 0, 73, 41
1, 325352, Note_on_c, 0, 67, 40
1, 325353, Note_off_c, 0, 68, 30
1, 325358, Control_c, 0, 64, 68
1, 325360, Note_off_c, 0, 60, 56
1, 325373, Control_c, 0, 64, 60
1, 325388, Control_c, 0, 64, 59
1, 325403, Control_c, 0, 64, 62
1, 325418, Control_c, 0, 64, 65
1, 325432, Control_c, 0, 64, 68
1, 325447, Control_c, 0, 64, 71
1, 325462, Control_c, 0, 64, 75
1, 325477, Control_c, 0, 64, 79
1, 325491, Control_c, 0, 64, 81
1, 325519, Note_off_c, 0, 73, 40
1, 325521, Control_c, 0, 64, 80
1, 325525, Note_off_c, 0, 67, 30
1, 325536, Control_c, 0, 64, 80
1, 325551, Control_c, 0, 64, 79
1, 325554, Note_off_c, 0, 58, 37
1, 325556, Note_on_c, 0, 56, 42
1, 325564, Note_on_c, 0, 72, 43
1, 325565, Control_c, 0, 64, 78
1, 325588, Control_c, 0, 64, 77
1, 325594, Note_on_c, 0, 68, 16
1, 325602, Control_c, 0, 64, 76
1, 325613, Note_off_c, 0, 63, 16
1, 325617, Control_c, 0, 64, 74
1, 325632, Control_c, 0, 64, 71
1, 325647, Control_c, 0, 64, 66
1, 325650, Note_off_c, 0, 68, 43
1, 325662, Control_c, 0, 64, 59
1, 325677, Control_c, 0, 64, 48
1, 325680, Note_on_c, 0, 75, 28
1, 325691, Control_c, 0, 64, 39
1, 325706, Control_c, 0, 64, 37
1, 325736, Control_c, 0, 64, 38
1, 325751, Control_c, 0, 64, 43
1, 325765, Control_c, 0, 64, 49
1, 325780, Control_c, 0, 64, 55
1, 325783, Note_off_c, 0, 72, 57
1, 325795, Control_c, 0, 64, 59
1, 325803, Note_on_c, 0, 63, 40
1, 325810, Control_c, 0, 64, 62
1, 325825, Control_c, 0, 64, 65
1, 325839, Control_c, 0, 64, 70
1, 325854, Control_c, 0, 64, 77
1, 325860, Note_off_c, 0, 75, 41
1, 325869, Control_c, 0, 64, 88
1, 325876, Note_off_c, 0, 63, 36
1, 325884, Control_c, 0, 64, 103
1, 325886, Note_on_c, 0, 68, 38
1, 325898, Control_c, 0, 64, 127
1, 325919, Note_off_c, 0, 56, 37
1, 325972, Note_on_c, 0, 72, 40
1, 326020, Note_off_c, 0, 68, 34
1, 326062, Control_c, 0, 64, 119
1, 326076, Control_c, 0, 64, 117
1, 326092, Control_c, 0, 64, 113
1, 326093, Note_on_c, 0, 75, 33
1, 326107, Note_off_c, 0, 72, 0
1, 326107, Control_c, 0, 64, 111
1, 326121, Control_c, 0, 64, 108
1, 326136, Control_c, 0, 64, 107
1, 326149, Poly_aftertouch_c, 0, 72, 0
1, 326151, Control_c, 0, 64, 104
1, 326166, Control_c, 0, 64, 101
1, 326178, Note_on_c, 0, 63, 31
1, 326181, Control_c, 0, 64, 99
1, 326196, Control_c, 0, 64, 97
1, 326211, Control_c, 0, 64, 95
1, 326225, Control_c, 0, 64, 93
1, 326234, Note_off_c, 0, 75, 31
1, 326240, Control_c, 0, 64, 92
1, 326255, Control_c, 0, 64, 91
1, 326262, Note_on_c, 0, 68, 24
1, 326270, Control_c, 0, 64, 91
1, 326329, Control_c, 0, 64, 92
1, 326351, Control_c, 0, 64, 93
1, 326366, Control_c, 0, 64, 94
1, 326381, Control_c, 0, 64, 96
1, 326388, Note_on_c, 0, 72, 36
1, 326392, Note_off_c, 0, 63, 37
1, 326395, Control_c, 0, 64, 100
1, 326410, Control_c, 0, 64, 108
1, 326425, Control_c, 0, 64, 121
1, 326440, Control_c, 0, 64, 127
1, 326458, Note_off_c, 0, 68, 35
1, 326479, Note_on_c, 0, 75, 36
1, 326537, Note_off_c, 0, 72, 33
1, 326561, Note_on_c, 0, 63, 24
1, 326592, Note_on_c, 0, 84, 56
1, 326635, Note_on_c, 0, 68, 27
1, 326696, Note_off_c, 0, 75, 33
1, 326760, Note_off_c, 0, 63, 35
1, 326780, Note_on_c, 0, 82, 69
1, 326791, Note_on_c, 0, 72, 39
1, 326804, Note_off_c, 0, 68, 38
1, 326832, Note_on_c, 0, 75, 41
1, 326948, Note_off_c, 0, 72, 34
1, 326968, Note_on_c, 0, 80, 78
1, 326979, Poly_aftertouch_c, 0, 63, 127
1, 326980, Note_on_c, 0, 63, 3
1, 327017, Note_off_c, 0, 63, 47
1, 327017, Note_off_c, 0, 75, 32
1, 327019, Note_off_c, 0, 84, 35
1, 327022, Note_on_c, 0, 68, 46
1, 327107, Note_off_c, 0, 82, 55
1, 327172, Note_off_c, 0, 68, 52
1, 327186, Note_on_c, 0, 77, 75
1, 327202, Note_on_c, 0, 73, 55
1, 327218, Control_c, 0, 64, 111
1, 327233, Control_c, 0, 64, 90
1, 327248, Control_c, 0, 64, 75
1, 327263, Control_c, 0, 64, 64
1, 327266, Note_off_c, 0, 80, 57
1, 327278, Control_c, 0, 64, 53
1, 327293, Control_c, 0, 64, 49
1, 327308, Control_c, 0, 64, 52
1, 327322, Control_c, 0, 64, 55
1, 327331, Note_off_c, 0, 73, 56
1, 327337, Control_c, 0, 64, 60
1, 327352, Control_c, 0, 64, 63
1, 327367, Control_c, 0, 64, 66
1, 327375, Note_on_c, 0, 65, 49
1, 327382, Control_c, 0, 64, 70
1, 327397, Control_c, 0, 64, 78
1, 327412, Control_c, 0, 64, 92
1, 327427, Control_c, 0, 64, 127
1, 327457, Note_on_c, 0, 68, 53
1, 327466, Note_off_c, 0, 65, 50
1, 327525, Note_off_c, 0, 77, 60
1, 327555, Note_on_c, 0, 73, 53
1, 327559, Note_off_c, 0, 68, 55
1, 327649, Note_off_c, 0, 73, 61
1, 327651, Note_on_c, 0, 77, 51
1, 327720, Note_on_c, 0, 65, 48
1, 327788, Note_off_c, 0, 77, 29
1, 327805, Note_on_c, 0, 68, 56
1, 327925, Note_on_c, 0, 73, 62
1, 327925, Note_off_c, 0, 65, 23
1, 327946, Note_off_c, 0, 68, 52
1, 328029, Note_on_c, 0, 77, 49
1, 328044, Note_off_c, 0, 73, 55
1, 328120, Note_on_c, 0, 65, 50
1, 328123, Note_on_c, 0, 49, 72
1, 328183, Note_on_c, 0, 70, 59
1, 328184, Note_off_c, 0, 77, 31
1, 328287, Note_off_c, 0, 65, 29
1, 328288, Note_on_c, 0, 73, 54
1, 328323, Note_on_c, 0, 48, 83
1, 328351, Note_off_c, 0, 70, 38
1, 328396, Note_on_c, 0, 77, 48
1, 328396, Control_c, 0, 64, 123
1, 328398, Note_off_c, 0, 49, 60
1, 328411, Control_c, 0, 64, 119
1, 328414, Note_off_c, 0, 73, 57
1, 328425, Control_c, 0, 64, 116
1, 328440, Control_c, 0, 64, 114
1, 328455, Control_c, 0, 64, 113
1, 328470, Control_c, 0, 64, 111
1, 328482, Note_on_c, 0, 65, 41
1, 328486, Control_c, 0, 64, 109
1, 328501, Control_c, 0, 64, 107
1, 328502, Note_on_c, 0, 46, 84
1, 328516, Control_c, 0, 64, 106
1, 328530, Control_c, 0, 64, 103
1, 328536, Note_off_c, 0, 77, 37
1, 328545, Control_c, 0, 64, 100
1, 328557, Note_on_c, 0, 70, 55
1, 328560, Control_c, 0, 64, 99
1, 328575, Control_c, 0, 64, 98
1, 328597, Control_c, 0, 64, 96
1, 328612, Control_c, 0, 64, 93
1, 328617, Note_off_c, 0, 65, 33
1, 328625, Note_off_c, 0, 48, 51
1, 328627, Control_c, 0, 64, 90
1, 328642, Control_c, 0, 64, 87
1, 328657, Control_c, 0, 64, 86
1, 328671, Control_c, 0, 64, 85
1, 328686, Control_c, 0, 64, 82
1, 328701, Control_c, 0, 64, 79
1, 328716, Control_c, 0, 64, 76
1, 328721, Note_on_c, 0, 43, 82
1, 328731, Control_c, 0, 64, 73
1, 328745, Control_c, 0, 64, 72
1, 328760, Control_c, 0, 64, 70
1, 328774, Note_on_c, 0, 73, 50
1, 328775, Control_c, 0, 64, 68
1, 328789, Control_c, 0, 64, 65
1, 328804, Control_c, 0, 64, 63
1, 328807, Note_off_c, 0, 70, 33
1, 328819, Control_c, 0, 64, 60
1, 328831, Note_on_c, 0, 75, 57
1, 328834, Control_c, 0, 64, 58
1, 328849, Control_c, 0, 64, 55
1, 328863, Note_off_c, 0, 46, 35
1, 328864, Control_c, 0, 64, 51
1, 328875, Note_off_c, 0, 73, 56
1, 328878, Control_c, 0, 64, 46
1, 328893, Control_c, 0, 64, 40
1, 328908, Control_c, 0, 64, 38
1, 328923, Control_c, 0, 64, 38
1, 328933, Note_on_c, 0, 63, 55
1, 328968, Control_c, 0, 64, 38
1, 328982, Control_c, 0, 64, 41
1, 328997, Control_c, 0, 64, 46
1, 329012, Control_c, 0, 64, 51
1, 329025, Note_on_c, 0, 70, 60
1, 329027, Control_c, 0, 64, 56
1, 329042, Control_c, 0, 64, 59
1, 329046, Note_off_c, 0, 75, 55
1, 329056, Control_c, 0, 64, 63
1, 329071, Control_c, 0, 64, 67
1, 329086, Control_c, 0, 64, 74
1, 329101, Control_c, 0, 64, 86
1, 329114, Note_on_c, 0, 73, 63
1, 329115, Control_c, 0, 64, 103
1, 329122, Note_off_c, 0, 63, 32
1, 329130, Control_c, 0, 64, 127
1, 329148, Note_off_c, 0, 70, 56
1, 329218, Note_on_c, 0, 75, 48
1, 329263, Control_c, 0, 64, 118
1, 329279, Control_c, 0, 64, 108
1, 329294, Control_c, 0, 64, 102
1, 329309, Control_c, 0, 64, 96
1, 329318, Note_off_c, 0, 73, 38
1, 329319, Note_on_c, 0, 63, 56
1, 329331, Control_c, 0, 64, 90
1, 329346, Control_c, 0, 64, 85
1, 329361, Control_c, 0, 64, 81
1, 329364, Note_off_c, 0, 75, 51
1, 329376, Control_c, 0, 64, 77
1, 329391, Control_c, 0, 64, 74
1, 329394, Note_on_c, 0, 70, 56
1, 329405, Control_c, 0, 64, 72
1, 329420, Control_c, 0, 64, 71
1, 329435, Control_c, 0, 64, 67
1, 329450, Control_c, 0, 64, 59
1, 329465, Control_c, 0, 64, 28
1, 329479, Note_off_c, 0, 63, 29
1, 329480, Control_c, 0, 64, 0
1, 329519, Note_off_c, 0, 43, 62
1, 329522, Note_on_c, 0, 44, 69
1, 329531, Note_off_c, 0, 70, 58
1, 329553, Control_c, 0, 64, 42
1, 329558, Note_on_c, 0, 72, 49
1, 329568, Control_c, 0, 64, 63
1, 329583, Control_c, 0, 64, 74
1, 329586, Note_off_c, 0, 44, 64
1, 329598, Control_c, 0, 64, 113
1, 329612, Control_c, 0, 64, 127
1, 329652, Note_off_c, 0, 72, 56
1, 329660, Note_on_c, 0, 75, 48
1, 329728, Note_on_c, 0, 63, 40
1, 329768, Note_on_c, 0, 84, 66
1, 329797, Note_on_c, 0, 68, 48
1, 329813, Note_off_c, 0, 75, 30
1, 329946, Note_on_c, 0, 85, 82
1, 329956, Note_on_c, 0, 72, 58
1, 329964, Note_off_c, 0, 63, 34
1, 329996, Note_off_c, 0, 68, 36
1, 330031, Note_off_c, 0, 84, 59
1, 330041, Note_on_c, 0, 75, 58
1, 330134, Note_off_c, 0, 72, 61
1, 330158, Note_on_c, 0, 86, 93
1, 330171, Note_on_c, 0, 63, 59
1, 330226, Note_off_c, 0, 85, 61
1, 330238, Note_off_c, 0, 75, 56
1, 330256, Note_on_c, 0, 68, 56
1, 330395, Note_off_c, 0, 63, 37
1, 330408, Note_on_c, 0, 87, 95
1, 330421, Control_c, 0, 64, 113
1, 330432, Note_off_c, 0, 68, 55
1, 330435, Control_c, 0, 64, 108
1, 330445, Note_on_c, 0, 70, 56
1, 330450, Control_c, 0, 64, 104
1, 330465, Control_c, 0, 64, 99
1, 330480, Control_c, 0, 64, 94
1, 330486, Note_on_c, 0, 75, 49
1, 330495, Control_c, 0, 64, 90
1, 330509, Control_c, 0, 64, 87
1, 330524, Control_c, 0, 64, 84
1, 330539, Control_c, 0, 64, 81
1, 330544, Note_off_c, 0, 86, 55
1, 330554, Control_c, 0, 64, 78
1, 330569, Control_c, 0, 64, 75
1, 330584, Control_c, 0, 64, 72
1, 330598, Control_c, 0, 64, 68
1, 330613, Control_c, 0, 64, 66
1, 330617, Note_off_c, 0, 70, 36
1, 330621, Note_on_c, 0, 63, 51
1, 330628, Control_c, 0, 64, 64
1, 330643, Control_c, 0, 64, 63
1, 330658, Control_c, 0, 64, 62
1, 330688, Control_c, 0, 64, 61
1, 330702, Control_c, 0, 64, 59
1, 330705, Note_on_c, 0, 68, 50
1, 330715, Note_off_c, 0, 75, 48
1, 330717, Control_c, 0, 64, 57
1, 330732, Control_c, 0, 64, 56
1, 330791, Control_c, 0, 64, 57
1, 330806, Control_c, 0, 64, 58
1, 330821, Control_c, 0, 64, 59
1, 330822, Note_on_c, 0, 70, 46
1, 330834, Note_off_c, 0, 63, 37
1, 330843, Control_c, 0, 64, 60
1, 330858, Control_c, 0, 64, 62
1, 330873, Control_c, 0, 64, 64
1, 330881, Note_off_c, 0, 68, 54
1, 330888, Control_c, 0, 64, 67
1, 330903, Control_c, 0, 64, 71
1, 330907, Note_on_c, 0, 75, 39
1, 330918, Control_c, 0, 64, 78
1, 330932, Control_c, 0, 64, 87
1, 330947, Control_c, 0, 64, 99
1, 330962, Control_c, 0, 64, 111
1, 330977, Note_off_c, 0, 70, 50
1, 330977, Control_c, 0, 64, 113
1, 331007, Control_c, 0, 64, 112
1, 331008, Note_on_c, 0, 63, 34
1, 331022, Control_c, 0, 64, 111
1, 331037, Control_c, 0, 64, 110
1, 331051, Control_c, 0, 64, 108
1, 331066, Control_c, 0, 64, 106
1, 331081, Control_c, 0, 64, 104
1, 331081, Note_on_c, 0, 68, 41
1, 331096, Control_c, 0, 64, 102
1, 331111, Control_c, 0, 64, 100
1, 331125, Control_c, 0, 64, 98
1, 331138, Note_off_c, 0, 75, 27
1, 331140, Control_c, 0, 64, 96
1, 331155, Control_c, 0, 64, 95
1, 331170, Control_c, 0, 64, 94
1, 331184, Control_c, 0, 64, 93
1, 331193, Note_on_c, 0, 70, 44
1, 331199, Control_c, 0, 64, 90
1, 331207, Note_off_c, 0, 63, 22
1, 331214, Control_c, 0, 64, 88
1, 331229, Control_c, 0, 64, 86
1, 331244, Control_c, 0, 64, 86
1, 331258, Control_c, 0, 64, 85
1, 331271, Note_off_c, 0, 68, 39
1, 331273, Control_c, 0, 64, 83
1, 331276, Note_on_c, 0, 75, 45
1, 331288, Control_c, 0, 64, 80
1, 331303, Control_c, 0, 64, 77
1, 331318, Control_c, 0, 64, 74
1, 331332, Control_c, 0, 64, 71
1, 331347, Control_c, 0, 64, 70
1, 331362, Control_c, 0, 64, 71
1, 331373, Note_on_c, 0, 63, 29
1, 331391, Control_c, 0, 64, 71
1, 331406, Control_c, 0, 64, 72
1, 331417, Note_off_c, 0, 70, 33
1, 331421, Control_c, 0, 64, 75
1, 331436, Control_c, 0, 64, 78
1, 331449, Note_on_c, 0, 67, 41
1, 331451, Control_c, 0, 64, 82
1, 331466, Control_c, 0, 64, 86
1, 331481, Control_c, 0, 64, 90
1, 331496, Control_c, 0, 64, 93
1, 331510, Control_c, 0, 64, 96
1, 331525, Control_c, 0, 64, 100
1, 331540, Control_c, 0, 64, 104
1, 331540, Note_off_c, 0, 75, 28
1, 331555, Note_on_c, 0, 70, 47
1, 331555, Control_c, 0, 64, 108
1, 331561, Note_off_c, 0, 63, 38
1, 331570, Control_c, 0, 64, 111
1, 331591, Control_c, 0, 64, 113
1, 331618, Note_off_c, 0, 67, 31
1, 331654, Note_on_c, 0, 75, 25
1, 331666, Control_c, 0, 64, 112
1, 331681, Control_c, 0, 64, 111
1, 331696, Control_c, 0, 64, 111
1, 331725, Note_off_c, 0, 70, 36
1, 331726, Control_c, 0, 64, 110
1, 331741, Control_c, 0, 64, 110
1, 331755, Control_c, 0, 64, 109
1, 331757, Note_on_c, 0, 63, 35
1, 331770, Control_c, 0, 64, 108
1, 331785, Control_c, 0, 64, 107
1, 331800, Control_c, 0, 64, 106
1, 331815, Control_c, 0, 64, 105
1, 331830, Control_c, 0, 64, 104
1, 331833, Note_on_c, 0, 67, 24
1, 331844, Control_c, 0, 64, 103
1, 331859, Control_c, 0, 64, 102
1, 331863, Note_off_c, 0, 63, 0
1, 331871, Note_off_c, 0, 75, 28
1, 331874, Control_c, 0, 64, 101
1, 331889, Control_c, 0, 64, 100
1, 331900, Poly_aftertouch_c, 0, 63, 127
1, 331904, Control_c, 0, 64, 98
1, 331919, Control_c, 0, 64, 97
1, 331934, Control_c, 0, 64, 95
1, 331949, Control_c, 0, 64, 94
1, 331963, Control_c, 0, 64, 92
1, 331973, Note_on_c, 0, 84, 55
1, 331978, Control_c, 0, 64, 91
1, 331979, Note_off_c, 0, 67, 36
1, 331993, Control_c, 0, 64, 89
1, 331994, Note_on_c, 0, 72, 40
1, 332002, Poly_aftertouch_c, 0, 63, 0
1, 332007, Control_c, 0, 64, 87
1, 332022, Control_c, 0, 64, 85
1, 332037, Control_c, 0, 64, 83
1, 332052, Control_c, 0, 64, 80
1, 332053, Note_on_c, 0, 75, 26
1, 332067, Control_c, 0, 64, 76
1, 332081, Control_c, 0, 64, 71
1, 332096, Control_c, 0, 64, 65
1, 332111, Control_c, 0, 64, 60
1, 332125, Control_c, 0, 64, 56
1, 332140, Note_off_c, 0, 87, 53
1, 332149, Note_off_c, 0, 72, 53
1, 332170, Control_c, 0, 64, 57
1, 332175, Note_on_c, 0, 63, 21
1, 332185, Control_c, 0, 64, 59
1, 332199, Control_c, 0, 64, 61
1, 332214, Control_c, 0, 64, 63
1, 332229, Control_c, 0, 64, 65
1, 332244, Control_c, 0, 64, 68
1, 332248, Note_off_c, 0, 75, 34
1, 332254, Note_on_c, 0, 68, 33
1, 332259, Control_c, 0, 64, 73
1, 332274, Control_c, 0, 64, 82
1, 332289, Control_c, 0, 64, 94
1, 332304, Control_c, 0, 64, 115
1, 332318, Control_c, 0, 64, 127
1, 332347, Note_off_c, 0, 63, 23
1, 332369, Note_off_c, 0, 84, 60
1, 332371, Note_on_c, 0, 72, 30
1, 332425, Note_off_c, 0, 68, 42
1, 332449, Note_on_c, 0, 75, 28
1, 332560, Note_on_c, 0, 63, 30
1, 332608, Control_c, 0, 64, 119
1, 332623, Control_c, 0, 64, 115
1, 332637, Control_c, 0, 64, 111
1, 332646, Note_on_c, 0, 68, 28
1, 332652, Control_c, 0, 64, 107
1, 332667, Control_c, 0, 64, 103
1, 332682, Control_c, 0, 64, 100
1, 332697, Control_c, 0, 64, 96
1, 332706, Note_off_c, 0, 75, 35
1, 332707, Note_off_c, 0, 72, 29
1, 332712, Control_c, 0, 64, 93
1, 332727, Control_c, 0, 64, 90
1, 332742, Control_c, 0, 64, 88
1, 332748, Note_on_c, 0, 71, 42
1, 332756, Control_c, 0, 64, 86
1, 332766, Note_off_c, 0, 63, 30
1, 332771, Control_c, 0, 64, 83
1, 332786, Control_c, 0, 64, 80
1, 332801, Control_c, 0, 64, 75
1, 332816, Control_c, 0, 64, 69
1, 332817, Note_off_c, 0, 68, 34
1, 332830, Control_c, 0, 64, 63
1, 332845, Control_c, 0, 64, 58
1, 332875, Control_c, 0, 64, 59
1, 332883, Note_on_c, 0, 75, 15
1, 332890, Control_c, 0, 64, 60
1, 332904, Control_c, 0, 64, 62
1, 332919, Control_c, 0, 64, 64
1, 332934, Control_c, 0, 64, 65
1, 332948, Control_c, 0, 64, 67
1, 332963, Control_c, 0, 64, 70
1, 332978, Control_c, 0, 64, 74
1, 332979, Note_on_c, 0, 44, 40
1, 332984, Note_off_c, 0, 71, 34
1, 332985, Note_on_c, 0, 63, 23
1, 332993, Control_c, 0, 64, 80
1, 333008, Control_c, 0, 64, 92
1, 333022, Control_c, 0, 64, 121
1, 333037, Control_c, 0, 64, 127
1, 333084, Note_on_c, 0, 68, 40
1, 333154, Note_off_c, 0, 75, 41
1, 333177, Note_on_c, 0, 46, 67
1, 333188, Note_on_c, 0, 71, 45
1, 333201, Note_off_c, 0, 63, 37
1, 333252, Note_off_c, 0, 68, 31
1, 333305, Note_on_c, 0, 75, 28
1, 333340, Note_off_c, 0, 44, 39
1, 333369, Note_on_c, 0, 47, 76
1, 333374, Note_off_c, 0, 71, 56
1, 333393, Note_on_c, 0, 63, 53
1, 333453, Note_off_c, 0, 46, 58
1, 333463, Note_on_c, 0, 68, 49
1, 333502, Note_off_c, 0, 75, 34
1, 333599, Note_on_c, 0, 39, 76
1, 333624, Note_off_c, 0, 63, 35
1, 333628, Note_on_c, 0, 70, 51
1, 333668, Control_c, 0, 64, 118
1, 333681, Note_off_c, 0, 68, 31
1, 333683, Control_c, 0, 64, 109
1, 333698, Control_c, 0, 64, 102
1, 333708, Note_on_c, 0, 75, 42
1, 333713, Control_c, 0, 64, 95
1, 333723, Note_off_c, 0, 47, 51
1, 333727, Control_c, 0, 64, 87
1, 333742, Control_c, 0, 64, 78
1, 333757, Control_c, 0, 64, 69
1, 333771, Control_c, 0, 64, 62
1, 333786, Note_off_c, 0, 70, 56
1, 333786, Control_c, 0, 64, 55
1, 333800, Note_on_c, 0, 63, 55
1, 333801, Control_c, 0, 64, 52
1, 333853, Control_c, 0, 64, 55
1, 333868, Control_c, 0, 64, 57
1, 333883, Control_c, 0, 64, 61
1, 333895, Note_on_c, 0, 68, 52
1, 333898, Control_c, 0, 64, 63
1, 333913, Control_c, 0, 64, 65
1, 333927, Control_c, 0, 64, 68
1, 333942, Control_c, 0, 64, 73
1, 333953, Note_off_c, 0, 75, 33
1, 333957, Control_c, 0, 64, 84
1, 333972, Control_c, 0, 64, 107
1, 333986, Control_c, 0, 64, 127
1, 333997, Note_on_c, 0, 70, 56
1, 334010, Note_off_c, 0, 63, 36
1, 334083, Note_off_c, 0, 68, 35
1, 334086, Note_on_c, 0, 75, 51
1, 334145, Note_off_c, 0, 70, 51
1, 334182, Note_on_c, 0, 63, 51
1, 334262, Note_on_c, 0, 68, 50
1, 334269, Control_c, 0, 64, 117
1, 334283, Control_c, 0, 64, 104
1, 334298, Control_c, 0, 64, 91
1, 334313, Control_c, 0, 64, 76
1, 334328, Control_c, 0, 64, 66
1, 334343, Control_c, 0, 64, 60
1, 334357, Control_c, 0, 64, 58
1, 334360, Note_off_c, 0, 75, 33
1, 334363, Note_off_c, 0, 63, 35
1, 334365, Note_on_c, 0, 70, 52
1, 334372, Control_c, 0, 64, 60
1, 334387, Control_c, 0, 64, 62
1, 334402, Control_c, 0, 64, 64
1, 334417, Control_c, 0, 64, 66
1, 334426, Note_off_c, 0, 68, 53
1, 334432, Control_c, 0, 64, 69
1, 334447, Control_c, 0, 64, 73
1, 334461, Note_on_c, 0, 75, 30
1, 334462, Control_c, 0, 64, 80
1, 334476, Control_c, 0, 64, 90
1, 334491, Control_c, 0, 64, 101
1, 334506, Control_c, 0, 64, 117
1, 334521, Control_c, 0, 64, 127
1, 334546, Note_on_c, 0, 63, 49
1, 334551, Note_off_c, 0, 70, 48
1, 334630, Note_on_c, 0, 67, 46
1, 334717, Note_off_c, 0, 75, 32
1, 334730, Note_on_c, 0, 70, 50
1, 334743, Note_off_c, 0, 63, 36
1, 334772, Note_off_c, 0, 67, 46
1, 334780, Control_c, 0, 64, 123
1, 334795, Control_c, 0, 64, 119
1, 334809, Control_c, 0, 64, 118
1, 334816, Note_on_c, 0, 75, 48
1, 334824, Control_c, 0, 64, 115
1, 334839, Control_c, 0, 64, 113
1, 334854, Control_c, 0, 64, 113
1, 334885, Control_c, 0, 64, 112
1, 334898, Note_off_c, 0, 70, 37
1, 334899, Control_c, 0, 64, 111
1, 334914, Control_c, 0, 64, 110
1, 334925, Note_on_c, 0, 63, 52
1, 334929, Control_c, 0, 64, 109
1, 334944, Control_c, 0, 64, 108
1, 334959, Control_c, 0, 64, 107
1, 334973, Control_c, 0, 64, 106
1, 334988, Control_c, 0, 64, 104
1, 334992, Note_on_c, 0, 67, 38
1, 335003, Control_c, 0, 64, 103
1, 335018, Control_c, 0, 64, 102
1, 335022, Note_off_c, 0, 75, 34
1, 335032, Control_c, 0, 64, 100
1, 335047, Control_c, 0, 64, 99
1, 335062, Control_c, 0, 64, 98
1, 335077, Control_c, 0, 64, 97
1, 335092, Control_c, 0, 64, 96
1, 335097, Note_off_c, 0, 63, 23
1, 335106, Control_c, 0, 64, 94
1, 335119, Note_on_c, 0, 32, 59
1, 335121, Control_c, 0, 64, 92
1, 335128, Note_on_c, 0, 72, 49
1, 335129, Note_off_c, 0, 67, 35
1, 335136, Control_c, 0, 64, 90
1, 335151, Control_c, 0, 64, 84
1, 335166, Control_c, 0, 64, 77
1, 335180, Control_c, 0, 64, 68
1, 335195, Control_c, 0, 64, 59
1, 335210, Control_c, 0, 64, 47
1, 335225, Control_c, 0, 64, 43
1, 335252, Note_off_c, 0, 39, 59
1, 335255, Control_c, 0, 64, 44
1, 335269, Poly_aftertouch_c, 0, 75, 127
1, 335270, Control_c, 0, 64, 45
1, 335284, Control_c, 0, 64, 48
1, 335298, Note_off_c, 0, 72, 53
1, 335299, Control_c, 0, 64, 50
1, 335314, Control_c, 0, 64, 53
1, 335332, Note_on_c, 0, 63, 42
1, 335336, Control_c, 0, 64, 56
1, 335351, Control_c, 0, 64, 59
1, 335366, Control_c, 0, 64, 61
1, 335380, Control_c, 0, 64, 64
1, 335395, Control_c, 0, 64, 67
1, 335408, Poly_aftertouch_c, 0, 75, 0
1, 335410, Control_c, 0, 64, 71
1, 335420, Note_on_c, 0, 68, 44
1, 335425, Control_c, 0, 64, 78
1, 335439, Control_c, 0, 64, 87
1, 335454, Control_c, 0, 64, 95
1, 335469, Control_c, 0, 64, 102
1, 335484, Control_c, 0, 64, 106
1, 335499, Control_c, 0, 64, 108
1, 335508, Note_off_c, 0, 63, 23
1, 335514, Control_c, 0, 64, 108
1, 335529, Control_c, 0, 64, 109
1, 335532, Note_off_c, 0, 32, 61
1, 335537, Note_off_c, 0, 68, 50
1, 335544, Note_on_c, 0, 72, 48
1, 335588, Control_c, 0, 64, 108
1, 335603, Control_c, 0, 64, 107
1, 335618, Control_c, 0, 64, 106
1, 335632, Control_c, 0, 64, 105
1, 335642, Note_on_c, 0, 75, 30
1, 335647, Control_c, 0, 64, 104
1, 335662, Control_c, 0, 64, 103
1, 335678, Control_c, 0, 64, 102
1, 335693, Control_c, 0, 64, 101
1, 335708, Control_c, 0, 64, 100
1, 335722, Control_c, 0, 64, 99
1, 335729, Note_on_c, 0, 63, 48
1, 335737, Control_c, 0, 64, 98
1, 335748, Note_off_c, 0, 72, 34
1, 335752, Control_c, 0, 64, 97
1, 335767, Control_c, 0, 64, 96
1, 335782, Control_c, 0, 64, 95
1, 335796, Control_c, 0, 64, 94
1, 335809, Note_off_c, 0, 75, 37
1, 335809, Note_on_c, 0, 68, 46
1, 335811, Control_c, 0, 64, 94
1, 335826, Control_c, 0, 64, 93
1, 335840, Control_c, 0, 64, 92
1, 335855, Control_c, 0, 64, 92
1, 335870, Control_c, 0, 64, 91
1, 335885, Control_c, 0, 64, 90
1, 335900, Note_off_c, 0, 63, 25
1, 335900, Control_c, 0, 64, 90
1, 335908, Note_on_c, 0, 72, 43
1, 335944, Control_c, 0, 64, 89
1, 335959, Control_c, 0, 64, 88
1, 335961, Note_off_c, 0, 68, 35
1, 335973, Control_c, 0, 64, 84
1, 335988, Control_c, 0, 64, 80
1, 336003, Control_c, 0, 64, 77
1, 336016, Note_on_c, 0, 75, 38
1, 336018, Control_c, 0, 64, 76
1, 336062, Control_c, 0, 64, 76
1, 336085, Control_c, 0, 64, 77
1, 336095, Note_on_c, 0, 84, 67
1, 336098, Note_on_c, 0, 80, 60
1, 336100, Control_c, 0, 64, 78
1, 336115, Control_c, 0, 64, 80
1, 336122, Note_on_c, 0, 63, 39
1, 336127, Note_off_c, 0, 72, 33
1, 336129, Control_c, 0, 64, 84
1, 336144, Control_c, 0, 64, 90
1, 336159, Control_c, 0, 64, 98
1, 336173, Control_c, 0, 64, 116
1, 336180, Note_on_c, 0, 68, 50
1, 336182, Note_off_c, 0, 75, 36
1, 336188, Control_c, 0, 64, 127
1, 336194, Note_off_c, 0, 80, 59
1, 336205, Note_off_c, 0, 84, 61
1, 336238, Note_off_c, 0, 63, 30
1, 336288, Note_on_c, 0, 72, 47
1, 336293, Note_on_c, 0, 84, 90
1, 336299, Note_on_c, 0, 80, 79
1, 336300, Note_off_c, 0, 68, 49
1, 336361, Note_on_c, 0, 75, 52
1, 336395, Note_off_c, 0, 80, 59
1, 336396, Note_off_c, 0, 84, 58
1, 336441, Note_on_c, 0, 63, 44
1, 336444, Note_off_c, 0, 72, 55
1, 336469, Note_off_c, 0, 75, 55
1, 336475, Note_on_c, 0, 85, 93
1, 336491, Note_on_c, 0, 80, 74
1, 336516, Note_off_c, 0, 63, 59
1, 336525, Note_on_c, 0, 68, 53
1, 336592, Note_off_c, 0, 80, 59
1, 336617, Note_off_c, 0, 85, 61
1, 336678, Control_c, 0, 64, 108
1, 336682, Note_off_c, 0, 68, 50
1, 336693, Note_on_c, 0, 84, 95
1, 336693, Control_c, 0, 64, 78
1, 336696, Note_on_c, 0, 82, 60
1, 336700, Note_on_c, 0, 79, 75
1, 336708, Control_c, 0, 64, 61
1, 336723, Control_c, 0, 64, 28
1, 336727, Note_on_c, 0, 72, 41
1, 336738, Control_c, 0, 64, 16
1, 336752, Control_c, 0, 64, 22
1, 336753, Note_on_c, 0, 76, 55
1, 336767, Control_c, 0, 64, 36
1, 336782, Control_c, 0, 64, 52
1, 336796, Control_c, 0, 64, 61
1, 336811, Control_c, 0, 64, 67
1, 336832, Note_off_c, 0, 79, 53
1, 336834, Control_c, 0, 64, 80
1, 336849, Control_c, 0, 64, 114
1, 336864, Control_c, 0, 64, 127
1, 336882, Note_on_c, 0, 64, 53
1, 336886, Note_off_c, 0, 72, 35
1, 336889, Note_off_c, 0, 82, 62
1, 336912, Note_off_c, 0, 76, 47
1, 336970, Note_on_c, 0, 67, 52
1, 337082, Note_off_c, 0, 64, 35
1, 337101, Note_on_c, 0, 79, 79
1, 337136, Note_off_c, 0, 84, 62
1, 337148, Note_off_c, 0, 67, 54
1, 337150, Note_on_c, 0, 72, 50
1, 337189, Note_on_c, 0, 76, 54
1, 337220, Note_off_c, 0, 79, 63
1, 337280, Note_off_c, 0, 72, 35
1, 337298, Note_on_c, 0, 64, 54
1, 337350, Note_off_c, 0, 76, 43
1, 337383, Note_on_c, 0, 67, 51
1, 337416, Note_off_c, 0, 64, 36
1, 337483, Note_off_c, 0, 67, 56
1, 337484, Note_on_c, 0, 72, 56
1, 337531, Control_c, 0, 64, 116
1, 337546, Control_c, 0, 64, 115
1, 337557, Note_on_c, 0, 76, 51
1, 337561, Control_c, 0, 64, 114
1, 337612, Note_off_c, 0, 72, 52
1, 337627, Control_c, 0, 64, 110
1, 337642, Control_c, 0, 64, 96
1, 337657, Control_c, 0, 64, 81
1, 337659, Note_on_c, 0, 64, 48
1, 337672, Note_on_c, 0, 60, 70
1, 337672, Control_c, 0, 64, 69
1, 337675, Note_on_c, 0, 48, 64
1, 337687, Control_c, 0, 64, 65
1, 337701, Control_c, 0, 64, 64
1, 337714, Note_off_c, 0, 76, 32
1, 337716, Control_c, 0, 64, 67
1, 337731, Control_c, 0, 64, 71
1, 337745, Control_c, 0, 64, 77
1, 337753, Note_on_c, 0, 67, 58
1, 337760, Control_c, 0, 64, 91
1, 337775, Control_c, 0, 64, 117
1, 337786, Note_off_c, 0, 60, 63
1, 337789, Note_off_c, 0, 48, 61
1, 337790, Control_c, 0, 64, 127
1, 337838, Note_off_c, 0, 64, 33
1, 337862, Note_on_c, 0, 60, 85
1, 337864, Note_on_c, 0, 48, 78
1, 337869, Note_on_c, 0, 72, 63
1, 337888, Note_off_c, 0, 67, 56
1, 337928, Note_off_c, 0, 60, 62
1, 337930, Note_on_c, 0, 76, 60
1, 337963, Note_off_c, 0, 48, 63
1, 338018, Note_off_c, 0, 72, 56
1, 338039, Note_on_c, 0, 64, 62
1, 338052, Note_on_c, 0, 55, 83
1, 338055, Note_on_c, 0, 43, 77
1, 338089, Note_off_c, 0, 55, 58
1, 338089, Note_off_c, 0, 76, 57
1, 338111, Note_on_c, 0, 67, 58
1, 338112, Note_off_c, 0, 43, 55
1, 338121, Note_off_c, 0, 64, 57
1, 338220, Note_off_c, 0, 67, 55
1, 338236, Control_c, 0, 64, 85
1, 338246, Note_on_c, 0, 44, 76
1, 338248, Note_on_c, 0, 56, 79
1, 338250, Control_c, 0, 64, 69
1, 338261, Note_on_c, 0, 72, 53
1, 338265, Control_c, 0, 64, 55
1, 338280, Control_c, 0, 64, 30
1, 338295, Control_c, 0, 64, 25
1, 338310, Control_c, 0, 64, 26
1, 338331, Control_c, 0, 64, 38
1, 338346, Control_c, 0, 64, 51
1, 338361, Control_c, 0, 64, 59
1, 338362, Note_on_c, 0, 77, 56
1, 338376, Control_c, 0, 64, 64
1, 338391, Control_c, 0, 64, 69
1, 338392, Note_off_c, 0, 56, 59
1, 338405, Control_c, 0, 64, 78
1, 338420, Control_c, 0, 64, 102
1, 338435, Control_c, 0, 64, 127
1, 338441, Note_off_c, 0, 72, 37
1, 338473, Note_on_c, 0, 65, 55
1, 338477, Poly_aftertouch_c, 0, 43, 127
1, 338525, Note_off_c, 0, 77, 43
1, 338527, Poly_aftertouch_c, 0, 43, 0
1, 338569, Note_on_c, 0, 68, 45
1, 338665, Note_on_c, 0, 53, 63
1, 338667, Note_on_c, 0, 41, 60
1, 338672, Note_off_c, 0, 65, 24
1, 338699, Note_on_c, 0, 72, 52
1, 338703, Control_c, 0, 64, 98
1, 338712, Note_off_c, 0, 68, 36
1, 338717, Control_c, 0, 64, 81
1, 338727, Note_off_c, 0, 44, 56
1, 338732, Control_c, 0, 64, 68
1, 338747, Control_c, 0, 64, 55
1, 338762, Control_c, 0, 64, 40
1, 338773, Note_on_c, 0, 77, 52
1, 338776, Control_c, 0, 64, 40
1, 338791, Control_c, 0, 64, 45
1, 338806, Control_c, 0, 64, 52
1, 338821, Control_c, 0, 64, 59
1, 338823, Note_off_c, 0, 41, 63
1, 338836, Control_c, 0, 64, 63
1, 338844, Note_off_c, 0, 72, 35
1, 338850, Note_off_c, 0, 53, 63
1, 338850, Control_c, 0, 64, 68
1, 338865, Note_on_c, 0, 65, 57
1, 338866, Control_c, 0, 64, 76
1, 338881, Control_c, 0, 64, 102
1, 338896, Control_c, 0, 64, 127
1, 338940, Note_off_c, 0, 77, 35
1, 338946, Note_on_c, 0, 68, 60
1, 339031, Note_off_c, 0, 65, 29
1, 339047, Note_on_c, 0, 72, 62
1, 339081, Note_off_c, 0, 68, 52
1, 339081, Control_c, 0, 64, 119
1, 339096, Control_c, 0, 64, 116
1, 339140, Note_on_c, 0, 77, 62
1, 339141, Control_c, 0, 64, 113
1, 339155, Control_c, 0, 64, 106
1, 339170, Control_c, 0, 64, 97
1, 339178, Note_off_c, 0, 72, 47
1, 339185, Control_c, 0, 64, 87
1, 339199, Control_c, 0, 64, 81
1, 339214, Control_c, 0, 64, 78
1, 339224, Note_on_c, 0, 84, 81
1, 339225, Note_on_c, 0, 80, 75
1, 339229, Control_c, 0, 64, 79
1, 339243, Note_on_c, 0, 65, 55
1, 339244, Control_c, 0, 64, 82
1, 339259, Control_c, 0, 64, 89
1, 339273, Control_c, 0, 64, 102
1, 339276, Note_off_c, 0, 77, 36
1, 339288, Control_c, 0, 64, 127
1, 339294, Note_on_c, 0, 68, 62
1, 339307, Note_off_c, 0, 80, 63
1, 339310, Note_off_c, 0, 84, 62
1, 339348, Note_off_c, 0, 65, 36
1, 339410, Note_on_c, 0, 80, 87
1, 339410, Note_on_c, 0, 84, 95
1, 339413, Note_off_c, 0, 68, 53
1, 339415, Note_on_c, 0, 72, 57
1, 339466, Note_on_c, 0, 77, 66
1, 339499, Note_off_c, 0, 80, 61
1, 339504, Note_off_c, 0, 84, 60
1, 339517, Note_off_c, 0, 72, 59
1, 339574, Note_on_c, 0, 65, 41
1, 339586, Note_on_c, 0, 85, 98
1, 339596, Note_on_c, 0, 80, 82
1, 339605, Note_off_c, 0, 77, 44
1, 339636, Note_on_c, 0, 68, 58
1, 339701, Note_off_c, 0, 80, 58
1, 339701, Note_off_c, 0, 85, 63
1, 339780, Note_off_c, 0, 65, 31
1, 339786, Note_on_c, 0, 84, 98
1, 339792, Control_c, 0, 64, 93
1, 339795, Note_on_c, 0, 79, 78
1, 339796, Note_on_c, 0, 82, 78
1, 339803, Note_off_c, 0, 68, 52
1, 339806, Control_c, 0, 64, 66
1, 339820, Note_on_c, 0, 72, 58
1, 339828, Control_c, 0, 64, 44
1, 339843, Control_c, 0, 64, 24
1, 339858, Control_c, 0, 64, 26
1, 339873, Control_c, 0, 64, 34
1, 339888, Control_c, 0, 64, 49
1, 339902, Control_c, 0, 64, 61
1, 339907, Note_on_c, 0, 76, 57
1, 339917, Control_c, 0, 64, 69
1, 339926, Note_off_c, 0, 72, 64
1, 339932, Control_c, 0, 64, 84
1, 339941, Note_off_c, 0, 79, 54
1, 339947, Control_c, 0, 64, 127
1, 339984, Note_off_c, 0, 82, 60
1, 339995, Note_off_c, 0, 76, 56
1, 339997, Note_on_c, 0, 64, 61
1, 340077, Note_on_c, 0, 67, 60
1, 340116, Note_off_c, 0, 64, 51
1, 340176, Note_on_c, 0, 79, 89
1, 340197, Note_on_c, 0, 72, 60
1, 340204, Note_off_c, 0, 84, 61
1, 340218, Note_off_c, 0, 67, 57
1, 340253, Note_off_c, 0, 79, 64
1, 340267, Note_on_c, 0, 76, 61
1, 340325, Note_off_c, 0, 72, 56
1, 340371, Note_on_c, 0, 64, 59
1, 340429, Note_off_c, 0, 76, 45
1, 340441, Note_on_c, 0, 67, 62
1, 340507, Note_off_c, 0, 64, 37
1, 340549, Note_on_c, 0, 72, 65
1, 340582, Note_off_c, 0, 67, 54
1, 340635, Note_on_c, 0, 76, 69
1, 340696, Control_c, 0, 64, 106
1, 340705, Note_off_c, 0, 72, 56
1, 340711, Control_c, 0, 64, 86
1, 340725, Control_c, 0, 64, 73
1, 340740, Control_c, 0, 64, 63
1, 340743, Note_on_c, 0, 64, 57
1, 340753, Note_on_c, 0, 60, 84
1, 340755, Note_on_c, 0, 48, 78
1, 340755, Control_c, 0, 64, 61
1, 340770, Control_c, 0, 64, 63
1, 340785, Control_c, 0, 64, 65
1, 340794, Note_off_c, 0, 76, 44
1, 340799, Control_c, 0, 64, 69
1, 340814, Note_on_c, 0, 67, 69
1, 340814, Control_c, 0, 64, 75
1, 340829, Control_c, 0, 64, 85
1, 340844, Control_c, 0, 64, 121
1, 340848, Note_off_c, 0, 48, 63
1, 340856, Note_off_c, 0, 60, 62
1, 340859, Control_c, 0, 64, 127
1, 340870, Note_off_c, 0, 64, 49
1, 340937, Note_on_c, 0, 72, 72
1, 340944, Note_on_c, 0, 60, 92
1, 340945, Note_on_c, 0, 48, 85
1, 340976, Note_off_c, 0, 67, 61
1, 341004, Note_off_c, 0, 60, 59
1, 341026, Note_on_c, 0, 76, 73
1, 341038, Note_off_c, 0, 48, 63
1, 341126, Note_on_c, 0, 55, 90
1, 341129, Note_on_c, 0, 64, 73
1, 341133, Note_on_c, 0, 43, 79
1, 341135, Note_off_c, 0, 72, 55
1, 341151, Note_off_c, 0, 55, 66
1, 341164, Note_off_c, 0, 43, 64
1, 341191, Note_off_c, 0, 76, 60
1, 341216, Note_on_c, 0, 67, 70
1, 341234, Note_off_c, 0, 64, 57
1, 341312, Control_c, 0, 64, 113
1, 341325, Note_on_c, 0, 44, 87
1, 341327, Control_c, 0, 64, 77
1, 341327, Note_on_c, 0, 56, 89
1, 341341, Control_c, 0, 64, 58
1, 341348, Note_on_c, 0, 72, 73
1, 341351, Note_off_c, 0, 67, 61
1, 341356, Control_c, 0, 64, 0
1, 341401, Control_c, 0, 64, 25
1, 341415, Control_c, 0, 64, 49
1, 341430, Control_c, 0, 64, 59
1, 341444, Note_on_c, 0, 77, 69
1, 341445, Control_c, 0, 64, 65
1, 341460, Control_c, 0, 64, 72
1, 341472, Note_off_c, 0, 56, 54
1, 341474, Control_c, 0, 64, 85
1, 341489, Control_c, 0, 64, 127
1, 341492, Note_off_c, 0, 72, 61
1, 341548, Note_on_c, 0, 65, 72
1, 341624, Note_on_c, 0, 68, 69
1, 341658, Note_off_c, 0, 77, 36
1, 341699, Note_off_c, 0, 65, 54
1, 341715, Note_on_c, 0, 41, 75
1, 341718, Note_on_c, 0, 53, 80
1, 341740, Control_c, 0, 64, 87
1, 341755, Control_c, 0, 64, 69
1, 341757, Note_on_c, 0, 72, 60
1, 341770, Control_c, 0, 64, 50
1, 341772, Note_off_c, 0, 68, 57
1, 341774, Note_off_c, 0, 44, 57
1, 341784, Control_c, 0, 64, 34
1, 341799, Control_c, 0, 64, 40
1, 341814, Control_c, 0, 64, 49
1, 341829, Control_c, 0, 64, 56
1, 341840, Note_on_c, 0, 77, 63
1, 341844, Control_c, 0, 64, 61
1, 341858, Control_c, 0, 64, 65
1, 341864, Note_off_c, 0, 41, 64
1, 341873, Control_c, 0, 64, 70
1, 341887, Note_off_c, 0, 72, 57
1, 341888, Control_c, 0, 64, 83
1, 341903, Control_c, 0, 64, 127
1, 341910, Note_off_c, 0, 53, 63
1, 341926, Note_on_c, 0, 65, 66
1, 341991, Note_off_c, 0, 77, 51
1, 341997, Note_on_c, 0, 68, 69
1, 342075, Control_c, 0, 64, 110
1, 342089, Control_c, 0, 64, 97
1, 342100, Note_off_c, 0, 65, 35
1, 342104, Note_on_c, 0, 72, 70
1, 342104, Control_c, 0, 64, 96
1, 342119, Control_c, 0, 64, 97
1, 342134, Control_c, 0, 64, 98
1, 342136, Note_off_c, 0, 68, 55
1, 342149, Control_c, 0, 64, 99
1, 342178, Control_c, 0, 64, 98
1, 342188, Note_on_c, 0, 77, 68
1, 342193, Control_c, 0, 64, 95
1, 342208, Control_c, 0, 64, 89
1, 342223, Control_c, 0, 64, 81
1, 342232, Note_off_c, 0, 72, 56
1, 342237, Control_c, 0, 64, 72
1, 342252, Control_c, 0, 64, 67
1, 342263, Note_on_c, 0, 84, 79
1, 342267, Control_c, 0, 64, 63
1, 342275, Note_on_c, 0, 65, 52
1, 342281, Control_c, 0, 64, 63
1, 342296, Control_c, 0, 64, 64
1, 342311, Control_c, 0, 64, 65
1, 342326, Control_c, 0, 64, 67
1, 342340, Note_off_c, 0, 77, 55
1, 342342, Note_on_c, 0, 68, 60
1, 342342, Control_c, 0, 64, 70
1, 342345, Note_off_c, 0, 84, 62
1, 342357, Control_c, 0, 64, 74
1, 342371, Control_c, 0, 64, 82
1, 342386, Control_c, 0, 64, 93
1, 342401, Control_c, 0, 64, 121
1, 342415, Control_c, 0, 64, 127
1, 342431, Note_off_c, 0, 65, 28
1, 342439, Note_on_c, 0, 72, 66
1, 342446, Note_on_c, 0, 84, 100
1, 342448, Note_off_c, 0, 68, 59
1, 342516, Note_on_c, 0, 77, 70
1, 342537, Note_off_c, 0, 84, 59
1, 342561, Note_off_c, 0, 72, 62
1, 342619, Note_on_c, 0, 84, 103
1, 342637, Note_on_c, 0, 65, 71
1, 342661, Note_off_c, 0, 84, 67
1, 342679, Note_off_c, 0, 77, 44
1, 342728, Note_on_c, 0, 68, 56
1, 342786, Control_c, 0, 64, 84
1, 342799, Note_off_c, 0, 65, 50
1, 342801, Control_c, 0, 64, 64
1, 342820, Note_on_c, 0, 85, 101
1, 342823, Control_c, 0, 64, 37
1, 342836, Note_off_c, 0, 68, 54
1, 342838, Control_c, 0, 64, 27
1, 342848, Note_on_c, 0, 73, 69
1, 342853, Control_c, 0, 64, 39
1, 342868, Control_c, 0, 64, 54
1, 342883, Control_c, 0, 64, 66
1, 342898, Control_c, 0, 64, 79
1, 342902, Note_off_c, 0, 85, 68
1, 342913, Control_c, 0, 64, 127
1, 342943, Note_on_c, 0, 77, 74
1, 342998, Note_off_c, 0, 73, 58
1, 343032, Note_on_c, 0, 65, 68
1, 343087, Note_off_c, 0, 77, 50
1, 343106, Note_on_c, 0, 68, 67
1, 343183, Note_off_c, 0, 65, 34
1, 343194, Control_c, 0, 64, 102
1, 343199, Note_on_c, 0, 49, 95
1, 343209, Control_c, 0, 64, 72
1, 343220, Note_on_c, 0, 73, 73
1, 343224, Control_c, 0, 64, 50
1, 343238, Control_c, 0, 64, 0
1, 343243, Note_off_c, 0, 68, 57
1, 343268, Control_c, 0, 64, 30
1, 343283, Control_c, 0, 64, 53
1, 343291, Note_on_c, 0, 77, 70
1, 343298, Control_c, 0, 64, 63
1, 343312, Control_c, 0, 64, 71
1, 343327, Control_c, 0, 64, 90
1, 343342, Control_c, 0, 64, 127
1, 343343, Note_off_c, 0, 73, 60
1, 343382, Note_on_c, 0, 65, 65
1, 343443, Note_off_c, 0, 77, 63
1, 343465, Note_on_c, 0, 68, 69
1, 343516, Note_off_c, 0, 65, 53
1, 343535, Control_c, 0, 64, 90
1, 343550, Control_c, 0, 64, 67
1, 343563, Note_on_c, 0, 73, 74
1, 343572, Control_c, 0, 64, 46
1, 343586, Control_c, 0, 64, 39
1, 343593, Note_off_c, 0, 68, 60
1, 343598, Note_off_c, 0, 49, 61
1, 343601, Control_c, 0, 64, 54
1, 343616, Control_c, 0, 64, 63
1, 343631, Control_c, 0, 64, 70
1, 343646, Control_c, 0, 64, 86
1, 343661, Note_on_c, 0, 78, 76
1, 343661, Control_c, 0, 64, 127
1, 343708, Note_off_c, 0, 73, 59
1, 343735, Note_on_c, 0, 66, 69
1, 343807, Note_off_c, 0, 78, 59
1, 343811, Note_on_c, 0, 69, 63
1, 343867, Note_off_c, 0, 66, 52
1, 343905, Note_on_c, 0, 81, 84
1, 343921, Note_on_c, 0, 73, 63
1, 343938, Note_off_c, 0, 69, 59
1, 343952, Note_on_c, 0, 78, 62
1, 344014, Note_off_c, 0, 73, 59
1, 344030, Note_on_c, 0, 66, 61
1, 344076, Note_off_c, 0, 78, 59
1, 344099, Note_off_c, 0, 66, 60
1, 344114, Note_on_c, 0, 69, 56
1, 344158, Note_on_c, 0, 83, 83
1, 344175, Note_off_c, 0, 81, 62
1, 344215, Note_off_c, 0, 69, 60
1, 344216, Note_on_c, 0, 73, 64
1, 344224, Control_c, 0, 64, 85
1, 344239, Control_c, 0, 64, 63
1, 344250, Note_on_c, 0, 85, 100
1, 344254, Control_c, 0, 64, 0
1, 344269, Note_off_c, 0, 83, 62
1, 344318, Note_on_c, 0, 77, 67
1, 344321, Control_c, 0, 64, 46
1, 344335, Control_c, 0, 64, 66
1, 344337, Note_off_c, 0, 85, 69
1, 344344, Note_off_c, 0, 73, 54
1, 344350, Control_c, 0, 64, 84
1, 344365, Control_c, 0, 64, 127
1, 344443, Note_on_c, 0, 65, 67
1, 344483, Note_off_c, 0, 77, 49
1, 344543, Note_on_c, 0, 68, 60
1, 344600, Note_off_c, 0, 65, 37
1, 344631, Note_on_c, 0, 49, 92
1, 344633, Control_c, 0, 64, 93
1, 344647, Control_c, 0, 64, 68
1, 344662, Note_on_c, 0, 73, 63
1, 344662, Control_c, 0, 64, 39
1, 344675, Note_off_c, 0, 68, 47
1, 344677, Control_c, 0, 64, 0
1, 344692, Control_c, 0, 64, 27
1, 344701, Note_on_c, 0, 77, 63
1, 344707, Control_c, 0, 64, 50
1, 344722, Control_c, 0, 64, 62
1, 344737, Control_c, 0, 64, 69
1, 344751, Note_off_c, 0, 73, 59
1, 344752, Control_c, 0, 64, 83
1, 344766, Control_c, 0, 64, 119
1, 344781, Control_c, 0, 64, 127
1, 344807, Note_on_c, 0, 65, 65
1, 344851, Note_off_c, 0, 77, 60
1, 344895, Note_on_c, 0, 68, 66
1, 344944, Note_off_c, 0, 65, 51
1, 344958, Control_c, 0, 64, 92
1, 344973, Control_c, 0, 64, 67
1, 344988, Control_c, 0, 64, 39
1, 344998, Note_on_c, 0, 73, 66
1, 345002, Control_c, 0, 64, 15
1, 345016, Note_off_c, 0, 49, 62
1, 345017, Note_off_c, 0, 68, 60
1, 345017, Control_c, 0, 64, 47
1, 345032, Control_c, 0, 64, 60
1, 345047, Control_c, 0, 64, 67
1, 345070, Control_c, 0, 64, 78
1, 345085, Control_c, 0, 64, 127
1, 345087, Note_on_c, 0, 78, 70
1, 345124, Note_off_c, 0, 73, 59
1, 345178, Note_on_c, 0, 66, 66
1, 345234, Note_off_c, 0, 78, 58
1, 345241, Note_on_c, 0, 69, 67
1, 345325, Note_off_c, 0, 66, 37
1, 345357, Note_on_c, 0, 81, 86
1, 345365, Note_on_c, 0, 73, 63
1, 345393, Note_off_c, 0, 69, 57
1, 345420, Note_on_c, 0, 78, 60
1, 345476, Note_off_c, 0, 73, 58
1, 345500, Note_on_c, 0, 66, 60
1, 345541, Note_off_c, 0, 78, 58
1, 345558, Note_on_c, 0, 69, 55
1, 345572, Note_off_c, 0, 66, 61
1, 345637, Note_on_c, 0, 83, 87
1, 345670, Note_off_c, 0, 81, 64
1, 345688, Note_on_c, 0, 73, 64
1, 345692, Control_c, 0, 64, 79
1, 345697, Note_off_c, 0, 69, 59
1, 345706, Control_c, 0, 64, 61
1, 345721, Control_c, 0, 64, 0
1, 345730, Note_on_c, 0, 85, 94
1, 345759, Note_off_c, 0, 83, 63
1, 345780, Control_c, 0, 64, 17
1, 345795, Control_c, 0, 64, 52
1, 345798, Note_on_c, 0, 77, 67
1, 345818, Control_c, 0, 64, 65
1, 345831, Note_off_c, 0, 73, 53
1, 345832, Control_c, 0, 64, 80
1, 345838, Note_off_c, 0, 85, 69
1, 345847, Control_c, 0, 64, 127
1, 345948, Note_on_c, 0, 65, 68
1, 346000, Note_off_c, 0, 77, 48
1, 346038, Note_on_c, 0, 68, 72
1, 346104, Note_off_c, 0, 65, 49
1, 346157, Note_on_c, 0, 49, 83
1, 346178, Note_on_c, 0, 73, 58
1, 346192, Note_off_c, 0, 68, 53
1, 346260, Note_on_c, 0, 77, 57
1, 346277, Note_off_c, 0, 73, 55
1, 346338, Control_c, 0, 64, 117
1, 346353, Control_c, 0, 64, 113
1, 346354, Note_on_c, 0, 65, 60
1, 346367, Control_c, 0, 64, 111
1, 346382, Control_c, 0, 64, 109
1, 346397, Control_c, 0, 64, 107
1, 346412, Control_c, 0, 64, 104
1, 346417, Note_off_c, 0, 77, 35
1, 346427, Control_c, 0, 64, 101
1, 346437, Note_on_c, 0, 68, 63
1, 346442, Control_c, 0, 64, 98
1, 346456, Control_c, 0, 64, 96
1, 346471, Control_c, 0, 64, 95
1, 346486, Control_c, 0, 64, 94
1, 346501, Control_c, 0, 64, 93
1, 346516, Control_c, 0, 64, 92
1, 346530, Control_c, 0, 64, 91
1, 346534, Note_off_c, 0, 65, 33
1, 346545, Control_c, 0, 64, 90
1, 346558, Note_on_c, 0, 73, 73
1, 346567, Control_c, 0, 64, 88
1, 346582, Control_c, 0, 64, 87
1, 346597, Control_c, 0, 64, 86
1, 346612, Control_c, 0, 64, 84
1, 346627, Control_c, 0, 64, 83
1, 346636, Note_off_c, 0, 68, 50
1, 346642, Control_c, 0, 64, 82
1, 346656, Control_c, 0, 64, 81
1, 346669, Note_on_c, 0, 77, 62
1, 346671, Control_c, 0, 64, 81
1, 346686, Control_c, 0, 64, 80
1, 346701, Control_c, 0, 64, 80
1, 346714, Note_off_c, 0, 73, 57
1, 346716, Control_c, 0, 64, 79
1, 346730, Control_c, 0, 64, 78
1, 346745, Control_c, 0, 64, 76
1, 346756, Note_on_c, 0, 65, 51
1, 346760, Control_c, 0, 64, 76
1, 346775, Control_c, 0, 64, 75
1, 346790, Control_c, 0, 64, 74
1, 346804, Control_c, 0, 64, 74
1, 346819, Control_c, 0, 64, 73
1, 346823, Note_on_c, 0, 68, 50
1, 346834, Control_c, 0, 64, 73
1, 346850, Control_c, 0, 64, 72
1, 346865, Control_c, 0, 64, 71
1, 346878, Note_off_c, 0, 77, 32
1, 346879, Control_c, 0, 64, 70
1, 346894, Control_c, 0, 64, 69
1, 346909, Control_c, 0, 64, 68
1, 346924, Control_c, 0, 64, 67
1, 346939, Note_off_c, 0, 65, 33
1, 346939, Control_c, 0, 64, 65
1, 346947, Note_on_c, 0, 48, 57
1, 346952, Note_on_c, 0, 72, 50
1, 346954, Control_c, 0, 64, 65
1, 346968, Control_c, 0, 64, 64
1, 346983, Note_off_c, 0, 68, 37
1, 346983, Control_c, 0, 64, 63
1, 346998, Control_c, 0, 64, 61
1, 347013, Control_c, 0, 64, 58
1, 347027, Control_c, 0, 64, 55
1, 347038, Note_off_c, 0, 49, 59
1, 347042, Control_c, 0, 64, 50
1, 347057, Control_c, 0, 64, 44
1, 347072, Control_c, 0, 64, 43
1, 347073, Note_on_c, 0, 77, 39
1, 347083, Note_off_c, 0, 72, 57
1, 347101, Control_c, 0, 64, 44
1, 347116, Control_c, 0, 64, 49
1, 347131, Control_c, 0, 64, 53
1, 347146, Control_c, 0, 64, 58
1, 347160, Control_c, 0, 64, 61
1, 347169, Note_on_c, 0, 65, 40
1, 347172, Note_off_c, 0, 77, 46
1, 347175, Control_c, 0, 64, 65
1, 347190, Control_c, 0, 64, 69
1, 347205, Control_c, 0, 64, 74
1, 347220, Control_c, 0, 64, 79
1, 347235, Control_c, 0, 64, 83
1, 347250, Control_c, 0, 64, 84
1, 347258, Note_on_c, 0, 68, 46
1, 347265, Control_c, 0, 64, 83
1, 347279, Control_c, 0, 64, 83
1, 347294, Control_c, 0, 64, 82
1, 347316, Control_c, 0, 64, 82
1, 347331, Control_c, 0, 64, 81
1, 347341, Note_off_c, 0, 65, 26
1, 347346, Control_c, 0, 64, 80
1, 347360, Control_c, 0, 64, 78
1, 347375, Control_c, 0, 64, 76
1, 347390, Control_c, 0, 64, 72
1, 347403, Note_off_c, 0, 68, 49
1, 347405, Control_c, 0, 64, 67
1, 347407, Note_on_c, 0, 47, 42
1, 347420, Control_c, 0, 64, 61
1, 347423, Note_off_c, 0, 48, 49
1, 347430, Note_on_c, 0, 74, 43
1, 347435, Control_c, 0, 64, 45
1, 347450, Control_c, 0, 64, 17
1, 347464, Control_c, 0, 64, 12
1, 347494, Control_c, 0, 64, 21
1, 347509, Control_c, 0, 64, 41
1, 347524, Control_c, 0, 64, 56
1, 347539, Control_c, 0, 64, 65
1, 347551, Note_on_c, 0, 77, 31
1, 347551, Note_off_c, 0, 74, 52
1, 347553, Control_c, 0, 64, 73
1, 347556, Note_off_c, 0, 47, 63
1, 347568, Control_c, 0, 64, 86
1, 347583, Control_c, 0, 64, 127
1, 347584, Note_off_c, 0, 77, 48
1, 347657, Note_on_c, 0, 65, 34
1, 347754, Note_on_c, 0, 67, 36
1, 347853, Note_off_c, 0, 65, 38
1, 347880, Control_c, 0, 64, 113
1, 347895, Control_c, 0, 64, 106
1, 347905, Note_on_c, 0, 86, 60
1, 347906, Note_off_c, 0, 67, 35
1, 347909, Control_c, 0, 64, 100
1, 347924, Control_c, 0, 64, 97
1, 347932, Note_on_c, 0, 74, 39
1, 347939, Control_c, 0, 64, 95
1, 347954, Control_c, 0, 64, 94
1, 347969, Control_c, 0, 64, 93
1, 347983, Control_c, 0, 64, 90
1, 347998, Control_c, 0, 64, 84
1, 348013, Control_c, 0, 64, 76
1, 348021, Note_on_c, 0, 77, 27
1, 348028, Control_c, 0, 64, 70
1, 348043, Control_c, 0, 64, 66
1, 348065, Control_c, 0, 64, 64
1, 348095, Control_c, 0, 64, 65
1, 348102, Note_off_c, 0, 77, 32
1, 348109, Control_c, 0, 64, 66
1, 348116, Note_off_c, 0, 74, 32
1, 348124, Control_c, 0, 64, 67
1, 348132, Note_on_c, 0, 65, 38
1, 348139, Control_c, 0, 64, 69
1, 348154, Control_c, 0, 64, 73
1, 348169, Control_c, 0, 64, 79
1, 348183, Control_c, 0, 64, 89
1, 348198, Control_c, 0, 64, 114
1, 348207, Note_on_c, 0, 67, 37
1, 348213, Control_c, 0, 64, 127
1, 348231, Note_off_c, 0, 86, 55
1, 348268, Note_off_c, 0, 65, 28
1, 348341, Note_on_c, 0, 74, 46
1, 348357, Note_off_c, 0, 67, 35
1, 348505, Note_off_c, 0, 74, 48
1, 348534, Note_on_c, 0, 86, 52
1, 348543, Note_on_c, 0, 65, 31
1, 348690, Poly_aftertouch_c, 0, 67, 127
1, 348713, Note_off_c, 0, 65, 36
1, 348725, Note_on_c, 0, 88, 69
1, 348728, Poly_aftertouch_c, 0, 67, 0
1, 348735, Note_on_c, 0, 74, 57
1, 348830, Note_on_c, 0, 77, 23
1, 348849, Note_off_c, 0, 86, 48
1, 348871, Note_off_c, 0, 77, 48
1, 348899, Note_off_c, 0, 74, 57
1, 348924, Note_on_c, 0, 89, 80
1, 348928, Note_on_c, 0, 65, 47
1, 348947, Control_c, 0, 64, 118
1, 348962, Control_c, 0, 64, 114
1, 348977, Control_c, 0, 64, 110
1, 348983, Note_off_c, 0, 88, 59
1, 348992, Control_c, 0, 64, 107
1, 349006, Control_c, 0, 64, 104
1, 349021, Control_c, 0, 64, 102
1, 349022, Note_on_c, 0, 67, 28
1, 349036, Control_c, 0, 64, 100
1, 349050, Control_c, 0, 64, 99
1, 349080, Control_c, 0, 64, 99
1, 349095, Control_c, 0, 64, 93
1, 349110, Control_c, 0, 64, 80
1, 349125, Control_c, 0, 64, 64
1, 349125, Note_off_c, 0, 65, 33
1, 349140, Control_c, 0, 64, 45
1, 349143, Note_on_c, 0, 88, 77
1, 349155, Control_c, 0, 64, 30
1, 349161, Note_off_c, 0, 89, 63
1, 349169, Control_c, 0, 64, 32
1, 349178, Note_off_c, 0, 67, 44
1, 349182, Note_on_c, 0, 72, 44
1, 349184, Control_c, 0, 64, 40
1, 349199, Control_c, 0, 64, 52
1, 349214, Control_c, 0, 64, 61
1, 349229, Control_c, 0, 64, 69
1, 349244, Control_c, 0, 64, 81
1, 349247, Note_off_c, 0, 88, 66
1, 349259, Control_c, 0, 64, 112
1, 349266, Note_on_c, 0, 76, 42
1, 349274, Control_c, 0, 64, 127
1, 349336, Note_off_c, 0, 72, 36
1, 349380, Note_on_c, 0, 64, 41
1, 349394, Note_off_c, 0, 76, 46
1, 349452, Note_off_c, 0, 64, 49
1, 349465, Note_on_c, 0, 67, 40
1, 349563, Control_c, 0, 64, 123
1, 349578, Control_c, 0, 64, 112
1, 349593, Control_c, 0, 64, 108
1, 349605, Note_on_c, 0, 48, 51
1, 349608, Control_c, 0, 64, 107
1, 349622, Control_c, 0, 64, 105
1, 349623, Note_on_c, 0, 72, 40
1, 349625, Note_off_c, 0, 67, 35
1, 349637, Control_c, 0, 64, 104
1, 349652, Control_c, 0, 64, 100
1, 349667, Control_c, 0, 64, 92
1, 349673, Note_on_c, 0, 76, 40
1, 349681, Control_c, 0, 64, 82
1, 349696, Control_c, 0, 64, 70
1, 349711, Control_c, 0, 64, 60
1, 349726, Control_c, 0, 64, 51
1, 349733, Note_off_c, 0, 72, 50
1, 349741, Control_c, 0, 64, 54
1, 349755, Control_c, 0, 64, 59
1, 349770, Control_c, 0, 64, 64
1, 349785, Control_c, 0, 64, 69
1, 349800, Control_c, 0, 64, 76
1, 349804, Note_on_c, 0, 64, 43
1, 349807, Note_off_c, 0, 48, 64
1, 349815, Control_c, 0, 64, 91
1, 349828, Control_c, 0, 64, 127
1, 349831, Note_off_c, 0, 76, 39
1, 349879, Note_off_c, 0, 64, 46
1, 349882, Note_on_c, 0, 67, 41
1, 350026, Note_on_c, 0, 72, 36
1, 350030, Note_off_c, 0, 67, 35
1, 350097, Note_on_c, 0, 76, 39
1, 350202, Note_off_c, 0, 72, 41
1, 350238, Note_on_c, 0, 86, 60
1, 350239, Note_on_c, 0, 64, 37
1, 350277, Note_off_c, 0, 76, 34
1, 350351, Note_on_c, 0, 67, 22
1, 350415, Control_c, 0, 64, 123
1, 350424, Note_off_c, 0, 64, 30
1, 350430, Control_c, 0, 64, 116
1, 350442, Note_on_c, 0, 84, 67
1, 350445, Control_c, 0, 64, 112
1, 350456, Note_on_c, 0, 72, 44
1, 350459, Control_c, 0, 64, 109
1, 350472, Note_off_c, 0, 67, 37
1, 350474, Control_c, 0, 64, 107
1, 350489, Control_c, 0, 64, 105
1, 350503, Control_c, 0, 64, 104
1, 350514, Note_on_c, 0, 76, 39
1, 350518, Control_c, 0, 64, 102
1, 350533, Control_c, 0, 64, 101
1, 350548, Control_c, 0, 64, 100
1, 350549, Note_off_c, 0, 86, 38
1, 350563, Control_c, 0, 64, 99
1, 350577, Control_c, 0, 64, 98
1, 350592, Control_c, 0, 64, 97
1, 350598, Note_off_c, 0, 72, 36
1, 350607, Control_c, 0, 64, 95
1, 350608, Note_on_c, 0, 64, 34
1, 350615, Note_off_c, 0, 76, 47
1, 350621, Note_on_c, 0, 83, 66
1, 350622, Control_c, 0, 64, 94
1, 350651, Control_c, 0, 64, 93
1, 350666, Control_c, 0, 64, 92
1, 350671, Note_off_c, 0, 64, 53
1, 350672, Note_off_c, 0, 84, 59
1, 350681, Control_c, 0, 64, 91
1, 350690, Note_on_c, 0, 67, 47
1, 350696, Control_c, 0, 64, 89
1, 350711, Control_c, 0, 64, 89
1, 350726, Control_c, 0, 64, 88
1, 350755, Control_c, 0, 64, 88
1, 350770, Control_c, 0, 64, 85
1, 350779, Note_off_c, 0, 67, 50
1, 350785, Control_c, 0, 64, 78
1, 350800, Control_c, 0, 64, 69
1, 350815, Control_c, 0, 64, 62
1, 350817, Note_on_c, 0, 72, 43
1, 350823, Note_on_c, 0, 81, 55
1, 350830, Control_c, 0, 64, 54
1, 350845, Control_c, 0, 64, 49
1, 350846, Note_off_c, 0, 83, 53
1, 350875, Control_c, 0, 64, 52
1, 350889, Control_c, 0, 64, 59
1, 350904, Control_c, 0, 64, 64
1, 350916, Note_off_c, 0, 72, 56
1, 350919, Control_c, 0, 64, 68
1, 350924, Note_on_c, 0, 77, 39
1, 350934, Control_c, 0, 64, 73
1, 350947, Note_off_c, 0, 81, 65
1, 350949, Control_c, 0, 64, 83
1, 350964, Control_c, 0, 64, 99
1, 350979, Control_c, 0, 64, 127
1, 351021, Note_off_c, 0, 77, 39
1, 351051, Note_on_c, 0, 65, 38
1, 351126, Note_off_c, 0, 65, 48
1, 351138, Note_on_c, 0, 69, 24
1, 351205, Note_off_c, 0, 69, 42
1, 351224, Note_on_c, 0, 53, 59
1, 351238, Note_on_c, 0, 72, 43
1, 351342, Note_on_c, 0, 77, 35
1, 351356, Control_c, 0, 64, 118
1, 351371, Control_c, 0, 64, 114
1, 351380, Note_off_c, 0, 72, 36
1, 351386, Control_c, 0, 64, 111
1, 351400, Control_c, 0, 64, 108
1, 351415, Control_c, 0, 64, 105
1, 351430, Control_c, 0, 64, 102
1, 351435, Note_on_c, 0, 65, 51
1, 351444, Control_c, 0, 64, 101
1, 351471, Note_off_c, 0, 77, 35
1, 351474, Control_c, 0, 64, 101
1, 351489, Control_c, 0, 64, 99
1, 351504, Control_c, 0, 64, 98
1, 351515, Note_on_c, 0, 69, 51
1, 351518, Control_c, 0, 64, 97
1, 351533, Control_c, 0, 64, 96
1, 351548, Control_c, 0, 64, 96
1, 351563, Control_c, 0, 64, 92
1, 351578, Control_c, 0, 64, 82
1, 351593, Control_c, 0, 64, 69
1, 351600, Note_on_c, 0, 50, 57
1, 351608, Control_c, 0, 64, 55
1, 351611, Note_off_c, 0, 65, 39
1, 351623, Control_c, 0, 64, 23
1, 351635, Note_off_c, 0, 53, 64
1, 351638, Control_c, 0, 64, 18
1, 351641, Note_on_c, 0, 74, 45
1, 351642, Note_off_c, 0, 69, 55
1, 351653, Control_c, 0, 64, 30
1, 351668, Control_c, 0, 64, 47
1, 351682, Control_c, 0, 64, 59
1, 351689, Note_on_c, 0, 77, 47
1, 351697, Control_c, 0, 64, 65
1, 351712, Control_c, 0, 64, 73
1, 351722, Note_off_c, 0, 50, 64
1, 351727, Control_c, 0, 64, 96
1, 351736, Note_off_c, 0, 74, 55
1, 351742, Control_c, 0, 64, 127
1, 351786, Note_on_c, 0, 65, 50
1, 351802, Note_off_c, 0, 77, 39
1, 351866, Note_on_c, 0, 69, 57
1, 351885, Note_off_c, 0, 65, 49
1, 351995, Note_on_c, 0, 81, 84
1, 352001, Note_off_c, 0, 69, 54
1, 352006, Note_on_c, 0, 74, 44
1, 352068, Note_on_c, 0, 77, 47
1, 352145, Note_off_c, 0, 74, 54
1, 352163, Control_c, 0, 64, 117
1, 352169, Note_on_c, 0, 65, 56
1, 352178, Control_c, 0, 64, 110
1, 352193, Control_c, 0, 64, 107
1, 352208, Control_c, 0, 64, 104
1, 352212, Note_off_c, 0, 77, 37
1, 352222, Control_c, 0, 64, 102
1, 352237, Control_c, 0, 64, 99
1, 352249, Note_on_c, 0, 69, 59
1, 352252, Control_c, 0, 64, 97
1, 352267, Control_c, 0, 64, 95
1, 352282, Control_c, 0, 64, 94
1, 352296, Control_c, 0, 64, 94
1, 352341, Control_c, 0, 64, 91
1, 352352, Note_off_c, 0, 65, 28
1, 352356, Control_c, 0, 64, 81
1, 352371, Control_c, 0, 64, 68
1, 352386, Control_c, 0, 64, 51
1, 352391, Note_on_c, 0, 83, 81
1, 352400, Note_off_c, 0, 69, 59
1, 352401, Control_c, 0, 64, 23
1, 352415, Control_c, 0, 64, 18
1, 352430, Control_c, 0, 64, 24
1, 352434, Note_off_c, 0, 81, 64
1, 352436, Note_on_c, 0, 74, 49
1, 352445, Control_c, 0, 64, 42
1, 352460, Control_c, 0, 64, 57
1, 352469, Note_on_c, 0, 77, 52
1, 352475, Control_c, 0, 64, 66
1, 352490, Control_c, 0, 64, 76
1, 352505, Control_c, 0, 64, 102
1, 352510, Note_off_c, 0, 83, 65
1, 352520, Control_c, 0, 64, 127
1, 352595, Note_on_c, 0, 65, 49
1, 352603, Note_off_c, 0, 74, 34
1, 352648, Note_off_c, 0, 77, 55
1, 352689, Note_on_c, 0, 71, 52
1, 352767, Note_off_c, 0, 65, 28
1, 352807, Note_on_c, 0, 55, 62
1, 352814, Note_off_c, 0, 71, 52
1, 352839, Note_on_c, 0, 74, 43
1, 352898, Note_on_c, 0, 77, 42
1, 352971, Control_c, 0, 64, 113
1, 352986, Control_c, 0, 64, 110
1, 353001, Control_c, 0, 64, 110
1, 353006, Note_on_c, 0, 65, 62
1, 353006, Note_off_c, 0, 74, 41
1, 353031, Control_c, 0, 64, 108
1, 353045, Control_c, 0, 64, 107
1, 353060, Control_c, 0, 64, 104
1, 353075, Control_c, 0, 64, 101
1, 353080, Note_off_c, 0, 77, 36
1, 353089, Control_c, 0, 64, 99
1, 353095, Note_on_c, 0, 71, 52
1, 353104, Control_c, 0, 64, 98
1, 353119, Control_c, 0, 64, 97
1, 353134, Control_c, 0, 64, 96
1, 353149, Control_c, 0, 64, 94
1, 353164, Control_c, 0, 64, 93
1, 353179, Control_c, 0, 64, 91
1, 353194, Control_c, 0, 64, 89
1, 353194, Note_on_c, 0, 56, 73
1, 353209, Control_c, 0, 64, 87
1, 353224, Control_c, 0, 64, 85
1, 353228, Note_off_c, 0, 65, 29
1, 353239, Control_c, 0, 64, 83
1, 353248, Note_on_c, 0, 74, 50
1, 353253, Note_off_c, 0, 71, 48
1, 353254, Control_c, 0, 64, 81
1, 353268, Control_c, 0, 64, 79
1, 353283, Control_c, 0, 64, 78
1, 353306, Control_c, 0, 64, 77
1, 353316, Note_off_c, 0, 55, 56
1, 353320, Control_c, 0, 64, 76
1, 353334, Note_on_c, 0, 77, 39
1, 353335, Control_c, 0, 64, 74
1, 353350, Control_c, 0, 64, 73
1, 353365, Control_c, 0, 64, 72
1, 353380, Control_c, 0, 64, 71
1, 353386, Note_off_c, 0, 74, 55
1, 353394, Control_c, 0, 64, 70
1, 353409, Control_c, 0, 64, 68
1, 353412, Note_on_c, 0, 65, 49
1, 353420, Note_off_c, 0, 77, 50
1, 353424, Control_c, 0, 64, 67
1, 353439, Control_c, 0, 64, 65
1, 353454, Control_c, 0, 64, 65
1, 353468, Control_c, 0, 64, 64
1, 353498, Control_c, 0, 64, 63
1, 353511, Note_on_c, 0, 71, 38
1, 353513, Control_c, 0, 64, 63
1, 353528, Control_c, 0, 64, 62
1, 353542, Control_c, 0, 64, 61
1, 353557, Control_c, 0, 64, 60
1, 353566, Note_off_c, 0, 65, 31
1, 353573, Control_c, 0, 64, 59
1, 353588, Control_c, 0, 64, 58
1, 353602, Control_c, 0, 64, 55
1, 353617, Control_c, 0, 64, 52
1, 353632, Control_c, 0, 64, 49
1, 353635, Note_on_c, 0, 55, 54
1, 353647, Control_c, 0, 64, 45
1, 353650, Note_off_c, 0, 71, 55
1, 353656, Note_off_c, 0, 56, 60
1, 353657, Note_on_c, 0, 74, 40
1, 353662, Control_c, 0, 64, 39
1, 353677, Control_c, 0, 64, 38
1, 353692, Control_c, 0, 64, 38
1, 353706, Control_c, 0, 64, 44
1, 353721, Control_c, 0, 64, 54
1, 353736, Control_c, 0, 64, 61
1, 353742, Note_on_c, 0, 77, 7
1, 353751, Control_c, 0, 64, 66
1, 353752, Note_off_c, 0, 55, 63
1, 353766, Control_c, 0, 64, 72
1, 353781, Control_c, 0, 64, 87
1, 353795, Control_c, 0, 64, 119
1, 353804, Note_off_c, 0, 77, 46
1, 353810, Control_c, 0, 64, 127
1, 353849, Note_on_c, 0, 65, 40
1, 353871, Note_off_c, 0, 74, 33
1, 353939, Note_off_c, 0, 65, 46
1, 353961, Note_on_c, 0, 71, 33
1, 354070, Control_c, 0, 64, 123
1, 354085, Control_c, 0, 64, 117
1, 354100, Control_c, 0, 64, 114
1, 354115, Control_c, 0, 64, 113
1, 354130, Control_c, 0, 64, 108
1, 354141, Note_on_c, 0, 84, 65
1, 354144, Control_c, 0, 64, 99
1, 354159, Control_c, 0, 64, 82
1, 354174, Control_c, 0, 64, 68
1, 354189, Control_c, 0, 64, 55
1, 354193, Note_on_c, 0, 72, 26
1, 354197, Note_off_c, 0, 71, 30
1, 354204, Control_c, 0, 64, 37
1, 354233, Control_c, 0, 64, 43
1, 354248, Control_c, 0, 64, 53
1, 354263, Control_c, 0, 64, 60
1, 354266, Note_on_c, 0, 76, 39
1, 354278, Control_c, 0, 64, 64
1, 354285, Note_off_c, 0, 72, 33
1, 354292, Control_c, 0, 64, 69
1, 354307, Control_c, 0, 64, 76
1, 354322, Control_c, 0, 64, 87
1, 354337, Control_c, 0, 64, 110
1, 354350, Note_off_c, 0, 84, 62
1, 354351, Control_c, 0, 64, 127
1, 354361, Note_off_c, 0, 76, 51
1, 354393, Note_on_c, 0, 64, 38
1, 354461, Note_off_c, 0, 64, 52
1, 354487, Note_on_c, 0, 67, 38
1, 354560, Note_off_c, 0, 67, 53
1, 354589, Note_on_c, 0, 72, 45
1, 354668, Note_on_c, 0, 76, 39
1, 354702, Note_off_c, 0, 72, 50
1, 354758, Note_on_c, 0, 64, 43
1, 354813, Note_off_c, 0, 76, 29
1, 354846, Note_on_c, 0, 67, 40
1, 354857, Note_off_c, 0, 64, 35
1, 354956, Note_on_c, 0, 48, 60
1, 354988, Note_on_c, 0, 72, 44
1, 355004, Note_off_c, 0, 67, 32
1, 355087, Note_on_c, 0, 76, 37
1, 355161, Note_on_c, 0, 64, 43
1, 355167, Note_off_c, 0, 72, 42
1, 355223, Note_off_c, 0, 76, 29
1, 355240, Note_on_c, 0, 67, 49
1, 355283, Note_off_c, 0, 64, 34
1, 355346, Note_on_c, 0, 72, 61
1, 355376, Note_off_c, 0, 67, 52
1, 355428, Note_on_c, 0, 76, 57
1, 355521, Note_off_c, 0, 72, 50
1, 355523, Note_on_c, 0, 64, 55
1, 355584, Note_off_c, 0, 76, 59
1, 355610, Note_on_c, 0, 67, 50
1, 355648, Note_off_c, 0, 64, 47
1, 355686, Control_c, 0, 64, 123
1, 355701, Control_c, 0, 64, 113
1, 355702, Note_on_c, 0, 50, 67
1, 355716, Control_c, 0, 64, 108
1, 355719, Note_on_c, 0, 71, 55
1, 355731, Control_c, 0, 64, 104
1, 355745, Control_c, 0, 64, 100
1, 355753, Note_off_c, 0, 67, 38
1, 355760, Control_c, 0, 64, 97
1, 355775, Control_c, 0, 64, 93
1, 355790, Control_c, 0, 64, 86
1, 355805, Control_c, 0, 64, 76
1, 355819, Control_c, 0, 64, 66
1, 355834, Control_c, 0, 64, 56
1, 355844, Note_off_c, 0, 71, 55
1, 355849, Control_c, 0, 64, 54
1, 355851, Note_on_c, 0, 77, 52
1, 355863, Control_c, 0, 64, 56
1, 355878, Control_c, 0, 64, 58
1, 355893, Control_c, 0, 64, 60
1, 355907, Note_on_c, 0, 65, 59
1, 355908, Note_off_c, 0, 77, 42
1, 355908, Control_c, 0, 64, 62
1, 355922, Control_c, 0, 64, 65
1, 355936, Note_off_c, 0, 48, 53
1, 355937, Control_c, 0, 64, 68
1, 355952, Control_c, 0, 64, 72
1, 355967, Control_c, 0, 64, 79
1, 355982, Control_c, 0, 64, 90
1, 355996, Control_c, 0, 64, 108
1, 355997, Note_on_c, 0, 67, 60
1, 356003, Note_off_c, 0, 65, 54
1, 356011, Control_c, 0, 64, 127
1, 356081, Note_on_c, 0, 71, 64
1, 356098, Note_off_c, 0, 67, 55
1, 356155, Note_on_c, 0, 77, 65
1, 356189, Note_off_c, 0, 71, 58
1, 356219, Note_off_c, 0, 77, 58
1, 356252, Note_on_c, 0, 65, 55
1, 356321, Note_on_c, 0, 67, 54
1, 356348, Note_off_c, 0, 65, 54
1, 356359, Control_c, 0, 64, 118
1, 356374, Control_c, 0, 64, 111
1, 356389, Control_c, 0, 64, 106
1, 356404, Control_c, 0, 64, 102
1, 356419, Control_c, 0, 64, 99
1, 356434, Control_c, 0, 64, 97
1, 356445, Note_on_c, 0, 52, 49
1, 356449, Control_c, 0, 64, 95
1, 356464, Control_c, 0, 64, 95
1, 356468, Note_on_c, 0, 70, 49
1, 356475, Note_off_c, 0, 67, 52
1, 356479, Control_c, 0, 64, 94
1, 356494, Control_c, 0, 64, 92
1, 356508, Control_c, 0, 64, 89
1, 356523, Control_c, 0, 64, 83
1, 356538, Control_c, 0, 64, 74
1, 356553, Control_c, 0, 64, 65
1, 356568, Control_c, 0, 64, 55
1, 356580, Note_off_c, 0, 50, 34
1, 356583, Note_on_c, 0, 72, 39
1, 356583, Control_c, 0, 64, 43
1, 356598, Control_c, 0, 64, 43
1, 356612, Control_c, 0, 64, 44
1, 356627, Control_c, 0, 64, 47
1, 356642, Control_c, 0, 64, 51
1, 356645, Note_off_c, 0, 70, 36
1, 356657, Control_c, 0, 64, 56
1, 356672, Control_c, 0, 64, 61
1, 356677, Note_on_c, 0, 60, 36
1, 356686, Control_c, 0, 64, 64
1, 356701, Control_c, 0, 64, 67
1, 356711, Note_off_c, 0, 72, 33
1, 356716, Control_c, 0, 64, 71
1, 356731, Control_c, 0, 64, 77
1, 356745, Control_c, 0, 64, 86
1, 356760, Control_c, 0, 64, 100
1, 356775, Control_c, 0, 64, 111
1, 356776, Note_on_c, 0, 67, 39
1, 356790, Control_c, 0, 64, 119
1, 356805, Control_c, 0, 64, 123
1, 356831, Note_off_c, 0, 60, 28
1, 356861, Note_on_c, 0, 70, 50
1, 356879, Control_c, 0, 64, 121
1, 356893, Control_c, 0, 64, 119
1, 356908, Control_c, 0, 64, 117
1, 356923, Control_c, 0, 64, 115
1, 356938, Control_c, 0, 64, 113
1, 356938, Note_off_c, 0, 67, 33
1, 356953, Control_c, 0, 64, 112
1, 356968, Control_c, 0, 64, 111
1, 356982, Control_c, 0, 64, 109
1, 356985, Note_on_c, 0, 72, 17
1, 356997, Control_c, 0, 64, 108
1, 357012, Control_c, 0, 64, 107
1, 357027, Control_c, 0, 64, 106
1, 357049, Control_c, 0, 64, 105
1, 357064, Note_on_c, 0, 60, 39
1, 357064, Control_c, 0, 64, 104
1, 357068, Note_off_c, 0, 70, 37
1, 357078, Note_off_c, 0, 72, 37
1, 357079, Control_c, 0, 64, 102
1, 357093, Control_c, 0, 64, 102
1, 357108, Control_c, 0, 64, 101
1, 357123, Control_c, 0, 64, 99
1, 357125, Note_on_c, 0, 67, 28
1, 357137, Control_c, 0, 64, 98
1, 357152, Control_c, 0, 64, 97
1, 357167, Control_c, 0, 64, 96
1, 357182, Control_c, 0, 64, 94
1, 357197, Control_c, 0, 64, 92
1, 357212, Control_c, 0, 64, 91
1, 357227, Control_c, 0, 64, 89
1, 357242, Control_c, 0, 64, 87
1, 357257, Control_c, 0, 64, 86
1, 357272, Control_c, 0, 64, 85
1, 357274, Note_off_c, 0, 60, 35
1, 357275, Note_on_c, 0, 53, 40
1, 357287, Control_c, 0, 64, 84
1, 357302, Control_c, 0, 64, 83
1, 357317, Note_on_c, 0, 69, 38
1, 357317, Control_c, 0, 64, 82
1, 357325, Note_off_c, 0, 52, 43
1, 357332, Control_c, 0, 64, 80
1, 357347, Control_c, 0, 64, 77
1, 357358, Note_off_c, 0, 67, 30
1, 357361, Control_c, 0, 64, 73
1, 357376, Control_c, 0, 64, 66
1, 357391, Control_c, 0, 64, 59
1, 357406, Control_c, 0, 64, 48
1, 357421, Control_c, 0, 64, 43
1, 357432, Note_on_c, 0, 72, 31
1, 357454, Note_off_c, 0, 69, 50
1, 357465, Control_c, 0, 64, 44
1, 357480, Control_c, 0, 64, 49
1, 357495, Control_c, 0, 64, 54
1, 357510, Control_c, 0, 64, 59
1, 357513, Note_on_c, 0, 60, 29
1, 357525, Control_c, 0, 64, 62
1, 357540, Control_c, 0, 64, 65
1, 357555, Control_c, 0, 64, 68
1, 357555, Note_off_c, 0, 72, 34
1, 357569, Control_c, 0, 64, 72
1, 357584, Control_c, 0, 64, 78
1, 357599, Control_c, 0, 64, 86
1, 357608, Note_on_c, 0, 65, 39
1, 357614, Control_c, 0, 64, 93
1, 357629, Control_c, 0, 64, 99
1, 357643, Control_c, 0, 64, 104
1, 357658, Control_c, 0, 64, 108
1, 357663, Note_off_c, 0, 60, 24
1, 357673, Control_c, 0, 64, 111
1, 357687, Control_c, 0, 64, 112
1, 357702, Control_c, 0, 64, 113
1, 357710, Note_off_c, 0, 65, 50
1, 357719, Note_on_c, 0, 69, 34
1, 357742, Note_off_c, 0, 53, 41
1, 357789, Note_on_c, 0, 72, 38
1, 357880, Note_on_c, 0, 60, 40
1, 357895, Note_off_c, 0, 69, 36
1, 357945, Note_off_c, 0, 72, 33
1, 357968, Note_on_c, 0, 65, 31
1, 357996, Note_off_c, 0, 60, 37
1, 358065, Note_on_c, 0, 69, 36
1, 358080, Note_off_c, 0, 65, 34
1, 358111, Control_c, 0, 64, 112
1, 358126, Control_c, 0, 64, 111
1, 358155, Control_c, 0, 64, 111
1, 358168, Note_on_c, 0, 72, 20
1, 358185, Control_c, 0, 64, 110
1, 358229, Control_c, 0, 64, 110
1, 358255, Note_off_c, 0, 69, 40
1, 358272, Note_on_c, 0, 60, 31
1, 358273, Control_c, 0, 64, 109
1, 358318, Control_c, 0, 64, 108
1, 358335, Note_off_c, 0, 72, 38
1, 358340, Note_on_c, 0, 65, 33
1, 358407, Control_c, 0, 64, 108
1, 358420, Note_off_c, 0, 60, 24
1, 358452, Control_c, 0, 64, 107
1, 358481, Control_c, 0, 64, 107
1, 358499, Note_on_c, 0, 77, 49
1, 358509, Note_off_c, 0, 65, 31
1, 358512, Note_on_c, 0, 69, 34
1, 358609, Note_on_c, 0, 72, 26
1, 358652, Control_c, 0, 64, 106
1, 358666, Control_c, 0, 64, 106
1, 358681, Control_c, 0, 64, 105
1, 358695, Note_off_c, 0, 69, 40
1, 358710, Control_c, 0, 64, 105
1, 358727, Note_on_c, 0, 79, 64
1, 358740, Control_c, 0, 64, 104
1, 358741, Note_off_c, 0, 77, 48
1, 358746, Note_on_c, 0, 76, 44
1, 358750, Note_on_c, 0, 67, 39
1, 358773, Note_off_c, 0, 72, 0
1, 358784, Control_c, 0, 64, 104
1, 358793, Note_on_c, 0, 72, 20
1, 358807, Note_off_c, 0, 67, 51
1, 358814, Control_c, 0, 64, 103
1, 358829, Control_c, 0, 64, 102
1, 358860, Control_c, 0, 64, 102
1, 358862, Note_off_c, 0, 76, 56
1, 358875, Control_c, 0, 64, 101
1, 358889, Control_c, 0, 64, 100
1, 358904, Control_c, 0, 64, 99
1, 358919, Control_c, 0, 64, 99
1, 358932, Note_off_c, 0, 79, 58
1, 358933, Control_c, 0, 64, 98
1, 358935, Note_off_c, 0, 72, 38
1, 358948, Control_c, 0, 64, 97
1, 358961, Note_on_c, 0, 81, 73
1, 358963, Control_c, 0, 64, 95
1, 358971, Note_on_c, 0, 69, 44
1, 358971, Note_on_c, 0, 77, 55
1, 358978, Control_c, 0, 64, 94
1, 358993, Control_c, 0, 64, 92
1, 359007, Control_c, 0, 64, 91
1, 359022, Control_c, 0, 64, 89
1, 359037, Control_c, 0, 64, 87
1, 359052, Control_c, 0, 64, 85
1, 359059, Note_on_c, 0, 72, 34
1, 359067, Control_c, 0, 64, 84
1, 359069, Note_off_c, 0, 69, 46
1, 359081, Control_c, 0, 64, 83
1, 359096, Control_c, 0, 64, 80
1, 359111, Control_c, 0, 64, 74
1, 359126, Control_c, 0, 64, 67
1, 359141, Control_c, 0, 64, 60
1, 359156, Control_c, 0, 64, 55
1, 359156, Note_on_c, 0, 60, 40
1, 359185, Control_c, 0, 64, 56
1, 359200, Control_c, 0, 64, 58
1, 359209, Note_off_c, 0, 77, 46
1, 359212, Note_off_c, 0, 72, 42
1, 359215, Control_c, 0, 64, 60
1, 359230, Control_c, 0, 64, 62
1, 359245, Control_c, 0, 64, 65
1, 359251, Note_on_c, 0, 65, 36
1, 359260, Control_c, 0, 64, 68
1, 359271, Note_off_c, 0, 60, 36
1, 359275, Control_c, 0, 64, 73
1, 359275, Note_off_c, 0, 81, 60
1, 359296, Control_c, 0, 64, 78
1, 359311, Control_c, 0, 64, 87
1, 359326, Control_c, 0, 64, 103
1, 359337, Note_off_c, 0, 65, 49
1, 359340, Control_c, 0, 64, 127
1, 359354, Note_on_c, 0, 69, 38
1, 359412, Note_off_c, 0, 69, 51
1, 359426, Note_on_c, 0, 72, 33
1, 359514, Note_on_c, 0, 60, 39
1, 359569, Note_off_c, 0, 60, 53
1, 359570, Note_off_c, 0, 72, 34
1, 359587, Note_on_c, 0, 65, 40
1, 359701, Note_on_c, 0, 69, 39
1, 359753, Note_off_c, 0, 65, 27
1, 359777, Note_off_c, 0, 69, 48
1, 359819, Poly_aftertouch_c, 0, 72, 127
1, 359859, Poly_aftertouch_c, 0, 72, 0
1, 359901, Note_on_c, 0, 57, 40
1, 359909, Note_on_c, 0, 69, 51
1, 359942, Note_on_c, 0, 60, 15
1, 359986, Note_on_c, 0, 72, 39
1, 359987, Note_off_c, 0, 69, 42
1, 360060, Control_c, 0, 64, 119
1, 360071, Note_off_c, 0, 72, 52
1, 360075, Control_c, 0, 64, 95
1, 360090, Control_c, 0, 64, 81
1, 360105, Control_c, 0, 64, 72
1, 360107, Note_on_c, 0, 70, 55
1, 360110, Note_on_c, 0, 55, 46
1, 360119, Control_c, 0, 64, 67
1, 360126, Note_on_c, 0, 64, 38
1, 360148, Note_off_c, 0, 57, 54
1, 360149, Control_c, 0, 64, 69
1, 360153, Note_on_c, 0, 72, 22
1, 360163, Control_c, 0, 64, 73
1, 360178, Control_c, 0, 64, 80
1, 360193, Control_c, 0, 64, 92
1, 360208, Control_c, 0, 64, 127
1, 360216, Note_off_c, 0, 64, 38
1, 360232, Note_off_c, 0, 70, 58
1, 360282, Control_c, 0, 64, 93
1, 360297, Control_c, 0, 64, 73
1, 360300, Note_on_c, 0, 69, 67
1, 360302, Note_on_c, 0, 53, 59
1, 360306, Note_off_c, 0, 72, 47
1, 360310, Control_c, 0, 64, 65
1, 360325, Control_c, 0, 64, 64
1, 360330, Note_on_c, 0, 65, 39
1, 360337, Note_off_c, 0, 60, 29
1, 360340, Control_c, 0, 64, 67
1, 360350, Note_off_c, 0, 55, 37
1, 360355, Control_c, 0, 64, 71
1, 360369, Control_c, 0, 64, 79
1, 360379, Note_off_c, 0, 65, 61
1, 360384, Control_c, 0, 64, 91
1, 360397, Note_off_c, 0, 69, 59
1, 360399, Control_c, 0, 64, 127
1, 360417, Note_on_c, 0, 72, 52
1, 360518, Note_off_c, 0, 72, 54
1, 360524, Note_on_c, 0, 48, 59
1, 360526, Note_on_c, 0, 67, 61
1, 360555, Note_on_c, 0, 64, 43
1, 360578, Control_c, 0, 64, 112
1, 360592, Control_c, 0, 64, 92
1, 360607, Note_off_c, 0, 53, 33
1, 360607, Control_c, 0, 64, 77
1, 360616, Note_on_c, 0, 72, 39
1, 360622, Control_c, 0, 64, 66
1, 360625, Note_off_c, 0, 64, 50
1, 360637, Control_c, 0, 64, 55
1, 360652, Control_c, 0, 64, 45
1, 360667, Control_c, 0, 64, 44
1, 360700, Note_off_c, 0, 67, 58
1, 360712, Control_c, 0, 64, 45
1, 360726, Control_c, 0, 64, 48
1, 360732, Note_on_c, 0, 60, 47
1, 360741, Control_c, 0, 64, 53
1, 360756, Control_c, 0, 64, 57
1, 360771, Control_c, 0, 64, 61
1, 360792, Control_c, 0, 64, 64
1, 360805, Note_on_c, 0, 64, 42
1, 360807, Control_c, 0, 64, 67
1, 360822, Control_c, 0, 64, 72
1, 360837, Control_c, 0, 64, 80
1, 360852, Note_off_c, 0, 72, 33
1, 360852, Control_c, 0, 64, 90
1, 360864, Note_off_c, 0, 60, 32
1, 360867, Control_c, 0, 64, 101
1, 360881, Control_c, 0, 64, 104
1, 360902, Note_off_c, 0, 48, 54
1, 360910, Note_on_c, 0, 67, 50
1, 360936, Note_off_c, 0, 64, 50
1, 360971, Control_c, 0, 64, 104
1, 360979, Note_on_c, 0, 72, 45
1, 360985, Control_c, 0, 64, 103
1, 361000, Control_c, 0, 64, 102
1, 361015, Control_c, 0, 64, 101
1, 361030, Control_c, 0, 64, 100
1, 361042, Note_off_c, 0, 67, 35
1, 361045, Control_c, 0, 64, 100
1, 361060, Control_c, 0, 64, 99
1, 361090, Control_c, 0, 64, 99
1, 361096, Note_on_c, 0, 60, 47
1, 361119, Control_c, 0, 64, 98
1, 361182, Note_on_c, 0, 64, 41
1, 361197, Note_off_c, 0, 72, 28
1, 361239, Control_c, 0, 64, 97
1, 361244, Note_off_c, 0, 60, 23
1, 361254, Control_c, 0, 64, 97
1, 361280, Note_on_c, 0, 67, 44
1, 361293, Note_off_c, 0, 64, 37
1, 361298, Control_c, 0, 64, 96
1, 361383, Note_on_c, 0, 72, 39
1, 361399, Note_off_c, 0, 67, 36
1, 361401, Control_c, 0, 64, 96
1, 361416, Control_c, 0, 64, 95
1, 361461, Control_c, 0, 64, 95
1, 361475, Note_off_c, 0, 72, 50
1, 361475, Control_c, 0, 64, 94
1, 361481, Note_on_c, 0, 60, 41
1, 361490, Control_c, 0, 64, 94
1, 361505, Control_c, 0, 64, 93
1, 361520, Control_c, 0, 64, 93
1, 361543, Control_c, 0, 64, 92
1, 361557, Control_c, 0, 64, 91
1, 361572, Note_on_c, 0, 64, 42
1, 361572, Control_c, 0, 64, 91
1, 361602, Control_c, 0, 64, 90
1, 361612, Note_off_c, 0, 60, 28
1, 361616, Control_c, 0, 64, 90
1, 361631, Control_c, 0, 64, 89
1, 361646, Control_c, 0, 64, 86
1, 361661, Control_c, 0, 64, 81
1, 361676, Control_c, 0, 64, 76
1, 361690, Control_c, 0, 64, 71
1, 361705, Control_c, 0, 64, 69
1, 361708, Note_on_c, 0, 82, 59
1, 361716, Note_on_c, 0, 67, 65
1, 361720, Control_c, 0, 64, 68
1, 361728, Note_on_c, 0, 79, 48
1, 361734, Control_c, 0, 64, 69
1, 361742, Note_off_c, 0, 64, 28
1, 361749, Control_c, 0, 64, 71
1, 361764, Control_c, 0, 64, 75
1, 361779, Control_c, 0, 64, 83
1, 361794, Control_c, 0, 64, 98
1, 361809, Control_c, 0, 64, 127
1, 361838, Note_off_c, 0, 67, 58
1, 361879, Note_on_c, 0, 72, 32
1, 361946, Note_off_c, 0, 72, 40
1, 361949, Note_on_c, 0, 86, 80
1, 361969, Note_on_c, 0, 70, 63
1, 362002, Note_off_c, 0, 79, 47
1, 362069, Note_off_c, 0, 82, 43
1, 362092, Note_on_c, 0, 72, 37
1, 362148, Note_off_c, 0, 72, 45
1, 362166, Note_off_c, 0, 70, 33
1, 362184, Note_on_c, 0, 84, 70
1, 362195, Control_c, 0, 64, 117
1, 362202, Note_on_c, 0, 69, 55
1, 362210, Control_c, 0, 64, 108
1, 362224, Control_c, 0, 64, 102
1, 362232, Note_on_c, 0, 81, 42
1, 362239, Control_c, 0, 64, 97
1, 362254, Control_c, 0, 64, 91
1, 362269, Control_c, 0, 64, 87
1, 362289, Note_on_c, 0, 72, 45
1, 362291, Control_c, 0, 64, 84
1, 362302, Note_off_c, 0, 86, 54
1, 362306, Control_c, 0, 64, 82
1, 362321, Control_c, 0, 64, 79
1, 362336, Control_c, 0, 64, 76
1, 362351, Control_c, 0, 64, 71
1, 362365, Note_off_c, 0, 69, 33
1, 362365, Control_c, 0, 64, 65
1, 362380, Control_c, 0, 64, 58
1, 362395, Control_c, 0, 64, 49
1, 362410, Control_c, 0, 64, 46
1, 362413, Note_on_c, 0, 60, 41
1, 362425, Control_c, 0, 64, 45
1, 362439, Control_c, 0, 64, 44
1, 362462, Note_off_c, 0, 72, 37
1, 362469, Control_c, 0, 64, 46
1, 362484, Control_c, 0, 64, 50
1, 362499, Control_c, 0, 64, 56
1, 362502, Note_on_c, 0, 65, 34
1, 362511, Note_off_c, 0, 60, 37
1, 362513, Control_c, 0, 64, 61
1, 362528, Control_c, 0, 64, 64
1, 362543, Control_c, 0, 64, 68
1, 362554, Note_off_c, 0, 84, 53
1, 362557, Control_c, 0, 64, 74
1, 362572, Control_c, 0, 64, 85
1, 362575, Note_off_c, 0, 81, 40
1, 362587, Control_c, 0, 64, 103
1, 362598, Note_on_c, 0, 69, 47
1, 362601, Control_c, 0, 64, 127
1, 362616, Note_off_c, 0, 65, 37
1, 362676, Note_on_c, 0, 72, 39
1, 362688, Note_off_c, 0, 69, 45
1, 362787, Note_on_c, 0, 60, 36
1, 362827, Note_off_c, 0, 72, 32
1, 362865, Note_off_c, 0, 60, 45
1, 362873, Note_on_c, 0, 65, 30
1, 362973, Control_c, 0, 64, 123
1, 362981, Note_on_c, 0, 69, 39
1, 362987, Control_c, 0, 64, 119
1, 362998, Note_off_c, 0, 65, 33
1, 363002, Control_c, 0, 64, 118
1, 363017, Control_c, 0, 64, 116
1, 363040, Control_c, 0, 64, 115
1, 363063, Note_off_c, 0, 69, 50
1, 363084, Note_on_c, 0, 72, 36
1, 363114, Control_c, 0, 64, 114
1, 363128, Control_c, 0, 64, 113
1, 363143, Control_c, 0, 64, 112
1, 363158, Control_c, 0, 64, 111
1, 363163, Note_on_c, 0, 60, 39
1, 363173, Control_c, 0, 64, 109
1, 363187, Control_c, 0, 64, 108
1, 363202, Control_c, 0, 64, 107
1, 363217, Control_c, 0, 64, 106
1, 363232, Note_off_c, 0, 60, 50
1, 363232, Control_c, 0, 64, 105
1, 363241, Note_off_c, 0, 72, 29
1, 363247, Control_c, 0, 64, 104
1, 363255, Note_on_c, 0, 65, 32
1, 363261, Control_c, 0, 64, 102
1, 363276, Control_c, 0, 64, 98
1, 363291, Control_c, 0, 64, 91
1, 363306, Control_c, 0, 64, 84
1, 363321, Control_c, 0, 64, 76
1, 363335, Control_c, 0, 64, 69
1, 363350, Control_c, 0, 64, 63
1, 363354, Note_on_c, 0, 57, 45
1, 363365, Note_on_c, 0, 69, 45
1, 363365, Control_c, 0, 64, 59
1, 363370, Note_on_c, 0, 60, 20
1, 363379, Control_c, 0, 64, 60
1, 363394, Control_c, 0, 64, 62
1, 363409, Control_c, 0, 64, 64
1, 363421, Note_off_c, 0, 65, 24
1, 363424, Control_c, 0, 64, 67
1, 363439, Control_c, 0, 64, 71
1, 363454, Control_c, 0, 64, 77
1, 363469, Control_c, 0, 64, 87
1, 363484, Control_c, 0, 64, 97
1, 363490, Note_off_c, 0, 69, 37
1, 363499, Control_c, 0, 64, 105
1, 363514, Control_c, 0, 64, 105
1, 363528, Control_c, 0, 64, 100
1, 363530, Poly_aftertouch_c, 0, 72, 127
1, 363543, Control_c, 0, 64, 89
1, 363558, Control_c, 0, 64, 75
1, 363571, Note_on_c, 0, 55, 41
1, 363573, Control_c, 0, 64, 65
1, 363584, Note_on_c, 0, 70, 38
1, 363587, Control_c, 0, 64, 59
1, 363590, Note_on_c, 0, 64, 30
1, 363594, Poly_aftertouch_c, 0, 72, 0
1, 363615, Note_off_c, 0, 57, 52
1, 363617, Control_c, 0, 64, 61
1, 363632, Poly_aftertouch_c, 0, 72, 127
1, 363633, Control_c, 0, 64, 64
1, 363648, Control_c, 0, 64, 67
1, 363663, Control_c, 0, 64, 71
1, 363677, Control_c, 0, 64, 77
1, 363692, Control_c, 0, 64, 84
1, 363707, Control_c, 0, 64, 90
1, 363720, Note_off_c, 0, 70, 32
1, 363722, Control_c, 0, 64, 91
1, 363729, Note_off_c, 0, 64, 30
1, 363751, Control_c, 0, 64, 90
1, 363766, Control_c, 0, 64, 89
1, 363781, Poly_aftertouch_c, 0, 72, 0
1, 363788, Control_c, 0, 64, 89
1, 363791, Note_on_c, 0, 53, 46
1, 363799, Note_on_c, 0, 69, 43
1, 363803, Control_c, 0, 64, 88
1, 363812, Note_on_c, 0, 65, 27
1, 363818, Control_c, 0, 64, 87
1, 363833, Control_c, 0, 64, 86
1, 363838, Note_off_c, 0, 55, 34
1, 363847, Control_c, 0, 64, 84
1, 363862, Control_c, 0, 64, 83
1, 363877, Control_c, 0, 64, 81
1, 363892, Note_off_c, 0, 60, 39
1, 363892, Control_c, 0, 64, 78
1, 363907, Control_c, 0, 64, 75
1, 363919, Note_on_c, 0, 72, 43
1, 363922, Control_c, 0, 64, 71
1, 363937, Control_c, 0, 64, 64
1, 363942, Note_off_c, 0, 65, 24
1, 363951, Control_c, 0, 64, 56
1, 363966, Control_c, 0, 64, 46
1, 363981, Control_c, 0, 64, 43
1, 363987, Note_off_c, 0, 69, 42
1, 364006, Note_on_c, 0, 60, 47
1, 364025, Control_c, 0, 64, 45
1, 364040, Control_c, 0, 64, 48
1, 364055, Control_c, 0, 64, 53
1, 364070, Control_c, 0, 64, 57
1, 364080, Note_off_c, 0, 60, 49
1, 364084, Control_c, 0, 64, 61
1, 364092, Note_on_c, 0, 65, 42
1, 364099, Control_c, 0, 64, 63
1, 364100, Note_off_c, 0, 72, 36
1, 364114, Control_c, 0, 64, 66
1, 364129, Control_c, 0, 64, 70
1, 364144, Control_c, 0, 64, 74
1, 364158, Control_c, 0, 64, 80
1, 364173, Control_c, 0, 64, 85
1, 364188, Control_c, 0, 64, 89
1, 364199, Note_on_c, 0, 69, 41
1, 364202, Control_c, 0, 64, 90
1, 364219, Note_off_c, 0, 65, 32
1, 364227, Note_off_c, 0, 53, 58
1, 364263, Note_on_c, 0, 72, 37
1, 364301, Note_off_c, 0, 69, 46
1, 364307, Control_c, 0, 64, 90
1, 364321, Control_c, 0, 64, 89
1, 364336, Control_c, 0, 64, 89
1, 364351, Control_c, 0, 64, 88
1, 364383, Note_on_c, 0, 60, 36
1, 364447, Note_off_c, 0, 72, 36
1, 364454, Note_off_c, 0, 60, 40
1, 364462, Note_on_c, 0, 65, 36
1, 364485, Control_c, 0, 64, 89
1, 364537, Note_off_c, 0, 65, 45
1, 364576, Note_on_c, 0, 69, 36
1, 364647, Note_on_c, 0, 72, 38
1, 364663, Note_off_c, 0, 69, 33
1, 364762, Note_on_c, 0, 60, 34
1, 364834, Note_off_c, 0, 72, 28
1, 364840, Note_on_c, 0, 65, 38
1, 364959, Note_off_c, 0, 60, 18
1, 364961, Note_on_c, 0, 81, 59
1, 364976, Note_on_c, 0, 77, 52
1, 364980, Note_on_c, 0, 69, 50
1, 365043, Note_off_c, 0, 65, 36
1, 365056, Control_c, 0, 64, 88
1, 365079, Note_on_c, 0, 72, 37
1, 365080, Note_off_c, 0, 69, 38
1, 365174, Note_on_c, 0, 82, 75
1, 365183, Note_on_c, 0, 79, 58
1, 365198, Note_off_c, 0, 72, 34
1, 365200, Note_on_c, 0, 70, 58
1, 365204, Control_c, 0, 64, 88
1, 365225, Note_off_c, 0, 81, 60
1, 365235, Control_c, 0, 64, 87
1, 365262, Note_off_c, 0, 77, 34
1, 365287, Control_c, 0, 64, 87
1, 365317, Control_c, 0, 64, 86
1, 365331, Control_c, 0, 64, 86
1, 365346, Control_c, 0, 64, 85
1, 365361, Control_c, 0, 64, 85
1, 365375, Control_c, 0, 64, 84
1, 365390, Control_c, 0, 64, 84
1, 365401, Poly_aftertouch_c, 0, 72, 0
1, 365401, Note_on_c, 0, 84, 76
1, 365403, Note_off_c, 0, 79, 55
1, 365405, Control_c, 0, 64, 83
1, 365415, Note_off_c, 0, 70, 27
1, 365420, Control_c, 0, 64, 83
1, 365433, Note_on_c, 0, 69, 45
1, 365435, Control_c, 0, 64, 82
1, 365438, Note_on_c, 0, 81, 50
1, 365449, Control_c, 0, 64, 79
1, 365464, Control_c, 0, 64, 73
1, 365479, Control_c, 0, 64, 66
1, 365484, Note_off_c, 0, 82, 60
1, 365491, Note_on_c, 0, 72, 37
1, 365494, Control_c, 0, 64, 59
1, 365509, Control_c, 0, 64, 51
1, 365523, Control_c, 0, 64, 50
1, 365538, Control_c, 0, 64, 50
1, 365553, Control_c, 0, 64, 52
1, 365556, Note_off_c, 0, 69, 36
1, 365568, Control_c, 0, 64, 55
1, 365582, Control_c, 0, 64, 58
1, 365597, Control_c, 0, 64, 61
1, 365612, Control_c, 0, 64, 64
1, 365621, Note_on_c, 0, 60, 42
1, 365627, Control_c, 0, 64, 67
1, 365642, Control_c, 0, 64, 72
1, 365651, Note_off_c, 0, 81, 54
1, 365657, Control_c, 0, 64, 81
1, 365660, Note_off_c, 0, 72, 42
1, 365672, Control_c, 0, 64, 95
1, 365687, Control_c, 0, 64, 127
1, 365697, Note_on_c, 0, 65, 43
1, 365697, Note_off_c, 0, 60, 45
1, 365708, Note_off_c, 0, 84, 62
1, 365785, Note_off_c, 0, 65, 49
1, 365790, Note_on_c, 0, 69, 52
1, 365875, Note_on_c, 0, 72, 44
1, 365890, Note_off_c, 0, 69, 50
1, 365967, Note_on_c, 0, 60, 43
1, 365971, Note_off_c, 0, 72, 55
1, 366028, Note_off_c, 0, 60, 57
1, 366050, Note_on_c, 0, 65, 44
1, 366133, Note_on_c, 0, 69, 54
1, 366136, Note_off_c, 0, 65, 54
1, 366218, Note_off_c, 0, 69, 59
1, 366243, Note_on_c, 0, 72, 48
1, 366301, Note_off_c, 0, 72, 51
1, 366356, Note_on_c, 0, 60, 72
1, 366369, Note_on_c, 0, 57, 49
1, 366379, Note_on_c, 0, 53, 55
1, 366384, Note_on_c, 0, 69, 41
1, 366466, Note_off_c, 0, 57, 57
1, 366509, Control_c, 0, 64, 117
1, 366510, Note_on_c, 0, 72, 7
1, 366524, Control_c, 0, 64, 98
1, 366524, Note_off_c, 0, 69, 35
1, 366539, Control_c, 0, 64, 76
1, 366553, Control_c, 0, 64, 63
1, 366563, Note_off_c, 0, 72, 49
1, 366568, Control_c, 0, 64, 53
1, 366570, Note_on_c, 0, 62, 73
1, 366572, Note_on_c, 0, 58, 57
1, 366583, Control_c, 0, 64, 53
1, 366593, Note_on_c, 0, 70, 50
1, 366597, Control_c, 0, 64, 58
1, 366612, Control_c, 0, 64, 61
1, 366616, Note_off_c, 0, 60, 64
1, 366627, Control_c, 0, 64, 65
1, 366642, Control_c, 0, 64, 71
1, 366657, Control_c, 0, 64, 81
1, 366671, Control_c, 0, 64, 110
1, 366684, Note_off_c, 0, 70, 56
1, 366686, Control_c, 0, 64, 127
1, 366688, Note_off_c, 0, 58, 52
1, 366718, Note_on_c, 0, 74, 43
1, 366727, Note_off_c, 0, 62, 63
1, 366731, Control_c, 0, 64, 115
1, 366745, Control_c, 0, 64, 80
1, 366755, Note_off_c, 0, 74, 62
1, 366760, Control_c, 0, 64, 64
1, 366783, Control_c, 0, 64, 55
1, 366787, Note_on_c, 0, 64, 80
1, 366791, Note_on_c, 0, 67, 61
1, 366796, Note_on_c, 0, 55, 52
1, 366798, Control_c, 0, 64, 59
1, 366812, Control_c, 0, 64, 63
1, 366828, Control_c, 0, 64, 68
1, 366843, Control_c, 0, 64, 75
1, 366858, Control_c, 0, 64, 87
1, 366873, Control_c, 0, 64, 127
1, 366891, Note_off_c, 0, 67, 55
1, 366897, Note_on_c, 0, 76, 59
1, 366933, Note_off_c, 0, 64, 60
1, 366939, Note_off_c, 0, 76, 60
1, 366983, Note_off_c, 0, 55, 32
1, 367016, Note_on_c, 0, 65, 85
1, 367020, Note_on_c, 0, 57, 64
1, 367022, Note_on_c, 0, 69, 68
1, 367035, Control_c, 0, 64, 83
1, 367050, Control_c, 0, 64, 64
1, 367065, Control_c, 0, 64, 38
1, 367080, Control_c, 0, 64, 17
1, 367094, Control_c, 0, 64, 30
1, 367106, Note_off_c, 0, 69, 51
1, 367109, Control_c, 0, 64, 46
1, 367124, Control_c, 0, 64, 57
1, 367135, Note_on_c, 0, 77, 58
1, 367139, Control_c, 0, 64, 64
1, 367154, Control_c, 0, 64, 69
1, 367168, Control_c, 0, 64, 81
1, 367174, Note_off_c, 0, 57, 59
1, 367181, Note_off_c, 0, 65, 59
1, 367183, Control_c, 0, 64, 111
1, 367198, Control_c, 0, 64, 127
1, 367236, Note_on_c, 0, 65, 69
1, 367277, Note_off_c, 0, 77, 43
1, 367308, Note_on_c, 0, 69, 65
1, 367315, Note_off_c, 0, 53, 61
1, 367334, Note_off_c, 0, 65, 55
1, 367404, Note_on_c, 0, 72, 63
1, 367430, Note_off_c, 0, 69, 58
1, 367477, Note_on_c, 0, 77, 71
1, 367544, Note_off_c, 0, 72, 58
1, 367588, Note_on_c, 0, 65, 65
1, 367654, Note_off_c, 0, 77, 43
1, 367680, Note_on_c, 0, 69, 69
1, 367707, Note_off_c, 0, 65, 53
1, 367797, Note_on_c, 0, 72, 65
1, 367833, Note_off_c, 0, 69, 57
1, 367887, Note_on_c, 0, 77, 57
1, 367914, Note_off_c, 0, 72, 59
1, 367984, Note_off_c, 0, 77, 58
1, 368033, Note_on_c, 0, 89, 85
1, 368043, Note_on_c, 0, 81, 59
1, 368065, Note_on_c, 0, 69, 43
1, 368107, Note_on_c, 0, 77, 62
1, 368111, Note_off_c, 0, 69, 55
1, 368186, Note_off_c, 0, 89, 59
1, 368212, Note_off_c, 0, 81, 19
1, 368227, Note_off_c, 0, 77, 58
1, 368280, Note_on_c, 0, 88, 81
1, 368280, Note_on_c, 0, 72, 48
1, 368280, Control_c, 0, 64, 92
1, 368295, Control_c, 0, 64, 76
1, 368310, Control_c, 0, 64, 65
1, 368316, Note_on_c, 0, 84, 49
1, 368325, Control_c, 0, 64, 60
1, 368340, Control_c, 0, 64, 61
1, 368355, Control_c, 0, 64, 63
1, 368369, Control_c, 0, 64, 65
1, 368378, Note_on_c, 0, 77, 39
1, 368384, Control_c, 0, 64, 67
1, 368399, Control_c, 0, 64, 70
1, 368414, Control_c, 0, 64, 76
1, 368429, Control_c, 0, 64, 84
1, 368444, Control_c, 0, 64, 95
1, 368458, Note_off_c, 0, 72, 29
1, 368459, Control_c, 0, 64, 113
1, 368466, Note_off_c, 0, 77, 53
1, 368474, Control_c, 0, 64, 127
1, 368489, Control_c, 0, 64, 108
1, 368489, Note_on_c, 0, 70, 55
1, 368495, Note_on_c, 0, 86, 72
1, 368504, Control_c, 0, 64, 86
1, 368510, Note_on_c, 0, 82, 66
1, 368516, Note_off_c, 0, 84, 38
1, 368519, Control_c, 0, 64, 71
1, 368533, Note_off_c, 0, 88, 60
1, 368533, Control_c, 0, 64, 61
1, 368548, Control_c, 0, 64, 58
1, 368563, Control_c, 0, 64, 62
1, 368575, Note_off_c, 0, 70, 55
1, 368578, Control_c, 0, 64, 66
1, 368593, Control_c, 0, 64, 72
1, 368596, Note_on_c, 0, 74, 56
1, 368608, Control_c, 0, 64, 82
1, 368623, Control_c, 0, 64, 102
1, 368638, Control_c, 0, 64, 127
1, 368709, Note_off_c, 0, 74, 60
1, 368734, Note_on_c, 0, 84, 65
1, 368739, Note_on_c, 0, 69, 55
1, 368739, Note_on_c, 0, 81, 55
1, 368752, Note_off_c, 0, 86, 59
1, 368760, Note_off_c, 0, 82, 56
1, 368786, Control_c, 0, 64, 102
1, 368800, Control_c, 0, 64, 78
1, 368815, Control_c, 0, 64, 63
1, 368830, Control_c, 0, 64, 45
1, 368845, Control_c, 0, 64, 38
1, 368860, Control_c, 0, 64, 43
1, 368874, Control_c, 0, 64, 51
1, 368881, Note_on_c, 0, 72, 39
1, 368889, Control_c, 0, 64, 56
1, 368895, Note_off_c, 0, 69, 36
1, 368904, Control_c, 0, 64, 59
1, 368919, Control_c, 0, 64, 62
1, 368934, Control_c, 0, 64, 65
1, 368948, Control_c, 0, 64, 69
1, 368955, Note_off_c, 0, 84, 59
1, 368960, Note_off_c, 0, 81, 58
1, 368963, Control_c, 0, 64, 76
1, 368978, Control_c, 0, 64, 86
1, 368992, Note_on_c, 0, 60, 40
1, 368992, Note_off_c, 0, 72, 38
1, 368992, Control_c, 0, 64, 101
1, 369007, Control_c, 0, 64, 127
1, 369061, Note_off_c, 0, 60, 55
1, 369098, Note_on_c, 0, 65, 37
1, 369180, Note_on_c, 0, 69, 44
1, 369180, Note_off_c, 0, 65, 50
1, 369239, Control_c, 0, 64, 123
1, 369253, Control_c, 0, 64, 121
1, 369284, Note_on_c, 0, 72, 37
1, 369312, Control_c, 0, 64, 119
1, 369323, Note_off_c, 0, 69, 33
1, 369327, Control_c, 0, 64, 118
1, 369342, Control_c, 0, 64, 115
1, 369346, Note_on_c, 0, 60, 37
1, 369353, Note_off_c, 0, 72, 43
1, 369357, Control_c, 0, 64, 113
1, 369386, Control_c, 0, 64, 113
1, 369404, Note_off_c, 0, 60, 53
1, 369428, Note_on_c, 0, 65, 43
1, 369523, Note_off_c, 0, 65, 52
1, 369547, Note_on_c, 0, 69, 45
1, 369610, Note_off_c, 0, 69, 51
1, 369665, Poly_aftertouch_c, 0, 72, 127
1, 369686, Poly_aftertouch_c, 0, 72, 0
1, 369708, Poly_aftertouch_c, 0, 72, 0
1, 369712, Control_c, 0, 64, 112
1, 369738, Note_on_c, 0, 57, 45
1, 369742, Note_on_c, 0, 60, 51
1, 369771, Note_on_c, 0, 65, 22
1, 369794, Control_c, 0, 64, 111
1, 369814, Note_off_c, 0, 60, 60
1, 369817, Note_off_c, 0, 65, 48
1, 369831, Note_on_c, 0, 72, 46
1, 369839, Poly_aftertouch_c, 0, 69, 0
1, 369883, Control_c, 0, 64, 110
1, 369897, Control_c, 0, 64, 101
1, 369912, Control_c, 0, 64, 86
1, 369927, Control_c, 0, 64, 71
1, 369934, Note_off_c, 0, 72, 55
1, 369942, Control_c, 0, 64, 62
1, 369943, Note_off_c, 0, 57, 34
1, 369946, Note_on_c, 0, 55, 43
1, 369951, Note_on_c, 0, 58, 57
1, 369954, Note_on_c, 0, 64, 40
1, 369957, Control_c, 0, 64, 59
1, 369958, Note_on_c, 0, 70, 47
1, 369971, Control_c, 0, 64, 63
1, 369986, Control_c, 0, 64, 66
1, 370001, Control_c, 0, 64, 71
1, 370017, Control_c, 0, 64, 81
1, 370032, Control_c, 0, 64, 98
1, 370036, Note_off_c, 0, 55, 53
1, 370046, Control_c, 0, 64, 127
1, 370103, Note_on_c, 0, 72, 27
1, 370148, Note_off_c, 0, 70, 31
1, 370151, Note_off_c, 0, 72, 47
1, 370154, Note_on_c, 0, 48, 49
1, 370161, Note_on_c, 0, 67, 53
1, 370163, Note_on_c, 0, 55, 41
1, 370228, Note_off_c, 0, 64, 39
1, 370233, Note_off_c, 0, 67, 49
1, 370250, Note_off_c, 0, 58, 36
1, 370268, Control_c, 0, 64, 116
1, 370283, Control_c, 0, 64, 108
1, 370298, Control_c, 0, 64, 104
1, 370313, Control_c, 0, 64, 100
1, 370326, Poly_aftertouch_c, 0, 72, 127
1, 370328, Control_c, 0, 64, 96
1, 370336, Note_off_c, 0, 48, 30
1, 370343, Control_c, 0, 64, 91
1, 370358, Control_c, 0, 64, 86
1, 370358, Note_on_c, 0, 53, 45
1, 370364, Note_on_c, 0, 57, 36
1, 370373, Control_c, 0, 64, 82
1, 370380, Note_on_c, 0, 69, 43
1, 370388, Control_c, 0, 64, 76
1, 370402, Control_c, 0, 64, 68
1, 370411, Note_on_c, 0, 65, 7
1, 370413, Note_off_c, 0, 55, 31
1, 370417, Control_c, 0, 64, 59
1, 370432, Control_c, 0, 64, 38
1, 370446, Control_c, 0, 64, 29
1, 370461, Note_off_c, 0, 65, 50
1, 370476, Control_c, 0, 64, 32
1, 370491, Control_c, 0, 64, 40
1, 370506, Control_c, 0, 64, 48
1, 370528, Control_c, 0, 64, 54
1, 370543, Control_c, 0, 64, 59
1, 370551, Note_off_c, 0, 69, 54
1, 370557, Control_c, 0, 64, 61
1, 370572, Control_c, 0, 64, 64
1, 370577, Note_on_c, 0, 60, 38
1, 370587, Control_c, 0, 64, 66
1, 370602, Control_c, 0, 64, 70
1, 370617, Control_c, 0, 64, 75
1, 370626, Poly_aftertouch_c, 0, 72, 0
1, 370632, Control_c, 0, 64, 82
1, 370646, Control_c, 0, 64, 90
1, 370658, Note_off_c, 0, 60, 49
1, 370661, Control_c, 0, 64, 94
1, 370670, Note_on_c, 0, 65, 37
1, 370676, Control_c, 0, 64, 95
1, 370706, Control_c, 0, 64, 96
1, 370715, Note_off_c, 0, 53, 33
1, 370720, Control_c, 0, 64, 97
1, 370735, Control_c, 0, 64, 97
1, 370740, Note_off_c, 0, 57, 35
1, 370789, Note_on_c, 0, 69, 39
1, 370809, Note_off_c, 0, 65, 33
1, 370854, Control_c, 0, 64, 97
1, 370859, Note_on_c, 0, 72, 32
1, 370908, Note_off_c, 0, 69, 37
1, 370945, Note_on_c, 0, 60, 39
1, 370972, Control_c, 0, 64, 96
1, 370981, Note_off_c, 0, 72, 32
1, 371017, Note_on_c, 0, 65, 30
1, 371047, Note_off_c, 0, 60, 34
1, 371076, Control_c, 0, 64, 96
1, 371091, Control_c, 0, 64, 95
1, 371106, Control_c, 0, 64, 95
1, 371121, Control_c, 0, 64, 94
1, 371158, Note_on_c, 0, 69, 29
1, 371167, Note_off_c, 0, 65, 33
1, 371223, Note_on_c, 0, 72, 35
1, 371228, Note_off_c, 0, 69, 38
1, 371254, Control_c, 0, 64, 94
1, 371348, Note_on_c, 0, 60, 29
1, 371371, Note_off_c, 0, 72, 34
1, 371398, Note_on_c, 0, 65, 41
1, 371527, Note_on_c, 0, 77, 42
1, 371527, Note_off_c, 0, 60, 19
1, 371529, Note_on_c, 0, 81, 50
1, 371531, Note_on_c, 0, 69, 43
1, 371571, Control_c, 0, 64, 93
1, 371600, Note_off_c, 0, 65, 29
1, 371601, Control_c, 0, 64, 93
1, 371630, Note_on_c, 0, 72, 30
1, 371632, Control_c, 0, 64, 92
1, 371639, Note_off_c, 0, 69, 37
1, 371676, Control_c, 0, 64, 92
1, 371720, Control_c, 0, 64, 91
1, 371726, Note_on_c, 0, 82, 69
1, 371731, Note_on_c, 0, 79, 55
1, 371747, Note_on_c, 0, 70, 48
1, 371750, Control_c, 0, 64, 91
1, 371774, Note_off_c, 0, 81, 58
1, 371780, Control_c, 0, 64, 90
1, 371839, Control_c, 0, 64, 90
1, 371853, Note_off_c, 0, 77, 28
1, 371854, Control_c, 0, 64, 89
1, 371869, Control_c, 0, 64, 88
1, 371883, Control_c, 0, 64, 88
1, 371898, Control_c, 0, 64, 87
1, 371900, Note_off_c, 0, 72, 43
1, 371911, Note_off_c, 0, 70, 46
1, 371943, Control_c, 0, 64, 87
1, 371944, Note_off_c, 0, 79, 55
1, 371945, Note_on_c, 0, 69, 45
1, 371947, Note_on_c, 0, 84, 71
1, 371958, Control_c, 0, 64, 84
1, 371964, Note_on_c, 0, 81, 49
1, 371972, Control_c, 0, 64, 76
1, 371987, Control_c, 0, 64, 68
1, 372002, Control_c, 0, 64, 60
1, 372024, Control_c, 0, 64, 53
1, 372027, Note_on_c, 0, 72, 41
1, 372039, Control_c, 0, 64, 52
1, 372042, Note_off_c, 0, 82, 58
1, 372069, Control_c, 0, 64, 53
1, 372084, Control_c, 0, 64, 54
1, 372098, Control_c, 0, 64, 57
1, 372100, Note_off_c, 0, 69, 35
1, 372113, Control_c, 0, 64, 60
1, 372128, Control_c, 0, 64, 64
1, 372143, Control_c, 0, 64, 68
1, 372152, Note_on_c, 0, 60, 38
1, 372158, Control_c, 0, 64, 73
1, 372172, Control_c, 0, 64, 84
1, 372187, Control_c, 0, 64, 110
1, 372190, Note_off_c, 0, 72, 36
1, 372199, Note_off_c, 0, 81, 48
1, 372202, Control_c, 0, 64, 127
1, 372236, Note_on_c, 0, 65, 38
1, 372238, Note_off_c, 0, 60, 47
1, 372250, Note_off_c, 0, 84, 60
1, 372315, Note_off_c, 0, 65, 51
1, 372337, Note_on_c, 0, 69, 47
1, 372424, Note_on_c, 0, 72, 38
1, 372462, Note_off_c, 0, 69, 37
1, 372514, Note_on_c, 0, 60, 47
1, 372546, Note_off_c, 0, 72, 36
1, 372578, Note_off_c, 0, 60, 51
1, 372602, Note_on_c, 0, 65, 43
1, 372685, Note_off_c, 0, 65, 52
1, 372690, Note_on_c, 0, 69, 52
1, 372782, Note_off_c, 0, 69, 58
1, 372804, Note_on_c, 0, 72, 34
1, 372853, Note_off_c, 0, 72, 45
1, 372904, Note_on_c, 0, 60, 68
1, 372906, Note_on_c, 0, 57, 49
1, 372907, Note_on_c, 0, 53, 53
1, 372916, Note_on_c, 0, 69, 53
1, 373029, Note_off_c, 0, 57, 59
1, 373034, Note_on_c, 0, 72, 43
1, 373054, Control_c, 0, 64, 118
1, 373069, Control_c, 0, 64, 96
1, 373084, Control_c, 0, 64, 80
1, 373090, Note_off_c, 0, 69, 43
1, 373099, Control_c, 0, 64, 68
1, 373112, Note_off_c, 0, 72, 57
1, 373113, Control_c, 0, 64, 62
1, 373122, Note_on_c, 0, 62, 75
1, 373128, Control_c, 0, 64, 60
1, 373130, Note_on_c, 0, 58, 55
1, 373143, Control_c, 0, 64, 62
1, 373145, Note_on_c, 0, 70, 53
1, 373158, Control_c, 0, 64, 66
1, 373173, Control_c, 0, 64, 71
1, 373181, Note_off_c, 0, 60, 63
1, 373187, Control_c, 0, 64, 79
1, 373202, Control_c, 0, 64, 94
1, 373218, Control_c, 0, 64, 127
1, 373260, Note_off_c, 0, 70, 50
1, 373263, Note_on_c, 0, 74, 52
1, 373270, Note_off_c, 0, 58, 54
1, 373288, Note_off_c, 0, 62, 61
1, 373312, Note_off_c, 0, 74, 59
1, 373322, Control_c, 0, 64, 92
1, 373336, Note_on_c, 0, 64, 84
1, 373336, Control_c, 0, 64, 68
1, 373346, Note_on_c, 0, 67, 63
1, 373351, Control_c, 0, 64, 59
1, 373366, Control_c, 0, 64, 60
1, 373367, Note_on_c, 0, 55, 48
1, 373381, Control_c, 0, 64, 64
1, 373396, Control_c, 0, 64, 70
1, 373410, Control_c, 0, 64, 81
1, 373425, Control_c, 0, 64, 127
1, 373450, Note_on_c, 0, 76, 61
1, 373455, Note_off_c, 0, 67, 55
1, 373490, Note_off_c, 0, 64, 61
1, 373492, Note_off_c, 0, 76, 60
1, 373528, Note_off_c, 0, 55, 47
1, 373567, Note_on_c, 0, 65, 85
1, 373580, Note_on_c, 0, 57, 63
1, 373590, Note_on_c, 0, 69, 63
1, 373610, Control_c, 0, 64, 101
1, 373625, Control_c, 0, 64, 70
1, 373640, Control_c, 0, 64, 53
1, 373655, Control_c, 0, 64, 31
1, 373660, Note_off_c, 0, 69, 54
1, 373670, Control_c, 0, 64, 39
1, 373684, Control_c, 0, 64, 52
1, 373699, Control_c, 0, 64, 61
1, 373714, Note_on_c, 0, 77, 50
1, 373714, Control_c, 0, 64, 68
1, 373729, Control_c, 0, 64, 78
1, 373744, Control_c, 0, 64, 102
1, 373752, Note_off_c, 0, 65, 57
1, 373759, Control_c, 0, 64, 127
1, 373765, Note_off_c, 0, 57, 54
1, 373797, Note_on_c, 0, 65, 65
1, 373822, Note_off_c, 0, 53, 52
1, 373851, Note_off_c, 0, 77, 51
1, 373869, Note_on_c, 0, 69, 70
1, 373914, Note_off_c, 0, 65, 56
1, 373970, Note_on_c, 0, 72, 70
1, 374028, Note_off_c, 0, 69, 60
1, 374066, Note_on_c, 0, 77, 66
1, 374120, Note_off_c, 0, 72, 57
1, 374161, Note_on_c, 0, 65, 67
1, 374226, Note_off_c, 0, 77, 37
1, 374262, Note_on_c, 0, 69, 58
1, 374303, Note_off_c, 0, 65, 37
1, 374376, Note_on_c, 0, 72, 61
1, 374417, Note_off_c, 0, 69, 57
1, 374483, Note_on_c, 0, 77, 44
1, 374495, Note_off_c, 0, 72, 57
1, 374538, Note_off_c, 0, 77, 56
1, 374594, Note_on_c, 0, 89, 94
1, 374609, Note_on_c, 0, 81, 62
1, 374617, Note_on_c, 0, 69, 46
1, 374655, Note_on_c, 0, 77, 57
1, 374674, Note_off_c, 0, 69, 55
1, 374769, Note_off_c, 0, 89, 60
1, 374781, Note_off_c, 0, 77, 56
1, 374796, Note_off_c, 0, 81, 52
1, 374850, Control_c, 0, 64, 116
1, 374857, Note_on_c, 0, 88, 86
1, 374859, Note_on_c, 0, 72, 35
1, 374864, Control_c, 0, 64, 84
1, 374879, Control_c, 0, 64, 68
1, 374887, Note_on_c, 0, 84, 53
1, 374894, Control_c, 0, 64, 59
1, 374908, Control_c, 0, 64, 56
1, 374921, Note_on_c, 0, 77, 52
1, 374923, Control_c, 0, 64, 60
1, 374938, Control_c, 0, 64, 63
1, 374953, Control_c, 0, 64, 66
1, 374968, Control_c, 0, 64, 70
1, 374982, Control_c, 0, 64, 76
1, 374997, Control_c, 0, 64, 87
1, 375020, Control_c, 0, 64, 127
1, 375030, Note_off_c, 0, 77, 57
1, 375053, Note_on_c, 0, 70, 58
1, 375068, Note_off_c, 0, 72, 39
1, 375076, Note_on_c, 0, 86, 76
1, 375088, Note_on_c, 0, 82, 68
1, 375094, Control_c, 0, 64, 92
1, 375109, Control_c, 0, 64, 68
1, 375122, Note_off_c, 0, 88, 58
1, 375123, Control_c, 0, 64, 58
1, 375128, Note_off_c, 0, 84, 24
1, 375138, Control_c, 0, 64, 56
1, 375149, Note_off_c, 0, 70, 54
1, 375153, Control_c, 0, 64, 61
1, 375168, Control_c, 0, 64, 65
1, 375182, Control_c, 0, 64, 71
1, 375197, Control_c, 0, 64, 80
1, 375212, Control_c, 0, 64, 104
1, 375227, Control_c, 0, 64, 127
1, 375232, Poly_aftertouch_c, 0, 76, 127
1, 375255, Poly_aftertouch_c, 0, 74, 127
1, 375265, Poly_aftertouch_c, 0, 76, 0
1, 375280, Poly_aftertouch_c, 0, 74, 0
1, 375286, Note_on_c, 0, 84, 62
1, 375291, Note_on_c, 0, 81, 64
1, 375294, Note_on_c, 0, 69, 55
1, 375305, Note_off_c, 0, 86, 60
1, 375308, Note_off_c, 0, 82, 57
1, 375315, Control_c, 0, 64, 85
1, 375330, Control_c, 0, 64, 66
1, 375345, Control_c, 0, 64, 46
1, 375360, Control_c, 0, 64, 30
1, 375375, Control_c, 0, 64, 38
1, 375390, Control_c, 0, 64, 50
1, 375395, Note_off_c, 0, 69, 51
1, 375404, Control_c, 0, 64, 57
1, 375419, Control_c, 0, 64, 62
1, 375425, Note_on_c, 0, 72, 35
1, 375434, Control_c, 0, 64, 65
1, 375449, Control_c, 0, 64, 69
1, 375464, Control_c, 0, 64, 77
1, 375479, Control_c, 0, 64, 99
1, 375494, Control_c, 0, 64, 127
1, 375504, Note_off_c, 0, 84, 59
1, 375509, Note_off_c, 0, 81, 57
1, 375522, Note_on_c, 0, 60, 54
1, 375528, Note_off_c, 0, 72, 52
1, 375592, Note_off_c, 0, 60, 51
1, 375630, Note_on_c, 0, 65, 34
1, 375698, Note_off_c, 0, 65, 51
1, 375701, Note_on_c, 0, 69, 44
1, 375824, Note_on_c, 0, 72, 20
1, 375872, Note_off_c, 0, 69, 42
1, 375877, Note_on_c, 0, 60, 35
1, 375899, Note_off_c, 0, 72, 37
1, 375935, Note_off_c, 0, 60, 54
1, 375963, Note_on_c, 0, 65, 41
1, 376066, Note_off_c, 0, 65, 53
1, 376090, Note_on_c, 0, 69, 46
1, 376171, Note_off_c, 0, 69, 56
1, 376214, Poly_aftertouch_c, 0, 72, 127
1, 376254, Poly_aftertouch_c, 0, 72, 0
1, 376271, Note_on_c, 0, 57, 48
1, 376277, Note_on_c, 0, 60, 52
1, 376306, Note_on_c, 0, 65, 30
1, 376312, Note_on_c, 0, 69, 37
1, 376346, Note_off_c, 0, 69, 53
1, 376349, Note_off_c, 0, 65, 50
1, 376355, Note_off_c, 0, 60, 63
1, 376366, Note_on_c, 0, 72, 45
1, 376436, Control_c, 0, 64, 115
1, 376451, Control_c, 0, 64, 85
1, 376466, Control_c, 0, 64, 69
1, 376474, Note_on_c, 0, 55, 48
1, 376475, Note_off_c, 0, 72, 53
1, 376476, Note_off_c, 0, 57, 36
1, 376481, Control_c, 0, 64, 60
1, 376484, Note_on_c, 0, 58, 60
1, 376490, Note_on_c, 0, 70, 53
1, 376496, Note_on_c, 0, 64, 38
1, 376518, Control_c, 0, 64, 64
1, 376533, Control_c, 0, 64, 66
1, 376548, Control_c, 0, 64, 70
1, 376562, Control_c, 0, 64, 77
1, 376577, Control_c, 0, 64, 88
1, 376586, Note_off_c, 0, 64, 49
1, 376590, Note_off_c, 0, 55, 50
1, 376592, Control_c, 0, 64, 111
1, 376607, Control_c, 0, 64, 127
1, 376650, Note_on_c, 0, 72, 40
1, 376671, Note_on_c, 0, 55, 43
1, 376676, Note_on_c, 0, 48, 53
1, 376680, Note_off_c, 0, 70, 34
1, 376695, Note_on_c, 0, 64, 31
1, 376707, Note_on_c, 0, 67, 51
1, 376755, Note_off_c, 0, 72, 0
1, 376758, Note_off_c, 0, 64, 49
1, 376766, Note_off_c, 0, 67, 52
1, 376792, Poly_aftertouch_c, 0, 72, 127
1, 376797, Note_off_c, 0, 58, 47
1, 376858, Control_c, 0, 64, 121
1, 376873, Control_c, 0, 64, 103
1, 376876, Note_on_c, 0, 53, 50
1, 376876, Note_off_c, 0, 48, 33
1, 376877, Note_on_c, 0, 57, 51
1, 376887, Control_c, 0, 64, 91
1, 376891, Note_on_c, 0, 69, 49
1, 376902, Control_c, 0, 64, 78
1, 376909, Note_on_c, 0, 65, 34
1, 376917, Control_c, 0, 64, 67
1, 376932, Control_c, 0, 64, 56
1, 376947, Control_c, 0, 64, 43
1, 376950, Poly_aftertouch_c, 0, 72, 0
1, 376951, Note_off_c, 0, 55, 36
1, 376954, Note_off_c, 0, 65, 46
1, 376961, Control_c, 0, 64, 41
1, 376976, Control_c, 0, 64, 42
1, 376987, Poly_aftertouch_c, 0, 72, 127
1, 376991, Control_c, 0, 64, 46
1, 377006, Control_c, 0, 64, 51
1, 377021, Control_c, 0, 64, 56
1, 377035, Control_c, 0, 64, 60
1, 377050, Control_c, 0, 64, 63
1, 377065, Note_off_c, 0, 69, 55
1, 377065, Control_c, 0, 64, 66
1, 377080, Control_c, 0, 64, 69
1, 377085, Note_on_c, 0, 60, 49
1, 377095, Control_c, 0, 64, 75
1, 377109, Control_c, 0, 64, 83
1, 377124, Control_c, 0, 64, 91
1, 377139, Control_c, 0, 64, 98
1, 377154, Control_c, 0, 64, 100
1, 377184, Note_on_c, 0, 65, 43
1, 377188, Poly_aftertouch_c, 0, 72, 0
1, 377199, Control_c, 0, 64, 99
1, 377203, Note_off_c, 0, 60, 36
1, 377214, Control_c, 0, 64, 99
1, 377229, Control_c, 0, 64, 98
1, 377230, Note_off_c, 0, 53, 36
1, 377235, Note_off_c, 0, 57, 38
1, 377244, Control_c, 0, 64, 97
1, 377266, Control_c, 0, 64, 96
1, 377281, Control_c, 0, 64, 96
1, 377292, Note_off_c, 0, 65, 53
1, 377296, Control_c, 0, 64, 95
1, 377298, Note_on_c, 0, 69, 43
1, 377348, Note_off_c, 0, 69, 59
1, 377355, Control_c, 0, 64, 95
1, 377384, Note_on_c, 0, 72, 36
1, 377437, Note_off_c, 0, 72, 45
1, 377458, Note_on_c, 0, 60, 30
1, 377519, Note_off_c, 0, 60, 47
1, 377532, Note_on_c, 0, 65, 48
1, 377533, Control_c, 0, 64, 94
1, 377622, Control_c, 0, 64, 94
1, 377634, Note_off_c, 0, 65, 54
1, 377655, Note_on_c, 0, 69, 47
1, 377712, Note_off_c, 0, 69, 54
1, 377739, Note_on_c, 0, 72, 40
1, 377782, Note_off_c, 0, 72, 51
1, 377840, Note_on_c, 0, 57, 53
1, 377852, Note_on_c, 0, 60, 61
1, 377862, Note_on_c, 0, 69, 39
1, 377884, Note_on_c, 0, 65, 34
1, 377923, Note_off_c, 0, 69, 56
1, 377934, Note_off_c, 0, 65, 51
1, 377953, Note_on_c, 0, 72, 48
1, 377959, Note_off_c, 0, 60, 63
1, 378015, Control_c, 0, 64, 93
1, 378030, Control_c, 0, 64, 86
1, 378045, Control_c, 0, 64, 73
1, 378051, Note_off_c, 0, 57, 49
1, 378060, Note_off_c, 0, 72, 59
1, 378060, Control_c, 0, 64, 63
1, 378067, Note_on_c, 0, 58, 65
1, 378072, Note_on_c, 0, 55, 50
1, 378075, Control_c, 0, 64, 56
1, 378078, Note_on_c, 0, 70, 56
1, 378084, Note_on_c, 0, 64, 46
1, 378089, Control_c, 0, 64, 58
1, 378104, Control_c, 0, 64, 61
1, 378119, Control_c, 0, 64, 65
1, 378133, Control_c, 0, 64, 69
1, 378148, Control_c, 0, 64, 75
1, 378163, Control_c, 0, 64, 86
1, 378168, Note_off_c, 0, 55, 54
1, 378178, Control_c, 0, 64, 103
1, 378193, Control_c, 0, 64, 127
1, 378214, Note_on_c, 0, 72, 45
1, 378258, Note_off_c, 0, 64, 0
1, 378263, Note_on_c, 0, 55, 45
1, 378266, Note_on_c, 0, 48, 52
1, 378269, Note_off_c, 0, 72, 56
1, 378281, Note_off_c, 0, 70, 33
1, 378282, Note_on_c, 0, 67, 54
1, 378296, Poly_aftertouch_c, 0, 64, 127
1, 378341, Control_c, 0, 64, 114
1, 378352, Poly_aftertouch_c, 0, 64, 0
1, 378353, Note_off_c, 0, 67, 51
1, 378356, Control_c, 0, 64, 108
1, 378370, Control_c, 0, 64, 102
1, 378385, Control_c, 0, 64, 99
1, 378392, Note_off_c, 0, 58, 53
1, 378400, Control_c, 0, 64, 97
1, 378415, Control_c, 0, 64, 94
1, 378430, Control_c, 0, 64, 93
1, 378445, Control_c, 0, 64, 90
1, 378451, Poly_aftertouch_c, 0, 72, 127
1, 378454, Note_off_c, 0, 48, 30
1, 378459, Control_c, 0, 64, 86
1, 378472, Note_on_c, 0, 57, 46
1, 378474, Control_c, 0, 64, 79
1, 378479, Note_on_c, 0, 53, 43
1, 378489, Control_c, 0, 64, 70
1, 378490, Note_on_c, 0, 69, 45
1, 378504, Control_c, 0, 64, 62
1, 378511, Note_on_c, 0, 65, 27
1, 378519, Poly_aftertouch_c, 0, 72, 0
1, 378519, Control_c, 0, 64, 45
1, 378532, Note_off_c, 0, 55, 41
1, 378533, Control_c, 0, 64, 31
1, 378544, Note_on_c, 0, 72, 15
1, 378556, Note_off_c, 0, 65, 47
1, 378563, Control_c, 0, 64, 33
1, 378578, Control_c, 0, 64, 39
1, 378593, Control_c, 0, 64, 47
1, 378607, Control_c, 0, 64, 53
1, 378622, Control_c, 0, 64, 57
1, 378637, Control_c, 0, 64, 61
1, 378651, Control_c, 0, 64, 63
1, 378659, Note_off_c, 0, 69, 51
1, 378666, Control_c, 0, 64, 65
1, 378681, Control_c, 0, 64, 67
1, 378693, Note_on_c, 0, 60, 40
1, 378696, Control_c, 0, 64, 70
1, 378711, Control_c, 0, 64, 74
1, 378725, Control_c, 0, 64, 77
1, 378726, Note_off_c, 0, 72, 41
1, 378740, Control_c, 0, 64, 79
1, 378764, Note_off_c, 0, 60, 54
1, 378782, Note_on_c, 0, 65, 35
1, 378843, Note_off_c, 0, 57, 32
1, 378845, Note_off_c, 0, 53, 31
1, 378882, Control_c, 0, 64, 79
1, 378898, Note_on_c, 0, 69, 37
1, 378900, Note_off_c, 0, 65, 36
1, 378912, Control_c, 0, 64, 80
1, 378927, Control_c, 0, 64, 81
1, 378942, Control_c, 0, 64, 82
1, 378956, Control_c, 0, 64, 84
1, 378957, Note_off_c, 0, 69, 48
1, 378970, Note_on_c, 0, 72, 40
1, 378971, Control_c, 0, 64, 86
1, 378986, Control_c, 0, 64, 89
1, 379001, Control_c, 0, 64, 91
1, 379016, Control_c, 0, 64, 92
1, 379056, Note_on_c, 0, 60, 44
1, 379098, Note_off_c, 0, 72, 28
1, 379122, Note_off_c, 0, 60, 54
1, 379144, Note_on_c, 0, 65, 38
1, 379268, Control_c, 0, 64, 92
1, 379270, Note_off_c, 0, 65, 35
1, 379281, Note_on_c, 0, 69, 41
1, 379348, Note_off_c, 0, 69, 51
1, 379380, Note_on_c, 0, 72, 36
1, 379428, Note_off_c, 0, 72, 46
1, 379430, Control_c, 0, 64, 91
1, 379482, Note_on_c, 0, 57, 31
1, 379491, Note_on_c, 0, 69, 54
1, 379496, Note_on_c, 0, 60, 42
1, 379527, Note_on_c, 0, 65, 35
1, 379581, Note_off_c, 0, 60, 60
1, 379583, Note_off_c, 0, 65, 49
1, 379591, Note_on_c, 0, 72, 40
1, 379619, Note_off_c, 0, 69, 57
1, 379705, Control_c, 0, 64, 88
1, 379720, Control_c, 0, 64, 79
1, 379735, Control_c, 0, 64, 70
1, 379739, Note_on_c, 0, 70, 65
1, 379750, Control_c, 0, 64, 64
1, 379751, Note_on_c, 0, 58, 44
1, 379756, Note_off_c, 0, 57, 44
1, 379759, Note_on_c, 0, 64, 42
1, 379765, Control_c, 0, 64, 63
1, 379768, Note_off_c, 0, 72, 37
1, 379773, Note_on_c, 0, 55, 25
1, 379780, Control_c, 0, 64, 65
1, 379795, Control_c, 0, 64, 67
1, 379810, Control_c, 0, 64, 71
1, 379825, Control_c, 0, 64, 77
1, 379828, Note_off_c, 0, 64, 50
1, 379835, Note_off_c, 0, 55, 42
1, 379840, Control_c, 0, 64, 84
1, 379854, Control_c, 0, 64, 93
1, 379869, Control_c, 0, 64, 110
1, 379884, Control_c, 0, 64, 127
1, 379906, Note_on_c, 0, 72, 41
1, 379932, Note_off_c, 0, 58, 57
1, 379973, Control_c, 0, 64, 100
1, 379974, Note_off_c, 0, 72, 54
1, 379976, Note_off_c, 0, 70, 39
1, 379987, Control_c, 0, 64, 78
1, 380001, Note_on_c, 0, 67, 66
1, 380002, Control_c, 0, 64, 66
1, 380013, Note_on_c, 0, 55, 30
1, 380017, Control_c, 0, 64, 61
1, 380024, Note_on_c, 0, 64, 35
1, 380025, Note_on_c, 0, 48, 35
1, 380032, Control_c, 0, 64, 63
1, 380046, Control_c, 0, 64, 67
1, 380061, Control_c, 0, 64, 73
1, 380076, Control_c, 0, 64, 84
1, 380089, Note_off_c, 0, 55, 57
1, 380091, Control_c, 0, 64, 106
1, 380093, Note_off_c, 0, 64, 47
1, 380105, Control_c, 0, 64, 127
1, 380114, Note_off_c, 0, 48, 61
1, 380150, Note_off_c, 0, 67, 58
1, 380171, Note_on_c, 0, 72, 38
1, 380282, Note_off_c, 0, 72, 39
1, 380305, Control_c, 0, 64, 114
1, 380317, Note_on_c, 0, 65, 55
1, 380320, Note_on_c, 0, 41, 41
1, 380320, Control_c, 0, 64, 86
1, 380335, Control_c, 0, 64, 70
1, 380338, Note_on_c, 0, 45, 34
1, 380348, Note_on_c, 0, 53, 33
1, 380350, Control_c, 0, 64, 59
1, 380365, Control_c, 0, 64, 43
1, 380380, Control_c, 0, 64, 42
1, 380394, Control_c, 0, 64, 47
1, 380410, Control_c, 0, 64, 52
1, 380425, Control_c, 0, 64, 58
1, 380440, Control_c, 0, 64, 61
1, 380455, Control_c, 0, 64, 64
1, 380470, Control_c, 0, 64, 66
1, 380484, Control_c, 0, 64, 70
1, 380499, Control_c, 0, 64, 75
1, 380514, Control_c, 0, 64, 85
1, 380523, Note_on_c, 0, 69, 44
1, 380529, Control_c, 0, 64, 96
1, 380538, Note_off_c, 0, 65, 35
1, 380543, Control_c, 0, 64, 111
1, 380558, Control_c, 0, 64, 127
1, 380645, Note_off_c, 0, 69, 37
1, 380693, Note_on_c, 0, 57, 25
1, 380757, Note_on_c, 0, 60, 43
1, 380818, Note_off_c, 0, 57, 29
1, 380880, Note_on_c, 0, 65, 40
1, 380900, Note_off_c, 0, 60, 37
1, 380972, Note_on_c, 0, 69, 32
1, 381045, Note_off_c, 0, 65, 31
1, 381096, Note_on_c, 0, 57, 32
1, 381113, Note_off_c, 0, 69, 35
1, 381162, Note_off_c, 0, 57, 42
1, 381165, Note_on_c, 0, 60, 42
1, 381283, Note_on_c, 0, 65, 34
1, 381307, Note_off_c, 0, 60, 37
1, 381383, Note_on_c, 0, 69, 37
1, 381462, Note_off_c, 0, 65, 39
1, 381488, Note_on_c, 0, 57, 38
1, 381511, Note_off_c, 0, 69, 29
1, 381553, Note_off_c, 0, 57, 48
1, 381563, Note_on_c, 0, 60, 37
1, 381638, Note_off_c, 0, 45, 32
1, 381661, Note_off_c, 0, 53, 33
1, 381700, Note_on_c, 0, 65, 39
1, 381711, Note_off_c, 0, 60, 35
1, 381768, Note_off_c, 0, 41, 39
1, 381801, Note_on_c, 0, 69, 41
1, 381884, Note_off_c, 0, 65, 37
1, 381915, Note_on_c, 0, 57, 30
1, 381936, Control_c, 0, 64, 119
1, 381950, Control_c, 0, 64, 116
1, 381965, Control_c, 0, 64, 112
1, 381979, Note_off_c, 0, 69, 42
1, 381980, Control_c, 0, 64, 108
1, 381986, Note_on_c, 0, 60, 44
1, 381996, Control_c, 0, 64, 107
1, 382011, Control_c, 0, 64, 106
1, 382025, Control_c, 0, 64, 104
1, 382040, Control_c, 0, 64, 101
1, 382055, Control_c, 0, 64, 98
1, 382070, Control_c, 0, 64, 95
1, 382085, Control_c, 0, 64, 93
1, 382099, Control_c, 0, 64, 91
1, 382114, Control_c, 0, 64, 88
1, 382129, Control_c, 0, 64, 85
1, 382141, Note_off_c, 0, 57, 39
1, 382144, Control_c, 0, 64, 82
1, 382159, Control_c, 0, 64, 80
1, 382173, Control_c, 0, 64, 79
1, 382178, Note_on_c, 0, 65, 45
1, 382188, Control_c, 0, 64, 77
1, 382203, Control_c, 0, 64, 75
1, 382218, Control_c, 0, 64, 71
1, 382233, Control_c, 0, 64, 66
1, 382247, Control_c, 0, 64, 61
1, 382262, Control_c, 0, 64, 57
1, 382277, Control_c, 0, 64, 56
1, 382281, Note_off_c, 0, 60, 31
1, 382306, Control_c, 0, 64, 57
1, 382321, Control_c, 0, 64, 58
1, 382329, Note_on_c, 0, 68, 52
1, 382336, Control_c, 0, 64, 59
1, 382351, Control_c, 0, 64, 60
1, 382366, Control_c, 0, 64, 61
1, 382380, Control_c, 0, 64, 63
1, 382395, Note_off_c, 0, 65, 50
1, 382395, Control_c, 0, 64, 64
1, 382410, Control_c, 0, 64, 66
1, 382425, Control_c, 0, 64, 68
1, 382440, Control_c, 0, 64, 70
1, 382448, Note_on_c, 0, 40, 54
1, 382448, Note_on_c, 0, 56, 44
1, 382454, Control_c, 0, 64, 74
1, 382469, Control_c, 0, 64, 81
1, 382484, Control_c, 0, 64, 89
1, 382506, Control_c, 0, 64, 99
1, 382514, Note_off_c, 0, 68, 36
1, 382521, Control_c, 0, 64, 115
1, 382535, Note_on_c, 0, 60, 47
1, 382536, Control_c, 0, 64, 127
1, 382630, Note_off_c, 0, 56, 25
1, 382658, Note_on_c, 0, 41, 66
1, 382672, Note_on_c, 0, 65, 55
1, 382712, Note_off_c, 0, 60, 55
1, 382783, Note_on_c, 0, 68, 54
1, 382851, Note_off_c, 0, 65, 53
1, 382872, Note_on_c, 0, 44, 82
1, 382876, Note_on_c, 0, 56, 69
1, 382914, Note_off_c, 0, 68, 52
1, 382920, Note_off_c, 0, 40, 34
1, 382958, Note_on_c, 0, 60, 59
1, 383012, Note_off_c, 0, 56, 51
1, 383018, Note_off_c, 0, 41, 33
1, 383056, Control_c, 0, 64, 110
1, 383070, Control_c, 0, 64, 94
1, 383077, Note_on_c, 0, 47, 83
1, 383085, Note_on_c, 0, 65, 60
1, 383085, Control_c, 0, 64, 79
1, 383100, Control_c, 0, 64, 67
1, 383113, Note_off_c, 0, 60, 61
1, 383115, Control_c, 0, 64, 58
1, 383129, Control_c, 0, 64, 55
1, 383144, Control_c, 0, 64, 57
1, 383159, Control_c, 0, 64, 61
1, 383174, Control_c, 0, 64, 64
1, 383186, Note_off_c, 0, 44, 56
1, 383187, Note_on_c, 0, 68, 64
1, 383189, Control_c, 0, 64, 69
1, 383203, Control_c, 0, 64, 76
1, 383218, Control_c, 0, 64, 95
1, 383225, Note_off_c, 0, 65, 62
1, 383233, Control_c, 0, 64, 127
1, 383295, Note_off_c, 0, 68, 61
1, 383311, Note_on_c, 0, 48, 90
1, 383319, Note_on_c, 0, 60, 80
1, 383355, Note_off_c, 0, 47, 62
1, 383419, Note_on_c, 0, 65, 80
1, 383453, Note_off_c, 0, 48, 61
1, 383525, Note_off_c, 0, 60, 51
1, 383541, Note_on_c, 0, 53, 91
1, 383557, Note_on_c, 0, 68, 78
1, 383597, Control_c, 0, 64, 113
1, 383612, Control_c, 0, 64, 86
1, 383626, Note_off_c, 0, 65, 57
1, 383626, Control_c, 0, 64, 70
1, 383641, Control_c, 0, 64, 59
1, 383656, Control_c, 0, 64, 47
1, 383671, Control_c, 0, 64, 48
1, 383676, Note_on_c, 0, 72, 85
1, 383686, Control_c, 0, 64, 54
1, 383700, Control_c, 0, 64, 58
1, 383715, Control_c, 0, 64, 62
1, 383724, Note_off_c, 0, 68, 57
1, 383730, Control_c, 0, 64, 65
1, 383745, Control_c, 0, 64, 70
1, 383760, Control_c, 0, 64, 78
1, 383775, Control_c, 0, 64, 99
1, 383790, Control_c, 0, 64, 127
1, 383819, Note_on_c, 0, 55, 96
1, 383854, Note_on_c, 0, 60, 79
1, 383856, Note_off_c, 0, 53, 63
1, 383897, Note_off_c, 0, 55, 66
1, 383951, Note_off_c, 0, 72, 55
1, 383975, Note_on_c, 0, 65, 81
1, 384031, Note_off_c, 0, 60, 60
1, 384092, Note_on_c, 0, 41, 74
1, 384121, Note_off_c, 0, 65, 56
1, 384145, Note_on_c, 0, 60, 73
1, 384152, Control_c, 0, 64, 109
1, 384167, Control_c, 0, 64, 77
1, 384182, Control_c, 0, 64, 60
1, 384194, Note_on_c, 0, 48, 65
1, 384197, Control_c, 0, 64, 34
1, 384212, Control_c, 0, 64, 33
1, 384213, Note_on_c, 0, 65, 79
1, 384226, Control_c, 0, 64, 42
1, 384241, Control_c, 0, 64, 53
1, 384256, Control_c, 0, 64, 61
1, 384263, Note_on_c, 0, 68, 79
1, 384266, Note_off_c, 0, 60, 59
1, 384270, Control_c, 0, 64, 66
1, 384285, Control_c, 0, 64, 75
1, 384300, Control_c, 0, 64, 103
1, 384308, Note_on_c, 0, 56, 82
1, 384315, Control_c, 0, 64, 127
1, 384335, Note_on_c, 0, 72, 96
1, 384346, Note_off_c, 0, 65, 62
1, 384381, Note_off_c, 0, 68, 61
1, 385304, Note_off_c, 0, 56, 33
1, 385392, Note_on_c, 0, 70, 64
1, 385501, Note_on_c, 0, 68, 69
1, 385548, Note_off_c, 0, 72, 55
1, 385615, Note_off_c, 0, 70, 59
1, 385842, Note_on_c, 0, 70, 57
1, 385909, Note_off_c, 0, 68, 36
1, 385916, Control_c, 0, 64, 112
1, 385930, Note_on_c, 0, 52, 52
1, 385931, Control_c, 0, 64, 100
1, 385934, Note_on_c, 0, 67, 65
1, 385946, Control_c, 0, 64, 86
1, 385947, Note_on_c, 0, 43, 37
1, 385961, Control_c, 0, 64, 73
1, 385976, Control_c, 0, 64, 63
1, 385992, Control_c, 0, 64, 54
1, 385993, Note_off_c, 0, 70, 55
1, 386007, Control_c, 0, 64, 55
1, 386021, Control_c, 0, 64, 58
1, 386036, Control_c, 0, 64, 62
1, 386051, Control_c, 0, 64, 65
1, 386066, Control_c, 0, 64, 69
1, 386080, Note_off_c, 0, 43, 46
1, 386081, Control_c, 0, 64, 75
1, 386095, Control_c, 0, 64, 87
1, 386110, Control_c, 0, 64, 101
1, 386125, Control_c, 0, 64, 115
1, 386139, Control_c, 0, 64, 121
1, 386140, Note_off_c, 0, 48, 21
1, 386208, Note_off_c, 0, 52, 55
1, 386231, Note_on_c, 0, 68, 59
1, 386266, Control_c, 0, 64, 119
1, 386281, Control_c, 0, 64, 118
1, 386295, Control_c, 0, 64, 117
1, 386300, Note_off_c, 0, 67, 36
1, 386325, Control_c, 0, 64, 115
1, 386340, Control_c, 0, 64, 112
1, 386353, Note_off_c, 0, 68, 57
1, 386354, Control_c, 0, 64, 106
1, 386369, Control_c, 0, 64, 94
1, 386374, Note_on_c, 0, 65, 61
1, 386381, Note_on_c, 0, 44, 40
1, 386384, Control_c, 0, 64, 76
1, 386385, Note_on_c, 0, 53, 45
1, 386399, Control_c, 0, 64, 65
1, 386414, Control_c, 0, 64, 56
1, 386443, Control_c, 0, 64, 60
1, 386458, Control_c, 0, 64, 63
1, 386473, Control_c, 0, 64, 66
1, 386478, Note_off_c, 0, 65, 60
1, 386487, Control_c, 0, 64, 69
1, 386502, Control_c, 0, 64, 75
1, 386503, Note_on_c, 0, 67, 34
1, 386517, Control_c, 0, 64, 85
1, 386532, Control_c, 0, 64, 99
1, 386547, Control_c, 0, 64, 127
1, 386547, Note_off_c, 0, 67, 57
1, 386562, Note_on_c, 0, 65, 48
1, 386614, Note_off_c, 0, 65, 57
1, 386622, Note_on_c, 0, 64, 53
1, 386663, Note_off_c, 0, 64, 64
1, 386690, Note_on_c, 0, 66, 50
1, 386747, Note_off_c, 0, 66, 53
1, 386769, Control_c, 0, 64, 99
1, 386771, Note_on_c, 0, 63, 57
1, 386785, Control_c, 0, 64, 81
1, 386789, Note_on_c, 0, 45, 43
1, 386800, Control_c, 0, 64, 69
1, 386815, Control_c, 0, 64, 63
1, 386819, Note_off_c, 0, 63, 59
1, 386830, Control_c, 0, 64, 62
1, 386844, Control_c, 0, 64, 66
1, 386859, Control_c, 0, 64, 70
1, 386862, Note_on_c, 0, 65, 49
1, 386874, Control_c, 0, 64, 76
1, 386889, Control_c, 0, 64, 86
1, 386903, Note_off_c, 0, 44, 30
1, 386904, Control_c, 0, 64, 102
1, 386918, Control_c, 0, 64, 127
1, 386920, Note_off_c, 0, 65, 53
1, 386938, Note_on_c, 0, 63, 55
1, 386976, Note_off_c, 0, 63, 60
1, 386979, Note_on_c, 0, 61, 60
1, 387062, Note_on_c, 0, 63, 43
1, 387066, Note_off_c, 0, 61, 56
1, 387082, Note_on_c, 0, 65, 59
1, 387104, Note_off_c, 0, 63, 49
1, 387143, Note_on_c, 0, 46, 56
1, 387148, Control_c, 0, 64, 107
1, 387163, Control_c, 0, 64, 82
1, 387170, Note_on_c, 0, 61, 71
1, 387173, Note_off_c, 0, 65, 59
1, 387177, Control_c, 0, 64, 68
1, 387185, Note_off_c, 0, 45, 34
1, 387192, Control_c, 0, 64, 59
1, 387207, Control_c, 0, 64, 58
1, 387222, Control_c, 0, 64, 62
1, 387237, Control_c, 0, 64, 65
1, 387239, Note_off_c, 0, 61, 62
1, 387251, Control_c, 0, 64, 69
1, 387252, Note_on_c, 0, 63, 61
1, 387266, Control_c, 0, 64, 75
1, 387281, Control_c, 0, 64, 86
1, 387296, Control_c, 0, 64, 103
1, 387311, Control_c, 0, 64, 127
1, 387313, Note_on_c, 0, 61, 62
1, 387319, Note_off_c, 0, 63, 61
1, 387385, Note_on_c, 0, 60, 59
1, 387422, Note_off_c, 0, 60, 64
1, 387432, Note_on_c, 0, 63, 72
1, 387492, Note_off_c, 0, 61, 39
1, 387499, Note_off_c, 0, 63, 61
1, 387510, Note_on_c, 0, 60, 72
1, 387518, Control_c, 0, 64, 97
1, 387526, Note_on_c, 0, 48, 71
1, 387533, Control_c, 0, 64, 74
1, 387548, Control_c, 0, 64, 60
1, 387562, Control_c, 0, 64, 35
1, 387577, Control_c, 0, 64, 32
1, 387582, Note_off_c, 0, 46, 40
1, 387593, Control_c, 0, 64, 45
1, 387602, Note_on_c, 0, 61, 65
1, 387605, Note_off_c, 0, 60, 64
1, 387608, Control_c, 0, 64, 56
1, 387623, Control_c, 0, 64, 63
1, 387638, Control_c, 0, 64, 69
1, 387653, Control_c, 0, 64, 80
1, 387663, Note_on_c, 0, 60, 59
1, 387667, Control_c, 0, 64, 101
1, 387682, Control_c, 0, 64, 127
1, 387692, Note_off_c, 0, 61, 52
1, 387698, Note_off_c, 0, 48, 62
1, 387724, Note_on_c, 0, 58, 74
1, 387745, Note_off_c, 0, 60, 63
1, 387799, Note_off_c, 0, 58, 63
1, 387805, Note_on_c, 0, 61, 73
1, 387808, Control_c, 0, 64, 115
1, 387823, Control_c, 0, 64, 104
1, 387838, Control_c, 0, 64, 95
1, 387853, Control_c, 0, 64, 87
1, 387867, Control_c, 0, 64, 80
1, 387878, Note_off_c, 0, 61, 60
1, 387879, Note_on_c, 0, 49, 54
1, 387882, Control_c, 0, 64, 76
1, 387888, Note_on_c, 0, 58, 72
1, 387897, Control_c, 0, 64, 72
1, 387912, Control_c, 0, 64, 68
1, 387927, Control_c, 0, 64, 63
1, 387934, Note_off_c, 0, 41, 41
1, 387936, Note_off_c, 0, 49, 58
1, 387941, Note_off_c, 0, 53, 53
1, 387941, Control_c, 0, 64, 60
1, 387953, Note_off_c, 0, 58, 62
1, 387956, Control_c, 0, 64, 58
1, 387966, Note_on_c, 0, 61, 61
1, 387971, Control_c, 0, 64, 57
1, 387986, Control_c, 0, 64, 54
1, 388000, Control_c, 0, 64, 48
1, 388015, Control_c, 0, 64, 37
1, 388030, Control_c, 0, 64, 22
1, 388045, Control_c, 0, 64, 0
1, 388052, Note_off_c, 0, 61, 61
1, 388059, Note_on_c, 0, 58, 67
1, 388067, Note_on_c, 0, 49, 54
1, 388069, Note_on_c, 0, 53, 51
1, 388104, Note_off_c, 0, 53, 65
1, 388109, Note_off_c, 0, 49, 63
1, 388127, Note_off_c, 0, 58, 64
1, 388136, Note_on_c, 0, 61, 59
1, 388230, Note_on_c, 0, 56, 75
1, 388234, Note_off_c, 0, 61, 61
1, 388237, Note_on_c, 0, 51, 61
1, 388239, Note_on_c, 0, 48, 52
1, 388279, Note_off_c, 0, 51, 62
1, 388281, Note_off_c, 0, 48, 63
1, 388310, Note_off_c, 0, 56, 64
1, 388321, Note_on_c, 0, 61, 61
1, 388404, Note_on_c, 0, 51, 72
1, 388407, Note_on_c, 0, 56, 87
1, 388407, Note_on_c, 0, 48, 55
1, 388415, Note_off_c, 0, 61, 60
1, 388442, Note_off_c, 0, 48, 63
1, 388446, Note_off_c, 0, 51, 60
1, 388497, Note_off_c, 0, 56, 64
1, 388503, Note_on_c, 0, 61, 65
1, 388580, Note_on_c, 0, 49, 86
1, 388583, Note_on_c, 0, 54, 96
1, 388586, Note_on_c, 0, 46, 71
1, 388599, Note_off_c, 0, 61, 62
1, 388630, Note_off_c, 0, 49, 62
1, 388639, Note_off_c, 0, 46, 60
1, 388671, Note_off_c, 0, 54, 66
1, 388675, Note_on_c, 0, 61, 67
1, 388756, Note_on_c, 0, 49, 88
1, 388759, Note_on_c, 0, 46, 74
1, 388760, Note_on_c, 0, 54, 94
1, 388780, Note_off_c, 0, 61, 61
1, 388806, Note_off_c, 0, 49, 63
1, 388824, Note_off_c, 0, 46, 59
1, 388855, Note_off_c, 0, 54, 63
1, 388874, Note_on_c, 0, 61, 66
1, 388919, Note_on_c, 0, 48, 78
1, 388924, Note_on_c, 0, 44, 77
1, 388933, Note_on_c, 0, 53, 94
1, 388969, Note_off_c, 0, 61, 63
1, 388978, Note_off_c, 0, 48, 62
1, 389003, Note_off_c, 0, 44, 60
1, 389012, Note_on_c, 0, 61, 63
1, 389015, Note_off_c, 0, 53, 63
1, 389090, Note_off_c, 0, 61, 56
1, 389092, Note_on_c, 0, 53, 98
1, 389098, Note_on_c, 0, 48, 83
1, 389104, Note_on_c, 0, 44, 86
1, 389149, Note_off_c, 0, 48, 64
1, 389180, Note_on_c, 0, 61, 85
1, 389207, Note_off_c, 0, 44, 58
1, 389209, Note_off_c, 0, 53, 64
1, 389295, Note_on_c, 0, 46, 76
1, 389298, Note_on_c, 0, 43, 80
1, 389299, Note_on_c, 0, 52, 96
1, 389336, Note_off_c, 0, 61, 64
1, 389364, Control_c, 0, 64, 64
1, 389368, Note_off_c, 0, 43, 63
1, 389379, Control_c, 0, 64, 89
1, 389381, Note_off_c, 0, 52, 67
1, 389390, Note_off_c, 0, 46, 64
1, 389394, Control_c, 0, 64, 127
1, 389528, Control_c, 0, 64, 90
1, 389543, Control_c, 0, 64, 69
1, 389558, Control_c, 0, 64, 54
1, 389572, Control_c, 0, 64, 0
1, 389808, Note_on_c, 0, 73, 94
1, 389811, Note_on_c, 0, 58, 68
1, 389811, Note_on_c, 0, 55, 64
1, 389811, Note_on_c, 0, 70, 81
1, 389812, Note_on_c, 0, 52, 65
1, 389812, Note_on_c, 0, 61, 68
1, 389815, Note_on_c, 0, 67, 76
1, 389868, Control_c, 0, 64, 51
1, 389883, Control_c, 0, 64, 63
1, 389898, Control_c, 0, 64, 73
1, 389912, Control_c, 0, 64, 127
1, 389952, Note_off_c, 0, 61, 62
1, 389988, Note_off_c, 0, 67, 55
1, 390002, Note_off_c, 0, 58, 63
1, 390030, Note_off_c, 0, 55, 61
1, 390038, Note_off_c, 0, 52, 62
1, 390063, Note_off_c, 0, 70, 62
1, 390127, Note_off_c, 0, 73, 63
1, 390129, Control_c, 0, 64, 106
1, 390143, Control_c, 0, 64, 97
1, 390158, Control_c, 0, 64, 92
1, 390173, Control_c, 0, 64, 87
1, 390187, Control_c, 0, 64, 83
1, 390202, Control_c, 0, 64, 78
1, 390217, Control_c, 0, 64, 72
1, 390232, Control_c, 0, 64, 68
1, 390247, Control_c, 0, 64, 64
1, 390261, Control_c, 0, 64, 61
1, 390276, Control_c, 0, 64, 59
1, 390291, Control_c, 0, 64, 57
1, 390306, Control_c, 0, 64, 52
1, 390321, Control_c, 0, 64, 42
1, 390336, Control_c, 0, 64, 15
1, 390351, Control_c, 0, 64, 0
1, 390758, Control_c, 0, 64, 11
1, 390773, Control_c, 0, 64, 32
1, 390789, Control_c, 0, 64, 47
1, 390804, Control_c, 0, 64, 56
1, 390818, Control_c, 0, 64, 61
1, 390833, Control_c, 0, 64, 63
1, 390848, Control_c, 0, 64, 65
1, 390863, Control_c, 0, 64, 67
1, 390878, Control_c, 0, 64, 71
1, 390892, Control_c, 0, 64, 80
1, 390907, Control_c, 0, 64, 94
1, 390922, Control_c, 0, 64, 127
1, 391021, Note_on_c, 0, 72, 42
1, 391095, Note_off_c, 0, 72, 55
1, 391099, Control_c, 0, 64, 112
1, 391102, Note_on_c, 0, 73, 44
1, 391114, Control_c, 0, 64, 100
1, 391129, Control_c, 0, 64, 91
1, 391144, Control_c, 0, 64, 84
1, 391150, Note_off_c, 0, 73, 59
1, 391158, Note_on_c, 0, 75, 61
1, 391158, Control_c, 0, 64, 79
1, 391173, Control_c, 0, 64, 76
1, 391188, Control_c, 0, 64, 73
1, 391203, Control_c, 0, 64, 70
1, 391218, Control_c, 0, 64, 67
1, 391233, Control_c, 0, 64, 64
1, 391248, Control_c, 0, 64, 61
1, 391248, Note_on_c, 0, 73, 63
1, 391263, Control_c, 0, 64, 60
1, 391277, Control_c, 0, 64, 59
1, 391292, Control_c, 0, 64, 59
1, 391307, Control_c, 0, 64, 57
1, 391322, Control_c, 0, 64, 55
1, 391331, Note_off_c, 0, 75, 56
1, 391336, Control_c, 0, 64, 52
1, 391351, Control_c, 0, 64, 50
1, 391366, Control_c, 0, 64, 49
1, 391381, Control_c, 0, 64, 48
1, 391396, Control_c, 0, 64, 46
1, 391410, Control_c, 0, 64, 44
1, 391425, Control_c, 0, 64, 41
1, 391440, Control_c, 0, 64, 38
1, 391455, Control_c, 0, 64, 37
1, 391470, Control_c, 0, 64, 37
1, 391492, Control_c, 0, 64, 36
1, 391507, Control_c, 0, 64, 34
1, 391522, Control_c, 0, 64, 33
1, 391536, Control_c, 0, 64, 31
1, 391551, Control_c, 0, 64, 29
1, 391566, Control_c, 0, 64, 27
1, 391581, Control_c, 0, 64, 25
1, 391597, Control_c, 0, 64, 21
1, 391612, Control_c, 0, 64, 19
1, 391620, Note_on_c, 0, 72, 59
1, 391624, Note_off_c, 0, 73, 59
1, 391626, Control_c, 0, 64, 17
1, 391641, Control_c, 0, 64, 17
1, 391656, Control_c, 0, 64, 16
1, 391671, Control_c, 0, 64, 15
1, 391686, Control_c, 0, 64, 13
1, 391701, Control_c, 0, 64, 12
1, 391715, Control_c, 0, 64, 9
1, 391740, Note_off_c, 0, 72, 63
1, 391745, Control_c, 0, 64, 0
1, 391787, Note_on_c, 0, 72, 45
1, 391790, Note_on_c, 0, 53, 32
1, 391793, Note_on_c, 0, 56, 33
1, 391893, Control_c, 0, 64, 16
1, 391907, Control_c, 0, 64, 25
1, 391922, Control_c, 0, 64, 35
1, 391937, Control_c, 0, 64, 45
1, 391952, Control_c, 0, 64, 53
1, 391966, Control_c, 0, 64, 58
1, 391981, Control_c, 0, 64, 62
1, 391996, Control_c, 0, 64, 65
1, 392011, Control_c, 0, 64, 69
1, 392022, Note_on_c, 0, 80, 66
1, 392026, Control_c, 0, 64, 76
1, 392041, Control_c, 0, 64, 86
1, 392056, Control_c, 0, 64, 113
1, 392071, Control_c, 0, 64, 127
1, 392077, Note_off_c, 0, 72, 48
1, 392141, Note_off_c, 0, 53, 42
1, 392164, Note_off_c, 0, 56, 41
1, 392174, Note_on_c, 0, 79, 76
1, 392204, Control_c, 0, 64, 107
1, 392219, Control_c, 0, 64, 96
1, 392241, Control_c, 0, 64, 88
1, 392242, Note_off_c, 0, 80, 58
1, 392255, Control_c, 0, 64, 81
1, 392270, Control_c, 0, 64, 76
1, 392285, Control_c, 0, 64, 72
1, 392300, Control_c, 0, 64, 68
1, 392315, Control_c, 0, 64, 65
1, 392330, Control_c, 0, 64, 63
1, 392330, Note_on_c, 0, 77, 75
1, 392345, Control_c, 0, 64, 61
1, 392359, Control_c, 0, 64, 60
1, 392363, Note_off_c, 0, 79, 62
1, 392374, Control_c, 0, 64, 59
1, 392390, Control_c, 0, 64, 58
1, 392405, Control_c, 0, 64, 56
1, 392419, Control_c, 0, 64, 55
1, 392434, Control_c, 0, 64, 53
1, 392448, Note_off_c, 0, 77, 63
1, 392449, Control_c, 0, 64, 53
1, 392456, Note_on_c, 0, 72, 70
1, 392464, Control_c, 0, 64, 52
1, 392479, Control_c, 0, 64, 52
1, 392494, Control_c, 0, 64, 51
1, 392508, Control_c, 0, 64, 51
1, 392523, Control_c, 0, 64, 50
1, 392537, Control_c, 0, 64, 49
1, 392552, Control_c, 0, 64, 48
1, 392567, Control_c, 0, 64, 47
1, 392587, Note_off_c, 0, 72, 59
1, 392589, Note_on_c, 0, 68, 62
1, 392596, Control_c, 0, 64, 47
1, 392611, Control_c, 0, 64, 46
1, 392626, Control_c, 0, 64, 45
1, 392641, Control_c, 0, 64, 44
1, 392655, Control_c, 0, 64, 44
1, 392670, Control_c, 0, 64, 42
1, 392685, Control_c, 0, 64, 40
1, 392700, Control_c, 0, 64, 38
1, 392715, Control_c, 0, 64, 34
1, 392729, Control_c, 0, 64, 30
1, 392744, Note_on_c, 0, 67, 45
1, 392744, Control_c, 0, 64, 26
1, 392747, Note_on_c, 0, 46, 38
1, 392753, Note_on_c, 0, 55, 36
1, 392756, Note_on_c, 0, 49, 26
1, 392757, Note_off_c, 0, 68, 57
1, 392759, Control_c, 0, 64, 21
1, 392774, Control_c, 0, 64, 17
1, 392789, Control_c, 0, 64, 16
1, 392819, Control_c, 0, 64, 15
1, 392893, Control_c, 0, 64, 16
1, 392908, Control_c, 0, 64, 22
1, 392918, Note_on_c, 0, 75, 66
1, 392923, Control_c, 0, 64, 32
1, 392937, Control_c, 0, 64, 45
1, 392952, Control_c, 0, 64, 56
1, 392967, Control_c, 0, 64, 62
1, 392989, Control_c, 0, 64, 67
1, 393004, Control_c, 0, 64, 71
1, 393019, Control_c, 0, 64, 77
1, 393033, Control_c, 0, 64, 80
1, 393044, Note_off_c, 0, 67, 30
1, 393059, Note_on_c, 0, 72, 74
1, 393059, Note_off_c, 0, 46, 41
1, 393063, Control_c, 0, 64, 79
1, 393068, Note_off_c, 0, 55, 57
1, 393078, Control_c, 0, 64, 78
1, 393079, Note_off_c, 0, 49, 38
1, 393093, Control_c, 0, 64, 77
1, 393095, Note_off_c, 0, 75, 62
1, 393108, Control_c, 0, 64, 75
1, 393123, Control_c, 0, 64, 74
1, 393137, Control_c, 0, 64, 72
1, 393152, Control_c, 0, 64, 69
1, 393167, Control_c, 0, 64, 67
1, 393183, Note_on_c, 0, 73, 76
1, 393183, Control_c, 0, 64, 63
1, 393197, Control_c, 0, 64, 60
1, 393212, Control_c, 0, 64, 55
1, 393226, Note_off_c, 0, 72, 59
1, 393227, Control_c, 0, 64, 46
1, 393242, Control_c, 0, 64, 29
1, 393257, Control_c, 0, 64, 0
1, 393324, Note_on_c, 0, 70, 78
1, 393364, Note_off_c, 0, 73, 63
1, 393375, Control_c, 0, 64, 15
1, 393390, Control_c, 0, 64, 33
1, 393404, Control_c, 0, 64, 49
1, 393419, Control_c, 0, 64, 60
1, 393434, Control_c, 0, 64, 67
1, 393437, Note_on_c, 0, 67, 79
1, 393440, Note_off_c, 0, 70, 63
1, 393449, Control_c, 0, 64, 78
1, 393464, Control_c, 0, 64, 127
1, 393490, Note_off_c, 0, 67, 64
1, 393582, Control_c, 0, 64, 109
1, 393597, Control_c, 0, 64, 100
1, 393612, Control_c, 0, 64, 93
1, 393627, Control_c, 0, 64, 87
1, 393630, Note_on_c, 0, 48, 49
1, 393637, Note_on_c, 0, 65, 78
1, 393642, Control_c, 0, 64, 82
1, 393656, Control_c, 0, 64, 78
1, 393671, Control_c, 0, 64, 75
1, 393686, Control_c, 0, 64, 73
1, 393701, Control_c, 0, 64, 71
1, 393716, Control_c, 0, 64, 69
1, 393737, Control_c, 0, 64, 67
1, 393752, Control_c, 0, 64, 65
1, 393767, Control_c, 0, 64, 64
1, 393782, Control_c, 0, 64, 64
1, 393797, Control_c, 0, 64, 63
1, 393811, Control_c, 0, 64, 63
1, 393826, Control_c, 0, 64, 62
1, 393841, Note_on_c, 0, 53, 43
1, 393841, Control_c, 0, 64, 61
1, 393856, Control_c, 0, 64, 60
1, 393858, Note_on_c, 0, 56, 52
1, 393871, Control_c, 0, 64, 60
1, 393886, Control_c, 0, 64, 59
1, 393901, Control_c, 0, 64, 58
1, 393916, Control_c, 0, 64, 58
1, 393930, Control_c, 0, 64, 57
1, 393960, Control_c, 0, 64, 56
1, 393975, Control_c, 0, 64, 55
1, 393989, Note_on_c, 0, 55, 54
1, 393990, Control_c, 0, 64, 55
1, 393993, Note_off_c, 0, 53, 59
1, 393996, Note_on_c, 0, 58, 57
1, 394005, Control_c, 0, 64, 54
1, 394014, Note_off_c, 0, 56, 52
1, 394020, Control_c, 0, 64, 54
1, 394034, Control_c, 0, 64, 53
1, 394049, Control_c, 0, 64, 53
1, 394064, Control_c, 0, 64, 52
1, 394079, Control_c, 0, 64, 51
1, 394094, Control_c, 0, 64, 50
1, 394108, Control_c, 0, 64, 48
1, 394122, Note_on_c, 0, 56, 52
1, 394123, Control_c, 0, 64, 47
1, 394133, Note_off_c, 0, 58, 58
1, 394136, Note_off_c, 0, 55, 60
1, 394138, Note_on_c, 0, 60, 59
1, 394138, Control_c, 0, 64, 45
1, 394153, Control_c, 0, 64, 43
1, 394168, Control_c, 0, 64, 40
1, 394182, Control_c, 0, 64, 38
1, 394197, Control_c, 0, 64, 36
1, 394212, Control_c, 0, 64, 36
1, 394270, Note_on_c, 0, 55, 58
1, 394272, Note_off_c, 0, 56, 64
1, 394282, Note_on_c, 0, 58, 61
1, 394300, Control_c, 0, 64, 36
1, 394312, Note_off_c, 0, 60, 61
1, 394315, Control_c, 0, 64, 39
1, 394330, Control_c, 0, 64, 45
1, 394345, Control_c, 0, 64, 52
1, 394360, Control_c, 0, 64, 57
1, 394375, Control_c, 0, 64, 61
1, 394381, Note_off_c, 0, 48, 40
1, 394390, Control_c, 0, 64, 65
1, 394405, Control_c, 0, 64, 70
1, 394420, Control_c, 0, 64, 80
1, 394423, Note_on_c, 0, 53, 53
1, 394423, Note_on_c, 0, 56, 63
1, 394433, Note_off_c, 0, 55, 60
1, 394434, Note_off_c, 0, 58, 58
1, 394434, Control_c, 0, 64, 96
1, 394449, Control_c, 0, 64, 127
1, 394486, Control_c, 0, 64, 119
1, 394501, Control_c, 0, 64, 105
1, 394515, Control_c, 0, 64, 97
1, 394530, Control_c, 0, 64, 92
1, 394545, Control_c, 0, 64, 89
1, 394560, Control_c, 0, 64, 86
1, 394569, Note_off_c, 0, 56, 52
1, 394575, Control_c, 0, 64, 82
1, 394590, Control_c, 0, 64, 79
1, 394604, Control_c, 0, 64, 77
1, 394619, Control_c, 0, 64, 74
1, 394634, Control_c, 0, 64, 72
1, 394649, Control_c, 0, 64, 69
1, 394655, Note_on_c, 0, 58, 42
1, 394660, Note_on_c, 0, 64, 60
1, 394664, Control_c, 0, 64, 66
1, 394664, Note_on_c, 0, 48, 36
1, 394673, Note_on_c, 0, 61, 49
1, 394679, Control_c, 0, 64, 65
1, 394694, Control_c, 0, 64, 63
1, 394708, Control_c, 0, 64, 63
1, 394723, Control_c, 0, 64, 62
1, 394733, Note_off_c, 0, 53, 26
1, 394738, Control_c, 0, 64, 62
1, 394740, Note_off_c, 0, 65, 45
1, 394752, Control_c, 0, 64, 61
1, 394767, Control_c, 0, 64, 60
1, 394783, Control_c, 0, 64, 59
1, 394798, Control_c, 0, 64, 57
1, 394813, Control_c, 0, 64, 57
1, 394828, Control_c, 0, 64, 56
1, 394857, Control_c, 0, 64, 55
1, 394872, Control_c, 0, 64, 54
1, 394887, Control_c, 0, 64, 52
1, 394902, Control_c, 0, 64, 51
1, 394917, Control_c, 0, 64, 50
1, 394931, Control_c, 0, 64, 49
1, 394946, Control_c, 0, 64, 48
1, 394961, Control_c, 0, 64, 48
1, 394975, Control_c, 0, 64, 47
1, 394990, Control_c, 0, 64, 46
1, 395005, Control_c, 0, 64, 45
1, 395020, Control_c, 0, 64, 44
1, 395035, Control_c, 0, 64, 43
1, 395064, Control_c, 0, 64, 43
1, 395109, Control_c, 0, 64, 42
1, 395138, Control_c, 0, 64, 41
1, 395153, Control_c, 0, 64, 41
1, 395183, Control_c, 0, 64, 40
1, 395198, Control_c, 0, 64, 40
1, 395250, Control_c, 0, 64, 39
1, 395257, Note_on_c, 0, 60, 39
1, 395260, Note_on_c, 0, 56, 31
1, 395279, Control_c, 0, 64, 39
1, 395309, Control_c, 0, 64, 38
1, 395311, Note_off_c, 0, 61, 49
1, 395312, Note_off_c, 0, 58, 40
1, 395324, Control_c, 0, 64, 38
1, 395338, Control_c, 0, 64, 37
1, 395353, Control_c, 0, 64, 37
1, 395382, Control_c, 0, 64, 36
1, 395412, Control_c, 0, 64, 36
1, 395457, Control_c, 0, 64, 35
1, 395549, Note_on_c, 0, 58, 44
1, 395566, Note_on_c, 0, 55, 31
1, 395577, Control_c, 0, 64, 37
1, 395585, Note_off_c, 0, 56, 37
1, 395590, Note_off_c, 0, 60, 37
1, 395592, Control_c, 0, 64, 43
1, 395606, Control_c, 0, 64, 50
1, 395621, Control_c, 0, 64, 55
1, 395636, Control_c, 0, 64, 59
1, 395651, Control_c, 0, 64, 63
1, 395660, Note_off_c, 0, 48, 50
1, 395666, Control_c, 0, 64, 66
1, 395681, Control_c, 0, 64, 72
1, 395695, Control_c, 0, 64, 81
1, 395710, Control_c, 0, 64, 93
1, 395725, Control_c, 0, 64, 107
1, 395732, Note_off_c, 0, 58, 38
1, 395740, Control_c, 0, 64, 127
1, 395790, Note_off_c, 0, 64, 38
1, 395814, Control_c, 0, 64, 119
1, 395815, Note_off_c, 0, 55, 40
1, 395829, Control_c, 0, 64, 115
1, 395844, Control_c, 0, 64, 111
1, 395859, Control_c, 0, 64, 108
1, 395873, Control_c, 0, 64, 104
1, 395888, Control_c, 0, 64, 99
1, 395897, Note_on_c, 0, 48, 38
1, 395903, Control_c, 0, 64, 95
1, 395907, Note_on_c, 0, 65, 56
1, 395918, Control_c, 0, 64, 92
1, 395933, Control_c, 0, 64, 89
1, 395947, Control_c, 0, 64, 86
1, 395962, Control_c, 0, 64, 83
1, 395985, Control_c, 0, 64, 81
1, 395999, Control_c, 0, 64, 80
1, 396014, Control_c, 0, 64, 78
1, 396029, Control_c, 0, 64, 77
1, 396044, Control_c, 0, 64, 75
1, 396059, Control_c, 0, 64, 74
1, 396073, Control_c, 0, 64, 71
1, 396088, Control_c, 0, 64, 68
1, 396103, Control_c, 0, 64, 66
1, 396118, Control_c, 0, 64, 65
1, 396133, Control_c, 0, 64, 64
1, 396160, Note_on_c, 0, 53, 38
1, 396160, Note_on_c, 0, 56, 35
1, 396163, Control_c, 0, 64, 64
1, 396178, Control_c, 0, 64, 63
1, 396193, Control_c, 0, 64, 62
1, 396207, Control_c, 0, 64, 62
1, 396222, Control_c, 0, 64, 61
1, 396237, Control_c, 0, 64, 61
1, 396281, Control_c, 0, 64, 60
1, 396302, Note_on_c, 0, 58, 42
1, 396326, Control_c, 0, 64, 60
1, 396327, Note_off_c, 0, 56, 45
1, 396332, Note_on_c, 0, 55, 34
1, 396332, Note_off_c, 0, 53, 46
1, 396341, Control_c, 0, 64, 59
1, 396355, Control_c, 0, 64, 59
1, 396386, Control_c, 0, 64, 58
1, 396416, Control_c, 0, 64, 58
1, 396445, Control_c, 0, 64, 57
1, 396452, Note_on_c, 0, 56, 41
1, 396460, Control_c, 0, 64, 57
1, 396462, Note_off_c, 0, 58, 58
1, 396465, Note_off_c, 0, 55, 36
1, 396467, Note_on_c, 0, 60, 50
1, 396475, Control_c, 0, 64, 56
1, 396490, Control_c, 0, 64, 56
1, 396519, Control_c, 0, 64, 55
1, 396534, Control_c, 0, 64, 54
1, 396549, Control_c, 0, 64, 54
1, 396564, Control_c, 0, 64, 52
1, 396578, Control_c, 0, 64, 50
1, 396593, Control_c, 0, 64, 49
1, 396603, Note_on_c, 0, 55, 45
1, 396608, Control_c, 0, 64, 48
1, 396609, Note_off_c, 0, 56, 58
1, 396617, Note_on_c, 0, 58, 57
1, 396637, Control_c, 0, 64, 48
1, 396650, Note_off_c, 0, 60, 60
1, 396667, Control_c, 0, 64, 47
1, 396749, Control_c, 0, 64, 48
1, 396763, Note_off_c, 0, 48, 43
1, 396764, Control_c, 0, 64, 49
1, 396771, Note_on_c, 0, 53, 54
1, 396775, Note_off_c, 0, 55, 59
1, 396777, Note_on_c, 0, 56, 60
1, 396778, Control_c, 0, 64, 52
1, 396793, Control_c, 0, 64, 55
1, 396795, Note_off_c, 0, 58, 59
1, 396808, Control_c, 0, 64, 60
1, 396823, Control_c, 0, 64, 64
1, 396837, Control_c, 0, 64, 68
1, 396852, Control_c, 0, 64, 77
1, 396867, Control_c, 0, 64, 90
1, 396882, Control_c, 0, 64, 101
1, 396897, Control_c, 0, 64, 103
1, 396912, Control_c, 0, 64, 100
1, 396927, Control_c, 0, 64, 97
1, 396940, Note_off_c, 0, 56, 52
1, 396941, Control_c, 0, 64, 94
1, 396956, Control_c, 0, 64, 92
1, 396971, Control_c, 0, 64, 89
1, 396986, Control_c, 0, 64, 86
1, 397001, Control_c, 0, 64, 83
1, 397016, Control_c, 0, 64, 80
1, 397017, Note_on_c, 0, 64, 60
1, 397024, Note_on_c, 0, 48, 37
1, 397024, Note_on_c, 0, 58, 36
1, 397030, Control_c, 0, 64, 77
1, 397043, Note_on_c, 0, 61, 46
1, 397045, Control_c, 0, 64, 74
1, 397060, Control_c, 0, 64, 72
1, 397075, Control_c, 0, 64, 71
1, 397089, Note_off_c, 0, 65, 54
1, 397090, Control_c, 0, 64, 70
1, 397104, Control_c, 0, 64, 69
1, 397119, Control_c, 0, 64, 68
1, 397134, Control_c, 0, 64, 67
1, 397148, Control_c, 0, 64, 65
1, 397150, Note_off_c, 0, 53, 18
1, 397163, Control_c, 0, 64, 64
1, 397180, Control_c, 0, 64, 63
1, 397195, Control_c, 0, 64, 62
1, 397209, Control_c, 0, 64, 61
1, 397224, Control_c, 0, 64, 60
1, 397239, Control_c, 0, 64, 58
1, 397253, Control_c, 0, 64, 57
1, 397268, Control_c, 0, 64, 56
1, 397283, Control_c, 0, 64, 55
1, 397298, Control_c, 0, 64, 54
1, 397313, Control_c, 0, 64, 53
1, 397327, Control_c, 0, 64, 52
1, 397342, Control_c, 0, 64, 51
1, 397372, Control_c, 0, 64, 51
1, 397387, Control_c, 0, 64, 50
1, 397401, Control_c, 0, 64, 50
1, 397431, Control_c, 0, 64, 49
1, 397498, Control_c, 0, 64, 49
1, 397527, Control_c, 0, 64, 48
1, 397542, Control_c, 0, 64, 48
1, 397557, Control_c, 0, 64, 47
1, 397616, Control_c, 0, 64, 47
1, 397651, Note_on_c, 0, 60, 38
1, 397660, Note_on_c, 0, 56, 31
1, 397660, Control_c, 0, 64, 46
1, 397675, Control_c, 0, 64, 46
1, 397690, Control_c, 0, 64, 45
1, 397731, Note_off_c, 0, 61, 41
1, 397734, Control_c, 0, 64, 45
1, 397745, Note_off_c, 0, 58, 48
1, 397749, Control_c, 0, 64, 44
1, 397764, Control_c, 0, 64, 43
1, 397778, Control_c, 0, 64, 43
1, 397793, Control_c, 0, 64, 42
1, 397808, Control_c, 0, 64, 42
1, 397823, Control_c, 0, 64, 41
1, 397852, Control_c, 0, 64, 41
1, 397897, Control_c, 0, 64, 40
1, 397956, Control_c, 0, 64, 41
1, 397957, Note_on_c, 0, 58, 45
1, 397969, Note_on_c, 0, 55, 35
1, 397971, Note_off_c, 0, 56, 42
1, 397972, Control_c, 0, 64, 47
1, 397987, Control_c, 0, 64, 55
1, 397997, Note_off_c, 0, 60, 36
1, 398002, Control_c, 0, 64, 62
1, 398017, Control_c, 0, 64, 68
1, 398031, Control_c, 0, 64, 78
1, 398036, Note_off_c, 0, 48, 53
1, 398046, Control_c, 0, 64, 99
1, 398061, Control_c, 0, 64, 127
1, 398084, Note_off_c, 0, 55, 54
1, 398227, Note_off_c, 0, 58, 24
1, 398231, Control_c, 0, 64, 105
1, 398246, Control_c, 0, 64, 97
1, 398261, Control_c, 0, 64, 91
1, 398275, Control_c, 0, 64, 87
1, 398290, Control_c, 0, 64, 82
1, 398305, Control_c, 0, 64, 77
1, 398310, Note_on_c, 0, 41, 30
1, 398310, Note_on_c, 0, 65, 48
1, 398316, Note_on_c, 0, 56, 38
1, 398319, Note_on_c, 0, 53, 35
1, 398320, Control_c, 0, 64, 72
1, 398334, Note_off_c, 0, 64, 25
1, 398335, Control_c, 0, 64, 69
1, 398349, Control_c, 0, 64, 66
1, 398364, Control_c, 0, 64, 64
1, 398379, Control_c, 0, 64, 62
1, 398394, Control_c, 0, 64, 60
1, 398408, Control_c, 0, 64, 58
1, 398423, Control_c, 0, 64, 56
1, 398438, Control_c, 0, 64, 53
1, 398453, Control_c, 0, 64, 50
1, 398468, Control_c, 0, 64, 47
1, 398483, Control_c, 0, 64, 44
1, 398497, Control_c, 0, 64, 42
1, 398512, Control_c, 0, 64, 40
1, 398527, Control_c, 0, 64, 38
1, 398542, Control_c, 0, 64, 37
1, 398557, Control_c, 0, 64, 36
1, 398572, Control_c, 0, 64, 36
1, 398587, Control_c, 0, 64, 35
1, 398616, Control_c, 0, 64, 35
1, 398661, Control_c, 0, 64, 34
1, 398768, Note_off_c, 0, 65, 50
1, 398769, Note_off_c, 0, 41, 43
1, 398770, Note_off_c, 0, 56, 54
1, 398792, Note_off_c, 0, 53, 49
1, 398995, Control_c, 0, 64, 34
1, 399054, Control_c, 0, 64, 33
1, 399113, Control_c, 0, 64, 33
1, 399143, Control_c, 0, 64, 32
1, 399231, Control_c, 0, 64, 32
1, 399329, Note_on_c, 0, 60, 42
1, 399330, Note_on_c, 0, 56, 44
1, 399332, Note_on_c, 0, 65, 51
1, 399335, Note_on_c, 0, 53, 34
1, 399337, Note_on_c, 0, 48, 33
1, 399341, Note_on_c, 0, 41, 36
1, 399791, Note_off_c, 0, 60, 54
1, 399798, Note_off_c, 0, 56, 55
1, 399810, Note_off_c, 0, 41, 43
1, 399813, Note_off_c, 0, 53, 49
1, 399818, Note_off_c, 0, 65, 59
1, 399823, Note_off_c, 0, 48, 42
1, 400026, Control_c, 0, 64, 31
1, 400533, Note_on_c, 0, 60, 35
1, 400533, Note_on_c, 0, 56, 35
1, 400536, Note_on_c, 0, 65, 45
1, 400542, Note_on_c, 0, 41, 31
1, 400542, Note_on_c, 0, 48, 27
1, 400545, Note_on_c, 0, 53, 36
1, 402149, Note_off_c, 0, 60, 35
1, 402152, Note_off_c, 0, 65, 35
1, 402157, Note_off_c, 0, 48, 39
1, 402161, Note_off_c, 0, 53, 42
1, 402170, Note_off_c, 0, 41, 42
1, 402175, Note_off_c, 0, 56, 39
1, 403472, Control_c, 0, 64, 32
1, 403695, Control_c, 0, 64, 32
1, 403947, Control_c, 0, 64, 32
1, 403961, Control_c, 0, 64, 31
1, 403976, Control_c, 0, 64, 30
1, 403991, Control_c, 0, 64, 27
1, 404006, Control_c, 0, 64, 18
1, 404021, Control_c, 0, 64, 0
1, 404096, End_track
0, 0, End_of_file
