0, 0, Header, 0, 1, 384
1, 0, Start_track
1, 0, Title_t, "LisztLaLeggierezza--Ozaki       "
1, 0, Text_t, "2011 ePiano Junior Competition"
1, 0, Text_t, "captured in spring and summer 2011"
1, 0, Text_t, "http://www.piano-e-competition.com/"
1, 0, Text_t, "standard-resolution version"
1, 0, Text_t, "File processed for distribution with software designed and coded by Dr. John Q. Walker, founder of Zenph Sound Innovations"
1, 0, Instrument_name_t, "Yamaha Disklavier Pro Mark IV concert grand piano, model DCFIIISM4PRO"
1, 0, Sequencer_specific, 39, 67, 113, 0, 1, 0, 1, 0, 76, 105, 115, 122, 116, 76, 101, 103, 103, 105, 101, 114, 101, 122, 122, 97, 77, 105, 115, 111, 114, 97, 32, 79, 122, 97, 107, 105, 32, 32, 32, 32
1, 0, Sequencer_specific, 6, 67, 113, 0, 0, 0, 69
1, 0, System_exclusive, 21, 67, 113, 126, 21, 0, 2, 2, 2, 5, 12, 8, 4, 14, 0, 15, 5, 11, 14, 15, 2, 247
1, 0, Sequencer_specific, 5, 67, 123, 12, 2, 1
1, 0, Tempo, 512820
1, 0, Time_signature, 4, 2, 24, 8
1, 0, System_exclusive, 5, 126, 127, 9, 1, 247
1, 1, System_exclusive, 8, 67, 16, 76, 0, 0, 126, 0, 247
1, 2, System_exclusive, 8, 67, 16, 76, 8, 9, 7, 1, 247
1, 3, Control_c, 0, 0, 108
1, 3, Control_c, 1, 0, 108
1, 3, Control_c, 2, 0, 0
1, 3, Control_c, 3, 0, 0
1, 3, Control_c, 4, 0, 0
1, 3, Control_c, 5, 0, 0
1, 3, Control_c, 6, 0, 0
1, 3, Control_c, 7, 0, 0
1, 3, Control_c, 8, 0, 0
1, 3, Control_c, 9, 0, 127
1, 3, Control_c, 10, 0, 0
1, 3, Control_c, 11, 0, 0
1, 3, Control_c, 12, 0, 0
1, 3, Control_c, 13, 0, 0
1, 3, Control_c, 14, 0, 0
1, 3, Control_c, 15, 0, 0
1, 4, Control_c, 0, 32, 0
1, 4, Control_c, 1, 32, 0
1, 4, Control_c, 2, 32, 0
1, 4, Control_c, 3, 32, 0
1, 4, Control_c, 4, 32, 0
1, 4, Control_c, 5, 32, 0
1, 4, Control_c, 6, 32, 0
1, 4, Control_c, 7, 32, 0
1, 4, Control_c, 8, 32, 0
1, 4, Control_c, 9, 32, 0
1, 4, Control_c, 10, 32, 0
1, 4, Control_c, 11, 32, 0
1, 4, Control_c, 12, 32, 0
1, 4, Control_c, 13, 32, 0
1, 4, Control_c, 14, 32, 0
1, 4, Control_c, 15, 32, 0
1, 5, Program_c, 0, 0
1, 5, Program_c, 1, 0
1, 5, Program_c, 2, 0
1, 5, Program_c, 3, 0
1, 5, Program_c, 4, 0
1, 5, Program_c, 5, 0
1, 5, Program_c, 6, 0
1, 5, Program_c, 7, 0
1, 5, Program_c, 8, 0
1, 5, Program_c, 9, 0
1, 5, Program_c, 10, 0
1, 5, Program_c, 11, 0
1, 5, Program_c, 12, 0
1, 5, Program_c, 13, 0
1, 5, Program_c, 14, 0
1, 5, Program_c, 15, 0
1, 6, Control_c, 0, 7, 100
1, 6, Control_c, 1, 7, 100
1, 6, Control_c, 2, 7, 100
1, 6, Control_c, 3, 7, 100
1, 6, Control_c, 4, 7, 100
1, 6, Control_c, 5, 7, 100
1, 6, Control_c, 6, 7, 100
1, 6, Control_c, 7, 7, 100
1, 6, Control_c, 8, 7, 100
1, 6, Control_c, 9, 7, 100
1, 6, Control_c, 10, 7, 100
1, 6, Control_c, 11, 7, 100
1, 6, Control_c, 12, 7, 100
1, 6, Control_c, 13, 7, 100
1, 6, Control_c, 14, 7, 100
1, 6, Control_c, 15, 7, 100
1, 42, Control_c, 0, 64, 7
1, 42, Control_c, 0, 67, 15
1, 79, Control_c, 0, 64, 15
1, 79, Control_c, 0, 67, 31
1, 116, Control_c, 0, 64, 22
1, 116, Control_c, 0, 67, 46
1, 153, Control_c, 0, 64, 30
1, 153, Control_c, 0, 67, 63
1, 190, Control_c, 0, 64, 37
1, 190, Control_c, 0, 67, 77
1, 226, Control_c, 0, 64, 45
1, 226, Control_c, 0, 67, 94
1, 263, Control_c, 0, 64, 52
1, 263, Control_c, 0, 67, 108
1, 300, Control_c, 0, 64, 60
1, 300, Control_c, 0, 67, 126
1, 386, Note_on_c, 0, 47, 34
1, 499, Control_c, 0, 64, 60
1, 637, Note_on_c, 0, 48, 45
1, 802, Note_off_c, 0, 47, 42
1, 828, Note_on_c, 0, 49, 49
1, 916, Note_off_c, 0, 48, 50
1, 935, Control_c, 0, 64, 59
1, 981, Note_on_c, 0, 52, 62
1, 996, Note_off_c, 0, 49, 63
1, 1053, Control_c, 0, 64, 59
1, 1142, Control_c, 0, 64, 58
1, 1172, Note_on_c, 0, 53, 64
1, 1232, Control_c, 0, 64, 58
1, 1277, Control_c, 0, 64, 57
1, 1321, Control_c, 0, 64, 57
1, 1336, Control_c, 0, 64, 56
1, 1352, Note_off_c, 0, 52, 56
1, 1366, Control_c, 0, 64, 56
1, 1396, Control_c, 0, 64, 55
1, 1411, Control_c, 0, 64, 55
1, 1447, Control_c, 0, 64, 54
1, 1470, Note_on_c, 0, 56, 56
1, 1477, Control_c, 0, 64, 54
1, 1491, Control_c, 0, 64, 53
1, 1506, Control_c, 0, 64, 53
1, 1521, Control_c, 0, 64, 52
1, 1536, Control_c, 0, 64, 52
1, 1551, Control_c, 0, 64, 51
1, 1566, Control_c, 0, 64, 50
1, 1581, Control_c, 0, 64, 49
1, 1596, Control_c, 0, 64, 47
1, 1610, Control_c, 0, 64, 45
1, 1625, Control_c, 0, 64, 43
1, 1640, Control_c, 0, 64, 42
1, 1655, Control_c, 0, 64, 41
1, 1670, Control_c, 0, 64, 39
1, 1684, Control_c, 0, 64, 35
1, 1699, Control_c, 0, 64, 31
1, 1705, Note_off_c, 0, 53, 38
1, 1714, Control_c, 0, 64, 29
1, 1729, Control_c, 0, 64, 28
1, 1744, Control_c, 0, 64, 28
1, 1758, Control_c, 0, 64, 27
1, 1788, Control_c, 0, 64, 26
1, 1862, Control_c, 0, 64, 27
1, 1876, Control_c, 0, 64, 28
1, 1891, Control_c, 0, 64, 32
1, 1906, Control_c, 0, 64, 35
1, 1921, Control_c, 0, 64, 45
1, 1936, Control_c, 0, 64, 54
1, 1950, Control_c, 0, 64, 58
1, 1965, Control_c, 0, 64, 60
1, 1980, Control_c, 0, 64, 62
1, 1995, Control_c, 0, 64, 63
1, 2010, Control_c, 0, 64, 64
1, 2025, Control_c, 0, 64, 66
1, 2040, Control_c, 0, 64, 68
1, 2055, Control_c, 0, 64, 70
1, 2070, Control_c, 0, 64, 73
1, 2070, Control_c, 0, 67, 125
1, 2085, Control_c, 0, 64, 76
1, 2099, Control_c, 0, 64, 80
1, 2114, Control_c, 0, 64, 85
1, 2129, Control_c, 0, 64, 90
1, 2144, Control_c, 0, 64, 96
1, 2144, Control_c, 0, 67, 125
1, 2159, Control_c, 0, 64, 105
1, 2181, Control_c, 0, 64, 117
1, 2196, Control_c, 0, 64, 127
1, 2196, Control_c, 0, 67, 124
1, 2329, Control_c, 0, 67, 123
1, 2389, Note_off_c, 0, 56, 33
1, 2403, Control_c, 0, 67, 123
1, 2493, Control_c, 0, 67, 122
1, 2610, Note_on_c, 0, 54, 39
1, 2670, Control_c, 0, 67, 121
1, 2729, Control_c, 0, 64, 121
1, 2744, Control_c, 0, 64, 112
1, 2759, Control_c, 0, 64, 109
1, 2770, Note_on_c, 0, 55, 45
1, 2773, Control_c, 0, 64, 105
1, 2788, Control_c, 0, 64, 103
1, 2803, Control_c, 0, 64, 101
1, 2818, Control_c, 0, 64, 99
1, 2833, Control_c, 0, 64, 97
1, 2848, Control_c, 0, 64, 95
1, 2862, Control_c, 0, 64, 93
1, 2878, Control_c, 0, 64, 90
1, 2893, Control_c, 0, 64, 88
1, 2908, Control_c, 0, 64, 86
1, 2928, Note_on_c, 0, 56, 54
1, 2930, Control_c, 0, 64, 84
1, 2931, Note_off_c, 0, 55, 61
1, 2945, Control_c, 0, 64, 83
1, 2960, Control_c, 0, 64, 82
1, 2975, Control_c, 0, 64, 81
1, 2990, Control_c, 0, 64, 80
1, 3004, Control_c, 0, 64, 79
1, 3011, Note_off_c, 0, 54, 35
1, 3019, Control_c, 0, 64, 77
1, 3034, Control_c, 0, 64, 76
1, 3049, Control_c, 0, 64, 75
1, 3063, Control_c, 0, 64, 74
1, 3071, Note_on_c, 0, 57, 66
1, 3078, Control_c, 0, 64, 73
1, 3093, Control_c, 0, 64, 72
1, 3100, Note_off_c, 0, 56, 63
1, 3108, Control_c, 0, 64, 71
1, 3123, Control_c, 0, 64, 70
1, 3137, Control_c, 0, 64, 69
1, 3152, Control_c, 0, 64, 68
1, 3167, Control_c, 0, 64, 67
1, 3182, Control_c, 0, 64, 66
1, 3197, Control_c, 0, 64, 65
1, 3211, Control_c, 0, 64, 65
1, 3226, Control_c, 0, 64, 64
1, 3245, Note_on_c, 0, 58, 69
1, 3256, Control_c, 0, 64, 64
1, 3271, Control_c, 0, 64, 63
1, 3286, Control_c, 0, 64, 63
1, 3301, Control_c, 0, 64, 62
1, 3316, Control_c, 0, 64, 62
1, 3330, Control_c, 0, 64, 61
1, 3345, Control_c, 0, 64, 61
1, 3360, Control_c, 0, 64, 60
1, 3375, Control_c, 0, 64, 59
1, 3390, Control_c, 0, 64, 58
1, 3394, Note_off_c, 0, 57, 40
1, 3404, Control_c, 0, 64, 58
1, 3419, Control_c, 0, 64, 57
1, 3434, Control_c, 0, 64, 57
1, 3448, Control_c, 0, 64, 56
1, 3463, Control_c, 0, 64, 55
1, 3478, Control_c, 0, 64, 54
1, 3493, Control_c, 0, 64, 54
1, 3508, Control_c, 0, 64, 53
1, 3516, Note_on_c, 0, 61, 60
1, 3522, Control_c, 0, 64, 52
1, 3537, Control_c, 0, 64, 51
1, 3552, Control_c, 0, 64, 50
1, 3567, Control_c, 0, 64, 50
1, 3582, Control_c, 0, 64, 49
1, 3596, Control_c, 0, 64, 48
1, 3611, Control_c, 0, 64, 47
1, 3626, Control_c, 0, 64, 46
1, 3640, Control_c, 0, 64, 45
1, 3655, Control_c, 0, 64, 44
1, 3679, Control_c, 0, 64, 42
1, 3694, Control_c, 0, 64, 41
1, 3709, Control_c, 0, 64, 40
1, 3724, Control_c, 0, 64, 40
1, 3739, Control_c, 0, 64, 39
1, 3749, Note_off_c, 0, 58, 39
1, 3753, Control_c, 0, 64, 38
1, 3768, Control_c, 0, 64, 38
1, 3783, Control_c, 0, 64, 37
1, 3798, Control_c, 0, 64, 36
1, 3813, Control_c, 0, 64, 34
1, 3827, Control_c, 0, 64, 33
1, 3842, Control_c, 0, 64, 32
1, 3857, Control_c, 0, 64, 30
1, 3872, Control_c, 0, 64, 28
1, 3886, Control_c, 0, 64, 26
1, 3901, Control_c, 0, 64, 26
1, 3960, Control_c, 0, 64, 26
1, 3975, Control_c, 0, 64, 30
1, 3990, Control_c, 0, 64, 34
1, 4005, Control_c, 0, 64, 40
1, 4020, Control_c, 0, 64, 49
1, 4034, Control_c, 0, 64, 58
1, 4049, Control_c, 0, 64, 62
1, 4064, Control_c, 0, 64, 64
1, 4079, Control_c, 0, 64, 66
1, 4094, Control_c, 0, 64, 69
1, 4108, Control_c, 0, 64, 72
1, 4123, Control_c, 0, 64, 78
1, 4138, Control_c, 0, 64, 84
1, 4153, Control_c, 0, 64, 90
1, 4153, Control_c, 0, 67, 121
1, 4168, Control_c, 0, 64, 98
1, 4183, Control_c, 0, 64, 108
1, 4198, Control_c, 0, 64, 127
1, 4238, Note_off_c, 0, 61, 27
1, 4547, Control_c, 0, 67, 120
1, 4633, Note_on_c, 0, 59, 41
1, 4636, Control_c, 0, 64, 118
1, 4650, Control_c, 0, 64, 112
1, 4665, Control_c, 0, 64, 108
1, 4680, Control_c, 0, 64, 103
1, 4695, Control_c, 0, 64, 100
1, 4709, Control_c, 0, 64, 96
1, 4724, Control_c, 0, 64, 94
1, 4739, Control_c, 0, 64, 91
1, 4754, Control_c, 0, 64, 89
1, 4769, Control_c, 0, 64, 87
1, 4783, Control_c, 0, 64, 85
1, 4798, Control_c, 0, 64, 84
1, 4813, Control_c, 0, 64, 82
1, 4827, Note_on_c, 0, 60, 55
1, 4828, Control_c, 0, 64, 80
1, 4843, Control_c, 0, 64, 79
1, 4857, Control_c, 0, 64, 77
1, 4872, Control_c, 0, 64, 75
1, 4887, Control_c, 0, 64, 72
1, 4901, Control_c, 0, 64, 67
1, 4916, Control_c, 0, 64, 62
1, 4931, Control_c, 0, 64, 55
1, 4946, Control_c, 0, 64, 52
1, 4946, Control_c, 0, 67, 119
1, 4961, Control_c, 0, 64, 56
1, 4970, Note_off_c, 0, 59, 38
1, 4976, Control_c, 0, 64, 59
1, 4976, Control_c, 0, 67, 119
1, 4991, Control_c, 0, 64, 64
1, 4991, Note_on_c, 0, 61, 56
1, 5006, Control_c, 0, 64, 69
1, 5021, Control_c, 0, 64, 75
1, 5036, Control_c, 0, 64, 86
1, 5036, Control_c, 0, 67, 118
1, 5050, Control_c, 0, 64, 107
1, 5050, Control_c, 0, 67, 117
1, 5065, Control_c, 0, 64, 127
1, 5083, Note_off_c, 0, 60, 38
1, 5094, Control_c, 0, 67, 117
1, 5134, Note_on_c, 0, 64, 64
1, 5148, Note_off_c, 0, 61, 58
1, 5259, Note_on_c, 0, 65, 71
1, 5277, Note_off_c, 0, 64, 58
1, 5352, Note_off_c, 0, 65, 57
1, 5355, Control_c, 0, 64, 114
1, 5369, Control_c, 0, 64, 105
1, 5384, Control_c, 0, 64, 98
1, 5390, Note_on_c, 0, 61, 51
1, 5399, Control_c, 0, 64, 92
1, 5407, Note_on_c, 0, 58, 38
1, 5414, Control_c, 0, 64, 88
1, 5429, Control_c, 0, 64, 85
1, 5432, Note_on_c, 0, 65, 34
1, 5444, Control_c, 0, 64, 82
1, 5459, Control_c, 0, 64, 79
1, 5473, Control_c, 0, 64, 76
1, 5478, Note_on_c, 0, 68, 68
1, 5488, Control_c, 0, 64, 71
1, 5503, Control_c, 0, 64, 65
1, 5517, Control_c, 0, 64, 56
1, 5532, Control_c, 0, 64, 48
1, 5547, Control_c, 0, 64, 47
1, 5562, Control_c, 0, 64, 49
1, 5577, Control_c, 0, 64, 52
1, 5592, Control_c, 0, 64, 56
1, 5606, Control_c, 0, 64, 61
1, 5621, Control_c, 0, 64, 65
1, 5623, Note_on_c, 0, 48, 45
1, 5636, Control_c, 0, 64, 69
1, 5647, Note_off_c, 0, 61, 32
1, 5651, Control_c, 0, 64, 75
1, 5653, Note_off_c, 0, 58, 37
1, 5654, Note_off_c, 0, 65, 37
1, 5666, Control_c, 0, 64, 84
1, 5666, Control_c, 0, 67, 116
1, 5680, Control_c, 0, 64, 94
1, 5680, Control_c, 0, 67, 115
1, 5695, Control_c, 0, 64, 103
1, 5710, Control_c, 0, 64, 106
1, 5724, Control_c, 0, 64, 105
1, 5739, Control_c, 0, 64, 103
1, 5754, Control_c, 0, 64, 103
1, 5769, Control_c, 0, 64, 102
1, 5775, Note_on_c, 0, 58, 52
1, 5784, Control_c, 0, 64, 100
1, 5799, Control_c, 0, 64, 98
1, 5814, Control_c, 0, 64, 96
1, 5828, Control_c, 0, 64, 94
1, 5843, Control_c, 0, 64, 91
1, 5858, Control_c, 0, 64, 88
1, 5873, Control_c, 0, 64, 86
1, 5888, Control_c, 0, 64, 84
1, 5903, Control_c, 0, 64, 83
1, 5911, Note_on_c, 0, 61, 45
1, 5924, Control_c, 0, 64, 80
1, 5934, Note_on_c, 0, 64, 47
1, 5939, Control_c, 0, 64, 75
1, 5954, Control_c, 0, 64, 68
1, 5969, Control_c, 0, 64, 60
1, 5984, Control_c, 0, 64, 52
1, 5998, Control_c, 0, 64, 55
1, 6013, Control_c, 0, 64, 58
1, 6028, Control_c, 0, 64, 61
1, 6043, Control_c, 0, 64, 64
1, 6056, Note_off_c, 0, 64, 62
1, 6058, Control_c, 0, 64, 67
1, 6074, Control_c, 0, 64, 72
1, 6079, Note_on_c, 0, 66, 56
1, 6082, Note_off_c, 0, 68, 62
1, 6089, Control_c, 0, 64, 82
1, 6099, Note_off_c, 0, 58, 38
1, 6103, Control_c, 0, 64, 93
1, 6118, Control_c, 0, 64, 111
1, 6133, Control_c, 0, 64, 127
1, 6171, Note_off_c, 0, 48, 27
1, 6188, Note_on_c, 0, 67, 67
1, 6196, Note_off_c, 0, 66, 60
1, 6207, Control_c, 0, 67, 116
1, 6296, Note_off_c, 0, 67, 61
1, 6300, Note_on_c, 0, 68, 76
1, 6326, Control_c, 0, 64, 118
1, 6341, Control_c, 0, 64, 114
1, 6356, Control_c, 0, 64, 110
1, 6371, Control_c, 0, 64, 107
1, 6386, Control_c, 0, 64, 104
1, 6389, Note_off_c, 0, 68, 62
1, 6391, Note_on_c, 0, 69, 79
1, 6401, Control_c, 0, 64, 100
1, 6415, Control_c, 0, 64, 98
1, 6430, Control_c, 0, 64, 96
1, 6445, Control_c, 0, 64, 93
1, 6457, Note_off_c, 0, 61, 33
1, 6460, Control_c, 0, 64, 89
1, 6473, Note_on_c, 0, 70, 78
1, 6474, Control_c, 0, 64, 86
1, 6489, Control_c, 0, 64, 83
1, 6502, Note_off_c, 0, 69, 55
1, 6504, Control_c, 0, 64, 80
1, 6519, Control_c, 0, 64, 78
1, 6534, Control_c, 0, 64, 76
1, 6548, Control_c, 0, 64, 74
1, 6563, Control_c, 0, 64, 73
1, 6578, Control_c, 0, 64, 72
1, 6585, Note_on_c, 0, 58, 34
1, 6593, Control_c, 0, 64, 71
1, 6606, Note_on_c, 0, 73, 79
1, 6608, Control_c, 0, 64, 69
1, 6612, Note_on_c, 0, 68, 48
1, 6622, Control_c, 0, 64, 66
1, 6637, Control_c, 0, 64, 61
1, 6645, Note_off_c, 0, 70, 58
1, 6652, Control_c, 0, 64, 53
1, 6674, Control_c, 0, 64, 44
1, 6676, Note_on_c, 0, 65, 39
1, 6689, Control_c, 0, 64, 40
1, 6705, Note_off_c, 0, 58, 58
1, 6716, Note_on_c, 0, 48, 55
1, 6719, Control_c, 0, 64, 40
1, 6719, Control_c, 0, 67, 115
1, 6734, Control_c, 0, 64, 44
1, 6748, Control_c, 0, 64, 50
1, 6748, Control_c, 0, 67, 115
1, 6763, Control_c, 0, 64, 57
1, 6778, Control_c, 0, 64, 62
1, 6778, Control_c, 0, 67, 114
1, 6784, Note_off_c, 0, 65, 58
1, 6793, Control_c, 0, 64, 66
1, 6793, Control_c, 0, 67, 113
1, 6808, Control_c, 0, 64, 72
1, 6808, Control_c, 0, 67, 113
1, 6810, Note_off_c, 0, 68, 46
1, 6822, Control_c, 0, 64, 84
1, 6824, Note_on_c, 0, 58, 67
1, 6835, Note_off_c, 0, 48, 57
1, 6837, Control_c, 0, 64, 109
1, 6852, Control_c, 0, 64, 127
1, 6860, Poly_aftertouch_c, 0, 51, 127
1, 6896, Poly_aftertouch_c, 0, 51, 0
1, 6897, Control_c, 0, 67, 112
1, 6920, Note_on_c, 0, 64, 72
1, 6932, Note_off_c, 0, 58, 59
1, 6942, Control_c, 0, 67, 111
1, 6949, Note_on_c, 0, 67, 62
1, 6957, Control_c, 0, 67, 111
1, 7013, Note_off_c, 0, 73, 66
1, 7015, Note_off_c, 0, 67, 62
1, 7015, Control_c, 0, 67, 110
1, 7021, Note_off_c, 0, 64, 57
1, 7031, Note_on_c, 0, 71, 74
1, 7074, Control_c, 0, 67, 110
1, 7089, Control_c, 0, 67, 109
1, 7117, Note_off_c, 0, 71, 63
1, 7119, Control_c, 0, 67, 108
1, 7119, Note_on_c, 0, 72, 87
1, 7149, Control_c, 0, 67, 108
1, 7164, Control_c, 0, 67, 106
1, 7178, Control_c, 0, 67, 106
1, 7193, Control_c, 0, 67, 105
1, 7208, Control_c, 0, 67, 104
1, 7211, Note_on_c, 0, 73, 86
1, 7223, Control_c, 0, 67, 102
1, 7237, Control_c, 0, 67, 101
1, 7252, Note_off_c, 0, 72, 57
1, 7252, Control_c, 0, 67, 100
1, 7267, Control_c, 0, 67, 99
1, 7282, Control_c, 0, 67, 97
1, 7293, Note_on_c, 0, 76, 81
1, 7296, Control_c, 0, 67, 95
1, 7311, Control_c, 0, 67, 94
1, 7326, Control_c, 0, 67, 92
1, 7341, Control_c, 0, 64, 111
1, 7341, Control_c, 0, 67, 84
1, 7356, Control_c, 0, 64, 99
1, 7356, Control_c, 0, 67, 73
1, 7370, Control_c, 0, 64, 90
1, 7370, Control_c, 0, 67, 59
1, 7378, Note_on_c, 0, 77, 90
1, 7385, Control_c, 0, 64, 84
1, 7385, Control_c, 0, 67, 48
1, 7396, Note_off_c, 0, 73, 57
1, 7400, Control_c, 0, 64, 80
1, 7400, Control_c, 0, 67, 37
1, 7423, Control_c, 0, 64, 79
1, 7423, Control_c, 0, 67, 27
1, 7438, Control_c, 0, 64, 78
1, 7438, Control_c, 0, 67, 18
1, 7452, Control_c, 0, 64, 77
1, 7452, Control_c, 0, 67, 8
1, 7467, Control_c, 0, 64, 76
1, 7467, Control_c, 0, 67, 0
1, 7479, Note_on_c, 0, 80, 90
1, 7480, Note_off_c, 0, 76, 43
1, 7482, Control_c, 0, 64, 71
1, 7495, Note_on_c, 0, 73, 63
1, 7496, Control_c, 0, 64, 64
1, 7499, Note_on_c, 0, 70, 49
1, 7511, Control_c, 0, 64, 53
1, 7526, Control_c, 0, 64, 38
1, 7541, Control_c, 0, 64, 41
1, 7556, Control_c, 0, 64, 48
1, 7563, Note_off_c, 0, 77, 59
1, 7570, Control_c, 0, 64, 56
1, 7575, Note_off_c, 0, 70, 64
1, 7577, Note_on_c, 0, 60, 73
1, 7585, Control_c, 0, 64, 61
1, 7600, Control_c, 0, 64, 65
1, 7610, Note_off_c, 0, 73, 58
1, 7615, Control_c, 0, 64, 70
1, 7630, Control_c, 0, 64, 79
1, 7644, Control_c, 0, 64, 98
1, 7659, Control_c, 0, 64, 127
1, 7670, Note_on_c, 0, 70, 85
1, 7749, Note_on_c, 0, 76, 82
1, 7750, Note_off_c, 0, 80, 65
1, 7752, Note_off_c, 0, 60, 46
1, 7760, Note_on_c, 0, 73, 82
1, 7819, Note_off_c, 0, 70, 59
1, 7844, Note_on_c, 0, 78, 90
1, 7847, Note_off_c, 0, 76, 62
1, 7930, Note_on_c, 0, 79, 89
1, 7934, Note_off_c, 0, 78, 63
1, 8025, Note_on_c, 0, 80, 93
1, 8044, Note_off_c, 0, 79, 63
1, 8109, Note_off_c, 0, 80, 67
1, 8109, Note_on_c, 0, 81, 92
1, 8195, Note_on_c, 0, 82, 95
1, 8232, Note_off_c, 0, 81, 65
1, 8266, Note_off_c, 0, 73, 61
1, 8297, Note_on_c, 0, 85, 100
1, 8297, Note_on_c, 0, 70, 58
1, 8302, Note_on_c, 0, 80, 69
1, 8316, Note_on_c, 0, 77, 77
1, 8328, Note_off_c, 0, 82, 63
1, 8363, Control_c, 0, 64, 92
1, 8378, Control_c, 0, 64, 70
1, 8392, Control_c, 0, 64, 48
1, 8401, Note_off_c, 0, 70, 64
1, 8402, Note_on_c, 0, 60, 81
1, 8407, Control_c, 0, 64, 0
1, 8422, Control_c, 0, 64, 36
1, 8437, Control_c, 0, 64, 54
1, 8452, Control_c, 0, 64, 64
1, 8468, Control_c, 0, 64, 72
1, 8483, Control_c, 0, 64, 91
1, 8486, Note_off_c, 0, 77, 60
1, 8490, Note_on_c, 0, 70, 90
1, 8497, Control_c, 0, 64, 127
1, 8534, Note_off_c, 0, 60, 63
1, 8568, Note_off_c, 0, 80, 60
1, 8587, Note_on_c, 0, 76, 86
1, 8593, Note_on_c, 0, 79, 84
1, 8617, Note_off_c, 0, 85, 58
1, 8626, Note_off_c, 0, 70, 59
1, 8693, Note_on_c, 0, 83, 95
1, 8716, Note_off_c, 0, 79, 63
1, 8800, Note_on_c, 0, 84, 100
1, 8878, Note_off_c, 0, 83, 56
1, 8935, Note_on_c, 0, 70, 56
1, 8938, Note_on_c, 0, 80, 75
1, 8940, Note_on_c, 0, 85, 94
1, 8949, Note_off_c, 0, 76, 43
1, 8951, Note_on_c, 0, 77, 71
1, 9067, Control_c, 0, 64, 107
1, 9082, Note_on_c, 0, 60, 81
1, 9082, Control_c, 0, 64, 99
1, 9097, Control_c, 0, 64, 94
1, 9109, Note_off_c, 0, 70, 64
1, 9112, Control_c, 0, 64, 90
1, 9124, Note_off_c, 0, 84, 30
1, 9127, Control_c, 0, 64, 87
1, 9141, Control_c, 0, 64, 81
1, 9156, Control_c, 0, 64, 69
1, 9171, Control_c, 0, 64, 55
1, 9186, Control_c, 0, 64, 0
1, 9226, Note_on_c, 0, 70, 86
1, 9230, Control_c, 0, 64, 16
1, 9245, Control_c, 0, 64, 42
1, 9255, Note_off_c, 0, 77, 53
1, 9259, Control_c, 0, 64, 56
1, 9275, Control_c, 0, 64, 63
1, 9290, Control_c, 0, 64, 69
1, 9295, Note_off_c, 0, 60, 58
1, 9305, Control_c, 0, 64, 77
1, 9319, Control_c, 0, 64, 95
1, 9334, Control_c, 0, 64, 127
1, 9425, Note_on_c, 0, 76, 82
1, 9432, Note_on_c, 0, 79, 68
1, 9480, Note_off_c, 0, 85, 55
1, 9532, Note_off_c, 0, 70, 55
1, 9648, Note_off_c, 0, 80, 38
1, 9665, Note_on_c, 0, 84, 85
1, 9727, Control_c, 0, 64, 111
1, 9742, Control_c, 0, 64, 103
1, 9757, Control_c, 0, 64, 98
1, 9771, Control_c, 0, 64, 95
1, 9786, Control_c, 0, 64, 91
1, 9801, Control_c, 0, 64, 88
1, 9816, Control_c, 0, 64, 84
1, 9831, Note_off_c, 0, 79, 53
1, 9831, Control_c, 0, 64, 81
1, 9833, Note_on_c, 0, 69, 48
1, 9838, Note_on_c, 0, 75, 59
1, 9845, Control_c, 0, 64, 79
1, 9847, Note_on_c, 0, 83, 77
1, 9860, Control_c, 0, 64, 77
1, 9865, Note_on_c, 0, 78, 55
1, 9874, Note_off_c, 0, 76, 60
1, 9875, Control_c, 0, 64, 76
1, 9889, Control_c, 0, 64, 74
1, 9904, Control_c, 0, 64, 69
1, 9919, Control_c, 0, 64, 63
1, 9934, Control_c, 0, 64, 53
1, 9938, Note_off_c, 0, 84, 53
1, 9949, Control_c, 0, 64, 48
1, 9963, Control_c, 0, 64, 51
1, 9978, Control_c, 0, 64, 54
1, 9982, Note_off_c, 0, 69, 50
1, 9993, Control_c, 0, 64, 59
1, 9997, Note_on_c, 0, 70, 54
1, 10009, Note_on_c, 0, 77, 58
1, 10009, Control_c, 0, 64, 63
1, 10018, Note_on_c, 0, 74, 48
1, 10024, Control_c, 0, 64, 66
1, 10038, Control_c, 0, 64, 71
1, 10053, Control_c, 0, 64, 78
1, 10063, Note_off_c, 0, 75, 55
1, 10069, Control_c, 0, 64, 90
1, 10084, Control_c, 0, 64, 111
1, 10094, Note_on_c, 0, 82, 71
1, 10099, Control_c, 0, 64, 127
1, 10119, Note_off_c, 0, 77, 61
1, 10127, Note_off_c, 0, 83, 63
1, 10145, Note_off_c, 0, 78, 62
1, 10157, Note_off_c, 0, 82, 64
1, 10169, Note_off_c, 0, 70, 48
1, 10191, Note_off_c, 0, 74, 57
1, 10213, Note_on_c, 0, 67, 49
1, 10216, Note_on_c, 0, 81, 74
1, 10224, Note_on_c, 0, 73, 49
1, 10232, Control_c, 0, 64, 116
1, 10245, Note_on_c, 0, 76, 40
1, 10247, Control_c, 0, 64, 112
1, 10261, Control_c, 0, 64, 111
1, 10276, Control_c, 0, 64, 107
1, 10283, Note_off_c, 0, 76, 48
1, 10291, Control_c, 0, 64, 96
1, 10306, Control_c, 0, 64, 79
1, 10321, Control_c, 0, 64, 65
1, 10324, Note_on_c, 0, 75, 68
1, 10327, Note_off_c, 0, 67, 59
1, 10336, Control_c, 0, 64, 50
1, 10351, Control_c, 0, 64, 53
1, 10353, Note_on_c, 0, 68, 49
1, 10365, Control_c, 0, 64, 61
1, 10380, Note_on_c, 0, 72, 40
1, 10380, Note_off_c, 0, 73, 50
1, 10380, Control_c, 0, 64, 66
1, 10395, Control_c, 0, 64, 73
1, 10417, Control_c, 0, 64, 90
1, 10422, Note_on_c, 0, 80, 68
1, 10426, Note_off_c, 0, 72, 51
1, 10432, Control_c, 0, 64, 127
1, 10434, Note_off_c, 0, 81, 62
1, 10454, Note_off_c, 0, 75, 61
1, 10483, Note_off_c, 0, 80, 64
1, 10512, Note_on_c, 0, 79, 79
1, 10515, Note_off_c, 0, 68, 47
1, 10526, Note_on_c, 0, 74, 61
1, 10535, Note_on_c, 0, 65, 46
1, 10540, Note_on_c, 0, 71, 44
1, 10562, Note_off_c, 0, 74, 61
1, 10600, Note_off_c, 0, 65, 61
1, 10627, Note_on_c, 0, 73, 73
1, 10649, Note_on_c, 0, 66, 43
1, 10653, Note_off_c, 0, 71, 56
1, 10665, Note_on_c, 0, 70, 47
1, 10726, Note_on_c, 0, 78, 79
1, 10754, Note_off_c, 0, 79, 64
1, 10758, Control_c, 0, 64, 119
1, 10769, Note_off_c, 0, 73, 61
1, 10773, Control_c, 0, 64, 113
1, 10786, Note_off_c, 0, 66, 59
1, 10787, Control_c, 0, 64, 109
1, 10802, Control_c, 0, 64, 107
1, 10810, Note_off_c, 0, 78, 66
1, 10817, Control_c, 0, 64, 105
1, 10832, Control_c, 0, 64, 103
1, 10834, Note_on_c, 0, 77, 83
1, 10835, Note_on_c, 0, 63, 50
1, 10838, Note_off_c, 0, 70, 43
1, 10840, Note_on_c, 0, 69, 48
1, 10845, Note_on_c, 0, 72, 61
1, 10847, Control_c, 0, 64, 100
1, 10863, Control_c, 0, 64, 97
1, 10878, Control_c, 0, 64, 94
1, 10887, Note_off_c, 0, 72, 62
1, 10892, Control_c, 0, 64, 91
1, 10907, Control_c, 0, 64, 90
1, 10922, Control_c, 0, 64, 88
1, 10935, Note_off_c, 0, 63, 49
1, 10936, Control_c, 0, 64, 85
1, 10951, Control_c, 0, 64, 82
1, 10966, Control_c, 0, 64, 79
1, 10969, Note_on_c, 0, 71, 63
1, 10974, Note_on_c, 0, 64, 37
1, 10981, Control_c, 0, 64, 76
1, 10985, Note_on_c, 0, 68, 40
1, 10996, Control_c, 0, 64, 73
1, 11010, Control_c, 0, 64, 71
1, 11025, Control_c, 0, 64, 69
1, 11030, Note_off_c, 0, 69, 35
1, 11040, Control_c, 0, 64, 68
1, 11055, Control_c, 0, 64, 67
1, 11070, Control_c, 0, 64, 66
1, 11078, Note_on_c, 0, 76, 70
1, 11084, Control_c, 0, 64, 65
1, 11099, Control_c, 0, 64, 64
1, 11114, Control_c, 0, 64, 64
1, 11129, Control_c, 0, 64, 63
1, 11143, Control_c, 0, 64, 63
1, 11166, Control_c, 0, 64, 62
1, 11171, Note_off_c, 0, 64, 54
1, 11181, Control_c, 0, 64, 61
1, 11196, Control_c, 0, 64, 60
1, 11203, Note_off_c, 0, 71, 51
1, 11211, Control_c, 0, 64, 59
1, 11212, Note_on_c, 0, 61, 45
1, 11222, Note_off_c, 0, 77, 53
1, 11225, Control_c, 0, 64, 58
1, 11227, Note_on_c, 0, 67, 40
1, 11228, Note_off_c, 0, 68, 53
1, 11233, Note_on_c, 0, 75, 67
1, 11240, Control_c, 0, 64, 57
1, 11254, Note_on_c, 0, 70, 34
1, 11255, Control_c, 0, 64, 56
1, 11270, Control_c, 0, 64, 55
1, 11285, Control_c, 0, 64, 54
1, 11299, Control_c, 0, 64, 53
1, 11314, Control_c, 0, 64, 52
1, 11327, Note_off_c, 0, 76, 57
1, 11329, Control_c, 0, 64, 51
1, 11343, Control_c, 0, 64, 50
1, 11373, Control_c, 0, 64, 49
1, 11385, Note_on_c, 0, 69, 52
1, 11388, Control_c, 0, 64, 48
1, 11393, Note_on_c, 0, 62, 38
1, 11403, Control_c, 0, 64, 47
1, 11407, Note_on_c, 0, 66, 33
1, 11418, Control_c, 0, 64, 46
1, 11427, Note_off_c, 0, 61, 33
1, 11433, Note_off_c, 0, 70, 43
1, 11433, Control_c, 0, 64, 46
1, 11447, Control_c, 0, 64, 45
1, 11477, Control_c, 0, 64, 44
1, 11492, Control_c, 0, 64, 44
1, 11507, Control_c, 0, 64, 43
1, 11522, Control_c, 0, 64, 42
1, 11527, Note_off_c, 0, 67, 37
1, 11536, Control_c, 0, 64, 41
1, 11539, Note_on_c, 0, 74, 55
1, 11551, Control_c, 0, 64, 40
1, 11581, Control_c, 0, 64, 40
1, 11582, Note_off_c, 0, 75, 62
1, 11596, Control_c, 0, 64, 39
1, 11610, Control_c, 0, 64, 39
1, 11625, Control_c, 0, 64, 38
1, 11640, Control_c, 0, 64, 38
1, 11707, Note_off_c, 0, 62, 43
1, 11715, Note_on_c, 0, 59, 38
1, 11715, Control_c, 0, 64, 37
1, 11726, Note_off_c, 0, 69, 38
1, 11730, Control_c, 0, 64, 36
1, 11731, Note_on_c, 0, 65, 35
1, 11731, Note_on_c, 0, 68, 37
1, 11733, Note_on_c, 0, 73, 47
1, 11745, Control_c, 0, 64, 36
1, 11759, Control_c, 0, 64, 34
1, 11774, Control_c, 0, 64, 33
1, 11777, Note_off_c, 0, 66, 46
1, 11789, Control_c, 0, 64, 31
1, 11804, Control_c, 0, 64, 29
1, 11819, Control_c, 0, 64, 26
1, 11833, Control_c, 0, 64, 24
1, 11848, Control_c, 0, 64, 20
1, 11863, Control_c, 0, 64, 17
1, 11878, Control_c, 0, 64, 15
1, 11893, Control_c, 0, 64, 10
1, 11915, Control_c, 0, 64, 8
1, 11921, Note_off_c, 0, 74, 31
1, 11930, Control_c, 0, 64, 0
1, 11942, Note_on_c, 0, 60, 38
1, 11948, Note_on_c, 0, 67, 36
1, 11950, Note_off_c, 0, 68, 41
1, 11973, Note_on_c, 0, 64, 34
1, 12003, Note_off_c, 0, 59, 31
1, 12092, Control_c, 0, 64, 8
1, 12107, Control_c, 0, 64, 17
1, 12111, Note_off_c, 0, 65, 39
1, 12122, Control_c, 0, 64, 24
1, 12137, Note_on_c, 0, 71, 53
1, 12137, Control_c, 0, 64, 31
1, 12152, Control_c, 0, 64, 38
1, 12166, Control_c, 0, 64, 45
1, 12181, Control_c, 0, 64, 51
1, 12196, Control_c, 0, 64, 56
1, 12211, Note_off_c, 0, 73, 51
1, 12211, Control_c, 0, 64, 61
1, 12226, Control_c, 0, 64, 64
1, 12240, Control_c, 0, 64, 67
1, 12255, Control_c, 0, 64, 70
1, 12270, Control_c, 0, 64, 75
1, 12279, Note_off_c, 0, 60, 36
1, 12285, Control_c, 0, 64, 82
1, 12289, Note_on_c, 0, 72, 63
1, 12300, Control_c, 0, 64, 90
1, 12304, Note_off_c, 0, 64, 36
1, 12315, Control_c, 0, 64, 97
1, 12330, Control_c, 0, 64, 98
1, 12345, Control_c, 0, 64, 97
1, 12359, Control_c, 0, 64, 96
1, 12365, Note_off_c, 0, 71, 52
1, 12372, Note_off_c, 0, 67, 36
1, 12374, Control_c, 0, 64, 95
1, 12389, Control_c, 0, 64, 94
1, 12404, Control_c, 0, 64, 93
1, 12419, Control_c, 0, 64, 92
1, 12433, Control_c, 0, 64, 90
1, 12441, Note_on_c, 0, 73, 70
1, 12448, Control_c, 0, 64, 88
1, 12464, Control_c, 0, 64, 86
1, 12479, Control_c, 0, 64, 83
1, 12494, Control_c, 0, 64, 81
1, 12505, Note_off_c, 0, 72, 54
1, 12509, Control_c, 0, 64, 78
1, 12524, Control_c, 0, 64, 75
1, 12538, Control_c, 0, 64, 74
1, 12553, Control_c, 0, 64, 72
1, 12568, Control_c, 0, 64, 71
1, 12582, Control_c, 0, 64, 70
1, 12597, Control_c, 0, 64, 68
1, 12612, Note_on_c, 0, 71, 73
1, 12612, Control_c, 0, 64, 68
1, 12627, Control_c, 0, 64, 67
1, 12642, Control_c, 0, 64, 67
1, 12664, Control_c, 0, 64, 66
1, 12679, Control_c, 0, 64, 66
1, 12693, Control_c, 0, 64, 65
1, 12708, Control_c, 0, 64, 64
1, 12723, Control_c, 0, 64, 64
1, 12738, Control_c, 0, 64, 63
1, 12738, Note_off_c, 0, 73, 59
1, 12753, Control_c, 0, 64, 63
1, 12783, Control_c, 0, 64, 62
1, 12797, Control_c, 0, 64, 62
1, 12819, Note_on_c, 0, 72, 65
1, 12827, Control_c, 0, 64, 61
1, 12842, Control_c, 0, 64, 61
1, 12871, Control_c, 0, 64, 60
1, 12886, Control_c, 0, 64, 60
1, 12901, Control_c, 0, 64, 59
1, 12915, Control_c, 0, 64, 59
1, 12930, Control_c, 0, 64, 58
1, 12945, Control_c, 0, 64, 57
1, 12954, Note_off_c, 0, 71, 54
1, 12975, Control_c, 0, 64, 56
1, 13004, Control_c, 0, 64, 55
1, 13018, Control_c, 0, 64, 55
1, 13033, Control_c, 0, 64, 54
1, 13056, Note_on_c, 0, 67, 32
1, 13057, Note_on_c, 0, 73, 51
1, 13063, Control_c, 0, 64, 54
1, 13063, Note_on_c, 0, 58, 34
1, 13070, Note_on_c, 0, 64, 22
1, 13078, Control_c, 0, 64, 53
1, 13093, Control_c, 0, 64, 53
1, 13107, Control_c, 0, 64, 52
1, 13122, Control_c, 0, 64, 51
1, 13137, Control_c, 0, 64, 51
1, 13152, Control_c, 0, 64, 50
1, 13160, Note_off_c, 0, 72, 52
1, 13167, Control_c, 0, 64, 50
1, 13181, Control_c, 0, 64, 49
1, 13196, Control_c, 0, 64, 48
1, 13211, Control_c, 0, 64, 47
1, 13226, Control_c, 0, 64, 46
1, 13257, Control_c, 0, 64, 45
1, 13272, Control_c, 0, 64, 44
1, 13286, Control_c, 0, 64, 43
1, 13301, Control_c, 0, 64, 42
1, 13316, Control_c, 0, 64, 40
1, 13330, Control_c, 0, 64, 39
1, 13343, Note_on_c, 0, 71, 50
1, 13345, Control_c, 0, 64, 37
1, 13360, Control_c, 0, 64, 36
1, 13390, Control_c, 0, 64, 35
1, 13412, Control_c, 0, 64, 34
1, 13427, Control_c, 0, 64, 32
1, 13442, Control_c, 0, 64, 30
1, 13457, Control_c, 0, 64, 28
1, 13472, Control_c, 0, 64, 26
1, 13486, Control_c, 0, 64, 25
1, 13501, Control_c, 0, 64, 23
1, 13516, Control_c, 0, 64, 20
1, 13531, Control_c, 0, 64, 17
1, 13544, Note_off_c, 0, 73, 38
1, 13545, Control_c, 0, 64, 14
1, 13560, Control_c, 0, 64, 10
1, 13575, Control_c, 0, 64, 0
1, 13651, Note_on_c, 0, 72, 44
1, 13732, Note_off_c, 0, 71, 59
1, 13768, Control_c, 0, 64, 18
1, 13783, Control_c, 0, 64, 36
1, 13798, Control_c, 0, 64, 50
1, 13812, Control_c, 0, 64, 61
1, 13827, Control_c, 0, 64, 66
1, 13842, Control_c, 0, 64, 71
1, 13843, Note_off_c, 0, 72, 65
1, 13857, Control_c, 0, 64, 78
1, 13872, Control_c, 0, 64, 90
1, 13886, Control_c, 0, 64, 105
1, 13901, Control_c, 0, 64, 116
1, 13916, Control_c, 0, 64, 115
1, 13931, Control_c, 0, 64, 111
1, 13945, Control_c, 0, 64, 109
1, 13960, Control_c, 0, 64, 108
1, 13975, Control_c, 0, 64, 108
1, 13990, Control_c, 0, 64, 107
1, 14002, Note_on_c, 0, 72, 37
1, 14005, Control_c, 0, 64, 105
1, 14020, Control_c, 0, 64, 103
1, 14035, Control_c, 0, 64, 102
1, 14050, Control_c, 0, 64, 100
1, 14065, Control_c, 0, 64, 98
1, 14080, Control_c, 0, 64, 96
1, 14088, Note_on_c, 0, 75, 47
1, 14095, Control_c, 0, 64, 93
1, 14109, Control_c, 0, 64, 92
1, 14124, Control_c, 0, 64, 90
1, 14139, Control_c, 0, 64, 88
1, 14161, Control_c, 0, 64, 86
1, 14176, Control_c, 0, 64, 83
1, 14177, Note_on_c, 0, 73, 45
1, 14191, Control_c, 0, 64, 81
1, 14206, Control_c, 0, 64, 79
1, 14221, Control_c, 0, 64, 77
1, 14235, Control_c, 0, 64, 76
1, 14250, Control_c, 0, 64, 74
1, 14265, Control_c, 0, 64, 73
1, 14280, Control_c, 0, 64, 72
1, 14295, Control_c, 0, 64, 70
1, 14309, Control_c, 0, 64, 70
1, 14324, Control_c, 0, 64, 69
1, 14339, Control_c, 0, 64, 68
1, 14340, Note_off_c, 0, 72, 41
1, 14348, Note_off_c, 0, 75, 33
1, 14354, Control_c, 0, 64, 67
1, 14369, Control_c, 0, 64, 66
1, 14384, Control_c, 0, 64, 65
1, 14399, Control_c, 0, 64, 65
1, 14413, Control_c, 0, 64, 64
1, 14428, Control_c, 0, 64, 64
1, 14443, Control_c, 0, 64, 63
1, 14458, Control_c, 0, 64, 63
1, 14473, Control_c, 0, 64, 62
1, 14488, Control_c, 0, 64, 61
1, 14503, Control_c, 0, 64, 61
1, 14517, Control_c, 0, 64, 60
1, 14532, Control_c, 0, 64, 59
1, 14547, Control_c, 0, 64, 58
1, 14561, Control_c, 0, 64, 57
1, 14576, Control_c, 0, 64, 56
1, 14591, Control_c, 0, 64, 56
1, 14606, Control_c, 0, 64, 55
1, 14621, Control_c, 0, 64, 55
1, 14635, Control_c, 0, 64, 54
1, 14650, Control_c, 0, 64, 53
1, 14665, Control_c, 0, 64, 52
1, 14685, Note_on_c, 0, 71, 45
1, 14695, Control_c, 0, 64, 52
1, 14709, Control_c, 0, 64, 51
1, 14724, Control_c, 0, 64, 51
1, 14739, Control_c, 0, 64, 50
1, 14768, Control_c, 0, 64, 49
1, 14783, Control_c, 0, 64, 49
1, 14798, Control_c, 0, 64, 48
1, 14813, Control_c, 0, 64, 48
1, 14828, Control_c, 0, 64, 47
1, 14843, Control_c, 0, 64, 47
1, 14858, Control_c, 0, 64, 46
1, 14888, Control_c, 0, 64, 45
1, 14911, Control_c, 0, 64, 44
1, 14926, Control_c, 0, 64, 42
1, 14940, Control_c, 0, 64, 41
1, 14955, Control_c, 0, 64, 40
1, 14970, Control_c, 0, 64, 39
1, 14984, Control_c, 0, 64, 38
1, 14999, Control_c, 0, 64, 37
1, 15014, Control_c, 0, 64, 36
1, 15024, Note_off_c, 0, 73, 33
1, 15029, Control_c, 0, 64, 34
1, 15044, Control_c, 0, 64, 33
1, 15058, Control_c, 0, 64, 33
1, 15073, Control_c, 0, 64, 32
1, 15088, Control_c, 0, 64, 31
1, 15103, Control_c, 0, 64, 31
1, 15191, Control_c, 0, 64, 32
1, 15206, Control_c, 0, 64, 35
1, 15221, Control_c, 0, 64, 41
1, 15236, Control_c, 0, 64, 49
1, 15251, Control_c, 0, 64, 55
1, 15266, Control_c, 0, 64, 59
1, 15281, Control_c, 0, 64, 62
1, 15296, Control_c, 0, 64, 66
1, 15310, Control_c, 0, 64, 69
1, 15323, Note_off_c, 0, 67, 36
1, 15325, Control_c, 0, 64, 75
1, 15340, Control_c, 0, 64, 81
1, 15344, Note_off_c, 0, 64, 37
1, 15353, Note_off_c, 0, 58, 37
1, 15355, Control_c, 0, 64, 85
1, 15370, Control_c, 0, 64, 86
1, 15384, Control_c, 0, 64, 85
1, 15399, Control_c, 0, 64, 84
1, 15414, Control_c, 0, 64, 83
1, 15429, Control_c, 0, 64, 83
1, 15444, Control_c, 0, 64, 82
1, 15458, Control_c, 0, 64, 81
1, 15473, Control_c, 0, 64, 79
1, 15488, Control_c, 0, 64, 77
1, 15502, Control_c, 0, 64, 75
1, 15517, Control_c, 0, 64, 72
1, 15532, Control_c, 0, 64, 70
1, 15547, Control_c, 0, 64, 68
1, 15562, Control_c, 0, 64, 67
1, 15576, Control_c, 0, 64, 66
1, 15591, Control_c, 0, 64, 66
1, 15606, Control_c, 0, 64, 65
1, 15621, Control_c, 0, 64, 65
1, 15636, Control_c, 0, 64, 64
1, 15659, Control_c, 0, 64, 64
1, 15674, Control_c, 0, 64, 63
1, 15689, Control_c, 0, 64, 63
1, 15719, Control_c, 0, 64, 62
1, 15733, Control_c, 0, 64, 62
1, 15748, Control_c, 0, 64, 61
1, 15763, Control_c, 0, 64, 61
1, 15778, Control_c, 0, 64, 60
1, 15807, Control_c, 0, 64, 60
1, 15837, Control_c, 0, 64, 59
1, 15852, Control_c, 0, 64, 59
1, 15858, Note_on_c, 0, 72, 41
1, 15867, Control_c, 0, 64, 58
1, 15881, Control_c, 0, 64, 57
1, 15896, Control_c, 0, 64, 57
1, 15911, Control_c, 0, 64, 55
1, 15926, Control_c, 0, 64, 53
1, 15940, Control_c, 0, 64, 51
1, 15955, Control_c, 0, 64, 49
1, 15970, Control_c, 0, 64, 48
1, 15985, Control_c, 0, 64, 47
1, 16044, Control_c, 0, 64, 47
1, 16059, Control_c, 0, 64, 49
1, 16074, Control_c, 0, 64, 51
1, 16089, Control_c, 0, 64, 53
1, 16104, Control_c, 0, 64, 56
1, 16119, Control_c, 0, 64, 58
1, 16125, Note_off_c, 0, 71, 58
1, 16133, Control_c, 0, 64, 59
1, 16148, Control_c, 0, 64, 61
1, 16163, Control_c, 0, 64, 63
1, 16178, Control_c, 0, 64, 64
1, 16193, Control_c, 0, 64, 66
1, 16207, Control_c, 0, 64, 69
1, 16222, Control_c, 0, 64, 72
1, 16237, Control_c, 0, 64, 79
1, 16252, Control_c, 0, 64, 85
1, 16267, Control_c, 0, 64, 91
1, 16281, Control_c, 0, 64, 95
1, 16296, Control_c, 0, 64, 97
1, 16311, Control_c, 0, 64, 98
1, 16312, Note_off_c, 0, 72, 38
1, 16385, Control_c, 0, 64, 97
1, 16407, Control_c, 0, 64, 97
1, 16422, Control_c, 0, 64, 96
1, 16452, Control_c, 0, 64, 95
1, 16467, Control_c, 0, 64, 95
1, 16482, Control_c, 0, 64, 94
1, 16497, Control_c, 0, 64, 93
1, 16512, Control_c, 0, 64, 92
1, 16527, Control_c, 0, 64, 92
1, 16542, Control_c, 0, 64, 91
1, 16556, Control_c, 0, 64, 90
1, 16563, Note_on_c, 0, 72, 39
1, 16565, Note_on_c, 0, 56, 35
1, 16571, Control_c, 0, 64, 89
1, 16586, Control_c, 0, 64, 88
1, 16601, Control_c, 0, 64, 86
1, 16616, Control_c, 0, 64, 84
1, 16630, Control_c, 0, 64, 83
1, 16645, Control_c, 0, 64, 81
1, 16660, Control_c, 0, 64, 78
1, 16675, Control_c, 0, 64, 76
1, 16690, Control_c, 0, 64, 73
1, 16704, Control_c, 0, 64, 67
1, 16719, Control_c, 0, 64, 63
1, 16734, Control_c, 0, 64, 57
1, 16749, Control_c, 0, 64, 56
1, 16763, Control_c, 0, 64, 57
1, 16778, Control_c, 0, 64, 58
1, 16793, Control_c, 0, 64, 60
1, 16808, Control_c, 0, 64, 62
1, 16823, Control_c, 0, 64, 63
1, 16837, Control_c, 0, 64, 64
1, 16852, Control_c, 0, 64, 66
1, 16867, Control_c, 0, 64, 69
1, 16882, Control_c, 0, 64, 73
1, 16897, Control_c, 0, 64, 79
1, 16911, Control_c, 0, 64, 85
1, 16914, Note_on_c, 0, 76, 45
1, 16926, Control_c, 0, 64, 91
1, 16931, Note_on_c, 0, 65, 27
1, 16941, Control_c, 0, 64, 95
1, 16956, Control_c, 0, 64, 96
1, 17101, Note_off_c, 0, 56, 36
1, 17117, Note_on_c, 0, 60, 35
1, 17117, Note_on_c, 0, 77, 62
1, 17119, Control_c, 0, 64, 96
1, 17156, Note_off_c, 0, 76, 53
1, 17171, Control_c, 0, 64, 95
1, 17201, Control_c, 0, 64, 95
1, 17216, Control_c, 0, 64, 94
1, 17230, Control_c, 0, 64, 93
1, 17233, Note_off_c, 0, 65, 40
1, 17245, Control_c, 0, 64, 93
1, 17260, Control_c, 0, 64, 92
1, 17275, Control_c, 0, 64, 91
1, 17290, Control_c, 0, 64, 90
1, 17305, Control_c, 0, 64, 88
1, 17311, Note_on_c, 0, 55, 36
1, 17320, Control_c, 0, 64, 87
1, 17333, Note_off_c, 0, 72, 41
1, 17334, Note_on_c, 0, 75, 62
1, 17335, Control_c, 0, 64, 85
1, 17350, Control_c, 0, 64, 83
1, 17365, Control_c, 0, 64, 80
1, 17379, Control_c, 0, 64, 74
1, 17394, Note_off_c, 0, 60, 40
1, 17394, Control_c, 0, 64, 67
1, 17409, Control_c, 0, 64, 61
1, 17424, Control_c, 0, 64, 59
1, 17436, Note_off_c, 0, 77, 49
1, 17439, Control_c, 0, 64, 61
1, 17453, Control_c, 0, 64, 63
1, 17468, Control_c, 0, 64, 64
1, 17483, Control_c, 0, 64, 67
1, 17498, Control_c, 0, 64, 70
1, 17501, Note_on_c, 0, 69, 69
1, 17513, Control_c, 0, 64, 74
1, 17523, Note_on_c, 0, 63, 30
1, 17527, Control_c, 0, 64, 82
1, 17542, Control_c, 0, 64, 95
1, 17557, Control_c, 0, 64, 108
1, 17572, Control_c, 0, 64, 113
1, 17586, Control_c, 0, 64, 111
1, 17599, Note_off_c, 0, 55, 41
1, 17601, Control_c, 0, 64, 109
1, 17631, Control_c, 0, 64, 108
1, 17646, Control_c, 0, 64, 106
1, 17657, Note_on_c, 0, 70, 75
1, 17660, Control_c, 0, 64, 104
1, 17662, Note_on_c, 0, 58, 38
1, 17675, Control_c, 0, 64, 103
1, 17688, Note_off_c, 0, 75, 59
1, 17690, Control_c, 0, 64, 100
1, 17705, Control_c, 0, 64, 98
1, 17720, Control_c, 0, 64, 94
1, 17734, Control_c, 0, 64, 92
1, 17746, Note_off_c, 0, 69, 52
1, 17749, Control_c, 0, 64, 89
1, 17764, Control_c, 0, 64, 87
1, 17779, Control_c, 0, 64, 84
1, 17794, Control_c, 0, 64, 82
1, 17809, Control_c, 0, 64, 79
1, 17824, Control_c, 0, 64, 77
1, 17833, Note_off_c, 0, 63, 33
1, 17839, Control_c, 0, 64, 74
1, 17853, Control_c, 0, 64, 73
1, 17853, Note_on_c, 0, 53, 36
1, 17856, Note_on_c, 0, 73, 69
1, 17868, Control_c, 0, 64, 71
1, 17883, Control_c, 0, 64, 70
1, 17904, Control_c, 0, 64, 69
1, 17916, Note_off_c, 0, 58, 27
1, 17919, Control_c, 0, 64, 66
1, 17934, Control_c, 0, 64, 64
1, 17949, Control_c, 0, 64, 61
1, 17954, Note_off_c, 0, 70, 57
1, 17964, Control_c, 0, 64, 58
1, 17979, Control_c, 0, 64, 55
1, 17994, Control_c, 0, 64, 52
1, 18008, Control_c, 0, 64, 50
1, 18023, Control_c, 0, 64, 50
1, 18054, Control_c, 0, 64, 51
1, 18065, Note_on_c, 0, 61, 31
1, 18069, Control_c, 0, 64, 53
1, 18083, Control_c, 0, 64, 57
1, 18098, Control_c, 0, 64, 62
1, 18113, Control_c, 0, 64, 64
1, 18128, Control_c, 0, 64, 67
1, 18143, Control_c, 0, 64, 72
1, 18157, Control_c, 0, 64, 78
1, 18172, Control_c, 0, 64, 85
1, 18187, Control_c, 0, 64, 92
1, 18202, Control_c, 0, 64, 93
1, 18214, Note_on_c, 0, 56, 39
1, 18217, Control_c, 0, 64, 92
1, 18232, Control_c, 0, 64, 91
1, 18246, Control_c, 0, 64, 91
1, 18261, Control_c, 0, 64, 90
1, 18275, Control_c, 0, 64, 89
1, 18290, Control_c, 0, 64, 88
1, 18305, Control_c, 0, 64, 86
1, 18320, Control_c, 0, 64, 85
1, 18335, Control_c, 0, 64, 83
1, 18349, Control_c, 0, 64, 81
1, 18364, Control_c, 0, 64, 79
1, 18374, Note_on_c, 0, 52, 37
1, 18379, Control_c, 0, 64, 77
1, 18394, Control_c, 0, 64, 76
1, 18408, Control_c, 0, 64, 74
1, 18423, Control_c, 0, 64, 71
1, 18438, Control_c, 0, 64, 67
1, 18453, Control_c, 0, 64, 62
1, 18462, Note_off_c, 0, 53, 28
1, 18468, Control_c, 0, 64, 53
1, 18482, Control_c, 0, 64, 49
1, 18538, Note_off_c, 0, 61, 41
1, 18557, Control_c, 0, 64, 50
1, 18572, Control_c, 0, 64, 53
1, 18575, Note_on_c, 0, 72, 53
1, 18579, Note_on_c, 0, 60, 33
1, 18587, Control_c, 0, 64, 58
1, 18601, Control_c, 0, 64, 62
1, 18616, Control_c, 0, 64, 65
1, 18631, Control_c, 0, 64, 67
1, 18646, Control_c, 0, 64, 71
1, 18668, Control_c, 0, 64, 79
1, 18672, Note_off_c, 0, 73, 40
1, 18682, Control_c, 0, 64, 89
1, 18685, Note_off_c, 0, 52, 51
1, 18697, Control_c, 0, 64, 99
1, 18712, Control_c, 0, 64, 105
1, 18727, Control_c, 0, 64, 105
1, 18742, Control_c, 0, 64, 103
1, 18745, Note_off_c, 0, 56, 19
1, 18750, Note_on_c, 0, 71, 64
1, 18751, Note_on_c, 0, 55, 40
1, 18757, Control_c, 0, 64, 101
1, 18757, Note_off_c, 0, 72, 60
1, 18772, Control_c, 0, 64, 100
1, 18786, Control_c, 0, 64, 99
1, 18801, Control_c, 0, 64, 97
1, 18816, Control_c, 0, 64, 95
1, 18831, Control_c, 0, 64, 92
1, 18846, Control_c, 0, 64, 89
1, 18861, Control_c, 0, 64, 87
1, 18876, Note_off_c, 0, 71, 54
1, 18876, Control_c, 0, 64, 85
1, 18891, Control_c, 0, 64, 82
1, 18893, Note_off_c, 0, 60, 38
1, 18906, Control_c, 0, 64, 81
1, 18917, Note_on_c, 0, 51, 45
1, 18921, Note_on_c, 0, 72, 53
1, 18921, Control_c, 0, 64, 80
1, 18936, Control_c, 0, 64, 79
1, 18950, Control_c, 0, 64, 78
1, 18965, Control_c, 0, 64, 77
1, 18968, Note_off_c, 0, 55, 27
1, 18980, Control_c, 0, 64, 74
1, 18995, Control_c, 0, 64, 71
1, 19010, Control_c, 0, 64, 67
1, 19024, Control_c, 0, 64, 61
1, 19039, Control_c, 0, 64, 54
1, 19054, Control_c, 0, 64, 49
1, 19069, Control_c, 0, 64, 48
1, 19098, Control_c, 0, 64, 49
1, 19113, Control_c, 0, 64, 51
1, 19126, Note_on_c, 0, 66, 41
1, 19128, Control_c, 0, 64, 55
1, 19140, Note_on_c, 0, 60, 27
1, 19143, Control_c, 0, 64, 59
1, 19157, Control_c, 0, 64, 63
1, 19172, Control_c, 0, 64, 65
1, 19187, Control_c, 0, 64, 68
1, 19202, Control_c, 0, 64, 73
1, 19217, Control_c, 0, 64, 82
1, 19222, Note_off_c, 0, 51, 49
1, 19231, Control_c, 0, 64, 93
1, 19234, Note_off_c, 0, 66, 54
1, 19246, Control_c, 0, 64, 105
1, 19249, Note_off_c, 0, 72, 35
1, 19253, Note_on_c, 0, 65, 51
1, 19261, Control_c, 0, 64, 110
1, 19276, Control_c, 0, 64, 110
1, 19290, Control_c, 0, 64, 107
1, 19295, Note_on_c, 0, 57, 34
1, 19305, Control_c, 0, 64, 105
1, 19320, Control_c, 0, 64, 104
1, 19334, Note_off_c, 0, 65, 51
1, 19335, Control_c, 0, 64, 102
1, 19350, Control_c, 0, 64, 99
1, 19365, Control_c, 0, 64, 97
1, 19380, Note_off_c, 0, 60, 39
1, 19380, Control_c, 0, 64, 95
1, 19385, Note_on_c, 0, 67, 52
1, 19402, Control_c, 0, 64, 93
1, 19417, Control_c, 0, 64, 92
1, 19431, Control_c, 0, 64, 90
1, 19434, Note_on_c, 0, 50, 39
1, 19446, Control_c, 0, 64, 86
1, 19451, Note_on_c, 0, 65, 47
1, 19461, Control_c, 0, 64, 79
1, 19476, Control_c, 0, 64, 71
1, 19490, Note_off_c, 0, 67, 48
1, 19491, Control_c, 0, 64, 61
1, 19502, Note_off_c, 0, 57, 44
1, 19505, Control_c, 0, 64, 50
1, 19520, Control_c, 0, 64, 49
1, 19535, Control_c, 0, 64, 52
1, 19550, Control_c, 0, 64, 55
1, 19564, Control_c, 0, 64, 59
1, 19579, Control_c, 0, 64, 62
1, 19594, Control_c, 0, 64, 65
1, 19609, Control_c, 0, 64, 67
1, 19624, Control_c, 0, 64, 71
1, 19633, Note_on_c, 0, 64, 54
1, 19639, Control_c, 0, 64, 77
1, 19645, Note_on_c, 0, 58, 26
1, 19654, Control_c, 0, 64, 86
1, 19664, Note_off_c, 0, 65, 58
1, 19669, Control_c, 0, 64, 95
1, 19684, Control_c, 0, 64, 103
1, 19711, Note_off_c, 0, 50, 49
1, 19728, Control_c, 0, 64, 102
1, 19743, Control_c, 0, 64, 101
1, 19758, Control_c, 0, 64, 100
1, 19767, Note_on_c, 0, 53, 42
1, 19772, Control_c, 0, 64, 99
1, 19781, Note_on_c, 0, 65, 62
1, 19787, Control_c, 0, 64, 97
1, 19802, Control_c, 0, 64, 96
1, 19817, Control_c, 0, 64, 95
1, 19832, Control_c, 0, 64, 94
1, 19846, Control_c, 0, 64, 93
1, 19861, Control_c, 0, 64, 92
1, 19876, Control_c, 0, 64, 91
1, 19880, Note_off_c, 0, 64, 30
1, 19891, Control_c, 0, 64, 90
1, 19906, Control_c, 0, 64, 89
1, 19920, Control_c, 0, 64, 88
1, 19924, Note_on_c, 0, 49, 48
1, 19935, Control_c, 0, 64, 86
1, 19944, Note_on_c, 0, 68, 62
1, 19950, Control_c, 0, 64, 83
1, 19965, Control_c, 0, 64, 76
1, 19979, Control_c, 0, 64, 67
1, 19988, Note_off_c, 0, 65, 51
1, 19994, Control_c, 0, 64, 57
1, 20005, Note_off_c, 0, 53, 33
1, 20009, Control_c, 0, 64, 45
1, 20024, Control_c, 0, 64, 47
1, 20037, Note_off_c, 0, 58, 37
1, 20039, Control_c, 0, 64, 51
1, 20053, Control_c, 0, 64, 57
1, 20068, Control_c, 0, 64, 61
1, 20083, Control_c, 0, 64, 64
1, 20098, Control_c, 0, 64, 67
1, 20106, Note_on_c, 0, 59, 50
1, 20110, Note_on_c, 0, 64, 66
1, 20113, Control_c, 0, 64, 70
1, 20128, Control_c, 0, 64, 76
1, 20150, Control_c, 0, 64, 86
1, 20165, Control_c, 0, 64, 94
1, 20179, Control_c, 0, 64, 103
1, 20194, Control_c, 0, 64, 110
1, 20209, Control_c, 0, 64, 112
1, 20247, Note_on_c, 0, 53, 52
1, 20263, Note_on_c, 0, 65, 75
1, 20278, Note_off_c, 0, 64, 58
1, 20283, Control_c, 0, 64, 111
1, 20298, Control_c, 0, 64, 109
1, 20305, Note_off_c, 0, 49, 61
1, 20313, Control_c, 0, 64, 108
1, 20318, Note_off_c, 0, 68, 55
1, 20328, Control_c, 0, 64, 106
1, 20342, Control_c, 0, 64, 105
1, 20357, Control_c, 0, 64, 103
1, 20372, Control_c, 0, 64, 102
1, 20387, Control_c, 0, 64, 101
1, 20402, Control_c, 0, 64, 100
1, 20416, Note_on_c, 0, 48, 60
1, 20417, Control_c, 0, 64, 98
1, 20417, Note_off_c, 0, 59, 32
1, 20427, Note_on_c, 0, 67, 73
1, 20432, Control_c, 0, 64, 94
1, 20447, Note_off_c, 0, 65, 57
1, 20447, Control_c, 0, 64, 85
1, 20462, Control_c, 0, 64, 73
1, 20477, Control_c, 0, 64, 62
1, 20481, Note_off_c, 0, 53, 57
1, 20492, Control_c, 0, 64, 43
1, 20506, Control_c, 0, 64, 40
1, 20521, Control_c, 0, 64, 48
1, 20536, Control_c, 0, 64, 54
1, 20551, Control_c, 0, 64, 60
1, 20566, Control_c, 0, 64, 64
1, 20581, Control_c, 0, 64, 67
1, 20594, Note_on_c, 0, 71, 79
1, 20595, Control_c, 0, 64, 73
1, 20596, Note_on_c, 0, 60, 50
1, 20610, Control_c, 0, 64, 84
1, 20625, Control_c, 0, 64, 99
1, 20640, Control_c, 0, 64, 127
1, 20687, Note_off_c, 0, 67, 39
1, 20724, Note_off_c, 0, 48, 62
1, 20748, Note_on_c, 0, 52, 51
1, 20748, Note_on_c, 0, 72, 85
1, 20844, Note_off_c, 0, 60, 37
1, 20852, Note_off_c, 0, 71, 54
1, 20923, Note_on_c, 0, 46, 71
1, 20927, Note_on_c, 0, 73, 77
1, 20929, Control_c, 0, 64, 110
1, 20944, Control_c, 0, 64, 95
1, 20958, Control_c, 0, 64, 79
1, 20973, Control_c, 0, 64, 66
1, 20981, Note_off_c, 0, 52, 54
1, 20983, Note_off_c, 0, 72, 59
1, 20988, Control_c, 0, 64, 40
1, 21002, Control_c, 0, 64, 26
1, 21017, Control_c, 0, 64, 34
1, 21032, Control_c, 0, 64, 41
1, 21047, Control_c, 0, 64, 51
1, 21062, Control_c, 0, 64, 59
1, 21076, Control_c, 0, 64, 64
1, 21091, Control_c, 0, 64, 69
1, 21106, Control_c, 0, 64, 76
1, 21118, Note_on_c, 0, 71, 78
1, 21121, Control_c, 0, 64, 88
1, 21125, Note_on_c, 0, 60, 54
1, 21135, Note_off_c, 0, 46, 60
1, 21136, Control_c, 0, 64, 114
1, 21150, Control_c, 0, 64, 127
1, 21177, Note_off_c, 0, 73, 59
1, 21275, Note_off_c, 0, 60, 38
1, 21281, Note_on_c, 0, 52, 47
1, 21302, Note_on_c, 0, 72, 84
1, 21356, Note_off_c, 0, 52, 64
1, 21364, Note_off_c, 0, 71, 56
1, 21433, Control_c, 0, 64, 123
1, 21440, Note_off_c, 0, 72, 63
1, 21448, Control_c, 0, 64, 115
1, 21463, Control_c, 0, 64, 111
1, 21478, Control_c, 0, 64, 105
1, 21493, Control_c, 0, 64, 95
1, 21496, Note_on_c, 0, 44, 66
1, 21508, Control_c, 0, 64, 80
1, 21520, Note_on_c, 0, 72, 69
1, 21523, Control_c, 0, 64, 67
1, 21538, Control_c, 0, 64, 44
1, 21553, Control_c, 0, 64, 31
1, 21567, Control_c, 0, 64, 38
1, 21582, Control_c, 0, 64, 46
1, 21597, Control_c, 0, 64, 54
1, 21612, Control_c, 0, 64, 61
1, 21626, Control_c, 0, 64, 65
1, 21648, Control_c, 0, 64, 69
1, 21663, Control_c, 0, 64, 76
1, 21676, Note_off_c, 0, 44, 64
1, 21678, Control_c, 0, 64, 88
1, 21693, Control_c, 0, 64, 113
1, 21708, Control_c, 0, 64, 127
1, 21735, Note_on_c, 0, 76, 74
1, 21738, Note_on_c, 0, 60, 56
1, 21765, Note_off_c, 0, 72, 62
1, 21897, Note_on_c, 0, 56, 55
1, 21899, Note_off_c, 0, 60, 54
1, 21911, Note_on_c, 0, 65, 79
1, 21916, Note_on_c, 0, 77, 76
1, 21931, Note_off_c, 0, 56, 66
1, 21952, Note_off_c, 0, 76, 63
1, 22064, Control_c, 0, 64, 115
1, 22068, Note_on_c, 0, 43, 69
1, 22079, Control_c, 0, 64, 86
1, 22093, Note_on_c, 0, 75, 74
1, 22094, Control_c, 0, 64, 67
1, 22109, Control_c, 0, 64, 39
1, 22123, Control_c, 0, 64, 29
1, 22138, Control_c, 0, 64, 47
1, 22153, Control_c, 0, 64, 59
1, 22168, Control_c, 0, 64, 65
1, 22183, Control_c, 0, 64, 71
1, 22197, Control_c, 0, 64, 87
1, 22202, Note_off_c, 0, 43, 64
1, 22212, Note_off_c, 0, 77, 43
1, 22212, Control_c, 0, 64, 127
1, 22250, Note_on_c, 0, 58, 65
1, 22256, Note_on_c, 0, 69, 88
1, 22280, Note_off_c, 0, 65, 59
1, 22289, Note_off_c, 0, 75, 62
1, 22369, Note_off_c, 0, 58, 61
1, 22384, Note_on_c, 0, 55, 62
1, 22418, Note_on_c, 0, 70, 88
1, 22421, Note_on_c, 0, 63, 74
1, 22426, Note_off_c, 0, 55, 65
1, 22460, Note_off_c, 0, 69, 60
1, 22574, Note_on_c, 0, 41, 74
1, 22575, Control_c, 0, 64, 117
1, 22590, Control_c, 0, 64, 85
1, 22594, Note_on_c, 0, 73, 84
1, 22605, Control_c, 0, 64, 66
1, 22620, Control_c, 0, 64, 26
1, 22626, Note_off_c, 0, 70, 60
1, 22635, Control_c, 0, 64, 0
1, 22664, Control_c, 0, 64, 29
1, 22679, Control_c, 0, 64, 51
1, 22694, Control_c, 0, 64, 63
1, 22709, Control_c, 0, 64, 70
1, 22723, Control_c, 0, 64, 82
1, 22725, Note_off_c, 0, 41, 65
1, 22738, Control_c, 0, 64, 117
1, 22753, Control_c, 0, 64, 127
1, 22756, Note_on_c, 0, 56, 70
1, 22792, Note_off_c, 0, 63, 60
1, 22879, Note_off_c, 0, 56, 61
1, 22900, Note_on_c, 0, 53, 66
1, 22903, Note_on_c, 0, 61, 85
1, 22933, Note_off_c, 0, 53, 66
1, 23035, Control_c, 0, 64, 96
1, 23050, Control_c, 0, 64, 73
1, 23064, Control_c, 0, 64, 54
1, 23068, Note_on_c, 0, 40, 78
1, 23079, Control_c, 0, 64, 0
1, 23094, Control_c, 0, 64, 35
1, 23109, Control_c, 0, 64, 53
1, 23124, Control_c, 0, 64, 63
1, 23146, Control_c, 0, 64, 71
1, 23153, Note_off_c, 0, 40, 63
1, 23161, Control_c, 0, 64, 83
1, 23165, Note_off_c, 0, 73, 63
1, 23176, Control_c, 0, 64, 114
1, 23191, Control_c, 0, 64, 127
1, 23197, Note_off_c, 0, 61, 60
1, 23228, Note_on_c, 0, 72, 80
1, 23243, Note_on_c, 0, 55, 64
1, 23282, Note_off_c, 0, 55, 62
1, 23402, Note_on_c, 0, 60, 59
1, 23406, Note_on_c, 0, 71, 84
1, 23431, Note_off_c, 0, 60, 65
1, 23459, Note_off_c, 0, 72, 60
1, 23571, Note_on_c, 0, 39, 70
1, 23575, Control_c, 0, 64, 104
1, 23582, Note_on_c, 0, 72, 83
1, 23589, Control_c, 0, 64, 82
1, 23604, Control_c, 0, 64, 65
1, 23619, Control_c, 0, 64, 32
1, 23634, Control_c, 0, 64, 0
1, 23650, Control_c, 0, 64, 29
1, 23662, Note_off_c, 0, 71, 49
1, 23665, Control_c, 0, 64, 52
1, 23680, Control_c, 0, 64, 64
1, 23694, Control_c, 0, 64, 71
1, 23701, Note_off_c, 0, 39, 63
1, 23709, Control_c, 0, 64, 85
1, 23724, Control_c, 0, 64, 127
1, 23777, Note_on_c, 0, 66, 80
1, 23793, Note_on_c, 0, 57, 54
1, 23828, Note_off_c, 0, 57, 55
1, 23841, Note_off_c, 0, 72, 59
1, 23966, Note_on_c, 0, 60, 53
1, 23985, Note_on_c, 0, 65, 85
1, 23992, Note_off_c, 0, 60, 64
1, 24042, Note_off_c, 0, 66, 62
1, 24216, Note_on_c, 0, 37, 53
1, 24232, Note_on_c, 0, 70, 74
1, 24265, Control_c, 0, 64, 119
1, 24280, Control_c, 0, 64, 107
1, 24294, Control_c, 0, 64, 96
1, 24309, Control_c, 0, 64, 84
1, 24324, Control_c, 0, 64, 70
1, 24339, Control_c, 0, 64, 51
1, 24354, Control_c, 0, 64, 0
1, 24376, Note_off_c, 0, 65, 39
1, 24443, Control_c, 0, 64, 39
1, 24458, Control_c, 0, 64, 55
1, 24473, Control_c, 0, 64, 62
1, 24475, Note_off_c, 0, 37, 59
1, 24488, Control_c, 0, 64, 67
1, 24503, Control_c, 0, 64, 74
1, 24516, Note_on_c, 0, 80, 79
1, 24517, Control_c, 0, 64, 91
1, 24532, Control_c, 0, 64, 127
1, 24605, Note_off_c, 0, 70, 60
1, 24689, Note_off_c, 0, 80, 59
1, 24727, Note_on_c, 0, 49, 52
1, 24890, Note_on_c, 0, 58, 54
1, 24895, Note_off_c, 0, 49, 61
1, 25008, Note_off_c, 0, 58, 58
1, 25055, Note_on_c, 0, 65, 57
1, 25215, Note_on_c, 0, 68, 63
1, 25282, Control_c, 0, 64, 123
1, 25297, Control_c, 0, 64, 114
1, 25312, Control_c, 0, 64, 110
1, 25327, Control_c, 0, 64, 107
1, 25341, Control_c, 0, 64, 104
1, 25348, Note_off_c, 0, 65, 37
1, 25356, Control_c, 0, 64, 99
1, 25371, Control_c, 0, 64, 94
1, 25393, Control_c, 0, 64, 91
1, 25395, Note_on_c, 0, 76, 66
1, 25408, Control_c, 0, 64, 88
1, 25422, Control_c, 0, 64, 86
1, 25437, Control_c, 0, 64, 84
1, 25452, Control_c, 0, 64, 82
1, 25467, Control_c, 0, 64, 81
1, 25482, Control_c, 0, 64, 79
1, 25496, Control_c, 0, 64, 77
1, 25511, Control_c, 0, 64, 76
1, 25513, Note_off_c, 0, 68, 37
1, 25526, Control_c, 0, 64, 74
1, 25541, Control_c, 0, 64, 73
1, 25556, Control_c, 0, 64, 71
1, 25565, Note_on_c, 0, 77, 71
1, 25571, Control_c, 0, 64, 70
1, 25586, Control_c, 0, 64, 69
1, 25600, Control_c, 0, 64, 68
1, 25615, Control_c, 0, 64, 68
1, 25630, Control_c, 0, 64, 67
1, 25645, Control_c, 0, 64, 65
1, 25660, Control_c, 0, 64, 65
1, 25674, Control_c, 0, 64, 64
1, 25689, Note_off_c, 0, 76, 51
1, 25704, Control_c, 0, 64, 64
1, 25719, Control_c, 0, 64, 63
1, 25734, Control_c, 0, 64, 62
1, 25738, Note_on_c, 0, 72, 62
1, 25748, Control_c, 0, 64, 61
1, 25763, Control_c, 0, 64, 61
1, 25778, Control_c, 0, 64, 60
1, 25792, Control_c, 0, 64, 60
1, 25807, Control_c, 0, 64, 59
1, 25810, Note_off_c, 0, 77, 56
1, 25822, Control_c, 0, 64, 58
1, 25837, Control_c, 0, 64, 57
1, 25852, Control_c, 0, 64, 56
1, 25866, Control_c, 0, 64, 55
1, 25881, Control_c, 0, 64, 53
1, 25896, Control_c, 0, 64, 51
1, 25911, Control_c, 0, 64, 47
1, 25926, Control_c, 0, 64, 42
1, 25927, Note_on_c, 0, 73, 39
1, 25941, Control_c, 0, 64, 39
1, 25956, Control_c, 0, 64, 39
1, 25973, Note_off_c, 0, 72, 59
1, 26015, Control_c, 0, 64, 42
1, 26030, Control_c, 0, 64, 46
1, 26045, Control_c, 0, 64, 50
1, 26060, Control_c, 0, 64, 54
1, 26075, Control_c, 0, 64, 58
1, 26090, Control_c, 0, 64, 61
1, 26105, Control_c, 0, 64, 64
1, 26119, Control_c, 0, 64, 66
1, 26141, Note_on_c, 0, 64, 47
1, 26142, Control_c, 0, 64, 69
1, 26149, Note_off_c, 0, 73, 62
1, 26157, Control_c, 0, 64, 74
1, 26171, Control_c, 0, 64, 82
1, 26186, Control_c, 0, 64, 91
1, 26201, Control_c, 0, 64, 105
1, 26215, Control_c, 0, 64, 115
1, 26230, Control_c, 0, 64, 118
1, 26260, Control_c, 0, 64, 117
1, 26280, Note_off_c, 0, 64, 48
1, 26289, Control_c, 0, 64, 116
1, 26304, Control_c, 0, 64, 115
1, 26307, Note_on_c, 0, 65, 46
1, 26319, Control_c, 0, 64, 112
1, 26334, Control_c, 0, 64, 111
1, 26349, Control_c, 0, 64, 109
1, 26364, Control_c, 0, 64, 106
1, 26379, Control_c, 0, 64, 104
1, 26380, Note_off_c, 0, 65, 48
1, 26394, Control_c, 0, 64, 102
1, 26409, Control_c, 0, 64, 100
1, 26423, Control_c, 0, 64, 98
1, 26438, Control_c, 0, 64, 95
1, 26453, Control_c, 0, 64, 90
1, 26454, Note_on_c, 0, 49, 34
1, 26459, Note_on_c, 0, 59, 41
1, 26468, Control_c, 0, 64, 81
1, 26469, Note_on_c, 0, 68, 47
1, 26479, Note_on_c, 0, 65, 15
1, 26483, Control_c, 0, 64, 69
1, 26497, Control_c, 0, 64, 60
1, 26512, Control_c, 0, 64, 55
1, 26527, Control_c, 0, 64, 59
1, 26542, Control_c, 0, 64, 61
1, 26557, Control_c, 0, 64, 63
1, 26571, Control_c, 0, 64, 66
1, 26586, Control_c, 0, 64, 69
1, 26601, Control_c, 0, 64, 75
1, 26615, Control_c, 0, 64, 84
1, 26621, Note_on_c, 0, 66, 48
1, 26630, Control_c, 0, 64, 96
1, 26637, Note_off_c, 0, 65, 30
1, 26645, Control_c, 0, 64, 107
1, 26660, Control_c, 0, 64, 110
1, 26674, Note_off_c, 0, 49, 41
1, 26674, Note_off_c, 0, 66, 61
1, 26675, Control_c, 0, 64, 108
1, 26689, Control_c, 0, 64, 107
1, 26694, Note_off_c, 0, 68, 29
1, 26704, Control_c, 0, 64, 106
1, 26719, Control_c, 0, 64, 105
1, 26734, Control_c, 0, 64, 104
1, 26749, Control_c, 0, 64, 102
1, 26755, Note_on_c, 0, 67, 49
1, 26763, Control_c, 0, 64, 100
1, 26778, Control_c, 0, 64, 98
1, 26793, Control_c, 0, 64, 97
1, 26808, Control_c, 0, 64, 96
1, 26823, Control_c, 0, 64, 94
1, 26838, Control_c, 0, 64, 93
1, 26853, Control_c, 0, 64, 92
1, 26868, Control_c, 0, 64, 90
1, 26891, Control_c, 0, 64, 88
1, 26906, Control_c, 0, 64, 85
1, 26912, Note_on_c, 0, 68, 51
1, 26920, Control_c, 0, 64, 82
1, 26931, Note_on_c, 0, 48, 38
1, 26935, Control_c, 0, 64, 77
1, 26936, Note_on_c, 0, 58, 21
1, 26945, Note_off_c, 0, 67, 28
1, 26948, Note_on_c, 0, 64, 37
1, 26950, Control_c, 0, 64, 70
1, 26965, Control_c, 0, 64, 64
1, 26980, Control_c, 0, 64, 59
1, 26994, Control_c, 0, 64, 60
1, 27009, Control_c, 0, 64, 61
1, 27024, Control_c, 0, 64, 62
1, 27033, Note_off_c, 0, 59, 41
1, 27038, Control_c, 0, 64, 65
1, 27051, Note_off_c, 0, 68, 54
1, 27053, Control_c, 0, 64, 67
1, 27061, Note_on_c, 0, 69, 49
1, 27068, Control_c, 0, 64, 70
1, 27083, Control_c, 0, 64, 75
1, 27098, Control_c, 0, 64, 82
1, 27112, Control_c, 0, 64, 91
1, 27127, Control_c, 0, 64, 98
1, 27142, Control_c, 0, 64, 99
1, 27148, Note_off_c, 0, 48, 42
1, 27157, Control_c, 0, 64, 98
1, 27172, Control_c, 0, 64, 96
1, 27177, Note_off_c, 0, 64, 36
1, 27177, Note_off_c, 0, 69, 62
1, 27187, Control_c, 0, 64, 96
1, 27193, Note_on_c, 0, 70, 60
1, 27216, Control_c, 0, 64, 95
1, 27221, Note_off_c, 0, 58, 43
1, 27231, Control_c, 0, 64, 94
1, 27246, Control_c, 0, 64, 93
1, 27261, Control_c, 0, 64, 92
1, 27276, Control_c, 0, 64, 90
1, 27291, Control_c, 0, 64, 88
1, 27306, Control_c, 0, 64, 85
1, 27320, Control_c, 0, 64, 80
1, 27328, Note_on_c, 0, 73, 68
1, 27335, Control_c, 0, 64, 73
1, 27350, Control_c, 0, 64, 66
1, 27359, Note_off_c, 0, 70, 51
1, 27365, Control_c, 0, 64, 60
1, 27380, Control_c, 0, 64, 57
1, 27394, Control_c, 0, 64, 60
1, 27409, Control_c, 0, 64, 62
1, 27424, Control_c, 0, 64, 65
1, 27438, Control_c, 0, 64, 68
1, 27453, Control_c, 0, 64, 73
1, 27460, Note_on_c, 0, 64, 74
1, 27468, Control_c, 0, 64, 82
1, 27483, Control_c, 0, 64, 98
1, 27498, Control_c, 0, 64, 127
1, 27513, Note_off_c, 0, 73, 62
1, 27574, Note_on_c, 0, 65, 82
1, 27608, Note_off_c, 0, 64, 50
1, 27661, Note_off_c, 0, 65, 61
1, 27714, Control_c, 0, 64, 97
1, 27720, Note_on_c, 0, 59, 67
1, 27723, Note_on_c, 0, 49, 50
1, 27729, Control_c, 0, 64, 79
1, 27731, Note_on_c, 0, 68, 70
1, 27735, Note_on_c, 0, 65, 57
1, 27743, Control_c, 0, 64, 66
1, 27758, Control_c, 0, 64, 51
1, 27773, Control_c, 0, 64, 46
1, 27788, Control_c, 0, 64, 56
1, 27803, Control_c, 0, 64, 61
1, 27817, Control_c, 0, 64, 65
1, 27832, Control_c, 0, 64, 70
1, 27847, Control_c, 0, 64, 79
1, 27848, Note_off_c, 0, 65, 52
1, 27861, Control_c, 0, 64, 96
1, 27866, Note_on_c, 0, 66, 79
1, 27876, Control_c, 0, 64, 127
1, 27899, Note_off_c, 0, 49, 60
1, 27913, Note_off_c, 0, 68, 61
1, 27943, Note_off_c, 0, 66, 62
1, 27976, Note_on_c, 0, 67, 83
1, 28083, Control_c, 0, 64, 118
1, 28098, Control_c, 0, 64, 114
1, 28105, Note_on_c, 0, 48, 47
1, 28108, Note_on_c, 0, 68, 71
1, 28111, Note_on_c, 0, 58, 41
1, 28113, Control_c, 0, 64, 108
1, 28125, Note_on_c, 0, 64, 55
1, 28128, Control_c, 0, 64, 101
1, 28142, Control_c, 0, 64, 91
1, 28157, Control_c, 0, 64, 78
1, 28172, Control_c, 0, 64, 66
1, 28186, Control_c, 0, 64, 51
1, 28199, Note_off_c, 0, 59, 39
1, 28201, Control_c, 0, 64, 0
1, 28211, Note_off_c, 0, 67, 34
1, 28240, Note_on_c, 0, 69, 72
1, 28265, Note_off_c, 0, 68, 62
1, 28275, Control_c, 0, 64, 23
1, 28290, Control_c, 0, 64, 40
1, 28305, Control_c, 0, 64, 53
1, 28320, Control_c, 0, 64, 62
1, 28334, Control_c, 0, 64, 67
1, 28348, Note_off_c, 0, 69, 64
1, 28349, Control_c, 0, 64, 73
1, 28353, Note_on_c, 0, 70, 68
1, 28359, Note_off_c, 0, 64, 39
1, 28364, Control_c, 0, 64, 84
1, 28386, Control_c, 0, 64, 103
1, 28400, Note_off_c, 0, 48, 37
1, 28401, Control_c, 0, 64, 127
1, 28471, Note_on_c, 0, 73, 70
1, 28471, Note_off_c, 0, 70, 59
1, 28523, Note_off_c, 0, 58, 37
1, 28571, Note_off_c, 0, 73, 63
1, 28588, Note_on_c, 0, 71, 75
1, 28669, Control_c, 0, 64, 114
1, 28683, Control_c, 0, 64, 108
1, 28692, Note_on_c, 0, 72, 82
1, 28698, Control_c, 0, 64, 105
1, 28713, Control_c, 0, 64, 102
1, 28721, Note_off_c, 0, 71, 60
1, 28728, Control_c, 0, 64, 99
1, 28743, Control_c, 0, 64, 96
1, 28758, Control_c, 0, 64, 92
1, 28772, Control_c, 0, 64, 89
1, 28787, Control_c, 0, 64, 86
1, 28793, Note_on_c, 0, 73, 82
1, 28802, Control_c, 0, 64, 84
1, 28817, Control_c, 0, 64, 83
1, 28824, Note_off_c, 0, 72, 63
1, 28832, Control_c, 0, 64, 82
1, 28847, Control_c, 0, 64, 81
1, 28862, Control_c, 0, 64, 80
1, 28877, Control_c, 0, 64, 78
1, 28891, Control_c, 0, 64, 76
1, 28895, Note_on_c, 0, 76, 85
1, 28898, Note_off_c, 0, 73, 64
1, 28906, Control_c, 0, 64, 74
1, 28921, Control_c, 0, 64, 73
1, 28936, Control_c, 0, 64, 72
1, 28951, Control_c, 0, 64, 72
1, 28965, Control_c, 0, 64, 71
1, 28980, Control_c, 0, 64, 70
1, 28995, Control_c, 0, 64, 68
1, 29003, Note_on_c, 0, 77, 84
1, 29009, Control_c, 0, 64, 67
1, 29024, Control_c, 0, 64, 66
1, 29032, Note_off_c, 0, 76, 60
1, 29039, Control_c, 0, 64, 65
1, 29054, Control_c, 0, 64, 65
1, 29069, Control_c, 0, 64, 64
1, 29083, Control_c, 0, 64, 64
1, 29098, Control_c, 0, 64, 63
1, 29103, Note_on_c, 0, 80, 80
1, 29113, Control_c, 0, 64, 63
1, 29122, Note_off_c, 0, 77, 63
1, 29136, Control_c, 0, 64, 62
1, 29151, Control_c, 0, 64, 62
1, 29165, Control_c, 0, 64, 61
1, 29180, Control_c, 0, 64, 60
1, 29195, Control_c, 0, 64, 60
1, 29223, Note_on_c, 0, 78, 78
1, 29224, Control_c, 0, 64, 59
1, 29240, Control_c, 0, 64, 58
1, 29255, Control_c, 0, 64, 56
1, 29270, Control_c, 0, 64, 53
1, 29285, Control_c, 0, 64, 48
1, 29287, Note_off_c, 0, 80, 63
1, 29300, Control_c, 0, 64, 44
1, 29314, Control_c, 0, 64, 43
1, 29325, Note_on_c, 0, 79, 82
1, 29345, Note_off_c, 0, 78, 63
1, 29359, Control_c, 0, 64, 44
1, 29374, Control_c, 0, 64, 46
1, 29388, Control_c, 0, 64, 49
1, 29403, Control_c, 0, 64, 52
1, 29418, Control_c, 0, 64, 55
1, 29427, Note_on_c, 0, 80, 82
1, 29432, Control_c, 0, 64, 59
1, 29447, Control_c, 0, 64, 63
1, 29452, Note_off_c, 0, 79, 61
1, 29462, Control_c, 0, 64, 67
1, 29477, Control_c, 0, 64, 72
1, 29492, Control_c, 0, 64, 79
1, 29506, Control_c, 0, 64, 90
1, 29521, Control_c, 0, 64, 102
1, 29531, Note_on_c, 0, 81, 84
1, 29536, Control_c, 0, 64, 110
1, 29551, Control_c, 0, 64, 108
1, 29560, Note_off_c, 0, 80, 64
1, 29566, Control_c, 0, 64, 105
1, 29580, Control_c, 0, 64, 103
1, 29595, Control_c, 0, 64, 101
1, 29610, Control_c, 0, 64, 99
1, 29625, Control_c, 0, 64, 95
1, 29634, Note_on_c, 0, 82, 86
1, 29640, Control_c, 0, 64, 91
1, 29655, Control_c, 0, 64, 87
1, 29670, Control_c, 0, 64, 84
1, 29685, Note_off_c, 0, 81, 62
1, 29685, Control_c, 0, 64, 81
1, 29700, Control_c, 0, 64, 77
1, 29714, Control_c, 0, 64, 75
1, 29729, Control_c, 0, 64, 73
1, 29744, Control_c, 0, 64, 71
1, 29753, Note_on_c, 0, 85, 85
1, 29759, Control_c, 0, 64, 70
1, 29774, Control_c, 0, 64, 69
1, 29788, Control_c, 0, 64, 68
1, 29801, Note_off_c, 0, 82, 64
1, 29803, Control_c, 0, 64, 67
1, 29818, Control_c, 0, 64, 66
1, 29832, Control_c, 0, 64, 66
1, 29847, Control_c, 0, 64, 65
1, 29874, Note_on_c, 0, 83, 86
1, 29877, Control_c, 0, 64, 64
1, 29914, Control_c, 0, 64, 64
1, 29929, Control_c, 0, 64, 63
1, 29944, Control_c, 0, 64, 63
1, 29956, Note_off_c, 0, 85, 65
1, 29959, Control_c, 0, 64, 62
1, 30003, Control_c, 0, 64, 62
1, 30009, Note_on_c, 0, 84, 86
1, 30033, Control_c, 0, 64, 61
1, 30048, Control_c, 0, 64, 61
1, 30063, Control_c, 0, 64, 60
1, 30078, Control_c, 0, 64, 60
1, 30093, Control_c, 0, 64, 59
1, 30123, Control_c, 0, 64, 59
1, 30137, Control_c, 0, 64, 58
1, 30149, Note_off_c, 0, 83, 32
1, 30154, Note_on_c, 0, 85, 77
1, 30167, Control_c, 0, 64, 58
1, 30182, Control_c, 0, 64, 57
1, 30211, Control_c, 0, 64, 57
1, 30239, Note_off_c, 0, 84, 58
1, 30240, Control_c, 0, 64, 56
1, 30269, Control_c, 0, 64, 56
1, 30284, Control_c, 0, 64, 55
1, 30290, Note_on_c, 0, 83, 78
1, 30299, Control_c, 0, 64, 55
1, 30314, Control_c, 0, 64, 54
1, 30329, Control_c, 0, 64, 54
1, 30343, Control_c, 0, 64, 53
1, 30358, Control_c, 0, 64, 53
1, 30388, Control_c, 0, 64, 52
1, 30418, Control_c, 0, 64, 52
1, 30422, Note_on_c, 0, 84, 77
1, 30427, Note_off_c, 0, 85, 38
1, 30433, Control_c, 0, 64, 51
1, 30448, Control_c, 0, 64, 51
1, 30462, Control_c, 0, 64, 50
1, 30477, Control_c, 0, 64, 50
1, 30492, Control_c, 0, 64, 49
1, 30507, Control_c, 0, 64, 49
1, 30521, Note_off_c, 0, 83, 57
1, 30522, Control_c, 0, 64, 48
1, 30536, Control_c, 0, 64, 48
1, 30551, Control_c, 0, 64, 47
1, 30566, Control_c, 0, 64, 46
1, 30585, Note_on_c, 0, 85, 70
1, 30596, Control_c, 0, 64, 45
1, 30647, Control_c, 0, 64, 45
1, 30675, Note_off_c, 0, 84, 59
1, 30736, Control_c, 0, 64, 46
1, 30751, Control_c, 0, 64, 47
1, 30755, Note_on_c, 0, 83, 68
1, 30766, Control_c, 0, 64, 50
1, 30781, Control_c, 0, 64, 54
1, 30795, Control_c, 0, 64, 58
1, 30810, Control_c, 0, 64, 61
1, 30825, Control_c, 0, 64, 64
1, 30841, Control_c, 0, 64, 68
1, 30856, Control_c, 0, 64, 74
1, 30871, Control_c, 0, 64, 84
1, 30871, Note_off_c, 0, 85, 57
1, 30885, Control_c, 0, 64, 102
1, 30900, Control_c, 0, 64, 127
1, 30931, Note_on_c, 0, 84, 70
1, 30963, Note_off_c, 0, 83, 58
1, 31004, Note_off_c, 0, 84, 61
1, 31077, Note_on_c, 0, 70, 42
1, 31148, Note_on_c, 0, 84, 46
1, 31166, Control_c, 0, 64, 118
1, 31181, Control_c, 0, 64, 111
1, 31196, Control_c, 0, 64, 106
1, 31211, Control_c, 0, 64, 103
1, 31214, Note_on_c, 0, 87, 61
1, 31226, Control_c, 0, 64, 100
1, 31241, Control_c, 0, 64, 97
1, 31256, Control_c, 0, 64, 94
1, 31270, Control_c, 0, 64, 91
1, 31285, Control_c, 0, 64, 87
1, 31288, Note_on_c, 0, 85, 68
1, 31300, Control_c, 0, 64, 83
1, 31315, Control_c, 0, 64, 79
1, 31322, Note_off_c, 0, 84, 52
1, 31330, Control_c, 0, 64, 76
1, 31345, Control_c, 0, 64, 74
1, 31359, Control_c, 0, 64, 72
1, 31381, Note_off_c, 0, 87, 51
1, 31381, Control_c, 0, 64, 71
1, 31396, Control_c, 0, 64, 70
1, 31411, Control_c, 0, 64, 69
1, 31426, Control_c, 0, 64, 68
1, 31440, Control_c, 0, 64, 67
1, 31455, Control_c, 0, 64, 67
1, 31470, Control_c, 0, 64, 66
1, 31485, Control_c, 0, 64, 66
1, 31499, Note_on_c, 0, 83, 54
1, 31500, Control_c, 0, 64, 65
1, 31520, Note_on_c, 0, 79, 24
1, 31530, Control_c, 0, 64, 65
1, 31559, Control_c, 0, 64, 64
1, 31580, Note_off_c, 0, 85, 57
1, 31589, Control_c, 0, 64, 64
1, 31604, Control_c, 0, 64, 63
1, 31618, Control_c, 0, 64, 63
1, 31634, Control_c, 0, 64, 62
1, 31649, Control_c, 0, 64, 60
1, 31664, Control_c, 0, 64, 58
1, 31679, Control_c, 0, 64, 56
1, 31708, Control_c, 0, 64, 57
1, 31723, Control_c, 0, 64, 58
1, 31738, Control_c, 0, 64, 60
1, 31739, Note_on_c, 0, 76, 36
1, 31753, Control_c, 0, 64, 62
1, 31768, Control_c, 0, 64, 64
1, 31782, Control_c, 0, 64, 65
1, 31797, Control_c, 0, 64, 69
1, 31812, Control_c, 0, 64, 74
1, 31827, Control_c, 0, 64, 83
1, 31842, Control_c, 0, 64, 95
1, 31856, Control_c, 0, 64, 110
1, 31859, Note_on_c, 0, 84, 54
1, 31871, Control_c, 0, 64, 127
1, 31921, Note_off_c, 0, 83, 27
1, 31922, Note_off_c, 0, 84, 56
1, 31930, Control_c, 0, 64, 119
1, 31945, Control_c, 0, 64, 115
1, 31960, Control_c, 0, 64, 112
1, 31975, Control_c, 0, 64, 107
1, 31989, Control_c, 0, 64, 104
1, 32004, Control_c, 0, 64, 101
1, 32019, Control_c, 0, 64, 97
1, 32023, Note_on_c, 0, 68, 38
1, 32034, Control_c, 0, 64, 93
1, 32037, Note_on_c, 0, 84, 46
1, 32048, Control_c, 0, 64, 88
1, 32063, Control_c, 0, 64, 84
1, 32068, Note_off_c, 0, 79, 33
1, 32078, Control_c, 0, 64, 81
1, 32093, Control_c, 0, 64, 79
1, 32108, Control_c, 0, 64, 77
1, 32110, Note_off_c, 0, 76, 34
1, 32130, Control_c, 0, 64, 75
1, 32145, Control_c, 0, 64, 71
1, 32160, Control_c, 0, 64, 65
1, 32175, Control_c, 0, 64, 59
1, 32189, Control_c, 0, 64, 55
1, 32204, Control_c, 0, 64, 57
1, 32219, Control_c, 0, 64, 58
1, 32233, Control_c, 0, 64, 60
1, 32248, Control_c, 0, 64, 62
1, 32263, Control_c, 0, 64, 63
1, 32278, Control_c, 0, 64, 65
1, 32293, Note_on_c, 0, 88, 45
1, 32293, Control_c, 0, 64, 68
1, 32296, Note_off_c, 0, 70, 29
1, 32297, Note_on_c, 0, 77, 36
1, 32308, Control_c, 0, 64, 72
1, 32323, Control_c, 0, 64, 78
1, 32338, Control_c, 0, 64, 85
1, 32353, Control_c, 0, 64, 95
1, 32367, Control_c, 0, 64, 99
1, 32382, Control_c, 0, 64, 100
1, 32397, Control_c, 0, 64, 99
1, 32414, Note_off_c, 0, 68, 45
1, 32442, Control_c, 0, 64, 98
1, 32457, Control_c, 0, 64, 97
1, 32460, Note_off_c, 0, 88, 60
1, 32470, Note_on_c, 0, 89, 69
1, 32472, Note_on_c, 0, 72, 41
1, 32473, Control_c, 0, 64, 96
1, 32487, Control_c, 0, 64, 96
1, 32502, Control_c, 0, 64, 95
1, 32517, Control_c, 0, 64, 95
1, 32531, Control_c, 0, 64, 93
1, 32546, Control_c, 0, 64, 92
1, 32561, Control_c, 0, 64, 91
1, 32562, Note_off_c, 0, 84, 43
1, 32564, Note_off_c, 0, 77, 37
1, 32576, Control_c, 0, 64, 90
1, 32591, Control_c, 0, 64, 89
1, 32606, Control_c, 0, 64, 88
1, 32621, Control_c, 0, 64, 87
1, 32636, Note_on_c, 0, 67, 39
1, 32636, Control_c, 0, 64, 86
1, 32648, Note_on_c, 0, 87, 71
1, 32650, Control_c, 0, 64, 86
1, 32665, Control_c, 0, 64, 85
1, 32680, Control_c, 0, 64, 83
1, 32695, Control_c, 0, 64, 78
1, 32710, Control_c, 0, 64, 71
1, 32725, Control_c, 0, 64, 64
1, 32727, Note_off_c, 0, 72, 43
1, 32739, Control_c, 0, 64, 62
1, 32754, Control_c, 0, 64, 63
1, 32769, Control_c, 0, 64, 65
1, 32784, Control_c, 0, 64, 67
1, 32798, Control_c, 0, 64, 70
1, 32807, Note_on_c, 0, 81, 71
1, 32813, Control_c, 0, 64, 75
1, 32828, Control_c, 0, 64, 83
1, 32829, Note_on_c, 0, 75, 39
1, 32843, Control_c, 0, 64, 91
1, 32853, Note_off_c, 0, 67, 62
1, 32857, Control_c, 0, 64, 99
1, 32859, Note_off_c, 0, 89, 33
1, 32880, Control_c, 0, 64, 103
1, 32910, Control_c, 0, 64, 102
1, 32939, Control_c, 0, 64, 101
1, 32949, Note_off_c, 0, 87, 52
1, 32954, Control_c, 0, 64, 101
1, 32964, Note_on_c, 0, 82, 79
1, 32969, Control_c, 0, 64, 100
1, 32984, Control_c, 0, 64, 99
1, 32988, Note_on_c, 0, 70, 45
1, 32999, Control_c, 0, 64, 98
1, 33013, Control_c, 0, 64, 98
1, 33028, Control_c, 0, 64, 97
1, 33043, Control_c, 0, 64, 96
1, 33057, Control_c, 0, 64, 96
1, 33068, Note_off_c, 0, 81, 48
1, 33072, Control_c, 0, 64, 95
1, 33087, Control_c, 0, 64, 93
1, 33092, Note_off_c, 0, 75, 26
1, 33102, Control_c, 0, 64, 91
1, 33117, Control_c, 0, 64, 89
1, 33131, Control_c, 0, 64, 87
1, 33146, Control_c, 0, 64, 86
1, 33157, Note_on_c, 0, 85, 71
1, 33161, Control_c, 0, 64, 84
1, 33162, Note_on_c, 0, 65, 43
1, 33176, Control_c, 0, 64, 82
1, 33191, Control_c, 0, 64, 80
1, 33205, Control_c, 0, 64, 77
1, 33220, Control_c, 0, 64, 73
1, 33235, Note_off_c, 0, 70, 30
1, 33236, Control_c, 0, 64, 69
1, 33251, Control_c, 0, 64, 64
1, 33255, Note_off_c, 0, 82, 61
1, 33266, Control_c, 0, 64, 59
1, 33280, Control_c, 0, 64, 54
1, 33295, Control_c, 0, 64, 54
1, 33325, Control_c, 0, 64, 55
1, 33340, Control_c, 0, 64, 56
1, 33348, Note_on_c, 0, 73, 41
1, 33354, Control_c, 0, 64, 59
1, 33369, Control_c, 0, 64, 62
1, 33384, Control_c, 0, 64, 64
1, 33399, Control_c, 0, 64, 67
1, 33414, Control_c, 0, 64, 70
1, 33429, Control_c, 0, 64, 77
1, 33444, Control_c, 0, 64, 86
1, 33458, Control_c, 0, 64, 96
1, 33473, Control_c, 0, 64, 101
1, 33488, Control_c, 0, 64, 100
1, 33502, Note_on_c, 0, 68, 40
1, 33503, Control_c, 0, 64, 99
1, 33518, Control_c, 0, 64, 98
1, 33533, Control_c, 0, 64, 98
1, 33548, Control_c, 0, 64, 96
1, 33562, Control_c, 0, 64, 95
1, 33577, Control_c, 0, 64, 93
1, 33592, Control_c, 0, 64, 92
1, 33607, Control_c, 0, 64, 90
1, 33628, Control_c, 0, 64, 89
1, 33643, Control_c, 0, 64, 88
1, 33658, Control_c, 0, 64, 86
1, 33673, Control_c, 0, 64, 85
1, 33676, Note_on_c, 0, 64, 38
1, 33688, Control_c, 0, 64, 82
1, 33703, Control_c, 0, 64, 77
1, 33718, Control_c, 0, 64, 70
1, 33733, Control_c, 0, 64, 63
1, 33748, Control_c, 0, 64, 54
1, 33777, Control_c, 0, 64, 56
1, 33792, Control_c, 0, 64, 58
1, 33807, Control_c, 0, 64, 60
1, 33822, Control_c, 0, 64, 62
1, 33825, Note_off_c, 0, 73, 42
1, 33836, Control_c, 0, 64, 64
1, 33851, Control_c, 0, 64, 66
1, 33866, Control_c, 0, 64, 70
1, 33880, Control_c, 0, 64, 74
1, 33881, Note_on_c, 0, 84, 48
1, 33888, Note_on_c, 0, 72, 32
1, 33895, Control_c, 0, 64, 79
1, 33910, Control_c, 0, 64, 84
1, 33925, Control_c, 0, 64, 86
1, 33951, Note_off_c, 0, 85, 50
1, 33967, Note_off_c, 0, 64, 57
1, 34013, Control_c, 0, 64, 86
1, 34029, Control_c, 0, 64, 85
1, 34038, Note_off_c, 0, 84, 55
1, 34044, Control_c, 0, 64, 85
1, 34046, Note_on_c, 0, 67, 41
1, 34046, Note_on_c, 0, 83, 58
1, 34055, Note_off_c, 0, 68, 17
1, 34073, Control_c, 0, 64, 84
1, 34088, Control_c, 0, 64, 83
1, 34102, Control_c, 0, 64, 83
1, 34117, Control_c, 0, 64, 82
1, 34130, Note_off_c, 0, 83, 57
1, 34132, Control_c, 0, 64, 81
1, 34147, Control_c, 0, 64, 81
1, 34162, Control_c, 0, 64, 80
1, 34166, Note_off_c, 0, 72, 42
1, 34177, Control_c, 0, 64, 80
1, 34189, Note_on_c, 0, 63, 41
1, 34192, Control_c, 0, 64, 79
1, 34198, Note_on_c, 0, 84, 54
1, 34207, Control_c, 0, 64, 78
1, 34222, Control_c, 0, 64, 76
1, 34236, Control_c, 0, 64, 73
1, 34241, Note_off_c, 0, 67, 24
1, 34251, Control_c, 0, 64, 67
1, 34266, Control_c, 0, 64, 63
1, 34281, Control_c, 0, 64, 59
1, 34295, Control_c, 0, 64, 60
1, 34310, Control_c, 0, 64, 61
1, 34325, Control_c, 0, 64, 62
1, 34326, Note_off_c, 0, 65, 27
1, 34340, Control_c, 0, 64, 64
1, 34355, Control_c, 0, 64, 65
1, 34377, Control_c, 0, 64, 68
1, 34384, Note_on_c, 0, 72, 40
1, 34384, Note_on_c, 0, 78, 55
1, 34391, Control_c, 0, 64, 71
1, 34406, Control_c, 0, 64, 78
1, 34421, Control_c, 0, 64, 86
1, 34436, Control_c, 0, 64, 93
1, 34451, Control_c, 0, 64, 99
1, 34466, Control_c, 0, 64, 100
1, 34478, Note_off_c, 0, 63, 37
1, 34484, Note_off_c, 0, 84, 56
1, 34491, Note_off_c, 0, 78, 60
1, 34502, Note_on_c, 0, 77, 58
1, 34523, Note_on_c, 0, 69, 44
1, 34540, Control_c, 0, 64, 99
1, 34555, Control_c, 0, 64, 99
1, 34570, Control_c, 0, 64, 98
1, 34584, Control_c, 0, 64, 96
1, 34585, Note_off_c, 0, 77, 57
1, 34599, Control_c, 0, 64, 96
1, 34614, Control_c, 0, 64, 95
1, 34627, Note_off_c, 0, 72, 40
1, 34628, Note_on_c, 0, 79, 53
1, 34628, Control_c, 0, 64, 94
1, 34643, Control_c, 0, 64, 93
1, 34658, Control_c, 0, 64, 92
1, 34659, Note_on_c, 0, 62, 38
1, 34673, Control_c, 0, 64, 91
1, 34685, Note_on_c, 0, 77, 62
1, 34688, Control_c, 0, 64, 90
1, 34699, Note_off_c, 0, 79, 51
1, 34702, Control_c, 0, 64, 87
1, 34710, Note_off_c, 0, 69, 40
1, 34717, Control_c, 0, 64, 80
1, 34732, Control_c, 0, 64, 71
1, 34747, Control_c, 0, 64, 63
1, 34762, Control_c, 0, 64, 58
1, 34776, Control_c, 0, 64, 59
1, 34791, Control_c, 0, 64, 61
1, 34806, Control_c, 0, 64, 63
1, 34822, Control_c, 0, 64, 65
1, 34828, Note_on_c, 0, 76, 63
1, 34837, Control_c, 0, 64, 68
1, 34852, Note_off_c, 0, 77, 58
1, 34852, Control_c, 0, 64, 73
1, 34857, Note_on_c, 0, 70, 37
1, 34867, Control_c, 0, 64, 82
1, 34881, Control_c, 0, 64, 91
1, 34889, Note_off_c, 0, 62, 59
1, 34896, Control_c, 0, 64, 98
1, 34911, Control_c, 0, 64, 100
1, 34925, Control_c, 0, 64, 99
1, 34940, Control_c, 0, 64, 99
1, 34960, Note_on_c, 0, 65, 45
1, 34970, Note_on_c, 0, 77, 72
1, 35000, Control_c, 0, 64, 98
1, 35014, Control_c, 0, 64, 98
1, 35029, Control_c, 0, 64, 97
1, 35032, Note_off_c, 0, 76, 59
1, 35044, Control_c, 0, 64, 96
1, 35059, Control_c, 0, 64, 95
1, 35089, Control_c, 0, 64, 95
1, 35104, Control_c, 0, 64, 94
1, 35125, Control_c, 0, 64, 93
1, 35126, Note_on_c, 0, 61, 40
1, 35138, Note_on_c, 0, 80, 71
1, 35140, Control_c, 0, 64, 92
1, 35155, Control_c, 0, 64, 90
1, 35170, Control_c, 0, 64, 87
1, 35185, Control_c, 0, 64, 82
1, 35199, Control_c, 0, 64, 74
1, 35206, Note_off_c, 0, 77, 46
1, 35211, Note_off_c, 0, 70, 41
1, 35214, Control_c, 0, 64, 66
1, 35229, Control_c, 0, 64, 60
1, 35244, Control_c, 0, 64, 59
1, 35250, Note_off_c, 0, 65, 40
1, 35259, Control_c, 0, 64, 61
1, 35274, Control_c, 0, 64, 63
1, 35289, Control_c, 0, 64, 64
1, 35295, Note_on_c, 0, 71, 48
1, 35295, Note_on_c, 0, 76, 78
1, 35304, Control_c, 0, 64, 67
1, 35319, Control_c, 0, 64, 71
1, 35333, Control_c, 0, 64, 81
1, 35348, Control_c, 0, 64, 95
1, 35363, Control_c, 0, 64, 127
1, 35443, Note_on_c, 0, 77, 87
1, 35468, Note_off_c, 0, 76, 62
1, 35492, Note_on_c, 0, 64, 37
1, 35497, Note_off_c, 0, 61, 57
1, 35502, Note_off_c, 0, 80, 59
1, 35503, Note_on_c, 0, 65, 33
1, 35552, Note_off_c, 0, 71, 53
1, 35584, Note_off_c, 0, 65, 33
1, 35596, Note_on_c, 0, 79, 78
1, 35602, Note_on_c, 0, 60, 62
1, 35616, Note_off_c, 0, 77, 61
1, 35630, Control_c, 0, 64, 103
1, 35645, Control_c, 0, 64, 85
1, 35660, Control_c, 0, 64, 70
1, 35675, Control_c, 0, 64, 62
1, 35680, Note_off_c, 0, 64, 36
1, 35690, Control_c, 0, 64, 59
1, 35704, Control_c, 0, 64, 63
1, 35719, Control_c, 0, 64, 65
1, 35734, Control_c, 0, 64, 67
1, 35748, Control_c, 0, 64, 71
1, 35754, Note_on_c, 0, 72, 56
1, 35763, Control_c, 0, 64, 81
1, 35766, Note_on_c, 0, 83, 86
1, 35778, Control_c, 0, 64, 101
1, 35793, Control_c, 0, 64, 127
1, 35843, Note_off_c, 0, 79, 54
1, 35884, Note_off_c, 0, 60, 63
1, 35912, Note_on_c, 0, 64, 54
1, 35920, Note_on_c, 0, 84, 89
1, 36013, Note_off_c, 0, 72, 37
1, 36014, Note_off_c, 0, 83, 59
1, 36070, Note_on_c, 0, 58, 72
1, 36082, Note_on_c, 0, 85, 80
1, 36097, Control_c, 0, 64, 105
1, 36111, Control_c, 0, 64, 82
1, 36126, Control_c, 0, 64, 67
1, 36132, Note_off_c, 0, 84, 57
1, 36137, Note_off_c, 0, 64, 50
1, 36141, Control_c, 0, 64, 53
1, 36156, Control_c, 0, 64, 51
1, 36171, Control_c, 0, 64, 60
1, 36186, Control_c, 0, 64, 64
1, 36201, Control_c, 0, 64, 68
1, 36216, Control_c, 0, 64, 76
1, 36231, Control_c, 0, 64, 93
1, 36246, Control_c, 0, 64, 127
1, 36259, Note_off_c, 0, 58, 62
1, 36262, Note_on_c, 0, 83, 85
1, 36268, Note_on_c, 0, 72, 62
1, 36318, Note_off_c, 0, 85, 63
1, 36412, Note_off_c, 0, 72, 53
1, 36427, Note_on_c, 0, 67, 46
1, 36435, Note_on_c, 0, 64, 40
1, 36445, Note_on_c, 0, 84, 87
1, 36500, Note_off_c, 0, 83, 55
1, 36503, Note_off_c, 0, 67, 61
1, 36519, Note_off_c, 0, 64, 63
1, 36593, Note_off_c, 0, 84, 65
1, 36642, Note_on_c, 0, 56, 69
1, 36662, Note_on_c, 0, 84, 78
1, 36684, Control_c, 0, 64, 100
1, 36698, Control_c, 0, 64, 82
1, 36713, Control_c, 0, 64, 67
1, 36728, Control_c, 0, 64, 52
1, 36758, Control_c, 0, 64, 58
1, 36772, Control_c, 0, 64, 62
1, 36787, Control_c, 0, 64, 66
1, 36802, Control_c, 0, 64, 73
1, 36817, Control_c, 0, 64, 89
1, 36832, Control_c, 0, 64, 127
1, 36836, Note_on_c, 0, 65, 54
1, 36856, Note_on_c, 0, 88, 79
1, 36878, Note_off_c, 0, 56, 60
1, 36891, Note_off_c, 0, 84, 62
1, 37024, Note_on_c, 0, 72, 59
1, 37034, Note_on_c, 0, 77, 84
1, 37037, Note_on_c, 0, 89, 79
1, 37055, Note_off_c, 0, 72, 66
1, 37074, Note_off_c, 0, 88, 64
1, 37085, Note_off_c, 0, 65, 35
1, 37198, Note_on_c, 0, 55, 67
1, 37209, Note_on_c, 0, 87, 77
1, 37217, Control_c, 0, 64, 103
1, 37232, Control_c, 0, 64, 81
1, 37247, Control_c, 0, 64, 65
1, 37262, Control_c, 0, 64, 49
1, 37277, Control_c, 0, 64, 51
1, 37292, Control_c, 0, 64, 60
1, 37307, Control_c, 0, 64, 64
1, 37321, Control_c, 0, 64, 69
1, 37336, Control_c, 0, 64, 78
1, 37351, Control_c, 0, 64, 98
1, 37352, Note_off_c, 0, 89, 37
1, 37369, Note_on_c, 0, 81, 80
1, 37373, Control_c, 0, 64, 127
1, 37376, Note_on_c, 0, 63, 70
1, 37388, Note_off_c, 0, 77, 61
1, 37408, Note_off_c, 0, 87, 63
1, 37433, Note_off_c, 0, 55, 57
1, 37514, Note_on_c, 0, 82, 92
1, 37514, Note_off_c, 0, 63, 61
1, 37515, Note_on_c, 0, 75, 82
1, 37515, Note_on_c, 0, 70, 66
1, 37560, Note_off_c, 0, 70, 60
1, 37571, Note_off_c, 0, 81, 61
1, 37669, Control_c, 0, 64, 117
1, 37672, Note_on_c, 0, 53, 80
1, 37684, Control_c, 0, 64, 80
1, 37688, Note_on_c, 0, 85, 86
1, 37699, Control_c, 0, 64, 63
1, 37714, Control_c, 0, 64, 37
1, 37724, Note_off_c, 0, 82, 60
1, 37728, Control_c, 0, 64, 33
1, 37743, Control_c, 0, 64, 46
1, 37758, Control_c, 0, 64, 57
1, 37773, Control_c, 0, 64, 63
1, 37788, Control_c, 0, 64, 68
1, 37802, Control_c, 0, 64, 76
1, 37817, Control_c, 0, 64, 98
1, 37832, Control_c, 0, 64, 127
1, 37851, Note_on_c, 0, 61, 75
1, 37903, Note_off_c, 0, 53, 61
1, 37903, Note_off_c, 0, 75, 60
1, 37982, Note_on_c, 0, 68, 71
1, 37986, Note_on_c, 0, 73, 85
1, 37998, Note_off_c, 0, 61, 60
1, 38038, Note_off_c, 0, 68, 61
1, 38147, Note_on_c, 0, 52, 80
1, 38151, Control_c, 0, 64, 100
1, 38166, Control_c, 0, 64, 73
1, 38181, Control_c, 0, 64, 59
1, 38196, Control_c, 0, 64, 52
1, 38211, Control_c, 0, 64, 59
1, 38225, Control_c, 0, 64, 65
1, 38240, Control_c, 0, 64, 69
1, 38255, Note_off_c, 0, 85, 64
1, 38255, Control_c, 0, 64, 78
1, 38270, Control_c, 0, 64, 99
1, 38285, Control_c, 0, 64, 127
1, 38302, Note_on_c, 0, 84, 86
1, 38314, Note_off_c, 0, 73, 63
1, 38317, Note_on_c, 0, 60, 64
1, 38339, Note_off_c, 0, 52, 61
1, 38457, Note_on_c, 0, 67, 61
1, 38461, Note_on_c, 0, 72, 83
1, 38471, Note_on_c, 0, 83, 81
1, 38498, Note_off_c, 0, 60, 62
1, 38503, Note_off_c, 0, 67, 61
1, 38511, Note_off_c, 0, 84, 61
1, 38634, Note_on_c, 0, 51, 73
1, 38642, Note_on_c, 0, 84, 87
1, 38729, Control_c, 0, 64, 110
1, 38743, Control_c, 0, 64, 83
1, 38749, Note_off_c, 0, 72, 46
1, 38758, Control_c, 0, 64, 67
1, 38768, Note_off_c, 0, 83, 51
1, 38773, Control_c, 0, 64, 40
1, 38788, Control_c, 0, 64, 0
1, 38803, Control_c, 0, 64, 14
1, 38818, Control_c, 0, 64, 31
1, 38830, Note_on_c, 0, 60, 65
1, 38831, Note_on_c, 0, 78, 86
1, 38833, Control_c, 0, 64, 48
1, 38848, Control_c, 0, 64, 60
1, 38870, Control_c, 0, 64, 67
1, 38873, Note_off_c, 0, 51, 64
1, 38881, Note_off_c, 0, 84, 60
1, 38885, Control_c, 0, 64, 74
1, 38900, Control_c, 0, 64, 89
1, 38915, Note_off_c, 0, 60, 64
1, 38915, Control_c, 0, 64, 127
1, 39031, Note_on_c, 0, 69, 64
1, 39038, Note_on_c, 0, 77, 94
1, 39066, Note_off_c, 0, 69, 64
1, 39066, Note_off_c, 0, 78, 64
1, 39279, Note_on_c, 0, 49, 59
1, 39289, Note_on_c, 0, 82, 78
1, 39344, Control_c, 0, 64, 108
1, 39359, Control_c, 0, 64, 90
1, 39373, Control_c, 0, 64, 75
1, 39388, Control_c, 0, 64, 62
1, 39403, Control_c, 0, 64, 30
1, 39418, Control_c, 0, 64, 0
1, 39444, Note_off_c, 0, 77, 43
1, 39451, Poly_aftertouch_c, 0, 79, 127
1, 39492, Control_c, 0, 64, 33
1, 39507, Control_c, 0, 64, 53
1, 39513, Poly_aftertouch_c, 0, 79, 0
1, 39522, Control_c, 0, 64, 63
1, 39528, Note_off_c, 0, 49, 62
1, 39537, Control_c, 0, 64, 67
1, 39551, Control_c, 0, 64, 73
1, 39566, Control_c, 0, 64, 86
1, 39581, Control_c, 0, 64, 127
1, 39594, Note_on_c, 0, 92, 77
1, 39712, Note_off_c, 0, 82, 53
1, 39767, Note_off_c, 0, 92, 62
1, 39807, Note_on_c, 0, 61, 46
1, 39981, Note_off_c, 0, 61, 53
1, 39987, Note_on_c, 0, 70, 43
1, 40031, Note_off_c, 0, 70, 60
1, 40150, Note_on_c, 0, 77, 50
1, 40318, Note_on_c, 0, 80, 44
1, 40404, Note_off_c, 0, 77, 31
1, 40457, Control_c, 0, 64, 115
1, 40472, Control_c, 0, 64, 110
1, 40487, Control_c, 0, 64, 106
1, 40501, Control_c, 0, 64, 103
1, 40516, Control_c, 0, 64, 102
1, 40520, Note_on_c, 0, 88, 49
1, 40531, Control_c, 0, 64, 99
1, 40545, Control_c, 0, 64, 97
1, 40560, Control_c, 0, 64, 94
1, 40575, Control_c, 0, 64, 92
1, 40590, Control_c, 0, 64, 90
1, 40591, Note_off_c, 0, 80, 41
1, 40605, Control_c, 0, 64, 88
1, 40619, Control_c, 0, 64, 86
1, 40634, Control_c, 0, 64, 83
1, 40649, Control_c, 0, 64, 80
1, 40664, Control_c, 0, 64, 78
1, 40679, Control_c, 0, 64, 77
1, 40691, Note_on_c, 0, 89, 60
1, 40693, Control_c, 0, 64, 76
1, 40708, Control_c, 0, 64, 74
1, 40723, Control_c, 0, 64, 72
1, 40737, Control_c, 0, 64, 70
1, 40752, Control_c, 0, 64, 69
1, 40767, Control_c, 0, 64, 68
1, 40782, Control_c, 0, 64, 68
1, 40797, Control_c, 0, 64, 67
1, 40803, Note_off_c, 0, 88, 30
1, 40811, Control_c, 0, 64, 66
1, 40826, Control_c, 0, 64, 66
1, 40841, Control_c, 0, 64, 65
1, 40856, Note_on_c, 0, 84, 68
1, 40856, Control_c, 0, 64, 64
1, 40871, Control_c, 0, 64, 63
1, 40885, Control_c, 0, 64, 63
1, 40900, Control_c, 0, 64, 62
1, 40915, Control_c, 0, 64, 61
1, 40930, Control_c, 0, 64, 60
1, 40944, Control_c, 0, 64, 59
1, 40952, Note_off_c, 0, 89, 57
1, 40959, Control_c, 0, 64, 56
1, 40974, Control_c, 0, 64, 52
1, 40989, Control_c, 0, 64, 49
1, 41004, Control_c, 0, 64, 47
1, 41018, Control_c, 0, 64, 47
1, 41031, Note_on_c, 0, 85, 66
1, 41048, Control_c, 0, 64, 47
1, 41063, Control_c, 0, 64, 49
1, 41078, Control_c, 0, 64, 52
1, 41093, Control_c, 0, 64, 56
1, 41106, Note_off_c, 0, 84, 59
1, 41107, Control_c, 0, 64, 61
1, 41130, Control_c, 0, 64, 64
1, 41144, Control_c, 0, 64, 67
1, 41159, Control_c, 0, 64, 71
1, 41174, Control_c, 0, 64, 80
1, 41189, Control_c, 0, 64, 96
1, 41204, Control_c, 0, 64, 127
1, 41222, Note_on_c, 0, 77, 68
1, 41283, Note_off_c, 0, 85, 64
1, 41411, Note_on_c, 0, 78, 72
1, 41434, Note_off_c, 0, 77, 61
1, 41590, Control_c, 0, 64, 113
1, 41597, Note_on_c, 0, 51, 44
1, 41605, Control_c, 0, 64, 104
1, 41620, Control_c, 0, 64, 94
1, 41634, Control_c, 0, 64, 82
1, 41641, Note_on_c, 0, 79, 67
1, 41647, Note_on_c, 0, 73, 47
1, 41649, Control_c, 0, 64, 69
1, 41664, Control_c, 0, 64, 51
1, 41679, Control_c, 0, 64, 15
1, 41685, Note_off_c, 0, 78, 63
1, 41693, Control_c, 0, 64, 16
1, 41708, Control_c, 0, 64, 22
1, 41723, Control_c, 0, 64, 33
1, 41738, Control_c, 0, 64, 48
1, 41753, Control_c, 0, 64, 61
1, 41767, Control_c, 0, 64, 67
1, 41782, Control_c, 0, 64, 73
1, 41797, Control_c, 0, 64, 82
1, 41810, Note_off_c, 0, 51, 64
1, 41812, Control_c, 0, 64, 102
1, 41827, Control_c, 0, 64, 127
1, 41885, Note_on_c, 0, 75, 50
1, 41900, Note_on_c, 0, 67, 43
1, 41919, Note_off_c, 0, 73, 42
1, 42011, Note_on_c, 0, 84, 75
1, 42043, Note_off_c, 0, 79, 61
1, 42055, Note_off_c, 0, 75, 52
1, 42166, Note_off_c, 0, 67, 38
1, 42171, Note_on_c, 0, 63, 28
1, 42190, Note_on_c, 0, 73, 42
1, 42215, Note_off_c, 0, 63, 63
1, 42329, Note_on_c, 0, 82, 62
1, 42400, Note_off_c, 0, 73, 36
1, 42443, Control_c, 0, 64, 118
1, 42457, Control_c, 0, 64, 112
1, 42472, Control_c, 0, 64, 107
1, 42487, Control_c, 0, 64, 104
1, 42494, Note_on_c, 0, 44, 39
1, 42502, Note_off_c, 0, 84, 37
1, 42502, Control_c, 0, 64, 101
1, 42514, Note_on_c, 0, 80, 60
1, 42516, Control_c, 0, 64, 98
1, 42531, Control_c, 0, 64, 90
1, 42546, Note_on_c, 0, 72, 39
1, 42546, Note_off_c, 0, 82, 57
1, 42546, Control_c, 0, 64, 78
1, 42561, Control_c, 0, 64, 66
1, 42576, Control_c, 0, 64, 50
1, 42590, Control_c, 0, 64, 36
1, 42613, Control_c, 0, 64, 37
1, 42628, Control_c, 0, 64, 40
1, 42643, Control_c, 0, 64, 46
1, 42658, Control_c, 0, 64, 54
1, 42672, Control_c, 0, 64, 60
1, 42687, Control_c, 0, 64, 64
1, 42688, Note_off_c, 0, 72, 56
1, 42702, Control_c, 0, 64, 67
1, 42716, Control_c, 0, 64, 71
1, 42725, Note_off_c, 0, 80, 63
1, 42731, Control_c, 0, 64, 79
1, 42741, Note_off_c, 0, 44, 53
1, 42746, Control_c, 0, 64, 91
1, 42747, Note_on_c, 0, 51, 50
1, 42761, Control_c, 0, 64, 127
1, 42929, Note_on_c, 0, 56, 42
1, 43000, Note_off_c, 0, 51, 37
1, 43124, Note_on_c, 0, 72, 53
1, 43126, Note_on_c, 0, 63, 34
1, 43141, Note_off_c, 0, 56, 40
1, 43289, Note_off_c, 0, 63, 43
1, 43289, Note_off_c, 0, 72, 59
1, 43292, Note_on_c, 0, 73, 65
1, 43303, Note_on_c, 0, 65, 46
1, 43397, Note_off_c, 0, 65, 57
1, 43457, Note_on_c, 0, 77, 70
1, 43459, Note_off_c, 0, 73, 60
1, 43480, Note_on_c, 0, 68, 49
1, 43578, Note_off_c, 0, 68, 55
1, 43594, Note_on_c, 0, 75, 73
1, 43620, Note_off_c, 0, 77, 62
1, 43622, Note_on_c, 0, 67, 44
1, 43647, Note_off_c, 0, 67, 58
1, 43652, Note_off_c, 0, 75, 62
1, 43753, Note_on_c, 0, 69, 73
1, 43779, Note_on_c, 0, 60, 39
1, 43811, Note_off_c, 0, 60, 52
1, 43890, Note_on_c, 0, 70, 77
1, 43906, Note_on_c, 0, 61, 59
1, 43955, Note_off_c, 0, 69, 40
1, 43970, Control_c, 0, 64, 112
1, 43976, Note_off_c, 0, 61, 53
1, 43985, Control_c, 0, 64, 107
1, 44000, Control_c, 0, 64, 104
1, 44015, Control_c, 0, 64, 100
1, 44029, Control_c, 0, 64, 96
1, 44044, Control_c, 0, 64, 90
1, 44055, Note_on_c, 0, 73, 72
1, 44059, Control_c, 0, 64, 83
1, 44065, Note_on_c, 0, 63, 42
1, 44065, Note_on_c, 0, 65, 45
1, 44074, Control_c, 0, 64, 74
1, 44089, Control_c, 0, 64, 64
1, 44111, Note_off_c, 0, 70, 56
1, 44111, Control_c, 0, 64, 51
1, 44126, Control_c, 0, 64, 43
1, 44141, Control_c, 0, 64, 45
1, 44156, Control_c, 0, 64, 46
1, 44170, Control_c, 0, 64, 50
1, 44185, Control_c, 0, 64, 55
1, 44200, Control_c, 0, 64, 59
1, 44215, Control_c, 0, 64, 62
1, 44216, Note_on_c, 0, 55, 47
1, 44220, Note_off_c, 0, 63, 62
1, 44230, Control_c, 0, 64, 65
1, 44244, Control_c, 0, 64, 68
1, 44259, Control_c, 0, 64, 72
1, 44274, Control_c, 0, 64, 83
1, 44289, Control_c, 0, 64, 106
1, 44297, Note_off_c, 0, 65, 53
1, 44304, Control_c, 0, 64, 127
1, 44352, Note_on_c, 0, 51, 60
1, 44362, Note_off_c, 0, 55, 61
1, 44509, Note_on_c, 0, 44, 61
1, 44523, Note_off_c, 0, 51, 56
1, 44541, Control_c, 0, 64, 87
1, 44556, Control_c, 0, 64, 65
1, 44571, Control_c, 0, 64, 40
1, 44585, Control_c, 0, 64, 17
1, 44600, Control_c, 0, 64, 29
1, 44615, Control_c, 0, 64, 40
1, 44630, Control_c, 0, 64, 52
1, 44645, Control_c, 0, 64, 61
1, 44659, Control_c, 0, 64, 65
1, 44661, Note_on_c, 0, 71, 66
1, 44667, Note_on_c, 0, 51, 52
1, 44673, Note_off_c, 0, 73, 60
1, 44674, Control_c, 0, 64, 69
1, 44679, Note_on_c, 0, 62, 47
1, 44683, Note_off_c, 0, 44, 61
1, 44689, Control_c, 0, 64, 74
1, 44704, Control_c, 0, 64, 83
1, 44718, Note_off_c, 0, 62, 63
1, 44718, Control_c, 0, 64, 98
1, 44733, Control_c, 0, 64, 127
1, 44818, Note_on_c, 0, 56, 57
1, 44822, Note_on_c, 0, 72, 74
1, 44822, Note_off_c, 0, 51, 53
1, 44828, Note_off_c, 0, 71, 58
1, 44837, Note_on_c, 0, 63, 57
1, 44888, Note_off_c, 0, 56, 56
1, 44896, Note_off_c, 0, 63, 52
1, 44914, Note_off_c, 0, 72, 61
1, 44999, Note_on_c, 0, 72, 67
1, 45010, Note_on_c, 0, 63, 53
1, 45022, Control_c, 0, 64, 113
1, 45037, Control_c, 0, 64, 109
1, 45052, Control_c, 0, 64, 105
1, 45066, Control_c, 0, 64, 104
1, 45081, Control_c, 0, 64, 102
1, 45096, Control_c, 0, 64, 99
1, 45111, Control_c, 0, 64, 95
1, 45126, Control_c, 0, 64, 91
1, 45141, Control_c, 0, 64, 86
1, 45150, Note_on_c, 0, 75, 72
1, 45155, Note_on_c, 0, 67, 60
1, 45155, Note_off_c, 0, 72, 58
1, 45156, Control_c, 0, 64, 83
1, 45170, Control_c, 0, 64, 80
1, 45176, Note_off_c, 0, 63, 36
1, 45185, Control_c, 0, 64, 78
1, 45200, Control_c, 0, 64, 78
1, 45215, Control_c, 0, 64, 79
1, 45230, Control_c, 0, 64, 80
1, 45245, Control_c, 0, 64, 81
1, 45260, Control_c, 0, 64, 84
1, 45275, Control_c, 0, 64, 88
1, 45290, Control_c, 0, 64, 94
1, 45294, Note_off_c, 0, 67, 62
1, 45296, Note_on_c, 0, 73, 76
1, 45305, Control_c, 0, 64, 107
1, 45308, Note_on_c, 0, 65, 64
1, 45319, Control_c, 0, 64, 127
1, 45325, Note_off_c, 0, 75, 62
1, 45348, Note_off_c, 0, 65, 60
1, 45357, Note_off_c, 0, 73, 63
1, 45440, Note_on_c, 0, 72, 75
1, 45451, Note_on_c, 0, 63, 59
1, 45482, Control_c, 0, 64, 121
1, 45497, Control_c, 0, 64, 118
1, 45512, Control_c, 0, 64, 116
1, 45527, Control_c, 0, 64, 115
1, 45541, Control_c, 0, 64, 112
1, 45556, Control_c, 0, 64, 110
1, 45557, Note_off_c, 0, 63, 59
1, 45571, Control_c, 0, 64, 108
1, 45586, Note_on_c, 0, 69, 76
1, 45586, Control_c, 0, 64, 106
1, 45592, Note_off_c, 0, 72, 63
1, 45593, Note_on_c, 0, 60, 64
1, 45601, Control_c, 0, 64, 105
1, 45623, Control_c, 0, 64, 104
1, 45635, Note_off_c, 0, 60, 64
1, 45638, Control_c, 0, 64, 103
1, 45653, Control_c, 0, 64, 102
1, 45668, Control_c, 0, 64, 100
1, 45683, Control_c, 0, 64, 99
1, 45697, Control_c, 0, 64, 97
1, 45712, Control_c, 0, 64, 95
1, 45716, Note_off_c, 0, 69, 61
1, 45727, Control_c, 0, 64, 93
1, 45728, Note_on_c, 0, 70, 75
1, 45741, Control_c, 0, 64, 90
1, 45746, Note_on_c, 0, 61, 59
1, 45756, Control_c, 0, 64, 88
1, 45771, Control_c, 0, 64, 86
1, 45786, Control_c, 0, 64, 84
1, 45801, Control_c, 0, 64, 81
1, 45803, Note_off_c, 0, 70, 62
1, 45815, Control_c, 0, 64, 78
1, 45830, Control_c, 0, 64, 75
1, 45838, Note_off_c, 0, 61, 59
1, 45845, Control_c, 0, 64, 72
1, 45860, Control_c, 0, 64, 69
1, 45875, Control_c, 0, 64, 67
1, 45877, Note_on_c, 0, 71, 65
1, 45889, Control_c, 0, 64, 66
1, 45895, Note_on_c, 0, 62, 46
1, 45904, Control_c, 0, 64, 65
1, 45919, Control_c, 0, 64, 65
1, 45934, Control_c, 0, 64, 64
1, 45948, Control_c, 0, 64, 63
1, 45963, Control_c, 0, 64, 61
1, 45978, Control_c, 0, 64, 57
1, 45993, Control_c, 0, 64, 51
1, 46009, Control_c, 0, 64, 46
1, 46024, Control_c, 0, 64, 45
1, 46029, Note_on_c, 0, 55, 40
1, 46039, Control_c, 0, 64, 45
1, 46040, Note_on_c, 0, 73, 62
1, 46044, Note_off_c, 0, 62, 54
1, 46054, Control_c, 0, 64, 46
1, 46065, Note_on_c, 0, 65, 44
1, 46068, Note_off_c, 0, 71, 61
1, 46069, Control_c, 0, 64, 49
1, 46084, Control_c, 0, 64, 53
1, 46099, Control_c, 0, 64, 57
1, 46113, Control_c, 0, 64, 60
1, 46128, Control_c, 0, 64, 63
1, 46143, Control_c, 0, 64, 66
1, 46157, Control_c, 0, 64, 70
1, 46172, Control_c, 0, 64, 75
1, 46187, Control_c, 0, 64, 82
1, 46202, Control_c, 0, 64, 89
1, 46205, Note_on_c, 0, 51, 48
1, 46205, Note_off_c, 0, 55, 56
1, 46206, Note_on_c, 0, 72, 62
1, 46217, Control_c, 0, 64, 95
1, 46220, Note_on_c, 0, 63, 46
1, 46232, Control_c, 0, 64, 97
1, 46247, Control_c, 0, 64, 96
1, 46261, Note_off_c, 0, 73, 39
1, 46261, Control_c, 0, 64, 95
1, 46267, Note_off_c, 0, 63, 62
1, 46276, Control_c, 0, 64, 94
1, 46291, Control_c, 0, 64, 93
1, 46306, Control_c, 0, 64, 91
1, 46321, Control_c, 0, 64, 89
1, 46336, Control_c, 0, 64, 87
1, 46348, Note_off_c, 0, 51, 35
1, 46351, Control_c, 0, 64, 86
1, 46372, Control_c, 0, 64, 83
1, 46384, Note_off_c, 0, 72, 35
1, 46387, Control_c, 0, 64, 79
1, 46402, Control_c, 0, 64, 72
1, 46405, Note_on_c, 0, 68, 50
1, 46412, Note_on_c, 0, 44, 38
1, 46417, Control_c, 0, 64, 62
1, 46430, Note_off_c, 0, 65, 40
1, 46432, Control_c, 0, 64, 44
1, 46442, Note_on_c, 0, 60, 39
1, 46446, Control_c, 0, 64, 35
1, 46461, Control_c, 0, 64, 37
1, 46476, Control_c, 0, 64, 41
1, 46491, Control_c, 0, 64, 48
1, 46505, Note_off_c, 0, 60, 57
1, 46506, Control_c, 0, 64, 55
1, 46521, Control_c, 0, 64, 60
1, 46536, Control_c, 0, 64, 63
1, 46551, Control_c, 0, 64, 65
1, 46565, Control_c, 0, 64, 68
1, 46574, Note_off_c, 0, 44, 56
1, 46580, Control_c, 0, 64, 73
1, 46580, Note_on_c, 0, 51, 49
1, 46592, Note_off_c, 0, 68, 63
1, 46595, Control_c, 0, 64, 82
1, 46610, Control_c, 0, 64, 101
1, 46625, Control_c, 0, 64, 127
1, 46740, Note_on_c, 0, 56, 50
1, 46849, Note_off_c, 0, 51, 32
1, 46890, Note_on_c, 0, 63, 40
1, 46896, Note_on_c, 0, 84, 63
1, 46903, Note_off_c, 0, 56, 34
1, 46920, Note_on_c, 0, 75, 42
1, 46953, Note_off_c, 0, 75, 62
1, 47056, Note_off_c, 0, 63, 36
1, 47057, Note_on_c, 0, 85, 76
1, 47060, Note_on_c, 0, 77, 57
1, 47066, Note_off_c, 0, 84, 59
1, 47186, Note_off_c, 0, 77, 58
1, 47214, Note_on_c, 0, 89, 84
1, 47222, Note_on_c, 0, 80, 64
1, 47239, Note_off_c, 0, 85, 63
1, 47329, Note_off_c, 0, 80, 53
1, 47349, Note_on_c, 0, 87, 84
1, 47361, Note_on_c, 0, 79, 60
1, 47379, Note_off_c, 0, 89, 63
1, 47390, Note_off_c, 0, 79, 67
1, 47403, Note_off_c, 0, 87, 67
1, 47495, Note_on_c, 0, 81, 75
1, 47509, Note_on_c, 0, 72, 64
1, 47533, Note_off_c, 0, 72, 65
1, 47624, Note_on_c, 0, 82, 88
1, 47627, Note_on_c, 0, 73, 74
1, 47688, Note_off_c, 0, 81, 59
1, 47701, Control_c, 0, 64, 112
1, 47716, Control_c, 0, 64, 105
1, 47731, Control_c, 0, 64, 101
1, 47746, Control_c, 0, 64, 98
1, 47750, Note_off_c, 0, 73, 60
1, 47761, Control_c, 0, 64, 94
1, 47767, Note_on_c, 0, 63, 45
1, 47776, Control_c, 0, 64, 90
1, 47784, Note_on_c, 0, 85, 86
1, 47791, Control_c, 0, 64, 85
1, 47797, Note_on_c, 0, 77, 59
1, 47805, Control_c, 0, 64, 79
1, 47820, Control_c, 0, 64, 71
1, 47835, Control_c, 0, 64, 63
1, 47843, Note_off_c, 0, 82, 57
1, 47857, Control_c, 0, 64, 53
1, 47872, Control_c, 0, 64, 50
1, 47886, Control_c, 0, 64, 52
1, 47901, Control_c, 0, 64, 53
1, 47916, Control_c, 0, 64, 58
1, 47923, Note_off_c, 0, 63, 62
1, 47931, Control_c, 0, 64, 62
1, 47932, Note_on_c, 0, 55, 59
1, 47946, Control_c, 0, 64, 65
1, 47961, Control_c, 0, 64, 69
1, 47975, Control_c, 0, 64, 75
1, 47990, Control_c, 0, 64, 86
1, 47996, Note_off_c, 0, 77, 59
1, 48005, Control_c, 0, 64, 114
1, 48020, Control_c, 0, 64, 127
1, 48065, Note_on_c, 0, 51, 71
1, 48092, Note_off_c, 0, 55, 63
1, 48219, Note_on_c, 0, 44, 67
1, 48249, Note_off_c, 0, 51, 60
1, 48257, Control_c, 0, 64, 92
1, 48272, Control_c, 0, 64, 72
1, 48286, Control_c, 0, 64, 49
1, 48301, Control_c, 0, 64, 0
1, 48316, Control_c, 0, 64, 10
1, 48330, Control_c, 0, 64, 36
1, 48345, Control_c, 0, 64, 53
1, 48358, Note_on_c, 0, 83, 77
1, 48360, Control_c, 0, 64, 62
1, 48368, Note_on_c, 0, 74, 60
1, 48375, Control_c, 0, 64, 68
1, 48378, Note_on_c, 0, 51, 61
1, 48379, Note_off_c, 0, 85, 65
1, 48390, Control_c, 0, 64, 75
1, 48396, Note_off_c, 0, 44, 64
1, 48406, Control_c, 0, 64, 85
1, 48411, Note_off_c, 0, 74, 63
1, 48421, Control_c, 0, 64, 99
1, 48435, Control_c, 0, 64, 127
1, 48521, Note_on_c, 0, 84, 88
1, 48526, Note_on_c, 0, 56, 60
1, 48530, Note_on_c, 0, 75, 75
1, 48565, Note_off_c, 0, 83, 62
1, 48598, Note_off_c, 0, 75, 56
1, 48611, Note_off_c, 0, 51, 37
1, 48631, Note_off_c, 0, 84, 61
1, 48699, Note_on_c, 0, 84, 79
1, 48701, Note_on_c, 0, 63, 52
1, 48702, Note_on_c, 0, 76, 69
1, 48720, Note_off_c, 0, 56, 36
1, 48834, Note_off_c, 0, 76, 55
1, 48852, Note_on_c, 0, 79, 70
1, 48852, Note_on_c, 0, 87, 84
1, 48864, Note_off_c, 0, 84, 57
1, 48873, Note_off_c, 0, 63, 35
1, 48992, Note_on_c, 0, 85, 85
1, 48992, Note_off_c, 0, 79, 65
1, 48996, Note_on_c, 0, 77, 76
1, 49030, Note_off_c, 0, 87, 64
1, 49052, Note_off_c, 0, 77, 61
1, 49066, Note_off_c, 0, 85, 65
1, 49129, Note_on_c, 0, 84, 87
1, 49138, Note_on_c, 0, 75, 78
1, 49213, Control_c, 0, 64, 121
1, 49228, Control_c, 0, 64, 119
1, 49257, Control_c, 0, 64, 118
1, 49261, Note_off_c, 0, 75, 60
1, 49268, Note_on_c, 0, 81, 78
1, 49273, Note_on_c, 0, 72, 76
1, 49287, Control_c, 0, 64, 117
1, 49290, Note_off_c, 0, 84, 62
1, 49317, Note_off_c, 0, 72, 60
1, 49412, Note_on_c, 0, 82, 84
1, 49417, Note_on_c, 0, 73, 75
1, 49426, Note_off_c, 0, 81, 52
1, 49472, Control_c, 0, 64, 116
1, 49487, Note_off_c, 0, 82, 65
1, 49487, Control_c, 0, 64, 114
1, 49498, Note_off_c, 0, 73, 62
1, 49502, Control_c, 0, 64, 111
1, 49517, Control_c, 0, 64, 110
1, 49531, Control_c, 0, 64, 108
1, 49546, Control_c, 0, 64, 106
1, 49561, Control_c, 0, 64, 103
1, 49564, Note_on_c, 0, 83, 73
1, 49574, Note_on_c, 0, 63, 44
1, 49576, Control_c, 0, 64, 98
1, 49584, Note_on_c, 0, 74, 56
1, 49591, Control_c, 0, 64, 87
1, 49606, Control_c, 0, 64, 77
1, 49621, Control_c, 0, 64, 66
1, 49636, Control_c, 0, 64, 56
1, 49650, Control_c, 0, 64, 49
1, 49665, Control_c, 0, 64, 51
1, 49680, Control_c, 0, 64, 55
1, 49695, Control_c, 0, 64, 58
1, 49702, Note_off_c, 0, 74, 55
1, 49710, Control_c, 0, 64, 62
1, 49719, Note_off_c, 0, 63, 62
1, 49724, Control_c, 0, 64, 65
1, 49730, Note_on_c, 0, 55, 41
1, 49734, Note_on_c, 0, 85, 73
1, 49739, Control_c, 0, 64, 69
1, 49754, Control_c, 0, 64, 75
1, 49755, Note_on_c, 0, 77, 48
1, 49758, Note_off_c, 0, 83, 54
1, 49769, Control_c, 0, 64, 92
1, 49779, Note_on_c, 0, 78, 21
1, 49783, Control_c, 0, 64, 127
1, 49886, Note_off_c, 0, 55, 61
1, 49892, Note_on_c, 0, 51, 51
1, 49892, Note_on_c, 0, 84, 70
1, 49901, Note_on_c, 0, 75, 47
1, 49907, Note_off_c, 0, 85, 65
1, 49950, Note_off_c, 0, 75, 51
1, 49967, Note_off_c, 0, 51, 55
1, 50036, Control_c, 0, 64, 106
1, 50051, Control_c, 0, 64, 81
1, 50064, Note_on_c, 0, 44, 38
1, 50066, Control_c, 0, 64, 64
1, 50071, Note_off_c, 0, 78, 10
1, 50075, Note_off_c, 0, 84, 55
1, 50080, Control_c, 0, 64, 0
1, 50105, Note_on_c, 0, 80, 60
1, 50109, Note_off_c, 0, 77, 43
1, 50116, Note_on_c, 0, 72, 49
1, 50133, Control_c, 0, 64, 21
1, 50148, Control_c, 0, 64, 53
1, 50162, Control_c, 0, 64, 64
1, 50174, Note_off_c, 0, 44, 62
1, 50177, Control_c, 0, 64, 70
1, 50192, Control_c, 0, 64, 78
1, 50197, Note_off_c, 0, 72, 63
1, 50206, Control_c, 0, 64, 93
1, 50221, Control_c, 0, 64, 127
1, 50241, Note_off_c, 0, 80, 65
1, 50313, Note_on_c, 0, 59, 78
1, 50321, Note_on_c, 0, 51, 68
1, 50447, Note_off_c, 0, 51, 38
1, 50480, Note_on_c, 0, 60, 89
1, 50483, Note_on_c, 0, 56, 61
1, 50494, Note_off_c, 0, 59, 63
1, 50521, Note_off_c, 0, 56, 65
1, 50559, Note_off_c, 0, 60, 65
1, 50665, Control_c, 0, 64, 123
1, 50679, Note_on_c, 0, 43, 64
1, 50679, Control_c, 0, 64, 99
1, 50694, Control_c, 0, 64, 79
1, 50703, Note_on_c, 0, 61, 90
1, 50709, Control_c, 0, 64, 61
1, 50724, Control_c, 0, 64, 20
1, 50739, Control_c, 0, 64, 14
1, 50754, Control_c, 0, 64, 32
1, 50769, Control_c, 0, 64, 47
1, 50783, Control_c, 0, 64, 59
1, 50797, Note_off_c, 0, 43, 63
1, 50799, Control_c, 0, 64, 66
1, 50814, Control_c, 0, 64, 72
1, 50828, Control_c, 0, 64, 83
1, 50851, Control_c, 0, 64, 109
1, 50866, Control_c, 0, 64, 127
1, 50901, Note_off_c, 0, 61, 62
1, 50906, Note_on_c, 0, 52, 64
1, 50980, Note_off_c, 0, 52, 63
1, 51024, Note_on_c, 0, 61, 64
1, 51030, Note_on_c, 0, 58, 60
1, 51055, Note_off_c, 0, 58, 63
1, 51056, Note_off_c, 0, 61, 64
1, 51180, Note_on_c, 0, 41, 71
1, 51192, Control_c, 0, 64, 83
1, 51207, Control_c, 0, 64, 65
1, 51222, Control_c, 0, 64, 53
1, 51236, Control_c, 0, 64, 58
1, 51251, Control_c, 0, 64, 65
1, 51265, Note_off_c, 0, 41, 65
1, 51266, Control_c, 0, 64, 73
1, 51281, Control_c, 0, 64, 88
1, 51296, Control_c, 0, 64, 127
1, 51334, Note_on_c, 0, 64, 70
1, 51358, Note_on_c, 0, 53, 63
1, 51427, Note_off_c, 0, 53, 62
1, 51463, Note_on_c, 0, 58, 59
1, 51466, Note_on_c, 0, 65, 76
1, 51471, Note_off_c, 0, 64, 62
1, 51477, Note_on_c, 0, 61, 36
1, 51486, Note_off_c, 0, 58, 60
1, 51506, Note_off_c, 0, 61, 53
1, 51506, Note_off_c, 0, 65, 59
1, 51600, Control_c, 0, 64, 98
1, 51612, Note_on_c, 0, 40, 63
1, 51615, Control_c, 0, 64, 74
1, 51630, Control_c, 0, 64, 56
1, 51635, Note_on_c, 0, 68, 68
1, 51645, Control_c, 0, 64, 0
1, 51659, Control_c, 0, 64, 29
1, 51674, Control_c, 0, 64, 50
1, 51689, Note_off_c, 0, 40, 64
1, 51689, Control_c, 0, 64, 61
1, 51704, Control_c, 0, 64, 68
1, 51719, Control_c, 0, 64, 77
1, 51726, Note_off_c, 0, 68, 62
1, 51728, Note_on_c, 0, 66, 68
1, 51733, Control_c, 0, 64, 105
1, 51748, Control_c, 0, 64, 127
1, 51793, Note_off_c, 0, 66, 62
1, 51799, Note_on_c, 0, 55, 63
1, 51807, Note_on_c, 0, 67, 75
1, 51855, Note_off_c, 0, 67, 59
1, 51865, Note_off_c, 0, 55, 57
1, 51872, Note_on_c, 0, 68, 82
1, 51902, Note_on_c, 0, 58, 60
1, 51913, Note_on_c, 0, 61, 51
1, 51923, Note_off_c, 0, 68, 63
1, 51926, Note_off_c, 0, 58, 63
1, 51935, Note_on_c, 0, 69, 82
1, 51938, Note_off_c, 0, 61, 57
1, 51990, Note_on_c, 0, 70, 87
1, 52012, Note_off_c, 0, 69, 62
1, 52029, Control_c, 0, 64, 97
1, 52044, Control_c, 0, 64, 70
1, 52046, Note_on_c, 0, 46, 56
1, 52059, Control_c, 0, 64, 38
1, 52074, Control_c, 0, 64, 0
1, 52079, Note_on_c, 0, 73, 92
1, 52086, Note_off_c, 0, 70, 64
1, 52119, Control_c, 0, 64, 40
1, 52133, Note_off_c, 0, 46, 63
1, 52133, Control_c, 0, 64, 62
1, 52148, Control_c, 0, 64, 71
1, 52163, Control_c, 0, 64, 89
1, 52177, Control_c, 0, 64, 127
1, 52182, Note_off_c, 0, 73, 66
1, 52247, Note_on_c, 0, 60, 87
1, 52258, Note_on_c, 0, 53, 68
1, 52361, Note_off_c, 0, 53, 62
1, 52375, Note_on_c, 0, 58, 64
1, 52388, Note_on_c, 0, 61, 94
1, 52412, Note_off_c, 0, 60, 62
1, 52435, Note_off_c, 0, 58, 63
1, 52458, Note_off_c, 0, 61, 63
1, 52556, Control_c, 0, 64, 88
1, 52570, Note_on_c, 0, 44, 75
1, 52571, Control_c, 0, 64, 62
1, 52580, Note_on_c, 0, 62, 92
1, 52586, Control_c, 0, 64, 0
1, 52630, Control_c, 0, 64, 19
1, 52645, Control_c, 0, 64, 54
1, 52660, Control_c, 0, 64, 67
1, 52671, Note_off_c, 0, 44, 62
1, 52674, Control_c, 0, 64, 77
1, 52689, Control_c, 0, 64, 99
1, 52704, Control_c, 0, 64, 127
1, 52763, Note_on_c, 0, 53, 73
1, 52772, Note_off_c, 0, 62, 61
1, 52837, Note_off_c, 0, 53, 61
1, 52885, Note_on_c, 0, 62, 67
1, 52885, Note_on_c, 0, 59, 60
1, 52909, Note_off_c, 0, 62, 69
1, 52911, Note_off_c, 0, 59, 63
1, 53022, Note_on_c, 0, 42, 93
1, 53030, Control_c, 0, 64, 77
1, 53045, Control_c, 0, 64, 59
1, 53060, Control_c, 0, 64, 39
1, 53074, Control_c, 0, 64, 55
1, 53089, Control_c, 0, 64, 64
1, 53112, Control_c, 0, 64, 71
1, 53121, Note_off_c, 0, 42, 64
1, 53126, Control_c, 0, 64, 89
1, 53141, Control_c, 0, 64, 127
1, 53191, Note_on_c, 0, 65, 80
1, 53209, Note_on_c, 0, 54, 72
1, 53305, Note_off_c, 0, 54, 62
1, 53312, Note_on_c, 0, 62, 51
1, 53313, Note_on_c, 0, 59, 49
1, 53317, Note_on_c, 0, 66, 82
1, 53336, Note_off_c, 0, 62, 60
1, 53341, Note_off_c, 0, 65, 51
1, 53342, Note_off_c, 0, 59, 56
1, 53385, Note_off_c, 0, 66, 61
1, 53454, Note_on_c, 0, 41, 71
1, 53457, Note_on_c, 0, 40, 77
1, 53468, Control_c, 0, 64, 79
1, 53469, Note_on_c, 0, 69, 74
1, 53483, Control_c, 0, 64, 58
1, 53497, Control_c, 0, 64, 0
1, 53512, Control_c, 0, 64, 44
1, 53526, Note_off_c, 0, 40, 63
1, 53526, Note_off_c, 0, 69, 65
1, 53527, Control_c, 0, 64, 61
1, 53542, Control_c, 0, 64, 68
1, 53553, Note_off_c, 0, 41, 66
1, 53554, Note_on_c, 0, 67, 79
1, 53557, Control_c, 0, 64, 81
1, 53571, Control_c, 0, 64, 127
1, 53618, Note_off_c, 0, 67, 45
1, 53630, Note_on_c, 0, 68, 88
1, 53639, Note_on_c, 0, 56, 82
1, 53672, Note_off_c, 0, 68, 65
1, 53690, Note_on_c, 0, 69, 83
1, 53750, Note_on_c, 0, 62, 73
1, 53755, Note_on_c, 0, 59, 63
1, 53757, Note_on_c, 0, 70, 92
1, 53776, Note_off_c, 0, 59, 63
1, 53776, Note_off_c, 0, 62, 66
1, 53777, Note_off_c, 0, 56, 62
1, 53790, Note_off_c, 0, 69, 62
1, 53815, Note_on_c, 0, 71, 91
1, 53860, Control_c, 0, 64, 93
1, 53861, Note_off_c, 0, 70, 60
1, 53875, Control_c, 0, 64, 57
1, 53890, Control_c, 0, 64, 0
1, 53899, Note_on_c, 0, 47, 90
1, 53911, Note_on_c, 0, 74, 98
1, 53946, Note_off_c, 0, 71, 61
1, 53949, Control_c, 0, 64, 51
1, 53955, Note_on_c, 0, 72, 33
1, 53964, Control_c, 0, 64, 70
1, 53968, Note_off_c, 0, 47, 64
1, 53979, Control_c, 0, 64, 91
1, 53988, Note_off_c, 0, 72, 48
1, 53994, Control_c, 0, 64, 127
1, 54008, Note_off_c, 0, 74, 70
1, 54092, Note_on_c, 0, 61, 94
1, 54108, Note_on_c, 0, 54, 71
1, 54198, Note_off_c, 0, 54, 63
1, 54231, Note_on_c, 0, 62, 93
1, 54265, Note_off_c, 0, 61, 61
1, 54303, Note_off_c, 0, 62, 65
1, 54409, Control_c, 0, 64, 105
1, 54414, Note_on_c, 0, 45, 79
1, 54424, Control_c, 0, 64, 67
1, 54429, Note_on_c, 0, 63, 90
1, 54438, Control_c, 0, 64, 0
1, 54498, Control_c, 0, 64, 49
1, 54513, Note_off_c, 0, 45, 64
1, 54513, Control_c, 0, 64, 68
1, 54527, Control_c, 0, 64, 85
1, 54542, Control_c, 0, 64, 127
1, 54614, Note_off_c, 0, 63, 64
1, 54615, Note_on_c, 0, 54, 85
1, 54736, Note_off_c, 0, 54, 62
1, 54743, Note_on_c, 0, 63, 76
1, 54748, Note_on_c, 0, 60, 66
1, 54771, Note_off_c, 0, 63, 67
1, 54774, Note_off_c, 0, 60, 66
1, 54900, Note_on_c, 0, 43, 88
1, 54906, Control_c, 0, 64, 112
1, 54921, Control_c, 0, 64, 73
1, 54936, Control_c, 0, 64, 43
1, 54951, Control_c, 0, 64, 0
1, 54966, Control_c, 0, 64, 41
1, 54981, Control_c, 0, 64, 61
1, 54987, Note_off_c, 0, 43, 64
1, 54995, Control_c, 0, 64, 71
1, 55004, Note_on_c, 0, 64, 75
1, 55010, Control_c, 0, 64, 88
1, 55025, Control_c, 0, 64, 127
1, 55085, Note_on_c, 0, 55, 74
1, 55089, Note_on_c, 0, 65, 79
1, 55110, Note_off_c, 0, 64, 57
1, 55166, Note_on_c, 0, 66, 81
1, 55179, Note_off_c, 0, 55, 61
1, 55199, Note_off_c, 0, 65, 61
1, 55209, Note_on_c, 0, 60, 63
1, 55214, Note_on_c, 0, 64, 67
1, 55238, Note_off_c, 0, 60, 66
1, 55240, Note_on_c, 0, 69, 82
1, 55245, Note_off_c, 0, 64, 66
1, 55258, Note_off_c, 0, 66, 65
1, 55294, Note_off_c, 0, 69, 59
1, 55314, Note_on_c, 0, 67, 94
1, 55398, Note_on_c, 0, 48, 81
1, 55404, Note_on_c, 0, 36, 75
1, 55417, Control_c, 0, 64, 93
1, 55426, Note_on_c, 0, 68, 94
1, 55432, Control_c, 0, 64, 61
1, 55447, Control_c, 0, 64, 0
1, 55453, Note_off_c, 0, 67, 63
1, 55479, Note_off_c, 0, 36, 63
1, 55491, Control_c, 0, 64, 49
1, 55505, Note_off_c, 0, 68, 64
1, 55506, Control_c, 0, 64, 70
1, 55512, Note_off_c, 0, 48, 66
1, 55517, Note_on_c, 0, 69, 90
1, 55521, Control_c, 0, 64, 104
1, 55536, Control_c, 0, 64, 127
1, 55602, Note_on_c, 0, 55, 89
1, 55604, Note_on_c, 0, 70, 92
1, 55634, Note_off_c, 0, 69, 61
1, 55690, Note_on_c, 0, 78, 96
1, 55693, Note_off_c, 0, 70, 65
1, 55779, Note_on_c, 0, 64, 90
1, 55781, Note_on_c, 0, 58, 82
1, 55809, Note_on_c, 0, 75, 91
1, 55823, Note_off_c, 0, 55, 63
1, 55827, Note_off_c, 0, 78, 63
1, 55831, Note_off_c, 0, 64, 63
1, 55845, Note_off_c, 0, 58, 65
1, 55900, Note_on_c, 0, 76, 93
1, 56036, Note_off_c, 0, 76, 61
1, 56047, Note_on_c, 0, 47, 90
1, 56049, Note_on_c, 0, 35, 82
1, 56063, Note_on_c, 0, 64, 74
1, 56070, Control_c, 0, 64, 85
1, 56074, Note_off_c, 0, 75, 61
1, 56092, Control_c, 0, 64, 45
1, 56107, Control_c, 0, 64, 0
1, 56140, Note_on_c, 0, 71, 78
1, 56146, Note_off_c, 0, 64, 55
1, 56156, Note_off_c, 0, 35, 62
1, 56166, Control_c, 0, 64, 57
1, 56181, Control_c, 0, 64, 77
1, 56196, Control_c, 0, 64, 127
1, 56215, Note_off_c, 0, 47, 62
1, 56217, Note_on_c, 0, 80, 97
1, 56225, Note_off_c, 0, 71, 66
1, 56271, Note_off_c, 0, 80, 67
1, 56403, Note_on_c, 0, 56, 70
1, 56546, Note_on_c, 0, 64, 65
1, 56638, Note_off_c, 0, 56, 63
1, 56749, Note_on_c, 0, 71, 48
1, 56771, Note_on_c, 0, 80, 77
1, 56926, Note_on_c, 0, 81, 77
1, 56940, Note_on_c, 0, 73, 62
1, 56956, Note_off_c, 0, 71, 56
1, 56964, Note_off_c, 0, 64, 37
1, 56966, Note_off_c, 0, 73, 67
1, 56992, Note_off_c, 0, 80, 61
1, 57074, Note_on_c, 0, 85, 90
1, 57080, Note_on_c, 0, 76, 70
1, 57106, Note_off_c, 0, 81, 64
1, 57156, Note_off_c, 0, 85, 64
1, 57159, Note_off_c, 0, 76, 64
1, 57209, Note_on_c, 0, 83, 82
1, 57216, Note_on_c, 0, 75, 84
1, 57285, Note_off_c, 0, 83, 62
1, 57309, Note_off_c, 0, 75, 62
1, 57349, Note_on_c, 0, 77, 91
1, 57365, Note_on_c, 0, 68, 77
1, 57455, Note_off_c, 0, 68, 59
1, 57472, Note_on_c, 0, 78, 95
1, 57479, Note_on_c, 0, 69, 73
1, 57577, Note_off_c, 0, 77, 52
1, 57602, Note_off_c, 0, 69, 51
1, 57632, Note_on_c, 0, 81, 84
1, 57634, Control_c, 0, 64, 110
1, 57637, Note_on_c, 0, 63, 52
1, 57637, Note_on_c, 0, 73, 69
1, 57649, Control_c, 0, 64, 90
1, 57664, Control_c, 0, 64, 73
1, 57678, Control_c, 0, 64, 60
1, 57693, Control_c, 0, 64, 24
1, 57701, Note_off_c, 0, 78, 59
1, 57708, Control_c, 0, 64, 22
1, 57723, Control_c, 0, 64, 34
1, 57738, Control_c, 0, 64, 47
1, 57753, Control_c, 0, 64, 58
1, 57757, Note_off_c, 0, 63, 63
1, 57768, Control_c, 0, 64, 64
1, 57774, Note_on_c, 0, 57, 67
1, 57783, Control_c, 0, 64, 71
1, 57790, Note_on_c, 0, 62, 8
1, 57798, Control_c, 0, 64, 83
1, 57812, Control_c, 0, 64, 115
1, 57815, Note_off_c, 0, 62, 0
1, 57827, Control_c, 0, 64, 127
1, 57839, Poly_aftertouch_c, 0, 62, 0
1, 57871, Note_off_c, 0, 73, 61
1, 57911, Note_on_c, 0, 47, 64
1, 57940, Note_off_c, 0, 57, 64
1, 57967, Note_off_c, 0, 47, 61
1, 58045, Note_on_c, 0, 47, 63
1, 58080, Control_c, 0, 64, 84
1, 58094, Control_c, 0, 64, 64
1, 58109, Control_c, 0, 64, 10
1, 58124, Control_c, 0, 64, 0
1, 58139, Control_c, 0, 64, 43
1, 58154, Control_c, 0, 64, 61
1, 58168, Control_c, 0, 64, 69
1, 58181, Note_off_c, 0, 81, 56
1, 58183, Control_c, 0, 64, 82
1, 58191, Note_on_c, 0, 56, 63
1, 58194, Note_on_c, 0, 79, 69
1, 58197, Note_off_c, 0, 47, 59
1, 58198, Control_c, 0, 64, 127
1, 58201, Note_on_c, 0, 70, 59
1, 58278, Note_off_c, 0, 56, 62
1, 58280, Note_off_c, 0, 70, 64
1, 58309, Note_off_c, 0, 79, 58
1, 58343, Note_on_c, 0, 64, 62
1, 58349, Note_on_c, 0, 71, 51
1, 58349, Note_on_c, 0, 80, 78
1, 58384, Note_off_c, 0, 71, 61
1, 58435, Note_off_c, 0, 80, 64
1, 58444, Note_off_c, 0, 64, 62
1, 58489, Note_on_c, 0, 71, 58
1, 58499, Note_on_c, 0, 80, 73
1, 58629, Note_off_c, 0, 71, 58
1, 58647, Note_on_c, 0, 75, 74
1, 58649, Note_on_c, 0, 83, 76
1, 58678, Note_off_c, 0, 80, 61
1, 58775, Note_off_c, 0, 75, 58
1, 58777, Note_on_c, 0, 73, 80
1, 58779, Note_on_c, 0, 81, 75
1, 58808, Note_off_c, 0, 83, 61
1, 58838, Note_off_c, 0, 81, 66
1, 58885, Note_off_c, 0, 73, 60
1, 58909, Note_on_c, 0, 80, 70
1, 58910, Note_on_c, 0, 71, 82
1, 59041, Note_on_c, 0, 77, 83
1, 59048, Note_off_c, 0, 71, 60
1, 59050, Note_on_c, 0, 68, 80
1, 59060, Note_off_c, 0, 80, 58
1, 59172, Note_off_c, 0, 77, 53
1, 59173, Note_off_c, 0, 68, 61
1, 59180, Note_on_c, 0, 78, 86
1, 59184, Note_on_c, 0, 69, 79
1, 59230, Note_off_c, 0, 69, 60
1, 59249, Note_off_c, 0, 78, 66
1, 59322, Note_on_c, 0, 79, 81
1, 59327, Note_on_c, 0, 63, 48
1, 59332, Note_on_c, 0, 70, 69
1, 59339, Control_c, 0, 64, 87
1, 59354, Control_c, 0, 64, 68
1, 59369, Control_c, 0, 64, 47
1, 59384, Control_c, 0, 64, 40
1, 59398, Control_c, 0, 64, 51
1, 59413, Control_c, 0, 64, 60
1, 59428, Note_off_c, 0, 70, 63
1, 59428, Control_c, 0, 64, 65
1, 59434, Note_off_c, 0, 63, 63
1, 59443, Control_c, 0, 64, 71
1, 59458, Control_c, 0, 64, 84
1, 59461, Note_on_c, 0, 57, 64
1, 59473, Control_c, 0, 64, 127
1, 59473, Note_on_c, 0, 73, 76
1, 59473, Note_on_c, 0, 81, 81
1, 59505, Note_off_c, 0, 79, 64
1, 59510, Poly_aftertouch_c, 0, 62, 127
1, 59538, Poly_aftertouch_c, 0, 62, 0
1, 59610, Note_on_c, 0, 47, 59
1, 59614, Note_on_c, 0, 80, 88
1, 59616, Note_off_c, 0, 73, 63
1, 59621, Note_on_c, 0, 71, 72
1, 59628, Note_off_c, 0, 57, 64
1, 59647, Note_off_c, 0, 71, 68
1, 59653, Note_off_c, 0, 47, 63
1, 59676, Note_off_c, 0, 81, 62
1, 59740, Control_c, 0, 64, 91
1, 59741, Note_on_c, 0, 47, 71
1, 59755, Control_c, 0, 64, 65
1, 59758, Note_on_c, 0, 76, 86
1, 59770, Control_c, 0, 64, 0
1, 59774, Note_on_c, 0, 68, 66
1, 59783, Note_off_c, 0, 80, 66
1, 59804, Note_off_c, 0, 68, 66
1, 59814, Control_c, 0, 64, 54
1, 59829, Control_c, 0, 64, 72
1, 59851, Control_c, 0, 64, 111
1, 59866, Control_c, 0, 64, 127
1, 59878, Note_off_c, 0, 76, 64
1, 59918, Note_on_c, 0, 56, 81
1, 59933, Note_off_c, 0, 47, 59
1, 60022, Note_off_c, 0, 56, 63
1, 60039, Note_on_c, 0, 64, 81
1, 60191, Note_off_c, 0, 64, 63
1, 60199, Note_on_c, 0, 92, 101
1, 60206, Note_on_c, 0, 71, 66
1, 60223, Note_on_c, 0, 83, 59
1, 60243, Note_off_c, 0, 83, 61
1, 60336, Note_on_c, 0, 93, 94
1, 60352, Note_off_c, 0, 71, 60
1, 60388, Note_on_c, 0, 85, 34
1, 60421, Note_off_c, 0, 85, 54
1, 60466, Note_on_c, 0, 97, 92
1, 60470, Note_on_c, 0, 88, 79
1, 60483, Note_off_c, 0, 92, 36
1, 60498, Note_off_c, 0, 93, 64
1, 60540, Note_off_c, 0, 97, 64
1, 60559, Note_off_c, 0, 88, 62
1, 60597, Note_on_c, 0, 95, 91
1, 60603, Note_on_c, 0, 87, 87
1, 60662, Note_off_c, 0, 95, 63
1, 60693, Note_off_c, 0, 87, 63
1, 60737, Note_on_c, 0, 89, 93
1, 60743, Note_on_c, 0, 80, 82
1, 60839, Note_off_c, 0, 80, 65
1, 60854, Note_on_c, 0, 90, 93
1, 60858, Note_on_c, 0, 81, 77
1, 60957, Note_off_c, 0, 89, 53
1, 60990, Note_off_c, 0, 81, 57
1, 61002, Note_on_c, 0, 63, 53
1, 61005, Note_on_c, 0, 93, 87
1, 61013, Note_on_c, 0, 85, 66
1, 61014, Control_c, 0, 64, 103
1, 61029, Control_c, 0, 64, 79
1, 61044, Control_c, 0, 64, 62
1, 61059, Control_c, 0, 64, 39
1, 61074, Control_c, 0, 64, 35
1, 61088, Control_c, 0, 64, 46
1, 61095, Note_off_c, 0, 90, 51
1, 61103, Control_c, 0, 64, 54
1, 61118, Control_c, 0, 64, 60
1, 61133, Control_c, 0, 64, 65
1, 61133, Note_off_c, 0, 63, 64
1, 61134, Note_on_c, 0, 57, 66
1, 61148, Control_c, 0, 64, 69
1, 61162, Control_c, 0, 64, 77
1, 61177, Control_c, 0, 64, 94
1, 61193, Control_c, 0, 64, 127
1, 61208, Note_off_c, 0, 85, 64
1, 61273, Note_on_c, 0, 47, 58
1, 61288, Note_off_c, 0, 57, 64
1, 61309, Note_off_c, 0, 47, 63
1, 61398, Note_on_c, 0, 47, 69
1, 61422, Control_c, 0, 64, 110
1, 61437, Control_c, 0, 64, 80
1, 61452, Control_c, 0, 64, 63
1, 61467, Control_c, 0, 64, 28
1, 61482, Control_c, 0, 64, 24
1, 61497, Control_c, 0, 64, 46
1, 61506, Note_off_c, 0, 93, 61
1, 61511, Control_c, 0, 64, 60
1, 61526, Control_c, 0, 64, 66
1, 61529, Note_on_c, 0, 91, 68
1, 61532, Note_on_c, 0, 82, 63
1, 61537, Note_on_c, 0, 56, 65
1, 61537, Note_off_c, 0, 47, 60
1, 61541, Control_c, 0, 64, 73
1, 61556, Control_c, 0, 64, 85
1, 61571, Control_c, 0, 64, 119
1, 61585, Control_c, 0, 64, 127
1, 61615, Note_off_c, 0, 56, 61
1, 61628, Note_off_c, 0, 82, 64
1, 61633, Note_off_c, 0, 91, 63
1, 61666, Note_on_c, 0, 64, 59
1, 61676, Note_on_c, 0, 83, 75
1, 61678, Note_on_c, 0, 92, 86
1, 61731, Note_off_c, 0, 83, 62
1, 61764, Note_off_c, 0, 92, 65
1, 61777, Note_off_c, 0, 64, 60
1, 61819, Note_on_c, 0, 92, 78
1, 61823, Note_on_c, 0, 84, 73
1, 61824, Note_on_c, 0, 71, 62
1, 61934, Note_off_c, 0, 71, 57
1, 61949, Note_on_c, 0, 95, 84
1, 61955, Note_on_c, 0, 87, 78
1, 61965, Note_off_c, 0, 84, 60
1, 61992, Note_off_c, 0, 92, 61
1, 62083, Note_on_c, 0, 85, 91
1, 62084, Note_on_c, 0, 93, 84
1, 62095, Note_off_c, 0, 87, 63
1, 62100, Note_off_c, 0, 95, 62
1, 62149, Note_off_c, 0, 93, 66
1, 62199, Note_off_c, 0, 85, 63
1, 62211, Note_on_c, 0, 83, 84
1, 62218, Note_on_c, 0, 92, 90
1, 62340, Note_on_c, 0, 89, 82
1, 62341, Note_on_c, 0, 80, 86
1, 62346, Note_off_c, 0, 83, 63
1, 62350, Note_off_c, 0, 92, 48
1, 62390, Note_on_c, 0, 87, 39
1, 62420, Note_off_c, 0, 87, 54
1, 62446, Note_off_c, 0, 80, 64
1, 62448, Note_off_c, 0, 89, 58
1, 62475, Note_on_c, 0, 81, 79
1, 62475, Note_on_c, 0, 90, 88
1, 62536, Note_off_c, 0, 81, 59
1, 62554, Note_off_c, 0, 90, 65
1, 62594, Note_on_c, 0, 63, 38
1, 62624, Note_on_c, 0, 93, 81
1, 62625, Note_on_c, 0, 85, 76
1, 62659, Control_c, 0, 64, 90
1, 62674, Control_c, 0, 64, 71
1, 62689, Control_c, 0, 64, 57
1, 62704, Control_c, 0, 64, 44
1, 62719, Control_c, 0, 64, 56
1, 62733, Control_c, 0, 64, 63
1, 62748, Control_c, 0, 64, 67
1, 62758, Note_off_c, 0, 63, 64
1, 62762, Note_on_c, 0, 57, 64
1, 62763, Control_c, 0, 64, 73
1, 62771, Note_off_c, 0, 85, 61
1, 62773, Note_on_c, 0, 92, 86
1, 62779, Control_c, 0, 64, 87
1, 62780, Note_on_c, 0, 83, 84
1, 62794, Control_c, 0, 64, 127
1, 62803, Note_off_c, 0, 93, 65
1, 62849, Note_off_c, 0, 92, 66
1, 62852, Note_off_c, 0, 83, 63
1, 62929, Note_on_c, 0, 47, 63
1, 62943, Note_on_c, 0, 81, 69
1, 62946, Note_on_c, 0, 90, 78
1, 62966, Note_off_c, 0, 57, 62
1, 62974, Note_off_c, 0, 81, 64
1, 62990, Note_off_c, 0, 47, 60
1, 63082, Control_c, 0, 64, 105
1, 63097, Control_c, 0, 64, 75
1, 63111, Note_on_c, 0, 47, 60
1, 63112, Control_c, 0, 64, 57
1, 63118, Note_on_c, 0, 89, 64
1, 63127, Control_c, 0, 64, 0
1, 63133, Note_on_c, 0, 80, 63
1, 63142, Control_c, 0, 64, 34
1, 63154, Note_off_c, 0, 90, 58
1, 63156, Control_c, 0, 64, 54
1, 63172, Control_c, 0, 64, 64
1, 63174, Note_off_c, 0, 89, 63
1, 63184, Note_off_c, 0, 80, 61
1, 63187, Control_c, 0, 64, 74
1, 63202, Control_c, 0, 64, 93
1, 63203, Note_off_c, 0, 47, 61
1, 63217, Control_c, 0, 64, 127
1, 63311, Note_on_c, 0, 62, 49
1, 63342, Note_on_c, 0, 76, 56
1, 63390, Note_off_c, 0, 62, 41
1, 63450, Note_on_c, 0, 77, 74
1, 63452, Note_on_c, 0, 53, 40
1, 63452, Note_off_c, 0, 76, 58
1, 63458, Note_on_c, 0, 68, 63
1, 63494, Poly_aftertouch_c, 0, 56, 127
1, 63530, Poly_aftertouch_c, 0, 56, 0
1, 63546, Note_off_c, 0, 53, 49
1, 63580, Control_c, 0, 64, 113
1, 63586, Note_on_c, 0, 48, 47
1, 63595, Control_c, 0, 64, 94
1, 63610, Control_c, 0, 64, 78
1, 63613, Note_off_c, 0, 68, 37
1, 63615, Note_on_c, 0, 80, 75
1, 63624, Note_on_c, 0, 72, 53
1, 63625, Control_c, 0, 64, 66
1, 63640, Control_c, 0, 64, 54
1, 63641, Note_off_c, 0, 77, 59
1, 63654, Control_c, 0, 64, 47
1, 63669, Control_c, 0, 64, 52
1, 63684, Control_c, 0, 64, 56
1, 63699, Control_c, 0, 64, 59
1, 63713, Control_c, 0, 64, 63
1, 63727, Note_on_c, 0, 60, 50
1, 63728, Control_c, 0, 64, 65
1, 63743, Control_c, 0, 64, 69
1, 63749, Note_off_c, 0, 72, 64
1, 63758, Control_c, 0, 64, 77
1, 63773, Control_c, 0, 64, 92
1, 63787, Control_c, 0, 64, 127
1, 63807, Note_off_c, 0, 80, 65
1, 63821, Note_off_c, 0, 48, 37
1, 63837, Note_off_c, 0, 60, 55
1, 63861, Note_on_c, 0, 53, 52
1, 63867, Note_on_c, 0, 56, 40
1, 63935, Note_off_c, 0, 56, 49
1, 63968, Note_off_c, 0, 53, 57
1, 63976, Note_on_c, 0, 50, 63
1, 63980, Control_c, 0, 64, 112
1, 63995, Control_c, 0, 64, 82
1, 64010, Control_c, 0, 64, 67
1, 64025, Control_c, 0, 64, 56
1, 64040, Control_c, 0, 64, 61
1, 64044, Note_off_c, 0, 50, 65
1, 64054, Control_c, 0, 64, 66
1, 64069, Control_c, 0, 64, 70
1, 64084, Control_c, 0, 64, 77
1, 64096, Note_on_c, 0, 65, 71
1, 64099, Control_c, 0, 64, 91
1, 64108, Note_on_c, 0, 88, 66
1, 64111, Note_on_c, 0, 79, 55
1, 64113, Control_c, 0, 64, 127
1, 64174, Note_off_c, 0, 79, 57
1, 64196, Note_off_c, 0, 65, 56
1, 64215, Note_on_c, 0, 56, 56
1, 64221, Note_on_c, 0, 80, 76
1, 64221, Note_on_c, 0, 89, 74
1, 64235, Note_on_c, 0, 59, 44
1, 64260, Note_off_c, 0, 80, 61
1, 64270, Note_off_c, 0, 88, 51
1, 64281, Note_off_c, 0, 89, 63
1, 64289, Note_off_c, 0, 59, 56
1, 64322, Note_off_c, 0, 56, 63
1, 64332, Note_on_c, 0, 51, 75
1, 64352, Note_on_c, 0, 90, 91
1, 64357, Note_on_c, 0, 81, 76
1, 64358, Control_c, 0, 64, 90
1, 64373, Control_c, 0, 64, 72
1, 64388, Control_c, 0, 64, 60
1, 64403, Control_c, 0, 64, 59
1, 64418, Control_c, 0, 64, 64
1, 64433, Control_c, 0, 64, 68
1, 64448, Control_c, 0, 64, 74
1, 64454, Note_on_c, 0, 91, 90
1, 64456, Note_on_c, 0, 82, 90
1, 64462, Note_on_c, 0, 63, 78
1, 64463, Control_c, 0, 64, 86
1, 64475, Note_off_c, 0, 81, 65
1, 64477, Note_off_c, 0, 90, 64
1, 64478, Control_c, 0, 64, 115
1, 64492, Control_c, 0, 64, 127
1, 64502, Note_off_c, 0, 82, 66
1, 64514, Note_off_c, 0, 91, 65
1, 64516, Note_off_c, 0, 51, 62
1, 64549, Note_on_c, 0, 56, 72
1, 64562, Note_on_c, 0, 59, 66
1, 64568, Note_on_c, 0, 92, 100
1, 64570, Note_on_c, 0, 83, 94
1, 64570, Note_off_c, 0, 63, 61
1, 64636, Note_off_c, 0, 83, 59
1, 64654, Control_c, 0, 64, 81
1, 64669, Control_c, 0, 64, 59
1, 64672, Note_on_c, 0, 53, 83
1, 64677, Note_on_c, 0, 95, 98
1, 64677, Note_off_c, 0, 59, 63
1, 64680, Note_on_c, 0, 86, 88
1, 64684, Control_c, 0, 64, 0
1, 64696, Note_off_c, 0, 56, 62
1, 64699, Control_c, 0, 64, 50
1, 64713, Note_off_c, 0, 92, 65
1, 64714, Control_c, 0, 64, 65
1, 64722, Note_off_c, 0, 53, 63
1, 64723, Note_off_c, 0, 95, 66
1, 64728, Control_c, 0, 64, 79
1, 64729, Note_off_c, 0, 86, 67
1, 64743, Control_c, 0, 64, 127
1, 64804, Note_on_c, 0, 68, 82
1, 64812, Note_on_c, 0, 82, 93
1, 64818, Note_on_c, 0, 73, 89
1, 64863, Note_off_c, 0, 73, 66
1, 64901, Note_on_c, 0, 83, 88
1, 64906, Note_on_c, 0, 74, 70
1, 64915, Note_on_c, 0, 59, 71
1, 64916, Note_on_c, 0, 62, 61
1, 64917, Note_off_c, 0, 82, 63
1, 64925, Note_off_c, 0, 68, 60
1, 64963, Note_off_c, 0, 74, 62
1, 65013, Note_on_c, 0, 54, 85
1, 65022, Note_on_c, 0, 86, 96
1, 65024, Note_off_c, 0, 62, 55
1, 65026, Note_on_c, 0, 78, 92
1, 65040, Control_c, 0, 64, 83
1, 65053, Note_off_c, 0, 59, 58
1, 65054, Control_c, 0, 64, 57
1, 65069, Control_c, 0, 64, 0
1, 65083, Note_off_c, 0, 83, 58
1, 65107, Control_c, 0, 64, 21
1, 65122, Control_c, 0, 64, 51
1, 65136, Control_c, 0, 64, 63
1, 65140, Note_on_c, 0, 66, 79
1, 65151, Control_c, 0, 64, 74
1, 65166, Control_c, 0, 64, 91
1, 65181, Control_c, 0, 64, 127
1, 65186, Note_off_c, 0, 78, 63
1, 65210, Note_off_c, 0, 86, 66
1, 65224, Note_off_c, 0, 54, 63
1, 65230, Note_on_c, 0, 59, 72
1, 65232, Note_on_c, 0, 62, 70
1, 65252, Note_off_c, 0, 66, 60
1, 65339, Note_on_c, 0, 56, 87
1, 65342, Note_off_c, 0, 62, 61
1, 65345, Control_c, 0, 64, 95
1, 65355, Note_off_c, 0, 59, 60
1, 65359, Control_c, 0, 64, 70
1, 65374, Control_c, 0, 64, 53
1, 65404, Control_c, 0, 64, 65
1, 65418, Control_c, 0, 64, 79
1, 65432, Control_c, 0, 64, 127
1, 65438, Note_off_c, 0, 56, 65
1, 65449, Note_on_c, 0, 85, 90
1, 65452, Note_on_c, 0, 94, 93
1, 65453, Note_on_c, 0, 71, 95
1, 65506, Note_off_c, 0, 94, 65
1, 65513, Note_off_c, 0, 85, 63
1, 65546, Note_on_c, 0, 86, 89
1, 65547, Note_on_c, 0, 95, 96
1, 65551, Note_on_c, 0, 65, 82
1, 65558, Note_on_c, 0, 62, 76
1, 65573, Note_on_c, 0, 84, 53
1, 65574, Note_off_c, 0, 71, 57
1, 65578, Note_on_c, 0, 93, 44
1, 65596, Note_off_c, 0, 84, 61
1, 65602, Note_off_c, 0, 86, 65
1, 65602, Note_off_c, 0, 93, 55
1, 65640, Control_c, 0, 64, 82
1, 65645, Note_on_c, 0, 57, 89
1, 65649, Note_off_c, 0, 95, 57
1, 65655, Control_c, 0, 64, 63
1, 65658, Note_on_c, 0, 96, 96
1, 65664, Note_on_c, 0, 87, 104
1, 65670, Control_c, 0, 64, 45
1, 65674, Note_off_c, 0, 65, 59
1, 65684, Control_c, 0, 64, 58
1, 65694, Note_off_c, 0, 62, 54
1, 65699, Control_c, 0, 64, 67
1, 65714, Control_c, 0, 64, 81
1, 65729, Control_c, 0, 64, 127
1, 65748, Note_off_c, 0, 96, 66
1, 65754, Poly_aftertouch_c, 0, 60, 127
1, 65759, Note_off_c, 0, 87, 63
1, 65763, Note_on_c, 0, 69, 94
1, 65774, Note_on_c, 0, 88, 90
1, 65774, Note_on_c, 0, 97, 95
1, 65790, Poly_aftertouch_c, 0, 60, 0
1, 65837, Note_off_c, 0, 88, 66
1, 65855, Note_off_c, 0, 57, 56
1, 65886, Note_on_c, 0, 65, 75
1, 65889, Note_on_c, 0, 98, 101
1, 65891, Note_on_c, 0, 89, 99
1, 65897, Note_on_c, 0, 62, 62
1, 65898, Note_off_c, 0, 69, 63
1, 65909, Note_off_c, 0, 97, 62
1, 65926, Note_off_c, 0, 62, 67
1, 65940, Note_off_c, 0, 89, 64
1, 65944, Note_off_c, 0, 65, 63
1, 65947, Note_on_c, 0, 96, 4
1, 65968, Note_off_c, 0, 98, 66
1, 65978, Note_on_c, 0, 59, 84
1, 66004, Note_off_c, 0, 96, 26
1, 66004, Control_c, 0, 64, 90
1, 66018, Note_on_c, 0, 86, 83
1, 66019, Control_c, 0, 64, 59
1, 66034, Control_c, 0, 64, 0
1, 66062, Note_on_c, 0, 92, 87
1, 66078, Control_c, 0, 64, 33
1, 66081, Note_on_c, 0, 65, 63
1, 66084, Note_off_c, 0, 86, 62
1, 66093, Control_c, 0, 64, 66
1, 66107, Control_c, 0, 64, 105
1, 66111, Note_on_c, 0, 68, 78
1, 66121, Note_on_c, 0, 101, 101
1, 66122, Note_off_c, 0, 59, 62
1, 66122, Control_c, 0, 64, 127
1, 66123, Note_off_c, 0, 92, 66
1, 66171, Note_on_c, 0, 74, 92
1, 66197, Note_on_c, 0, 100, 97
1, 66198, Note_off_c, 0, 65, 62
1, 66213, Note_off_c, 0, 101, 66
1, 66213, Note_off_c, 0, 68, 63
1, 66237, Note_off_c, 0, 74, 64
1, 66273, Note_on_c, 0, 99, 97
1, 66288, Note_off_c, 0, 100, 65
1, 66332, Note_off_c, 0, 99, 65
1, 66334, Note_on_c, 0, 98, 88
1, 66394, Note_off_c, 0, 98, 66
1, 66397, Note_on_c, 0, 97, 81
1, 66460, Note_on_c, 0, 96, 81
1, 66471, Note_off_c, 0, 97, 64
1, 66512, Note_on_c, 0, 98, 81
1, 66524, Note_off_c, 0, 96, 66
1, 66561, Note_on_c, 0, 97, 83
1, 66582, Note_off_c, 0, 98, 65
1, 66615, Note_on_c, 0, 96, 77
1, 66627, Note_off_c, 0, 97, 65
1, 66663, Note_off_c, 0, 96, 63
1, 66665, Note_on_c, 0, 95, 77
1, 66702, Note_off_c, 0, 95, 56
1, 66714, Note_on_c, 0, 94, 75
1, 66764, Note_on_c, 0, 93, 77
1, 66773, Note_off_c, 0, 94, 64
1, 66806, Note_on_c, 0, 95, 70
1, 66818, Note_off_c, 0, 93, 64
1, 66847, Note_off_c, 0, 95, 62
1, 66851, Note_on_c, 0, 94, 64
1, 66893, Note_on_c, 0, 93, 73
1, 66895, Note_off_c, 0, 94, 64
1, 66928, Note_off_c, 0, 93, 60
1, 66953, Note_on_c, 0, 92, 79
1, 66977, Note_off_c, 0, 92, 70
1, 67009, Note_on_c, 0, 91, 73
1, 67040, Note_off_c, 0, 91, 60
1, 67066, Note_on_c, 0, 90, 43
1, 67092, Note_on_c, 0, 92, 77
1, 67133, Note_off_c, 0, 90, 33
1, 67205, Note_off_c, 0, 92, 65
1, 67229, Note_on_c, 0, 89, 69
1, 67343, Note_off_c, 0, 89, 58
1, 67382, Note_on_c, 0, 89, 52
1, 67435, Note_on_c, 0, 88, 53
1, 67435, Note_off_c, 0, 89, 61
1, 67474, Note_off_c, 0, 88, 66
1, 67483, Note_on_c, 0, 87, 69
1, 67503, Note_on_c, 0, 86, 67
1, 67510, Note_off_c, 0, 87, 66
1, 67573, Note_off_c, 0, 86, 58
1, 67580, Note_on_c, 0, 85, 61
1, 67635, Note_on_c, 0, 84, 57
1, 67637, Note_off_c, 0, 85, 63
1, 67658, Note_off_c, 0, 84, 63
1, 67678, Note_on_c, 0, 86, 73
1, 67734, Note_off_c, 0, 86, 64
1, 67742, Note_on_c, 0, 85, 67
1, 67761, Note_on_c, 0, 84, 61
1, 67778, Note_off_c, 0, 85, 62
1, 67804, Note_off_c, 0, 84, 64
1, 67820, Note_on_c, 0, 83, 67
1, 67879, Note_on_c, 0, 82, 77
1, 67879, Note_off_c, 0, 83, 59
1, 67930, Note_on_c, 0, 81, 64
1, 67934, Note_off_c, 0, 82, 64
1, 67985, Note_on_c, 0, 83, 76
1, 67987, Note_off_c, 0, 81, 64
1, 68030, Note_off_c, 0, 83, 62
1, 68042, Note_on_c, 0, 82, 57
1, 68076, Note_off_c, 0, 82, 66
1, 68077, Note_on_c, 0, 81, 58
1, 68118, Note_off_c, 0, 81, 56
1, 68136, Note_on_c, 0, 80, 75
1, 68179, Note_off_c, 0, 80, 59
1, 68206, Note_on_c, 0, 79, 51
1, 68235, Note_off_c, 0, 79, 54
1, 68251, Note_on_c, 0, 80, 69
1, 68264, Note_on_c, 0, 78, 47
1, 68292, Note_off_c, 0, 78, 52
1, 68308, Note_on_c, 0, 79, 77
1, 68311, Note_off_c, 0, 80, 67
1, 68355, Note_off_c, 0, 79, 66
1, 68373, Note_on_c, 0, 78, 27
1, 68389, Note_on_c, 0, 77, 71
1, 68410, Note_off_c, 0, 78, 53
1, 68444, Note_on_c, 0, 76, 63
1, 68473, Control_c, 0, 64, 115
1, 68474, Note_off_c, 0, 77, 59
1, 68477, Note_off_c, 0, 76, 51
1, 68480, Note_on_c, 0, 75, 69
1, 68488, Control_c, 0, 64, 102
1, 68503, Control_c, 0, 64, 94
1, 68517, Control_c, 0, 64, 89
1, 68532, Control_c, 0, 64, 84
1, 68536, Note_on_c, 0, 77, 70
1, 68539, Note_off_c, 0, 75, 61
1, 68547, Control_c, 0, 64, 80
1, 68562, Control_c, 0, 64, 76
1, 68576, Control_c, 0, 64, 73
1, 68582, Note_on_c, 0, 76, 58
1, 68591, Control_c, 0, 64, 70
1, 68606, Note_off_c, 0, 77, 61
1, 68606, Control_c, 0, 64, 68
1, 68618, Note_on_c, 0, 75, 74
1, 68621, Control_c, 0, 64, 66
1, 68622, Note_off_c, 0, 76, 65
1, 68636, Control_c, 0, 64, 64
1, 68651, Control_c, 0, 64, 63
1, 68655, Note_off_c, 0, 75, 62
1, 68666, Note_on_c, 0, 74, 63
1, 68666, Control_c, 0, 64, 63
1, 68681, Control_c, 0, 64, 61
1, 68695, Control_c, 0, 64, 59
1, 68710, Control_c, 0, 64, 57
1, 68723, Note_on_c, 0, 73, 70
1, 68725, Control_c, 0, 64, 56
1, 68730, Note_off_c, 0, 74, 60
1, 68740, Control_c, 0, 64, 56
1, 68755, Control_c, 0, 64, 54
1, 68767, Note_on_c, 0, 72, 62
1, 68769, Control_c, 0, 64, 51
1, 68773, Note_off_c, 0, 73, 58
1, 68784, Control_c, 0, 64, 49
1, 68799, Control_c, 0, 64, 48
1, 68814, Control_c, 0, 64, 47
1, 68831, Note_off_c, 0, 72, 63
1, 68836, Control_c, 0, 64, 46
1, 68840, Note_on_c, 0, 74, 70
1, 68851, Control_c, 0, 64, 45
1, 68866, Control_c, 0, 64, 43
1, 68881, Control_c, 0, 64, 42
1, 68881, Note_off_c, 0, 74, 58
1, 68888, Note_on_c, 0, 73, 56
1, 68919, Note_on_c, 0, 72, 63
1, 68925, Note_off_c, 0, 73, 64
1, 68925, Control_c, 0, 64, 42
1, 68940, Control_c, 0, 64, 41
1, 68954, Note_off_c, 0, 72, 65
1, 68970, Note_on_c, 0, 71, 57
1, 68970, Control_c, 0, 64, 41
1, 68984, Control_c, 0, 64, 40
1, 69004, Note_off_c, 0, 71, 64
1, 69018, Note_on_c, 0, 70, 57
1, 69065, Note_off_c, 0, 70, 60
1, 69081, Note_on_c, 0, 71, 55
1, 69108, Note_off_c, 0, 71, 66
1, 69135, Note_on_c, 0, 74, 54
1, 69177, Note_on_c, 0, 73, 53
1, 69193, Note_off_c, 0, 74, 61
1, 69217, Note_on_c, 0, 72, 59
1, 69235, Note_off_c, 0, 73, 54
1, 69260, Note_off_c, 0, 72, 65
1, 69277, Note_on_c, 0, 71, 50
1, 69299, Note_on_c, 0, 70, 56
1, 69308, Note_off_c, 0, 71, 65
1, 69358, Note_off_c, 0, 70, 63
1, 69363, Note_on_c, 0, 71, 58
1, 69396, Note_off_c, 0, 71, 65
1, 69417, Note_on_c, 0, 74, 68
1, 69453, Note_on_c, 0, 73, 64
1, 69465, Note_off_c, 0, 74, 60
1, 69500, Note_on_c, 0, 72, 66
1, 69513, Note_off_c, 0, 73, 65
1, 69551, Note_on_c, 0, 71, 68
1, 69551, Note_off_c, 0, 72, 65
1, 69591, Note_on_c, 0, 70, 60
1, 69594, Note_off_c, 0, 71, 61
1, 69640, Note_on_c, 0, 71, 60
1, 69651, Note_off_c, 0, 70, 64
1, 69686, Note_off_c, 0, 71, 64
1, 69695, Note_on_c, 0, 74, 75
1, 69737, Note_on_c, 0, 73, 65
1, 69752, Note_off_c, 0, 74, 63
1, 69787, Note_on_c, 0, 72, 72
1, 69797, Note_off_c, 0, 73, 66
1, 69807, Control_c, 0, 64, 40
1, 69822, Control_c, 0, 64, 37
1, 69837, Control_c, 0, 64, 34
1, 69841, Note_on_c, 0, 71, 64
1, 69844, Note_off_c, 0, 72, 65
1, 69852, Control_c, 0, 64, 29
1, 69867, Control_c, 0, 64, 17
1, 69879, Note_on_c, 0, 70, 54
1, 69880, Note_off_c, 0, 71, 63
1, 69881, Control_c, 0, 64, 0
1, 69930, Note_on_c, 0, 71, 59
1, 69940, Note_off_c, 0, 70, 63
1, 69975, Note_off_c, 0, 71, 64
1, 69992, Note_on_c, 0, 73, 65
1, 70045, Note_off_c, 0, 73, 63
1, 70054, Note_on_c, 0, 72, 59
1, 70106, Note_off_c, 0, 72, 58
1, 70107, Note_on_c, 0, 71, 57
1, 70145, Note_off_c, 0, 71, 62
1, 70158, Note_on_c, 0, 70, 47
1, 70208, Note_off_c, 0, 70, 61
1, 70212, Note_on_c, 0, 71, 51
1, 70252, Note_off_c, 0, 71, 64
1, 70269, Note_on_c, 0, 73, 53
1, 70322, Note_off_c, 0, 73, 58
1, 70338, Note_on_c, 0, 72, 51
1, 70380, Note_off_c, 0, 72, 61
1, 70392, Note_on_c, 0, 71, 46
1, 70430, Note_off_c, 0, 71, 63
1, 70447, Note_on_c, 0, 70, 44
1, 70494, Note_off_c, 0, 70, 58
1, 70511, Note_on_c, 0, 71, 43
1, 70545, Note_off_c, 0, 71, 58
1, 70561, Note_on_c, 0, 73, 45
1, 70602, Note_off_c, 0, 73, 58
1, 70624, Note_on_c, 0, 72, 47
1, 70672, Note_off_c, 0, 72, 60
1, 70673, Note_on_c, 0, 71, 39
1, 70718, Note_off_c, 0, 71, 60
1, 70734, Note_on_c, 0, 70, 40
1, 70782, Note_off_c, 0, 70, 53
1, 70791, Note_on_c, 0, 71, 36
1, 70836, Note_off_c, 0, 71, 63
1, 70856, Note_on_c, 0, 73, 41
1, 70897, Note_off_c, 0, 73, 49
1, 70916, Note_on_c, 0, 72, 43
1, 70963, Note_off_c, 0, 72, 59
1, 70980, Note_on_c, 0, 71, 38
1, 71012, Note_off_c, 0, 71, 55
1, 71019, Note_on_c, 0, 70, 37
1, 71077, Note_off_c, 0, 70, 57
1, 71098, Note_on_c, 0, 71, 35
1, 71144, Note_off_c, 0, 71, 58
1, 71169, Note_on_c, 0, 73, 34
1, 71210, Note_off_c, 0, 73, 49
1, 71229, Note_on_c, 0, 72, 44
1, 71281, Note_off_c, 0, 72, 58
1, 71311, Note_on_c, 0, 71, 29
1, 71352, Note_on_c, 0, 70, 38
1, 71355, Note_off_c, 0, 71, 47
1, 71417, Note_off_c, 0, 70, 56
1, 71426, Note_on_c, 0, 71, 21
1, 71497, Control_c, 0, 64, 26
1, 71512, Control_c, 0, 64, 39
1, 71524, Note_off_c, 0, 71, 59
1, 71527, Control_c, 0, 64, 52
1, 71528, Note_on_c, 0, 73, 38
1, 71542, Control_c, 0, 64, 61
1, 71557, Control_c, 0, 64, 66
1, 71572, Control_c, 0, 64, 71
1, 71585, Note_off_c, 0, 73, 56
1, 71587, Control_c, 0, 64, 75
1, 71602, Control_c, 0, 64, 78
1, 71611, Note_on_c, 0, 72, 43
1, 71617, Control_c, 0, 64, 81
1, 71632, Control_c, 0, 64, 82
1, 71647, Control_c, 0, 64, 83
1, 71653, Note_off_c, 0, 72, 65
1, 71692, Note_on_c, 0, 71, 39
1, 71720, Control_c, 0, 64, 82
1, 71735, Control_c, 0, 64, 82
1, 71737, Note_off_c, 0, 71, 58
1, 71780, Control_c, 0, 64, 81
1, 71784, Note_on_c, 0, 70, 38
1, 71809, Control_c, 0, 64, 81
1, 71827, Note_off_c, 0, 70, 51
1, 71832, Control_c, 0, 64, 80
1, 71861, Control_c, 0, 64, 80
1, 71869, Note_on_c, 0, 71, 36
1, 71876, Control_c, 0, 64, 79
1, 71891, Control_c, 0, 64, 79
1, 71906, Control_c, 0, 64, 78
1, 71918, Note_off_c, 0, 71, 55
1, 71920, Control_c, 0, 64, 77
1, 71935, Control_c, 0, 64, 76
1, 71950, Control_c, 0, 64, 75
1, 71954, Note_on_c, 0, 56, 35
1, 71957, Note_on_c, 0, 72, 38
1, 71965, Control_c, 0, 64, 75
1, 71980, Control_c, 0, 64, 74
1, 71994, Control_c, 0, 64, 73
1, 72009, Control_c, 0, 64, 72
1, 72024, Control_c, 0, 64, 70
1, 72039, Control_c, 0, 64, 66
1, 72046, Note_off_c, 0, 72, 52
1, 72054, Control_c, 0, 64, 63
1, 72055, Note_on_c, 0, 73, 35
1, 72068, Control_c, 0, 64, 61
1, 72083, Control_c, 0, 64, 60
1, 72088, Note_off_c, 0, 73, 61
1, 72098, Control_c, 0, 64, 61
1, 72112, Control_c, 0, 64, 62
1, 72127, Control_c, 0, 64, 63
1, 72130, Note_on_c, 0, 74, 50
1, 72142, Control_c, 0, 64, 65
1, 72156, Control_c, 0, 64, 66
1, 72171, Control_c, 0, 64, 68
1, 72172, Note_off_c, 0, 74, 62
1, 72185, Control_c, 0, 64, 71
1, 72188, Note_on_c, 0, 65, 25
1, 72197, Note_on_c, 0, 75, 43
1, 72200, Control_c, 0, 64, 76
1, 72215, Control_c, 0, 64, 81
1, 72230, Control_c, 0, 64, 85
1, 72233, Note_off_c, 0, 75, 53
1, 72245, Control_c, 0, 64, 85
1, 72259, Note_on_c, 0, 76, 42
1, 72259, Control_c, 0, 64, 85
1, 72291, Note_off_c, 0, 76, 53
1, 72314, Note_on_c, 0, 77, 56
1, 72318, Note_on_c, 0, 60, 26
1, 72318, Control_c, 0, 64, 84
1, 72333, Control_c, 0, 64, 84
1, 72348, Control_c, 0, 64, 83
1, 72356, Note_off_c, 0, 65, 31
1, 72364, Control_c, 0, 64, 83
1, 72379, Control_c, 0, 64, 82
1, 72380, Note_off_c, 0, 77, 46
1, 72394, Control_c, 0, 64, 82
1, 72396, Note_on_c, 0, 76, 46
1, 72409, Control_c, 0, 64, 81
1, 72419, Note_off_c, 0, 60, 28
1, 72431, Note_off_c, 0, 76, 51
1, 72438, Note_on_c, 0, 55, 37
1, 72438, Control_c, 0, 64, 81
1, 72449, Note_on_c, 0, 75, 46
1, 72453, Control_c, 0, 64, 80
1, 72468, Control_c, 0, 64, 79
1, 72474, Note_off_c, 0, 75, 55
1, 72483, Control_c, 0, 64, 78
1, 72494, Note_on_c, 0, 74, 48
1, 72497, Control_c, 0, 64, 74
1, 72512, Control_c, 0, 64, 69
1, 72527, Control_c, 0, 64, 64
1, 72538, Note_off_c, 0, 56, 38
1, 72541, Control_c, 0, 64, 61
1, 72546, Note_off_c, 0, 74, 59
1, 72556, Control_c, 0, 64, 62
1, 72577, Note_on_c, 0, 73, 47
1, 72579, Control_c, 0, 64, 63
1, 72594, Control_c, 0, 64, 65
1, 72609, Control_c, 0, 64, 68
1, 72613, Note_off_c, 0, 73, 59
1, 72623, Control_c, 0, 64, 70
1, 72627, Note_on_c, 0, 72, 48
1, 72638, Control_c, 0, 64, 75
1, 72645, Note_on_c, 0, 63, 25
1, 72651, Note_off_c, 0, 72, 63
1, 72653, Control_c, 0, 64, 80
1, 72660, Note_off_c, 0, 55, 60
1, 72668, Control_c, 0, 64, 85
1, 72683, Control_c, 0, 64, 87
1, 72689, Note_on_c, 0, 71, 51
1, 72697, Control_c, 0, 64, 86
1, 72712, Control_c, 0, 64, 86
1, 72717, Note_off_c, 0, 71, 56
1, 72727, Control_c, 0, 64, 85
1, 72741, Control_c, 0, 64, 84
1, 72742, Note_on_c, 0, 58, 38
1, 72756, Control_c, 0, 64, 84
1, 72762, Note_on_c, 0, 70, 39
1, 72771, Control_c, 0, 64, 83
1, 72786, Note_off_c, 0, 63, 37
1, 72786, Control_c, 0, 64, 82
1, 72792, Note_off_c, 0, 70, 54
1, 72802, Note_on_c, 0, 69, 50
1, 72815, Control_c, 0, 64, 82
1, 72830, Control_c, 0, 64, 81
1, 72834, Note_off_c, 0, 69, 65
1, 72845, Control_c, 0, 64, 80
1, 72860, Control_c, 0, 64, 78
1, 72872, Note_on_c, 0, 68, 40
1, 72875, Control_c, 0, 64, 73
1, 72882, Note_on_c, 0, 53, 39
1, 72890, Control_c, 0, 64, 67
1, 72905, Control_c, 0, 64, 62
1, 72908, Note_off_c, 0, 58, 37
1, 72911, Note_off_c, 0, 68, 56
1, 72920, Control_c, 0, 64, 60
1, 72935, Control_c, 0, 64, 62
1, 72939, Note_on_c, 0, 69, 48
1, 72949, Control_c, 0, 64, 63
1, 72964, Control_c, 0, 64, 66
1, 72979, Note_off_c, 0, 69, 63
1, 72979, Control_c, 0, 64, 69
1, 72994, Control_c, 0, 64, 72
1, 73009, Control_c, 0, 64, 77
1, 73023, Control_c, 0, 64, 82
1, 73025, Note_on_c, 0, 70, 47
1, 73038, Control_c, 0, 64, 88
1, 73047, Note_on_c, 0, 61, 35
1, 73053, Control_c, 0, 64, 90
1, 73057, Note_off_c, 0, 70, 63
1, 73082, Control_c, 0, 64, 89
1, 73084, Note_on_c, 0, 71, 54
1, 73097, Control_c, 0, 64, 89
1, 73112, Note_off_c, 0, 71, 55
1, 73129, Note_on_c, 0, 72, 55
1, 73141, Control_c, 0, 64, 88
1, 73156, Control_c, 0, 64, 87
1, 73172, Control_c, 0, 64, 86
1, 73177, Note_on_c, 0, 56, 28
1, 73182, Note_off_c, 0, 72, 58
1, 73187, Control_c, 0, 64, 86
1, 73195, Note_on_c, 0, 75, 57
1, 73202, Control_c, 0, 64, 85
1, 73217, Control_c, 0, 64, 84
1, 73231, Control_c, 0, 64, 84
1, 73246, Note_on_c, 0, 73, 57
1, 73246, Control_c, 0, 64, 83
1, 73261, Control_c, 0, 64, 83
1, 73276, Control_c, 0, 64, 82
1, 73280, Note_on_c, 0, 52, 37
1, 73280, Note_off_c, 0, 75, 51
1, 73291, Control_c, 0, 64, 81
1, 73306, Control_c, 0, 64, 79
1, 73324, Note_on_c, 0, 72, 55
1, 73328, Control_c, 0, 64, 74
1, 73343, Control_c, 0, 64, 67
1, 73343, Note_off_c, 0, 73, 58
1, 73358, Control_c, 0, 64, 62
1, 73360, Note_off_c, 0, 72, 64
1, 73372, Control_c, 0, 64, 59
1, 73373, Note_off_c, 0, 53, 33
1, 73386, Note_on_c, 0, 71, 55
1, 73387, Control_c, 0, 64, 61
1, 73397, Note_off_c, 0, 61, 39
1, 73402, Control_c, 0, 64, 62
1, 73417, Control_c, 0, 64, 63
1, 73432, Control_c, 0, 64, 66
1, 73433, Note_off_c, 0, 56, 34
1, 73438, Note_off_c, 0, 71, 59
1, 73446, Control_c, 0, 64, 69
1, 73459, Note_on_c, 0, 70, 52
1, 73461, Control_c, 0, 64, 73
1, 73474, Note_on_c, 0, 60, 33
1, 73476, Control_c, 0, 64, 80
1, 73491, Control_c, 0, 64, 89
1, 73494, Note_off_c, 0, 52, 57
1, 73495, Note_off_c, 0, 70, 66
1, 73506, Control_c, 0, 64, 96
1, 73518, Note_on_c, 0, 69, 55
1, 73520, Control_c, 0, 64, 97
1, 73535, Control_c, 0, 64, 95
1, 73550, Control_c, 0, 64, 94
1, 73560, Note_off_c, 0, 69, 61
1, 73564, Control_c, 0, 64, 93
1, 73579, Control_c, 0, 64, 92
1, 73587, Note_on_c, 0, 55, 42
1, 73588, Note_on_c, 0, 68, 49
1, 73594, Control_c, 0, 64, 91
1, 73609, Control_c, 0, 64, 91
1, 73614, Note_off_c, 0, 68, 56
1, 73624, Control_c, 0, 64, 90
1, 73638, Control_c, 0, 64, 89
1, 73649, Note_off_c, 0, 60, 41
1, 73653, Control_c, 0, 64, 88
1, 73656, Note_on_c, 0, 67, 45
1, 73668, Control_c, 0, 64, 87
1, 73683, Control_c, 0, 64, 86
1, 73692, Note_off_c, 0, 67, 60
1, 73698, Control_c, 0, 64, 85
1, 73710, Note_on_c, 0, 66, 47
1, 73713, Control_c, 0, 64, 83
1, 73716, Note_on_c, 0, 51, 47
1, 73727, Control_c, 0, 64, 79
1, 73742, Control_c, 0, 64, 73
1, 73749, Note_off_c, 0, 66, 59
1, 73757, Control_c, 0, 64, 67
1, 73766, Note_off_c, 0, 55, 30
1, 73772, Control_c, 0, 64, 62
1, 73779, Note_on_c, 0, 65, 48
1, 73787, Control_c, 0, 64, 60
1, 73802, Control_c, 0, 64, 62
1, 73817, Control_c, 0, 64, 63
1, 73828, Note_off_c, 0, 65, 60
1, 73832, Control_c, 0, 64, 65
1, 73846, Control_c, 0, 64, 67
1, 73861, Control_c, 0, 64, 69
1, 73868, Note_on_c, 0, 64, 45
1, 73876, Control_c, 0, 64, 73
1, 73878, Note_on_c, 0, 60, 33
1, 73890, Control_c, 0, 64, 78
1, 73905, Control_c, 0, 64, 86
1, 73906, Note_off_c, 0, 64, 62
1, 73920, Control_c, 0, 64, 92
1, 73935, Control_c, 0, 64, 96
1, 73944, Note_off_c, 0, 51, 36
1, 73950, Control_c, 0, 64, 97
1, 73966, Control_c, 0, 64, 96
1, 73971, Note_on_c, 0, 66, 49
1, 73974, Poly_aftertouch_c, 0, 65, 127
1, 73995, Control_c, 0, 64, 96
1, 73998, Note_off_c, 0, 66, 60
1, 74010, Control_c, 0, 64, 95
1, 74013, Poly_aftertouch_c, 0, 65, 0
1, 74023, Note_on_c, 0, 57, 27
1, 74025, Control_c, 0, 64, 94
1, 74040, Control_c, 0, 64, 93
1, 74052, Note_on_c, 0, 67, 47
1, 74055, Control_c, 0, 64, 92
1, 74075, Note_off_c, 0, 60, 37
1, 74076, Control_c, 0, 64, 92
1, 74083, Note_off_c, 0, 67, 58
1, 74091, Control_c, 0, 64, 91
1, 74106, Control_c, 0, 64, 90
1, 74125, Note_on_c, 0, 68, 53
1, 74138, Note_on_c, 0, 50, 42
1, 74151, Control_c, 0, 64, 90
1, 74154, Note_off_c, 0, 68, 60
1, 74166, Control_c, 0, 64, 88
1, 74181, Note_off_c, 0, 57, 35
1, 74181, Control_c, 0, 64, 85
1, 74195, Control_c, 0, 64, 79
1, 74198, Note_on_c, 0, 69, 50
1, 74210, Control_c, 0, 64, 73
1, 74222, Note_off_c, 0, 69, 59
1, 74225, Control_c, 0, 64, 67
1, 74240, Control_c, 0, 64, 64
1, 74255, Note_on_c, 0, 70, 55
1, 74255, Control_c, 0, 64, 65
1, 74269, Control_c, 0, 64, 67
1, 74284, Control_c, 0, 64, 69
1, 74287, Note_off_c, 0, 70, 66
1, 74299, Control_c, 0, 64, 72
1, 74314, Control_c, 0, 64, 76
1, 74317, Note_on_c, 0, 71, 59
1, 74318, Note_on_c, 0, 58, 25
1, 74329, Control_c, 0, 64, 82
1, 74343, Control_c, 0, 64, 89
1, 74353, Note_off_c, 0, 71, 62
1, 74358, Control_c, 0, 64, 98
1, 74363, Note_on_c, 0, 72, 61
1, 74373, Control_c, 0, 64, 108
1, 74378, Note_off_c, 0, 50, 49
1, 74387, Control_c, 0, 64, 112
1, 74416, Note_off_c, 0, 72, 60
1, 74418, Control_c, 0, 64, 110
1, 74419, Note_on_c, 0, 73, 62
1, 74420, Note_on_c, 0, 53, 39
1, 74433, Control_c, 0, 64, 109
1, 74448, Control_c, 0, 64, 108
1, 74449, Note_off_c, 0, 73, 68
1, 74462, Control_c, 0, 64, 105
1, 74477, Control_c, 0, 64, 103
1, 74489, Note_on_c, 0, 74, 69
1, 74492, Control_c, 0, 64, 101
1, 74507, Control_c, 0, 64, 99
1, 74521, Control_c, 0, 64, 97
1, 74532, Note_off_c, 0, 74, 55
1, 74536, Control_c, 0, 64, 95
1, 74547, Note_on_c, 0, 49, 42
1, 74548, Note_off_c, 0, 53, 0
1, 74551, Control_c, 0, 64, 93
1, 74560, Note_on_c, 0, 75, 67
1, 74566, Control_c, 0, 64, 92
1, 74581, Control_c, 0, 64, 90
1, 74593, Poly_aftertouch_c, 0, 53, 0
1, 74595, Control_c, 0, 64, 85
1, 74610, Control_c, 0, 64, 77
1, 74613, Note_off_c, 0, 75, 61
1, 74625, Control_c, 0, 64, 69
1, 74626, Note_on_c, 0, 76, 66
1, 74640, Control_c, 0, 64, 62
1, 74643, Note_off_c, 0, 58, 42
1, 74655, Control_c, 0, 64, 60
1, 74669, Control_c, 0, 64, 61
1, 74680, Note_off_c, 0, 76, 61
1, 74684, Control_c, 0, 64, 63
1, 74685, Note_on_c, 0, 77, 70
1, 74699, Control_c, 0, 64, 64
1, 74714, Control_c, 0, 64, 67
1, 74716, Note_on_c, 0, 59, 38
1, 74729, Control_c, 0, 64, 69
1, 74744, Control_c, 0, 64, 73
1, 74748, Note_on_c, 0, 80, 70
1, 74750, Note_off_c, 0, 77, 63
1, 74759, Control_c, 0, 64, 77
1, 74774, Control_c, 0, 64, 84
1, 74789, Control_c, 0, 64, 90
1, 74811, Control_c, 0, 64, 96
1, 74826, Control_c, 0, 64, 98
1, 74827, Note_on_c, 0, 79, 70
1, 74833, Note_on_c, 0, 53, 46
1, 74841, Control_c, 0, 64, 97
1, 74856, Control_c, 0, 64, 96
1, 74857, Note_off_c, 0, 80, 65
1, 74871, Control_c, 0, 64, 96
1, 74885, Control_c, 0, 64, 95
1, 74887, Note_off_c, 0, 49, 34
1, 74900, Note_on_c, 0, 78, 72
1, 74900, Control_c, 0, 64, 94
1, 74915, Control_c, 0, 64, 93
1, 74920, Note_off_c, 0, 79, 61
1, 74930, Control_c, 0, 64, 91
1, 74945, Control_c, 0, 64, 90
1, 74959, Control_c, 0, 64, 88
1, 74971, Note_off_c, 0, 78, 64
1, 74974, Control_c, 0, 64, 87
1, 74985, Note_on_c, 0, 77, 68
1, 74989, Control_c, 0, 64, 86
1, 74998, Note_on_c, 0, 48, 41
1, 75004, Control_c, 0, 64, 85
1, 75015, Note_off_c, 0, 53, 31
1, 75018, Control_c, 0, 64, 84
1, 75033, Control_c, 0, 64, 82
1, 75039, Note_off_c, 0, 59, 40
1, 75048, Control_c, 0, 64, 80
1, 75063, Note_off_c, 0, 77, 59
1, 75063, Control_c, 0, 64, 76
1, 75067, Note_on_c, 0, 76, 63
1, 75078, Control_c, 0, 64, 70
1, 75093, Control_c, 0, 64, 64
1, 75108, Control_c, 0, 64, 57
1, 75123, Note_off_c, 0, 76, 60
1, 75123, Control_c, 0, 64, 51
1, 75139, Note_on_c, 0, 75, 59
1, 75152, Control_c, 0, 64, 53
1, 75156, Note_on_c, 0, 55, 37
1, 75167, Control_c, 0, 64, 55
1, 75179, Note_off_c, 0, 75, 63
1, 75182, Control_c, 0, 64, 57
1, 75197, Control_c, 0, 64, 60
1, 75211, Control_c, 0, 64, 63
1, 75214, Note_on_c, 0, 74, 53
1, 75223, Note_off_c, 0, 48, 54
1, 75226, Control_c, 0, 64, 65
1, 75241, Control_c, 0, 64, 68
1, 75256, Control_c, 0, 64, 71
1, 75264, Note_off_c, 0, 55, 63
1, 75266, Note_off_c, 0, 74, 57
1, 75271, Control_c, 0, 64, 76
1, 75285, Control_c, 0, 64, 81
1, 75295, Note_on_c, 0, 73, 46
1, 75300, Control_c, 0, 64, 87
1, 75310, Note_on_c, 0, 60, 44
1, 75315, Control_c, 0, 64, 91
1, 75330, Control_c, 0, 64, 91
1, 75337, Note_off_c, 0, 73, 48
1, 75359, Control_c, 0, 64, 91
1, 75363, Note_on_c, 0, 72, 55
1, 75389, Control_c, 0, 64, 90
1, 75404, Control_c, 0, 64, 89
1, 75407, Note_off_c, 0, 72, 60
1, 75418, Control_c, 0, 64, 89
1, 75433, Control_c, 0, 64, 88
1, 75448, Control_c, 0, 64, 88
1, 75463, Control_c, 0, 64, 87
1, 75470, Note_on_c, 0, 71, 35
1, 75478, Control_c, 0, 64, 86
1, 75480, Note_on_c, 0, 56, 50
1, 75487, Note_off_c, 0, 60, 38
1, 75492, Control_c, 0, 64, 85
1, 75507, Control_c, 0, 64, 84
1, 75509, Note_off_c, 0, 71, 49
1, 75522, Control_c, 0, 64, 83
1, 75526, Note_on_c, 0, 72, 45
1, 75537, Control_c, 0, 64, 83
1, 75552, Control_c, 0, 64, 82
1, 75576, Control_c, 0, 64, 81
1, 75590, Control_c, 0, 64, 77
1, 75594, Note_off_c, 0, 72, 56
1, 75605, Control_c, 0, 64, 71
1, 75610, Note_on_c, 0, 73, 42
1, 75620, Control_c, 0, 64, 64
1, 75635, Control_c, 0, 64, 57
1, 75637, Note_off_c, 0, 73, 58
1, 75664, Control_c, 0, 64, 59
1, 75675, Note_on_c, 0, 74, 54
1, 75679, Control_c, 0, 64, 60
1, 75694, Control_c, 0, 64, 62
1, 75706, Note_on_c, 0, 65, 40
1, 75709, Control_c, 0, 64, 64
1, 75716, Note_off_c, 0, 74, 62
1, 75723, Control_c, 0, 64, 66
1, 75734, Note_on_c, 0, 75, 59
1, 75738, Control_c, 0, 64, 68
1, 75753, Control_c, 0, 64, 71
1, 75767, Control_c, 0, 64, 75
1, 75782, Control_c, 0, 64, 78
1, 75784, Note_off_c, 0, 75, 57
1, 75797, Control_c, 0, 64, 80
1, 75806, Note_on_c, 0, 77, 63
1, 75841, Note_on_c, 0, 60, 40
1, 75841, Control_c, 0, 64, 80
1, 75875, Note_on_c, 0, 76, 62
1, 75891, Note_off_c, 0, 65, 29
1, 75894, Note_off_c, 0, 77, 60
1, 75901, Control_c, 0, 64, 79
1, 75915, Control_c, 0, 64, 79
1, 75930, Control_c, 0, 64, 78
1, 75936, Note_on_c, 0, 75, 61
1, 75939, Note_off_c, 0, 76, 63
1, 75945, Control_c, 0, 64, 78
1, 75959, Control_c, 0, 64, 77
1, 75967, Note_off_c, 0, 75, 65
1, 75972, Note_on_c, 0, 55, 42
1, 75974, Control_c, 0, 64, 77
1, 75981, Note_off_c, 0, 60, 30
1, 75982, Note_on_c, 0, 74, 63
1, 75989, Control_c, 0, 64, 76
1, 76004, Control_c, 0, 64, 73
1, 76019, Control_c, 0, 64, 68
1, 76033, Control_c, 0, 64, 63
1, 76041, Note_off_c, 0, 56, 38
1, 76048, Control_c, 0, 64, 57
1, 76051, Note_on_c, 0, 73, 64
1, 76051, Note_off_c, 0, 74, 61
1, 76063, Control_c, 0, 64, 58
1, 76078, Control_c, 0, 64, 60
1, 76093, Control_c, 0, 64, 62
1, 76106, Note_on_c, 0, 72, 62
1, 76107, Control_c, 0, 64, 64
1, 76111, Note_off_c, 0, 73, 59
1, 76122, Control_c, 0, 64, 66
1, 76137, Control_c, 0, 64, 70
1, 76139, Note_on_c, 0, 63, 36
1, 76143, Note_off_c, 0, 72, 64
1, 76152, Control_c, 0, 64, 74
1, 76157, Note_off_c, 0, 55, 62
1, 76166, Control_c, 0, 64, 78
1, 76167, Note_on_c, 0, 71, 64
1, 76181, Control_c, 0, 64, 81
1, 76211, Control_c, 0, 64, 81
1, 76217, Note_off_c, 0, 71, 58
1, 76228, Note_on_c, 0, 58, 41
1, 76240, Note_on_c, 0, 70, 53
1, 76255, Control_c, 0, 64, 80
1, 76270, Control_c, 0, 64, 80
1, 76276, Note_off_c, 0, 70, 63
1, 76285, Control_c, 0, 64, 79
1, 76297, Note_on_c, 0, 69, 51
1, 76300, Control_c, 0, 64, 79
1, 76315, Note_off_c, 0, 63, 29
1, 76322, Control_c, 0, 64, 78
1, 76337, Control_c, 0, 64, 77
1, 76347, Note_off_c, 0, 69, 63
1, 76352, Control_c, 0, 64, 77
1, 76368, Control_c, 0, 64, 76
1, 76380, Note_on_c, 0, 68, 49
1, 76383, Control_c, 0, 64, 75
1, 76388, Note_on_c, 0, 53, 37
1, 76397, Control_c, 0, 64, 72
1, 76412, Control_c, 0, 64, 68
1, 76426, Note_off_c, 0, 68, 62
1, 76427, Note_off_c, 0, 58, 37
1, 76427, Control_c, 0, 64, 62
1, 76442, Control_c, 0, 64, 55
1, 76457, Control_c, 0, 64, 54
1, 76466, Note_on_c, 0, 69, 46
1, 76471, Control_c, 0, 64, 55
1, 76486, Control_c, 0, 64, 57
1, 76494, Note_off_c, 0, 69, 55
1, 76501, Control_c, 0, 64, 60
1, 76516, Control_c, 0, 64, 63
1, 76531, Control_c, 0, 64, 65
1, 76545, Control_c, 0, 64, 67
1, 76560, Control_c, 0, 64, 70
1, 76562, Note_on_c, 0, 61, 39
1, 76562, Note_on_c, 0, 70, 25
1, 76575, Control_c, 0, 64, 74
1, 76589, Control_c, 0, 64, 79
1, 76600, Note_off_c, 0, 70, 41
1, 76604, Control_c, 0, 64, 84
1, 76609, Note_on_c, 0, 71, 40
1, 76619, Control_c, 0, 64, 86
1, 76637, Note_off_c, 0, 71, 55
1, 76649, Control_c, 0, 64, 85
1, 76659, Note_on_c, 0, 72, 53
1, 76679, Control_c, 0, 64, 85
1, 76693, Control_c, 0, 64, 84
1, 76703, Note_on_c, 0, 56, 29
1, 76707, Note_off_c, 0, 72, 60
1, 76708, Control_c, 0, 64, 84
1, 76720, Note_on_c, 0, 75, 57
1, 76723, Control_c, 0, 64, 83
1, 76738, Control_c, 0, 64, 83
1, 76768, Control_c, 0, 64, 82
1, 76778, Note_on_c, 0, 73, 55
1, 76782, Control_c, 0, 64, 82
1, 76797, Control_c, 0, 64, 81
1, 76812, Note_off_c, 0, 75, 39
1, 76812, Control_c, 0, 64, 80
1, 76827, Control_c, 0, 64, 80
1, 76828, Note_on_c, 0, 52, 39
1, 76842, Control_c, 0, 64, 79
1, 76856, Control_c, 0, 64, 79
1, 76859, Note_on_c, 0, 72, 57
1, 76866, Note_off_c, 0, 73, 57
1, 76871, Control_c, 0, 64, 78
1, 76886, Control_c, 0, 64, 75
1, 76897, Note_off_c, 0, 72, 64
1, 76901, Control_c, 0, 64, 71
1, 76916, Control_c, 0, 64, 65
1, 76924, Note_off_c, 0, 61, 39
1, 76926, Note_on_c, 0, 71, 58
1, 76930, Control_c, 0, 64, 61
1, 76945, Control_c, 0, 64, 60
1, 76956, Note_off_c, 0, 53, 17
1, 76960, Control_c, 0, 64, 62
1, 76969, Note_off_c, 0, 71, 62
1, 76975, Control_c, 0, 64, 64
1, 76989, Control_c, 0, 64, 66
1, 76991, Note_on_c, 0, 70, 58
1, 76993, Note_on_c, 0, 60, 41
1, 76996, Note_off_c, 0, 56, 32
1, 77004, Control_c, 0, 64, 68
1, 77019, Control_c, 0, 64, 70
1, 77031, Note_off_c, 0, 70, 65
1, 77034, Control_c, 0, 64, 74
1, 77048, Note_off_c, 0, 52, 57
1, 77049, Control_c, 0, 64, 78
1, 77060, Note_on_c, 0, 69, 59
1, 77071, Control_c, 0, 64, 82
1, 77086, Control_c, 0, 64, 84
1, 77107, Note_off_c, 0, 69, 59
1, 77115, Control_c, 0, 64, 83
1, 77127, Note_on_c, 0, 55, 50
1, 77128, Note_on_c, 0, 68, 61
1, 77163, Note_off_c, 0, 68, 63
1, 77176, Control_c, 0, 64, 83
1, 77191, Note_on_c, 0, 67, 59
1, 77206, Control_c, 0, 64, 82
1, 77220, Control_c, 0, 64, 82
1, 77239, Note_off_c, 0, 67, 54
1, 77250, Control_c, 0, 64, 81
1, 77251, Note_off_c, 0, 60, 34
1, 77261, Note_on_c, 0, 51, 65
1, 77263, Note_on_c, 0, 66, 55
1, 77280, Control_c, 0, 64, 81
1, 77294, Control_c, 0, 64, 79
1, 77309, Control_c, 0, 64, 76
1, 77313, Note_off_c, 0, 66, 55
1, 77324, Control_c, 0, 64, 71
1, 77337, Note_on_c, 0, 65, 58
1, 77339, Control_c, 0, 64, 64
1, 77347, Note_off_c, 0, 55, 34
1, 77354, Control_c, 0, 64, 56
1, 77368, Control_c, 0, 64, 52
1, 77383, Control_c, 0, 64, 53
1, 77390, Note_off_c, 0, 65, 60
1, 77398, Control_c, 0, 64, 56
1, 77412, Control_c, 0, 64, 59
1, 77419, Note_on_c, 0, 64, 52
1, 77427, Control_c, 0, 64, 62
1, 77442, Control_c, 0, 64, 65
1, 77457, Control_c, 0, 64, 68
1, 77461, Note_off_c, 0, 64, 63
1, 77464, Note_on_c, 0, 60, 36
1, 77472, Control_c, 0, 64, 72
1, 77477, Note_on_c, 0, 65, 48
1, 77486, Control_c, 0, 64, 80
1, 77501, Control_c, 0, 64, 90
1, 77516, Note_off_c, 0, 51, 58
1, 77516, Control_c, 0, 64, 99
1, 77530, Note_off_c, 0, 65, 61
1, 77531, Control_c, 0, 64, 103
1, 77537, Note_on_c, 0, 66, 60
1, 77570, Note_off_c, 0, 66, 65
1, 77591, Control_c, 0, 64, 102
1, 77603, Note_on_c, 0, 67, 67
1, 77605, Control_c, 0, 64, 101
1, 77615, Note_on_c, 0, 57, 39
1, 77620, Control_c, 0, 64, 100
1, 77635, Control_c, 0, 64, 99
1, 77650, Control_c, 0, 64, 99
1, 77665, Control_c, 0, 64, 98
1, 77671, Note_off_c, 0, 67, 60
1, 77679, Control_c, 0, 64, 97
1, 77685, Note_on_c, 0, 68, 69
1, 77694, Control_c, 0, 64, 96
1, 77709, Control_c, 0, 64, 95
1, 77723, Control_c, 0, 64, 93
1, 77738, Control_c, 0, 64, 86
1, 77753, Control_c, 0, 64, 74
1, 77762, Note_off_c, 0, 68, 61
1, 77765, Note_off_c, 0, 57, 35
1, 77768, Control_c, 0, 64, 62
1, 77775, Note_on_c, 0, 69, 66
1, 77783, Control_c, 0, 64, 36
1, 77785, Note_on_c, 0, 49, 38
1, 77790, Note_off_c, 0, 60, 18
1, 77805, Control_c, 0, 64, 31
1, 77820, Control_c, 0, 64, 45
1, 77835, Control_c, 0, 64, 55
1, 77850, Control_c, 0, 64, 62
1, 77865, Control_c, 0, 64, 66
1, 77871, Note_off_c, 0, 69, 60
1, 77876, Note_on_c, 0, 70, 67
1, 77880, Control_c, 0, 64, 70
1, 77894, Note_off_c, 0, 49, 61
1, 77894, Control_c, 0, 64, 78
1, 77909, Control_c, 0, 64, 97
1, 77924, Control_c, 0, 64, 127
1, 77957, Note_off_c, 0, 70, 63
1, 77975, Note_on_c, 0, 80, 66
1, 78029, Note_off_c, 0, 80, 64
1, 78057, Note_on_c, 0, 76, 74
1, 78136, Note_off_c, 0, 76, 62
1, 78144, Note_on_c, 0, 77, 77
1, 78146, Note_on_c, 0, 58, 46
1, 78204, Note_off_c, 0, 77, 60
1, 78223, Note_on_c, 0, 85, 75
1, 78270, Note_off_c, 0, 85, 65
1, 78306, Note_on_c, 0, 81, 71
1, 78324, Note_on_c, 0, 65, 52
1, 78378, Note_off_c, 0, 58, 37
1, 78378, Note_off_c, 0, 81, 63
1, 78379, Note_on_c, 0, 82, 71
1, 78440, Note_off_c, 0, 82, 64
1, 78471, Note_on_c, 0, 92, 73
1, 78523, Note_off_c, 0, 92, 64
1, 78528, Note_on_c, 0, 68, 34
1, 78544, Note_on_c, 0, 88, 62
1, 78586, Note_off_c, 0, 65, 27
1, 78592, Note_off_c, 0, 88, 61
1, 78633, Note_on_c, 0, 89, 60
1, 78639, Note_on_c, 0, 91, 52
1, 78667, Note_off_c, 0, 91, 55
1, 78689, Note_on_c, 0, 84, 65
1, 78730, Note_off_c, 0, 89, 62
1, 78739, Note_off_c, 0, 84, 62
1, 78742, Note_on_c, 0, 85, 66
1, 78757, Note_off_c, 0, 68, 37
1, 78772, Note_off_c, 0, 85, 68
1, 78804, Note_on_c, 0, 81, 59
1, 78837, Note_off_c, 0, 81, 65
1, 78867, Note_on_c, 0, 82, 73
1, 78896, Note_off_c, 0, 82, 68
1, 78941, Note_on_c, 0, 76, 61
1, 78986, Note_off_c, 0, 76, 54
1, 79004, Note_on_c, 0, 77, 70
1, 79015, Control_c, 0, 64, 116
1, 79030, Control_c, 0, 64, 108
1, 79045, Control_c, 0, 64, 102
1, 79059, Control_c, 0, 64, 98
1, 79074, Control_c, 0, 64, 95
1, 79081, Note_on_c, 0, 72, 60
1, 79089, Control_c, 0, 64, 91
1, 79100, Note_off_c, 0, 77, 57
1, 79104, Control_c, 0, 64, 87
1, 79119, Control_c, 0, 64, 83
1, 79132, Note_off_c, 0, 72, 59
1, 79133, Control_c, 0, 64, 79
1, 79135, Note_on_c, 0, 73, 65
1, 79148, Control_c, 0, 64, 77
1, 79163, Control_c, 0, 64, 75
1, 79177, Control_c, 0, 64, 74
1, 79182, Note_off_c, 0, 73, 63
1, 79192, Control_c, 0, 64, 73
1, 79205, Note_on_c, 0, 69, 56
1, 79207, Control_c, 0, 64, 72
1, 79222, Control_c, 0, 64, 71
1, 79237, Control_c, 0, 64, 69
1, 79251, Note_off_c, 0, 69, 56
1, 79251, Control_c, 0, 64, 68
1, 79266, Control_c, 0, 64, 67
1, 79281, Control_c, 0, 64, 67
1, 79296, Note_on_c, 0, 70, 51
1, 79296, Control_c, 0, 64, 66
1, 79333, Control_c, 0, 64, 65
1, 79348, Control_c, 0, 64, 65
1, 79363, Control_c, 0, 64, 64
1, 79378, Control_c, 0, 64, 64
1, 79392, Control_c, 0, 64, 63
1, 79396, Note_off_c, 0, 70, 57
1, 79401, Note_on_c, 0, 64, 50
1, 79407, Control_c, 0, 64, 63
1, 79422, Control_c, 0, 64, 62
1, 79452, Control_c, 0, 64, 62
1, 79481, Control_c, 0, 64, 61
1, 79482, Note_off_c, 0, 64, 50
1, 79511, Control_c, 0, 64, 61
1, 79512, Note_on_c, 0, 65, 36
1, 79526, Control_c, 0, 64, 60
1, 79540, Control_c, 0, 64, 60
1, 79571, Control_c, 0, 64, 59
1, 79591, Note_on_c, 0, 68, 35
1, 79600, Control_c, 0, 64, 59
1, 79630, Control_c, 0, 64, 58
1, 79645, Control_c, 0, 64, 58
1, 79660, Control_c, 0, 64, 57
1, 79675, Control_c, 0, 64, 57
1, 79680, Note_off_c, 0, 65, 32
1, 79689, Control_c, 0, 64, 56
1, 79704, Control_c, 0, 64, 55
1, 79719, Control_c, 0, 64, 53
1, 79732, Note_on_c, 0, 49, 38
1, 79734, Control_c, 0, 64, 52
1, 79749, Control_c, 0, 64, 52
1, 79784, Note_off_c, 0, 68, 35
1, 79794, Control_c, 0, 64, 52
1, 79808, Control_c, 0, 64, 53
1, 79823, Control_c, 0, 64, 55
1, 79832, Note_on_c, 0, 64, 38
1, 79838, Control_c, 0, 64, 57
1, 79853, Control_c, 0, 64, 59
1, 79868, Control_c, 0, 64, 61
1, 79882, Control_c, 0, 64, 63
1, 79897, Control_c, 0, 64, 64
1, 79900, Note_off_c, 0, 64, 54
1, 79912, Control_c, 0, 64, 67
1, 79927, Control_c, 0, 64, 70
1, 79940, Note_on_c, 0, 65, 44
1, 79942, Control_c, 0, 64, 74
1, 79949, Note_on_c, 0, 59, 32
1, 79956, Control_c, 0, 64, 84
1, 79971, Control_c, 0, 64, 94
1, 79986, Control_c, 0, 64, 104
1, 79995, Note_off_c, 0, 65, 58
1, 80000, Control_c, 0, 64, 110
1, 80015, Control_c, 0, 64, 111
1, 80024, Note_on_c, 0, 68, 43
1, 80045, Control_c, 0, 64, 110
1, 80068, Control_c, 0, 64, 109
1, 80080, Note_off_c, 0, 68, 54
1, 80082, Control_c, 0, 64, 108
1, 80089, Note_on_c, 0, 53, 35
1, 80097, Control_c, 0, 64, 106
1, 80105, Note_on_c, 0, 65, 46
1, 80112, Control_c, 0, 64, 105
1, 80122, Note_off_c, 0, 59, 39
1, 80127, Control_c, 0, 64, 104
1, 80142, Control_c, 0, 64, 103
1, 80152, Note_off_c, 0, 65, 59
1, 80156, Control_c, 0, 64, 102
1, 80171, Control_c, 0, 64, 101
1, 80172, Note_on_c, 0, 66, 47
1, 80186, Control_c, 0, 64, 98
1, 80201, Control_c, 0, 64, 92
1, 80215, Control_c, 0, 64, 79
1, 80220, Note_off_c, 0, 66, 60
1, 80230, Control_c, 0, 64, 67
1, 80241, Note_on_c, 0, 68, 43
1, 80245, Control_c, 0, 64, 54
1, 80252, Note_on_c, 0, 48, 38
1, 80260, Control_c, 0, 64, 55
1, 80262, Note_off_c, 0, 53, 44
1, 80275, Control_c, 0, 64, 60
1, 80289, Control_c, 0, 64, 63
1, 80303, Note_off_c, 0, 68, 56
1, 80304, Control_c, 0, 64, 67
1, 80305, Note_off_c, 0, 49, 20
1, 80319, Control_c, 0, 64, 74
1, 80326, Note_off_c, 0, 48, 63
1, 80334, Control_c, 0, 64, 89
1, 80346, Note_on_c, 0, 66, 37
1, 80349, Control_c, 0, 64, 127
1, 80381, Note_off_c, 0, 66, 52
1, 80417, Note_on_c, 0, 67, 44
1, 80444, Note_off_c, 0, 67, 59
1, 80445, Note_on_c, 0, 58, 39
1, 80452, Note_on_c, 0, 61, 31
1, 80542, Note_off_c, 0, 58, 50
1, 80550, Note_on_c, 0, 69, 55
1, 80551, Note_on_c, 0, 64, 39
1, 80560, Note_off_c, 0, 61, 38
1, 80587, Note_off_c, 0, 69, 64
1, 80620, Note_on_c, 0, 70, 49
1, 80656, Note_off_c, 0, 70, 63
1, 80664, Note_off_c, 0, 64, 48
1, 80668, Note_on_c, 0, 73, 63
1, 80696, Note_off_c, 0, 73, 67
1, 80740, Note_on_c, 0, 76, 69
1, 80786, Note_off_c, 0, 76, 60
1, 80816, Note_on_c, 0, 79, 50
1, 80858, Note_on_c, 0, 80, 73
1, 80859, Note_off_c, 0, 79, 65
1, 80882, Note_off_c, 0, 80, 69
1, 80926, Note_on_c, 0, 81, 68
1, 80981, Note_off_c, 0, 81, 63
1, 80997, Note_on_c, 0, 82, 66
1, 81072, Note_off_c, 0, 82, 64
1, 81098, Note_on_c, 0, 85, 63
1, 81153, Note_off_c, 0, 85, 65
1, 81550, Note_on_c, 0, 64, 58
1, 81641, Note_on_c, 0, 65, 59
1, 81648, Note_off_c, 0, 64, 53
1, 81711, Note_on_c, 0, 49, 56
1, 81713, Control_c, 0, 64, 114
1, 81727, Control_c, 0, 64, 103
1, 81736, Note_on_c, 0, 68, 64
1, 81737, Note_off_c, 0, 65, 58
1, 81742, Control_c, 0, 64, 91
1, 81757, Control_c, 0, 64, 79
1, 81772, Control_c, 0, 64, 70
1, 81786, Control_c, 0, 64, 64
1, 81801, Control_c, 0, 64, 62
1, 81812, Note_on_c, 0, 64, 59
1, 81816, Control_c, 0, 64, 63
1, 81831, Control_c, 0, 64, 64
1, 81839, Note_off_c, 0, 68, 56
1, 81846, Control_c, 0, 64, 67
1, 81860, Control_c, 0, 64, 72
1, 81874, Note_on_c, 0, 65, 64
1, 81875, Control_c, 0, 64, 82
1, 81891, Control_c, 0, 64, 103
1, 81898, Note_on_c, 0, 59, 52
1, 81906, Note_off_c, 0, 64, 59
1, 81906, Control_c, 0, 64, 127
1, 81946, Note_off_c, 0, 65, 63
1, 81948, Note_on_c, 0, 68, 83
1, 82015, Note_on_c, 0, 65, 74
1, 82023, Note_on_c, 0, 53, 57
1, 82027, Note_off_c, 0, 68, 60
1, 82030, Note_off_c, 0, 59, 56
1, 82080, Note_on_c, 0, 66, 76
1, 82095, Note_off_c, 0, 65, 63
1, 82143, Note_off_c, 0, 49, 36
1, 82144, Control_c, 0, 64, 95
1, 82150, Note_on_c, 0, 68, 72
1, 82153, Note_off_c, 0, 66, 61
1, 82157, Note_off_c, 0, 53, 57
1, 82157, Note_on_c, 0, 48, 63
1, 82158, Control_c, 0, 64, 70
1, 82173, Control_c, 0, 64, 35
1, 82188, Control_c, 0, 64, 0
1, 82214, Note_off_c, 0, 68, 62
1, 82217, Control_c, 0, 64, 40
1, 82226, Note_on_c, 0, 66, 63
1, 82232, Control_c, 0, 64, 60
1, 82243, Note_off_c, 0, 48, 66
1, 82247, Control_c, 0, 64, 68
1, 82262, Control_c, 0, 64, 77
1, 82277, Control_c, 0, 64, 96
1, 82289, Note_off_c, 0, 66, 62
1, 82292, Control_c, 0, 64, 127
1, 82318, Note_on_c, 0, 67, 66
1, 82348, Note_on_c, 0, 61, 57
1, 82349, Note_on_c, 0, 58, 54
1, 82349, Note_off_c, 0, 67, 63
1, 82384, Note_on_c, 0, 68, 69
1, 82419, Note_off_c, 0, 68, 61
1, 82452, Note_off_c, 0, 58, 56
1, 82453, Note_on_c, 0, 69, 65
1, 82470, Note_on_c, 0, 64, 47
1, 82472, Note_off_c, 0, 61, 49
1, 82500, Note_off_c, 0, 69, 51
1, 82520, Note_on_c, 0, 70, 67
1, 82563, Note_off_c, 0, 70, 61
1, 82566, Note_off_c, 0, 64, 46
1, 82582, Note_on_c, 0, 73, 71
1, 82605, Note_off_c, 0, 73, 66
1, 82653, Note_on_c, 0, 76, 62
1, 82687, Note_off_c, 0, 76, 65
1, 82699, Note_on_c, 0, 79, 72
1, 82732, Note_off_c, 0, 79, 61
1, 82763, Note_on_c, 0, 80, 34
1, 82792, Note_on_c, 0, 81, 64
1, 82795, Note_off_c, 0, 80, 33
1, 82827, Note_off_c, 0, 81, 63
1, 82845, Note_on_c, 0, 82, 73
1, 82886, Note_on_c, 0, 85, 70
1, 82896, Note_off_c, 0, 82, 62
1, 82936, Note_off_c, 0, 85, 63
1, 82961, Note_on_c, 0, 76, 65
1, 83007, Note_off_c, 0, 76, 59
1, 83009, Note_on_c, 0, 79, 79
1, 83080, Note_off_c, 0, 79, 63
1, 83083, Note_on_c, 0, 80, 80
1, 83104, Note_off_c, 0, 80, 72
1, 83143, Note_on_c, 0, 81, 69
1, 83197, Note_off_c, 0, 81, 62
1, 83199, Note_on_c, 0, 82, 86
1, 83238, Note_off_c, 0, 82, 68
1, 83258, Note_on_c, 0, 85, 82
1, 83277, Note_off_c, 0, 85, 72
1, 83323, Note_on_c, 0, 88, 85
1, 83381, Note_on_c, 0, 91, 89
1, 83389, Note_off_c, 0, 88, 64
1, 83441, Note_on_c, 0, 92, 86
1, 83449, Note_off_c, 0, 91, 64
1, 83463, Note_off_c, 0, 92, 70
1, 83500, Note_on_c, 0, 93, 83
1, 83561, Note_on_c, 0, 94, 91
1, 83570, Note_off_c, 0, 93, 62
1, 83622, Note_on_c, 0, 97, 78
1, 83642, Note_off_c, 0, 94, 64
1, 83676, Note_off_c, 0, 97, 64
1, 83684, Note_on_c, 0, 95, 75
1, 83747, Note_on_c, 0, 96, 75
1, 83749, Note_off_c, 0, 95, 55
1, 83811, Note_on_c, 0, 94, 49
1, 83849, Note_off_c, 0, 96, 64
1, 83853, Note_on_c, 0, 95, 67
1, 83861, Note_off_c, 0, 94, 63
1, 83884, Note_off_c, 0, 95, 65
1, 83901, Note_on_c, 0, 93, 67
1, 83956, Note_on_c, 0, 94, 82
1, 83964, Note_off_c, 0, 93, 59
1, 84000, Note_on_c, 0, 92, 58
1, 84038, Note_on_c, 0, 93, 64
1, 84053, Note_off_c, 0, 94, 65
1, 84057, Note_off_c, 0, 92, 65
1, 84071, Note_off_c, 0, 93, 66
1, 84087, Note_on_c, 0, 91, 73
1, 84150, Note_on_c, 0, 92, 83
1, 84153, Note_off_c, 0, 91, 62
1, 84187, Note_on_c, 0, 90, 65
1, 84230, Note_on_c, 0, 91, 70
1, 84235, Note_off_c, 0, 92, 66
1, 84248, Note_off_c, 0, 90, 63
1, 84260, Note_off_c, 0, 91, 67
1, 84281, Note_on_c, 0, 89, 75
1, 84316, Note_off_c, 0, 89, 61
1, 84340, Note_on_c, 0, 90, 64
1, 84359, Note_off_c, 0, 90, 63
1, 84393, Note_on_c, 0, 88, 67
1, 84453, Note_on_c, 0, 89, 70
1, 84453, Note_off_c, 0, 88, 63
1, 84477, Control_c, 0, 64, 117
1, 84492, Control_c, 0, 64, 112
1, 84507, Control_c, 0, 64, 110
1, 84520, Note_on_c, 0, 87, 50
1, 84522, Control_c, 0, 64, 107
1, 84537, Control_c, 0, 64, 104
1, 84538, Note_off_c, 0, 89, 62
1, 84559, Note_on_c, 0, 88, 53
1, 84559, Control_c, 0, 64, 102
1, 84563, Note_off_c, 0, 87, 51
1, 84574, Control_c, 0, 64, 99
1, 84580, Note_off_c, 0, 88, 63
1, 84589, Control_c, 0, 64, 97
1, 84604, Control_c, 0, 64, 94
1, 84607, Note_on_c, 0, 86, 60
1, 84619, Control_c, 0, 64, 91
1, 84633, Control_c, 0, 64, 89
1, 84648, Control_c, 0, 64, 88
1, 84661, Note_on_c, 0, 87, 62
1, 84663, Control_c, 0, 64, 87
1, 84664, Note_off_c, 0, 86, 52
1, 84677, Control_c, 0, 64, 86
1, 84692, Control_c, 0, 64, 85
1, 84707, Control_c, 0, 64, 84
1, 84714, Note_on_c, 0, 85, 40
1, 84722, Control_c, 0, 64, 83
1, 84736, Note_off_c, 0, 87, 61
1, 84737, Control_c, 0, 64, 81
1, 84743, Note_on_c, 0, 86, 58
1, 84751, Note_off_c, 0, 85, 51
1, 84751, Control_c, 0, 64, 80
1, 84766, Control_c, 0, 64, 78
1, 84775, Note_off_c, 0, 86, 66
1, 84781, Control_c, 0, 64, 77
1, 84796, Control_c, 0, 64, 75
1, 84805, Note_on_c, 0, 84, 53
1, 84810, Control_c, 0, 64, 74
1, 84825, Control_c, 0, 64, 73
1, 84831, Note_off_c, 0, 84, 55
1, 84840, Control_c, 0, 64, 71
1, 84855, Control_c, 0, 64, 70
1, 84864, Note_on_c, 0, 85, 60
1, 84870, Control_c, 0, 64, 69
1, 84885, Control_c, 0, 64, 69
1, 84894, Note_off_c, 0, 85, 67
1, 84900, Control_c, 0, 64, 66
1, 84915, Control_c, 0, 64, 63
1, 84924, Note_on_c, 0, 83, 55
1, 84930, Control_c, 0, 64, 59
1, 84944, Control_c, 0, 64, 54
1, 84959, Control_c, 0, 64, 52
1, 84960, Note_off_c, 0, 83, 63
1, 84965, Note_on_c, 0, 85, 62
1, 84989, Control_c, 0, 64, 54
1, 84998, Note_off_c, 0, 85, 63
1, 85003, Control_c, 0, 64, 57
1, 85018, Control_c, 0, 64, 60
1, 85023, Note_on_c, 0, 84, 60
1, 85033, Control_c, 0, 64, 62
1, 85048, Control_c, 0, 64, 64
1, 85058, Note_off_c, 0, 84, 63
1, 85063, Control_c, 0, 64, 66
1, 85074, Note_on_c, 0, 85, 52
1, 85077, Control_c, 0, 64, 70
1, 85092, Control_c, 0, 64, 75
1, 85097, Note_off_c, 0, 85, 62
1, 85107, Control_c, 0, 64, 84
1, 85114, Note_on_c, 0, 83, 59
1, 85122, Control_c, 0, 64, 97
1, 85138, Control_c, 0, 64, 127
1, 85151, Note_off_c, 0, 83, 64
1, 85168, Note_on_c, 0, 85, 70
1, 85198, Note_off_c, 0, 85, 66
1, 85217, Note_on_c, 0, 84, 74
1, 85268, Note_off_c, 0, 84, 62
1, 85272, Note_on_c, 0, 85, 71
1, 85306, Note_off_c, 0, 85, 66
1, 85327, Note_on_c, 0, 83, 75
1, 85374, Note_off_c, 0, 83, 62
1, 85383, Note_on_c, 0, 85, 81
1, 85432, Note_off_c, 0, 85, 64
1, 85437, Note_on_c, 0, 84, 77
1, 85490, Note_on_c, 0, 85, 70
1, 85496, Note_off_c, 0, 84, 64
1, 85531, Note_off_c, 0, 85, 62
1, 85539, Note_on_c, 0, 83, 77
1, 85597, Note_off_c, 0, 83, 62
1, 85599, Note_on_c, 0, 85, 84
1, 85654, Note_off_c, 0, 85, 65
1, 85659, Note_on_c, 0, 84, 77
1, 85715, Note_off_c, 0, 84, 63
1, 85718, Note_on_c, 0, 85, 64
1, 85751, Note_off_c, 0, 85, 65
1, 85764, Note_on_c, 0, 83, 61
1, 85806, Note_off_c, 0, 83, 61
1, 85823, Note_on_c, 0, 85, 70
1, 85858, Note_off_c, 0, 85, 59
1, 85882, Note_on_c, 0, 84, 55
1, 85925, Note_off_c, 0, 84, 60
1, 85943, Note_on_c, 0, 85, 51
1, 85974, Note_off_c, 0, 85, 53
1, 85992, Note_on_c, 0, 83, 44
1, 86019, Note_off_c, 0, 83, 57
1, 86027, Note_on_c, 0, 85, 54
1, 86079, Note_off_c, 0, 85, 58
1, 86086, Note_on_c, 0, 84, 45
1, 86115, Note_off_c, 0, 84, 58
1, 86148, Note_on_c, 0, 83, 44
1, 86174, Note_on_c, 0, 85, 9
1, 86199, Note_off_c, 0, 83, 58
1, 86213, Note_on_c, 0, 84, 56
1, 86254, Note_off_c, 0, 84, 57
1, 86265, Note_off_c, 0, 85, 0
1, 86265, Note_on_c, 0, 85, 8
1, 86314, Note_off_c, 0, 85, 51
1, 86335, Note_on_c, 0, 84, 44
1, 86359, Note_off_c, 0, 84, 57
1, 86370, Note_on_c, 0, 85, 51
1, 86406, Note_off_c, 0, 85, 65
1, 86446, Note_on_c, 0, 84, 55
1, 86468, Note_off_c, 0, 84, 59
1, 86490, Note_on_c, 0, 85, 59
1, 86519, Note_off_c, 0, 85, 62
1, 86557, Note_on_c, 0, 84, 52
1, 86589, Note_off_c, 0, 84, 49
1, 86613, Note_on_c, 0, 85, 40
1, 86640, Note_off_c, 0, 85, 56
1, 86647, Note_on_c, 0, 84, 44
1, 86747, Note_off_c, 0, 84, 39
1, 86786, Note_on_c, 0, 83, 35
1, 86816, Note_on_c, 0, 68, 38
1, 86841, Note_off_c, 0, 83, 52
1, 86848, Note_on_c, 0, 84, 28
1, 86918, Note_off_c, 0, 84, 55
1, 86938, Note_on_c, 0, 85, 42
1, 86963, Note_off_c, 0, 85, 57
1, 87010, Note_on_c, 0, 86, 51
1, 87033, Note_on_c, 0, 77, 34
1, 87046, Note_off_c, 0, 86, 60
1, 87074, Note_on_c, 0, 87, 49
1, 87110, Note_off_c, 0, 87, 53
1, 87120, Note_on_c, 0, 88, 52
1, 87160, Note_on_c, 0, 72, 32
1, 87162, Note_off_c, 0, 88, 61
1, 87189, Note_on_c, 0, 89, 55
1, 87241, Note_on_c, 0, 88, 49
1, 87247, Note_off_c, 0, 77, 35
1, 87249, Note_off_c, 0, 89, 56
1, 87250, Control_c, 0, 64, 115
1, 87264, Control_c, 0, 64, 105
1, 87279, Control_c, 0, 64, 94
1, 87288, Note_on_c, 0, 67, 41
1, 87290, Note_off_c, 0, 88, 62
1, 87294, Control_c, 0, 64, 83
1, 87308, Note_on_c, 0, 87, 51
1, 87309, Control_c, 0, 64, 72
1, 87323, Note_off_c, 0, 72, 29
1, 87324, Control_c, 0, 64, 66
1, 87330, Note_off_c, 0, 87, 61
1, 87338, Control_c, 0, 64, 64
1, 87353, Control_c, 0, 64, 65
1, 87364, Note_on_c, 0, 86, 50
1, 87368, Control_c, 0, 64, 66
1, 87383, Control_c, 0, 64, 68
1, 87388, Note_off_c, 0, 68, 32
1, 87398, Control_c, 0, 64, 71
1, 87408, Note_off_c, 0, 86, 60
1, 87413, Control_c, 0, 64, 75
1, 87428, Control_c, 0, 64, 79
1, 87438, Note_on_c, 0, 85, 45
1, 87443, Control_c, 0, 64, 86
1, 87458, Control_c, 0, 64, 93
1, 87472, Control_c, 0, 64, 99
1, 87478, Note_off_c, 0, 85, 58
1, 87480, Note_on_c, 0, 75, 36
1, 87487, Control_c, 0, 64, 102
1, 87499, Note_on_c, 0, 84, 50
1, 87502, Control_c, 0, 64, 102
1, 87506, Note_off_c, 0, 67, 60
1, 87523, Note_off_c, 0, 84, 57
1, 87555, Control_c, 0, 64, 102
1, 87567, Note_on_c, 0, 83, 53
1, 87584, Control_c, 0, 64, 101
1, 87599, Control_c, 0, 64, 100
1, 87604, Note_off_c, 0, 83, 64
1, 87609, Note_on_c, 0, 70, 41
1, 87614, Control_c, 0, 64, 99
1, 87629, Control_c, 0, 64, 98
1, 87643, Control_c, 0, 64, 98
1, 87649, Note_on_c, 0, 82, 35
1, 87658, Control_c, 0, 64, 96
1, 87673, Control_c, 0, 64, 96
1, 87680, Note_off_c, 0, 82, 51
1, 87684, Note_off_c, 0, 75, 34
1, 87688, Control_c, 0, 64, 95
1, 87702, Control_c, 0, 64, 93
1, 87704, Note_on_c, 0, 81, 36
1, 87717, Control_c, 0, 64, 92
1, 87732, Control_c, 0, 64, 91
1, 87734, Note_off_c, 0, 81, 55
1, 87747, Control_c, 0, 64, 89
1, 87757, Note_on_c, 0, 65, 48
1, 87762, Control_c, 0, 64, 86
1, 87771, Note_on_c, 0, 80, 47
1, 87776, Control_c, 0, 64, 82
1, 87791, Control_c, 0, 64, 74
1, 87806, Control_c, 0, 64, 67
1, 87811, Note_off_c, 0, 70, 35
1, 87818, Note_off_c, 0, 80, 61
1, 87821, Control_c, 0, 64, 64
1, 87842, Note_on_c, 0, 81, 43
1, 87851, Control_c, 0, 64, 65
1, 87866, Control_c, 0, 64, 66
1, 87881, Control_c, 0, 64, 69
1, 87884, Note_off_c, 0, 81, 61
1, 87895, Control_c, 0, 64, 74
1, 87910, Control_c, 0, 64, 81
1, 87925, Control_c, 0, 64, 92
1, 87926, Note_on_c, 0, 73, 38
1, 87931, Note_on_c, 0, 82, 59
1, 87940, Control_c, 0, 64, 108
1, 87955, Control_c, 0, 64, 127
1, 87973, Note_off_c, 0, 82, 65
1, 87991, Note_on_c, 0, 83, 63
1, 88028, Control_c, 0, 64, 123
1, 88039, Note_off_c, 0, 83, 56
1, 88041, Note_on_c, 0, 84, 65
1, 88043, Control_c, 0, 64, 118
1, 88058, Control_c, 0, 64, 115
1, 88059, Note_on_c, 0, 68, 38
1, 88073, Control_c, 0, 64, 113
1, 88087, Control_c, 0, 64, 111
1, 88101, Note_on_c, 0, 87, 70
1, 88102, Note_off_c, 0, 84, 62
1, 88102, Control_c, 0, 64, 108
1, 88117, Control_c, 0, 64, 106
1, 88132, Control_c, 0, 64, 104
1, 88147, Control_c, 0, 64, 103
1, 88148, Note_on_c, 0, 85, 67
1, 88162, Control_c, 0, 64, 100
1, 88170, Note_on_c, 0, 64, 41
1, 88176, Control_c, 0, 64, 96
1, 88189, Note_off_c, 0, 87, 56
1, 88191, Control_c, 0, 64, 88
1, 88206, Control_c, 0, 64, 78
1, 88218, Note_on_c, 0, 84, 69
1, 88221, Control_c, 0, 64, 69
1, 88236, Control_c, 0, 64, 64
1, 88236, Note_off_c, 0, 85, 63
1, 88251, Note_off_c, 0, 84, 61
1, 88257, Note_off_c, 0, 65, 35
1, 88265, Control_c, 0, 64, 65
1, 88272, Note_on_c, 0, 83, 67
1, 88274, Note_off_c, 0, 73, 44
1, 88280, Control_c, 0, 64, 67
1, 88302, Control_c, 0, 64, 70
1, 88317, Control_c, 0, 64, 74
1, 88332, Control_c, 0, 64, 80
1, 88339, Note_on_c, 0, 72, 43
1, 88343, Note_off_c, 0, 83, 63
1, 88348, Note_on_c, 0, 82, 69
1, 88348, Control_c, 0, 64, 90
1, 88363, Control_c, 0, 64, 103
1, 88378, Control_c, 0, 64, 123
1, 88382, Note_off_c, 0, 82, 62
1, 88382, Note_off_c, 0, 64, 59
1, 88392, Control_c, 0, 64, 127
1, 88410, Note_on_c, 0, 81, 62
1, 88422, Control_c, 0, 64, 123
1, 88437, Control_c, 0, 64, 121
1, 88447, Note_off_c, 0, 81, 59
1, 88452, Control_c, 0, 64, 118
1, 88456, Note_on_c, 0, 67, 48
1, 88466, Control_c, 0, 64, 116
1, 88474, Note_on_c, 0, 80, 65
1, 88481, Control_c, 0, 64, 113
1, 88489, Note_off_c, 0, 68, 34
1, 88496, Control_c, 0, 64, 111
1, 88504, Note_off_c, 0, 80, 65
1, 88511, Control_c, 0, 64, 109
1, 88525, Control_c, 0, 64, 105
1, 88533, Note_off_c, 0, 72, 34
1, 88540, Control_c, 0, 64, 103
1, 88543, Note_on_c, 0, 79, 53
1, 88555, Control_c, 0, 64, 102
1, 88570, Control_c, 0, 64, 101
1, 88582, Note_on_c, 0, 63, 49
1, 88585, Control_c, 0, 64, 98
1, 88590, Note_off_c, 0, 79, 57
1, 88599, Note_on_c, 0, 78, 56
1, 88599, Control_c, 0, 64, 93
1, 88614, Control_c, 0, 64, 84
1, 88629, Control_c, 0, 64, 74
1, 88640, Note_off_c, 0, 78, 58
1, 88641, Note_off_c, 0, 67, 29
1, 88644, Control_c, 0, 64, 66
1, 88659, Control_c, 0, 64, 61
1, 88664, Note_on_c, 0, 77, 58
1, 88674, Control_c, 0, 64, 62
1, 88689, Control_c, 0, 64, 63
1, 88704, Control_c, 0, 64, 65
1, 88709, Note_off_c, 0, 77, 61
1, 88718, Control_c, 0, 64, 68
1, 88733, Control_c, 0, 64, 71
1, 88745, Note_on_c, 0, 72, 40
1, 88748, Control_c, 0, 64, 75
1, 88751, Note_on_c, 0, 76, 44
1, 88763, Control_c, 0, 64, 82
1, 88778, Control_c, 0, 64, 93
1, 88780, Note_off_c, 0, 76, 59
1, 88792, Control_c, 0, 64, 106
1, 88807, Control_c, 0, 64, 127
1, 88811, Note_off_c, 0, 63, 53
1, 88816, Note_on_c, 0, 77, 26
1, 88836, Control_c, 0, 64, 123
1, 88841, Note_on_c, 0, 78, 44
1, 88851, Control_c, 0, 64, 118
1, 88853, Note_off_c, 0, 77, 45
1, 88866, Note_off_c, 0, 78, 59
1, 88866, Control_c, 0, 64, 115
1, 88876, Note_on_c, 0, 69, 36
1, 88881, Control_c, 0, 64, 113
1, 88896, Control_c, 0, 64, 111
1, 88910, Note_on_c, 0, 79, 52
1, 88910, Control_c, 0, 64, 109
1, 88925, Control_c, 0, 64, 107
1, 88940, Control_c, 0, 64, 105
1, 88941, Note_off_c, 0, 79, 64
1, 88955, Control_c, 0, 64, 104
1, 88961, Note_off_c, 0, 72, 41
1, 88970, Control_c, 0, 64, 103
1, 88977, Note_on_c, 0, 80, 53
1, 88984, Control_c, 0, 64, 102
1, 88993, Note_on_c, 0, 62, 43
1, 88999, Control_c, 0, 64, 100
1, 89011, Note_off_c, 0, 80, 64
1, 89014, Control_c, 0, 64, 97
1, 89029, Control_c, 0, 64, 89
1, 89051, Note_on_c, 0, 81, 54
1, 89051, Control_c, 0, 64, 80
1, 89059, Note_off_c, 0, 69, 41
1, 89066, Control_c, 0, 64, 70
1, 89081, Control_c, 0, 64, 65
1, 89085, Note_off_c, 0, 81, 62
1, 89109, Note_on_c, 0, 82, 60
1, 89111, Control_c, 0, 64, 66
1, 89125, Control_c, 0, 64, 68
1, 89141, Control_c, 0, 64, 71
1, 89151, Note_off_c, 0, 82, 65
1, 89156, Control_c, 0, 64, 75
1, 89171, Control_c, 0, 64, 82
1, 89178, Note_on_c, 0, 70, 36
1, 89180, Note_on_c, 0, 83, 63
1, 89186, Control_c, 0, 64, 93
1, 89201, Control_c, 0, 64, 111
1, 89214, Note_off_c, 0, 83, 62
1, 89215, Control_c, 0, 64, 127
1, 89222, Note_on_c, 0, 84, 65
1, 89222, Note_off_c, 0, 62, 60
1, 89280, Note_on_c, 0, 65, 45
1, 89280, Note_on_c, 0, 85, 72
1, 89283, Note_off_c, 0, 84, 64
1, 89317, Note_off_c, 0, 85, 64
1, 89341, Note_on_c, 0, 86, 75
1, 89398, Note_off_c, 0, 86, 61
1, 89409, Note_on_c, 0, 87, 79
1, 89412, Note_on_c, 0, 61, 49
1, 89458, Note_off_c, 0, 65, 34
1, 89466, Note_off_c, 0, 87, 65
1, 89476, Note_on_c, 0, 88, 76
1, 89505, Note_off_c, 0, 70, 42
1, 89512, Control_c, 0, 64, 104
1, 89527, Control_c, 0, 64, 86
1, 89540, Note_on_c, 0, 89, 83
1, 89541, Control_c, 0, 64, 73
1, 89556, Control_c, 0, 64, 63
1, 89562, Note_on_c, 0, 71, 47
1, 89563, Note_off_c, 0, 88, 63
1, 89571, Control_c, 0, 64, 60
1, 89586, Control_c, 0, 64, 63
1, 89601, Control_c, 0, 64, 64
1, 89608, Note_on_c, 0, 92, 86
1, 89616, Note_off_c, 0, 89, 63
1, 89616, Control_c, 0, 64, 66
1, 89631, Control_c, 0, 64, 70
1, 89646, Control_c, 0, 64, 76
1, 89660, Control_c, 0, 64, 87
1, 89670, Note_on_c, 0, 91, 84
1, 89675, Control_c, 0, 64, 106
1, 89677, Note_on_c, 0, 65, 50
1, 89690, Control_c, 0, 64, 127
1, 89702, Note_off_c, 0, 61, 60
1, 89703, Note_off_c, 0, 92, 66
1, 89745, Note_on_c, 0, 90, 84
1, 89758, Note_off_c, 0, 71, 53
1, 89772, Note_off_c, 0, 91, 64
1, 89820, Note_on_c, 0, 60, 56
1, 89820, Note_off_c, 0, 90, 65
1, 89822, Note_on_c, 0, 89, 85
1, 89869, Note_off_c, 0, 65, 36
1, 89893, Note_on_c, 0, 88, 86
1, 89905, Note_off_c, 0, 89, 61
1, 89920, Control_c, 0, 64, 121
1, 89935, Control_c, 0, 64, 95
1, 89950, Control_c, 0, 64, 77
1, 89964, Note_on_c, 0, 87, 85
1, 89964, Control_c, 0, 64, 64
1, 89973, Note_on_c, 0, 72, 49
1, 89979, Note_off_c, 0, 88, 63
1, 89979, Control_c, 0, 64, 52
1, 89994, Control_c, 0, 64, 55
1, 90009, Control_c, 0, 64, 60
1, 90024, Control_c, 0, 64, 64
1, 90030, Note_on_c, 0, 86, 81
1, 90033, Note_off_c, 0, 87, 66
1, 90039, Control_c, 0, 64, 68
1, 90054, Control_c, 0, 64, 74
1, 90061, Note_off_c, 0, 60, 62
1, 90069, Control_c, 0, 64, 84
1, 90084, Control_c, 0, 64, 101
1, 90098, Control_c, 0, 64, 127
1, 90108, Note_on_c, 0, 85, 86
1, 90110, Note_on_c, 0, 64, 37
1, 90122, Note_off_c, 0, 86, 62
1, 90134, Note_on_c, 0, 67, 42
1, 90175, Note_off_c, 0, 72, 37
1, 90181, Note_on_c, 0, 84, 87
1, 90206, Note_off_c, 0, 85, 65
1, 90257, Note_on_c, 0, 58, 72
1, 90274, Note_off_c, 0, 84, 63
1, 90281, Note_on_c, 0, 83, 81
1, 90308, Note_off_c, 0, 67, 40
1, 90319, Note_off_c, 0, 64, 31
1, 90320, Control_c, 0, 64, 101
1, 90335, Control_c, 0, 64, 83
1, 90350, Control_c, 0, 64, 69
1, 90364, Control_c, 0, 64, 59
1, 90370, Note_on_c, 0, 84, 82
1, 90379, Control_c, 0, 64, 56
1, 90385, Note_off_c, 0, 83, 57
1, 90394, Control_c, 0, 64, 61
1, 90409, Control_c, 0, 64, 64
1, 90424, Control_c, 0, 64, 67
1, 90438, Control_c, 0, 64, 71
1, 90450, Note_off_c, 0, 58, 63
1, 90453, Control_c, 0, 64, 80
1, 90456, Note_off_c, 0, 84, 63
1, 90460, Note_on_c, 0, 72, 55
1, 90462, Note_on_c, 0, 85, 81
1, 90468, Control_c, 0, 64, 93
1, 90483, Control_c, 0, 64, 127
1, 90540, Note_on_c, 0, 84, 83
1, 90543, Note_off_c, 0, 85, 65
1, 90582, Note_off_c, 0, 72, 58
1, 90587, Note_on_c, 0, 64, 38
1, 90599, Note_on_c, 0, 67, 48
1, 90622, Note_on_c, 0, 85, 81
1, 90624, Note_off_c, 0, 84, 63
1, 90644, Note_off_c, 0, 67, 63
1, 90668, Note_off_c, 0, 64, 63
1, 90704, Note_on_c, 0, 84, 82
1, 90710, Note_off_c, 0, 85, 64
1, 90773, Control_c, 0, 64, 103
1, 90777, Note_on_c, 0, 56, 71
1, 90784, Note_off_c, 0, 84, 64
1, 90788, Control_c, 0, 64, 82
1, 90799, Note_on_c, 0, 83, 65
1, 90803, Control_c, 0, 64, 68
1, 90818, Control_c, 0, 64, 59
1, 90833, Control_c, 0, 64, 58
1, 90848, Control_c, 0, 64, 62
1, 90863, Control_c, 0, 64, 65
1, 90864, Note_on_c, 0, 84, 73
1, 90877, Note_off_c, 0, 83, 62
1, 90877, Control_c, 0, 64, 69
1, 90892, Control_c, 0, 64, 77
1, 90906, Control_c, 0, 64, 93
1, 90921, Control_c, 0, 64, 127
1, 90923, Note_on_c, 0, 85, 79
1, 90925, Note_off_c, 0, 56, 65
1, 90933, Note_off_c, 0, 84, 63
1, 90968, Note_off_c, 0, 85, 63
1, 90975, Note_on_c, 0, 72, 65
1, 90993, Note_on_c, 0, 86, 80
1, 91051, Note_on_c, 0, 87, 81
1, 91076, Note_off_c, 0, 86, 57
1, 91092, Note_off_c, 0, 72, 59
1, 91098, Note_on_c, 0, 65, 61
1, 91101, Note_on_c, 0, 88, 69
1, 91128, Note_off_c, 0, 65, 66
1, 91142, Note_off_c, 0, 87, 60
1, 91152, Note_on_c, 0, 91, 81
1, 91163, Note_off_c, 0, 88, 64
1, 91208, Note_on_c, 0, 89, 74
1, 91246, Note_on_c, 0, 55, 57
1, 91246, Control_c, 0, 64, 105
1, 91257, Note_off_c, 0, 91, 62
1, 91261, Control_c, 0, 64, 85
1, 91273, Note_on_c, 0, 88, 67
1, 91276, Control_c, 0, 64, 70
1, 91299, Control_c, 0, 64, 58
1, 91313, Control_c, 0, 64, 52
1, 91318, Note_off_c, 0, 89, 63
1, 91328, Control_c, 0, 64, 60
1, 91330, Note_off_c, 0, 88, 64
1, 91337, Note_on_c, 0, 87, 60
1, 91343, Control_c, 0, 64, 63
1, 91358, Control_c, 0, 64, 66
1, 91367, Note_off_c, 0, 87, 67
1, 91372, Note_on_c, 0, 86, 62
1, 91373, Control_c, 0, 64, 71
1, 91387, Control_c, 0, 64, 78
1, 91402, Control_c, 0, 64, 90
1, 91417, Control_c, 0, 64, 113
1, 91427, Note_on_c, 0, 70, 47
1, 91428, Note_off_c, 0, 86, 54
1, 91432, Control_c, 0, 64, 127
1, 91442, Note_on_c, 0, 85, 59
1, 91487, Note_off_c, 0, 85, 60
1, 91495, Note_on_c, 0, 84, 56
1, 91503, Note_off_c, 0, 55, 34
1, 91515, Note_off_c, 0, 84, 62
1, 91548, Note_on_c, 0, 63, 50
1, 91549, Note_off_c, 0, 70, 58
1, 91559, Note_on_c, 0, 83, 51
1, 91583, Note_off_c, 0, 83, 61
1, 91587, Note_off_c, 0, 63, 64
1, 91596, Control_c, 0, 64, 119
1, 91608, Note_on_c, 0, 82, 52
1, 91610, Control_c, 0, 64, 115
1, 91625, Control_c, 0, 64, 114
1, 91631, Note_off_c, 0, 82, 61
1, 91640, Control_c, 0, 64, 112
1, 91655, Control_c, 0, 64, 110
1, 91664, Note_on_c, 0, 81, 53
1, 91670, Control_c, 0, 64, 106
1, 91684, Control_c, 0, 64, 102
1, 91699, Control_c, 0, 64, 94
1, 91702, Note_on_c, 0, 53, 48
1, 91704, Note_off_c, 0, 81, 63
1, 91714, Control_c, 0, 64, 84
1, 91729, Control_c, 0, 64, 73
1, 91744, Control_c, 0, 64, 63
1, 91755, Note_on_c, 0, 80, 33
1, 91759, Control_c, 0, 64, 56
1, 91774, Control_c, 0, 64, 59
1, 91786, Note_off_c, 0, 80, 54
1, 91789, Control_c, 0, 64, 63
1, 91804, Control_c, 0, 64, 65
1, 91818, Control_c, 0, 64, 68
1, 91821, Note_on_c, 0, 81, 44
1, 91833, Control_c, 0, 64, 74
1, 91846, Note_off_c, 0, 81, 57
1, 91848, Control_c, 0, 64, 84
1, 91862, Control_c, 0, 64, 98
1, 91871, Note_on_c, 0, 68, 47
1, 91877, Control_c, 0, 64, 127
1, 91896, Note_on_c, 0, 82, 45
1, 91901, Note_off_c, 0, 53, 38
1, 91920, Note_off_c, 0, 82, 60
1, 91947, Note_on_c, 0, 83, 54
1, 91973, Note_off_c, 0, 83, 57
1, 91980, Note_on_c, 0, 61, 39
1, 91982, Note_on_c, 0, 84, 60
1, 92012, Note_off_c, 0, 68, 37
1, 92025, Control_c, 0, 64, 121
1, 92048, Control_c, 0, 64, 118
1, 92052, Note_off_c, 0, 84, 63
1, 92057, Note_on_c, 0, 87, 64
1, 92062, Control_c, 0, 64, 117
1, 92077, Control_c, 0, 64, 115
1, 92092, Control_c, 0, 64, 112
1, 92105, Note_on_c, 0, 85, 63
1, 92107, Control_c, 0, 64, 109
1, 92122, Control_c, 0, 64, 103
1, 92136, Note_on_c, 0, 52, 48
1, 92136, Control_c, 0, 64, 92
1, 92139, Note_off_c, 0, 87, 54
1, 92149, Note_off_c, 0, 61, 30
1, 92151, Control_c, 0, 64, 81
1, 92166, Control_c, 0, 64, 70
1, 92170, Note_on_c, 0, 84, 69
1, 92181, Control_c, 0, 64, 65
1, 92189, Note_off_c, 0, 85, 62
1, 92196, Control_c, 0, 64, 65
1, 92210, Control_c, 0, 64, 67
1, 92212, Note_off_c, 0, 84, 56
1, 92224, Note_on_c, 0, 83, 73
1, 92225, Control_c, 0, 64, 70
1, 92235, Note_off_c, 0, 52, 59
1, 92240, Control_c, 0, 64, 74
1, 92255, Control_c, 0, 64, 83
1, 92269, Control_c, 0, 64, 98
1, 92284, Note_off_c, 0, 83, 62
1, 92284, Control_c, 0, 64, 127
1, 92296, Note_on_c, 0, 82, 76
1, 92299, Note_on_c, 0, 67, 58
1, 92348, Note_off_c, 0, 82, 64
1, 92358, Note_on_c, 0, 81, 70
1, 92403, Note_off_c, 0, 67, 56
1, 92414, Note_off_c, 0, 81, 63
1, 92416, Note_on_c, 0, 80, 83
1, 92427, Note_on_c, 0, 60, 49
1, 92453, Note_off_c, 0, 60, 62
1, 92481, Note_off_c, 0, 80, 63
1, 92489, Note_on_c, 0, 79, 79
1, 92552, Control_c, 0, 64, 97
1, 92558, Note_on_c, 0, 51, 62
1, 92562, Note_on_c, 0, 78, 82
1, 92567, Control_c, 0, 64, 77
1, 92570, Note_off_c, 0, 79, 59
1, 92582, Control_c, 0, 64, 64
1, 92597, Control_c, 0, 64, 52
1, 92612, Control_c, 0, 64, 55
1, 92626, Control_c, 0, 64, 62
1, 92640, Note_on_c, 0, 77, 83
1, 92641, Control_c, 0, 64, 65
1, 92656, Control_c, 0, 64, 70
1, 92665, Note_off_c, 0, 78, 62
1, 92671, Control_c, 0, 64, 80
1, 92673, Note_off_c, 0, 51, 65
1, 92685, Control_c, 0, 64, 103
1, 92700, Control_c, 0, 64, 127
1, 92719, Note_off_c, 0, 77, 63
1, 92720, Note_on_c, 0, 76, 82
1, 92754, Note_on_c, 0, 69, 64
1, 92817, Note_on_c, 0, 77, 82
1, 92854, Note_off_c, 0, 76, 58
1, 92915, Note_off_c, 0, 77, 62
1, 92925, Note_on_c, 0, 60, 44
1, 92925, Note_on_c, 0, 65, 44
1, 92929, Note_on_c, 0, 85, 72
1, 92935, Note_off_c, 0, 69, 38
1, 92960, Note_off_c, 0, 65, 64
1, 92975, Note_off_c, 0, 60, 65
1, 93021, Note_on_c, 0, 84, 79
1, 93066, Note_off_c, 0, 85, 46
1, 93120, Note_off_c, 0, 84, 61
1, 93140, Note_on_c, 0, 49, 57
1, 93145, Note_on_c, 0, 81, 67
1, 93167, Control_c, 0, 64, 98
1, 93181, Control_c, 0, 64, 72
1, 93196, Control_c, 0, 64, 57
1, 93211, Control_c, 0, 64, 38
1, 93226, Control_c, 0, 64, 51
1, 93241, Control_c, 0, 64, 60
1, 93244, Note_off_c, 0, 81, 59
1, 93252, Note_on_c, 0, 82, 68
1, 93255, Control_c, 0, 64, 66
1, 93268, Note_off_c, 0, 49, 63
1, 93270, Control_c, 0, 64, 71
1, 93285, Control_c, 0, 64, 85
1, 93300, Control_c, 0, 64, 127
1, 93328, Note_off_c, 0, 82, 63
1, 93351, Note_on_c, 0, 92, 64
1, 93388, Note_off_c, 0, 92, 64
1, 93428, Note_on_c, 0, 88, 75
1, 93487, Note_on_c, 0, 61, 54
1, 93510, Note_on_c, 0, 89, 83
1, 93512, Note_off_c, 0, 88, 64
1, 93591, Note_on_c, 0, 97, 83
1, 93595, Note_off_c, 0, 89, 58
1, 93643, Note_off_c, 0, 97, 65
1, 93661, Note_on_c, 0, 70, 57
1, 93675, Note_on_c, 0, 93, 81
1, 93684, Note_off_c, 0, 61, 61
1, 93750, Note_on_c, 0, 94, 85
1, 93762, Note_off_c, 0, 70, 59
1, 93775, Note_off_c, 0, 93, 62
1, 93834, Note_off_c, 0, 94, 64
1, 93843, Note_on_c, 0, 77, 45
1, 93852, Note_on_c, 0, 104, 79
1, 93921, Note_off_c, 0, 104, 63
1, 93946, Note_on_c, 0, 100, 64
1, 93992, Note_off_c, 0, 100, 57
1, 94016, Note_on_c, 0, 101, 75
1, 94039, Note_on_c, 0, 80, 50
1, 94080, Note_off_c, 0, 77, 49
1, 94096, Note_on_c, 0, 96, 63
1, 94120, Note_off_c, 0, 101, 60
1, 94134, Note_on_c, 0, 97, 71
1, 94139, Note_off_c, 0, 96, 64
1, 94140, Note_off_c, 0, 80, 54
1, 94192, Note_off_c, 0, 97, 63
1, 94203, Note_on_c, 0, 93, 62
1, 94235, Note_off_c, 0, 93, 66
1, 94276, Note_on_c, 0, 94, 74
1, 94309, Note_off_c, 0, 94, 67
1, 94351, Note_on_c, 0, 88, 57
1, 94387, Note_off_c, 0, 88, 58
1, 94403, Note_on_c, 0, 89, 65
1, 94478, Note_on_c, 0, 84, 55
1, 94482, Note_off_c, 0, 89, 61
1, 94513, Note_off_c, 0, 84, 63
1, 94522, Note_on_c, 0, 85, 59
1, 94551, Note_off_c, 0, 85, 67
1, 94591, Note_on_c, 0, 81, 49
1, 94611, Note_off_c, 0, 81, 61
1, 94656, Note_on_c, 0, 82, 57
1, 94674, Note_off_c, 0, 82, 64
1, 94713, Note_on_c, 0, 76, 59
1, 94756, Note_off_c, 0, 76, 55
1, 94779, Note_on_c, 0, 77, 70
1, 94850, Note_on_c, 0, 72, 66
1, 94867, Note_off_c, 0, 77, 60
1, 94907, Note_on_c, 0, 73, 71
1, 94917, Note_off_c, 0, 72, 63
1, 94967, Note_off_c, 0, 73, 65
1, 94975, Note_on_c, 0, 69, 70
1, 95050, Note_off_c, 0, 69, 55
1, 95062, Note_on_c, 0, 70, 75
1, 95152, Note_on_c, 0, 64, 78
1, 95206, Note_off_c, 0, 70, 59
1, 95238, Note_on_c, 0, 65, 80
1, 95335, Note_off_c, 0, 64, 38
1, 95341, Note_on_c, 0, 66, 83
1, 95391, Note_off_c, 0, 65, 59
1, 95472, Control_c, 0, 64, 115
1, 95479, Note_on_c, 0, 39, 44
1, 95486, Control_c, 0, 64, 106
1, 95494, Note_on_c, 0, 67, 77
1, 95501, Control_c, 0, 64, 100
1, 95516, Control_c, 0, 64, 92
1, 95532, Control_c, 0, 64, 84
1, 95547, Control_c, 0, 64, 73
1, 95559, Note_off_c, 0, 66, 55
1, 95562, Control_c, 0, 64, 62
1, 95576, Control_c, 0, 64, 33
1, 95591, Control_c, 0, 64, 0
1, 95644, Note_on_c, 0, 61, 79
1, 95665, Control_c, 0, 64, 33
1, 95679, Note_off_c, 0, 67, 63
1, 95680, Control_c, 0, 64, 56
1, 95695, Control_c, 0, 64, 66
1, 95706, Note_off_c, 0, 39, 63
1, 95709, Control_c, 0, 64, 74
1, 95724, Control_c, 0, 64, 87
1, 95739, Control_c, 0, 64, 127
1, 95802, Note_on_c, 0, 55, 44
1, 95806, Note_on_c, 0, 63, 71
1, 95865, Note_off_c, 0, 61, 59
1, 95901, Note_on_c, 0, 72, 74
1, 95959, Note_off_c, 0, 63, 52
1, 95989, Note_off_c, 0, 55, 53
1, 95999, Note_on_c, 0, 51, 48
1, 96002, Note_on_c, 0, 61, 70
1, 96043, Note_off_c, 0, 51, 60
1, 96108, Note_on_c, 0, 70, 73
1, 96132, Control_c, 0, 64, 115
1, 96147, Control_c, 0, 64, 108
1, 96162, Control_c, 0, 64, 103
1, 96176, Note_off_c, 0, 61, 57
1, 96176, Control_c, 0, 64, 98
1, 96191, Control_c, 0, 64, 93
1, 96206, Control_c, 0, 64, 89
1, 96221, Control_c, 0, 64, 85
1, 96236, Control_c, 0, 64, 82
1, 96243, Note_on_c, 0, 44, 40
1, 96250, Control_c, 0, 64, 78
1, 96255, Note_off_c, 0, 72, 33
1, 96265, Control_c, 0, 64, 70
1, 96275, Note_on_c, 0, 68, 63
1, 96280, Control_c, 0, 64, 62
1, 96284, Note_on_c, 0, 60, 44
1, 96295, Control_c, 0, 64, 41
1, 96300, Note_off_c, 0, 70, 59
1, 96309, Control_c, 0, 64, 0
1, 96382, Note_off_c, 0, 60, 54
1, 96385, Control_c, 0, 64, 36
1, 96399, Control_c, 0, 64, 54
1, 96414, Control_c, 0, 64, 62
1, 96424, Note_off_c, 0, 44, 59
1, 96429, Control_c, 0, 64, 65
1, 96431, Note_on_c, 0, 51, 51
1, 96444, Control_c, 0, 64, 70
1, 96459, Control_c, 0, 64, 79
1, 96473, Control_c, 0, 64, 98
1, 96488, Control_c, 0, 64, 127
1, 96496, Note_off_c, 0, 51, 59
1, 96505, Note_off_c, 0, 68, 61
1, 96518, Note_on_c, 0, 56, 55
1, 96559, Note_off_c, 0, 56, 65
1, 96600, Note_on_c, 0, 60, 57
1, 96637, Note_off_c, 0, 60, 65
1, 96657, Note_on_c, 0, 65, 60
1, 96693, Note_off_c, 0, 65, 63
1, 96721, Note_on_c, 0, 63, 55
1, 96758, Note_off_c, 0, 63, 63
1, 96782, Note_on_c, 0, 65, 55
1, 96804, Note_off_c, 0, 65, 61
1, 96812, Note_on_c, 0, 68, 39
1, 96848, Note_on_c, 0, 63, 40
1, 96859, Note_off_c, 0, 68, 59
1, 96882, Note_off_c, 0, 63, 49
1, 96883, Note_on_c, 0, 75, 58
1, 96884, Note_on_c, 0, 65, 55
1, 96938, Note_off_c, 0, 65, 54
1, 96949, Note_on_c, 0, 63, 45
1, 96955, Note_on_c, 0, 84, 69
1, 96967, Note_off_c, 0, 75, 61
1, 96997, Note_off_c, 0, 63, 53
1, 97000, Note_off_c, 0, 84, 63
1, 97009, Note_on_c, 0, 65, 34
1, 97060, Note_off_c, 0, 65, 56
1, 97069, Note_on_c, 0, 63, 43
1, 97125, Note_off_c, 0, 63, 51
1, 97130, Note_on_c, 0, 65, 42
1, 97199, Note_on_c, 0, 63, 38
1, 97224, Note_on_c, 0, 77, 50
1, 97242, Note_off_c, 0, 65, 0
1, 97260, Note_on_c, 0, 65, 26
1, 97264, Note_off_c, 0, 63, 50
1, 97279, Note_off_c, 0, 77, 60
1, 97292, Note_on_c, 0, 85, 59
1, 97339, Note_on_c, 0, 63, 48
1, 97351, Note_off_c, 0, 85, 58
1, 97362, Note_on_c, 0, 80, 67
1, 97384, Note_off_c, 0, 65, 0
1, 97407, Note_on_c, 0, 65, 19
1, 97409, Note_off_c, 0, 63, 54
1, 97422, Note_on_c, 0, 89, 70
1, 97422, Note_off_c, 0, 80, 63
1, 97473, Note_on_c, 0, 63, 39
1, 97506, Note_off_c, 0, 89, 61
1, 97507, Note_off_c, 0, 63, 58
1, 97515, Note_on_c, 0, 79, 65
1, 97566, Note_on_c, 0, 87, 75
1, 97569, Note_off_c, 0, 79, 64
1, 97587, Note_off_c, 0, 65, 49
1, 97587, Note_on_c, 0, 63, 59
1, 97604, Note_off_c, 0, 87, 63
1, 97652, Note_off_c, 0, 63, 55
1, 97666, Note_on_c, 0, 72, 69
1, 97716, Note_on_c, 0, 81, 77
1, 97719, Note_off_c, 0, 72, 61
1, 97802, Note_on_c, 0, 73, 79
1, 97814, Note_off_c, 0, 81, 61
1, 97845, Note_on_c, 0, 65, 47
1, 97869, Note_on_c, 0, 82, 81
1, 97879, Note_off_c, 0, 73, 64
1, 97889, Note_off_c, 0, 65, 60
1, 97893, Note_on_c, 0, 63, 61
1, 97920, Note_off_c, 0, 82, 65
1, 97933, Note_off_c, 0, 63, 59
1, 97964, Note_on_c, 0, 65, 49
1, 97977, Note_on_c, 0, 67, 68
1, 98004, Note_off_c, 0, 67, 66
1, 98007, Note_off_c, 0, 65, 60
1, 98031, Note_on_c, 0, 63, 52
1, 98062, Note_on_c, 0, 77, 60
1, 98077, Note_off_c, 0, 63, 61
1, 98121, Note_on_c, 0, 85, 85
1, 98126, Note_off_c, 0, 77, 64
1, 98133, Poly_aftertouch_c, 0, 78, 127
1, 98171, Poly_aftertouch_c, 0, 78, 0
1, 98192, Note_off_c, 0, 85, 64
1, 98243, Note_on_c, 0, 61, 44
1, 98293, Note_off_c, 0, 61, 59
1, 98307, Note_on_c, 0, 55, 51
1, 98360, Note_off_c, 0, 55, 59
1, 98371, Note_on_c, 0, 51, 62
1, 98452, Control_c, 0, 64, 112
1, 98454, Note_off_c, 0, 51, 58
1, 98467, Control_c, 0, 64, 105
1, 98482, Control_c, 0, 64, 102
1, 98484, Note_on_c, 0, 44, 61
1, 98496, Control_c, 0, 64, 101
1, 98511, Control_c, 0, 64, 100
1, 98526, Control_c, 0, 64, 98
1, 98541, Control_c, 0, 64, 93
1, 98556, Control_c, 0, 64, 85
1, 98570, Control_c, 0, 64, 73
1, 98585, Control_c, 0, 64, 59
1, 98588, Note_on_c, 0, 51, 58
1, 98600, Control_c, 0, 64, 40
1, 98608, Note_off_c, 0, 44, 64
1, 98615, Control_c, 0, 64, 46
1, 98630, Control_c, 0, 64, 55
1, 98645, Control_c, 0, 64, 61
1, 98660, Control_c, 0, 64, 65
1, 98671, Note_on_c, 0, 68, 56
1, 98675, Control_c, 0, 64, 71
1, 98686, Note_on_c, 0, 56, 59
1, 98690, Control_c, 0, 64, 80
1, 98699, Note_off_c, 0, 51, 59
1, 98704, Control_c, 0, 64, 97
1, 98719, Control_c, 0, 64, 127
1, 98724, Note_on_c, 0, 74, 56
1, 98733, Note_off_c, 0, 68, 61
1, 98754, Note_off_c, 0, 56, 63
1, 98789, Note_off_c, 0, 74, 61
1, 98792, Note_on_c, 0, 83, 70
1, 98795, Note_on_c, 0, 60, 55
1, 98839, Note_off_c, 0, 83, 61
1, 98850, Note_off_c, 0, 60, 63
1, 98863, Note_on_c, 0, 65, 59
1, 98883, Note_on_c, 0, 75, 70
1, 98900, Note_off_c, 0, 65, 62
1, 98940, Note_on_c, 0, 63, 56
1, 98940, Note_off_c, 0, 75, 58
1, 98948, Note_on_c, 0, 84, 69
1, 98985, Note_off_c, 0, 63, 61
1, 99006, Note_on_c, 0, 65, 53
1, 99025, Note_off_c, 0, 84, 63
1, 99041, Note_on_c, 0, 76, 69
1, 99062, Note_off_c, 0, 65, 53
1, 99083, Note_on_c, 0, 63, 48
1, 99109, Note_off_c, 0, 76, 61
1, 99119, Note_on_c, 0, 84, 60
1, 99131, Note_off_c, 0, 63, 55
1, 99146, Note_on_c, 0, 65, 42
1, 99181, Note_off_c, 0, 84, 63
1, 99189, Note_on_c, 0, 79, 64
1, 99197, Note_off_c, 0, 65, 58
1, 99220, Note_on_c, 0, 63, 48
1, 99259, Note_off_c, 0, 79, 64
1, 99263, Note_on_c, 0, 87, 75
1, 99265, Note_off_c, 0, 63, 50
1, 99293, Note_on_c, 0, 65, 52
1, 99338, Note_off_c, 0, 87, 63
1, 99345, Note_off_c, 0, 65, 56
1, 99348, Note_on_c, 0, 77, 76
1, 99355, Note_on_c, 0, 63, 59
1, 99406, Note_on_c, 0, 85, 65
1, 99406, Note_off_c, 0, 63, 58
1, 99406, Note_off_c, 0, 77, 62
1, 99426, Note_on_c, 0, 65, 50
1, 99436, Note_off_c, 0, 85, 68
1, 99496, Note_on_c, 0, 75, 76
1, 99527, Note_on_c, 0, 63, 56
1, 99530, Note_off_c, 0, 65, 54
1, 99565, Note_on_c, 0, 84, 85
1, 99573, Note_off_c, 0, 75, 61
1, 99619, Note_off_c, 0, 63, 58
1, 99652, Note_on_c, 0, 72, 86
1, 99664, Note_off_c, 0, 84, 64
1, 99719, Note_off_c, 0, 72, 63
1, 99725, Note_on_c, 0, 81, 77
1, 99790, Note_on_c, 0, 73, 79
1, 99804, Note_off_c, 0, 81, 66
1, 99812, Note_on_c, 0, 65, 55
1, 99861, Note_off_c, 0, 65, 52
1, 99862, Note_on_c, 0, 63, 60
1, 99872, Note_on_c, 0, 82, 81
1, 99875, Note_off_c, 0, 73, 63
1, 99911, Note_off_c, 0, 63, 56
1, 99912, Note_off_c, 0, 82, 68
1, 99930, Note_on_c, 0, 65, 34
1, 99951, Note_on_c, 0, 81, 17
1, 99957, Note_on_c, 0, 74, 62
1, 99968, Note_on_c, 0, 67, 68
1, 99988, Note_off_c, 0, 65, 59
1, 99992, Note_off_c, 0, 81, 52
1, 99992, Note_on_c, 0, 63, 58
1, 100000, Note_off_c, 0, 67, 66
1, 100041, Note_off_c, 0, 63, 63
1, 100051, Note_on_c, 0, 83, 83
1, 100060, Note_off_c, 0, 74, 63
1, 100111, Note_off_c, 0, 83, 64
1, 100169, Note_on_c, 0, 77, 75
1, 100198, Note_on_c, 0, 61, 44
1, 100234, Note_off_c, 0, 77, 62
1, 100251, Note_off_c, 0, 61, 58
1, 100255, Note_on_c, 0, 85, 74
1, 100275, Note_on_c, 0, 55, 53
1, 100319, Note_off_c, 0, 55, 59
1, 100344, Note_on_c, 0, 75, 70
1, 100361, Note_on_c, 0, 51, 43
1, 100401, Note_on_c, 0, 84, 67
1, 100407, Note_off_c, 0, 75, 61
1, 100416, Note_off_c, 0, 51, 54
1, 100460, Note_off_c, 0, 85, 24
1, 100471, Note_on_c, 0, 44, 48
1, 100492, Control_c, 0, 64, 101
1, 100507, Control_c, 0, 64, 80
1, 100521, Control_c, 0, 64, 64
1, 100527, Note_on_c, 0, 80, 66
1, 100535, Note_on_c, 0, 72, 43
1, 100536, Control_c, 0, 64, 30
1, 100542, Note_off_c, 0, 84, 54
1, 100551, Control_c, 0, 64, 0
1, 100566, Control_c, 0, 64, 34
1, 100580, Control_c, 0, 64, 51
1, 100586, Note_off_c, 0, 44, 63
1, 100590, Note_on_c, 0, 51, 53
1, 100595, Control_c, 0, 64, 61
1, 100598, Note_off_c, 0, 72, 44
1, 100611, Control_c, 0, 64, 67
1, 100626, Control_c, 0, 64, 76
1, 100641, Control_c, 0, 64, 103
1, 100655, Control_c, 0, 64, 127
1, 100671, Note_on_c, 0, 56, 65
1, 100678, Note_off_c, 0, 51, 60
1, 100693, Note_off_c, 0, 80, 65
1, 100720, Note_off_c, 0, 56, 62
1, 100744, Note_on_c, 0, 60, 70
1, 100803, Note_off_c, 0, 60, 63
1, 100809, Note_on_c, 0, 65, 77
1, 100876, Note_on_c, 0, 63, 73
1, 100881, Note_off_c, 0, 65, 60
1, 100884, Note_on_c, 0, 80, 61
1, 100932, Note_on_c, 0, 87, 74
1, 100935, Note_on_c, 0, 65, 60
1, 100937, Note_off_c, 0, 63, 63
1, 100939, Note_off_c, 0, 80, 64
1, 100993, Note_on_c, 0, 96, 91
1, 101006, Note_off_c, 0, 87, 66
1, 101007, Note_off_c, 0, 65, 59
1, 101008, Note_on_c, 0, 63, 65
1, 101039, Note_off_c, 0, 96, 65
1, 101077, Note_off_c, 0, 63, 62
1, 101080, Note_on_c, 0, 65, 56
1, 101162, Note_on_c, 0, 63, 66
1, 101164, Note_off_c, 0, 65, 59
1, 101191, Note_on_c, 0, 89, 75
1, 101192, Note_on_c, 0, 85, 64
1, 101223, Note_off_c, 0, 85, 66
1, 101228, Note_off_c, 0, 63, 62
1, 101238, Note_on_c, 0, 65, 51
1, 101244, Note_off_c, 0, 89, 62
1, 101255, Note_on_c, 0, 97, 87
1, 101296, Note_off_c, 0, 97, 63
1, 101317, Note_off_c, 0, 65, 59
1, 101322, Note_on_c, 0, 63, 63
1, 101340, Note_on_c, 0, 89, 75
1, 101340, Note_on_c, 0, 92, 81
1, 101378, Note_off_c, 0, 89, 61
1, 101391, Note_off_c, 0, 63, 60
1, 101398, Note_on_c, 0, 65, 63
1, 101399, Note_on_c, 0, 101, 91
1, 101411, Note_off_c, 0, 92, 63
1, 101440, Note_off_c, 0, 101, 66
1, 101469, Note_on_c, 0, 63, 68
1, 101470, Note_off_c, 0, 65, 61
1, 101486, Note_on_c, 0, 91, 71
1, 101488, Note_on_c, 0, 87, 77
1, 101502, Note_on_c, 0, 90, 55
1, 101523, Note_off_c, 0, 63, 63
1, 101526, Note_off_c, 0, 90, 53
1, 101532, Note_on_c, 0, 65, 49
1, 101539, Note_off_c, 0, 87, 61
1, 101546, Note_on_c, 0, 99, 89
1, 101553, Note_off_c, 0, 91, 63
1, 101584, Note_off_c, 0, 99, 66
1, 101589, Note_off_c, 0, 65, 58
1, 101591, Note_on_c, 0, 63, 63
1, 101645, Note_on_c, 0, 81, 72
1, 101646, Note_off_c, 0, 63, 61
1, 101656, Note_on_c, 0, 84, 73
1, 101668, Note_on_c, 0, 85, 52
1, 101678, Note_off_c, 0, 81, 65
1, 101690, Note_off_c, 0, 85, 63
1, 101699, Note_on_c, 0, 93, 84
1, 101706, Note_off_c, 0, 84, 65
1, 101763, Note_off_c, 0, 93, 62
1, 101778, Note_on_c, 0, 85, 78
1, 101781, Note_on_c, 0, 82, 85
1, 101835, Note_on_c, 0, 65, 58
1, 101843, Note_off_c, 0, 82, 60
1, 101849, Note_on_c, 0, 94, 90
1, 101873, Note_off_c, 0, 65, 63
1, 101878, Note_on_c, 0, 63, 60
1, 101883, Note_off_c, 0, 85, 65
1, 101913, Note_off_c, 0, 94, 65
1, 101926, Note_off_c, 0, 63, 51
1, 101943, Note_on_c, 0, 65, 58
1, 101948, Note_on_c, 0, 79, 77
1, 101998, Note_off_c, 0, 79, 65
1, 102012, Note_off_c, 0, 65, 60
1, 102016, Note_on_c, 0, 63, 56
1, 102018, Note_on_c, 0, 89, 77
1, 102072, Note_on_c, 0, 97, 97
1, 102074, Note_off_c, 0, 63, 64
1, 102082, Note_off_c, 0, 89, 64
1, 102141, Note_off_c, 0, 97, 65
1, 102186, Note_on_c, 0, 61, 53
1, 102255, Note_on_c, 0, 55, 65
1, 102263, Note_off_c, 0, 61, 60
1, 102323, Note_on_c, 0, 51, 76
1, 102333, Note_off_c, 0, 55, 61
1, 102421, Note_on_c, 0, 44, 79
1, 102446, Note_off_c, 0, 51, 59
1, 102493, Control_c, 0, 64, 91
1, 102508, Control_c, 0, 64, 69
1, 102530, Control_c, 0, 64, 54
1, 102541, Note_on_c, 0, 51, 66
1, 102545, Control_c, 0, 64, 38
1, 102559, Control_c, 0, 64, 46
1, 102567, Note_off_c, 0, 44, 64
1, 102574, Control_c, 0, 64, 55
1, 102589, Control_c, 0, 64, 62
1, 102590, Note_on_c, 0, 83, 69
1, 102590, Note_on_c, 0, 86, 78
1, 102604, Control_c, 0, 64, 66
1, 102618, Control_c, 0, 64, 73
1, 102626, Note_on_c, 0, 56, 64
1, 102633, Control_c, 0, 64, 88
1, 102645, Note_off_c, 0, 83, 62
1, 102648, Control_c, 0, 64, 127
1, 102651, Note_off_c, 0, 51, 63
1, 102656, Note_off_c, 0, 86, 63
1, 102668, Note_on_c, 0, 95, 91
1, 102684, Note_off_c, 0, 56, 64
1, 102704, Note_on_c, 0, 60, 62
1, 102746, Note_on_c, 0, 87, 90
1, 102749, Note_off_c, 0, 95, 61
1, 102754, Note_on_c, 0, 84, 79
1, 102767, Note_off_c, 0, 60, 64
1, 102777, Note_on_c, 0, 65, 67
1, 102786, Note_off_c, 0, 84, 57
1, 102812, Note_off_c, 0, 87, 60
1, 102822, Note_on_c, 0, 96, 89
1, 102830, Note_off_c, 0, 65, 59
1, 102846, Note_on_c, 0, 63, 62
1, 102884, Note_off_c, 0, 96, 59
1, 102889, Note_on_c, 0, 88, 85
1, 102893, Note_on_c, 0, 84, 87
1, 102906, Note_off_c, 0, 63, 62
1, 102919, Note_on_c, 0, 65, 56
1, 102938, Note_off_c, 0, 88, 63
1, 102940, Note_off_c, 0, 84, 62
1, 102955, Note_on_c, 0, 96, 84
1, 102989, Note_on_c, 0, 63, 62
1, 103002, Note_off_c, 0, 96, 65
1, 103033, Note_on_c, 0, 91, 77
1, 103039, Note_off_c, 0, 65, 0
1, 103045, Note_on_c, 0, 87, 73
1, 103054, Note_on_c, 0, 65, 38
1, 103059, Note_off_c, 0, 63, 60
1, 103077, Note_off_c, 0, 87, 63
1, 103091, Note_off_c, 0, 91, 63
1, 103106, Note_on_c, 0, 99, 82
1, 103133, Note_off_c, 0, 99, 65
1, 103138, Note_off_c, 0, 65, 59
1, 103152, Note_on_c, 0, 63, 59
1, 103186, Note_on_c, 0, 85, 75
1, 103187, Note_on_c, 0, 89, 82
1, 103206, Note_off_c, 0, 63, 58
1, 103219, Note_on_c, 0, 65, 54
1, 103236, Note_off_c, 0, 85, 63
1, 103250, Note_off_c, 0, 89, 61
1, 103253, Note_on_c, 0, 97, 83
1, 103289, Note_on_c, 0, 63, 63
1, 103293, Note_off_c, 0, 65, 62
1, 103305, Note_off_c, 0, 97, 65
1, 103337, Note_on_c, 0, 87, 81
1, 103348, Note_on_c, 0, 84, 64
1, 103367, Note_off_c, 0, 63, 58
1, 103376, Note_off_c, 0, 84, 67
1, 103378, Note_on_c, 0, 65, 48
1, 103402, Note_on_c, 0, 96, 80
1, 103408, Note_off_c, 0, 87, 62
1, 103430, Note_off_c, 0, 65, 57
1, 103436, Note_off_c, 0, 96, 56
1, 103450, Note_on_c, 0, 63, 46
1, 103492, Note_off_c, 0, 63, 57
1, 103496, Note_on_c, 0, 81, 64
1, 103498, Note_on_c, 0, 84, 74
1, 103526, Note_off_c, 0, 81, 68
1, 103556, Note_off_c, 0, 84, 61
1, 103559, Note_on_c, 0, 93, 76
1, 103622, Note_off_c, 0, 93, 62
1, 103637, Note_on_c, 0, 85, 69
1, 103650, Note_on_c, 0, 82, 62
1, 103698, Note_on_c, 0, 65, 45
1, 103703, Note_off_c, 0, 82, 53
1, 103718, Note_on_c, 0, 94, 79
1, 103737, Note_off_c, 0, 85, 64
1, 103757, Note_on_c, 0, 63, 58
1, 103783, Note_off_c, 0, 94, 64
1, 103802, Note_off_c, 0, 63, 59
1, 103802, Note_off_c, 0, 65, 0
1, 103815, Note_on_c, 0, 86, 73
1, 103820, Note_on_c, 0, 65, 31
1, 103825, Note_on_c, 0, 83, 59
1, 103858, Note_off_c, 0, 83, 65
1, 103885, Note_off_c, 0, 86, 62
1, 103888, Note_off_c, 0, 65, 57
1, 103889, Note_on_c, 0, 95, 77
1, 103894, Note_on_c, 0, 63, 57
1, 103928, Note_off_c, 0, 95, 62
1, 103933, Note_off_c, 0, 63, 65
1, 103987, Note_on_c, 0, 89, 71
1, 104021, Note_on_c, 0, 85, 51
1, 104063, Note_on_c, 0, 61, 45
1, 104070, Note_on_c, 0, 97, 73
1, 104079, Note_off_c, 0, 89, 63
1, 104088, Note_off_c, 0, 85, 59
1, 104125, Note_off_c, 0, 61, 50
1, 104132, Note_on_c, 0, 55, 47
1, 104139, Note_off_c, 0, 97, 64
1, 104177, Note_off_c, 0, 55, 60
1, 104186, Note_on_c, 0, 87, 74
1, 104190, Note_on_c, 0, 84, 52
1, 104199, Note_on_c, 0, 51, 53
1, 104237, Note_off_c, 0, 84, 60
1, 104262, Note_on_c, 0, 96, 71
1, 104267, Note_off_c, 0, 51, 53
1, 104268, Note_off_c, 0, 87, 63
1, 104290, Note_off_c, 0, 96, 68
1, 104368, Control_c, 0, 64, 91
1, 104371, Note_on_c, 0, 44, 47
1, 104383, Control_c, 0, 64, 69
1, 104398, Control_c, 0, 64, 48
1, 104402, Note_on_c, 0, 84, 55
1, 104404, Note_on_c, 0, 80, 53
1, 104413, Control_c, 0, 64, 16
1, 104428, Control_c, 0, 64, 40
1, 104443, Control_c, 0, 64, 56
1, 104458, Control_c, 0, 64, 65
1, 104466, Note_on_c, 0, 92, 71
1, 104473, Control_c, 0, 64, 74
1, 104487, Control_c, 0, 64, 93
1, 104490, Note_off_c, 0, 44, 64
1, 104499, Note_off_c, 0, 80, 59
1, 104502, Control_c, 0, 64, 127
1, 104539, Note_off_c, 0, 92, 64
1, 104544, Note_off_c, 0, 84, 63
1, 104625, Note_on_c, 0, 59, 71
1, 104629, Note_on_c, 0, 51, 61
1, 104771, Note_off_c, 0, 51, 45
1, 104794, Note_on_c, 0, 56, 60
1, 104802, Note_on_c, 0, 60, 81
1, 104820, Note_off_c, 0, 59, 63
1, 104848, Note_off_c, 0, 56, 63
1, 104892, Note_off_c, 0, 60, 65
1, 104998, Control_c, 0, 64, 96
1, 105006, Note_on_c, 0, 43, 64
1, 105013, Control_c, 0, 64, 71
1, 105024, Note_on_c, 0, 61, 81
1, 105027, Control_c, 0, 64, 45
1, 105042, Control_c, 0, 64, 30
1, 105057, Control_c, 0, 64, 51
1, 105072, Control_c, 0, 64, 62
1, 105087, Control_c, 0, 64, 67
1, 105098, Note_off_c, 0, 61, 62
1, 105101, Note_off_c, 0, 43, 63
1, 105102, Control_c, 0, 64, 76
1, 105117, Control_c, 0, 64, 101
1, 105132, Control_c, 0, 64, 127
1, 105143, Note_on_c, 0, 64, 65
1, 105209, Note_off_c, 0, 64, 57
1, 105233, Note_on_c, 0, 52, 49
1, 105249, Note_on_c, 0, 65, 43
1, 105249, Note_on_c, 0, 67, 46
1, 105268, Note_off_c, 0, 52, 61
1, 105280, Note_off_c, 0, 65, 56
1, 105304, Note_off_c, 0, 67, 57
1, 105312, Note_on_c, 0, 70, 47
1, 105341, Note_on_c, 0, 61, 45
1, 105348, Note_off_c, 0, 70, 49
1, 105352, Note_on_c, 0, 58, 36
1, 105358, Note_on_c, 0, 73, 70
1, 105375, Note_off_c, 0, 61, 51
1, 105385, Note_off_c, 0, 58, 53
1, 105391, Note_off_c, 0, 73, 66
1, 105448, Note_on_c, 0, 76, 72
1, 105487, Note_on_c, 0, 41, 79
1, 105503, Control_c, 0, 64, 88
1, 105505, Note_off_c, 0, 76, 54
1, 105525, Note_on_c, 0, 77, 76
1, 105525, Control_c, 0, 64, 68
1, 105540, Control_c, 0, 64, 53
1, 105555, Control_c, 0, 64, 56
1, 105558, Note_off_c, 0, 41, 66
1, 105569, Control_c, 0, 64, 64
1, 105584, Control_c, 0, 64, 70
1, 105591, Note_off_c, 0, 77, 62
1, 105594, Note_on_c, 0, 78, 75
1, 105599, Control_c, 0, 64, 81
1, 105614, Control_c, 0, 64, 121
1, 105629, Control_c, 0, 64, 127
1, 105634, Note_off_c, 0, 78, 63
1, 105656, Note_on_c, 0, 53, 72
1, 105662, Note_on_c, 0, 79, 79
1, 105729, Note_off_c, 0, 79, 62
1, 105730, Note_on_c, 0, 80, 86
1, 105745, Note_off_c, 0, 53, 62
1, 105773, Note_on_c, 0, 58, 65
1, 105780, Note_on_c, 0, 61, 57
1, 105790, Note_off_c, 0, 80, 64
1, 105801, Note_on_c, 0, 81, 80
1, 105803, Note_off_c, 0, 58, 64
1, 105808, Note_off_c, 0, 61, 63
1, 105867, Note_on_c, 0, 82, 89
1, 105889, Note_off_c, 0, 81, 62
1, 105910, Control_c, 0, 64, 81
1, 105921, Note_on_c, 0, 40, 86
1, 105926, Control_c, 0, 64, 61
1, 105940, Control_c, 0, 64, 39
1, 105955, Control_c, 0, 64, 59
1, 105957, Note_on_c, 0, 85, 82
1, 105970, Note_off_c, 0, 82, 66
1, 105970, Control_c, 0, 64, 67
1, 105984, Control_c, 0, 64, 78
1, 105986, Note_off_c, 0, 40, 63
1, 105996, Note_off_c, 0, 85, 66
1, 105999, Control_c, 0, 64, 127
1, 106039, Note_on_c, 0, 88, 87
1, 106093, Note_on_c, 0, 55, 75
1, 106109, Note_on_c, 0, 91, 87
1, 106136, Note_off_c, 0, 88, 65
1, 106157, Note_on_c, 0, 92, 83
1, 106173, Note_off_c, 0, 91, 64
1, 106185, Note_off_c, 0, 55, 61
1, 106190, Note_off_c, 0, 92, 65
1, 106207, Note_on_c, 0, 58, 78
1, 106207, Note_on_c, 0, 61, 75
1, 106225, Note_on_c, 0, 93, 74
1, 106230, Note_on_c, 0, 91, 83
1, 106234, Note_off_c, 0, 58, 68
1, 106234, Note_off_c, 0, 61, 67
1, 106306, Note_off_c, 0, 91, 62
1, 106362, Control_c, 0, 64, 76
1, 106369, Note_on_c, 0, 46, 82
1, 106371, Note_off_c, 0, 93, 60
1, 106377, Control_c, 0, 64, 52
1, 106380, Note_on_c, 0, 97, 94
1, 106392, Control_c, 0, 64, 0
1, 106437, Control_c, 0, 64, 47
1, 106452, Control_c, 0, 64, 64
1, 106452, Note_off_c, 0, 97, 64
1, 106464, Note_off_c, 0, 46, 63
1, 106466, Control_c, 0, 64, 77
1, 106481, Control_c, 0, 64, 119
1, 106496, Control_c, 0, 64, 127
1, 106566, Note_on_c, 0, 60, 80
1, 106569, Note_on_c, 0, 53, 71
1, 106686, Note_off_c, 0, 53, 61
1, 106712, Note_on_c, 0, 58, 65
1, 106720, Note_on_c, 0, 61, 92
1, 106738, Note_off_c, 0, 60, 63
1, 106762, Note_off_c, 0, 58, 63
1, 106786, Note_off_c, 0, 61, 63
1, 106890, Note_on_c, 0, 44, 79
1, 106896, Note_on_c, 0, 62, 87
1, 106896, Control_c, 0, 64, 79
1, 106911, Control_c, 0, 64, 60
1, 106926, Control_c, 0, 64, 0
1, 106941, Control_c, 0, 64, 34
1, 106956, Control_c, 0, 64, 56
1, 106971, Control_c, 0, 64, 66
1, 106973, Note_off_c, 0, 44, 63
1, 106985, Control_c, 0, 64, 74
1, 106990, Note_on_c, 0, 65, 75
1, 107000, Control_c, 0, 64, 93
1, 107022, Control_c, 0, 64, 127
1, 107036, Note_off_c, 0, 62, 59
1, 107067, Note_on_c, 0, 68, 71
1, 107087, Note_on_c, 0, 53, 68
1, 107097, Note_off_c, 0, 65, 62
1, 107121, Note_off_c, 0, 68, 64
1, 107124, Note_on_c, 0, 71, 63
1, 107141, Note_off_c, 0, 53, 58
1, 107150, Note_off_c, 0, 71, 67
1, 107196, Note_on_c, 0, 59, 55
1, 107198, Note_on_c, 0, 74, 77
1, 107200, Note_on_c, 0, 62, 54
1, 107220, Note_off_c, 0, 59, 59
1, 107223, Note_off_c, 0, 62, 60
1, 107256, Note_off_c, 0, 74, 62
1, 107263, Note_on_c, 0, 77, 80
1, 107331, Note_off_c, 0, 77, 61
1, 107334, Note_on_c, 0, 78, 80
1, 107338, Note_on_c, 0, 42, 94
1, 107347, Control_c, 0, 64, 83
1, 107362, Control_c, 0, 64, 63
1, 107377, Control_c, 0, 64, 43
1, 107387, Note_off_c, 0, 78, 63
1, 107392, Control_c, 0, 64, 56
1, 107398, Note_on_c, 0, 79, 82
1, 107406, Control_c, 0, 64, 65
1, 107415, Note_off_c, 0, 42, 63
1, 107421, Control_c, 0, 64, 73
1, 107436, Control_c, 0, 64, 103
1, 107451, Control_c, 0, 64, 127
1, 107467, Note_off_c, 0, 79, 58
1, 107480, Note_on_c, 0, 80, 90
1, 107495, Note_on_c, 0, 54, 84
1, 107536, Note_off_c, 0, 80, 64
1, 107552, Note_on_c, 0, 81, 83
1, 107605, Note_on_c, 0, 62, 72
1, 107608, Note_off_c, 0, 54, 60
1, 107608, Note_on_c, 0, 59, 60
1, 107622, Note_on_c, 0, 82, 96
1, 107630, Note_off_c, 0, 59, 63
1, 107632, Note_off_c, 0, 81, 62
1, 107632, Note_off_c, 0, 62, 66
1, 107666, Note_off_c, 0, 82, 66
1, 107698, Note_on_c, 0, 83, 85
1, 107749, Control_c, 0, 64, 82
1, 107760, Note_on_c, 0, 41, 98
1, 107770, Control_c, 0, 64, 58
1, 107773, Note_on_c, 0, 86, 91
1, 107785, Control_c, 0, 64, 0
1, 107798, Note_off_c, 0, 83, 61
1, 107800, Control_c, 0, 64, 32
1, 107815, Control_c, 0, 64, 62
1, 107830, Control_c, 0, 64, 71
1, 107839, Note_off_c, 0, 41, 64
1, 107844, Control_c, 0, 64, 94
1, 107847, Note_on_c, 0, 89, 87
1, 107859, Control_c, 0, 64, 127
1, 107923, Note_on_c, 0, 92, 96
1, 107930, Note_on_c, 0, 56, 90
1, 107931, Note_off_c, 0, 86, 62
1, 107956, Note_off_c, 0, 89, 62
1, 107969, Note_off_c, 0, 92, 67
1, 108011, Note_on_c, 0, 95, 95
1, 108045, Note_on_c, 0, 62, 78
1, 108054, Note_on_c, 0, 59, 47
1, 108067, Note_on_c, 0, 96, 92
1, 108081, Note_off_c, 0, 56, 62
1, 108083, Note_off_c, 0, 59, 56
1, 108095, Note_off_c, 0, 62, 63
1, 108124, Note_on_c, 0, 97, 87
1, 108166, Note_off_c, 0, 95, 62
1, 108166, Note_off_c, 0, 96, 65
1, 108171, Control_c, 0, 64, 100
1, 108186, Control_c, 0, 64, 56
1, 108201, Control_c, 0, 64, 0
1, 108202, Note_on_c, 0, 47, 91
1, 108208, Note_on_c, 0, 98, 99
1, 108243, Note_on_c, 0, 48, 28
1, 108244, Note_off_c, 0, 48, 127
1, 108245, Control_c, 0, 64, 39
1, 108246, Note_off_c, 0, 97, 66
1, 108260, Control_c, 0, 64, 65
1, 108273, Note_off_c, 0, 47, 64
1, 108275, Control_c, 0, 64, 92
1, 108278, Note_off_c, 0, 98, 68
1, 108290, Control_c, 0, 64, 127
1, 108396, Note_on_c, 0, 61, 99
1, 108400, Note_on_c, 0, 54, 81
1, 108515, Note_off_c, 0, 54, 62
1, 108544, Note_on_c, 0, 62, 101
1, 108578, Note_off_c, 0, 61, 60
1, 108610, Poly_aftertouch_c, 0, 59, 127
1, 108621, Note_off_c, 0, 62, 64
1, 108642, Poly_aftertouch_c, 0, 59, 0
1, 108720, Poly_aftertouch_c, 0, 63, 0
1, 108728, Control_c, 0, 64, 73
1, 108731, Note_on_c, 0, 45, 85
1, 108731, Note_on_c, 0, 63, 71
1, 108743, Control_c, 0, 64, 10
1, 108758, Control_c, 0, 64, 0
1, 108787, Control_c, 0, 64, 49
1, 108802, Control_c, 0, 64, 64
1, 108817, Note_off_c, 0, 45, 65
1, 108817, Control_c, 0, 64, 75
1, 108832, Control_c, 0, 64, 103
1, 108847, Note_on_c, 0, 66, 85
1, 108847, Control_c, 0, 64, 127
1, 108862, Note_off_c, 0, 63, 64
1, 108898, Note_off_c, 0, 66, 65
1, 108912, Note_on_c, 0, 54, 82
1, 108922, Note_on_c, 0, 69, 83
1, 108994, Note_on_c, 0, 72, 83
1, 109001, Note_off_c, 0, 69, 59
1, 109016, Note_off_c, 0, 54, 61
1, 109044, Note_on_c, 0, 63, 62
1, 109048, Note_on_c, 0, 60, 53
1, 109054, Note_on_c, 0, 75, 79
1, 109068, Note_off_c, 0, 63, 64
1, 109068, Note_off_c, 0, 72, 64
1, 109071, Note_off_c, 0, 60, 61
1, 109119, Note_off_c, 0, 75, 63
1, 109120, Note_on_c, 0, 78, 71
1, 109167, Note_off_c, 0, 78, 62
1, 109194, Note_on_c, 0, 43, 88
1, 109203, Control_c, 0, 64, 90
1, 109207, Note_on_c, 0, 75, 80
1, 109218, Control_c, 0, 64, 66
1, 109233, Control_c, 0, 64, 41
1, 109248, Control_c, 0, 64, 50
1, 109270, Control_c, 0, 64, 62
1, 109273, Note_off_c, 0, 75, 64
1, 109277, Note_off_c, 0, 43, 64
1, 109282, Note_on_c, 0, 76, 86
1, 109285, Control_c, 0, 64, 69
1, 109299, Control_c, 0, 64, 80
1, 109314, Control_c, 0, 64, 127
1, 109358, Note_on_c, 0, 77, 94
1, 109369, Note_on_c, 0, 55, 84
1, 109386, Note_off_c, 0, 76, 64
1, 109430, Note_on_c, 0, 78, 95
1, 109445, Note_off_c, 0, 77, 64
1, 109474, Note_off_c, 0, 78, 69
1, 109478, Note_off_c, 0, 55, 62
1, 109486, Note_on_c, 0, 64, 78
1, 109495, Note_on_c, 0, 60, 58
1, 109499, Note_on_c, 0, 79, 93
1, 109510, Note_off_c, 0, 64, 69
1, 109515, Note_off_c, 0, 60, 63
1, 109582, Note_on_c, 0, 80, 99
1, 109605, Note_off_c, 0, 79, 67
1, 109659, Note_on_c, 0, 48, 99
1, 109663, Note_on_c, 0, 36, 89
1, 109665, Note_off_c, 0, 80, 69
1, 109669, Note_on_c, 0, 81, 90
1, 109684, Control_c, 0, 64, 64
1, 109699, Control_c, 0, 64, 0
1, 109734, Note_off_c, 0, 36, 63
1, 109744, Control_c, 0, 64, 58
1, 109752, Note_on_c, 0, 82, 91
1, 109758, Note_off_c, 0, 48, 66
1, 109758, Control_c, 0, 64, 79
1, 109773, Control_c, 0, 64, 127
1, 109780, Note_off_c, 0, 81, 65
1, 109836, Note_on_c, 0, 55, 105
1, 109851, Note_on_c, 0, 87, 86
1, 109877, Note_off_c, 0, 82, 65
1, 109923, Note_on_c, 0, 90, 97
1, 109955, Note_off_c, 0, 87, 65
1, 110027, Note_on_c, 0, 58, 91
1, 110029, Note_on_c, 0, 64, 101
1, 110034, Note_on_c, 0, 87, 88
1, 110038, Note_off_c, 0, 90, 63
1, 110065, Note_off_c, 0, 55, 61
1, 110088, Note_off_c, 0, 64, 67
1, 110092, Note_off_c, 0, 58, 67
1, 110112, Note_on_c, 0, 88, 91
1, 110128, Note_off_c, 0, 87, 63
1, 110150, Note_off_c, 0, 88, 69
1, 110270, Control_c, 0, 64, 71
1, 110272, Note_on_c, 0, 47, 101
1, 110276, Note_on_c, 0, 88, 87
1, 110279, Note_on_c, 0, 35, 84
1, 110279, Note_on_c, 0, 100, 93
1, 110281, Note_on_c, 0, 92, 92
1, 110285, Control_c, 0, 64, 0
1, 110351, Note_off_c, 0, 88, 66
1, 110375, Control_c, 0, 64, 56
1, 110385, Note_off_c, 0, 35, 62
1, 110387, Note_on_c, 0, 99, 89
1, 110389, Control_c, 0, 64, 75
1, 110396, Note_off_c, 0, 92, 65
1, 110404, Control_c, 0, 64, 127
1, 110422, Note_off_c, 0, 100, 65
1, 110449, Note_off_c, 0, 99, 66
1, 110452, Note_off_c, 0, 47, 62
1, 110501, Note_on_c, 0, 98, 89
1, 110511, Note_on_c, 0, 95, 80
1, 110550, Note_on_c, 0, 96, 7
1, 110551, Note_off_c, 0, 96, 127
1, 110577, Note_on_c, 0, 94, 91
1, 110577, Note_on_c, 0, 97, 77
1, 110578, Note_off_c, 0, 95, 65
1, 110604, Note_off_c, 0, 98, 66
1, 110621, Note_off_c, 0, 97, 63
1, 110645, Note_off_c, 0, 94, 64
1, 110665, Note_on_c, 0, 93, 83
1, 110667, Note_on_c, 0, 96, 95
1, 110740, Note_on_c, 0, 95, 74
1, 110741, Note_off_c, 0, 93, 65
1, 110745, Note_on_c, 0, 92, 85
1, 110808, Note_off_c, 0, 96, 65
1, 110810, Note_on_c, 0, 59, 70
1, 110817, Note_on_c, 0, 68, 81
1, 110819, Note_on_c, 0, 94, 85
1, 110820, Note_on_c, 0, 64, 73
1, 110825, Note_off_c, 0, 95, 66
1, 110829, Note_on_c, 0, 91, 76
1, 110846, Note_off_c, 0, 92, 66
1, 110856, Note_off_c, 0, 91, 67
1, 110864, Note_off_c, 0, 94, 62
1, 110871, Note_off_c, 0, 59, 63
1, 110907, Note_on_c, 0, 90, 83
1, 110909, Note_on_c, 0, 93, 76
1, 110973, Note_on_c, 0, 92, 79
1, 110977, Note_off_c, 0, 90, 66
1, 110977, Note_off_c, 0, 93, 66
1, 110978, Note_on_c, 0, 61, 75
1, 110978, Note_on_c, 0, 69, 86
1, 110998, Note_off_c, 0, 68, 60
1, 111006, Note_on_c, 0, 89, 53
1, 111013, Note_off_c, 0, 64, 61
1, 111013, Note_off_c, 0, 92, 64
1, 111027, Note_off_c, 0, 69, 64
1, 111027, Note_off_c, 0, 89, 58
1, 111054, Note_on_c, 0, 91, 83
1, 111058, Note_on_c, 0, 88, 76
1, 111120, Note_off_c, 0, 61, 60
1, 111123, Note_on_c, 0, 64, 54
1, 111130, Note_off_c, 0, 88, 67
1, 111132, Note_on_c, 0, 87, 86
1, 111137, Note_on_c, 0, 90, 68
1, 111144, Note_on_c, 0, 73, 86
1, 111144, Note_off_c, 0, 91, 62
1, 111169, Note_off_c, 0, 90, 65
1, 111186, Note_off_c, 0, 87, 67
1, 111210, Note_on_c, 0, 89, 82
1, 111211, Note_on_c, 0, 86, 77
1, 111216, Note_off_c, 0, 73, 63
1, 111231, Note_off_c, 0, 64, 59
1, 111273, Note_on_c, 0, 63, 53
1, 111273, Note_off_c, 0, 86, 65
1, 111281, Note_on_c, 0, 85, 77
1, 111283, Note_on_c, 0, 71, 83
1, 111285, Note_on_c, 0, 88, 64
1, 111323, Note_off_c, 0, 89, 62
1, 111326, Note_off_c, 0, 63, 62
1, 111329, Note_off_c, 0, 71, 63
1, 111340, Note_on_c, 0, 87, 79
1, 111348, Note_off_c, 0, 88, 67
1, 111358, Note_off_c, 0, 85, 65
1, 111359, Note_on_c, 0, 84, 57
1, 111378, Note_off_c, 0, 84, 62
1, 111379, Note_off_c, 0, 87, 62
1, 111430, Note_on_c, 0, 65, 75
1, 111430, Note_on_c, 0, 86, 77
1, 111432, Note_on_c, 0, 83, 74
1, 111433, Note_on_c, 0, 56, 61
1, 111489, Note_on_c, 0, 85, 67
1, 111489, Note_off_c, 0, 83, 65
1, 111494, Note_on_c, 0, 82, 77
1, 111519, Note_off_c, 0, 86, 62
1, 111522, Note_off_c, 0, 56, 62
1, 111541, Note_off_c, 0, 85, 62
1, 111564, Note_off_c, 0, 82, 66
1, 111588, Note_on_c, 0, 66, 84
1, 111590, Note_on_c, 0, 57, 67
1, 111591, Note_on_c, 0, 81, 67
1, 111591, Note_on_c, 0, 84, 73
1, 111606, Control_c, 0, 64, 115
1, 111621, Control_c, 0, 64, 109
1, 111632, Note_off_c, 0, 65, 61
1, 111635, Control_c, 0, 64, 103
1, 111642, Note_on_c, 0, 83, 70
1, 111646, Note_off_c, 0, 81, 62
1, 111650, Control_c, 0, 64, 98
1, 111652, Note_on_c, 0, 80, 77
1, 111665, Control_c, 0, 64, 95
1, 111672, Note_off_c, 0, 84, 62
1, 111679, Control_c, 0, 64, 91
1, 111694, Control_c, 0, 64, 88
1, 111709, Control_c, 0, 64, 85
1, 111716, Note_off_c, 0, 83, 65
1, 111719, Note_on_c, 0, 82, 71
1, 111724, Control_c, 0, 64, 83
1, 111726, Note_off_c, 0, 57, 63
1, 111733, Note_off_c, 0, 80, 64
1, 111735, Note_on_c, 0, 79, 45
1, 111739, Control_c, 0, 64, 82
1, 111745, Note_off_c, 0, 82, 69
1, 111748, Note_on_c, 0, 69, 91
1, 111750, Note_on_c, 0, 61, 64
1, 111753, Control_c, 0, 64, 80
1, 111758, Note_off_c, 0, 79, 59
1, 111768, Control_c, 0, 64, 78
1, 111783, Control_c, 0, 64, 76
1, 111787, Note_off_c, 0, 66, 62
1, 111798, Control_c, 0, 64, 73
1, 111806, Note_on_c, 0, 81, 67
1, 111812, Control_c, 0, 64, 71
1, 111814, Note_on_c, 0, 78, 74
1, 111827, Control_c, 0, 64, 70
1, 111842, Control_c, 0, 64, 69
1, 111867, Note_off_c, 0, 81, 65
1, 111878, Note_off_c, 0, 78, 64
1, 111885, Note_on_c, 0, 80, 47
1, 111910, Note_off_c, 0, 80, 56
1, 111931, Control_c, 0, 64, 68
1, 111943, Note_on_c, 0, 79, 71
1, 111946, Control_c, 0, 64, 66
1, 111952, Note_on_c, 0, 76, 64
1, 111961, Control_c, 0, 64, 62
1, 111975, Control_c, 0, 64, 53
1, 111990, Control_c, 0, 64, 38
1, 112005, Control_c, 0, 64, 31
1, 112008, Note_off_c, 0, 79, 65
1, 112011, Note_on_c, 0, 78, 68
1, 112017, Note_off_c, 0, 76, 64
1, 112020, Control_c, 0, 64, 39
1, 112035, Control_c, 0, 64, 51
1, 112050, Control_c, 0, 64, 60
1, 112053, Note_on_c, 0, 75, 53
1, 112065, Control_c, 0, 64, 66
1, 112071, Note_off_c, 0, 78, 59
1, 112079, Control_c, 0, 64, 73
1, 112090, Note_off_c, 0, 69, 54
1, 112094, Control_c, 0, 64, 90
1, 112098, Note_on_c, 0, 79, 69
1, 112109, Control_c, 0, 64, 127
1, 112110, Note_off_c, 0, 75, 56
1, 112157, Note_off_c, 0, 79, 66
1, 112169, Note_on_c, 0, 76, 52
1, 112187, Note_on_c, 0, 80, 56
1, 112207, Note_off_c, 0, 76, 62
1, 112234, Note_off_c, 0, 80, 63
1, 112254, Note_on_c, 0, 81, 57
1, 112262, Note_on_c, 0, 78, 59
1, 112295, Note_off_c, 0, 81, 61
1, 112300, Note_off_c, 0, 78, 65
1, 112330, Note_on_c, 0, 68, 55
1, 112335, Note_off_c, 0, 61, 37
1, 112340, Note_on_c, 0, 79, 54
1, 112343, Note_on_c, 0, 59, 46
1, 112350, Note_on_c, 0, 82, 50
1, 112368, Note_off_c, 0, 79, 57
1, 112395, Note_off_c, 0, 82, 61
1, 112399, Note_on_c, 0, 83, 59
1, 112420, Note_off_c, 0, 59, 57
1, 112424, Note_on_c, 0, 80, 55
1, 112454, Note_off_c, 0, 80, 64
1, 112456, Note_off_c, 0, 83, 62
1, 112467, Note_on_c, 0, 84, 60
1, 112488, Note_on_c, 0, 81, 52
1, 112495, Note_on_c, 0, 58, 48
1, 112497, Note_off_c, 0, 84, 65
1, 112500, Note_off_c, 0, 68, 62
1, 112506, Note_on_c, 0, 67, 67
1, 112539, Note_off_c, 0, 81, 58
1, 112551, Note_on_c, 0, 85, 50
1, 112552, Note_on_c, 0, 82, 57
1, 112574, Note_off_c, 0, 58, 57
1, 112583, Note_off_c, 0, 85, 59
1, 112597, Note_off_c, 0, 82, 65
1, 112628, Note_on_c, 0, 86, 58
1, 112636, Note_on_c, 0, 59, 53
1, 112637, Note_on_c, 0, 68, 63
1, 112650, Control_c, 0, 64, 123
1, 112665, Control_c, 0, 64, 92
1, 112680, Control_c, 0, 64, 73
1, 112683, Note_off_c, 0, 67, 57
1, 112692, Note_off_c, 0, 86, 61
1, 112695, Control_c, 0, 64, 61
1, 112709, Control_c, 0, 64, 51
1, 112715, Note_on_c, 0, 84, 55
1, 112722, Note_on_c, 0, 87, 50
1, 112724, Control_c, 0, 64, 58
1, 112739, Control_c, 0, 64, 62
1, 112746, Note_off_c, 0, 59, 57
1, 112754, Control_c, 0, 64, 66
1, 112759, Note_off_c, 0, 84, 60
1, 112766, Note_off_c, 0, 87, 52
1, 112769, Control_c, 0, 64, 72
1, 112779, Note_on_c, 0, 63, 55
1, 112783, Control_c, 0, 64, 84
1, 112786, Note_on_c, 0, 71, 68
1, 112786, Note_off_c, 0, 68, 62
1, 112794, Note_on_c, 0, 88, 49
1, 112798, Control_c, 0, 64, 109
1, 112802, Note_on_c, 0, 85, 54
1, 112813, Control_c, 0, 64, 127
1, 112822, Note_off_c, 0, 88, 64
1, 112837, Note_off_c, 0, 71, 59
1, 112841, Note_off_c, 0, 85, 56
1, 112870, Note_off_c, 0, 63, 58
1, 112871, Note_on_c, 0, 87, 35
1, 112899, Note_on_c, 0, 84, 16
1, 112906, Note_off_c, 0, 87, 52
1, 112932, Note_on_c, 0, 61, 60
1, 112932, Note_on_c, 0, 69, 72
1, 112933, Note_on_c, 0, 83, 63
1, 112944, Note_off_c, 0, 84, 37
1, 112979, Note_on_c, 0, 87, 70
1, 112983, Note_off_c, 0, 83, 64
1, 112995, Note_off_c, 0, 69, 62
1, 113012, Note_on_c, 0, 84, 65
1, 113012, Note_off_c, 0, 61, 58
1, 113045, Note_off_c, 0, 84, 61
1, 113058, Note_on_c, 0, 88, 74
1, 113073, Note_off_c, 0, 87, 53
1, 113074, Note_on_c, 0, 59, 67
1, 113075, Note_on_c, 0, 85, 72
1, 113084, Note_on_c, 0, 68, 78
1, 113133, Note_on_c, 0, 89, 84
1, 113134, Note_off_c, 0, 59, 63
1, 113141, Note_on_c, 0, 86, 74
1, 113148, Note_off_c, 0, 85, 65
1, 113158, Note_off_c, 0, 68, 61
1, 113160, Note_off_c, 0, 88, 65
1, 113180, Note_off_c, 0, 89, 65
1, 113218, Note_on_c, 0, 87, 87
1, 113225, Note_on_c, 0, 90, 76
1, 113227, Note_on_c, 0, 57, 80
1, 113227, Note_on_c, 0, 66, 86
1, 113231, Note_off_c, 0, 86, 61
1, 113273, Note_on_c, 0, 91, 76
1, 113294, Note_off_c, 0, 90, 57
1, 113305, Note_off_c, 0, 87, 65
1, 113313, Note_on_c, 0, 88, 45
1, 113324, Note_off_c, 0, 66, 64
1, 113326, Note_off_c, 0, 57, 66
1, 113335, Note_off_c, 0, 88, 60
1, 113341, Note_off_c, 0, 91, 64
1, 113348, Note_on_c, 0, 89, 69
1, 113363, Note_on_c, 0, 56, 74
1, 113365, Note_on_c, 0, 65, 93
1, 113367, Note_on_c, 0, 92, 68
1, 113386, Note_off_c, 0, 89, 50
1, 113413, Note_on_c, 0, 90, 76
1, 113415, Note_on_c, 0, 93, 72
1, 113420, Note_off_c, 0, 56, 61
1, 113446, Note_off_c, 0, 92, 64
1, 113478, Note_off_c, 0, 90, 63
1, 113478, Note_off_c, 0, 93, 65
1, 113520, Note_on_c, 0, 66, 87
1, 113528, Note_on_c, 0, 57, 77
1, 113532, Control_c, 0, 64, 87
1, 113535, Note_on_c, 0, 87, 85
1, 113536, Note_on_c, 0, 78, 87
1, 113539, Note_off_c, 0, 65, 62
1, 113547, Control_c, 0, 64, 63
1, 113562, Control_c, 0, 64, 0
1, 113567, Note_off_c, 0, 66, 65
1, 113574, Note_off_c, 0, 78, 63
1, 113577, Control_c, 0, 64, 40
1, 113590, Note_off_c, 0, 57, 65
1, 113592, Control_c, 0, 64, 63
1, 113606, Note_on_c, 0, 88, 57
1, 113606, Control_c, 0, 64, 72
1, 113616, Note_on_c, 0, 93, 90
1, 113621, Control_c, 0, 64, 92
1, 113624, Note_off_c, 0, 87, 65
1, 113633, Note_off_c, 0, 88, 68
1, 113636, Control_c, 0, 64, 127
1, 113681, Note_off_c, 0, 93, 63
1, 113702, Note_on_c, 0, 47, 95
1, 113707, Note_on_c, 0, 35, 81
1, 113708, Note_on_c, 0, 78, 91
1, 113710, Note_on_c, 0, 87, 93
1, 113765, Note_off_c, 0, 78, 64
1, 113782, Note_off_c, 0, 35, 61
1, 113791, Note_off_c, 0, 47, 62
1, 113795, Note_on_c, 0, 93, 96
1, 113810, Note_off_c, 0, 87, 66
1, 113859, Note_off_c, 0, 93, 60
1, 113864, Note_on_c, 0, 48, 106
1, 113871, Note_on_c, 0, 36, 89
1, 113881, Note_on_c, 0, 87, 92
1, 113883, Note_on_c, 0, 78, 90
1, 113901, Note_off_c, 0, 78, 73
1, 113948, Note_on_c, 0, 93, 97
1, 113957, Note_off_c, 0, 87, 63
1, 113962, Note_off_c, 0, 48, 62
1, 113970, Note_on_c, 0, 88, 24
1, 113991, Note_off_c, 0, 93, 68
1, 114003, Note_off_c, 0, 88, 56
1, 114013, Note_off_c, 0, 36, 58
1, 114092, Note_on_c, 0, 49, 102
1, 114097, Note_on_c, 0, 37, 90
1, 114099, Note_on_c, 0, 102, 106
1, 114101, Note_on_c, 0, 94, 89
1, 114110, Note_on_c, 0, 90, 66
1, 114119, Control_c, 0, 64, 82
1, 114134, Control_c, 0, 64, 48
1, 114134, Note_off_c, 0, 90, 64
1, 114149, Control_c, 0, 64, 0
1, 114160, Note_off_c, 0, 94, 63
1, 114218, Note_on_c, 0, 101, 103
1, 114232, Note_off_c, 0, 102, 63
1, 114237, Control_c, 0, 64, 59
1, 114252, Control_c, 0, 64, 70
1, 114257, Note_off_c, 0, 37, 61
1, 114267, Control_c, 0, 64, 88
1, 114281, Control_c, 0, 64, 127
1, 114285, Note_off_c, 0, 49, 62
1, 114289, Note_on_c, 0, 100, 66
1, 114301, Note_on_c, 0, 97, 70
1, 114364, Note_on_c, 0, 99, 85
1, 114366, Note_on_c, 0, 96, 65
1, 114366, Note_off_c, 0, 101, 66
1, 114379, Note_off_c, 0, 97, 63
1, 114380, Note_off_c, 0, 100, 66
1, 114397, Note_off_c, 0, 96, 68
1, 114404, Note_off_c, 0, 99, 63
1, 114451, Note_on_c, 0, 98, 89
1, 114459, Note_on_c, 0, 95, 85
1, 114522, Note_on_c, 0, 94, 88
1, 114524, Note_off_c, 0, 95, 66
1, 114526, Note_on_c, 0, 97, 70
1, 114551, Note_off_c, 0, 98, 66
1, 114565, Note_off_c, 0, 97, 59
1, 114593, Note_off_c, 0, 94, 64
1, 114608, Note_on_c, 0, 61, 73
1, 114610, Note_on_c, 0, 70, 87
1, 114615, Note_on_c, 0, 96, 84
1, 114617, Note_on_c, 0, 66, 76
1, 114620, Note_on_c, 0, 93, 78
1, 114689, Note_off_c, 0, 61, 60
1, 114690, Note_off_c, 0, 93, 63
1, 114692, Note_on_c, 0, 95, 70
1, 114696, Note_on_c, 0, 92, 82
1, 114737, Note_off_c, 0, 96, 65
1, 114763, Note_off_c, 0, 95, 65
1, 114765, Note_on_c, 0, 94, 76
1, 114780, Note_on_c, 0, 71, 84
1, 114786, Note_on_c, 0, 63, 73
1, 114786, Note_off_c, 0, 92, 65
1, 114797, Note_on_c, 0, 91, 44
1, 114801, Note_off_c, 0, 94, 59
1, 114807, Note_off_c, 0, 70, 60
1, 114818, Note_off_c, 0, 66, 59
1, 114824, Note_off_c, 0, 91, 54
1, 114831, Note_off_c, 0, 71, 64
1, 114854, Note_on_c, 0, 93, 73
1, 114856, Note_on_c, 0, 90, 78
1, 114911, Note_off_c, 0, 63, 60
1, 114913, Note_off_c, 0, 93, 66
1, 114916, Note_on_c, 0, 92, 64
1, 114919, Note_on_c, 0, 66, 52
1, 114921, Note_off_c, 0, 90, 65
1, 114946, Note_off_c, 0, 92, 67
1, 114952, Note_on_c, 0, 75, 90
1, 114989, Note_on_c, 0, 91, 82
1, 114994, Note_on_c, 0, 88, 65
1, 115019, Note_off_c, 0, 75, 61
1, 115023, Note_off_c, 0, 66, 61
1, 115058, Note_on_c, 0, 65, 28
1, 115060, Note_off_c, 0, 88, 65
1, 115063, Note_on_c, 0, 87, 82
1, 115071, Note_on_c, 0, 90, 62
1, 115078, Note_off_c, 0, 91, 61
1, 115099, Note_off_c, 0, 90, 67
1, 115101, Note_on_c, 0, 73, 78
1, 115116, Note_off_c, 0, 87, 67
1, 115132, Note_off_c, 0, 65, 62
1, 115137, Note_off_c, 0, 73, 62
1, 115144, Note_on_c, 0, 86, 73
1, 115150, Note_on_c, 0, 89, 79
1, 115203, Note_off_c, 0, 86, 64
1, 115204, Note_on_c, 0, 88, 61
1, 115209, Note_on_c, 0, 85, 80
1, 115251, Note_on_c, 0, 67, 80
1, 115256, Note_on_c, 0, 58, 67
1, 115267, Note_off_c, 0, 89, 60
1, 115282, Note_off_c, 0, 88, 66
1, 115283, Note_on_c, 0, 87, 74
1, 115293, Note_off_c, 0, 85, 65
1, 115306, Note_off_c, 0, 87, 70
1, 115327, Note_off_c, 0, 58, 59
1, 115366, Note_on_c, 0, 86, 76
1, 115368, Note_on_c, 0, 83, 70
1, 115379, Note_on_c, 0, 59, 70
1, 115389, Note_on_c, 0, 68, 88
1, 115391, Poly_aftertouch_c, 0, 84, 0
1, 115419, Note_off_c, 0, 83, 65
1, 115425, Note_on_c, 0, 85, 65
1, 115427, Note_on_c, 0, 82, 78
1, 115445, Note_off_c, 0, 67, 58
1, 115446, Note_off_c, 0, 86, 61
1, 115469, Note_off_c, 0, 85, 61
1, 115481, Control_c, 0, 64, 121
1, 115496, Control_c, 0, 64, 112
1, 115505, Note_off_c, 0, 82, 65
1, 115511, Control_c, 0, 64, 109
1, 115526, Control_c, 0, 64, 106
1, 115531, Note_on_c, 0, 81, 58
1, 115538, Note_on_c, 0, 84, 61
1, 115541, Note_on_c, 0, 63, 69
1, 115541, Control_c, 0, 64, 102
1, 115543, Note_on_c, 0, 71, 91
1, 115556, Control_c, 0, 64, 98
1, 115570, Control_c, 0, 64, 93
1, 115571, Note_off_c, 0, 81, 56
1, 115585, Note_on_c, 0, 83, 68
1, 115586, Control_c, 0, 64, 86
1, 115591, Note_off_c, 0, 59, 34
1, 115596, Note_on_c, 0, 80, 68
1, 115596, Note_off_c, 0, 84, 56
1, 115600, Control_c, 0, 64, 81
1, 115615, Control_c, 0, 64, 77
1, 115620, Note_off_c, 0, 68, 56
1, 115630, Control_c, 0, 64, 74
1, 115645, Control_c, 0, 64, 73
1, 115660, Control_c, 0, 64, 73
1, 115660, Note_off_c, 0, 83, 64
1, 115666, Note_on_c, 0, 82, 66
1, 115671, Note_off_c, 0, 80, 64
1, 115683, Note_on_c, 0, 79, 54
1, 115703, Note_off_c, 0, 82, 58
1, 115716, Note_off_c, 0, 79, 63
1, 115719, Control_c, 0, 64, 73
1, 115734, Control_c, 0, 64, 69
1, 115746, Note_on_c, 0, 81, 67
1, 115749, Control_c, 0, 64, 64
1, 115764, Control_c, 0, 64, 54
1, 115775, Note_on_c, 0, 78, 57
1, 115779, Control_c, 0, 64, 36
1, 115793, Control_c, 0, 64, 31
1, 115808, Note_off_c, 0, 81, 65
1, 115808, Control_c, 0, 64, 38
1, 115820, Note_on_c, 0, 80, 62
1, 115823, Control_c, 0, 64, 50
1, 115836, Note_off_c, 0, 78, 63
1, 115838, Control_c, 0, 64, 60
1, 115849, Note_on_c, 0, 77, 40
1, 115852, Control_c, 0, 64, 65
1, 115867, Control_c, 0, 64, 70
1, 115876, Note_off_c, 0, 77, 54
1, 115882, Control_c, 0, 64, 78
1, 115897, Control_c, 0, 64, 93
1, 115898, Note_on_c, 0, 81, 66
1, 115908, Note_off_c, 0, 80, 64
1, 115912, Control_c, 0, 64, 127
1, 115934, Note_off_c, 0, 71, 55
1, 115940, Note_off_c, 0, 81, 62
1, 115982, Note_on_c, 0, 78, 64
1, 116009, Note_on_c, 0, 82, 50
1, 116031, Note_off_c, 0, 78, 62
1, 116051, Note_off_c, 0, 82, 62
1, 116059, Note_on_c, 0, 83, 63
1, 116066, Note_on_c, 0, 80, 61
1, 116121, Note_off_c, 0, 80, 50
1, 116140, Note_on_c, 0, 61, 53
1, 116140, Note_off_c, 0, 83, 64
1, 116146, Note_off_c, 0, 63, 33
1, 116150, Note_on_c, 0, 84, 65
1, 116151, Note_on_c, 0, 70, 56
1, 116162, Note_on_c, 0, 81, 57
1, 116180, Note_off_c, 0, 84, 64
1, 116219, Note_off_c, 0, 81, 62
1, 116221, Note_on_c, 0, 85, 63
1, 116229, Note_on_c, 0, 82, 59
1, 116231, Note_off_c, 0, 61, 57
1, 116247, Note_off_c, 0, 70, 64
1, 116270, Note_off_c, 0, 85, 53
1, 116289, Note_on_c, 0, 86, 69
1, 116302, Note_on_c, 0, 69, 65
1, 116305, Note_off_c, 0, 82, 49
1, 116308, Note_on_c, 0, 60, 52
1, 116336, Note_off_c, 0, 60, 63
1, 116349, Control_c, 0, 64, 123
1, 116353, Note_off_c, 0, 86, 62
1, 116364, Control_c, 0, 64, 114
1, 116369, Note_on_c, 0, 84, 69
1, 116372, Note_on_c, 0, 87, 63
1, 116379, Control_c, 0, 64, 108
1, 116393, Poly_aftertouch_c, 0, 83, 0
1, 116394, Control_c, 0, 64, 105
1, 116409, Control_c, 0, 64, 103
1, 116410, Note_off_c, 0, 84, 60
1, 116423, Control_c, 0, 64, 102
1, 116438, Control_c, 0, 64, 101
1, 116446, Note_on_c, 0, 61, 52
1, 116447, Note_on_c, 0, 88, 58
1, 116451, Note_on_c, 0, 70, 66
1, 116451, Note_off_c, 0, 87, 58
1, 116453, Control_c, 0, 64, 98
1, 116465, Note_on_c, 0, 85, 59
1, 116468, Control_c, 0, 64, 90
1, 116482, Note_off_c, 0, 69, 55
1, 116483, Control_c, 0, 64, 75
1, 116497, Control_c, 0, 64, 65
1, 116498, Note_off_c, 0, 85, 67
1, 116512, Control_c, 0, 64, 58
1, 116515, Note_off_c, 0, 88, 65
1, 116516, Note_on_c, 0, 89, 66
1, 116527, Control_c, 0, 64, 59
1, 116532, Note_on_c, 0, 86, 54
1, 116542, Control_c, 0, 64, 62
1, 116557, Control_c, 0, 64, 65
1, 116572, Control_c, 0, 64, 69
1, 116575, Note_off_c, 0, 86, 63
1, 116576, Note_off_c, 0, 89, 60
1, 116587, Control_c, 0, 64, 77
1, 116599, Note_on_c, 0, 90, 49
1, 116599, Note_off_c, 0, 61, 58
1, 116601, Note_on_c, 0, 87, 58
1, 116602, Control_c, 0, 64, 92
1, 116614, Note_on_c, 0, 73, 72
1, 116614, Note_on_c, 0, 65, 47
1, 116616, Control_c, 0, 64, 127
1, 116638, Note_off_c, 0, 70, 59
1, 116647, Note_off_c, 0, 87, 62
1, 116654, Note_off_c, 0, 90, 47
1, 116676, Note_on_c, 0, 86, 57
1, 116687, Note_off_c, 0, 73, 65
1, 116688, Note_on_c, 0, 89, 19
1, 116706, Note_off_c, 0, 65, 58
1, 116727, Note_off_c, 0, 86, 57
1, 116730, Note_off_c, 0, 89, 50
1, 116749, Note_on_c, 0, 88, 54
1, 116754, Note_on_c, 0, 63, 64
1, 116759, Note_on_c, 0, 71, 85
1, 116762, Note_on_c, 0, 85, 65
1, 116808, Note_on_c, 0, 89, 83
1, 116810, Note_off_c, 0, 88, 62
1, 116815, Note_on_c, 0, 86, 69
1, 116819, Note_off_c, 0, 85, 64
1, 116828, Note_off_c, 0, 63, 61
1, 116836, Note_off_c, 0, 71, 62
1, 116866, Note_off_c, 0, 89, 62
1, 116898, Note_on_c, 0, 90, 82
1, 116900, Note_on_c, 0, 70, 87
1, 116903, Note_on_c, 0, 87, 85
1, 116904, Note_on_c, 0, 61, 67
1, 116922, Note_off_c, 0, 86, 59
1, 116943, Note_off_c, 0, 61, 59
1, 116950, Note_on_c, 0, 91, 74
1, 116970, Note_on_c, 0, 88, 75
1, 116974, Note_off_c, 0, 70, 62
1, 116978, Note_off_c, 0, 87, 62
1, 116978, Note_off_c, 0, 90, 61
1, 116989, Poly_aftertouch_c, 0, 68, 127
1, 117019, Poly_aftertouch_c, 0, 68, 0
1, 117021, Note_off_c, 0, 88, 59
1, 117042, Note_off_c, 0, 91, 64
1, 117043, Note_on_c, 0, 68, 83
1, 117049, Note_on_c, 0, 59, 81
1, 117052, Note_on_c, 0, 89, 83
1, 117057, Note_on_c, 0, 92, 74
1, 117095, Note_on_c, 0, 66, 19
1, 117118, Note_on_c, 0, 93, 73
1, 117119, Note_on_c, 0, 90, 87
1, 117126, Note_off_c, 0, 89, 63
1, 117136, Note_off_c, 0, 66, 51
1, 117138, Note_off_c, 0, 92, 63
1, 117161, Note_off_c, 0, 93, 64
1, 117168, Note_off_c, 0, 68, 61
1, 117188, Note_off_c, 0, 59, 59
1, 117189, Note_on_c, 0, 67, 90
1, 117192, Note_on_c, 0, 58, 82
1, 117207, Note_on_c, 0, 94, 84
1, 117213, Note_off_c, 0, 90, 64
1, 117236, Note_on_c, 0, 95, 79
1, 117253, Note_off_c, 0, 58, 60
1, 117274, Note_off_c, 0, 95, 61
1, 117276, Note_off_c, 0, 94, 64
1, 117335, Control_c, 0, 64, 88
1, 117341, Note_on_c, 0, 68, 88
1, 117345, Note_on_c, 0, 80, 80
1, 117347, Note_on_c, 0, 59, 76
1, 117350, Control_c, 0, 64, 64
1, 117358, Note_on_c, 0, 89, 67
1, 117363, Note_off_c, 0, 67, 63
1, 117365, Control_c, 0, 64, 0
1, 117373, Note_on_c, 0, 88, 37
1, 117380, Control_c, 0, 64, 19
1, 117392, Note_off_c, 0, 68, 65
1, 117395, Control_c, 0, 64, 57
1, 117401, Note_off_c, 0, 88, 52
1, 117410, Control_c, 0, 64, 69
1, 117415, Note_off_c, 0, 80, 65
1, 117419, Note_off_c, 0, 59, 65
1, 117424, Control_c, 0, 64, 90
1, 117435, Note_on_c, 0, 95, 95
1, 117439, Control_c, 0, 64, 127
1, 117475, Note_off_c, 0, 89, 63
1, 117509, Note_off_c, 0, 95, 65
1, 117532, Note_on_c, 0, 49, 103
1, 117535, Note_on_c, 0, 37, 84
1, 117542, Note_on_c, 0, 80, 82
1, 117550, Note_on_c, 0, 90, 34
1, 117551, Note_off_c, 0, 90, 127
1, 117553, Note_on_c, 0, 89, 59
1, 117572, Note_on_c, 0, 88, 57
1, 117596, Note_off_c, 0, 37, 64
1, 117596, Note_off_c, 0, 88, 54
1, 117601, Note_off_c, 0, 80, 65
1, 117608, Note_off_c, 0, 49, 57
1, 117620, Note_on_c, 0, 95, 100
1, 117652, Note_off_c, 0, 89, 63
1, 117692, Note_off_c, 0, 95, 64
1, 117693, Note_on_c, 0, 50, 102
1, 117694, Note_on_c, 0, 89, 73
1, 117699, Note_on_c, 0, 38, 91
1, 117708, Note_on_c, 0, 80, 86
1, 117752, Note_off_c, 0, 80, 64
1, 117776, Note_on_c, 0, 95, 104
1, 117789, Note_off_c, 0, 89, 65
1, 117811, Note_off_c, 0, 50, 60
1, 117822, Note_off_c, 0, 95, 67
1, 117851, Note_off_c, 0, 38, 60
1, 117927, Note_on_c, 0, 51, 105
1, 117928, Note_on_c, 0, 96, 85
1, 117931, Note_on_c, 0, 104, 102
1, 117932, Note_on_c, 0, 39, 89
1, 117934, Note_on_c, 0, 92, 85
1, 117935, Control_c, 0, 64, 104
1, 117950, Control_c, 0, 64, 66
1, 117957, Note_on_c, 0, 102, 57
1, 117958, Note_off_c, 0, 102, 127
1, 117959, Note_off_c, 0, 92, 67
1, 117965, Control_c, 0, 64, 0
1, 117985, Note_off_c, 0, 96, 65
1, 118035, Note_on_c, 0, 103, 98
1, 118041, Note_off_c, 0, 104, 65
1, 118054, Control_c, 0, 64, 58
1, 118068, Control_c, 0, 64, 68
1, 118083, Control_c, 0, 64, 80
1, 118098, Control_c, 0, 64, 127
1, 118115, Note_off_c, 0, 39, 62
1, 118119, Note_on_c, 0, 102, 83
1, 118124, Note_on_c, 0, 99, 89
1, 118136, Note_off_c, 0, 51, 65
1, 118143, Note_off_c, 0, 103, 67
1, 118171, Note_off_c, 0, 102, 63
1, 118188, Note_off_c, 0, 99, 66
1, 118196, Note_on_c, 0, 98, 81
1, 118206, Note_on_c, 0, 101, 90
1, 118250, Note_off_c, 0, 98, 66
1, 118287, Note_on_c, 0, 100, 77
1, 118292, Note_on_c, 0, 97, 82
1, 118357, Note_off_c, 0, 101, 65
1, 118360, Note_on_c, 0, 99, 88
1, 118362, Note_on_c, 0, 96, 81
1, 118367, Note_off_c, 0, 100, 66
1, 118393, Note_off_c, 0, 97, 64
1, 118405, Note_off_c, 0, 99, 65
1, 118410, Note_off_c, 0, 96, 64
1, 118444, Note_on_c, 0, 72, 93
1, 118448, Note_on_c, 0, 63, 75
1, 118450, Note_on_c, 0, 98, 88
1, 118459, Note_on_c, 0, 95, 78
1, 118528, Note_on_c, 0, 94, 87
1, 118529, Note_on_c, 0, 97, 76
1, 118530, Note_off_c, 0, 95, 65
1, 118542, Note_off_c, 0, 63, 60
1, 118554, Note_off_c, 0, 98, 65
1, 118581, Note_off_c, 0, 97, 62
1, 118614, Note_on_c, 0, 73, 94
1, 118617, Note_off_c, 0, 94, 64
1, 118623, Note_on_c, 0, 65, 77
1, 118629, Note_on_c, 0, 93, 69
1, 118632, Note_on_c, 0, 96, 77
1, 118638, Note_off_c, 0, 72, 63
1, 118682, Note_on_c, 0, 95, 74
1, 118686, Note_off_c, 0, 93, 62
1, 118697, Note_on_c, 0, 92, 83
1, 118735, Note_off_c, 0, 96, 65
1, 118738, Note_off_c, 0, 65, 58
1, 118761, Note_off_c, 0, 95, 65
1, 118762, Note_on_c, 0, 94, 77
1, 118768, Note_on_c, 0, 77, 94
1, 118769, Note_on_c, 0, 68, 78
1, 118776, Note_on_c, 0, 91, 65
1, 118785, Note_off_c, 0, 92, 65
1, 118796, Note_off_c, 0, 73, 64
1, 118798, Note_off_c, 0, 94, 60
1, 118805, Note_off_c, 0, 91, 66
1, 118823, Note_off_c, 0, 77, 65
1, 118849, Note_on_c, 0, 93, 73
1, 118850, Note_on_c, 0, 90, 78
1, 118883, Note_off_c, 0, 68, 49
1, 118901, Note_on_c, 0, 67, 74
1, 118903, Note_on_c, 0, 75, 90
1, 118912, Note_off_c, 0, 93, 66
1, 118915, Note_on_c, 0, 92, 71
1, 118920, Note_off_c, 0, 90, 65
1, 118942, Note_off_c, 0, 92, 67
1, 118955, Note_off_c, 0, 75, 62
1, 118956, Note_off_c, 0, 67, 64
1, 118963, Note_on_c, 0, 89, 4
1, 118996, Note_on_c, 0, 91, 82
1, 119001, Note_on_c, 0, 88, 72
1, 119021, Note_off_c, 0, 89, 52
1, 119064, Note_off_c, 0, 88, 66
1, 119067, Note_on_c, 0, 87, 75
1, 119067, Note_on_c, 0, 69, 80
1, 119073, Note_on_c, 0, 90, 62
1, 119093, Note_off_c, 0, 91, 61
1, 119097, Note_on_c, 0, 60, 26
1, 119114, Note_off_c, 0, 90, 64
1, 119127, Note_off_c, 0, 87, 66
1, 119136, Note_off_c, 0, 60, 46
1, 119154, Note_on_c, 0, 86, 70
1, 119158, Note_on_c, 0, 89, 74
1, 119198, Note_on_c, 0, 61, 72
1, 119207, Note_on_c, 0, 70, 83
1, 119215, Note_off_c, 0, 86, 62
1, 119226, Note_on_c, 0, 85, 81
1, 119231, Note_on_c, 0, 88, 62
1, 119241, Note_off_c, 0, 69, 62
1, 119260, Note_off_c, 0, 89, 62
1, 119293, Note_off_c, 0, 88, 66
1, 119297, Note_on_c, 0, 87, 70
1, 119310, Note_off_c, 0, 85, 65
1, 119328, Note_off_c, 0, 87, 66
1, 119329, Control_c, 0, 64, 108
1, 119344, Control_c, 0, 64, 89
1, 119359, Control_c, 0, 64, 79
1, 119374, Note_on_c, 0, 73, 87
1, 119374, Control_c, 0, 64, 74
1, 119377, Note_on_c, 0, 64, 66
1, 119389, Note_on_c, 0, 86, 76
1, 119389, Control_c, 0, 64, 77
1, 119391, Note_on_c, 0, 83, 69
1, 119402, Note_off_c, 0, 70, 62
1, 119404, Control_c, 0, 64, 84
1, 119407, Note_off_c, 0, 61, 53
1, 119417, Note_off_c, 0, 73, 66
1, 119418, Control_c, 0, 64, 99
1, 119433, Control_c, 0, 64, 127
1, 119434, Note_off_c, 0, 64, 64
1, 119449, Note_off_c, 0, 83, 64
1, 119454, Note_on_c, 0, 82, 77
1, 119459, Note_on_c, 0, 85, 68
1, 119478, Note_off_c, 0, 86, 61
1, 119517, Note_off_c, 0, 85, 63
1, 119537, Note_off_c, 0, 82, 64
1, 119565, Note_on_c, 0, 84, 62
1, 119568, Note_on_c, 0, 52, 80
1, 119573, Note_on_c, 0, 40, 73
1, 119577, Note_on_c, 0, 81, 47
1, 119597, Note_off_c, 0, 52, 68
1, 119608, Note_off_c, 0, 40, 65
1, 119622, Note_off_c, 0, 81, 60
1, 119624, Note_on_c, 0, 83, 63
1, 119627, Note_on_c, 0, 80, 74
1, 119655, Note_off_c, 0, 84, 58
1, 119704, Note_on_c, 0, 51, 78
1, 119704, Note_on_c, 0, 82, 77
1, 119706, Note_on_c, 0, 39, 73
1, 119720, Note_off_c, 0, 80, 64
1, 119724, Note_off_c, 0, 83, 63
1, 119730, Note_off_c, 0, 51, 68
1, 119751, Note_off_c, 0, 39, 61
1, 119788, Note_on_c, 0, 76, 72
1, 119810, Note_off_c, 0, 82, 65
1, 119814, Note_off_c, 0, 76, 68
1, 119842, Control_c, 0, 64, 121
1, 119856, Control_c, 0, 64, 83
1, 119871, Control_c, 0, 64, 63
1, 119873, Note_on_c, 0, 39, 47
1, 119882, Note_on_c, 0, 51, 59
1, 119886, Note_on_c, 0, 84, 81
1, 119886, Control_c, 0, 64, 0
1, 119903, Note_on_c, 0, 80, 58
1, 119930, Control_c, 0, 64, 52
1, 119931, Note_off_c, 0, 80, 53
1, 119945, Control_c, 0, 64, 64
1, 119960, Control_c, 0, 64, 71
1, 119974, Control_c, 0, 64, 84
1, 119977, Note_on_c, 0, 83, 74
1, 119989, Control_c, 0, 64, 127
1, 119997, Note_off_c, 0, 84, 61
1, 120005, Note_off_c, 0, 39, 60
1, 120017, Note_off_c, 0, 51, 61
1, 120027, Note_on_c, 0, 82, 68
1, 120040, Note_off_c, 0, 83, 65
1, 120053, Note_off_c, 0, 82, 70
1, 120119, Note_on_c, 0, 81, 74
1, 120123, Note_on_c, 0, 78, 67
1, 120165, Note_off_c, 0, 78, 55
1, 120175, Note_off_c, 0, 81, 65
1, 120182, Note_on_c, 0, 80, 68
1, 120188, Note_on_c, 0, 77, 32
1, 120209, Note_off_c, 0, 80, 69
1, 120222, Note_off_c, 0, 77, 48
1, 120256, Note_on_c, 0, 76, 62
1, 120259, Note_on_c, 0, 79, 72
1, 120303, Note_on_c, 0, 51, 55
1, 120315, Note_on_c, 0, 56, 46
1, 120322, Note_on_c, 0, 78, 75
1, 120322, Note_off_c, 0, 76, 65
1, 120326, Note_on_c, 0, 60, 58
1, 120331, Note_on_c, 0, 75, 75
1, 120331, Note_off_c, 0, 79, 61
1, 120334, Note_off_c, 0, 51, 58
1, 120369, Note_off_c, 0, 56, 60
1, 120371, Note_off_c, 0, 78, 63
1, 120387, Note_off_c, 0, 75, 60
1, 120408, Note_on_c, 0, 74, 70
1, 120420, Note_on_c, 0, 77, 63
1, 120465, Note_on_c, 0, 76, 60
1, 120469, Note_on_c, 0, 61, 78
1, 120472, Note_off_c, 0, 74, 56
1, 120474, Note_on_c, 0, 53, 60
1, 120476, Note_on_c, 0, 73, 71
1, 120498, Note_off_c, 0, 60, 57
1, 120513, Note_off_c, 0, 77, 59
1, 120531, Note_on_c, 0, 75, 74
1, 120537, Note_off_c, 0, 76, 64
1, 120544, Note_off_c, 0, 73, 65
1, 120573, Note_off_c, 0, 53, 59
1, 120573, Note_off_c, 0, 75, 60
1, 120596, Note_off_c, 0, 61, 54
1, 120616, Note_on_c, 0, 56, 62
1, 120620, Note_on_c, 0, 65, 72
1, 120629, Note_on_c, 0, 71, 64
1, 120632, Note_on_c, 0, 74, 71
1, 120683, Note_off_c, 0, 71, 64
1, 120694, Control_c, 0, 64, 101
1, 120695, Note_on_c, 0, 73, 68
1, 120696, Note_on_c, 0, 70, 69
1, 120698, Note_off_c, 0, 74, 60
1, 120701, Note_off_c, 0, 65, 61
1, 120709, Control_c, 0, 64, 80
1, 120715, Note_off_c, 0, 56, 58
1, 120723, Control_c, 0, 64, 66
1, 120733, Note_off_c, 0, 73, 65
1, 120738, Control_c, 0, 64, 60
1, 120751, Note_on_c, 0, 55, 57
1, 120753, Control_c, 0, 64, 63
1, 120763, Note_off_c, 0, 70, 62
1, 120768, Control_c, 0, 64, 69
1, 120775, Note_on_c, 0, 63, 77
1, 120783, Control_c, 0, 64, 76
1, 120788, Note_on_c, 0, 72, 66
1, 120797, Control_c, 0, 64, 90
1, 120812, Control_c, 0, 64, 127
1, 120829, Note_off_c, 0, 55, 64
1, 120829, Note_off_c, 0, 63, 61
1, 120850, Poly_aftertouch_c, 0, 69, 127
1, 120858, Note_on_c, 0, 71, 55
1, 120872, Note_on_c, 0, 68, 67
1, 120874, Note_off_c, 0, 72, 60
1, 120892, Poly_aftertouch_c, 0, 69, 0
1, 120907, Note_off_c, 0, 71, 62
1, 120920, Note_on_c, 0, 70, 64
1, 120930, Note_on_c, 0, 57, 79
1, 120938, Note_off_c, 0, 68, 62
1, 120948, Note_off_c, 0, 70, 69
1, 120989, Poly_aftertouch_c, 0, 48, 127
1, 121011, Note_on_c, 0, 69, 63
1, 121023, Note_on_c, 0, 66, 70
1, 121029, Poly_aftertouch_c, 0, 48, 0
1, 121070, Note_on_c, 0, 49, 63
1, 121070, Note_off_c, 0, 69, 64
1, 121080, Note_on_c, 0, 58, 75
1, 121080, Note_on_c, 0, 68, 66
1, 121084, Note_off_c, 0, 66, 64
1, 121090, Note_off_c, 0, 57, 61
1, 121098, Note_off_c, 0, 68, 64
1, 121160, Note_on_c, 0, 64, 62
1, 121165, Note_on_c, 0, 67, 71
1, 121183, Control_c, 0, 64, 115
1, 121198, Control_c, 0, 64, 81
1, 121213, Control_c, 0, 64, 64
1, 121225, Note_off_c, 0, 64, 65
1, 121227, Note_on_c, 0, 52, 57
1, 121228, Control_c, 0, 64, 36
1, 121233, Note_on_c, 0, 66, 59
1, 121245, Note_on_c, 0, 61, 74
1, 121245, Note_on_c, 0, 63, 67
1, 121248, Note_off_c, 0, 67, 59
1, 121250, Control_c, 0, 64, 44
1, 121264, Control_c, 0, 64, 56
1, 121271, Note_off_c, 0, 58, 61
1, 121279, Control_c, 0, 64, 63
1, 121294, Control_c, 0, 64, 67
1, 121297, Note_off_c, 0, 61, 63
1, 121297, Note_off_c, 0, 66, 57
1, 121307, Note_off_c, 0, 49, 62
1, 121309, Control_c, 0, 64, 74
1, 121314, Note_off_c, 0, 52, 65
1, 121324, Note_off_c, 0, 63, 63
1, 121324, Control_c, 0, 64, 94
1, 121333, Note_on_c, 0, 62, 66
1, 121338, Note_on_c, 0, 65, 64
1, 121338, Control_c, 0, 64, 127
1, 121398, Note_off_c, 0, 62, 61
1, 121410, Note_on_c, 0, 64, 59
1, 121413, Note_on_c, 0, 51, 75
1, 121417, Note_on_c, 0, 39, 61
1, 121419, Note_on_c, 0, 61, 63
1, 121428, Control_c, 0, 64, 105
1, 121443, Control_c, 0, 64, 76
1, 121458, Control_c, 0, 64, 62
1, 121459, Note_off_c, 0, 65, 60
1, 121472, Control_c, 0, 64, 54
1, 121487, Note_on_c, 0, 63, 66
1, 121487, Control_c, 0, 64, 60
1, 121500, Note_on_c, 0, 60, 63
1, 121501, Note_off_c, 0, 64, 61
1, 121502, Control_c, 0, 64, 65
1, 121508, Note_off_c, 0, 61, 59
1, 121517, Control_c, 0, 64, 73
1, 121532, Control_c, 0, 64, 89
1, 121539, Note_off_c, 0, 51, 64
1, 121542, Note_off_c, 0, 60, 63
1, 121544, Note_off_c, 0, 39, 62
1, 121544, Note_off_c, 0, 63, 60
1, 121546, Control_c, 0, 64, 127
1, 121592, Note_on_c, 0, 52, 88
1, 121597, Note_on_c, 0, 40, 78
1, 121606, Control_c, 0, 64, 81
1, 121616, Note_on_c, 0, 62, 66
1, 121620, Control_c, 0, 64, 64
1, 121623, Note_on_c, 0, 59, 62
1, 121635, Control_c, 0, 64, 55
1, 121650, Control_c, 0, 64, 61
1, 121664, Control_c, 0, 64, 66
1, 121678, Note_off_c, 0, 59, 63
1, 121679, Note_on_c, 0, 58, 72
1, 121679, Control_c, 0, 64, 71
1, 121682, Note_on_c, 0, 61, 73
1, 121688, Note_off_c, 0, 62, 64
1, 121694, Control_c, 0, 64, 84
1, 121699, Note_off_c, 0, 40, 62
1, 121709, Control_c, 0, 64, 118
1, 121719, Note_off_c, 0, 58, 61
1, 121720, Note_off_c, 0, 52, 64
1, 121724, Control_c, 0, 64, 127
1, 121741, Note_off_c, 0, 61, 62
1, 121798, Control_c, 0, 64, 109
1, 121801, Note_on_c, 0, 53, 83
1, 121804, Note_on_c, 0, 41, 76
1, 121812, Control_c, 0, 64, 72
1, 121827, Control_c, 0, 64, 34
1, 121842, Control_c, 0, 64, 0
1, 121878, Note_on_c, 0, 61, 74
1, 121899, Note_off_c, 0, 41, 64
1, 121902, Control_c, 0, 64, 49
1, 121917, Control_c, 0, 64, 62
1, 121932, Control_c, 0, 64, 69
1, 121947, Control_c, 0, 64, 78
1, 121949, Note_off_c, 0, 53, 63
1, 121957, Note_on_c, 0, 63, 71
1, 121961, Note_off_c, 0, 61, 62
1, 121961, Control_c, 0, 64, 97
1, 121976, Control_c, 0, 64, 127
1, 122017, Note_on_c, 0, 73, 71
1, 122021, Note_off_c, 0, 63, 64
1, 122043, Note_off_c, 0, 73, 69
1, 122105, Note_on_c, 0, 53, 64
1, 122114, Note_on_c, 0, 73, 77
1, 122125, Note_on_c, 0, 58, 47
1, 122152, Note_off_c, 0, 53, 57
1, 122164, Note_off_c, 0, 58, 57
1, 122171, Note_on_c, 0, 75, 74
1, 122180, Note_off_c, 0, 73, 62
1, 122225, Note_off_c, 0, 75, 63
1, 122228, Note_on_c, 0, 85, 67
1, 122239, Note_on_c, 0, 54, 78
1, 122244, Note_off_c, 0, 85, 68
1, 122245, Note_on_c, 0, 61, 56
1, 122264, Note_off_c, 0, 54, 71
1, 122269, Note_off_c, 0, 61, 63
1, 122300, Poly_aftertouch_c, 0, 82, 127
1, 122321, Note_on_c, 0, 85, 65
1, 122322, Poly_aftertouch_c, 0, 82, 0
1, 122346, Note_on_c, 0, 87, 69
1, 122364, Note_off_c, 0, 85, 59
1, 122375, Note_off_c, 0, 87, 66
1, 122385, Note_on_c, 0, 41, 69
1, 122393, Note_on_c, 0, 97, 80
1, 122397, Note_on_c, 0, 53, 51
1, 122412, Note_off_c, 0, 41, 66
1, 122424, Note_off_c, 0, 53, 57
1, 122450, Note_off_c, 0, 97, 61
1, 122474, Note_on_c, 0, 87, 37
1, 122505, Note_off_c, 0, 87, 53
1, 122508, Note_on_c, 0, 42, 80
1, 122509, Note_on_c, 0, 54, 78
1, 122512, Note_on_c, 0, 97, 79
1, 122531, Poly_aftertouch_c, 0, 85, 127
1, 122539, Note_on_c, 0, 94, 58
1, 122539, Note_off_c, 0, 54, 67
1, 122546, Note_off_c, 0, 42, 62
1, 122551, Poly_aftertouch_c, 0, 85, 0
1, 122567, Note_on_c, 0, 85, 52
1, 122574, Note_off_c, 0, 97, 64
1, 122576, Note_off_c, 0, 94, 64
1, 122597, Note_off_c, 0, 85, 67
1, 122658, Note_on_c, 0, 55, 90
1, 122665, Control_c, 0, 64, 101
1, 122665, Note_on_c, 0, 43, 77
1, 122680, Control_c, 0, 64, 69
1, 122695, Control_c, 0, 64, 14
1, 122710, Control_c, 0, 64, 0
1, 122745, Note_on_c, 0, 64, 76
1, 122747, Control_c, 0, 64, 39
1, 122762, Control_c, 0, 64, 62
1, 122763, Note_off_c, 0, 43, 63
1, 122777, Control_c, 0, 64, 71
1, 122791, Control_c, 0, 64, 88
1, 122806, Control_c, 0, 64, 127
1, 122814, Note_on_c, 0, 66, 79
1, 122817, Note_off_c, 0, 55, 63
1, 122835, Note_off_c, 0, 64, 60
1, 122862, Note_off_c, 0, 66, 64
1, 122869, Note_on_c, 0, 67, 52
1, 122877, Note_on_c, 0, 73, 66
1, 122891, Note_off_c, 0, 67, 60
1, 122901, Note_on_c, 0, 77, 53
1, 122905, Note_off_c, 0, 73, 67
1, 122922, Note_off_c, 0, 77, 59
1, 122951, Note_on_c, 0, 76, 50
1, 122963, Note_on_c, 0, 61, 67
1, 122968, Note_on_c, 0, 55, 46
1, 122977, Note_on_c, 0, 64, 44
1, 123002, Note_off_c, 0, 64, 56
1, 123005, Note_off_c, 0, 55, 52
1, 123021, Note_on_c, 0, 78, 79
1, 123039, Note_off_c, 0, 61, 58
1, 123039, Note_off_c, 0, 76, 63
1, 123075, Note_on_c, 0, 88, 69
1, 123076, Note_off_c, 0, 78, 64
1, 123085, Note_on_c, 0, 64, 66
1, 123086, Note_on_c, 0, 56, 78
1, 123086, Note_on_c, 0, 85, 58
1, 123102, Note_off_c, 0, 88, 69
1, 123106, Note_off_c, 0, 85, 65
1, 123113, Note_off_c, 0, 64, 67
1, 123114, Note_off_c, 0, 56, 67
1, 123170, Note_on_c, 0, 88, 55
1, 123175, Note_on_c, 0, 90, 77
1, 123175, Note_on_c, 0, 89, 72
1, 123202, Note_off_c, 0, 89, 65
1, 123205, Note_off_c, 0, 88, 67
1, 123214, Note_off_c, 0, 90, 59
1, 123229, Note_on_c, 0, 100, 82
1, 123237, Note_on_c, 0, 43, 71
1, 123237, Note_on_c, 0, 55, 58
1, 123261, Note_off_c, 0, 55, 60
1, 123267, Note_off_c, 0, 43, 65
1, 123288, Note_off_c, 0, 100, 64
1, 123291, Note_on_c, 0, 90, 66
1, 123292, Note_on_c, 0, 88, 65
1, 123324, Note_off_c, 0, 88, 63
1, 123324, Note_off_c, 0, 90, 63
1, 123354, Note_on_c, 0, 44, 83
1, 123354, Note_on_c, 0, 56, 86
1, 123354, Note_on_c, 0, 100, 87
1, 123363, Note_on_c, 0, 97, 80
1, 123384, Note_off_c, 0, 56, 65
1, 123388, Note_off_c, 0, 44, 63
1, 123414, Note_off_c, 0, 100, 66
1, 123416, Note_on_c, 0, 88, 91
1, 123434, Note_off_c, 0, 97, 64
1, 123449, Note_off_c, 0, 88, 63
1, 123507, Note_on_c, 0, 57, 92
1, 123511, Note_on_c, 0, 45, 82
1, 123526, Control_c, 0, 64, 98
1, 123541, Control_c, 0, 64, 66
1, 123556, Control_c, 0, 64, 0
1, 123583, Note_off_c, 0, 45, 63
1, 123586, Control_c, 0, 64, 24
1, 123591, Note_on_c, 0, 64, 88
1, 123601, Control_c, 0, 64, 56
1, 123615, Control_c, 0, 64, 69
1, 123630, Control_c, 0, 64, 94
1, 123639, Note_off_c, 0, 57, 66
1, 123645, Control_c, 0, 64, 127
1, 123651, Note_on_c, 0, 66, 83
1, 123674, Note_off_c, 0, 64, 62
1, 123699, Note_off_c, 0, 66, 65
1, 123707, Note_on_c, 0, 73, 76
1, 123714, Note_on_c, 0, 67, 49
1, 123717, Note_on_c, 0, 76, 71
1, 123734, Note_off_c, 0, 73, 69
1, 123737, Note_off_c, 0, 67, 59
1, 123741, Note_off_c, 0, 76, 67
1, 123774, Note_on_c, 0, 64, 70
1, 123776, Note_on_c, 0, 57, 65
1, 123783, Note_on_c, 0, 76, 94
1, 123802, Note_off_c, 0, 64, 65
1, 123825, Note_off_c, 0, 57, 61
1, 123827, Note_on_c, 0, 65, 39
1, 123848, Note_on_c, 0, 78, 87
1, 123859, Note_off_c, 0, 65, 55
1, 123876, Note_off_c, 0, 76, 62
1, 123897, Note_on_c, 0, 88, 75
1, 123899, Note_on_c, 0, 85, 73
1, 123902, Note_on_c, 0, 58, 86
1, 123905, Note_on_c, 0, 67, 77
1, 123905, Note_off_c, 0, 78, 66
1, 123920, Note_off_c, 0, 88, 71
1, 123923, Note_off_c, 0, 85, 70
1, 123929, Note_off_c, 0, 67, 69
1, 123944, Note_off_c, 0, 58, 58
1, 123977, Note_on_c, 0, 88, 87
1, 123995, Note_on_c, 0, 90, 72
1, 124021, Note_off_c, 0, 90, 64
1, 124024, Note_off_c, 0, 88, 65
1, 124038, Note_on_c, 0, 45, 81
1, 124038, Note_on_c, 0, 57, 84
1, 124044, Note_on_c, 0, 100, 96
1, 124059, Note_off_c, 0, 57, 72
1, 124065, Note_off_c, 0, 45, 68
1, 124102, Note_on_c, 0, 90, 88
1, 124115, Note_off_c, 0, 100, 63
1, 124123, Note_on_c, 0, 88, 68
1, 124138, Note_off_c, 0, 88, 68
1, 124150, Note_off_c, 0, 90, 63
1, 124157, Note_on_c, 0, 58, 92
1, 124158, Note_on_c, 0, 46, 91
1, 124174, Note_on_c, 0, 100, 93
1, 124179, Note_on_c, 0, 97, 82
1, 124203, Note_off_c, 0, 58, 60
1, 124208, Note_off_c, 0, 46, 62
1, 124220, Note_on_c, 0, 88, 89
1, 124240, Note_off_c, 0, 100, 66
1, 124248, Note_off_c, 0, 97, 66
1, 124273, Note_off_c, 0, 88, 66
1, 124314, Note_on_c, 0, 59, 104
1, 124319, Note_on_c, 0, 47, 89
1, 124334, Control_c, 0, 64, 91
1, 124349, Control_c, 0, 64, 61
1, 124364, Control_c, 0, 64, 0
1, 124400, Note_off_c, 0, 47, 64
1, 124400, Note_on_c, 0, 67, 93
1, 124409, Control_c, 0, 64, 45
1, 124424, Control_c, 0, 64, 68
1, 124438, Control_c, 0, 64, 101
1, 124453, Control_c, 0, 64, 127
1, 124454, Note_off_c, 0, 59, 65
1, 124457, Note_off_c, 0, 67, 68
1, 124459, Note_on_c, 0, 69, 88
1, 124529, Note_on_c, 0, 79, 83
1, 124529, Note_off_c, 0, 69, 69
1, 124537, Note_on_c, 0, 76, 76
1, 124561, Note_off_c, 0, 76, 71
1, 124561, Note_off_c, 0, 79, 65
1, 124570, Note_on_c, 0, 74, 35
1, 124588, Note_on_c, 0, 67, 91
1, 124591, Note_on_c, 0, 59, 81
1, 124595, Note_on_c, 0, 64, 81
1, 124600, Note_off_c, 0, 74, 54
1, 124614, Note_on_c, 0, 79, 83
1, 124638, Note_off_c, 0, 59, 60
1, 124653, Note_off_c, 0, 67, 48
1, 124659, Note_on_c, 0, 81, 68
1, 124659, Note_off_c, 0, 64, 57
1, 124673, Note_off_c, 0, 79, 68
1, 124734, Note_off_c, 0, 81, 65
1, 124736, Note_on_c, 0, 91, 98
1, 124742, Note_on_c, 0, 67, 100
1, 124747, Note_on_c, 0, 60, 90
1, 124748, Note_on_c, 0, 64, 87
1, 124770, Note_off_c, 0, 91, 61
1, 124771, Note_off_c, 0, 64, 70
1, 124778, Note_off_c, 0, 67, 66
1, 124794, Note_off_c, 0, 60, 66
1, 124817, Note_on_c, 0, 91, 87
1, 124821, Poly_aftertouch_c, 0, 88, 127
1, 124823, Note_on_c, 0, 93, 86
1, 124843, Poly_aftertouch_c, 0, 88, 0
1, 124874, Note_off_c, 0, 91, 63
1, 124919, Note_on_c, 0, 103, 94
1, 124925, Note_on_c, 0, 59, 96
1, 124930, Note_on_c, 0, 47, 87
1, 124940, Note_off_c, 0, 93, 55
1, 124993, Note_off_c, 0, 47, 63
1, 125002, Note_on_c, 0, 93, 65
1, 125004, Note_off_c, 0, 59, 60
1, 125008, Note_on_c, 0, 91, 85
1, 125024, Note_off_c, 0, 103, 61
1, 125093, Note_off_c, 0, 91, 64
1, 125096, Note_on_c, 0, 60, 99
1, 125097, Note_off_c, 0, 93, 64
1, 125105, Note_on_c, 0, 48, 81
1, 125116, Note_on_c, 0, 103, 96
1, 125128, Note_off_c, 0, 48, 67
1, 125133, Note_on_c, 0, 100, 66
1, 125136, Note_off_c, 0, 60, 65
1, 125195, Note_on_c, 0, 93, 85
1, 125214, Note_on_c, 0, 91, 76
1, 125217, Note_off_c, 0, 100, 60
1, 125228, Note_off_c, 0, 103, 63
1, 125304, Note_off_c, 0, 91, 63
1, 125304, Note_off_c, 0, 93, 63
1, 125306, Control_c, 0, 64, 123
1, 125312, Note_on_c, 0, 58, 86
1, 125317, Note_on_c, 0, 61, 98
1, 125318, Control_c, 0, 64, 66
1, 125322, Note_on_c, 0, 52, 71
1, 125327, Note_on_c, 0, 49, 77
1, 125330, Note_on_c, 0, 103, 91
1, 125333, Control_c, 0, 64, 0
1, 125342, Note_on_c, 0, 100, 66
1, 125393, Control_c, 0, 64, 37
1, 125404, Note_off_c, 0, 61, 66
1, 125407, Control_c, 0, 64, 66
1, 125422, Control_c, 0, 64, 94
1, 125426, Note_off_c, 0, 58, 64
1, 125431, Note_off_c, 0, 52, 58
1, 125437, Control_c, 0, 64, 127
1, 125447, Note_on_c, 0, 94, 77
1, 125460, Note_off_c, 0, 49, 63
1, 125460, Note_off_c, 0, 100, 58
1, 125479, Note_off_c, 0, 103, 54
1, 125537, Note_off_c, 0, 94, 60
1, 125558, Note_on_c, 0, 91, 70
1, 125580, Note_on_c, 0, 35, 68
1, 125600, Note_on_c, 0, 47, 42
1, 125610, Note_off_c, 0, 35, 61
1, 125622, Note_on_c, 0, 94, 58
1, 125632, Note_off_c, 0, 91, 61
1, 125634, Note_off_c, 0, 47, 48
1, 125678, Note_off_c, 0, 94, 60
1, 125699, Note_on_c, 0, 100, 49
1, 125700, Note_on_c, 0, 48, 65
1, 125700, Note_on_c, 0, 103, 59
1, 125700, Note_on_c, 0, 36, 67
1, 125720, Note_off_c, 0, 48, 63
1, 125740, Note_off_c, 0, 36, 63
1, 125768, Note_on_c, 0, 94, 58
1, 125770, Note_off_c, 0, 100, 61
1, 125782, Note_off_c, 0, 103, 53
1, 125814, Note_on_c, 0, 37, 63
1, 125817, Note_off_c, 0, 94, 63
1, 125821, Note_on_c, 0, 49, 59
1, 125840, Note_on_c, 0, 91, 58
1, 125851, Note_off_c, 0, 37, 62
1, 125852, Note_off_c, 0, 49, 64
1, 125886, Note_off_c, 0, 91, 63
1, 125904, Note_on_c, 0, 94, 46
1, 125938, Note_off_c, 0, 94, 50
1, 125943, Note_on_c, 0, 40, 65
1, 125948, Note_on_c, 0, 52, 54
1, 125955, Note_on_c, 0, 103, 60
1, 125966, Note_on_c, 0, 100, 46
1, 125971, Note_off_c, 0, 52, 64
1, 125974, Note_off_c, 0, 40, 65
1, 126009, Note_off_c, 0, 100, 62
1, 126027, Note_on_c, 0, 94, 52
1, 126031, Note_off_c, 0, 103, 59
1, 126062, Note_on_c, 0, 41, 72
1, 126063, Note_on_c, 0, 53, 72
1, 126063, Note_off_c, 0, 94, 60
1, 126080, Note_on_c, 0, 91, 64
1, 126089, Note_off_c, 0, 41, 66
1, 126090, Note_off_c, 0, 53, 66
1, 126136, Note_off_c, 0, 91, 51
1, 126145, Note_on_c, 0, 94, 58
1, 126171, Control_c, 0, 64, 82
1, 126183, Note_on_c, 0, 44, 68
1, 126185, Note_on_c, 0, 56, 68
1, 126186, Note_off_c, 0, 94, 62
1, 126186, Control_c, 0, 64, 63
1, 126198, Note_on_c, 0, 103, 64
1, 126201, Note_on_c, 0, 100, 57
1, 126201, Control_c, 0, 64, 38
1, 126215, Control_c, 0, 64, 52
1, 126230, Control_c, 0, 64, 63
1, 126237, Note_off_c, 0, 56, 62
1, 126245, Control_c, 0, 64, 69
1, 126249, Note_off_c, 0, 44, 63
1, 126257, Note_on_c, 0, 94, 72
1, 126260, Control_c, 0, 64, 81
1, 126274, Note_off_c, 0, 100, 62
1, 126275, Control_c, 0, 64, 127
1, 126280, Note_off_c, 0, 103, 60
1, 126309, Note_on_c, 0, 42, 82
1, 126310, Note_on_c, 0, 54, 79
1, 126317, Note_off_c, 0, 94, 64
1, 126324, Note_on_c, 0, 91, 68
1, 126370, Note_off_c, 0, 42, 62
1, 126374, Note_on_c, 0, 94, 59
1, 126374, Note_off_c, 0, 54, 57
1, 126385, Note_off_c, 0, 91, 60
1, 126423, Note_off_c, 0, 94, 63
1, 126427, Note_on_c, 0, 103, 72
1, 126431, Note_on_c, 0, 55, 79
1, 126435, Note_on_c, 0, 100, 58
1, 126436, Note_on_c, 0, 43, 72
1, 126463, Note_off_c, 0, 55, 65
1, 126487, Note_off_c, 0, 43, 61
1, 126495, Note_on_c, 0, 94, 71
1, 126514, Note_off_c, 0, 100, 63
1, 126530, Note_off_c, 0, 103, 61
1, 126546, Note_on_c, 0, 44, 73
1, 126549, Note_on_c, 0, 56, 73
1, 126562, Note_off_c, 0, 94, 65
1, 126564, Note_on_c, 0, 91, 71
1, 126594, Control_c, 0, 64, 105
1, 126608, Control_c, 0, 64, 73
1, 126612, Note_off_c, 0, 44, 63
1, 126621, Note_off_c, 0, 56, 63
1, 126623, Control_c, 0, 64, 54
1, 126633, Note_off_c, 0, 91, 59
1, 126638, Control_c, 0, 64, 50
1, 126647, Note_on_c, 0, 94, 49
1, 126653, Control_c, 0, 64, 63
1, 126657, Note_on_c, 0, 57, 82
1, 126659, Note_on_c, 0, 45, 76
1, 126659, Note_on_c, 0, 103, 71
1, 126667, Control_c, 0, 64, 68
1, 126675, Note_on_c, 0, 100, 56
1, 126683, Note_off_c, 0, 94, 54
1, 126683, Control_c, 0, 64, 77
1, 126698, Control_c, 0, 64, 99
1, 126708, Note_off_c, 0, 57, 65
1, 126713, Control_c, 0, 64, 127
1, 126725, Note_off_c, 0, 100, 60
1, 126733, Note_on_c, 0, 94, 62
1, 126736, Note_off_c, 0, 103, 60
1, 126756, Note_on_c, 0, 91, 62
1, 126762, Note_off_c, 0, 45, 62
1, 126773, Note_on_c, 0, 46, 76
1, 126780, Note_on_c, 0, 58, 77
1, 126811, Note_off_c, 0, 58, 65
1, 126833, Note_off_c, 0, 46, 61
1, 126838, Note_off_c, 0, 94, 53
1, 126847, Control_c, 0, 64, 91
1, 126857, Note_off_c, 0, 91, 52
1, 126862, Control_c, 0, 64, 66
1, 126877, Control_c, 0, 64, 36
1, 126892, Note_on_c, 0, 61, 73
1, 126892, Control_c, 0, 64, 42
1, 126892, Note_on_c, 0, 49, 73
1, 126900, Note_on_c, 0, 103, 63
1, 126906, Control_c, 0, 64, 59
1, 126921, Control_c, 0, 64, 64
1, 126928, Note_on_c, 0, 100, 36
1, 126936, Control_c, 0, 64, 68
1, 126943, Note_on_c, 0, 94, 38
1, 126950, Note_off_c, 0, 49, 63
1, 126951, Control_c, 0, 64, 78
1, 126954, Note_off_c, 0, 61, 61
1, 126959, Note_off_c, 0, 100, 54
1, 126959, Note_off_c, 0, 103, 61
1, 126965, Control_c, 0, 64, 106
1, 126973, Note_on_c, 0, 91, 57
1, 126980, Control_c, 0, 64, 127
1, 127002, Note_off_c, 0, 91, 61
1, 127014, Note_off_c, 0, 94, 56
1, 127021, Note_on_c, 0, 47, 67
1, 127023, Note_on_c, 0, 103, 63
1, 127043, Note_on_c, 0, 59, 43
1, 127044, Note_on_c, 0, 100, 52
1, 127049, Note_on_c, 0, 60, 44
1, 127049, Note_off_c, 0, 47, 63
1, 127070, Note_off_c, 0, 103, 61
1, 127071, Note_off_c, 0, 100, 61
1, 127073, Note_off_c, 0, 59, 54
1, 127077, Note_off_c, 0, 60, 54
1, 127080, Note_on_c, 0, 94, 45
1, 127081, Note_on_c, 0, 91, 63
1, 127114, Note_off_c, 0, 91, 64
1, 127118, Note_off_c, 0, 94, 62
1, 127141, Note_on_c, 0, 48, 72
1, 127144, Note_on_c, 0, 60, 71
1, 127145, Note_on_c, 0, 103, 73
1, 127163, Note_on_c, 0, 100, 44
1, 127168, Note_off_c, 0, 48, 66
1, 127170, Note_off_c, 0, 60, 67
1, 127181, Note_off_c, 0, 103, 58
1, 127192, Note_off_c, 0, 100, 54
1, 127196, Note_on_c, 0, 94, 70
1, 127197, Note_on_c, 0, 91, 63
1, 127236, Note_off_c, 0, 91, 64
1, 127239, Note_off_c, 0, 94, 59
1, 127247, Note_on_c, 0, 61, 78
1, 127251, Note_on_c, 0, 103, 78
1, 127257, Note_on_c, 0, 51, 59
1, 127270, Note_off_c, 0, 61, 68
1, 127272, Note_on_c, 0, 100, 60
1, 127297, Note_off_c, 0, 51, 46
1, 127302, Note_off_c, 0, 100, 55
1, 127311, Note_on_c, 0, 91, 69
1, 127312, Note_on_c, 0, 94, 74
1, 127312, Note_off_c, 0, 103, 64
1, 127356, Note_off_c, 0, 91, 57
1, 127360, Note_off_c, 0, 94, 56
1, 127367, Note_on_c, 0, 103, 77
1, 127371, Note_on_c, 0, 64, 92
1, 127373, Note_on_c, 0, 52, 84
1, 127383, Note_on_c, 0, 100, 62
1, 127405, Note_off_c, 0, 52, 65
1, 127411, Note_off_c, 0, 64, 62
1, 127423, Note_off_c, 0, 100, 54
1, 127428, Note_off_c, 0, 103, 57
1, 127431, Note_on_c, 0, 94, 73
1, 127434, Note_on_c, 0, 91, 67
1, 127469, Note_off_c, 0, 91, 63
1, 127482, Note_on_c, 0, 65, 94
1, 127485, Note_on_c, 0, 53, 82
1, 127486, Note_on_c, 0, 103, 80
1, 127491, Note_off_c, 0, 94, 61
1, 127507, Note_on_c, 0, 100, 59
1, 127511, Note_off_c, 0, 53, 69
1, 127521, Note_off_c, 0, 65, 64
1, 127541, Note_on_c, 0, 94, 68
1, 127548, Note_on_c, 0, 91, 78
1, 127557, Note_off_c, 0, 100, 63
1, 127560, Note_off_c, 0, 103, 64
1, 127598, Note_off_c, 0, 91, 62
1, 127604, Note_off_c, 0, 94, 62
1, 127610, Control_c, 0, 64, 109
1, 127612, Note_on_c, 0, 68, 94
1, 127616, Note_on_c, 0, 56, 84
1, 127616, Note_on_c, 0, 103, 83
1, 127625, Control_c, 0, 64, 74
1, 127640, Control_c, 0, 64, 54
1, 127643, Note_on_c, 0, 100, 51
1, 127655, Control_c, 0, 64, 34
1, 127670, Control_c, 0, 64, 58
1, 127677, Note_off_c, 0, 68, 61
1, 127678, Note_on_c, 0, 94, 86
1, 127681, Note_on_c, 0, 91, 75
1, 127685, Control_c, 0, 64, 68
1, 127690, Note_off_c, 0, 56, 64
1, 127691, Note_off_c, 0, 100, 65
1, 127692, Note_off_c, 0, 103, 65
1, 127699, Control_c, 0, 64, 84
1, 127714, Control_c, 0, 64, 127
1, 127732, Note_off_c, 0, 91, 62
1, 127738, Note_off_c, 0, 94, 64
1, 127748, Note_on_c, 0, 103, 88
1, 127758, Note_on_c, 0, 54, 91
1, 127758, Note_on_c, 0, 66, 93
1, 127771, Note_on_c, 0, 100, 65
1, 127807, Note_off_c, 0, 54, 65
1, 127813, Note_on_c, 0, 94, 86
1, 127813, Note_off_c, 0, 66, 59
1, 127820, Note_on_c, 0, 91, 78
1, 127826, Note_off_c, 0, 103, 64
1, 127831, Note_off_c, 0, 100, 64
1, 127860, Note_off_c, 0, 91, 60
1, 127870, Note_off_c, 0, 94, 64
1, 127879, Note_on_c, 0, 67, 102
1, 127882, Note_on_c, 0, 103, 85
1, 127883, Note_on_c, 0, 55, 89
1, 127898, Note_on_c, 0, 100, 61
1, 127926, Note_off_c, 0, 67, 63
1, 127928, Note_off_c, 0, 55, 62
1, 127932, Note_on_c, 0, 56, 6
1, 127939, Note_on_c, 0, 94, 85
1, 127947, Note_on_c, 0, 91, 79
1, 127957, Note_off_c, 0, 103, 65
1, 127962, Note_off_c, 0, 100, 64
1, 127981, Note_off_c, 0, 56, 54
1, 128007, Note_off_c, 0, 91, 63
1, 128010, Note_on_c, 0, 56, 75
1, 128011, Note_off_c, 0, 94, 64
1, 128013, Note_on_c, 0, 68, 96
1, 128022, Note_on_c, 0, 103, 91
1, 128034, Note_on_c, 0, 100, 65
1, 128078, Note_on_c, 0, 94, 86
1, 128087, Note_on_c, 0, 91, 81
1, 128090, Note_off_c, 0, 56, 63
1, 128099, Note_off_c, 0, 68, 62
1, 128103, Note_off_c, 0, 103, 65
1, 128106, Note_off_c, 0, 100, 64
1, 128151, Control_c, 0, 64, 111
1, 128153, Note_off_c, 0, 91, 64
1, 128155, Note_on_c, 0, 57, 90
1, 128155, Note_on_c, 0, 69, 98
1, 128161, Note_off_c, 0, 94, 60
1, 128164, Note_on_c, 0, 103, 86
1, 128166, Control_c, 0, 64, 70
1, 128180, Control_c, 0, 64, 0
1, 128181, Note_on_c, 0, 100, 62
1, 128210, Control_c, 0, 64, 29
1, 128225, Control_c, 0, 64, 62
1, 128233, Note_on_c, 0, 94, 87
1, 128238, Note_on_c, 0, 91, 85
1, 128240, Control_c, 0, 64, 74
1, 128254, Control_c, 0, 64, 108
1, 128257, Note_off_c, 0, 103, 61
1, 128258, Note_off_c, 0, 69, 64
1, 128264, Note_off_c, 0, 100, 62
1, 128269, Control_c, 0, 64, 127
1, 128310, Note_off_c, 0, 91, 64
1, 128311, Note_on_c, 0, 58, 76
1, 128315, Note_on_c, 0, 103, 89
1, 128323, Note_on_c, 0, 100, 69
1, 128326, Note_on_c, 0, 70, 96
1, 128331, Note_off_c, 0, 94, 63
1, 128338, Note_off_c, 0, 57, 58
1, 128359, Note_off_c, 0, 58, 65
1, 128382, Note_off_c, 0, 70, 65
1, 128382, Note_on_c, 0, 94, 72
1, 128397, Note_on_c, 0, 91, 76
1, 128409, Note_off_c, 0, 100, 62
1, 128417, Note_off_c, 0, 103, 63
1, 128437, Poly_aftertouch_c, 0, 68, 0
1, 128479, Note_on_c, 0, 61, 58
1, 128499, Note_on_c, 0, 64, 60
1, 128521, Control_c, 0, 64, 108
1, 128532, Note_on_c, 0, 70, 68
1, 128536, Control_c, 0, 64, 69
1, 128551, Control_c, 0, 64, 0
1, 128573, Note_on_c, 0, 73, 96
1, 128582, Note_on_c, 0, 103, 94
1, 128587, Note_on_c, 0, 100, 75
1, 128595, Control_c, 0, 64, 17
1, 128597, Note_off_c, 0, 61, 63
1, 128600, Note_off_c, 0, 91, 61
1, 128605, Note_off_c, 0, 64, 62
1, 128610, Control_c, 0, 64, 61
1, 128612, Note_off_c, 0, 70, 65
1, 128620, Note_off_c, 0, 94, 64
1, 128622, Note_off_c, 0, 100, 63
1, 128623, Note_off_c, 0, 103, 67
1, 128625, Control_c, 0, 64, 76
1, 128635, Note_off_c, 0, 73, 67
1, 128640, Control_c, 0, 64, 127
1, 128870, Control_c, 0, 64, 111
1, 128884, Control_c, 0, 64, 99
1, 128895, Note_on_c, 0, 59, 42
1, 128899, Control_c, 0, 64, 96
1, 128914, Control_c, 0, 64, 97
1, 128943, Control_c, 0, 64, 96
1, 128952, Note_off_c, 0, 59, 59
1, 128958, Control_c, 0, 64, 94
1, 128964, Note_on_c, 0, 60, 50
1, 128973, Control_c, 0, 64, 91
1, 128988, Control_c, 0, 64, 90
1, 128999, Note_off_c, 0, 60, 65
1, 129002, Control_c, 0, 64, 88
1, 129012, Note_on_c, 0, 61, 54
1, 129017, Control_c, 0, 64, 88
1, 129032, Control_c, 0, 64, 87
1, 129045, Note_off_c, 0, 61, 64
1, 129047, Control_c, 0, 64, 87
1, 129062, Control_c, 0, 64, 85
1, 129078, Control_c, 0, 64, 83
1, 129086, Note_on_c, 0, 64, 46
1, 129093, Control_c, 0, 64, 82
1, 129107, Control_c, 0, 64, 80
1, 129134, Note_on_c, 0, 65, 52
1, 129136, Note_off_c, 0, 64, 57
1, 129137, Control_c, 0, 64, 80
1, 129151, Control_c, 0, 64, 79
1, 129166, Control_c, 0, 64, 78
1, 129169, Note_off_c, 0, 65, 65
1, 129172, Note_on_c, 0, 68, 54
1, 129181, Control_c, 0, 64, 76
1, 129196, Control_c, 0, 64, 76
1, 129198, Note_on_c, 0, 66, 55
1, 129206, Note_off_c, 0, 68, 65
1, 129211, Control_c, 0, 64, 75
1, 129226, Control_c, 0, 64, 74
1, 129241, Control_c, 0, 64, 73
1, 129256, Control_c, 0, 64, 72
1, 129271, Control_c, 0, 64, 71
1, 129287, Note_on_c, 0, 68, 67
1, 129288, Note_off_c, 0, 66, 61
1, 129300, Control_c, 0, 64, 70
1, 129315, Control_c, 0, 64, 69
1, 129319, Note_off_c, 0, 68, 63
1, 129330, Control_c, 0, 64, 68
1, 129333, Note_on_c, 0, 69, 59
1, 129344, Control_c, 0, 64, 67
1, 129359, Control_c, 0, 64, 67
1, 129363, Note_on_c, 0, 70, 73
1, 129371, Note_off_c, 0, 69, 63
1, 129374, Control_c, 0, 64, 66
1, 129389, Control_c, 0, 64, 66
1, 129400, Note_on_c, 0, 73, 68
1, 129404, Control_c, 0, 64, 65
1, 129414, Note_off_c, 0, 70, 63
1, 129418, Control_c, 0, 64, 65
1, 129432, Note_off_c, 0, 73, 67
1, 129446, Note_on_c, 0, 71, 75
1, 129448, Control_c, 0, 64, 64
1, 129463, Control_c, 0, 64, 64
1, 129485, Control_c, 0, 64, 63
1, 129488, Note_on_c, 0, 72, 77
1, 129500, Control_c, 0, 64, 62
1, 129507, Note_off_c, 0, 71, 61
1, 129515, Control_c, 0, 64, 62
1, 129530, Note_on_c, 0, 73, 75
1, 129530, Control_c, 0, 64, 61
1, 129541, Note_off_c, 0, 72, 63
1, 129545, Control_c, 0, 64, 60
1, 129557, Note_off_c, 0, 73, 69
1, 129559, Control_c, 0, 64, 59
1, 129571, Note_on_c, 0, 76, 77
1, 129574, Control_c, 0, 64, 58
1, 129589, Control_c, 0, 64, 58
1, 129605, Note_on_c, 0, 77, 85
1, 129628, Note_off_c, 0, 76, 64
1, 129633, Control_c, 0, 64, 57
1, 129655, Note_on_c, 0, 80, 79
1, 129660, Note_off_c, 0, 77, 66
1, 129683, Note_on_c, 0, 78, 78
1, 129691, Note_off_c, 0, 80, 65
1, 129721, Note_on_c, 0, 79, 76
1, 129751, Note_off_c, 0, 78, 64
1, 129762, Note_on_c, 0, 80, 74
1, 129774, Note_off_c, 0, 79, 65
1, 129805, Note_off_c, 0, 80, 64
1, 129808, Note_on_c, 0, 81, 80
1, 129825, Control_c, 0, 64, 57
1, 129839, Note_on_c, 0, 82, 84
1, 129855, Control_c, 0, 64, 56
1, 129858, Note_off_c, 0, 81, 65
1, 129884, Note_on_c, 0, 85, 79
1, 129886, Control_c, 0, 64, 55
1, 129894, Note_off_c, 0, 82, 66
1, 129901, Control_c, 0, 64, 55
1, 129916, Control_c, 0, 64, 54
1, 129921, Note_off_c, 0, 85, 64
1, 129926, Note_on_c, 0, 83, 86
1, 129930, Control_c, 0, 64, 53
1, 129945, Control_c, 0, 64, 52
1, 129960, Note_on_c, 0, 84, 84
1, 129960, Control_c, 0, 64, 52
1, 129974, Control_c, 0, 64, 51
1, 129979, Note_off_c, 0, 83, 63
1, 129989, Control_c, 0, 64, 50
1, 129998, Note_on_c, 0, 85, 80
1, 130004, Control_c, 0, 64, 50
1, 130013, Note_off_c, 0, 84, 65
1, 130034, Control_c, 0, 64, 49
1, 130040, Note_off_c, 0, 85, 66
1, 130052, Note_on_c, 0, 88, 85
1, 130079, Note_on_c, 0, 89, 90
1, 130112, Note_off_c, 0, 88, 60
1, 130139, Note_on_c, 0, 92, 91
1, 130150, Note_off_c, 0, 89, 65
1, 130164, Note_on_c, 0, 90, 76
1, 130184, Note_off_c, 0, 92, 66
1, 130224, Note_on_c, 0, 91, 75
1, 130259, Note_on_c, 0, 92, 80
1, 130271, Note_off_c, 0, 90, 61
1, 130272, Note_off_c, 0, 91, 63
1, 130303, Note_off_c, 0, 92, 64
1, 130328, Note_on_c, 0, 93, 84
1, 130367, Note_on_c, 0, 94, 82
1, 130375, Note_off_c, 0, 93, 65
1, 130418, Note_on_c, 0, 97, 65
1, 130424, Note_off_c, 0, 94, 64
1, 130427, Control_c, 0, 64, 50
1, 130442, Control_c, 0, 64, 52
1, 130451, Note_off_c, 0, 97, 63
1, 130456, Control_c, 0, 64, 54
1, 130458, Note_on_c, 0, 91, 64
1, 130471, Control_c, 0, 64, 55
1, 130486, Control_c, 0, 64, 57
1, 130487, Note_off_c, 0, 91, 66
1, 130497, Note_on_c, 0, 92, 81
1, 130500, Control_c, 0, 64, 60
1, 130515, Control_c, 0, 64, 63
1, 130530, Control_c, 0, 64, 65
1, 130545, Control_c, 0, 64, 67
1, 130561, Control_c, 0, 64, 68
1, 130567, Note_on_c, 0, 93, 69
1, 130573, Note_off_c, 0, 92, 65
1, 130575, Control_c, 0, 64, 70
1, 130590, Control_c, 0, 64, 73
1, 130591, Note_off_c, 0, 93, 67
1, 130605, Control_c, 0, 64, 76
1, 130620, Control_c, 0, 64, 78
1, 130635, Control_c, 0, 64, 79
1, 130636, Poly_aftertouch_c, 0, 93, 127
1, 130659, Note_on_c, 0, 94, 90
1, 130660, Poly_aftertouch_c, 0, 93, 0
1, 130710, Note_on_c, 0, 97, 78
1, 130710, Control_c, 0, 64, 79
1, 130714, Poly_aftertouch_c, 0, 95, 0
1, 130721, Note_off_c, 0, 94, 65
1, 130725, Control_c, 0, 64, 78
1, 130737, Note_off_c, 0, 97, 66
1, 130746, Note_on_c, 0, 92, 82
1, 130754, Control_c, 0, 64, 78
1, 130769, Control_c, 0, 64, 77
1, 130784, Control_c, 0, 64, 77
1, 130793, Note_on_c, 0, 93, 74
1, 130813, Control_c, 0, 64, 76
1, 130828, Control_c, 0, 64, 75
1, 130841, Note_on_c, 0, 94, 87
1, 130843, Control_c, 0, 64, 75
1, 130845, Note_off_c, 0, 92, 62
1, 130850, Note_off_c, 0, 93, 65
1, 130858, Control_c, 0, 64, 73
1, 130872, Control_c, 0, 64, 71
1, 130880, Note_off_c, 0, 94, 66
1, 130887, Control_c, 0, 64, 69
1, 130902, Control_c, 0, 64, 66
1, 130909, Note_on_c, 0, 93, 89
1, 130917, Control_c, 0, 64, 62
1, 130931, Control_c, 0, 64, 55
1, 130946, Control_c, 0, 64, 43
1, 130953, Note_on_c, 0, 94, 93
1, 130961, Control_c, 0, 64, 37
1, 130964, Note_off_c, 0, 93, 67
1, 130984, Control_c, 0, 64, 33
1, 130999, Control_c, 0, 64, 29
1, 131009, Note_on_c, 0, 97, 80
1, 131013, Control_c, 0, 64, 28
1, 131020, Note_off_c, 0, 94, 65
1, 131040, Note_off_c, 0, 97, 63
1, 131043, Control_c, 0, 64, 34
1, 131058, Control_c, 0, 64, 46
1, 131068, Note_on_c, 0, 93, 79
1, 131073, Control_c, 0, 64, 58
1, 131087, Control_c, 0, 64, 65
1, 131102, Control_c, 0, 64, 72
1, 131110, Note_on_c, 0, 94, 89
1, 131117, Control_c, 0, 64, 84
1, 131119, Note_off_c, 0, 93, 65
1, 131131, Control_c, 0, 64, 127
1, 131158, Note_on_c, 0, 97, 70
1, 131164, Note_off_c, 0, 94, 63
1, 131183, Note_off_c, 0, 97, 67
1, 131227, Note_on_c, 0, 93, 82
1, 131271, Note_on_c, 0, 94, 88
1, 131278, Note_off_c, 0, 93, 66
1, 131319, Note_on_c, 0, 97, 65
1, 131325, Note_off_c, 0, 94, 64
1, 131347, Note_off_c, 0, 97, 67
1, 131380, Note_on_c, 0, 93, 74
1, 131416, Note_on_c, 0, 94, 83
1, 131426, Note_off_c, 0, 93, 61
1, 131459, Note_on_c, 0, 97, 75
1, 131469, Note_off_c, 0, 94, 63
1, 131496, Note_off_c, 0, 97, 63
1, 131528, Note_on_c, 0, 93, 81
1, 131569, Note_on_c, 0, 94, 85
1, 131584, Note_off_c, 0, 93, 65
1, 131614, Note_on_c, 0, 97, 76
1, 131634, Note_off_c, 0, 94, 64
1, 131664, Note_off_c, 0, 97, 64
1, 131681, Note_on_c, 0, 93, 86
1, 131731, Note_on_c, 0, 94, 86
1, 131756, Note_off_c, 0, 93, 66
1, 131777, Note_on_c, 0, 97, 80
1, 131794, Note_off_c, 0, 94, 63
1, 131820, Note_off_c, 0, 97, 63
1, 131835, Note_on_c, 0, 93, 91
1, 131885, Note_on_c, 0, 94, 86
1, 131894, Note_off_c, 0, 93, 65
1, 131927, Note_on_c, 0, 97, 80
1, 131946, Note_off_c, 0, 94, 65
1, 131973, Note_off_c, 0, 97, 65
1, 131982, Note_on_c, 0, 93, 91
1, 132028, Note_on_c, 0, 94, 86
1, 132052, Note_off_c, 0, 93, 66
1, 132064, Note_on_c, 0, 97, 86
1, 132076, Note_off_c, 0, 94, 64
1, 132106, Note_off_c, 0, 97, 65
1, 132124, Note_on_c, 0, 93, 90
1, 132170, Note_on_c, 0, 94, 90
1, 132182, Note_off_c, 0, 93, 66
1, 132206, Note_on_c, 0, 97, 80
1, 132228, Note_off_c, 0, 94, 64
1, 132250, Note_off_c, 0, 97, 65
1, 132266, Note_on_c, 0, 93, 87
1, 132297, Note_on_c, 0, 94, 88
1, 132318, Note_off_c, 0, 93, 64
1, 132341, Note_on_c, 0, 97, 84
1, 132359, Note_off_c, 0, 94, 61
1, 132384, Note_off_c, 0, 97, 64
1, 132389, Note_on_c, 0, 93, 87
1, 132430, Note_on_c, 0, 94, 81
1, 132440, Note_off_c, 0, 93, 67
1, 132476, Note_on_c, 0, 97, 77
1, 132488, Note_off_c, 0, 94, 65
1, 132508, Note_off_c, 0, 97, 62
1, 132532, Note_on_c, 0, 93, 84
1, 132566, Note_on_c, 0, 94, 79
1, 132590, Note_off_c, 0, 93, 65
1, 132600, Note_on_c, 0, 97, 80
1, 132615, Note_off_c, 0, 94, 60
1, 132644, Note_off_c, 0, 97, 64
1, 132645, Note_on_c, 0, 93, 78
1, 132678, Note_on_c, 0, 94, 74
1, 132697, Note_off_c, 0, 93, 66
1, 132734, Note_on_c, 0, 97, 79
1, 132745, Note_off_c, 0, 94, 65
1, 132776, Note_off_c, 0, 97, 62
1, 132794, Note_on_c, 0, 93, 75
1, 132828, Note_on_c, 0, 94, 79
1, 132852, Note_off_c, 0, 93, 64
1, 132872, Note_on_c, 0, 97, 76
1, 132884, Note_off_c, 0, 94, 61
1, 132918, Note_off_c, 0, 97, 65
1, 132926, Note_on_c, 0, 93, 66
1, 132975, Note_off_c, 0, 93, 65
1, 132985, Note_on_c, 0, 94, 68
1, 133017, Note_on_c, 0, 97, 60
1, 133023, Note_off_c, 0, 94, 58
1, 133054, Note_off_c, 0, 97, 64
1, 133075, Note_on_c, 0, 93, 65
1, 133118, Note_off_c, 0, 93, 57
1, 133129, Note_on_c, 0, 94, 62
1, 133177, Note_on_c, 0, 97, 46
1, 133185, Note_off_c, 0, 94, 57
1, 133232, Note_off_c, 0, 97, 59
1, 133236, Note_on_c, 0, 93, 60
1, 133296, Note_off_c, 0, 93, 60
1, 133311, Note_on_c, 0, 94, 59
1, 133363, Note_on_c, 0, 97, 46
1, 133372, Note_off_c, 0, 94, 51
1, 133414, Note_off_c, 0, 97, 58
1, 133425, Note_on_c, 0, 93, 52
1, 133500, Note_off_c, 0, 93, 55
1, 133504, Note_on_c, 0, 94, 48
1, 133593, Note_on_c, 0, 97, 38
1, 133621, Note_off_c, 0, 94, 49
1, 133648, Note_off_c, 0, 97, 50
1, 133672, Note_on_c, 0, 93, 40
1, 133755, Note_off_c, 0, 93, 53
1, 133765, Note_on_c, 0, 94, 42
1, 133870, Note_off_c, 0, 94, 45
1, 133876, Note_on_c, 0, 97, 37
1, 134016, Note_on_c, 0, 93, 34
1, 134033, Note_off_c, 0, 97, 37
1, 134155, Note_on_c, 0, 94, 45
1, 134194, Note_off_c, 0, 93, 42
1, 134267, Note_off_c, 0, 94, 60
1, 134282, Note_on_c, 0, 97, 49
1, 134387, Note_off_c, 0, 97, 57
1, 134390, Note_on_c, 0, 96, 54
1, 134476, Note_off_c, 0, 96, 64
1, 134487, Note_on_c, 0, 95, 58
1, 134544, Note_off_c, 0, 95, 62
1, 134558, Note_on_c, 0, 94, 66
1, 134616, Note_off_c, 0, 94, 57
1, 134646, Note_on_c, 0, 95, 66
1, 134717, Note_off_c, 0, 95, 63
1, 134731, Note_on_c, 0, 94, 65
1, 134765, Note_off_c, 0, 94, 65
1, 134785, Note_on_c, 0, 93, 64
1, 134825, Note_off_c, 0, 93, 58
1, 134846, Note_on_c, 0, 92, 67
1, 134896, Note_off_c, 0, 92, 58
1, 134924, Note_on_c, 0, 93, 65
1, 134976, Note_off_c, 0, 93, 61
1, 134985, Note_on_c, 0, 92, 67
1, 135019, Note_off_c, 0, 92, 66
1, 135039, Note_on_c, 0, 91, 63
1, 135086, Note_off_c, 0, 91, 58
1, 135102, Note_on_c, 0, 90, 61
1, 135158, Note_off_c, 0, 90, 59
1, 135175, Note_on_c, 0, 91, 65
1, 135233, Note_on_c, 0, 90, 52
1, 135262, Note_off_c, 0, 91, 58
1, 135295, Note_off_c, 0, 90, 64
1, 135296, Note_on_c, 0, 89, 62
1, 135342, Note_off_c, 0, 89, 62
1, 135363, Note_on_c, 0, 88, 65
1, 135429, Note_off_c, 0, 88, 58
1, 135438, Note_on_c, 0, 89, 69
1, 135510, Note_on_c, 0, 88, 57
1, 135525, Note_off_c, 0, 89, 59
1, 135575, Note_on_c, 0, 87, 68
1, 135580, Note_off_c, 0, 88, 65
1, 135622, Note_off_c, 0, 87, 61
1, 135647, Note_on_c, 0, 86, 60
1, 135695, Note_off_c, 0, 86, 57
1, 135702, Note_on_c, 0, 87, 57
1, 135779, Note_off_c, 0, 87, 64
1, 135784, Note_on_c, 0, 86, 53
1, 135843, Note_off_c, 0, 86, 59
1, 135852, Note_on_c, 0, 85, 53
1, 135895, Note_off_c, 0, 85, 62
1, 135930, Note_on_c, 0, 84, 53
1, 135984, Note_off_c, 0, 84, 53
1, 136024, Note_on_c, 0, 85, 45
1, 136073, Note_off_c, 0, 85, 49
1, 136103, Note_on_c, 0, 84, 55
1, 136142, Note_off_c, 0, 84, 62
1, 136198, Note_on_c, 0, 83, 43
1, 136246, Note_off_c, 0, 83, 57
1, 136283, Note_on_c, 0, 82, 46
1, 136347, Note_off_c, 0, 82, 58
1, 136359, Control_c, 0, 64, 119
1, 136374, Control_c, 0, 64, 113
1, 136389, Control_c, 0, 64, 108
1, 136391, Note_on_c, 0, 74, 53
1, 136395, Note_on_c, 0, 83, 24
1, 136404, Control_c, 0, 64, 104
1, 136418, Control_c, 0, 64, 101
1, 136433, Control_c, 0, 64, 99
1, 136447, Note_off_c, 0, 83, 46
1, 136448, Control_c, 0, 64, 97
1, 136463, Control_c, 0, 64, 93
1, 136465, Note_on_c, 0, 84, 45
1, 136478, Control_c, 0, 64, 88
1, 136492, Control_c, 0, 64, 81
1, 136507, Control_c, 0, 64, 71
1, 136522, Control_c, 0, 64, 65
1, 136537, Control_c, 0, 64, 62
1, 136541, Note_off_c, 0, 84, 38
1, 136548, Note_on_c, 0, 85, 45
1, 136550, Control_c, 0, 64, 63
1, 136565, Control_c, 0, 64, 64
1, 136577, Note_off_c, 0, 85, 60
1, 136580, Control_c, 0, 64, 65
1, 136595, Control_c, 0, 64, 68
1, 136610, Control_c, 0, 64, 71
1, 136617, Note_on_c, 0, 86, 55
1, 136624, Control_c, 0, 64, 76
1, 136639, Control_c, 0, 64, 85
1, 136644, Note_on_c, 0, 80, 28
1, 136654, Control_c, 0, 64, 99
1, 136659, Note_off_c, 0, 86, 61
1, 136669, Control_c, 0, 64, 127
1, 136686, Note_on_c, 0, 87, 54
1, 136735, Note_off_c, 0, 87, 57
1, 136739, Note_on_c, 0, 88, 55
1, 136789, Note_off_c, 0, 88, 62
1, 136802, Note_on_c, 0, 91, 64
1, 136805, Note_on_c, 0, 77, 34
1, 136859, Note_on_c, 0, 89, 67
1, 136874, Note_off_c, 0, 91, 59
1, 136920, Note_on_c, 0, 88, 57
1, 136940, Note_off_c, 0, 89, 60
1, 136988, Note_off_c, 0, 88, 63
1, 136992, Note_on_c, 0, 87, 66
1, 136994, Note_off_c, 0, 80, 43
1, 136994, Note_on_c, 0, 72, 48
1, 137002, Control_c, 0, 64, 110
1, 137016, Control_c, 0, 64, 96
1, 137028, Note_off_c, 0, 87, 64
1, 137031, Control_c, 0, 64, 85
1, 137045, Note_off_c, 0, 77, 36
1, 137046, Control_c, 0, 64, 75
1, 137051, Note_on_c, 0, 86, 56
1, 137062, Control_c, 0, 64, 69
1, 137075, Note_off_c, 0, 74, 31
1, 137077, Control_c, 0, 64, 66
1, 137092, Control_c, 0, 64, 67
1, 137096, Note_off_c, 0, 86, 60
1, 137107, Control_c, 0, 64, 69
1, 137120, Note_on_c, 0, 85, 56
1, 137121, Control_c, 0, 64, 72
1, 137136, Control_c, 0, 64, 77
1, 137151, Control_c, 0, 64, 87
1, 137166, Control_c, 0, 64, 108
1, 137169, Note_off_c, 0, 85, 60
1, 137177, Note_on_c, 0, 84, 58
1, 137179, Note_on_c, 0, 81, 38
1, 137181, Control_c, 0, 64, 127
1, 137202, Note_off_c, 0, 84, 61
1, 137235, Note_on_c, 0, 83, 60
1, 137270, Note_off_c, 0, 83, 62
1, 137297, Note_on_c, 0, 82, 59
1, 137320, Note_off_c, 0, 81, 0
1, 137322, Note_on_c, 0, 76, 37
1, 137324, Note_off_c, 0, 82, 66
1, 137339, Note_on_c, 0, 81, 32
1, 137394, Note_off_c, 0, 81, 64
1, 137422, Note_on_c, 0, 80, 55
1, 137432, Control_c, 0, 64, 96
1, 137435, Note_on_c, 0, 71, 57
1, 137447, Control_c, 0, 64, 80
1, 137453, Note_off_c, 0, 76, 44
1, 137462, Control_c, 0, 64, 68
1, 137462, Note_off_c, 0, 80, 65
1, 137475, Note_off_c, 0, 72, 37
1, 137477, Control_c, 0, 64, 62
1, 137492, Control_c, 0, 64, 63
1, 137504, Note_on_c, 0, 81, 49
1, 137507, Control_c, 0, 64, 65
1, 137521, Control_c, 0, 64, 68
1, 137534, Note_off_c, 0, 81, 65
1, 137536, Control_c, 0, 64, 72
1, 137551, Control_c, 0, 64, 77
1, 137565, Control_c, 0, 64, 86
1, 137577, Note_on_c, 0, 82, 41
1, 137580, Control_c, 0, 64, 103
1, 137595, Control_c, 0, 64, 127
1, 137605, Note_on_c, 0, 76, 45
1, 137605, Note_off_c, 0, 82, 55
1, 137621, Note_on_c, 0, 83, 59
1, 137638, Note_off_c, 0, 71, 55
1, 137660, Note_on_c, 0, 84, 54
1, 137730, Note_off_c, 0, 83, 36
1, 137740, Note_on_c, 0, 85, 60
1, 137755, Note_on_c, 0, 74, 34
1, 137758, Note_off_c, 0, 84, 28
1, 137785, Note_on_c, 0, 88, 64
1, 137787, Note_off_c, 0, 85, 60
1, 137845, Note_on_c, 0, 86, 63
1, 137880, Note_off_c, 0, 88, 59
1, 137892, Note_on_c, 0, 69, 44
1, 137896, Note_off_c, 0, 76, 40
1, 137912, Note_on_c, 0, 85, 60
1, 137944, Control_c, 0, 64, 110
1, 137959, Control_c, 0, 64, 93
1, 137960, Note_off_c, 0, 86, 58
1, 137971, Note_off_c, 0, 74, 42
1, 137974, Control_c, 0, 64, 79
1, 137982, Note_on_c, 0, 84, 61
1, 137988, Control_c, 0, 64, 70
1, 137992, Note_off_c, 0, 85, 58
1, 138003, Control_c, 0, 64, 65
1, 138017, Note_off_c, 0, 84, 65
1, 138018, Control_c, 0, 64, 66
1, 138033, Control_c, 0, 64, 68
1, 138043, Note_on_c, 0, 83, 59
1, 138048, Control_c, 0, 64, 71
1, 138055, Note_on_c, 0, 76, 36
1, 138062, Control_c, 0, 64, 75
1, 138077, Control_c, 0, 64, 82
1, 138092, Control_c, 0, 64, 98
1, 138094, Note_off_c, 0, 83, 58
1, 138107, Control_c, 0, 64, 127
1, 138114, Note_on_c, 0, 82, 60
1, 138162, Note_off_c, 0, 82, 60
1, 138192, Note_on_c, 0, 81, 44
1, 138209, Note_on_c, 0, 72, 33
1, 138223, Note_off_c, 0, 81, 61
1, 138245, Note_off_c, 0, 76, 40
1, 138248, Note_on_c, 0, 80, 48
1, 138322, Note_off_c, 0, 80, 58
1, 138344, Control_c, 0, 64, 115
1, 138356, Note_on_c, 0, 79, 40
1, 138359, Control_c, 0, 64, 107
1, 138372, Note_on_c, 0, 70, 45
1, 138374, Control_c, 0, 64, 101
1, 138388, Control_c, 0, 64, 97
1, 138402, Note_off_c, 0, 79, 58
1, 138403, Control_c, 0, 64, 91
1, 138404, Note_off_c, 0, 69, 38
1, 138418, Control_c, 0, 64, 83
1, 138433, Control_c, 0, 64, 74
1, 138448, Control_c, 0, 64, 66
1, 138459, Note_on_c, 0, 80, 42
1, 138463, Note_off_c, 0, 72, 43
1, 138470, Control_c, 0, 64, 60
1, 138485, Control_c, 0, 64, 59
1, 138500, Control_c, 0, 64, 61
1, 138503, Note_off_c, 0, 80, 65
1, 138514, Control_c, 0, 64, 62
1, 138529, Control_c, 0, 64, 64
1, 138544, Control_c, 0, 64, 65
1, 138550, Note_on_c, 0, 81, 35
1, 138559, Control_c, 0, 64, 67
1, 138574, Control_c, 0, 64, 70
1, 138577, Note_on_c, 0, 76, 32
1, 138579, Note_off_c, 0, 81, 55
1, 138588, Control_c, 0, 64, 74
1, 138603, Control_c, 0, 64, 79
1, 138613, Note_on_c, 0, 82, 55
1, 138618, Control_c, 0, 64, 87
1, 138633, Control_c, 0, 64, 98
1, 138635, Note_off_c, 0, 82, 65
1, 138648, Control_c, 0, 64, 110
1, 138663, Control_c, 0, 64, 115
1, 138678, Note_on_c, 0, 83, 54
1, 138693, Control_c, 0, 64, 114
1, 138709, Note_off_c, 0, 83, 60
1, 138731, Note_on_c, 0, 84, 54
1, 138738, Control_c, 0, 64, 112
1, 138753, Note_on_c, 0, 73, 27
1, 138753, Control_c, 0, 64, 111
1, 138767, Control_c, 0, 64, 109
1, 138774, Note_off_c, 0, 84, 61
1, 138774, Note_on_c, 0, 87, 54
1, 138782, Control_c, 0, 64, 107
1, 138797, Control_c, 0, 64, 105
1, 138811, Control_c, 0, 64, 104
1, 138822, Note_off_c, 0, 76, 32
1, 138826, Control_c, 0, 64, 103
1, 138827, Note_on_c, 0, 85, 58
1, 138839, Note_off_c, 0, 87, 49
1, 138841, Control_c, 0, 64, 102
1, 138856, Control_c, 0, 64, 100
1, 138871, Control_c, 0, 64, 99
1, 138883, Note_on_c, 0, 68, 42
1, 138885, Control_c, 0, 64, 99
1, 138894, Note_on_c, 0, 84, 57
1, 138900, Control_c, 0, 64, 97
1, 138902, Note_off_c, 0, 85, 55
1, 138915, Control_c, 0, 64, 95
1, 138929, Note_off_c, 0, 84, 63
1, 138930, Control_c, 0, 64, 88
1, 138945, Control_c, 0, 64, 80
1, 138959, Control_c, 0, 64, 72
1, 138963, Note_on_c, 0, 83, 53
1, 138974, Control_c, 0, 64, 66
1, 138989, Control_c, 0, 64, 64
1, 138990, Note_off_c, 0, 73, 40
1, 138997, Note_off_c, 0, 83, 61
1, 139003, Control_c, 0, 64, 66
1, 139016, Note_on_c, 0, 82, 56
1, 139018, Control_c, 0, 64, 68
1, 139033, Control_c, 0, 64, 71
1, 139046, Note_off_c, 0, 82, 67
1, 139048, Control_c, 0, 64, 77
1, 139063, Control_c, 0, 64, 84
1, 139072, Note_on_c, 0, 77, 41
1, 139072, Note_off_c, 0, 70, 31
1, 139078, Control_c, 0, 64, 95
1, 139079, Note_on_c, 0, 81, 56
1, 139093, Control_c, 0, 64, 111
1, 139108, Control_c, 0, 64, 127
1, 139114, Note_off_c, 0, 81, 66
1, 139130, Note_on_c, 0, 80, 62
1, 139137, Note_off_c, 0, 68, 32
1, 139155, Note_off_c, 0, 77, 50
1, 139158, Note_off_c, 0, 80, 64
1, 139168, Note_on_c, 0, 72, 42
1, 139201, Note_on_c, 0, 79, 57
1, 139245, Note_off_c, 0, 79, 63
1, 139248, Control_c, 0, 64, 118
1, 139257, Note_on_c, 0, 78, 55
1, 139263, Control_c, 0, 64, 114
1, 139278, Control_c, 0, 64, 112
1, 139292, Control_c, 0, 64, 111
1, 139295, Note_off_c, 0, 78, 53
1, 139307, Control_c, 0, 64, 109
1, 139310, Note_on_c, 0, 77, 60
1, 139320, Note_on_c, 0, 67, 40
1, 139322, Control_c, 0, 64, 105
1, 139331, Note_off_c, 0, 72, 44
1, 139337, Control_c, 0, 64, 95
1, 139352, Note_off_c, 0, 77, 61
1, 139352, Control_c, 0, 64, 83
1, 139367, Control_c, 0, 64, 72
1, 139382, Control_c, 0, 64, 65
1, 139391, Note_on_c, 0, 76, 51
1, 139397, Control_c, 0, 64, 64
1, 139411, Control_c, 0, 64, 66
1, 139426, Note_off_c, 0, 76, 65
1, 139426, Control_c, 0, 64, 69
1, 139441, Control_c, 0, 64, 73
1, 139447, Note_on_c, 0, 77, 47
1, 139456, Control_c, 0, 64, 79
1, 139471, Control_c, 0, 64, 87
1, 139476, Note_off_c, 0, 77, 56
1, 139486, Control_c, 0, 64, 102
1, 139495, Note_on_c, 0, 78, 44
1, 139496, Note_off_c, 0, 67, 59
1, 139501, Control_c, 0, 64, 127
1, 139507, Note_on_c, 0, 72, 43
1, 139522, Note_off_c, 0, 78, 54
1, 139556, Note_on_c, 0, 79, 52
1, 139579, Note_off_c, 0, 79, 61
1, 139616, Note_on_c, 0, 70, 32
1, 139616, Note_on_c, 0, 80, 53
1, 139662, Note_off_c, 0, 80, 61
1, 139678, Note_on_c, 0, 81, 58
1, 139718, Note_off_c, 0, 81, 57
1, 139726, Note_off_c, 0, 72, 39
1, 139736, Note_on_c, 0, 84, 52
1, 139738, Control_c, 0, 64, 121
1, 139753, Control_c, 0, 64, 116
1, 139760, Note_on_c, 0, 65, 40
1, 139768, Control_c, 0, 64, 113
1, 139782, Control_c, 0, 64, 112
1, 139789, Note_off_c, 0, 84, 55
1, 139795, Note_on_c, 0, 82, 58
1, 139797, Control_c, 0, 64, 111
1, 139812, Control_c, 0, 64, 111
1, 139826, Control_c, 0, 64, 110
1, 139841, Control_c, 0, 64, 108
1, 139856, Control_c, 0, 64, 104
1, 139859, Note_off_c, 0, 82, 63
1, 139868, Note_off_c, 0, 70, 39
1, 139871, Control_c, 0, 64, 98
1, 139881, Note_on_c, 0, 81, 51
1, 139886, Control_c, 0, 64, 89
1, 139901, Control_c, 0, 64, 79
1, 139915, Control_c, 0, 64, 69
1, 139925, Note_off_c, 0, 81, 60
1, 139930, Control_c, 0, 64, 63
1, 139945, Control_c, 0, 64, 63
1, 139965, Note_on_c, 0, 80, 50
1, 139968, Control_c, 0, 64, 65
1, 139973, Note_on_c, 0, 72, 32
1, 139983, Control_c, 0, 64, 67
1, 139993, Note_off_c, 0, 80, 61
1, 139997, Control_c, 0, 64, 70
1, 140012, Control_c, 0, 64, 73
1, 140027, Control_c, 0, 64, 79
1, 140037, Note_on_c, 0, 79, 46
1, 140041, Control_c, 0, 64, 87
1, 140056, Control_c, 0, 64, 97
1, 140071, Control_c, 0, 64, 107
1, 140077, Note_off_c, 0, 79, 58
1, 140086, Control_c, 0, 64, 111
1, 140112, Note_on_c, 0, 78, 32
1, 140115, Control_c, 0, 64, 110
1, 140121, Note_on_c, 0, 68, 33
1, 140144, Note_off_c, 0, 78, 54
1, 140145, Control_c, 0, 64, 110
1, 140160, Control_c, 0, 64, 109
1, 140163, Note_on_c, 0, 77, 52
1, 140175, Control_c, 0, 64, 108
1, 140190, Control_c, 0, 64, 107
1, 140194, Note_off_c, 0, 77, 62
1, 140205, Control_c, 0, 64, 105
1, 140217, Note_off_c, 0, 72, 37
1, 140220, Control_c, 0, 64, 104
1, 140234, Control_c, 0, 64, 103
1, 140249, Control_c, 0, 64, 102
1, 140251, Note_on_c, 0, 76, 38
1, 140264, Control_c, 0, 64, 101
1, 140279, Control_c, 0, 64, 99
1, 140285, Note_off_c, 0, 76, 52
1, 140294, Control_c, 0, 64, 98
1, 140309, Control_c, 0, 64, 97
1, 140311, Note_on_c, 0, 66, 49
1, 140319, Note_off_c, 0, 65, 32
1, 140324, Control_c, 0, 64, 96
1, 140339, Control_c, 0, 64, 95
1, 140339, Note_on_c, 0, 75, 39
1, 140354, Control_c, 0, 64, 94
1, 140369, Control_c, 0, 64, 92
1, 140375, Note_off_c, 0, 75, 50
1, 140383, Control_c, 0, 64, 90
1, 140398, Control_c, 0, 64, 86
1, 140401, Note_on_c, 0, 76, 43
1, 140413, Control_c, 0, 64, 80
1, 140428, Control_c, 0, 64, 72
1, 140443, Control_c, 0, 64, 65
1, 140445, Note_off_c, 0, 68, 35
1, 140457, Control_c, 0, 64, 61
1, 140458, Note_off_c, 0, 76, 60
1, 140487, Control_c, 0, 64, 62
1, 140502, Control_c, 0, 64, 63
1, 140506, Note_on_c, 0, 77, 30
1, 140517, Control_c, 0, 64, 65
1, 140530, Note_on_c, 0, 72, 29
1, 140531, Control_c, 0, 64, 67
1, 140541, Note_off_c, 0, 77, 52
1, 140546, Control_c, 0, 64, 70
1, 140561, Control_c, 0, 64, 73
1, 140576, Control_c, 0, 64, 78
1, 140590, Control_c, 0, 64, 85
1, 140604, Note_on_c, 0, 79, 56
1, 140605, Control_c, 0, 64, 96
1, 140620, Control_c, 0, 64, 105
1, 140635, Control_c, 0, 64, 112
1, 140647, Note_off_c, 0, 79, 61
1, 140662, Note_on_c, 0, 80, 59
1, 140691, Note_on_c, 0, 69, 34
1, 140711, Note_off_c, 0, 80, 62
1, 140729, Note_on_c, 0, 83, 55
1, 140731, Control_c, 0, 64, 111
1, 140733, Note_off_c, 0, 72, 41
1, 140746, Control_c, 0, 64, 111
1, 140761, Control_c, 0, 64, 110
1, 140776, Control_c, 0, 64, 109
1, 140786, Note_off_c, 0, 83, 53
1, 140790, Control_c, 0, 64, 108
1, 140796, Note_on_c, 0, 81, 48
1, 140805, Control_c, 0, 64, 106
1, 140820, Control_c, 0, 64, 105
1, 140828, Note_off_c, 0, 81, 58
1, 140835, Control_c, 0, 64, 103
1, 140844, Note_on_c, 0, 80, 41
1, 140850, Control_c, 0, 64, 102
1, 140864, Control_c, 0, 64, 101
1, 140869, Note_on_c, 0, 64, 39
1, 140870, Note_off_c, 0, 80, 56
1, 140879, Control_c, 0, 64, 101
1, 140894, Control_c, 0, 64, 100
1, 140896, Note_on_c, 0, 79, 54
1, 140909, Control_c, 0, 64, 99
1, 140924, Control_c, 0, 64, 99
1, 140938, Note_off_c, 0, 69, 42
1, 140938, Control_c, 0, 64, 98
1, 140939, Note_off_c, 0, 79, 58
1, 140953, Control_c, 0, 64, 96
1, 140963, Note_on_c, 0, 78, 59
1, 140968, Control_c, 0, 64, 91
1, 140983, Control_c, 0, 64, 82
1, 140998, Control_c, 0, 64, 72
1, 141006, Note_off_c, 0, 78, 62
1, 141012, Control_c, 0, 64, 65
1, 141027, Control_c, 0, 64, 63
1, 141034, Note_on_c, 0, 77, 27
1, 141036, Note_off_c, 0, 66, 37
1, 141042, Control_c, 0, 64, 65
1, 141058, Control_c, 0, 64, 67
1, 141071, Note_on_c, 0, 73, 35
1, 141071, Note_off_c, 0, 77, 43
1, 141073, Control_c, 0, 64, 70
1, 141081, Note_on_c, 0, 76, 51
1, 141087, Control_c, 0, 64, 74
1, 141102, Control_c, 0, 64, 80
1, 141117, Control_c, 0, 64, 88
1, 141118, Note_off_c, 0, 76, 64
1, 141125, Note_off_c, 0, 64, 56
1, 141132, Control_c, 0, 64, 96
1, 141147, Control_c, 0, 64, 102
1, 141149, Note_on_c, 0, 75, 51
1, 141161, Control_c, 0, 64, 103
1, 141176, Control_c, 0, 64, 103
1, 141179, Note_off_c, 0, 75, 54
1, 141191, Control_c, 0, 64, 102
1, 141196, Note_on_c, 0, 68, 40
1, 141206, Note_on_c, 0, 74, 48
1, 141206, Control_c, 0, 64, 102
1, 141206, Note_off_c, 0, 73, 36
1, 141236, Note_off_c, 0, 74, 57
1, 141236, Control_c, 0, 64, 101
1, 141251, Control_c, 0, 64, 100
1, 141266, Control_c, 0, 64, 99
1, 141271, Note_on_c, 0, 73, 41
1, 141280, Control_c, 0, 64, 98
1, 141295, Control_c, 0, 64, 98
1, 141310, Control_c, 0, 64, 97
1, 141311, Note_off_c, 0, 73, 53
1, 141325, Control_c, 0, 64, 97
1, 141340, Control_c, 0, 64, 96
1, 141347, Note_on_c, 0, 72, 47
1, 141353, Note_on_c, 0, 63, 44
1, 141354, Control_c, 0, 64, 92
1, 141369, Control_c, 0, 64, 84
1, 141370, Note_off_c, 0, 68, 38
1, 141380, Note_off_c, 0, 72, 54
1, 141384, Control_c, 0, 64, 74
1, 141399, Control_c, 0, 64, 66
1, 141413, Control_c, 0, 64, 64
1, 141421, Note_on_c, 0, 73, 42
1, 141428, Control_c, 0, 64, 65
1, 141443, Control_c, 0, 64, 67
1, 141466, Control_c, 0, 64, 70
1, 141467, Note_off_c, 0, 73, 63
1, 141480, Control_c, 0, 64, 73
1, 141495, Control_c, 0, 64, 79
1, 141510, Note_on_c, 0, 74, 48
1, 141510, Control_c, 0, 64, 87
1, 141525, Control_c, 0, 64, 98
1, 141527, Note_on_c, 0, 68, 32
1, 141536, Note_off_c, 0, 74, 56
1, 141540, Control_c, 0, 64, 115
1, 141555, Control_c, 0, 64, 127
1, 141585, Note_on_c, 0, 75, 41
1, 141611, Note_off_c, 0, 75, 53
1, 141641, Note_on_c, 0, 76, 43
1, 141668, Note_off_c, 0, 76, 55
1, 141673, Control_c, 0, 64, 119
1, 141676, Note_on_c, 0, 66, 38
1, 141684, Note_on_c, 0, 77, 54
1, 141687, Control_c, 0, 64, 117
1, 141702, Control_c, 0, 64, 115
1, 141717, Control_c, 0, 64, 112
1, 141727, Note_off_c, 0, 77, 61
1, 141732, Control_c, 0, 64, 112
1, 141735, Note_on_c, 0, 80, 55
1, 141747, Control_c, 0, 64, 111
1, 141761, Control_c, 0, 64, 110
1, 141776, Control_c, 0, 64, 109
1, 141791, Control_c, 0, 64, 107
1, 141794, Note_on_c, 0, 78, 56
1, 141805, Note_off_c, 0, 68, 33
1, 141805, Control_c, 0, 64, 105
1, 141815, Note_on_c, 0, 61, 41
1, 141820, Note_off_c, 0, 80, 52
1, 141820, Control_c, 0, 64, 102
1, 141835, Control_c, 0, 64, 97
1, 141850, Control_c, 0, 64, 89
1, 141862, Note_on_c, 0, 77, 52
1, 141866, Control_c, 0, 64, 79
1, 141871, Note_off_c, 0, 78, 57
1, 141881, Control_c, 0, 64, 71
1, 141895, Note_off_c, 0, 63, 37
1, 141896, Control_c, 0, 64, 66
1, 141901, Note_off_c, 0, 77, 64
1, 141910, Control_c, 0, 64, 67
1, 141925, Control_c, 0, 64, 69
1, 141934, Note_on_c, 0, 76, 50
1, 141940, Control_c, 0, 64, 71
1, 141955, Control_c, 0, 64, 75
1, 141959, Note_off_c, 0, 66, 31
1, 141970, Control_c, 0, 64, 81
1, 141975, Note_off_c, 0, 76, 63
1, 141976, Note_on_c, 0, 68, 37
1, 141984, Control_c, 0, 64, 88
1, 141996, Note_on_c, 0, 75, 51
1, 141999, Control_c, 0, 64, 96
1, 142014, Control_c, 0, 64, 101
1, 142021, Note_off_c, 0, 75, 58
1, 142029, Control_c, 0, 64, 102
1, 142036, Note_off_c, 0, 61, 37
1, 142044, Control_c, 0, 64, 102
1, 142059, Control_c, 0, 64, 101
1, 142062, Note_on_c, 0, 74, 49
1, 142074, Control_c, 0, 64, 101
1, 142089, Control_c, 0, 64, 100
1, 142100, Note_off_c, 0, 74, 56
1, 142118, Control_c, 0, 64, 99
1, 142120, Note_on_c, 0, 64, 39
1, 142130, Note_on_c, 0, 73, 45
1, 142133, Control_c, 0, 64, 99
1, 142144, Note_off_c, 0, 68, 42
1, 142148, Control_c, 0, 64, 98
1, 142163, Control_c, 0, 64, 98
1, 142165, Note_off_c, 0, 73, 52
1, 142177, Control_c, 0, 64, 97
1, 142192, Control_c, 0, 64, 96
1, 142194, Note_on_c, 0, 72, 54
1, 142214, Control_c, 0, 64, 96
1, 142229, Control_c, 0, 64, 95
1, 142242, Note_off_c, 0, 72, 62
1, 142244, Control_c, 0, 64, 94
1, 142258, Control_c, 0, 64, 92
1, 142270, Note_on_c, 0, 61, 41
1, 142273, Control_c, 0, 64, 86
1, 142288, Control_c, 0, 64, 75
1, 142290, Note_on_c, 0, 71, 44
1, 142303, Control_c, 0, 64, 68
1, 142318, Control_c, 0, 64, 63
1, 142318, Note_off_c, 0, 64, 40
1, 142319, Note_off_c, 0, 71, 58
1, 142333, Control_c, 0, 64, 64
1, 142348, Control_c, 0, 64, 65
1, 142354, Note_on_c, 0, 72, 33
1, 142363, Control_c, 0, 64, 67
1, 142378, Control_c, 0, 64, 71
1, 142386, Note_off_c, 0, 72, 55
1, 142392, Control_c, 0, 64, 75
1, 142402, Note_on_c, 0, 73, 49
1, 142402, Note_on_c, 0, 68, 33
1, 142407, Control_c, 0, 64, 81
1, 142422, Control_c, 0, 64, 90
1, 142428, Note_off_c, 0, 73, 58
1, 142436, Control_c, 0, 64, 101
1, 142451, Control_c, 0, 64, 121
1, 142466, Control_c, 0, 64, 127
1, 142474, Note_on_c, 0, 74, 53
1, 142478, Note_off_c, 0, 61, 37
1, 142504, Note_off_c, 0, 74, 63
1, 142531, Note_on_c, 0, 64, 40
1, 142543, Note_on_c, 0, 75, 55
1, 142552, Note_off_c, 0, 68, 35
1, 142584, Note_off_c, 0, 75, 58
1, 142625, Note_on_c, 0, 76, 52
1, 142644, Control_c, 0, 64, 123
1, 142658, Note_on_c, 0, 59, 57
1, 142660, Note_off_c, 0, 76, 61
1, 142660, Control_c, 0, 64, 115
1, 142674, Note_on_c, 0, 61, 47
1, 142675, Control_c, 0, 64, 108
1, 142690, Control_c, 0, 64, 95
1, 142693, Note_on_c, 0, 77, 45
1, 142699, Note_off_c, 0, 64, 36
1, 142705, Control_c, 0, 64, 81
1, 142720, Control_c, 0, 64, 69
1, 142723, Note_off_c, 0, 77, 55
1, 142734, Control_c, 0, 64, 62
1, 142749, Control_c, 0, 64, 63
1, 142750, Note_on_c, 0, 78, 51
1, 142764, Control_c, 0, 64, 65
1, 142779, Control_c, 0, 64, 68
1, 142783, Note_off_c, 0, 78, 64
1, 142794, Control_c, 0, 64, 71
1, 142803, Note_off_c, 0, 61, 52
1, 142808, Control_c, 0, 64, 77
1, 142823, Control_c, 0, 64, 88
1, 142831, Note_on_c, 0, 79, 54
1, 142838, Note_on_c, 0, 68, 46
1, 142838, Control_c, 0, 64, 112
1, 142852, Control_c, 0, 64, 127
1, 142866, Note_off_c, 0, 79, 64
1, 142908, Note_on_c, 0, 80, 49
1, 142934, Note_off_c, 0, 80, 59
1, 142963, Note_off_c, 0, 68, 37
1, 142980, Note_on_c, 0, 81, 56
1, 142983, Note_on_c, 0, 64, 35
1, 143017, Note_off_c, 0, 81, 60
1, 143055, Note_on_c, 0, 82, 51
1, 143056, Note_off_c, 0, 64, 52
1, 143080, Note_off_c, 0, 82, 62
1, 143098, Note_on_c, 0, 61, 39
1, 143123, Note_on_c, 0, 83, 53
1, 143162, Note_off_c, 0, 83, 62
1, 143178, Note_on_c, 0, 84, 58
1, 143215, Note_off_c, 0, 84, 63
1, 143244, Note_on_c, 0, 85, 55
1, 143249, Note_on_c, 0, 68, 45
1, 143263, Note_off_c, 0, 61, 32
1, 143283, Note_off_c, 0, 85, 62
1, 143311, Note_on_c, 0, 84, 53
1, 143316, Note_off_c, 0, 59, 42
1, 143343, Note_off_c, 0, 84, 59
1, 143358, Note_on_c, 0, 87, 60
1, 143364, Note_off_c, 0, 68, 46
1, 143373, Note_on_c, 0, 64, 40
1, 143440, Note_off_c, 0, 87, 59
1, 143447, Note_on_c, 0, 85, 44
1, 143453, Control_c, 0, 64, 113
1, 143468, Control_c, 0, 64, 102
1, 143482, Control_c, 0, 64, 91
1, 143486, Note_off_c, 0, 85, 48
1, 143496, Note_on_c, 0, 83, 48
1, 143497, Note_on_c, 0, 58, 47
1, 143497, Control_c, 0, 64, 79
1, 143510, Note_on_c, 0, 61, 37
1, 143512, Control_c, 0, 64, 71
1, 143525, Note_off_c, 0, 64, 32
1, 143527, Control_c, 0, 64, 66
1, 143542, Control_c, 0, 64, 65
1, 143546, Note_off_c, 0, 83, 61
1, 143556, Control_c, 0, 64, 67
1, 143563, Note_on_c, 0, 84, 56
1, 143571, Control_c, 0, 64, 69
1, 143586, Control_c, 0, 64, 73
1, 143601, Control_c, 0, 64, 78
1, 143608, Note_off_c, 0, 84, 57
1, 143616, Control_c, 0, 64, 85
1, 143630, Control_c, 0, 64, 94
1, 143636, Note_on_c, 0, 85, 49
1, 143640, Note_on_c, 0, 68, 45
1, 143645, Control_c, 0, 64, 107
1, 143659, Note_off_c, 0, 85, 60
1, 143660, Control_c, 0, 64, 127
1, 143707, Note_off_c, 0, 61, 33
1, 143710, Note_on_c, 0, 86, 58
1, 143716, Note_off_c, 0, 58, 50
1, 143747, Note_off_c, 0, 86, 63
1, 143762, Note_on_c, 0, 64, 43
1, 143776, Note_on_c, 0, 87, 60
1, 143776, Note_off_c, 0, 68, 37
1, 143817, Note_off_c, 0, 87, 63
1, 143845, Note_on_c, 0, 88, 62
1, 143860, Control_c, 0, 64, 114
1, 143875, Control_c, 0, 64, 102
1, 143876, Note_on_c, 0, 57, 52
1, 143876, Note_on_c, 0, 61, 47
1, 143889, Control_c, 0, 64, 91
1, 143904, Control_c, 0, 64, 81
1, 143905, Note_off_c, 0, 88, 60
1, 143912, Note_off_c, 0, 64, 38
1, 143917, Note_on_c, 0, 89, 69
1, 143919, Control_c, 0, 64, 72
1, 143934, Control_c, 0, 64, 67
1, 143949, Control_c, 0, 64, 68
1, 143964, Control_c, 0, 64, 72
1, 143973, Note_off_c, 0, 89, 62
1, 143974, Note_on_c, 0, 90, 64
1, 143978, Control_c, 0, 64, 78
1, 143993, Control_c, 0, 64, 84
1, 144002, Note_off_c, 0, 61, 52
1, 144002, Note_off_c, 0, 90, 67
1, 144008, Control_c, 0, 64, 91
1, 144023, Control_c, 0, 64, 99
1, 144035, Note_on_c, 0, 68, 50
1, 144038, Control_c, 0, 64, 118
1, 144043, Note_on_c, 0, 91, 75
1, 144053, Control_c, 0, 64, 127
1, 144100, Note_off_c, 0, 91, 62
1, 144114, Note_on_c, 0, 92, 73
1, 144133, Note_off_c, 0, 57, 58
1, 144160, Note_on_c, 0, 64, 49
1, 144173, Note_off_c, 0, 92, 64
1, 144183, Note_on_c, 0, 93, 76
1, 144198, Note_off_c, 0, 68, 29
1, 144247, Note_off_c, 0, 93, 64
1, 144255, Note_on_c, 0, 94, 79
1, 144323, Note_off_c, 0, 64, 50
1, 144328, Note_off_c, 0, 94, 64
1, 144331, Note_on_c, 0, 56, 48
1, 144332, Note_on_c, 0, 61, 45
1, 144338, Note_on_c, 0, 95, 77
1, 144365, Control_c, 0, 64, 98
1, 144379, Control_c, 0, 64, 81
1, 144394, Control_c, 0, 64, 69
1, 144409, Note_on_c, 0, 96, 78
1, 144409, Control_c, 0, 64, 63
1, 144423, Control_c, 0, 64, 63
1, 144429, Note_off_c, 0, 95, 59
1, 144438, Control_c, 0, 64, 65
1, 144461, Control_c, 0, 64, 67
1, 144476, Control_c, 0, 64, 71
1, 144491, Control_c, 0, 64, 76
1, 144505, Control_c, 0, 64, 84
1, 144511, Note_on_c, 0, 97, 78
1, 144515, Note_off_c, 0, 96, 63
1, 144520, Control_c, 0, 64, 100
1, 144524, Note_on_c, 0, 68, 43
1, 144535, Control_c, 0, 64, 127
1, 144601, Note_on_c, 0, 96, 80
1, 144613, Note_off_c, 0, 97, 63
1, 144619, Note_off_c, 0, 61, 37
1, 144673, Note_on_c, 0, 64, 39
1, 144696, Note_on_c, 0, 99, 81
1, 144701, Note_off_c, 0, 96, 64
1, 144781, Note_off_c, 0, 56, 42
1, 144783, Note_off_c, 0, 68, 36
1, 144793, Note_on_c, 0, 97, 75
1, 144843, Note_off_c, 0, 99, 63
1, 144881, Note_on_c, 0, 61, 46
1, 144886, Note_on_c, 0, 55, 58
1, 144902, Note_on_c, 0, 95, 78
1, 144906, Note_off_c, 0, 64, 29
1, 144914, Note_off_c, 0, 97, 61
1, 144920, Control_c, 0, 64, 114
1, 144935, Control_c, 0, 64, 103
1, 144950, Control_c, 0, 64, 88
1, 144965, Control_c, 0, 64, 74
1, 144979, Control_c, 0, 64, 61
1, 144994, Control_c, 0, 64, 51
1, 145009, Note_on_c, 0, 96, 72
1, 145009, Control_c, 0, 64, 55
1, 145023, Control_c, 0, 64, 59
1, 145033, Note_off_c, 0, 95, 58
1, 145038, Control_c, 0, 64, 62
1, 145054, Control_c, 0, 64, 64
1, 145069, Control_c, 0, 64, 68
1, 145084, Control_c, 0, 64, 74
1, 145099, Control_c, 0, 64, 86
1, 145114, Control_c, 0, 64, 115
1, 145128, Control_c, 0, 64, 127
1, 145137, Note_on_c, 0, 97, 73
1, 145141, Note_on_c, 0, 69, 42
1, 145165, Note_off_c, 0, 96, 61
1, 145284, Note_off_c, 0, 55, 34
1, 145293, Note_on_c, 0, 96, 76
1, 145326, Note_off_c, 0, 97, 62
1, 145379, Note_off_c, 0, 61, 35
1, 145442, Note_on_c, 0, 64, 33
1, 145470, Note_on_c, 0, 99, 66
1, 145525, Note_off_c, 0, 96, 60
1, 145576, Note_off_c, 0, 69, 42
1, 145681, Note_on_c, 0, 97, 60
1, 145713, Control_c, 0, 67, 9
1, 145718, Note_off_c, 0, 99, 60
1, 145728, Control_c, 0, 67, 11
1, 145735, Note_off_c, 0, 64, 41
1, 145758, Control_c, 0, 67, 11
1, 145788, Control_c, 0, 67, 12
1, 145832, Control_c, 0, 64, 116
1, 145847, Control_c, 0, 64, 111
1, 145862, Control_c, 0, 64, 105
1, 145877, Control_c, 0, 64, 100
1, 145890, Note_on_c, 0, 54, 41
1, 145892, Control_c, 0, 64, 95
1, 145907, Control_c, 0, 64, 91
1, 145922, Control_c, 0, 64, 86
1, 145933, Note_on_c, 0, 99, 46
1, 145937, Control_c, 0, 64, 83
1, 145940, Note_off_c, 0, 97, 49
1, 145958, Control_c, 0, 64, 80
1, 145973, Control_c, 0, 64, 78
1, 145988, Control_c, 0, 64, 75
1, 146003, Control_c, 0, 64, 73
1, 146018, Control_c, 0, 64, 69
1, 146018, Control_c, 0, 67, 11
1, 146032, Control_c, 0, 64, 64
1, 146047, Control_c, 0, 64, 59
1, 146062, Control_c, 0, 64, 51
1, 146062, Control_c, 0, 67, 11
1, 146077, Control_c, 0, 64, 44
1, 146083, Note_off_c, 0, 99, 57
1, 146092, Control_c, 0, 64, 42
1, 146092, Control_c, 0, 67, 10
1, 146107, Control_c, 0, 64, 44
1, 146107, Note_on_c, 0, 97, 41
1, 146122, Control_c, 0, 64, 48
1, 146137, Control_c, 0, 64, 53
1, 146151, Control_c, 0, 64, 57
1, 146166, Control_c, 0, 64, 61
1, 146166, Control_c, 0, 67, 9
1, 146181, Control_c, 0, 64, 63
1, 146196, Control_c, 0, 64, 66
1, 146196, Control_c, 0, 67, 9
1, 146211, Control_c, 0, 64, 68
1, 146225, Control_c, 0, 64, 72
1, 146225, Control_c, 0, 67, 8
1, 146240, Control_c, 0, 64, 77
1, 146247, Note_on_c, 0, 64, 31
1, 146255, Control_c, 0, 64, 84
1, 146265, Note_on_c, 0, 104, 49
1, 146270, Note_off_c, 0, 97, 44
1, 146270, Control_c, 0, 64, 93
1, 146270, Control_c, 0, 67, 0
1, 146286, Control_c, 0, 64, 102
1, 146301, Control_c, 0, 64, 108
1, 146304, Poly_aftertouch_c, 0, 58, 127
1, 146315, Control_c, 0, 64, 110
1, 146324, Note_off_c, 0, 54, 41
1, 146360, Control_c, 0, 64, 110
1, 146388, Note_on_c, 0, 102, 53
1, 146419, Control_c, 0, 64, 110
1, 146420, Note_off_c, 0, 104, 48
1, 146434, Control_c, 0, 64, 109
1, 146449, Control_c, 0, 64, 109
1, 146464, Control_c, 0, 64, 108
1, 146467, Note_on_c, 0, 61, 36
1, 146478, Control_c, 0, 64, 108
1, 146479, Note_on_c, 0, 99, 50
1, 146506, Note_off_c, 0, 102, 55
1, 146508, Control_c, 0, 64, 107
1, 146523, Control_c, 0, 64, 107
1, 146542, Note_off_c, 0, 64, 38
1, 146552, Control_c, 0, 64, 106
1, 146566, Note_off_c, 0, 99, 59
1, 146567, Control_c, 0, 64, 106
1, 146581, Note_on_c, 0, 97, 49
1, 146582, Control_c, 0, 64, 105
1, 146596, Control_c, 0, 64, 104
1, 146626, Control_c, 0, 64, 104
1, 146646, Note_off_c, 0, 97, 61
1, 146670, Note_on_c, 0, 94, 57
1, 146671, Note_on_c, 0, 70, 42
1, 146672, Control_c, 0, 64, 103
1, 146674, Note_off_c, 0, 61, 33
1, 146709, Control_c, 0, 64, 103
1, 146739, Control_c, 0, 64, 102
1, 146742, Poly_aftertouch_c, 0, 58, 0
1, 146763, Note_off_c, 0, 94, 56
1, 146780, Note_on_c, 0, 92, 49
1, 146813, Control_c, 0, 64, 102
1, 146840, Note_on_c, 0, 64, 34
1, 146842, Note_off_c, 0, 92, 59
1, 146843, Control_c, 0, 64, 101
1, 146853, Note_on_c, 0, 99, 55
1, 146857, Control_c, 0, 64, 101
1, 146874, Note_off_c, 0, 70, 33
1, 146887, Control_c, 0, 64, 100
1, 146901, Control_c, 0, 64, 99
1, 146922, Note_on_c, 0, 97, 45
1, 146931, Control_c, 0, 64, 99
1, 146935, Note_off_c, 0, 99, 46
1, 146941, Note_off_c, 0, 64, 52
1, 146946, Control_c, 0, 64, 98
1, 146961, Note_on_c, 0, 61, 41
1, 146961, Control_c, 0, 64, 98
1, 146975, Control_c, 0, 64, 97
1, 146990, Control_c, 0, 64, 97
1, 146992, Note_on_c, 0, 94, 49
1, 147005, Control_c, 0, 64, 96
1, 147019, Note_off_c, 0, 97, 57
1, 147020, Control_c, 0, 64, 95
1, 147034, Control_c, 0, 64, 94
1, 147039, Note_on_c, 0, 92, 61
1, 147046, Note_off_c, 0, 94, 57
1, 147048, Control_c, 0, 64, 94
1, 147062, Note_off_c, 0, 61, 35
1, 147063, Control_c, 0, 64, 93
1, 147083, Note_off_c, 0, 92, 61
1, 147092, Control_c, 0, 64, 92
1, 147099, Note_on_c, 0, 54, 42
1, 147107, Control_c, 0, 64, 91
1, 147112, Note_on_c, 0, 90, 58
1, 147122, Control_c, 0, 64, 85
1, 147137, Control_c, 0, 64, 75
1, 147152, Control_c, 0, 64, 65
1, 147167, Control_c, 0, 64, 59
1, 147168, Note_off_c, 0, 90, 44
1, 147181, Control_c, 0, 64, 60
1, 147196, Note_on_c, 0, 87, 56
1, 147196, Control_c, 0, 64, 64
1, 147211, Control_c, 0, 64, 66
1, 147213, Note_off_c, 0, 54, 59
1, 147225, Control_c, 0, 64, 71
1, 147240, Control_c, 0, 64, 78
1, 147247, Note_off_c, 0, 87, 57
1, 147255, Control_c, 0, 64, 91
1, 147263, Note_on_c, 0, 66, 43
1, 147270, Control_c, 0, 64, 119
1, 147277, Note_on_c, 0, 94, 56
1, 147285, Control_c, 0, 64, 127
1, 147319, Note_on_c, 0, 92, 61
1, 147337, Note_off_c, 0, 94, 51
1, 147347, Note_off_c, 0, 66, 55
1, 147397, Note_on_c, 0, 63, 46
1, 147418, Note_on_c, 0, 90, 37
1, 147421, Note_off_c, 0, 92, 59
1, 147452, Note_on_c, 0, 87, 61
1, 147462, Note_off_c, 0, 90, 50
1, 147489, Note_off_c, 0, 87, 63
1, 147512, Note_off_c, 0, 63, 49
1, 147526, Note_on_c, 0, 85, 55
1, 147553, Note_on_c, 0, 71, 46
1, 147586, Note_off_c, 0, 85, 52
1, 147602, Note_on_c, 0, 83, 62
1, 147637, Note_off_c, 0, 83, 63
1, 147674, Note_off_c, 0, 71, 37
1, 147690, Note_on_c, 0, 90, 48
1, 147695, Note_on_c, 0, 66, 28
1, 147722, Note_off_c, 0, 90, 50
1, 147723, Note_on_c, 0, 87, 61
1, 147769, Note_off_c, 0, 66, 38
1, 147794, Note_on_c, 0, 63, 44
1, 147798, Note_on_c, 0, 82, 55
1, 147804, Note_off_c, 0, 87, 55
1, 147812, Control_c, 0, 64, 123
1, 147827, Control_c, 0, 64, 115
1, 147828, Note_off_c, 0, 63, 63
1, 147836, Note_off_c, 0, 82, 62
1, 147842, Control_c, 0, 64, 112
1, 147856, Control_c, 0, 64, 110
1, 147866, Note_on_c, 0, 83, 57
1, 147871, Control_c, 0, 64, 109
1, 147886, Control_c, 0, 64, 106
1, 147901, Control_c, 0, 64, 103
1, 147916, Control_c, 0, 64, 99
1, 147918, Note_off_c, 0, 83, 54
1, 147925, Note_on_c, 0, 54, 48
1, 147930, Control_c, 0, 64, 97
1, 147934, Note_on_c, 0, 87, 57
1, 147945, Control_c, 0, 64, 93
1, 147960, Control_c, 0, 64, 86
1, 147975, Control_c, 0, 64, 73
1, 147990, Control_c, 0, 64, 64
1, 147997, Note_off_c, 0, 87, 55
1, 148004, Control_c, 0, 64, 57
1, 148015, Note_on_c, 0, 85, 49
1, 148019, Control_c, 0, 64, 59
1, 148034, Control_c, 0, 64, 62
1, 148048, Control_c, 0, 64, 64
1, 148063, Control_c, 0, 64, 68
1, 148074, Note_off_c, 0, 54, 37
1, 148077, Note_off_c, 0, 85, 60
1, 148078, Note_on_c, 0, 92, 61
1, 148078, Control_c, 0, 64, 73
1, 148083, Note_on_c, 0, 64, 35
1, 148093, Control_c, 0, 64, 82
1, 148108, Control_c, 0, 64, 96
1, 148122, Control_c, 0, 64, 127
1, 148145, Note_on_c, 0, 90, 63
1, 148168, Note_off_c, 0, 92, 58
1, 148212, Note_on_c, 0, 61, 41
1, 148223, Note_off_c, 0, 64, 46
1, 148224, Note_on_c, 0, 87, 58
1, 148240, Note_off_c, 0, 90, 56
1, 148275, Note_on_c, 0, 85, 61
1, 148283, Note_off_c, 0, 87, 58
1, 148331, Note_off_c, 0, 85, 57
1, 148345, Note_on_c, 0, 82, 66
1, 148348, Note_off_c, 0, 61, 37
1, 148363, Note_on_c, 0, 70, 47
1, 148420, Note_off_c, 0, 82, 60
1, 148446, Note_on_c, 0, 80, 30
1, 148482, Note_on_c, 0, 64, 39
1, 148496, Note_off_c, 0, 80, 45
1, 148507, Note_off_c, 0, 70, 35
1, 148517, Poly_aftertouch_c, 0, 79, 127
1, 148535, Note_on_c, 0, 86, 40
1, 148539, Poly_aftertouch_c, 0, 79, 0
1, 148542, Note_on_c, 0, 85, 52
1, 148560, Control_c, 0, 64, 123
1, 148564, Note_off_c, 0, 64, 57
1, 148575, Control_c, 0, 64, 119
1, 148576, Note_off_c, 0, 86, 50
1, 148590, Control_c, 0, 64, 117
1, 148592, Note_on_c, 0, 61, 42
1, 148605, Control_c, 0, 64, 115
1, 148620, Control_c, 0, 64, 112
1, 148635, Control_c, 0, 64, 110
1, 148637, Note_on_c, 0, 82, 52
1, 148650, Control_c, 0, 64, 107
1, 148655, Note_off_c, 0, 61, 49
1, 148660, Note_off_c, 0, 85, 63
1, 148664, Control_c, 0, 64, 105
1, 148679, Control_c, 0, 64, 104
1, 148682, Note_on_c, 0, 80, 62
1, 148682, Note_off_c, 0, 82, 60
1, 148694, Control_c, 0, 64, 103
1, 148724, Control_c, 0, 64, 102
1, 148731, Note_on_c, 0, 54, 42
1, 148734, Note_off_c, 0, 80, 58
1, 148753, Control_c, 0, 64, 101
1, 148758, Note_on_c, 0, 78, 58
1, 148768, Control_c, 0, 64, 99
1, 148783, Control_c, 0, 64, 96
1, 148798, Control_c, 0, 64, 86
1, 148813, Control_c, 0, 64, 74
1, 148814, Note_off_c, 0, 78, 43
1, 148827, Control_c, 0, 64, 65
1, 148842, Control_c, 0, 64, 57
1, 148850, Note_on_c, 0, 75, 55
1, 148857, Control_c, 0, 64, 59
1, 148870, Note_off_c, 0, 54, 55
1, 148871, Control_c, 0, 64, 62
1, 148886, Control_c, 0, 64, 64
1, 148901, Control_c, 0, 64, 67
1, 148909, Note_on_c, 0, 66, 37
1, 148916, Control_c, 0, 64, 71
1, 148924, Note_off_c, 0, 75, 59
1, 148931, Control_c, 0, 64, 77
1, 148932, Note_on_c, 0, 82, 51
1, 148953, Control_c, 0, 64, 87
1, 148968, Control_c, 0, 64, 105
1, 148983, Control_c, 0, 64, 127
1, 148990, Note_off_c, 0, 82, 53
1, 148998, Note_on_c, 0, 80, 51
1, 149054, Note_off_c, 0, 66, 34
1, 149072, Note_off_c, 0, 80, 58
1, 149086, Note_on_c, 0, 63, 34
1, 149086, Note_on_c, 0, 78, 50
1, 149138, Note_off_c, 0, 78, 61
1, 149160, Note_on_c, 0, 75, 47
1, 149198, Note_off_c, 0, 75, 58
1, 149243, Note_off_c, 0, 63, 40
1, 149264, Note_on_c, 0, 71, 41
1, 149352, Note_on_c, 0, 73, 43
1, 149402, Note_off_c, 0, 73, 59
1, 149428, Note_off_c, 0, 71, 38
1, 149433, Note_on_c, 0, 75, 50
1, 149458, Note_on_c, 0, 66, 9
1, 149493, Note_off_c, 0, 75, 56
1, 149520, Note_on_c, 0, 78, 50
1, 149523, Note_off_c, 0, 66, 41
1, 149566, Note_on_c, 0, 63, 37
1, 149590, Control_c, 0, 64, 123
1, 149592, Note_off_c, 0, 78, 53
1, 149597, Note_on_c, 0, 70, 49
1, 149605, Control_c, 0, 64, 121
1, 149614, Note_off_c, 0, 63, 61
1, 149620, Control_c, 0, 64, 119
1, 149635, Note_off_c, 0, 70, 64
1, 149635, Control_c, 0, 64, 117
1, 149649, Control_c, 0, 64, 115
1, 149664, Control_c, 0, 64, 115
1, 149669, Note_on_c, 0, 71, 51
1, 149679, Control_c, 0, 64, 114
1, 149701, Control_c, 0, 64, 112
1, 149716, Control_c, 0, 64, 110
1, 149719, Note_off_c, 0, 71, 62
1, 149731, Control_c, 0, 64, 107
1, 149746, Control_c, 0, 64, 102
1, 149750, Note_on_c, 0, 54, 47
1, 149761, Control_c, 0, 64, 92
1, 149775, Control_c, 0, 64, 78
1, 149776, Note_on_c, 0, 70, 26
1, 149779, Note_on_c, 0, 75, 47
1, 149790, Control_c, 0, 64, 67
1, 149805, Control_c, 0, 64, 59
1, 149818, Note_off_c, 0, 70, 47
1, 149819, Control_c, 0, 64, 60
1, 149834, Control_c, 0, 64, 64
1, 149835, Note_off_c, 0, 75, 55
1, 149846, Note_on_c, 0, 73, 44
1, 149851, Control_c, 0, 64, 66
1, 149866, Control_c, 0, 64, 71
1, 149880, Control_c, 0, 64, 81
1, 149890, Note_off_c, 0, 73, 61
1, 149895, Control_c, 0, 64, 104
1, 149907, Note_off_c, 0, 54, 38
1, 149910, Control_c, 0, 64, 127
1, 149916, Note_on_c, 0, 69, 50
1, 149923, Note_on_c, 0, 64, 41
1, 149951, Note_off_c, 0, 69, 64
1, 149987, Note_on_c, 0, 70, 48
1, 150005, Note_off_c, 0, 64, 52
1, 150020, Note_off_c, 0, 70, 62
1, 150039, Note_on_c, 0, 61, 39
1, 150051, Note_on_c, 0, 71, 57
1, 150086, Note_off_c, 0, 71, 64
1, 150117, Note_on_c, 0, 72, 51
1, 150157, Note_off_c, 0, 72, 64
1, 150173, Note_on_c, 0, 73, 60
1, 150178, Note_on_c, 0, 54, 49
1, 150201, Note_off_c, 0, 73, 67
1, 150206, Note_off_c, 0, 61, 30
1, 150238, Note_on_c, 0, 74, 63
1, 150246, Note_off_c, 0, 54, 62
1, 150271, Note_off_c, 0, 74, 63
1, 150313, Note_on_c, 0, 75, 65
1, 150320, Note_on_c, 0, 64, 50
1, 150344, Note_off_c, 0, 75, 66
1, 150354, Note_on_c, 0, 70, 46
1, 150366, Note_on_c, 0, 76, 72
1, 150426, Note_off_c, 0, 76, 63
1, 150431, Note_on_c, 0, 77, 73
1, 150460, Note_off_c, 0, 70, 59
1, 150482, Note_on_c, 0, 61, 53
1, 150483, Note_off_c, 0, 64, 61
1, 150487, Note_on_c, 0, 78, 79
1, 150496, Note_off_c, 0, 77, 63
1, 150515, Note_off_c, 0, 61, 64
1, 150520, Note_off_c, 0, 78, 65
1, 150563, Note_on_c, 0, 79, 72
1, 150616, Note_off_c, 0, 79, 56
1, 150620, Note_on_c, 0, 53, 60
1, 150629, Control_c, 0, 64, 108
1, 150632, Note_on_c, 0, 80, 76
1, 150644, Control_c, 0, 64, 81
1, 150659, Control_c, 0, 64, 66
1, 150674, Control_c, 0, 64, 51
1, 150689, Control_c, 0, 64, 56
1, 150690, Note_off_c, 0, 80, 64
1, 150700, Note_on_c, 0, 81, 69
1, 150703, Control_c, 0, 64, 62
1, 150718, Control_c, 0, 64, 67
1, 150726, Note_off_c, 0, 53, 62
1, 150733, Control_c, 0, 64, 74
1, 150748, Control_c, 0, 64, 87
1, 150762, Note_off_c, 0, 81, 63
1, 150763, Control_c, 0, 64, 127
1, 150764, Note_on_c, 0, 82, 71
1, 150829, Note_on_c, 0, 87, 75
1, 150832, Note_off_c, 0, 82, 63
1, 150833, Note_on_c, 0, 65, 45
1, 150839, Note_on_c, 0, 70, 43
1, 150903, Note_on_c, 0, 85, 66
1, 150918, Note_off_c, 0, 87, 58
1, 150963, Note_on_c, 0, 81, 54
1, 150969, Note_off_c, 0, 85, 60
1, 150976, Note_off_c, 0, 70, 60
1, 150985, Note_on_c, 0, 61, 52
1, 150989, Note_off_c, 0, 65, 45
1, 151012, Note_off_c, 0, 81, 60
1, 151016, Note_off_c, 0, 61, 64
1, 151040, Note_on_c, 0, 82, 63
1, 151097, Note_off_c, 0, 82, 58
1, 151127, Note_on_c, 0, 83, 57
1, 151148, Control_c, 0, 64, 104
1, 151152, Note_on_c, 0, 52, 49
1, 151162, Control_c, 0, 64, 85
1, 151177, Control_c, 0, 64, 70
1, 151198, Note_off_c, 0, 83, 51
1, 151200, Control_c, 0, 64, 60
1, 151215, Control_c, 0, 64, 57
1, 151222, Note_on_c, 0, 84, 49
1, 151229, Control_c, 0, 64, 63
1, 151244, Control_c, 0, 64, 66
1, 151258, Note_off_c, 0, 52, 65
1, 151259, Control_c, 0, 64, 70
1, 151273, Control_c, 0, 64, 76
1, 151288, Note_off_c, 0, 84, 57
1, 151288, Control_c, 0, 64, 88
1, 151303, Control_c, 0, 64, 112
1, 151313, Note_on_c, 0, 85, 44
1, 151318, Control_c, 0, 64, 127
1, 151344, Note_off_c, 0, 85, 56
1, 151385, Note_on_c, 0, 86, 58
1, 151402, Note_on_c, 0, 70, 36
1, 151427, Note_off_c, 0, 86, 60
1, 151430, Note_on_c, 0, 67, 32
1, 151481, Note_on_c, 0, 87, 52
1, 151541, Note_off_c, 0, 87, 55
1, 151565, Note_on_c, 0, 88, 56
1, 151609, Note_on_c, 0, 61, 34
1, 151642, Note_off_c, 0, 88, 60
1, 151663, Note_on_c, 0, 89, 59
1, 151665, Note_off_c, 0, 67, 41
1, 151679, Note_off_c, 0, 70, 43
1, 151681, Note_off_c, 0, 61, 62
1, 151744, Note_on_c, 0, 90, 58
1, 151753, Note_off_c, 0, 89, 51
1, 151808, Control_c, 0, 64, 115
1, 151823, Control_c, 0, 64, 108
1, 151837, Control_c, 0, 64, 100
1, 151852, Control_c, 0, 64, 90
1, 151856, Note_off_c, 0, 90, 55
1, 151867, Control_c, 0, 64, 78
1, 151869, Note_on_c, 0, 91, 56
1, 151881, Control_c, 0, 64, 66
1, 151890, Note_on_c, 0, 53, 33
1, 151896, Control_c, 0, 64, 58
1, 151911, Control_c, 0, 64, 58
1, 151926, Control_c, 0, 64, 61
1, 151949, Control_c, 0, 64, 63
1, 151964, Control_c, 0, 64, 65
1, 151978, Control_c, 0, 64, 69
1, 151989, Note_off_c, 0, 91, 55
1, 151993, Control_c, 0, 64, 75
1, 152003, Note_on_c, 0, 92, 57
1, 152008, Control_c, 0, 64, 85
1, 152009, Note_off_c, 0, 53, 59
1, 152023, Control_c, 0, 64, 108
1, 152038, Control_c, 0, 64, 127
1, 152066, Note_off_c, 0, 92, 63
1, 152092, Note_on_c, 0, 68, 41
1, 152102, Note_on_c, 0, 83, 50
1, 152146, Note_off_c, 0, 83, 63
1, 152164, Note_on_c, 0, 85, 53
1, 152185, Note_off_c, 0, 85, 61
1, 152209, Note_on_c, 0, 84, 46
1, 152237, Note_off_c, 0, 68, 47
1, 152245, Note_off_c, 0, 84, 48
1, 152251, Note_on_c, 0, 91, 63
1, 152256, Note_on_c, 0, 65, 44
1, 152322, Note_on_c, 0, 92, 73
1, 152328, Note_off_c, 0, 91, 62
1, 152355, Note_off_c, 0, 65, 58
1, 152368, Note_off_c, 0, 92, 64
1, 152381, Note_on_c, 0, 60, 48
1, 152396, Note_on_c, 0, 88, 65
1, 152448, Note_off_c, 0, 88, 61
1, 152453, Note_on_c, 0, 89, 75
1, 152501, Note_on_c, 0, 68, 51
1, 152516, Note_off_c, 0, 89, 62
1, 152525, Note_on_c, 0, 95, 73
1, 152557, Note_off_c, 0, 60, 36
1, 152579, Note_on_c, 0, 96, 74
1, 152584, Note_off_c, 0, 95, 64
1, 152620, Note_off_c, 0, 96, 65
1, 152622, Note_off_c, 0, 68, 57
1, 152630, Note_on_c, 0, 65, 53
1, 152647, Note_on_c, 0, 91, 74
1, 152658, Note_off_c, 0, 65, 64
1, 152709, Note_on_c, 0, 92, 77
1, 152709, Note_off_c, 0, 91, 62
1, 152757, Control_c, 0, 64, 98
1, 152771, Note_on_c, 0, 51, 67
1, 152772, Note_off_c, 0, 92, 64
1, 152772, Control_c, 0, 64, 73
1, 152777, Note_on_c, 0, 100, 67
1, 152786, Control_c, 0, 64, 57
1, 152801, Control_c, 0, 64, 47
1, 152816, Control_c, 0, 64, 58
1, 152831, Control_c, 0, 64, 63
1, 152846, Control_c, 0, 64, 68
1, 152853, Note_off_c, 0, 100, 63
1, 152856, Note_on_c, 0, 101, 67
1, 152861, Control_c, 0, 64, 75
1, 152868, Note_off_c, 0, 51, 64
1, 152875, Control_c, 0, 64, 89
1, 152890, Control_c, 0, 64, 127
1, 152912, Note_on_c, 0, 93, 69
1, 152918, Note_off_c, 0, 101, 65
1, 152926, Note_on_c, 0, 68, 67
1, 152981, Note_off_c, 0, 93, 65
1, 152982, Note_on_c, 0, 94, 78
1, 153036, Note_on_c, 0, 100, 63
1, 153039, Note_on_c, 0, 65, 62
1, 153040, Note_off_c, 0, 68, 58
1, 153049, Note_off_c, 0, 94, 63
1, 153109, Note_on_c, 0, 101, 84
1, 153115, Note_off_c, 0, 100, 65
1, 153136, Note_on_c, 0, 60, 64
1, 153138, Note_off_c, 0, 65, 60
1, 153163, Note_on_c, 0, 94, 77
1, 153213, Note_off_c, 0, 101, 63
1, 153222, Note_on_c, 0, 95, 89
1, 153230, Note_off_c, 0, 94, 63
1, 153246, Note_on_c, 0, 68, 57
1, 153282, Note_on_c, 0, 100, 81
1, 153287, Note_off_c, 0, 60, 39
1, 153289, Note_off_c, 0, 95, 63
1, 153327, Note_off_c, 0, 68, 62
1, 153343, Note_on_c, 0, 65, 53
1, 153346, Note_on_c, 0, 101, 85
1, 153373, Note_off_c, 0, 65, 54
1, 153387, Note_on_c, 0, 94, 81
1, 153418, Note_off_c, 0, 100, 30
1, 153425, Note_off_c, 0, 101, 65
1, 153458, Note_on_c, 0, 95, 83
1, 153464, Note_off_c, 0, 94, 64
1, 153476, Control_c, 0, 64, 90
1, 153491, Control_c, 0, 64, 68
1, 153505, Control_c, 0, 64, 41
1, 153511, Note_on_c, 0, 50, 59
1, 153516, Note_on_c, 0, 100, 72
1, 153520, Control_c, 0, 64, 19
1, 153523, Note_off_c, 0, 95, 61
1, 153535, Control_c, 0, 64, 46
1, 153550, Control_c, 0, 64, 60
1, 153565, Control_c, 0, 64, 68
1, 153571, Note_on_c, 0, 101, 79
1, 153580, Control_c, 0, 64, 79
1, 153595, Control_c, 0, 64, 112
1, 153610, Control_c, 0, 64, 127
1, 153633, Note_off_c, 0, 50, 63
1, 153636, Note_on_c, 0, 95, 76
1, 153643, Note_off_c, 0, 100, 27
1, 153646, Note_off_c, 0, 101, 65
1, 153690, Note_on_c, 0, 96, 68
1, 153696, Note_off_c, 0, 95, 64
1, 153724, Note_off_c, 0, 96, 61
1, 153750, Note_on_c, 0, 91, 82
1, 153798, Note_off_c, 0, 91, 64
1, 153824, Note_on_c, 0, 92, 79
1, 153852, Note_off_c, 0, 92, 66
1, 153866, Note_on_c, 0, 60, 52
1, 153897, Note_on_c, 0, 88, 61
1, 153918, Note_on_c, 0, 89, 31
1, 153933, Note_on_c, 0, 65, 48
1, 153947, Note_off_c, 0, 88, 59
1, 153952, Note_off_c, 0, 89, 0
1, 153952, Note_on_c, 0, 89, 28
1, 153977, Note_on_c, 0, 68, 52
1, 154000, Note_off_c, 0, 60, 55
1, 154018, Note_on_c, 0, 83, 69
1, 154042, Note_off_c, 0, 89, 56
1, 154051, Note_off_c, 0, 65, 53
1, 154078, Note_off_c, 0, 83, 65
1, 154080, Note_off_c, 0, 68, 51
1, 154081, Note_on_c, 0, 84, 75
1, 154123, Note_off_c, 0, 84, 59
1, 154154, Note_on_c, 0, 79, 66
1, 154197, Note_off_c, 0, 79, 63
1, 154222, Note_on_c, 0, 80, 80
1, 154233, Poly_aftertouch_c, 0, 81, 127
1, 154254, Poly_aftertouch_c, 0, 81, 0
1, 154277, Note_off_c, 0, 80, 64
1, 154296, Note_on_c, 0, 76, 78
1, 154349, Note_off_c, 0, 76, 67
1, 154364, Note_on_c, 0, 77, 82
1, 154436, Note_on_c, 0, 71, 82
1, 154507, Note_on_c, 0, 72, 88
1, 154509, Note_off_c, 0, 77, 61
1, 154541, Note_off_c, 0, 71, 63
1, 154592, Note_on_c, 0, 67, 85
1, 154592, Note_off_c, 0, 72, 64
1, 154661, Note_on_c, 0, 68, 85
1, 154715, Note_off_c, 0, 68, 37
1, 154738, Note_off_c, 0, 67, 61
1, 154755, Note_on_c, 0, 64, 84
1, 154853, Note_on_c, 0, 65, 88
1, 154882, Note_off_c, 0, 64, 64
1, 154958, Note_on_c, 0, 67, 92
1, 154978, Note_off_c, 0, 65, 61
1, 155029, Note_off_c, 0, 67, 65
1, 155035, Note_on_c, 0, 68, 92
1, 155135, Note_on_c, 0, 71, 86
1, 155160, Note_off_c, 0, 68, 59
1, 155213, Note_on_c, 0, 72, 85
1, 155224, Note_off_c, 0, 71, 65
1, 155233, Note_off_c, 0, 72, 73
1, 155388, Control_c, 0, 64, 88
1, 155390, Note_on_c, 0, 37, 57
1, 155395, Note_on_c, 0, 100, 74
1, 155403, Control_c, 0, 64, 64
1, 155411, Note_on_c, 0, 103, 56
1, 155416, Note_on_c, 0, 101, 51
1, 155418, Control_c, 0, 64, 0
1, 155434, Control_c, 0, 64, 24
1, 155449, Control_c, 0, 64, 56
1, 155464, Control_c, 0, 64, 67
1, 155472, Note_on_c, 0, 104, 87
1, 155477, Note_off_c, 0, 103, 63
1, 155478, Control_c, 0, 64, 82
1, 155493, Control_c, 0, 64, 127
1, 155497, Note_off_c, 0, 101, 43
1, 155501, Note_off_c, 0, 37, 60
1, 155508, Note_off_c, 0, 100, 66
1, 155517, Note_off_c, 0, 104, 64
1, 155580, Note_on_c, 0, 100, 79
1, 155583, Note_on_c, 0, 96, 69
1, 155628, Note_on_c, 0, 101, 78
1, 155639, Note_on_c, 0, 97, 83
1, 155640, Note_off_c, 0, 96, 65
1, 155649, Note_off_c, 0, 100, 61
1, 155656, Note_off_c, 0, 101, 68
1, 155665, Note_off_c, 0, 97, 66
1, 155737, Note_on_c, 0, 94, 93
1, 155739, Note_on_c, 0, 91, 75
1, 155804, Note_off_c, 0, 91, 48
1, 155811, Note_on_c, 0, 53, 66
1, 155813, Note_on_c, 0, 95, 84
1, 155842, Note_off_c, 0, 94, 63
1, 155860, Note_off_c, 0, 95, 65
1, 155884, Note_on_c, 0, 59, 70
1, 155911, Note_on_c, 0, 91, 81
1, 155929, Note_on_c, 0, 86, 64
1, 155934, Note_on_c, 0, 88, 63
1, 155960, Note_off_c, 0, 53, 46
1, 155967, Note_off_c, 0, 86, 63
1, 155968, Note_on_c, 0, 68, 60
1, 155986, Note_on_c, 0, 89, 79
1, 155989, Note_on_c, 0, 92, 79
1, 155991, Note_off_c, 0, 88, 64
1, 156006, Note_off_c, 0, 91, 56
1, 156021, Note_off_c, 0, 89, 61
1, 156036, Note_off_c, 0, 92, 66
1, 156088, Note_on_c, 0, 88, 81
1, 156092, Note_on_c, 0, 84, 79
1, 156149, Note_on_c, 0, 89, 81
1, 156153, Note_off_c, 0, 88, 65
1, 156157, Note_off_c, 0, 84, 63
1, 156159, Note_on_c, 0, 85, 77
1, 156187, Note_off_c, 0, 85, 66
1, 156199, Note_off_c, 0, 89, 62
1, 156254, Note_on_c, 0, 82, 84
1, 156258, Note_on_c, 0, 79, 73
1, 156273, Note_off_c, 0, 59, 37
1, 156275, Note_off_c, 0, 68, 37
1, 156314, Note_off_c, 0, 79, 53
1, 156334, Note_on_c, 0, 83, 78
1, 156336, Note_on_c, 0, 80, 74
1, 156361, Note_off_c, 0, 82, 62
1, 156380, Note_off_c, 0, 80, 60
1, 156381, Note_off_c, 0, 83, 64
1, 156442, Note_on_c, 0, 79, 75
1, 156453, Note_on_c, 0, 76, 66
1, 156524, Note_on_c, 0, 80, 75
1, 156528, Note_on_c, 0, 77, 74
1, 156535, Note_off_c, 0, 79, 62
1, 156540, Note_off_c, 0, 76, 61
1, 156556, Note_off_c, 0, 77, 67
1, 156575, Note_off_c, 0, 80, 65
1, 156629, Note_on_c, 0, 76, 83
1, 156636, Note_on_c, 0, 72, 71
1, 156711, Note_on_c, 0, 73, 79
1, 156715, Note_off_c, 0, 76, 63
1, 156717, Note_on_c, 0, 77, 79
1, 156721, Note_off_c, 0, 72, 60
1, 156757, Note_off_c, 0, 73, 65
1, 156758, Note_off_c, 0, 77, 59
1, 156830, Note_on_c, 0, 70, 79
1, 156841, Note_on_c, 0, 67, 58
1, 156913, Note_off_c, 0, 67, 54
1, 156937, Note_on_c, 0, 68, 72
1, 156937, Note_on_c, 0, 71, 75
1, 156978, Note_off_c, 0, 70, 57
1, 157006, Note_off_c, 0, 68, 61
1, 157080, Note_on_c, 0, 67, 75
1, 157081, Note_on_c, 0, 64, 63
1, 157115, Note_off_c, 0, 71, 62
1, 157229, Note_on_c, 0, 68, 78
1, 157235, Note_on_c, 0, 65, 66
1, 157311, Note_off_c, 0, 65, 63
1, 157324, Control_c, 0, 64, 119
1, 157339, Control_c, 0, 64, 115
1, 157351, Note_off_c, 0, 67, 38
1, 157354, Control_c, 0, 64, 110
1, 157369, Control_c, 0, 64, 107
1, 157375, Note_off_c, 0, 64, 39
1, 157383, Control_c, 0, 64, 104
1, 157398, Control_c, 0, 64, 101
1, 157406, Note_on_c, 0, 69, 79
1, 157408, Note_on_c, 0, 66, 69
1, 157413, Control_c, 0, 64, 97
1, 157428, Control_c, 0, 64, 93
1, 157443, Control_c, 0, 64, 90
1, 157457, Control_c, 0, 64, 88
1, 157472, Control_c, 0, 64, 86
1, 157487, Control_c, 0, 64, 84
1, 157502, Note_off_c, 0, 68, 62
1, 157502, Control_c, 0, 64, 83
1, 157515, Control_c, 0, 64, 81
1, 157530, Control_c, 0, 64, 80
1, 157545, Control_c, 0, 64, 78
1, 157560, Control_c, 0, 64, 76
1, 157575, Control_c, 0, 64, 75
1, 157589, Control_c, 0, 64, 74
1, 157604, Control_c, 0, 64, 73
1, 157613, Note_on_c, 0, 70, 77
1, 157615, Note_on_c, 0, 67, 63
1, 157619, Control_c, 0, 64, 71
1, 157634, Control_c, 0, 64, 70
1, 157649, Control_c, 0, 64, 69
1, 157652, Note_off_c, 0, 69, 59
1, 157664, Control_c, 0, 64, 68
1, 157679, Control_c, 0, 64, 67
1, 157694, Control_c, 0, 64, 66
1, 157708, Control_c, 0, 64, 66
1, 157738, Control_c, 0, 64, 65
1, 157753, Control_c, 0, 64, 65
1, 157767, Note_off_c, 0, 66, 57
1, 157768, Control_c, 0, 64, 64
1, 157782, Control_c, 0, 64, 64
1, 157797, Control_c, 0, 64, 63
1, 157812, Control_c, 0, 64, 63
1, 157828, Control_c, 0, 64, 62
1, 157843, Control_c, 0, 64, 61
1, 157858, Control_c, 0, 64, 60
1, 157872, Control_c, 0, 64, 60
1, 157887, Control_c, 0, 64, 59
1, 157902, Control_c, 0, 64, 58
1, 157917, Control_c, 0, 64, 57
1, 157938, Control_c, 0, 64, 56
1, 157953, Control_c, 0, 64, 55
1, 157966, Note_on_c, 0, 68, 48
1, 157966, Note_on_c, 0, 71, 65
1, 157968, Control_c, 0, 64, 55
1, 157983, Control_c, 0, 64, 54
1, 157998, Control_c, 0, 64, 52
1, 158013, Control_c, 0, 64, 51
1, 158016, Note_off_c, 0, 67, 38
1, 158027, Control_c, 0, 64, 49
1, 158042, Control_c, 0, 64, 46
1, 158057, Control_c, 0, 64, 42
1, 158072, Control_c, 0, 64, 36
1, 158084, Note_off_c, 0, 70, 56
1, 158087, Control_c, 0, 64, 25
1, 158102, Control_c, 0, 64, 0
1, 158191, Control_c, 0, 64, 15
1, 158205, Control_c, 0, 64, 42
1, 158220, Control_c, 0, 64, 60
1, 158235, Control_c, 0, 64, 66
1, 158240, Note_off_c, 0, 71, 64
1, 158250, Control_c, 0, 64, 71
1, 158253, Note_off_c, 0, 68, 52
1, 158265, Control_c, 0, 64, 79
1, 158279, Control_c, 0, 64, 94
1, 158294, Control_c, 0, 64, 127
1, 158342, Note_on_c, 0, 71, 57
1, 158537, Note_on_c, 0, 72, 61
1, 158561, Control_c, 0, 64, 112
1, 158564, Note_off_c, 0, 71, 60
1, 158576, Control_c, 0, 64, 106
1, 158591, Control_c, 0, 64, 101
1, 158605, Control_c, 0, 64, 98
1, 158620, Control_c, 0, 64, 94
1, 158636, Control_c, 0, 64, 91
1, 158650, Control_c, 0, 64, 88
1, 158665, Control_c, 0, 64, 85
1, 158685, Note_on_c, 0, 71, 75
1, 158688, Control_c, 0, 64, 81
1, 158703, Control_c, 0, 64, 79
1, 158717, Control_c, 0, 64, 76
1, 158732, Control_c, 0, 64, 75
1, 158747, Control_c, 0, 64, 73
1, 158761, Control_c, 0, 64, 72
1, 158768, Note_off_c, 0, 72, 52
1, 158776, Control_c, 0, 64, 70
1, 158791, Control_c, 0, 64, 68
1, 158806, Control_c, 0, 64, 67
1, 158810, Note_on_c, 0, 70, 75
1, 158821, Control_c, 0, 64, 66
1, 158835, Control_c, 0, 64, 66
1, 158850, Control_c, 0, 64, 65
1, 158865, Control_c, 0, 64, 65
1, 158880, Control_c, 0, 64, 64
1, 158889, Note_off_c, 0, 71, 56
1, 158895, Control_c, 0, 64, 64
1, 158910, Control_c, 0, 64, 63
1, 158925, Control_c, 0, 64, 62
1, 158940, Control_c, 0, 64, 61
1, 158954, Control_c, 0, 64, 61
1, 158969, Control_c, 0, 64, 60
1, 158979, Note_on_c, 0, 71, 67
1, 158984, Control_c, 0, 64, 58
1, 158999, Control_c, 0, 64, 55
1, 159014, Control_c, 0, 64, 50
1, 159028, Control_c, 0, 64, 40
1, 159043, Control_c, 0, 64, 24
1, 159057, Note_off_c, 0, 70, 60
1, 159058, Control_c, 0, 64, 0
1, 159117, Control_c, 0, 64, 23
1, 159132, Control_c, 0, 64, 49
1, 159147, Control_c, 0, 64, 62
1, 159161, Control_c, 0, 64, 68
1, 159163, Note_off_c, 0, 71, 63
1, 159176, Control_c, 0, 64, 76
1, 159191, Control_c, 0, 64, 90
1, 159206, Control_c, 0, 64, 127
1, 159235, Note_on_c, 0, 71, 70
1, 159369, Control_c, 0, 64, 113
1, 159384, Control_c, 0, 64, 105
1, 159399, Control_c, 0, 64, 101
1, 159414, Control_c, 0, 64, 98
1, 159437, Control_c, 0, 64, 95
1, 159452, Control_c, 0, 64, 93
1, 159466, Control_c, 0, 64, 90
1, 159481, Control_c, 0, 64, 88
1, 159496, Control_c, 0, 64, 86
1, 159511, Control_c, 0, 64, 85
1, 159526, Control_c, 0, 64, 83
1, 159540, Control_c, 0, 64, 82
1, 159555, Control_c, 0, 64, 80
1, 159570, Control_c, 0, 64, 79
1, 159584, Control_c, 0, 64, 77
1, 159599, Control_c, 0, 64, 76
1, 159614, Control_c, 0, 64, 74
1, 159629, Control_c, 0, 64, 74
1, 159644, Control_c, 0, 64, 73
1, 159658, Note_on_c, 0, 77, 63
1, 159658, Control_c, 0, 64, 73
1, 159673, Control_c, 0, 64, 72
1, 159688, Control_c, 0, 64, 71
1, 159703, Control_c, 0, 64, 70
1, 159718, Control_c, 0, 64, 69
1, 159733, Control_c, 0, 64, 69
1, 159747, Control_c, 0, 64, 68
1, 159762, Control_c, 0, 64, 68
1, 159776, Control_c, 0, 64, 67
1, 159791, Control_c, 0, 64, 67
1, 159806, Control_c, 0, 64, 66
1, 159821, Control_c, 0, 64, 66
1, 159836, Control_c, 0, 64, 65
1, 159865, Control_c, 0, 64, 65
1, 159880, Control_c, 0, 64, 64
1, 159895, Control_c, 0, 64, 64
1, 159910, Control_c, 0, 64, 63
1, 159917, Note_off_c, 0, 71, 38
1, 159939, Control_c, 0, 64, 63
1, 159969, Control_c, 0, 64, 62
1, 159998, Control_c, 0, 64, 62
1, 160028, Control_c, 0, 64, 61
1, 160057, Control_c, 0, 64, 61
1, 160072, Control_c, 0, 64, 60
1, 160087, Control_c, 0, 64, 60
1, 160117, Control_c, 0, 64, 59
1, 160132, Control_c, 0, 64, 58
1, 160147, Control_c, 0, 64, 57
1, 160162, Control_c, 0, 64, 57
1, 160183, Control_c, 0, 64, 56
1, 160198, Control_c, 0, 64, 55
1, 160213, Control_c, 0, 64, 54
1, 160229, Control_c, 0, 64, 53
1, 160274, Control_c, 0, 64, 54
1, 160288, Control_c, 0, 64, 56
1, 160303, Control_c, 0, 64, 58
1, 160318, Control_c, 0, 64, 60
1, 160333, Control_c, 0, 64, 62
1, 160348, Control_c, 0, 64, 63
1, 160362, Control_c, 0, 64, 64
1, 160377, Control_c, 0, 64, 65
1, 160392, Control_c, 0, 64, 66
1, 160406, Control_c, 0, 64, 68
1, 160421, Control_c, 0, 64, 72
1, 160436, Control_c, 0, 64, 77
1, 160451, Control_c, 0, 64, 85
1, 160466, Control_c, 0, 64, 93
1, 160481, Control_c, 0, 64, 102
1, 160496, Control_c, 0, 64, 115
1, 160511, Control_c, 0, 64, 127
1, 160626, Note_off_c, 0, 77, 31
1, 160834, Note_on_c, 0, 71, 35
1, 161056, Note_off_c, 0, 71, 57
1, 161304, Control_c, 0, 64, 119
1, 161319, Control_c, 0, 64, 114
1, 161333, Note_on_c, 0, 36, 26
1, 161334, Control_c, 0, 64, 109
1, 161335, Note_on_c, 0, 65, 27
1, 161337, Note_on_c, 0, 68, 27
1, 161339, Note_on_c, 0, 73, 39
1, 161349, Control_c, 0, 64, 104
1, 161363, Control_c, 0, 64, 100
1, 161378, Control_c, 0, 64, 96
1, 161393, Control_c, 0, 64, 92
1, 161408, Control_c, 0, 64, 88
1, 161423, Control_c, 0, 64, 83
1, 161438, Control_c, 0, 64, 76
1, 161453, Control_c, 0, 64, 68
1, 161467, Control_c, 0, 64, 62
1, 161482, Control_c, 0, 64, 56
1, 161497, Control_c, 0, 64, 58
1, 161512, Control_c, 0, 64, 60
1, 161527, Control_c, 0, 64, 62
1, 161542, Control_c, 0, 64, 64
1, 161556, Control_c, 0, 64, 67
1, 161559, Note_off_c, 0, 73, 51
1, 161567, Note_off_c, 0, 68, 50
1, 161571, Control_c, 0, 64, 73
1, 161576, Note_on_c, 0, 72, 42
1, 161586, Control_c, 0, 64, 82
1, 161601, Control_c, 0, 64, 96
1, 161616, Control_c, 0, 64, 118
1, 161630, Control_c, 0, 64, 127
1, 161634, Note_off_c, 0, 65, 37
1, 161682, Note_off_c, 0, 36, 40
1, 161735, Note_off_c, 0, 72, 38
1, 161755, Note_on_c, 0, 71, 40
1, 161843, Note_off_c, 0, 71, 57
1, 161857, Note_on_c, 0, 72, 51
1, 161938, Note_off_c, 0, 72, 59
1, 161951, Note_on_c, 0, 71, 41
1, 161965, Control_c, 0, 64, 123
1, 161979, Control_c, 0, 64, 121
1, 161994, Control_c, 0, 64, 118
1, 162009, Control_c, 0, 64, 117
1, 162024, Control_c, 0, 64, 115
1, 162039, Control_c, 0, 64, 111
1, 162044, Note_on_c, 0, 72, 49
1, 162053, Control_c, 0, 64, 109
1, 162068, Control_c, 0, 64, 106
1, 162074, Note_off_c, 0, 71, 34
1, 162083, Control_c, 0, 64, 103
1, 162098, Control_c, 0, 64, 100
1, 162113, Control_c, 0, 64, 98
1, 162127, Control_c, 0, 64, 96
1, 162130, Note_on_c, 0, 56, 40
1, 162142, Control_c, 0, 64, 95
1, 162154, Note_off_c, 0, 72, 44
1, 162157, Control_c, 0, 64, 94
1, 162171, Control_c, 0, 64, 93
1, 162173, Note_on_c, 0, 73, 50
1, 162186, Control_c, 0, 64, 91
1, 162201, Control_c, 0, 64, 89
1, 162216, Control_c, 0, 64, 84
1, 162229, Note_off_c, 0, 73, 64
1, 162231, Control_c, 0, 64, 78
1, 162245, Control_c, 0, 64, 71
1, 162260, Control_c, 0, 64, 66
1, 162267, Note_on_c, 0, 74, 52
1, 162275, Control_c, 0, 64, 65
1, 162290, Control_c, 0, 64, 65
1, 162305, Control_c, 0, 64, 66
1, 162318, Note_off_c, 0, 74, 58
1, 162320, Control_c, 0, 64, 68
1, 162335, Control_c, 0, 64, 70
1, 162344, Note_on_c, 0, 65, 28
1, 162350, Control_c, 0, 64, 72
1, 162350, Note_on_c, 0, 75, 49
1, 162365, Control_c, 0, 64, 76
1, 162379, Control_c, 0, 64, 81
1, 162394, Control_c, 0, 64, 88
1, 162401, Note_off_c, 0, 75, 57
1, 162409, Control_c, 0, 64, 97
1, 162415, Note_on_c, 0, 76, 53
1, 162431, Control_c, 0, 64, 101
1, 162460, Control_c, 0, 64, 100
1, 162464, Note_off_c, 0, 76, 63
1, 162475, Control_c, 0, 64, 99
1, 162481, Note_on_c, 0, 79, 59
1, 162484, Note_on_c, 0, 60, 34
1, 162490, Control_c, 0, 64, 99
1, 162505, Control_c, 0, 64, 98
1, 162520, Control_c, 0, 64, 97
1, 162531, Note_off_c, 0, 79, 55
1, 162535, Control_c, 0, 64, 96
1, 162538, Note_on_c, 0, 77, 60
1, 162549, Control_c, 0, 64, 95
1, 162564, Control_c, 0, 64, 94
1, 162579, Control_c, 0, 64, 94
1, 162584, Note_off_c, 0, 65, 35
1, 162592, Note_on_c, 0, 76, 45
1, 162594, Control_c, 0, 64, 93
1, 162609, Note_off_c, 0, 77, 53
1, 162624, Control_c, 0, 64, 92
1, 162635, Note_on_c, 0, 55, 37
1, 162639, Note_off_c, 0, 76, 61
1, 162639, Control_c, 0, 64, 91
1, 162650, Note_off_c, 0, 60, 30
1, 162654, Note_on_c, 0, 75, 56
1, 162654, Control_c, 0, 64, 88
1, 162669, Control_c, 0, 64, 82
1, 162681, Note_off_c, 0, 75, 62
1, 162684, Control_c, 0, 64, 73
1, 162699, Control_c, 0, 64, 66
1, 162704, Note_on_c, 0, 74, 54
1, 162713, Note_off_c, 0, 56, 40
1, 162713, Control_c, 0, 64, 63
1, 162728, Control_c, 0, 64, 65
1, 162743, Control_c, 0, 64, 67
1, 162748, Note_off_c, 0, 74, 61
1, 162758, Control_c, 0, 64, 69
1, 162773, Control_c, 0, 64, 73
1, 162778, Note_on_c, 0, 73, 51
1, 162788, Control_c, 0, 64, 80
1, 162802, Control_c, 0, 64, 90
1, 162809, Note_on_c, 0, 63, 34
1, 162817, Note_off_c, 0, 73, 64
1, 162817, Control_c, 0, 64, 103
1, 162818, Note_off_c, 0, 55, 61
1, 162832, Control_c, 0, 64, 119
1, 162839, Note_on_c, 0, 72, 40
1, 162847, Control_c, 0, 64, 127
1, 162868, Note_off_c, 0, 72, 53
1, 162876, Control_c, 0, 64, 119
1, 162891, Control_c, 0, 64, 116
1, 162895, Note_on_c, 0, 71, 41
1, 162906, Control_c, 0, 64, 113
1, 162908, Note_on_c, 0, 58, 42
1, 162921, Note_off_c, 0, 71, 57
1, 162921, Control_c, 0, 64, 111
1, 162936, Control_c, 0, 64, 109
1, 162950, Control_c, 0, 64, 107
1, 162956, Note_off_c, 0, 63, 31
1, 162965, Control_c, 0, 64, 106
1, 162966, Note_on_c, 0, 70, 29
1, 162980, Control_c, 0, 64, 105
1, 162994, Control_c, 0, 64, 104
1, 163000, Note_off_c, 0, 70, 49
1, 163007, Note_on_c, 0, 69, 44
1, 163009, Control_c, 0, 64, 103
1, 163024, Control_c, 0, 64, 102
1, 163035, Note_off_c, 0, 69, 57
1, 163039, Control_c, 0, 64, 100
1, 163050, Note_on_c, 0, 53, 45
1, 163054, Control_c, 0, 64, 95
1, 163068, Control_c, 0, 64, 86
1, 163071, Note_on_c, 0, 68, 47
1, 163083, Control_c, 0, 64, 75
1, 163095, Note_off_c, 0, 58, 33
1, 163098, Control_c, 0, 64, 68
1, 163110, Note_off_c, 0, 68, 55
1, 163113, Control_c, 0, 64, 65
1, 163128, Control_c, 0, 64, 66
1, 163139, Note_on_c, 0, 69, 43
1, 163143, Control_c, 0, 64, 68
1, 163158, Control_c, 0, 64, 71
1, 163180, Control_c, 0, 64, 76
1, 163184, Note_off_c, 0, 69, 51
1, 163195, Control_c, 0, 64, 83
1, 163209, Control_c, 0, 64, 92
1, 163220, Note_on_c, 0, 61, 41
1, 163224, Control_c, 0, 64, 104
1, 163236, Note_on_c, 0, 70, 48
1, 163239, Control_c, 0, 64, 127
1, 163262, Note_off_c, 0, 70, 57
1, 163295, Note_on_c, 0, 71, 50
1, 163321, Note_off_c, 0, 71, 58
1, 163336, Note_on_c, 0, 72, 59
1, 163345, Note_on_c, 0, 56, 37
1, 163357, Control_c, 0, 64, 123
1, 163372, Control_c, 0, 64, 118
1, 163387, Control_c, 0, 64, 114
1, 163400, Note_off_c, 0, 72, 57
1, 163402, Control_c, 0, 64, 111
1, 163405, Note_on_c, 0, 75, 61
1, 163417, Control_c, 0, 64, 109
1, 163432, Control_c, 0, 64, 107
1, 163447, Control_c, 0, 64, 106
1, 163450, Note_on_c, 0, 73, 59
1, 163462, Control_c, 0, 64, 105
1, 163471, Note_on_c, 0, 52, 43
1, 163477, Control_c, 0, 64, 103
1, 163485, Note_off_c, 0, 75, 46
1, 163492, Control_c, 0, 64, 101
1, 163506, Control_c, 0, 64, 98
1, 163521, Control_c, 0, 64, 93
1, 163523, Note_on_c, 0, 72, 58
1, 163536, Note_off_c, 0, 73, 58
1, 163536, Control_c, 0, 64, 86
1, 163551, Control_c, 0, 64, 76
1, 163562, Note_off_c, 0, 72, 64
1, 163566, Control_c, 0, 64, 67
1, 163577, Note_off_c, 0, 61, 40
1, 163581, Control_c, 0, 64, 61
1, 163582, Note_on_c, 0, 71, 57
1, 163596, Control_c, 0, 64, 62
1, 163611, Control_c, 0, 64, 64
1, 163624, Note_off_c, 0, 71, 63
1, 163625, Control_c, 0, 64, 66
1, 163640, Control_c, 0, 64, 69
1, 163647, Note_on_c, 0, 60, 32
1, 163649, Note_on_c, 0, 70, 53
1, 163655, Control_c, 0, 64, 73
1, 163667, Note_off_c, 0, 52, 60
1, 163670, Control_c, 0, 64, 80
1, 163685, Control_c, 0, 64, 90
1, 163685, Note_off_c, 0, 70, 66
1, 163699, Control_c, 0, 64, 99
1, 163706, Note_on_c, 0, 69, 56
1, 163714, Control_c, 0, 64, 103
1, 163729, Control_c, 0, 64, 102
1, 163734, Note_off_c, 0, 56, 22
1, 163743, Control_c, 0, 64, 100
1, 163748, Note_off_c, 0, 69, 60
1, 163749, Note_on_c, 0, 55, 42
1, 163758, Control_c, 0, 64, 99
1, 163773, Control_c, 0, 64, 99
1, 163784, Note_on_c, 0, 68, 44
1, 163788, Control_c, 0, 64, 98
1, 163803, Control_c, 0, 64, 97
1, 163814, Note_off_c, 0, 68, 53
1, 163817, Control_c, 0, 64, 96
1, 163832, Control_c, 0, 64, 95
1, 163833, Note_off_c, 0, 60, 40
1, 163847, Control_c, 0, 64, 93
1, 163848, Note_on_c, 0, 67, 45
1, 163862, Control_c, 0, 64, 92
1, 163873, Note_on_c, 0, 51, 49
1, 163877, Control_c, 0, 64, 91
1, 163882, Note_off_c, 0, 67, 58
1, 163891, Control_c, 0, 64, 88
1, 163900, Note_on_c, 0, 66, 47
1, 163906, Control_c, 0, 64, 84
1, 163929, Control_c, 0, 64, 76
1, 163944, Control_c, 0, 64, 68
1, 163946, Note_off_c, 0, 66, 55
1, 163958, Control_c, 0, 64, 60
1, 163962, Note_off_c, 0, 55, 40
1, 163973, Control_c, 0, 64, 56
1, 163975, Note_on_c, 0, 65, 48
1, 163977, Note_off_c, 0, 53, 1
1, 163988, Control_c, 0, 64, 59
1, 164003, Control_c, 0, 64, 62
1, 164018, Control_c, 0, 64, 64
1, 164022, Note_off_c, 0, 65, 61
1, 164032, Control_c, 0, 64, 67
1, 164043, Note_on_c, 0, 60, 37
1, 164047, Control_c, 0, 64, 71
1, 164055, Note_on_c, 0, 64, 47
1, 164062, Control_c, 0, 64, 76
1, 164077, Control_c, 0, 64, 83
1, 164092, Control_c, 0, 64, 89
1, 164093, Note_off_c, 0, 64, 64
1, 164106, Control_c, 0, 64, 90
1, 164120, Note_on_c, 0, 65, 35
1, 164129, Note_off_c, 0, 51, 37
1, 164150, Note_off_c, 0, 65, 53
1, 164166, Note_on_c, 0, 66, 39
1, 164177, Note_on_c, 0, 57, 33
1, 164197, Note_off_c, 0, 66, 52
1, 164210, Control_c, 0, 64, 90
1, 164238, Note_on_c, 0, 67, 48
1, 164241, Control_c, 0, 64, 89
1, 164243, Note_off_c, 0, 60, 27
1, 164255, Control_c, 0, 64, 89
1, 164265, Note_off_c, 0, 67, 57
1, 164297, Note_on_c, 0, 50, 39
1, 164307, Note_on_c, 0, 68, 54
1, 164329, Control_c, 0, 64, 88
1, 164344, Control_c, 0, 64, 86
1, 164346, Note_off_c, 0, 68, 63
1, 164352, Note_off_c, 0, 57, 43
1, 164359, Control_c, 0, 64, 79
1, 164373, Control_c, 0, 64, 72
1, 164381, Note_on_c, 0, 69, 48
1, 164388, Control_c, 0, 64, 66
1, 164403, Control_c, 0, 64, 65
1, 164411, Note_off_c, 0, 69, 59
1, 164418, Control_c, 0, 64, 66
1, 164433, Control_c, 0, 64, 68
1, 164441, Note_on_c, 0, 70, 57
1, 164447, Control_c, 0, 64, 71
1, 164462, Control_c, 0, 64, 77
1, 164465, Note_on_c, 0, 58, 37
1, 164475, Note_off_c, 0, 70, 66
1, 164477, Control_c, 0, 64, 85
1, 164492, Control_c, 0, 64, 97
1, 164505, Note_on_c, 0, 71, 62
1, 164507, Control_c, 0, 64, 123
1, 164521, Control_c, 0, 64, 127
1, 164540, Note_off_c, 0, 50, 40
1, 164550, Note_off_c, 0, 71, 58
1, 164563, Note_on_c, 0, 72, 66
1, 164574, Note_on_c, 0, 53, 41
1, 164622, Note_on_c, 0, 73, 65
1, 164623, Note_off_c, 0, 72, 63
1, 164651, Note_off_c, 0, 73, 68
1, 164684, Note_on_c, 0, 74, 69
1, 164723, Note_on_c, 0, 49, 39
1, 164745, Note_off_c, 0, 74, 61
1, 164751, Control_c, 0, 64, 119
1, 164758, Note_on_c, 0, 75, 78
1, 164766, Control_c, 0, 64, 115
1, 164780, Control_c, 0, 64, 111
1, 164788, Note_off_c, 0, 53, 32
1, 164795, Control_c, 0, 64, 109
1, 164810, Control_c, 0, 64, 107
1, 164825, Note_off_c, 0, 75, 62
1, 164825, Control_c, 0, 64, 104
1, 164829, Note_on_c, 0, 76, 81
1, 164840, Control_c, 0, 64, 101
1, 164843, Note_off_c, 0, 58, 40
1, 164854, Control_c, 0, 64, 96
1, 164869, Control_c, 0, 64, 88
1, 164884, Control_c, 0, 64, 79
1, 164898, Note_on_c, 0, 77, 73
1, 164899, Control_c, 0, 64, 70
1, 164911, Note_off_c, 0, 76, 60
1, 164914, Note_on_c, 0, 59, 41
1, 164914, Control_c, 0, 64, 61
1, 164928, Control_c, 0, 64, 56
1, 164943, Control_c, 0, 64, 58
1, 164952, Note_on_c, 0, 78, 76
1, 164958, Control_c, 0, 64, 59
1, 164973, Control_c, 0, 64, 61
1, 164988, Control_c, 0, 64, 63
1, 165003, Control_c, 0, 64, 65
1, 165008, Note_off_c, 0, 77, 49
1, 165019, Control_c, 0, 64, 68
1, 165034, Control_c, 0, 64, 71
1, 165049, Note_on_c, 0, 79, 70
1, 165049, Control_c, 0, 64, 78
1, 165064, Control_c, 0, 64, 91
1, 165078, Control_c, 0, 64, 121
1, 165086, Note_off_c, 0, 78, 61
1, 165093, Control_c, 0, 64, 127
1, 165098, Note_on_c, 0, 53, 41
1, 165134, Note_on_c, 0, 80, 71
1, 165134, Note_off_c, 0, 59, 48
1, 165153, Note_off_c, 0, 53, 62
1, 165158, Note_off_c, 0, 79, 63
1, 165176, Note_off_c, 0, 49, 42
1, 165209, Note_off_c, 0, 80, 61
1, 165222, Note_on_c, 0, 71, 66
1, 165331, Control_c, 0, 64, 110
1, 165345, Control_c, 0, 64, 90
1, 165348, Note_on_c, 0, 36, 50
1, 165356, Note_on_c, 0, 73, 65
1, 165360, Control_c, 0, 64, 74
1, 165367, Note_on_c, 0, 68, 51
1, 165372, Note_on_c, 0, 65, 36
1, 165375, Control_c, 0, 64, 62
1, 165389, Control_c, 0, 64, 49
1, 165404, Control_c, 0, 64, 54
1, 165426, Control_c, 0, 64, 59
1, 165441, Control_c, 0, 64, 63
1, 165451, Note_off_c, 0, 68, 55
1, 165456, Control_c, 0, 64, 66
1, 165471, Note_off_c, 0, 65, 57
1, 165471, Control_c, 0, 64, 72
1, 165478, Note_off_c, 0, 73, 57
1, 165486, Control_c, 0, 64, 87
1, 165487, Note_on_c, 0, 72, 62
1, 165501, Control_c, 0, 64, 127
1, 165519, Note_off_c, 0, 36, 61
1, 165533, Note_off_c, 0, 71, 39
1, 165594, Note_off_c, 0, 72, 64
1, 165599, Note_on_c, 0, 71, 60
1, 165681, Note_off_c, 0, 71, 62
1, 165694, Note_on_c, 0, 72, 75
1, 165772, Note_off_c, 0, 72, 64
1, 165775, Note_on_c, 0, 71, 76
1, 165855, Note_on_c, 0, 72, 74
1, 165870, Note_off_c, 0, 71, 55
1, 165872, Control_c, 0, 64, 117
1, 165887, Control_c, 0, 64, 109
1, 165901, Control_c, 0, 64, 103
1, 165916, Control_c, 0, 64, 98
1, 165931, Control_c, 0, 64, 94
1, 165939, Note_on_c, 0, 56, 49
1, 165946, Control_c, 0, 64, 90
1, 165961, Control_c, 0, 64, 86
1, 165963, Note_on_c, 0, 73, 66
1, 165975, Control_c, 0, 64, 82
1, 165982, Note_off_c, 0, 72, 51
1, 165990, Control_c, 0, 64, 79
1, 166005, Control_c, 0, 64, 75
1, 166019, Control_c, 0, 64, 71
1, 166034, Control_c, 0, 64, 66
1, 166035, Note_off_c, 0, 73, 66
1, 166049, Control_c, 0, 64, 61
1, 166057, Note_on_c, 0, 74, 67
1, 166064, Control_c, 0, 64, 57
1, 166079, Control_c, 0, 64, 57
1, 166094, Control_c, 0, 64, 58
1, 166109, Control_c, 0, 64, 59
1, 166124, Control_c, 0, 64, 61
1, 166133, Note_on_c, 0, 75, 71
1, 166138, Note_on_c, 0, 65, 40
1, 166138, Control_c, 0, 64, 64
1, 166139, Note_off_c, 0, 74, 59
1, 166153, Control_c, 0, 64, 66
1, 166175, Control_c, 0, 64, 69
1, 166190, Control_c, 0, 64, 73
1, 166205, Control_c, 0, 64, 82
1, 166216, Note_on_c, 0, 76, 64
1, 166219, Control_c, 0, 64, 96
1, 166225, Note_off_c, 0, 75, 58
1, 166234, Control_c, 0, 64, 127
1, 166273, Note_on_c, 0, 79, 73
1, 166275, Note_off_c, 0, 76, 63
1, 166292, Note_on_c, 0, 60, 45
1, 166323, Control_c, 0, 64, 121
1, 166336, Note_on_c, 0, 77, 72
1, 166338, Control_c, 0, 64, 115
1, 166353, Control_c, 0, 64, 111
1, 166365, Note_off_c, 0, 79, 64
1, 166368, Control_c, 0, 64, 109
1, 166383, Control_c, 0, 64, 107
1, 166394, Note_on_c, 0, 76, 68
1, 166398, Control_c, 0, 64, 105
1, 166413, Control_c, 0, 64, 103
1, 166413, Note_off_c, 0, 65, 36
1, 166425, Note_off_c, 0, 77, 63
1, 166427, Control_c, 0, 64, 100
1, 166438, Note_on_c, 0, 55, 42
1, 166442, Control_c, 0, 64, 97
1, 166453, Note_on_c, 0, 75, 71
1, 166457, Control_c, 0, 64, 92
1, 166458, Note_off_c, 0, 76, 62
1, 166472, Control_c, 0, 64, 83
1, 166482, Note_off_c, 0, 60, 42
1, 166487, Control_c, 0, 64, 72
1, 166493, Note_off_c, 0, 75, 60
1, 166501, Control_c, 0, 64, 62
1, 166511, Note_on_c, 0, 74, 54
1, 166516, Control_c, 0, 64, 56
1, 166531, Control_c, 0, 64, 60
1, 166538, Note_off_c, 0, 56, 38
1, 166545, Control_c, 0, 64, 63
1, 166560, Control_c, 0, 64, 65
1, 166573, Note_off_c, 0, 74, 58
1, 166575, Control_c, 0, 64, 66
1, 166583, Note_on_c, 0, 73, 57
1, 166590, Control_c, 0, 64, 70
1, 166605, Control_c, 0, 64, 75
1, 166609, Note_on_c, 0, 63, 35
1, 166621, Control_c, 0, 64, 82
1, 166634, Note_off_c, 0, 73, 58
1, 166636, Control_c, 0, 64, 90
1, 166647, Note_on_c, 0, 72, 54
1, 166650, Control_c, 0, 64, 94
1, 166655, Note_off_c, 0, 55, 62
1, 166665, Control_c, 0, 64, 93
1, 166670, Note_off_c, 0, 72, 62
1, 166695, Control_c, 0, 64, 93
1, 166708, Note_on_c, 0, 71, 53
1, 166714, Note_on_c, 0, 58, 44
1, 166724, Control_c, 0, 64, 92
1, 166739, Control_c, 0, 64, 91
1, 166747, Note_off_c, 0, 71, 64
1, 166754, Control_c, 0, 64, 90
1, 166784, Control_c, 0, 64, 90
1, 166785, Note_on_c, 0, 70, 39
1, 166790, Note_off_c, 0, 63, 39
1, 166798, Control_c, 0, 64, 89
1, 166813, Control_c, 0, 64, 88
1, 166815, Note_off_c, 0, 70, 53
1, 166828, Control_c, 0, 64, 87
1, 166839, Note_on_c, 0, 69, 41
1, 166842, Control_c, 0, 64, 85
1, 166857, Control_c, 0, 64, 80
1, 166868, Note_off_c, 0, 69, 54
1, 166872, Control_c, 0, 64, 72
1, 166877, Note_on_c, 0, 53, 46
1, 166887, Control_c, 0, 64, 64
1, 166893, Note_off_c, 0, 58, 49
1, 166897, Note_on_c, 0, 68, 47
1, 166902, Control_c, 0, 64, 60
1, 166924, Control_c, 0, 64, 60
1, 166939, Control_c, 0, 64, 62
1, 166944, Note_off_c, 0, 68, 61
1, 166954, Control_c, 0, 64, 63
1, 166969, Control_c, 0, 64, 65
1, 166973, Note_on_c, 0, 69, 50
1, 166983, Control_c, 0, 64, 68
1, 166998, Control_c, 0, 64, 71
1, 167013, Note_off_c, 0, 69, 60
1, 167013, Control_c, 0, 64, 77
1, 167028, Control_c, 0, 64, 84
1, 167041, Note_on_c, 0, 61, 39
1, 167042, Control_c, 0, 64, 91
1, 167057, Control_c, 0, 64, 96
1, 167062, Note_on_c, 0, 70, 48
1, 167072, Control_c, 0, 64, 96
1, 167086, Note_off_c, 0, 70, 58
1, 167087, Control_c, 0, 64, 96
1, 167117, Control_c, 0, 64, 95
1, 167121, Note_on_c, 0, 71, 50
1, 167131, Control_c, 0, 64, 95
1, 167146, Control_c, 0, 64, 94
1, 167148, Note_off_c, 0, 71, 56
1, 167160, Note_on_c, 0, 72, 59
1, 167161, Control_c, 0, 64, 93
1, 167165, Note_on_c, 0, 56, 36
1, 167176, Control_c, 0, 64, 92
1, 167191, Control_c, 0, 64, 91
1, 167206, Control_c, 0, 64, 91
1, 167221, Control_c, 0, 64, 90
1, 167221, Note_off_c, 0, 72, 59
1, 167229, Note_on_c, 0, 75, 57
1, 167250, Control_c, 0, 64, 90
1, 167265, Control_c, 0, 64, 89
1, 167268, Note_on_c, 0, 73, 60
1, 167280, Control_c, 0, 64, 87
1, 167288, Note_on_c, 0, 52, 43
1, 167295, Control_c, 0, 64, 83
1, 167300, Note_off_c, 0, 75, 41
1, 167310, Control_c, 0, 64, 76
1, 167324, Control_c, 0, 64, 68
1, 167339, Control_c, 0, 64, 62
1, 167342, Note_on_c, 0, 72, 57
1, 167353, Note_off_c, 0, 73, 59
1, 167367, Note_off_c, 0, 53, 21
1, 167368, Control_c, 0, 64, 63
1, 167378, Note_off_c, 0, 72, 65
1, 167383, Control_c, 0, 64, 64
1, 167385, Note_off_c, 0, 61, 44
1, 167398, Control_c, 0, 64, 66
1, 167404, Note_on_c, 0, 71, 57
1, 167414, Control_c, 0, 64, 69
1, 167429, Control_c, 0, 64, 72
1, 167444, Control_c, 0, 64, 78
1, 167449, Note_off_c, 0, 71, 63
1, 167452, Note_on_c, 0, 60, 40
1, 167459, Control_c, 0, 64, 85
1, 167468, Note_on_c, 0, 70, 55
1, 167473, Control_c, 0, 64, 92
1, 167488, Control_c, 0, 64, 95
1, 167492, Note_off_c, 0, 56, 28
1, 167501, Note_off_c, 0, 70, 66
1, 167503, Control_c, 0, 64, 96
1, 167510, Note_off_c, 0, 52, 63
1, 167518, Control_c, 0, 64, 95
1, 167532, Note_on_c, 0, 69, 54
1, 167533, Control_c, 0, 64, 95
1, 167562, Control_c, 0, 64, 94
1, 167571, Note_on_c, 0, 55, 47
1, 167572, Note_off_c, 0, 69, 63
1, 167577, Control_c, 0, 64, 93
1, 167591, Control_c, 0, 64, 93
1, 167604, Note_on_c, 0, 68, 48
1, 167606, Control_c, 0, 64, 92
1, 167621, Control_c, 0, 64, 92
1, 167630, Note_off_c, 0, 68, 56
1, 167631, Note_off_c, 0, 60, 36
1, 167636, Control_c, 0, 64, 91
1, 167651, Control_c, 0, 64, 91
1, 167673, Control_c, 0, 64, 90
1, 167682, Note_on_c, 0, 67, 42
1, 167688, Control_c, 0, 64, 89
1, 167701, Note_on_c, 0, 51, 47
1, 167703, Control_c, 0, 64, 88
1, 167718, Control_c, 0, 64, 85
1, 167722, Note_off_c, 0, 67, 58
1, 167727, Note_on_c, 0, 66, 46
1, 167733, Control_c, 0, 64, 81
1, 167747, Control_c, 0, 64, 74
1, 167757, Note_off_c, 0, 55, 29
1, 167762, Control_c, 0, 64, 67
1, 167767, Note_off_c, 0, 66, 47
1, 167777, Control_c, 0, 64, 61
1, 167792, Control_c, 0, 64, 60
1, 167795, Note_on_c, 0, 65, 56
1, 167806, Control_c, 0, 64, 61
1, 167821, Control_c, 0, 64, 63
1, 167836, Control_c, 0, 64, 65
1, 167844, Note_off_c, 0, 65, 58
1, 167851, Control_c, 0, 64, 67
1, 167866, Control_c, 0, 64, 69
1, 167868, Note_on_c, 0, 60, 36
1, 167880, Control_c, 0, 64, 73
1, 167884, Note_on_c, 0, 64, 46
1, 167895, Control_c, 0, 64, 80
1, 167910, Control_c, 0, 64, 88
1, 167918, Note_off_c, 0, 64, 63
1, 167925, Control_c, 0, 64, 93
1, 167926, Note_on_c, 0, 65, 39
1, 167940, Control_c, 0, 64, 93
1, 167959, Note_off_c, 0, 51, 37
1, 167967, Note_off_c, 0, 65, 50
1, 167984, Control_c, 0, 64, 93
1, 167986, Note_on_c, 0, 66, 46
1, 167989, Note_on_c, 0, 57, 42
1, 167997, Note_off_c, 0, 60, 37
1, 168010, Note_off_c, 0, 66, 57
1, 168012, Control_c, 0, 64, 92
1, 168057, Note_on_c, 0, 67, 53
1, 168083, Note_off_c, 0, 67, 58
1, 168101, Control_c, 0, 64, 92
1, 168116, Control_c, 0, 64, 90
1, 168122, Note_on_c, 0, 68, 56
1, 168129, Note_on_c, 0, 50, 41
1, 168131, Control_c, 0, 64, 87
1, 168145, Control_c, 0, 64, 79
1, 168157, Note_off_c, 0, 68, 62
1, 168160, Control_c, 0, 64, 71
1, 168174, Note_off_c, 0, 57, 29
1, 168175, Control_c, 0, 64, 65
1, 168189, Control_c, 0, 64, 66
1, 168191, Note_on_c, 0, 69, 55
1, 168204, Control_c, 0, 64, 70
1, 168217, Note_off_c, 0, 50, 64
1, 168220, Control_c, 0, 64, 75
1, 168223, Note_off_c, 0, 69, 65
1, 168235, Control_c, 0, 64, 83
1, 168250, Note_on_c, 0, 70, 60
1, 168250, Control_c, 0, 64, 97
1, 168265, Control_c, 0, 64, 127
1, 168284, Note_off_c, 0, 70, 67
1, 168290, Note_on_c, 0, 65, 55
1, 168307, Note_on_c, 0, 71, 64
1, 168345, Note_off_c, 0, 71, 60
1, 168353, Note_on_c, 0, 72, 67
1, 168419, Note_on_c, 0, 73, 74
1, 168422, Note_off_c, 0, 72, 64
1, 168431, Note_on_c, 0, 58, 53
1, 168435, Note_off_c, 0, 65, 56
1, 168458, Note_off_c, 0, 73, 62
1, 168479, Note_off_c, 0, 58, 63
1, 168486, Note_on_c, 0, 74, 72
1, 168542, Note_off_c, 0, 74, 60
1, 168556, Note_on_c, 0, 75, 78
1, 168584, Note_on_c, 0, 49, 62
1, 168609, Note_off_c, 0, 75, 60
1, 168613, Control_c, 0, 64, 101
1, 168617, Note_on_c, 0, 76, 73
1, 168628, Control_c, 0, 64, 79
1, 168642, Control_c, 0, 64, 64
1, 168657, Control_c, 0, 64, 60
1, 168672, Control_c, 0, 64, 63
1, 168678, Note_on_c, 0, 77, 84
1, 168687, Control_c, 0, 64, 67
1, 168702, Control_c, 0, 64, 71
1, 168714, Note_off_c, 0, 76, 37
1, 168717, Control_c, 0, 64, 80
1, 168732, Note_off_c, 0, 49, 65
1, 168732, Control_c, 0, 64, 101
1, 168747, Note_on_c, 0, 78, 84
1, 168747, Control_c, 0, 64, 127
1, 168753, Note_off_c, 0, 77, 64
1, 168790, Note_off_c, 0, 78, 67
1, 168798, Note_on_c, 0, 65, 58
1, 168812, Note_on_c, 0, 79, 80
1, 168890, Note_on_c, 0, 80, 84
1, 168901, Note_off_c, 0, 79, 54
1, 168931, Note_on_c, 0, 59, 47
1, 168955, Note_off_c, 0, 65, 38
1, 168960, Note_on_c, 0, 56, 47
1, 168969, Note_off_c, 0, 80, 65
1, 168977, Note_on_c, 0, 81, 77
1, 168993, Note_off_c, 0, 59, 61
1, 169018, Note_off_c, 0, 56, 64
1, 169058, Note_on_c, 0, 82, 87
1, 169076, Note_off_c, 0, 81, 60
1, 169145, Note_off_c, 0, 82, 65
1, 169150, Note_on_c, 0, 83, 80
1, 169171, Note_on_c, 0, 48, 59
1, 169230, Control_c, 0, 64, 121
1, 169244, Control_c, 0, 64, 115
1, 169254, Note_on_c, 0, 84, 80
1, 169259, Control_c, 0, 64, 109
1, 169274, Control_c, 0, 64, 99
1, 169289, Control_c, 0, 64, 85
1, 169304, Control_c, 0, 64, 69
1, 169310, Note_off_c, 0, 83, 51
1, 169318, Control_c, 0, 64, 57
1, 169333, Control_c, 0, 64, 44
1, 169341, Note_off_c, 0, 84, 63
1, 169348, Control_c, 0, 64, 48
1, 169351, Note_on_c, 0, 92, 77
1, 169352, Note_on_c, 0, 56, 49
1, 169363, Control_c, 0, 64, 53
1, 169378, Control_c, 0, 64, 58
1, 169392, Control_c, 0, 64, 62
1, 169407, Control_c, 0, 64, 65
1, 169422, Control_c, 0, 64, 69
1, 169426, Note_off_c, 0, 48, 57
1, 169427, Note_on_c, 0, 91, 75
1, 169436, Control_c, 0, 64, 75
1, 169451, Control_c, 0, 64, 87
1, 169466, Control_c, 0, 64, 117
1, 169474, Note_off_c, 0, 92, 64
1, 169481, Control_c, 0, 64, 127
1, 169482, Note_off_c, 0, 56, 55
1, 169491, Note_on_c, 0, 60, 58
1, 169500, Note_on_c, 0, 90, 79
1, 169535, Note_off_c, 0, 91, 64
1, 169570, Note_on_c, 0, 89, 72
1, 169578, Note_off_c, 0, 90, 65
1, 169625, Note_on_c, 0, 88, 76
1, 169625, Note_off_c, 0, 89, 62
1, 169636, Note_on_c, 0, 65, 69
1, 169659, Note_off_c, 0, 60, 62
1, 169678, Note_off_c, 0, 88, 64
1, 169703, Note_on_c, 0, 87, 74
1, 169710, Note_off_c, 0, 65, 61
1, 169746, Note_off_c, 0, 87, 60
1, 169767, Note_on_c, 0, 86, 72
1, 169820, Note_off_c, 0, 86, 57
1, 169831, Note_on_c, 0, 85, 70
1, 169891, Note_off_c, 0, 85, 63
1, 169897, Note_on_c, 0, 84, 68
1, 169944, Note_off_c, 0, 84, 62
1, 169972, Note_on_c, 0, 83, 61
1, 170023, Control_c, 0, 64, 123
1, 170036, Note_off_c, 0, 83, 59
1, 170038, Control_c, 0, 64, 115
1, 170046, Note_on_c, 0, 82, 67
1, 170047, Note_on_c, 0, 48, 49
1, 170052, Control_c, 0, 64, 111
1, 170067, Control_c, 0, 64, 109
1, 170082, Control_c, 0, 64, 107
1, 170097, Control_c, 0, 64, 105
1, 170112, Control_c, 0, 64, 101
1, 170124, Note_on_c, 0, 87, 67
1, 170124, Note_off_c, 0, 82, 57
1, 170127, Control_c, 0, 64, 93
1, 170141, Control_c, 0, 64, 80
1, 170156, Control_c, 0, 64, 68
1, 170171, Control_c, 0, 64, 59
1, 170185, Control_c, 0, 64, 52
1, 170194, Note_on_c, 0, 85, 66
1, 170200, Control_c, 0, 64, 56
1, 170215, Control_c, 0, 64, 60
1, 170219, Note_on_c, 0, 58, 55
1, 170230, Control_c, 0, 64, 64
1, 170237, Note_off_c, 0, 87, 60
1, 170244, Control_c, 0, 64, 67
1, 170258, Control_c, 0, 64, 73
1, 170266, Note_on_c, 0, 82, 69
1, 170273, Control_c, 0, 64, 83
1, 170288, Control_c, 0, 64, 101
1, 170301, Note_off_c, 0, 48, 35
1, 170303, Control_c, 0, 64, 127
1, 170310, Note_off_c, 0, 85, 63
1, 170331, Note_on_c, 0, 80, 77
1, 170350, Note_on_c, 0, 61, 58
1, 170352, Note_off_c, 0, 58, 60
1, 170356, Note_off_c, 0, 82, 62
1, 170392, Note_off_c, 0, 80, 63
1, 170396, Note_on_c, 0, 78, 77
1, 170452, Note_off_c, 0, 78, 63
1, 170481, Note_on_c, 0, 75, 79
1, 170485, Note_on_c, 0, 66, 69
1, 170516, Note_off_c, 0, 61, 56
1, 170545, Note_on_c, 0, 73, 79
1, 170569, Note_off_c, 0, 66, 62
1, 170577, Note_off_c, 0, 75, 61
1, 170623, Note_off_c, 0, 73, 60
1, 170625, Note_on_c, 0, 69, 78
1, 170706, Note_on_c, 0, 70, 82
1, 170714, Note_off_c, 0, 69, 62
1, 170780, Note_on_c, 0, 75, 85
1, 170789, Note_off_c, 0, 70, 63
1, 170851, Note_on_c, 0, 73, 79
1, 170896, Note_off_c, 0, 75, 59
1, 170904, Control_c, 0, 64, 101
1, 170919, Control_c, 0, 64, 81
1, 170921, Note_on_c, 0, 48, 56
1, 170931, Note_on_c, 0, 71, 83
1, 170934, Control_c, 0, 64, 66
1, 170940, Note_off_c, 0, 73, 64
1, 170949, Control_c, 0, 64, 46
1, 170963, Control_c, 0, 64, 40
1, 170978, Control_c, 0, 64, 54
1, 170993, Control_c, 0, 64, 62
1, 171007, Control_c, 0, 64, 67
1, 171011, Note_on_c, 0, 72, 83
1, 171015, Note_off_c, 0, 71, 64
1, 171022, Control_c, 0, 64, 76
1, 171034, Note_off_c, 0, 72, 70
1, 171037, Control_c, 0, 64, 97
1, 171052, Control_c, 0, 64, 127
1, 171142, Note_on_c, 0, 56, 63
1, 171160, Note_on_c, 0, 92, 78
1, 171222, Note_on_c, 0, 91, 80
1, 171273, Note_off_c, 0, 48, 36
1, 171297, Note_off_c, 0, 92, 63
1, 171299, Note_on_c, 0, 60, 76
1, 171299, Note_on_c, 0, 90, 82
1, 171306, Note_off_c, 0, 56, 62
1, 171333, Note_off_c, 0, 91, 64
1, 171365, Note_on_c, 0, 89, 87
1, 171393, Note_off_c, 0, 90, 64
1, 171442, Note_off_c, 0, 89, 62
1, 171443, Note_on_c, 0, 88, 86
1, 171450, Note_on_c, 0, 65, 79
1, 171470, Note_off_c, 0, 60, 60
1, 171495, Note_off_c, 0, 88, 65
1, 171514, Note_on_c, 0, 87, 90
1, 171528, Note_off_c, 0, 65, 64
1, 171582, Note_off_c, 0, 87, 65
1, 171584, Note_on_c, 0, 86, 88
1, 171649, Note_on_c, 0, 85, 89
1, 171657, Note_off_c, 0, 86, 60
1, 171720, Note_on_c, 0, 84, 89
1, 171734, Note_off_c, 0, 85, 65
1, 171778, Note_off_c, 0, 84, 64
1, 171779, Note_on_c, 0, 83, 81
1, 171823, Note_on_c, 0, 48, 63
1, 171853, Note_on_c, 0, 82, 85
1, 171865, Note_off_c, 0, 83, 60
1, 171904, Control_c, 0, 64, 105
1, 171919, Control_c, 0, 64, 79
1, 171927, Note_on_c, 0, 87, 88
1, 171934, Control_c, 0, 64, 63
1, 171945, Note_off_c, 0, 82, 63
1, 171949, Control_c, 0, 64, 35
1, 171964, Control_c, 0, 64, 36
1, 171978, Control_c, 0, 64, 51
1, 171983, Note_on_c, 0, 58, 70
1, 171993, Control_c, 0, 64, 59
1, 172002, Note_on_c, 0, 85, 80
1, 172008, Control_c, 0, 64, 65
1, 172014, Poly_aftertouch_c, 0, 51, 127
1, 172023, Control_c, 0, 64, 71
1, 172038, Control_c, 0, 64, 82
1, 172053, Control_c, 0, 64, 121
1, 172068, Control_c, 0, 64, 127
1, 172068, Note_on_c, 0, 82, 86
1, 172082, Note_off_c, 0, 87, 62
1, 172084, Note_off_c, 0, 48, 47
1, 172130, Poly_aftertouch_c, 0, 51, 0
1, 172137, Note_off_c, 0, 85, 64
1, 172138, Note_on_c, 0, 61, 62
1, 172139, Note_on_c, 0, 80, 89
1, 172169, Note_off_c, 0, 58, 60
1, 172182, Note_off_c, 0, 82, 62
1, 172217, Note_on_c, 0, 78, 88
1, 172228, Note_off_c, 0, 80, 62
1, 172285, Note_off_c, 0, 78, 63
1, 172311, Note_on_c, 0, 66, 70
1, 172316, Note_on_c, 0, 75, 89
1, 172350, Note_off_c, 0, 61, 49
1, 172396, Note_on_c, 0, 73, 89
1, 172416, Note_off_c, 0, 66, 63
1, 172440, Note_off_c, 0, 75, 60
1, 172483, Note_on_c, 0, 69, 89
1, 172504, Note_off_c, 0, 73, 63
1, 172578, Note_on_c, 0, 70, 91
1, 172606, Note_off_c, 0, 69, 61
1, 172682, Note_on_c, 0, 75, 91
1, 172710, Note_off_c, 0, 70, 61
1, 172787, Note_on_c, 0, 73, 88
1, 172850, Note_off_c, 0, 75, 60
1, 172920, Note_on_c, 0, 71, 86
1, 172928, Note_on_c, 0, 48, 70
1, 172948, Note_off_c, 0, 73, 63
1, 172958, Control_c, 0, 64, 106
1, 172973, Control_c, 0, 64, 80
1, 172987, Control_c, 0, 64, 62
1, 173002, Control_c, 0, 64, 0
1, 173018, Control_c, 0, 64, 15
1, 173033, Control_c, 0, 64, 50
1, 173048, Control_c, 0, 64, 63
1, 173050, Note_on_c, 0, 72, 88
1, 173056, Note_off_c, 0, 71, 66
1, 173063, Control_c, 0, 64, 72
1, 173078, Control_c, 0, 64, 92
1, 173083, Note_off_c, 0, 72, 67
1, 173092, Control_c, 0, 64, 127
1, 173214, Note_on_c, 0, 56, 56
1, 173224, Note_on_c, 0, 101, 77
1, 173227, Note_on_c, 0, 92, 67
1, 173252, Note_off_c, 0, 101, 66
1, 173254, Note_off_c, 0, 92, 65
1, 173285, Note_off_c, 0, 48, 32
1, 173319, Note_on_c, 0, 100, 80
1, 173366, Note_off_c, 0, 100, 65
1, 173405, Note_on_c, 0, 99, 76
1, 173414, Note_off_c, 0, 56, 60
1, 173415, Note_on_c, 0, 60, 72
1, 173420, Note_on_c, 0, 91, 66
1, 173438, Note_off_c, 0, 99, 64
1, 173450, Note_off_c, 0, 91, 66
1, 173504, Note_on_c, 0, 90, 83
1, 173507, Note_on_c, 0, 98, 80
1, 173530, Note_off_c, 0, 90, 63
1, 173539, Note_off_c, 0, 98, 64
1, 173597, Note_on_c, 0, 65, 71
1, 173597, Note_on_c, 0, 97, 77
1, 173603, Note_on_c, 0, 89, 78
1, 173627, Note_off_c, 0, 89, 69
1, 173638, Note_off_c, 0, 60, 59
1, 173638, Note_off_c, 0, 97, 62
1, 173701, Note_on_c, 0, 88, 82
1, 173719, Note_on_c, 0, 96, 55
1, 173732, Note_on_c, 0, 95, 54
1, 173734, Note_off_c, 0, 88, 63
1, 173740, Note_off_c, 0, 96, 63
1, 173755, Note_off_c, 0, 95, 59
1, 173814, Note_on_c, 0, 92, 77
1, 173831, Note_on_c, 0, 84, 57
1, 173842, Note_off_c, 0, 92, 67
1, 173850, Note_off_c, 0, 84, 62
1, 173865, Note_off_c, 0, 65, 36
1, 173913, Note_on_c, 0, 91, 85
1, 173916, Note_on_c, 0, 83, 77
1, 173939, Note_off_c, 0, 83, 71
1, 173945, Note_off_c, 0, 91, 62
1, 174021, Note_on_c, 0, 90, 82
1, 174025, Note_on_c, 0, 82, 77
1, 174042, Note_off_c, 0, 90, 70
1, 174056, Note_off_c, 0, 82, 60
1, 174130, Note_on_c, 0, 89, 89
1, 174135, Note_on_c, 0, 81, 74
1, 174160, Note_off_c, 0, 81, 67
1, 174177, Note_off_c, 0, 89, 62
1, 174254, Note_on_c, 0, 85, 81
1, 174263, Note_on_c, 0, 77, 71
1, 174291, Note_off_c, 0, 77, 67
1, 174306, Note_off_c, 0, 85, 64
1, 174386, Note_on_c, 0, 84, 91
1, 174416, Note_on_c, 0, 76, 50
1, 174438, Note_off_c, 0, 76, 60
1, 174446, Note_off_c, 0, 84, 63
1, 174535, Note_on_c, 0, 80, 89
1, 174554, Note_on_c, 0, 72, 61
1, 174577, Note_off_c, 0, 72, 65
1, 174618, Note_off_c, 0, 80, 61
1, 174688, Note_on_c, 0, 79, 87
1, 174698, Note_on_c, 0, 71, 72
1, 174737, Note_off_c, 0, 71, 61
1, 174853, Note_on_c, 0, 78, 83
1, 174859, Note_on_c, 0, 70, 70
1, 174890, Note_off_c, 0, 79, 63
1, 174931, Note_on_c, 0, 48, 63
1, 174959, Control_c, 0, 64, 87
1, 174974, Control_c, 0, 64, 64
1, 174989, Control_c, 0, 64, 0
1, 175033, Note_off_c, 0, 70, 59
1, 175036, Note_on_c, 0, 69, 76
1, 175048, Control_c, 0, 64, 30
1, 175048, Note_on_c, 0, 79, 59
1, 175050, Note_on_c, 0, 77, 72
1, 175062, Note_off_c, 0, 78, 64
1, 175063, Control_c, 0, 64, 64
1, 175078, Control_c, 0, 64, 92
1, 175080, Note_off_c, 0, 48, 63
1, 175093, Control_c, 0, 64, 127
1, 175115, Note_off_c, 0, 79, 62
1, 175156, Note_off_c, 0, 77, 57
1, 175171, Note_off_c, 0, 69, 58
1, 175230, Note_on_c, 0, 66, 77
1, 175239, Note_on_c, 0, 70, 60
1, 175247, Note_on_c, 0, 73, 63
1, 175329, Note_off_c, 0, 70, 57
1, 175334, Note_off_c, 0, 73, 57
1, 175411, Note_on_c, 0, 69, 76
1, 175437, Note_on_c, 0, 73, 61
1, 175525, Note_off_c, 0, 73, 49
1, 175547, Note_off_c, 0, 69, 60
1, 175591, Note_on_c, 0, 61, 53
1, 175600, Note_on_c, 0, 58, 45
1, 175603, Note_on_c, 0, 68, 72
1, 175621, Note_on_c, 0, 73, 65
1, 175695, Note_off_c, 0, 66, 54
1, 175727, Note_off_c, 0, 73, 56
1, 175728, Note_off_c, 0, 58, 51
1, 175762, Note_off_c, 0, 68, 59
1, 175808, Note_on_c, 0, 67, 79
1, 175826, Note_on_c, 0, 73, 71
1, 175966, Note_off_c, 0, 73, 59
1, 175978, Note_off_c, 0, 67, 60
1, 176002, Note_off_c, 0, 61, 49
1, 176035, Note_on_c, 0, 66, 77
1, 176059, Note_on_c, 0, 73, 62
1, 176204, Note_off_c, 0, 73, 39
1, 176211, Note_on_c, 0, 56, 40
1, 176221, Note_on_c, 0, 58, 41
1, 176259, Note_off_c, 0, 58, 63
1, 176270, Note_off_c, 0, 66, 29
1, 176274, Note_off_c, 0, 56, 62
1, 176362, Note_on_c, 0, 65, 70
1, 176377, Note_on_c, 0, 73, 62
1, 176443, Control_c, 0, 64, 114
1, 176458, Control_c, 0, 64, 106
1, 176473, Control_c, 0, 64, 100
1, 176488, Control_c, 0, 64, 95
1, 176502, Control_c, 0, 64, 91
1, 176517, Control_c, 0, 64, 85
1, 176532, Control_c, 0, 64, 76
1, 176547, Control_c, 0, 64, 65
1, 176559, Note_on_c, 0, 36, 51
1, 176562, Control_c, 0, 64, 12
1, 176576, Control_c, 0, 64, 0
1, 176636, Control_c, 0, 64, 24
1, 176658, Control_c, 0, 64, 57
1, 176667, Note_off_c, 0, 36, 63
1, 176673, Control_c, 0, 64, 69
1, 176688, Control_c, 0, 64, 79
1, 176702, Control_c, 0, 64, 103
1, 176717, Control_c, 0, 64, 127
1, 176721, Note_off_c, 0, 65, 38
1, 176774, Note_off_c, 0, 73, 39
1, 176778, Note_on_c, 0, 55, 52
1, 176928, Note_on_c, 0, 58, 54
1, 176954, Control_c, 0, 64, 123
1, 176969, Control_c, 0, 64, 121
1, 176983, Control_c, 0, 64, 117
1, 176986, Note_off_c, 0, 55, 49
1, 176999, Control_c, 0, 64, 115
1, 177014, Control_c, 0, 64, 112
1, 177029, Control_c, 0, 64, 109
1, 177044, Control_c, 0, 64, 107
1, 177059, Control_c, 0, 64, 106
1, 177074, Control_c, 0, 64, 105
1, 177088, Control_c, 0, 64, 104
1, 177091, Note_on_c, 0, 64, 58
1, 177118, Control_c, 0, 64, 103
1, 177132, Control_c, 0, 64, 102
1, 177147, Control_c, 0, 64, 100
1, 177149, Note_off_c, 0, 58, 56
1, 177162, Control_c, 0, 64, 99
1, 177177, Control_c, 0, 64, 99
1, 177207, Control_c, 0, 64, 98
1, 177221, Control_c, 0, 64, 96
1, 177236, Control_c, 0, 64, 94
1, 177251, Control_c, 0, 64, 93
1, 177266, Control_c, 0, 64, 92
1, 177514, Note_on_c, 0, 73, 43
1, 177645, Note_off_c, 0, 64, 37
1, 177702, Note_off_c, 0, 73, 47
1, 177797, Poly_aftertouch_c, 0, 59, 127
1, 177858, Poly_aftertouch_c, 0, 59, 0
1, 177863, Note_on_c, 0, 60, 31
1, 177867, Control_c, 0, 64, 92
1, 177926, Note_off_c, 0, 60, 45
1, 177941, Control_c, 0, 64, 91
1, 177952, Note_on_c, 0, 61, 33
1, 178000, Control_c, 0, 64, 91
1, 178007, Note_off_c, 0, 61, 61
1, 178041, Note_on_c, 0, 64, 32
1, 178114, Note_on_c, 0, 65, 34
1, 178142, Note_off_c, 0, 64, 36
1, 178181, Note_off_c, 0, 65, 43
1, 178201, Note_on_c, 0, 68, 22
1, 178243, Note_off_c, 0, 68, 42
1, 178250, Note_on_c, 0, 66, 37
1, 178289, Note_off_c, 0, 66, 46
1, 178321, Note_on_c, 0, 67, 21
1, 178363, Control_c, 0, 64, 91
1, 178366, Note_on_c, 0, 68, 40
1, 178368, Note_off_c, 0, 67, 44
1, 178397, Note_on_c, 0, 69, 41
1, 178412, Note_off_c, 0, 68, 61
1, 178430, Note_off_c, 0, 69, 53
1, 178467, Note_on_c, 0, 70, 43
1, 178504, Note_off_c, 0, 70, 49
1, 178519, Note_on_c, 0, 73, 36
1, 178549, Note_off_c, 0, 73, 53
1, 178567, Note_on_c, 0, 71, 52
1, 178611, Note_off_c, 0, 71, 62
1, 178630, Note_on_c, 0, 63, 18
1, 178646, Note_on_c, 0, 72, 51
1, 178680, Note_off_c, 0, 72, 57
1, 178682, Note_off_c, 0, 63, 46
1, 178694, Poly_aftertouch_c, 0, 64, 127
1, 178699, Note_on_c, 0, 73, 46
1, 178721, Note_on_c, 0, 65, 41
1, 178730, Poly_aftertouch_c, 0, 64, 0
1, 178732, Note_off_c, 0, 73, 66
1, 178749, Note_off_c, 0, 65, 54
1, 178778, Note_on_c, 0, 76, 62
1, 178806, Note_on_c, 0, 67, 39
1, 178807, Control_c, 0, 64, 92
1, 178814, Note_off_c, 0, 76, 65
1, 178834, Note_off_c, 0, 67, 54
1, 178848, Note_on_c, 0, 77, 47
1, 178852, Control_c, 0, 64, 92
1, 178873, Note_off_c, 0, 77, 55
1, 178897, Note_on_c, 0, 80, 57
1, 178918, Control_c, 0, 64, 93
1, 178939, Note_off_c, 0, 80, 66
1, 178963, Note_on_c, 0, 78, 57
1, 178963, Control_c, 0, 64, 93
1, 178983, Note_off_c, 0, 78, 64
1, 179007, Control_c, 0, 64, 94
1, 179016, Note_on_c, 0, 79, 55
1, 179037, Note_on_c, 0, 70, 30
1, 179041, Note_off_c, 0, 79, 59
1, 179045, Poly_aftertouch_c, 0, 69, 127
1, 179052, Control_c, 0, 64, 94
1, 179067, Poly_aftertouch_c, 0, 69, 0
1, 179070, Note_on_c, 0, 71, 54
1, 179072, Note_off_c, 0, 70, 46
1, 179074, Note_on_c, 0, 80, 60
1, 179082, Control_c, 0, 64, 95
1, 179096, Note_off_c, 0, 80, 60
1, 179099, Note_off_c, 0, 71, 58
1, 179111, Control_c, 0, 64, 95
1, 179126, Control_c, 0, 64, 96
1, 179132, Note_on_c, 0, 81, 61
1, 179165, Note_off_c, 0, 81, 62
1, 179184, Note_on_c, 0, 73, 40
1, 179200, Control_c, 0, 64, 96
1, 179204, Note_on_c, 0, 85, 64
1, 179213, Note_off_c, 0, 73, 51
1, 179242, Note_off_c, 0, 85, 60
1, 179252, Note_on_c, 0, 77, 58
1, 179266, Note_on_c, 0, 83, 65
1, 179273, Control_c, 0, 64, 96
1, 179286, Note_off_c, 0, 77, 50
1, 179301, Note_off_c, 0, 83, 63
1, 179314, Note_on_c, 0, 75, 56
1, 179317, Control_c, 0, 64, 95
1, 179324, Note_on_c, 0, 84, 66
1, 179347, Control_c, 0, 64, 95
1, 179350, Note_on_c, 0, 76, 55
1, 179351, Note_off_c, 0, 75, 51
1, 179362, Control_c, 0, 64, 94
1, 179371, Note_off_c, 0, 84, 51
1, 179377, Control_c, 0, 64, 93
1, 179379, Note_on_c, 0, 85, 64
1, 179379, Note_off_c, 0, 76, 61
1, 179392, Control_c, 0, 64, 93
1, 179407, Control_c, 0, 64, 92
1, 179408, Note_off_c, 0, 85, 67
1, 179413, Note_on_c, 0, 77, 50
1, 179422, Control_c, 0, 64, 91
1, 179437, Control_c, 0, 64, 91
1, 179440, Note_on_c, 0, 88, 73
1, 179443, Note_off_c, 0, 77, 52
1, 179452, Control_c, 0, 64, 90
1, 179466, Note_on_c, 0, 79, 60
1, 179466, Control_c, 0, 64, 89
1, 179481, Control_c, 0, 64, 87
1, 179490, Note_off_c, 0, 88, 62
1, 179496, Control_c, 0, 64, 85
1, 179499, Note_on_c, 0, 89, 72
1, 179511, Control_c, 0, 64, 81
1, 179514, Note_off_c, 0, 79, 63
1, 179526, Control_c, 0, 64, 79
1, 179529, Note_on_c, 0, 80, 61
1, 179530, Note_off_c, 0, 89, 63
1, 179541, Control_c, 0, 64, 77
1, 179555, Note_on_c, 0, 92, 72
1, 179556, Control_c, 0, 64, 76
1, 179560, Note_off_c, 0, 80, 67
1, 179570, Control_c, 0, 64, 75
1, 179585, Control_c, 0, 64, 73
1, 179589, Note_on_c, 0, 84, 65
1, 179600, Control_c, 0, 64, 70
1, 179605, Note_off_c, 0, 92, 63
1, 179615, Note_on_c, 0, 90, 66
1, 179615, Control_c, 0, 64, 68
1, 179630, Control_c, 0, 64, 68
1, 179636, Note_off_c, 0, 84, 60
1, 179658, Note_on_c, 0, 81, 51
1, 179664, Note_off_c, 0, 90, 64
1, 179681, Control_c, 0, 64, 67
1, 179682, Note_on_c, 0, 91, 68
1, 179696, Control_c, 0, 64, 67
1, 179701, Note_off_c, 0, 81, 60
1, 179711, Control_c, 0, 64, 66
1, 179718, Note_off_c, 0, 91, 59
1, 179725, Control_c, 0, 64, 66
1, 179740, Note_on_c, 0, 92, 73
1, 179740, Control_c, 0, 64, 65
1, 179754, Note_on_c, 0, 83, 36
1, 179755, Control_c, 0, 64, 65
1, 179770, Control_c, 0, 64, 64
1, 179786, Note_off_c, 0, 92, 62
1, 179800, Control_c, 0, 64, 64
1, 179806, Note_on_c, 0, 93, 70
1, 179815, Control_c, 0, 64, 63
1, 179830, Control_c, 0, 64, 63
1, 179839, Note_on_c, 0, 84, 59
1, 179845, Control_c, 0, 64, 62
1, 179848, Note_off_c, 0, 83, 59
1, 179859, Note_off_c, 0, 93, 60
1, 179859, Control_c, 0, 64, 60
1, 179872, Note_on_c, 0, 94, 70
1, 179874, Control_c, 0, 64, 57
1, 179889, Control_c, 0, 64, 52
1, 179892, Note_on_c, 0, 85, 61
1, 179895, Note_off_c, 0, 84, 62
1, 179904, Control_c, 0, 64, 45
1, 179919, Control_c, 0, 64, 32
1, 179925, Note_off_c, 0, 94, 61
1, 179933, Control_c, 0, 64, 18
1, 179948, Control_c, 0, 64, 0
1, 179952, Note_on_c, 0, 97, 53
1, 179958, Note_on_c, 0, 88, 74
1, 179973, Note_off_c, 0, 85, 56
1, 179998, Note_off_c, 0, 97, 62
1, 180023, Control_c, 0, 64, 10
1, 180032, Note_on_c, 0, 94, 56
1, 180038, Control_c, 0, 64, 33
1, 180052, Control_c, 0, 64, 51
1, 180065, Note_off_c, 0, 94, 59
1, 180067, Control_c, 0, 64, 63
1, 180082, Control_c, 0, 64, 68
1, 180097, Control_c, 0, 64, 76
1, 180103, Note_on_c, 0, 97, 39
1, 180112, Control_c, 0, 64, 100
1, 180116, Note_off_c, 0, 88, 60
1, 180126, Control_c, 0, 64, 127
1, 180128, Note_off_c, 0, 97, 57
1, 180165, Note_on_c, 0, 91, 55
1, 180204, Note_off_c, 0, 91, 61
1, 180225, Note_on_c, 0, 97, 51
1, 180279, Note_off_c, 0, 97, 60
1, 180313, Note_on_c, 0, 88, 54
1, 180334, Note_off_c, 0, 88, 65
1, 180368, Note_on_c, 0, 97, 57
1, 180408, Note_off_c, 0, 97, 60
1, 180459, Note_on_c, 0, 85, 56
1, 180503, Note_off_c, 0, 85, 59
1, 180521, Note_on_c, 0, 97, 52
1, 180566, Note_off_c, 0, 97, 59
1, 180570, Note_on_c, 0, 82, 61
1, 180623, Note_off_c, 0, 82, 60
1, 180656, Note_on_c, 0, 97, 51
1, 180705, Note_off_c, 0, 97, 59
1, 180731, Note_on_c, 0, 79, 59
1, 180808, Note_off_c, 0, 79, 54
1, 180818, Note_on_c, 0, 97, 45
1, 180858, Note_off_c, 0, 97, 49
1, 180884, Note_on_c, 0, 76, 66
1, 180951, Note_off_c, 0, 76, 61
1, 180972, Note_on_c, 0, 97, 48
1, 181016, Note_off_c, 0, 97, 55
1, 181054, Note_on_c, 0, 73, 66
1, 181149, Note_on_c, 0, 97, 37
1, 181152, Note_off_c, 0, 73, 57
1, 181192, Note_off_c, 0, 97, 46
1, 181209, Control_c, 0, 64, 123
1, 181224, Control_c, 0, 64, 121
1, 181234, Note_on_c, 0, 70, 61
1, 181239, Control_c, 0, 64, 118
1, 181253, Control_c, 0, 64, 117
1, 181268, Control_c, 0, 64, 115
1, 181283, Control_c, 0, 64, 112
1, 181297, Control_c, 0, 64, 110
1, 181301, Note_off_c, 0, 70, 61
1, 181312, Control_c, 0, 64, 106
1, 181327, Control_c, 0, 64, 104
1, 181342, Control_c, 0, 64, 102
1, 181352, Note_on_c, 0, 97, 36
1, 181357, Control_c, 0, 64, 100
1, 181371, Control_c, 0, 64, 98
1, 181386, Control_c, 0, 64, 96
1, 181401, Control_c, 0, 64, 95
1, 181416, Note_off_c, 0, 97, 41
1, 181416, Control_c, 0, 64, 94
1, 181431, Control_c, 0, 64, 93
1, 181445, Note_on_c, 0, 67, 47
1, 181445, Control_c, 0, 64, 92
1, 181460, Control_c, 0, 64, 90
1, 181475, Control_c, 0, 64, 89
1, 181490, Control_c, 0, 64, 88
1, 181505, Control_c, 0, 64, 87
1, 181520, Control_c, 0, 64, 86
1, 181535, Control_c, 0, 64, 84
1, 181550, Control_c, 0, 64, 83
1, 181564, Control_c, 0, 64, 82
1, 181565, Note_on_c, 0, 97, 34
1, 181579, Control_c, 0, 64, 81
1, 181594, Control_c, 0, 64, 80
1, 181609, Control_c, 0, 64, 79
1, 181615, Note_off_c, 0, 67, 28
1, 181624, Control_c, 0, 64, 78
1, 181638, Control_c, 0, 64, 78
1, 181653, Control_c, 0, 64, 77
1, 181668, Control_c, 0, 64, 76
1, 181683, Control_c, 0, 64, 76
1, 181695, Note_off_c, 0, 97, 36
1, 181697, Control_c, 0, 64, 75
1, 181705, Note_on_c, 0, 66, 39
1, 181712, Control_c, 0, 64, 74
1, 181742, Control_c, 0, 64, 74
1, 181757, Control_c, 0, 64, 73
1, 181771, Control_c, 0, 64, 73
1, 181786, Control_c, 0, 64, 72
1, 181802, Control_c, 0, 64, 72
1, 181817, Control_c, 0, 64, 71
1, 181832, Control_c, 0, 64, 71
1, 181858, Note_on_c, 0, 97, 40
1, 181862, Control_c, 0, 64, 70
1, 181928, Control_c, 0, 64, 70
1, 182028, Note_on_c, 0, 65, 44
1, 182046, Note_off_c, 0, 97, 40
1, 182191, Note_off_c, 0, 66, 34
1, 182194, Control_c, 0, 64, 69
1, 182239, Control_c, 0, 64, 69
1, 182268, Control_c, 0, 64, 68
1, 182276, Note_on_c, 0, 97, 40
1, 182313, Control_c, 0, 64, 68
1, 182358, Control_c, 0, 64, 67
1, 182417, Control_c, 0, 64, 67
1, 182461, Control_c, 0, 64, 66
1, 182491, Note_on_c, 0, 64, 37
1, 182520, Control_c, 0, 64, 66
1, 182550, Control_c, 0, 64, 65
1, 182569, Note_off_c, 0, 97, 35
1, 182580, Control_c, 0, 64, 65
1, 182610, Control_c, 0, 64, 64
1, 182647, Control_c, 0, 64, 64
1, 182677, Control_c, 0, 64, 63
1, 182692, Control_c, 0, 64, 63
1, 182705, Note_off_c, 0, 65, 29
1, 182706, Control_c, 0, 64, 62
1, 182736, Control_c, 0, 64, 62
1, 182751, Control_c, 0, 64, 61
1, 182766, Control_c, 0, 64, 61
1, 182781, Control_c, 0, 64, 60
1, 182796, Control_c, 0, 64, 60
1, 182811, Control_c, 0, 64, 59
1, 182840, Control_c, 0, 64, 58
1, 182855, Control_c, 0, 64, 57
1, 182870, Control_c, 0, 64, 57
1, 182885, Control_c, 0, 64, 56
1, 182899, Control_c, 0, 64, 55
1, 182914, Control_c, 0, 64, 54
1, 182929, Control_c, 0, 64, 52
1, 182943, Control_c, 0, 64, 51
1, 182958, Control_c, 0, 64, 50
1, 182973, Control_c, 0, 64, 50
1, 182974, Note_on_c, 0, 97, 28
1, 183032, Control_c, 0, 64, 51
1, 183047, Control_c, 0, 64, 52
1, 183061, Control_c, 0, 64, 53
1, 183076, Control_c, 0, 64, 55
1, 183091, Control_c, 0, 64, 57
1, 183106, Control_c, 0, 64, 60
1, 183121, Control_c, 0, 64, 62
1, 183136, Control_c, 0, 64, 63
1, 183151, Control_c, 0, 64, 64
1, 183165, Control_c, 0, 64, 66
1, 183180, Control_c, 0, 64, 68
1, 183195, Control_c, 0, 64, 71
1, 183210, Control_c, 0, 64, 75
1, 183225, Control_c, 0, 64, 80
1, 183234, Note_off_c, 0, 97, 42
1, 183240, Control_c, 0, 64, 84
1, 183255, Control_c, 0, 64, 89
1, 183263, Note_off_c, 0, 64, 29
1, 183269, Control_c, 0, 64, 92
1, 183284, Control_c, 0, 64, 93
1, 183329, Control_c, 0, 64, 93
1, 183358, Control_c, 0, 64, 92
1, 183373, Control_c, 0, 64, 92
1, 183396, Control_c, 0, 64, 91
1, 183411, Control_c, 0, 64, 90
1, 183426, Control_c, 0, 64, 89
1, 183440, Control_c, 0, 64, 88
1, 183455, Control_c, 0, 64, 87
1, 183470, Control_c, 0, 64, 85
1, 183485, Control_c, 0, 64, 84
1, 183500, Control_c, 0, 64, 83
1, 183515, Control_c, 0, 64, 83
1, 183529, Control_c, 0, 64, 82
1, 183544, Control_c, 0, 64, 81
1, 183559, Control_c, 0, 64, 80
1, 183574, Control_c, 0, 64, 79
1, 183589, Control_c, 0, 64, 78
1, 183604, Control_c, 0, 64, 77
1, 183619, Control_c, 0, 64, 76
1, 183633, Control_c, 0, 64, 75
1, 183648, Control_c, 0, 64, 74
1, 183663, Control_c, 0, 64, 72
1, 183678, Control_c, 0, 64, 71
1, 183692, Control_c, 0, 64, 70
1, 183707, Control_c, 0, 64, 69
1, 183723, Control_c, 0, 64, 68
1, 183738, Control_c, 0, 64, 67
1, 183753, Control_c, 0, 64, 67
1, 183767, Control_c, 0, 64, 66
1, 183782, Control_c, 0, 64, 66
1, 183797, Control_c, 0, 64, 65
1, 183812, Control_c, 0, 64, 65
1, 183841, Control_c, 0, 64, 64
1, 183856, Control_c, 0, 64, 64
1, 183871, Control_c, 0, 64, 63
1, 183885, Control_c, 0, 64, 63
1, 183900, Control_c, 0, 64, 62
1, 183915, Control_c, 0, 64, 61
1, 183930, Control_c, 0, 64, 60
1, 183945, Control_c, 0, 64, 58
1, 183959, Control_c, 0, 64, 57
1, 183974, Control_c, 0, 64, 56
1, 183989, Control_c, 0, 64, 55
1, 184004, Control_c, 0, 64, 54
1, 184019, Control_c, 0, 64, 54
1, 184048, Control_c, 0, 64, 54
1, 184063, Control_c, 0, 64, 55
1, 184078, Control_c, 0, 64, 56
1, 184092, Control_c, 0, 64, 57
1, 184107, Control_c, 0, 64, 59
1, 184122, Control_c, 0, 64, 60
1, 184145, Control_c, 0, 64, 61
1, 184160, Control_c, 0, 64, 62
1, 184174, Control_c, 0, 64, 63
1, 184190, Control_c, 0, 64, 64
1, 184205, Control_c, 0, 64, 65
1, 184220, Control_c, 0, 64, 67
1, 184235, Control_c, 0, 64, 69
1, 184250, Control_c, 0, 64, 71
1, 184264, Control_c, 0, 64, 74
1, 184279, Control_c, 0, 64, 78
1, 184294, Control_c, 0, 64, 82
1, 184309, Control_c, 0, 64, 88
1, 184323, Control_c, 0, 64, 95
1, 184338, Control_c, 0, 64, 103
1, 184353, Control_c, 0, 64, 115
1, 184368, Control_c, 0, 64, 127
1, 184694, Note_on_c, 0, 59, 66
1, 185035, Note_on_c, 0, 60, 69
1, 185176, Control_c, 0, 64, 115
1, 185191, Control_c, 0, 64, 110
1, 185206, Control_c, 0, 64, 107
1, 185220, Control_c, 0, 64, 104
1, 185234, Control_c, 0, 64, 102
1, 185249, Control_c, 0, 64, 99
1, 185263, Note_on_c, 0, 61, 75
1, 185264, Control_c, 0, 64, 96
1, 185276, Note_off_c, 0, 59, 39
1, 185279, Control_c, 0, 64, 93
1, 185294, Control_c, 0, 64, 89
1, 185309, Control_c, 0, 64, 85
1, 185324, Control_c, 0, 64, 82
1, 185338, Control_c, 0, 64, 80
1, 185353, Control_c, 0, 64, 77
1, 185368, Control_c, 0, 64, 74
1, 185383, Control_c, 0, 64, 72
1, 185398, Control_c, 0, 64, 71
1, 185412, Control_c, 0, 64, 70
1, 185427, Control_c, 0, 64, 70
1, 185457, Control_c, 0, 64, 69
1, 185472, Control_c, 0, 64, 67
1, 185486, Control_c, 0, 64, 66
1, 185496, Note_on_c, 0, 64, 78
1, 185501, Control_c, 0, 64, 66
1, 185516, Control_c, 0, 64, 65
1, 185531, Control_c, 0, 64, 64
1, 185560, Control_c, 0, 64, 63
1, 185575, Control_c, 0, 64, 63
1, 185590, Control_c, 0, 64, 62
1, 185605, Control_c, 0, 64, 61
1, 185619, Control_c, 0, 64, 61
1, 185671, Control_c, 0, 64, 60
1, 185686, Control_c, 0, 64, 59
1, 185693, Note_off_c, 0, 60, 38
1, 185693, Note_off_c, 0, 61, 58
1, 185701, Control_c, 0, 64, 59
1, 185716, Control_c, 0, 64, 58
1, 185760, Control_c, 0, 64, 58
1, 185806, Control_c, 0, 64, 57
1, 185826, Note_on_c, 0, 65, 79
1, 185835, Control_c, 0, 64, 56
1, 185850, Control_c, 0, 64, 56
1, 185865, Control_c, 0, 64, 55
1, 185880, Control_c, 0, 64, 54
1, 185895, Control_c, 0, 64, 54
1, 185909, Control_c, 0, 64, 53
1, 185924, Control_c, 0, 64, 53
1, 185939, Control_c, 0, 64, 52
1, 185954, Control_c, 0, 64, 52
1, 185979, Note_off_c, 0, 64, 48
1, 186057, Control_c, 0, 64, 51
1, 186270, Note_on_c, 0, 68, 78
1, 186278, Note_on_c, 0, 64, 56
1, 186280, Control_c, 0, 64, 50
1, 186280, Note_on_c, 0, 58, 55
1, 186281, Note_on_c, 0, 49, 43
1, 186283, Note_on_c, 0, 36, 42
1, 186294, Control_c, 0, 64, 50
1, 186309, Control_c, 0, 64, 49
1, 186324, Control_c, 0, 64, 48
1, 186339, Control_c, 0, 64, 48
1, 186353, Control_c, 0, 64, 47
1, 186368, Control_c, 0, 64, 47
1, 186406, Control_c, 0, 64, 46
1, 186421, Control_c, 0, 64, 45
1, 186435, Control_c, 0, 64, 45
1, 186450, Control_c, 0, 64, 44
1, 186465, Control_c, 0, 64, 44
1, 186613, Note_off_c, 0, 65, 22
1, 186629, Control_c, 0, 64, 44
1, 186644, Control_c, 0, 64, 45
1, 186659, Control_c, 0, 64, 47
1, 186673, Control_c, 0, 64, 48
1, 186688, Control_c, 0, 64, 50
1, 186703, Control_c, 0, 64, 52
1, 186718, Control_c, 0, 64, 54
1, 186732, Control_c, 0, 64, 57
1, 186747, Control_c, 0, 64, 59
1, 186762, Control_c, 0, 64, 61
1, 186777, Control_c, 0, 64, 63
1, 186791, Control_c, 0, 64, 64
1, 186806, Control_c, 0, 64, 66
1, 186821, Control_c, 0, 64, 68
1, 186836, Control_c, 0, 64, 71
1, 186851, Control_c, 0, 64, 75
1, 186865, Control_c, 0, 64, 82
1, 186880, Control_c, 0, 64, 89
1, 186884, Note_off_c, 0, 68, 56
1, 186895, Control_c, 0, 64, 97
1, 186909, Control_c, 0, 64, 110
1, 186924, Control_c, 0, 64, 127
1, 187219, Note_on_c, 0, 68, 74
1, 187759, Note_off_c, 0, 49, 36
1, 188270, Note_on_c, 0, 48, 34
1, 188319, Control_c, 0, 64, 117
1, 188334, Control_c, 0, 64, 110
1, 188349, Control_c, 0, 64, 104
1, 188364, Control_c, 0, 64, 100
1, 188379, Control_c, 0, 64, 95
1, 188394, Control_c, 0, 64, 91
1, 188409, Control_c, 0, 64, 87
1, 188424, Control_c, 0, 64, 84
1, 188438, Control_c, 0, 64, 81
1, 188453, Control_c, 0, 64, 78
1, 188468, Control_c, 0, 64, 76
1, 188483, Control_c, 0, 64, 73
1, 188498, Control_c, 0, 64, 70
1, 188512, Control_c, 0, 64, 68
1, 188527, Control_c, 0, 64, 67
1, 188556, Control_c, 0, 64, 67
1, 188571, Control_c, 0, 64, 66
1, 188586, Control_c, 0, 64, 65
1, 188601, Control_c, 0, 64, 64
1, 188616, Control_c, 0, 64, 63
1, 188638, Control_c, 0, 64, 62
1, 188653, Control_c, 0, 64, 60
1, 188668, Control_c, 0, 64, 58
1, 188683, Control_c, 0, 64, 58
1, 188727, Control_c, 0, 64, 59
1, 188742, Control_c, 0, 64, 60
1, 188756, Control_c, 0, 64, 62
1, 188771, Control_c, 0, 64, 63
1, 188786, Control_c, 0, 64, 64
1, 188801, Control_c, 0, 64, 66
1, 188816, Control_c, 0, 64, 68
1, 188830, Control_c, 0, 64, 73
1, 188845, Control_c, 0, 64, 80
1, 188857, Note_off_c, 0, 68, 49
1, 188860, Control_c, 0, 64, 89
1, 188875, Control_c, 0, 64, 99
1, 188889, Control_c, 0, 64, 112
1, 188904, Control_c, 0, 64, 127
1, 189152, Note_off_c, 0, 48, 34
1, 189229, Note_on_c, 0, 67, 35
1, 189389, Note_off_c, 0, 64, 54
1, 189429, Note_off_c, 0, 58, 48
1, 189733, Note_on_c, 0, 41, 28
1, 189741, Note_on_c, 0, 65, 43
1, 189747, Note_on_c, 0, 56, 28
1, 189748, Note_on_c, 0, 48, 25
1, 189801, Control_c, 0, 64, 121
1, 189816, Control_c, 0, 64, 114
1, 189831, Control_c, 0, 64, 110
1, 189846, Control_c, 0, 64, 108
1, 189861, Control_c, 0, 64, 104
1, 189875, Control_c, 0, 64, 101
1, 189890, Control_c, 0, 64, 98
1, 189905, Control_c, 0, 64, 95
1, 189920, Control_c, 0, 64, 92
1, 189935, Control_c, 0, 64, 88
1, 189936, Note_off_c, 0, 36, 38
1, 189949, Control_c, 0, 64, 84
1, 189964, Control_c, 0, 64, 79
1, 189979, Control_c, 0, 64, 76
1, 189992, Note_off_c, 0, 67, 42
1, 189994, Control_c, 0, 64, 73
1, 190008, Control_c, 0, 64, 71
1, 190023, Control_c, 0, 64, 69
1, 190038, Control_c, 0, 64, 68
1, 190053, Control_c, 0, 64, 67
1, 190068, Control_c, 0, 64, 66
1, 190082, Control_c, 0, 64, 65
1, 190097, Control_c, 0, 64, 64
1, 190112, Control_c, 0, 64, 63
1, 190134, Control_c, 0, 64, 62
1, 190149, Control_c, 0, 64, 61
1, 190164, Control_c, 0, 64, 59
1, 190179, Control_c, 0, 64, 56
1, 190194, Control_c, 0, 64, 53
1, 190208, Control_c, 0, 64, 52
1, 190223, Control_c, 0, 64, 51
1, 190253, Control_c, 0, 64, 52
1, 190268, Control_c, 0, 64, 53
1, 190282, Control_c, 0, 64, 54
1, 190297, Control_c, 0, 64, 56
1, 190312, Control_c, 0, 64, 57
1, 190327, Control_c, 0, 64, 59
1, 190341, Control_c, 0, 64, 60
1, 190356, Control_c, 0, 64, 62
1, 190371, Control_c, 0, 64, 63
1, 190386, Control_c, 0, 64, 64
1, 190401, Control_c, 0, 64, 65
1, 190415, Control_c, 0, 64, 67
1, 190430, Control_c, 0, 64, 69
1, 190445, Control_c, 0, 64, 72
1, 190460, Control_c, 0, 64, 75
1, 190475, Control_c, 0, 64, 78
1, 190489, Control_c, 0, 64, 82
1, 190504, Control_c, 0, 64, 86
1, 190519, Control_c, 0, 64, 90
1, 190534, Control_c, 0, 64, 94
1, 190549, Control_c, 0, 64, 98
1, 190564, Control_c, 0, 64, 103
1, 190579, Control_c, 0, 64, 108
1, 190594, Control_c, 0, 64, 115
1, 190609, Control_c, 0, 64, 127
1, 190671, Note_off_c, 0, 48, 36
1, 190838, Note_on_c, 0, 47, 45
1, 191092, Note_on_c, 0, 48, 57
1, 191112, Note_off_c, 0, 41, 43
1, 191157, Note_off_c, 0, 47, 62
1, 191230, Note_off_c, 0, 65, 34
1, 191269, Note_off_c, 0, 56, 0
1, 191298, Note_on_c, 0, 56, 14
1, 191304, Note_on_c, 0, 49, 62
1, 191311, Note_on_c, 0, 46, 55
1, 191315, Note_on_c, 0, 65, 52
1, 191321, Note_on_c, 0, 61, 50
1, 191327, Control_c, 0, 64, 111
1, 191342, Control_c, 0, 64, 106
1, 191357, Control_c, 0, 64, 103
1, 191372, Control_c, 0, 64, 101
1, 191375, Note_off_c, 0, 48, 61
1, 191387, Control_c, 0, 64, 98
1, 191402, Control_c, 0, 64, 96
1, 191417, Control_c, 0, 64, 93
1, 191432, Control_c, 0, 64, 90
1, 191446, Control_c, 0, 64, 84
1, 191461, Control_c, 0, 64, 74
1, 191476, Control_c, 0, 64, 64
1, 191491, Control_c, 0, 64, 57
1, 191506, Control_c, 0, 64, 56
1, 191521, Control_c, 0, 64, 57
1, 191536, Control_c, 0, 64, 59
1, 191548, Note_on_c, 0, 53, 69
1, 191551, Control_c, 0, 64, 61
1, 191566, Control_c, 0, 64, 63
1, 191580, Control_c, 0, 64, 65
1, 191595, Control_c, 0, 64, 68
1, 191610, Control_c, 0, 64, 72
1, 191632, Control_c, 0, 64, 78
1, 191647, Control_c, 0, 64, 87
1, 191661, Control_c, 0, 64, 107
1, 191676, Control_c, 0, 64, 127
1, 191746, Note_off_c, 0, 56, 41
1, 191827, Note_on_c, 0, 55, 78
1, 192025, Note_off_c, 0, 65, 33
1, 192047, Note_off_c, 0, 46, 31
1, 192049, Note_off_c, 0, 55, 60
1, 192057, Note_off_c, 0, 49, 37
1, 192190, Note_off_c, 0, 61, 34
1, 192227, Note_on_c, 0, 60, 67
1, 192230, Note_on_c, 0, 56, 64
1, 192232, Note_on_c, 0, 41, 41
1, 192245, Note_on_c, 0, 65, 60
1, 192330, Control_c, 0, 64, 113
1, 192344, Control_c, 0, 64, 105
1, 192359, Control_c, 0, 64, 100
1, 192382, Control_c, 0, 64, 95
1, 192397, Control_c, 0, 64, 91
1, 192411, Control_c, 0, 64, 86
1, 192426, Control_c, 0, 64, 82
1, 192440, Note_off_c, 0, 53, 34
1, 192441, Control_c, 0, 64, 78
1, 192456, Control_c, 0, 64, 75
1, 192471, Control_c, 0, 64, 73
1, 192485, Control_c, 0, 64, 70
1, 192500, Control_c, 0, 64, 67
1, 192515, Control_c, 0, 64, 66
1, 192529, Control_c, 0, 64, 64
1, 192544, Control_c, 0, 64, 64
1, 192559, Control_c, 0, 64, 62
1, 192574, Control_c, 0, 64, 61
1, 192589, Control_c, 0, 64, 58
1, 192603, Control_c, 0, 64, 56
1, 192618, Control_c, 0, 64, 54
1, 192633, Control_c, 0, 64, 51
1, 192648, Control_c, 0, 64, 46
1, 192663, Control_c, 0, 64, 40
1, 192677, Control_c, 0, 64, 34
1, 192692, Control_c, 0, 64, 29
1, 192707, Control_c, 0, 64, 26
1, 192722, Control_c, 0, 64, 23
1, 192737, Control_c, 0, 64, 21
1, 192797, Control_c, 0, 64, 24
1, 192811, Control_c, 0, 64, 31
1, 192826, Control_c, 0, 64, 41
1, 192841, Control_c, 0, 64, 50
1, 192856, Control_c, 0, 64, 55
1, 192871, Control_c, 0, 64, 59
1, 192885, Control_c, 0, 64, 61
1, 192900, Control_c, 0, 64, 63
1, 192915, Control_c, 0, 64, 65
1, 192929, Control_c, 0, 64, 66
1, 192944, Control_c, 0, 64, 69
1, 192959, Control_c, 0, 64, 74
1, 192975, Control_c, 0, 64, 80
1, 192990, Control_c, 0, 64, 87
1, 193005, Control_c, 0, 64, 95
1, 193020, Control_c, 0, 64, 103
1, 193034, Control_c, 0, 64, 111
1, 193049, Control_c, 0, 64, 127
1, 193106, Note_off_c, 0, 60, 34
1, 193454, Note_on_c, 0, 59, 61
1, 193634, Note_off_c, 0, 56, 54
1, 193764, Note_on_c, 0, 60, 71
1, 193950, Note_off_c, 0, 65, 34
1, 194072, Control_c, 0, 64, 119
1, 194087, Control_c, 0, 64, 112
1, 194094, Note_on_c, 0, 46, 40
1, 194102, Control_c, 0, 64, 107
1, 194102, Note_on_c, 0, 61, 70
1, 194114, Note_on_c, 0, 65, 54
1, 194117, Note_on_c, 0, 53, 33
1, 194117, Control_c, 0, 64, 102
1, 194126, Note_off_c, 0, 41, 37
1, 194131, Control_c, 0, 64, 97
1, 194146, Control_c, 0, 64, 93
1, 194161, Control_c, 0, 64, 89
1, 194175, Control_c, 0, 64, 86
1, 194190, Control_c, 0, 64, 82
1, 194205, Control_c, 0, 64, 79
1, 194220, Control_c, 0, 64, 74
1, 194235, Control_c, 0, 64, 67
1, 194239, Note_off_c, 0, 60, 38
1, 194249, Control_c, 0, 64, 60
1, 194264, Control_c, 0, 64, 47
1, 194266, Note_off_c, 0, 59, 32
1, 194279, Control_c, 0, 64, 42
1, 194294, Control_c, 0, 64, 40
1, 194309, Control_c, 0, 64, 39
1, 194338, Control_c, 0, 64, 39
1, 194353, Control_c, 0, 64, 45
1, 194368, Control_c, 0, 64, 56
1, 194383, Control_c, 0, 64, 62
1, 194397, Control_c, 0, 64, 66
1, 194412, Control_c, 0, 64, 71
1, 194426, Note_off_c, 0, 53, 50
1, 194427, Control_c, 0, 64, 80
1, 194442, Control_c, 0, 64, 96
1, 194457, Control_c, 0, 64, 127
1, 194527, Note_on_c, 0, 53, 68
1, 194673, Control_c, 0, 64, 121
1, 194687, Control_c, 0, 64, 115
1, 194702, Control_c, 0, 64, 111
1, 194717, Control_c, 0, 64, 107
1, 194732, Control_c, 0, 64, 103
1, 194747, Control_c, 0, 64, 101
1, 194761, Control_c, 0, 64, 99
1, 194776, Control_c, 0, 64, 97
1, 194791, Control_c, 0, 64, 95
1, 194806, Control_c, 0, 64, 93
1, 194821, Control_c, 0, 64, 92
1, 194836, Control_c, 0, 64, 90
1, 194851, Control_c, 0, 64, 89
1, 194865, Control_c, 0, 64, 88
1, 194880, Control_c, 0, 64, 87
1, 194895, Control_c, 0, 64, 87
1, 194910, Control_c, 0, 64, 86
1, 194925, Control_c, 0, 64, 86
1, 194940, Control_c, 0, 64, 85
1, 194954, Control_c, 0, 64, 85
1, 194970, Control_c, 0, 64, 84
1, 194985, Control_c, 0, 64, 84
1, 194999, Control_c, 0, 64, 83
1, 195014, Control_c, 0, 64, 82
1, 195029, Control_c, 0, 64, 81
1, 195044, Control_c, 0, 64, 80
1, 195059, Control_c, 0, 64, 79
1, 195073, Control_c, 0, 64, 77
1, 195088, Control_c, 0, 64, 76
1, 195103, Control_c, 0, 64, 75
1, 195118, Control_c, 0, 64, 73
1, 195133, Control_c, 0, 64, 72
1, 195137, Note_on_c, 0, 55, 52
1, 195142, Note_on_c, 0, 49, 22
1, 195147, Control_c, 0, 64, 72
1, 195162, Control_c, 0, 64, 71
1, 195177, Control_c, 0, 64, 70
1, 195192, Control_c, 0, 64, 69
1, 195206, Control_c, 0, 64, 68
1, 195221, Control_c, 0, 64, 67
1, 195236, Control_c, 0, 64, 66
1, 195251, Control_c, 0, 64, 66
1, 195280, Control_c, 0, 64, 65
1, 195295, Control_c, 0, 64, 64
1, 195310, Control_c, 0, 64, 63
1, 195325, Control_c, 0, 64, 62
1, 195339, Control_c, 0, 64, 61
1, 195354, Control_c, 0, 64, 60
1, 195355, Note_off_c, 0, 53, 33
1, 195378, Control_c, 0, 64, 58
1, 195393, Control_c, 0, 64, 53
1, 195408, Control_c, 0, 64, 45
1, 195422, Control_c, 0, 64, 36
1, 195437, Control_c, 0, 64, 30
1, 195443, Note_off_c, 0, 61, 56
1, 195452, Control_c, 0, 64, 29
1, 195467, Control_c, 0, 64, 28
1, 195526, Control_c, 0, 64, 30
1, 195541, Control_c, 0, 64, 39
1, 195556, Control_c, 0, 64, 52
1, 195571, Control_c, 0, 64, 61
1, 195585, Control_c, 0, 64, 65
1, 195600, Control_c, 0, 64, 70
1, 195615, Control_c, 0, 64, 78
1, 195629, Control_c, 0, 64, 94
1, 195643, Note_off_c, 0, 65, 33
1, 195644, Control_c, 0, 64, 127
1, 195655, Note_off_c, 0, 46, 30
1, 195661, Note_off_c, 0, 49, 39
1, 195664, Note_off_c, 0, 55, 53
1, 196105, Note_on_c, 0, 48, 29
1, 196111, Note_on_c, 0, 41, 27
1, 196111, Note_on_c, 0, 57, 39
1, 196111, Note_on_c, 0, 65, 36
1, 196186, Control_c, 0, 64, 121
1, 196200, Control_c, 0, 64, 112
1, 196215, Control_c, 0, 64, 108
1, 196230, Control_c, 0, 64, 103
1, 196244, Control_c, 0, 64, 100
1, 196259, Control_c, 0, 64, 97
1, 196274, Control_c, 0, 64, 94
1, 196289, Control_c, 0, 64, 91
1, 196304, Control_c, 0, 64, 87
1, 196318, Control_c, 0, 64, 82
1, 196333, Control_c, 0, 64, 78
1, 196348, Control_c, 0, 64, 74
1, 196363, Control_c, 0, 64, 70
1, 196378, Control_c, 0, 64, 68
1, 196392, Control_c, 0, 64, 65
1, 196407, Control_c, 0, 64, 64
1, 196422, Control_c, 0, 64, 61
1, 196437, Control_c, 0, 64, 56
1, 196451, Control_c, 0, 64, 49
1, 196466, Control_c, 0, 64, 42
1, 196481, Control_c, 0, 64, 38
1, 196496, Control_c, 0, 64, 35
1, 196511, Control_c, 0, 64, 33
1, 196526, Control_c, 0, 64, 33
1, 196585, Control_c, 0, 64, 33
1, 196600, Control_c, 0, 64, 38
1, 196615, Control_c, 0, 64, 43
1, 196630, Control_c, 0, 64, 48
1, 196644, Control_c, 0, 64, 52
1, 196659, Control_c, 0, 64, 56
1, 196674, Control_c, 0, 64, 59
1, 196689, Control_c, 0, 64, 61
1, 196704, Control_c, 0, 64, 63
1, 196718, Control_c, 0, 64, 64
1, 196733, Control_c, 0, 64, 66
1, 196748, Control_c, 0, 64, 67
1, 196763, Control_c, 0, 64, 69
1, 196777, Control_c, 0, 64, 74
1, 196792, Control_c, 0, 64, 79
1, 196807, Control_c, 0, 64, 86
1, 196822, Control_c, 0, 64, 94
1, 196837, Control_c, 0, 64, 103
1, 196851, Control_c, 0, 64, 113
1, 196874, Control_c, 0, 64, 127
1, 196877, Note_off_c, 0, 41, 35
1, 196893, Note_off_c, 0, 57, 36
1, 196919, Note_off_c, 0, 65, 30
1, 196926, Note_off_c, 0, 48, 38
1, 197530, Note_on_c, 0, 65, 33
1, 197536, Note_on_c, 0, 41, 25
1, 197537, Note_on_c, 0, 48, 28
1, 197551, Note_on_c, 0, 57, 29
1, 198005, Note_off_c, 0, 41, 37
1, 198055, Note_off_c, 0, 48, 37
1, 198061, Note_off_c, 0, 57, 42
1, 198091, Note_off_c, 0, 65, 37
1, 198701, Note_on_c, 0, 65, 26
1, 198705, Note_on_c, 0, 57, 29
1, 198714, Note_on_c, 0, 48, 18
1, 198717, Note_on_c, 0, 41, 19
1, 199474, Note_off_c, 0, 41, 38
1, 199477, Note_off_c, 0, 48, 37
1, 199478, Note_off_c, 0, 57, 37
1, 199551, Note_off_c, 0, 65, 38
1, 200359, Note_on_c, 0, 65, 26
1, 200361, Note_on_c, 0, 57, 27
1, 200366, Note_on_c, 0, 48, 19
1, 200368, Note_on_c, 0, 41, 16
1, 203401, Note_off_c, 0, 41, 33
1, 203471, Note_off_c, 0, 48, 33
1, 203486, Note_off_c, 0, 65, 36
1, 203497, Note_off_c, 0, 57, 34
1, 203672, Control_c, 0, 64, 117
1, 203687, Control_c, 0, 64, 107
1, 203702, Control_c, 0, 64, 100
1, 203716, Control_c, 0, 64, 96
1, 203731, Control_c, 0, 64, 93
1, 203746, Control_c, 0, 64, 91
1, 203761, Control_c, 0, 64, 90
1, 203776, Control_c, 0, 64, 87
1, 203790, Control_c, 0, 64, 83
1, 203805, Control_c, 0, 64, 79
1, 203820, Control_c, 0, 64, 76
1, 203835, Control_c, 0, 64, 73
1, 203850, Control_c, 0, 64, 71
1, 203865, Control_c, 0, 64, 70
1, 203880, Control_c, 0, 64, 69
1, 203895, Control_c, 0, 64, 67
1, 203909, Control_c, 0, 64, 67
1, 203924, Control_c, 0, 64, 66
1, 203939, Control_c, 0, 64, 65
1, 203954, Control_c, 0, 64, 64
1, 203969, Control_c, 0, 64, 63
1, 203983, Control_c, 0, 64, 63
1, 203998, Control_c, 0, 64, 62
1, 204013, Control_c, 0, 64, 62
1, 204028, Control_c, 0, 64, 61
1, 204042, Control_c, 0, 64, 60
1, 204057, Control_c, 0, 64, 59
1, 204072, Control_c, 0, 64, 58
1, 204087, Control_c, 0, 64, 57
1, 204102, Control_c, 0, 64, 56
1, 204116, Control_c, 0, 64, 55
1, 204131, Control_c, 0, 64, 53
1, 204146, Control_c, 0, 64, 51
1, 204162, Control_c, 0, 64, 51
1, 204177, Control_c, 0, 64, 50
1, 204192, Control_c, 0, 64, 49
1, 204206, Control_c, 0, 64, 47
1, 204221, Control_c, 0, 64, 46
1, 204236, Control_c, 0, 64, 45
1, 204251, Control_c, 0, 64, 44
1, 204265, Control_c, 0, 64, 42
1, 204280, Control_c, 0, 64, 40
1, 204295, Control_c, 0, 64, 38
1, 204310, Control_c, 0, 64, 36
1, 204325, Control_c, 0, 64, 34
1, 204339, Control_c, 0, 64, 31
1, 204362, Control_c, 0, 64, 29
1, 204377, Control_c, 0, 64, 24
1, 204392, Control_c, 0, 64, 17
1, 204407, Control_c, 0, 64, 0
1, 204482, End_track
0, 0, End_of_file
