0, 0, Header, 0, 1, 384
1, 0, Start_track
1, 0, Title_t, "SzymanowskiVariationsOp3--Ozaki "
1, 0, Text_t, "2011 ePiano Junior Competition"
1, 0, Text_t, "captured in spring and summer 2011"
1, 0, Text_t, "http://www.piano-e-competition.com/"
1, 0, Text_t, "standard-resolution version"
1, 0, Text_t, "File processed for distribution with software designed and coded by Dr. John Q. Walker, founder of Zenph Sound Innovations"
1, 0, Instrument_name_t, "Yamaha Disklavier Pro Mark IV concert grand piano, model DCFIIISM4PRO"
1, 0, Sequencer_specific, 39, 67, 113, 0, 1, 0, 1, 0, 83, 122, 121, 109, 97, 110, 111, 119, 115, 107, 105, 32, 79, 112, 51, 32, 77, 105, 115, 111, 114, 97, 32, 79, 122, 97, 107, 105, 32, 32, 32, 32
1, 0, Sequencer_specific, 6, 67, 113, 0, 0, 0, 69
1, 0, System_exclusive, 21, 67, 113, 126, 21, 0, 2, 2, 2, 5, 12, 8, 4, 14, 1, 3, 4, 11, 10, 12, 0, 247
1, 0, Sequencer_specific, 5, 67, 123, 12, 2, 1
1, 0, Tempo, 512820
1, 0, Time_signature, 4, 2, 24, 8
1, 0, System_exclusive, 5, 126, 127, 9, 1, 247
1, 1, System_exclusive, 8, 67, 16, 76, 0, 0, 126, 0, 247
1, 2, System_exclusive, 8, 67, 16, 76, 8, 9, 7, 1, 247
1, 3, Control_c, 0, 0, 108
1, 3, Control_c, 1, 0, 108
1, 3, Control_c, 2, 0, 0
1, 3, Control_c, 3, 0, 0
1, 3, Control_c, 4, 0, 0
1, 3, Control_c, 5, 0, 0
1, 3, Control_c, 6, 0, 0
1, 3, Control_c, 7, 0, 0
1, 3, Control_c, 8, 0, 0
1, 3, Control_c, 9, 0, 127
1, 3, Control_c, 10, 0, 0
1, 3, Control_c, 11, 0, 0
1, 3, Control_c, 12, 0, 0
1, 3, Control_c, 13, 0, 0
1, 3, Control_c, 14, 0, 0
1, 3, Control_c, 15, 0, 0
1, 4, Control_c, 0, 32, 0
1, 4, Control_c, 1, 32, 0
1, 4, Control_c, 2, 32, 0
1, 4, Control_c, 3, 32, 0
1, 4, Control_c, 4, 32, 0
1, 4, Control_c, 5, 32, 0
1, 4, Control_c, 6, 32, 0
1, 4, Control_c, 7, 32, 0
1, 4, Control_c, 8, 32, 0
1, 4, Control_c, 9, 32, 0
1, 4, Control_c, 10, 32, 0
1, 4, Control_c, 11, 32, 0
1, 4, Control_c, 12, 32, 0
1, 4, Control_c, 13, 32, 0
1, 4, Control_c, 14, 32, 0
1, 4, Control_c, 15, 32, 0
1, 5, Program_c, 0, 0
1, 5, Program_c, 1, 0
1, 5, Program_c, 2, 0
1, 5, Program_c, 3, 0
1, 5, Program_c, 4, 0
1, 5, Program_c, 5, 0
1, 5, Program_c, 6, 0
1, 5, Program_c, 7, 0
1, 5, Program_c, 8, 0
1, 5, Program_c, 9, 0
1, 5, Program_c, 10, 0
1, 5, Program_c, 11, 0
1, 5, Program_c, 12, 0
1, 5, Program_c, 13, 0
1, 5, Program_c, 14, 0
1, 5, Program_c, 15, 0
1, 6, Control_c, 0, 7, 100
1, 6, Control_c, 1, 7, 100
1, 6, Control_c, 2, 7, 100
1, 6, Control_c, 3, 7, 100
1, 6, Control_c, 4, 7, 100
1, 6, Control_c, 5, 7, 100
1, 6, Control_c, 6, 7, 100
1, 6, Control_c, 7, 7, 100
1, 6, Control_c, 8, 7, 100
1, 6, Control_c, 9, 7, 100
1, 6, Control_c, 10, 7, 100
1, 6, Control_c, 11, 7, 100
1, 6, Control_c, 12, 7, 100
1, 6, Control_c, 13, 7, 100
1, 6, Control_c, 14, 7, 100
1, 6, Control_c, 15, 7, 100
1, 42, Control_c, 0, 64, 15
1, 42, Control_c, 0, 67, 15
1, 79, Control_c, 0, 64, 31
1, 79, Control_c, 0, 67, 31
1, 116, Control_c, 0, 64, 46
1, 116, Control_c, 0, 67, 46
1, 153, Control_c, 0, 64, 63
1, 153, Control_c, 0, 67, 63
1, 190, Control_c, 0, 64, 77
1, 190, Control_c, 0, 67, 77
1, 226, Control_c, 0, 64, 94
1, 226, Control_c, 0, 67, 94
1, 263, Control_c, 0, 64, 108
1, 263, Control_c, 0, 67, 108
1, 300, Control_c, 0, 64, 127
1, 300, Control_c, 0, 67, 127
1, 384, Note_on_c, 0, 65, 45
1, 388, Note_on_c, 0, 41, 39
1, 392, Note_on_c, 0, 53, 41
1, 957, Control_c, 0, 64, 123
1, 972, Control_c, 0, 64, 121
1, 987, Control_c, 0, 64, 117
1, 1002, Control_c, 0, 64, 113
1, 1016, Control_c, 0, 64, 110
1, 1028, Note_on_c, 0, 46, 50
1, 1030, Note_on_c, 0, 70, 56
1, 1031, Control_c, 0, 64, 107
1, 1040, Note_on_c, 0, 58, 35
1, 1046, Control_c, 0, 64, 104
1, 1060, Control_c, 0, 64, 101
1, 1075, Control_c, 0, 64, 99
1, 1090, Control_c, 0, 64, 96
1, 1105, Control_c, 0, 64, 92
1, 1120, Control_c, 0, 64, 89
1, 1135, Control_c, 0, 64, 86
1, 1150, Control_c, 0, 64, 83
1, 1165, Control_c, 0, 64, 81
1, 1177, Note_off_c, 0, 65, 35
1, 1179, Control_c, 0, 64, 78
1, 1201, Note_off_c, 0, 41, 37
1, 1202, Control_c, 0, 64, 76
1, 1217, Control_c, 0, 64, 73
1, 1231, Control_c, 0, 64, 72
1, 1246, Control_c, 0, 64, 70
1, 1261, Control_c, 0, 64, 69
1, 1275, Control_c, 0, 64, 68
1, 1290, Control_c, 0, 64, 67
1, 1305, Control_c, 0, 64, 66
1, 1320, Control_c, 0, 64, 65
1, 1335, Control_c, 0, 64, 64
1, 1349, Control_c, 0, 64, 64
1, 1376, Note_off_c, 0, 53, 43
1, 1379, Control_c, 0, 64, 63
1, 1394, Control_c, 0, 64, 62
1, 1409, Control_c, 0, 64, 62
1, 1439, Control_c, 0, 64, 61
1, 1454, Control_c, 0, 64, 61
1, 1468, Control_c, 0, 64, 60
1, 1483, Control_c, 0, 64, 59
1, 1528, Control_c, 0, 64, 59
1, 1558, Control_c, 0, 64, 58
1, 1573, Control_c, 0, 64, 58
1, 1603, Control_c, 0, 64, 57
1, 1646, Note_on_c, 0, 69, 53
1, 1647, Control_c, 0, 64, 57
1, 1651, Note_on_c, 0, 45, 44
1, 1656, Note_on_c, 0, 57, 36
1, 1662, Control_c, 0, 64, 56
1, 1691, Control_c, 0, 64, 56
1, 1721, Control_c, 0, 64, 55
1, 1738, Note_off_c, 0, 70, 48
1, 1751, Control_c, 0, 64, 55
1, 1780, Control_c, 0, 64, 54
1, 1810, Control_c, 0, 64, 54
1, 1838, Note_off_c, 0, 58, 35
1, 1839, Control_c, 0, 64, 53
1, 1854, Control_c, 0, 64, 53
1, 1869, Control_c, 0, 64, 52
1, 1928, Control_c, 0, 64, 52
1, 1952, Note_off_c, 0, 46, 32
1, 1980, Control_c, 0, 64, 51
1, 2040, Control_c, 0, 64, 51
1, 2054, Control_c, 0, 64, 50
1, 2098, Control_c, 0, 64, 50
1, 2143, Control_c, 0, 64, 49
1, 2158, Control_c, 0, 64, 49
1, 2172, Control_c, 0, 64, 48
1, 2187, Control_c, 0, 64, 47
1, 2202, Control_c, 0, 64, 46
1, 2217, Control_c, 0, 64, 44
1, 2232, Control_c, 0, 64, 43
1, 2241, Note_off_c, 0, 69, 60
1, 2242, Note_on_c, 0, 70, 61
1, 2247, Control_c, 0, 64, 43
1, 2250, Note_on_c, 0, 46, 41
1, 2258, Note_on_c, 0, 58, 30
1, 2277, Control_c, 0, 64, 43
1, 2293, Control_c, 0, 64, 46
1, 2308, Control_c, 0, 64, 51
1, 2322, Control_c, 0, 64, 58
1, 2324, Note_off_c, 0, 45, 37
1, 2337, Control_c, 0, 64, 66
1, 2348, Note_off_c, 0, 58, 59
1, 2352, Control_c, 0, 64, 73
1, 2367, Control_c, 0, 64, 85
1, 2382, Control_c, 0, 64, 107
1, 2396, Control_c, 0, 64, 127
1, 2417, Note_off_c, 0, 57, 28
1, 2515, Control_c, 0, 64, 106
1, 2528, Note_on_c, 0, 72, 72
1, 2530, Control_c, 0, 64, 86
1, 2530, Note_on_c, 0, 48, 52
1, 2539, Note_on_c, 0, 60, 50
1, 2545, Control_c, 0, 64, 69
1, 2560, Control_c, 0, 64, 51
1, 2575, Control_c, 0, 64, 0
1, 2604, Control_c, 0, 64, 24
1, 2619, Control_c, 0, 64, 40
1, 2634, Control_c, 0, 64, 53
1, 2648, Control_c, 0, 64, 61
1, 2663, Control_c, 0, 64, 67
1, 2677, Note_off_c, 0, 46, 35
1, 2678, Control_c, 0, 64, 73
1, 2697, Note_off_c, 0, 60, 55
1, 2700, Control_c, 0, 64, 82
1, 2715, Control_c, 0, 64, 92
1, 2730, Control_c, 0, 64, 102
1, 2744, Control_c, 0, 64, 110
1, 2759, Control_c, 0, 64, 115
1, 2797, Note_off_c, 0, 70, 35
1, 2804, Control_c, 0, 64, 113
1, 2819, Control_c, 0, 64, 111
1, 2834, Control_c, 0, 64, 108
1, 2834, Note_on_c, 0, 49, 45
1, 2837, Note_on_c, 0, 73, 81
1, 2848, Control_c, 0, 64, 104
1, 2863, Control_c, 0, 64, 99
1, 2864, Note_on_c, 0, 61, 49
1, 2878, Control_c, 0, 64, 95
1, 2893, Control_c, 0, 64, 89
1, 2908, Control_c, 0, 64, 84
1, 2922, Control_c, 0, 64, 80
1, 2937, Control_c, 0, 64, 76
1, 2952, Control_c, 0, 64, 72
1, 2955, Note_off_c, 0, 48, 30
1, 2967, Control_c, 0, 64, 69
1, 2982, Control_c, 0, 64, 67
1, 2989, Note_off_c, 0, 72, 53
1, 2996, Control_c, 0, 64, 65
1, 3011, Control_c, 0, 64, 64
1, 3026, Control_c, 0, 64, 63
1, 3040, Control_c, 0, 64, 62
1, 3055, Control_c, 0, 64, 61
1, 3070, Control_c, 0, 64, 60
1, 3085, Control_c, 0, 64, 58
1, 3101, Control_c, 0, 64, 57
1, 3116, Control_c, 0, 64, 55
1, 3131, Control_c, 0, 64, 52
1, 3145, Control_c, 0, 64, 48
1, 3160, Control_c, 0, 64, 44
1, 3175, Control_c, 0, 64, 43
1, 3190, Control_c, 0, 64, 42
1, 3205, Control_c, 0, 64, 40
1, 3219, Control_c, 0, 64, 37
1, 3234, Control_c, 0, 64, 33
1, 3249, Control_c, 0, 64, 29
1, 3263, Control_c, 0, 64, 27
1, 3278, Control_c, 0, 64, 24
1, 3293, Control_c, 0, 64, 18
1, 3308, Control_c, 0, 64, 12
1, 3323, Control_c, 0, 64, 0
1, 3448, Note_on_c, 0, 70, 81
1, 3457, Note_on_c, 0, 46, 54
1, 3461, Note_on_c, 0, 58, 45
1, 3535, Note_off_c, 0, 73, 64
1, 3600, Note_off_c, 0, 49, 57
1, 3612, Control_c, 0, 64, 21
1, 3627, Control_c, 0, 64, 35
1, 3642, Control_c, 0, 64, 50
1, 3657, Control_c, 0, 64, 57
1, 3671, Control_c, 0, 64, 62
1, 3678, Note_off_c, 0, 61, 55
1, 3686, Control_c, 0, 64, 66
1, 3701, Control_c, 0, 64, 72
1, 3709, Note_off_c, 0, 58, 56
1, 3716, Control_c, 0, 64, 85
1, 3731, Control_c, 0, 64, 127
1, 3807, Note_off_c, 0, 70, 61
1, 4144, Note_on_c, 0, 41, 59
1, 4152, Note_on_c, 0, 65, 74
1, 4160, Note_on_c, 0, 53, 58
1, 4242, Control_c, 0, 64, 112
1, 4257, Control_c, 0, 64, 105
1, 4272, Control_c, 0, 64, 101
1, 4287, Control_c, 0, 64, 97
1, 4301, Control_c, 0, 64, 94
1, 4316, Control_c, 0, 64, 91
1, 4331, Control_c, 0, 64, 89
1, 4337, Note_off_c, 0, 46, 58
1, 4346, Control_c, 0, 64, 86
1, 4361, Control_c, 0, 64, 83
1, 4375, Control_c, 0, 64, 80
1, 4390, Control_c, 0, 64, 77
1, 4405, Control_c, 0, 64, 75
1, 4420, Control_c, 0, 64, 73
1, 4435, Control_c, 0, 64, 71
1, 4450, Control_c, 0, 64, 69
1, 4464, Control_c, 0, 64, 67
1, 4479, Control_c, 0, 64, 65
1, 4493, Control_c, 0, 64, 63
1, 4508, Control_c, 0, 64, 62
1, 4523, Control_c, 0, 64, 61
1, 4538, Control_c, 0, 64, 61
1, 4553, Control_c, 0, 64, 60
1, 4567, Control_c, 0, 64, 59
1, 4582, Control_c, 0, 64, 57
1, 4597, Control_c, 0, 64, 56
1, 4611, Control_c, 0, 64, 55
1, 4626, Control_c, 0, 64, 55
1, 4641, Control_c, 0, 64, 54
1, 4656, Control_c, 0, 64, 53
1, 4671, Control_c, 0, 64, 51
1, 4687, Control_c, 0, 64, 50
1, 4702, Control_c, 0, 64, 49
1, 4716, Control_c, 0, 64, 48
1, 4731, Control_c, 0, 64, 47
1, 4746, Control_c, 0, 64, 47
1, 4761, Control_c, 0, 64, 46
1, 4776, Control_c, 0, 64, 45
1, 4790, Control_c, 0, 64, 45
1, 4805, Control_c, 0, 64, 44
1, 4820, Control_c, 0, 64, 43
1, 4835, Control_c, 0, 64, 43
1, 4850, Control_c, 0, 64, 42
1, 4864, Control_c, 0, 64, 41
1, 4944, Note_on_c, 0, 63, 37
1, 4963, Note_on_c, 0, 39, 41
1, 5005, Control_c, 0, 64, 42
1, 5020, Control_c, 0, 64, 44
1, 5035, Control_c, 0, 64, 47
1, 5050, Control_c, 0, 64, 49
1, 5064, Control_c, 0, 64, 52
1, 5079, Control_c, 0, 64, 55
1, 5094, Control_c, 0, 64, 59
1, 5109, Control_c, 0, 64, 63
1, 5123, Control_c, 0, 64, 67
1, 5138, Control_c, 0, 64, 72
1, 5153, Control_c, 0, 64, 79
1, 5168, Control_c, 0, 64, 87
1, 5183, Control_c, 0, 64, 97
1, 5198, Control_c, 0, 64, 109
1, 5213, Control_c, 0, 64, 127
1, 5361, Control_c, 0, 64, 121
1, 5376, Control_c, 0, 64, 115
1, 5390, Control_c, 0, 64, 110
1, 5405, Control_c, 0, 64, 105
1, 5420, Control_c, 0, 64, 100
1, 5434, Control_c, 0, 64, 95
1, 5449, Control_c, 0, 64, 92
1, 5464, Control_c, 0, 64, 89
1, 5479, Control_c, 0, 64, 86
1, 5495, Control_c, 0, 64, 80
1, 5510, Control_c, 0, 64, 73
1, 5511, Note_on_c, 0, 61, 46
1, 5512, Note_on_c, 0, 37, 53
1, 5525, Control_c, 0, 64, 65
1, 5529, Note_on_c, 0, 49, 40
1, 5539, Control_c, 0, 64, 53
1, 5554, Control_c, 0, 64, 34
1, 5569, Control_c, 0, 64, 33
1, 5584, Control_c, 0, 64, 38
1, 5599, Control_c, 0, 64, 47
1, 5613, Control_c, 0, 64, 55
1, 5628, Control_c, 0, 64, 60
1, 5643, Control_c, 0, 64, 64
1, 5657, Control_c, 0, 64, 69
1, 5669, Note_off_c, 0, 53, 39
1, 5671, Note_off_c, 0, 65, 55
1, 5672, Control_c, 0, 64, 75
1, 5695, Control_c, 0, 64, 85
1, 5710, Control_c, 0, 64, 95
1, 5714, Note_off_c, 0, 63, 35
1, 5725, Control_c, 0, 64, 108
1, 5739, Control_c, 0, 64, 127
1, 5931, Note_off_c, 0, 49, 41
1, 5955, Note_off_c, 0, 39, 8
1, 5983, Note_off_c, 0, 37, 36
1, 6017, Note_off_c, 0, 41, 35
1, 6036, Control_c, 0, 64, 123
1, 6051, Control_c, 0, 64, 114
1, 6065, Control_c, 0, 64, 108
1, 6080, Control_c, 0, 64, 99
1, 6081, Note_on_c, 0, 64, 48
1, 6086, Note_on_c, 0, 36, 40
1, 6086, Note_on_c, 0, 70, 73
1, 6091, Note_on_c, 0, 58, 56
1, 6095, Note_on_c, 0, 42, 50
1, 6095, Control_c, 0, 64, 85
1, 6102, Note_on_c, 0, 48, 44
1, 6110, Control_c, 0, 64, 72
1, 6125, Control_c, 0, 64, 62
1, 6140, Control_c, 0, 64, 50
1, 6153, Note_off_c, 0, 61, 50
1, 6170, Control_c, 0, 64, 53
1, 6184, Control_c, 0, 64, 56
1, 6199, Control_c, 0, 64, 59
1, 6214, Control_c, 0, 64, 62
1, 6229, Control_c, 0, 64, 64
1, 6244, Control_c, 0, 64, 67
1, 6258, Control_c, 0, 64, 71
1, 6273, Control_c, 0, 64, 79
1, 6289, Control_c, 0, 64, 95
1, 6298, Note_off_c, 0, 70, 57
1, 6304, Control_c, 0, 64, 127
1, 6333, Control_c, 0, 67, 123
1, 6348, Control_c, 0, 67, 117
1, 6359, Note_off_c, 0, 36, 32
1, 6363, Control_c, 0, 67, 112
1, 6365, Note_off_c, 0, 64, 60
1, 6378, Control_c, 0, 67, 108
1, 6393, Control_c, 0, 67, 104
1, 6408, Control_c, 0, 67, 100
1, 6423, Control_c, 0, 67, 97
1, 6444, Control_c, 0, 67, 95
1, 6481, Note_off_c, 0, 58, 59
1, 6486, Note_off_c, 0, 42, 36
1, 6534, Note_off_c, 0, 48, 30
1, 6667, Control_c, 0, 67, 94
1, 6678, Note_on_c, 0, 35, 53
1, 6682, Note_on_c, 0, 44, 55
1, 6686, Note_on_c, 0, 63, 82
1, 6693, Note_on_c, 0, 47, 45
1, 6705, Note_on_c, 0, 51, 63
1, 6711, Control_c, 0, 67, 93
1, 6713, Note_on_c, 0, 56, 56
1, 6726, Control_c, 0, 67, 93
1, 6741, Control_c, 0, 64, 98
1, 6741, Control_c, 0, 67, 92
1, 6756, Control_c, 0, 64, 80
1, 6756, Control_c, 0, 67, 91
1, 6770, Control_c, 0, 64, 68
1, 6770, Control_c, 0, 67, 88
1, 6785, Control_c, 0, 64, 60
1, 6785, Control_c, 0, 67, 85
1, 6800, Control_c, 0, 64, 58
1, 6800, Control_c, 0, 67, 83
1, 6815, Control_c, 0, 64, 60
1, 6815, Control_c, 0, 67, 81
1, 6830, Control_c, 0, 64, 62
1, 6830, Control_c, 0, 67, 80
1, 6844, Control_c, 0, 64, 64
1, 6844, Control_c, 0, 67, 78
1, 6859, Control_c, 0, 64, 67
1, 6859, Control_c, 0, 67, 77
1, 6874, Control_c, 0, 64, 71
1, 6874, Control_c, 0, 67, 75
1, 6888, Control_c, 0, 64, 81
1, 6888, Control_c, 0, 67, 71
1, 6903, Control_c, 0, 64, 101
1, 6903, Control_c, 0, 67, 66
1, 6918, Control_c, 0, 64, 127
1, 6918, Control_c, 0, 67, 62
1, 6933, Control_c, 0, 67, 60
1, 6948, Control_c, 0, 67, 58
1, 6962, Control_c, 0, 67, 56
1, 6977, Control_c, 0, 67, 53
1, 6992, Control_c, 0, 67, 50
1, 7007, Control_c, 0, 67, 48
1, 7022, Control_c, 0, 67, 45
1, 7034, Note_off_c, 0, 35, 59
1, 7037, Control_c, 0, 67, 43
1, 7052, Control_c, 0, 67, 43
1, 7121, Note_off_c, 0, 47, 32
1, 7208, Control_c, 0, 64, 112
1, 7223, Control_c, 0, 64, 88
1, 7238, Control_c, 0, 64, 74
1, 7249, Note_on_c, 0, 34, 72
1, 7253, Control_c, 0, 64, 65
1, 7267, Control_c, 0, 64, 61
1, 7282, Control_c, 0, 64, 64
1, 7284, Note_on_c, 0, 61, 54
1, 7297, Control_c, 0, 64, 66
1, 7311, Control_c, 0, 64, 70
1, 7326, Control_c, 0, 64, 77
1, 7326, Control_c, 0, 67, 43
1, 7341, Control_c, 0, 64, 90
1, 7356, Control_c, 0, 64, 127
1, 7356, Control_c, 0, 67, 44
1, 7426, Note_off_c, 0, 51, 58
1, 7430, Note_off_c, 0, 63, 50
1, 7496, Note_off_c, 0, 44, 33
1, 7556, Note_on_c, 0, 64, 86
1, 7560, Note_on_c, 0, 52, 74
1, 7623, Control_c, 0, 67, 43
1, 7711, Control_c, 0, 67, 43
1, 7713, Note_off_c, 0, 34, 28
1, 7726, Note_off_c, 0, 61, 35
1, 7741, Control_c, 0, 67, 42
1, 7785, Control_c, 0, 67, 41
1, 7803, Note_off_c, 0, 64, 54
1, 7811, Note_off_c, 0, 52, 51
1, 7830, Control_c, 0, 67, 41
1, 7860, Control_c, 0, 67, 40
1, 7887, Note_off_c, 0, 56, 43
1, 7890, Control_c, 0, 67, 40
1, 7942, Control_c, 0, 67, 38
1, 7945, Note_on_c, 0, 65, 89
1, 7948, Note_on_c, 0, 45, 51
1, 7950, Note_on_c, 0, 33, 55
1, 7957, Control_c, 0, 67, 37
1, 7962, Note_on_c, 0, 53, 66
1, 7964, Note_on_c, 0, 57, 58
1, 7964, Note_on_c, 0, 62, 62
1, 7972, Control_c, 0, 67, 31
1, 7987, Control_c, 0, 67, 26
1, 8002, Control_c, 0, 64, 92
1, 8002, Control_c, 0, 67, 24
1, 8016, Control_c, 0, 64, 74
1, 8016, Control_c, 0, 67, 23
1, 8031, Control_c, 0, 64, 63
1, 8031, Control_c, 0, 67, 22
1, 8046, Control_c, 0, 64, 51
1, 8046, Control_c, 0, 67, 21
1, 8061, Control_c, 0, 64, 44
1, 8061, Control_c, 0, 67, 20
1, 8076, Control_c, 0, 64, 45
1, 8076, Control_c, 0, 67, 19
1, 8090, Control_c, 0, 64, 50
1, 8105, Control_c, 0, 64, 56
1, 8105, Control_c, 0, 67, 18
1, 8120, Control_c, 0, 64, 60
1, 8120, Control_c, 0, 67, 16
1, 8134, Control_c, 0, 64, 63
1, 8134, Control_c, 0, 67, 9
1, 8149, Control_c, 0, 64, 66
1, 8149, Control_c, 0, 67, 0
1, 8164, Control_c, 0, 64, 71
1, 8179, Control_c, 0, 64, 81
1, 8194, Control_c, 0, 64, 110
1, 8208, Control_c, 0, 64, 127
1, 8250, Note_off_c, 0, 33, 34
1, 8256, Note_off_c, 0, 53, 49
1, 8284, Note_off_c, 0, 45, 60
1, 8296, Note_off_c, 0, 57, 57
1, 8331, Note_off_c, 0, 62, 39
1, 8662, Note_on_c, 0, 61, 62
1, 8673, Note_on_c, 0, 57, 54
1, 8676, Note_on_c, 0, 43, 44
1, 8676, Note_on_c, 0, 55, 46
1, 8691, Control_c, 0, 64, 121
1, 8697, Note_on_c, 0, 52, 43
1, 8706, Control_c, 0, 64, 98
1, 8720, Control_c, 0, 64, 84
1, 8735, Control_c, 0, 64, 74
1, 8750, Control_c, 0, 64, 66
1, 8764, Control_c, 0, 64, 58
1, 8779, Control_c, 0, 64, 53
1, 8824, Control_c, 0, 64, 55
1, 8838, Control_c, 0, 64, 59
1, 8853, Control_c, 0, 64, 63
1, 8868, Control_c, 0, 64, 66
1, 8883, Control_c, 0, 64, 70
1, 8898, Control_c, 0, 64, 76
1, 8912, Control_c, 0, 64, 84
1, 8927, Control_c, 0, 64, 98
1, 8942, Control_c, 0, 64, 127
1, 8945, Note_off_c, 0, 43, 35
1, 8978, Note_off_c, 0, 61, 54
1, 8989, Note_off_c, 0, 55, 35
1, 9015, Note_off_c, 0, 57, 36
1, 9025, Note_off_c, 0, 52, 54
1, 9253, Control_c, 0, 64, 119
1, 9268, Control_c, 0, 64, 111
1, 9282, Control_c, 0, 64, 106
1, 9284, Note_on_c, 0, 62, 56
1, 9286, Note_on_c, 0, 41, 44
1, 9297, Note_on_c, 0, 53, 43
1, 9297, Control_c, 0, 64, 100
1, 9303, Note_on_c, 0, 57, 44
1, 9306, Note_on_c, 0, 50, 18
1, 9312, Control_c, 0, 64, 91
1, 9327, Control_c, 0, 64, 81
1, 9342, Control_c, 0, 64, 71
1, 9356, Control_c, 0, 64, 63
1, 9371, Control_c, 0, 64, 54
1, 9386, Control_c, 0, 64, 51
1, 9401, Control_c, 0, 64, 52
1, 9416, Control_c, 0, 64, 54
1, 9438, Control_c, 0, 64, 57
1, 9453, Control_c, 0, 64, 59
1, 9468, Control_c, 0, 64, 61
1, 9484, Control_c, 0, 64, 63
1, 9499, Control_c, 0, 64, 66
1, 9514, Control_c, 0, 64, 68
1, 9529, Control_c, 0, 64, 72
1, 9543, Control_c, 0, 64, 79
1, 9558, Control_c, 0, 64, 89
1, 9573, Control_c, 0, 64, 104
1, 9587, Control_c, 0, 64, 127
1, 9619, Note_off_c, 0, 53, 39
1, 9645, Note_off_c, 0, 50, 35
1, 9731, Note_off_c, 0, 57, 38
1, 9777, Note_off_c, 0, 41, 38
1, 9943, Control_c, 0, 64, 119
1, 9958, Control_c, 0, 64, 108
1, 9973, Control_c, 0, 64, 102
1, 9974, Note_on_c, 0, 39, 39
1, 9976, Note_on_c, 0, 60, 48
1, 9976, Note_on_c, 0, 53, 37
1, 9987, Control_c, 0, 64, 99
1, 9997, Note_on_c, 0, 57, 35
1, 10002, Control_c, 0, 64, 96
1, 10017, Control_c, 0, 64, 93
1, 10032, Control_c, 0, 64, 91
1, 10047, Control_c, 0, 64, 89
1, 10061, Control_c, 0, 64, 86
1, 10076, Control_c, 0, 64, 81
1, 10091, Control_c, 0, 64, 75
1, 10105, Control_c, 0, 64, 68
1, 10120, Control_c, 0, 64, 61
1, 10135, Control_c, 0, 64, 54
1, 10150, Control_c, 0, 64, 53
1, 10165, Control_c, 0, 64, 55
1, 10187, Control_c, 0, 64, 56
1, 10202, Control_c, 0, 64, 58
1, 10217, Control_c, 0, 64, 60
1, 10223, Note_off_c, 0, 62, 30
1, 10232, Control_c, 0, 64, 62
1, 10247, Control_c, 0, 64, 63
1, 10261, Control_c, 0, 64, 64
1, 10277, Control_c, 0, 64, 66
1, 10292, Control_c, 0, 64, 69
1, 10307, Control_c, 0, 64, 73
1, 10322, Control_c, 0, 64, 80
1, 10336, Control_c, 0, 64, 90
1, 10351, Control_c, 0, 64, 100
1, 10366, Control_c, 0, 64, 114
1, 10381, Control_c, 0, 64, 127
1, 10459, Note_off_c, 0, 57, 39
1, 10691, Control_c, 0, 64, 111
1, 10706, Control_c, 0, 64, 100
1, 10709, Note_on_c, 0, 41, 42
1, 10712, Note_on_c, 0, 58, 59
1, 10718, Note_on_c, 0, 37, 39
1, 10721, Control_c, 0, 64, 94
1, 10728, Note_on_c, 0, 49, 34
1, 10735, Control_c, 0, 64, 90
1, 10750, Control_c, 0, 64, 87
1, 10765, Control_c, 0, 64, 85
1, 10780, Control_c, 0, 64, 83
1, 10795, Control_c, 0, 64, 80
1, 10809, Control_c, 0, 64, 76
1, 10824, Control_c, 0, 64, 70
1, 10839, Control_c, 0, 64, 63
1, 10849, Note_off_c, 0, 39, 37
1, 10854, Control_c, 0, 64, 54
1, 10869, Control_c, 0, 64, 49
1, 10883, Control_c, 0, 64, 49
1, 10898, Control_c, 0, 64, 50
1, 10913, Control_c, 0, 64, 53
1, 10935, Control_c, 0, 64, 55
1, 10940, Note_off_c, 0, 60, 31
1, 10950, Control_c, 0, 64, 58
1, 10965, Control_c, 0, 64, 61
1, 10980, Control_c, 0, 64, 63
1, 10995, Control_c, 0, 64, 65
1, 11000, Note_off_c, 0, 53, 43
1, 11009, Control_c, 0, 64, 68
1, 11024, Control_c, 0, 64, 73
1, 11027, Note_off_c, 0, 65, 53
1, 11039, Control_c, 0, 64, 82
1, 11053, Control_c, 0, 64, 95
1, 11068, Control_c, 0, 64, 127
1, 11118, Note_off_c, 0, 58, 60
1, 11485, Note_on_c, 0, 70, 82
1, 11499, Control_c, 0, 64, 108
1, 11503, Note_on_c, 0, 64, 56
1, 11514, Control_c, 0, 64, 94
1, 11517, Note_on_c, 0, 42, 40
1, 11518, Note_on_c, 0, 58, 47
1, 11529, Control_c, 0, 64, 81
1, 11544, Control_c, 0, 64, 69
1, 11558, Control_c, 0, 64, 63
1, 11573, Control_c, 0, 64, 60
1, 11588, Control_c, 0, 64, 61
1, 11603, Control_c, 0, 64, 63
1, 11613, Note_off_c, 0, 41, 36
1, 11618, Control_c, 0, 64, 66
1, 11632, Control_c, 0, 64, 72
1, 11647, Control_c, 0, 64, 81
1, 11662, Control_c, 0, 64, 99
1, 11684, Control_c, 0, 64, 127
1, 11963, Note_off_c, 0, 49, 34
1, 11967, Control_c, 0, 64, 89
1, 11981, Control_c, 0, 64, 72
1, 11994, Note_off_c, 0, 37, 39
1, 11996, Control_c, 0, 64, 62
1, 12011, Control_c, 0, 64, 56
1, 12026, Control_c, 0, 64, 59
1, 12041, Control_c, 0, 64, 62
1, 12046, Note_on_c, 0, 36, 51
1, 12048, Note_on_c, 0, 63, 50
1, 12055, Control_c, 0, 64, 64
1, 12070, Control_c, 0, 64, 68
1, 12085, Control_c, 0, 64, 72
1, 12100, Control_c, 0, 64, 79
1, 12115, Control_c, 0, 64, 91
1, 12129, Control_c, 0, 64, 127
1, 12156, Note_off_c, 0, 64, 35
1, 12232, Note_off_c, 0, 70, 63
1, 12261, Note_off_c, 0, 58, 57
1, 12325, Note_on_c, 0, 69, 70
1, 12354, Note_on_c, 0, 57, 34
1, 12430, Note_off_c, 0, 57, 60
1, 12567, Control_c, 0, 64, 86
1, 12581, Control_c, 0, 64, 68
1, 12592, Note_on_c, 0, 41, 56
1, 12593, Note_on_c, 0, 70, 80
1, 12596, Control_c, 0, 64, 58
1, 12611, Note_on_c, 0, 58, 58
1, 12611, Control_c, 0, 64, 52
1, 12626, Control_c, 0, 64, 57
1, 12631, Note_off_c, 0, 69, 60
1, 12641, Control_c, 0, 64, 61
1, 12655, Control_c, 0, 64, 65
1, 12670, Control_c, 0, 64, 72
1, 12686, Control_c, 0, 64, 85
1, 12697, Note_off_c, 0, 36, 60
1, 12701, Control_c, 0, 64, 127
1, 12730, Note_off_c, 0, 58, 63
1, 12750, Note_off_c, 0, 42, 59
1, 12775, Note_off_c, 0, 63, 62
1, 12805, Note_off_c, 0, 41, 62
1, 12853, Note_on_c, 0, 72, 92
1, 12864, Control_c, 0, 64, 94
1, 12865, Note_on_c, 0, 60, 75
1, 12868, Note_on_c, 0, 69, 67
1, 12878, Control_c, 0, 64, 67
1, 12893, Control_c, 0, 64, 38
1, 12902, Note_on_c, 0, 34, 55
1, 12908, Control_c, 0, 64, 0
1, 12922, Control_c, 0, 64, 30
1, 12937, Control_c, 0, 64, 51
1, 12952, Control_c, 0, 64, 62
1, 12967, Control_c, 0, 64, 68
1, 12978, Note_on_c, 0, 41, 58
1, 12982, Control_c, 0, 64, 80
1, 12992, Note_off_c, 0, 34, 61
1, 12996, Control_c, 0, 64, 127
1, 13002, Note_off_c, 0, 70, 0
1, 13006, Note_off_c, 0, 72, 63
1, 13029, Note_off_c, 0, 60, 60
1, 13039, Poly_aftertouch_c, 0, 70, 127
1, 13048, Note_off_c, 0, 69, 60
1, 13056, Note_off_c, 0, 41, 62
1, 13061, Note_on_c, 0, 46, 55
1, 13067, Poly_aftertouch_c, 0, 70, 0
1, 13162, Note_on_c, 0, 53, 79
1, 13166, Note_on_c, 0, 73, 91
1, 13187, Note_on_c, 0, 70, 67
1, 13195, Note_on_c, 0, 61, 64
1, 13206, Note_on_c, 0, 65, 48
1, 13228, Note_off_c, 0, 46, 59
1, 13453, Note_off_c, 0, 61, 45
1, 13485, Note_off_c, 0, 73, 61
1, 13509, Note_off_c, 0, 65, 59
1, 13574, Note_off_c, 0, 70, 59
1, 13799, Note_on_c, 0, 54, 86
1, 13803, Note_on_c, 0, 70, 97
1, 13818, Note_on_c, 0, 58, 72
1, 13824, Note_on_c, 0, 63, 66
1, 13834, Note_off_c, 0, 53, 63
1, 13968, Note_off_c, 0, 54, 64
1, 14039, Note_off_c, 0, 70, 58
1, 14050, Note_off_c, 0, 63, 61
1, 14146, Note_off_c, 0, 58, 63
1, 14213, Note_on_c, 0, 39, 57
1, 14320, Note_on_c, 0, 49, 48
1, 14415, Note_on_c, 0, 55, 82
1, 14415, Note_on_c, 0, 65, 87
1, 14433, Note_on_c, 0, 53, 66
1, 14436, Control_c, 0, 64, 104
1, 14444, Note_on_c, 0, 61, 55
1, 14445, Note_on_c, 0, 56, 35
1, 14450, Control_c, 0, 64, 77
1, 14465, Control_c, 0, 64, 61
1, 14480, Control_c, 0, 64, 18
1, 14483, Note_off_c, 0, 56, 33
1, 14495, Control_c, 0, 64, 0
1, 14525, Control_c, 0, 64, 16
1, 14540, Control_c, 0, 64, 45
1, 14555, Control_c, 0, 64, 58
1, 14561, Note_off_c, 0, 53, 43
1, 14569, Control_c, 0, 64, 64
1, 14584, Control_c, 0, 64, 71
1, 14599, Control_c, 0, 64, 88
1, 14614, Control_c, 0, 64, 127
1, 14677, Note_off_c, 0, 61, 24
1, 14678, Note_off_c, 0, 39, 58
1, 14720, Note_off_c, 0, 55, 59
1, 14723, Note_off_c, 0, 49, 60
1, 14803, Note_off_c, 0, 65, 68
1, 15145, Note_on_c, 0, 53, 36
1, 15151, Note_on_c, 0, 77, 90
1, 15199, Note_on_c, 0, 65, 33
1, 15349, Note_off_c, 0, 65, 22
1, 15387, Note_off_c, 0, 77, 60
1, 15530, Note_on_c, 0, 55, 77
1, 15657, Note_off_c, 0, 53, 41
1, 15729, Note_off_c, 0, 55, 62
1, 15866, Note_on_c, 0, 56, 70
1, 15874, Note_on_c, 0, 73, 87
1, 15887, Note_on_c, 0, 53, 49
1, 15887, Note_on_c, 0, 44, 50
1, 15895, Note_on_c, 0, 65, 57
1, 15897, Note_on_c, 0, 61, 56
1, 15933, Control_c, 0, 64, 108
1, 15947, Control_c, 0, 64, 82
1, 15962, Control_c, 0, 64, 67
1, 15977, Control_c, 0, 64, 51
1, 15992, Control_c, 0, 64, 32
1, 16021, Control_c, 0, 64, 39
1, 16036, Control_c, 0, 64, 48
1, 16051, Control_c, 0, 64, 56
1, 16066, Control_c, 0, 64, 60
1, 16081, Control_c, 0, 64, 64
1, 16096, Control_c, 0, 64, 68
1, 16111, Control_c, 0, 64, 76
1, 16126, Control_c, 0, 64, 90
1, 16140, Control_c, 0, 64, 127
1, 16194, Note_off_c, 0, 56, 61
1, 16203, Note_off_c, 0, 73, 62
1, 16249, Note_off_c, 0, 61, 48
1, 16410, Note_off_c, 0, 53, 38
1, 16512, Note_on_c, 0, 68, 78
1, 16524, Note_on_c, 0, 56, 54
1, 16572, Note_off_c, 0, 44, 38
1, 16722, Note_off_c, 0, 65, 60
1, 16814, Note_off_c, 0, 56, 45
1, 16943, Note_off_c, 0, 68, 59
1, 17127, Note_on_c, 0, 40, 39
1, 17129, Note_on_c, 0, 70, 67
1, 17136, Note_on_c, 0, 61, 48
1, 17139, Note_on_c, 0, 58, 51
1, 17142, Note_on_c, 0, 67, 54
1, 17148, Control_c, 0, 64, 105
1, 17151, Note_on_c, 0, 32, 37
1, 17163, Control_c, 0, 64, 90
1, 17166, Note_on_c, 0, 44, 28
1, 17178, Control_c, 0, 64, 79
1, 17193, Control_c, 0, 64, 70
1, 17208, Control_c, 0, 64, 63
1, 17223, Control_c, 0, 64, 54
1, 17238, Control_c, 0, 64, 49
1, 17267, Control_c, 0, 64, 50
1, 17282, Control_c, 0, 64, 53
1, 17297, Control_c, 0, 64, 57
1, 17312, Control_c, 0, 64, 61
1, 17327, Control_c, 0, 64, 64
1, 17342, Control_c, 0, 64, 67
1, 17357, Control_c, 0, 64, 71
1, 17371, Control_c, 0, 64, 78
1, 17386, Control_c, 0, 64, 91
1, 17401, Control_c, 0, 64, 127
1, 17420, Note_off_c, 0, 58, 58
1, 17437, Note_off_c, 0, 32, 39
1, 17506, Note_off_c, 0, 61, 37
1, 17512, Note_off_c, 0, 70, 54
1, 17532, Note_off_c, 0, 67, 56
1, 17672, Note_off_c, 0, 44, 32
1, 17712, Note_off_c, 0, 40, 37
1, 17735, Control_c, 0, 64, 112
1, 17748, Note_on_c, 0, 72, 71
1, 17750, Control_c, 0, 64, 104
1, 17757, Note_on_c, 0, 63, 42
1, 17758, Note_on_c, 0, 60, 41
1, 17759, Note_on_c, 0, 39, 36
1, 17765, Control_c, 0, 64, 98
1, 17765, Note_on_c, 0, 32, 31
1, 17778, Note_on_c, 0, 66, 41
1, 17780, Control_c, 0, 64, 93
1, 17794, Control_c, 0, 64, 87
1, 17809, Control_c, 0, 64, 81
1, 17824, Control_c, 0, 64, 75
1, 17839, Control_c, 0, 64, 68
1, 17854, Control_c, 0, 64, 61
1, 17868, Control_c, 0, 64, 52
1, 17883, Control_c, 0, 64, 46
1, 17913, Control_c, 0, 64, 47
1, 17928, Control_c, 0, 64, 50
1, 17942, Control_c, 0, 64, 53
1, 17957, Control_c, 0, 64, 57
1, 17972, Control_c, 0, 64, 60
1, 17987, Control_c, 0, 64, 62
1, 18001, Control_c, 0, 64, 64
1, 18016, Control_c, 0, 64, 67
1, 18031, Control_c, 0, 64, 73
1, 18046, Control_c, 0, 64, 81
1, 18052, Note_off_c, 0, 32, 42
1, 18061, Control_c, 0, 64, 92
1, 18075, Control_c, 0, 64, 112
1, 18090, Control_c, 0, 64, 127
1, 18114, Note_off_c, 0, 72, 38
1, 18138, Note_off_c, 0, 60, 32
1, 18150, Note_off_c, 0, 66, 34
1, 18153, Note_off_c, 0, 63, 30
1, 18287, Note_off_c, 0, 39, 38
1, 18358, Control_c, 0, 64, 119
1, 18373, Control_c, 0, 64, 111
1, 18388, Control_c, 0, 64, 106
1, 18403, Control_c, 0, 64, 100
1, 18416, Note_on_c, 0, 37, 32
1, 18424, Control_c, 0, 64, 94
1, 18436, Note_on_c, 0, 72, 56
1, 18439, Control_c, 0, 64, 86
1, 18441, Note_on_c, 0, 44, 32
1, 18446, Note_on_c, 0, 68, 48
1, 18451, Note_on_c, 0, 60, 36
1, 18454, Control_c, 0, 64, 79
1, 18469, Note_on_c, 0, 63, 24
1, 18469, Control_c, 0, 64, 72
1, 18473, Note_on_c, 0, 66, 26
1, 18484, Control_c, 0, 64, 65
1, 18499, Control_c, 0, 64, 59
1, 18513, Control_c, 0, 64, 53
1, 18528, Control_c, 0, 64, 52
1, 18543, Control_c, 0, 64, 52
1, 18558, Control_c, 0, 64, 55
1, 18573, Control_c, 0, 64, 58
1, 18588, Control_c, 0, 64, 62
1, 18603, Control_c, 0, 64, 64
1, 18617, Control_c, 0, 64, 67
1, 18632, Control_c, 0, 64, 70
1, 18647, Control_c, 0, 64, 75
1, 18662, Control_c, 0, 64, 81
1, 18677, Control_c, 0, 64, 89
1, 18691, Control_c, 0, 64, 99
1, 18696, Note_off_c, 0, 44, 39
1, 18705, Control_c, 0, 64, 110
1, 18720, Control_c, 0, 64, 127
1, 18769, Note_off_c, 0, 37, 40
1, 18972, Control_c, 0, 64, 123
1, 18987, Control_c, 0, 64, 116
1, 19002, Control_c, 0, 64, 112
1, 19016, Control_c, 0, 64, 110
1, 19031, Control_c, 0, 64, 107
1, 19046, Control_c, 0, 64, 104
1, 19062, Control_c, 0, 64, 102
1, 19077, Control_c, 0, 64, 100
1, 19092, Control_c, 0, 64, 97
1, 19099, Note_on_c, 0, 25, 39
1, 19104, Note_on_c, 0, 37, 33
1, 19107, Control_c, 0, 64, 95
1, 19121, Control_c, 0, 64, 94
1, 19136, Control_c, 0, 64, 93
1, 19151, Control_c, 0, 64, 91
1, 19173, Control_c, 0, 64, 86
1, 19188, Control_c, 0, 64, 79
1, 19202, Control_c, 0, 64, 71
1, 19217, Control_c, 0, 64, 64
1, 19232, Control_c, 0, 64, 54
1, 19247, Control_c, 0, 64, 48
1, 19262, Control_c, 0, 64, 49
1, 19277, Control_c, 0, 64, 51
1, 19291, Control_c, 0, 64, 55
1, 19306, Control_c, 0, 64, 59
1, 19321, Control_c, 0, 64, 63
1, 19336, Control_c, 0, 64, 67
1, 19351, Control_c, 0, 64, 72
1, 19362, Note_off_c, 0, 25, 41
1, 19365, Control_c, 0, 64, 81
1, 19380, Control_c, 0, 64, 101
1, 19395, Control_c, 0, 64, 127
1, 19430, Note_off_c, 0, 72, 55
1, 19433, Note_off_c, 0, 60, 43
1, 19450, Note_off_c, 0, 37, 40
1, 19479, Note_off_c, 0, 66, 41
1, 19485, Note_off_c, 0, 63, 41
1, 19527, Note_off_c, 0, 68, 36
1, 19889, Note_on_c, 0, 53, 39
1, 19894, Note_on_c, 0, 73, 52
1, 19896, Note_on_c, 0, 61, 33
1, 19904, Note_on_c, 0, 68, 38
1, 19927, Note_on_c, 0, 65, 30
1, 20285, Note_off_c, 0, 61, 40
1, 20386, Note_off_c, 0, 65, 41
1, 20649, Note_off_c, 0, 53, 33
1, 20692, Note_on_c, 0, 66, 63
1, 20709, Note_on_c, 0, 54, 41
1, 20921, Note_off_c, 0, 54, 41
1, 20967, Note_off_c, 0, 68, 36
1, 21055, Control_c, 0, 64, 114
1, 21070, Control_c, 0, 64, 84
1, 21084, Control_c, 0, 64, 67
1, 21099, Control_c, 0, 64, 54
1, 21108, Note_on_c, 0, 47, 43
1, 21114, Control_c, 0, 64, 52
1, 21129, Control_c, 0, 64, 60
1, 21144, Control_c, 0, 64, 66
1, 21158, Control_c, 0, 64, 74
1, 21169, Note_off_c, 0, 66, 49
1, 21173, Control_c, 0, 64, 93
1, 21178, Note_on_c, 0, 53, 54
1, 21188, Control_c, 0, 64, 127
1, 21190, Note_off_c, 0, 73, 61
1, 21226, Note_off_c, 0, 47, 56
1, 21259, Note_on_c, 0, 56, 53
1, 21451, Note_on_c, 0, 63, 37
1, 21497, Note_on_c, 0, 77, 86
1, 21527, Note_on_c, 0, 65, 49
1, 21534, Note_on_c, 0, 75, 53
1, 21581, Poly_aftertouch_c, 0, 68, 127
1, 21643, Poly_aftertouch_c, 0, 68, 0
1, 21681, Poly_aftertouch_c, 0, 68, 127
1, 21736, Note_off_c, 0, 65, 32
1, 21748, Poly_aftertouch_c, 0, 68, 0
1, 21757, Note_off_c, 0, 53, 31
1, 21779, Note_off_c, 0, 63, 29
1, 21801, Note_off_c, 0, 56, 36
1, 21825, Note_off_c, 0, 77, 61
1, 22000, Note_off_c, 0, 75, 54
1, 22287, Note_on_c, 0, 80, 87
1, 22327, Note_on_c, 0, 68, 46
1, 22686, Control_c, 0, 64, 88
1, 22701, Control_c, 0, 64, 69
1, 22702, Note_on_c, 0, 46, 43
1, 22716, Control_c, 0, 64, 59
1, 22730, Control_c, 0, 64, 57
1, 22745, Control_c, 0, 64, 62
1, 22760, Control_c, 0, 64, 66
1, 22769, Note_off_c, 0, 80, 56
1, 22773, Note_on_c, 0, 53, 50
1, 22775, Control_c, 0, 64, 73
1, 22789, Control_c, 0, 64, 91
1, 22804, Control_c, 0, 64, 127
1, 22819, Note_off_c, 0, 46, 61
1, 22839, Note_on_c, 0, 56, 52
1, 22857, Note_off_c, 0, 68, 60
1, 22922, Note_on_c, 0, 62, 57
1, 22922, Note_on_c, 0, 78, 90
1, 22944, Note_on_c, 0, 68, 51
1, 22948, Note_on_c, 0, 74, 60
1, 22955, Note_on_c, 0, 66, 51
1, 23050, Note_off_c, 0, 53, 33
1, 23210, Note_off_c, 0, 62, 38
1, 23270, Note_off_c, 0, 78, 59
1, 23310, Note_off_c, 0, 56, 35
1, 23357, Note_off_c, 0, 66, 59
1, 23501, Note_on_c, 0, 77, 92
1, 23515, Note_on_c, 0, 65, 72
1, 23699, Note_off_c, 0, 68, 32
1, 23782, Note_off_c, 0, 74, 37
1, 23971, Note_off_c, 0, 77, 45
1, 24045, Note_off_c, 0, 65, 56
1, 24093, Note_on_c, 0, 46, 49
1, 24095, Note_on_c, 0, 51, 47
1, 24100, Note_on_c, 0, 61, 58
1, 24101, Note_on_c, 0, 55, 48
1, 24103, Note_on_c, 0, 77, 92
1, 24113, Note_on_c, 0, 65, 69
1, 24126, Note_on_c, 0, 70, 68
1, 24169, Control_c, 0, 64, 94
1, 24183, Control_c, 0, 64, 76
1, 24198, Control_c, 0, 64, 64
1, 24213, Control_c, 0, 64, 51
1, 24243, Control_c, 0, 64, 54
1, 24258, Control_c, 0, 64, 57
1, 24273, Control_c, 0, 64, 59
1, 24287, Control_c, 0, 64, 61
1, 24302, Control_c, 0, 64, 64
1, 24317, Control_c, 0, 64, 67
1, 24332, Control_c, 0, 64, 74
1, 24347, Control_c, 0, 64, 85
1, 24362, Control_c, 0, 64, 107
1, 24377, Control_c, 0, 64, 127
1, 24426, Note_off_c, 0, 61, 36
1, 24705, Note_on_c, 0, 73, 48
1, 24724, Note_on_c, 0, 58, 72
1, 24778, Note_off_c, 0, 65, 28
1, 24833, Note_off_c, 0, 77, 58
1, 24904, Note_off_c, 0, 73, 61
1, 24905, Note_off_c, 0, 46, 36
1, 24937, Note_off_c, 0, 70, 60
1, 24991, Note_off_c, 0, 55, 34
1, 25042, Note_off_c, 0, 51, 33
1, 25104, Note_off_c, 0, 58, 52
1, 25320, Note_on_c, 0, 75, 70
1, 25321, Note_on_c, 0, 60, 49
1, 25327, Note_on_c, 0, 49, 36
1, 25338, Note_on_c, 0, 63, 49
1, 25340, Note_on_c, 0, 72, 56
1, 25340, Control_c, 0, 64, 121
1, 25352, Note_on_c, 0, 67, 40
1, 25355, Control_c, 0, 64, 110
1, 25358, Note_on_c, 0, 51, 35
1, 25361, Note_on_c, 0, 55, 36
1, 25370, Control_c, 0, 64, 104
1, 25384, Control_c, 0, 64, 97
1, 25399, Control_c, 0, 64, 86
1, 25414, Control_c, 0, 64, 75
1, 25429, Control_c, 0, 64, 64
1, 25444, Control_c, 0, 64, 56
1, 25459, Control_c, 0, 64, 54
1, 25474, Control_c, 0, 64, 55
1, 25489, Control_c, 0, 64, 57
1, 25504, Control_c, 0, 64, 58
1, 25519, Control_c, 0, 64, 61
1, 25533, Control_c, 0, 64, 64
1, 25548, Control_c, 0, 64, 67
1, 25563, Control_c, 0, 64, 71
1, 25578, Control_c, 0, 64, 78
1, 25593, Control_c, 0, 64, 91
1, 25608, Control_c, 0, 64, 127
1, 25666, Note_off_c, 0, 60, 52
1, 25985, Control_c, 0, 64, 118
1, 26000, Control_c, 0, 64, 113
1, 26014, Control_c, 0, 64, 108
1, 26029, Control_c, 0, 64, 103
1, 26044, Control_c, 0, 64, 99
1, 26059, Control_c, 0, 64, 96
1, 26071, Note_on_c, 0, 61, 51
1, 26074, Control_c, 0, 64, 94
1, 26082, Note_on_c, 0, 70, 36
1, 26088, Control_c, 0, 64, 93
1, 26103, Control_c, 0, 64, 92
1, 26118, Control_c, 0, 64, 90
1, 26133, Control_c, 0, 64, 87
1, 26148, Control_c, 0, 64, 81
1, 26162, Control_c, 0, 64, 73
1, 26177, Control_c, 0, 64, 63
1, 26192, Control_c, 0, 64, 52
1, 26201, Note_off_c, 0, 72, 42
1, 26207, Control_c, 0, 64, 50
1, 26222, Control_c, 0, 64, 53
1, 26237, Control_c, 0, 64, 55
1, 26252, Control_c, 0, 64, 58
1, 26267, Control_c, 0, 64, 61
1, 26280, Note_off_c, 0, 67, 36
1, 26282, Control_c, 0, 64, 63
1, 26297, Control_c, 0, 64, 66
1, 26311, Control_c, 0, 64, 69
1, 26326, Control_c, 0, 64, 75
1, 26341, Control_c, 0, 64, 83
1, 26356, Control_c, 0, 64, 93
1, 26361, Note_off_c, 0, 55, 44
1, 26371, Control_c, 0, 64, 103
1, 26373, Note_off_c, 0, 70, 37
1, 26386, Control_c, 0, 64, 110
1, 26401, Control_c, 0, 64, 112
1, 26404, Note_off_c, 0, 49, 32
1, 26416, Control_c, 0, 64, 113
1, 26419, Note_off_c, 0, 61, 33
1, 26421, Note_off_c, 0, 75, 56
1, 26425, Note_off_c, 0, 51, 35
1, 26429, Note_off_c, 0, 63, 24
1, 26445, Control_c, 0, 64, 113
1, 26549, Control_c, 0, 64, 113
1, 26564, Control_c, 0, 64, 111
1, 26578, Control_c, 0, 64, 111
1, 26593, Control_c, 0, 64, 110
1, 26608, Control_c, 0, 64, 108
1, 26622, Control_c, 0, 64, 108
1, 26637, Control_c, 0, 64, 107
1, 26660, Control_c, 0, 64, 106
1, 26675, Control_c, 0, 64, 106
1, 26690, Control_c, 0, 64, 105
1, 26704, Control_c, 0, 64, 105
1, 26719, Control_c, 0, 64, 104
1, 26734, Control_c, 0, 64, 102
1, 26749, Control_c, 0, 64, 101
1, 26764, Control_c, 0, 64, 99
1, 26778, Control_c, 0, 64, 98
1, 26793, Control_c, 0, 64, 96
1, 26808, Control_c, 0, 64, 95
1, 26823, Control_c, 0, 64, 93
1, 26837, Control_c, 0, 64, 92
1, 26852, Control_c, 0, 64, 90
1, 26857, Note_on_c, 0, 75, 41
1, 26867, Note_on_c, 0, 58, 29
1, 26867, Control_c, 0, 64, 88
1, 26872, Note_on_c, 0, 63, 32
1, 26872, Note_on_c, 0, 70, 34
1, 26876, Note_on_c, 0, 54, 33
1, 26882, Control_c, 0, 64, 86
1, 26883, Note_on_c, 0, 48, 32
1, 26897, Control_c, 0, 64, 85
1, 26911, Control_c, 0, 64, 83
1, 26926, Control_c, 0, 64, 81
1, 26941, Control_c, 0, 64, 77
1, 26956, Control_c, 0, 64, 71
1, 26971, Control_c, 0, 64, 64
1, 26985, Control_c, 0, 64, 57
1, 27000, Control_c, 0, 64, 54
1, 27015, Control_c, 0, 64, 55
1, 27030, Control_c, 0, 64, 56
1, 27045, Control_c, 0, 64, 58
1, 27060, Control_c, 0, 64, 60
1, 27075, Control_c, 0, 64, 62
1, 27090, Control_c, 0, 64, 64
1, 27105, Control_c, 0, 64, 66
1, 27120, Control_c, 0, 64, 69
1, 27134, Control_c, 0, 64, 72
1, 27149, Control_c, 0, 64, 78
1, 27164, Control_c, 0, 64, 84
1, 27179, Control_c, 0, 64, 92
1, 27185, Note_off_c, 0, 54, 39
1, 27194, Control_c, 0, 64, 101
1, 27209, Control_c, 0, 64, 110
1, 27224, Control_c, 0, 64, 121
1, 27228, Note_off_c, 0, 63, 47
1, 27239, Control_c, 0, 64, 127
1, 27458, Note_on_c, 0, 54, 35
1, 27465, Note_on_c, 0, 78, 56
1, 27490, Note_on_c, 0, 66, 26
1, 27623, Note_off_c, 0, 48, 41
1, 27665, Note_off_c, 0, 75, 26
1, 27699, Note_off_c, 0, 54, 44
1, 27709, Note_off_c, 0, 70, 42
1, 27715, Note_off_c, 0, 58, 52
1, 27856, Note_off_c, 0, 78, 61
1, 27870, Note_off_c, 0, 66, 40
1, 27999, Note_on_c, 0, 77, 66
1, 27999, Note_on_c, 0, 54, 39
1, 28001, Note_on_c, 0, 44, 36
1, 28001, Note_on_c, 0, 59, 33
1, 28017, Control_c, 0, 64, 111
1, 28022, Note_on_c, 0, 65, 38
1, 28029, Note_on_c, 0, 69, 24
1, 28031, Control_c, 0, 64, 93
1, 28046, Control_c, 0, 64, 80
1, 28061, Control_c, 0, 64, 69
1, 28076, Control_c, 0, 64, 62
1, 28091, Control_c, 0, 64, 57
1, 28106, Control_c, 0, 64, 59
1, 28121, Control_c, 0, 64, 61
1, 28136, Control_c, 0, 64, 63
1, 28157, Control_c, 0, 64, 65
1, 28172, Control_c, 0, 64, 69
1, 28187, Control_c, 0, 64, 74
1, 28202, Control_c, 0, 64, 81
1, 28217, Control_c, 0, 64, 94
1, 28231, Control_c, 0, 64, 127
1, 28276, Note_off_c, 0, 44, 40
1, 28328, Note_off_c, 0, 54, 60
1, 28369, Note_off_c, 0, 65, 60
1, 28395, Note_off_c, 0, 69, 42
1, 28596, Note_on_c, 0, 75, 76
1, 28611, Note_on_c, 0, 60, 44
1, 28612, Note_on_c, 0, 63, 52
1, 28615, Note_on_c, 0, 68, 56
1, 28619, Note_off_c, 0, 59, 38
1, 28693, Note_off_c, 0, 60, 58
1, 28698, Note_off_c, 0, 77, 51
1, 28860, Note_off_c, 0, 75, 59
1, 28920, Note_off_c, 0, 68, 57
1, 29085, Note_off_c, 0, 63, 42
1, 29188, Control_c, 0, 64, 116
1, 29203, Control_c, 0, 64, 108
1, 29218, Control_c, 0, 64, 102
1, 29232, Control_c, 0, 64, 98
1, 29236, Note_on_c, 0, 75, 79
1, 29245, Note_on_c, 0, 53, 43
1, 29245, Note_on_c, 0, 59, 46
1, 29247, Control_c, 0, 64, 92
1, 29249, Note_on_c, 0, 71, 62
1, 29254, Note_on_c, 0, 65, 46
1, 29254, Note_on_c, 0, 63, 52
1, 29262, Control_c, 0, 64, 86
1, 29266, Note_on_c, 0, 44, 24
1, 29277, Control_c, 0, 64, 78
1, 29292, Control_c, 0, 64, 68
1, 29306, Control_c, 0, 64, 59
1, 29321, Control_c, 0, 64, 47
1, 29336, Control_c, 0, 64, 47
1, 29351, Control_c, 0, 64, 49
1, 29366, Control_c, 0, 64, 52
1, 29380, Control_c, 0, 64, 56
1, 29395, Control_c, 0, 64, 59
1, 29410, Control_c, 0, 64, 61
1, 29424, Control_c, 0, 64, 64
1, 29439, Control_c, 0, 64, 67
1, 29456, Control_c, 0, 64, 70
1, 29470, Control_c, 0, 64, 76
1, 29485, Control_c, 0, 64, 86
1, 29500, Control_c, 0, 64, 102
1, 29515, Control_c, 0, 64, 127
1, 29537, Note_off_c, 0, 75, 54
1, 29629, Note_off_c, 0, 63, 54
1, 29708, Note_off_c, 0, 59, 42
1, 29847, Control_c, 0, 64, 121
1, 29859, Note_on_c, 0, 74, 79
1, 29862, Control_c, 0, 64, 108
1, 29866, Note_on_c, 0, 58, 51
1, 29874, Note_on_c, 0, 70, 58
1, 29877, Control_c, 0, 64, 101
1, 29879, Note_on_c, 0, 62, 50
1, 29892, Control_c, 0, 64, 94
1, 29907, Control_c, 0, 64, 85
1, 29922, Control_c, 0, 64, 76
1, 29931, Note_off_c, 0, 71, 37
1, 29936, Control_c, 0, 64, 66
1, 29951, Control_c, 0, 64, 59
1, 29966, Control_c, 0, 64, 53
1, 29981, Control_c, 0, 64, 54
1, 29996, Control_c, 0, 64, 56
1, 30011, Control_c, 0, 64, 59
1, 30026, Control_c, 0, 64, 62
1, 30041, Control_c, 0, 64, 64
1, 30055, Control_c, 0, 64, 67
1, 30070, Control_c, 0, 64, 72
1, 30085, Control_c, 0, 64, 82
1, 30100, Control_c, 0, 64, 98
1, 30115, Control_c, 0, 64, 127
1, 30129, Note_off_c, 0, 70, 56
1, 30154, Note_off_c, 0, 74, 62
1, 30231, Note_off_c, 0, 44, 37
1, 30258, Note_off_c, 0, 62, 59
1, 30265, Note_off_c, 0, 58, 37
1, 30293, Note_off_c, 0, 65, 52
1, 30331, Note_off_c, 0, 53, 38
1, 30533, Note_on_c, 0, 73, 73
1, 30534, Note_on_c, 0, 51, 35
1, 30538, Control_c, 0, 64, 121
1, 30544, Note_on_c, 0, 63, 49
1, 30545, Note_on_c, 0, 57, 38
1, 30550, Note_on_c, 0, 45, 32
1, 30550, Note_on_c, 0, 66, 51
1, 30552, Control_c, 0, 64, 109
1, 30555, Note_on_c, 0, 61, 51
1, 30567, Control_c, 0, 64, 105
1, 30582, Control_c, 0, 64, 103
1, 30597, Control_c, 0, 64, 99
1, 30612, Control_c, 0, 64, 94
1, 30626, Control_c, 0, 64, 85
1, 30641, Control_c, 0, 64, 72
1, 30656, Control_c, 0, 64, 64
1, 30671, Control_c, 0, 64, 55
1, 30685, Control_c, 0, 64, 50
1, 30700, Control_c, 0, 64, 51
1, 30715, Control_c, 0, 64, 54
1, 30730, Control_c, 0, 64, 57
1, 30744, Control_c, 0, 64, 60
1, 30759, Control_c, 0, 64, 63
1, 30774, Control_c, 0, 64, 65
1, 30789, Control_c, 0, 64, 69
1, 30804, Control_c, 0, 64, 74
1, 30819, Control_c, 0, 64, 82
1, 30834, Control_c, 0, 64, 98
1, 30838, Note_off_c, 0, 57, 34
1, 30848, Control_c, 0, 64, 127
1, 30866, Note_off_c, 0, 45, 40
1, 30946, Note_off_c, 0, 51, 52
1, 30968, Note_off_c, 0, 61, 55
1, 31021, Note_off_c, 0, 73, 35
1, 31296, Note_on_c, 0, 72, 73
1, 31299, Note_on_c, 0, 39, 55
1, 31301, Control_c, 0, 64, 107
1, 31313, Note_on_c, 0, 60, 46
1, 31316, Control_c, 0, 64, 100
1, 31321, Note_on_c, 0, 51, 45
1, 31331, Control_c, 0, 64, 96
1, 31346, Control_c, 0, 64, 93
1, 31361, Control_c, 0, 64, 87
1, 31375, Control_c, 0, 64, 78
1, 31390, Control_c, 0, 64, 68
1, 31405, Control_c, 0, 64, 60
1, 31418, Control_c, 0, 64, 54
1, 31433, Control_c, 0, 64, 53
1, 31448, Control_c, 0, 64, 54
1, 31462, Control_c, 0, 64, 55
1, 31477, Control_c, 0, 64, 58
1, 31492, Control_c, 0, 64, 60
1, 31507, Control_c, 0, 64, 62
1, 31522, Control_c, 0, 64, 64
1, 31537, Control_c, 0, 64, 67
1, 31552, Control_c, 0, 64, 70
1, 31566, Control_c, 0, 64, 77
1, 31581, Control_c, 0, 64, 85
1, 31596, Control_c, 0, 64, 97
1, 31611, Control_c, 0, 64, 117
1, 31625, Control_c, 0, 64, 127
1, 31629, Note_off_c, 0, 66, 26
1, 31650, Note_off_c, 0, 51, 53
1, 31684, Note_off_c, 0, 63, 35
1, 31773, Note_off_c, 0, 39, 27
1, 31945, Control_c, 0, 64, 117
1, 31960, Control_c, 0, 64, 111
1, 31975, Control_c, 0, 64, 107
1, 31990, Control_c, 0, 64, 104
1, 32004, Control_c, 0, 64, 101
1, 32019, Control_c, 0, 64, 98
1, 32034, Control_c, 0, 64, 95
1, 32048, Control_c, 0, 64, 94
1, 32063, Control_c, 0, 64, 93
1, 32080, Note_on_c, 0, 37, 61
1, 32093, Control_c, 0, 64, 93
1, 32094, Note_on_c, 0, 65, 52
1, 32095, Note_on_c, 0, 51, 54
1, 32100, Note_on_c, 0, 45, 50
1, 32108, Control_c, 0, 64, 91
1, 32122, Control_c, 0, 64, 85
1, 32137, Control_c, 0, 64, 75
1, 32152, Control_c, 0, 64, 67
1, 32168, Control_c, 0, 64, 60
1, 32183, Control_c, 0, 64, 56
1, 32197, Control_c, 0, 64, 57
1, 32212, Control_c, 0, 64, 58
1, 32227, Control_c, 0, 64, 60
1, 32241, Control_c, 0, 64, 62
1, 32256, Control_c, 0, 64, 64
1, 32271, Control_c, 0, 64, 67
1, 32286, Control_c, 0, 64, 70
1, 32301, Control_c, 0, 64, 77
1, 32315, Control_c, 0, 64, 89
1, 32330, Control_c, 0, 64, 112
1, 32345, Control_c, 0, 64, 127
1, 32422, Note_off_c, 0, 72, 55
1, 32470, Note_off_c, 0, 51, 40
1, 32490, Note_off_c, 0, 45, 32
1, 32511, Note_off_c, 0, 60, 57
1, 32709, Control_c, 0, 64, 119
1, 32724, Control_c, 0, 64, 110
1, 32734, Note_on_c, 0, 46, 46
1, 32739, Control_c, 0, 64, 104
1, 32742, Note_on_c, 0, 70, 76
1, 32749, Note_on_c, 0, 49, 49
1, 32749, Note_on_c, 0, 58, 61
1, 32753, Control_c, 0, 64, 98
1, 32768, Control_c, 0, 64, 91
1, 32783, Control_c, 0, 64, 81
1, 32798, Control_c, 0, 64, 72
1, 32813, Control_c, 0, 64, 64
1, 32828, Control_c, 0, 64, 58
1, 32843, Control_c, 0, 64, 55
1, 32858, Control_c, 0, 64, 57
1, 32872, Control_c, 0, 64, 58
1, 32887, Control_c, 0, 64, 60
1, 32902, Control_c, 0, 64, 62
1, 32917, Control_c, 0, 64, 64
1, 32932, Control_c, 0, 64, 66
1, 32946, Control_c, 0, 64, 69
1, 32961, Control_c, 0, 64, 73
1, 32972, Note_off_c, 0, 65, 30
1, 32976, Control_c, 0, 64, 81
1, 32991, Control_c, 0, 64, 91
1, 33006, Control_c, 0, 64, 104
1, 33020, Control_c, 0, 64, 127
1, 33204, Note_off_c, 0, 49, 36
1, 33241, Note_off_c, 0, 37, 34
1, 33242, Note_off_c, 0, 46, 35
1, 33257, Control_c, 0, 64, 118
1, 33272, Control_c, 0, 64, 107
1, 33287, Control_c, 0, 64, 96
1, 33299, Note_on_c, 0, 42, 57
1, 33299, Note_on_c, 0, 48, 45
1, 33299, Note_on_c, 0, 63, 54
1, 33300, Note_on_c, 0, 36, 59
1, 33302, Control_c, 0, 64, 83
1, 33317, Control_c, 0, 64, 70
1, 33332, Control_c, 0, 64, 60
1, 33346, Control_c, 0, 64, 49
1, 33361, Control_c, 0, 64, 52
1, 33376, Control_c, 0, 64, 56
1, 33398, Control_c, 0, 64, 59
1, 33413, Control_c, 0, 64, 62
1, 33427, Control_c, 0, 64, 64
1, 33443, Control_c, 0, 64, 67
1, 33458, Control_c, 0, 64, 72
1, 33473, Control_c, 0, 64, 80
1, 33488, Control_c, 0, 64, 91
1, 33502, Control_c, 0, 64, 107
1, 33517, Control_c, 0, 64, 127
1, 33520, Note_off_c, 0, 70, 62
1, 33552, Note_off_c, 0, 58, 61
1, 33610, Note_on_c, 0, 69, 70
1, 33621, Note_on_c, 0, 57, 51
1, 33761, Note_off_c, 0, 57, 56
1, 33776, Note_off_c, 0, 42, 56
1, 33888, Control_c, 0, 64, 118
1, 33902, Control_c, 0, 64, 106
1, 33917, Note_on_c, 0, 70, 82
1, 33917, Control_c, 0, 64, 91
1, 33918, Note_on_c, 0, 41, 69
1, 33928, Note_on_c, 0, 58, 68
1, 33932, Control_c, 0, 64, 76
1, 33947, Control_c, 0, 64, 64
1, 33948, Note_off_c, 0, 69, 58
1, 33962, Control_c, 0, 64, 49
1, 33976, Control_c, 0, 64, 39
1, 33991, Control_c, 0, 64, 45
1, 34006, Control_c, 0, 64, 51
1, 34021, Control_c, 0, 64, 57
1, 34035, Control_c, 0, 64, 60
1, 34050, Control_c, 0, 64, 64
1, 34065, Control_c, 0, 64, 67
1, 34080, Control_c, 0, 64, 75
1, 34095, Control_c, 0, 64, 88
1, 34103, Note_off_c, 0, 58, 64
1, 34110, Control_c, 0, 64, 111
1, 34124, Control_c, 0, 64, 127
1, 34127, Note_off_c, 0, 36, 29
1, 34178, Note_off_c, 0, 63, 59
1, 34273, Note_on_c, 0, 72, 88
1, 34280, Note_on_c, 0, 60, 73
1, 34282, Note_on_c, 0, 69, 70
1, 34300, Note_off_c, 0, 48, 56
1, 34500, Note_off_c, 0, 72, 60
1, 34556, Note_off_c, 0, 60, 61
1, 34567, Note_off_c, 0, 69, 54
1, 34615, Note_off_c, 0, 70, 39
1, 34667, Note_on_c, 0, 46, 53
1, 34671, Note_on_c, 0, 34, 56
1, 34678, Note_on_c, 0, 73, 87
1, 34694, Note_on_c, 0, 61, 69
1, 34694, Note_on_c, 0, 65, 61
1, 34697, Note_on_c, 0, 70, 69
1, 34755, Control_c, 0, 64, 107
1, 34770, Control_c, 0, 64, 98
1, 34784, Control_c, 0, 64, 93
1, 34799, Control_c, 0, 64, 87
1, 34814, Control_c, 0, 64, 78
1, 34829, Control_c, 0, 64, 66
1, 34844, Control_c, 0, 64, 54
1, 34858, Control_c, 0, 64, 40
1, 34873, Control_c, 0, 64, 39
1, 34925, Control_c, 0, 64, 40
1, 34940, Control_c, 0, 64, 43
1, 34955, Control_c, 0, 64, 47
1, 34970, Control_c, 0, 64, 53
1, 34985, Control_c, 0, 64, 58
1, 34999, Control_c, 0, 64, 61
1, 35014, Control_c, 0, 64, 64
1, 35029, Control_c, 0, 64, 67
1, 35045, Control_c, 0, 64, 71
1, 35060, Control_c, 0, 64, 79
1, 35075, Control_c, 0, 64, 92
1, 35089, Control_c, 0, 64, 118
1, 35104, Control_c, 0, 64, 127
1, 35182, Note_off_c, 0, 73, 58
1, 35207, Note_off_c, 0, 70, 36
1, 35238, Note_off_c, 0, 61, 48
1, 35450, Note_off_c, 0, 46, 33
1, 35476, Note_on_c, 0, 70, 75
1, 35494, Note_on_c, 0, 58, 58
1, 35529, Note_off_c, 0, 41, 34
1, 35540, Note_off_c, 0, 34, 41
1, 35703, Note_off_c, 0, 65, 56
1, 35767, Note_off_c, 0, 70, 62
1, 35940, Note_off_c, 0, 58, 52
1, 36238, Control_c, 0, 64, 123
1, 36253, Control_c, 0, 64, 110
1, 36261, Note_on_c, 0, 32, 35
1, 36268, Control_c, 0, 64, 103
1, 36279, Note_on_c, 0, 65, 52
1, 36283, Control_c, 0, 64, 98
1, 36295, Note_on_c, 0, 61, 41
1, 36297, Control_c, 0, 64, 94
1, 36312, Control_c, 0, 64, 90
1, 36312, Note_on_c, 0, 53, 27
1, 36327, Control_c, 0, 64, 83
1, 36342, Control_c, 0, 64, 75
1, 36356, Control_c, 0, 64, 66
1, 36371, Control_c, 0, 64, 57
1, 36393, Control_c, 0, 64, 50
1, 36408, Control_c, 0, 64, 51
1, 36423, Control_c, 0, 64, 55
1, 36438, Control_c, 0, 64, 58
1, 36453, Control_c, 0, 64, 61
1, 36467, Control_c, 0, 64, 64
1, 36482, Control_c, 0, 64, 67
1, 36497, Control_c, 0, 64, 72
1, 36512, Control_c, 0, 64, 82
1, 36527, Control_c, 0, 64, 94
1, 36542, Control_c, 0, 64, 104
1, 36542, Note_off_c, 0, 32, 52
1, 36557, Control_c, 0, 64, 111
1, 36571, Control_c, 0, 64, 112
1, 36586, Control_c, 0, 64, 113
1, 36726, Note_on_c, 0, 48, 28
1, 36753, Note_on_c, 0, 60, 35
1, 36911, Note_off_c, 0, 53, 33
1, 36972, Control_c, 0, 64, 113
1, 36986, Control_c, 0, 64, 114
1, 37069, Note_on_c, 0, 58, 49
1, 37076, Note_on_c, 0, 46, 36
1, 37200, Note_off_c, 0, 65, 34
1, 37243, Note_off_c, 0, 48, 37
1, 37365, Control_c, 0, 64, 113
1, 37380, Control_c, 0, 64, 113
1, 37398, Note_off_c, 0, 46, 35
1, 37436, Note_on_c, 0, 41, 39
1, 37442, Note_on_c, 0, 53, 58
1, 37454, Control_c, 0, 64, 112
1, 37481, Note_off_c, 0, 60, 35
1, 37484, Control_c, 0, 64, 111
1, 37499, Control_c, 0, 64, 111
1, 37558, Control_c, 0, 64, 110
1, 37584, Note_off_c, 0, 61, 37
1, 37600, Note_off_c, 0, 41, 35
1, 37603, Control_c, 0, 64, 110
1, 37648, Note_off_c, 0, 53, 56
1, 37677, Control_c, 0, 64, 109
1, 37691, Control_c, 0, 64, 108
1, 37706, Control_c, 0, 64, 107
1, 37721, Control_c, 0, 64, 107
1, 37735, Control_c, 0, 64, 105
1, 37750, Control_c, 0, 64, 105
1, 37765, Control_c, 0, 64, 104
1, 37768, Note_off_c, 0, 58, 34
1, 37780, Control_c, 0, 64, 103
1, 37795, Control_c, 0, 64, 102
1, 37809, Control_c, 0, 64, 100
1, 37824, Control_c, 0, 64, 99
1, 37839, Control_c, 0, 64, 99
1, 37869, Control_c, 0, 64, 98
1, 37891, Control_c, 0, 64, 97
1, 37906, Control_c, 0, 64, 97
1, 37921, Control_c, 0, 64, 95
1, 37935, Control_c, 0, 64, 94
1, 37950, Control_c, 0, 64, 93
1, 37954, Note_on_c, 0, 30, 34
1, 37956, Note_on_c, 0, 59, 37
1, 37962, Note_on_c, 0, 63, 48
1, 37965, Control_c, 0, 64, 92
1, 37969, Note_on_c, 0, 51, 40
1, 37975, Note_on_c, 0, 42, 27
1, 37980, Control_c, 0, 64, 91
1, 37995, Control_c, 0, 64, 91
1, 38009, Control_c, 0, 64, 90
1, 38024, Control_c, 0, 64, 88
1, 38039, Control_c, 0, 64, 87
1, 38054, Control_c, 0, 64, 85
1, 38068, Control_c, 0, 64, 84
1, 38083, Control_c, 0, 64, 83
1, 38098, Control_c, 0, 64, 82
1, 38113, Control_c, 0, 64, 81
1, 38128, Control_c, 0, 64, 80
1, 38143, Control_c, 0, 64, 80
1, 38158, Control_c, 0, 64, 79
1, 38173, Control_c, 0, 64, 78
1, 38187, Control_c, 0, 64, 76
1, 38202, Control_c, 0, 64, 74
1, 38217, Control_c, 0, 64, 72
1, 38232, Control_c, 0, 64, 70
1, 38247, Control_c, 0, 64, 68
1, 38262, Control_c, 0, 64, 67
1, 38277, Control_c, 0, 64, 66
1, 38292, Control_c, 0, 64, 65
1, 38307, Control_c, 0, 64, 64
1, 38322, Control_c, 0, 64, 63
1, 38336, Control_c, 0, 64, 63
1, 38351, Control_c, 0, 64, 62
1, 38366, Control_c, 0, 64, 61
1, 38381, Control_c, 0, 64, 61
1, 38396, Control_c, 0, 64, 60
1, 38411, Control_c, 0, 64, 60
1, 38426, Control_c, 0, 64, 59
1, 38440, Control_c, 0, 64, 58
1, 38455, Control_c, 0, 64, 57
1, 38484, Control_c, 0, 64, 56
1, 38499, Control_c, 0, 64, 56
1, 38514, Control_c, 0, 64, 55
1, 38544, Control_c, 0, 64, 55
1, 38573, Control_c, 0, 64, 54
1, 38603, Control_c, 0, 64, 54
1, 38617, Note_on_c, 0, 58, 46
1, 38624, Note_on_c, 0, 61, 58
1, 38714, Control_c, 0, 64, 53
1, 38758, Control_c, 0, 64, 53
1, 38767, Note_off_c, 0, 59, 33
1, 38788, Control_c, 0, 64, 52
1, 38800, Note_off_c, 0, 63, 61
1, 38803, Control_c, 0, 64, 52
1, 38818, Control_c, 0, 64, 51
1, 38832, Control_c, 0, 64, 51
1, 38847, Control_c, 0, 64, 50
1, 38862, Control_c, 0, 64, 50
1, 38891, Control_c, 0, 64, 49
1, 39010, Control_c, 0, 64, 50
1, 39025, Control_c, 0, 64, 52
1, 39041, Control_c, 0, 64, 53
1, 39055, Control_c, 0, 64, 56
1, 39070, Control_c, 0, 64, 58
1, 39085, Control_c, 0, 64, 60
1, 39100, Control_c, 0, 64, 62
1, 39114, Control_c, 0, 64, 65
1, 39129, Control_c, 0, 64, 67
1, 39144, Control_c, 0, 64, 71
1, 39159, Control_c, 0, 64, 75
1, 39174, Control_c, 0, 64, 80
1, 39189, Control_c, 0, 64, 85
1, 39204, Control_c, 0, 64, 87
1, 39249, Control_c, 0, 64, 87
1, 39263, Control_c, 0, 64, 86
1, 39293, Control_c, 0, 64, 85
1, 39299, Note_on_c, 0, 60, 44
1, 39307, Control_c, 0, 64, 84
1, 39315, Note_on_c, 0, 57, 35
1, 39322, Control_c, 0, 64, 84
1, 39337, Control_c, 0, 64, 83
1, 39352, Control_c, 0, 64, 82
1, 39367, Control_c, 0, 64, 80
1, 39389, Control_c, 0, 64, 80
1, 39404, Control_c, 0, 64, 79
1, 39419, Control_c, 0, 64, 77
1, 39433, Control_c, 0, 64, 76
1, 39448, Control_c, 0, 64, 74
1, 39463, Control_c, 0, 64, 73
1, 39478, Control_c, 0, 64, 73
1, 39493, Control_c, 0, 64, 72
1, 39508, Control_c, 0, 64, 71
1, 39522, Control_c, 0, 64, 69
1, 39532, Note_off_c, 0, 58, 23
1, 39537, Control_c, 0, 64, 67
1, 39552, Control_c, 0, 64, 66
1, 39567, Control_c, 0, 64, 64
1, 39582, Control_c, 0, 64, 64
1, 39596, Control_c, 0, 64, 63
1, 39611, Control_c, 0, 64, 63
1, 39641, Control_c, 0, 64, 62
1, 39655, Control_c, 0, 64, 61
1, 39667, Note_off_c, 0, 61, 31
1, 39670, Control_c, 0, 64, 61
1, 39685, Control_c, 0, 64, 60
1, 39700, Control_c, 0, 64, 59
1, 39714, Control_c, 0, 64, 59
1, 39729, Control_c, 0, 64, 58
1, 39744, Control_c, 0, 64, 58
1, 39774, Control_c, 0, 64, 57
1, 39803, Control_c, 0, 64, 56
1, 39818, Control_c, 0, 64, 56
1, 39834, Control_c, 0, 64, 55
1, 39860, Note_off_c, 0, 42, 41
1, 39864, Control_c, 0, 64, 55
1, 39878, Control_c, 0, 64, 54
1, 39908, Control_c, 0, 64, 54
1, 39952, Control_c, 0, 64, 53
1, 39967, Control_c, 0, 64, 53
1, 39997, Control_c, 0, 64, 52
1, 39998, Note_on_c, 0, 41, 27
1, 40003, Note_on_c, 0, 29, 34
1, 40012, Control_c, 0, 64, 52
1, 40042, Control_c, 0, 64, 51
1, 40056, Control_c, 0, 64, 50
1, 40071, Control_c, 0, 64, 49
1, 40086, Control_c, 0, 64, 48
1, 40101, Control_c, 0, 64, 47
1, 40116, Control_c, 0, 64, 45
1, 40120, Note_off_c, 0, 30, 41
1, 40137, Control_c, 0, 64, 44
1, 40152, Control_c, 0, 64, 43
1, 40167, Control_c, 0, 64, 42
1, 40226, Control_c, 0, 64, 44
1, 40241, Control_c, 0, 64, 48
1, 40256, Control_c, 0, 64, 51
1, 40271, Control_c, 0, 64, 54
1, 40286, Control_c, 0, 64, 56
1, 40301, Control_c, 0, 64, 58
1, 40316, Control_c, 0, 64, 60
1, 40331, Control_c, 0, 64, 63
1, 40345, Control_c, 0, 64, 65
1, 40357, Note_off_c, 0, 29, 41
1, 40360, Control_c, 0, 64, 70
1, 40364, Note_on_c, 0, 58, 35
1, 40375, Control_c, 0, 64, 76
1, 40390, Control_c, 0, 64, 84
1, 40404, Control_c, 0, 64, 93
1, 40406, Note_off_c, 0, 41, 45
1, 40419, Control_c, 0, 64, 107
1, 40434, Control_c, 0, 64, 127
1, 40441, Note_off_c, 0, 57, 55
1, 40470, Note_off_c, 0, 58, 62
1, 40471, Note_off_c, 0, 60, 39
1, 40521, Note_off_c, 0, 51, 51
1, 40746, Control_c, 0, 64, 123
1, 40760, Control_c, 0, 64, 119
1, 40775, Control_c, 0, 64, 115
1, 40790, Control_c, 0, 64, 112
1, 40793, Note_on_c, 0, 58, 45
1, 40802, Note_on_c, 0, 34, 32
1, 40802, Note_on_c, 0, 53, 39
1, 40805, Control_c, 0, 64, 110
1, 40806, Note_on_c, 0, 46, 31
1, 40820, Control_c, 0, 64, 109
1, 40823, Note_on_c, 0, 51, 22
1, 40834, Control_c, 0, 64, 107
1, 40849, Control_c, 0, 64, 106
1, 40864, Control_c, 0, 64, 104
1, 40867, Poly_aftertouch_c, 0, 41, 127
1, 40870, Note_on_c, 0, 41, 3
1, 40887, Control_c, 0, 64, 101
1, 40902, Control_c, 0, 64, 98
1, 40916, Control_c, 0, 64, 96
1, 40931, Control_c, 0, 64, 94
1, 40946, Control_c, 0, 64, 93
1, 40960, Control_c, 0, 64, 92
1, 40975, Control_c, 0, 64, 90
1, 40990, Control_c, 0, 64, 88
1, 41005, Control_c, 0, 64, 86
1, 41020, Control_c, 0, 64, 84
1, 41034, Control_c, 0, 64, 83
1, 41049, Control_c, 0, 64, 81
1, 41064, Control_c, 0, 64, 80
1, 41079, Control_c, 0, 64, 79
1, 41094, Control_c, 0, 64, 78
1, 41109, Control_c, 0, 64, 77
1, 41124, Control_c, 0, 64, 76
1, 41139, Control_c, 0, 64, 75
1, 41153, Control_c, 0, 64, 74
1, 41168, Control_c, 0, 64, 73
1, 41183, Control_c, 0, 64, 73
1, 41198, Control_c, 0, 64, 72
1, 41213, Control_c, 0, 64, 71
1, 41228, Control_c, 0, 64, 70
1, 41242, Control_c, 0, 64, 69
1, 41257, Control_c, 0, 64, 69
1, 41272, Control_c, 0, 64, 68
1, 41286, Control_c, 0, 64, 68
1, 41301, Control_c, 0, 64, 67
1, 41316, Control_c, 0, 64, 67
1, 41331, Control_c, 0, 64, 66
1, 41346, Control_c, 0, 64, 66
1, 41375, Control_c, 0, 64, 65
1, 41390, Control_c, 0, 64, 65
1, 41420, Control_c, 0, 64, 64
1, 41450, Control_c, 0, 64, 64
1, 41480, Control_c, 0, 64, 63
1, 41484, Note_on_c, 0, 48, 44
1, 41510, Control_c, 0, 64, 63
1, 41554, Control_c, 0, 64, 62
1, 41583, Control_c, 0, 64, 62
1, 41598, Control_c, 0, 64, 61
1, 41636, Control_c, 0, 64, 61
1, 41651, Control_c, 0, 64, 60
1, 41665, Control_c, 0, 64, 60
1, 41695, Control_c, 0, 64, 59
1, 41739, Control_c, 0, 64, 59
1, 41783, Control_c, 0, 64, 58
1, 41806, Note_off_c, 0, 51, 37
1, 41813, Control_c, 0, 64, 58
1, 41857, Control_c, 0, 64, 57
1, 41872, Control_c, 0, 64, 57
1, 41901, Control_c, 0, 64, 56
1, 41945, Control_c, 0, 64, 56
1, 41975, Control_c, 0, 64, 55
1, 42004, Control_c, 0, 64, 55
1, 42034, Control_c, 0, 64, 54
1, 42093, Control_c, 0, 64, 54
1, 42182, Control_c, 0, 64, 53
1, 42212, Control_c, 0, 64, 53
1, 42242, Control_c, 0, 64, 52
1, 42286, Control_c, 0, 64, 52
1, 42316, Note_on_c, 0, 49, 24
1, 42331, Control_c, 0, 64, 51
1, 42383, Control_c, 0, 64, 51
1, 42398, Control_c, 0, 64, 50
1, 42412, Control_c, 0, 64, 49
1, 42427, Control_c, 0, 64, 49
1, 42442, Control_c, 0, 64, 48
1, 42457, Control_c, 0, 64, 48
1, 42472, Control_c, 0, 64, 47
1, 42486, Control_c, 0, 64, 47
1, 42501, Control_c, 0, 64, 46
1, 42512, Note_off_c, 0, 48, 57
1, 42590, Control_c, 0, 64, 47
1, 42605, Control_c, 0, 64, 50
1, 42620, Control_c, 0, 64, 54
1, 42635, Control_c, 0, 64, 59
1, 42650, Control_c, 0, 64, 63
1, 42661, Note_off_c, 0, 41, 32
1, 42665, Control_c, 0, 64, 67
1, 42679, Control_c, 0, 64, 75
1, 42686, Note_off_c, 0, 34, 51
1, 42694, Control_c, 0, 64, 90
1, 42709, Control_c, 0, 64, 116
1, 42723, Control_c, 0, 64, 127
1, 42770, Note_off_c, 0, 49, 40
1, 42770, Note_off_c, 0, 46, 41
1, 42780, Note_off_c, 0, 58, 31
1, 42800, Note_off_c, 0, 53, 38
1, 42857, Control_c, 0, 64, 117
1, 42872, Control_c, 0, 64, 106
1, 42886, Control_c, 0, 64, 99
1, 42901, Control_c, 0, 64, 95
1, 42916, Control_c, 0, 64, 93
1, 42930, Control_c, 0, 64, 92
1, 42945, Control_c, 0, 64, 91
1, 42960, Control_c, 0, 64, 88
1, 42975, Control_c, 0, 64, 85
1, 42990, Control_c, 0, 64, 82
1, 43005, Control_c, 0, 64, 80
1, 43019, Control_c, 0, 64, 79
1, 43035, Control_c, 0, 64, 78
1, 43050, Control_c, 0, 64, 78
1, 43065, Control_c, 0, 64, 77
1, 43080, Control_c, 0, 64, 77
1, 43095, Control_c, 0, 64, 76
1, 43109, Control_c, 0, 64, 75
1, 43132, Control_c, 0, 64, 74
1, 43147, Control_c, 0, 64, 73
1, 43161, Control_c, 0, 64, 72
1, 43176, Control_c, 0, 64, 72
1, 43206, Control_c, 0, 64, 71
1, 43221, Control_c, 0, 64, 70
1, 43235, Control_c, 0, 64, 70
1, 43250, Control_c, 0, 64, 69
1, 43265, Control_c, 0, 64, 68
1, 43280, Control_c, 0, 64, 68
1, 43295, Control_c, 0, 64, 67
1, 43309, Control_c, 0, 64, 66
1, 43324, Control_c, 0, 64, 66
1, 43339, Control_c, 0, 64, 65
1, 43353, Control_c, 0, 64, 65
1, 43368, Control_c, 0, 64, 64
1, 43383, Control_c, 0, 64, 63
1, 43386, Note_on_c, 0, 53, 61
1, 43399, Control_c, 0, 64, 63
1, 43414, Control_c, 0, 64, 62
1, 43428, Control_c, 0, 64, 60
1, 43443, Control_c, 0, 64, 57
1, 43458, Control_c, 0, 64, 53
1, 43473, Control_c, 0, 64, 50
1, 43488, Control_c, 0, 64, 49
1, 43502, Control_c, 0, 64, 48
1, 43547, Control_c, 0, 64, 50
1, 43562, Control_c, 0, 64, 53
1, 43577, Control_c, 0, 64, 56
1, 43592, Control_c, 0, 64, 59
1, 43607, Control_c, 0, 64, 62
1, 43621, Control_c, 0, 64, 64
1, 43636, Control_c, 0, 64, 67
1, 43651, Control_c, 0, 64, 70
1, 43666, Control_c, 0, 64, 76
1, 43681, Control_c, 0, 64, 84
1, 43695, Control_c, 0, 64, 95
1, 43710, Control_c, 0, 64, 112
1, 43725, Control_c, 0, 64, 127
1, 43800, Note_off_c, 0, 53, 54
1, 44087, Note_on_c, 0, 46, 26
1, 44134, Note_on_c, 0, 61, 35
1, 44135, Note_on_c, 0, 65, 32
1, 44218, Note_off_c, 0, 46, 52
1, 44383, Note_on_c, 0, 69, 46
1, 44456, Note_off_c, 0, 65, 34
1, 44487, Note_on_c, 0, 34, 42
1, 44555, Note_off_c, 0, 69, 49
1, 44569, Note_on_c, 0, 72, 57
1, 44640, Note_off_c, 0, 61, 60
1, 44664, Note_off_c, 0, 34, 44
1, 44755, Note_on_c, 0, 58, 75
1, 44765, Note_off_c, 0, 72, 36
1, 44794, Note_on_c, 0, 70, 50
1, 44839, Note_off_c, 0, 58, 63
1, 44959, Note_off_c, 0, 70, 64
1, 44978, Note_on_c, 0, 75, 52
1, 45030, Note_on_c, 0, 46, 45
1, 45136, Note_on_c, 0, 73, 57
1, 45163, Control_c, 0, 64, 119
1, 45178, Control_c, 0, 64, 116
1, 45193, Control_c, 0, 64, 113
1, 45194, Note_off_c, 0, 75, 37
1, 45207, Control_c, 0, 64, 112
1, 45222, Control_c, 0, 64, 110
1, 45237, Control_c, 0, 64, 106
1, 45252, Control_c, 0, 64, 95
1, 45267, Control_c, 0, 64, 79
1, 45269, Note_on_c, 0, 51, 49
1, 45275, Note_on_c, 0, 57, 73
1, 45282, Control_c, 0, 64, 68
1, 45297, Control_c, 0, 64, 60
1, 45312, Control_c, 0, 64, 56
1, 45314, Note_off_c, 0, 73, 57
1, 45326, Control_c, 0, 64, 59
1, 45327, Note_on_c, 0, 63, 42
1, 45332, Note_off_c, 0, 46, 52
1, 45339, Note_on_c, 0, 66, 49
1, 45341, Control_c, 0, 64, 63
1, 45356, Control_c, 0, 64, 67
1, 45378, Control_c, 0, 64, 74
1, 45386, Note_off_c, 0, 51, 61
1, 45393, Control_c, 0, 64, 86
1, 45395, Note_off_c, 0, 57, 65
1, 45407, Control_c, 0, 64, 127
1, 45417, Note_off_c, 0, 63, 59
1, 45486, Note_on_c, 0, 69, 60
1, 45515, Note_off_c, 0, 66, 49
1, 45547, Note_on_c, 0, 34, 54
1, 45613, Note_off_c, 0, 34, 61
1, 45645, Note_on_c, 0, 73, 67
1, 45649, Note_off_c, 0, 69, 58
1, 45801, Note_on_c, 0, 58, 77
1, 45830, Note_off_c, 0, 73, 53
1, 45840, Note_on_c, 0, 72, 57
1, 45969, Note_on_c, 0, 77, 67
1, 45971, Note_off_c, 0, 72, 59
1, 45978, Note_off_c, 0, 58, 63
1, 46038, Note_on_c, 0, 46, 46
1, 46044, Note_on_c, 0, 60, 88
1, 46113, Note_off_c, 0, 46, 50
1, 46126, Note_on_c, 0, 75, 76
1, 46153, Note_off_c, 0, 77, 51
1, 46212, Note_off_c, 0, 60, 61
1, 46291, Control_c, 0, 64, 99
1, 46301, Note_on_c, 0, 53, 45
1, 46306, Control_c, 0, 64, 72
1, 46308, Note_on_c, 0, 61, 88
1, 46320, Control_c, 0, 64, 55
1, 46335, Control_c, 0, 64, 40
1, 46350, Control_c, 0, 64, 48
1, 46354, Note_on_c, 0, 65, 52
1, 46361, Note_on_c, 0, 69, 63
1, 46361, Note_off_c, 0, 75, 57
1, 46365, Control_c, 0, 64, 57
1, 46379, Control_c, 0, 64, 64
1, 46394, Control_c, 0, 64, 71
1, 46409, Control_c, 0, 64, 87
1, 46424, Control_c, 0, 64, 127
1, 46427, Note_off_c, 0, 61, 63
1, 46457, Note_off_c, 0, 53, 45
1, 46517, Note_on_c, 0, 70, 80
1, 46526, Note_off_c, 0, 65, 52
1, 46553, Note_off_c, 0, 69, 59
1, 46584, Note_on_c, 0, 34, 59
1, 46640, Note_off_c, 0, 34, 61
1, 46671, Note_on_c, 0, 75, 85
1, 46695, Note_off_c, 0, 70, 63
1, 46837, Note_on_c, 0, 58, 86
1, 46861, Note_on_c, 0, 73, 76
1, 46864, Note_off_c, 0, 75, 61
1, 47052, Note_on_c, 0, 78, 71
1, 47055, Note_off_c, 0, 73, 62
1, 47167, Note_on_c, 0, 46, 43
1, 47267, Note_on_c, 0, 77, 78
1, 47296, Note_off_c, 0, 58, 60
1, 47341, Note_off_c, 0, 78, 59
1, 47366, Control_c, 0, 64, 115
1, 47381, Control_c, 0, 64, 107
1, 47395, Control_c, 0, 64, 103
1, 47410, Control_c, 0, 64, 100
1, 47425, Control_c, 0, 64, 99
1, 47440, Control_c, 0, 64, 97
1, 47455, Control_c, 0, 64, 95
1, 47469, Control_c, 0, 64, 92
1, 47484, Control_c, 0, 64, 88
1, 47498, Note_on_c, 0, 44, 48
1, 47499, Control_c, 0, 64, 83
1, 47502, Note_on_c, 0, 53, 61
1, 47514, Control_c, 0, 64, 79
1, 47525, Note_off_c, 0, 77, 58
1, 47529, Control_c, 0, 64, 74
1, 47543, Control_c, 0, 64, 67
1, 47544, Note_on_c, 0, 72, 62
1, 47558, Control_c, 0, 64, 58
1, 47568, Note_off_c, 0, 46, 38
1, 47573, Control_c, 0, 64, 36
1, 47588, Control_c, 0, 64, 0
1, 47655, Control_c, 0, 64, 17
1, 47670, Control_c, 0, 64, 38
1, 47684, Control_c, 0, 64, 57
1, 47699, Control_c, 0, 64, 65
1, 47699, Note_off_c, 0, 44, 53
1, 47714, Control_c, 0, 64, 72
1, 47722, Note_off_c, 0, 53, 63
1, 47728, Control_c, 0, 64, 88
1, 47743, Control_c, 0, 64, 127
1, 47842, Note_off_c, 0, 72, 53
1, 47887, Note_on_c, 0, 84, 63
1, 47907, Note_on_c, 0, 79, 41
1, 48048, Note_on_c, 0, 68, 42
1, 48072, Note_off_c, 0, 84, 59
1, 48096, Note_on_c, 0, 77, 61
1, 48102, Note_off_c, 0, 79, 42
1, 48104, Note_off_c, 0, 68, 58
1, 48267, Note_off_c, 0, 77, 61
1, 48269, Note_on_c, 0, 80, 62
1, 48284, Note_on_c, 0, 73, 49
1, 48400, Note_off_c, 0, 73, 52
1, 48480, Note_on_c, 0, 72, 44
1, 48487, Note_on_c, 0, 56, 38
1, 48599, Note_off_c, 0, 72, 49
1, 48609, Note_off_c, 0, 80, 49
1, 48633, Note_off_c, 0, 56, 54
1, 48647, Note_on_c, 0, 77, 49
1, 48745, Control_c, 0, 64, 116
1, 48760, Control_c, 0, 64, 111
1, 48775, Control_c, 0, 64, 108
1, 48789, Control_c, 0, 64, 106
1, 48804, Control_c, 0, 64, 102
1, 48819, Control_c, 0, 64, 95
1, 48834, Control_c, 0, 64, 83
1, 48848, Control_c, 0, 64, 70
1, 48856, Note_on_c, 0, 42, 37
1, 48860, Note_off_c, 0, 77, 61
1, 48863, Control_c, 0, 64, 60
1, 48878, Control_c, 0, 64, 50
1, 48880, Note_on_c, 0, 70, 38
1, 48893, Control_c, 0, 64, 52
1, 48908, Control_c, 0, 64, 57
1, 48922, Control_c, 0, 64, 62
1, 48937, Control_c, 0, 64, 65
1, 48952, Control_c, 0, 64, 68
1, 48967, Control_c, 0, 64, 75
1, 48982, Control_c, 0, 64, 90
1, 48996, Control_c, 0, 64, 127
1, 49001, Note_off_c, 0, 42, 54
1, 49042, Note_off_c, 0, 70, 60
1, 49067, Note_on_c, 0, 82, 55
1, 49092, Note_on_c, 0, 78, 37
1, 49214, Note_on_c, 0, 66, 44
1, 49222, Note_off_c, 0, 82, 34
1, 49241, Note_off_c, 0, 78, 50
1, 49253, Note_on_c, 0, 77, 58
1, 49389, Note_off_c, 0, 66, 58
1, 49393, Note_off_c, 0, 77, 59
1, 49405, Note_on_c, 0, 58, 69
1, 49434, Note_on_c, 0, 75, 44
1, 49434, Note_on_c, 0, 78, 46
1, 49604, Note_on_c, 0, 73, 46
1, 49640, Note_off_c, 0, 75, 31
1, 49668, Note_on_c, 0, 49, 42
1, 49669, Note_off_c, 0, 78, 36
1, 49708, Note_off_c, 0, 58, 61
1, 49744, Note_off_c, 0, 73, 59
1, 49759, Note_off_c, 0, 49, 63
1, 49767, Note_on_c, 0, 72, 51
1, 49941, Note_on_c, 0, 51, 73
1, 49945, Control_c, 0, 64, 112
1, 49951, Note_on_c, 0, 70, 55
1, 49952, Note_on_c, 0, 39, 55
1, 49960, Control_c, 0, 64, 83
1, 49975, Control_c, 0, 64, 66
1, 49989, Note_off_c, 0, 72, 36
1, 49989, Control_c, 0, 64, 48
1, 50004, Control_c, 0, 64, 35
1, 50019, Control_c, 0, 64, 44
1, 50034, Control_c, 0, 64, 54
1, 50049, Control_c, 0, 64, 62
1, 50063, Note_off_c, 0, 39, 62
1, 50063, Control_c, 0, 64, 67
1, 50078, Control_c, 0, 64, 74
1, 50093, Control_c, 0, 64, 91
1, 50108, Control_c, 0, 64, 127
1, 50157, Note_on_c, 0, 73, 40
1, 50165, Note_on_c, 0, 78, 61
1, 50220, Note_off_c, 0, 70, 35
1, 50253, Note_off_c, 0, 73, 54
1, 50272, Note_off_c, 0, 78, 59
1, 50312, Note_on_c, 0, 72, 55
1, 50333, Note_on_c, 0, 58, 43
1, 50439, Note_off_c, 0, 72, 61
1, 50442, Note_off_c, 0, 51, 39
1, 50447, Note_on_c, 0, 73, 68
1, 50461, Note_on_c, 0, 70, 62
1, 50621, Note_on_c, 0, 68, 75
1, 50665, Note_off_c, 0, 70, 55
1, 50677, Note_off_c, 0, 73, 56
1, 50734, Note_on_c, 0, 52, 75
1, 50782, Control_c, 0, 64, 114
1, 50783, Note_on_c, 0, 60, 41
1, 50797, Control_c, 0, 64, 110
1, 50799, Note_on_c, 0, 70, 67
1, 50802, Note_on_c, 0, 66, 53
1, 50812, Control_c, 0, 64, 107
1, 50817, Note_off_c, 0, 68, 50
1, 50826, Control_c, 0, 64, 105
1, 50841, Control_c, 0, 64, 103
1, 50856, Control_c, 0, 64, 99
1, 50871, Control_c, 0, 64, 97
1, 50886, Control_c, 0, 64, 94
1, 50901, Control_c, 0, 64, 91
1, 50916, Control_c, 0, 64, 89
1, 50921, Note_off_c, 0, 58, 41
1, 50931, Control_c, 0, 64, 87
1, 50946, Control_c, 0, 64, 84
1, 50961, Control_c, 0, 64, 82
1, 50972, Note_off_c, 0, 66, 54
1, 50975, Control_c, 0, 64, 81
1, 50990, Control_c, 0, 64, 80
1, 51005, Control_c, 0, 64, 79
1, 51021, Control_c, 0, 64, 77
1, 51029, Note_off_c, 0, 70, 57
1, 51035, Control_c, 0, 64, 70
1, 51042, Note_on_c, 0, 53, 71
1, 51050, Control_c, 0, 64, 62
1, 51056, Note_on_c, 0, 69, 53
1, 51060, Note_on_c, 0, 65, 50
1, 51065, Control_c, 0, 64, 46
1, 51080, Control_c, 0, 64, 26
1, 51094, Note_off_c, 0, 60, 53
1, 51095, Control_c, 0, 64, 21
1, 51109, Note_off_c, 0, 52, 59
1, 51125, Control_c, 0, 64, 26
1, 51139, Control_c, 0, 64, 39
1, 51154, Control_c, 0, 64, 52
1, 51169, Control_c, 0, 64, 60
1, 51184, Control_c, 0, 64, 64
1, 51199, Control_c, 0, 64, 69
1, 51204, Note_off_c, 0, 53, 64
1, 51213, Note_off_c, 0, 65, 52
1, 51214, Control_c, 0, 64, 78
1, 51229, Control_c, 0, 64, 98
1, 51243, Control_c, 0, 64, 127
1, 51291, Note_on_c, 0, 77, 55
1, 51291, Note_off_c, 0, 69, 49
1, 51391, Note_off_c, 0, 77, 58
1, 51401, Note_on_c, 0, 41, 39
1, 51414, Note_on_c, 0, 48, 29
1, 51451, Note_on_c, 0, 67, 48
1, 51507, Note_off_c, 0, 48, 46
1, 51536, Note_off_c, 0, 41, 37
1, 51610, Note_off_c, 0, 67, 41
1, 51626, Note_on_c, 0, 72, 48
1, 51634, Note_on_c, 0, 53, 37
1, 51643, Note_on_c, 0, 69, 34
1, 51786, Note_on_c, 0, 65, 54
1, 51795, Note_off_c, 0, 69, 35
1, 51812, Note_off_c, 0, 72, 45
1, 51867, Note_on_c, 0, 55, 54
1, 51908, Note_off_c, 0, 53, 61
1, 51943, Note_on_c, 0, 63, 66
1, 51947, Note_off_c, 0, 65, 55
1, 51962, Control_c, 0, 64, 123
1, 51977, Control_c, 0, 64, 116
1, 51992, Control_c, 0, 64, 111
1, 52007, Control_c, 0, 64, 108
1, 52022, Control_c, 0, 64, 107
1, 52066, Control_c, 0, 64, 104
1, 52074, Note_on_c, 0, 57, 68
1, 52081, Control_c, 0, 64, 94
1, 52096, Control_c, 0, 64, 83
1, 52118, Control_c, 0, 64, 73
1, 52133, Control_c, 0, 64, 68
1, 52147, Control_c, 0, 64, 66
1, 52162, Control_c, 0, 64, 67
1, 52177, Control_c, 0, 64, 69
1, 52192, Control_c, 0, 64, 72
1, 52207, Control_c, 0, 64, 79
1, 52222, Control_c, 0, 64, 92
1, 52236, Control_c, 0, 64, 127
1, 52239, Note_on_c, 0, 64, 80
1, 52253, Note_off_c, 0, 55, 48
1, 52281, Note_off_c, 0, 63, 62
1, 52329, Note_on_c, 0, 61, 58
1, 52362, Note_off_c, 0, 57, 62
1, 52409, Note_on_c, 0, 65, 90
1, 52440, Note_off_c, 0, 64, 63
1, 52507, Note_off_c, 0, 65, 63
1, 52581, Note_on_c, 0, 60, 58
1, 52603, Note_on_c, 0, 69, 83
1, 52667, Control_c, 0, 64, 108
1, 52681, Control_c, 0, 64, 89
1, 52696, Control_c, 0, 64, 75
1, 52711, Control_c, 0, 64, 64
1, 52726, Control_c, 0, 64, 57
1, 52728, Note_off_c, 0, 61, 31
1, 52741, Control_c, 0, 64, 56
1, 52755, Control_c, 0, 64, 57
1, 52770, Control_c, 0, 64, 58
1, 52785, Control_c, 0, 64, 59
1, 52800, Control_c, 0, 64, 61
1, 52815, Control_c, 0, 64, 63
1, 52824, Note_on_c, 0, 80, 78
1, 52830, Control_c, 0, 64, 66
1, 52845, Control_c, 0, 64, 70
1, 52867, Control_c, 0, 64, 78
1, 52869, Note_off_c, 0, 69, 61
1, 52882, Control_c, 0, 64, 94
1, 52896, Control_c, 0, 64, 127
1, 52975, Note_on_c, 0, 63, 45
1, 53011, Note_off_c, 0, 63, 49
1, 53011, Note_off_c, 0, 60, 36
1, 53056, Note_on_c, 0, 78, 96
1, 53093, Note_off_c, 0, 80, 63
1, 53217, Note_off_c, 0, 78, 55
1, 53295, Control_c, 0, 64, 113
1, 53300, Note_on_c, 0, 53, 88
1, 53310, Control_c, 0, 64, 78
1, 53313, Note_on_c, 0, 61, 73
1, 53324, Control_c, 0, 64, 60
1, 53327, Note_on_c, 0, 77, 94
1, 53339, Control_c, 0, 64, 0
1, 53340, Note_on_c, 0, 65, 69
1, 53369, Control_c, 0, 64, 36
1, 53384, Control_c, 0, 64, 55
1, 53396, Note_off_c, 0, 61, 62
1, 53399, Control_c, 0, 64, 64
1, 53414, Control_c, 0, 64, 69
1, 53429, Control_c, 0, 64, 80
1, 53438, Note_off_c, 0, 53, 65
1, 53444, Control_c, 0, 64, 100
1, 53459, Control_c, 0, 64, 127
1, 53563, Note_on_c, 0, 69, 49
1, 53662, Note_on_c, 0, 34, 67
1, 53706, Note_off_c, 0, 69, 58
1, 53730, Note_on_c, 0, 72, 54
1, 53737, Note_off_c, 0, 34, 62
1, 53868, Note_off_c, 0, 72, 61
1, 53882, Note_on_c, 0, 70, 50
1, 53935, Note_on_c, 0, 58, 96
1, 54093, Note_on_c, 0, 75, 54
1, 54134, Note_off_c, 0, 70, 38
1, 54180, Note_on_c, 0, 46, 50
1, 54187, Note_off_c, 0, 77, 54
1, 54278, Note_on_c, 0, 73, 82
1, 54286, Note_off_c, 0, 65, 58
1, 54324, Note_off_c, 0, 75, 62
1, 54360, Note_off_c, 0, 58, 30
1, 54466, Note_on_c, 0, 57, 92
1, 54467, Note_on_c, 0, 51, 62
1, 54481, Control_c, 0, 64, 104
1, 54496, Control_c, 0, 64, 73
1, 54499, Note_on_c, 0, 78, 96
1, 54511, Note_off_c, 0, 46, 43
1, 54511, Control_c, 0, 64, 50
1, 54516, Note_off_c, 0, 73, 62
1, 54522, Note_on_c, 0, 66, 63
1, 54526, Control_c, 0, 64, 0
1, 54556, Control_c, 0, 64, 37
1, 54570, Control_c, 0, 64, 60
1, 54585, Control_c, 0, 64, 69
1, 54591, Note_off_c, 0, 57, 64
1, 54600, Control_c, 0, 64, 82
1, 54615, Control_c, 0, 64, 127
1, 54651, Note_off_c, 0, 51, 64
1, 54690, Note_off_c, 0, 66, 61
1, 54713, Note_on_c, 0, 69, 55
1, 54805, Note_on_c, 0, 34, 61
1, 54839, Note_off_c, 0, 69, 52
1, 54864, Note_off_c, 0, 34, 61
1, 54880, Note_on_c, 0, 73, 73
1, 55045, Note_on_c, 0, 58, 88
1, 55056, Note_off_c, 0, 73, 55
1, 55056, Note_off_c, 0, 78, 52
1, 55079, Note_on_c, 0, 72, 72
1, 55232, Note_on_c, 0, 77, 81
1, 55260, Note_off_c, 0, 58, 62
1, 55270, Note_on_c, 0, 46, 27
1, 55271, Note_off_c, 0, 72, 61
1, 55311, Note_off_c, 0, 46, 50
1, 55320, Note_on_c, 0, 60, 92
1, 55397, Note_on_c, 0, 75, 90
1, 55464, Note_off_c, 0, 77, 56
1, 55482, Note_off_c, 0, 60, 60
1, 55601, Note_on_c, 0, 53, 60
1, 55602, Note_on_c, 0, 61, 93
1, 55616, Control_c, 0, 64, 81
1, 55631, Control_c, 0, 64, 62
1, 55642, Note_on_c, 0, 81, 90
1, 55646, Control_c, 0, 64, 28
1, 55653, Note_off_c, 0, 75, 62
1, 55656, Note_on_c, 0, 69, 74
1, 55661, Control_c, 0, 64, 0
1, 55675, Control_c, 0, 64, 20
1, 55690, Control_c, 0, 64, 43
1, 55705, Control_c, 0, 64, 58
1, 55709, Note_off_c, 0, 61, 65
1, 55720, Control_c, 0, 64, 66
1, 55735, Control_c, 0, 64, 74
1, 55750, Control_c, 0, 64, 94
1, 55758, Note_off_c, 0, 53, 63
1, 55764, Control_c, 0, 64, 127
1, 55857, Note_on_c, 0, 70, 70
1, 55936, Note_off_c, 0, 81, 59
1, 55944, Note_on_c, 0, 34, 61
1, 56012, Note_off_c, 0, 34, 60
1, 56026, Note_off_c, 0, 69, 36
1, 56043, Note_on_c, 0, 75, 91
1, 56060, Note_off_c, 0, 70, 66
1, 56126, Note_off_c, 0, 75, 62
1, 56241, Note_on_c, 0, 58, 74
1, 56255, Note_on_c, 0, 85, 89
1, 56273, Note_on_c, 0, 73, 67
1, 56439, Note_on_c, 0, 78, 65
1, 56484, Note_off_c, 0, 85, 63
1, 56541, Note_on_c, 0, 46, 37
1, 56545, Note_off_c, 0, 73, 56
1, 56579, Note_off_c, 0, 78, 56
1, 56600, Note_on_c, 0, 77, 67
1, 56624, Note_off_c, 0, 58, 50
1, 56639, Note_off_c, 0, 77, 67
1, 56640, Control_c, 0, 64, 121
1, 56654, Control_c, 0, 64, 114
1, 56669, Control_c, 0, 64, 111
1, 56684, Control_c, 0, 64, 107
1, 56699, Control_c, 0, 64, 103
1, 56714, Control_c, 0, 64, 99
1, 56729, Control_c, 0, 64, 95
1, 56744, Control_c, 0, 64, 93
1, 56758, Control_c, 0, 64, 91
1, 56773, Control_c, 0, 64, 90
1, 56788, Control_c, 0, 64, 89
1, 56798, Note_on_c, 0, 53, 65
1, 56803, Control_c, 0, 64, 87
1, 56818, Control_c, 0, 64, 85
1, 56833, Control_c, 0, 64, 83
1, 56848, Control_c, 0, 64, 81
1, 56852, Note_on_c, 0, 61, 45
1, 56857, Note_on_c, 0, 65, 47
1, 56862, Control_c, 0, 64, 80
1, 56876, Control_c, 0, 64, 79
1, 56891, Control_c, 0, 64, 77
1, 56906, Control_c, 0, 64, 74
1, 56920, Note_off_c, 0, 46, 33
1, 56921, Control_c, 0, 64, 70
1, 56935, Control_c, 0, 64, 65
1, 56950, Control_c, 0, 64, 61
1, 56965, Control_c, 0, 64, 57
1, 56980, Control_c, 0, 64, 55
1, 57022, Note_on_c, 0, 69, 53
1, 57024, Control_c, 0, 64, 56
1, 57035, Note_off_c, 0, 61, 59
1, 57039, Control_c, 0, 64, 57
1, 57054, Control_c, 0, 64, 60
1, 57068, Control_c, 0, 64, 62
1, 57083, Control_c, 0, 64, 65
1, 57090, Note_off_c, 0, 65, 55
1, 57098, Control_c, 0, 64, 67
1, 57113, Note_on_c, 0, 55, 35
1, 57113, Control_c, 0, 64, 70
1, 57128, Control_c, 0, 64, 76
1, 57143, Control_c, 0, 64, 85
1, 57158, Control_c, 0, 64, 95
1, 57173, Control_c, 0, 64, 106
1, 57188, Control_c, 0, 64, 110
1, 57197, Note_off_c, 0, 69, 59
1, 57200, Note_on_c, 0, 72, 63
1, 57202, Control_c, 0, 64, 109
1, 57232, Note_off_c, 0, 53, 51
1, 57232, Control_c, 0, 64, 108
1, 57261, Control_c, 0, 64, 107
1, 57276, Control_c, 0, 64, 106
1, 57291, Control_c, 0, 64, 104
1, 57306, Control_c, 0, 64, 102
1, 57321, Control_c, 0, 64, 101
1, 57335, Control_c, 0, 64, 99
1, 57358, Control_c, 0, 64, 99
1, 57373, Control_c, 0, 64, 98
1, 57387, Control_c, 0, 64, 97
1, 57403, Control_c, 0, 64, 96
1, 57414, Note_on_c, 0, 46, 31
1, 57418, Control_c, 0, 64, 92
1, 57432, Note_off_c, 0, 72, 61
1, 57432, Control_c, 0, 64, 82
1, 57438, Note_off_c, 0, 55, 36
1, 57441, Note_on_c, 0, 65, 67
1, 57447, Control_c, 0, 64, 71
1, 57462, Control_c, 0, 64, 58
1, 57477, Control_c, 0, 64, 44
1, 57498, Note_on_c, 0, 70, 31
1, 57507, Control_c, 0, 64, 48
1, 57522, Control_c, 0, 64, 54
1, 57536, Control_c, 0, 64, 59
1, 57551, Control_c, 0, 64, 62
1, 57566, Control_c, 0, 64, 65
1, 57571, Note_off_c, 0, 46, 48
1, 57581, Control_c, 0, 64, 68
1, 57596, Control_c, 0, 64, 72
1, 57611, Control_c, 0, 64, 78
1, 57626, Control_c, 0, 64, 84
1, 57640, Control_c, 0, 64, 91
1, 57655, Control_c, 0, 64, 100
1, 57670, Control_c, 0, 64, 107
1, 57684, Control_c, 0, 64, 113
1, 57699, Control_c, 0, 64, 114
1, 57701, Note_off_c, 0, 70, 29
1, 57702, Note_on_c, 0, 77, 44
1, 57714, Control_c, 0, 64, 115
1, 57832, Control_c, 0, 64, 114
1, 57847, Control_c, 0, 64, 113
1, 57854, Note_on_c, 0, 39, 33
1, 57862, Control_c, 0, 64, 112
1, 57876, Control_c, 0, 64, 111
1, 57891, Control_c, 0, 64, 111
1, 57906, Control_c, 0, 64, 110
1, 57921, Control_c, 0, 64, 109
1, 57927, Note_off_c, 0, 39, 50
1, 57936, Control_c, 0, 64, 108
1, 57946, Note_on_c, 0, 75, 47
1, 57951, Control_c, 0, 64, 108
1, 57966, Control_c, 0, 64, 107
1, 57981, Control_c, 0, 64, 107
1, 57993, Note_off_c, 0, 77, 30
1, 57996, Control_c, 0, 64, 106
1, 58010, Control_c, 0, 64, 105
1, 58025, Control_c, 0, 64, 104
1, 58040, Control_c, 0, 64, 103
1, 58042, Note_off_c, 0, 65, 33
1, 58055, Control_c, 0, 64, 102
1, 58070, Control_c, 0, 64, 101
1, 58084, Control_c, 0, 64, 100
1, 58121, Control_c, 0, 64, 100
1, 58151, Control_c, 0, 64, 99
1, 58165, Control_c, 0, 64, 96
1, 58180, Control_c, 0, 64, 88
1, 58195, Control_c, 0, 64, 77
1, 58207, Note_on_c, 0, 61, 55
1, 58209, Note_on_c, 0, 53, 41
1, 58211, Control_c, 0, 64, 66
1, 58222, Note_off_c, 0, 75, 53
1, 58226, Control_c, 0, 64, 59
1, 58241, Control_c, 0, 64, 53
1, 58255, Note_on_c, 0, 73, 44
1, 58255, Control_c, 0, 64, 54
1, 58270, Control_c, 0, 64, 56
1, 58285, Control_c, 0, 64, 60
1, 58300, Control_c, 0, 64, 64
1, 58314, Control_c, 0, 64, 68
1, 58329, Control_c, 0, 64, 73
1, 58341, Note_off_c, 0, 61, 63
1, 58344, Control_c, 0, 64, 83
1, 58357, Note_off_c, 0, 53, 53
1, 58359, Control_c, 0, 64, 100
1, 58374, Control_c, 0, 64, 127
1, 58502, Note_on_c, 0, 77, 44
1, 58517, Note_off_c, 0, 73, 37
1, 58532, Note_on_c, 0, 68, 31
1, 58616, Note_on_c, 0, 32, 42
1, 58658, Note_off_c, 0, 32, 58
1, 58698, Note_on_c, 0, 72, 45
1, 58702, Note_off_c, 0, 68, 38
1, 58705, Note_off_c, 0, 77, 31
1, 58835, Note_off_c, 0, 72, 54
1, 58855, Note_on_c, 0, 73, 53
1, 58864, Note_on_c, 0, 56, 59
1, 58966, Poly_aftertouch_c, 0, 70, 0
1, 59041, Note_on_c, 0, 68, 55
1, 59084, Note_off_c, 0, 73, 55
1, 59106, Note_on_c, 0, 44, 42
1, 59185, Note_off_c, 0, 68, 52
1, 59197, Note_on_c, 0, 65, 60
1, 59231, Note_off_c, 0, 56, 56
1, 59233, Note_off_c, 0, 65, 64
1, 59391, Control_c, 0, 64, 88
1, 59405, Control_c, 0, 64, 70
1, 59413, Note_on_c, 0, 51, 44
1, 59417, Note_on_c, 0, 58, 55
1, 59420, Control_c, 0, 64, 57
1, 59435, Control_c, 0, 64, 53
1, 59448, Note_on_c, 0, 66, 47
1, 59449, Control_c, 0, 64, 58
1, 59457, Note_on_c, 0, 63, 37
1, 59464, Control_c, 0, 64, 62
1, 59479, Control_c, 0, 64, 66
1, 59494, Control_c, 0, 64, 72
1, 59505, Note_off_c, 0, 44, 44
1, 59509, Control_c, 0, 64, 88
1, 59519, Note_off_c, 0, 66, 60
1, 59523, Control_c, 0, 64, 127
1, 59525, Note_off_c, 0, 58, 64
1, 59566, Note_off_c, 0, 51, 63
1, 59581, Note_off_c, 0, 63, 59
1, 59707, Note_on_c, 0, 78, 59
1, 59751, Note_on_c, 0, 75, 21
1, 59793, Note_on_c, 0, 32, 40
1, 59834, Note_off_c, 0, 32, 51
1, 59878, Note_on_c, 0, 73, 70
1, 59900, Note_off_c, 0, 78, 55
1, 59921, Note_off_c, 0, 75, 33
1, 60033, Note_off_c, 0, 73, 60
1, 60037, Note_on_c, 0, 75, 73
1, 60046, Note_on_c, 0, 44, 48
1, 60055, Note_on_c, 0, 72, 54
1, 60114, Note_off_c, 0, 72, 52
1, 60166, Note_off_c, 0, 44, 37
1, 60208, Note_on_c, 0, 70, 52
1, 60361, Note_on_c, 0, 60, 66
1, 60413, Control_c, 0, 64, 116
1, 60428, Control_c, 0, 64, 111
1, 60437, Note_off_c, 0, 70, 38
1, 60443, Control_c, 0, 64, 107
1, 60453, Note_on_c, 0, 77, 64
1, 60455, Note_off_c, 0, 75, 46
1, 60458, Control_c, 0, 64, 103
1, 60465, Note_on_c, 0, 68, 37
1, 60473, Control_c, 0, 64, 101
1, 60487, Control_c, 0, 64, 99
1, 60502, Control_c, 0, 64, 97
1, 60517, Control_c, 0, 64, 95
1, 60532, Control_c, 0, 64, 94
1, 60547, Note_off_c, 0, 77, 59
1, 60547, Control_c, 0, 64, 91
1, 60561, Control_c, 0, 64, 89
1, 60576, Control_c, 0, 64, 87
1, 60591, Control_c, 0, 64, 85
1, 60607, Control_c, 0, 64, 84
1, 60650, Control_c, 0, 64, 83
1, 60665, Control_c, 0, 64, 82
1, 60680, Control_c, 0, 64, 77
1, 60695, Control_c, 0, 64, 70
1, 60709, Control_c, 0, 64, 62
1, 60714, Note_on_c, 0, 61, 51
1, 60724, Control_c, 0, 64, 47
1, 60739, Control_c, 0, 64, 42
1, 60747, Note_on_c, 0, 73, 47
1, 60756, Note_off_c, 0, 60, 60
1, 60762, Note_off_c, 0, 68, 41
1, 60769, Note_on_c, 0, 66, 24
1, 60798, Control_c, 0, 64, 43
1, 60813, Control_c, 0, 64, 51
1, 60828, Control_c, 0, 64, 60
1, 60843, Control_c, 0, 64, 66
1, 60857, Control_c, 0, 64, 74
1, 60861, Note_off_c, 0, 61, 63
1, 60872, Control_c, 0, 64, 92
1, 60887, Control_c, 0, 64, 127
1, 60943, Note_off_c, 0, 73, 38
1, 60992, Note_on_c, 0, 65, 32
1, 61000, Note_off_c, 0, 66, 40
1, 61126, Note_on_c, 0, 37, 26
1, 61137, Note_on_c, 0, 44, 29
1, 61167, Note_off_c, 0, 65, 41
1, 61196, Note_off_c, 0, 37, 43
1, 61201, Note_on_c, 0, 61, 30
1, 61277, Note_off_c, 0, 44, 36
1, 61367, Note_on_c, 0, 49, 28
1, 61488, Control_c, 0, 64, 121
1, 61503, Control_c, 0, 64, 118
1, 61517, Note_on_c, 0, 56, 42
1, 61518, Control_c, 0, 64, 117
1, 61524, Note_off_c, 0, 61, 39
1, 61547, Control_c, 0, 64, 116
1, 61562, Control_c, 0, 64, 113
1, 61577, Control_c, 0, 64, 109
1, 61585, Note_on_c, 0, 51, 43
1, 61592, Control_c, 0, 64, 106
1, 61606, Control_c, 0, 64, 105
1, 61621, Control_c, 0, 64, 104
1, 61632, Note_off_c, 0, 49, 34
1, 61636, Control_c, 0, 64, 103
1, 61650, Control_c, 0, 64, 102
1, 61660, Note_off_c, 0, 56, 47
1, 61665, Control_c, 0, 64, 101
1, 61680, Note_on_c, 0, 66, 42
1, 61680, Control_c, 0, 64, 99
1, 61695, Control_c, 0, 64, 97
1, 61710, Control_c, 0, 64, 95
1, 61725, Control_c, 0, 64, 94
1, 61740, Control_c, 0, 64, 91
1, 61754, Control_c, 0, 64, 87
1, 61769, Control_c, 0, 64, 84
1, 61784, Control_c, 0, 64, 81
1, 61799, Control_c, 0, 64, 80
1, 61814, Control_c, 0, 64, 79
1, 61823, Note_on_c, 0, 53, 50
1, 61828, Note_on_c, 0, 61, 54
1, 61861, Note_off_c, 0, 66, 41
1, 61866, Control_c, 0, 64, 80
1, 61880, Control_c, 0, 64, 82
1, 61895, Control_c, 0, 64, 86
1, 61910, Control_c, 0, 64, 92
1, 61924, Control_c, 0, 64, 104
1, 61939, Control_c, 0, 64, 127
1, 61986, Note_off_c, 0, 61, 37
1, 62011, Note_on_c, 0, 68, 41
1, 62096, Note_on_c, 0, 56, 55
1, 62142, Note_off_c, 0, 51, 30
1, 62156, Note_on_c, 0, 63, 75
1, 62217, Note_off_c, 0, 68, 33
1, 62266, Note_off_c, 0, 53, 54
1, 62320, Note_off_c, 0, 63, 61
1, 62329, Note_on_c, 0, 61, 68
1, 62335, Note_on_c, 0, 65, 80
1, 62383, Note_off_c, 0, 56, 60
1, 62541, Note_on_c, 0, 73, 85
1, 62602, Note_off_c, 0, 65, 57
1, 62638, Note_off_c, 0, 61, 34
1, 62655, Note_on_c, 0, 63, 85
1, 62770, Note_on_c, 0, 72, 91
1, 62854, Note_off_c, 0, 63, 59
1, 62862, Note_off_c, 0, 73, 51
1, 63036, Note_on_c, 0, 65, 87
1, 63040, Note_off_c, 0, 72, 59
1, 63060, Control_c, 0, 64, 93
1, 63061, Note_on_c, 0, 56, 66
1, 63075, Control_c, 0, 64, 70
1, 63090, Control_c, 0, 64, 48
1, 63104, Note_on_c, 0, 71, 78
1, 63105, Control_c, 0, 64, 0
1, 63150, Control_c, 0, 64, 45
1, 63164, Control_c, 0, 64, 62
1, 63179, Control_c, 0, 64, 73
1, 63194, Control_c, 0, 64, 99
1, 63196, Note_off_c, 0, 65, 64
1, 63209, Control_c, 0, 64, 127
1, 63214, Note_off_c, 0, 56, 55
1, 63393, Note_on_c, 0, 83, 74
1, 63439, Note_off_c, 0, 71, 49
1, 63477, Poly_aftertouch_c, 0, 75, 0
1, 63484, Note_on_c, 0, 44, 60
1, 63564, Note_on_c, 0, 82, 89
1, 63568, Note_off_c, 0, 44, 62
1, 63581, Note_on_c, 0, 78, 80
1, 63603, Note_off_c, 0, 83, 58
1, 63767, Note_off_c, 0, 78, 60
1, 63767, Note_on_c, 0, 68, 94
1, 63767, Note_on_c, 0, 80, 75
1, 63767, Note_on_c, 0, 77, 61
1, 63817, Note_off_c, 0, 82, 59
1, 63847, Note_off_c, 0, 77, 61
1, 63948, Note_on_c, 0, 75, 73
1, 63954, Note_on_c, 0, 83, 80
1, 64003, Note_off_c, 0, 80, 58
1, 64059, Note_on_c, 0, 53, 44
1, 64126, Note_on_c, 0, 71, 95
1, 64127, Note_off_c, 0, 53, 58
1, 64142, Note_off_c, 0, 75, 58
1, 64182, Note_off_c, 0, 83, 59
1, 64210, Note_off_c, 0, 68, 57
1, 64241, Note_off_c, 0, 71, 60
1, 64303, Poly_aftertouch_c, 0, 62, 127
1, 64318, Control_c, 0, 64, 92
1, 64324, Note_on_c, 0, 66, 90
1, 64333, Control_c, 0, 64, 68
1, 64341, Note_on_c, 0, 56, 64
1, 64348, Control_c, 0, 64, 49
1, 64362, Note_on_c, 0, 70, 76
1, 64363, Control_c, 0, 64, 38
1, 64378, Control_c, 0, 64, 48
1, 64393, Control_c, 0, 64, 58
1, 64407, Control_c, 0, 64, 65
1, 64422, Control_c, 0, 64, 73
1, 64437, Control_c, 0, 64, 97
1, 64445, Poly_aftertouch_c, 0, 62, 0
1, 64452, Control_c, 0, 64, 127
1, 64456, Note_off_c, 0, 66, 66
1, 64499, Note_off_c, 0, 56, 65
1, 64560, Note_on_c, 0, 74, 56
1, 64566, Note_on_c, 0, 82, 69
1, 64586, Note_off_c, 0, 70, 59
1, 64604, Note_off_c, 0, 74, 63
1, 64625, Note_on_c, 0, 46, 66
1, 64635, Note_on_c, 0, 34, 53
1, 64680, Note_off_c, 0, 34, 60
1, 64698, Note_off_c, 0, 46, 63
1, 64726, Note_on_c, 0, 80, 79
1, 64731, Note_on_c, 0, 77, 78
1, 64734, Note_off_c, 0, 82, 64
1, 64887, Note_on_c, 0, 78, 77
1, 64888, Note_on_c, 0, 56, 63
1, 64889, Note_on_c, 0, 75, 70
1, 64889, Note_off_c, 0, 77, 61
1, 64926, Note_off_c, 0, 80, 60
1, 65038, Note_off_c, 0, 75, 60
1, 65053, Note_on_c, 0, 82, 70
1, 65058, Note_on_c, 0, 74, 65
1, 65075, Note_off_c, 0, 78, 58
1, 65113, Note_on_c, 0, 65, 82
1, 65142, Note_off_c, 0, 82, 62
1, 65156, Poly_aftertouch_c, 0, 62, 127
1, 65160, Note_off_c, 0, 56, 37
1, 65175, Note_off_c, 0, 74, 62
1, 65184, Note_on_c, 0, 70, 68
1, 65191, Poly_aftertouch_c, 0, 62, 0
1, 65307, Note_on_c, 0, 51, 56
1, 65318, Note_off_c, 0, 65, 60
1, 65340, Note_on_c, 0, 58, 51
1, 65364, Control_c, 0, 64, 89
1, 65379, Control_c, 0, 64, 63
1, 65394, Control_c, 0, 64, 24
1, 65406, Note_on_c, 0, 65, 86
1, 65407, Note_on_c, 0, 66, 66
1, 65409, Control_c, 0, 64, 21
1, 65424, Control_c, 0, 64, 44
1, 65439, Control_c, 0, 64, 57
1, 65454, Control_c, 0, 64, 64
1, 65469, Control_c, 0, 64, 73
1, 65482, Note_off_c, 0, 51, 63
1, 65484, Control_c, 0, 64, 93
1, 65492, Poly_aftertouch_c, 0, 54, 127
1, 65498, Control_c, 0, 64, 127
1, 65515, Note_off_c, 0, 65, 61
1, 65546, Note_off_c, 0, 58, 63
1, 65567, Poly_aftertouch_c, 0, 54, 0
1, 65570, Note_off_c, 0, 66, 61
1, 65583, Note_on_c, 0, 74, 74
1, 65707, Note_off_c, 0, 70, 35
1, 65724, Note_on_c, 0, 39, 63
1, 65791, Note_on_c, 0, 77, 87
1, 65805, Note_off_c, 0, 39, 63
1, 65828, Note_off_c, 0, 74, 61
1, 65996, Note_on_c, 0, 63, 88
1, 66002, Note_on_c, 0, 75, 77
1, 66012, Note_off_c, 0, 77, 62
1, 66138, Note_off_c, 0, 63, 64
1, 66205, Note_on_c, 0, 80, 70
1, 66215, Note_off_c, 0, 75, 59
1, 66312, Note_on_c, 0, 46, 49
1, 66378, Note_on_c, 0, 78, 78
1, 66390, Note_off_c, 0, 46, 57
1, 66450, Note_off_c, 0, 80, 53
1, 66534, Note_on_c, 0, 58, 51
1, 66550, Note_on_c, 0, 74, 65
1, 66557, Note_on_c, 0, 66, 49
1, 66581, Note_off_c, 0, 58, 62
1, 66620, Note_off_c, 0, 78, 58
1, 66679, Note_off_c, 0, 66, 59
1, 66736, Note_on_c, 0, 75, 67
1, 66793, Note_off_c, 0, 74, 57
1, 66848, Note_on_c, 0, 39, 51
1, 66907, Note_off_c, 0, 39, 60
1, 66921, Note_on_c, 0, 80, 78
1, 66947, Note_off_c, 0, 75, 62
1, 67108, Control_c, 0, 64, 105
1, 67123, Control_c, 0, 64, 82
1, 67138, Control_c, 0, 64, 67
1, 67141, Note_on_c, 0, 61, 63
1, 67150, Note_on_c, 0, 78, 69
1, 67152, Control_c, 0, 64, 50
1, 67153, Note_on_c, 0, 69, 45
1, 67167, Control_c, 0, 64, 46
1, 67182, Note_off_c, 0, 80, 59
1, 67182, Control_c, 0, 64, 52
1, 67197, Control_c, 0, 64, 58
1, 67212, Control_c, 0, 64, 63
1, 67215, Note_off_c, 0, 69, 62
1, 67226, Control_c, 0, 64, 67
1, 67241, Control_c, 0, 64, 75
1, 67256, Control_c, 0, 64, 94
1, 67270, Note_off_c, 0, 78, 66
1, 67271, Control_c, 0, 64, 127
1, 67410, Note_on_c, 0, 89, 63
1, 67501, Note_on_c, 0, 51, 34
1, 67665, Note_off_c, 0, 89, 58
1, 67675, Note_on_c, 0, 87, 55
1, 67693, Note_off_c, 0, 61, 38
1, 67720, Note_off_c, 0, 87, 59
1, 67989, Control_c, 0, 64, 92
1, 68000, Note_on_c, 0, 54, 43
1, 68000, Note_on_c, 0, 63, 47
1, 68004, Control_c, 0, 64, 72
1, 68019, Control_c, 0, 64, 57
1, 68030, Note_on_c, 0, 69, 38
1, 68034, Control_c, 0, 64, 25
1, 68041, Note_off_c, 0, 51, 40
1, 68048, Control_c, 0, 64, 18
1, 68063, Control_c, 0, 64, 26
1, 68078, Control_c, 0, 64, 41
1, 68093, Control_c, 0, 64, 53
1, 68108, Control_c, 0, 64, 59
1, 68122, Control_c, 0, 64, 63
1, 68137, Control_c, 0, 64, 66
1, 68152, Control_c, 0, 64, 70
1, 68164, Note_off_c, 0, 63, 63
1, 68166, Control_c, 0, 64, 77
1, 68170, Note_off_c, 0, 54, 61
1, 68181, Control_c, 0, 64, 88
1, 68196, Control_c, 0, 64, 104
1, 68211, Control_c, 0, 64, 127
1, 68298, Note_on_c, 0, 81, 35
1, 68318, Note_on_c, 0, 73, 31
1, 68355, Note_off_c, 0, 73, 61
1, 68361, Note_off_c, 0, 69, 39
1, 68405, Note_on_c, 0, 42, 40
1, 68444, Note_off_c, 0, 42, 62
1, 68476, Note_off_c, 0, 81, 52
1, 68510, Note_on_c, 0, 80, 52
1, 68533, Note_on_c, 0, 77, 39
1, 68668, Note_off_c, 0, 77, 50
1, 68680, Note_off_c, 0, 80, 55
1, 68707, Note_on_c, 0, 66, 59
1, 68717, Note_on_c, 0, 78, 51
1, 68740, Note_on_c, 0, 75, 26
1, 68772, Note_off_c, 0, 75, 50
1, 68901, Note_off_c, 0, 78, 54
1, 68907, Note_on_c, 0, 81, 52
1, 68921, Note_on_c, 0, 73, 34
1, 68986, Note_on_c, 0, 51, 43
1, 69039, Note_off_c, 0, 73, 53
1, 69055, Note_off_c, 0, 81, 57
1, 69068, Note_on_c, 0, 69, 56
1, 69086, Note_off_c, 0, 51, 52
1, 69108, Note_off_c, 0, 69, 62
1, 69227, Control_c, 0, 64, 121
1, 69242, Control_c, 0, 64, 92
1, 69257, Control_c, 0, 64, 76
1, 69269, Note_on_c, 0, 65, 60
1, 69271, Control_c, 0, 64, 65
1, 69284, Note_on_c, 0, 54, 50
1, 69285, Note_on_c, 0, 60, 37
1, 69286, Control_c, 0, 64, 58
1, 69288, Note_off_c, 0, 66, 34
1, 69296, Note_on_c, 0, 68, 49
1, 69301, Control_c, 0, 64, 59
1, 69315, Control_c, 0, 64, 62
1, 69338, Control_c, 0, 64, 66
1, 69353, Control_c, 0, 64, 72
1, 69368, Control_c, 0, 64, 84
1, 69371, Note_off_c, 0, 65, 63
1, 69383, Control_c, 0, 64, 127
1, 69397, Note_off_c, 0, 60, 63
1, 69427, Note_off_c, 0, 54, 63
1, 69493, Note_on_c, 0, 80, 43
1, 69500, Note_on_c, 0, 72, 36
1, 69543, Note_off_c, 0, 72, 62
1, 69559, Note_off_c, 0, 68, 34
1, 69598, Note_on_c, 0, 44, 44
1, 69639, Note_off_c, 0, 44, 63
1, 69645, Poly_aftertouch_c, 0, 32, 127
1, 69646, Note_on_c, 0, 32, 3
1, 69690, Note_off_c, 0, 32, 47
1, 69693, Note_on_c, 0, 78, 60
1, 69698, Note_on_c, 0, 75, 55
1, 69723, Note_off_c, 0, 80, 34
1, 69837, Note_on_c, 0, 54, 51
1, 69848, Note_off_c, 0, 75, 34
1, 69851, Note_on_c, 0, 77, 55
1, 69853, Note_on_c, 0, 73, 51
1, 69877, Note_off_c, 0, 78, 32
1, 69985, Note_off_c, 0, 73, 62
1, 70008, Note_on_c, 0, 80, 56
1, 70013, Note_off_c, 0, 77, 59
1, 70018, Note_on_c, 0, 72, 54
1, 70072, Note_on_c, 0, 60, 37
1, 70098, Note_off_c, 0, 80, 61
1, 70101, Note_off_c, 0, 54, 62
1, 70101, Note_on_c, 0, 63, 64
1, 70123, Note_off_c, 0, 60, 64
1, 70129, Note_off_c, 0, 72, 63
1, 70153, Note_on_c, 0, 68, 55
1, 70262, Note_off_c, 0, 63, 58
1, 70287, Note_on_c, 0, 49, 49
1, 70351, Note_on_c, 0, 56, 51
1, 70355, Control_c, 0, 64, 86
1, 70369, Control_c, 0, 64, 68
1, 70384, Control_c, 0, 64, 57
1, 70388, Note_on_c, 0, 63, 74
1, 70399, Control_c, 0, 64, 53
1, 70402, Note_on_c, 0, 65, 55
1, 70414, Control_c, 0, 64, 59
1, 70429, Control_c, 0, 64, 63
1, 70444, Control_c, 0, 64, 67
1, 70459, Control_c, 0, 64, 74
1, 70459, Note_off_c, 0, 49, 58
1, 70474, Control_c, 0, 64, 88
1, 70488, Control_c, 0, 64, 127
1, 70494, Note_off_c, 0, 56, 59
1, 70497, Note_off_c, 0, 63, 64
1, 70578, Note_on_c, 0, 72, 62
1, 70631, Note_off_c, 0, 68, 38
1, 70682, Note_off_c, 0, 65, 23
1, 70696, Note_on_c, 0, 37, 66
1, 70763, Note_on_c, 0, 75, 83
1, 70782, Note_off_c, 0, 72, 61
1, 70790, Note_off_c, 0, 37, 61
1, 70984, Note_on_c, 0, 61, 88
1, 70992, Note_on_c, 0, 73, 77
1, 71017, Note_off_c, 0, 75, 62
1, 71189, Note_on_c, 0, 78, 74
1, 71197, Note_off_c, 0, 73, 63
1, 71261, Note_on_c, 0, 49, 49
1, 71347, Note_on_c, 0, 77, 82
1, 71380, Note_off_c, 0, 78, 64
1, 71404, Note_off_c, 0, 77, 63
1, 71440, Note_off_c, 0, 49, 61
1, 71502, Note_on_c, 0, 51, 78
1, 71517, Control_c, 0, 64, 103
1, 71519, Note_on_c, 0, 53, 66
1, 71532, Control_c, 0, 64, 71
1, 71547, Control_c, 0, 64, 52
1, 71562, Control_c, 0, 64, 32
1, 71565, Note_on_c, 0, 69, 70
1, 71583, Note_on_c, 0, 63, 57
1, 71584, Control_c, 0, 64, 42
1, 71590, Note_off_c, 0, 61, 63
1, 71599, Control_c, 0, 64, 56
1, 71614, Control_c, 0, 64, 64
1, 71619, Note_off_c, 0, 53, 63
1, 71629, Control_c, 0, 64, 74
1, 71642, Note_off_c, 0, 51, 65
1, 71644, Control_c, 0, 64, 94
1, 71658, Control_c, 0, 64, 127
1, 71747, Note_off_c, 0, 63, 55
1, 71753, Note_on_c, 0, 71, 80
1, 71797, Note_off_c, 0, 69, 61
1, 71855, Note_on_c, 0, 29, 86
1, 71939, Note_on_c, 0, 73, 92
1, 71945, Note_off_c, 0, 29, 62
1, 71985, Note_off_c, 0, 71, 59
1, 72158, Note_off_c, 0, 73, 60
1, 72160, Note_on_c, 0, 60, 92
1, 72178, Control_c, 0, 64, 106
1, 72193, Control_c, 0, 64, 91
1, 72194, Note_on_c, 0, 72, 87
1, 72207, Control_c, 0, 64, 79
1, 72222, Control_c, 0, 64, 71
1, 72237, Control_c, 0, 64, 65
1, 72252, Control_c, 0, 64, 62
1, 72267, Control_c, 0, 64, 64
1, 72281, Control_c, 0, 64, 66
1, 72296, Control_c, 0, 64, 69
1, 72311, Control_c, 0, 64, 74
1, 72333, Control_c, 0, 64, 82
1, 72348, Control_c, 0, 64, 96
1, 72363, Control_c, 0, 64, 127
1, 72408, Note_off_c, 0, 60, 59
1, 72465, Note_on_c, 0, 80, 88
1, 72468, Note_on_c, 0, 77, 77
1, 72486, Note_off_c, 0, 72, 63
1, 72605, Note_on_c, 0, 41, 65
1, 72644, Note_off_c, 0, 80, 61
1, 72676, Note_off_c, 0, 77, 62
1, 72682, Note_off_c, 0, 41, 64
1, 72718, Note_on_c, 0, 78, 94
1, 72725, Note_on_c, 0, 75, 75
1, 72885, Note_off_c, 0, 75, 61
1, 72936, Note_off_c, 0, 78, 61
1, 73014, Note_on_c, 0, 53, 89
1, 73016, Control_c, 0, 64, 89
1, 73022, Note_on_c, 0, 61, 79
1, 73030, Control_c, 0, 64, 67
1, 73035, Note_on_c, 0, 77, 86
1, 73041, Note_on_c, 0, 65, 76
1, 73045, Control_c, 0, 64, 42
1, 73051, Note_on_c, 0, 73, 68
1, 73060, Control_c, 0, 64, 0
1, 73097, Control_c, 0, 64, 37
1, 73112, Control_c, 0, 64, 58
1, 73127, Control_c, 0, 64, 65
1, 73141, Control_c, 0, 64, 73
1, 73144, Note_off_c, 0, 61, 62
1, 73156, Control_c, 0, 64, 90
1, 73171, Control_c, 0, 64, 127
1, 73200, Note_off_c, 0, 53, 65
1, 73323, Note_on_c, 0, 69, 50
1, 73344, Note_off_c, 0, 73, 52
1, 73428, Note_on_c, 0, 34, 65
1, 73512, Note_off_c, 0, 34, 61
1, 73532, Note_on_c, 0, 72, 55
1, 73546, Note_off_c, 0, 69, 60
1, 73711, Note_on_c, 0, 70, 56
1, 73724, Note_on_c, 0, 58, 92
1, 73725, Note_off_c, 0, 72, 61
1, 73924, Note_on_c, 0, 75, 60
1, 73999, Note_on_c, 0, 46, 49
1, 74001, Note_off_c, 0, 70, 52
1, 74042, Note_off_c, 0, 77, 55
1, 74102, Note_on_c, 0, 73, 83
1, 74129, Note_off_c, 0, 65, 58
1, 74139, Note_off_c, 0, 58, 48
1, 74157, Note_off_c, 0, 75, 61
1, 74277, Note_on_c, 0, 51, 67
1, 74277, Note_on_c, 0, 57, 94
1, 74290, Control_c, 0, 64, 89
1, 74305, Control_c, 0, 64, 67
1, 74313, Note_on_c, 0, 78, 91
1, 74320, Control_c, 0, 64, 43
1, 74324, Note_off_c, 0, 73, 61
1, 74325, Note_off_c, 0, 46, 61
1, 74335, Control_c, 0, 64, 32
1, 74340, Note_on_c, 0, 66, 59
1, 74349, Control_c, 0, 64, 41
1, 74364, Control_c, 0, 64, 52
1, 74379, Control_c, 0, 64, 60
1, 74394, Control_c, 0, 64, 65
1, 74408, Note_off_c, 0, 57, 64
1, 74408, Control_c, 0, 64, 72
1, 74423, Control_c, 0, 64, 85
1, 74438, Control_c, 0, 64, 127
1, 74460, Note_off_c, 0, 51, 65
1, 74499, Note_off_c, 0, 66, 60
1, 74519, Note_on_c, 0, 69, 48
1, 74623, Note_on_c, 0, 34, 61
1, 74694, Note_off_c, 0, 34, 62
1, 74698, Note_off_c, 0, 69, 37
1, 74698, Note_on_c, 0, 73, 72
1, 74868, Note_on_c, 0, 58, 87
1, 74882, Note_off_c, 0, 73, 61
1, 74894, Note_on_c, 0, 72, 70
1, 74960, Note_off_c, 0, 78, 62
1, 75037, Note_on_c, 0, 77, 82
1, 75065, Note_on_c, 0, 46, 40
1, 75080, Note_off_c, 0, 58, 62
1, 75083, Note_off_c, 0, 72, 62
1, 75109, Note_off_c, 0, 46, 61
1, 75132, Note_on_c, 0, 60, 95
1, 75218, Note_on_c, 0, 75, 93
1, 75303, Note_off_c, 0, 77, 55
1, 75331, Note_off_c, 0, 60, 61
1, 75446, Control_c, 0, 64, 107
1, 75453, Note_on_c, 0, 61, 100
1, 75460, Note_on_c, 0, 53, 61
1, 75461, Control_c, 0, 64, 74
1, 75476, Control_c, 0, 64, 55
1, 75491, Control_c, 0, 64, 11
1, 75494, Note_on_c, 0, 81, 92
1, 75502, Note_on_c, 0, 69, 81
1, 75505, Control_c, 0, 64, 22
1, 75506, Note_off_c, 0, 75, 61
1, 75520, Control_c, 0, 64, 43
1, 75535, Control_c, 0, 64, 59
1, 75550, Control_c, 0, 64, 67
1, 75565, Control_c, 0, 64, 77
1, 75571, Note_off_c, 0, 61, 65
1, 75580, Control_c, 0, 64, 107
1, 75595, Control_c, 0, 64, 127
1, 75607, Note_off_c, 0, 53, 61
1, 75729, Note_on_c, 0, 70, 73
1, 75816, Note_on_c, 0, 46, 65
1, 75821, Note_on_c, 0, 34, 54
1, 75828, Note_off_c, 0, 81, 59
1, 75864, Note_off_c, 0, 34, 61
1, 75878, Note_off_c, 0, 46, 63
1, 75902, Note_off_c, 0, 69, 50
1, 75933, Note_on_c, 0, 75, 91
1, 75951, Note_off_c, 0, 70, 67
1, 76053, Note_off_c, 0, 75, 61
1, 76138, Note_on_c, 0, 58, 95
1, 76161, Note_on_c, 0, 85, 93
1, 76171, Note_on_c, 0, 73, 81
1, 76254, Note_off_c, 0, 58, 65
1, 76420, Note_on_c, 0, 78, 63
1, 76466, Note_off_c, 0, 85, 61
1, 76581, Note_on_c, 0, 33, 69
1, 76581, Note_on_c, 0, 45, 73
1, 76654, Note_off_c, 0, 73, 53
1, 76691, Note_on_c, 0, 77, 73
1, 76700, Control_c, 0, 64, 121
1, 76730, Note_off_c, 0, 78, 57
1, 76730, Control_c, 0, 64, 119
1, 76745, Note_off_c, 0, 77, 64
1, 76759, Control_c, 0, 64, 118
1, 76770, Note_off_c, 0, 45, 55
1, 76789, Control_c, 0, 64, 117
1, 76803, Control_c, 0, 64, 115
1, 76826, Control_c, 0, 64, 114
1, 76841, Control_c, 0, 64, 113
1, 76871, Control_c, 0, 64, 112
1, 76885, Control_c, 0, 64, 110
1, 76900, Control_c, 0, 64, 107
1, 76915, Control_c, 0, 64, 104
1, 76930, Control_c, 0, 64, 102
1, 76945, Control_c, 0, 64, 100
1, 76959, Control_c, 0, 64, 100
1, 76974, Control_c, 0, 64, 98
1, 76989, Control_c, 0, 64, 96
1, 77003, Control_c, 0, 64, 93
1, 77018, Control_c, 0, 64, 91
1, 77025, Note_on_c, 0, 32, 49
1, 77033, Control_c, 0, 64, 90
1, 77048, Control_c, 0, 64, 89
1, 77063, Control_c, 0, 64, 86
1, 77066, Note_on_c, 0, 53, 71
1, 77077, Control_c, 0, 64, 78
1, 77091, Note_on_c, 0, 65, 63
1, 77092, Control_c, 0, 64, 67
1, 77094, Note_off_c, 0, 33, 37
1, 77095, Note_on_c, 0, 61, 43
1, 77107, Control_c, 0, 64, 50
1, 77121, Control_c, 0, 64, 0
1, 77210, Control_c, 0, 64, 45
1, 77225, Control_c, 0, 64, 58
1, 77240, Control_c, 0, 64, 64
1, 77249, Note_off_c, 0, 53, 62
1, 77255, Control_c, 0, 64, 70
1, 77256, Note_off_c, 0, 32, 57
1, 77270, Control_c, 0, 64, 83
1, 77285, Control_c, 0, 64, 127
1, 77329, Note_off_c, 0, 61, 59
1, 77378, Note_off_c, 0, 65, 57
1, 77479, Control_c, 0, 64, 116
1, 77493, Control_c, 0, 64, 106
1, 77506, Note_on_c, 0, 67, 40
1, 77508, Control_c, 0, 64, 101
1, 77523, Control_c, 0, 64, 97
1, 77538, Control_c, 0, 64, 95
1, 77553, Control_c, 0, 64, 93
1, 77574, Control_c, 0, 64, 90
1, 77589, Control_c, 0, 64, 85
1, 77604, Control_c, 0, 64, 83
1, 77678, Control_c, 0, 64, 82
1, 77680, Note_on_c, 0, 60, 38
1, 77693, Control_c, 0, 64, 82
1, 77737, Note_on_c, 0, 69, 48
1, 77738, Control_c, 0, 64, 81
1, 77812, Control_c, 0, 64, 81
1, 77826, Control_c, 0, 64, 80
1, 77841, Control_c, 0, 64, 78
1, 77844, Note_off_c, 0, 67, 33
1, 77856, Control_c, 0, 64, 77
1, 77871, Control_c, 0, 64, 77
1, 77886, Control_c, 0, 64, 76
1, 77944, Control_c, 0, 64, 76
1, 77957, Note_on_c, 0, 70, 50
1, 77959, Control_c, 0, 64, 75
1, 77969, Note_on_c, 0, 58, 37
1, 77974, Control_c, 0, 64, 75
1, 78004, Control_c, 0, 64, 74
1, 78018, Control_c, 0, 64, 74
1, 78030, Note_off_c, 0, 69, 34
1, 78063, Control_c, 0, 64, 73
1, 78093, Control_c, 0, 64, 73
1, 78108, Control_c, 0, 64, 72
1, 78137, Control_c, 0, 64, 72
1, 78184, Note_on_c, 0, 72, 55
1, 78224, Note_off_c, 0, 70, 37
1, 78227, Control_c, 0, 64, 71
1, 78257, Control_c, 0, 64, 71
1, 78301, Control_c, 0, 64, 70
1, 78310, Note_on_c, 0, 53, 40
1, 78323, Control_c, 0, 64, 70
1, 78338, Control_c, 0, 64, 69
1, 78368, Control_c, 0, 64, 69
1, 78397, Control_c, 0, 64, 68
1, 78421, Note_on_c, 0, 73, 62
1, 78436, Note_off_c, 0, 72, 60
1, 78442, Control_c, 0, 64, 68
1, 78471, Control_c, 0, 64, 67
1, 78486, Control_c, 0, 64, 67
1, 78501, Control_c, 0, 64, 66
1, 78516, Control_c, 0, 64, 66
1, 78531, Control_c, 0, 64, 65
1, 78537, Note_off_c, 0, 58, 37
1, 78539, Note_off_c, 0, 60, 32
1, 78546, Control_c, 0, 64, 65
1, 78575, Control_c, 0, 64, 64
1, 78620, Control_c, 0, 64, 64
1, 78649, Control_c, 0, 64, 63
1, 78679, Control_c, 0, 64, 63
1, 78694, Control_c, 0, 64, 62
1, 78709, Control_c, 0, 64, 62
1, 78723, Control_c, 0, 64, 61
1, 78730, Note_on_c, 0, 54, 53
1, 78738, Control_c, 0, 64, 59
1, 78745, Note_off_c, 0, 73, 54
1, 78752, Note_on_c, 0, 63, 39
1, 78753, Control_c, 0, 64, 54
1, 78763, Note_on_c, 0, 75, 51
1, 78767, Note_on_c, 0, 71, 39
1, 78767, Control_c, 0, 64, 45
1, 78782, Control_c, 0, 64, 34
1, 78797, Control_c, 0, 64, 31
1, 78811, Note_off_c, 0, 53, 53
1, 78812, Control_c, 0, 64, 31
1, 78827, Control_c, 0, 64, 32
1, 78841, Control_c, 0, 64, 36
1, 78856, Control_c, 0, 64, 44
1, 78863, Note_off_c, 0, 63, 48
1, 78871, Control_c, 0, 64, 53
1, 78886, Control_c, 0, 64, 62
1, 78901, Control_c, 0, 64, 69
1, 78916, Control_c, 0, 64, 80
1, 78924, Note_off_c, 0, 54, 65
1, 78930, Control_c, 0, 64, 117
1, 78945, Control_c, 0, 64, 127
1, 78948, Note_off_c, 0, 75, 56
1, 79059, Note_off_c, 0, 71, 51
1, 79082, Note_on_c, 0, 73, 45
1, 79094, Note_on_c, 0, 61, 25
1, 79109, Note_on_c, 0, 70, 31
1, 79147, Note_off_c, 0, 73, 59
1, 79157, Note_off_c, 0, 70, 58
1, 79218, Note_on_c, 0, 30, 39
1, 79249, Note_off_c, 0, 61, 42
1, 79303, Note_off_c, 0, 30, 41
1, 79306, Note_on_c, 0, 68, 40
1, 79472, Control_c, 0, 64, 123
1, 79487, Control_c, 0, 64, 118
1, 79497, Note_on_c, 0, 49, 57
1, 79502, Control_c, 0, 64, 114
1, 79506, Note_on_c, 0, 58, 34
1, 79511, Note_on_c, 0, 66, 40
1, 79517, Control_c, 0, 64, 113
1, 79522, Note_on_c, 0, 70, 38
1, 79532, Control_c, 0, 64, 112
1, 79546, Control_c, 0, 64, 111
1, 79561, Control_c, 0, 64, 111
1, 79576, Control_c, 0, 64, 110
1, 79590, Note_off_c, 0, 58, 54
1, 79590, Control_c, 0, 64, 108
1, 79605, Control_c, 0, 64, 106
1, 79620, Control_c, 0, 64, 104
1, 79635, Control_c, 0, 64, 102
1, 79650, Control_c, 0, 64, 100
1, 79658, Note_off_c, 0, 70, 36
1, 79665, Control_c, 0, 64, 99
1, 79679, Control_c, 0, 64, 99
1, 79694, Control_c, 0, 64, 97
1, 79705, Note_on_c, 0, 65, 39
1, 79709, Control_c, 0, 64, 96
1, 79724, Control_c, 0, 64, 95
1, 79738, Control_c, 0, 64, 94
1, 79744, Note_off_c, 0, 66, 29
1, 79753, Control_c, 0, 64, 93
1, 79769, Control_c, 0, 64, 92
1, 79782, Note_off_c, 0, 68, 25
1, 79784, Control_c, 0, 64, 91
1, 79792, Note_on_c, 0, 42, 37
1, 79799, Control_c, 0, 64, 90
1, 79821, Control_c, 0, 64, 90
1, 79836, Control_c, 0, 64, 89
1, 79851, Control_c, 0, 64, 88
1, 79857, Note_off_c, 0, 65, 58
1, 79866, Control_c, 0, 64, 87
1, 79881, Control_c, 0, 64, 86
1, 79895, Control_c, 0, 64, 85
1, 79898, Note_on_c, 0, 64, 47
1, 79910, Control_c, 0, 64, 85
1, 79925, Control_c, 0, 64, 84
1, 79940, Control_c, 0, 64, 84
1, 79955, Control_c, 0, 64, 83
1, 79969, Control_c, 0, 64, 82
1, 79984, Control_c, 0, 64, 81
1, 80014, Control_c, 0, 64, 81
1, 80028, Control_c, 0, 64, 80
1, 80043, Control_c, 0, 64, 79
1, 80052, Note_off_c, 0, 42, 31
1, 80058, Control_c, 0, 64, 77
1, 80073, Control_c, 0, 64, 72
1, 80085, Note_off_c, 0, 64, 57
1, 80088, Control_c, 0, 64, 64
1, 80090, Note_off_c, 0, 49, 60
1, 80094, Note_on_c, 0, 48, 58
1, 80102, Control_c, 0, 64, 53
1, 80117, Note_on_c, 0, 66, 35
1, 80117, Control_c, 0, 64, 44
1, 80132, Control_c, 0, 64, 43
1, 80136, Note_on_c, 0, 63, 29
1, 80147, Control_c, 0, 64, 44
1, 80162, Control_c, 0, 64, 48
1, 80176, Control_c, 0, 64, 55
1, 80191, Control_c, 0, 64, 61
1, 80206, Control_c, 0, 64, 64
1, 80221, Control_c, 0, 64, 68
1, 80236, Control_c, 0, 64, 73
1, 80251, Control_c, 0, 64, 79
1, 80254, Note_off_c, 0, 48, 62
1, 80266, Control_c, 0, 64, 87
1, 80281, Control_c, 0, 64, 96
1, 80295, Control_c, 0, 64, 100
1, 80340, Control_c, 0, 64, 99
1, 80346, Note_off_c, 0, 66, 38
1, 80352, Note_on_c, 0, 61, 43
1, 80355, Control_c, 0, 64, 98
1, 80369, Control_c, 0, 64, 97
1, 80382, Note_off_c, 0, 63, 39
1, 80384, Control_c, 0, 64, 96
1, 80399, Control_c, 0, 64, 95
1, 80414, Control_c, 0, 64, 94
1, 80428, Control_c, 0, 64, 93
1, 80443, Control_c, 0, 64, 92
1, 80451, Note_on_c, 0, 29, 38
1, 80458, Control_c, 0, 64, 91
1, 80473, Control_c, 0, 64, 90
1, 80487, Control_c, 0, 64, 89
1, 80502, Control_c, 0, 64, 87
1, 80517, Control_c, 0, 64, 86
1, 80532, Control_c, 0, 64, 85
1, 80537, Note_off_c, 0, 61, 34
1, 80547, Control_c, 0, 64, 84
1, 80554, Note_on_c, 0, 63, 40
1, 80556, Note_on_c, 0, 60, 35
1, 80570, Control_c, 0, 64, 84
1, 80585, Control_c, 0, 64, 83
1, 80600, Control_c, 0, 64, 82
1, 80605, Note_off_c, 0, 29, 31
1, 80615, Control_c, 0, 64, 81
1, 80630, Control_c, 0, 64, 80
1, 80644, Control_c, 0, 64, 80
1, 80659, Control_c, 0, 64, 79
1, 80674, Control_c, 0, 64, 78
1, 80689, Control_c, 0, 64, 77
1, 80704, Control_c, 0, 64, 77
1, 80707, Note_off_c, 0, 60, 52
1, 80718, Control_c, 0, 64, 76
1, 80733, Control_c, 0, 64, 75
1, 80746, Note_on_c, 0, 41, 31
1, 80748, Control_c, 0, 64, 74
1, 80753, Note_on_c, 0, 58, 38
1, 80763, Control_c, 0, 64, 74
1, 80792, Control_c, 0, 64, 73
1, 80822, Control_c, 0, 64, 73
1, 80837, Control_c, 0, 64, 72
1, 80851, Control_c, 0, 64, 72
1, 80866, Control_c, 0, 64, 71
1, 80881, Control_c, 0, 64, 70
1, 80896, Control_c, 0, 64, 70
1, 80911, Control_c, 0, 64, 69
1, 80925, Control_c, 0, 64, 69
1, 80940, Control_c, 0, 64, 68
1, 80955, Control_c, 0, 64, 68
1, 80960, Note_on_c, 0, 57, 29
1, 80963, Note_on_c, 0, 65, 28
1, 80966, Note_off_c, 0, 58, 33
1, 80970, Control_c, 0, 64, 67
1, 80999, Control_c, 0, 64, 67
1, 81014, Control_c, 0, 64, 66
1, 81029, Control_c, 0, 64, 66
1, 81038, Note_off_c, 0, 63, 23
1, 81044, Control_c, 0, 64, 65
1, 81059, Control_c, 0, 64, 65
1, 81074, Control_c, 0, 64, 64
1, 81082, Note_off_c, 0, 41, 38
1, 81089, Control_c, 0, 64, 64
1, 81091, Note_on_c, 0, 46, 34
1, 81103, Control_c, 0, 64, 63
1, 81118, Control_c, 0, 64, 63
1, 81133, Control_c, 0, 64, 62
1, 81148, Control_c, 0, 64, 62
1, 81162, Control_c, 0, 64, 61
1, 81173, Note_off_c, 0, 57, 43
1, 81177, Control_c, 0, 64, 60
1, 81192, Control_c, 0, 64, 59
1, 81207, Control_c, 0, 64, 58
1, 81210, Note_on_c, 0, 58, 38
1, 81222, Control_c, 0, 64, 56
1, 81236, Control_c, 0, 64, 54
1, 81251, Control_c, 0, 64, 53
1, 81266, Control_c, 0, 64, 51
1, 81281, Control_c, 0, 64, 48
1, 81296, Control_c, 0, 64, 44
1, 81318, Control_c, 0, 64, 40
1, 81333, Control_c, 0, 64, 39
1, 81378, Control_c, 0, 64, 39
1, 81393, Control_c, 0, 64, 41
1, 81408, Control_c, 0, 64, 46
1, 81422, Control_c, 0, 64, 51
1, 81437, Control_c, 0, 64, 56
1, 81452, Control_c, 0, 64, 60
1, 81465, Note_on_c, 0, 34, 28
1, 81467, Control_c, 0, 64, 64
1, 81470, Note_on_c, 0, 53, 30
1, 81482, Control_c, 0, 64, 67
1, 81497, Control_c, 0, 64, 75
1, 81512, Control_c, 0, 64, 90
1, 81527, Control_c, 0, 64, 127
1, 81536, Note_off_c, 0, 53, 60
1, 81559, Note_off_c, 0, 46, 41
1, 81564, Note_off_c, 0, 58, 62
1, 81595, Note_off_c, 0, 65, 55
1, 81617, Note_off_c, 0, 34, 35
1, 81769, Note_on_c, 0, 69, 44
1, 81907, Note_on_c, 0, 61, 42
1, 81979, Note_on_c, 0, 72, 41
1, 81995, Note_off_c, 0, 69, 44
1, 82045, Control_c, 0, 64, 119
1, 82066, Control_c, 0, 64, 112
1, 82081, Control_c, 0, 64, 109
1, 82096, Control_c, 0, 64, 107
1, 82111, Control_c, 0, 64, 106
1, 82126, Control_c, 0, 64, 105
1, 82141, Control_c, 0, 64, 104
1, 82156, Control_c, 0, 64, 102
1, 82171, Control_c, 0, 64, 99
1, 82186, Control_c, 0, 64, 97
1, 82198, Note_on_c, 0, 70, 42
1, 82201, Control_c, 0, 64, 96
1, 82215, Control_c, 0, 64, 95
1, 82230, Control_c, 0, 64, 94
1, 82245, Control_c, 0, 64, 93
1, 82260, Control_c, 0, 64, 92
1, 82275, Control_c, 0, 64, 92
1, 82290, Control_c, 0, 64, 91
1, 82305, Control_c, 0, 64, 90
1, 82320, Control_c, 0, 64, 88
1, 82320, Note_off_c, 0, 72, 43
1, 82335, Control_c, 0, 64, 87
1, 82350, Control_c, 0, 64, 86
1, 82364, Control_c, 0, 64, 85
1, 82379, Control_c, 0, 64, 85
1, 82394, Control_c, 0, 64, 84
1, 82409, Control_c, 0, 64, 83
1, 82423, Control_c, 0, 64, 82
1, 82438, Control_c, 0, 64, 81
1, 82440, Note_on_c, 0, 75, 43
1, 82453, Control_c, 0, 64, 81
1, 82468, Control_c, 0, 64, 80
1, 82483, Control_c, 0, 64, 80
1, 82497, Control_c, 0, 64, 79
1, 82512, Control_c, 0, 64, 78
1, 82527, Control_c, 0, 64, 78
1, 82542, Control_c, 0, 64, 77
1, 82557, Control_c, 0, 64, 76
1, 82571, Control_c, 0, 64, 76
1, 82592, Note_on_c, 0, 53, 33
1, 82601, Control_c, 0, 64, 75
1, 82615, Control_c, 0, 64, 75
1, 82645, Control_c, 0, 64, 74
1, 82660, Control_c, 0, 64, 74
1, 82675, Control_c, 0, 64, 73
1, 82683, Note_on_c, 0, 73, 47
1, 82689, Control_c, 0, 64, 72
1, 82704, Control_c, 0, 64, 72
1, 82719, Control_c, 0, 64, 71
1, 82756, Note_off_c, 0, 75, 53
1, 82764, Control_c, 0, 64, 71
1, 82779, Control_c, 0, 64, 70
1, 82794, Control_c, 0, 64, 70
1, 82815, Control_c, 0, 64, 69
1, 82830, Control_c, 0, 64, 68
1, 82860, Control_c, 0, 64, 68
1, 82890, Control_c, 0, 64, 67
1, 82904, Control_c, 0, 64, 67
1, 82949, Control_c, 0, 64, 66
1, 82965, Control_c, 0, 64, 66
1, 82980, Control_c, 0, 64, 65
1, 83024, Control_c, 0, 64, 65
1, 83053, Control_c, 0, 64, 64
1, 83068, Control_c, 0, 64, 64
1, 83098, Control_c, 0, 64, 63
1, 83135, Note_on_c, 0, 82, 51
1, 83142, Control_c, 0, 64, 63
1, 83143, Note_on_c, 0, 46, 26
1, 83172, Control_c, 0, 64, 62
1, 83187, Control_c, 0, 64, 62
1, 83202, Control_c, 0, 64, 61
1, 83217, Control_c, 0, 64, 59
1, 83232, Control_c, 0, 64, 56
1, 83246, Control_c, 0, 64, 53
1, 83261, Control_c, 0, 64, 48
1, 83276, Control_c, 0, 64, 44
1, 83291, Control_c, 0, 64, 42
1, 83335, Control_c, 0, 64, 44
1, 83350, Control_c, 0, 64, 49
1, 83365, Control_c, 0, 64, 54
1, 83380, Control_c, 0, 64, 58
1, 83394, Control_c, 0, 64, 61
1, 83409, Control_c, 0, 64, 64
1, 83424, Control_c, 0, 64, 67
1, 83438, Control_c, 0, 64, 72
1, 83441, Note_off_c, 0, 70, 38
1, 83453, Control_c, 0, 64, 81
1, 83462, Note_off_c, 0, 73, 32
1, 83468, Control_c, 0, 64, 94
1, 83483, Control_c, 0, 64, 127
1, 83489, Note_off_c, 0, 61, 36
1, 83497, Note_off_c, 0, 82, 58
1, 83520, Note_off_c, 0, 53, 39
1, 83533, Note_off_c, 0, 46, 46
1, 83803, Control_c, 0, 64, 118
1, 83817, Control_c, 0, 64, 113
1, 83832, Control_c, 0, 64, 107
1, 83847, Control_c, 0, 64, 104
1, 83861, Control_c, 0, 64, 100
1, 83876, Control_c, 0, 64, 98
1, 83891, Control_c, 0, 64, 96
1, 83906, Control_c, 0, 64, 95
1, 83921, Control_c, 0, 64, 94
1, 83935, Control_c, 0, 64, 93
1, 83950, Control_c, 0, 64, 92
1, 83965, Control_c, 0, 64, 90
1, 83980, Control_c, 0, 64, 88
1, 83995, Control_c, 0, 64, 85
1, 84010, Control_c, 0, 64, 79
1, 84025, Control_c, 0, 64, 70
1, 84040, Control_c, 0, 64, 56
1, 84055, Control_c, 0, 64, 0
1, 84290, Note_on_c, 0, 46, 94
1, 84291, Control_c, 0, 64, 17
1, 84296, Note_on_c, 0, 34, 80
1, 84302, Note_on_c, 0, 57, 88
1, 84314, Control_c, 0, 64, 75
1, 84329, Control_c, 0, 64, 127
1, 84329, Note_off_c, 0, 34, 65
1, 84332, Note_off_c, 0, 46, 64
1, 84357, Note_on_c, 0, 58, 58
1, 84358, Control_c, 0, 64, 87
1, 84373, Control_c, 0, 64, 62
1, 84387, Control_c, 0, 64, 0
1, 84393, Note_off_c, 0, 57, 64
1, 84416, Note_on_c, 0, 61, 69
1, 84430, Note_off_c, 0, 58, 58
1, 84431, Note_on_c, 0, 49, 74
1, 84481, Note_off_c, 0, 61, 61
1, 84487, Note_off_c, 0, 49, 64
1, 84548, Note_on_c, 0, 54, 85
1, 84550, Note_on_c, 0, 42, 79
1, 84550, Control_c, 0, 64, 58
1, 84562, Note_on_c, 0, 57, 65
1, 84566, Control_c, 0, 64, 78
1, 84576, Note_off_c, 0, 54, 68
1, 84581, Control_c, 0, 64, 127
1, 84591, Note_off_c, 0, 42, 64
1, 84626, Control_c, 0, 64, 91
1, 84630, Note_off_c, 0, 57, 64
1, 84634, Note_on_c, 0, 58, 66
1, 84640, Control_c, 0, 64, 62
1, 84655, Control_c, 0, 64, 0
1, 84666, Note_on_c, 0, 51, 86
1, 84684, Note_on_c, 0, 63, 75
1, 84690, Note_off_c, 0, 51, 70
1, 84698, Note_off_c, 0, 58, 62
1, 84749, Note_off_c, 0, 63, 62
1, 84750, Note_on_c, 0, 51, 42
1, 84780, Note_off_c, 0, 51, 34
1, 84803, Note_on_c, 0, 53, 87
1, 84804, Note_on_c, 0, 41, 78
1, 84812, Note_on_c, 0, 57, 74
1, 84818, Control_c, 0, 64, 38
1, 84827, Note_off_c, 0, 53, 71
1, 84833, Control_c, 0, 64, 65
1, 84834, Note_off_c, 0, 41, 65
1, 84847, Control_c, 0, 64, 87
1, 84862, Control_c, 0, 64, 127
1, 84884, Note_on_c, 0, 58, 80
1, 84893, Note_off_c, 0, 57, 61
1, 84914, Note_on_c, 0, 53, 78
1, 84922, Control_c, 0, 64, 79
1, 84937, Control_c, 0, 64, 0
1, 84941, Note_on_c, 0, 65, 64
1, 84941, Note_off_c, 0, 53, 68
1, 84950, Note_off_c, 0, 58, 64
1, 85005, Note_on_c, 0, 53, 64
1, 85006, Note_off_c, 0, 65, 59
1, 85029, Note_off_c, 0, 53, 60
1, 85059, Note_on_c, 0, 51, 83
1, 85067, Note_on_c, 0, 39, 63
1, 85077, Note_on_c, 0, 57, 65
1, 85077, Control_c, 0, 64, 52
1, 85082, Note_off_c, 0, 51, 67
1, 85092, Control_c, 0, 64, 66
1, 85094, Note_off_c, 0, 39, 60
1, 85107, Control_c, 0, 64, 79
1, 85122, Control_c, 0, 64, 127
1, 85143, Note_off_c, 0, 57, 64
1, 85144, Note_on_c, 0, 58, 69
1, 85176, Note_on_c, 0, 54, 78
1, 85193, Note_off_c, 0, 58, 62
1, 85194, Note_on_c, 0, 66, 74
1, 85210, Control_c, 0, 64, 82
1, 85225, Control_c, 0, 64, 38
1, 85240, Control_c, 0, 64, 0
1, 85242, Note_off_c, 0, 54, 64
1, 85250, Note_off_c, 0, 66, 64
1, 85320, Note_on_c, 0, 49, 80
1, 85321, Note_on_c, 0, 37, 64
1, 85329, Control_c, 0, 64, 42
1, 85332, Note_on_c, 0, 64, 78
1, 85343, Control_c, 0, 64, 63
1, 85345, Note_off_c, 0, 49, 69
1, 85352, Note_off_c, 0, 37, 63
1, 85359, Control_c, 0, 64, 76
1, 85374, Control_c, 0, 64, 127
1, 85396, Note_on_c, 0, 65, 72
1, 85399, Note_off_c, 0, 64, 60
1, 85444, Note_on_c, 0, 58, 76
1, 85452, Note_on_c, 0, 70, 89
1, 85469, Note_off_c, 0, 65, 63
1, 85473, Note_off_c, 0, 58, 0
1, 85477, Control_c, 0, 64, 74
1, 85492, Control_c, 0, 64, 0
1, 85509, Poly_aftertouch_c, 0, 58, 0
1, 85526, Note_off_c, 0, 70, 64
1, 85576, Note_on_c, 0, 48, 100
1, 85582, Note_on_c, 0, 36, 81
1, 85584, Note_on_c, 0, 64, 82
1, 85596, Control_c, 0, 64, 63
1, 85600, Note_on_c, 0, 65, 49
1, 85608, Note_off_c, 0, 48, 67
1, 85611, Control_c, 0, 64, 85
1, 85611, Note_off_c, 0, 36, 66
1, 85626, Control_c, 0, 64, 127
1, 85628, Note_off_c, 0, 65, 37
1, 85653, Note_on_c, 0, 65, 69
1, 85685, Note_off_c, 0, 64, 58
1, 85691, Note_on_c, 0, 60, 91
1, 85699, Note_on_c, 0, 72, 93
1, 85708, Note_off_c, 0, 60, 74
1, 85729, Control_c, 0, 64, 99
1, 85736, Note_off_c, 0, 65, 55
1, 85744, Control_c, 0, 64, 61
1, 85759, Control_c, 0, 64, 0
1, 85764, Note_on_c, 0, 60, 69
1, 85785, Note_off_c, 0, 72, 63
1, 85819, Note_off_c, 0, 60, 52
1, 85828, Note_on_c, 0, 34, 95
1, 85828, Note_on_c, 0, 46, 106
1, 85829, Note_on_c, 0, 64, 79
1, 85852, Note_off_c, 0, 34, 70
1, 85855, Control_c, 0, 64, 65
1, 85870, Control_c, 0, 64, 127
1, 85876, Note_off_c, 0, 46, 60
1, 85885, Note_on_c, 0, 47, 24
1, 85900, Note_on_c, 0, 65, 85
1, 85910, Note_off_c, 0, 64, 63
1, 85927, Note_off_c, 0, 47, 40
1, 85956, Note_on_c, 0, 73, 91
1, 85960, Note_on_c, 0, 61, 91
1, 85971, Note_off_c, 0, 65, 64
1, 85978, Note_off_c, 0, 61, 72
1, 86003, Control_c, 0, 64, 104
1, 86018, Control_c, 0, 64, 61
1, 86028, Poly_aftertouch_c, 0, 61, 0
1, 86032, Control_c, 0, 64, 0
1, 86038, Note_off_c, 0, 73, 65
1, 86099, Note_on_c, 0, 32, 92
1, 86099, Note_on_c, 0, 42, 91
1, 86099, Note_on_c, 0, 44, 97
1, 86101, Note_on_c, 0, 69, 98
1, 86106, Control_c, 0, 64, 50
1, 86121, Note_off_c, 0, 42, 67
1, 86121, Control_c, 0, 64, 75
1, 86125, Note_off_c, 0, 32, 69
1, 86136, Control_c, 0, 64, 127
1, 86144, Note_off_c, 0, 44, 64
1, 86186, Note_on_c, 0, 70, 83
1, 86218, Note_off_c, 0, 69, 55
1, 86228, Note_on_c, 0, 61, 92
1, 86234, Note_on_c, 0, 73, 99
1, 86246, Note_off_c, 0, 61, 72
1, 86262, Poly_aftertouch_c, 0, 42, 0
1, 86284, Note_on_c, 0, 61, 83
1, 86284, Note_off_c, 0, 70, 61
1, 86300, Control_c, 0, 64, 89
1, 86315, Note_off_c, 0, 61, 59
1, 86315, Control_c, 0, 64, 52
1, 86328, Note_off_c, 0, 73, 61
1, 86330, Control_c, 0, 64, 0
1, 86380, Note_on_c, 0, 42, 108
1, 86382, Note_on_c, 0, 30, 91
1, 86387, Note_on_c, 0, 69, 74
1, 86404, Control_c, 0, 64, 52
1, 86408, Note_off_c, 0, 30, 69
1, 86418, Control_c, 0, 64, 75
1, 86419, Note_on_c, 0, 68, 38
1, 86420, Note_off_c, 0, 68, 127
1, 86423, Note_on_c, 0, 41, 29
1, 86424, Note_off_c, 0, 41, 127
1, 86427, Note_off_c, 0, 42, 66
1, 86433, Control_c, 0, 64, 127
1, 86461, Note_on_c, 0, 70, 81
1, 86465, Poly_aftertouch_c, 0, 41, 0
1, 86492, Note_off_c, 0, 69, 62
1, 86503, Poly_aftertouch_c, 0, 32, 0
1, 86532, Note_on_c, 0, 73, 78
1, 86541, Note_on_c, 0, 60, 64
1, 86555, Note_off_c, 0, 70, 61
1, 86567, Note_off_c, 0, 60, 64
1, 86582, Note_on_c, 0, 61, 73
1, 86608, Note_off_c, 0, 61, 65
1, 86618, Control_c, 0, 64, 77
1, 86627, Note_off_c, 0, 73, 62
1, 86633, Control_c, 0, 64, 33
1, 86648, Control_c, 0, 64, 0
1, 86678, Note_on_c, 0, 46, 71
1, 86678, Note_on_c, 0, 69, 74
1, 86681, Note_on_c, 0, 54, 83
1, 86691, Note_on_c, 0, 42, 54
1, 86704, Note_off_c, 0, 46, 66
1, 86708, Control_c, 0, 64, 45
1, 86710, Note_off_c, 0, 54, 68
1, 86718, Note_off_c, 0, 42, 60
1, 86722, Control_c, 0, 64, 62
1, 86737, Control_c, 0, 64, 71
1, 86752, Control_c, 0, 64, 91
1, 86758, Note_on_c, 0, 70, 82
1, 86767, Control_c, 0, 64, 127
1, 86800, Note_on_c, 0, 61, 74
1, 86814, Note_on_c, 0, 74, 89
1, 86815, Note_off_c, 0, 69, 60
1, 86821, Note_on_c, 0, 62, 70
1, 86824, Note_off_c, 0, 61, 51
1, 86854, Note_off_c, 0, 70, 62
1, 86885, Note_off_c, 0, 62, 64
1, 86889, Note_off_c, 0, 74, 62
1, 86900, Control_c, 0, 64, 79
1, 86915, Control_c, 0, 64, 54
1, 86929, Control_c, 0, 64, 0
1, 86938, Note_on_c, 0, 69, 87
1, 86943, Note_on_c, 0, 66, 88
1, 86945, Note_on_c, 0, 58, 79
1, 86960, Note_on_c, 0, 54, 71
1, 86960, Control_c, 0, 64, 38
1, 86975, Control_c, 0, 64, 61
1, 86990, Control_c, 0, 64, 75
1, 87005, Control_c, 0, 64, 127
1, 87019, Note_on_c, 0, 70, 84
1, 87023, Note_off_c, 0, 54, 58
1, 87042, Note_off_c, 0, 66, 61
1, 87047, Note_on_c, 0, 63, 78
1, 87049, Note_off_c, 0, 58, 62
1, 87065, Note_on_c, 0, 75, 101
1, 87067, Note_off_c, 0, 69, 62
1, 87069, Note_off_c, 0, 63, 73
1, 87103, Note_off_c, 0, 70, 56
1, 87128, Note_on_c, 0, 63, 87
1, 87152, Control_c, 0, 64, 79
1, 87164, Note_off_c, 0, 75, 64
1, 87167, Control_c, 0, 64, 24
1, 87174, Note_off_c, 0, 63, 63
1, 87182, Control_c, 0, 64, 0
1, 87195, Note_on_c, 0, 46, 86
1, 87198, Note_on_c, 0, 54, 94
1, 87202, Note_on_c, 0, 42, 78
1, 87209, Note_on_c, 0, 69, 90
1, 87212, Control_c, 0, 64, 42
1, 87226, Control_c, 0, 64, 64
1, 87231, Note_off_c, 0, 42, 68
1, 87240, Note_off_c, 0, 46, 65
1, 87241, Control_c, 0, 64, 83
1, 87253, Note_off_c, 0, 54, 66
1, 87256, Control_c, 0, 64, 127
1, 87283, Note_on_c, 0, 70, 86
1, 87295, Poly_aftertouch_c, 0, 55, 127
1, 87322, Note_off_c, 0, 69, 57
1, 87325, Poly_aftertouch_c, 0, 55, 0
1, 87337, Note_on_c, 0, 64, 94
1, 87344, Note_on_c, 0, 76, 94
1, 87363, Note_off_c, 0, 64, 63
1, 87375, Note_off_c, 0, 70, 64
1, 87413, Note_on_c, 0, 64, 70
1, 87427, Control_c, 0, 64, 78
1, 87441, Control_c, 0, 64, 35
1, 87456, Note_off_c, 0, 76, 52
1, 87456, Control_c, 0, 64, 0
1, 87493, Note_on_c, 0, 68, 78
1, 87494, Note_on_c, 0, 53, 97
1, 87495, Note_on_c, 0, 41, 87
1, 87497, Note_off_c, 0, 64, 62
1, 87501, Control_c, 0, 64, 56
1, 87515, Control_c, 0, 64, 75
1, 87526, Note_off_c, 0, 41, 68
1, 87530, Control_c, 0, 64, 127
1, 87543, Note_off_c, 0, 53, 67
1, 87580, Note_on_c, 0, 69, 67
1, 87590, Note_off_c, 0, 68, 60
1, 87623, Note_on_c, 0, 77, 90
1, 87634, Note_on_c, 0, 65, 89
1, 87635, Note_off_c, 0, 69, 62
1, 87657, Note_off_c, 0, 65, 64
1, 87682, Poly_aftertouch_c, 0, 71, 0
1, 87703, Note_on_c, 0, 65, 58
1, 87712, Note_off_c, 0, 77, 63
1, 87760, Note_off_c, 0, 65, 60
1, 87770, Note_on_c, 0, 71, 75
1, 87774, Note_on_c, 0, 57, 80
1, 87798, Control_c, 0, 64, 73
1, 87811, Note_off_c, 0, 57, 64
1, 87813, Control_c, 0, 64, 31
1, 87825, Note_off_c, 0, 71, 64
1, 87828, Control_c, 0, 64, 0
1, 87836, Note_on_c, 0, 72, 67
1, 87905, Note_on_c, 0, 45, 71
1, 87906, Note_on_c, 0, 78, 85
1, 87912, Note_off_c, 0, 72, 64
1, 87931, Note_off_c, 0, 45, 66
1, 87963, Note_off_c, 0, 78, 65
1, 87968, Note_on_c, 0, 66, 57
1, 88021, Note_off_c, 0, 66, 58
1, 88039, Note_on_c, 0, 54, 65
1, 88041, Note_on_c, 0, 68, 56
1, 88081, Note_off_c, 0, 54, 65
1, 88109, Note_off_c, 0, 68, 60
1, 88113, Note_on_c, 0, 69, 65
1, 88175, Note_on_c, 0, 42, 59
1, 88177, Note_off_c, 0, 69, 63
1, 88180, Note_on_c, 0, 75, 69
1, 88213, Note_off_c, 0, 42, 63
1, 88232, Note_off_c, 0, 75, 60
1, 88234, Note_on_c, 0, 63, 49
1, 88276, Note_off_c, 0, 63, 63
1, 88305, Note_on_c, 0, 65, 57
1, 88312, Note_on_c, 0, 51, 58
1, 88343, Note_off_c, 0, 51, 64
1, 88368, Note_off_c, 0, 65, 59
1, 88387, Note_on_c, 0, 66, 53
1, 88433, Note_off_c, 0, 66, 61
1, 88438, Note_on_c, 0, 72, 56
1, 88443, Note_on_c, 0, 39, 54
1, 88475, Note_off_c, 0, 39, 60
1, 88499, Note_off_c, 0, 72, 63
1, 88503, Note_on_c, 0, 60, 40
1, 88532, Note_off_c, 0, 60, 51
1, 88561, Control_c, 0, 64, 48
1, 88576, Note_on_c, 0, 37, 64
1, 88576, Control_c, 0, 64, 63
1, 88583, Note_on_c, 0, 49, 55
1, 88589, Note_on_c, 0, 69, 69
1, 88590, Note_on_c, 0, 41, 39
1, 88591, Control_c, 0, 64, 73
1, 88605, Control_c, 0, 64, 106
1, 88615, Note_off_c, 0, 49, 65
1, 88620, Control_c, 0, 64, 127
1, 88621, Note_off_c, 0, 37, 61
1, 88627, Note_off_c, 0, 41, 47
1, 88662, Note_off_c, 0, 69, 59
1, 88670, Note_on_c, 0, 70, 55
1, 88694, Control_c, 0, 64, 82
1, 88709, Note_on_c, 0, 49, 68
1, 88709, Control_c, 0, 64, 59
1, 88716, Note_on_c, 0, 73, 68
1, 88716, Note_off_c, 0, 70, 60
1, 88723, Control_c, 0, 64, 0
1, 88744, Note_off_c, 0, 49, 64
1, 88778, Note_on_c, 0, 61, 48
1, 88784, Note_off_c, 0, 73, 62
1, 88815, Note_off_c, 0, 61, 55
1, 88859, Note_on_c, 0, 54, 83
1, 88860, Note_on_c, 0, 42, 74
1, 88863, Note_on_c, 0, 69, 73
1, 88864, Control_c, 0, 64, 32
1, 88866, Note_on_c, 0, 46, 66
1, 88879, Control_c, 0, 64, 64
1, 88889, Note_off_c, 0, 54, 67
1, 88894, Control_c, 0, 64, 77
1, 88902, Note_off_c, 0, 42, 62
1, 88904, Note_off_c, 0, 46, 65
1, 88909, Control_c, 0, 64, 127
1, 88931, Note_on_c, 0, 70, 69
1, 88970, Note_on_c, 0, 51, 87
1, 88982, Note_off_c, 0, 69, 55
1, 88986, Note_on_c, 0, 75, 87
1, 89015, Note_off_c, 0, 51, 64
1, 89027, Note_off_c, 0, 70, 59
1, 89027, Control_c, 0, 64, 74
1, 89036, Note_on_c, 0, 63, 75
1, 89042, Control_c, 0, 64, 0
1, 89066, Note_off_c, 0, 75, 62
1, 89079, Note_off_c, 0, 63, 62
1, 89113, Note_on_c, 0, 53, 98
1, 89118, Note_on_c, 0, 69, 82
1, 89119, Note_on_c, 0, 41, 83
1, 89131, Control_c, 0, 64, 56
1, 89146, Control_c, 0, 64, 68
1, 89150, Note_off_c, 0, 41, 66
1, 89153, Note_off_c, 0, 53, 63
1, 89161, Control_c, 0, 64, 88
1, 89176, Control_c, 0, 64, 127
1, 89194, Note_on_c, 0, 70, 82
1, 89227, Note_off_c, 0, 69, 59
1, 89238, Note_on_c, 0, 53, 91
1, 89245, Note_on_c, 0, 77, 87
1, 89273, Note_off_c, 0, 70, 64
1, 89276, Note_off_c, 0, 53, 61
1, 89280, Control_c, 0, 64, 85
1, 89295, Control_c, 0, 64, 53
1, 89307, Note_on_c, 0, 65, 64
1, 89310, Control_c, 0, 64, 0
1, 89322, Note_off_c, 0, 77, 63
1, 89343, Note_off_c, 0, 65, 58
1, 89375, Note_on_c, 0, 39, 79
1, 89377, Note_on_c, 0, 51, 91
1, 89377, Note_on_c, 0, 69, 75
1, 89384, Control_c, 0, 64, 53
1, 89399, Control_c, 0, 64, 67
1, 89404, Note_off_c, 0, 51, 69
1, 89408, Note_off_c, 0, 39, 70
1, 89414, Control_c, 0, 64, 90
1, 89429, Control_c, 0, 64, 127
1, 89447, Note_on_c, 0, 70, 78
1, 89454, Note_off_c, 0, 69, 63
1, 89498, Note_on_c, 0, 54, 81
1, 89510, Note_off_c, 0, 70, 64
1, 89514, Note_on_c, 0, 78, 82
1, 89522, Note_off_c, 0, 54, 70
1, 89556, Note_on_c, 0, 66, 71
1, 89584, Note_off_c, 0, 66, 67
1, 89584, Control_c, 0, 64, 86
1, 89587, Note_off_c, 0, 78, 64
1, 89599, Control_c, 0, 64, 39
1, 89614, Control_c, 0, 64, 0
1, 89651, Note_on_c, 0, 37, 61
1, 89651, Note_on_c, 0, 49, 79
1, 89659, Note_on_c, 0, 76, 82
1, 89659, Control_c, 0, 64, 51
1, 89674, Control_c, 0, 64, 68
1, 89680, Note_off_c, 0, 37, 63
1, 89680, Note_off_c, 0, 49, 66
1, 89682, Note_on_c, 0, 75, 19
1, 89688, Control_c, 0, 64, 127
1, 89718, Note_off_c, 0, 75, 31
1, 89719, Note_on_c, 0, 77, 79
1, 89728, Note_off_c, 0, 76, 62
1, 89730, Poly_aftertouch_c, 0, 41, 127
1, 89747, Poly_aftertouch_c, 0, 41, 0
1, 89775, Note_on_c, 0, 58, 95
1, 89787, Note_on_c, 0, 82, 89
1, 89794, Note_off_c, 0, 58, 73
1, 89814, Note_off_c, 0, 77, 62
1, 89821, Note_on_c, 0, 80, 43
1, 89829, Note_on_c, 0, 70, 80
1, 89847, Note_off_c, 0, 80, 54
1, 89850, Note_off_c, 0, 70, 71
1, 89862, Note_off_c, 0, 82, 67
1, 89880, Control_c, 0, 64, 68
1, 89895, Control_c, 0, 64, 0
1, 89912, Note_on_c, 0, 76, 95
1, 89914, Note_on_c, 0, 48, 110
1, 89922, Note_on_c, 0, 36, 81
1, 89940, Control_c, 0, 64, 54
1, 89946, Note_on_c, 0, 38, 54
1, 89950, Note_off_c, 0, 48, 68
1, 89951, Note_off_c, 0, 36, 65
1, 89954, Control_c, 0, 64, 71
1, 89969, Control_c, 0, 64, 127
1, 89978, Note_off_c, 0, 38, 37
1, 89991, Note_on_c, 0, 77, 85
1, 90021, Note_off_c, 0, 76, 62
1, 90045, Note_on_c, 0, 60, 102
1, 90046, Note_on_c, 0, 84, 96
1, 90068, Note_off_c, 0, 60, 64
1, 90071, Note_off_c, 0, 77, 61
1, 90097, Note_on_c, 0, 72, 79
1, 90126, Note_off_c, 0, 72, 65
1, 90139, Note_off_c, 0, 84, 64
1, 90163, Control_c, 0, 64, 110
1, 90177, Control_c, 0, 64, 65
1, 90188, Note_on_c, 0, 46, 107
1, 90190, Note_on_c, 0, 34, 93
1, 90192, Control_c, 0, 64, 0
1, 90200, Note_on_c, 0, 81, 82
1, 90228, Note_on_c, 0, 47, 42
1, 90232, Note_off_c, 0, 34, 65
1, 90237, Control_c, 0, 64, 41
1, 90252, Control_c, 0, 64, 69
1, 90258, Note_off_c, 0, 46, 68
1, 90261, Note_off_c, 0, 47, 64
1, 90267, Control_c, 0, 64, 127
1, 90276, Note_on_c, 0, 82, 83
1, 90305, Note_off_c, 0, 81, 65
1, 90359, Note_on_c, 0, 85, 98
1, 90363, Note_on_c, 0, 61, 102
1, 90390, Note_off_c, 0, 61, 65
1, 90401, Note_on_c, 0, 73, 81
1, 90410, Note_off_c, 0, 82, 64
1, 90448, Note_off_c, 0, 73, 64
1, 90448, Note_off_c, 0, 85, 66
1, 90525, Note_on_c, 0, 43, 101
1, 90531, Note_on_c, 0, 31, 85
1, 90534, Note_on_c, 0, 81, 85
1, 90541, Control_c, 0, 64, 74
1, 90556, Control_c, 0, 64, 21
1, 90571, Control_c, 0, 64, 0
1, 90615, Control_c, 0, 64, 23
1, 90622, Poly_aftertouch_c, 0, 34, 127
1, 90624, Note_on_c, 0, 82, 90
1, 90629, Control_c, 0, 64, 59
1, 90644, Control_c, 0, 64, 70
1, 90655, Note_off_c, 0, 31, 63
1, 90659, Note_off_c, 0, 81, 66
1, 90659, Control_c, 0, 64, 97
1, 90674, Control_c, 0, 64, 127
1, 90675, Poly_aftertouch_c, 0, 34, 0
1, 90688, Note_off_c, 0, 43, 62
1, 90712, Note_on_c, 0, 89, 106
1, 90714, Note_off_c, 0, 82, 64
1, 90808, Note_on_c, 0, 77, 74
1, 90821, Note_on_c, 0, 32, 66
1, 90839, Note_off_c, 0, 89, 59
1, 90915, Note_on_c, 0, 79, 76
1, 90915, Note_off_c, 0, 77, 61
1, 90919, Note_on_c, 0, 44, 86
1, 90943, Note_off_c, 0, 32, 61
1, 90971, Control_c, 0, 64, 111
1, 90986, Control_c, 0, 64, 102
1, 91000, Control_c, 0, 64, 100
1, 91015, Control_c, 0, 64, 95
1, 91030, Control_c, 0, 64, 84
1, 91052, Control_c, 0, 64, 69
1, 91063, Note_on_c, 0, 80, 66
1, 91065, Note_off_c, 0, 79, 60
1, 91067, Control_c, 0, 64, 47
1, 91082, Control_c, 0, 64, 0
1, 91127, Note_on_c, 0, 49, 63
1, 91135, Note_on_c, 0, 87, 63
1, 91156, Control_c, 0, 64, 35
1, 91169, Note_off_c, 0, 80, 62
1, 91171, Control_c, 0, 64, 50
1, 91186, Control_c, 0, 64, 59
1, 91200, Control_c, 0, 64, 64
1, 91203, Note_on_c, 0, 75, 55
1, 91215, Control_c, 0, 64, 68
1, 91230, Control_c, 0, 64, 76
1, 91236, Note_off_c, 0, 87, 60
1, 91245, Control_c, 0, 64, 92
1, 91260, Control_c, 0, 64, 127
1, 91277, Note_on_c, 0, 51, 86
1, 91281, Note_on_c, 0, 79, 63
1, 91303, Note_off_c, 0, 75, 54
1, 91346, Note_on_c, 0, 80, 74
1, 91372, Note_off_c, 0, 79, 57
1, 91373, Note_off_c, 0, 49, 56
1, 91411, Note_on_c, 0, 53, 89
1, 91422, Note_on_c, 0, 85, 83
1, 91445, Note_off_c, 0, 80, 61
1, 91447, Note_off_c, 0, 51, 64
1, 91473, Note_on_c, 0, 73, 70
1, 91508, Note_off_c, 0, 85, 63
1, 91551, Note_on_c, 0, 54, 94
1, 91561, Note_on_c, 0, 76, 80
1, 91576, Note_off_c, 0, 73, 59
1, 91586, Control_c, 0, 64, 83
1, 91599, Note_off_c, 0, 53, 63
1, 91600, Control_c, 0, 64, 60
1, 91615, Control_c, 0, 64, 0
1, 91631, Note_on_c, 0, 77, 80
1, 91659, Note_off_c, 0, 76, 65
1, 91674, Control_c, 0, 64, 27
1, 91689, Control_c, 0, 64, 53
1, 91698, Note_on_c, 0, 82, 88
1, 91704, Control_c, 0, 64, 63
1, 91718, Control_c, 0, 64, 71
1, 91726, Note_off_c, 0, 77, 64
1, 91727, Note_off_c, 0, 44, 62
1, 91733, Control_c, 0, 64, 93
1, 91749, Control_c, 0, 64, 127
1, 91752, Note_on_c, 0, 70, 78
1, 91828, Note_off_c, 0, 82, 61
1, 91846, Note_on_c, 0, 60, 98
1, 91846, Note_on_c, 0, 74, 70
1, 91884, Note_off_c, 0, 70, 59
1, 91915, Note_off_c, 0, 54, 61
1, 91927, Note_on_c, 0, 75, 73
1, 91966, Note_off_c, 0, 74, 58
1, 91984, Note_on_c, 0, 80, 79
1, 92002, Note_off_c, 0, 60, 60
1, 92005, Note_off_c, 0, 75, 60
1, 92071, Note_on_c, 0, 68, 50
1, 92088, Note_off_c, 0, 80, 61
1, 92097, Control_c, 0, 64, 96
1, 92112, Control_c, 0, 64, 65
1, 92121, Note_on_c, 0, 76, 60
1, 92122, Note_on_c, 0, 61, 92
1, 92126, Note_on_c, 0, 49, 63
1, 92127, Note_on_c, 0, 53, 51
1, 92127, Control_c, 0, 64, 0
1, 92133, Note_off_c, 0, 68, 57
1, 92171, Control_c, 0, 64, 48
1, 92186, Control_c, 0, 64, 62
1, 92190, Note_off_c, 0, 53, 58
1, 92201, Note_on_c, 0, 77, 66
1, 92201, Control_c, 0, 64, 74
1, 92203, Note_off_c, 0, 76, 59
1, 92210, Note_off_c, 0, 61, 63
1, 92213, Note_off_c, 0, 49, 62
1, 92216, Control_c, 0, 64, 100
1, 92230, Control_c, 0, 64, 127
1, 92266, Note_on_c, 0, 80, 73
1, 92273, Note_off_c, 0, 77, 61
1, 92327, Note_on_c, 0, 68, 54
1, 92334, Note_off_c, 0, 80, 61
1, 92371, Note_off_c, 0, 68, 61
1, 92403, Note_on_c, 0, 56, 78
1, 92404, Note_on_c, 0, 72, 67
1, 92408, Control_c, 0, 64, 88
1, 92422, Control_c, 0, 64, 62
1, 92434, Note_off_c, 0, 56, 65
1, 92437, Control_c, 0, 64, 0
1, 92476, Note_off_c, 0, 72, 62
1, 92491, Note_on_c, 0, 73, 59
1, 92536, Note_on_c, 0, 44, 53
1, 92552, Note_on_c, 0, 77, 66
1, 92559, Note_off_c, 0, 73, 64
1, 92580, Note_off_c, 0, 44, 64
1, 92598, Note_off_c, 0, 77, 61
1, 92619, Note_on_c, 0, 65, 56
1, 92659, Note_off_c, 0, 65, 61
1, 92675, Note_on_c, 0, 53, 67
1, 92687, Note_on_c, 0, 67, 63
1, 92706, Note_off_c, 0, 53, 65
1, 92742, Note_off_c, 0, 67, 60
1, 92758, Note_on_c, 0, 68, 55
1, 92794, Note_on_c, 0, 41, 63
1, 92816, Note_on_c, 0, 73, 70
1, 92820, Note_off_c, 0, 68, 60
1, 92827, Note_off_c, 0, 41, 65
1, 92879, Note_on_c, 0, 61, 53
1, 92893, Note_off_c, 0, 73, 62
1, 92936, Note_on_c, 0, 49, 68
1, 92941, Note_on_c, 0, 64, 61
1, 92945, Note_off_c, 0, 61, 61
1, 92967, Note_off_c, 0, 49, 64
1, 93014, Note_on_c, 0, 65, 64
1, 93035, Note_off_c, 0, 64, 59
1, 93064, Note_on_c, 0, 37, 48
1, 93070, Note_on_c, 0, 68, 77
1, 93085, Note_off_c, 0, 65, 62
1, 93104, Note_off_c, 0, 37, 62
1, 93140, Note_on_c, 0, 56, 73
1, 93213, Note_on_c, 0, 32, 80
1, 93214, Note_on_c, 0, 39, 92
1, 93215, Note_off_c, 0, 56, 65
1, 93232, Control_c, 0, 64, 58
1, 93246, Control_c, 0, 64, 77
1, 93261, Control_c, 0, 64, 127
1, 93277, Note_off_c, 0, 68, 61
1, 93300, Note_off_c, 0, 32, 55
1, 93304, Note_on_c, 0, 41, 74
1, 93316, Note_off_c, 0, 39, 37
1, 93381, Note_off_c, 0, 41, 56
1, 93394, Note_on_c, 0, 44, 77
1, 93469, Note_off_c, 0, 44, 61
1, 93490, Note_on_c, 0, 46, 64
1, 93510, Note_on_c, 0, 71, 85
1, 93514, Note_on_c, 0, 83, 84
1, 93524, Note_off_c, 0, 46, 66
1, 93530, Note_off_c, 0, 71, 69
1, 93531, Note_off_c, 0, 83, 74
1, 93561, Note_on_c, 0, 48, 65
1, 93579, Note_on_c, 0, 83, 93
1, 93591, Note_on_c, 0, 75, 80
1, 93596, Note_on_c, 0, 71, 71
1, 93625, Note_off_c, 0, 48, 46
1, 93628, Note_off_c, 0, 71, 56
1, 93632, Note_on_c, 0, 51, 78
1, 93673, Note_off_c, 0, 51, 61
1, 93714, Note_on_c, 0, 53, 68
1, 93731, Note_off_c, 0, 83, 62
1, 93761, Note_off_c, 0, 53, 57
1, 93798, Note_on_c, 0, 56, 71
1, 93811, Note_on_c, 0, 82, 90
1, 93813, Note_on_c, 0, 70, 87
1, 93826, Note_off_c, 0, 75, 59
1, 93837, Note_off_c, 0, 70, 66
1, 93856, Note_off_c, 0, 82, 63
1, 93882, Note_on_c, 0, 58, 73
1, 93892, Control_c, 0, 64, 91
1, 93896, Note_on_c, 0, 80, 94
1, 93905, Note_on_c, 0, 68, 89
1, 93906, Control_c, 0, 64, 66
1, 93912, Note_off_c, 0, 56, 64
1, 93921, Control_c, 0, 64, 34
1, 93930, Note_on_c, 0, 75, 71
1, 93934, Note_on_c, 0, 59, 63
1, 93936, Control_c, 0, 64, 0
1, 93951, Control_c, 0, 64, 39
1, 93966, Control_c, 0, 64, 58
1, 93981, Control_c, 0, 64, 64
1, 93993, Note_off_c, 0, 58, 56
1, 93995, Control_c, 0, 64, 70
1, 94010, Control_c, 0, 64, 82
1, 94020, Note_on_c, 0, 65, 69
1, 94023, Note_off_c, 0, 59, 62
1, 94025, Control_c, 0, 64, 127
1, 94098, Note_off_c, 0, 68, 59
1, 94106, Note_on_c, 0, 53, 66
1, 94106, Note_off_c, 0, 65, 60
1, 94109, Note_off_c, 0, 80, 62
1, 94165, Note_on_c, 0, 56, 67
1, 94172, Note_off_c, 0, 53, 63
1, 94200, Note_on_c, 0, 82, 95
1, 94203, Note_on_c, 0, 78, 84
1, 94207, Note_on_c, 0, 70, 85
1, 94211, Control_c, 0, 64, 81
1, 94220, Note_off_c, 0, 75, 60
1, 94225, Control_c, 0, 64, 61
1, 94228, Note_on_c, 0, 58, 64
1, 94240, Note_off_c, 0, 56, 61
1, 94240, Control_c, 0, 64, 24
1, 94255, Control_c, 0, 64, 38
1, 94270, Control_c, 0, 64, 57
1, 94285, Control_c, 0, 64, 65
1, 94299, Note_off_c, 0, 58, 62
1, 94300, Control_c, 0, 64, 73
1, 94301, Note_on_c, 0, 62, 54
1, 94315, Control_c, 0, 64, 93
1, 94330, Control_c, 0, 64, 127
1, 94356, Note_on_c, 0, 50, 67
1, 94356, Note_off_c, 0, 62, 64
1, 94369, Note_on_c, 0, 77, 69
1, 94389, Note_off_c, 0, 70, 60
1, 94390, Note_off_c, 0, 50, 65
1, 94400, Note_off_c, 0, 82, 62
1, 94416, Note_off_c, 0, 78, 58
1, 94422, Note_off_c, 0, 77, 57
1, 94518, Note_on_c, 0, 39, 62
1, 94518, Note_on_c, 0, 46, 69
1, 94537, Control_c, 0, 64, 108
1, 94542, Note_on_c, 0, 77, 27
1, 94551, Control_c, 0, 64, 76
1, 94566, Control_c, 0, 64, 59
1, 94571, Note_on_c, 0, 76, 23
1, 94581, Control_c, 0, 64, 17
1, 94596, Control_c, 0, 64, 16
1, 94598, Note_off_c, 0, 76, 41
1, 94609, Note_on_c, 0, 78, 59
1, 94611, Note_off_c, 0, 77, 51
1, 94611, Control_c, 0, 64, 40
1, 94625, Control_c, 0, 64, 53
1, 94640, Control_c, 0, 64, 59
1, 94655, Control_c, 0, 64, 64
1, 94670, Control_c, 0, 64, 70
1, 94673, Note_on_c, 0, 82, 59
1, 94684, Control_c, 0, 64, 83
1, 94693, Note_on_c, 0, 48, 78
1, 94699, Control_c, 0, 64, 127
1, 94702, Note_off_c, 0, 46, 60
1, 94712, Note_off_c, 0, 78, 59
1, 94743, Note_on_c, 0, 70, 66
1, 94748, Note_off_c, 0, 82, 64
1, 94825, Note_on_c, 0, 49, 89
1, 94834, Note_on_c, 0, 76, 73
1, 94858, Note_off_c, 0, 70, 58
1, 94877, Note_off_c, 0, 48, 61
1, 94899, Note_on_c, 0, 77, 79
1, 94961, Note_off_c, 0, 76, 62
1, 94962, Note_on_c, 0, 50, 91
1, 94967, Note_on_c, 0, 80, 90
1, 94997, Note_off_c, 0, 77, 64
1, 95002, Note_off_c, 0, 49, 63
1, 95008, Note_off_c, 0, 39, 60
1, 95026, Note_on_c, 0, 68, 79
1, 95066, Note_off_c, 0, 80, 63
1, 95101, Note_on_c, 0, 51, 104
1, 95108, Control_c, 0, 64, 114
1, 95114, Note_on_c, 0, 74, 89
1, 95123, Control_c, 0, 64, 72
1, 95128, Note_off_c, 0, 68, 60
1, 95138, Control_c, 0, 64, 41
1, 95143, Note_off_c, 0, 50, 63
1, 95152, Control_c, 0, 64, 0
1, 95182, Control_c, 0, 64, 53
1, 95188, Note_on_c, 0, 75, 86
1, 95197, Control_c, 0, 64, 63
1, 95212, Control_c, 0, 64, 70
1, 95227, Control_c, 0, 64, 88
1, 95239, Note_off_c, 0, 74, 57
1, 95241, Control_c, 0, 64, 127
1, 95245, Note_on_c, 0, 78, 96
1, 95311, Note_on_c, 0, 66, 79
1, 95317, Note_off_c, 0, 75, 62
1, 95360, Note_off_c, 0, 51, 61
1, 95374, Control_c, 0, 64, 88
1, 95375, Note_on_c, 0, 57, 102
1, 95379, Note_on_c, 0, 72, 80
1, 95382, Note_off_c, 0, 78, 62
1, 95389, Control_c, 0, 64, 64
1, 95404, Control_c, 0, 64, 41
1, 95411, Note_off_c, 0, 66, 62
1, 95419, Control_c, 0, 64, 52
1, 95434, Control_c, 0, 64, 65
1, 95448, Control_c, 0, 64, 77
1, 95463, Control_c, 0, 64, 127
1, 95474, Note_on_c, 0, 73, 87
1, 95493, Note_on_c, 0, 49, 60
1, 95504, Note_off_c, 0, 57, 66
1, 95534, Note_off_c, 0, 72, 63
1, 95546, Note_on_c, 0, 78, 99
1, 95549, Note_off_c, 0, 49, 64
1, 95562, Note_off_c, 0, 73, 65
1, 95578, Note_on_c, 0, 79, 58
1, 95597, Note_off_c, 0, 79, 64
1, 95606, Note_on_c, 0, 66, 89
1, 95691, Note_off_c, 0, 66, 63
1, 95702, Note_on_c, 0, 33, 84
1, 95705, Note_on_c, 0, 39, 90
1, 95707, Control_c, 0, 64, 71
1, 95716, Poly_aftertouch_c, 0, 68, 0
1, 95722, Control_c, 0, 64, 0
1, 95765, Note_off_c, 0, 78, 61
1, 95768, Control_c, 0, 64, 15
1, 95783, Control_c, 0, 64, 54
1, 95786, Note_off_c, 0, 33, 60
1, 95797, Control_c, 0, 64, 69
1, 95802, Note_on_c, 0, 41, 78
1, 95812, Control_c, 0, 64, 92
1, 95823, Note_off_c, 0, 39, 60
1, 95826, Control_c, 0, 64, 127
1, 95895, Note_on_c, 0, 42, 78
1, 95901, Note_off_c, 0, 41, 64
1, 95972, Note_on_c, 0, 78, 97
1, 95972, Note_on_c, 0, 90, 101
1, 95979, Note_off_c, 0, 42, 62
1, 95981, Note_on_c, 0, 44, 69
1, 96005, Note_off_c, 0, 78, 66
1, 96011, Note_off_c, 0, 90, 62
1, 96039, Note_off_c, 0, 44, 62
1, 96062, Note_on_c, 0, 45, 71
1, 96064, Note_on_c, 0, 87, 99
1, 96067, Note_on_c, 0, 75, 92
1, 96077, Note_on_c, 0, 78, 86
1, 96089, Note_on_c, 0, 88, 63
1, 96105, Note_off_c, 0, 88, 66
1, 96127, Note_off_c, 0, 45, 62
1, 96157, Note_on_c, 0, 49, 77
1, 96183, Note_off_c, 0, 75, 59
1, 96208, Note_off_c, 0, 87, 62
1, 96229, Note_on_c, 0, 51, 78
1, 96230, Note_off_c, 0, 49, 63
1, 96293, Note_off_c, 0, 51, 63
1, 96319, Note_on_c, 0, 73, 97
1, 96320, Note_on_c, 0, 85, 89
1, 96325, Note_on_c, 0, 54, 70
1, 96339, Note_off_c, 0, 85, 71
1, 96340, Note_off_c, 0, 78, 64
1, 96344, Note_off_c, 0, 73, 66
1, 96355, Note_off_c, 0, 54, 66
1, 96390, Note_on_c, 0, 56, 70
1, 96396, Control_c, 0, 64, 91
1, 96410, Control_c, 0, 64, 66
1, 96412, Note_on_c, 0, 78, 95
1, 96420, Note_on_c, 0, 66, 93
1, 96425, Control_c, 0, 64, 38
1, 96431, Note_on_c, 0, 73, 82
1, 96440, Control_c, 0, 64, 17
1, 96455, Control_c, 0, 64, 41
1, 96461, Note_on_c, 0, 57, 66
1, 96470, Control_c, 0, 64, 55
1, 96473, Note_off_c, 0, 56, 52
1, 96485, Control_c, 0, 64, 63
1, 96500, Control_c, 0, 64, 69
1, 96514, Control_c, 0, 64, 80
1, 96529, Control_c, 0, 64, 113
1, 96537, Note_on_c, 0, 63, 72
1, 96540, Note_off_c, 0, 57, 62
1, 96545, Control_c, 0, 64, 127
1, 96591, Note_off_c, 0, 78, 61
1, 96598, Note_off_c, 0, 63, 61
1, 96616, Note_on_c, 0, 51, 68
1, 96625, Note_off_c, 0, 66, 59
1, 96675, Note_on_c, 0, 54, 67
1, 96694, Control_c, 0, 64, 108
1, 96700, Note_off_c, 0, 51, 62
1, 96701, Note_on_c, 0, 80, 91
1, 96703, Note_on_c, 0, 77, 81
1, 96709, Control_c, 0, 64, 74
1, 96712, Note_off_c, 0, 73, 59
1, 96713, Note_on_c, 0, 68, 78
1, 96723, Control_c, 0, 64, 58
1, 96725, Note_on_c, 0, 56, 63
1, 96738, Control_c, 0, 64, 35
1, 96753, Control_c, 0, 64, 45
1, 96756, Note_off_c, 0, 54, 59
1, 96768, Control_c, 0, 64, 58
1, 96783, Control_c, 0, 64, 64
1, 96789, Note_on_c, 0, 60, 60
1, 96798, Control_c, 0, 64, 69
1, 96804, Note_off_c, 0, 56, 60
1, 96812, Control_c, 0, 64, 78
1, 96827, Control_c, 0, 64, 103
1, 96842, Control_c, 0, 64, 127
1, 96846, Note_off_c, 0, 60, 66
1, 96858, Note_on_c, 0, 48, 57
1, 96866, Note_on_c, 0, 75, 69
1, 96890, Note_off_c, 0, 48, 65
1, 96901, Note_off_c, 0, 68, 58
1, 96923, Note_off_c, 0, 80, 61
1, 96942, Note_off_c, 0, 77, 55
1, 96946, Note_off_c, 0, 75, 58
1, 97019, Note_on_c, 0, 37, 57
1, 97020, Note_on_c, 0, 44, 69
1, 97024, Note_on_c, 0, 76, 62
1, 97087, Control_c, 0, 64, 111
1, 97101, Control_c, 0, 64, 81
1, 97114, Note_on_c, 0, 77, 56
1, 97116, Note_off_c, 0, 76, 55
1, 97116, Control_c, 0, 64, 65
1, 97131, Control_c, 0, 64, 46
1, 97145, Control_c, 0, 64, 15
1, 97160, Control_c, 0, 64, 27
1, 97175, Control_c, 0, 64, 41
1, 97185, Note_on_c, 0, 80, 72
1, 97186, Note_on_c, 0, 46, 73
1, 97190, Control_c, 0, 64, 52
1, 97205, Control_c, 0, 64, 58
1, 97215, Note_off_c, 0, 77, 60
1, 97219, Control_c, 0, 64, 62
1, 97224, Note_off_c, 0, 44, 63
1, 97234, Control_c, 0, 64, 66
1, 97249, Control_c, 0, 64, 72
1, 97263, Note_on_c, 0, 68, 66
1, 97263, Control_c, 0, 64, 83
1, 97278, Control_c, 0, 64, 109
1, 97279, Note_off_c, 0, 80, 63
1, 97293, Control_c, 0, 64, 127
1, 97310, Note_on_c, 0, 47, 85
1, 97334, Note_on_c, 0, 74, 79
1, 97355, Note_off_c, 0, 68, 59
1, 97423, Note_on_c, 0, 75, 89
1, 97457, Note_on_c, 0, 78, 87
1, 97463, Note_on_c, 0, 48, 87
1, 97466, Note_off_c, 0, 74, 58
1, 97496, Note_on_c, 0, 66, 82
1, 97518, Note_off_c, 0, 46, 28
1, 97520, Note_off_c, 0, 75, 58
1, 97573, Note_off_c, 0, 78, 62
1, 97576, Control_c, 0, 64, 121
1, 97589, Note_off_c, 0, 66, 58
1, 97591, Control_c, 0, 64, 73
1, 97600, Note_on_c, 0, 49, 99
1, 97605, Note_on_c, 0, 72, 76
1, 97606, Control_c, 0, 64, 32
1, 97615, Note_off_c, 0, 48, 60
1, 97621, Control_c, 0, 64, 0
1, 97624, Note_on_c, 0, 39, 27
1, 97639, Note_off_c, 0, 47, 61
1, 97650, Control_c, 0, 64, 35
1, 97665, Control_c, 0, 64, 57
1, 97668, Note_off_c, 0, 39, 43
1, 97680, Control_c, 0, 64, 65
1, 97685, Note_on_c, 0, 73, 79
1, 97688, Note_off_c, 0, 37, 62
1, 97695, Control_c, 0, 64, 76
1, 97709, Note_off_c, 0, 49, 62
1, 97709, Control_c, 0, 64, 111
1, 97711, Note_off_c, 0, 72, 60
1, 97724, Control_c, 0, 64, 127
1, 97745, Note_on_c, 0, 77, 87
1, 97767, Note_off_c, 0, 73, 63
1, 97807, Note_on_c, 0, 65, 66
1, 97817, Note_off_c, 0, 77, 63
1, 97865, Control_c, 0, 64, 74
1, 97880, Control_c, 0, 64, 34
1, 97886, Note_off_c, 0, 65, 58
1, 97892, Note_on_c, 0, 68, 72
1, 97894, Control_c, 0, 64, 0
1, 97904, Note_on_c, 0, 41, 85
1, 97907, Note_on_c, 0, 51, 96
1, 97924, Control_c, 0, 64, 46
1, 97939, Control_c, 0, 64, 64
1, 97953, Note_off_c, 0, 51, 62
1, 97954, Control_c, 0, 64, 78
1, 97966, Note_on_c, 0, 69, 74
1, 97966, Note_off_c, 0, 68, 60
1, 97968, Control_c, 0, 64, 127
1, 97996, Poly_aftertouch_c, 0, 39, 127
1, 97997, Note_off_c, 0, 41, 57
1, 98038, Poly_aftertouch_c, 0, 39, 0
1, 98050, Note_on_c, 0, 75, 78
1, 98057, Control_c, 0, 64, 76
1, 98062, Note_off_c, 0, 69, 62
1, 98064, Note_on_c, 0, 36, 74
1, 98064, Note_on_c, 0, 48, 83
1, 98072, Control_c, 0, 64, 0
1, 98089, Note_off_c, 0, 48, 69
1, 98092, Note_off_c, 0, 36, 65
1, 98101, Note_on_c, 0, 63, 57
1, 98118, Note_off_c, 0, 75, 61
1, 98146, Note_off_c, 0, 63, 56
1, 98214, Note_on_c, 0, 46, 81
1, 98216, Note_on_c, 0, 34, 64
1, 98222, Note_on_c, 0, 69, 59
1, 98236, Control_c, 0, 64, 37
1, 98249, Note_off_c, 0, 34, 63
1, 98250, Note_off_c, 0, 46, 64
1, 98251, Control_c, 0, 64, 67
1, 98265, Control_c, 0, 64, 97
1, 98280, Control_c, 0, 64, 127
1, 98282, Note_on_c, 0, 70, 63
1, 98297, Note_off_c, 0, 69, 59
1, 98324, Control_c, 0, 64, 109
1, 98339, Control_c, 0, 64, 69
1, 98343, Note_on_c, 0, 73, 61
1, 98353, Note_off_c, 0, 70, 61
1, 98354, Control_c, 0, 64, 0
1, 98355, Note_on_c, 0, 49, 69
1, 98384, Note_off_c, 0, 49, 66
1, 98384, Note_on_c, 0, 61, 57
1, 98404, Note_off_c, 0, 73, 61
1, 98426, Note_off_c, 0, 61, 58
1, 98503, Note_on_c, 0, 46, 52
1, 98506, Note_on_c, 0, 54, 48
1, 98512, Note_on_c, 0, 69, 37
1, 98517, Control_c, 0, 64, 32
1, 98518, Note_on_c, 0, 42, 44
1, 98532, Control_c, 0, 64, 63
1, 98533, Note_off_c, 0, 54, 58
1, 98554, Note_off_c, 0, 46, 62
1, 98554, Control_c, 0, 64, 74
1, 98560, Note_off_c, 0, 42, 53
1, 98569, Control_c, 0, 64, 121
1, 98580, Note_on_c, 0, 70, 53
1, 98582, Note_off_c, 0, 69, 56
1, 98584, Control_c, 0, 64, 127
1, 98634, Note_on_c, 0, 51, 62
1, 98634, Note_on_c, 0, 75, 67
1, 98643, Control_c, 0, 64, 103
1, 98658, Control_c, 0, 64, 69
1, 98663, Note_off_c, 0, 70, 53
1, 98670, Note_off_c, 0, 51, 64
1, 98673, Control_c, 0, 64, 0
1, 98685, Note_on_c, 0, 63, 56
1, 98706, Note_off_c, 0, 75, 61
1, 98721, Note_off_c, 0, 63, 64
1, 98774, Note_on_c, 0, 69, 68
1, 98774, Note_on_c, 0, 53, 81
1, 98788, Note_on_c, 0, 41, 58
1, 98789, Note_on_c, 0, 46, 55
1, 98791, Control_c, 0, 64, 46
1, 98800, Note_off_c, 0, 53, 70
1, 98806, Control_c, 0, 64, 63
1, 98816, Note_off_c, 0, 41, 55
1, 98816, Note_off_c, 0, 46, 61
1, 98820, Control_c, 0, 64, 78
1, 98835, Control_c, 0, 64, 127
1, 98854, Note_on_c, 0, 70, 69
1, 98877, Note_off_c, 0, 69, 53
1, 98905, Note_on_c, 0, 53, 74
1, 98911, Note_on_c, 0, 77, 79
1, 98923, Control_c, 0, 64, 79
1, 98928, Note_off_c, 0, 70, 63
1, 98933, Note_off_c, 0, 53, 68
1, 98940, Control_c, 0, 64, 47
1, 98955, Control_c, 0, 64, 0
1, 98974, Note_on_c, 0, 65, 56
1, 98985, Note_off_c, 0, 77, 61
1, 99026, Note_off_c, 0, 65, 53
1, 99030, Note_on_c, 0, 51, 84
1, 99035, Note_on_c, 0, 39, 74
1, 99043, Control_c, 0, 64, 52
1, 99045, Note_on_c, 0, 46, 62
1, 99049, Note_on_c, 0, 69, 64
1, 99058, Control_c, 0, 64, 66
1, 99064, Note_off_c, 0, 51, 63
1, 99067, Note_off_c, 0, 39, 66
1, 99073, Control_c, 0, 64, 84
1, 99076, Note_off_c, 0, 46, 65
1, 99087, Control_c, 0, 64, 127
1, 99121, Note_on_c, 0, 70, 69
1, 99135, Note_off_c, 0, 69, 59
1, 99163, Note_on_c, 0, 54, 89
1, 99180, Note_off_c, 0, 70, 63
1, 99186, Note_on_c, 0, 78, 81
1, 99186, Note_off_c, 0, 54, 72
1, 99203, Note_on_c, 0, 66, 72
1, 99206, Control_c, 0, 64, 78
1, 99221, Control_c, 0, 64, 23
1, 99229, Note_off_c, 0, 66, 68
1, 99236, Control_c, 0, 64, 0
1, 99242, Note_off_c, 0, 78, 64
1, 99316, Note_on_c, 0, 37, 74
1, 99317, Control_c, 0, 64, 62
1, 99320, Note_on_c, 0, 49, 78
1, 99320, Note_on_c, 0, 76, 89
1, 99331, Note_on_c, 0, 40, 52
1, 99332, Control_c, 0, 64, 81
1, 99344, Note_off_c, 0, 37, 63
1, 99344, Note_off_c, 0, 49, 68
1, 99347, Control_c, 0, 64, 127
1, 99362, Note_off_c, 0, 40, 56
1, 99405, Note_on_c, 0, 77, 70
1, 99424, Note_off_c, 0, 76, 61
1, 99439, Note_on_c, 0, 58, 98
1, 99452, Note_on_c, 0, 82, 88
1, 99463, Note_off_c, 0, 58, 68
1, 99484, Note_on_c, 0, 70, 84
1, 99487, Note_off_c, 0, 77, 65
1, 99495, Control_c, 0, 64, 104
1, 99497, Note_on_c, 0, 80, 31
1, 99510, Control_c, 0, 64, 63
1, 99514, Note_off_c, 0, 70, 65
1, 99524, Note_off_c, 0, 80, 33
1, 99525, Control_c, 0, 64, 0
1, 99528, Note_off_c, 0, 82, 65
1, 99578, Note_on_c, 0, 48, 97
1, 99579, Note_on_c, 0, 41, 87
1, 99582, Note_on_c, 0, 76, 94
1, 99584, Note_on_c, 0, 36, 84
1, 99599, Control_c, 0, 64, 61
1, 99608, Note_off_c, 0, 41, 68
1, 99609, Note_off_c, 0, 36, 66
1, 99611, Note_off_c, 0, 48, 64
1, 99613, Control_c, 0, 64, 88
1, 99628, Control_c, 0, 64, 127
1, 99666, Note_on_c, 0, 77, 86
1, 99693, Note_off_c, 0, 76, 57
1, 99705, Note_on_c, 0, 60, 100
1, 99718, Note_on_c, 0, 84, 93
1, 99736, Note_off_c, 0, 60, 68
1, 99762, Control_c, 0, 64, 117
1, 99775, Note_on_c, 0, 72, 73
1, 99776, Note_off_c, 0, 77, 62
1, 99777, Control_c, 0, 64, 65
1, 99792, Control_c, 0, 64, 0
1, 99806, Note_off_c, 0, 84, 64
1, 99838, Note_off_c, 0, 72, 38
1, 99847, Note_on_c, 0, 76, 82
1, 99853, Note_on_c, 0, 34, 80
1, 99853, Note_on_c, 0, 46, 100
1, 99866, Control_c, 0, 64, 46
1, 99870, Note_on_c, 0, 33, 68
1, 99881, Note_on_c, 0, 44, 44
1, 99882, Note_off_c, 0, 44, 127
1, 99882, Control_c, 0, 64, 71
1, 99886, Note_off_c, 0, 34, 66
1, 99895, Note_off_c, 0, 46, 65
1, 99896, Control_c, 0, 64, 127
1, 99901, Note_off_c, 0, 33, 57
1, 99931, Note_on_c, 0, 77, 82
1, 99949, Note_off_c, 0, 76, 63
1, 99995, Note_on_c, 0, 61, 99
1, 100008, Note_on_c, 0, 85, 91
1, 100026, Note_off_c, 0, 61, 70
1, 100041, Note_on_c, 0, 73, 79
1, 100041, Note_off_c, 0, 77, 65
1, 100080, Note_off_c, 0, 73, 62
1, 100095, Note_off_c, 0, 85, 66
1, 100125, Control_c, 0, 64, 71
1, 100140, Control_c, 0, 64, 0
1, 100166, Note_on_c, 0, 42, 97
1, 100169, Note_on_c, 0, 39, 87
1, 100172, Note_on_c, 0, 30, 84
1, 100175, Note_on_c, 0, 81, 91
1, 100193, Note_off_c, 0, 42, 64
1, 100200, Note_off_c, 0, 30, 64
1, 100214, Control_c, 0, 64, 63
1, 100221, Note_off_c, 0, 39, 63
1, 100229, Control_c, 0, 64, 127
1, 100270, Note_on_c, 0, 82, 83
1, 100280, Note_off_c, 0, 81, 61
1, 100346, Note_on_c, 0, 63, 102
1, 100346, Note_off_c, 0, 82, 58
1, 100349, Note_on_c, 0, 87, 95
1, 100358, Note_off_c, 0, 63, 75
1, 100359, Note_on_c, 0, 62, 89
1, 100381, Note_off_c, 0, 62, 71
1, 100385, Note_on_c, 0, 61, 34
1, 100388, Note_on_c, 0, 75, 71
1, 100421, Note_off_c, 0, 61, 50
1, 100426, Note_on_c, 0, 63, 28
1, 100454, Note_off_c, 0, 63, 58
1, 100457, Note_off_c, 0, 75, 57
1, 100468, Note_off_c, 0, 87, 61
1, 100496, Control_c, 0, 64, 81
1, 100511, Control_c, 0, 64, 0
1, 100556, Note_on_c, 0, 82, 69
1, 100558, Note_on_c, 0, 39, 102
1, 100563, Note_on_c, 0, 27, 91
1, 100584, Note_on_c, 0, 37, 55
1, 100585, Note_off_c, 0, 37, 127
1, 100586, Control_c, 0, 64, 47
1, 100589, Note_off_c, 0, 27, 69
1, 100601, Control_c, 0, 64, 74
1, 100602, Note_off_c, 0, 39, 67
1, 100616, Control_c, 0, 64, 127
1, 100662, Note_on_c, 0, 83, 77
1, 100674, Note_off_c, 0, 82, 63
1, 100795, Note_on_c, 0, 66, 100
1, 100798, Note_on_c, 0, 90, 93
1, 100807, Note_on_c, 0, 54, 84
1, 100817, Note_off_c, 0, 83, 63
1, 100824, Note_off_c, 0, 54, 69
1, 100825, Note_off_c, 0, 66, 64
1, 100867, Note_on_c, 0, 78, 72
1, 100871, Note_off_c, 0, 90, 65
1, 100944, Note_off_c, 0, 78, 61
1, 100988, Note_on_c, 0, 63, 99
1, 100992, Note_on_c, 0, 59, 81
1, 100995, Note_on_c, 0, 77, 85
1, 100996, Note_on_c, 0, 51, 86
1, 100998, Note_on_c, 0, 54, 77
1, 101041, Note_on_c, 0, 56, 34
1, 101076, Note_off_c, 0, 56, 52
1, 101078, Note_on_c, 0, 78, 83
1, 101084, Note_off_c, 0, 77, 63
1, 101130, Note_off_c, 0, 63, 63
1, 101141, Note_off_c, 0, 51, 62
1, 101145, Note_off_c, 0, 78, 66
1, 101146, Note_on_c, 0, 87, 83
1, 101165, Note_off_c, 0, 54, 63
1, 101182, Note_off_c, 0, 59, 58
1, 101204, Note_off_c, 0, 87, 64
1, 101211, Note_on_c, 0, 75, 67
1, 101290, Control_c, 0, 64, 75
1, 101290, Note_on_c, 0, 74, 87
1, 101305, Control_c, 0, 64, 0
1, 101332, Note_off_c, 0, 75, 26
1, 101366, Note_on_c, 0, 75, 69
1, 101384, Note_off_c, 0, 74, 60
1, 101424, Note_on_c, 0, 83, 90
1, 101455, Note_off_c, 0, 75, 63
1, 101489, Note_on_c, 0, 71, 78
1, 101517, Note_off_c, 0, 83, 59
1, 101556, Note_on_c, 0, 63, 87
1, 101558, Note_on_c, 0, 65, 92
1, 101558, Note_on_c, 0, 53, 85
1, 101564, Control_c, 0, 64, 67
1, 101567, Note_on_c, 0, 74, 81
1, 101579, Control_c, 0, 64, 113
1, 101584, Note_on_c, 0, 59, 61
1, 101594, Note_off_c, 0, 71, 53
1, 101594, Control_c, 0, 64, 127
1, 101597, Note_off_c, 0, 65, 63
1, 101606, Note_off_c, 0, 59, 63
1, 101615, Note_off_c, 0, 63, 65
1, 101618, Note_off_c, 0, 53, 65
1, 101639, Note_on_c, 0, 75, 83
1, 101675, Note_off_c, 0, 74, 61
1, 101703, Note_on_c, 0, 81, 89
1, 101735, Note_off_c, 0, 75, 61
1, 101761, Note_on_c, 0, 69, 70
1, 101787, Control_c, 0, 64, 75
1, 101802, Control_c, 0, 64, 0
1, 101806, Note_off_c, 0, 81, 64
1, 101830, Note_off_c, 0, 69, 55
1, 101841, Note_on_c, 0, 34, 75
1, 101841, Note_on_c, 0, 46, 84
1, 101852, Note_on_c, 0, 76, 76
1, 101875, Note_off_c, 0, 34, 66
1, 101876, Note_off_c, 0, 46, 65
1, 101876, Control_c, 0, 64, 62
1, 101890, Control_c, 0, 64, 99
1, 101905, Control_c, 0, 64, 127
1, 101919, Note_on_c, 0, 77, 78
1, 101943, Note_off_c, 0, 76, 62
1, 101988, Note_on_c, 0, 58, 94
1, 101994, Note_on_c, 0, 82, 85
1, 102000, Note_on_c, 0, 46, 70
1, 102012, Note_off_c, 0, 77, 62
1, 102015, Note_off_c, 0, 58, 64
1, 102032, Note_off_c, 0, 46, 63
1, 102032, Note_off_c, 0, 82, 66
1, 102047, Note_on_c, 0, 70, 73
1, 102071, Note_off_c, 0, 70, 70
1, 102126, Note_on_c, 0, 69, 93
1, 102206, Note_on_c, 0, 70, 77
1, 102234, Note_off_c, 0, 69, 62
1, 102274, Note_on_c, 0, 73, 62
1, 102298, Note_off_c, 0, 70, 60
1, 102301, Note_off_c, 0, 73, 65
1, 102309, Note_on_c, 0, 61, 75
1, 102334, Note_off_c, 0, 61, 68
1, 102386, Note_on_c, 0, 65, 80
1, 102447, Control_c, 0, 64, 121
1, 102452, Note_on_c, 0, 58, 79
1, 102457, Note_off_c, 0, 65, 61
1, 102462, Control_c, 0, 64, 96
1, 102477, Control_c, 0, 64, 83
1, 102491, Control_c, 0, 64, 71
1, 102506, Control_c, 0, 64, 61
1, 102509, Note_off_c, 0, 58, 64
1, 102521, Control_c, 0, 64, 16
1, 102526, Note_on_c, 0, 53, 76
1, 102536, Control_c, 0, 64, 0
1, 102571, Note_off_c, 0, 53, 55
1, 102606, Note_on_c, 0, 49, 74
1, 102653, Control_c, 0, 64, 45
1, 102664, Note_on_c, 0, 34, 86
1, 102664, Note_on_c, 0, 22, 87
1, 102667, Note_on_c, 0, 46, 85
1, 102668, Control_c, 0, 64, 81
1, 102683, Control_c, 0, 64, 127
1, 102693, Note_off_c, 0, 49, 64
1, 102713, Note_off_c, 0, 34, 64
1, 102728, Note_off_c, 0, 46, 64
1, 102733, Note_off_c, 0, 22, 60
1, 102772, Control_c, 0, 64, 93
1, 102787, Control_c, 0, 64, 70
1, 102801, Control_c, 0, 64, 50
1, 102816, Control_c, 0, 64, 0
1, 103988, Control_c, 0, 64, 13
1, 104003, Control_c, 0, 64, 31
1, 104018, Control_c, 0, 64, 38
1, 104033, Control_c, 0, 64, 40
1, 104047, Control_c, 0, 64, 43
1, 104063, Control_c, 0, 64, 46
1, 104078, Control_c, 0, 64, 50
1, 104092, Control_c, 0, 64, 52
1, 104107, Control_c, 0, 64, 54
1, 104122, Control_c, 0, 64, 56
1, 104137, Control_c, 0, 64, 57
1, 104152, Control_c, 0, 64, 58
1, 104167, Control_c, 0, 64, 60
1, 104182, Control_c, 0, 64, 61
1, 104197, Control_c, 0, 64, 62
1, 104211, Control_c, 0, 64, 62
1, 104226, Control_c, 0, 64, 63
1, 104241, Control_c, 0, 64, 64
1, 104256, Control_c, 0, 64, 65
1, 104271, Control_c, 0, 64, 65
1, 104285, Control_c, 0, 64, 66
1, 104300, Control_c, 0, 64, 67
1, 104315, Control_c, 0, 64, 69
1, 104329, Control_c, 0, 64, 70
1, 104344, Control_c, 0, 64, 71
1, 104359, Control_c, 0, 64, 73
1, 104374, Control_c, 0, 64, 74
1, 104389, Control_c, 0, 64, 75
1, 104403, Control_c, 0, 64, 76
1, 104418, Control_c, 0, 64, 77
1, 104433, Control_c, 0, 64, 79
1, 104448, Control_c, 0, 64, 83
1, 104463, Control_c, 0, 64, 86
1, 104477, Control_c, 0, 64, 91
1, 104492, Control_c, 0, 64, 96
1, 104507, Control_c, 0, 64, 100
1, 104530, Control_c, 0, 64, 105
1, 104545, Control_c, 0, 64, 111
1, 104560, Control_c, 0, 64, 127
1, 104829, Note_on_c, 0, 70, 47
1, 104841, Note_on_c, 0, 66, 35
1, 104853, Note_on_c, 0, 62, 20
1, 105383, Note_on_c, 0, 61, 29
1, 105386, Note_on_c, 0, 46, 32
1, 105392, Note_on_c, 0, 65, 32
1, 105399, Note_on_c, 0, 53, 28
1, 105480, Note_off_c, 0, 70, 40
1, 105505, Note_off_c, 0, 53, 52
1, 105533, Note_off_c, 0, 46, 54
1, 105556, Note_off_c, 0, 65, 41
1, 105578, Note_off_c, 0, 62, 37
1, 105584, Note_off_c, 0, 66, 38
1, 105654, Note_off_c, 0, 61, 38
1, 105820, Note_on_c, 0, 34, 38
1, 105828, Note_on_c, 0, 41, 34
1, 105830, Note_on_c, 0, 65, 53
1, 105845, Note_on_c, 0, 64, 45
1, 105848, Note_on_c, 0, 60, 26
1, 106030, Note_off_c, 0, 41, 41
1, 106042, Note_off_c, 0, 65, 61
1, 106052, Note_on_c, 0, 59, 49
1, 106052, Note_on_c, 0, 63, 62
1, 106058, Note_off_c, 0, 60, 42
1, 106059, Note_off_c, 0, 34, 42
1, 106080, Note_off_c, 0, 64, 62
1, 106082, Note_off_c, 0, 59, 64
1, 106119, Note_off_c, 0, 63, 57
1, 106250, Control_c, 0, 64, 121
1, 106265, Control_c, 0, 64, 102
1, 106280, Control_c, 0, 64, 87
1, 106281, Note_on_c, 0, 70, 71
1, 106295, Note_on_c, 0, 58, 50
1, 106295, Control_c, 0, 64, 72
1, 106298, Note_on_c, 0, 66, 59
1, 106308, Control_c, 0, 64, 59
1, 106323, Control_c, 0, 64, 26
1, 106325, Note_on_c, 0, 62, 27
1, 106338, Control_c, 0, 64, 0
1, 106352, Control_c, 0, 64, 17
1, 106367, Control_c, 0, 64, 33
1, 106382, Control_c, 0, 64, 47
1, 106396, Control_c, 0, 64, 55
1, 106411, Control_c, 0, 64, 60
1, 106426, Control_c, 0, 64, 64
1, 106441, Control_c, 0, 64, 68
1, 106456, Control_c, 0, 64, 76
1, 106471, Control_c, 0, 64, 87
1, 106486, Control_c, 0, 64, 104
1, 106488, Note_off_c, 0, 62, 42
1, 106501, Control_c, 0, 64, 127
1, 106760, Note_on_c, 0, 61, 34
1, 106781, Note_on_c, 0, 65, 35
1, 106791, Note_on_c, 0, 46, 31
1, 106805, Note_on_c, 0, 53, 32
1, 106913, Note_off_c, 0, 70, 57
1, 106927, Note_off_c, 0, 53, 54
1, 106971, Note_off_c, 0, 46, 52
1, 106980, Note_off_c, 0, 65, 39
1, 106980, Note_off_c, 0, 66, 49
1, 106992, Note_off_c, 0, 58, 47
1, 107094, Note_off_c, 0, 61, 38
1, 107278, Note_on_c, 0, 34, 33
1, 107283, Note_on_c, 0, 41, 36
1, 107300, Note_on_c, 0, 60, 25
1, 107309, Note_on_c, 0, 64, 37
1, 107309, Note_on_c, 0, 65, 38
1, 107462, Note_off_c, 0, 34, 40
1, 107509, Note_off_c, 0, 41, 39
1, 107535, Note_off_c, 0, 65, 53
1, 107578, Note_on_c, 0, 59, 36
1, 107580, Note_on_c, 0, 63, 46
1, 107587, Note_off_c, 0, 60, 49
1, 107611, Note_off_c, 0, 64, 54
1, 107614, Note_off_c, 0, 59, 62
1, 107673, Note_off_c, 0, 63, 54
1, 107792, Control_c, 0, 64, 116
1, 107806, Control_c, 0, 64, 110
1, 107821, Control_c, 0, 64, 107
1, 107836, Control_c, 0, 64, 103
1, 107851, Control_c, 0, 64, 94
1, 107866, Control_c, 0, 64, 81
1, 107881, Control_c, 0, 64, 68
1, 107886, Note_on_c, 0, 53, 65
1, 107890, Note_on_c, 0, 46, 43
1, 107892, Note_on_c, 0, 70, 52
1, 107896, Control_c, 0, 64, 57
1, 107899, Note_on_c, 0, 66, 43
1, 107911, Control_c, 0, 64, 47
1, 107925, Control_c, 0, 64, 52
1, 107932, Note_on_c, 0, 58, 19
1, 107940, Control_c, 0, 64, 59
1, 107955, Control_c, 0, 64, 63
1, 107970, Control_c, 0, 64, 68
1, 107985, Control_c, 0, 64, 79
1, 107999, Control_c, 0, 64, 111
1, 108014, Control_c, 0, 64, 127
1, 108030, Note_off_c, 0, 70, 60
1, 108041, Note_off_c, 0, 53, 61
1, 108053, Note_off_c, 0, 66, 58
1, 108092, Note_off_c, 0, 46, 52
1, 108131, Note_off_c, 0, 58, 41
1, 108271, Note_on_c, 0, 58, 59
1, 108318, Control_c, 0, 64, 110
1, 108332, Control_c, 0, 64, 88
1, 108347, Control_c, 0, 64, 72
1, 108362, Control_c, 0, 64, 60
1, 108376, Control_c, 0, 64, 39
1, 108379, Note_on_c, 0, 34, 37
1, 108379, Note_on_c, 0, 57, 68
1, 108391, Control_c, 0, 64, 42
1, 108397, Note_on_c, 0, 41, 30
1, 108406, Note_on_c, 0, 65, 41
1, 108406, Control_c, 0, 64, 54
1, 108421, Control_c, 0, 64, 60
1, 108428, Note_off_c, 0, 58, 58
1, 108436, Control_c, 0, 64, 63
1, 108450, Control_c, 0, 64, 68
1, 108465, Control_c, 0, 64, 75
1, 108473, Note_on_c, 0, 61, 20
1, 108480, Control_c, 0, 64, 91
1, 108495, Control_c, 0, 64, 127
1, 108501, Note_off_c, 0, 34, 49
1, 108514, Note_off_c, 0, 41, 48
1, 108563, Note_on_c, 0, 58, 83
1, 108563, Note_off_c, 0, 65, 35
1, 108597, Note_off_c, 0, 57, 63
1, 108662, Note_off_c, 0, 61, 39
1, 108793, Control_c, 0, 64, 108
1, 108794, Note_on_c, 0, 60, 76
1, 108807, Control_c, 0, 64, 96
1, 108808, Note_on_c, 0, 64, 51
1, 108822, Control_c, 0, 64, 85
1, 108825, Note_on_c, 0, 59, 37
1, 108833, Note_on_c, 0, 65, 42
1, 108837, Control_c, 0, 64, 75
1, 108852, Control_c, 0, 64, 68
1, 108860, Note_off_c, 0, 59, 33
1, 108867, Control_c, 0, 64, 61
1, 108881, Control_c, 0, 64, 58
1, 108896, Control_c, 0, 64, 60
1, 108911, Control_c, 0, 64, 62
1, 108926, Control_c, 0, 64, 63
1, 108941, Control_c, 0, 64, 64
1, 108943, Note_off_c, 0, 58, 49
1, 108955, Control_c, 0, 64, 66
1, 108970, Control_c, 0, 64, 69
1, 108985, Control_c, 0, 64, 75
1, 108999, Control_c, 0, 64, 87
1, 109006, Note_off_c, 0, 65, 59
1, 109014, Control_c, 0, 64, 127
1, 109054, Note_on_c, 0, 59, 46
1, 109063, Note_on_c, 0, 63, 59
1, 109088, Note_off_c, 0, 60, 55
1, 109110, Note_off_c, 0, 64, 60
1, 109303, Control_c, 0, 64, 113
1, 109318, Control_c, 0, 64, 95
1, 109333, Control_c, 0, 64, 78
1, 109345, Note_on_c, 0, 62, 71
1, 109348, Control_c, 0, 64, 64
1, 109362, Note_on_c, 0, 46, 33
1, 109363, Control_c, 0, 64, 49
1, 109367, Note_on_c, 0, 70, 44
1, 109370, Note_on_c, 0, 53, 35
1, 109377, Control_c, 0, 64, 41
1, 109379, Note_off_c, 0, 59, 39
1, 109392, Control_c, 0, 64, 45
1, 109407, Control_c, 0, 64, 51
1, 109421, Note_off_c, 0, 70, 57
1, 109422, Control_c, 0, 64, 57
1, 109437, Control_c, 0, 64, 63
1, 109452, Control_c, 0, 64, 66
1, 109457, Note_off_c, 0, 63, 52
1, 109467, Control_c, 0, 64, 72
1, 109476, Note_off_c, 0, 53, 57
1, 109482, Control_c, 0, 64, 82
1, 109496, Control_c, 0, 64, 103
1, 109511, Control_c, 0, 64, 127
1, 109531, Note_off_c, 0, 46, 48
1, 109545, Note_off_c, 0, 62, 63
1, 109777, Note_on_c, 0, 58, 68
1, 109839, Note_on_c, 0, 65, 43
1, 109881, Note_on_c, 0, 53, 74
1, 109889, Control_c, 0, 64, 100
1, 109901, Note_on_c, 0, 34, 42
1, 109903, Control_c, 0, 64, 78
1, 109907, Note_off_c, 0, 53, 68
1, 109909, Note_on_c, 0, 46, 42
1, 109914, Note_on_c, 0, 41, 38
1, 109918, Control_c, 0, 64, 65
1, 109933, Control_c, 0, 64, 50
1, 109948, Control_c, 0, 64, 37
1, 109963, Control_c, 0, 64, 41
1, 109977, Control_c, 0, 64, 48
1, 109992, Control_c, 0, 64, 56
1, 110007, Control_c, 0, 64, 62
1, 110021, Control_c, 0, 64, 66
1, 110036, Control_c, 0, 64, 74
1, 110047, Note_off_c, 0, 58, 59
1, 110051, Control_c, 0, 64, 94
1, 110066, Control_c, 0, 64, 127
1, 110090, Note_off_c, 0, 34, 40
1, 110101, Note_off_c, 0, 46, 61
1, 110127, Note_off_c, 0, 65, 35
1, 110144, Note_off_c, 0, 41, 40
1, 110286, Note_on_c, 0, 44, 57
1, 110287, Note_on_c, 0, 32, 44
1, 110293, Note_on_c, 0, 60, 61
1, 110297, Note_on_c, 0, 64, 58
1, 110306, Note_on_c, 0, 65, 52
1, 110364, Note_off_c, 0, 32, 55
1, 110400, Note_off_c, 0, 44, 62
1, 110447, Note_off_c, 0, 65, 51
1, 110489, Note_on_c, 0, 59, 74
1, 110498, Note_on_c, 0, 63, 75
1, 110534, Note_off_c, 0, 60, 63
1, 110546, Note_off_c, 0, 64, 62
1, 110652, Control_c, 0, 64, 119
1, 110667, Control_c, 0, 64, 115
1, 110682, Control_c, 0, 64, 110
1, 110697, Control_c, 0, 64, 100
1, 110712, Control_c, 0, 64, 86
1, 110726, Control_c, 0, 64, 71
1, 110741, Control_c, 0, 64, 55
1, 110756, Control_c, 0, 64, 24
1, 110769, Note_on_c, 0, 44, 34
1, 110770, Control_c, 0, 64, 0
1, 110772, Note_on_c, 0, 53, 37
1, 110775, Note_on_c, 0, 62, 63
1, 110778, Note_off_c, 0, 59, 59
1, 110793, Note_on_c, 0, 70, 38
1, 110800, Control_c, 0, 64, 9
1, 110814, Note_off_c, 0, 63, 58
1, 110815, Control_c, 0, 64, 21
1, 110830, Control_c, 0, 64, 37
1, 110836, Note_off_c, 0, 70, 53
1, 110844, Control_c, 0, 64, 52
1, 110859, Control_c, 0, 64, 61
1, 110867, Note_off_c, 0, 53, 54
1, 110874, Control_c, 0, 64, 68
1, 110889, Control_c, 0, 64, 77
1, 110904, Control_c, 0, 64, 104
1, 110920, Control_c, 0, 64, 127
1, 110922, Note_off_c, 0, 62, 63
1, 110955, Note_off_c, 0, 44, 40
1, 111190, Note_on_c, 0, 58, 48
1, 111297, Control_c, 0, 64, 118
1, 111312, Control_c, 0, 64, 110
1, 111327, Control_c, 0, 64, 102
1, 111342, Control_c, 0, 64, 91
1, 111351, Note_on_c, 0, 53, 56
1, 111357, Note_on_c, 0, 31, 32
1, 111357, Control_c, 0, 64, 77
1, 111370, Note_on_c, 0, 65, 7
1, 111372, Control_c, 0, 64, 66
1, 111386, Control_c, 0, 64, 50
1, 111401, Control_c, 0, 64, 40
1, 111404, Note_on_c, 0, 61, 27
1, 111416, Control_c, 0, 64, 42
1, 111421, Note_off_c, 0, 58, 37
1, 111431, Control_c, 0, 64, 49
1, 111446, Control_c, 0, 64, 56
1, 111461, Control_c, 0, 64, 62
1, 111475, Control_c, 0, 64, 66
1, 111490, Control_c, 0, 64, 70
1, 111505, Control_c, 0, 64, 77
1, 111520, Control_c, 0, 64, 88
1, 111535, Control_c, 0, 64, 105
1, 111550, Control_c, 0, 64, 127
1, 111589, Note_off_c, 0, 61, 37
1, 111644, Note_off_c, 0, 65, 39
1, 111683, Control_c, 0, 64, 123
1, 111698, Control_c, 0, 64, 117
1, 111714, Control_c, 0, 64, 115
1, 111744, Control_c, 0, 64, 116
1, 111755, Note_off_c, 0, 31, 38
1, 111759, Control_c, 0, 64, 119
1, 111773, Note_on_c, 0, 30, 36
1, 111773, Control_c, 0, 64, 127
1, 111800, Note_on_c, 0, 65, 23
1, 111814, Note_on_c, 0, 60, 35
1, 111815, Note_on_c, 0, 64, 36
1, 111830, Note_off_c, 0, 53, 34
1, 111925, Note_off_c, 0, 30, 34
1, 111990, Note_off_c, 0, 65, 39
1, 112043, Note_on_c, 0, 63, 44
1, 112044, Note_off_c, 0, 60, 41
1, 112045, Note_off_c, 0, 64, 39
1, 112050, Note_on_c, 0, 59, 45
1, 112070, Note_off_c, 0, 63, 59
1, 112087, Note_off_c, 0, 59, 61
1, 112210, Control_c, 0, 64, 123
1, 112224, Control_c, 0, 64, 110
1, 112239, Control_c, 0, 64, 100
1, 112254, Control_c, 0, 64, 88
1, 112269, Control_c, 0, 64, 75
1, 112284, Control_c, 0, 64, 63
1, 112292, Note_on_c, 0, 65, 70
1, 112299, Note_on_c, 0, 41, 27
1, 112299, Control_c, 0, 64, 48
1, 112311, Note_on_c, 0, 48, 11
1, 112312, Note_on_c, 0, 57, 45
1, 112314, Control_c, 0, 64, 41
1, 112316, Note_on_c, 0, 61, 53
1, 112328, Control_c, 0, 64, 47
1, 112343, Control_c, 0, 64, 52
1, 112358, Control_c, 0, 64, 57
1, 112373, Control_c, 0, 64, 61
1, 112388, Control_c, 0, 64, 64
1, 112403, Control_c, 0, 64, 67
1, 112417, Control_c, 0, 64, 72
1, 112427, Note_off_c, 0, 48, 57
1, 112432, Control_c, 0, 64, 79
1, 112447, Control_c, 0, 64, 88
1, 112452, Note_off_c, 0, 41, 50
1, 112462, Control_c, 0, 64, 99
1, 112477, Control_c, 0, 64, 112
1, 112491, Control_c, 0, 64, 119
1, 112537, Control_c, 0, 64, 118
1, 112552, Control_c, 0, 64, 117
1, 112567, Control_c, 0, 64, 115
1, 112582, Control_c, 0, 64, 113
1, 112596, Control_c, 0, 64, 112
1, 112611, Control_c, 0, 64, 110
1, 112626, Control_c, 0, 64, 108
1, 112640, Control_c, 0, 64, 106
1, 112655, Control_c, 0, 64, 104
1, 112670, Control_c, 0, 64, 102
1, 112685, Control_c, 0, 64, 99
1, 112700, Control_c, 0, 64, 87
1, 112714, Control_c, 0, 64, 74
1, 112725, Note_on_c, 0, 56, 41
1, 112729, Control_c, 0, 64, 63
1, 112737, Note_on_c, 0, 41, 39
1, 112738, Note_on_c, 0, 29, 35
1, 112744, Control_c, 0, 64, 49
1, 112754, Note_on_c, 0, 60, 37
1, 112767, Control_c, 0, 64, 40
1, 112782, Control_c, 0, 64, 43
1, 112789, Note_off_c, 0, 57, 31
1, 112796, Control_c, 0, 64, 50
1, 112811, Control_c, 0, 64, 57
1, 112826, Control_c, 0, 64, 62
1, 112840, Note_off_c, 0, 29, 58
1, 112840, Control_c, 0, 64, 65
1, 112855, Control_c, 0, 64, 70
1, 112861, Note_off_c, 0, 61, 31
1, 112870, Control_c, 0, 64, 78
1, 112885, Control_c, 0, 64, 100
1, 112886, Note_off_c, 0, 41, 64
1, 112900, Control_c, 0, 64, 127
1, 112957, Note_off_c, 0, 56, 42
1, 112966, Note_off_c, 0, 60, 63
1, 112975, Note_off_c, 0, 65, 55
1, 113190, Note_on_c, 0, 60, 49
1, 113210, Note_on_c, 0, 48, 13
1, 113388, Note_off_c, 0, 48, 39
1, 113398, Note_off_c, 0, 60, 63
1, 113411, Note_on_c, 0, 54, 51
1, 113442, Note_off_c, 0, 54, 65
1, 113618, Control_c, 0, 64, 123
1, 113633, Control_c, 0, 64, 111
1, 113648, Control_c, 0, 64, 101
1, 113663, Control_c, 0, 64, 88
1, 113675, Note_on_c, 0, 41, 39
1, 113677, Control_c, 0, 64, 75
1, 113680, Note_on_c, 0, 65, 48
1, 113692, Control_c, 0, 64, 64
1, 113699, Note_on_c, 0, 58, 27
1, 113704, Note_on_c, 0, 62, 35
1, 113707, Control_c, 0, 64, 49
1, 113722, Control_c, 0, 64, 42
1, 113737, Control_c, 0, 64, 45
1, 113751, Control_c, 0, 64, 51
1, 113766, Control_c, 0, 64, 57
1, 113781, Control_c, 0, 64, 61
1, 113796, Control_c, 0, 64, 65
1, 113810, Control_c, 0, 64, 69
1, 113825, Control_c, 0, 64, 76
1, 113834, Note_off_c, 0, 41, 56
1, 113840, Control_c, 0, 64, 87
1, 113855, Control_c, 0, 64, 106
1, 113870, Control_c, 0, 64, 127
1, 114138, Control_c, 0, 64, 116
1, 114153, Control_c, 0, 64, 111
1, 114167, Control_c, 0, 64, 107
1, 114182, Control_c, 0, 64, 104
1, 114192, Note_on_c, 0, 61, 39
1, 114197, Control_c, 0, 64, 99
1, 114197, Note_on_c, 0, 41, 24
1, 114200, Note_on_c, 0, 57, 34
1, 114202, Note_on_c, 0, 29, 28
1, 114212, Control_c, 0, 64, 90
1, 114227, Control_c, 0, 64, 77
1, 114241, Control_c, 0, 64, 65
1, 114256, Control_c, 0, 64, 48
1, 114278, Control_c, 0, 64, 33
1, 114288, Note_off_c, 0, 58, 37
1, 114293, Control_c, 0, 64, 39
1, 114296, Note_off_c, 0, 62, 36
1, 114308, Control_c, 0, 64, 49
1, 114323, Control_c, 0, 64, 57
1, 114338, Control_c, 0, 64, 62
1, 114344, Note_off_c, 0, 29, 52
1, 114352, Control_c, 0, 64, 66
1, 114367, Control_c, 0, 64, 72
1, 114382, Control_c, 0, 64, 82
1, 114397, Control_c, 0, 64, 100
1, 114412, Control_c, 0, 64, 127
1, 114412, Note_off_c, 0, 41, 51
1, 114445, Note_off_c, 0, 57, 41
1, 114462, Note_off_c, 0, 61, 61
1, 114480, Note_off_c, 0, 65, 52
1, 114782, Control_c, 0, 64, 118
1, 114785, Note_on_c, 0, 41, 27
1, 114797, Control_c, 0, 64, 110
1, 114804, Note_on_c, 0, 51, 31
1, 114808, Note_on_c, 0, 60, 29
1, 114811, Control_c, 0, 64, 104
1, 114812, Note_on_c, 0, 69, 51
1, 114826, Control_c, 0, 64, 100
1, 114841, Control_c, 0, 64, 99
1, 114856, Control_c, 0, 64, 99
1, 114871, Control_c, 0, 64, 98
1, 114885, Control_c, 0, 64, 97
1, 114900, Control_c, 0, 64, 95
1, 114916, Control_c, 0, 64, 93
1, 114931, Control_c, 0, 64, 91
1, 114946, Control_c, 0, 64, 89
1, 114961, Control_c, 0, 64, 88
1, 114975, Control_c, 0, 64, 86
1, 114990, Control_c, 0, 64, 85
1, 115012, Control_c, 0, 64, 84
1, 115027, Control_c, 0, 64, 82
1, 115042, Control_c, 0, 64, 79
1, 115057, Control_c, 0, 64, 76
1, 115071, Control_c, 0, 64, 72
1, 115086, Control_c, 0, 64, 68
1, 115101, Control_c, 0, 64, 62
1, 115116, Control_c, 0, 64, 52
1, 115130, Control_c, 0, 64, 45
1, 115145, Control_c, 0, 64, 44
1, 115160, Control_c, 0, 64, 45
1, 115163, Note_on_c, 0, 53, 40
1, 115166, Note_on_c, 0, 72, 69
1, 115174, Note_on_c, 0, 63, 39
1, 115175, Control_c, 0, 64, 46
1, 115190, Control_c, 0, 64, 48
1, 115205, Control_c, 0, 64, 52
1, 115220, Control_c, 0, 64, 56
1, 115235, Control_c, 0, 64, 60
1, 115249, Control_c, 0, 64, 63
1, 115264, Control_c, 0, 64, 66
1, 115276, Note_off_c, 0, 51, 48
1, 115277, Note_off_c, 0, 60, 42
1, 115278, Note_off_c, 0, 69, 50
1, 115279, Control_c, 0, 64, 72
1, 115294, Control_c, 0, 64, 81
1, 115297, Note_off_c, 0, 41, 42
1, 115309, Control_c, 0, 64, 100
1, 115318, Note_off_c, 0, 72, 62
1, 115324, Control_c, 0, 64, 127
1, 115464, Note_off_c, 0, 53, 42
1, 115499, Note_off_c, 0, 63, 33
1, 115502, Control_c, 0, 64, 117
1, 115516, Control_c, 0, 64, 106
1, 115531, Control_c, 0, 64, 98
1, 115546, Control_c, 0, 64, 93
1, 115560, Note_on_c, 0, 70, 75
1, 115561, Control_c, 0, 64, 90
1, 115576, Control_c, 0, 64, 86
1, 115581, Note_on_c, 0, 66, 55
1, 115584, Note_on_c, 0, 62, 43
1, 115590, Control_c, 0, 64, 83
1, 115605, Control_c, 0, 64, 79
1, 115620, Control_c, 0, 64, 76
1, 115634, Control_c, 0, 64, 73
1, 115649, Control_c, 0, 64, 71
1, 115664, Control_c, 0, 64, 69
1, 115679, Control_c, 0, 64, 67
1, 115694, Control_c, 0, 64, 65
1, 115710, Control_c, 0, 64, 64
1, 115725, Control_c, 0, 64, 63
1, 115739, Control_c, 0, 64, 62
1, 115762, Control_c, 0, 64, 61
1, 115777, Control_c, 0, 64, 59
1, 115792, Control_c, 0, 64, 56
1, 115807, Control_c, 0, 64, 53
1, 115821, Control_c, 0, 64, 49
1, 115836, Control_c, 0, 64, 43
1, 115851, Control_c, 0, 64, 38
1, 115865, Control_c, 0, 64, 33
1, 115880, Control_c, 0, 64, 33
1, 115925, Control_c, 0, 64, 34
1, 115939, Control_c, 0, 64, 37
1, 115954, Control_c, 0, 64, 42
1, 115969, Control_c, 0, 64, 47
1, 115984, Control_c, 0, 64, 51
1, 115999, Control_c, 0, 64, 54
1, 116013, Control_c, 0, 64, 56
1, 116028, Control_c, 0, 64, 58
1, 116043, Control_c, 0, 64, 60
1, 116058, Control_c, 0, 64, 62
1, 116072, Control_c, 0, 64, 63
1, 116087, Control_c, 0, 64, 64
1, 116102, Control_c, 0, 64, 65
1, 116105, Note_on_c, 0, 53, 39
1, 116109, Note_on_c, 0, 46, 31
1, 116117, Control_c, 0, 64, 67
1, 116120, Note_on_c, 0, 61, 30
1, 116121, Note_on_c, 0, 65, 35
1, 116132, Control_c, 0, 64, 71
1, 116147, Control_c, 0, 64, 77
1, 116162, Control_c, 0, 64, 86
1, 116177, Control_c, 0, 64, 98
1, 116182, Note_off_c, 0, 70, 50
1, 116192, Control_c, 0, 64, 127
1, 116244, Note_off_c, 0, 53, 51
1, 116266, Note_off_c, 0, 62, 33
1, 116280, Note_off_c, 0, 46, 54
1, 116284, Note_off_c, 0, 66, 33
1, 116308, Note_off_c, 0, 65, 33
1, 116379, Note_off_c, 0, 61, 38
1, 116549, Note_on_c, 0, 65, 50
1, 116552, Note_on_c, 0, 34, 45
1, 116561, Note_on_c, 0, 41, 44
1, 116569, Note_on_c, 0, 64, 47
1, 116582, Note_on_c, 0, 60, 31
1, 116695, Note_off_c, 0, 41, 59
1, 116698, Note_off_c, 0, 34, 33
1, 116728, Note_off_c, 0, 65, 59
1, 116754, Note_off_c, 0, 60, 52
1, 116762, Note_on_c, 0, 63, 58
1, 116765, Note_on_c, 0, 59, 42
1, 116773, Note_off_c, 0, 64, 60
1, 116791, Note_off_c, 0, 59, 58
1, 116833, Note_off_c, 0, 63, 53
1, 116910, Control_c, 0, 64, 117
1, 116925, Control_c, 0, 64, 107
1, 116940, Control_c, 0, 64, 94
1, 116955, Control_c, 0, 64, 78
1, 116970, Control_c, 0, 64, 65
1, 116983, Note_on_c, 0, 53, 73
1, 116985, Control_c, 0, 64, 49
1, 116988, Note_on_c, 0, 46, 50
1, 117000, Control_c, 0, 64, 45
1, 117000, Note_on_c, 0, 70, 60
1, 117014, Control_c, 0, 64, 51
1, 117014, Note_on_c, 0, 66, 47
1, 117018, Note_on_c, 0, 58, 32
1, 117029, Control_c, 0, 64, 56
1, 117044, Control_c, 0, 64, 61
1, 117059, Control_c, 0, 64, 65
1, 117074, Control_c, 0, 64, 71
1, 117088, Control_c, 0, 64, 82
1, 117103, Control_c, 0, 64, 107
1, 117118, Control_c, 0, 64, 127
1, 117123, Note_off_c, 0, 70, 60
1, 117129, Note_off_c, 0, 53, 64
1, 117149, Note_off_c, 0, 66, 58
1, 117167, Note_off_c, 0, 46, 63
1, 117226, Note_off_c, 0, 58, 46
1, 117321, Note_on_c, 0, 58, 64
1, 117408, Control_c, 0, 64, 92
1, 117418, Note_on_c, 0, 57, 75
1, 117423, Control_c, 0, 64, 72
1, 117430, Note_on_c, 0, 34, 44
1, 117438, Control_c, 0, 64, 59
1, 117447, Note_on_c, 0, 41, 40
1, 117453, Control_c, 0, 64, 47
1, 117467, Control_c, 0, 64, 53
1, 117473, Note_off_c, 0, 58, 59
1, 117482, Control_c, 0, 64, 60
1, 117497, Control_c, 0, 64, 64
1, 117511, Control_c, 0, 64, 70
1, 117526, Control_c, 0, 64, 80
1, 117536, Poly_aftertouch_c, 0, 61, 127
1, 117539, Control_c, 0, 64, 117
1, 117554, Control_c, 0, 64, 127
1, 117570, Note_off_c, 0, 41, 49
1, 117589, Note_off_c, 0, 34, 36
1, 117605, Poly_aftertouch_c, 0, 61, 0
1, 117612, Note_on_c, 0, 58, 89
1, 117642, Note_off_c, 0, 57, 64
1, 117835, Note_on_c, 0, 60, 85
1, 117835, Control_c, 0, 64, 101
1, 117850, Control_c, 0, 64, 88
1, 117865, Control_c, 0, 64, 79
1, 117871, Note_on_c, 0, 64, 57
1, 117874, Note_on_c, 0, 65, 55
1, 117880, Control_c, 0, 64, 71
1, 117895, Control_c, 0, 64, 64
1, 117909, Control_c, 0, 64, 59
1, 117924, Control_c, 0, 64, 58
1, 117939, Control_c, 0, 64, 59
1, 117969, Control_c, 0, 64, 60
1, 117983, Note_off_c, 0, 58, 34
1, 117983, Control_c, 0, 64, 62
1, 117998, Control_c, 0, 64, 64
1, 118021, Control_c, 0, 64, 66
1, 118035, Control_c, 0, 64, 69
1, 118050, Control_c, 0, 64, 75
1, 118065, Control_c, 0, 64, 85
1, 118080, Control_c, 0, 64, 106
1, 118087, Note_off_c, 0, 65, 56
1, 118095, Control_c, 0, 64, 127
1, 118118, Note_on_c, 0, 63, 60
1, 118118, Note_off_c, 0, 60, 53
1, 118120, Note_on_c, 0, 59, 47
1, 118150, Note_off_c, 0, 64, 60
1, 118347, Control_c, 0, 64, 100
1, 118362, Control_c, 0, 64, 80
1, 118377, Control_c, 0, 64, 63
1, 118392, Note_off_c, 0, 59, 58
1, 118392, Control_c, 0, 64, 45
1, 118393, Note_on_c, 0, 46, 40
1, 118393, Note_on_c, 0, 62, 75
1, 118403, Note_on_c, 0, 70, 59
1, 118407, Control_c, 0, 64, 35
1, 118418, Note_on_c, 0, 53, 37
1, 118421, Control_c, 0, 64, 39
1, 118436, Control_c, 0, 64, 46
1, 118451, Control_c, 0, 64, 54
1, 118461, Note_on_c, 0, 66, 12
1, 118466, Control_c, 0, 64, 61
1, 118473, Note_off_c, 0, 63, 52
1, 118473, Note_off_c, 0, 70, 62
1, 118481, Control_c, 0, 64, 65
1, 118496, Control_c, 0, 64, 70
1, 118505, Note_off_c, 0, 66, 46
1, 118511, Control_c, 0, 64, 78
1, 118523, Note_off_c, 0, 53, 56
1, 118525, Control_c, 0, 64, 95
1, 118540, Control_c, 0, 64, 127
1, 118577, Note_off_c, 0, 46, 51
1, 118577, Note_off_c, 0, 62, 62
1, 118854, Note_on_c, 0, 58, 59
1, 118978, Control_c, 0, 64, 103
1, 118981, Note_on_c, 0, 53, 64
1, 118986, Note_on_c, 0, 34, 41
1, 118993, Control_c, 0, 64, 84
1, 118994, Note_on_c, 0, 46, 43
1, 118999, Note_on_c, 0, 41, 34
1, 119008, Control_c, 0, 64, 70
1, 119023, Control_c, 0, 64, 57
1, 119033, Poly_aftertouch_c, 0, 65, 127
1, 119038, Control_c, 0, 64, 47
1, 119049, Note_off_c, 0, 58, 54
1, 119053, Control_c, 0, 64, 50
1, 119068, Control_c, 0, 64, 55
1, 119082, Control_c, 0, 64, 59
1, 119097, Control_c, 0, 64, 62
1, 119105, Poly_aftertouch_c, 0, 61, 127
1, 119112, Control_c, 0, 64, 65
1, 119127, Control_c, 0, 64, 72
1, 119137, Poly_aftertouch_c, 0, 61, 0
1, 119142, Control_c, 0, 64, 83
1, 119156, Control_c, 0, 64, 104
1, 119171, Control_c, 0, 64, 127
1, 119185, Poly_aftertouch_c, 0, 65, 0
1, 119187, Note_off_c, 0, 34, 39
1, 119213, Note_off_c, 0, 46, 49
1, 119371, Note_off_c, 0, 53, 56
1, 119385, Note_on_c, 0, 32, 47
1, 119385, Note_on_c, 0, 64, 52
1, 119389, Note_on_c, 0, 60, 50
1, 119392, Note_off_c, 0, 41, 41
1, 119397, Note_on_c, 0, 44, 62
1, 119414, Note_on_c, 0, 65, 31
1, 119468, Note_off_c, 0, 32, 57
1, 119515, Note_off_c, 0, 65, 31
1, 119533, Note_off_c, 0, 44, 63
1, 119593, Note_on_c, 0, 59, 68
1, 119599, Note_on_c, 0, 63, 74
1, 119632, Note_off_c, 0, 60, 63
1, 119650, Note_off_c, 0, 64, 62
1, 119772, Control_c, 0, 64, 94
1, 119786, Control_c, 0, 64, 75
1, 119801, Control_c, 0, 64, 64
1, 119816, Control_c, 0, 64, 56
1, 119819, Note_on_c, 0, 53, 59
1, 119824, Note_on_c, 0, 44, 50
1, 119831, Control_c, 0, 64, 55
1, 119832, Note_on_c, 0, 62, 86
1, 119846, Note_on_c, 0, 70, 60
1, 119846, Control_c, 0, 64, 58
1, 119860, Control_c, 0, 64, 62
1, 119862, Note_off_c, 0, 59, 62
1, 119875, Control_c, 0, 64, 66
1, 119890, Control_c, 0, 64, 71
1, 119891, Note_off_c, 0, 70, 61
1, 119904, Control_c, 0, 64, 83
1, 119919, Control_c, 0, 64, 119
1, 119934, Control_c, 0, 64, 127
1, 119937, Note_off_c, 0, 63, 57
1, 119942, Note_off_c, 0, 53, 62
1, 119988, Note_off_c, 0, 62, 64
1, 119995, Note_off_c, 0, 44, 60
1, 120170, Note_on_c, 0, 58, 83
1, 120284, Note_on_c, 0, 65, 24
1, 120290, Note_on_c, 0, 53, 89
1, 120297, Control_c, 0, 64, 99
1, 120298, Note_on_c, 0, 42, 60
1, 120300, Note_on_c, 0, 30, 49
1, 120311, Control_c, 0, 64, 74
1, 120326, Control_c, 0, 64, 56
1, 120341, Control_c, 0, 64, 28
1, 120356, Control_c, 0, 64, 26
1, 120359, Note_off_c, 0, 30, 56
1, 120371, Control_c, 0, 64, 36
1, 120386, Control_c, 0, 64, 48
1, 120399, Poly_aftertouch_c, 0, 61, 127
1, 120401, Control_c, 0, 64, 58
1, 120415, Note_off_c, 0, 58, 60
1, 120416, Control_c, 0, 64, 64
1, 120431, Control_c, 0, 64, 73
1, 120439, Note_off_c, 0, 42, 56
1, 120439, Poly_aftertouch_c, 0, 61, 0
1, 120445, Control_c, 0, 64, 92
1, 120460, Control_c, 0, 64, 127
1, 120548, Note_off_c, 0, 65, 41
1, 120556, Note_on_c, 0, 42, 30
1, 120670, Note_off_c, 0, 53, 53
1, 120687, Note_on_c, 0, 63, 80
1, 120695, Note_on_c, 0, 48, 50
1, 120695, Note_on_c, 0, 54, 59
1, 120735, Note_on_c, 0, 57, 39
1, 120795, Poly_aftertouch_c, 0, 58, 127
1, 120804, Note_off_c, 0, 54, 62
1, 120828, Poly_aftertouch_c, 0, 58, 0
1, 120831, Note_off_c, 0, 48, 56
1, 120872, Note_off_c, 0, 42, 41
1, 120888, Note_on_c, 0, 60, 80
1, 120907, Note_off_c, 0, 57, 29
1, 120909, Note_off_c, 0, 63, 63
1, 120919, Note_off_c, 0, 60, 66
1, 121134, Control_c, 0, 64, 119
1, 121149, Control_c, 0, 64, 85
1, 121157, Note_on_c, 0, 37, 49
1, 121158, Note_on_c, 0, 73, 90
1, 121161, Note_on_c, 0, 44, 49
1, 121164, Control_c, 0, 64, 65
1, 121179, Note_on_c, 0, 69, 66
1, 121179, Control_c, 0, 64, 47
1, 121187, Note_on_c, 0, 65, 57
1, 121193, Note_on_c, 0, 49, 29
1, 121194, Control_c, 0, 64, 28
1, 121209, Control_c, 0, 64, 32
1, 121223, Control_c, 0, 64, 41
1, 121238, Control_c, 0, 64, 51
1, 121253, Control_c, 0, 64, 58
1, 121268, Control_c, 0, 64, 63
1, 121275, Note_off_c, 0, 49, 60
1, 121283, Control_c, 0, 64, 66
1, 121298, Control_c, 0, 64, 72
1, 121313, Control_c, 0, 64, 82
1, 121328, Control_c, 0, 64, 104
1, 121332, Note_off_c, 0, 44, 62
1, 121339, Note_off_c, 0, 37, 57
1, 121343, Control_c, 0, 64, 127
1, 121565, Control_c, 0, 64, 123
1, 121580, Control_c, 0, 64, 88
1, 121582, Note_on_c, 0, 25, 63
1, 121590, Note_on_c, 0, 64, 48
1, 121595, Control_c, 0, 64, 68
1, 121605, Note_on_c, 0, 68, 48
1, 121610, Control_c, 0, 64, 49
1, 121624, Control_c, 0, 64, 0
1, 121635, Note_off_c, 0, 65, 37
1, 121639, Control_c, 0, 64, 20
1, 121654, Control_c, 0, 64, 38
1, 121669, Control_c, 0, 64, 54
1, 121683, Control_c, 0, 64, 62
1, 121698, Control_c, 0, 64, 67
1, 121713, Control_c, 0, 64, 76
1, 121714, Note_off_c, 0, 25, 60
1, 121728, Control_c, 0, 64, 99
1, 121733, Note_off_c, 0, 73, 60
1, 121743, Control_c, 0, 64, 127
1, 121758, Note_off_c, 0, 69, 36
1, 121778, Note_off_c, 0, 68, 58
1, 121916, Note_off_c, 0, 64, 28
1, 122080, Note_on_c, 0, 56, 70
1, 122081, Note_on_c, 0, 68, 59
1, 122116, Note_on_c, 0, 67, 45
1, 122278, Note_off_c, 0, 67, 58
1, 122291, Note_off_c, 0, 68, 59
1, 122293, Note_on_c, 0, 62, 48
1, 122294, Note_on_c, 0, 66, 54
1, 122403, Control_c, 0, 64, 123
1, 122418, Control_c, 0, 64, 111
1, 122433, Control_c, 0, 64, 106
1, 122447, Control_c, 0, 64, 104
1, 122462, Control_c, 0, 64, 103
1, 122463, Note_off_c, 0, 66, 24
1, 122477, Control_c, 0, 64, 101
1, 122492, Control_c, 0, 64, 98
1, 122514, Control_c, 0, 64, 94
1, 122529, Control_c, 0, 64, 90
1, 122544, Control_c, 0, 64, 85
1, 122545, Note_on_c, 0, 49, 35
1, 122549, Note_off_c, 0, 62, 37
1, 122550, Note_on_c, 0, 73, 62
1, 122559, Control_c, 0, 64, 77
1, 122568, Note_on_c, 0, 69, 53
1, 122571, Note_on_c, 0, 65, 34
1, 122574, Control_c, 0, 64, 67
1, 122588, Control_c, 0, 64, 57
1, 122603, Control_c, 0, 64, 45
1, 122618, Control_c, 0, 64, 44
1, 122633, Control_c, 0, 64, 46
1, 122648, Control_c, 0, 64, 49
1, 122662, Control_c, 0, 64, 55
1, 122677, Control_c, 0, 64, 59
1, 122692, Control_c, 0, 64, 62
1, 122706, Control_c, 0, 64, 65
1, 122718, Note_off_c, 0, 56, 63
1, 122721, Control_c, 0, 64, 67
1, 122736, Control_c, 0, 64, 71
1, 122747, Note_off_c, 0, 49, 63
1, 122751, Control_c, 0, 64, 79
1, 122766, Control_c, 0, 64, 89
1, 122781, Control_c, 0, 64, 101
1, 122796, Control_c, 0, 64, 110
1, 122826, Control_c, 0, 64, 108
1, 122841, Control_c, 0, 64, 107
1, 122855, Control_c, 0, 64, 106
1, 122870, Control_c, 0, 64, 104
1, 122885, Control_c, 0, 64, 102
1, 122901, Control_c, 0, 64, 101
1, 122916, Control_c, 0, 64, 100
1, 122930, Control_c, 0, 64, 99
1, 122945, Control_c, 0, 64, 98
1, 122960, Control_c, 0, 64, 97
1, 122975, Control_c, 0, 64, 96
1, 122990, Control_c, 0, 64, 96
1, 123003, Note_on_c, 0, 37, 37
1, 123004, Control_c, 0, 64, 94
1, 123019, Control_c, 0, 64, 91
1, 123034, Control_c, 0, 64, 83
1, 123035, Note_on_c, 0, 64, 33
1, 123047, Note_on_c, 0, 68, 33
1, 123049, Control_c, 0, 64, 73
1, 123064, Control_c, 0, 64, 63
1, 123078, Control_c, 0, 64, 46
1, 123093, Control_c, 0, 64, 41
1, 123108, Control_c, 0, 64, 48
1, 123110, Note_off_c, 0, 65, 38
1, 123122, Control_c, 0, 64, 57
1, 123137, Control_c, 0, 64, 62
1, 123152, Control_c, 0, 64, 66
1, 123164, Note_off_c, 0, 37, 54
1, 123166, Note_off_c, 0, 73, 59
1, 123167, Control_c, 0, 64, 70
1, 123181, Note_off_c, 0, 69, 42
1, 123182, Control_c, 0, 64, 77
1, 123197, Control_c, 0, 64, 90
1, 123204, Note_off_c, 0, 68, 54
1, 123212, Control_c, 0, 64, 112
1, 123227, Control_c, 0, 64, 127
1, 123265, Note_off_c, 0, 64, 39
1, 123471, Control_c, 0, 64, 117
1, 123486, Control_c, 0, 64, 110
1, 123501, Control_c, 0, 64, 105
1, 123507, Note_on_c, 0, 68, 44
1, 123516, Control_c, 0, 64, 101
1, 123517, Note_on_c, 0, 59, 44
1, 123529, Control_c, 0, 64, 97
1, 123544, Control_c, 0, 64, 91
1, 123546, Note_on_c, 0, 67, 34
1, 123557, Note_on_c, 0, 63, 11
1, 123559, Control_c, 0, 64, 82
1, 123574, Control_c, 0, 64, 72
1, 123589, Control_c, 0, 64, 62
1, 123603, Control_c, 0, 64, 53
1, 123618, Control_c, 0, 64, 54
1, 123633, Control_c, 0, 64, 57
1, 123648, Control_c, 0, 64, 59
1, 123663, Control_c, 0, 64, 62
1, 123677, Control_c, 0, 64, 64
1, 123692, Control_c, 0, 64, 67
1, 123708, Control_c, 0, 64, 69
1, 123723, Control_c, 0, 64, 74
1, 123738, Control_c, 0, 64, 81
1, 123748, Note_off_c, 0, 63, 37
1, 123752, Control_c, 0, 64, 89
1, 123767, Control_c, 0, 64, 97
1, 123773, Note_on_c, 0, 62, 30
1, 123774, Note_on_c, 0, 60, 48
1, 123778, Note_off_c, 0, 59, 57
1, 123782, Control_c, 0, 64, 104
1, 123784, Note_on_c, 0, 66, 35
1, 123789, Note_off_c, 0, 67, 31
1, 123797, Control_c, 0, 64, 106
1, 123832, Note_off_c, 0, 68, 34
1, 123841, Note_off_c, 0, 66, 57
1, 123856, Control_c, 0, 64, 105
1, 123871, Control_c, 0, 64, 103
1, 123886, Control_c, 0, 64, 102
1, 123900, Control_c, 0, 64, 100
1, 123915, Control_c, 0, 64, 99
1, 123930, Control_c, 0, 64, 97
1, 123945, Control_c, 0, 64, 95
1, 123960, Control_c, 0, 64, 93
1, 123975, Control_c, 0, 64, 90
1, 123990, Control_c, 0, 64, 87
1, 124012, Control_c, 0, 64, 84
1, 124013, Note_off_c, 0, 62, 36
1, 124026, Control_c, 0, 64, 82
1, 124041, Control_c, 0, 64, 78
1, 124050, Note_on_c, 0, 65, 33
1, 124056, Control_c, 0, 64, 71
1, 124057, Note_on_c, 0, 73, 42
1, 124059, Note_on_c, 0, 61, 29
1, 124071, Control_c, 0, 64, 64
1, 124076, Note_on_c, 0, 69, 34
1, 124085, Note_off_c, 0, 60, 29
1, 124086, Control_c, 0, 64, 54
1, 124100, Control_c, 0, 64, 43
1, 124115, Control_c, 0, 64, 43
1, 124145, Control_c, 0, 64, 46
1, 124160, Control_c, 0, 64, 51
1, 124175, Control_c, 0, 64, 57
1, 124189, Control_c, 0, 64, 61
1, 124204, Control_c, 0, 64, 65
1, 124219, Control_c, 0, 64, 69
1, 124234, Control_c, 0, 64, 76
1, 124236, Note_off_c, 0, 61, 57
1, 124249, Control_c, 0, 64, 91
1, 124264, Control_c, 0, 64, 111
1, 124278, Control_c, 0, 64, 127
1, 124352, Control_c, 0, 64, 121
1, 124367, Control_c, 0, 64, 116
1, 124382, Control_c, 0, 64, 113
1, 124397, Control_c, 0, 64, 111
1, 124412, Control_c, 0, 64, 108
1, 124426, Control_c, 0, 64, 105
1, 124441, Control_c, 0, 64, 103
1, 124456, Control_c, 0, 64, 101
1, 124470, Control_c, 0, 64, 100
1, 124485, Control_c, 0, 64, 97
1, 124502, Control_c, 0, 64, 95
1, 124517, Control_c, 0, 64, 94
1, 124531, Control_c, 0, 64, 93
1, 124561, Control_c, 0, 64, 92
1, 124575, Control_c, 0, 64, 92
1, 124590, Control_c, 0, 64, 90
1, 124605, Control_c, 0, 64, 89
1, 124620, Control_c, 0, 64, 88
1, 124649, Control_c, 0, 64, 88
1, 124664, Control_c, 0, 64, 87
1, 124679, Control_c, 0, 64, 86
1, 124680, Note_on_c, 0, 68, 31
1, 124685, Note_on_c, 0, 37, 32
1, 124708, Control_c, 0, 64, 86
1, 124711, Note_on_c, 0, 44, 18
1, 124723, Control_c, 0, 64, 85
1, 124738, Control_c, 0, 64, 84
1, 124761, Control_c, 0, 64, 81
1, 124775, Control_c, 0, 64, 77
1, 124790, Control_c, 0, 64, 70
1, 124805, Control_c, 0, 64, 61
1, 124820, Control_c, 0, 64, 50
1, 124835, Control_c, 0, 64, 46
1, 124864, Control_c, 0, 64, 46
1, 124868, Note_off_c, 0, 69, 37
1, 124879, Control_c, 0, 64, 49
1, 124894, Control_c, 0, 64, 54
1, 124908, Control_c, 0, 64, 58
1, 124923, Control_c, 0, 64, 62
1, 124938, Control_c, 0, 64, 65
1, 124953, Control_c, 0, 64, 70
1, 124956, Note_off_c, 0, 37, 44
1, 124967, Control_c, 0, 64, 78
1, 124979, Note_off_c, 0, 65, 40
1, 124982, Control_c, 0, 64, 92
1, 124997, Control_c, 0, 64, 112
1, 125002, Note_off_c, 0, 73, 29
1, 125012, Control_c, 0, 64, 127
1, 125021, Note_off_c, 0, 44, 40
1, 125081, Note_off_c, 0, 68, 46
1, 125116, Control_c, 0, 64, 119
1, 125131, Control_c, 0, 64, 113
1, 125146, Control_c, 0, 64, 110
1, 125161, Control_c, 0, 64, 107
1, 125175, Control_c, 0, 64, 102
1, 125190, Control_c, 0, 64, 98
1, 125205, Control_c, 0, 64, 94
1, 125220, Control_c, 0, 64, 91
1, 125235, Control_c, 0, 64, 88
1, 125249, Control_c, 0, 64, 86
1, 125264, Control_c, 0, 64, 84
1, 125279, Control_c, 0, 64, 82
1, 125295, Control_c, 0, 64, 81
1, 125310, Control_c, 0, 64, 79
1, 125325, Control_c, 0, 64, 76
1, 125340, Control_c, 0, 64, 74
1, 125354, Control_c, 0, 64, 71
1, 125369, Control_c, 0, 64, 68
1, 125384, Control_c, 0, 64, 66
1, 125398, Control_c, 0, 64, 65
1, 125413, Control_c, 0, 64, 64
1, 125443, Control_c, 0, 64, 63
1, 125458, Control_c, 0, 64, 62
1, 125472, Control_c, 0, 64, 60
1, 125487, Control_c, 0, 64, 58
1, 125489, Note_on_c, 0, 34, 28
1, 125510, Control_c, 0, 64, 55
1, 125524, Control_c, 0, 64, 53
1, 125528, Note_on_c, 0, 74, 43
1, 125539, Control_c, 0, 64, 52
1, 125554, Control_c, 0, 64, 51
1, 125558, Note_on_c, 0, 65, 12
1, 125613, Control_c, 0, 64, 53
1, 125628, Control_c, 0, 64, 55
1, 125643, Control_c, 0, 64, 57
1, 125658, Control_c, 0, 64, 59
1, 125672, Control_c, 0, 64, 61
1, 125687, Control_c, 0, 64, 62
1, 125702, Control_c, 0, 64, 64
1, 125717, Control_c, 0, 64, 66
1, 125731, Control_c, 0, 64, 70
1, 125746, Control_c, 0, 64, 75
1, 125761, Control_c, 0, 64, 81
1, 125776, Control_c, 0, 64, 89
1, 125791, Control_c, 0, 64, 99
1, 125805, Control_c, 0, 64, 110
1, 125820, Control_c, 0, 64, 127
1, 125846, Note_on_c, 0, 75, 68
1, 125880, Note_off_c, 0, 65, 40
1, 125888, Note_off_c, 0, 74, 63
1, 125996, Note_off_c, 0, 75, 57
1, 126076, Note_off_c, 0, 34, 35
1, 126103, Note_on_c, 0, 47, 17
1, 126137, Note_on_c, 0, 77, 78
1, 126147, Control_c, 0, 64, 113
1, 126151, Note_on_c, 0, 75, 48
1, 126162, Control_c, 0, 64, 98
1, 126166, Note_on_c, 0, 68, 40
1, 126177, Control_c, 0, 64, 82
1, 126192, Control_c, 0, 64, 66
1, 126207, Control_c, 0, 64, 50
1, 126221, Control_c, 0, 64, 26
1, 126236, Control_c, 0, 64, 29
1, 126258, Control_c, 0, 64, 39
1, 126273, Control_c, 0, 64, 50
1, 126288, Control_c, 0, 64, 57
1, 126303, Control_c, 0, 64, 62
1, 126318, Control_c, 0, 64, 66
1, 126333, Control_c, 0, 64, 73
1, 126347, Control_c, 0, 64, 85
1, 126362, Control_c, 0, 64, 108
1, 126377, Control_c, 0, 64, 127
1, 126392, Note_off_c, 0, 47, 45
1, 126395, Note_off_c, 0, 77, 58
1, 126565, Note_on_c, 0, 77, 78
1, 126658, Note_off_c, 0, 75, 58
1, 126689, Note_on_c, 0, 80, 83
1, 126732, Note_on_c, 0, 76, 35
1, 126851, Control_c, 0, 64, 119
1, 126866, Control_c, 0, 64, 111
1, 126881, Control_c, 0, 64, 106
1, 126897, Control_c, 0, 64, 102
1, 126911, Control_c, 0, 64, 101
1, 126926, Control_c, 0, 64, 100
1, 126941, Note_on_c, 0, 59, 46
1, 126941, Control_c, 0, 64, 98
1, 126956, Control_c, 0, 64, 96
1, 126971, Control_c, 0, 64, 94
1, 126993, Control_c, 0, 64, 93
1, 127004, Note_off_c, 0, 59, 56
1, 127008, Control_c, 0, 64, 90
1, 127020, Note_on_c, 0, 61, 47
1, 127023, Control_c, 0, 64, 88
1, 127038, Control_c, 0, 64, 86
1, 127052, Control_c, 0, 64, 85
1, 127067, Control_c, 0, 64, 84
1, 127081, Note_on_c, 0, 59, 44
1, 127082, Control_c, 0, 64, 83
1, 127097, Control_c, 0, 64, 81
1, 127102, Note_on_c, 0, 75, 65
1, 127112, Control_c, 0, 64, 80
1, 127118, Note_off_c, 0, 61, 38
1, 127126, Control_c, 0, 64, 79
1, 127133, Note_off_c, 0, 76, 61
1, 127141, Control_c, 0, 64, 77
1, 127156, Control_c, 0, 64, 76
1, 127170, Control_c, 0, 64, 75
1, 127185, Control_c, 0, 64, 74
1, 127200, Control_c, 0, 64, 73
1, 127215, Control_c, 0, 64, 72
1, 127230, Control_c, 0, 64, 72
1, 127245, Control_c, 0, 64, 71
1, 127260, Control_c, 0, 64, 70
1, 127275, Control_c, 0, 64, 69
1, 127290, Control_c, 0, 64, 69
1, 127295, Note_on_c, 0, 53, 60
1, 127305, Control_c, 0, 64, 68
1, 127319, Control_c, 0, 64, 68
1, 127334, Control_c, 0, 64, 67
1, 127349, Control_c, 0, 64, 67
1, 127364, Control_c, 0, 64, 66
1, 127378, Control_c, 0, 64, 65
1, 127389, Note_off_c, 0, 59, 53
1, 127393, Control_c, 0, 64, 65
1, 127408, Control_c, 0, 64, 64
1, 127438, Control_c, 0, 64, 63
1, 127452, Control_c, 0, 64, 63
1, 127467, Control_c, 0, 64, 62
1, 127478, Note_off_c, 0, 77, 15
1, 127482, Control_c, 0, 64, 62
1, 127496, Control_c, 0, 64, 60
1, 127501, Note_on_c, 0, 59, 57
1, 127511, Control_c, 0, 64, 58
1, 127516, Note_off_c, 0, 75, 56
1, 127519, Note_on_c, 0, 74, 47
1, 127526, Control_c, 0, 64, 54
1, 127541, Control_c, 0, 64, 49
1, 127556, Control_c, 0, 64, 44
1, 127570, Control_c, 0, 64, 41
1, 127585, Control_c, 0, 64, 40
1, 127588, Note_off_c, 0, 53, 56
1, 127615, Control_c, 0, 64, 44
1, 127630, Control_c, 0, 64, 51
1, 127644, Control_c, 0, 64, 57
1, 127659, Control_c, 0, 64, 60
1, 127674, Control_c, 0, 64, 63
1, 127690, Control_c, 0, 64, 66
1, 127705, Control_c, 0, 64, 70
1, 127720, Control_c, 0, 64, 75
1, 127721, Note_off_c, 0, 74, 58
1, 127722, Note_on_c, 0, 78, 71
1, 127742, Control_c, 0, 64, 81
1, 127757, Control_c, 0, 64, 84
1, 127767, Note_off_c, 0, 68, 40
1, 127772, Control_c, 0, 64, 85
1, 127831, Control_c, 0, 64, 84
1, 127846, Control_c, 0, 64, 84
1, 127861, Control_c, 0, 64, 83
1, 127865, Note_off_c, 0, 80, 37
1, 127875, Control_c, 0, 64, 82
1, 127905, Control_c, 0, 64, 82
1, 127921, Note_on_c, 0, 71, 46
1, 127934, Control_c, 0, 64, 81
1, 127945, Note_on_c, 0, 77, 63
1, 127949, Control_c, 0, 64, 81
1, 127964, Note_on_c, 0, 75, 46
1, 127964, Control_c, 0, 64, 78
1, 127979, Control_c, 0, 64, 72
1, 127993, Control_c, 0, 64, 65
1, 128008, Control_c, 0, 64, 58
1, 128022, Control_c, 0, 64, 54
1, 128035, Note_off_c, 0, 78, 54
1, 128037, Control_c, 0, 64, 56
1, 128052, Control_c, 0, 64, 58
1, 128066, Control_c, 0, 64, 62
1, 128081, Control_c, 0, 64, 65
1, 128096, Control_c, 0, 64, 68
1, 128111, Control_c, 0, 64, 72
1, 128125, Control_c, 0, 64, 77
1, 128140, Control_c, 0, 64, 87
1, 128145, Note_off_c, 0, 77, 59
1, 128154, Note_on_c, 0, 70, 71
1, 128155, Control_c, 0, 64, 113
1, 128170, Control_c, 0, 64, 127
1, 128181, Note_off_c, 0, 75, 35
1, 128310, Note_off_c, 0, 71, 36
1, 128348, Note_on_c, 0, 68, 60
1, 128359, Note_on_c, 0, 78, 79
1, 128436, Note_off_c, 0, 70, 56
1, 128565, Note_on_c, 0, 66, 49
1, 128570, Note_on_c, 0, 80, 85
1, 128613, Note_off_c, 0, 68, 50
1, 128705, Note_off_c, 0, 66, 48
1, 128726, Note_off_c, 0, 78, 31
1, 128726, Control_c, 0, 64, 114
1, 128741, Control_c, 0, 64, 110
1, 128756, Control_c, 0, 64, 107
1, 128771, Control_c, 0, 64, 106
1, 128786, Control_c, 0, 64, 106
1, 128801, Control_c, 0, 64, 104
1, 128808, Note_on_c, 0, 82, 81
1, 128815, Control_c, 0, 64, 100
1, 128818, Note_on_c, 0, 65, 42
1, 128830, Control_c, 0, 64, 89
1, 128832, Note_on_c, 0, 74, 51
1, 128841, Note_on_c, 0, 68, 37
1, 128845, Control_c, 0, 64, 76
1, 128860, Control_c, 0, 64, 64
1, 128871, Note_off_c, 0, 80, 55
1, 128875, Control_c, 0, 64, 52
1, 128889, Control_c, 0, 64, 46
1, 128904, Control_c, 0, 64, 48
1, 128919, Control_c, 0, 64, 52
1, 128933, Control_c, 0, 64, 57
1, 128948, Control_c, 0, 64, 62
1, 128963, Control_c, 0, 64, 66
1, 128978, Control_c, 0, 64, 71
1, 128988, Note_off_c, 0, 82, 64
1, 128993, Control_c, 0, 64, 85
1, 129008, Control_c, 0, 64, 127
1, 129009, Note_off_c, 0, 65, 53
1, 129036, Note_off_c, 0, 59, 36
1, 129057, Note_on_c, 0, 77, 86
1, 129097, Note_off_c, 0, 74, 63
1, 129113, Note_off_c, 0, 68, 36
1, 129260, Note_on_c, 0, 78, 87
1, 129269, Note_on_c, 0, 75, 64
1, 129272, Note_on_c, 0, 66, 52
1, 129308, Note_off_c, 0, 77, 57
1, 129386, Note_off_c, 0, 75, 52
1, 129401, Control_c, 0, 64, 118
1, 129416, Control_c, 0, 64, 112
1, 129431, Control_c, 0, 64, 107
1, 129445, Control_c, 0, 64, 104
1, 129447, Note_on_c, 0, 58, 64
1, 129460, Control_c, 0, 64, 102
1, 129475, Control_c, 0, 64, 101
1, 129490, Control_c, 0, 64, 99
1, 129505, Control_c, 0, 64, 97
1, 129519, Control_c, 0, 64, 94
1, 129534, Control_c, 0, 64, 91
1, 129549, Control_c, 0, 64, 87
1, 129564, Control_c, 0, 64, 85
1, 129573, Note_off_c, 0, 66, 26
1, 129579, Control_c, 0, 64, 83
1, 129594, Control_c, 0, 64, 81
1, 129609, Control_c, 0, 64, 79
1, 129624, Note_on_c, 0, 61, 56
1, 129624, Control_c, 0, 64, 77
1, 129638, Control_c, 0, 64, 76
1, 129653, Control_c, 0, 64, 74
1, 129668, Control_c, 0, 64, 73
1, 129683, Note_off_c, 0, 58, 55
1, 129683, Control_c, 0, 64, 71
1, 129686, Note_on_c, 0, 59, 56
1, 129694, Note_on_c, 0, 67, 41
1, 129697, Note_on_c, 0, 75, 49
1, 129698, Control_c, 0, 64, 69
1, 129712, Control_c, 0, 64, 68
1, 129727, Control_c, 0, 64, 67
1, 129742, Control_c, 0, 64, 65
1, 129756, Control_c, 0, 64, 65
1, 129769, Note_off_c, 0, 61, 59
1, 129771, Control_c, 0, 64, 64
1, 129786, Control_c, 0, 64, 63
1, 129801, Control_c, 0, 64, 63
1, 129816, Control_c, 0, 64, 62
1, 129830, Control_c, 0, 64, 62
1, 129860, Control_c, 0, 64, 61
1, 129875, Control_c, 0, 64, 60
1, 129890, Control_c, 0, 64, 57
1, 129905, Control_c, 0, 64, 52
1, 129919, Control_c, 0, 64, 40
1, 129927, Note_on_c, 0, 58, 46
1, 129934, Note_off_c, 0, 59, 58
1, 129934, Control_c, 0, 64, 30
1, 129949, Control_c, 0, 64, 29
1, 129955, Note_off_c, 0, 75, 49
1, 129963, Control_c, 0, 64, 31
1, 129978, Control_c, 0, 64, 41
1, 130001, Control_c, 0, 64, 54
1, 130016, Control_c, 0, 64, 62
1, 130022, Note_off_c, 0, 67, 40
1, 130031, Control_c, 0, 64, 66
1, 130045, Control_c, 0, 64, 71
1, 130047, Note_off_c, 0, 58, 60
1, 130060, Control_c, 0, 64, 78
1, 130075, Control_c, 0, 64, 88
1, 130091, Control_c, 0, 64, 100
1, 130106, Control_c, 0, 64, 105
1, 130121, Control_c, 0, 64, 104
1, 130136, Control_c, 0, 64, 102
1, 130150, Control_c, 0, 64, 100
1, 130165, Control_c, 0, 64, 99
1, 130180, Control_c, 0, 64, 97
1, 130194, Control_c, 0, 64, 94
1, 130209, Control_c, 0, 64, 93
1, 130224, Control_c, 0, 64, 92
1, 130239, Control_c, 0, 64, 90
1, 130241, Note_on_c, 0, 58, 33
1, 130254, Control_c, 0, 64, 87
1, 130268, Control_c, 0, 64, 83
1, 130271, Note_off_c, 0, 78, 32
1, 130275, Note_on_c, 0, 82, 48
1, 130283, Control_c, 0, 64, 76
1, 130294, Note_on_c, 0, 68, 29
1, 130294, Note_on_c, 0, 74, 30
1, 130298, Control_c, 0, 64, 66
1, 130313, Control_c, 0, 64, 56
1, 130328, Control_c, 0, 64, 46
1, 130342, Control_c, 0, 64, 47
1, 130357, Control_c, 0, 64, 52
1, 130372, Control_c, 0, 64, 58
1, 130387, Control_c, 0, 64, 63
1, 130402, Control_c, 0, 64, 66
1, 130417, Control_c, 0, 64, 72
1, 130431, Control_c, 0, 64, 81
1, 130446, Control_c, 0, 64, 95
1, 130461, Control_c, 0, 64, 127
1, 130534, Note_off_c, 0, 82, 57
1, 130554, Note_on_c, 0, 77, 52
1, 130602, Note_off_c, 0, 74, 41
1, 130603, Note_off_c, 0, 77, 60
1, 130634, Note_off_c, 0, 68, 40
1, 130780, Control_c, 0, 64, 96
1, 130783, Note_on_c, 0, 46, 40
1, 130786, Note_on_c, 0, 77, 51
1, 130794, Control_c, 0, 64, 78
1, 130799, Note_on_c, 0, 65, 32
1, 130809, Control_c, 0, 64, 65
1, 130824, Control_c, 0, 64, 55
1, 130839, Control_c, 0, 64, 52
1, 130854, Control_c, 0, 64, 57
1, 130864, Poly_aftertouch_c, 0, 73, 127
1, 130868, Control_c, 0, 64, 61
1, 130883, Control_c, 0, 64, 64
1, 130899, Control_c, 0, 64, 68
1, 130914, Control_c, 0, 64, 75
1, 130929, Control_c, 0, 64, 86
1, 130944, Control_c, 0, 64, 117
1, 130959, Control_c, 0, 64, 127
1, 130991, Note_off_c, 0, 58, 29
1, 131008, Poly_aftertouch_c, 0, 73, 0
1, 131023, Note_off_c, 0, 77, 51
1, 131041, Note_off_c, 0, 65, 39
1, 131107, Poly_aftertouch_c, 0, 53, 127
1, 131121, Note_off_c, 0, 46, 33
1, 131223, Note_on_c, 0, 76, 41
1, 131224, Note_on_c, 0, 77, 38
1, 131246, Note_on_c, 0, 72, 32
1, 131284, Poly_aftertouch_c, 0, 53, 0
1, 131399, Note_off_c, 0, 72, 50
1, 131409, Note_off_c, 0, 77, 58
1, 131411, Note_off_c, 0, 76, 51
1, 131419, Note_on_c, 0, 70, 56
1, 131425, Note_on_c, 0, 75, 60
1, 131491, Note_off_c, 0, 70, 60
1, 131517, Note_off_c, 0, 75, 56
1, 131707, Control_c, 0, 64, 123
1, 131709, Note_on_c, 0, 57, 43
1, 131718, Note_on_c, 0, 75, 56
1, 131722, Control_c, 0, 64, 107
1, 131735, Note_on_c, 0, 66, 35
1, 131737, Control_c, 0, 64, 98
1, 131749, Note_on_c, 0, 73, 38
1, 131752, Control_c, 0, 64, 89
1, 131767, Control_c, 0, 64, 79
1, 131782, Control_c, 0, 64, 67
1, 131796, Control_c, 0, 64, 56
1, 131811, Control_c, 0, 64, 41
1, 131826, Control_c, 0, 64, 38
1, 131855, Control_c, 0, 64, 42
1, 131870, Control_c, 0, 64, 50
1, 131885, Control_c, 0, 64, 55
1, 131900, Control_c, 0, 64, 60
1, 131914, Control_c, 0, 64, 64
1, 131929, Control_c, 0, 64, 67
1, 131944, Control_c, 0, 64, 73
1, 131958, Control_c, 0, 64, 83
1, 131973, Control_c, 0, 64, 108
1, 131976, Note_off_c, 0, 75, 56
1, 131988, Control_c, 0, 64, 127
1, 132107, Note_off_c, 0, 57, 36
1, 132125, Note_on_c, 0, 75, 49
1, 132245, Note_off_c, 0, 73, 56
1, 132249, Note_on_c, 0, 78, 67
1, 132263, Note_on_c, 0, 74, 49
1, 132366, Note_off_c, 0, 75, 32
1, 132498, Note_on_c, 0, 57, 39
1, 132539, Note_off_c, 0, 57, 54
1, 132566, Note_on_c, 0, 59, 41
1, 132604, Note_off_c, 0, 59, 60
1, 132608, Note_on_c, 0, 57, 46
1, 132616, Note_off_c, 0, 74, 57
1, 132626, Note_on_c, 0, 73, 52
1, 132767, Control_c, 0, 64, 118
1, 132781, Control_c, 0, 64, 114
1, 132796, Control_c, 0, 64, 111
1, 132811, Control_c, 0, 64, 108
1, 132825, Note_on_c, 0, 51, 49
1, 132826, Control_c, 0, 64, 105
1, 132841, Control_c, 0, 64, 103
1, 132855, Control_c, 0, 64, 100
1, 132858, Note_off_c, 0, 57, 37
1, 132870, Control_c, 0, 64, 98
1, 132885, Control_c, 0, 64, 97
1, 132900, Control_c, 0, 64, 94
1, 132915, Control_c, 0, 64, 92
1, 132929, Control_c, 0, 64, 91
1, 132944, Control_c, 0, 64, 89
1, 132959, Control_c, 0, 64, 87
1, 132974, Control_c, 0, 64, 86
1, 132996, Control_c, 0, 64, 82
1, 133011, Control_c, 0, 64, 75
1, 133024, Note_off_c, 0, 73, 58
1, 133026, Control_c, 0, 64, 66
1, 133030, Note_off_c, 0, 51, 62
1, 133034, Note_on_c, 0, 57, 51
1, 133041, Control_c, 0, 64, 57
1, 133054, Note_on_c, 0, 72, 45
1, 133056, Control_c, 0, 64, 47
1, 133070, Control_c, 0, 64, 47
1, 133085, Control_c, 0, 64, 49
1, 133100, Control_c, 0, 64, 54
1, 133115, Control_c, 0, 64, 59
1, 133130, Control_c, 0, 64, 62
1, 133144, Control_c, 0, 64, 64
1, 133159, Control_c, 0, 64, 66
1, 133174, Control_c, 0, 64, 70
1, 133189, Control_c, 0, 64, 76
1, 133204, Control_c, 0, 64, 85
1, 133219, Control_c, 0, 64, 96
1, 133228, Note_off_c, 0, 72, 50
1, 133234, Control_c, 0, 64, 106
1, 133238, Note_on_c, 0, 77, 60
1, 133246, Note_off_c, 0, 66, 38
1, 133248, Control_c, 0, 64, 110
1, 133305, Note_off_c, 0, 78, 34
1, 133323, Control_c, 0, 64, 110
1, 133338, Control_c, 0, 64, 108
1, 133353, Control_c, 0, 64, 107
1, 133368, Control_c, 0, 64, 105
1, 133383, Control_c, 0, 64, 104
1, 133397, Control_c, 0, 64, 102
1, 133412, Control_c, 0, 64, 101
1, 133427, Control_c, 0, 64, 100
1, 133442, Control_c, 0, 64, 99
1, 133457, Control_c, 0, 64, 94
1, 133467, Note_on_c, 0, 69, 50
1, 133471, Note_on_c, 0, 75, 51
1, 133472, Control_c, 0, 64, 87
1, 133484, Note_on_c, 0, 73, 42
1, 133486, Control_c, 0, 64, 79
1, 133501, Control_c, 0, 64, 70
1, 133516, Control_c, 0, 64, 64
1, 133531, Control_c, 0, 64, 58
1, 133544, Note_off_c, 0, 77, 35
1, 133546, Control_c, 0, 64, 57
1, 133560, Control_c, 0, 64, 58
1, 133575, Control_c, 0, 64, 60
1, 133590, Control_c, 0, 64, 62
1, 133604, Control_c, 0, 64, 65
1, 133619, Control_c, 0, 64, 67
1, 133634, Control_c, 0, 64, 72
1, 133649, Control_c, 0, 64, 79
1, 133664, Control_c, 0, 64, 89
1, 133670, Note_off_c, 0, 73, 48
1, 133678, Control_c, 0, 64, 108
1, 133687, Note_on_c, 0, 68, 63
1, 133689, Note_off_c, 0, 75, 46
1, 133693, Control_c, 0, 64, 127
1, 133835, Note_off_c, 0, 69, 54
1, 133901, Note_on_c, 0, 66, 56
1, 133916, Note_on_c, 0, 77, 75
1, 133977, Note_off_c, 0, 68, 59
1, 134133, Note_off_c, 0, 66, 63
1, 134134, Note_on_c, 0, 65, 49
1, 134134, Note_on_c, 0, 78, 88
1, 134189, Note_off_c, 0, 77, 56
1, 134309, Control_c, 0, 64, 119
1, 134324, Control_c, 0, 64, 113
1, 134339, Control_c, 0, 64, 111
1, 134353, Control_c, 0, 64, 108
1, 134368, Control_c, 0, 64, 106
1, 134383, Control_c, 0, 64, 102
1, 134398, Control_c, 0, 64, 96
1, 134413, Control_c, 0, 64, 91
1, 134415, Note_on_c, 0, 80, 81
1, 134427, Control_c, 0, 64, 86
1, 134436, Note_on_c, 0, 63, 35
1, 134436, Note_on_c, 0, 72, 51
1, 134442, Control_c, 0, 64, 78
1, 134449, Note_on_c, 0, 66, 38
1, 134457, Control_c, 0, 64, 70
1, 134472, Control_c, 0, 64, 61
1, 134494, Control_c, 0, 64, 45
1, 134502, Note_off_c, 0, 65, 42
1, 134509, Control_c, 0, 64, 42
1, 134524, Control_c, 0, 64, 47
1, 134539, Control_c, 0, 64, 53
1, 134554, Control_c, 0, 64, 59
1, 134568, Control_c, 0, 64, 63
1, 134583, Control_c, 0, 64, 66
1, 134598, Control_c, 0, 64, 71
1, 134613, Control_c, 0, 64, 81
1, 134627, Note_off_c, 0, 78, 31
1, 134628, Control_c, 0, 64, 99
1, 134632, Note_off_c, 0, 80, 61
1, 134642, Control_c, 0, 64, 127
1, 134664, Note_off_c, 0, 57, 37
1, 134671, Note_off_c, 0, 66, 36
1, 134686, Note_off_c, 0, 63, 57
1, 134814, Note_on_c, 0, 75, 79
1, 134834, Note_off_c, 0, 72, 63
1, 134957, Note_on_c, 0, 77, 87
1, 134981, Note_on_c, 0, 73, 57
1, 134982, Note_on_c, 0, 65, 55
1, 135002, Note_off_c, 0, 75, 59
1, 135147, Control_c, 0, 64, 121
1, 135157, Note_on_c, 0, 56, 65
1, 135162, Control_c, 0, 64, 115
1, 135176, Control_c, 0, 64, 111
1, 135177, Note_off_c, 0, 65, 60
1, 135190, Note_off_c, 0, 73, 55
1, 135191, Control_c, 0, 64, 108
1, 135206, Control_c, 0, 64, 107
1, 135221, Control_c, 0, 64, 105
1, 135243, Control_c, 0, 64, 103
1, 135258, Control_c, 0, 64, 101
1, 135272, Control_c, 0, 64, 99
1, 135287, Control_c, 0, 64, 97
1, 135302, Control_c, 0, 64, 95
1, 135317, Control_c, 0, 64, 94
1, 135332, Control_c, 0, 64, 92
1, 135339, Note_on_c, 0, 59, 49
1, 135347, Control_c, 0, 64, 90
1, 135362, Control_c, 0, 64, 88
1, 135377, Control_c, 0, 64, 86
1, 135382, Note_on_c, 0, 57, 72
1, 135389, Note_on_c, 0, 73, 71
1, 135391, Note_on_c, 0, 66, 62
1, 135391, Control_c, 0, 64, 83
1, 135406, Control_c, 0, 64, 81
1, 135421, Control_c, 0, 64, 78
1, 135423, Note_off_c, 0, 56, 56
1, 135436, Control_c, 0, 64, 75
1, 135451, Control_c, 0, 64, 72
1, 135465, Control_c, 0, 64, 69
1, 135480, Control_c, 0, 64, 65
1, 135495, Control_c, 0, 64, 61
1, 135510, Control_c, 0, 64, 56
1, 135511, Note_off_c, 0, 59, 60
1, 135525, Control_c, 0, 64, 50
1, 135539, Control_c, 0, 64, 37
1, 135554, Control_c, 0, 64, 0
1, 135639, Note_on_c, 0, 56, 80
1, 135703, Control_c, 0, 64, 25
1, 135718, Control_c, 0, 64, 49
1, 135731, Note_off_c, 0, 57, 55
1, 135733, Control_c, 0, 64, 61
1, 135740, Note_off_c, 0, 73, 56
1, 135748, Control_c, 0, 64, 67
1, 135762, Control_c, 0, 64, 77
1, 135777, Control_c, 0, 64, 100
1, 135792, Control_c, 0, 64, 127
1, 135852, Note_off_c, 0, 56, 62
1, 135940, Control_c, 0, 64, 106
1, 135955, Control_c, 0, 64, 90
1, 135961, Note_on_c, 0, 80, 84
1, 135969, Note_on_c, 0, 56, 56
1, 135970, Control_c, 0, 64, 73
1, 135988, Note_on_c, 0, 72, 62
1, 135992, Control_c, 0, 64, 60
1, 136006, Control_c, 0, 64, 17
1, 136019, Note_off_c, 0, 77, 53
1, 136021, Control_c, 0, 64, 0
1, 136080, Control_c, 0, 64, 20
1, 136095, Control_c, 0, 64, 41
1, 136110, Control_c, 0, 64, 53
1, 136125, Control_c, 0, 64, 59
1, 136140, Control_c, 0, 64, 63
1, 136155, Control_c, 0, 64, 66
1, 136170, Control_c, 0, 64, 73
1, 136185, Control_c, 0, 64, 84
1, 136200, Control_c, 0, 64, 104
1, 136214, Control_c, 0, 64, 127
1, 136224, Note_off_c, 0, 80, 57
1, 136235, Note_off_c, 0, 56, 53
1, 136324, Note_off_c, 0, 66, 32
1, 136424, Note_on_c, 0, 75, 75
1, 136454, Note_off_c, 0, 72, 62
1, 136497, Control_c, 0, 64, 121
1, 136511, Control_c, 0, 64, 114
1, 136526, Control_c, 0, 64, 111
1, 136541, Control_c, 0, 64, 109
1, 136556, Control_c, 0, 64, 106
1, 136571, Control_c, 0, 64, 102
1, 136585, Control_c, 0, 64, 99
1, 136600, Control_c, 0, 64, 95
1, 136615, Control_c, 0, 64, 91
1, 136629, Control_c, 0, 64, 87
1, 136642, Note_on_c, 0, 77, 67
1, 136644, Control_c, 0, 64, 85
1, 136647, Note_on_c, 0, 57, 39
1, 136659, Control_c, 0, 64, 82
1, 136671, Note_on_c, 0, 73, 41
1, 136674, Control_c, 0, 64, 81
1, 136678, Note_on_c, 0, 65, 32
1, 136684, Note_off_c, 0, 75, 56
1, 136689, Control_c, 0, 64, 80
1, 136703, Control_c, 0, 64, 79
1, 136718, Control_c, 0, 64, 78
1, 136741, Control_c, 0, 64, 75
1, 136756, Control_c, 0, 64, 71
1, 136771, Control_c, 0, 64, 64
1, 136785, Control_c, 0, 64, 53
1, 136800, Control_c, 0, 64, 40
1, 136815, Control_c, 0, 64, 38
1, 136844, Control_c, 0, 64, 39
1, 136859, Control_c, 0, 64, 41
1, 136874, Control_c, 0, 64, 46
1, 136889, Control_c, 0, 64, 53
1, 136903, Control_c, 0, 64, 58
1, 136918, Control_c, 0, 64, 63
1, 136933, Control_c, 0, 64, 65
1, 136948, Control_c, 0, 64, 69
1, 136963, Control_c, 0, 64, 76
1, 136978, Control_c, 0, 64, 85
1, 136992, Control_c, 0, 64, 99
1, 137007, Control_c, 0, 64, 127
1, 137019, Note_on_c, 0, 41, 37
1, 137064, Note_off_c, 0, 57, 29
1, 137076, Note_off_c, 0, 77, 52
1, 137088, Poly_aftertouch_c, 0, 44, 127
1, 137093, Note_off_c, 0, 73, 36
1, 137097, Poly_aftertouch_c, 0, 55, 127
1, 137125, Note_off_c, 0, 65, 38
1, 137147, Poly_aftertouch_c, 0, 55, 0
1, 137215, Control_c, 0, 64, 116
1, 137229, Control_c, 0, 64, 110
1, 137244, Control_c, 0, 64, 106
1, 137259, Control_c, 0, 64, 104
1, 137275, Control_c, 0, 64, 102
1, 137290, Control_c, 0, 64, 100
1, 137305, Control_c, 0, 64, 98
1, 137311, Note_on_c, 0, 48, 34
1, 137319, Control_c, 0, 64, 95
1, 137334, Control_c, 0, 64, 94
1, 137335, Note_on_c, 0, 77, 46
1, 137349, Control_c, 0, 64, 92
1, 137354, Note_on_c, 0, 76, 41
1, 137356, Note_on_c, 0, 72, 31
1, 137364, Control_c, 0, 64, 90
1, 137379, Control_c, 0, 64, 89
1, 137394, Control_c, 0, 64, 88
1, 137408, Control_c, 0, 64, 86
1, 137423, Control_c, 0, 64, 85
1, 137438, Control_c, 0, 64, 83
1, 137452, Control_c, 0, 64, 81
1, 137467, Control_c, 0, 64, 79
1, 137490, Control_c, 0, 64, 76
1, 137505, Control_c, 0, 64, 75
1, 137520, Control_c, 0, 64, 73
1, 137534, Control_c, 0, 64, 71
1, 137549, Control_c, 0, 64, 70
1, 137564, Control_c, 0, 64, 69
1, 137579, Control_c, 0, 64, 68
1, 137594, Control_c, 0, 64, 67
1, 137608, Control_c, 0, 64, 66
1, 137623, Control_c, 0, 64, 65
1, 137638, Control_c, 0, 64, 64
1, 137652, Control_c, 0, 64, 63
1, 137667, Control_c, 0, 64, 63
1, 137684, Poly_aftertouch_c, 0, 44, 0
1, 137697, Control_c, 0, 64, 62
1, 137712, Control_c, 0, 64, 61
1, 137726, Control_c, 0, 64, 60
1, 137741, Control_c, 0, 64, 58
1, 137757, Control_c, 0, 64, 55
1, 137766, Note_on_c, 0, 71, 35
1, 137767, Note_on_c, 0, 53, 39
1, 137772, Control_c, 0, 64, 52
1, 137775, Note_on_c, 0, 75, 33
1, 137786, Control_c, 0, 64, 49
1, 137801, Control_c, 0, 64, 49
1, 137846, Control_c, 0, 64, 50
1, 137860, Control_c, 0, 64, 52
1, 137872, Note_off_c, 0, 77, 37
1, 137875, Control_c, 0, 64, 55
1, 137890, Control_c, 0, 64, 58
1, 137903, Note_off_c, 0, 76, 31
1, 137905, Control_c, 0, 64, 62
1, 137911, Note_off_c, 0, 41, 36
1, 137911, Note_off_c, 0, 72, 37
1, 137915, Note_off_c, 0, 48, 40
1, 137920, Control_c, 0, 64, 65
1, 137934, Control_c, 0, 64, 71
1, 137939, Note_off_c, 0, 75, 62
1, 137949, Control_c, 0, 64, 81
1, 137952, Note_off_c, 0, 71, 63
1, 137964, Control_c, 0, 64, 99
1, 137979, Control_c, 0, 64, 127
1, 138019, Note_off_c, 0, 53, 42
1, 138158, Control_c, 0, 64, 121
1, 138173, Control_c, 0, 64, 111
1, 138188, Control_c, 0, 64, 105
1, 138202, Control_c, 0, 64, 101
1, 138217, Control_c, 0, 64, 97
1, 138239, Control_c, 0, 64, 94
1, 138254, Control_c, 0, 64, 91
1, 138269, Control_c, 0, 64, 88
1, 138283, Control_c, 0, 64, 86
1, 138298, Control_c, 0, 64, 84
1, 138313, Control_c, 0, 64, 80
1, 138328, Control_c, 0, 64, 77
1, 138330, Note_on_c, 0, 70, 57
1, 138343, Control_c, 0, 64, 75
1, 138351, Note_on_c, 0, 66, 40
1, 138358, Control_c, 0, 64, 72
1, 138370, Note_on_c, 0, 62, 22
1, 138373, Control_c, 0, 64, 70
1, 138388, Control_c, 0, 64, 68
1, 138402, Control_c, 0, 64, 67
1, 138417, Control_c, 0, 64, 66
1, 138432, Control_c, 0, 64, 65
1, 138447, Control_c, 0, 64, 64
1, 138462, Control_c, 0, 64, 63
1, 138476, Control_c, 0, 64, 62
1, 138491, Control_c, 0, 64, 61
1, 138504, Control_c, 0, 64, 59
1, 138519, Control_c, 0, 64, 56
1, 138534, Control_c, 0, 64, 53
1, 138548, Control_c, 0, 64, 49
1, 138563, Control_c, 0, 64, 45
1, 138578, Control_c, 0, 64, 42
1, 138593, Control_c, 0, 64, 40
1, 138608, Control_c, 0, 64, 39
1, 138623, Control_c, 0, 64, 38
1, 138697, Control_c, 0, 64, 39
1, 138712, Control_c, 0, 64, 41
1, 138727, Control_c, 0, 64, 43
1, 138742, Control_c, 0, 64, 45
1, 138756, Control_c, 0, 64, 48
1, 138771, Control_c, 0, 64, 51
1, 138786, Control_c, 0, 64, 52
1, 138800, Control_c, 0, 64, 54
1, 138815, Control_c, 0, 64, 55
1, 138830, Control_c, 0, 64, 56
1, 138845, Control_c, 0, 64, 58
1, 138860, Control_c, 0, 64, 59
1, 138876, Control_c, 0, 64, 60
1, 138891, Control_c, 0, 64, 61
1, 138897, Poly_aftertouch_c, 0, 61, 127
1, 138905, Control_c, 0, 64, 63
1, 138915, Note_on_c, 0, 65, 16
1, 138920, Control_c, 0, 64, 64
1, 138922, Note_on_c, 0, 46, 22
1, 138930, Note_on_c, 0, 53, 29
1, 138935, Control_c, 0, 64, 66
1, 138950, Control_c, 0, 64, 69
1, 138972, Note_off_c, 0, 70, 37
1, 138972, Control_c, 0, 64, 72
1, 138987, Control_c, 0, 64, 76
1, 139002, Control_c, 0, 64, 81
1, 139016, Control_c, 0, 64, 88
1, 139031, Control_c, 0, 64, 98
1, 139046, Control_c, 0, 64, 127
1, 139055, Note_off_c, 0, 66, 0
1, 139070, Note_off_c, 0, 53, 47
1, 139096, Note_off_c, 0, 62, 24
1, 139103, Note_off_c, 0, 65, 39
1, 139110, Note_off_c, 0, 46, 51
1, 139136, Poly_aftertouch_c, 0, 66, 0
1, 139241, Poly_aftertouch_c, 0, 61, 0
1, 139383, Note_on_c, 0, 34, 37
1, 139393, Note_on_c, 0, 65, 47
1, 139397, Note_on_c, 0, 41, 31
1, 139407, Note_on_c, 0, 64, 46
1, 139410, Note_on_c, 0, 60, 36
1, 139548, Note_off_c, 0, 34, 42
1, 139568, Note_off_c, 0, 41, 35
1, 139574, Note_off_c, 0, 65, 57
1, 139611, Note_on_c, 0, 63, 57
1, 139614, Note_on_c, 0, 59, 41
1, 139625, Note_off_c, 0, 64, 56
1, 139627, Note_off_c, 0, 60, 35
1, 139647, Note_off_c, 0, 59, 61
1, 139780, Control_c, 0, 64, 118
1, 139795, Control_c, 0, 64, 103
1, 139801, Note_off_c, 0, 63, 49
1, 139809, Control_c, 0, 64, 87
1, 139824, Control_c, 0, 64, 73
1, 139836, Note_on_c, 0, 53, 71
1, 139839, Control_c, 0, 64, 63
1, 139846, Note_on_c, 0, 46, 52
1, 139854, Control_c, 0, 64, 53
1, 139857, Note_on_c, 0, 70, 54
1, 139869, Control_c, 0, 64, 53
1, 139869, Note_on_c, 0, 58, 40
1, 139872, Note_on_c, 0, 66, 47
1, 139884, Control_c, 0, 64, 57
1, 139899, Control_c, 0, 64, 62
1, 139914, Control_c, 0, 64, 66
1, 139928, Control_c, 0, 64, 72
1, 139943, Control_c, 0, 64, 83
1, 139954, Note_off_c, 0, 70, 59
1, 139958, Control_c, 0, 64, 111
1, 139973, Control_c, 0, 64, 127
1, 139988, Note_off_c, 0, 53, 63
1, 139993, Note_off_c, 0, 66, 59
1, 140030, Note_off_c, 0, 46, 62
1, 140107, Note_off_c, 0, 58, 37
1, 140200, Note_on_c, 0, 58, 70
1, 140268, Control_c, 0, 64, 116
1, 140283, Control_c, 0, 64, 85
1, 140298, Control_c, 0, 64, 68
1, 140301, Note_on_c, 0, 57, 74
1, 140310, Note_on_c, 0, 34, 44
1, 140313, Control_c, 0, 64, 57
1, 140322, Note_on_c, 0, 41, 47
1, 140328, Control_c, 0, 64, 50
1, 140343, Control_c, 0, 64, 55
1, 140350, Note_off_c, 0, 58, 60
1, 140358, Control_c, 0, 64, 60
1, 140370, Note_on_c, 0, 65, 20
1, 140372, Control_c, 0, 64, 64
1, 140387, Control_c, 0, 64, 67
1, 140389, Note_on_c, 0, 61, 15
1, 140402, Control_c, 0, 64, 73
1, 140417, Control_c, 0, 64, 83
1, 140420, Note_off_c, 0, 34, 55
1, 140432, Control_c, 0, 64, 102
1, 140438, Note_off_c, 0, 41, 60
1, 140439, Note_off_c, 0, 65, 39
1, 140446, Control_c, 0, 64, 127
1, 140506, Note_on_c, 0, 58, 87
1, 140536, Note_off_c, 0, 57, 64
1, 140589, Note_off_c, 0, 61, 19
1, 140692, Control_c, 0, 64, 116
1, 140707, Control_c, 0, 64, 110
1, 140722, Control_c, 0, 64, 102
1, 140729, Note_on_c, 0, 60, 86
1, 140736, Control_c, 0, 64, 94
1, 140750, Control_c, 0, 64, 85
1, 140764, Note_on_c, 0, 64, 50
1, 140765, Control_c, 0, 64, 76
1, 140773, Note_on_c, 0, 65, 44
1, 140780, Control_c, 0, 64, 68
1, 140794, Control_c, 0, 64, 62
1, 140809, Control_c, 0, 64, 60
1, 140824, Control_c, 0, 64, 61
1, 140839, Control_c, 0, 64, 62
1, 140854, Control_c, 0, 64, 64
1, 140868, Control_c, 0, 64, 67
1, 140883, Control_c, 0, 64, 70
1, 140897, Note_off_c, 0, 58, 32
1, 140898, Control_c, 0, 64, 76
1, 140913, Control_c, 0, 64, 86
1, 140928, Control_c, 0, 64, 105
1, 140936, Note_off_c, 0, 65, 53
1, 140942, Control_c, 0, 64, 127
1, 140975, Note_on_c, 0, 59, 56
1, 140978, Note_on_c, 0, 63, 63
1, 140990, Note_off_c, 0, 60, 60
1, 141020, Note_off_c, 0, 64, 62
1, 141231, Control_c, 0, 64, 111
1, 141246, Control_c, 0, 64, 85
1, 141261, Control_c, 0, 64, 69
1, 141262, Note_on_c, 0, 46, 45
1, 141263, Note_on_c, 0, 62, 77
1, 141276, Note_on_c, 0, 70, 59
1, 141277, Control_c, 0, 64, 56
1, 141280, Note_on_c, 0, 53, 45
1, 141291, Note_off_c, 0, 59, 55
1, 141292, Control_c, 0, 64, 40
1, 141306, Control_c, 0, 64, 42
1, 141321, Control_c, 0, 64, 49
1, 141336, Control_c, 0, 64, 56
1, 141348, Note_off_c, 0, 70, 62
1, 141351, Control_c, 0, 64, 61
1, 141366, Control_c, 0, 64, 65
1, 141379, Note_off_c, 0, 63, 57
1, 141380, Control_c, 0, 64, 71
1, 141395, Control_c, 0, 64, 81
1, 141401, Note_off_c, 0, 53, 58
1, 141410, Control_c, 0, 64, 107
1, 141425, Control_c, 0, 64, 127
1, 141461, Note_off_c, 0, 46, 57
1, 141466, Note_off_c, 0, 62, 63
1, 141694, Note_on_c, 0, 58, 74
1, 141809, Note_on_c, 0, 53, 88
1, 141812, Note_on_c, 0, 65, 21
1, 141825, Control_c, 0, 64, 97
1, 141840, Control_c, 0, 64, 77
1, 141851, Note_on_c, 0, 61, 46
1, 141853, Note_on_c, 0, 46, 45
1, 141855, Control_c, 0, 64, 65
1, 141860, Note_on_c, 0, 34, 39
1, 141869, Note_on_c, 0, 41, 40
1, 141870, Control_c, 0, 64, 52
1, 141885, Control_c, 0, 64, 45
1, 141899, Control_c, 0, 64, 48
1, 141914, Control_c, 0, 64, 53
1, 141929, Control_c, 0, 64, 58
1, 141934, Note_off_c, 0, 58, 57
1, 141944, Control_c, 0, 64, 62
1, 141959, Control_c, 0, 64, 64
1, 141981, Control_c, 0, 64, 68
1, 141996, Control_c, 0, 64, 76
1, 142011, Control_c, 0, 64, 91
1, 142018, Note_off_c, 0, 61, 34
1, 142025, Control_c, 0, 64, 127
1, 142039, Note_off_c, 0, 65, 37
1, 142062, Note_off_c, 0, 34, 39
1, 142067, Note_off_c, 0, 46, 60
1, 142235, Note_off_c, 0, 53, 56
1, 142241, Note_on_c, 0, 44, 64
1, 142245, Note_on_c, 0, 32, 52
1, 142251, Note_on_c, 0, 60, 54
1, 142251, Note_on_c, 0, 64, 46
1, 142263, Note_on_c, 0, 65, 45
1, 142272, Note_off_c, 0, 41, 40
1, 142362, Note_off_c, 0, 32, 47
1, 142418, Note_off_c, 0, 65, 44
1, 142425, Note_off_c, 0, 44, 63
1, 142474, Note_on_c, 0, 59, 65
1, 142485, Note_on_c, 0, 63, 68
1, 142520, Note_off_c, 0, 64, 57
1, 142524, Note_off_c, 0, 60, 60
1, 142604, Control_c, 0, 64, 117
1, 142619, Control_c, 0, 64, 112
1, 142634, Control_c, 0, 64, 107
1, 142648, Control_c, 0, 64, 102
1, 142663, Control_c, 0, 64, 98
1, 142678, Control_c, 0, 64, 94
1, 142693, Control_c, 0, 64, 92
1, 142708, Control_c, 0, 64, 91
1, 142730, Control_c, 0, 64, 89
1, 142745, Control_c, 0, 64, 85
1, 142760, Control_c, 0, 64, 78
1, 142775, Control_c, 0, 64, 68
1, 142785, Note_on_c, 0, 44, 29
1, 142790, Control_c, 0, 64, 60
1, 142796, Note_on_c, 0, 62, 65
1, 142800, Note_on_c, 0, 53, 33
1, 142804, Control_c, 0, 64, 47
1, 142805, Note_on_c, 0, 70, 34
1, 142810, Note_off_c, 0, 59, 54
1, 142819, Control_c, 0, 64, 42
1, 142847, Note_off_c, 0, 70, 52
1, 142848, Control_c, 0, 64, 43
1, 142863, Control_c, 0, 64, 45
1, 142870, Note_off_c, 0, 63, 54
1, 142879, Control_c, 0, 64, 51
1, 142894, Control_c, 0, 64, 56
1, 142909, Control_c, 0, 64, 61
1, 142924, Control_c, 0, 64, 65
1, 142939, Control_c, 0, 64, 69
1, 142951, Note_off_c, 0, 53, 55
1, 142953, Control_c, 0, 64, 76
1, 142968, Control_c, 0, 64, 96
1, 142983, Control_c, 0, 64, 127
1, 142986, Note_off_c, 0, 62, 61
1, 143029, Note_off_c, 0, 44, 40
1, 143262, Note_on_c, 0, 58, 47
1, 143338, Control_c, 0, 64, 119
1, 143353, Control_c, 0, 64, 113
1, 143368, Control_c, 0, 64, 111
1, 143383, Control_c, 0, 64, 108
1, 143397, Control_c, 0, 64, 106
1, 143406, Note_on_c, 0, 65, 9
1, 143412, Control_c, 0, 64, 103
1, 143425, Note_on_c, 0, 31, 31
1, 143427, Control_c, 0, 64, 100
1, 143440, Note_on_c, 0, 53, 53
1, 143442, Control_c, 0, 64, 95
1, 143457, Control_c, 0, 64, 87
1, 143479, Control_c, 0, 64, 75
1, 143491, Note_on_c, 0, 61, 10
1, 143494, Control_c, 0, 64, 65
1, 143509, Control_c, 0, 64, 53
1, 143519, Note_off_c, 0, 58, 37
1, 143524, Control_c, 0, 64, 46
1, 143539, Control_c, 0, 64, 51
1, 143553, Control_c, 0, 64, 57
1, 143561, Note_off_c, 0, 61, 42
1, 143568, Control_c, 0, 64, 61
1, 143583, Control_c, 0, 64, 64
1, 143597, Control_c, 0, 64, 67
1, 143612, Control_c, 0, 64, 73
1, 143627, Control_c, 0, 64, 83
1, 143642, Control_c, 0, 64, 100
1, 143657, Control_c, 0, 64, 127
1, 143702, Note_off_c, 0, 65, 36
1, 143836, Control_c, 0, 64, 118
1, 143850, Control_c, 0, 64, 115
1, 143865, Control_c, 0, 64, 113
1, 143868, Note_off_c, 0, 31, 39
1, 143880, Control_c, 0, 64, 110
1, 143892, Note_on_c, 0, 30, 39
1, 143894, Control_c, 0, 64, 106
1, 143908, Note_on_c, 0, 64, 31
1, 143908, Note_off_c, 0, 53, 33
1, 143909, Control_c, 0, 64, 103
1, 143914, Note_on_c, 0, 60, 40
1, 143915, Note_on_c, 0, 65, 30
1, 143924, Control_c, 0, 64, 101
1, 143939, Control_c, 0, 64, 100
1, 143954, Control_c, 0, 64, 98
1, 143968, Control_c, 0, 64, 97
1, 143983, Control_c, 0, 64, 95
1, 143998, Control_c, 0, 64, 94
1, 144012, Control_c, 0, 64, 93
1, 144027, Control_c, 0, 64, 91
1, 144042, Control_c, 0, 64, 89
1, 144057, Control_c, 0, 64, 86
1, 144072, Control_c, 0, 64, 78
1, 144087, Control_c, 0, 64, 68
1, 144102, Control_c, 0, 64, 57
1, 144117, Control_c, 0, 64, 44
1, 144119, Note_off_c, 0, 30, 41
1, 144132, Control_c, 0, 64, 48
1, 144140, Note_on_c, 0, 29, 39
1, 144141, Note_off_c, 0, 60, 47
1, 144147, Control_c, 0, 64, 55
1, 144161, Note_off_c, 0, 64, 39
1, 144161, Control_c, 0, 64, 62
1, 144162, Note_on_c, 0, 63, 46
1, 144169, Note_on_c, 0, 59, 39
1, 144176, Control_c, 0, 64, 68
1, 144181, Note_off_c, 0, 29, 62
1, 144191, Control_c, 0, 64, 77
1, 144206, Control_c, 0, 64, 93
1, 144207, Note_off_c, 0, 65, 40
1, 144227, Note_off_c, 0, 59, 59
1, 144227, Control_c, 0, 64, 127
1, 144229, Note_off_c, 0, 63, 55
1, 144391, Control_c, 0, 64, 113
1, 144406, Control_c, 0, 64, 99
1, 144420, Control_c, 0, 64, 85
1, 144435, Control_c, 0, 64, 72
1, 144450, Control_c, 0, 64, 60
1, 144454, Note_on_c, 0, 65, 55
1, 144466, Control_c, 0, 64, 43
1, 144466, Note_on_c, 0, 51, 32
1, 144473, Note_on_c, 0, 61, 37
1, 144476, Note_on_c, 0, 41, 26
1, 144480, Control_c, 0, 64, 39
1, 144483, Note_on_c, 0, 57, 31
1, 144495, Control_c, 0, 64, 43
1, 144510, Control_c, 0, 64, 49
1, 144524, Control_c, 0, 64, 54
1, 144539, Control_c, 0, 64, 58
1, 144554, Control_c, 0, 64, 61
1, 144569, Control_c, 0, 64, 63
1, 144583, Control_c, 0, 64, 65
1, 144598, Control_c, 0, 64, 68
1, 144613, Control_c, 0, 64, 74
1, 144628, Control_c, 0, 64, 82
1, 144642, Control_c, 0, 64, 93
1, 144656, Note_off_c, 0, 57, 45
1, 144657, Control_c, 0, 64, 104
1, 144672, Control_c, 0, 64, 115
1, 144687, Control_c, 0, 64, 121
1, 144776, Control_c, 0, 64, 118
1, 144790, Control_c, 0, 64, 117
1, 144820, Control_c, 0, 64, 115
1, 144835, Control_c, 0, 64, 114
1, 144850, Control_c, 0, 64, 113
1, 144858, Note_off_c, 0, 61, 33
1, 144880, Control_c, 0, 64, 113
1, 144895, Control_c, 0, 64, 112
1, 144909, Control_c, 0, 64, 111
1, 144912, Note_on_c, 0, 58, 35
1, 144924, Control_c, 0, 64, 110
1, 144925, Note_on_c, 0, 52, 32
1, 144934, Note_on_c, 0, 62, 27
1, 144976, Control_c, 0, 64, 109
1, 144991, Control_c, 0, 64, 108
1, 145020, Control_c, 0, 64, 108
1, 145035, Control_c, 0, 64, 107
1, 145050, Control_c, 0, 64, 107
1, 145080, Control_c, 0, 64, 106
1, 145089, Note_off_c, 0, 51, 39
1, 145095, Control_c, 0, 64, 106
1, 145109, Control_c, 0, 64, 105
1, 145124, Control_c, 0, 64, 105
1, 145139, Control_c, 0, 64, 104
1, 145169, Control_c, 0, 64, 104
1, 145180, Note_on_c, 0, 68, 49
1, 145226, Note_off_c, 0, 65, 58
1, 145228, Control_c, 0, 64, 103
1, 145243, Control_c, 0, 64, 102
1, 145254, Note_off_c, 0, 62, 37
1, 145258, Control_c, 0, 64, 101
1, 145273, Control_c, 0, 64, 99
1, 145288, Control_c, 0, 64, 98
1, 145303, Control_c, 0, 64, 97
1, 145318, Control_c, 0, 64, 96
1, 145333, Control_c, 0, 64, 95
1, 145341, Note_off_c, 0, 58, 36
1, 145348, Control_c, 0, 64, 95
1, 145363, Control_c, 0, 64, 93
1, 145378, Control_c, 0, 64, 91
1, 145393, Control_c, 0, 64, 88
1, 145408, Control_c, 0, 64, 83
1, 145409, Note_on_c, 0, 66, 64
1, 145416, Note_on_c, 0, 53, 35
1, 145419, Note_on_c, 0, 59, 44
1, 145419, Note_on_c, 0, 63, 50
1, 145422, Control_c, 0, 64, 75
1, 145437, Control_c, 0, 64, 66
1, 145439, Poly_aftertouch_c, 0, 43, 127
1, 145452, Control_c, 0, 64, 57
1, 145466, Control_c, 0, 64, 46
1, 145481, Control_c, 0, 64, 46
1, 145496, Control_c, 0, 64, 49
1, 145497, Note_off_c, 0, 52, 44
1, 145510, Note_off_c, 0, 68, 57
1, 145511, Control_c, 0, 64, 54
1, 145526, Control_c, 0, 64, 59
1, 145540, Control_c, 0, 64, 62
1, 145555, Control_c, 0, 64, 65
1, 145570, Control_c, 0, 64, 69
1, 145585, Control_c, 0, 64, 77
1, 145600, Control_c, 0, 64, 92
1, 145614, Control_c, 0, 64, 127
1, 145628, Poly_aftertouch_c, 0, 43, 0
1, 145628, Note_off_c, 0, 41, 38
1, 145647, Note_off_c, 0, 53, 42
1, 145692, Note_off_c, 0, 63, 33
1, 145699, Note_off_c, 0, 59, 40
1, 145741, Note_off_c, 0, 66, 50
1, 145947, Control_c, 0, 64, 114
1, 145962, Control_c, 0, 64, 107
1, 145971, Note_on_c, 0, 41, 35
1, 145977, Control_c, 0, 64, 101
1, 145992, Note_on_c, 0, 51, 36
1, 145992, Control_c, 0, 64, 95
1, 145992, Note_on_c, 0, 65, 69
1, 146007, Note_on_c, 0, 61, 55
1, 146007, Control_c, 0, 64, 87
1, 146016, Note_on_c, 0, 57, 46
1, 146022, Control_c, 0, 64, 76
1, 146037, Control_c, 0, 64, 65
1, 146051, Control_c, 0, 64, 54
1, 146067, Control_c, 0, 64, 46
1, 146082, Control_c, 0, 64, 48
1, 146096, Control_c, 0, 64, 52
1, 146111, Control_c, 0, 64, 56
1, 146126, Control_c, 0, 64, 60
1, 146141, Control_c, 0, 64, 63
1, 146156, Control_c, 0, 64, 65
1, 146171, Control_c, 0, 64, 67
1, 146186, Control_c, 0, 64, 71
1, 146200, Control_c, 0, 64, 76
1, 146215, Control_c, 0, 64, 85
1, 146230, Control_c, 0, 64, 94
1, 146245, Control_c, 0, 64, 103
1, 146260, Control_c, 0, 64, 107
1, 146263, Note_off_c, 0, 57, 56
1, 146363, Control_c, 0, 64, 106
1, 146378, Control_c, 0, 64, 105
1, 146393, Control_c, 0, 64, 105
1, 146408, Control_c, 0, 64, 104
1, 146423, Control_c, 0, 64, 104
1, 146437, Control_c, 0, 64, 103
1, 146460, Control_c, 0, 64, 102
1, 146475, Control_c, 0, 64, 100
1, 146483, Note_off_c, 0, 61, 50
1, 146490, Control_c, 0, 64, 99
1, 146504, Control_c, 0, 64, 98
1, 146519, Control_c, 0, 64, 96
1, 146534, Control_c, 0, 64, 95
1, 146549, Control_c, 0, 64, 94
1, 146563, Control_c, 0, 64, 92
1, 146578, Control_c, 0, 64, 91
1, 146588, Note_on_c, 0, 58, 27
1, 146593, Control_c, 0, 64, 89
1, 146608, Control_c, 0, 64, 88
1, 146619, Note_on_c, 0, 52, 33
1, 146623, Control_c, 0, 64, 87
1, 146624, Note_on_c, 0, 62, 37
1, 146637, Control_c, 0, 64, 87
1, 146652, Control_c, 0, 64, 85
1, 146667, Control_c, 0, 64, 82
1, 146682, Control_c, 0, 64, 77
1, 146696, Control_c, 0, 64, 70
1, 146711, Control_c, 0, 64, 64
1, 146726, Control_c, 0, 64, 60
1, 146741, Control_c, 0, 64, 59
1, 146756, Control_c, 0, 64, 60
1, 146763, Note_off_c, 0, 41, 36
1, 146770, Control_c, 0, 64, 61
1, 146785, Control_c, 0, 64, 63
1, 146794, Note_off_c, 0, 51, 42
1, 146800, Control_c, 0, 64, 65
1, 146815, Control_c, 0, 64, 68
1, 146829, Control_c, 0, 64, 71
1, 146844, Control_c, 0, 64, 76
1, 146860, Control_c, 0, 64, 84
1, 146875, Control_c, 0, 64, 97
1, 146890, Control_c, 0, 64, 111
1, 146905, Control_c, 0, 64, 127
1, 146948, Note_on_c, 0, 70, 55
1, 147003, Note_off_c, 0, 65, 54
1, 147051, Note_off_c, 0, 52, 42
1, 147052, Note_off_c, 0, 62, 35
1, 147098, Control_c, 0, 64, 121
1, 147104, Note_off_c, 0, 58, 41
1, 147112, Control_c, 0, 64, 119
1, 147127, Control_c, 0, 64, 117
1, 147142, Control_c, 0, 64, 115
1, 147157, Control_c, 0, 64, 113
1, 147172, Control_c, 0, 64, 112
1, 147186, Control_c, 0, 64, 110
1, 147201, Control_c, 0, 64, 108
1, 147223, Control_c, 0, 64, 107
1, 147235, Note_on_c, 0, 53, 28
1, 147238, Control_c, 0, 64, 105
1, 147253, Control_c, 0, 64, 103
1, 147268, Control_c, 0, 64, 101
1, 147272, Note_on_c, 0, 68, 56
1, 147283, Control_c, 0, 64, 100
1, 147297, Control_c, 0, 64, 99
1, 147303, Note_on_c, 0, 59, 28
1, 147304, Note_on_c, 0, 63, 35
1, 147312, Control_c, 0, 64, 97
1, 147327, Control_c, 0, 64, 95
1, 147342, Control_c, 0, 64, 93
1, 147357, Control_c, 0, 64, 91
1, 147372, Control_c, 0, 64, 90
1, 147386, Control_c, 0, 64, 88
1, 147401, Control_c, 0, 64, 87
1, 147408, Note_off_c, 0, 70, 37
1, 147416, Control_c, 0, 64, 86
1, 147431, Control_c, 0, 64, 85
1, 147445, Control_c, 0, 64, 84
1, 147460, Control_c, 0, 64, 83
1, 147475, Control_c, 0, 64, 82
1, 147490, Control_c, 0, 64, 81
1, 147505, Control_c, 0, 64, 79
1, 147515, Note_on_c, 0, 54, 33
1, 147519, Control_c, 0, 64, 77
1, 147534, Control_c, 0, 64, 76
1, 147549, Control_c, 0, 64, 74
1, 147564, Control_c, 0, 64, 73
1, 147579, Control_c, 0, 64, 72
1, 147593, Control_c, 0, 64, 71
1, 147595, Note_on_c, 0, 66, 59
1, 147608, Control_c, 0, 64, 71
1, 147623, Control_c, 0, 64, 70
1, 147637, Control_c, 0, 64, 69
1, 147645, Note_off_c, 0, 63, 38
1, 147650, Note_off_c, 0, 53, 39
1, 147652, Control_c, 0, 64, 68
1, 147669, Control_c, 0, 64, 67
1, 147683, Control_c, 0, 64, 67
1, 147698, Control_c, 0, 64, 66
1, 147709, Note_on_c, 0, 56, 40
1, 147728, Control_c, 0, 64, 65
1, 147751, Note_off_c, 0, 68, 61
1, 147816, Control_c, 0, 64, 66
1, 147898, Note_off_c, 0, 54, 32
1, 147987, Control_c, 0, 64, 65
1, 147989, Note_on_c, 0, 53, 26
1, 147992, Note_on_c, 0, 57, 36
1, 147995, Note_off_c, 0, 59, 36
1, 148010, Note_on_c, 0, 65, 47
1, 148023, Note_on_c, 0, 61, 25
1, 148061, Control_c, 0, 64, 65
1, 148075, Control_c, 0, 64, 64
1, 148090, Control_c, 0, 64, 63
1, 148105, Control_c, 0, 64, 60
1, 148120, Control_c, 0, 64, 54
1, 148123, Note_off_c, 0, 66, 36
1, 148135, Control_c, 0, 64, 46
1, 148141, Note_off_c, 0, 56, 37
1, 148150, Control_c, 0, 64, 39
1, 148165, Control_c, 0, 64, 38
1, 148195, Control_c, 0, 64, 39
1, 148209, Control_c, 0, 64, 44
1, 148224, Control_c, 0, 64, 50
1, 148239, Control_c, 0, 64, 55
1, 148254, Control_c, 0, 64, 59
1, 148268, Control_c, 0, 64, 63
1, 148283, Control_c, 0, 64, 66
1, 148298, Control_c, 0, 64, 70
1, 148313, Control_c, 0, 64, 76
1, 148328, Control_c, 0, 64, 84
1, 148342, Control_c, 0, 64, 93
1, 148357, Control_c, 0, 64, 103
1, 148372, Control_c, 0, 64, 110
1, 148387, Control_c, 0, 64, 113
1, 148393, Note_off_c, 0, 57, 41
1, 148394, Note_on_c, 0, 59, 36
1, 148402, Control_c, 0, 64, 113
1, 148434, Note_off_c, 0, 53, 41
1, 148499, Note_off_c, 0, 61, 40
1, 148529, Note_off_c, 0, 59, 57
1, 148536, Control_c, 0, 64, 113
1, 148551, Control_c, 0, 64, 112
1, 148565, Control_c, 0, 64, 111
1, 148580, Control_c, 0, 64, 111
1, 148595, Control_c, 0, 64, 110
1, 148610, Control_c, 0, 64, 110
1, 148639, Control_c, 0, 64, 109
1, 148669, Control_c, 0, 64, 108
1, 148684, Control_c, 0, 64, 108
1, 148698, Control_c, 0, 64, 107
1, 148721, Control_c, 0, 64, 107
1, 148736, Control_c, 0, 64, 106
1, 148765, Control_c, 0, 64, 106
1, 148795, Control_c, 0, 64, 105
1, 148810, Control_c, 0, 64, 105
1, 148825, Control_c, 0, 64, 104
1, 148839, Control_c, 0, 64, 103
1, 148854, Control_c, 0, 64, 102
1, 148869, Control_c, 0, 64, 102
1, 148883, Control_c, 0, 64, 101
1, 148898, Control_c, 0, 64, 100
1, 148913, Note_on_c, 0, 58, 32
1, 148913, Control_c, 0, 64, 99
1, 148932, Note_on_c, 0, 53, 33
1, 148943, Control_c, 0, 64, 99
1, 148945, Note_on_c, 0, 46, 31
1, 148950, Note_on_c, 0, 34, 33
1, 148955, Note_on_c, 0, 41, 24
1, 148958, Control_c, 0, 64, 98
1, 148973, Control_c, 0, 64, 97
1, 148987, Control_c, 0, 64, 95
1, 149002, Control_c, 0, 64, 94
1, 149017, Control_c, 0, 64, 91
1, 149031, Control_c, 0, 64, 88
1, 149046, Control_c, 0, 64, 86
1, 149061, Control_c, 0, 64, 84
1, 149076, Control_c, 0, 64, 82
1, 149090, Control_c, 0, 64, 80
1, 149105, Control_c, 0, 64, 77
1, 149120, Control_c, 0, 64, 73
1, 149135, Control_c, 0, 64, 70
1, 149150, Control_c, 0, 64, 66
1, 149164, Control_c, 0, 64, 62
1, 149179, Control_c, 0, 64, 59
1, 149194, Control_c, 0, 64, 57
1, 149208, Control_c, 0, 64, 55
1, 149223, Control_c, 0, 64, 51
1, 149238, Control_c, 0, 64, 46
1, 149254, Control_c, 0, 64, 37
1, 149269, Control_c, 0, 64, 21
1, 149284, Control_c, 0, 64, 0
1, 149602, Control_c, 0, 64, 19
1, 149617, Control_c, 0, 64, 41
1, 149632, Control_c, 0, 64, 53
1, 149647, Control_c, 0, 64, 59
1, 149661, Control_c, 0, 64, 62
1, 149676, Control_c, 0, 64, 65
1, 149691, Control_c, 0, 64, 67
1, 149706, Control_c, 0, 64, 71
1, 149721, Control_c, 0, 64, 77
1, 149730, Note_off_c, 0, 46, 29
1, 149736, Control_c, 0, 64, 86
1, 149738, Note_off_c, 0, 41, 18
1, 149751, Control_c, 0, 64, 99
1, 149766, Control_c, 0, 64, 127
1, 149816, Note_off_c, 0, 34, 38
1, 149839, Note_off_c, 0, 53, 41
1, 149908, Note_off_c, 0, 58, 41
1, 149927, Note_off_c, 0, 65, 37
1, 150151, Control_c, 0, 64, 104
1, 150166, Control_c, 0, 64, 90
1, 150181, Control_c, 0, 64, 78
1, 150196, Control_c, 0, 64, 66
1, 150218, Control_c, 0, 64, 54
1, 150233, Control_c, 0, 64, 9
1, 150248, Control_c, 0, 64, 0
1, 150469, Control_c, 0, 64, 24
1, 150484, Note_on_c, 0, 89, 76
1, 150484, Control_c, 0, 64, 52
1, 150499, Control_c, 0, 64, 67
1, 150501, Note_on_c, 0, 29, 29
1, 150502, Note_on_c, 0, 77, 47
1, 150512, Note_off_c, 0, 89, 67
1, 150514, Control_c, 0, 64, 81
1, 150525, Note_off_c, 0, 77, 51
1, 150529, Control_c, 0, 64, 127
1, 150548, Note_off_c, 0, 29, 51
1, 150708, Note_on_c, 0, 77, 52
1, 150717, Note_on_c, 0, 49, 49
1, 150728, Note_off_c, 0, 77, 59
1, 150763, Note_on_c, 0, 58, 52
1, 150768, Note_off_c, 0, 49, 63
1, 150781, Control_c, 0, 64, 123
1, 150796, Control_c, 0, 64, 86
1, 150809, Note_on_c, 0, 64, 45
1, 150810, Note_off_c, 0, 58, 65
1, 150810, Control_c, 0, 64, 68
1, 150820, Note_on_c, 0, 78, 69
1, 150825, Control_c, 0, 64, 49
1, 150828, Note_on_c, 0, 66, 51
1, 150834, Note_off_c, 0, 64, 58
1, 150840, Control_c, 0, 64, 0
1, 150852, Note_off_c, 0, 78, 65
1, 150857, Note_off_c, 0, 66, 62
1, 150926, Note_on_c, 0, 79, 60
1, 150945, Note_off_c, 0, 79, 65
1, 150993, Note_on_c, 0, 48, 59
1, 151008, Note_on_c, 0, 53, 58
1, 151018, Note_off_c, 0, 48, 62
1, 151037, Note_on_c, 0, 80, 67
1, 151045, Note_off_c, 0, 53, 66
1, 151046, Note_on_c, 0, 68, 53
1, 151053, Note_on_c, 0, 63, 47
1, 151065, Note_off_c, 0, 80, 67
1, 151069, Note_off_c, 0, 68, 58
1, 151077, Note_off_c, 0, 63, 57
1, 151134, Note_on_c, 0, 81, 68
1, 151146, Note_on_c, 0, 69, 46
1, 151158, Note_off_c, 0, 81, 69
1, 151172, Note_off_c, 0, 69, 56
1, 151199, Note_on_c, 0, 57, 36
1, 151217, Note_on_c, 0, 51, 25
1, 151227, Note_on_c, 0, 66, 80
1, 151235, Note_on_c, 0, 82, 76
1, 151241, Note_on_c, 0, 70, 60
1, 151250, Note_off_c, 0, 57, 65
1, 151250, Note_off_c, 0, 66, 70
1, 151257, Note_off_c, 0, 51, 41
1, 151259, Note_off_c, 0, 82, 69
1, 151263, Note_off_c, 0, 70, 64
1, 151327, Note_on_c, 0, 84, 76
1, 151335, Note_on_c, 0, 72, 63
1, 151347, Note_off_c, 0, 84, 71
1, 151352, Note_off_c, 0, 72, 65
1, 151425, Note_on_c, 0, 58, 57
1, 151432, Note_on_c, 0, 85, 80
1, 151435, Note_on_c, 0, 73, 63
1, 151438, Note_on_c, 0, 65, 71
1, 151453, Note_off_c, 0, 85, 70
1, 151455, Note_off_c, 0, 58, 64
1, 151463, Note_off_c, 0, 73, 67
1, 151465, Note_off_c, 0, 65, 67
1, 151530, Note_on_c, 0, 89, 89
1, 151536, Note_on_c, 0, 77, 73
1, 151560, Note_off_c, 0, 89, 62
1, 151562, Note_off_c, 0, 77, 69
1, 151609, Note_on_c, 0, 48, 54
1, 151629, Note_on_c, 0, 53, 56
1, 151633, Note_off_c, 0, 48, 61
1, 151637, Note_on_c, 0, 91, 93
1, 151646, Note_on_c, 0, 79, 78
1, 151653, Note_on_c, 0, 63, 60
1, 151661, Note_off_c, 0, 53, 64
1, 151667, Note_off_c, 0, 79, 72
1, 151673, Note_off_c, 0, 91, 66
1, 151682, Note_off_c, 0, 63, 63
1, 151747, Note_on_c, 0, 93, 102
1, 151754, Note_on_c, 0, 81, 77
1, 151777, Note_off_c, 0, 81, 71
1, 151779, Note_off_c, 0, 93, 66
1, 151830, Note_on_c, 0, 46, 51
1, 151853, Note_on_c, 0, 94, 91
1, 151856, Note_off_c, 0, 46, 58
1, 151861, Note_on_c, 0, 53, 38
1, 151861, Note_on_c, 0, 82, 78
1, 151867, Note_on_c, 0, 61, 61
1, 151885, Note_off_c, 0, 82, 71
1, 151887, Note_off_c, 0, 94, 61
1, 151895, Note_off_c, 0, 53, 48
1, 151900, Note_off_c, 0, 61, 64
1, 151966, Note_on_c, 0, 91, 56
1, 151969, Note_on_c, 0, 77, 63
1, 151974, Note_on_c, 0, 89, 56
1, 151985, Note_off_c, 0, 77, 63
1, 151987, Note_off_c, 0, 91, 40
1, 151992, Note_off_c, 0, 89, 61
1, 152029, Note_on_c, 0, 45, 55
1, 152055, Note_off_c, 0, 45, 62
1, 152062, Note_on_c, 0, 86, 85
1, 152067, Note_on_c, 0, 53, 60
1, 152074, Note_on_c, 0, 74, 67
1, 152080, Note_off_c, 0, 86, 72
1, 152089, Note_on_c, 0, 60, 57
1, 152094, Note_off_c, 0, 74, 64
1, 152103, Note_off_c, 0, 53, 64
1, 152110, Note_off_c, 0, 60, 59
1, 152180, Note_on_c, 0, 65, 66
1, 152188, Note_on_c, 0, 79, 53
1, 152192, Note_on_c, 0, 77, 52
1, 152198, Note_off_c, 0, 65, 65
1, 152207, Note_off_c, 0, 79, 61
1, 152213, Note_off_c, 0, 77, 57
1, 152295, Note_on_c, 0, 29, 69
1, 152301, Note_on_c, 0, 89, 93
1, 152305, Note_on_c, 0, 77, 66
1, 152307, Note_on_c, 0, 41, 55
1, 152307, Control_c, 0, 64, 52
1, 152320, Note_off_c, 0, 29, 62
1, 152322, Control_c, 0, 64, 69
1, 152324, Note_off_c, 0, 89, 66
1, 152335, Note_off_c, 0, 77, 66
1, 152337, Note_off_c, 0, 41, 62
1, 152337, Control_c, 0, 64, 106
1, 152352, Control_c, 0, 64, 127
1, 152464, Note_on_c, 0, 77, 68
1, 152475, Note_on_c, 0, 65, 58
1, 152492, Note_off_c, 0, 77, 66
1, 152496, Note_off_c, 0, 65, 61
1, 152518, Note_on_c, 0, 49, 53
1, 152556, Note_on_c, 0, 58, 45
1, 152559, Note_off_c, 0, 49, 64
1, 152583, Control_c, 0, 64, 84
1, 152583, Note_on_c, 0, 64, 60
1, 152588, Note_off_c, 0, 58, 64
1, 152589, Note_on_c, 0, 78, 72
1, 152595, Note_on_c, 0, 66, 61
1, 152597, Control_c, 0, 64, 65
1, 152606, Note_off_c, 0, 64, 63
1, 152612, Control_c, 0, 64, 30
1, 152615, Note_off_c, 0, 66, 63
1, 152616, Note_off_c, 0, 78, 63
1, 152627, Control_c, 0, 64, 0
1, 152688, Note_on_c, 0, 79, 71
1, 152711, Note_on_c, 0, 67, 35
1, 152714, Note_off_c, 0, 79, 69
1, 152742, Note_off_c, 0, 67, 35
1, 152759, Note_on_c, 0, 48, 54
1, 152764, Note_on_c, 0, 53, 52
1, 152788, Note_off_c, 0, 48, 63
1, 152797, Note_on_c, 0, 80, 69
1, 152800, Note_on_c, 0, 68, 62
1, 152802, Note_on_c, 0, 63, 65
1, 152809, Note_off_c, 0, 53, 65
1, 152824, Note_off_c, 0, 80, 69
1, 152831, Note_off_c, 0, 63, 67
1, 152831, Note_off_c, 0, 68, 65
1, 152897, Note_on_c, 0, 81, 74
1, 152899, Note_on_c, 0, 69, 62
1, 152917, Note_off_c, 0, 69, 64
1, 152919, Note_off_c, 0, 81, 70
1, 152966, Note_on_c, 0, 57, 50
1, 152976, Note_on_c, 0, 51, 42
1, 152996, Note_on_c, 0, 70, 83
1, 152997, Note_on_c, 0, 82, 85
1, 152998, Note_on_c, 0, 66, 84
1, 153007, Note_off_c, 0, 51, 55
1, 153013, Note_off_c, 0, 57, 66
1, 153018, Note_off_c, 0, 70, 67
1, 153026, Note_off_c, 0, 66, 66
1, 153033, Note_off_c, 0, 82, 61
1, 153101, Note_on_c, 0, 84, 90
1, 153106, Note_on_c, 0, 72, 80
1, 153125, Note_off_c, 0, 72, 71
1, 153134, Note_off_c, 0, 84, 66
1, 153170, Note_on_c, 0, 53, 47
1, 153198, Note_on_c, 0, 56, 56
1, 153220, Note_on_c, 0, 85, 92
1, 153223, Note_on_c, 0, 73, 68
1, 153223, Note_off_c, 0, 53, 48
1, 153228, Note_on_c, 0, 68, 77
1, 153242, Note_off_c, 0, 56, 65
1, 153250, Note_off_c, 0, 73, 67
1, 153252, Note_off_c, 0, 85, 64
1, 153253, Note_off_c, 0, 68, 69
1, 153341, Note_on_c, 0, 92, 96
1, 153349, Note_on_c, 0, 80, 72
1, 153363, Note_off_c, 0, 92, 65
1, 153364, Note_off_c, 0, 80, 69
1, 153432, Note_on_c, 0, 51, 33
1, 153453, Note_on_c, 0, 56, 52
1, 153462, Note_off_c, 0, 51, 49
1, 153464, Note_on_c, 0, 94, 99
1, 153473, Note_on_c, 0, 66, 59
1, 153473, Note_on_c, 0, 82, 81
1, 153487, Note_off_c, 0, 56, 65
1, 153489, Note_on_c, 0, 92, 56
1, 153490, Note_off_c, 0, 92, 127
1, 153493, Note_off_c, 0, 66, 61
1, 153493, Note_off_c, 0, 82, 71
1, 153511, Note_off_c, 0, 94, 63
1, 153593, Note_on_c, 0, 96, 101
1, 153608, Note_on_c, 0, 84, 72
1, 153622, Note_off_c, 0, 84, 68
1, 153641, Note_off_c, 0, 96, 66
1, 153661, Note_on_c, 0, 49, 34
1, 153689, Note_off_c, 0, 49, 54
1, 153717, Note_on_c, 0, 56, 41
1, 153743, Note_on_c, 0, 97, 93
1, 153752, Note_on_c, 0, 65, 51
1, 153757, Note_on_c, 0, 85, 79
1, 153758, Note_off_c, 0, 56, 65
1, 153776, Note_off_c, 0, 65, 57
1, 153781, Note_off_c, 0, 85, 67
1, 153784, Note_off_c, 0, 97, 65
1, 153907, Note_on_c, 0, 92, 84
1, 153919, Note_on_c, 0, 80, 64
1, 153936, Note_off_c, 0, 80, 66
1, 153936, Note_off_c, 0, 92, 63
1, 154045, Note_on_c, 0, 37, 53
1, 154057, Note_on_c, 0, 49, 29
1, 154063, Note_on_c, 0, 89, 81
1, 154083, Note_off_c, 0, 37, 62
1, 154086, Note_off_c, 0, 89, 70
1, 154087, Note_on_c, 0, 77, 47
1, 154093, Note_off_c, 0, 49, 41
1, 154111, Note_off_c, 0, 77, 39
1, 154186, Note_on_c, 0, 85, 86
1, 154197, Note_on_c, 0, 73, 65
1, 154209, Note_off_c, 0, 85, 64
1, 154214, Note_off_c, 0, 73, 65
1, 154303, Control_c, 0, 64, 28
1, 154317, Note_on_c, 0, 34, 56
1, 154318, Control_c, 0, 64, 62
1, 154323, Note_on_c, 0, 46, 48
1, 154326, Note_on_c, 0, 94, 94
1, 154332, Control_c, 0, 64, 80
1, 154338, Note_on_c, 0, 82, 75
1, 154347, Control_c, 0, 64, 127
1, 154350, Note_off_c, 0, 34, 53
1, 154351, Note_off_c, 0, 94, 65
1, 154353, Note_off_c, 0, 46, 53
1, 154362, Note_off_c, 0, 82, 70
1, 154496, Note_on_c, 0, 70, 68
1, 154499, Note_on_c, 0, 82, 66
1, 154523, Note_off_c, 0, 82, 65
1, 154523, Note_off_c, 0, 70, 65
1, 154555, Note_on_c, 0, 53, 52
1, 154555, Control_c, 0, 64, 114
1, 154561, Note_on_c, 0, 56, 50
1, 154569, Control_c, 0, 64, 97
1, 154584, Control_c, 0, 64, 86
1, 154588, Note_on_c, 0, 65, 65
1, 154589, Note_off_c, 0, 53, 64
1, 154599, Control_c, 0, 64, 75
1, 154600, Note_off_c, 0, 56, 65
1, 154610, Note_on_c, 0, 80, 71
1, 154614, Control_c, 0, 64, 67
1, 154616, Note_off_c, 0, 65, 63
1, 154616, Note_on_c, 0, 68, 57
1, 154629, Control_c, 0, 64, 61
1, 154630, Note_off_c, 0, 80, 64
1, 154636, Note_off_c, 0, 68, 61
1, 154643, Control_c, 0, 64, 51
1, 154658, Control_c, 0, 64, 45
1, 154673, Control_c, 0, 64, 40
1, 154688, Control_c, 0, 64, 31
1, 154710, Control_c, 0, 64, 0
1, 154720, Note_on_c, 0, 82, 85
1, 154726, Note_on_c, 0, 70, 72
1, 154752, Note_off_c, 0, 70, 69
1, 154754, Note_off_c, 0, 82, 61
1, 154786, Note_on_c, 0, 51, 54
1, 154803, Note_on_c, 0, 56, 52
1, 154826, Note_on_c, 0, 66, 70
1, 154829, Note_on_c, 0, 83, 93
1, 154833, Note_on_c, 0, 71, 81
1, 154840, Note_off_c, 0, 51, 63
1, 154844, Note_off_c, 0, 56, 67
1, 154854, Note_off_c, 0, 66, 67
1, 154854, Note_off_c, 0, 71, 72
1, 154859, Note_off_c, 0, 83, 67
1, 154937, Note_on_c, 0, 85, 91
1, 154943, Note_on_c, 0, 73, 84
1, 154964, Note_off_c, 0, 73, 71
1, 154968, Note_off_c, 0, 85, 64
1, 154984, Note_on_c, 0, 50, 51
1, 155015, Note_on_c, 0, 56, 52
1, 155018, Note_off_c, 0, 50, 55
1, 155041, Note_on_c, 0, 65, 73
1, 155049, Note_on_c, 0, 83, 94
1, 155057, Note_on_c, 0, 71, 80
1, 155061, Note_off_c, 0, 56, 65
1, 155066, Note_off_c, 0, 65, 68
1, 155072, Note_off_c, 0, 83, 63
1, 155076, Note_off_c, 0, 71, 72
1, 155150, Note_on_c, 0, 80, 93
1, 155151, Note_on_c, 0, 68, 89
1, 155188, Note_off_c, 0, 68, 62
1, 155201, Note_off_c, 0, 80, 62
1, 155265, Note_on_c, 0, 45, 66
1, 155267, Note_on_c, 0, 33, 56
1, 155269, Note_on_c, 0, 78, 92
1, 155273, Control_c, 0, 64, 46
1, 155274, Note_on_c, 0, 66, 75
1, 155288, Control_c, 0, 64, 66
1, 155298, Note_off_c, 0, 33, 55
1, 155298, Note_off_c, 0, 45, 65
1, 155298, Note_off_c, 0, 66, 68
1, 155303, Control_c, 0, 64, 96
1, 155315, Note_off_c, 0, 78, 61
1, 155317, Control_c, 0, 64, 127
1, 155414, Note_on_c, 0, 89, 91
1, 155420, Note_on_c, 0, 77, 77
1, 155435, Note_off_c, 0, 89, 68
1, 155453, Note_off_c, 0, 77, 68
1, 155471, Note_on_c, 0, 54, 55
1, 155516, Note_on_c, 0, 61, 58
1, 155534, Note_on_c, 0, 69, 76
1, 155537, Note_off_c, 0, 54, 62
1, 155550, Note_on_c, 0, 87, 97
1, 155554, Note_on_c, 0, 75, 90
1, 155558, Note_off_c, 0, 69, 70
1, 155566, Note_off_c, 0, 61, 61
1, 155578, Note_off_c, 0, 75, 63
1, 155592, Control_c, 0, 64, 105
1, 155593, Note_off_c, 0, 87, 60
1, 155606, Control_c, 0, 64, 94
1, 155621, Control_c, 0, 64, 83
1, 155636, Control_c, 0, 64, 71
1, 155652, Control_c, 0, 64, 63
1, 155667, Control_c, 0, 64, 52
1, 155682, Note_on_c, 0, 85, 96
1, 155682, Control_c, 0, 64, 41
1, 155689, Note_on_c, 0, 73, 87
1, 155696, Control_c, 0, 64, 30
1, 155709, Note_off_c, 0, 73, 70
1, 155711, Control_c, 0, 64, 0
1, 155725, Note_off_c, 0, 85, 62
1, 155735, Note_on_c, 0, 51, 51
1, 155746, Note_on_c, 0, 57, 41
1, 155815, Note_on_c, 0, 66, 45
1, 155820, Note_off_c, 0, 51, 64
1, 155822, Note_on_c, 0, 81, 90
1, 155829, Note_off_c, 0, 57, 65
1, 155830, Note_on_c, 0, 69, 78
1, 155842, Note_off_c, 0, 66, 37
1, 155851, Note_off_c, 0, 81, 65
1, 155854, Note_off_c, 0, 69, 71
1, 155974, Note_on_c, 0, 77, 88
1, 155984, Note_on_c, 0, 65, 67
1, 156014, Note_off_c, 0, 65, 63
1, 156014, Note_off_c, 0, 77, 57
1, 156040, Note_on_c, 0, 48, 43
1, 156079, Note_on_c, 0, 54, 48
1, 156112, Note_off_c, 0, 48, 59
1, 156159, Note_on_c, 0, 80, 79
1, 156165, Note_off_c, 0, 54, 64
1, 156172, Note_on_c, 0, 68, 49
1, 156205, Note_off_c, 0, 68, 58
1, 156216, Note_off_c, 0, 80, 52
1, 156432, Note_on_c, 0, 78, 59
1, 156453, Note_on_c, 0, 66, 32
1, 156593, Control_c, 0, 64, 24
1, 156604, Note_on_c, 0, 29, 44
1, 156608, Control_c, 0, 64, 55
1, 156623, Control_c, 0, 64, 66
1, 156638, Control_c, 0, 64, 80
1, 156647, Note_off_c, 0, 29, 45
1, 156650, Poly_aftertouch_c, 0, 41, 0
1, 156652, Control_c, 0, 64, 127
1, 156656, Note_off_c, 0, 78, 60
1, 156667, Note_off_c, 0, 66, 40
1, 156687, Poly_aftertouch_c, 0, 41, 0
1, 156788, Note_on_c, 0, 77, 47
1, 156801, Note_on_c, 0, 65, 28
1, 156810, Note_off_c, 0, 77, 59
1, 156837, Note_off_c, 0, 65, 45
1, 156845, Control_c, 0, 64, 111
1, 156860, Control_c, 0, 64, 97
1, 156862, Note_on_c, 0, 49, 45
1, 156875, Control_c, 0, 64, 85
1, 156890, Control_c, 0, 64, 75
1, 156898, Note_on_c, 0, 58, 53
1, 156903, Note_off_c, 0, 49, 63
1, 156904, Control_c, 0, 64, 65
1, 156916, Note_on_c, 0, 64, 62
1, 156919, Control_c, 0, 64, 53
1, 156929, Note_on_c, 0, 78, 64
1, 156929, Note_off_c, 0, 58, 65
1, 156934, Control_c, 0, 64, 29
1, 156951, Note_on_c, 0, 66, 42
1, 156952, Note_off_c, 0, 64, 64
1, 156956, Control_c, 0, 64, 24
1, 156970, Note_off_c, 0, 78, 66
1, 156979, Note_off_c, 0, 66, 52
1, 156985, Control_c, 0, 64, 24
1, 157000, Control_c, 0, 64, 20
1, 157015, Control_c, 0, 64, 12
1, 157030, Control_c, 0, 64, 0
1, 157046, Note_on_c, 0, 79, 58
1, 157060, Note_on_c, 0, 67, 37
1, 157069, Note_off_c, 0, 79, 65
1, 157091, Note_off_c, 0, 67, 45
1, 157116, Note_on_c, 0, 53, 52
1, 157117, Note_on_c, 0, 48, 46
1, 157143, Note_off_c, 0, 48, 55
1, 157155, Note_on_c, 0, 63, 72
1, 157161, Note_on_c, 0, 80, 66
1, 157169, Note_on_c, 0, 68, 51
1, 157170, Note_off_c, 0, 53, 64
1, 157186, Note_off_c, 0, 63, 65
1, 157191, Note_off_c, 0, 80, 65
1, 157192, Note_off_c, 0, 68, 58
1, 157267, Note_on_c, 0, 81, 66
1, 157273, Note_on_c, 0, 69, 55
1, 157295, Note_off_c, 0, 69, 60
1, 157296, Note_off_c, 0, 81, 67
1, 157332, Note_on_c, 0, 57, 51
1, 157333, Note_on_c, 0, 51, 54
1, 157371, Note_on_c, 0, 66, 80
1, 157378, Note_on_c, 0, 82, 72
1, 157379, Note_on_c, 0, 70, 65
1, 157380, Note_off_c, 0, 51, 59
1, 157394, Note_off_c, 0, 57, 65
1, 157403, Note_off_c, 0, 66, 64
1, 157404, Note_off_c, 0, 82, 66
1, 157409, Note_off_c, 0, 70, 67
1, 157486, Note_on_c, 0, 84, 75
1, 157492, Note_on_c, 0, 72, 64
1, 157509, Note_off_c, 0, 84, 70
1, 157516, Note_off_c, 0, 72, 65
1, 157552, Note_on_c, 0, 49, 50
1, 157584, Note_off_c, 0, 49, 65
1, 157596, Note_on_c, 0, 58, 61
1, 157606, Note_on_c, 0, 85, 77
1, 157609, Note_on_c, 0, 65, 74
1, 157611, Note_on_c, 0, 73, 61
1, 157626, Note_off_c, 0, 58, 65
1, 157630, Note_off_c, 0, 73, 64
1, 157635, Note_off_c, 0, 85, 61
1, 157641, Note_off_c, 0, 65, 63
1, 157744, Note_on_c, 0, 89, 80
1, 157748, Note_on_c, 0, 77, 71
1, 157777, Note_off_c, 0, 77, 66
1, 157786, Note_off_c, 0, 89, 59
1, 157832, Note_on_c, 0, 48, 47
1, 157861, Note_on_c, 0, 53, 43
1, 157883, Note_off_c, 0, 48, 53
1, 157896, Note_on_c, 0, 91, 84
1, 157899, Note_on_c, 0, 63, 53
1, 157910, Note_on_c, 0, 79, 56
1, 157913, Note_off_c, 0, 53, 64
1, 157921, Note_off_c, 0, 63, 61
1, 157929, Note_off_c, 0, 79, 63
1, 157948, Note_off_c, 0, 91, 59
1, 158056, Note_on_c, 0, 93, 91
1, 158071, Note_on_c, 0, 81, 64
1, 158091, Note_off_c, 0, 81, 65
1, 158128, Note_off_c, 0, 93, 64
1, 158167, Note_on_c, 0, 46, 34
1, 158208, Note_on_c, 0, 53, 39
1, 158235, Note_on_c, 0, 61, 49
1, 158243, Note_on_c, 0, 94, 83
1, 158273, Note_off_c, 0, 61, 63
1, 158278, Note_on_c, 0, 82, 35
1, 158294, Note_off_c, 0, 53, 61
1, 158303, Note_off_c, 0, 82, 48
1, 158311, Note_off_c, 0, 94, 63
1, 158324, Note_off_c, 0, 46, 38
1, 158493, Note_on_c, 0, 89, 69
1, 158501, Note_on_c, 0, 77, 54
1, 158562, Note_off_c, 0, 77, 63
1, 158596, Note_off_c, 0, 89, 63
1, 158647, Control_c, 0, 64, 11
1, 158662, Control_c, 0, 64, 19
1, 158677, Control_c, 0, 64, 26
1, 158691, Control_c, 0, 64, 33
1, 158706, Control_c, 0, 64, 38
1, 158721, Control_c, 0, 64, 42
1, 158736, Control_c, 0, 64, 46
1, 158750, Control_c, 0, 64, 50
1, 158763, Note_on_c, 0, 22, 34
1, 158765, Control_c, 0, 64, 53
1, 158772, Note_on_c, 0, 85, 45
1, 158780, Control_c, 0, 64, 56
1, 158784, Note_on_c, 0, 73, 34
1, 158795, Control_c, 0, 64, 59
1, 158810, Control_c, 0, 64, 62
1, 158825, Control_c, 0, 64, 64
1, 158840, Control_c, 0, 64, 67
1, 158855, Control_c, 0, 64, 72
1, 158870, Control_c, 0, 64, 79
1, 158885, Control_c, 0, 64, 90
1, 158900, Control_c, 0, 64, 102
1, 158905, Note_off_c, 0, 85, 61
1, 158914, Note_off_c, 0, 73, 42
1, 158914, Control_c, 0, 64, 127
1, 158962, Note_off_c, 0, 22, 39
1, 159201, Note_on_c, 0, 82, 45
1, 159234, Note_on_c, 0, 70, 27
1, 159345, Note_off_c, 0, 70, 38
1, 159358, Note_off_c, 0, 82, 58
1, 159707, Control_c, 0, 64, 121
1, 159722, Control_c, 0, 64, 115
1, 159737, Control_c, 0, 64, 111
1, 159752, Control_c, 0, 64, 107
1, 159767, Control_c, 0, 64, 104
1, 159781, Control_c, 0, 64, 101
1, 159789, Note_on_c, 0, 34, 24
1, 159789, Note_on_c, 0, 46, 32
1, 159796, Control_c, 0, 64, 99
1, 159811, Control_c, 0, 64, 95
1, 159826, Note_on_c, 0, 61, 60
1, 159826, Control_c, 0, 64, 88
1, 159841, Control_c, 0, 64, 77
1, 159856, Control_c, 0, 64, 67
1, 159870, Control_c, 0, 64, 57
1, 159885, Control_c, 0, 64, 46
1, 159900, Control_c, 0, 64, 49
1, 159915, Control_c, 0, 64, 55
1, 159930, Control_c, 0, 64, 60
1, 159951, Control_c, 0, 64, 64
1, 159966, Control_c, 0, 64, 69
1, 159981, Control_c, 0, 64, 79
1, 159996, Control_c, 0, 64, 97
1, 160008, Note_off_c, 0, 34, 40
1, 160011, Control_c, 0, 64, 127
1, 160041, Note_off_c, 0, 46, 54
1, 160234, Note_on_c, 0, 53, 32
1, 160386, Note_on_c, 0, 66, 60
1, 160491, Note_on_c, 0, 54, 31
1, 160551, Note_off_c, 0, 53, 31
1, 160690, Note_on_c, 0, 55, 35
1, 160718, Note_off_c, 0, 54, 41
1, 160738, Note_on_c, 0, 65, 67
1, 160872, Note_off_c, 0, 61, 56
1, 160905, Note_off_c, 0, 55, 39
1, 160932, Note_on_c, 0, 56, 38
1, 160999, Note_on_c, 0, 73, 75
1, 161031, Note_off_c, 0, 56, 55
1, 161079, Note_on_c, 0, 57, 45
1, 161174, Note_off_c, 0, 73, 62
1, 161181, Note_off_c, 0, 66, 37
1, 161213, Note_off_c, 0, 57, 55
1, 161226, Note_on_c, 0, 58, 44
1, 161240, Note_on_c, 0, 72, 79
1, 161294, Control_c, 0, 64, 113
1, 161308, Control_c, 0, 64, 107
1, 161323, Control_c, 0, 64, 104
1, 161338, Control_c, 0, 64, 102
1, 161353, Control_c, 0, 64, 100
1, 161367, Control_c, 0, 64, 99
1, 161382, Control_c, 0, 64, 97
1, 161397, Control_c, 0, 64, 97
1, 161412, Control_c, 0, 64, 96
1, 161424, Note_on_c, 0, 60, 56
1, 161427, Control_c, 0, 64, 95
1, 161449, Control_c, 0, 64, 94
1, 161493, Note_on_c, 0, 69, 82
1, 161494, Control_c, 0, 64, 94
1, 161509, Control_c, 0, 64, 93
1, 161511, Note_off_c, 0, 72, 52
1, 161523, Control_c, 0, 64, 91
1, 161535, Note_off_c, 0, 58, 35
1, 161538, Control_c, 0, 64, 90
1, 161553, Control_c, 0, 64, 89
1, 161567, Control_c, 0, 64, 88
1, 161582, Control_c, 0, 64, 88
1, 161593, Note_on_c, 0, 61, 70
1, 161597, Control_c, 0, 64, 87
1, 161612, Control_c, 0, 64, 86
1, 161627, Control_c, 0, 64, 85
1, 161642, Control_c, 0, 64, 84
1, 161643, Note_off_c, 0, 60, 58
1, 161656, Control_c, 0, 64, 83
1, 161671, Control_c, 0, 64, 82
1, 161686, Control_c, 0, 64, 81
1, 161701, Control_c, 0, 64, 80
1, 161715, Control_c, 0, 64, 79
1, 161730, Control_c, 0, 64, 78
1, 161734, Note_on_c, 0, 62, 60
1, 161736, Note_on_c, 0, 72, 79
1, 161745, Control_c, 0, 64, 77
1, 161759, Control_c, 0, 64, 76
1, 161774, Control_c, 0, 64, 75
1, 161779, Note_off_c, 0, 61, 62
1, 161789, Control_c, 0, 64, 74
1, 161804, Control_c, 0, 64, 73
1, 161819, Control_c, 0, 64, 73
1, 161828, Note_off_c, 0, 69, 61
1, 161833, Control_c, 0, 64, 72
1, 161848, Control_c, 0, 64, 72
1, 161863, Control_c, 0, 64, 70
1, 161867, Note_off_c, 0, 65, 62
1, 161878, Control_c, 0, 64, 69
1, 161893, Control_c, 0, 64, 69
1, 161917, Note_on_c, 0, 63, 66
1, 161937, Control_c, 0, 64, 68
1, 161966, Control_c, 0, 64, 68
1, 161981, Note_on_c, 0, 70, 84
1, 161981, Control_c, 0, 64, 67
1, 161995, Note_off_c, 0, 62, 60
1, 161996, Control_c, 0, 64, 67
1, 162011, Control_c, 0, 64, 66
1, 162023, Note_off_c, 0, 72, 63
1, 162026, Control_c, 0, 64, 65
1, 162056, Control_c, 0, 64, 65
1, 162071, Control_c, 0, 64, 64
1, 162086, Control_c, 0, 64, 64
1, 162088, Note_on_c, 0, 64, 71
1, 162101, Control_c, 0, 64, 63
1, 162130, Control_c, 0, 64, 63
1, 162160, Control_c, 0, 64, 62
1, 162166, Note_off_c, 0, 63, 60
1, 162197, Control_c, 0, 64, 62
1, 162257, Control_c, 0, 64, 61
1, 162295, Note_off_c, 0, 64, 57
1, 162316, Note_on_c, 0, 65, 45
1, 162330, Note_on_c, 0, 68, 73
1, 162360, Control_c, 0, 64, 61
1, 162369, Note_on_c, 0, 61, 49
1, 162390, Control_c, 0, 64, 60
1, 162431, Note_off_c, 0, 70, 63
1, 162434, Control_c, 0, 64, 60
1, 162509, Control_c, 0, 64, 59
1, 162538, Control_c, 0, 64, 59
1, 162551, Note_on_c, 0, 53, 38
1, 162568, Control_c, 0, 64, 58
1, 162597, Control_c, 0, 64, 58
1, 162627, Control_c, 0, 64, 57
1, 162642, Control_c, 0, 64, 57
1, 162671, Control_c, 0, 64, 56
1, 162686, Control_c, 0, 64, 55
1, 162694, Note_off_c, 0, 65, 31
1, 162701, Control_c, 0, 64, 54
1, 162710, Note_on_c, 0, 54, 53
1, 162716, Control_c, 0, 64, 53
1, 162760, Control_c, 0, 64, 54
1, 162789, Control_c, 0, 64, 54
1, 162804, Control_c, 0, 64, 56
1, 162819, Control_c, 0, 64, 57
1, 162835, Control_c, 0, 64, 59
1, 162850, Control_c, 0, 64, 61
1, 162859, Note_on_c, 0, 55, 55
1, 162865, Control_c, 0, 64, 63
1, 162879, Control_c, 0, 64, 64
1, 162894, Control_c, 0, 64, 66
1, 162909, Control_c, 0, 64, 67
1, 162924, Control_c, 0, 64, 68
1, 162976, Control_c, 0, 64, 67
1, 162998, Note_off_c, 0, 53, 41
1, 163006, Control_c, 0, 64, 67
1, 163019, Note_on_c, 0, 56, 60
1, 163020, Control_c, 0, 64, 66
1, 163050, Control_c, 0, 64, 66
1, 163065, Control_c, 0, 64, 65
1, 163094, Control_c, 0, 64, 65
1, 163102, Note_off_c, 0, 54, 31
1, 163109, Control_c, 0, 64, 64
1, 163124, Control_c, 0, 64, 64
1, 163136, Note_off_c, 0, 55, 56
1, 163154, Control_c, 0, 64, 63
1, 163165, Note_on_c, 0, 57, 55
1, 163183, Control_c, 0, 64, 63
1, 163198, Control_c, 0, 64, 62
1, 163242, Control_c, 0, 64, 62
1, 163257, Control_c, 0, 64, 61
1, 163292, Note_off_c, 0, 56, 64
1, 163302, Control_c, 0, 64, 61
1, 163334, Note_on_c, 0, 66, 55
1, 163347, Control_c, 0, 64, 60
1, 163406, Control_c, 0, 64, 60
1, 163465, Control_c, 0, 64, 59
1, 163494, Control_c, 0, 64, 59
1, 163496, Note_on_c, 0, 53, 45
1, 163509, Control_c, 0, 64, 58
1, 163520, Note_off_c, 0, 68, 45
1, 163524, Control_c, 0, 64, 57
1, 163537, Note_off_c, 0, 57, 54
1, 163538, Control_c, 0, 64, 57
1, 163628, Control_c, 0, 64, 58
1, 163643, Control_c, 0, 64, 60
1, 163658, Control_c, 0, 64, 62
1, 163666, Note_off_c, 0, 53, 59
1, 163673, Note_on_c, 0, 52, 47
1, 163673, Control_c, 0, 64, 65
1, 163695, Control_c, 0, 64, 68
1, 163710, Control_c, 0, 64, 74
1, 163725, Control_c, 0, 64, 82
1, 163740, Control_c, 0, 64, 91
1, 163755, Control_c, 0, 64, 92
1, 163770, Control_c, 0, 64, 91
1, 163784, Control_c, 0, 64, 89
1, 163785, Note_off_c, 0, 52, 48
1, 163799, Control_c, 0, 64, 88
1, 163814, Control_c, 0, 64, 87
1, 163829, Control_c, 0, 64, 86
1, 163843, Control_c, 0, 64, 85
1, 163858, Control_c, 0, 64, 84
1, 163873, Control_c, 0, 64, 83
1, 163883, Note_on_c, 0, 51, 42
1, 163886, Note_on_c, 0, 60, 38
1, 163888, Control_c, 0, 64, 81
1, 163903, Control_c, 0, 64, 79
1, 163917, Control_c, 0, 64, 78
1, 163932, Control_c, 0, 64, 77
1, 163940, Note_off_c, 0, 61, 37
1, 163947, Control_c, 0, 64, 76
1, 163961, Control_c, 0, 64, 75
1, 163976, Control_c, 0, 64, 73
1, 163991, Control_c, 0, 64, 72
1, 164006, Control_c, 0, 64, 71
1, 164021, Control_c, 0, 64, 70
1, 164035, Control_c, 0, 64, 68
1, 164050, Control_c, 0, 64, 66
1, 164065, Control_c, 0, 64, 63
1, 164080, Control_c, 0, 64, 58
1, 164095, Control_c, 0, 64, 55
1, 164103, Note_on_c, 0, 45, 32
1, 164110, Control_c, 0, 64, 54
1, 164169, Control_c, 0, 64, 55
1, 164184, Control_c, 0, 64, 56
1, 164190, Note_on_c, 0, 63, 39
1, 164199, Control_c, 0, 64, 59
1, 164214, Control_c, 0, 64, 61
1, 164229, Control_c, 0, 64, 63
1, 164243, Control_c, 0, 64, 65
1, 164258, Control_c, 0, 64, 67
1, 164268, Note_off_c, 0, 60, 55
1, 164273, Control_c, 0, 64, 72
1, 164288, Control_c, 0, 64, 79
1, 164303, Control_c, 0, 64, 85
1, 164315, Note_on_c, 0, 44, 33
1, 164317, Control_c, 0, 64, 89
1, 164322, Note_off_c, 0, 45, 35
1, 164332, Control_c, 0, 64, 91
1, 164376, Control_c, 0, 64, 90
1, 164391, Control_c, 0, 64, 89
1, 164394, Note_off_c, 0, 51, 23
1, 164400, Note_off_c, 0, 66, 32
1, 164406, Control_c, 0, 64, 88
1, 164421, Control_c, 0, 64, 87
1, 164444, Control_c, 0, 64, 86
1, 164458, Control_c, 0, 64, 85
1, 164473, Control_c, 0, 64, 84
1, 164488, Control_c, 0, 64, 82
1, 164503, Control_c, 0, 64, 81
1, 164518, Control_c, 0, 64, 79
1, 164533, Control_c, 0, 64, 77
1, 164538, Note_on_c, 0, 42, 38
1, 164548, Control_c, 0, 64, 72
1, 164563, Control_c, 0, 64, 65
1, 164578, Control_c, 0, 64, 51
1, 164580, Note_off_c, 0, 44, 36
1, 164587, Note_off_c, 0, 63, 58
1, 164593, Control_c, 0, 64, 28
1, 164596, Note_on_c, 0, 58, 35
1, 164599, Note_on_c, 0, 65, 46
1, 164608, Control_c, 0, 64, 22
1, 164637, Control_c, 0, 64, 26
1, 164652, Control_c, 0, 64, 35
1, 164667, Control_c, 0, 64, 47
1, 164682, Control_c, 0, 64, 55
1, 164697, Control_c, 0, 64, 60
1, 164712, Control_c, 0, 64, 64
1, 164727, Control_c, 0, 64, 68
1, 164742, Control_c, 0, 64, 74
1, 164757, Control_c, 0, 64, 85
1, 164760, Note_off_c, 0, 58, 62
1, 164771, Control_c, 0, 64, 99
1, 164779, Note_off_c, 0, 42, 41
1, 164786, Control_c, 0, 64, 127
1, 164898, Note_on_c, 0, 57, 31
1, 164999, Note_on_c, 0, 72, 62
1, 165005, Note_off_c, 0, 65, 58
1, 165074, Note_off_c, 0, 57, 39
1, 165076, Note_on_c, 0, 58, 49
1, 165254, Note_on_c, 0, 60, 50
1, 165269, Note_on_c, 0, 70, 73
1, 165270, Note_off_c, 0, 58, 56
1, 165284, Note_off_c, 0, 72, 62
1, 165288, Note_on_c, 0, 63, 37
1, 165326, Note_off_c, 0, 63, 51
1, 165328, Control_c, 0, 64, 121
1, 165343, Control_c, 0, 64, 114
1, 165357, Control_c, 0, 64, 110
1, 165372, Control_c, 0, 64, 105
1, 165387, Control_c, 0, 64, 101
1, 165402, Control_c, 0, 64, 98
1, 165416, Control_c, 0, 64, 96
1, 165431, Control_c, 0, 64, 95
1, 165440, Note_on_c, 0, 63, 50
1, 165446, Control_c, 0, 64, 94
1, 165460, Control_c, 0, 64, 92
1, 165466, Note_off_c, 0, 60, 47
1, 165475, Control_c, 0, 64, 90
1, 165490, Control_c, 0, 64, 89
1, 165505, Control_c, 0, 64, 88
1, 165520, Control_c, 0, 64, 86
1, 165535, Control_c, 0, 64, 85
1, 165537, Note_on_c, 0, 77, 83
1, 165550, Control_c, 0, 64, 83
1, 165564, Control_c, 0, 64, 81
1, 165579, Control_c, 0, 64, 79
1, 165594, Control_c, 0, 64, 77
1, 165608, Control_c, 0, 64, 76
1, 165623, Control_c, 0, 64, 75
1, 165638, Control_c, 0, 64, 74
1, 165642, Note_on_c, 0, 62, 60
1, 165653, Control_c, 0, 64, 73
1, 165666, Note_off_c, 0, 63, 60
1, 165682, Control_c, 0, 64, 72
1, 165697, Control_c, 0, 64, 72
1, 165756, Control_c, 0, 64, 71
1, 165771, Control_c, 0, 64, 71
1, 165786, Control_c, 0, 64, 69
1, 165789, Note_on_c, 0, 75, 82
1, 165800, Note_on_c, 0, 61, 52
1, 165800, Control_c, 0, 64, 65
1, 165803, Note_on_c, 0, 66, 55
1, 165815, Control_c, 0, 64, 61
1, 165830, Control_c, 0, 64, 58
1, 165839, Note_off_c, 0, 62, 57
1, 165845, Control_c, 0, 64, 57
1, 165849, Note_off_c, 0, 77, 60
1, 165853, Note_off_c, 0, 70, 59
1, 165860, Control_c, 0, 64, 58
1, 165874, Control_c, 0, 64, 61
1, 165889, Control_c, 0, 64, 64
1, 165904, Control_c, 0, 64, 68
1, 165919, Control_c, 0, 64, 76
1, 165942, Control_c, 0, 64, 94
1, 165956, Control_c, 0, 64, 127
1, 165979, Note_on_c, 0, 60, 63
1, 166016, Note_off_c, 0, 61, 60
1, 166056, Note_on_c, 0, 70, 86
1, 166103, Note_off_c, 0, 75, 61
1, 166136, Note_on_c, 0, 54, 64
1, 166203, Note_off_c, 0, 60, 54
1, 166274, Note_off_c, 0, 54, 61
1, 166295, Note_on_c, 0, 58, 66
1, 166302, Note_on_c, 0, 73, 89
1, 166325, Note_on_c, 0, 63, 61
1, 166325, Note_off_c, 0, 58, 65
1, 166339, Note_off_c, 0, 70, 58
1, 166493, Note_on_c, 0, 36, 70
1, 166515, Note_off_c, 0, 73, 62
1, 166542, Note_off_c, 0, 63, 29
1, 166566, Note_on_c, 0, 72, 92
1, 166616, Note_off_c, 0, 36, 62
1, 166616, Note_off_c, 0, 66, 53
1, 166639, Note_on_c, 0, 48, 73
1, 166797, Note_on_c, 0, 41, 70
1, 166801, Note_off_c, 0, 48, 58
1, 166809, Control_c, 0, 64, 116
1, 166824, Control_c, 0, 64, 78
1, 166839, Note_on_c, 0, 70, 85
1, 166840, Control_c, 0, 64, 59
1, 166849, Note_on_c, 0, 63, 70
1, 166853, Note_on_c, 0, 66, 69
1, 166854, Control_c, 0, 64, 0
1, 166899, Control_c, 0, 64, 52
1, 166906, Note_off_c, 0, 72, 57
1, 166914, Control_c, 0, 64, 65
1, 166927, Note_off_c, 0, 41, 64
1, 166929, Control_c, 0, 64, 78
1, 166935, Note_off_c, 0, 63, 56
1, 166943, Control_c, 0, 64, 127
1, 167066, Note_on_c, 0, 60, 51
1, 167076, Note_off_c, 0, 66, 49
1, 167153, Note_on_c, 0, 69, 92
1, 167166, Note_off_c, 0, 70, 59
1, 167247, Note_on_c, 0, 61, 67
1, 167269, Control_c, 0, 64, 118
1, 167284, Control_c, 0, 64, 106
1, 167299, Control_c, 0, 64, 100
1, 167314, Control_c, 0, 64, 95
1, 167328, Control_c, 0, 64, 93
1, 167333, Note_off_c, 0, 60, 34
1, 167343, Control_c, 0, 64, 91
1, 167358, Control_c, 0, 64, 89
1, 167372, Control_c, 0, 64, 86
1, 167387, Control_c, 0, 64, 84
1, 167402, Control_c, 0, 64, 81
1, 167417, Control_c, 0, 64, 79
1, 167439, Control_c, 0, 64, 77
1, 167454, Control_c, 0, 64, 74
1, 167469, Control_c, 0, 64, 72
1, 167476, Note_on_c, 0, 63, 49
1, 167484, Control_c, 0, 64, 71
1, 167499, Control_c, 0, 64, 69
1, 167514, Control_c, 0, 64, 68
1, 167517, Note_on_c, 0, 77, 79
1, 167528, Control_c, 0, 64, 67
1, 167532, Note_on_c, 0, 72, 53
1, 167543, Control_c, 0, 64, 66
1, 167558, Control_c, 0, 64, 65
1, 167573, Control_c, 0, 64, 64
1, 167587, Control_c, 0, 64, 63
1, 167602, Control_c, 0, 64, 60
1, 167617, Control_c, 0, 64, 57
1, 167633, Control_c, 0, 64, 55
1, 167640, Note_off_c, 0, 61, 53
1, 167677, Control_c, 0, 64, 56
1, 167692, Control_c, 0, 64, 58
1, 167707, Control_c, 0, 64, 60
1, 167722, Control_c, 0, 64, 63
1, 167723, Note_on_c, 0, 65, 50
1, 167737, Control_c, 0, 64, 67
1, 167744, Note_off_c, 0, 72, 0
1, 167751, Control_c, 0, 64, 72
1, 167761, Note_off_c, 0, 63, 61
1, 167766, Control_c, 0, 64, 82
1, 167781, Poly_aftertouch_c, 0, 72, 127
1, 167781, Control_c, 0, 64, 104
1, 167782, Note_off_c, 0, 77, 55
1, 167796, Control_c, 0, 64, 127
1, 167810, Note_on_c, 0, 80, 75
1, 167888, Note_on_c, 0, 78, 82
1, 167920, Note_on_c, 0, 66, 53
1, 167942, Note_off_c, 0, 80, 66
1, 167978, Note_off_c, 0, 65, 34
1, 168092, Control_c, 0, 64, 116
1, 168101, Note_off_c, 0, 66, 37
1, 168101, Note_on_c, 0, 77, 82
1, 168105, Note_on_c, 0, 68, 45
1, 168107, Control_c, 0, 64, 112
1, 168122, Control_c, 0, 64, 110
1, 168137, Control_c, 0, 64, 107
1, 168151, Control_c, 0, 64, 105
1, 168155, Note_off_c, 0, 78, 65
1, 168166, Control_c, 0, 64, 102
1, 168188, Control_c, 0, 64, 99
1, 168203, Control_c, 0, 64, 97
1, 168208, Note_off_c, 0, 69, 0
1, 168217, Control_c, 0, 64, 95
1, 168232, Control_c, 0, 64, 94
1, 168245, Poly_aftertouch_c, 0, 69, 127
1, 168247, Control_c, 0, 64, 93
1, 168262, Control_c, 0, 64, 92
1, 168277, Control_c, 0, 64, 91
1, 168292, Control_c, 0, 64, 90
1, 168307, Control_c, 0, 64, 88
1, 168310, Note_off_c, 0, 68, 53
1, 168316, Note_on_c, 0, 66, 43
1, 168322, Control_c, 0, 64, 88
1, 168337, Control_c, 0, 64, 87
1, 168366, Control_c, 0, 64, 87
1, 168381, Control_c, 0, 64, 86
1, 168395, Poly_aftertouch_c, 0, 69, 0
1, 168396, Control_c, 0, 64, 85
1, 168403, Note_on_c, 0, 75, 79
1, 168410, Control_c, 0, 64, 84
1, 168426, Control_c, 0, 64, 84
1, 168438, Poly_aftertouch_c, 0, 72, 0
1, 168441, Control_c, 0, 64, 83
1, 168452, Note_off_c, 0, 77, 60
1, 168471, Control_c, 0, 64, 83
1, 168486, Control_c, 0, 64, 82
1, 168501, Note_off_c, 0, 66, 33
1, 168513, Note_on_c, 0, 61, 40
1, 168515, Control_c, 0, 64, 82
1, 168530, Control_c, 0, 64, 81
1, 168560, Control_c, 0, 64, 81
1, 168575, Control_c, 0, 64, 80
1, 168605, Control_c, 0, 64, 80
1, 168634, Control_c, 0, 64, 79
1, 168664, Control_c, 0, 64, 78
1, 168679, Control_c, 0, 64, 78
1, 168685, Note_on_c, 0, 60, 44
1, 168688, Note_off_c, 0, 61, 34
1, 168692, Note_on_c, 0, 70, 70
1, 168694, Control_c, 0, 64, 77
1, 168708, Control_c, 0, 64, 77
1, 168713, Note_on_c, 0, 63, 44
1, 168723, Control_c, 0, 64, 76
1, 168738, Control_c, 0, 64, 75
1, 168753, Control_c, 0, 64, 74
1, 168768, Control_c, 0, 64, 73
1, 168771, Note_off_c, 0, 75, 63
1, 168782, Control_c, 0, 64, 72
1, 168797, Control_c, 0, 64, 71
1, 168812, Control_c, 0, 64, 70
1, 168826, Control_c, 0, 64, 69
1, 168841, Control_c, 0, 64, 68
1, 168856, Control_c, 0, 64, 67
1, 168871, Control_c, 0, 64, 67
1, 168886, Control_c, 0, 64, 66
1, 168900, Control_c, 0, 64, 65
1, 168915, Control_c, 0, 64, 65
1, 168937, Note_on_c, 0, 54, 35
1, 168953, Control_c, 0, 64, 64
1, 168968, Control_c, 0, 64, 64
1, 168982, Control_c, 0, 64, 63
1, 168997, Control_c, 0, 64, 63
1, 169012, Control_c, 0, 64, 62
1, 169027, Control_c, 0, 64, 61
1, 169040, Note_on_c, 0, 72, 52
1, 169041, Control_c, 0, 64, 60
1, 169056, Note_off_c, 0, 60, 36
1, 169056, Control_c, 0, 64, 59
1, 169071, Control_c, 0, 64, 56
1, 169086, Control_c, 0, 64, 52
1, 169100, Note_off_c, 0, 70, 57
1, 169101, Control_c, 0, 64, 47
1, 169115, Control_c, 0, 64, 44
1, 169130, Control_c, 0, 64, 43
1, 169145, Control_c, 0, 64, 42
1, 169171, Note_on_c, 0, 53, 38
1, 169189, Control_c, 0, 64, 45
1, 169196, Note_off_c, 0, 54, 45
1, 169204, Control_c, 0, 64, 53
1, 169219, Note_off_c, 0, 63, 54
1, 169219, Control_c, 0, 64, 61
1, 169235, Control_c, 0, 64, 68
1, 169249, Control_c, 0, 64, 78
1, 169264, Note_off_c, 0, 53, 61
1, 169264, Control_c, 0, 64, 102
1, 169279, Control_c, 0, 64, 127
1, 169457, Control_c, 0, 64, 107
1, 169472, Control_c, 0, 64, 99
1, 169487, Control_c, 0, 64, 90
1, 169489, Note_on_c, 0, 34, 37
1, 169502, Control_c, 0, 64, 75
1, 169517, Control_c, 0, 64, 62
1, 169523, Note_on_c, 0, 61, 25
1, 169527, Note_on_c, 0, 73, 41
1, 169531, Control_c, 0, 64, 0
1, 169550, Note_off_c, 0, 72, 59
1, 169591, Control_c, 0, 64, 38
1, 169605, Control_c, 0, 64, 58
1, 169620, Control_c, 0, 64, 65
1, 169635, Control_c, 0, 64, 72
1, 169636, Note_off_c, 0, 34, 56
1, 169649, Control_c, 0, 64, 85
1, 169664, Control_c, 0, 64, 113
1, 169687, Control_c, 0, 64, 127
1, 169870, Note_on_c, 0, 53, 25
1, 169992, Note_on_c, 0, 66, 33
1, 170092, Note_on_c, 0, 54, 32
1, 170170, Note_off_c, 0, 53, 40
1, 170245, Note_off_c, 0, 73, 34
1, 170267, Note_on_c, 0, 55, 36
1, 170277, Note_on_c, 0, 65, 42
1, 170296, Note_off_c, 0, 54, 42
1, 170324, Control_c, 0, 64, 123
1, 170339, Control_c, 0, 64, 118
1, 170353, Control_c, 0, 64, 117
1, 170368, Control_c, 0, 64, 116
1, 170383, Control_c, 0, 64, 115
1, 170412, Control_c, 0, 64, 113
1, 170435, Control_c, 0, 64, 113
1, 170441, Note_off_c, 0, 55, 50
1, 170450, Control_c, 0, 64, 111
1, 170465, Control_c, 0, 64, 110
1, 170479, Control_c, 0, 64, 108
1, 170494, Control_c, 0, 64, 106
1, 170497, Note_on_c, 0, 56, 26
1, 170509, Control_c, 0, 64, 104
1, 170524, Control_c, 0, 64, 104
1, 170537, Note_on_c, 0, 73, 56
1, 170539, Control_c, 0, 64, 103
1, 170553, Control_c, 0, 64, 102
1, 170554, Note_off_c, 0, 61, 39
1, 170561, Note_off_c, 0, 66, 34
1, 170568, Control_c, 0, 64, 102
1, 170583, Control_c, 0, 64, 101
1, 170597, Control_c, 0, 64, 100
1, 170608, Note_off_c, 0, 56, 38
1, 170612, Control_c, 0, 64, 99
1, 170627, Control_c, 0, 64, 98
1, 170642, Note_on_c, 0, 57, 38
1, 170642, Control_c, 0, 64, 97
1, 170657, Control_c, 0, 64, 97
1, 170671, Control_c, 0, 64, 96
1, 170686, Control_c, 0, 64, 95
1, 170701, Control_c, 0, 64, 95
1, 170715, Control_c, 0, 64, 93
1, 170718, Note_off_c, 0, 73, 37
1, 170730, Control_c, 0, 64, 91
1, 170745, Control_c, 0, 64, 89
1, 170760, Control_c, 0, 64, 87
1, 170775, Control_c, 0, 64, 86
1, 170780, Note_on_c, 0, 72, 64
1, 170786, Note_on_c, 0, 58, 45
1, 170790, Control_c, 0, 64, 86
1, 170796, Note_off_c, 0, 57, 36
1, 170804, Control_c, 0, 64, 85
1, 170819, Control_c, 0, 64, 84
1, 170835, Control_c, 0, 64, 84
1, 170850, Control_c, 0, 64, 83
1, 170864, Control_c, 0, 64, 83
1, 170894, Control_c, 0, 64, 82
1, 170909, Control_c, 0, 64, 82
1, 170924, Control_c, 0, 64, 81
1, 170939, Control_c, 0, 64, 80
1, 170954, Control_c, 0, 64, 80
1, 170968, Control_c, 0, 64, 79
1, 170969, Note_on_c, 0, 60, 60
1, 170998, Control_c, 0, 64, 79
1, 171013, Control_c, 0, 64, 78
1, 171019, Note_off_c, 0, 72, 59
1, 171020, Note_on_c, 0, 69, 76
1, 171027, Control_c, 0, 64, 78
1, 171042, Control_c, 0, 64, 77
1, 171057, Control_c, 0, 64, 77
1, 171072, Control_c, 0, 64, 76
1, 171082, Note_off_c, 0, 58, 50
1, 171087, Control_c, 0, 64, 76
1, 171101, Control_c, 0, 64, 75
1, 171116, Control_c, 0, 64, 74
1, 171118, Note_on_c, 0, 61, 69
1, 171146, Control_c, 0, 64, 74
1, 171161, Control_c, 0, 64, 73
1, 171183, Control_c, 0, 64, 73
1, 171213, Control_c, 0, 64, 72
1, 171222, Note_off_c, 0, 60, 59
1, 171227, Control_c, 0, 64, 72
1, 171257, Control_c, 0, 64, 71
1, 171265, Note_on_c, 0, 72, 75
1, 171272, Note_on_c, 0, 62, 61
1, 171272, Control_c, 0, 64, 71
1, 171287, Control_c, 0, 64, 70
1, 171301, Control_c, 0, 64, 70
1, 171321, Note_off_c, 0, 61, 62
1, 171331, Control_c, 0, 64, 69
1, 171347, Note_off_c, 0, 69, 63
1, 171361, Control_c, 0, 64, 69
1, 171390, Note_off_c, 0, 65, 56
1, 171419, Control_c, 0, 64, 68
1, 171449, Note_on_c, 0, 63, 71
1, 171505, Note_off_c, 0, 62, 60
1, 171523, Note_on_c, 0, 70, 84
1, 171538, Control_c, 0, 64, 68
1, 171552, Note_off_c, 0, 72, 64
1, 171598, Control_c, 0, 64, 67
1, 171632, Note_on_c, 0, 64, 74
1, 171643, Control_c, 0, 64, 67
1, 171672, Control_c, 0, 64, 66
1, 171702, Control_c, 0, 64, 66
1, 171707, Note_off_c, 0, 63, 57
1, 171732, Control_c, 0, 64, 65
1, 171747, Control_c, 0, 64, 65
1, 171762, Control_c, 0, 64, 64
1, 171777, Control_c, 0, 64, 64
1, 171792, Control_c, 0, 64, 63
1, 171832, Note_off_c, 0, 64, 56
1, 171836, Control_c, 0, 64, 63
1, 171845, Note_on_c, 0, 65, 50
1, 171850, Control_c, 0, 64, 62
1, 171863, Note_on_c, 0, 68, 69
1, 171880, Control_c, 0, 64, 62
1, 171893, Note_on_c, 0, 61, 41
1, 171932, Control_c, 0, 64, 61
1, 171947, Control_c, 0, 64, 61
1, 171976, Control_c, 0, 64, 60
1, 171989, Note_off_c, 0, 70, 57
1, 172006, Control_c, 0, 64, 60
1, 172021, Control_c, 0, 64, 59
1, 172036, Control_c, 0, 64, 59
1, 172050, Control_c, 0, 64, 58
1, 172065, Control_c, 0, 64, 58
1, 172076, Note_on_c, 0, 53, 41
1, 172080, Control_c, 0, 64, 57
1, 172095, Control_c, 0, 64, 56
1, 172154, Control_c, 0, 64, 57
1, 172169, Control_c, 0, 64, 58
1, 172171, Note_off_c, 0, 65, 38
1, 172184, Control_c, 0, 64, 60
1, 172198, Control_c, 0, 64, 61
1, 172213, Control_c, 0, 64, 63
1, 172225, Note_on_c, 0, 54, 54
1, 172228, Control_c, 0, 64, 64
1, 172242, Control_c, 0, 64, 66
1, 172257, Control_c, 0, 64, 68
1, 172272, Control_c, 0, 64, 71
1, 172287, Control_c, 0, 64, 74
1, 172302, Control_c, 0, 64, 80
1, 172316, Control_c, 0, 64, 87
1, 172331, Control_c, 0, 64, 97
1, 172346, Control_c, 0, 64, 109
1, 172361, Control_c, 0, 64, 127
1, 172374, Note_on_c, 0, 55, 64
1, 172432, Note_off_c, 0, 53, 41
1, 172451, Control_c, 0, 64, 121
1, 172465, Control_c, 0, 64, 118
1, 172480, Control_c, 0, 64, 113
1, 172495, Control_c, 0, 64, 108
1, 172510, Control_c, 0, 64, 105
1, 172520, Note_on_c, 0, 56, 79
1, 172525, Control_c, 0, 64, 102
1, 172540, Control_c, 0, 64, 99
1, 172555, Control_c, 0, 64, 96
1, 172570, Control_c, 0, 64, 92
1, 172584, Control_c, 0, 64, 88
1, 172590, Note_off_c, 0, 54, 28
1, 172599, Control_c, 0, 64, 85
1, 172604, Note_off_c, 0, 55, 59
1, 172614, Control_c, 0, 64, 84
1, 172629, Control_c, 0, 64, 83
1, 172644, Control_c, 0, 64, 83
1, 172659, Control_c, 0, 64, 82
1, 172676, Note_on_c, 0, 57, 80
1, 172680, Control_c, 0, 64, 80
1, 172695, Control_c, 0, 64, 78
1, 172710, Control_c, 0, 64, 77
1, 172720, Note_off_c, 0, 56, 64
1, 172725, Control_c, 0, 64, 75
1, 172740, Control_c, 0, 64, 74
1, 172754, Control_c, 0, 64, 74
1, 172769, Control_c, 0, 64, 73
1, 172799, Control_c, 0, 64, 73
1, 172814, Control_c, 0, 64, 72
1, 172829, Control_c, 0, 64, 72
1, 172832, Note_off_c, 0, 68, 59
1, 172844, Control_c, 0, 64, 71
1, 172856, Note_on_c, 0, 58, 58
1, 172859, Control_c, 0, 64, 70
1, 172865, Note_on_c, 0, 66, 88
1, 172873, Control_c, 0, 64, 69
1, 172888, Control_c, 0, 64, 67
1, 172903, Control_c, 0, 64, 64
1, 172914, Note_off_c, 0, 61, 62
1, 172918, Control_c, 0, 64, 59
1, 172933, Control_c, 0, 64, 55
1, 172947, Control_c, 0, 64, 55
1, 172978, Note_off_c, 0, 57, 47
1, 172992, Control_c, 0, 64, 56
1, 173007, Control_c, 0, 64, 58
1, 173021, Control_c, 0, 64, 60
1, 173034, Note_on_c, 0, 51, 66
1, 173036, Control_c, 0, 64, 63
1, 173051, Control_c, 0, 64, 67
1, 173065, Control_c, 0, 64, 72
1, 173080, Control_c, 0, 64, 83
1, 173087, Note_off_c, 0, 58, 62
1, 173095, Control_c, 0, 64, 106
1, 173110, Control_c, 0, 64, 127
1, 173215, Note_on_c, 0, 57, 81
1, 173303, Control_c, 0, 64, 121
1, 173318, Control_c, 0, 64, 110
1, 173333, Control_c, 0, 64, 107
1, 173348, Control_c, 0, 64, 106
1, 173362, Control_c, 0, 64, 104
1, 173377, Control_c, 0, 64, 101
1, 173392, Control_c, 0, 64, 99
1, 173407, Control_c, 0, 64, 95
1, 173430, Control_c, 0, 64, 92
1, 173434, Note_on_c, 0, 58, 67
1, 173444, Control_c, 0, 64, 90
1, 173453, Note_on_c, 0, 78, 95
1, 173459, Control_c, 0, 64, 89
1, 173474, Control_c, 0, 64, 87
1, 173489, Control_c, 0, 64, 86
1, 173503, Control_c, 0, 64, 85
1, 173518, Control_c, 0, 64, 83
1, 173533, Control_c, 0, 64, 81
1, 173546, Note_off_c, 0, 57, 54
1, 173548, Control_c, 0, 64, 78
1, 173563, Control_c, 0, 64, 73
1, 173567, Note_off_c, 0, 51, 26
1, 173575, Note_off_c, 0, 66, 36
1, 173577, Control_c, 0, 64, 69
1, 173592, Control_c, 0, 64, 64
1, 173607, Control_c, 0, 64, 62
1, 173622, Control_c, 0, 64, 61
1, 173637, Control_c, 0, 64, 63
1, 173652, Control_c, 0, 64, 64
1, 173667, Control_c, 0, 64, 66
1, 173676, Note_on_c, 0, 61, 80
1, 173681, Control_c, 0, 64, 69
1, 173696, Control_c, 0, 64, 74
1, 173711, Control_c, 0, 64, 81
1, 173726, Control_c, 0, 64, 91
1, 173738, Note_off_c, 0, 58, 63
1, 173741, Control_c, 0, 64, 108
1, 173753, Note_off_c, 0, 78, 57
1, 173756, Control_c, 0, 64, 127
1, 173868, Note_on_c, 0, 63, 86
1, 173911, Note_off_c, 0, 61, 61
1, 174141, Note_on_c, 0, 65, 60
1, 174141, Control_c, 0, 64, 121
1, 174156, Control_c, 0, 64, 111
1, 174179, Control_c, 0, 64, 107
1, 174191, Note_on_c, 0, 77, 82
1, 174193, Control_c, 0, 64, 104
1, 174208, Control_c, 0, 64, 103
1, 174223, Control_c, 0, 64, 102
1, 174229, Note_on_c, 0, 70, 47
1, 174230, Note_on_c, 0, 66, 42
1, 174238, Control_c, 0, 64, 101
1, 174252, Control_c, 0, 64, 100
1, 174282, Control_c, 0, 64, 99
1, 174285, Note_off_c, 0, 63, 57
1, 174297, Control_c, 0, 64, 97
1, 174312, Control_c, 0, 64, 95
1, 174326, Control_c, 0, 64, 92
1, 174341, Control_c, 0, 64, 89
1, 174356, Control_c, 0, 64, 85
1, 174371, Control_c, 0, 64, 80
1, 174386, Control_c, 0, 64, 71
1, 174400, Control_c, 0, 64, 64
1, 174415, Control_c, 0, 64, 55
1, 174430, Control_c, 0, 64, 51
1, 174445, Control_c, 0, 64, 54
1, 174459, Control_c, 0, 64, 58
1, 174474, Note_on_c, 0, 63, 52
1, 174474, Control_c, 0, 64, 62
1, 174489, Control_c, 0, 64, 65
1, 174504, Control_c, 0, 64, 67
1, 174519, Control_c, 0, 64, 72
1, 174534, Control_c, 0, 64, 81
1, 174543, Note_on_c, 0, 75, 82
1, 174546, Note_off_c, 0, 65, 53
1, 174549, Control_c, 0, 64, 95
1, 174564, Control_c, 0, 64, 127
1, 174573, Note_off_c, 0, 77, 61
1, 174579, Note_off_c, 0, 70, 63
1, 174614, Note_off_c, 0, 66, 57
1, 174656, Note_off_c, 0, 63, 61
1, 174660, Note_on_c, 0, 61, 63
1, 174718, Note_off_c, 0, 61, 60
1, 174723, Note_off_c, 0, 75, 59
1, 174809, Note_on_c, 0, 73, 87
1, 174820, Note_on_c, 0, 58, 55
1, 174854, Note_on_c, 0, 63, 36
1, 174855, Note_on_c, 0, 66, 49
1, 174987, Control_c, 0, 64, 123
1, 175002, Control_c, 0, 64, 119
1, 175006, Note_on_c, 0, 56, 63
1, 175016, Control_c, 0, 64, 118
1, 175022, Note_off_c, 0, 58, 53
1, 175031, Control_c, 0, 64, 116
1, 175046, Control_c, 0, 64, 112
1, 175061, Control_c, 0, 64, 109
1, 175073, Note_on_c, 0, 70, 87
1, 175075, Control_c, 0, 64, 106
1, 175090, Control_c, 0, 64, 102
1, 175094, Note_off_c, 0, 73, 61
1, 175105, Control_c, 0, 64, 100
1, 175115, Note_off_c, 0, 63, 39
1, 175120, Control_c, 0, 64, 98
1, 175124, Note_off_c, 0, 66, 59
1, 175135, Control_c, 0, 64, 97
1, 175164, Control_c, 0, 64, 96
1, 175170, Note_on_c, 0, 54, 71
1, 175179, Control_c, 0, 64, 95
1, 175194, Control_c, 0, 64, 94
1, 175209, Control_c, 0, 64, 92
1, 175223, Control_c, 0, 64, 91
1, 175238, Control_c, 0, 64, 90
1, 175253, Control_c, 0, 64, 90
1, 175276, Note_off_c, 0, 56, 57
1, 175297, Control_c, 0, 64, 89
1, 175312, Control_c, 0, 64, 87
1, 175327, Control_c, 0, 64, 84
1, 175342, Control_c, 0, 64, 77
1, 175357, Control_c, 0, 64, 69
1, 175372, Control_c, 0, 64, 56
1, 175385, Note_on_c, 0, 53, 56
1, 175386, Control_c, 0, 64, 27
1, 175397, Note_on_c, 0, 68, 71
1, 175401, Control_c, 0, 64, 0
1, 175403, Note_on_c, 0, 60, 53
1, 175415, Note_off_c, 0, 54, 64
1, 175421, Note_off_c, 0, 70, 55
1, 175446, Control_c, 0, 64, 23
1, 175461, Control_c, 0, 64, 49
1, 175475, Control_c, 0, 64, 59
1, 175482, Note_off_c, 0, 53, 64
1, 175490, Control_c, 0, 64, 65
1, 175505, Control_c, 0, 64, 72
1, 175520, Control_c, 0, 64, 87
1, 175535, Control_c, 0, 64, 127
1, 175623, Note_off_c, 0, 60, 49
1, 175631, Note_on_c, 0, 32, 40
1, 175735, Control_c, 0, 64, 113
1, 175750, Control_c, 0, 64, 107
1, 175754, Note_off_c, 0, 32, 37
1, 175765, Control_c, 0, 64, 104
1, 175780, Control_c, 0, 64, 101
1, 175795, Note_on_c, 0, 44, 46
1, 175795, Control_c, 0, 64, 99
1, 175810, Control_c, 0, 64, 97
1, 175825, Control_c, 0, 64, 96
1, 175830, Note_off_c, 0, 44, 62
1, 175839, Control_c, 0, 64, 93
1, 175854, Control_c, 0, 64, 92
1, 175869, Control_c, 0, 64, 90
1, 175884, Control_c, 0, 64, 89
1, 175898, Control_c, 0, 64, 88
1, 175913, Control_c, 0, 64, 87
1, 175928, Control_c, 0, 64, 86
1, 175943, Control_c, 0, 64, 84
1, 175955, Note_on_c, 0, 50, 43
1, 175958, Control_c, 0, 64, 82
1, 175972, Control_c, 0, 64, 80
1, 175987, Control_c, 0, 64, 79
1, 176002, Control_c, 0, 64, 78
1, 176017, Control_c, 0, 64, 78
1, 176032, Control_c, 0, 64, 77
1, 176046, Control_c, 0, 64, 77
1, 176061, Control_c, 0, 64, 76
1, 176076, Control_c, 0, 64, 76
1, 176090, Control_c, 0, 64, 75
1, 176105, Control_c, 0, 64, 74
1, 176120, Control_c, 0, 64, 73
1, 176135, Control_c, 0, 64, 72
1, 176144, Note_on_c, 0, 53, 45
1, 176150, Control_c, 0, 64, 71
1, 176164, Control_c, 0, 64, 70
1, 176179, Control_c, 0, 64, 69
1, 176194, Control_c, 0, 64, 69
1, 176209, Control_c, 0, 64, 68
1, 176224, Control_c, 0, 64, 68
1, 176235, Note_on_c, 0, 66, 43
1, 176239, Control_c, 0, 64, 67
1, 176269, Control_c, 0, 64, 67
1, 176283, Control_c, 0, 64, 66
1, 176298, Control_c, 0, 64, 65
1, 176313, Control_c, 0, 64, 64
1, 176317, Note_off_c, 0, 50, 28
1, 176318, Note_on_c, 0, 51, 40
1, 176343, Control_c, 0, 64, 64
1, 176372, Control_c, 0, 64, 63
1, 176387, Control_c, 0, 64, 63
1, 176402, Control_c, 0, 64, 62
1, 176425, Control_c, 0, 64, 62
1, 176426, Note_off_c, 0, 53, 42
1, 176440, Control_c, 0, 64, 61
1, 176455, Control_c, 0, 64, 61
1, 176469, Control_c, 0, 64, 60
1, 176480, Note_off_c, 0, 68, 27
1, 176484, Control_c, 0, 64, 60
1, 176499, Control_c, 0, 64, 59
1, 176506, Note_on_c, 0, 49, 33
1, 176514, Control_c, 0, 64, 59
1, 176523, Note_on_c, 0, 65, 42
1, 176528, Control_c, 0, 64, 58
1, 176543, Control_c, 0, 64, 57
1, 176548, Note_on_c, 0, 61, 34
1, 176549, Note_off_c, 0, 51, 34
1, 176558, Control_c, 0, 64, 56
1, 176573, Control_c, 0, 64, 55
1, 176588, Control_c, 0, 64, 53
1, 176593, Note_off_c, 0, 66, 35
1, 176603, Control_c, 0, 64, 52
1, 176618, Control_c, 0, 64, 52
1, 176677, Control_c, 0, 64, 53
1, 176692, Control_c, 0, 64, 56
1, 176707, Control_c, 0, 64, 58
1, 176721, Control_c, 0, 64, 61
1, 176736, Control_c, 0, 64, 63
1, 176737, Note_on_c, 0, 55, 36
1, 176751, Control_c, 0, 64, 65
1, 176766, Control_c, 0, 64, 70
1, 176781, Control_c, 0, 64, 76
1, 176795, Control_c, 0, 64, 86
1, 176810, Control_c, 0, 64, 99
1, 176815, Note_off_c, 0, 61, 36
1, 176820, Note_on_c, 0, 70, 61
1, 176825, Control_c, 0, 64, 113
1, 176839, Control_c, 0, 64, 119
1, 176853, Note_off_c, 0, 65, 60
1, 176869, Control_c, 0, 64, 118
1, 176884, Control_c, 0, 64, 116
1, 176899, Control_c, 0, 64, 113
1, 176913, Control_c, 0, 64, 110
1, 176916, Note_on_c, 0, 56, 49
1, 176926, Note_off_c, 0, 55, 49
1, 176928, Control_c, 0, 64, 107
1, 176943, Control_c, 0, 64, 105
1, 176958, Control_c, 0, 64, 101
1, 176973, Control_c, 0, 64, 99
1, 176987, Control_c, 0, 64, 95
1, 176991, Note_off_c, 0, 49, 36
1, 177002, Control_c, 0, 64, 93
1, 177017, Control_c, 0, 64, 91
1, 177032, Control_c, 0, 64, 89
1, 177047, Control_c, 0, 64, 87
1, 177062, Control_c, 0, 64, 85
1, 177077, Control_c, 0, 64, 84
1, 177090, Note_on_c, 0, 57, 43
1, 177092, Control_c, 0, 64, 82
1, 177106, Control_c, 0, 64, 80
1, 177107, Note_on_c, 0, 68, 66
1, 177112, Note_on_c, 0, 65, 48
1, 177121, Control_c, 0, 64, 78
1, 177129, Note_off_c, 0, 56, 37
1, 177136, Control_c, 0, 64, 76
1, 177151, Control_c, 0, 64, 75
1, 177173, Control_c, 0, 64, 73
1, 177176, Note_off_c, 0, 70, 60
1, 177187, Control_c, 0, 64, 72
1, 177202, Control_c, 0, 64, 71
1, 177218, Control_c, 0, 64, 70
1, 177233, Control_c, 0, 64, 69
1, 177248, Control_c, 0, 64, 68
1, 177263, Control_c, 0, 64, 67
1, 177278, Control_c, 0, 64, 67
1, 177292, Control_c, 0, 64, 66
1, 177307, Control_c, 0, 64, 66
1, 177322, Control_c, 0, 64, 65
1, 177337, Control_c, 0, 64, 65
1, 177338, Note_on_c, 0, 58, 41
1, 177351, Control_c, 0, 64, 64
1, 177376, Note_off_c, 0, 57, 49
1, 177381, Control_c, 0, 64, 64
1, 177396, Control_c, 0, 64, 63
1, 177411, Control_c, 0, 64, 63
1, 177455, Control_c, 0, 64, 62
1, 177464, Note_on_c, 0, 77, 67
1, 177485, Control_c, 0, 64, 62
1, 177500, Control_c, 0, 64, 61
1, 177515, Control_c, 0, 64, 61
1, 177559, Control_c, 0, 64, 60
1, 177604, Control_c, 0, 64, 60
1, 177614, Note_off_c, 0, 68, 38
1, 177620, Note_on_c, 0, 60, 49
1, 177633, Control_c, 0, 64, 59
1, 177662, Control_c, 0, 64, 59
1, 177692, Control_c, 0, 64, 58
1, 177736, Control_c, 0, 64, 58
1, 177766, Control_c, 0, 64, 57
1, 177781, Control_c, 0, 64, 57
1, 177791, Note_off_c, 0, 58, 59
1, 177796, Control_c, 0, 64, 56
1, 177825, Control_c, 0, 64, 56
1, 177840, Control_c, 0, 64, 55
1, 177855, Control_c, 0, 64, 55
1, 177870, Control_c, 0, 64, 54
1, 177884, Control_c, 0, 64, 54
1, 177899, Control_c, 0, 64, 53
1, 177922, Control_c, 0, 64, 52
1, 177936, Control_c, 0, 64, 52
1, 177948, Note_on_c, 0, 61, 41
1, 177951, Control_c, 0, 64, 51
1, 177966, Control_c, 0, 64, 50
1, 177981, Control_c, 0, 64, 48
1, 177996, Control_c, 0, 64, 48
1, 178012, Control_c, 0, 64, 47
1, 178041, Control_c, 0, 64, 47
1, 178098, Note_off_c, 0, 60, 33
1, 178115, Control_c, 0, 64, 47
1, 178130, Control_c, 0, 64, 48
1, 178145, Control_c, 0, 64, 49
1, 178160, Control_c, 0, 64, 50
1, 178174, Control_c, 0, 64, 52
1, 178189, Control_c, 0, 64, 54
1, 178204, Control_c, 0, 64, 56
1, 178219, Control_c, 0, 64, 57
1, 178234, Control_c, 0, 64, 59
1, 178248, Control_c, 0, 64, 61
1, 178263, Control_c, 0, 64, 63
1, 178266, Note_off_c, 0, 77, 29
1, 178278, Control_c, 0, 64, 65
1, 178281, Note_on_c, 0, 72, 46
1, 178293, Control_c, 0, 64, 67
1, 178308, Control_c, 0, 64, 71
1, 178323, Control_c, 0, 64, 77
1, 178338, Control_c, 0, 64, 86
1, 178352, Control_c, 0, 64, 99
1, 178367, Control_c, 0, 64, 110
1, 178382, Control_c, 0, 64, 118
1, 178388, Note_off_c, 0, 61, 31
1, 178397, Control_c, 0, 64, 123
1, 178456, Control_c, 0, 64, 121
1, 178471, Control_c, 0, 64, 117
1, 178479, Note_on_c, 0, 75, 61
1, 178485, Control_c, 0, 64, 114
1, 178500, Control_c, 0, 64, 111
1, 178515, Note_off_c, 0, 72, 59
1, 178515, Control_c, 0, 64, 107
1, 178530, Control_c, 0, 64, 104
1, 178545, Control_c, 0, 64, 102
1, 178559, Control_c, 0, 64, 100
1, 178574, Control_c, 0, 64, 97
1, 178589, Control_c, 0, 64, 95
1, 178604, Control_c, 0, 64, 92
1, 178619, Control_c, 0, 64, 90
1, 178633, Control_c, 0, 64, 89
1, 178648, Control_c, 0, 64, 88
1, 178671, Control_c, 0, 64, 87
1, 178685, Control_c, 0, 64, 87
1, 178690, Note_on_c, 0, 73, 70
1, 178700, Control_c, 0, 64, 86
1, 178713, Note_off_c, 0, 65, 25
1, 178715, Control_c, 0, 64, 86
1, 178730, Control_c, 0, 64, 85
1, 178745, Control_c, 0, 64, 84
1, 178759, Control_c, 0, 64, 83
1, 178774, Control_c, 0, 64, 82
1, 178789, Control_c, 0, 64, 81
1, 178804, Control_c, 0, 64, 80
1, 178820, Control_c, 0, 64, 79
1, 178835, Control_c, 0, 64, 79
1, 178850, Control_c, 0, 64, 78
1, 178864, Control_c, 0, 64, 78
1, 178879, Control_c, 0, 64, 77
1, 178908, Control_c, 0, 64, 77
1, 178923, Control_c, 0, 64, 76
1, 178929, Note_on_c, 0, 68, 65
1, 178938, Control_c, 0, 64, 76
1, 178953, Control_c, 0, 64, 75
1, 178968, Control_c, 0, 64, 75
1, 178973, Note_off_c, 0, 75, 21
1, 178982, Control_c, 0, 64, 74
1, 178997, Control_c, 0, 64, 74
1, 179012, Control_c, 0, 64, 73
1, 179027, Control_c, 0, 64, 72
1, 179036, Note_off_c, 0, 73, 61
1, 179042, Control_c, 0, 64, 72
1, 179057, Control_c, 0, 64, 71
1, 179086, Control_c, 0, 64, 71
1, 179101, Control_c, 0, 64, 70
1, 179116, Control_c, 0, 64, 70
1, 179130, Control_c, 0, 64, 69
1, 179160, Control_c, 0, 64, 69
1, 179175, Control_c, 0, 64, 68
1, 179190, Control_c, 0, 64, 68
1, 179231, Note_on_c, 0, 70, 57
1, 179235, Control_c, 0, 64, 67
1, 179264, Control_c, 0, 64, 67
1, 179279, Control_c, 0, 64, 66
1, 179308, Control_c, 0, 64, 66
1, 179353, Control_c, 0, 64, 65
1, 179382, Control_c, 0, 64, 65
1, 179395, Note_off_c, 0, 68, 52
1, 179420, Control_c, 0, 64, 64
1, 179449, Control_c, 0, 64, 64
1, 179479, Control_c, 0, 64, 63
1, 179523, Control_c, 0, 64, 63
1, 179568, Control_c, 0, 64, 62
1, 179613, Control_c, 0, 64, 62
1, 179643, Control_c, 0, 64, 61
1, 179645, Note_on_c, 0, 32, 25
1, 179658, Control_c, 0, 64, 61
1, 179673, Control_c, 0, 64, 60
1, 179688, Control_c, 0, 64, 58
1, 179693, Note_on_c, 0, 71, 43
1, 179703, Control_c, 0, 64, 53
1, 179703, Note_off_c, 0, 70, 55
1, 179718, Control_c, 0, 64, 44
1, 179732, Control_c, 0, 64, 24
1, 179747, Control_c, 0, 64, 0
1, 179792, Control_c, 0, 64, 27
1, 179806, Control_c, 0, 64, 51
1, 179821, Control_c, 0, 64, 62
1, 179836, Control_c, 0, 64, 67
1, 179851, Control_c, 0, 64, 77
1, 179854, Note_off_c, 0, 32, 53
1, 179866, Control_c, 0, 64, 95
1, 179881, Control_c, 0, 64, 127
1, 180062, Note_on_c, 0, 51, 36
1, 180132, Control_c, 0, 64, 123
1, 180147, Control_c, 0, 64, 117
1, 180169, Control_c, 0, 64, 114
1, 180184, Control_c, 0, 64, 112
1, 180199, Control_c, 0, 64, 111
1, 180254, Note_off_c, 0, 51, 39
1, 180272, Control_c, 0, 64, 111
1, 180273, Note_on_c, 0, 52, 25
1, 180302, Control_c, 0, 64, 110
1, 180332, Control_c, 0, 64, 110
1, 180391, Control_c, 0, 64, 109
1, 180407, Control_c, 0, 64, 108
1, 180422, Control_c, 0, 64, 108
1, 180436, Control_c, 0, 64, 107
1, 180451, Control_c, 0, 64, 106
1, 180466, Control_c, 0, 64, 105
1, 180514, Note_on_c, 0, 53, 35
1, 180554, Control_c, 0, 64, 105
1, 180584, Control_c, 0, 64, 104
1, 180585, Note_off_c, 0, 52, 25
1, 180606, Note_on_c, 0, 82, 40
1, 180624, Note_on_c, 0, 75, 23
1, 180628, Control_c, 0, 64, 104
1, 180651, Note_off_c, 0, 71, 37
1, 180688, Control_c, 0, 64, 103
1, 180698, Note_off_c, 0, 75, 37
1, 180702, Control_c, 0, 64, 102
1, 180732, Control_c, 0, 64, 101
1, 180761, Control_c, 0, 64, 101
1, 180779, Note_off_c, 0, 82, 36
1, 180791, Control_c, 0, 64, 100
1, 180831, Note_on_c, 0, 80, 53
1, 180861, Note_on_c, 0, 71, 38
1, 180873, Note_off_c, 0, 80, 64
1, 180882, Note_on_c, 0, 56, 22
1, 180912, Note_off_c, 0, 71, 58
1, 180952, Note_off_c, 0, 53, 38
1, 180993, Note_on_c, 0, 78, 66
1, 181005, Note_on_c, 0, 70, 48
1, 181043, Note_off_c, 0, 70, 61
1, 181050, Control_c, 0, 64, 100
1, 181065, Control_c, 0, 64, 99
1, 181080, Control_c, 0, 64, 99
1, 181085, Note_on_c, 0, 58, 32
1, 181095, Control_c, 0, 64, 98
1, 181110, Control_c, 0, 64, 97
1, 181112, Note_off_c, 0, 56, 39
1, 181112, Note_off_c, 0, 78, 50
1, 181123, Note_on_c, 0, 77, 69
1, 181125, Control_c, 0, 64, 96
1, 181140, Control_c, 0, 64, 95
1, 181143, Note_on_c, 0, 68, 47
1, 181155, Control_c, 0, 64, 94
1, 181169, Control_c, 0, 64, 94
1, 181169, Note_off_c, 0, 68, 56
1, 181183, Control_c, 0, 64, 93
1, 181191, Note_off_c, 0, 77, 60
1, 181198, Control_c, 0, 64, 92
1, 181214, Control_c, 0, 64, 90
1, 181229, Control_c, 0, 64, 89
1, 181244, Control_c, 0, 64, 87
1, 181258, Control_c, 0, 64, 84
1, 181273, Control_c, 0, 64, 79
1, 181282, Note_on_c, 0, 59, 33
1, 181287, Note_off_c, 0, 58, 38
1, 181288, Control_c, 0, 64, 72
1, 181303, Note_on_c, 0, 75, 60
1, 181303, Control_c, 0, 64, 65
1, 181318, Control_c, 0, 64, 61
1, 181332, Control_c, 0, 64, 59
1, 181336, Note_on_c, 0, 66, 33
1, 181347, Control_c, 0, 64, 60
1, 181362, Control_c, 0, 64, 61
1, 181376, Control_c, 0, 64, 63
1, 181391, Control_c, 0, 64, 65
1, 181406, Control_c, 0, 64, 67
1, 181421, Control_c, 0, 64, 71
1, 181436, Control_c, 0, 64, 75
1, 181450, Control_c, 0, 64, 81
1, 181465, Control_c, 0, 64, 87
1, 181466, Note_off_c, 0, 66, 52
1, 181471, Note_on_c, 0, 58, 33
1, 181480, Control_c, 0, 64, 91
1, 181495, Control_c, 0, 64, 93
1, 181575, Note_on_c, 0, 73, 73
1, 181593, Note_on_c, 0, 61, 54
1, 181599, Note_off_c, 0, 59, 34
1, 181628, Control_c, 0, 64, 92
1, 181643, Note_off_c, 0, 61, 54
1, 181643, Control_c, 0, 64, 92
1, 181664, Note_on_c, 0, 56, 34
1, 181680, Control_c, 0, 64, 91
1, 181695, Control_c, 0, 64, 91
1, 181709, Control_c, 0, 64, 90
1, 181724, Control_c, 0, 64, 90
1, 181751, Note_off_c, 0, 58, 31
1, 181754, Control_c, 0, 64, 89
1, 181769, Control_c, 0, 64, 89
1, 181784, Control_c, 0, 64, 86
1, 181798, Control_c, 0, 64, 78
1, 181813, Control_c, 0, 64, 70
1, 181814, Note_off_c, 0, 75, 37
1, 181821, Note_on_c, 0, 71, 72
1, 181828, Control_c, 0, 64, 63
1, 181835, Note_on_c, 0, 54, 40
1, 181843, Control_c, 0, 64, 60
1, 181844, Note_off_c, 0, 56, 40
1, 181845, Note_on_c, 0, 63, 47
1, 181858, Control_c, 0, 64, 60
1, 181873, Control_c, 0, 64, 62
1, 181888, Control_c, 0, 64, 64
1, 181903, Control_c, 0, 64, 67
1, 181906, Note_off_c, 0, 63, 53
1, 181917, Control_c, 0, 64, 71
1, 181932, Control_c, 0, 64, 77
1, 181934, Note_off_c, 0, 54, 58
1, 181947, Control_c, 0, 64, 86
1, 181962, Control_c, 0, 64, 100
1, 181977, Control_c, 0, 64, 127
1, 182004, Note_on_c, 0, 53, 42
1, 182010, Note_off_c, 0, 73, 37
1, 182059, Note_on_c, 0, 65, 62
1, 182065, Note_off_c, 0, 71, 61
1, 182149, Note_on_c, 0, 51, 48
1, 182180, Note_off_c, 0, 53, 42
1, 182259, Control_c, 0, 64, 121
1, 182274, Control_c, 0, 64, 113
1, 182288, Control_c, 0, 64, 101
1, 182302, Note_on_c, 0, 49, 36
1, 182303, Control_c, 0, 64, 87
1, 182307, Note_off_c, 0, 51, 34
1, 182318, Control_c, 0, 64, 75
1, 182323, Note_on_c, 0, 70, 59
1, 182324, Note_off_c, 0, 65, 36
1, 182332, Note_on_c, 0, 66, 43
1, 182332, Control_c, 0, 64, 66
1, 182347, Control_c, 0, 64, 58
1, 182362, Control_c, 0, 64, 58
1, 182377, Control_c, 0, 64, 60
1, 182392, Control_c, 0, 64, 62
1, 182414, Control_c, 0, 64, 65
1, 182429, Control_c, 0, 64, 69
1, 182444, Control_c, 0, 64, 75
1, 182452, Note_off_c, 0, 49, 47
1, 182458, Control_c, 0, 64, 83
1, 182473, Control_c, 0, 64, 93
1, 182488, Control_c, 0, 64, 106
1, 182503, Note_on_c, 0, 50, 38
1, 182503, Control_c, 0, 64, 127
1, 182580, Note_off_c, 0, 66, 33
1, 182581, Note_on_c, 0, 68, 63
1, 182598, Note_on_c, 0, 59, 48
1, 182603, Note_off_c, 0, 70, 37
1, 182667, Note_off_c, 0, 50, 41
1, 182683, Note_on_c, 0, 44, 41
1, 182693, Note_off_c, 0, 68, 60
1, 182777, Note_off_c, 0, 44, 53
1, 182799, Control_c, 0, 64, 121
1, 182815, Control_c, 0, 64, 114
1, 182828, Note_on_c, 0, 37, 44
1, 182829, Control_c, 0, 64, 106
1, 182834, Note_on_c, 0, 66, 69
1, 182844, Control_c, 0, 64, 95
1, 182853, Note_on_c, 0, 58, 51
1, 182859, Control_c, 0, 64, 82
1, 182874, Control_c, 0, 64, 70
1, 182889, Control_c, 0, 64, 61
1, 182891, Note_off_c, 0, 59, 52
1, 182903, Control_c, 0, 64, 52
1, 182918, Control_c, 0, 64, 53
1, 182933, Control_c, 0, 64, 56
1, 182948, Control_c, 0, 64, 60
1, 182962, Control_c, 0, 64, 63
1, 182977, Control_c, 0, 64, 65
1, 182992, Control_c, 0, 64, 70
1, 183005, Note_off_c, 0, 37, 60
1, 183007, Control_c, 0, 64, 79
1, 183017, Note_on_c, 0, 38, 46
1, 183022, Control_c, 0, 64, 89
1, 183034, Note_off_c, 0, 66, 61
1, 183036, Control_c, 0, 64, 100
1, 183051, Control_c, 0, 64, 108
1, 183066, Control_c, 0, 64, 113
1, 183081, Control_c, 0, 64, 116
1, 183096, Control_c, 0, 64, 117
1, 183098, Note_on_c, 0, 65, 74
1, 183109, Note_on_c, 0, 59, 63
1, 183140, Control_c, 0, 64, 116
1, 183143, Note_off_c, 0, 58, 62
1, 183162, Control_c, 0, 64, 113
1, 183170, Note_off_c, 0, 38, 47
1, 183177, Control_c, 0, 64, 111
1, 183192, Control_c, 0, 64, 108
1, 183207, Control_c, 0, 64, 106
1, 183215, Note_on_c, 0, 32, 56
1, 183222, Control_c, 0, 64, 103
1, 183236, Control_c, 0, 64, 100
1, 183251, Control_c, 0, 64, 95
1, 183266, Control_c, 0, 64, 91
1, 183280, Control_c, 0, 64, 87
1, 183295, Control_c, 0, 64, 84
1, 183310, Control_c, 0, 64, 82
1, 183325, Control_c, 0, 64, 81
1, 183340, Control_c, 0, 64, 79
1, 183354, Control_c, 0, 64, 77
1, 183369, Control_c, 0, 64, 74
1, 183384, Control_c, 0, 64, 70
1, 183392, Note_on_c, 0, 39, 46
1, 183399, Control_c, 0, 64, 68
1, 183414, Control_c, 0, 64, 66
1, 183428, Note_on_c, 0, 63, 73
1, 183429, Note_on_c, 0, 60, 57
1, 183430, Control_c, 0, 64, 65
1, 183445, Control_c, 0, 64, 63
1, 183460, Control_c, 0, 64, 62
1, 183470, Note_off_c, 0, 59, 55
1, 183474, Control_c, 0, 64, 57
1, 183480, Note_off_c, 0, 65, 54
1, 183489, Control_c, 0, 64, 52
1, 183495, Note_off_c, 0, 32, 50
1, 183504, Control_c, 0, 64, 45
1, 183519, Control_c, 0, 64, 40
1, 183534, Control_c, 0, 64, 40
1, 183563, Control_c, 0, 64, 40
1, 183578, Control_c, 0, 64, 44
1, 183593, Control_c, 0, 64, 49
1, 183598, Note_off_c, 0, 39, 61
1, 183609, Control_c, 0, 64, 54
1, 183624, Control_c, 0, 64, 58
1, 183638, Note_on_c, 0, 44, 52
1, 183639, Control_c, 0, 64, 61
1, 183653, Control_c, 0, 64, 65
1, 183668, Control_c, 0, 64, 72
1, 183683, Control_c, 0, 64, 86
1, 183698, Control_c, 0, 64, 127
1, 183781, Note_on_c, 0, 46, 64
1, 183787, Note_off_c, 0, 44, 36
1, 183881, Note_off_c, 0, 60, 54
1, 183944, Note_on_c, 0, 48, 74
1, 184064, Note_off_c, 0, 46, 34
1, 184109, Note_on_c, 0, 51, 86
1, 184270, Note_off_c, 0, 48, 57
1, 184313, Note_on_c, 0, 56, 89
1, 184368, Note_off_c, 0, 51, 60
1, 184514, Note_off_c, 0, 56, 60
1, 184574, Note_on_c, 0, 57, 83
1, 184586, Note_off_c, 0, 63, 61
1, 184615, Note_on_c, 0, 61, 93
1, 184624, Control_c, 0, 64, 90
1, 184639, Control_c, 0, 64, 68
1, 184662, Control_c, 0, 64, 47
1, 184677, Control_c, 0, 64, 0
1, 184721, Control_c, 0, 64, 11
1, 184735, Control_c, 0, 64, 42
1, 184750, Control_c, 0, 64, 59
1, 184765, Control_c, 0, 64, 67
1, 184768, Note_off_c, 0, 57, 57
1, 184780, Control_c, 0, 64, 80
1, 184795, Control_c, 0, 64, 127
1, 184827, Note_on_c, 0, 42, 70
1, 184837, Note_on_c, 0, 51, 68
1, 184853, Note_off_c, 0, 61, 62
1, 184995, Note_off_c, 0, 42, 58
1, 185021, Note_on_c, 0, 53, 85
1, 185062, Note_off_c, 0, 51, 62
1, 185062, Control_c, 0, 64, 110
1, 185076, Control_c, 0, 64, 101
1, 185091, Control_c, 0, 64, 96
1, 185106, Control_c, 0, 64, 93
1, 185121, Control_c, 0, 64, 91
1, 185135, Control_c, 0, 64, 90
1, 185150, Control_c, 0, 64, 88
1, 185165, Control_c, 0, 64, 87
1, 185180, Control_c, 0, 64, 86
1, 185196, Control_c, 0, 64, 85
1, 185211, Control_c, 0, 64, 83
1, 185225, Control_c, 0, 64, 82
1, 185240, Control_c, 0, 64, 79
1, 185255, Control_c, 0, 64, 76
1, 185270, Control_c, 0, 64, 71
1, 185273, Note_on_c, 0, 54, 63
1, 185285, Control_c, 0, 64, 65
1, 185299, Control_c, 0, 64, 61
1, 185310, Note_off_c, 0, 53, 58
1, 185314, Control_c, 0, 64, 58
1, 185317, Note_on_c, 0, 87, 86
1, 185338, Note_on_c, 0, 81, 65
1, 185343, Control_c, 0, 64, 59
1, 185358, Control_c, 0, 64, 62
1, 185373, Control_c, 0, 64, 65
1, 185388, Control_c, 0, 64, 70
1, 185411, Control_c, 0, 64, 78
1, 185423, Note_off_c, 0, 81, 59
1, 185426, Control_c, 0, 64, 96
1, 185440, Control_c, 0, 64, 127
1, 185442, Note_off_c, 0, 54, 64
1, 185528, Note_off_c, 0, 87, 47
1, 185535, Note_on_c, 0, 85, 89
1, 185543, Note_on_c, 0, 78, 77
1, 185575, Note_off_c, 0, 78, 63
1, 185593, Note_off_c, 0, 85, 64
1, 185616, Note_on_c, 0, 69, 64
1, 185683, Note_on_c, 0, 83, 92
1, 185703, Note_on_c, 0, 75, 65
1, 185719, Note_off_c, 0, 75, 65
1, 185751, Note_off_c, 0, 83, 61
1, 185760, Note_off_c, 0, 69, 62
1, 185775, Note_on_c, 0, 63, 58
1, 185804, Note_on_c, 0, 81, 96
1, 185805, Note_off_c, 0, 63, 65
1, 185814, Note_on_c, 0, 73, 83
1, 185875, Note_off_c, 0, 73, 61
1, 185876, Note_off_c, 0, 81, 65
1, 185972, Note_on_c, 0, 44, 61
1, 185999, Note_on_c, 0, 80, 91
1, 186004, Control_c, 0, 64, 107
1, 186016, Note_on_c, 0, 72, 69
1, 186018, Note_on_c, 0, 68, 71
1, 186019, Control_c, 0, 64, 81
1, 186034, Control_c, 0, 64, 67
1, 186048, Control_c, 0, 64, 58
1, 186063, Control_c, 0, 64, 52
1, 186078, Control_c, 0, 64, 55
1, 186093, Control_c, 0, 64, 58
1, 186108, Control_c, 0, 64, 62
1, 186122, Control_c, 0, 64, 67
1, 186137, Control_c, 0, 64, 75
1, 186159, Control_c, 0, 64, 97
1, 186174, Control_c, 0, 64, 127
1, 186199, Note_on_c, 0, 51, 70
1, 186210, Note_off_c, 0, 80, 63
1, 186225, Note_off_c, 0, 68, 59
1, 186246, Note_off_c, 0, 72, 62
1, 186290, Note_on_c, 0, 78, 99
1, 186295, Note_on_c, 0, 74, 80
1, 186299, Note_on_c, 0, 66, 82
1, 186329, Note_off_c, 0, 44, 52
1, 186390, Note_on_c, 0, 56, 73
1, 186444, Note_off_c, 0, 51, 62
1, 186458, Note_off_c, 0, 78, 55
1, 186499, Note_off_c, 0, 66, 60
1, 186551, Note_on_c, 0, 57, 58
1, 186556, Note_on_c, 0, 77, 93
1, 186562, Note_on_c, 0, 73, 75
1, 186565, Note_on_c, 0, 65, 83
1, 186577, Note_off_c, 0, 56, 58
1, 186595, Note_off_c, 0, 74, 62
1, 186647, Control_c, 0, 64, 114
1, 186662, Control_c, 0, 64, 105
1, 186677, Control_c, 0, 64, 99
1, 186692, Control_c, 0, 64, 93
1, 186706, Control_c, 0, 64, 88
1, 186721, Control_c, 0, 64, 83
1, 186736, Control_c, 0, 64, 78
1, 186751, Control_c, 0, 64, 75
1, 186752, Note_on_c, 0, 58, 73
1, 186766, Control_c, 0, 64, 72
1, 186780, Control_c, 0, 64, 70
1, 186796, Control_c, 0, 64, 69
1, 186797, Note_off_c, 0, 57, 63
1, 186811, Control_c, 0, 64, 67
1, 186826, Control_c, 0, 64, 66
1, 186841, Control_c, 0, 64, 65
1, 186856, Control_c, 0, 64, 65
1, 186885, Control_c, 0, 64, 64
1, 186908, Control_c, 0, 64, 63
1, 186914, Note_on_c, 0, 60, 79
1, 186923, Control_c, 0, 64, 61
1, 186937, Control_c, 0, 64, 55
1, 186952, Control_c, 0, 64, 45
1, 186967, Control_c, 0, 64, 24
1, 186982, Control_c, 0, 64, 0
1, 186985, Note_off_c, 0, 58, 64
1, 187070, Control_c, 0, 64, 23
1, 187075, Note_on_c, 0, 61, 82
1, 187085, Control_c, 0, 64, 50
1, 187100, Control_c, 0, 64, 64
1, 187103, Note_off_c, 0, 60, 64
1, 187115, Control_c, 0, 64, 81
1, 187126, Note_off_c, 0, 61, 65
1, 187130, Control_c, 0, 64, 127
1, 187164, Note_off_c, 0, 65, 60
1, 187186, Note_off_c, 0, 77, 61
1, 187277, Note_on_c, 0, 44, 66
1, 187288, Note_on_c, 0, 32, 39
1, 187313, Note_off_c, 0, 44, 64
1, 187331, Note_off_c, 0, 32, 48
1, 187361, Note_on_c, 0, 82, 85
1, 187373, Note_on_c, 0, 70, 70
1, 187468, Note_on_c, 0, 53, 74
1, 187532, Note_off_c, 0, 70, 61
1, 187532, Note_off_c, 0, 82, 61
1, 187627, Note_on_c, 0, 80, 92
1, 187629, Note_on_c, 0, 68, 88
1, 187631, Note_on_c, 0, 56, 76
1, 187675, Note_off_c, 0, 73, 64
1, 187718, Note_off_c, 0, 68, 63
1, 187814, Note_off_c, 0, 80, 61
1, 187826, Note_on_c, 0, 61, 86
1, 187867, Note_off_c, 0, 53, 61
1, 187903, Note_off_c, 0, 56, 59
1, 187925, Note_on_c, 0, 85, 98
1, 187928, Note_on_c, 0, 73, 96
1, 188001, Note_off_c, 0, 85, 63
1, 188005, Note_off_c, 0, 73, 59
1, 188016, Note_off_c, 0, 61, 60
1, 188031, Note_on_c, 0, 63, 91
1, 188163, Note_off_c, 0, 63, 61
1, 188219, Control_c, 0, 64, 75
1, 188220, Note_on_c, 0, 65, 92
1, 188223, Note_on_c, 0, 69, 97
1, 188223, Note_on_c, 0, 81, 95
1, 188234, Note_on_c, 0, 75, 83
1, 188234, Control_c, 0, 64, 51
1, 188249, Control_c, 0, 64, 0
1, 188264, Control_c, 0, 64, 40
1, 188271, Note_off_c, 0, 65, 66
1, 188279, Control_c, 0, 64, 59
1, 188294, Control_c, 0, 64, 66
1, 188309, Control_c, 0, 64, 78
1, 188324, Control_c, 0, 64, 127
1, 188350, Note_off_c, 0, 81, 66
1, 188365, Note_off_c, 0, 69, 59
1, 188518, Note_on_c, 0, 41, 65
1, 188521, Note_on_c, 0, 29, 61
1, 188572, Note_off_c, 0, 29, 60
1, 188617, Note_off_c, 0, 41, 63
1, 188682, Note_on_c, 0, 85, 95
1, 188705, Note_on_c, 0, 73, 63
1, 188752, Note_off_c, 0, 75, 57
1, 188830, Note_on_c, 0, 51, 74
1, 188959, Note_off_c, 0, 85, 64
1, 188964, Note_off_c, 0, 73, 63
1, 189026, Note_on_c, 0, 57, 68
1, 189036, Note_on_c, 0, 84, 100
1, 189042, Control_c, 0, 64, 117
1, 189045, Note_on_c, 0, 72, 79
1, 189057, Control_c, 0, 64, 102
1, 189072, Control_c, 0, 64, 95
1, 189087, Control_c, 0, 64, 88
1, 189102, Control_c, 0, 64, 82
1, 189117, Control_c, 0, 64, 78
1, 189131, Control_c, 0, 64, 76
1, 189154, Control_c, 0, 64, 77
1, 189168, Control_c, 0, 64, 79
1, 189183, Control_c, 0, 64, 83
1, 189199, Control_c, 0, 64, 92
1, 189214, Control_c, 0, 64, 113
1, 189222, Note_off_c, 0, 72, 51
1, 189229, Control_c, 0, 64, 127
1, 189280, Note_off_c, 0, 51, 37
1, 189298, Note_off_c, 0, 84, 62
1, 189363, Note_on_c, 0, 53, 61
1, 189555, Control_c, 0, 64, 112
1, 189570, Control_c, 0, 64, 105
1, 189573, Note_off_c, 0, 57, 30
1, 189575, Note_on_c, 0, 90, 92
1, 189585, Control_c, 0, 64, 100
1, 189595, Note_on_c, 0, 78, 68
1, 189599, Control_c, 0, 64, 97
1, 189614, Control_c, 0, 64, 95
1, 189629, Control_c, 0, 64, 93
1, 189644, Control_c, 0, 64, 91
1, 189659, Control_c, 0, 64, 88
1, 189673, Control_c, 0, 64, 86
1, 189688, Control_c, 0, 64, 84
1, 189703, Control_c, 0, 64, 82
1, 189718, Control_c, 0, 64, 81
1, 189733, Control_c, 0, 64, 80
1, 189747, Control_c, 0, 64, 79
1, 189762, Control_c, 0, 64, 78
1, 189777, Control_c, 0, 64, 77
1, 189791, Control_c, 0, 64, 77
1, 189821, Control_c, 0, 64, 76
1, 189836, Control_c, 0, 64, 75
1, 189851, Control_c, 0, 64, 74
1, 189865, Control_c, 0, 64, 73
1, 189880, Control_c, 0, 64, 71
1, 189903, Control_c, 0, 64, 70
1, 189912, Note_on_c, 0, 63, 51
1, 189917, Control_c, 0, 64, 69
1, 189932, Control_c, 0, 64, 68
1, 189947, Control_c, 0, 64, 66
1, 189962, Control_c, 0, 64, 64
1, 189977, Control_c, 0, 64, 65
1, 189993, Control_c, 0, 64, 66
1, 190008, Control_c, 0, 64, 70
1, 190017, Note_off_c, 0, 78, 57
1, 190018, Note_off_c, 0, 90, 62
1, 190022, Control_c, 0, 64, 75
1, 190023, Note_off_c, 0, 63, 64
1, 190037, Control_c, 0, 64, 81
1, 190052, Control_c, 0, 64, 90
1, 190067, Control_c, 0, 64, 110
1, 190082, Control_c, 0, 64, 127
1, 190099, Note_off_c, 0, 53, 48
1, 190185, Control_c, 0, 64, 113
1, 190200, Control_c, 0, 64, 105
1, 190215, Control_c, 0, 64, 101
1, 190229, Control_c, 0, 64, 98
1, 190244, Control_c, 0, 64, 96
1, 190259, Control_c, 0, 64, 94
1, 190274, Control_c, 0, 64, 92
1, 190289, Control_c, 0, 64, 89
1, 190303, Control_c, 0, 64, 86
1, 190318, Control_c, 0, 64, 84
1, 190333, Control_c, 0, 64, 82
1, 190348, Control_c, 0, 64, 80
1, 190363, Control_c, 0, 64, 78
1, 190377, Control_c, 0, 64, 76
1, 190392, Control_c, 0, 64, 75
1, 190407, Control_c, 0, 64, 73
1, 190422, Control_c, 0, 64, 73
1, 190437, Control_c, 0, 64, 72
1, 190452, Control_c, 0, 64, 71
1, 190467, Control_c, 0, 64, 69
1, 190482, Control_c, 0, 64, 68
1, 190496, Control_c, 0, 64, 67
1, 190511, Control_c, 0, 64, 67
1, 190540, Control_c, 0, 64, 66
1, 190543, Note_on_c, 0, 34, 36
1, 190555, Control_c, 0, 64, 66
1, 190556, Note_on_c, 0, 46, 31
1, 190570, Control_c, 0, 64, 65
1, 190582, Note_on_c, 0, 61, 47
1, 190585, Control_c, 0, 64, 62
1, 190600, Control_c, 0, 64, 56
1, 190614, Control_c, 0, 64, 48
1, 190629, Control_c, 0, 64, 40
1, 190652, Control_c, 0, 64, 33
1, 190681, Control_c, 0, 64, 36
1, 190696, Control_c, 0, 64, 46
1, 190711, Control_c, 0, 64, 57
1, 190726, Control_c, 0, 64, 63
1, 190733, Note_off_c, 0, 34, 50
1, 190740, Control_c, 0, 64, 68
1, 190755, Control_c, 0, 64, 76
1, 190770, Control_c, 0, 64, 93
1, 190785, Control_c, 0, 64, 127
1, 190792, Note_off_c, 0, 46, 55
1, 191036, Note_on_c, 0, 53, 22
1, 191124, Note_on_c, 0, 66, 40
1, 191257, Note_on_c, 0, 54, 32
1, 191275, Note_off_c, 0, 53, 34
1, 191445, Note_on_c, 0, 55, 31
1, 191457, Note_off_c, 0, 54, 43
1, 191467, Note_on_c, 0, 65, 47
1, 191638, Note_off_c, 0, 55, 44
1, 191677, Note_on_c, 0, 56, 26
1, 191718, Note_off_c, 0, 61, 34
1, 191738, Note_on_c, 0, 73, 57
1, 191783, Note_off_c, 0, 66, 25
1, 191809, Note_off_c, 0, 56, 38
1, 191841, Note_on_c, 0, 57, 32
1, 191927, Note_off_c, 0, 73, 53
1, 191976, Note_on_c, 0, 58, 38
1, 191979, Control_c, 0, 64, 121
1, 191993, Control_c, 0, 64, 119
1, 191996, Note_on_c, 0, 72, 54
1, 192008, Control_c, 0, 64, 118
1, 192023, Control_c, 0, 64, 116
1, 192038, Control_c, 0, 64, 114
1, 192053, Control_c, 0, 64, 113
1, 192068, Control_c, 0, 64, 111
1, 192073, Note_off_c, 0, 57, 34
1, 192083, Control_c, 0, 64, 110
1, 192097, Control_c, 0, 64, 108
1, 192112, Control_c, 0, 64, 107
1, 192127, Control_c, 0, 64, 107
1, 192149, Control_c, 0, 64, 106
1, 192164, Control_c, 0, 64, 106
1, 192179, Control_c, 0, 64, 105
1, 192181, Note_on_c, 0, 60, 53
1, 192193, Control_c, 0, 64, 105
1, 192223, Control_c, 0, 64, 104
1, 192233, Note_off_c, 0, 72, 57
1, 192238, Control_c, 0, 64, 104
1, 192242, Note_on_c, 0, 69, 67
1, 192253, Control_c, 0, 64, 103
1, 192267, Control_c, 0, 64, 102
1, 192282, Control_c, 0, 64, 101
1, 192297, Control_c, 0, 64, 100
1, 192312, Control_c, 0, 64, 99
1, 192327, Control_c, 0, 64, 98
1, 192334, Note_on_c, 0, 61, 60
1, 192342, Control_c, 0, 64, 97
1, 192357, Control_c, 0, 64, 96
1, 192372, Control_c, 0, 64, 95
1, 192387, Control_c, 0, 64, 94
1, 192402, Control_c, 0, 64, 94
1, 192431, Control_c, 0, 64, 93
1, 192446, Control_c, 0, 64, 93
1, 192461, Control_c, 0, 64, 92
1, 192464, Note_off_c, 0, 60, 50
1, 192476, Control_c, 0, 64, 91
1, 192479, Note_off_c, 0, 58, 31
1, 192487, Note_on_c, 0, 72, 69
1, 192490, Control_c, 0, 64, 91
1, 192505, Control_c, 0, 64, 90
1, 192516, Note_on_c, 0, 62, 59
1, 192520, Control_c, 0, 64, 89
1, 192535, Control_c, 0, 64, 88
1, 192561, Note_off_c, 0, 69, 62
1, 192563, Note_off_c, 0, 61, 62
1, 192564, Control_c, 0, 64, 87
1, 192579, Control_c, 0, 64, 86
1, 192594, Control_c, 0, 64, 85
1, 192608, Control_c, 0, 64, 84
1, 192623, Control_c, 0, 64, 84
1, 192638, Control_c, 0, 64, 83
1, 192643, Note_off_c, 0, 65, 46
1, 192653, Control_c, 0, 64, 83
1, 192668, Control_c, 0, 64, 82
1, 192674, Note_on_c, 0, 63, 66
1, 192682, Control_c, 0, 64, 82
1, 192697, Control_c, 0, 64, 81
1, 192712, Control_c, 0, 64, 81
1, 192735, Note_on_c, 0, 70, 82
1, 192739, Note_off_c, 0, 62, 60
1, 192742, Control_c, 0, 64, 80
1, 192756, Control_c, 0, 64, 80
1, 192771, Control_c, 0, 64, 79
1, 192775, Note_off_c, 0, 72, 62
1, 192786, Control_c, 0, 64, 78
1, 192801, Control_c, 0, 64, 77
1, 192816, Control_c, 0, 64, 77
1, 192831, Control_c, 0, 64, 76
1, 192835, Note_on_c, 0, 64, 70
1, 192846, Control_c, 0, 64, 76
1, 192861, Control_c, 0, 64, 75
1, 192875, Control_c, 0, 64, 75
1, 192897, Control_c, 0, 64, 74
1, 192912, Control_c, 0, 64, 73
1, 192914, Note_off_c, 0, 63, 57
1, 192927, Control_c, 0, 64, 72
1, 192942, Control_c, 0, 64, 72
1, 192957, Control_c, 0, 64, 71
1, 192971, Control_c, 0, 64, 70
1, 192986, Control_c, 0, 64, 69
1, 193001, Control_c, 0, 64, 69
1, 193013, Note_off_c, 0, 64, 58
1, 193016, Control_c, 0, 64, 68
1, 193030, Control_c, 0, 64, 68
1, 193045, Control_c, 0, 64, 67
1, 193055, Note_on_c, 0, 65, 41
1, 193058, Note_on_c, 0, 68, 73
1, 193060, Control_c, 0, 64, 67
1, 193075, Control_c, 0, 64, 66
1, 193080, Note_on_c, 0, 61, 48
1, 193090, Control_c, 0, 64, 66
1, 193120, Control_c, 0, 64, 65
1, 193135, Control_c, 0, 64, 65
1, 193157, Note_off_c, 0, 70, 55
1, 193163, Control_c, 0, 64, 64
1, 193178, Control_c, 0, 64, 64
1, 193209, Control_c, 0, 64, 63
1, 193238, Control_c, 0, 64, 63
1, 193253, Control_c, 0, 64, 62
1, 193275, Note_on_c, 0, 53, 40
1, 193283, Control_c, 0, 64, 62
1, 193312, Control_c, 0, 64, 61
1, 193327, Control_c, 0, 64, 61
1, 193342, Control_c, 0, 64, 60
1, 193357, Control_c, 0, 64, 59
1, 193372, Control_c, 0, 64, 58
1, 193386, Control_c, 0, 64, 57
1, 193388, Note_off_c, 0, 65, 39
1, 193401, Control_c, 0, 64, 57
1, 193419, Note_on_c, 0, 54, 49
1, 193460, Control_c, 0, 64, 58
1, 193475, Control_c, 0, 64, 59
1, 193490, Control_c, 0, 64, 61
1, 193505, Control_c, 0, 64, 63
1, 193519, Control_c, 0, 64, 65
1, 193534, Control_c, 0, 64, 68
1, 193549, Control_c, 0, 64, 71
1, 193555, Note_on_c, 0, 55, 51
1, 193564, Control_c, 0, 64, 74
1, 193579, Control_c, 0, 64, 76
1, 193594, Control_c, 0, 64, 77
1, 193624, Control_c, 0, 64, 76
1, 193645, Control_c, 0, 64, 76
1, 193660, Control_c, 0, 64, 75
1, 193675, Control_c, 0, 64, 75
1, 193690, Control_c, 0, 64, 74
1, 193705, Control_c, 0, 64, 73
1, 193719, Control_c, 0, 64, 72
1, 193730, Note_on_c, 0, 56, 51
1, 193734, Control_c, 0, 64, 71
1, 193749, Control_c, 0, 64, 71
1, 193764, Control_c, 0, 64, 70
1, 193764, Note_off_c, 0, 53, 34
1, 193779, Control_c, 0, 64, 69
1, 193794, Control_c, 0, 64, 68
1, 193808, Control_c, 0, 64, 68
1, 193823, Control_c, 0, 64, 67
1, 193838, Control_c, 0, 64, 66
1, 193853, Control_c, 0, 64, 65
1, 193862, Note_off_c, 0, 54, 34
1, 193880, Note_off_c, 0, 55, 37
1, 193883, Control_c, 0, 64, 65
1, 193895, Note_on_c, 0, 57, 48
1, 193912, Control_c, 0, 64, 64
1, 193942, Control_c, 0, 64, 64
1, 193957, Control_c, 0, 64, 63
1, 193987, Control_c, 0, 64, 63
1, 194002, Control_c, 0, 64, 62
1, 194032, Control_c, 0, 64, 62
1, 194040, Note_off_c, 0, 56, 64
1, 194074, Note_on_c, 0, 66, 50
1, 194091, Control_c, 0, 64, 61
1, 194150, Control_c, 0, 64, 61
1, 194239, Control_c, 0, 64, 60
1, 194254, Control_c, 0, 64, 60
1, 194270, Note_on_c, 0, 53, 35
1, 194274, Note_off_c, 0, 68, 51
1, 194283, Control_c, 0, 64, 59
1, 194291, Note_off_c, 0, 57, 51
1, 194313, Control_c, 0, 64, 58
1, 194372, Control_c, 0, 64, 59
1, 194394, Control_c, 0, 64, 60
1, 194409, Control_c, 0, 64, 61
1, 194424, Control_c, 0, 64, 63
1, 194433, Note_on_c, 0, 52, 42
1, 194439, Control_c, 0, 64, 65
1, 194454, Control_c, 0, 64, 67
1, 194457, Note_off_c, 0, 53, 50
1, 194468, Control_c, 0, 64, 72
1, 194483, Control_c, 0, 64, 77
1, 194498, Control_c, 0, 64, 81
1, 194513, Control_c, 0, 64, 83
1, 194542, Control_c, 0, 64, 82
1, 194572, Control_c, 0, 64, 82
1, 194586, Control_c, 0, 64, 81
1, 194590, Note_off_c, 0, 52, 33
1, 194601, Control_c, 0, 64, 80
1, 194616, Control_c, 0, 64, 79
1, 194631, Control_c, 0, 64, 78
1, 194646, Control_c, 0, 64, 77
1, 194655, Note_on_c, 0, 51, 30
1, 194661, Note_on_c, 0, 60, 37
1, 194661, Control_c, 0, 64, 76
1, 194676, Control_c, 0, 64, 75
1, 194691, Control_c, 0, 64, 74
1, 194706, Control_c, 0, 64, 73
1, 194721, Control_c, 0, 64, 72
1, 194736, Control_c, 0, 64, 72
1, 194750, Control_c, 0, 64, 70
1, 194756, Note_off_c, 0, 61, 51
1, 194765, Control_c, 0, 64, 68
1, 194780, Control_c, 0, 64, 65
1, 194796, Control_c, 0, 64, 61
1, 194810, Control_c, 0, 64, 58
1, 194825, Control_c, 0, 64, 57
1, 194855, Control_c, 0, 64, 57
1, 194870, Control_c, 0, 64, 58
1, 194885, Control_c, 0, 64, 59
1, 194888, Note_on_c, 0, 45, 32
1, 194899, Control_c, 0, 64, 60
1, 194914, Control_c, 0, 64, 61
1, 194929, Control_c, 0, 64, 63
1, 194944, Control_c, 0, 64, 64
1, 194959, Control_c, 0, 64, 65
1, 194974, Control_c, 0, 64, 67
1, 194975, Note_on_c, 0, 63, 40
1, 194989, Control_c, 0, 64, 70
1, 195004, Control_c, 0, 64, 73
1, 195018, Control_c, 0, 64, 79
1, 195033, Control_c, 0, 64, 85
1, 195048, Control_c, 0, 64, 90
1, 195063, Control_c, 0, 64, 93
1, 195078, Control_c, 0, 64, 94
1, 195083, Note_off_c, 0, 60, 42
1, 195089, Note_off_c, 0, 45, 40
1, 195104, Note_on_c, 0, 44, 32
1, 195189, Control_c, 0, 64, 93
1, 195198, Note_off_c, 0, 51, 37
1, 195204, Control_c, 0, 64, 92
1, 195218, Control_c, 0, 64, 92
1, 195233, Control_c, 0, 64, 91
1, 195248, Control_c, 0, 64, 90
1, 195263, Control_c, 0, 64, 89
1, 195278, Control_c, 0, 64, 88
1, 195292, Control_c, 0, 64, 87
1, 195302, Note_off_c, 0, 66, 20
1, 195307, Control_c, 0, 64, 85
1, 195322, Control_c, 0, 64, 83
1, 195337, Control_c, 0, 64, 79
1, 195347, Note_on_c, 0, 42, 36
1, 195352, Control_c, 0, 64, 73
1, 195366, Control_c, 0, 64, 66
1, 195381, Control_c, 0, 64, 59
1, 195389, Note_off_c, 0, 44, 36
1, 195396, Control_c, 0, 64, 51
1, 195397, Note_on_c, 0, 65, 39
1, 195397, Note_off_c, 0, 63, 54
1, 195409, Note_on_c, 0, 58, 25
1, 195411, Control_c, 0, 64, 50
1, 195426, Control_c, 0, 64, 51
1, 195441, Control_c, 0, 64, 54
1, 195456, Control_c, 0, 64, 58
1, 195471, Control_c, 0, 64, 61
1, 195485, Control_c, 0, 64, 64
1, 195500, Control_c, 0, 64, 67
1, 195515, Control_c, 0, 64, 71
1, 195530, Control_c, 0, 64, 76
1, 195532, Note_off_c, 0, 58, 56
1, 195545, Control_c, 0, 64, 84
1, 195559, Control_c, 0, 64, 97
1, 195574, Control_c, 0, 64, 127
1, 195582, Note_off_c, 0, 42, 42
1, 195713, Note_on_c, 0, 57, 31
1, 195839, Note_on_c, 0, 72, 52
1, 195895, Note_off_c, 0, 65, 35
1, 195949, Note_off_c, 0, 57, 41
1, 195969, Note_on_c, 0, 58, 39
1, 196056, Control_c, 0, 64, 115
1, 196071, Control_c, 0, 64, 108
1, 196086, Control_c, 0, 64, 104
1, 196101, Control_c, 0, 64, 102
1, 196116, Control_c, 0, 64, 101
1, 196131, Note_off_c, 0, 58, 47
1, 196131, Control_c, 0, 64, 99
1, 196143, Note_on_c, 0, 70, 63
1, 196145, Control_c, 0, 64, 97
1, 196150, Note_on_c, 0, 60, 42
1, 196156, Note_on_c, 0, 63, 37
1, 196160, Control_c, 0, 64, 95
1, 196161, Note_off_c, 0, 72, 60
1, 196175, Control_c, 0, 64, 94
1, 196190, Control_c, 0, 64, 92
1, 196205, Control_c, 0, 64, 90
1, 196220, Control_c, 0, 64, 88
1, 196234, Control_c, 0, 64, 87
1, 196241, Note_off_c, 0, 63, 38
1, 196279, Control_c, 0, 64, 86
1, 196294, Control_c, 0, 64, 85
1, 196308, Control_c, 0, 64, 84
1, 196323, Control_c, 0, 64, 83
1, 196331, Note_on_c, 0, 63, 40
1, 196336, Note_off_c, 0, 60, 34
1, 196338, Control_c, 0, 64, 82
1, 196353, Control_c, 0, 64, 81
1, 196367, Control_c, 0, 64, 81
1, 196384, Control_c, 0, 64, 80
1, 196399, Control_c, 0, 64, 79
1, 196413, Control_c, 0, 64, 78
1, 196428, Control_c, 0, 64, 77
1, 196436, Note_on_c, 0, 77, 72
1, 196443, Control_c, 0, 64, 77
1, 196472, Control_c, 0, 64, 76
1, 196502, Control_c, 0, 64, 76
1, 196517, Control_c, 0, 64, 75
1, 196531, Control_c, 0, 64, 75
1, 196537, Note_on_c, 0, 62, 43
1, 196546, Control_c, 0, 64, 74
1, 196561, Note_off_c, 0, 63, 36
1, 196605, Control_c, 0, 64, 74
1, 196687, Control_c, 0, 64, 73
1, 196701, Note_on_c, 0, 75, 70
1, 196702, Control_c, 0, 64, 72
1, 196717, Note_on_c, 0, 61, 38
1, 196717, Control_c, 0, 64, 69
1, 196732, Control_c, 0, 64, 66
1, 196733, Note_off_c, 0, 62, 38
1, 196739, Note_on_c, 0, 66, 38
1, 196746, Control_c, 0, 64, 62
1, 196761, Control_c, 0, 64, 61
1, 196786, Note_off_c, 0, 77, 56
1, 196791, Control_c, 0, 64, 61
1, 196806, Control_c, 0, 64, 63
1, 196818, Note_off_c, 0, 70, 58
1, 196820, Control_c, 0, 64, 65
1, 196835, Control_c, 0, 64, 67
1, 196850, Control_c, 0, 64, 72
1, 196864, Control_c, 0, 64, 79
1, 196879, Control_c, 0, 64, 93
1, 196894, Control_c, 0, 64, 127
1, 196906, Note_on_c, 0, 60, 44
1, 196971, Note_on_c, 0, 70, 76
1, 196982, Note_off_c, 0, 61, 40
1, 197026, Note_off_c, 0, 75, 61
1, 197080, Note_on_c, 0, 54, 40
1, 197135, Note_off_c, 0, 60, 29
1, 197226, Note_off_c, 0, 54, 35
1, 197241, Note_on_c, 0, 58, 41
1, 197275, Note_off_c, 0, 58, 63
1, 197275, Note_on_c, 0, 73, 75
1, 197307, Note_on_c, 0, 63, 33
1, 197311, Note_off_c, 0, 70, 60
1, 197509, Note_on_c, 0, 36, 47
1, 197588, Note_on_c, 0, 72, 79
1, 197591, Note_off_c, 0, 36, 53
1, 197594, Note_off_c, 0, 66, 56
1, 197637, Note_off_c, 0, 73, 63
1, 197646, Note_off_c, 0, 63, 55
1, 197698, Note_off_c, 0, 72, 62
1, 197723, Note_on_c, 0, 48, 48
1, 197752, Note_off_c, 0, 48, 62
1, 197835, Control_c, 0, 64, 118
1, 197850, Control_c, 0, 64, 113
1, 197865, Control_c, 0, 64, 110
1, 197879, Control_c, 0, 64, 106
1, 197894, Control_c, 0, 64, 102
1, 197909, Control_c, 0, 64, 98
1, 197924, Control_c, 0, 64, 94
1, 197934, Note_on_c, 0, 29, 42
1, 197939, Control_c, 0, 64, 87
1, 197953, Control_c, 0, 64, 77
1, 197954, Note_on_c, 0, 70, 61
1, 197964, Note_on_c, 0, 63, 39
1, 197968, Note_on_c, 0, 58, 38
1, 197968, Control_c, 0, 64, 66
1, 197969, Note_on_c, 0, 66, 42
1, 197984, Control_c, 0, 64, 55
1, 197999, Control_c, 0, 64, 39
1, 198028, Control_c, 0, 64, 42
1, 198043, Control_c, 0, 64, 47
1, 198058, Control_c, 0, 64, 53
1, 198073, Control_c, 0, 64, 58
1, 198088, Control_c, 0, 64, 61
1, 198102, Control_c, 0, 64, 64
1, 198114, Note_off_c, 0, 29, 41
1, 198117, Control_c, 0, 64, 68
1, 198140, Control_c, 0, 64, 73
1, 198155, Control_c, 0, 64, 82
1, 198166, Note_on_c, 0, 41, 45
1, 198170, Control_c, 0, 64, 94
1, 198184, Control_c, 0, 64, 113
1, 198199, Control_c, 0, 64, 127
1, 198199, Note_off_c, 0, 41, 62
1, 198288, Control_c, 0, 64, 119
1, 198302, Control_c, 0, 64, 112
1, 198317, Control_c, 0, 64, 107
1, 198332, Control_c, 0, 64, 104
1, 198347, Control_c, 0, 64, 101
1, 198351, Note_off_c, 0, 58, 40
1, 198362, Control_c, 0, 64, 99
1, 198376, Control_c, 0, 64, 97
1, 198390, Note_off_c, 0, 70, 29
1, 198391, Control_c, 0, 64, 94
1, 198407, Control_c, 0, 64, 92
1, 198422, Control_c, 0, 64, 90
1, 198436, Control_c, 0, 64, 88
1, 198444, Note_on_c, 0, 54, 39
1, 198451, Control_c, 0, 64, 87
1, 198466, Control_c, 0, 64, 85
1, 198481, Control_c, 0, 64, 83
1, 198496, Control_c, 0, 64, 81
1, 198510, Control_c, 0, 64, 80
1, 198525, Control_c, 0, 64, 78
1, 198540, Control_c, 0, 64, 76
1, 198555, Control_c, 0, 64, 75
1, 198570, Control_c, 0, 64, 74
1, 198584, Control_c, 0, 64, 73
1, 198599, Control_c, 0, 64, 72
1, 198614, Control_c, 0, 64, 71
1, 198629, Control_c, 0, 64, 70
1, 198643, Control_c, 0, 64, 69
1, 198658, Control_c, 0, 64, 68
1, 198673, Control_c, 0, 64, 67
1, 198688, Control_c, 0, 64, 66
1, 198703, Control_c, 0, 64, 66
1, 198713, Note_on_c, 0, 57, 33
1, 198713, Note_on_c, 0, 69, 39
1, 198733, Control_c, 0, 64, 65
1, 198748, Control_c, 0, 64, 65
1, 198763, Control_c, 0, 64, 64
1, 198778, Control_c, 0, 64, 64
1, 198793, Control_c, 0, 64, 63
1, 198813, Note_off_c, 0, 66, 38
1, 198822, Control_c, 0, 64, 63
1, 198837, Control_c, 0, 64, 62
1, 198852, Control_c, 0, 64, 62
1, 198889, Control_c, 0, 64, 61
1, 198904, Control_c, 0, 64, 61
1, 198919, Control_c, 0, 64, 60
1, 198948, Control_c, 0, 64, 60
1, 198957, Note_on_c, 0, 53, 38
1, 198963, Control_c, 0, 64, 59
1, 198993, Control_c, 0, 64, 59
1, 199037, Control_c, 0, 64, 58
1, 199042, Note_off_c, 0, 54, 52
1, 199052, Control_c, 0, 64, 58
1, 199083, Note_off_c, 0, 63, 29
1, 199111, Control_c, 0, 64, 57
1, 199156, Control_c, 0, 64, 57
1, 199186, Control_c, 0, 64, 56
1, 199241, Note_on_c, 0, 51, 38
1, 199245, Control_c, 0, 64, 56
1, 199261, Note_off_c, 0, 69, 41
1, 199304, Control_c, 0, 64, 55
1, 199310, Note_off_c, 0, 57, 39
1, 199319, Control_c, 0, 64, 55
1, 199348, Control_c, 0, 64, 54
1, 199407, Control_c, 0, 64, 54
1, 199416, Note_off_c, 0, 53, 36
1, 199451, Control_c, 0, 64, 53
1, 199526, Control_c, 0, 64, 53
1, 199564, Note_on_c, 0, 49, 19
1, 199586, Control_c, 0, 64, 52
1, 199587, Note_on_c, 0, 70, 40
1, 199594, Note_on_c, 0, 58, 27
1, 199660, Note_off_c, 0, 51, 41
1, 199742, Control_c, 0, 64, 52
1, 199854, Note_on_c, 0, 48, 31
1, 199932, Note_off_c, 0, 49, 48
1, 199970, Note_on_c, 0, 63, 47
1, 200038, Control_c, 0, 64, 52
1, 200053, Control_c, 0, 64, 53
1, 200068, Control_c, 0, 64, 54
1, 200082, Control_c, 0, 64, 55
1, 200097, Control_c, 0, 64, 56
1, 200112, Control_c, 0, 64, 57
1, 200127, Control_c, 0, 64, 59
1, 200142, Control_c, 0, 64, 60
1, 200156, Control_c, 0, 64, 62
1, 200163, Note_on_c, 0, 46, 27
1, 200171, Control_c, 0, 64, 64
1, 200186, Control_c, 0, 64, 65
1, 200200, Control_c, 0, 64, 68
1, 200215, Control_c, 0, 64, 71
1, 200230, Control_c, 0, 64, 76
1, 200235, Note_off_c, 0, 58, 49
1, 200245, Control_c, 0, 64, 82
1, 200260, Control_c, 0, 64, 87
1, 200274, Control_c, 0, 64, 91
1, 200289, Control_c, 0, 64, 91
1, 200319, Control_c, 0, 64, 91
1, 200334, Control_c, 0, 64, 90
1, 200349, Control_c, 0, 64, 89
1, 200363, Control_c, 0, 64, 89
1, 200387, Control_c, 0, 64, 88
1, 200402, Control_c, 0, 64, 87
1, 200417, Control_c, 0, 64, 86
1, 200426, Note_off_c, 0, 48, 30
1, 200432, Control_c, 0, 64, 85
1, 200434, Note_on_c, 0, 61, 59
1, 200447, Control_c, 0, 64, 83
1, 200461, Control_c, 0, 64, 82
1, 200476, Control_c, 0, 64, 81
1, 200491, Control_c, 0, 64, 80
1, 200505, Control_c, 0, 64, 79
1, 200520, Control_c, 0, 64, 78
1, 200535, Control_c, 0, 64, 77
1, 200550, Control_c, 0, 64, 76
1, 200565, Control_c, 0, 64, 74
1, 200579, Control_c, 0, 64, 73
1, 200594, Control_c, 0, 64, 72
1, 200609, Control_c, 0, 64, 71
1, 200624, Control_c, 0, 64, 71
1, 200639, Control_c, 0, 64, 70
1, 200653, Control_c, 0, 64, 70
1, 200668, Control_c, 0, 64, 69
1, 200683, Control_c, 0, 64, 69
1, 200698, Control_c, 0, 64, 68
1, 200712, Control_c, 0, 64, 67
1, 200727, Control_c, 0, 64, 67
1, 200739, Note_on_c, 0, 41, 33
1, 200739, Note_off_c, 0, 63, 34
1, 200742, Control_c, 0, 64, 66
1, 200757, Control_c, 0, 64, 66
1, 200772, Control_c, 0, 64, 65
1, 200802, Control_c, 0, 64, 65
1, 200817, Control_c, 0, 64, 64
1, 200831, Control_c, 0, 64, 64
1, 200861, Control_c, 0, 64, 63
1, 200876, Control_c, 0, 64, 63
1, 200905, Control_c, 0, 64, 62
1, 200934, Note_off_c, 0, 46, 43
1, 200935, Control_c, 0, 64, 62
1, 200950, Control_c, 0, 64, 61
1, 200979, Control_c, 0, 64, 61
1, 201009, Control_c, 0, 64, 60
1, 201018, Note_on_c, 0, 66, 41
1, 201038, Control_c, 0, 64, 60
1, 201068, Control_c, 0, 64, 59
1, 201083, Control_c, 0, 64, 59
1, 201112, Control_c, 0, 64, 58
1, 201135, Control_c, 0, 64, 58
1, 201150, Control_c, 0, 64, 57
1, 201165, Control_c, 0, 64, 57
1, 201180, Control_c, 0, 64, 56
1, 201195, Control_c, 0, 64, 56
1, 201225, Control_c, 0, 64, 55
1, 201240, Control_c, 0, 64, 55
1, 201254, Control_c, 0, 64, 54
1, 201284, Control_c, 0, 64, 54
1, 201299, Control_c, 0, 64, 53
1, 201323, Note_on_c, 0, 34, 25
1, 201328, Control_c, 0, 64, 53
1, 201343, Control_c, 0, 64, 52
1, 201358, Control_c, 0, 64, 51
1, 201373, Control_c, 0, 64, 50
1, 201388, Control_c, 0, 64, 49
1, 201398, Note_off_c, 0, 61, 25
1, 201401, Control_c, 0, 64, 49
1, 201416, Control_c, 0, 64, 47
1, 201431, Control_c, 0, 64, 46
1, 201446, Control_c, 0, 64, 44
1, 201460, Control_c, 0, 64, 43
1, 201475, Control_c, 0, 64, 42
1, 201490, Control_c, 0, 64, 41
1, 201505, Control_c, 0, 64, 40
1, 201520, Control_c, 0, 64, 40
1, 201526, Note_off_c, 0, 41, 37
1, 201624, Control_c, 0, 64, 41
1, 201639, Control_c, 0, 64, 44
1, 201653, Control_c, 0, 64, 48
1, 201668, Control_c, 0, 64, 53
1, 201683, Control_c, 0, 64, 57
1, 201684, Note_off_c, 0, 70, 37
1, 201698, Control_c, 0, 64, 60
1, 201713, Control_c, 0, 64, 63
1, 201727, Control_c, 0, 64, 66
1, 201742, Control_c, 0, 64, 69
1, 201750, Note_off_c, 0, 34, 44
1, 201750, Note_off_c, 0, 66, 38
1, 201757, Control_c, 0, 64, 74
1, 201772, Control_c, 0, 64, 79
1, 201787, Control_c, 0, 64, 83
1, 201801, Control_c, 0, 64, 84
1, 201831, Control_c, 0, 64, 83
1, 201860, Control_c, 0, 64, 83
1, 201883, Control_c, 0, 64, 82
1, 201898, Control_c, 0, 64, 81
1, 201913, Control_c, 0, 64, 80
1, 201927, Control_c, 0, 64, 79
1, 201942, Control_c, 0, 64, 78
1, 201957, Control_c, 0, 64, 77
1, 201973, Control_c, 0, 64, 75
1, 201988, Control_c, 0, 64, 74
1, 202003, Control_c, 0, 64, 72
1, 202018, Control_c, 0, 64, 71
1, 202032, Control_c, 0, 64, 70
1, 202047, Control_c, 0, 64, 68
1, 202062, Control_c, 0, 64, 66
1, 202076, Control_c, 0, 64, 65
1, 202091, Control_c, 0, 64, 64
1, 202106, Control_c, 0, 64, 63
1, 202121, Control_c, 0, 64, 62
1, 202136, Control_c, 0, 64, 60
1, 202151, Control_c, 0, 64, 58
1, 202166, Control_c, 0, 64, 56
1, 202181, Control_c, 0, 64, 54
1, 202196, Control_c, 0, 64, 51
1, 202211, Control_c, 0, 64, 48
1, 202225, Control_c, 0, 64, 44
1, 202240, Control_c, 0, 64, 40
1, 202255, Control_c, 0, 64, 34
1, 202270, Control_c, 0, 64, 26
1, 202284, Control_c, 0, 64, 15
1, 202299, Control_c, 0, 64, 0
1, 202656, Note_on_c, 0, 58, 42
1, 202749, Note_off_c, 0, 58, 60
1, 202760, Note_on_c, 0, 73, 54
1, 202762, Note_on_c, 0, 89, 65
1, 202763, Note_on_c, 0, 65, 44
1, 202770, Note_on_c, 0, 77, 49
1, 202783, Note_off_c, 0, 73, 62
1, 202788, Note_off_c, 0, 65, 59
1, 202793, Note_off_c, 0, 77, 57
1, 202794, Note_off_c, 0, 89, 65
1, 202880, Note_on_c, 0, 58, 48
1, 202933, Note_off_c, 0, 58, 60
1, 202958, Note_on_c, 0, 72, 46
1, 202958, Note_on_c, 0, 91, 70
1, 202959, Note_on_c, 0, 64, 44
1, 202969, Note_on_c, 0, 79, 51
1, 202981, Note_off_c, 0, 72, 57
1, 202983, Note_off_c, 0, 64, 59
1, 202987, Note_off_c, 0, 91, 67
1, 202988, Note_off_c, 0, 79, 61
1, 203041, Note_on_c, 0, 58, 56
1, 203111, Note_off_c, 0, 58, 60
1, 203132, Note_on_c, 0, 63, 58
1, 203138, Note_on_c, 0, 71, 55
1, 203142, Note_on_c, 0, 93, 76
1, 203148, Note_on_c, 0, 81, 57
1, 203158, Note_off_c, 0, 71, 61
1, 203165, Note_off_c, 0, 63, 65
1, 203165, Note_off_c, 0, 93, 71
1, 203166, Note_off_c, 0, 81, 65
1, 203237, Note_on_c, 0, 58, 61
1, 203286, Note_off_c, 0, 58, 60
1, 203312, Note_on_c, 0, 94, 78
1, 203312, Note_on_c, 0, 61, 46
1, 203313, Note_on_c, 0, 70, 44
1, 203317, Note_on_c, 0, 82, 59
1, 203335, Note_off_c, 0, 82, 64
1, 203336, Note_off_c, 0, 94, 69
1, 203339, Note_off_c, 0, 70, 56
1, 203340, Note_off_c, 0, 61, 58
1, 203412, Note_on_c, 0, 57, 60
1, 203478, Note_off_c, 0, 57, 64
1, 203485, Note_on_c, 0, 61, 63
1, 203489, Note_on_c, 0, 70, 59
1, 203496, Note_on_c, 0, 95, 92
1, 203502, Note_on_c, 0, 83, 66
1, 203517, Note_off_c, 0, 61, 64
1, 203518, Note_off_c, 0, 83, 65
1, 203519, Note_off_c, 0, 70, 66
1, 203531, Note_off_c, 0, 95, 62
1, 203587, Note_on_c, 0, 56, 66
1, 203662, Note_on_c, 0, 96, 106
1, 203666, Note_on_c, 0, 61, 64
1, 203668, Note_on_c, 0, 70, 64
1, 203669, Note_on_c, 0, 84, 86
1, 203669, Note_off_c, 0, 56, 65
1, 203687, Note_off_c, 0, 84, 73
1, 203698, Note_off_c, 0, 61, 64
1, 203698, Note_off_c, 0, 70, 67
1, 203705, Note_off_c, 0, 96, 66
1, 203750, Note_on_c, 0, 55, 63
1, 203817, Note_off_c, 0, 55, 58
1, 203838, Note_on_c, 0, 70, 74
1, 203838, Note_on_c, 0, 97, 103
1, 203840, Note_on_c, 0, 60, 65
1, 203844, Note_on_c, 0, 85, 90
1, 203860, Note_off_c, 0, 70, 70
1, 203865, Note_off_c, 0, 85, 69
1, 203869, Note_off_c, 0, 60, 66
1, 203879, Note_off_c, 0, 97, 64
1, 203928, Note_on_c, 0, 54, 68
1, 203985, Note_off_c, 0, 54, 63
1, 204003, Note_on_c, 0, 60, 63
1, 204014, Note_on_c, 0, 94, 106
1, 204021, Note_on_c, 0, 70, 63
1, 204024, Note_on_c, 0, 82, 79
1, 204038, Note_off_c, 0, 60, 66
1, 204040, Note_off_c, 0, 70, 65
1, 204044, Note_off_c, 0, 82, 71
1, 204055, Note_off_c, 0, 94, 64
1, 204105, Note_on_c, 0, 54, 69
1, 204149, Note_off_c, 0, 54, 64
1, 204194, Note_on_c, 0, 61, 65
1, 204197, Note_on_c, 0, 70, 62
1, 204198, Note_on_c, 0, 89, 97
1, 204202, Note_on_c, 0, 77, 78
1, 204224, Note_off_c, 0, 61, 65
1, 204226, Note_off_c, 0, 77, 69
1, 204227, Note_off_c, 0, 70, 68
1, 204227, Note_off_c, 0, 89, 62
1, 204297, Note_on_c, 0, 54, 62
1, 204328, Note_off_c, 0, 54, 66
1, 204341, Note_on_c, 0, 56, 35
1, 204374, Note_off_c, 0, 56, 49
1, 204379, Note_on_c, 0, 63, 59
1, 204382, Note_on_c, 0, 87, 83
1, 204384, Note_on_c, 0, 75, 76
1, 204388, Note_on_c, 0, 70, 56
1, 204406, Note_off_c, 0, 75, 69
1, 204406, Note_off_c, 0, 87, 68
1, 204412, Note_off_c, 0, 63, 65
1, 204416, Note_off_c, 0, 70, 64
1, 204473, Note_on_c, 0, 54, 60
1, 204510, Note_off_c, 0, 54, 65
1, 204546, Note_on_c, 0, 63, 61
1, 204556, Note_on_c, 0, 84, 69
1, 204558, Note_on_c, 0, 70, 58
1, 204558, Note_on_c, 0, 72, 58
1, 204577, Note_off_c, 0, 63, 66
1, 204578, Note_off_c, 0, 72, 63
1, 204580, Note_off_c, 0, 70, 63
1, 204581, Note_off_c, 0, 84, 70
1, 204653, Note_on_c, 0, 53, 62
1, 204688, Note_off_c, 0, 53, 59
1, 204692, Control_c, 0, 64, 35
1, 204707, Control_c, 0, 64, 66
1, 204722, Control_c, 0, 64, 94
1, 204737, Control_c, 0, 64, 127
1, 204740, Note_on_c, 0, 63, 46
1, 204743, Note_on_c, 0, 69, 56
1, 204747, Note_on_c, 0, 89, 67
1, 204751, Control_c, 0, 64, 110
1, 204756, Note_on_c, 0, 77, 41
1, 204764, Note_off_c, 0, 63, 56
1, 204766, Note_off_c, 0, 69, 60
1, 204766, Note_off_c, 0, 89, 65
1, 204766, Control_c, 0, 64, 71
1, 204781, Note_off_c, 0, 77, 51
1, 204781, Control_c, 0, 64, 46
1, 204796, Control_c, 0, 64, 0
1, 204859, Note_on_c, 0, 58, 56
1, 204921, Note_off_c, 0, 58, 61
1, 204955, Note_on_c, 0, 65, 47
1, 204955, Note_on_c, 0, 89, 63
1, 204960, Note_on_c, 0, 73, 59
1, 204974, Note_off_c, 0, 89, 64
1, 204980, Note_off_c, 0, 65, 59
1, 204980, Note_off_c, 0, 73, 64
1, 205047, Note_on_c, 0, 58, 57
1, 205051, Note_on_c, 0, 77, 58
1, 205073, Note_off_c, 0, 77, 63
1, 205120, Note_off_c, 0, 58, 61
1, 205130, Note_on_c, 0, 64, 60
1, 205142, Note_on_c, 0, 91, 67
1, 205145, Note_on_c, 0, 72, 44
1, 205160, Note_off_c, 0, 91, 64
1, 205160, Note_off_c, 0, 64, 65
1, 205172, Note_off_c, 0, 72, 54
1, 205237, Note_on_c, 0, 79, 48
1, 205237, Note_on_c, 0, 58, 48
1, 205259, Note_off_c, 0, 79, 59
1, 205291, Note_off_c, 0, 58, 62
1, 205305, Note_on_c, 0, 63, 58
1, 205308, Note_on_c, 0, 93, 75
1, 205311, Note_on_c, 0, 71, 55
1, 205333, Note_off_c, 0, 71, 63
1, 205335, Note_off_c, 0, 93, 65
1, 205340, Note_off_c, 0, 63, 62
1, 205404, Note_on_c, 0, 58, 62
1, 205407, Note_on_c, 0, 81, 59
1, 205425, Note_off_c, 0, 81, 64
1, 205472, Note_off_c, 0, 58, 63
1, 205485, Note_on_c, 0, 61, 59
1, 205491, Note_on_c, 0, 94, 80
1, 205495, Note_on_c, 0, 70, 51
1, 205517, Note_off_c, 0, 70, 61
1, 205523, Note_off_c, 0, 61, 61
1, 205542, Note_off_c, 0, 94, 61
1, 205582, Note_on_c, 0, 82, 66
1, 205583, Note_on_c, 0, 57, 63
1, 205609, Note_off_c, 0, 82, 67
1, 205655, Note_off_c, 0, 57, 62
1, 205667, Note_on_c, 0, 61, 64
1, 205667, Note_on_c, 0, 95, 94
1, 205670, Note_on_c, 0, 70, 58
1, 205695, Note_off_c, 0, 61, 65
1, 205696, Note_off_c, 0, 70, 64
1, 205707, Note_off_c, 0, 95, 64
1, 205756, Note_on_c, 0, 83, 91
1, 205762, Note_on_c, 0, 56, 61
1, 205789, Note_off_c, 0, 83, 65
1, 205836, Note_on_c, 0, 61, 65
1, 205845, Note_on_c, 0, 96, 93
1, 205845, Note_off_c, 0, 56, 52
1, 205846, Note_on_c, 0, 95, 88
1, 205850, Note_on_c, 0, 70, 66
1, 205868, Note_off_c, 0, 61, 66
1, 205878, Note_off_c, 0, 70, 67
1, 205881, Note_off_c, 0, 96, 66
1, 205887, Note_off_c, 0, 95, 65
1, 205934, Note_on_c, 0, 55, 69
1, 205938, Note_on_c, 0, 84, 90
1, 205972, Note_off_c, 0, 84, 68
1, 206013, Note_off_c, 0, 55, 52
1, 206022, Note_on_c, 0, 63, 74
1, 206026, Note_on_c, 0, 97, 101
1, 206035, Note_on_c, 0, 70, 64
1, 206051, Note_off_c, 0, 63, 65
1, 206063, Note_off_c, 0, 70, 67
1, 206066, Note_off_c, 0, 97, 65
1, 206115, Note_on_c, 0, 85, 91
1, 206120, Note_on_c, 0, 61, 72
1, 206145, Note_off_c, 0, 85, 66
1, 206197, Note_off_c, 0, 61, 57
1, 206203, Note_on_c, 0, 94, 107
1, 206214, Note_on_c, 0, 63, 61
1, 206214, Note_on_c, 0, 70, 58
1, 206234, Note_off_c, 0, 70, 64
1, 206245, Note_off_c, 0, 63, 64
1, 206252, Note_off_c, 0, 94, 63
1, 206292, Note_on_c, 0, 56, 64
1, 206293, Note_on_c, 0, 82, 90
1, 206313, Note_off_c, 0, 56, 65
1, 206327, Note_off_c, 0, 82, 66
1, 206388, Note_on_c, 0, 66, 69
1, 206391, Note_on_c, 0, 73, 69
1, 206396, Note_on_c, 0, 89, 91
1, 206416, Note_off_c, 0, 66, 66
1, 206417, Note_off_c, 0, 73, 65
1, 206419, Note_off_c, 0, 89, 64
1, 206478, Note_on_c, 0, 65, 62
1, 206484, Note_on_c, 0, 77, 82
1, 206509, Note_off_c, 0, 77, 69
1, 206558, Note_off_c, 0, 65, 50
1, 206570, Note_on_c, 0, 66, 62
1, 206571, Note_on_c, 0, 72, 60
1, 206571, Note_on_c, 0, 87, 93
1, 206597, Note_off_c, 0, 72, 65
1, 206602, Note_off_c, 0, 66, 65
1, 206611, Note_off_c, 0, 87, 59
1, 206665, Note_on_c, 0, 75, 83
1, 206679, Note_on_c, 0, 61, 63
1, 206704, Note_off_c, 0, 75, 62
1, 206728, Note_off_c, 0, 61, 56
1, 206755, Note_on_c, 0, 65, 58
1, 206761, Note_on_c, 0, 73, 58
1, 206768, Note_on_c, 0, 89, 89
1, 206790, Note_off_c, 0, 65, 64
1, 206790, Note_off_c, 0, 73, 65
1, 206806, Note_off_c, 0, 89, 65
1, 206859, Note_on_c, 0, 61, 69
1, 206873, Note_on_c, 0, 77, 73
1, 206895, Note_off_c, 0, 61, 62
1, 206896, Control_c, 0, 64, 26
1, 206902, Note_off_c, 0, 77, 64
1, 206911, Control_c, 0, 64, 57
1, 206926, Control_c, 0, 64, 72
1, 206940, Control_c, 0, 64, 127
1, 206962, Note_on_c, 0, 89, 91
1, 206968, Note_on_c, 0, 77, 83
1, 206977, Note_on_c, 0, 68, 73
1, 206984, Note_off_c, 0, 89, 67
1, 206985, Control_c, 0, 64, 101
1, 206988, Note_off_c, 0, 77, 72
1, 207000, Control_c, 0, 64, 68
1, 207002, Note_off_c, 0, 68, 68
1, 207014, Control_c, 0, 64, 0
1, 207088, Note_on_c, 0, 58, 83
1, 207126, Control_c, 0, 64, 29
1, 207136, Note_off_c, 0, 58, 62
1, 207141, Control_c, 0, 64, 67
1, 207155, Control_c, 0, 64, 127
1, 207191, Note_on_c, 0, 94, 101
1, 207196, Note_on_c, 0, 82, 88
1, 207200, Control_c, 0, 64, 75
1, 207205, Note_on_c, 0, 77, 82
1, 207210, Note_on_c, 0, 68, 69
1, 207215, Control_c, 0, 64, 30
1, 207219, Note_off_c, 0, 82, 67
1, 207226, Note_off_c, 0, 77, 68
1, 207227, Note_off_c, 0, 68, 63
1, 207229, Control_c, 0, 64, 0
1, 207233, Note_off_c, 0, 94, 64
1, 207237, Note_on_c, 0, 67, 42
1, 207260, Note_off_c, 0, 67, 57
1, 207273, Control_c, 0, 64, 37
1, 207288, Control_c, 0, 64, 62
1, 207303, Control_c, 0, 64, 74
1, 207318, Control_c, 0, 64, 127
1, 207324, Note_on_c, 0, 58, 76
1, 207348, Control_c, 0, 64, 123
1, 207356, Note_off_c, 0, 58, 66
1, 207363, Control_c, 0, 64, 69
1, 207378, Control_c, 0, 64, 0
1, 207404, Note_on_c, 0, 95, 106
1, 207407, Note_on_c, 0, 66, 67
1, 207408, Note_on_c, 0, 83, 100
1, 207422, Note_on_c, 0, 75, 62
1, 207435, Note_off_c, 0, 83, 68
1, 207439, Note_off_c, 0, 75, 63
1, 207442, Note_off_c, 0, 95, 67
1, 207450, Note_off_c, 0, 66, 58
1, 207514, Note_on_c, 0, 58, 71
1, 207577, Note_off_c, 0, 58, 63
1, 207589, Note_on_c, 0, 65, 66
1, 207595, Note_on_c, 0, 92, 103
1, 207600, Note_on_c, 0, 80, 89
1, 207601, Note_on_c, 0, 73, 70
1, 207629, Note_off_c, 0, 65, 65
1, 207629, Note_off_c, 0, 73, 67
1, 207631, Note_off_c, 0, 80, 66
1, 207637, Note_off_c, 0, 92, 66
1, 207696, Note_on_c, 0, 58, 65
1, 207758, Note_off_c, 0, 58, 59
1, 207771, Note_on_c, 0, 63, 60
1, 207778, Note_on_c, 0, 87, 88
1, 207783, Note_on_c, 0, 71, 63
1, 207784, Note_on_c, 0, 75, 72
1, 207809, Note_off_c, 0, 75, 69
1, 207811, Note_off_c, 0, 63, 63
1, 207811, Note_off_c, 0, 71, 67
1, 207818, Note_off_c, 0, 87, 58
1, 207888, Note_on_c, 0, 58, 58
1, 207959, Note_off_c, 0, 58, 62
1, 207960, Note_on_c, 0, 62, 60
1, 207965, Note_on_c, 0, 70, 61
1, 207968, Note_on_c, 0, 89, 83
1, 207976, Note_on_c, 0, 77, 69
1, 207989, Note_off_c, 0, 62, 64
1, 207993, Note_off_c, 0, 89, 66
1, 207995, Note_off_c, 0, 70, 66
1, 208003, Note_off_c, 0, 77, 64
1, 208066, Control_c, 0, 64, 63
1, 208069, Note_on_c, 0, 57, 64
1, 208081, Control_c, 0, 64, 76
1, 208096, Control_c, 0, 64, 127
1, 208097, Note_off_c, 0, 57, 66
1, 208126, Control_c, 0, 64, 107
1, 208141, Control_c, 0, 64, 68
1, 208156, Control_c, 0, 64, 0
1, 208158, Note_on_c, 0, 63, 55
1, 208159, Note_on_c, 0, 73, 60
1, 208160, Note_on_c, 0, 90, 64
1, 208167, Note_on_c, 0, 78, 52
1, 208176, Note_off_c, 0, 73, 63
1, 208186, Note_off_c, 0, 63, 63
1, 208188, Note_off_c, 0, 78, 59
1, 208188, Note_off_c, 0, 90, 67
1, 208244, Control_c, 0, 64, 52
1, 208257, Note_on_c, 0, 56, 64
1, 208259, Control_c, 0, 64, 65
1, 208274, Control_c, 0, 64, 80
1, 208288, Control_c, 0, 64, 127
1, 208293, Note_off_c, 0, 56, 68
1, 208318, Control_c, 0, 64, 92
1, 208333, Control_c, 0, 64, 60
1, 208348, Control_c, 0, 64, 0
1, 208357, Note_on_c, 0, 63, 55
1, 208360, Note_on_c, 0, 92, 74
1, 208364, Note_on_c, 0, 72, 47
1, 208373, Note_on_c, 0, 80, 48
1, 208384, Note_off_c, 0, 63, 63
1, 208387, Note_off_c, 0, 92, 68
1, 208389, Note_off_c, 0, 72, 57
1, 208394, Note_off_c, 0, 80, 57
1, 208423, Control_c, 0, 64, 9
1, 208438, Control_c, 0, 64, 56
1, 208453, Control_c, 0, 64, 67
1, 208459, Note_on_c, 0, 56, 48
1, 208467, Control_c, 0, 64, 84
1, 208482, Control_c, 0, 64, 127
1, 208490, Note_off_c, 0, 56, 65
1, 208511, Control_c, 0, 64, 85
1, 208526, Control_c, 0, 64, 48
1, 208541, Control_c, 0, 64, 0
1, 208552, Note_on_c, 0, 73, 64
1, 208558, Note_on_c, 0, 65, 50
1, 208564, Note_on_c, 0, 94, 88
1, 208573, Note_on_c, 0, 82, 62
1, 208575, Note_off_c, 0, 73, 65
1, 208588, Note_off_c, 0, 65, 64
1, 208591, Note_off_c, 0, 82, 63
1, 208596, Note_off_c, 0, 94, 59
1, 208671, Note_on_c, 0, 56, 59
1, 208707, Note_off_c, 0, 56, 65
1, 208758, Note_on_c, 0, 63, 61
1, 208770, Note_on_c, 0, 72, 52
1, 208773, Note_on_c, 0, 90, 86
1, 208785, Note_on_c, 0, 78, 68
1, 208790, Note_off_c, 0, 63, 64
1, 208790, Note_off_c, 0, 72, 60
1, 208803, Note_off_c, 0, 78, 65
1, 208809, Note_off_c, 0, 90, 63
1, 208880, Note_on_c, 0, 56, 52
1, 208967, Note_off_c, 0, 56, 60
1, 208988, Note_on_c, 0, 85, 65
1, 208990, Note_on_c, 0, 61, 47
1, 208999, Note_on_c, 0, 73, 40
1, 209017, Note_off_c, 0, 85, 66
1, 209017, Note_off_c, 0, 61, 61
1, 209027, Note_off_c, 0, 73, 46
1, 209112, Note_on_c, 0, 56, 40
1, 209179, Note_off_c, 0, 56, 58
1, 209218, Note_on_c, 0, 60, 46
1, 209226, Note_on_c, 0, 87, 58
1, 209228, Note_on_c, 0, 68, 42
1, 209237, Note_on_c, 0, 75, 44
1, 209252, Note_off_c, 0, 60, 63
1, 209255, Note_off_c, 0, 68, 58
1, 209256, Note_off_c, 0, 87, 62
1, 209259, Note_off_c, 0, 75, 55
1, 209352, Note_on_c, 0, 57, 53
1, 209427, Note_off_c, 0, 57, 61
1, 209431, Control_c, 0, 64, 29
1, 209446, Control_c, 0, 64, 59
1, 209461, Control_c, 0, 64, 73
1, 209476, Control_c, 0, 64, 105
1, 209490, Control_c, 0, 64, 127
1, 209497, Note_on_c, 0, 89, 57
1, 209500, Note_on_c, 0, 77, 47
1, 209502, Note_on_c, 0, 72, 49
1, 209504, Note_on_c, 0, 65, 38
1, 209518, Note_off_c, 0, 89, 62
1, 209520, Control_c, 0, 64, 81
1, 209523, Note_off_c, 0, 77, 56
1, 209524, Note_off_c, 0, 72, 58
1, 209533, Note_off_c, 0, 65, 52
1, 209535, Control_c, 0, 64, 61
1, 209549, Control_c, 0, 64, 0
1, 209645, Note_on_c, 0, 58, 41
1, 209652, Note_on_c, 0, 77, 45
1, 209682, Note_off_c, 0, 77, 61
1, 209726, Note_off_c, 0, 58, 60
1, 209752, Note_on_c, 0, 65, 54
1, 209759, Note_on_c, 0, 73, 60
1, 209759, Note_on_c, 0, 89, 65
1, 209789, Note_off_c, 0, 89, 65
1, 209789, Note_off_c, 0, 73, 65
1, 209790, Note_off_c, 0, 65, 61
1, 209855, Note_on_c, 0, 58, 59
1, 209860, Note_on_c, 0, 77, 58
1, 209887, Note_off_c, 0, 77, 63
1, 209924, Note_off_c, 0, 58, 58
1, 209944, Note_on_c, 0, 64, 51
1, 209950, Note_on_c, 0, 91, 68
1, 209956, Note_on_c, 0, 72, 48
1, 209978, Note_off_c, 0, 64, 64
1, 209978, Note_off_c, 0, 72, 58
1, 209981, Note_off_c, 0, 91, 67
1, 210045, Note_on_c, 0, 58, 52
1, 210056, Note_on_c, 0, 79, 38
1, 210084, Note_off_c, 0, 79, 50
1, 210103, Note_off_c, 0, 58, 55
1, 210128, Note_on_c, 0, 63, 56
1, 210136, Note_on_c, 0, 93, 66
1, 210138, Note_on_c, 0, 71, 52
1, 210159, Note_off_c, 0, 71, 62
1, 210159, Note_off_c, 0, 93, 66
1, 210165, Note_off_c, 0, 63, 61
1, 210229, Note_on_c, 0, 81, 53
1, 210230, Note_on_c, 0, 58, 60
1, 210248, Note_off_c, 0, 81, 61
1, 210288, Note_off_c, 0, 58, 61
1, 210306, Note_on_c, 0, 61, 53
1, 210313, Note_on_c, 0, 94, 70
1, 210319, Note_on_c, 0, 70, 47
1, 210344, Note_off_c, 0, 70, 58
1, 210344, Note_off_c, 0, 61, 63
1, 210347, Note_off_c, 0, 94, 63
1, 210397, Note_on_c, 0, 82, 67
1, 210408, Note_on_c, 0, 57, 57
1, 210426, Note_off_c, 0, 82, 67
1, 210467, Note_off_c, 0, 57, 60
1, 210487, Note_on_c, 0, 61, 66
1, 210487, Note_on_c, 0, 70, 61
1, 210490, Note_on_c, 0, 95, 91
1, 210517, Note_off_c, 0, 70, 66
1, 210519, Note_off_c, 0, 61, 64
1, 210529, Note_off_c, 0, 95, 63
1, 210581, Note_on_c, 0, 83, 94
1, 210585, Note_on_c, 0, 56, 67
1, 210619, Note_off_c, 0, 83, 64
1, 210667, Note_on_c, 0, 61, 63
1, 210671, Note_on_c, 0, 70, 70
1, 210671, Note_on_c, 0, 96, 102
1, 210672, Note_off_c, 0, 56, 56
1, 210695, Note_off_c, 0, 61, 66
1, 210696, Note_off_c, 0, 70, 68
1, 210714, Note_off_c, 0, 96, 66
1, 210766, Note_on_c, 0, 55, 71
1, 210776, Note_on_c, 0, 84, 75
1, 210797, Note_on_c, 0, 86, 36
1, 210797, Note_off_c, 0, 84, 72
1, 210823, Note_off_c, 0, 86, 49
1, 210829, Note_off_c, 0, 55, 51
1, 210853, Note_on_c, 0, 70, 79
1, 210857, Note_on_c, 0, 60, 68
1, 210857, Note_on_c, 0, 97, 96
1, 210883, Note_off_c, 0, 70, 70
1, 210892, Note_off_c, 0, 60, 67
1, 210913, Note_off_c, 0, 97, 65
1, 210960, Note_on_c, 0, 85, 88
1, 210963, Note_on_c, 0, 54, 68
1, 210989, Note_off_c, 0, 85, 67
1, 211008, Note_off_c, 0, 54, 64
1, 211038, Note_on_c, 0, 60, 50
1, 211050, Note_on_c, 0, 94, 99
1, 211056, Note_on_c, 0, 70, 73
1, 211077, Note_off_c, 0, 60, 65
1, 211081, Note_off_c, 0, 70, 70
1, 211102, Note_off_c, 0, 94, 63
1, 211145, Note_on_c, 0, 82, 80
1, 211151, Note_on_c, 0, 53, 73
1, 211172, Note_off_c, 0, 82, 65
1, 211176, Note_off_c, 0, 53, 67
1, 211241, Note_on_c, 0, 61, 65
1, 211243, Note_on_c, 0, 70, 70
1, 211246, Note_on_c, 0, 89, 91
1, 211266, Note_off_c, 0, 70, 64
1, 211266, Note_off_c, 0, 61, 66
1, 211282, Note_off_c, 0, 89, 65
1, 211338, Note_on_c, 0, 77, 73
1, 211351, Note_on_c, 0, 53, 57
1, 211365, Note_off_c, 0, 77, 68
1, 211379, Note_off_c, 0, 53, 62
1, 211444, Note_on_c, 0, 91, 88
1, 211449, Note_on_c, 0, 70, 73
1, 211464, Note_on_c, 0, 60, 40
1, 211473, Note_off_c, 0, 70, 71
1, 211485, Note_off_c, 0, 91, 65
1, 211493, Note_off_c, 0, 60, 35
1, 211565, Note_on_c, 0, 53, 51
1, 211569, Note_on_c, 0, 79, 68
1, 211598, Note_off_c, 0, 53, 64
1, 211598, Note_off_c, 0, 79, 68
1, 211662, Note_on_c, 0, 60, 59
1, 211675, Note_on_c, 0, 93, 89
1, 211676, Note_on_c, 0, 69, 62
1, 211697, Note_off_c, 0, 60, 65
1, 211704, Note_off_c, 0, 69, 65
1, 211717, Note_off_c, 0, 93, 65
1, 211795, Note_on_c, 0, 53, 60
1, 211796, Note_on_c, 0, 81, 77
1, 211822, Note_off_c, 0, 53, 63
1, 211822, Note_off_c, 0, 81, 67
1, 211906, Note_on_c, 0, 94, 88
1, 211911, Note_on_c, 0, 61, 69
1, 211914, Note_on_c, 0, 70, 55
1, 211935, Note_off_c, 0, 70, 60
1, 211938, Note_off_c, 0, 61, 66
1, 211959, Note_off_c, 0, 94, 62
1, 212059, Note_on_c, 0, 41, 107
1, 212063, Control_c, 0, 64, 57
1, 212072, Note_on_c, 0, 82, 72
1, 212078, Control_c, 0, 64, 127
1, 212083, Note_off_c, 0, 41, 69
1, 212095, Note_off_c, 0, 82, 69
1, 212317, Note_on_c, 0, 46, 73
1, 212324, Note_on_c, 0, 34, 93
1, 212329, Control_c, 0, 64, 79
1, 212344, Control_c, 0, 64, 0
1, 212427, Control_c, 0, 64, 35
1, 212435, Note_on_c, 0, 53, 79
1, 212441, Control_c, 0, 64, 62
1, 212456, Control_c, 0, 64, 74
1, 212470, Note_off_c, 0, 34, 64
1, 212471, Control_c, 0, 64, 127
1, 212505, Note_off_c, 0, 46, 63
1, 212526, Note_on_c, 0, 61, 84
1, 212573, Note_off_c, 0, 53, 61
1, 212609, Note_on_c, 0, 65, 86
1, 212634, Note_off_c, 0, 61, 61
1, 212667, Note_off_c, 0, 65, 67
1, 212729, Note_on_c, 0, 46, 96
1, 212729, Note_on_c, 0, 58, 102
1, 212821, Note_on_c, 0, 65, 84
1, 212916, Note_on_c, 0, 73, 89
1, 212917, Note_off_c, 0, 58, 60
1, 212959, Note_off_c, 0, 65, 61
1, 212985, Note_off_c, 0, 73, 65
1, 212998, Note_on_c, 0, 77, 86
1, 213034, Note_off_c, 0, 77, 55
1, 213082, Note_on_c, 0, 75, 76
1, 213112, Note_on_c, 0, 77, 89
1, 213133, Note_off_c, 0, 75, 59
1, 213167, Note_on_c, 0, 75, 75
1, 213204, Note_off_c, 0, 77, 62
1, 213216, Note_off_c, 0, 46, 55
1, 213236, Note_on_c, 0, 73, 82
1, 213278, Note_on_c, 0, 57, 77
1, 213280, Note_on_c, 0, 45, 73
1, 213297, Note_on_c, 0, 70, 86
1, 213299, Note_off_c, 0, 75, 62
1, 213303, Note_off_c, 0, 57, 68
1, 213313, Note_off_c, 0, 45, 67
1, 213329, Note_off_c, 0, 73, 65
1, 213357, Note_off_c, 0, 70, 66
1, 213372, Note_on_c, 0, 65, 81
1, 213414, Note_off_c, 0, 65, 64
1, 213501, Control_c, 0, 64, 76
1, 213508, Note_on_c, 0, 45, 86
1, 213516, Note_on_c, 0, 33, 73
1, 213516, Control_c, 0, 64, 42
1, 213530, Control_c, 0, 64, 0
1, 213546, Note_on_c, 0, 43, 33
1, 213547, Note_off_c, 0, 43, 127
1, 213554, Note_on_c, 0, 31, 6
1, 213555, Note_off_c, 0, 31, 127
1, 213599, Note_on_c, 0, 53, 82
1, 213605, Control_c, 0, 64, 34
1, 213620, Control_c, 0, 64, 53
1, 213631, Note_off_c, 0, 33, 62
1, 213634, Control_c, 0, 64, 62
1, 213649, Control_c, 0, 64, 69
1, 213664, Note_off_c, 0, 45, 61
1, 213664, Control_c, 0, 64, 83
1, 213679, Control_c, 0, 64, 127
1, 213691, Note_on_c, 0, 61, 85
1, 213712, Note_off_c, 0, 53, 61
1, 213776, Note_on_c, 0, 65, 86
1, 213797, Note_off_c, 0, 61, 64
1, 213845, Note_off_c, 0, 65, 66
1, 213909, Note_on_c, 0, 57, 93
1, 213914, Note_on_c, 0, 45, 84
1, 214007, Note_on_c, 0, 65, 85
1, 214100, Note_on_c, 0, 73, 90
1, 214137, Note_off_c, 0, 65, 59
1, 214163, Note_off_c, 0, 73, 66
1, 214166, Note_off_c, 0, 57, 59
1, 214177, Note_on_c, 0, 77, 84
1, 214204, Note_off_c, 0, 77, 62
1, 214259, Note_on_c, 0, 75, 79
1, 214278, Note_on_c, 0, 77, 89
1, 214308, Note_off_c, 0, 75, 62
1, 214334, Note_on_c, 0, 75, 71
1, 214368, Note_off_c, 0, 45, 58
1, 214374, Note_off_c, 0, 77, 64
1, 214403, Note_on_c, 0, 73, 85
1, 214410, Note_on_c, 0, 44, 75
1, 214415, Note_on_c, 0, 56, 57
1, 214437, Note_off_c, 0, 56, 61
1, 214448, Note_off_c, 0, 44, 64
1, 214455, Note_on_c, 0, 70, 88
1, 214456, Note_off_c, 0, 75, 63
1, 214484, Note_off_c, 0, 73, 66
1, 214513, Note_off_c, 0, 70, 66
1, 214521, Note_on_c, 0, 65, 90
1, 214568, Note_off_c, 0, 65, 63
1, 214627, Control_c, 0, 64, 111
1, 214638, Note_on_c, 0, 32, 91
1, 214639, Note_on_c, 0, 44, 92
1, 214642, Control_c, 0, 64, 70
1, 214657, Control_c, 0, 64, 0
1, 214716, Control_c, 0, 64, 41
1, 214730, Control_c, 0, 64, 61
1, 214736, Note_on_c, 0, 53, 86
1, 214745, Note_off_c, 0, 32, 62
1, 214745, Control_c, 0, 64, 71
1, 214761, Control_c, 0, 64, 89
1, 214776, Control_c, 0, 64, 127
1, 214781, Note_off_c, 0, 44, 63
1, 214832, Note_on_c, 0, 61, 88
1, 214860, Note_off_c, 0, 53, 59
1, 214911, Note_on_c, 0, 65, 93
1, 214925, Note_off_c, 0, 61, 65
1, 214976, Note_off_c, 0, 65, 67
1, 215049, Note_on_c, 0, 44, 93
1, 215049, Note_on_c, 0, 56, 105
1, 215149, Note_on_c, 0, 65, 89
1, 215188, Note_off_c, 0, 44, 63
1, 215203, Note_off_c, 0, 56, 64
1, 215247, Note_on_c, 0, 73, 93
1, 215284, Note_off_c, 0, 65, 59
1, 215316, Note_off_c, 0, 73, 66
1, 215328, Note_on_c, 0, 77, 87
1, 215381, Note_off_c, 0, 77, 61
1, 215427, Note_on_c, 0, 75, 76
1, 215452, Note_on_c, 0, 77, 88
1, 215458, Note_off_c, 0, 75, 63
1, 215511, Note_on_c, 0, 75, 84
1, 215548, Note_off_c, 0, 77, 61
1, 215577, Note_on_c, 0, 73, 85
1, 215623, Note_on_c, 0, 42, 93
1, 215626, Note_on_c, 0, 30, 80
1, 215651, Note_on_c, 0, 70, 90
1, 215656, Note_off_c, 0, 75, 60
1, 215673, Note_off_c, 0, 73, 67
1, 215689, Note_off_c, 0, 42, 61
1, 215696, Note_off_c, 0, 30, 61
1, 215722, Poly_aftertouch_c, 0, 29, 127
1, 215724, Note_on_c, 0, 63, 92
1, 215747, Note_off_c, 0, 70, 61
1, 215757, Poly_aftertouch_c, 0, 29, 0
1, 215806, Control_c, 0, 64, 121
1, 215821, Control_c, 0, 64, 70
1, 215828, Note_on_c, 0, 41, 98
1, 215836, Note_on_c, 0, 29, 89
1, 215836, Control_c, 0, 64, 0
1, 215895, Control_c, 0, 64, 36
1, 215902, Note_off_c, 0, 29, 62
1, 215910, Control_c, 0, 64, 61
1, 215924, Control_c, 0, 64, 72
1, 215932, Note_off_c, 0, 41, 66
1, 215939, Control_c, 0, 64, 114
1, 215943, Note_off_c, 0, 63, 63
1, 215954, Control_c, 0, 64, 127
1, 215956, Note_on_c, 0, 69, 82
1, 216043, Note_on_c, 0, 72, 83
1, 216125, Note_on_c, 0, 73, 97
1, 216141, Note_off_c, 0, 69, 35
1, 216165, Note_off_c, 0, 72, 63
1, 216204, Note_off_c, 0, 73, 68
1, 216217, Note_on_c, 0, 53, 102
1, 216223, Note_on_c, 0, 41, 83
1, 216268, Note_off_c, 0, 41, 66
1, 216314, Note_on_c, 0, 75, 88
1, 216323, Note_off_c, 0, 53, 66
1, 216392, Note_on_c, 0, 81, 83
1, 216407, Note_off_c, 0, 75, 61
1, 216475, Note_off_c, 0, 81, 62
1, 216482, Note_on_c, 0, 87, 86
1, 216551, Note_off_c, 0, 87, 61
1, 216558, Note_on_c, 0, 65, 88
1, 216571, Note_on_c, 0, 85, 67
1, 216606, Note_off_c, 0, 65, 55
1, 216612, Note_on_c, 0, 66, 67
1, 216624, Note_on_c, 0, 87, 79
1, 216636, Note_off_c, 0, 85, 57
1, 216646, Note_on_c, 0, 65, 65
1, 216672, Note_on_c, 0, 85, 60
1, 216696, Note_off_c, 0, 66, 0
1, 216711, Note_on_c, 0, 66, 45
1, 216729, Note_off_c, 0, 87, 64
1, 216743, Note_on_c, 0, 84, 77
1, 216752, Note_off_c, 0, 66, 63
1, 216765, Note_off_c, 0, 65, 64
1, 216793, Note_on_c, 0, 81, 77
1, 216829, Note_off_c, 0, 85, 61
1, 216873, Note_off_c, 0, 84, 62
1, 216890, Note_on_c, 0, 75, 91
1, 216922, Note_off_c, 0, 81, 63
1, 216965, Note_off_c, 0, 75, 62
1, 217021, Control_c, 0, 64, 94
1, 217030, Note_on_c, 0, 46, 87
1, 217030, Note_on_c, 0, 58, 109
1, 217036, Control_c, 0, 64, 63
1, 217051, Control_c, 0, 64, 0
1, 217110, Control_c, 0, 64, 52
1, 217115, Note_off_c, 0, 46, 65
1, 217126, Control_c, 0, 64, 65
1, 217140, Control_c, 0, 64, 79
1, 217143, Note_on_c, 0, 65, 89
1, 217157, Control_c, 0, 64, 127
1, 217171, Note_off_c, 0, 58, 62
1, 217257, Note_on_c, 0, 73, 92
1, 217306, Note_off_c, 0, 65, 60
1, 217361, Note_on_c, 0, 77, 93
1, 217373, Note_off_c, 0, 73, 66
1, 217425, Note_off_c, 0, 77, 67
1, 217505, Note_on_c, 0, 70, 97
1, 217509, Note_on_c, 0, 65, 70
1, 217511, Note_on_c, 0, 58, 81
1, 217523, Note_on_c, 0, 61, 72
1, 217631, Note_on_c, 0, 77, 88
1, 217656, Note_off_c, 0, 58, 57
1, 217736, Note_on_c, 0, 85, 91
1, 217770, Note_off_c, 0, 70, 59
1, 217775, Note_off_c, 0, 77, 61
1, 217811, Note_off_c, 0, 85, 65
1, 217832, Note_on_c, 0, 89, 82
1, 217861, Note_off_c, 0, 89, 59
1, 217917, Note_on_c, 0, 87, 73
1, 217939, Note_on_c, 0, 89, 94
1, 217959, Note_off_c, 0, 87, 60
1, 217996, Note_on_c, 0, 87, 77
1, 218034, Note_off_c, 0, 89, 61
1, 218046, Note_off_c, 0, 61, 38
1, 218070, Note_on_c, 0, 85, 76
1, 218097, Note_on_c, 0, 69, 79
1, 218099, Note_on_c, 0, 57, 76
1, 218109, Note_off_c, 0, 65, 39
1, 218118, Note_off_c, 0, 69, 71
1, 218121, Note_on_c, 0, 82, 87
1, 218121, Note_off_c, 0, 87, 63
1, 218129, Note_off_c, 0, 57, 67
1, 218148, Note_off_c, 0, 85, 65
1, 218180, Note_off_c, 0, 82, 66
1, 218203, Note_on_c, 0, 77, 76
1, 218237, Note_off_c, 0, 77, 64
1, 218315, Note_on_c, 0, 57, 81
1, 218317, Note_on_c, 0, 45, 74
1, 218319, Control_c, 0, 64, 78
1, 218334, Control_c, 0, 64, 53
1, 218356, Control_c, 0, 64, 0
1, 218401, Control_c, 0, 64, 12
1, 218416, Control_c, 0, 64, 48
1, 218422, Note_on_c, 0, 65, 73
1, 218431, Control_c, 0, 64, 61
1, 218446, Control_c, 0, 64, 68
1, 218460, Note_off_c, 0, 45, 61
1, 218460, Control_c, 0, 64, 80
1, 218475, Control_c, 0, 64, 127
1, 218495, Note_off_c, 0, 57, 61
1, 218520, Note_on_c, 0, 73, 78
1, 218538, Note_off_c, 0, 65, 55
1, 218604, Note_on_c, 0, 77, 77
1, 218630, Note_off_c, 0, 73, 64
1, 218672, Note_off_c, 0, 77, 63
1, 218723, Note_on_c, 0, 69, 91
1, 218732, Note_on_c, 0, 65, 63
1, 218741, Note_on_c, 0, 61, 63
1, 218746, Note_on_c, 0, 57, 65
1, 218818, Note_on_c, 0, 77, 82
1, 218821, Note_off_c, 0, 57, 62
1, 218915, Note_on_c, 0, 85, 85
1, 218947, Note_off_c, 0, 77, 48
1, 218987, Note_off_c, 0, 85, 65
1, 218997, Note_on_c, 0, 89, 82
1, 219024, Note_off_c, 0, 89, 64
1, 219047, Note_off_c, 0, 69, 61
1, 219089, Note_on_c, 0, 87, 74
1, 219116, Note_on_c, 0, 89, 92
1, 219133, Note_off_c, 0, 87, 62
1, 219172, Note_on_c, 0, 87, 78
1, 219216, Note_off_c, 0, 89, 62
1, 219236, Note_on_c, 0, 85, 87
1, 219267, Note_on_c, 0, 68, 73
1, 219271, Note_on_c, 0, 56, 77
1, 219278, Note_off_c, 0, 65, 53
1, 219283, Note_on_c, 0, 82, 89
1, 219287, Note_off_c, 0, 61, 62
1, 219292, Note_off_c, 0, 68, 68
1, 219292, Note_off_c, 0, 87, 65
1, 219301, Note_off_c, 0, 56, 67
1, 219320, Note_off_c, 0, 85, 65
1, 219354, Note_off_c, 0, 82, 66
1, 219355, Note_on_c, 0, 77, 94
1, 219404, Note_off_c, 0, 77, 67
1, 219474, Note_on_c, 0, 44, 91
1, 219474, Note_on_c, 0, 56, 92
1, 219490, Control_c, 0, 64, 90
1, 219505, Control_c, 0, 64, 62
1, 219519, Control_c, 0, 64, 0
1, 219525, Note_on_c, 0, 57, 30
1, 219551, Control_c, 0, 64, 9
1, 219566, Note_off_c, 0, 57, 34
1, 219566, Control_c, 0, 64, 52
1, 219570, Note_on_c, 0, 65, 93
1, 219580, Control_c, 0, 64, 64
1, 219595, Control_c, 0, 64, 75
1, 219601, Note_off_c, 0, 44, 64
1, 219610, Control_c, 0, 64, 127
1, 219623, Note_off_c, 0, 56, 63
1, 219669, Note_on_c, 0, 73, 95
1, 219701, Note_off_c, 0, 65, 61
1, 219749, Note_on_c, 0, 77, 96
1, 219759, Note_off_c, 0, 73, 68
1, 219800, Note_off_c, 0, 77, 68
1, 219883, Note_on_c, 0, 65, 68
1, 219892, Note_on_c, 0, 68, 97
1, 219895, Note_on_c, 0, 61, 78
1, 219897, Note_on_c, 0, 56, 81
1, 219996, Note_on_c, 0, 77, 100
1, 220015, Note_off_c, 0, 56, 58
1, 220115, Note_off_c, 0, 77, 58
1, 220119, Note_on_c, 0, 85, 95
1, 220142, Note_on_c, 0, 86, 75
1, 220146, Note_off_c, 0, 85, 61
1, 220166, Note_off_c, 0, 86, 70
1, 220198, Note_off_c, 0, 68, 52
1, 220245, Note_on_c, 0, 97, 89
1, 220291, Note_off_c, 0, 97, 63
1, 220349, Note_on_c, 0, 96, 79
1, 220392, Note_on_c, 0, 97, 88
1, 220485, Note_on_c, 0, 94, 86
1, 220485, Note_off_c, 0, 97, 63
1, 220507, Note_off_c, 0, 65, 18
1, 220547, Note_on_c, 0, 67, 86
1, 220553, Note_off_c, 0, 96, 64
1, 220555, Note_off_c, 0, 61, 39
1, 220559, Note_on_c, 0, 90, 44
1, 220562, Note_on_c, 0, 89, 86
1, 220583, Note_off_c, 0, 90, 56
1, 220595, Note_off_c, 0, 94, 63
1, 220625, Note_off_c, 0, 67, 59
1, 220648, Note_off_c, 0, 89, 62
1, 220654, Note_on_c, 0, 85, 82
1, 220708, Control_c, 0, 64, 76
1, 220711, Note_off_c, 0, 85, 62
1, 220722, Control_c, 0, 64, 49
1, 220726, Note_on_c, 0, 60, 8
1, 220732, Note_on_c, 0, 68, 99
1, 220737, Note_on_c, 0, 66, 75
1, 220737, Control_c, 0, 64, 0
1, 220740, Note_on_c, 0, 56, 75
1, 220741, Note_on_c, 0, 90, 90
1, 220752, Control_c, 0, 64, 46
1, 220767, Control_c, 0, 64, 64
1, 220781, Control_c, 0, 64, 77
1, 220786, Note_off_c, 0, 66, 62
1, 220789, Note_off_c, 0, 60, 62
1, 220789, Note_off_c, 0, 68, 63
1, 220796, Control_c, 0, 64, 127
1, 220800, Note_off_c, 0, 56, 64
1, 220836, Note_on_c, 0, 84, 72
1, 220844, Note_off_c, 0, 90, 62
1, 220890, Note_off_c, 0, 84, 64
1, 220905, Note_on_c, 0, 78, 58
1, 220941, Note_off_c, 0, 78, 64
1, 220964, Note_on_c, 0, 49, 50
1, 220971, Note_on_c, 0, 89, 60
1, 221006, Note_off_c, 0, 89, 65
1, 221019, Note_on_c, 0, 87, 62
1, 221033, Note_on_c, 0, 56, 65
1, 221034, Control_c, 0, 64, 76
1, 221048, Control_c, 0, 64, 57
1, 221061, Note_off_c, 0, 87, 62
1, 221062, Note_off_c, 0, 49, 64
1, 221063, Control_c, 0, 64, 27
1, 221075, Note_on_c, 0, 89, 79
1, 221078, Control_c, 0, 64, 44
1, 221093, Control_c, 0, 64, 60
1, 221099, Note_on_c, 0, 61, 62
1, 221108, Control_c, 0, 64, 70
1, 221121, Note_on_c, 0, 65, 94
1, 221122, Control_c, 0, 64, 90
1, 221134, Note_on_c, 0, 87, 88
1, 221137, Control_c, 0, 64, 127
1, 221170, Note_off_c, 0, 89, 63
1, 221171, Note_off_c, 0, 61, 61
1, 221178, Note_off_c, 0, 65, 65
1, 221188, Note_off_c, 0, 56, 61
1, 221218, Note_on_c, 0, 85, 83
1, 221270, Note_off_c, 0, 87, 60
1, 221311, Note_on_c, 0, 80, 85
1, 221349, Note_off_c, 0, 85, 65
1, 221400, Note_off_c, 0, 80, 64
1, 221407, Note_on_c, 0, 77, 83
1, 221480, Note_off_c, 0, 77, 58
1, 221492, Note_on_c, 0, 49, 86
1, 221498, Note_on_c, 0, 37, 70
1, 221514, Note_on_c, 0, 75, 86
1, 221533, Note_off_c, 0, 37, 65
1, 221545, Note_off_c, 0, 49, 63
1, 221614, Note_on_c, 0, 73, 80
1, 221679, Note_off_c, 0, 75, 51
1, 221710, Note_on_c, 0, 68, 79
1, 221744, Note_off_c, 0, 73, 63
1, 221768, Note_on_c, 0, 53, 70
1, 221772, Note_on_c, 0, 65, 70
1, 221782, Note_off_c, 0, 68, 62
1, 221797, Note_off_c, 0, 65, 68
1, 221815, Note_on_c, 0, 59, 57
1, 221892, Note_on_c, 0, 63, 50
1, 221947, Control_c, 0, 64, 113
1, 221962, Control_c, 0, 64, 85
1, 221976, Control_c, 0, 64, 70
1, 221991, Control_c, 0, 64, 60
1, 222005, Note_on_c, 0, 68, 51
1, 222006, Control_c, 0, 64, 48
1, 222007, Note_on_c, 0, 89, 91
1, 222013, Note_on_c, 0, 77, 83
1, 222020, Control_c, 0, 64, 47
1, 222035, Control_c, 0, 64, 51
1, 222050, Control_c, 0, 64, 56
1, 222065, Control_c, 0, 64, 62
1, 222080, Control_c, 0, 64, 66
1, 222102, Control_c, 0, 64, 73
1, 222117, Control_c, 0, 64, 90
1, 222122, Note_off_c, 0, 53, 39
1, 222132, Control_c, 0, 64, 127
1, 222139, Note_on_c, 0, 83, 77
1, 222166, Note_off_c, 0, 59, 50
1, 222168, Note_off_c, 0, 68, 60
1, 222172, Note_off_c, 0, 89, 64
1, 222181, Note_off_c, 0, 77, 61
1, 222203, Note_off_c, 0, 63, 59
1, 222240, Note_on_c, 0, 80, 76
1, 222282, Note_off_c, 0, 83, 63
1, 222315, Note_on_c, 0, 87, 83
1, 222315, Note_on_c, 0, 75, 77
1, 222323, Note_off_c, 0, 80, 62
1, 222338, Note_off_c, 0, 75, 69
1, 222360, Note_off_c, 0, 87, 62
1, 222413, Control_c, 0, 64, 71
1, 222418, Note_on_c, 0, 87, 66
1, 222427, Control_c, 0, 64, 49
1, 222435, Note_on_c, 0, 58, 61
1, 222437, Note_on_c, 0, 70, 72
1, 222437, Note_on_c, 0, 68, 66
1, 222442, Note_on_c, 0, 65, 60
1, 222442, Control_c, 0, 64, 20
1, 222457, Control_c, 0, 64, 43
1, 222464, Note_on_c, 0, 89, 82
1, 222472, Control_c, 0, 64, 59
1, 222476, Note_off_c, 0, 87, 62
1, 222487, Control_c, 0, 64, 66
1, 222501, Control_c, 0, 64, 79
1, 222515, Note_on_c, 0, 87, 66
1, 222516, Control_c, 0, 64, 127
1, 222547, Note_off_c, 0, 70, 64
1, 222550, Note_off_c, 0, 89, 63
1, 222574, Note_on_c, 0, 86, 87
1, 222584, Note_off_c, 0, 65, 59
1, 222589, Note_off_c, 0, 68, 61
1, 222621, Note_off_c, 0, 58, 62
1, 222626, Note_off_c, 0, 87, 62
1, 222670, Note_on_c, 0, 80, 84
1, 222698, Note_off_c, 0, 86, 64
1, 222750, Note_on_c, 0, 77, 84
1, 222757, Note_off_c, 0, 80, 63
1, 222812, Note_off_c, 0, 77, 61
1, 222820, Note_on_c, 0, 46, 75
1, 222827, Note_on_c, 0, 34, 62
1, 222852, Note_on_c, 0, 75, 84
1, 222884, Note_off_c, 0, 34, 60
1, 222896, Note_off_c, 0, 46, 61
1, 222933, Note_on_c, 0, 74, 77
1, 222998, Note_off_c, 0, 75, 59
1, 223032, Note_on_c, 0, 68, 86
1, 223081, Note_off_c, 0, 74, 65
1, 223115, Note_on_c, 0, 65, 70
1, 223132, Note_off_c, 0, 68, 62
1, 223154, Note_off_c, 0, 65, 62
1, 223191, Control_c, 0, 64, 85
1, 223206, Control_c, 0, 64, 65
1, 223212, Note_on_c, 0, 56, 53
1, 223213, Note_on_c, 0, 46, 52
1, 223218, Note_on_c, 0, 60, 63
1, 223221, Control_c, 0, 64, 36
1, 223226, Note_on_c, 0, 75, 91
1, 223236, Control_c, 0, 64, 9
1, 223245, Note_on_c, 0, 63, 73
1, 223250, Control_c, 0, 64, 39
1, 223265, Control_c, 0, 64, 53
1, 223280, Control_c, 0, 64, 62
1, 223295, Control_c, 0, 64, 67
1, 223301, Note_off_c, 0, 46, 62
1, 223310, Control_c, 0, 64, 78
1, 223324, Control_c, 0, 64, 127
1, 223327, Note_on_c, 0, 68, 75
1, 223341, Note_off_c, 0, 56, 62
1, 223355, Note_off_c, 0, 63, 60
1, 223402, Note_off_c, 0, 75, 62
1, 223409, Note_on_c, 0, 70, 80
1, 223458, Note_off_c, 0, 68, 59
1, 223501, Note_off_c, 0, 60, 63
1, 223504, Note_on_c, 0, 62, 62
1, 223514, Note_on_c, 0, 77, 98
1, 223519, Note_on_c, 0, 65, 78
1, 223519, Note_off_c, 0, 70, 65
1, 223540, Note_off_c, 0, 62, 65
1, 223548, Note_off_c, 0, 65, 63
1, 223549, Note_on_c, 0, 73, 39
1, 223579, Note_off_c, 0, 77, 62
1, 223580, Note_off_c, 0, 73, 49
1, 223660, Note_on_c, 0, 63, 65
1, 223667, Note_on_c, 0, 51, 58
1, 223671, Note_on_c, 0, 78, 95
1, 223678, Note_on_c, 0, 54, 59
1, 223687, Note_on_c, 0, 66, 71
1, 223718, Control_c, 0, 64, 98
1, 223733, Control_c, 0, 64, 72
1, 223747, Control_c, 0, 64, 56
1, 223762, Control_c, 0, 64, 34
1, 223777, Control_c, 0, 64, 38
1, 223792, Control_c, 0, 64, 49
1, 223807, Control_c, 0, 64, 59
1, 223810, Note_on_c, 0, 70, 72
1, 223817, Note_off_c, 0, 66, 59
1, 223821, Control_c, 0, 64, 64
1, 223836, Control_c, 0, 64, 68
1, 223851, Control_c, 0, 64, 75
1, 223865, Control_c, 0, 64, 91
1, 223878, Note_off_c, 0, 51, 55
1, 223880, Control_c, 0, 64, 127
1, 223885, Note_off_c, 0, 78, 62
1, 223904, Note_on_c, 0, 74, 70
1, 223950, Note_off_c, 0, 54, 53
1, 223980, Note_off_c, 0, 70, 61
1, 223989, Note_on_c, 0, 75, 81
1, 224020, Note_off_c, 0, 74, 63
1, 224051, Note_off_c, 0, 75, 65
1, 224115, Note_on_c, 0, 78, 79
1, 224217, Note_on_c, 0, 82, 80
1, 224306, Note_off_c, 0, 78, 53
1, 224356, Note_on_c, 0, 61, 53
1, 224364, Note_on_c, 0, 90, 76
1, 224393, Note_off_c, 0, 82, 62
1, 224464, Note_off_c, 0, 61, 56
1, 224466, Note_off_c, 0, 63, 42
1, 224472, Note_on_c, 0, 89, 78
1, 224515, Note_off_c, 0, 90, 63
1, 224548, Note_off_c, 0, 89, 62
1, 224628, Control_c, 0, 64, 100
1, 224636, Note_on_c, 0, 57, 49
1, 224643, Control_c, 0, 64, 75
1, 224656, Note_on_c, 0, 87, 72
1, 224657, Note_on_c, 0, 66, 51
1, 224658, Control_c, 0, 64, 63
1, 224663, Note_on_c, 0, 63, 31
1, 224673, Control_c, 0, 64, 51
1, 224683, Note_on_c, 0, 75, 46
1, 224688, Control_c, 0, 64, 53
1, 224703, Control_c, 0, 64, 58
1, 224717, Control_c, 0, 64, 62
1, 224732, Control_c, 0, 64, 66
1, 224747, Control_c, 0, 64, 71
1, 224762, Control_c, 0, 64, 80
1, 224770, Note_on_c, 0, 81, 63
1, 224777, Control_c, 0, 64, 104
1, 224791, Note_off_c, 0, 87, 60
1, 224792, Control_c, 0, 64, 127
1, 224809, Note_off_c, 0, 75, 53
1, 224874, Note_on_c, 0, 78, 50
1, 224895, Note_off_c, 0, 81, 56
1, 224900, Note_off_c, 0, 57, 37
1, 224943, Note_on_c, 0, 85, 60
1, 224943, Note_off_c, 0, 78, 61
1, 224951, Note_on_c, 0, 73, 48
1, 224965, Note_off_c, 0, 85, 65
1, 224973, Note_off_c, 0, 73, 60
1, 225013, Control_c, 0, 64, 80
1, 225028, Control_c, 0, 64, 63
1, 225042, Note_on_c, 0, 85, 63
1, 225043, Control_c, 0, 64, 45
1, 225046, Note_on_c, 0, 56, 44
1, 225058, Control_c, 0, 64, 52
1, 225073, Control_c, 0, 64, 62
1, 225087, Note_off_c, 0, 85, 63
1, 225095, Control_c, 0, 64, 68
1, 225110, Control_c, 0, 64, 79
1, 225113, Note_on_c, 0, 87, 55
1, 225125, Control_c, 0, 64, 115
1, 225131, Note_off_c, 0, 66, 55
1, 225141, Control_c, 0, 64, 127
1, 225147, Note_on_c, 0, 85, 68
1, 225167, Note_off_c, 0, 63, 51
1, 225179, Note_off_c, 0, 87, 61
1, 225193, Note_off_c, 0, 56, 63
1, 225215, Note_on_c, 0, 84, 73
1, 225249, Note_off_c, 0, 85, 64
1, 225293, Note_on_c, 0, 78, 83
1, 225306, Note_off_c, 0, 84, 61
1, 225370, Note_off_c, 0, 78, 63
1, 225376, Note_on_c, 0, 75, 74
1, 225418, Note_off_c, 0, 75, 54
1, 225442, Note_on_c, 0, 32, 54
1, 225449, Note_on_c, 0, 44, 53
1, 225464, Note_on_c, 0, 73, 77
1, 225518, Note_off_c, 0, 32, 60
1, 225538, Note_off_c, 0, 44, 56
1, 225546, Note_on_c, 0, 72, 74
1, 225590, Note_off_c, 0, 73, 58
1, 225648, Note_on_c, 0, 66, 72
1, 225677, Note_off_c, 0, 72, 64
1, 225707, Note_on_c, 0, 63, 67
1, 225746, Note_off_c, 0, 66, 60
1, 225768, Note_off_c, 0, 63, 62
1, 225807, Control_c, 0, 64, 84
1, 225822, Control_c, 0, 64, 64
1, 225844, Control_c, 0, 64, 37
1, 225845, Note_on_c, 0, 54, 54
1, 225850, Note_on_c, 0, 58, 69
1, 225850, Note_on_c, 0, 44, 48
1, 225851, Note_on_c, 0, 73, 90
1, 225859, Control_c, 0, 64, 25
1, 225859, Note_on_c, 0, 61, 73
1, 225874, Control_c, 0, 64, 45
1, 225889, Control_c, 0, 64, 56
1, 225904, Control_c, 0, 64, 63
1, 225918, Control_c, 0, 64, 69
1, 225933, Control_c, 0, 64, 81
1, 225935, Note_off_c, 0, 44, 63
1, 225949, Control_c, 0, 64, 127
1, 225959, Poly_aftertouch_c, 0, 46, 0
1, 225962, Note_off_c, 0, 54, 65
1, 225963, Note_on_c, 0, 66, 71
1, 225987, Note_off_c, 0, 61, 55
1, 226015, Note_off_c, 0, 73, 62
1, 226028, Note_off_c, 0, 58, 60
1, 226056, Note_on_c, 0, 68, 72
1, 226079, Note_off_c, 0, 66, 59
1, 226124, Note_on_c, 0, 60, 57
1, 226142, Note_on_c, 0, 63, 68
1, 226145, Note_on_c, 0, 75, 86
1, 226146, Note_off_c, 0, 68, 62
1, 226205, Note_off_c, 0, 63, 62
1, 226208, Note_off_c, 0, 60, 64
1, 226215, Note_off_c, 0, 75, 62
1, 226230, Control_c, 0, 64, 93
1, 226245, Control_c, 0, 64, 67
1, 226260, Control_c, 0, 64, 45
1, 226263, Note_on_c, 0, 61, 83
1, 226265, Note_on_c, 0, 49, 68
1, 226274, Control_c, 0, 64, 36
1, 226278, Note_on_c, 0, 77, 92
1, 226279, Note_on_c, 0, 65, 89
1, 226286, Note_on_c, 0, 53, 49
1, 226289, Control_c, 0, 64, 54
1, 226304, Control_c, 0, 64, 64
1, 226319, Control_c, 0, 64, 73
1, 226325, Note_off_c, 0, 53, 64
1, 226333, Note_off_c, 0, 49, 63
1, 226334, Control_c, 0, 64, 97
1, 226343, Note_off_c, 0, 61, 57
1, 226348, Control_c, 0, 64, 127
1, 226412, Note_on_c, 0, 68, 73
1, 226461, Note_off_c, 0, 77, 58
1, 226470, Note_off_c, 0, 65, 54
1, 226504, Note_on_c, 0, 73, 67
1, 226527, Note_on_c, 0, 48, 58
1, 226536, Note_off_c, 0, 68, 59
1, 226593, Note_on_c, 0, 53, 49
1, 226593, Note_on_c, 0, 75, 72
1, 226603, Note_off_c, 0, 73, 63
1, 226653, Note_off_c, 0, 75, 64
1, 226682, Control_c, 0, 64, 76
1, 226697, Control_c, 0, 64, 43
1, 226712, Control_c, 0, 64, 0
1, 226727, Control_c, 0, 64, 45
1, 226727, Note_on_c, 0, 77, 90
1, 226728, Note_on_c, 0, 63, 98
1, 226742, Control_c, 0, 64, 65
1, 226744, Note_off_c, 0, 48, 42
1, 226757, Control_c, 0, 64, 83
1, 226771, Note_off_c, 0, 63, 67
1, 226771, Control_c, 0, 64, 127
1, 226780, Note_off_c, 0, 53, 62
1, 226859, Note_on_c, 0, 81, 76
1, 226958, Note_off_c, 0, 77, 43
1, 227006, Note_on_c, 0, 53, 101
1, 227013, Note_on_c, 0, 41, 90
1, 227019, Note_on_c, 0, 87, 83
1, 227040, Note_off_c, 0, 81, 63
1, 227054, Note_off_c, 0, 53, 68
1, 227058, Note_off_c, 0, 41, 63
1, 227166, Note_on_c, 0, 89, 101
1, 227204, Note_off_c, 0, 87, 61
1, 227224, Note_off_c, 0, 89, 67
1, 227337, Note_on_c, 0, 46, 98
1, 227338, Note_on_c, 0, 34, 93
1, 227367, Note_on_c, 0, 47, 61
1, 227371, Control_c, 0, 64, 70
1, 227386, Control_c, 0, 64, 0
1, 227445, Control_c, 0, 64, 21
1, 227460, Control_c, 0, 64, 56
1, 227464, Note_off_c, 0, 47, 33
1, 227475, Control_c, 0, 64, 66
1, 227490, Control_c, 0, 64, 81
1, 227499, Note_off_c, 0, 34, 63
1, 227505, Control_c, 0, 64, 127
1, 227514, Note_on_c, 0, 65, 85
1, 227524, Note_off_c, 0, 46, 60
1, 227627, Note_on_c, 0, 73, 85
1, 227666, Note_off_c, 0, 65, 59
1, 227726, Note_on_c, 0, 77, 91
1, 227746, Note_off_c, 0, 73, 64
1, 227797, Note_off_c, 0, 77, 67
1, 227850, Note_on_c, 0, 65, 58
1, 227853, Note_on_c, 0, 70, 104
1, 227861, Note_on_c, 0, 58, 82
1, 227869, Note_on_c, 0, 61, 74
1, 227946, Note_off_c, 0, 58, 62
1, 227966, Note_on_c, 0, 77, 87
1, 228050, Note_off_c, 0, 70, 58
1, 228073, Note_on_c, 0, 85, 88
1, 228128, Note_off_c, 0, 77, 60
1, 228152, Note_off_c, 0, 85, 65
1, 228163, Note_on_c, 0, 89, 85
1, 228211, Note_off_c, 0, 89, 60
1, 228259, Note_on_c, 0, 87, 68
1, 228282, Note_on_c, 0, 89, 84
1, 228292, Note_off_c, 0, 87, 63
1, 228346, Note_on_c, 0, 87, 76
1, 228387, Note_off_c, 0, 89, 61
1, 228414, Note_on_c, 0, 85, 81
1, 228422, Note_off_c, 0, 61, 33
1, 228431, Note_on_c, 0, 57, 76
1, 228432, Note_on_c, 0, 69, 75
1, 228456, Note_off_c, 0, 69, 70
1, 228458, Note_off_c, 0, 65, 39
1, 228463, Note_on_c, 0, 82, 84
1, 228467, Note_off_c, 0, 57, 64
1, 228467, Note_off_c, 0, 87, 64
1, 228504, Note_off_c, 0, 85, 64
1, 228540, Note_on_c, 0, 77, 88
1, 228555, Note_off_c, 0, 82, 61
1, 228593, Note_off_c, 0, 77, 64
1, 228640, Control_c, 0, 64, 93
1, 228654, Control_c, 0, 64, 65
1, 228661, Note_on_c, 0, 57, 91
1, 228665, Note_on_c, 0, 45, 78
1, 228669, Control_c, 0, 64, 0
1, 228714, Control_c, 0, 64, 29
1, 228728, Control_c, 0, 64, 51
1, 228743, Control_c, 0, 64, 62
1, 228758, Control_c, 0, 64, 68
1, 228764, Note_on_c, 0, 65, 81
1, 228773, Control_c, 0, 64, 79
1, 228786, Note_off_c, 0, 45, 60
1, 228788, Control_c, 0, 64, 127
1, 228836, Note_off_c, 0, 57, 62
1, 228867, Note_on_c, 0, 73, 91
1, 228901, Note_off_c, 0, 65, 60
1, 228951, Note_on_c, 0, 77, 94
1, 228971, Note_off_c, 0, 73, 64
1, 229028, Note_off_c, 0, 77, 66
1, 229072, Note_on_c, 0, 69, 100
1, 229077, Note_on_c, 0, 65, 71
1, 229082, Note_on_c, 0, 57, 74
1, 229090, Note_on_c, 0, 61, 69
1, 229161, Note_off_c, 0, 57, 63
1, 229180, Note_on_c, 0, 77, 90
1, 229274, Note_on_c, 0, 85, 86
1, 229309, Note_off_c, 0, 77, 58
1, 229328, Note_off_c, 0, 69, 60
1, 229344, Note_off_c, 0, 85, 65
1, 229367, Note_on_c, 0, 89, 71
1, 229391, Note_off_c, 0, 89, 59
1, 229448, Note_on_c, 0, 87, 69
1, 229475, Note_on_c, 0, 89, 85
1, 229483, Note_off_c, 0, 87, 61
1, 229541, Note_on_c, 0, 87, 87
1, 229588, Note_off_c, 0, 89, 60
1, 229600, Note_on_c, 0, 85, 84
1, 229618, Note_on_c, 0, 68, 81
1, 229626, Note_off_c, 0, 65, 58
1, 229627, Note_on_c, 0, 56, 72
1, 229641, Note_off_c, 0, 68, 70
1, 229653, Note_off_c, 0, 56, 67
1, 229654, Note_on_c, 0, 82, 86
1, 229654, Note_off_c, 0, 61, 45
1, 229675, Note_off_c, 0, 87, 59
1, 229697, Note_off_c, 0, 85, 63
1, 229722, Note_on_c, 0, 77, 86
1, 229755, Note_off_c, 0, 82, 64
1, 229796, Control_c, 0, 64, 94
1, 229803, Note_off_c, 0, 77, 60
1, 229810, Control_c, 0, 64, 65
1, 229820, Note_on_c, 0, 44, 58
1, 229821, Note_on_c, 0, 53, 74
1, 229825, Control_c, 0, 64, 11
1, 229827, Note_on_c, 0, 56, 94
1, 229829, Note_on_c, 0, 49, 62
1, 229840, Control_c, 0, 64, 0
1, 229855, Control_c, 0, 64, 49
1, 229870, Control_c, 0, 64, 61
1, 229884, Control_c, 0, 64, 68
1, 229898, Note_off_c, 0, 53, 64
1, 229899, Control_c, 0, 64, 80
1, 229901, Note_off_c, 0, 44, 63
1, 229903, Note_off_c, 0, 49, 62
1, 229914, Control_c, 0, 64, 127
1, 229916, Note_on_c, 0, 77, 77
1, 229934, Note_off_c, 0, 56, 60
1, 229991, Note_on_c, 0, 85, 73
1, 229998, Note_off_c, 0, 77, 62
1, 230047, Note_off_c, 0, 85, 64
1, 230059, Note_on_c, 0, 42, 65
1, 230066, Note_on_c, 0, 89, 72
1, 230107, Note_on_c, 0, 48, 69
1, 230130, Note_off_c, 0, 89, 63
1, 230140, Note_on_c, 0, 87, 67
1, 230146, Note_on_c, 0, 51, 73
1, 230152, Note_off_c, 0, 42, 62
1, 230152, Control_c, 0, 64, 79
1, 230167, Control_c, 0, 64, 59
1, 230181, Control_c, 0, 64, 25
1, 230185, Note_off_c, 0, 87, 61
1, 230196, Control_c, 0, 64, 43
1, 230197, Note_on_c, 0, 89, 71
1, 230201, Note_on_c, 0, 58, 89
1, 230211, Control_c, 0, 64, 60
1, 230226, Control_c, 0, 64, 71
1, 230241, Control_c, 0, 64, 93
1, 230244, Note_on_c, 0, 87, 73
1, 230256, Control_c, 0, 64, 127
1, 230270, Note_off_c, 0, 58, 63
1, 230274, Note_off_c, 0, 51, 61
1, 230301, Note_off_c, 0, 89, 62
1, 230304, Note_off_c, 0, 48, 48
1, 230334, Note_on_c, 0, 85, 72
1, 230384, Note_off_c, 0, 87, 61
1, 230400, Note_on_c, 0, 82, 78
1, 230433, Note_off_c, 0, 85, 65
1, 230457, Note_off_c, 0, 82, 63
1, 230485, Note_on_c, 0, 75, 71
1, 230492, Note_on_c, 0, 41, 62
1, 230515, Note_off_c, 0, 75, 62
1, 230545, Note_on_c, 0, 48, 67
1, 230560, Control_c, 0, 64, 86
1, 230567, Note_on_c, 0, 51, 67
1, 230575, Control_c, 0, 64, 64
1, 230575, Note_off_c, 0, 41, 63
1, 230589, Control_c, 0, 64, 38
1, 230604, Control_c, 0, 64, 43
1, 230605, Note_on_c, 0, 73, 55
1, 230614, Note_on_c, 0, 57, 90
1, 230619, Control_c, 0, 64, 58
1, 230633, Control_c, 0, 64, 65
1, 230643, Note_off_c, 0, 73, 65
1, 230648, Control_c, 0, 64, 72
1, 230652, Note_on_c, 0, 75, 70
1, 230663, Control_c, 0, 64, 88
1, 230678, Control_c, 0, 64, 127
1, 230698, Note_off_c, 0, 57, 65
1, 230705, Note_on_c, 0, 73, 74
1, 230736, Note_off_c, 0, 51, 61
1, 230738, Note_off_c, 0, 75, 64
1, 230749, Note_off_c, 0, 48, 61
1, 230778, Note_on_c, 0, 72, 61
1, 230825, Note_off_c, 0, 73, 64
1, 230840, Note_on_c, 0, 69, 75
1, 230899, Note_off_c, 0, 72, 63
1, 230912, Note_on_c, 0, 63, 65
1, 230941, Note_off_c, 0, 69, 60
1, 230942, Note_on_c, 0, 34, 53
1, 231006, Note_off_c, 0, 34, 61
1, 231011, Note_on_c, 0, 41, 51
1, 231085, Note_on_c, 0, 72, 71
1, 231088, Note_on_c, 0, 46, 53
1, 231103, Note_on_c, 0, 49, 66
1, 231111, Note_off_c, 0, 63, 59
1, 231116, Control_c, 0, 64, 98
1, 231130, Control_c, 0, 64, 75
1, 231145, Control_c, 0, 64, 62
1, 231160, Control_c, 0, 64, 45
1, 231175, Control_c, 0, 64, 46
1, 231190, Control_c, 0, 64, 52
1, 231204, Control_c, 0, 64, 58
1, 231219, Control_c, 0, 64, 63
1, 231221, Note_on_c, 0, 70, 76
1, 231234, Control_c, 0, 64, 68
1, 231249, Control_c, 0, 64, 76
1, 231252, Note_off_c, 0, 41, 36
1, 231252, Note_off_c, 0, 72, 63
1, 231264, Control_c, 0, 64, 106
1, 231278, Control_c, 0, 64, 127
1, 231327, Note_off_c, 0, 49, 60
1, 231334, Note_on_c, 0, 66, 80
1, 231337, Note_off_c, 0, 46, 20
1, 231377, Note_off_c, 0, 70, 61
1, 231438, Note_on_c, 0, 65, 82
1, 231451, Note_off_c, 0, 66, 60
1, 231562, Note_on_c, 0, 63, 84
1, 231591, Control_c, 0, 64, 114
1, 231597, Note_off_c, 0, 65, 60
1, 231606, Control_c, 0, 64, 108
1, 231621, Control_c, 0, 64, 104
1, 231635, Control_c, 0, 64, 101
1, 231650, Control_c, 0, 64, 98
1, 231665, Control_c, 0, 64, 96
1, 231679, Control_c, 0, 64, 94
1, 231689, Note_on_c, 0, 61, 84
1, 231694, Control_c, 0, 64, 92
1, 231709, Control_c, 0, 64, 90
1, 231724, Control_c, 0, 64, 89
1, 231739, Control_c, 0, 64, 88
1, 231753, Control_c, 0, 64, 87
1, 231764, Note_off_c, 0, 63, 57
1, 231768, Control_c, 0, 64, 86
1, 231783, Control_c, 0, 64, 84
1, 231798, Control_c, 0, 64, 83
1, 231813, Control_c, 0, 64, 81
1, 231828, Note_on_c, 0, 58, 82
1, 231835, Control_c, 0, 64, 79
1, 231841, Note_on_c, 0, 46, 53
1, 231850, Control_c, 0, 64, 78
1, 231865, Control_c, 0, 64, 77
1, 231879, Control_c, 0, 64, 76
1, 231894, Control_c, 0, 64, 75
1, 231909, Control_c, 0, 64, 73
1, 231910, Note_off_c, 0, 61, 59
1, 231924, Control_c, 0, 64, 72
1, 231939, Control_c, 0, 64, 71
1, 231954, Control_c, 0, 64, 70
1, 231964, Note_on_c, 0, 56, 76
1, 231968, Control_c, 0, 64, 69
1, 231981, Note_on_c, 0, 44, 56
1, 231983, Control_c, 0, 64, 69
1, 231998, Control_c, 0, 64, 68
1, 232013, Control_c, 0, 64, 68
1, 232018, Note_off_c, 0, 58, 64
1, 232028, Control_c, 0, 64, 67
1, 232042, Control_c, 0, 64, 66
1, 232057, Control_c, 0, 64, 65
1, 232065, Note_off_c, 0, 46, 36
1, 232072, Control_c, 0, 64, 65
1, 232102, Control_c, 0, 64, 64
1, 232132, Control_c, 0, 64, 64
1, 232137, Note_on_c, 0, 42, 51
1, 232140, Note_on_c, 0, 54, 70
1, 232147, Control_c, 0, 64, 63
1, 232161, Control_c, 0, 64, 63
1, 232176, Control_c, 0, 64, 62
1, 232191, Control_c, 0, 64, 62
1, 232220, Note_off_c, 0, 56, 57
1, 232229, Note_off_c, 0, 44, 37
1, 232235, Control_c, 0, 64, 61
1, 232250, Control_c, 0, 64, 61
1, 232265, Control_c, 0, 64, 60
1, 232295, Control_c, 0, 64, 60
1, 232310, Control_c, 0, 64, 59
1, 232319, Note_on_c, 0, 41, 50
1, 232325, Control_c, 0, 64, 59
1, 232340, Control_c, 0, 64, 58
1, 232343, Note_on_c, 0, 53, 61
1, 232355, Control_c, 0, 64, 58
1, 232366, Note_off_c, 0, 42, 59
1, 232370, Control_c, 0, 64, 57
1, 232384, Control_c, 0, 64, 57
1, 232399, Control_c, 0, 64, 56
1, 232414, Control_c, 0, 64, 55
1, 232426, Note_off_c, 0, 54, 61
1, 232444, Control_c, 0, 64, 54
1, 232459, Control_c, 0, 64, 54
1, 232474, Control_c, 0, 64, 53
1, 232503, Control_c, 0, 64, 53
1, 232533, Control_c, 0, 64, 52
1, 232548, Control_c, 0, 64, 52
1, 232563, Control_c, 0, 64, 51
1, 232584, Control_c, 0, 64, 51
1, 232587, Note_on_c, 0, 51, 51
1, 232591, Note_on_c, 0, 39, 40
1, 232599, Control_c, 0, 64, 50
1, 232629, Control_c, 0, 64, 50
1, 232644, Control_c, 0, 64, 49
1, 232659, Control_c, 0, 64, 49
1, 232668, Note_off_c, 0, 53, 58
1, 232688, Control_c, 0, 64, 48
1, 232718, Control_c, 0, 64, 48
1, 232777, Control_c, 0, 64, 47
1, 232807, Control_c, 0, 64, 47
1, 232811, Note_off_c, 0, 41, 30
1, 232836, Control_c, 0, 64, 46
1, 232850, Control_c, 0, 64, 45
1, 232865, Control_c, 0, 64, 44
1, 232880, Control_c, 0, 64, 43
1, 232895, Control_c, 0, 64, 41
1, 232909, Control_c, 0, 64, 40
1, 232924, Control_c, 0, 64, 39
1, 232939, Control_c, 0, 64, 38
1, 232941, Note_on_c, 0, 49, 37
1, 232945, Note_on_c, 0, 37, 30
1, 232954, Control_c, 0, 64, 37
1, 232969, Control_c, 0, 64, 36
1, 232984, Control_c, 0, 64, 35
1, 233042, Note_off_c, 0, 51, 58
1, 233058, Control_c, 0, 64, 36
1, 233073, Control_c, 0, 64, 39
1, 233080, Note_off_c, 0, 39, 42
1, 233088, Control_c, 0, 64, 44
1, 233102, Control_c, 0, 64, 49
1, 233117, Control_c, 0, 64, 54
1, 233133, Control_c, 0, 64, 58
1, 233147, Control_c, 0, 64, 62
1, 233162, Control_c, 0, 64, 65
1, 233177, Control_c, 0, 64, 70
1, 233192, Control_c, 0, 64, 76
1, 233207, Control_c, 0, 64, 85
1, 233222, Control_c, 0, 64, 92
1, 233237, Control_c, 0, 64, 99
1, 233252, Control_c, 0, 64, 103
1, 233267, Control_c, 0, 64, 104
1, 233275, Note_off_c, 0, 37, 43
1, 233279, Note_off_c, 0, 49, 36
1, 233377, Control_c, 0, 64, 103
1, 233392, Control_c, 0, 64, 102
1, 233407, Control_c, 0, 64, 102
1, 233422, Control_c, 0, 64, 101
1, 233437, Control_c, 0, 64, 101
1, 233452, Control_c, 0, 64, 100
1, 233466, Control_c, 0, 64, 99
1, 233481, Control_c, 0, 64, 98
1, 233496, Control_c, 0, 64, 98
1, 233511, Control_c, 0, 64, 97
1, 233525, Control_c, 0, 64, 97
1, 233540, Control_c, 0, 64, 96
1, 233555, Control_c, 0, 64, 95
1, 233570, Control_c, 0, 64, 95
1, 233585, Control_c, 0, 64, 94
1, 233600, Control_c, 0, 64, 93
1, 233606, Note_on_c, 0, 58, 40
1, 233609, Note_on_c, 0, 46, 34
1, 233614, Control_c, 0, 64, 92
1, 233615, Note_on_c, 0, 41, 23
1, 233615, Note_on_c, 0, 34, 33
1, 233622, Note_on_c, 0, 53, 30
1, 233625, Note_on_c, 0, 49, 23
1, 233629, Control_c, 0, 64, 91
1, 233634, Note_on_c, 0, 37, 20
1, 233644, Control_c, 0, 64, 91
1, 233658, Control_c, 0, 64, 89
1, 233673, Control_c, 0, 64, 88
1, 233688, Control_c, 0, 64, 85
1, 233703, Control_c, 0, 64, 81
1, 233718, Control_c, 0, 64, 74
1, 233732, Control_c, 0, 64, 65
1, 233747, Control_c, 0, 64, 53
1, 233762, Control_c, 0, 64, 22
1, 233777, Control_c, 0, 64, 0
1, 233821, Control_c, 0, 64, 11
1, 233836, Control_c, 0, 64, 21
1, 233851, Control_c, 0, 64, 32
1, 233866, Control_c, 0, 64, 44
1, 233881, Control_c, 0, 64, 51
1, 233896, Control_c, 0, 64, 55
1, 233911, Control_c, 0, 64, 57
1, 233926, Control_c, 0, 64, 60
1, 233941, Control_c, 0, 64, 61
1, 233955, Control_c, 0, 64, 64
1, 233970, Control_c, 0, 64, 66
1, 233985, Control_c, 0, 64, 69
1, 234000, Control_c, 0, 64, 74
1, 234015, Control_c, 0, 64, 80
1, 234030, Control_c, 0, 64, 87
1, 234045, Control_c, 0, 64, 97
1, 234060, Control_c, 0, 64, 111
1, 234082, Control_c, 0, 64, 127
1, 234221, Note_off_c, 0, 41, 41
1, 234238, Note_off_c, 0, 34, 40
1, 234270, Note_off_c, 0, 37, 39
1, 234295, Note_off_c, 0, 58, 33
1, 234322, Note_off_c, 0, 46, 40
1, 234347, Note_off_c, 0, 53, 38
1, 234468, Note_off_c, 0, 49, 38
1, 234687, Note_on_c, 0, 61, 58
1, 234695, Note_on_c, 0, 49, 32
1, 234698, Note_on_c, 0, 37, 40
1, 234701, Note_on_c, 0, 41, 29
1, 234701, Note_on_c, 0, 58, 51
1, 234704, Note_on_c, 0, 53, 44
1, 234719, Note_on_c, 0, 46, 33
1, 234749, Control_c, 0, 64, 119
1, 234764, Control_c, 0, 64, 102
1, 234778, Control_c, 0, 64, 84
1, 234793, Control_c, 0, 64, 67
1, 234808, Control_c, 0, 64, 54
1, 234831, Control_c, 0, 64, 42
1, 234846, Control_c, 0, 64, 43
1, 234860, Control_c, 0, 64, 47
1, 234875, Control_c, 0, 64, 52
1, 234890, Control_c, 0, 64, 56
1, 234904, Control_c, 0, 64, 59
1, 234919, Control_c, 0, 64, 61
1, 234934, Control_c, 0, 64, 62
1, 234949, Control_c, 0, 64, 64
1, 234964, Control_c, 0, 64, 65
1, 234978, Control_c, 0, 64, 67
1, 234993, Control_c, 0, 64, 71
1, 235008, Control_c, 0, 64, 76
1, 235023, Control_c, 0, 64, 82
1, 235038, Control_c, 0, 64, 90
1, 235052, Control_c, 0, 64, 98
1, 235067, Control_c, 0, 64, 106
1, 235082, Control_c, 0, 64, 123
1, 235095, Control_c, 0, 64, 127
1, 235114, Note_off_c, 0, 46, 39
1, 235145, Note_off_c, 0, 41, 39
1, 235160, Note_off_c, 0, 37, 36
1, 235162, Note_off_c, 0, 49, 37
1, 235279, Note_off_c, 0, 53, 39
1, 235529, Note_off_c, 0, 61, 35
1, 235546, Note_off_c, 0, 58, 37
1, 235741, Control_c, 0, 64, 119
1, 235756, Control_c, 0, 64, 117
1, 235771, Control_c, 0, 64, 114
1, 235786, Note_on_c, 0, 57, 46
1, 235786, Control_c, 0, 64, 111
1, 235800, Control_c, 0, 64, 108
1, 235807, Note_on_c, 0, 45, 31
1, 235810, Note_on_c, 0, 33, 39
1, 235810, Note_on_c, 0, 37, 31
1, 235815, Control_c, 0, 64, 105
1, 235819, Note_on_c, 0, 53, 32
1, 235826, Note_on_c, 0, 41, 27
1, 235830, Control_c, 0, 64, 101
1, 235839, Note_on_c, 0, 49, 8
1, 235845, Control_c, 0, 64, 95
1, 235860, Control_c, 0, 64, 86
1, 235875, Control_c, 0, 64, 77
1, 235890, Control_c, 0, 64, 70
1, 235905, Control_c, 0, 64, 66
1, 235919, Control_c, 0, 64, 65
1, 235934, Control_c, 0, 64, 66
1, 235949, Control_c, 0, 64, 68
1, 235964, Control_c, 0, 64, 71
1, 235979, Control_c, 0, 64, 77
1, 235993, Note_off_c, 0, 53, 40
1, 235993, Control_c, 0, 64, 86
1, 236008, Control_c, 0, 64, 101
1, 236013, Note_off_c, 0, 33, 39
1, 236023, Control_c, 0, 64, 127
1, 236027, Note_off_c, 0, 45, 52
1, 236055, Note_off_c, 0, 41, 41
1, 236063, Note_off_c, 0, 49, 38
1, 236065, Note_off_c, 0, 37, 40
1, 236155, Note_on_c, 0, 58, 66
1, 236170, Note_on_c, 0, 34, 46
1, 236184, Note_on_c, 0, 46, 49
1, 236191, Note_on_c, 0, 49, 42
1, 236198, Note_on_c, 0, 41, 41
1, 236199, Note_on_c, 0, 53, 36
1, 236214, Note_on_c, 0, 37, 35
1, 236252, Note_off_c, 0, 57, 32
1, 236291, Note_off_c, 0, 53, 51
1, 236311, Note_off_c, 0, 34, 0
1, 236312, Note_off_c, 0, 46, 58
1, 236339, Note_off_c, 0, 49, 36
1, 236340, Note_off_c, 0, 41, 34
1, 236349, Poly_aftertouch_c, 0, 34, 0
1, 236402, Control_c, 0, 64, 91
1, 236405, Note_off_c, 0, 37, 0
1, 236410, Note_on_c, 0, 41, 43
1, 236417, Control_c, 0, 64, 72
1, 236418, Note_on_c, 0, 60, 74
1, 236423, Note_on_c, 0, 48, 67
1, 236428, Note_on_c, 0, 36, 58
1, 236429, Note_on_c, 0, 37, 19
1, 236429, Note_on_c, 0, 49, 57
1, 236431, Note_on_c, 0, 53, 55
1, 236431, Control_c, 0, 64, 63
1, 236446, Control_c, 0, 64, 60
1, 236461, Control_c, 0, 64, 63
1, 236467, Note_off_c, 0, 58, 57
1, 236476, Control_c, 0, 64, 66
1, 236491, Control_c, 0, 64, 72
1, 236504, Note_off_c, 0, 37, 55
1, 236505, Note_off_c, 0, 36, 61
1, 236505, Control_c, 0, 64, 84
1, 236512, Note_off_c, 0, 49, 54
1, 236514, Note_off_c, 0, 41, 62
1, 236520, Control_c, 0, 64, 127
1, 236543, Note_off_c, 0, 48, 61
1, 236557, Note_off_c, 0, 60, 61
1, 236631, Note_off_c, 0, 53, 52
1, 236715, Note_on_c, 0, 46, 58
1, 236717, Note_on_c, 0, 37, 54
1, 236718, Note_on_c, 0, 61, 79
1, 236719, Note_on_c, 0, 41, 40
1, 236722, Note_on_c, 0, 49, 56
1, 236724, Note_on_c, 0, 58, 57
1, 236730, Note_on_c, 0, 53, 56
1, 236787, Control_c, 0, 64, 113
1, 236802, Control_c, 0, 64, 101
1, 236816, Control_c, 0, 64, 94
1, 236831, Control_c, 0, 64, 89
1, 236846, Control_c, 0, 64, 83
1, 236861, Control_c, 0, 64, 79
1, 236875, Control_c, 0, 64, 76
1, 236890, Control_c, 0, 64, 73
1, 236905, Control_c, 0, 64, 69
1, 236920, Control_c, 0, 64, 65
1, 236935, Control_c, 0, 64, 59
1, 236949, Control_c, 0, 64, 51
1, 236964, Control_c, 0, 64, 43
1, 236979, Control_c, 0, 64, 34
1, 236994, Control_c, 0, 64, 20
1, 237009, Control_c, 0, 64, 9
1, 237023, Control_c, 0, 64, 0
1, 237075, Control_c, 0, 64, 9
1, 237090, Control_c, 0, 64, 20
1, 237105, Control_c, 0, 64, 33
1, 237121, Control_c, 0, 64, 46
1, 237136, Control_c, 0, 64, 56
1, 237151, Control_c, 0, 64, 62
1, 237166, Control_c, 0, 64, 67
1, 237180, Control_c, 0, 64, 74
1, 237195, Control_c, 0, 64, 86
1, 237210, Control_c, 0, 64, 111
1, 237225, Control_c, 0, 64, 127
1, 237298, Note_off_c, 0, 41, 41
1, 237303, Note_off_c, 0, 37, 36
1, 237345, Note_off_c, 0, 46, 54
1, 237365, Note_off_c, 0, 58, 52
1, 237444, Note_off_c, 0, 49, 50
1, 237472, Note_off_c, 0, 61, 59
1, 237485, Note_off_c, 0, 53, 34
1, 237883, Note_on_c, 0, 41, 41
1, 237884, Note_on_c, 0, 65, 78
1, 237889, Note_on_c, 0, 46, 49
1, 237892, Note_on_c, 0, 53, 52
1, 237893, Note_on_c, 0, 49, 48
1, 237899, Note_on_c, 0, 61, 59
1, 237902, Note_on_c, 0, 58, 58
1, 237959, Control_c, 0, 64, 110
1, 237974, Control_c, 0, 64, 82
1, 237988, Control_c, 0, 64, 68
1, 238003, Control_c, 0, 64, 56
1, 238018, Control_c, 0, 64, 39
1, 238033, Control_c, 0, 64, 36
1, 238048, Control_c, 0, 64, 37
1, 238063, Control_c, 0, 64, 43
1, 238077, Control_c, 0, 64, 50
1, 238092, Control_c, 0, 64, 56
1, 238107, Control_c, 0, 64, 61
1, 238121, Control_c, 0, 64, 64
1, 238136, Control_c, 0, 64, 67
1, 238151, Control_c, 0, 64, 74
1, 238166, Control_c, 0, 64, 85
1, 238181, Control_c, 0, 64, 105
1, 238195, Control_c, 0, 64, 127
1, 238329, Note_off_c, 0, 53, 28
1, 238424, Note_off_c, 0, 49, 35
1, 238464, Note_off_c, 0, 61, 54
1, 238503, Note_off_c, 0, 58, 30
1, 238519, Note_off_c, 0, 41, 38
1, 238552, Note_off_c, 0, 46, 36
1, 239112, Note_on_c, 0, 46, 47
1, 239116, Note_on_c, 0, 60, 64
1, 239121, Note_on_c, 0, 41, 43
1, 239127, Note_on_c, 0, 48, 47
1, 239131, Note_on_c, 0, 36, 43
1, 239136, Note_on_c, 0, 53, 49
1, 239136, Note_on_c, 0, 58, 54
1, 239151, Control_c, 0, 64, 110
1, 239166, Control_c, 0, 64, 92
1, 239181, Control_c, 0, 64, 79
1, 239196, Control_c, 0, 64, 69
1, 239210, Control_c, 0, 64, 62
1, 239221, Note_off_c, 0, 65, 42
1, 239225, Control_c, 0, 64, 58
1, 239240, Control_c, 0, 64, 59
1, 239255, Control_c, 0, 64, 61
1, 239270, Control_c, 0, 64, 64
1, 239284, Control_c, 0, 64, 67
1, 239299, Control_c, 0, 64, 74
1, 239321, Control_c, 0, 64, 87
1, 239336, Control_c, 0, 64, 127
1, 239345, Note_off_c, 0, 36, 34
1, 239379, Note_off_c, 0, 58, 54
1, 239385, Note_off_c, 0, 41, 49
1, 239391, Note_off_c, 0, 48, 61
1, 239426, Note_off_c, 0, 53, 52
1, 239437, Note_off_c, 0, 46, 37
1, 239510, Note_on_c, 0, 61, 86
1, 239514, Note_on_c, 0, 49, 68
1, 239519, Note_on_c, 0, 41, 61
1, 239519, Note_on_c, 0, 46, 54
1, 239521, Note_on_c, 0, 37, 52
1, 239522, Note_on_c, 0, 58, 60
1, 239525, Note_on_c, 0, 53, 65
1, 239635, Note_off_c, 0, 41, 62
1, 239661, Note_off_c, 0, 37, 48
1, 239684, Note_off_c, 0, 60, 34
1, 239702, Note_off_c, 0, 58, 60
1, 239708, Note_off_c, 0, 49, 59
1, 239718, Note_off_c, 0, 53, 53
1, 239781, Note_off_c, 0, 46, 0
1, 239781, Note_on_c, 0, 46, 10
1, 239791, Note_on_c, 0, 51, 79
1, 239795, Note_on_c, 0, 41, 54
1, 239795, Note_on_c, 0, 63, 85
1, 239797, Control_c, 0, 64, 90
1, 239798, Note_on_c, 0, 39, 68
1, 239799, Note_on_c, 0, 53, 75
1, 239812, Control_c, 0, 64, 70
1, 239815, Note_on_c, 0, 58, 73
1, 239827, Control_c, 0, 64, 51
1, 239841, Control_c, 0, 64, 29
1, 239848, Note_off_c, 0, 61, 54
1, 239856, Control_c, 0, 64, 35
1, 239871, Control_c, 0, 64, 47
1, 239885, Control_c, 0, 64, 56
1, 239900, Control_c, 0, 64, 62
1, 239915, Control_c, 0, 64, 66
1, 239918, Note_off_c, 0, 41, 63
1, 239930, Control_c, 0, 64, 72
1, 239945, Control_c, 0, 64, 85
1, 239959, Control_c, 0, 64, 111
1, 239961, Note_off_c, 0, 39, 59
1, 239974, Control_c, 0, 64, 127
1, 239982, Note_off_c, 0, 46, 49
1, 240012, Note_off_c, 0, 51, 62
1, 240033, Note_off_c, 0, 53, 54
1, 240047, Note_off_c, 0, 63, 61
1, 240168, Note_off_c, 0, 58, 0
1, 240170, Note_on_c, 0, 46, 43
1, 240181, Note_on_c, 0, 53, 68
1, 240182, Note_on_c, 0, 41, 58
1, 240182, Note_on_c, 0, 58, 43
1, 240182, Note_on_c, 0, 65, 81
1, 240185, Note_on_c, 0, 49, 56
1, 240197, Note_on_c, 0, 61, 65
1, 240219, Control_c, 0, 64, 110
1, 240234, Control_c, 0, 64, 98
1, 240248, Control_c, 0, 64, 89
1, 240263, Control_c, 0, 64, 83
1, 240278, Control_c, 0, 64, 78
1, 240293, Control_c, 0, 64, 73
1, 240308, Control_c, 0, 64, 69
1, 240324, Control_c, 0, 64, 64
1, 240338, Control_c, 0, 64, 58
1, 240353, Control_c, 0, 64, 51
1, 240368, Control_c, 0, 64, 45
1, 240383, Control_c, 0, 64, 40
1, 240397, Control_c, 0, 64, 38
1, 240412, Control_c, 0, 64, 37
1, 240427, Control_c, 0, 64, 37
1, 240472, Control_c, 0, 64, 37
1, 240486, Control_c, 0, 64, 39
1, 240501, Control_c, 0, 64, 42
1, 240516, Control_c, 0, 64, 45
1, 240531, Control_c, 0, 64, 49
1, 240546, Control_c, 0, 64, 53
1, 240561, Control_c, 0, 64, 56
1, 240576, Control_c, 0, 64, 58
1, 240590, Control_c, 0, 64, 60
1, 240605, Control_c, 0, 64, 62
1, 240620, Control_c, 0, 64, 63
1, 240635, Control_c, 0, 64, 65
1, 240650, Control_c, 0, 64, 66
1, 240664, Control_c, 0, 64, 69
1, 240679, Control_c, 0, 64, 72
1, 240694, Control_c, 0, 64, 76
1, 240708, Control_c, 0, 64, 79
1, 240719, Note_off_c, 0, 53, 49
1, 240723, Control_c, 0, 64, 82
1, 240738, Control_c, 0, 64, 85
1, 240751, Note_off_c, 0, 41, 31
1, 240753, Control_c, 0, 64, 90
1, 240768, Note_off_c, 0, 58, 34
1, 240768, Control_c, 0, 64, 95
1, 240782, Control_c, 0, 64, 101
1, 240797, Control_c, 0, 64, 107
1, 240818, Note_off_c, 0, 61, 37
1, 240820, Control_c, 0, 64, 113
1, 240835, Control_c, 0, 64, 116
1, 240850, Control_c, 0, 64, 117
1, 240856, Note_off_c, 0, 46, 41
1, 240864, Control_c, 0, 64, 118
1, 240907, Note_off_c, 0, 49, 35
1, 240937, Note_off_c, 0, 65, 52
1, 241042, Control_c, 0, 64, 117
1, 241057, Control_c, 0, 64, 116
1, 241101, Control_c, 0, 64, 115
1, 241117, Control_c, 0, 64, 114
1, 241132, Control_c, 0, 64, 113
1, 241146, Control_c, 0, 64, 112
1, 241161, Control_c, 0, 64, 111
1, 241176, Control_c, 0, 64, 111
1, 241191, Control_c, 0, 64, 110
1, 241220, Control_c, 0, 64, 110
1, 241235, Control_c, 0, 64, 109
1, 241250, Control_c, 0, 64, 108
1, 241280, Control_c, 0, 64, 107
1, 241324, Control_c, 0, 64, 107
1, 241384, Control_c, 0, 64, 106
1, 241399, Control_c, 0, 64, 105
1, 241428, Control_c, 0, 64, 105
1, 241473, Control_c, 0, 64, 104
1, 241502, Control_c, 0, 64, 104
1, 241517, Control_c, 0, 64, 103
1, 241532, Control_c, 0, 64, 102
1, 241546, Control_c, 0, 64, 101
1, 241566, Note_on_c, 0, 70, 74
1, 241569, Control_c, 0, 64, 100
1, 241583, Control_c, 0, 64, 99
1, 241586, Note_on_c, 0, 61, 51
1, 241594, Note_on_c, 0, 58, 36
1, 241597, Note_on_c, 0, 65, 46
1, 241598, Control_c, 0, 64, 97
1, 241600, Note_on_c, 0, 53, 33
1, 241601, Note_on_c, 0, 46, 35
1, 241613, Control_c, 0, 64, 96
1, 241628, Control_c, 0, 64, 94
1, 241628, Note_on_c, 0, 49, 26
1, 241643, Control_c, 0, 64, 91
1, 241658, Control_c, 0, 64, 87
1, 241673, Control_c, 0, 64, 82
1, 241687, Control_c, 0, 64, 73
1, 241702, Control_c, 0, 64, 65
1, 241717, Control_c, 0, 64, 55
1, 241732, Control_c, 0, 64, 45
1, 241746, Control_c, 0, 64, 44
1, 241761, Control_c, 0, 64, 46
1, 241776, Control_c, 0, 64, 50
1, 241791, Control_c, 0, 64, 55
1, 241806, Control_c, 0, 64, 58
1, 241820, Control_c, 0, 64, 61
1, 241835, Control_c, 0, 64, 63
1, 241850, Control_c, 0, 64, 65
1, 241865, Control_c, 0, 64, 68
1, 241880, Control_c, 0, 64, 73
1, 241894, Control_c, 0, 64, 80
1, 241910, Control_c, 0, 64, 89
1, 241925, Control_c, 0, 64, 100
1, 241940, Control_c, 0, 64, 113
1, 241955, Control_c, 0, 64, 127
1, 242123, Note_off_c, 0, 58, 36
1, 242138, Note_off_c, 0, 49, 30
1, 242150, Note_off_c, 0, 65, 34
1, 242245, Note_off_c, 0, 53, 31
1, 242281, Note_off_c, 0, 46, 37
1, 242440, Note_off_c, 0, 61, 38
1, 242446, Note_off_c, 0, 70, 48
1, 242525, Control_c, 0, 64, 123
1, 242540, Control_c, 0, 64, 119
1, 242555, Control_c, 0, 64, 117
1, 242569, Control_c, 0, 64, 116
1, 242584, Control_c, 0, 64, 114
1, 242599, Control_c, 0, 64, 113
1, 242614, Control_c, 0, 64, 111
1, 242629, Control_c, 0, 64, 110
1, 242643, Control_c, 0, 64, 107
1, 242658, Control_c, 0, 64, 106
1, 242673, Control_c, 0, 64, 104
1, 242688, Control_c, 0, 64, 101
1, 242702, Control_c, 0, 64, 100
1, 242719, Control_c, 0, 64, 98
1, 242733, Control_c, 0, 64, 97
1, 242748, Control_c, 0, 64, 95
1, 242759, Note_on_c, 0, 69, 60
1, 242763, Control_c, 0, 64, 92
1, 242767, Note_on_c, 0, 45, 35
1, 242776, Note_on_c, 0, 53, 31
1, 242776, Note_on_c, 0, 57, 33
1, 242776, Note_on_c, 0, 60, 38
1, 242778, Control_c, 0, 64, 89
1, 242792, Control_c, 0, 64, 84
1, 242796, Note_on_c, 0, 65, 37
1, 242797, Note_on_c, 0, 48, 29
1, 242807, Control_c, 0, 64, 75
1, 242822, Control_c, 0, 64, 66
1, 242837, Control_c, 0, 64, 59
1, 242852, Control_c, 0, 64, 53
1, 242866, Control_c, 0, 64, 53
1, 242881, Control_c, 0, 64, 55
1, 242896, Control_c, 0, 64, 57
1, 242911, Control_c, 0, 64, 60
1, 242926, Control_c, 0, 64, 63
1, 242940, Control_c, 0, 64, 65
1, 242955, Control_c, 0, 64, 69
1, 242970, Control_c, 0, 64, 74
1, 242984, Control_c, 0, 64, 85
1, 242999, Control_c, 0, 64, 97
1, 243014, Control_c, 0, 64, 116
1, 243023, Note_off_c, 0, 45, 51
1, 243029, Control_c, 0, 64, 127
1, 243042, Note_off_c, 0, 60, 58
1, 243064, Note_off_c, 0, 48, 38
1, 243065, Note_off_c, 0, 65, 39
1, 243074, Note_off_c, 0, 57, 42
1, 243088, Note_off_c, 0, 53, 42
1, 243244, Control_c, 0, 64, 117
1, 243259, Control_c, 0, 64, 111
1, 243274, Control_c, 0, 64, 104
1, 243288, Control_c, 0, 64, 99
1, 243303, Control_c, 0, 64, 95
1, 243315, Note_on_c, 0, 67, 55
1, 243315, Note_on_c, 0, 43, 39
1, 243318, Control_c, 0, 64, 92
1, 243319, Note_on_c, 0, 58, 43
1, 243333, Control_c, 0, 64, 88
1, 243337, Note_on_c, 0, 55, 32
1, 243338, Note_on_c, 0, 65, 34
1, 243339, Note_on_c, 0, 53, 25
1, 243345, Note_on_c, 0, 48, 28
1, 243348, Control_c, 0, 64, 81
1, 243363, Control_c, 0, 64, 70
1, 243378, Control_c, 0, 64, 61
1, 243387, Note_off_c, 0, 69, 37
1, 243392, Control_c, 0, 64, 44
1, 243407, Control_c, 0, 64, 32
1, 243437, Control_c, 0, 64, 34
1, 243452, Control_c, 0, 64, 42
1, 243466, Control_c, 0, 64, 50
1, 243481, Control_c, 0, 64, 55
1, 243496, Control_c, 0, 64, 59
1, 243512, Control_c, 0, 64, 63
1, 243527, Control_c, 0, 64, 66
1, 243542, Control_c, 0, 64, 70
1, 243556, Control_c, 0, 64, 78
1, 243571, Control_c, 0, 64, 90
1, 243572, Note_off_c, 0, 43, 40
1, 243586, Control_c, 0, 64, 111
1, 243601, Control_c, 0, 64, 127
1, 243612, Note_off_c, 0, 48, 41
1, 243625, Note_off_c, 0, 65, 30
1, 243625, Note_off_c, 0, 58, 59
1, 243629, Note_off_c, 0, 55, 41
1, 243640, Note_off_c, 0, 53, 41
1, 243659, Note_off_c, 0, 67, 58
1, 243948, Control_c, 0, 64, 118
1, 243963, Control_c, 0, 64, 113
1, 243970, Note_on_c, 0, 45, 31
1, 243972, Note_on_c, 0, 69, 45
1, 243974, Note_on_c, 0, 53, 26
1, 243978, Control_c, 0, 64, 109
1, 243980, Note_on_c, 0, 57, 29
1, 243988, Note_on_c, 0, 48, 25
1, 243993, Control_c, 0, 64, 107
1, 243994, Note_on_c, 0, 60, 31
1, 243995, Note_on_c, 0, 65, 31
1, 244008, Control_c, 0, 64, 106
1, 244022, Control_c, 0, 64, 104
1, 244037, Control_c, 0, 64, 101
1, 244052, Control_c, 0, 64, 97
1, 244067, Control_c, 0, 64, 92
1, 244082, Control_c, 0, 64, 89
1, 244096, Control_c, 0, 64, 86
1, 244111, Control_c, 0, 64, 82
1, 244126, Control_c, 0, 64, 79
1, 244141, Control_c, 0, 64, 77
1, 244156, Control_c, 0, 64, 75
1, 244171, Control_c, 0, 64, 73
1, 244186, Control_c, 0, 64, 72
1, 244201, Control_c, 0, 64, 69
1, 244215, Control_c, 0, 64, 68
1, 244230, Control_c, 0, 64, 66
1, 244245, Control_c, 0, 64, 65
1, 244260, Control_c, 0, 64, 64
1, 244275, Control_c, 0, 64, 63
1, 244289, Control_c, 0, 64, 63
1, 244305, Control_c, 0, 64, 62
1, 244320, Control_c, 0, 64, 61
1, 244335, Control_c, 0, 64, 60
1, 244350, Control_c, 0, 64, 59
1, 244364, Control_c, 0, 64, 58
1, 244379, Control_c, 0, 64, 57
1, 244394, Control_c, 0, 64, 55
1, 244409, Control_c, 0, 64, 54
1, 244424, Control_c, 0, 64, 52
1, 244438, Control_c, 0, 64, 49
1, 244453, Control_c, 0, 64, 45
1, 244468, Control_c, 0, 64, 40
1, 244483, Control_c, 0, 64, 32
1, 244498, Control_c, 0, 64, 24
1, 244512, Control_c, 0, 64, 0
1, 245143, Control_c, 0, 64, 17
1, 245158, Control_c, 0, 64, 26
1, 245172, Control_c, 0, 64, 34
1, 245187, Control_c, 0, 64, 41
1, 245202, Control_c, 0, 64, 45
1, 245217, Control_c, 0, 64, 48
1, 245232, Control_c, 0, 64, 51
1, 245247, Control_c, 0, 64, 52
1, 245261, Control_c, 0, 64, 54
1, 245276, Control_c, 0, 64, 56
1, 245291, Control_c, 0, 64, 57
1, 245313, Control_c, 0, 64, 58
1, 245328, Control_c, 0, 64, 59
1, 245342, Control_c, 0, 64, 60
1, 245357, Control_c, 0, 64, 61
1, 245372, Control_c, 0, 64, 62
1, 245387, Control_c, 0, 64, 63
1, 245402, Control_c, 0, 64, 63
1, 245417, Control_c, 0, 64, 64
1, 245432, Control_c, 0, 64, 65
1, 245447, Control_c, 0, 64, 66
1, 245461, Control_c, 0, 64, 66
1, 245476, Control_c, 0, 64, 67
1, 245491, Control_c, 0, 64, 68
1, 245506, Control_c, 0, 64, 69
1, 245521, Control_c, 0, 64, 69
1, 245535, Control_c, 0, 64, 70
1, 245550, Control_c, 0, 64, 70
1, 245565, Control_c, 0, 64, 71
1, 245579, Control_c, 0, 64, 72
1, 245593, Control_c, 0, 64, 73
1, 245608, Control_c, 0, 64, 74
1, 245623, Control_c, 0, 64, 75
1, 245637, Control_c, 0, 64, 76
1, 245652, Control_c, 0, 64, 77
1, 245667, Control_c, 0, 64, 79
1, 245682, Control_c, 0, 64, 80
1, 245697, Control_c, 0, 64, 82
1, 245712, Control_c, 0, 64, 84
1, 245726, Control_c, 0, 64, 86
1, 245741, Control_c, 0, 64, 89
1, 245756, Control_c, 0, 64, 91
1, 245771, Control_c, 0, 64, 93
1, 245785, Control_c, 0, 64, 97
1, 245800, Control_c, 0, 64, 102
1, 245815, Control_c, 0, 64, 108
1, 245830, Control_c, 0, 64, 118
1, 245845, Control_c, 0, 64, 127
1, 246014, Note_off_c, 0, 57, 37
1, 246216, Note_off_c, 0, 53, 40
1, 246234, Note_off_c, 0, 69, 35
1, 246323, Note_off_c, 0, 65, 40
1, 246328, Note_off_c, 0, 48, 38
1, 246354, Note_off_c, 0, 45, 39
1, 246392, Note_off_c, 0, 60, 41
1, 246940, Note_on_c, 0, 58, 80
1, 246941, Note_on_c, 0, 34, 54
1, 246945, Note_on_c, 0, 53, 61
1, 246949, Note_on_c, 0, 46, 56
1, 246950, Note_on_c, 0, 41, 50
1, 246950, Note_on_c, 0, 49, 57
1, 246957, Note_on_c, 0, 37, 47
1, 247002, Control_c, 0, 64, 110
1, 247017, Control_c, 0, 64, 101
1, 247031, Control_c, 0, 64, 92
1, 247046, Control_c, 0, 64, 84
1, 247061, Control_c, 0, 64, 76
1, 247076, Control_c, 0, 64, 68
1, 247091, Control_c, 0, 64, 59
1, 247105, Control_c, 0, 64, 48
1, 247120, Control_c, 0, 64, 45
1, 247135, Control_c, 0, 64, 46
1, 247150, Control_c, 0, 64, 50
1, 247164, Control_c, 0, 64, 53
1, 247179, Control_c, 0, 64, 57
1, 247194, Control_c, 0, 64, 62
1, 247209, Control_c, 0, 64, 66
1, 247223, Control_c, 0, 64, 71
1, 247238, Control_c, 0, 64, 79
1, 247253, Control_c, 0, 64, 90
1, 247268, Control_c, 0, 64, 108
1, 247283, Control_c, 0, 64, 127
1, 247444, Note_off_c, 0, 34, 36
1, 247503, Note_off_c, 0, 37, 32
1, 247504, Note_off_c, 0, 41, 36
1, 247576, Note_off_c, 0, 53, 37
1, 247620, Note_off_c, 0, 58, 57
1, 247629, Note_off_c, 0, 46, 36
1, 247757, Note_off_c, 0, 49, 53
1, 248042, Note_on_c, 0, 61, 78
1, 248045, Note_on_c, 0, 37, 52
1, 248045, Note_on_c, 0, 41, 52
1, 248047, Control_c, 0, 64, 115
1, 248049, Note_on_c, 0, 46, 61
1, 248050, Note_on_c, 0, 49, 59
1, 248052, Note_on_c, 0, 58, 69
1, 248057, Note_on_c, 0, 53, 62
1, 248062, Control_c, 0, 64, 104
1, 248077, Control_c, 0, 64, 97
1, 248092, Control_c, 0, 64, 89
1, 248107, Control_c, 0, 64, 80
1, 248122, Control_c, 0, 64, 72
1, 248136, Control_c, 0, 64, 64
1, 248151, Control_c, 0, 64, 54
1, 248166, Control_c, 0, 64, 38
1, 248180, Control_c, 0, 64, 35
1, 248195, Control_c, 0, 64, 39
1, 248210, Control_c, 0, 64, 46
1, 248225, Control_c, 0, 64, 51
1, 248240, Control_c, 0, 64, 58
1, 248255, Control_c, 0, 64, 63
1, 248270, Control_c, 0, 64, 67
1, 248284, Control_c, 0, 64, 72
1, 248308, Control_c, 0, 64, 80
1, 248323, Control_c, 0, 64, 90
1, 248338, Control_c, 0, 64, 104
1, 248352, Control_c, 0, 64, 127
1, 248420, Note_off_c, 0, 37, 31
1, 248425, Note_off_c, 0, 41, 56
1, 248466, Note_off_c, 0, 53, 38
1, 248475, Note_off_c, 0, 46, 36
1, 248490, Note_off_c, 0, 49, 31
1, 249123, Note_off_c, 0, 61, 31
1, 249161, Control_c, 0, 64, 115
1, 249165, Note_on_c, 0, 57, 56
1, 249171, Note_on_c, 0, 33, 44
1, 249174, Note_on_c, 0, 45, 34
1, 249175, Control_c, 0, 64, 105
1, 249177, Note_on_c, 0, 41, 35
1, 249179, Note_on_c, 0, 49, 41
1, 249185, Note_on_c, 0, 37, 36
1, 249188, Note_on_c, 0, 53, 46
1, 249190, Control_c, 0, 64, 94
1, 249195, Note_off_c, 0, 58, 55
1, 249205, Control_c, 0, 64, 82
1, 249220, Control_c, 0, 64, 71
1, 249234, Control_c, 0, 64, 61
1, 249249, Control_c, 0, 64, 52
1, 249264, Control_c, 0, 64, 52
1, 249279, Control_c, 0, 64, 56
1, 249294, Control_c, 0, 64, 59
1, 249308, Control_c, 0, 64, 62
1, 249323, Control_c, 0, 64, 67
1, 249337, Control_c, 0, 64, 74
1, 249352, Control_c, 0, 64, 85
1, 249367, Control_c, 0, 64, 107
1, 249381, Control_c, 0, 64, 127
1, 249397, Note_off_c, 0, 53, 43
1, 249405, Note_off_c, 0, 33, 40
1, 249422, Note_off_c, 0, 45, 61
1, 249430, Note_off_c, 0, 49, 57
1, 249454, Note_off_c, 0, 41, 42
1, 249455, Note_off_c, 0, 37, 40
1, 249531, Note_on_c, 0, 58, 74
1, 249536, Note_on_c, 0, 46, 70
1, 249542, Note_on_c, 0, 34, 58
1, 249555, Note_on_c, 0, 41, 52
1, 249556, Note_on_c, 0, 49, 53
1, 249560, Note_on_c, 0, 53, 47
1, 249566, Note_on_c, 0, 37, 53
1, 249653, Note_off_c, 0, 53, 51
1, 249661, Note_off_c, 0, 34, 59
1, 249674, Note_off_c, 0, 46, 59
1, 249688, Note_off_c, 0, 41, 36
1, 249703, Note_off_c, 0, 57, 31
1, 249713, Note_off_c, 0, 37, 31
1, 249720, Note_off_c, 0, 49, 38
1, 249766, Control_c, 0, 64, 110
1, 249781, Note_on_c, 0, 41, 52
1, 249781, Note_on_c, 0, 48, 85
1, 249781, Control_c, 0, 64, 77
1, 249790, Note_on_c, 0, 36, 68
1, 249790, Note_on_c, 0, 60, 80
1, 249802, Note_on_c, 0, 37, 44
1, 249803, Note_on_c, 0, 53, 66
1, 249804, Note_on_c, 0, 49, 68
1, 249804, Control_c, 0, 64, 61
1, 249819, Control_c, 0, 64, 42
1, 249833, Control_c, 0, 64, 46
1, 249848, Control_c, 0, 64, 56
1, 249863, Control_c, 0, 64, 63
1, 249869, Note_off_c, 0, 36, 63
1, 249873, Note_off_c, 0, 37, 60
1, 249878, Control_c, 0, 64, 72
1, 249879, Note_off_c, 0, 41, 64
1, 249885, Note_off_c, 0, 49, 63
1, 249893, Control_c, 0, 64, 97
1, 249902, Note_off_c, 0, 58, 0
1, 249909, Control_c, 0, 64, 127
1, 249919, Note_off_c, 0, 48, 62
1, 249924, Note_off_c, 0, 60, 60
1, 249957, Note_off_c, 0, 53, 55
1, 249975, Poly_aftertouch_c, 0, 58, 0
1, 250079, Note_on_c, 0, 37, 68
1, 250080, Note_on_c, 0, 49, 79
1, 250084, Note_on_c, 0, 46, 72
1, 250084, Note_on_c, 0, 61, 90
1, 250090, Note_on_c, 0, 41, 54
1, 250091, Note_on_c, 0, 53, 78
1, 250096, Note_on_c, 0, 58, 64
1, 250145, Control_c, 0, 64, 113
1, 250160, Control_c, 0, 64, 91
1, 250174, Control_c, 0, 64, 79
1, 250189, Control_c, 0, 64, 70
1, 250204, Control_c, 0, 64, 62
1, 250219, Control_c, 0, 64, 51
1, 250234, Control_c, 0, 64, 36
1, 250249, Control_c, 0, 64, 24
1, 250264, Control_c, 0, 64, 20
1, 250279, Control_c, 0, 64, 18
1, 250294, Control_c, 0, 64, 17
1, 250309, Control_c, 0, 64, 16
1, 250338, Control_c, 0, 64, 17
1, 250353, Control_c, 0, 64, 26
1, 250368, Control_c, 0, 64, 34
1, 250382, Control_c, 0, 64, 41
1, 250397, Control_c, 0, 64, 48
1, 250412, Control_c, 0, 64, 53
1, 250427, Control_c, 0, 64, 58
1, 250442, Control_c, 0, 64, 63
1, 250456, Control_c, 0, 64, 66
1, 250471, Control_c, 0, 64, 70
1, 250486, Control_c, 0, 64, 76
1, 250497, Note_off_c, 0, 37, 53
1, 250501, Control_c, 0, 64, 85
1, 250516, Control_c, 0, 64, 98
1, 250530, Control_c, 0, 64, 127
1, 250574, Note_off_c, 0, 41, 36
1, 250577, Note_off_c, 0, 53, 31
1, 250657, Note_off_c, 0, 49, 32
1, 250665, Note_off_c, 0, 58, 39
1, 250687, Note_off_c, 0, 46, 31
1, 250693, Note_off_c, 0, 61, 58
1, 251288, Note_on_c, 0, 65, 90
1, 251297, Note_on_c, 0, 49, 68
1, 251297, Note_on_c, 0, 53, 80
1, 251301, Note_on_c, 0, 41, 68
1, 251301, Note_on_c, 0, 46, 63
1, 251304, Note_on_c, 0, 58, 78
1, 251317, Note_on_c, 0, 61, 68
1, 251346, Control_c, 0, 64, 109
1, 251361, Control_c, 0, 64, 88
1, 251376, Control_c, 0, 64, 69
1, 251391, Control_c, 0, 64, 55
1, 251405, Control_c, 0, 64, 21
1, 251420, Control_c, 0, 64, 13
1, 251435, Control_c, 0, 64, 22
1, 251450, Control_c, 0, 64, 32
1, 251465, Control_c, 0, 64, 45
1, 251479, Control_c, 0, 64, 52
1, 251494, Control_c, 0, 64, 57
1, 251510, Control_c, 0, 64, 61
1, 251525, Control_c, 0, 64, 65
1, 251540, Control_c, 0, 64, 69
1, 251555, Control_c, 0, 64, 77
1, 251569, Control_c, 0, 64, 86
1, 251584, Control_c, 0, 64, 98
1, 251599, Control_c, 0, 64, 117
1, 251614, Control_c, 0, 64, 127
1, 251677, Note_off_c, 0, 41, 51
1, 251719, Note_off_c, 0, 53, 52
1, 251773, Note_off_c, 0, 49, 51
1, 251826, Note_off_c, 0, 61, 58
1, 251839, Note_off_c, 0, 46, 29
1, 251936, Note_off_c, 0, 58, 52
1, 252258, Note_off_c, 0, 65, 49
1, 252449, Note_on_c, 0, 36, 53
1, 252458, Note_on_c, 0, 60, 76
1, 252462, Note_on_c, 0, 48, 55
1, 252464, Note_on_c, 0, 41, 56
1, 252468, Note_on_c, 0, 46, 57
1, 252471, Note_on_c, 0, 53, 66
1, 252474, Note_on_c, 0, 58, 64
1, 252482, Control_c, 0, 64, 104
1, 252496, Control_c, 0, 64, 82
1, 252511, Control_c, 0, 64, 67
1, 252526, Control_c, 0, 64, 55
1, 252541, Control_c, 0, 64, 42
1, 252556, Control_c, 0, 64, 46
1, 252571, Control_c, 0, 64, 53
1, 252586, Control_c, 0, 64, 59
1, 252600, Control_c, 0, 64, 63
1, 252615, Control_c, 0, 64, 69
1, 252623, Note_off_c, 0, 36, 56
1, 252630, Control_c, 0, 64, 79
1, 252641, Note_off_c, 0, 58, 55
1, 252644, Control_c, 0, 64, 104
1, 252659, Control_c, 0, 64, 127
1, 252663, Note_on_c, 0, 39, 5
1, 252709, Note_off_c, 0, 48, 62
1, 252721, Note_off_c, 0, 41, 36
1, 252726, Note_off_c, 0, 46, 52
1, 252727, Note_off_c, 0, 39, 49
1, 252746, Note_off_c, 0, 53, 57
1, 252835, Note_on_c, 0, 49, 80
1, 252839, Note_on_c, 0, 61, 90
1, 252841, Note_on_c, 0, 46, 63
1, 252842, Note_on_c, 0, 37, 63
1, 252843, Note_on_c, 0, 41, 63
1, 252843, Note_on_c, 0, 53, 86
1, 252850, Note_on_c, 0, 58, 74
1, 252929, Note_off_c, 0, 60, 56
1, 252941, Note_off_c, 0, 41, 62
1, 252947, Note_off_c, 0, 46, 61
1, 252950, Note_off_c, 0, 37, 50
1, 252970, Note_off_c, 0, 58, 62
1, 253006, Note_off_c, 0, 49, 60
1, 253038, Note_off_c, 0, 53, 60
1, 253107, Note_on_c, 0, 51, 92
1, 253112, Note_on_c, 0, 63, 92
1, 253112, Control_c, 0, 64, 97
1, 253116, Note_on_c, 0, 39, 72
1, 253116, Note_on_c, 0, 44, 75
1, 253119, Note_on_c, 0, 53, 91
1, 253121, Note_on_c, 0, 41, 67
1, 253127, Control_c, 0, 64, 71
1, 253132, Note_on_c, 0, 56, 71
1, 253141, Control_c, 0, 64, 45
1, 253156, Control_c, 0, 64, 0
1, 253186, Control_c, 0, 64, 24
1, 253193, Note_off_c, 0, 61, 35
1, 253201, Control_c, 0, 64, 48
1, 253216, Control_c, 0, 64, 60
1, 253230, Control_c, 0, 64, 66
1, 253244, Note_off_c, 0, 41, 63
1, 253245, Control_c, 0, 64, 78
1, 253260, Control_c, 0, 64, 113
1, 253266, Note_off_c, 0, 44, 62
1, 253275, Control_c, 0, 64, 127
1, 253275, Note_off_c, 0, 39, 61
1, 253304, Note_off_c, 0, 56, 54
1, 253306, Note_off_c, 0, 51, 62
1, 253320, Note_off_c, 0, 63, 61
1, 253343, Note_off_c, 0, 53, 55
1, 253465, Note_on_c, 0, 53, 93
1, 253468, Note_on_c, 0, 65, 90
1, 253468, Note_on_c, 0, 49, 77
1, 253472, Note_on_c, 0, 56, 88
1, 253473, Note_on_c, 0, 41, 77
1, 253479, Note_on_c, 0, 44, 77
1, 253480, Note_on_c, 0, 61, 79
1, 253512, Control_c, 0, 64, 95
1, 253527, Control_c, 0, 64, 75
1, 253549, Control_c, 0, 64, 61
1, 253564, Control_c, 0, 64, 27
1, 253579, Control_c, 0, 64, 0
1, 253771, Control_c, 0, 64, 28
1, 253786, Control_c, 0, 64, 40
1, 253800, Control_c, 0, 64, 49
1, 253815, Control_c, 0, 64, 53
1, 253829, Control_c, 0, 64, 57
1, 253844, Control_c, 0, 64, 60
1, 253859, Control_c, 0, 64, 62
1, 253874, Control_c, 0, 64, 65
1, 253889, Control_c, 0, 64, 69
1, 253904, Control_c, 0, 64, 75
1, 253919, Control_c, 0, 64, 84
1, 253934, Control_c, 0, 64, 97
1, 253942, Note_off_c, 0, 41, 34
1, 253949, Control_c, 0, 64, 127
1, 253980, Note_off_c, 0, 56, 51
1, 254014, Note_off_c, 0, 44, 33
1, 254021, Note_off_c, 0, 49, 56
1, 254077, Note_off_c, 0, 53, 61
1, 254077, Note_off_c, 0, 61, 49
1, 254097, Note_off_c, 0, 65, 50
1, 254879, Note_on_c, 0, 73, 94
1, 254883, Note_on_c, 0, 61, 63
1, 254884, Note_on_c, 0, 56, 62
1, 254887, Note_on_c, 0, 53, 57
1, 254887, Note_on_c, 0, 49, 56
1, 254890, Note_on_c, 0, 65, 74
1, 254892, Note_on_c, 0, 68, 75
1, 254905, Control_c, 0, 64, 112
1, 254920, Control_c, 0, 64, 103
1, 254935, Control_c, 0, 64, 92
1, 254950, Control_c, 0, 64, 79
1, 254965, Control_c, 0, 64, 67
1, 254980, Control_c, 0, 64, 55
1, 254994, Control_c, 0, 64, 35
1, 255009, Control_c, 0, 64, 33
1, 255024, Control_c, 0, 64, 34
1, 255045, Control_c, 0, 64, 37
1, 255060, Control_c, 0, 64, 40
1, 255075, Control_c, 0, 64, 44
1, 255090, Control_c, 0, 64, 48
1, 255105, Control_c, 0, 64, 53
1, 255120, Control_c, 0, 64, 56
1, 255135, Control_c, 0, 64, 59
1, 255150, Control_c, 0, 64, 61
1, 255164, Control_c, 0, 64, 63
1, 255179, Control_c, 0, 64, 66
1, 255194, Control_c, 0, 64, 71
1, 255209, Control_c, 0, 64, 77
1, 255224, Control_c, 0, 64, 85
1, 255239, Control_c, 0, 64, 95
1, 255253, Control_c, 0, 64, 106
1, 255268, Control_c, 0, 64, 118
1, 255283, Control_c, 0, 64, 127
1, 255410, Note_off_c, 0, 53, 26
1, 255442, Note_off_c, 0, 65, 30
1, 255462, Note_off_c, 0, 49, 31
1, 255490, Note_off_c, 0, 61, 30
1, 255561, Note_off_c, 0, 68, 34
1, 255611, Note_off_c, 0, 56, 25
1, 255869, Control_c, 0, 64, 123
1, 255884, Control_c, 0, 64, 121
1, 255899, Control_c, 0, 64, 119
1, 255914, Control_c, 0, 64, 118
1, 255929, Control_c, 0, 64, 116
1, 255943, Control_c, 0, 64, 113
1, 255958, Control_c, 0, 64, 111
1, 255973, Control_c, 0, 64, 109
1, 255988, Control_c, 0, 64, 107
1, 256002, Control_c, 0, 64, 106
1, 256017, Control_c, 0, 64, 104
1, 256032, Control_c, 0, 64, 102
1, 256047, Control_c, 0, 64, 101
1, 256062, Control_c, 0, 64, 97
1, 256069, Note_on_c, 0, 48, 46
1, 256073, Note_on_c, 0, 72, 72
1, 256075, Note_on_c, 0, 51, 47
1, 256077, Control_c, 0, 64, 87
1, 256083, Note_on_c, 0, 56, 40
1, 256085, Note_on_c, 0, 60, 33
1, 256090, Note_on_c, 0, 63, 46
1, 256091, Control_c, 0, 64, 75
1, 256106, Control_c, 0, 64, 64
1, 256121, Control_c, 0, 64, 48
1, 256122, Note_off_c, 0, 73, 54
1, 256130, Note_on_c, 0, 68, 15
1, 256136, Control_c, 0, 64, 43
1, 256151, Control_c, 0, 64, 45
1, 256166, Control_c, 0, 64, 49
1, 256181, Control_c, 0, 64, 54
1, 256195, Control_c, 0, 64, 58
1, 256210, Control_c, 0, 64, 62
1, 256225, Control_c, 0, 64, 65
1, 256240, Control_c, 0, 64, 69
1, 256255, Control_c, 0, 64, 76
1, 256269, Control_c, 0, 64, 88
1, 256285, Control_c, 0, 64, 109
1, 256297, Note_off_c, 0, 48, 59
1, 256300, Control_c, 0, 64, 127
1, 256311, Note_off_c, 0, 60, 41
1, 256339, Note_off_c, 0, 51, 63
1, 256340, Note_off_c, 0, 56, 61
1, 256380, Note_off_c, 0, 63, 59
1, 256432, Note_off_c, 0, 68, 36
1, 256545, Control_c, 0, 64, 117
1, 256559, Control_c, 0, 64, 100
1, 256571, Note_on_c, 0, 70, 75
1, 256574, Control_c, 0, 64, 83
1, 256577, Note_on_c, 0, 46, 43
1, 256583, Note_on_c, 0, 51, 46
1, 256589, Note_on_c, 0, 61, 48
1, 256589, Control_c, 0, 64, 67
1, 256593, Note_on_c, 0, 68, 47
1, 256595, Note_on_c, 0, 58, 41
1, 256595, Note_on_c, 0, 56, 39
1, 256604, Control_c, 0, 64, 54
1, 256618, Control_c, 0, 64, 33
1, 256633, Control_c, 0, 64, 32
1, 256648, Control_c, 0, 64, 38
1, 256661, Note_off_c, 0, 72, 55
1, 256663, Control_c, 0, 64, 47
1, 256678, Control_c, 0, 64, 54
1, 256692, Control_c, 0, 64, 60
1, 256707, Control_c, 0, 64, 64
1, 256722, Control_c, 0, 64, 68
1, 256737, Control_c, 0, 64, 76
1, 256752, Control_c, 0, 64, 90
1, 256766, Control_c, 0, 64, 117
1, 256774, Note_off_c, 0, 46, 57
1, 256781, Control_c, 0, 64, 127
1, 256843, Note_off_c, 0, 61, 39
1, 256872, Note_off_c, 0, 51, 36
1, 256899, Note_off_c, 0, 56, 38
1, 256905, Note_off_c, 0, 68, 32
1, 256914, Note_off_c, 0, 58, 52
1, 257121, Control_c, 0, 64, 121
1, 257133, Note_on_c, 0, 72, 69
1, 257136, Control_c, 0, 64, 111
1, 257141, Note_on_c, 0, 48, 40
1, 257151, Control_c, 0, 64, 104
1, 257153, Note_on_c, 0, 60, 35
1, 257153, Note_on_c, 0, 63, 44
1, 257156, Note_on_c, 0, 51, 40
1, 257164, Note_on_c, 0, 56, 37
1, 257164, Note_on_c, 0, 68, 37
1, 257166, Control_c, 0, 64, 99
1, 257181, Control_c, 0, 64, 95
1, 257195, Control_c, 0, 64, 93
1, 257210, Control_c, 0, 64, 90
1, 257218, Note_off_c, 0, 70, 39
1, 257225, Control_c, 0, 64, 87
1, 257239, Control_c, 0, 64, 82
1, 257254, Control_c, 0, 64, 79
1, 257269, Control_c, 0, 64, 76
1, 257292, Control_c, 0, 64, 72
1, 257307, Control_c, 0, 64, 68
1, 257321, Control_c, 0, 64, 62
1, 257336, Control_c, 0, 64, 47
1, 257351, Control_c, 0, 64, 30
1, 257366, Control_c, 0, 64, 28
1, 257395, Control_c, 0, 64, 30
1, 257410, Control_c, 0, 64, 37
1, 257425, Control_c, 0, 64, 47
1, 257439, Control_c, 0, 64, 53
1, 257454, Control_c, 0, 64, 57
1, 257469, Control_c, 0, 64, 60
1, 257484, Control_c, 0, 64, 62
1, 257499, Control_c, 0, 64, 65
1, 257513, Control_c, 0, 64, 68
1, 257528, Control_c, 0, 64, 75
1, 257543, Control_c, 0, 64, 84
1, 257558, Control_c, 0, 64, 96
1, 257573, Control_c, 0, 64, 113
1, 257588, Control_c, 0, 64, 127
1, 257637, Note_off_c, 0, 48, 38
1, 257707, Note_off_c, 0, 68, 30
1, 257779, Note_off_c, 0, 56, 35
1, 257799, Note_off_c, 0, 51, 34
1, 257832, Note_off_c, 0, 63, 32
1, 257997, Note_off_c, 0, 60, 26
1, 258366, Control_c, 0, 64, 117
1, 258369, Note_on_c, 0, 68, 57
1, 258375, Note_off_c, 0, 72, 57
1, 258381, Control_c, 0, 64, 113
1, 258387, Note_on_c, 0, 53, 29
1, 258388, Note_on_c, 0, 56, 30
1, 258390, Note_on_c, 0, 49, 24
1, 258391, Note_on_c, 0, 65, 34
1, 258396, Control_c, 0, 64, 109
1, 258398, Note_on_c, 0, 61, 31
1, 258411, Control_c, 0, 64, 106
1, 258426, Control_c, 0, 64, 104
1, 258440, Control_c, 0, 64, 100
1, 258455, Control_c, 0, 64, 97
1, 258470, Control_c, 0, 64, 94
1, 258485, Control_c, 0, 64, 90
1, 258500, Control_c, 0, 64, 83
1, 258515, Control_c, 0, 64, 74
1, 258529, Control_c, 0, 64, 64
1, 258544, Control_c, 0, 64, 47
1, 258559, Control_c, 0, 64, 34
1, 258574, Control_c, 0, 64, 34
1, 258589, Control_c, 0, 64, 34
1, 258603, Control_c, 0, 64, 38
1, 258618, Control_c, 0, 64, 44
1, 258633, Control_c, 0, 64, 52
1, 258648, Control_c, 0, 64, 57
1, 258662, Control_c, 0, 64, 60
1, 258677, Control_c, 0, 64, 63
1, 258693, Control_c, 0, 64, 65
1, 258708, Control_c, 0, 64, 69
1, 258723, Control_c, 0, 64, 77
1, 258738, Control_c, 0, 64, 89
1, 258753, Control_c, 0, 64, 116
1, 258767, Control_c, 0, 64, 127
1, 258883, Note_off_c, 0, 56, 40
1, 258894, Note_off_c, 0, 53, 39
1, 258943, Note_off_c, 0, 49, 40
1, 259537, Note_on_c, 0, 37, 34
1, 259547, Note_on_c, 0, 25, 29
1, 260125, Note_off_c, 0, 25, 36
1, 260179, Note_off_c, 0, 65, 36
1, 260211, Note_off_c, 0, 37, 41
1, 260360, Note_off_c, 0, 61, 29
1, 260437, Note_off_c, 0, 68, 27
1, 260584, Control_c, 0, 64, 119
1, 260599, Control_c, 0, 64, 115
1, 260613, Control_c, 0, 64, 113
1, 260628, Control_c, 0, 64, 110
1, 260643, Control_c, 0, 64, 107
1, 260657, Control_c, 0, 64, 105
1, 260672, Control_c, 0, 64, 103
1, 260687, Control_c, 0, 64, 101
1, 260702, Control_c, 0, 64, 99
1, 260717, Control_c, 0, 64, 98
1, 260731, Control_c, 0, 64, 97
1, 260761, Control_c, 0, 64, 96
1, 260776, Control_c, 0, 64, 95
1, 260791, Control_c, 0, 64, 94
1, 260805, Control_c, 0, 64, 94
1, 260820, Control_c, 0, 64, 93
1, 260835, Control_c, 0, 64, 93
1, 260850, Control_c, 0, 64, 92
1, 260864, Control_c, 0, 64, 92
1, 260879, Control_c, 0, 64, 91
1, 260894, Control_c, 0, 64, 91
1, 260909, Control_c, 0, 64, 90
1, 260924, Control_c, 0, 64, 90
1, 260938, Control_c, 0, 64, 89
1, 260953, Control_c, 0, 64, 88
1, 260968, Control_c, 0, 64, 87
1, 260981, Note_on_c, 0, 39, 32
1, 260983, Note_on_c, 0, 71, 39
1, 260983, Control_c, 0, 64, 86
1, 260987, Note_on_c, 0, 35, 33
1, 260995, Note_on_c, 0, 59, 25
1, 260996, Note_on_c, 0, 47, 19
1, 260996, Note_on_c, 0, 63, 23
1, 260998, Control_c, 0, 64, 86
1, 261001, Note_on_c, 0, 68, 34
1, 261004, Note_on_c, 0, 44, 27
1, 261035, Control_c, 0, 64, 85
1, 261050, Control_c, 0, 64, 85
1, 261064, Control_c, 0, 64, 84
1, 261079, Control_c, 0, 64, 82
1, 261095, Control_c, 0, 64, 81
1, 261110, Control_c, 0, 64, 77
1, 261125, Control_c, 0, 64, 73
1, 261140, Control_c, 0, 64, 67
1, 261154, Control_c, 0, 64, 60
1, 261169, Control_c, 0, 64, 50
1, 261184, Control_c, 0, 64, 45
1, 261243, Control_c, 0, 64, 46
1, 261258, Control_c, 0, 64, 49
1, 261273, Control_c, 0, 64, 52
1, 261287, Control_c, 0, 64, 55
1, 261302, Control_c, 0, 64, 57
1, 261317, Control_c, 0, 64, 59
1, 261332, Control_c, 0, 64, 61
1, 261347, Control_c, 0, 64, 63
1, 261362, Control_c, 0, 64, 65
1, 261377, Control_c, 0, 64, 67
1, 261392, Control_c, 0, 64, 70
1, 261406, Control_c, 0, 64, 74
1, 261421, Control_c, 0, 64, 79
1, 261436, Control_c, 0, 64, 83
1, 261451, Control_c, 0, 64, 87
1, 261466, Control_c, 0, 64, 92
1, 261480, Control_c, 0, 64, 98
1, 261495, Control_c, 0, 64, 108
1, 261510, Control_c, 0, 64, 127
1, 261584, Note_off_c, 0, 71, 38
1, 261626, Note_off_c, 0, 35, 37
1, 261676, Note_off_c, 0, 59, 41
1, 261702, Note_off_c, 0, 39, 37
1, 261705, Note_off_c, 0, 44, 33
1, 261712, Note_off_c, 0, 47, 27
1, 261786, Note_off_c, 0, 63, 27
1, 261821, Note_off_c, 0, 68, 33
1, 262034, Note_on_c, 0, 70, 54
1, 262041, Note_on_c, 0, 34, 35
1, 262041, Note_on_c, 0, 58, 38
1, 262043, Note_on_c, 0, 39, 33
1, 262044, Note_on_c, 0, 68, 49
1, 262048, Note_on_c, 0, 46, 35
1, 262052, Note_on_c, 0, 63, 39
1, 262071, Note_on_c, 0, 44, 34
1, 262110, Control_c, 0, 64, 118
1, 262125, Control_c, 0, 64, 113
1, 262140, Control_c, 0, 64, 109
1, 262155, Control_c, 0, 64, 106
1, 262170, Control_c, 0, 64, 104
1, 262184, Control_c, 0, 64, 100
1, 262199, Control_c, 0, 64, 98
1, 262214, Control_c, 0, 64, 94
1, 262229, Control_c, 0, 64, 87
1, 262244, Control_c, 0, 64, 79
1, 262259, Control_c, 0, 64, 71
1, 262274, Control_c, 0, 64, 63
1, 262289, Control_c, 0, 64, 58
1, 262318, Control_c, 0, 64, 60
1, 262333, Control_c, 0, 64, 62
1, 262348, Control_c, 0, 64, 64
1, 262363, Control_c, 0, 64, 66
1, 262377, Control_c, 0, 64, 68
1, 262390, Note_off_c, 0, 46, 41
1, 262392, Control_c, 0, 64, 72
1, 262407, Control_c, 0, 64, 79
1, 262421, Control_c, 0, 64, 89
1, 262436, Control_c, 0, 64, 107
1, 262451, Control_c, 0, 64, 127
1, 262503, Note_off_c, 0, 44, 39
1, 262558, Note_off_c, 0, 63, 27
1, 262578, Note_off_c, 0, 39, 41
1, 262591, Note_off_c, 0, 70, 52
1, 262620, Note_off_c, 0, 68, 38
1, 262621, Note_off_c, 0, 34, 39
1, 262772, Note_off_c, 0, 58, 36
1, 262960, Note_on_c, 0, 68, 67
1, 262967, Note_on_c, 0, 63, 48
1, 262968, Note_on_c, 0, 35, 42
1, 262968, Note_on_c, 0, 32, 37
1, 262971, Note_on_c, 0, 59, 48
1, 262980, Note_on_c, 0, 39, 41
1, 262983, Note_on_c, 0, 56, 46
1, 262993, Note_on_c, 0, 44, 41
1, 263023, Control_c, 0, 64, 94
1, 263038, Control_c, 0, 64, 78
1, 263052, Control_c, 0, 64, 68
1, 263067, Control_c, 0, 64, 61
1, 263082, Control_c, 0, 64, 58
1, 263097, Control_c, 0, 64, 60
1, 263112, Control_c, 0, 64, 63
1, 263126, Control_c, 0, 64, 66
1, 263141, Control_c, 0, 64, 70
1, 263156, Control_c, 0, 64, 77
1, 263171, Control_c, 0, 64, 93
1, 263186, Control_c, 0, 64, 127
1, 263207, Note_off_c, 0, 44, 41
1, 263207, Note_off_c, 0, 68, 58
1, 263210, Note_off_c, 0, 32, 43
1, 263248, Note_off_c, 0, 56, 56
1, 263261, Note_off_c, 0, 63, 52
1, 263289, Note_off_c, 0, 39, 41
1, 263309, Note_off_c, 0, 59, 39
1, 263323, Note_off_c, 0, 35, 34
1, 263371, Note_on_c, 0, 42, 57
1, 263371, Note_on_c, 0, 66, 76
1, 263372, Note_on_c, 0, 35, 39
1, 263373, Note_on_c, 0, 30, 52
1, 263377, Note_on_c, 0, 39, 54
1, 263382, Note_on_c, 0, 54, 67
1, 263394, Note_on_c, 0, 59, 59
1, 263398, Note_on_c, 0, 63, 58
1, 263553, Note_off_c, 0, 42, 61
1, 263554, Note_off_c, 0, 63, 52
1, 263562, Note_off_c, 0, 59, 50
1, 263595, Note_off_c, 0, 54, 63
1, 263600, Note_off_c, 0, 66, 61
1, 263602, Note_off_c, 0, 30, 36
1, 263606, Note_off_c, 0, 39, 32
1, 263636, Note_off_c, 0, 35, 0
1, 263650, Note_on_c, 0, 35, 46
1, 263654, Control_c, 0, 64, 88
1, 263654, Note_on_c, 0, 29, 67
1, 263657, Note_on_c, 0, 41, 70
1, 263661, Note_on_c, 0, 39, 47
1, 263663, Note_on_c, 0, 65, 87
1, 263666, Note_on_c, 0, 53, 80
1, 263669, Control_c, 0, 64, 66
1, 263674, Note_on_c, 0, 63, 71
1, 263681, Note_on_c, 0, 59, 62
1, 263683, Control_c, 0, 64, 44
1, 263698, Control_c, 0, 64, 0
1, 263713, Control_c, 0, 64, 11
1, 263728, Control_c, 0, 64, 30
1, 263743, Control_c, 0, 64, 46
1, 263757, Control_c, 0, 64, 56
1, 263772, Control_c, 0, 64, 63
1, 263787, Control_c, 0, 64, 68
1, 263802, Control_c, 0, 64, 76
1, 263817, Note_off_c, 0, 29, 52
1, 263817, Control_c, 0, 64, 94
1, 263831, Control_c, 0, 64, 127
1, 263833, Note_off_c, 0, 35, 59
1, 263852, Note_off_c, 0, 41, 62
1, 263857, Note_off_c, 0, 59, 62
1, 263857, Note_off_c, 0, 53, 60
1, 263868, Note_off_c, 0, 39, 60
1, 263893, Note_off_c, 0, 65, 61
1, 263919, Note_off_c, 0, 63, 57
1, 264122, Note_on_c, 0, 41, 58
1, 264124, Note_on_c, 0, 38, 55
1, 264124, Note_on_c, 0, 46, 66
1, 264125, Note_on_c, 0, 34, 62
1, 264128, Note_on_c, 0, 70, 92
1, 264134, Note_on_c, 0, 62, 69
1, 264135, Note_on_c, 0, 65, 62
1, 264138, Note_on_c, 0, 58, 69
1, 264179, Control_c, 0, 64, 113
1, 264194, Control_c, 0, 64, 102
1, 264209, Control_c, 0, 64, 94
1, 264224, Control_c, 0, 64, 87
1, 264238, Control_c, 0, 64, 83
1, 264253, Control_c, 0, 64, 80
1, 264268, Control_c, 0, 64, 76
1, 264284, Control_c, 0, 64, 72
1, 264299, Control_c, 0, 64, 68
1, 264313, Control_c, 0, 64, 66
1, 264328, Control_c, 0, 64, 64
1, 264343, Control_c, 0, 64, 63
1, 264358, Control_c, 0, 64, 61
1, 264372, Control_c, 0, 64, 60
1, 264387, Control_c, 0, 64, 59
1, 264402, Control_c, 0, 64, 57
1, 264417, Control_c, 0, 64, 54
1, 264432, Control_c, 0, 64, 51
1, 264447, Control_c, 0, 64, 49
1, 264461, Control_c, 0, 64, 47
1, 264476, Control_c, 0, 64, 44
1, 264491, Control_c, 0, 64, 39
1, 264505, Control_c, 0, 64, 31
1, 264520, Control_c, 0, 64, 28
1, 264535, Control_c, 0, 64, 27
1, 264579, Control_c, 0, 64, 28
1, 264594, Control_c, 0, 64, 31
1, 264609, Control_c, 0, 64, 37
1, 264624, Control_c, 0, 64, 43
1, 264639, Control_c, 0, 64, 48
1, 264653, Control_c, 0, 64, 53
1, 264668, Control_c, 0, 64, 56
1, 264683, Control_c, 0, 64, 58
1, 264697, Control_c, 0, 64, 59
1, 264712, Control_c, 0, 64, 62
1, 264727, Control_c, 0, 64, 64
1, 264742, Control_c, 0, 64, 67
1, 264757, Control_c, 0, 64, 72
1, 264779, Control_c, 0, 64, 80
1, 264794, Control_c, 0, 64, 86
1, 264809, Control_c, 0, 64, 90
1, 264824, Control_c, 0, 64, 91
1, 264839, Control_c, 0, 64, 92
1, 264853, Control_c, 0, 64, 95
1, 264868, Control_c, 0, 64, 101
1, 264874, Note_off_c, 0, 34, 33
1, 264883, Control_c, 0, 64, 114
1, 264898, Control_c, 0, 64, 127
1, 265043, Poly_aftertouch_c, 0, 36, 127
1, 265069, Note_off_c, 0, 58, 33
1, 265126, Note_off_c, 0, 70, 28
1, 265250, Note_off_c, 0, 46, 36
1, 265478, Note_off_c, 0, 41, 38
1, 265512, Note_on_c, 0, 32, 40
1, 265526, Note_on_c, 0, 44, 39
1, 265529, Note_on_c, 0, 68, 61
1, 265535, Note_on_c, 0, 56, 45
1, 265688, Note_off_c, 0, 62, 59
1, 265691, Note_off_c, 0, 38, 56
1, 265697, Note_off_c, 0, 65, 58
1, 265726, Note_off_c, 0, 68, 57
1, 265727, Poly_aftertouch_c, 0, 36, 0
1, 265762, Note_off_c, 0, 44, 40
1, 265766, Note_off_c, 0, 32, 39
1, 265852, Note_off_c, 0, 56, 37
1, 265973, Note_on_c, 0, 30, 45
1, 265973, Note_on_c, 0, 42, 46
1, 265982, Note_on_c, 0, 66, 69
1, 265985, Note_on_c, 0, 34, 45
1, 265988, Note_on_c, 0, 58, 49
1, 265993, Note_on_c, 0, 39, 46
1, 265996, Note_on_c, 0, 63, 56
1, 265998, Note_on_c, 0, 54, 49
1, 266033, Control_c, 0, 64, 121
1, 266048, Control_c, 0, 64, 101
1, 266063, Control_c, 0, 64, 85
1, 266077, Control_c, 0, 64, 69
1, 266092, Control_c, 0, 64, 58
1, 266107, Control_c, 0, 64, 42
1, 266122, Control_c, 0, 64, 43
1, 266137, Control_c, 0, 64, 48
1, 266151, Control_c, 0, 64, 53
1, 266166, Control_c, 0, 64, 57
1, 266181, Control_c, 0, 64, 62
1, 266196, Control_c, 0, 64, 66
1, 266211, Control_c, 0, 64, 73
1, 266225, Control_c, 0, 64, 86
1, 266240, Control_c, 0, 64, 109
1, 266255, Control_c, 0, 64, 127
1, 266257, Note_off_c, 0, 30, 40
1, 266322, Note_off_c, 0, 42, 59
1, 266337, Note_off_c, 0, 66, 60
1, 266343, Note_off_c, 0, 54, 58
1, 266493, Note_on_c, 0, 68, 74
1, 266501, Note_on_c, 0, 44, 56
1, 266509, Note_on_c, 0, 32, 53
1, 266516, Note_on_c, 0, 56, 59
1, 266641, Note_off_c, 0, 63, 54
1, 266667, Note_off_c, 0, 58, 62
1, 266792, Note_off_c, 0, 39, 41
1, 266837, Note_off_c, 0, 32, 29
1, 266860, Note_off_c, 0, 56, 51
1, 266900, Note_off_c, 0, 68, 35
1, 266916, Note_off_c, 0, 34, 11
1, 266951, Note_off_c, 0, 44, 33
1, 267160, Control_c, 0, 64, 121
1, 267174, Control_c, 0, 64, 114
1, 267189, Control_c, 0, 64, 110
1, 267204, Control_c, 0, 64, 107
1, 267218, Note_on_c, 0, 37, 23
1, 267219, Control_c, 0, 64, 105
1, 267228, Note_on_c, 0, 69, 50
1, 267230, Note_on_c, 0, 45, 33
1, 267231, Note_on_c, 0, 57, 35
1, 267234, Control_c, 0, 64, 103
1, 267242, Note_on_c, 0, 61, 34
1, 267247, Note_on_c, 0, 66, 37
1, 267249, Control_c, 0, 64, 102
1, 267252, Note_on_c, 0, 42, 36
1, 267258, Note_on_c, 0, 33, 35
1, 267264, Control_c, 0, 64, 101
1, 267279, Control_c, 0, 64, 99
1, 267294, Control_c, 0, 64, 95
1, 267306, Control_c, 0, 64, 90
1, 267321, Control_c, 0, 64, 85
1, 267336, Control_c, 0, 64, 79
1, 267351, Control_c, 0, 64, 72
1, 267366, Control_c, 0, 64, 65
1, 267380, Control_c, 0, 64, 55
1, 267395, Control_c, 0, 64, 39
1, 267410, Control_c, 0, 64, 30
1, 267425, Control_c, 0, 64, 25
1, 267440, Control_c, 0, 64, 16
1, 267455, Control_c, 0, 64, 0
1, 267574, Control_c, 0, 64, 12
1, 267589, Control_c, 0, 64, 28
1, 267604, Control_c, 0, 64, 39
1, 267619, Control_c, 0, 64, 47
1, 267634, Control_c, 0, 64, 52
1, 267648, Control_c, 0, 64, 56
1, 267663, Control_c, 0, 64, 59
1, 267678, Control_c, 0, 64, 62
1, 267693, Control_c, 0, 64, 63
1, 267708, Control_c, 0, 64, 65
1, 267722, Control_c, 0, 64, 67
1, 267737, Control_c, 0, 64, 70
1, 267752, Control_c, 0, 64, 75
1, 267774, Control_c, 0, 64, 80
1, 267777, Note_off_c, 0, 69, 56
1, 267780, Note_off_c, 0, 33, 36
1, 267789, Control_c, 0, 64, 85
1, 267803, Control_c, 0, 64, 89
1, 267818, Control_c, 0, 64, 94
1, 267833, Control_c, 0, 64, 99
1, 267840, Note_off_c, 0, 45, 31
1, 267848, Control_c, 0, 64, 101
1, 267863, Control_c, 0, 64, 102
1, 267873, Note_off_c, 0, 66, 34
1, 267897, Note_off_c, 0, 61, 33
1, 267904, Note_off_c, 0, 37, 36
1, 267905, Note_off_c, 0, 57, 41
1, 267926, Note_off_c, 0, 42, 37
1, 268115, Control_c, 0, 64, 101
1, 268129, Control_c, 0, 64, 101
1, 268144, Control_c, 0, 64, 100
1, 268174, Control_c, 0, 64, 100
1, 268189, Control_c, 0, 64, 99
1, 268218, Control_c, 0, 64, 99
1, 268233, Control_c, 0, 64, 98
1, 268248, Control_c, 0, 64, 96
1, 268263, Control_c, 0, 64, 95
1, 268270, Note_on_c, 0, 68, 51
1, 268271, Note_on_c, 0, 32, 34
1, 268279, Control_c, 0, 64, 93
1, 268283, Note_on_c, 0, 61, 36
1, 268283, Note_on_c, 0, 66, 40
1, 268286, Note_on_c, 0, 56, 31
1, 268292, Note_on_c, 0, 37, 26
1, 268293, Control_c, 0, 64, 92
1, 268308, Control_c, 0, 64, 90
1, 268316, Note_on_c, 0, 44, 26
1, 268323, Control_c, 0, 64, 86
1, 268325, Note_on_c, 0, 42, 16
1, 268338, Control_c, 0, 64, 83
1, 268352, Control_c, 0, 64, 79
1, 268367, Control_c, 0, 64, 76
1, 268382, Control_c, 0, 64, 74
1, 268397, Control_c, 0, 64, 73
1, 268412, Control_c, 0, 64, 70
1, 268426, Control_c, 0, 64, 67
1, 268441, Control_c, 0, 64, 63
1, 268456, Control_c, 0, 64, 57
1, 268471, Control_c, 0, 64, 51
1, 268486, Control_c, 0, 64, 50
1, 268523, Control_c, 0, 64, 51
1, 268538, Control_c, 0, 64, 52
1, 268552, Control_c, 0, 64, 55
1, 268567, Control_c, 0, 64, 58
1, 268582, Control_c, 0, 64, 60
1, 268597, Control_c, 0, 64, 62
1, 268612, Control_c, 0, 64, 65
1, 268626, Control_c, 0, 64, 67
1, 268641, Control_c, 0, 64, 70
1, 268656, Control_c, 0, 64, 76
1, 268671, Control_c, 0, 64, 83
1, 268686, Control_c, 0, 64, 92
1, 268701, Control_c, 0, 64, 107
1, 268716, Control_c, 0, 64, 127
1, 268759, Note_off_c, 0, 44, 25
1, 268799, Note_off_c, 0, 42, 40
1, 268802, Note_off_c, 0, 32, 36
1, 268859, Note_off_c, 0, 61, 36
1, 268874, Note_off_c, 0, 37, 39
1, 268890, Note_off_c, 0, 66, 37
1, 268934, Note_off_c, 0, 68, 31
1, 269136, Note_off_c, 0, 56, 35
1, 269272, Control_c, 0, 64, 121
1, 269287, Control_c, 0, 64, 117
1, 269299, Note_on_c, 0, 66, 46
1, 269300, Note_on_c, 0, 33, 31
1, 269302, Control_c, 0, 64, 113
1, 269307, Note_on_c, 0, 57, 35
1, 269309, Note_on_c, 0, 37, 33
1, 269311, Note_on_c, 0, 54, 39
1, 269312, Note_on_c, 0, 61, 32
1, 269316, Note_on_c, 0, 30, 35
1, 269317, Control_c, 0, 64, 110
1, 269329, Note_on_c, 0, 42, 29
1, 269331, Control_c, 0, 64, 106
1, 269346, Control_c, 0, 64, 96
1, 269361, Control_c, 0, 64, 84
1, 269375, Control_c, 0, 64, 72
1, 269390, Control_c, 0, 64, 63
1, 269405, Control_c, 0, 64, 53
1, 269420, Control_c, 0, 64, 52
1, 269435, Control_c, 0, 64, 56
1, 269449, Control_c, 0, 64, 60
1, 269464, Control_c, 0, 64, 63
1, 269479, Control_c, 0, 64, 66
1, 269494, Control_c, 0, 64, 70
1, 269509, Control_c, 0, 64, 78
1, 269523, Control_c, 0, 64, 93
1, 269538, Control_c, 0, 64, 113
1, 269550, Note_off_c, 0, 33, 37
1, 269551, Note_off_c, 0, 37, 40
1, 269553, Note_off_c, 0, 61, 35
1, 269553, Control_c, 0, 64, 127
1, 269560, Note_off_c, 0, 42, 51
1, 269578, Note_off_c, 0, 54, 51
1, 269580, Note_off_c, 0, 30, 45
1, 269592, Note_off_c, 0, 66, 58
1, 269597, Note_off_c, 0, 57, 32
1, 269693, Note_on_c, 0, 37, 41
1, 269697, Note_on_c, 0, 65, 63
1, 269700, Note_on_c, 0, 29, 41
1, 269703, Note_on_c, 0, 41, 40
1, 269705, Note_on_c, 0, 33, 42
1, 269706, Note_on_c, 0, 53, 53
1, 269713, Note_on_c, 0, 61, 44
1, 269717, Note_on_c, 0, 57, 28
1, 269784, Note_off_c, 0, 29, 52
1, 269806, Note_off_c, 0, 65, 58
1, 269813, Note_off_c, 0, 53, 61
1, 269852, Note_off_c, 0, 61, 56
1, 269866, Note_off_c, 0, 41, 33
1, 269890, Note_off_c, 0, 57, 44
1, 269894, Note_off_c, 0, 33, 40
1, 269894, Note_off_c, 0, 37, 39
1, 269969, Control_c, 0, 64, 110
1, 269984, Control_c, 0, 64, 95
1, 269998, Control_c, 0, 64, 76
1, 269999, Note_on_c, 0, 63, 73
1, 270003, Note_on_c, 0, 27, 49
1, 270003, Note_on_c, 0, 37, 43
1, 270004, Note_on_c, 0, 33, 43
1, 270004, Note_on_c, 0, 51, 66
1, 270008, Note_on_c, 0, 61, 52
1, 270021, Control_c, 0, 64, 62
1, 270027, Note_on_c, 0, 57, 47
1, 270036, Control_c, 0, 64, 38
1, 270051, Control_c, 0, 64, 12
1, 270066, Control_c, 0, 64, 23
1, 270080, Control_c, 0, 64, 36
1, 270095, Control_c, 0, 64, 51
1, 270110, Control_c, 0, 64, 59
1, 270124, Control_c, 0, 64, 64
1, 270139, Control_c, 0, 64, 71
1, 270149, Note_off_c, 0, 27, 58
1, 270154, Control_c, 0, 64, 85
1, 270162, Note_off_c, 0, 51, 62
1, 270164, Note_off_c, 0, 33, 60
1, 270169, Note_off_c, 0, 57, 53
1, 270169, Control_c, 0, 64, 127
1, 270179, Note_off_c, 0, 37, 59
1, 270203, Note_off_c, 0, 61, 59
1, 270227, Note_off_c, 0, 63, 62
1, 270471, Note_on_c, 0, 68, 75
1, 270476, Note_on_c, 0, 32, 43
1, 270476, Note_on_c, 0, 60, 55
1, 270477, Note_on_c, 0, 36, 46
1, 270477, Note_on_c, 0, 39, 50
1, 270480, Note_on_c, 0, 63, 59
1, 270484, Note_on_c, 0, 44, 47
1, 270485, Note_on_c, 0, 56, 55
1, 270524, Control_c, 0, 64, 114
1, 270539, Control_c, 0, 64, 106
1, 270554, Control_c, 0, 64, 97
1, 270569, Control_c, 0, 64, 90
1, 270584, Control_c, 0, 64, 85
1, 270598, Control_c, 0, 64, 81
1, 270613, Control_c, 0, 64, 79
1, 270628, Control_c, 0, 64, 77
1, 270643, Control_c, 0, 64, 74
1, 270659, Control_c, 0, 64, 71
1, 270674, Control_c, 0, 64, 67
1, 270688, Control_c, 0, 64, 64
1, 270703, Control_c, 0, 64, 62
1, 270718, Control_c, 0, 64, 61
1, 270733, Control_c, 0, 64, 60
1, 270747, Control_c, 0, 64, 58
1, 270769, Control_c, 0, 64, 56
1, 270784, Control_c, 0, 64, 50
1, 270799, Control_c, 0, 64, 43
1, 270814, Control_c, 0, 64, 37
1, 270829, Control_c, 0, 64, 35
1, 270844, Control_c, 0, 64, 34
1, 270903, Control_c, 0, 64, 35
1, 270918, Control_c, 0, 64, 38
1, 270933, Control_c, 0, 64, 43
1, 270947, Control_c, 0, 64, 49
1, 270962, Control_c, 0, 64, 53
1, 270977, Control_c, 0, 64, 56
1, 270992, Control_c, 0, 64, 58
1, 271007, Control_c, 0, 64, 60
1, 271021, Control_c, 0, 64, 63
1, 271036, Control_c, 0, 64, 64
1, 271051, Control_c, 0, 64, 67
1, 271066, Control_c, 0, 64, 71
1, 271081, Control_c, 0, 64, 76
1, 271095, Control_c, 0, 64, 83
1, 271110, Control_c, 0, 64, 91
1, 271125, Control_c, 0, 64, 102
1, 271139, Control_c, 0, 64, 114
1, 271154, Control_c, 0, 64, 127
1, 271202, Note_off_c, 0, 32, 29
1, 271308, Note_off_c, 0, 68, 34
1, 271348, Note_off_c, 0, 56, 32
1, 271491, Note_off_c, 0, 39, 36
1, 271527, Note_off_c, 0, 44, 29
1, 271947, Note_on_c, 0, 30, 37
1, 271959, Note_on_c, 0, 66, 44
1, 271961, Note_on_c, 0, 54, 36
1, 271965, Note_on_c, 0, 42, 23
1, 272092, Note_off_c, 0, 63, 33
1, 272094, Note_off_c, 0, 60, 41
1, 272150, Note_off_c, 0, 36, 38
1, 272213, Note_off_c, 0, 30, 40
1, 272272, Note_off_c, 0, 54, 50
1, 272277, Note_off_c, 0, 66, 35
1, 272367, Note_off_c, 0, 42, 23
1, 272534, Control_c, 0, 64, 119
1, 272549, Control_c, 0, 64, 113
1, 272564, Control_c, 0, 64, 109
1, 272577, Note_on_c, 0, 65, 40
1, 272579, Control_c, 0, 64, 104
1, 272580, Note_on_c, 0, 29, 31
1, 272580, Note_on_c, 0, 32, 30
1, 272580, Note_on_c, 0, 41, 27
1, 272593, Control_c, 0, 64, 101
1, 272599, Note_on_c, 0, 61, 38
1, 272603, Note_on_c, 0, 53, 32
1, 272608, Control_c, 0, 64, 97
1, 272618, Note_on_c, 0, 37, 26
1, 272623, Control_c, 0, 64, 93
1, 272624, Note_on_c, 0, 56, 32
1, 272638, Control_c, 0, 64, 88
1, 272653, Control_c, 0, 64, 80
1, 272667, Control_c, 0, 64, 71
1, 272682, Control_c, 0, 64, 60
1, 272697, Control_c, 0, 64, 36
1, 272712, Control_c, 0, 64, 29
1, 272727, Control_c, 0, 64, 30
1, 272741, Control_c, 0, 64, 36
1, 272756, Control_c, 0, 64, 43
1, 272771, Control_c, 0, 64, 50
1, 272785, Control_c, 0, 64, 54
1, 272800, Control_c, 0, 64, 58
1, 272815, Control_c, 0, 64, 61
1, 272830, Control_c, 0, 64, 64
1, 272845, Control_c, 0, 64, 67
1, 272859, Control_c, 0, 64, 71
1, 272874, Control_c, 0, 64, 76
1, 272889, Control_c, 0, 64, 83
1, 272904, Control_c, 0, 64, 89
1, 272919, Control_c, 0, 64, 94
1, 272934, Control_c, 0, 64, 98
1, 272948, Control_c, 0, 64, 100
1, 272963, Control_c, 0, 64, 103
1, 272978, Control_c, 0, 64, 108
1, 272993, Control_c, 0, 64, 115
1, 273015, Control_c, 0, 64, 127
1, 273175, Note_off_c, 0, 37, 36
1, 273200, Note_off_c, 0, 56, 39
1, 273253, Control_c, 0, 64, 123
1, 273268, Control_c, 0, 64, 118
1, 273283, Control_c, 0, 64, 114
1, 273297, Control_c, 0, 64, 111
1, 273312, Control_c, 0, 64, 109
1, 273327, Control_c, 0, 64, 106
1, 273342, Control_c, 0, 64, 103
1, 273357, Control_c, 0, 64, 101
1, 273370, Note_on_c, 0, 60, 37
1, 273372, Note_on_c, 0, 57, 39
1, 273372, Control_c, 0, 64, 99
1, 273386, Note_on_c, 0, 33, 30
1, 273387, Control_c, 0, 64, 96
1, 273391, Note_on_c, 0, 36, 31
1, 273402, Control_c, 0, 64, 94
1, 273416, Control_c, 0, 64, 91
1, 273431, Control_c, 0, 64, 87
1, 273443, Note_off_c, 0, 32, 41
1, 273446, Control_c, 0, 64, 82
1, 273461, Control_c, 0, 64, 79
1, 273476, Control_c, 0, 64, 76
1, 273490, Control_c, 0, 64, 74
1, 273505, Control_c, 0, 64, 72
1, 273520, Control_c, 0, 64, 71
1, 273534, Control_c, 0, 64, 68
1, 273549, Control_c, 0, 64, 64
1, 273564, Control_c, 0, 64, 56
1, 273579, Control_c, 0, 64, 46
1, 273594, Control_c, 0, 64, 40
1, 273603, Note_off_c, 0, 61, 34
1, 273638, Control_c, 0, 64, 42
1, 273653, Control_c, 0, 64, 46
1, 273668, Control_c, 0, 64, 51
1, 273682, Control_c, 0, 64, 54
1, 273697, Control_c, 0, 64, 57
1, 273712, Control_c, 0, 64, 60
1, 273727, Control_c, 0, 64, 63
1, 273729, Note_off_c, 0, 65, 31
1, 273741, Control_c, 0, 64, 66
1, 273764, Control_c, 0, 64, 70
1, 273771, Note_off_c, 0, 29, 42
1, 273779, Control_c, 0, 64, 76
1, 273794, Control_c, 0, 64, 83
1, 273809, Control_c, 0, 64, 91
1, 273823, Control_c, 0, 64, 100
1, 273832, Note_off_c, 0, 33, 40
1, 273838, Control_c, 0, 64, 108
1, 273844, Note_off_c, 0, 60, 53
1, 273853, Control_c, 0, 64, 116
1, 273861, Note_off_c, 0, 36, 41
1, 273861, Note_off_c, 0, 57, 59
1, 273869, Control_c, 0, 64, 127
1, 273876, Note_off_c, 0, 41, 41
1, 273900, Note_off_c, 0, 53, 41
1, 274195, Control_c, 0, 64, 123
1, 274210, Control_c, 0, 64, 119
1, 274225, Control_c, 0, 64, 118
1, 274254, Control_c, 0, 64, 117
1, 274299, Control_c, 0, 64, 116
1, 274358, Control_c, 0, 64, 115
1, 274373, Control_c, 0, 64, 113
1, 274388, Control_c, 0, 64, 111
1, 274403, Control_c, 0, 64, 108
1, 274418, Control_c, 0, 64, 105
1, 274432, Control_c, 0, 64, 103
1, 274444, Note_on_c, 0, 58, 85
1, 274447, Control_c, 0, 64, 102
1, 274450, Note_on_c, 0, 34, 52
1, 274454, Note_on_c, 0, 46, 53
1, 274457, Note_on_c, 0, 41, 47
1, 274457, Note_on_c, 0, 53, 63
1, 274462, Control_c, 0, 64, 101
1, 274467, Note_on_c, 0, 37, 46
1, 274472, Note_on_c, 0, 49, 51
1, 274477, Control_c, 0, 64, 98
1, 274492, Control_c, 0, 64, 88
1, 274513, Control_c, 0, 64, 75
1, 274528, Control_c, 0, 64, 64
1, 274543, Control_c, 0, 64, 48
1, 274558, Control_c, 0, 64, 35
1, 274573, Control_c, 0, 64, 36
1, 274588, Control_c, 0, 64, 40
1, 274603, Control_c, 0, 64, 46
1, 274618, Control_c, 0, 64, 52
1, 274633, Control_c, 0, 64, 56
1, 274647, Control_c, 0, 64, 60
1, 274662, Control_c, 0, 64, 63
1, 274677, Control_c, 0, 64, 65
1, 274692, Control_c, 0, 64, 69
1, 274707, Control_c, 0, 64, 75
1, 274722, Control_c, 0, 64, 86
1, 274737, Control_c, 0, 64, 107
1, 274752, Control_c, 0, 64, 127
1, 274875, Note_off_c, 0, 41, 39
1, 274880, Note_off_c, 0, 34, 33
1, 274903, Note_off_c, 0, 37, 33
1, 274999, Note_off_c, 0, 46, 39
1, 275151, Note_off_c, 0, 58, 57
1, 275176, Note_off_c, 0, 53, 54
1, 275330, Note_off_c, 0, 49, 48
1, 275572, Note_on_c, 0, 61, 85
1, 275573, Note_on_c, 0, 37, 54
1, 275576, Note_on_c, 0, 46, 59
1, 275578, Note_on_c, 0, 49, 56
1, 275581, Note_on_c, 0, 41, 48
1, 275584, Note_on_c, 0, 58, 72
1, 275590, Note_on_c, 0, 53, 68
1, 275618, Control_c, 0, 64, 94
1, 275633, Control_c, 0, 64, 75
1, 275648, Control_c, 0, 64, 63
1, 275663, Control_c, 0, 64, 49
1, 275678, Control_c, 0, 64, 45
1, 275692, Control_c, 0, 64, 49
1, 275707, Control_c, 0, 64, 53
1, 275722, Control_c, 0, 64, 58
1, 275737, Control_c, 0, 64, 61
1, 275752, Control_c, 0, 64, 63
1, 275766, Control_c, 0, 64, 66
1, 275781, Control_c, 0, 64, 70
1, 275796, Control_c, 0, 64, 78
1, 275810, Control_c, 0, 64, 92
1, 275825, Control_c, 0, 64, 127
1, 275853, Note_off_c, 0, 49, 54
1, 275958, Note_off_c, 0, 53, 53
1, 275971, Note_off_c, 0, 41, 41
1, 275973, Note_off_c, 0, 37, 38
1, 275976, Note_off_c, 0, 46, 34
1, 276517, Note_off_c, 0, 61, 58
1, 276524, Note_off_c, 0, 58, 57
1, 276693, Control_c, 0, 64, 113
1, 276706, Note_on_c, 0, 57, 66
1, 276707, Control_c, 0, 64, 102
1, 276710, Note_on_c, 0, 33, 43
1, 276713, Note_on_c, 0, 45, 42
1, 276719, Note_on_c, 0, 41, 39
1, 276722, Control_c, 0, 64, 91
1, 276725, Note_on_c, 0, 53, 51
1, 276729, Note_on_c, 0, 37, 38
1, 276730, Note_on_c, 0, 49, 40
1, 276737, Control_c, 0, 64, 77
1, 276759, Control_c, 0, 64, 66
1, 276774, Control_c, 0, 64, 54
1, 276789, Control_c, 0, 64, 45
1, 276804, Control_c, 0, 64, 49
1, 276819, Control_c, 0, 64, 53
1, 276833, Control_c, 0, 64, 57
1, 276848, Control_c, 0, 64, 61
1, 276863, Control_c, 0, 64, 64
1, 276878, Control_c, 0, 64, 68
1, 276893, Control_c, 0, 64, 78
1, 276895, Note_off_c, 0, 53, 54
1, 276907, Control_c, 0, 64, 92
1, 276922, Control_c, 0, 64, 116
1, 276934, Note_off_c, 0, 33, 38
1, 276937, Control_c, 0, 64, 127
1, 276994, Note_off_c, 0, 49, 41
1, 276996, Note_off_c, 0, 45, 61
1, 277009, Note_off_c, 0, 37, 41
1, 277018, Note_off_c, 0, 41, 37
1, 277086, Note_on_c, 0, 58, 82
1, 277092, Note_on_c, 0, 34, 63
1, 277098, Note_on_c, 0, 49, 61
1, 277104, Note_on_c, 0, 46, 64
1, 277104, Note_on_c, 0, 41, 48
1, 277107, Note_on_c, 0, 53, 64
1, 277110, Note_on_c, 0, 37, 56
1, 277129, Note_off_c, 0, 57, 60
1, 277207, Note_off_c, 0, 53, 58
1, 277212, Note_off_c, 0, 41, 51
1, 277226, Note_off_c, 0, 34, 58
1, 277227, Note_off_c, 0, 49, 50
1, 277237, Note_off_c, 0, 37, 36
1, 277238, Note_off_c, 0, 46, 59
1, 277338, Control_c, 0, 64, 92
1, 277348, Note_on_c, 0, 60, 85
1, 277351, Note_on_c, 0, 41, 57
1, 277351, Note_on_c, 0, 48, 86
1, 277353, Control_c, 0, 64, 67
1, 277354, Note_on_c, 0, 49, 78
1, 277357, Note_on_c, 0, 36, 70
1, 277366, Note_on_c, 0, 53, 70
1, 277368, Control_c, 0, 64, 49
1, 277374, Note_on_c, 0, 37, 40
1, 277382, Control_c, 0, 64, 37
1, 277397, Control_c, 0, 64, 48
1, 277402, Note_off_c, 0, 58, 59
1, 277412, Control_c, 0, 64, 58
1, 277417, Note_off_c, 0, 37, 61
1, 277427, Control_c, 0, 64, 64
1, 277429, Note_off_c, 0, 36, 62
1, 277440, Note_off_c, 0, 41, 64
1, 277442, Control_c, 0, 64, 72
1, 277454, Note_off_c, 0, 49, 62
1, 277456, Control_c, 0, 64, 87
1, 277471, Control_c, 0, 64, 127
1, 277484, Note_off_c, 0, 60, 59
1, 277485, Note_off_c, 0, 48, 60
1, 277557, Note_off_c, 0, 53, 55
1, 277649, Note_on_c, 0, 49, 82
1, 277652, Note_on_c, 0, 61, 94
1, 277653, Note_on_c, 0, 41, 43
1, 277653, Note_on_c, 0, 46, 72
1, 277655, Note_on_c, 0, 37, 68
1, 277661, Note_on_c, 0, 53, 84
1, 277668, Note_on_c, 0, 58, 69
1, 277730, Control_c, 0, 64, 87
1, 277745, Control_c, 0, 64, 72
1, 277760, Control_c, 0, 64, 62
1, 277775, Control_c, 0, 64, 49
1, 277789, Control_c, 0, 64, 44
1, 277804, Control_c, 0, 64, 43
1, 277819, Control_c, 0, 64, 39
1, 277834, Control_c, 0, 64, 34
1, 277849, Control_c, 0, 64, 28
1, 277864, Control_c, 0, 64, 21
1, 277894, Control_c, 0, 64, 23
1, 277909, Control_c, 0, 64, 30
1, 277924, Control_c, 0, 64, 40
1, 277939, Control_c, 0, 64, 48
1, 277953, Control_c, 0, 64, 54
1, 277968, Control_c, 0, 64, 59
1, 277983, Control_c, 0, 64, 62
1, 277997, Control_c, 0, 64, 65
1, 278012, Control_c, 0, 64, 70
1, 278027, Control_c, 0, 64, 78
1, 278042, Control_c, 0, 64, 94
1, 278057, Control_c, 0, 64, 127
1, 278071, Note_off_c, 0, 37, 37
1, 278145, Note_off_c, 0, 53, 29
1, 278148, Note_off_c, 0, 41, 31
1, 278180, Note_off_c, 0, 46, 53
1, 278244, Note_off_c, 0, 58, 48
1, 278369, Note_off_c, 0, 61, 48
1, 278378, Note_off_c, 0, 49, 36
1, 278921, Note_on_c, 0, 65, 88
1, 278923, Note_on_c, 0, 41, 70
1, 278924, Note_on_c, 0, 53, 74
1, 278926, Note_on_c, 0, 46, 67
1, 278926, Note_on_c, 0, 49, 69
1, 278930, Note_on_c, 0, 58, 78
1, 278933, Note_on_c, 0, 61, 77
1, 279006, Control_c, 0, 64, 98
1, 279021, Control_c, 0, 64, 79
1, 279035, Control_c, 0, 64, 64
1, 279050, Control_c, 0, 64, 47
1, 279065, Control_c, 0, 64, 28
1, 279095, Control_c, 0, 64, 32
1, 279109, Control_c, 0, 64, 39
1, 279124, Control_c, 0, 64, 48
1, 279139, Control_c, 0, 64, 54
1, 279153, Control_c, 0, 64, 58
1, 279168, Control_c, 0, 64, 61
1, 279183, Control_c, 0, 64, 64
1, 279198, Control_c, 0, 64, 67
1, 279213, Control_c, 0, 64, 71
1, 279227, Control_c, 0, 64, 81
1, 279242, Control_c, 0, 64, 94
1, 279257, Control_c, 0, 64, 127
1, 279411, Note_off_c, 0, 41, 38
1, 279419, Note_off_c, 0, 53, 54
1, 279464, Note_off_c, 0, 61, 50
1, 279483, Note_off_c, 0, 49, 49
1, 279484, Note_off_c, 0, 46, 36
1, 279524, Note_off_c, 0, 58, 56
1, 279870, Note_off_c, 0, 65, 47
1, 280076, Note_on_c, 0, 48, 48
1, 280077, Note_on_c, 0, 60, 79
1, 280080, Note_on_c, 0, 36, 57
1, 280082, Note_on_c, 0, 46, 64
1, 280091, Note_on_c, 0, 53, 68
1, 280091, Note_on_c, 0, 41, 60
1, 280092, Note_on_c, 0, 58, 72
1, 280095, Control_c, 0, 64, 91
1, 280110, Control_c, 0, 64, 73
1, 280124, Control_c, 0, 64, 60
1, 280139, Control_c, 0, 64, 46
1, 280154, Control_c, 0, 64, 50
1, 280169, Control_c, 0, 64, 56
1, 280183, Control_c, 0, 64, 60
1, 280198, Control_c, 0, 64, 64
1, 280213, Control_c, 0, 64, 70
1, 280228, Control_c, 0, 64, 81
1, 280243, Control_c, 0, 64, 127
1, 280261, Note_off_c, 0, 58, 51
1, 280287, Note_off_c, 0, 36, 49
1, 280332, Note_off_c, 0, 41, 61
1, 280367, Note_off_c, 0, 53, 58
1, 280370, Note_off_c, 0, 48, 63
1, 280400, Note_off_c, 0, 46, 55
1, 280457, Note_on_c, 0, 46, 56
1, 280460, Note_on_c, 0, 61, 88
1, 280463, Note_on_c, 0, 37, 69
1, 280465, Note_on_c, 0, 49, 83
1, 280465, Note_on_c, 0, 53, 90
1, 280467, Note_on_c, 0, 41, 61
1, 280484, Note_on_c, 0, 58, 66
1, 280574, Note_off_c, 0, 41, 62
1, 280579, Note_off_c, 0, 60, 50
1, 280612, Note_off_c, 0, 37, 54
1, 280645, Note_off_c, 0, 58, 59
1, 280657, Note_off_c, 0, 49, 60
1, 280688, Note_off_c, 0, 53, 58
1, 280738, Note_off_c, 0, 46, 0
1, 280752, Note_on_c, 0, 46, 45
1, 280761, Note_on_c, 0, 51, 92
1, 280764, Note_on_c, 0, 63, 92
1, 280767, Note_on_c, 0, 53, 90
1, 280769, Note_on_c, 0, 39, 73
1, 280770, Control_c, 0, 64, 83
1, 280773, Note_on_c, 0, 41, 63
1, 280784, Control_c, 0, 64, 64
1, 280786, Note_on_c, 0, 58, 69
1, 280798, Control_c, 0, 64, 17
1, 280813, Note_off_c, 0, 61, 58
1, 280813, Control_c, 0, 64, 0
1, 280828, Control_c, 0, 64, 30
1, 280843, Control_c, 0, 64, 50
1, 280858, Control_c, 0, 64, 61
1, 280872, Control_c, 0, 64, 68
1, 280887, Control_c, 0, 64, 80
1, 280900, Note_off_c, 0, 41, 61
1, 280902, Control_c, 0, 64, 127
1, 280940, Note_off_c, 0, 58, 35
1, 280949, Note_off_c, 0, 39, 60
1, 280962, Note_off_c, 0, 46, 61
1, 280988, Note_off_c, 0, 51, 61
1, 281000, Note_off_c, 0, 63, 62
1, 281042, Note_off_c, 0, 53, 53
1, 281157, Note_on_c, 0, 49, 72
1, 281158, Note_on_c, 0, 46, 63
1, 281158, Note_on_c, 0, 65, 92
1, 281161, Note_on_c, 0, 53, 87
1, 281162, Note_on_c, 0, 58, 85
1, 281166, Note_on_c, 0, 41, 76
1, 281170, Note_on_c, 0, 61, 76
1, 281215, Control_c, 0, 64, 106
1, 281229, Control_c, 0, 64, 82
1, 281251, Control_c, 0, 64, 67
1, 281266, Control_c, 0, 64, 49
1, 281281, Control_c, 0, 64, 0
1, 281548, Control_c, 0, 64, 9
1, 281563, Control_c, 0, 64, 26
1, 281578, Control_c, 0, 64, 38
1, 281593, Control_c, 0, 64, 48
1, 281608, Control_c, 0, 64, 56
1, 281623, Control_c, 0, 64, 61
1, 281637, Control_c, 0, 64, 63
1, 281652, Control_c, 0, 64, 66
1, 281667, Control_c, 0, 64, 70
1, 281682, Control_c, 0, 64, 76
1, 281696, Control_c, 0, 64, 86
1, 281711, Control_c, 0, 64, 99
1, 281726, Control_c, 0, 64, 127
1, 281807, Note_off_c, 0, 58, 36
1, 281821, Note_off_c, 0, 41, 41
1, 281847, Note_off_c, 0, 65, 52
1, 281863, Note_off_c, 0, 46, 45
1, 281872, Note_off_c, 0, 61, 31
1, 281882, Note_off_c, 0, 53, 51
1, 281916, Note_off_c, 0, 49, 55
1, 282619, Note_on_c, 0, 70, 93
1, 282623, Note_on_c, 0, 58, 74
1, 282624, Note_on_c, 0, 46, 66
1, 282627, Note_on_c, 0, 61, 76
1, 282630, Note_on_c, 0, 65, 72
1, 282631, Note_on_c, 0, 53, 67
1, 282634, Note_on_c, 0, 49, 62
1, 282668, Control_c, 0, 64, 92
1, 282683, Control_c, 0, 64, 73
1, 282698, Control_c, 0, 64, 58
1, 282713, Control_c, 0, 64, 13
1, 282728, Control_c, 0, 64, 0
1, 282765, Control_c, 0, 64, 22
1, 282779, Control_c, 0, 64, 35
1, 282794, Control_c, 0, 64, 44
1, 282809, Control_c, 0, 64, 51
1, 282824, Control_c, 0, 64, 57
1, 282839, Control_c, 0, 64, 62
1, 282854, Control_c, 0, 64, 66
1, 282869, Control_c, 0, 64, 69
1, 282883, Control_c, 0, 64, 74
1, 282898, Control_c, 0, 64, 80
1, 282913, Control_c, 0, 64, 86
1, 282928, Control_c, 0, 64, 93
1, 282943, Control_c, 0, 64, 100
1, 282957, Control_c, 0, 64, 107
1, 282972, Control_c, 0, 64, 113
1, 282987, Control_c, 0, 64, 123
1, 283002, Control_c, 0, 64, 127
1, 283022, Note_off_c, 0, 58, 37
1, 283163, Note_off_c, 0, 49, 33
1, 283202, Note_off_c, 0, 53, 25
1, 283278, Note_off_c, 0, 46, 32
1, 283289, Note_off_c, 0, 65, 23
1, 283313, Note_off_c, 0, 61, 37
1, 283751, Control_c, 0, 64, 123
1, 283766, Control_c, 0, 64, 118
1, 283780, Control_c, 0, 64, 113
1, 283795, Control_c, 0, 64, 111
1, 283810, Control_c, 0, 64, 108
1, 283824, Control_c, 0, 64, 106
1, 283839, Control_c, 0, 64, 104
1, 283854, Control_c, 0, 64, 100
1, 283864, Note_on_c, 0, 45, 48
1, 283867, Note_on_c, 0, 57, 52
1, 283868, Note_on_c, 0, 69, 72
1, 283869, Control_c, 0, 64, 92
1, 283872, Note_on_c, 0, 53, 49
1, 283875, Note_on_c, 0, 60, 56
1, 283882, Note_on_c, 0, 48, 45
1, 283884, Control_c, 0, 64, 80
1, 283885, Note_on_c, 0, 65, 54
1, 283898, Control_c, 0, 64, 69
1, 283913, Note_off_c, 0, 70, 56
1, 283913, Control_c, 0, 64, 58
1, 283928, Control_c, 0, 64, 41
1, 283943, Control_c, 0, 64, 40
1, 283958, Control_c, 0, 64, 45
1, 283972, Control_c, 0, 64, 51
1, 283987, Control_c, 0, 64, 55
1, 284002, Control_c, 0, 64, 59
1, 284017, Control_c, 0, 64, 63
1, 284031, Control_c, 0, 64, 67
1, 284046, Control_c, 0, 64, 72
1, 284061, Control_c, 0, 64, 83
1, 284076, Control_c, 0, 64, 95
1, 284091, Control_c, 0, 64, 117
1, 284106, Control_c, 0, 64, 127
1, 284136, Note_off_c, 0, 65, 33
1, 284140, Note_off_c, 0, 45, 34
1, 284179, Note_off_c, 0, 48, 23
1, 284192, Note_off_c, 0, 57, 38
1, 284197, Note_off_c, 0, 53, 37
1, 284211, Note_off_c, 0, 60, 61
1, 284440, Control_c, 0, 64, 110
1, 284452, Note_on_c, 0, 43, 42
1, 284455, Note_on_c, 0, 67, 63
1, 284455, Control_c, 0, 64, 101
1, 284458, Note_on_c, 0, 58, 50
1, 284459, Note_on_c, 0, 53, 41
1, 284461, Note_on_c, 0, 55, 42
1, 284468, Note_on_c, 0, 48, 37
1, 284470, Control_c, 0, 64, 93
1, 284477, Note_on_c, 0, 65, 52
1, 284485, Control_c, 0, 64, 84
1, 284499, Control_c, 0, 64, 73
1, 284502, Note_off_c, 0, 69, 54
1, 284514, Control_c, 0, 64, 63
1, 284529, Control_c, 0, 64, 39
1, 284544, Control_c, 0, 64, 0
1, 284589, Control_c, 0, 64, 11
1, 284603, Control_c, 0, 64, 27
1, 284618, Control_c, 0, 64, 39
1, 284633, Control_c, 0, 64, 49
1, 284647, Control_c, 0, 64, 57
1, 284662, Control_c, 0, 64, 63
1, 284677, Control_c, 0, 64, 66
1, 284692, Control_c, 0, 64, 72
1, 284707, Control_c, 0, 64, 80
1, 284721, Control_c, 0, 64, 94
1, 284726, Note_off_c, 0, 67, 54
1, 284736, Control_c, 0, 64, 108
1, 284751, Control_c, 0, 64, 127
1, 284755, Note_off_c, 0, 53, 32
1, 284756, Note_off_c, 0, 55, 32
1, 284768, Note_off_c, 0, 48, 36
1, 284774, Note_off_c, 0, 65, 58
1, 284792, Note_off_c, 0, 43, 38
1, 284800, Note_off_c, 0, 58, 60
1, 285159, Control_c, 0, 64, 123
1, 285174, Control_c, 0, 64, 119
1, 285189, Control_c, 0, 64, 116
1, 285204, Control_c, 0, 64, 113
1, 285207, Note_on_c, 0, 69, 48
1, 285215, Note_on_c, 0, 41, 28
1, 285218, Control_c, 0, 64, 110
1, 285219, Note_on_c, 0, 57, 34
1, 285221, Note_on_c, 0, 45, 27
1, 285228, Note_on_c, 0, 65, 38
1, 285233, Control_c, 0, 64, 107
1, 285234, Note_on_c, 0, 53, 30
1, 285234, Note_on_c, 0, 60, 24
1, 285248, Control_c, 0, 64, 105
1, 285257, Note_on_c, 0, 48, 25
1, 285263, Control_c, 0, 64, 103
1, 285277, Control_c, 0, 64, 100
1, 285292, Control_c, 0, 64, 97
1, 285307, Control_c, 0, 64, 93
1, 285322, Control_c, 0, 64, 88
1, 285337, Control_c, 0, 64, 84
1, 285352, Control_c, 0, 64, 79
1, 285367, Control_c, 0, 64, 73
1, 285382, Control_c, 0, 64, 67
1, 285397, Control_c, 0, 64, 61
1, 285412, Control_c, 0, 64, 50
1, 285426, Control_c, 0, 64, 40
1, 285441, Control_c, 0, 64, 36
1, 285456, Control_c, 0, 64, 35
1, 285485, Control_c, 0, 64, 35
1, 285530, Control_c, 0, 64, 35
1, 285544, Control_c, 0, 64, 38
1, 285559, Control_c, 0, 64, 42
1, 285574, Control_c, 0, 64, 46
1, 285588, Control_c, 0, 64, 50
1, 285603, Control_c, 0, 64, 54
1, 285618, Control_c, 0, 64, 58
1, 285633, Control_c, 0, 64, 61
1, 285648, Control_c, 0, 64, 63
1, 285663, Control_c, 0, 64, 65
1, 285677, Control_c, 0, 64, 67
1, 285692, Control_c, 0, 64, 69
1, 285707, Control_c, 0, 64, 72
1, 285722, Control_c, 0, 64, 75
1, 285744, Control_c, 0, 64, 79
1, 285759, Control_c, 0, 64, 82
1, 285774, Control_c, 0, 64, 85
1, 285789, Control_c, 0, 64, 87
1, 285803, Control_c, 0, 64, 88
1, 285818, Control_c, 0, 64, 90
1, 285820, Note_off_c, 0, 41, 42
1, 285833, Control_c, 0, 64, 93
1, 285839, Note_off_c, 0, 60, 40
1, 285849, Control_c, 0, 64, 95
1, 285851, Note_off_c, 0, 53, 37
1, 285864, Control_c, 0, 64, 98
1, 285879, Control_c, 0, 64, 100
1, 285889, Note_off_c, 0, 48, 32
1, 285893, Control_c, 0, 64, 102
1, 285903, Note_off_c, 0, 45, 38
1, 285908, Control_c, 0, 64, 105
1, 285923, Control_c, 0, 64, 108
1, 285931, Note_off_c, 0, 65, 39
1, 285938, Control_c, 0, 64, 112
1, 285953, Control_c, 0, 64, 117
1, 285967, Control_c, 0, 64, 127
1, 286075, Note_off_c, 0, 57, 33
1, 286079, Note_off_c, 0, 69, 31
1, 286338, Control_c, 0, 64, 123
1, 286367, Control_c, 0, 64, 121
1, 286397, Control_c, 0, 64, 119
1, 286411, Control_c, 0, 64, 118
1, 286441, Control_c, 0, 64, 117
1, 286471, Control_c, 0, 64, 116
1, 286493, Control_c, 0, 64, 115
1, 286508, Control_c, 0, 64, 113
1, 286523, Control_c, 0, 64, 113
1, 286538, Control_c, 0, 64, 112
1, 286567, Control_c, 0, 64, 111
1, 286582, Control_c, 0, 64, 111
1, 286612, Control_c, 0, 64, 110
1, 286658, Control_c, 0, 64, 110
1, 286672, Control_c, 0, 64, 109
1, 286687, Control_c, 0, 64, 108
1, 286702, Control_c, 0, 64, 108
1, 286716, Control_c, 0, 64, 107
1, 286746, Control_c, 0, 64, 107
1, 286776, Note_on_c, 0, 37, 27
1, 286776, Control_c, 0, 64, 106
1, 286786, Note_on_c, 0, 70, 42
1, 286790, Control_c, 0, 64, 106
1, 286792, Note_on_c, 0, 61, 25
1, 286794, Note_on_c, 0, 58, 28
1, 286794, Note_on_c, 0, 65, 33
1, 286796, Note_on_c, 0, 49, 14
1, 286801, Note_on_c, 0, 41, 19
1, 286804, Note_on_c, 0, 46, 23
1, 286805, Control_c, 0, 64, 105
1, 286835, Control_c, 0, 64, 105
1, 286849, Control_c, 0, 64, 104
1, 286864, Control_c, 0, 64, 104
1, 286879, Control_c, 0, 64, 103
1, 286894, Control_c, 0, 64, 101
1, 286909, Control_c, 0, 64, 100
1, 286923, Control_c, 0, 64, 98
1, 286938, Control_c, 0, 64, 96
1, 286953, Control_c, 0, 64, 93
1, 286968, Control_c, 0, 64, 90
1, 286983, Control_c, 0, 64, 87
1, 286997, Control_c, 0, 64, 83
1, 287012, Control_c, 0, 64, 80
1, 287027, Control_c, 0, 64, 75
1, 287042, Control_c, 0, 64, 69
1, 287057, Control_c, 0, 64, 64
1, 287072, Control_c, 0, 64, 55
1, 287087, Control_c, 0, 64, 46
1, 287102, Control_c, 0, 64, 42
1, 287116, Control_c, 0, 64, 42
1, 287131, Control_c, 0, 64, 41
1, 287176, Control_c, 0, 64, 43
1, 287190, Control_c, 0, 64, 46
1, 287205, Control_c, 0, 64, 51
1, 287220, Control_c, 0, 64, 55
1, 287242, Control_c, 0, 64, 58
1, 287257, Control_c, 0, 64, 61
1, 287272, Control_c, 0, 64, 64
1, 287287, Control_c, 0, 64, 67
1, 287302, Control_c, 0, 64, 71
1, 287316, Control_c, 0, 64, 76
1, 287331, Control_c, 0, 64, 85
1, 287346, Control_c, 0, 64, 92
1, 287361, Control_c, 0, 64, 98
1, 287376, Control_c, 0, 64, 104
1, 287390, Control_c, 0, 64, 108
1, 287405, Control_c, 0, 64, 117
1, 287420, Control_c, 0, 64, 127
1, 287439, Note_off_c, 0, 49, 38
1, 287482, Note_off_c, 0, 41, 40
1, 287519, Note_off_c, 0, 46, 39
1, 287603, Note_off_c, 0, 37, 40
1, 288312, Note_on_c, 0, 22, 28
1, 288314, Note_on_c, 0, 34, 24
1, 288464, Control_c, 0, 64, 121
1, 288479, Control_c, 0, 64, 119
1, 288494, Control_c, 0, 64, 117
1, 288509, Control_c, 0, 64, 115
1, 288524, Control_c, 0, 64, 113
1, 288539, Control_c, 0, 64, 110
1, 288554, Control_c, 0, 64, 108
1, 288568, Control_c, 0, 64, 107
1, 288583, Control_c, 0, 64, 105
1, 288598, Control_c, 0, 64, 104
1, 288613, Control_c, 0, 64, 102
1, 288628, Control_c, 0, 64, 101
1, 288672, Control_c, 0, 64, 101
1, 288686, Control_c, 0, 64, 100
1, 288687, Note_off_c, 0, 65, 28
1, 288701, Control_c, 0, 64, 99
1, 288716, Control_c, 0, 64, 98
1, 288738, Control_c, 0, 64, 97
1, 288753, Control_c, 0, 64, 96
1, 288758, Note_off_c, 0, 70, 36
1, 288768, Control_c, 0, 64, 95
1, 288774, Note_off_c, 0, 61, 34
1, 288783, Control_c, 0, 64, 94
1, 288794, Note_off_c, 0, 58, 29
1, 288798, Control_c, 0, 64, 94
1, 288812, Control_c, 0, 64, 93
1, 288827, Control_c, 0, 64, 92
1, 288842, Control_c, 0, 64, 91
1, 288857, Control_c, 0, 64, 89
1, 288872, Control_c, 0, 64, 88
1, 288886, Control_c, 0, 64, 86
1, 288901, Control_c, 0, 64, 85
1, 288916, Control_c, 0, 64, 83
1, 288931, Control_c, 0, 64, 82
1, 288946, Control_c, 0, 64, 81
1, 288960, Control_c, 0, 64, 80
1, 288975, Control_c, 0, 64, 79
1, 288990, Control_c, 0, 64, 77
1, 289005, Control_c, 0, 64, 76
1, 289020, Control_c, 0, 64, 75
1, 289036, Control_c, 0, 64, 74
1, 289051, Control_c, 0, 64, 73
1, 289066, Control_c, 0, 64, 72
1, 289081, Control_c, 0, 64, 72
1, 289096, Control_c, 0, 64, 70
1, 289110, Control_c, 0, 64, 69
1, 289125, Control_c, 0, 64, 69
1, 289140, Control_c, 0, 64, 68
1, 289155, Control_c, 0, 64, 67
1, 289170, Control_c, 0, 64, 67
1, 289184, Control_c, 0, 64, 66
1, 289199, Control_c, 0, 64, 66
1, 289214, Control_c, 0, 64, 65
1, 289244, Control_c, 0, 64, 65
1, 289273, Control_c, 0, 64, 64
1, 289303, Control_c, 0, 64, 64
1, 289332, Control_c, 0, 64, 63
1, 289377, Control_c, 0, 64, 63
1, 289406, Control_c, 0, 64, 62
1, 289436, Control_c, 0, 64, 61
1, 289451, Control_c, 0, 64, 61
1, 289466, Control_c, 0, 64, 60
1, 289488, Control_c, 0, 64, 59
1, 289503, Control_c, 0, 64, 58
1, 289517, Control_c, 0, 64, 57
1, 289532, Control_c, 0, 64, 57
1, 289547, Control_c, 0, 64, 56
1, 289577, Control_c, 0, 64, 57
1, 289591, Control_c, 0, 64, 58
1, 289606, Control_c, 0, 64, 59
1, 289621, Control_c, 0, 64, 60
1, 289636, Control_c, 0, 64, 62
1, 289650, Control_c, 0, 64, 64
1, 289665, Control_c, 0, 64, 66
1, 289680, Control_c, 0, 64, 70
1, 289695, Control_c, 0, 64, 76
1, 289710, Control_c, 0, 64, 83
1, 289725, Control_c, 0, 64, 91
1, 289740, Control_c, 0, 64, 97
1, 289740, Note_off_c, 0, 22, 36
1, 289755, Control_c, 0, 64, 97
1, 289769, Note_off_c, 0, 34, 37
1, 289784, Control_c, 0, 64, 97
1, 289814, Control_c, 0, 64, 96
1, 289829, Control_c, 0, 64, 95
1, 289844, Control_c, 0, 64, 94
1, 289859, Control_c, 0, 64, 93
1, 289874, Control_c, 0, 64, 93
1, 289889, Control_c, 0, 64, 92
1, 289904, Control_c, 0, 64, 90
1, 289919, Control_c, 0, 64, 89
1, 289933, Control_c, 0, 64, 88
1, 289948, Control_c, 0, 64, 86
1, 289963, Control_c, 0, 64, 84
1, 289978, Control_c, 0, 64, 83
1, 289993, Control_c, 0, 64, 81
1, 290007, Control_c, 0, 64, 81
1, 290022, Control_c, 0, 64, 79
1, 290037, Control_c, 0, 64, 78
1, 290052, Control_c, 0, 64, 76
1, 290066, Control_c, 0, 64, 74
1, 290081, Control_c, 0, 64, 73
1, 290096, Control_c, 0, 64, 71
1, 290111, Control_c, 0, 64, 69
1, 290126, Control_c, 0, 64, 69
1, 290140, Control_c, 0, 64, 68
1, 290155, Control_c, 0, 64, 68
1, 290170, Control_c, 0, 64, 67
1, 290185, Control_c, 0, 64, 67
1, 290200, Control_c, 0, 64, 66
1, 290214, Control_c, 0, 64, 66
1, 290229, Control_c, 0, 64, 65
1, 290252, Control_c, 0, 64, 64
1, 290266, Control_c, 0, 64, 64
1, 290296, Control_c, 0, 64, 63
1, 290311, Control_c, 0, 64, 63
1, 290326, Control_c, 0, 64, 62
1, 290355, Control_c, 0, 64, 62
1, 290370, Control_c, 0, 64, 61
1, 290400, Control_c, 0, 64, 61
1, 290414, Control_c, 0, 64, 60
1, 290459, Control_c, 0, 64, 60
1, 290488, Control_c, 0, 64, 59
1, 290503, Control_c, 0, 64, 59
1, 290518, Control_c, 0, 64, 58
1, 290533, Control_c, 0, 64, 58
1, 290548, Control_c, 0, 64, 57
1, 290563, Control_c, 0, 64, 56
1, 290578, Control_c, 0, 64, 54
1, 290592, Control_c, 0, 64, 53
1, 290607, Control_c, 0, 64, 52
1, 290622, Control_c, 0, 64, 51
1, 290637, Control_c, 0, 64, 50
1, 290652, Control_c, 0, 64, 49
1, 290667, Control_c, 0, 64, 49
1, 290801, Control_c, 0, 64, 49
1, 290816, Control_c, 0, 64, 50
1, 290830, Control_c, 0, 64, 52
1, 290845, Control_c, 0, 64, 53
1, 290860, Control_c, 0, 64, 55
1, 290875, Control_c, 0, 64, 57
1, 290889, Control_c, 0, 64, 59
1, 290904, Control_c, 0, 64, 61
1, 290919, Control_c, 0, 64, 63
1, 290934, Control_c, 0, 64, 65
1, 290949, Control_c, 0, 64, 67
1, 290963, Control_c, 0, 64, 70
1, 290986, Control_c, 0, 64, 75
1, 291001, Control_c, 0, 64, 81
1, 291016, Control_c, 0, 64, 89
1, 291031, Control_c, 0, 64, 100
1, 291045, Control_c, 0, 64, 113
1, 291060, Control_c, 0, 64, 127
1, 291213, Note_on_c, 0, 65, 54
1, 291335, Note_off_c, 0, 65, 57
1, 291608, Note_on_c, 0, 46, 21
1, 291685, Note_off_c, 0, 46, 41
1, 291698, Note_on_c, 0, 53, 37
1, 291826, Note_on_c, 0, 62, 39
1, 291861, Note_off_c, 0, 53, 35
1, 291900, Note_off_c, 0, 62, 60
1, 292026, Note_on_c, 0, 70, 45
1, 292113, Note_off_c, 0, 70, 59
1, 292135, Note_on_c, 0, 74, 55
1, 292175, Note_off_c, 0, 74, 62
1, 292241, Note_on_c, 0, 77, 69
1, 292303, Note_on_c, 0, 62, 43
1, 292324, Note_off_c, 0, 77, 58
1, 292332, Note_off_c, 0, 62, 56
1, 292343, Note_on_c, 0, 79, 77
1, 292453, Note_off_c, 0, 79, 63
1, 292454, Note_on_c, 0, 82, 80
1, 292512, Control_c, 0, 64, 111
1, 292527, Control_c, 0, 64, 82
1, 292532, Note_on_c, 0, 41, 57
1, 292542, Control_c, 0, 64, 62
1, 292557, Control_c, 0, 64, 30
1, 292572, Control_c, 0, 64, 18
1, 292585, Note_off_c, 0, 41, 63
1, 292587, Note_off_c, 0, 82, 60
1, 292587, Control_c, 0, 64, 40
1, 292599, Note_on_c, 0, 79, 72
1, 292599, Note_on_c, 0, 50, 53
1, 292602, Control_c, 0, 64, 56
1, 292616, Control_c, 0, 64, 65
1, 292631, Control_c, 0, 64, 78
1, 292634, Note_off_c, 0, 79, 66
1, 292646, Control_c, 0, 64, 119
1, 292647, Note_off_c, 0, 50, 64
1, 292652, Note_on_c, 0, 58, 71
1, 292660, Control_c, 0, 64, 127
1, 292680, Note_off_c, 0, 58, 66
1, 292900, Note_on_c, 0, 79, 82
1, 292936, Note_off_c, 0, 79, 61
1, 293135, Note_on_c, 0, 62, 44
1, 293153, Note_on_c, 0, 65, 15
1, 293185, Note_on_c, 0, 79, 81
1, 293188, Note_off_c, 0, 62, 61
1, 293199, Note_off_c, 0, 65, 39
1, 293242, Note_off_c, 0, 79, 64
1, 293404, Note_on_c, 0, 46, 42
1, 293499, Control_c, 0, 64, 98
1, 293514, Control_c, 0, 64, 75
1, 293517, Note_on_c, 0, 53, 37
1, 293529, Control_c, 0, 64, 59
1, 293544, Control_c, 0, 64, 18
1, 293547, Note_on_c, 0, 57, 51
1, 293549, Note_on_c, 0, 77, 64
1, 293558, Control_c, 0, 64, 17
1, 293573, Control_c, 0, 64, 39
1, 293582, Note_off_c, 0, 46, 61
1, 293588, Control_c, 0, 64, 54
1, 293601, Note_off_c, 0, 77, 63
1, 293603, Control_c, 0, 64, 62
1, 293607, Note_off_c, 0, 53, 61
1, 293618, Control_c, 0, 64, 67
1, 293632, Control_c, 0, 64, 77
1, 293644, Note_off_c, 0, 57, 63
1, 293647, Control_c, 0, 64, 100
1, 293662, Control_c, 0, 64, 127
1, 293956, Note_on_c, 0, 65, 76
1, 294217, Note_on_c, 0, 62, 41
1, 294229, Note_on_c, 0, 70, 62
1, 294250, Note_off_c, 0, 62, 62
1, 294256, Note_off_c, 0, 70, 67
1, 294441, Control_c, 0, 64, 115
1, 294447, Note_on_c, 0, 50, 34
1, 294455, Control_c, 0, 64, 95
1, 294470, Control_c, 0, 64, 78
1, 294485, Control_c, 0, 64, 65
1, 294499, Note_on_c, 0, 53, 38
1, 294499, Control_c, 0, 64, 52
1, 294514, Control_c, 0, 64, 53
1, 294529, Control_c, 0, 64, 57
1, 294544, Control_c, 0, 64, 60
1, 294559, Control_c, 0, 64, 63
1, 294573, Control_c, 0, 64, 66
1, 294575, Note_on_c, 0, 58, 68
1, 294588, Control_c, 0, 64, 72
1, 294603, Control_c, 0, 64, 80
1, 294618, Control_c, 0, 64, 93
1, 294634, Control_c, 0, 64, 127
1, 294689, Note_off_c, 0, 50, 40
1, 294709, Note_on_c, 0, 69, 55
1, 294709, Note_off_c, 0, 65, 51
1, 294778, Note_off_c, 0, 53, 41
1, 294831, Note_on_c, 0, 70, 72
1, 294843, Note_off_c, 0, 69, 60
1, 294911, Note_off_c, 0, 70, 62
1, 294935, Note_on_c, 0, 74, 77
1, 295054, Note_on_c, 0, 60, 82
1, 295068, Note_on_c, 0, 75, 77
1, 295090, Note_off_c, 0, 74, 56
1, 295111, Note_off_c, 0, 58, 62
1, 295181, Note_off_c, 0, 60, 59
1, 295189, Note_on_c, 0, 79, 74
1, 295199, Note_off_c, 0, 75, 60
1, 295221, Note_on_c, 0, 48, 57
1, 295264, Control_c, 0, 64, 96
1, 295278, Control_c, 0, 64, 75
1, 295293, Control_c, 0, 64, 62
1, 295306, Note_on_c, 0, 55, 48
1, 295308, Control_c, 0, 64, 50
1, 295311, Note_off_c, 0, 79, 61
1, 295313, Note_on_c, 0, 62, 80
1, 295319, Note_on_c, 0, 77, 72
1, 295322, Control_c, 0, 64, 52
1, 295337, Control_c, 0, 64, 60
1, 295352, Control_c, 0, 64, 64
1, 295359, Note_off_c, 0, 48, 54
1, 295367, Control_c, 0, 64, 69
1, 295382, Control_c, 0, 64, 78
1, 295396, Control_c, 0, 64, 101
1, 295411, Control_c, 0, 64, 127
1, 295419, Note_off_c, 0, 55, 63
1, 295419, Note_on_c, 0, 74, 71
1, 295427, Note_off_c, 0, 77, 59
1, 295520, Note_off_c, 0, 74, 62
1, 295535, Note_on_c, 0, 77, 80
1, 295565, Note_off_c, 0, 62, 51
1, 295642, Note_on_c, 0, 75, 81
1, 295658, Note_off_c, 0, 77, 63
1, 295739, Note_off_c, 0, 75, 62
1, 295751, Note_on_c, 0, 60, 37
1, 295754, Note_on_c, 0, 67, 13
1, 295761, Note_on_c, 0, 63, 80
1, 295782, Note_off_c, 0, 60, 55
1, 295797, Note_off_c, 0, 67, 38
1, 295875, Note_on_c, 0, 70, 62
1, 295957, Note_on_c, 0, 43, 29
1, 295966, Note_off_c, 0, 63, 57
1, 295967, Control_c, 0, 64, 107
1, 295975, Note_on_c, 0, 44, 26
1, 295982, Control_c, 0, 64, 76
1, 295982, Note_on_c, 0, 45, 40
1, 295995, Note_off_c, 0, 70, 51
1, 295997, Note_on_c, 0, 74, 59
1, 295997, Control_c, 0, 64, 59
1, 296012, Control_c, 0, 64, 0
1, 296024, Note_on_c, 0, 46, 20
1, 296027, Note_on_c, 0, 58, 72
1, 296032, Note_off_c, 0, 45, 43
1, 296034, Note_off_c, 0, 43, 57
1, 296041, Control_c, 0, 64, 25
1, 296049, Note_off_c, 0, 44, 39
1, 296056, Control_c, 0, 64, 48
1, 296068, Note_off_c, 0, 46, 53
1, 296070, Control_c, 0, 64, 61
1, 296085, Control_c, 0, 64, 66
1, 296100, Control_c, 0, 64, 74
1, 296115, Control_c, 0, 64, 92
1, 296118, Note_off_c, 0, 58, 63
1, 296128, Note_off_c, 0, 74, 59
1, 296130, Control_c, 0, 64, 127
1, 296131, Note_on_c, 0, 70, 60
1, 296232, Note_off_c, 0, 70, 58
1, 296262, Note_on_c, 0, 74, 62
1, 296349, Note_on_c, 0, 72, 70
1, 296373, Note_off_c, 0, 74, 57
1, 296447, Note_on_c, 0, 55, 42
1, 296462, Note_off_c, 0, 72, 61
1, 296484, Note_off_c, 0, 55, 65
1, 296507, Note_on_c, 0, 60, 67
1, 296539, Control_c, 0, 64, 123
1, 296554, Control_c, 0, 64, 116
1, 296569, Control_c, 0, 64, 111
1, 296583, Control_c, 0, 64, 107
1, 296598, Control_c, 0, 64, 104
1, 296613, Control_c, 0, 64, 100
1, 296617, Note_on_c, 0, 67, 50
1, 296628, Control_c, 0, 64, 96
1, 296643, Control_c, 0, 64, 92
1, 296657, Control_c, 0, 64, 88
1, 296659, Note_on_c, 0, 41, 49
1, 296672, Control_c, 0, 64, 84
1, 296682, Note_off_c, 0, 60, 38
1, 296687, Control_c, 0, 64, 81
1, 296701, Control_c, 0, 64, 78
1, 296702, Note_off_c, 0, 67, 57
1, 296716, Control_c, 0, 64, 76
1, 296718, Note_off_c, 0, 41, 61
1, 296731, Control_c, 0, 64, 74
1, 296736, Note_on_c, 0, 70, 52
1, 296746, Control_c, 0, 64, 72
1, 296761, Control_c, 0, 64, 69
1, 296763, Note_on_c, 0, 53, 51
1, 296775, Control_c, 0, 64, 67
1, 296790, Control_c, 0, 64, 66
1, 296805, Control_c, 0, 64, 64
1, 296820, Control_c, 0, 64, 63
1, 296835, Control_c, 0, 64, 61
1, 296859, Note_off_c, 0, 70, 59
1, 296864, Control_c, 0, 64, 61
1, 296875, Note_on_c, 0, 68, 49
1, 296879, Control_c, 0, 64, 60
1, 296894, Control_c, 0, 64, 58
1, 296909, Control_c, 0, 64, 57
1, 296924, Control_c, 0, 64, 55
1, 296939, Control_c, 0, 64, 54
1, 296954, Control_c, 0, 64, 53
1, 296975, Control_c, 0, 64, 52
1, 296988, Note_off_c, 0, 68, 57
1, 296990, Control_c, 0, 64, 50
1, 296993, Note_on_c, 0, 69, 54
1, 297005, Control_c, 0, 64, 49
1, 297020, Control_c, 0, 64, 47
1, 297036, Control_c, 0, 64, 46
1, 297051, Control_c, 0, 64, 45
1, 297066, Control_c, 0, 64, 44
1, 297080, Control_c, 0, 64, 42
1, 297095, Control_c, 0, 64, 41
1, 297110, Control_c, 0, 64, 40
1, 297118, Note_on_c, 0, 74, 53
1, 297128, Note_off_c, 0, 69, 53
1, 297213, Control_c, 0, 64, 41
1, 297228, Control_c, 0, 64, 43
1, 297243, Control_c, 0, 64, 46
1, 297258, Control_c, 0, 64, 50
1, 297263, Note_on_c, 0, 62, 30
1, 297273, Control_c, 0, 64, 55
1, 297277, Note_on_c, 0, 68, 38
1, 297279, Note_on_c, 0, 71, 55
1, 297288, Control_c, 0, 64, 60
1, 297288, Note_off_c, 0, 74, 58
1, 297298, Poly_aftertouch_c, 0, 55, 127
1, 297302, Control_c, 0, 64, 63
1, 297317, Control_c, 0, 64, 65
1, 297332, Control_c, 0, 64, 68
1, 297347, Control_c, 0, 64, 75
1, 297362, Control_c, 0, 64, 86
1, 297377, Control_c, 0, 64, 107
1, 297392, Control_c, 0, 64, 127
1, 297397, Note_off_c, 0, 68, 53
1, 297423, Note_off_c, 0, 71, 64
1, 297435, Note_off_c, 0, 62, 51
1, 297438, Note_on_c, 0, 72, 68
1, 297569, Control_c, 0, 64, 113
1, 297584, Control_c, 0, 64, 107
1, 297598, Control_c, 0, 64, 101
1, 297613, Control_c, 0, 64, 97
1, 297628, Control_c, 0, 64, 94
1, 297643, Control_c, 0, 64, 91
1, 297658, Control_c, 0, 64, 87
1, 297666, Note_on_c, 0, 79, 51
1, 297667, Note_on_c, 0, 63, 34
1, 297672, Control_c, 0, 64, 84
1, 297678, Note_on_c, 0, 69, 30
1, 297686, Note_off_c, 0, 72, 38
1, 297687, Control_c, 0, 64, 81
1, 297702, Control_c, 0, 64, 76
1, 297717, Control_c, 0, 64, 70
1, 297739, Control_c, 0, 64, 63
1, 297754, Control_c, 0, 64, 50
1, 297769, Control_c, 0, 64, 42
1, 297784, Control_c, 0, 64, 41
1, 297813, Control_c, 0, 64, 43
1, 297829, Control_c, 0, 64, 48
1, 297844, Control_c, 0, 64, 54
1, 297859, Control_c, 0, 64, 59
1, 297874, Control_c, 0, 64, 62
1, 297889, Control_c, 0, 64, 65
1, 297903, Control_c, 0, 64, 68
1, 297918, Control_c, 0, 64, 73
1, 297933, Control_c, 0, 64, 82
1, 297943, Note_off_c, 0, 79, 30
1, 297947, Control_c, 0, 64, 97
1, 297962, Control_c, 0, 64, 127
1, 297973, Note_off_c, 0, 69, 41
1, 297979, Note_off_c, 0, 53, 41
1, 298006, Note_on_c, 0, 73, 55
1, 298011, Poly_aftertouch_c, 0, 55, 0
1, 298077, Note_off_c, 0, 63, 28
1, 298209, Note_off_c, 0, 73, 56
1, 298423, Note_on_c, 0, 79, 57
1, 298451, Control_c, 0, 64, 123
1, 298473, Control_c, 0, 64, 118
1, 298488, Control_c, 0, 64, 116
1, 298503, Control_c, 0, 64, 113
1, 298518, Control_c, 0, 64, 111
1, 298533, Control_c, 0, 64, 109
1, 298547, Control_c, 0, 64, 106
1, 298562, Control_c, 0, 64, 102
1, 298577, Control_c, 0, 64, 96
1, 298592, Control_c, 0, 64, 88
1, 298593, Note_on_c, 0, 53, 41
1, 298607, Control_c, 0, 64, 76
1, 298622, Control_c, 0, 64, 67
1, 298627, Note_on_c, 0, 81, 63
1, 298638, Control_c, 0, 64, 62
1, 298644, Note_on_c, 0, 63, 30
1, 298656, Note_off_c, 0, 79, 56
1, 298667, Control_c, 0, 64, 63
1, 298682, Control_c, 0, 64, 66
1, 298697, Control_c, 0, 64, 69
1, 298712, Control_c, 0, 64, 74
1, 298726, Control_c, 0, 64, 84
1, 298741, Control_c, 0, 64, 101
1, 298756, Control_c, 0, 64, 127
1, 298796, Note_off_c, 0, 63, 52
1, 298798, Note_off_c, 0, 53, 39
1, 298809, Note_on_c, 0, 79, 71
1, 298817, Note_off_c, 0, 81, 62
1, 298822, Note_on_c, 0, 64, 44
1, 298847, Note_off_c, 0, 64, 56
1, 298867, Note_off_c, 0, 79, 63
1, 298973, Note_on_c, 0, 46, 34
1, 298993, Control_c, 0, 64, 104
1, 299008, Control_c, 0, 64, 85
1, 299018, Note_off_c, 0, 46, 60
1, 299022, Control_c, 0, 64, 70
1, 299037, Control_c, 0, 64, 59
1, 299039, Note_on_c, 0, 53, 32
1, 299052, Control_c, 0, 64, 52
1, 299067, Control_c, 0, 64, 57
1, 299082, Control_c, 0, 64, 61
1, 299088, Note_on_c, 0, 77, 58
1, 299095, Note_on_c, 0, 65, 41
1, 299097, Control_c, 0, 64, 64
1, 299112, Control_c, 0, 64, 68
1, 299118, Note_on_c, 0, 62, 33
1, 299126, Control_c, 0, 64, 75
1, 299130, Note_off_c, 0, 53, 48
1, 299141, Control_c, 0, 64, 92
1, 299156, Control_c, 0, 64, 127
1, 299167, Note_off_c, 0, 62, 59
1, 299225, Note_off_c, 0, 65, 36
1, 299252, Note_off_c, 0, 77, 56
1, 299273, Note_on_c, 0, 70, 38
1, 299331, Note_off_c, 0, 70, 57
1, 299358, Note_on_c, 0, 74, 61
1, 299407, Note_off_c, 0, 74, 60
1, 299459, Note_on_c, 0, 77, 75
1, 299550, Note_on_c, 0, 62, 37
1, 299570, Note_off_c, 0, 77, 57
1, 299571, Note_on_c, 0, 79, 82
1, 299585, Note_off_c, 0, 62, 48
1, 299678, Note_on_c, 0, 82, 81
1, 299683, Note_off_c, 0, 79, 63
1, 299717, Note_on_c, 0, 41, 67
1, 299741, Control_c, 0, 64, 103
1, 299755, Control_c, 0, 64, 75
1, 299770, Control_c, 0, 64, 58
1, 299779, Note_off_c, 0, 41, 62
1, 299785, Control_c, 0, 64, 37
1, 299790, Note_on_c, 0, 50, 60
1, 299796, Note_off_c, 0, 82, 58
1, 299799, Control_c, 0, 64, 47
1, 299814, Control_c, 0, 64, 58
1, 299818, Note_on_c, 0, 79, 75
1, 299829, Note_on_c, 0, 58, 85
1, 299829, Control_c, 0, 64, 64
1, 299837, Note_off_c, 0, 50, 62
1, 299844, Control_c, 0, 64, 72
1, 299850, Note_off_c, 0, 79, 66
1, 299859, Control_c, 0, 64, 89
1, 299873, Control_c, 0, 64, 127
1, 299883, Note_off_c, 0, 58, 63
1, 300129, Note_on_c, 0, 79, 64
1, 300135, Note_on_c, 0, 77, 63
1, 300154, Note_off_c, 0, 77, 63
1, 300155, Note_off_c, 0, 79, 66
1, 300340, Note_on_c, 0, 62, 41
1, 300366, Note_on_c, 0, 79, 82
1, 300370, Note_off_c, 0, 62, 62
1, 300393, Note_off_c, 0, 79, 67
1, 300488, Note_on_c, 0, 77, 57
1, 300525, Note_off_c, 0, 77, 61
1, 300528, Note_on_c, 0, 81, 63
1, 300559, Note_off_c, 0, 81, 67
1, 300567, Note_on_c, 0, 82, 67
1, 300581, Note_on_c, 0, 46, 38
1, 300590, Note_off_c, 0, 82, 65
1, 300645, Note_on_c, 0, 88, 55
1, 300679, Note_on_c, 0, 53, 47
1, 300686, Note_on_c, 0, 89, 25
1, 300697, Control_c, 0, 64, 93
1, 300703, Note_on_c, 0, 57, 59
1, 300712, Control_c, 0, 64, 69
1, 300730, Note_off_c, 0, 88, 53
1, 300734, Control_c, 0, 64, 42
1, 300737, Note_off_c, 0, 89, 45
1, 300738, Note_on_c, 0, 101, 83
1, 300748, Control_c, 0, 64, 26
1, 300763, Control_c, 0, 64, 42
1, 300778, Note_off_c, 0, 46, 62
1, 300778, Control_c, 0, 64, 56
1, 300791, Note_off_c, 0, 101, 66
1, 300793, Control_c, 0, 64, 64
1, 300806, Note_off_c, 0, 53, 62
1, 300808, Control_c, 0, 64, 73
1, 300821, Note_off_c, 0, 57, 63
1, 300823, Control_c, 0, 64, 107
1, 300838, Control_c, 0, 64, 127
1, 301149, Note_on_c, 0, 65, 83
1, 301419, Note_on_c, 0, 70, 60
1, 301437, Note_on_c, 0, 62, 38
1, 301443, Note_off_c, 0, 70, 65
1, 301477, Note_off_c, 0, 62, 50
1, 301632, Note_on_c, 0, 43, 46
1, 301690, Control_c, 0, 64, 111
1, 301705, Note_on_c, 0, 50, 46
1, 301705, Control_c, 0, 64, 88
1, 301720, Control_c, 0, 64, 72
1, 301735, Control_c, 0, 64, 61
1, 301737, Note_off_c, 0, 65, 55
1, 301749, Control_c, 0, 64, 53
1, 301760, Note_on_c, 0, 66, 49
1, 301762, Note_on_c, 0, 58, 77
1, 301763, Control_c, 0, 64, 57
1, 301778, Control_c, 0, 64, 61
1, 301793, Control_c, 0, 64, 64
1, 301808, Control_c, 0, 64, 69
1, 301824, Control_c, 0, 64, 77
1, 301837, Poly_aftertouch_c, 0, 46, 127
1, 301839, Control_c, 0, 64, 91
1, 301854, Control_c, 0, 64, 127
1, 301862, Note_off_c, 0, 43, 33
1, 301878, Note_off_c, 0, 50, 58
1, 301886, Note_off_c, 0, 66, 61
1, 301902, Note_on_c, 0, 67, 72
1, 301972, Poly_aftertouch_c, 0, 46, 0
1, 302015, Note_on_c, 0, 70, 82
1, 302075, Note_off_c, 0, 67, 54
1, 302121, Note_on_c, 0, 74, 77
1, 302127, Note_off_c, 0, 58, 57
1, 302191, Note_off_c, 0, 70, 61
1, 302235, Note_on_c, 0, 60, 85
1, 302256, Note_on_c, 0, 75, 80
1, 302272, Note_off_c, 0, 74, 60
1, 302304, Note_off_c, 0, 60, 65
1, 302319, Note_off_c, 0, 75, 64
1, 302365, Note_on_c, 0, 76, 82
1, 302391, Note_on_c, 0, 45, 55
1, 302428, Note_off_c, 0, 76, 63
1, 302453, Control_c, 0, 64, 91
1, 302464, Note_off_c, 0, 45, 63
1, 302465, Note_on_c, 0, 53, 62
1, 302468, Control_c, 0, 64, 69
1, 302483, Control_c, 0, 64, 52
1, 302498, Control_c, 0, 64, 45
1, 302513, Control_c, 0, 64, 55
1, 302516, Note_on_c, 0, 77, 78
1, 302527, Note_on_c, 0, 62, 76
1, 302527, Control_c, 0, 64, 62
1, 302542, Control_c, 0, 64, 66
1, 302557, Control_c, 0, 64, 72
1, 302572, Control_c, 0, 64, 85
1, 302586, Control_c, 0, 64, 127
1, 302639, Note_off_c, 0, 62, 59
1, 302644, Note_on_c, 0, 88, 81
1, 302658, Note_on_c, 0, 81, 68
1, 302660, Note_off_c, 0, 77, 58
1, 302681, Note_off_c, 0, 53, 35
1, 302752, Note_off_c, 0, 81, 62
1, 302755, Note_on_c, 0, 86, 76
1, 302760, Note_off_c, 0, 88, 67
1, 302778, Note_on_c, 0, 77, 74
1, 302797, Note_off_c, 0, 86, 61
1, 302833, Note_off_c, 0, 77, 63
1, 302875, Note_on_c, 0, 76, 76
1, 302970, Note_off_c, 0, 76, 62
1, 302976, Note_on_c, 0, 74, 59
1, 302978, Note_on_c, 0, 58, 80
1, 302981, Note_on_c, 0, 77, 67
1, 303029, Note_on_c, 0, 59, 33
1, 303045, Note_off_c, 0, 74, 62
1, 303063, Note_off_c, 0, 59, 50
1, 303068, Note_off_c, 0, 58, 62
1, 303073, Note_off_c, 0, 77, 61
1, 303169, Note_on_c, 0, 45, 58
1, 303172, Poly_aftertouch_c, 0, 72, 0
1, 303172, Control_c, 0, 64, 112
1, 303187, Control_c, 0, 64, 79
1, 303202, Control_c, 0, 64, 62
1, 303217, Control_c, 0, 64, 32
1, 303231, Note_on_c, 0, 53, 74
1, 303231, Control_c, 0, 64, 33
1, 303246, Control_c, 0, 64, 52
1, 303248, Note_on_c, 0, 70, 71
1, 303261, Control_c, 0, 64, 61
1, 303268, Note_off_c, 0, 45, 63
1, 303276, Control_c, 0, 64, 67
1, 303291, Control_c, 0, 64, 76
1, 303299, Note_off_c, 0, 53, 65
1, 303306, Control_c, 0, 64, 97
1, 303315, Note_off_c, 0, 70, 55
1, 303321, Control_c, 0, 64, 127
1, 303333, Poly_aftertouch_c, 0, 62, 0
1, 303357, Note_on_c, 0, 81, 59
1, 303467, Note_off_c, 0, 81, 58
1, 303481, Note_on_c, 0, 65, 72
1, 303494, Note_on_c, 0, 79, 41
1, 303497, Note_on_c, 0, 74, 58
1, 303506, Note_off_c, 0, 65, 67
1, 303536, Note_off_c, 0, 79, 58
1, 303538, Note_off_c, 0, 74, 62
1, 303584, Note_on_c, 0, 70, 57
1, 303632, Note_on_c, 0, 45, 54
1, 303634, Note_off_c, 0, 70, 58
1, 303685, Note_off_c, 0, 45, 55
1, 303692, Control_c, 0, 64, 83
1, 303714, Control_c, 0, 64, 63
1, 303725, Note_on_c, 0, 55, 46
1, 303729, Control_c, 0, 64, 44
1, 303737, Note_on_c, 0, 73, 54
1, 303744, Control_c, 0, 64, 48
1, 303759, Control_c, 0, 64, 57
1, 303766, Note_off_c, 0, 55, 63
1, 303769, Note_on_c, 0, 69, 36
1, 303773, Control_c, 0, 64, 63
1, 303783, Note_on_c, 0, 64, 67
1, 303788, Control_c, 0, 64, 68
1, 303803, Control_c, 0, 64, 75
1, 303818, Control_c, 0, 64, 89
1, 303822, Note_off_c, 0, 64, 61
1, 303833, Control_c, 0, 64, 108
1, 303847, Control_c, 0, 64, 127
1, 303857, Note_on_c, 0, 67, 57
1, 303867, Note_off_c, 0, 73, 39
1, 303899, Note_off_c, 0, 67, 60
1, 303942, Note_off_c, 0, 69, 39
1, 303980, Control_c, 0, 64, 92
1, 303996, Control_c, 0, 64, 69
1, 304007, Note_on_c, 0, 65, 53
1, 304011, Control_c, 0, 64, 55
1, 304025, Note_on_c, 0, 50, 46
1, 304026, Control_c, 0, 64, 49
1, 304027, Note_on_c, 0, 62, 42
1, 304028, Note_on_c, 0, 57, 42
1, 304035, Note_on_c, 0, 69, 60
1, 304040, Control_c, 0, 64, 57
1, 304054, Note_off_c, 0, 65, 61
1, 304055, Control_c, 0, 64, 63
1, 304070, Control_c, 0, 64, 69
1, 304085, Control_c, 0, 64, 82
1, 304087, Note_off_c, 0, 50, 62
1, 304092, Note_off_c, 0, 62, 60
1, 304100, Control_c, 0, 64, 123
1, 304114, Note_off_c, 0, 57, 63
1, 304114, Control_c, 0, 64, 127
1, 304121, Note_off_c, 0, 69, 63
1, 304124, Note_on_c, 0, 77, 68
1, 304153, Note_off_c, 0, 77, 67
1, 304260, Note_on_c, 0, 86, 74
1, 304276, Note_on_c, 0, 80, 59
1, 304293, Control_c, 0, 64, 105
1, 304308, Control_c, 0, 64, 95
1, 304323, Control_c, 0, 64, 88
1, 304325, Note_off_c, 0, 80, 55
1, 304337, Control_c, 0, 64, 83
1, 304349, Note_off_c, 0, 86, 61
1, 304352, Control_c, 0, 64, 77
1, 304364, Note_on_c, 0, 81, 73
1, 304367, Control_c, 0, 64, 72
1, 304382, Control_c, 0, 64, 69
1, 304397, Control_c, 0, 64, 66
1, 304412, Control_c, 0, 64, 63
1, 304427, Control_c, 0, 64, 61
1, 304442, Control_c, 0, 64, 59
1, 304463, Control_c, 0, 64, 56
1, 304466, Note_off_c, 0, 81, 63
1, 304478, Control_c, 0, 64, 54
1, 304491, Note_on_c, 0, 57, 44
1, 304493, Control_c, 0, 64, 51
1, 304504, Note_on_c, 0, 93, 70
1, 304508, Note_on_c, 0, 69, 36
1, 304508, Control_c, 0, 64, 46
1, 304516, Note_on_c, 0, 65, 31
1, 304516, Note_on_c, 0, 85, 60
1, 304519, Note_off_c, 0, 57, 58
1, 304523, Control_c, 0, 64, 42
1, 304537, Control_c, 0, 64, 37
1, 304540, Note_off_c, 0, 69, 60
1, 304550, Note_off_c, 0, 65, 42
1, 304552, Control_c, 0, 64, 32
1, 304564, Note_off_c, 0, 85, 54
1, 304567, Control_c, 0, 64, 26
1, 304568, Note_off_c, 0, 93, 64
1, 304582, Control_c, 0, 64, 20
1, 304597, Control_c, 0, 64, 17
1, 304612, Control_c, 0, 64, 15
1, 304621, Note_on_c, 0, 86, 58
1, 304627, Control_c, 0, 64, 0
1, 304702, Note_off_c, 0, 86, 49
1, 304851, Note_on_c, 0, 65, 24
1, 304855, Note_on_c, 0, 74, 17
1, 304859, Note_on_c, 0, 98, 57
1, 304862, Note_on_c, 0, 89, 29
1, 304868, Note_on_c, 0, 69, 31
1, 304878, Control_c, 0, 64, 20
1, 304893, Control_c, 0, 64, 39
1, 304908, Control_c, 0, 64, 53
1, 304923, Control_c, 0, 64, 62
1, 304937, Control_c, 0, 64, 66
1, 304952, Control_c, 0, 64, 72
1, 304953, Note_off_c, 0, 98, 64
1, 304962, Note_off_c, 0, 74, 53
1, 304967, Control_c, 0, 64, 85
1, 304981, Control_c, 0, 64, 112
1, 304990, Note_off_c, 0, 89, 38
1, 304996, Control_c, 0, 64, 127
1, 305002, Note_off_c, 0, 65, 35
1, 305029, Note_off_c, 0, 69, 41
1, 305131, Control_c, 0, 64, 117
1, 305146, Control_c, 0, 64, 100
1, 305160, Control_c, 0, 64, 89
1, 305175, Control_c, 0, 64, 82
1, 305190, Control_c, 0, 64, 77
1, 305205, Control_c, 0, 64, 72
1, 305227, Control_c, 0, 64, 69
1, 305242, Control_c, 0, 64, 66
1, 305257, Control_c, 0, 64, 63
1, 305272, Control_c, 0, 64, 60
1, 305286, Control_c, 0, 64, 57
1, 305301, Control_c, 0, 64, 51
1, 305316, Control_c, 0, 64, 44
1, 305331, Control_c, 0, 64, 34
1, 305346, Control_c, 0, 64, 21
1, 305360, Control_c, 0, 64, 0
1, 305464, Control_c, 0, 64, 17
1, 305479, Control_c, 0, 64, 32
1, 305494, Control_c, 0, 64, 43
1, 305509, Control_c, 0, 64, 51
1, 305524, Control_c, 0, 64, 56
1, 305539, Control_c, 0, 64, 60
1, 305554, Control_c, 0, 64, 63
1, 305568, Control_c, 0, 64, 66
1, 305583, Control_c, 0, 64, 71
1, 305598, Control_c, 0, 64, 78
1, 305612, Control_c, 0, 64, 92
1, 305627, Control_c, 0, 64, 127
1, 305678, Note_on_c, 0, 65, 90
1, 305879, Note_on_c, 0, 41, 51
1, 305964, Note_off_c, 0, 41, 63
1, 305984, Note_on_c, 0, 51, 61
1, 306019, Note_off_c, 0, 65, 62
1, 306032, Note_off_c, 0, 51, 63
1, 306066, Note_on_c, 0, 57, 63
1, 306115, Note_off_c, 0, 57, 61
1, 306255, Note_on_c, 0, 81, 79
1, 306347, Note_on_c, 0, 79, 82
1, 306391, Note_on_c, 0, 53, 55
1, 306443, Note_off_c, 0, 81, 65
1, 306460, Note_on_c, 0, 75, 83
1, 306484, Note_off_c, 0, 53, 53
1, 306487, Note_on_c, 0, 63, 70
1, 306549, Note_off_c, 0, 63, 61
1, 306562, Note_on_c, 0, 69, 93
1, 306586, Note_off_c, 0, 79, 53
1, 306591, Note_on_c, 0, 72, 78
1, 306613, Note_off_c, 0, 69, 65
1, 306666, Note_off_c, 0, 75, 56
1, 306737, Note_on_c, 0, 69, 49
1, 306742, Note_on_c, 0, 48, 58
1, 306754, Note_off_c, 0, 72, 54
1, 306803, Note_on_c, 0, 53, 47
1, 306806, Note_off_c, 0, 69, 56
1, 306843, Control_c, 0, 64, 89
1, 306857, Control_c, 0, 64, 69
1, 306867, Note_on_c, 0, 63, 61
1, 306872, Control_c, 0, 64, 55
1, 306877, Note_on_c, 0, 67, 89
1, 306887, Control_c, 0, 64, 42
1, 306902, Control_c, 0, 64, 49
1, 306909, Note_off_c, 0, 48, 44
1, 306917, Control_c, 0, 64, 57
1, 306932, Control_c, 0, 64, 62
1, 306946, Control_c, 0, 64, 66
1, 306950, Note_off_c, 0, 53, 63
1, 306961, Control_c, 0, 64, 73
1, 306976, Control_c, 0, 64, 91
1, 306990, Control_c, 0, 64, 127
1, 307026, Note_off_c, 0, 63, 60
1, 307147, Note_on_c, 0, 79, 73
1, 307182, Note_off_c, 0, 67, 41
1, 307363, Note_on_c, 0, 65, 82
1, 307394, Note_off_c, 0, 65, 63
1, 307461, Poly_aftertouch_c, 0, 63, 0
1, 307494, Note_on_c, 0, 81, 80
1, 307508, Note_off_c, 0, 79, 57
1, 307545, Note_on_c, 0, 46, 52
1, 307552, Note_off_c, 0, 81, 63
1, 307577, Control_c, 0, 64, 102
1, 307586, Note_on_c, 0, 53, 46
1, 307592, Control_c, 0, 64, 74
1, 307606, Control_c, 0, 64, 57
1, 307621, Control_c, 0, 64, 42
1, 307622, Note_off_c, 0, 46, 63
1, 307636, Control_c, 0, 64, 52
1, 307646, Note_on_c, 0, 77, 78
1, 307650, Note_on_c, 0, 65, 61
1, 307651, Control_c, 0, 64, 60
1, 307666, Control_c, 0, 64, 66
1, 307672, Note_on_c, 0, 62, 57
1, 307679, Note_off_c, 0, 65, 63
1, 307681, Control_c, 0, 64, 77
1, 307695, Control_c, 0, 64, 113
1, 307698, Note_off_c, 0, 77, 65
1, 307701, Note_off_c, 0, 53, 54
1, 307709, Note_off_c, 0, 62, 64
1, 307710, Control_c, 0, 64, 127
1, 307811, Note_on_c, 0, 89, 72
1, 307831, Note_on_c, 0, 82, 50
1, 307846, Note_off_c, 0, 89, 58
1, 307852, Note_off_c, 0, 82, 60
1, 307917, Note_on_c, 0, 87, 74
1, 307923, Note_on_c, 0, 79, 66
1, 307953, Note_off_c, 0, 79, 67
1, 307970, Note_off_c, 0, 87, 64
1, 308025, Note_on_c, 0, 86, 67
1, 308028, Note_on_c, 0, 77, 78
1, 308055, Note_off_c, 0, 86, 67
1, 308085, Note_off_c, 0, 77, 63
1, 308147, Note_on_c, 0, 63, 77
1, 308159, Note_on_c, 0, 53, 51
1, 308171, Note_on_c, 0, 84, 48
1, 308174, Note_on_c, 0, 75, 69
1, 308183, Note_on_c, 0, 86, 46
1, 308212, Note_off_c, 0, 53, 61
1, 308219, Note_off_c, 0, 63, 63
1, 308223, Note_off_c, 0, 86, 53
1, 308256, Note_off_c, 0, 75, 61
1, 308280, Note_off_c, 0, 84, 65
1, 308286, Note_on_c, 0, 82, 69
1, 308303, Note_on_c, 0, 74, 65
1, 308314, Note_off_c, 0, 82, 67
1, 308330, Note_off_c, 0, 74, 67
1, 308448, Note_on_c, 0, 41, 47
1, 308460, Control_c, 0, 64, 104
1, 308466, Note_on_c, 0, 62, 67
1, 308475, Control_c, 0, 64, 75
1, 308490, Control_c, 0, 64, 57
1, 308504, Control_c, 0, 64, 17
1, 308519, Control_c, 0, 64, 27
1, 308534, Note_on_c, 0, 70, 55
1, 308534, Control_c, 0, 64, 48
1, 308549, Control_c, 0, 64, 60
1, 308554, Note_off_c, 0, 62, 59
1, 308564, Control_c, 0, 64, 68
1, 308576, Note_on_c, 0, 77, 77
1, 308579, Control_c, 0, 64, 79
1, 308583, Note_off_c, 0, 41, 63
1, 308593, Control_c, 0, 64, 110
1, 308608, Control_c, 0, 64, 127
1, 308613, Note_off_c, 0, 70, 64
1, 308632, Note_off_c, 0, 77, 64
1, 308896, Note_on_c, 0, 79, 78
1, 309196, Note_on_c, 0, 62, 30
1, 309197, Note_on_c, 0, 65, 40
1, 309258, Note_off_c, 0, 65, 63
1, 309265, Note_off_c, 0, 62, 61
1, 309358, Note_off_c, 0, 79, 61
1, 309390, Note_on_c, 0, 77, 53
1, 309468, Note_on_c, 0, 43, 46
1, 309549, Control_c, 0, 64, 91
1, 309564, Control_c, 0, 64, 70
1, 309578, Control_c, 0, 64, 51
1, 309582, Note_on_c, 0, 51, 39
1, 309593, Control_c, 0, 64, 45
1, 309608, Control_c, 0, 64, 54
1, 309623, Control_c, 0, 64, 61
1, 309625, Note_off_c, 0, 77, 52
1, 309628, Note_on_c, 0, 63, 55
1, 309630, Note_on_c, 0, 75, 58
1, 309638, Note_on_c, 0, 58, 42
1, 309638, Control_c, 0, 64, 66
1, 309646, Note_off_c, 0, 43, 36
1, 309652, Control_c, 0, 64, 74
1, 309658, Note_off_c, 0, 63, 64
1, 309666, Note_off_c, 0, 75, 64
1, 309667, Control_c, 0, 64, 100
1, 309682, Control_c, 0, 64, 127
1, 309686, Note_off_c, 0, 58, 59
1, 309697, Note_off_c, 0, 51, 50
1, 309822, Note_on_c, 0, 86, 63
1, 309848, Note_on_c, 0, 77, 45
1, 309916, Note_off_c, 0, 77, 63
1, 309935, Note_on_c, 0, 75, 57
1, 309941, Note_on_c, 0, 84, 63
1, 309952, Note_off_c, 0, 86, 60
1, 310022, Note_off_c, 0, 75, 56
1, 310024, Note_on_c, 0, 82, 64
1, 310025, Note_off_c, 0, 84, 62
1, 310057, Note_off_c, 0, 82, 64
1, 310155, Note_on_c, 0, 67, 71
1, 310157, Note_on_c, 0, 55, 48
1, 310183, Note_off_c, 0, 67, 68
1, 310186, Note_on_c, 0, 79, 56
1, 310192, Note_off_c, 0, 55, 64
1, 310251, Note_off_c, 0, 79, 59
1, 310255, Poly_aftertouch_c, 0, 70, 127
1, 310263, Note_on_c, 0, 75, 61
1, 310281, Poly_aftertouch_c, 0, 70, 0
1, 310301, Note_off_c, 0, 75, 60
1, 310365, Note_on_c, 0, 45, 49
1, 310415, Control_c, 0, 64, 95
1, 310430, Control_c, 0, 64, 72
1, 310452, Control_c, 0, 64, 55
1, 310464, Note_on_c, 0, 65, 66
1, 310467, Control_c, 0, 64, 25
1, 310470, Note_off_c, 0, 45, 55
1, 310477, Note_on_c, 0, 53, 43
1, 310481, Control_c, 0, 64, 34
1, 310496, Note_on_c, 0, 72, 57
1, 310496, Control_c, 0, 64, 50
1, 310511, Control_c, 0, 64, 61
1, 310526, Control_c, 0, 64, 66
1, 310531, Note_off_c, 0, 53, 62
1, 310532, Note_on_c, 0, 60, 50
1, 310541, Control_c, 0, 64, 72
1, 310547, Note_off_c, 0, 65, 63
1, 310556, Note_off_c, 0, 72, 65
1, 310556, Control_c, 0, 64, 84
1, 310559, Note_off_c, 0, 60, 61
1, 310570, Control_c, 0, 64, 106
1, 310585, Control_c, 0, 64, 127
1, 310804, Note_on_c, 0, 72, 55
1, 310994, Note_on_c, 0, 51, 35
1, 311035, Note_on_c, 0, 63, 50
1, 311047, Note_off_c, 0, 72, 56
1, 311072, Note_on_c, 0, 67, 43
1, 311100, Note_off_c, 0, 67, 61
1, 311125, Note_on_c, 0, 65, 52
1, 311153, Note_off_c, 0, 51, 38
1, 311165, Note_off_c, 0, 65, 63
1, 311199, Note_on_c, 0, 69, 54
1, 311232, Note_off_c, 0, 69, 63
1, 311239, Note_off_c, 0, 63, 35
1, 311240, Note_on_c, 0, 70, 59
1, 311268, Note_off_c, 0, 70, 65
1, 311275, Control_c, 0, 64, 123
1, 311288, Note_on_c, 0, 50, 35
1, 311290, Control_c, 0, 64, 117
1, 311304, Control_c, 0, 64, 113
1, 311319, Control_c, 0, 64, 110
1, 311334, Control_c, 0, 64, 105
1, 311337, Note_on_c, 0, 53, 34
1, 311348, Note_on_c, 0, 77, 55
1, 311349, Control_c, 0, 64, 100
1, 311364, Control_c, 0, 64, 97
1, 311378, Control_c, 0, 64, 95
1, 311382, Note_on_c, 0, 58, 39
1, 311393, Control_c, 0, 64, 92
1, 311407, Note_off_c, 0, 77, 52
1, 311409, Control_c, 0, 64, 90
1, 311417, Note_on_c, 0, 63, 35
1, 311424, Control_c, 0, 64, 85
1, 311436, Note_on_c, 0, 89, 77
1, 311439, Control_c, 0, 64, 73
1, 311453, Control_c, 0, 64, 62
1, 311468, Control_c, 0, 64, 37
1, 311484, Control_c, 0, 64, 0
1, 311500, Note_off_c, 0, 89, 63
1, 311514, Control_c, 0, 64, 22
1, 311528, Control_c, 0, 64, 40
1, 311543, Control_c, 0, 64, 56
1, 311557, Note_off_c, 0, 50, 43
1, 311558, Control_c, 0, 64, 64
1, 311573, Control_c, 0, 64, 70
1, 311587, Note_off_c, 0, 53, 53
1, 311588, Control_c, 0, 64, 84
1, 311599, Note_off_c, 0, 58, 57
1, 311602, Control_c, 0, 64, 127
1, 311620, Note_off_c, 0, 63, 60
1, 311850, Note_on_c, 0, 77, 53
1, 312131, Note_on_c, 0, 62, 38
1, 312135, Note_on_c, 0, 70, 40
1, 312138, Note_on_c, 0, 65, 36
1, 312168, Note_off_c, 0, 70, 65
1, 312171, Note_off_c, 0, 62, 63
1, 312174, Note_off_c, 0, 65, 65
1, 312348, Note_on_c, 0, 48, 40
1, 312425, Control_c, 0, 64, 104
1, 312431, Note_on_c, 0, 53, 45
1, 312439, Control_c, 0, 64, 88
1, 312454, Control_c, 0, 64, 73
1, 312469, Control_c, 0, 64, 62
1, 312484, Control_c, 0, 64, 56
1, 312499, Control_c, 0, 64, 58
1, 312506, Note_off_c, 0, 77, 37
1, 312514, Control_c, 0, 64, 61
1, 312526, Note_on_c, 0, 87, 41
1, 312526, Note_on_c, 0, 63, 34
1, 312529, Control_c, 0, 64, 64
1, 312532, Note_on_c, 0, 79, 38
1, 312544, Control_c, 0, 64, 67
1, 312558, Control_c, 0, 64, 72
1, 312568, Note_off_c, 0, 48, 31
1, 312573, Control_c, 0, 64, 80
1, 312588, Control_c, 0, 64, 92
1, 312603, Control_c, 0, 64, 114
1, 312618, Control_c, 0, 64, 127
1, 312670, Note_off_c, 0, 87, 60
1, 312690, Note_on_c, 0, 81, 52
1, 312716, Note_off_c, 0, 53, 40
1, 312724, Note_off_c, 0, 79, 44
1, 312767, Note_off_c, 0, 63, 37
1, 312865, Note_off_c, 0, 81, 59
1, 312876, Note_on_c, 0, 84, 57
1, 312893, Note_on_c, 0, 72, 38
1, 312943, Note_off_c, 0, 84, 59
1, 313062, Note_on_c, 0, 79, 68
1, 313079, Note_on_c, 0, 64, 46
1, 313082, Note_on_c, 0, 73, 52
1, 313095, Note_off_c, 0, 72, 40
1, 313135, Note_off_c, 0, 64, 56
1, 313232, Control_c, 0, 64, 123
1, 313233, Note_off_c, 0, 73, 47
1, 313247, Control_c, 0, 64, 107
1, 313262, Control_c, 0, 64, 90
1, 313277, Control_c, 0, 64, 76
1, 313285, Note_on_c, 0, 53, 42
1, 313292, Control_c, 0, 64, 65
1, 313293, Note_on_c, 0, 81, 67
1, 313296, Note_off_c, 0, 79, 58
1, 313302, Note_on_c, 0, 74, 44
1, 313303, Note_on_c, 0, 65, 41
1, 313307, Control_c, 0, 64, 55
1, 313313, Note_on_c, 0, 63, 25
1, 313322, Control_c, 0, 64, 56
1, 313337, Control_c, 0, 64, 59
1, 313352, Control_c, 0, 64, 62
1, 313367, Control_c, 0, 64, 65
1, 313381, Control_c, 0, 64, 69
1, 313396, Control_c, 0, 64, 78
1, 313398, Note_off_c, 0, 65, 55
1, 313411, Control_c, 0, 64, 91
1, 313425, Control_c, 0, 64, 118
1, 313438, Note_off_c, 0, 63, 56
1, 313440, Control_c, 0, 64, 127
1, 313467, Note_off_c, 0, 53, 34
1, 313525, Note_off_c, 0, 74, 34
1, 313533, Note_on_c, 0, 79, 70
1, 313546, Note_on_c, 0, 75, 44
1, 313566, Note_off_c, 0, 81, 64
1, 313595, Note_off_c, 0, 75, 48
1, 313677, Note_on_c, 0, 46, 45
1, 313685, Control_c, 0, 64, 111
1, 313699, Control_c, 0, 64, 94
1, 313714, Control_c, 0, 64, 79
1, 313729, Control_c, 0, 64, 67
1, 313744, Control_c, 0, 64, 58
1, 313759, Control_c, 0, 64, 54
1, 313773, Note_on_c, 0, 53, 41
1, 313773, Control_c, 0, 64, 58
1, 313788, Control_c, 0, 64, 61
1, 313802, Note_off_c, 0, 46, 62
1, 313804, Control_c, 0, 64, 63
1, 313819, Control_c, 0, 64, 66
1, 313834, Control_c, 0, 64, 69
1, 313841, Note_on_c, 0, 77, 63
1, 313848, Control_c, 0, 64, 75
1, 313861, Note_off_c, 0, 79, 57
1, 313863, Control_c, 0, 64, 86
1, 313878, Control_c, 0, 64, 103
1, 313880, Note_on_c, 0, 62, 41
1, 313885, Note_off_c, 0, 53, 57
1, 313893, Control_c, 0, 64, 127
1, 313927, Note_off_c, 0, 62, 60
1, 313939, Poly_aftertouch_c, 0, 74, 0
1, 313984, Note_off_c, 0, 77, 61
1, 314022, Note_on_c, 0, 70, 52
1, 314107, Note_off_c, 0, 70, 39
1, 314125, Note_on_c, 0, 74, 66
1, 314252, Note_on_c, 0, 77, 70
1, 314304, Note_on_c, 0, 62, 54
1, 314335, Note_off_c, 0, 62, 63
1, 314357, Note_on_c, 0, 79, 75
1, 314362, Poly_aftertouch_c, 0, 70, 0
1, 314381, Note_off_c, 0, 74, 56
1, 314390, Poly_aftertouch_c, 0, 70, 0
1, 314428, Note_off_c, 0, 77, 57
1, 314475, Note_on_c, 0, 82, 81
1, 314493, Control_c, 0, 64, 101
1, 314495, Note_on_c, 0, 41, 59
1, 314508, Control_c, 0, 64, 76
1, 314511, Note_off_c, 0, 79, 61
1, 314522, Control_c, 0, 64, 57
1, 314537, Control_c, 0, 64, 36
1, 314541, Note_off_c, 0, 41, 59
1, 314552, Control_c, 0, 64, 43
1, 314567, Control_c, 0, 64, 55
1, 314571, Note_on_c, 0, 50, 55
1, 314582, Control_c, 0, 64, 63
1, 314597, Note_off_c, 0, 82, 63
1, 314598, Control_c, 0, 64, 71
1, 314601, Note_on_c, 0, 79, 80
1, 314604, Note_on_c, 0, 58, 89
1, 314613, Control_c, 0, 64, 92
1, 314616, Note_off_c, 0, 50, 65
1, 314627, Control_c, 0, 64, 127
1, 314645, Note_off_c, 0, 79, 63
1, 314664, Note_off_c, 0, 58, 64
1, 314874, Note_on_c, 0, 79, 90
1, 314917, Note_off_c, 0, 79, 66
1, 315119, Note_on_c, 0, 62, 47
1, 315122, Note_on_c, 0, 65, 36
1, 315159, Note_off_c, 0, 65, 64
1, 315160, Note_on_c, 0, 79, 91
1, 315182, Note_off_c, 0, 62, 62
1, 315212, Note_off_c, 0, 79, 66
1, 315364, Note_on_c, 0, 46, 53
1, 315450, Control_c, 0, 64, 84
1, 315457, Note_on_c, 0, 53, 57
1, 315465, Control_c, 0, 64, 65
1, 315480, Control_c, 0, 64, 47
1, 315485, Note_on_c, 0, 77, 78
1, 315486, Note_on_c, 0, 57, 76
1, 315495, Control_c, 0, 64, 35
1, 315510, Control_c, 0, 64, 45
1, 315525, Control_c, 0, 64, 56
1, 315532, Note_off_c, 0, 46, 63
1, 315540, Control_c, 0, 64, 63
1, 315552, Note_off_c, 0, 53, 63
1, 315555, Control_c, 0, 64, 68
1, 315562, Note_off_c, 0, 77, 63
1, 315569, Control_c, 0, 64, 77
1, 315584, Control_c, 0, 64, 100
1, 315599, Control_c, 0, 64, 127
1, 315614, Note_off_c, 0, 57, 63
1, 315892, Note_on_c, 0, 65, 86
1, 316165, Note_on_c, 0, 70, 69
1, 316170, Note_on_c, 0, 62, 34
1, 316192, Note_off_c, 0, 70, 70
1, 316205, Note_off_c, 0, 62, 52
1, 316370, Note_on_c, 0, 50, 49
1, 316423, Note_on_c, 0, 53, 56
1, 316458, Control_c, 0, 64, 110
1, 316473, Control_c, 0, 64, 86
1, 316488, Control_c, 0, 64, 71
1, 316503, Control_c, 0, 64, 62
1, 316517, Control_c, 0, 64, 54
1, 316518, Note_on_c, 0, 58, 79
1, 316532, Control_c, 0, 64, 57
1, 316547, Control_c, 0, 64, 60
1, 316562, Control_c, 0, 64, 62
1, 316577, Control_c, 0, 64, 65
1, 316592, Control_c, 0, 64, 69
1, 316607, Control_c, 0, 64, 75
1, 316622, Control_c, 0, 64, 87
1, 316637, Control_c, 0, 64, 115
1, 316651, Control_c, 0, 64, 127
1, 316670, Note_on_c, 0, 69, 73
1, 316693, Note_off_c, 0, 50, 58
1, 316717, Note_off_c, 0, 65, 54
1, 316751, Note_off_c, 0, 53, 52
1, 316794, Note_on_c, 0, 70, 85
1, 316832, Note_off_c, 0, 69, 62
1, 316917, Note_on_c, 0, 74, 82
1, 316922, Note_off_c, 0, 70, 62
1, 317081, Note_on_c, 0, 60, 74
1, 317102, Note_on_c, 0, 75, 76
1, 317134, Note_off_c, 0, 74, 60
1, 317181, Note_off_c, 0, 58, 60
1, 317276, Note_off_c, 0, 60, 59
1, 317279, Note_on_c, 0, 79, 71
1, 317290, Note_off_c, 0, 75, 57
1, 317325, Control_c, 0, 64, 123
1, 317333, Note_on_c, 0, 48, 42
1, 317340, Control_c, 0, 64, 118
1, 317355, Control_c, 0, 64, 115
1, 317370, Control_c, 0, 64, 112
1, 317385, Control_c, 0, 64, 110
1, 317400, Control_c, 0, 64, 107
1, 317415, Control_c, 0, 64, 100
1, 317415, Note_on_c, 0, 55, 41
1, 317429, Control_c, 0, 64, 90
1, 317435, Note_off_c, 0, 79, 60
1, 317444, Control_c, 0, 64, 76
1, 317459, Control_c, 0, 64, 64
1, 317459, Note_on_c, 0, 77, 55
1, 317471, Note_on_c, 0, 62, 65
1, 317473, Control_c, 0, 64, 48
1, 317488, Control_c, 0, 64, 41
1, 317503, Control_c, 0, 64, 47
1, 317518, Control_c, 0, 64, 53
1, 317533, Control_c, 0, 64, 58
1, 317547, Control_c, 0, 64, 63
1, 317562, Control_c, 0, 64, 66
1, 317577, Control_c, 0, 64, 71
1, 317592, Control_c, 0, 64, 83
1, 317607, Control_c, 0, 64, 104
1, 317612, Note_on_c, 0, 74, 60
1, 317614, Note_off_c, 0, 77, 59
1, 317619, Note_off_c, 0, 48, 36
1, 317621, Control_c, 0, 64, 127
1, 317660, Note_off_c, 0, 55, 63
1, 317713, Note_off_c, 0, 74, 62
1, 317733, Note_on_c, 0, 77, 68
1, 317823, Note_off_c, 0, 62, 56
1, 317837, Note_on_c, 0, 75, 76
1, 317842, Note_off_c, 0, 77, 61
1, 317943, Note_off_c, 0, 75, 63
1, 317949, Note_on_c, 0, 60, 41
1, 317978, Note_off_c, 0, 60, 53
1, 317978, Note_on_c, 0, 63, 65
1, 317979, Note_on_c, 0, 67, 3
1, 318016, Note_off_c, 0, 67, 34
1, 318050, Note_off_c, 0, 63, 60
1, 318097, Note_on_c, 0, 74, 60
1, 318106, Note_on_c, 0, 70, 61
1, 318168, Note_on_c, 0, 41, 48
1, 318208, Note_off_c, 0, 70, 62
1, 318208, Control_c, 0, 64, 95
1, 318222, Control_c, 0, 64, 73
1, 318234, Note_on_c, 0, 72, 60
1, 318234, Note_off_c, 0, 74, 59
1, 318236, Note_on_c, 0, 69, 57
1, 318237, Control_c, 0, 64, 54
1, 318252, Control_c, 0, 64, 39
1, 318255, Note_off_c, 0, 41, 53
1, 318267, Control_c, 0, 64, 46
1, 318267, Note_on_c, 0, 51, 53
1, 318282, Control_c, 0, 64, 54
1, 318296, Control_c, 0, 64, 60
1, 318311, Control_c, 0, 64, 64
1, 318320, Note_off_c, 0, 51, 63
1, 318326, Control_c, 0, 64, 69
1, 318341, Control_c, 0, 64, 79
1, 318346, Note_off_c, 0, 69, 64
1, 318351, Note_on_c, 0, 57, 49
1, 318351, Note_off_c, 0, 72, 64
1, 318356, Control_c, 0, 64, 97
1, 318360, Note_on_c, 0, 67, 66
1, 318370, Control_c, 0, 64, 127
1, 318382, Note_off_c, 0, 57, 64
1, 318429, Note_off_c, 0, 67, 60
1, 318476, Note_on_c, 0, 66, 66
1, 318557, Note_off_c, 0, 66, 63
1, 318587, Note_on_c, 0, 65, 58
1, 318587, Note_on_c, 0, 77, 68
1, 318608, Control_c, 0, 64, 110
1, 318623, Control_c, 0, 64, 95
1, 318638, Control_c, 0, 64, 80
1, 318653, Control_c, 0, 64, 68
1, 318667, Control_c, 0, 64, 56
1, 318681, Note_on_c, 0, 53, 44
1, 318690, Control_c, 0, 64, 45
1, 318705, Control_c, 0, 64, 47
1, 318711, Note_on_c, 0, 72, 64
1, 318714, Note_on_c, 0, 64, 43
1, 318719, Control_c, 0, 64, 54
1, 318725, Note_on_c, 0, 57, 20
1, 318727, Note_off_c, 0, 65, 36
1, 318734, Control_c, 0, 64, 59
1, 318749, Control_c, 0, 64, 63
1, 318755, Note_off_c, 0, 77, 55
1, 318764, Control_c, 0, 64, 66
1, 318779, Control_c, 0, 64, 70
1, 318789, Note_off_c, 0, 53, 52
1, 318793, Control_c, 0, 64, 77
1, 318802, Note_off_c, 0, 64, 64
1, 318808, Control_c, 0, 64, 89
1, 318814, Note_off_c, 0, 57, 60
1, 318821, Note_on_c, 0, 63, 44
1, 318823, Control_c, 0, 64, 107
1, 318838, Control_c, 0, 64, 127
1, 318848, Note_off_c, 0, 63, 55
1, 318897, Control_c, 0, 64, 92
1, 318912, Control_c, 0, 64, 69
1, 318916, Note_on_c, 0, 46, 54
1, 318926, Control_c, 0, 64, 48
1, 318935, Note_off_c, 0, 72, 58
1, 318941, Control_c, 0, 64, 35
1, 318951, Note_off_c, 0, 46, 64
1, 318956, Control_c, 0, 64, 50
1, 318972, Control_c, 0, 64, 60
1, 318979, Note_on_c, 0, 53, 43
1, 318987, Control_c, 0, 64, 67
1, 318988, Note_on_c, 0, 70, 51
1, 319001, Control_c, 0, 64, 76
1, 319007, Note_on_c, 0, 62, 58
1, 319016, Control_c, 0, 64, 93
1, 319027, Note_off_c, 0, 53, 60
1, 319031, Control_c, 0, 64, 127
1, 319037, Note_off_c, 0, 62, 64
1, 319078, Note_off_c, 0, 70, 50
1, 319116, Note_on_c, 0, 76, 55
1, 319149, Note_off_c, 0, 76, 66
1, 319164, Control_c, 0, 64, 119
1, 319179, Control_c, 0, 64, 107
1, 319194, Control_c, 0, 64, 100
1, 319209, Control_c, 0, 64, 95
1, 319224, Control_c, 0, 64, 92
1, 319238, Control_c, 0, 64, 90
1, 319247, Note_on_c, 0, 77, 72
1, 319253, Control_c, 0, 64, 88
1, 319268, Control_c, 0, 64, 84
1, 319283, Control_c, 0, 64, 80
1, 319286, Note_off_c, 0, 77, 60
1, 319298, Control_c, 0, 64, 76
1, 319312, Control_c, 0, 64, 72
1, 319327, Control_c, 0, 64, 69
1, 319342, Control_c, 0, 64, 66
1, 319356, Note_on_c, 0, 53, 36
1, 319357, Control_c, 0, 64, 64
1, 319372, Control_c, 0, 64, 63
1, 319388, Note_on_c, 0, 81, 74
1, 319388, Control_c, 0, 64, 62
1, 319390, Note_off_c, 0, 53, 50
1, 319403, Control_c, 0, 64, 61
1, 319409, Note_on_c, 0, 62, 50
1, 319417, Control_c, 0, 64, 59
1, 319427, Note_off_c, 0, 81, 63
1, 319439, Control_c, 0, 64, 57
1, 319454, Control_c, 0, 64, 54
1, 319459, Note_off_c, 0, 62, 65
1, 319469, Control_c, 0, 64, 51
1, 319484, Control_c, 0, 64, 50
1, 319498, Control_c, 0, 64, 48
1, 319500, Note_on_c, 0, 70, 49
1, 319513, Control_c, 0, 64, 47
1, 319527, Note_on_c, 0, 82, 72
1, 319527, Note_off_c, 0, 70, 58
1, 319528, Control_c, 0, 64, 46
1, 319543, Control_c, 0, 64, 44
1, 319554, Note_off_c, 0, 82, 65
1, 319558, Control_c, 0, 64, 43
1, 319573, Control_c, 0, 64, 42
1, 319588, Control_c, 0, 64, 42
1, 319603, Control_c, 0, 64, 41
1, 319617, Control_c, 0, 64, 40
1, 319647, Control_c, 0, 64, 40
1, 319661, Control_c, 0, 64, 39
1, 319676, Control_c, 0, 64, 38
1, 319691, Control_c, 0, 64, 37
1, 319706, Control_c, 0, 64, 36
1, 319710, Note_on_c, 0, 89, 62
1, 319721, Control_c, 0, 64, 34
1, 319735, Control_c, 0, 64, 33
1, 319750, Control_c, 0, 64, 32
1, 319753, Note_on_c, 0, 58, 38
1, 319766, Note_off_c, 0, 89, 60
1, 319809, Control_c, 0, 64, 33
1, 319824, Control_c, 0, 64, 40
1, 319839, Control_c, 0, 64, 49
1, 319854, Control_c, 0, 64, 57
1, 319857, Note_on_c, 0, 65, 38
1, 319865, Note_off_c, 0, 58, 61
1, 319868, Control_c, 0, 64, 62
1, 319883, Control_c, 0, 64, 65
1, 319898, Control_c, 0, 64, 69
1, 319913, Control_c, 0, 64, 77
1, 319928, Control_c, 0, 64, 87
1, 319942, Control_c, 0, 64, 100
1, 319957, Control_c, 0, 64, 113
1, 319972, Control_c, 0, 64, 117
1, 320002, Control_c, 0, 64, 116
1, 320007, Note_on_c, 0, 74, 31
1, 320007, Note_on_c, 0, 94, 56
1, 320017, Control_c, 0, 64, 114
1, 320021, Note_on_c, 0, 82, 27
1, 320032, Control_c, 0, 64, 113
1, 320047, Control_c, 0, 64, 111
1, 320061, Control_c, 0, 64, 108
1, 320076, Control_c, 0, 64, 107
1, 320088, Note_off_c, 0, 65, 37
1, 320091, Control_c, 0, 64, 104
1, 320100, Note_off_c, 0, 74, 48
1, 320106, Control_c, 0, 64, 101
1, 320121, Control_c, 0, 64, 99
1, 320124, Note_off_c, 0, 94, 53
1, 320128, Note_off_c, 0, 82, 34
1, 320135, Control_c, 0, 64, 97
1, 320150, Control_c, 0, 64, 95
1, 320165, Control_c, 0, 64, 93
1, 320188, Control_c, 0, 64, 91
1, 320203, Control_c, 0, 64, 89
1, 320218, Control_c, 0, 64, 87
1, 320233, Control_c, 0, 64, 85
1, 320247, Control_c, 0, 64, 83
1, 320262, Control_c, 0, 64, 82
1, 320277, Control_c, 0, 64, 82
1, 320291, Control_c, 0, 64, 81
1, 320306, Control_c, 0, 64, 80
1, 320321, Control_c, 0, 64, 79
1, 320336, Control_c, 0, 64, 78
1, 320351, Control_c, 0, 64, 77
1, 320366, Control_c, 0, 64, 76
1, 320381, Control_c, 0, 64, 75
1, 320396, Control_c, 0, 64, 74
1, 320410, Control_c, 0, 64, 73
1, 320425, Control_c, 0, 64, 71
1, 320440, Control_c, 0, 64, 70
1, 320455, Control_c, 0, 64, 69
1, 320482, Control_c, 0, 64, 69
1, 320497, Control_c, 0, 64, 68
1, 320512, Control_c, 0, 64, 68
1, 320527, Control_c, 0, 64, 67
1, 320542, Control_c, 0, 64, 66
1, 320556, Control_c, 0, 64, 66
1, 320571, Control_c, 0, 64, 65
1, 320601, Control_c, 0, 64, 65
1, 320616, Control_c, 0, 64, 64
1, 320631, Control_c, 0, 64, 64
1, 320646, Control_c, 0, 64, 63
1, 320661, Control_c, 0, 64, 63
1, 320690, Control_c, 0, 64, 62
1, 320705, Control_c, 0, 64, 62
1, 320720, Control_c, 0, 64, 61
1, 320735, Control_c, 0, 64, 60
1, 320764, Control_c, 0, 64, 60
1, 320794, Control_c, 0, 64, 59
1, 320809, Control_c, 0, 64, 59
1, 320824, Control_c, 0, 64, 58
1, 320838, Control_c, 0, 64, 57
1, 320853, Control_c, 0, 64, 54
1, 320868, Control_c, 0, 64, 51
1, 320882, Control_c, 0, 64, 48
1, 320897, Control_c, 0, 64, 44
1, 320912, Control_c, 0, 64, 41
1, 320927, Control_c, 0, 64, 39
1, 320979, Control_c, 0, 64, 40
1, 320995, Control_c, 0, 64, 43
1, 321010, Control_c, 0, 64, 46
1, 321024, Control_c, 0, 64, 49
1, 321039, Control_c, 0, 64, 53
1, 321054, Control_c, 0, 64, 56
1, 321069, Control_c, 0, 64, 57
1, 321084, Control_c, 0, 64, 59
1, 321099, Control_c, 0, 64, 60
1, 321113, Control_c, 0, 64, 61
1, 321128, Control_c, 0, 64, 63
1, 321143, Control_c, 0, 64, 63
1, 321158, Control_c, 0, 64, 64
1, 321173, Control_c, 0, 64, 65
1, 321187, Control_c, 0, 64, 66
1, 321202, Control_c, 0, 64, 66
1, 321217, Control_c, 0, 64, 67
1, 321232, Control_c, 0, 64, 69
1, 321247, Control_c, 0, 64, 70
1, 321261, Control_c, 0, 64, 72
1, 321276, Control_c, 0, 64, 73
1, 321291, Control_c, 0, 64, 75
1, 321306, Control_c, 0, 64, 77
1, 321320, Control_c, 0, 64, 78
1, 321335, Control_c, 0, 64, 79
1, 321350, Control_c, 0, 64, 81
1, 321365, Control_c, 0, 64, 83
1, 321379, Control_c, 0, 64, 86
1, 321394, Control_c, 0, 64, 88
1, 321409, Control_c, 0, 64, 90
1, 321424, Control_c, 0, 64, 92
1, 321439, Control_c, 0, 64, 94
1, 321454, Control_c, 0, 64, 99
1, 321469, Control_c, 0, 64, 104
1, 321484, Control_c, 0, 64, 111
1, 321498, Control_c, 0, 64, 127
1, 321839, Note_on_c, 0, 54, 35
1, 321844, Note_on_c, 0, 42, 35
1, 322131, Note_off_c, 0, 42, 42
1, 322193, Note_off_c, 0, 54, 41
1, 322746, Note_on_c, 0, 70, 28
1, 322752, Note_on_c, 0, 68, 32
1, 323135, Note_on_c, 0, 73, 42
1, 323254, Note_on_c, 0, 66, 24
1, 323344, Note_off_c, 0, 73, 57
1, 323368, Note_on_c, 0, 82, 59
1, 323368, Note_off_c, 0, 68, 34
1, 323436, Note_off_c, 0, 70, 37
1, 323615, Note_on_c, 0, 80, 64
1, 323633, Note_on_c, 0, 65, 33
1, 323666, Note_off_c, 0, 82, 47
1, 323797, Note_off_c, 0, 66, 33
1, 323853, Note_on_c, 0, 78, 78
1, 323897, Note_off_c, 0, 80, 60
1, 324010, Note_on_c, 0, 63, 36
1, 324095, Note_on_c, 0, 82, 83
1, 324095, Note_off_c, 0, 65, 38
1, 324138, Note_off_c, 0, 78, 59
1, 324274, Note_off_c, 0, 63, 26
1, 324331, Note_off_c, 0, 82, 55
1, 324403, Note_on_c, 0, 61, 32
1, 324419, Note_on_c, 0, 70, 32
1, 324444, Note_on_c, 0, 85, 83
1, 324450, Control_c, 0, 64, 116
1, 324464, Control_c, 0, 64, 111
1, 324479, Note_on_c, 0, 73, 46
1, 324479, Control_c, 0, 64, 105
1, 324494, Control_c, 0, 64, 100
1, 324509, Control_c, 0, 64, 96
1, 324524, Control_c, 0, 64, 92
1, 324538, Control_c, 0, 64, 89
1, 324553, Control_c, 0, 64, 86
1, 324568, Control_c, 0, 64, 83
1, 324583, Control_c, 0, 64, 81
1, 324598, Control_c, 0, 64, 79
1, 324612, Control_c, 0, 64, 77
1, 324627, Control_c, 0, 64, 75
1, 324642, Control_c, 0, 64, 73
1, 324657, Control_c, 0, 64, 71
1, 324672, Control_c, 0, 64, 70
1, 324694, Control_c, 0, 64, 68
1, 324709, Control_c, 0, 64, 67
1, 324724, Control_c, 0, 64, 66
1, 324738, Control_c, 0, 64, 65
1, 324753, Control_c, 0, 64, 64
1, 324768, Control_c, 0, 64, 64
1, 324783, Control_c, 0, 64, 63
1, 324798, Control_c, 0, 64, 63
1, 324812, Control_c, 0, 64, 62
1, 324822, Note_on_c, 0, 68, 45
1, 324827, Control_c, 0, 64, 62
1, 324842, Control_c, 0, 64, 61
1, 324857, Control_c, 0, 64, 60
1, 324872, Control_c, 0, 64, 59
1, 324886, Control_c, 0, 64, 58
1, 324901, Control_c, 0, 64, 56
1, 324916, Control_c, 0, 64, 55
1, 324930, Control_c, 0, 64, 53
1, 324945, Control_c, 0, 64, 52
1, 324960, Control_c, 0, 64, 52
1, 324993, Note_off_c, 0, 70, 41
1, 325021, Control_c, 0, 64, 53
1, 325035, Control_c, 0, 64, 54
1, 325050, Control_c, 0, 64, 56
1, 325065, Control_c, 0, 64, 59
1, 325080, Control_c, 0, 64, 61
1, 325095, Control_c, 0, 64, 63
1, 325109, Control_c, 0, 64, 65
1, 325124, Control_c, 0, 64, 67
1, 325138, Note_on_c, 0, 66, 48
1, 325139, Control_c, 0, 64, 71
1, 325153, Control_c, 0, 64, 78
1, 325168, Control_c, 0, 64, 87
1, 325183, Control_c, 0, 64, 99
1, 325198, Control_c, 0, 64, 114
1, 325213, Control_c, 0, 64, 127
1, 325222, Note_off_c, 0, 85, 37
1, 325300, Note_off_c, 0, 68, 55
1, 325481, Note_on_c, 0, 65, 57
1, 325550, Note_off_c, 0, 61, 25
1, 325606, Note_off_c, 0, 66, 59
1, 325833, Note_on_c, 0, 63, 52
1, 325853, Note_on_c, 0, 78, 58
1, 326016, Note_off_c, 0, 65, 36
1, 326021, Control_c, 0, 64, 123
1, 326036, Control_c, 0, 64, 118
1, 326050, Control_c, 0, 64, 114
1, 326061, Note_on_c, 0, 77, 75
1, 326065, Control_c, 0, 64, 111
1, 326080, Control_c, 0, 64, 108
1, 326095, Control_c, 0, 64, 107
1, 326110, Control_c, 0, 64, 105
1, 326125, Control_c, 0, 64, 104
1, 326125, Note_off_c, 0, 78, 55
1, 326140, Control_c, 0, 64, 103
1, 326155, Control_c, 0, 64, 102
1, 326191, Control_c, 0, 64, 101
1, 326196, Note_on_c, 0, 58, 42
1, 326206, Control_c, 0, 64, 101
1, 326221, Control_c, 0, 64, 100
1, 326250, Control_c, 0, 64, 100
1, 326265, Control_c, 0, 64, 99
1, 326280, Control_c, 0, 64, 99
1, 326285, Note_off_c, 0, 63, 34
1, 326295, Control_c, 0, 64, 98
1, 326304, Note_on_c, 0, 78, 76
1, 326339, Note_off_c, 0, 58, 60
1, 326339, Control_c, 0, 64, 97
1, 326354, Control_c, 0, 64, 96
1, 326366, Note_off_c, 0, 73, 39
1, 326384, Control_c, 0, 64, 96
1, 326399, Control_c, 0, 64, 95
1, 326429, Control_c, 0, 64, 95
1, 326444, Control_c, 0, 64, 94
1, 326459, Control_c, 0, 64, 94
1, 326474, Control_c, 0, 64, 93
1, 326488, Control_c, 0, 64, 92
1, 326494, Note_off_c, 0, 77, 31
1, 326503, Control_c, 0, 64, 91
1, 326518, Control_c, 0, 64, 91
1, 326533, Control_c, 0, 64, 89
1, 326548, Control_c, 0, 64, 88
1, 326563, Control_c, 0, 64, 87
1, 326578, Control_c, 0, 64, 86
1, 326586, Note_on_c, 0, 56, 32
1, 326590, Note_on_c, 0, 72, 42
1, 326593, Control_c, 0, 64, 85
1, 326608, Control_c, 0, 64, 84
1, 326623, Control_c, 0, 64, 82
1, 326638, Control_c, 0, 64, 81
1, 326652, Control_c, 0, 64, 78
1, 326667, Control_c, 0, 64, 76
1, 326682, Control_c, 0, 64, 74
1, 326697, Control_c, 0, 64, 73
1, 326712, Control_c, 0, 64, 71
1, 326726, Control_c, 0, 64, 69
1, 326741, Control_c, 0, 64, 66
1, 326756, Control_c, 0, 64, 63
1, 326771, Control_c, 0, 64, 59
1, 326786, Control_c, 0, 64, 56
1, 326800, Control_c, 0, 64, 55
1, 326830, Control_c, 0, 64, 56
1, 326845, Control_c, 0, 64, 57
1, 326860, Control_c, 0, 64, 59
1, 326874, Control_c, 0, 64, 61
1, 326889, Control_c, 0, 64, 62
1, 326891, Note_on_c, 0, 80, 59
1, 326904, Control_c, 0, 64, 64
1, 326919, Control_c, 0, 64, 66
1, 326941, Note_off_c, 0, 78, 59
1, 326941, Control_c, 0, 64, 70
1, 326956, Control_c, 0, 64, 76
1, 326971, Control_c, 0, 64, 84
1, 326986, Control_c, 0, 64, 93
1, 327000, Control_c, 0, 64, 104
1, 327015, Control_c, 0, 64, 110
1, 327030, Control_c, 0, 64, 113
1, 327067, Note_on_c, 0, 44, 32
1, 327129, Note_on_c, 0, 77, 58
1, 327133, Control_c, 0, 64, 112
1, 327147, Note_off_c, 0, 80, 53
1, 327148, Control_c, 0, 64, 111
1, 327163, Control_c, 0, 64, 110
1, 327178, Control_c, 0, 64, 108
1, 327193, Control_c, 0, 64, 107
1, 327207, Control_c, 0, 64, 105
1, 327222, Control_c, 0, 64, 104
1, 327237, Control_c, 0, 64, 102
1, 327252, Control_c, 0, 64, 101
1, 327267, Control_c, 0, 64, 100
1, 327281, Control_c, 0, 64, 99
1, 327296, Control_c, 0, 64, 98
1, 327311, Control_c, 0, 64, 97
1, 327325, Control_c, 0, 64, 95
1, 327340, Control_c, 0, 64, 94
1, 327355, Control_c, 0, 64, 93
1, 327370, Control_c, 0, 64, 91
1, 327386, Control_c, 0, 64, 89
1, 327401, Control_c, 0, 64, 88
1, 327416, Control_c, 0, 64, 87
1, 327430, Note_on_c, 0, 49, 33
1, 327430, Control_c, 0, 64, 86
1, 327445, Note_on_c, 0, 73, 52
1, 327445, Control_c, 0, 64, 85
1, 327460, Control_c, 0, 64, 84
1, 327473, Note_on_c, 0, 70, 31
1, 327475, Control_c, 0, 64, 82
1, 327490, Control_c, 0, 64, 81
1, 327504, Control_c, 0, 64, 79
1, 327519, Control_c, 0, 64, 78
1, 327534, Control_c, 0, 64, 76
1, 327548, Control_c, 0, 64, 75
1, 327560, Note_off_c, 0, 44, 34
1, 327563, Control_c, 0, 64, 74
1, 327568, Note_off_c, 0, 56, 27
1, 327569, Note_off_c, 0, 72, 39
1, 327571, Note_off_c, 0, 77, 45
1, 327578, Control_c, 0, 64, 73
1, 327593, Control_c, 0, 64, 71
1, 327608, Control_c, 0, 64, 69
1, 327622, Control_c, 0, 64, 65
1, 327637, Control_c, 0, 64, 61
1, 327652, Control_c, 0, 64, 56
1, 327667, Control_c, 0, 64, 56
1, 327690, Control_c, 0, 64, 56
1, 327704, Control_c, 0, 64, 57
1, 327719, Control_c, 0, 64, 59
1, 327734, Control_c, 0, 64, 61
1, 327749, Control_c, 0, 64, 63
1, 327763, Control_c, 0, 64, 65
1, 327778, Control_c, 0, 64, 67
1, 327793, Control_c, 0, 64, 71
1, 327808, Control_c, 0, 64, 76
1, 327823, Control_c, 0, 64, 81
1, 327824, Note_on_c, 0, 68, 49
1, 327837, Control_c, 0, 64, 89
1, 327852, Control_c, 0, 64, 96
1, 327867, Control_c, 0, 64, 103
1, 327882, Control_c, 0, 64, 110
1, 327897, Control_c, 0, 64, 118
1, 327911, Control_c, 0, 64, 127
1, 327934, Note_off_c, 0, 70, 42
1, 328074, Control_c, 0, 64, 123
1, 328089, Control_c, 0, 64, 119
1, 328104, Control_c, 0, 64, 116
1, 328119, Control_c, 0, 64, 113
1, 328134, Control_c, 0, 64, 110
1, 328148, Control_c, 0, 64, 107
1, 328163, Note_on_c, 0, 51, 53
1, 328163, Control_c, 0, 64, 104
1, 328179, Note_on_c, 0, 66, 42
1, 328179, Control_c, 0, 64, 102
1, 328194, Control_c, 0, 64, 99
1, 328208, Control_c, 0, 64, 96
1, 328223, Control_c, 0, 64, 94
1, 328238, Control_c, 0, 64, 91
1, 328253, Control_c, 0, 64, 88
1, 328268, Control_c, 0, 64, 86
1, 328283, Control_c, 0, 64, 84
1, 328298, Control_c, 0, 64, 82
1, 328313, Control_c, 0, 64, 81
1, 328327, Control_c, 0, 64, 79
1, 328342, Control_c, 0, 64, 78
1, 328357, Control_c, 0, 64, 77
1, 328371, Control_c, 0, 64, 76
1, 328383, Note_off_c, 0, 68, 31
1, 328386, Control_c, 0, 64, 74
1, 328401, Control_c, 0, 64, 73
1, 328416, Control_c, 0, 64, 72
1, 328438, Control_c, 0, 64, 71
1, 328450, Note_off_c, 0, 49, 31
1, 328453, Control_c, 0, 64, 70
1, 328468, Control_c, 0, 64, 68
1, 328483, Control_c, 0, 64, 66
1, 328498, Control_c, 0, 64, 62
1, 328513, Control_c, 0, 64, 59
1, 328527, Control_c, 0, 64, 58
1, 328557, Control_c, 0, 64, 58
1, 328572, Control_c, 0, 64, 59
1, 328586, Control_c, 0, 64, 59
1, 328601, Control_c, 0, 64, 60
1, 328611, Note_on_c, 0, 68, 51
1, 328616, Control_c, 0, 64, 62
1, 328631, Control_c, 0, 64, 63
1, 328646, Control_c, 0, 64, 64
1, 328660, Control_c, 0, 64, 66
1, 328675, Control_c, 0, 64, 70
1, 328685, Note_off_c, 0, 66, 58
1, 328690, Control_c, 0, 64, 75
1, 328704, Control_c, 0, 64, 83
1, 328719, Control_c, 0, 64, 93
1, 328734, Control_c, 0, 64, 105
1, 328749, Control_c, 0, 64, 121
1, 328764, Control_c, 0, 64, 127
1, 328870, Note_off_c, 0, 68, 37
1, 328897, Control_c, 0, 64, 123
1, 328912, Control_c, 0, 64, 115
1, 328927, Control_c, 0, 64, 112
1, 328942, Control_c, 0, 64, 110
1, 328957, Control_c, 0, 64, 108
1, 328972, Control_c, 0, 64, 106
1, 328987, Control_c, 0, 64, 104
1, 329001, Control_c, 0, 64, 102
1, 329016, Control_c, 0, 64, 100
1, 329031, Control_c, 0, 64, 97
1, 329046, Control_c, 0, 64, 94
1, 329061, Control_c, 0, 64, 91
1, 329076, Control_c, 0, 64, 86
1, 329091, Control_c, 0, 64, 80
1, 329106, Control_c, 0, 64, 71
1, 329118, Note_on_c, 0, 66, 33
1, 329121, Control_c, 0, 64, 64
1, 329121, Note_on_c, 0, 70, 44
1, 329136, Control_c, 0, 64, 59
1, 329150, Control_c, 0, 64, 60
1, 329163, Note_off_c, 0, 73, 39
1, 329165, Control_c, 0, 64, 62
1, 329187, Control_c, 0, 64, 63
1, 329201, Control_c, 0, 64, 65
1, 329216, Control_c, 0, 64, 68
1, 329231, Control_c, 0, 64, 72
1, 329246, Control_c, 0, 64, 79
1, 329261, Control_c, 0, 64, 89
1, 329276, Control_c, 0, 64, 104
1, 329291, Control_c, 0, 64, 127
1, 329454, Note_off_c, 0, 66, 38
1, 329455, Note_on_c, 0, 73, 60
1, 329472, Note_off_c, 0, 70, 54
1, 329526, Note_off_c, 0, 73, 62
1, 329542, Note_off_c, 0, 51, 40
1, 329618, Note_on_c, 0, 65, 38
1, 329686, Note_on_c, 0, 82, 74
1, 329913, Note_on_c, 0, 80, 78
1, 329925, Note_on_c, 0, 63, 46
1, 329969, Note_off_c, 0, 82, 59
1, 330151, Note_on_c, 0, 78, 87
1, 330214, Note_off_c, 0, 80, 61
1, 330291, Note_on_c, 0, 61, 45
1, 330366, Note_on_c, 0, 82, 93
1, 330395, Note_off_c, 0, 78, 62
1, 330419, Note_off_c, 0, 65, 38
1, 330464, Note_off_c, 0, 82, 63
1, 330466, Note_off_c, 0, 63, 38
1, 330538, Note_off_c, 0, 61, 32
1, 330669, Note_on_c, 0, 60, 39
1, 330689, Note_on_c, 0, 87, 86
1, 330717, Note_on_c, 0, 82, 56
1, 330773, Control_c, 0, 64, 116
1, 330788, Control_c, 0, 64, 108
1, 330803, Control_c, 0, 64, 101
1, 330818, Control_c, 0, 64, 96
1, 330833, Control_c, 0, 64, 92
1, 330847, Control_c, 0, 64, 90
1, 330862, Control_c, 0, 64, 88
1, 330877, Control_c, 0, 64, 86
1, 330892, Control_c, 0, 64, 84
1, 330907, Control_c, 0, 64, 81
1, 330921, Control_c, 0, 64, 78
1, 330936, Control_c, 0, 64, 74
1, 330951, Control_c, 0, 64, 69
1, 330966, Control_c, 0, 64, 63
1, 330981, Control_c, 0, 64, 57
1, 330996, Control_c, 0, 64, 54
1, 331055, Control_c, 0, 64, 55
1, 331069, Note_on_c, 0, 80, 59
1, 331070, Control_c, 0, 64, 57
1, 331085, Control_c, 0, 64, 60
1, 331100, Control_c, 0, 64, 62
1, 331115, Control_c, 0, 64, 64
1, 331129, Control_c, 0, 64, 66
1, 331135, Note_off_c, 0, 82, 57
1, 331144, Control_c, 0, 64, 69
1, 331159, Control_c, 0, 64, 74
1, 331173, Control_c, 0, 64, 83
1, 331188, Control_c, 0, 64, 99
1, 331203, Control_c, 0, 64, 127
1, 331371, Note_on_c, 0, 82, 80
1, 331387, Note_on_c, 0, 78, 62
1, 331407, Note_off_c, 0, 80, 60
1, 331467, Note_off_c, 0, 78, 50
1, 331642, Note_off_c, 0, 87, 37
1, 331684, Note_on_c, 0, 77, 70
1, 331798, Note_off_c, 0, 77, 56
1, 331977, Note_on_c, 0, 75, 60
1, 331988, Note_off_c, 0, 82, 57
1, 332082, Poly_aftertouch_c, 0, 62, 127
1, 332191, Note_on_c, 0, 84, 67
1, 332331, Note_off_c, 0, 75, 36
1, 332341, Note_on_c, 0, 70, 42
1, 332405, Note_on_c, 0, 85, 86
1, 332444, Note_off_c, 0, 84, 63
1, 332543, Poly_aftertouch_c, 0, 62, 0
1, 332677, Note_on_c, 0, 65, 38
1, 332685, Control_c, 0, 64, 115
1, 332697, Note_on_c, 0, 69, 37
1, 332700, Note_on_c, 0, 87, 78
1, 332700, Control_c, 0, 64, 108
1, 332715, Control_c, 0, 64, 102
1, 332730, Control_c, 0, 64, 97
1, 332735, Note_on_c, 0, 78, 48
1, 332736, Note_off_c, 0, 70, 33
1, 332744, Control_c, 0, 64, 92
1, 332759, Control_c, 0, 64, 88
1, 332774, Control_c, 0, 64, 85
1, 332781, Note_off_c, 0, 85, 57
1, 332784, Note_off_c, 0, 60, 40
1, 332789, Control_c, 0, 64, 82
1, 332804, Control_c, 0, 64, 79
1, 332818, Control_c, 0, 64, 77
1, 332833, Control_c, 0, 64, 73
1, 332848, Control_c, 0, 64, 67
1, 332863, Control_c, 0, 64, 59
1, 332878, Control_c, 0, 64, 47
1, 332892, Control_c, 0, 64, 40
1, 332930, Control_c, 0, 64, 43
1, 332944, Control_c, 0, 64, 49
1, 332959, Control_c, 0, 64, 57
1, 332975, Control_c, 0, 64, 61
1, 332990, Control_c, 0, 64, 65
1, 333005, Control_c, 0, 64, 68
1, 333020, Control_c, 0, 64, 74
1, 333021, Note_on_c, 0, 89, 71
1, 333035, Control_c, 0, 64, 85
1, 333049, Control_c, 0, 64, 112
1, 333064, Control_c, 0, 64, 127
1, 333076, Note_off_c, 0, 78, 31
1, 333085, Note_off_c, 0, 87, 59
1, 333139, Note_off_c, 0, 69, 35
1, 333204, Note_on_c, 0, 77, 38
1, 333309, Note_on_c, 0, 85, 66
1, 333351, Note_off_c, 0, 89, 60
1, 333427, Note_off_c, 0, 85, 60
1, 333620, Note_on_c, 0, 58, 34
1, 333644, Note_on_c, 0, 70, 25
1, 333649, Note_on_c, 0, 82, 58
1, 333693, Note_on_c, 0, 75, 37
1, 333790, Note_off_c, 0, 77, 41
1, 333797, Control_c, 0, 64, 112
1, 333812, Control_c, 0, 64, 106
1, 333827, Control_c, 0, 64, 101
1, 333842, Control_c, 0, 64, 97
1, 333857, Control_c, 0, 64, 93
1, 333871, Control_c, 0, 64, 89
1, 333886, Control_c, 0, 64, 86
1, 333901, Control_c, 0, 64, 84
1, 333916, Control_c, 0, 64, 82
1, 333931, Control_c, 0, 64, 81
1, 333946, Control_c, 0, 64, 80
1, 333961, Control_c, 0, 64, 78
1, 333976, Control_c, 0, 64, 77
1, 333990, Control_c, 0, 64, 75
1, 334005, Control_c, 0, 64, 75
1, 334020, Control_c, 0, 64, 74
1, 334035, Control_c, 0, 64, 73
1, 334037, Note_on_c, 0, 73, 52
1, 334050, Control_c, 0, 64, 73
1, 334064, Control_c, 0, 64, 72
1, 334079, Control_c, 0, 64, 71
1, 334094, Control_c, 0, 64, 71
1, 334109, Control_c, 0, 64, 70
1, 334124, Control_c, 0, 64, 69
1, 334138, Control_c, 0, 64, 69
1, 334153, Control_c, 0, 64, 68
1, 334168, Control_c, 0, 64, 68
1, 334197, Control_c, 0, 64, 67
1, 334209, Note_off_c, 0, 75, 40
1, 334212, Control_c, 0, 64, 67
1, 334242, Control_c, 0, 64, 66
1, 334272, Control_c, 0, 64, 66
1, 334301, Control_c, 0, 64, 65
1, 334331, Control_c, 0, 64, 65
1, 334346, Control_c, 0, 64, 64
1, 334376, Control_c, 0, 64, 64
1, 334405, Control_c, 0, 64, 63
1, 334426, Note_off_c, 0, 70, 40
1, 334427, Control_c, 0, 64, 63
1, 334442, Note_on_c, 0, 72, 45
1, 334442, Control_c, 0, 64, 62
1, 334457, Control_c, 0, 64, 61
1, 334471, Control_c, 0, 64, 60
1, 334486, Control_c, 0, 64, 58
1, 334492, Note_off_c, 0, 73, 50
1, 334501, Control_c, 0, 64, 54
1, 334516, Control_c, 0, 64, 50
1, 334531, Control_c, 0, 64, 48
1, 334546, Control_c, 0, 64, 47
1, 334591, Control_c, 0, 64, 48
1, 334606, Control_c, 0, 64, 51
1, 334620, Control_c, 0, 64, 55
1, 334635, Control_c, 0, 64, 59
1, 334650, Control_c, 0, 64, 63
1, 334664, Note_off_c, 0, 72, 59
1, 334665, Control_c, 0, 64, 66
1, 334680, Control_c, 0, 64, 71
1, 334695, Control_c, 0, 64, 80
1, 334710, Control_c, 0, 64, 93
1, 334725, Control_c, 0, 64, 127
1, 334932, Note_on_c, 0, 70, 33
1, 334987, Note_off_c, 0, 65, 35
1, 335047, Note_off_c, 0, 58, 39
1, 335126, Note_off_c, 0, 70, 41
1, 335191, Control_c, 0, 64, 123
1, 335206, Control_c, 0, 64, 119
1, 335220, Control_c, 0, 64, 117
1, 335235, Control_c, 0, 64, 115
1, 335250, Control_c, 0, 64, 113
1, 335265, Control_c, 0, 64, 112
1, 335280, Control_c, 0, 64, 111
1, 335294, Control_c, 0, 64, 111
1, 335305, Note_off_c, 0, 82, 28
1, 335309, Control_c, 0, 64, 110
1, 335324, Control_c, 0, 64, 108
1, 335339, Control_c, 0, 64, 107
1, 335354, Control_c, 0, 64, 105
1, 335370, Control_c, 0, 64, 103
1, 335384, Control_c, 0, 64, 99
1, 335399, Control_c, 0, 64, 97
1, 335414, Control_c, 0, 64, 95
1, 335429, Control_c, 0, 64, 93
1, 335431, Note_on_c, 0, 54, 38
1, 335443, Control_c, 0, 64, 91
1, 335450, Note_on_c, 0, 70, 33
1, 335454, Note_on_c, 0, 68, 30
1, 335458, Control_c, 0, 64, 86
1, 335473, Control_c, 0, 64, 77
1, 335488, Control_c, 0, 64, 67
1, 335503, Control_c, 0, 64, 59
1, 335518, Control_c, 0, 64, 53
1, 335533, Control_c, 0, 64, 55
1, 335547, Control_c, 0, 64, 59
1, 335562, Control_c, 0, 64, 62
1, 335577, Control_c, 0, 64, 63
1, 335592, Control_c, 0, 64, 65
1, 335607, Control_c, 0, 64, 67
1, 335622, Control_c, 0, 64, 70
1, 335636, Control_c, 0, 64, 76
1, 335651, Control_c, 0, 64, 83
1, 335666, Control_c, 0, 64, 95
1, 335671, Note_off_c, 0, 68, 40
1, 335681, Control_c, 0, 64, 107
1, 335696, Control_c, 0, 64, 127
1, 335774, Note_on_c, 0, 73, 29
1, 335902, Note_on_c, 0, 66, 35
1, 336027, Note_off_c, 0, 73, 42
1, 336029, Note_on_c, 0, 82, 47
1, 336084, Note_off_c, 0, 66, 39
1, 336166, Note_off_c, 0, 70, 36
1, 336257, Note_on_c, 0, 80, 54
1, 336266, Note_on_c, 0, 64, 33
1, 336331, Note_off_c, 0, 82, 36
1, 336445, Control_c, 0, 64, 121
1, 336459, Control_c, 0, 64, 118
1, 336474, Control_c, 0, 64, 116
1, 336489, Control_c, 0, 64, 114
1, 336495, Note_on_c, 0, 78, 69
1, 336504, Control_c, 0, 64, 113
1, 336519, Control_c, 0, 64, 112
1, 336533, Control_c, 0, 64, 111
1, 336548, Control_c, 0, 64, 111
1, 336592, Control_c, 0, 64, 110
1, 336607, Control_c, 0, 64, 110
1, 336622, Control_c, 0, 64, 109
1, 336626, Note_off_c, 0, 80, 52
1, 336637, Control_c, 0, 64, 108
1, 336649, Note_on_c, 0, 63, 29
1, 336652, Control_c, 0, 64, 107
1, 336674, Control_c, 0, 64, 107
1, 336704, Control_c, 0, 64, 106
1, 336719, Control_c, 0, 64, 106
1, 336734, Control_c, 0, 64, 105
1, 336746, Note_on_c, 0, 83, 78
1, 336748, Control_c, 0, 64, 104
1, 336763, Control_c, 0, 64, 104
1, 336778, Control_c, 0, 64, 102
1, 336792, Control_c, 0, 64, 101
1, 336795, Note_off_c, 0, 78, 58
1, 336807, Control_c, 0, 64, 100
1, 336822, Control_c, 0, 64, 99
1, 336837, Control_c, 0, 64, 97
1, 336852, Control_c, 0, 64, 96
1, 336866, Control_c, 0, 64, 95
1, 336881, Control_c, 0, 64, 94
1, 336896, Control_c, 0, 64, 93
1, 336911, Control_c, 0, 64, 92
1, 336926, Control_c, 0, 64, 91
1, 336940, Control_c, 0, 64, 90
1, 336955, Control_c, 0, 64, 88
1, 336971, Control_c, 0, 64, 87
1, 336986, Control_c, 0, 64, 87
1, 337001, Control_c, 0, 64, 86
1, 337015, Control_c, 0, 64, 86
1, 337030, Control_c, 0, 64, 85
1, 337041, Note_on_c, 0, 61, 32
1, 337045, Control_c, 0, 64, 85
1, 337054, Note_on_c, 0, 78, 70
1, 337069, Note_on_c, 0, 71, 37
1, 337075, Control_c, 0, 64, 84
1, 337104, Control_c, 0, 64, 83
1, 337119, Control_c, 0, 64, 83
1, 337134, Control_c, 0, 64, 82
1, 337149, Control_c, 0, 64, 81
1, 337155, Note_off_c, 0, 83, 48
1, 337163, Control_c, 0, 64, 80
1, 337175, Note_off_c, 0, 64, 35
1, 337178, Control_c, 0, 64, 79
1, 337183, Note_off_c, 0, 63, 34
1, 337193, Control_c, 0, 64, 78
1, 337208, Control_c, 0, 64, 76
1, 337223, Control_c, 0, 64, 75
1, 337238, Control_c, 0, 64, 73
1, 337253, Control_c, 0, 64, 73
1, 337267, Control_c, 0, 64, 72
1, 337282, Control_c, 0, 64, 71
1, 337297, Control_c, 0, 64, 71
1, 337312, Control_c, 0, 64, 70
1, 337327, Control_c, 0, 64, 69
1, 337342, Control_c, 0, 64, 68
1, 337356, Control_c, 0, 64, 67
1, 337371, Control_c, 0, 64, 67
1, 337386, Control_c, 0, 64, 66
1, 337422, Control_c, 0, 64, 66
1, 337437, Note_on_c, 0, 70, 54
1, 337437, Control_c, 0, 64, 65
1, 337467, Control_c, 0, 64, 65
1, 337497, Control_c, 0, 64, 64
1, 337527, Control_c, 0, 64, 64
1, 337536, Note_off_c, 0, 71, 36
1, 337557, Control_c, 0, 64, 63
1, 337586, Control_c, 0, 64, 63
1, 337615, Control_c, 0, 64, 62
1, 337630, Control_c, 0, 64, 61
1, 337645, Control_c, 0, 64, 61
1, 337660, Control_c, 0, 64, 60
1, 337675, Control_c, 0, 64, 59
1, 337688, Control_c, 0, 64, 58
1, 337703, Control_c, 0, 64, 57
1, 337718, Control_c, 0, 64, 56
1, 337750, Note_on_c, 0, 68, 56
1, 337779, Control_c, 0, 64, 57
1, 337793, Control_c, 0, 64, 58
1, 337808, Control_c, 0, 64, 59
1, 337823, Control_c, 0, 64, 60
1, 337837, Control_c, 0, 64, 62
1, 337852, Control_c, 0, 64, 65
1, 337867, Control_c, 0, 64, 69
1, 337882, Control_c, 0, 64, 76
1, 337897, Control_c, 0, 64, 91
1, 337911, Control_c, 0, 64, 127
1, 337912, Note_off_c, 0, 70, 27
1, 337963, Note_off_c, 0, 68, 59
1, 338006, Note_off_c, 0, 61, 37
1, 338069, Note_on_c, 0, 66, 69
1, 338281, Note_off_c, 0, 54, 29
1, 338393, Control_c, 0, 64, 115
1, 338395, Note_on_c, 0, 53, 54
1, 338408, Control_c, 0, 64, 110
1, 338423, Control_c, 0, 64, 106
1, 338438, Control_c, 0, 64, 102
1, 338445, Note_on_c, 0, 69, 65
1, 338453, Control_c, 0, 64, 95
1, 338468, Control_c, 0, 64, 87
1, 338483, Control_c, 0, 64, 76
1, 338498, Control_c, 0, 64, 65
1, 338512, Control_c, 0, 64, 53
1, 338527, Control_c, 0, 64, 47
1, 338542, Control_c, 0, 64, 51
1, 338546, Note_off_c, 0, 78, 54
1, 338558, Control_c, 0, 64, 55
1, 338573, Control_c, 0, 64, 59
1, 338588, Control_c, 0, 64, 61
1, 338603, Control_c, 0, 64, 63
1, 338617, Control_c, 0, 64, 66
1, 338632, Control_c, 0, 64, 69
1, 338647, Control_c, 0, 64, 75
1, 338661, Control_c, 0, 64, 82
1, 338676, Control_c, 0, 64, 90
1, 338691, Note_on_c, 0, 72, 69
1, 338691, Control_c, 0, 64, 97
1, 338706, Control_c, 0, 64, 100
1, 338721, Control_c, 0, 64, 101
1, 338750, Note_off_c, 0, 69, 56
1, 338776, Note_off_c, 0, 66, 33
1, 338811, Note_on_c, 0, 65, 46
1, 338824, Control_c, 0, 64, 100
1, 338839, Control_c, 0, 64, 99
1, 338853, Control_c, 0, 64, 99
1, 338868, Control_c, 0, 64, 98
1, 338883, Control_c, 0, 64, 97
1, 338898, Control_c, 0, 64, 96
1, 338919, Note_on_c, 0, 81, 78
1, 338921, Control_c, 0, 64, 95
1, 338935, Control_c, 0, 64, 94
1, 338944, Note_off_c, 0, 72, 59
1, 338950, Control_c, 0, 64, 93
1, 338965, Control_c, 0, 64, 92
1, 338980, Control_c, 0, 64, 91
1, 338995, Control_c, 0, 64, 90
1, 339009, Control_c, 0, 64, 89
1, 339024, Control_c, 0, 64, 88
1, 339039, Control_c, 0, 64, 87
1, 339054, Control_c, 0, 64, 85
1, 339068, Control_c, 0, 64, 84
1, 339083, Control_c, 0, 64, 83
1, 339098, Control_c, 0, 64, 82
1, 339113, Control_c, 0, 64, 81
1, 339119, Note_on_c, 0, 63, 40
1, 339128, Control_c, 0, 64, 81
1, 339142, Control_c, 0, 64, 80
1, 339146, Note_on_c, 0, 79, 79
1, 339157, Control_c, 0, 64, 79
1, 339172, Control_c, 0, 64, 79
1, 339180, Note_off_c, 0, 81, 66
1, 339187, Control_c, 0, 64, 78
1, 339202, Control_c, 0, 64, 77
1, 339217, Control_c, 0, 64, 76
1, 339232, Control_c, 0, 64, 75
1, 339247, Control_c, 0, 64, 75
1, 339261, Control_c, 0, 64, 74
1, 339276, Control_c, 0, 64, 74
1, 339291, Note_off_c, 0, 65, 35
1, 339306, Control_c, 0, 64, 73
1, 339321, Control_c, 0, 64, 73
1, 339335, Control_c, 0, 64, 72
1, 339350, Control_c, 0, 64, 71
1, 339366, Control_c, 0, 64, 70
1, 339381, Control_c, 0, 64, 69
1, 339396, Control_c, 0, 64, 69
1, 339399, Note_on_c, 0, 77, 75
1, 339410, Control_c, 0, 64, 67
1, 339425, Control_c, 0, 64, 65
1, 339440, Control_c, 0, 64, 64
1, 339446, Note_off_c, 0, 79, 63
1, 339455, Control_c, 0, 64, 62
1, 339470, Control_c, 0, 64, 62
1, 339484, Control_c, 0, 64, 61
1, 339499, Control_c, 0, 64, 61
1, 339544, Control_c, 0, 64, 61
1, 339554, Note_on_c, 0, 62, 35
1, 339558, Control_c, 0, 64, 62
1, 339573, Control_c, 0, 64, 64
1, 339588, Control_c, 0, 64, 66
1, 339602, Control_c, 0, 64, 68
1, 339617, Control_c, 0, 64, 72
1, 339625, Note_on_c, 0, 82, 74
1, 339632, Control_c, 0, 64, 78
1, 339647, Control_c, 0, 64, 86
1, 339661, Note_off_c, 0, 77, 61
1, 339670, Control_c, 0, 64, 103
1, 339673, Note_off_c, 0, 63, 32
1, 339684, Control_c, 0, 64, 127
1, 339737, Note_off_c, 0, 82, 64
1, 339921, Control_c, 0, 64, 121
1, 339924, Note_on_c, 0, 60, 38
1, 339936, Control_c, 0, 64, 112
1, 339940, Note_on_c, 0, 77, 66
1, 339950, Control_c, 0, 64, 106
1, 339953, Note_on_c, 0, 70, 44
1, 339965, Control_c, 0, 64, 102
1, 339980, Control_c, 0, 64, 100
1, 339995, Control_c, 0, 64, 97
1, 340010, Control_c, 0, 64, 94
1, 340025, Control_c, 0, 64, 92
1, 340040, Control_c, 0, 64, 90
1, 340055, Control_c, 0, 64, 88
1, 340069, Control_c, 0, 64, 86
1, 340084, Control_c, 0, 64, 85
1, 340099, Control_c, 0, 64, 83
1, 340114, Control_c, 0, 64, 82
1, 340129, Control_c, 0, 64, 81
1, 340144, Control_c, 0, 64, 79
1, 340159, Control_c, 0, 64, 77
1, 340174, Control_c, 0, 64, 76
1, 340189, Control_c, 0, 64, 75
1, 340204, Control_c, 0, 64, 73
1, 340219, Control_c, 0, 64, 72
1, 340233, Control_c, 0, 64, 71
1, 340248, Control_c, 0, 64, 70
1, 340263, Control_c, 0, 64, 70
1, 340278, Control_c, 0, 64, 69
1, 340293, Control_c, 0, 64, 69
1, 340307, Control_c, 0, 64, 68
1, 340337, Control_c, 0, 64, 67
1, 340358, Note_on_c, 0, 69, 53
1, 340381, Control_c, 0, 64, 67
1, 340388, Note_off_c, 0, 62, 25
1, 340396, Control_c, 0, 64, 66
1, 340418, Control_c, 0, 64, 66
1, 340448, Control_c, 0, 64, 65
1, 340463, Control_c, 0, 64, 65
1, 340507, Control_c, 0, 64, 64
1, 340522, Control_c, 0, 64, 64
1, 340545, Note_off_c, 0, 70, 55
1, 340552, Control_c, 0, 64, 63
1, 340596, Control_c, 0, 64, 63
1, 340655, Control_c, 0, 64, 62
1, 340729, Control_c, 0, 64, 62
1, 340798, Note_on_c, 0, 75, 49
1, 340799, Note_on_c, 0, 59, 33
1, 340833, Control_c, 0, 64, 61
1, 340907, Control_c, 0, 64, 61
1, 340967, Control_c, 0, 64, 60
1, 341016, Note_off_c, 0, 77, 29
1, 341056, Control_c, 0, 64, 60
1, 341078, Note_off_c, 0, 60, 34
1, 341101, Control_c, 0, 64, 59
1, 341145, Control_c, 0, 64, 59
1, 341182, Control_c, 0, 64, 58
1, 341197, Control_c, 0, 64, 58
1, 341226, Control_c, 0, 64, 57
1, 341256, Control_c, 0, 64, 57
1, 341271, Control_c, 0, 64, 56
1, 341286, Control_c, 0, 64, 56
1, 341301, Control_c, 0, 64, 55
1, 341315, Control_c, 0, 64, 55
1, 341330, Control_c, 0, 64, 54
1, 341345, Control_c, 0, 64, 53
1, 341360, Control_c, 0, 64, 53
1, 341375, Control_c, 0, 64, 52
1, 341380, Note_on_c, 0, 73, 38
1, 341390, Note_on_c, 0, 68, 34
1, 341390, Control_c, 0, 64, 51
1, 341404, Control_c, 0, 64, 50
1, 341419, Control_c, 0, 64, 48
1, 341433, Control_c, 0, 64, 48
1, 341477, Control_c, 0, 64, 47
1, 341482, Note_off_c, 0, 75, 52
1, 341492, Control_c, 0, 64, 47
1, 341521, Note_off_c, 0, 69, 37
1, 341536, Control_c, 0, 64, 47
1, 341551, Control_c, 0, 64, 50
1, 341566, Control_c, 0, 64, 55
1, 341581, Control_c, 0, 64, 60
1, 341596, Control_c, 0, 64, 64
1, 341611, Control_c, 0, 64, 68
1, 341626, Control_c, 0, 64, 78
1, 341628, Note_off_c, 0, 53, 59
1, 341640, Control_c, 0, 64, 90
1, 341655, Control_c, 0, 64, 111
1, 341670, Control_c, 0, 64, 127
1, 341718, Note_off_c, 0, 73, 37
1, 341780, Note_off_c, 0, 68, 39
1, 341959, Control_c, 0, 64, 119
1, 341974, Control_c, 0, 64, 114
1, 341989, Control_c, 0, 64, 111
1, 342004, Control_c, 0, 64, 107
1, 342019, Control_c, 0, 64, 104
1, 342027, Note_on_c, 0, 54, 36
1, 342034, Control_c, 0, 64, 101
1, 342049, Control_c, 0, 64, 99
1, 342064, Control_c, 0, 64, 97
1, 342073, Note_on_c, 0, 70, 21
1, 342078, Control_c, 0, 64, 95
1, 342093, Control_c, 0, 64, 94
1, 342108, Control_c, 0, 64, 92
1, 342123, Control_c, 0, 64, 91
1, 342138, Control_c, 0, 64, 89
1, 342152, Control_c, 0, 64, 86
1, 342167, Control_c, 0, 64, 84
1, 342182, Control_c, 0, 64, 79
1, 342197, Control_c, 0, 64, 74
1, 342211, Control_c, 0, 64, 69
1, 342226, Control_c, 0, 64, 64
1, 342241, Control_c, 0, 64, 62
1, 342256, Control_c, 0, 64, 63
1, 342264, Note_off_c, 0, 59, 33
1, 342271, Control_c, 0, 64, 64
1, 342285, Control_c, 0, 64, 65
1, 342300, Control_c, 0, 64, 66
1, 342315, Control_c, 0, 64, 68
1, 342330, Control_c, 0, 64, 70
1, 342345, Control_c, 0, 64, 73
1, 342359, Control_c, 0, 64, 76
1, 342374, Control_c, 0, 64, 79
1, 342385, Note_on_c, 0, 73, 36
1, 342389, Control_c, 0, 64, 83
1, 342404, Control_c, 0, 64, 90
1, 342418, Control_c, 0, 64, 98
1, 342433, Control_c, 0, 64, 110
1, 342448, Control_c, 0, 64, 127
1, 342533, Note_on_c, 0, 66, 29
1, 342618, Note_on_c, 0, 82, 47
1, 342630, Note_off_c, 0, 73, 42
1, 342730, Note_off_c, 0, 70, 40
1, 342794, Note_off_c, 0, 66, 40
1, 342861, Note_on_c, 0, 80, 56
1, 342863, Note_on_c, 0, 65, 33
1, 342867, Note_off_c, 0, 54, 26
1, 342914, Note_off_c, 0, 82, 50
1, 343074, Note_on_c, 0, 78, 71
1, 343141, Note_off_c, 0, 80, 54
1, 343212, Note_on_c, 0, 63, 31
1, 343308, Note_on_c, 0, 82, 80
1, 343324, Note_off_c, 0, 65, 41
1, 343370, Note_off_c, 0, 78, 51
1, 343605, Control_c, 0, 64, 121
1, 343620, Control_c, 0, 64, 115
1, 343631, Note_on_c, 0, 61, 29
1, 343633, Note_on_c, 0, 70, 38
1, 343635, Control_c, 0, 64, 110
1, 343646, Note_on_c, 0, 85, 80
1, 343650, Control_c, 0, 64, 107
1, 343664, Control_c, 0, 64, 104
1, 343673, Note_on_c, 0, 73, 48
1, 343676, Note_off_c, 0, 63, 21
1, 343679, Control_c, 0, 64, 102
1, 343691, Note_off_c, 0, 82, 56
1, 343694, Control_c, 0, 64, 99
1, 343709, Control_c, 0, 64, 96
1, 343723, Control_c, 0, 64, 94
1, 343738, Control_c, 0, 64, 92
1, 343753, Control_c, 0, 64, 90
1, 343768, Control_c, 0, 64, 88
1, 343783, Control_c, 0, 64, 86
1, 343797, Control_c, 0, 64, 84
1, 343812, Control_c, 0, 64, 81
1, 343827, Control_c, 0, 64, 78
1, 343841, Control_c, 0, 64, 77
1, 343856, Control_c, 0, 64, 75
1, 343871, Control_c, 0, 64, 73
1, 343886, Control_c, 0, 64, 72
1, 343901, Control_c, 0, 64, 71
1, 343916, Control_c, 0, 64, 69
1, 343930, Control_c, 0, 64, 67
1, 343945, Control_c, 0, 64, 66
1, 343960, Control_c, 0, 64, 65
1, 343975, Control_c, 0, 64, 64
1, 343990, Control_c, 0, 64, 64
1, 343999, Note_on_c, 0, 68, 56
1, 344004, Control_c, 0, 64, 63
1, 344019, Control_c, 0, 64, 62
1, 344034, Control_c, 0, 64, 61
1, 344049, Control_c, 0, 64, 60
1, 344064, Control_c, 0, 64, 59
1, 344079, Control_c, 0, 64, 58
1, 344094, Control_c, 0, 64, 56
1, 344109, Control_c, 0, 64, 55
1, 344176, Control_c, 0, 64, 56
1, 344191, Control_c, 0, 64, 58
1, 344206, Control_c, 0, 64, 60
1, 344221, Control_c, 0, 64, 62
1, 344222, Note_off_c, 0, 70, 45
1, 344235, Control_c, 0, 64, 64
1, 344250, Control_c, 0, 64, 65
1, 344265, Control_c, 0, 64, 68
1, 344279, Control_c, 0, 64, 72
1, 344294, Control_c, 0, 64, 79
1, 344309, Control_c, 0, 64, 90
1, 344324, Control_c, 0, 64, 116
1, 344339, Control_c, 0, 64, 127
1, 344344, Note_on_c, 0, 66, 62
1, 344401, Note_off_c, 0, 85, 39
1, 344448, Note_off_c, 0, 73, 33
1, 344502, Note_off_c, 0, 68, 62
1, 344627, Note_off_c, 0, 61, 37
1, 344678, Note_on_c, 0, 65, 70
1, 344819, Note_off_c, 0, 66, 62
1, 344955, Control_c, 0, 64, 118
1, 344970, Control_c, 0, 64, 111
1, 344984, Control_c, 0, 64, 108
1, 344999, Control_c, 0, 64, 105
1, 345014, Control_c, 0, 64, 103
1, 345029, Control_c, 0, 64, 102
1, 345044, Control_c, 0, 64, 101
1, 345050, Note_on_c, 0, 63, 61
1, 345058, Control_c, 0, 64, 100
1, 345073, Control_c, 0, 64, 98
1, 345076, Note_on_c, 0, 78, 76
1, 345088, Control_c, 0, 64, 96
1, 345095, Note_on_c, 0, 71, 51
1, 345102, Control_c, 0, 64, 92
1, 345117, Control_c, 0, 64, 86
1, 345132, Control_c, 0, 64, 78
1, 345147, Control_c, 0, 64, 69
1, 345162, Control_c, 0, 64, 62
1, 345176, Control_c, 0, 64, 60
1, 345191, Control_c, 0, 64, 61
1, 345206, Control_c, 0, 64, 63
1, 345215, Note_off_c, 0, 65, 53
1, 345221, Control_c, 0, 64, 64
1, 345236, Control_c, 0, 64, 67
1, 345250, Control_c, 0, 64, 71
1, 345265, Control_c, 0, 64, 76
1, 345280, Control_c, 0, 64, 83
1, 345295, Control_c, 0, 64, 92
1, 345310, Control_c, 0, 64, 102
1, 345325, Control_c, 0, 64, 111
1, 345340, Control_c, 0, 64, 118
1, 345348, Note_on_c, 0, 82, 76
1, 345355, Control_c, 0, 64, 119
1, 345384, Control_c, 0, 64, 121
1, 345387, Note_off_c, 0, 78, 60
1, 345399, Control_c, 0, 64, 127
1, 345465, Note_off_c, 0, 71, 30
1, 345480, Note_on_c, 0, 56, 42
1, 345494, Note_off_c, 0, 82, 58
1, 345504, Note_off_c, 0, 63, 36
1, 345517, Note_on_c, 0, 72, 46
1, 345576, Control_c, 0, 64, 123
1, 345602, Note_on_c, 0, 78, 76
1, 345606, Control_c, 0, 64, 121
1, 345610, Note_off_c, 0, 72, 53
1, 345635, Control_c, 0, 64, 119
1, 345658, Control_c, 0, 64, 118
1, 345673, Control_c, 0, 64, 117
1, 345688, Control_c, 0, 64, 116
1, 345702, Control_c, 0, 64, 115
1, 345717, Control_c, 0, 64, 113
1, 345732, Control_c, 0, 64, 111
1, 345748, Control_c, 0, 64, 110
1, 345763, Control_c, 0, 64, 108
1, 345778, Control_c, 0, 64, 106
1, 345793, Control_c, 0, 64, 105
1, 345807, Control_c, 0, 64, 103
1, 345822, Control_c, 0, 64, 102
1, 345837, Control_c, 0, 64, 100
1, 345852, Control_c, 0, 64, 99
1, 345858, Note_off_c, 0, 78, 55
1, 345867, Control_c, 0, 64, 97
1, 345881, Control_c, 0, 64, 95
1, 345896, Control_c, 0, 64, 94
1, 345897, Note_on_c, 0, 49, 35
1, 345901, Note_on_c, 0, 77, 61
1, 345911, Control_c, 0, 64, 92
1, 345918, Note_on_c, 0, 61, 27
1, 345926, Note_on_c, 0, 73, 45
1, 345926, Control_c, 0, 64, 91
1, 345941, Control_c, 0, 64, 90
1, 345956, Control_c, 0, 64, 88
1, 345971, Control_c, 0, 64, 85
1, 345986, Control_c, 0, 64, 81
1, 346000, Control_c, 0, 64, 75
1, 346015, Control_c, 0, 64, 68
1, 346030, Control_c, 0, 64, 62
1, 346045, Control_c, 0, 64, 53
1, 346060, Control_c, 0, 64, 49
1, 346089, Control_c, 0, 64, 50
1, 346104, Control_c, 0, 64, 53
1, 346118, Control_c, 0, 64, 57
1, 346133, Control_c, 0, 64, 60
1, 346148, Control_c, 0, 64, 63
1, 346163, Control_c, 0, 64, 64
1, 346178, Control_c, 0, 64, 68
1, 346192, Control_c, 0, 64, 72
1, 346207, Control_c, 0, 64, 80
1, 346216, Note_on_c, 0, 75, 60
1, 346222, Control_c, 0, 64, 91
1, 346237, Control_c, 0, 64, 107
1, 346245, Note_off_c, 0, 61, 40
1, 346252, Control_c, 0, 64, 127
1, 346294, Note_off_c, 0, 77, 55
1, 346305, Note_off_c, 0, 56, 31
1, 346436, Note_on_c, 0, 71, 38
1, 346627, Note_on_c, 0, 77, 62
1, 346690, Control_c, 0, 64, 123
1, 346705, Control_c, 0, 64, 121
1, 346720, Control_c, 0, 64, 119
1, 346735, Control_c, 0, 64, 118
1, 346743, Note_off_c, 0, 75, 50
1, 346749, Control_c, 0, 64, 116
1, 346764, Control_c, 0, 64, 115
1, 346779, Control_c, 0, 64, 113
1, 346794, Control_c, 0, 64, 113
1, 346796, Note_off_c, 0, 73, 35
1, 346809, Control_c, 0, 64, 111
1, 346823, Control_c, 0, 64, 110
1, 346838, Control_c, 0, 64, 109
1, 346853, Control_c, 0, 64, 108
1, 346867, Control_c, 0, 64, 108
1, 346882, Control_c, 0, 64, 107
1, 346897, Control_c, 0, 64, 107
1, 346927, Control_c, 0, 64, 106
1, 346941, Control_c, 0, 64, 105
1, 346956, Control_c, 0, 64, 104
1, 346971, Control_c, 0, 64, 104
1, 346986, Control_c, 0, 64, 103
1, 347001, Control_c, 0, 64, 102
1, 347012, Note_on_c, 0, 78, 67
1, 347015, Control_c, 0, 64, 100
1, 347017, Note_on_c, 0, 42, 39
1, 347022, Note_on_c, 0, 54, 35
1, 347030, Control_c, 0, 64, 100
1, 347045, Control_c, 0, 64, 99
1, 347060, Control_c, 0, 64, 97
1, 347075, Control_c, 0, 64, 95
1, 347077, Note_off_c, 0, 77, 55
1, 347090, Control_c, 0, 64, 93
1, 347104, Control_c, 0, 64, 92
1, 347119, Control_c, 0, 64, 90
1, 347134, Control_c, 0, 64, 89
1, 347156, Control_c, 0, 64, 88
1, 347171, Control_c, 0, 64, 87
1, 347186, Control_c, 0, 64, 86
1, 347201, Control_c, 0, 64, 85
1, 347216, Control_c, 0, 64, 84
1, 347230, Control_c, 0, 64, 83
1, 347245, Control_c, 0, 64, 83
1, 347260, Control_c, 0, 64, 82
1, 347274, Control_c, 0, 64, 81
1, 347289, Control_c, 0, 64, 81
1, 347304, Control_c, 0, 64, 80
1, 347319, Control_c, 0, 64, 79
1, 347334, Control_c, 0, 64, 78
1, 347350, Control_c, 0, 64, 78
1, 347365, Control_c, 0, 64, 77
1, 347394, Control_c, 0, 64, 77
1, 347439, Control_c, 0, 64, 76
1, 347483, Control_c, 0, 64, 76
1, 347528, Control_c, 0, 64, 75
1, 347550, Note_on_c, 0, 70, 48
1, 347558, Control_c, 0, 64, 75
1, 347587, Control_c, 0, 64, 74
1, 347617, Control_c, 0, 64, 74
1, 347646, Control_c, 0, 64, 73
1, 347661, Control_c, 0, 64, 73
1, 347676, Control_c, 0, 64, 72
1, 347690, Control_c, 0, 64, 71
1, 347705, Control_c, 0, 64, 71
1, 347720, Control_c, 0, 64, 70
1, 347765, Control_c, 0, 64, 70
1, 347779, Control_c, 0, 64, 69
1, 347809, Control_c, 0, 64, 69
1, 347821, Note_off_c, 0, 71, 31
1, 347824, Control_c, 0, 64, 68
1, 347853, Control_c, 0, 64, 68
1, 347868, Control_c, 0, 64, 67
1, 347883, Control_c, 0, 64, 67
1, 347935, Control_c, 0, 64, 66
1, 347979, Control_c, 0, 64, 66
1, 348024, Control_c, 0, 64, 65
1, 348083, Control_c, 0, 64, 65
1, 348167, Note_on_c, 0, 68, 46
1, 348187, Control_c, 0, 64, 64
1, 348291, Control_c, 0, 64, 64
1, 348365, Control_c, 0, 64, 63
1, 348439, Control_c, 0, 64, 63
1, 348483, Control_c, 0, 64, 62
1, 348517, Note_off_c, 0, 70, 34
1, 348557, Control_c, 0, 64, 62
1, 348683, Control_c, 0, 64, 61
1, 348742, Control_c, 0, 64, 61
1, 348787, Control_c, 0, 64, 60
1, 348845, Control_c, 0, 64, 60
1, 348890, Control_c, 0, 64, 59
1, 348950, Control_c, 0, 64, 59
1, 348995, Control_c, 0, 64, 58
1, 349002, Note_on_c, 0, 66, 28
1, 349039, Control_c, 0, 64, 58
1, 349069, Control_c, 0, 64, 57
1, 349099, Control_c, 0, 64, 57
1, 349211, Note_off_c, 0, 68, 48
1, 349232, Control_c, 0, 64, 58
1, 349247, Control_c, 0, 64, 58
1, 349261, Control_c, 0, 64, 59
1, 349276, Control_c, 0, 64, 61
1, 349291, Control_c, 0, 64, 62
1, 349306, Control_c, 0, 64, 63
1, 349321, Control_c, 0, 64, 65
1, 349335, Control_c, 0, 64, 66
1, 349350, Control_c, 0, 64, 70
1, 349365, Control_c, 0, 64, 76
1, 349388, Control_c, 0, 64, 83
1, 349403, Control_c, 0, 64, 91
1, 349417, Control_c, 0, 64, 99
1, 349429, Note_off_c, 0, 66, 40
1, 349432, Control_c, 0, 64, 106
1, 349447, Control_c, 0, 64, 110
1, 349463, Note_off_c, 0, 54, 43
1, 349499, Note_off_c, 0, 49, 37
1, 349527, Note_off_c, 0, 78, 56
1, 349550, Control_c, 0, 64, 109
1, 349565, Control_c, 0, 64, 108
1, 349580, Control_c, 0, 64, 108
1, 349595, Control_c, 0, 64, 107
1, 349602, Note_off_c, 0, 42, 40
1, 349610, Control_c, 0, 64, 107
1, 349639, Control_c, 0, 64, 106
1, 349654, Control_c, 0, 64, 105
1, 349669, Control_c, 0, 64, 105
1, 349684, Control_c, 0, 64, 104
1, 349699, Control_c, 0, 64, 103
1, 349714, Control_c, 0, 64, 102
1, 349729, Control_c, 0, 64, 102
1, 349745, Control_c, 0, 64, 101
1, 349760, Control_c, 0, 64, 100
1, 349774, Control_c, 0, 64, 99
1, 349789, Control_c, 0, 64, 98
1, 349804, Control_c, 0, 64, 97
1, 349819, Control_c, 0, 64, 96
1, 349834, Control_c, 0, 64, 94
1, 349848, Control_c, 0, 64, 93
1, 349863, Control_c, 0, 64, 92
1, 349878, Control_c, 0, 64, 91
1, 349892, Control_c, 0, 64, 91
1, 349922, Control_c, 0, 64, 90
1, 349937, Control_c, 0, 64, 90
1, 349981, Control_c, 0, 64, 89
1, 349996, Control_c, 0, 64, 88
1, 350026, Control_c, 0, 64, 88
1, 350041, Control_c, 0, 64, 87
1, 350056, Control_c, 0, 64, 87
1, 350070, Control_c, 0, 64, 86
1, 350085, Control_c, 0, 64, 85
1, 350100, Control_c, 0, 64, 84
1, 350115, Control_c, 0, 64, 84
1, 350152, Control_c, 0, 64, 83
1, 350166, Control_c, 0, 64, 83
1, 350181, Control_c, 0, 64, 82
1, 350196, Control_c, 0, 64, 81
1, 350211, Control_c, 0, 64, 81
1, 350226, Control_c, 0, 64, 80
1, 350240, Control_c, 0, 64, 80
1, 350270, Control_c, 0, 64, 79
1, 350285, Control_c, 0, 64, 78
1, 350300, Control_c, 0, 64, 77
1, 350315, Control_c, 0, 64, 76
1, 350330, Control_c, 0, 64, 75
1, 350345, Control_c, 0, 64, 74
1, 350360, Control_c, 0, 64, 74
1, 350374, Control_c, 0, 64, 73
1, 350389, Control_c, 0, 64, 73
1, 350419, Control_c, 0, 64, 72
1, 350434, Control_c, 0, 64, 71
1, 350448, Control_c, 0, 64, 70
1, 350463, Control_c, 0, 64, 69
1, 350478, Control_c, 0, 64, 69
1, 350492, Control_c, 0, 64, 68
1, 350507, Control_c, 0, 64, 67
1, 350522, Control_c, 0, 64, 66
1, 350525, Note_on_c, 0, 41, 30
1, 350530, Note_on_c, 0, 29, 30
1, 350538, Control_c, 0, 64, 65
1, 350544, Note_on_c, 0, 86, 54
1, 350553, Control_c, 0, 64, 61
1, 350566, Note_on_c, 0, 74, 26
1, 350568, Control_c, 0, 64, 56
1, 350583, Control_c, 0, 64, 51
1, 350597, Control_c, 0, 64, 45
1, 350612, Control_c, 0, 64, 38
1, 350627, Control_c, 0, 64, 37
1, 350657, Control_c, 0, 64, 39
1, 350671, Control_c, 0, 64, 45
1, 350686, Control_c, 0, 64, 53
1, 350701, Control_c, 0, 64, 59
1, 350715, Control_c, 0, 64, 63
1, 350730, Control_c, 0, 64, 66
1, 350745, Control_c, 0, 64, 71
1, 350749, Note_off_c, 0, 29, 50
1, 350760, Control_c, 0, 64, 79
1, 350775, Control_c, 0, 64, 94
1, 350789, Control_c, 0, 64, 127
1, 350825, Note_off_c, 0, 41, 41
1, 350914, Note_off_c, 0, 74, 37
1, 351147, Note_on_c, 0, 58, 32
1, 351150, Note_on_c, 0, 67, 37
1, 351469, Note_on_c, 0, 65, 39
1, 351474, Note_on_c, 0, 87, 57
1, 351474, Note_off_c, 0, 67, 34
1, 351496, Note_on_c, 0, 75, 35
1, 351507, Note_off_c, 0, 58, 38
1, 351527, Note_off_c, 0, 86, 54
1, 351549, Note_off_c, 0, 65, 57
1, 351666, Note_off_c, 0, 75, 52
1, 351716, Note_on_c, 0, 53, 45
1, 351721, Note_on_c, 0, 63, 55
1, 351832, Note_off_c, 0, 53, 50
1, 351905, Note_off_c, 0, 63, 61
1, 351923, Note_on_c, 0, 89, 84
1, 351929, Note_on_c, 0, 62, 50
1, 351940, Note_on_c, 0, 77, 63
1, 351962, Note_off_c, 0, 87, 59
1, 351981, Note_off_c, 0, 62, 56
1, 352133, Note_on_c, 0, 50, 50
1, 352145, Note_on_c, 0, 60, 53
1, 352175, Note_off_c, 0, 50, 63
1, 352180, Note_off_c, 0, 60, 66
1, 352228, Note_off_c, 0, 77, 45
1, 352346, Control_c, 0, 64, 100
1, 352357, Note_on_c, 0, 43, 47
1, 352360, Control_c, 0, 64, 77
1, 352362, Note_on_c, 0, 58, 62
1, 352374, Note_on_c, 0, 91, 89
1, 352375, Control_c, 0, 64, 62
1, 352393, Note_on_c, 0, 79, 67
1, 352398, Control_c, 0, 64, 39
1, 352413, Control_c, 0, 64, 39
1, 352418, Note_off_c, 0, 89, 60
1, 352428, Control_c, 0, 64, 55
1, 352442, Control_c, 0, 64, 63
1, 352457, Control_c, 0, 64, 71
1, 352462, Note_off_c, 0, 43, 63
1, 352472, Control_c, 0, 64, 91
1, 352486, Control_c, 0, 64, 127
1, 352502, Note_off_c, 0, 58, 64
1, 352633, Note_on_c, 0, 72, 72
1, 352640, Note_on_c, 0, 62, 61
1, 352693, Note_off_c, 0, 79, 35
1, 352840, Note_on_c, 0, 70, 64
1, 352846, Note_off_c, 0, 62, 61
1, 352848, Note_on_c, 0, 93, 96
1, 352863, Note_on_c, 0, 81, 77
1, 352887, Note_off_c, 0, 72, 61
1, 352899, Note_off_c, 0, 91, 62
1, 352942, Note_off_c, 0, 70, 62
1, 353069, Note_on_c, 0, 58, 71
1, 353075, Note_on_c, 0, 69, 78
1, 353118, Note_off_c, 0, 81, 62
1, 353245, Note_off_c, 0, 58, 56
1, 353300, Note_off_c, 0, 93, 61
1, 353311, Note_on_c, 0, 67, 55
1, 353327, Note_on_c, 0, 94, 96
1, 353339, Note_off_c, 0, 69, 59
1, 353342, Note_on_c, 0, 82, 74
1, 353377, Note_off_c, 0, 67, 63
1, 353582, Note_on_c, 0, 55, 49
1, 353582, Note_on_c, 0, 65, 62
1, 353618, Note_off_c, 0, 65, 64
1, 353624, Note_off_c, 0, 55, 63
1, 353630, Note_off_c, 0, 82, 61
1, 353873, Note_on_c, 0, 42, 54
1, 353889, Note_on_c, 0, 54, 52
1, 353895, Control_c, 0, 64, 84
1, 353898, Note_on_c, 0, 96, 93
1, 353910, Control_c, 0, 64, 63
1, 353925, Note_on_c, 0, 84, 58
1, 353925, Control_c, 0, 64, 0
1, 353942, Note_off_c, 0, 94, 61
1, 353969, Control_c, 0, 64, 27
1, 353984, Control_c, 0, 64, 51
1, 353999, Control_c, 0, 64, 63
1, 354011, Note_off_c, 0, 42, 62
1, 354014, Control_c, 0, 64, 71
1, 354029, Note_off_c, 0, 54, 64
1, 354029, Control_c, 0, 64, 87
1, 354044, Control_c, 0, 64, 127
1, 354133, Note_off_c, 0, 96, 58
1, 354244, Note_on_c, 0, 72, 60
1, 354245, Note_on_c, 0, 64, 47
1, 354310, Note_off_c, 0, 64, 58
1, 354479, Note_on_c, 0, 70, 63
1, 354500, Note_off_c, 0, 72, 63
1, 354537, Note_off_c, 0, 70, 65
1, 354771, Note_on_c, 0, 41, 48
1, 354777, Control_c, 0, 64, 97
1, 354781, Note_on_c, 0, 89, 92
1, 354791, Note_on_c, 0, 53, 41
1, 354792, Control_c, 0, 64, 72
1, 354802, Note_on_c, 0, 77, 57
1, 354807, Control_c, 0, 64, 53
1, 354822, Control_c, 0, 64, 0
1, 354824, Note_off_c, 0, 84, 57
1, 354851, Control_c, 0, 64, 30
1, 354866, Control_c, 0, 64, 52
1, 354881, Control_c, 0, 64, 63
1, 354896, Control_c, 0, 64, 70
1, 354899, Note_off_c, 0, 41, 65
1, 354910, Control_c, 0, 64, 84
1, 354925, Control_c, 0, 64, 127
1, 354932, Note_off_c, 0, 53, 56
1, 355132, Note_on_c, 0, 69, 57
1, 355135, Note_on_c, 0, 60, 44
1, 355317, Note_off_c, 0, 77, 39
1, 355385, Note_on_c, 0, 63, 34
1, 355410, Note_off_c, 0, 60, 31
1, 355475, Note_off_c, 0, 69, 34
1, 355633, Note_on_c, 0, 58, 35
1, 355636, Note_on_c, 0, 67, 45
1, 355655, Note_on_c, 0, 87, 59
1, 355682, Note_on_c, 0, 75, 39
1, 355883, Note_off_c, 0, 63, 28
1, 355892, Note_on_c, 0, 60, 39
1, 355952, Note_off_c, 0, 58, 39
1, 356074, Control_c, 0, 64, 103
1, 356089, Control_c, 0, 64, 90
1, 356092, Note_on_c, 0, 65, 55
1, 356100, Note_on_c, 0, 57, 43
1, 356103, Control_c, 0, 64, 80
1, 356118, Control_c, 0, 64, 74
1, 356142, Control_c, 0, 64, 71
1, 356171, Control_c, 0, 64, 72
1, 356186, Control_c, 0, 64, 73
1, 356190, Note_off_c, 0, 60, 24
1, 356201, Control_c, 0, 64, 74
1, 356215, Control_c, 0, 64, 76
1, 356230, Control_c, 0, 64, 80
1, 356245, Control_c, 0, 64, 86
1, 356260, Control_c, 0, 64, 92
1, 356274, Note_off_c, 0, 57, 38
1, 356275, Control_c, 0, 64, 98
1, 356289, Control_c, 0, 64, 104
1, 356304, Control_c, 0, 64, 109
1, 356327, Note_on_c, 0, 62, 42
1, 356342, Note_off_c, 0, 65, 60
1, 356363, Note_off_c, 0, 62, 64
1, 356378, Control_c, 0, 64, 108
1, 356393, Control_c, 0, 64, 107
1, 356408, Control_c, 0, 64, 106
1, 356423, Control_c, 0, 64, 104
1, 356438, Control_c, 0, 64, 102
1, 356442, Note_off_c, 0, 67, 37
1, 356453, Control_c, 0, 64, 99
1, 356467, Control_c, 0, 64, 97
1, 356482, Control_c, 0, 64, 94
1, 356497, Control_c, 0, 64, 91
1, 356512, Control_c, 0, 64, 88
1, 356518, Note_off_c, 0, 89, 1
1, 356526, Control_c, 0, 64, 83
1, 356541, Control_c, 0, 64, 78
1, 356554, Note_on_c, 0, 63, 42
1, 356556, Control_c, 0, 64, 74
1, 356565, Note_on_c, 0, 55, 36
1, 356571, Control_c, 0, 64, 68
1, 356586, Control_c, 0, 64, 63
1, 356600, Control_c, 0, 64, 57
1, 356615, Control_c, 0, 64, 55
1, 356645, Control_c, 0, 64, 55
1, 356660, Control_c, 0, 64, 56
1, 356674, Control_c, 0, 64, 57
1, 356689, Control_c, 0, 64, 58
1, 356704, Control_c, 0, 64, 60
1, 356719, Control_c, 0, 64, 62
1, 356733, Control_c, 0, 64, 63
1, 356748, Control_c, 0, 64, 65
1, 356763, Control_c, 0, 64, 67
1, 356778, Control_c, 0, 64, 69
1, 356793, Control_c, 0, 64, 74
1, 356807, Control_c, 0, 64, 79
1, 356813, Note_off_c, 0, 55, 42
1, 356822, Control_c, 0, 64, 86
1, 356837, Note_on_c, 0, 57, 39
1, 356837, Control_c, 0, 64, 94
1, 356852, Control_c, 0, 64, 102
1, 356867, Control_c, 0, 64, 108
1, 356889, Note_off_c, 0, 63, 61
1, 356889, Control_c, 0, 64, 110
1, 356900, Note_off_c, 0, 57, 63
1, 356950, Note_off_c, 0, 75, 32
1, 356979, Control_c, 0, 64, 108
1, 356987, Note_off_c, 0, 87, 32
1, 356994, Control_c, 0, 64, 107
1, 357009, Control_c, 0, 64, 106
1, 357024, Control_c, 0, 64, 104
1, 357038, Control_c, 0, 64, 101
1, 357053, Control_c, 0, 64, 99
1, 357068, Control_c, 0, 64, 97
1, 357083, Control_c, 0, 64, 94
1, 357098, Control_c, 0, 64, 90
1, 357112, Control_c, 0, 64, 81
1, 357127, Control_c, 0, 64, 72
1, 357136, Note_on_c, 0, 46, 34
1, 357142, Control_c, 0, 64, 63
1, 357157, Control_c, 0, 64, 54
1, 357164, Note_on_c, 0, 86, 46
1, 357171, Note_on_c, 0, 74, 22
1, 357172, Control_c, 0, 64, 51
1, 357187, Control_c, 0, 64, 53
1, 357202, Control_c, 0, 64, 56
1, 357217, Control_c, 0, 64, 59
1, 357231, Control_c, 0, 64, 62
1, 357246, Control_c, 0, 64, 64
1, 357261, Control_c, 0, 64, 67
1, 357276, Control_c, 0, 64, 72
1, 357290, Note_off_c, 0, 46, 58
1, 357291, Control_c, 0, 64, 79
1, 357305, Control_c, 0, 64, 91
1, 357320, Control_c, 0, 64, 107
1, 357335, Control_c, 0, 64, 127
1, 357435, Note_off_c, 0, 74, 37
1, 357475, Note_on_c, 0, 67, 41
1, 357498, Note_on_c, 0, 58, 36
1, 357713, Note_off_c, 0, 67, 50
1, 357718, Note_on_c, 0, 87, 68
1, 357728, Note_on_c, 0, 65, 47
1, 357740, Note_on_c, 0, 75, 44
1, 357764, Note_off_c, 0, 58, 33
1, 357770, Note_off_c, 0, 86, 59
1, 357788, Note_off_c, 0, 65, 57
1, 357923, Note_off_c, 0, 75, 60
1, 357938, Note_on_c, 0, 63, 62
1, 357949, Note_on_c, 0, 53, 51
1, 358024, Note_off_c, 0, 53, 60
1, 358116, Note_off_c, 0, 63, 62
1, 358123, Note_on_c, 0, 62, 55
1, 358146, Note_on_c, 0, 89, 91
1, 358159, Note_on_c, 0, 77, 73
1, 358196, Note_off_c, 0, 62, 58
1, 358215, Note_off_c, 0, 87, 54
1, 358339, Note_on_c, 0, 50, 55
1, 358356, Note_on_c, 0, 60, 60
1, 358388, Note_off_c, 0, 50, 63
1, 358393, Note_off_c, 0, 60, 66
1, 358463, Note_off_c, 0, 77, 51
1, 358550, Note_on_c, 0, 43, 64
1, 358566, Control_c, 0, 64, 94
1, 358581, Note_on_c, 0, 91, 91
1, 358581, Control_c, 0, 64, 71
1, 358592, Note_on_c, 0, 79, 74
1, 358595, Note_on_c, 0, 56, 34
1, 358596, Control_c, 0, 64, 53
1, 358597, Note_on_c, 0, 58, 46
1, 358611, Control_c, 0, 64, 35
1, 358624, Note_off_c, 0, 89, 60
1, 358626, Control_c, 0, 64, 44
1, 358639, Note_off_c, 0, 58, 0
1, 358639, Note_on_c, 0, 58, 15
1, 358641, Control_c, 0, 64, 55
1, 358655, Control_c, 0, 64, 62
1, 358656, Note_off_c, 0, 43, 61
1, 358669, Note_off_c, 0, 56, 37
1, 358670, Control_c, 0, 64, 70
1, 358684, Control_c, 0, 64, 85
1, 358699, Control_c, 0, 64, 127
1, 358717, Note_off_c, 0, 58, 59
1, 358835, Note_on_c, 0, 72, 73
1, 358837, Note_on_c, 0, 62, 69
1, 358864, Note_off_c, 0, 79, 49
1, 359016, Note_off_c, 0, 62, 60
1, 359025, Note_on_c, 0, 70, 64
1, 359058, Note_on_c, 0, 93, 101
1, 359070, Note_off_c, 0, 72, 61
1, 359071, Note_on_c, 0, 81, 85
1, 359108, Note_off_c, 0, 91, 61
1, 359126, Note_off_c, 0, 70, 63
1, 359281, Note_on_c, 0, 58, 68
1, 359286, Note_on_c, 0, 69, 73
1, 359341, Note_off_c, 0, 81, 62
1, 359429, Note_off_c, 0, 58, 58
1, 359517, Note_on_c, 0, 67, 45
1, 359548, Note_off_c, 0, 69, 61
1, 359555, Note_on_c, 0, 94, 95
1, 359560, Note_off_c, 0, 93, 0
1, 359562, Note_on_c, 0, 82, 80
1, 359585, Note_off_c, 0, 67, 62
1, 359638, Poly_aftertouch_c, 0, 93, 0
1, 359806, Note_on_c, 0, 65, 60
1, 359809, Note_on_c, 0, 55, 51
1, 359843, Note_off_c, 0, 65, 64
1, 359852, Note_off_c, 0, 55, 63
1, 360041, Note_off_c, 0, 82, 47
1, 360077, Control_c, 0, 64, 121
1, 360092, Control_c, 0, 64, 107
1, 360107, Control_c, 0, 64, 92
1, 360122, Note_on_c, 0, 45, 44
1, 360122, Control_c, 0, 64, 76
1, 360126, Note_on_c, 0, 93, 76
1, 360131, Note_on_c, 0, 81, 62
1, 360135, Note_on_c, 0, 57, 39
1, 360137, Control_c, 0, 64, 64
1, 360152, Control_c, 0, 64, 39
1, 360164, Note_off_c, 0, 94, 63
1, 360167, Control_c, 0, 64, 11
1, 360197, Control_c, 0, 64, 22
1, 360211, Control_c, 0, 64, 39
1, 360226, Control_c, 0, 64, 54
1, 360235, Note_off_c, 0, 45, 60
1, 360241, Control_c, 0, 64, 62
1, 360256, Control_c, 0, 64, 67
1, 360271, Control_c, 0, 64, 72
1, 360286, Control_c, 0, 64, 82
1, 360301, Control_c, 0, 64, 96
1, 360316, Control_c, 0, 64, 127
1, 360329, Note_off_c, 0, 93, 55
1, 360347, Note_off_c, 0, 57, 62
1, 360468, Note_on_c, 0, 64, 51
1, 360479, Note_on_c, 0, 55, 37
1, 360552, Control_c, 0, 64, 117
1, 360566, Control_c, 0, 64, 113
1, 360581, Control_c, 0, 64, 110
1, 360585, Note_off_c, 0, 55, 49
1, 360596, Control_c, 0, 64, 108
1, 360611, Control_c, 0, 64, 106
1, 360634, Control_c, 0, 64, 104
1, 360648, Control_c, 0, 64, 103
1, 360663, Control_c, 0, 64, 102
1, 360678, Control_c, 0, 64, 101
1, 360686, Note_on_c, 0, 61, 41
1, 360693, Control_c, 0, 64, 100
1, 360708, Control_c, 0, 64, 99
1, 360722, Note_off_c, 0, 64, 33
1, 360723, Control_c, 0, 64, 97
1, 360737, Control_c, 0, 64, 94
1, 360752, Control_c, 0, 64, 93
1, 360767, Control_c, 0, 64, 92
1, 360781, Control_c, 0, 64, 92
1, 360796, Control_c, 0, 64, 91
1, 360811, Control_c, 0, 64, 90
1, 360826, Control_c, 0, 64, 89
1, 360831, Note_off_c, 0, 61, 36
1, 360841, Control_c, 0, 64, 88
1, 360855, Control_c, 0, 64, 87
1, 360870, Control_c, 0, 64, 87
1, 360901, Control_c, 0, 64, 86
1, 360909, Note_on_c, 0, 86, 67
1, 360916, Control_c, 0, 64, 85
1, 360928, Note_on_c, 0, 74, 41
1, 360932, Control_c, 0, 64, 85
1, 360946, Control_c, 0, 64, 84
1, 360961, Control_c, 0, 64, 83
1, 360976, Control_c, 0, 64, 82
1, 360991, Control_c, 0, 64, 80
1, 361005, Control_c, 0, 64, 78
1, 361020, Control_c, 0, 64, 76
1, 361035, Control_c, 0, 64, 75
1, 361050, Control_c, 0, 64, 73
1, 361065, Control_c, 0, 64, 72
1, 361079, Control_c, 0, 64, 69
1, 361094, Control_c, 0, 64, 66
1, 361109, Control_c, 0, 64, 64
1, 361119, Note_off_c, 0, 81, 31
1, 361124, Control_c, 0, 64, 62
1, 361138, Note_on_c, 0, 53, 42
1, 361139, Control_c, 0, 64, 62
1, 361141, Note_on_c, 0, 62, 43
1, 361168, Control_c, 0, 64, 62
1, 361183, Control_c, 0, 64, 63
1, 361198, Control_c, 0, 64, 64
1, 361213, Control_c, 0, 64, 65
1, 361228, Control_c, 0, 64, 66
1, 361243, Control_c, 0, 64, 67
1, 361258, Control_c, 0, 64, 70
1, 361272, Control_c, 0, 64, 74
1, 361287, Control_c, 0, 64, 79
1, 361302, Control_c, 0, 64, 85
1, 361317, Control_c, 0, 64, 92
1, 361330, Note_off_c, 0, 74, 53
1, 361332, Control_c, 0, 64, 98
1, 361340, Note_on_c, 0, 64, 51
1, 361346, Control_c, 0, 64, 100
1, 361361, Note_off_c, 0, 62, 36
1, 361361, Control_c, 0, 64, 101
1, 361419, Note_off_c, 0, 64, 59
1, 361443, Control_c, 0, 64, 100
1, 361457, Control_c, 0, 64, 99
1, 361472, Control_c, 0, 64, 99
1, 361487, Control_c, 0, 64, 97
1, 361502, Control_c, 0, 64, 96
1, 361517, Control_c, 0, 64, 94
1, 361532, Control_c, 0, 64, 93
1, 361546, Control_c, 0, 64, 92
1, 361561, Control_c, 0, 64, 90
1, 361573, Note_on_c, 0, 84, 57
1, 361574, Note_on_c, 0, 65, 40
1, 361576, Control_c, 0, 64, 87
1, 361580, Note_on_c, 0, 57, 34
1, 361591, Control_c, 0, 64, 83
1, 361592, Note_on_c, 0, 72, 41
1, 361605, Control_c, 0, 64, 76
1, 361620, Control_c, 0, 64, 69
1, 361633, Note_off_c, 0, 86, 37
1, 361635, Control_c, 0, 64, 63
1, 361640, Note_off_c, 0, 53, 43
1, 361650, Control_c, 0, 64, 58
1, 361665, Control_c, 0, 64, 59
1, 361679, Control_c, 0, 64, 60
1, 361694, Control_c, 0, 64, 62
1, 361709, Control_c, 0, 64, 64
1, 361725, Control_c, 0, 64, 65
1, 361740, Control_c, 0, 64, 68
1, 361755, Control_c, 0, 64, 71
1, 361769, Control_c, 0, 64, 76
1, 361784, Control_c, 0, 64, 82
1, 361799, Control_c, 0, 64, 90
1, 361800, Note_on_c, 0, 63, 49
1, 361814, Control_c, 0, 64, 99
1, 361828, Control_c, 0, 64, 109
1, 361843, Control_c, 0, 64, 113
1, 361863, Note_off_c, 0, 65, 31
1, 361889, Note_off_c, 0, 63, 59
1, 361902, Control_c, 0, 64, 112
1, 361907, Note_off_c, 0, 57, 43
1, 361917, Control_c, 0, 64, 111
1, 361932, Control_c, 0, 64, 110
1, 361947, Control_c, 0, 64, 109
1, 361962, Control_c, 0, 64, 107
1, 361976, Control_c, 0, 64, 106
1, 361991, Control_c, 0, 64, 104
1, 362006, Control_c, 0, 64, 100
1, 362017, Note_on_c, 0, 55, 41
1, 362021, Control_c, 0, 64, 89
1, 362030, Note_on_c, 0, 63, 46
1, 362036, Control_c, 0, 64, 77
1, 362051, Control_c, 0, 64, 68
1, 362066, Control_c, 0, 64, 62
1, 362080, Control_c, 0, 64, 61
1, 362095, Control_c, 0, 64, 62
1, 362110, Control_c, 0, 64, 64
1, 362132, Control_c, 0, 64, 66
1, 362147, Control_c, 0, 64, 69
1, 362156, Note_off_c, 0, 55, 52
1, 362162, Control_c, 0, 64, 73
1, 362176, Control_c, 0, 64, 78
1, 362191, Control_c, 0, 64, 87
1, 362206, Control_c, 0, 64, 102
1, 362221, Control_c, 0, 64, 127
1, 362254, Note_on_c, 0, 57, 49
1, 362262, Note_off_c, 0, 63, 61
1, 362338, Note_off_c, 0, 57, 64
1, 362383, Note_off_c, 0, 72, 40
1, 362493, Note_on_c, 0, 53, 63
1, 362744, Note_on_c, 0, 41, 62
1, 362788, Note_off_c, 0, 53, 60
1, 362820, Note_off_c, 0, 41, 64
1, 363043, Control_c, 0, 64, 90
1, 363045, Note_on_c, 0, 34, 57
1, 363046, Note_on_c, 0, 46, 63
1, 363058, Control_c, 0, 64, 69
1, 363068, Note_on_c, 0, 86, 81
1, 363073, Control_c, 0, 64, 51
1, 363078, Note_on_c, 0, 74, 61
1, 363088, Control_c, 0, 64, 29
1, 363088, Note_off_c, 0, 84, 58
1, 363103, Control_c, 0, 64, 38
1, 363117, Control_c, 0, 64, 52
1, 363132, Control_c, 0, 64, 61
1, 363145, Note_off_c, 0, 34, 61
1, 363147, Control_c, 0, 64, 67
1, 363154, Note_off_c, 0, 46, 64
1, 363162, Control_c, 0, 64, 75
1, 363176, Control_c, 0, 64, 94
1, 363191, Control_c, 0, 64, 127
1, 363362, Note_on_c, 0, 72, 71
1, 363368, Note_off_c, 0, 74, 61
1, 363386, Note_on_c, 0, 62, 43
1, 363396, Note_on_c, 0, 64, 48
1, 363444, Note_off_c, 0, 64, 51
1, 363517, Note_off_c, 0, 62, 59
1, 363542, Note_on_c, 0, 70, 57
1, 363550, Note_off_c, 0, 72, 62
1, 363557, Note_off_c, 0, 86, 53
1, 363558, Note_on_c, 0, 87, 89
1, 363564, Note_on_c, 0, 75, 88
1, 363577, Note_off_c, 0, 70, 65
1, 363772, Note_on_c, 0, 60, 75
1, 363778, Note_on_c, 0, 68, 82
1, 363796, Note_off_c, 0, 75, 61
1, 363947, Note_on_c, 0, 62, 59
1, 363955, Note_on_c, 0, 58, 66
1, 363969, Note_off_c, 0, 68, 61
1, 363974, Note_on_c, 0, 89, 97
1, 363977, Note_on_c, 0, 77, 94
1, 363991, Note_off_c, 0, 60, 62
1, 364009, Note_off_c, 0, 62, 63
1, 364026, Note_off_c, 0, 58, 64
1, 364092, Note_off_c, 0, 87, 40
1, 364176, Note_on_c, 0, 46, 81
1, 364304, Note_off_c, 0, 77, 55
1, 364392, Note_on_c, 0, 39, 71
1, 364407, Control_c, 0, 64, 94
1, 364421, Control_c, 0, 64, 69
1, 364424, Note_on_c, 0, 91, 104
1, 364432, Note_on_c, 0, 79, 87
1, 364436, Control_c, 0, 64, 0
1, 364456, Note_off_c, 0, 46, 61
1, 364468, Note_off_c, 0, 89, 61
1, 364510, Control_c, 0, 64, 52
1, 364522, Note_off_c, 0, 39, 63
1, 364525, Control_c, 0, 64, 66
1, 364540, Control_c, 0, 64, 77
1, 364555, Control_c, 0, 64, 110
1, 364570, Control_c, 0, 64, 127
1, 364678, Note_on_c, 0, 67, 69
1, 364683, Note_on_c, 0, 58, 61
1, 364697, Note_off_c, 0, 91, 58
1, 364784, Note_off_c, 0, 79, 57
1, 364894, Note_on_c, 0, 62, 63
1, 364933, Note_off_c, 0, 67, 59
1, 364978, Note_off_c, 0, 58, 32
1, 365074, Control_c, 0, 64, 123
1, 365089, Control_c, 0, 64, 112
1, 365104, Control_c, 0, 64, 105
1, 365126, Control_c, 0, 64, 100
1, 365132, Note_off_c, 0, 62, 59
1, 365139, Note_on_c, 0, 55, 59
1, 365141, Control_c, 0, 64, 95
1, 365147, Note_on_c, 0, 63, 58
1, 365156, Control_c, 0, 64, 92
1, 365161, Note_on_c, 0, 86, 86
1, 365169, Note_on_c, 0, 74, 74
1, 365171, Control_c, 0, 64, 90
1, 365186, Control_c, 0, 64, 87
1, 365200, Control_c, 0, 64, 85
1, 365215, Control_c, 0, 64, 81
1, 365230, Control_c, 0, 64, 77
1, 365244, Control_c, 0, 64, 72
1, 365259, Control_c, 0, 64, 68
1, 365274, Control_c, 0, 64, 64
1, 365289, Control_c, 0, 64, 63
1, 365304, Control_c, 0, 64, 63
1, 365318, Control_c, 0, 64, 64
1, 365333, Control_c, 0, 64, 65
1, 365348, Control_c, 0, 64, 67
1, 365363, Control_c, 0, 64, 70
1, 365377, Control_c, 0, 64, 74
1, 365392, Control_c, 0, 64, 81
1, 365404, Note_off_c, 0, 63, 61
1, 365407, Control_c, 0, 64, 94
1, 365422, Control_c, 0, 64, 127
1, 365434, Note_on_c, 0, 58, 70
1, 365439, Note_off_c, 0, 55, 58
1, 365494, Note_off_c, 0, 58, 63
1, 365580, Note_off_c, 0, 74, 47
1, 365704, Control_c, 0, 64, 118
1, 365720, Control_c, 0, 64, 111
1, 365734, Control_c, 0, 64, 106
1, 365739, Note_on_c, 0, 34, 56
1, 365749, Control_c, 0, 64, 103
1, 365764, Control_c, 0, 64, 101
1, 365779, Control_c, 0, 64, 99
1, 365794, Control_c, 0, 64, 97
1, 365808, Control_c, 0, 64, 94
1, 365823, Control_c, 0, 64, 93
1, 365838, Control_c, 0, 64, 91
1, 365853, Poly_aftertouch_c, 0, 46, 127
1, 365853, Control_c, 0, 64, 89
1, 365875, Control_c, 0, 64, 87
1, 365890, Control_c, 0, 64, 85
1, 365905, Control_c, 0, 64, 84
1, 365906, Poly_aftertouch_c, 0, 46, 0
1, 365920, Control_c, 0, 64, 82
1, 365935, Control_c, 0, 64, 80
1, 365949, Control_c, 0, 64, 77
1, 365964, Control_c, 0, 64, 75
1, 365979, Control_c, 0, 64, 74
1, 365994, Control_c, 0, 64, 72
1, 366009, Control_c, 0, 64, 71
1, 366023, Control_c, 0, 64, 70
1, 366038, Control_c, 0, 64, 69
1, 366053, Control_c, 0, 64, 68
1, 366067, Control_c, 0, 64, 67
1, 366082, Control_c, 0, 64, 65
1, 366097, Control_c, 0, 64, 63
1, 366112, Control_c, 0, 64, 60
1, 366120, Note_on_c, 0, 33, 35
1, 366127, Control_c, 0, 64, 55
1, 366135, Note_off_c, 0, 34, 35
1, 366141, Control_c, 0, 64, 44
1, 366155, Note_on_c, 0, 85, 43
1, 366156, Control_c, 0, 64, 13
1, 366171, Control_c, 0, 64, 0
1, 366176, Note_on_c, 0, 73, 37
1, 366202, Note_off_c, 0, 86, 39
1, 366245, Control_c, 0, 64, 46
1, 366260, Note_off_c, 0, 33, 57
1, 366260, Control_c, 0, 64, 63
1, 366275, Control_c, 0, 64, 73
1, 366290, Control_c, 0, 64, 99
1, 366304, Control_c, 0, 64, 127
1, 366479, Note_off_c, 0, 73, 30
1, 366503, Note_on_c, 0, 61, 38
1, 366517, Note_on_c, 0, 70, 44
1, 366725, Note_off_c, 0, 61, 36
1, 366747, Note_off_c, 0, 70, 37
1, 366779, Note_on_c, 0, 69, 40
1, 366793, Note_on_c, 0, 86, 57
1, 366814, Note_on_c, 0, 74, 39
1, 366835, Note_off_c, 0, 69, 56
1, 366845, Note_off_c, 0, 85, 48
1, 366990, Note_on_c, 0, 67, 43
1, 366992, Note_on_c, 0, 58, 36
1, 367050, Note_off_c, 0, 74, 38
1, 367056, Note_off_c, 0, 58, 54
1, 367207, Note_on_c, 0, 88, 77
1, 367210, Note_on_c, 0, 57, 40
1, 367211, Note_off_c, 0, 67, 29
1, 367217, Note_on_c, 0, 61, 40
1, 367228, Note_on_c, 0, 76, 54
1, 367246, Note_off_c, 0, 61, 59
1, 367248, Note_off_c, 0, 57, 65
1, 367250, Note_off_c, 0, 86, 54
1, 367443, Note_on_c, 0, 45, 47
1, 367531, Note_off_c, 0, 76, 33
1, 367654, Control_c, 0, 64, 118
1, 367666, Note_off_c, 0, 45, 51
1, 367669, Control_c, 0, 64, 99
1, 367681, Note_on_c, 0, 38, 41
1, 367684, Control_c, 0, 64, 79
1, 367699, Control_c, 0, 64, 59
1, 367705, Note_on_c, 0, 89, 71
1, 367713, Control_c, 0, 64, 0
1, 367725, Note_on_c, 0, 77, 43
1, 367732, Note_off_c, 0, 88, 59
1, 367758, Control_c, 0, 64, 32
1, 367773, Control_c, 0, 64, 57
1, 367786, Note_off_c, 0, 38, 62
1, 367787, Control_c, 0, 64, 68
1, 367802, Control_c, 0, 64, 83
1, 367817, Control_c, 0, 64, 127
1, 367976, Note_on_c, 0, 69, 45
1, 367980, Note_on_c, 0, 57, 51
1, 368078, Note_off_c, 0, 77, 51
1, 368126, Note_off_c, 0, 57, 38
1, 368212, Note_on_c, 0, 65, 49
1, 368215, Note_off_c, 0, 69, 35
1, 368239, Note_off_c, 0, 65, 63
1, 368475, Note_on_c, 0, 36, 53
1, 368477, Control_c, 0, 64, 110
1, 368492, Control_c, 0, 64, 81
1, 368494, Note_on_c, 0, 87, 64
1, 368507, Control_c, 0, 64, 63
1, 368511, Note_on_c, 0, 75, 45
1, 368522, Control_c, 0, 64, 0
1, 368567, Control_c, 0, 64, 39
1, 368581, Control_c, 0, 64, 57
1, 368596, Control_c, 0, 64, 66
1, 368597, Note_off_c, 0, 89, 34
1, 368599, Note_off_c, 0, 36, 64
1, 368611, Control_c, 0, 64, 75
1, 368626, Control_c, 0, 64, 109
1, 368641, Control_c, 0, 64, 127
1, 368802, Note_on_c, 0, 69, 44
1, 368802, Note_on_c, 0, 57, 52
1, 368885, Note_off_c, 0, 75, 36
1, 368933, Note_off_c, 0, 87, 57
1, 369143, Note_on_c, 0, 66, 55
1, 369151, Note_off_c, 0, 69, 36
1, 369208, Note_off_c, 0, 57, 38
1, 369213, Note_off_c, 0, 66, 63
1, 369533, Note_on_c, 0, 34, 58
1, 369537, Note_on_c, 0, 46, 60
1, 369537, Control_c, 0, 64, 110
1, 369551, Control_c, 0, 64, 73
1, 369552, Note_on_c, 0, 86, 77
1, 369565, Note_on_c, 0, 74, 56
1, 369566, Control_c, 0, 64, 54
1, 369581, Control_c, 0, 64, 0
1, 369633, Control_c, 0, 64, 42
1, 369648, Control_c, 0, 64, 59
1, 369663, Control_c, 0, 64, 67
1, 369678, Control_c, 0, 64, 77
1, 369692, Control_c, 0, 64, 104
1, 369694, Note_off_c, 0, 34, 60
1, 369708, Control_c, 0, 64, 127
1, 369732, Note_off_c, 0, 46, 63
1, 369852, Note_off_c, 0, 74, 38
1, 369947, Note_on_c, 0, 67, 65
1, 369956, Note_on_c, 0, 58, 55
1, 370192, Note_on_c, 0, 65, 56
1, 370194, Note_on_c, 0, 87, 80
1, 370202, Note_on_c, 0, 75, 70
1, 370217, Note_off_c, 0, 67, 54
1, 370220, Note_off_c, 0, 58, 53
1, 370242, Note_off_c, 0, 86, 58
1, 370294, Note_off_c, 0, 65, 60
1, 370409, Note_on_c, 0, 63, 72
1, 370413, Note_off_c, 0, 75, 61
1, 370416, Note_on_c, 0, 53, 52
1, 370502, Poly_aftertouch_c, 0, 64, 127
1, 370532, Poly_aftertouch_c, 0, 64, 0
1, 370553, Note_off_c, 0, 53, 51
1, 370597, Note_on_c, 0, 62, 62
1, 370606, Note_off_c, 0, 63, 63
1, 370616, Note_on_c, 0, 89, 97
1, 370621, Note_on_c, 0, 77, 86
1, 370680, Note_off_c, 0, 87, 54
1, 370692, Note_off_c, 0, 62, 59
1, 370800, Note_on_c, 0, 50, 63
1, 370803, Note_on_c, 0, 60, 67
1, 370838, Note_off_c, 0, 50, 65
1, 370840, Note_off_c, 0, 60, 64
1, 370916, Note_off_c, 0, 77, 50
1, 371005, Note_on_c, 0, 43, 63
1, 371013, Note_on_c, 0, 58, 62
1, 371020, Control_c, 0, 64, 113
1, 371028, Note_on_c, 0, 91, 95
1, 371032, Note_on_c, 0, 79, 85
1, 371035, Control_c, 0, 64, 74
1, 371049, Control_c, 0, 64, 42
1, 371064, Control_c, 0, 64, 0
1, 371074, Note_off_c, 0, 89, 60
1, 371094, Control_c, 0, 64, 50
1, 371107, Note_off_c, 0, 43, 64
1, 371116, Control_c, 0, 64, 64
1, 371130, Control_c, 0, 64, 76
1, 371145, Control_c, 0, 64, 127
1, 371151, Note_off_c, 0, 58, 64
1, 371265, Note_on_c, 0, 72, 84
1, 371277, Note_on_c, 0, 62, 68
1, 371334, Note_off_c, 0, 79, 47
1, 371460, Note_on_c, 0, 70, 67
1, 371483, Note_off_c, 0, 62, 62
1, 371484, Note_on_c, 0, 93, 97
1, 371494, Note_on_c, 0, 81, 87
1, 371518, Note_off_c, 0, 72, 62
1, 371552, Note_off_c, 0, 91, 54
1, 371573, Note_off_c, 0, 70, 63
1, 371719, Note_on_c, 0, 69, 89
1, 371727, Note_on_c, 0, 58, 77
1, 371796, Note_off_c, 0, 81, 60
1, 371888, Note_off_c, 0, 58, 56
1, 371943, Note_off_c, 0, 93, 60
1, 371971, Note_on_c, 0, 67, 58
1, 371978, Note_on_c, 0, 94, 99
1, 371986, Note_on_c, 0, 82, 89
1, 372008, Note_off_c, 0, 69, 60
1, 372043, Note_off_c, 0, 67, 63
1, 372254, Note_on_c, 0, 55, 68
1, 372258, Note_on_c, 0, 65, 71
1, 372308, Note_off_c, 0, 65, 61
1, 372312, Note_off_c, 0, 55, 63
1, 372316, Note_off_c, 0, 82, 62
1, 372555, Note_on_c, 0, 42, 64
1, 372561, Note_on_c, 0, 54, 70
1, 372563, Control_c, 0, 64, 80
1, 372576, Note_on_c, 0, 96, 94
1, 372577, Control_c, 0, 64, 58
1, 372585, Note_on_c, 0, 84, 84
1, 372592, Control_c, 0, 64, 0
1, 372637, Note_off_c, 0, 94, 63
1, 372644, Control_c, 0, 64, 39
1, 372659, Control_c, 0, 64, 60
1, 372674, Control_c, 0, 64, 68
1, 372689, Control_c, 0, 64, 82
1, 372695, Note_off_c, 0, 42, 63
1, 372703, Control_c, 0, 64, 127
1, 372714, Note_off_c, 0, 54, 64
1, 372800, Note_off_c, 0, 96, 59
1, 372900, Note_on_c, 0, 72, 73
1, 372906, Note_on_c, 0, 64, 63
1, 372983, Note_off_c, 0, 64, 60
1, 373122, Note_on_c, 0, 70, 71
1, 373137, Note_off_c, 0, 72, 62
1, 373168, Note_off_c, 0, 70, 67
1, 373363, Control_c, 0, 64, 106
1, 373366, Note_on_c, 0, 41, 73
1, 373371, Note_on_c, 0, 53, 74
1, 373378, Control_c, 0, 64, 69
1, 373388, Note_on_c, 0, 89, 96
1, 373393, Note_on_c, 0, 77, 86
1, 373393, Control_c, 0, 64, 38
1, 373407, Control_c, 0, 64, 0
1, 373434, Note_off_c, 0, 84, 61
1, 373437, Control_c, 0, 64, 21
1, 373451, Control_c, 0, 64, 51
1, 373466, Control_c, 0, 64, 63
1, 373472, Note_off_c, 0, 41, 63
1, 373481, Control_c, 0, 64, 73
1, 373496, Control_c, 0, 64, 93
1, 373509, Note_off_c, 0, 53, 65
1, 373511, Control_c, 0, 64, 127
1, 373646, Note_on_c, 0, 60, 54
1, 373652, Note_on_c, 0, 69, 66
1, 373843, Note_off_c, 0, 69, 61
1, 373859, Note_on_c, 0, 63, 69
1, 373867, Note_off_c, 0, 60, 64
1, 373914, Note_off_c, 0, 63, 63
1, 373965, Note_off_c, 0, 77, 58
1, 374089, Control_c, 0, 64, 123
1, 374092, Note_on_c, 0, 34, 61
1, 374108, Note_on_c, 0, 46, 63
1, 374111, Control_c, 0, 64, 78
1, 374117, Note_on_c, 0, 87, 80
1, 374120, Note_on_c, 0, 75, 81
1, 374126, Control_c, 0, 64, 51
1, 374141, Control_c, 0, 64, 0
1, 374186, Control_c, 0, 64, 33
1, 374201, Control_c, 0, 64, 57
1, 374201, Note_off_c, 0, 89, 46
1, 374216, Control_c, 0, 64, 67
1, 374221, Note_off_c, 0, 46, 64
1, 374226, Note_off_c, 0, 34, 62
1, 374230, Control_c, 0, 64, 79
1, 374245, Control_c, 0, 64, 127
1, 374432, Note_on_c, 0, 55, 55
1, 374460, Note_on_c, 0, 67, 30
1, 374576, Note_off_c, 0, 55, 58
1, 374657, Note_on_c, 0, 58, 39
1, 374756, Note_off_c, 0, 67, 36
1, 374764, Control_c, 0, 64, 123
1, 374778, Control_c, 0, 64, 119
1, 374793, Control_c, 0, 64, 115
1, 374808, Control_c, 0, 64, 111
1, 374823, Control_c, 0, 64, 107
1, 374838, Control_c, 0, 64, 106
1, 374860, Control_c, 0, 64, 104
1, 374875, Control_c, 0, 64, 104
1, 374889, Control_c, 0, 64, 102
1, 374892, Note_off_c, 0, 75, 31
1, 374904, Control_c, 0, 64, 100
1, 374919, Control_c, 0, 64, 97
1, 374934, Control_c, 0, 64, 94
1, 374949, Control_c, 0, 64, 92
1, 374952, Note_on_c, 0, 53, 38
1, 374964, Control_c, 0, 64, 91
1, 374978, Control_c, 0, 64, 90
1, 374988, Note_off_c, 0, 58, 33
1, 374990, Note_on_c, 0, 65, 40
1, 374990, Note_on_c, 0, 86, 58
1, 374993, Control_c, 0, 64, 88
1, 374997, Note_on_c, 0, 74, 46
1, 375008, Control_c, 0, 64, 86
1, 375023, Control_c, 0, 64, 84
1, 375035, Note_off_c, 0, 87, 48
1, 375038, Control_c, 0, 64, 82
1, 375052, Control_c, 0, 64, 79
1, 375067, Control_c, 0, 64, 76
1, 375082, Control_c, 0, 64, 73
1, 375096, Control_c, 0, 64, 71
1, 375111, Control_c, 0, 64, 68
1, 375125, Control_c, 0, 64, 66
1, 375140, Control_c, 0, 64, 63
1, 375155, Control_c, 0, 64, 60
1, 375170, Control_c, 0, 64, 54
1, 375185, Control_c, 0, 64, 45
1, 375199, Control_c, 0, 64, 34
1, 375214, Control_c, 0, 64, 23
1, 375229, Control_c, 0, 64, 0
1, 375274, Control_c, 0, 64, 17
1, 375289, Control_c, 0, 64, 39
1, 375289, Note_on_c, 0, 58, 34
1, 375297, Note_off_c, 0, 65, 60
1, 375304, Control_c, 0, 64, 54
1, 375319, Control_c, 0, 64, 62
1, 375334, Control_c, 0, 64, 68
1, 375337, Note_off_c, 0, 58, 64
1, 375343, Note_off_c, 0, 53, 56
1, 375348, Control_c, 0, 64, 77
1, 375363, Control_c, 0, 64, 94
1, 375378, Control_c, 0, 64, 127
1, 375502, Note_off_c, 0, 74, 35
1, 375566, Note_off_c, 0, 86, 47
1, 375656, Note_on_c, 0, 41, 38
1, 375697, Control_c, 0, 64, 119
1, 375712, Control_c, 0, 64, 113
1, 375726, Control_c, 0, 64, 110
1, 375741, Control_c, 0, 64, 107
1, 375756, Control_c, 0, 64, 106
1, 375771, Control_c, 0, 64, 105
1, 375786, Control_c, 0, 64, 104
1, 375800, Control_c, 0, 64, 103
1, 375815, Control_c, 0, 64, 102
1, 375830, Control_c, 0, 64, 100
1, 375844, Control_c, 0, 64, 99
1, 375859, Control_c, 0, 64, 99
1, 375875, Control_c, 0, 64, 98
1, 375890, Control_c, 0, 64, 97
1, 375905, Control_c, 0, 64, 97
1, 375920, Control_c, 0, 64, 96
1, 375949, Control_c, 0, 64, 95
1, 375964, Control_c, 0, 64, 94
1, 375979, Control_c, 0, 64, 94
1, 375993, Control_c, 0, 64, 93
1, 376023, Control_c, 0, 64, 92
1, 376052, Control_c, 0, 64, 92
1, 376082, Control_c, 0, 64, 91
1, 376098, Control_c, 0, 64, 91
1, 376157, Control_c, 0, 64, 90
1, 376162, Note_on_c, 0, 34, 30
1, 376172, Control_c, 0, 64, 90
1, 376186, Note_on_c, 0, 46, 31
1, 376187, Control_c, 0, 64, 89
1, 376202, Control_c, 0, 64, 87
1, 376216, Control_c, 0, 64, 80
1, 376231, Control_c, 0, 64, 70
1, 376236, Note_on_c, 0, 94, 60
1, 376246, Control_c, 0, 64, 60
1, 376261, Note_on_c, 0, 82, 22
1, 376261, Control_c, 0, 64, 33
1, 376267, Note_off_c, 0, 41, 41
1, 376276, Control_c, 0, 64, 25
1, 376290, Control_c, 0, 64, 29
1, 376305, Control_c, 0, 64, 41
1, 376320, Control_c, 0, 64, 54
1, 376335, Control_c, 0, 64, 62
1, 376357, Control_c, 0, 64, 68
1, 376372, Control_c, 0, 64, 76
1, 376381, Note_off_c, 0, 34, 52
1, 376387, Control_c, 0, 64, 93
1, 376402, Control_c, 0, 64, 127
1, 376410, Note_off_c, 0, 46, 55
1, 376421, Note_off_c, 0, 94, 59
1, 376716, Note_on_c, 0, 68, 40
1, 376717, Note_on_c, 0, 60, 35
1, 376970, Note_on_c, 0, 62, 31
1, 376985, Note_off_c, 0, 60, 37
1, 377217, Note_on_c, 0, 58, 30
1, 377229, Note_on_c, 0, 67, 37
1, 377251, Note_off_c, 0, 68, 34
1, 377252, Note_on_c, 0, 84, 51
1, 377265, Note_on_c, 0, 72, 38
1, 377336, Note_off_c, 0, 82, 31
1, 377380, Note_off_c, 0, 62, 25
1, 377388, Note_off_c, 0, 58, 33
1, 377421, Note_on_c, 0, 60, 25
1, 377614, Note_on_c, 0, 57, 37
1, 377625, Note_on_c, 0, 66, 33
1, 377629, Note_off_c, 0, 72, 38
1, 377733, Note_off_c, 0, 57, 61
1, 377763, Note_off_c, 0, 67, 35
1, 377796, Note_on_c, 0, 83, 66
1, 377809, Note_on_c, 0, 61, 33
1, 377828, Note_on_c, 0, 71, 44
1, 377832, Note_off_c, 0, 84, 33
1, 377900, Control_c, 0, 64, 118
1, 377915, Control_c, 0, 64, 113
1, 377929, Note_off_c, 0, 61, 37
1, 377929, Control_c, 0, 64, 109
1, 377944, Control_c, 0, 64, 105
1, 377959, Control_c, 0, 64, 102
1, 377974, Control_c, 0, 64, 99
1, 377989, Control_c, 0, 64, 96
1, 378001, Note_on_c, 0, 56, 36
1, 378003, Control_c, 0, 64, 92
1, 378018, Control_c, 0, 64, 85
1, 378022, Note_on_c, 0, 65, 38
1, 378033, Control_c, 0, 64, 75
1, 378047, Control_c, 0, 64, 67
1, 378062, Control_c, 0, 64, 62
1, 378077, Control_c, 0, 64, 61
1, 378092, Control_c, 0, 64, 62
1, 378107, Control_c, 0, 64, 64
1, 378121, Control_c, 0, 64, 65
1, 378136, Control_c, 0, 64, 68
1, 378151, Control_c, 0, 64, 72
1, 378166, Control_c, 0, 64, 79
1, 378181, Control_c, 0, 64, 90
1, 378192, Note_off_c, 0, 71, 59
1, 378195, Control_c, 0, 64, 111
1, 378205, Note_on_c, 0, 62, 40
1, 378210, Control_c, 0, 64, 127
1, 378231, Note_off_c, 0, 66, 33
1, 378251, Note_off_c, 0, 65, 36
1, 378252, Note_off_c, 0, 60, 19
1, 378266, Note_off_c, 0, 62, 60
1, 378328, Note_off_c, 0, 56, 40
1, 378388, Note_on_c, 0, 82, 71
1, 378424, Note_on_c, 0, 70, 44
1, 378544, Note_off_c, 0, 83, 39
1, 378552, Control_c, 0, 64, 111
1, 378567, Control_c, 0, 64, 98
1, 378582, Control_c, 0, 64, 84
1, 378603, Note_on_c, 0, 46, 41
1, 378604, Control_c, 0, 64, 70
1, 378619, Control_c, 0, 64, 61
1, 378633, Control_c, 0, 64, 52
1, 378648, Control_c, 0, 64, 54
1, 378663, Control_c, 0, 64, 58
1, 378678, Control_c, 0, 64, 61
1, 378690, Note_off_c, 0, 70, 64
1, 378693, Control_c, 0, 64, 65
1, 378708, Control_c, 0, 64, 68
1, 378723, Control_c, 0, 64, 72
1, 378738, Control_c, 0, 64, 80
1, 378752, Control_c, 0, 64, 92
1, 378767, Control_c, 0, 64, 123
1, 378782, Control_c, 0, 64, 127
1, 378802, Note_off_c, 0, 82, 65
1, 378819, Note_on_c, 0, 34, 37
1, 378976, Note_off_c, 0, 34, 42
1, 378985, Note_off_c, 0, 46, 40
1, 379067, Note_on_c, 0, 89, 80
1, 379098, Note_on_c, 0, 77, 51
1, 379205, Note_off_c, 0, 89, 61
1, 379305, Note_on_c, 0, 65, 40
1, 379306, Note_on_c, 0, 56, 35
1, 379497, Note_on_c, 0, 59, 35
1, 379536, Note_off_c, 0, 65, 54
1, 379581, Note_off_c, 0, 56, 38
1, 379687, Note_off_c, 0, 59, 41
1, 379693, Note_on_c, 0, 55, 38
1, 379698, Note_on_c, 0, 63, 40
1, 379698, Note_on_c, 0, 80, 73
1, 379739, Note_on_c, 0, 68, 35
1, 379863, Note_off_c, 0, 55, 35
1, 379892, Note_on_c, 0, 56, 26
1, 379965, Note_off_c, 0, 63, 55
1, 379969, Note_off_c, 0, 77, 28
1, 379975, Note_off_c, 0, 56, 38
1, 380065, Note_on_c, 0, 62, 43
1, 380073, Note_on_c, 0, 53, 38
1, 380156, Note_off_c, 0, 53, 56
1, 380201, Note_off_c, 0, 68, 38
1, 380235, Note_on_c, 0, 57, 16
1, 380241, Note_on_c, 0, 79, 76
1, 380259, Note_on_c, 0, 67, 49
1, 380320, Note_off_c, 0, 80, 61
1, 380431, Note_on_c, 0, 52, 53
1, 380443, Note_on_c, 0, 61, 63
1, 380472, Control_c, 0, 64, 107
1, 380477, Note_off_c, 0, 57, 41
1, 380487, Control_c, 0, 64, 89
1, 380502, Control_c, 0, 64, 77
1, 380516, Control_c, 0, 64, 71
1, 380531, Control_c, 0, 64, 69
1, 380546, Control_c, 0, 64, 70
1, 380561, Control_c, 0, 64, 72
1, 380576, Control_c, 0, 64, 76
1, 380590, Control_c, 0, 64, 86
1, 380605, Control_c, 0, 64, 107
1, 380616, Note_off_c, 0, 62, 47
1, 380618, Note_on_c, 0, 58, 69
1, 380620, Control_c, 0, 64, 127
1, 380640, Note_off_c, 0, 67, 61
1, 380699, Note_off_c, 0, 61, 60
1, 380755, Note_off_c, 0, 52, 37
1, 380757, Note_off_c, 0, 58, 63
1, 380807, Note_on_c, 0, 78, 83
1, 380824, Note_on_c, 0, 66, 64
1, 380967, Note_off_c, 0, 79, 51
1, 381018, Note_on_c, 0, 46, 67
1, 381028, Control_c, 0, 64, 123
1, 381043, Control_c, 0, 64, 82
1, 381058, Control_c, 0, 64, 65
1, 381073, Control_c, 0, 64, 44
1, 381088, Control_c, 0, 64, 38
1, 381102, Control_c, 0, 64, 47
1, 381117, Control_c, 0, 64, 58
1, 381132, Control_c, 0, 64, 64
1, 381146, Control_c, 0, 64, 71
1, 381149, Note_off_c, 0, 66, 62
1, 381161, Control_c, 0, 64, 84
1, 381176, Control_c, 0, 64, 127
1, 381236, Note_on_c, 0, 34, 61
1, 381254, Note_off_c, 0, 78, 63
1, 381376, Note_off_c, 0, 34, 59
1, 381409, Note_off_c, 0, 46, 50
1, 381483, Note_on_c, 0, 87, 90
1, 381504, Note_on_c, 0, 75, 63
1, 381682, Note_off_c, 0, 87, 62
1, 381713, Note_on_c, 0, 60, 66
1, 381720, Note_on_c, 0, 51, 60
1, 381895, Note_on_c, 0, 54, 60
1, 381973, Note_off_c, 0, 60, 63
1, 382038, Note_off_c, 0, 51, 33
1, 382090, Note_on_c, 0, 50, 56
1, 382107, Note_on_c, 0, 78, 85
1, 382118, Note_on_c, 0, 58, 58
1, 382119, Note_off_c, 0, 54, 58
1, 382128, Note_on_c, 0, 66, 61
1, 382291, Note_off_c, 0, 50, 61
1, 382309, Note_on_c, 0, 51, 48
1, 382423, Note_off_c, 0, 58, 62
1, 382456, Note_off_c, 0, 51, 35
1, 382464, Note_off_c, 0, 75, 28
1, 382500, Note_on_c, 0, 57, 64
1, 382509, Note_on_c, 0, 48, 60
1, 382632, Note_off_c, 0, 66, 38
1, 382652, Note_off_c, 0, 48, 60
1, 382656, Note_on_c, 0, 53, 59
1, 382667, Note_on_c, 0, 77, 85
1, 382677, Note_on_c, 0, 65, 71
1, 382745, Note_off_c, 0, 78, 21
1, 382860, Note_on_c, 0, 47, 65
1, 382863, Note_on_c, 0, 56, 78
1, 382866, Control_c, 0, 64, 107
1, 382881, Control_c, 0, 64, 86
1, 382896, Control_c, 0, 64, 74
1, 382904, Note_off_c, 0, 53, 61
1, 382911, Control_c, 0, 64, 65
1, 382926, Control_c, 0, 64, 60
1, 382956, Control_c, 0, 64, 62
1, 382971, Control_c, 0, 64, 65
1, 382985, Control_c, 0, 64, 68
1, 382996, Note_off_c, 0, 57, 59
1, 383000, Control_c, 0, 64, 74
1, 383015, Control_c, 0, 64, 85
1, 383030, Control_c, 0, 64, 127
1, 383066, Note_on_c, 0, 54, 85
1, 383130, Note_off_c, 0, 65, 60
1, 383220, Note_off_c, 0, 56, 62
1, 383260, Note_off_c, 0, 54, 65
1, 383274, Note_off_c, 0, 47, 47
1, 383278, Note_on_c, 0, 75, 91
1, 383282, Note_on_c, 0, 63, 83
1, 383385, Note_off_c, 0, 77, 42
1, 383555, Note_on_c, 0, 42, 81
1, 383764, Control_c, 0, 64, 107
1, 383778, Control_c, 0, 64, 76
1, 383793, Control_c, 0, 64, 58
1, 383805, Note_on_c, 0, 30, 83
1, 383808, Control_c, 0, 64, 0
1, 383845, Control_c, 0, 64, 34
1, 383860, Control_c, 0, 64, 56
1, 383875, Control_c, 0, 64, 68
1, 383879, Note_off_c, 0, 63, 62
1, 383889, Control_c, 0, 64, 89
1, 383904, Control_c, 0, 64, 127
1, 383933, Note_off_c, 0, 75, 61
1, 384015, Note_off_c, 0, 30, 63
1, 384087, Note_off_c, 0, 42, 56
1, 384146, Note_on_c, 0, 84, 95
1, 384151, Note_on_c, 0, 72, 79
1, 384438, Note_off_c, 0, 84, 61
1, 384450, Note_on_c, 0, 42, 74
1, 384452, Note_off_c, 0, 72, 56
1, 384499, Note_on_c, 0, 44, 14
1, 384546, Note_off_c, 0, 44, 38
1, 384701, Note_on_c, 0, 48, 81
1, 384890, Note_off_c, 0, 42, 56
1, 384977, Note_on_c, 0, 57, 35
1, 385007, Note_on_c, 0, 75, 95
1, 385011, Note_on_c, 0, 63, 83
1, 385020, Note_on_c, 0, 69, 75
1, 385150, Note_off_c, 0, 48, 53
1, 385323, Note_on_c, 0, 42, 60
1, 385496, Note_off_c, 0, 75, 52
1, 385577, Note_on_c, 0, 48, 68
1, 385689, Note_off_c, 0, 63, 55
1, 385714, Note_off_c, 0, 42, 54
1, 385785, Poly_aftertouch_c, 0, 55, 127
1, 385798, Note_on_c, 0, 74, 90
1, 385808, Note_on_c, 0, 62, 72
1, 385901, Note_off_c, 0, 57, 41
1, 385952, Poly_aftertouch_c, 0, 55, 0
1, 386014, Note_on_c, 0, 42, 75
1, 386208, Note_on_c, 0, 50, 80
1, 386215, Note_off_c, 0, 48, 0
1, 386253, Poly_aftertouch_c, 0, 48, 127
1, 386266, Note_off_c, 0, 62, 60
1, 386289, Note_off_c, 0, 74, 52
1, 386395, Note_off_c, 0, 42, 59
1, 386411, Note_on_c, 0, 73, 95
1, 386413, Note_on_c, 0, 61, 92
1, 386473, Poly_aftertouch_c, 0, 48, 0
1, 386598, Note_on_c, 0, 42, 82
1, 386648, Note_off_c, 0, 69, 54
1, 386704, Note_off_c, 0, 50, 47
1, 386787, Note_off_c, 0, 73, 57
1, 386795, Note_on_c, 0, 51, 97
1, 386830, Poly_aftertouch_c, 0, 46, 127
1, 386887, Note_off_c, 0, 61, 60
1, 386941, Note_off_c, 0, 42, 58
1, 387022, Poly_aftertouch_c, 0, 46, 0
1, 387028, Note_on_c, 0, 72, 96
1, 387029, Note_on_c, 0, 60, 89
1, 387037, Note_on_c, 0, 63, 78
1, 387165, Control_c, 0, 64, 110
1, 387180, Control_c, 0, 64, 93
1, 387195, Control_c, 0, 64, 80
1, 387210, Control_c, 0, 64, 70
1, 387224, Control_c, 0, 64, 63
1, 387239, Control_c, 0, 64, 58
1, 387254, Control_c, 0, 64, 59
1, 387267, Note_on_c, 0, 42, 72
1, 387269, Control_c, 0, 64, 62
1, 387285, Control_c, 0, 64, 64
1, 387300, Control_c, 0, 64, 67
1, 387315, Control_c, 0, 64, 70
1, 387329, Control_c, 0, 64, 76
1, 387332, Note_off_c, 0, 72, 55
1, 387344, Control_c, 0, 64, 89
1, 387359, Control_c, 0, 64, 127
1, 387376, Note_off_c, 0, 63, 59
1, 387379, Note_off_c, 0, 60, 60
1, 387397, Note_off_c, 0, 51, 57
1, 387444, Note_on_c, 0, 71, 95
1, 387446, Note_on_c, 0, 59, 92
1, 387449, Note_on_c, 0, 64, 80
1, 387538, Note_off_c, 0, 42, 58
1, 387570, Note_on_c, 0, 52, 80
1, 387603, Note_on_c, 0, 53, 53
1, 387628, Note_off_c, 0, 53, 61
1, 387642, Note_off_c, 0, 52, 66
1, 387693, Note_off_c, 0, 71, 59
1, 387722, Note_off_c, 0, 59, 55
1, 387736, Note_off_c, 0, 64, 51
1, 387850, Note_on_c, 0, 30, 86
1, 387887, Note_on_c, 0, 70, 91
1, 387888, Note_on_c, 0, 58, 93
1, 387899, Note_on_c, 0, 64, 75
1, 387901, Control_c, 0, 64, 74
1, 387915, Control_c, 0, 64, 50
1, 387930, Control_c, 0, 64, 0
1, 387975, Control_c, 0, 64, 39
1, 387989, Control_c, 0, 64, 59
1, 388004, Control_c, 0, 64, 69
1, 388019, Control_c, 0, 64, 85
1, 388026, Note_off_c, 0, 30, 61
1, 388034, Control_c, 0, 64, 127
1, 388228, Note_on_c, 0, 42, 67
1, 388441, Note_on_c, 0, 48, 69
1, 388785, Note_on_c, 0, 54, 80
1, 388789, Note_on_c, 0, 66, 56
1, 388793, Note_off_c, 0, 42, 25
1, 388842, Control_c, 0, 64, 111
1, 388857, Control_c, 0, 64, 105
1, 388872, Control_c, 0, 64, 101
1, 388888, Control_c, 0, 64, 99
1, 388902, Control_c, 0, 64, 97
1, 388917, Control_c, 0, 64, 94
1, 388932, Control_c, 0, 64, 92
1, 388944, Note_off_c, 0, 64, 38
1, 388946, Control_c, 0, 64, 90
1, 388961, Control_c, 0, 64, 89
1, 388976, Control_c, 0, 64, 88
1, 388991, Control_c, 0, 64, 87
1, 389006, Control_c, 0, 64, 86
1, 389020, Control_c, 0, 64, 85
1, 389035, Control_c, 0, 64, 83
1, 389050, Control_c, 0, 64, 82
1, 389065, Control_c, 0, 64, 81
1, 389087, Control_c, 0, 64, 79
1, 389102, Control_c, 0, 64, 76
1, 389115, Note_on_c, 0, 42, 49
1, 389117, Control_c, 0, 64, 71
1, 389132, Control_c, 0, 64, 67
1, 389147, Control_c, 0, 64, 64
1, 389161, Control_c, 0, 64, 62
1, 389164, Note_off_c, 0, 48, 33
1, 389191, Control_c, 0, 64, 63
1, 389206, Control_c, 0, 64, 64
1, 389221, Control_c, 0, 64, 67
1, 389235, Control_c, 0, 64, 70
1, 389250, Control_c, 0, 64, 74
1, 389265, Control_c, 0, 64, 80
1, 389280, Control_c, 0, 64, 88
1, 389287, Note_on_c, 0, 65, 59
1, 389293, Note_on_c, 0, 53, 79
1, 389295, Control_c, 0, 64, 99
1, 389309, Control_c, 0, 64, 121
1, 389324, Control_c, 0, 64, 127
1, 389344, Note_off_c, 0, 54, 60
1, 389427, Control_c, 0, 64, 118
1, 389442, Control_c, 0, 64, 113
1, 389457, Control_c, 0, 64, 108
1, 389472, Control_c, 0, 64, 104
1, 389487, Control_c, 0, 64, 99
1, 389502, Control_c, 0, 64, 95
1, 389517, Control_c, 0, 64, 92
1, 389526, Note_off_c, 0, 42, 37
1, 389532, Control_c, 0, 64, 90
1, 389547, Control_c, 0, 64, 87
1, 389561, Control_c, 0, 64, 85
1, 389576, Control_c, 0, 64, 83
1, 389591, Control_c, 0, 64, 81
1, 389606, Control_c, 0, 64, 79
1, 389621, Control_c, 0, 64, 76
1, 389635, Control_c, 0, 64, 73
1, 389650, Control_c, 0, 64, 71
1, 389653, Note_on_c, 0, 49, 40
1, 389663, Note_on_c, 0, 52, 62
1, 389665, Control_c, 0, 64, 69
1, 389681, Control_c, 0, 64, 67
1, 389696, Control_c, 0, 64, 64
1, 389699, Note_on_c, 0, 64, 39
1, 389708, Note_off_c, 0, 65, 57
1, 389710, Control_c, 0, 64, 60
1, 389725, Control_c, 0, 64, 53
1, 389740, Control_c, 0, 64, 45
1, 389752, Note_off_c, 0, 66, 39
1, 389755, Control_c, 0, 64, 41
1, 389770, Control_c, 0, 64, 41
1, 389794, Note_off_c, 0, 53, 58
1, 389814, Control_c, 0, 64, 42
1, 389836, Control_c, 0, 64, 45
1, 389851, Control_c, 0, 64, 50
1, 389865, Control_c, 0, 64, 54
1, 389880, Control_c, 0, 64, 58
1, 389895, Control_c, 0, 64, 60
1, 389910, Control_c, 0, 64, 63
1, 389925, Control_c, 0, 64, 65
1, 389940, Control_c, 0, 64, 68
1, 389955, Control_c, 0, 64, 74
1, 389970, Control_c, 0, 64, 80
1, 389984, Control_c, 0, 64, 87
1, 389999, Control_c, 0, 64, 95
1, 390014, Control_c, 0, 64, 99
1, 390015, Note_off_c, 0, 52, 60
1, 390018, Note_on_c, 0, 42, 42
1, 390029, Control_c, 0, 64, 102
1, 390044, Control_c, 0, 64, 106
1, 390058, Control_c, 0, 64, 113
1, 390073, Control_c, 0, 64, 127
1, 390082, Note_off_c, 0, 49, 38
1, 390094, Note_off_c, 0, 42, 62
1, 390295, Control_c, 0, 64, 123
1, 390310, Control_c, 0, 64, 121
1, 390324, Control_c, 0, 64, 118
1, 390339, Control_c, 0, 64, 116
1, 390354, Control_c, 0, 64, 113
1, 390369, Control_c, 0, 64, 112
1, 390383, Control_c, 0, 64, 111
1, 390398, Note_on_c, 0, 30, 34
1, 390413, Control_c, 0, 64, 111
1, 390443, Control_c, 0, 64, 110
1, 390457, Control_c, 0, 64, 109
1, 390472, Control_c, 0, 64, 108
1, 390488, Control_c, 0, 64, 107
1, 390503, Control_c, 0, 64, 106
1, 390518, Control_c, 0, 64, 105
1, 390527, Note_off_c, 0, 64, 40
1, 390533, Control_c, 0, 64, 104
1, 390575, Note_off_c, 0, 30, 42
1, 390584, Control_c, 0, 64, 104
1, 390629, Control_c, 0, 64, 102
1, 390643, Control_c, 0, 64, 101
1, 390658, Control_c, 0, 64, 100
1, 390673, Control_c, 0, 64, 99
1, 390688, Control_c, 0, 64, 99
1, 390703, Control_c, 0, 64, 98
1, 390718, Control_c, 0, 64, 97
1, 390733, Control_c, 0, 64, 96
1, 390748, Control_c, 0, 64, 95
1, 390762, Control_c, 0, 64, 93
1, 390777, Control_c, 0, 64, 92
1, 390792, Control_c, 0, 64, 90
1, 390806, Control_c, 0, 64, 88
1, 390821, Control_c, 0, 64, 87
1, 390836, Control_c, 0, 64, 86
1, 390852, Control_c, 0, 64, 85
1, 390867, Control_c, 0, 64, 84
1, 390881, Control_c, 0, 64, 83
1, 390896, Control_c, 0, 64, 82
1, 390911, Control_c, 0, 64, 81
1, 390926, Control_c, 0, 64, 81
1, 390941, Control_c, 0, 64, 79
1, 390955, Control_c, 0, 64, 77
1, 390970, Control_c, 0, 64, 74
1, 390985, Control_c, 0, 64, 69
1, 390999, Control_c, 0, 64, 62
1, 391004, Note_on_c, 0, 51, 45
1, 391014, Note_on_c, 0, 63, 40
1, 391014, Control_c, 0, 64, 51
1, 391029, Control_c, 0, 64, 42
1, 391044, Control_c, 0, 64, 41
1, 391059, Control_c, 0, 64, 42
1, 391073, Control_c, 0, 64, 48
1, 391088, Control_c, 0, 64, 55
1, 391103, Control_c, 0, 64, 61
1, 391118, Control_c, 0, 64, 65
1, 391133, Control_c, 0, 64, 70
1, 391147, Control_c, 0, 64, 79
1, 391162, Control_c, 0, 64, 106
1, 391175, Note_off_c, 0, 51, 63
1, 391177, Control_c, 0, 64, 127
1, 391436, Note_off_c, 0, 70, 24
1, 391471, Note_on_c, 0, 29, 32
1, 391524, Note_off_c, 0, 58, 24
1, 391632, Note_off_c, 0, 29, 32
1, 391690, Note_on_c, 0, 41, 40
1, 391755, Note_off_c, 0, 41, 62
1, 391922, Note_on_c, 0, 58, 70
1, 391940, Note_on_c, 0, 48, 39
1, 391945, Note_on_c, 0, 70, 36
1, 392122, Note_off_c, 0, 48, 42
1, 392144, Note_on_c, 0, 51, 37
1, 392164, Note_off_c, 0, 58, 60
1, 392194, Note_off_c, 0, 63, 55
1, 392245, Note_off_c, 0, 70, 59
1, 392331, Note_on_c, 0, 54, 65
1, 392446, Note_off_c, 0, 51, 39
1, 392513, Note_on_c, 0, 57, 81
1, 392524, Note_on_c, 0, 75, 75
1, 392530, Note_on_c, 0, 63, 68
1, 392560, Note_on_c, 0, 69, 48
1, 392626, Note_off_c, 0, 54, 45
1, 392694, Note_off_c, 0, 63, 60
1, 392728, Note_off_c, 0, 69, 47
1, 392741, Note_on_c, 0, 48, 47
1, 392840, Note_off_c, 0, 75, 59
1, 392937, Note_on_c, 0, 51, 54
1, 393011, Note_off_c, 0, 48, 41
1, 393103, Note_on_c, 0, 82, 88
1, 393104, Note_on_c, 0, 58, 85
1, 393105, Note_on_c, 0, 70, 87
1, 393141, Note_off_c, 0, 51, 61
1, 393192, Note_off_c, 0, 57, 59
1, 393315, Note_on_c, 0, 51, 49
1, 393328, Note_off_c, 0, 70, 61
1, 393404, Note_on_c, 0, 72, 94
1, 393409, Note_on_c, 0, 60, 95
1, 393452, Note_off_c, 0, 58, 62
1, 393457, Note_off_c, 0, 82, 61
1, 393579, Note_off_c, 0, 51, 36
1, 393581, Note_off_c, 0, 72, 57
1, 393589, Note_off_c, 0, 60, 60
1, 393732, Note_on_c, 0, 53, 69
1, 393744, Note_on_c, 0, 61, 103
1, 393744, Control_c, 0, 64, 82
1, 393751, Note_on_c, 0, 69, 96
1, 393753, Note_on_c, 0, 81, 93
1, 393759, Control_c, 0, 64, 61
1, 393762, Note_on_c, 0, 73, 78
1, 393773, Control_c, 0, 64, 0
1, 393788, Control_c, 0, 64, 17
1, 393803, Control_c, 0, 64, 47
1, 393817, Control_c, 0, 64, 61
1, 393832, Control_c, 0, 64, 68
1, 393846, Control_c, 0, 64, 81
1, 393853, Note_off_c, 0, 61, 65
1, 393861, Control_c, 0, 64, 127
1, 393893, Note_off_c, 0, 53, 64
1, 393953, Note_off_c, 0, 69, 61
1, 393997, Note_on_c, 0, 41, 73
1, 394020, Note_off_c, 0, 81, 63
1, 394042, Note_off_c, 0, 73, 63
1, 394164, Note_off_c, 0, 41, 62
1, 394167, Note_on_c, 0, 53, 62
1, 394197, Note_off_c, 0, 53, 66
1, 394420, Note_on_c, 0, 57, 81
1, 394432, Note_on_c, 0, 75, 86
1, 394432, Note_on_c, 0, 87, 87
1, 394437, Note_on_c, 0, 82, 83
1, 394444, Note_on_c, 0, 70, 70
1, 394459, Note_on_c, 0, 63, 50
1, 394527, Note_off_c, 0, 70, 60
1, 394613, Note_off_c, 0, 87, 61
1, 394647, Note_off_c, 0, 75, 57
1, 394736, Note_off_c, 0, 82, 0
1, 394751, Note_on_c, 0, 83, 96
1, 394754, Note_on_c, 0, 71, 88
1, 394773, Poly_aftertouch_c, 0, 82, 127
1, 394799, Note_off_c, 0, 71, 64
1, 394813, Note_off_c, 0, 63, 39
1, 394823, Note_off_c, 0, 57, 61
1, 395092, Control_c, 0, 64, 82
1, 395098, Note_on_c, 0, 51, 87
1, 395106, Note_on_c, 0, 63, 71
1, 395107, Control_c, 0, 64, 62
1, 395108, Poly_aftertouch_c, 0, 82, 0
1, 395118, Note_on_c, 0, 86, 86
1, 395118, Note_on_c, 0, 84, 69
1, 395119, Note_on_c, 0, 74, 80
1, 395121, Note_on_c, 0, 72, 86
1, 395121, Control_c, 0, 64, 30
1, 395136, Control_c, 0, 64, 25
1, 395151, Control_c, 0, 64, 44
1, 395160, Note_off_c, 0, 63, 64
1, 395166, Control_c, 0, 64, 57
1, 395180, Control_c, 0, 64, 65
1, 395195, Note_off_c, 0, 83, 59
1, 395195, Control_c, 0, 64, 73
1, 395210, Control_c, 0, 64, 94
1, 395225, Control_c, 0, 64, 127
1, 395237, Note_off_c, 0, 51, 66
1, 395388, Note_on_c, 0, 29, 68
1, 395408, Note_off_c, 0, 86, 59
1, 395410, Note_off_c, 0, 72, 62
1, 395428, Note_off_c, 0, 74, 60
1, 395490, Note_off_c, 0, 84, 58
1, 395546, Note_off_c, 0, 29, 61
1, 395573, Note_on_c, 0, 41, 61
1, 395610, Note_off_c, 0, 41, 64
1, 395807, Note_on_c, 0, 87, 91
1, 395821, Note_on_c, 0, 75, 76
1, 395830, Note_on_c, 0, 81, 69
1, 395839, Note_on_c, 0, 69, 62
1, 395990, Note_off_c, 0, 69, 55
1, 396079, Note_off_c, 0, 75, 61
1, 396107, Note_on_c, 0, 53, 53
1, 396207, Note_on_c, 0, 89, 96
1, 396215, Note_on_c, 0, 77, 88
1, 396260, Note_off_c, 0, 87, 63
1, 396319, Note_off_c, 0, 81, 40
1, 396357, Note_off_c, 0, 53, 55
1, 396380, Note_on_c, 0, 60, 58
1, 396416, Note_off_c, 0, 60, 65
1, 396500, Note_off_c, 0, 77, 57
1, 396504, Note_off_c, 0, 89, 61
1, 396719, Note_on_c, 0, 63, 54
1, 396721, Note_on_c, 0, 69, 39
1, 396722, Note_on_c, 0, 75, 45
1, 396726, Note_on_c, 0, 90, 98
1, 396739, Note_on_c, 0, 81, 72
1, 396745, Note_on_c, 0, 78, 79
1, 396750, Note_off_c, 0, 75, 63
1, 396804, Note_off_c, 0, 69, 61
1, 396833, Note_off_c, 0, 63, 63
1, 397107, Note_on_c, 0, 29, 43
1, 397204, Note_off_c, 0, 78, 53
1, 397231, Note_off_c, 0, 90, 58
1, 397275, Note_off_c, 0, 29, 43
1, 397363, Note_on_c, 0, 41, 44
1, 397401, Note_off_c, 0, 41, 64
1, 397597, Note_on_c, 0, 87, 83
1, 397611, Note_on_c, 0, 51, 40
1, 397626, Note_on_c, 0, 75, 51
1, 397794, Note_off_c, 0, 81, 51
1, 397813, Note_off_c, 0, 87, 60
1, 397823, Note_on_c, 0, 57, 42
1, 397862, Note_off_c, 0, 51, 44
1, 397917, Note_off_c, 0, 75, 59
1, 397985, Note_off_c, 0, 57, 59
1, 398013, Note_on_c, 0, 60, 49
1, 398082, Note_off_c, 0, 60, 60
1, 398256, Note_on_c, 0, 81, 83
1, 398272, Note_on_c, 0, 78, 68
1, 398281, Note_on_c, 0, 69, 56
1, 398516, Note_on_c, 0, 29, 43
1, 398610, Note_off_c, 0, 81, 60
1, 398653, Note_off_c, 0, 29, 36
1, 398656, Note_off_c, 0, 69, 42
1, 398659, Note_off_c, 0, 78, 59
1, 398744, Note_on_c, 0, 41, 42
1, 398821, Note_off_c, 0, 41, 59
1, 398971, Note_on_c, 0, 75, 61
1, 399002, Note_on_c, 0, 63, 30
1, 399196, Note_on_c, 0, 48, 39
1, 399245, Note_off_c, 0, 75, 55
1, 399374, Note_off_c, 0, 48, 43
1, 399397, Note_off_c, 0, 63, 41
1, 399413, Note_on_c, 0, 51, 43
1, 399498, Note_off_c, 0, 51, 52
1, 399704, Note_on_c, 0, 54, 28
1, 399705, Note_on_c, 0, 69, 54
1, 399717, Note_on_c, 0, 66, 38
1, 399719, Note_on_c, 0, 57, 34
1, 399741, Note_off_c, 0, 54, 51
1, 399983, Note_on_c, 0, 29, 35
1, 400102, Note_off_c, 0, 69, 36
1, 400136, Note_off_c, 0, 57, 41
1, 400180, Note_off_c, 0, 66, 40
1, 400184, Note_off_c, 0, 29, 40
1, 400256, Note_on_c, 0, 41, 34
1, 400541, Note_off_c, 0, 41, 0
1, 400579, Poly_aftertouch_c, 0, 41, 127
1, 400587, Note_on_c, 0, 63, 45
1, 400592, Note_on_c, 0, 51, 37
1, 400924, Note_on_c, 0, 45, 33
1, 400972, Note_off_c, 0, 63, 41
1, 401070, Note_off_c, 0, 51, 41
1, 401325, Note_on_c, 0, 48, 35
1, 401498, Note_off_c, 0, 45, 38
1, 401908, Note_on_c, 0, 51, 32
1, 401909, Note_on_c, 0, 45, 26
1, 401911, Note_on_c, 0, 57, 37
1, 401913, Note_on_c, 0, 54, 32
1, 401949, Control_c, 0, 64, 123
1, 401964, Control_c, 0, 64, 117
1, 401979, Control_c, 0, 64, 111
1, 401993, Control_c, 0, 64, 107
1, 402008, Control_c, 0, 64, 102
1, 402023, Control_c, 0, 64, 97
1, 402037, Control_c, 0, 64, 93
1, 402052, Control_c, 0, 64, 88
1, 402060, Note_off_c, 0, 48, 39
1, 402067, Control_c, 0, 64, 82
1, 402083, Control_c, 0, 64, 76
1, 402098, Control_c, 0, 64, 70
1, 402112, Control_c, 0, 64, 65
1, 402127, Control_c, 0, 64, 62
1, 402142, Control_c, 0, 64, 60
1, 402157, Control_c, 0, 64, 59
1, 402172, Control_c, 0, 64, 59
1, 402186, Control_c, 0, 64, 58
1, 402201, Control_c, 0, 64, 55
1, 402216, Control_c, 0, 64, 52
1, 402230, Control_c, 0, 64, 49
1, 402245, Control_c, 0, 64, 45
1, 402260, Control_c, 0, 64, 40
1, 402275, Control_c, 0, 64, 33
1, 402290, Control_c, 0, 64, 21
1, 402305, Control_c, 0, 64, 0
1, 402654, Control_c, 0, 64, 16
1, 402668, Control_c, 0, 64, 33
1, 402683, Control_c, 0, 64, 45
1, 402698, Control_c, 0, 64, 53
1, 402713, Control_c, 0, 64, 58
1, 402728, Control_c, 0, 64, 60
1, 402743, Control_c, 0, 64, 62
1, 402758, Control_c, 0, 64, 63
1, 402773, Control_c, 0, 64, 65
1, 402788, Control_c, 0, 64, 67
1, 402803, Control_c, 0, 64, 70
1, 402817, Control_c, 0, 64, 75
1, 402832, Control_c, 0, 64, 79
1, 402847, Control_c, 0, 64, 83
1, 402861, Control_c, 0, 64, 87
1, 402876, Control_c, 0, 64, 90
1, 402891, Control_c, 0, 64, 94
1, 402906, Control_c, 0, 64, 102
1, 402921, Control_c, 0, 64, 111
1, 402935, Control_c, 0, 64, 127
1, 403077, Note_off_c, 0, 45, 35
1, 403125, Note_off_c, 0, 57, 38
1, 403174, Note_off_c, 0, 51, 35
1, 403184, Poly_aftertouch_c, 0, 41, 0
1, 403235, Note_off_c, 0, 54, 34
1, 403521, Control_c, 0, 64, 113
1, 403536, Control_c, 0, 64, 106
1, 403551, Control_c, 0, 64, 97
1, 403566, Control_c, 0, 64, 90
1, 403581, Control_c, 0, 64, 83
1, 403596, Control_c, 0, 64, 78
1, 403610, Control_c, 0, 64, 73
1, 403625, Control_c, 0, 64, 70
1, 403640, Control_c, 0, 64, 67
1, 403655, Control_c, 0, 64, 64
1, 403670, Control_c, 0, 64, 62
1, 403684, Control_c, 0, 64, 60
1, 403699, Control_c, 0, 64, 58
1, 403714, Control_c, 0, 64, 55
1, 403729, Control_c, 0, 64, 52
1, 403744, Control_c, 0, 64, 47
1, 403758, Control_c, 0, 64, 42
1, 403773, Control_c, 0, 64, 38
1, 403788, Control_c, 0, 64, 35
1, 403803, Control_c, 0, 64, 35
1, 403818, Control_c, 0, 64, 34
1, 403832, Control_c, 0, 64, 33
1, 403847, Control_c, 0, 64, 33
1, 403862, Control_c, 0, 64, 32
1, 403921, Control_c, 0, 64, 32
1, 403936, Control_c, 0, 64, 19
1, 403950, Control_c, 0, 64, 0
1, 404209, Note_on_c, 0, 41, 98
1, 404211, Note_on_c, 0, 53, 98
1, 404213, Note_on_c, 0, 65, 93
1, 404217, Note_on_c, 0, 29, 83
1, 404226, Control_c, 0, 64, 57
1, 404241, Control_c, 0, 64, 80
1, 404250, Note_off_c, 0, 29, 65
1, 404255, Control_c, 0, 64, 127
1, 404265, Note_off_c, 0, 41, 64
1, 404268, Note_off_c, 0, 53, 65
1, 404293, Note_off_c, 0, 65, 64
1, 404448, Control_c, 0, 64, 94
1, 404462, Control_c, 0, 64, 62
1, 404475, Note_on_c, 0, 46, 79
1, 404475, Note_on_c, 0, 34, 75
1, 404476, Note_on_c, 0, 62, 94
1, 404477, Control_c, 0, 64, 0
1, 404478, Note_on_c, 0, 70, 95
1, 404502, Note_off_c, 0, 34, 64
1, 404503, Note_off_c, 0, 46, 66
1, 404506, Control_c, 0, 64, 28
1, 404511, Note_off_c, 0, 62, 65
1, 404514, Note_off_c, 0, 70, 64
1, 404521, Control_c, 0, 64, 59
1, 404536, Control_c, 0, 64, 72
1, 404551, Control_c, 0, 64, 110
1, 404566, Control_c, 0, 64, 127
1, 404608, Note_on_c, 0, 61, 67
1, 404609, Note_on_c, 0, 69, 67
1, 404621, Note_on_c, 0, 47, 45
1, 404625, Note_on_c, 0, 68, 34
1, 404640, Note_off_c, 0, 61, 64
1, 404644, Note_off_c, 0, 69, 63
1, 404652, Note_off_c, 0, 47, 51
1, 404663, Note_off_c, 0, 68, 40
1, 404684, Control_c, 0, 64, 81
1, 404698, Control_c, 0, 64, 61
1, 404699, Note_on_c, 0, 57, 68
1, 404704, Note_on_c, 0, 45, 70
1, 404704, Note_on_c, 0, 70, 70
1, 404707, Note_on_c, 0, 62, 72
1, 404713, Control_c, 0, 64, 0
1, 404728, Note_off_c, 0, 57, 66
1, 404731, Note_off_c, 0, 45, 66
1, 404740, Note_off_c, 0, 70, 63
1, 404742, Note_off_c, 0, 62, 65
1, 404786, Note_on_c, 0, 46, 65
1, 404808, Note_on_c, 0, 63, 67
1, 404813, Note_on_c, 0, 67, 57
1, 404834, Note_off_c, 0, 46, 64
1, 404836, Note_off_c, 0, 63, 65
1, 404844, Note_off_c, 0, 67, 64
1, 404914, Note_on_c, 0, 55, 69
1, 404916, Note_on_c, 0, 43, 65
1, 404924, Note_on_c, 0, 64, 60
1, 404924, Note_on_c, 0, 72, 65
1, 404945, Note_off_c, 0, 55, 65
1, 404948, Note_off_c, 0, 43, 64
1, 404951, Note_off_c, 0, 72, 67
1, 404955, Note_off_c, 0, 64, 66
1, 405010, Note_on_c, 0, 46, 55
1, 405012, Note_on_c, 0, 71, 62
1, 405020, Note_on_c, 0, 65, 54
1, 405043, Note_off_c, 0, 65, 62
1, 405046, Note_off_c, 0, 71, 63
1, 405047, Note_off_c, 0, 46, 64
1, 405101, Note_on_c, 0, 42, 66
1, 405107, Note_on_c, 0, 64, 65
1, 405109, Note_on_c, 0, 54, 55
1, 405110, Note_on_c, 0, 72, 67
1, 405136, Note_off_c, 0, 64, 67
1, 405137, Note_off_c, 0, 42, 64
1, 405139, Note_off_c, 0, 54, 65
1, 405139, Note_off_c, 0, 72, 64
1, 405197, Note_on_c, 0, 69, 68
1, 405202, Note_on_c, 0, 46, 56
1, 405205, Note_on_c, 0, 63, 62
1, 405234, Note_off_c, 0, 46, 65
1, 405235, Note_off_c, 0, 63, 66
1, 405239, Note_off_c, 0, 69, 64
1, 405301, Note_on_c, 0, 41, 67
1, 405306, Note_on_c, 0, 53, 65
1, 405307, Note_on_c, 0, 74, 76
1, 405310, Note_on_c, 0, 62, 72
1, 405331, Note_off_c, 0, 74, 65
1, 405333, Note_off_c, 0, 41, 63
1, 405336, Note_off_c, 0, 62, 67
1, 405336, Note_off_c, 0, 53, 65
1, 405395, Note_on_c, 0, 73, 77
1, 405403, Note_on_c, 0, 46, 66
1, 405414, Note_on_c, 0, 68, 61
1, 405435, Note_off_c, 0, 46, 64
1, 405441, Note_off_c, 0, 68, 63
1, 405450, Note_off_c, 0, 73, 65
1, 405495, Note_on_c, 0, 74, 89
1, 405497, Note_on_c, 0, 51, 76
1, 405497, Note_on_c, 0, 67, 83
1, 405500, Note_on_c, 0, 39, 71
1, 405524, Note_off_c, 0, 67, 65
1, 405525, Note_off_c, 0, 51, 65
1, 405537, Note_off_c, 0, 39, 62
1, 405542, Note_off_c, 0, 74, 61
1, 405593, Note_on_c, 0, 70, 85
1, 405595, Note_on_c, 0, 46, 77
1, 405600, Note_on_c, 0, 66, 76
1, 405623, Note_off_c, 0, 66, 69
1, 405632, Note_off_c, 0, 46, 63
1, 405640, Note_off_c, 0, 70, 62
1, 405695, Note_on_c, 0, 50, 84
1, 405697, Note_on_c, 0, 77, 86
1, 405698, Note_on_c, 0, 65, 77
1, 405700, Note_on_c, 0, 38, 72
1, 405721, Note_off_c, 0, 65, 67
1, 405725, Note_off_c, 0, 50, 66
1, 405732, Note_off_c, 0, 38, 64
1, 405736, Note_off_c, 0, 77, 60
1, 405784, Note_on_c, 0, 41, 70
1, 405786, Note_on_c, 0, 76, 79
1, 405795, Note_on_c, 0, 72, 78
1, 405819, Note_off_c, 0, 72, 69
1, 405829, Note_off_c, 0, 41, 64
1, 405843, Note_off_c, 0, 76, 62
1, 405885, Note_on_c, 0, 36, 71
1, 405886, Note_on_c, 0, 48, 72
1, 405892, Note_on_c, 0, 70, 71
1, 405898, Note_on_c, 0, 77, 63
1, 405913, Note_off_c, 0, 48, 66
1, 405914, Note_off_c, 0, 36, 64
1, 405918, Note_off_c, 0, 70, 67
1, 405928, Note_off_c, 0, 77, 64
1, 405972, Note_on_c, 0, 41, 75
1, 405974, Note_on_c, 0, 72, 83
1, 405977, Note_on_c, 0, 69, 74
1, 406004, Note_off_c, 0, 69, 68
1, 406005, Note_off_c, 0, 72, 64
1, 406015, Note_off_c, 0, 41, 65
1, 406073, Note_on_c, 0, 34, 68
1, 406075, Note_on_c, 0, 46, 64
1, 406079, Note_on_c, 0, 82, 91
1, 406080, Note_on_c, 0, 70, 84
1, 406113, Note_off_c, 0, 46, 62
1, 406115, Note_off_c, 0, 70, 65
1, 406117, Note_off_c, 0, 34, 60
1, 406126, Note_off_c, 0, 82, 63
1, 406168, Note_on_c, 0, 72, 90
1, 406169, Note_on_c, 0, 41, 74
1, 406172, Note_on_c, 0, 81, 88
1, 406209, Note_off_c, 0, 72, 65
1, 406210, Note_off_c, 0, 41, 65
1, 406222, Note_off_c, 0, 81, 65
1, 406270, Note_on_c, 0, 74, 100
1, 406272, Note_on_c, 0, 45, 92
1, 406273, Note_on_c, 0, 82, 96
1, 406278, Note_on_c, 0, 33, 82
1, 406317, Note_off_c, 0, 33, 67
1, 406318, Note_off_c, 0, 74, 65
1, 406320, Note_off_c, 0, 45, 64
1, 406326, Note_off_c, 0, 82, 65
1, 406367, Note_on_c, 0, 79, 88
1, 406369, Note_on_c, 0, 75, 91
1, 406370, Note_on_c, 0, 34, 76
1, 406411, Note_off_c, 0, 75, 65
1, 406415, Note_off_c, 0, 79, 66
1, 406418, Note_off_c, 0, 34, 61
1, 406472, Note_on_c, 0, 31, 84
1, 406472, Note_on_c, 0, 84, 104
1, 406472, Note_on_c, 0, 43, 88
1, 406472, Note_on_c, 0, 76, 100
1, 406502, Note_off_c, 0, 43, 69
1, 406503, Note_off_c, 0, 31, 68
1, 406505, Note_off_c, 0, 76, 67
1, 406510, Note_off_c, 0, 84, 67
1, 406565, Note_on_c, 0, 34, 87
1, 406565, Note_on_c, 0, 83, 94
1, 406569, Note_on_c, 0, 78, 80
1, 406575, Note_on_c, 0, 77, 94
1, 406597, Note_off_c, 0, 77, 66
1, 406600, Note_off_c, 0, 78, 64
1, 406609, Note_off_c, 0, 34, 59
1, 406612, Note_off_c, 0, 83, 66
1, 406660, Note_on_c, 0, 42, 91
1, 406665, Note_on_c, 0, 84, 98
1, 406666, Note_on_c, 0, 76, 95
1, 406668, Note_on_c, 0, 30, 77
1, 406698, Note_off_c, 0, 84, 67
1, 406699, Note_off_c, 0, 76, 67
1, 406701, Note_off_c, 0, 30, 66
1, 406708, Note_off_c, 0, 42, 61
1, 406755, Note_on_c, 0, 34, 80
1, 406755, Note_on_c, 0, 78, 91
1, 406755, Note_on_c, 0, 82, 90
1, 406800, Note_off_c, 0, 78, 64
1, 406800, Note_off_c, 0, 82, 66
1, 406818, Note_off_c, 0, 34, 61
1, 406869, Note_on_c, 0, 81, 102
1, 406870, Note_on_c, 0, 41, 99
1, 406873, Note_on_c, 0, 89, 98
1, 406877, Note_on_c, 0, 29, 86
1, 406886, Control_c, 0, 64, 62
1, 406900, Control_c, 0, 64, 91
1, 406915, Control_c, 0, 64, 127
1, 406932, Note_off_c, 0, 81, 67
1, 406957, Note_off_c, 0, 29, 63
1, 406959, Note_on_c, 0, 36, 64
1, 406965, Note_on_c, 0, 88, 74
1, 406967, Note_on_c, 0, 80, 92
1, 406975, Note_off_c, 0, 41, 65
1, 406991, Note_off_c, 0, 36, 64
1, 406993, Note_off_c, 0, 89, 62
1, 407001, Note_on_c, 0, 87, 40
1, 407014, Note_off_c, 0, 88, 66
1, 407018, Note_off_c, 0, 80, 64
1, 407032, Note_off_c, 0, 87, 35
1, 407071, Control_c, 0, 64, 86
1, 407086, Control_c, 0, 64, 55
1, 407092, Note_on_c, 0, 53, 96
1, 407092, Note_on_c, 0, 81, 99
1, 407094, Note_on_c, 0, 89, 99
1, 407096, Note_on_c, 0, 41, 84
1, 407100, Control_c, 0, 64, 0
1, 407130, Control_c, 0, 64, 46
1, 407145, Control_c, 0, 64, 62
1, 407160, Control_c, 0, 64, 71
1, 407172, Note_off_c, 0, 41, 66
1, 407174, Control_c, 0, 64, 92
1, 407175, Note_on_c, 0, 84, 84
1, 407177, Note_on_c, 0, 79, 86
1, 407182, Note_on_c, 0, 48, 63
1, 407184, Note_off_c, 0, 53, 64
1, 407184, Note_off_c, 0, 81, 67
1, 407184, Note_off_c, 0, 89, 65
1, 407189, Control_c, 0, 64, 127
1, 407200, Note_off_c, 0, 84, 65
1, 407205, Note_off_c, 0, 48, 59
1, 407222, Note_off_c, 0, 79, 63
1, 407265, Control_c, 0, 64, 123
1, 407279, Control_c, 0, 64, 67
1, 407294, Control_c, 0, 64, 21
1, 407298, Note_on_c, 0, 65, 92
1, 407298, Note_on_c, 0, 69, 96
1, 407298, Note_on_c, 0, 77, 92
1, 407303, Note_on_c, 0, 53, 85
1, 407309, Control_c, 0, 64, 15
1, 407323, Control_c, 0, 64, 57
1, 407338, Control_c, 0, 64, 69
1, 407353, Control_c, 0, 64, 94
1, 407368, Control_c, 0, 64, 127
1, 407381, Note_off_c, 0, 69, 62
1, 407383, Note_off_c, 0, 65, 60
1, 407385, Note_on_c, 0, 60, 68
1, 407385, Note_on_c, 0, 76, 77
1, 407388, Note_on_c, 0, 67, 80
1, 407407, Note_off_c, 0, 53, 61
1, 407410, Note_off_c, 0, 60, 67
1, 407414, Note_off_c, 0, 77, 60
1, 407432, Note_off_c, 0, 67, 61
1, 407440, Note_off_c, 0, 76, 65
1, 407501, Control_c, 0, 64, 86
1, 407503, Note_on_c, 0, 54, 87
1, 407503, Note_on_c, 0, 70, 93
1, 407503, Note_on_c, 0, 77, 87
1, 407506, Note_on_c, 0, 42, 79
1, 407515, Control_c, 0, 64, 59
1, 407525, Note_off_c, 0, 54, 70
1, 407530, Control_c, 0, 64, 0
1, 407537, Note_off_c, 0, 42, 65
1, 407548, Note_off_c, 0, 70, 64
1, 407554, Note_off_c, 0, 77, 63
1, 407602, Note_on_c, 0, 53, 83
1, 407604, Note_on_c, 0, 72, 89
1, 407606, Note_on_c, 0, 41, 80
1, 407607, Note_on_c, 0, 69, 85
1, 407626, Note_off_c, 0, 53, 70
1, 407641, Note_off_c, 0, 41, 67
1, 407641, Note_off_c, 0, 72, 65
1, 407647, Note_off_c, 0, 69, 64
1, 407721, Note_on_c, 0, 46, 93
1, 407723, Control_c, 0, 64, 64
1, 407724, Note_on_c, 0, 34, 80
1, 407727, Note_on_c, 0, 62, 94
1, 407730, Note_on_c, 0, 70, 94
1, 407738, Control_c, 0, 64, 114
1, 407744, Note_off_c, 0, 46, 71
1, 407747, Note_off_c, 0, 34, 66
1, 407753, Control_c, 0, 64, 127
1, 407765, Note_off_c, 0, 62, 64
1, 407776, Note_off_c, 0, 70, 62
1, 407843, Note_on_c, 0, 69, 60
1, 407848, Note_on_c, 0, 46, 70
1, 407860, Note_on_c, 0, 61, 62
1, 407885, Note_off_c, 0, 69, 59
1, 407887, Note_off_c, 0, 46, 58
1, 407889, Note_off_c, 0, 61, 63
1, 407943, Note_on_c, 0, 57, 64
1, 407944, Note_on_c, 0, 62, 75
1, 407946, Note_on_c, 0, 70, 73
1, 407961, Note_on_c, 0, 45, 54
1, 407968, Control_c, 0, 64, 83
1, 407979, Note_off_c, 0, 57, 64
1, 407980, Note_off_c, 0, 70, 51
1, 407983, Control_c, 0, 64, 65
1, 407986, Note_off_c, 0, 62, 62
1, 407988, Note_off_c, 0, 45, 61
1, 407997, Control_c, 0, 64, 38
1, 408012, Control_c, 0, 64, 0
1, 408019, Note_on_c, 0, 46, 64
1, 408037, Note_on_c, 0, 67, 70
1, 408046, Note_on_c, 0, 63, 62
1, 408072, Note_off_c, 0, 46, 62
1, 408076, Note_off_c, 0, 63, 66
1, 408077, Note_off_c, 0, 67, 64
1, 408153, Note_on_c, 0, 64, 66
1, 408153, Note_on_c, 0, 55, 61
1, 408154, Note_on_c, 0, 43, 61
1, 408156, Note_on_c, 0, 72, 67
1, 408175, Note_off_c, 0, 55, 62
1, 408183, Note_off_c, 0, 64, 67
1, 408186, Note_off_c, 0, 72, 64
1, 408188, Note_off_c, 0, 43, 64
1, 408237, Note_on_c, 0, 46, 59
1, 408242, Note_on_c, 0, 71, 67
1, 408251, Note_on_c, 0, 65, 56
1, 408279, Note_off_c, 0, 46, 64
1, 408281, Note_off_c, 0, 65, 64
1, 408288, Note_off_c, 0, 71, 60
1, 408342, Note_on_c, 0, 42, 65
1, 408345, Note_on_c, 0, 54, 59
1, 408347, Note_on_c, 0, 72, 70
1, 408348, Note_on_c, 0, 64, 62
1, 408379, Note_off_c, 0, 64, 67
1, 408383, Note_off_c, 0, 54, 65
1, 408386, Note_off_c, 0, 42, 61
1, 408386, Note_off_c, 0, 72, 59
1, 408440, Note_on_c, 0, 46, 57
1, 408448, Note_on_c, 0, 69, 53
1, 408449, Note_on_c, 0, 63, 60
1, 408478, Note_off_c, 0, 46, 63
1, 408479, Note_off_c, 0, 63, 64
1, 408484, Note_off_c, 0, 69, 66
1, 408549, Note_on_c, 0, 53, 65
1, 408552, Note_on_c, 0, 41, 61
1, 408559, Note_on_c, 0, 62, 64
1, 408561, Note_on_c, 0, 74, 67
1, 408580, Note_off_c, 0, 53, 65
1, 408586, Note_off_c, 0, 41, 65
1, 408589, Note_off_c, 0, 74, 68
1, 408590, Note_off_c, 0, 62, 66
1, 408648, Note_on_c, 0, 46, 67
1, 408648, Note_on_c, 0, 73, 73
1, 408658, Note_on_c, 0, 68, 67
1, 408685, Note_off_c, 0, 46, 65
1, 408687, Note_off_c, 0, 68, 66
1, 408702, Note_off_c, 0, 73, 62
1, 408748, Note_on_c, 0, 51, 72
1, 408750, Note_on_c, 0, 67, 83
1, 408751, Note_on_c, 0, 74, 84
1, 408752, Note_on_c, 0, 39, 65
1, 408782, Note_off_c, 0, 51, 66
1, 408782, Note_off_c, 0, 67, 66
1, 408797, Note_off_c, 0, 39, 61
1, 408798, Note_off_c, 0, 74, 58
1, 408841, Note_on_c, 0, 70, 84
1, 408845, Note_on_c, 0, 46, 72
1, 408848, Note_on_c, 0, 66, 80
1, 408875, Note_off_c, 0, 66, 68
1, 408880, Note_off_c, 0, 46, 66
1, 408892, Note_off_c, 0, 70, 62
1, 408944, Note_on_c, 0, 50, 79
1, 408948, Note_on_c, 0, 77, 93
1, 408951, Note_on_c, 0, 38, 67
1, 408955, Note_on_c, 0, 65, 76
1, 408976, Note_off_c, 0, 50, 67
1, 408979, Note_off_c, 0, 65, 68
1, 408982, Note_off_c, 0, 38, 63
1, 408997, Note_off_c, 0, 77, 63
1, 409042, Note_on_c, 0, 41, 72
1, 409049, Note_on_c, 0, 72, 84
1, 409056, Note_on_c, 0, 76, 67
1, 409084, Note_off_c, 0, 41, 65
1, 409088, Note_off_c, 0, 72, 64
1, 409092, Note_off_c, 0, 76, 64
1, 409145, Note_on_c, 0, 48, 71
1, 409150, Note_on_c, 0, 36, 60
1, 409158, Note_on_c, 0, 70, 71
1, 409172, Note_off_c, 0, 48, 66
1, 409176, Note_on_c, 0, 77, 50
1, 409183, Note_off_c, 0, 36, 64
1, 409187, Note_off_c, 0, 70, 63
1, 409198, Note_off_c, 0, 77, 59
1, 409235, Note_on_c, 0, 72, 77
1, 409238, Note_on_c, 0, 41, 70
1, 409244, Note_on_c, 0, 69, 67
1, 409265, Note_off_c, 0, 72, 64
1, 409270, Note_off_c, 0, 69, 68
1, 409280, Note_off_c, 0, 41, 65
1, 409346, Note_on_c, 0, 46, 63
1, 409348, Note_on_c, 0, 34, 65
1, 409350, Note_on_c, 0, 82, 84
1, 409352, Note_on_c, 0, 70, 75
1, 409381, Note_off_c, 0, 46, 63
1, 409382, Note_off_c, 0, 70, 62
1, 409387, Note_off_c, 0, 82, 62
1, 409388, Note_off_c, 0, 34, 61
1, 409438, Note_on_c, 0, 41, 73
1, 409442, Note_on_c, 0, 81, 87
1, 409444, Note_on_c, 0, 72, 78
1, 409470, Note_off_c, 0, 72, 66
1, 409478, Note_off_c, 0, 41, 66
1, 409493, Note_off_c, 0, 81, 66
1, 409542, Note_on_c, 0, 45, 79
1, 409545, Note_on_c, 0, 82, 95
1, 409545, Note_on_c, 0, 33, 73
1, 409545, Note_on_c, 0, 74, 94
1, 409581, Note_on_c, 0, 83, 49
1, 409581, Note_off_c, 0, 74, 65
1, 409583, Note_off_c, 0, 33, 65
1, 409584, Note_off_c, 0, 82, 63
1, 409586, Note_off_c, 0, 45, 59
1, 409605, Note_off_c, 0, 83, 37
1, 409630, Note_on_c, 0, 34, 75
1, 409637, Note_on_c, 0, 75, 85
1, 409637, Note_on_c, 0, 79, 82
1, 409671, Note_off_c, 0, 75, 62
1, 409686, Note_off_c, 0, 79, 65
1, 409692, Note_off_c, 0, 34, 60
1, 409736, Note_on_c, 0, 31, 75
1, 409736, Note_on_c, 0, 43, 80
1, 409742, Note_on_c, 0, 76, 95
1, 409743, Note_on_c, 0, 85, 97
1, 409766, Note_off_c, 0, 31, 64
1, 409766, Note_on_c, 0, 33, 41
1, 409767, Note_off_c, 0, 43, 65
1, 409780, Note_off_c, 0, 76, 66
1, 409786, Note_off_c, 0, 85, 65
1, 409805, Note_off_c, 0, 33, 47
1, 409835, Note_on_c, 0, 83, 86
1, 409838, Note_on_c, 0, 78, 85
1, 409841, Note_on_c, 0, 33, 58
1, 409878, Note_off_c, 0, 78, 65
1, 409879, Note_off_c, 0, 33, 65
1, 409888, Note_off_c, 0, 83, 65
1, 409926, Note_on_c, 0, 42, 93
1, 409929, Note_on_c, 0, 30, 79
1, 409941, Note_on_c, 0, 76, 102
1, 409945, Note_on_c, 0, 85, 99
1, 409966, Note_off_c, 0, 30, 67
1, 409966, Note_off_c, 0, 42, 63
1, 409983, Note_off_c, 0, 76, 67
1, 409984, Note_off_c, 0, 85, 66
1, 410047, Note_on_c, 0, 40, 95
1, 410053, Note_on_c, 0, 79, 94
1, 410053, Note_on_c, 0, 81, 91
1, 410055, Note_on_c, 0, 28, 82
1, 410086, Note_off_c, 0, 28, 69
1, 410090, Note_off_c, 0, 40, 65
1, 410094, Note_off_c, 0, 81, 67
1, 410094, Note_off_c, 0, 79, 64
1, 410167, Note_on_c, 0, 38, 96
1, 410174, Note_on_c, 0, 78, 99
1, 410175, Note_on_c, 0, 86, 94
1, 410178, Note_on_c, 0, 26, 89
1, 410186, Control_c, 0, 64, 17
1, 410200, Control_c, 0, 64, 65
1, 410215, Control_c, 0, 64, 82
1, 410230, Control_c, 0, 64, 127
1, 410258, Note_on_c, 0, 33, 70
1, 410258, Note_off_c, 0, 26, 62
1, 410269, Note_on_c, 0, 85, 89
1, 410270, Note_off_c, 0, 38, 60
1, 410270, Note_off_c, 0, 78, 64
1, 410272, Note_on_c, 0, 77, 87
1, 410288, Note_off_c, 0, 33, 63
1, 410290, Note_off_c, 0, 86, 63
1, 410319, Note_off_c, 0, 77, 65
1, 410325, Note_off_c, 0, 85, 65
1, 410332, Poly_aftertouch_c, 0, 34, 127
1, 410360, Poly_aftertouch_c, 0, 34, 0
1, 410363, Control_c, 0, 64, 68
1, 410378, Control_c, 0, 64, 0
1, 410381, Note_on_c, 0, 50, 92
1, 410389, Note_on_c, 0, 38, 81
1, 410389, Note_on_c, 0, 78, 88
1, 410392, Note_on_c, 0, 86, 88
1, 410422, Control_c, 0, 64, 54
1, 410438, Control_c, 0, 64, 68
1, 410449, Note_on_c, 0, 45, 70
1, 410453, Control_c, 0, 64, 127
1, 410462, Note_off_c, 0, 38, 63
1, 410470, Note_off_c, 0, 86, 65
1, 410472, Note_on_c, 0, 81, 67
1, 410475, Note_off_c, 0, 50, 59
1, 410480, Note_off_c, 0, 78, 64
1, 410482, Note_on_c, 0, 76, 74
1, 410486, Note_off_c, 0, 45, 66
1, 410496, Note_off_c, 0, 81, 68
1, 410508, Note_off_c, 0, 76, 68
1, 410588, Note_on_c, 0, 50, 77
1, 410598, Note_on_c, 0, 62, 64
1, 410600, Note_on_c, 0, 66, 90
1, 410601, Control_c, 0, 64, 93
1, 410604, Note_on_c, 0, 74, 84
1, 410614, Note_off_c, 0, 50, 65
1, 410616, Control_c, 0, 64, 67
1, 410619, Note_off_c, 0, 62, 62
1, 410627, Note_off_c, 0, 66, 61
1, 410630, Control_c, 0, 64, 0
1, 410633, Note_off_c, 0, 74, 64
1, 410693, Note_on_c, 0, 63, 75
1, 410696, Note_on_c, 0, 51, 74
1, 410698, Note_on_c, 0, 73, 89
1, 410705, Note_on_c, 0, 67, 77
1, 410724, Note_off_c, 0, 63, 64
1, 410729, Note_off_c, 0, 51, 63
1, 410731, Note_off_c, 0, 67, 67
1, 410754, Note_off_c, 0, 73, 64
1, 410806, Note_on_c, 0, 50, 70
1, 410810, Note_on_c, 0, 62, 45
1, 410812, Note_on_c, 0, 74, 86
1, 410819, Note_on_c, 0, 66, 81
1, 410830, Note_off_c, 0, 50, 66
1, 410839, Note_off_c, 0, 62, 36
1, 410852, Note_off_c, 0, 66, 62
1, 410860, Control_c, 0, 64, 60
1, 410864, Note_off_c, 0, 74, 62
1, 410875, Control_c, 0, 64, 76
1, 410890, Control_c, 0, 64, 127
1, 410913, Note_on_c, 0, 34, 79
1, 410913, Note_on_c, 0, 46, 82
1, 410940, Note_off_c, 0, 46, 68
1, 410943, Note_off_c, 0, 34, 64
1, 411033, Note_on_c, 0, 46, 74
1, 411039, Note_on_c, 0, 62, 60
1, 411040, Note_on_c, 0, 70, 62
1, 411042, Note_on_c, 0, 58, 69
1, 411053, Control_c, 0, 64, 104
1, 411067, Note_off_c, 0, 46, 65
1, 411067, Control_c, 0, 64, 95
1, 411069, Note_off_c, 0, 62, 66
1, 411070, Note_off_c, 0, 70, 65
1, 411071, Note_off_c, 0, 58, 64
1, 411082, Control_c, 0, 64, 89
1, 411096, Control_c, 0, 64, 84
1, 411111, Control_c, 0, 64, 80
1, 411126, Control_c, 0, 64, 76
1, 411130, Note_on_c, 0, 69, 66
1, 411131, Note_on_c, 0, 63, 58
1, 411140, Control_c, 0, 64, 71
1, 411149, Note_on_c, 0, 60, 75
1, 411155, Control_c, 0, 64, 66
1, 411161, Note_on_c, 0, 48, 61
1, 411166, Note_off_c, 0, 63, 65
1, 411170, Control_c, 0, 64, 63
1, 411174, Note_off_c, 0, 60, 69
1, 411176, Note_off_c, 0, 69, 59
1, 411184, Note_off_c, 0, 48, 58
1, 411185, Control_c, 0, 64, 60
1, 411200, Control_c, 0, 64, 59
1, 411215, Control_c, 0, 64, 58
1, 411230, Control_c, 0, 64, 56
1, 411239, Note_on_c, 0, 70, 79
1, 411245, Control_c, 0, 64, 53
1, 411247, Note_on_c, 0, 62, 66
1, 411251, Note_on_c, 0, 46, 71
1, 411252, Note_on_c, 0, 58, 74
1, 411260, Note_off_c, 0, 70, 72
1, 411260, Control_c, 0, 64, 48
1, 411275, Note_off_c, 0, 62, 68
1, 411275, Control_c, 0, 64, 40
1, 411282, Note_off_c, 0, 58, 67
1, 411283, Note_off_c, 0, 46, 65
1, 411290, Control_c, 0, 64, 34
1, 411305, Control_c, 0, 64, 28
1, 411319, Control_c, 0, 64, 18
1, 411334, Control_c, 0, 64, 0
1, 411345, Note_on_c, 0, 77, 94
1, 411352, Note_on_c, 0, 56, 69
1, 411357, Note_on_c, 0, 65, 72
1, 411358, Note_on_c, 0, 44, 62
1, 411380, Note_off_c, 0, 56, 66
1, 411382, Note_off_c, 0, 65, 68
1, 411389, Note_off_c, 0, 44, 64
1, 411394, Note_off_c, 0, 77, 63
1, 411448, Note_on_c, 0, 55, 80
1, 411450, Note_on_c, 0, 75, 91
1, 411450, Note_on_c, 0, 67, 85
1, 411453, Note_on_c, 0, 43, 73
1, 411476, Note_off_c, 0, 55, 67
1, 411481, Note_off_c, 0, 43, 64
1, 411485, Note_off_c, 0, 67, 64
1, 411509, Note_off_c, 0, 75, 63
1, 411550, Note_on_c, 0, 74, 82
1, 411554, Note_on_c, 0, 53, 94
1, 411560, Note_on_c, 0, 41, 84
1, 411561, Note_on_c, 0, 68, 80
1, 411585, Note_off_c, 0, 53, 66
1, 411588, Note_off_c, 0, 41, 66
1, 411591, Note_off_c, 0, 68, 66
1, 411605, Note_off_c, 0, 74, 64
1, 411656, Note_on_c, 0, 51, 92
1, 411659, Note_on_c, 0, 75, 87
1, 411663, Note_on_c, 0, 67, 68
1, 411666, Note_on_c, 0, 39, 77
1, 411677, Note_on_c, 0, 69, 63
1, 411691, Note_off_c, 0, 51, 58
1, 411692, Note_off_c, 0, 67, 67
1, 411695, Note_off_c, 0, 39, 67
1, 411696, Note_off_c, 0, 69, 63
1, 411707, Note_off_c, 0, 75, 63
1, 411762, Note_on_c, 0, 50, 91
1, 411766, Note_on_c, 0, 79, 84
1, 411772, Note_on_c, 0, 77, 83
1, 411773, Note_on_c, 0, 38, 73
1, 411776, Note_on_c, 0, 72, 78
1, 411796, Note_off_c, 0, 50, 65
1, 411798, Note_off_c, 0, 38, 65
1, 411798, Note_off_c, 0, 72, 71
1, 411798, Note_off_c, 0, 77, 63
1, 411808, Note_off_c, 0, 79, 66
1, 411814, Note_on_c, 0, 71, 10
1, 411838, Note_off_c, 0, 71, 38
1, 411868, Note_on_c, 0, 48, 95
1, 411875, Note_on_c, 0, 79, 96
1, 411879, Note_on_c, 0, 75, 94
1, 411883, Note_on_c, 0, 36, 75
1, 411901, Note_off_c, 0, 75, 65
1, 411907, Note_off_c, 0, 36, 65
1, 411912, Note_off_c, 0, 48, 64
1, 411919, Note_off_c, 0, 79, 68
1, 411983, Note_on_c, 0, 74, 95
1, 411984, Note_on_c, 0, 46, 77
1, 411984, Note_on_c, 0, 80, 103
1, 411990, Note_on_c, 0, 34, 78
1, 412028, Note_off_c, 0, 74, 65
1, 412041, Note_off_c, 0, 80, 63
1, 412047, Note_off_c, 0, 34, 56
1, 412049, Note_off_c, 0, 46, 58
1, 412097, Note_on_c, 0, 81, 94
1, 412100, Note_on_c, 0, 45, 84
1, 412103, Note_on_c, 0, 73, 97
1, 412106, Note_on_c, 0, 33, 77
1, 412113, Control_c, 0, 64, 40
1, 412128, Control_c, 0, 64, 72
1, 412142, Control_c, 0, 64, 127
1, 412171, Note_off_c, 0, 33, 62
1, 412184, Note_on_c, 0, 40, 67
1, 412193, Note_off_c, 0, 45, 63
1, 412202, Note_on_c, 0, 76, 79
1, 412205, Note_on_c, 0, 71, 81
1, 412209, Note_off_c, 0, 73, 62
1, 412216, Note_off_c, 0, 40, 64
1, 412225, Note_off_c, 0, 81, 62
1, 412256, Note_off_c, 0, 71, 63
1, 412263, Note_off_c, 0, 76, 63
1, 412324, Note_on_c, 0, 73, 87
1, 412325, Note_on_c, 0, 45, 70
1, 412335, Note_on_c, 0, 57, 57
1, 412344, Note_on_c, 0, 69, 65
1, 412344, Note_off_c, 0, 73, 69
1, 412356, Note_off_c, 0, 45, 64
1, 412358, Note_off_c, 0, 57, 60
1, 412369, Note_off_c, 0, 69, 65
1, 412372, Control_c, 0, 64, 106
1, 412386, Control_c, 0, 64, 87
1, 412401, Control_c, 0, 64, 71
1, 412416, Control_c, 0, 64, 60
1, 412420, Note_on_c, 0, 58, 77
1, 412425, Note_on_c, 0, 46, 71
1, 412431, Control_c, 0, 64, 21
1, 412436, Note_on_c, 0, 62, 77
1, 412436, Note_on_c, 0, 68, 79
1, 412446, Control_c, 0, 64, 0
1, 412455, Note_off_c, 0, 58, 63
1, 412461, Note_off_c, 0, 62, 68
1, 412461, Note_off_c, 0, 46, 63
1, 412473, Note_off_c, 0, 68, 61
1, 412525, Note_on_c, 0, 57, 62
1, 412532, Note_on_c, 0, 45, 60
1, 412539, Note_on_c, 0, 69, 80
1, 412543, Note_on_c, 0, 61, 75
1, 412547, Note_off_c, 0, 57, 61
1, 412565, Note_off_c, 0, 45, 64
1, 412571, Note_off_c, 0, 61, 63
1, 412584, Note_off_c, 0, 69, 60
1, 412634, Note_on_c, 0, 45, 68
1, 412644, Note_on_c, 0, 33, 62
1, 412644, Note_on_c, 0, 66, 62
1, 412650, Note_on_c, 0, 63, 53
1, 412666, Note_off_c, 0, 45, 65
1, 412672, Note_off_c, 0, 33, 57
1, 412678, Note_off_c, 0, 63, 63
1, 412698, Note_off_c, 0, 66, 59
1, 412743, Note_on_c, 0, 32, 68
1, 412752, Note_on_c, 0, 44, 49
1, 412770, Note_on_c, 0, 68, 64
1, 412772, Control_c, 0, 64, 61
1, 412774, Note_off_c, 0, 32, 64
1, 412778, Note_on_c, 0, 60, 47
1, 412782, Note_off_c, 0, 44, 53
1, 412786, Control_c, 0, 64, 71
1, 412801, Note_off_c, 0, 60, 57
1, 412801, Control_c, 0, 64, 96
1, 412805, Note_off_c, 0, 68, 62
1, 412816, Control_c, 0, 64, 127
1, 412872, Note_on_c, 0, 58, 77
1, 412872, Note_on_c, 0, 46, 69
1, 412879, Note_on_c, 0, 67, 59
1, 412899, Note_off_c, 0, 58, 67
1, 412902, Note_off_c, 0, 46, 64
1, 412926, Note_off_c, 0, 67, 60
1, 412965, Control_c, 0, 64, 117
1, 412977, Note_on_c, 0, 68, 78
1, 412979, Note_on_c, 0, 44, 76
1, 412980, Control_c, 0, 64, 103
1, 412982, Note_on_c, 0, 56, 72
1, 412995, Control_c, 0, 64, 97
1, 412996, Note_on_c, 0, 60, 46
1, 413000, Note_off_c, 0, 68, 69
1, 413001, Note_off_c, 0, 56, 65
1, 413005, Note_off_c, 0, 44, 63
1, 413009, Control_c, 0, 64, 91
1, 413017, Note_off_c, 0, 60, 60
1, 413024, Control_c, 0, 64, 86
1, 413047, Control_c, 0, 64, 81
1, 413062, Control_c, 0, 64, 76
1, 413077, Control_c, 0, 64, 73
1, 413088, Note_on_c, 0, 42, 75
1, 413088, Note_on_c, 0, 75, 93
1, 413090, Note_on_c, 0, 54, 73
1, 413091, Control_c, 0, 64, 69
1, 413092, Note_on_c, 0, 63, 79
1, 413106, Control_c, 0, 64, 67
1, 413116, Note_off_c, 0, 63, 69
1, 413120, Note_off_c, 0, 42, 65
1, 413120, Note_off_c, 0, 54, 68
1, 413121, Control_c, 0, 64, 65
1, 413125, Note_off_c, 0, 75, 53
1, 413136, Control_c, 0, 64, 63
1, 413150, Control_c, 0, 64, 59
1, 413165, Control_c, 0, 64, 56
1, 413180, Control_c, 0, 64, 51
1, 413190, Note_on_c, 0, 53, 84
1, 413195, Control_c, 0, 64, 43
1, 413196, Note_on_c, 0, 65, 85
1, 413197, Note_on_c, 0, 73, 89
1, 413197, Note_on_c, 0, 41, 75
1, 413210, Control_c, 0, 64, 25
1, 413215, Note_off_c, 0, 53, 70
1, 413223, Note_off_c, 0, 65, 65
1, 413224, Control_c, 0, 64, 0
1, 413225, Note_off_c, 0, 41, 66
1, 413247, Note_off_c, 0, 73, 63
1, 413292, Note_on_c, 0, 72, 79
1, 413293, Note_on_c, 0, 51, 76
1, 413298, Note_on_c, 0, 39, 71
1, 413300, Note_on_c, 0, 66, 77
1, 413320, Note_off_c, 0, 51, 66
1, 413327, Note_off_c, 0, 66, 68
1, 413331, Note_off_c, 0, 39, 64
1, 413346, Note_off_c, 0, 72, 62
1, 413391, Note_on_c, 0, 65, 80
1, 413393, Note_on_c, 0, 49, 84
1, 413394, Note_on_c, 0, 73, 80
1, 413397, Note_on_c, 0, 37, 71
1, 413423, Note_off_c, 0, 49, 63
1, 413430, Note_off_c, 0, 65, 60
1, 413432, Note_off_c, 0, 37, 65
1, 413441, Note_off_c, 0, 73, 64
1, 413501, Note_on_c, 0, 48, 86
1, 413507, Note_on_c, 0, 70, 83
1, 413512, Note_on_c, 0, 36, 70
1, 413515, Note_on_c, 0, 76, 68
1, 413526, Note_off_c, 0, 48, 68
1, 413526, Note_off_c, 0, 70, 72
1, 413535, Note_on_c, 0, 77, 44
1, 413540, Note_off_c, 0, 36, 64
1, 413542, Note_off_c, 0, 76, 67
1, 413561, Note_off_c, 0, 77, 37
1, 413605, Note_on_c, 0, 46, 78
1, 413610, Note_on_c, 0, 34, 76
1, 413611, Note_on_c, 0, 73, 88
1, 413611, Note_on_c, 0, 77, 90
1, 413638, Note_off_c, 0, 46, 66
1, 413638, Note_off_c, 0, 73, 66
1, 413644, Note_off_c, 0, 34, 64
1, 413654, Note_off_c, 0, 77, 62
1, 413715, Note_on_c, 0, 44, 64
1, 413716, Note_on_c, 0, 32, 79
1, 413716, Note_on_c, 0, 72, 82
1, 413716, Note_on_c, 0, 78, 96
1, 413740, Note_off_c, 0, 72, 69
1, 413754, Note_off_c, 0, 32, 62
1, 413757, Note_off_c, 0, 44, 62
1, 413764, Note_off_c, 0, 78, 65
1, 413811, Control_c, 0, 64, 50
1, 413826, Control_c, 0, 64, 72
1, 413829, Note_on_c, 0, 79, 101
1, 413832, Note_on_c, 0, 71, 100
1, 413837, Note_on_c, 0, 43, 85
1, 413841, Note_on_c, 0, 31, 77
1, 413841, Control_c, 0, 64, 127
1, 413865, Note_off_c, 0, 43, 67
1, 413866, Note_off_c, 0, 31, 65
1, 413867, Note_off_c, 0, 71, 68
1, 413872, Note_off_c, 0, 79, 66
1, 413941, Note_on_c, 0, 32, 68
1, 413941, Note_on_c, 0, 44, 83
1, 413952, Note_on_c, 0, 65, 74
1, 413959, Note_on_c, 0, 72, 69
1, 413975, Note_off_c, 0, 44, 61
1, 413978, Note_off_c, 0, 65, 66
1, 413982, Note_off_c, 0, 32, 60
1, 413984, Note_off_c, 0, 72, 67
1, 414050, Note_on_c, 0, 71, 88
1, 414052, Note_on_c, 0, 74, 90
1, 414061, Note_on_c, 0, 43, 91
1, 414070, Note_on_c, 0, 31, 71
1, 414079, Note_off_c, 0, 71, 62
1, 414083, Note_off_c, 0, 43, 71
1, 414094, Note_off_c, 0, 74, 67
1, 414097, Note_off_c, 0, 31, 65
1, 414137, Control_c, 0, 64, 93
1, 414152, Control_c, 0, 64, 76
1, 414155, Note_on_c, 0, 76, 103
1, 414156, Note_on_c, 0, 42, 92
1, 414159, Note_on_c, 0, 70, 89
1, 414161, Note_on_c, 0, 30, 84
1, 414166, Control_c, 0, 64, 64
1, 414178, Note_off_c, 0, 70, 69
1, 414181, Control_c, 0, 64, 50
1, 414187, Note_on_c, 0, 71, 67
1, 414196, Control_c, 0, 64, 24
1, 414210, Note_off_c, 0, 76, 65
1, 414211, Note_off_c, 0, 30, 62
1, 414211, Note_off_c, 0, 71, 64
1, 414211, Control_c, 0, 64, 0
1, 414214, Note_off_c, 0, 42, 60
1, 414279, Note_on_c, 0, 41, 98
1, 414279, Note_on_c, 0, 69, 101
1, 414281, Note_on_c, 0, 77, 108
1, 414285, Note_on_c, 0, 29, 86
1, 414317, Note_off_c, 0, 29, 66
1, 414318, Note_off_c, 0, 41, 66
1, 414326, Note_off_c, 0, 69, 65
1, 414333, Note_off_c, 0, 77, 67
1, 414402, Note_on_c, 0, 72, 98
1, 414404, Note_on_c, 0, 80, 99
1, 414406, Note_on_c, 0, 78, 97
1, 414407, Note_on_c, 0, 27, 88
1, 414408, Note_on_c, 0, 39, 84
1, 414437, Note_off_c, 0, 72, 65
1, 414441, Note_off_c, 0, 39, 62
1, 414447, Note_off_c, 0, 27, 59
1, 414467, Note_off_c, 0, 78, 61
1, 414475, Note_off_c, 0, 80, 65
1, 414550, Note_on_c, 0, 37, 91
1, 414553, Note_on_c, 0, 77, 99
1, 414553, Note_on_c, 0, 85, 96
1, 414553, Note_on_c, 0, 80, 92
1, 414560, Control_c, 0, 64, 60
1, 414561, Note_on_c, 0, 25, 77
1, 414575, Control_c, 0, 64, 77
1, 414589, Control_c, 0, 64, 127
1, 414605, Note_off_c, 0, 25, 63
1, 414654, Note_off_c, 0, 37, 62
1, 414659, Poly_aftertouch_c, 0, 27, 127
1, 414664, Note_on_c, 0, 75, 84
1, 414665, Note_off_c, 0, 85, 63
1, 414667, Note_off_c, 0, 77, 62
1, 414674, Note_on_c, 0, 81, 73
1, 414678, Note_on_c, 0, 36, 58
1, 414695, Note_on_c, 0, 35, 9
1, 414696, Note_off_c, 0, 80, 64
1, 414702, Poly_aftertouch_c, 0, 27, 0
1, 414708, Note_off_c, 0, 36, 61
1, 414720, Note_off_c, 0, 81, 65
1, 414727, Note_off_c, 0, 75, 64
1, 414738, Control_c, 0, 64, 117
1, 414747, Note_off_c, 0, 35, 48
1, 414753, Control_c, 0, 64, 67
1, 414768, Control_c, 0, 64, 0
1, 414779, Note_on_c, 0, 46, 83
1, 414781, Note_on_c, 0, 82, 99
1, 414782, Note_on_c, 0, 34, 79
1, 414782, Note_on_c, 0, 74, 94
1, 414811, Control_c, 0, 64, 56
1, 414826, Control_c, 0, 64, 72
1, 414831, Note_off_c, 0, 82, 65
1, 414832, Note_off_c, 0, 74, 62
1, 414841, Control_c, 0, 64, 119
1, 414846, Note_on_c, 0, 41, 58
1, 414854, Note_off_c, 0, 46, 63
1, 414856, Control_c, 0, 64, 127
1, 414860, Note_off_c, 0, 34, 62
1, 414884, Note_on_c, 0, 72, 80
1, 414885, Note_off_c, 0, 41, 65
1, 414911, Note_off_c, 0, 72, 63
1, 414980, Note_on_c, 0, 46, 80
1, 414989, Control_c, 0, 64, 111
1, 414989, Note_on_c, 0, 74, 85
1, 414997, Note_on_c, 0, 70, 80
1, 415003, Control_c, 0, 64, 89
1, 415018, Note_off_c, 0, 70, 72
1, 415018, Control_c, 0, 64, 77
1, 415027, Note_on_c, 0, 58, 14
1, 415030, Note_off_c, 0, 46, 63
1, 415033, Control_c, 0, 64, 67
1, 415040, Note_off_c, 0, 74, 62
1, 415048, Control_c, 0, 64, 58
1, 415053, Note_off_c, 0, 58, 44
1, 415063, Control_c, 0, 64, 47
1, 415078, Control_c, 0, 64, 43
1, 415093, Control_c, 0, 64, 40
1, 415099, Note_on_c, 0, 75, 85
1, 415100, Note_on_c, 0, 69, 70
1, 415107, Control_c, 0, 64, 34
1, 415111, Note_on_c, 0, 47, 59
1, 415122, Control_c, 0, 64, 25
1, 415125, Note_off_c, 0, 69, 69
1, 415129, Note_off_c, 0, 75, 64
1, 415137, Control_c, 0, 64, 0
1, 415142, Note_off_c, 0, 47, 63
1, 415205, Note_on_c, 0, 51, 67
1, 415205, Note_on_c, 0, 76, 78
1, 415206, Note_on_c, 0, 68, 78
1, 415234, Note_off_c, 0, 68, 64
1, 415239, Note_off_c, 0, 76, 62
1, 415245, Note_off_c, 0, 51, 64
1, 415300, Note_on_c, 0, 77, 81
1, 415331, Note_on_c, 0, 50, 50
1, 415332, Note_on_c, 0, 71, 48
1, 415334, Note_off_c, 0, 77, 63
1, 415355, Note_off_c, 0, 71, 53
1, 415365, Note_off_c, 0, 50, 63
1, 415444, Note_on_c, 0, 63, 58
1, 415447, Note_on_c, 0, 68, 56
1, 415451, Note_on_c, 0, 53, 44
1, 415474, Note_off_c, 0, 63, 64
1, 415477, Note_off_c, 0, 68, 62
1, 415486, Note_off_c, 0, 53, 60
1, 415527, Note_on_c, 0, 51, 50
1, 415533, Note_on_c, 0, 69, 62
1, 415552, Note_on_c, 0, 66, 33
1, 415558, Note_off_c, 0, 51, 63
1, 415569, Note_off_c, 0, 69, 63
1, 415585, Note_off_c, 0, 66, 44
1, 415635, Note_on_c, 0, 50, 53
1, 415638, Note_on_c, 0, 70, 71
1, 415644, Note_on_c, 0, 62, 38
1, 415662, Note_off_c, 0, 50, 57
1, 415665, Note_on_c, 0, 65, 34
1, 415672, Note_off_c, 0, 70, 59
1, 415675, Note_off_c, 0, 62, 49
1, 415699, Note_off_c, 0, 65, 43
1, 415732, Note_on_c, 0, 49, 62
1, 415736, Note_on_c, 0, 71, 67
1, 415739, Note_on_c, 0, 68, 61
1, 415740, Note_on_c, 0, 61, 49
1, 415767, Note_off_c, 0, 61, 58
1, 415769, Note_off_c, 0, 49, 63
1, 415770, Note_off_c, 0, 68, 65
1, 415779, Note_off_c, 0, 71, 62
1, 415832, Note_on_c, 0, 48, 65
1, 415832, Note_on_c, 0, 60, 62
1, 415839, Note_on_c, 0, 72, 71
1, 415857, Note_on_c, 0, 65, 48
1, 415862, Note_off_c, 0, 48, 65
1, 415862, Note_off_c, 0, 60, 66
1, 415863, Note_off_c, 0, 72, 68
1, 415881, Note_off_c, 0, 65, 55
1, 415933, Note_on_c, 0, 75, 91
1, 415936, Note_on_c, 0, 57, 77
1, 415939, Note_on_c, 0, 45, 69
1, 415947, Note_on_c, 0, 66, 53
1, 415961, Note_off_c, 0, 57, 67
1, 415966, Note_off_c, 0, 45, 66
1, 415970, Note_off_c, 0, 66, 41
1, 415981, Note_off_c, 0, 75, 63
1, 416045, Note_on_c, 0, 56, 85
1, 416046, Note_on_c, 0, 78, 92
1, 416050, Note_on_c, 0, 44, 77
1, 416051, Note_on_c, 0, 72, 87
1, 416072, Note_off_c, 0, 56, 67
1, 416076, Note_off_c, 0, 72, 66
1, 416083, Note_off_c, 0, 44, 66
1, 416100, Note_off_c, 0, 78, 64
1, 416150, Note_on_c, 0, 75, 98
1, 416151, Note_on_c, 0, 81, 94
1, 416152, Note_on_c, 0, 54, 86
1, 416153, Note_on_c, 0, 42, 84
1, 416184, Note_off_c, 0, 75, 66
1, 416193, Note_off_c, 0, 42, 61
1, 416197, Note_off_c, 0, 54, 60
1, 416199, Note_off_c, 0, 81, 67
1, 416262, Note_on_c, 0, 82, 97
1, 416267, Note_on_c, 0, 80, 98
1, 416270, Note_on_c, 0, 52, 84
1, 416274, Note_on_c, 0, 40, 85
1, 416294, Note_on_c, 0, 50, 52
1, 416295, Note_off_c, 0, 50, 127
1, 416306, Note_off_c, 0, 80, 66
1, 416307, Note_off_c, 0, 40, 67
1, 416312, Note_off_c, 0, 52, 63
1, 416316, Note_off_c, 0, 82, 66
1, 416377, Note_on_c, 0, 50, 96
1, 416378, Note_on_c, 0, 84, 96
1, 416381, Note_on_c, 0, 38, 81
1, 416384, Note_on_c, 0, 78, 96
1, 416414, Note_off_c, 0, 38, 66
1, 416417, Note_off_c, 0, 50, 64
1, 416431, Note_off_c, 0, 84, 65
1, 416437, Note_off_c, 0, 78, 60
1, 416495, Note_on_c, 0, 85, 99
1, 416497, Note_on_c, 0, 77, 96
1, 416499, Note_on_c, 0, 37, 79
1, 416500, Note_on_c, 0, 49, 83
1, 416503, Control_c, 0, 64, 23
1, 416517, Control_c, 0, 64, 68
1, 416532, Control_c, 0, 64, 87
1, 416547, Control_c, 0, 64, 127
1, 416572, Note_off_c, 0, 49, 62
1, 416578, Note_off_c, 0, 37, 61
1, 416581, Note_off_c, 0, 85, 56
1, 416586, Note_on_c, 0, 44, 66
1, 416598, Note_on_c, 0, 80, 78
1, 416602, Note_on_c, 0, 75, 80
1, 416604, Note_off_c, 0, 77, 62
1, 416619, Note_off_c, 0, 44, 65
1, 416631, Note_off_c, 0, 75, 61
1, 416634, Note_off_c, 0, 80, 60
1, 416665, Control_c, 0, 64, 99
1, 416680, Control_c, 0, 64, 84
1, 416695, Control_c, 0, 64, 76
1, 416709, Control_c, 0, 64, 72
1, 416713, Note_on_c, 0, 77, 84
1, 416714, Note_on_c, 0, 49, 77
1, 416720, Note_on_c, 0, 73, 80
1, 416723, Note_on_c, 0, 61, 68
1, 416724, Control_c, 0, 64, 72
1, 416739, Control_c, 0, 64, 72
1, 416741, Note_off_c, 0, 49, 66
1, 416743, Note_off_c, 0, 73, 69
1, 416753, Note_off_c, 0, 61, 65
1, 416753, Control_c, 0, 64, 71
1, 416768, Note_off_c, 0, 77, 63
1, 416768, Control_c, 0, 64, 67
1, 416791, Control_c, 0, 64, 48
1, 416806, Control_c, 0, 64, 0
1, 416826, Note_on_c, 0, 50, 76
1, 416828, Note_on_c, 0, 72, 83
1, 416828, Note_on_c, 0, 78, 87
1, 416830, Note_on_c, 0, 62, 75
1, 416857, Note_off_c, 0, 62, 69
1, 416859, Note_off_c, 0, 50, 65
1, 416866, Control_c, 0, 64, 16
1, 416881, Control_c, 0, 64, 49
1, 416884, Note_off_c, 0, 72, 59
1, 416896, Control_c, 0, 64, 60
1, 416901, Note_off_c, 0, 78, 60
1, 416911, Control_c, 0, 64, 65
1, 416926, Control_c, 0, 64, 71
1, 416940, Control_c, 0, 64, 84
1, 416949, Note_on_c, 0, 74, 71
1, 416955, Note_on_c, 0, 66, 76
1, 416955, Note_on_c, 0, 79, 70
1, 416955, Control_c, 0, 64, 127
1, 416957, Note_on_c, 0, 54, 71
1, 417001, Note_off_c, 0, 54, 59
1, 417007, Note_off_c, 0, 79, 64
1, 417015, Note_off_c, 0, 66, 59
1, 417042, Note_off_c, 0, 74, 60
1, 417072, Note_on_c, 0, 80, 79
1, 417079, Note_on_c, 0, 53, 69
1, 417081, Note_on_c, 0, 73, 78
1, 417081, Note_on_c, 0, 65, 71
1, 417122, Note_off_c, 0, 80, 57
1, 417132, Note_off_c, 0, 73, 63
1, 417137, Note_off_c, 0, 65, 60
1, 417143, Note_off_c, 0, 53, 62
1, 417162, Control_c, 0, 64, 85
1, 417177, Control_c, 0, 64, 63
1, 417191, Control_c, 0, 64, 25
1, 417206, Control_c, 0, 64, 34
1, 417221, Control_c, 0, 64, 56
1, 417231, Note_on_c, 0, 70, 78
1, 417232, Note_on_c, 0, 64, 64
1, 417235, Note_on_c, 0, 52, 47
1, 417236, Note_on_c, 0, 68, 77
1, 417236, Control_c, 0, 64, 66
1, 417251, Control_c, 0, 64, 80
1, 417261, Note_off_c, 0, 52, 61
1, 417263, Note_off_c, 0, 64, 67
1, 417265, Control_c, 0, 64, 127
1, 417350, Note_on_c, 0, 71, 85
1, 417354, Note_off_c, 0, 68, 61
1, 417361, Note_on_c, 0, 63, 73
1, 417362, Note_on_c, 0, 51, 74
1, 417363, Note_on_c, 0, 67, 80
1, 417414, Note_off_c, 0, 63, 59
1, 417418, Note_off_c, 0, 51, 61
1, 417419, Note_off_c, 0, 70, 61
1, 417424, Note_off_c, 0, 67, 62
1, 417474, Note_on_c, 0, 66, 90
1, 417476, Note_on_c, 0, 72, 88
1, 417477, Note_on_c, 0, 50, 82
1, 417477, Note_on_c, 0, 62, 90
1, 417505, Note_off_c, 0, 50, 68
1, 417507, Note_off_c, 0, 62, 64
1, 417527, Note_off_c, 0, 71, 59
1, 417543, Note_off_c, 0, 66, 61
1, 417588, Note_off_c, 0, 72, 57
1, 417590, Note_on_c, 0, 61, 97
1, 417596, Note_on_c, 0, 73, 91
1, 417597, Note_on_c, 0, 65, 82
1, 417598, Note_on_c, 0, 49, 71
1, 417631, Note_off_c, 0, 49, 66
1, 417646, Note_off_c, 0, 65, 62
1, 417650, Note_off_c, 0, 61, 62
1, 417671, Note_off_c, 0, 73, 65
1, 417703, Control_c, 0, 64, 72
1, 417707, Note_on_c, 0, 46, 65
1, 417716, Note_on_c, 0, 49, 53
1, 417718, Control_c, 0, 64, 24
1, 417732, Note_on_c, 0, 74, 93
1, 417733, Note_on_c, 0, 66, 91
1, 417733, Control_c, 0, 64, 19
1, 417740, Note_off_c, 0, 46, 63
1, 417742, Note_on_c, 0, 61, 102
1, 417748, Control_c, 0, 64, 57
1, 417762, Control_c, 0, 64, 69
1, 417777, Control_c, 0, 64, 91
1, 417792, Control_c, 0, 64, 127
1, 417794, Note_off_c, 0, 61, 65
1, 417799, Note_off_c, 0, 49, 61
1, 417819, Note_off_c, 0, 66, 59
1, 417842, Note_off_c, 0, 74, 61
1, 417860, Note_on_c, 0, 70, 87
1, 417868, Note_on_c, 0, 75, 83
1, 417903, Note_off_c, 0, 70, 68
1, 417938, Note_off_c, 0, 75, 63
1, 417948, Note_on_c, 0, 44, 40
1, 417999, Control_c, 0, 64, 76
1, 418014, Control_c, 0, 64, 48
1, 418026, Note_on_c, 0, 49, 56
1, 418029, Control_c, 0, 64, 0
1, 418035, Note_on_c, 0, 59, 101
1, 418036, Note_on_c, 0, 76, 101
1, 418037, Note_on_c, 0, 71, 86
1, 418037, Note_off_c, 0, 44, 63
1, 418044, Control_c, 0, 64, 42
1, 418047, Note_on_c, 0, 57, 60
1, 418059, Control_c, 0, 64, 64
1, 418070, Note_off_c, 0, 59, 67
1, 418074, Note_off_c, 0, 57, 39
1, 418074, Control_c, 0, 64, 81
1, 418085, Note_off_c, 0, 49, 64
1, 418088, Control_c, 0, 64, 127
1, 418152, Note_off_c, 0, 71, 55
1, 418193, Note_on_c, 0, 42, 90
1, 418194, Note_on_c, 0, 30, 78
1, 418199, Note_on_c, 0, 83, 97
1, 418201, Note_on_c, 0, 77, 82
1, 418207, Note_off_c, 0, 76, 67
1, 418217, Note_off_c, 0, 42, 67
1, 418224, Note_off_c, 0, 77, 70
1, 418226, Note_off_c, 0, 30, 64
1, 418233, Note_off_c, 0, 83, 67
1, 418386, Note_on_c, 0, 49, 60
1, 418421, Control_c, 0, 64, 77
1, 418423, Note_on_c, 0, 54, 56
1, 418437, Control_c, 0, 64, 51
1, 418452, Control_c, 0, 64, 0
1, 418467, Control_c, 0, 64, 44
1, 418471, Note_on_c, 0, 61, 101
1, 418471, Note_on_c, 0, 82, 85
1, 418472, Note_on_c, 0, 73, 89
1, 418475, Note_on_c, 0, 78, 90
1, 418482, Control_c, 0, 64, 65
1, 418497, Control_c, 0, 64, 83
1, 418511, Control_c, 0, 64, 127
1, 418517, Note_off_c, 0, 54, 64
1, 418527, Note_off_c, 0, 61, 67
1, 418552, Note_off_c, 0, 49, 62
1, 418578, Note_off_c, 0, 82, 64
1, 418580, Note_off_c, 0, 73, 55
1, 418635, Note_on_c, 0, 81, 78
1, 418641, Note_on_c, 0, 72, 66
1, 418688, Note_off_c, 0, 78, 60
1, 418701, Note_off_c, 0, 72, 64
1, 418766, Note_on_c, 0, 30, 77
1, 418766, Note_on_c, 0, 42, 81
1, 418773, Note_on_c, 0, 82, 87
1, 418774, Note_on_c, 0, 73, 90
1, 418794, Note_off_c, 0, 42, 66
1, 418801, Note_off_c, 0, 30, 64
1, 418810, Note_off_c, 0, 81, 40
1, 418830, Note_off_c, 0, 73, 63
1, 418865, Note_off_c, 0, 82, 62
1, 418869, Note_on_c, 0, 42, 82
1, 418876, Note_on_c, 0, 30, 57
1, 418890, Note_off_c, 0, 42, 72
1, 418893, Note_on_c, 0, 78, 85
1, 418896, Note_on_c, 0, 70, 71
1, 418898, Note_off_c, 0, 30, 63
1, 418923, Note_off_c, 0, 70, 66
1, 418992, Note_off_c, 0, 78, 62
1, 419015, Control_c, 0, 64, 80
1, 419037, Control_c, 0, 64, 52
1, 419043, Note_on_c, 0, 66, 98
1, 419046, Note_on_c, 0, 76, 88
1, 419052, Control_c, 0, 64, 0
1, 419052, Note_on_c, 0, 85, 88
1, 419054, Note_on_c, 0, 61, 75
1, 419055, Note_on_c, 0, 54, 72
1, 419057, Note_on_c, 0, 58, 72
1, 419081, Control_c, 0, 64, 38
1, 419096, Control_c, 0, 64, 60
1, 419111, Control_c, 0, 64, 72
1, 419126, Control_c, 0, 64, 95
1, 419141, Control_c, 0, 64, 127
1, 419156, Note_off_c, 0, 66, 61
1, 419161, Note_off_c, 0, 61, 50
1, 419171, Note_off_c, 0, 58, 59
1, 419172, Note_on_c, 0, 75, 71
1, 419177, Note_on_c, 0, 84, 75
1, 419185, Note_off_c, 0, 54, 63
1, 419189, Note_off_c, 0, 85, 60
1, 419195, Note_off_c, 0, 76, 61
1, 419300, Note_off_c, 0, 75, 35
1, 419302, Note_on_c, 0, 85, 66
1, 419313, Note_on_c, 0, 76, 66
1, 419314, Note_on_c, 0, 54, 69
1, 419317, Note_on_c, 0, 42, 64
1, 419321, Note_off_c, 0, 84, 44
1, 419344, Note_off_c, 0, 54, 65
1, 419346, Note_off_c, 0, 42, 61
1, 419397, Note_off_c, 0, 85, 59
1, 419402, Note_off_c, 0, 76, 63
1, 419410, Note_on_c, 0, 54, 69
1, 419415, Note_on_c, 0, 73, 65
1, 419419, Note_on_c, 0, 42, 53
1, 419424, Note_on_c, 0, 82, 58
1, 419440, Note_off_c, 0, 42, 64
1, 419440, Note_off_c, 0, 54, 65
1, 419457, Note_off_c, 0, 73, 57
1, 419509, Note_off_c, 0, 82, 61
1, 419541, Control_c, 0, 64, 110
1, 419556, Control_c, 0, 64, 75
1, 419564, Note_on_c, 0, 65, 88
1, 419567, Note_on_c, 0, 62, 76
1, 419571, Control_c, 0, 64, 57
1, 419575, Note_on_c, 0, 53, 68
1, 419575, Note_on_c, 0, 59, 66
1, 419585, Control_c, 0, 64, 48
1, 419586, Note_on_c, 0, 86, 73
1, 419593, Note_on_c, 0, 77, 40
1, 419600, Control_c, 0, 64, 57
1, 419615, Control_c, 0, 64, 63
1, 419630, Control_c, 0, 64, 68
1, 419645, Control_c, 0, 64, 77
1, 419660, Control_c, 0, 64, 119
1, 419668, Note_off_c, 0, 77, 53
1, 419675, Control_c, 0, 64, 127
1, 419689, Note_off_c, 0, 53, 62
1, 419706, Note_on_c, 0, 85, 76
1, 419716, Note_on_c, 0, 76, 67
1, 419723, Note_off_c, 0, 59, 59
1, 419745, Note_off_c, 0, 86, 59
1, 419746, Note_off_c, 0, 65, 61
1, 419782, Note_off_c, 0, 76, 62
1, 419785, Note_off_c, 0, 62, 47
1, 419809, Note_off_c, 0, 85, 64
1, 419830, Control_c, 0, 64, 95
1, 419838, Note_on_c, 0, 66, 102
1, 419840, Note_on_c, 0, 62, 74
1, 419844, Note_on_c, 0, 54, 81
1, 419845, Note_on_c, 0, 59, 82
1, 419845, Control_c, 0, 64, 68
1, 419853, Note_on_c, 0, 77, 72
1, 419855, Note_on_c, 0, 86, 74
1, 419859, Control_c, 0, 64, 48
1, 419874, Control_c, 0, 64, 54
1, 419889, Control_c, 0, 64, 63
1, 419903, Note_off_c, 0, 54, 65
1, 419904, Control_c, 0, 64, 70
1, 419919, Control_c, 0, 64, 88
1, 419934, Control_c, 0, 64, 127
1, 419943, Note_on_c, 0, 83, 75
1, 419958, Poly_aftertouch_c, 0, 65, 0
1, 419960, Note_on_c, 0, 74, 80
1, 419960, Note_off_c, 0, 77, 62
1, 419965, Note_off_c, 0, 59, 59
1, 419974, Note_off_c, 0, 86, 62
1, 420005, Note_off_c, 0, 66, 60
1, 420006, Note_off_c, 0, 83, 65
1, 420023, Note_off_c, 0, 74, 62
1, 420068, Control_c, 0, 64, 87
1, 420083, Control_c, 0, 64, 65
1, 420091, Note_on_c, 0, 68, 105
1, 420098, Control_c, 0, 64, 57
1, 420099, Note_on_c, 0, 80, 93
1, 420101, Note_on_c, 0, 71, 88
1, 420102, Note_on_c, 0, 59, 65
1, 420108, Note_on_c, 0, 56, 69
1, 420113, Control_c, 0, 64, 66
1, 420123, Note_on_c, 0, 66, 49
1, 420124, Note_off_c, 0, 66, 127
1, 420128, Control_c, 0, 64, 87
1, 420142, Note_off_c, 0, 71, 61
1, 420143, Control_c, 0, 64, 127
1, 420152, Note_off_c, 0, 68, 68
1, 420160, Poly_aftertouch_c, 0, 66, 0
1, 420176, Note_off_c, 0, 59, 50
1, 420191, Note_off_c, 0, 62, 54
1, 420209, Note_off_c, 0, 56, 63
1, 420218, Note_off_c, 0, 80, 53
1, 420221, Note_on_c, 0, 79, 82
1, 420223, Note_on_c, 0, 70, 90
1, 420327, Note_off_c, 0, 70, 62
1, 420334, Note_on_c, 0, 42, 77
1, 420334, Note_on_c, 0, 54, 80
1, 420340, Note_on_c, 0, 80, 87
1, 420343, Note_on_c, 0, 71, 80
1, 420361, Note_off_c, 0, 54, 68
1, 420363, Note_off_c, 0, 42, 64
1, 420385, Note_off_c, 0, 79, 59
1, 420413, Note_off_c, 0, 71, 52
1, 420427, Note_off_c, 0, 80, 63
1, 420440, Note_on_c, 0, 54, 69
1, 420450, Note_on_c, 0, 77, 80
1, 420451, Note_on_c, 0, 42, 41
1, 420451, Note_on_c, 0, 75, 76
1, 420467, Note_off_c, 0, 54, 69
1, 420472, Note_off_c, 0, 42, 63
1, 420477, Note_off_c, 0, 75, 64
1, 420480, Note_off_c, 0, 77, 63
1, 420579, Control_c, 0, 64, 97
1, 420594, Control_c, 0, 64, 65
1, 420608, Control_c, 0, 64, 0
1, 420609, Note_on_c, 0, 70, 96
1, 420612, Note_on_c, 0, 85, 93
1, 420613, Note_on_c, 0, 78, 99
1, 420614, Note_on_c, 0, 58, 75
1, 420616, Note_on_c, 0, 66, 75
1, 420628, Note_on_c, 0, 61, 65
1, 420638, Control_c, 0, 64, 54
1, 420653, Control_c, 0, 64, 68
1, 420668, Control_c, 0, 64, 92
1, 420682, Control_c, 0, 64, 127
1, 420702, Note_off_c, 0, 70, 66
1, 420710, Note_off_c, 0, 66, 60
1, 420741, Note_off_c, 0, 61, 53
1, 420743, Note_on_c, 0, 75, 81
1, 420744, Note_on_c, 0, 84, 80
1, 420745, Note_off_c, 0, 58, 63
1, 420745, Note_off_c, 0, 85, 56
1, 420758, Note_off_c, 0, 78, 58
1, 420825, Note_off_c, 0, 75, 59
1, 420868, Note_on_c, 0, 85, 73
1, 420869, Note_on_c, 0, 78, 92
1, 420870, Note_on_c, 0, 54, 82
1, 420870, Note_on_c, 0, 42, 79
1, 420873, Note_off_c, 0, 84, 57
1, 420894, Note_off_c, 0, 54, 70
1, 420897, Note_off_c, 0, 42, 66
1, 420938, Note_off_c, 0, 85, 63
1, 420968, Note_on_c, 0, 42, 57
1, 420971, Note_on_c, 0, 54, 65
1, 420977, Note_on_c, 0, 82, 88
1, 420979, Note_on_c, 0, 73, 81
1, 420989, Note_off_c, 0, 78, 55
1, 420992, Note_off_c, 0, 42, 58
1, 421000, Note_off_c, 0, 54, 64
1, 421028, Note_off_c, 0, 73, 63
1, 421053, Note_off_c, 0, 82, 64
1, 421098, Control_c, 0, 64, 77
1, 421113, Control_c, 0, 64, 53
1, 421117, Note_on_c, 0, 66, 95
1, 421120, Note_on_c, 0, 63, 88
1, 421121, Note_on_c, 0, 78, 102
1, 421122, Note_on_c, 0, 54, 78
1, 421123, Note_on_c, 0, 87, 90
1, 421124, Note_on_c, 0, 58, 76
1, 421128, Control_c, 0, 64, 0
1, 421131, Note_on_c, 0, 85, 85
1, 421143, Control_c, 0, 64, 34
1, 421152, Note_off_c, 0, 85, 71
1, 421158, Control_c, 0, 64, 63
1, 421172, Control_c, 0, 64, 77
1, 421187, Control_c, 0, 64, 127
1, 421198, Note_off_c, 0, 66, 66
1, 421216, Note_off_c, 0, 87, 65
1, 421222, Note_off_c, 0, 63, 64
1, 421242, Note_off_c, 0, 58, 63
1, 421258, Note_off_c, 0, 54, 58
1, 421260, Note_on_c, 0, 77, 88
1, 421275, Note_on_c, 0, 86, 85
1, 421281, Note_off_c, 0, 78, 65
1, 421293, Note_on_c, 0, 85, 51
1, 421353, Note_off_c, 0, 77, 59
1, 421362, Note_off_c, 0, 86, 62
1, 421400, Note_on_c, 0, 48, 101
1, 421409, Note_on_c, 0, 36, 85
1, 421412, Note_on_c, 0, 78, 93
1, 421423, Note_off_c, 0, 85, 30
1, 421423, Note_on_c, 0, 87, 73
1, 421438, Note_off_c, 0, 36, 67
1, 421442, Note_off_c, 0, 48, 64
1, 421451, Note_off_c, 0, 87, 62
1, 421503, Note_off_c, 0, 78, 62
1, 421538, Note_on_c, 0, 48, 97
1, 421545, Note_on_c, 0, 36, 76
1, 421547, Note_on_c, 0, 76, 82
1, 421547, Note_on_c, 0, 84, 94
1, 421572, Note_off_c, 0, 36, 67
1, 421572, Note_off_c, 0, 48, 68
1, 421612, Note_off_c, 0, 76, 54
1, 421696, Note_off_c, 0, 84, 62
1, 421728, Control_c, 0, 64, 83
1, 421738, Note_on_c, 0, 65, 110
1, 421742, Note_on_c, 0, 60, 84
1, 421742, Note_on_c, 0, 81, 96
1, 421743, Note_on_c, 0, 89, 98
1, 421743, Control_c, 0, 64, 54
1, 421746, Note_on_c, 0, 53, 83
1, 421753, Note_on_c, 0, 57, 75
1, 421758, Control_c, 0, 64, 0
1, 421818, Control_c, 0, 64, 45
1, 421833, Control_c, 0, 64, 64
1, 421843, Note_off_c, 0, 65, 64
1, 421847, Control_c, 0, 64, 82
1, 421862, Control_c, 0, 64, 127
1, 421872, Note_off_c, 0, 60, 63
1, 421889, Note_off_c, 0, 57, 62
1, 421905, Note_off_c, 0, 53, 63
1, 421916, Note_on_c, 0, 80, 86
1, 421916, Note_on_c, 0, 88, 76
1, 421929, Note_on_c, 0, 87, 65
1, 421938, Note_off_c, 0, 81, 63
1, 421947, Note_off_c, 0, 89, 62
1, 421990, Note_off_c, 0, 80, 63
1, 421990, Note_off_c, 0, 88, 63
1, 422048, Note_off_c, 0, 87, 35
1, 422062, Note_on_c, 0, 81, 78
1, 422063, Note_on_c, 0, 89, 88
1, 422065, Note_on_c, 0, 41, 84
1, 422074, Note_on_c, 0, 29, 74
1, 422168, Note_off_c, 0, 29, 61
1, 422174, Note_off_c, 0, 41, 64
1, 422176, Note_on_c, 0, 79, 75
1, 422176, Note_on_c, 0, 84, 77
1, 422176, Note_on_c, 0, 36, 60
1, 422177, Note_off_c, 0, 89, 64
1, 422181, Note_off_c, 0, 81, 65
1, 422198, Note_off_c, 0, 84, 70
1, 422207, Note_off_c, 0, 36, 56
1, 422211, Note_off_c, 0, 79, 60
1, 422284, Control_c, 0, 64, 81
1, 422299, Control_c, 0, 64, 61
1, 422309, Note_on_c, 0, 41, 69
1, 422314, Control_c, 0, 64, 39
1, 422321, Note_on_c, 0, 77, 84
1, 422323, Note_on_c, 0, 53, 49
1, 422323, Note_on_c, 0, 69, 81
1, 422328, Control_c, 0, 64, 48
1, 422335, Note_off_c, 0, 41, 67
1, 422343, Control_c, 0, 64, 59
1, 422348, Note_off_c, 0, 53, 58
1, 422358, Control_c, 0, 64, 64
1, 422372, Control_c, 0, 64, 70
1, 422387, Control_c, 0, 64, 84
1, 422402, Control_c, 0, 64, 127
1, 422437, Note_on_c, 0, 42, 73
1, 422444, Note_on_c, 0, 54, 69
1, 422449, Note_on_c, 0, 76, 84
1, 422451, Note_on_c, 0, 70, 83
1, 422474, Note_off_c, 0, 69, 59
1, 422488, Note_off_c, 0, 77, 56
1, 422509, Note_off_c, 0, 54, 64
1, 422541, Note_off_c, 0, 42, 55
1, 422581, Control_c, 0, 64, 82
1, 422596, Note_on_c, 0, 41, 58
1, 422596, Control_c, 0, 64, 62
1, 422601, Note_on_c, 0, 53, 66
1, 422604, Note_on_c, 0, 77, 92
1, 422610, Note_on_c, 0, 69, 84
1, 422611, Control_c, 0, 64, 33
1, 422622, Note_off_c, 0, 70, 52
1, 422626, Control_c, 0, 64, 35
1, 422635, Note_off_c, 0, 41, 60
1, 422641, Control_c, 0, 64, 53
1, 422648, Note_off_c, 0, 76, 58
1, 422655, Control_c, 0, 64, 61
1, 422670, Control_c, 0, 64, 66
1, 422685, Control_c, 0, 64, 72
1, 422700, Control_c, 0, 64, 88
1, 422715, Control_c, 0, 64, 127
1, 422740, Note_off_c, 0, 53, 62
1, 422766, Note_on_c, 0, 72, 79
1, 422766, Note_on_c, 0, 60, 67
1, 422797, Note_off_c, 0, 69, 61
1, 422804, Note_off_c, 0, 77, 59
1, 422833, Note_off_c, 0, 60, 64
1, 422852, Note_off_c, 0, 72, 61
1, 422959, Control_c, 0, 64, 92
1, 422969, Note_on_c, 0, 77, 81
1, 422974, Control_c, 0, 64, 72
1, 422983, Note_on_c, 0, 62, 55
1, 422983, Note_on_c, 0, 65, 61
1, 422984, Note_on_c, 0, 53, 49
1, 422989, Control_c, 0, 64, 61
1, 423002, Note_on_c, 0, 74, 43
1, 423003, Control_c, 0, 64, 50
1, 423018, Control_c, 0, 64, 54
1, 423033, Control_c, 0, 64, 58
1, 423048, Control_c, 0, 64, 62
1, 423063, Note_off_c, 0, 74, 54
1, 423063, Control_c, 0, 64, 64
1, 423077, Control_c, 0, 64, 67
1, 423090, Note_on_c, 0, 52, 51
1, 423090, Note_off_c, 0, 62, 60
1, 423092, Control_c, 0, 64, 72
1, 423106, Note_on_c, 0, 61, 59
1, 423106, Note_on_c, 0, 73, 68
1, 423107, Control_c, 0, 64, 80
1, 423122, Control_c, 0, 64, 92
1, 423125, Note_off_c, 0, 53, 35
1, 423137, Control_c, 0, 64, 127
1, 423199, Note_off_c, 0, 61, 58
1, 423204, Note_off_c, 0, 52, 49
1, 423210, Note_on_c, 0, 62, 55
1, 423210, Note_off_c, 0, 77, 59
1, 423218, Note_on_c, 0, 74, 68
1, 423228, Note_on_c, 0, 53, 61
1, 423236, Note_off_c, 0, 62, 61
1, 423242, Note_off_c, 0, 65, 57
1, 423258, Note_off_c, 0, 53, 65
1, 423267, Note_off_c, 0, 73, 63
1, 423307, Note_off_c, 0, 74, 62
1, 423329, Note_on_c, 0, 70, 69
1, 423355, Note_off_c, 0, 70, 69
1, 423400, Poly_aftertouch_c, 0, 41, 127
1, 423403, Poly_aftertouch_c, 0, 40, 127
1, 423424, Poly_aftertouch_c, 0, 41, 0
1, 423445, Poly_aftertouch_c, 0, 40, 0
1, 423448, Control_c, 0, 64, 99
1, 423463, Control_c, 0, 64, 75
1, 423467, Note_on_c, 0, 82, 85
1, 423478, Control_c, 0, 64, 59
1, 423481, Note_on_c, 0, 70, 65
1, 423481, Note_on_c, 0, 77, 63
1, 423485, Note_on_c, 0, 58, 60
1, 423487, Note_on_c, 0, 50, 60
1, 423493, Control_c, 0, 64, 46
1, 423508, Control_c, 0, 64, 50
1, 423530, Control_c, 0, 64, 57
1, 423545, Control_c, 0, 64, 62
1, 423560, Control_c, 0, 64, 67
1, 423568, Note_off_c, 0, 58, 60
1, 423574, Control_c, 0, 64, 73
1, 423582, Note_off_c, 0, 50, 62
1, 423585, Note_on_c, 0, 49, 55
1, 423589, Control_c, 0, 64, 89
1, 423597, Note_on_c, 0, 76, 62
1, 423604, Control_c, 0, 64, 127
1, 423615, Note_off_c, 0, 77, 53
1, 423621, Note_off_c, 0, 82, 62
1, 423672, Note_off_c, 0, 49, 62
1, 423684, Note_off_c, 0, 70, 57
1, 423711, Note_off_c, 0, 76, 55
1, 423717, Note_on_c, 0, 77, 58
1, 423727, Note_on_c, 0, 50, 38
1, 423755, Note_off_c, 0, 50, 56
1, 423784, Poly_aftertouch_c, 0, 58, 0
1, 423812, Note_off_c, 0, 77, 56
1, 423815, Note_on_c, 0, 41, 70
1, 423825, Note_on_c, 0, 74, 57
1, 423842, Note_off_c, 0, 41, 63
1, 423930, Control_c, 0, 64, 95
1, 423933, Note_off_c, 0, 74, 57
1, 423944, Note_on_c, 0, 81, 82
1, 423945, Control_c, 0, 64, 70
1, 423959, Note_on_c, 0, 63, 60
1, 423960, Control_c, 0, 64, 59
1, 423964, Note_on_c, 0, 69, 44
1, 423970, Note_on_c, 0, 54, 50
1, 423974, Control_c, 0, 64, 56
1, 423989, Control_c, 0, 64, 61
1, 424000, Note_off_c, 0, 69, 57
1, 424004, Control_c, 0, 64, 65
1, 424020, Control_c, 0, 64, 71
1, 424029, Note_on_c, 0, 53, 62
1, 424035, Control_c, 0, 64, 83
1, 424041, Note_off_c, 0, 54, 61
1, 424045, Poly_aftertouch_c, 0, 75, 127
1, 424049, Control_c, 0, 64, 127
1, 424051, Note_off_c, 0, 63, 61
1, 424056, Note_on_c, 0, 74, 79
1, 424057, Note_on_c, 0, 62, 70
1, 424083, Poly_aftertouch_c, 0, 75, 0
1, 424088, Note_off_c, 0, 81, 66
1, 424103, Note_off_c, 0, 53, 60
1, 424162, Note_on_c, 0, 63, 74
1, 424167, Note_on_c, 0, 54, 74
1, 424170, Note_off_c, 0, 62, 61
1, 424171, Note_on_c, 0, 82, 95
1, 424174, Note_on_c, 0, 70, 89
1, 424179, Note_on_c, 0, 75, 80
1, 424182, Note_off_c, 0, 74, 64
1, 424185, Note_off_c, 0, 63, 70
1, 424194, Note_off_c, 0, 54, 68
1, 424200, Note_off_c, 0, 70, 62
1, 424229, Note_off_c, 0, 75, 60
1, 424247, Note_off_c, 0, 82, 68
1, 424287, Note_on_c, 0, 53, 86
1, 424292, Note_on_c, 0, 41, 72
1, 424303, Note_on_c, 0, 72, 77
1, 424312, Note_on_c, 0, 73, 25
1, 424316, Note_off_c, 0, 41, 62
1, 424318, Note_off_c, 0, 53, 66
1, 424340, Note_off_c, 0, 72, 59
1, 424347, Note_off_c, 0, 73, 56
1, 424412, Control_c, 0, 64, 113
1, 424427, Control_c, 0, 64, 73
1, 424429, Note_on_c, 0, 56, 79
1, 424434, Note_on_c, 0, 84, 91
1, 424436, Note_on_c, 0, 72, 94
1, 424442, Control_c, 0, 64, 56
1, 424445, Note_on_c, 0, 66, 70
1, 424455, Note_on_c, 0, 78, 72
1, 424456, Control_c, 0, 64, 38
1, 424459, Note_on_c, 0, 83, 58
1, 424460, Note_off_c, 0, 83, 127
1, 424471, Control_c, 0, 64, 46
1, 424486, Control_c, 0, 64, 56
1, 424501, Control_c, 0, 64, 62
1, 424516, Control_c, 0, 64, 67
1, 424530, Control_c, 0, 64, 75
1, 424542, Note_off_c, 0, 78, 59
1, 424544, Note_off_c, 0, 66, 62
1, 424545, Control_c, 0, 64, 93
1, 424560, Note_on_c, 0, 65, 54
1, 424560, Control_c, 0, 64, 127
1, 424566, Note_on_c, 0, 77, 77
1, 424609, Note_off_c, 0, 65, 50
1, 424632, Note_off_c, 0, 56, 62
1, 424653, Note_on_c, 0, 66, 71
1, 424672, Note_on_c, 0, 78, 77
1, 424676, Note_off_c, 0, 66, 63
1, 424685, Note_on_c, 0, 57, 35
1, 424687, Note_off_c, 0, 77, 62
1, 424698, Note_off_c, 0, 84, 62
1, 424714, Poly_aftertouch_c, 0, 58, 0
1, 424719, Note_off_c, 0, 57, 53
1, 424728, Note_off_c, 0, 72, 61
1, 424769, Note_on_c, 0, 53, 84
1, 424775, Note_on_c, 0, 43, 72
1, 424777, Note_on_c, 0, 75, 83
1, 424787, Note_off_c, 0, 78, 60
1, 424798, Note_off_c, 0, 53, 67
1, 424806, Note_off_c, 0, 43, 64
1, 424849, Note_off_c, 0, 75, 62
1, 424868, Poly_aftertouch_c, 0, 41, 0
1, 424902, Control_c, 0, 64, 111
1, 424917, Control_c, 0, 64, 78
1, 424930, Note_on_c, 0, 86, 94
1, 424932, Control_c, 0, 64, 62
1, 424933, Note_on_c, 0, 74, 88
1, 424937, Note_on_c, 0, 62, 74
1, 424938, Note_on_c, 0, 53, 72
1, 424941, Note_on_c, 0, 82, 78
1, 424946, Control_c, 0, 64, 46
1, 424961, Control_c, 0, 64, 49
1, 424976, Control_c, 0, 64, 58
1, 424991, Control_c, 0, 64, 63
1, 425006, Control_c, 0, 64, 68
1, 425028, Control_c, 0, 64, 76
1, 425034, Note_off_c, 0, 62, 46
1, 425037, Note_on_c, 0, 61, 71
1, 425037, Note_off_c, 0, 53, 49
1, 425043, Control_c, 0, 64, 92
1, 425048, Note_on_c, 0, 81, 74
1, 425058, Control_c, 0, 64, 127
1, 425076, Note_off_c, 0, 82, 63
1, 425133, Note_off_c, 0, 61, 61
1, 425139, Note_on_c, 0, 52, 66
1, 425161, Note_on_c, 0, 82, 67
1, 425165, Note_off_c, 0, 52, 67
1, 425181, Note_off_c, 0, 81, 62
1, 425230, Note_off_c, 0, 74, 59
1, 425249, Note_off_c, 0, 86, 43
1, 425271, Note_on_c, 0, 29, 65
1, 425280, Note_on_c, 0, 41, 70
1, 425282, Note_off_c, 0, 82, 64
1, 425284, Note_on_c, 0, 77, 68
1, 425307, Note_off_c, 0, 29, 50
1, 425308, Note_off_c, 0, 41, 66
1, 425312, Note_off_c, 0, 77, 67
1, 425398, Control_c, 0, 64, 88
1, 425413, Control_c, 0, 64, 68
1, 425424, Note_on_c, 0, 82, 79
1, 425428, Control_c, 0, 64, 52
1, 425440, Note_on_c, 0, 56, 68
1, 425443, Note_on_c, 0, 70, 62
1, 425443, Control_c, 0, 64, 50
1, 425443, Note_on_c, 0, 77, 50
1, 425457, Control_c, 0, 64, 58
1, 425472, Control_c, 0, 64, 63
1, 425487, Control_c, 0, 64, 67
1, 425502, Control_c, 0, 64, 73
1, 425517, Control_c, 0, 64, 85
1, 425532, Control_c, 0, 64, 127
1, 425537, Note_off_c, 0, 56, 63
1, 425549, Note_on_c, 0, 64, 54
1, 425550, Note_on_c, 0, 76, 66
1, 425554, Note_on_c, 0, 63, 5
1, 425586, Note_off_c, 0, 77, 34
1, 425589, Note_off_c, 0, 82, 62
1, 425607, Note_off_c, 0, 64, 60
1, 425634, Note_on_c, 0, 56, 66
1, 425642, Note_off_c, 0, 70, 61
1, 425654, Note_off_c, 0, 63, 38
1, 425658, Note_on_c, 0, 77, 63
1, 425665, Note_off_c, 0, 56, 65
1, 425689, Note_off_c, 0, 76, 61
1, 425762, Note_on_c, 0, 34, 73
1, 425763, Note_on_c, 0, 74, 78
1, 425769, Note_off_c, 0, 77, 61
1, 425782, Note_on_c, 0, 44, 58
1, 425800, Note_off_c, 0, 34, 64
1, 425813, Note_off_c, 0, 44, 55
1, 425823, Note_off_c, 0, 74, 62
1, 425881, Control_c, 0, 64, 121
1, 425895, Control_c, 0, 64, 78
1, 425900, Note_on_c, 0, 77, 99
1, 425907, Note_on_c, 0, 65, 85
1, 425910, Control_c, 0, 64, 60
1, 425917, Note_on_c, 0, 74, 77
1, 425925, Note_on_c, 0, 52, 48
1, 425925, Control_c, 0, 64, 49
1, 425929, Note_on_c, 0, 62, 66
1, 425940, Control_c, 0, 64, 54
1, 425941, Note_on_c, 0, 53, 56
1, 425943, Note_on_c, 0, 60, 47
1, 425955, Control_c, 0, 64, 61
1, 425969, Control_c, 0, 64, 65
1, 425970, Note_off_c, 0, 60, 54
1, 425984, Control_c, 0, 64, 73
1, 425999, Control_c, 0, 64, 99
1, 426008, Note_on_c, 0, 61, 73
1, 426012, Note_off_c, 0, 62, 63
1, 426014, Control_c, 0, 64, 127
1, 426017, Note_on_c, 0, 73, 84
1, 426042, Note_off_c, 0, 53, 55
1, 426043, Note_off_c, 0, 74, 59
1, 426110, Note_off_c, 0, 61, 61
1, 426124, Note_on_c, 0, 62, 74
1, 426142, Note_on_c, 0, 74, 77
1, 426146, Note_on_c, 0, 53, 56
1, 426149, Note_off_c, 0, 62, 70
1, 426161, Note_off_c, 0, 52, 59
1, 426168, Note_off_c, 0, 53, 60
1, 426183, Note_off_c, 0, 73, 61
1, 426253, Note_on_c, 0, 47, 87
1, 426256, Note_on_c, 0, 69, 86
1, 426260, Note_on_c, 0, 35, 76
1, 426269, Note_off_c, 0, 65, 59
1, 426271, Note_off_c, 0, 74, 61
1, 426280, Note_off_c, 0, 77, 58
1, 426284, Note_off_c, 0, 35, 60
1, 426286, Note_off_c, 0, 47, 64
1, 426311, Note_off_c, 0, 69, 64
1, 426390, Note_on_c, 0, 76, 105
1, 426391, Note_on_c, 0, 64, 97
1, 426399, Control_c, 0, 64, 79
1, 426405, Note_on_c, 0, 59, 90
1, 426410, Note_on_c, 0, 71, 73
1, 426411, Note_on_c, 0, 50, 77
1, 426414, Control_c, 0, 64, 61
1, 426429, Control_c, 0, 64, 29
1, 426444, Control_c, 0, 64, 17
1, 426459, Control_c, 0, 64, 29
1, 426474, Control_c, 0, 64, 45
1, 426489, Control_c, 0, 64, 57
1, 426504, Control_c, 0, 64, 63
1, 426509, Note_on_c, 0, 58, 72
1, 426517, Note_on_c, 0, 70, 84
1, 426519, Control_c, 0, 64, 68
1, 426527, Note_off_c, 0, 59, 61
1, 426540, Control_c, 0, 64, 77
1, 426547, Note_off_c, 0, 71, 59
1, 426549, Note_on_c, 0, 49, 30
1, 426555, Control_c, 0, 64, 102
1, 426570, Control_c, 0, 64, 127
1, 426632, Note_on_c, 0, 59, 82
1, 426641, Note_on_c, 0, 71, 89
1, 426648, Note_off_c, 0, 58, 63
1, 426665, Note_off_c, 0, 70, 57
1, 426665, Note_off_c, 0, 59, 66
1, 426674, Note_off_c, 0, 50, 63
1, 426682, Note_off_c, 0, 49, 45
1, 426690, Note_off_c, 0, 76, 61
1, 426715, Note_off_c, 0, 64, 59
1, 426760, Note_on_c, 0, 68, 93
1, 426762, Note_on_c, 0, 50, 93
1, 426766, Note_on_c, 0, 38, 74
1, 426781, Note_off_c, 0, 71, 63
1, 426790, Note_off_c, 0, 38, 60
1, 426791, Note_off_c, 0, 50, 67
1, 426798, Note_off_c, 0, 68, 67
1, 426954, Note_on_c, 0, 76, 101
1, 426954, Note_on_c, 0, 88, 100
1, 426955, Note_on_c, 0, 67, 79
1, 426958, Note_on_c, 0, 59, 74
1, 426968, Note_on_c, 0, 83, 85
1, 426970, Control_c, 0, 64, 98
1, 426985, Control_c, 0, 64, 71
1, 426999, Control_c, 0, 64, 54
1, 427014, Control_c, 0, 64, 11
1, 427029, Control_c, 0, 64, 0
1, 427043, Control_c, 0, 64, 21
1, 427058, Control_c, 0, 64, 44
1, 427073, Control_c, 0, 64, 58
1, 427085, Note_on_c, 0, 66, 68
1, 427086, Note_on_c, 0, 82, 77
1, 427088, Control_c, 0, 64, 66
1, 427091, Note_off_c, 0, 83, 62
1, 427091, Note_off_c, 0, 67, 62
1, 427103, Control_c, 0, 64, 74
1, 427113, Note_on_c, 0, 58, 54
1, 427118, Control_c, 0, 64, 103
1, 427123, Note_off_c, 0, 59, 61
1, 427133, Control_c, 0, 64, 127
1, 427205, Note_on_c, 0, 67, 57
1, 427206, Note_on_c, 0, 83, 76
1, 427206, Note_off_c, 0, 66, 62
1, 427210, Note_on_c, 0, 59, 58
1, 427213, Note_off_c, 0, 82, 61
1, 427226, Note_off_c, 0, 67, 62
1, 427232, Note_off_c, 0, 58, 60
1, 427235, Note_off_c, 0, 59, 66
1, 427298, Note_off_c, 0, 88, 46
1, 427328, Note_on_c, 0, 49, 89
1, 427334, Note_on_c, 0, 37, 78
1, 427340, Note_on_c, 0, 79, 75
1, 427343, Note_off_c, 0, 76, 61
1, 427347, Note_off_c, 0, 83, 63
1, 427348, Note_off_c, 0, 49, 70
1, 427366, Note_off_c, 0, 37, 63
1, 427379, Note_off_c, 0, 79, 62
1, 427452, Control_c, 0, 64, 87
1, 427467, Control_c, 0, 64, 67
1, 427473, Note_on_c, 0, 83, 94
1, 427479, Note_on_c, 0, 71, 91
1, 427481, Control_c, 0, 64, 51
1, 427484, Note_on_c, 0, 79, 78
1, 427485, Note_on_c, 0, 67, 82
1, 427496, Control_c, 0, 64, 47
1, 427505, Note_on_c, 0, 59, 50
1, 427511, Control_c, 0, 64, 56
1, 427519, Note_on_c, 0, 60, 45
1, 427526, Control_c, 0, 64, 61
1, 427541, Control_c, 0, 64, 65
1, 427548, Note_off_c, 0, 60, 52
1, 427556, Control_c, 0, 64, 71
1, 427571, Control_c, 0, 64, 82
1, 427579, Note_on_c, 0, 66, 72
1, 427580, Note_off_c, 0, 59, 64
1, 427580, Note_off_c, 0, 67, 62
1, 427586, Control_c, 0, 64, 127
1, 427588, Note_off_c, 0, 79, 63
1, 427589, Note_on_c, 0, 78, 82
1, 427604, Note_on_c, 0, 58, 51
1, 427690, Note_on_c, 0, 67, 62
1, 427691, Note_off_c, 0, 66, 62
1, 427699, Note_on_c, 0, 59, 60
1, 427703, Note_on_c, 0, 79, 71
1, 427708, Note_off_c, 0, 67, 65
1, 427717, Note_off_c, 0, 58, 62
1, 427723, Note_off_c, 0, 59, 64
1, 427735, Note_off_c, 0, 78, 62
1, 427776, Note_off_c, 0, 71, 53
1, 427810, Note_on_c, 0, 76, 80
1, 427812, Note_on_c, 0, 41, 81
1, 427813, Note_off_c, 0, 83, 58
1, 427821, Note_on_c, 0, 53, 68
1, 427833, Note_off_c, 0, 79, 61
1, 427840, Note_off_c, 0, 41, 66
1, 427850, Note_on_c, 0, 52, 21
1, 427851, Note_off_c, 0, 53, 64
1, 427864, Note_off_c, 0, 76, 64
1, 427890, Note_off_c, 0, 52, 49
1, 427896, Control_c, 0, 64, 87
1, 427911, Control_c, 0, 64, 67
1, 427926, Control_c, 0, 64, 50
1, 427941, Control_c, 0, 64, 42
1, 427944, Note_on_c, 0, 79, 91
1, 427950, Note_on_c, 0, 67, 80
1, 427952, Note_on_c, 0, 64, 77
1, 427955, Control_c, 0, 64, 52
1, 427958, Note_on_c, 0, 76, 75
1, 427967, Note_on_c, 0, 55, 61
1, 427970, Control_c, 0, 64, 59
1, 427985, Control_c, 0, 64, 63
1, 428000, Control_c, 0, 64, 67
1, 428024, Control_c, 0, 64, 74
1, 428039, Control_c, 0, 64, 86
1, 428053, Control_c, 0, 64, 127
1, 428056, Note_off_c, 0, 64, 61
1, 428062, Note_on_c, 0, 63, 63
1, 428071, Note_off_c, 0, 55, 27
1, 428071, Note_off_c, 0, 76, 62
1, 428073, Note_on_c, 0, 75, 76
1, 428104, Note_on_c, 0, 54, 49
1, 428164, Note_off_c, 0, 63, 61
1, 428170, Note_on_c, 0, 64, 59
1, 428185, Note_off_c, 0, 75, 55
1, 428190, Note_off_c, 0, 54, 64
1, 428191, Note_on_c, 0, 76, 64
1, 428200, Note_off_c, 0, 64, 67
1, 428286, Note_off_c, 0, 79, 62
1, 428295, Note_on_c, 0, 47, 50
1, 428300, Note_on_c, 0, 59, 49
1, 428304, Note_on_c, 0, 73, 48
1, 428309, Note_off_c, 0, 67, 52
1, 428323, Note_off_c, 0, 47, 55
1, 428326, Note_off_c, 0, 59, 57
1, 428326, Note_off_c, 0, 76, 62
1, 428328, Note_off_c, 0, 73, 61
1, 428363, Control_c, 0, 64, 117
1, 428377, Control_c, 0, 64, 77
1, 428392, Control_c, 0, 64, 59
1, 428407, Control_c, 0, 64, 35
1, 428412, Note_on_c, 0, 78, 76
1, 428415, Note_on_c, 0, 64, 66
1, 428418, Note_on_c, 0, 54, 60
1, 428421, Control_c, 0, 64, 47
1, 428435, Note_on_c, 0, 66, 47
1, 428436, Control_c, 0, 64, 58
1, 428446, Note_on_c, 0, 76, 44
1, 428449, Note_on_c, 0, 73, 9
1, 428451, Control_c, 0, 64, 64
1, 428462, Note_off_c, 0, 54, 62
1, 428466, Note_off_c, 0, 66, 56
1, 428466, Control_c, 0, 64, 71
1, 428481, Control_c, 0, 64, 84
1, 428487, Note_off_c, 0, 76, 54
1, 428495, Control_c, 0, 64, 127
1, 428496, Note_off_c, 0, 73, 42
1, 428501, Note_off_c, 0, 64, 57
1, 428510, Note_off_c, 0, 78, 62
1, 428519, Note_on_c, 0, 60, 52
1, 428525, Note_on_c, 0, 75, 65
1, 428530, Note_on_c, 0, 63, 53
1, 428552, Note_on_c, 0, 72, 30
1, 428583, Note_off_c, 0, 72, 52
1, 428607, Note_off_c, 0, 75, 55
1, 428614, Note_off_c, 0, 60, 39
1, 428626, Note_on_c, 0, 61, 66
1, 428634, Note_on_c, 0, 64, 42
1, 428635, Note_on_c, 0, 76, 60
1, 428636, Note_off_c, 0, 63, 57
1, 428656, Note_off_c, 0, 61, 65
1, 428666, Note_off_c, 0, 64, 53
1, 428682, Note_off_c, 0, 76, 60
1, 428748, Control_c, 0, 64, 99
1, 428748, Note_on_c, 0, 46, 63
1, 428758, Note_on_c, 0, 58, 51
1, 428763, Note_on_c, 0, 66, 52
1, 428763, Control_c, 0, 64, 79
1, 428783, Note_off_c, 0, 46, 63
1, 428784, Control_c, 0, 64, 65
1, 428790, Note_off_c, 0, 58, 55
1, 428794, Note_off_c, 0, 66, 58
1, 428799, Control_c, 0, 64, 47
1, 428815, Control_c, 0, 64, 28
1, 428830, Control_c, 0, 64, 25
1, 428845, Control_c, 0, 64, 23
1, 428860, Control_c, 0, 64, 21
1, 428874, Control_c, 0, 64, 15
1, 428886, Note_on_c, 0, 66, 54
1, 428889, Control_c, 0, 64, 0
1, 428897, Note_on_c, 0, 50, 43
1, 428899, Note_on_c, 0, 71, 52
1, 428921, Note_off_c, 0, 66, 64
1, 428930, Note_off_c, 0, 71, 62
1, 428931, Note_off_c, 0, 50, 33
1, 428998, Note_on_c, 0, 64, 47
1, 429001, Note_on_c, 0, 52, 48
1, 429001, Note_on_c, 0, 70, 52
1, 429009, Note_on_c, 0, 67, 45
1, 429022, Note_off_c, 0, 64, 58
1, 429029, Note_off_c, 0, 52, 56
1, 429031, Note_off_c, 0, 70, 64
1, 429033, Note_off_c, 0, 67, 60
1, 429099, Note_on_c, 0, 71, 60
1, 429102, Note_on_c, 0, 50, 54
1, 429103, Note_on_c, 0, 62, 44
1, 429112, Note_on_c, 0, 66, 37
1, 429127, Note_off_c, 0, 50, 58
1, 429131, Note_off_c, 0, 62, 51
1, 429133, Note_off_c, 0, 71, 64
1, 429141, Note_off_c, 0, 66, 52
1, 429202, Note_on_c, 0, 49, 59
1, 429202, Note_on_c, 0, 61, 54
1, 429204, Note_on_c, 0, 73, 74
1, 429222, Note_on_c, 0, 64, 53
1, 429231, Note_off_c, 0, 61, 60
1, 429236, Note_off_c, 0, 49, 63
1, 429239, Note_off_c, 0, 73, 65
1, 429247, Note_off_c, 0, 64, 63
1, 429306, Note_on_c, 0, 74, 85
1, 429316, Note_on_c, 0, 62, 76
1, 429335, Note_on_c, 0, 49, 16
1, 429336, Note_off_c, 0, 49, 127
1, 429342, Note_off_c, 0, 62, 68
1, 429352, Note_off_c, 0, 74, 61
1, 429410, Note_on_c, 0, 73, 93
1, 429416, Note_on_c, 0, 64, 81
1, 429420, Note_on_c, 0, 47, 62
1, 429432, Note_on_c, 0, 59, 42
1, 429440, Note_off_c, 0, 64, 67
1, 429449, Note_off_c, 0, 47, 64
1, 429459, Note_off_c, 0, 59, 49
1, 429473, Note_off_c, 0, 73, 60
1, 429525, Note_on_c, 0, 74, 87
1, 429526, Note_on_c, 0, 65, 81
1, 429547, Note_on_c, 0, 46, 50
1, 429555, Note_off_c, 0, 65, 62
1, 429569, Note_off_c, 0, 74, 61
1, 429577, Note_off_c, 0, 46, 35
1, 429613, Note_on_c, 0, 73, 79
1, 429634, Note_on_c, 0, 56, 76
1, 429637, Note_on_c, 0, 44, 73
1, 429663, Note_off_c, 0, 56, 67
1, 429668, Note_off_c, 0, 44, 64
1, 429683, Note_off_c, 0, 73, 65
1, 429713, Control_c, 0, 64, 43
1, 429728, Control_c, 0, 64, 63
1, 429729, Note_on_c, 0, 56, 71
1, 429729, Note_on_c, 0, 76, 90
1, 429732, Note_on_c, 0, 44, 80
1, 429741, Note_on_c, 0, 68, 65
1, 429742, Control_c, 0, 64, 72
1, 429757, Control_c, 0, 64, 93
1, 429759, Note_off_c, 0, 56, 67
1, 429771, Note_off_c, 0, 68, 66
1, 429772, Control_c, 0, 64, 127
1, 429775, Note_off_c, 0, 44, 62
1, 429810, Note_off_c, 0, 76, 61
1, 429843, Note_on_c, 0, 75, 85
1, 429848, Note_on_c, 0, 66, 78
1, 429872, Note_off_c, 0, 66, 67
1, 429892, Note_off_c, 0, 75, 62
1, 429950, Note_on_c, 0, 75, 87
1, 429952, Note_on_c, 0, 44, 66
1, 429953, Note_on_c, 0, 32, 60
1, 429956, Note_on_c, 0, 66, 82
1, 429991, Note_off_c, 0, 66, 57
1, 430027, Note_off_c, 0, 75, 56
1, 430027, Poly_aftertouch_c, 0, 34, 127
1, 430060, Note_off_c, 0, 32, 58
1, 430060, Note_on_c, 0, 73, 86
1, 430066, Note_on_c, 0, 37, 65
1, 430066, Note_on_c, 0, 64, 75
1, 430073, Note_off_c, 0, 44, 61
1, 430081, Poly_aftertouch_c, 0, 34, 0
1, 430095, Note_off_c, 0, 64, 65
1, 430105, Note_off_c, 0, 37, 63
1, 430111, Note_off_c, 0, 73, 63
1, 430113, Control_c, 0, 64, 101
1, 430128, Control_c, 0, 64, 68
1, 430142, Control_c, 0, 64, 12
1, 430157, Control_c, 0, 64, 0
1, 430177, Note_on_c, 0, 49, 73
1, 430178, Note_on_c, 0, 73, 86
1, 430182, Note_on_c, 0, 37, 68
1, 430187, Control_c, 0, 64, 46
1, 430197, Note_on_c, 0, 64, 57
1, 430202, Control_c, 0, 64, 62
1, 430216, Control_c, 0, 64, 70
1, 430217, Note_off_c, 0, 64, 62
1, 430231, Control_c, 0, 64, 83
1, 430246, Control_c, 0, 64, 127
1, 430254, Note_off_c, 0, 73, 59
1, 430283, Note_off_c, 0, 49, 62
1, 430284, Note_off_c, 0, 37, 59
1, 430293, Note_on_c, 0, 44, 57
1, 430307, Note_on_c, 0, 68, 73
1, 430315, Note_on_c, 0, 63, 59
1, 430322, Note_off_c, 0, 44, 62
1, 430334, Note_off_c, 0, 68, 66
1, 430335, Note_off_c, 0, 63, 62
1, 430357, Control_c, 0, 64, 107
1, 430372, Control_c, 0, 64, 89
1, 430387, Control_c, 0, 64, 74
1, 430398, Note_on_c, 0, 44, 76
1, 430402, Control_c, 0, 64, 65
1, 430418, Control_c, 0, 64, 57
1, 430421, Note_on_c, 0, 68, 62
1, 430433, Control_c, 0, 64, 49
1, 430436, Note_off_c, 0, 44, 59
1, 430447, Note_off_c, 0, 68, 66
1, 430447, Control_c, 0, 64, 45
1, 430462, Control_c, 0, 64, 42
1, 430477, Control_c, 0, 64, 34
1, 430491, Control_c, 0, 64, 23
1, 430506, Control_c, 0, 64, 0
1, 430519, Note_on_c, 0, 49, 50
1, 430521, Note_on_c, 0, 64, 58
1, 430551, Note_off_c, 0, 49, 63
1, 430557, Note_off_c, 0, 64, 64
1, 430617, Note_on_c, 0, 61, 39
1, 430621, Note_on_c, 0, 49, 53
1, 430649, Note_on_c, 0, 64, 34
1, 430650, Note_off_c, 0, 49, 64
1, 430675, Note_off_c, 0, 61, 63
1, 430681, Note_off_c, 0, 64, 49
1, 430721, Note_on_c, 0, 46, 64
1, 430723, Note_on_c, 0, 65, 58
1, 430754, Note_off_c, 0, 46, 65
1, 430755, Note_off_c, 0, 65, 65
1, 430829, Note_on_c, 0, 44, 65
1, 430841, Note_on_c, 0, 74, 69
1, 430876, Note_off_c, 0, 74, 58
1, 430877, Note_off_c, 0, 44, 59
1, 430939, Note_on_c, 0, 41, 61
1, 430946, Note_on_c, 0, 73, 67
1, 430951, Control_c, 0, 64, 19
1, 430955, Note_on_c, 0, 53, 40
1, 430958, Note_on_c, 0, 64, 41
1, 430965, Control_c, 0, 64, 35
1, 430973, Note_off_c, 0, 41, 63
1, 430980, Control_c, 0, 64, 47
1, 430984, Note_off_c, 0, 53, 54
1, 430987, Note_off_c, 0, 64, 53
1, 430995, Control_c, 0, 64, 56
1, 431001, Note_off_c, 0, 73, 56
1, 431017, Control_c, 0, 64, 61
1, 431032, Control_c, 0, 64, 65
1, 431047, Control_c, 0, 64, 70
1, 431056, Note_on_c, 0, 41, 64
1, 431056, Note_on_c, 0, 65, 62
1, 431062, Control_c, 0, 64, 80
1, 431062, Note_on_c, 0, 74, 72
1, 431076, Control_c, 0, 64, 102
1, 431084, Note_off_c, 0, 65, 63
1, 431086, Note_off_c, 0, 41, 65
1, 431091, Control_c, 0, 64, 127
1, 431100, Note_off_c, 0, 74, 61
1, 431182, Note_on_c, 0, 76, 82
1, 431186, Note_on_c, 0, 73, 81
1, 431193, Note_on_c, 0, 35, 62
1, 431193, Note_on_c, 0, 47, 63
1, 431223, Note_off_c, 0, 47, 63
1, 431226, Note_off_c, 0, 35, 62
1, 431237, Note_off_c, 0, 73, 62
1, 431249, Note_off_c, 0, 76, 63
1, 431270, Control_c, 0, 64, 105
1, 431285, Control_c, 0, 64, 78
1, 431300, Control_c, 0, 64, 64
1, 431314, Control_c, 0, 64, 48
1, 431316, Note_on_c, 0, 47, 60
1, 431317, Note_on_c, 0, 35, 56
1, 431321, Note_on_c, 0, 77, 88
1, 431328, Note_on_c, 0, 74, 83
1, 431329, Control_c, 0, 64, 49
1, 431344, Control_c, 0, 64, 55
1, 431358, Note_off_c, 0, 47, 64
1, 431359, Control_c, 0, 64, 60
1, 431369, Note_off_c, 0, 35, 61
1, 431374, Control_c, 0, 64, 65
1, 431388, Control_c, 0, 64, 69
1, 431397, Note_off_c, 0, 77, 61
1, 431400, Note_off_c, 0, 74, 61
1, 431403, Control_c, 0, 64, 78
1, 431418, Control_c, 0, 64, 90
1, 431432, Control_c, 0, 64, 111
1, 431447, Control_c, 0, 64, 127
1, 431471, Note_on_c, 0, 74, 87
1, 431476, Note_on_c, 0, 34, 59
1, 431485, Note_on_c, 0, 68, 67
1, 431489, Note_on_c, 0, 46, 49
1, 431514, Note_off_c, 0, 68, 65
1, 431536, Note_off_c, 0, 46, 57
1, 431538, Note_off_c, 0, 34, 53
1, 431560, Note_off_c, 0, 74, 61
1, 431580, Control_c, 0, 64, 121
1, 431595, Control_c, 0, 64, 115
1, 431610, Control_c, 0, 64, 113
1, 431625, Control_c, 0, 64, 110
1, 431640, Control_c, 0, 64, 102
1, 431655, Control_c, 0, 64, 88
1, 431670, Control_c, 0, 64, 70
1, 431685, Control_c, 0, 64, 58
1, 431699, Control_c, 0, 64, 37
1, 431701, Note_on_c, 0, 45, 33
1, 431704, Note_on_c, 0, 78, 67
1, 431708, Note_on_c, 0, 33, 37
1, 431714, Control_c, 0, 64, 30
1, 431725, Note_on_c, 0, 69, 46
1, 431744, Control_c, 0, 64, 33
1, 431766, Control_c, 0, 64, 43
1, 431780, Note_off_c, 0, 69, 59
1, 431781, Control_c, 0, 64, 55
1, 431795, Control_c, 0, 64, 61
1, 431810, Control_c, 0, 64, 65
1, 431825, Control_c, 0, 64, 70
1, 431840, Control_c, 0, 64, 78
1, 431854, Control_c, 0, 64, 93
1, 431869, Control_c, 0, 64, 127
1, 431870, Note_off_c, 0, 78, 64
1, 431884, Note_on_c, 0, 76, 67
1, 431889, Note_on_c, 0, 38, 45
1, 431889, Note_off_c, 0, 45, 49
1, 431893, Note_off_c, 0, 33, 40
1, 431923, Note_off_c, 0, 38, 57
1, 431934, Note_off_c, 0, 76, 60
1, 431938, Note_on_c, 0, 67, 6
1, 431989, Note_off_c, 0, 67, 33
1, 432026, Note_on_c, 0, 38, 52
1, 432030, Note_on_c, 0, 76, 75
1, 432054, Note_on_c, 0, 50, 37
1, 432111, Note_off_c, 0, 76, 53
1, 432117, Note_off_c, 0, 50, 58
1, 432135, Note_on_c, 0, 45, 51
1, 432135, Note_off_c, 0, 38, 59
1, 432136, Control_c, 0, 64, 92
1, 432145, Note_on_c, 0, 74, 70
1, 432151, Control_c, 0, 64, 70
1, 432164, Note_on_c, 0, 66, 51
1, 432164, Note_off_c, 0, 45, 62
1, 432166, Control_c, 0, 64, 61
1, 432181, Control_c, 0, 64, 60
1, 432185, Note_off_c, 0, 74, 61
1, 432187, Note_off_c, 0, 66, 59
1, 432196, Control_c, 0, 64, 64
1, 432210, Control_c, 0, 64, 68
1, 432225, Control_c, 0, 64, 75
1, 432240, Control_c, 0, 64, 87
1, 432254, Control_c, 0, 64, 106
1, 432269, Note_on_c, 0, 66, 60
1, 432269, Control_c, 0, 64, 127
1, 432275, Note_on_c, 0, 74, 66
1, 432284, Note_on_c, 0, 45, 23
1, 432290, Note_on_c, 0, 47, 37
1, 432303, Note_off_c, 0, 74, 65
1, 432304, Note_off_c, 0, 66, 63
1, 432321, Note_off_c, 0, 45, 49
1, 432323, Note_off_c, 0, 47, 47
1, 432373, Control_c, 0, 64, 116
1, 432388, Note_on_c, 0, 50, 67
1, 432388, Control_c, 0, 64, 83
1, 432396, Note_on_c, 0, 69, 69
1, 432400, Note_on_c, 0, 64, 58
1, 432403, Control_c, 0, 64, 68
1, 432418, Control_c, 0, 64, 62
1, 432421, Note_off_c, 0, 50, 63
1, 432433, Control_c, 0, 64, 65
1, 432438, Note_off_c, 0, 64, 61
1, 432440, Note_off_c, 0, 69, 59
1, 432448, Control_c, 0, 64, 68
1, 432462, Control_c, 0, 64, 74
1, 432477, Control_c, 0, 64, 84
1, 432492, Control_c, 0, 64, 100
1, 432512, Note_on_c, 0, 69, 67
1, 432514, Note_on_c, 0, 50, 56
1, 432514, Control_c, 0, 64, 127
1, 432573, Note_on_c, 0, 64, 6
1, 432611, Note_off_c, 0, 50, 62
1, 432620, Note_on_c, 0, 57, 58
1, 432621, Note_off_c, 0, 64, 53
1, 432625, Note_on_c, 0, 66, 75
1, 432627, Note_off_c, 0, 69, 61
1, 432641, Note_off_c, 0, 57, 61
1, 432650, Note_off_c, 0, 66, 68
1, 432722, Control_c, 0, 64, 97
1, 432736, Control_c, 0, 64, 72
1, 432751, Control_c, 0, 64, 57
1, 432766, Control_c, 0, 64, 40
1, 432781, Control_c, 0, 64, 44
1, 432795, Note_on_c, 0, 44, 51
1, 432796, Control_c, 0, 64, 54
1, 432797, Note_on_c, 0, 32, 47
1, 432798, Note_on_c, 0, 78, 80
1, 432800, Note_on_c, 0, 72, 64
1, 432812, Control_c, 0, 64, 60
1, 432827, Control_c, 0, 64, 64
1, 432841, Control_c, 0, 64, 69
1, 432856, Control_c, 0, 64, 77
1, 432871, Control_c, 0, 64, 93
1, 432875, Note_off_c, 0, 72, 61
1, 432886, Control_c, 0, 64, 127
1, 432912, Note_off_c, 0, 44, 62
1, 432920, Note_on_c, 0, 77, 80
1, 432922, Note_on_c, 0, 39, 59
1, 432926, Note_on_c, 0, 68, 64
1, 432926, Note_off_c, 0, 32, 60
1, 432946, Note_off_c, 0, 78, 58
1, 432954, Note_off_c, 0, 39, 61
1, 432972, Note_off_c, 0, 68, 57
1, 432984, Note_off_c, 0, 77, 62
1, 433043, Note_on_c, 0, 39, 59
1, 433056, Note_on_c, 0, 77, 86
1, 433059, Note_on_c, 0, 51, 60
1, 433063, Note_on_c, 0, 72, 72
1, 433089, Note_off_c, 0, 72, 68
1, 433122, Note_off_c, 0, 77, 63
1, 433145, Note_off_c, 0, 51, 61
1, 433150, Note_off_c, 0, 39, 60
1, 433163, Note_on_c, 0, 44, 58
1, 433163, Note_on_c, 0, 75, 89
1, 433175, Note_on_c, 0, 66, 67
1, 433196, Note_off_c, 0, 44, 64
1, 433205, Note_off_c, 0, 66, 65
1, 433207, Note_off_c, 0, 75, 65
1, 433264, Control_c, 0, 64, 80
1, 433279, Control_c, 0, 64, 66
1, 433293, Control_c, 0, 64, 61
1, 433294, Note_on_c, 0, 44, 71
1, 433296, Note_on_c, 0, 56, 75
1, 433296, Note_on_c, 0, 75, 91
1, 433302, Note_on_c, 0, 66, 75
1, 433308, Control_c, 0, 64, 64
1, 433323, Control_c, 0, 64, 68
1, 433325, Note_off_c, 0, 56, 66
1, 433328, Note_off_c, 0, 44, 66
1, 433332, Note_off_c, 0, 66, 66
1, 433338, Control_c, 0, 64, 76
1, 433348, Note_off_c, 0, 75, 60
1, 433353, Control_c, 0, 64, 95
1, 433367, Control_c, 0, 64, 127
1, 433402, Poly_aftertouch_c, 0, 46, 0
1, 433417, Note_on_c, 0, 59, 77
1, 433419, Note_on_c, 0, 47, 74
1, 433425, Note_on_c, 0, 57, 71
1, 433431, Note_on_c, 0, 69, 88
1, 433440, Note_on_c, 0, 63, 78
1, 433444, Note_off_c, 0, 47, 65
1, 433449, Note_off_c, 0, 59, 64
1, 433453, Note_off_c, 0, 57, 66
1, 433464, Note_off_c, 0, 63, 68
1, 433471, Control_c, 0, 64, 103
1, 433482, Note_off_c, 0, 69, 62
1, 433485, Control_c, 0, 64, 77
1, 433500, Control_c, 0, 64, 67
1, 433515, Control_c, 0, 64, 67
1, 433530, Control_c, 0, 64, 73
1, 433531, Note_on_c, 0, 47, 69
1, 433535, Note_on_c, 0, 59, 90
1, 433542, Note_on_c, 0, 69, 87
1, 433545, Control_c, 0, 64, 94
1, 433549, Note_on_c, 0, 63, 75
1, 433560, Control_c, 0, 64, 127
1, 433560, Note_off_c, 0, 47, 65
1, 433561, Note_off_c, 0, 59, 65
1, 433580, Note_off_c, 0, 63, 64
1, 433627, Note_off_c, 0, 69, 65
1, 433635, Note_on_c, 0, 68, 87
1, 433641, Note_on_c, 0, 47, 79
1, 433644, Note_on_c, 0, 66, 76
1, 433645, Note_on_c, 0, 59, 71
1, 433656, Note_off_c, 0, 59, 74
1, 433663, Note_off_c, 0, 47, 69
1, 433666, Note_off_c, 0, 66, 69
1, 433677, Note_off_c, 0, 68, 65
1, 433732, Note_on_c, 0, 59, 20
1, 433769, Note_off_c, 0, 59, 42
1, 433798, Control_c, 0, 64, 81
1, 433813, Control_c, 0, 64, 60
1, 433818, Note_on_c, 0, 31, 66
1, 433819, Note_on_c, 0, 43, 64
1, 433828, Control_c, 0, 64, 0
1, 433838, Note_on_c, 0, 79, 102
1, 433857, Control_c, 0, 64, 29
1, 433867, Note_on_c, 0, 72, 54
1, 433872, Control_c, 0, 64, 51
1, 433887, Control_c, 0, 64, 62
1, 433888, Note_off_c, 0, 72, 60
1, 433902, Control_c, 0, 64, 68
1, 433916, Control_c, 0, 64, 81
1, 433931, Control_c, 0, 64, 127
1, 433960, Note_on_c, 0, 36, 67
1, 433966, Note_off_c, 0, 31, 61
1, 433971, Note_on_c, 0, 77, 98
1, 433980, Note_off_c, 0, 43, 61
1, 433989, Note_on_c, 0, 67, 64
1, 433997, Note_off_c, 0, 79, 65
1, 433998, Note_off_c, 0, 36, 63
1, 434025, Note_off_c, 0, 67, 64
1, 434042, Note_off_c, 0, 77, 62
1, 434111, Note_on_c, 0, 77, 92
1, 434112, Note_on_c, 0, 36, 61
1, 434114, Note_on_c, 0, 48, 76
1, 434118, Note_on_c, 0, 72, 78
1, 434138, Note_off_c, 0, 72, 71
1, 434191, Note_on_c, 0, 43, 67
1, 434219, Note_on_c, 0, 75, 94
1, 434221, Note_off_c, 0, 36, 62
1, 434221, Note_off_c, 0, 48, 61
1, 434225, Note_on_c, 0, 67, 76
1, 434226, Note_off_c, 0, 43, 64
1, 434230, Note_off_c, 0, 77, 64
1, 434249, Control_c, 0, 64, 105
1, 434252, Note_off_c, 0, 67, 66
1, 434264, Control_c, 0, 64, 77
1, 434266, Note_off_c, 0, 75, 63
1, 434279, Control_c, 0, 64, 63
1, 434294, Control_c, 0, 64, 58
1, 434308, Control_c, 0, 64, 62
1, 434323, Control_c, 0, 64, 66
1, 434338, Control_c, 0, 64, 69
1, 434346, Note_on_c, 0, 55, 77
1, 434349, Note_on_c, 0, 75, 94
1, 434351, Note_on_c, 0, 67, 77
1, 434352, Note_on_c, 0, 43, 55
1, 434353, Control_c, 0, 64, 75
1, 434368, Control_c, 0, 64, 85
1, 434371, Note_off_c, 0, 55, 67
1, 434378, Note_off_c, 0, 43, 57
1, 434381, Note_off_c, 0, 67, 64
1, 434382, Control_c, 0, 64, 123
1, 434397, Note_off_c, 0, 75, 58
1, 434397, Control_c, 0, 64, 127
1, 434473, Control_c, 0, 64, 83
1, 434478, Note_on_c, 0, 59, 92
1, 434487, Control_c, 0, 64, 69
1, 434489, Note_on_c, 0, 47, 74
1, 434500, Note_on_c, 0, 62, 78
1, 434502, Control_c, 0, 64, 68
1, 434504, Note_on_c, 0, 68, 69
1, 434506, Note_off_c, 0, 59, 66
1, 434515, Note_off_c, 0, 47, 66
1, 434517, Control_c, 0, 64, 74
1, 434531, Control_c, 0, 64, 88
1, 434532, Note_off_c, 0, 62, 61
1, 434537, Note_off_c, 0, 68, 46
1, 434546, Note_on_c, 0, 67, 27
1, 434546, Control_c, 0, 64, 127
1, 434576, Note_off_c, 0, 67, 50
1, 434599, Note_on_c, 0, 47, 67
1, 434603, Note_on_c, 0, 60, 84
1, 434606, Note_on_c, 0, 59, 79
1, 434617, Note_on_c, 0, 62, 70
1, 434623, Note_on_c, 0, 48, 47
1, 434627, Note_off_c, 0, 60, 68
1, 434630, Note_off_c, 0, 59, 69
1, 434631, Note_on_c, 0, 67, 65
1, 434631, Note_off_c, 0, 47, 66
1, 434643, Note_off_c, 0, 62, 65
1, 434653, Note_off_c, 0, 48, 54
1, 434697, Note_off_c, 0, 67, 34
1, 434714, Note_on_c, 0, 46, 65
1, 434724, Note_on_c, 0, 63, 45
1, 434726, Note_on_c, 0, 47, 57
1, 434735, Note_on_c, 0, 59, 4
1, 434745, Note_off_c, 0, 47, 64
1, 434746, Note_off_c, 0, 46, 64
1, 434755, Note_off_c, 0, 63, 56
1, 434782, Poly_aftertouch_c, 0, 66, 127
1, 434792, Note_off_c, 0, 59, 40
1, 434806, Control_c, 0, 64, 79
1, 434808, Poly_aftertouch_c, 0, 66, 0
1, 434820, Control_c, 0, 64, 53
1, 434835, Control_c, 0, 64, 0
1, 434858, Note_on_c, 0, 42, 81
1, 434861, Note_on_c, 0, 30, 78
1, 434861, Note_on_c, 0, 72, 76
1, 434865, Note_on_c, 0, 80, 67
1, 434865, Control_c, 0, 64, 27
1, 434880, Control_c, 0, 64, 56
1, 434895, Control_c, 0, 64, 66
1, 434895, Note_off_c, 0, 72, 66
1, 434898, Note_on_c, 0, 39, 16
1, 434909, Note_off_c, 0, 30, 62
1, 434910, Note_off_c, 0, 42, 61
1, 434910, Control_c, 0, 64, 80
1, 434925, Control_c, 0, 64, 127
1, 434932, Note_off_c, 0, 80, 62
1, 434952, Note_off_c, 0, 39, 50
1, 434984, Note_on_c, 0, 79, 77
1, 434985, Note_on_c, 0, 68, 71
1, 435001, Note_on_c, 0, 48, 70
1, 435011, Note_on_c, 0, 36, 55
1, 435032, Note_off_c, 0, 48, 64
1, 435036, Note_off_c, 0, 79, 65
1, 435042, Note_off_c, 0, 36, 55
1, 435044, Note_off_c, 0, 68, 60
1, 435107, Note_on_c, 0, 51, 83
1, 435110, Note_on_c, 0, 79, 90
1, 435112, Note_on_c, 0, 72, 91
1, 435115, Note_on_c, 0, 39, 68
1, 435132, Note_off_c, 0, 51, 70
1, 435150, Note_off_c, 0, 39, 55
1, 435165, Note_off_c, 0, 72, 62
1, 435165, Note_off_c, 0, 79, 65
1, 435232, Note_on_c, 0, 78, 97
1, 435234, Note_on_c, 0, 66, 91
1, 435279, Note_off_c, 0, 66, 64
1, 435308, Note_off_c, 0, 78, 63
1, 435369, Control_c, 0, 64, 77
1, 435384, Control_c, 0, 64, 51
1, 435388, Note_on_c, 0, 41, 96
1, 435390, Note_on_c, 0, 81, 97
1, 435392, Note_on_c, 0, 29, 85
1, 435393, Note_on_c, 0, 72, 95
1, 435399, Control_c, 0, 64, 0
1, 435429, Note_off_c, 0, 29, 65
1, 435429, Control_c, 0, 64, 42
1, 435443, Control_c, 0, 64, 62
1, 435447, Note_off_c, 0, 41, 63
1, 435455, Note_off_c, 0, 72, 60
1, 435458, Control_c, 0, 64, 72
1, 435473, Control_c, 0, 64, 102
1, 435479, Note_off_c, 0, 81, 66
1, 435488, Control_c, 0, 64, 127
1, 435558, Note_on_c, 0, 79, 99
1, 435562, Note_on_c, 0, 69, 100
1, 435566, Note_on_c, 0, 48, 84
1, 435572, Note_on_c, 0, 36, 72
1, 435591, Note_off_c, 0, 48, 67
1, 435604, Note_off_c, 0, 36, 64
1, 435623, Note_off_c, 0, 69, 51
1, 435645, Note_off_c, 0, 79, 62
1, 435715, Note_on_c, 0, 51, 88
1, 435720, Note_on_c, 0, 39, 81
1, 435720, Note_on_c, 0, 72, 97
1, 435722, Note_on_c, 0, 79, 100
1, 435738, Note_off_c, 0, 51, 70
1, 435750, Note_off_c, 0, 39, 64
1, 435831, Note_off_c, 0, 79, 57
1, 435865, Control_c, 0, 64, 78
1, 435879, Control_c, 0, 64, 0
1, 435909, Note_off_c, 0, 72, 0
1, 435917, Note_on_c, 0, 46, 101
1, 435919, Note_on_c, 0, 65, 94
1, 435919, Note_on_c, 0, 77, 96
1, 435926, Note_on_c, 0, 34, 79
1, 435939, Poly_aftertouch_c, 0, 72, 0
1, 435939, Control_c, 0, 64, 33
1, 435947, Note_off_c, 0, 34, 66
1, 435950, Note_off_c, 0, 65, 66
1, 435953, Control_c, 0, 64, 64
1, 435962, Note_off_c, 0, 46, 61
1, 435968, Control_c, 0, 64, 105
1, 435972, Note_off_c, 0, 77, 67
1, 435983, Control_c, 0, 64, 127
1, 436181, Note_on_c, 0, 62, 99
1, 436185, Note_on_c, 0, 89, 95
1, 436186, Note_on_c, 0, 80, 84
1, 436189, Note_on_c, 0, 50, 82
1, 436193, Note_on_c, 0, 56, 77
1, 436193, Note_on_c, 0, 58, 82
1, 436377, Note_on_c, 0, 79, 85
1, 436381, Note_on_c, 0, 87, 85
1, 436381, Note_off_c, 0, 58, 55
1, 436394, Note_off_c, 0, 89, 32
1, 436394, Note_off_c, 0, 80, 61
1, 436406, Note_off_c, 0, 50, 51
1, 436412, Note_off_c, 0, 56, 58
1, 436439, Note_off_c, 0, 79, 64
1, 436451, Note_off_c, 0, 87, 64
1, 436523, Note_off_c, 0, 62, 58
1, 436532, Note_on_c, 0, 80, 96
1, 436536, Note_on_c, 0, 87, 98
1, 436590, Note_off_c, 0, 80, 63
1, 436597, Note_off_c, 0, 87, 63
1, 436674, Note_on_c, 0, 86, 99
1, 436675, Note_on_c, 0, 77, 98
1, 436756, Note_off_c, 0, 77, 58
1, 436766, Note_off_c, 0, 86, 61
1, 436843, Note_on_c, 0, 68, 111
1, 436850, Note_on_c, 0, 56, 82
1, 436850, Note_on_c, 0, 86, 95
1, 436851, Note_on_c, 0, 77, 97
1, 436852, Note_on_c, 0, 62, 77
1, 436855, Note_on_c, 0, 58, 76
1, 436910, Note_off_c, 0, 68, 63
1, 436919, Note_off_c, 0, 56, 57
1, 436929, Note_off_c, 0, 62, 58
1, 436965, Note_off_c, 0, 58, 62
1, 436988, Note_on_c, 0, 75, 83
1, 436995, Note_on_c, 0, 84, 77
1, 437014, Note_off_c, 0, 77, 60
1, 437023, Note_off_c, 0, 86, 62
1, 437079, Note_off_c, 0, 84, 62
1, 437082, Note_off_c, 0, 75, 62
1, 437145, Note_on_c, 0, 84, 83
1, 437148, Note_on_c, 0, 75, 87
1, 437230, Control_c, 0, 64, 105
1, 437245, Control_c, 0, 64, 64
1, 437260, Control_c, 0, 64, 0
1, 437266, Note_on_c, 0, 39, 86
1, 437269, Note_on_c, 0, 27, 78
1, 437275, Note_on_c, 0, 73, 90
1, 437281, Note_on_c, 0, 82, 83
1, 437289, Control_c, 0, 64, 40
1, 437291, Note_off_c, 0, 75, 62
1, 437300, Note_off_c, 0, 27, 63
1, 437304, Control_c, 0, 64, 66
1, 437310, Note_off_c, 0, 84, 62
1, 437313, Note_off_c, 0, 73, 64
1, 437315, Note_off_c, 0, 39, 60
1, 437319, Control_c, 0, 64, 119
1, 437333, Control_c, 0, 64, 127
1, 437335, Note_off_c, 0, 82, 66
1, 437440, Note_on_c, 0, 67, 92
1, 437448, Note_on_c, 0, 55, 72
1, 437452, Note_on_c, 0, 94, 87
1, 437453, Note_on_c, 0, 61, 70
1, 437457, Note_on_c, 0, 85, 79
1, 437462, Note_on_c, 0, 63, 60
1, 437542, Note_off_c, 0, 85, 62
1, 437563, Note_off_c, 0, 55, 62
1, 437572, Note_off_c, 0, 63, 51
1, 437583, Note_on_c, 0, 92, 86
1, 437585, Note_on_c, 0, 84, 77
1, 437616, Note_off_c, 0, 61, 58
1, 437618, Note_off_c, 0, 94, 63
1, 437619, Note_off_c, 0, 67, 59
1, 437644, Note_off_c, 0, 84, 61
1, 437667, Note_off_c, 0, 92, 64
1, 437714, Note_on_c, 0, 68, 100
1, 437721, Note_on_c, 0, 56, 85
1, 437721, Note_on_c, 0, 92, 91
1, 437724, Note_on_c, 0, 61, 77
1, 437724, Note_on_c, 0, 85, 90
1, 437725, Note_on_c, 0, 63, 75
1, 437760, Note_on_c, 0, 67, 37
1, 437781, Note_on_c, 0, 58, 35
1, 437784, Note_off_c, 0, 67, 59
1, 437819, Note_off_c, 0, 85, 64
1, 437825, Note_off_c, 0, 56, 59
1, 437827, Note_off_c, 0, 58, 48
1, 437839, Note_off_c, 0, 92, 61
1, 437852, Note_on_c, 0, 82, 88
1, 437856, Note_on_c, 0, 91, 82
1, 437870, Note_off_c, 0, 63, 52
1, 437870, Note_off_c, 0, 68, 58
1, 437888, Note_off_c, 0, 61, 52
1, 437921, Note_off_c, 0, 91, 64
1, 437932, Note_off_c, 0, 82, 61
1, 437951, Poly_aftertouch_c, 0, 90, 0
1, 437999, Note_on_c, 0, 70, 105
1, 438004, Note_on_c, 0, 91, 96
1, 438006, Note_on_c, 0, 82, 96
1, 438007, Note_on_c, 0, 63, 75
1, 438010, Note_on_c, 0, 61, 74
1, 438013, Note_on_c, 0, 58, 73
1, 438039, Note_on_c, 0, 68, 37
1, 438055, Note_off_c, 0, 70, 70
1, 438062, Note_off_c, 0, 68, 62
1, 438073, Note_off_c, 0, 63, 61
1, 438083, Note_off_c, 0, 58, 63
1, 438091, Note_off_c, 0, 61, 63
1, 438133, Note_on_c, 0, 80, 90
1, 438139, Note_on_c, 0, 89, 81
1, 438156, Note_off_c, 0, 82, 60
1, 438171, Note_off_c, 0, 91, 63
1, 438215, Note_off_c, 0, 89, 61
1, 438219, Note_off_c, 0, 80, 63
1, 438272, Note_on_c, 0, 82, 92
1, 438272, Note_on_c, 0, 89, 85
1, 438364, Control_c, 0, 64, 91
1, 438379, Control_c, 0, 64, 41
1, 438382, Note_off_c, 0, 89, 59
1, 438394, Control_c, 0, 64, 0
1, 438399, Note_on_c, 0, 36, 96
1, 438405, Note_on_c, 0, 24, 83
1, 438415, Note_on_c, 0, 79, 83
1, 438420, Note_on_c, 0, 88, 86
1, 438427, Note_off_c, 0, 82, 63
1, 438435, Note_on_c, 0, 87, 50
1, 438436, Note_off_c, 0, 24, 62
1, 438439, Note_off_c, 0, 36, 66
1, 438439, Control_c, 0, 64, 54
1, 438454, Control_c, 0, 64, 76
1, 438454, Note_off_c, 0, 79, 65
1, 438456, Note_off_c, 0, 87, 50
1, 438469, Control_c, 0, 64, 127
1, 438472, Note_off_c, 0, 88, 66
1, 438590, Note_on_c, 0, 70, 96
1, 438591, Note_on_c, 0, 94, 98
1, 438594, Note_on_c, 0, 88, 89
1, 438602, Note_on_c, 0, 67, 70
1, 438609, Note_on_c, 0, 64, 63
1, 438610, Note_on_c, 0, 58, 55
1, 438618, Note_on_c, 0, 68, 55
1, 438619, Note_off_c, 0, 68, 127
1, 438629, Note_on_c, 0, 95, 47
1, 438636, Note_off_c, 0, 58, 62
1, 438678, Note_off_c, 0, 95, 41
1, 438679, Note_off_c, 0, 67, 54
1, 438681, Poly_aftertouch_c, 0, 61, 127
1, 438692, Note_off_c, 0, 94, 62
1, 438693, Note_off_c, 0, 64, 58
1, 438715, Poly_aftertouch_c, 0, 61, 0
1, 438728, Note_on_c, 0, 85, 81
1, 438728, Note_on_c, 0, 93, 82
1, 438750, Note_off_c, 0, 70, 52
1, 438751, Note_off_c, 0, 88, 55
1, 438790, Note_off_c, 0, 93, 65
1, 438798, Note_off_c, 0, 85, 64
1, 438872, Note_on_c, 0, 88, 100
1, 438877, Note_on_c, 0, 93, 92
1, 438931, Note_off_c, 0, 88, 66
1, 438937, Note_off_c, 0, 93, 65
1, 439011, Note_on_c, 0, 82, 99
1, 439015, Note_on_c, 0, 91, 95
1, 439089, Note_off_c, 0, 91, 66
1, 439109, Note_off_c, 0, 82, 62
1, 439181, Note_on_c, 0, 91, 97
1, 439185, Note_on_c, 0, 76, 106
1, 439185, Note_on_c, 0, 64, 84
1, 439186, Note_on_c, 0, 82, 96
1, 439191, Note_on_c, 0, 70, 90
1, 439196, Note_on_c, 0, 67, 77
1, 439237, Note_off_c, 0, 67, 0
1, 439250, Note_off_c, 0, 76, 67
1, 439275, Poly_aftertouch_c, 0, 67, 0
1, 439275, Note_off_c, 0, 70, 67
1, 439279, Note_off_c, 0, 64, 63
1, 439343, Note_on_c, 0, 81, 84
1, 439346, Note_on_c, 0, 89, 86
1, 439372, Note_off_c, 0, 82, 63
1, 439373, Note_off_c, 0, 91, 63
1, 439451, Note_off_c, 0, 89, 62
1, 439462, Note_off_c, 0, 81, 65
1, 439518, Note_on_c, 0, 82, 96
1, 439519, Note_on_c, 0, 89, 93
1, 439653, Control_c, 0, 64, 113
1, 439667, Control_c, 0, 64, 64
1, 439675, Note_off_c, 0, 89, 47
1, 439682, Control_c, 0, 64, 0
1, 439685, Note_on_c, 0, 41, 101
1, 439689, Note_on_c, 0, 29, 85
1, 439694, Note_on_c, 0, 79, 89
1, 439694, Note_on_c, 0, 87, 94
1, 439718, Note_off_c, 0, 29, 68
1, 439723, Note_off_c, 0, 82, 64
1, 439727, Control_c, 0, 64, 58
1, 439733, Note_off_c, 0, 41, 66
1, 439742, Control_c, 0, 64, 81
1, 439757, Control_c, 0, 64, 127
1, 439775, Note_off_c, 0, 79, 63
1, 439790, Note_off_c, 0, 87, 64
1, 439918, Note_on_c, 0, 69, 82
1, 439920, Note_on_c, 0, 72, 96
1, 439927, Note_on_c, 0, 96, 95
1, 439927, Note_on_c, 0, 60, 81
1, 439935, Note_on_c, 0, 87, 87
1, 439938, Note_on_c, 0, 63, 72
1, 440034, Note_off_c, 0, 60, 60
1, 440091, Note_off_c, 0, 96, 65
1, 440104, Note_off_c, 0, 87, 55
1, 440108, Note_off_c, 0, 69, 61
1, 440111, Note_off_c, 0, 63, 59
1, 440129, Note_on_c, 0, 86, 86
1, 440130, Note_on_c, 0, 94, 90
1, 440154, Note_off_c, 0, 72, 55
1, 440186, Note_off_c, 0, 86, 60
1, 440196, Note_off_c, 0, 94, 64
1, 440296, Note_on_c, 0, 74, 101
1, 440297, Note_on_c, 0, 94, 101
1, 440305, Note_on_c, 0, 62, 90
1, 440306, Note_on_c, 0, 87, 97
1, 440347, Note_off_c, 0, 87, 63
1, 440364, Note_off_c, 0, 94, 63
1, 440391, Note_off_c, 0, 62, 47
1, 440433, Note_off_c, 0, 74, 56
1, 440442, Note_on_c, 0, 93, 103
1, 440445, Note_on_c, 0, 84, 95
1, 440501, Note_off_c, 0, 84, 54
1, 440534, Note_off_c, 0, 93, 64
1, 440580, Control_c, 0, 64, 98
1, 440592, Note_on_c, 0, 72, 13
1, 440595, Control_c, 0, 64, 67
1, 440604, Note_on_c, 0, 75, 88
1, 440606, Note_on_c, 0, 63, 70
1, 440610, Control_c, 0, 64, 30
1, 440614, Note_on_c, 0, 69, 63
1, 440616, Note_on_c, 0, 93, 93
1, 440624, Control_c, 0, 64, 0
1, 440628, Note_on_c, 0, 87, 83
1, 440639, Control_c, 0, 64, 40
1, 440654, Control_c, 0, 64, 56
1, 440669, Control_c, 0, 64, 65
1, 440684, Control_c, 0, 64, 77
1, 440699, Control_c, 0, 64, 127
1, 440701, Note_off_c, 0, 93, 65
1, 440702, Note_off_c, 0, 72, 57
1, 440707, Note_off_c, 0, 69, 63
1, 440708, Note_off_c, 0, 75, 60
1, 440714, Note_off_c, 0, 63, 60
1, 440717, Note_off_c, 0, 87, 64
1, 440750, Control_c, 0, 64, 81
1, 440765, Control_c, 0, 64, 64
1, 440780, Control_c, 0, 64, 53
1, 440788, Note_on_c, 0, 76, 89
1, 440791, Note_on_c, 0, 64, 75
1, 440792, Note_on_c, 0, 91, 88
1, 440793, Note_on_c, 0, 70, 76
1, 440796, Control_c, 0, 64, 60
1, 440803, Note_on_c, 0, 85, 79
1, 440806, Note_on_c, 0, 82, 70
1, 440811, Control_c, 0, 64, 69
1, 440826, Control_c, 0, 64, 85
1, 440841, Control_c, 0, 64, 127
1, 440857, Note_off_c, 0, 76, 58
1, 440860, Note_off_c, 0, 64, 59
1, 440869, Note_off_c, 0, 82, 60
1, 440876, Note_off_c, 0, 91, 63
1, 440877, Note_off_c, 0, 70, 61
1, 440884, Note_off_c, 0, 85, 64
1, 440931, Note_on_c, 0, 70, 62
1, 440934, Note_on_c, 0, 76, 86
1, 440943, Note_on_c, 0, 64, 64
1, 440943, Note_on_c, 0, 85, 62
1, 440944, Note_on_c, 0, 91, 81
1, 440946, Note_on_c, 0, 82, 75
1, 440973, Note_off_c, 0, 64, 63
1, 440981, Note_off_c, 0, 70, 62
1, 440987, Note_off_c, 0, 76, 59
1, 441015, Note_off_c, 0, 91, 62
1, 441020, Note_off_c, 0, 82, 59
1, 441029, Note_off_c, 0, 85, 53
1, 441033, Control_c, 0, 64, 81
1, 441048, Control_c, 0, 64, 61
1, 441062, Control_c, 0, 64, 46
1, 441071, Note_on_c, 0, 77, 88
1, 441076, Note_on_c, 0, 69, 71
1, 441077, Note_on_c, 0, 65, 68
1, 441077, Note_on_c, 0, 89, 83
1, 441077, Control_c, 0, 64, 60
1, 441081, Note_on_c, 0, 81, 74
1, 441081, Note_on_c, 0, 84, 70
1, 441092, Control_c, 0, 64, 67
1, 441107, Control_c, 0, 64, 78
1, 441122, Control_c, 0, 64, 114
1, 441129, Note_off_c, 0, 65, 57
1, 441136, Note_off_c, 0, 77, 60
1, 441137, Control_c, 0, 64, 127
1, 441144, Note_off_c, 0, 81, 61
1, 441146, Note_off_c, 0, 84, 61
1, 441158, Note_off_c, 0, 69, 59
1, 441164, Note_off_c, 0, 89, 61
1, 441212, Note_on_c, 0, 77, 87
1, 441221, Note_on_c, 0, 89, 80
1, 441226, Note_on_c, 0, 69, 50
1, 441226, Note_on_c, 0, 81, 78
1, 441226, Note_on_c, 0, 65, 71
1, 441229, Note_on_c, 0, 84, 73
1, 441238, Note_off_c, 0, 77, 60
1, 441251, Note_off_c, 0, 65, 67
1, 441253, Note_off_c, 0, 69, 64
1, 441254, Note_off_c, 0, 81, 66
1, 441269, Note_off_c, 0, 84, 61
1, 441279, Note_off_c, 0, 89, 63
1, 441347, Note_on_c, 0, 72, 88
1, 441348, Note_on_c, 0, 80, 82
1, 441352, Note_on_c, 0, 60, 78
1, 441352, Note_on_c, 0, 88, 76
1, 441358, Note_on_c, 0, 83, 68
1, 441375, Note_off_c, 0, 60, 67
1, 441376, Note_off_c, 0, 72, 57
1, 441386, Note_off_c, 0, 83, 65
1, 441408, Note_off_c, 0, 80, 60
1, 441412, Note_off_c, 0, 88, 63
1, 441477, Note_on_c, 0, 72, 88
1, 441482, Note_on_c, 0, 60, 78
1, 441486, Note_on_c, 0, 80, 77
1, 441495, Note_on_c, 0, 88, 74
1, 441496, Note_on_c, 0, 82, 75
1, 441508, Note_off_c, 0, 72, 65
1, 441519, Note_off_c, 0, 60, 65
1, 441529, Note_off_c, 0, 80, 55
1, 441551, Note_off_c, 0, 88, 64
1, 441554, Note_off_c, 0, 82, 58
1, 441621, Note_on_c, 0, 65, 93
1, 441628, Note_on_c, 0, 53, 87
1, 441629, Note_on_c, 0, 87, 86
1, 441636, Note_on_c, 0, 79, 80
1, 441659, Note_on_c, 0, 82, 53
1, 441659, Note_off_c, 0, 53, 63
1, 441660, Note_off_c, 0, 65, 64
1, 441662, Note_off_c, 0, 79, 67
1, 441678, Note_off_c, 0, 82, 60
1, 441700, Note_off_c, 0, 87, 61
1, 441737, Control_c, 0, 64, 75
1, 441752, Control_c, 0, 64, 55
1, 441767, Control_c, 0, 64, 45
1, 441770, Note_on_c, 0, 65, 98
1, 441775, Note_on_c, 0, 53, 88
1, 441782, Control_c, 0, 64, 60
1, 441787, Note_on_c, 0, 87, 80
1, 441790, Note_on_c, 0, 79, 60
1, 441796, Control_c, 0, 64, 68
1, 441799, Note_on_c, 0, 82, 54
1, 441811, Control_c, 0, 64, 83
1, 441826, Control_c, 0, 64, 127
1, 441827, Note_off_c, 0, 79, 65
1, 441858, Note_off_c, 0, 65, 66
1, 441880, Note_off_c, 0, 87, 64
1, 441898, Note_off_c, 0, 53, 61
1, 441898, Note_off_c, 0, 82, 64
1, 441937, Note_on_c, 0, 75, 94
1, 441939, Note_on_c, 0, 84, 94
1, 441990, Note_off_c, 0, 84, 61
1, 442016, Note_off_c, 0, 75, 61
1, 442105, Note_on_c, 0, 41, 98
1, 442111, Note_on_c, 0, 29, 81
1, 442115, Note_on_c, 0, 72, 94
1, 442118, Note_on_c, 0, 81, 91
1, 442162, Note_off_c, 0, 29, 61
1, 442198, Note_off_c, 0, 41, 63
1, 442219, Note_off_c, 0, 81, 60
1, 442270, Note_off_c, 0, 72, 62
1, 442320, Note_on_c, 0, 77, 96
1, 442320, Note_on_c, 0, 69, 92
1, 442375, Note_off_c, 0, 69, 60
1, 442385, Note_off_c, 0, 77, 60
1, 442530, Control_c, 0, 64, 116
1, 442538, Note_on_c, 0, 50, 85
1, 442538, Note_on_c, 0, 53, 97
1, 442544, Note_on_c, 0, 46, 79
1, 442544, Note_on_c, 0, 65, 88
1, 442544, Note_on_c, 0, 77, 94
1, 442544, Control_c, 0, 64, 71
1, 442546, Note_on_c, 0, 41, 77
1, 442550, Note_on_c, 0, 74, 81
1, 442559, Control_c, 0, 64, 37
1, 442571, Note_on_c, 0, 70, 72
1, 442574, Control_c, 0, 64, 0
1, 442633, Control_c, 0, 64, 43
1, 442648, Control_c, 0, 64, 61
1, 442663, Control_c, 0, 64, 71
1, 442675, Note_off_c, 0, 70, 59
1, 442678, Control_c, 0, 64, 113
1, 442681, Note_off_c, 0, 53, 60
1, 442693, Note_off_c, 0, 50, 63
1, 442693, Control_c, 0, 64, 127
1, 442693, Note_off_c, 0, 74, 55
1, 442708, Note_off_c, 0, 41, 61
1, 442709, Note_on_c, 0, 73, 59
1, 442720, Note_off_c, 0, 46, 62
1, 442721, Note_off_c, 0, 65, 56
1, 442724, Note_on_c, 0, 69, 63
1, 442790, Note_off_c, 0, 73, 64
1, 442798, Note_off_c, 0, 69, 63
1, 442891, Note_on_c, 0, 41, 75
1, 442891, Note_on_c, 0, 74, 77
1, 442893, Note_on_c, 0, 29, 69
1, 442902, Note_on_c, 0, 70, 82
1, 442916, Note_off_c, 0, 41, 68
1, 442922, Note_off_c, 0, 77, 56
1, 442925, Note_off_c, 0, 29, 57
1, 442994, Note_off_c, 0, 74, 63
1, 443002, Note_off_c, 0, 70, 62
1, 443020, Note_on_c, 0, 65, 80
1, 443069, Note_off_c, 0, 65, 61
1, 443159, Control_c, 0, 64, 77
1, 443174, Control_c, 0, 64, 53
1, 443175, Note_on_c, 0, 58, 101
1, 443179, Note_on_c, 0, 70, 92
1, 443180, Note_on_c, 0, 82, 83
1, 443184, Note_on_c, 0, 53, 68
1, 443186, Note_on_c, 0, 77, 69
1, 443187, Note_on_c, 0, 46, 74
1, 443189, Control_c, 0, 64, 0
1, 443196, Note_on_c, 0, 50, 61
1, 443201, Note_on_c, 0, 80, 66
1, 443212, Note_on_c, 0, 74, 33
1, 443217, Note_off_c, 0, 80, 65
1, 443220, Control_c, 0, 64, 30
1, 443235, Control_c, 0, 64, 56
1, 443242, Note_off_c, 0, 74, 34
1, 443249, Control_c, 0, 64, 64
1, 443264, Control_c, 0, 64, 72
1, 443266, Note_off_c, 0, 50, 60
1, 443267, Note_off_c, 0, 58, 65
1, 443275, Note_off_c, 0, 53, 63
1, 443279, Control_c, 0, 64, 89
1, 443294, Control_c, 0, 64, 127
1, 443304, Note_off_c, 0, 46, 63
1, 443317, Note_on_c, 0, 73, 72
1, 443321, Note_on_c, 0, 76, 59
1, 443331, Note_off_c, 0, 77, 52
1, 443337, Note_off_c, 0, 82, 62
1, 443359, Note_off_c, 0, 70, 56
1, 443402, Note_off_c, 0, 73, 62
1, 443411, Note_off_c, 0, 76, 58
1, 443448, Note_on_c, 0, 74, 57
1, 443461, Note_on_c, 0, 41, 78
1, 443466, Note_on_c, 0, 77, 59
1, 443471, Note_on_c, 0, 29, 49
1, 443489, Note_off_c, 0, 41, 66
1, 443513, Note_off_c, 0, 29, 48
1, 443523, Note_off_c, 0, 74, 61
1, 443565, Note_off_c, 0, 77, 62
1, 443582, Note_on_c, 0, 70, 57
1, 443623, Note_off_c, 0, 70, 61
1, 443694, Control_c, 0, 64, 94
1, 443708, Control_c, 0, 64, 69
1, 443716, Note_on_c, 0, 57, 75
1, 443718, Note_on_c, 0, 45, 66
1, 443720, Note_on_c, 0, 54, 64
1, 443721, Note_on_c, 0, 51, 61
1, 443723, Note_on_c, 0, 81, 79
1, 443723, Control_c, 0, 64, 52
1, 443730, Note_on_c, 0, 78, 70
1, 443730, Note_on_c, 0, 75, 73
1, 443745, Control_c, 0, 64, 46
1, 443758, Note_on_c, 0, 69, 49
1, 443760, Control_c, 0, 64, 56
1, 443775, Control_c, 0, 64, 63
1, 443787, Note_off_c, 0, 69, 54
1, 443790, Control_c, 0, 64, 70
1, 443805, Control_c, 0, 64, 82
1, 443820, Control_c, 0, 64, 127
1, 443830, Note_off_c, 0, 45, 61
1, 443851, Note_off_c, 0, 75, 65
1, 443867, Note_off_c, 0, 78, 57
1, 443871, Note_on_c, 0, 74, 72
1, 443876, Note_on_c, 0, 77, 74
1, 443877, Note_off_c, 0, 57, 60
1, 443885, Note_off_c, 0, 51, 57
1, 443897, Note_off_c, 0, 54, 54
1, 443918, Note_off_c, 0, 81, 64
1, 443947, Note_off_c, 0, 74, 62
1, 443948, Note_off_c, 0, 77, 62
1, 443982, Control_c, 0, 64, 83
1, 443998, Control_c, 0, 64, 63
1, 444007, Note_on_c, 0, 58, 90
1, 444008, Note_on_c, 0, 82, 94
1, 444010, Note_on_c, 0, 51, 73
1, 444011, Note_on_c, 0, 46, 74
1, 444013, Control_c, 0, 64, 45
1, 444014, Note_on_c, 0, 75, 90
1, 444016, Note_on_c, 0, 54, 76
1, 444019, Note_on_c, 0, 78, 88
1, 444028, Control_c, 0, 64, 53
1, 444043, Control_c, 0, 64, 63
1, 444058, Control_c, 0, 64, 69
1, 444073, Control_c, 0, 64, 86
1, 444088, Control_c, 0, 64, 127
1, 444111, Note_off_c, 0, 46, 62
1, 444119, Note_on_c, 0, 70, 81
1, 444139, Note_off_c, 0, 58, 56
1, 444166, Note_off_c, 0, 82, 64
1, 444172, Note_off_c, 0, 75, 51
1, 444189, Note_off_c, 0, 78, 60
1, 444201, Note_off_c, 0, 70, 64
1, 444210, Note_off_c, 0, 54, 50
1, 444228, Note_off_c, 0, 51, 31
1, 444251, Control_c, 0, 64, 71
1, 444264, Note_on_c, 0, 51, 52
1, 444265, Control_c, 0, 64, 47
1, 444266, Note_on_c, 0, 54, 57
1, 444267, Note_on_c, 0, 84, 97
1, 444268, Note_on_c, 0, 60, 96
1, 444270, Note_on_c, 0, 72, 94
1, 444273, Note_on_c, 0, 75, 87
1, 444274, Note_on_c, 0, 78, 84
1, 444276, Note_on_c, 0, 48, 77
1, 444280, Control_c, 0, 64, 33
1, 444295, Control_c, 0, 64, 56
1, 444296, Note_on_c, 0, 71, 33
1, 444297, Note_off_c, 0, 71, 127
1, 444310, Control_c, 0, 64, 67
1, 444324, Control_c, 0, 64, 81
1, 444328, Note_off_c, 0, 60, 65
1, 444339, Control_c, 0, 64, 127
1, 444354, Note_off_c, 0, 54, 65
1, 444361, Note_off_c, 0, 48, 63
1, 444365, Note_off_c, 0, 51, 64
1, 444386, Note_on_c, 0, 74, 74
1, 444394, Note_on_c, 0, 77, 74
1, 444413, Note_off_c, 0, 72, 63
1, 444422, Note_off_c, 0, 78, 40
1, 444449, Note_off_c, 0, 74, 62
1, 444453, Note_off_c, 0, 77, 63
1, 444457, Note_off_c, 0, 75, 34
1, 444524, Note_on_c, 0, 41, 79
1, 444530, Note_on_c, 0, 29, 64
1, 444538, Note_on_c, 0, 75, 87
1, 444541, Note_on_c, 0, 78, 85
1, 444559, Note_off_c, 0, 41, 66
1, 444570, Note_off_c, 0, 29, 50
1, 444614, Note_off_c, 0, 84, 62
1, 444619, Note_off_c, 0, 78, 61
1, 444645, Note_off_c, 0, 75, 59
1, 444646, Note_on_c, 0, 72, 76
1, 444711, Note_off_c, 0, 72, 60
1, 444762, Control_c, 0, 64, 87
1, 444777, Control_c, 0, 64, 62
1, 444787, Note_on_c, 0, 58, 86
1, 444787, Note_on_c, 0, 77, 81
1, 444789, Note_on_c, 0, 62, 97
1, 444789, Note_on_c, 0, 74, 99
1, 444790, Note_on_c, 0, 86, 94
1, 444792, Control_c, 0, 64, 0
1, 444795, Note_on_c, 0, 50, 78
1, 444795, Note_on_c, 0, 82, 80
1, 444800, Note_on_c, 0, 53, 75
1, 444821, Control_c, 0, 64, 37
1, 444836, Control_c, 0, 64, 58
1, 444843, Note_off_c, 0, 77, 64
1, 444851, Control_c, 0, 64, 67
1, 444866, Control_c, 0, 64, 81
1, 444870, Note_off_c, 0, 62, 63
1, 444881, Control_c, 0, 64, 127
1, 444887, Note_off_c, 0, 74, 48
1, 444893, Note_off_c, 0, 58, 64
1, 444902, Note_off_c, 0, 53, 62
1, 444904, Note_off_c, 0, 50, 63
1, 444922, Note_on_c, 0, 81, 54
1, 444933, Note_on_c, 0, 76, 71
1, 444966, Note_off_c, 0, 76, 63
1, 444988, Note_off_c, 0, 81, 63
1, 445060, Note_on_c, 0, 77, 79
1, 445062, Note_on_c, 0, 41, 72
1, 445090, Note_off_c, 0, 41, 66
1, 445118, Note_off_c, 0, 82, 63
1, 445124, Note_off_c, 0, 86, 63
1, 445152, Note_off_c, 0, 77, 63
1, 445155, Note_on_c, 0, 74, 73
1, 445196, Note_off_c, 0, 74, 62
1, 445303, Control_c, 0, 64, 87
1, 445307, Note_on_c, 0, 58, 96
1, 445313, Note_on_c, 0, 70, 98
1, 445316, Note_on_c, 0, 82, 84
1, 445317, Note_on_c, 0, 46, 73
1, 445317, Note_on_c, 0, 53, 64
1, 445318, Control_c, 0, 64, 64
1, 445328, Note_on_c, 0, 77, 65
1, 445333, Control_c, 0, 64, 35
1, 445334, Note_on_c, 0, 50, 52
1, 445347, Control_c, 0, 64, 38
1, 445362, Control_c, 0, 64, 55
1, 445377, Control_c, 0, 64, 65
1, 445389, Note_off_c, 0, 50, 54
1, 445392, Control_c, 0, 64, 74
1, 445393, Note_off_c, 0, 58, 65
1, 445403, Note_off_c, 0, 53, 63
1, 445407, Control_c, 0, 64, 101
1, 445421, Control_c, 0, 64, 127
1, 445434, Note_off_c, 0, 46, 63
1, 445441, Note_on_c, 0, 73, 72
1, 445443, Note_on_c, 0, 76, 59
1, 445470, Note_off_c, 0, 82, 61
1, 445477, Note_off_c, 0, 70, 55
1, 445489, Note_off_c, 0, 77, 54
1, 445529, Note_off_c, 0, 76, 60
1, 445537, Note_off_c, 0, 73, 63
1, 445564, Note_on_c, 0, 41, 88
1, 445570, Note_on_c, 0, 74, 66
1, 445576, Note_on_c, 0, 29, 64
1, 445595, Note_on_c, 0, 77, 70
1, 445596, Note_off_c, 0, 41, 69
1, 445611, Note_off_c, 0, 29, 53
1, 445647, Note_off_c, 0, 74, 62
1, 445667, Note_on_c, 0, 70, 75
1, 445683, Note_off_c, 0, 77, 62
1, 445733, Note_off_c, 0, 70, 63
1, 445793, Control_c, 0, 64, 111
1, 445807, Note_on_c, 0, 55, 103
1, 445808, Control_c, 0, 64, 71
1, 445808, Note_on_c, 0, 50, 82
1, 445815, Note_on_c, 0, 67, 95
1, 445816, Note_on_c, 0, 79, 97
1, 445818, Note_on_c, 0, 71, 79
1, 445820, Note_on_c, 0, 47, 72
1, 445823, Control_c, 0, 64, 45
1, 445824, Note_on_c, 0, 43, 65
1, 445837, Control_c, 0, 64, 0
1, 445838, Note_on_c, 0, 74, 52
1, 445848, Note_off_c, 0, 71, 62
1, 445852, Control_c, 0, 64, 39
1, 445857, Note_on_c, 0, 45, 44
1, 445858, Note_off_c, 0, 45, 127
1, 445858, Note_off_c, 0, 74, 61
1, 445867, Control_c, 0, 64, 55
1, 445881, Note_off_c, 0, 55, 64
1, 445882, Control_c, 0, 64, 63
1, 445897, Control_c, 0, 64, 71
1, 445901, Note_off_c, 0, 50, 64
1, 445911, Note_off_c, 0, 47, 61
1, 445911, Control_c, 0, 64, 89
1, 445926, Note_off_c, 0, 43, 63
1, 445926, Control_c, 0, 64, 127
1, 445935, Note_on_c, 0, 70, 80
1, 445948, Note_off_c, 0, 67, 61
1, 445948, Note_on_c, 0, 73, 70
1, 446010, Note_off_c, 0, 70, 62
1, 446017, Note_off_c, 0, 73, 63
1, 446072, Note_on_c, 0, 41, 90
1, 446075, Note_on_c, 0, 29, 76
1, 446078, Note_on_c, 0, 74, 82
1, 446079, Note_on_c, 0, 71, 88
1, 446106, Note_off_c, 0, 29, 61
1, 446117, Note_off_c, 0, 41, 64
1, 446153, Note_off_c, 0, 79, 53
1, 446183, Note_on_c, 0, 67, 84
1, 446210, Note_off_c, 0, 71, 62
1, 446225, Note_off_c, 0, 74, 61
1, 446228, Note_off_c, 0, 67, 65
1, 446362, Control_c, 0, 64, 77
1, 446366, Note_on_c, 0, 67, 100
1, 446366, Note_on_c, 0, 79, 94
1, 446367, Note_on_c, 0, 91, 98
1, 446370, Note_on_c, 0, 62, 74
1, 446370, Note_on_c, 0, 83, 86
1, 446374, Note_on_c, 0, 55, 79
1, 446376, Note_on_c, 0, 86, 78
1, 446377, Control_c, 0, 64, 55
1, 446379, Note_on_c, 0, 59, 74
1, 446392, Control_c, 0, 64, 0
1, 446422, Control_c, 0, 64, 42
1, 446437, Control_c, 0, 64, 59
1, 446442, Note_off_c, 0, 86, 64
1, 446446, Note_off_c, 0, 83, 65
1, 446447, Note_off_c, 0, 67, 69
1, 446452, Control_c, 0, 64, 67
1, 446467, Control_c, 0, 64, 79
1, 446473, Note_off_c, 0, 62, 62
1, 446482, Control_c, 0, 64, 127
1, 446485, Note_off_c, 0, 59, 62
1, 446500, Note_off_c, 0, 55, 64
1, 446519, Note_on_c, 0, 82, 76
1, 446530, Note_off_c, 0, 79, 63
1, 446536, Note_on_c, 0, 85, 68
1, 446572, Note_off_c, 0, 82, 65
1, 446588, Note_off_c, 0, 85, 62
1, 446658, Note_on_c, 0, 41, 77
1, 446674, Note_on_c, 0, 29, 49
1, 446682, Note_on_c, 0, 86, 59
1, 446687, Note_on_c, 0, 83, 55
1, 446696, Note_on_c, 0, 81, 56
1, 446701, Note_off_c, 0, 41, 64
1, 446718, Note_off_c, 0, 29, 49
1, 446741, Note_off_c, 0, 91, 62
1, 446747, Note_off_c, 0, 81, 47
1, 446766, Note_off_c, 0, 86, 63
1, 446771, Note_off_c, 0, 83, 65
1, 446778, Note_on_c, 0, 79, 57
1, 446805, Note_off_c, 0, 79, 65
1, 446874, Control_c, 0, 64, 79
1, 446889, Control_c, 0, 64, 62
1, 446904, Control_c, 0, 64, 48
1, 446911, Note_on_c, 0, 63, 59
1, 446914, Note_on_c, 0, 51, 57
1, 446918, Control_c, 0, 64, 55
1, 446925, Note_on_c, 0, 72, 69
1, 446925, Note_on_c, 0, 84, 69
1, 446929, Note_on_c, 0, 79, 42
1, 446932, Note_on_c, 0, 55, 37
1, 446933, Control_c, 0, 64, 62
1, 446948, Control_c, 0, 64, 66
1, 446953, Note_off_c, 0, 79, 59
1, 446963, Control_c, 0, 64, 74
1, 446971, Note_off_c, 0, 55, 64
1, 446978, Control_c, 0, 64, 89
1, 446981, Note_off_c, 0, 51, 62
1, 446987, Note_off_c, 0, 63, 62
1, 446992, Control_c, 0, 64, 127
1, 447003, Poly_aftertouch_c, 0, 60, 0
1, 447034, Note_on_c, 0, 78, 77
1, 447048, Note_off_c, 0, 72, 54
1, 447087, Note_off_c, 0, 84, 63
1, 447109, Note_off_c, 0, 78, 63
1, 447111, Control_c, 0, 64, 95
1, 447126, Control_c, 0, 64, 69
1, 447141, Control_c, 0, 64, 56
1, 447155, Control_c, 0, 64, 61
1, 447158, Note_on_c, 0, 79, 92
1, 447161, Note_on_c, 0, 83, 85
1, 447162, Note_on_c, 0, 55, 82
1, 447163, Note_on_c, 0, 67, 93
1, 447164, Note_on_c, 0, 62, 78
1, 447164, Note_on_c, 0, 86, 85
1, 447170, Control_c, 0, 64, 69
1, 447179, Note_on_c, 0, 59, 69
1, 447186, Control_c, 0, 64, 82
1, 447201, Control_c, 0, 64, 127
1, 447210, Note_off_c, 0, 59, 64
1, 447214, Note_off_c, 0, 62, 64
1, 447215, Note_off_c, 0, 55, 63
1, 447235, Note_off_c, 0, 67, 61
1, 447267, Note_on_c, 0, 74, 82
1, 447275, Note_off_c, 0, 79, 62
1, 447287, Note_off_c, 0, 86, 63
1, 447303, Note_off_c, 0, 83, 60
1, 447344, Note_off_c, 0, 74, 62
1, 447379, Control_c, 0, 64, 105
1, 447394, Control_c, 0, 64, 68
1, 447403, Note_on_c, 0, 67, 70
1, 447404, Note_on_c, 0, 72, 100
1, 447408, Note_on_c, 0, 75, 102
1, 447408, Control_c, 0, 64, 36
1, 447409, Note_on_c, 0, 87, 94
1, 447415, Note_on_c, 0, 60, 83
1, 447418, Note_on_c, 0, 84, 78
1, 447420, Note_on_c, 0, 63, 71
1, 447423, Control_c, 0, 64, 50
1, 447426, Note_on_c, 0, 79, 51
1, 447438, Control_c, 0, 64, 66
1, 447447, Note_off_c, 0, 72, 68
1, 447447, Note_off_c, 0, 79, 60
1, 447448, Note_off_c, 0, 87, 69
1, 447453, Control_c, 0, 64, 88
1, 447459, Note_on_c, 0, 86, 80
1, 447462, Note_off_c, 0, 67, 64
1, 447468, Control_c, 0, 64, 127
1, 447486, Note_off_c, 0, 63, 62
1, 447488, Note_off_c, 0, 60, 65
1, 447508, Note_off_c, 0, 86, 57
1, 447524, Note_on_c, 0, 78, 83
1, 447539, Note_on_c, 0, 83, 50
1, 447549, Note_off_c, 0, 75, 59
1, 447558, Note_off_c, 0, 84, 38
1, 447594, Note_off_c, 0, 83, 41
1, 447602, Note_off_c, 0, 78, 66
1, 447644, Note_on_c, 0, 43, 88
1, 447645, Note_on_c, 0, 41, 84
1, 447646, Note_on_c, 0, 29, 79
1, 447650, Note_on_c, 0, 84, 88
1, 447652, Note_on_c, 0, 79, 84
1, 447671, Note_off_c, 0, 43, 69
1, 447680, Note_off_c, 0, 29, 62
1, 447697, Note_off_c, 0, 41, 63
1, 447746, Note_on_c, 0, 75, 83
1, 447748, Note_off_c, 0, 79, 64
1, 447767, Note_off_c, 0, 84, 62
1, 447790, Note_off_c, 0, 75, 62
1, 447876, Control_c, 0, 64, 75
1, 447890, Control_c, 0, 64, 44
1, 447894, Note_on_c, 0, 69, 100
1, 447894, Note_on_c, 0, 81, 101
1, 447894, Note_on_c, 0, 93, 106
1, 447898, Note_on_c, 0, 61, 82
1, 447898, Note_on_c, 0, 64, 81
1, 447901, Note_on_c, 0, 57, 80
1, 447901, Note_on_c, 0, 88, 87
1, 447903, Note_on_c, 0, 85, 86
1, 447905, Control_c, 0, 64, 0
1, 447920, Control_c, 0, 64, 37
1, 447929, Note_on_c, 0, 90, 42
1, 447934, Control_c, 0, 64, 58
1, 447941, Note_off_c, 0, 69, 69
1, 447949, Control_c, 0, 64, 68
1, 447956, Note_off_c, 0, 90, 37
1, 447964, Control_c, 0, 64, 83
1, 447966, Note_off_c, 0, 64, 64
1, 447980, Control_c, 0, 64, 127
1, 447991, Note_off_c, 0, 61, 63
1, 447996, Note_off_c, 0, 57, 65
1, 448026, Note_on_c, 0, 84, 76
1, 448054, Note_off_c, 0, 81, 61
1, 448060, Note_off_c, 0, 88, 62
1, 448082, Note_off_c, 0, 84, 64
1, 448082, Note_off_c, 0, 85, 64
1, 448146, Note_on_c, 0, 40, 98
1, 448154, Note_on_c, 0, 85, 87
1, 448163, Note_on_c, 0, 28, 65
1, 448163, Note_on_c, 0, 88, 83
1, 448168, Note_on_c, 0, 29, 65
1, 448195, Note_off_c, 0, 28, 59
1, 448201, Note_off_c, 0, 29, 61
1, 448209, Note_off_c, 0, 40, 64
1, 448255, Note_off_c, 0, 93, 62
1, 448262, Note_on_c, 0, 81, 75
1, 448282, Note_off_c, 0, 88, 64
1, 448283, Note_off_c, 0, 85, 62
1, 448315, Note_off_c, 0, 81, 64
1, 448402, Control_c, 0, 64, 77
1, 448404, Note_on_c, 0, 61, 72
1, 448404, Note_on_c, 0, 86, 93
1, 448406, Note_on_c, 0, 74, 92
1, 448417, Control_c, 0, 64, 55
1, 448419, Note_on_c, 0, 65, 72
1, 448424, Note_on_c, 0, 64, 64
1, 448431, Note_on_c, 0, 60, 50
1, 448431, Note_on_c, 0, 77, 40
1, 448431, Control_c, 0, 64, 0
1, 448434, Note_on_c, 0, 52, 28
1, 448442, Note_on_c, 0, 53, 40
1, 448446, Control_c, 0, 64, 35
1, 448456, Note_off_c, 0, 60, 35
1, 448457, Note_off_c, 0, 77, 35
1, 448461, Control_c, 0, 64, 53
1, 448466, Note_off_c, 0, 64, 60
1, 448469, Note_off_c, 0, 52, 47
1, 448473, Note_off_c, 0, 65, 58
1, 448473, Note_off_c, 0, 61, 62
1, 448476, Control_c, 0, 64, 61
1, 448479, Note_off_c, 0, 53, 61
1, 448491, Control_c, 0, 64, 66
1, 448506, Control_c, 0, 64, 73
1, 448521, Control_c, 0, 64, 93
1, 448528, Note_on_c, 0, 80, 81
1, 448536, Control_c, 0, 64, 127
1, 448551, Note_off_c, 0, 74, 55
1, 448584, Note_off_c, 0, 86, 62
1, 448627, Note_off_c, 0, 80, 63
1, 448639, Control_c, 0, 64, 102
1, 448654, Control_c, 0, 64, 70
1, 448669, Control_c, 0, 64, 56
1, 448676, Note_on_c, 0, 85, 94
1, 448676, Note_on_c, 0, 81, 91
1, 448677, Note_on_c, 0, 64, 72
1, 448678, Note_on_c, 0, 69, 87
1, 448679, Note_on_c, 0, 88, 88
1, 448682, Note_on_c, 0, 57, 60
1, 448684, Control_c, 0, 64, 58
1, 448686, Note_on_c, 0, 61, 72
1, 448699, Control_c, 0, 64, 68
1, 448703, Note_off_c, 0, 57, 63
1, 448713, Control_c, 0, 64, 83
1, 448717, Note_off_c, 0, 61, 63
1, 448719, Note_off_c, 0, 64, 62
1, 448720, Note_off_c, 0, 69, 63
1, 448728, Control_c, 0, 64, 127
1, 448787, Note_off_c, 0, 81, 57
1, 448795, Note_off_c, 0, 88, 50
1, 448807, Note_on_c, 0, 76, 74
1, 448849, Note_off_c, 0, 85, 62
1, 448882, Note_off_c, 0, 76, 59
1, 448922, Control_c, 0, 64, 99
1, 448936, Control_c, 0, 64, 67
1, 448951, Control_c, 0, 64, 40
1, 448961, Note_on_c, 0, 69, 81
1, 448961, Note_on_c, 0, 74, 94
1, 448962, Note_on_c, 0, 81, 95
1, 448965, Note_on_c, 0, 89, 95
1, 448966, Note_on_c, 0, 86, 86
1, 448966, Control_c, 0, 64, 44
1, 448969, Note_on_c, 0, 62, 75
1, 448969, Note_on_c, 0, 65, 72
1, 448988, Control_c, 0, 64, 62
1, 449000, Note_off_c, 0, 74, 64
1, 449003, Control_c, 0, 64, 77
1, 449018, Control_c, 0, 64, 127
1, 449042, Note_off_c, 0, 69, 65
1, 449054, Note_off_c, 0, 89, 63
1, 449057, Note_off_c, 0, 65, 64
1, 449066, Note_off_c, 0, 62, 64
1, 449075, Note_off_c, 0, 81, 66
1, 449076, Note_off_c, 0, 86, 60
1, 449092, Note_on_c, 0, 77, 69
1, 449128, Note_off_c, 0, 77, 64
1, 449237, Note_on_c, 0, 41, 74
1, 449248, Note_on_c, 0, 77, 71
1, 449256, Note_on_c, 0, 69, 66
1, 449258, Note_on_c, 0, 74, 58
1, 449319, Note_off_c, 0, 41, 63
1, 449336, Note_off_c, 0, 74, 54
1, 449338, Note_off_c, 0, 69, 63
1, 449355, Note_off_c, 0, 77, 63
1, 449363, Note_on_c, 0, 65, 26
1, 449392, Poly_aftertouch_c, 0, 29, 127
1, 449403, Note_off_c, 0, 65, 46
1, 449435, Poly_aftertouch_c, 0, 29, 0
1, 449505, Control_c, 0, 64, 89
1, 449520, Control_c, 0, 64, 65
1, 449528, Note_on_c, 0, 63, 72
1, 449528, Note_on_c, 0, 89, 88
1, 449531, Note_on_c, 0, 81, 79
1, 449532, Note_on_c, 0, 84, 79
1, 449534, Control_c, 0, 64, 40
1, 449541, Note_on_c, 0, 53, 51
1, 449542, Note_on_c, 0, 57, 51
1, 449549, Control_c, 0, 64, 37
1, 449564, Control_c, 0, 64, 57
1, 449580, Control_c, 0, 64, 66
1, 449595, Control_c, 0, 64, 78
1, 449609, Control_c, 0, 64, 127
1, 449618, Note_off_c, 0, 63, 62
1, 449627, Note_off_c, 0, 57, 60
1, 449640, Note_off_c, 0, 89, 62
1, 449649, Note_on_c, 0, 51, 71
1, 449654, Note_off_c, 0, 53, 62
1, 449654, Note_off_c, 0, 81, 65
1, 449657, Note_off_c, 0, 84, 60
1, 449669, Note_on_c, 0, 77, 72
1, 449674, Note_off_c, 0, 51, 66
1, 449712, Note_off_c, 0, 77, 60
1, 449794, Note_on_c, 0, 39, 90
1, 449802, Note_on_c, 0, 69, 83
1, 449803, Note_on_c, 0, 77, 87
1, 449809, Note_on_c, 0, 72, 69
1, 449823, Note_on_c, 0, 40, 53
1, 449832, Note_on_c, 0, 41, 33
1, 449844, Note_off_c, 0, 72, 60
1, 449854, Note_off_c, 0, 69, 62
1, 449858, Note_off_c, 0, 40, 58
1, 449871, Note_off_c, 0, 41, 49
1, 449875, Note_off_c, 0, 39, 62
1, 449880, Note_off_c, 0, 77, 60
1, 449916, Note_on_c, 0, 27, 32
1, 449917, Note_off_c, 0, 27, 127
1, 449960, Poly_aftertouch_c, 0, 27, 0
1, 450091, Control_c, 0, 64, 96
1, 450094, Note_on_c, 0, 89, 91
1, 450095, Note_on_c, 0, 94, 103
1, 450095, Note_on_c, 0, 62, 88
1, 450096, Note_on_c, 0, 58, 86
1, 450099, Note_on_c, 0, 92, 91
1, 450106, Control_c, 0, 64, 65
1, 450108, Note_on_c, 0, 53, 70
1, 450121, Control_c, 0, 64, 0
1, 450150, Control_c, 0, 64, 48
1, 450165, Control_c, 0, 64, 63
1, 450180, Control_c, 0, 64, 74
1, 450193, Note_off_c, 0, 62, 63
1, 450195, Control_c, 0, 64, 109
1, 450203, Note_off_c, 0, 94, 63
1, 450209, Control_c, 0, 64, 127
1, 450210, Note_off_c, 0, 58, 63
1, 450214, Note_off_c, 0, 89, 61
1, 450214, Note_on_c, 0, 50, 66
1, 450226, Note_on_c, 0, 82, 82
1, 450226, Note_off_c, 0, 53, 63
1, 450231, Note_off_c, 0, 92, 63
1, 450244, Note_off_c, 0, 50, 65
1, 450253, Note_off_c, 0, 82, 64
1, 450358, Note_on_c, 0, 38, 96
1, 450373, Note_on_c, 0, 82, 76
1, 450381, Note_on_c, 0, 77, 72
1, 450391, Note_on_c, 0, 80, 72
1, 450435, Note_off_c, 0, 77, 57
1, 450457, Note_off_c, 0, 38, 60
1, 450483, Note_on_c, 0, 26, 72
1, 450487, Note_off_c, 0, 82, 64
1, 450492, Note_off_c, 0, 80, 65
1, 450509, Note_off_c, 0, 26, 60
1, 450692, Note_on_c, 0, 96, 99
1, 450692, Control_c, 0, 64, 115
1, 450694, Note_on_c, 0, 63, 85
1, 450695, Note_on_c, 0, 67, 90
1, 450697, Note_on_c, 0, 91, 93
1, 450697, Note_on_c, 0, 99, 103
1, 450699, Note_on_c, 0, 60, 69
1, 450706, Control_c, 0, 64, 70
1, 450721, Control_c, 0, 64, 35
1, 450736, Control_c, 0, 64, 0
1, 450766, Control_c, 0, 64, 48
1, 450780, Control_c, 0, 64, 65
1, 450786, Note_off_c, 0, 67, 64
1, 450795, Control_c, 0, 64, 79
1, 450802, Note_off_c, 0, 99, 65
1, 450810, Note_off_c, 0, 63, 62
1, 450810, Control_c, 0, 64, 127
1, 450813, Note_on_c, 0, 55, 74
1, 450814, Note_off_c, 0, 60, 64
1, 450831, Note_off_c, 0, 96, 63
1, 450833, Note_on_c, 0, 87, 80
1, 450834, Note_off_c, 0, 91, 63
1, 450847, Note_off_c, 0, 55, 65
1, 450882, Note_off_c, 0, 87, 63
1, 450977, Note_on_c, 0, 39, 103
1, 450982, Note_on_c, 0, 87, 92
1, 450988, Note_on_c, 0, 79, 85
1, 451093, Note_off_c, 0, 39, 65
1, 451095, Note_on_c, 0, 75, 69
1, 451099, Note_off_c, 0, 79, 62
1, 451100, Note_on_c, 0, 27, 74
1, 451119, Note_off_c, 0, 75, 68
1, 451126, Note_off_c, 0, 27, 63
1, 451141, Note_off_c, 0, 87, 63
1, 451291, Note_on_c, 0, 89, 105
1, 451293, Note_on_c, 0, 98, 104
1, 451293, Control_c, 0, 64, 72
1, 451295, Note_on_c, 0, 65, 93
1, 451296, Note_on_c, 0, 59, 84
1, 451296, Note_on_c, 0, 91, 97
1, 451300, Note_on_c, 0, 55, 78
1, 451308, Control_c, 0, 64, 41
1, 451323, Control_c, 0, 64, 0
1, 451337, Control_c, 0, 64, 26
1, 451352, Control_c, 0, 64, 56
1, 451367, Control_c, 0, 64, 67
1, 451382, Control_c, 0, 64, 84
1, 451397, Control_c, 0, 64, 127
1, 451407, Note_off_c, 0, 98, 66
1, 451412, Note_off_c, 0, 65, 60
1, 451430, Note_off_c, 0, 59, 65
1, 451433, Note_on_c, 0, 53, 82
1, 451435, Note_off_c, 0, 55, 63
1, 451437, Note_on_c, 0, 86, 85
1, 451442, Note_off_c, 0, 89, 62
1, 451444, Note_off_c, 0, 91, 63
1, 451460, Note_off_c, 0, 53, 68
1, 451486, Note_off_c, 0, 86, 63
1, 451589, Note_on_c, 0, 39, 101
1, 451595, Note_on_c, 0, 86, 87
1, 451606, Note_on_c, 0, 77, 80
1, 451607, Note_on_c, 0, 79, 73
1, 451729, Note_off_c, 0, 79, 62
1, 451730, Note_off_c, 0, 39, 61
1, 451739, Note_off_c, 0, 77, 63
1, 451746, Note_on_c, 0, 74, 64
1, 451747, Note_on_c, 0, 27, 71
1, 451760, Note_off_c, 0, 86, 59
1, 451764, Note_off_c, 0, 74, 65
1, 451778, Note_off_c, 0, 27, 55
1, 451945, Note_on_c, 0, 96, 105
1, 451945, Control_c, 0, 64, 93
1, 451949, Note_on_c, 0, 63, 93
1, 451950, Note_on_c, 0, 87, 96
1, 451955, Note_on_c, 0, 91, 88
1, 451955, Note_on_c, 0, 55, 65
1, 451955, Note_on_c, 0, 60, 74
1, 451960, Control_c, 0, 64, 64
1, 451983, Control_c, 0, 64, 0
1, 451990, Note_on_c, 0, 90, 39
1, 451991, Note_off_c, 0, 90, 127
1, 452027, Control_c, 0, 64, 35
1, 452042, Control_c, 0, 64, 60
1, 452057, Control_c, 0, 64, 72
1, 452072, Control_c, 0, 64, 127
1, 452103, Note_off_c, 0, 63, 60
1, 452127, Note_off_c, 0, 60, 61
1, 452133, Note_off_c, 0, 96, 63
1, 452151, Note_off_c, 0, 91, 64
1, 452151, Note_on_c, 0, 51, 66
1, 452156, Note_on_c, 0, 84, 90
1, 452161, Note_off_c, 0, 55, 54
1, 452164, Note_off_c, 0, 87, 63
1, 452197, Note_off_c, 0, 84, 65
1, 452206, Note_off_c, 0, 51, 63
1, 452380, Note_on_c, 0, 84, 89
1, 452381, Note_on_c, 0, 75, 89
1, 452381, Note_on_c, 0, 39, 97
1, 452389, Note_on_c, 0, 79, 79
1, 452632, Note_off_c, 0, 79, 58
1, 452643, Note_on_c, 0, 27, 82
1, 452652, Note_on_c, 0, 72, 99
1, 452663, Note_off_c, 0, 39, 61
1, 452674, Note_off_c, 0, 27, 67
1, 452679, Note_off_c, 0, 75, 61
1, 452683, Note_off_c, 0, 84, 64
1, 452691, Note_off_c, 0, 72, 67
1, 453040, Note_on_c, 0, 62, 95
1, 453041, Note_on_c, 0, 50, 85
1, 453041, Note_on_c, 0, 89, 98
1, 453042, Note_on_c, 0, 58, 89
1, 453042, Note_on_c, 0, 101, 102
1, 453042, Control_c, 0, 64, 107
1, 453046, Note_on_c, 0, 53, 81
1, 453046, Note_on_c, 0, 98, 89
1, 453057, Control_c, 0, 64, 69
1, 453072, Control_c, 0, 64, 24
1, 453087, Control_c, 0, 64, 0
1, 453146, Control_c, 0, 64, 53
1, 453149, Note_off_c, 0, 62, 62
1, 453161, Control_c, 0, 64, 69
1, 453167, Note_off_c, 0, 50, 63
1, 453175, Control_c, 0, 64, 105
1, 453188, Note_off_c, 0, 53, 61
1, 453190, Control_c, 0, 64, 127
1, 453193, Note_off_c, 0, 58, 62
1, 453363, Note_on_c, 0, 94, 70
1, 453402, Note_off_c, 0, 89, 52
1, 453536, Note_off_c, 0, 94, 61
1, 453569, Note_off_c, 0, 98, 0
1, 453576, Note_on_c, 0, 89, 74
1, 453578, Note_on_c, 0, 41, 93
1, 453583, Note_on_c, 0, 29, 78
1, 453607, Poly_aftertouch_c, 0, 98, 127
1, 453634, Note_off_c, 0, 89, 62
1, 453636, Poly_aftertouch_c, 0, 98, 0
1, 453640, Note_off_c, 0, 101, 44
1, 453660, Note_off_c, 0, 29, 58
1, 453700, Note_off_c, 0, 41, 62
1, 453731, Note_on_c, 0, 97, 78
1, 453733, Note_on_c, 0, 88, 75
1, 453747, Note_on_c, 0, 100, 62
1, 453758, Note_off_c, 0, 88, 69
1, 453774, Note_off_c, 0, 100, 65
1, 453785, Note_off_c, 0, 97, 64
1, 453881, Note_on_c, 0, 99, 84
1, 453882, Note_on_c, 0, 34, 79
1, 453882, Note_on_c, 0, 46, 77
1, 453883, Note_on_c, 0, 87, 85
1, 453892, Note_on_c, 0, 96, 73
1, 453913, Note_off_c, 0, 46, 66
1, 453918, Note_off_c, 0, 34, 63
1, 453993, Note_off_c, 0, 87, 63
1, 454002, Note_on_c, 0, 89, 74
1, 454023, Note_off_c, 0, 99, 59
1, 454083, Note_off_c, 0, 96, 57
1, 454095, Note_on_c, 0, 53, 79
1, 454100, Note_off_c, 0, 89, 62
1, 454101, Note_on_c, 0, 41, 65
1, 454106, Note_on_c, 0, 87, 65
1, 454119, Note_off_c, 0, 41, 66
1, 454121, Note_off_c, 0, 53, 69
1, 454140, Note_off_c, 0, 87, 64
1, 454180, Note_on_c, 0, 98, 84
1, 454206, Note_off_c, 0, 98, 69
1, 454212, Note_on_c, 0, 86, 19
1, 454264, Note_off_c, 0, 86, 37
1, 454286, Note_on_c, 0, 84, 95
1, 454286, Note_on_c, 0, 96, 95
1, 454291, Note_on_c, 0, 58, 83
1, 454294, Note_on_c, 0, 46, 75
1, 454316, Note_off_c, 0, 58, 68
1, 454318, Note_off_c, 0, 46, 70
1, 454338, Note_off_c, 0, 96, 58
1, 454387, Note_on_c, 0, 86, 78
1, 454389, Note_off_c, 0, 84, 65
1, 454491, Note_on_c, 0, 62, 88
1, 454491, Note_on_c, 0, 82, 89
1, 454496, Note_off_c, 0, 86, 64
1, 454497, Note_on_c, 0, 50, 77
1, 454523, Note_off_c, 0, 50, 67
1, 454523, Note_off_c, 0, 62, 62
1, 454569, Note_on_c, 0, 94, 101
1, 454587, Note_off_c, 0, 82, 62
1, 454614, Note_off_c, 0, 94, 65
1, 454643, Control_c, 0, 64, 104
1, 454658, Control_c, 0, 64, 68
1, 454673, Note_on_c, 0, 93, 102
1, 454673, Control_c, 0, 64, 35
1, 454674, Note_on_c, 0, 58, 81
1, 454676, Note_on_c, 0, 63, 84
1, 454676, Note_on_c, 0, 81, 95
1, 454678, Note_on_c, 0, 51, 77
1, 454686, Note_on_c, 0, 87, 81
1, 454688, Control_c, 0, 64, 0
1, 454703, Control_c, 0, 64, 39
1, 454718, Control_c, 0, 64, 56
1, 454733, Control_c, 0, 64, 64
1, 454748, Control_c, 0, 64, 70
1, 454763, Control_c, 0, 64, 83
1, 454777, Note_off_c, 0, 51, 59
1, 454778, Control_c, 0, 64, 127
1, 454780, Note_on_c, 0, 85, 87
1, 454793, Note_off_c, 0, 81, 64
1, 454800, Note_off_c, 0, 63, 58
1, 454800, Note_off_c, 0, 93, 58
1, 454843, Note_off_c, 0, 87, 63
1, 454877, Note_on_c, 0, 64, 96
1, 454880, Note_on_c, 0, 52, 81
1, 454886, Note_on_c, 0, 79, 80
1, 454889, Note_off_c, 0, 85, 66
1, 454909, Note_off_c, 0, 58, 58
1, 454932, Note_off_c, 0, 52, 65
1, 454954, Note_off_c, 0, 64, 57
1, 454973, Note_on_c, 0, 91, 91
1, 455003, Note_off_c, 0, 79, 64
1, 455019, Note_off_c, 0, 91, 65
1, 455052, Control_c, 0, 64, 94
1, 455067, Control_c, 0, 64, 64
1, 455081, Control_c, 0, 64, 33
1, 455086, Note_on_c, 0, 65, 79
1, 455092, Note_on_c, 0, 77, 96
1, 455093, Note_on_c, 0, 53, 70
1, 455094, Note_on_c, 0, 89, 90
1, 455096, Control_c, 0, 64, 36
1, 455100, Note_on_c, 0, 58, 59
1, 455100, Note_on_c, 0, 62, 57
1, 455106, Note_on_c, 0, 86, 74
1, 455111, Control_c, 0, 64, 54
1, 455111, Note_off_c, 0, 65, 65
1, 455123, Note_off_c, 0, 62, 61
1, 455126, Control_c, 0, 64, 63
1, 455138, Note_off_c, 0, 58, 65
1, 455141, Control_c, 0, 64, 69
1, 455155, Control_c, 0, 64, 85
1, 455157, Note_off_c, 0, 53, 64
1, 455170, Control_c, 0, 64, 127
1, 455191, Note_on_c, 0, 82, 84
1, 455192, Note_off_c, 0, 77, 62
1, 455295, Note_on_c, 0, 77, 83
1, 455296, Note_on_c, 0, 41, 77
1, 455296, Note_off_c, 0, 82, 54
1, 455302, Note_on_c, 0, 29, 65
1, 455319, Note_off_c, 0, 86, 63
1, 455320, Note_off_c, 0, 89, 61
1, 455320, Note_off_c, 0, 41, 67
1, 455323, Note_off_c, 0, 77, 62
1, 455339, Note_off_c, 0, 29, 53
1, 455387, Note_on_c, 0, 76, 77
1, 455390, Note_on_c, 0, 85, 73
1, 455393, Note_on_c, 0, 88, 70
1, 455408, Note_off_c, 0, 88, 67
1, 455412, Note_off_c, 0, 76, 70
1, 455415, Note_off_c, 0, 85, 71
1, 455483, Note_on_c, 0, 46, 73
1, 455484, Note_on_c, 0, 87, 82
1, 455485, Note_on_c, 0, 75, 87
1, 455488, Note_on_c, 0, 34, 66
1, 455499, Note_on_c, 0, 84, 72
1, 455536, Note_off_c, 0, 46, 61
1, 455540, Note_off_c, 0, 34, 61
1, 455592, Note_off_c, 0, 75, 62
1, 455593, Note_on_c, 0, 77, 71
1, 455639, Note_off_c, 0, 87, 49
1, 455680, Note_on_c, 0, 53, 82
1, 455687, Note_on_c, 0, 75, 73
1, 455687, Note_on_c, 0, 41, 68
1, 455690, Note_off_c, 0, 84, 60
1, 455696, Note_off_c, 0, 77, 63
1, 455708, Note_off_c, 0, 53, 66
1, 455716, Note_off_c, 0, 41, 64
1, 455737, Note_off_c, 0, 75, 61
1, 455778, Note_on_c, 0, 86, 70
1, 455784, Note_on_c, 0, 82, 54
1, 455784, Note_on_c, 0, 88, 69
1, 455785, Note_on_c, 0, 74, 48
1, 455800, Note_off_c, 0, 88, 66
1, 455804, Note_off_c, 0, 82, 61
1, 455805, Note_off_c, 0, 86, 68
1, 455806, Note_on_c, 0, 76, 28
1, 455807, Note_off_c, 0, 74, 61
1, 455836, Note_off_c, 0, 76, 44
1, 455873, Note_on_c, 0, 72, 93
1, 455873, Note_on_c, 0, 84, 92
1, 455875, Note_on_c, 0, 58, 76
1, 455878, Note_on_c, 0, 46, 71
1, 455901, Note_off_c, 0, 58, 68
1, 455911, Note_off_c, 0, 46, 64
1, 455950, Note_off_c, 0, 84, 59
1, 455961, Note_on_c, 0, 75, 71
1, 455975, Note_off_c, 0, 72, 61
1, 455977, Note_off_c, 0, 75, 65
1, 455982, Note_on_c, 0, 74, 83
1, 456073, Note_on_c, 0, 62, 86
1, 456080, Note_on_c, 0, 70, 86
1, 456085, Note_off_c, 0, 74, 62
1, 456090, Note_on_c, 0, 50, 53
1, 456101, Note_off_c, 0, 62, 65
1, 456118, Note_off_c, 0, 50, 55
1, 456147, Note_on_c, 0, 82, 89
1, 456162, Note_off_c, 0, 70, 63
1, 456192, Note_off_c, 0, 82, 67
1, 456246, Control_c, 0, 64, 92
1, 456257, Note_on_c, 0, 58, 63
1, 456257, Note_on_c, 0, 63, 68
1, 456261, Control_c, 0, 64, 67
1, 456262, Note_on_c, 0, 81, 82
1, 456264, Note_on_c, 0, 51, 60
1, 456269, Note_on_c, 0, 69, 77
1, 456274, Note_on_c, 0, 75, 73
1, 456276, Control_c, 0, 64, 36
1, 456291, Control_c, 0, 64, 19
1, 456306, Control_c, 0, 64, 39
1, 456320, Control_c, 0, 64, 53
1, 456335, Control_c, 0, 64, 61
1, 456350, Control_c, 0, 64, 66
1, 456358, Note_off_c, 0, 69, 55
1, 456365, Control_c, 0, 64, 75
1, 456366, Note_on_c, 0, 73, 76
1, 456371, Note_off_c, 0, 63, 62
1, 456377, Note_off_c, 0, 51, 62
1, 456380, Control_c, 0, 64, 91
1, 456394, Control_c, 0, 64, 127
1, 456402, Note_off_c, 0, 81, 56
1, 456429, Note_off_c, 0, 75, 58
1, 456442, Note_on_c, 0, 52, 67
1, 456451, Note_on_c, 0, 64, 68
1, 456462, Note_off_c, 0, 58, 58
1, 456474, Note_on_c, 0, 67, 64
1, 456480, Note_off_c, 0, 73, 60
1, 456504, Note_off_c, 0, 52, 62
1, 456504, Note_off_c, 0, 64, 60
1, 456532, Note_on_c, 0, 79, 74
1, 456556, Note_off_c, 0, 67, 61
1, 456574, Note_off_c, 0, 79, 61
1, 456624, Control_c, 0, 64, 123
1, 456639, Control_c, 0, 64, 73
1, 456653, Note_on_c, 0, 58, 29
1, 456653, Control_c, 0, 64, 56
1, 456659, Note_on_c, 0, 53, 49
1, 456665, Note_on_c, 0, 62, 43
1, 456668, Note_on_c, 0, 77, 73
1, 456668, Control_c, 0, 64, 38
1, 456675, Note_on_c, 0, 65, 56
1, 456683, Control_c, 0, 64, 50
1, 456690, Note_on_c, 0, 74, 52
1, 456698, Control_c, 0, 64, 61
1, 456700, Note_off_c, 0, 62, 63
1, 456713, Control_c, 0, 64, 66
1, 456719, Note_off_c, 0, 58, 63
1, 456727, Note_off_c, 0, 53, 64
1, 456727, Control_c, 0, 64, 73
1, 456742, Control_c, 0, 64, 90
1, 456748, Note_off_c, 0, 65, 51
1, 456757, Control_c, 0, 64, 127
1, 456763, Note_on_c, 0, 70, 59
1, 456868, Note_off_c, 0, 70, 54
1, 456876, Note_on_c, 0, 65, 57
1, 456884, Note_on_c, 0, 41, 46
1, 456886, Note_on_c, 0, 29, 40
1, 456894, Note_off_c, 0, 77, 60
1, 456897, Note_off_c, 0, 74, 62
1, 456906, Note_off_c, 0, 65, 66
1, 456917, Note_off_c, 0, 41, 53
1, 456933, Note_off_c, 0, 29, 51
1, 456967, Note_on_c, 0, 73, 72
1, 456972, Note_on_c, 0, 76, 61
1, 456978, Note_on_c, 0, 64, 55
1, 456989, Note_off_c, 0, 76, 64
1, 456993, Note_off_c, 0, 73, 68
1, 457000, Note_off_c, 0, 64, 61
1, 457060, Note_on_c, 0, 34, 59
1, 457061, Note_on_c, 0, 46, 61
1, 457073, Note_on_c, 0, 75, 80
1, 457083, Note_on_c, 0, 63, 70
1, 457107, Note_on_c, 0, 72, 61
1, 457123, Note_off_c, 0, 46, 60
1, 457124, Note_off_c, 0, 34, 60
1, 457174, Note_off_c, 0, 63, 59
1, 457188, Note_on_c, 0, 65, 63
1, 457267, Poly_aftertouch_c, 0, 66, 127
1, 457287, Note_off_c, 0, 75, 58
1, 457288, Note_on_c, 0, 53, 77
1, 457291, Note_on_c, 0, 63, 56
1, 457294, Poly_aftertouch_c, 0, 66, 0
1, 457297, Note_on_c, 0, 41, 61
1, 457299, Note_on_c, 0, 70, 51
1, 457317, Note_off_c, 0, 53, 66
1, 457318, Note_off_c, 0, 72, 62
1, 457321, Note_off_c, 0, 41, 61
1, 457326, Note_off_c, 0, 63, 64
1, 457334, Note_off_c, 0, 65, 61
1, 457372, Note_on_c, 0, 74, 91
1, 457373, Note_on_c, 0, 62, 76
1, 457388, Note_off_c, 0, 70, 57
1, 457407, Note_off_c, 0, 62, 64
1, 457438, Note_off_c, 0, 74, 65
1, 457475, Control_c, 0, 64, 97
1, 457490, Control_c, 0, 64, 69
1, 457499, Note_on_c, 0, 59, 80
1, 457505, Note_on_c, 0, 55, 63
1, 457505, Control_c, 0, 64, 52
1, 457508, Note_on_c, 0, 77, 103
1, 457514, Note_on_c, 0, 65, 93
1, 457516, Note_on_c, 0, 47, 62
1, 457516, Note_on_c, 0, 50, 55
1, 457520, Control_c, 0, 64, 46
1, 457527, Note_on_c, 0, 74, 74
1, 457535, Control_c, 0, 64, 58
1, 457550, Control_c, 0, 64, 66
1, 457565, Control_c, 0, 64, 81
1, 457566, Note_off_c, 0, 59, 63
1, 457570, Note_off_c, 0, 55, 64
1, 457580, Control_c, 0, 64, 127
1, 457593, Note_off_c, 0, 50, 62
1, 457606, Note_off_c, 0, 47, 63
1, 457636, Note_on_c, 0, 71, 82
1, 457655, Note_off_c, 0, 65, 58
1, 457734, Note_on_c, 0, 41, 87
1, 457743, Note_on_c, 0, 29, 74
1, 457745, Note_off_c, 0, 71, 61
1, 457746, Note_on_c, 0, 65, 79
1, 457762, Note_off_c, 0, 74, 62
1, 457762, Note_off_c, 0, 77, 61
1, 457765, Note_off_c, 0, 41, 67
1, 457773, Note_off_c, 0, 65, 62
1, 457775, Note_off_c, 0, 29, 62
1, 457829, Note_on_c, 0, 76, 90
1, 457836, Note_on_c, 0, 64, 80
1, 457837, Note_on_c, 0, 73, 81
1, 457858, Note_off_c, 0, 64, 71
1, 457861, Note_off_c, 0, 76, 57
1, 457863, Note_off_c, 0, 73, 65
1, 457935, Note_on_c, 0, 75, 93
1, 457937, Note_on_c, 0, 63, 91
1, 457958, Note_on_c, 0, 48, 79
1, 457967, Note_on_c, 0, 47, 77
1, 457970, Note_on_c, 0, 35, 68
1, 457979, Note_on_c, 0, 72, 59
1, 457995, Note_off_c, 0, 48, 66
1, 457999, Note_off_c, 0, 47, 64
1, 458001, Note_off_c, 0, 35, 60
1, 458070, Note_on_c, 0, 65, 68
1, 458141, Poly_aftertouch_c, 0, 66, 127
1, 458145, Note_on_c, 0, 70, 51
1, 458149, Note_off_c, 0, 63, 55
1, 458164, Note_off_c, 0, 75, 58
1, 458174, Note_off_c, 0, 72, 61
1, 458197, Note_on_c, 0, 62, 71
1, 458206, Note_on_c, 0, 53, 101
1, 458215, Note_on_c, 0, 41, 80
1, 458220, Note_off_c, 0, 65, 60
1, 458221, Note_off_c, 0, 70, 59
1, 458238, Note_off_c, 0, 41, 67
1, 458259, Note_off_c, 0, 53, 62
1, 458259, Poly_aftertouch_c, 0, 66, 0
1, 458296, Poly_aftertouch_c, 0, 43, 127
1, 458320, Note_on_c, 0, 72, 78
1, 458321, Note_on_c, 0, 74, 84
1, 458335, Poly_aftertouch_c, 0, 43, 0
1, 458351, Note_off_c, 0, 62, 54
1, 458391, Note_off_c, 0, 72, 62
1, 458392, Note_off_c, 0, 74, 62
1, 458462, Control_c, 0, 64, 73
1, 458477, Control_c, 0, 64, 41
1, 458485, Note_on_c, 0, 54, 104
1, 458489, Note_on_c, 0, 51, 84
1, 458492, Note_on_c, 0, 46, 67
1, 458492, Control_c, 0, 64, 0
1, 458494, Note_on_c, 0, 42, 82
1, 458503, Note_on_c, 0, 78, 91
1, 458504, Note_on_c, 0, 66, 90
1, 458517, Note_on_c, 0, 75, 69
1, 458522, Control_c, 0, 64, 30
1, 458537, Control_c, 0, 64, 58
1, 458551, Control_c, 0, 64, 69
1, 458566, Control_c, 0, 64, 91
1, 458572, Note_off_c, 0, 51, 64
1, 458581, Control_c, 0, 64, 127
1, 458586, Note_off_c, 0, 54, 64
1, 458588, Note_off_c, 0, 46, 62
1, 458620, Note_off_c, 0, 42, 63
1, 458673, Note_on_c, 0, 70, 64
1, 458685, Note_off_c, 0, 78, 56
1, 458728, Note_off_c, 0, 75, 56
1, 458737, Note_off_c, 0, 66, 53
1, 458796, Note_on_c, 0, 39, 90
1, 458804, Note_on_c, 0, 27, 72
1, 458826, Note_off_c, 0, 39, 64
1, 458835, Note_off_c, 0, 70, 62
1, 458838, Note_on_c, 0, 65, 70
1, 458838, Note_off_c, 0, 27, 63
1, 458941, Note_on_c, 0, 77, 105
1, 458992, Note_off_c, 0, 65, 63
1, 459017, Note_off_c, 0, 77, 59
1, 459078, Control_c, 0, 64, 81
1, 459091, Note_on_c, 0, 61, 102
1, 459093, Control_c, 0, 64, 60
1, 459100, Note_on_c, 0, 54, 67
1, 459101, Note_on_c, 0, 49, 78
1, 459104, Note_on_c, 0, 58, 73
1, 459108, Control_c, 0, 64, 15
1, 459109, Note_on_c, 0, 76, 95
1, 459112, Note_on_c, 0, 64, 91
1, 459122, Control_c, 0, 64, 20
1, 459137, Control_c, 0, 64, 48
1, 459148, Note_on_c, 0, 51, 23
1, 459152, Control_c, 0, 64, 63
1, 459168, Control_c, 0, 64, 70
1, 459174, Note_off_c, 0, 58, 59
1, 459179, Note_off_c, 0, 61, 66
1, 459183, Control_c, 0, 64, 87
1, 459191, Note_off_c, 0, 54, 57
1, 459197, Note_off_c, 0, 51, 46
1, 459198, Control_c, 0, 64, 127
1, 459198, Note_off_c, 0, 49, 57
1, 459227, Note_on_c, 0, 70, 82
1, 459236, Note_off_c, 0, 76, 61
1, 459265, Note_off_c, 0, 64, 60
1, 459338, Note_on_c, 0, 66, 88
1, 459381, Note_off_c, 0, 70, 61
1, 459452, Note_on_c, 0, 44, 84
1, 459461, Note_on_c, 0, 32, 57
1, 459470, Note_on_c, 0, 63, 91
1, 459471, Note_on_c, 0, 75, 93
1, 459484, Note_off_c, 0, 66, 53
1, 459493, Note_off_c, 0, 44, 64
1, 459497, Note_on_c, 0, 73, 55
1, 459498, Note_off_c, 0, 73, 127
1, 459502, Note_off_c, 0, 32, 62
1, 459510, Note_off_c, 0, 63, 58
1, 459538, Note_off_c, 0, 75, 62
1, 459634, Note_on_c, 0, 60, 92
1, 459634, Control_c, 0, 64, 101
1, 459643, Note_on_c, 0, 48, 75
1, 459649, Control_c, 0, 64, 69
1, 459650, Note_on_c, 0, 54, 70
1, 459657, Note_on_c, 0, 82, 84
1, 459661, Note_on_c, 0, 70, 81
1, 459664, Control_c, 0, 64, 47
1, 459672, Note_on_c, 0, 80, 63
1, 459678, Control_c, 0, 64, 12
1, 459685, Note_on_c, 0, 68, 34
1, 459686, Note_off_c, 0, 68, 127
1, 459688, Note_on_c, 0, 78, 55
1, 459693, Note_off_c, 0, 80, 56
1, 459693, Control_c, 0, 64, 35
1, 459708, Control_c, 0, 64, 52
1, 459723, Control_c, 0, 64, 63
1, 459738, Control_c, 0, 64, 69
1, 459751, Control_c, 0, 64, 83
1, 459766, Control_c, 0, 64, 127
1, 459789, Note_off_c, 0, 48, 49
1, 459794, Note_on_c, 0, 75, 70
1, 459801, Note_off_c, 0, 70, 52
1, 459821, Note_off_c, 0, 82, 61
1, 459849, Note_off_c, 0, 78, 59
1, 459855, Note_off_c, 0, 60, 62
1, 459883, Note_off_c, 0, 54, 62
1, 459941, Note_on_c, 0, 61, 105
1, 459944, Note_on_c, 0, 69, 93
1, 459947, Note_on_c, 0, 49, 85
1, 459952, Note_off_c, 0, 75, 61
1, 460008, Note_off_c, 0, 49, 65
1, 460083, Note_on_c, 0, 81, 99
1, 460108, Note_off_c, 0, 61, 56
1, 460118, Note_off_c, 0, 69, 66
1, 460152, Note_off_c, 0, 81, 64
1, 460234, Control_c, 0, 64, 78
1, 460246, Note_on_c, 0, 60, 74
1, 460246, Note_on_c, 0, 63, 108
1, 460248, Control_c, 0, 64, 55
1, 460250, Note_on_c, 0, 80, 95
1, 460251, Note_on_c, 0, 68, 101
1, 460255, Note_on_c, 0, 51, 82
1, 460259, Note_on_c, 0, 54, 67
1, 460263, Control_c, 0, 64, 0
1, 460276, Note_on_c, 0, 75, 61
1, 460292, Control_c, 0, 64, 44
1, 460307, Control_c, 0, 64, 59
1, 460322, Control_c, 0, 64, 66
1, 460328, Note_off_c, 0, 63, 66
1, 460331, Note_off_c, 0, 60, 64
1, 460337, Control_c, 0, 64, 76
1, 460348, Note_off_c, 0, 54, 64
1, 460352, Control_c, 0, 64, 117
1, 460361, Note_off_c, 0, 51, 65
1, 460367, Control_c, 0, 64, 127
1, 460374, Poly_aftertouch_c, 0, 56, 0
1, 460408, Note_off_c, 0, 80, 59
1, 460418, Note_on_c, 0, 72, 73
1, 460471, Note_off_c, 0, 75, 59
1, 460484, Note_off_c, 0, 68, 55
1, 460601, Note_on_c, 0, 44, 104
1, 460604, Note_on_c, 0, 32, 94
1, 460608, Note_on_c, 0, 66, 100
1, 460645, Note_on_c, 0, 42, 31
1, 460647, Note_off_c, 0, 72, 61
1, 460668, Note_off_c, 0, 44, 65
1, 460669, Note_off_c, 0, 32, 64
1, 460685, Note_off_c, 0, 42, 51
1, 460843, Note_on_c, 0, 78, 101
1, 460886, Note_off_c, 0, 66, 59
1, 460890, Note_off_c, 0, 78, 67
1, 460924, Note_on_c, 0, 77, 36
1, 460954, Note_off_c, 0, 77, 51
1, 461088, Note_on_c, 0, 37, 95
1, 461090, Note_on_c, 0, 25, 95
1, 461091, Note_on_c, 0, 64, 96
1, 461094, Note_on_c, 0, 76, 99
1, 461101, Control_c, 0, 64, 73
1, 461103, Note_on_c, 0, 68, 83
1, 461103, Note_on_c, 0, 71, 78
1, 461115, Control_c, 0, 64, 0
1, 461143, Note_on_c, 0, 73, 27
1, 461179, Note_off_c, 0, 73, 48
1, 461204, Note_off_c, 0, 71, 56
1, 461211, Note_off_c, 0, 68, 57
1, 461219, Control_c, 0, 64, 49
1, 461234, Control_c, 0, 64, 63
1, 461249, Control_c, 0, 64, 73
1, 461264, Control_c, 0, 64, 102
1, 461269, Note_off_c, 0, 25, 62
1, 461279, Control_c, 0, 64, 127
1, 461296, Note_off_c, 0, 76, 62
1, 461307, Note_off_c, 0, 37, 59
1, 461312, Note_off_c, 0, 64, 60
1, 461324, Note_on_c, 0, 71, 56
1, 461328, Note_on_c, 0, 68, 66
1, 461358, Note_off_c, 0, 71, 65
1, 461396, Note_off_c, 0, 68, 59
1, 461502, Note_on_c, 0, 58, 77
1, 461598, Note_off_c, 0, 58, 63
1, 461628, Note_on_c, 0, 70, 71
1, 461657, Note_off_c, 0, 70, 68
1, 461842, Note_on_c, 0, 68, 88
1, 461845, Note_on_c, 0, 56, 74
1, 461845, Note_on_c, 0, 83, 101
1, 461846, Note_on_c, 0, 71, 100
1, 461851, Note_on_c, 0, 73, 81
1, 461852, Note_on_c, 0, 76, 82
1, 462013, Note_on_c, 0, 64, 74
1, 462050, Note_off_c, 0, 56, 61
1, 462064, Note_off_c, 0, 68, 58
1, 462123, Note_on_c, 0, 59, 69
1, 462158, Note_off_c, 0, 83, 59
1, 462170, Note_off_c, 0, 71, 51
1, 462179, Note_off_c, 0, 64, 57
1, 462218, Note_off_c, 0, 73, 54
1, 462237, Note_off_c, 0, 76, 52
1, 462275, Note_on_c, 0, 67, 94
1, 462278, Note_on_c, 0, 55, 77
1, 462330, Note_off_c, 0, 59, 59
1, 462331, Note_off_c, 0, 55, 63
1, 462360, Note_off_c, 0, 67, 62
1, 462368, Note_on_c, 0, 61, 47
1, 462414, Control_c, 0, 64, 100
1, 462424, Poly_aftertouch_c, 0, 64, 127
1, 462429, Control_c, 0, 64, 68
1, 462443, Control_c, 0, 64, 36
1, 462447, Note_on_c, 0, 66, 95
1, 462459, Note_on_c, 0, 70, 91
1, 462461, Note_on_c, 0, 82, 92
1, 462464, Note_on_c, 0, 54, 74
1, 462465, Control_c, 0, 64, 0
1, 462466, Note_on_c, 0, 64, 7
1, 462476, Note_on_c, 0, 73, 51
1, 462480, Control_c, 0, 64, 29
1, 462495, Control_c, 0, 64, 53
1, 462501, Note_off_c, 0, 61, 53
1, 462502, Note_off_c, 0, 64, 54
1, 462504, Note_off_c, 0, 73, 57
1, 462510, Control_c, 0, 64, 65
1, 462525, Control_c, 0, 64, 75
1, 462533, Note_off_c, 0, 66, 64
1, 462540, Control_c, 0, 64, 127
1, 462575, Note_off_c, 0, 54, 64
1, 462609, Note_on_c, 0, 73, 57
1, 462624, Note_on_c, 0, 76, 52
1, 462628, Note_off_c, 0, 70, 61
1, 462658, Note_off_c, 0, 82, 64
1, 462737, Note_off_c, 0, 73, 64
1, 462742, Note_off_c, 0, 76, 63
1, 462770, Note_on_c, 0, 42, 94
1, 462780, Note_on_c, 0, 71, 101
1, 462781, Note_on_c, 0, 83, 104
1, 462782, Note_on_c, 0, 30, 74
1, 462811, Note_on_c, 0, 44, 39
1, 462812, Note_off_c, 0, 30, 64
1, 462836, Note_off_c, 0, 42, 64
1, 462842, Note_off_c, 0, 44, 52
1, 462914, Note_on_c, 0, 73, 78
1, 462936, Note_on_c, 0, 76, 49
1, 462941, Note_off_c, 0, 71, 60
1, 462943, Note_off_c, 0, 83, 62
1, 462958, Note_off_c, 0, 76, 60
1, 462978, Note_off_c, 0, 73, 63
1, 463079, Note_on_c, 0, 65, 94
1, 463080, Note_on_c, 0, 85, 105
1, 463082, Note_on_c, 0, 73, 102
1, 463085, Note_on_c, 0, 53, 87
1, 463087, Note_on_c, 0, 76, 82
1, 463102, Note_on_c, 0, 82, 69
1, 463118, Control_c, 0, 64, 96
1, 463133, Control_c, 0, 64, 71
1, 463148, Control_c, 0, 64, 58
1, 463163, Control_c, 0, 64, 49
1, 463178, Control_c, 0, 64, 56
1, 463193, Control_c, 0, 64, 63
1, 463215, Control_c, 0, 64, 69
1, 463230, Control_c, 0, 64, 80
1, 463245, Control_c, 0, 64, 127
1, 463253, Note_on_c, 0, 58, 78
1, 463276, Note_off_c, 0, 53, 62
1, 463315, Note_off_c, 0, 73, 61
1, 463340, Note_off_c, 0, 65, 53
1, 463367, Note_on_c, 0, 54, 80
1, 463384, Note_off_c, 0, 85, 60
1, 463387, Note_off_c, 0, 76, 60
1, 463402, Note_off_c, 0, 58, 63
1, 463441, Note_off_c, 0, 82, 62
1, 463527, Note_on_c, 0, 64, 93
1, 463528, Note_on_c, 0, 52, 79
1, 463586, Note_off_c, 0, 52, 63
1, 463624, Note_on_c, 0, 75, 21
1, 463630, Note_off_c, 0, 64, 61
1, 463653, Note_off_c, 0, 54, 43
1, 463661, Note_off_c, 0, 75, 49
1, 463688, Control_c, 0, 64, 80
1, 463703, Control_c, 0, 64, 54
1, 463709, Note_on_c, 0, 59, 50
1, 463714, Note_on_c, 0, 87, 98
1, 463717, Note_on_c, 0, 63, 103
1, 463717, Control_c, 0, 64, 0
1, 463718, Note_on_c, 0, 78, 95
1, 463725, Note_on_c, 0, 83, 82
1, 463728, Note_on_c, 0, 51, 84
1, 463730, Note_on_c, 0, 54, 80
1, 463747, Control_c, 0, 64, 53
1, 463762, Control_c, 0, 64, 66
1, 463764, Note_on_c, 0, 56, 40
1, 463777, Control_c, 0, 64, 90
1, 463792, Control_c, 0, 64, 127
1, 463819, Note_off_c, 0, 56, 46
1, 463831, Poly_aftertouch_c, 0, 64, 0
1, 463839, Note_off_c, 0, 63, 65
1, 463878, Note_off_c, 0, 59, 64
1, 463884, Note_off_c, 0, 83, 61
1, 463886, Note_off_c, 0, 87, 63
1, 463906, Note_on_c, 0, 75, 84
1, 463913, Note_off_c, 0, 78, 62
1, 463914, Note_off_c, 0, 51, 64
1, 463914, Note_off_c, 0, 54, 64
1, 463935, Note_off_c, 0, 75, 63
1, 464081, Note_on_c, 0, 35, 93
1, 464087, Note_on_c, 0, 70, 92
1, 464215, Note_off_c, 0, 35, 61
1, 464230, Note_on_c, 0, 23, 80
1, 464237, Note_off_c, 0, 70, 61
1, 464252, Note_on_c, 0, 58, 71
1, 464263, Note_off_c, 0, 23, 62
1, 464269, Note_off_c, 0, 58, 65
1, 464497, Control_c, 0, 64, 121
1, 464498, Note_on_c, 0, 63, 96
1, 464499, Note_on_c, 0, 51, 82
1, 464500, Note_on_c, 0, 89, 99
1, 464503, Note_on_c, 0, 53, 72
1, 464504, Note_on_c, 0, 57, 80
1, 464506, Note_on_c, 0, 87, 88
1, 464509, Note_on_c, 0, 81, 85
1, 464512, Control_c, 0, 64, 73
1, 464527, Control_c, 0, 64, 49
1, 464541, Control_c, 0, 64, 0
1, 464586, Control_c, 0, 64, 11
1, 464601, Control_c, 0, 64, 53
1, 464615, Control_c, 0, 64, 65
1, 464630, Control_c, 0, 64, 80
1, 464645, Control_c, 0, 64, 127
1, 464649, Note_off_c, 0, 63, 63
1, 464736, Note_off_c, 0, 57, 63
1, 464758, Note_off_c, 0, 89, 54
1, 464766, Note_off_c, 0, 53, 62
1, 464772, Note_off_c, 0, 51, 61
1, 464780, Note_on_c, 0, 77, 98
1, 464785, Note_off_c, 0, 87, 62
1, 464797, Note_off_c, 0, 81, 64
1, 464835, Note_off_c, 0, 77, 64
1, 465033, Note_on_c, 0, 35, 82
1, 465033, Note_on_c, 0, 65, 92
1, 465037, Note_on_c, 0, 33, 83
1, 465189, Note_off_c, 0, 33, 61
1, 465380, Note_off_c, 0, 35, 55
1, 465389, Note_on_c, 0, 23, 90
1, 465391, Note_on_c, 0, 53, 98
1, 465432, Note_off_c, 0, 53, 66
1, 465439, Note_off_c, 0, 23, 61
1, 465476, Note_off_c, 0, 65, 65
1, 465949, Note_on_c, 0, 63, 99
1, 465950, Control_c, 0, 64, 92
1, 465952, Note_on_c, 0, 51, 87
1, 465952, Note_on_c, 0, 82, 105
1, 465956, Note_on_c, 0, 94, 101
1, 465961, Note_on_c, 0, 91, 86
1, 465962, Note_on_c, 0, 55, 73
1, 465962, Note_on_c, 0, 58, 78
1, 465965, Control_c, 0, 64, 64
1, 465980, Control_c, 0, 64, 0
1, 466004, Note_on_c, 0, 92, 27
1, 466005, Note_off_c, 0, 92, 127
1, 466054, Control_c, 0, 64, 53
1, 466055, Note_off_c, 0, 63, 65
1, 466065, Note_off_c, 0, 51, 58
1, 466069, Control_c, 0, 64, 69
1, 466079, Note_off_c, 0, 58, 60
1, 466084, Control_c, 0, 64, 106
1, 466094, Note_off_c, 0, 55, 60
1, 466099, Control_c, 0, 64, 127
1, 466355, Note_on_c, 0, 87, 56
1, 466462, Note_off_c, 0, 82, 41
1, 466591, Note_on_c, 0, 34, 98
1, 466594, Note_off_c, 0, 94, 60
1, 466595, Note_on_c, 0, 22, 96
1, 466603, Note_on_c, 0, 82, 85
1, 466614, Note_off_c, 0, 87, 37
1, 466637, Note_off_c, 0, 22, 63
1, 466676, Note_off_c, 0, 34, 64
1, 466688, Note_off_c, 0, 91, 37
1, 466797, Note_off_c, 0, 82, 63
1, 466848, Note_on_c, 0, 81, 92
1, 466850, Note_on_c, 0, 93, 97
1, 466855, Note_on_c, 0, 90, 82
1, 466945, Note_off_c, 0, 81, 62
1, 466949, Note_off_c, 0, 93, 66
1, 466966, Note_off_c, 0, 90, 62
1, 467069, Note_on_c, 0, 70, 100
1, 467074, Note_on_c, 0, 92, 93
1, 467074, Note_on_c, 0, 80, 101
1, 467078, Note_on_c, 0, 58, 81
1, 467084, Note_on_c, 0, 63, 75
1, 467084, Note_on_c, 0, 67, 75
1, 467092, Note_on_c, 0, 87, 76
1, 467113, Note_off_c, 0, 67, 67
1, 467128, Note_off_c, 0, 70, 67
1, 467149, Note_off_c, 0, 63, 61
1, 467159, Note_off_c, 0, 58, 62
1, 467251, Note_on_c, 0, 82, 67
1, 467258, Note_off_c, 0, 92, 54
1, 467301, Note_off_c, 0, 80, 58
1, 467349, Note_off_c, 0, 87, 56
1, 467439, Note_on_c, 0, 46, 84
1, 467447, Note_on_c, 0, 34, 68
1, 467449, Note_on_c, 0, 79, 84
1, 467454, Note_off_c, 0, 82, 65
1, 467471, Note_off_c, 0, 34, 66
1, 467487, Note_off_c, 0, 46, 57
1, 467582, Poly_aftertouch_c, 0, 34, 127
1, 467606, Note_on_c, 0, 91, 88
1, 467623, Poly_aftertouch_c, 0, 34, 0
1, 467627, Note_off_c, 0, 79, 66
1, 467650, Note_off_c, 0, 91, 64
1, 467781, Note_on_c, 0, 69, 95
1, 467781, Control_c, 0, 64, 92
1, 467786, Note_on_c, 0, 57, 79
1, 467787, Note_on_c, 0, 90, 70
1, 467792, Note_on_c, 0, 63, 49
1, 467792, Note_on_c, 0, 66, 68
1, 467796, Control_c, 0, 64, 73
1, 467798, Note_on_c, 0, 84, 69
1, 467798, Note_on_c, 0, 78, 74
1, 467811, Control_c, 0, 64, 63
1, 467826, Control_c, 0, 64, 59
1, 467840, Control_c, 0, 64, 62
1, 467855, Control_c, 0, 64, 65
1, 467870, Control_c, 0, 64, 68
1, 467878, Note_on_c, 0, 60, 13
1, 467885, Control_c, 0, 64, 74
1, 467900, Control_c, 0, 64, 88
1, 467914, Control_c, 0, 64, 127
1, 467933, Note_off_c, 0, 57, 59
1, 467936, Note_off_c, 0, 78, 60
1, 467937, Note_on_c, 0, 81, 65
1, 467947, Note_off_c, 0, 90, 57
1, 468010, Note_off_c, 0, 69, 62
1, 468011, Note_off_c, 0, 84, 57
1, 468044, Note_off_c, 0, 60, 41
1, 468106, Note_on_c, 0, 58, 81
1, 468110, Note_on_c, 0, 70, 97
1, 468128, Note_off_c, 0, 81, 65
1, 468131, Note_on_c, 0, 77, 80
1, 468245, Note_off_c, 0, 58, 62
1, 468267, Note_on_c, 0, 89, 101
1, 468278, Note_off_c, 0, 70, 57
1, 468305, Note_off_c, 0, 77, 65
1, 468338, Note_off_c, 0, 89, 60
1, 468374, Control_c, 0, 64, 113
1, 468389, Control_c, 0, 64, 74
1, 468404, Control_c, 0, 64, 56
1, 468415, Note_on_c, 0, 76, 96
1, 468417, Note_on_c, 0, 88, 89
1, 468418, Note_on_c, 0, 72, 99
1, 468418, Note_on_c, 0, 81, 82
1, 468419, Control_c, 0, 64, 38
1, 468424, Note_on_c, 0, 60, 75
1, 468434, Control_c, 0, 64, 52
1, 468456, Control_c, 0, 64, 63
1, 468471, Control_c, 0, 64, 75
1, 468486, Control_c, 0, 64, 111
1, 468493, Note_off_c, 0, 72, 61
1, 468501, Control_c, 0, 64, 127
1, 468521, Note_off_c, 0, 66, 61
1, 468529, Note_off_c, 0, 60, 62
1, 468537, Note_off_c, 0, 63, 63
1, 468581, Note_on_c, 0, 78, 82
1, 468582, Note_off_c, 0, 88, 64
1, 468609, Note_off_c, 0, 76, 62
1, 468615, Note_off_c, 0, 81, 63
1, 468719, Note_on_c, 0, 46, 88
1, 468727, Note_on_c, 0, 75, 89
1, 468729, Note_on_c, 0, 34, 71
1, 468737, Note_off_c, 0, 78, 62
1, 468761, Note_off_c, 0, 34, 64
1, 468767, Note_off_c, 0, 46, 62
1, 468862, Note_on_c, 0, 87, 92
1, 468876, Note_off_c, 0, 75, 43
1, 468931, Note_off_c, 0, 87, 64
1, 469005, Control_c, 0, 64, 121
1, 469019, Note_on_c, 0, 89, 89
1, 469020, Control_c, 0, 64, 70
1, 469020, Note_on_c, 0, 53, 102
1, 469021, Note_on_c, 0, 77, 86
1, 469023, Note_on_c, 0, 50, 76
1, 469025, Note_on_c, 0, 86, 76
1, 469026, Note_on_c, 0, 46, 74
1, 469030, Note_on_c, 0, 41, 74
1, 469035, Control_c, 0, 64, 47
1, 469050, Control_c, 0, 64, 0
1, 469065, Control_c, 0, 64, 34
1, 469079, Control_c, 0, 64, 54
1, 469094, Control_c, 0, 64, 63
1, 469109, Control_c, 0, 64, 72
1, 469117, Note_off_c, 0, 50, 63
1, 469119, Note_off_c, 0, 53, 62
1, 469123, Control_c, 0, 64, 98
1, 469138, Control_c, 0, 64, 127
1, 469143, Note_off_c, 0, 46, 63
1, 469152, Note_off_c, 0, 41, 62
1, 469177, Note_on_c, 0, 82, 71
1, 469214, Note_off_c, 0, 77, 59
1, 469271, Note_off_c, 0, 89, 47
1, 469315, Note_on_c, 0, 22, 75
1, 469315, Note_on_c, 0, 34, 83
1, 469318, Note_off_c, 0, 86, 54
1, 469328, Note_on_c, 0, 76, 81
1, 469343, Note_off_c, 0, 22, 64
1, 469344, Note_off_c, 0, 82, 61
1, 469347, Note_off_c, 0, 34, 64
1, 469456, Note_on_c, 0, 88, 83
1, 469464, Note_on_c, 0, 85, 76
1, 469477, Note_off_c, 0, 76, 65
1, 469509, Note_off_c, 0, 88, 64
1, 469510, Note_off_c, 0, 85, 61
1, 469607, Note_on_c, 0, 58, 101
1, 469612, Note_on_c, 0, 75, 89
1, 469615, Note_on_c, 0, 87, 82
1, 469626, Note_on_c, 0, 46, 68
1, 469634, Note_on_c, 0, 53, 49
1, 469639, Note_on_c, 0, 82, 56
1, 469640, Note_on_c, 0, 50, 40
1, 469671, Note_off_c, 0, 53, 62
1, 469672, Note_off_c, 0, 58, 66
1, 469676, Note_off_c, 0, 50, 50
1, 469729, Note_off_c, 0, 46, 63
1, 469762, Note_off_c, 0, 87, 58
1, 469770, Note_on_c, 0, 77, 63
1, 469784, Note_off_c, 0, 75, 57
1, 469820, Note_off_c, 0, 82, 38
1, 469914, Note_on_c, 0, 34, 80
1, 469920, Note_on_c, 0, 74, 76
1, 469924, Note_on_c, 0, 22, 60
1, 469924, Note_off_c, 0, 77, 59
1, 469956, Note_off_c, 0, 34, 62
1, 469964, Note_off_c, 0, 22, 62
1, 470054, Note_on_c, 0, 86, 80
1, 470067, Note_off_c, 0, 74, 54
1, 470115, Note_off_c, 0, 86, 62
1, 470206, Control_c, 0, 64, 121
1, 470212, Note_on_c, 0, 57, 91
1, 470219, Note_on_c, 0, 45, 72
1, 470219, Note_on_c, 0, 51, 65
1, 470219, Note_on_c, 0, 54, 72
1, 470221, Control_c, 0, 64, 81
1, 470225, Note_on_c, 0, 81, 67
1, 470225, Note_on_c, 0, 87, 76
1, 470229, Note_on_c, 0, 75, 75
1, 470236, Control_c, 0, 64, 65
1, 470251, Control_c, 0, 64, 53
1, 470266, Control_c, 0, 64, 54
1, 470280, Control_c, 0, 64, 60
1, 470295, Control_c, 0, 64, 64
1, 470310, Control_c, 0, 64, 68
1, 470325, Control_c, 0, 64, 75
1, 470340, Control_c, 0, 64, 98
1, 470351, Poly_aftertouch_c, 0, 48, 127
1, 470356, Control_c, 0, 64, 127
1, 470356, Note_off_c, 0, 45, 62
1, 470360, Note_on_c, 0, 78, 66
1, 470364, Note_off_c, 0, 75, 55
1, 470364, Note_off_c, 0, 87, 58
1, 470419, Note_off_c, 0, 81, 57
1, 470422, Note_off_c, 0, 57, 63
1, 470483, Poly_aftertouch_c, 0, 48, 0
1, 470513, Note_on_c, 0, 46, 82
1, 470516, Note_on_c, 0, 58, 99
1, 470517, Note_on_c, 0, 74, 84
1, 470529, Note_off_c, 0, 78, 62
1, 470642, Note_off_c, 0, 46, 60
1, 470648, Note_on_c, 0, 86, 98
1, 470672, Note_off_c, 0, 58, 56
1, 470686, Note_off_c, 0, 74, 65
1, 470714, Note_off_c, 0, 86, 61
1, 470777, Control_c, 0, 64, 105
1, 470792, Control_c, 0, 64, 71
1, 470807, Note_on_c, 0, 60, 98
1, 470807, Control_c, 0, 64, 46
1, 470809, Note_on_c, 0, 73, 94
1, 470809, Note_on_c, 0, 85, 87
1, 470811, Note_on_c, 0, 78, 88
1, 470816, Note_on_c, 0, 48, 72
1, 470822, Control_c, 0, 64, 36
1, 470837, Control_c, 0, 64, 52
1, 470851, Control_c, 0, 64, 63
1, 470866, Control_c, 0, 64, 70
1, 470877, Note_off_c, 0, 60, 63
1, 470881, Control_c, 0, 64, 84
1, 470896, Control_c, 0, 64, 127
1, 470901, Note_off_c, 0, 54, 63
1, 470910, Note_off_c, 0, 48, 60
1, 470916, Note_off_c, 0, 51, 65
1, 470932, Note_off_c, 0, 85, 57
1, 470957, Note_on_c, 0, 75, 75
1, 470970, Note_off_c, 0, 73, 59
1, 471030, Note_off_c, 0, 78, 58
1, 471091, Note_on_c, 0, 34, 88
1, 471095, Note_on_c, 0, 72, 80
1, 471101, Note_off_c, 0, 75, 62
1, 471107, Note_on_c, 0, 22, 65
1, 471140, Note_off_c, 0, 22, 59
1, 471140, Note_off_c, 0, 34, 58
1, 471220, Note_on_c, 0, 84, 90
1, 471235, Note_off_c, 0, 72, 55
1, 471277, Note_off_c, 0, 84, 62
1, 471354, Control_c, 0, 64, 97
1, 471369, Control_c, 0, 64, 67
1, 471377, Note_on_c, 0, 58, 92
1, 471384, Note_on_c, 0, 82, 89
1, 471384, Control_c, 0, 64, 31
1, 471385, Note_on_c, 0, 51, 67
1, 471387, Note_on_c, 0, 70, 90
1, 471387, Note_on_c, 0, 54, 68
1, 471390, Note_on_c, 0, 46, 65
1, 471399, Control_c, 0, 64, 0
1, 471404, Note_on_c, 0, 78, 66
1, 471414, Control_c, 0, 64, 16
1, 471429, Control_c, 0, 64, 48
1, 471450, Note_off_c, 0, 58, 65
1, 471451, Control_c, 0, 64, 63
1, 471466, Control_c, 0, 64, 71
1, 471470, Note_off_c, 0, 54, 64
1, 471480, Control_c, 0, 64, 92
1, 471488, Note_off_c, 0, 51, 63
1, 471493, Note_off_c, 0, 46, 61
1, 471495, Control_c, 0, 64, 127
1, 471540, Note_on_c, 0, 75, 62
1, 471550, Note_off_c, 0, 82, 56
1, 471551, Note_off_c, 0, 70, 55
1, 471626, Note_off_c, 0, 78, 55
1, 471691, Note_on_c, 0, 34, 75
1, 471700, Note_on_c, 0, 22, 61
1, 471702, Note_on_c, 0, 69, 74
1, 471706, Note_off_c, 0, 75, 59
1, 471727, Note_off_c, 0, 34, 64
1, 471734, Note_off_c, 0, 22, 57
1, 471830, Note_on_c, 0, 81, 79
1, 471850, Note_off_c, 0, 69, 63
1, 471885, Note_off_c, 0, 81, 64
1, 471980, Note_on_c, 0, 80, 87
1, 471986, Note_on_c, 0, 27, 66
1, 471986, Note_on_c, 0, 39, 70
1, 471986, Note_on_c, 0, 68, 80
1, 472014, Note_on_c, 0, 75, 58
1, 472046, Note_off_c, 0, 27, 61
1, 472050, Note_off_c, 0, 39, 61
1, 472135, Note_on_c, 0, 70, 75
1, 472141, Note_off_c, 0, 80, 59
1, 472164, Note_off_c, 0, 68, 55
1, 472267, Note_off_c, 0, 75, 58
1, 472280, Note_on_c, 0, 46, 94
1, 472290, Note_on_c, 0, 34, 70
1, 472294, Note_on_c, 0, 66, 85
1, 472323, Note_off_c, 0, 34, 62
1, 472324, Note_off_c, 0, 70, 56
1, 472342, Note_off_c, 0, 46, 63
1, 472412, Note_on_c, 0, 78, 89
1, 472454, Note_off_c, 0, 66, 61
1, 472510, Note_off_c, 0, 78, 62
1, 472555, Control_c, 0, 64, 92
1, 472570, Control_c, 0, 64, 64
1, 472580, Note_on_c, 0, 57, 103
1, 472583, Note_on_c, 0, 66, 91
1, 472585, Control_c, 0, 64, 30
1, 472586, Note_on_c, 0, 78, 88
1, 472589, Note_on_c, 0, 45, 74
1, 472589, Note_on_c, 0, 54, 79
1, 472592, Note_on_c, 0, 51, 70
1, 472594, Note_on_c, 0, 72, 72
1, 472597, Note_on_c, 0, 48, 60
1, 472600, Control_c, 0, 64, 0
1, 472614, Control_c, 0, 64, 20
1, 472629, Control_c, 0, 64, 45
1, 472644, Control_c, 0, 64, 59
1, 472659, Control_c, 0, 64, 67
1, 472666, Note_off_c, 0, 57, 67
1, 472673, Note_off_c, 0, 54, 64
1, 472674, Control_c, 0, 64, 80
1, 472684, Note_off_c, 0, 51, 64
1, 472689, Control_c, 0, 64, 127
1, 472692, Note_off_c, 0, 48, 63
1, 472713, Note_off_c, 0, 45, 63
1, 472728, Note_off_c, 0, 78, 55
1, 472757, Note_on_c, 0, 69, 62
1, 472765, Note_off_c, 0, 66, 59
1, 472865, Note_off_c, 0, 72, 55
1, 472890, Note_on_c, 0, 34, 84
1, 472896, Note_on_c, 0, 22, 79
1, 472912, Note_on_c, 0, 65, 85
1, 472925, Note_off_c, 0, 69, 62
1, 472934, Note_off_c, 0, 22, 61
1, 472954, Note_off_c, 0, 34, 62
1, 473075, Note_on_c, 0, 77, 97
1, 473136, Note_off_c, 0, 65, 52
1, 473155, Note_off_c, 0, 77, 60
1, 473242, Note_on_c, 0, 46, 93
1, 473245, Note_on_c, 0, 76, 94
1, 473249, Note_on_c, 0, 34, 73
1, 473249, Note_on_c, 0, 64, 93
1, 473253, Note_on_c, 0, 69, 79
1, 473301, Note_off_c, 0, 34, 61
1, 473334, Note_off_c, 0, 46, 63
1, 473429, Note_on_c, 0, 66, 71
1, 473500, Note_off_c, 0, 76, 52
1, 473504, Note_off_c, 0, 64, 57
1, 473604, Note_off_c, 0, 69, 51
1, 473632, Note_on_c, 0, 54, 103
1, 473635, Note_on_c, 0, 51, 67
1, 473643, Note_on_c, 0, 42, 82
1, 473644, Note_on_c, 0, 63, 89
1, 473658, Note_on_c, 0, 45, 57
1, 473659, Note_on_c, 0, 48, 56
1, 473670, Note_on_c, 0, 53, 43
1, 473706, Note_off_c, 0, 53, 58
1, 473763, Note_off_c, 0, 48, 57
1, 473817, Note_off_c, 0, 51, 63
1, 473819, Note_off_c, 0, 42, 56
1, 473850, Note_off_c, 0, 45, 36
1, 473855, Note_off_c, 0, 66, 29
1, 473891, Note_off_c, 0, 54, 58
1, 473902, Note_on_c, 0, 75, 92
1, 474040, Note_off_c, 0, 75, 61
1, 474063, Note_off_c, 0, 63, 61
1, 474171, Note_on_c, 0, 53, 98
1, 474171, Note_on_c, 0, 65, 69
1, 474171, Control_c, 0, 64, 121
1, 474173, Note_on_c, 0, 50, 90
1, 474173, Note_on_c, 0, 62, 96
1, 474173, Note_on_c, 0, 74, 97
1, 474176, Note_on_c, 0, 41, 81
1, 474177, Note_on_c, 0, 46, 80
1, 474181, Note_on_c, 0, 70, 85
1, 474186, Control_c, 0, 64, 75
1, 474201, Control_c, 0, 64, 50
1, 474216, Control_c, 0, 64, 0
1, 474305, Control_c, 0, 64, 16
1, 474319, Control_c, 0, 64, 52
1, 474335, Control_c, 0, 64, 65
1, 474350, Control_c, 0, 64, 78
1, 474365, Control_c, 0, 64, 127
1, 474368, Note_off_c, 0, 41, 57
1, 474372, Note_off_c, 0, 53, 51
1, 474446, Note_off_c, 0, 50, 56
1, 474469, Note_off_c, 0, 74, 55
1, 474510, Note_off_c, 0, 46, 59
1, 474538, Note_off_c, 0, 70, 60
1, 474542, Note_off_c, 0, 62, 51
1, 474544, Note_off_c, 0, 65, 61
1, 475037, Note_on_c, 0, 34, 89
1, 475041, Note_on_c, 0, 22, 85
1, 475041, Note_on_c, 0, 46, 93
1, 475042, Note_on_c, 0, 50, 83
1, 475042, Note_on_c, 0, 29, 85
1, 475043, Note_on_c, 0, 58, 91
1, 475048, Note_on_c, 0, 53, 77
1, 475069, Control_c, 0, 64, 93
1, 475084, Control_c, 0, 64, 66
1, 475098, Control_c, 0, 64, 0
1, 475343, Control_c, 0, 64, 43
1, 475358, Control_c, 0, 64, 60
1, 475373, Control_c, 0, 64, 66
1, 475388, Control_c, 0, 64, 74
1, 475397, Note_off_c, 0, 46, 61
1, 475403, Control_c, 0, 64, 89
1, 475417, Control_c, 0, 64, 127
1, 475453, Note_off_c, 0, 22, 57
1, 475478, Note_off_c, 0, 29, 57
1, 475507, Note_off_c, 0, 50, 59
1, 475528, Note_off_c, 0, 34, 57
1, 475538, Note_off_c, 0, 53, 58
1, 475626, Note_off_c, 0, 58, 62
1, 476190, Note_on_c, 0, 70, 90
1, 476192, Note_on_c, 0, 94, 99
1, 476193, Note_on_c, 0, 82, 99
1, 476194, Note_on_c, 0, 58, 83
1, 476195, Note_on_c, 0, 86, 87
1, 476200, Note_on_c, 0, 65, 83
1, 476202, Note_on_c, 0, 89, 77
1, 476207, Note_on_c, 0, 62, 74
1, 477167, Note_off_c, 0, 82, 47
1, 477357, Note_off_c, 0, 70, 49
1, 477520, Note_off_c, 0, 86, 50
1, 477584, Note_off_c, 0, 89, 49
1, 477615, Note_off_c, 0, 94, 57
1, 477650, Note_off_c, 0, 65, 45
1, 477741, Note_off_c, 0, 58, 33
1, 477762, Note_off_c, 0, 62, 33
1, 477901, Control_c, 0, 64, 85
1, 477915, Control_c, 0, 64, 60
1, 477930, Control_c, 0, 64, 0
1, 478005, End_track
0, 0, End_of_file
