0, 0, Header, 0, 1, 384
1, 0, Start_track
1, 0, Title_t, "BachPF_BWV854--Ozaki            "
1, 0, Text_t, "2011 ePiano Junior Competition"
1, 0, Text_t, "captured in spring and summer 2011"
1, 0, Text_t, "http://www.piano-e-competition.com/"
1, 0, Text_t, "standard-resolution version"
1, 0, Text_t, "File processed for distribution with software designed and coded by Dr. John Q. Walker, founder of Zenph Sound Innovations"
1, 0, Instrument_name_t, "Yamaha Disklavier Pro Mark IV concert grand piano, model DCFIIISM4PRO"
1, 0, Sequencer_specific, 39, 67, 113, 0, 1, 0, 1, 0, 66, 97, 99, 104, 32, 80, 70, 95, 66, 87, 86, 56, 53, 52, 32, 32, 77, 105, 115, 111, 114, 97, 32, 79, 122, 97, 107, 105, 32, 32, 32, 32
1, 0, Sequencer_specific, 6, 67, 113, 0, 0, 0, 69
1, 0, System_exclusive, 21, 67, 113, 126, 21, 0, 2, 2, 2, 5, 12, 8, 4, 14, 0, 15, 5, 11, 14, 15, 2, 247
1, 0, Sequencer_specific, 5, 67, 123, 12, 2, 1
1, 0, Tempo, 512820
1, 0, Time_signature, 4, 2, 24, 8
1, 0, System_exclusive, 5, 126, 127, 9, 1, 247
1, 1, System_exclusive, 8, 67, 16, 76, 0, 0, 126, 0, 247
1, 2, System_exclusive, 8, 67, 16, 76, 8, 9, 7, 1, 247
1, 3, Control_c, 0, 0, 108
1, 3, Control_c, 1, 0, 108
1, 3, Control_c, 2, 0, 0
1, 3, Control_c, 3, 0, 0
1, 3, Control_c, 4, 0, 0
1, 3, Control_c, 5, 0, 0
1, 3, Control_c, 6, 0, 0
1, 3, Control_c, 7, 0, 0
1, 3, Control_c, 8, 0, 0
1, 3, Control_c, 9, 0, 127
1, 3, Control_c, 10, 0, 0
1, 3, Control_c, 11, 0, 0
1, 3, Control_c, 12, 0, 0
1, 3, Control_c, 13, 0, 0
1, 3, Control_c, 14, 0, 0
1, 3, Control_c, 15, 0, 0
1, 4, Control_c, 0, 32, 0
1, 4, Control_c, 1, 32, 0
1, 4, Control_c, 2, 32, 0
1, 4, Control_c, 3, 32, 0
1, 4, Control_c, 4, 32, 0
1, 4, Control_c, 5, 32, 0
1, 4, Control_c, 6, 32, 0
1, 4, Control_c, 7, 32, 0
1, 4, Control_c, 8, 32, 0
1, 4, Control_c, 9, 32, 0
1, 4, Control_c, 10, 32, 0
1, 4, Control_c, 11, 32, 0
1, 4, Control_c, 12, 32, 0
1, 4, Control_c, 13, 32, 0
1, 4, Control_c, 14, 32, 0
1, 4, Control_c, 15, 32, 0
1, 5, Program_c, 0, 0
1, 5, Program_c, 1, 0
1, 5, Program_c, 2, 0
1, 5, Program_c, 3, 0
1, 5, Program_c, 4, 0
1, 5, Program_c, 5, 0
1, 5, Program_c, 6, 0
1, 5, Program_c, 7, 0
1, 5, Program_c, 8, 0
1, 5, Program_c, 9, 0
1, 5, Program_c, 10, 0
1, 5, Program_c, 11, 0
1, 5, Program_c, 12, 0
1, 5, Program_c, 13, 0
1, 5, Program_c, 14, 0
1, 5, Program_c, 15, 0
1, 6, Control_c, 0, 7, 100
1, 6, Control_c, 1, 7, 100
1, 6, Control_c, 2, 7, 100
1, 6, Control_c, 3, 7, 100
1, 6, Control_c, 4, 7, 100
1, 6, Control_c, 5, 7, 100
1, 6, Control_c, 6, 7, 100
1, 6, Control_c, 7, 7, 100
1, 6, Control_c, 8, 7, 100
1, 6, Control_c, 9, 7, 100
1, 6, Control_c, 10, 7, 100
1, 6, Control_c, 11, 7, 100
1, 6, Control_c, 12, 7, 100
1, 6, Control_c, 13, 7, 100
1, 6, Control_c, 14, 7, 100
1, 6, Control_c, 15, 7, 100
1, 386, Note_on_c, 0, 52, 44
1, 390, Note_on_c, 0, 64, 48
1, 626, Note_on_c, 0, 68, 61
1, 822, Note_on_c, 0, 71, 67
1, 898, Note_off_c, 0, 64, 34
1, 1042, Note_on_c, 0, 56, 50
1, 1042, Note_on_c, 0, 76, 68
1, 1042, Note_off_c, 0, 68, 32
1, 1081, Note_off_c, 0, 71, 63
1, 1259, Note_on_c, 0, 75, 70
1, 1323, Note_off_c, 0, 76, 59
1, 1461, Note_on_c, 0, 76, 71
1, 1497, Note_off_c, 0, 75, 62
1, 1661, Note_off_c, 0, 76, 63
1, 1668, Note_on_c, 0, 75, 65
1, 1677, Note_on_c, 0, 57, 48
1, 1724, Note_off_c, 0, 75, 61
1, 1727, Note_off_c, 0, 56, 61
1, 1732, Note_on_c, 0, 73, 67
1, 1767, Note_off_c, 0, 73, 62
1, 1778, Note_on_c, 0, 75, 56
1, 1833, Note_on_c, 0, 73, 71
1, 1837, Note_off_c, 0, 75, 64
1, 1907, Note_on_c, 0, 71, 74
1, 1924, Note_off_c, 0, 73, 59
1, 2115, Note_on_c, 0, 73, 77
1, 2249, Note_off_c, 0, 71, 44
1, 2330, Note_on_c, 0, 76, 73
1, 2443, Note_off_c, 0, 73, 57
1, 2545, Note_on_c, 0, 56, 42
1, 2750, Note_off_c, 0, 57, 36
1, 2761, Note_on_c, 0, 54, 58
1, 2829, Note_off_c, 0, 56, 58
1, 2908, Note_off_c, 0, 76, 54
1, 2953, Note_on_c, 0, 73, 52
1, 2968, Note_on_c, 0, 56, 52
1, 2996, Note_off_c, 0, 73, 63
1, 3014, Note_on_c, 0, 71, 59
1, 3045, Note_off_c, 0, 54, 56
1, 3052, Note_off_c, 0, 71, 63
1, 3072, Note_on_c, 0, 73, 50
1, 3113, Note_on_c, 0, 71, 63
1, 3121, Note_off_c, 0, 73, 64
1, 3190, Note_on_c, 0, 69, 68
1, 3192, Note_off_c, 0, 71, 59
1, 3408, Note_on_c, 0, 71, 66
1, 3490, Note_off_c, 0, 69, 56
1, 3634, Note_on_c, 0, 76, 62
1, 3732, Note_off_c, 0, 71, 58
1, 3859, Note_on_c, 0, 57, 48
1, 3919, Note_off_c, 0, 56, 59
1, 4063, Note_on_c, 0, 56, 53
1, 4239, Note_off_c, 0, 57, 38
1, 4273, Note_off_c, 0, 76, 38
1, 4288, Note_on_c, 0, 69, 49
1, 4294, Note_on_c, 0, 54, 48
1, 4406, Note_off_c, 0, 56, 48
1, 4513, Note_on_c, 0, 71, 60
1, 4599, Note_off_c, 0, 69, 55
1, 4723, Note_on_c, 0, 73, 69
1, 4784, Note_off_c, 0, 71, 56
1, 4922, Note_on_c, 0, 51, 42
1, 4946, Note_on_c, 0, 71, 67
1, 4988, Note_off_c, 0, 73, 58
1, 5014, Note_off_c, 0, 52, 40
1, 5117, Control_c, 0, 64, 26
1, 5132, Control_c, 0, 64, 52
1, 5146, Note_on_c, 0, 73, 66
1, 5146, Control_c, 0, 64, 63
1, 5161, Control_c, 0, 64, 70
1, 5176, Control_c, 0, 64, 83
1, 5185, Note_off_c, 0, 71, 59
1, 5190, Control_c, 0, 64, 111
1, 5205, Control_c, 0, 64, 127
1, 5230, Note_off_c, 0, 51, 36
1, 5305, Note_off_c, 0, 54, 35
1, 5360, Note_on_c, 0, 69, 76
1, 5400, Note_off_c, 0, 73, 61
1, 5427, Control_c, 0, 64, 114
1, 5442, Control_c, 0, 64, 103
1, 5457, Control_c, 0, 64, 96
1, 5471, Control_c, 0, 64, 90
1, 5487, Control_c, 0, 64, 84
1, 5502, Control_c, 0, 64, 79
1, 5517, Control_c, 0, 64, 74
1, 5532, Control_c, 0, 64, 70
1, 5547, Control_c, 0, 64, 67
1, 5561, Control_c, 0, 64, 66
1, 5567, Note_on_c, 0, 52, 42
1, 5568, Note_on_c, 0, 68, 69
1, 5576, Control_c, 0, 64, 65
1, 5591, Control_c, 0, 64, 64
1, 5602, Note_off_c, 0, 69, 60
1, 5606, Control_c, 0, 64, 62
1, 5620, Control_c, 0, 64, 61
1, 5635, Control_c, 0, 64, 59
1, 5650, Control_c, 0, 64, 58
1, 5665, Control_c, 0, 64, 56
1, 5687, Control_c, 0, 64, 54
1, 5702, Control_c, 0, 64, 53
1, 5717, Control_c, 0, 64, 52
1, 5732, Control_c, 0, 64, 50
1, 5747, Control_c, 0, 64, 49
1, 5761, Control_c, 0, 64, 47
1, 5776, Control_c, 0, 64, 44
1, 5790, Note_on_c, 0, 71, 75
1, 5791, Control_c, 0, 64, 42
1, 5792, Note_on_c, 0, 56, 48
1, 5806, Control_c, 0, 64, 39
1, 5808, Note_off_c, 0, 68, 63
1, 5820, Control_c, 0, 64, 34
1, 5835, Control_c, 0, 64, 30
1, 5850, Control_c, 0, 64, 25
1, 5865, Control_c, 0, 64, 23
1, 5880, Control_c, 0, 64, 22
1, 5895, Control_c, 0, 64, 20
1, 5910, Control_c, 0, 64, 19
1, 5925, Control_c, 0, 64, 18
1, 5939, Control_c, 0, 64, 17
1, 5954, Control_c, 0, 64, 15
1, 5969, Control_c, 0, 64, 12
1, 5984, Control_c, 0, 64, 10
1, 5989, Note_on_c, 0, 59, 58
1, 5993, Note_off_c, 0, 52, 35
1, 5996, Note_on_c, 0, 76, 77
1, 6028, Control_c, 0, 64, 8
1, 6058, Control_c, 0, 64, 0
1, 6063, Note_off_c, 0, 71, 58
1, 6102, Note_off_c, 0, 56, 58
1, 6209, Note_on_c, 0, 80, 82
1, 6217, Note_on_c, 0, 64, 53
1, 6270, Note_off_c, 0, 59, 61
1, 6340, Note_off_c, 0, 76, 54
1, 6437, Note_on_c, 0, 63, 70
1, 6533, Note_off_c, 0, 64, 51
1, 6641, Note_on_c, 0, 64, 76
1, 6773, Note_off_c, 0, 63, 56
1, 6859, Note_on_c, 0, 58, 65
1, 7012, Note_off_c, 0, 64, 51
1, 7080, Note_on_c, 0, 78, 70
1, 7133, Note_off_c, 0, 80, 59
1, 7296, Note_on_c, 0, 61, 56
1, 7296, Note_on_c, 0, 76, 74
1, 7327, Note_off_c, 0, 78, 63
1, 7398, Note_off_c, 0, 61, 60
1, 7513, Note_off_c, 0, 76, 60
1, 7515, Note_on_c, 0, 66, 69
1, 7526, Note_on_c, 0, 75, 65
1, 7727, Note_on_c, 0, 76, 73
1, 7734, Control_c, 0, 64, 34
1, 7736, Note_off_c, 0, 75, 55
1, 7749, Control_c, 0, 64, 58
1, 7761, Note_off_c, 0, 66, 64
1, 7764, Control_c, 0, 64, 69
1, 7778, Control_c, 0, 64, 85
1, 7793, Control_c, 0, 64, 127
1, 7846, Note_off_c, 0, 58, 60
1, 7953, Note_on_c, 0, 73, 79
1, 8005, Note_off_c, 0, 76, 52
1, 8058, Note_off_c, 0, 73, 61
1, 8160, Note_on_c, 0, 47, 49
1, 8180, Note_on_c, 0, 73, 63
1, 8187, Control_c, 0, 64, 116
1, 8201, Control_c, 0, 64, 106
1, 8216, Control_c, 0, 64, 100
1, 8231, Control_c, 0, 64, 95
1, 8246, Control_c, 0, 64, 91
1, 8258, Note_off_c, 0, 73, 53
1, 8260, Control_c, 0, 64, 86
1, 8262, Note_on_c, 0, 75, 62
1, 8274, Control_c, 0, 64, 81
1, 8289, Control_c, 0, 64, 76
1, 8304, Control_c, 0, 64, 72
1, 8319, Control_c, 0, 64, 70
1, 8325, Note_off_c, 0, 75, 58
1, 8334, Control_c, 0, 64, 67
1, 8339, Note_on_c, 0, 76, 62
1, 8348, Control_c, 0, 64, 66
1, 8363, Note_on_c, 0, 51, 53
1, 8363, Control_c, 0, 64, 64
1, 8378, Control_c, 0, 64, 62
1, 8393, Control_c, 0, 64, 61
1, 8402, Note_off_c, 0, 76, 61
1, 8408, Control_c, 0, 64, 60
1, 8418, Note_on_c, 0, 75, 66
1, 8423, Control_c, 0, 64, 57
1, 8437, Control_c, 0, 64, 55
1, 8452, Control_c, 0, 64, 53
1, 8455, Note_off_c, 0, 75, 62
1, 8463, Note_off_c, 0, 47, 36
1, 8467, Control_c, 0, 64, 50
1, 8469, Note_on_c, 0, 76, 59
1, 8482, Control_c, 0, 64, 46
1, 8497, Control_c, 0, 64, 40
1, 8512, Control_c, 0, 64, 32
1, 8519, Note_off_c, 0, 76, 63
1, 8523, Note_on_c, 0, 75, 65
1, 8527, Control_c, 0, 64, 28
1, 8542, Control_c, 0, 64, 25
1, 8556, Control_c, 0, 64, 20
1, 8566, Note_on_c, 0, 76, 58
1, 8566, Note_off_c, 0, 75, 61
1, 8571, Control_c, 0, 64, 14
1, 8575, Note_on_c, 0, 54, 54
1, 8586, Control_c, 0, 64, 8
1, 8600, Control_c, 0, 64, 0
1, 8630, Note_off_c, 0, 51, 57
1, 8632, Note_on_c, 0, 75, 75
1, 8656, Note_off_c, 0, 76, 54
1, 8806, Note_on_c, 0, 59, 65
1, 8886, Note_off_c, 0, 54, 64
1, 9019, Note_on_c, 0, 58, 68
1, 9112, Note_off_c, 0, 59, 56
1, 9222, Note_on_c, 0, 59, 66
1, 9357, Note_off_c, 0, 58, 57
1, 9451, Note_on_c, 0, 52, 65
1, 9612, Note_off_c, 0, 59, 40
1, 9630, Note_off_c, 0, 75, 54
1, 9673, Note_on_c, 0, 76, 70
1, 9880, Note_on_c, 0, 59, 56
1, 9880, Note_on_c, 0, 78, 81
1, 9978, Note_off_c, 0, 76, 51
1, 10008, Note_off_c, 0, 59, 59
1, 10120, Note_on_c, 0, 80, 80
1, 10121, Note_on_c, 0, 64, 66
1, 10191, Note_off_c, 0, 78, 52
1, 10354, Note_on_c, 0, 73, 83
1, 10373, Control_c, 0, 64, 28
1, 10388, Control_c, 0, 64, 46
1, 10403, Control_c, 0, 64, 53
1, 10418, Control_c, 0, 64, 62
1, 10432, Control_c, 0, 64, 69
1, 10447, Note_off_c, 0, 52, 58
1, 10447, Control_c, 0, 64, 82
1, 10449, Note_off_c, 0, 80, 59
1, 10462, Control_c, 0, 64, 127
1, 10563, Note_on_c, 0, 76, 82
1, 10609, Note_off_c, 0, 73, 62
1, 10789, Control_c, 0, 64, 112
1, 10803, Control_c, 0, 64, 105
1, 10804, Note_on_c, 0, 54, 66
1, 10807, Note_on_c, 0, 66, 69
1, 10818, Control_c, 0, 64, 99
1, 10833, Control_c, 0, 64, 94
1, 10848, Control_c, 0, 64, 89
1, 10863, Control_c, 0, 64, 85
1, 10877, Control_c, 0, 64, 81
1, 10892, Control_c, 0, 64, 76
1, 10907, Control_c, 0, 64, 71
1, 10914, Note_off_c, 0, 76, 54
1, 10929, Control_c, 0, 64, 68
1, 10944, Control_c, 0, 64, 65
1, 10959, Control_c, 0, 64, 64
1, 10974, Control_c, 0, 64, 63
1, 10989, Control_c, 0, 64, 63
1, 11003, Control_c, 0, 64, 62
1, 11018, Control_c, 0, 64, 60
1, 11031, Note_on_c, 0, 70, 76
1, 11033, Control_c, 0, 64, 58
1, 11048, Control_c, 0, 64, 55
1, 11063, Control_c, 0, 64, 54
1, 11079, Control_c, 0, 64, 52
1, 11093, Control_c, 0, 64, 51
1, 11108, Control_c, 0, 64, 49
1, 11123, Control_c, 0, 64, 46
1, 11138, Control_c, 0, 64, 43
1, 11153, Control_c, 0, 64, 41
1, 11168, Control_c, 0, 64, 39
1, 11182, Control_c, 0, 64, 37
1, 11184, Note_off_c, 0, 66, 51
1, 11197, Control_c, 0, 64, 34
1, 11212, Control_c, 0, 64, 30
1, 11226, Control_c, 0, 64, 28
1, 11237, Note_on_c, 0, 73, 77
1, 11241, Control_c, 0, 64, 27
1, 11256, Control_c, 0, 64, 26
1, 11271, Control_c, 0, 64, 24
1, 11286, Control_c, 0, 64, 22
1, 11300, Control_c, 0, 64, 19
1, 11315, Control_c, 0, 64, 18
1, 11330, Control_c, 0, 64, 17
1, 11360, Control_c, 0, 64, 16
1, 11374, Control_c, 0, 64, 15
1, 11399, Note_off_c, 0, 70, 39
1, 11404, Control_c, 0, 64, 14
1, 11433, Control_c, 0, 64, 12
1, 11463, Note_on_c, 0, 78, 70
1, 11463, Control_c, 0, 64, 10
1, 11469, Note_on_c, 0, 63, 70
1, 11493, Control_c, 0, 64, 8
1, 11508, Control_c, 0, 64, 0
1, 11518, Note_off_c, 0, 73, 60
1, 11688, Note_on_c, 0, 76, 73
1, 11702, Note_off_c, 0, 64, 45
1, 11756, Note_off_c, 0, 78, 55
1, 11905, Note_on_c, 0, 78, 77
1, 11994, Note_off_c, 0, 76, 57
1, 12101, Note_on_c, 0, 68, 69
1, 12191, Note_off_c, 0, 78, 58
1, 12316, Note_on_c, 0, 71, 71
1, 12409, Note_off_c, 0, 68, 53
1, 12543, Note_on_c, 0, 75, 71
1, 12737, Note_off_c, 0, 71, 38
1, 12768, Note_on_c, 0, 76, 63
1, 12872, Note_off_c, 0, 75, 57
1, 12992, Note_on_c, 0, 61, 50
1, 13073, Note_off_c, 0, 63, 57
1, 13205, Note_on_c, 0, 59, 60
1, 13272, Note_off_c, 0, 61, 62
1, 13430, Note_on_c, 0, 58, 50
1, 13433, Note_on_c, 0, 66, 53
1, 13509, Note_off_c, 0, 76, 24
1, 13565, Note_off_c, 0, 59, 40
1, 13661, Note_on_c, 0, 70, 55
1, 13775, Note_off_c, 0, 66, 50
1, 13863, Note_on_c, 0, 73, 64
1, 13955, Note_off_c, 0, 70, 53
1, 14084, Note_on_c, 0, 76, 59
1, 14115, Note_off_c, 0, 73, 59
1, 14294, Note_on_c, 0, 75, 60
1, 14365, Note_off_c, 0, 76, 55
1, 14429, Note_off_c, 0, 54, 32
1, 14499, Note_on_c, 0, 49, 40
1, 14502, Note_on_c, 0, 76, 54
1, 14523, Note_off_c, 0, 75, 55
1, 14682, Note_off_c, 0, 49, 64
1, 14745, Note_on_c, 0, 50, 43
1, 14750, Note_on_c, 0, 66, 35
1, 14757, Note_off_c, 0, 76, 50
1, 14973, Note_on_c, 0, 70, 50
1, 15112, Note_off_c, 0, 66, 37
1, 15184, Note_on_c, 0, 73, 57
1, 15277, Note_off_c, 0, 70, 48
1, 15407, Note_on_c, 0, 74, 52
1, 15421, Note_on_c, 0, 59, 42
1, 15511, Note_off_c, 0, 73, 37
1, 15557, Note_off_c, 0, 58, 35
1, 15633, Note_on_c, 0, 52, 43
1, 15658, Control_c, 0, 64, 8
1, 15759, Note_off_c, 0, 50, 35
1, 15843, Note_on_c, 0, 54, 57
1, 15883, Note_off_c, 0, 52, 64
1, 16063, Note_on_c, 0, 55, 50
1, 16079, Note_off_c, 0, 54, 54
1, 16291, Note_on_c, 0, 76, 52
1, 16293, Note_on_c, 0, 61, 46
1, 16319, Note_off_c, 0, 74, 55
1, 16502, Note_on_c, 0, 74, 62
1, 16504, Note_on_c, 0, 62, 58
1, 16513, Note_off_c, 0, 59, 43
1, 16586, Note_off_c, 0, 76, 56
1, 16615, Note_off_c, 0, 61, 56
1, 16720, Note_on_c, 0, 64, 70
1, 16728, Note_on_c, 0, 73, 65
1, 16786, Note_off_c, 0, 74, 59
1, 16853, Control_c, 0, 64, 17
1, 16858, Note_off_c, 0, 62, 61
1, 16867, Control_c, 0, 64, 24
1, 16882, Control_c, 0, 64, 31
1, 16897, Control_c, 0, 64, 39
1, 16918, Control_c, 0, 64, 44
1, 16933, Control_c, 0, 64, 49
1, 16941, Note_on_c, 0, 74, 68
1, 16948, Control_c, 0, 64, 53
1, 16963, Control_c, 0, 64, 57
1, 16977, Note_off_c, 0, 73, 61
1, 16978, Control_c, 0, 64, 63
1, 16993, Control_c, 0, 64, 68
1, 17008, Control_c, 0, 64, 79
1, 17022, Control_c, 0, 64, 106
1, 17037, Control_c, 0, 64, 127
1, 17042, Note_off_c, 0, 55, 53
1, 17151, Note_on_c, 0, 71, 72
1, 17164, Note_off_c, 0, 74, 63
1, 17240, Note_off_c, 0, 71, 60
1, 17352, Note_on_c, 0, 71, 56
1, 17359, Note_on_c, 0, 54, 49
1, 17383, Note_off_c, 0, 71, 65
1, 17399, Note_on_c, 0, 70, 59
1, 17442, Note_off_c, 0, 70, 59
1, 17452, Control_c, 0, 64, 108
1, 17461, Note_on_c, 0, 71, 63
1, 17468, Control_c, 0, 64, 101
1, 17482, Control_c, 0, 64, 97
1, 17497, Control_c, 0, 64, 93
1, 17502, Note_on_c, 0, 70, 67
1, 17512, Control_c, 0, 64, 89
1, 17527, Control_c, 0, 64, 85
1, 17541, Control_c, 0, 64, 81
1, 17544, Note_off_c, 0, 71, 59
1, 17556, Control_c, 0, 64, 77
1, 17571, Control_c, 0, 64, 74
1, 17586, Control_c, 0, 64, 71
1, 17587, Note_on_c, 0, 68, 81
1, 17601, Control_c, 0, 64, 69
1, 17616, Control_c, 0, 64, 67
1, 17631, Control_c, 0, 64, 65
1, 17645, Control_c, 0, 64, 63
1, 17651, Note_off_c, 0, 70, 56
1, 17667, Control_c, 0, 64, 62
1, 17682, Control_c, 0, 64, 61
1, 17697, Control_c, 0, 64, 60
1, 17712, Control_c, 0, 64, 59
1, 17727, Control_c, 0, 64, 59
1, 17741, Control_c, 0, 64, 57
1, 17756, Control_c, 0, 64, 56
1, 17771, Control_c, 0, 64, 54
1, 17786, Control_c, 0, 64, 52
1, 17801, Control_c, 0, 64, 51
1, 17815, Control_c, 0, 64, 51
1, 17826, Note_on_c, 0, 66, 78
1, 17830, Control_c, 0, 64, 50
1, 17845, Control_c, 0, 64, 48
1, 17860, Control_c, 0, 64, 47
1, 17875, Control_c, 0, 64, 45
1, 17890, Control_c, 0, 64, 44
1, 17905, Control_c, 0, 64, 43
1, 17920, Control_c, 0, 64, 42
1, 17935, Control_c, 0, 64, 41
1, 17946, Note_off_c, 0, 68, 62
1, 17949, Control_c, 0, 64, 41
1, 17964, Control_c, 0, 64, 40
1, 17979, Control_c, 0, 64, 40
1, 18009, Control_c, 0, 64, 39
1, 18114, Note_on_c, 0, 79, 72
1, 18171, Control_c, 0, 64, 39
1, 18344, Note_on_c, 0, 56, 44
1, 18346, Note_on_c, 0, 63, 52
1, 18347, Note_on_c, 0, 78, 80
1, 18417, Note_off_c, 0, 66, 43
1, 18428, Note_off_c, 0, 79, 62
1, 18452, Note_off_c, 0, 54, 37
1, 18460, Note_off_c, 0, 64, 62
1, 18569, Note_on_c, 0, 58, 62
1, 18572, Note_on_c, 0, 61, 67
1, 18573, Note_on_c, 0, 77, 79
1, 18609, Note_off_c, 0, 78, 66
1, 18624, Control_c, 0, 64, 38
1, 18629, Note_off_c, 0, 63, 63
1, 18652, Note_off_c, 0, 56, 55
1, 18728, Control_c, 0, 64, 38
1, 18775, Note_on_c, 0, 59, 73
1, 18787, Note_on_c, 0, 76, 71
1, 18787, Control_c, 0, 64, 37
1, 18802, Control_c, 0, 64, 37
1, 18817, Control_c, 0, 64, 36
1, 18846, Control_c, 0, 64, 36
1, 18861, Control_c, 0, 64, 35
1, 18870, Note_off_c, 0, 77, 54
1, 18888, Note_off_c, 0, 58, 56
1, 18890, Control_c, 0, 64, 34
1, 18920, Control_c, 0, 64, 34
1, 18935, Control_c, 0, 64, 33
1, 18950, Control_c, 0, 64, 33
1, 18964, Control_c, 0, 64, 31
1, 18972, Note_off_c, 0, 61, 53
1, 18979, Control_c, 0, 64, 31
1, 18994, Note_on_c, 0, 75, 78
1, 18994, Control_c, 0, 64, 30
1, 19008, Control_c, 0, 64, 29
1, 19023, Control_c, 0, 64, 28
1, 19038, Control_c, 0, 64, 28
1, 19053, Control_c, 0, 64, 27
1, 19069, Control_c, 0, 64, 26
1, 19081, Note_off_c, 0, 76, 60
1, 19099, Control_c, 0, 64, 25
1, 19113, Control_c, 0, 64, 24
1, 19128, Control_c, 0, 64, 22
1, 19143, Control_c, 0, 64, 20
1, 19166, Control_c, 0, 64, 18
1, 19181, Control_c, 0, 64, 16
1, 19195, Control_c, 0, 64, 14
1, 19210, Note_on_c, 0, 53, 57
1, 19210, Control_c, 0, 64, 10
1, 19213, Note_on_c, 0, 74, 75
1, 19225, Control_c, 0, 64, 0
1, 19264, Note_off_c, 0, 75, 61
1, 19435, Note_on_c, 0, 54, 57
1, 19447, Note_on_c, 0, 73, 67
1, 19450, Note_off_c, 0, 53, 39
1, 19473, Note_off_c, 0, 74, 61
1, 19547, Note_on_c, 0, 75, 70
1, 19580, Note_off_c, 0, 73, 61
1, 19659, Note_on_c, 0, 58, 41
1, 19663, Note_on_c, 0, 76, 70
1, 19689, Note_off_c, 0, 59, 56
1, 19705, Note_off_c, 0, 75, 62
1, 19831, Control_c, 0, 64, 32
1, 19846, Control_c, 0, 64, 49
1, 19863, Control_c, 0, 64, 61
1, 19869, Note_off_c, 0, 58, 63
1, 19878, Control_c, 0, 64, 68
1, 19892, Control_c, 0, 64, 83
1, 19899, Note_on_c, 0, 70, 69
1, 19902, Note_on_c, 0, 64, 52
1, 19902, Note_off_c, 0, 54, 58
1, 19914, Control_c, 0, 64, 127
1, 19921, Note_off_c, 0, 76, 59
1, 20020, Note_off_c, 0, 70, 59
1, 20122, Control_c, 0, 64, 109
1, 20136, Control_c, 0, 64, 102
1, 20144, Note_on_c, 0, 47, 40
1, 20151, Control_c, 0, 64, 96
1, 20166, Control_c, 0, 64, 91
1, 20168, Note_on_c, 0, 71, 62
1, 20179, Note_on_c, 0, 63, 49
1, 20181, Control_c, 0, 64, 86
1, 20196, Control_c, 0, 64, 82
1, 20210, Control_c, 0, 64, 78
1, 20225, Control_c, 0, 64, 74
1, 20240, Control_c, 0, 64, 71
1, 20255, Control_c, 0, 64, 67
1, 20260, Note_off_c, 0, 64, 33
1, 20269, Control_c, 0, 64, 66
1, 20284, Control_c, 0, 64, 64
1, 20299, Control_c, 0, 64, 64
1, 20314, Control_c, 0, 64, 63
1, 20328, Control_c, 0, 64, 62
1, 20343, Control_c, 0, 64, 60
1, 20358, Control_c, 0, 64, 58
1, 20373, Control_c, 0, 64, 56
1, 20381, Note_on_c, 0, 51, 49
1, 20388, Control_c, 0, 64, 55
1, 20403, Control_c, 0, 64, 53
1, 20418, Control_c, 0, 64, 51
1, 20433, Control_c, 0, 64, 49
1, 20447, Control_c, 0, 64, 46
1, 20462, Control_c, 0, 64, 43
1, 20477, Control_c, 0, 64, 41
1, 20492, Control_c, 0, 64, 40
1, 20507, Control_c, 0, 64, 38
1, 20522, Control_c, 0, 64, 35
1, 20536, Control_c, 0, 64, 33
1, 20551, Control_c, 0, 64, 31
1, 20566, Control_c, 0, 64, 29
1, 20581, Control_c, 0, 64, 27
1, 20591, Note_on_c, 0, 54, 54
1, 20596, Control_c, 0, 64, 25
1, 20608, Note_off_c, 0, 47, 38
1, 20610, Control_c, 0, 64, 24
1, 20625, Control_c, 0, 64, 22
1, 20640, Control_c, 0, 64, 20
1, 20663, Control_c, 0, 64, 18
1, 20678, Control_c, 0, 64, 15
1, 20693, Control_c, 0, 64, 12
1, 20695, Note_off_c, 0, 51, 54
1, 20708, Control_c, 0, 64, 8
1, 20722, Control_c, 0, 64, 0
1, 20807, Note_on_c, 0, 59, 54
1, 20886, Note_off_c, 0, 54, 62
1, 21023, Note_on_c, 0, 57, 67
1, 21115, Note_off_c, 0, 59, 55
1, 21230, Note_on_c, 0, 59, 65
1, 21249, Note_off_c, 0, 63, 63
1, 21324, Note_off_c, 0, 57, 58
1, 21461, Note_on_c, 0, 56, 60
1, 21690, Note_on_c, 0, 75, 62
1, 21778, Note_off_c, 0, 59, 32
1, 21863, Note_off_c, 0, 71, 28
1, 21896, Note_on_c, 0, 78, 78
1, 22053, Note_off_c, 0, 75, 38
1, 22111, Note_on_c, 0, 83, 79
1, 22182, Note_off_c, 0, 78, 58
1, 22317, Note_on_c, 0, 54, 43
1, 22331, Note_on_c, 0, 81, 73
1, 22398, Control_c, 0, 64, 8
1, 22403, Note_off_c, 0, 56, 57
1, 22418, Note_off_c, 0, 83, 55
1, 22442, Control_c, 0, 64, 10
1, 22540, Note_on_c, 0, 56, 60
1, 22543, Note_on_c, 0, 83, 82
1, 22591, Control_c, 0, 64, 12
1, 22644, Note_off_c, 0, 81, 56
1, 22680, Note_off_c, 0, 54, 51
1, 22746, Note_on_c, 0, 53, 63
1, 22763, Note_on_c, 0, 73, 80
1, 22838, Note_off_c, 0, 56, 59
1, 22877, Note_off_c, 0, 83, 58
1, 22976, Note_on_c, 0, 56, 59
1, 22986, Note_on_c, 0, 77, 81
1, 23060, Note_off_c, 0, 73, 54
1, 23187, Note_on_c, 0, 59, 61
1, 23193, Note_on_c, 0, 80, 85
1, 23308, Note_off_c, 0, 56, 53
1, 23342, Note_off_c, 0, 77, 50
1, 23413, Note_on_c, 0, 83, 83
1, 23415, Note_on_c, 0, 62, 56
1, 23457, Control_c, 0, 64, 10
1, 23486, Control_c, 0, 64, 8
1, 23488, Note_off_c, 0, 80, 59
1, 23491, Note_off_c, 0, 59, 61
1, 23516, Control_c, 0, 64, 0
1, 23624, Note_on_c, 0, 59, 62
1, 23723, Note_off_c, 0, 62, 62
1, 23854, Note_on_c, 0, 61, 60
1, 23945, Note_off_c, 0, 59, 58
1, 24069, Note_on_c, 0, 54, 51
1, 24129, Note_off_c, 0, 53, 36
1, 24302, Note_on_c, 0, 80, 61
1, 24390, Note_off_c, 0, 83, 55
1, 24526, Note_on_c, 0, 81, 61
1, 24660, Note_off_c, 0, 80, 49
1, 24762, Note_on_c, 0, 59, 49
1, 24772, Note_on_c, 0, 50, 36
1, 24924, Note_off_c, 0, 54, 37
1, 24990, Note_on_c, 0, 78, 66
1, 25044, Note_off_c, 0, 61, 33
1, 25059, Note_off_c, 0, 81, 62
1, 25217, Note_on_c, 0, 80, 71
1, 25405, Note_off_c, 0, 78, 53
1, 25440, Note_on_c, 0, 60, 61
1, 25455, Note_on_c, 0, 51, 61
1, 25524, Note_off_c, 0, 50, 50
1, 25622, Note_off_c, 0, 59, 64
1, 25661, Note_on_c, 0, 77, 70
1, 25735, Note_off_c, 0, 80, 62
1, 25777, Control_c, 0, 64, 32
1, 25792, Control_c, 0, 64, 46
1, 25807, Control_c, 0, 64, 51
1, 25821, Control_c, 0, 64, 57
1, 25836, Control_c, 0, 64, 64
1, 25851, Control_c, 0, 64, 73
1, 25866, Control_c, 0, 64, 91
1, 25878, Note_on_c, 0, 78, 77
1, 25881, Control_c, 0, 64, 127
1, 25936, Note_off_c, 0, 60, 60
1, 25947, Note_off_c, 0, 77, 52
1, 26105, Note_on_c, 0, 77, 70
1, 26107, Note_on_c, 0, 49, 52
1, 26107, Note_off_c, 0, 78, 62
1, 26113, Note_on_c, 0, 61, 54
1, 26125, Control_c, 0, 64, 107
1, 26140, Control_c, 0, 64, 98
1, 26154, Control_c, 0, 64, 92
1, 26169, Control_c, 0, 64, 88
1, 26184, Control_c, 0, 64, 85
1, 26199, Control_c, 0, 64, 81
1, 26203, Note_off_c, 0, 51, 41
1, 26205, Note_on_c, 0, 78, 76
1, 26214, Control_c, 0, 64, 76
1, 26229, Control_c, 0, 64, 72
1, 26244, Control_c, 0, 64, 69
1, 26256, Note_off_c, 0, 77, 55
1, 26260, Control_c, 0, 64, 66
1, 26275, Control_c, 0, 64, 62
1, 26290, Control_c, 0, 64, 57
1, 26305, Control_c, 0, 64, 44
1, 26320, Control_c, 0, 64, 0
1, 26320, Note_on_c, 0, 80, 80
1, 26365, Note_off_c, 0, 78, 59
1, 26467, Control_c, 0, 64, 39
1, 26482, Control_c, 0, 64, 55
1, 26497, Control_c, 0, 64, 65
1, 26512, Control_c, 0, 64, 73
1, 26526, Control_c, 0, 64, 88
1, 26541, Control_c, 0, 64, 127
1, 26543, Note_off_c, 0, 49, 54
1, 26555, Note_on_c, 0, 73, 85
1, 26559, Note_off_c, 0, 61, 51
1, 26606, Note_off_c, 0, 80, 60
1, 26734, Note_off_c, 0, 73, 60
1, 26831, Note_on_c, 0, 47, 61
1, 26838, Note_on_c, 0, 74, 79
1, 26845, Control_c, 0, 64, 117
1, 26859, Control_c, 0, 64, 108
1, 26874, Control_c, 0, 64, 100
1, 26889, Control_c, 0, 64, 95
1, 26904, Control_c, 0, 64, 91
1, 26919, Control_c, 0, 64, 87
1, 26934, Control_c, 0, 64, 83
1, 26949, Control_c, 0, 64, 78
1, 26964, Control_c, 0, 64, 74
1, 26978, Control_c, 0, 64, 70
1, 26993, Control_c, 0, 64, 68
1, 27008, Control_c, 0, 64, 67
1, 27023, Control_c, 0, 64, 66
1, 27038, Control_c, 0, 64, 65
1, 27053, Control_c, 0, 64, 64
1, 27068, Control_c, 0, 64, 62
1, 27083, Control_c, 0, 64, 62
1, 27092, Note_on_c, 0, 71, 61
1, 27098, Control_c, 0, 64, 61
1, 27101, Note_on_c, 0, 50, 53
1, 27113, Control_c, 0, 64, 60
1, 27127, Control_c, 0, 64, 60
1, 27142, Control_c, 0, 64, 58
1, 27157, Control_c, 0, 64, 57
1, 27172, Control_c, 0, 64, 55
1, 27187, Control_c, 0, 64, 54
1, 27201, Control_c, 0, 64, 53
1, 27216, Control_c, 0, 64, 52
1, 27231, Control_c, 0, 64, 51
1, 27246, Control_c, 0, 64, 50
1, 27261, Control_c, 0, 64, 49
1, 27275, Control_c, 0, 64, 48
1, 27290, Control_c, 0, 64, 46
1, 27297, Note_on_c, 0, 68, 73
1, 27303, Note_on_c, 0, 53, 60
1, 27305, Control_c, 0, 64, 44
1, 27319, Control_c, 0, 64, 42
1, 27334, Control_c, 0, 64, 41
1, 27349, Control_c, 0, 64, 41
1, 27364, Control_c, 0, 64, 40
1, 27379, Control_c, 0, 64, 40
1, 27385, Note_off_c, 0, 71, 52
1, 27416, Control_c, 0, 64, 39
1, 27431, Control_c, 0, 64, 38
1, 27446, Control_c, 0, 64, 38
1, 27461, Control_c, 0, 64, 37
1, 27475, Control_c, 0, 64, 36
1, 27490, Control_c, 0, 64, 35
1, 27499, Note_off_c, 0, 50, 27
1, 27505, Control_c, 0, 64, 34
1, 27509, Note_on_c, 0, 56, 64
1, 27512, Note_on_c, 0, 65, 69
1, 27520, Control_c, 0, 64, 34
1, 27534, Control_c, 0, 64, 33
1, 27549, Control_c, 0, 64, 32
1, 27564, Control_c, 0, 64, 32
1, 27579, Control_c, 0, 64, 31
1, 27594, Control_c, 0, 64, 31
1, 27602, Note_off_c, 0, 68, 58
1, 27608, Control_c, 0, 64, 30
1, 27623, Note_off_c, 0, 53, 54
1, 27638, Control_c, 0, 64, 30
1, 27712, Control_c, 0, 64, 29
1, 27718, Note_on_c, 0, 68, 71
1, 27719, Note_on_c, 0, 59, 67
1, 27816, Note_off_c, 0, 56, 55
1, 27925, Note_on_c, 0, 57, 66
1, 27926, Note_on_c, 0, 66, 75
1, 27947, Note_off_c, 0, 65, 55
1, 27980, Note_off_c, 0, 68, 60
1, 27993, Note_off_c, 0, 47, 32
1, 28039, Note_off_c, 0, 59, 52
1, 28132, Note_on_c, 0, 59, 67
1, 28147, Note_on_c, 0, 68, 66
1, 28198, Note_off_c, 0, 66, 60
1, 28236, Note_off_c, 0, 57, 59
1, 28348, Note_on_c, 0, 71, 67
1, 28359, Note_on_c, 0, 56, 58
1, 28414, Note_off_c, 0, 68, 56
1, 28461, Control_c, 0, 64, 30
1, 28554, Note_off_c, 0, 59, 31
1, 28561, Note_on_c, 0, 69, 69
1, 28566, Note_on_c, 0, 54, 55
1, 28617, Note_off_c, 0, 56, 60
1, 28630, Note_off_c, 0, 71, 56
1, 28767, Note_off_c, 0, 74, 55
1, 28767, Note_on_c, 0, 71, 65
1, 28769, Note_on_c, 0, 56, 55
1, 28791, Note_off_c, 0, 54, 59
1, 28849, Note_off_c, 0, 69, 54
1, 28864, Note_on_c, 0, 57, 65
1, 28884, Note_off_c, 0, 56, 60
1, 28958, Control_c, 0, 64, 29
1, 28973, Control_c, 0, 64, 28
1, 28988, Control_c, 0, 64, 26
1, 28989, Note_on_c, 0, 59, 60
1, 28990, Note_on_c, 0, 74, 70
1, 29003, Control_c, 0, 64, 24
1, 29018, Control_c, 0, 64, 18
1, 29032, Control_c, 0, 64, 8
1, 29037, Note_off_c, 0, 57, 59
1, 29047, Control_c, 0, 64, 0
1, 29197, Note_on_c, 0, 53, 50
1, 29199, Note_on_c, 0, 73, 77
1, 29229, Note_off_c, 0, 74, 63
1, 29253, Control_c, 0, 64, 29
1, 29268, Control_c, 0, 64, 53
1, 29283, Control_c, 0, 64, 64
1, 29298, Control_c, 0, 64, 73
1, 29313, Control_c, 0, 64, 88
1, 29328, Control_c, 0, 64, 127
1, 29367, Note_off_c, 0, 73, 63
1, 29439, Note_on_c, 0, 54, 55
1, 29447, Control_c, 0, 64, 118
1, 29454, Note_on_c, 0, 73, 75
1, 29462, Control_c, 0, 64, 106
1, 29477, Control_c, 0, 64, 96
1, 29492, Control_c, 0, 64, 90
1, 29506, Control_c, 0, 64, 85
1, 29513, Note_off_c, 0, 53, 33
1, 29521, Control_c, 0, 64, 82
1, 29536, Control_c, 0, 64, 78
1, 29551, Control_c, 0, 64, 73
1, 29566, Control_c, 0, 64, 69
1, 29581, Control_c, 0, 64, 65
1, 29583, Note_off_c, 0, 59, 8
1, 29595, Control_c, 0, 64, 64
1, 29603, Note_off_c, 0, 71, 52
1, 29610, Control_c, 0, 64, 64
1, 29625, Control_c, 0, 64, 63
1, 29647, Control_c, 0, 64, 63
1, 29662, Control_c, 0, 64, 61
1, 29676, Control_c, 0, 64, 59
1, 29691, Control_c, 0, 64, 58
1, 29695, Note_on_c, 0, 69, 70
1, 29706, Control_c, 0, 64, 57
1, 29721, Control_c, 0, 64, 56
1, 29736, Control_c, 0, 64, 55
1, 29751, Control_c, 0, 64, 54
1, 29766, Control_c, 0, 64, 52
1, 29781, Control_c, 0, 64, 51
1, 29795, Control_c, 0, 64, 50
1, 29810, Control_c, 0, 64, 49
1, 29825, Control_c, 0, 64, 47
1, 29840, Control_c, 0, 64, 46
1, 29855, Control_c, 0, 64, 44
1, 29869, Control_c, 0, 64, 42
1, 29884, Control_c, 0, 64, 41
1, 29899, Control_c, 0, 64, 40
1, 29906, Note_on_c, 0, 68, 71
1, 29914, Control_c, 0, 64, 39
1, 29928, Control_c, 0, 64, 38
1, 29943, Control_c, 0, 64, 36
1, 29958, Control_c, 0, 64, 34
1, 29974, Control_c, 0, 64, 32
1, 29988, Note_off_c, 0, 69, 56
1, 29989, Control_c, 0, 64, 30
1, 30003, Control_c, 0, 64, 29
1, 30018, Control_c, 0, 64, 28
1, 30033, Control_c, 0, 64, 27
1, 30048, Control_c, 0, 64, 26
1, 30092, Control_c, 0, 64, 26
1, 30107, Control_c, 0, 64, 25
1, 30121, Control_c, 0, 64, 24
1, 30128, Note_on_c, 0, 66, 65
1, 30129, Note_on_c, 0, 45, 58
1, 30136, Control_c, 0, 64, 23
1, 30151, Control_c, 0, 64, 22
1, 30210, Control_c, 0, 64, 21
1, 30302, Note_off_c, 0, 68, 49
1, 30353, Note_on_c, 0, 71, 61
1, 30377, Note_off_c, 0, 54, 43
1, 30549, Note_off_c, 0, 73, 45
1, 30564, Note_on_c, 0, 69, 70
1, 30655, Note_off_c, 0, 71, 57
1, 30768, Note_on_c, 0, 68, 68
1, 30775, Note_on_c, 0, 47, 54
1, 30851, Note_off_c, 0, 69, 55
1, 30982, Note_off_c, 0, 45, 36
1, 30992, Note_on_c, 0, 69, 66
1, 31043, Note_off_c, 0, 68, 58
1, 31221, Note_on_c, 0, 71, 60
1, 31315, Note_off_c, 0, 69, 57
1, 31444, Note_on_c, 0, 49, 37
1, 31455, Note_on_c, 0, 65, 49
1, 31617, Note_off_c, 0, 47, 31
1, 31676, Note_on_c, 0, 69, 55
1, 31682, Note_off_c, 0, 66, 33
1, 31757, Note_off_c, 0, 71, 51
1, 31900, Note_on_c, 0, 68, 58
1, 31906, Note_off_c, 0, 69, 57
1, 32123, Note_on_c, 0, 66, 41
1, 32125, Note_on_c, 0, 42, 38
1, 32130, Note_on_c, 0, 69, 51
1, 32206, Note_off_c, 0, 68, 36
1, 32235, Note_off_c, 0, 65, 37
1, 32236, Note_off_c, 0, 49, 43
1, 32356, Note_on_c, 0, 45, 29
1, 32470, Note_off_c, 0, 42, 38
1, 32541, Note_on_c, 0, 49, 40
1, 32622, Note_off_c, 0, 45, 41
1, 32769, Note_on_c, 0, 54, 48
1, 32791, Note_off_c, 0, 49, 61
1, 32980, Note_on_c, 0, 71, 49
1, 32982, Note_on_c, 0, 52, 45
1, 33027, Note_off_c, 0, 54, 47
1, 33132, Note_off_c, 0, 69, 36
1, 33176, Note_on_c, 0, 54, 48
1, 33195, Note_on_c, 0, 68, 61
1, 33197, Note_on_c, 0, 64, 49
1, 33215, Note_off_c, 0, 71, 57
1, 33232, Note_off_c, 0, 52, 60
1, 33253, Note_off_c, 0, 66, 55
1, 33432, Note_on_c, 0, 47, 34
1, 33432, Note_on_c, 0, 69, 63
1, 33448, Note_on_c, 0, 63, 42
1, 33494, Note_off_c, 0, 68, 54
1, 33511, Note_off_c, 0, 64, 37
1, 33546, Note_off_c, 0, 54, 37
1, 33655, Note_on_c, 0, 51, 39
1, 33715, Note_off_c, 0, 47, 39
1, 33859, Note_on_c, 0, 54, 48
1, 33915, Note_off_c, 0, 51, 43
1, 33943, Note_off_c, 0, 63, 43
1, 34056, Note_on_c, 0, 59, 44
1, 34078, Note_off_c, 0, 54, 58
1, 34266, Note_off_c, 0, 69, 44
1, 34293, Note_on_c, 0, 57, 40
1, 34300, Note_on_c, 0, 71, 43
1, 34326, Note_off_c, 0, 59, 39
1, 34395, Note_on_c, 0, 69, 53
1, 34422, Note_off_c, 0, 71, 48
1, 34495, Note_on_c, 0, 68, 51
1, 34501, Note_on_c, 0, 59, 40
1, 34502, Note_off_c, 0, 57, 56
1, 34523, Note_off_c, 0, 69, 50
1, 34592, Note_off_c, 0, 68, 56
1, 34592, Note_on_c, 0, 66, 48
1, 34677, Note_off_c, 0, 66, 60
1, 34698, Note_on_c, 0, 68, 45
1, 34701, Note_on_c, 0, 52, 35
1, 34779, Note_off_c, 0, 59, 35
1, 34799, Note_on_c, 0, 66, 45
1, 34809, Note_off_c, 0, 68, 49
1, 34893, Note_off_c, 0, 66, 58
1, 34912, Note_on_c, 0, 64, 50
1, 34923, Note_on_c, 0, 56, 35
1, 35000, Note_off_c, 0, 64, 56
1, 35003, Note_on_c, 0, 66, 42
1, 35095, Note_off_c, 0, 52, 38
1, 35098, Note_on_c, 0, 59, 59
1, 35126, Note_on_c, 0, 68, 50
1, 35189, Note_off_c, 0, 68, 57
1, 35203, Note_on_c, 0, 69, 61
1, 35212, Note_off_c, 0, 66, 30
1, 35220, Note_off_c, 0, 56, 43
1, 35310, Note_on_c, 0, 64, 61
1, 35310, Note_off_c, 0, 69, 59
1, 35315, Note_on_c, 0, 71, 58
1, 35372, Note_off_c, 0, 59, 63
1, 35403, Note_off_c, 0, 71, 62
1, 35413, Note_on_c, 0, 69, 62
1, 35516, Note_on_c, 0, 62, 65
1, 35516, Note_off_c, 0, 69, 62
1, 35516, Note_on_c, 0, 68, 64
1, 35578, Note_off_c, 0, 64, 62
1, 35611, Note_on_c, 0, 69, 75
1, 35619, Note_off_c, 0, 68, 62
1, 35715, Note_on_c, 0, 61, 55
1, 35722, Note_on_c, 0, 71, 71
1, 35755, Note_off_c, 0, 69, 56
1, 35779, Note_off_c, 0, 62, 61
1, 35808, Note_on_c, 0, 73, 70
1, 35869, Note_off_c, 0, 71, 57
1, 35909, Note_on_c, 0, 59, 57
1, 35922, Note_on_c, 0, 74, 69
1, 35927, Note_off_c, 0, 73, 62
1, 35995, Note_off_c, 0, 61, 46
1, 36016, Note_on_c, 0, 73, 72
1, 36070, Note_off_c, 0, 74, 56
1, 36110, Note_on_c, 0, 71, 74
1, 36143, Note_off_c, 0, 73, 62
1, 36209, Note_on_c, 0, 69, 76
1, 36211, Note_off_c, 0, 71, 63
1, 36289, Control_c, 0, 64, 19
1, 36303, Control_c, 0, 64, 17
1, 36315, Note_on_c, 0, 68, 69
1, 36318, Control_c, 0, 64, 16
1, 36324, Note_on_c, 0, 57, 46
1, 36328, Note_off_c, 0, 69, 59
1, 36330, Note_off_c, 0, 59, 54
1, 36333, Control_c, 0, 64, 14
1, 36348, Control_c, 0, 64, 10
1, 36363, Control_c, 0, 64, 0
1, 36414, Note_on_c, 0, 66, 66
1, 36454, Note_off_c, 0, 68, 59
1, 36503, Note_off_c, 0, 57, 51
1, 36523, Note_on_c, 0, 56, 35
1, 36532, Note_on_c, 0, 64, 60
1, 36542, Note_off_c, 0, 66, 56
1, 36638, Note_on_c, 0, 62, 51
1, 36653, Control_c, 0, 64, 27
1, 36667, Control_c, 0, 64, 48
1, 36680, Note_off_c, 0, 56, 37
1, 36682, Control_c, 0, 64, 59
1, 36697, Control_c, 0, 64, 66
1, 36712, Control_c, 0, 64, 72
1, 36715, Note_off_c, 0, 64, 59
1, 36726, Note_off_c, 0, 62, 62
1, 36727, Control_c, 0, 64, 81
1, 36737, Note_on_c, 0, 61, 62
1, 36741, Control_c, 0, 64, 89
1, 36756, Control_c, 0, 64, 91
1, 36771, Control_c, 0, 64, 90
1, 36786, Control_c, 0, 64, 88
1, 36801, Control_c, 0, 64, 85
1, 36816, Control_c, 0, 64, 81
1, 36821, Note_off_c, 0, 61, 62
1, 36831, Note_on_c, 0, 59, 77
1, 36831, Control_c, 0, 64, 78
1, 36845, Control_c, 0, 64, 74
1, 36860, Control_c, 0, 64, 71
1, 36875, Control_c, 0, 64, 67
1, 36890, Control_c, 0, 64, 64
1, 36905, Control_c, 0, 64, 61
1, 36920, Control_c, 0, 64, 57
1, 36934, Control_c, 0, 64, 52
1, 36938, Note_on_c, 0, 57, 70
1, 36948, Note_off_c, 0, 59, 58
1, 36949, Control_c, 0, 64, 48
1, 36964, Control_c, 0, 64, 42
1, 36978, Control_c, 0, 64, 34
1, 36993, Control_c, 0, 64, 21
1, 37008, Control_c, 0, 64, 0
1, 37039, Note_on_c, 0, 56, 67
1, 37077, Note_off_c, 0, 57, 61
1, 37205, Note_on_c, 0, 69, 74
1, 37207, Note_on_c, 0, 57, 64
1, 37358, Note_off_c, 0, 56, 51
1, 37432, Note_on_c, 0, 73, 77
1, 37638, Note_on_c, 0, 76, 78
1, 37735, Note_off_c, 0, 69, 33
1, 37844, Note_on_c, 0, 81, 72
1, 37852, Note_on_c, 0, 61, 47
1, 37858, Note_off_c, 0, 73, 30
1, 37902, Note_off_c, 0, 76, 63
1, 38076, Note_on_c, 0, 80, 75
1, 38143, Note_off_c, 0, 81, 59
1, 38284, Note_on_c, 0, 81, 68
1, 38330, Note_off_c, 0, 80, 63
1, 38489, Note_off_c, 0, 81, 60
1, 38503, Note_on_c, 0, 80, 58
1, 38513, Note_on_c, 0, 62, 54
1, 38553, Note_off_c, 0, 80, 61
1, 38570, Note_on_c, 0, 78, 63
1, 38607, Note_off_c, 0, 78, 63
1, 38617, Note_on_c, 0, 80, 53
1, 38650, Note_off_c, 0, 61, 38
1, 38676, Note_on_c, 0, 78, 72
1, 38684, Note_off_c, 0, 80, 65
1, 38742, Note_on_c, 0, 76, 75
1, 38807, Note_off_c, 0, 78, 58
1, 38944, Note_on_c, 0, 78, 77
1, 39067, Note_off_c, 0, 76, 54
1, 39174, Note_on_c, 0, 81, 70
1, 39335, Note_off_c, 0, 78, 60
1, 39403, Note_on_c, 0, 61, 46
1, 39597, Note_on_c, 0, 59, 59
1, 39633, Note_off_c, 0, 62, 31
1, 39683, Note_off_c, 0, 61, 58
1, 39773, Note_off_c, 0, 81, 50
1, 39816, Note_on_c, 0, 61, 56
1, 39825, Note_on_c, 0, 78, 53
1, 39871, Note_off_c, 0, 78, 63
1, 39886, Note_on_c, 0, 76, 55
1, 39931, Note_off_c, 0, 76, 63
1, 39946, Note_on_c, 0, 78, 63
1, 39950, Note_off_c, 0, 59, 52
1, 39984, Note_on_c, 0, 76, 60
1, 40004, Note_off_c, 0, 78, 63
1, 40047, Note_on_c, 0, 74, 67
1, 40086, Note_off_c, 0, 76, 57
1, 40265, Note_on_c, 0, 76, 67
1, 40353, Note_off_c, 0, 74, 55
1, 40496, Note_on_c, 0, 81, 61
1, 40619, Note_off_c, 0, 76, 59
1, 40705, Note_on_c, 0, 62, 45
1, 40779, Note_off_c, 0, 61, 57
1, 40923, Note_on_c, 0, 61, 56
1, 40998, Note_off_c, 0, 62, 60
1, 41144, Note_on_c, 0, 59, 56
1, 41152, Note_on_c, 0, 74, 49
1, 41265, Note_off_c, 0, 81, 40
1, 41296, Note_off_c, 0, 61, 37
1, 41374, Note_on_c, 0, 76, 58
1, 41505, Note_off_c, 0, 74, 50
1, 41586, Note_on_c, 0, 78, 72
1, 41679, Note_off_c, 0, 76, 58
1, 41803, Note_on_c, 0, 76, 66
1, 41818, Note_on_c, 0, 56, 32
1, 41862, Note_off_c, 0, 78, 59
1, 41870, Note_off_c, 0, 57, 53
1, 41954, Control_c, 0, 64, 29
1, 41969, Control_c, 0, 64, 46
1, 41984, Control_c, 0, 64, 56
1, 41999, Control_c, 0, 64, 63
1, 42013, Control_c, 0, 64, 68
1, 42027, Note_on_c, 0, 78, 74
1, 42027, Note_off_c, 0, 59, 52
1, 42028, Control_c, 0, 64, 77
1, 42043, Control_c, 0, 64, 93
1, 42057, Control_c, 0, 64, 127
1, 42079, Note_off_c, 0, 76, 58
1, 42103, Note_off_c, 0, 56, 47
1, 42246, Note_on_c, 0, 74, 67
1, 42257, Note_off_c, 0, 78, 61
1, 42310, Control_c, 0, 64, 117
1, 42325, Control_c, 0, 64, 110
1, 42340, Control_c, 0, 64, 104
1, 42354, Control_c, 0, 64, 98
1, 42377, Control_c, 0, 64, 93
1, 42392, Control_c, 0, 64, 88
1, 42407, Control_c, 0, 64, 83
1, 42422, Control_c, 0, 64, 79
1, 42436, Control_c, 0, 64, 75
1, 42451, Control_c, 0, 64, 72
1, 42466, Note_on_c, 0, 45, 36
1, 42466, Control_c, 0, 64, 70
1, 42476, Note_on_c, 0, 73, 60
1, 42480, Control_c, 0, 64, 69
1, 42487, Note_off_c, 0, 74, 57
1, 42495, Control_c, 0, 64, 68
1, 42510, Control_c, 0, 64, 66
1, 42525, Control_c, 0, 64, 65
1, 42540, Control_c, 0, 64, 64
1, 42554, Control_c, 0, 64, 64
1, 42584, Control_c, 0, 64, 63
1, 42599, Control_c, 0, 64, 62
1, 42614, Control_c, 0, 64, 61
1, 42628, Control_c, 0, 64, 59
1, 42643, Control_c, 0, 64, 59
1, 42658, Control_c, 0, 64, 58
1, 42673, Control_c, 0, 64, 57
1, 42676, Note_on_c, 0, 49, 38
1, 42688, Control_c, 0, 64, 56
1, 42697, Note_on_c, 0, 69, 56
1, 42703, Control_c, 0, 64, 54
1, 42718, Control_c, 0, 64, 51
1, 42733, Control_c, 0, 64, 50
1, 42748, Control_c, 0, 64, 49
1, 42762, Control_c, 0, 64, 48
1, 42777, Control_c, 0, 64, 47
1, 42780, Note_off_c, 0, 73, 57
1, 42792, Control_c, 0, 64, 45
1, 42806, Control_c, 0, 64, 44
1, 42821, Control_c, 0, 64, 44
1, 42836, Control_c, 0, 64, 43
1, 42851, Control_c, 0, 64, 42
1, 42864, Note_off_c, 0, 45, 36
1, 42866, Control_c, 0, 64, 42
1, 42880, Control_c, 0, 64, 41
1, 42893, Note_on_c, 0, 52, 51
1, 42902, Note_on_c, 0, 71, 65
1, 42925, Control_c, 0, 64, 40
1, 42940, Control_c, 0, 64, 39
1, 42954, Control_c, 0, 64, 39
1, 42972, Note_off_c, 0, 69, 51
1, 42996, Note_off_c, 0, 49, 47
1, 43128, Note_on_c, 0, 73, 66
1, 43135, Note_on_c, 0, 57, 45
1, 43177, Note_off_c, 0, 52, 59
1, 43228, Note_off_c, 0, 71, 56
1, 43341, Note_on_c, 0, 56, 57
1, 43412, Note_off_c, 0, 57, 55
1, 43548, Note_on_c, 0, 57, 58
1, 43555, Control_c, 0, 64, 39
1, 43678, Note_off_c, 0, 56, 56
1, 43718, Control_c, 0, 64, 40
1, 43771, Note_on_c, 0, 51, 59
1, 43952, Note_off_c, 0, 57, 56
1, 44008, Note_on_c, 0, 71, 53
1, 44092, Note_off_c, 0, 73, 32
1, 44126, Control_c, 0, 64, 39
1, 44156, Control_c, 0, 64, 39
1, 44186, Control_c, 0, 64, 38
1, 44199, Control_c, 0, 64, 37
1, 44214, Control_c, 0, 64, 35
1, 44217, Note_on_c, 0, 54, 53
1, 44220, Note_on_c, 0, 69, 57
1, 44229, Control_c, 0, 64, 34
1, 44241, Note_off_c, 0, 71, 61
1, 44243, Control_c, 0, 64, 32
1, 44258, Control_c, 0, 64, 30
1, 44273, Control_c, 0, 64, 28
1, 44288, Control_c, 0, 64, 25
1, 44303, Control_c, 0, 64, 20
1, 44317, Control_c, 0, 64, 15
1, 44332, Note_off_c, 0, 54, 57
1, 44332, Control_c, 0, 64, 0
1, 44447, Note_on_c, 0, 59, 64
1, 44448, Note_on_c, 0, 68, 60
1, 44459, Note_off_c, 0, 69, 55
1, 44652, Control_c, 0, 64, 41
1, 44667, Control_c, 0, 64, 59
1, 44669, Note_on_c, 0, 69, 72
1, 44681, Control_c, 0, 64, 65
1, 44694, Note_off_c, 0, 59, 63
1, 44696, Control_c, 0, 64, 73
1, 44707, Note_off_c, 0, 68, 60
1, 44711, Control_c, 0, 64, 89
1, 44726, Control_c, 0, 64, 127
1, 44766, Note_off_c, 0, 51, 60
1, 44882, Note_on_c, 0, 66, 74
1, 44978, Control_c, 0, 64, 110
1, 44986, Note_off_c, 0, 69, 55
1, 44993, Control_c, 0, 64, 103
1, 45008, Control_c, 0, 64, 99
1, 45022, Control_c, 0, 64, 97
1, 45037, Control_c, 0, 64, 94
1, 45052, Control_c, 0, 64, 92
1, 45067, Control_c, 0, 64, 89
1, 45082, Control_c, 0, 64, 86
1, 45097, Control_c, 0, 64, 82
1, 45103, Note_on_c, 0, 68, 70
1, 45106, Note_on_c, 0, 40, 50
1, 45111, Control_c, 0, 64, 79
1, 45126, Control_c, 0, 64, 77
1, 45141, Control_c, 0, 64, 74
1, 45152, Note_off_c, 0, 66, 57
1, 45156, Control_c, 0, 64, 72
1, 45171, Control_c, 0, 64, 70
1, 45186, Control_c, 0, 64, 69
1, 45201, Control_c, 0, 64, 68
1, 45215, Control_c, 0, 64, 67
1, 45230, Control_c, 0, 64, 66
1, 45245, Control_c, 0, 64, 65
1, 45274, Control_c, 0, 64, 64
1, 45289, Control_c, 0, 64, 64
1, 45304, Control_c, 0, 64, 63
1, 45319, Control_c, 0, 64, 62
1, 45326, Note_on_c, 0, 44, 57
1, 45329, Note_on_c, 0, 64, 72
1, 45334, Control_c, 0, 64, 61
1, 45348, Control_c, 0, 64, 61
1, 45371, Control_c, 0, 64, 60
1, 45386, Control_c, 0, 64, 60
1, 45400, Control_c, 0, 64, 58
1, 45415, Control_c, 0, 64, 57
1, 45445, Control_c, 0, 64, 57
1, 45460, Note_off_c, 0, 68, 56
1, 45460, Control_c, 0, 64, 56
1, 45490, Control_c, 0, 64, 55
1, 45499, Note_off_c, 0, 40, 32
1, 45505, Control_c, 0, 64, 53
1, 45520, Control_c, 0, 64, 53
1, 45535, Control_c, 0, 64, 52
1, 45541, Note_on_c, 0, 47, 63
1, 45544, Note_on_c, 0, 66, 76
1, 45565, Control_c, 0, 64, 51
1, 45579, Control_c, 0, 64, 49
1, 45594, Control_c, 0, 64, 47
1, 45609, Control_c, 0, 64, 46
1, 45639, Control_c, 0, 64, 45
1, 45652, Note_off_c, 0, 64, 53
1, 45653, Control_c, 0, 64, 45
1, 45665, Note_off_c, 0, 44, 55
1, 45668, Control_c, 0, 64, 44
1, 45683, Control_c, 0, 64, 43
1, 45697, Control_c, 0, 64, 40
1, 45712, Control_c, 0, 64, 33
1, 45727, Control_c, 0, 64, 26
1, 45742, Control_c, 0, 64, 10
1, 45755, Note_on_c, 0, 68, 81
1, 45757, Control_c, 0, 64, 0
1, 45758, Note_on_c, 0, 52, 56
1, 45836, Note_off_c, 0, 47, 61
1, 45876, Note_off_c, 0, 66, 60
1, 45965, Note_on_c, 0, 51, 72
1, 46065, Note_off_c, 0, 52, 52
1, 46182, Note_on_c, 0, 52, 73
1, 46322, Note_off_c, 0, 51, 60
1, 46410, Note_on_c, 0, 45, 70
1, 46562, Note_off_c, 0, 52, 60
1, 46634, Note_on_c, 0, 69, 80
1, 46706, Note_off_c, 0, 68, 53
1, 46839, Note_on_c, 0, 52, 57
1, 46846, Note_on_c, 0, 71, 79
1, 46927, Note_off_c, 0, 69, 55
1, 46986, Note_off_c, 0, 52, 63
1, 47092, Note_on_c, 0, 57, 68
1, 47094, Note_on_c, 0, 73, 80
1, 47150, Note_off_c, 0, 71, 56
1, 47328, Control_c, 0, 64, 10
1, 47329, Note_on_c, 0, 66, 82
1, 47342, Control_c, 0, 64, 37
1, 47357, Control_c, 0, 64, 54
1, 47372, Control_c, 0, 64, 67
1, 47387, Control_c, 0, 64, 81
1, 47402, Control_c, 0, 64, 127
1, 47412, Note_off_c, 0, 45, 46
1, 47428, Note_off_c, 0, 73, 61
1, 47539, Note_on_c, 0, 69, 81
1, 47631, Note_off_c, 0, 66, 58
1, 47794, Control_c, 0, 64, 121
1, 47797, Note_on_c, 0, 59, 74
1, 47803, Note_on_c, 0, 47, 59
1, 47809, Control_c, 0, 64, 110
1, 47825, Control_c, 0, 64, 104
1, 47839, Control_c, 0, 64, 97
1, 47854, Control_c, 0, 64, 92
1, 47869, Control_c, 0, 64, 87
1, 47884, Control_c, 0, 64, 83
1, 47899, Control_c, 0, 64, 79
1, 47914, Control_c, 0, 64, 76
1, 47928, Control_c, 0, 64, 72
1, 47943, Control_c, 0, 64, 70
1, 47958, Control_c, 0, 64, 69
1, 47965, Note_off_c, 0, 69, 50
1, 47973, Control_c, 0, 64, 67
1, 47988, Control_c, 0, 64, 66
1, 48003, Control_c, 0, 64, 65
1, 48018, Control_c, 0, 64, 64
1, 48027, Note_on_c, 0, 63, 77
1, 48033, Control_c, 0, 64, 63
1, 48047, Control_c, 0, 64, 61
1, 48062, Control_c, 0, 64, 60
1, 48077, Control_c, 0, 64, 58
1, 48091, Control_c, 0, 64, 57
1, 48106, Control_c, 0, 64, 55
1, 48121, Control_c, 0, 64, 53
1, 48136, Control_c, 0, 64, 52
1, 48151, Control_c, 0, 64, 50
1, 48165, Control_c, 0, 64, 47
1, 48180, Control_c, 0, 64, 44
1, 48195, Control_c, 0, 64, 42
1, 48210, Control_c, 0, 64, 40
1, 48225, Control_c, 0, 64, 38
1, 48237, Note_on_c, 0, 66, 79
1, 48239, Control_c, 0, 64, 34
1, 48254, Control_c, 0, 64, 31
1, 48263, Note_off_c, 0, 59, 33
1, 48269, Control_c, 0, 64, 29
1, 48283, Control_c, 0, 64, 26
1, 48298, Control_c, 0, 64, 21
1, 48313, Control_c, 0, 64, 17
1, 48328, Control_c, 0, 64, 15
1, 48343, Control_c, 0, 64, 12
1, 48358, Control_c, 0, 64, 10
1, 48380, Control_c, 0, 64, 8
1, 48410, Control_c, 0, 64, 0
1, 48458, Note_on_c, 0, 71, 70
1, 48465, Note_on_c, 0, 56, 71
1, 48493, Note_off_c, 0, 63, 31
1, 48520, Note_off_c, 0, 66, 59
1, 48685, Note_on_c, 0, 69, 76
1, 48755, Note_off_c, 0, 57, 38
1, 48757, Note_off_c, 0, 71, 53
1, 48895, Note_on_c, 0, 71, 77
1, 48999, Note_off_c, 0, 69, 53
1, 49118, Note_on_c, 0, 61, 71
1, 49243, Note_off_c, 0, 71, 59
1, 49334, Note_on_c, 0, 64, 71
1, 49471, Note_off_c, 0, 61, 53
1, 49547, Note_on_c, 0, 68, 71
1, 49768, Note_on_c, 0, 69, 67
1, 49811, Note_off_c, 0, 64, 29
1, 49917, Note_off_c, 0, 68, 52
1, 49999, Note_on_c, 0, 54, 55
1, 50090, Note_off_c, 0, 56, 59
1, 50207, Note_on_c, 0, 52, 59
1, 50295, Note_off_c, 0, 54, 64
1, 50429, Note_on_c, 0, 51, 56
1, 50432, Note_on_c, 0, 59, 57
1, 50564, Note_off_c, 0, 69, 32
1, 50570, Note_off_c, 0, 52, 57
1, 50673, Note_on_c, 0, 63, 62
1, 50801, Note_off_c, 0, 59, 50
1, 50881, Note_on_c, 0, 66, 64
1, 50974, Note_off_c, 0, 63, 55
1, 51097, Note_on_c, 0, 69, 61
1, 51142, Note_off_c, 0, 66, 56
1, 51312, Note_on_c, 0, 68, 53
1, 51370, Note_off_c, 0, 69, 57
1, 51519, Note_on_c, 0, 69, 47
1, 51526, Note_on_c, 0, 42, 47
1, 51545, Note_off_c, 0, 47, 24
1, 51547, Note_off_c, 0, 68, 49
1, 51701, Note_off_c, 0, 42, 64
1, 51753, Note_on_c, 0, 43, 49
1, 51765, Note_on_c, 0, 59, 41
1, 51782, Note_off_c, 0, 69, 50
1, 51990, Note_on_c, 0, 63, 51
1, 52116, Note_off_c, 0, 59, 36
1, 52200, Note_on_c, 0, 66, 55
1, 52278, Note_off_c, 0, 63, 47
1, 52420, Note_on_c, 0, 52, 40
1, 52428, Note_on_c, 0, 67, 54
1, 52532, Note_off_c, 0, 66, 35
1, 52562, Note_off_c, 0, 51, 32
1, 52648, Note_on_c, 0, 45, 40
1, 52739, Note_off_c, 0, 43, 51
1, 52859, Note_on_c, 0, 47, 51
1, 52898, Note_off_c, 0, 45, 62
1, 53088, Note_off_c, 0, 47, 52
1, 53106, Note_on_c, 0, 48, 50
1, 53314, Note_on_c, 0, 69, 53
1, 53315, Note_off_c, 0, 67, 55
1, 53327, Note_on_c, 0, 54, 48
1, 53523, Note_on_c, 0, 67, 69
1, 53531, Note_on_c, 0, 55, 59
1, 53569, Note_off_c, 0, 52, 48
1, 53619, Note_off_c, 0, 69, 50
1, 53658, Note_off_c, 0, 54, 55
1, 53741, Note_on_c, 0, 66, 65
1, 53747, Note_on_c, 0, 57, 71
1, 53800, Note_off_c, 0, 67, 59
1, 53886, Note_off_c, 0, 55, 61
1, 53959, Note_on_c, 0, 67, 73
1, 53964, Control_c, 0, 64, 29
1, 53979, Control_c, 0, 64, 43
1, 53993, Control_c, 0, 64, 60
1, 54003, Note_off_c, 0, 66, 59
1, 54008, Control_c, 0, 64, 66
1, 54023, Control_c, 0, 64, 72
1, 54038, Control_c, 0, 64, 83
1, 54053, Control_c, 0, 64, 109
1, 54058, Note_off_c, 0, 48, 52
1, 54067, Control_c, 0, 64, 127
1, 54173, Note_on_c, 0, 64, 80
1, 54231, Note_off_c, 0, 67, 62
1, 54372, Control_c, 0, 64, 121
1, 54387, Control_c, 0, 64, 111
1, 54393, Note_on_c, 0, 63, 76
1, 54397, Note_on_c, 0, 47, 66
1, 54402, Control_c, 0, 64, 102
1, 54416, Control_c, 0, 64, 93
1, 54431, Control_c, 0, 64, 86
1, 54446, Control_c, 0, 64, 80
1, 54461, Control_c, 0, 64, 75
1, 54476, Control_c, 0, 64, 71
1, 54485, Note_off_c, 0, 64, 58
1, 54490, Control_c, 0, 64, 69
1, 54505, Control_c, 0, 64, 67
1, 54520, Control_c, 0, 64, 66
1, 54534, Control_c, 0, 64, 65
1, 54549, Control_c, 0, 64, 64
1, 54564, Control_c, 0, 64, 63
1, 54579, Control_c, 0, 64, 62
1, 54594, Control_c, 0, 64, 61
1, 54609, Control_c, 0, 64, 59
1, 54624, Control_c, 0, 64, 58
1, 54626, Note_on_c, 0, 61, 80
1, 54638, Control_c, 0, 64, 56
1, 54653, Control_c, 0, 64, 55
1, 54668, Control_c, 0, 64, 53
1, 54682, Control_c, 0, 64, 50
1, 54697, Control_c, 0, 64, 48
1, 54712, Control_c, 0, 64, 46
1, 54726, Control_c, 0, 64, 43
1, 54741, Control_c, 0, 64, 39
1, 54756, Control_c, 0, 64, 35
1, 54771, Control_c, 0, 64, 31
1, 54786, Note_off_c, 0, 63, 53
1, 54786, Control_c, 0, 64, 29
1, 54800, Control_c, 0, 64, 26
1, 54815, Control_c, 0, 64, 24
1, 54830, Control_c, 0, 64, 21
1, 54845, Control_c, 0, 64, 17
1, 54847, Note_on_c, 0, 59, 82
1, 54860, Control_c, 0, 64, 12
1, 54875, Control_c, 0, 64, 8
1, 54889, Control_c, 0, 64, 0
1, 54986, Note_off_c, 0, 61, 60
1, 55098, Control_c, 0, 64, 8
1, 55115, Note_on_c, 0, 72, 80
1, 55120, Control_c, 0, 64, 10
1, 55150, Control_c, 0, 64, 12
1, 55209, Control_c, 0, 64, 14
1, 55306, Note_off_c, 0, 59, 47
1, 55360, Note_on_c, 0, 56, 63
1, 55363, Note_on_c, 0, 49, 53
1, 55368, Note_on_c, 0, 71, 77
1, 55464, Note_off_c, 0, 57, 64
1, 55479, Note_off_c, 0, 47, 38
1, 55564, Note_off_c, 0, 72, 28
1, 55571, Note_on_c, 0, 51, 67
1, 55575, Note_on_c, 0, 70, 83
1, 55580, Note_on_c, 0, 54, 73
1, 55593, Control_c, 0, 64, 15
1, 55648, Note_off_c, 0, 56, 65
1, 55665, Note_off_c, 0, 49, 56
1, 55702, Note_off_c, 0, 71, 52
1, 55787, Note_on_c, 0, 52, 72
1, 55792, Note_on_c, 0, 69, 79
1, 55880, Note_off_c, 0, 70, 62
1, 55906, Note_off_c, 0, 51, 56
1, 56007, Note_off_c, 0, 54, 56
1, 56013, Note_on_c, 0, 68, 76
1, 56069, Note_off_c, 0, 69, 60
1, 56165, Control_c, 0, 64, 14
1, 56216, Note_on_c, 0, 67, 70
1, 56217, Note_on_c, 0, 46, 58
1, 56239, Control_c, 0, 64, 12
1, 56254, Control_c, 0, 64, 10
1, 56269, Control_c, 0, 64, 8
1, 56271, Note_off_c, 0, 68, 60
1, 56284, Control_c, 0, 64, 0
1, 56432, Note_on_c, 0, 47, 61
1, 56442, Note_on_c, 0, 66, 64
1, 56444, Note_off_c, 0, 46, 53
1, 56499, Note_off_c, 0, 67, 57
1, 56542, Note_on_c, 0, 68, 70
1, 56611, Note_off_c, 0, 66, 55
1, 56674, Note_on_c, 0, 69, 76
1, 56674, Note_on_c, 0, 51, 63
1, 56753, Note_off_c, 0, 68, 55
1, 56777, Note_off_c, 0, 52, 61
1, 56938, Note_on_c, 0, 57, 61
1, 56938, Note_on_c, 0, 63, 78
1, 56943, Control_c, 0, 64, 36
1, 56958, Control_c, 0, 64, 54
1, 56972, Control_c, 0, 64, 64
1, 56978, Note_off_c, 0, 69, 59
1, 56987, Control_c, 0, 64, 70
1, 57002, Control_c, 0, 64, 81
1, 57017, Control_c, 0, 64, 104
1, 57032, Control_c, 0, 64, 127
1, 57056, Note_off_c, 0, 47, 33
1, 57060, Note_off_c, 0, 51, 58
1, 57230, Note_on_c, 0, 56, 66
1, 57231, Note_on_c, 0, 49, 54
1, 57238, Note_on_c, 0, 64, 79
1, 57254, Control_c, 0, 64, 119
1, 57268, Control_c, 0, 64, 105
1, 57283, Control_c, 0, 64, 95
1, 57298, Control_c, 0, 64, 85
1, 57309, Note_off_c, 0, 63, 57
1, 57313, Control_c, 0, 64, 76
1, 57327, Control_c, 0, 64, 71
1, 57350, Control_c, 0, 64, 66
1, 57365, Control_c, 0, 64, 65
1, 57366, Note_off_c, 0, 57, 51
1, 57380, Control_c, 0, 64, 63
1, 57395, Control_c, 0, 64, 62
1, 57411, Control_c, 0, 64, 61
1, 57425, Control_c, 0, 64, 59
1, 57440, Control_c, 0, 64, 57
1, 57455, Control_c, 0, 64, 55
1, 57470, Control_c, 0, 64, 53
1, 57485, Control_c, 0, 64, 51
1, 57499, Control_c, 0, 64, 49
1, 57514, Control_c, 0, 64, 46
1, 57529, Control_c, 0, 64, 40
1, 57542, Note_on_c, 0, 52, 63
1, 57544, Control_c, 0, 64, 37
1, 57558, Control_c, 0, 64, 34
1, 57573, Control_c, 0, 64, 33
1, 57588, Control_c, 0, 64, 31
1, 57603, Control_c, 0, 64, 29
1, 57618, Control_c, 0, 64, 25
1, 57632, Control_c, 0, 64, 22
1, 57647, Control_c, 0, 64, 18
1, 57654, Note_off_c, 0, 56, 61
1, 57662, Control_c, 0, 64, 14
1, 57677, Control_c, 0, 64, 8
1, 57692, Control_c, 0, 64, 0
1, 57774, Note_on_c, 0, 56, 65
1, 57915, Note_off_c, 0, 52, 57
1, 57992, Note_on_c, 0, 57, 60
1, 58081, Note_off_c, 0, 56, 63
1, 58216, Note_on_c, 0, 56, 67
1, 58275, Note_off_c, 0, 57, 60
1, 58367, Control_c, 0, 64, 30
1, 58381, Control_c, 0, 64, 43
1, 58396, Control_c, 0, 64, 56
1, 58411, Control_c, 0, 64, 64
1, 58426, Control_c, 0, 64, 69
1, 58430, Note_on_c, 0, 57, 61
1, 58441, Control_c, 0, 64, 78
1, 58455, Control_c, 0, 64, 99
1, 58467, Note_off_c, 0, 49, 62
1, 58470, Control_c, 0, 64, 127
1, 58478, Note_off_c, 0, 56, 63
1, 58618, Control_c, 0, 64, 115
1, 58633, Control_c, 0, 64, 107
1, 58648, Control_c, 0, 64, 99
1, 58663, Control_c, 0, 64, 93
1, 58666, Note_on_c, 0, 44, 60
1, 58669, Note_on_c, 0, 52, 54
1, 58678, Control_c, 0, 64, 87
1, 58692, Control_c, 0, 64, 82
1, 58707, Control_c, 0, 64, 76
1, 58722, Control_c, 0, 64, 72
1, 58737, Control_c, 0, 64, 68
1, 58752, Control_c, 0, 64, 66
1, 58767, Control_c, 0, 64, 65
1, 58781, Control_c, 0, 64, 65
1, 58796, Control_c, 0, 64, 64
1, 58811, Control_c, 0, 64, 63
1, 58826, Control_c, 0, 64, 62
1, 58841, Control_c, 0, 64, 60
1, 58862, Control_c, 0, 64, 59
1, 58877, Control_c, 0, 64, 59
1, 58892, Control_c, 0, 64, 58
1, 58907, Control_c, 0, 64, 58
1, 58922, Control_c, 0, 64, 56
1, 58926, Note_on_c, 0, 56, 48
1, 58937, Control_c, 0, 64, 55
1, 58952, Control_c, 0, 64, 54
1, 58967, Control_c, 0, 64, 53
1, 58981, Control_c, 0, 64, 52
1, 58997, Control_c, 0, 64, 52
1, 59011, Control_c, 0, 64, 51
1, 59015, Note_off_c, 0, 57, 33
1, 59026, Control_c, 0, 64, 50
1, 59041, Control_c, 0, 64, 48
1, 59056, Control_c, 0, 64, 47
1, 59071, Control_c, 0, 64, 46
1, 59086, Control_c, 0, 64, 46
1, 59101, Control_c, 0, 64, 44
1, 59116, Control_c, 0, 64, 43
1, 59131, Control_c, 0, 64, 41
1, 59141, Note_on_c, 0, 59, 53
1, 59145, Control_c, 0, 64, 40
1, 59160, Control_c, 0, 64, 39
1, 59175, Control_c, 0, 64, 38
1, 59190, Control_c, 0, 64, 37
1, 59204, Control_c, 0, 64, 35
1, 59219, Control_c, 0, 64, 34
1, 59234, Control_c, 0, 64, 31
1, 59249, Control_c, 0, 64, 28
1, 59261, Note_off_c, 0, 56, 53
1, 59264, Control_c, 0, 64, 26
1, 59278, Control_c, 0, 64, 24
1, 59293, Control_c, 0, 64, 22
1, 59308, Control_c, 0, 64, 18
1, 59323, Control_c, 0, 64, 12
1, 59338, Control_c, 0, 64, 0
1, 59355, Note_on_c, 0, 62, 51
1, 59463, Note_off_c, 0, 59, 54
1, 59485, Control_c, 0, 64, 8
1, 59500, Control_c, 0, 64, 18
1, 59515, Control_c, 0, 64, 28
1, 59530, Control_c, 0, 64, 35
1, 59545, Control_c, 0, 64, 42
1, 59560, Control_c, 0, 64, 51
1, 59575, Control_c, 0, 64, 60
1, 59582, Note_on_c, 0, 61, 58
1, 59590, Control_c, 0, 64, 65
1, 59611, Control_c, 0, 64, 69
1, 59626, Control_c, 0, 64, 76
1, 59641, Control_c, 0, 64, 86
1, 59656, Note_off_c, 0, 62, 53
1, 59656, Control_c, 0, 64, 99
1, 59671, Control_c, 0, 64, 127
1, 59684, Note_off_c, 0, 44, 55
1, 59822, Note_on_c, 0, 62, 52
1, 59853, Note_off_c, 0, 61, 53
1, 59864, Control_c, 0, 64, 121
1, 59879, Control_c, 0, 64, 115
1, 59894, Control_c, 0, 64, 111
1, 59909, Control_c, 0, 64, 108
1, 59924, Control_c, 0, 64, 104
1, 59939, Control_c, 0, 64, 101
1, 59953, Control_c, 0, 64, 98
1, 59968, Control_c, 0, 64, 95
1, 59983, Control_c, 0, 64, 91
1, 59998, Control_c, 0, 64, 88
1, 60013, Control_c, 0, 64, 86
1, 60028, Control_c, 0, 64, 83
1, 60043, Control_c, 0, 64, 80
1, 60052, Note_on_c, 0, 45, 46
1, 60058, Control_c, 0, 64, 77
1, 60068, Note_on_c, 0, 61, 54
1, 60073, Control_c, 0, 64, 75
1, 60088, Control_c, 0, 64, 73
1, 60102, Control_c, 0, 64, 72
1, 60117, Control_c, 0, 64, 70
1, 60132, Control_c, 0, 64, 68
1, 60146, Control_c, 0, 64, 67
1, 60161, Control_c, 0, 64, 65
1, 60173, Note_off_c, 0, 62, 32
1, 60176, Control_c, 0, 64, 64
1, 60191, Control_c, 0, 64, 64
1, 60204, Note_off_c, 0, 52, 30
1, 60206, Control_c, 0, 64, 63
1, 60220, Control_c, 0, 64, 62
1, 60235, Control_c, 0, 64, 60
1, 60250, Control_c, 0, 64, 58
1, 60265, Control_c, 0, 64, 56
1, 60280, Control_c, 0, 64, 55
1, 60294, Control_c, 0, 64, 54
1, 60303, Note_on_c, 0, 49, 42
1, 60309, Control_c, 0, 64, 52
1, 60324, Control_c, 0, 64, 50
1, 60339, Control_c, 0, 64, 48
1, 60361, Control_c, 0, 64, 46
1, 60376, Control_c, 0, 64, 44
1, 60391, Control_c, 0, 64, 42
1, 60406, Control_c, 0, 64, 41
1, 60421, Control_c, 0, 64, 39
1, 60435, Control_c, 0, 64, 38
1, 60450, Control_c, 0, 64, 37
1, 60465, Control_c, 0, 64, 36
1, 60480, Control_c, 0, 64, 35
1, 60495, Control_c, 0, 64, 33
1, 60509, Control_c, 0, 64, 32
1, 60524, Control_c, 0, 64, 31
1, 60532, Note_on_c, 0, 52, 51
1, 60539, Control_c, 0, 64, 31
1, 60553, Control_c, 0, 64, 30
1, 60568, Control_c, 0, 64, 28
1, 60583, Control_c, 0, 64, 26
1, 60599, Control_c, 0, 64, 26
1, 60614, Control_c, 0, 64, 24
1, 60629, Control_c, 0, 64, 24
1, 60641, Note_off_c, 0, 49, 54
1, 60643, Control_c, 0, 64, 23
1, 60658, Control_c, 0, 64, 22
1, 60672, Control_c, 0, 64, 21
1, 60717, Control_c, 0, 64, 20
1, 60731, Control_c, 0, 64, 19
1, 60746, Control_c, 0, 64, 18
1, 60761, Control_c, 0, 64, 17
1, 60776, Control_c, 0, 64, 16
1, 60778, Note_on_c, 0, 57, 52
1, 60791, Control_c, 0, 64, 14
1, 60806, Control_c, 0, 64, 12
1, 60821, Control_c, 0, 64, 10
1, 60854, Note_off_c, 0, 52, 61
1, 60865, Control_c, 0, 64, 8
1, 60880, Control_c, 0, 64, 0
1, 61070, Note_on_c, 0, 56, 47
1, 61191, Note_off_c, 0, 57, 48
1, 61402, Note_on_c, 0, 63, 48
1, 61416, Note_on_c, 0, 60, 42
1, 61419, Note_on_c, 0, 57, 44
1, 61449, Note_off_c, 0, 61, 46
1, 61455, Note_off_c, 0, 56, 55
1, 61480, Note_off_c, 0, 64, 45
1, 61554, Control_c, 0, 64, 33
1, 61569, Control_c, 0, 64, 56
1, 61582, Note_off_c, 0, 45, 56
1, 61584, Control_c, 0, 64, 66
1, 61599, Control_c, 0, 64, 75
1, 61607, Note_off_c, 0, 60, 61
1, 61614, Control_c, 0, 64, 92
1, 61629, Control_c, 0, 64, 127
1, 61873, Control_c, 0, 64, 117
1, 61888, Control_c, 0, 64, 110
1, 61903, Control_c, 0, 64, 103
1, 61905, Note_off_c, 0, 57, 38
1, 61918, Control_c, 0, 64, 98
1, 61918, Note_on_c, 0, 64, 45
1, 61921, Note_on_c, 0, 56, 34
1, 61926, Note_on_c, 0, 40, 34
1, 61930, Note_on_c, 0, 59, 33
1, 61933, Control_c, 0, 64, 92
1, 61947, Control_c, 0, 64, 87
1, 61962, Control_c, 0, 64, 82
1, 61977, Control_c, 0, 64, 78
1, 61991, Control_c, 0, 64, 74
1, 62006, Control_c, 0, 64, 71
1, 62021, Control_c, 0, 64, 69
1, 62036, Control_c, 0, 64, 66
1, 62051, Control_c, 0, 64, 64
1, 62057, Note_off_c, 0, 63, 34
1, 62065, Control_c, 0, 64, 62
1, 62080, Control_c, 0, 64, 60
1, 62095, Control_c, 0, 64, 56
1, 62110, Control_c, 0, 64, 49
1, 62124, Control_c, 0, 64, 40
1, 62139, Control_c, 0, 64, 28
1, 62154, Control_c, 0, 64, 0
1, 62585, Control_c, 0, 64, 19
1, 62607, Control_c, 0, 64, 29
1, 62621, Control_c, 0, 64, 36
1, 62636, Control_c, 0, 64, 41
1, 62651, Control_c, 0, 64, 50
1, 62666, Control_c, 0, 64, 55
1, 62681, Control_c, 0, 64, 58
1, 62696, Control_c, 0, 64, 60
1, 62711, Control_c, 0, 64, 62
1, 62726, Control_c, 0, 64, 63
1, 62740, Control_c, 0, 64, 65
1, 62755, Control_c, 0, 64, 67
1, 62770, Control_c, 0, 64, 70
1, 62785, Control_c, 0, 64, 73
1, 62800, Control_c, 0, 64, 77
1, 62814, Control_c, 0, 64, 82
1, 62829, Control_c, 0, 64, 86
1, 62844, Control_c, 0, 64, 93
1, 62859, Control_c, 0, 64, 100
1, 62874, Control_c, 0, 64, 111
1, 62888, Control_c, 0, 64, 127
1, 62991, Note_off_c, 0, 40, 38
1, 63065, Note_off_c, 0, 64, 39
1, 63104, Note_off_c, 0, 56, 36
1, 63116, Note_off_c, 0, 59, 38
1, 63319, Control_c, 0, 64, 115
1, 63334, Control_c, 0, 64, 106
1, 63356, Control_c, 0, 64, 99
1, 63370, Control_c, 0, 64, 93
1, 63385, Control_c, 0, 64, 87
1, 63400, Control_c, 0, 64, 80
1, 63415, Control_c, 0, 64, 73
1, 63430, Control_c, 0, 64, 66
1, 63444, Control_c, 0, 64, 56
1, 63459, Control_c, 0, 64, 35
1, 63474, Control_c, 0, 64, 0
1, 63990, Note_on_c, 0, 64, 81
1, 64016, Note_off_c, 0, 64, 68
1, 64225, Note_on_c, 0, 66, 84
1, 64342, Control_c, 0, 64, 45
1, 64357, Control_c, 0, 64, 64
1, 64372, Control_c, 0, 64, 79
1, 64387, Control_c, 0, 64, 127
1, 64415, Note_off_c, 0, 66, 60
1, 64624, Control_c, 0, 64, 93
1, 64639, Control_c, 0, 64, 71
1, 64654, Control_c, 0, 64, 52
1, 64669, Control_c, 0, 64, 0
1, 64757, Note_on_c, 0, 59, 41
1, 64830, Note_off_c, 0, 59, 63
1, 64857, Note_on_c, 0, 61, 57
1, 64928, Note_off_c, 0, 61, 62
1, 64943, Note_on_c, 0, 63, 61
1, 65021, Note_off_c, 0, 63, 62
1, 65032, Note_on_c, 0, 64, 63
1, 65105, Note_off_c, 0, 64, 63
1, 65125, Note_on_c, 0, 63, 62
1, 65200, Note_off_c, 0, 63, 62
1, 65216, Note_on_c, 0, 64, 67
1, 65302, Note_off_c, 0, 64, 61
1, 65304, Note_on_c, 0, 66, 72
1, 65395, Note_on_c, 0, 68, 79
1, 65410, Note_off_c, 0, 66, 63
1, 65475, Note_on_c, 0, 69, 81
1, 65480, Note_off_c, 0, 68, 62
1, 65533, Note_off_c, 0, 69, 65
1, 65565, Note_on_c, 0, 71, 88
1, 65606, Note_off_c, 0, 71, 66
1, 65693, Note_on_c, 0, 68, 49
1, 65769, Note_off_c, 0, 68, 60
1, 65776, Note_on_c, 0, 73, 89
1, 65789, Note_on_c, 0, 64, 58
1, 65882, Note_off_c, 0, 64, 58
1, 65900, Note_on_c, 0, 63, 56
1, 65985, Note_off_c, 0, 63, 61
1, 65990, Note_on_c, 0, 64, 70
1, 66061, Note_off_c, 0, 64, 62
1, 66075, Note_on_c, 0, 66, 63
1, 66100, Note_off_c, 0, 73, 62
1, 66154, Note_off_c, 0, 66, 61
1, 66177, Note_on_c, 0, 64, 65
1, 66224, Note_off_c, 0, 64, 61
1, 66254, Note_on_c, 0, 63, 55
1, 66269, Note_on_c, 0, 66, 66
1, 66327, Note_off_c, 0, 63, 59
1, 66358, Note_on_c, 0, 64, 58
1, 66360, Note_off_c, 0, 66, 58
1, 66364, Note_on_c, 0, 68, 68
1, 66407, Note_off_c, 0, 64, 61
1, 66437, Note_on_c, 0, 66, 52
1, 66446, Note_on_c, 0, 70, 72
1, 66452, Note_off_c, 0, 68, 60
1, 66511, Note_off_c, 0, 66, 62
1, 66514, Note_off_c, 0, 70, 64
1, 66541, Note_on_c, 0, 63, 55
1, 66541, Note_on_c, 0, 71, 73
1, 66580, Note_off_c, 0, 63, 61
1, 66615, Note_off_c, 0, 71, 61
1, 66616, Note_on_c, 0, 61, 49
1, 66633, Note_on_c, 0, 70, 70
1, 66693, Note_off_c, 0, 61, 49
1, 66715, Note_off_c, 0, 70, 64
1, 66725, Note_on_c, 0, 63, 53
1, 66728, Note_on_c, 0, 71, 76
1, 66773, Note_off_c, 0, 63, 62
1, 66795, Note_on_c, 0, 64, 56
1, 66811, Note_on_c, 0, 73, 74
1, 66816, Note_off_c, 0, 71, 61
1, 66884, Note_off_c, 0, 64, 60
1, 66893, Note_on_c, 0, 66, 68
1, 66897, Note_on_c, 0, 75, 80
1, 66941, Note_off_c, 0, 73, 62
1, 66976, Note_on_c, 0, 76, 77
1, 66985, Note_on_c, 0, 68, 75
1, 66995, Note_off_c, 0, 66, 60
1, 67018, Note_off_c, 0, 75, 56
1, 67069, Note_off_c, 0, 68, 61
1, 67070, Note_on_c, 0, 78, 87
1, 67072, Note_on_c, 0, 69, 74
1, 67089, Note_off_c, 0, 76, 60
1, 67141, Note_off_c, 0, 69, 62
1, 67164, Note_on_c, 0, 66, 66
1, 67166, Note_on_c, 0, 75, 79
1, 67209, Note_off_c, 0, 78, 58
1, 67214, Note_off_c, 0, 66, 61
1, 67260, Note_on_c, 0, 68, 80
1, 67264, Note_on_c, 0, 71, 82
1, 67273, Note_off_c, 0, 75, 59
1, 67280, Note_off_c, 0, 68, 70
1, 67334, Note_off_c, 0, 71, 64
1, 67350, Note_on_c, 0, 69, 73
1, 67436, Note_off_c, 0, 69, 58
1, 67447, Note_on_c, 0, 71, 75
1, 67449, Note_on_c, 0, 59, 90
1, 67471, Note_off_c, 0, 59, 69
1, 67517, Note_off_c, 0, 71, 61
1, 67547, Note_on_c, 0, 73, 63
1, 67641, Note_on_c, 0, 64, 88
1, 67650, Note_off_c, 0, 73, 59
1, 67651, Note_on_c, 0, 71, 69
1, 67718, Note_off_c, 0, 71, 63
1, 67745, Note_on_c, 0, 69, 66
1, 67837, Note_off_c, 0, 69, 59
1, 67838, Note_on_c, 0, 52, 82
1, 67849, Note_on_c, 0, 71, 67
1, 67868, Note_off_c, 0, 52, 69
1, 67909, Note_off_c, 0, 71, 62
1, 67924, Note_on_c, 0, 73, 62
1, 68032, Note_off_c, 0, 73, 64
1, 68043, Note_on_c, 0, 54, 88
1, 68058, Note_on_c, 0, 69, 69
1, 68096, Note_off_c, 0, 64, 61
1, 68106, Note_off_c, 0, 69, 57
1, 68144, Note_on_c, 0, 68, 60
1, 68188, Note_off_c, 0, 68, 61
1, 68236, Note_on_c, 0, 69, 62
1, 68243, Note_on_c, 0, 63, 64
1, 68284, Note_off_c, 0, 63, 61
1, 68303, Note_off_c, 0, 69, 63
1, 68315, Note_on_c, 0, 71, 65
1, 68430, Note_off_c, 0, 54, 62
1, 68430, Note_off_c, 0, 71, 60
1, 68438, Note_on_c, 0, 69, 69
1, 68443, Note_on_c, 0, 66, 72
1, 68521, Note_off_c, 0, 69, 63
1, 68531, Note_on_c, 0, 47, 60
1, 68537, Note_on_c, 0, 68, 66
1, 68616, Note_off_c, 0, 47, 63
1, 68623, Note_off_c, 0, 68, 58
1, 68625, Note_on_c, 0, 49, 65
1, 68628, Note_on_c, 0, 69, 56
1, 68679, Note_off_c, 0, 69, 58
1, 68691, Note_on_c, 0, 71, 53
1, 68713, Note_on_c, 0, 51, 79
1, 68723, Note_off_c, 0, 49, 63
1, 68775, Note_off_c, 0, 66, 57
1, 68794, Note_off_c, 0, 71, 63
1, 68803, Note_off_c, 0, 51, 64
1, 68804, Note_on_c, 0, 52, 75
1, 68807, Note_on_c, 0, 68, 64
1, 68878, Note_off_c, 0, 68, 61
1, 68884, Note_on_c, 0, 66, 71
1, 68886, Note_off_c, 0, 52, 65
1, 68889, Note_on_c, 0, 51, 74
1, 68959, Note_off_c, 0, 51, 63
1, 68983, Note_on_c, 0, 68, 83
1, 68983, Note_on_c, 0, 52, 63
1, 68986, Note_on_c, 0, 59, 68
1, 69003, Note_off_c, 0, 66, 52
1, 69019, Note_off_c, 0, 59, 62
1, 69051, Note_off_c, 0, 52, 62
1, 69070, Note_on_c, 0, 70, 76
1, 69079, Note_on_c, 0, 54, 57
1, 69087, Note_off_c, 0, 68, 59
1, 69157, Note_off_c, 0, 54, 64
1, 69163, Note_on_c, 0, 56, 67
1, 69164, Note_on_c, 0, 71, 85
1, 69164, Note_on_c, 0, 64, 74
1, 69175, Note_off_c, 0, 70, 64
1, 69194, Note_off_c, 0, 64, 65
1, 69237, Note_off_c, 0, 56, 63
1, 69263, Note_on_c, 0, 57, 62
1, 69331, Note_off_c, 0, 57, 62
1, 69357, Note_on_c, 0, 63, 85
1, 69374, Note_on_c, 0, 59, 62
1, 69408, Note_off_c, 0, 63, 65
1, 69448, Note_off_c, 0, 59, 59
1, 69455, Note_on_c, 0, 56, 61
1, 69546, Note_off_c, 0, 56, 62
1, 69564, Note_on_c, 0, 52, 56
1, 69570, Note_on_c, 0, 61, 85
1, 69650, Note_off_c, 0, 52, 64
1, 69670, Note_on_c, 0, 51, 60
1, 69752, Note_off_c, 0, 51, 62
1, 69767, Note_on_c, 0, 52, 57
1, 69838, Note_off_c, 0, 52, 63
1, 69850, Note_on_c, 0, 54, 58
1, 69913, Note_off_c, 0, 71, 55
1, 69929, Note_off_c, 0, 54, 64
1, 69961, Note_on_c, 0, 52, 52
1, 69963, Note_on_c, 0, 70, 66
1, 70020, Note_off_c, 0, 52, 58
1, 70046, Note_on_c, 0, 51, 61
1, 70127, Note_off_c, 0, 51, 62
1, 70144, Note_on_c, 0, 52, 55
1, 70216, Note_off_c, 0, 52, 64
1, 70232, Note_off_c, 0, 61, 61
1, 70239, Note_on_c, 0, 54, 59
1, 70255, Note_off_c, 0, 70, 56
1, 70315, Note_off_c, 0, 54, 62
1, 70356, Note_on_c, 0, 51, 46
1, 70375, Note_on_c, 0, 71, 65
1, 70379, Note_on_c, 0, 59, 44
1, 70391, Control_c, 0, 64, 52
1, 70399, Note_off_c, 0, 51, 62
1, 70406, Note_off_c, 0, 71, 67
1, 70406, Control_c, 0, 64, 67
1, 70410, Note_off_c, 0, 59, 51
1, 70421, Control_c, 0, 64, 86
1, 70435, Control_c, 0, 64, 127
1, 70440, Note_on_c, 0, 49, 46
1, 70495, Control_c, 0, 64, 95
1, 70509, Control_c, 0, 64, 69
1, 70512, Note_off_c, 0, 49, 58
1, 70524, Control_c, 0, 64, 0
1, 70535, Note_on_c, 0, 51, 47
1, 70568, Note_on_c, 0, 83, 64
1, 70587, Note_off_c, 0, 51, 61
1, 70599, Note_off_c, 0, 83, 66
1, 70640, Note_on_c, 0, 52, 37
1, 70697, Note_off_c, 0, 52, 58
1, 70753, Note_on_c, 0, 54, 40
1, 70755, Note_on_c, 0, 75, 81
1, 70777, Note_off_c, 0, 75, 67
1, 70822, Note_off_c, 0, 54, 61
1, 70851, Note_on_c, 0, 56, 52
1, 70929, Note_off_c, 0, 56, 63
1, 70949, Note_on_c, 0, 78, 86
1, 70950, Note_on_c, 0, 57, 49
1, 70988, Note_off_c, 0, 78, 63
1, 71007, Note_off_c, 0, 57, 60
1, 71037, Note_on_c, 0, 54, 58
1, 71113, Note_off_c, 0, 54, 62
1, 71145, Note_on_c, 0, 56, 52
1, 71150, Note_on_c, 0, 71, 90
1, 71206, Note_off_c, 0, 56, 60
1, 71241, Note_on_c, 0, 54, 48
1, 71310, Note_off_c, 0, 54, 61
1, 71331, Note_on_c, 0, 56, 50
1, 71337, Note_on_c, 0, 76, 65
1, 71369, Note_off_c, 0, 76, 64
1, 71388, Note_off_c, 0, 56, 61
1, 71414, Note_on_c, 0, 57, 57
1, 71484, Note_off_c, 0, 57, 64
1, 71519, Note_on_c, 0, 59, 62
1, 71524, Note_on_c, 0, 68, 77
1, 71526, Note_off_c, 0, 71, 61
1, 71562, Note_off_c, 0, 68, 61
1, 71603, Note_off_c, 0, 59, 63
1, 71618, Note_on_c, 0, 61, 61
1, 71689, Note_off_c, 0, 61, 61
1, 71713, Note_on_c, 0, 71, 65
1, 71714, Note_on_c, 0, 62, 55
1, 71773, Note_off_c, 0, 62, 58
1, 71806, Note_on_c, 0, 59, 55
1, 71861, Note_off_c, 0, 59, 61
1, 71890, Note_on_c, 0, 61, 52
1, 71913, Note_on_c, 0, 64, 67
1, 71943, Note_off_c, 0, 64, 66
1, 71958, Note_off_c, 0, 61, 58
1, 71990, Note_on_c, 0, 59, 56
1, 72013, Note_off_c, 0, 71, 60
1, 72074, Note_off_c, 0, 59, 61
1, 72089, Note_on_c, 0, 61, 54
1, 72095, Note_on_c, 0, 66, 78
1, 72099, Note_on_c, 0, 69, 75
1, 72141, Note_off_c, 0, 69, 64
1, 72170, Note_off_c, 0, 61, 61
1, 72185, Note_on_c, 0, 63, 66
1, 72268, Note_off_c, 0, 63, 63
1, 72276, Note_on_c, 0, 68, 87
1, 72279, Note_on_c, 0, 64, 73
1, 72287, Note_off_c, 0, 66, 61
1, 72313, Note_off_c, 0, 68, 63
1, 72363, Note_off_c, 0, 64, 61
1, 72372, Note_on_c, 0, 63, 73
1, 72450, Note_off_c, 0, 63, 63
1, 72459, Note_on_c, 0, 61, 67
1, 72470, Note_on_c, 0, 76, 92
1, 72470, Note_on_c, 0, 64, 86
1, 72491, Note_off_c, 0, 64, 70
1, 72506, Note_off_c, 0, 76, 65
1, 72545, Note_off_c, 0, 61, 62
1, 72554, Note_on_c, 0, 59, 69
1, 72659, Note_off_c, 0, 59, 64
1, 72677, Note_on_c, 0, 57, 60
1, 72682, Note_on_c, 0, 64, 66
1, 72690, Note_on_c, 0, 78, 93
1, 72771, Control_c, 0, 64, 14
1, 72784, Note_off_c, 0, 57, 64
1, 72786, Control_c, 0, 64, 50
1, 72797, Note_on_c, 0, 56, 60
1, 72801, Control_c, 0, 64, 60
1, 72816, Control_c, 0, 64, 63
1, 72830, Control_c, 0, 64, 66
1, 72845, Control_c, 0, 64, 67
1, 72860, Control_c, 0, 64, 68
1, 72862, Note_off_c, 0, 56, 64
1, 72875, Control_c, 0, 64, 66
1, 72890, Note_on_c, 0, 57, 58
1, 72890, Control_c, 0, 64, 64
1, 72904, Control_c, 0, 64, 59
1, 72919, Control_c, 0, 64, 40
1, 72934, Control_c, 0, 64, 0
1, 72965, Note_off_c, 0, 57, 64
1, 72973, Note_off_c, 0, 64, 64
1, 72977, Note_on_c, 0, 59, 61
1, 73019, Note_off_c, 0, 59, 63
1, 73041, Note_off_c, 0, 78, 54
1, 73077, Note_on_c, 0, 57, 68
1, 73078, Note_on_c, 0, 63, 63
1, 73120, Note_off_c, 0, 63, 60
1, 73144, Note_off_c, 0, 57, 64
1, 73157, Note_on_c, 0, 56, 64
1, 73167, Note_on_c, 0, 71, 59
1, 73233, Note_off_c, 0, 56, 62
1, 73252, Note_on_c, 0, 73, 75
1, 73259, Note_on_c, 0, 66, 64
1, 73265, Note_on_c, 0, 57, 56
1, 73272, Note_off_c, 0, 71, 51
1, 73307, Note_off_c, 0, 57, 65
1, 73329, Note_on_c, 0, 59, 64
1, 73336, Note_on_c, 0, 75, 78
1, 73341, Note_off_c, 0, 66, 59
1, 73359, Note_off_c, 0, 73, 57
1, 73370, Note_off_c, 0, 59, 64
1, 73442, Note_off_c, 0, 75, 59
1, 73443, Note_on_c, 0, 76, 74
1, 73451, Note_on_c, 0, 59, 77
1, 73460, Note_on_c, 0, 56, 61
1, 73490, Note_off_c, 0, 56, 66
1, 73500, Note_off_c, 0, 76, 61
1, 73527, Note_on_c, 0, 75, 72
1, 73615, Note_off_c, 0, 75, 61
1, 73627, Note_on_c, 0, 76, 86
1, 73633, Note_on_c, 0, 54, 80
1, 73657, Note_off_c, 0, 54, 68
1, 73712, Note_on_c, 0, 78, 89
1, 73738, Note_off_c, 0, 76, 63
1, 73815, Note_on_c, 0, 52, 91
1, 73819, Note_on_c, 0, 80, 85
1, 73836, Note_off_c, 0, 59, 65
1, 73853, Note_off_c, 0, 52, 68
1, 73856, Note_off_c, 0, 78, 63
1, 73921, Note_on_c, 0, 81, 72
1, 73947, Note_off_c, 0, 80, 62
1, 73999, Note_off_c, 0, 81, 59
1, 74005, Note_on_c, 0, 51, 85
1, 74011, Note_on_c, 0, 71, 91
1, 74013, Note_on_c, 0, 83, 89
1, 74030, Note_off_c, 0, 51, 68
1, 74048, Note_off_c, 0, 71, 65
1, 74107, Note_off_c, 0, 83, 61
1, 74115, Note_on_c, 0, 80, 70
1, 74181, Note_off_c, 0, 80, 61
1, 74205, Note_on_c, 0, 49, 82
1, 74208, Note_on_c, 0, 73, 88
1, 74218, Note_on_c, 0, 76, 74
1, 74234, Note_off_c, 0, 49, 66
1, 74295, Note_off_c, 0, 76, 63
1, 74310, Note_on_c, 0, 75, 70
1, 74395, Note_on_c, 0, 59, 80
1, 74395, Note_off_c, 0, 75, 59
1, 74407, Note_on_c, 0, 76, 71
1, 74426, Note_off_c, 0, 59, 67
1, 74480, Note_off_c, 0, 76, 63
1, 74494, Note_on_c, 0, 78, 69
1, 74556, Note_off_c, 0, 73, 56
1, 74586, Note_on_c, 0, 58, 70
1, 74598, Note_on_c, 0, 76, 77
1, 74608, Note_off_c, 0, 78, 58
1, 74634, Note_off_c, 0, 58, 60
1, 74677, Note_on_c, 0, 75, 80
1, 74679, Note_on_c, 0, 66, 64
1, 74681, Note_off_c, 0, 76, 65
1, 74722, Note_off_c, 0, 66, 59
1, 74769, Note_on_c, 0, 76, 73
1, 74771, Note_on_c, 0, 68, 72
1, 74773, Note_off_c, 0, 75, 59
1, 74777, Note_on_c, 0, 54, 58
1, 74814, Note_off_c, 0, 54, 65
1, 74843, Note_off_c, 0, 76, 63
1, 74849, Note_on_c, 0, 78, 71
1, 74852, Note_off_c, 0, 68, 63
1, 74859, Note_on_c, 0, 70, 67
1, 74921, Note_off_c, 0, 70, 58
1, 74948, Note_on_c, 0, 59, 63
1, 74949, Note_on_c, 0, 71, 74
1, 74958, Note_on_c, 0, 75, 69
1, 74985, Note_off_c, 0, 78, 60
1, 74989, Control_c, 0, 64, 55
1, 75004, Control_c, 0, 64, 65
1, 75011, Note_off_c, 0, 59, 64
1, 75013, Note_off_c, 0, 71, 59
1, 75019, Control_c, 0, 64, 75
1, 75031, Note_off_c, 0, 75, 61
1, 75033, Note_on_c, 0, 73, 68
1, 75034, Control_c, 0, 64, 92
1, 75040, Note_on_c, 0, 70, 63
1, 75048, Control_c, 0, 64, 127
1, 75102, Note_off_c, 0, 70, 59
1, 75123, Note_on_c, 0, 71, 64
1, 75124, Note_off_c, 0, 73, 62
1, 75126, Note_on_c, 0, 75, 66
1, 75154, Note_off_c, 0, 71, 67
1, 75166, Control_c, 0, 64, 111
1, 75181, Control_c, 0, 64, 100
1, 75196, Control_c, 0, 64, 93
1, 75211, Control_c, 0, 64, 88
1, 75219, Note_on_c, 0, 76, 74
1, 75224, Note_on_c, 0, 73, 52
1, 75226, Control_c, 0, 64, 83
1, 75231, Note_off_c, 0, 75, 62
1, 75241, Control_c, 0, 64, 78
1, 75255, Control_c, 0, 64, 74
1, 75263, Note_off_c, 0, 76, 62
1, 75270, Control_c, 0, 64, 69
1, 75285, Control_c, 0, 64, 66
1, 75295, Note_off_c, 0, 73, 62
1, 75299, Control_c, 0, 64, 64
1, 75314, Control_c, 0, 64, 62
1, 75315, Note_on_c, 0, 75, 60
1, 75337, Note_on_c, 0, 78, 80
1, 75337, Control_c, 0, 64, 61
1, 75352, Control_c, 0, 64, 59
1, 75367, Control_c, 0, 64, 56
1, 75381, Control_c, 0, 64, 51
1, 75394, Note_off_c, 0, 75, 61
1, 75396, Control_c, 0, 64, 44
1, 75411, Control_c, 0, 64, 31
1, 75413, Note_on_c, 0, 76, 61
1, 75416, Note_on_c, 0, 80, 79
1, 75425, Control_c, 0, 64, 0
1, 75442, Note_off_c, 0, 78, 62
1, 75490, Note_off_c, 0, 76, 63
1, 75506, Note_on_c, 0, 78, 59
1, 75517, Note_on_c, 0, 81, 83
1, 75548, Note_off_c, 0, 80, 64
1, 75578, Note_off_c, 0, 78, 62
1, 75604, Note_on_c, 0, 75, 66
1, 75672, Note_off_c, 0, 75, 62
1, 75704, Note_on_c, 0, 71, 71
1, 75787, Note_on_c, 0, 69, 71
1, 75789, Note_off_c, 0, 71, 63
1, 75852, Note_off_c, 0, 81, 60
1, 75856, Note_off_c, 0, 69, 63
1, 75870, Note_on_c, 0, 75, 86
1, 75892, Note_on_c, 0, 71, 57
1, 75900, Note_off_c, 0, 75, 62
1, 75931, Note_off_c, 0, 71, 62
1, 75955, Note_on_c, 0, 73, 60
1, 76043, Note_off_c, 0, 73, 61
1, 76087, Note_on_c, 0, 71, 44
1, 76089, Note_on_c, 0, 80, 84
1, 76141, Note_off_c, 0, 71, 61
1, 76170, Note_on_c, 0, 69, 47
1, 76247, Note_off_c, 0, 69, 61
1, 76261, Note_on_c, 0, 71, 59
1, 76336, Note_off_c, 0, 71, 63
1, 76349, Note_on_c, 0, 73, 62
1, 76429, Note_off_c, 0, 73, 63
1, 76463, Note_on_c, 0, 69, 53
1, 76530, Note_off_c, 0, 69, 59
1, 76542, Note_on_c, 0, 68, 57
1, 76624, Note_off_c, 0, 68, 59
1, 76641, Note_off_c, 0, 80, 58
1, 76652, Note_on_c, 0, 69, 58
1, 76652, Note_on_c, 0, 78, 69
1, 76694, Note_off_c, 0, 69, 60
1, 76718, Note_off_c, 0, 78, 63
1, 76732, Note_on_c, 0, 76, 62
1, 76733, Note_on_c, 0, 71, 54
1, 76807, Note_off_c, 0, 71, 64
1, 76831, Note_on_c, 0, 69, 51
1, 76836, Note_off_c, 0, 76, 60
1, 76846, Note_on_c, 0, 75, 62
1, 76880, Note_off_c, 0, 69, 59
1, 76929, Note_on_c, 0, 68, 59
1, 76997, Note_off_c, 0, 68, 61
1, 77023, Note_on_c, 0, 59, 76
1, 77048, Note_off_c, 0, 59, 67
1, 77053, Note_on_c, 0, 69, 45
1, 77091, Note_off_c, 0, 75, 55
1, 77098, Note_on_c, 0, 71, 53
1, 77105, Note_off_c, 0, 69, 63
1, 77190, Note_off_c, 0, 71, 64
1, 77219, Note_on_c, 0, 61, 77
1, 77228, Note_on_c, 0, 68, 57
1, 77234, Note_on_c, 0, 76, 53
1, 77299, Note_off_c, 0, 76, 57
1, 77301, Note_off_c, 0, 68, 46
1, 77312, Note_on_c, 0, 75, 66
1, 77392, Note_off_c, 0, 75, 58
1, 77410, Note_on_c, 0, 64, 63
1, 77420, Note_on_c, 0, 76, 61
1, 77438, Note_off_c, 0, 64, 66
1, 77480, Note_off_c, 0, 76, 62
1, 77505, Note_on_c, 0, 78, 57
1, 77594, Note_off_c, 0, 61, 60
1, 77617, Note_on_c, 0, 69, 64
1, 77628, Note_off_c, 0, 78, 59
1, 77632, Note_on_c, 0, 76, 58
1, 77699, Note_off_c, 0, 76, 61
1, 77708, Note_on_c, 0, 54, 45
1, 77714, Note_on_c, 0, 75, 61
1, 77791, Note_off_c, 0, 54, 62
1, 77795, Note_on_c, 0, 76, 58
1, 77797, Note_off_c, 0, 75, 54
1, 77803, Note_on_c, 0, 56, 58
1, 77872, Note_off_c, 0, 76, 61
1, 77872, Note_on_c, 0, 78, 61
1, 77882, Note_off_c, 0, 56, 61
1, 77901, Note_on_c, 0, 57, 54
1, 77959, Note_off_c, 0, 78, 62
1, 77970, Note_off_c, 0, 57, 56
1, 77985, Note_on_c, 0, 75, 57
1, 77992, Note_on_c, 0, 59, 57
1, 78056, Note_off_c, 0, 75, 59
1, 78060, Note_off_c, 0, 59, 62
1, 78069, Note_on_c, 0, 73, 67
1, 78081, Note_on_c, 0, 57, 53
1, 78123, Note_off_c, 0, 57, 66
1, 78164, Note_on_c, 0, 59, 61
1, 78165, Note_on_c, 0, 75, 81
1, 78245, Note_off_c, 0, 59, 63
1, 78250, Note_off_c, 0, 73, 60
1, 78253, Note_on_c, 0, 76, 74
1, 78259, Note_on_c, 0, 61, 60
1, 78303, Note_off_c, 0, 75, 57
1, 78338, Note_off_c, 0, 61, 61
1, 78355, Note_on_c, 0, 78, 87
1, 78363, Note_on_c, 0, 63, 59
1, 78384, Note_off_c, 0, 69, 59
1, 78387, Note_off_c, 0, 76, 63
1, 78429, Note_off_c, 0, 63, 61
1, 78451, Note_on_c, 0, 72, 74
1, 78459, Note_on_c, 0, 64, 61
1, 78527, Note_off_c, 0, 64, 63
1, 78542, Note_on_c, 0, 73, 84
1, 78545, Note_on_c, 0, 63, 62
1, 78578, Note_off_c, 0, 72, 61
1, 78605, Note_off_c, 0, 63, 61
1, 78625, Note_on_c, 0, 75, 81
1, 78629, Note_on_c, 0, 61, 60
1, 78667, Note_off_c, 0, 73, 62
1, 78717, Note_off_c, 0, 61, 61
1, 78718, Note_on_c, 0, 68, 85
1, 78730, Note_on_c, 0, 60, 64
1, 78751, Note_off_c, 0, 75, 54
1, 78810, Note_off_c, 0, 60, 63
1, 78814, Note_on_c, 0, 56, 66
1, 78823, Note_off_c, 0, 78, 58
1, 78915, Note_on_c, 0, 58, 70
1, 78920, Note_off_c, 0, 56, 63
1, 78926, Note_on_c, 0, 76, 83
1, 78995, Note_off_c, 0, 58, 62
1, 79009, Note_on_c, 0, 60, 69
1, 79012, Note_on_c, 0, 75, 85
1, 79031, Note_off_c, 0, 76, 61
1, 79103, Note_off_c, 0, 60, 64
1, 79107, Note_on_c, 0, 61, 72
1, 79119, Note_on_c, 0, 76, 89
1, 79120, Note_off_c, 0, 68, 38
1, 79121, Note_off_c, 0, 75, 61
1, 79187, Note_off_c, 0, 61, 59
1, 79211, Note_on_c, 0, 63, 68
1, 79283, Note_off_c, 0, 63, 62
1, 79316, Note_on_c, 0, 64, 55
1, 79316, Note_on_c, 0, 73, 77
1, 79365, Note_off_c, 0, 73, 64
1, 79383, Note_on_c, 0, 61, 59
1, 79390, Note_off_c, 0, 64, 57
1, 79492, Note_off_c, 0, 61, 59
1, 79496, Note_on_c, 0, 57, 54
1, 79511, Note_on_c, 0, 66, 81
1, 79588, Note_off_c, 0, 57, 61
1, 79604, Note_on_c, 0, 56, 54
1, 79621, Note_off_c, 0, 76, 57
1, 79686, Note_off_c, 0, 56, 62
1, 79706, Note_on_c, 0, 57, 62
1, 79714, Note_on_c, 0, 76, 74
1, 79785, Note_off_c, 0, 57, 62
1, 79799, Note_on_c, 0, 59, 61
1, 79897, Note_off_c, 0, 59, 63
1, 79902, Note_off_c, 0, 76, 60
1, 79902, Note_on_c, 0, 75, 77
1, 79911, Note_on_c, 0, 57, 64
1, 79951, Note_off_c, 0, 75, 61
1, 79978, Note_off_c, 0, 57, 62
1, 79993, Note_on_c, 0, 56, 66
1, 80073, Note_off_c, 0, 56, 63
1, 80091, Note_on_c, 0, 73, 84
1, 80094, Note_on_c, 0, 57, 63
1, 80128, Note_off_c, 0, 73, 67
1, 80133, Note_off_c, 0, 57, 64
1, 80173, Note_on_c, 0, 59, 64
1, 80255, Note_off_c, 0, 59, 60
1, 80277, Note_on_c, 0, 72, 79
1, 80277, Note_on_c, 0, 56, 62
1, 80320, Note_off_c, 0, 72, 63
1, 80338, Note_off_c, 0, 56, 60
1, 80371, Note_on_c, 0, 52, 54
1, 80447, Note_off_c, 0, 52, 64
1, 80459, Note_on_c, 0, 54, 65
1, 80468, Note_on_c, 0, 68, 84
1, 80479, Note_off_c, 0, 66, 61
1, 80500, Note_off_c, 0, 68, 65
1, 80545, Note_off_c, 0, 54, 62
1, 80563, Note_on_c, 0, 56, 66
1, 80642, Note_off_c, 0, 56, 60
1, 80664, Note_on_c, 0, 57, 61
1, 80671, Note_on_c, 0, 73, 82
1, 80673, Note_on_c, 0, 64, 66
1, 80709, Note_off_c, 0, 64, 62
1, 80754, Note_off_c, 0, 57, 63
1, 80760, Note_on_c, 0, 59, 67
1, 80834, Note_off_c, 0, 59, 62
1, 80858, Note_on_c, 0, 61, 66
1, 80860, Note_on_c, 0, 69, 80
1, 80916, Note_off_c, 0, 69, 64
1, 80924, Note_off_c, 0, 61, 60
1, 80945, Note_on_c, 0, 57, 67
1, 81043, Note_on_c, 0, 54, 60
1, 81043, Note_off_c, 0, 57, 59
1, 81046, Note_on_c, 0, 63, 78
1, 81073, Note_off_c, 0, 73, 61
1, 81101, Note_off_c, 0, 63, 63
1, 81123, Note_off_c, 0, 54, 62
1, 81139, Note_on_c, 0, 52, 44
1, 81212, Note_off_c, 0, 52, 64
1, 81233, Note_on_c, 0, 54, 63
1, 81240, Note_on_c, 0, 75, 76
1, 81246, Note_on_c, 0, 66, 68
1, 81276, Note_off_c, 0, 66, 65
1, 81287, Note_off_c, 0, 54, 61
1, 81297, Note_off_c, 0, 75, 62
1, 81321, Note_on_c, 0, 56, 58
1, 81418, Note_off_c, 0, 56, 63
1, 81429, Note_on_c, 0, 54, 62
1, 81438, Note_on_c, 0, 68, 74
1, 81440, Note_on_c, 0, 60, 67
1, 81481, Note_off_c, 0, 60, 60
1, 81510, Note_off_c, 0, 54, 63
1, 81518, Note_on_c, 0, 52, 58
1, 81592, Note_off_c, 0, 52, 64
1, 81631, Note_on_c, 0, 70, 68
1, 81631, Note_on_c, 0, 54, 57
1, 81642, Note_on_c, 0, 63, 49
1, 81651, Note_off_c, 0, 68, 55
1, 81686, Note_off_c, 0, 54, 59
1, 81692, Note_off_c, 0, 63, 58
1, 81695, Note_on_c, 0, 56, 67
1, 81711, Note_on_c, 0, 72, 66
1, 81736, Note_off_c, 0, 56, 62
1, 81745, Note_off_c, 0, 70, 62
1, 81801, Note_off_c, 0, 72, 60
1, 81807, Note_on_c, 0, 73, 64
1, 81818, Note_on_c, 0, 56, 64
1, 81833, Note_on_c, 0, 52, 36
1, 81863, Note_off_c, 0, 73, 58
1, 81865, Note_off_c, 0, 52, 56
1, 81915, Note_on_c, 0, 72, 59
1, 81997, Note_off_c, 0, 72, 61
1, 82003, Note_on_c, 0, 51, 64
1, 82012, Note_on_c, 0, 73, 61
1, 82045, Note_off_c, 0, 51, 62
1, 82093, Note_off_c, 0, 73, 62
1, 82113, Note_on_c, 0, 75, 64
1, 82183, Note_off_c, 0, 75, 61
1, 82198, Note_on_c, 0, 49, 58
1, 82213, Note_on_c, 0, 76, 61
1, 82214, Note_off_c, 0, 56, 56
1, 82239, Note_off_c, 0, 49, 65
1, 82268, Note_off_c, 0, 76, 57
1, 82305, Note_on_c, 0, 78, 58
1, 82381, Note_off_c, 0, 78, 60
1, 82392, Note_on_c, 0, 52, 51
1, 82400, Note_on_c, 0, 80, 65
1, 82419, Note_off_c, 0, 52, 63
1, 82490, Note_off_c, 0, 80, 61
1, 82502, Note_on_c, 0, 76, 53
1, 82578, Note_on_c, 0, 46, 47
1, 82590, Note_off_c, 0, 76, 62
1, 82602, Note_on_c, 0, 73, 57
1, 82605, Note_off_c, 0, 46, 57
1, 82649, Note_off_c, 0, 73, 62
1, 82676, Note_on_c, 0, 71, 56
1, 82759, Note_off_c, 0, 71, 60
1, 82768, Note_on_c, 0, 56, 63
1, 82770, Note_on_c, 0, 73, 62
1, 82801, Note_off_c, 0, 56, 65
1, 82830, Note_off_c, 0, 73, 60
1, 82854, Note_on_c, 0, 75, 64
1, 82966, Note_on_c, 0, 58, 80
1, 82966, Note_off_c, 0, 75, 59
1, 82972, Note_on_c, 0, 55, 38
1, 82973, Note_on_c, 0, 73, 59
1, 83004, Note_off_c, 0, 55, 58
1, 83028, Note_off_c, 0, 73, 60
1, 83060, Note_on_c, 0, 71, 57
1, 83121, Note_off_c, 0, 71, 55
1, 83154, Note_on_c, 0, 51, 60
1, 83157, Note_on_c, 0, 73, 54
1, 83191, Note_off_c, 0, 51, 64
1, 83214, Note_off_c, 0, 73, 61
1, 83237, Note_on_c, 0, 75, 58
1, 83321, Note_off_c, 0, 75, 57
1, 83345, Note_on_c, 0, 71, 61
1, 83357, Note_on_c, 0, 44, 55
1, 83389, Note_off_c, 0, 44, 63
1, 83415, Note_off_c, 0, 71, 59
1, 83434, Note_on_c, 0, 70, 66
1, 83518, Note_off_c, 0, 70, 63
1, 83536, Note_on_c, 0, 71, 69
1, 83543, Note_on_c, 0, 46, 52
1, 83593, Note_off_c, 0, 46, 62
1, 83599, Note_off_c, 0, 58, 62
1, 83623, Note_on_c, 0, 73, 76
1, 83629, Note_off_c, 0, 71, 61
1, 83729, Note_on_c, 0, 75, 72
1, 83729, Note_off_c, 0, 73, 57
1, 83731, Note_on_c, 0, 47, 58
1, 83733, Note_on_c, 0, 56, 68
1, 83780, Note_off_c, 0, 47, 62
1, 83821, Note_on_c, 0, 76, 67
1, 83829, Note_off_c, 0, 75, 59
1, 83914, Note_off_c, 0, 76, 64
1, 83921, Note_on_c, 0, 78, 78
1, 83923, Note_on_c, 0, 46, 59
1, 83961, Note_off_c, 0, 46, 63
1, 84013, Note_on_c, 0, 75, 70
1, 84015, Note_off_c, 0, 78, 59
1, 84096, Note_off_c, 0, 75, 56
1, 84099, Note_off_c, 0, 56, 57
1, 84110, Note_on_c, 0, 44, 72
1, 84114, Note_on_c, 0, 71, 67
1, 84147, Note_off_c, 0, 44, 64
1, 84182, Note_off_c, 0, 71, 64
1, 84204, Note_on_c, 0, 69, 62
1, 84278, Note_off_c, 0, 69, 59
1, 84296, Note_on_c, 0, 54, 72
1, 84307, Note_on_c, 0, 71, 68
1, 84336, Note_off_c, 0, 54, 68
1, 84374, Note_off_c, 0, 71, 63
1, 84392, Note_on_c, 0, 73, 58
1, 84495, Note_off_c, 0, 73, 49
1, 84502, Note_on_c, 0, 56, 70
1, 84504, Note_on_c, 0, 53, 51
1, 84517, Note_on_c, 0, 71, 56
1, 84541, Note_off_c, 0, 53, 64
1, 84573, Note_off_c, 0, 71, 61
1, 84605, Note_on_c, 0, 69, 52
1, 84668, Note_off_c, 0, 69, 53
1, 84704, Note_on_c, 0, 49, 49
1, 84710, Note_on_c, 0, 71, 54
1, 84738, Note_off_c, 0, 49, 65
1, 84778, Note_off_c, 0, 71, 61
1, 84799, Note_on_c, 0, 73, 53
1, 84867, Note_off_c, 0, 73, 58
1, 84894, Note_on_c, 0, 42, 56
1, 84901, Note_on_c, 0, 69, 53
1, 84938, Note_off_c, 0, 42, 63
1, 84954, Note_off_c, 0, 69, 57
1, 84994, Note_on_c, 0, 68, 51
1, 85076, Note_off_c, 0, 68, 61
1, 85090, Note_on_c, 0, 69, 53
1, 85102, Note_on_c, 0, 44, 46
1, 85145, Note_off_c, 0, 44, 61
1, 85151, Note_off_c, 0, 56, 61
1, 85165, Note_off_c, 0, 69, 60
1, 85175, Note_on_c, 0, 71, 61
1, 85267, Note_off_c, 0, 71, 55
1, 85279, Note_on_c, 0, 45, 48
1, 85288, Note_on_c, 0, 54, 51
1, 85288, Note_on_c, 0, 73, 57
1, 85326, Note_off_c, 0, 45, 61
1, 85375, Note_off_c, 0, 73, 60
1, 85389, Note_on_c, 0, 75, 54
1, 85479, Note_on_c, 0, 44, 53
1, 85485, Note_on_c, 0, 76, 58
1, 85495, Note_off_c, 0, 75, 44
1, 85518, Note_off_c, 0, 44, 63
1, 85559, Note_off_c, 0, 76, 62
1, 85575, Note_on_c, 0, 73, 64
1, 85662, Note_on_c, 0, 42, 71
1, 85667, Note_off_c, 0, 73, 64
1, 85679, Note_on_c, 0, 75, 72
1, 85680, Note_off_c, 0, 54, 41
1, 85699, Note_off_c, 0, 42, 64
1, 85767, Note_off_c, 0, 75, 60
1, 85768, Note_on_c, 0, 73, 74
1, 85860, Note_on_c, 0, 52, 79
1, 85875, Note_on_c, 0, 75, 82
1, 85885, Note_off_c, 0, 73, 60
1, 85893, Note_off_c, 0, 52, 67
1, 85947, Note_off_c, 0, 75, 61
1, 85959, Note_on_c, 0, 76, 80
1, 86045, Note_on_c, 0, 54, 79
1, 86053, Note_on_c, 0, 51, 70
1, 86064, Note_on_c, 0, 78, 84
1, 86071, Note_off_c, 0, 76, 63
1, 86087, Note_off_c, 0, 51, 66
1, 86153, Note_on_c, 0, 80, 75
1, 86176, Note_off_c, 0, 78, 61
1, 86230, Note_on_c, 0, 49, 68
1, 86245, Note_on_c, 0, 81, 75
1, 86277, Note_off_c, 0, 80, 63
1, 86279, Note_off_c, 0, 49, 62
1, 86332, Note_on_c, 0, 78, 76
1, 86346, Note_off_c, 0, 81, 64
1, 86418, Note_on_c, 0, 48, 62
1, 86426, Note_on_c, 0, 80, 77
1, 86427, Note_off_c, 0, 78, 62
1, 86452, Note_off_c, 0, 48, 64
1, 86519, Note_on_c, 0, 78, 81
1, 86531, Note_off_c, 0, 80, 62
1, 86605, Note_off_c, 0, 78, 64
1, 86617, Note_on_c, 0, 76, 82
1, 86618, Note_on_c, 0, 44, 62
1, 86653, Note_off_c, 0, 44, 62
1, 86659, Note_off_c, 0, 54, 54
1, 86705, Note_on_c, 0, 75, 81
1, 86725, Note_off_c, 0, 76, 63
1, 86793, Note_on_c, 0, 52, 75
1, 86798, Note_on_c, 0, 45, 70
1, 86801, Note_on_c, 0, 73, 81
1, 86817, Note_off_c, 0, 52, 68
1, 86824, Note_off_c, 0, 45, 66
1, 86828, Note_off_c, 0, 75, 59
1, 86888, Note_on_c, 0, 71, 80
1, 86904, Note_off_c, 0, 73, 61
1, 86963, Note_off_c, 0, 71, 62
1, 86987, Note_on_c, 0, 61, 91
1, 86993, Note_on_c, 0, 69, 78
1, 87001, Note_on_c, 0, 52, 77
1, 87026, Note_off_c, 0, 61, 64
1, 87027, Note_off_c, 0, 52, 68
1, 87073, Note_off_c, 0, 69, 54
1, 87086, Note_on_c, 0, 68, 66
1, 87185, Note_off_c, 0, 68, 57
1, 87197, Note_on_c, 0, 54, 69
1, 87199, Note_on_c, 0, 63, 86
1, 87205, Note_on_c, 0, 66, 74
1, 87270, Note_off_c, 0, 54, 64
1, 87304, Note_on_c, 0, 68, 71
1, 87313, Note_on_c, 0, 52, 54
1, 87316, Control_c, 0, 64, 34
1, 87318, Note_off_c, 0, 66, 53
1, 87331, Control_c, 0, 64, 53
1, 87346, Control_c, 0, 64, 62
1, 87360, Control_c, 0, 64, 67
1, 87375, Control_c, 0, 64, 72
1, 87390, Control_c, 0, 64, 78
1, 87396, Note_off_c, 0, 52, 64
1, 87398, Note_on_c, 0, 69, 75
1, 87399, Note_on_c, 0, 54, 74
1, 87402, Note_off_c, 0, 63, 63
1, 87405, Control_c, 0, 64, 84
1, 87420, Control_c, 0, 64, 86
1, 87425, Note_off_c, 0, 54, 67
1, 87428, Note_off_c, 0, 68, 49
1, 87434, Control_c, 0, 64, 86
1, 87449, Control_c, 0, 64, 84
1, 87464, Control_c, 0, 64, 84
1, 87479, Control_c, 0, 64, 83
1, 87481, Note_off_c, 0, 69, 62
1, 87488, Note_on_c, 0, 66, 71
1, 87494, Control_c, 0, 64, 83
1, 87509, Control_c, 0, 64, 82
1, 87524, Control_c, 0, 64, 78
1, 87539, Control_c, 0, 64, 73
1, 87553, Control_c, 0, 64, 65
1, 87568, Control_c, 0, 64, 47
1, 87583, Control_c, 0, 64, 0
1, 87587, Note_on_c, 0, 56, 75
1, 87592, Note_on_c, 0, 63, 69
1, 87592, Note_off_c, 0, 66, 62
1, 87618, Note_off_c, 0, 56, 68
1, 87654, Note_off_c, 0, 63, 63
1, 87681, Note_on_c, 0, 56, 67
1, 87747, Note_off_c, 0, 56, 64
1, 87772, Note_on_c, 0, 44, 62
1, 87777, Note_on_c, 0, 68, 64
1, 87780, Note_on_c, 0, 58, 67
1, 87806, Note_off_c, 0, 44, 64
1, 87816, Note_off_c, 0, 58, 65
1, 87866, Note_on_c, 0, 60, 63
1, 87872, Note_off_c, 0, 68, 54
1, 87944, Note_off_c, 0, 60, 53
1, 87956, Note_on_c, 0, 49, 52
1, 87963, Note_on_c, 0, 64, 57
1, 87964, Note_on_c, 0, 61, 60
1, 87993, Note_off_c, 0, 61, 65
1, 87993, Note_off_c, 0, 64, 66
1, 87998, Control_c, 0, 64, 58
1, 88007, Note_off_c, 0, 49, 61
1, 88013, Control_c, 0, 64, 68
1, 88028, Control_c, 0, 64, 79
1, 88049, Control_c, 0, 64, 110
1, 88064, Control_c, 0, 64, 127
1, 88069, Note_on_c, 0, 60, 65
1, 88123, Control_c, 0, 64, 111
1, 88138, Control_c, 0, 64, 87
1, 88147, Note_off_c, 0, 60, 63
1, 88153, Control_c, 0, 64, 72
1, 88158, Note_on_c, 0, 61, 66
1, 88159, Note_on_c, 0, 68, 72
1, 88168, Control_c, 0, 64, 57
1, 88183, Control_c, 0, 64, 0
1, 88186, Note_off_c, 0, 68, 65
1, 88235, Note_off_c, 0, 61, 60
1, 88249, Note_on_c, 0, 63, 70
1, 88326, Note_off_c, 0, 63, 62
1, 88348, Note_on_c, 0, 64, 66
1, 88349, Note_on_c, 0, 73, 86
1, 88382, Note_off_c, 0, 73, 66
1, 88423, Note_off_c, 0, 64, 59
1, 88433, Note_on_c, 0, 66, 67
1, 88509, Note_off_c, 0, 66, 59
1, 88535, Note_on_c, 0, 68, 64
1, 88543, Note_on_c, 0, 71, 81
1, 88581, Note_off_c, 0, 71, 64
1, 88588, Note_off_c, 0, 68, 59
1, 88631, Note_on_c, 0, 64, 56
1, 88738, Note_off_c, 0, 64, 54
1, 88744, Note_on_c, 0, 61, 48
1, 88752, Note_on_c, 0, 76, 70
1, 88847, Note_off_c, 0, 61, 59
1, 88851, Note_on_c, 0, 59, 51
1, 88852, Note_on_c, 0, 75, 75
1, 88899, Note_off_c, 0, 76, 57
1, 88937, Note_off_c, 0, 59, 61
1, 88952, Note_on_c, 0, 73, 76
1, 88961, Note_on_c, 0, 61, 59
1, 89002, Note_off_c, 0, 75, 56
1, 89021, Note_off_c, 0, 61, 57
1, 89041, Note_on_c, 0, 63, 57
1, 89044, Note_on_c, 0, 71, 79
1, 89074, Note_off_c, 0, 73, 63
1, 89122, Note_off_c, 0, 63, 63
1, 89130, Note_off_c, 0, 71, 64
1, 89139, Note_on_c, 0, 69, 76
1, 89141, Note_on_c, 0, 61, 54
1, 89211, Note_off_c, 0, 61, 61
1, 89224, Note_on_c, 0, 59, 54
1, 89302, Note_off_c, 0, 59, 64
1, 89336, Note_on_c, 0, 61, 56
1, 89385, Note_off_c, 0, 61, 59
1, 89413, Note_on_c, 0, 63, 60
1, 89483, Note_off_c, 0, 63, 61
1, 89516, Note_on_c, 0, 59, 60
1, 89604, Note_off_c, 0, 59, 60
1, 89610, Note_on_c, 0, 56, 64
1, 89658, Note_off_c, 0, 69, 59
1, 89688, Note_off_c, 0, 56, 62
1, 89689, Note_on_c, 0, 57, 59
1, 89694, Note_on_c, 0, 63, 75
1, 89738, Note_off_c, 0, 63, 59
1, 89756, Note_off_c, 0, 57, 64
1, 89780, Note_on_c, 0, 59, 62
1, 89865, Note_off_c, 0, 59, 63
1, 89880, Note_on_c, 0, 61, 62
1, 89885, Note_on_c, 0, 69, 76
1, 89908, Note_off_c, 0, 69, 70
1, 89959, Note_off_c, 0, 61, 57
1, 89982, Note_on_c, 0, 63, 64
1, 90047, Note_off_c, 0, 63, 61
1, 90072, Note_on_c, 0, 68, 72
1, 90087, Note_on_c, 0, 64, 49
1, 90116, Note_off_c, 0, 68, 58
1, 90139, Note_off_c, 0, 64, 58
1, 90167, Note_on_c, 0, 61, 47
1, 90263, Note_off_c, 0, 61, 58
1, 90270, Note_on_c, 0, 57, 45
1, 90270, Note_on_c, 0, 73, 55
1, 90359, Note_on_c, 0, 71, 57
1, 90370, Note_off_c, 0, 57, 60
1, 90391, Note_off_c, 0, 73, 54
1, 90398, Note_on_c, 0, 56, 44
1, 90455, Note_on_c, 0, 69, 57
1, 90460, Note_off_c, 0, 56, 60
1, 90466, Note_off_c, 0, 71, 56
1, 90505, Note_on_c, 0, 57, 44
1, 90547, Note_off_c, 0, 57, 62
1, 90552, Note_on_c, 0, 68, 62
1, 90558, Note_off_c, 0, 69, 60
1, 90575, Note_on_c, 0, 59, 44
1, 90645, Note_off_c, 0, 59, 60
1, 90661, Note_on_c, 0, 66, 54
1, 90663, Note_on_c, 0, 57, 40
1, 90664, Note_off_c, 0, 68, 58
1, 90730, Note_off_c, 0, 57, 58
1, 90766, Note_on_c, 0, 56, 47
1, 90841, Note_off_c, 0, 56, 58
1, 90856, Note_on_c, 0, 57, 51
1, 90917, Note_off_c, 0, 57, 62
1, 90951, Note_on_c, 0, 59, 44
1, 91061, Note_off_c, 0, 59, 51
1, 91068, Note_on_c, 0, 56, 53
1, 91128, Note_off_c, 0, 56, 58
1, 91135, Note_off_c, 0, 66, 49
1, 91152, Note_on_c, 0, 54, 50
1, 91232, Note_off_c, 0, 54, 62
1, 91250, Note_on_c, 0, 64, 52
1, 91251, Note_on_c, 0, 56, 51
1, 91306, Note_off_c, 0, 56, 62
1, 91322, Note_off_c, 0, 64, 59
1, 91327, Note_on_c, 0, 57, 49
1, 91338, Note_on_c, 0, 63, 56
1, 91390, Note_off_c, 0, 57, 58
1, 91409, Note_off_c, 0, 63, 63
1, 91425, Note_on_c, 0, 56, 67
1, 91435, Note_on_c, 0, 64, 64
1, 91453, Note_off_c, 0, 56, 67
1, 91491, Note_off_c, 0, 64, 51
1, 91509, Note_on_c, 0, 66, 65
1, 91599, Note_off_c, 0, 66, 59
1, 91616, Note_on_c, 0, 52, 78
1, 91619, Note_on_c, 0, 68, 66
1, 91623, Note_on_c, 0, 59, 59
1, 91643, Note_off_c, 0, 52, 68
1, 91673, Note_off_c, 0, 68, 59
1, 91698, Note_on_c, 0, 64, 64
1, 91820, Note_off_c, 0, 64, 58
1, 91827, Note_on_c, 0, 54, 78
1, 91831, Note_on_c, 0, 61, 56
1, 91846, Note_off_c, 0, 59, 58
1, 91920, Note_on_c, 0, 68, 64
1, 91921, Note_off_c, 0, 61, 60
1, 92020, Note_off_c, 0, 68, 58
1, 92022, Note_on_c, 0, 66, 61
1, 92028, Note_on_c, 0, 57, 43
1, 92082, Note_off_c, 0, 57, 62
1, 92086, Note_off_c, 0, 66, 59
1, 92106, Note_off_c, 0, 54, 56
1, 92115, Note_on_c, 0, 56, 51
1, 92120, Note_on_c, 0, 64, 53
1, 92180, Note_off_c, 0, 56, 62
1, 92207, Note_on_c, 0, 57, 46
1, 92225, Note_off_c, 0, 64, 60
1, 92233, Note_on_c, 0, 63, 46
1, 92311, Note_on_c, 0, 61, 47
1, 92323, Note_on_c, 0, 47, 50
1, 92323, Note_off_c, 0, 57, 55
1, 92385, Note_off_c, 0, 47, 61
1, 92397, Note_off_c, 0, 63, 30
1, 92405, Note_off_c, 0, 61, 53
1, 92409, Note_on_c, 0, 49, 56
1, 92412, Note_on_c, 0, 59, 58
1, 92466, Note_off_c, 0, 59, 62
1, 92487, Note_off_c, 0, 49, 62
1, 92492, Note_on_c, 0, 57, 48
1, 92496, Note_on_c, 0, 51, 60
1, 92569, Note_off_c, 0, 57, 59
1, 92580, Note_off_c, 0, 51, 63
1, 92600, Note_on_c, 0, 52, 57
1, 92604, Note_on_c, 0, 56, 53
1, 92670, Note_off_c, 0, 52, 64
1, 92703, Note_on_c, 0, 51, 56
1, 92704, Note_off_c, 0, 56, 57
1, 92705, Control_c, 0, 64, 44
1, 92709, Note_on_c, 0, 59, 52
1, 92719, Control_c, 0, 64, 53
1, 92734, Control_c, 0, 64, 56
1, 92749, Control_c, 0, 64, 58
1, 92755, Note_off_c, 0, 51, 62
1, 92764, Control_c, 0, 64, 59
1, 92784, Note_on_c, 0, 61, 62
1, 92785, Note_off_c, 0, 59, 62
1, 92792, Note_on_c, 0, 52, 54
1, 92794, Control_c, 0, 64, 59
1, 92809, Control_c, 0, 64, 58
1, 92824, Control_c, 0, 64, 57
1, 92839, Control_c, 0, 64, 56
1, 92853, Control_c, 0, 64, 55
1, 92864, Note_off_c, 0, 52, 58
1, 92868, Control_c, 0, 64, 53
1, 92883, Note_on_c, 0, 63, 67
1, 92883, Control_c, 0, 64, 50
1, 92886, Note_off_c, 0, 61, 60
1, 92895, Note_on_c, 0, 54, 56
1, 92898, Control_c, 0, 64, 47
1, 92913, Control_c, 0, 64, 44
1, 92927, Control_c, 0, 64, 40
1, 92942, Control_c, 0, 64, 32
1, 92957, Control_c, 0, 64, 20
1, 92958, Note_off_c, 0, 63, 63
1, 92966, Note_off_c, 0, 54, 64
1, 92971, Control_c, 0, 64, 0
1, 92973, Note_on_c, 0, 56, 59
1, 92982, Note_on_c, 0, 64, 64
1, 93049, Note_off_c, 0, 56, 62
1, 93063, Note_on_c, 0, 57, 63
1, 93071, Note_on_c, 0, 66, 75
1, 93088, Note_off_c, 0, 64, 56
1, 93116, Note_off_c, 0, 57, 61
1, 93157, Note_on_c, 0, 68, 83
1, 93158, Note_on_c, 0, 59, 61
1, 93176, Note_off_c, 0, 66, 62
1, 93230, Note_off_c, 0, 59, 59
1, 93244, Note_on_c, 0, 64, 77
1, 93248, Note_on_c, 0, 56, 56
1, 93249, Note_off_c, 0, 68, 59
1, 93343, Note_off_c, 0, 56, 59
1, 93354, Note_off_c, 0, 64, 59
1, 93364, Note_on_c, 0, 52, 49
1, 93369, Note_on_c, 0, 73, 82
1, 93450, Note_off_c, 0, 52, 61
1, 93468, Note_on_c, 0, 51, 61
1, 93551, Note_off_c, 0, 51, 63
1, 93562, Note_on_c, 0, 52, 62
1, 93652, Note_on_c, 0, 54, 67
1, 93652, Note_off_c, 0, 52, 63
1, 93697, Note_off_c, 0, 73, 63
1, 93757, Note_on_c, 0, 52, 72
1, 93757, Note_off_c, 0, 54, 64
1, 93829, Note_on_c, 0, 51, 71
1, 93835, Note_off_c, 0, 52, 64
1, 93854, Note_on_c, 0, 66, 72
1, 93922, Note_off_c, 0, 51, 63
1, 93935, Note_on_c, 0, 52, 68
1, 93939, Note_on_c, 0, 68, 83
1, 93963, Note_off_c, 0, 66, 62
1, 94004, Note_off_c, 0, 52, 63
1, 94013, Note_on_c, 0, 54, 76
1, 94028, Note_on_c, 0, 70, 81
1, 94067, Note_off_c, 0, 68, 61
1, 94112, Note_off_c, 0, 54, 58
1, 94114, Note_off_c, 0, 70, 65
1, 94124, Note_on_c, 0, 51, 81
1, 94129, Note_on_c, 0, 71, 85
1, 94152, Note_off_c, 0, 51, 69
1, 94216, Note_on_c, 0, 70, 84
1, 94224, Note_off_c, 0, 71, 59
1, 94306, Note_off_c, 0, 70, 64
1, 94314, Note_on_c, 0, 54, 77
1, 94317, Note_on_c, 0, 71, 86
1, 94343, Note_off_c, 0, 54, 70
1, 94401, Note_on_c, 0, 73, 87
1, 94432, Note_off_c, 0, 71, 62
1, 94492, Note_on_c, 0, 47, 83
1, 94496, Note_on_c, 0, 75, 84
1, 94505, Note_off_c, 0, 73, 63
1, 94519, Note_off_c, 0, 47, 67
1, 94577, Note_off_c, 0, 75, 62
1, 94588, Note_on_c, 0, 76, 82
1, 94691, Note_on_c, 0, 64, 90
1, 94693, Note_on_c, 0, 52, 86
1, 94693, Note_off_c, 0, 76, 63
1, 94695, Note_on_c, 0, 78, 74
1, 94727, Note_off_c, 0, 64, 67
1, 94799, Note_on_c, 0, 80, 65
1, 94799, Note_off_c, 0, 78, 63
1, 94827, Note_off_c, 0, 80, 69
1, 94945, Note_on_c, 0, 66, 91
1, 94960, Note_on_c, 0, 69, 75
1, 95049, Note_off_c, 0, 69, 61
1, 95057, Note_on_c, 0, 68, 71
1, 95116, Note_off_c, 0, 52, 62
1, 95152, Note_on_c, 0, 51, 63
1, 95167, Note_off_c, 0, 68, 52
1, 95170, Note_on_c, 0, 69, 62
1, 95229, Note_off_c, 0, 69, 64
1, 95243, Note_off_c, 0, 51, 63
1, 95250, Note_on_c, 0, 71, 61
1, 95252, Note_on_c, 0, 49, 64
1, 95325, Note_off_c, 0, 66, 59
1, 95346, Note_on_c, 0, 69, 74
1, 95349, Note_off_c, 0, 49, 64
1, 95353, Note_on_c, 0, 51, 78
1, 95378, Note_off_c, 0, 51, 68
1, 95383, Note_off_c, 0, 71, 64
1, 95432, Note_on_c, 0, 68, 76
1, 95438, Note_on_c, 0, 59, 64
1, 95438, Note_off_c, 0, 69, 64
1, 95493, Note_off_c, 0, 59, 56
1, 95539, Note_off_c, 0, 68, 51
1, 95542, Note_on_c, 0, 59, 55
1, 95551, Note_on_c, 0, 61, 77
1, 95555, Note_on_c, 0, 69, 69
1, 95602, Note_off_c, 0, 59, 61
1, 95619, Note_on_c, 0, 71, 64
1, 95634, Note_off_c, 0, 61, 61
1, 95635, Note_on_c, 0, 63, 70
1, 95635, Note_off_c, 0, 69, 53
1, 95725, Note_off_c, 0, 71, 62
1, 95727, Note_off_c, 0, 63, 64
1, 95741, Note_on_c, 0, 61, 71
1, 95742, Note_on_c, 0, 64, 72
1, 95744, Note_on_c, 0, 68, 73
1, 95832, Note_off_c, 0, 64, 62
1, 95839, Note_on_c, 0, 63, 72
1, 95840, Note_on_c, 0, 66, 70
1, 95843, Note_off_c, 0, 68, 59
1, 95908, Note_off_c, 0, 63, 63
1, 95930, Note_on_c, 0, 64, 68
1, 95933, Note_on_c, 0, 68, 81
1, 95948, Note_off_c, 0, 66, 61
1, 96006, Note_off_c, 0, 64, 62
1, 96008, Note_off_c, 0, 68, 63
1, 96016, Note_on_c, 0, 69, 86
1, 96019, Note_on_c, 0, 66, 62
1, 96077, Note_off_c, 0, 61, 59
1, 96093, Note_off_c, 0, 66, 62
1, 96116, Note_on_c, 0, 71, 76
1, 96119, Note_off_c, 0, 69, 64
1, 96121, Note_on_c, 0, 68, 75
1, 96196, Note_on_c, 0, 73, 73
1, 96205, Note_off_c, 0, 68, 61
1, 96222, Note_on_c, 0, 69, 67
1, 96228, Note_off_c, 0, 71, 61
1, 96291, Note_off_c, 0, 69, 52
1, 96324, Note_on_c, 0, 74, 82
1, 96327, Note_on_c, 0, 56, 55
1, 96333, Note_on_c, 0, 71, 57
1, 96365, Note_off_c, 0, 71, 67
1, 96367, Note_off_c, 0, 56, 66
1, 96373, Note_off_c, 0, 73, 57
1, 96416, Note_on_c, 0, 68, 62
1, 96474, Note_off_c, 0, 68, 61
1, 96506, Note_on_c, 0, 64, 52
1, 96529, Note_on_c, 0, 57, 64
1, 96567, Note_off_c, 0, 57, 64
1, 96592, Note_off_c, 0, 64, 56
1, 96610, Note_on_c, 0, 63, 64
1, 96616, Note_off_c, 0, 74, 60
1, 96672, Note_off_c, 0, 63, 63
1, 96717, Note_on_c, 0, 56, 67
1, 96726, Note_on_c, 0, 64, 48
1, 96731, Note_on_c, 0, 73, 78
1, 96761, Note_off_c, 0, 56, 62
1, 96776, Note_off_c, 0, 64, 59
1, 96815, Note_on_c, 0, 71, 69
1, 96821, Note_on_c, 0, 66, 54
1, 96829, Note_off_c, 0, 73, 59
1, 96871, Note_off_c, 0, 66, 59
1, 96914, Note_on_c, 0, 73, 81
1, 96915, Note_on_c, 0, 57, 60
1, 96915, Note_off_c, 0, 71, 63
1, 96918, Note_on_c, 0, 64, 53
1, 96950, Note_off_c, 0, 57, 63
1, 96972, Note_off_c, 0, 64, 58
1, 97018, Note_on_c, 0, 63, 63
1, 97092, Note_off_c, 0, 63, 62
1, 97115, Note_on_c, 0, 52, 63
1, 97119, Note_on_c, 0, 64, 55
1, 97158, Note_off_c, 0, 52, 63
1, 97191, Note_off_c, 0, 64, 60
1, 97211, Note_on_c, 0, 66, 58
1, 97307, Note_on_c, 0, 54, 67
1, 97312, Note_off_c, 0, 66, 56
1, 97325, Note_on_c, 0, 63, 61
1, 97367, Note_off_c, 0, 54, 61
1, 97397, Note_off_c, 0, 63, 63
1, 97411, Note_on_c, 0, 61, 60
1, 97470, Note_off_c, 0, 61, 55
1, 97501, Note_on_c, 0, 57, 64
1, 97517, Note_on_c, 0, 63, 64
1, 97535, Note_off_c, 0, 57, 63
1, 97584, Note_off_c, 0, 63, 62
1, 97592, Note_off_c, 0, 73, 57
1, 97593, Note_on_c, 0, 64, 57
1, 97689, Note_off_c, 0, 64, 53
1, 97692, Note_on_c, 0, 56, 62
1, 97701, Note_on_c, 0, 71, 65
1, 97704, Note_on_c, 0, 66, 54
1, 97730, Note_off_c, 0, 56, 66
1, 97762, Note_off_c, 0, 66, 55
1, 97807, Note_on_c, 0, 68, 57
1, 97882, Note_off_c, 0, 68, 55
1, 97897, Note_on_c, 0, 69, 58
1, 97900, Note_on_c, 0, 54, 63
1, 97939, Note_off_c, 0, 54, 62
1, 98002, Note_on_c, 0, 66, 52
1, 98017, Note_off_c, 0, 69, 56
1, 98046, Note_off_c, 0, 71, 57
1, 98078, Note_off_c, 0, 66, 62
1, 98082, Note_on_c, 0, 52, 62
1, 98102, Note_on_c, 0, 62, 60
1, 98115, Note_off_c, 0, 52, 63
1, 98178, Note_off_c, 0, 62, 62
1, 98189, Note_on_c, 0, 61, 60
1, 98269, Note_off_c, 0, 61, 60
1, 98280, Note_on_c, 0, 54, 58
1, 98300, Note_on_c, 0, 62, 56
1, 98325, Note_off_c, 0, 54, 61
1, 98346, Note_off_c, 0, 62, 59
1, 98368, Note_on_c, 0, 64, 56
1, 98472, Note_off_c, 0, 64, 58
1, 98481, Note_on_c, 0, 56, 50
1, 98481, Note_on_c, 0, 71, 68
1, 98487, Note_on_c, 0, 62, 50
1, 98520, Note_off_c, 0, 56, 65
1, 98538, Note_off_c, 0, 62, 60
1, 98580, Note_on_c, 0, 61, 56
1, 98643, Note_off_c, 0, 61, 58
1, 98671, Note_on_c, 0, 52, 53
1, 98686, Note_on_c, 0, 62, 40
1, 98706, Note_off_c, 0, 52, 65
1, 98735, Note_off_c, 0, 62, 59
1, 98762, Note_on_c, 0, 64, 49
1, 98852, Note_off_c, 0, 64, 56
1, 98871, Note_on_c, 0, 57, 55
1, 98877, Note_on_c, 0, 61, 54
1, 98904, Note_off_c, 0, 57, 65
1, 98956, Note_off_c, 0, 61, 58
1, 98982, Note_on_c, 0, 59, 56
1, 99042, Note_off_c, 0, 59, 0
1, 99060, Note_on_c, 0, 59, 53
1, 99078, Note_on_c, 0, 61, 58
1, 99087, Note_off_c, 0, 71, 48
1, 99099, Note_off_c, 0, 59, 65
1, 99146, Note_off_c, 0, 61, 60
1, 99167, Note_on_c, 0, 62, 53
1, 99217, Note_off_c, 0, 62, 57
1, 99254, Note_on_c, 0, 69, 62
1, 99254, Note_on_c, 0, 61, 64
1, 99257, Note_on_c, 0, 64, 53
1, 99295, Note_off_c, 0, 61, 63
1, 99310, Note_off_c, 0, 64, 58
1, 99362, Note_on_c, 0, 66, 52
1, 99426, Note_off_c, 0, 66, 56
1, 99450, Note_on_c, 0, 68, 57
1, 99456, Note_on_c, 0, 59, 68
1, 99489, Note_off_c, 0, 59, 63
1, 99543, Note_off_c, 0, 69, 56
1, 99556, Note_on_c, 0, 64, 59
1, 99608, Note_off_c, 0, 68, 55
1, 99645, Note_on_c, 0, 57, 69
1, 99651, Note_off_c, 0, 64, 60
1, 99654, Note_on_c, 0, 61, 63
1, 99676, Note_off_c, 0, 57, 65
1, 99728, Note_off_c, 0, 61, 61
1, 99741, Note_on_c, 0, 59, 66
1, 99840, Note_on_c, 0, 61, 75
1, 99841, Note_on_c, 0, 52, 68
1, 99843, Note_off_c, 0, 59, 61
1, 99872, Note_off_c, 0, 52, 67
1, 99912, Note_off_c, 0, 61, 62
1, 99920, Note_on_c, 0, 62, 69
1, 99993, Note_off_c, 0, 62, 56
1, 100020, Note_on_c, 0, 69, 86
1, 100030, Note_on_c, 0, 54, 74
1, 100044, Note_on_c, 0, 61, 66
1, 100056, Note_off_c, 0, 54, 67
1, 100085, Note_off_c, 0, 61, 59
1, 100126, Note_on_c, 0, 59, 69
1, 100211, Note_off_c, 0, 59, 60
1, 100214, Note_on_c, 0, 61, 65
1, 100219, Note_on_c, 0, 49, 77
1, 100249, Note_off_c, 0, 49, 67
1, 100283, Note_off_c, 0, 61, 61
1, 100304, Note_on_c, 0, 62, 61
1, 100408, Note_off_c, 0, 62, 55
1, 100414, Note_on_c, 0, 51, 93
1, 100423, Note_on_c, 0, 59, 74
1, 100458, Note_off_c, 0, 51, 65
1, 100499, Note_off_c, 0, 59, 64
1, 100506, Note_on_c, 0, 57, 70
1, 100578, Note_off_c, 0, 57, 59
1, 100610, Note_on_c, 0, 47, 80
1, 100616, Note_on_c, 0, 59, 72
1, 100651, Note_off_c, 0, 59, 64
1, 100658, Note_off_c, 0, 47, 64
1, 100711, Note_on_c, 0, 61, 73
1, 100774, Note_off_c, 0, 69, 64
1, 100795, Note_off_c, 0, 61, 59
1, 100820, Note_on_c, 0, 52, 70
1, 100823, Note_on_c, 0, 68, 89
1, 100827, Note_on_c, 0, 59, 70
1, 100857, Note_off_c, 0, 68, 64
1, 100908, Note_on_c, 0, 57, 77
1, 100914, Note_off_c, 0, 59, 63
1, 101013, Note_on_c, 0, 76, 98
1, 101021, Note_on_c, 0, 59, 77
1, 101023, Note_off_c, 0, 57, 63
1, 101045, Note_off_c, 0, 76, 67
1, 101108, Note_on_c, 0, 61, 72
1, 101119, Note_off_c, 0, 59, 57
1, 101227, Note_off_c, 0, 61, 59
1, 101251, Note_on_c, 0, 57, 59
1, 101254, Note_on_c, 0, 78, 98
1, 101334, Note_off_c, 0, 57, 60
1, 101346, Note_on_c, 0, 56, 57
1, 101357, Control_c, 0, 64, 50
1, 101372, Control_c, 0, 64, 65
1, 101387, Control_c, 0, 64, 77
1, 101402, Control_c, 0, 64, 127
1, 101426, Note_on_c, 0, 79, 21
1, 101443, Note_off_c, 0, 52, 65
1, 101444, Note_off_c, 0, 78, 63
1, 101452, Note_on_c, 0, 57, 68
1, 101454, Note_off_c, 0, 56, 62
1, 101461, Note_off_c, 0, 79, 48
1, 101542, Note_on_c, 0, 59, 77
1, 101543, Note_off_c, 0, 57, 63
1, 101660, Note_on_c, 0, 51, 77
1, 101666, Note_off_c, 0, 59, 60
1, 101668, Note_on_c, 0, 57, 76
1, 101690, Control_c, 0, 64, 88
1, 101705, Control_c, 0, 64, 70
1, 101720, Control_c, 0, 64, 49
1, 101735, Control_c, 0, 64, 0
1, 101759, Note_off_c, 0, 57, 64
1, 101761, Note_on_c, 0, 56, 74
1, 101768, Note_on_c, 0, 71, 79
1, 101851, Note_on_c, 0, 57, 78
1, 101856, Note_on_c, 0, 73, 81
1, 101867, Note_off_c, 0, 56, 62
1, 101888, Note_off_c, 0, 71, 60
1, 101922, Note_off_c, 0, 57, 63
1, 101938, Note_on_c, 0, 75, 86
1, 101945, Note_on_c, 0, 59, 71
1, 101975, Note_off_c, 0, 73, 63
1, 102013, Note_off_c, 0, 59, 62
1, 102035, Note_on_c, 0, 56, 68
1, 102037, Note_on_c, 0, 76, 83
1, 102057, Note_off_c, 0, 75, 60
1, 102066, Note_off_c, 0, 56, 65
1, 102124, Note_on_c, 0, 75, 83
1, 102133, Note_off_c, 0, 76, 63
1, 102196, Note_off_c, 0, 51, 63
1, 102220, Note_off_c, 0, 75, 62
1, 102229, Note_on_c, 0, 76, 90
1, 102231, Note_on_c, 0, 59, 69
1, 102260, Note_off_c, 0, 59, 64
1, 102323, Note_on_c, 0, 78, 87
1, 102353, Note_off_c, 0, 76, 62
1, 102416, Note_on_c, 0, 49, 71
1, 102417, Note_on_c, 0, 80, 85
1, 102425, Note_on_c, 0, 52, 61
1, 102449, Note_off_c, 0, 78, 63
1, 102452, Note_off_c, 0, 52, 66
1, 102503, Note_on_c, 0, 81, 76
1, 102544, Note_off_c, 0, 80, 60
1, 102606, Note_on_c, 0, 83, 85
1, 102608, Note_on_c, 0, 56, 86
1, 102633, Note_off_c, 0, 81, 60
1, 102670, Note_off_c, 0, 49, 62
1, 102697, Note_on_c, 0, 80, 80
1, 102721, Note_off_c, 0, 83, 63
1, 102791, Note_on_c, 0, 42, 69
1, 102800, Note_on_c, 0, 81, 79
1, 102826, Note_off_c, 0, 80, 63
1, 102898, Note_on_c, 0, 80, 79
1, 102905, Note_off_c, 0, 56, 64
1, 102907, Note_off_c, 0, 81, 64
1, 102990, Note_on_c, 0, 54, 80
1, 102996, Note_on_c, 0, 81, 74
1, 103016, Note_off_c, 0, 80, 65
1, 103048, Note_off_c, 0, 42, 63
1, 103090, Note_on_c, 0, 49, 71
1, 103092, Note_on_c, 0, 83, 84
1, 103096, Note_off_c, 0, 81, 64
1, 103170, Note_on_c, 0, 51, 77
1, 103181, Note_off_c, 0, 49, 62
1, 103194, Note_on_c, 0, 81, 80
1, 103206, Note_off_c, 0, 51, 65
1, 103221, Note_off_c, 0, 83, 64
1, 103279, Note_on_c, 0, 80, 80
1, 103287, Note_off_c, 0, 81, 65
1, 103362, Note_on_c, 0, 47, 79
1, 103376, Note_on_c, 0, 81, 69
1, 103407, Note_off_c, 0, 80, 63
1, 103411, Note_off_c, 0, 47, 61
1, 103466, Note_off_c, 0, 81, 61
1, 103469, Note_on_c, 0, 83, 76
1, 103556, Note_off_c, 0, 83, 61
1, 103564, Note_on_c, 0, 52, 77
1, 103569, Note_on_c, 0, 80, 71
1, 103612, Note_off_c, 0, 52, 62
1, 103650, Note_on_c, 0, 78, 72
1, 103650, Note_off_c, 0, 80, 61
1, 103751, Note_off_c, 0, 78, 58
1, 103752, Note_on_c, 0, 47, 73
1, 103756, Note_on_c, 0, 80, 75
1, 103784, Note_off_c, 0, 54, 64
1, 103797, Note_off_c, 0, 47, 65
1, 103842, Note_off_c, 0, 80, 61
1, 103845, Note_on_c, 0, 81, 72
1, 103943, Note_on_c, 0, 49, 68
1, 103946, Note_on_c, 0, 52, 77
1, 103947, Note_on_c, 0, 80, 77
1, 103956, Note_off_c, 0, 81, 58
1, 103975, Note_off_c, 0, 49, 68
1, 104035, Note_on_c, 0, 78, 78
1, 104047, Note_off_c, 0, 80, 59
1, 104119, Note_off_c, 0, 78, 62
1, 104126, Note_on_c, 0, 44, 83
1, 104136, Note_on_c, 0, 76, 73
1, 104146, Note_off_c, 0, 52, 65
1, 104193, Note_off_c, 0, 44, 62
1, 104217, Note_on_c, 0, 75, 78
1, 104221, Note_off_c, 0, 76, 64
1, 104324, Note_on_c, 0, 45, 83
1, 104327, Note_off_c, 0, 75, 56
1, 104327, Note_on_c, 0, 52, 80
1, 104336, Note_on_c, 0, 73, 62
1, 104373, Note_off_c, 0, 52, 63
1, 104406, Note_off_c, 0, 73, 63
1, 104417, Note_on_c, 0, 71, 71
1, 104536, Note_on_c, 0, 73, 80
1, 104537, Note_on_c, 0, 64, 83
1, 104576, Note_off_c, 0, 71, 63
1, 104586, Note_off_c, 0, 64, 60
1, 104598, Note_off_c, 0, 45, 63
1, 104608, Note_on_c, 0, 40, 67
1, 104619, Note_on_c, 0, 74, 74
1, 104632, Note_off_c, 0, 73, 62
1, 104685, Note_off_c, 0, 40, 61
1, 104715, Note_on_c, 0, 42, 84
1, 104731, Note_on_c, 0, 69, 90
1, 104746, Note_on_c, 0, 73, 73
1, 104754, Note_off_c, 0, 42, 63
1, 104756, Note_off_c, 0, 74, 57
1, 104831, Note_on_c, 0, 71, 74
1, 104834, Note_off_c, 0, 73, 62
1, 104926, Note_on_c, 0, 37, 88
1, 104935, Note_on_c, 0, 73, 78
1, 104965, Note_off_c, 0, 37, 58
1, 104969, Note_off_c, 0, 71, 54
1, 105013, Note_on_c, 0, 74, 75
1, 105035, Note_off_c, 0, 73, 60
1, 105122, Note_on_c, 0, 39, 81
1, 105129, Note_on_c, 0, 71, 85
1, 105132, Note_off_c, 0, 74, 59
1, 105174, Note_off_c, 0, 39, 61
1, 105225, Note_on_c, 0, 73, 80
1, 105258, Note_off_c, 0, 71, 58
1, 105329, Note_on_c, 0, 59, 89
1, 105334, Note_on_c, 0, 75, 85
1, 105357, Note_off_c, 0, 73, 65
1, 105362, Note_off_c, 0, 69, 60
1, 105373, Note_off_c, 0, 59, 67
1, 105428, Note_on_c, 0, 71, 77
1, 105498, Note_off_c, 0, 75, 61
1, 105550, Note_on_c, 0, 76, 88
1, 105553, Note_on_c, 0, 61, 76
1, 105555, Note_on_c, 0, 68, 74
1, 105570, Note_off_c, 0, 71, 52
1, 105619, Note_off_c, 0, 68, 61
1, 105672, Control_c, 0, 64, 48
1, 105673, Note_on_c, 0, 64, 54
1, 105687, Control_c, 0, 64, 66
1, 105702, Control_c, 0, 64, 79
1, 105705, Note_off_c, 0, 61, 60
1, 105717, Control_c, 0, 64, 127
1, 105773, Note_on_c, 0, 66, 68
1, 105773, Note_off_c, 0, 64, 60
1, 105868, Note_on_c, 0, 68, 65
1, 105901, Note_off_c, 0, 66, 60
1, 105952, Note_off_c, 0, 68, 61
1, 105963, Note_on_c, 0, 69, 76
1, 105969, Control_c, 0, 64, 99
1, 105984, Control_c, 0, 64, 84
1, 105998, Control_c, 0, 64, 70
1, 106013, Control_c, 0, 64, 55
1, 106035, Control_c, 0, 64, 0
1, 106057, Note_on_c, 0, 54, 60
1, 106062, Note_on_c, 0, 71, 75
1, 106074, Note_off_c, 0, 69, 58
1, 106160, Note_on_c, 0, 56, 75
1, 106167, Note_on_c, 0, 73, 80
1, 106190, Note_off_c, 0, 71, 59
1, 106193, Note_off_c, 0, 54, 63
1, 106249, Note_on_c, 0, 57, 80
1, 106284, Note_off_c, 0, 56, 63
1, 106307, Note_off_c, 0, 76, 61
1, 106351, Note_off_c, 0, 57, 64
1, 106357, Note_on_c, 0, 59, 81
1, 106364, Note_on_c, 0, 75, 89
1, 106393, Note_off_c, 0, 73, 63
1, 106406, Note_off_c, 0, 59, 59
1, 106469, Note_on_c, 0, 73, 66
1, 106594, Note_on_c, 0, 47, 86
1, 106594, Note_on_c, 0, 71, 77
1, 106628, Note_off_c, 0, 47, 63
1, 106634, Note_off_c, 0, 73, 60
1, 106727, Note_on_c, 0, 69, 81
1, 106747, Note_off_c, 0, 71, 62
1, 106930, Note_on_c, 0, 40, 69
1, 106932, Note_on_c, 0, 76, 87
1, 106933, Note_on_c, 0, 68, 72
1, 106964, Note_off_c, 0, 69, 58
1, 106985, Note_off_c, 0, 75, 63
1, 107651, Control_c, 0, 64, 26
1, 107666, Control_c, 0, 64, 44
1, 107681, Control_c, 0, 64, 49
1, 107695, Control_c, 0, 64, 52
1, 107710, Control_c, 0, 64, 56
1, 107725, Control_c, 0, 64, 59
1, 107740, Control_c, 0, 64, 63
1, 107755, Control_c, 0, 64, 66
1, 107770, Control_c, 0, 64, 68
1, 107785, Control_c, 0, 64, 72
1, 107800, Control_c, 0, 64, 77
1, 107815, Control_c, 0, 64, 85
1, 107830, Control_c, 0, 64, 95
1, 107845, Control_c, 0, 64, 116
1, 107860, Control_c, 0, 64, 127
1, 108135, Note_off_c, 0, 40, 40
1, 108137, Note_off_c, 0, 76, 52
1, 108169, Note_off_c, 0, 68, 37
1, 108370, Control_c, 0, 64, 95
1, 108385, Control_c, 0, 64, 79
1, 108399, Control_c, 0, 64, 65
1, 108414, Control_c, 0, 64, 50
1, 108429, Control_c, 0, 64, 17
1, 108444, Control_c, 0, 64, 0
1, 108519, End_track
0, 0, End_of_file
