0, 0, Header, 0, 1, 384
1, 0, Start_track
1, 0, Title_t, "Etude Op. 10/8--Hye-Yeon Park   "
1, 0, Text_t, "2009 Piano-e-Competition audition round"
1, 0, Text_t, "captured January 2009"
1, 0, Text_t, "http://www.piano-e-competition.com/"
1, 0, Text_t, "File processed for distribution by software from Zenph Studios, Inc., http://www.zenph.com"
1, 0, Instrument_name_t, "Yamaha Disklavier Pro Mark IV concert grand piano, model DCFIIISM4PRO"
1, 0, Sequencer_specific, 39, 67, 113, 0, 1, 0, 1, 0, 69, 116, 117, 100, 101, 32, 79, 112, 46, 32, 49, 48, 47, 56, 32, 32, 72, 121, 101, 45, 89, 101, 111, 110, 32, 80, 97, 114, 107, 32, 32, 32
1, 0, Sequencer_specific, 6, 67, 113, 0, 0, 0, 69
1, 0, System_exclusive, 21, 67, 113, 126, 21, 0, 2, 2, 0, 3, 14, 1, 4, 1, 13, 13, 10, 11, 9, 2, 7, 247
1, 0, Sequencer_specific, 5, 67, 123, 12, 2, 1
1, 0, Tempo, 512820
1, 0, Time_signature, 4, 2, 24, 8
1, 0, System_exclusive, 5, 126, 127, 9, 1, 247
1, 1, System_exclusive, 8, 67, 16, 76, 0, 0, 126, 0, 247
1, 2, System_exclusive, 8, 67, 16, 76, 8, 9, 7, 1, 247
1, 3, Control_c, 0, 0, 0
1, 3, Control_c, 1, 0, 0
1, 3, Control_c, 2, 0, 0
1, 3, Control_c, 3, 0, 0
1, 3, Control_c, 4, 0, 0
1, 3, Control_c, 5, 0, 0
1, 3, Control_c, 6, 0, 0
1, 3, Control_c, 7, 0, 0
1, 3, Control_c, 8, 0, 0
1, 3, Control_c, 9, 0, 127
1, 3, Control_c, 10, 0, 0
1, 3, Control_c, 11, 0, 0
1, 3, Control_c, 12, 0, 0
1, 3, Control_c, 13, 0, 0
1, 3, Control_c, 14, 0, 0
1, 3, Control_c, 15, 0, 0
1, 4, Control_c, 0, 32, 0
1, 4, Control_c, 1, 32, 0
1, 4, Control_c, 2, 32, 0
1, 4, Control_c, 3, 32, 0
1, 4, Control_c, 4, 32, 0
1, 4, Control_c, 5, 32, 0
1, 4, Control_c, 6, 32, 0
1, 4, Control_c, 7, 32, 0
1, 4, Control_c, 8, 32, 0
1, 4, Control_c, 9, 32, 0
1, 4, Control_c, 10, 32, 0
1, 4, Control_c, 11, 32, 0
1, 4, Control_c, 12, 32, 0
1, 4, Control_c, 13, 32, 0
1, 4, Control_c, 14, 32, 0
1, 4, Control_c, 15, 32, 0
1, 5, Program_c, 0, 0
1, 5, Program_c, 1, 0
1, 5, Program_c, 2, 0
1, 5, Program_c, 3, 0
1, 5, Program_c, 4, 0
1, 5, Program_c, 5, 0
1, 5, Program_c, 6, 0
1, 5, Program_c, 7, 0
1, 5, Program_c, 8, 0
1, 5, Program_c, 9, 0
1, 5, Program_c, 10, 0
1, 5, Program_c, 11, 0
1, 5, Program_c, 12, 0
1, 5, Program_c, 13, 0
1, 5, Program_c, 14, 0
1, 5, Program_c, 15, 0
1, 6, Control_c, 0, 7, 100
1, 6, Control_c, 1, 7, 100
1, 6, Control_c, 2, 7, 100
1, 6, Control_c, 3, 7, 100
1, 6, Control_c, 4, 7, 100
1, 6, Control_c, 5, 7, 100
1, 6, Control_c, 6, 7, 100
1, 6, Control_c, 7, 7, 100
1, 6, Control_c, 8, 7, 100
1, 6, Control_c, 9, 7, 100
1, 6, Control_c, 10, 7, 100
1, 6, Control_c, 11, 7, 100
1, 6, Control_c, 12, 7, 100
1, 6, Control_c, 13, 7, 100
1, 6, Control_c, 14, 7, 100
1, 6, Control_c, 15, 7, 100
1, 1129, Control_c, 0, 64, 67
1, 1131, Note_on_c, 0, 84, 53
1, 1144, Control_c, 0, 64, 68
1, 1152, Note_off_c, 0, 84, 61
1, 1158, Control_c, 0, 64, 71
1, 1162, Note_on_c, 0, 86, 59
1, 1173, Control_c, 0, 64, 73
1, 1183, Note_off_c, 0, 86, 64
1, 1188, Control_c, 0, 64, 78
1, 1202, Control_c, 0, 64, 82
1, 1208, Note_on_c, 0, 84, 69
1, 1217, Control_c, 0, 64, 86
1, 1232, Control_c, 0, 64, 90
1, 1247, Note_off_c, 0, 84, 52
1, 1247, Control_c, 0, 64, 94
1, 1255, Note_on_c, 0, 86, 76
1, 1262, Control_c, 0, 64, 98
1, 1276, Control_c, 0, 64, 103
1, 1291, Control_c, 0, 64, 106
1, 1296, Note_off_c, 0, 86, 58
1, 1306, Note_on_c, 0, 84, 61
1, 1306, Control_c, 0, 64, 110
1, 1321, Control_c, 0, 64, 115
1, 1336, Control_c, 0, 64, 122
1, 1345, Note_off_c, 0, 84, 59
1, 1351, Control_c, 0, 64, 127
1, 1357, Note_on_c, 0, 83, 61
1, 1376, Note_off_c, 0, 83, 67
1, 1418, Note_on_c, 0, 84, 69
1, 1470, Control_c, 0, 64, 119
1, 1484, Control_c, 0, 64, 80
1, 1499, Control_c, 0, 64, 62
1, 1501, Note_off_c, 0, 84, 48
1, 1506, Note_on_c, 0, 48, 55
1, 1514, Control_c, 0, 64, 42
1, 1528, Control_c, 0, 64, 0
1, 1542, Note_on_c, 0, 41, 37
1, 1544, Note_on_c, 0, 93, 58
1, 1593, Note_on_c, 0, 91, 62
1, 1602, Control_c, 0, 64, 11
1, 1617, Control_c, 0, 64, 27
1, 1620, Note_off_c, 0, 93, 57
1, 1632, Control_c, 0, 64, 39
1, 1648, Control_c, 0, 64, 52
1, 1657, Note_on_c, 0, 89, 69
1, 1658, Note_off_c, 0, 91, 61
1, 1663, Control_c, 0, 64, 60
1, 1678, Control_c, 0, 64, 64
1, 1685, Note_off_c, 0, 89, 68
1, 1693, Control_c, 0, 64, 65
1, 1707, Control_c, 0, 64, 66
1, 1711, Note_on_c, 0, 84, 72
1, 1729, Control_c, 0, 64, 67
1, 1744, Control_c, 0, 64, 71
1, 1750, Note_off_c, 0, 84, 64
1, 1759, Control_c, 0, 64, 75
1, 1774, Control_c, 0, 64, 76
1, 1790, Note_on_c, 0, 81, 77
1, 1850, Note_on_c, 0, 79, 72
1, 1863, Control_c, 0, 64, 76
1, 1873, Note_off_c, 0, 81, 60
1, 1878, Control_c, 0, 64, 75
1, 1885, Note_off_c, 0, 48, 36
1, 1893, Control_c, 0, 64, 74
1, 1912, Note_off_c, 0, 79, 63
1, 1918, Note_on_c, 0, 77, 70
1, 1945, Note_off_c, 0, 77, 66
1, 1952, Control_c, 0, 64, 75
1, 1972, Note_on_c, 0, 72, 70
1, 1996, Control_c, 0, 64, 74
1, 2011, Note_off_c, 0, 72, 57
1, 2011, Control_c, 0, 64, 68
1, 2017, Note_on_c, 0, 47, 71
1, 2025, Control_c, 0, 64, 60
1, 2040, Control_c, 0, 64, 41
1, 2055, Control_c, 0, 64, 0
1, 2059, Note_on_c, 0, 48, 85
1, 2067, Note_on_c, 0, 69, 61
1, 2068, Note_off_c, 0, 47, 63
1, 2089, Note_off_c, 0, 48, 70
1, 2105, Note_off_c, 0, 41, 38
1, 2127, Note_on_c, 0, 67, 65
1, 2135, Note_off_c, 0, 69, 60
1, 2186, Note_off_c, 0, 67, 63
1, 2192, Note_on_c, 0, 65, 68
1, 2224, Note_off_c, 0, 65, 67
1, 2261, Note_on_c, 0, 60, 66
1, 2296, Note_off_c, 0, 60, 63
1, 2330, Note_on_c, 0, 48, 72
1, 2339, Note_on_c, 0, 57, 65
1, 2352, Note_off_c, 0, 48, 68
1, 2403, Note_on_c, 0, 55, 62
1, 2421, Note_off_c, 0, 57, 56
1, 2454, Note_off_c, 0, 55, 65
1, 2475, Note_on_c, 0, 53, 63
1, 2508, Note_off_c, 0, 53, 64
1, 2536, Note_on_c, 0, 48, 68
1, 2579, Note_off_c, 0, 48, 64
1, 2588, Note_on_c, 0, 41, 72
1, 2590, Note_on_c, 0, 29, 59
1, 2605, Note_on_c, 0, 53, 60
1, 2619, Note_off_c, 0, 41, 67
1, 2624, Note_off_c, 0, 29, 48
1, 2627, Control_c, 0, 64, 19
1, 2642, Control_c, 0, 64, 28
1, 2656, Control_c, 0, 64, 34
1, 2663, Note_on_c, 0, 55, 67
1, 2671, Control_c, 0, 64, 40
1, 2686, Control_c, 0, 64, 46
1, 2690, Note_off_c, 0, 53, 63
1, 2701, Control_c, 0, 64, 52
1, 2716, Control_c, 0, 64, 55
1, 2716, Note_off_c, 0, 55, 62
1, 2730, Control_c, 0, 64, 57
1, 2734, Note_on_c, 0, 57, 49
1, 2745, Control_c, 0, 64, 58
1, 2760, Control_c, 0, 64, 60
1, 2761, Note_off_c, 0, 57, 55
1, 2774, Control_c, 0, 64, 61
1, 2789, Control_c, 0, 64, 62
1, 2798, Note_on_c, 0, 60, 62
1, 2834, Control_c, 0, 64, 60
1, 2848, Control_c, 0, 64, 52
1, 2860, Note_off_c, 0, 60, 62
1, 2863, Control_c, 0, 64, 32
1, 2877, Note_on_c, 0, 50, 79
1, 2877, Note_on_c, 0, 65, 68
1, 2878, Control_c, 0, 64, 0
1, 2940, Note_on_c, 0, 67, 66
1, 2970, Note_off_c, 0, 65, 62
1, 3004, Note_off_c, 0, 67, 62
1, 3014, Note_on_c, 0, 69, 60
1, 3041, Note_off_c, 0, 69, 66
1, 3089, Note_on_c, 0, 48, 69
1, 3092, Note_off_c, 0, 50, 59
1, 3098, Note_on_c, 0, 72, 54
1, 3131, Note_off_c, 0, 72, 51
1, 3163, Note_on_c, 0, 57, 85
1, 3169, Note_on_c, 0, 77, 68
1, 3241, Note_on_c, 0, 79, 65
1, 3262, Note_off_c, 0, 77, 60
1, 3273, Control_c, 0, 64, 23
1, 3287, Control_c, 0, 64, 42
1, 3294, Note_off_c, 0, 79, 62
1, 3302, Control_c, 0, 64, 54
1, 3303, Note_on_c, 0, 81, 64
1, 3314, Note_off_c, 0, 57, 61
1, 3317, Control_c, 0, 64, 60
1, 3321, Note_off_c, 0, 81, 66
1, 3332, Control_c, 0, 64, 62
1, 3347, Control_c, 0, 64, 63
1, 3361, Control_c, 0, 64, 68
1, 3376, Note_on_c, 0, 84, 72
1, 3376, Control_c, 0, 64, 79
1, 3391, Control_c, 0, 64, 82
1, 3405, Control_c, 0, 64, 78
1, 3420, Control_c, 0, 64, 66
1, 3435, Control_c, 0, 64, 52
1, 3447, Note_on_c, 0, 89, 73
1, 3449, Note_off_c, 0, 48, 64
1, 3450, Control_c, 0, 64, 0
1, 3451, Note_off_c, 0, 84, 61
1, 3455, Note_on_c, 0, 53, 89
1, 3509, Control_c, 0, 64, 18
1, 3518, Note_on_c, 0, 91, 71
1, 3521, Note_off_c, 0, 89, 61
1, 3524, Control_c, 0, 64, 34
1, 3539, Control_c, 0, 64, 47
1, 3554, Control_c, 0, 64, 59
1, 3564, Note_off_c, 0, 53, 57
1, 3569, Control_c, 0, 64, 67
1, 3577, Note_off_c, 0, 91, 58
1, 3584, Control_c, 0, 64, 70
1, 3589, Note_on_c, 0, 93, 75
1, 3613, Control_c, 0, 64, 71
1, 3628, Control_c, 0, 64, 72
1, 3643, Control_c, 0, 64, 75
1, 3658, Control_c, 0, 64, 79
1, 3672, Control_c, 0, 64, 80
1, 3674, Note_on_c, 0, 45, 72
1, 3674, Note_on_c, 0, 91, 67
1, 3687, Control_c, 0, 64, 77
1, 3691, Note_off_c, 0, 93, 50
1, 3702, Control_c, 0, 64, 66
1, 3717, Control_c, 0, 64, 49
1, 3732, Control_c, 0, 64, 0
1, 3740, Note_off_c, 0, 91, 60
1, 3742, Note_on_c, 0, 89, 72
1, 3743, Note_on_c, 0, 48, 81
1, 3743, Note_off_c, 0, 45, 64
1, 3751, Note_on_c, 0, 41, 69
1, 3786, Note_off_c, 0, 89, 64
1, 3814, Note_on_c, 0, 84, 64
1, 3849, Note_off_c, 0, 84, 63
1, 3891, Note_on_c, 0, 81, 70
1, 3957, Note_on_c, 0, 79, 68
1, 3980, Note_off_c, 0, 81, 60
1, 3990, Control_c, 0, 64, 25
1, 4004, Control_c, 0, 64, 35
1, 4019, Note_off_c, 0, 79, 59
1, 4019, Control_c, 0, 64, 44
1, 4024, Note_on_c, 0, 77, 75
1, 4025, Note_off_c, 0, 48, 63
1, 4034, Control_c, 0, 64, 52
1, 4050, Control_c, 0, 64, 58
1, 4052, Note_off_c, 0, 77, 65
1, 4065, Control_c, 0, 64, 60
1, 4074, Note_on_c, 0, 72, 74
1, 4108, Note_off_c, 0, 72, 56
1, 4139, Control_c, 0, 64, 61
1, 4154, Control_c, 0, 64, 62
1, 4156, Note_on_c, 0, 69, 65
1, 4169, Control_c, 0, 64, 64
1, 4183, Control_c, 0, 64, 65
1, 4198, Control_c, 0, 64, 66
1, 4213, Control_c, 0, 64, 66
1, 4216, Note_on_c, 0, 67, 69
1, 4226, Note_off_c, 0, 69, 61
1, 4227, Control_c, 0, 64, 67
1, 4242, Control_c, 0, 64, 64
1, 4253, Note_on_c, 0, 47, 70
1, 4257, Control_c, 0, 64, 55
1, 4272, Control_c, 0, 64, 25
1, 4274, Note_off_c, 0, 67, 63
1, 4279, Note_on_c, 0, 65, 69
1, 4281, Note_off_c, 0, 41, 57
1, 4287, Control_c, 0, 64, 0
1, 4291, Note_on_c, 0, 48, 84
1, 4296, Note_off_c, 0, 47, 64
1, 4311, Note_off_c, 0, 65, 67
1, 4323, Note_off_c, 0, 48, 68
1, 4353, Note_on_c, 0, 60, 62
1, 4381, Note_off_c, 0, 60, 67
1, 4415, Note_on_c, 0, 57, 75
1, 4484, Note_off_c, 0, 57, 60
1, 4485, Note_on_c, 0, 55, 65
1, 4540, Note_off_c, 0, 55, 63
1, 4552, Note_on_c, 0, 48, 64
1, 4555, Note_on_c, 0, 53, 65
1, 4575, Note_off_c, 0, 48, 61
1, 4584, Note_off_c, 0, 53, 67
1, 4642, Note_on_c, 0, 48, 63
1, 4672, Note_off_c, 0, 48, 67
1, 4697, Note_on_c, 0, 53, 55
1, 4755, Note_off_c, 0, 53, 63
1, 4758, Note_on_c, 0, 57, 57
1, 4827, Note_on_c, 0, 40, 67
1, 4833, Note_on_c, 0, 55, 59
1, 4833, Note_on_c, 0, 28, 46
1, 4841, Note_off_c, 0, 57, 58
1, 4857, Control_c, 0, 64, 25
1, 4859, Note_off_c, 0, 40, 65
1, 4871, Note_off_c, 0, 28, 47
1, 4872, Control_c, 0, 64, 38
1, 4875, Note_off_c, 0, 55, 67
1, 4887, Control_c, 0, 64, 49
1, 4892, Note_on_c, 0, 48, 67
1, 4902, Control_c, 0, 64, 58
1, 4917, Control_c, 0, 64, 62
1, 4931, Control_c, 0, 64, 63
1, 4937, Note_off_c, 0, 48, 62
1, 4961, Control_c, 0, 64, 63
1, 4970, Note_on_c, 0, 55, 64
1, 4976, Control_c, 0, 64, 64
1, 4991, Control_c, 0, 64, 66
1, 5006, Control_c, 0, 64, 68
1, 5020, Control_c, 0, 64, 70
1, 5029, Note_on_c, 0, 57, 62
1, 5035, Control_c, 0, 64, 72
1, 5041, Note_off_c, 0, 55, 55
1, 5050, Control_c, 0, 64, 73
1, 5065, Control_c, 0, 64, 74
1, 5080, Control_c, 0, 64, 73
1, 5089, Note_on_c, 0, 58, 70
1, 5089, Note_off_c, 0, 57, 60
1, 5095, Control_c, 0, 64, 68
1, 5108, Note_on_c, 0, 50, 84
1, 5110, Control_c, 0, 64, 60
1, 5120, Note_off_c, 0, 58, 66
1, 5124, Control_c, 0, 64, 44
1, 5139, Control_c, 0, 64, 0
1, 5163, Note_on_c, 0, 60, 68
1, 5205, Note_off_c, 0, 60, 63
1, 5245, Note_on_c, 0, 67, 68
1, 5301, Note_on_c, 0, 48, 65
1, 5301, Note_off_c, 0, 50, 62
1, 5311, Note_on_c, 0, 69, 66
1, 5317, Note_off_c, 0, 67, 62
1, 5360, Note_on_c, 0, 70, 67
1, 5366, Note_off_c, 0, 69, 64
1, 5370, Note_on_c, 0, 55, 92
1, 5390, Note_off_c, 0, 70, 65
1, 5434, Note_on_c, 0, 72, 70
1, 5434, Note_off_c, 0, 55, 65
1, 5435, Control_c, 0, 64, 21
1, 5436, Note_off_c, 0, 48, 65
1, 5450, Control_c, 0, 64, 38
1, 5472, Control_c, 0, 64, 53
1, 5487, Note_off_c, 0, 72, 53
1, 5487, Control_c, 0, 64, 66
1, 5501, Control_c, 0, 64, 72
1, 5518, Note_on_c, 0, 79, 69
1, 5546, Control_c, 0, 64, 74
1, 5561, Control_c, 0, 64, 78
1, 5569, Note_on_c, 0, 81, 74
1, 5575, Control_c, 0, 64, 88
1, 5590, Control_c, 0, 64, 96
1, 5601, Note_off_c, 0, 79, 59
1, 5605, Control_c, 0, 64, 102
1, 5620, Control_c, 0, 64, 115
1, 5635, Control_c, 0, 64, 127
1, 5641, Note_on_c, 0, 82, 72
1, 5647, Note_on_c, 0, 62, 91
1, 5647, Note_off_c, 0, 81, 61
1, 5668, Note_off_c, 0, 82, 68
1, 5684, Note_off_c, 0, 62, 66
1, 5715, Note_on_c, 0, 84, 72
1, 5783, Note_off_c, 0, 84, 62
1, 5789, Note_on_c, 0, 91, 83
1, 5862, Note_on_c, 0, 40, 59
1, 5873, Note_off_c, 0, 91, 37
1, 5882, Note_on_c, 0, 93, 74
1, 5943, Note_off_c, 0, 40, 64
1, 5947, Note_on_c, 0, 48, 67
1, 6000, Note_off_c, 0, 93, 60
1, 6021, Control_c, 0, 64, 102
1, 6036, Control_c, 0, 64, 67
1, 6037, Note_on_c, 0, 94, 70
1, 6046, Note_on_c, 0, 60, 82
1, 6051, Control_c, 0, 64, 44
1, 6065, Control_c, 0, 64, 0
1, 6117, Note_on_c, 0, 93, 76
1, 6135, Note_off_c, 0, 94, 60
1, 6139, Control_c, 0, 64, 14
1, 6154, Control_c, 0, 64, 33
1, 6169, Control_c, 0, 64, 46
1, 6183, Note_off_c, 0, 93, 63
1, 6184, Control_c, 0, 64, 59
1, 6188, Note_on_c, 0, 91, 69
1, 6198, Control_c, 0, 64, 69
1, 6219, Note_off_c, 0, 91, 63
1, 6221, Control_c, 0, 64, 76
1, 6243, Note_on_c, 0, 84, 71
1, 6250, Note_off_c, 0, 60, 61
1, 6251, Control_c, 0, 64, 78
1, 6266, Control_c, 0, 64, 84
1, 6278, Note_off_c, 0, 84, 58
1, 6280, Control_c, 0, 64, 94
1, 6295, Control_c, 0, 64, 105
1, 6308, Note_on_c, 0, 82, 79
1, 6310, Control_c, 0, 64, 119
1, 6324, Control_c, 0, 64, 127
1, 6337, Note_off_c, 0, 48, 64
1, 6371, Note_on_c, 0, 81, 73
1, 6375, Note_off_c, 0, 82, 60
1, 6430, Note_on_c, 0, 79, 75
1, 6433, Note_off_c, 0, 81, 63
1, 6458, Note_off_c, 0, 79, 64
1, 6501, Note_on_c, 0, 72, 59
1, 6523, Note_off_c, 0, 72, 63
1, 6532, Note_on_c, 0, 47, 74
1, 6533, Control_c, 0, 64, 87
1, 6547, Control_c, 0, 64, 65
1, 6556, Note_on_c, 0, 48, 86
1, 6559, Note_on_c, 0, 70, 78
1, 6562, Poly_aftertouch_c, 0, 74, 127
1, 6562, Control_c, 0, 64, 48
1, 6566, Note_off_c, 0, 47, 66
1, 6577, Control_c, 0, 64, 0
1, 6584, Poly_aftertouch_c, 0, 74, 0
1, 6596, Note_off_c, 0, 48, 65
1, 6628, Note_on_c, 0, 69, 71
1, 6648, Note_off_c, 0, 70, 55
1, 6687, Note_off_c, 0, 69, 64
1, 6692, Note_on_c, 0, 67, 72
1, 6718, Note_off_c, 0, 67, 69
1, 6773, Note_on_c, 0, 60, 51
1, 6795, Note_off_c, 0, 60, 60
1, 6830, Note_on_c, 0, 48, 74
1, 6831, Note_on_c, 0, 58, 71
1, 6860, Note_off_c, 0, 48, 68
1, 6904, Note_on_c, 0, 57, 64
1, 6916, Note_off_c, 0, 58, 52
1, 6973, Note_off_c, 0, 57, 60
1, 6975, Note_on_c, 0, 55, 66
1, 7039, Note_off_c, 0, 55, 43
1, 7045, Note_on_c, 0, 48, 64
1, 7101, Note_off_c, 0, 48, 60
1, 7115, Note_on_c, 0, 40, 75
1, 7119, Note_on_c, 0, 28, 64
1, 7130, Note_on_c, 0, 55, 58
1, 7133, Control_c, 0, 64, 12
1, 7146, Note_off_c, 0, 28, 62
1, 7147, Control_c, 0, 64, 33
1, 7151, Note_off_c, 0, 40, 67
1, 7162, Control_c, 0, 64, 47
1, 7177, Control_c, 0, 64, 58
1, 7188, Note_on_c, 0, 57, 62
1, 7192, Control_c, 0, 64, 67
1, 7207, Note_off_c, 0, 55, 58
1, 7207, Control_c, 0, 64, 73
1, 7221, Control_c, 0, 64, 75
1, 7236, Control_c, 0, 64, 76
1, 7252, Control_c, 0, 64, 78
1, 7255, Note_on_c, 0, 58, 64
1, 7260, Note_off_c, 0, 57, 61
1, 7267, Control_c, 0, 64, 82
1, 7282, Control_c, 0, 64, 89
1, 7283, Note_off_c, 0, 58, 65
1, 7297, Control_c, 0, 64, 99
1, 7312, Control_c, 0, 64, 105
1, 7317, Note_on_c, 0, 60, 72
1, 7341, Control_c, 0, 64, 100
1, 7356, Control_c, 0, 64, 79
1, 7362, Note_off_c, 0, 60, 59
1, 7370, Control_c, 0, 64, 62
1, 7385, Control_c, 0, 64, 30
1, 7395, Note_on_c, 0, 50, 75
1, 7400, Control_c, 0, 64, 0
1, 7404, Note_on_c, 0, 67, 70
1, 7470, Note_on_c, 0, 69, 73
1, 7478, Note_off_c, 0, 67, 61
1, 7537, Note_on_c, 0, 70, 69
1, 7540, Note_off_c, 0, 69, 64
1, 7563, Note_off_c, 0, 70, 66
1, 7568, Note_off_c, 0, 50, 62
1, 7587, Note_on_c, 0, 48, 67
1, 7608, Note_on_c, 0, 72, 65
1, 7642, Note_off_c, 0, 72, 59
1, 7660, Note_on_c, 0, 58, 85
1, 7683, Note_on_c, 0, 79, 67
1, 7733, Control_c, 0, 64, 10
1, 7748, Control_c, 0, 64, 31
1, 7751, Note_on_c, 0, 81, 70
1, 7756, Note_off_c, 0, 79, 60
1, 7763, Control_c, 0, 64, 43
1, 7778, Control_c, 0, 64, 55
1, 7793, Control_c, 0, 64, 61
1, 7807, Note_on_c, 0, 82, 63
1, 7808, Control_c, 0, 64, 64
1, 7811, Note_off_c, 0, 81, 63
1, 7817, Note_off_c, 0, 48, 35
1, 7822, Control_c, 0, 64, 70
1, 7831, Note_off_c, 0, 82, 68
1, 7837, Control_c, 0, 64, 85
1, 7843, Note_off_c, 0, 58, 61
1, 7852, Control_c, 0, 64, 100
1, 7874, Note_on_c, 0, 84, 63
1, 7882, Control_c, 0, 64, 85
1, 7896, Control_c, 0, 64, 66
1, 7911, Control_c, 0, 64, 52
1, 7912, Note_off_c, 0, 84, 59
1, 7926, Control_c, 0, 64, 38
1, 7939, Note_on_c, 0, 55, 92
1, 7941, Control_c, 0, 64, 42
1, 7948, Note_on_c, 0, 91, 77
1, 7956, Control_c, 0, 64, 54
1, 7970, Control_c, 0, 64, 63
1, 7985, Control_c, 0, 64, 69
1, 7993, Note_off_c, 0, 55, 64
1, 8000, Control_c, 0, 64, 73
1, 8012, Note_off_c, 0, 91, 59
1, 8015, Control_c, 0, 64, 80
1, 8016, Note_on_c, 0, 93, 79
1, 8030, Control_c, 0, 64, 92
1, 8046, Control_c, 0, 64, 108
1, 8061, Control_c, 0, 64, 127
1, 8076, Note_off_c, 0, 93, 64
1, 8088, Note_on_c, 0, 94, 80
1, 8142, Note_on_c, 0, 43, 65
1, 8158, Note_on_c, 0, 93, 76
1, 8161, Note_off_c, 0, 94, 62
1, 8179, Control_c, 0, 64, 109
1, 8193, Control_c, 0, 64, 67
1, 8208, Control_c, 0, 64, 45
1, 8209, Note_off_c, 0, 43, 63
1, 8213, Note_on_c, 0, 48, 87
1, 8223, Control_c, 0, 64, 0
1, 8225, Note_on_c, 0, 40, 74
1, 8225, Note_off_c, 0, 93, 63
1, 8232, Note_on_c, 0, 91, 81
1, 8265, Note_off_c, 0, 91, 58
1, 8302, Note_on_c, 0, 84, 63
1, 8333, Note_off_c, 0, 84, 62
1, 8369, Note_on_c, 0, 82, 74
1, 8439, Note_on_c, 0, 81, 73
1, 8467, Control_c, 0, 64, 17
1, 8477, Note_off_c, 0, 82, 54
1, 8482, Control_c, 0, 64, 32
1, 8487, Note_off_c, 0, 48, 60
1, 8497, Control_c, 0, 64, 42
1, 8502, Note_off_c, 0, 81, 63
1, 8505, Note_on_c, 0, 79, 68
1, 8511, Control_c, 0, 64, 52
1, 8526, Control_c, 0, 64, 59
1, 8530, Note_off_c, 0, 79, 67
1, 8541, Control_c, 0, 64, 61
1, 8556, Control_c, 0, 64, 62
1, 8562, Note_on_c, 0, 72, 70
1, 8571, Control_c, 0, 64, 62
1, 8586, Control_c, 0, 64, 63
1, 8597, Note_off_c, 0, 72, 59
1, 8600, Control_c, 0, 64, 63
1, 8615, Control_c, 0, 64, 62
1, 8630, Control_c, 0, 64, 56
1, 8633, Note_on_c, 0, 70, 75
1, 8645, Control_c, 0, 64, 42
1, 8660, Control_c, 0, 64, 0
1, 8703, Note_on_c, 0, 69, 62
1, 8705, Note_off_c, 0, 70, 55
1, 8748, Note_on_c, 0, 47, 70
1, 8764, Note_off_c, 0, 69, 63
1, 8766, Note_on_c, 0, 67, 74
1, 8779, Note_off_c, 0, 40, 64
1, 8782, Note_on_c, 0, 48, 79
1, 8783, Note_off_c, 0, 47, 68
1, 8796, Note_off_c, 0, 67, 65
1, 8806, Note_off_c, 0, 48, 71
1, 8843, Note_on_c, 0, 60, 64
1, 8877, Note_off_c, 0, 60, 62
1, 8907, Note_on_c, 0, 58, 70
1, 8974, Note_on_c, 0, 57, 57
1, 8979, Note_off_c, 0, 58, 60
1, 9021, Note_off_c, 0, 57, 62
1, 9034, Note_on_c, 0, 55, 62
1, 9051, Note_on_c, 0, 48, 70
1, 9071, Note_off_c, 0, 48, 64
1, 9071, Note_off_c, 0, 55, 62
1, 9123, Note_on_c, 0, 48, 52
1, 9174, Note_off_c, 0, 48, 61
1, 9181, Note_on_c, 0, 55, 64
1, 9233, Note_off_c, 0, 55, 65
1, 9248, Note_on_c, 0, 58, 63
1, 9315, Note_on_c, 0, 57, 65
1, 9322, Note_off_c, 0, 58, 61
1, 9324, Note_on_c, 0, 41, 66
1, 9328, Note_on_c, 0, 29, 64
1, 9352, Note_off_c, 0, 41, 66
1, 9361, Note_off_c, 0, 29, 61
1, 9364, Control_c, 0, 64, 23
1, 9373, Note_off_c, 0, 57, 58
1, 9379, Control_c, 0, 64, 33
1, 9390, Note_on_c, 0, 48, 64
1, 9394, Control_c, 0, 64, 42
1, 9409, Control_c, 0, 64, 50
1, 9423, Control_c, 0, 64, 56
1, 9436, Note_off_c, 0, 48, 61
1, 9438, Control_c, 0, 64, 58
1, 9453, Control_c, 0, 64, 59
1, 9461, Note_on_c, 0, 53, 69
1, 9468, Control_c, 0, 64, 60
1, 9483, Control_c, 0, 64, 60
1, 9498, Control_c, 0, 64, 62
1, 9513, Control_c, 0, 64, 64
1, 9522, Note_on_c, 0, 55, 66
1, 9528, Control_c, 0, 64, 66
1, 9539, Note_off_c, 0, 53, 59
1, 9542, Control_c, 0, 64, 67
1, 9557, Control_c, 0, 64, 68
1, 9584, Note_on_c, 0, 57, 61
1, 9587, Control_c, 0, 64, 66
1, 9593, Note_off_c, 0, 55, 64
1, 9602, Control_c, 0, 64, 60
1, 9606, Note_on_c, 0, 50, 79
1, 9610, Note_off_c, 0, 57, 64
1, 9616, Control_c, 0, 64, 46
1, 9631, Control_c, 0, 64, 0
1, 9659, Note_on_c, 0, 60, 68
1, 9713, Note_off_c, 0, 60, 60
1, 9736, Note_on_c, 0, 65, 68
1, 9790, Note_on_c, 0, 48, 64
1, 9796, Note_off_c, 0, 50, 59
1, 9799, Note_on_c, 0, 67, 69
1, 9814, Note_off_c, 0, 65, 62
1, 9861, Note_on_c, 0, 69, 66
1, 9864, Note_on_c, 0, 53, 93
1, 9866, Note_off_c, 0, 67, 63
1, 9888, Note_off_c, 0, 69, 68
1, 9895, Note_off_c, 0, 48, 64
1, 9906, Note_off_c, 0, 53, 66
1, 9914, Control_c, 0, 64, 22
1, 9929, Control_c, 0, 64, 39
1, 9941, Note_on_c, 0, 72, 72
1, 9944, Control_c, 0, 64, 52
1, 9966, Control_c, 0, 64, 63
1, 9981, Control_c, 0, 64, 67
1, 9996, Control_c, 0, 64, 68
1, 10010, Control_c, 0, 64, 68
1, 10015, Note_on_c, 0, 77, 77
1, 10019, Note_off_c, 0, 72, 61
1, 10025, Control_c, 0, 64, 72
1, 10040, Control_c, 0, 64, 82
1, 10055, Control_c, 0, 64, 95
1, 10070, Control_c, 0, 64, 94
1, 10079, Note_on_c, 0, 79, 72
1, 10085, Control_c, 0, 64, 79
1, 10099, Control_c, 0, 64, 65
1, 10114, Note_off_c, 0, 77, 60
1, 10114, Control_c, 0, 64, 56
1, 10129, Control_c, 0, 64, 53
1, 10144, Control_c, 0, 64, 59
1, 10145, Note_on_c, 0, 81, 73
1, 10149, Note_on_c, 0, 65, 104
1, 10151, Note_off_c, 0, 79, 62
1, 10159, Control_c, 0, 64, 67
1, 10168, Note_off_c, 0, 81, 67
1, 10173, Control_c, 0, 64, 76
1, 10188, Control_c, 0, 64, 88
1, 10191, Note_off_c, 0, 65, 69
1, 10203, Control_c, 0, 64, 99
1, 10218, Control_c, 0, 64, 127
1, 10231, Note_on_c, 0, 84, 77
1, 10298, Note_on_c, 0, 89, 80
1, 10300, Note_off_c, 0, 84, 59
1, 10367, Note_on_c, 0, 93, 79
1, 10374, Note_off_c, 0, 89, 64
1, 10441, Control_c, 0, 64, 64
1, 10446, Note_on_c, 0, 65, 95
1, 10449, Note_on_c, 0, 62, 89
1, 10455, Note_on_c, 0, 58, 77
1, 10456, Control_c, 0, 64, 28
1, 10458, Note_on_c, 0, 91, 80
1, 10460, Note_on_c, 0, 53, 74
1, 10470, Control_c, 0, 64, 0
1, 10484, Note_off_c, 0, 93, 62
1, 10526, Note_off_c, 0, 91, 60
1, 10532, Note_on_c, 0, 89, 76
1, 10559, Control_c, 0, 64, 26
1, 10564, Note_off_c, 0, 89, 65
1, 10574, Control_c, 0, 64, 40
1, 10589, Control_c, 0, 64, 53
1, 10595, Note_on_c, 0, 86, 70
1, 10604, Control_c, 0, 64, 64
1, 10619, Control_c, 0, 64, 72
1, 10626, Note_off_c, 0, 86, 59
1, 10633, Control_c, 0, 64, 74
1, 10648, Control_c, 0, 64, 77
1, 10662, Note_on_c, 0, 82, 75
1, 10662, Control_c, 0, 64, 82
1, 10677, Control_c, 0, 64, 92
1, 10685, Note_off_c, 0, 65, 57
1, 10692, Control_c, 0, 64, 100
1, 10714, Control_c, 0, 64, 104
1, 10720, Note_off_c, 0, 62, 61
1, 10738, Note_on_c, 0, 79, 77
1, 10771, Note_off_c, 0, 82, 63
1, 10791, Note_on_c, 0, 77, 70
1, 10794, Note_off_c, 0, 79, 63
1, 10821, Note_off_c, 0, 77, 62
1, 10848, Note_on_c, 0, 74, 69
1, 10851, Note_off_c, 0, 53, 39
1, 10892, Control_c, 0, 64, 108
1, 10907, Control_c, 0, 64, 127
1, 10914, Note_off_c, 0, 74, 57
1, 10915, Note_on_c, 0, 70, 76
1, 10949, Note_off_c, 0, 70, 59
1, 10951, Control_c, 0, 64, 96
1, 10959, Note_off_c, 0, 58, 57
1, 10966, Control_c, 0, 64, 68
1, 10981, Control_c, 0, 64, 51
1, 10995, Control_c, 0, 64, 0
1, 11000, Note_on_c, 0, 65, 86
1, 11006, Note_on_c, 0, 72, 65
1, 11006, Note_on_c, 0, 60, 71
1, 11009, Note_on_c, 0, 57, 66
1, 11012, Note_on_c, 0, 53, 54
1, 11020, Note_off_c, 0, 65, 73
1, 11030, Note_off_c, 0, 60, 71
1, 11036, Note_off_c, 0, 53, 59
1, 11037, Note_off_c, 0, 57, 66
1, 11041, Note_off_c, 0, 72, 58
1, 11072, Note_on_c, 0, 77, 74
1, 11128, Note_on_c, 0, 79, 68
1, 11167, Note_off_c, 0, 77, 60
1, 11201, Note_on_c, 0, 81, 71
1, 11201, Note_off_c, 0, 79, 62
1, 11225, Note_off_c, 0, 81, 67
1, 11269, Note_on_c, 0, 65, 91
1, 11270, Note_on_c, 0, 57, 77
1, 11277, Note_on_c, 0, 84, 77
1, 11278, Note_on_c, 0, 60, 74
1, 11280, Note_on_c, 0, 53, 63
1, 11291, Note_off_c, 0, 65, 69
1, 11301, Note_off_c, 0, 60, 70
1, 11301, Note_off_c, 0, 53, 63
1, 11310, Note_off_c, 0, 57, 63
1, 11337, Note_off_c, 0, 84, 62
1, 11343, Note_on_c, 0, 89, 81
1, 11402, Note_on_c, 0, 91, 77
1, 11421, Note_off_c, 0, 89, 60
1, 11473, Note_off_c, 0, 91, 60
1, 11480, Note_on_c, 0, 93, 78
1, 11543, Note_on_c, 0, 65, 94
1, 11545, Note_on_c, 0, 62, 87
1, 11550, Note_on_c, 0, 91, 76
1, 11551, Note_on_c, 0, 53, 73
1, 11555, Note_on_c, 0, 58, 77
1, 11589, Note_off_c, 0, 93, 59
1, 11596, Control_c, 0, 64, 23
1, 11611, Control_c, 0, 64, 39
1, 11621, Note_off_c, 0, 91, 61
1, 11622, Note_on_c, 0, 89, 79
1, 11626, Control_c, 0, 64, 52
1, 11641, Control_c, 0, 64, 61
1, 11651, Note_off_c, 0, 89, 65
1, 11656, Control_c, 0, 64, 64
1, 11671, Control_c, 0, 64, 65
1, 11685, Control_c, 0, 64, 66
1, 11690, Note_on_c, 0, 86, 67
1, 11700, Control_c, 0, 64, 70
1, 11715, Control_c, 0, 64, 76
1, 11716, Note_off_c, 0, 86, 65
1, 11730, Control_c, 0, 64, 83
1, 11744, Control_c, 0, 64, 88
1, 11756, Note_on_c, 0, 82, 73
1, 11759, Control_c, 0, 64, 92
1, 11774, Control_c, 0, 64, 94
1, 11777, Note_off_c, 0, 62, 61
1, 11783, Note_off_c, 0, 65, 55
1, 11789, Control_c, 0, 64, 98
1, 11804, Control_c, 0, 64, 109
1, 11818, Control_c, 0, 64, 127
1, 11828, Note_on_c, 0, 79, 69
1, 11835, Note_off_c, 0, 82, 63
1, 11871, Note_on_c, 0, 77, 75
1, 11876, Note_off_c, 0, 79, 63
1, 11897, Note_off_c, 0, 77, 63
1, 11900, Note_off_c, 0, 53, 32
1, 11928, Note_on_c, 0, 74, 71
1, 11978, Note_off_c, 0, 74, 60
1, 11996, Note_on_c, 0, 70, 73
1, 12020, Note_off_c, 0, 58, 52
1, 12023, Note_off_c, 0, 70, 64
1, 12041, Control_c, 0, 64, 89
1, 12056, Control_c, 0, 64, 63
1, 12071, Control_c, 0, 64, 34
1, 12076, Note_on_c, 0, 65, 87
1, 12083, Note_on_c, 0, 60, 76
1, 12085, Note_on_c, 0, 57, 69
1, 12086, Note_on_c, 0, 72, 57
1, 12086, Control_c, 0, 64, 0
1, 12091, Note_on_c, 0, 53, 54
1, 12095, Note_off_c, 0, 65, 74
1, 12106, Note_off_c, 0, 60, 71
1, 12113, Note_off_c, 0, 57, 65
1, 12118, Note_off_c, 0, 53, 59
1, 12137, Note_off_c, 0, 72, 54
1, 12151, Note_on_c, 0, 77, 75
1, 12216, Note_on_c, 0, 79, 70
1, 12258, Note_off_c, 0, 77, 59
1, 12288, Note_off_c, 0, 79, 63
1, 12288, Note_on_c, 0, 81, 69
1, 12312, Note_off_c, 0, 81, 67
1, 12365, Note_on_c, 0, 84, 71
1, 12365, Note_on_c, 0, 65, 69
1, 12368, Note_on_c, 0, 53, 61
1, 12375, Note_on_c, 0, 60, 63
1, 12377, Note_on_c, 0, 57, 53
1, 12399, Note_off_c, 0, 65, 66
1, 12402, Note_off_c, 0, 53, 66
1, 12406, Note_off_c, 0, 60, 67
1, 12410, Note_off_c, 0, 57, 63
1, 12434, Note_off_c, 0, 84, 60
1, 12441, Note_on_c, 0, 89, 68
1, 12499, Note_on_c, 0, 91, 72
1, 12511, Note_off_c, 0, 89, 59
1, 12583, Note_off_c, 0, 91, 57
1, 12587, Note_on_c, 0, 93, 71
1, 12669, Note_off_c, 0, 93, 53
1, 12681, Note_on_c, 0, 65, 65
1, 12688, Note_on_c, 0, 59, 55
1, 12698, Note_on_c, 0, 55, 44
1, 12708, Note_on_c, 0, 91, 62
1, 12763, Note_off_c, 0, 91, 57
1, 12795, Note_on_c, 0, 93, 65
1, 12850, Control_c, 0, 64, 22
1, 12864, Control_c, 0, 64, 33
1, 12872, Note_off_c, 0, 93, 58
1, 12874, Note_on_c, 0, 91, 65
1, 12879, Control_c, 0, 64, 43
1, 12894, Control_c, 0, 64, 53
1, 12908, Control_c, 0, 64, 59
1, 12923, Control_c, 0, 64, 62
1, 12927, Note_off_c, 0, 91, 58
1, 12934, Note_on_c, 0, 89, 58
1, 12938, Control_c, 0, 64, 63
1, 12961, Control_c, 0, 64, 65
1, 12962, Note_off_c, 0, 89, 65
1, 12976, Control_c, 0, 64, 67
1, 12989, Note_on_c, 0, 86, 63
1, 12990, Control_c, 0, 64, 70
1, 13005, Control_c, 0, 64, 72
1, 13020, Note_off_c, 0, 86, 65
1, 13020, Control_c, 0, 64, 73
1, 13035, Control_c, 0, 64, 74
1, 13051, Note_on_c, 0, 83, 66
1, 13107, Note_off_c, 0, 83, 64
1, 13117, Note_on_c, 0, 84, 59
1, 13123, Control_c, 0, 64, 75
1, 13138, Control_c, 0, 64, 77
1, 13153, Control_c, 0, 64, 81
1, 13168, Control_c, 0, 64, 83
1, 13173, Note_on_c, 0, 81, 62
1, 13176, Note_off_c, 0, 84, 62
1, 13182, Control_c, 0, 64, 82
1, 13197, Control_c, 0, 64, 75
1, 13207, Note_off_c, 0, 81, 62
1, 13212, Control_c, 0, 64, 63
1, 13227, Control_c, 0, 64, 47
1, 13230, Note_on_c, 0, 62, 52
1, 13242, Note_on_c, 0, 79, 62
1, 13242, Control_c, 0, 64, 0
1, 13243, Note_off_c, 0, 65, 56
1, 13281, Note_off_c, 0, 79, 58
1, 13296, Note_off_c, 0, 62, 0
1, 13296, Note_on_c, 0, 62, 14
1, 13301, Note_on_c, 0, 81, 63
1, 13316, Control_c, 0, 64, 20
1, 13331, Control_c, 0, 64, 28
1, 13346, Control_c, 0, 64, 35
1, 13361, Control_c, 0, 64, 44
1, 13369, Note_on_c, 0, 79, 64
1, 13372, Note_off_c, 0, 81, 59
1, 13376, Control_c, 0, 64, 52
1, 13390, Control_c, 0, 64, 58
1, 13405, Control_c, 0, 64, 61
1, 13421, Note_off_c, 0, 79, 61
1, 13429, Note_on_c, 0, 77, 59
1, 13449, Note_off_c, 0, 77, 63
1, 13450, Control_c, 0, 64, 61
1, 13464, Control_c, 0, 64, 62
1, 13474, Note_on_c, 0, 74, 61
1, 13479, Control_c, 0, 64, 63
1, 13494, Control_c, 0, 64, 64
1, 13501, Note_off_c, 0, 74, 70
1, 13508, Control_c, 0, 64, 65
1, 13541, Note_on_c, 0, 71, 55
1, 13599, Note_on_c, 0, 72, 67
1, 13602, Note_off_c, 0, 71, 61
1, 13659, Note_on_c, 0, 69, 65
1, 13661, Note_off_c, 0, 72, 61
1, 13692, Note_off_c, 0, 69, 61
1, 13712, Note_off_c, 0, 55, 44
1, 13723, Note_on_c, 0, 67, 72
1, 13725, Control_c, 0, 64, 64
1, 13743, Note_off_c, 0, 59, 47
1, 13756, Note_off_c, 0, 62, 40
1, 13769, Control_c, 0, 64, 63
1, 13780, Note_off_c, 0, 67, 64
1, 13784, Control_c, 0, 64, 62
1, 13790, Note_on_c, 0, 69, 64
1, 13799, Control_c, 0, 64, 57
1, 13814, Control_c, 0, 64, 49
1, 13829, Control_c, 0, 64, 33
1, 13844, Control_c, 0, 64, 0
1, 13853, Note_on_c, 0, 67, 64
1, 13874, Note_off_c, 0, 69, 60
1, 13907, Note_on_c, 0, 65, 69
1, 13907, Note_off_c, 0, 67, 64
1, 13933, Note_off_c, 0, 65, 70
1, 13963, Note_on_c, 0, 62, 62
1, 13995, Note_off_c, 0, 62, 67
1, 14037, Note_on_c, 0, 59, 47
1, 14039, Note_on_c, 0, 60, 49
1, 14086, Note_off_c, 0, 59, 45
1, 14089, Note_off_c, 0, 60, 0
1, 14099, Note_on_c, 0, 62, 45
1, 14107, Note_on_c, 0, 60, 39
1, 14139, Note_off_c, 0, 62, 49
1, 14156, Note_off_c, 0, 60, 65
1, 14157, Note_on_c, 0, 57, 55
1, 14188, Note_off_c, 0, 57, 64
1, 14199, Note_on_c, 0, 55, 71
1, 14258, Note_on_c, 0, 57, 69
1, 14262, Note_off_c, 0, 55, 64
1, 14327, Note_on_c, 0, 55, 56
1, 14366, Note_off_c, 0, 57, 59
1, 14398, Note_on_c, 0, 53, 60
1, 14398, Note_off_c, 0, 55, 65
1, 14437, Note_off_c, 0, 53, 65
1, 14467, Note_on_c, 0, 50, 62
1, 14468, Note_on_c, 0, 43, 60
1, 14473, Control_c, 0, 64, 11
1, 14488, Control_c, 0, 64, 22
1, 14502, Note_off_c, 0, 50, 65
1, 14503, Control_c, 0, 64, 30
1, 14518, Control_c, 0, 64, 38
1, 14532, Note_on_c, 0, 53, 64
1, 14532, Control_c, 0, 64, 47
1, 14547, Control_c, 0, 64, 56
1, 14556, Note_off_c, 0, 43, 50
1, 14562, Control_c, 0, 64, 62
1, 14577, Control_c, 0, 64, 65
1, 14592, Control_c, 0, 64, 66
1, 14607, Note_on_c, 0, 52, 68
1, 14607, Control_c, 0, 64, 67
1, 14622, Control_c, 0, 64, 67
1, 14626, Note_off_c, 0, 53, 61
1, 14636, Control_c, 0, 64, 68
1, 14651, Control_c, 0, 64, 69
1, 14666, Control_c, 0, 64, 72
1, 14671, Note_off_c, 0, 52, 63
1, 14680, Control_c, 0, 64, 79
1, 14686, Note_on_c, 0, 50, 55
1, 14695, Control_c, 0, 64, 88
1, 14710, Control_c, 0, 64, 91
1, 14725, Control_c, 0, 64, 90
1, 14740, Control_c, 0, 64, 79
1, 14741, Note_off_c, 0, 50, 60
1, 14754, Control_c, 0, 64, 63
1, 14769, Control_c, 0, 64, 43
1, 14784, Control_c, 0, 64, 0
1, 14787, Note_on_c, 0, 48, 58
1, 14795, Note_on_c, 0, 43, 49
1, 14798, Note_on_c, 0, 36, 43
1, 14858, Control_c, 0, 64, 16
1, 14870, Note_off_c, 0, 48, 61
1, 14872, Note_on_c, 0, 57, 55
1, 14873, Control_c, 0, 64, 27
1, 14887, Control_c, 0, 64, 35
1, 14902, Control_c, 0, 64, 45
1, 14917, Control_c, 0, 64, 55
1, 14932, Control_c, 0, 64, 62
1, 14934, Note_off_c, 0, 57, 60
1, 14943, Note_on_c, 0, 55, 62
1, 14947, Control_c, 0, 64, 65
1, 14977, Control_c, 0, 64, 63
1, 14986, Note_off_c, 0, 55, 65
1, 14992, Control_c, 0, 64, 60
1, 14993, Note_on_c, 0, 59, 68
1, 15006, Control_c, 0, 64, 56
1, 15021, Note_off_c, 0, 59, 65
1, 15021, Control_c, 0, 64, 56
1, 15036, Control_c, 0, 64, 59
1, 15051, Control_c, 0, 64, 62
1, 15066, Control_c, 0, 64, 65
1, 15066, Note_on_c, 0, 60, 67
1, 15080, Control_c, 0, 64, 66
1, 15095, Control_c, 0, 64, 64
1, 15110, Control_c, 0, 64, 59
1, 15114, Note_off_c, 0, 60, 57
1, 15125, Control_c, 0, 64, 49
1, 15126, Note_on_c, 0, 69, 71
1, 15140, Control_c, 0, 64, 46
1, 15154, Control_c, 0, 64, 49
1, 15169, Control_c, 0, 64, 51
1, 15184, Control_c, 0, 64, 54
1, 15188, Note_off_c, 0, 69, 63
1, 15193, Note_on_c, 0, 67, 71
1, 15206, Control_c, 0, 64, 58
1, 15221, Control_c, 0, 64, 62
1, 15237, Control_c, 0, 64, 65
1, 15250, Note_on_c, 0, 71, 71
1, 15252, Control_c, 0, 64, 68
1, 15254, Note_off_c, 0, 67, 63
1, 15266, Control_c, 0, 64, 72
1, 15271, Note_off_c, 0, 71, 72
1, 15281, Control_c, 0, 64, 75
1, 15296, Control_c, 0, 64, 77
1, 15310, Control_c, 0, 64, 78
1, 15322, Note_on_c, 0, 72, 70
1, 15325, Control_c, 0, 64, 80
1, 15340, Note_off_c, 0, 36, 39
1, 15340, Control_c, 0, 64, 83
1, 15349, Note_off_c, 0, 43, 60
1, 15355, Control_c, 0, 64, 87
1, 15370, Control_c, 0, 64, 88
1, 15373, Note_off_c, 0, 72, 59
1, 15379, Note_on_c, 0, 81, 81
1, 15385, Control_c, 0, 64, 89
1, 15400, Control_c, 0, 64, 89
1, 15415, Control_c, 0, 64, 91
1, 15430, Control_c, 0, 64, 95
1, 15439, Note_on_c, 0, 79, 77
1, 15439, Note_off_c, 0, 81, 62
1, 15445, Control_c, 0, 64, 100
1, 15459, Control_c, 0, 64, 102
1, 15474, Control_c, 0, 64, 105
1, 15485, Note_off_c, 0, 79, 65
1, 15487, Note_on_c, 0, 83, 72
1, 15489, Control_c, 0, 64, 108
1, 15503, Control_c, 0, 64, 127
1, 15509, Note_off_c, 0, 83, 71
1, 15558, Note_on_c, 0, 84, 75
1, 15613, Note_on_c, 0, 93, 76
1, 15620, Note_off_c, 0, 84, 55
1, 15650, Note_on_c, 0, 48, 61
1, 15665, Note_off_c, 0, 93, 63
1, 15665, Note_on_c, 0, 91, 77
1, 15725, Note_on_c, 0, 95, 76
1, 15739, Note_off_c, 0, 48, 64
1, 15740, Note_off_c, 0, 91, 56
1, 15740, Note_on_c, 0, 55, 57
1, 15770, Control_c, 0, 64, 86
1, 15784, Control_c, 0, 64, 65
1, 15799, Control_c, 0, 64, 43
1, 15809, Note_on_c, 0, 96, 66
1, 15814, Note_off_c, 0, 95, 57
1, 15814, Control_c, 0, 64, 0
1, 15820, Note_on_c, 0, 64, 44
1, 15844, Control_c, 0, 64, 15
1, 15859, Control_c, 0, 64, 23
1, 15874, Control_c, 0, 64, 34
1, 15879, Note_on_c, 0, 89, 67
1, 15889, Control_c, 0, 64, 48
1, 15903, Control_c, 0, 64, 61
1, 15908, Note_off_c, 0, 96, 59
1, 15918, Control_c, 0, 64, 72
1, 15925, Note_off_c, 0, 89, 59
1, 15933, Control_c, 0, 64, 80
1, 15955, Note_on_c, 0, 88, 71
1, 15955, Control_c, 0, 64, 81
1, 15970, Control_c, 0, 64, 85
1, 15984, Control_c, 0, 64, 98
1, 15999, Control_c, 0, 64, 114
1, 16014, Note_off_c, 0, 88, 61
1, 16014, Control_c, 0, 64, 127
1, 16020, Note_on_c, 0, 98, 78
1, 16040, Note_off_c, 0, 64, 52
1, 16081, Note_off_c, 0, 55, 51
1, 16088, Note_on_c, 0, 96, 76
1, 16124, Note_off_c, 0, 98, 60
1, 16151, Note_on_c, 0, 89, 80
1, 16187, Note_off_c, 0, 96, 63
1, 16211, Note_off_c, 0, 89, 65
1, 16213, Note_on_c, 0, 88, 78
1, 16271, Note_on_c, 0, 98, 85
1, 16276, Note_off_c, 0, 88, 62
1, 16340, Note_on_c, 0, 96, 79
1, 16375, Note_off_c, 0, 98, 59
1, 16381, Note_on_c, 0, 48, 67
1, 16403, Note_on_c, 0, 89, 81
1, 16432, Note_off_c, 0, 96, 63
1, 16443, Note_on_c, 0, 55, 68
1, 16467, Note_on_c, 0, 88, 78
1, 16467, Note_off_c, 0, 89, 65
1, 16478, Note_off_c, 0, 48, 59
1, 16489, Note_on_c, 0, 58, 77
1, 16538, Note_on_c, 0, 98, 86
1, 16542, Note_off_c, 0, 88, 61
1, 16566, Note_on_c, 0, 64, 96
1, 16587, Note_off_c, 0, 58, 64
1, 16599, Note_off_c, 0, 64, 66
1, 16610, Note_on_c, 0, 96, 80
1, 16616, Note_off_c, 0, 55, 66
1, 16649, Note_off_c, 0, 98, 60
1, 16681, Note_on_c, 0, 93, 84
1, 16703, Note_off_c, 0, 96, 63
1, 16757, Note_on_c, 0, 94, 85
1, 16764, Note_off_c, 0, 93, 64
1, 16775, Note_on_c, 0, 41, 66
1, 16795, Note_off_c, 0, 94, 68
1, 16815, Note_on_c, 0, 48, 71
1, 16831, Note_off_c, 0, 41, 65
1, 16833, Note_on_c, 0, 91, 77
1, 16867, Note_on_c, 0, 57, 79
1, 16869, Note_off_c, 0, 48, 63
1, 16884, Note_off_c, 0, 91, 61
1, 16898, Note_off_c, 0, 57, 62
1, 16972, Control_c, 0, 64, 66
1, 16987, Control_c, 0, 64, 27
1, 16992, Note_on_c, 0, 65, 97
1, 17001, Note_on_c, 0, 93, 90
1, 17002, Control_c, 0, 64, 0
1, 17071, Note_on_c, 0, 91, 81
1, 17075, Control_c, 0, 64, 20
1, 17090, Control_c, 0, 64, 41
1, 17102, Note_off_c, 0, 93, 62
1, 17105, Control_c, 0, 64, 58
1, 17120, Control_c, 0, 64, 73
1, 17135, Control_c, 0, 64, 88
1, 17140, Note_off_c, 0, 91, 61
1, 17141, Note_on_c, 0, 89, 80
1, 17150, Control_c, 0, 64, 88
1, 17165, Control_c, 0, 64, 100
1, 17175, Note_off_c, 0, 65, 63
1, 17175, Note_off_c, 0, 89, 62
1, 17180, Control_c, 0, 64, 127
1, 17186, Note_on_c, 0, 84, 79
1, 17239, Note_off_c, 0, 84, 61
1, 17261, Note_on_c, 0, 81, 83
1, 17327, Note_on_c, 0, 79, 77
1, 17355, Note_off_c, 0, 81, 60
1, 17388, Note_off_c, 0, 79, 62
1, 17394, Note_on_c, 0, 77, 73
1, 17427, Note_off_c, 0, 77, 62
1, 17457, Note_on_c, 0, 72, 69
1, 17489, Note_off_c, 0, 72, 61
1, 17495, Note_on_c, 0, 47, 79
1, 17524, Note_on_c, 0, 48, 92
1, 17526, Control_c, 0, 64, 67
1, 17537, Note_on_c, 0, 69, 69
1, 17540, Note_off_c, 0, 47, 67
1, 17541, Control_c, 0, 64, 46
1, 17555, Control_c, 0, 64, 0
1, 17558, Note_off_c, 0, 48, 64
1, 17606, Note_on_c, 0, 67, 63
1, 17618, Note_off_c, 0, 69, 56
1, 17661, Note_off_c, 0, 67, 64
1, 17663, Note_on_c, 0, 65, 73
1, 17701, Note_off_c, 0, 65, 63
1, 17727, Note_on_c, 0, 60, 64
1, 17764, Note_off_c, 0, 60, 62
1, 17806, Note_on_c, 0, 48, 78
1, 17806, Note_on_c, 0, 57, 71
1, 17832, Note_off_c, 0, 48, 69
1, 17877, Note_on_c, 0, 55, 61
1, 17890, Note_off_c, 0, 57, 58
1, 17920, Note_off_c, 0, 55, 67
1, 17927, Note_on_c, 0, 53, 62
1, 17969, Note_off_c, 0, 53, 65
1, 17996, Note_on_c, 0, 48, 59
1, 18046, Note_off_c, 0, 48, 58
1, 18066, Note_on_c, 0, 41, 83
1, 18070, Note_on_c, 0, 29, 75
1, 18076, Note_on_c, 0, 53, 69
1, 18098, Note_off_c, 0, 29, 63
1, 18104, Control_c, 0, 64, 31
1, 18105, Note_off_c, 0, 41, 66
1, 18119, Control_c, 0, 64, 46
1, 18133, Note_on_c, 0, 55, 58
1, 18134, Control_c, 0, 64, 59
1, 18149, Control_c, 0, 64, 65
1, 18151, Note_off_c, 0, 53, 50
1, 18164, Control_c, 0, 64, 67
1, 18178, Control_c, 0, 64, 67
1, 18186, Note_on_c, 0, 57, 63
1, 18188, Note_off_c, 0, 55, 65
1, 18201, Control_c, 0, 64, 69
1, 18216, Control_c, 0, 64, 76
1, 18217, Note_off_c, 0, 57, 63
1, 18230, Control_c, 0, 64, 86
1, 18245, Control_c, 0, 64, 90
1, 18260, Control_c, 0, 64, 89
1, 18275, Note_on_c, 0, 60, 68
1, 18275, Control_c, 0, 64, 74
1, 18290, Control_c, 0, 64, 61
1, 18304, Control_c, 0, 64, 37
1, 18319, Control_c, 0, 64, 0
1, 18331, Note_off_c, 0, 60, 58
1, 18364, Note_on_c, 0, 65, 66
1, 18368, Note_on_c, 0, 50, 83
1, 18428, Note_on_c, 0, 67, 72
1, 18440, Note_off_c, 0, 65, 60
1, 18502, Note_off_c, 0, 67, 62
1, 18514, Note_on_c, 0, 69, 55
1, 18534, Note_off_c, 0, 69, 64
1, 18578, Note_off_c, 0, 50, 61
1, 18589, Note_on_c, 0, 48, 69
1, 18601, Note_on_c, 0, 72, 59
1, 18654, Note_off_c, 0, 72, 54
1, 18655, Note_on_c, 0, 57, 88
1, 18670, Note_on_c, 0, 77, 72
1, 18706, Control_c, 0, 64, 13
1, 18720, Control_c, 0, 64, 36
1, 18727, Note_on_c, 0, 79, 67
1, 18735, Control_c, 0, 64, 51
1, 18742, Note_off_c, 0, 77, 57
1, 18750, Control_c, 0, 64, 63
1, 18765, Control_c, 0, 64, 68
1, 18789, Note_on_c, 0, 81, 62
1, 18791, Note_off_c, 0, 79, 62
1, 18792, Note_off_c, 0, 57, 57
1, 18794, Control_c, 0, 64, 70
1, 18809, Note_off_c, 0, 81, 66
1, 18809, Control_c, 0, 64, 78
1, 18824, Control_c, 0, 64, 107
1, 18839, Control_c, 0, 64, 127
1, 18870, Note_on_c, 0, 84, 65
1, 18913, Control_c, 0, 64, 65
1, 18914, Note_off_c, 0, 84, 55
1, 18917, Note_off_c, 0, 48, 58
1, 18927, Control_c, 0, 64, 34
1, 18950, Control_c, 0, 64, 0
1, 18956, Note_on_c, 0, 89, 73
1, 18957, Note_on_c, 0, 53, 92
1, 19016, Note_off_c, 0, 89, 60
1, 19024, Note_on_c, 0, 91, 72
1, 19024, Control_c, 0, 64, 21
1, 19039, Control_c, 0, 64, 37
1, 19053, Control_c, 0, 64, 53
1, 19054, Note_off_c, 0, 53, 60
1, 19068, Control_c, 0, 64, 64
1, 19083, Control_c, 0, 64, 73
1, 19087, Note_off_c, 0, 91, 58
1, 19098, Control_c, 0, 64, 78
1, 19103, Note_on_c, 0, 93, 74
1, 19113, Control_c, 0, 64, 81
1, 19127, Control_c, 0, 64, 92
1, 19142, Control_c, 0, 64, 127
1, 19181, Note_on_c, 0, 45, 70
1, 19184, Note_on_c, 0, 91, 74
1, 19201, Note_off_c, 0, 93, 51
1, 19201, Control_c, 0, 64, 77
1, 19216, Control_c, 0, 64, 54
1, 19232, Control_c, 0, 64, 0
1, 19238, Note_on_c, 0, 48, 87
1, 19240, Note_off_c, 0, 45, 65
1, 19245, Note_on_c, 0, 41, 76
1, 19254, Note_on_c, 0, 89, 78
1, 19256, Note_off_c, 0, 91, 59
1, 19303, Note_off_c, 0, 89, 64
1, 19331, Note_on_c, 0, 84, 64
1, 19359, Note_off_c, 0, 84, 67
1, 19403, Note_on_c, 0, 81, 72
1, 19439, Control_c, 0, 64, 27
1, 19454, Control_c, 0, 64, 42
1, 19469, Control_c, 0, 64, 56
1, 19471, Note_on_c, 0, 79, 71
1, 19484, Control_c, 0, 64, 66
1, 19491, Note_off_c, 0, 81, 49
1, 19499, Control_c, 0, 64, 72
1, 19508, Note_off_c, 0, 48, 61
1, 19514, Control_c, 0, 64, 74
1, 19528, Control_c, 0, 64, 77
1, 19533, Note_off_c, 0, 79, 63
1, 19534, Note_on_c, 0, 77, 76
1, 19543, Control_c, 0, 64, 83
1, 19558, Control_c, 0, 64, 84
1, 19562, Note_off_c, 0, 77, 63
1, 19588, Control_c, 0, 64, 82
1, 19589, Note_on_c, 0, 72, 68
1, 19603, Control_c, 0, 64, 74
1, 19617, Control_c, 0, 64, 65
1, 19618, Note_off_c, 0, 72, 62
1, 19632, Control_c, 0, 64, 58
1, 19647, Control_c, 0, 64, 43
1, 19662, Control_c, 0, 64, 10
1, 19676, Control_c, 0, 64, 0
1, 19678, Note_on_c, 0, 69, 50
1, 19688, Note_on_c, 0, 67, 50
1, 19743, Note_off_c, 0, 67, 0
1, 19743, Note_on_c, 0, 67, 39
1, 19773, Note_off_c, 0, 69, 57
1, 19778, Note_on_c, 0, 47, 74
1, 19803, Note_off_c, 0, 41, 41
1, 19811, Note_off_c, 0, 67, 64
1, 19813, Note_on_c, 0, 65, 67
1, 19816, Note_on_c, 0, 48, 87
1, 19819, Note_off_c, 0, 47, 67
1, 19842, Note_off_c, 0, 65, 67
1, 19851, Note_off_c, 0, 48, 69
1, 19871, Note_on_c, 0, 60, 67
1, 19899, Note_off_c, 0, 60, 68
1, 19940, Note_on_c, 0, 57, 73
1, 20002, Note_on_c, 0, 55, 70
1, 20026, Note_off_c, 0, 57, 55
1, 20071, Note_off_c, 0, 55, 65
1, 20073, Note_on_c, 0, 53, 73
1, 20104, Note_on_c, 0, 48, 51
1, 20122, Note_off_c, 0, 53, 63
1, 20128, Note_off_c, 0, 48, 0
1, 20152, Note_on_c, 0, 48, 53
1, 20205, Note_off_c, 0, 48, 63
1, 20235, Note_on_c, 0, 53, 63
1, 20280, Note_off_c, 0, 53, 65
1, 20289, Note_on_c, 0, 57, 57
1, 20361, Note_on_c, 0, 55, 58
1, 20367, Note_on_c, 0, 28, 64
1, 20368, Note_on_c, 0, 40, 70
1, 20384, Note_off_c, 0, 57, 55
1, 20396, Control_c, 0, 64, 27
1, 20398, Note_off_c, 0, 40, 65
1, 20399, Note_off_c, 0, 28, 65
1, 20411, Control_c, 0, 64, 42
1, 20416, Note_off_c, 0, 55, 64
1, 20426, Control_c, 0, 64, 54
1, 20447, Note_on_c, 0, 48, 64
1, 20448, Control_c, 0, 64, 63
1, 20463, Control_c, 0, 64, 67
1, 20478, Control_c, 0, 64, 69
1, 20492, Note_off_c, 0, 48, 63
1, 20493, Control_c, 0, 64, 69
1, 20507, Control_c, 0, 64, 72
1, 20522, Control_c, 0, 64, 77
1, 20532, Note_on_c, 0, 55, 67
1, 20537, Control_c, 0, 64, 87
1, 20552, Control_c, 0, 64, 99
1, 20567, Control_c, 0, 64, 106
1, 20581, Control_c, 0, 64, 107
1, 20586, Note_on_c, 0, 57, 62
1, 20591, Note_off_c, 0, 55, 63
1, 20611, Control_c, 0, 64, 95
1, 20625, Control_c, 0, 64, 78
1, 20640, Control_c, 0, 64, 63
1, 20655, Note_on_c, 0, 58, 66
1, 20655, Control_c, 0, 64, 44
1, 20656, Note_off_c, 0, 57, 60
1, 20670, Note_on_c, 0, 50, 74
1, 20670, Control_c, 0, 64, 0
1, 20686, Note_off_c, 0, 58, 66
1, 20734, Note_on_c, 0, 60, 69
1, 20780, Note_off_c, 0, 60, 64
1, 20822, Note_on_c, 0, 67, 66
1, 20870, Note_off_c, 0, 50, 61
1, 20873, Note_on_c, 0, 48, 67
1, 20882, Note_on_c, 0, 69, 66
1, 20889, Note_off_c, 0, 67, 61
1, 20940, Note_on_c, 0, 55, 83
1, 20942, Note_on_c, 0, 70, 61
1, 20944, Note_off_c, 0, 69, 64
1, 20972, Note_off_c, 0, 70, 67
1, 20997, Control_c, 0, 64, 25
1, 20998, Note_off_c, 0, 48, 65
1, 21008, Note_off_c, 0, 55, 65
1, 21012, Control_c, 0, 64, 40
1, 21017, Note_on_c, 0, 72, 64
1, 21027, Control_c, 0, 64, 53
1, 21041, Control_c, 0, 64, 63
1, 21056, Control_c, 0, 64, 68
1, 21057, Note_off_c, 0, 72, 58
1, 21071, Control_c, 0, 64, 71
1, 21086, Control_c, 0, 64, 84
1, 21095, Note_on_c, 0, 79, 73
1, 21101, Control_c, 0, 64, 127
1, 21144, Control_c, 0, 64, 98
1, 21153, Note_on_c, 0, 81, 78
1, 21159, Control_c, 0, 64, 78
1, 21161, Note_off_c, 0, 79, 62
1, 21196, Control_c, 0, 64, 87
1, 21211, Control_c, 0, 64, 108
1, 21220, Note_on_c, 0, 62, 95
1, 21226, Control_c, 0, 64, 127
1, 21233, Note_on_c, 0, 82, 68
1, 21239, Note_off_c, 0, 81, 60
1, 21258, Note_off_c, 0, 82, 69
1, 21259, Note_off_c, 0, 62, 66
1, 21301, Note_on_c, 0, 84, 68
1, 21351, Note_off_c, 0, 84, 60
1, 21382, Note_on_c, 0, 91, 86
1, 21440, Note_off_c, 0, 91, 54
1, 21445, Note_on_c, 0, 40, 52
1, 21477, Note_on_c, 0, 93, 79
1, 21525, Note_off_c, 0, 40, 64
1, 21533, Note_on_c, 0, 48, 73
1, 21595, Note_off_c, 0, 93, 59
1, 21596, Control_c, 0, 64, 73
1, 21612, Control_c, 0, 64, 49
1, 21616, Note_on_c, 0, 60, 96
1, 21623, Note_on_c, 0, 94, 74
1, 21627, Control_c, 0, 64, 0
1, 21704, Note_on_c, 0, 93, 78
1, 21728, Note_off_c, 0, 94, 61
1, 21745, Control_c, 0, 64, 11
1, 21760, Control_c, 0, 64, 35
1, 21775, Control_c, 0, 64, 51
1, 21776, Note_on_c, 0, 91, 69
1, 21776, Note_off_c, 0, 93, 62
1, 21790, Control_c, 0, 64, 64
1, 21803, Note_off_c, 0, 91, 63
1, 21805, Control_c, 0, 64, 75
1, 21819, Control_c, 0, 64, 77
1, 21820, Note_off_c, 0, 60, 59
1, 21834, Control_c, 0, 64, 80
1, 21835, Note_on_c, 0, 84, 70
1, 21849, Control_c, 0, 64, 91
1, 21863, Control_c, 0, 64, 127
1, 21871, Note_off_c, 0, 84, 59
1, 21901, Note_on_c, 0, 82, 79
1, 21907, Note_off_c, 0, 48, 65
1, 21979, Note_on_c, 0, 81, 70
1, 22018, Note_off_c, 0, 82, 56
1, 22050, Note_off_c, 0, 81, 62
1, 22051, Note_on_c, 0, 79, 66
1, 22077, Note_off_c, 0, 79, 66
1, 22112, Note_on_c, 0, 72, 70
1, 22118, Note_on_c, 0, 47, 74
1, 22140, Note_off_c, 0, 72, 63
1, 22166, Note_on_c, 0, 48, 93
1, 22167, Control_c, 0, 64, 71
1, 22176, Note_off_c, 0, 47, 63
1, 22182, Control_c, 0, 64, 54
1, 22184, Note_on_c, 0, 70, 77
1, 22196, Control_c, 0, 64, 0
1, 22199, Note_off_c, 0, 48, 64
1, 22257, Note_on_c, 0, 69, 71
1, 22287, Note_off_c, 0, 70, 53
1, 22319, Note_off_c, 0, 69, 64
1, 22325, Note_on_c, 0, 67, 67
1, 22354, Note_off_c, 0, 67, 65
1, 22399, Note_on_c, 0, 60, 59
1, 22436, Note_off_c, 0, 60, 61
1, 22466, Note_on_c, 0, 48, 69
1, 22471, Note_on_c, 0, 58, 70
1, 22491, Note_off_c, 0, 48, 67
1, 22536, Note_on_c, 0, 57, 65
1, 22575, Note_off_c, 0, 58, 57
1, 22601, Note_on_c, 0, 55, 57
1, 22607, Note_off_c, 0, 57, 59
1, 22641, Note_off_c, 0, 55, 62
1, 22676, Note_on_c, 0, 48, 61
1, 22739, Note_off_c, 0, 48, 59
1, 22744, Note_on_c, 0, 40, 76
1, 22747, Note_on_c, 0, 28, 65
1, 22762, Note_on_c, 0, 55, 69
1, 22778, Note_off_c, 0, 28, 66
1, 22778, Note_off_c, 0, 40, 67
1, 22783, Control_c, 0, 64, 28
1, 22798, Control_c, 0, 64, 40
1, 22813, Control_c, 0, 64, 52
1, 22827, Control_c, 0, 64, 62
1, 22828, Note_on_c, 0, 57, 65
1, 22832, Note_off_c, 0, 55, 64
1, 22842, Control_c, 0, 64, 69
1, 22857, Control_c, 0, 64, 75
1, 22872, Control_c, 0, 64, 77
1, 22887, Control_c, 0, 64, 77
1, 22890, Note_on_c, 0, 58, 59
1, 22891, Note_off_c, 0, 57, 61
1, 22901, Control_c, 0, 64, 78
1, 22916, Control_c, 0, 64, 80
1, 22919, Note_off_c, 0, 58, 65
1, 22931, Control_c, 0, 64, 81
1, 22952, Note_on_c, 0, 60, 71
1, 22961, Control_c, 0, 64, 74
1, 22975, Control_c, 0, 64, 64
1, 22990, Control_c, 0, 64, 47
1, 22997, Note_off_c, 0, 60, 61
1, 23005, Control_c, 0, 64, 0
1, 23039, Note_on_c, 0, 50, 79
1, 23048, Note_on_c, 0, 67, 71
1, 23116, Note_off_c, 0, 67, 63
1, 23120, Note_on_c, 0, 69, 63
1, 23184, Note_off_c, 0, 69, 63
1, 23189, Note_on_c, 0, 70, 62
1, 23212, Note_off_c, 0, 50, 59
1, 23220, Note_off_c, 0, 70, 66
1, 23254, Note_on_c, 0, 48, 64
1, 23274, Note_on_c, 0, 72, 61
1, 23306, Note_off_c, 0, 72, 60
1, 23333, Note_on_c, 0, 58, 87
1, 23347, Note_on_c, 0, 79, 73
1, 23377, Control_c, 0, 64, 11
1, 23392, Control_c, 0, 64, 30
1, 23399, Note_off_c, 0, 48, 32
1, 23407, Control_c, 0, 64, 45
1, 23409, Note_on_c, 0, 81, 67
1, 23410, Note_off_c, 0, 79, 61
1, 23422, Control_c, 0, 64, 58
1, 23443, Control_c, 0, 64, 65
1, 23458, Control_c, 0, 64, 66
1, 23473, Control_c, 0, 64, 67
1, 23478, Note_on_c, 0, 82, 63
1, 23479, Note_off_c, 0, 81, 62
1, 23488, Control_c, 0, 64, 70
1, 23503, Control_c, 0, 64, 81
1, 23507, Note_off_c, 0, 82, 67
1, 23515, Note_off_c, 0, 58, 60
1, 23518, Control_c, 0, 64, 109
1, 23532, Control_c, 0, 64, 127
1, 23545, Note_on_c, 0, 84, 71
1, 23577, Control_c, 0, 64, 103
1, 23591, Control_c, 0, 64, 64
1, 23597, Note_off_c, 0, 84, 60
1, 23606, Control_c, 0, 64, 39
1, 23621, Control_c, 0, 64, 0
1, 23623, Note_on_c, 0, 55, 94
1, 23633, Note_on_c, 0, 91, 73
1, 23666, Control_c, 0, 64, 18
1, 23672, Note_off_c, 0, 55, 64
1, 23681, Control_c, 0, 64, 35
1, 23694, Note_off_c, 0, 91, 58
1, 23696, Control_c, 0, 64, 48
1, 23699, Note_on_c, 0, 93, 73
1, 23711, Control_c, 0, 64, 60
1, 23725, Control_c, 0, 64, 72
1, 23740, Control_c, 0, 64, 80
1, 23755, Control_c, 0, 64, 86
1, 23761, Note_off_c, 0, 93, 63
1, 23768, Note_on_c, 0, 94, 78
1, 23770, Control_c, 0, 64, 97
1, 23785, Control_c, 0, 64, 127
1, 23834, Note_on_c, 0, 43, 71
1, 23850, Note_on_c, 0, 93, 80
1, 23858, Control_c, 0, 64, 96
1, 23860, Note_off_c, 0, 94, 62
1, 23873, Control_c, 0, 64, 62
1, 23888, Control_c, 0, 64, 31
1, 23902, Note_on_c, 0, 48, 88
1, 23903, Note_off_c, 0, 43, 64
1, 23903, Control_c, 0, 64, 0
1, 23910, Note_on_c, 0, 40, 83
1, 23916, Note_off_c, 0, 93, 64
1, 23918, Note_on_c, 0, 91, 82
1, 23955, Note_off_c, 0, 91, 61
1, 23987, Note_on_c, 0, 84, 70
1, 24025, Note_off_c, 0, 84, 58
1, 24060, Note_on_c, 0, 82, 75
1, 24126, Control_c, 0, 64, 14
1, 24130, Note_on_c, 0, 81, 73
1, 24140, Control_c, 0, 64, 32
1, 24152, Note_off_c, 0, 48, 61
1, 24155, Control_c, 0, 64, 45
1, 24167, Note_off_c, 0, 82, 56
1, 24170, Control_c, 0, 64, 57
1, 24193, Control_c, 0, 64, 64
1, 24198, Note_off_c, 0, 81, 64
1, 24199, Note_on_c, 0, 79, 72
1, 24208, Control_c, 0, 64, 66
1, 24225, Note_off_c, 0, 79, 66
1, 24252, Control_c, 0, 64, 67
1, 24263, Note_on_c, 0, 72, 71
1, 24266, Control_c, 0, 64, 73
1, 24281, Control_c, 0, 64, 81
1, 24289, Note_off_c, 0, 72, 63
1, 24296, Control_c, 0, 64, 83
1, 24311, Control_c, 0, 64, 75
1, 24326, Control_c, 0, 64, 63
1, 24329, Note_on_c, 0, 70, 76
1, 24340, Control_c, 0, 64, 47
1, 24355, Control_c, 0, 64, 0
1, 24402, Note_on_c, 0, 69, 64
1, 24419, Note_off_c, 0, 70, 56
1, 24437, Note_on_c, 0, 47, 78
1, 24463, Note_off_c, 0, 69, 65
1, 24465, Note_on_c, 0, 67, 75
1, 24473, Note_on_c, 0, 48, 87
1, 24476, Note_off_c, 0, 40, 40
1, 24477, Note_off_c, 0, 47, 67
1, 24495, Note_off_c, 0, 67, 65
1, 24504, Note_off_c, 0, 48, 69
1, 24544, Note_on_c, 0, 60, 67
1, 24563, Note_off_c, 0, 60, 66
1, 24612, Note_on_c, 0, 58, 70
1, 24684, Note_on_c, 0, 57, 53
1, 24684, Note_off_c, 0, 58, 61
1, 24742, Note_on_c, 0, 55, 65
1, 24742, Note_off_c, 0, 57, 62
1, 24748, Note_on_c, 0, 48, 75
1, 24771, Note_off_c, 0, 48, 68
1, 24781, Note_off_c, 0, 55, 64
1, 24837, Note_on_c, 0, 48, 63
1, 24874, Note_off_c, 0, 48, 63
1, 24892, Note_on_c, 0, 55, 63
1, 24946, Note_off_c, 0, 55, 65
1, 24964, Note_on_c, 0, 58, 61
1, 25022, Note_on_c, 0, 57, 59
1, 25025, Note_on_c, 0, 29, 57
1, 25028, Note_on_c, 0, 41, 63
1, 25042, Note_off_c, 0, 58, 63
1, 25055, Note_off_c, 0, 29, 53
1, 25059, Note_off_c, 0, 41, 66
1, 25059, Control_c, 0, 64, 30
1, 25074, Control_c, 0, 64, 46
1, 25088, Note_off_c, 0, 57, 61
1, 25088, Control_c, 0, 64, 57
1, 25089, Note_on_c, 0, 48, 70
1, 25103, Control_c, 0, 64, 62
1, 25118, Control_c, 0, 64, 63
1, 25150, Note_off_c, 0, 48, 62
1, 25162, Control_c, 0, 64, 64
1, 25171, Note_on_c, 0, 53, 66
1, 25177, Control_c, 0, 64, 66
1, 25192, Control_c, 0, 64, 68
1, 25222, Control_c, 0, 64, 67
1, 25224, Note_on_c, 0, 55, 59
1, 25237, Control_c, 0, 64, 63
1, 25239, Note_off_c, 0, 53, 60
1, 25252, Control_c, 0, 64, 49
1, 25267, Control_c, 0, 64, 0
1, 25294, Note_on_c, 0, 57, 65
1, 25295, Note_on_c, 0, 50, 80
1, 25298, Note_off_c, 0, 55, 65
1, 25321, Note_off_c, 0, 57, 64
1, 25377, Note_on_c, 0, 60, 69
1, 25434, Note_off_c, 0, 60, 56
1, 25462, Note_on_c, 0, 65, 66
1, 25484, Note_off_c, 0, 50, 63
1, 25492, Note_on_c, 0, 48, 71
1, 25510, Note_on_c, 0, 67, 69
1, 25528, Note_off_c, 0, 65, 62
1, 25566, Note_off_c, 0, 48, 65
1, 25571, Note_on_c, 0, 53, 90
1, 25581, Note_on_c, 0, 69, 65
1, 25584, Note_off_c, 0, 67, 62
1, 25603, Note_off_c, 0, 53, 69
1, 25607, Control_c, 0, 64, 23
1, 25608, Note_off_c, 0, 69, 68
1, 25623, Control_c, 0, 64, 35
1, 25637, Control_c, 0, 64, 51
1, 25652, Control_c, 0, 64, 64
1, 25660, Note_on_c, 0, 72, 66
1, 25667, Control_c, 0, 64, 77
1, 25690, Control_c, 0, 64, 80
1, 25719, Control_c, 0, 64, 82
1, 25727, Note_off_c, 0, 72, 60
1, 25732, Note_on_c, 0, 77, 79
1, 25734, Control_c, 0, 64, 102
1, 25749, Control_c, 0, 64, 127
1, 25791, Note_on_c, 0, 79, 75
1, 25823, Note_off_c, 0, 77, 60
1, 25851, Note_on_c, 0, 65, 101
1, 25857, Note_on_c, 0, 81, 74
1, 25863, Note_off_c, 0, 79, 62
1, 25881, Note_off_c, 0, 81, 67
1, 25889, Note_off_c, 0, 65, 69
1, 25942, Note_on_c, 0, 84, 77
1, 26008, Note_on_c, 0, 89, 84
1, 26014, Note_off_c, 0, 84, 61
1, 26082, Note_off_c, 0, 89, 65
1, 26083, Note_on_c, 0, 93, 75
1, 26134, Control_c, 0, 64, 75
1, 26149, Control_c, 0, 64, 45
1, 26156, Note_off_c, 0, 93, 0
1, 26163, Note_on_c, 0, 91, 62
1, 26164, Note_on_c, 0, 65, 93
1, 26164, Control_c, 0, 64, 0
1, 26165, Note_on_c, 0, 62, 87
1, 26172, Note_on_c, 0, 58, 79
1, 26175, Note_on_c, 0, 53, 73
1, 26177, Note_on_c, 0, 93, 27
1, 26206, Note_off_c, 0, 93, 49
1, 26240, Note_on_c, 0, 89, 81
1, 26241, Note_off_c, 0, 91, 60
1, 26252, Control_c, 0, 64, 31
1, 26267, Control_c, 0, 64, 47
1, 26280, Note_off_c, 0, 89, 64
1, 26282, Control_c, 0, 64, 62
1, 26297, Control_c, 0, 64, 79
1, 26307, Note_on_c, 0, 86, 70
1, 26311, Control_c, 0, 64, 88
1, 26326, Control_c, 0, 64, 95
1, 26333, Note_off_c, 0, 86, 65
1, 26341, Control_c, 0, 64, 127
1, 26370, Note_on_c, 0, 82, 83
1, 26419, Note_off_c, 0, 65, 57
1, 26441, Note_off_c, 0, 62, 61
1, 26443, Note_on_c, 0, 79, 73
1, 26453, Note_off_c, 0, 82, 61
1, 26505, Note_on_c, 0, 77, 80
1, 26508, Note_off_c, 0, 79, 64
1, 26511, Note_off_c, 0, 53, 54
1, 26536, Note_off_c, 0, 77, 60
1, 26563, Note_on_c, 0, 74, 76
1, 26609, Note_off_c, 0, 74, 63
1, 26634, Note_on_c, 0, 70, 72
1, 26656, Note_off_c, 0, 70, 69
1, 26665, Note_off_c, 0, 58, 60
1, 26690, Control_c, 0, 64, 108
1, 26703, Note_on_c, 0, 65, 93
1, 26705, Control_c, 0, 64, 63
1, 26706, Note_on_c, 0, 72, 78
1, 26709, Note_on_c, 0, 60, 82
1, 26712, Note_on_c, 0, 57, 76
1, 26715, Note_on_c, 0, 53, 66
1, 26720, Control_c, 0, 64, 38
1, 26724, Note_off_c, 0, 65, 72
1, 26730, Note_off_c, 0, 60, 71
1, 26731, Note_off_c, 0, 53, 69
1, 26734, Control_c, 0, 64, 0
1, 26739, Note_off_c, 0, 57, 65
1, 26751, Note_off_c, 0, 72, 58
1, 26781, Note_on_c, 0, 77, 80
1, 26837, Note_on_c, 0, 79, 70
1, 26874, Note_off_c, 0, 77, 60
1, 26907, Note_on_c, 0, 81, 76
1, 26916, Note_off_c, 0, 79, 62
1, 26933, Note_off_c, 0, 81, 65
1, 26977, Note_on_c, 0, 57, 80
1, 26978, Note_on_c, 0, 65, 87
1, 26981, Note_on_c, 0, 60, 81
1, 26987, Note_on_c, 0, 84, 82
1, 26988, Note_on_c, 0, 53, 59
1, 26999, Note_off_c, 0, 65, 71
1, 27000, Note_off_c, 0, 60, 72
1, 27010, Note_off_c, 0, 53, 62
1, 27016, Note_off_c, 0, 57, 64
1, 27055, Note_on_c, 0, 89, 84
1, 27062, Note_off_c, 0, 84, 63
1, 27121, Note_on_c, 0, 91, 71
1, 27153, Note_off_c, 0, 89, 60
1, 27187, Note_on_c, 0, 93, 83
1, 27189, Note_off_c, 0, 91, 62
1, 27255, Note_on_c, 0, 62, 90
1, 27255, Note_on_c, 0, 65, 93
1, 27264, Note_on_c, 0, 58, 77
1, 27266, Note_on_c, 0, 53, 72
1, 27266, Note_on_c, 0, 91, 81
1, 27306, Control_c, 0, 64, 19
1, 27315, Note_off_c, 0, 93, 61
1, 27321, Control_c, 0, 64, 29
1, 27334, Note_off_c, 0, 91, 60
1, 27335, Note_on_c, 0, 89, 73
1, 27336, Control_c, 0, 64, 42
1, 27351, Control_c, 0, 64, 57
1, 27362, Note_off_c, 0, 89, 67
1, 27365, Control_c, 0, 64, 70
1, 27380, Control_c, 0, 64, 75
1, 27395, Note_on_c, 0, 86, 70
1, 27395, Control_c, 0, 64, 76
1, 27410, Control_c, 0, 64, 79
1, 27422, Note_off_c, 0, 86, 61
1, 27425, Control_c, 0, 64, 93
1, 27440, Control_c, 0, 64, 127
1, 27467, Note_on_c, 0, 82, 74
1, 27479, Note_off_c, 0, 65, 59
1, 27495, Note_off_c, 0, 62, 61
1, 27528, Note_on_c, 0, 79, 72
1, 27562, Note_off_c, 0, 53, 38
1, 27590, Note_on_c, 0, 77, 77
1, 27595, Note_off_c, 0, 79, 63
1, 27605, Note_off_c, 0, 82, 60
1, 27616, Note_off_c, 0, 77, 64
1, 27648, Note_on_c, 0, 74, 72
1, 27718, Note_on_c, 0, 70, 80
1, 27720, Note_off_c, 0, 74, 55
1, 27741, Note_off_c, 0, 58, 57
1, 27743, Note_off_c, 0, 70, 67
1, 27765, Control_c, 0, 64, 84
1, 27780, Control_c, 0, 64, 60
1, 27794, Note_on_c, 0, 65, 87
1, 27795, Note_on_c, 0, 60, 83
1, 27795, Control_c, 0, 64, 30
1, 27800, Note_on_c, 0, 57, 72
1, 27801, Note_on_c, 0, 72, 73
1, 27808, Note_on_c, 0, 53, 56
1, 27809, Control_c, 0, 64, 0
1, 27817, Note_off_c, 0, 65, 70
1, 27823, Note_off_c, 0, 60, 65
1, 27834, Note_off_c, 0, 57, 62
1, 27836, Note_off_c, 0, 53, 57
1, 27857, Note_off_c, 0, 72, 59
1, 27878, Note_on_c, 0, 77, 84
1, 27940, Note_on_c, 0, 79, 75
1, 27994, Note_off_c, 0, 77, 54
1, 28013, Note_on_c, 0, 81, 79
1, 28024, Note_off_c, 0, 79, 62
1, 28044, Note_off_c, 0, 81, 63
1, 28073, Note_on_c, 0, 65, 71
1, 28079, Note_on_c, 0, 60, 70
1, 28087, Note_on_c, 0, 53, 56
1, 28094, Note_on_c, 0, 57, 53
1, 28097, Note_off_c, 0, 65, 69
1, 28101, Note_on_c, 0, 84, 76
1, 28107, Note_off_c, 0, 60, 68
1, 28118, Note_off_c, 0, 57, 59
1, 28126, Note_off_c, 0, 53, 67
1, 28129, Control_c, 0, 64, 15
1, 28144, Control_c, 0, 64, 35
1, 28159, Control_c, 0, 64, 48
1, 28166, Note_on_c, 0, 89, 90
1, 28174, Control_c, 0, 64, 59
1, 28185, Note_off_c, 0, 84, 61
1, 28188, Control_c, 0, 64, 64
1, 28203, Control_c, 0, 64, 66
1, 28218, Control_c, 0, 64, 67
1, 28233, Control_c, 0, 64, 69
1, 28239, Note_on_c, 0, 91, 81
1, 28248, Control_c, 0, 64, 75
1, 28263, Control_c, 0, 64, 82
1, 28277, Control_c, 0, 64, 86
1, 28289, Note_off_c, 0, 89, 56
1, 28292, Control_c, 0, 64, 87
1, 28304, Note_on_c, 0, 46, 70
1, 28316, Note_on_c, 0, 93, 73
1, 28322, Control_c, 0, 64, 90
1, 28334, Note_off_c, 0, 91, 56
1, 28337, Control_c, 0, 64, 111
1, 28352, Control_c, 0, 64, 127
1, 28364, Note_on_c, 0, 53, 72
1, 28381, Note_on_c, 0, 51, 42
1, 28399, Note_off_c, 0, 46, 65
1, 28411, Control_c, 0, 64, 82
1, 28412, Note_on_c, 0, 55, 70
1, 28424, Note_off_c, 0, 93, 57
1, 28426, Control_c, 0, 64, 61
1, 28440, Control_c, 0, 64, 31
1, 28455, Control_c, 0, 64, 0
1, 28492, Note_on_c, 0, 62, 84
1, 28493, Note_on_c, 0, 91, 67
1, 28513, Note_off_c, 0, 51, 28
1, 28529, Control_c, 0, 64, 10
1, 28544, Control_c, 0, 64, 25
1, 28554, Note_off_c, 0, 91, 58
1, 28558, Control_c, 0, 64, 35
1, 28568, Note_on_c, 0, 93, 75
1, 28573, Control_c, 0, 64, 44
1, 28588, Control_c, 0, 64, 55
1, 28603, Control_c, 0, 64, 63
1, 28618, Control_c, 0, 64, 66
1, 28631, Note_on_c, 0, 91, 70
1, 28632, Control_c, 0, 64, 68
1, 28647, Control_c, 0, 64, 72
1, 28658, Note_off_c, 0, 93, 58
1, 28662, Control_c, 0, 64, 80
1, 28685, Note_on_c, 0, 89, 76
1, 28685, Control_c, 0, 64, 94
1, 28695, Note_off_c, 0, 91, 62
1, 28700, Control_c, 0, 64, 110
1, 28713, Note_off_c, 0, 89, 65
1, 28714, Control_c, 0, 64, 127
1, 28745, Note_on_c, 0, 86, 74
1, 28769, Note_off_c, 0, 86, 68
1, 28811, Note_on_c, 0, 82, 75
1, 28833, Note_off_c, 0, 82, 71
1, 28906, Note_on_c, 0, 84, 41
1, 28927, Note_on_c, 0, 83, 24
1, 28929, Note_on_c, 0, 81, 78
1, 28954, Note_off_c, 0, 84, 50
1, 28961, Note_off_c, 0, 83, 56
1, 28981, Note_off_c, 0, 81, 61
1, 28992, Note_on_c, 0, 79, 73
1, 29039, Note_off_c, 0, 79, 63
1, 29057, Note_off_c, 0, 62, 48
1, 29060, Note_on_c, 0, 81, 74
1, 29129, Note_on_c, 0, 79, 67
1, 29155, Note_off_c, 0, 81, 57
1, 29180, Note_on_c, 0, 77, 74
1, 29184, Note_off_c, 0, 79, 62
1, 29204, Note_off_c, 0, 77, 66
1, 29224, Note_off_c, 0, 55, 38
1, 29241, Note_on_c, 0, 74, 61
1, 29260, Note_off_c, 0, 53, 42
1, 29267, Note_off_c, 0, 74, 68
1, 29304, Note_on_c, 0, 70, 71
1, 29374, Note_on_c, 0, 72, 61
1, 29388, Note_off_c, 0, 70, 57
1, 29458, Note_on_c, 0, 69, 59
1, 29495, Note_off_c, 0, 72, 56
1, 29536, Note_off_c, 0, 69, 61
1, 29536, Control_c, 0, 64, 67
1, 29543, Note_on_c, 0, 62, 71
1, 29551, Note_on_c, 0, 67, 61
1, 29551, Control_c, 0, 64, 41
1, 29554, Note_on_c, 0, 55, 65
1, 29557, Note_on_c, 0, 53, 51
1, 29558, Note_on_c, 0, 48, 60
1, 29566, Control_c, 0, 64, 0
1, 29581, Control_c, 0, 64, 11
1, 29589, Note_off_c, 0, 67, 51
1, 29595, Control_c, 0, 64, 20
1, 29611, Control_c, 0, 64, 27
1, 29622, Note_on_c, 0, 69, 59
1, 29626, Control_c, 0, 64, 36
1, 29641, Control_c, 0, 64, 47
1, 29656, Control_c, 0, 64, 62
1, 29671, Note_off_c, 0, 69, 61
1, 29671, Control_c, 0, 64, 73
1, 29680, Note_on_c, 0, 67, 68
1, 29685, Control_c, 0, 64, 85
1, 29700, Control_c, 0, 64, 93
1, 29715, Control_c, 0, 64, 114
1, 29730, Control_c, 0, 64, 127
1, 29749, Note_on_c, 0, 74, 66
1, 29750, Note_off_c, 0, 67, 60
1, 29793, Note_off_c, 0, 74, 57
1, 29810, Note_on_c, 0, 72, 75
1, 29869, Note_off_c, 0, 72, 62
1, 29877, Note_on_c, 0, 74, 61
1, 29888, Note_off_c, 0, 62, 61
1, 29898, Note_off_c, 0, 74, 67
1, 29923, Note_on_c, 0, 72, 70
1, 29980, Note_off_c, 0, 72, 62
1, 29993, Note_on_c, 0, 81, 79
1, 30033, Note_off_c, 0, 53, 63
1, 30041, Control_c, 0, 64, 69
1, 30046, Note_off_c, 0, 81, 64
1, 30053, Note_on_c, 0, 79, 72
1, 30056, Control_c, 0, 64, 43
1, 30062, Note_on_c, 0, 60, 91
1, 30064, Note_off_c, 0, 55, 65
1, 30071, Control_c, 0, 64, 0
1, 30072, Note_on_c, 0, 52, 75
1, 30117, Note_off_c, 0, 79, 61
1, 30123, Note_on_c, 0, 81, 72
1, 30130, Control_c, 0, 64, 18
1, 30145, Control_c, 0, 64, 40
1, 30146, Note_off_c, 0, 81, 67
1, 30159, Control_c, 0, 64, 57
1, 30174, Control_c, 0, 64, 72
1, 30191, Note_on_c, 0, 79, 72
1, 30197, Control_c, 0, 64, 101
1, 30211, Control_c, 0, 64, 113
1, 30226, Control_c, 0, 64, 127
1, 30248, Note_off_c, 0, 79, 56
1, 30258, Note_on_c, 0, 86, 81
1, 30314, Note_on_c, 0, 84, 86
1, 30314, Note_off_c, 0, 86, 63
1, 30320, Note_on_c, 0, 58, 85
1, 30322, Note_off_c, 0, 60, 63
1, 30352, Note_off_c, 0, 52, 65
1, 30354, Note_off_c, 0, 58, 63
1, 30379, Note_off_c, 0, 48, 53
1, 30390, Note_off_c, 0, 84, 64
1, 30391, Note_on_c, 0, 86, 78
1, 30412, Note_off_c, 0, 86, 70
1, 30461, Note_on_c, 0, 84, 86
1, 30504, Note_off_c, 0, 84, 63
1, 30534, Note_on_c, 0, 41, 62
1, 30548, Note_on_c, 0, 98, 81
1, 30594, Note_off_c, 0, 41, 63
1, 30611, Note_on_c, 0, 48, 63
1, 30631, Note_on_c, 0, 52, 66
1, 30655, Note_off_c, 0, 98, 58
1, 30722, Note_on_c, 0, 96, 67
1, 30723, Note_on_c, 0, 58, 91
1, 30746, Control_c, 0, 64, 81
1, 30760, Control_c, 0, 64, 56
1, 30775, Control_c, 0, 64, 0
1, 30780, Note_off_c, 0, 96, 63
1, 30787, Note_on_c, 0, 98, 73
1, 30862, Note_on_c, 0, 96, 68
1, 30892, Note_off_c, 0, 98, 64
1, 30894, Control_c, 0, 64, 13
1, 30903, Note_on_c, 0, 94, 77
1, 30908, Control_c, 0, 64, 29
1, 30930, Control_c, 0, 64, 40
1, 30945, Control_c, 0, 64, 50
1, 30957, Note_off_c, 0, 96, 61
1, 30959, Note_on_c, 0, 91, 77
1, 30960, Control_c, 0, 64, 59
1, 30975, Control_c, 0, 64, 64
1, 30979, Note_off_c, 0, 94, 67
1, 30990, Control_c, 0, 64, 68
1, 31005, Control_c, 0, 64, 70
1, 31007, Note_off_c, 0, 91, 60
1, 31017, Note_on_c, 0, 88, 72
1, 31020, Control_c, 0, 64, 74
1, 31034, Control_c, 0, 64, 79
1, 31049, Control_c, 0, 64, 85
1, 31059, Note_off_c, 0, 88, 67
1, 31064, Control_c, 0, 64, 91
1, 31079, Control_c, 0, 64, 96
1, 31080, Note_on_c, 0, 89, 72
1, 31094, Control_c, 0, 64, 100
1, 31108, Control_c, 0, 64, 101
1, 31123, Control_c, 0, 64, 109
1, 31138, Control_c, 0, 64, 127
1, 31146, Note_on_c, 0, 86, 76
1, 31159, Note_off_c, 0, 89, 61
1, 31205, Note_off_c, 0, 86, 60
1, 31218, Note_on_c, 0, 84, 71
1, 31252, Note_off_c, 0, 84, 63
1, 31270, Note_on_c, 0, 86, 68
1, 31277, Note_off_c, 0, 58, 61
1, 31339, Note_on_c, 0, 84, 71
1, 31360, Note_off_c, 0, 86, 59
1, 31379, Note_off_c, 0, 52, 61
1, 31390, Note_on_c, 0, 82, 74
1, 31395, Note_off_c, 0, 48, 45
1, 31444, Note_off_c, 0, 84, 60
1, 31447, Note_on_c, 0, 79, 59
1, 31465, Note_off_c, 0, 82, 63
1, 31493, Note_off_c, 0, 79, 60
1, 31495, Note_on_c, 0, 76, 72
1, 31529, Note_off_c, 0, 76, 66
1, 31564, Note_on_c, 0, 77, 68
1, 31595, Note_on_c, 0, 41, 58
1, 31643, Note_on_c, 0, 74, 65
1, 31644, Note_on_c, 0, 48, 40
1, 31648, Note_off_c, 0, 41, 54
1, 31679, Note_off_c, 0, 77, 58
1, 31719, Note_off_c, 0, 74, 59
1, 31744, Note_on_c, 0, 72, 62
1, 31747, Note_on_c, 0, 53, 57
1, 31753, Control_c, 0, 64, 74
1, 31768, Control_c, 0, 64, 53
1, 31782, Control_c, 0, 64, 0
1, 31795, Note_off_c, 0, 72, 45
1, 31806, Note_on_c, 0, 57, 50
1, 31825, Note_on_c, 0, 74, 63
1, 31856, Control_c, 0, 64, 24
1, 31871, Control_c, 0, 64, 36
1, 31886, Control_c, 0, 64, 49
1, 31890, Note_on_c, 0, 72, 61
1, 31900, Control_c, 0, 64, 62
1, 31915, Control_c, 0, 64, 77
1, 31918, Note_off_c, 0, 74, 39
1, 31930, Control_c, 0, 64, 88
1, 31934, Note_on_c, 0, 69, 64
1, 31951, Note_off_c, 0, 72, 59
1, 31960, Control_c, 0, 64, 90
1, 31975, Control_c, 0, 64, 103
1, 31976, Note_off_c, 0, 69, 61
1, 31989, Control_c, 0, 64, 127
1, 32002, Note_on_c, 0, 65, 63
1, 32032, Note_off_c, 0, 65, 68
1, 32066, Note_off_c, 0, 57, 40
1, 32082, Note_off_c, 0, 53, 57
1, 32095, Note_on_c, 0, 59, 47
1, 32098, Note_on_c, 0, 60, 46
1, 32133, Note_off_c, 0, 60, 56
1, 32135, Note_off_c, 0, 59, 58
1, 32142, Note_on_c, 0, 62, 54
1, 32179, Note_off_c, 0, 48, 41
1, 32190, Note_off_c, 0, 62, 60
1, 32193, Note_on_c, 0, 58, 62
1, 32228, Note_off_c, 0, 58, 63
1, 32248, Note_on_c, 0, 57, 67
1, 32284, Note_off_c, 0, 57, 62
1, 32287, Control_c, 0, 64, 92
1, 32302, Control_c, 0, 64, 74
1, 32317, Control_c, 0, 64, 62
1, 32327, Note_on_c, 0, 52, 67
1, 32331, Control_c, 0, 64, 43
1, 32346, Control_c, 0, 64, 0
1, 32390, Note_off_c, 0, 52, 57
1, 32403, Note_on_c, 0, 53, 51
1, 32427, Control_c, 0, 67, 9
1, 32442, Control_c, 0, 67, 10
1, 32457, Control_c, 0, 67, 13
1, 32467, Note_on_c, 0, 50, 55
1, 32472, Control_c, 0, 67, 17
1, 32481, Note_off_c, 0, 53, 51
1, 32486, Control_c, 0, 67, 22
1, 32501, Control_c, 0, 67, 29
1, 32516, Control_c, 0, 67, 36
1, 32531, Control_c, 0, 67, 44
1, 32542, Note_on_c, 0, 48, 55
1, 32543, Note_off_c, 0, 50, 58
1, 32546, Control_c, 0, 67, 52
1, 32561, Control_c, 0, 67, 60
1, 32576, Control_c, 0, 67, 71
1, 32591, Control_c, 0, 67, 84
1, 32593, Note_off_c, 0, 48, 61
1, 32605, Control_c, 0, 67, 97
1, 32619, Note_on_c, 0, 43, 50
1, 32620, Control_c, 0, 67, 107
1, 32635, Control_c, 0, 67, 117
1, 32650, Control_c, 0, 67, 127
1, 32686, Note_off_c, 0, 43, 58
1, 32695, Note_on_c, 0, 45, 50
1, 32755, Note_off_c, 0, 45, 58
1, 32796, Note_on_c, 0, 41, 38
1, 32926, Note_off_c, 0, 41, 59
1, 32965, Note_on_c, 0, 38, 37
1, 32966, Note_on_c, 0, 45, 32
1, 33002, Note_on_c, 0, 89, 46
1, 33073, Note_off_c, 0, 89, 60
1, 33074, Note_on_c, 0, 88, 49
1, 33095, Control_c, 0, 64, 14
1, 33109, Control_c, 0, 64, 25
1, 33124, Control_c, 0, 64, 34
1, 33132, Note_off_c, 0, 88, 65
1, 33139, Control_c, 0, 64, 44
1, 33141, Note_on_c, 0, 86, 49
1, 33154, Control_c, 0, 64, 54
1, 33164, Note_off_c, 0, 86, 58
1, 33176, Control_c, 0, 64, 60
1, 33191, Note_on_c, 0, 81, 69
1, 33191, Control_c, 0, 64, 62
1, 33206, Control_c, 0, 64, 63
1, 33221, Control_c, 0, 64, 63
1, 33224, Note_off_c, 0, 81, 60
1, 33226, Note_off_c, 0, 45, 43
1, 33235, Control_c, 0, 64, 65
1, 33250, Control_c, 0, 64, 67
1, 33265, Control_c, 0, 64, 67
1, 33279, Note_on_c, 0, 77, 60
1, 33337, Note_on_c, 0, 76, 61
1, 33342, Note_off_c, 0, 77, 58
1, 33392, Note_off_c, 0, 76, 65
1, 33396, Note_on_c, 0, 74, 60
1, 33399, Control_c, 0, 64, 67
1, 33422, Note_off_c, 0, 74, 67
1, 33443, Control_c, 0, 64, 66
1, 33443, Note_on_c, 0, 69, 66
1, 33458, Control_c, 0, 64, 64
1, 33473, Control_c, 0, 64, 61
1, 33479, Note_off_c, 0, 69, 59
1, 33488, Control_c, 0, 64, 51
1, 33489, Note_on_c, 0, 44, 65
1, 33502, Control_c, 0, 64, 21
1, 33512, Note_off_c, 0, 38, 49
1, 33513, Note_on_c, 0, 45, 68
1, 33517, Control_c, 0, 64, 0
1, 33519, Note_off_c, 0, 44, 65
1, 33532, Note_on_c, 0, 65, 61
1, 33539, Note_off_c, 0, 45, 66
1, 33592, Note_on_c, 0, 64, 55
1, 33601, Note_off_c, 0, 65, 60
1, 33647, Note_off_c, 0, 64, 62
1, 33655, Note_on_c, 0, 62, 56
1, 33679, Note_off_c, 0, 62, 65
1, 33715, Note_on_c, 0, 57, 56
1, 33747, Note_off_c, 0, 57, 63
1, 33786, Note_on_c, 0, 45, 61
1, 33786, Note_on_c, 0, 53, 67
1, 33816, Note_off_c, 0, 45, 65
1, 33854, Note_off_c, 0, 53, 59
1, 33858, Note_on_c, 0, 52, 62
1, 33898, Note_off_c, 0, 52, 65
1, 33908, Note_on_c, 0, 50, 56
1, 33950, Note_off_c, 0, 50, 63
1, 33980, Note_on_c, 0, 45, 63
1, 34019, Note_off_c, 0, 45, 63
1, 34054, Note_on_c, 0, 38, 69
1, 34057, Note_on_c, 0, 26, 57
1, 34057, Note_on_c, 0, 50, 59
1, 34081, Note_off_c, 0, 38, 65
1, 34092, Note_off_c, 0, 26, 46
1, 34120, Note_on_c, 0, 52, 59
1, 34133, Control_c, 0, 64, 14
1, 34136, Note_off_c, 0, 50, 61
1, 34148, Control_c, 0, 64, 21
1, 34163, Control_c, 0, 64, 27
1, 34169, Note_off_c, 0, 52, 64
1, 34175, Note_on_c, 0, 53, 59
1, 34177, Control_c, 0, 64, 33
1, 34192, Control_c, 0, 64, 38
1, 34199, Note_off_c, 0, 53, 66
1, 34207, Control_c, 0, 64, 44
1, 34222, Control_c, 0, 64, 49
1, 34237, Control_c, 0, 64, 52
1, 34251, Control_c, 0, 64, 50
1, 34259, Note_on_c, 0, 57, 66
1, 34266, Control_c, 0, 64, 45
1, 34281, Control_c, 0, 64, 33
1, 34296, Control_c, 0, 64, 0
1, 34302, Note_off_c, 0, 57, 57
1, 34341, Note_on_c, 0, 46, 72
1, 34347, Note_on_c, 0, 62, 64
1, 34419, Note_on_c, 0, 64, 62
1, 34426, Note_off_c, 0, 62, 61
1, 34490, Note_on_c, 0, 65, 60
1, 34491, Note_off_c, 0, 64, 62
1, 34511, Note_off_c, 0, 65, 68
1, 34521, Note_off_c, 0, 46, 63
1, 34550, Note_on_c, 0, 45, 64
1, 34576, Note_on_c, 0, 69, 64
1, 34609, Note_off_c, 0, 69, 61
1, 34630, Note_on_c, 0, 53, 78
1, 34644, Note_on_c, 0, 74, 69
1, 34710, Note_on_c, 0, 76, 64
1, 34719, Note_off_c, 0, 45, 52
1, 34719, Control_c, 0, 64, 27
1, 34722, Note_off_c, 0, 74, 62
1, 34734, Control_c, 0, 64, 38
1, 34749, Control_c, 0, 64, 49
1, 34760, Note_on_c, 0, 77, 68
1, 34764, Control_c, 0, 64, 57
1, 34767, Note_off_c, 0, 76, 65
1, 34779, Control_c, 0, 64, 62
1, 34785, Note_off_c, 0, 77, 67
1, 34794, Control_c, 0, 64, 64
1, 34803, Note_off_c, 0, 53, 63
1, 34808, Control_c, 0, 64, 69
1, 34823, Control_c, 0, 64, 80
1, 34838, Control_c, 0, 64, 95
1, 34842, Note_on_c, 0, 81, 70
1, 34853, Control_c, 0, 64, 98
1, 34868, Control_c, 0, 64, 93
1, 34882, Control_c, 0, 64, 74
1, 34897, Control_c, 0, 64, 60
1, 34912, Control_c, 0, 64, 26
1, 34914, Note_off_c, 0, 81, 60
1, 34922, Note_on_c, 0, 86, 69
1, 34923, Note_on_c, 0, 50, 72
1, 34926, Control_c, 0, 64, 0
1, 34980, Note_on_c, 0, 88, 72
1, 34986, Control_c, 0, 64, 13
1, 34995, Note_off_c, 0, 86, 57
1, 34999, Note_off_c, 0, 50, 58
1, 35000, Control_c, 0, 64, 31
1, 35015, Control_c, 0, 64, 40
1, 35030, Control_c, 0, 64, 50
1, 35045, Control_c, 0, 64, 60
1, 35048, Note_off_c, 0, 88, 63
1, 35059, Note_on_c, 0, 89, 71
1, 35060, Control_c, 0, 64, 64
1, 35074, Control_c, 0, 64, 67
1, 35089, Control_c, 0, 64, 68
1, 35104, Control_c, 0, 64, 70
1, 35119, Control_c, 0, 64, 75
1, 35122, Note_on_c, 0, 41, 63
1, 35133, Control_c, 0, 64, 77
1, 35139, Note_on_c, 0, 88, 69
1, 35150, Note_off_c, 0, 89, 53
1, 35163, Control_c, 0, 64, 71
1, 35178, Control_c, 0, 64, 62
1, 35185, Note_off_c, 0, 41, 64
1, 35194, Control_c, 0, 64, 35
1, 35197, Note_on_c, 0, 45, 72
1, 35199, Note_on_c, 0, 38, 72
1, 35204, Note_on_c, 0, 86, 71
1, 35204, Note_off_c, 0, 88, 64
1, 35209, Control_c, 0, 64, 0
1, 35239, Note_off_c, 0, 86, 62
1, 35269, Note_on_c, 0, 81, 67
1, 35298, Note_off_c, 0, 81, 64
1, 35344, Note_on_c, 0, 77, 70
1, 35386, Control_c, 0, 64, 9
1, 35401, Control_c, 0, 64, 22
1, 35423, Control_c, 0, 64, 31
1, 35429, Note_on_c, 0, 76, 67
1, 35438, Control_c, 0, 64, 42
1, 35452, Control_c, 0, 64, 54
1, 35458, Note_off_c, 0, 77, 52
1, 35467, Control_c, 0, 64, 61
1, 35482, Control_c, 0, 64, 62
1, 35486, Note_off_c, 0, 76, 63
1, 35488, Note_on_c, 0, 74, 68
1, 35494, Note_off_c, 0, 45, 58
1, 35497, Control_c, 0, 64, 62
1, 35512, Control_c, 0, 64, 60
1, 35515, Note_off_c, 0, 74, 68
1, 35527, Control_c, 0, 64, 56
1, 35542, Control_c, 0, 64, 47
1, 35542, Note_on_c, 0, 69, 69
1, 35556, Control_c, 0, 64, 35
1, 35571, Control_c, 0, 64, 27
1, 35578, Note_off_c, 0, 69, 61
1, 35586, Control_c, 0, 64, 27
1, 35616, Control_c, 0, 64, 26
1, 35625, Note_on_c, 0, 65, 66
1, 35630, Control_c, 0, 64, 26
1, 35675, Control_c, 0, 64, 26
1, 35690, Control_c, 0, 64, 27
1, 35695, Note_on_c, 0, 64, 63
1, 35710, Note_off_c, 0, 65, 57
1, 35734, Control_c, 0, 64, 26
1, 35744, Note_on_c, 0, 44, 65
1, 35748, Control_c, 0, 64, 23
1, 35753, Note_on_c, 0, 62, 66
1, 35753, Note_off_c, 0, 64, 62
1, 35763, Control_c, 0, 64, 0
1, 35773, Note_off_c, 0, 38, 59
1, 35788, Note_on_c, 0, 45, 77
1, 35788, Note_off_c, 0, 62, 65
1, 35795, Note_off_c, 0, 44, 64
1, 35818, Note_off_c, 0, 45, 68
1, 35820, Note_on_c, 0, 57, 67
1, 35850, Note_off_c, 0, 57, 65
1, 35898, Note_on_c, 0, 53, 71
1, 35962, Note_on_c, 0, 52, 66
1, 35974, Note_off_c, 0, 53, 60
1, 36022, Note_off_c, 0, 52, 65
1, 36033, Note_on_c, 0, 50, 63
1, 36049, Note_on_c, 0, 45, 62
1, 36067, Note_off_c, 0, 50, 64
1, 36079, Note_off_c, 0, 45, 65
1, 36115, Note_on_c, 0, 45, 58
1, 36156, Note_off_c, 0, 45, 62
1, 36200, Note_on_c, 0, 50, 57
1, 36245, Note_off_c, 0, 50, 63
1, 36262, Note_on_c, 0, 53, 52
1, 36336, Note_on_c, 0, 37, 67
1, 36339, Note_on_c, 0, 52, 61
1, 36344, Note_off_c, 0, 53, 59
1, 36347, Note_on_c, 0, 25, 46
1, 36365, Control_c, 0, 64, 13
1, 36367, Note_off_c, 0, 37, 64
1, 36379, Control_c, 0, 64, 28
1, 36380, Note_off_c, 0, 25, 43
1, 36394, Control_c, 0, 64, 36
1, 36396, Note_off_c, 0, 52, 64
1, 36409, Control_c, 0, 64, 44
1, 36421, Note_on_c, 0, 45, 61
1, 36424, Control_c, 0, 64, 53
1, 36439, Control_c, 0, 64, 58
1, 36453, Control_c, 0, 64, 60
1, 36468, Control_c, 0, 64, 61
1, 36469, Note_off_c, 0, 45, 62
1, 36498, Control_c, 0, 64, 61
1, 36511, Note_on_c, 0, 52, 71
1, 36513, Control_c, 0, 64, 63
1, 36527, Control_c, 0, 64, 65
1, 36542, Control_c, 0, 64, 66
1, 36576, Note_on_c, 0, 53, 59
1, 36582, Note_off_c, 0, 52, 58
1, 36601, Control_c, 0, 64, 65
1, 36616, Control_c, 0, 64, 63
1, 36630, Note_on_c, 0, 55, 65
1, 36631, Control_c, 0, 64, 55
1, 36636, Note_off_c, 0, 53, 63
1, 36638, Note_on_c, 0, 46, 72
1, 36645, Control_c, 0, 64, 37
1, 36658, Note_off_c, 0, 55, 68
1, 36660, Control_c, 0, 64, 0
1, 36708, Note_on_c, 0, 57, 70
1, 36764, Control_c, 0, 67, 124
1, 36766, Note_off_c, 0, 57, 58
1, 36779, Control_c, 0, 67, 110
1, 36794, Note_on_c, 0, 64, 61
1, 36794, Control_c, 0, 67, 95
1, 36809, Note_off_c, 0, 46, 61
1, 36809, Control_c, 0, 67, 77
1, 36822, Note_on_c, 0, 45, 59
1, 36824, Control_c, 0, 67, 58
1, 36840, Control_c, 0, 67, 42
1, 36845, Note_on_c, 0, 65, 63
1, 36855, Control_c, 0, 67, 33
1, 36869, Control_c, 0, 67, 30
1, 36874, Note_off_c, 0, 64, 59
1, 36907, Note_on_c, 0, 67, 65
1, 36919, Note_off_c, 0, 65, 65
1, 36922, Note_on_c, 0, 52, 87
1, 36922, Control_c, 0, 67, 28
1, 36937, Control_c, 0, 67, 26
1, 36943, Note_off_c, 0, 67, 66
1, 36951, Control_c, 0, 67, 22
1, 36966, Control_c, 0, 64, 17
1, 36966, Control_c, 0, 67, 19
1, 36981, Control_c, 0, 64, 35
1, 36981, Control_c, 0, 67, 17
1, 36991, Note_on_c, 0, 69, 72
1, 36995, Control_c, 0, 64, 49
1, 36995, Control_c, 0, 67, 15
1, 36997, Note_off_c, 0, 52, 66
1, 36997, Note_off_c, 0, 45, 63
1, 37010, Control_c, 0, 64, 62
1, 37010, Control_c, 0, 67, 14
1, 37025, Control_c, 0, 64, 66
1, 37025, Control_c, 0, 67, 12
1, 37040, Control_c, 0, 64, 67
1, 37052, Note_off_c, 0, 69, 59
1, 37055, Control_c, 0, 64, 68
1, 37055, Control_c, 0, 67, 12
1, 37069, Control_c, 0, 64, 72
1, 37069, Control_c, 0, 67, 11
1, 37071, Note_on_c, 0, 76, 73
1, 37084, Control_c, 0, 64, 80
1, 37084, Control_c, 0, 67, 11
1, 37099, Control_c, 0, 64, 90
1, 37099, Control_c, 0, 67, 10
1, 37114, Control_c, 0, 64, 98
1, 37114, Control_c, 0, 67, 10
1, 37120, Note_on_c, 0, 77, 71
1, 37128, Control_c, 0, 64, 103
1, 37143, Control_c, 0, 64, 117
1, 37155, Note_off_c, 0, 76, 65
1, 37158, Control_c, 0, 64, 127
1, 37183, Note_on_c, 0, 58, 93
1, 37188, Control_c, 0, 67, 11
1, 37190, Note_on_c, 0, 79, 67
1, 37191, Note_off_c, 0, 77, 61
1, 37202, Control_c, 0, 67, 12
1, 37216, Note_off_c, 0, 79, 65
1, 37217, Control_c, 0, 67, 13
1, 37225, Note_off_c, 0, 58, 63
1, 37232, Control_c, 0, 67, 14
1, 37247, Control_c, 0, 67, 15
1, 37274, Note_on_c, 0, 81, 72
1, 37277, Control_c, 0, 67, 15
1, 37307, Control_c, 0, 67, 16
1, 37321, Control_c, 0, 67, 16
1, 37336, Note_off_c, 0, 81, 60
1, 37352, Note_on_c, 0, 88, 82
1, 37431, Note_on_c, 0, 89, 73
1, 37442, Note_off_c, 0, 88, 64
1, 37446, Note_on_c, 0, 37, 54
1, 37493, Note_off_c, 0, 37, 64
1, 37513, Note_on_c, 0, 45, 66
1, 37548, Note_off_c, 0, 45, 63
1, 37563, Note_off_c, 0, 89, 63
1, 37588, Control_c, 0, 64, 88
1, 37604, Note_on_c, 0, 57, 73
1, 37604, Control_c, 0, 64, 61
1, 37615, Note_on_c, 0, 91, 68
1, 37618, Control_c, 0, 64, 31
1, 37633, Control_c, 0, 64, 0
1, 37633, Control_c, 0, 67, 16
1, 37648, Control_c, 0, 67, 15
1, 37697, Note_on_c, 0, 89, 69
1, 37700, Control_c, 0, 64, 18
1, 37715, Control_c, 0, 64, 36
1, 37715, Control_c, 0, 67, 16
1, 37721, Note_off_c, 0, 91, 49
1, 37730, Control_c, 0, 64, 50
1, 37744, Control_c, 0, 64, 64
1, 37744, Control_c, 0, 67, 17
1, 37759, Control_c, 0, 64, 81
1, 37759, Control_c, 0, 67, 17
1, 37762, Note_on_c, 0, 88, 69
1, 37766, Note_off_c, 0, 89, 63
1, 37774, Control_c, 0, 64, 94
1, 37788, Note_off_c, 0, 57, 58
1, 37789, Control_c, 0, 64, 95
1, 37791, Note_off_c, 0, 88, 65
1, 37804, Control_c, 0, 64, 106
1, 37813, Note_on_c, 0, 81, 73
1, 37818, Control_c, 0, 64, 127
1, 37833, Control_c, 0, 67, 18
1, 37854, Note_off_c, 0, 81, 58
1, 37858, Note_on_c, 0, 45, 15
1, 37863, Control_c, 0, 67, 19
1, 37887, Note_on_c, 0, 79, 74
1, 37903, Note_off_c, 0, 45, 52
1, 37951, Control_c, 0, 67, 18
1, 37953, Note_on_c, 0, 77, 75
1, 37966, Control_c, 0, 67, 18
1, 37986, Note_off_c, 0, 79, 57
1, 37996, Control_c, 0, 67, 17
1, 38013, Note_on_c, 0, 76, 72
1, 38028, Note_off_c, 0, 77, 62
1, 38058, Note_off_c, 0, 76, 63
1, 38071, Note_on_c, 0, 44, 66
1, 38079, Note_on_c, 0, 69, 70
1, 38114, Control_c, 0, 67, 17
1, 38115, Note_off_c, 0, 69, 61
1, 38121, Note_off_c, 0, 44, 61
1, 38123, Note_on_c, 0, 45, 87
1, 38129, Control_c, 0, 64, 75
1, 38129, Control_c, 0, 67, 16
1, 38144, Control_c, 0, 64, 56
1, 38144, Control_c, 0, 67, 16
1, 38154, Note_off_c, 0, 45, 67
1, 38159, Control_c, 0, 64, 0
1, 38159, Control_c, 0, 67, 15
1, 38165, Note_on_c, 0, 67, 64
1, 38174, Control_c, 0, 67, 14
1, 38204, Control_c, 0, 67, 13
1, 38224, Note_on_c, 0, 65, 68
1, 38233, Control_c, 0, 67, 13
1, 38243, Note_off_c, 0, 67, 53
1, 38289, Note_on_c, 0, 64, 64
1, 38290, Note_off_c, 0, 65, 64
1, 38292, Control_c, 0, 67, 12
1, 38322, Note_off_c, 0, 64, 64
1, 38350, Note_on_c, 0, 57, 67
1, 38381, Note_off_c, 0, 57, 65
1, 38408, Note_on_c, 0, 45, 64
1, 38428, Note_on_c, 0, 55, 70
1, 38442, Note_off_c, 0, 45, 66
1, 38492, Note_on_c, 0, 53, 63
1, 38531, Note_off_c, 0, 55, 61
1, 38538, Control_c, 0, 67, 13
1, 38544, Note_on_c, 0, 52, 67
1, 38553, Control_c, 0, 67, 13
1, 38556, Note_off_c, 0, 53, 63
1, 38567, Control_c, 0, 67, 14
1, 38588, Note_off_c, 0, 52, 60
1, 38620, Note_on_c, 0, 45, 61
1, 38656, Control_c, 0, 67, 14
1, 38670, Note_off_c, 0, 45, 60
1, 38682, Note_on_c, 0, 37, 69
1, 38691, Note_on_c, 0, 25, 48
1, 38700, Note_on_c, 0, 52, 71
1, 38701, Control_c, 0, 64, 25
1, 38716, Control_c, 0, 64, 39
1, 38718, Note_off_c, 0, 37, 64
1, 38721, Note_off_c, 0, 25, 45
1, 38730, Control_c, 0, 64, 54
1, 38730, Control_c, 0, 67, 14
1, 38745, Control_c, 0, 64, 63
1, 38758, Note_on_c, 0, 53, 61
1, 38760, Control_c, 0, 64, 69
1, 38774, Control_c, 0, 64, 72
1, 38774, Control_c, 0, 67, 13
1, 38785, Note_off_c, 0, 52, 64
1, 38789, Control_c, 0, 64, 75
1, 38804, Control_c, 0, 64, 77
1, 38804, Control_c, 0, 67, 13
1, 38817, Note_on_c, 0, 55, 60
1, 38819, Control_c, 0, 64, 81
1, 38820, Note_off_c, 0, 53, 63
1, 38834, Control_c, 0, 64, 87
1, 38839, Note_off_c, 0, 55, 64
1, 38848, Control_c, 0, 64, 95
1, 38863, Control_c, 0, 64, 105
1, 38863, Control_c, 0, 67, 12
1, 38878, Control_c, 0, 64, 109
1, 38888, Note_on_c, 0, 57, 72
1, 38907, Control_c, 0, 64, 108
1, 38907, Control_c, 0, 67, 12
1, 38922, Control_c, 0, 64, 90
1, 38922, Control_c, 0, 67, 11
1, 38937, Control_c, 0, 64, 71
1, 38940, Note_off_c, 0, 57, 53
1, 38952, Control_c, 0, 64, 56
1, 38952, Control_c, 0, 67, 11
1, 38967, Control_c, 0, 64, 19
1, 38976, Note_on_c, 0, 64, 67
1, 38981, Note_on_c, 0, 46, 81
1, 38982, Control_c, 0, 64, 0
1, 38982, Control_c, 0, 67, 10
1, 39012, Control_c, 0, 67, 10
1, 39044, Note_on_c, 0, 65, 60
1, 39073, Note_off_c, 0, 64, 57
1, 39111, Note_off_c, 0, 65, 65
1, 39112, Note_on_c, 0, 67, 61
1, 39115, Control_c, 0, 67, 9
1, 39140, Note_off_c, 0, 67, 65
1, 39145, Control_c, 0, 67, 9
1, 39153, Note_off_c, 0, 46, 64
1, 39182, Control_c, 0, 67, 8
1, 39183, Note_on_c, 0, 45, 59
1, 39197, Control_c, 0, 67, 0
1, 39205, Note_on_c, 0, 69, 68
1, 39244, Note_off_c, 0, 69, 59
1, 39278, Note_on_c, 0, 55, 88
1, 39286, Note_on_c, 0, 76, 69
1, 39301, Control_c, 0, 64, 16
1, 39316, Control_c, 0, 64, 30
1, 39331, Control_c, 0, 64, 45
1, 39346, Control_c, 0, 64, 59
1, 39348, Note_on_c, 0, 77, 66
1, 39350, Note_off_c, 0, 55, 62
1, 39360, Control_c, 0, 64, 67
1, 39366, Note_off_c, 0, 76, 64
1, 39375, Control_c, 0, 64, 70
1, 39385, Note_off_c, 0, 45, 62
1, 39390, Control_c, 0, 64, 70
1, 39399, Note_off_c, 0, 77, 63
1, 39405, Control_c, 0, 64, 74
1, 39406, Note_on_c, 0, 79, 58
1, 39420, Control_c, 0, 64, 83
1, 39429, Note_off_c, 0, 79, 60
1, 39435, Control_c, 0, 64, 96
1, 39450, Control_c, 0, 64, 127
1, 39475, Note_on_c, 0, 81, 73
1, 39538, Control_c, 0, 64, 70
1, 39553, Note_off_c, 0, 81, 50
1, 39553, Control_c, 0, 64, 53
1, 39558, Note_on_c, 0, 88, 76
1, 39561, Note_on_c, 0, 52, 93
1, 39568, Control_c, 0, 64, 41
1, 39583, Control_c, 0, 64, 48
1, 39597, Control_c, 0, 64, 61
1, 39612, Control_c, 0, 64, 66
1, 39619, Note_on_c, 0, 89, 74
1, 39626, Note_off_c, 0, 52, 60
1, 39627, Control_c, 0, 64, 70
1, 39642, Control_c, 0, 64, 76
1, 39648, Note_off_c, 0, 88, 62
1, 39657, Control_c, 0, 64, 88
1, 39671, Control_c, 0, 64, 105
1, 39685, Note_off_c, 0, 89, 65
1, 39686, Control_c, 0, 64, 127
1, 39696, Note_on_c, 0, 91, 71
1, 39747, Note_on_c, 0, 40, 65
1, 39772, Note_on_c, 0, 89, 74
1, 39792, Note_off_c, 0, 91, 53
1, 39834, Control_c, 0, 64, 82
1, 39843, Note_on_c, 0, 37, 78
1, 39846, Note_on_c, 0, 45, 81
1, 39848, Note_on_c, 0, 88, 73
1, 39849, Control_c, 0, 64, 59
1, 39849, Note_off_c, 0, 40, 59
1, 39858, Note_off_c, 0, 89, 63
1, 39863, Control_c, 0, 64, 20
1, 39878, Control_c, 0, 64, 0
1, 39892, Note_off_c, 0, 88, 63
1, 39921, Note_on_c, 0, 81, 74
1, 39964, Note_off_c, 0, 81, 63
1, 40004, Note_on_c, 0, 79, 72
1, 40064, Control_c, 0, 64, 28
1, 40076, Note_on_c, 0, 77, 75
1, 40079, Control_c, 0, 64, 39
1, 40094, Control_c, 0, 64, 50
1, 40097, Note_off_c, 0, 45, 62
1, 40107, Note_off_c, 0, 79, 59
1, 40109, Control_c, 0, 64, 58
1, 40124, Control_c, 0, 64, 63
1, 40138, Control_c, 0, 64, 66
1, 40138, Note_on_c, 0, 76, 75
1, 40153, Note_off_c, 0, 77, 61
1, 40153, Control_c, 0, 64, 68
1, 40168, Control_c, 0, 64, 71
1, 40183, Control_c, 0, 64, 74
1, 40184, Note_off_c, 0, 76, 62
1, 40198, Control_c, 0, 64, 80
1, 40204, Note_on_c, 0, 69, 70
1, 40212, Control_c, 0, 64, 86
1, 40227, Control_c, 0, 64, 90
1, 40238, Note_off_c, 0, 69, 63
1, 40242, Control_c, 0, 64, 91
1, 40272, Control_c, 0, 64, 91
1, 40279, Note_on_c, 0, 67, 78
1, 40286, Control_c, 0, 64, 99
1, 40301, Control_c, 0, 64, 127
1, 40343, Note_on_c, 0, 65, 73
1, 40345, Control_c, 0, 64, 114
1, 40351, Note_on_c, 0, 44, 68
1, 40360, Control_c, 0, 64, 76
1, 40375, Control_c, 0, 64, 60
1, 40387, Note_off_c, 0, 67, 56
1, 40390, Control_c, 0, 64, 35
1, 40402, Note_on_c, 0, 64, 71
1, 40404, Note_off_c, 0, 44, 63
1, 40405, Note_on_c, 0, 45, 74
1, 40405, Control_c, 0, 64, 0
1, 40410, Note_off_c, 0, 65, 65
1, 40439, Note_off_c, 0, 64, 62
1, 40442, Note_off_c, 0, 45, 67
1, 40477, Note_on_c, 0, 57, 64
1, 40503, Note_off_c, 0, 57, 65
1, 40554, Note_off_c, 0, 37, 34
1, 40569, Note_on_c, 0, 57, 53
1, 40575, Note_on_c, 0, 55, 46
1, 40618, Note_on_c, 0, 53, 56
1, 40631, Note_off_c, 0, 57, 41
1, 40651, Note_off_c, 0, 55, 63
1, 40672, Note_on_c, 0, 45, 60
1, 40679, Note_on_c, 0, 52, 66
1, 40696, Note_off_c, 0, 45, 59
1, 40697, Note_off_c, 0, 53, 40
1, 40723, Note_off_c, 0, 52, 60
1, 40772, Note_on_c, 0, 45, 55
1, 40816, Note_off_c, 0, 45, 61
1, 40835, Note_on_c, 0, 52, 66
1, 40893, Note_off_c, 0, 52, 64
1, 40912, Note_on_c, 0, 55, 52
1, 40970, Note_on_c, 0, 36, 51
1, 40991, Note_on_c, 0, 54, 60
1, 41014, Note_off_c, 0, 55, 59
1, 41021, Control_c, 0, 64, 18
1, 41036, Control_c, 0, 64, 26
1, 41051, Note_off_c, 0, 54, 64
1, 41051, Control_c, 0, 64, 34
1, 41065, Control_c, 0, 64, 43
1, 41077, Note_on_c, 0, 45, 52
1, 41080, Control_c, 0, 64, 54
1, 41095, Control_c, 0, 64, 61
1, 41110, Control_c, 0, 64, 65
1, 41125, Control_c, 0, 64, 70
1, 41130, Note_off_c, 0, 45, 60
1, 41134, Note_on_c, 0, 51, 64
1, 41140, Control_c, 0, 64, 79
1, 41155, Control_c, 0, 64, 99
1, 41169, Control_c, 0, 64, 127
1, 41193, Note_on_c, 0, 52, 71
1, 41197, Note_off_c, 0, 51, 59
1, 41199, Control_c, 0, 64, 105
1, 41214, Control_c, 0, 64, 79
1, 41229, Control_c, 0, 64, 65
1, 41243, Control_c, 0, 64, 57
1, 41255, Note_on_c, 0, 47, 76
1, 41257, Note_on_c, 0, 54, 69
1, 41258, Control_c, 0, 64, 53
1, 41265, Note_off_c, 0, 52, 65
1, 41267, Note_on_c, 0, 45, 75
1, 41273, Control_c, 0, 64, 56
1, 41287, Note_off_c, 0, 54, 65
1, 41287, Control_c, 0, 64, 61
1, 41302, Control_c, 0, 64, 64
1, 41304, Note_off_c, 0, 45, 0
1, 41317, Control_c, 0, 64, 66
1, 41332, Control_c, 0, 64, 70
1, 41334, Note_on_c, 0, 57, 70
1, 41341, Poly_aftertouch_c, 0, 45, 127
1, 41345, Note_on_c, 0, 45, 3
1, 41347, Control_c, 0, 64, 75
1, 41361, Control_c, 0, 64, 81
1, 41373, Note_off_c, 0, 57, 51
1, 41376, Control_c, 0, 64, 94
1, 41383, Note_off_c, 0, 36, 56
1, 41385, Note_off_c, 0, 45, 50
1, 41391, Control_c, 0, 64, 127
1, 41417, Note_on_c, 0, 63, 73
1, 41458, Control_c, 0, 64, 122
1, 41459, Note_off_c, 0, 47, 64
1, 41466, Note_on_c, 0, 64, 68
1, 41473, Note_on_c, 0, 45, 67
1, 41473, Control_c, 0, 64, 65
1, 41474, Note_off_c, 0, 63, 62
1, 41488, Control_c, 0, 64, 38
1, 41502, Control_c, 0, 64, 0
1, 41542, Note_on_c, 0, 66, 67
1, 41546, Note_on_c, 0, 48, 92
1, 41547, Note_off_c, 0, 64, 61
1, 41547, Control_c, 0, 64, 28
1, 41562, Control_c, 0, 64, 46
1, 41570, Note_off_c, 0, 66, 65
1, 41576, Note_off_c, 0, 45, 65
1, 41576, Control_c, 0, 64, 62
1, 41584, Note_off_c, 0, 48, 65
1, 41591, Control_c, 0, 64, 80
1, 41607, Control_c, 0, 64, 96
1, 41612, Note_on_c, 0, 67, 61
1, 41633, Note_off_c, 0, 67, 62
1, 41637, Control_c, 0, 64, 98
1, 41652, Control_c, 0, 64, 114
1, 41666, Control_c, 0, 64, 127
1, 41701, Note_on_c, 0, 74, 63
1, 41707, Note_on_c, 0, 75, 48
1, 41727, Note_off_c, 0, 74, 67
1, 41775, Note_on_c, 0, 76, 35
1, 41805, Note_on_c, 0, 78, 67
1, 41808, Note_off_c, 0, 75, 37
1, 41817, Note_off_c, 0, 76, 53
1, 41825, Note_on_c, 0, 60, 104
1, 41829, Note_off_c, 0, 78, 64
1, 41855, Note_off_c, 0, 60, 69
1, 41870, Note_on_c, 0, 81, 86
1, 41924, Note_off_c, 0, 81, 58
1, 41945, Note_on_c, 0, 87, 87
1, 42016, Note_on_c, 0, 88, 76
1, 42019, Note_off_c, 0, 87, 61
1, 42081, Control_c, 0, 64, 55
1, 42091, Note_on_c, 0, 90, 90
1, 42096, Control_c, 0, 64, 0
1, 42098, Note_on_c, 0, 59, 101
1, 42105, Note_on_c, 0, 47, 77
1, 42105, Note_off_c, 0, 88, 64
1, 42129, Note_off_c, 0, 47, 68
1, 42142, Note_off_c, 0, 59, 68
1, 42162, Control_c, 0, 64, 27
1, 42177, Control_c, 0, 64, 50
1, 42183, Note_on_c, 0, 88, 73
1, 42192, Control_c, 0, 64, 65
1, 42207, Control_c, 0, 64, 93
1, 42222, Control_c, 0, 64, 110
1, 42239, Note_off_c, 0, 90, 66
1, 42250, Note_off_c, 0, 88, 66
1, 42251, Note_on_c, 0, 87, 82
1, 42252, Control_c, 0, 64, 111
1, 42266, Control_c, 0, 64, 127
1, 42311, Note_off_c, 0, 87, 62
1, 42314, Note_on_c, 0, 96, 80
1, 42386, Note_off_c, 0, 96, 55
1, 42387, Note_on_c, 0, 66, 65
1, 42400, Note_on_c, 0, 90, 76
1, 42401, Control_c, 0, 64, 68
1, 42415, Control_c, 0, 64, 40
1, 42430, Control_c, 0, 64, 0
1, 42449, Note_on_c, 0, 68, 64
1, 42461, Note_on_c, 0, 88, 70
1, 42489, Control_c, 0, 64, 25
1, 42502, Note_off_c, 0, 66, 58
1, 42504, Control_c, 0, 64, 42
1, 42505, Note_on_c, 0, 69, 63
1, 42517, Note_off_c, 0, 68, 60
1, 42519, Control_c, 0, 64, 58
1, 42528, Note_on_c, 0, 70, 38
1, 42528, Note_on_c, 0, 87, 73
1, 42531, Note_off_c, 0, 88, 62
1, 42533, Control_c, 0, 64, 77
1, 42535, Note_off_c, 0, 90, 65
1, 42548, Control_c, 0, 64, 127
1, 42568, Note_on_c, 0, 78, 74
1, 42573, Note_off_c, 0, 69, 57
1, 42575, Note_on_c, 0, 81, 62
1, 42575, Note_off_c, 0, 87, 61
1, 42592, Note_off_c, 0, 78, 71
1, 42601, Note_off_c, 0, 70, 34
1, 42635, Note_off_c, 0, 81, 62
1, 42641, Note_on_c, 0, 89, 76
1, 42650, Note_on_c, 0, 65, 63
1, 42652, Control_c, 0, 64, 108
1, 42667, Control_c, 0, 64, 61
1, 42681, Control_c, 0, 64, 24
1, 42696, Control_c, 0, 64, 0
1, 42709, Note_on_c, 0, 66, 64
1, 42717, Note_on_c, 0, 87, 66
1, 42731, Note_off_c, 0, 65, 61
1, 42741, Control_c, 0, 64, 25
1, 42756, Control_c, 0, 64, 39
1, 42760, Note_off_c, 0, 89, 63
1, 42771, Control_c, 0, 64, 51
1, 42775, Note_on_c, 0, 86, 71
1, 42785, Control_c, 0, 64, 62
1, 42786, Note_off_c, 0, 66, 63
1, 42788, Note_on_c, 0, 68, 67
1, 42797, Note_off_c, 0, 87, 61
1, 42800, Control_c, 0, 64, 75
1, 42815, Control_c, 0, 64, 90
1, 42826, Note_off_c, 0, 68, 59
1, 42830, Control_c, 0, 64, 95
1, 42834, Note_off_c, 0, 86, 61
1, 42840, Note_on_c, 0, 95, 81
1, 42844, Note_on_c, 0, 59, 57
1, 42845, Control_c, 0, 64, 108
1, 42859, Control_c, 0, 64, 127
1, 42866, Note_off_c, 0, 59, 60
1, 42903, Note_off_c, 0, 95, 60
1, 42917, Note_on_c, 0, 89, 67
1, 42960, Note_on_c, 0, 65, 57
1, 42979, Note_on_c, 0, 87, 74
1, 42997, Note_on_c, 0, 66, 65
1, 43030, Note_off_c, 0, 65, 64
1, 43034, Note_on_c, 0, 68, 65
1, 43034, Note_off_c, 0, 89, 64
1, 43040, Note_on_c, 0, 86, 69
1, 43054, Note_off_c, 0, 66, 62
1, 43078, Note_off_c, 0, 68, 56
1, 43079, Note_off_c, 0, 87, 59
1, 43084, Note_on_c, 0, 77, 67
1, 43104, Note_off_c, 0, 77, 65
1, 43124, Note_on_c, 0, 80, 71
1, 43124, Note_off_c, 0, 86, 58
1, 43178, Control_c, 0, 64, 70
1, 43194, Note_off_c, 0, 80, 62
1, 43194, Control_c, 0, 64, 44
1, 43202, Note_on_c, 0, 58, 73
1, 43203, Note_on_c, 0, 89, 61
1, 43209, Control_c, 0, 64, 0
1, 43277, Note_on_c, 0, 87, 62
1, 43298, Control_c, 0, 64, 28
1, 43312, Control_c, 0, 64, 44
1, 43327, Control_c, 0, 64, 58
1, 43332, Note_on_c, 0, 86, 63
1, 43342, Control_c, 0, 64, 70
1, 43350, Note_off_c, 0, 58, 59
1, 43356, Control_c, 0, 64, 89
1, 43371, Control_c, 0, 64, 104
1, 43384, Note_off_c, 0, 89, 34
1, 43386, Control_c, 0, 64, 127
1, 43389, Note_off_c, 0, 87, 64
1, 43391, Note_on_c, 0, 94, 76
1, 43401, Note_off_c, 0, 86, 59
1, 43444, Note_on_c, 0, 70, 104
1, 43450, Note_on_c, 0, 58, 93
1, 43464, Note_on_c, 0, 89, 79
1, 43479, Note_off_c, 0, 70, 66
1, 43486, Note_off_c, 0, 94, 64
1, 43505, Note_off_c, 0, 58, 63
1, 43527, Note_on_c, 0, 87, 72
1, 43577, Note_off_c, 0, 89, 62
1, 43587, Note_on_c, 0, 86, 70
1, 43615, Note_off_c, 0, 87, 64
1, 43624, Note_off_c, 0, 86, 62
1, 43632, Note_on_c, 0, 65, 84
1, 43641, Note_on_c, 0, 80, 75
1, 43647, Note_on_c, 0, 53, 70
1, 43659, Note_off_c, 0, 65, 74
1, 43671, Note_off_c, 0, 80, 69
1, 43673, Note_off_c, 0, 53, 66
1, 43727, Note_on_c, 0, 58, 94
1, 43731, Note_on_c, 0, 79, 83
1, 43743, Note_on_c, 0, 46, 85
1, 43761, Note_off_c, 0, 58, 59
1, 43766, Note_off_c, 0, 46, 69
1, 43814, Note_off_c, 0, 79, 55
1, 43830, Note_on_c, 0, 77, 47
1, 43832, Note_on_c, 0, 76, 45
1, 43839, Note_on_c, 0, 75, 73
1, 43862, Note_off_c, 0, 76, 0
1, 43862, Note_on_c, 0, 76, 33
1, 43864, Note_off_c, 0, 75, 66
1, 43867, Note_off_c, 0, 77, 56
1, 43889, Note_off_c, 0, 76, 65
1, 43954, Note_on_c, 0, 68, 23
1, 43979, Poly_aftertouch_c, 0, 70, 127
1, 43987, Note_on_c, 0, 53, 100
1, 43993, Note_on_c, 0, 41, 78
1, 43996, Note_off_c, 0, 68, 51
1, 43998, Note_on_c, 0, 65, 75
1, 43999, Note_on_c, 0, 67, 78
1, 44005, Note_off_c, 0, 53, 75
1, 44007, Poly_aftertouch_c, 0, 70, 0
1, 44029, Note_off_c, 0, 41, 64
1, 44055, Note_off_c, 0, 67, 61
1, 44061, Note_off_c, 0, 65, 62
1, 44063, Note_on_c, 0, 64, 69
1, 44086, Note_on_c, 0, 63, 73
1, 44112, Note_off_c, 0, 64, 64
1, 44148, Note_on_c, 0, 62, 49
1, 44148, Note_off_c, 0, 63, 64
1, 44180, Note_on_c, 0, 56, 87
1, 44193, Control_c, 0, 64, 68
1, 44206, Note_off_c, 0, 56, 67
1, 44208, Control_c, 0, 64, 22
1, 44210, Note_off_c, 0, 62, 62
1, 44223, Control_c, 0, 64, 0
1, 44253, Control_c, 0, 64, 18
1, 44258, Note_on_c, 0, 46, 107
1, 44261, Note_on_c, 0, 34, 82
1, 44267, Control_c, 0, 64, 48
1, 44282, Control_c, 0, 64, 67
1, 44283, Note_off_c, 0, 34, 69
1, 44297, Control_c, 0, 64, 127
1, 44298, Note_off_c, 0, 46, 67
1, 44571, Note_on_c, 0, 89, 87
1, 44571, Control_c, 0, 64, 61
1, 44575, Note_on_c, 0, 65, 76
1, 44586, Control_c, 0, 64, 19
1, 44601, Control_c, 0, 64, 0
1, 44631, Control_c, 0, 64, 20
1, 44635, Note_on_c, 0, 87, 79
1, 44639, Note_on_c, 0, 67, 70
1, 44646, Control_c, 0, 64, 36
1, 44660, Control_c, 0, 64, 51
1, 44675, Note_on_c, 0, 68, 67
1, 44675, Control_c, 0, 64, 65
1, 44681, Note_off_c, 0, 65, 54
1, 44690, Control_c, 0, 64, 95
1, 44699, Note_on_c, 0, 86, 79
1, 44702, Note_off_c, 0, 89, 62
1, 44704, Control_c, 0, 64, 127
1, 44712, Note_off_c, 0, 67, 61
1, 44729, Note_off_c, 0, 87, 64
1, 44745, Note_on_c, 0, 77, 72
1, 44750, Note_off_c, 0, 68, 59
1, 44753, Note_off_c, 0, 86, 61
1, 44759, Note_on_c, 0, 80, 81
1, 44774, Note_off_c, 0, 77, 64
1, 44795, Control_c, 0, 64, 113
1, 44804, Note_off_c, 0, 80, 59
1, 44809, Control_c, 0, 64, 63
1, 44824, Note_on_c, 0, 88, 83
1, 44824, Control_c, 0, 64, 27
1, 44839, Control_c, 0, 64, 0
1, 44839, Note_on_c, 0, 62, 56
1, 44839, Note_on_c, 0, 64, 54
1, 44895, Note_on_c, 0, 86, 72
1, 44904, Note_off_c, 0, 62, 52
1, 44911, Note_on_c, 0, 65, 53
1, 44913, Control_c, 0, 64, 27
1, 44927, Control_c, 0, 64, 39
1, 44935, Note_off_c, 0, 65, 62
1, 44940, Note_off_c, 0, 64, 61
1, 44942, Control_c, 0, 64, 55
1, 44946, Note_off_c, 0, 88, 64
1, 44950, Note_on_c, 0, 85, 78
1, 44956, Note_on_c, 0, 67, 49
1, 44957, Note_off_c, 0, 86, 61
1, 44957, Control_c, 0, 64, 67
1, 44972, Control_c, 0, 64, 92
1, 44987, Control_c, 0, 64, 127
1, 44992, Note_off_c, 0, 67, 62
1, 45003, Note_off_c, 0, 85, 63
1, 45006, Note_on_c, 0, 94, 83
1, 45050, Note_off_c, 0, 94, 66
1, 45061, Control_c, 0, 64, 95
1, 45069, Note_on_c, 0, 88, 69
1, 45073, Note_on_c, 0, 64, 64
1, 45076, Control_c, 0, 64, 64
1, 45090, Control_c, 0, 64, 50
1, 45095, Note_on_c, 0, 93, 27
1, 45105, Control_c, 0, 64, 47
1, 45120, Control_c, 0, 64, 55
1, 45134, Control_c, 0, 64, 64
1, 45138, Note_off_c, 0, 93, 44
1, 45143, Note_on_c, 0, 86, 80
1, 45148, Note_on_c, 0, 65, 53
1, 45149, Control_c, 0, 64, 71
1, 45172, Control_c, 0, 64, 79
1, 45175, Note_on_c, 0, 67, 71
1, 45187, Control_c, 0, 64, 92
1, 45191, Note_off_c, 0, 65, 66
1, 45197, Note_off_c, 0, 64, 58
1, 45202, Control_c, 0, 64, 127
1, 45218, Note_on_c, 0, 85, 76
1, 45236, Note_off_c, 0, 88, 54
1, 45245, Note_on_c, 0, 76, 66
1, 45245, Note_off_c, 0, 86, 58
1, 45261, Note_off_c, 0, 76, 68
1, 45280, Note_on_c, 0, 79, 71
1, 45288, Note_off_c, 0, 67, 62
1, 45289, Note_off_c, 0, 85, 62
1, 45320, Control_c, 0, 64, 78
1, 45334, Control_c, 0, 64, 51
1, 45349, Control_c, 0, 64, 0
1, 45355, Note_on_c, 0, 88, 78
1, 45358, Note_on_c, 0, 57, 75
1, 45360, Note_off_c, 0, 79, 49
1, 45436, Note_on_c, 0, 86, 68
1, 45438, Control_c, 0, 64, 25
1, 45453, Control_c, 0, 64, 39
1, 45468, Control_c, 0, 64, 53
1, 45483, Control_c, 0, 64, 67
1, 45489, Note_off_c, 0, 88, 63
1, 45492, Note_on_c, 0, 85, 78
1, 45498, Control_c, 0, 64, 89
1, 45513, Control_c, 0, 64, 105
1, 45515, Note_off_c, 0, 86, 60
1, 45516, Note_off_c, 0, 57, 60
1, 45527, Control_c, 0, 64, 106
1, 45540, Note_off_c, 0, 85, 65
1, 45542, Control_c, 0, 64, 114
1, 45547, Note_on_c, 0, 93, 86
1, 45557, Control_c, 0, 64, 127
1, 45609, Note_on_c, 0, 69, 94
1, 45610, Note_on_c, 0, 57, 86
1, 45610, Note_on_c, 0, 88, 80
1, 45637, Note_off_c, 0, 93, 58
1, 45638, Note_off_c, 0, 69, 62
1, 45659, Note_off_c, 0, 57, 63
1, 45680, Note_on_c, 0, 86, 71
1, 45740, Note_on_c, 0, 85, 79
1, 45747, Note_off_c, 0, 88, 64
1, 45751, Note_off_c, 0, 86, 58
1, 45791, Note_off_c, 0, 85, 63
1, 45793, Note_on_c, 0, 64, 82
1, 45797, Note_on_c, 0, 79, 74
1, 45810, Note_on_c, 0, 52, 71
1, 45814, Note_off_c, 0, 64, 71
1, 45829, Note_off_c, 0, 52, 65
1, 45841, Note_off_c, 0, 79, 59
1, 45883, Note_on_c, 0, 76, 79
1, 45888, Note_on_c, 0, 77, 77
1, 45889, Note_on_c, 0, 57, 88
1, 45890, Note_on_c, 0, 45, 85
1, 45915, Note_off_c, 0, 57, 69
1, 45922, Note_off_c, 0, 45, 69
1, 45957, Note_on_c, 0, 74, 73
1, 45963, Note_off_c, 0, 77, 57
1, 46008, Note_off_c, 0, 76, 64
1, 46013, Note_on_c, 0, 73, 76
1, 46042, Note_off_c, 0, 74, 62
1, 46070, Note_on_c, 0, 67, 83
1, 46082, Note_off_c, 0, 73, 62
1, 46116, Note_off_c, 0, 67, 64
1, 46155, Note_on_c, 0, 64, 85
1, 46157, Note_on_c, 0, 52, 100
1, 46160, Note_on_c, 0, 65, 82
1, 46162, Note_on_c, 0, 40, 81
1, 46178, Note_off_c, 0, 52, 71
1, 46192, Note_off_c, 0, 40, 65
1, 46227, Note_on_c, 0, 62, 78
1, 46231, Note_off_c, 0, 65, 62
1, 46275, Poly_aftertouch_c, 0, 42, 0
1, 46291, Note_on_c, 0, 61, 80
1, 46292, Note_off_c, 0, 64, 60
1, 46318, Note_off_c, 0, 62, 62
1, 46363, Note_on_c, 0, 55, 82
1, 46371, Note_off_c, 0, 61, 67
1, 46380, Control_c, 0, 64, 119
1, 46395, Control_c, 0, 64, 59
1, 46406, Note_off_c, 0, 55, 65
1, 46410, Control_c, 0, 64, 0
1, 46452, Note_on_c, 0, 45, 113
1, 46455, Note_on_c, 0, 33, 86
1, 46469, Control_c, 0, 64, 39
1, 46476, Note_off_c, 0, 33, 68
1, 46484, Control_c, 0, 64, 57
1, 46498, Control_c, 0, 64, 78
1, 46500, Note_off_c, 0, 45, 67
1, 46513, Control_c, 0, 64, 127
1, 46832, Control_c, 0, 64, 77
1, 46847, Control_c, 0, 64, 41
1, 46857, Note_on_c, 0, 64, 80
1, 46860, Note_on_c, 0, 88, 94
1, 46861, Control_c, 0, 64, 0
1, 46935, Control_c, 0, 64, 12
1, 46950, Control_c, 0, 64, 35
1, 46953, Note_on_c, 0, 66, 73
1, 46965, Note_on_c, 0, 86, 78
1, 46965, Control_c, 0, 64, 49
1, 46980, Control_c, 0, 64, 62
1, 46995, Control_c, 0, 64, 74
1, 47009, Control_c, 0, 64, 82
1, 47022, Note_on_c, 0, 67, 75
1, 47022, Note_off_c, 0, 64, 57
1, 47038, Note_on_c, 0, 85, 79
1, 47039, Control_c, 0, 64, 85
1, 47054, Control_c, 0, 64, 99
1, 47055, Note_off_c, 0, 88, 50
1, 47065, Note_off_c, 0, 86, 61
1, 47069, Control_c, 0, 64, 127
1, 47095, Note_off_c, 0, 66, 57
1, 47101, Note_on_c, 0, 79, 83
1, 47113, Note_off_c, 0, 85, 64
1, 47123, Note_on_c, 0, 76, 60
1, 47127, Note_on_c, 0, 77, 59
1, 47127, Note_off_c, 0, 67, 57
1, 47150, Note_off_c, 0, 77, 61
1, 47158, Control_c, 0, 64, 76
1, 47158, Note_off_c, 0, 76, 63
1, 47173, Control_c, 0, 64, 51
1, 47175, Note_on_c, 0, 86, 91
1, 47188, Control_c, 0, 64, 0
1, 47189, Note_off_c, 0, 79, 35
1, 47204, Note_on_c, 0, 62, 74
1, 47248, Control_c, 0, 64, 20
1, 47257, Note_on_c, 0, 85, 79
1, 47263, Control_c, 0, 64, 37
1, 47277, Control_c, 0, 64, 52
1, 47281, Note_on_c, 0, 64, 70
1, 47292, Control_c, 0, 64, 65
1, 47295, Note_off_c, 0, 86, 59
1, 47307, Control_c, 0, 64, 92
1, 47322, Control_c, 0, 64, 127
1, 47327, Note_on_c, 0, 83, 75
1, 47332, Note_off_c, 0, 62, 63
1, 47334, Note_on_c, 0, 66, 77
1, 47349, Note_off_c, 0, 85, 62
1, 47358, Note_off_c, 0, 64, 63
1, 47381, Note_off_c, 0, 83, 63
1, 47393, Note_on_c, 0, 78, 84
1, 47395, Note_on_c, 0, 74, 61
1, 47404, Note_off_c, 0, 66, 62
1, 47422, Note_off_c, 0, 74, 66
1, 47448, Control_c, 0, 64, 82
1, 47463, Note_on_c, 0, 85, 88
1, 47463, Control_c, 0, 64, 55
1, 47464, Note_off_c, 0, 78, 65
1, 47471, Note_on_c, 0, 61, 74
1, 47477, Control_c, 0, 64, 20
1, 47492, Control_c, 0, 64, 11
1, 47507, Control_c, 0, 64, 27
1, 47522, Control_c, 0, 64, 40
1, 47537, Control_c, 0, 64, 52
1, 47543, Note_on_c, 0, 62, 59
1, 47544, Note_on_c, 0, 83, 65
1, 47552, Control_c, 0, 64, 63
1, 47567, Control_c, 0, 64, 75
1, 47576, Note_on_c, 0, 64, 70
1, 47582, Control_c, 0, 64, 91
1, 47592, Note_off_c, 0, 61, 59
1, 47594, Note_on_c, 0, 81, 77
1, 47597, Control_c, 0, 64, 99
1, 47611, Control_c, 0, 64, 127
1, 47614, Note_off_c, 0, 62, 62
1, 47619, Note_off_c, 0, 85, 52
1, 47624, Note_off_c, 0, 83, 67
1, 47638, Note_on_c, 0, 73, 67
1, 47649, Note_on_c, 0, 76, 79
1, 47650, Note_off_c, 0, 64, 62
1, 47657, Note_off_c, 0, 81, 63
1, 47659, Note_off_c, 0, 73, 68
1, 47700, Control_c, 0, 64, 70
1, 47710, Note_off_c, 0, 76, 62
1, 47715, Control_c, 0, 64, 43
1, 47717, Note_on_c, 0, 83, 88
1, 47719, Note_on_c, 0, 59, 62
1, 47729, Control_c, 0, 64, 10
1, 47744, Control_c, 0, 64, 23
1, 47759, Control_c, 0, 64, 35
1, 47774, Control_c, 0, 64, 46
1, 47781, Note_on_c, 0, 61, 73
1, 47789, Control_c, 0, 64, 58
1, 47791, Note_on_c, 0, 81, 81
1, 47803, Control_c, 0, 64, 69
1, 47812, Note_off_c, 0, 59, 51
1, 47818, Control_c, 0, 64, 80
1, 47833, Control_c, 0, 64, 92
1, 47844, Note_on_c, 0, 62, 74
1, 47848, Control_c, 0, 64, 127
1, 47851, Note_on_c, 0, 79, 74
1, 47867, Note_off_c, 0, 61, 67
1, 47869, Note_off_c, 0, 83, 62
1, 47877, Note_off_c, 0, 81, 62
1, 47904, Note_on_c, 0, 71, 66
1, 47907, Note_on_c, 0, 74, 76
1, 47910, Note_off_c, 0, 79, 65
1, 47922, Control_c, 0, 64, 85
1, 47923, Note_off_c, 0, 62, 62
1, 47936, Control_c, 0, 64, 58
1, 47939, Note_off_c, 0, 71, 64
1, 47951, Control_c, 0, 64, 27
1, 47954, Note_off_c, 0, 74, 53
1, 47966, Control_c, 0, 64, 0
1, 47974, Note_on_c, 0, 81, 86
1, 47982, Note_on_c, 0, 57, 68
1, 47982, Control_c, 0, 64, 22
1, 47997, Control_c, 0, 64, 35
1, 48012, Control_c, 0, 64, 45
1, 48026, Control_c, 0, 64, 56
1, 48041, Control_c, 0, 64, 64
1, 48043, Note_on_c, 0, 79, 72
1, 48053, Note_on_c, 0, 59, 63
1, 48056, Control_c, 0, 64, 73
1, 48071, Control_c, 0, 64, 83
1, 48086, Control_c, 0, 64, 117
1, 48097, Note_on_c, 0, 61, 72
1, 48097, Note_off_c, 0, 57, 62
1, 48100, Control_c, 0, 64, 127
1, 48106, Note_off_c, 0, 81, 61
1, 48111, Note_on_c, 0, 78, 72
1, 48122, Note_off_c, 0, 79, 60
1, 48124, Note_off_c, 0, 59, 62
1, 48163, Note_on_c, 0, 73, 69
1, 48168, Note_off_c, 0, 78, 67
1, 48171, Note_on_c, 0, 69, 63
1, 48172, Note_off_c, 0, 61, 65
1, 48182, Control_c, 0, 64, 63
1, 48187, Note_off_c, 0, 73, 69
1, 48194, Note_off_c, 0, 69, 60
1, 48197, Control_c, 0, 64, 18
1, 48212, Control_c, 0, 64, 0
1, 48229, Note_on_c, 0, 79, 89
1, 48244, Note_on_c, 0, 55, 66
1, 48256, Control_c, 0, 64, 10
1, 48271, Control_c, 0, 64, 30
1, 48285, Control_c, 0, 64, 43
1, 48294, Note_on_c, 0, 57, 59
1, 48298, Note_on_c, 0, 78, 74
1, 48300, Control_c, 0, 64, 55
1, 48315, Control_c, 0, 64, 64
1, 48330, Control_c, 0, 64, 74
1, 48342, Note_off_c, 0, 55, 64
1, 48345, Control_c, 0, 64, 83
1, 48351, Note_on_c, 0, 59, 64
1, 48356, Note_off_c, 0, 79, 59
1, 48360, Note_on_c, 0, 76, 76
1, 48360, Control_c, 0, 64, 92
1, 48366, Note_off_c, 0, 57, 62
1, 48375, Control_c, 0, 64, 127
1, 48393, Note_off_c, 0, 78, 65
1, 48401, Note_on_c, 0, 67, 64
1, 48412, Note_off_c, 0, 59, 61
1, 48423, Note_off_c, 0, 76, 65
1, 48425, Note_off_c, 0, 67, 56
1, 48427, Note_on_c, 0, 71, 69
1, 48449, Control_c, 0, 64, 77
1, 48464, Control_c, 0, 64, 54
1, 48476, Note_on_c, 0, 54, 76
1, 48478, Control_c, 0, 64, 0
1, 48488, Note_off_c, 0, 71, 56
1, 48491, Note_on_c, 0, 78, 86
1, 48523, Control_c, 0, 64, 31
1, 48538, Control_c, 0, 64, 43
1, 48547, Note_on_c, 0, 55, 62
1, 48552, Control_c, 0, 64, 55
1, 48557, Note_on_c, 0, 76, 71
1, 48567, Control_c, 0, 64, 65
1, 48568, Note_on_c, 0, 56, 72
1, 48582, Note_off_c, 0, 54, 63
1, 48582, Control_c, 0, 64, 73
1, 48597, Control_c, 0, 64, 80
1, 48612, Control_c, 0, 64, 91
1, 48613, Note_on_c, 0, 74, 75
1, 48616, Note_off_c, 0, 55, 65
1, 48626, Control_c, 0, 64, 127
1, 48639, Note_off_c, 0, 78, 64
1, 48640, Note_on_c, 0, 66, 67
1, 48641, Note_off_c, 0, 76, 66
1, 48647, Note_off_c, 0, 56, 66
1, 48668, Note_off_c, 0, 66, 68
1, 48672, Note_on_c, 0, 69, 76
1, 48679, Note_off_c, 0, 74, 65
1, 48715, Control_c, 0, 64, 69
1, 48717, Note_off_c, 0, 69, 53
1, 48730, Control_c, 0, 64, 46
1, 48738, Note_on_c, 0, 52, 71
1, 48745, Control_c, 0, 64, 0
1, 48746, Note_on_c, 0, 76, 86
1, 48805, Control_c, 0, 64, 18
1, 48809, Note_on_c, 0, 54, 74
1, 48820, Control_c, 0, 64, 33
1, 48830, Note_on_c, 0, 74, 70
1, 48835, Control_c, 0, 64, 44
1, 48849, Control_c, 0, 64, 58
1, 48864, Control_c, 0, 64, 68
1, 48866, Note_off_c, 0, 52, 49
1, 48879, Control_c, 0, 64, 80
1, 48894, Control_c, 0, 64, 86
1, 48896, Note_off_c, 0, 76, 59
1, 48905, Note_on_c, 0, 73, 68
1, 48916, Control_c, 0, 64, 88
1, 48930, Note_off_c, 0, 74, 63
1, 48931, Control_c, 0, 64, 95
1, 48936, Note_off_c, 0, 54, 59
1, 48946, Control_c, 0, 64, 110
1, 48961, Note_on_c, 0, 64, 65
1, 48961, Control_c, 0, 64, 127
1, 48965, Note_on_c, 0, 67, 69
1, 48971, Note_off_c, 0, 73, 64
1, 49012, Note_off_c, 0, 67, 52
1, 49042, Note_off_c, 0, 64, 51
1, 49062, Note_on_c, 0, 53, 59
1, 49064, Control_c, 0, 64, 71
1, 49069, Note_on_c, 0, 74, 54
1, 49079, Control_c, 0, 64, 52
1, 49094, Control_c, 0, 64, 0
1, 49138, Control_c, 0, 64, 10
1, 49153, Control_c, 0, 64, 29
1, 49161, Note_on_c, 0, 73, 56
1, 49162, Note_on_c, 0, 54, 58
1, 49168, Control_c, 0, 64, 40
1, 49182, Control_c, 0, 64, 51
1, 49195, Note_off_c, 0, 74, 59
1, 49197, Control_c, 0, 64, 61
1, 49211, Note_off_c, 0, 53, 36
1, 49212, Control_c, 0, 64, 70
1, 49217, Note_on_c, 0, 56, 56
1, 49218, Note_on_c, 0, 71, 54
1, 49221, Note_off_c, 0, 54, 56
1, 49227, Control_c, 0, 64, 81
1, 49242, Control_c, 0, 64, 101
1, 49244, Note_off_c, 0, 73, 61
1, 49257, Control_c, 0, 64, 127
1, 49267, Note_off_c, 0, 56, 59
1, 49284, Note_on_c, 0, 68, 52
1, 49285, Note_on_c, 0, 62, 53
1, 49287, Note_off_c, 0, 71, 59
1, 49301, Control_c, 0, 64, 104
1, 49313, Note_off_c, 0, 68, 60
1, 49316, Control_c, 0, 64, 68
1, 49331, Control_c, 0, 64, 46
1, 49340, Note_on_c, 0, 74, 53
1, 49343, Note_off_c, 0, 62, 52
1, 49346, Control_c, 0, 64, 0
1, 49355, Note_on_c, 0, 54, 54
1, 49375, Control_c, 0, 64, 9
1, 49390, Control_c, 0, 64, 25
1, 49405, Control_c, 0, 64, 36
1, 49416, Note_on_c, 0, 56, 55
1, 49419, Note_on_c, 0, 73, 65
1, 49419, Control_c, 0, 64, 47
1, 49434, Control_c, 0, 64, 57
1, 49449, Control_c, 0, 64, 65
1, 49464, Control_c, 0, 64, 75
1, 49475, Note_on_c, 0, 57, 58
1, 49475, Note_off_c, 0, 74, 57
1, 49479, Control_c, 0, 64, 88
1, 49481, Note_off_c, 0, 54, 60
1, 49484, Note_on_c, 0, 71, 56
1, 49493, Control_c, 0, 64, 127
1, 49498, Note_off_c, 0, 56, 63
1, 49510, Note_off_c, 0, 73, 63
1, 49513, Note_off_c, 0, 57, 62
1, 49528, Note_on_c, 0, 66, 71
1, 49535, Note_on_c, 0, 62, 61
1, 49550, Note_off_c, 0, 71, 62
1, 49568, Control_c, 0, 64, 77
1, 49584, Control_c, 0, 64, 55
1, 49586, Note_off_c, 0, 66, 62
1, 49596, Note_on_c, 0, 74, 69
1, 49598, Control_c, 0, 64, 10
1, 49612, Note_on_c, 0, 56, 64
1, 49613, Control_c, 0, 64, 0
1, 49615, Note_off_c, 0, 62, 55
1, 49643, Control_c, 0, 64, 18
1, 49665, Control_c, 0, 64, 32
1, 49666, Note_on_c, 0, 73, 74
1, 49680, Control_c, 0, 64, 44
1, 49694, Note_on_c, 0, 57, 64
1, 49695, Control_c, 0, 64, 56
1, 49710, Control_c, 0, 64, 66
1, 49725, Control_c, 0, 64, 79
1, 49734, Note_on_c, 0, 71, 70
1, 49739, Note_off_c, 0, 56, 65
1, 49739, Control_c, 0, 64, 88
1, 49742, Note_on_c, 0, 59, 63
1, 49750, Note_off_c, 0, 74, 62
1, 49754, Control_c, 0, 64, 98
1, 49758, Note_off_c, 0, 57, 62
1, 49769, Control_c, 0, 64, 127
1, 49771, Note_off_c, 0, 73, 63
1, 49792, Note_on_c, 0, 65, 69
1, 49796, Note_off_c, 0, 71, 64
1, 49801, Note_off_c, 0, 59, 60
1, 49804, Note_on_c, 0, 62, 67
1, 49843, Control_c, 0, 64, 84
1, 49853, Note_off_c, 0, 65, 56
1, 49857, Control_c, 0, 64, 59
1, 49870, Note_on_c, 0, 73, 85
1, 49872, Control_c, 0, 64, 24
1, 49874, Note_on_c, 0, 57, 65
1, 49887, Control_c, 0, 64, 0
1, 49891, Note_off_c, 0, 62, 51
1, 49946, Note_on_c, 0, 59, 62
1, 49946, Control_c, 0, 64, 26
1, 49958, Note_on_c, 0, 71, 68
1, 49961, Note_on_c, 0, 70, 15
1, 49961, Control_c, 0, 64, 39
1, 49976, Control_c, 0, 64, 52
1, 49981, Note_off_c, 0, 57, 62
1, 49991, Control_c, 0, 64, 65
1, 50005, Control_c, 0, 64, 86
1, 50007, Note_off_c, 0, 70, 31
1, 50008, Note_on_c, 0, 60, 67
1, 50012, Note_off_c, 0, 59, 61
1, 50014, Note_on_c, 0, 69, 69
1, 50020, Control_c, 0, 64, 96
1, 50035, Control_c, 0, 64, 96
1, 50044, Note_off_c, 0, 71, 60
1, 50045, Note_off_c, 0, 73, 59
1, 50050, Control_c, 0, 64, 105
1, 50063, Note_off_c, 0, 60, 64
1, 50065, Control_c, 0, 64, 127
1, 50080, Note_on_c, 0, 61, 66
1, 50082, Note_on_c, 0, 66, 72
1, 50097, Note_off_c, 0, 69, 59
1, 50145, Note_off_c, 0, 66, 62
1, 50169, Control_c, 0, 64, 78
1, 50170, Note_on_c, 0, 51, 62
1, 50171, Note_on_c, 0, 72, 68
1, 50172, Note_off_c, 0, 61, 54
1, 50184, Control_c, 0, 64, 55
1, 50198, Control_c, 0, 64, 0
1, 50252, Note_on_c, 0, 71, 67
1, 50257, Control_c, 0, 64, 16
1, 50272, Control_c, 0, 64, 30
1, 50287, Control_c, 0, 64, 42
1, 50289, Note_off_c, 0, 51, 53
1, 50293, Note_off_c, 0, 72, 58
1, 50297, Note_on_c, 0, 54, 72
1, 50302, Control_c, 0, 64, 54
1, 50313, Note_on_c, 0, 69, 59
1, 50316, Control_c, 0, 64, 65
1, 50331, Control_c, 0, 64, 79
1, 50338, Note_off_c, 0, 71, 62
1, 50346, Control_c, 0, 64, 97
1, 50361, Control_c, 0, 64, 127
1, 50364, Note_on_c, 0, 66, 67
1, 50368, Note_off_c, 0, 69, 60
1, 50372, Note_off_c, 0, 54, 61
1, 50373, Note_on_c, 0, 60, 62
1, 50390, Note_off_c, 0, 66, 67
1, 50429, Note_on_c, 0, 72, 76
1, 50429, Control_c, 0, 64, 82
1, 50443, Control_c, 0, 64, 59
1, 50446, Note_on_c, 0, 52, 75
1, 50455, Note_off_c, 0, 60, 60
1, 50458, Control_c, 0, 64, 34
1, 50473, Control_c, 0, 64, 20
1, 50488, Control_c, 0, 64, 33
1, 50495, Note_on_c, 0, 71, 64
1, 50503, Control_c, 0, 64, 41
1, 50509, Note_on_c, 0, 54, 66
1, 50518, Control_c, 0, 64, 52
1, 50533, Control_c, 0, 64, 61
1, 50548, Note_off_c, 0, 52, 60
1, 50548, Control_c, 0, 64, 68
1, 50562, Control_c, 0, 64, 77
1, 50566, Note_on_c, 0, 69, 72
1, 50577, Control_c, 0, 64, 98
1, 50579, Note_off_c, 0, 72, 58
1, 50582, Note_on_c, 0, 55, 63
1, 50590, Note_off_c, 0, 54, 64
1, 50592, Control_c, 0, 64, 127
1, 50602, Note_off_c, 0, 71, 65
1, 50618, Note_off_c, 0, 55, 63
1, 50624, Note_on_c, 0, 64, 64
1, 50643, Note_off_c, 0, 69, 60
1, 50653, Note_on_c, 0, 60, 34
1, 50666, Control_c, 0, 64, 71
1, 50680, Control_c, 0, 64, 44
1, 50684, Note_on_c, 0, 59, 26
1, 50685, Note_on_c, 0, 72, 82
1, 50695, Control_c, 0, 64, 0
1, 50700, Note_off_c, 0, 60, 47
1, 50700, Note_off_c, 0, 64, 55
1, 50712, Note_on_c, 0, 54, 69
1, 50721, Note_off_c, 0, 59, 39
1, 50754, Control_c, 0, 64, 24
1, 50759, Note_on_c, 0, 71, 71
1, 50769, Control_c, 0, 64, 40
1, 50781, Note_on_c, 0, 55, 56
1, 50784, Control_c, 0, 64, 52
1, 50799, Control_c, 0, 64, 64
1, 50814, Control_c, 0, 64, 77
1, 50822, Note_on_c, 0, 69, 66
1, 50827, Note_on_c, 0, 57, 66
1, 50828, Note_off_c, 0, 72, 56
1, 50828, Control_c, 0, 64, 91
1, 50830, Note_off_c, 0, 54, 63
1, 50843, Control_c, 0, 64, 98
1, 50850, Note_off_c, 0, 55, 65
1, 50858, Note_off_c, 0, 71, 63
1, 50858, Control_c, 0, 64, 127
1, 50876, Note_on_c, 0, 63, 78
1, 50883, Note_off_c, 0, 69, 63
1, 50888, Note_off_c, 0, 57, 61
1, 50899, Note_on_c, 0, 60, 62
1, 50926, Note_off_c, 0, 63, 66
1, 50932, Control_c, 0, 64, 81
1, 50947, Control_c, 0, 64, 56
1, 50953, Note_off_c, 0, 60, 45
1, 50958, Note_on_c, 0, 71, 75
1, 50962, Control_c, 0, 64, 0
1, 50970, Note_on_c, 0, 55, 69
1, 51029, Note_on_c, 0, 57, 49
1, 51032, Note_on_c, 0, 69, 66
1, 51036, Control_c, 0, 64, 8
1, 51051, Control_c, 0, 64, 28
1, 51060, Note_off_c, 0, 55, 63
1, 51065, Control_c, 0, 64, 39
1, 51070, Note_on_c, 0, 58, 64
1, 51070, Note_off_c, 0, 57, 63
1, 51080, Control_c, 0, 64, 52
1, 51092, Note_off_c, 0, 71, 61
1, 51095, Control_c, 0, 64, 64
1, 51099, Note_on_c, 0, 67, 59
1, 51110, Control_c, 0, 64, 74
1, 51115, Note_off_c, 0, 69, 61
1, 51124, Note_off_c, 0, 58, 61
1, 51125, Control_c, 0, 64, 79
1, 51147, Control_c, 0, 64, 81
1, 51162, Control_c, 0, 64, 93
1, 51164, Note_on_c, 0, 59, 50
1, 51166, Note_on_c, 0, 64, 65
1, 51169, Note_off_c, 0, 67, 60
1, 51177, Control_c, 0, 64, 127
1, 51202, Note_off_c, 0, 59, 51
1, 51222, Control_c, 0, 64, 115
1, 51233, Note_off_c, 0, 64, 57
1, 51237, Control_c, 0, 64, 70
1, 51238, Note_on_c, 0, 49, 62
1, 51251, Control_c, 0, 64, 49
1, 51252, Note_on_c, 0, 70, 69
1, 51266, Control_c, 0, 64, 0
1, 51311, Note_on_c, 0, 50, 48
1, 51340, Note_on_c, 0, 69, 57
1, 51341, Control_c, 0, 64, 27
1, 51346, Note_off_c, 0, 49, 62
1, 51356, Control_c, 0, 64, 39
1, 51361, Note_on_c, 0, 52, 62
1, 51370, Note_off_c, 0, 50, 59
1, 51370, Control_c, 0, 64, 51
1, 51385, Control_c, 0, 64, 62
1, 51394, Note_on_c, 0, 67, 63
1, 51397, Note_off_c, 0, 70, 54
1, 51400, Control_c, 0, 64, 71
1, 51400, Note_off_c, 0, 52, 63
1, 51412, Note_off_c, 0, 69, 61
1, 51415, Control_c, 0, 64, 79
1, 51429, Note_on_c, 0, 58, 56
1, 51430, Control_c, 0, 64, 87
1, 51444, Control_c, 0, 64, 113
1, 51448, Note_off_c, 0, 67, 60
1, 51457, Note_on_c, 0, 64, 57
1, 51459, Control_c, 0, 64, 127
1, 51478, Note_off_c, 0, 58, 58
1, 51489, Control_c, 0, 64, 114
1, 51503, Control_c, 0, 64, 73
1, 51506, Note_on_c, 0, 50, 58
1, 51517, Note_on_c, 0, 70, 67
1, 51517, Note_off_c, 0, 64, 52
1, 51518, Control_c, 0, 64, 55
1, 51533, Control_c, 0, 64, 0
1, 51572, Note_on_c, 0, 52, 58
1, 51599, Note_on_c, 0, 69, 59
1, 51600, Note_off_c, 0, 50, 61
1, 51621, Note_on_c, 0, 53, 58
1, 51621, Control_c, 0, 64, 9
1, 51632, Note_off_c, 0, 52, 61
1, 51636, Control_c, 0, 64, 28
1, 51645, Note_off_c, 0, 70, 59
1, 51651, Control_c, 0, 64, 39
1, 51663, Note_on_c, 0, 67, 53
1, 51666, Note_off_c, 0, 53, 65
1, 51666, Control_c, 0, 64, 51
1, 51669, Note_off_c, 0, 69, 62
1, 51681, Control_c, 0, 64, 62
1, 51695, Control_c, 0, 64, 71
1, 51702, Note_on_c, 0, 62, 60
1, 51703, Note_on_c, 0, 58, 53
1, 51710, Control_c, 0, 64, 79
1, 51713, Note_off_c, 0, 67, 59
1, 51725, Control_c, 0, 64, 85
1, 51737, Note_off_c, 0, 58, 63
1, 51740, Control_c, 0, 64, 87
1, 51755, Control_c, 0, 64, 86
1, 51767, Note_off_c, 0, 62, 55
1, 51767, Note_on_c, 0, 70, 68
1, 51770, Control_c, 0, 64, 74
1, 51773, Note_on_c, 0, 52, 58
1, 51785, Control_c, 0, 64, 60
1, 51800, Control_c, 0, 64, 32
1, 51815, Control_c, 0, 64, 0
1, 51844, Note_on_c, 0, 69, 64
1, 51853, Note_on_c, 0, 53, 45
1, 51860, Note_off_c, 0, 52, 64
1, 51880, Note_off_c, 0, 70, 62
1, 51889, Control_c, 0, 64, 22
1, 51907, Note_off_c, 0, 53, 51
1, 51910, Control_c, 0, 64, 35
1, 51913, Note_on_c, 0, 55, 54
1, 51925, Control_c, 0, 64, 47
1, 51931, Note_on_c, 0, 67, 64
1, 51931, Note_off_c, 0, 69, 61
1, 51940, Control_c, 0, 64, 59
1, 51955, Control_c, 0, 64, 66
1, 51971, Control_c, 0, 64, 71
1, 51986, Control_c, 0, 64, 72
1, 51987, Note_on_c, 0, 58, 48
1, 51992, Note_off_c, 0, 55, 57
1, 51998, Note_on_c, 0, 61, 73
1, 52000, Control_c, 0, 64, 74
1, 52008, Note_off_c, 0, 67, 57
1, 52015, Control_c, 0, 64, 86
1, 52030, Control_c, 0, 64, 108
1, 52032, Note_off_c, 0, 58, 61
1, 52044, Control_c, 0, 64, 127
1, 52047, Note_off_c, 0, 61, 62
1, 52074, Control_c, 0, 64, 89
1, 52089, Control_c, 0, 64, 67
1, 52104, Control_c, 0, 64, 51
1, 52118, Note_on_c, 0, 57, 38
1, 52119, Control_c, 0, 64, 0
1, 52130, Note_on_c, 0, 62, 68
1, 52192, Note_off_c, 0, 62, 61
1, 52195, Note_off_c, 0, 57, 57
1, 52199, Note_on_c, 0, 64, 64
1, 52208, Control_c, 0, 64, 22
1, 52210, Note_on_c, 0, 55, 43
1, 52223, Control_c, 0, 64, 31
1, 52238, Control_c, 0, 64, 40
1, 52241, Note_off_c, 0, 55, 66
1, 52252, Control_c, 0, 64, 50
1, 52264, Note_off_c, 0, 64, 61
1, 52267, Note_on_c, 0, 53, 48
1, 52267, Control_c, 0, 64, 61
1, 52274, Note_on_c, 0, 65, 59
1, 52282, Control_c, 0, 64, 71
1, 52294, Note_off_c, 0, 65, 64
1, 52295, Note_off_c, 0, 53, 57
1, 52297, Control_c, 0, 64, 83
1, 52312, Note_on_c, 0, 74, 56
1, 52326, Control_c, 0, 64, 77
1, 52330, Note_on_c, 0, 45, 51
1, 52335, Note_off_c, 0, 74, 63
1, 52341, Control_c, 0, 64, 65
1, 52356, Control_c, 0, 64, 49
1, 52363, Note_off_c, 0, 45, 64
1, 52371, Control_c, 0, 64, 0
1, 52391, Note_on_c, 0, 61, 79
1, 52397, Note_on_c, 0, 55, 61
1, 52448, Note_off_c, 0, 61, 65
1, 52449, Note_off_c, 0, 55, 53
1, 52456, Note_on_c, 0, 62, 68
1, 52466, Note_on_c, 0, 53, 62
1, 52474, Control_c, 0, 64, 20
1, 52489, Control_c, 0, 64, 30
1, 52504, Control_c, 0, 64, 37
1, 52508, Note_off_c, 0, 62, 63
1, 52513, Note_on_c, 0, 64, 60
1, 52518, Control_c, 0, 64, 46
1, 52526, Note_off_c, 0, 53, 61
1, 52530, Note_on_c, 0, 52, 64
1, 52533, Control_c, 0, 64, 56
1, 52548, Control_c, 0, 64, 64
1, 52561, Note_off_c, 0, 64, 57
1, 52563, Control_c, 0, 64, 69
1, 52577, Note_on_c, 0, 68, 52
1, 52578, Control_c, 0, 64, 65
1, 52581, Note_on_c, 0, 45, 65
1, 52581, Note_off_c, 0, 52, 58
1, 52582, Note_on_c, 0, 73, 70
1, 52593, Control_c, 0, 64, 59
1, 52605, Note_off_c, 0, 68, 56
1, 52608, Control_c, 0, 64, 45
1, 52622, Control_c, 0, 64, 17
1, 52623, Note_off_c, 0, 45, 65
1, 52637, Control_c, 0, 64, 0
1, 52652, Note_off_c, 0, 73, 63
1, 52660, Note_on_c, 0, 57, 72
1, 52664, Note_on_c, 0, 62, 80
1, 52721, Note_off_c, 0, 57, 58
1, 52726, Note_on_c, 0, 64, 77
1, 52728, Note_off_c, 0, 62, 59
1, 52737, Note_on_c, 0, 55, 68
1, 52786, Note_on_c, 0, 53, 60
1, 52792, Note_off_c, 0, 55, 63
1, 52804, Note_on_c, 0, 65, 64
1, 52810, Note_off_c, 0, 64, 61
1, 52821, Note_off_c, 0, 53, 66
1, 52831, Note_off_c, 0, 65, 66
1, 52842, Note_on_c, 0, 74, 64
1, 52848, Note_on_c, 0, 45, 62
1, 52899, Note_off_c, 0, 74, 52
1, 52913, Note_on_c, 0, 65, 75
1, 52916, Note_on_c, 0, 53, 68
1, 52935, Note_off_c, 0, 45, 56
1, 52959, Note_off_c, 0, 53, 61
1, 52973, Note_off_c, 0, 65, 52
1, 52978, Note_on_c, 0, 52, 58
1, 52992, Note_on_c, 0, 67, 71
1, 53055, Note_off_c, 0, 52, 61
1, 53060, Note_off_c, 0, 67, 62
1, 53061, Note_on_c, 0, 68, 60
1, 53082, Note_on_c, 0, 50, 30
1, 53082, Note_off_c, 0, 68, 60
1, 53105, Control_c, 0, 64, 22
1, 53120, Control_c, 0, 64, 36
1, 53122, Note_off_c, 0, 50, 40
1, 53126, Note_on_c, 0, 77, 66
1, 53132, Note_on_c, 0, 45, 48
1, 53135, Control_c, 0, 64, 47
1, 53149, Control_c, 0, 64, 57
1, 53164, Control_c, 0, 64, 64
1, 53172, Note_off_c, 0, 77, 48
1, 53179, Control_c, 0, 64, 67
1, 53193, Control_c, 0, 64, 67
1, 53238, Control_c, 0, 64, 65
1, 53242, Note_on_c, 0, 69, 58
1, 53251, Note_on_c, 0, 49, 44
1, 53253, Control_c, 0, 64, 55
1, 53267, Control_c, 0, 64, 28
1, 53282, Control_c, 0, 64, 0
1, 53285, Note_on_c, 0, 52, 32
1, 53312, Control_c, 0, 64, 12
1, 53327, Control_c, 0, 64, 33
1, 53340, Note_off_c, 0, 52, 58
1, 53340, Note_off_c, 0, 69, 61
1, 53341, Control_c, 0, 64, 50
1, 53356, Control_c, 0, 64, 63
1, 53368, Note_on_c, 0, 71, 55
1, 53371, Control_c, 0, 64, 79
1, 53382, Note_off_c, 0, 49, 64
1, 53386, Control_c, 0, 64, 92
1, 53424, Note_off_c, 0, 45, 40
1, 53448, Note_on_c, 0, 73, 57
1, 53453, Control_c, 0, 64, 98
1, 53468, Control_c, 0, 64, 117
1, 53470, Note_off_c, 0, 71, 58
1, 53482, Control_c, 0, 64, 127
1, 53515, Note_off_c, 0, 73, 64
1, 53523, Note_on_c, 0, 81, 55
1, 53554, Note_off_c, 0, 81, 63
1, 53572, Control_c, 0, 64, 86
1, 53587, Control_c, 0, 64, 69
1, 53602, Control_c, 0, 64, 62
1, 53617, Note_on_c, 0, 33, 46
1, 53617, Control_c, 0, 64, 59
1, 53627, Note_on_c, 0, 45, 40
1, 53632, Note_on_c, 0, 81, 60
1, 53632, Control_c, 0, 64, 60
1, 53646, Control_c, 0, 64, 62
1, 53661, Control_c, 0, 64, 63
1, 53669, Note_off_c, 0, 81, 52
1, 53676, Control_c, 0, 64, 65
1, 53690, Control_c, 0, 64, 69
1, 53697, Note_on_c, 0, 83, 62
1, 53705, Control_c, 0, 64, 73
1, 53720, Control_c, 0, 64, 77
1, 53735, Control_c, 0, 64, 81
1, 53750, Control_c, 0, 64, 86
1, 53764, Control_c, 0, 64, 88
1, 53767, Note_on_c, 0, 85, 64
1, 53768, Note_off_c, 0, 83, 63
1, 53779, Control_c, 0, 64, 89
1, 53794, Control_c, 0, 64, 91
1, 53800, Note_off_c, 0, 33, 40
1, 53809, Note_off_c, 0, 85, 58
1, 53809, Control_c, 0, 64, 95
1, 53824, Control_c, 0, 64, 100
1, 53835, Note_on_c, 0, 93, 69
1, 53839, Control_c, 0, 64, 102
1, 53868, Control_c, 0, 64, 103
1, 53874, Note_off_c, 0, 45, 50
1, 53883, Note_off_c, 0, 93, 59
1, 53883, Control_c, 0, 64, 109
1, 53898, Note_on_c, 0, 85, 68
1, 53898, Control_c, 0, 64, 127
1, 53951, Note_on_c, 0, 83, 71
1, 53973, Note_off_c, 0, 85, 64
1, 53996, Note_off_c, 0, 83, 66
1, 54018, Note_on_c, 0, 81, 70
1, 54042, Note_off_c, 0, 81, 66
1, 54100, Note_on_c, 0, 81, 69
1, 54155, Note_off_c, 0, 81, 56
1, 54158, Control_c, 0, 64, 81
1, 54172, Control_c, 0, 64, 61
1, 54181, Note_on_c, 0, 73, 62
1, 54187, Control_c, 0, 64, 41
1, 54188, Note_on_c, 0, 52, 75
1, 54202, Control_c, 0, 64, 34
1, 54207, Note_on_c, 0, 45, 51
1, 54214, Note_off_c, 0, 73, 48
1, 54217, Control_c, 0, 64, 45
1, 54225, Note_on_c, 0, 71, 66
1, 54231, Control_c, 0, 64, 54
1, 54246, Control_c, 0, 64, 62
1, 54261, Control_c, 0, 64, 68
1, 54276, Control_c, 0, 64, 77
1, 54291, Control_c, 0, 64, 86
1, 54299, Note_off_c, 0, 45, 55
1, 54300, Note_off_c, 0, 71, 61
1, 54305, Control_c, 0, 64, 103
1, 54306, Note_on_c, 0, 69, 69
1, 54320, Control_c, 0, 64, 127
1, 54328, Note_off_c, 0, 69, 69
1, 54370, Note_off_c, 0, 52, 62
1, 54376, Note_on_c, 0, 69, 76
1, 54402, Note_off_c, 0, 69, 67
1, 54469, Control_c, 0, 64, 117
1, 54478, Note_on_c, 0, 53, 67
1, 54484, Control_c, 0, 64, 64
1, 54489, Note_on_c, 0, 50, 59
1, 54491, Note_on_c, 0, 70, 71
1, 54496, Note_on_c, 0, 45, 49
1, 54499, Control_c, 0, 64, 30
1, 54514, Control_c, 0, 64, 0
1, 54546, Note_off_c, 0, 70, 59
1, 54557, Note_on_c, 0, 72, 70
1, 54573, Control_c, 0, 64, 26
1, 54588, Control_c, 0, 64, 40
1, 54602, Control_c, 0, 64, 53
1, 54617, Control_c, 0, 64, 64
1, 54618, Note_on_c, 0, 74, 63
1, 54632, Note_off_c, 0, 72, 58
1, 54632, Control_c, 0, 64, 78
1, 54637, Note_off_c, 0, 53, 64
1, 54646, Control_c, 0, 64, 98
1, 54661, Control_c, 0, 64, 127
1, 54669, Note_off_c, 0, 74, 64
1, 54682, Note_on_c, 0, 82, 70
1, 54706, Note_off_c, 0, 82, 68
1, 54721, Control_c, 0, 64, 90
1, 54735, Note_off_c, 0, 45, 61
1, 54736, Control_c, 0, 64, 79
1, 54741, Note_off_c, 0, 50, 63
1, 54763, Note_on_c, 0, 82, 75
1, 54765, Note_on_c, 0, 55, 75
1, 54766, Control_c, 0, 64, 84
1, 54781, Control_c, 0, 64, 93
1, 54795, Control_c, 0, 64, 100
1, 54810, Control_c, 0, 64, 103
1, 54816, Note_off_c, 0, 82, 65
1, 54830, Note_on_c, 0, 84, 70
1, 54839, Control_c, 0, 64, 108
1, 54854, Control_c, 0, 64, 127
1, 54897, Note_off_c, 0, 55, 64
1, 54918, Note_off_c, 0, 84, 57
1, 54923, Note_on_c, 0, 86, 63
1, 54954, Note_off_c, 0, 86, 64
1, 54963, Note_on_c, 0, 94, 80
1, 54973, Note_on_c, 0, 53, 52
1, 54980, Control_c, 0, 64, 84
1, 54995, Control_c, 0, 64, 57
1, 55010, Control_c, 0, 64, 0
1, 55025, Note_off_c, 0, 94, 66
1, 55034, Note_on_c, 0, 58, 84
1, 55046, Note_on_c, 0, 86, 70
1, 55084, Control_c, 0, 64, 24
1, 55099, Control_c, 0, 64, 38
1, 55109, Note_off_c, 0, 86, 62
1, 55114, Control_c, 0, 64, 51
1, 55114, Note_on_c, 0, 84, 72
1, 55128, Control_c, 0, 64, 63
1, 55143, Control_c, 0, 64, 76
1, 55158, Control_c, 0, 64, 88
1, 55163, Note_off_c, 0, 84, 61
1, 55165, Note_on_c, 0, 82, 81
1, 55174, Control_c, 0, 64, 100
1, 55189, Control_c, 0, 64, 127
1, 55211, Note_off_c, 0, 82, 63
1, 55245, Note_on_c, 0, 82, 50
1, 55278, Note_off_c, 0, 82, 67
1, 55293, Note_on_c, 0, 62, 83
1, 55313, Note_on_c, 0, 74, 79
1, 55317, Note_off_c, 0, 62, 68
1, 55322, Note_off_c, 0, 53, 64
1, 55323, Note_off_c, 0, 58, 63
1, 55367, Note_off_c, 0, 74, 68
1, 55378, Note_on_c, 0, 72, 74
1, 55399, Note_off_c, 0, 72, 70
1, 55442, Note_on_c, 0, 70, 83
1, 55485, Note_off_c, 0, 70, 59
1, 55523, Note_on_c, 0, 70, 58
1, 55529, Control_c, 0, 64, 69
1, 55543, Note_off_c, 0, 70, 59
1, 55544, Control_c, 0, 64, 25
1, 55559, Control_c, 0, 64, 0
1, 55588, Note_on_c, 0, 59, 60
1, 55589, Note_on_c, 0, 54, 70
1, 55602, Note_on_c, 0, 71, 73
1, 55603, Control_c, 0, 64, 11
1, 55605, Note_on_c, 0, 45, 55
1, 55608, Note_on_c, 0, 51, 59
1, 55609, Note_off_c, 0, 59, 61
1, 55618, Control_c, 0, 64, 34
1, 55633, Control_c, 0, 64, 51
1, 55634, Note_off_c, 0, 54, 65
1, 55637, Note_off_c, 0, 51, 67
1, 55655, Control_c, 0, 64, 63
1, 55659, Note_off_c, 0, 45, 65
1, 55669, Control_c, 0, 64, 73
1, 55684, Control_c, 0, 64, 80
1, 55685, Note_off_c, 0, 71, 58
1, 55686, Note_on_c, 0, 73, 80
1, 55699, Control_c, 0, 64, 82
1, 55714, Control_c, 0, 64, 90
1, 55729, Control_c, 0, 64, 127
1, 55756, Note_on_c, 0, 75, 71
1, 55759, Note_off_c, 0, 73, 62
1, 55818, Note_off_c, 0, 75, 64
1, 55833, Control_c, 0, 64, 85
1, 55838, Note_on_c, 0, 83, 44
1, 55848, Control_c, 0, 64, 81
1, 55862, Control_c, 0, 64, 92
1, 55863, Note_off_c, 0, 83, 60
1, 55877, Control_c, 0, 64, 127
1, 55885, Note_on_c, 0, 33, 63
1, 55887, Note_on_c, 0, 45, 69
1, 55911, Note_on_c, 0, 83, 72
1, 55977, Note_on_c, 0, 85, 74
1, 55979, Note_off_c, 0, 83, 63
1, 56033, Note_off_c, 0, 33, 61
1, 56039, Note_on_c, 0, 87, 73
1, 56043, Note_off_c, 0, 85, 60
1, 56092, Note_off_c, 0, 45, 63
1, 56092, Note_on_c, 0, 95, 91
1, 56093, Note_off_c, 0, 87, 64
1, 56161, Note_on_c, 0, 87, 76
1, 56192, Note_off_c, 0, 95, 59
1, 56223, Note_on_c, 0, 85, 80
1, 56242, Note_off_c, 0, 87, 65
1, 56274, Note_on_c, 0, 83, 77
1, 56276, Note_off_c, 0, 85, 63
1, 56301, Note_off_c, 0, 83, 68
1, 56355, Note_on_c, 0, 84, 53
1, 56370, Note_on_c, 0, 83, 45
1, 56377, Note_off_c, 0, 84, 61
1, 56380, Control_c, 0, 64, 98
1, 56402, Control_c, 0, 64, 86
1, 56417, Control_c, 0, 64, 91
1, 56426, Note_on_c, 0, 54, 88
1, 56432, Control_c, 0, 64, 110
1, 56435, Note_on_c, 0, 51, 75
1, 56435, Note_on_c, 0, 75, 79
1, 56440, Note_on_c, 0, 45, 70
1, 56443, Note_off_c, 0, 83, 55
1, 56447, Control_c, 0, 64, 127
1, 56484, Note_on_c, 0, 73, 84
1, 56510, Note_off_c, 0, 75, 60
1, 56557, Note_off_c, 0, 73, 63
1, 56560, Note_off_c, 0, 54, 62
1, 56569, Note_on_c, 0, 71, 75
1, 56578, Note_off_c, 0, 45, 57
1, 56590, Note_off_c, 0, 71, 72
1, 56627, Note_off_c, 0, 51, 30
1, 56650, Note_on_c, 0, 71, 56
1, 56654, Note_on_c, 0, 72, 51
1, 56674, Note_off_c, 0, 71, 61
1, 56679, Note_off_c, 0, 72, 58
1, 56683, Control_c, 0, 64, 106
1, 56698, Control_c, 0, 64, 60
1, 56713, Control_c, 0, 64, 0
1, 56727, Note_on_c, 0, 52, 87
1, 56727, Note_on_c, 0, 55, 83
1, 56728, Note_on_c, 0, 72, 89
1, 56736, Note_on_c, 0, 45, 64
1, 56772, Note_on_c, 0, 53, 33
1, 56788, Note_off_c, 0, 72, 48
1, 56803, Control_c, 0, 64, 20
1, 56808, Note_off_c, 0, 53, 37
1, 56812, Note_on_c, 0, 74, 83
1, 56818, Control_c, 0, 64, 34
1, 56832, Control_c, 0, 64, 48
1, 56847, Control_c, 0, 64, 61
1, 56862, Control_c, 0, 64, 74
1, 56874, Note_on_c, 0, 76, 74
1, 56877, Control_c, 0, 64, 108
1, 56885, Note_off_c, 0, 55, 64
1, 56892, Control_c, 0, 64, 127
1, 56907, Note_off_c, 0, 74, 63
1, 56931, Note_off_c, 0, 76, 66
1, 56939, Note_on_c, 0, 84, 75
1, 56962, Note_off_c, 0, 84, 69
1, 56966, Control_c, 0, 64, 77
1, 56981, Control_c, 0, 64, 63
1, 56984, Note_off_c, 0, 45, 56
1, 56989, Note_off_c, 0, 52, 65
1, 56995, Control_c, 0, 64, 64
1, 57003, Note_on_c, 0, 57, 86
1, 57010, Note_on_c, 0, 84, 94
1, 57010, Control_c, 0, 64, 71
1, 57025, Control_c, 0, 64, 81
1, 57040, Control_c, 0, 64, 90
1, 57055, Control_c, 0, 64, 113
1, 57062, Note_off_c, 0, 84, 64
1, 57070, Control_c, 0, 64, 127
1, 57076, Note_on_c, 0, 86, 90
1, 57147, Note_on_c, 0, 88, 80
1, 57150, Note_off_c, 0, 57, 61
1, 57181, Note_off_c, 0, 86, 61
1, 57209, Note_on_c, 0, 96, 85
1, 57213, Note_off_c, 0, 88, 65
1, 57216, Note_on_c, 0, 55, 59
1, 57240, Control_c, 0, 64, 96
1, 57255, Control_c, 0, 64, 58
1, 57270, Control_c, 0, 64, 0
1, 57271, Note_on_c, 0, 60, 90
1, 57278, Note_on_c, 0, 88, 80
1, 57280, Note_off_c, 0, 96, 60
1, 57341, Note_on_c, 0, 86, 83
1, 57344, Control_c, 0, 64, 26
1, 57346, Note_off_c, 0, 88, 66
1, 57359, Control_c, 0, 64, 42
1, 57373, Control_c, 0, 64, 56
1, 57388, Control_c, 0, 64, 67
1, 57399, Note_on_c, 0, 84, 82
1, 57401, Note_off_c, 0, 86, 63
1, 57403, Control_c, 0, 64, 84
1, 57418, Control_c, 0, 64, 97
1, 57433, Control_c, 0, 64, 122
1, 57443, Note_off_c, 0, 84, 65
1, 57447, Control_c, 0, 64, 127
1, 57478, Note_on_c, 0, 84, 72
1, 57515, Note_off_c, 0, 60, 65
1, 57539, Note_on_c, 0, 64, 87
1, 57544, Note_on_c, 0, 76, 86
1, 57551, Note_off_c, 0, 84, 62
1, 57565, Note_on_c, 0, 79, 47
1, 57574, Note_off_c, 0, 55, 38
1, 57581, Note_off_c, 0, 64, 60
1, 57590, Note_off_c, 0, 79, 57
1, 57606, Note_on_c, 0, 74, 85
1, 57630, Note_off_c, 0, 76, 62
1, 57675, Note_on_c, 0, 72, 81
1, 57677, Note_off_c, 0, 74, 66
1, 57704, Note_off_c, 0, 72, 66
1, 57747, Note_on_c, 0, 72, 80
1, 57752, Note_on_c, 0, 45, 79
1, 57795, Note_off_c, 0, 72, 64
1, 57818, Note_off_c, 0, 45, 62
1, 57819, Note_on_c, 0, 52, 67
1, 57827, Note_on_c, 0, 55, 71
1, 57834, Control_c, 0, 64, 88
1, 57849, Control_c, 0, 64, 53
1, 57863, Control_c, 0, 64, 0
1, 57901, Control_c, 0, 64, 28
1, 57916, Control_c, 0, 64, 43
1, 57917, Note_on_c, 0, 61, 101
1, 57923, Note_on_c, 0, 73, 93
1, 57931, Control_c, 0, 64, 60
1, 57945, Note_off_c, 0, 61, 61
1, 57945, Control_c, 0, 64, 79
1, 57951, Note_off_c, 0, 55, 65
1, 57960, Control_c, 0, 64, 127
1, 57973, Note_off_c, 0, 52, 61
1, 57996, Note_off_c, 0, 73, 64
1, 58001, Note_on_c, 0, 74, 76
1, 58069, Note_off_c, 0, 74, 64
1, 58078, Note_on_c, 0, 76, 52
1, 58104, Note_on_c, 0, 77, 46
1, 58112, Note_off_c, 0, 76, 0
1, 58112, Note_on_c, 0, 76, 20
1, 58134, Note_off_c, 0, 77, 56
1, 58140, Note_on_c, 0, 80, 58
1, 58140, Note_on_c, 0, 85, 72
1, 58143, Note_off_c, 0, 76, 56
1, 58163, Note_off_c, 0, 80, 65
1, 58179, Note_off_c, 0, 85, 48
1, 58197, Control_c, 0, 64, 122
1, 58212, Control_c, 0, 64, 59
1, 58220, Note_on_c, 0, 76, 88
1, 58222, Note_on_c, 0, 45, 87
1, 58227, Control_c, 0, 64, 0
1, 58229, Note_on_c, 0, 33, 76
1, 58271, Control_c, 0, 64, 21
1, 58286, Control_c, 0, 64, 34
1, 58298, Note_on_c, 0, 77, 89
1, 58299, Note_off_c, 0, 76, 62
1, 58301, Control_c, 0, 64, 46
1, 58316, Control_c, 0, 64, 59
1, 58331, Control_c, 0, 64, 67
1, 58345, Control_c, 0, 64, 75
1, 58361, Control_c, 0, 64, 85
1, 58370, Note_off_c, 0, 33, 59
1, 58376, Control_c, 0, 64, 108
1, 58391, Control_c, 0, 64, 127
1, 58396, Note_on_c, 0, 79, 60
1, 58401, Note_off_c, 0, 77, 60
1, 58431, Note_off_c, 0, 79, 61
1, 58435, Note_on_c, 0, 88, 62
1, 58441, Note_off_c, 0, 45, 64
1, 58460, Note_off_c, 0, 88, 63
1, 58479, Control_c, 0, 64, 77
1, 58494, Control_c, 0, 64, 58
1, 58496, Note_on_c, 0, 79, 91
1, 58509, Control_c, 0, 64, 46
1, 58524, Control_c, 0, 64, 53
1, 58539, Control_c, 0, 64, 64
1, 58553, Control_c, 0, 64, 75
1, 58564, Note_on_c, 0, 81, 88
1, 58567, Note_off_c, 0, 79, 60
1, 58568, Control_c, 0, 64, 85
1, 58583, Control_c, 0, 64, 90
1, 58598, Control_c, 0, 64, 97
1, 58612, Control_c, 0, 64, 114
1, 58635, Control_c, 0, 64, 127
1, 58650, Note_on_c, 0, 82, 76
1, 58662, Note_off_c, 0, 81, 60
1, 58690, Note_off_c, 0, 82, 65
1, 58697, Note_on_c, 0, 91, 59
1, 58724, Note_off_c, 0, 91, 54
1, 58739, Control_c, 0, 64, 99
1, 58753, Note_on_c, 0, 55, 60
1, 58754, Control_c, 0, 64, 60
1, 58764, Note_on_c, 0, 82, 75
1, 58768, Control_c, 0, 64, 19
1, 58783, Control_c, 0, 64, 0
1, 58811, Note_off_c, 0, 82, 50
1, 58816, Note_on_c, 0, 85, 72
1, 58831, Note_off_c, 0, 85, 68
1, 58840, Note_on_c, 0, 57, 44
1, 58842, Control_c, 0, 64, 21
1, 58844, Note_on_c, 0, 84, 73
1, 58857, Control_c, 0, 64, 33
1, 58864, Note_off_c, 0, 55, 60
1, 58872, Control_c, 0, 64, 44
1, 58880, Note_off_c, 0, 57, 63
1, 58886, Control_c, 0, 64, 58
1, 58900, Note_on_c, 0, 85, 62
1, 58901, Control_c, 0, 64, 67
1, 58903, Note_off_c, 0, 84, 62
1, 58906, Note_on_c, 0, 58, 38
1, 58916, Control_c, 0, 64, 78
1, 58931, Control_c, 0, 64, 93
1, 58936, Note_on_c, 0, 64, 57
1, 58941, Note_off_c, 0, 58, 51
1, 58946, Note_on_c, 0, 94, 55
1, 58946, Control_c, 0, 64, 127
1, 58965, Note_off_c, 0, 85, 62
1, 58968, Note_off_c, 0, 94, 59
1, 58978, Note_off_c, 0, 64, 57
1, 59005, Control_c, 0, 64, 86
1, 59010, Note_on_c, 0, 79, 79
1, 59017, Note_on_c, 0, 58, 62
1, 59019, Control_c, 0, 64, 59
1, 59034, Control_c, 0, 64, 21
1, 59049, Control_c, 0, 64, 0
1, 59074, Note_on_c, 0, 81, 79
1, 59074, Note_off_c, 0, 79, 61
1, 59082, Note_on_c, 0, 60, 60
1, 59094, Control_c, 0, 64, 24
1, 59109, Control_c, 0, 64, 38
1, 59124, Control_c, 0, 64, 50
1, 59125, Note_off_c, 0, 58, 56
1, 59132, Note_on_c, 0, 82, 66
1, 59138, Control_c, 0, 64, 62
1, 59145, Note_off_c, 0, 60, 64
1, 59153, Control_c, 0, 64, 75
1, 59158, Note_off_c, 0, 81, 61
1, 59168, Note_on_c, 0, 61, 20
1, 59169, Control_c, 0, 64, 98
1, 59179, Note_off_c, 0, 82, 67
1, 59183, Control_c, 0, 64, 127
1, 59189, Note_on_c, 0, 67, 64
1, 59194, Note_on_c, 0, 91, 52
1, 59210, Note_off_c, 0, 61, 55
1, 59219, Note_off_c, 0, 91, 55
1, 59251, Note_off_c, 0, 67, 51
1, 59258, Control_c, 0, 64, 105
1, 59261, Note_on_c, 0, 76, 75
1, 59273, Control_c, 0, 64, 61
1, 59276, Note_on_c, 0, 61, 64
1, 59288, Control_c, 0, 64, 33
1, 59303, Control_c, 0, 64, 0
1, 59318, Note_off_c, 0, 76, 60
1, 59322, Note_on_c, 0, 63, 56
1, 59327, Note_on_c, 0, 77, 79
1, 59347, Control_c, 0, 64, 26
1, 59362, Control_c, 0, 64, 40
1, 59367, Note_off_c, 0, 61, 64
1, 59370, Note_off_c, 0, 63, 62
1, 59383, Control_c, 0, 64, 52
1, 59386, Note_on_c, 0, 62, 53
1, 59389, Note_on_c, 0, 64, 62
1, 59395, Note_on_c, 0, 79, 62
1, 59398, Control_c, 0, 64, 63
1, 59410, Note_off_c, 0, 77, 60
1, 59412, Note_off_c, 0, 62, 64
1, 59413, Control_c, 0, 64, 75
1, 59428, Control_c, 0, 64, 96
1, 59437, Note_off_c, 0, 64, 59
1, 59441, Note_off_c, 0, 79, 55
1, 59443, Note_on_c, 0, 70, 70
1, 59443, Control_c, 0, 64, 127
1, 59444, Note_on_c, 0, 88, 68
1, 59467, Note_off_c, 0, 70, 66
1, 59476, Note_off_c, 0, 88, 59
1, 59517, Control_c, 0, 64, 75
1, 59519, Note_on_c, 0, 79, 90
1, 59529, Note_on_c, 0, 64, 73
1, 59532, Control_c, 0, 64, 53
1, 59547, Control_c, 0, 64, 0
1, 59577, Note_off_c, 0, 79, 61
1, 59579, Note_on_c, 0, 81, 81
1, 59588, Note_on_c, 0, 65, 46
1, 59591, Control_c, 0, 64, 25
1, 59606, Control_c, 0, 64, 39
1, 59621, Control_c, 0, 64, 52
1, 59622, Note_off_c, 0, 64, 62
1, 59625, Note_on_c, 0, 66, 40
1, 59625, Note_on_c, 0, 67, 70
1, 59635, Control_c, 0, 64, 63
1, 59637, Note_off_c, 0, 65, 55
1, 59642, Note_on_c, 0, 82, 78
1, 59650, Control_c, 0, 64, 77
1, 59659, Note_off_c, 0, 66, 62
1, 59665, Control_c, 0, 64, 87
1, 59673, Note_off_c, 0, 67, 63
1, 59673, Note_off_c, 0, 81, 63
1, 59680, Control_c, 0, 64, 95
1, 59690, Note_on_c, 0, 73, 71
1, 59693, Note_off_c, 0, 82, 68
1, 59695, Control_c, 0, 64, 127
1, 59702, Note_on_c, 0, 91, 61
1, 59713, Note_off_c, 0, 73, 67
1, 59728, Note_off_c, 0, 91, 62
1, 59764, Note_on_c, 0, 82, 86
1, 59768, Note_on_c, 0, 67, 73
1, 59768, Control_c, 0, 64, 104
1, 59783, Control_c, 0, 64, 60
1, 59798, Control_c, 0, 64, 20
1, 59813, Control_c, 0, 64, 0
1, 59822, Note_on_c, 0, 84, 65
1, 59827, Note_off_c, 0, 82, 61
1, 59836, Note_on_c, 0, 85, 56
1, 59838, Note_on_c, 0, 69, 61
1, 59857, Control_c, 0, 64, 11
1, 59872, Control_c, 0, 64, 32
1, 59874, Note_off_c, 0, 67, 60
1, 59881, Note_on_c, 0, 70, 68
1, 59887, Note_off_c, 0, 69, 60
1, 59887, Control_c, 0, 64, 47
1, 59902, Control_c, 0, 64, 62
1, 59917, Control_c, 0, 64, 108
1, 59920, Note_off_c, 0, 84, 61
1, 59932, Control_c, 0, 64, 127
1, 59932, Note_on_c, 0, 76, 74
1, 59932, Note_off_c, 0, 70, 60
1, 59945, Note_on_c, 0, 94, 76
1, 59955, Note_off_c, 0, 85, 64
1, 59982, Note_off_c, 0, 76, 65
1, 59987, Note_off_c, 0, 94, 63
1, 59991, Control_c, 0, 64, 66
1, 60006, Control_c, 0, 64, 46
1, 60009, Note_on_c, 0, 88, 82
1, 60012, Note_on_c, 0, 79, 83
1, 60021, Control_c, 0, 64, 23
1, 60031, Note_off_c, 0, 79, 71
1, 60033, Note_on_c, 0, 77, 51
1, 60034, Note_off_c, 0, 77, 127
1, 60036, Control_c, 0, 64, 39
1, 60051, Control_c, 0, 64, 52
1, 60066, Control_c, 0, 64, 64
1, 60081, Control_c, 0, 64, 81
1, 60086, Note_on_c, 0, 86, 68
1, 60096, Control_c, 0, 64, 93
1, 60110, Control_c, 0, 64, 95
1, 60125, Control_c, 0, 64, 119
1, 60147, Control_c, 0, 64, 127
1, 60155, Note_on_c, 0, 85, 74
1, 60167, Note_off_c, 0, 88, 62
1, 60179, Note_off_c, 0, 86, 61
1, 60206, Note_on_c, 0, 79, 74
1, 60206, Control_c, 0, 64, 88
1, 60218, Note_off_c, 0, 85, 62
1, 60221, Control_c, 0, 64, 62
1, 60236, Control_c, 0, 64, 0
1, 60272, Note_on_c, 0, 88, 82
1, 60273, Note_on_c, 0, 67, 61
1, 60282, Note_off_c, 0, 79, 60
1, 60325, Note_on_c, 0, 69, 63
1, 60340, Note_on_c, 0, 86, 66
1, 60352, Note_off_c, 0, 67, 62
1, 60370, Control_c, 0, 64, 22
1, 60371, Note_off_c, 0, 88, 63
1, 60380, Note_on_c, 0, 70, 64
1, 60383, Note_on_c, 0, 85, 74
1, 60384, Note_off_c, 0, 69, 63
1, 60384, Control_c, 0, 64, 36
1, 60385, Note_off_c, 0, 86, 61
1, 60399, Control_c, 0, 64, 47
1, 60414, Note_off_c, 0, 70, 61
1, 60414, Control_c, 0, 64, 62
1, 60429, Control_c, 0, 64, 79
1, 60438, Note_off_c, 0, 85, 63
1, 60441, Note_on_c, 0, 61, 69
1, 60443, Note_on_c, 0, 94, 79
1, 60444, Control_c, 0, 64, 119
1, 60458, Control_c, 0, 64, 127
1, 60464, Note_off_c, 0, 94, 72
1, 60468, Note_off_c, 0, 61, 67
1, 60473, Control_c, 0, 64, 103
1, 60488, Control_c, 0, 64, 80
1, 60501, Note_on_c, 0, 88, 68
1, 60503, Control_c, 0, 64, 65
1, 60515, Note_on_c, 0, 67, 71
1, 60518, Control_c, 0, 64, 52
1, 60532, Control_c, 0, 64, 45
1, 60547, Control_c, 0, 64, 50
1, 60562, Control_c, 0, 64, 59
1, 60570, Note_on_c, 0, 86, 70
1, 60576, Control_c, 0, 64, 65
1, 60588, Note_on_c, 0, 69, 63
1, 60591, Control_c, 0, 64, 69
1, 60606, Control_c, 0, 64, 74
1, 60621, Control_c, 0, 64, 78
1, 60625, Note_off_c, 0, 67, 60
1, 60626, Note_on_c, 0, 70, 66
1, 60635, Note_off_c, 0, 88, 60
1, 60636, Control_c, 0, 64, 77
1, 60644, Note_on_c, 0, 85, 37
1, 60645, Note_off_c, 0, 85, 127
1, 60647, Note_off_c, 0, 69, 58
1, 60648, Note_on_c, 0, 84, 70
1, 60648, Note_off_c, 0, 86, 63
1, 60651, Control_c, 0, 64, 69
1, 60665, Control_c, 0, 64, 59
1, 60673, Note_off_c, 0, 84, 67
1, 60680, Control_c, 0, 64, 40
1, 60682, Note_off_c, 0, 70, 62
1, 60686, Note_on_c, 0, 79, 75
1, 60695, Note_on_c, 0, 76, 58
1, 60695, Control_c, 0, 64, 0
1, 60745, Note_on_c, 0, 88, 78
1, 60750, Note_on_c, 0, 67, 62
1, 60757, Note_off_c, 0, 79, 54
1, 60769, Note_off_c, 0, 76, 61
1, 60770, Control_c, 0, 64, 10
1, 60785, Control_c, 0, 64, 24
1, 60800, Control_c, 0, 64, 35
1, 60814, Control_c, 0, 64, 45
1, 60816, Note_on_c, 0, 86, 70
1, 60818, Note_on_c, 0, 69, 62
1, 60829, Control_c, 0, 64, 56
1, 60844, Control_c, 0, 64, 64
1, 60846, Note_off_c, 0, 67, 63
1, 60856, Note_on_c, 0, 70, 67
1, 60859, Control_c, 0, 64, 70
1, 60862, Note_off_c, 0, 88, 64
1, 60865, Note_on_c, 0, 85, 75
1, 60874, Control_c, 0, 64, 74
1, 60884, Note_off_c, 0, 69, 61
1, 60887, Note_off_c, 0, 86, 61
1, 60896, Control_c, 0, 64, 83
1, 60911, Control_c, 0, 64, 99
1, 60916, Note_off_c, 0, 70, 58
1, 60926, Control_c, 0, 64, 127
1, 60934, Note_off_c, 0, 85, 61
1, 60936, Note_on_c, 0, 94, 80
1, 60941, Control_c, 0, 64, 111
1, 60942, Note_on_c, 0, 61, 67
1, 60956, Control_c, 0, 64, 80
1, 60963, Note_off_c, 0, 94, 68
1, 60965, Note_off_c, 0, 61, 69
1, 60970, Control_c, 0, 64, 62
1, 60985, Control_c, 0, 64, 40
1, 60995, Note_on_c, 0, 88, 76
1, 61000, Control_c, 0, 64, 0
1, 61013, Note_on_c, 0, 67, 69
1, 61076, Note_on_c, 0, 86, 70
1, 61079, Poly_aftertouch_c, 0, 93, 0
1, 61087, Note_on_c, 0, 69, 63
1, 61088, Control_c, 0, 64, 13
1, 61103, Control_c, 0, 64, 24
1, 61114, Note_off_c, 0, 67, 59
1, 61118, Note_on_c, 0, 70, 69
1, 61118, Control_c, 0, 64, 33
1, 61133, Note_on_c, 0, 85, 70
1, 61133, Control_c, 0, 64, 40
1, 61135, Note_off_c, 0, 88, 63
1, 61148, Note_off_c, 0, 69, 62
1, 61148, Control_c, 0, 64, 48
1, 61154, Note_off_c, 0, 86, 60
1, 61163, Control_c, 0, 64, 54
1, 61178, Note_off_c, 0, 70, 61
1, 61178, Control_c, 0, 64, 59
1, 61182, Note_off_c, 0, 85, 59
1, 61193, Control_c, 0, 64, 60
1, 61194, Note_on_c, 0, 79, 65
1, 61200, Note_on_c, 0, 76, 58
1, 61252, Control_c, 0, 64, 61
1, 61272, Note_off_c, 0, 79, 56
1, 61273, Note_off_c, 0, 76, 53
1, 61274, Note_on_c, 0, 70, 62
1, 61276, Note_on_c, 0, 85, 66
1, 61306, Note_off_c, 0, 70, 58
1, 61318, Note_on_c, 0, 69, 63
1, 61330, Note_on_c, 0, 86, 68
1, 61340, Control_c, 0, 64, 61
1, 61355, Control_c, 0, 64, 62
1, 61358, Note_off_c, 0, 85, 56
1, 61385, Control_c, 0, 64, 62
1, 61390, Note_off_c, 0, 69, 62
1, 61394, Note_on_c, 0, 88, 67
1, 61396, Note_on_c, 0, 67, 54
1, 61399, Control_c, 0, 64, 64
1, 61414, Control_c, 0, 64, 67
1, 61417, Note_off_c, 0, 86, 58
1, 61429, Control_c, 0, 64, 71
1, 61444, Control_c, 0, 64, 71
1, 61445, Note_off_c, 0, 67, 55
1, 61455, Note_off_c, 0, 88, 67
1, 61459, Control_c, 0, 64, 69
1, 61461, Note_on_c, 0, 94, 74
1, 61473, Note_on_c, 0, 61, 53
1, 61473, Control_c, 0, 64, 62
1, 61488, Control_c, 0, 64, 45
1, 61499, Note_off_c, 0, 61, 67
1, 61503, Note_off_c, 0, 94, 66
1, 61503, Control_c, 0, 64, 0
1, 61520, Note_on_c, 0, 88, 63
1, 61533, Note_on_c, 0, 67, 66
1, 61608, Note_on_c, 0, 86, 60
1, 61608, Control_c, 0, 64, 19
1, 61614, Note_on_c, 0, 69, 56
1, 61623, Control_c, 0, 64, 31
1, 61634, Note_off_c, 0, 67, 58
1, 61645, Control_c, 0, 64, 40
1, 61655, Note_on_c, 0, 70, 67
1, 61659, Note_off_c, 0, 88, 61
1, 61660, Note_on_c, 0, 85, 68
1, 61660, Control_c, 0, 64, 51
1, 61661, Note_off_c, 0, 69, 62
1, 61675, Control_c, 0, 64, 59
1, 61690, Note_off_c, 0, 86, 59
1, 61690, Control_c, 0, 64, 62
1, 61704, Control_c, 0, 64, 63
1, 61713, Note_off_c, 0, 70, 61
1, 61720, Note_off_c, 0, 85, 62
1, 61736, Note_on_c, 0, 79, 56
1, 61739, Note_on_c, 0, 76, 56
1, 61749, Control_c, 0, 64, 63
1, 61764, Control_c, 0, 64, 65
1, 61779, Control_c, 0, 64, 66
1, 61799, Note_off_c, 0, 76, 54
1, 61804, Note_off_c, 0, 79, 51
1, 61809, Note_on_c, 0, 85, 56
1, 61816, Note_on_c, 0, 70, 53
1, 61823, Control_c, 0, 64, 65
1, 61837, Control_c, 0, 64, 65
1, 61852, Control_c, 0, 64, 64
1, 61860, Note_on_c, 0, 86, 61
1, 61864, Note_off_c, 0, 70, 57
1, 61869, Note_on_c, 0, 69, 53
1, 61882, Control_c, 0, 64, 64
1, 61892, Note_off_c, 0, 85, 56
1, 61897, Control_c, 0, 64, 63
1, 61943, Note_off_c, 0, 86, 55
1, 61949, Note_on_c, 0, 88, 58
1, 61954, Note_off_c, 0, 69, 53
1, 61956, Note_on_c, 0, 67, 47
1, 62000, Control_c, 0, 64, 61
1, 62004, Note_off_c, 0, 67, 45
1, 62015, Control_c, 0, 64, 53
1, 62018, Note_off_c, 0, 88, 63
1, 62027, Note_on_c, 0, 60, 50
1, 62030, Control_c, 0, 64, 30
1, 62042, Note_on_c, 0, 94, 39
1, 62045, Control_c, 0, 64, 0
1, 62069, Note_off_c, 0, 94, 48
1, 62075, Control_c, 0, 64, 12
1, 62090, Control_c, 0, 64, 16
1, 62104, Control_c, 0, 64, 21
1, 62113, Note_on_c, 0, 67, 50
1, 62114, Note_on_c, 0, 88, 40
1, 62119, Control_c, 0, 64, 26
1, 62120, Note_off_c, 0, 60, 39
1, 62134, Control_c, 0, 64, 33
1, 62149, Control_c, 0, 64, 41
1, 62163, Control_c, 0, 64, 50
1, 62178, Control_c, 0, 64, 57
1, 62193, Control_c, 0, 64, 61
1, 62194, Note_on_c, 0, 86, 57
1, 62206, Note_on_c, 0, 69, 46
1, 62208, Control_c, 0, 64, 62
1, 62223, Control_c, 0, 64, 62
1, 62236, Note_on_c, 0, 70, 57
1, 62237, Note_off_c, 0, 69, 55
1, 62237, Control_c, 0, 64, 63
1, 62239, Note_off_c, 0, 67, 37
1, 62252, Control_c, 0, 64, 65
1, 62255, Note_on_c, 0, 84, 55
1, 62258, Note_off_c, 0, 88, 44
1, 62267, Control_c, 0, 64, 72
1, 62270, Note_off_c, 0, 86, 59
1, 62282, Note_off_c, 0, 70, 55
1, 62282, Control_c, 0, 64, 81
1, 62296, Control_c, 0, 64, 82
1, 62301, Note_off_c, 0, 84, 59
1, 62308, Note_on_c, 0, 79, 56
1, 62310, Note_on_c, 0, 76, 51
1, 62311, Control_c, 0, 64, 78
1, 62326, Control_c, 0, 64, 68
1, 62341, Control_c, 0, 64, 60
1, 62357, Control_c, 0, 64, 46
1, 62362, Note_off_c, 0, 79, 39
1, 62368, Note_on_c, 0, 88, 58
1, 62379, Control_c, 0, 64, 26
1, 62382, Note_on_c, 0, 67, 50
1, 62382, Note_off_c, 0, 76, 51
1, 62394, Control_c, 0, 64, 23
1, 62409, Control_c, 0, 64, 27
1, 62424, Control_c, 0, 64, 30
1, 62439, Control_c, 0, 64, 34
1, 62453, Control_c, 0, 64, 38
1, 62458, Note_on_c, 0, 86, 56
1, 62465, Note_on_c, 0, 69, 40
1, 62468, Control_c, 0, 64, 43
1, 62480, Note_off_c, 0, 88, 64
1, 62483, Control_c, 0, 64, 51
1, 62490, Note_off_c, 0, 67, 52
1, 62493, Note_on_c, 0, 84, 61
1, 62498, Control_c, 0, 64, 60
1, 62501, Note_off_c, 0, 86, 56
1, 62507, Note_off_c, 0, 69, 47
1, 62513, Control_c, 0, 64, 66
1, 62516, Note_on_c, 0, 70, 21
1, 62528, Control_c, 0, 64, 71
1, 62537, Note_off_c, 0, 84, 61
1, 62543, Control_c, 0, 64, 70
1, 62558, Note_off_c, 0, 70, 51
1, 62558, Control_c, 0, 64, 65
1, 62564, Note_on_c, 0, 60, 57
1, 62564, Note_on_c, 0, 94, 68
1, 62573, Control_c, 0, 64, 58
1, 62587, Control_c, 0, 64, 46
1, 62588, Note_off_c, 0, 94, 70
1, 62598, Note_off_c, 0, 60, 62
1, 62602, Control_c, 0, 64, 32
1, 62617, Control_c, 0, 64, 30
1, 62620, Note_on_c, 0, 88, 66
1, 62632, Control_c, 0, 64, 32
1, 62638, Note_on_c, 0, 67, 66
1, 62647, Control_c, 0, 64, 35
1, 62661, Control_c, 0, 64, 37
1, 62676, Control_c, 0, 64, 40
1, 62691, Control_c, 0, 64, 42
1, 62697, Note_on_c, 0, 86, 66
1, 62706, Control_c, 0, 64, 47
1, 62713, Note_on_c, 0, 69, 60
1, 62721, Control_c, 0, 64, 54
1, 62735, Control_c, 0, 64, 61
1, 62737, Note_off_c, 0, 67, 60
1, 62741, Note_on_c, 0, 70, 68
1, 62746, Note_off_c, 0, 69, 56
1, 62750, Control_c, 0, 64, 66
1, 62751, Note_on_c, 0, 84, 64
1, 62756, Note_off_c, 0, 88, 56
1, 62765, Control_c, 0, 64, 70
1, 62779, Control_c, 0, 64, 71
1, 62782, Note_off_c, 0, 86, 61
1, 62802, Note_off_c, 0, 70, 60
1, 62809, Control_c, 0, 64, 67
1, 62818, Note_on_c, 0, 76, 61
1, 62822, Note_off_c, 0, 84, 62
1, 62824, Control_c, 0, 64, 60
1, 62825, Note_on_c, 0, 79, 55
1, 62839, Control_c, 0, 64, 45
1, 62853, Control_c, 0, 64, 8
1, 62868, Control_c, 0, 64, 0
1, 62870, Note_off_c, 0, 76, 53
1, 62881, Note_on_c, 0, 67, 59
1, 62881, Note_on_c, 0, 88, 77
1, 62903, Note_off_c, 0, 79, 44
1, 62913, Control_c, 0, 64, 19
1, 62927, Control_c, 0, 64, 28
1, 62942, Control_c, 0, 64, 36
1, 62951, Note_on_c, 0, 86, 69
1, 62954, Note_on_c, 0, 69, 54
1, 62957, Control_c, 0, 64, 45
1, 62972, Control_c, 0, 64, 54
1, 62987, Control_c, 0, 64, 61
1, 62989, Note_off_c, 0, 67, 61
1, 62990, Note_off_c, 0, 88, 64
1, 63002, Note_on_c, 0, 84, 66
1, 63002, Control_c, 0, 64, 66
1, 63014, Note_on_c, 0, 70, 52
1, 63017, Control_c, 0, 64, 67
1, 63026, Note_off_c, 0, 86, 61
1, 63027, Note_off_c, 0, 69, 62
1, 63032, Control_c, 0, 64, 69
1, 63038, Note_off_c, 0, 70, 56
1, 63044, Note_off_c, 0, 84, 59
1, 63047, Control_c, 0, 64, 71
1, 63061, Control_c, 0, 64, 70
1, 63064, Note_on_c, 0, 60, 67
1, 63074, Note_on_c, 0, 94, 62
1, 63076, Control_c, 0, 64, 65
1, 63091, Control_c, 0, 64, 54
1, 63103, Note_off_c, 0, 94, 66
1, 63105, Control_c, 0, 64, 33
1, 63110, Note_off_c, 0, 60, 57
1, 63127, Control_c, 0, 64, 0
1, 63137, Note_on_c, 0, 88, 63
1, 63158, Control_c, 0, 64, 15
1, 63173, Control_c, 0, 64, 21
1, 63175, Note_on_c, 0, 67, 53
1, 63186, Note_on_c, 0, 65, 36
1, 63188, Control_c, 0, 64, 27
1, 63202, Control_c, 0, 64, 33
1, 63214, Note_off_c, 0, 65, 55
1, 63217, Control_c, 0, 64, 42
1, 63223, Note_on_c, 0, 86, 63
1, 63232, Control_c, 0, 64, 52
1, 63234, Note_on_c, 0, 69, 59
1, 63247, Control_c, 0, 64, 62
1, 63255, Note_on_c, 0, 70, 70
1, 63262, Control_c, 0, 64, 66
1, 63263, Note_off_c, 0, 67, 61
1, 63270, Note_on_c, 0, 84, 66
1, 63270, Note_off_c, 0, 69, 54
1, 63270, Note_off_c, 0, 88, 59
1, 63276, Control_c, 0, 64, 67
1, 63294, Note_off_c, 0, 86, 59
1, 63320, Note_off_c, 0, 70, 61
1, 63321, Control_c, 0, 64, 69
1, 63333, Note_off_c, 0, 84, 62
1, 63336, Control_c, 0, 64, 73
1, 63339, Note_on_c, 0, 79, 66
1, 63346, Note_on_c, 0, 76, 56
1, 63351, Control_c, 0, 64, 76
1, 63399, Note_off_c, 0, 76, 50
1, 63407, Note_on_c, 0, 70, 68
1, 63409, Note_on_c, 0, 84, 66
1, 63409, Note_off_c, 0, 79, 59
1, 63425, Control_c, 0, 64, 77
1, 63440, Control_c, 0, 64, 77
1, 63473, Note_on_c, 0, 69, 59
1, 63475, Note_off_c, 0, 70, 57
1, 63478, Note_on_c, 0, 86, 70
1, 63499, Control_c, 0, 64, 78
1, 63518, Note_off_c, 0, 84, 61
1, 63543, Control_c, 0, 64, 78
1, 63550, Note_on_c, 0, 67, 56
1, 63551, Note_off_c, 0, 69, 61
1, 63553, Note_on_c, 0, 88, 67
1, 63558, Control_c, 0, 64, 80
1, 63559, Note_off_c, 0, 86, 59
1, 63573, Control_c, 0, 64, 82
1, 63588, Control_c, 0, 64, 82
1, 63592, Note_off_c, 0, 67, 56
1, 63602, Control_c, 0, 64, 81
1, 63608, Note_off_c, 0, 88, 65
1, 63617, Control_c, 0, 64, 71
1, 63619, Note_on_c, 0, 60, 52
1, 63619, Note_on_c, 0, 94, 68
1, 63632, Control_c, 0, 64, 58
1, 63647, Control_c, 0, 64, 28
1, 63662, Control_c, 0, 64, 0
1, 63682, Note_off_c, 0, 94, 66
1, 63691, Note_off_c, 0, 60, 56
1, 63697, Note_on_c, 0, 88, 49
1, 63704, Note_on_c, 0, 67, 55
1, 63750, Control_c, 0, 64, 33
1, 63765, Control_c, 0, 64, 47
1, 63769, Note_on_c, 0, 86, 62
1, 63780, Control_c, 0, 64, 60
1, 63781, Note_on_c, 0, 69, 52
1, 63795, Control_c, 0, 64, 72
1, 63810, Control_c, 0, 64, 82
1, 63816, Note_off_c, 0, 88, 59
1, 63819, Note_off_c, 0, 67, 54
1, 63822, Note_on_c, 0, 70, 60
1, 63825, Note_off_c, 0, 69, 60
1, 63831, Note_on_c, 0, 84, 56
1, 63854, Control_c, 0, 64, 83
1, 63860, Note_off_c, 0, 70, 57
1, 63860, Note_off_c, 0, 86, 56
1, 63869, Control_c, 0, 64, 85
1, 63891, Note_off_c, 0, 84, 60
1, 63891, Control_c, 0, 64, 87
1, 63913, Note_on_c, 0, 79, 51
1, 63917, Note_on_c, 0, 76, 44
1, 63962, Note_off_c, 0, 76, 45
1, 63988, Note_on_c, 0, 70, 45
1, 63996, Note_on_c, 0, 84, 51
1, 64007, Note_off_c, 0, 79, 36
1, 64024, Note_off_c, 0, 70, 54
1, 64036, Note_on_c, 0, 69, 53
1, 64052, Note_on_c, 0, 86, 62
1, 64085, Note_off_c, 0, 84, 61
1, 64116, Note_off_c, 0, 69, 57
1, 64132, Note_off_c, 0, 86, 56
1, 64141, Note_on_c, 0, 88, 58
1, 64142, Note_on_c, 0, 67, 45
1, 64175, Note_off_c, 0, 67, 51
1, 64203, Control_c, 0, 64, 88
1, 64210, Note_on_c, 0, 60, 50
1, 64218, Control_c, 0, 64, 88
1, 64219, Note_off_c, 0, 88, 59
1, 64221, Note_on_c, 0, 94, 55
1, 64233, Control_c, 0, 64, 79
1, 64248, Control_c, 0, 64, 68
1, 64258, Note_off_c, 0, 94, 66
1, 64263, Control_c, 0, 64, 59
1, 64278, Control_c, 0, 64, 50
1, 64280, Note_off_c, 0, 60, 57
1, 64289, Note_on_c, 0, 88, 44
1, 64297, Note_on_c, 0, 67, 45
1, 64307, Control_c, 0, 64, 55
1, 64322, Control_c, 0, 64, 60
1, 64337, Control_c, 0, 64, 62
1, 64351, Control_c, 0, 64, 64
1, 64366, Control_c, 0, 64, 66
1, 64381, Control_c, 0, 64, 69
1, 64388, Note_on_c, 0, 69, 50
1, 64396, Control_c, 0, 64, 74
1, 64402, Note_on_c, 0, 86, 50
1, 64411, Control_c, 0, 64, 77
1, 64425, Control_c, 0, 64, 79
1, 64448, Note_off_c, 0, 67, 36
1, 64455, Control_c, 0, 64, 80
1, 64467, Note_off_c, 0, 69, 54
1, 64470, Control_c, 0, 64, 82
1, 64474, Note_on_c, 0, 70, 47
1, 64483, Note_off_c, 0, 88, 41
1, 64485, Control_c, 0, 64, 86
1, 64498, Note_on_c, 0, 84, 47
1, 64499, Control_c, 0, 64, 89
1, 64524, Note_off_c, 0, 86, 50
1, 64525, Note_off_c, 0, 70, 53
1, 64574, Note_on_c, 0, 79, 52
1, 64583, Note_off_c, 0, 84, 60
1, 64585, Note_on_c, 0, 76, 38
1, 64588, Control_c, 0, 64, 90
1, 64640, Control_c, 0, 64, 85
1, 64652, Note_off_c, 0, 79, 54
1, 64655, Control_c, 0, 64, 71
1, 64670, Control_c, 0, 64, 58
1, 64685, Control_c, 0, 64, 36
1, 64700, Control_c, 0, 64, 0
1, 64709, Note_off_c, 0, 76, 39
1, 64719, Note_on_c, 0, 89, 48
1, 64729, Control_c, 0, 64, 9
1, 64731, Note_on_c, 0, 68, 45
1, 64744, Control_c, 0, 64, 16
1, 64760, Control_c, 0, 64, 25
1, 64775, Control_c, 0, 64, 33
1, 64789, Control_c, 0, 64, 41
1, 64804, Control_c, 0, 64, 51
1, 64819, Control_c, 0, 64, 60
1, 64820, Note_on_c, 0, 88, 53
1, 64834, Control_c, 0, 64, 64
1, 64847, Note_on_c, 0, 69, 31
1, 64848, Control_c, 0, 64, 67
1, 64850, Note_off_c, 0, 89, 35
1, 64863, Control_c, 0, 64, 71
1, 64878, Control_c, 0, 64, 81
1, 64892, Note_off_c, 0, 68, 36
1, 64893, Control_c, 0, 64, 90
1, 64898, Note_on_c, 0, 86, 45
1, 64899, Note_off_c, 0, 69, 45
1, 64907, Note_off_c, 0, 88, 60
1, 64908, Control_c, 0, 64, 92
1, 64913, Note_on_c, 0, 71, 34
1, 64922, Control_c, 0, 64, 85
1, 64937, Control_c, 0, 64, 72
1, 64950, Note_on_c, 0, 80, 54
1, 64952, Control_c, 0, 64, 62
1, 64958, Note_on_c, 0, 77, 39
1, 64962, Note_off_c, 0, 86, 51
1, 64964, Note_off_c, 0, 71, 46
1, 64967, Control_c, 0, 64, 54
1, 64976, Note_off_c, 0, 80, 57
1, 64981, Control_c, 0, 64, 52
1, 64996, Control_c, 0, 64, 57
1, 65011, Control_c, 0, 64, 60
1, 65017, Note_on_c, 0, 68, 52
1, 65019, Note_off_c, 0, 77, 38
1, 65025, Note_on_c, 0, 89, 59
1, 65026, Control_c, 0, 64, 62
1, 65041, Control_c, 0, 64, 63
1, 65056, Control_c, 0, 64, 66
1, 65071, Control_c, 0, 64, 69
1, 65086, Control_c, 0, 64, 74
1, 65098, Note_on_c, 0, 88, 62
1, 65101, Control_c, 0, 64, 79
1, 65115, Control_c, 0, 64, 81
1, 65117, Note_on_c, 0, 69, 43
1, 65130, Control_c, 0, 64, 81
1, 65138, Note_off_c, 0, 89, 54
1, 65145, Control_c, 0, 64, 82
1, 65148, Note_on_c, 0, 71, 48
1, 65160, Control_c, 0, 64, 87
1, 65169, Note_on_c, 0, 86, 59
1, 65174, Control_c, 0, 64, 109
1, 65175, Note_off_c, 0, 68, 36
1, 65184, Note_off_c, 0, 69, 45
1, 65189, Control_c, 0, 64, 127
1, 65193, Note_off_c, 0, 88, 64
1, 65209, Note_off_c, 0, 86, 61
1, 65217, Note_off_c, 0, 71, 57
1, 65224, Note_on_c, 0, 77, 40
1, 65226, Note_on_c, 0, 80, 61
1, 65248, Control_c, 0, 64, 77
1, 65249, Note_off_c, 0, 80, 66
1, 65263, Control_c, 0, 64, 59
1, 65278, Control_c, 0, 64, 35
1, 65285, Note_off_c, 0, 77, 51
1, 65293, Control_c, 0, 64, 0
1, 65293, Note_on_c, 0, 88, 62
1, 65306, Note_on_c, 0, 67, 46
1, 65307, Control_c, 0, 64, 10
1, 65322, Control_c, 0, 64, 15
1, 65337, Control_c, 0, 64, 20
1, 65352, Control_c, 0, 64, 26
1, 65354, Note_on_c, 0, 69, 46
1, 65367, Control_c, 0, 64, 34
1, 65387, Note_on_c, 0, 86, 54
1, 65389, Control_c, 0, 64, 46
1, 65403, Note_off_c, 0, 67, 54
1, 65404, Control_c, 0, 64, 59
1, 65416, Note_on_c, 0, 85, 64
1, 65416, Note_on_c, 0, 70, 55
1, 65419, Control_c, 0, 64, 69
1, 65419, Note_off_c, 0, 88, 57
1, 65434, Control_c, 0, 64, 82
1, 65443, Note_off_c, 0, 86, 56
1, 65449, Control_c, 0, 64, 84
1, 65449, Note_off_c, 0, 69, 57
1, 65463, Control_c, 0, 64, 77
1, 65478, Control_c, 0, 64, 69
1, 65485, Note_off_c, 0, 70, 57
1, 65490, Note_on_c, 0, 76, 46
1, 65493, Control_c, 0, 64, 63
1, 65494, Note_on_c, 0, 79, 58
1, 65494, Note_off_c, 0, 85, 59
1, 65507, Control_c, 0, 64, 59
1, 65522, Control_c, 0, 64, 59
1, 65537, Control_c, 0, 64, 61
1, 65553, Control_c, 0, 64, 62
1, 65557, Note_on_c, 0, 88, 65
1, 65563, Note_on_c, 0, 67, 52
1, 65566, Note_off_c, 0, 79, 56
1, 65568, Control_c, 0, 64, 62
1, 65583, Control_c, 0, 64, 63
1, 65598, Control_c, 0, 64, 64
1, 65604, Note_off_c, 0, 76, 37
1, 65612, Control_c, 0, 64, 67
1, 65627, Control_c, 0, 64, 71
1, 65640, Note_on_c, 0, 69, 45
1, 65642, Control_c, 0, 64, 76
1, 65643, Note_on_c, 0, 86, 64
1, 65657, Control_c, 0, 64, 79
1, 65668, Note_off_c, 0, 67, 61
1, 65671, Control_c, 0, 64, 80
1, 65686, Control_c, 0, 64, 82
1, 65693, Note_off_c, 0, 69, 57
1, 65696, Note_off_c, 0, 88, 60
1, 65698, Note_on_c, 0, 70, 44
1, 65701, Control_c, 0, 64, 89
1, 65709, Note_on_c, 0, 85, 56
1, 65716, Control_c, 0, 64, 108
1, 65731, Control_c, 0, 64, 127
1, 65732, Note_off_c, 0, 70, 50
1, 65733, Note_off_c, 0, 86, 58
1, 65747, Note_on_c, 0, 76, 46
1, 65759, Note_on_c, 0, 79, 57
1, 65764, Note_off_c, 0, 85, 53
1, 65775, Control_c, 0, 64, 79
1, 65786, Note_off_c, 0, 79, 56
1, 65790, Control_c, 0, 64, 60
1, 65804, Control_c, 0, 64, 34
1, 65815, Note_off_c, 0, 76, 51
1, 65819, Control_c, 0, 64, 0
1, 65826, Note_on_c, 0, 68, 60
1, 65828, Note_on_c, 0, 89, 66
1, 65864, Control_c, 0, 64, 14
1, 65879, Control_c, 0, 64, 27
1, 65891, Note_on_c, 0, 88, 62
1, 65893, Control_c, 0, 64, 37
1, 65907, Note_on_c, 0, 69, 38
1, 65908, Control_c, 0, 64, 48
1, 65923, Control_c, 0, 64, 60
1, 65935, Note_on_c, 0, 71, 60
1, 65936, Note_off_c, 0, 68, 57
1, 65936, Note_off_c, 0, 89, 60
1, 65938, Control_c, 0, 64, 71
1, 65950, Note_on_c, 0, 86, 67
1, 65953, Control_c, 0, 64, 94
1, 65968, Control_c, 0, 64, 115
1, 65980, Note_off_c, 0, 88, 64
1, 65983, Control_c, 0, 64, 127
1, 65986, Note_off_c, 0, 69, 37
1, 66005, Note_on_c, 0, 77, 57
1, 66012, Note_off_c, 0, 71, 58
1, 66016, Note_on_c, 0, 80, 70
1, 66027, Control_c, 0, 64, 85
1, 66040, Note_off_c, 0, 86, 57
1, 66042, Control_c, 0, 64, 67
1, 66057, Control_c, 0, 64, 55
1, 66067, Note_off_c, 0, 80, 61
1, 66071, Control_c, 0, 64, 50
1, 66077, Note_on_c, 0, 68, 46
1, 66079, Note_off_c, 0, 77, 52
1, 66086, Note_on_c, 0, 89, 69
1, 66086, Control_c, 0, 64, 55
1, 66101, Control_c, 0, 64, 60
1, 66123, Control_c, 0, 64, 64
1, 66127, Note_on_c, 0, 69, 57
1, 66138, Control_c, 0, 64, 68
1, 66153, Control_c, 0, 64, 72
1, 66163, Note_on_c, 0, 88, 71
1, 66168, Control_c, 0, 64, 79
1, 66183, Control_c, 0, 64, 90
1, 66197, Control_c, 0, 64, 107
1, 66204, Note_off_c, 0, 68, 57
1, 66212, Control_c, 0, 64, 127
1, 66214, Note_on_c, 0, 71, 61
1, 66215, Note_off_c, 0, 89, 62
1, 66221, Note_off_c, 0, 69, 63
1, 66225, Note_on_c, 0, 86, 73
1, 66254, Note_off_c, 0, 88, 65
1, 66257, Note_off_c, 0, 71, 57
1, 66293, Note_on_c, 0, 77, 50
1, 66294, Note_on_c, 0, 80, 66
1, 66298, Note_off_c, 0, 86, 61
1, 66316, Control_c, 0, 64, 76
1, 66330, Control_c, 0, 64, 55
1, 66345, Note_off_c, 0, 77, 55
1, 66345, Control_c, 0, 64, 0
1, 66354, Note_off_c, 0, 80, 62
1, 66356, Note_on_c, 0, 90, 71
1, 66359, Note_on_c, 0, 69, 49
1, 66406, Control_c, 0, 64, 11
1, 66421, Control_c, 0, 64, 28
1, 66430, Note_on_c, 0, 70, 64
1, 66435, Note_on_c, 0, 88, 68
1, 66435, Control_c, 0, 64, 42
1, 66450, Control_c, 0, 64, 55
1, 66465, Control_c, 0, 64, 67
1, 66469, Note_on_c, 0, 72, 61
1, 66472, Note_off_c, 0, 69, 59
1, 66480, Control_c, 0, 64, 89
1, 66492, Note_on_c, 0, 87, 73
1, 66495, Control_c, 0, 64, 113
1, 66509, Control_c, 0, 64, 127
1, 66522, Note_off_c, 0, 70, 55
1, 66525, Note_off_c, 0, 90, 62
1, 66531, Note_off_c, 0, 88, 64
1, 66552, Note_on_c, 0, 78, 60
1, 66552, Note_on_c, 0, 81, 69
1, 66558, Note_off_c, 0, 72, 58
1, 66574, Note_off_c, 0, 87, 62
1, 66583, Control_c, 0, 64, 86
1, 66598, Control_c, 0, 64, 66
1, 66607, Note_off_c, 0, 81, 58
1, 66613, Control_c, 0, 64, 59
1, 66614, Note_on_c, 0, 69, 60
1, 66621, Note_on_c, 0, 90, 85
1, 66627, Control_c, 0, 64, 61
1, 66636, Note_off_c, 0, 78, 60
1, 66642, Control_c, 0, 64, 65
1, 66652, Note_on_c, 0, 70, 64
1, 66657, Control_c, 0, 64, 69
1, 66672, Control_c, 0, 64, 74
1, 66687, Control_c, 0, 64, 82
1, 66701, Control_c, 0, 64, 96
1, 66707, Note_on_c, 0, 88, 69
1, 66716, Control_c, 0, 64, 127
1, 66724, Note_off_c, 0, 69, 60
1, 66725, Note_on_c, 0, 72, 65
1, 66761, Note_off_c, 0, 70, 61
1, 66763, Note_on_c, 0, 87, 73
1, 66788, Note_off_c, 0, 72, 61
1, 66792, Note_off_c, 0, 90, 64
1, 66801, Note_off_c, 0, 88, 65
1, 66806, Note_on_c, 0, 78, 61
1, 66818, Note_on_c, 0, 81, 69
1, 66832, Note_off_c, 0, 87, 63
1, 66833, Note_off_c, 0, 78, 57
1, 66859, Note_off_c, 0, 81, 55
1, 66865, Control_c, 0, 64, 68
1, 66887, Control_c, 0, 64, 47
1, 66894, Note_on_c, 0, 70, 63
1, 66895, Note_on_c, 0, 91, 83
1, 66901, Control_c, 0, 64, 0
1, 66931, Control_c, 0, 64, 16
1, 66946, Control_c, 0, 64, 29
1, 66961, Control_c, 0, 64, 40
1, 66968, Note_on_c, 0, 89, 69
1, 66970, Note_on_c, 0, 72, 63
1, 66976, Control_c, 0, 64, 52
1, 66990, Control_c, 0, 64, 63
1, 67005, Control_c, 0, 64, 76
1, 67020, Control_c, 0, 64, 88
1, 67023, Note_on_c, 0, 73, 63
1, 67026, Note_on_c, 0, 88, 72
1, 67035, Control_c, 0, 64, 95
1, 67038, Note_off_c, 0, 91, 51
1, 67046, Note_off_c, 0, 70, 54
1, 67050, Control_c, 0, 64, 114
1, 67062, Note_off_c, 0, 89, 63
1, 67065, Control_c, 0, 64, 127
1, 67076, Note_on_c, 0, 79, 69
1, 67077, Note_off_c, 0, 72, 56
1, 67090, Note_on_c, 0, 82, 80
1, 67092, Note_off_c, 0, 73, 59
1, 67105, Note_off_c, 0, 88, 62
1, 67154, Note_on_c, 0, 91, 78
1, 67157, Note_off_c, 0, 82, 64
1, 67158, Note_on_c, 0, 70, 72
1, 67186, Note_off_c, 0, 79, 55
1, 67226, Note_on_c, 0, 89, 78
1, 67227, Note_on_c, 0, 72, 64
1, 67292, Note_on_c, 0, 73, 75
1, 67298, Note_on_c, 0, 88, 80
1, 67299, Note_off_c, 0, 91, 58
1, 67302, Note_off_c, 0, 70, 57
1, 67324, Note_off_c, 0, 72, 61
1, 67328, Note_off_c, 0, 89, 65
1, 67359, Note_on_c, 0, 79, 60
1, 67360, Note_on_c, 0, 82, 80
1, 67365, Note_off_c, 0, 73, 61
1, 67367, Note_off_c, 0, 88, 65
1, 67406, Control_c, 0, 64, 74
1, 67421, Control_c, 0, 64, 50
1, 67424, Note_on_c, 0, 69, 66
1, 67426, Note_on_c, 0, 90, 83
1, 67427, Note_off_c, 0, 82, 63
1, 67434, Note_off_c, 0, 79, 53
1, 67436, Control_c, 0, 64, 0
1, 67480, Control_c, 0, 64, 19
1, 67491, Note_on_c, 0, 70, 73
1, 67495, Control_c, 0, 64, 35
1, 67501, Note_on_c, 0, 88, 75
1, 67510, Control_c, 0, 64, 49
1, 67524, Control_c, 0, 64, 63
1, 67540, Control_c, 0, 64, 82
1, 67548, Note_off_c, 0, 69, 59
1, 67548, Note_on_c, 0, 72, 71
1, 67555, Control_c, 0, 64, 108
1, 67569, Control_c, 0, 64, 122
1, 67579, Note_on_c, 0, 87, 70
1, 67584, Control_c, 0, 64, 127
1, 67593, Note_off_c, 0, 90, 65
1, 67601, Note_off_c, 0, 88, 65
1, 67610, Note_off_c, 0, 70, 51
1, 67630, Note_on_c, 0, 81, 80
1, 67634, Note_on_c, 0, 78, 74
1, 67643, Note_off_c, 0, 72, 59
1, 67654, Note_off_c, 0, 87, 64
1, 67689, Note_off_c, 0, 81, 50
1, 67694, Note_on_c, 0, 90, 92
1, 67697, Note_on_c, 0, 69, 66
1, 67722, Note_off_c, 0, 78, 61
1, 67742, Note_on_c, 0, 70, 73
1, 67765, Note_on_c, 0, 88, 80
1, 67815, Note_on_c, 0, 72, 73
1, 67826, Note_on_c, 0, 87, 77
1, 67833, Note_off_c, 0, 69, 60
1, 67852, Note_off_c, 0, 70, 61
1, 67869, Note_off_c, 0, 90, 65
1, 67871, Note_off_c, 0, 88, 64
1, 67874, Note_off_c, 0, 72, 63
1, 67876, Note_on_c, 0, 78, 80
1, 67890, Note_on_c, 0, 81, 78
1, 67903, Note_off_c, 0, 87, 64
1, 67917, Control_c, 0, 64, 90
1, 67932, Control_c, 0, 64, 58
1, 67935, Note_off_c, 0, 81, 59
1, 67948, Control_c, 0, 64, 13
1, 67950, Note_on_c, 0, 70, 82
1, 67953, Note_off_c, 0, 78, 61
1, 67958, Note_on_c, 0, 91, 88
1, 67963, Control_c, 0, 64, 0
1, 67992, Control_c, 0, 64, 28
1, 68007, Control_c, 0, 64, 42
1, 68022, Control_c, 0, 64, 56
1, 68023, Note_on_c, 0, 89, 77
1, 68031, Note_on_c, 0, 72, 73
1, 68037, Control_c, 0, 64, 68
1, 68052, Control_c, 0, 64, 86
1, 68067, Control_c, 0, 64, 98
1, 68078, Note_on_c, 0, 73, 53
1, 68081, Control_c, 0, 64, 117
1, 68093, Note_on_c, 0, 88, 78
1, 68096, Control_c, 0, 64, 127
1, 68109, Note_off_c, 0, 91, 54
1, 68121, Note_off_c, 0, 70, 60
1, 68127, Note_off_c, 0, 72, 57
1, 68129, Note_off_c, 0, 89, 61
1, 68140, Note_on_c, 0, 79, 76
1, 68156, Note_on_c, 0, 82, 82
1, 68170, Note_off_c, 0, 73, 62
1, 68174, Note_off_c, 0, 88, 64
1, 68219, Note_on_c, 0, 70, 83
1, 68219, Note_on_c, 0, 91, 85
1, 68220, Note_off_c, 0, 82, 65
1, 68241, Note_off_c, 0, 79, 50
1, 68283, Note_on_c, 0, 72, 70
1, 68283, Note_on_c, 0, 89, 78
1, 68353, Note_on_c, 0, 88, 84
1, 68356, Note_on_c, 0, 73, 74
1, 68376, Note_off_c, 0, 91, 52
1, 68382, Note_off_c, 0, 70, 58
1, 68385, Note_off_c, 0, 89, 65
1, 68408, Note_off_c, 0, 72, 59
1, 68418, Note_on_c, 0, 79, 66
1, 68422, Note_on_c, 0, 82, 87
1, 68444, Note_off_c, 0, 88, 66
1, 68446, Note_off_c, 0, 73, 62
1, 68460, Control_c, 0, 64, 92
1, 68474, Control_c, 0, 64, 59
1, 68489, Control_c, 0, 64, 19
1, 68490, Note_off_c, 0, 82, 65
1, 68494, Note_on_c, 0, 71, 72
1, 68502, Note_on_c, 0, 92, 93
1, 68504, Note_off_c, 0, 79, 59
1, 68504, Control_c, 0, 64, 0
1, 68519, Control_c, 0, 64, 24
1, 68533, Control_c, 0, 64, 42
1, 68548, Control_c, 0, 64, 59
1, 68562, Note_on_c, 0, 72, 66
1, 68563, Control_c, 0, 64, 73
1, 68578, Control_c, 0, 64, 104
1, 68585, Note_on_c, 0, 91, 80
1, 68593, Control_c, 0, 64, 127
1, 68618, Note_on_c, 0, 74, 78
1, 68624, Note_off_c, 0, 71, 64
1, 68663, Note_off_c, 0, 92, 57
1, 68669, Note_on_c, 0, 89, 82
1, 68669, Note_off_c, 0, 72, 63
1, 68693, Note_off_c, 0, 74, 64
1, 68701, Note_on_c, 0, 80, 76
1, 68707, Note_off_c, 0, 91, 58
1, 68738, Note_off_c, 0, 80, 61
1, 68742, Note_on_c, 0, 83, 90
1, 68774, Note_off_c, 0, 89, 65
1, 68823, Note_on_c, 0, 65, 72
1, 68878, Note_off_c, 0, 83, 62
1, 68903, Note_on_c, 0, 72, 70
1, 68904, Control_c, 0, 64, 67
1, 68919, Control_c, 0, 64, 20
1, 68922, Note_off_c, 0, 65, 67
1, 68934, Control_c, 0, 64, 0
1, 68966, Note_on_c, 0, 81, 106
1, 68976, Note_on_c, 0, 93, 102
1, 68979, Control_c, 0, 64, 21
1, 68994, Control_c, 0, 64, 42
1, 69008, Control_c, 0, 64, 59
1, 69021, Note_off_c, 0, 72, 0
1, 69021, Note_on_c, 0, 72, 24
1, 69023, Control_c, 0, 64, 80
1, 69038, Control_c, 0, 64, 127
1, 69075, Note_on_c, 0, 91, 75
1, 69122, Note_off_c, 0, 93, 59
1, 69143, Note_on_c, 0, 89, 74
1, 69146, Note_off_c, 0, 81, 55
1, 69161, Note_off_c, 0, 91, 60
1, 69190, Note_off_c, 0, 89, 64
1, 69205, Note_on_c, 0, 84, 80
1, 69222, Note_off_c, 0, 72, 41
1, 69251, Note_off_c, 0, 84, 64
1, 69279, Note_on_c, 0, 81, 86
1, 69347, Note_on_c, 0, 79, 74
1, 69396, Note_on_c, 0, 77, 79
1, 69399, Note_off_c, 0, 81, 60
1, 69413, Note_off_c, 0, 79, 61
1, 69441, Note_off_c, 0, 77, 63
1, 69461, Note_on_c, 0, 72, 74
1, 69491, Note_off_c, 0, 72, 62
1, 69503, Control_c, 0, 64, 72
1, 69518, Control_c, 0, 64, 49
1, 69532, Note_on_c, 0, 69, 82
1, 69533, Control_c, 0, 64, 0
1, 69537, Note_on_c, 0, 60, 80
1, 69543, Note_on_c, 0, 53, 79
1, 69558, Note_off_c, 0, 60, 71
1, 69567, Note_off_c, 0, 53, 68
1, 69609, Note_on_c, 0, 67, 69
1, 69654, Note_off_c, 0, 69, 60
1, 69662, Note_on_c, 0, 65, 76
1, 69675, Note_off_c, 0, 67, 60
1, 69712, Note_off_c, 0, 65, 65
1, 69733, Note_on_c, 0, 60, 73
1, 69767, Note_off_c, 0, 60, 62
1, 69804, Note_on_c, 0, 57, 77
1, 69809, Note_on_c, 0, 41, 75
1, 69815, Note_on_c, 0, 48, 62
1, 69837, Note_off_c, 0, 41, 68
1, 69838, Note_off_c, 0, 48, 60
1, 69882, Note_on_c, 0, 55, 66
1, 69925, Note_off_c, 0, 57, 60
1, 69936, Note_on_c, 0, 53, 67
1, 69950, Note_off_c, 0, 55, 60
1, 69989, Note_off_c, 0, 53, 61
1, 70001, Note_on_c, 0, 48, 64
1, 70068, Note_off_c, 0, 48, 61
1, 70080, Note_on_c, 0, 41, 87
1, 70085, Note_on_c, 0, 29, 69
1, 70089, Control_c, 0, 64, 19
1, 70091, Note_on_c, 0, 53, 69
1, 70103, Control_c, 0, 64, 38
1, 70114, Note_off_c, 0, 29, 55
1, 70114, Note_off_c, 0, 41, 66
1, 70118, Control_c, 0, 64, 56
1, 70133, Control_c, 0, 64, 76
1, 70148, Control_c, 0, 64, 127
1, 70154, Note_on_c, 0, 55, 63
1, 70178, Note_off_c, 0, 53, 63
1, 70213, Note_on_c, 0, 57, 57
1, 70227, Note_off_c, 0, 55, 64
1, 70240, Note_off_c, 0, 57, 63
1, 70296, Note_on_c, 0, 60, 68
1, 70341, Control_c, 0, 64, 68
1, 70356, Control_c, 0, 64, 34
1, 70358, Note_off_c, 0, 60, 59
1, 70371, Control_c, 0, 64, 0
1, 70377, Note_on_c, 0, 50, 88
1, 70385, Note_on_c, 0, 65, 72
1, 70457, Note_on_c, 0, 67, 62
1, 70480, Note_off_c, 0, 65, 60
1, 70532, Note_on_c, 0, 69, 60
1, 70537, Note_off_c, 0, 67, 63
1, 70557, Note_off_c, 0, 69, 66
1, 70559, Note_off_c, 0, 50, 61
1, 70592, Note_on_c, 0, 48, 65
1, 70628, Note_on_c, 0, 72, 66
1, 70672, Note_on_c, 0, 57, 94
1, 70687, Note_off_c, 0, 72, 56
1, 70690, Control_c, 0, 64, 9
1, 70695, Note_on_c, 0, 77, 72
1, 70705, Control_c, 0, 64, 32
1, 70719, Control_c, 0, 64, 43
1, 70734, Control_c, 0, 64, 59
1, 70749, Control_c, 0, 64, 70
1, 70755, Note_on_c, 0, 79, 70
1, 70764, Control_c, 0, 64, 77
1, 70779, Note_off_c, 0, 77, 60
1, 70793, Control_c, 0, 64, 81
1, 70803, Note_off_c, 0, 57, 56
1, 70808, Control_c, 0, 64, 109
1, 70813, Note_on_c, 0, 81, 66
1, 70823, Control_c, 0, 64, 127
1, 70831, Note_off_c, 0, 79, 62
1, 70842, Note_off_c, 0, 81, 66
1, 70897, Control_c, 0, 64, 85
1, 70903, Note_on_c, 0, 84, 68
1, 70912, Control_c, 0, 64, 60
1, 70926, Control_c, 0, 64, 36
1, 70941, Control_c, 0, 64, 31
1, 70945, Note_off_c, 0, 48, 57
1, 70956, Control_c, 0, 64, 44
1, 70958, Note_on_c, 0, 53, 95
1, 70964, Note_off_c, 0, 84, 59
1, 70969, Note_on_c, 0, 89, 88
1, 70971, Control_c, 0, 64, 57
1, 70986, Control_c, 0, 64, 72
1, 71000, Control_c, 0, 64, 108
1, 71007, Note_off_c, 0, 53, 63
1, 71015, Control_c, 0, 64, 127
1, 71041, Note_on_c, 0, 91, 77
1, 71071, Note_off_c, 0, 89, 63
1, 71107, Note_on_c, 0, 93, 75
1, 71107, Note_off_c, 0, 91, 59
1, 71172, Note_on_c, 0, 45, 66
1, 71203, Note_on_c, 0, 91, 68
1, 71209, Control_c, 0, 64, 98
1, 71223, Note_off_c, 0, 93, 52
1, 71223, Control_c, 0, 64, 58
1, 71238, Control_c, 0, 64, 0
1, 71247, Note_off_c, 0, 45, 64
1, 71249, Note_on_c, 0, 48, 86
1, 71252, Note_on_c, 0, 41, 75
1, 71264, Note_on_c, 0, 89, 73
1, 71268, Note_off_c, 0, 91, 59
1, 71301, Note_off_c, 0, 89, 64
1, 71331, Note_on_c, 0, 84, 68
1, 71358, Note_off_c, 0, 84, 66
1, 71414, Note_on_c, 0, 81, 74
1, 71438, Control_c, 0, 64, 26
1, 71453, Control_c, 0, 64, 42
1, 71468, Control_c, 0, 64, 56
1, 71483, Control_c, 0, 64, 66
1, 71485, Note_on_c, 0, 79, 72
1, 71498, Control_c, 0, 64, 72
1, 71521, Note_off_c, 0, 81, 56
1, 71527, Control_c, 0, 64, 75
1, 71533, Note_off_c, 0, 48, 63
1, 71542, Control_c, 0, 64, 78
1, 71544, Note_on_c, 0, 77, 72
1, 71554, Note_off_c, 0, 79, 61
1, 71557, Control_c, 0, 64, 82
1, 71572, Control_c, 0, 64, 82
1, 71572, Note_off_c, 0, 77, 64
1, 71602, Note_on_c, 0, 72, 69
1, 71628, Note_off_c, 0, 72, 65
1, 71631, Control_c, 0, 64, 83
1, 71646, Control_c, 0, 64, 90
1, 71660, Control_c, 0, 64, 101
1, 71670, Note_on_c, 0, 69, 74
1, 71675, Control_c, 0, 64, 105
1, 71734, Control_c, 0, 64, 101
1, 71748, Note_on_c, 0, 67, 68
1, 71749, Control_c, 0, 64, 89
1, 71764, Control_c, 0, 64, 72
1, 71769, Note_on_c, 0, 47, 71
1, 71779, Control_c, 0, 64, 59
1, 71784, Note_off_c, 0, 69, 57
1, 71794, Control_c, 0, 64, 26
1, 71800, Note_on_c, 0, 65, 70
1, 71802, Note_off_c, 0, 67, 62
1, 71809, Control_c, 0, 64, 0
1, 71821, Note_off_c, 0, 41, 32
1, 71822, Note_on_c, 0, 48, 91
1, 71832, Note_off_c, 0, 47, 65
1, 71849, Note_off_c, 0, 65, 66
1, 71857, Note_off_c, 0, 48, 67
1, 71871, Note_on_c, 0, 60, 70
1, 71897, Note_off_c, 0, 60, 68
1, 71944, Note_on_c, 0, 57, 74
1, 72036, Note_on_c, 0, 55, 51
1, 72063, Note_off_c, 0, 57, 40
1, 72079, Note_off_c, 0, 55, 65
1, 72085, Note_on_c, 0, 53, 73
1, 72103, Note_on_c, 0, 48, 66
1, 72138, Note_off_c, 0, 48, 66
1, 72144, Note_off_c, 0, 53, 60
1, 72180, Note_on_c, 0, 48, 66
1, 72228, Note_off_c, 0, 48, 64
1, 72250, Note_on_c, 0, 53, 72
1, 72306, Note_off_c, 0, 53, 63
1, 72308, Note_on_c, 0, 57, 56
1, 72383, Note_on_c, 0, 40, 74
1, 72386, Note_on_c, 0, 28, 66
1, 72386, Note_on_c, 0, 55, 65
1, 72395, Control_c, 0, 64, 13
1, 72410, Control_c, 0, 64, 26
1, 72416, Note_off_c, 0, 40, 65
1, 72417, Note_off_c, 0, 28, 66
1, 72425, Control_c, 0, 64, 41
1, 72427, Note_off_c, 0, 57, 61
1, 72439, Control_c, 0, 64, 56
1, 72451, Note_off_c, 0, 55, 65
1, 72454, Control_c, 0, 64, 71
1, 72460, Note_on_c, 0, 48, 65
1, 72469, Control_c, 0, 64, 79
1, 72498, Control_c, 0, 64, 80
1, 72500, Note_off_c, 0, 48, 66
1, 72513, Control_c, 0, 64, 83
1, 72528, Control_c, 0, 64, 86
1, 72538, Note_on_c, 0, 55, 70
1, 72543, Control_c, 0, 64, 90
1, 72557, Control_c, 0, 64, 97
1, 72572, Control_c, 0, 64, 119
1, 72587, Control_c, 0, 64, 127
1, 72603, Note_on_c, 0, 57, 61
1, 72612, Note_off_c, 0, 55, 59
1, 72617, Control_c, 0, 64, 119
1, 72631, Control_c, 0, 64, 85
1, 72646, Control_c, 0, 64, 63
1, 72654, Note_on_c, 0, 58, 64
1, 72661, Control_c, 0, 64, 43
1, 72670, Note_off_c, 0, 57, 59
1, 72672, Note_on_c, 0, 50, 82
1, 72676, Control_c, 0, 64, 0
1, 72690, Note_off_c, 0, 58, 65
1, 72736, Note_on_c, 0, 60, 66
1, 72783, Note_off_c, 0, 60, 61
1, 72819, Note_on_c, 0, 67, 72
1, 72900, Note_on_c, 0, 48, 75
1, 72900, Note_on_c, 0, 69, 62
1, 72900, Note_off_c, 0, 50, 61
1, 72911, Note_off_c, 0, 67, 59
1, 72954, Note_on_c, 0, 70, 65
1, 72967, Note_off_c, 0, 69, 63
1, 72975, Note_on_c, 0, 55, 91
1, 72983, Note_off_c, 0, 70, 65
1, 73010, Control_c, 0, 64, 23
1, 73025, Control_c, 0, 64, 36
1, 73031, Note_off_c, 0, 48, 64
1, 73033, Note_on_c, 0, 72, 71
1, 73039, Note_off_c, 0, 55, 65
1, 73040, Control_c, 0, 64, 53
1, 73055, Control_c, 0, 64, 66
1, 73069, Control_c, 0, 64, 87
1, 73084, Control_c, 0, 64, 98
1, 73086, Note_off_c, 0, 72, 61
1, 73099, Control_c, 0, 64, 107
1, 73110, Note_on_c, 0, 79, 76
1, 73113, Control_c, 0, 64, 127
1, 73176, Note_on_c, 0, 81, 71
1, 73193, Note_off_c, 0, 79, 60
1, 73247, Note_on_c, 0, 82, 73
1, 73248, Note_on_c, 0, 62, 95
1, 73266, Note_off_c, 0, 81, 60
1, 73288, Note_off_c, 0, 62, 65
1, 73293, Note_off_c, 0, 82, 62
1, 73326, Note_on_c, 0, 84, 77
1, 73391, Note_off_c, 0, 84, 58
1, 73409, Note_on_c, 0, 91, 93
1, 73492, Note_on_c, 0, 40, 58
1, 73509, Note_on_c, 0, 93, 84
1, 73522, Note_off_c, 0, 91, 58
1, 73552, Note_on_c, 0, 48, 66
1, 73566, Note_off_c, 0, 40, 62
1, 73644, Note_off_c, 0, 93, 61
1, 73660, Note_on_c, 0, 94, 76
1, 73668, Note_on_c, 0, 60, 94
1, 73685, Control_c, 0, 64, 62
1, 73700, Control_c, 0, 64, 0
1, 73758, Note_on_c, 0, 93, 73
1, 73789, Control_c, 0, 64, 26
1, 73797, Note_off_c, 0, 94, 50
1, 73804, Control_c, 0, 64, 46
1, 73818, Control_c, 0, 64, 62
1, 73823, Note_on_c, 0, 91, 70
1, 73833, Control_c, 0, 64, 84
1, 73834, Note_off_c, 0, 93, 62
1, 73848, Control_c, 0, 64, 127
1, 73850, Note_off_c, 0, 91, 62
1, 73888, Note_off_c, 0, 60, 60
1, 73890, Note_on_c, 0, 84, 67
1, 73917, Note_off_c, 0, 84, 66
1, 73951, Note_on_c, 0, 82, 83
1, 73970, Note_off_c, 0, 48, 64
1, 74027, Note_on_c, 0, 81, 76
1, 74082, Note_off_c, 0, 82, 60
1, 74083, Note_on_c, 0, 79, 70
1, 74097, Note_off_c, 0, 81, 63
1, 74119, Note_off_c, 0, 79, 61
1, 74149, Note_on_c, 0, 47, 78
1, 74151, Note_on_c, 0, 72, 69
1, 74183, Note_off_c, 0, 72, 64
1, 74199, Note_on_c, 0, 48, 93
1, 74204, Control_c, 0, 64, 65
1, 74209, Note_off_c, 0, 47, 65
1, 74218, Control_c, 0, 64, 41
1, 74222, Note_on_c, 0, 70, 78
1, 74233, Control_c, 0, 64, 0
1, 74234, Note_off_c, 0, 48, 69
1, 74300, Note_on_c, 0, 69, 69
1, 74351, Note_off_c, 0, 70, 57
1, 74360, Note_on_c, 0, 67, 71
1, 74368, Note_off_c, 0, 69, 63
1, 74398, Note_off_c, 0, 67, 63
1, 74438, Note_on_c, 0, 60, 63
1, 74458, Note_off_c, 0, 60, 67
1, 74496, Note_on_c, 0, 48, 68
1, 74504, Note_on_c, 0, 58, 76
1, 74522, Note_off_c, 0, 48, 66
1, 74577, Note_on_c, 0, 57, 61
1, 74610, Note_off_c, 0, 58, 38
1, 74624, Note_on_c, 0, 55, 70
1, 74648, Note_off_c, 0, 57, 60
1, 74699, Note_off_c, 0, 55, 40
1, 74708, Note_on_c, 0, 48, 61
1, 74761, Note_off_c, 0, 48, 63
1, 74774, Note_on_c, 0, 40, 76
1, 74780, Note_on_c, 0, 28, 57
1, 74784, Note_on_c, 0, 55, 67
1, 74805, Control_c, 0, 64, 29
1, 74808, Note_off_c, 0, 40, 66
1, 74811, Note_off_c, 0, 28, 52
1, 74820, Control_c, 0, 64, 44
1, 74834, Control_c, 0, 64, 58
1, 74846, Note_on_c, 0, 57, 64
1, 74849, Control_c, 0, 64, 69
1, 74864, Control_c, 0, 64, 74
1, 74873, Note_off_c, 0, 55, 64
1, 74879, Control_c, 0, 64, 74
1, 74893, Control_c, 0, 64, 77
1, 74905, Note_on_c, 0, 58, 68
1, 74908, Control_c, 0, 64, 84
1, 74923, Control_c, 0, 64, 97
1, 74924, Note_off_c, 0, 57, 61
1, 74938, Control_c, 0, 64, 127
1, 74939, Note_off_c, 0, 58, 63
1, 74985, Note_on_c, 0, 60, 71
1, 75020, Note_off_c, 0, 60, 62
1, 75041, Control_c, 0, 64, 75
1, 75056, Control_c, 0, 64, 55
1, 75061, Note_on_c, 0, 50, 87
1, 75066, Note_on_c, 0, 67, 77
1, 75071, Control_c, 0, 64, 0
1, 75151, Note_on_c, 0, 69, 61
1, 75157, Note_off_c, 0, 67, 60
1, 75209, Note_on_c, 0, 70, 67
1, 75222, Note_off_c, 0, 69, 62
1, 75248, Note_off_c, 0, 70, 62
1, 75267, Note_off_c, 0, 50, 60
1, 75280, Note_on_c, 0, 48, 74
1, 75298, Note_on_c, 0, 72, 63
1, 75333, Note_off_c, 0, 72, 62
1, 75365, Note_on_c, 0, 58, 99
1, 75375, Note_on_c, 0, 79, 76
1, 75420, Control_c, 0, 64, 16
1, 75435, Control_c, 0, 64, 27
1, 75450, Control_c, 0, 64, 41
1, 75451, Note_on_c, 0, 81, 68
1, 75457, Note_off_c, 0, 79, 59
1, 75464, Control_c, 0, 64, 55
1, 75479, Control_c, 0, 64, 67
1, 75494, Control_c, 0, 64, 79
1, 75496, Note_on_c, 0, 82, 69
1, 75508, Control_c, 0, 64, 88
1, 75520, Note_off_c, 0, 81, 60
1, 75523, Control_c, 0, 64, 127
1, 75542, Note_off_c, 0, 82, 61
1, 75556, Note_off_c, 0, 58, 60
1, 75576, Note_on_c, 0, 84, 68
1, 75631, Note_off_c, 0, 84, 62
1, 75639, Note_off_c, 0, 48, 37
1, 75650, Note_on_c, 0, 55, 90
1, 75652, Note_on_c, 0, 91, 92
1, 75695, Note_off_c, 0, 55, 66
1, 75719, Note_on_c, 0, 93, 75
1, 75739, Note_off_c, 0, 91, 59
1, 75791, Note_on_c, 0, 94, 77
1, 75805, Note_off_c, 0, 93, 63
1, 75871, Note_on_c, 0, 43, 70
1, 75877, Note_on_c, 0, 93, 67
1, 75877, Note_off_c, 0, 94, 64
1, 75916, Control_c, 0, 64, 83
1, 75931, Control_c, 0, 64, 55
1, 75945, Note_off_c, 0, 43, 64
1, 75947, Control_c, 0, 64, 0
1, 75950, Note_on_c, 0, 48, 85
1, 75954, Note_on_c, 0, 40, 83
1, 75954, Note_on_c, 0, 91, 75
1, 75960, Note_off_c, 0, 93, 63
1, 75988, Note_off_c, 0, 91, 60
1, 76023, Note_on_c, 0, 84, 71
1, 76064, Note_off_c, 0, 84, 57
1, 76097, Note_on_c, 0, 82, 75
1, 76139, Control_c, 0, 64, 30
1, 76154, Control_c, 0, 64, 45
1, 76169, Control_c, 0, 64, 57
1, 76172, Note_on_c, 0, 81, 74
1, 76184, Control_c, 0, 64, 65
1, 76199, Control_c, 0, 64, 68
1, 76213, Control_c, 0, 64, 69
1, 76217, Note_off_c, 0, 48, 40
1, 76226, Note_off_c, 0, 82, 58
1, 76228, Control_c, 0, 64, 73
1, 76231, Note_on_c, 0, 79, 66
1, 76240, Note_off_c, 0, 81, 62
1, 76243, Control_c, 0, 64, 80
1, 76258, Control_c, 0, 64, 89
1, 76259, Note_off_c, 0, 79, 66
1, 76273, Control_c, 0, 64, 98
1, 76288, Control_c, 0, 64, 107
1, 76294, Note_on_c, 0, 72, 70
1, 76303, Control_c, 0, 64, 127
1, 76320, Note_off_c, 0, 72, 68
1, 76365, Note_on_c, 0, 70, 73
1, 76434, Note_on_c, 0, 69, 66
1, 76442, Note_on_c, 0, 47, 72
1, 76465, Control_c, 0, 64, 77
1, 76480, Control_c, 0, 64, 59
1, 76481, Note_on_c, 0, 67, 74
1, 76485, Note_off_c, 0, 70, 58
1, 76495, Control_c, 0, 64, 32
1, 76496, Note_off_c, 0, 69, 63
1, 76499, Note_on_c, 0, 48, 84
1, 76508, Note_off_c, 0, 47, 64
1, 76510, Control_c, 0, 64, 0
1, 76522, Note_off_c, 0, 67, 62
1, 76524, Note_off_c, 0, 40, 37
1, 76532, Note_off_c, 0, 48, 69
1, 76559, Note_on_c, 0, 60, 68
1, 76586, Note_off_c, 0, 60, 68
1, 76636, Note_on_c, 0, 58, 69
1, 76705, Note_on_c, 0, 57, 61
1, 76756, Note_off_c, 0, 58, 58
1, 76762, Note_on_c, 0, 55, 62
1, 76763, Note_on_c, 0, 48, 67
1, 76774, Note_off_c, 0, 57, 59
1, 76786, Note_off_c, 0, 48, 68
1, 76803, Note_off_c, 0, 55, 66
1, 76851, Note_on_c, 0, 48, 70
1, 76917, Note_off_c, 0, 48, 64
1, 76925, Note_on_c, 0, 55, 59
1, 76971, Note_off_c, 0, 55, 63
1, 76977, Note_on_c, 0, 58, 64
1, 77044, Note_on_c, 0, 41, 61
1, 77047, Note_on_c, 0, 57, 60
1, 77048, Note_on_c, 0, 29, 48
1, 77066, Control_c, 0, 64, 25
1, 77073, Note_off_c, 0, 58, 60
1, 77078, Note_off_c, 0, 41, 65
1, 77081, Control_c, 0, 64, 42
1, 77087, Note_off_c, 0, 29, 43
1, 77096, Control_c, 0, 64, 56
1, 77111, Control_c, 0, 64, 65
1, 77111, Note_off_c, 0, 57, 60
1, 77113, Note_on_c, 0, 48, 51
1, 77125, Control_c, 0, 64, 69
1, 77140, Control_c, 0, 64, 71
1, 77155, Control_c, 0, 64, 74
1, 77159, Note_off_c, 0, 48, 58
1, 77170, Control_c, 0, 64, 80
1, 77179, Note_on_c, 0, 53, 63
1, 77185, Control_c, 0, 64, 88
1, 77200, Control_c, 0, 64, 95
1, 77215, Control_c, 0, 64, 104
1, 77229, Note_on_c, 0, 55, 65
1, 77229, Control_c, 0, 64, 111
1, 77259, Control_c, 0, 64, 107
1, 77262, Note_off_c, 0, 53, 62
1, 77273, Control_c, 0, 64, 88
1, 77288, Control_c, 0, 64, 70
1, 77290, Note_on_c, 0, 57, 65
1, 77303, Control_c, 0, 64, 57
1, 77304, Note_on_c, 0, 50, 83
1, 77310, Note_off_c, 0, 55, 65
1, 77318, Control_c, 0, 64, 28
1, 77323, Note_off_c, 0, 57, 63
1, 77333, Control_c, 0, 64, 0
1, 77392, Note_on_c, 0, 60, 70
1, 77454, Note_off_c, 0, 60, 60
1, 77468, Note_on_c, 0, 65, 69
1, 77513, Note_on_c, 0, 48, 75
1, 77523, Note_off_c, 0, 50, 58
1, 77532, Note_on_c, 0, 67, 65
1, 77561, Note_off_c, 0, 65, 61
1, 77588, Note_on_c, 0, 69, 63
1, 77591, Note_on_c, 0, 53, 91
1, 77599, Note_off_c, 0, 67, 63
1, 77608, Control_c, 0, 64, 22
1, 77610, Note_off_c, 0, 48, 65
1, 77612, Note_off_c, 0, 69, 66
1, 77623, Control_c, 0, 64, 36
1, 77624, Note_off_c, 0, 53, 69
1, 77638, Control_c, 0, 64, 48
1, 77653, Control_c, 0, 64, 61
1, 77667, Control_c, 0, 64, 72
1, 77671, Note_on_c, 0, 72, 70
1, 77682, Control_c, 0, 64, 80
1, 77697, Control_c, 0, 64, 82
1, 77711, Control_c, 0, 64, 99
1, 77726, Control_c, 0, 64, 127
1, 77731, Note_off_c, 0, 72, 58
1, 77731, Note_on_c, 0, 77, 80
1, 77798, Note_on_c, 0, 79, 68
1, 77841, Note_off_c, 0, 77, 62
1, 77852, Note_on_c, 0, 81, 70
1, 77863, Note_on_c, 0, 65, 97
1, 77864, Note_off_c, 0, 79, 62
1, 77880, Note_off_c, 0, 81, 67
1, 77903, Note_off_c, 0, 65, 68
1, 77938, Note_on_c, 0, 84, 80
1, 78010, Note_on_c, 0, 89, 85
1, 78012, Note_off_c, 0, 84, 61
1, 78074, Note_on_c, 0, 93, 85
1, 78090, Note_off_c, 0, 89, 64
1, 78149, Control_c, 0, 64, 85
1, 78164, Control_c, 0, 64, 52
1, 78171, Note_on_c, 0, 65, 96
1, 78172, Note_on_c, 0, 62, 87
1, 78178, Note_on_c, 0, 58, 72
1, 78179, Control_c, 0, 64, 0
1, 78179, Note_on_c, 0, 91, 77
1, 78185, Note_on_c, 0, 53, 72
1, 78227, Note_off_c, 0, 93, 58
1, 78249, Note_on_c, 0, 89, 72
1, 78256, Note_off_c, 0, 91, 60
1, 78267, Control_c, 0, 64, 11
1, 78276, Note_off_c, 0, 89, 66
1, 78282, Control_c, 0, 64, 36
1, 78297, Control_c, 0, 64, 51
1, 78308, Note_on_c, 0, 86, 68
1, 78312, Control_c, 0, 64, 65
1, 78327, Control_c, 0, 64, 86
1, 78334, Note_off_c, 0, 86, 66
1, 78342, Control_c, 0, 64, 101
1, 78357, Control_c, 0, 64, 115
1, 78372, Control_c, 0, 64, 127
1, 78377, Note_on_c, 0, 82, 77
1, 78449, Note_on_c, 0, 79, 72
1, 78454, Note_off_c, 0, 62, 62
1, 78455, Note_off_c, 0, 65, 56
1, 78471, Note_off_c, 0, 82, 57
1, 78509, Note_on_c, 0, 77, 71
1, 78516, Note_off_c, 0, 79, 62
1, 78534, Note_off_c, 0, 77, 67
1, 78565, Note_off_c, 0, 53, 31
1, 78568, Note_on_c, 0, 74, 65
1, 78598, Note_off_c, 0, 74, 61
1, 78641, Note_on_c, 0, 70, 69
1, 78666, Note_off_c, 0, 70, 66
1, 78680, Note_off_c, 0, 58, 58
1, 78683, Control_c, 0, 64, 74
1, 78698, Control_c, 0, 64, 52
1, 78707, Note_on_c, 0, 72, 74
1, 78713, Control_c, 0, 64, 0
1, 78714, Note_on_c, 0, 65, 79
1, 78718, Note_on_c, 0, 57, 70
1, 78724, Note_on_c, 0, 60, 63
1, 78733, Note_off_c, 0, 65, 73
1, 78735, Note_on_c, 0, 53, 38
1, 78743, Note_off_c, 0, 60, 66
1, 78745, Note_off_c, 0, 57, 65
1, 78759, Note_off_c, 0, 72, 61
1, 78765, Note_off_c, 0, 53, 56
1, 78787, Note_on_c, 0, 77, 77
1, 78849, Note_on_c, 0, 79, 60
1, 78899, Note_off_c, 0, 77, 61
1, 78919, Note_on_c, 0, 81, 69
1, 78932, Note_off_c, 0, 79, 63
1, 78944, Note_off_c, 0, 81, 67
1, 78990, Note_on_c, 0, 57, 75
1, 78992, Note_on_c, 0, 60, 80
1, 78992, Note_on_c, 0, 65, 84
1, 78997, Note_on_c, 0, 84, 80
1, 79002, Note_on_c, 0, 53, 65
1, 79011, Note_off_c, 0, 65, 73
1, 79013, Note_off_c, 0, 60, 71
1, 79022, Note_off_c, 0, 53, 64
1, 79032, Note_off_c, 0, 57, 63
1, 79066, Note_on_c, 0, 89, 79
1, 79072, Note_off_c, 0, 84, 63
1, 79118, Note_on_c, 0, 91, 73
1, 79179, Note_off_c, 0, 89, 62
1, 79190, Note_on_c, 0, 93, 84
1, 79194, Note_off_c, 0, 91, 61
1, 79254, Note_on_c, 0, 62, 92
1, 79256, Note_on_c, 0, 65, 96
1, 79264, Note_on_c, 0, 53, 76
1, 79265, Note_on_c, 0, 58, 76
1, 79275, Note_on_c, 0, 91, 79
1, 79299, Control_c, 0, 64, 11
1, 79313, Control_c, 0, 64, 25
1, 79327, Note_off_c, 0, 93, 61
1, 79328, Control_c, 0, 64, 39
1, 79339, Note_on_c, 0, 89, 72
1, 79343, Note_off_c, 0, 91, 60
1, 79343, Control_c, 0, 64, 59
1, 79358, Control_c, 0, 64, 79
1, 79364, Note_off_c, 0, 89, 67
1, 79373, Control_c, 0, 64, 100
1, 79403, Control_c, 0, 64, 102
1, 79405, Note_on_c, 0, 86, 64
1, 79418, Control_c, 0, 64, 127
1, 79427, Note_off_c, 0, 86, 66
1, 79466, Note_on_c, 0, 82, 75
1, 79498, Note_off_c, 0, 65, 55
1, 79528, Note_off_c, 0, 62, 61
1, 79537, Note_on_c, 0, 79, 74
1, 79607, Note_off_c, 0, 82, 56
1, 79609, Note_on_c, 0, 77, 72
1, 79616, Note_off_c, 0, 79, 62
1, 79624, Note_off_c, 0, 53, 38
1, 79636, Note_off_c, 0, 77, 63
1, 79667, Note_on_c, 0, 74, 74
1, 79710, Note_off_c, 0, 74, 60
1, 79742, Note_on_c, 0, 70, 73
1, 79764, Note_off_c, 0, 70, 69
1, 79782, Note_off_c, 0, 58, 60
1, 79808, Control_c, 0, 64, 98
1, 79814, Note_on_c, 0, 72, 82
1, 79815, Note_on_c, 0, 65, 94
1, 79816, Note_on_c, 0, 60, 86
1, 79820, Note_on_c, 0, 57, 83
1, 79823, Control_c, 0, 64, 62
1, 79827, Note_on_c, 0, 53, 62
1, 79838, Control_c, 0, 64, 36
1, 79842, Note_off_c, 0, 65, 66
1, 79848, Note_off_c, 0, 60, 66
1, 79852, Note_off_c, 0, 53, 63
1, 79853, Control_c, 0, 64, 0
1, 79858, Note_off_c, 0, 57, 62
1, 79893, Note_off_c, 0, 72, 48
1, 79896, Note_on_c, 0, 77, 87
1, 79963, Note_on_c, 0, 79, 77
1, 80034, Note_off_c, 0, 77, 61
1, 80042, Note_on_c, 0, 81, 73
1, 80049, Note_off_c, 0, 79, 65
1, 80068, Note_off_c, 0, 81, 67
1, 80116, Note_on_c, 0, 65, 82
1, 80119, Note_on_c, 0, 84, 86
1, 80120, Note_on_c, 0, 53, 68
1, 80120, Note_on_c, 0, 60, 77
1, 80121, Control_c, 0, 64, 18
1, 80133, Note_on_c, 0, 57, 43
1, 80136, Control_c, 0, 64, 40
1, 80137, Note_off_c, 0, 65, 71
1, 80151, Control_c, 0, 64, 57
1, 80162, Note_off_c, 0, 57, 60
1, 80166, Control_c, 0, 64, 79
1, 80168, Note_off_c, 0, 60, 63
1, 80180, Control_c, 0, 64, 127
1, 80181, Note_off_c, 0, 53, 65
1, 80200, Note_on_c, 0, 89, 98
1, 80202, Note_off_c, 0, 84, 67
1, 80291, Note_on_c, 0, 91, 83
1, 80357, Note_off_c, 0, 89, 62
1, 80372, Note_on_c, 0, 93, 84
1, 80381, Note_on_c, 0, 49, 83
1, 80402, Note_off_c, 0, 91, 58
1, 80458, Note_on_c, 0, 55, 74
1, 80484, Note_off_c, 0, 49, 65
1, 80498, Note_on_c, 0, 59, 70
1, 80516, Note_on_c, 0, 53, 5
1, 80523, Note_off_c, 0, 93, 58
1, 80554, Note_off_c, 0, 53, 56
1, 80558, Control_c, 0, 64, 68
1, 80571, Note_on_c, 0, 91, 92
1, 80573, Control_c, 0, 64, 43
1, 80577, Note_on_c, 0, 93, 52
1, 80582, Note_on_c, 0, 65, 96
1, 80587, Control_c, 0, 64, 0
1, 80602, Control_c, 0, 64, 20
1, 80604, Note_off_c, 0, 93, 63
1, 80617, Control_c, 0, 64, 35
1, 80631, Control_c, 0, 64, 46
1, 80646, Note_off_c, 0, 91, 57
1, 80646, Control_c, 0, 64, 57
1, 80661, Control_c, 0, 64, 67
1, 80676, Control_c, 0, 64, 87
1, 80691, Note_on_c, 0, 93, 85
1, 80691, Control_c, 0, 64, 117
1, 80706, Control_c, 0, 64, 127
1, 80784, Note_on_c, 0, 91, 83
1, 80828, Note_off_c, 0, 93, 55
1, 80855, Note_on_c, 0, 89, 78
1, 80870, Note_off_c, 0, 91, 59
1, 80902, Note_off_c, 0, 89, 65
1, 80917, Note_on_c, 0, 83, 75
1, 80953, Note_off_c, 0, 83, 64
1, 80974, Note_off_c, 0, 65, 51
1, 80996, Note_on_c, 0, 79, 76
1, 81060, Note_on_c, 0, 77, 83
1, 81076, Note_off_c, 0, 79, 59
1, 81112, Note_off_c, 0, 77, 61
1, 81132, Note_off_c, 0, 59, 61
1, 81135, Note_on_c, 0, 71, 76
1, 81162, Note_off_c, 0, 71, 70
1, 81174, Note_off_c, 0, 55, 56
1, 81206, Note_on_c, 0, 67, 90
1, 81268, Note_on_c, 0, 65, 76
1, 81276, Note_off_c, 0, 67, 59
1, 81320, Note_off_c, 0, 65, 63
1, 81332, Note_on_c, 0, 59, 71
1, 81362, Note_off_c, 0, 59, 64
1, 81407, Note_on_c, 0, 55, 66
1, 81412, Note_on_c, 0, 57, 72
1, 81447, Note_off_c, 0, 57, 53
1, 81459, Note_on_c, 0, 53, 83
1, 81487, Note_off_c, 0, 53, 67
1, 81493, Note_off_c, 0, 55, 59
1, 81515, Note_on_c, 0, 47, 69
1, 81576, Note_on_c, 0, 43, 78
1, 81591, Note_off_c, 0, 47, 64
1, 81644, Note_on_c, 0, 41, 74
1, 81668, Note_off_c, 0, 43, 61
1, 81704, Note_off_c, 0, 41, 63
1, 81708, Control_c, 0, 64, 108
1, 81719, Note_on_c, 0, 47, 91
1, 81723, Control_c, 0, 64, 56
1, 81727, Note_on_c, 0, 35, 77
1, 81738, Control_c, 0, 64, 0
1, 81788, Note_on_c, 0, 49, 69
1, 81809, Note_off_c, 0, 49, 70
1, 81871, Note_on_c, 0, 53, 72
1, 81908, Control_c, 0, 64, 14
1, 81914, Note_off_c, 0, 53, 57
1, 81923, Control_c, 0, 64, 33
1, 81931, Note_on_c, 0, 55, 83
1, 81938, Control_c, 0, 64, 47
1, 81952, Control_c, 0, 64, 62
1, 81967, Control_c, 0, 64, 91
1, 81982, Control_c, 0, 64, 127
1, 81996, Note_off_c, 0, 55, 66
1, 82006, Note_on_c, 0, 61, 72
1, 82030, Note_off_c, 0, 61, 69
1, 82082, Note_on_c, 0, 65, 81
1, 82142, Note_off_c, 0, 65, 62
1, 82144, Note_on_c, 0, 67, 80
1, 82206, Note_off_c, 0, 67, 62
1, 82223, Note_on_c, 0, 73, 61
1, 82246, Note_off_c, 0, 73, 67
1, 82293, Note_on_c, 0, 77, 81
1, 82354, Note_off_c, 0, 77, 60
1, 82363, Note_on_c, 0, 79, 66
1, 82366, Note_on_c, 0, 81, 73
1, 82414, Note_off_c, 0, 79, 61
1, 82431, Note_off_c, 0, 81, 62
1, 82439, Note_on_c, 0, 85, 56
1, 82459, Note_off_c, 0, 85, 63
1, 82500, Note_on_c, 0, 89, 76
1, 82525, Note_off_c, 0, 35, 36
1, 82554, Note_on_c, 0, 91, 87
1, 82560, Note_off_c, 0, 89, 66
1, 82617, Note_off_c, 0, 47, 65
1, 82623, Note_on_c, 0, 97, 77
1, 82661, Note_off_c, 0, 91, 52
1, 82686, Note_on_c, 0, 101, 84
1, 82727, Note_off_c, 0, 101, 63
1, 82751, Note_on_c, 0, 89, 79
1, 82752, Note_off_c, 0, 97, 63
1, 82819, Note_on_c, 0, 48, 97
1, 82833, Note_off_c, 0, 89, 64
1, 82833, Control_c, 0, 64, 63
1, 82837, Note_on_c, 0, 36, 71
1, 82838, Note_on_c, 0, 96, 77
1, 82848, Control_c, 0, 64, 0
1, 82916, Note_on_c, 0, 91, 66
1, 82924, Note_off_c, 0, 96, 59
1, 82966, Control_c, 0, 64, 20
1, 82981, Control_c, 0, 64, 43
1, 82986, Note_on_c, 0, 89, 56
1, 82991, Note_off_c, 0, 91, 60
1, 82996, Control_c, 0, 64, 60
1, 83007, Note_off_c, 0, 89, 65
1, 83011, Control_c, 0, 64, 84
1, 83025, Control_c, 0, 64, 127
1, 83038, Note_on_c, 0, 84, 59
1, 83060, Note_off_c, 0, 84, 65
1, 83112, Note_on_c, 0, 79, 71
1, 83173, Note_on_c, 0, 77, 79
1, 83192, Note_off_c, 0, 79, 60
1, 83220, Note_off_c, 0, 77, 63
1, 83258, Note_on_c, 0, 72, 49
1, 83272, Note_on_c, 0, 74, 24
1, 83283, Note_off_c, 0, 72, 58
1, 83308, Note_off_c, 0, 74, 55
1, 83317, Note_on_c, 0, 67, 81
1, 83317, Poly_aftertouch_c, 0, 38, 127
1, 83338, Note_off_c, 0, 48, 58
1, 83388, Note_on_c, 0, 65, 78
1, 83412, Note_off_c, 0, 67, 61
1, 83445, Note_off_c, 0, 65, 58
1, 83453, Note_on_c, 0, 60, 79
1, 83498, Note_off_c, 0, 60, 61
1, 83540, Note_on_c, 0, 55, 81
1, 83612, Note_on_c, 0, 53, 75
1, 83614, Note_off_c, 0, 55, 61
1, 83643, Poly_aftertouch_c, 0, 38, 0
1, 83672, Note_on_c, 0, 48, 75
1, 83701, Note_off_c, 0, 48, 69
1, 83710, Note_off_c, 0, 53, 61
1, 83727, Note_on_c, 0, 41, 71
1, 83770, Note_off_c, 0, 36, 39
1, 83814, Note_on_c, 0, 40, 82
1, 83841, Note_off_c, 0, 41, 62
1, 83904, Note_on_c, 0, 38, 79
1, 83906, Note_off_c, 0, 40, 63
1, 84063, Note_off_c, 0, 38, 59
1, 84102, Note_on_c, 0, 70, 80
1, 84110, Control_c, 0, 64, 64
1, 84114, Note_on_c, 0, 36, 51
1, 84125, Control_c, 0, 64, 24
1, 84140, Control_c, 0, 64, 0
1, 84148, Note_on_c, 0, 58, 24
1, 84157, Note_on_c, 0, 64, 28
1, 84163, Note_on_c, 0, 66, 36
1, 84213, Control_c, 0, 64, 10
1, 84222, Note_on_c, 0, 38, 56
1, 84228, Control_c, 0, 64, 31
1, 84229, Note_off_c, 0, 58, 0
1, 84229, Note_on_c, 0, 58, 3
1, 84243, Control_c, 0, 64, 46
1, 84258, Control_c, 0, 64, 60
1, 84272, Control_c, 0, 64, 71
1, 84287, Control_c, 0, 64, 83
1, 84289, Note_off_c, 0, 36, 57
1, 84301, Note_on_c, 0, 40, 60
1, 84302, Control_c, 0, 64, 86
1, 84317, Control_c, 0, 64, 90
1, 84332, Control_c, 0, 64, 108
1, 84346, Control_c, 0, 64, 127
1, 84359, Note_off_c, 0, 38, 54
1, 84380, Note_off_c, 0, 40, 61
1, 84385, Note_on_c, 0, 48, 51
1, 84430, Note_off_c, 0, 66, 25
1, 84435, Control_c, 0, 64, 104
1, 84450, Control_c, 0, 64, 67
1, 84453, Note_on_c, 0, 38, 49
1, 84454, Note_on_c, 0, 62, 64
1, 84459, Note_off_c, 0, 48, 63
1, 84464, Control_c, 0, 64, 56
1, 84479, Control_c, 0, 64, 53
1, 84494, Control_c, 0, 64, 58
1, 84500, Note_off_c, 0, 64, 41
1, 84509, Control_c, 0, 64, 62
1, 84524, Control_c, 0, 64, 63
1, 84526, Note_on_c, 0, 40, 64
1, 84539, Control_c, 0, 64, 64
1, 84554, Control_c, 0, 64, 65
1, 84569, Control_c, 0, 64, 71
1, 84581, Note_off_c, 0, 62, 57
1, 84584, Control_c, 0, 64, 87
1, 84584, Note_on_c, 0, 41, 61
1, 84593, Note_off_c, 0, 38, 37
1, 84598, Control_c, 0, 64, 127
1, 84609, Note_off_c, 0, 40, 62
1, 84658, Note_on_c, 0, 48, 48
1, 84663, Note_off_c, 0, 41, 57
1, 84702, Control_c, 0, 64, 83
1, 84718, Control_c, 0, 64, 58
1, 84726, Note_on_c, 0, 38, 55
1, 84733, Control_c, 0, 64, 26
1, 84734, Note_on_c, 0, 62, 65
1, 84745, Note_off_c, 0, 48, 57
1, 84748, Control_c, 0, 64, 0
1, 84762, Control_c, 0, 64, 24
1, 84777, Control_c, 0, 64, 36
1, 84792, Control_c, 0, 64, 46
1, 84807, Control_c, 0, 64, 57
1, 84811, Note_on_c, 0, 40, 65
1, 84822, Control_c, 0, 64, 66
1, 84837, Control_c, 0, 64, 80
1, 84847, Note_off_c, 0, 70, 63
1, 84859, Control_c, 0, 64, 96
1, 84865, Note_off_c, 0, 58, 47
1, 84874, Control_c, 0, 64, 127
1, 84876, Note_off_c, 0, 62, 62
1, 84880, Note_off_c, 0, 38, 59
1, 84881, Note_on_c, 0, 41, 65
1, 84915, Note_off_c, 0, 40, 62
1, 84950, Note_off_c, 0, 41, 61
1, 84989, Note_on_c, 0, 48, 40
1, 85067, Control_c, 0, 64, 81
1, 85082, Control_c, 0, 64, 56
1, 85084, Note_on_c, 0, 69, 71
1, 85092, Note_on_c, 0, 40, 53
1, 85096, Control_c, 0, 64, 18
1, 85111, Control_c, 0, 64, 0
1, 85118, Note_on_c, 0, 60, 32
1, 85120, Note_off_c, 0, 48, 42
1, 85147, Note_on_c, 0, 58, 15
1, 85161, Poly_aftertouch_c, 0, 61, 127
1, 85170, Control_c, 0, 64, 15
1, 85185, Control_c, 0, 64, 28
1, 85200, Control_c, 0, 64, 38
1, 85215, Control_c, 0, 64, 50
1, 85219, Note_on_c, 0, 41, 51
1, 85228, Poly_aftertouch_c, 0, 61, 0
1, 85229, Control_c, 0, 64, 60
1, 85234, Note_off_c, 0, 60, 43
1, 85238, Note_off_c, 0, 58, 38
1, 85244, Control_c, 0, 64, 67
1, 85259, Control_c, 0, 64, 72
1, 85274, Control_c, 0, 64, 74
1, 85289, Control_c, 0, 64, 78
1, 85303, Control_c, 0, 64, 86
1, 85314, Note_on_c, 0, 43, 59
1, 85318, Control_c, 0, 64, 95
1, 85333, Control_c, 0, 64, 103
1, 85338, Note_off_c, 0, 40, 37
1, 85347, Note_off_c, 0, 41, 37
1, 85348, Control_c, 0, 64, 108
1, 85363, Control_c, 0, 64, 108
1, 85377, Control_c, 0, 64, 113
1, 85392, Control_c, 0, 64, 127
1, 85398, Note_off_c, 0, 43, 56
1, 85421, Note_on_c, 0, 67, 69
1, 85427, Note_on_c, 0, 48, 47
1, 85475, Note_off_c, 0, 69, 53
1, 85618, Note_off_c, 0, 48, 30
1, 85622, Control_c, 0, 64, 99
1, 85637, Control_c, 0, 64, 71
1, 85651, Control_c, 0, 64, 51
1, 85659, Note_on_c, 0, 41, 43
1, 85666, Control_c, 0, 64, 0
1, 85675, Note_off_c, 0, 67, 52
1, 85678, Note_on_c, 0, 65, 47
1, 85755, Control_c, 0, 64, 25
1, 85770, Control_c, 0, 64, 37
1, 85785, Control_c, 0, 64, 48
1, 85800, Control_c, 0, 64, 59
1, 85815, Control_c, 0, 64, 65
1, 85830, Control_c, 0, 64, 68
1, 85844, Control_c, 0, 64, 69
1, 85848, Note_on_c, 0, 57, 48
1, 85859, Note_off_c, 0, 65, 34
1, 85859, Control_c, 0, 64, 70
1, 85874, Control_c, 0, 64, 74
1, 85889, Control_c, 0, 64, 79
1, 85904, Control_c, 0, 64, 85
1, 85913, Note_off_c, 0, 57, 59
1, 85918, Control_c, 0, 64, 88
1, 85923, Note_on_c, 0, 64, 56
1, 85933, Control_c, 0, 64, 90
1, 85948, Note_off_c, 0, 41, 54
1, 85948, Control_c, 0, 64, 91
1, 85963, Control_c, 0, 64, 94
1, 85978, Control_c, 0, 64, 101
1, 85992, Control_c, 0, 64, 108
1, 85997, Note_on_c, 0, 67, 52
1, 86003, Note_off_c, 0, 64, 54
1, 86007, Control_c, 0, 64, 108
1, 86059, Note_off_c, 0, 67, 63
1, 86066, Control_c, 0, 64, 109
1, 86071, Note_on_c, 0, 65, 45
1, 86098, Note_off_c, 0, 65, 60
1, 86136, Note_on_c, 0, 69, 57
1, 86170, Control_c, 0, 64, 108
1, 86174, Note_off_c, 0, 69, 60
1, 86184, Control_c, 0, 64, 103
1, 86199, Control_c, 0, 64, 102
1, 86208, Note_on_c, 0, 76, 63
1, 86238, Poly_aftertouch_c, 0, 71, 0
1, 86244, Control_c, 0, 64, 104
1, 86256, Note_on_c, 0, 79, 67
1, 86259, Control_c, 0, 64, 105
1, 86260, Note_off_c, 0, 76, 64
1, 86274, Control_c, 0, 64, 97
1, 86289, Control_c, 0, 64, 73
1, 86304, Control_c, 0, 64, 56
1, 86319, Control_c, 0, 64, 0
1, 86364, Note_on_c, 0, 77, 54
1, 86366, Note_on_c, 0, 60, 47
1, 86377, Note_on_c, 0, 51, 45
1, 86396, Note_off_c, 0, 79, 43
1, 86400, Note_off_c, 0, 77, 60
1, 86401, Control_c, 0, 64, 24
1, 86416, Control_c, 0, 64, 37
1, 86421, Note_on_c, 0, 81, 69
1, 86430, Control_c, 0, 64, 46
1, 86445, Control_c, 0, 64, 56
1, 86453, Note_off_c, 0, 60, 64
1, 86460, Control_c, 0, 64, 63
1, 86463, Note_off_c, 0, 51, 64
1, 86474, Control_c, 0, 64, 66
1, 86489, Control_c, 0, 64, 69
1, 86504, Control_c, 0, 64, 79
1, 86509, Note_on_c, 0, 79, 57
1, 86516, Note_off_c, 0, 81, 51
1, 86519, Control_c, 0, 64, 127
1, 86538, Note_off_c, 0, 79, 57
1, 86558, Note_on_c, 0, 74, 58
1, 86585, Note_off_c, 0, 74, 67
1, 86593, Control_c, 0, 64, 79
1, 86608, Control_c, 0, 64, 59
1, 86621, Note_on_c, 0, 77, 60
1, 86623, Control_c, 0, 64, 37
1, 86635, Note_on_c, 0, 41, 48
1, 86638, Control_c, 0, 64, 22
1, 86652, Control_c, 0, 64, 30
1, 86667, Control_c, 0, 64, 36
1, 86682, Control_c, 0, 64, 43
1, 86688, Note_on_c, 0, 75, 65
1, 86697, Control_c, 0, 64, 55
1, 86699, Note_off_c, 0, 77, 60
1, 86712, Control_c, 0, 64, 64
1, 86727, Control_c, 0, 64, 78
1, 86741, Control_c, 0, 64, 95
1, 86746, Note_off_c, 0, 75, 60
1, 86748, Note_off_c, 0, 41, 54
1, 86756, Control_c, 0, 64, 98
1, 86761, Note_on_c, 0, 67, 70
1, 86771, Control_c, 0, 64, 105
1, 86786, Control_c, 0, 64, 127
1, 86811, Note_on_c, 0, 69, 68
1, 86819, Note_off_c, 0, 67, 58
1, 86860, Control_c, 0, 64, 86
1, 86874, Control_c, 0, 64, 61
1, 86880, Note_on_c, 0, 70, 74
1, 86886, Note_on_c, 0, 58, 85
1, 86889, Control_c, 0, 64, 26
1, 86892, Note_off_c, 0, 69, 63
1, 86903, Note_on_c, 0, 50, 54
1, 86904, Control_c, 0, 64, 0
1, 86932, Note_off_c, 0, 70, 62
1, 86947, Note_on_c, 0, 75, 67
1, 86963, Control_c, 0, 64, 15
1, 86978, Control_c, 0, 64, 31
1, 86992, Control_c, 0, 64, 42
1, 87004, Note_off_c, 0, 75, 63
1, 87007, Control_c, 0, 64, 55
1, 87020, Note_off_c, 0, 58, 62
1, 87021, Note_on_c, 0, 74, 69
1, 87022, Control_c, 0, 64, 65
1, 87037, Control_c, 0, 64, 74
1, 87052, Control_c, 0, 64, 75
1, 87076, Note_off_c, 0, 74, 65
1, 87094, Note_on_c, 0, 64, 67
1, 87135, Control_c, 0, 64, 71
1, 87150, Control_c, 0, 64, 63
1, 87156, Note_off_c, 0, 64, 60
1, 87162, Note_on_c, 0, 65, 66
1, 87165, Control_c, 0, 64, 45
1, 87171, Note_on_c, 0, 41, 57
1, 87179, Control_c, 0, 64, 0
1, 87231, Note_off_c, 0, 50, 36
1, 87243, Note_on_c, 0, 72, 54
1, 87246, Note_off_c, 0, 65, 62
1, 87296, Note_on_c, 0, 70, 68
1, 87299, Note_off_c, 0, 72, 63
1, 87342, Control_c, 0, 64, 14
1, 87353, Note_off_c, 0, 70, 59
1, 87357, Control_c, 0, 64, 25
1, 87368, Note_on_c, 0, 61, 61
1, 87371, Control_c, 0, 64, 32
1, 87386, Control_c, 0, 64, 39
1, 87401, Note_off_c, 0, 61, 68
1, 87401, Control_c, 0, 64, 47
1, 87416, Control_c, 0, 64, 54
1, 87422, Note_on_c, 0, 62, 66
1, 87430, Control_c, 0, 64, 58
1, 87445, Control_c, 0, 64, 58
1, 87460, Control_c, 0, 64, 57
1, 87490, Control_c, 0, 64, 59
1, 87491, Note_on_c, 0, 69, 63
1, 87505, Control_c, 0, 64, 61
1, 87520, Control_c, 0, 64, 63
1, 87535, Control_c, 0, 64, 63
1, 87541, Note_off_c, 0, 62, 55
1, 87563, Note_on_c, 0, 67, 66
1, 87579, Control_c, 0, 64, 65
1, 87589, Note_off_c, 0, 69, 58
1, 87594, Control_c, 0, 64, 71
1, 87609, Control_c, 0, 64, 82
1, 87623, Control_c, 0, 64, 90
1, 87627, Note_off_c, 0, 67, 61
1, 87633, Note_on_c, 0, 60, 62
1, 87638, Control_c, 0, 64, 97
1, 87653, Control_c, 0, 64, 94
1, 87668, Control_c, 0, 64, 78
1, 87683, Control_c, 0, 64, 64
1, 87697, Control_c, 0, 64, 49
1, 87712, Note_off_c, 0, 60, 54
1, 87712, Control_c, 0, 64, 29
1, 87718, Note_on_c, 0, 53, 69
1, 87720, Note_off_c, 0, 41, 43
1, 87725, Note_on_c, 0, 50, 64
1, 87727, Control_c, 0, 64, 28
1, 87737, Note_on_c, 0, 58, 58
1, 87742, Control_c, 0, 64, 32
1, 87757, Control_c, 0, 64, 36
1, 87772, Control_c, 0, 64, 42
1, 87787, Control_c, 0, 64, 50
1, 87802, Control_c, 0, 64, 58
1, 87803, Note_on_c, 0, 64, 60
1, 87816, Control_c, 0, 64, 64
1, 87830, Note_off_c, 0, 58, 55
1, 87831, Control_c, 0, 64, 68
1, 87854, Control_c, 0, 64, 70
1, 87869, Control_c, 0, 64, 71
1, 87872, Note_on_c, 0, 62, 62
1, 87884, Control_c, 0, 64, 75
1, 87898, Control_c, 0, 64, 82
1, 87904, Note_off_c, 0, 64, 55
1, 87913, Control_c, 0, 64, 92
1, 87928, Control_c, 0, 64, 99
1, 87931, Note_on_c, 0, 57, 66
1, 87935, Note_on_c, 0, 48, 60
1, 87943, Control_c, 0, 64, 100
1, 87958, Control_c, 0, 64, 89
1, 87964, Note_off_c, 0, 62, 58
1, 87973, Control_c, 0, 64, 70
1, 87988, Control_c, 0, 64, 55
1, 87999, Note_off_c, 0, 57, 62
1, 88003, Control_c, 0, 64, 22
1, 88009, Note_on_c, 0, 55, 62
1, 88012, Note_off_c, 0, 50, 55
1, 88014, Note_off_c, 0, 53, 52
1, 88015, Note_on_c, 0, 46, 61
1, 88018, Control_c, 0, 64, 0
1, 88022, Note_on_c, 0, 41, 50
1, 88046, Note_off_c, 0, 55, 64
1, 88067, Note_off_c, 0, 48, 60
1, 88068, Note_on_c, 0, 57, 60
1, 88077, Control_c, 0, 64, 20
1, 88092, Control_c, 0, 64, 29
1, 88107, Control_c, 0, 64, 37
1, 88112, Note_off_c, 0, 57, 55
1, 88121, Control_c, 0, 64, 45
1, 88131, Note_on_c, 0, 55, 74
1, 88136, Control_c, 0, 64, 55
1, 88151, Control_c, 0, 64, 63
1, 88160, Note_off_c, 0, 55, 66
1, 88166, Control_c, 0, 64, 69
1, 88181, Control_c, 0, 64, 77
1, 88195, Control_c, 0, 64, 79
1, 88210, Control_c, 0, 64, 75
1, 88219, Note_on_c, 0, 62, 56
1, 88225, Control_c, 0, 64, 63
1, 88239, Control_c, 0, 64, 49
1, 88240, Note_off_c, 0, 62, 63
1, 88254, Control_c, 0, 64, 29
1, 88258, Note_on_c, 0, 52, 81
1, 88269, Control_c, 0, 64, 29
1, 88284, Control_c, 0, 64, 37
1, 88299, Control_c, 0, 64, 43
1, 88305, Note_on_c, 0, 60, 63
1, 88313, Control_c, 0, 64, 52
1, 88328, Control_c, 0, 64, 59
1, 88329, Note_off_c, 0, 60, 66
1, 88333, Note_on_c, 0, 62, 65
1, 88343, Control_c, 0, 64, 63
1, 88358, Control_c, 0, 64, 66
1, 88369, Note_off_c, 0, 62, 64
1, 88372, Control_c, 0, 64, 69
1, 88387, Control_c, 0, 64, 70
1, 88394, Note_on_c, 0, 60, 78
1, 88402, Control_c, 0, 64, 72
1, 88417, Control_c, 0, 64, 79
1, 88432, Control_c, 0, 64, 89
1, 88436, Note_off_c, 0, 60, 61
1, 88447, Control_c, 0, 64, 105
1, 88462, Control_c, 0, 64, 115
1, 88465, Note_on_c, 0, 64, 67
1, 88476, Note_off_c, 0, 52, 63
1, 88477, Control_c, 0, 64, 98
1, 88483, Note_off_c, 0, 64, 66
1, 88492, Control_c, 0, 64, 72
1, 88498, Note_on_c, 0, 50, 72
1, 88507, Control_c, 0, 64, 53
1, 88521, Control_c, 0, 64, 0
1, 88532, Note_on_c, 0, 64, 87
1, 88560, Note_off_c, 0, 64, 62
1, 88573, Note_on_c, 0, 48, 70
1, 88599, Note_off_c, 0, 50, 53
1, 88602, Control_c, 0, 64, 20
1, 88609, Note_on_c, 0, 65, 60
1, 88617, Control_c, 0, 64, 36
1, 88632, Control_c, 0, 64, 46
1, 88647, Control_c, 0, 64, 57
1, 88662, Note_on_c, 0, 64, 72
1, 88662, Control_c, 0, 64, 64
1, 88665, Note_off_c, 0, 65, 65
1, 88676, Control_c, 0, 64, 67
1, 88686, Note_off_c, 0, 48, 54
1, 88691, Control_c, 0, 64, 68
1, 88694, Note_off_c, 0, 64, 60
1, 88706, Control_c, 0, 64, 76
1, 88709, Note_on_c, 0, 69, 71
1, 88722, Control_c, 0, 64, 101
1, 88737, Control_c, 0, 64, 127
1, 88761, Note_off_c, 0, 69, 62
1, 88766, Control_c, 0, 64, 100
1, 88781, Control_c, 0, 64, 69
1, 88796, Control_c, 0, 64, 49
1, 88802, Note_on_c, 0, 67, 79
1, 88811, Control_c, 0, 64, 0
1, 88814, Note_on_c, 0, 48, 72
1, 88861, Note_off_c, 0, 67, 59
1, 88864, Note_off_c, 0, 41, 43
1, 88869, Note_off_c, 0, 46, 41
1, 88870, Control_c, 0, 64, 20
1, 88871, Note_on_c, 0, 69, 68
1, 88885, Control_c, 0, 64, 36
1, 88900, Control_c, 0, 64, 49
1, 88915, Control_c, 0, 64, 60
1, 88930, Control_c, 0, 64, 68
1, 88934, Note_off_c, 0, 69, 62
1, 88937, Note_on_c, 0, 67, 66
1, 88944, Control_c, 0, 64, 75
1, 88959, Control_c, 0, 64, 79
1, 88969, Note_on_c, 0, 41, 62
1, 88974, Control_c, 0, 64, 81
1, 88979, Note_off_c, 0, 67, 59
1, 88988, Control_c, 0, 64, 88
1, 89003, Control_c, 0, 64, 102
1, 89018, Control_c, 0, 64, 127
1, 89029, Note_on_c, 0, 74, 42
1, 89037, Note_on_c, 0, 76, 44
1, 89043, Note_off_c, 0, 41, 64
1, 89062, Control_c, 0, 64, 109
1, 89063, Note_off_c, 0, 76, 56
1, 89064, Note_off_c, 0, 74, 63
1, 89077, Control_c, 0, 64, 75
1, 89092, Control_c, 0, 64, 60
1, 89105, Note_on_c, 0, 57, 73
1, 89107, Control_c, 0, 64, 33
1, 89119, Note_on_c, 0, 72, 68
1, 89122, Control_c, 0, 64, 0
1, 89183, Note_off_c, 0, 72, 57
1, 89186, Note_on_c, 0, 76, 66
1, 89255, Note_off_c, 0, 76, 66
1, 89257, Note_on_c, 0, 79, 63
1, 89270, Control_c, 0, 64, 15
1, 89285, Note_off_c, 0, 79, 66
1, 89285, Control_c, 0, 64, 23
1, 89299, Control_c, 0, 64, 29
1, 89314, Control_c, 0, 64, 36
1, 89327, Note_on_c, 0, 77, 68
1, 89336, Control_c, 0, 64, 42
1, 89351, Control_c, 0, 64, 48
1, 89366, Control_c, 0, 64, 47
1, 89381, Control_c, 0, 64, 32
1, 89394, Note_off_c, 0, 77, 58
1, 89395, Control_c, 0, 64, 0
1, 89399, Note_on_c, 0, 53, 57
1, 89403, Note_on_c, 0, 80, 69
1, 89410, Note_off_c, 0, 57, 57
1, 89462, Note_on_c, 0, 82, 69
1, 89464, Note_off_c, 0, 80, 62
1, 89513, Note_off_c, 0, 82, 62
1, 89530, Control_c, 0, 64, 11
1, 89534, Note_on_c, 0, 81, 72
1, 89545, Control_c, 0, 64, 23
1, 89560, Control_c, 0, 64, 32
1, 89574, Control_c, 0, 64, 38
1, 89589, Control_c, 0, 64, 45
1, 89591, Note_off_c, 0, 81, 56
1, 89600, Note_on_c, 0, 83, 66
1, 89604, Control_c, 0, 64, 51
1, 89618, Control_c, 0, 64, 56
1, 89633, Control_c, 0, 64, 60
1, 89648, Control_c, 0, 64, 62
1, 89654, Note_off_c, 0, 48, 39
1, 89660, Note_on_c, 0, 86, 72
1, 89663, Note_off_c, 0, 83, 67
1, 89663, Control_c, 0, 64, 62
1, 89678, Control_c, 0, 64, 63
1, 89684, Note_off_c, 0, 53, 65
1, 89688, Note_off_c, 0, 86, 62
1, 89693, Control_c, 0, 64, 65
1, 89697, Poly_aftertouch_c, 0, 49, 0
1, 89708, Control_c, 0, 64, 67
1, 89723, Control_c, 0, 64, 69
1, 89732, Note_on_c, 0, 84, 74
1, 89738, Control_c, 0, 64, 70
1, 89796, Note_off_c, 0, 84, 62
1, 89797, Control_c, 0, 64, 70
1, 89807, Note_on_c, 0, 88, 55
1, 89838, Note_on_c, 0, 86, 23
1, 89841, Control_c, 0, 64, 71
1, 89856, Control_c, 0, 64, 73
1, 89861, Note_on_c, 0, 91, 66
1, 89870, Note_off_c, 0, 88, 63
1, 89871, Control_c, 0, 64, 76
1, 89877, Note_off_c, 0, 86, 50
1, 89885, Control_c, 0, 64, 76
1, 89900, Control_c, 0, 64, 71
1, 89915, Control_c, 0, 64, 63
1, 89916, Note_off_c, 0, 91, 60
1, 89930, Control_c, 0, 64, 50
1, 89940, Note_on_c, 0, 65, 54
1, 89945, Control_c, 0, 64, 24
1, 89959, Control_c, 0, 64, 22
1, 89969, Note_on_c, 0, 89, 55
1, 89974, Control_c, 0, 64, 27
1, 89989, Control_c, 0, 64, 32
1, 90004, Control_c, 0, 64, 38
1, 90018, Control_c, 0, 64, 47
1, 90028, Note_off_c, 0, 89, 59
1, 90033, Control_c, 0, 64, 58
1, 90041, Note_on_c, 0, 92, 69
1, 90048, Control_c, 0, 64, 65
1, 90063, Control_c, 0, 64, 69
1, 90078, Control_c, 0, 64, 72
1, 90099, Control_c, 0, 64, 73
1, 90110, Note_on_c, 0, 94, 69
1, 90112, Note_off_c, 0, 92, 65
1, 90114, Control_c, 0, 64, 75
1, 90126, Note_off_c, 0, 65, 63
1, 90129, Control_c, 0, 64, 77
1, 90143, Control_c, 0, 64, 82
1, 90158, Control_c, 0, 64, 85
1, 90179, Note_off_c, 0, 94, 64
1, 90200, Note_on_c, 0, 93, 64
1, 90274, Note_off_c, 0, 93, 58
1, 90282, Note_on_c, 0, 65, 43
1, 90289, Note_on_c, 0, 95, 65
1, 90292, Control_c, 0, 64, 79
1, 90295, Note_on_c, 0, 63, 43
1, 90298, Note_on_c, 0, 53, 37
1, 90307, Control_c, 0, 64, 67
1, 90322, Control_c, 0, 64, 55
1, 90337, Control_c, 0, 64, 24
1, 90352, Control_c, 0, 64, 0
1, 90382, Note_on_c, 0, 96, 54
1, 90384, Note_off_c, 0, 95, 59
1, 90396, Control_c, 0, 64, 14
1, 90411, Control_c, 0, 64, 23
1, 90426, Control_c, 0, 64, 34
1, 90437, Note_off_c, 0, 96, 61
1, 90441, Control_c, 0, 64, 44
1, 90456, Note_on_c, 0, 101, 66
1, 90456, Control_c, 0, 64, 57
1, 90471, Control_c, 0, 64, 66
1, 90486, Control_c, 0, 64, 74
1, 90501, Control_c, 0, 64, 76
1, 90512, Note_off_c, 0, 65, 46
1, 90515, Control_c, 0, 64, 76
1, 90521, Note_on_c, 0, 100, 76
1, 90530, Control_c, 0, 64, 78
1, 90545, Control_c, 0, 64, 84
1, 90559, Control_c, 0, 64, 95
1, 90574, Control_c, 0, 64, 106
1, 90583, Note_off_c, 0, 101, 61
1, 90589, Control_c, 0, 64, 108
1, 90593, Note_on_c, 0, 99, 75
1, 90605, Note_on_c, 0, 65, 58
1, 90623, Note_off_c, 0, 53, 43
1, 90628, Note_off_c, 0, 100, 65
1, 90633, Control_c, 0, 64, 109
1, 90637, Note_on_c, 0, 96, 72
1, 90641, Note_off_c, 0, 99, 65
1, 90648, Control_c, 0, 64, 119
1, 90663, Control_c, 0, 64, 127
1, 90670, Note_off_c, 0, 96, 57
1, 90686, Note_off_c, 0, 63, 63
1, 90704, Note_on_c, 0, 98, 83
1, 90705, Note_off_c, 0, 65, 62
1, 90778, Note_on_c, 0, 94, 79
1, 90822, Note_off_c, 0, 98, 63
1, 90846, Note_on_c, 0, 65, 64
1, 90861, Note_on_c, 0, 63, 62
1, 90863, Control_c, 0, 64, 71
1, 90864, Note_on_c, 0, 93, 70
1, 90867, Note_off_c, 0, 94, 64
1, 90870, Note_on_c, 0, 55, 49
1, 90878, Control_c, 0, 64, 52
1, 90893, Control_c, 0, 64, 10
1, 90908, Control_c, 0, 64, 0
1, 90922, Control_c, 0, 64, 13
1, 90923, Note_on_c, 0, 98, 77
1, 90937, Control_c, 0, 64, 26
1, 90952, Control_c, 0, 64, 38
1, 90959, Note_off_c, 0, 93, 41
1, 90966, Control_c, 0, 64, 50
1, 90981, Control_c, 0, 64, 62
1, 90985, Note_off_c, 0, 63, 65
1, 90994, Note_on_c, 0, 96, 77
1, 90996, Control_c, 0, 64, 74
1, 91011, Control_c, 0, 64, 81
1, 91026, Control_c, 0, 64, 81
1, 91028, Note_off_c, 0, 65, 63
1, 91040, Control_c, 0, 64, 84
1, 91043, Note_off_c, 0, 98, 58
1, 91049, Note_on_c, 0, 91, 75
1, 91055, Control_c, 0, 64, 94
1, 91070, Control_c, 0, 64, 127
1, 91092, Note_off_c, 0, 96, 62
1, 91109, Note_off_c, 0, 91, 59
1, 91127, Note_on_c, 0, 65, 77
1, 91130, Note_on_c, 0, 89, 68
1, 91130, Control_c, 0, 64, 80
1, 91131, Note_on_c, 0, 63, 60
1, 91142, Note_on_c, 0, 57, 56
1, 91145, Control_c, 0, 64, 61
1, 91160, Control_c, 0, 64, 41
1, 91171, Note_off_c, 0, 89, 51
1, 91175, Note_off_c, 0, 55, 37
1, 91175, Control_c, 0, 64, 9
1, 91189, Control_c, 0, 64, 20
1, 91204, Control_c, 0, 64, 30
1, 91205, Note_on_c, 0, 86, 68
1, 91219, Control_c, 0, 64, 40
1, 91234, Control_c, 0, 64, 51
1, 91249, Control_c, 0, 64, 62
1, 91264, Control_c, 0, 64, 71
1, 91271, Note_off_c, 0, 63, 58
1, 91276, Note_on_c, 0, 87, 76
1, 91279, Control_c, 0, 64, 76
1, 91290, Note_off_c, 0, 86, 60
1, 91294, Control_c, 0, 64, 77
1, 91305, Note_off_c, 0, 65, 61
1, 91309, Control_c, 0, 64, 80
1, 91324, Control_c, 0, 64, 86
1, 91336, Note_on_c, 0, 84, 67
1, 91338, Control_c, 0, 64, 99
1, 91341, Note_off_c, 0, 87, 64
1, 91353, Control_c, 0, 64, 113
1, 91368, Control_c, 0, 64, 114
1, 91372, Note_off_c, 0, 57, 57
1, 91382, Control_c, 0, 64, 98
1, 91397, Control_c, 0, 64, 73
1, 91408, Note_off_c, 0, 84, 60
1, 91412, Control_c, 0, 64, 56
1, 91420, Note_on_c, 0, 58, 43
1, 91422, Note_on_c, 0, 82, 63
1, 91427, Control_c, 0, 64, 0
1, 91437, Note_on_c, 0, 62, 42
1, 91437, Note_on_c, 0, 65, 49
1, 91466, Note_off_c, 0, 58, 0
1, 91466, Note_on_c, 0, 58, 5
1, 91470, Note_off_c, 0, 82, 0
1, 91470, Note_on_c, 0, 82, 20
1, 91504, Note_on_c, 0, 88, 65
1, 91529, Note_off_c, 0, 82, 55
1, 91531, Control_c, 0, 64, 28
1, 91546, Control_c, 0, 64, 40
1, 91561, Control_c, 0, 64, 55
1, 91567, Note_off_c, 0, 65, 60
1, 91576, Control_c, 0, 64, 66
1, 91586, Note_on_c, 0, 86, 67
1, 91598, Control_c, 0, 64, 82
1, 91599, Note_off_c, 0, 88, 62
1, 91613, Control_c, 0, 64, 95
1, 91622, Note_off_c, 0, 86, 61
1, 91628, Control_c, 0, 64, 110
1, 91634, Note_on_c, 0, 78, 77
1, 91642, Control_c, 0, 64, 127
1, 91684, Note_off_c, 0, 78, 59
1, 91687, Control_c, 0, 64, 95
1, 91697, Note_on_c, 0, 79, 70
1, 91702, Control_c, 0, 64, 70
1, 91708, Note_on_c, 0, 65, 76
1, 91716, Control_c, 0, 64, 59
1, 91731, Control_c, 0, 64, 55
1, 91746, Control_c, 0, 64, 59
1, 91761, Control_c, 0, 64, 65
1, 91774, Note_on_c, 0, 84, 69
1, 91776, Control_c, 0, 64, 70
1, 91790, Control_c, 0, 64, 76
1, 91805, Control_c, 0, 64, 85
1, 91820, Control_c, 0, 64, 98
1, 91822, Note_off_c, 0, 79, 60
1, 91835, Note_on_c, 0, 82, 76
1, 91835, Control_c, 0, 64, 119
1, 91850, Control_c, 0, 64, 127
1, 91852, Note_off_c, 0, 84, 62
1, 91899, Note_off_c, 0, 82, 64
1, 91909, Note_on_c, 0, 73, 67
1, 91984, Control_c, 0, 64, 73
1, 91999, Control_c, 0, 64, 56
1, 92000, Note_on_c, 0, 74, 58
1, 92010, Note_on_c, 0, 53, 48
1, 92013, Control_c, 0, 64, 37
1, 92026, Note_off_c, 0, 73, 36
1, 92028, Control_c, 0, 64, 34
1, 92043, Control_c, 0, 64, 41
1, 92058, Control_c, 0, 64, 45
1, 92063, Note_on_c, 0, 81, 62
1, 92063, Note_off_c, 0, 62, 31
1, 92073, Control_c, 0, 64, 50
1, 92087, Control_c, 0, 64, 56
1, 92102, Control_c, 0, 64, 62
1, 92117, Control_c, 0, 64, 66
1, 92122, Note_off_c, 0, 65, 55
1, 92132, Control_c, 0, 64, 74
1, 92147, Control_c, 0, 64, 79
1, 92152, Note_off_c, 0, 74, 37
1, 92161, Control_c, 0, 64, 81
1, 92167, Note_on_c, 0, 79, 55
1, 92176, Control_c, 0, 64, 83
1, 92191, Control_c, 0, 64, 87
1, 92203, Note_off_c, 0, 81, 61
1, 92206, Control_c, 0, 64, 93
1, 92221, Control_c, 0, 64, 99
1, 92233, Note_off_c, 0, 79, 61
1, 92236, Control_c, 0, 64, 127
1, 92245, Note_on_c, 0, 72, 58
1, 92246, Note_off_c, 0, 58, 35
1, 92295, Control_c, 0, 64, 117
1, 92310, Control_c, 0, 64, 74
1, 92325, Control_c, 0, 64, 57
1, 92346, Control_c, 0, 64, 44
1, 92355, Note_on_c, 0, 65, 77
1, 92361, Control_c, 0, 64, 43
1, 92365, Note_off_c, 0, 72, 53
1, 92367, Note_on_c, 0, 62, 67
1, 92376, Control_c, 0, 64, 49
1, 92391, Control_c, 0, 64, 53
1, 92397, Note_on_c, 0, 70, 56
1, 92406, Poly_aftertouch_c, 0, 58, 127
1, 92406, Control_c, 0, 64, 57
1, 92420, Control_c, 0, 64, 61
1, 92435, Control_c, 0, 64, 67
1, 92450, Control_c, 0, 64, 74
1, 92462, Poly_aftertouch_c, 0, 58, 0
1, 92465, Control_c, 0, 64, 82
1, 92468, Note_off_c, 0, 53, 44
1, 92474, Note_on_c, 0, 76, 60
1, 92480, Control_c, 0, 64, 86
1, 92489, Note_off_c, 0, 70, 58
1, 92495, Control_c, 0, 64, 88
1, 92510, Control_c, 0, 64, 90
1, 92525, Control_c, 0, 64, 95
1, 92539, Control_c, 0, 64, 102
1, 92541, Note_on_c, 0, 74, 49
1, 92554, Control_c, 0, 64, 110
1, 92568, Note_off_c, 0, 76, 60
1, 92569, Control_c, 0, 64, 127
1, 92590, Note_on_c, 0, 60, 60
1, 92591, Note_on_c, 0, 69, 54
1, 92618, Note_off_c, 0, 74, 55
1, 92628, Control_c, 0, 64, 85
1, 92643, Control_c, 0, 64, 62
1, 92656, Note_off_c, 0, 69, 62
1, 92658, Control_c, 0, 64, 37
1, 92662, Note_on_c, 0, 67, 57
1, 92666, Note_on_c, 0, 53, 57
1, 92671, Note_on_c, 0, 58, 56
1, 92671, Note_off_c, 0, 60, 60
1, 92673, Control_c, 0, 64, 0
1, 92675, Note_off_c, 0, 62, 55
1, 92714, Note_off_c, 0, 65, 54
1, 92719, Note_off_c, 0, 67, 44
1, 92727, Note_on_c, 0, 69, 54
1, 92733, Control_c, 0, 64, 21
1, 92748, Control_c, 0, 64, 33
1, 92763, Control_c, 0, 64, 43
1, 92774, Note_off_c, 0, 69, 63
1, 92778, Control_c, 0, 64, 54
1, 92792, Control_c, 0, 64, 62
1, 92799, Note_on_c, 0, 67, 57
1, 92807, Control_c, 0, 64, 70
1, 92822, Control_c, 0, 64, 79
1, 92836, Control_c, 0, 64, 89
1, 92849, Note_off_c, 0, 67, 53
1, 92851, Control_c, 0, 64, 103
1, 92866, Control_c, 0, 64, 127
1, 92878, Note_on_c, 0, 74, 56
1, 92896, Control_c, 0, 64, 99
1, 92910, Control_c, 0, 64, 68
1, 92921, Note_off_c, 0, 74, 55
1, 92925, Control_c, 0, 64, 51
1, 92935, Note_on_c, 0, 64, 76
1, 92940, Control_c, 0, 64, 12
1, 92948, Note_on_c, 0, 72, 62
1, 92954, Control_c, 0, 64, 0
1, 92984, Control_c, 0, 64, 20
1, 92991, Note_off_c, 0, 72, 51
1, 92999, Control_c, 0, 64, 33
1, 93014, Control_c, 0, 64, 43
1, 93029, Control_c, 0, 64, 55
1, 93038, Note_on_c, 0, 74, 48
1, 93044, Control_c, 0, 64, 64
1, 93058, Control_c, 0, 64, 73
1, 93063, Note_off_c, 0, 74, 62
1, 93081, Control_c, 0, 64, 78
1, 93096, Control_c, 0, 64, 79
1, 93100, Note_on_c, 0, 72, 60
1, 93110, Control_c, 0, 64, 84
1, 93125, Control_c, 0, 64, 108
1, 93140, Control_c, 0, 64, 127
1, 93155, Note_off_c, 0, 72, 54
1, 93165, Note_on_c, 0, 62, 73
1, 93166, Note_on_c, 0, 77, 61
1, 93168, Note_off_c, 0, 64, 59
1, 93184, Control_c, 0, 64, 117
1, 93199, Control_c, 0, 64, 68
1, 93201, Note_off_c, 0, 77, 61
1, 93214, Control_c, 0, 64, 51
1, 93225, Note_on_c, 0, 60, 77
1, 93228, Note_on_c, 0, 76, 67
1, 93229, Control_c, 0, 64, 16
1, 93243, Control_c, 0, 64, 0
1, 93247, Note_off_c, 0, 62, 62
1, 93258, Control_c, 0, 64, 10
1, 93273, Control_c, 0, 64, 25
1, 93282, Note_off_c, 0, 76, 62
1, 93288, Control_c, 0, 64, 38
1, 93294, Note_on_c, 0, 77, 64
1, 93303, Control_c, 0, 64, 49
1, 93318, Control_c, 0, 64, 60
1, 93318, Note_off_c, 0, 77, 63
1, 93333, Control_c, 0, 64, 67
1, 93346, Note_on_c, 0, 76, 71
1, 93348, Control_c, 0, 64, 74
1, 93362, Control_c, 0, 64, 79
1, 93377, Control_c, 0, 64, 87
1, 93387, Note_off_c, 0, 60, 55
1, 93392, Control_c, 0, 64, 101
1, 93404, Note_off_c, 0, 76, 62
1, 93407, Control_c, 0, 64, 127
1, 93417, Note_on_c, 0, 86, 74
1, 93451, Control_c, 0, 64, 81
1, 93466, Control_c, 0, 64, 63
1, 93481, Control_c, 0, 64, 42
1, 93483, Note_off_c, 0, 86, 64
1, 93486, Note_on_c, 0, 84, 65
1, 93496, Control_c, 0, 64, 35
1, 93500, Note_on_c, 0, 60, 89
1, 93512, Control_c, 0, 64, 43
1, 93526, Control_c, 0, 64, 50
1, 93541, Control_c, 0, 64, 58
1, 93550, Note_off_c, 0, 84, 62
1, 93556, Note_on_c, 0, 86, 62
1, 93556, Control_c, 0, 64, 65
1, 93571, Control_c, 0, 64, 74
1, 93577, Note_off_c, 0, 58, 35
1, 93582, Note_off_c, 0, 86, 62
1, 93585, Control_c, 0, 64, 83
1, 93600, Control_c, 0, 64, 90
1, 93615, Control_c, 0, 64, 100
1, 93625, Note_on_c, 0, 84, 67
1, 93630, Control_c, 0, 64, 127
1, 93651, Note_off_c, 0, 84, 67
1, 93652, Note_off_c, 0, 53, 43
1, 93699, Note_on_c, 0, 98, 74
1, 93762, Control_c, 0, 64, 93
1, 93777, Control_c, 0, 64, 70
1, 93777, Note_off_c, 0, 60, 65
1, 93780, Note_on_c, 0, 62, 67
1, 93783, Note_off_c, 0, 98, 51
1, 93785, Note_on_c, 0, 96, 68
1, 93787, Note_on_c, 0, 53, 51
1, 93792, Control_c, 0, 64, 56
1, 93802, Note_on_c, 0, 57, 58
1, 93807, Control_c, 0, 64, 33
1, 93822, Control_c, 0, 64, 0
1, 93849, Note_off_c, 0, 96, 61
1, 93863, Note_on_c, 0, 98, 64
1, 93943, Note_off_c, 0, 98, 58
1, 93960, Note_on_c, 0, 96, 38
1, 93975, Note_on_c, 0, 95, 43
1, 93994, Note_on_c, 0, 91, 64
1, 94002, Note_off_c, 0, 96, 49
1, 94006, Note_off_c, 0, 95, 50
1, 94042, Note_off_c, 0, 91, 56
1, 94055, Note_off_c, 0, 62, 56
1, 94056, Note_on_c, 0, 89, 61
1, 94077, Note_on_c, 0, 60, 53
1, 94098, Note_off_c, 0, 89, 65
1, 94129, Note_on_c, 0, 91, 62
1, 94191, Note_on_c, 0, 89, 58
1, 94207, Note_off_c, 0, 91, 53
1, 94229, Control_c, 0, 64, 12
1, 94244, Control_c, 0, 64, 24
1, 94255, Note_on_c, 0, 86, 63
1, 94258, Control_c, 0, 64, 32
1, 94269, Note_off_c, 0, 89, 61
1, 94273, Control_c, 0, 64, 40
1, 94288, Control_c, 0, 64, 50
1, 94304, Control_c, 0, 64, 58
1, 94318, Note_off_c, 0, 86, 62
1, 94319, Control_c, 0, 64, 62
1, 94324, Note_on_c, 0, 84, 60
1, 94334, Control_c, 0, 64, 62
1, 94349, Control_c, 0, 64, 63
1, 94362, Note_off_c, 0, 84, 63
1, 94363, Control_c, 0, 64, 63
1, 94378, Control_c, 0, 64, 65
1, 94386, Note_on_c, 0, 86, 62
1, 94393, Control_c, 0, 64, 67
1, 94407, Control_c, 0, 64, 69
1, 94467, Control_c, 0, 64, 70
1, 94476, Note_on_c, 0, 84, 67
1, 94481, Control_c, 0, 64, 73
1, 94489, Note_off_c, 0, 86, 50
1, 94496, Control_c, 0, 64, 77
1, 94511, Control_c, 0, 64, 78
1, 94543, Note_on_c, 0, 79, 58
1, 94555, Control_c, 0, 64, 76
1, 94570, Note_off_c, 0, 84, 57
1, 94570, Control_c, 0, 64, 74
1, 94593, Control_c, 0, 64, 74
1, 94629, Note_off_c, 0, 79, 60
1, 94637, Note_off_c, 0, 57, 20
1, 94638, Note_on_c, 0, 77, 62
1, 94657, Note_on_c, 0, 65, 60
1, 94694, Note_off_c, 0, 77, 53
1, 94696, Control_c, 0, 64, 74
1, 94711, Control_c, 0, 64, 75
1, 94726, Control_c, 0, 64, 76
1, 94747, Note_on_c, 0, 79, 55
1, 94755, Control_c, 0, 64, 76
1, 94770, Control_c, 0, 64, 77
1, 94774, Note_off_c, 0, 53, 40
1, 94785, Control_c, 0, 64, 79
1, 94800, Control_c, 0, 64, 80
1, 94816, Note_off_c, 0, 60, 53
1, 94829, Note_on_c, 0, 77, 54
1, 94829, Note_off_c, 0, 79, 55
1, 94865, Note_off_c, 0, 65, 57
1, 94900, Note_on_c, 0, 74, 51
1, 94918, Control_c, 0, 64, 83
1, 94933, Control_c, 0, 64, 88
1, 94946, Note_off_c, 0, 77, 55
1, 94948, Control_c, 0, 64, 92
1, 94963, Control_c, 0, 64, 91
1, 94978, Control_c, 0, 64, 79
1, 94978, Note_off_c, 0, 74, 61
1, 94993, Control_c, 0, 64, 66
1, 94996, Note_on_c, 0, 65, 54
1, 95000, Note_on_c, 0, 72, 56
1, 95002, Note_on_c, 0, 58, 52
1, 95007, Control_c, 0, 64, 50
1, 95022, Control_c, 0, 64, 31
1, 95023, Note_on_c, 0, 55, 37
1, 95031, Note_on_c, 0, 53, 38
1, 95037, Control_c, 0, 64, 29
1, 95050, Note_off_c, 0, 72, 59
1, 95052, Control_c, 0, 64, 34
1, 95067, Control_c, 0, 64, 37
1, 95072, Note_on_c, 0, 74, 53
1, 95081, Control_c, 0, 64, 41
1, 95096, Control_c, 0, 64, 50
1, 95112, Control_c, 0, 64, 57
1, 95127, Control_c, 0, 64, 63
1, 95135, Note_off_c, 0, 74, 62
1, 95142, Control_c, 0, 64, 66
1, 95148, Note_on_c, 0, 72, 59
1, 95156, Control_c, 0, 64, 69
1, 95157, Note_off_c, 0, 65, 63
1, 95171, Control_c, 0, 64, 74
1, 95186, Control_c, 0, 64, 83
1, 95200, Note_off_c, 0, 55, 47
1, 95201, Control_c, 0, 64, 99
1, 95206, Note_off_c, 0, 72, 51
1, 95215, Note_on_c, 0, 77, 62
1, 95216, Control_c, 0, 64, 106
1, 95230, Control_c, 0, 64, 103
1, 95245, Control_c, 0, 64, 83
1, 95260, Control_c, 0, 64, 67
1, 95271, Note_off_c, 0, 77, 52
1, 95275, Control_c, 0, 64, 55
1, 95288, Note_on_c, 0, 76, 63
1, 95289, Note_on_c, 0, 64, 76
1, 95290, Control_c, 0, 64, 38
1, 95304, Control_c, 0, 64, 38
1, 95309, Note_off_c, 0, 58, 63
1, 95319, Control_c, 0, 64, 45
1, 95342, Note_off_c, 0, 76, 57
1, 95342, Control_c, 0, 64, 50
1, 95356, Control_c, 0, 64, 56
1, 95368, Note_on_c, 0, 77, 53
1, 95371, Control_c, 0, 64, 62
1, 95386, Control_c, 0, 64, 67
1, 95389, Note_off_c, 0, 77, 63
1, 95401, Control_c, 0, 64, 73
1, 95416, Control_c, 0, 64, 77
1, 95430, Control_c, 0, 64, 81
1, 95432, Note_on_c, 0, 76, 72
1, 95445, Control_c, 0, 64, 88
1, 95460, Control_c, 0, 64, 95
1, 95475, Control_c, 0, 64, 106
1, 95485, Note_off_c, 0, 76, 62
1, 95490, Control_c, 0, 64, 122
1, 95504, Control_c, 0, 64, 119
1, 95509, Note_on_c, 0, 86, 70
1, 95514, Note_off_c, 0, 64, 61
1, 95516, Note_on_c, 0, 62, 77
1, 95519, Control_c, 0, 64, 95
1, 95534, Control_c, 0, 64, 72
1, 95549, Control_c, 0, 64, 58
1, 95563, Control_c, 0, 64, 32
1, 95568, Note_off_c, 0, 86, 63
1, 95570, Note_on_c, 0, 60, 79
1, 95577, Note_on_c, 0, 84, 63
1, 95578, Control_c, 0, 64, 0
1, 95600, Note_off_c, 0, 62, 63
1, 95635, Note_on_c, 0, 86, 66
1, 95637, Note_off_c, 0, 84, 63
1, 95637, Control_c, 0, 64, 22
1, 95652, Control_c, 0, 64, 34
1, 95665, Note_off_c, 0, 86, 64
1, 95667, Control_c, 0, 64, 44
1, 95682, Control_c, 0, 64, 58
1, 95697, Control_c, 0, 64, 67
1, 95708, Note_on_c, 0, 84, 71
1, 95711, Control_c, 0, 64, 75
1, 95726, Control_c, 0, 64, 76
1, 95741, Control_c, 0, 64, 78
1, 95753, Note_off_c, 0, 84, 57
1, 95756, Control_c, 0, 64, 90
1, 95763, Note_off_c, 0, 60, 61
1, 95771, Control_c, 0, 64, 127
1, 95772, Note_on_c, 0, 89, 77
1, 95786, Control_c, 0, 64, 105
1, 95801, Control_c, 0, 64, 79
1, 95816, Control_c, 0, 64, 65
1, 95825, Note_off_c, 0, 89, 65
1, 95830, Control_c, 0, 64, 55
1, 95831, Note_on_c, 0, 88, 76
1, 95835, Note_on_c, 0, 60, 89
1, 95845, Control_c, 0, 64, 44
1, 95860, Control_c, 0, 64, 46
1, 95874, Control_c, 0, 64, 56
1, 95889, Control_c, 0, 64, 63
1, 95891, Note_off_c, 0, 88, 65
1, 95900, Note_on_c, 0, 89, 68
1, 95905, Control_c, 0, 64, 69
1, 95920, Control_c, 0, 64, 75
1, 95920, Note_off_c, 0, 53, 43
1, 95933, Note_off_c, 0, 89, 63
1, 95935, Control_c, 0, 64, 80
1, 95950, Control_c, 0, 64, 85
1, 95965, Control_c, 0, 64, 95
1, 95969, Note_on_c, 0, 88, 72
1, 95979, Control_c, 0, 64, 110
1, 95994, Control_c, 0, 64, 127
1, 96024, Note_off_c, 0, 88, 58
1, 96040, Note_on_c, 0, 98, 77
1, 96120, Note_off_c, 0, 98, 61
1, 96120, Control_c, 0, 64, 91
1, 96123, Note_on_c, 0, 96, 64
1, 96127, Note_on_c, 0, 62, 89
1, 96134, Control_c, 0, 64, 67
1, 96136, Note_on_c, 0, 53, 68
1, 96137, Note_off_c, 0, 60, 61
1, 96138, Note_on_c, 0, 57, 72
1, 96149, Control_c, 0, 64, 49
1, 96164, Control_c, 0, 64, 0
1, 96193, Note_off_c, 0, 96, 61
1, 96213, Note_on_c, 0, 98, 72
1, 96285, Note_on_c, 0, 96, 65
1, 96299, Note_off_c, 0, 98, 54
1, 96346, Note_on_c, 0, 91, 70
1, 96363, Note_off_c, 0, 96, 60
1, 96415, Note_off_c, 0, 91, 59
1, 96421, Note_on_c, 0, 60, 79
1, 96425, Note_on_c, 0, 89, 66
1, 96483, Note_off_c, 0, 89, 65
1, 96483, Note_off_c, 0, 62, 60
1, 96501, Note_on_c, 0, 91, 71
1, 96534, Control_c, 0, 64, 11
1, 96549, Control_c, 0, 64, 29
1, 96564, Control_c, 0, 64, 39
1, 96578, Control_c, 0, 64, 49
1, 96586, Note_on_c, 0, 89, 68
1, 96593, Control_c, 0, 64, 59
1, 96601, Note_off_c, 0, 91, 51
1, 96608, Control_c, 0, 64, 64
1, 96609, Note_off_c, 0, 53, 65
1, 96623, Control_c, 0, 64, 67
1, 96638, Control_c, 0, 64, 68
1, 96652, Control_c, 0, 64, 69
1, 96660, Note_on_c, 0, 86, 67
1, 96667, Control_c, 0, 64, 71
1, 96682, Control_c, 0, 64, 76
1, 96683, Note_off_c, 0, 89, 56
1, 96698, Control_c, 0, 64, 81
1, 96713, Control_c, 0, 64, 83
1, 96728, Control_c, 0, 64, 83
1, 96746, Note_off_c, 0, 57, 31
1, 96770, Note_off_c, 0, 86, 58
1, 96772, Control_c, 0, 64, 79
1, 96780, Note_on_c, 0, 69, 73
1, 96787, Control_c, 0, 64, 73
1, 96795, Note_on_c, 0, 84, 56
1, 96801, Control_c, 0, 64, 67
1, 96823, Control_c, 0, 64, 64
1, 96883, Note_off_c, 0, 84, 57
1, 96883, Control_c, 0, 64, 65
1, 96905, Note_on_c, 0, 86, 60
1, 96913, Control_c, 0, 64, 66
1, 96927, Control_c, 0, 64, 69
1, 96942, Control_c, 0, 64, 71
1, 96957, Control_c, 0, 64, 71
1, 96994, Note_off_c, 0, 86, 58
1, 96997, Note_on_c, 0, 84, 63
1, 97005, Note_off_c, 0, 69, 61
1, 97031, Control_c, 0, 64, 72
1, 97061, Control_c, 0, 64, 75
1, 97071, Note_on_c, 0, 79, 53
1, 97075, Control_c, 0, 64, 86
1, 97090, Control_c, 0, 64, 99
1, 97097, Note_off_c, 0, 84, 56
1, 97120, Control_c, 0, 64, 84
1, 97134, Control_c, 0, 64, 71
1, 97140, Note_off_c, 0, 79, 60
1, 97148, Note_on_c, 0, 58, 64
1, 97149, Control_c, 0, 64, 62
1, 97154, Note_off_c, 0, 60, 57
1, 97158, Note_on_c, 0, 77, 59
1, 97161, Note_on_c, 0, 67, 64
1, 97164, Control_c, 0, 64, 52
1, 97179, Control_c, 0, 64, 50
1, 97194, Control_c, 0, 64, 55
1, 97208, Control_c, 0, 64, 61
1, 97223, Control_c, 0, 64, 63
1, 97229, Note_off_c, 0, 77, 54
1, 97238, Control_c, 0, 64, 66
1, 97246, Note_off_c, 0, 67, 56
1, 97252, Note_on_c, 0, 79, 63
1, 97253, Control_c, 0, 64, 71
1, 97268, Control_c, 0, 64, 78
1, 97282, Control_c, 0, 64, 83
1, 97297, Control_c, 0, 64, 86
1, 97342, Control_c, 0, 64, 88
1, 97343, Note_on_c, 0, 77, 72
1, 97343, Note_off_c, 0, 79, 55
1, 97345, Note_on_c, 0, 65, 56
1, 97350, Note_off_c, 0, 58, 51
1, 97354, Note_on_c, 0, 57, 55
1, 97357, Control_c, 0, 64, 89
1, 97372, Control_c, 0, 64, 90
1, 97393, Note_off_c, 0, 65, 60
1, 97415, Note_off_c, 0, 57, 56
1, 97416, Control_c, 0, 64, 90
1, 97447, Note_on_c, 0, 74, 58
1, 97463, Note_off_c, 0, 77, 52
1, 97475, Control_c, 0, 64, 89
1, 97536, Control_c, 0, 64, 88
1, 97550, Control_c, 0, 64, 83
1, 97553, Note_off_c, 0, 74, 60
1, 97572, Control_c, 0, 64, 73
1, 97587, Control_c, 0, 64, 61
1, 97602, Control_c, 0, 64, 43
1, 97617, Control_c, 0, 64, 0
1, 97623, Note_on_c, 0, 72, 45
1, 97625, Note_on_c, 0, 58, 39
1, 97625, Note_on_c, 0, 65, 32
1, 97626, Note_on_c, 0, 55, 38
1, 97636, Note_on_c, 0, 53, 31
1, 97670, Note_off_c, 0, 65, 0
1, 97670, Note_on_c, 0, 65, 12
1, 97706, Note_off_c, 0, 72, 50
1, 97712, Note_on_c, 0, 75, 56
1, 97735, Control_c, 0, 64, 19
1, 97750, Control_c, 0, 64, 31
1, 97765, Control_c, 0, 64, 40
1, 97780, Control_c, 0, 64, 50
1, 97787, Note_off_c, 0, 75, 61
1, 97791, Note_on_c, 0, 77, 58
1, 97795, Control_c, 0, 64, 58
1, 97801, Note_off_c, 0, 65, 49
1, 97810, Control_c, 0, 64, 61
1, 97822, Note_off_c, 0, 77, 65
1, 97824, Control_c, 0, 64, 62
1, 97839, Control_c, 0, 64, 63
1, 97840, Note_off_c, 0, 55, 34
1, 97854, Control_c, 0, 64, 64
1, 97867, Note_on_c, 0, 76, 58
1, 97869, Control_c, 0, 64, 70
1, 97884, Control_c, 0, 64, 78
1, 97898, Control_c, 0, 64, 81
1, 97902, Note_off_c, 0, 58, 61
1, 97913, Control_c, 0, 64, 80
1, 97915, Note_off_c, 0, 76, 58
1, 97928, Control_c, 0, 64, 70
1, 97933, Note_on_c, 0, 78, 64
1, 97942, Note_on_c, 0, 64, 48
1, 97943, Control_c, 0, 64, 60
1, 97957, Control_c, 0, 64, 44
1, 97971, Note_off_c, 0, 78, 64
1, 97972, Control_c, 0, 64, 0
1, 97987, Control_c, 0, 64, 8
1, 97995, Note_on_c, 0, 81, 62
1, 98002, Control_c, 0, 64, 18
1, 98017, Control_c, 0, 64, 24
1, 98031, Control_c, 0, 64, 30
1, 98033, Note_off_c, 0, 81, 61
1, 98046, Control_c, 0, 64, 36
1, 98061, Control_c, 0, 64, 43
1, 98076, Note_on_c, 0, 79, 61
1, 98076, Control_c, 0, 64, 54
1, 98085, Note_off_c, 0, 64, 57
1, 98091, Control_c, 0, 64, 62
1, 98105, Control_c, 0, 64, 69
1, 98114, Note_on_c, 0, 62, 57
1, 98119, Note_off_c, 0, 79, 53
1, 98120, Control_c, 0, 64, 74
1, 98135, Note_on_c, 0, 83, 63
1, 98165, Control_c, 0, 64, 68
1, 98169, Note_off_c, 0, 62, 59
1, 98180, Control_c, 0, 64, 59
1, 98186, Note_on_c, 0, 60, 52
1, 98195, Control_c, 0, 64, 35
1, 98203, Note_off_c, 0, 83, 66
1, 98204, Note_on_c, 0, 86, 64
1, 98209, Control_c, 0, 64, 0
1, 98251, Note_off_c, 0, 86, 62
1, 98284, Control_c, 0, 64, 8
1, 98295, Note_on_c, 0, 84, 52
1, 98300, Control_c, 0, 64, 28
1, 98315, Control_c, 0, 64, 40
1, 98337, Control_c, 0, 64, 52
1, 98344, Note_off_c, 0, 84, 46
1, 98347, Note_off_c, 0, 60, 59
1, 98350, Note_on_c, 0, 87, 69
1, 98352, Control_c, 0, 64, 65
1, 98367, Control_c, 0, 64, 80
1, 98381, Control_c, 0, 64, 91
1, 98396, Control_c, 0, 64, 95
1, 98409, Note_on_c, 0, 89, 69
1, 98411, Control_c, 0, 64, 99
1, 98417, Note_off_c, 0, 87, 63
1, 98426, Control_c, 0, 64, 93
1, 98441, Control_c, 0, 64, 76
1, 98455, Control_c, 0, 64, 62
1, 98456, Note_off_c, 0, 89, 65
1, 98470, Control_c, 0, 64, 48
1, 98478, Note_on_c, 0, 60, 51
1, 98484, Note_on_c, 0, 88, 72
1, 98485, Control_c, 0, 64, 38
1, 98497, Note_off_c, 0, 53, 44
1, 98500, Control_c, 0, 64, 42
1, 98515, Control_c, 0, 64, 48
1, 98523, Note_off_c, 0, 60, 42
1, 98529, Control_c, 0, 64, 54
1, 98544, Control_c, 0, 64, 61
1, 98545, Note_on_c, 0, 90, 71
1, 98547, Note_off_c, 0, 88, 59
1, 98559, Control_c, 0, 64, 64
1, 98573, Control_c, 0, 64, 67
1, 98588, Control_c, 0, 64, 69
1, 98598, Note_on_c, 0, 93, 65
1, 98603, Control_c, 0, 64, 71
1, 98606, Note_off_c, 0, 90, 66
1, 98607, Note_on_c, 0, 53, 49
1, 98618, Control_c, 0, 64, 72
1, 98633, Control_c, 0, 64, 74
1, 98646, Note_off_c, 0, 53, 51
1, 98648, Control_c, 0, 64, 80
1, 98663, Control_c, 0, 64, 87
1, 98667, Note_off_c, 0, 93, 61
1, 98677, Control_c, 0, 64, 89
1, 98687, Note_on_c, 0, 60, 44
1, 98692, Control_c, 0, 64, 87
1, 98698, Note_on_c, 0, 91, 58
1, 98707, Control_c, 0, 64, 74
1, 98713, Note_on_c, 0, 64, 50
1, 98722, Control_c, 0, 64, 61
1, 98737, Control_c, 0, 64, 32
1, 98752, Control_c, 0, 64, 0
1, 98765, Note_off_c, 0, 91, 52
1, 98797, Note_on_c, 0, 94, 64
1, 98800, Note_on_c, 0, 70, 63
1, 98826, Control_c, 0, 64, 21
1, 98841, Control_c, 0, 64, 29
1, 98855, Control_c, 0, 64, 35
1, 98856, Note_off_c, 0, 70, 0
1, 98856, Note_on_c, 0, 70, 15
1, 98866, Note_on_c, 0, 90, 59
1, 98870, Control_c, 0, 64, 43
1, 98880, Note_off_c, 0, 94, 61
1, 98885, Control_c, 0, 64, 52
1, 98899, Control_c, 0, 64, 59
1, 98914, Control_c, 0, 64, 62
1, 98920, Note_off_c, 0, 90, 65
1, 98929, Control_c, 0, 64, 63
1, 98940, Note_on_c, 0, 91, 61
1, 98944, Control_c, 0, 64, 63
1, 98959, Control_c, 0, 64, 64
1, 98973, Control_c, 0, 64, 65
1, 98987, Note_on_c, 0, 98, 52
1, 98988, Control_c, 0, 64, 66
1, 98996, Note_off_c, 0, 91, 45
1, 99024, Note_off_c, 0, 60, 11
1, 99051, Note_on_c, 0, 96, 67
1, 99075, Note_off_c, 0, 98, 49
1, 99119, Note_off_c, 0, 70, 41
1, 99131, Note_on_c, 0, 93, 61
1, 99151, Note_off_c, 0, 96, 60
1, 99152, Note_off_c, 0, 64, 40
1, 99175, Note_off_c, 0, 93, 56
1, 99209, Note_on_c, 0, 91, 52
1, 99271, Note_on_c, 0, 98, 56
1, 99309, Note_off_c, 0, 91, 33
1, 99330, Note_on_c, 0, 94, 67
1, 99367, Control_c, 0, 64, 65
1, 99370, Note_off_c, 0, 98, 45
1, 99382, Control_c, 0, 64, 63
1, 99388, Note_on_c, 0, 90, 56
1, 99396, Control_c, 0, 64, 58
1, 99411, Control_c, 0, 64, 44
1, 99426, Control_c, 0, 64, 22
1, 99431, Note_off_c, 0, 94, 61
1, 99441, Control_c, 0, 64, 0
1, 99459, Note_off_c, 0, 90, 65
1, 99461, Note_on_c, 0, 91, 59
1, 99523, Note_on_c, 0, 98, 64
1, 99541, Note_off_c, 0, 91, 54
1, 99593, Note_on_c, 0, 96, 64
1, 99628, Note_off_c, 0, 98, 59
1, 99653, Note_on_c, 0, 93, 66
1, 99673, Note_off_c, 0, 96, 58
1, 99692, Note_on_c, 0, 65, 53
1, 99715, Note_off_c, 0, 93, 61
1, 99733, Note_on_c, 0, 91, 52
1, 99751, Note_off_c, 0, 65, 64
1, 99752, Control_c, 0, 64, 18
1, 99767, Control_c, 0, 64, 30
1, 99780, Note_on_c, 0, 98, 54
1, 99782, Control_c, 0, 64, 40
1, 99790, Note_on_c, 0, 72, 29
1, 99790, Note_off_c, 0, 91, 49
1, 99797, Control_c, 0, 64, 48
1, 99804, Note_on_c, 0, 76, 44
1, 99812, Control_c, 0, 64, 57
1, 99834, Control_c, 0, 64, 62
1, 99849, Control_c, 0, 64, 64
1, 99854, Note_on_c, 0, 94, 68
1, 99864, Control_c, 0, 64, 65
1, 99869, Note_off_c, 0, 76, 0
1, 99869, Note_on_c, 0, 76, 5
1, 99871, Note_off_c, 0, 98, 54
1, 99876, Note_on_c, 0, 82, 61
1, 99879, Control_c, 0, 64, 66
1, 99894, Control_c, 0, 64, 67
1, 99900, Note_off_c, 0, 82, 61
1, 99901, Note_off_c, 0, 72, 35
1, 99904, Note_off_c, 0, 76, 53
1, 99909, Control_c, 0, 64, 68
1, 99923, Note_on_c, 0, 90, 50
1, 99924, Control_c, 0, 64, 69
1, 99953, Note_off_c, 0, 94, 60
1, 99981, Note_off_c, 0, 90, 60
1, 99989, Note_on_c, 0, 91, 61
1, 99998, Control_c, 0, 64, 69
1, 100034, Note_on_c, 0, 98, 59
1, 100046, Note_off_c, 0, 91, 50
1, 100103, Note_on_c, 0, 96, 65
1, 100121, Note_off_c, 0, 98, 48
1, 100162, Note_on_c, 0, 93, 62
1, 100170, Note_off_c, 0, 96, 61
1, 100191, Control_c, 0, 64, 69
1, 100206, Control_c, 0, 64, 68
1, 100214, Note_off_c, 0, 93, 58
1, 100231, Note_on_c, 0, 91, 56
1, 100278, Note_on_c, 0, 98, 60
1, 100294, Control_c, 0, 64, 69
1, 100299, Note_off_c, 0, 91, 45
1, 100339, Control_c, 0, 64, 68
1, 100343, Note_off_c, 0, 98, 61
1, 100344, Note_on_c, 0, 94, 69
1, 100353, Control_c, 0, 64, 67
1, 100368, Control_c, 0, 64, 67
1, 100406, Note_on_c, 0, 90, 54
1, 100436, Note_off_c, 0, 94, 61
1, 100463, Note_off_c, 0, 90, 66
1, 100472, Note_on_c, 0, 91, 62
1, 100529, Note_on_c, 0, 98, 57
1, 100531, Control_c, 0, 64, 66
1, 100543, Note_off_c, 0, 91, 49
1, 100545, Control_c, 0, 64, 65
1, 100598, Note_on_c, 0, 96, 67
1, 100610, Note_off_c, 0, 98, 52
1, 100660, Note_on_c, 0, 93, 58
1, 100688, Note_off_c, 0, 96, 58
1, 100735, Note_off_c, 0, 93, 55
1, 100736, Note_on_c, 0, 91, 48
1, 100746, Control_c, 0, 64, 66
1, 100761, Control_c, 0, 64, 68
1, 100776, Control_c, 0, 64, 69
1, 100789, Note_off_c, 0, 91, 55
1, 100797, Note_on_c, 0, 98, 59
1, 100806, Control_c, 0, 64, 67
1, 100821, Control_c, 0, 64, 63
1, 100836, Control_c, 0, 64, 56
1, 100850, Control_c, 0, 64, 44
1, 100859, Note_on_c, 0, 96, 67
1, 100865, Control_c, 0, 64, 34
1, 100875, Note_off_c, 0, 98, 56
1, 100880, Control_c, 0, 64, 31
1, 100894, Control_c, 0, 64, 32
1, 100909, Control_c, 0, 64, 36
1, 100919, Note_on_c, 0, 93, 64
1, 100924, Control_c, 0, 64, 42
1, 100939, Control_c, 0, 64, 52
1, 100953, Note_off_c, 0, 96, 59
1, 100954, Control_c, 0, 64, 59
1, 100968, Control_c, 0, 64, 63
1, 100983, Control_c, 0, 64, 64
1, 100988, Note_on_c, 0, 91, 49
1, 100998, Note_off_c, 0, 93, 54
1, 101013, Control_c, 0, 64, 64
1, 101028, Control_c, 0, 64, 67
1, 101042, Control_c, 0, 64, 73
1, 101049, Note_off_c, 0, 91, 51
1, 101055, Note_on_c, 0, 98, 62
1, 101057, Control_c, 0, 64, 79
1, 101072, Control_c, 0, 64, 79
1, 101101, Control_c, 0, 64, 75
1, 101116, Control_c, 0, 64, 68
1, 101121, Note_on_c, 0, 96, 70
1, 101131, Control_c, 0, 64, 61
1, 101146, Control_c, 0, 64, 57
1, 101147, Note_off_c, 0, 98, 57
1, 101161, Control_c, 0, 64, 56
1, 101175, Control_c, 0, 64, 56
1, 101190, Control_c, 0, 64, 57
1, 101196, Note_on_c, 0, 93, 50
1, 101205, Control_c, 0, 64, 58
1, 101220, Control_c, 0, 64, 59
1, 101223, Note_off_c, 0, 96, 55
1, 101235, Control_c, 0, 64, 61
1, 101248, Note_on_c, 0, 91, 60
1, 101250, Control_c, 0, 64, 64
1, 101258, Note_off_c, 0, 93, 54
1, 101265, Control_c, 0, 64, 69
1, 101280, Control_c, 0, 64, 74
1, 101309, Control_c, 0, 64, 71
1, 101324, Note_off_c, 0, 91, 47
1, 101327, Note_on_c, 0, 98, 58
1, 101331, Control_c, 0, 64, 66
1, 101346, Control_c, 0, 64, 63
1, 101390, Control_c, 0, 64, 64
1, 101398, Note_on_c, 0, 96, 68
1, 101420, Note_off_c, 0, 98, 55
1, 101420, Control_c, 0, 64, 64
1, 101435, Control_c, 0, 64, 65
1, 101450, Control_c, 0, 64, 67
1, 101459, Note_on_c, 0, 93, 59
1, 101465, Control_c, 0, 64, 69
1, 101479, Control_c, 0, 64, 70
1, 101502, Note_off_c, 0, 96, 60
1, 101530, Note_on_c, 0, 91, 61
1, 101530, Note_off_c, 0, 93, 58
1, 101539, Control_c, 0, 64, 71
1, 101554, Control_c, 0, 64, 73
1, 101569, Control_c, 0, 64, 73
1, 101613, Note_off_c, 0, 91, 50
1, 101614, Note_on_c, 0, 98, 56
1, 101681, Note_on_c, 0, 96, 51
1, 101707, Note_off_c, 0, 98, 58
1, 101725, Note_off_c, 0, 96, 46
1, 101745, Note_on_c, 0, 91, 58
1, 101804, Note_off_c, 0, 91, 58
1, 101807, Note_on_c, 0, 65, 41
1, 101834, Note_on_c, 0, 93, 60
1, 101918, Note_on_c, 0, 72, 35
1, 101921, Note_off_c, 0, 93, 57
1, 101924, Control_c, 0, 64, 72
1, 101934, Note_off_c, 0, 65, 37
1, 101939, Control_c, 0, 64, 69
1, 101943, Note_on_c, 0, 91, 51
1, 101954, Control_c, 0, 64, 63
1, 101969, Control_c, 0, 64, 54
1, 101984, Control_c, 0, 64, 40
1, 101999, Control_c, 0, 64, 34
1, 102014, Control_c, 0, 64, 34
1, 102044, Control_c, 0, 64, 36
1, 102059, Control_c, 0, 64, 37
1, 102061, Note_off_c, 0, 91, 50
1, 102080, Note_off_c, 0, 72, 43
1, 102081, Control_c, 0, 64, 40
1, 102085, Note_on_c, 0, 89, 55
1, 102091, Note_on_c, 0, 81, 47
1, 102096, Control_c, 0, 64, 43
1, 102111, Control_c, 0, 64, 47
1, 102125, Control_c, 0, 64, 53
1, 102136, Note_off_c, 0, 89, 59
1, 102140, Control_c, 0, 64, 58
1, 102155, Control_c, 0, 64, 62
1, 102170, Control_c, 0, 64, 65
1, 102185, Control_c, 0, 64, 68
1, 102199, Control_c, 0, 64, 72
1, 102214, Control_c, 0, 64, 77
1, 102229, Control_c, 0, 64, 82
1, 102243, Control_c, 0, 64, 87
1, 102258, Control_c, 0, 64, 90
1, 102273, Control_c, 0, 64, 93
1, 102280, Note_off_c, 0, 81, 45
1, 102289, Control_c, 0, 64, 99
1, 102304, Control_c, 0, 64, 106
1, 102319, Control_c, 0, 64, 108
1, 102363, Control_c, 0, 64, 119
1, 102378, Control_c, 0, 64, 127
1, 102452, Control_c, 0, 64, 80
1, 102466, Control_c, 0, 64, 51
1, 102481, Control_c, 0, 64, 0
1, 102493, Note_on_c, 0, 89, 99
1, 102502, Note_on_c, 0, 77, 73
1, 102541, Control_c, 0, 64, 14
1, 102556, Control_c, 0, 64, 41
1, 102570, Note_on_c, 0, 82, 58
1, 102570, Control_c, 0, 64, 58
1, 102581, Note_on_c, 0, 94, 70
1, 102585, Control_c, 0, 64, 76
1, 102600, Control_c, 0, 64, 99
1, 102603, Note_off_c, 0, 77, 60
1, 102603, Note_off_c, 0, 89, 62
1, 102624, Note_off_c, 0, 82, 64
1, 102641, Note_on_c, 0, 81, 63
1, 102645, Control_c, 0, 64, 101
1, 102649, Note_off_c, 0, 94, 67
1, 102650, Note_on_c, 0, 93, 61
1, 102660, Control_c, 0, 64, 127
1, 102687, Note_off_c, 0, 81, 53
1, 102701, Note_on_c, 0, 86, 79
1, 102707, Note_on_c, 0, 74, 60
1, 102709, Note_off_c, 0, 93, 58
1, 102734, Control_c, 0, 64, 75
1, 102748, Control_c, 0, 64, 50
1, 102763, Control_c, 0, 64, 36
1, 102771, Note_on_c, 0, 84, 91
1, 102774, Note_off_c, 0, 74, 65
1, 102778, Control_c, 0, 64, 45
1, 102791, Note_off_c, 0, 86, 57
1, 102793, Control_c, 0, 64, 58
1, 102794, Note_on_c, 0, 72, 50
1, 102808, Control_c, 0, 64, 66
1, 102812, Note_on_c, 0, 71, 32
1, 102830, Control_c, 0, 64, 77
1, 102834, Note_on_c, 0, 79, 58
1, 102841, Note_on_c, 0, 91, 69
1, 102845, Note_off_c, 0, 72, 54
1, 102845, Control_c, 0, 64, 86
1, 102850, Note_off_c, 0, 84, 60
1, 102852, Note_off_c, 0, 71, 54
1, 102860, Control_c, 0, 64, 89
1, 102874, Control_c, 0, 64, 91
1, 102878, Note_off_c, 0, 79, 53
1, 102889, Control_c, 0, 64, 117
1, 102898, Note_on_c, 0, 77, 69
1, 102902, Note_on_c, 0, 89, 68
1, 102904, Control_c, 0, 64, 127
1, 102936, Note_off_c, 0, 91, 50
1, 102948, Note_off_c, 0, 77, 61
1, 102958, Note_on_c, 0, 70, 67
1, 102960, Note_on_c, 0, 82, 81
1, 102978, Control_c, 0, 64, 87
1, 102987, Note_off_c, 0, 89, 62
1, 102993, Control_c, 0, 64, 56
1, 103008, Control_c, 0, 64, 0
1, 103025, Note_on_c, 0, 81, 94
1, 103034, Note_on_c, 0, 69, 57
1, 103041, Note_off_c, 0, 82, 63
1, 103043, Note_off_c, 0, 70, 60
1, 103066, Control_c, 0, 64, 34
1, 103076, Note_on_c, 0, 74, 68
1, 103081, Control_c, 0, 64, 50
1, 103092, Note_on_c, 0, 86, 75
1, 103094, Note_off_c, 0, 81, 57
1, 103096, Note_off_c, 0, 69, 60
1, 103097, Control_c, 0, 64, 65
1, 103112, Control_c, 0, 64, 109
1, 103127, Control_c, 0, 64, 127
1, 103136, Note_off_c, 0, 74, 60
1, 103143, Note_on_c, 0, 72, 67
1, 103161, Note_on_c, 0, 84, 66
1, 103203, Note_off_c, 0, 72, 61
1, 103205, Note_off_c, 0, 86, 52
1, 103213, Note_on_c, 0, 67, 67
1, 103213, Note_on_c, 0, 79, 77
1, 103227, Note_off_c, 0, 84, 61
1, 103245, Control_c, 0, 64, 69
1, 103260, Control_c, 0, 64, 44
1, 103273, Note_off_c, 0, 79, 54
1, 103275, Control_c, 0, 64, 0
1, 103277, Note_on_c, 0, 77, 88
1, 103290, Note_on_c, 0, 65, 73
1, 103292, Note_off_c, 0, 67, 62
1, 103304, Control_c, 0, 64, 16
1, 103317, Note_on_c, 0, 70, 63
1, 103319, Control_c, 0, 64, 37
1, 103334, Control_c, 0, 64, 51
1, 103338, Note_on_c, 0, 82, 79
1, 103348, Note_off_c, 0, 77, 60
1, 103349, Control_c, 0, 64, 64
1, 103363, Note_off_c, 0, 65, 64
1, 103363, Control_c, 0, 64, 79
1, 103369, Note_off_c, 0, 70, 58
1, 103378, Control_c, 0, 64, 89
1, 103389, Note_off_c, 0, 82, 66
1, 103393, Control_c, 0, 64, 92
1, 103394, Note_on_c, 0, 69, 76
1, 103405, Note_on_c, 0, 81, 68
1, 103408, Control_c, 0, 64, 115
1, 103423, Control_c, 0, 64, 127
1, 103456, Note_off_c, 0, 69, 60
1, 103465, Note_on_c, 0, 62, 65
1, 103475, Note_on_c, 0, 74, 73
1, 103497, Control_c, 0, 64, 69
1, 103498, Note_off_c, 0, 81, 61
1, 103512, Control_c, 0, 64, 42
1, 103527, Control_c, 0, 64, 0
1, 103537, Note_on_c, 0, 72, 86
1, 103537, Note_off_c, 0, 62, 60
1, 103539, Note_on_c, 0, 60, 70
1, 103542, Control_c, 0, 64, 16
1, 103544, Note_off_c, 0, 74, 63
1, 103557, Control_c, 0, 64, 34
1, 103578, Control_c, 0, 64, 47
1, 103593, Control_c, 0, 64, 59
1, 103599, Note_on_c, 0, 67, 69
1, 103601, Note_on_c, 0, 79, 74
1, 103608, Control_c, 0, 64, 68
1, 103618, Note_off_c, 0, 60, 60
1, 103623, Note_off_c, 0, 72, 55
1, 103623, Control_c, 0, 64, 75
1, 103638, Control_c, 0, 64, 80
1, 103649, Note_off_c, 0, 67, 60
1, 103653, Control_c, 0, 64, 96
1, 103658, Note_on_c, 0, 65, 66
1, 103664, Note_on_c, 0, 77, 71
1, 103667, Control_c, 0, 64, 127
1, 103719, Note_off_c, 0, 65, 66
1, 103724, Note_on_c, 0, 70, 73
1, 103727, Note_off_c, 0, 79, 57
1, 103732, Note_on_c, 0, 58, 68
1, 103742, Control_c, 0, 64, 91
1, 103752, Note_off_c, 0, 77, 61
1, 103757, Control_c, 0, 64, 60
1, 103771, Control_c, 0, 64, 32
1, 103780, Note_on_c, 0, 69, 81
1, 103786, Control_c, 0, 64, 0
1, 103788, Note_off_c, 0, 70, 60
1, 103796, Note_on_c, 0, 57, 68
1, 103800, Note_off_c, 0, 58, 63
1, 103801, Control_c, 0, 64, 26
1, 103816, Control_c, 0, 64, 39
1, 103831, Control_c, 0, 64, 52
1, 103843, Note_on_c, 0, 62, 68
1, 103845, Control_c, 0, 64, 62
1, 103849, Note_on_c, 0, 74, 74
1, 103858, Note_off_c, 0, 57, 58
1, 103858, Note_off_c, 0, 69, 62
1, 103860, Control_c, 0, 64, 71
1, 103875, Control_c, 0, 64, 78
1, 103891, Control_c, 0, 64, 82
1, 103903, Note_off_c, 0, 62, 62
1, 103904, Note_on_c, 0, 60, 65
1, 103906, Control_c, 0, 64, 101
1, 103909, Note_on_c, 0, 72, 60
1, 103920, Control_c, 0, 64, 127
1, 103960, Note_off_c, 0, 74, 60
1, 103961, Note_on_c, 0, 67, 75
1, 103963, Note_off_c, 0, 60, 64
1, 103971, Note_on_c, 0, 55, 65
1, 103973, Note_off_c, 0, 72, 60
1, 103994, Control_c, 0, 64, 69
1, 104009, Control_c, 0, 64, 49
1, 104022, Note_off_c, 0, 67, 53
1, 104024, Control_c, 0, 64, 20
1, 104025, Note_on_c, 0, 65, 83
1, 104029, Note_on_c, 0, 53, 69
1, 104039, Control_c, 0, 64, 28
1, 104049, Note_off_c, 0, 55, 54
1, 104054, Control_c, 0, 64, 42
1, 104058, Note_on_c, 0, 58, 68
1, 104068, Control_c, 0, 64, 54
1, 104080, Note_on_c, 0, 70, 76
1, 104083, Control_c, 0, 64, 68
1, 104088, Note_off_c, 0, 65, 64
1, 104098, Control_c, 0, 64, 86
1, 104111, Note_off_c, 0, 53, 64
1, 104112, Control_c, 0, 64, 94
1, 104127, Control_c, 0, 64, 101
1, 104128, Note_off_c, 0, 58, 62
1, 104132, Note_off_c, 0, 70, 64
1, 104141, Note_on_c, 0, 57, 70
1, 104142, Control_c, 0, 64, 127
1, 104150, Note_on_c, 0, 69, 65
1, 104200, Note_off_c, 0, 57, 59
1, 104201, Note_on_c, 0, 50, 67
1, 104210, Note_on_c, 0, 62, 75
1, 104231, Control_c, 0, 64, 84
1, 104244, Note_off_c, 0, 69, 63
1, 104246, Control_c, 0, 64, 54
1, 104260, Control_c, 0, 64, 0
1, 104270, Note_on_c, 0, 48, 71
1, 104275, Note_off_c, 0, 50, 62
1, 104276, Note_on_c, 0, 60, 84
1, 104285, Note_off_c, 0, 62, 63
1, 104326, Control_c, 0, 64, 30
1, 104332, Note_on_c, 0, 55, 66
1, 104341, Control_c, 0, 64, 44
1, 104351, Note_on_c, 0, 67, 77
1, 104355, Note_off_c, 0, 48, 61
1, 104356, Control_c, 0, 64, 57
1, 104366, Note_off_c, 0, 60, 56
1, 104371, Control_c, 0, 64, 75
1, 104386, Control_c, 0, 64, 127
1, 104398, Note_off_c, 0, 55, 63
1, 104403, Note_on_c, 0, 53, 68
1, 104410, Note_on_c, 0, 65, 61
1, 104459, Note_off_c, 0, 67, 59
1, 104461, Note_off_c, 0, 53, 65
1, 104466, Note_on_c, 0, 58, 71
1, 104471, Note_on_c, 0, 46, 76
1, 104475, Control_c, 0, 64, 67
1, 104490, Control_c, 0, 64, 37
1, 104496, Note_off_c, 0, 65, 66
1, 104505, Control_c, 0, 64, 0
1, 104527, Note_on_c, 0, 57, 86
1, 104534, Note_on_c, 0, 45, 66
1, 104539, Note_off_c, 0, 58, 62
1, 104549, Control_c, 0, 64, 9
1, 104550, Note_off_c, 0, 46, 64
1, 104564, Control_c, 0, 64, 34
1, 104579, Control_c, 0, 64, 48
1, 104582, Note_on_c, 0, 50, 64
1, 104587, Note_off_c, 0, 45, 60
1, 104593, Control_c, 0, 64, 63
1, 104598, Note_on_c, 0, 62, 80
1, 104606, Note_off_c, 0, 57, 59
1, 104608, Control_c, 0, 64, 88
1, 104623, Control_c, 0, 64, 127
1, 104644, Note_on_c, 0, 48, 72
1, 104655, Note_off_c, 0, 50, 60
1, 104657, Note_on_c, 0, 60, 55
1, 104702, Note_off_c, 0, 62, 61
1, 104705, Note_on_c, 0, 55, 76
1, 104722, Note_on_c, 0, 43, 63
1, 104723, Note_off_c, 0, 48, 64
1, 104728, Control_c, 0, 64, 79
1, 104733, Note_off_c, 0, 60, 59
1, 104742, Control_c, 0, 64, 48
1, 104757, Control_c, 0, 64, 0
1, 104767, Note_on_c, 0, 41, 68
1, 104780, Note_on_c, 0, 53, 90
1, 104788, Note_off_c, 0, 43, 58
1, 104800, Note_off_c, 0, 55, 63
1, 104846, Control_c, 0, 64, 31
1, 104848, Note_on_c, 0, 50, 66
1, 104860, Note_on_c, 0, 62, 68
1, 104861, Control_c, 0, 64, 47
1, 104876, Control_c, 0, 64, 60
1, 104879, Note_off_c, 0, 53, 60
1, 104890, Control_c, 0, 64, 74
1, 104905, Control_c, 0, 64, 95
1, 104913, Note_on_c, 0, 48, 72
1, 104919, Note_off_c, 0, 41, 59
1, 104920, Control_c, 0, 64, 127
1, 104929, Note_off_c, 0, 50, 58
1, 104934, Note_on_c, 0, 60, 68
1, 104967, Note_off_c, 0, 62, 59
1, 104985, Note_on_c, 0, 46, 74
1, 104994, Note_on_c, 0, 58, 62
1, 104995, Control_c, 0, 64, 72
1, 105009, Control_c, 0, 64, 41
1, 105013, Note_off_c, 0, 48, 62
1, 105017, Note_off_c, 0, 60, 61
1, 105024, Control_c, 0, 64, 0
1, 105035, Note_on_c, 0, 57, 92
1, 105045, Note_off_c, 0, 46, 66
1, 105045, Note_on_c, 0, 45, 65
1, 105051, Note_off_c, 0, 58, 62
1, 105116, Note_on_c, 0, 62, 70
1, 105121, Control_c, 0, 64, 32
1, 105128, Note_off_c, 0, 57, 49
1, 105131, Note_on_c, 0, 50, 60
1, 105135, Note_off_c, 0, 45, 62
1, 105135, Control_c, 0, 64, 53
1, 105150, Control_c, 0, 64, 67
1, 105165, Control_c, 0, 64, 91
1, 105173, Note_on_c, 0, 48, 65
1, 105180, Control_c, 0, 64, 106
1, 105182, Note_on_c, 0, 60, 55
1, 105195, Control_c, 0, 64, 127
1, 105199, Note_off_c, 0, 50, 60
1, 105226, Note_on_c, 0, 55, 79
1, 105232, Note_off_c, 0, 62, 58
1, 105252, Note_off_c, 0, 48, 64
1, 105253, Note_on_c, 0, 43, 62
1, 105268, Control_c, 0, 64, 105
1, 105274, Note_off_c, 0, 60, 62
1, 105283, Control_c, 0, 64, 59
1, 105298, Control_c, 0, 64, 0
1, 105301, Note_on_c, 0, 53, 93
1, 105307, Note_on_c, 0, 41, 65
1, 105327, Note_off_c, 0, 55, 64
1, 105337, Note_off_c, 0, 43, 63
1, 105343, Control_c, 0, 64, 11
1, 105358, Control_c, 0, 64, 29
1, 105373, Note_on_c, 0, 62, 67
1, 105373, Control_c, 0, 64, 42
1, 105383, Note_on_c, 0, 50, 61
1, 105387, Control_c, 0, 64, 54
1, 105402, Control_c, 0, 64, 65
1, 105417, Control_c, 0, 64, 81
1, 105421, Note_off_c, 0, 53, 60
1, 105432, Control_c, 0, 64, 106
1, 105438, Note_on_c, 0, 48, 74
1, 105444, Note_on_c, 0, 60, 59
1, 105447, Control_c, 0, 64, 127
1, 105451, Note_off_c, 0, 41, 59
1, 105459, Note_off_c, 0, 50, 62
1, 105486, Note_off_c, 0, 62, 58
1, 105506, Note_on_c, 0, 58, 74
1, 105511, Note_on_c, 0, 46, 76
1, 105522, Control_c, 0, 64, 101
1, 105536, Control_c, 0, 64, 59
1, 105542, Note_off_c, 0, 48, 61
1, 105546, Note_off_c, 0, 60, 63
1, 105551, Control_c, 0, 64, 12
1, 105565, Note_on_c, 0, 57, 97
1, 105566, Control_c, 0, 64, 0
1, 105569, Note_on_c, 0, 45, 71
1, 105576, Note_off_c, 0, 58, 62
1, 105581, Note_off_c, 0, 46, 60
1, 105596, Control_c, 0, 64, 16
1, 105611, Control_c, 0, 64, 39
1, 105626, Control_c, 0, 64, 54
1, 105638, Note_on_c, 0, 62, 79
1, 105640, Control_c, 0, 64, 67
1, 105642, Note_on_c, 0, 50, 67
1, 105655, Control_c, 0, 64, 92
1, 105659, Note_off_c, 0, 45, 64
1, 105670, Control_c, 0, 64, 127
1, 105672, Note_off_c, 0, 57, 59
1, 105694, Note_on_c, 0, 48, 73
1, 105716, Note_on_c, 0, 60, 59
1, 105722, Note_off_c, 0, 50, 62
1, 105759, Note_on_c, 0, 55, 79
1, 105769, Note_off_c, 0, 62, 56
1, 105781, Note_off_c, 0, 48, 63
1, 105782, Note_on_c, 0, 43, 64
1, 105798, Note_off_c, 0, 60, 58
1, 105803, Control_c, 0, 64, 60
1, 105826, Control_c, 0, 64, 14
1, 105840, Control_c, 0, 64, 0
1, 105843, Note_on_c, 0, 41, 71
1, 105843, Note_on_c, 0, 53, 93
1, 105870, Control_c, 0, 64, 18
1, 105873, Note_off_c, 0, 55, 65
1, 105879, Note_off_c, 0, 43, 60
1, 105885, Control_c, 0, 64, 33
1, 105899, Control_c, 0, 64, 47
1, 105903, Note_on_c, 0, 50, 67
1, 105914, Control_c, 0, 64, 58
1, 105918, Note_on_c, 0, 62, 68
1, 105929, Control_c, 0, 64, 66
1, 105944, Control_c, 0, 64, 73
1, 105949, Note_off_c, 0, 41, 56
1, 105954, Note_off_c, 0, 53, 62
1, 105959, Control_c, 0, 64, 80
1, 105964, Note_on_c, 0, 48, 72
1, 105973, Control_c, 0, 64, 127
1, 105977, Note_off_c, 0, 50, 58
1, 105978, Note_on_c, 0, 60, 65
1, 106029, Note_off_c, 0, 62, 62
1, 106043, Note_on_c, 0, 46, 73
1, 106044, Note_off_c, 0, 48, 61
1, 106047, Control_c, 0, 64, 74
1, 106049, Note_on_c, 0, 58, 55
1, 106062, Control_c, 0, 64, 51
1, 106067, Note_off_c, 0, 60, 59
1, 106077, Control_c, 0, 64, 37
1, 106091, Note_on_c, 0, 57, 95
1, 106091, Control_c, 0, 64, 49
1, 106093, Note_on_c, 0, 45, 58
1, 106098, Note_off_c, 0, 58, 49
1, 106105, Note_off_c, 0, 46, 65
1, 106106, Control_c, 0, 64, 62
1, 106121, Control_c, 0, 64, 73
1, 106136, Control_c, 0, 64, 90
1, 106151, Control_c, 0, 64, 106
1, 106165, Note_on_c, 0, 62, 76
1, 106165, Control_c, 0, 64, 127
1, 106173, Note_off_c, 0, 45, 62
1, 106178, Note_on_c, 0, 50, 60
1, 106188, Note_off_c, 0, 57, 56
1, 106210, Note_off_c, 0, 50, 64
1, 106219, Note_on_c, 0, 48, 65
1, 106245, Note_on_c, 0, 60, 65
1, 106294, Note_off_c, 0, 62, 58
1, 106296, Note_off_c, 0, 48, 64
1, 106299, Note_on_c, 0, 43, 67
1, 106305, Note_on_c, 0, 55, 77
1, 106329, Control_c, 0, 64, 115
1, 106344, Control_c, 0, 64, 57
1, 106347, Note_off_c, 0, 60, 57
1, 106359, Control_c, 0, 64, 0
1, 106383, Note_off_c, 0, 43, 62
1, 106384, Note_on_c, 0, 41, 75
1, 106393, Note_on_c, 0, 53, 91
1, 106399, Note_off_c, 0, 55, 58
1, 106434, Control_c, 0, 64, 15
1, 106449, Control_c, 0, 64, 35
1, 106463, Control_c, 0, 64, 48
1, 106478, Control_c, 0, 64, 63
1, 106489, Note_on_c, 0, 45, 67
1, 106493, Control_c, 0, 64, 75
1, 106499, Note_off_c, 0, 53, 63
1, 106504, Note_on_c, 0, 57, 72
1, 106507, Control_c, 0, 64, 86
1, 106522, Control_c, 0, 64, 88
1, 106523, Note_off_c, 0, 41, 37
1, 106537, Control_c, 0, 64, 98
1, 106552, Control_c, 0, 64, 127
1, 106570, Note_on_c, 0, 60, 68
1, 106573, Note_on_c, 0, 48, 67
1, 106592, Note_off_c, 0, 57, 52
1, 106631, Note_on_c, 0, 52, 73
1, 106631, Note_off_c, 0, 45, 60
1, 106633, Note_on_c, 0, 64, 63
1, 106644, Note_off_c, 0, 60, 64
1, 106645, Note_off_c, 0, 48, 63
1, 106663, Note_off_c, 0, 64, 65
1, 106678, Note_on_c, 0, 53, 74
1, 106681, Note_off_c, 0, 52, 64
1, 106704, Note_on_c, 0, 65, 77
1, 106729, Note_off_c, 0, 53, 64
1, 106763, Note_off_c, 0, 65, 63
1, 106772, Note_on_c, 0, 69, 75
1, 106773, Note_on_c, 0, 57, 76
1, 106819, Note_on_c, 0, 72, 75
1, 106830, Note_on_c, 0, 60, 75
1, 106851, Note_off_c, 0, 69, 63
1, 106875, Note_on_c, 0, 76, 65
1, 106878, Note_on_c, 0, 64, 75
1, 106880, Note_off_c, 0, 57, 49
1, 106884, Note_off_c, 0, 60, 64
1, 106887, Note_off_c, 0, 72, 63
1, 106899, Note_off_c, 0, 76, 70
1, 106920, Note_off_c, 0, 64, 59
1, 106932, Note_on_c, 0, 65, 77
1, 106952, Note_on_c, 0, 77, 81
1, 106981, Note_off_c, 0, 65, 68
1, 107017, Note_on_c, 0, 81, 86
1, 107018, Note_off_c, 0, 77, 60
1, 107028, Note_on_c, 0, 69, 70
1, 107081, Note_on_c, 0, 72, 73
1, 107081, Note_on_c, 0, 84, 65
1, 107094, Note_on_c, 0, 86, 58
1, 107107, Note_off_c, 0, 81, 61
1, 107114, Note_on_c, 0, 88, 76
1, 107120, Note_off_c, 0, 69, 55
1, 107127, Note_off_c, 0, 84, 65
1, 107127, Note_off_c, 0, 86, 50
1, 107131, Note_on_c, 0, 76, 81
1, 107132, Note_off_c, 0, 72, 63
1, 107140, Note_off_c, 0, 88, 67
1, 107163, Note_off_c, 0, 76, 63
1, 107185, Note_on_c, 0, 77, 70
1, 107197, Note_on_c, 0, 89, 79
1, 107231, Note_off_c, 0, 77, 63
1, 107256, Note_off_c, 0, 89, 64
1, 107258, Note_on_c, 0, 93, 85
1, 107261, Note_on_c, 0, 81, 67
1, 107297, Note_on_c, 0, 96, 66
1, 107320, Note_off_c, 0, 93, 61
1, 107325, Note_off_c, 0, 81, 54
1, 107325, Note_on_c, 0, 84, 59
1, 107330, Note_on_c, 0, 83, 57
1, 107355, Note_off_c, 0, 83, 68
1, 107361, Note_on_c, 0, 100, 67
1, 107370, Note_on_c, 0, 88, 86
1, 107370, Note_off_c, 0, 84, 63
1, 107373, Note_off_c, 0, 96, 62
1, 107406, Note_off_c, 0, 88, 61
1, 107416, Note_on_c, 0, 101, 107
1, 107431, Note_on_c, 0, 89, 86
1, 107432, Note_off_c, 0, 100, 65
1, 107443, Note_off_c, 0, 101, 70
1, 107450, Note_off_c, 0, 89, 73
1, 107663, Control_c, 0, 64, 60
1, 107678, Control_c, 0, 64, 0
1, 107740, Note_on_c, 0, 49, 74
1, 107756, Note_on_c, 0, 69, 69
1, 107784, Note_on_c, 0, 57, 65
1, 107784, Note_on_c, 0, 76, 73
1, 107791, Note_on_c, 0, 81, 91
1, 107804, Note_off_c, 0, 69, 64
1, 107811, Control_c, 0, 64, 41
1, 107820, Note_off_c, 0, 76, 68
1, 107820, Note_on_c, 0, 61, 69
1, 107823, Note_off_c, 0, 81, 68
1, 107826, Control_c, 0, 64, 61
1, 107841, Control_c, 0, 64, 127
1, 107850, Note_off_c, 0, 49, 63
1, 107851, Note_off_c, 0, 61, 65
1, 107859, Note_off_c, 0, 57, 62
1, 108014, Note_on_c, 0, 50, 62
1, 108048, Control_c, 0, 64, 113
1, 108058, Note_on_c, 0, 53, 60
1, 108070, Control_c, 0, 64, 56
1, 108081, Note_on_c, 0, 69, 62
1, 108085, Control_c, 0, 64, 0
1, 108096, Note_on_c, 0, 57, 70
1, 108106, Note_on_c, 0, 74, 67
1, 108109, Note_off_c, 0, 69, 65
1, 108112, Note_on_c, 0, 77, 76
1, 108113, Note_on_c, 0, 62, 89
1, 108118, Note_on_c, 0, 81, 95
1, 108130, Control_c, 0, 64, 22
1, 108144, Note_off_c, 0, 74, 67
1, 108145, Control_c, 0, 64, 47
1, 108151, Note_off_c, 0, 77, 66
1, 108157, Note_off_c, 0, 81, 66
1, 108159, Control_c, 0, 64, 68
1, 108174, Control_c, 0, 64, 127
1, 108193, Note_off_c, 0, 50, 56
1, 108218, Note_off_c, 0, 57, 59
1, 108222, Note_off_c, 0, 53, 58
1, 108226, Note_off_c, 0, 62, 57
1, 108315, Note_on_c, 0, 48, 74
1, 108366, Control_c, 0, 64, 74
1, 108376, Note_on_c, 0, 55, 70
1, 108381, Control_c, 0, 64, 27
1, 108396, Note_off_c, 0, 48, 60
1, 108396, Control_c, 0, 64, 0
1, 108399, Note_on_c, 0, 58, 74
1, 108440, Control_c, 0, 64, 25
1, 108443, Note_on_c, 0, 72, 72
1, 108455, Control_c, 0, 64, 46
1, 108458, Note_on_c, 0, 64, 86
1, 108470, Control_c, 0, 64, 66
1, 108472, Note_on_c, 0, 79, 73
1, 108485, Control_c, 0, 64, 127
1, 108493, Note_on_c, 0, 84, 93
1, 108494, Note_off_c, 0, 64, 60
1, 108502, Note_off_c, 0, 72, 62
1, 108503, Note_off_c, 0, 58, 62
1, 108517, Note_off_c, 0, 79, 65
1, 108525, Note_off_c, 0, 84, 68
1, 108531, Note_off_c, 0, 55, 58
1, 108765, Note_on_c, 0, 41, 75
1, 108783, Control_c, 0, 64, 65
1, 108798, Control_c, 0, 64, 30
1, 108820, Control_c, 0, 64, 0
1, 108923, Control_c, 0, 64, 29
1, 108938, Control_c, 0, 64, 50
1, 108950, Note_on_c, 0, 48, 78
1, 108953, Control_c, 0, 64, 79
1, 108968, Control_c, 0, 64, 127
1, 108985, Note_off_c, 0, 41, 59
1, 109057, Note_on_c, 0, 57, 78
1, 109134, Note_on_c, 0, 65, 67
1, 109178, Note_off_c, 0, 65, 61
1, 109181, Note_on_c, 0, 69, 63
1, 109229, Note_off_c, 0, 69, 64
1, 109256, Note_on_c, 0, 72, 44
1, 109283, Note_off_c, 0, 72, 57
1, 109329, Note_on_c, 0, 77, 66
1, 109389, Note_on_c, 0, 81, 73
1, 109448, Note_on_c, 0, 84, 67
1, 109455, Note_off_c, 0, 81, 60
1, 109489, Note_off_c, 0, 84, 59
1, 109498, Note_on_c, 0, 89, 95
1, 109515, Note_off_c, 0, 48, 62
1, 109516, Note_off_c, 0, 57, 60
1, 109540, Note_off_c, 0, 77, 41
1, 109543, Note_off_c, 0, 89, 67
1, 110998, Control_c, 0, 64, 94
1, 111012, Control_c, 0, 64, 69
1, 111027, Control_c, 0, 64, 55
1, 111042, Control_c, 0, 64, 19
1, 111065, Control_c, 0, 64, 0
1, 111140, End_track
0, 0, End_of_file
