0, 0, Header, 0, 1, 384
1, 0, Start_track
1, 0, Title_t, "Sonata Op. 110--Hye-Yeon Park   "
1, 0, Text_t, "2009 Piano-e-Competition audition round"
1, 0, Text_t, "captured January 2009"
1, 0, Text_t, "http://www.piano-e-competition.com/"
1, 0, Text_t, "File processed for distribution by software from Zenph Studios, Inc., http://www.zenph.com"
1, 0, Instrument_name_t, "Yamaha Disklavier Pro Mark IV concert grand piano, model DCFIIISM4PRO"
1, 0, Sequencer_specific, 39, 67, 113, 0, 1, 0, 1, 0, 83, 111, 110, 97, 116, 97, 32, 79, 112, 46, 32, 49, 49, 48, 32, 32, 72, 121, 101, 45, 89, 101, 111, 110, 32, 80, 97, 114, 107, 32, 32, 32
1, 0, Sequencer_specific, 6, 67, 113, 0, 0, 0, 69
1, 0, System_exclusive, 21, 67, 113, 126, 21, 0, 2, 2, 0, 3, 14, 1, 4, 1, 13, 13, 10, 11, 9, 2, 7, 247
1, 0, Sequencer_specific, 5, 67, 123, 12, 2, 1
1, 0, Tempo, 512820
1, 0, Time_signature, 4, 2, 24, 8
1, 0, System_exclusive, 5, 126, 127, 9, 1, 247
1, 1, System_exclusive, 8, 67, 16, 76, 0, 0, 126, 0, 247
1, 2, System_exclusive, 8, 67, 16, 76, 8, 9, 7, 1, 247
1, 3, Control_c, 0, 0, 0
1, 3, Control_c, 1, 0, 0
1, 3, Control_c, 2, 0, 0
1, 3, Control_c, 3, 0, 0
1, 3, Control_c, 4, 0, 0
1, 3, Control_c, 5, 0, 0
1, 3, Control_c, 6, 0, 0
1, 3, Control_c, 7, 0, 0
1, 3, Control_c, 8, 0, 0
1, 3, Control_c, 9, 0, 127
1, 3, Control_c, 10, 0, 0
1, 3, Control_c, 11, 0, 0
1, 3, Control_c, 12, 0, 0
1, 3, Control_c, 13, 0, 0
1, 3, Control_c, 14, 0, 0
1, 3, Control_c, 15, 0, 0
1, 4, Control_c, 0, 32, 0
1, 4, Control_c, 1, 32, 0
1, 4, Control_c, 2, 32, 0
1, 4, Control_c, 3, 32, 0
1, 4, Control_c, 4, 32, 0
1, 4, Control_c, 5, 32, 0
1, 4, Control_c, 6, 32, 0
1, 4, Control_c, 7, 32, 0
1, 4, Control_c, 8, 32, 0
1, 4, Control_c, 9, 32, 0
1, 4, Control_c, 10, 32, 0
1, 4, Control_c, 11, 32, 0
1, 4, Control_c, 12, 32, 0
1, 4, Control_c, 13, 32, 0
1, 4, Control_c, 14, 32, 0
1, 4, Control_c, 15, 32, 0
1, 5, Program_c, 0, 0
1, 5, Program_c, 1, 0
1, 5, Program_c, 2, 0
1, 5, Program_c, 3, 0
1, 5, Program_c, 4, 0
1, 5, Program_c, 5, 0
1, 5, Program_c, 6, 0
1, 5, Program_c, 7, 0
1, 5, Program_c, 8, 0
1, 5, Program_c, 9, 0
1, 5, Program_c, 10, 0
1, 5, Program_c, 11, 0
1, 5, Program_c, 12, 0
1, 5, Program_c, 13, 0
1, 5, Program_c, 14, 0
1, 5, Program_c, 15, 0
1, 6, Control_c, 0, 7, 100
1, 6, Control_c, 1, 7, 100
1, 6, Control_c, 2, 7, 100
1, 6, Control_c, 3, 7, 100
1, 6, Control_c, 4, 7, 100
1, 6, Control_c, 5, 7, 100
1, 6, Control_c, 6, 7, 100
1, 6, Control_c, 7, 7, 100
1, 6, Control_c, 8, 7, 100
1, 6, Control_c, 9, 7, 100
1, 6, Control_c, 10, 7, 100
1, 6, Control_c, 11, 7, 100
1, 6, Control_c, 12, 7, 100
1, 6, Control_c, 13, 7, 100
1, 6, Control_c, 14, 7, 100
1, 6, Control_c, 15, 7, 100
1, 117, Control_c, 0, 64, 15
1, 117, Control_c, 0, 67, 15
1, 229, Control_c, 0, 64, 31
1, 229, Control_c, 0, 67, 31
1, 341, Control_c, 0, 64, 46
1, 341, Control_c, 0, 67, 46
1, 452, Control_c, 0, 64, 63
1, 452, Control_c, 0, 67, 63
1, 564, Control_c, 0, 64, 77
1, 564, Control_c, 0, 67, 77
1, 676, Control_c, 0, 64, 94
1, 676, Control_c, 0, 67, 94
1, 787, Control_c, 0, 64, 108
1, 787, Control_c, 0, 67, 108
1, 899, Control_c, 0, 64, 127
1, 899, Control_c, 0, 67, 127
1, 1134, Note_on_c, 0, 77, 55
1, 1158, Note_on_c, 0, 73, 39
1, 1172, Note_on_c, 0, 34, 33
1, 1176, Note_on_c, 0, 46, 27
1, 1245, Note_off_c, 0, 73, 0
1, 1245, Note_on_c, 0, 73, 5
1, 2406, Note_off_c, 0, 46, 24
1, 2541, Note_off_c, 0, 34, 28
1, 2577, Note_off_c, 0, 73, 31
1, 2827, Note_off_c, 0, 77, 36
1, 3307, Note_on_c, 0, 77, 60
1, 3334, Note_on_c, 0, 46, 32
1, 3340, Note_on_c, 0, 34, 28
1, 3361, Note_on_c, 0, 73, 35
1, 3475, Note_off_c, 0, 46, 29
1, 3522, Note_off_c, 0, 34, 39
1, 3667, Note_on_c, 0, 78, 66
1, 3684, Note_on_c, 0, 34, 33
1, 3695, Note_on_c, 0, 75, 43
1, 3709, Note_on_c, 0, 46, 27
1, 3739, Control_c, 0, 64, 97
1, 3754, Control_c, 0, 64, 74
1, 3768, Control_c, 0, 64, 62
1, 3783, Control_c, 0, 64, 45
1, 3799, Control_c, 0, 64, 0
1, 3855, Note_off_c, 0, 77, 31
1, 3887, Note_off_c, 0, 73, 44
1, 3932, Control_c, 0, 64, 20
1, 3947, Control_c, 0, 64, 32
1, 3962, Control_c, 0, 64, 41
1, 3977, Control_c, 0, 64, 50
1, 3991, Control_c, 0, 64, 58
1, 4006, Control_c, 0, 64, 63
1, 4021, Control_c, 0, 64, 67
1, 4035, Control_c, 0, 64, 72
1, 4050, Control_c, 0, 64, 78
1, 4065, Control_c, 0, 64, 84
1, 4080, Control_c, 0, 64, 93
1, 4095, Control_c, 0, 64, 103
1, 4110, Control_c, 0, 64, 117
1, 4124, Control_c, 0, 64, 127
1, 4168, Note_off_c, 0, 78, 63
1, 4171, Note_off_c, 0, 75, 55
1, 4240, Note_off_c, 0, 46, 39
1, 4266, Note_off_c, 0, 34, 34
1, 4617, Note_on_c, 0, 69, 54
1, 4630, Note_on_c, 0, 34, 33
1, 4643, Note_on_c, 0, 60, 44
1, 4658, Note_on_c, 0, 46, 11
1, 4658, Note_on_c, 0, 66, 34
1, 4666, Control_c, 0, 64, 100
1, 4681, Control_c, 0, 64, 81
1, 4686, Note_on_c, 0, 63, 21
1, 4696, Control_c, 0, 64, 78
1, 4735, Note_off_c, 0, 66, 0
1, 4735, Note_on_c, 0, 66, 3
1, 4755, Control_c, 0, 64, 78
1, 4770, Control_c, 0, 64, 81
1, 4785, Control_c, 0, 64, 84
1, 4800, Control_c, 0, 64, 88
1, 4814, Control_c, 0, 64, 91
1, 4829, Control_c, 0, 64, 93
1, 4844, Control_c, 0, 64, 95
1, 4858, Control_c, 0, 64, 97
1, 4873, Control_c, 0, 64, 99
1, 4888, Control_c, 0, 64, 102
1, 4903, Control_c, 0, 64, 105
1, 4918, Control_c, 0, 64, 109
1, 4932, Control_c, 0, 64, 117
1, 4947, Control_c, 0, 64, 127
1, 4988, Note_off_c, 0, 46, 39
1, 5042, Note_off_c, 0, 34, 34
1, 5096, Note_off_c, 0, 60, 56
1, 5168, Note_off_c, 0, 66, 41
1, 5215, Note_off_c, 0, 63, 45
1, 5624, Note_on_c, 0, 70, 63
1, 5633, Note_on_c, 0, 34, 39
1, 5637, Note_on_c, 0, 61, 46
1, 5645, Note_on_c, 0, 46, 31
1, 5648, Note_on_c, 0, 65, 46
1, 5681, Control_c, 0, 64, 92
1, 5696, Control_c, 0, 64, 74
1, 5719, Control_c, 0, 64, 63
1, 5734, Control_c, 0, 64, 50
1, 5749, Control_c, 0, 64, 18
1, 5763, Control_c, 0, 64, 0
1, 5766, Note_off_c, 0, 69, 57
1, 5941, Control_c, 0, 64, 16
1, 5956, Control_c, 0, 64, 29
1, 5970, Control_c, 0, 64, 38
1, 5985, Control_c, 0, 64, 47
1, 6000, Control_c, 0, 64, 55
1, 6014, Control_c, 0, 64, 61
1, 6029, Control_c, 0, 64, 64
1, 6044, Control_c, 0, 64, 68
1, 6059, Control_c, 0, 64, 71
1, 6074, Control_c, 0, 64, 76
1, 6089, Control_c, 0, 64, 81
1, 6103, Control_c, 0, 64, 86
1, 6118, Control_c, 0, 64, 92
1, 6131, Note_off_c, 0, 61, 36
1, 6133, Control_c, 0, 64, 98
1, 6144, Note_off_c, 0, 65, 56
1, 6148, Control_c, 0, 64, 106
1, 6163, Control_c, 0, 64, 122
1, 6178, Control_c, 0, 64, 127
1, 6236, Note_off_c, 0, 70, 59
1, 6646, Control_c, 0, 64, 115
1, 6661, Control_c, 0, 64, 106
1, 6676, Control_c, 0, 64, 99
1, 6691, Control_c, 0, 64, 93
1, 6702, Note_on_c, 0, 77, 70
1, 6706, Control_c, 0, 64, 87
1, 6720, Control_c, 0, 64, 82
1, 6723, Note_on_c, 0, 74, 40
1, 6735, Control_c, 0, 64, 77
1, 6750, Control_c, 0, 64, 71
1, 6765, Control_c, 0, 64, 65
1, 6780, Control_c, 0, 64, 60
1, 6794, Control_c, 0, 64, 53
1, 6809, Control_c, 0, 64, 40
1, 6824, Control_c, 0, 64, 25
1, 6838, Control_c, 0, 64, 0
1, 6971, Control_c, 0, 64, 11
1, 6988, Control_c, 0, 64, 16
1, 7003, Control_c, 0, 64, 23
1, 7017, Control_c, 0, 64, 28
1, 7032, Control_c, 0, 64, 34
1, 7047, Control_c, 0, 64, 39
1, 7061, Control_c, 0, 64, 44
1, 7076, Control_c, 0, 64, 50
1, 7091, Control_c, 0, 64, 55
1, 7106, Control_c, 0, 64, 58
1, 7121, Control_c, 0, 64, 59
1, 7136, Control_c, 0, 64, 61
1, 7150, Control_c, 0, 64, 62
1, 7165, Control_c, 0, 64, 63
1, 7180, Control_c, 0, 64, 64
1, 7195, Control_c, 0, 64, 66
1, 7217, Control_c, 0, 64, 67
1, 7232, Control_c, 0, 64, 69
1, 7247, Control_c, 0, 64, 71
1, 7262, Control_c, 0, 64, 72
1, 7276, Control_c, 0, 64, 74
1, 7291, Control_c, 0, 64, 75
1, 7306, Control_c, 0, 64, 76
1, 7321, Control_c, 0, 64, 78
1, 7335, Control_c, 0, 64, 80
1, 7350, Control_c, 0, 64, 83
1, 7364, Control_c, 0, 64, 85
1, 7379, Control_c, 0, 64, 87
1, 7394, Control_c, 0, 64, 88
1, 7409, Control_c, 0, 64, 89
1, 7424, Control_c, 0, 64, 90
1, 7439, Control_c, 0, 64, 91
1, 7498, Control_c, 0, 64, 91
1, 7513, Control_c, 0, 64, 92
1, 7528, Control_c, 0, 64, 92
1, 7619, Note_off_c, 0, 74, 45
1, 7720, Control_c, 0, 64, 92
1, 7734, Control_c, 0, 64, 91
1, 7749, Control_c, 0, 64, 90
1, 7764, Control_c, 0, 64, 88
1, 7779, Control_c, 0, 64, 87
1, 7795, Control_c, 0, 64, 86
1, 7809, Control_c, 0, 64, 84
1, 7824, Control_c, 0, 64, 82
1, 7827, Note_on_c, 0, 80, 66
1, 7839, Control_c, 0, 64, 80
1, 7854, Control_c, 0, 64, 78
1, 7869, Control_c, 0, 64, 76
1, 7873, Note_on_c, 0, 75, 38
1, 7883, Control_c, 0, 64, 74
1, 7898, Control_c, 0, 64, 72
1, 7913, Control_c, 0, 64, 70
1, 7928, Control_c, 0, 64, 67
1, 7943, Control_c, 0, 64, 65
1, 7965, Control_c, 0, 64, 61
1, 7980, Control_c, 0, 64, 58
1, 7995, Control_c, 0, 64, 54
1, 8010, Control_c, 0, 64, 50
1, 8024, Control_c, 0, 64, 47
1, 8039, Control_c, 0, 64, 44
1, 8054, Control_c, 0, 64, 40
1, 8069, Control_c, 0, 64, 36
1, 8084, Control_c, 0, 64, 33
1, 8098, Control_c, 0, 64, 30
1, 8113, Control_c, 0, 64, 28
1, 8128, Control_c, 0, 64, 26
1, 8143, Control_c, 0, 64, 21
1, 8157, Control_c, 0, 64, 13
1, 8172, Control_c, 0, 64, 0
1, 8208, Note_off_c, 0, 77, 37
1, 8365, Control_c, 0, 64, 11
1, 8380, Control_c, 0, 64, 15
1, 8395, Control_c, 0, 64, 19
1, 8409, Control_c, 0, 64, 22
1, 8424, Control_c, 0, 64, 25
1, 8439, Control_c, 0, 64, 28
1, 8454, Control_c, 0, 64, 31
1, 8469, Control_c, 0, 64, 35
1, 8483, Control_c, 0, 64, 39
1, 8498, Control_c, 0, 64, 43
1, 8513, Control_c, 0, 64, 46
1, 8528, Control_c, 0, 64, 50
1, 8543, Control_c, 0, 64, 53
1, 8557, Control_c, 0, 64, 54
1, 8572, Control_c, 0, 64, 56
1, 8588, Control_c, 0, 64, 57
1, 8603, Control_c, 0, 64, 58
1, 8618, Control_c, 0, 64, 60
1, 8632, Control_c, 0, 64, 60
1, 8647, Control_c, 0, 64, 61
1, 8692, Control_c, 0, 64, 61
1, 8714, Control_c, 0, 64, 62
1, 8729, Control_c, 0, 64, 62
1, 8788, Control_c, 0, 64, 63
1, 8995, Control_c, 0, 64, 62
1, 9025, Control_c, 0, 64, 62
1, 9028, Note_on_c, 0, 78, 53
1, 9055, Control_c, 0, 64, 61
1, 9069, Control_c, 0, 64, 60
1, 9074, Note_off_c, 0, 78, 0
1, 9074, Note_on_c, 0, 78, 24
1, 9084, Control_c, 0, 64, 60
1, 9099, Control_c, 0, 64, 59
1, 9114, Control_c, 0, 64, 58
1, 9129, Control_c, 0, 64, 55
1, 9144, Control_c, 0, 64, 51
1, 9158, Control_c, 0, 64, 45
1, 9173, Control_c, 0, 64, 39
1, 9188, Control_c, 0, 64, 33
1, 9203, Control_c, 0, 64, 27
1, 9218, Control_c, 0, 64, 23
1, 9221, Note_off_c, 0, 80, 57
1, 9232, Control_c, 0, 64, 19
1, 9247, Control_c, 0, 64, 11
1, 9262, Control_c, 0, 64, 0
1, 9567, Control_c, 0, 64, 9
1, 9582, Control_c, 0, 64, 20
1, 9597, Control_c, 0, 64, 26
1, 9611, Control_c, 0, 64, 31
1, 9626, Control_c, 0, 64, 37
1, 9641, Control_c, 0, 64, 43
1, 9655, Control_c, 0, 64, 49
1, 9670, Control_c, 0, 64, 55
1, 9685, Control_c, 0, 64, 59
1, 9700, Control_c, 0, 64, 61
1, 9715, Control_c, 0, 64, 62
1, 9730, Control_c, 0, 64, 63
1, 9744, Control_c, 0, 64, 65
1, 9759, Control_c, 0, 64, 66
1, 9774, Control_c, 0, 64, 68
1, 9788, Control_c, 0, 64, 69
1, 9803, Control_c, 0, 64, 70
1, 9818, Control_c, 0, 64, 70
1, 9833, Control_c, 0, 64, 71
1, 9848, Control_c, 0, 64, 71
1, 9860, Note_off_c, 0, 34, 38
1, 9862, Control_c, 0, 64, 72
1, 9877, Control_c, 0, 64, 72
1, 9922, Control_c, 0, 64, 73
1, 9952, Control_c, 0, 64, 73
1, 9957, Note_off_c, 0, 46, 30
1, 9967, Control_c, 0, 64, 74
1, 9981, Control_c, 0, 64, 75
1, 9996, Control_c, 0, 64, 76
1, 10011, Control_c, 0, 64, 77
1, 10026, Control_c, 0, 64, 78
1, 10041, Control_c, 0, 64, 78
1, 10051, Note_off_c, 0, 78, 32
1, 10070, Control_c, 0, 64, 79
1, 10082, Note_off_c, 0, 75, 24
1, 10085, Control_c, 0, 64, 79
1, 10100, Control_c, 0, 64, 80
1, 10115, Control_c, 0, 64, 80
1, 10129, Control_c, 0, 64, 81
1, 10144, Control_c, 0, 64, 81
1, 10175, Control_c, 0, 64, 82
1, 10190, Control_c, 0, 64, 83
1, 10241, Control_c, 0, 64, 83
1, 10271, Control_c, 0, 64, 84
1, 10716, Control_c, 0, 64, 83
1, 10724, Note_on_c, 0, 78, 51
1, 10731, Control_c, 0, 64, 83
1, 10733, Note_on_c, 0, 47, 28
1, 10733, Note_on_c, 0, 75, 37
1, 10741, Note_on_c, 0, 35, 30
1, 10746, Control_c, 0, 64, 81
1, 10760, Control_c, 0, 64, 80
1, 10775, Control_c, 0, 64, 79
1, 10790, Control_c, 0, 64, 77
1, 10804, Control_c, 0, 64, 75
1, 10819, Control_c, 0, 64, 72
1, 10834, Control_c, 0, 64, 70
1, 10849, Control_c, 0, 64, 67
1, 10864, Control_c, 0, 64, 65
1, 10879, Control_c, 0, 64, 62
1, 10894, Control_c, 0, 64, 60
1, 10909, Control_c, 0, 64, 56
1, 10923, Control_c, 0, 64, 51
1, 10938, Control_c, 0, 64, 46
1, 10960, Control_c, 0, 64, 42
1, 10975, Control_c, 0, 64, 39
1, 10991, Control_c, 0, 64, 36
1, 11006, Control_c, 0, 64, 31
1, 11021, Control_c, 0, 64, 22
1, 11035, Control_c, 0, 64, 13
1, 11050, Control_c, 0, 64, 0
1, 11449, Control_c, 0, 64, 10
1, 11464, Control_c, 0, 64, 19
1, 11479, Control_c, 0, 64, 26
1, 11494, Control_c, 0, 64, 32
1, 11508, Control_c, 0, 64, 37
1, 11523, Control_c, 0, 64, 43
1, 11538, Control_c, 0, 64, 48
1, 11553, Control_c, 0, 64, 53
1, 11567, Control_c, 0, 64, 56
1, 11582, Control_c, 0, 64, 57
1, 11597, Control_c, 0, 64, 58
1, 11612, Control_c, 0, 64, 59
1, 11627, Control_c, 0, 64, 60
1, 11642, Control_c, 0, 64, 61
1, 11657, Control_c, 0, 64, 63
1, 11672, Control_c, 0, 64, 64
1, 11687, Control_c, 0, 64, 65
1, 11708, Control_c, 0, 64, 66
1, 11723, Control_c, 0, 64, 67
1, 11738, Control_c, 0, 64, 68
1, 11753, Control_c, 0, 64, 69
1, 11767, Control_c, 0, 64, 70
1, 11783, Control_c, 0, 64, 71
1, 11798, Control_c, 0, 64, 72
1, 11813, Control_c, 0, 64, 73
1, 11828, Control_c, 0, 64, 75
1, 11834, Note_off_c, 0, 35, 39
1, 11843, Control_c, 0, 64, 76
1, 11857, Control_c, 0, 64, 78
1, 11872, Control_c, 0, 64, 80
1, 11887, Control_c, 0, 64, 81
1, 11902, Control_c, 0, 64, 83
1, 11917, Control_c, 0, 64, 84
1, 11931, Control_c, 0, 64, 86
1, 11946, Control_c, 0, 64, 87
1, 11961, Control_c, 0, 64, 89
1, 11976, Control_c, 0, 64, 90
1, 11991, Control_c, 0, 64, 91
1, 12021, Control_c, 0, 64, 92
1, 12035, Control_c, 0, 64, 93
1, 12050, Control_c, 0, 64, 94
1, 12060, Note_off_c, 0, 47, 41
1, 12065, Control_c, 0, 64, 95
1, 12095, Control_c, 0, 64, 96
1, 12110, Control_c, 0, 64, 97
1, 12124, Control_c, 0, 64, 99
1, 12139, Control_c, 0, 64, 100
1, 12154, Control_c, 0, 64, 100
1, 12159, Note_off_c, 0, 75, 39
1, 12169, Control_c, 0, 64, 101
1, 12198, Control_c, 0, 64, 101
1, 12213, Control_c, 0, 64, 102
1, 12243, Control_c, 0, 64, 103
1, 12257, Control_c, 0, 64, 103
1, 12287, Control_c, 0, 64, 104
1, 12302, Control_c, 0, 64, 105
1, 12357, Note_off_c, 0, 78, 30
1, 12361, Control_c, 0, 64, 105
1, 12390, Control_c, 0, 64, 106
1, 12405, Control_c, 0, 64, 107
1, 12435, Control_c, 0, 64, 108
1, 12457, Control_c, 0, 64, 108
1, 12675, Note_on_c, 0, 80, 58
1, 12694, Note_on_c, 0, 71, 42
1, 12695, Control_c, 0, 64, 105
1, 12698, Note_on_c, 0, 40, 37
1, 12708, Note_on_c, 0, 52, 33
1, 12710, Control_c, 0, 64, 100
1, 12725, Control_c, 0, 64, 94
1, 12740, Control_c, 0, 64, 87
1, 12754, Control_c, 0, 64, 82
1, 12769, Poly_aftertouch_c, 0, 78, 127
1, 12769, Control_c, 0, 64, 78
1, 12784, Control_c, 0, 64, 73
1, 12799, Control_c, 0, 64, 68
1, 12814, Control_c, 0, 64, 63
1, 12828, Control_c, 0, 64, 57
1, 12843, Control_c, 0, 64, 48
1, 12855, Poly_aftertouch_c, 0, 78, 0
1, 12858, Control_c, 0, 64, 37
1, 12873, Control_c, 0, 64, 23
1, 12888, Control_c, 0, 64, 0
1, 13236, Control_c, 0, 64, 15
1, 13251, Control_c, 0, 64, 21
1, 13266, Control_c, 0, 64, 25
1, 13280, Control_c, 0, 64, 29
1, 13295, Control_c, 0, 64, 34
1, 13310, Control_c, 0, 64, 41
1, 13324, Control_c, 0, 64, 47
1, 13340, Control_c, 0, 64, 52
1, 13355, Control_c, 0, 64, 56
1, 13370, Control_c, 0, 64, 58
1, 13386, Control_c, 0, 64, 60
1, 13401, Control_c, 0, 64, 62
1, 13416, Control_c, 0, 64, 64
1, 13430, Control_c, 0, 64, 65
1, 13445, Control_c, 0, 64, 66
1, 13460, Control_c, 0, 64, 67
1, 13475, Control_c, 0, 64, 69
1, 13490, Control_c, 0, 64, 71
1, 13504, Control_c, 0, 64, 73
1, 13519, Control_c, 0, 64, 75
1, 13534, Control_c, 0, 64, 76
1, 13549, Control_c, 0, 64, 78
1, 13564, Control_c, 0, 64, 81
1, 13578, Control_c, 0, 64, 84
1, 13593, Control_c, 0, 64, 88
1, 13608, Control_c, 0, 64, 92
1, 13623, Control_c, 0, 64, 95
1, 13637, Control_c, 0, 64, 101
1, 13638, Note_off_c, 0, 40, 38
1, 13652, Control_c, 0, 64, 109
1, 13661, Note_off_c, 0, 80, 52
1, 13667, Control_c, 0, 64, 127
1, 13745, Note_off_c, 0, 71, 37
1, 13777, Note_off_c, 0, 52, 35
1, 14641, Note_on_c, 0, 61, 56
1, 14666, Note_on_c, 0, 59, 38
1, 14676, Note_on_c, 0, 42, 38
1, 14684, Note_on_c, 0, 54, 31
1, 14749, Control_c, 0, 64, 105
1, 14764, Control_c, 0, 64, 97
1, 14778, Control_c, 0, 64, 92
1, 14793, Control_c, 0, 64, 86
1, 14808, Control_c, 0, 64, 81
1, 14823, Control_c, 0, 64, 76
1, 14838, Control_c, 0, 64, 71
1, 14852, Control_c, 0, 64, 67
1, 14867, Control_c, 0, 64, 65
1, 14882, Control_c, 0, 64, 62
1, 14897, Control_c, 0, 64, 58
1, 14912, Control_c, 0, 64, 53
1, 14927, Control_c, 0, 64, 47
1, 14942, Control_c, 0, 64, 42
1, 14957, Control_c, 0, 64, 40
1, 14972, Control_c, 0, 64, 38
1, 14987, Control_c, 0, 64, 35
1, 15001, Control_c, 0, 64, 30
1, 15016, Control_c, 0, 64, 23
1, 15031, Control_c, 0, 64, 13
1, 15046, Control_c, 0, 64, 0
1, 15527, Control_c, 0, 64, 14
1, 15542, Control_c, 0, 64, 21
1, 15557, Control_c, 0, 64, 26
1, 15572, Control_c, 0, 64, 30
1, 15586, Control_c, 0, 64, 34
1, 15601, Control_c, 0, 64, 40
1, 15616, Control_c, 0, 64, 46
1, 15630, Control_c, 0, 64, 51
1, 15645, Control_c, 0, 64, 55
1, 15660, Control_c, 0, 64, 57
1, 15675, Control_c, 0, 64, 59
1, 15690, Control_c, 0, 64, 60
1, 15705, Control_c, 0, 64, 62
1, 15720, Control_c, 0, 64, 63
1, 15734, Control_c, 0, 64, 64
1, 15749, Control_c, 0, 64, 65
1, 15764, Control_c, 0, 64, 66
1, 15780, Control_c, 0, 64, 67
1, 15794, Control_c, 0, 64, 68
1, 15809, Control_c, 0, 64, 69
1, 15824, Control_c, 0, 64, 69
1, 15839, Control_c, 0, 64, 70
1, 15854, Control_c, 0, 64, 72
1, 15869, Control_c, 0, 64, 73
1, 15884, Control_c, 0, 64, 74
1, 15898, Control_c, 0, 64, 74
1, 15913, Control_c, 0, 64, 75
1, 15928, Control_c, 0, 64, 77
1, 15942, Control_c, 0, 64, 78
1, 15957, Control_c, 0, 64, 78
1, 15972, Control_c, 0, 64, 79
1, 15987, Control_c, 0, 64, 79
1, 16002, Control_c, 0, 64, 80
1, 16016, Control_c, 0, 64, 80
1, 16046, Control_c, 0, 64, 81
1, 16061, Control_c, 0, 64, 81
1, 16069, Note_off_c, 0, 61, 38
1, 16090, Control_c, 0, 64, 82
1, 16256, Note_off_c, 0, 59, 40
1, 16408, Control_c, 0, 64, 81
1, 16438, Control_c, 0, 64, 80
1, 16453, Control_c, 0, 64, 80
1, 16468, Control_c, 0, 64, 79
1, 16483, Control_c, 0, 64, 78
1, 16493, Note_on_c, 0, 64, 55
1, 16497, Control_c, 0, 64, 77
1, 16512, Control_c, 0, 64, 75
1, 16522, Note_on_c, 0, 61, 34
1, 16527, Control_c, 0, 64, 74
1, 16531, Note_on_c, 0, 58, 29
1, 16542, Control_c, 0, 64, 73
1, 16556, Control_c, 0, 64, 71
1, 16572, Control_c, 0, 64, 70
1, 16587, Control_c, 0, 64, 69
1, 16602, Control_c, 0, 64, 67
1, 16617, Control_c, 0, 64, 65
1, 16632, Control_c, 0, 64, 63
1, 16646, Control_c, 0, 64, 61
1, 16661, Control_c, 0, 64, 59
1, 16676, Control_c, 0, 64, 56
1, 16691, Control_c, 0, 64, 51
1, 16706, Control_c, 0, 64, 45
1, 16720, Control_c, 0, 64, 38
1, 16735, Control_c, 0, 64, 33
1, 16750, Control_c, 0, 64, 30
1, 16764, Control_c, 0, 64, 28
1, 16779, Control_c, 0, 64, 24
1, 16794, Control_c, 0, 64, 19
1, 16809, Control_c, 0, 64, 11
1, 16824, Control_c, 0, 64, 0
1, 17365, Control_c, 0, 64, 12
1, 17381, Control_c, 0, 64, 19
1, 17395, Control_c, 0, 64, 25
1, 17410, Control_c, 0, 64, 31
1, 17425, Control_c, 0, 64, 37
1, 17440, Control_c, 0, 64, 42
1, 17455, Control_c, 0, 64, 46
1, 17470, Control_c, 0, 64, 50
1, 17485, Control_c, 0, 64, 53
1, 17499, Control_c, 0, 64, 55
1, 17514, Control_c, 0, 64, 58
1, 17529, Control_c, 0, 64, 59
1, 17544, Control_c, 0, 64, 60
1, 17559, Control_c, 0, 64, 61
1, 17574, Control_c, 0, 64, 62
1, 17588, Control_c, 0, 64, 64
1, 17603, Control_c, 0, 64, 65
1, 17618, Control_c, 0, 64, 66
1, 17625, Note_off_c, 0, 42, 31
1, 17633, Control_c, 0, 64, 67
1, 17648, Control_c, 0, 64, 68
1, 17662, Control_c, 0, 64, 70
1, 17677, Control_c, 0, 64, 71
1, 17699, Control_c, 0, 64, 72
1, 17702, Note_off_c, 0, 61, 42
1, 17711, Note_off_c, 0, 58, 31
1, 17714, Control_c, 0, 64, 74
1, 17729, Control_c, 0, 64, 74
1, 17744, Control_c, 0, 64, 75
1, 17759, Control_c, 0, 64, 76
1, 17774, Control_c, 0, 64, 77
1, 17789, Control_c, 0, 64, 77
1, 17803, Control_c, 0, 64, 78
1, 17818, Control_c, 0, 64, 78
1, 17832, Control_c, 0, 64, 79
1, 17847, Control_c, 0, 64, 79
1, 17856, Note_off_c, 0, 54, 33
1, 17876, Control_c, 0, 64, 80
1, 17891, Control_c, 0, 64, 80
1, 17950, Note_off_c, 0, 64, 55
1, 18158, Control_c, 0, 64, 80
1, 18188, Control_c, 0, 64, 79
1, 18203, Control_c, 0, 64, 79
1, 18233, Control_c, 0, 64, 78
1, 18263, Control_c, 0, 64, 78
1, 18307, Control_c, 0, 64, 77
1, 18351, Control_c, 0, 64, 77
1, 18366, Control_c, 0, 64, 76
1, 18396, Control_c, 0, 64, 76
1, 18411, Control_c, 0, 64, 75
1, 18425, Control_c, 0, 64, 75
1, 18447, Control_c, 0, 64, 74
1, 18477, Control_c, 0, 64, 74
1, 18483, Note_on_c, 0, 63, 59
1, 18492, Control_c, 0, 64, 73
1, 18507, Control_c, 0, 64, 72
1, 18514, Note_on_c, 0, 55, 37
1, 18522, Note_on_c, 0, 43, 35
1, 18522, Control_c, 0, 64, 71
1, 18524, Note_on_c, 0, 58, 41
1, 18532, Note_on_c, 0, 61, 36
1, 18537, Control_c, 0, 64, 69
1, 18551, Control_c, 0, 64, 68
1, 18566, Control_c, 0, 64, 65
1, 18581, Control_c, 0, 64, 62
1, 18596, Control_c, 0, 64, 57
1, 18611, Control_c, 0, 64, 48
1, 18625, Control_c, 0, 64, 33
1, 18640, Control_c, 0, 64, 0
1, 18832, Control_c, 0, 64, 16
1, 18847, Control_c, 0, 64, 25
1, 18862, Control_c, 0, 64, 31
1, 18877, Control_c, 0, 64, 36
1, 18892, Control_c, 0, 64, 42
1, 18906, Control_c, 0, 64, 48
1, 18921, Control_c, 0, 64, 54
1, 18936, Control_c, 0, 64, 57
1, 18951, Control_c, 0, 64, 59
1, 18966, Control_c, 0, 64, 60
1, 18981, Control_c, 0, 64, 61
1, 18996, Control_c, 0, 64, 63
1, 19011, Control_c, 0, 64, 64
1, 19026, Control_c, 0, 64, 65
1, 19041, Control_c, 0, 64, 66
1, 19056, Control_c, 0, 64, 67
1, 19059, Note_off_c, 0, 55, 41
1, 19070, Control_c, 0, 64, 67
1, 19085, Control_c, 0, 64, 68
1, 19100, Control_c, 0, 64, 70
1, 19115, Control_c, 0, 64, 71
1, 19130, Control_c, 0, 64, 73
1, 19145, Control_c, 0, 64, 74
1, 19160, Control_c, 0, 64, 75
1, 19174, Control_c, 0, 64, 77
1, 19196, Control_c, 0, 64, 78
1, 19211, Control_c, 0, 64, 80
1, 19223, Note_off_c, 0, 61, 38
1, 19226, Control_c, 0, 64, 81
1, 19241, Control_c, 0, 64, 81
1, 19389, Control_c, 0, 64, 81
1, 19404, Control_c, 0, 64, 80
1, 19419, Control_c, 0, 64, 79
1, 19434, Control_c, 0, 64, 77
1, 19448, Control_c, 0, 64, 76
1, 19450, Note_on_c, 0, 59, 41
1, 19452, Note_on_c, 0, 56, 41
1, 19458, Note_on_c, 0, 44, 39
1, 19463, Control_c, 0, 64, 75
1, 19478, Control_c, 0, 64, 73
1, 19492, Control_c, 0, 64, 70
1, 19507, Control_c, 0, 64, 67
1, 19522, Control_c, 0, 64, 63
1, 19537, Control_c, 0, 64, 58
1, 19552, Control_c, 0, 64, 48
1, 19566, Control_c, 0, 64, 33
1, 19581, Control_c, 0, 64, 0
1, 19601, Note_off_c, 0, 58, 50
1, 19614, Note_off_c, 0, 43, 40
1, 19760, Control_c, 0, 64, 14
1, 19775, Control_c, 0, 64, 24
1, 19789, Control_c, 0, 64, 31
1, 19804, Control_c, 0, 64, 38
1, 19819, Control_c, 0, 64, 45
1, 19834, Control_c, 0, 64, 51
1, 19849, Control_c, 0, 64, 56
1, 19863, Control_c, 0, 64, 60
1, 19878, Note_off_c, 0, 56, 41
1, 19878, Control_c, 0, 64, 62
1, 19893, Control_c, 0, 64, 65
1, 19908, Control_c, 0, 64, 67
1, 19923, Control_c, 0, 64, 69
1, 19945, Control_c, 0, 64, 71
1, 19960, Control_c, 0, 64, 73
1, 19975, Control_c, 0, 64, 74
1, 19985, Note_off_c, 0, 44, 50
1, 19990, Control_c, 0, 64, 76
1, 20004, Control_c, 0, 64, 78
1, 20019, Control_c, 0, 64, 79
1, 20034, Control_c, 0, 64, 81
1, 20041, Note_off_c, 0, 59, 34
1, 20049, Control_c, 0, 64, 82
1, 20064, Control_c, 0, 64, 82
1, 20093, Control_c, 0, 64, 83
1, 20108, Control_c, 0, 64, 84
1, 20123, Control_c, 0, 64, 84
1, 20221, Note_off_c, 0, 63, 31
1, 20301, Control_c, 0, 64, 84
1, 20315, Control_c, 0, 64, 83
1, 20330, Control_c, 0, 64, 81
1, 20345, Control_c, 0, 64, 79
1, 20360, Control_c, 0, 64, 77
1, 20370, Note_on_c, 0, 37, 36
1, 20372, Note_on_c, 0, 64, 56
1, 20375, Control_c, 0, 64, 75
1, 20384, Note_on_c, 0, 58, 41
1, 20385, Note_on_c, 0, 56, 42
1, 20389, Control_c, 0, 64, 72
1, 20395, Note_on_c, 0, 49, 23
1, 20404, Control_c, 0, 64, 69
1, 20419, Control_c, 0, 64, 66
1, 20434, Control_c, 0, 64, 63
1, 20449, Control_c, 0, 64, 58
1, 20463, Control_c, 0, 64, 49
1, 20478, Control_c, 0, 64, 35
1, 20493, Control_c, 0, 64, 0
1, 20783, Control_c, 0, 64, 17
1, 20798, Control_c, 0, 64, 24
1, 20813, Control_c, 0, 64, 31
1, 20828, Control_c, 0, 64, 37
1, 20843, Control_c, 0, 64, 44
1, 20858, Control_c, 0, 64, 52
1, 20873, Control_c, 0, 64, 56
1, 20888, Control_c, 0, 64, 59
1, 20902, Control_c, 0, 64, 60
1, 20917, Control_c, 0, 64, 62
1, 20932, Control_c, 0, 64, 64
1, 20946, Control_c, 0, 64, 65
1, 20961, Control_c, 0, 64, 68
1, 20965, Note_off_c, 0, 56, 42
1, 20976, Control_c, 0, 64, 69
1, 20991, Control_c, 0, 64, 70
1, 21006, Control_c, 0, 64, 72
1, 21020, Control_c, 0, 64, 73
1, 21035, Control_c, 0, 64, 73
1, 21048, Note_off_c, 0, 58, 54
1, 21050, Control_c, 0, 64, 74
1, 21070, Note_off_c, 0, 64, 59
1, 21443, Control_c, 0, 64, 74
1, 21548, Control_c, 0, 64, 75
1, 21592, Note_on_c, 0, 76, 53
1, 21606, Control_c, 0, 64, 75
1, 21754, Control_c, 0, 64, 76
1, 21795, Note_off_c, 0, 37, 35
1, 22117, Note_off_c, 0, 49, 43
1, 22427, Note_off_c, 0, 76, 53
1, 22562, Control_c, 0, 64, 75
1, 22621, Control_c, 0, 64, 75
1, 22642, Note_on_c, 0, 51, 43
1, 22651, Control_c, 0, 64, 74
1, 22663, Note_on_c, 0, 39, 32
1, 22665, Control_c, 0, 64, 73
1, 22680, Control_c, 0, 64, 72
1, 22695, Control_c, 0, 64, 70
1, 22710, Control_c, 0, 64, 68
1, 22725, Control_c, 0, 64, 65
1, 22740, Control_c, 0, 64, 62
1, 22755, Control_c, 0, 64, 58
1, 22770, Control_c, 0, 64, 48
1, 22784, Control_c, 0, 64, 36
1, 22799, Control_c, 0, 64, 18
1, 22814, Control_c, 0, 64, 0
1, 23340, Control_c, 0, 64, 18
1, 23355, Control_c, 0, 64, 23
1, 23370, Control_c, 0, 64, 27
1, 23385, Control_c, 0, 64, 31
1, 23400, Control_c, 0, 64, 35
1, 23414, Control_c, 0, 64, 40
1, 23429, Control_c, 0, 64, 47
1, 23444, Control_c, 0, 64, 50
1, 23459, Control_c, 0, 64, 53
1, 23474, Control_c, 0, 64, 54
1, 23488, Control_c, 0, 64, 56
1, 23503, Control_c, 0, 64, 58
1, 23518, Control_c, 0, 64, 60
1, 23533, Control_c, 0, 64, 61
1, 23548, Control_c, 0, 64, 61
1, 23563, Control_c, 0, 64, 62
1, 23578, Control_c, 0, 64, 63
1, 23592, Control_c, 0, 64, 64
1, 23607, Control_c, 0, 64, 65
1, 23622, Control_c, 0, 64, 66
1, 23637, Control_c, 0, 64, 67
1, 23652, Control_c, 0, 64, 69
1, 23666, Control_c, 0, 64, 70
1, 23688, Control_c, 0, 64, 71
1, 23703, Control_c, 0, 64, 72
1, 23733, Control_c, 0, 64, 73
1, 23753, Note_on_c, 0, 58, 36
1, 23757, Note_on_c, 0, 56, 29
1, 23763, Control_c, 0, 64, 74
1, 23793, Control_c, 0, 64, 74
1, 23808, Control_c, 0, 64, 75
1, 23824, Control_c, 0, 64, 75
1, 23838, Control_c, 0, 64, 76
1, 23853, Control_c, 0, 64, 77
1, 23867, Note_off_c, 0, 39, 27
1, 23868, Control_c, 0, 64, 77
1, 23883, Control_c, 0, 64, 78
1, 23898, Control_c, 0, 64, 79
1, 23912, Control_c, 0, 64, 80
1, 23927, Control_c, 0, 64, 81
1, 23942, Control_c, 0, 64, 81
1, 23957, Control_c, 0, 64, 82
1, 23971, Control_c, 0, 64, 83
1, 24001, Control_c, 0, 64, 83
1, 24002, Note_off_c, 0, 51, 36
1, 24016, Control_c, 0, 64, 84
1, 24031, Control_c, 0, 64, 85
1, 24046, Control_c, 0, 64, 86
1, 24075, Control_c, 0, 64, 86
1, 24105, Control_c, 0, 64, 87
1, 24120, Control_c, 0, 64, 87
1, 24135, Control_c, 0, 64, 88
1, 24164, Control_c, 0, 64, 88
1, 24209, Control_c, 0, 64, 89
1, 24224, Control_c, 0, 64, 89
1, 24253, Control_c, 0, 64, 90
1, 24282, Control_c, 0, 64, 90
1, 24327, Control_c, 0, 64, 91
1, 24386, Control_c, 0, 64, 91
1, 24453, Control_c, 0, 64, 92
1, 24512, Control_c, 0, 64, 92
1, 24958, Control_c, 0, 64, 92
1, 24987, Control_c, 0, 64, 91
1, 25002, Control_c, 0, 64, 91
1, 25017, Control_c, 0, 64, 90
1, 25032, Control_c, 0, 64, 89
1, 25047, Control_c, 0, 64, 87
1, 25052, Note_on_c, 0, 39, 29
1, 25061, Control_c, 0, 64, 85
1, 25076, Control_c, 0, 64, 83
1, 25091, Control_c, 0, 64, 81
1, 25105, Control_c, 0, 64, 78
1, 25113, Note_off_c, 0, 56, 39
1, 25120, Control_c, 0, 64, 74
1, 25135, Control_c, 0, 64, 71
1, 25150, Control_c, 0, 64, 67
1, 25151, Note_off_c, 0, 58, 36
1, 25165, Control_c, 0, 64, 64
1, 25187, Control_c, 0, 64, 60
1, 25202, Control_c, 0, 64, 55
1, 25217, Control_c, 0, 64, 46
1, 25232, Control_c, 0, 64, 34
1, 25247, Control_c, 0, 64, 17
1, 25261, Control_c, 0, 64, 0
1, 25617, Control_c, 0, 64, 8
1, 25632, Control_c, 0, 64, 14
1, 25647, Control_c, 0, 64, 19
1, 25661, Control_c, 0, 64, 23
1, 25676, Control_c, 0, 64, 27
1, 25691, Control_c, 0, 64, 30
1, 25706, Control_c, 0, 64, 33
1, 25721, Control_c, 0, 64, 35
1, 25736, Control_c, 0, 64, 38
1, 25751, Control_c, 0, 64, 42
1, 25766, Control_c, 0, 64, 46
1, 25780, Control_c, 0, 64, 49
1, 25795, Control_c, 0, 64, 50
1, 25810, Control_c, 0, 64, 52
1, 25825, Control_c, 0, 64, 54
1, 25840, Control_c, 0, 64, 56
1, 25854, Control_c, 0, 64, 57
1, 25869, Control_c, 0, 64, 58
1, 25884, Control_c, 0, 64, 59
1, 25899, Control_c, 0, 64, 59
1, 25914, Control_c, 0, 64, 60
1, 25935, Control_c, 0, 64, 61
1, 25950, Control_c, 0, 64, 61
1, 25965, Control_c, 0, 64, 62
1, 25995, Control_c, 0, 64, 62
1, 26010, Control_c, 0, 64, 63
1, 26025, Control_c, 0, 64, 64
1, 26040, Control_c, 0, 64, 65
1, 26055, Control_c, 0, 64, 65
1, 26068, Control_c, 0, 64, 66
1, 26083, Control_c, 0, 64, 67
1, 26098, Control_c, 0, 64, 69
1, 26113, Control_c, 0, 64, 70
1, 26127, Control_c, 0, 64, 72
1, 26142, Control_c, 0, 64, 73
1, 26158, Control_c, 0, 64, 74
1, 26173, Control_c, 0, 64, 75
1, 26188, Control_c, 0, 64, 77
1, 26203, Control_c, 0, 64, 78
1, 26218, Control_c, 0, 64, 80
1, 26232, Control_c, 0, 64, 81
1, 26247, Control_c, 0, 64, 82
1, 26262, Control_c, 0, 64, 83
1, 26277, Control_c, 0, 64, 84
1, 26292, Control_c, 0, 64, 85
1, 26306, Control_c, 0, 64, 86
1, 26321, Control_c, 0, 64, 87
1, 26336, Control_c, 0, 64, 87
1, 26351, Control_c, 0, 64, 88
1, 26365, Control_c, 0, 64, 88
1, 26441, Note_on_c, 0, 63, 36
1, 26445, Note_on_c, 0, 58, 23
1, 26448, Note_on_c, 0, 55, 24
1, 26603, Control_c, 0, 64, 89
1, 26618, Control_c, 0, 64, 89
1, 26632, Control_c, 0, 64, 90
1, 26662, Control_c, 0, 64, 90
1, 26684, Control_c, 0, 64, 91
1, 26699, Control_c, 0, 64, 91
1, 26713, Control_c, 0, 64, 92
1, 26743, Control_c, 0, 64, 92
1, 26758, Control_c, 0, 64, 93
1, 26773, Control_c, 0, 64, 93
1, 26788, Control_c, 0, 64, 95
1, 26796, Note_off_c, 0, 39, 28
1, 26803, Control_c, 0, 64, 95
1, 26818, Control_c, 0, 64, 97
1, 26832, Control_c, 0, 64, 98
1, 26847, Control_c, 0, 64, 99
1, 26862, Control_c, 0, 64, 100
1, 26877, Control_c, 0, 64, 102
1, 26891, Control_c, 0, 64, 103
1, 26906, Control_c, 0, 64, 105
1, 26921, Control_c, 0, 64, 106
1, 26936, Control_c, 0, 64, 107
1, 26952, Control_c, 0, 64, 109
1, 26967, Control_c, 0, 64, 113
1, 26981, Control_c, 0, 64, 115
1, 26996, Control_c, 0, 64, 119
1, 26998, Note_off_c, 0, 55, 37
1, 27011, Control_c, 0, 64, 127
1, 27177, Note_off_c, 0, 58, 26
1, 27692, Note_off_c, 0, 63, 37
1, 28116, Control_c, 0, 64, 122
1, 28130, Control_c, 0, 64, 113
1, 28145, Control_c, 0, 64, 107
1, 28160, Control_c, 0, 64, 101
1, 28183, Control_c, 0, 64, 97
1, 28198, Control_c, 0, 64, 92
1, 28212, Control_c, 0, 64, 88
1, 28227, Control_c, 0, 64, 86
1, 28233, Note_on_c, 0, 39, 49
1, 28242, Control_c, 0, 64, 84
1, 28256, Control_c, 0, 64, 81
1, 28271, Control_c, 0, 64, 78
1, 28286, Control_c, 0, 64, 74
1, 28301, Control_c, 0, 64, 70
1, 28316, Control_c, 0, 64, 66
1, 28330, Control_c, 0, 64, 63
1, 28345, Control_c, 0, 64, 60
1, 28360, Control_c, 0, 64, 56
1, 28375, Control_c, 0, 64, 49
1, 28390, Control_c, 0, 64, 42
1, 28404, Control_c, 0, 64, 36
1, 28419, Control_c, 0, 64, 33
1, 28434, Control_c, 0, 64, 30
1, 28449, Control_c, 0, 64, 26
1, 28463, Control_c, 0, 64, 21
1, 28478, Control_c, 0, 64, 14
1, 28493, Control_c, 0, 64, 0
1, 28702, Control_c, 0, 64, 14
1, 28717, Control_c, 0, 64, 22
1, 28732, Control_c, 0, 64, 28
1, 28746, Control_c, 0, 64, 33
1, 28761, Control_c, 0, 64, 37
1, 28776, Control_c, 0, 64, 43
1, 28791, Control_c, 0, 64, 48
1, 28806, Control_c, 0, 64, 53
1, 28820, Control_c, 0, 64, 56
1, 28824, Note_on_c, 0, 43, 48
1, 28835, Control_c, 0, 64, 58
1, 28850, Control_c, 0, 64, 59
1, 28865, Control_c, 0, 64, 60
1, 28879, Control_c, 0, 64, 62
1, 28894, Control_c, 0, 64, 63
1, 28909, Control_c, 0, 64, 64
1, 28931, Control_c, 0, 64, 65
1, 28946, Control_c, 0, 64, 66
1, 28961, Control_c, 0, 64, 68
1, 28976, Control_c, 0, 64, 70
1, 28991, Control_c, 0, 64, 73
1, 29006, Control_c, 0, 64, 76
1, 29021, Control_c, 0, 64, 79
1, 29035, Control_c, 0, 64, 82
1, 29050, Control_c, 0, 64, 86
1, 29065, Control_c, 0, 64, 90
1, 29079, Control_c, 0, 64, 95
1, 29094, Control_c, 0, 64, 101
1, 29109, Control_c, 0, 64, 105
1, 29124, Control_c, 0, 64, 110
1, 29139, Control_c, 0, 64, 117
1, 29153, Control_c, 0, 64, 127
1, 29163, Note_on_c, 0, 46, 50
1, 29362, Control_c, 0, 67, 125
1, 29376, Control_c, 0, 67, 121
1, 29391, Control_c, 0, 67, 117
1, 29406, Control_c, 0, 67, 113
1, 29421, Control_c, 0, 67, 109
1, 29436, Control_c, 0, 67, 107
1, 29450, Control_c, 0, 67, 106
1, 29457, Note_on_c, 0, 49, 51
1, 29465, Control_c, 0, 67, 105
1, 29695, Control_c, 0, 67, 105
1, 29709, Control_c, 0, 67, 104
1, 29714, Note_on_c, 0, 51, 55
1, 29724, Control_c, 0, 67, 104
1, 29739, Control_c, 0, 67, 103
1, 29754, Control_c, 0, 67, 100
1, 29769, Control_c, 0, 67, 98
1, 29784, Control_c, 0, 67, 97
1, 29799, Control_c, 0, 67, 94
1, 29812, Control_c, 0, 67, 92
1, 29826, Control_c, 0, 67, 91
1, 29841, Control_c, 0, 67, 89
1, 29856, Control_c, 0, 67, 88
1, 29871, Control_c, 0, 67, 87
1, 29886, Control_c, 0, 67, 86
1, 29900, Control_c, 0, 67, 85
1, 29915, Control_c, 0, 67, 84
1, 29930, Control_c, 0, 67, 83
1, 29934, Note_on_c, 0, 55, 52
1, 29945, Control_c, 0, 67, 82
1, 29960, Control_c, 0, 67, 81
1, 29975, Control_c, 0, 67, 80
1, 29989, Control_c, 0, 67, 79
1, 30079, Control_c, 0, 67, 80
1, 30094, Control_c, 0, 67, 82
1, 30108, Control_c, 0, 67, 84
1, 30123, Control_c, 0, 67, 85
1, 30138, Control_c, 0, 67, 86
1, 30151, Note_on_c, 0, 58, 62
1, 30153, Control_c, 0, 67, 88
1, 30168, Control_c, 0, 67, 89
1, 30183, Control_c, 0, 67, 91
1, 30198, Control_c, 0, 67, 92
1, 30213, Control_c, 0, 67, 93
1, 30228, Control_c, 0, 67, 94
1, 30243, Control_c, 0, 67, 97
1, 30257, Control_c, 0, 67, 103
1, 30272, Control_c, 0, 67, 107
1, 30287, Control_c, 0, 67, 109
1, 30302, Control_c, 0, 67, 111
1, 30306, Note_off_c, 0, 55, 57
1, 30329, Note_on_c, 0, 61, 58
1, 30331, Control_c, 0, 67, 111
1, 30361, Control_c, 0, 67, 112
1, 30379, Note_off_c, 0, 58, 62
1, 30457, Control_c, 0, 67, 111
1, 30487, Control_c, 0, 67, 110
1, 30499, Note_on_c, 0, 63, 71
1, 30517, Control_c, 0, 67, 110
1, 30541, Note_off_c, 0, 61, 64
1, 30577, Control_c, 0, 67, 109
1, 30579, Note_off_c, 0, 63, 65
1, 30684, Note_on_c, 0, 67, 76
1, 30710, Control_c, 0, 67, 109
1, 30739, Control_c, 0, 67, 108
1, 30798, Control_c, 0, 67, 108
1, 30887, Control_c, 0, 67, 107
1, 30937, Note_off_c, 0, 39, 35
1, 30945, Note_on_c, 0, 70, 75
1, 30947, Control_c, 0, 67, 107
1, 30963, Note_off_c, 0, 51, 49
1, 31021, Control_c, 0, 67, 106
1, 31029, Note_off_c, 0, 43, 40
1, 31051, Control_c, 0, 67, 106
1, 31071, Note_off_c, 0, 49, 35
1, 31075, Note_off_c, 0, 46, 40
1, 31095, Control_c, 0, 67, 105
1, 31266, Control_c, 0, 67, 105
1, 31325, Control_c, 0, 67, 104
1, 31367, Note_off_c, 0, 67, 54
1, 31562, Control_c, 0, 67, 104
1, 31757, Note_on_c, 0, 73, 75
1, 31941, Control_c, 0, 67, 103
1, 32177, Control_c, 0, 67, 104
1, 32236, Control_c, 0, 67, 104
1, 32369, Control_c, 0, 67, 105
1, 32399, Control_c, 0, 67, 105
1, 32414, Control_c, 0, 67, 106
1, 32473, Control_c, 0, 67, 106
1, 32484, Note_off_c, 0, 70, 36
1, 32488, Control_c, 0, 67, 107
1, 32502, Control_c, 0, 67, 107
1, 32517, Control_c, 0, 67, 108
1, 32563, Control_c, 0, 67, 108
1, 32881, Control_c, 0, 67, 109
1, 32911, Control_c, 0, 67, 109
1, 33074, Control_c, 0, 67, 110
1, 33089, Control_c, 0, 67, 110
1, 33416, Control_c, 0, 67, 110
1, 33482, Control_c, 0, 67, 109
1, 33748, Control_c, 0, 67, 109
1, 33956, Control_c, 0, 67, 108
1, 34458, Note_on_c, 0, 70, 55
1, 34484, Control_c, 0, 67, 108
1, 34750, Control_c, 0, 67, 108
1, 34795, Control_c, 0, 67, 109
1, 34810, Control_c, 0, 67, 109
1, 34854, Control_c, 0, 67, 110
1, 35099, Control_c, 0, 67, 109
1, 35287, Note_on_c, 0, 68, 53
1, 35307, Control_c, 0, 67, 109
1, 35647, Control_c, 0, 67, 109
1, 35699, Control_c, 0, 67, 110
1, 35744, Control_c, 0, 67, 110
1, 35774, Control_c, 0, 67, 111
1, 35789, Control_c, 0, 67, 111
1, 35804, Control_c, 0, 67, 112
1, 35848, Control_c, 0, 67, 112
1, 35877, Control_c, 0, 67, 113
1, 35937, Control_c, 0, 67, 113
1, 35974, Note_off_c, 0, 70, 31
1, 35996, Control_c, 0, 67, 114
1, 36011, Control_c, 0, 67, 116
1, 36026, Control_c, 0, 67, 119
1, 36041, Control_c, 0, 67, 122
1, 36056, Control_c, 0, 67, 125
1, 36070, Control_c, 0, 67, 127
1, 36085, Control_c, 0, 67, 127
1, 36475, Note_off_c, 0, 73, 40
1, 36777, Note_on_c, 0, 67, 42
1, 37039, Note_off_c, 0, 68, 35
1, 38832, Note_on_c, 0, 70, 44
1, 39158, Note_on_c, 0, 73, 60
1, 39494, Note_on_c, 0, 76, 59
1, 39600, Note_off_c, 0, 67, 43
1, 39660, Note_off_c, 0, 73, 62
1, 39841, Note_on_c, 0, 75, 62
1, 39963, Control_c, 0, 67, 122
1, 39978, Control_c, 0, 67, 117
1, 39984, Note_off_c, 0, 76, 60
1, 39992, Control_c, 0, 67, 111
1, 40007, Control_c, 0, 67, 106
1, 40017, Note_off_c, 0, 70, 35
1, 40022, Control_c, 0, 67, 101
1, 40036, Control_c, 0, 67, 94
1, 40051, Control_c, 0, 67, 89
1, 40066, Control_c, 0, 67, 86
1, 40096, Control_c, 0, 67, 86
1, 40105, Note_off_c, 0, 75, 56
1, 40110, Control_c, 0, 67, 87
1, 40125, Control_c, 0, 67, 88
1, 40140, Control_c, 0, 67, 89
1, 40162, Control_c, 0, 67, 90
1, 40177, Control_c, 0, 67, 90
1, 40192, Control_c, 0, 67, 91
1, 40207, Control_c, 0, 67, 92
1, 40222, Control_c, 0, 67, 93
1, 40236, Control_c, 0, 67, 93
1, 40396, Note_on_c, 0, 70, 66
1, 40414, Control_c, 0, 67, 93
1, 40488, Control_c, 0, 67, 92
1, 40503, Control_c, 0, 67, 92
1, 40548, Control_c, 0, 67, 91
1, 40593, Control_c, 0, 67, 91
1, 40607, Control_c, 0, 67, 90
1, 40637, Control_c, 0, 67, 90
1, 40652, Control_c, 0, 67, 89
1, 40666, Control_c, 0, 67, 89
1, 40696, Control_c, 0, 67, 88
1, 40711, Control_c, 0, 67, 88
1, 40726, Control_c, 0, 67, 87
1, 40744, Note_on_c, 0, 73, 62
1, 40749, Note_on_c, 0, 56, 44
1, 40755, Control_c, 0, 67, 87
1, 40768, Note_on_c, 0, 59, 27
1, 40784, Control_c, 0, 67, 86
1, 40814, Control_c, 0, 64, 92
1, 40814, Control_c, 0, 67, 86
1, 40829, Control_c, 0, 64, 73
1, 40844, Control_c, 0, 64, 63
1, 40844, Control_c, 0, 67, 85
1, 40858, Control_c, 0, 64, 52
1, 40873, Control_c, 0, 64, 30
1, 40873, Control_c, 0, 67, 85
1, 40888, Control_c, 0, 64, 0
1, 40888, Control_c, 0, 67, 84
1, 40926, Control_c, 0, 67, 84
1, 40940, Control_c, 0, 67, 82
1, 40955, Control_c, 0, 67, 79
1, 40967, Note_off_c, 0, 70, 54
1, 40970, Control_c, 0, 67, 76
1, 40984, Control_c, 0, 67, 73
1, 40999, Control_c, 0, 67, 71
1, 41014, Control_c, 0, 67, 69
1, 41029, Control_c, 0, 67, 69
1, 41133, Control_c, 0, 67, 68
1, 41148, Control_c, 0, 67, 67
1, 41163, Control_c, 0, 67, 64
1, 41178, Control_c, 0, 67, 60
1, 41192, Control_c, 0, 67, 57
1, 41207, Control_c, 0, 64, 16
1, 41207, Control_c, 0, 67, 55
1, 41222, Control_c, 0, 64, 25
1, 41222, Control_c, 0, 67, 54
1, 41237, Control_c, 0, 64, 34
1, 41237, Control_c, 0, 67, 54
1, 41249, Note_on_c, 0, 71, 46
1, 41252, Control_c, 0, 64, 43
1, 41266, Control_c, 0, 64, 52
1, 41281, Control_c, 0, 64, 58
1, 41296, Control_c, 0, 64, 62
1, 41311, Control_c, 0, 64, 64
1, 41326, Control_c, 0, 64, 66
1, 41342, Control_c, 0, 64, 69
1, 41353, Note_off_c, 0, 73, 42
1, 41356, Control_c, 0, 64, 75
1, 41366, Note_off_c, 0, 56, 0
1, 41366, Note_off_c, 0, 59, 39
1, 41371, Control_c, 0, 64, 82
1, 41386, Control_c, 0, 64, 91
1, 41401, Control_c, 0, 64, 105
1, 41414, Poly_aftertouch_c, 0, 56, 0
1, 41415, Note_off_c, 0, 71, 59
1, 41415, Control_c, 0, 64, 127
1, 41475, Control_c, 0, 67, 53
1, 41505, Control_c, 0, 67, 52
1, 41520, Control_c, 0, 67, 49
1, 41535, Control_c, 0, 67, 47
1, 41549, Control_c, 0, 67, 45
1, 41564, Control_c, 0, 67, 43
1, 41579, Control_c, 0, 67, 40
1, 41594, Control_c, 0, 67, 35
1, 41608, Control_c, 0, 67, 31
1, 41623, Control_c, 0, 67, 26
1, 41638, Control_c, 0, 67, 19
1, 41660, Control_c, 0, 67, 12
1, 41675, Control_c, 0, 67, 0
1, 41952, Note_on_c, 0, 59, 56
1, 41961, Note_on_c, 0, 40, 44
1, 41968, Note_on_c, 0, 52, 41
1, 41981, Note_on_c, 0, 56, 46
1, 42000, Control_c, 0, 64, 102
1, 42015, Control_c, 0, 64, 81
1, 42030, Control_c, 0, 64, 69
1, 42045, Control_c, 0, 64, 62
1, 42060, Control_c, 0, 64, 52
1, 42075, Control_c, 0, 64, 31
1, 42089, Control_c, 0, 64, 0
1, 42165, Control_c, 0, 64, 13
1, 42179, Control_c, 0, 64, 21
1, 42194, Control_c, 0, 64, 30
1, 42209, Control_c, 0, 64, 38
1, 42224, Control_c, 0, 64, 47
1, 42238, Control_c, 0, 64, 57
1, 42253, Control_c, 0, 64, 65
1, 42268, Control_c, 0, 64, 71
1, 42283, Control_c, 0, 64, 77
1, 42298, Control_c, 0, 64, 84
1, 42313, Control_c, 0, 64, 93
1, 42327, Control_c, 0, 64, 108
1, 42332, Note_off_c, 0, 52, 35
1, 42342, Control_c, 0, 64, 127
1, 42430, Note_off_c, 0, 40, 40
1, 42633, Note_off_c, 0, 56, 57
1, 42844, Note_on_c, 0, 57, 76
1, 42854, Note_on_c, 0, 37, 52
1, 42860, Note_on_c, 0, 49, 55
1, 42867, Note_on_c, 0, 52, 57
1, 42897, Control_c, 0, 64, 87
1, 42911, Control_c, 0, 64, 72
1, 42927, Control_c, 0, 64, 61
1, 42941, Control_c, 0, 64, 49
1, 42956, Control_c, 0, 64, 24
1, 42971, Control_c, 0, 64, 0
1, 43012, Note_off_c, 0, 59, 54
1, 43120, Control_c, 0, 64, 18
1, 43134, Control_c, 0, 64, 33
1, 43156, Control_c, 0, 64, 45
1, 43171, Control_c, 0, 64, 57
1, 43186, Control_c, 0, 64, 66
1, 43201, Control_c, 0, 64, 76
1, 43216, Control_c, 0, 64, 89
1, 43231, Control_c, 0, 64, 106
1, 43246, Control_c, 0, 64, 127
1, 43275, Note_off_c, 0, 49, 61
1, 43441, Note_off_c, 0, 52, 52
1, 43559, Note_off_c, 0, 57, 59
1, 43615, Note_off_c, 0, 37, 35
1, 43823, Note_on_c, 0, 57, 77
1, 43840, Note_on_c, 0, 47, 58
1, 43844, Note_on_c, 0, 35, 53
1, 43845, Note_on_c, 0, 51, 63
1, 43872, Note_on_c, 0, 54, 39
1, 43905, Control_c, 0, 64, 79
1, 43920, Control_c, 0, 64, 64
1, 43935, Control_c, 0, 64, 50
1, 43949, Control_c, 0, 64, 16
1, 43964, Control_c, 0, 64, 0
1, 44069, Control_c, 0, 64, 11
1, 44083, Control_c, 0, 64, 31
1, 44098, Control_c, 0, 64, 43
1, 44113, Control_c, 0, 64, 55
1, 44128, Control_c, 0, 64, 63
1, 44143, Control_c, 0, 64, 70
1, 44158, Control_c, 0, 64, 76
1, 44173, Control_c, 0, 64, 87
1, 44188, Control_c, 0, 64, 108
1, 44202, Control_c, 0, 64, 127
1, 44247, Note_off_c, 0, 35, 50
1, 44347, Note_off_c, 0, 51, 60
1, 44372, Note_off_c, 0, 47, 59
1, 44423, Note_off_c, 0, 57, 58
1, 44436, Note_off_c, 0, 54, 40
1, 45360, Note_on_c, 0, 69, 70
1, 45365, Note_on_c, 0, 57, 46
1, 45369, Note_on_c, 0, 54, 49
1, 45370, Note_on_c, 0, 47, 46
1, 45374, Note_on_c, 0, 51, 45
1, 45478, Control_c, 0, 64, 96
1, 45493, Control_c, 0, 64, 81
1, 45508, Control_c, 0, 64, 71
1, 45523, Control_c, 0, 64, 64
1, 45537, Control_c, 0, 64, 57
1, 45552, Control_c, 0, 64, 43
1, 45567, Control_c, 0, 64, 29
1, 45581, Control_c, 0, 64, 26
1, 45641, Control_c, 0, 64, 26
1, 45655, Control_c, 0, 64, 28
1, 45670, Control_c, 0, 64, 32
1, 45685, Control_c, 0, 64, 38
1, 45700, Control_c, 0, 64, 45
1, 45715, Control_c, 0, 64, 52
1, 45729, Control_c, 0, 64, 56
1, 45744, Control_c, 0, 64, 58
1, 45759, Control_c, 0, 64, 60
1, 45773, Control_c, 0, 64, 62
1, 45788, Control_c, 0, 64, 65
1, 45803, Control_c, 0, 64, 68
1, 45818, Control_c, 0, 64, 70
1, 45833, Control_c, 0, 64, 72
1, 45848, Control_c, 0, 64, 76
1, 45863, Control_c, 0, 64, 81
1, 45878, Control_c, 0, 64, 87
1, 45893, Control_c, 0, 64, 93
1, 45907, Control_c, 0, 64, 98
1, 45922, Control_c, 0, 64, 104
1, 45937, Control_c, 0, 64, 119
1, 45952, Control_c, 0, 64, 127
1, 46015, Note_on_c, 0, 81, 60
1, 46624, Note_off_c, 0, 69, 63
1, 47162, Note_off_c, 0, 81, 32
1, 48045, Note_on_c, 0, 81, 56
1, 48610, Note_off_c, 0, 81, 50
1, 48772, Note_on_c, 0, 81, 38
1, 48954, Note_off_c, 0, 81, 38
1, 49181, Note_on_c, 0, 81, 73
1, 49454, Note_off_c, 0, 81, 64
1, 49584, Note_on_c, 0, 81, 51
1, 49719, Note_off_c, 0, 81, 33
1, 50153, Note_on_c, 0, 81, 61
1, 50999, Note_off_c, 0, 81, 37
1, 51214, Note_on_c, 0, 81, 32
1, 51438, Note_off_c, 0, 81, 32
1, 51619, Note_on_c, 0, 81, 72
1, 52012, Note_off_c, 0, 81, 60
1, 52133, Note_on_c, 0, 81, 35
1, 52334, Note_off_c, 0, 81, 44
1, 52436, Note_on_c, 0, 81, 83
1, 52665, Note_off_c, 0, 81, 66
1, 52746, Note_on_c, 0, 81, 56
1, 52852, Note_off_c, 0, 81, 62
1, 52962, Note_on_c, 0, 81, 97
1, 53142, Note_off_c, 0, 81, 66
1, 53203, Note_on_c, 0, 81, 70
1, 53298, Note_off_c, 0, 81, 62
1, 53386, Note_on_c, 0, 81, 96
1, 53434, Note_off_c, 0, 57, 61
1, 53458, Note_off_c, 0, 54, 56
1, 53488, Note_off_c, 0, 51, 39
1, 53531, Note_off_c, 0, 47, 43
1, 53551, Note_off_c, 0, 81, 67
1, 53601, Note_on_c, 0, 81, 76
1, 53744, Note_off_c, 0, 81, 62
1, 53869, Note_on_c, 0, 51, 52
1, 53872, Note_on_c, 0, 59, 76
1, 53881, Note_on_c, 0, 54, 62
1, 53888, Note_on_c, 0, 81, 77
1, 53892, Note_on_c, 0, 47, 58
1, 53966, Control_c, 0, 64, 78
1, 53981, Control_c, 0, 64, 62
1, 53995, Control_c, 0, 64, 45
1, 54010, Control_c, 0, 64, 0
1, 54099, Control_c, 0, 64, 21
1, 54115, Control_c, 0, 64, 35
1, 54129, Control_c, 0, 64, 48
1, 54144, Control_c, 0, 64, 59
1, 54159, Control_c, 0, 64, 66
1, 54174, Control_c, 0, 64, 73
1, 54189, Control_c, 0, 64, 79
1, 54204, Control_c, 0, 64, 93
1, 54218, Control_c, 0, 64, 127
1, 54245, Note_off_c, 0, 81, 64
1, 54298, Note_on_c, 0, 81, 62
1, 54418, Note_off_c, 0, 81, 61
1, 54540, Note_on_c, 0, 81, 81
1, 54777, Note_off_c, 0, 81, 64
1, 54842, Note_on_c, 0, 81, 57
1, 54961, Note_off_c, 0, 81, 60
1, 55068, Note_on_c, 0, 81, 79
1, 55282, Note_off_c, 0, 81, 62
1, 55353, Note_on_c, 0, 81, 52
1, 55450, Note_off_c, 0, 81, 57
1, 55616, Note_on_c, 0, 81, 69
1, 55911, Note_off_c, 0, 81, 59
1, 55996, Note_on_c, 0, 81, 37
1, 56150, Note_off_c, 0, 81, 35
1, 56412, Note_on_c, 0, 81, 61
1, 56873, Note_off_c, 0, 81, 37
1, 57053, Note_on_c, 0, 81, 40
1, 59463, Note_on_c, 0, 78, 55
1, 60609, Note_on_c, 0, 75, 55
1, 60976, Note_off_c, 0, 81, 43
1, 61131, Note_off_c, 0, 78, 50
1, 61829, Note_on_c, 0, 69, 43
1, 62195, Note_off_c, 0, 75, 56
1, 62827, Note_off_c, 0, 69, 30
1, 63218, Control_c, 0, 64, 113
1, 63233, Control_c, 0, 64, 98
1, 63247, Control_c, 0, 64, 89
1, 63262, Control_c, 0, 64, 83
1, 63276, Note_on_c, 0, 73, 54
1, 63277, Control_c, 0, 64, 77
1, 63292, Control_c, 0, 64, 72
1, 63307, Control_c, 0, 64, 67
1, 63322, Control_c, 0, 64, 62
1, 63337, Control_c, 0, 64, 57
1, 63352, Control_c, 0, 64, 48
1, 63373, Control_c, 0, 64, 37
1, 63388, Control_c, 0, 64, 31
1, 63418, Control_c, 0, 64, 33
1, 63432, Control_c, 0, 64, 35
1, 63447, Control_c, 0, 64, 36
1, 63462, Control_c, 0, 64, 37
1, 63477, Control_c, 0, 64, 39
1, 63492, Control_c, 0, 64, 43
1, 63507, Control_c, 0, 64, 47
1, 63522, Control_c, 0, 64, 52
1, 63537, Control_c, 0, 64, 56
1, 63551, Control_c, 0, 64, 58
1, 63566, Control_c, 0, 64, 60
1, 63581, Control_c, 0, 64, 61
1, 63596, Control_c, 0, 64, 61
1, 63611, Control_c, 0, 64, 62
1, 63625, Control_c, 0, 64, 63
1, 63640, Control_c, 0, 64, 64
1, 63655, Control_c, 0, 64, 64
1, 63715, Control_c, 0, 64, 65
1, 63730, Control_c, 0, 64, 65
1, 63819, Control_c, 0, 64, 65
1, 63834, Control_c, 0, 64, 64
1, 63848, Control_c, 0, 64, 62
1, 63861, Note_off_c, 0, 73, 39
1, 63863, Control_c, 0, 64, 59
1, 63873, Note_on_c, 0, 71, 50
1, 63878, Control_c, 0, 64, 52
1, 63893, Control_c, 0, 64, 41
1, 63908, Control_c, 0, 64, 29
1, 63922, Control_c, 0, 64, 17
1, 63937, Control_c, 0, 64, 15
1, 63952, Control_c, 0, 64, 16
1, 63967, Control_c, 0, 64, 16
1, 63982, Control_c, 0, 64, 18
1, 63996, Control_c, 0, 64, 22
1, 64011, Control_c, 0, 64, 26
1, 64026, Control_c, 0, 64, 31
1, 64040, Control_c, 0, 64, 39
1, 64055, Control_c, 0, 64, 46
1, 64070, Control_c, 0, 64, 53
1, 64085, Note_off_c, 0, 71, 64
1, 64085, Control_c, 0, 64, 58
1, 64100, Control_c, 0, 64, 62
1, 64122, Control_c, 0, 64, 63
1, 64137, Control_c, 0, 64, 64
1, 64152, Control_c, 0, 64, 65
1, 64167, Control_c, 0, 64, 67
1, 64182, Control_c, 0, 64, 67
1, 64226, Control_c, 0, 64, 66
1, 64241, Control_c, 0, 64, 62
1, 64255, Control_c, 0, 64, 56
1, 64270, Control_c, 0, 64, 45
1, 64285, Control_c, 0, 64, 27
1, 64300, Control_c, 0, 64, 0
1, 64306, Note_on_c, 0, 69, 56
1, 64315, Control_c, 0, 64, 10
1, 64329, Control_c, 0, 64, 16
1, 64344, Control_c, 0, 64, 19
1, 64359, Control_c, 0, 64, 22
1, 64374, Control_c, 0, 64, 28
1, 64389, Control_c, 0, 64, 35
1, 64404, Control_c, 0, 64, 44
1, 64407, Note_off_c, 0, 54, 63
1, 64419, Control_c, 0, 64, 53
1, 64434, Control_c, 0, 64, 61
1, 64436, Note_off_c, 0, 51, 41
1, 64448, Control_c, 0, 64, 65
1, 64463, Control_c, 0, 64, 67
1, 64472, Note_off_c, 0, 69, 63
1, 64478, Control_c, 0, 64, 70
1, 64493, Note_off_c, 0, 59, 56
1, 64493, Control_c, 0, 64, 75
1, 64508, Control_c, 0, 64, 82
1, 64523, Control_c, 0, 64, 89
1, 64538, Control_c, 0, 64, 94
1, 64553, Control_c, 0, 64, 101
1, 64568, Control_c, 0, 64, 110
1, 64583, Control_c, 0, 64, 127
1, 64679, Note_off_c, 0, 47, 36
1, 64745, Control_c, 0, 64, 109
1, 64760, Control_c, 0, 64, 94
1, 64768, Note_on_c, 0, 68, 60
1, 64774, Note_on_c, 0, 56, 41
1, 64775, Control_c, 0, 64, 83
1, 64789, Note_on_c, 0, 59, 42
1, 64790, Note_on_c, 0, 52, 44
1, 64790, Control_c, 0, 64, 73
1, 64805, Control_c, 0, 64, 64
1, 64819, Control_c, 0, 64, 57
1, 64834, Control_c, 0, 64, 43
1, 64849, Control_c, 0, 64, 14
1, 64871, Control_c, 0, 64, 0
1, 65065, Control_c, 0, 64, 9
1, 65079, Control_c, 0, 64, 22
1, 65094, Control_c, 0, 64, 30
1, 65109, Control_c, 0, 64, 37
1, 65124, Control_c, 0, 64, 45
1, 65139, Control_c, 0, 64, 53
1, 65153, Control_c, 0, 64, 60
1, 65168, Control_c, 0, 64, 65
1, 65183, Control_c, 0, 64, 67
1, 65197, Control_c, 0, 64, 70
1, 65212, Control_c, 0, 64, 75
1, 65227, Control_c, 0, 64, 83
1, 65242, Control_c, 0, 64, 92
1, 65257, Control_c, 0, 64, 101
1, 65271, Control_c, 0, 64, 127
1, 65450, Note_off_c, 0, 59, 40
1, 65568, Note_on_c, 0, 76, 66
1, 65576, Note_off_c, 0, 56, 41
1, 65659, Note_off_c, 0, 52, 41
1, 65934, Note_off_c, 0, 68, 35
1, 66178, Note_on_c, 0, 58, 63
1, 66191, Note_on_c, 0, 55, 54
1, 66199, Note_on_c, 0, 52, 52
1, 66201, Note_on_c, 0, 49, 52
1, 66243, Control_c, 0, 64, 100
1, 66258, Control_c, 0, 64, 71
1, 66273, Control_c, 0, 64, 60
1, 66288, Control_c, 0, 64, 42
1, 66303, Control_c, 0, 64, 0
1, 66413, Control_c, 0, 64, 28
1, 66428, Control_c, 0, 64, 41
1, 66443, Control_c, 0, 64, 56
1, 66458, Control_c, 0, 64, 65
1, 66473, Control_c, 0, 64, 72
1, 66488, Control_c, 0, 64, 77
1, 66503, Control_c, 0, 64, 84
1, 66517, Control_c, 0, 64, 103
1, 66532, Control_c, 0, 64, 127
1, 66796, Note_off_c, 0, 58, 56
1, 66859, Note_on_c, 0, 67, 71
1, 66906, Note_off_c, 0, 52, 28
1, 66914, Note_off_c, 0, 55, 39
1, 67105, Note_off_c, 0, 76, 35
1, 67377, Note_off_c, 0, 49, 38
1, 68008, Note_on_c, 0, 71, 66
1, 68023, Note_on_c, 0, 53, 42
1, 68025, Note_on_c, 0, 56, 43
1, 68026, Note_on_c, 0, 59, 37
1, 68052, Note_on_c, 0, 50, 37
1, 68133, Control_c, 0, 64, 92
1, 68148, Control_c, 0, 64, 74
1, 68162, Control_c, 0, 64, 63
1, 68177, Control_c, 0, 64, 54
1, 68192, Control_c, 0, 64, 37
1, 68207, Control_c, 0, 64, 0
1, 68315, Note_off_c, 0, 67, 38
1, 68718, Control_c, 0, 64, 16
1, 68733, Control_c, 0, 64, 26
1, 68748, Control_c, 0, 64, 31
1, 68763, Control_c, 0, 64, 35
1, 68778, Control_c, 0, 64, 39
1, 68792, Control_c, 0, 64, 44
1, 68807, Control_c, 0, 64, 50
1, 68822, Control_c, 0, 64, 55
1, 68837, Control_c, 0, 64, 57
1, 68852, Control_c, 0, 64, 58
1, 68866, Control_c, 0, 64, 59
1, 68881, Control_c, 0, 64, 61
1, 68896, Control_c, 0, 64, 63
1, 68911, Control_c, 0, 64, 65
1, 68926, Control_c, 0, 64, 66
1, 68941, Control_c, 0, 64, 66
1, 68956, Control_c, 0, 64, 67
1, 68970, Control_c, 0, 64, 69
1, 68985, Control_c, 0, 64, 73
1, 69000, Control_c, 0, 64, 76
1, 69015, Control_c, 0, 64, 78
1, 69030, Control_c, 0, 64, 80
1, 69044, Control_c, 0, 64, 82
1, 69059, Control_c, 0, 64, 88
1, 69074, Control_c, 0, 64, 100
1, 69089, Control_c, 0, 64, 127
1, 69458, Note_off_c, 0, 56, 36
1, 69631, Note_off_c, 0, 53, 34
1, 69674, Note_off_c, 0, 59, 26
1, 69751, Note_off_c, 0, 71, 22
1, 69968, Note_off_c, 0, 50, 7
1, 70383, Note_on_c, 0, 70, 38
1, 70408, Control_c, 0, 64, 101
1, 70423, Control_c, 0, 64, 88
1, 70438, Control_c, 0, 64, 79
1, 70453, Control_c, 0, 64, 71
1, 70468, Control_c, 0, 64, 66
1, 70482, Control_c, 0, 64, 60
1, 70497, Control_c, 0, 64, 52
1, 70512, Control_c, 0, 64, 37
1, 70527, Control_c, 0, 64, 0
1, 70705, Control_c, 0, 64, 15
1, 70720, Control_c, 0, 64, 22
1, 70734, Control_c, 0, 64, 28
1, 70749, Control_c, 0, 64, 33
1, 70764, Control_c, 0, 64, 38
1, 70779, Control_c, 0, 64, 43
1, 70794, Control_c, 0, 64, 49
1, 70808, Control_c, 0, 64, 54
1, 70823, Control_c, 0, 64, 58
1, 70838, Control_c, 0, 64, 60
1, 70861, Control_c, 0, 64, 61
1, 70876, Control_c, 0, 64, 63
1, 70891, Control_c, 0, 64, 65
1, 70906, Control_c, 0, 64, 68
1, 70920, Control_c, 0, 64, 72
1, 70935, Control_c, 0, 64, 75
1, 70936, Note_off_c, 0, 70, 41
1, 70950, Control_c, 0, 64, 77
1, 70965, Control_c, 0, 64, 80
1, 70980, Control_c, 0, 64, 85
1, 70995, Control_c, 0, 64, 92
1, 71010, Control_c, 0, 64, 99
1, 71025, Control_c, 0, 64, 106
1, 71039, Control_c, 0, 64, 110
1, 71054, Control_c, 0, 64, 115
1, 71069, Control_c, 0, 64, 117
1, 71084, Control_c, 0, 64, 122
1, 71099, Control_c, 0, 64, 127
1, 71187, Control_c, 0, 64, 111
1, 71202, Control_c, 0, 64, 102
1, 71203, Note_on_c, 0, 68, 45
1, 71217, Control_c, 0, 64, 92
1, 71231, Control_c, 0, 64, 83
1, 71246, Control_c, 0, 64, 76
1, 71261, Control_c, 0, 64, 70
1, 71276, Control_c, 0, 64, 65
1, 71291, Control_c, 0, 64, 61
1, 71305, Control_c, 0, 64, 52
1, 71320, Control_c, 0, 64, 39
1, 71335, Control_c, 0, 64, 22
1, 71350, Control_c, 0, 64, 16
1, 71409, Control_c, 0, 64, 16
1, 71424, Control_c, 0, 64, 19
1, 71439, Control_c, 0, 64, 23
1, 71454, Control_c, 0, 64, 26
1, 71469, Control_c, 0, 64, 29
1, 71484, Control_c, 0, 64, 32
1, 71499, Control_c, 0, 64, 36
1, 71513, Control_c, 0, 64, 40
1, 71528, Control_c, 0, 64, 46
1, 71543, Control_c, 0, 64, 51
1, 71557, Control_c, 0, 64, 55
1, 71572, Control_c, 0, 64, 57
1, 71587, Control_c, 0, 64, 59
1, 71609, Control_c, 0, 64, 61
1, 71624, Control_c, 0, 64, 63
1, 71639, Control_c, 0, 64, 65
1, 71654, Control_c, 0, 64, 67
1, 71668, Control_c, 0, 64, 69
1, 71684, Control_c, 0, 64, 70
1, 71699, Control_c, 0, 64, 73
1, 71714, Control_c, 0, 64, 76
1, 71729, Control_c, 0, 64, 79
1, 71743, Control_c, 0, 64, 81
1, 71758, Control_c, 0, 64, 84
1, 71773, Control_c, 0, 64, 87
1, 71782, Note_off_c, 0, 68, 34
1, 71788, Control_c, 0, 64, 91
1, 71803, Control_c, 0, 64, 95
1, 71818, Control_c, 0, 64, 99
1, 71832, Control_c, 0, 64, 103
1, 71847, Control_c, 0, 64, 107
1, 71862, Control_c, 0, 64, 110
1, 71877, Control_c, 0, 64, 113
1, 71922, Control_c, 0, 64, 114
1, 71936, Control_c, 0, 64, 115
1, 72055, Control_c, 0, 64, 114
1, 72069, Control_c, 0, 64, 108
1, 72084, Control_c, 0, 64, 102
1, 72099, Control_c, 0, 64, 97
1, 72114, Control_c, 0, 64, 93
1, 72124, Note_on_c, 0, 67, 45
1, 72129, Control_c, 0, 64, 87
1, 72143, Control_c, 0, 64, 82
1, 72158, Control_c, 0, 64, 76
1, 72173, Control_c, 0, 64, 72
1, 72187, Control_c, 0, 64, 67
1, 72202, Control_c, 0, 64, 63
1, 72217, Control_c, 0, 64, 57
1, 72232, Control_c, 0, 64, 49
1, 72247, Control_c, 0, 64, 40
1, 72262, Control_c, 0, 64, 31
1, 72277, Control_c, 0, 64, 25
1, 72291, Control_c, 0, 64, 19
1, 72306, Control_c, 0, 64, 12
1, 72321, Control_c, 0, 64, 0
1, 72537, Control_c, 0, 64, 8
1, 72552, Control_c, 0, 64, 15
1, 72566, Control_c, 0, 64, 19
1, 72581, Control_c, 0, 64, 21
1, 72596, Control_c, 0, 64, 24
1, 72610, Control_c, 0, 64, 27
1, 72625, Control_c, 0, 64, 31
1, 72640, Control_c, 0, 64, 35
1, 72655, Control_c, 0, 64, 38
1, 72670, Control_c, 0, 64, 41
1, 72685, Control_c, 0, 64, 44
1, 72700, Control_c, 0, 64, 47
1, 72715, Control_c, 0, 64, 50
1, 72730, Control_c, 0, 64, 53
1, 72745, Control_c, 0, 64, 56
1, 72759, Control_c, 0, 64, 57
1, 72774, Control_c, 0, 64, 58
1, 72789, Control_c, 0, 64, 59
1, 72803, Control_c, 0, 64, 60
1, 72818, Control_c, 0, 64, 60
1, 72833, Control_c, 0, 64, 61
1, 72848, Control_c, 0, 64, 62
1, 72863, Control_c, 0, 64, 63
1, 72878, Control_c, 0, 64, 65
1, 72892, Control_c, 0, 64, 66
1, 72907, Control_c, 0, 64, 68
1, 72922, Control_c, 0, 64, 70
1, 72936, Control_c, 0, 64, 72
1, 72951, Control_c, 0, 64, 74
1, 72966, Control_c, 0, 64, 75
1, 72981, Control_c, 0, 64, 77
1, 72996, Control_c, 0, 64, 79
1, 73010, Control_c, 0, 64, 81
1, 73025, Control_c, 0, 64, 82
1, 73040, Control_c, 0, 64, 83
1, 73055, Control_c, 0, 64, 84
1, 73070, Control_c, 0, 64, 87
1, 73084, Control_c, 0, 64, 91
1, 73107, Control_c, 0, 64, 95
1, 73122, Control_c, 0, 64, 98
1, 73136, Control_c, 0, 64, 99
1, 73151, Control_c, 0, 64, 100
1, 73166, Control_c, 0, 64, 104
1, 73181, Control_c, 0, 64, 113
1, 73196, Control_c, 0, 64, 127
1, 73368, Note_off_c, 0, 67, 37
1, 73523, Control_c, 0, 64, 119
1, 73537, Control_c, 0, 64, 113
1, 73552, Control_c, 0, 64, 108
1, 73567, Control_c, 0, 64, 103
1, 73582, Control_c, 0, 64, 100
1, 73597, Control_c, 0, 64, 97
1, 73612, Control_c, 0, 64, 95
1, 73626, Control_c, 0, 64, 92
1, 73641, Control_c, 0, 64, 88
1, 73656, Control_c, 0, 64, 84
1, 73671, Control_c, 0, 64, 79
1, 73678, Note_on_c, 0, 68, 33
1, 73686, Control_c, 0, 64, 72
1, 73700, Control_c, 0, 64, 66
1, 73715, Control_c, 0, 64, 61
1, 73730, Control_c, 0, 64, 54
1, 73745, Control_c, 0, 64, 44
1, 73759, Control_c, 0, 64, 36
1, 73774, Control_c, 0, 64, 34
1, 73848, Control_c, 0, 64, 35
1, 73871, Control_c, 0, 64, 37
1, 73886, Control_c, 0, 64, 39
1, 73901, Control_c, 0, 64, 43
1, 73915, Control_c, 0, 64, 47
1, 73930, Control_c, 0, 64, 51
1, 73945, Control_c, 0, 64, 56
1, 73959, Control_c, 0, 64, 61
1, 73974, Control_c, 0, 64, 64
1, 73989, Control_c, 0, 64, 65
1, 74004, Control_c, 0, 64, 66
1, 74019, Control_c, 0, 64, 69
1, 74033, Control_c, 0, 64, 72
1, 74048, Control_c, 0, 64, 76
1, 74063, Control_c, 0, 64, 80
1, 74079, Control_c, 0, 64, 82
1, 74094, Control_c, 0, 64, 84
1, 74109, Control_c, 0, 64, 86
1, 74124, Control_c, 0, 64, 88
1, 74125, Note_off_c, 0, 68, 39
1, 74138, Control_c, 0, 64, 90
1, 74153, Control_c, 0, 64, 92
1, 74168, Control_c, 0, 64, 92
1, 74301, Control_c, 0, 64, 91
1, 74316, Control_c, 0, 64, 90
1, 74330, Control_c, 0, 64, 88
1, 74345, Control_c, 0, 64, 85
1, 74360, Control_c, 0, 64, 82
1, 74375, Control_c, 0, 64, 80
1, 74388, Note_on_c, 0, 68, 40
1, 74390, Control_c, 0, 64, 78
1, 74405, Control_c, 0, 64, 75
1, 74420, Control_c, 0, 64, 72
1, 74435, Control_c, 0, 64, 68
1, 74449, Control_c, 0, 64, 65
1, 74464, Control_c, 0, 64, 62
1, 74479, Control_c, 0, 64, 59
1, 74494, Control_c, 0, 64, 56
1, 74509, Control_c, 0, 64, 52
1, 74523, Control_c, 0, 64, 48
1, 74538, Control_c, 0, 64, 44
1, 74553, Control_c, 0, 64, 40
1, 74568, Control_c, 0, 64, 37
1, 74582, Control_c, 0, 64, 34
1, 74605, Control_c, 0, 64, 30
1, 74620, Control_c, 0, 64, 24
1, 74634, Control_c, 0, 64, 17
1, 74649, Control_c, 0, 64, 0
1, 74843, Control_c, 0, 64, 9
1, 74857, Control_c, 0, 64, 17
1, 74872, Control_c, 0, 64, 23
1, 74888, Control_c, 0, 64, 28
1, 74903, Control_c, 0, 64, 33
1, 74918, Control_c, 0, 64, 38
1, 74933, Control_c, 0, 64, 43
1, 74947, Control_c, 0, 64, 49
1, 74962, Control_c, 0, 64, 54
1, 74977, Control_c, 0, 64, 58
1, 74992, Control_c, 0, 64, 61
1, 75006, Control_c, 0, 64, 62
1, 75021, Control_c, 0, 64, 63
1, 75036, Control_c, 0, 64, 65
1, 75051, Control_c, 0, 64, 68
1, 75066, Control_c, 0, 64, 70
1, 75080, Control_c, 0, 64, 72
1, 75095, Control_c, 0, 64, 74
1, 75110, Control_c, 0, 64, 76
1, 75124, Control_c, 0, 64, 80
1, 75139, Control_c, 0, 64, 83
1, 75154, Control_c, 0, 64, 86
1, 75169, Control_c, 0, 64, 89
1, 75184, Control_c, 0, 64, 93
1, 75198, Control_c, 0, 64, 97
1, 75213, Control_c, 0, 64, 103
1, 75228, Control_c, 0, 64, 110
1, 75243, Control_c, 0, 64, 117
1, 75258, Control_c, 0, 64, 122
1, 75272, Control_c, 0, 64, 127
1, 75286, Note_off_c, 0, 68, 36
1, 75413, Control_c, 0, 67, 8
1, 75428, Control_c, 0, 67, 9
1, 75443, Control_c, 0, 67, 11
1, 75458, Control_c, 0, 67, 12
1, 75473, Control_c, 0, 67, 14
1, 75487, Control_c, 0, 67, 14
1, 75502, Control_c, 0, 67, 15
1, 75517, Control_c, 0, 67, 15
1, 75602, Note_on_c, 0, 63, 34
1, 75606, Control_c, 0, 64, 114
1, 75621, Control_c, 0, 64, 101
1, 75636, Control_c, 0, 64, 94
1, 75651, Control_c, 0, 64, 88
1, 75666, Control_c, 0, 64, 83
1, 75681, Control_c, 0, 64, 76
1, 75696, Control_c, 0, 64, 67
1, 75711, Control_c, 0, 64, 61
1, 75725, Control_c, 0, 64, 54
1, 75740, Control_c, 0, 64, 45
1, 75755, Control_c, 0, 64, 38
1, 75770, Control_c, 0, 64, 33
1, 75770, Control_c, 0, 67, 16
1, 75785, Control_c, 0, 64, 27
1, 75800, Control_c, 0, 64, 21
1, 75800, Control_c, 0, 67, 16
1, 75815, Control_c, 0, 64, 16
1, 75815, Control_c, 0, 67, 18
1, 75829, Control_c, 0, 64, 14
1, 75829, Control_c, 0, 67, 21
1, 75844, Control_c, 0, 64, 14
1, 75844, Control_c, 0, 67, 26
1, 75859, Control_c, 0, 67, 32
1, 75874, Control_c, 0, 67, 38
1, 75889, Control_c, 0, 67, 46
1, 75903, Control_c, 0, 67, 56
1, 75918, Control_c, 0, 64, 14
1, 75918, Control_c, 0, 67, 66
1, 75933, Control_c, 0, 64, 16
1, 75933, Control_c, 0, 67, 77
1, 75947, Control_c, 0, 64, 17
1, 75947, Control_c, 0, 67, 89
1, 75962, Control_c, 0, 64, 19
1, 75962, Control_c, 0, 67, 101
1, 75977, Control_c, 0, 64, 20
1, 75977, Control_c, 0, 67, 112
1, 75992, Control_c, 0, 64, 22
1, 75992, Control_c, 0, 67, 122
1, 76007, Control_c, 0, 64, 24
1, 76007, Control_c, 0, 67, 127
1, 76021, Control_c, 0, 64, 27
1, 76036, Control_c, 0, 64, 30
1, 76051, Control_c, 0, 64, 33
1, 76066, Control_c, 0, 64, 36
1, 76081, Control_c, 0, 64, 41
1, 76103, Control_c, 0, 64, 46
1, 76118, Control_c, 0, 64, 51
1, 76133, Control_c, 0, 64, 56
1, 76148, Control_c, 0, 64, 59
1, 76162, Control_c, 0, 64, 61
1, 76177, Control_c, 0, 64, 62
1, 76192, Control_c, 0, 64, 64
1, 76207, Control_c, 0, 64, 66
1, 76222, Control_c, 0, 64, 70
1, 76235, Control_c, 0, 64, 72
1, 76250, Control_c, 0, 64, 73
1, 76265, Control_c, 0, 64, 75
1, 76280, Control_c, 0, 64, 78
1, 76295, Control_c, 0, 64, 81
1, 76310, Control_c, 0, 64, 85
1, 76325, Control_c, 0, 64, 88
1, 76340, Control_c, 0, 64, 90
1, 76354, Control_c, 0, 64, 91
1, 76369, Control_c, 0, 64, 93
1, 76384, Control_c, 0, 64, 97
1, 76399, Control_c, 0, 64, 103
1, 76414, Control_c, 0, 64, 108
1, 76428, Control_c, 0, 64, 110
1, 76456, Note_off_c, 0, 63, 41
1, 76458, Control_c, 0, 64, 111
1, 76474, Control_c, 0, 64, 115
1, 76489, Control_c, 0, 64, 119
1, 76503, Control_c, 0, 64, 122
1, 76637, Control_c, 0, 64, 127
1, 76924, Note_on_c, 0, 63, 34
1, 76931, Note_on_c, 0, 51, 28
1, 77094, Note_off_c, 0, 51, 42
1, 77145, Note_off_c, 0, 63, 46
1, 77347, Note_on_c, 0, 63, 37
1, 77348, Note_on_c, 0, 51, 30
1, 77469, Note_off_c, 0, 51, 34
1, 77517, Note_off_c, 0, 63, 43
1, 77716, Note_on_c, 0, 51, 37
1, 77722, Note_on_c, 0, 63, 40
1, 77795, Note_off_c, 0, 51, 48
1, 77854, Note_off_c, 0, 63, 36
1, 78063, Note_on_c, 0, 63, 47
1, 78071, Note_on_c, 0, 51, 34
1, 78213, Note_off_c, 0, 51, 40
1, 78246, Note_off_c, 0, 63, 42
1, 78415, Note_on_c, 0, 63, 37
1, 78422, Note_on_c, 0, 51, 31
1, 78515, Note_off_c, 0, 51, 36
1, 78562, Note_off_c, 0, 63, 40
1, 78768, Note_on_c, 0, 63, 41
1, 78777, Note_on_c, 0, 51, 27
1, 78857, Note_off_c, 0, 63, 53
1, 78859, Note_off_c, 0, 51, 36
1, 79118, Note_on_c, 0, 47, 42
1, 79124, Note_on_c, 0, 63, 44
1, 79128, Control_c, 0, 64, 108
1, 79143, Control_c, 0, 64, 85
1, 79147, Note_on_c, 0, 59, 37
1, 79158, Control_c, 0, 64, 82
1, 79198, Poly_aftertouch_c, 0, 51, 127
1, 79217, Control_c, 0, 64, 83
1, 79232, Control_c, 0, 64, 85
1, 79246, Control_c, 0, 64, 91
1, 79261, Control_c, 0, 64, 98
1, 79276, Control_c, 0, 64, 105
1, 79291, Control_c, 0, 64, 113
1, 79306, Control_c, 0, 64, 122
1, 79320, Control_c, 0, 64, 127
1, 79322, Poly_aftertouch_c, 0, 51, 0
1, 79325, Note_off_c, 0, 63, 48
1, 79342, Note_off_c, 0, 47, 44
1, 79360, Note_off_c, 0, 59, 40
1, 79520, Note_on_c, 0, 47, 35
1, 79526, Note_on_c, 0, 63, 45
1, 79534, Note_on_c, 0, 59, 38
1, 79536, Note_on_c, 0, 51, 32
1, 79693, Note_off_c, 0, 47, 43
1, 79693, Note_off_c, 0, 51, 45
1, 79714, Note_off_c, 0, 63, 57
1, 79745, Note_off_c, 0, 59, 41
1, 79898, Note_on_c, 0, 59, 50
1, 79904, Note_on_c, 0, 63, 49
1, 79905, Note_on_c, 0, 51, 35
1, 79909, Note_on_c, 0, 47, 39
1, 80069, Note_off_c, 0, 51, 41
1, 80086, Note_off_c, 0, 47, 43
1, 80093, Note_off_c, 0, 63, 50
1, 80105, Note_off_c, 0, 59, 57
1, 80253, Note_on_c, 0, 59, 60
1, 80267, Note_on_c, 0, 51, 42
1, 80267, Note_on_c, 0, 63, 54
1, 80274, Note_on_c, 0, 47, 36
1, 80457, Note_off_c, 0, 47, 45
1, 80461, Note_off_c, 0, 51, 35
1, 80501, Note_off_c, 0, 59, 60
1, 80528, Note_off_c, 0, 63, 36
1, 80631, Note_on_c, 0, 59, 66
1, 80645, Note_on_c, 0, 63, 58
1, 80656, Note_on_c, 0, 51, 29
1, 80665, Note_on_c, 0, 47, 38
1, 80810, Note_off_c, 0, 47, 51
1, 80829, Note_off_c, 0, 51, 39
1, 80880, Note_off_c, 0, 63, 52
1, 80882, Note_off_c, 0, 59, 55
1, 80996, Note_on_c, 0, 59, 73
1, 81004, Note_on_c, 0, 63, 66
1, 81011, Note_on_c, 0, 51, 34
1, 81016, Note_on_c, 0, 47, 42
1, 81207, Note_off_c, 0, 51, 38
1, 81215, Note_off_c, 0, 63, 37
1, 81220, Note_off_c, 0, 47, 39
1, 81283, Note_off_c, 0, 59, 52
1, 81427, Note_on_c, 0, 56, 70
1, 81436, Note_on_c, 0, 47, 46
1, 81438, Note_on_c, 0, 63, 55
1, 81439, Note_on_c, 0, 51, 45
1, 81443, Note_on_c, 0, 44, 47
1, 81456, Note_on_c, 0, 59, 48
1, 81463, Control_c, 0, 64, 95
1, 81478, Control_c, 0, 64, 67
1, 81492, Control_c, 0, 64, 53
1, 81507, Control_c, 0, 64, 30
1, 81522, Control_c, 0, 64, 0
1, 81537, Control_c, 0, 64, 10
1, 81552, Control_c, 0, 64, 16
1, 81566, Control_c, 0, 64, 23
1, 81581, Control_c, 0, 64, 31
1, 81596, Control_c, 0, 64, 40
1, 81611, Control_c, 0, 64, 50
1, 81626, Control_c, 0, 64, 61
1, 81640, Control_c, 0, 64, 65
1, 81655, Control_c, 0, 64, 68
1, 81670, Control_c, 0, 64, 69
1, 81685, Control_c, 0, 64, 74
1, 81699, Control_c, 0, 64, 84
1, 81714, Control_c, 0, 64, 98
1, 81729, Control_c, 0, 64, 106
1, 81738, Note_off_c, 0, 47, 54
1, 81744, Control_c, 0, 64, 111
1, 81759, Control_c, 0, 64, 119
1, 81761, Note_off_c, 0, 51, 42
1, 81774, Control_c, 0, 64, 127
1, 81776, Note_off_c, 0, 63, 54
1, 81786, Note_off_c, 0, 44, 35
1, 81789, Note_off_c, 0, 56, 62
1, 81795, Note_off_c, 0, 59, 50
1, 81902, Note_on_c, 0, 56, 71
1, 81920, Note_on_c, 0, 63, 54
1, 81922, Note_on_c, 0, 44, 37
1, 81929, Note_on_c, 0, 51, 37
1, 81932, Note_on_c, 0, 47, 44
1, 81943, Note_on_c, 0, 59, 47
1, 82140, Note_off_c, 0, 47, 44
1, 82144, Note_off_c, 0, 51, 36
1, 82152, Note_off_c, 0, 44, 38
1, 82168, Note_off_c, 0, 56, 62
1, 82186, Note_off_c, 0, 59, 54
1, 82199, Note_off_c, 0, 63, 37
1, 82300, Control_c, 0, 64, 108
1, 82308, Note_on_c, 0, 56, 67
1, 82314, Control_c, 0, 64, 84
1, 82326, Note_on_c, 0, 44, 35
1, 82328, Note_on_c, 0, 63, 52
1, 82329, Control_c, 0, 64, 80
1, 82331, Note_on_c, 0, 47, 42
1, 82336, Note_on_c, 0, 51, 28
1, 82339, Note_on_c, 0, 59, 49
1, 82374, Control_c, 0, 64, 81
1, 82388, Control_c, 0, 64, 82
1, 82403, Control_c, 0, 64, 85
1, 82418, Control_c, 0, 64, 89
1, 82433, Control_c, 0, 64, 96
1, 82448, Control_c, 0, 64, 106
1, 82463, Control_c, 0, 64, 117
1, 82477, Control_c, 0, 64, 127
1, 82509, Note_off_c, 0, 51, 46
1, 82512, Note_off_c, 0, 47, 36
1, 82543, Note_off_c, 0, 44, 36
1, 82552, Note_off_c, 0, 56, 60
1, 82564, Note_off_c, 0, 63, 37
1, 82587, Note_off_c, 0, 59, 35
1, 82685, Control_c, 0, 64, 98
1, 82698, Note_on_c, 0, 56, 55
1, 82700, Control_c, 0, 64, 81
1, 82704, Note_on_c, 0, 44, 32
1, 82714, Control_c, 0, 64, 76
1, 82716, Note_on_c, 0, 63, 48
1, 82726, Note_on_c, 0, 47, 34
1, 82727, Note_on_c, 0, 59, 49
1, 82749, Note_on_c, 0, 51, 13
1, 82759, Control_c, 0, 64, 77
1, 82774, Control_c, 0, 64, 79
1, 82788, Control_c, 0, 64, 82
1, 82803, Control_c, 0, 64, 85
1, 82818, Control_c, 0, 64, 89
1, 82840, Control_c, 0, 64, 93
1, 82855, Control_c, 0, 64, 97
1, 82871, Control_c, 0, 64, 101
1, 82886, Control_c, 0, 64, 105
1, 82901, Control_c, 0, 64, 107
1, 82915, Control_c, 0, 64, 108
1, 82928, Note_off_c, 0, 51, 40
1, 82932, Note_off_c, 0, 47, 41
1, 82967, Note_off_c, 0, 59, 36
1, 82981, Note_off_c, 0, 63, 36
1, 82987, Note_off_c, 0, 44, 34
1, 82992, Note_off_c, 0, 56, 36
1, 83019, Control_c, 0, 64, 111
1, 83034, Control_c, 0, 64, 127
1, 83093, Control_c, 0, 64, 109
1, 83108, Control_c, 0, 64, 91
1, 83123, Control_c, 0, 64, 80
1, 83126, Note_on_c, 0, 44, 26
1, 83127, Note_on_c, 0, 63, 38
1, 83134, Note_on_c, 0, 56, 37
1, 83138, Control_c, 0, 64, 76
1, 83142, Note_on_c, 0, 59, 26
1, 83158, Note_on_c, 0, 47, 17
1, 83175, Note_on_c, 0, 51, 13
1, 83197, Control_c, 0, 64, 76
1, 83212, Control_c, 0, 64, 78
1, 83226, Control_c, 0, 64, 79
1, 83241, Control_c, 0, 64, 81
1, 83256, Control_c, 0, 64, 84
1, 83270, Control_c, 0, 64, 85
1, 83285, Control_c, 0, 64, 86
1, 83300, Control_c, 0, 64, 87
1, 83315, Control_c, 0, 64, 87
1, 83318, Note_off_c, 0, 59, 43
1, 83329, Note_off_c, 0, 51, 40
1, 83330, Control_c, 0, 64, 88
1, 83332, Note_off_c, 0, 56, 38
1, 83336, Note_off_c, 0, 63, 46
1, 83337, Note_off_c, 0, 47, 41
1, 83351, Note_off_c, 0, 44, 37
1, 83360, Control_c, 0, 64, 88
1, 83374, Control_c, 0, 64, 90
1, 83389, Control_c, 0, 64, 92
1, 83404, Control_c, 0, 64, 95
1, 83419, Control_c, 0, 64, 96
1, 83434, Control_c, 0, 64, 97
1, 83449, Control_c, 0, 64, 98
1, 83463, Control_c, 0, 64, 99
1, 83478, Control_c, 0, 64, 101
1, 83493, Control_c, 0, 64, 103
1, 83508, Control_c, 0, 64, 106
1, 83523, Control_c, 0, 64, 108
1, 83537, Control_c, 0, 64, 110
1, 83552, Control_c, 0, 64, 113
1, 83567, Control_c, 0, 64, 117
1, 83575, Note_on_c, 0, 44, 25
1, 83580, Note_on_c, 0, 63, 39
1, 83589, Control_c, 0, 64, 122
1, 83604, Control_c, 0, 64, 127
1, 83613, Note_on_c, 0, 51, 11
1, 83619, Note_on_c, 0, 56, 28
1, 83622, Note_on_c, 0, 59, 18
1, 83623, Note_on_c, 0, 47, 11
1, 83696, Note_off_c, 0, 59, 39
1, 83724, Note_off_c, 0, 56, 33
1, 83758, Note_off_c, 0, 63, 45
1, 83797, Note_off_c, 0, 47, 24
1, 83843, Note_off_c, 0, 51, 35
1, 83869, Note_off_c, 0, 44, 30
1, 84320, Note_on_c, 0, 75, 62
1, 84344, Note_on_c, 0, 47, 26
1, 84351, Note_on_c, 0, 44, 30
1, 84373, Note_on_c, 0, 51, 13
1, 84566, Note_off_c, 0, 51, 38
1, 84596, Note_off_c, 0, 47, 37
1, 84599, Note_off_c, 0, 44, 36
1, 84955, Note_on_c, 0, 47, 22
1, 84958, Note_on_c, 0, 44, 16
1, 84984, Poly_aftertouch_c, 0, 51, 127
1, 85116, Poly_aftertouch_c, 0, 51, 0
1, 85140, Note_off_c, 0, 44, 36
1, 85145, Note_off_c, 0, 47, 38
1, 85351, Note_on_c, 0, 47, 33
1, 85358, Note_on_c, 0, 44, 22
1, 85370, Note_on_c, 0, 51, 27
1, 85500, Note_off_c, 0, 51, 32
1, 85530, Note_off_c, 0, 47, 38
1, 85539, Note_off_c, 0, 44, 36
1, 85723, Note_on_c, 0, 44, 18
1, 85726, Note_on_c, 0, 47, 30
1, 85746, Note_on_c, 0, 51, 5
1, 85849, Note_off_c, 0, 51, 35
1, 85884, Note_off_c, 0, 47, 30
1, 85886, Note_off_c, 0, 44, 38
1, 86095, Note_on_c, 0, 51, 37
1, 86107, Note_on_c, 0, 47, 33
1, 86109, Note_on_c, 0, 44, 23
1, 86205, Note_off_c, 0, 47, 37
1, 86221, Note_off_c, 0, 51, 31
1, 86241, Note_off_c, 0, 44, 30
1, 86465, Note_on_c, 0, 51, 27
1, 86478, Note_on_c, 0, 44, 16
1, 86488, Note_on_c, 0, 47, 19
1, 86563, Note_off_c, 0, 47, 41
1, 86564, Note_off_c, 0, 51, 32
1, 86619, Note_off_c, 0, 44, 32
1, 86879, Note_on_c, 0, 51, 23
1, 86881, Note_on_c, 0, 44, 18
1, 86888, Note_on_c, 0, 47, 27
1, 86900, Note_on_c, 0, 73, 60
1, 87043, Note_off_c, 0, 51, 42
1, 87059, Note_off_c, 0, 44, 39
1, 87059, Note_off_c, 0, 47, 39
1, 87241, Note_off_c, 0, 75, 56
1, 87255, Note_on_c, 0, 44, 26
1, 87262, Note_on_c, 0, 51, 32
1, 87264, Note_on_c, 0, 47, 29
1, 87387, Note_off_c, 0, 44, 0
1, 87401, Note_off_c, 0, 51, 32
1, 87405, Note_off_c, 0, 47, 28
1, 87424, Poly_aftertouch_c, 0, 44, 0
1, 87579, Note_on_c, 0, 44, 29
1, 87600, Note_on_c, 0, 47, 25
1, 87626, Poly_aftertouch_c, 0, 51, 127
1, 87664, Note_off_c, 0, 47, 53
1, 87669, Note_off_c, 0, 44, 52
1, 87673, Poly_aftertouch_c, 0, 51, 0
1, 87962, Note_on_c, 0, 51, 29
1, 87962, Note_on_c, 0, 71, 64
1, 87965, Note_on_c, 0, 44, 23
1, 87986, Note_on_c, 0, 47, 29
1, 88128, Note_off_c, 0, 73, 63
1, 88138, Note_off_c, 0, 51, 43
1, 88156, Note_off_c, 0, 47, 44
1, 88163, Note_off_c, 0, 44, 38
1, 88379, Note_on_c, 0, 70, 66
1, 88386, Note_on_c, 0, 51, 32
1, 88392, Note_on_c, 0, 44, 26
1, 88394, Control_c, 0, 64, 82
1, 88402, Note_on_c, 0, 47, 36
1, 88409, Control_c, 0, 64, 71
1, 88424, Control_c, 0, 64, 69
1, 88484, Control_c, 0, 64, 70
1, 88499, Control_c, 0, 64, 74
1, 88514, Control_c, 0, 64, 81
1, 88528, Control_c, 0, 64, 88
1, 88543, Control_c, 0, 64, 94
1, 88558, Control_c, 0, 64, 104
1, 88573, Control_c, 0, 64, 127
1, 88577, Note_off_c, 0, 71, 49
1, 88616, Note_off_c, 0, 51, 42
1, 88627, Note_off_c, 0, 47, 40
1, 88630, Note_off_c, 0, 44, 40
1, 88812, Note_on_c, 0, 71, 71
1, 88847, Note_on_c, 0, 44, 30
1, 88861, Note_on_c, 0, 51, 31
1, 88868, Note_on_c, 0, 47, 19
1, 88949, Note_off_c, 0, 70, 59
1, 88958, Note_off_c, 0, 47, 37
1, 88967, Note_off_c, 0, 51, 36
1, 89004, Note_off_c, 0, 44, 35
1, 89160, Note_on_c, 0, 68, 72
1, 89163, Note_on_c, 0, 44, 34
1, 89185, Note_on_c, 0, 51, 33
1, 89197, Note_on_c, 0, 47, 30
1, 89242, Note_off_c, 0, 47, 54
1, 89257, Note_off_c, 0, 44, 53
1, 89339, Note_off_c, 0, 51, 43
1, 89414, Note_off_c, 0, 68, 56
1, 89596, Control_c, 0, 64, 99
1, 89608, Note_on_c, 0, 68, 61
1, 89611, Control_c, 0, 64, 72
1, 89619, Note_on_c, 0, 51, 35
1, 89622, Note_on_c, 0, 46, 35
1, 89622, Note_on_c, 0, 49, 39
1, 89625, Control_c, 0, 64, 60
1, 89640, Control_c, 0, 64, 39
1, 89655, Control_c, 0, 64, 0
1, 89718, Note_off_c, 0, 71, 60
1, 89832, Control_c, 0, 64, 19
1, 89847, Control_c, 0, 64, 36
1, 89862, Control_c, 0, 64, 46
1, 89877, Control_c, 0, 64, 55
1, 89892, Control_c, 0, 64, 60
1, 89903, Note_off_c, 0, 51, 56
1, 89906, Control_c, 0, 64, 62
1, 89921, Control_c, 0, 64, 63
1, 89932, Note_off_c, 0, 49, 35
1, 89933, Note_off_c, 0, 46, 46
1, 89936, Control_c, 0, 64, 66
1, 89951, Control_c, 0, 64, 69
1, 89966, Control_c, 0, 64, 72
1, 89980, Control_c, 0, 64, 75
1, 89995, Control_c, 0, 64, 79
1, 90010, Control_c, 0, 64, 86
1, 90025, Control_c, 0, 64, 101
1, 90040, Control_c, 0, 64, 119
1, 90051, Note_on_c, 0, 46, 42
1, 90055, Control_c, 0, 64, 127
1, 90058, Note_on_c, 0, 49, 27
1, 90069, Note_on_c, 0, 51, 22
1, 90151, Note_off_c, 0, 51, 35
1, 90152, Note_off_c, 0, 49, 34
1, 90174, Note_off_c, 0, 46, 37
1, 90400, Note_on_c, 0, 51, 38
1, 90403, Note_on_c, 0, 49, 39
1, 90422, Note_on_c, 0, 46, 32
1, 90483, Note_off_c, 0, 51, 41
1, 90493, Note_off_c, 0, 49, 38
1, 90496, Note_off_c, 0, 46, 38
1, 90773, Control_c, 0, 64, 111
1, 90788, Control_c, 0, 64, 94
1, 90803, Control_c, 0, 64, 80
1, 90812, Note_on_c, 0, 67, 50
1, 90814, Note_on_c, 0, 51, 31
1, 90818, Note_on_c, 0, 46, 27
1, 90818, Control_c, 0, 64, 70
1, 90833, Control_c, 0, 64, 63
1, 90848, Control_c, 0, 64, 52
1, 90860, Poly_aftertouch_c, 0, 49, 127
1, 90863, Control_c, 0, 64, 29
1, 90868, Note_on_c, 0, 49, 3
1, 90877, Control_c, 0, 64, 0
1, 90903, Note_off_c, 0, 68, 54
1, 91012, Control_c, 0, 64, 22
1, 91026, Control_c, 0, 64, 32
1, 91041, Control_c, 0, 64, 40
1, 91056, Control_c, 0, 64, 48
1, 91077, Control_c, 0, 64, 56
1, 91080, Note_off_c, 0, 49, 44
1, 91085, Note_off_c, 0, 51, 41
1, 91091, Note_off_c, 0, 46, 41
1, 91092, Control_c, 0, 64, 61
1, 91107, Control_c, 0, 64, 63
1, 91122, Control_c, 0, 64, 64
1, 91137, Control_c, 0, 64, 66
1, 91152, Control_c, 0, 64, 68
1, 91167, Control_c, 0, 64, 71
1, 91181, Control_c, 0, 64, 76
1, 91196, Control_c, 0, 64, 80
1, 91211, Control_c, 0, 64, 82
1, 91218, Note_on_c, 0, 51, 33
1, 91226, Control_c, 0, 64, 84
1, 91227, Note_on_c, 0, 46, 38
1, 91241, Control_c, 0, 64, 86
1, 91241, Note_on_c, 0, 49, 16
1, 91256, Control_c, 0, 64, 89
1, 91271, Control_c, 0, 64, 92
1, 91285, Control_c, 0, 64, 95
1, 91291, Note_off_c, 0, 49, 47
1, 91300, Control_c, 0, 64, 97
1, 91301, Note_off_c, 0, 51, 34
1, 91304, Note_off_c, 0, 46, 51
1, 91345, Control_c, 0, 64, 97
1, 91477, Control_c, 0, 64, 98
1, 91492, Control_c, 0, 64, 100
1, 91507, Control_c, 0, 64, 103
1, 91522, Control_c, 0, 64, 104
1, 91551, Control_c, 0, 64, 95
1, 91566, Control_c, 0, 64, 78
1, 91578, Note_on_c, 0, 51, 30
1, 91581, Control_c, 0, 64, 66
1, 91585, Note_on_c, 0, 46, 31
1, 91596, Note_on_c, 0, 49, 27
1, 91596, Control_c, 0, 64, 61
1, 91611, Control_c, 0, 64, 59
1, 91626, Control_c, 0, 64, 60
1, 91641, Control_c, 0, 64, 60
1, 91656, Control_c, 0, 64, 61
1, 91671, Control_c, 0, 64, 62
1, 91686, Control_c, 0, 64, 63
1, 91700, Control_c, 0, 64, 65
1, 91715, Control_c, 0, 64, 67
1, 91730, Control_c, 0, 64, 70
1, 91745, Control_c, 0, 64, 72
1, 91757, Note_off_c, 0, 51, 40
1, 91760, Control_c, 0, 64, 75
1, 91769, Note_off_c, 0, 46, 45
1, 91774, Note_off_c, 0, 49, 43
1, 91775, Control_c, 0, 64, 81
1, 91790, Control_c, 0, 64, 92
1, 91804, Control_c, 0, 64, 103
1, 91826, Control_c, 0, 64, 107
1, 91856, Control_c, 0, 64, 97
1, 91871, Control_c, 0, 64, 89
1, 91886, Control_c, 0, 64, 86
1, 91935, Note_on_c, 0, 51, 21
1, 91937, Note_on_c, 0, 49, 23
1, 91956, Note_on_c, 0, 46, 22
1, 91975, Control_c, 0, 64, 87
1, 91990, Control_c, 0, 64, 90
1, 92005, Control_c, 0, 64, 93
1, 92020, Control_c, 0, 64, 95
1, 92034, Control_c, 0, 64, 96
1, 92049, Control_c, 0, 64, 100
1, 92064, Control_c, 0, 64, 105
1, 92079, Control_c, 0, 64, 108
1, 92087, Note_off_c, 0, 51, 41
1, 92094, Control_c, 0, 64, 110
1, 92100, Note_off_c, 0, 49, 41
1, 92103, Note_off_c, 0, 46, 42
1, 92109, Control_c, 0, 64, 111
1, 92123, Control_c, 0, 64, 115
1, 92138, Control_c, 0, 64, 127
1, 92339, Note_on_c, 0, 51, 32
1, 92345, Note_on_c, 0, 46, 31
1, 92353, Note_on_c, 0, 49, 28
1, 92493, Note_off_c, 0, 51, 40
1, 92496, Note_off_c, 0, 49, 37
1, 92517, Note_off_c, 0, 46, 42
1, 92818, Note_on_c, 0, 46, 36
1, 92864, Note_on_c, 0, 76, 67
1, 92871, Poly_aftertouch_c, 0, 49, 127
1, 92900, Poly_aftertouch_c, 0, 51, 127
1, 93016, Poly_aftertouch_c, 0, 51, 0
1, 93020, Poly_aftertouch_c, 0, 49, 0
1, 93036, Note_off_c, 0, 46, 41
1, 93229, Note_on_c, 0, 49, 42
1, 93229, Note_on_c, 0, 51, 38
1, 93251, Note_on_c, 0, 46, 35
1, 93337, Note_off_c, 0, 67, 58
1, 93433, Note_off_c, 0, 46, 42
1, 93434, Note_off_c, 0, 49, 42
1, 93438, Note_off_c, 0, 51, 40
1, 93578, Note_on_c, 0, 51, 48
1, 93582, Note_on_c, 0, 49, 47
1, 93626, Note_on_c, 0, 46, 29
1, 93738, Note_off_c, 0, 46, 42
1, 93757, Note_off_c, 0, 49, 31
1, 93790, Note_off_c, 0, 51, 28
1, 93962, Control_c, 0, 64, 107
1, 93974, Note_on_c, 0, 75, 65
1, 93977, Control_c, 0, 64, 74
1, 93984, Note_on_c, 0, 49, 34
1, 93990, Note_on_c, 0, 55, 41
1, 93991, Control_c, 0, 64, 62
1, 93995, Note_on_c, 0, 46, 40
1, 93998, Note_on_c, 0, 51, 28
1, 94006, Control_c, 0, 64, 52
1, 94021, Control_c, 0, 64, 42
1, 94036, Control_c, 0, 64, 40
1, 94052, Control_c, 0, 64, 45
1, 94074, Control_c, 0, 64, 50
1, 94089, Control_c, 0, 64, 57
1, 94091, Note_off_c, 0, 55, 0
1, 94091, Note_on_c, 0, 55, 3
1, 94103, Control_c, 0, 64, 63
1, 94118, Control_c, 0, 64, 69
1, 94133, Control_c, 0, 64, 76
1, 94148, Control_c, 0, 64, 90
1, 94163, Control_c, 0, 64, 104
1, 94174, Note_off_c, 0, 55, 48
1, 94177, Control_c, 0, 64, 127
1, 94196, Note_off_c, 0, 49, 41
1, 94237, Note_off_c, 0, 51, 42
1, 94340, Note_off_c, 0, 75, 59
1, 94342, Note_off_c, 0, 46, 43
1, 94499, Note_on_c, 0, 47, 44
1, 94509, Note_on_c, 0, 56, 28
1, 94511, Note_on_c, 0, 75, 74
1, 94512, Note_on_c, 0, 51, 29
1, 94517, Control_c, 0, 64, 108
1, 94532, Control_c, 0, 64, 74
1, 94547, Control_c, 0, 64, 60
1, 94562, Control_c, 0, 64, 41
1, 94576, Control_c, 0, 64, 0
1, 94657, Note_off_c, 0, 76, 60
1, 94739, Control_c, 0, 64, 17
1, 94754, Control_c, 0, 64, 35
1, 94768, Control_c, 0, 64, 48
1, 94783, Control_c, 0, 64, 59
1, 94798, Control_c, 0, 64, 64
1, 94820, Control_c, 0, 64, 68
1, 94835, Control_c, 0, 64, 73
1, 94851, Control_c, 0, 64, 85
1, 94866, Control_c, 0, 64, 104
1, 94872, Note_off_c, 0, 56, 45
1, 94878, Note_off_c, 0, 51, 41
1, 94881, Control_c, 0, 64, 127
1, 94893, Note_off_c, 0, 47, 40
1, 95011, Note_on_c, 0, 51, 32
1, 95011, Note_on_c, 0, 56, 27
1, 95013, Note_on_c, 0, 47, 40
1, 95150, Note_off_c, 0, 56, 41
1, 95155, Note_off_c, 0, 51, 35
1, 95167, Note_off_c, 0, 47, 41
1, 95454, Note_on_c, 0, 47, 38
1, 95474, Note_on_c, 0, 80, 78
1, 95519, Poly_aftertouch_c, 0, 56, 127
1, 95537, Poly_aftertouch_c, 0, 51, 127
1, 95578, Note_off_c, 0, 47, 60
1, 95590, Poly_aftertouch_c, 0, 56, 0
1, 95593, Poly_aftertouch_c, 0, 51, 0
1, 95861, Note_on_c, 0, 48, 50
1, 95867, Control_c, 0, 64, 85
1, 95867, Note_on_c, 0, 56, 48
1, 95877, Note_on_c, 0, 51, 40
1, 95882, Control_c, 0, 64, 62
1, 95897, Control_c, 0, 64, 42
1, 95912, Control_c, 0, 64, 0
1, 95986, Control_c, 0, 64, 18
1, 95987, Note_off_c, 0, 75, 35
1, 96000, Control_c, 0, 64, 34
1, 96015, Control_c, 0, 64, 48
1, 96030, Control_c, 0, 64, 62
1, 96045, Control_c, 0, 64, 82
1, 96060, Control_c, 0, 64, 99
1, 96074, Control_c, 0, 64, 105
1, 96079, Note_off_c, 0, 56, 61
1, 96084, Note_off_c, 0, 48, 58
1, 96089, Control_c, 0, 64, 127
1, 96094, Note_off_c, 0, 51, 40
1, 96227, Note_on_c, 0, 51, 33
1, 96228, Note_on_c, 0, 56, 39
1, 96236, Note_on_c, 0, 48, 47
1, 96298, Note_off_c, 0, 51, 40
1, 96365, Note_off_c, 0, 48, 36
1, 96374, Note_off_c, 0, 56, 27
1, 96583, Note_on_c, 0, 78, 78
1, 96608, Note_on_c, 0, 48, 36
1, 96619, Note_on_c, 0, 56, 34
1, 96619, Note_on_c, 0, 51, 32
1, 96664, Note_off_c, 0, 48, 59
1, 96666, Note_off_c, 0, 51, 47
1, 96703, Note_off_c, 0, 56, 36
1, 96736, Note_off_c, 0, 80, 37
1, 96964, Note_on_c, 0, 56, 52
1, 96971, Control_c, 0, 64, 81
1, 96972, Note_on_c, 0, 52, 50
1, 96976, Note_on_c, 0, 49, 46
1, 96986, Control_c, 0, 64, 60
1, 97001, Control_c, 0, 64, 25
1, 97015, Control_c, 0, 64, 0
1, 97097, Control_c, 0, 64, 12
1, 97112, Control_c, 0, 64, 32
1, 97127, Control_c, 0, 64, 45
1, 97142, Control_c, 0, 64, 58
1, 97156, Control_c, 0, 64, 70
1, 97171, Control_c, 0, 64, 88
1, 97186, Control_c, 0, 64, 100
1, 97200, Control_c, 0, 64, 127
1, 97210, Note_off_c, 0, 52, 58
1, 97215, Note_off_c, 0, 56, 59
1, 97218, Note_off_c, 0, 49, 54
1, 97357, Note_on_c, 0, 56, 49
1, 97366, Note_on_c, 0, 52, 46
1, 97372, Note_on_c, 0, 49, 44
1, 97484, Note_off_c, 0, 49, 54
1, 97487, Note_off_c, 0, 56, 53
1, 97507, Note_off_c, 0, 52, 34
1, 97713, Note_on_c, 0, 76, 71
1, 97731, Note_on_c, 0, 49, 44
1, 97740, Note_on_c, 0, 56, 34
1, 97758, Note_on_c, 0, 52, 23
1, 97792, Note_off_c, 0, 52, 54
1, 97797, Note_off_c, 0, 49, 58
1, 97802, Note_off_c, 0, 56, 60
1, 98106, Note_on_c, 0, 56, 42
1, 98116, Note_on_c, 0, 61, 33
1, 98116, Note_on_c, 0, 75, 67
1, 98126, Note_on_c, 0, 52, 41
1, 98142, Control_c, 0, 64, 101
1, 98157, Control_c, 0, 64, 65
1, 98172, Control_c, 0, 64, 47
1, 98187, Control_c, 0, 64, 0
1, 98246, Note_off_c, 0, 78, 63
1, 98258, Note_off_c, 0, 76, 62
1, 98321, Control_c, 0, 64, 28
1, 98335, Control_c, 0, 64, 41
1, 98350, Control_c, 0, 64, 54
1, 98365, Control_c, 0, 64, 63
1, 98380, Control_c, 0, 64, 71
1, 98389, Note_off_c, 0, 56, 36
1, 98394, Control_c, 0, 64, 79
1, 98398, Note_off_c, 0, 52, 43
1, 98402, Note_off_c, 0, 61, 42
1, 98409, Control_c, 0, 64, 87
1, 98424, Control_c, 0, 64, 100
1, 98439, Control_c, 0, 64, 127
1, 98506, Note_on_c, 0, 61, 49
1, 98528, Note_on_c, 0, 56, 39
1, 98534, Note_on_c, 0, 52, 45
1, 98658, Note_off_c, 0, 61, 55
1, 98678, Note_off_c, 0, 56, 47
1, 98701, Note_off_c, 0, 52, 41
1, 98945, Note_on_c, 0, 73, 66
1, 98985, Note_on_c, 0, 52, 23
1, 99000, Poly_aftertouch_c, 0, 56, 127
1, 99009, Poly_aftertouch_c, 0, 61, 127
1, 99176, Poly_aftertouch_c, 0, 56, 0
1, 99219, Poly_aftertouch_c, 0, 61, 0
1, 99248, Note_off_c, 0, 75, 36
1, 99287, Note_off_c, 0, 52, 40
1, 99638, Note_on_c, 0, 71, 48
1, 99647, Note_on_c, 0, 56, 25
1, 99650, Note_on_c, 0, 59, 26
1, 99669, Note_on_c, 0, 51, 17
1, 99671, Control_c, 0, 64, 117
1, 99686, Control_c, 0, 64, 75
1, 99701, Control_c, 0, 64, 63
1, 99715, Control_c, 0, 64, 48
1, 99730, Control_c, 0, 64, 0
1, 99742, Note_off_c, 0, 73, 58
1, 99893, Control_c, 0, 64, 11
1, 99908, Control_c, 0, 64, 26
1, 99922, Control_c, 0, 64, 36
1, 99937, Control_c, 0, 64, 47
1, 99952, Control_c, 0, 64, 58
1, 99966, Control_c, 0, 64, 65
1, 99981, Control_c, 0, 64, 69
1, 99984, Note_off_c, 0, 56, 41
1, 99996, Control_c, 0, 64, 72
1, 100002, Note_off_c, 0, 59, 40
1, 100011, Control_c, 0, 64, 78
1, 100014, Note_off_c, 0, 51, 39
1, 100026, Control_c, 0, 64, 86
1, 100041, Control_c, 0, 64, 102
1, 100056, Control_c, 0, 64, 127
1, 100185, Note_on_c, 0, 51, 28
1, 100192, Note_on_c, 0, 56, 21
1, 100197, Note_on_c, 0, 59, 27
1, 100285, Note_off_c, 0, 56, 35
1, 100352, Note_off_c, 0, 59, 42
1, 100358, Note_off_c, 0, 51, 40
1, 100541, Note_on_c, 0, 51, 14
1, 100551, Note_on_c, 0, 59, 15
1, 100556, Note_on_c, 0, 56, 22
1, 100616, Note_off_c, 0, 56, 42
1, 100705, Note_off_c, 0, 51, 40
1, 100706, Note_off_c, 0, 59, 38
1, 100896, Note_on_c, 0, 59, 17
1, 100899, Note_on_c, 0, 51, 20
1, 100904, Note_on_c, 0, 56, 33
1, 101006, Note_off_c, 0, 56, 30
1, 101050, Note_off_c, 0, 51, 43
1, 101052, Note_off_c, 0, 59, 39
1, 101269, Note_on_c, 0, 73, 49
1, 101289, Note_on_c, 0, 56, 32
1, 101299, Note_on_c, 0, 59, 21
1, 101319, Note_on_c, 0, 51, 7
1, 101452, Note_off_c, 0, 56, 40
1, 101453, Note_off_c, 0, 71, 55
1, 101480, Note_off_c, 0, 51, 40
1, 101481, Note_off_c, 0, 59, 39
1, 101698, Note_on_c, 0, 75, 46
1, 101704, Note_on_c, 0, 56, 34
1, 101737, Note_on_c, 0, 59, 23
1, 101740, Note_on_c, 0, 51, 14
1, 101779, Note_off_c, 0, 73, 43
1, 101884, Note_off_c, 0, 56, 43
1, 101886, Note_off_c, 0, 59, 39
1, 101942, Note_off_c, 0, 51, 40
1, 102008, Note_on_c, 0, 73, 48
1, 102075, Note_off_c, 0, 75, 32
1, 102139, Note_on_c, 0, 71, 50
1, 102156, Note_off_c, 0, 73, 35
1, 102339, Control_c, 0, 64, 92
1, 102342, Note_on_c, 0, 58, 34
1, 102351, Note_on_c, 0, 70, 46
1, 102354, Control_c, 0, 64, 69
1, 102362, Note_off_c, 0, 71, 39
1, 102369, Control_c, 0, 64, 53
1, 102372, Note_on_c, 0, 51, 30
1, 102374, Note_on_c, 0, 55, 24
1, 102384, Control_c, 0, 64, 26
1, 102399, Control_c, 0, 64, 0
1, 102452, Note_off_c, 0, 55, 0
1, 102488, Control_c, 0, 64, 16
1, 102489, Poly_aftertouch_c, 0, 55, 127
1, 102503, Control_c, 0, 64, 31
1, 102517, Control_c, 0, 64, 42
1, 102532, Control_c, 0, 64, 53
1, 102547, Control_c, 0, 64, 62
1, 102561, Control_c, 0, 64, 67
1, 102576, Control_c, 0, 64, 71
1, 102591, Control_c, 0, 64, 76
1, 102606, Control_c, 0, 64, 85
1, 102621, Control_c, 0, 64, 95
1, 102635, Control_c, 0, 64, 109
1, 102650, Control_c, 0, 64, 127
1, 102655, Poly_aftertouch_c, 0, 55, 0
1, 102659, Note_off_c, 0, 58, 41
1, 102674, Note_off_c, 0, 51, 42
1, 102825, Note_on_c, 0, 55, 25
1, 102827, Note_on_c, 0, 58, 29
1, 102832, Note_on_c, 0, 51, 27
1, 102965, Note_off_c, 0, 51, 0
1, 102983, Note_off_c, 0, 55, 43
1, 102994, Note_off_c, 0, 58, 40
1, 103000, Poly_aftertouch_c, 0, 51, 0
1, 103177, Note_on_c, 0, 58, 49
1, 103195, Note_on_c, 0, 51, 38
1, 103198, Note_on_c, 0, 55, 35
1, 103329, Note_off_c, 0, 51, 54
1, 103335, Note_off_c, 0, 55, 32
1, 103338, Note_off_c, 0, 58, 35
1, 103532, Control_c, 0, 64, 93
1, 103547, Control_c, 0, 64, 67
1, 103552, Note_on_c, 0, 49, 54
1, 103557, Note_on_c, 0, 58, 49
1, 103561, Note_on_c, 0, 55, 48
1, 103562, Control_c, 0, 64, 54
1, 103577, Control_c, 0, 64, 40
1, 103591, Control_c, 0, 64, 38
1, 103598, Note_off_c, 0, 58, 0
1, 103598, Note_on_c, 0, 58, 19
1, 103601, Note_on_c, 0, 51, 19
1, 103606, Control_c, 0, 64, 42
1, 103621, Control_c, 0, 64, 46
1, 103637, Control_c, 0, 64, 53
1, 103652, Control_c, 0, 64, 59
1, 103664, Note_off_c, 0, 51, 0
1, 103667, Control_c, 0, 64, 65
1, 103681, Control_c, 0, 64, 75
1, 103696, Control_c, 0, 64, 88
1, 103701, Poly_aftertouch_c, 0, 51, 127
1, 103711, Control_c, 0, 64, 100
1, 103713, Note_off_c, 0, 55, 63
1, 103726, Control_c, 0, 64, 127
1, 103740, Note_off_c, 0, 49, 63
1, 103744, Note_off_c, 0, 58, 53
1, 103748, Poly_aftertouch_c, 0, 51, 0
1, 103886, Note_off_c, 0, 70, 33
1, 103962, Note_on_c, 0, 51, 40
1, 103971, Note_on_c, 0, 71, 63
1, 103977, Note_on_c, 0, 47, 46
1, 103985, Control_c, 0, 64, 80
1, 103987, Note_on_c, 0, 56, 42
1, 104000, Control_c, 0, 64, 63
1, 104014, Control_c, 0, 64, 49
1, 104029, Control_c, 0, 64, 30
1, 104044, Control_c, 0, 64, 22
1, 104059, Control_c, 0, 64, 25
1, 104069, Note_off_c, 0, 56, 0
1, 104069, Note_on_c, 0, 56, 4
1, 104074, Control_c, 0, 64, 30
1, 104089, Control_c, 0, 64, 37
1, 104104, Control_c, 0, 64, 44
1, 104119, Control_c, 0, 64, 51
1, 104133, Control_c, 0, 64, 59
1, 104138, Note_off_c, 0, 51, 63
1, 104148, Control_c, 0, 64, 65
1, 104163, Control_c, 0, 64, 72
1, 104178, Control_c, 0, 64, 81
1, 104193, Control_c, 0, 64, 86
1, 104207, Control_c, 0, 64, 93
1, 104222, Control_c, 0, 64, 111
1, 104237, Control_c, 0, 64, 127
1, 104256, Note_off_c, 0, 47, 32
1, 104269, Note_off_c, 0, 56, 41
1, 104423, Note_on_c, 0, 73, 56
1, 104426, Note_on_c, 0, 51, 30
1, 104430, Control_c, 0, 64, 108
1, 104445, Control_c, 0, 64, 78
1, 104448, Note_on_c, 0, 55, 29
1, 104454, Note_on_c, 0, 46, 36
1, 104460, Control_c, 0, 64, 60
1, 104475, Control_c, 0, 64, 40
1, 104490, Control_c, 0, 64, 0
1, 104499, Note_off_c, 0, 71, 48
1, 104586, Control_c, 0, 64, 21
1, 104601, Control_c, 0, 64, 34
1, 104616, Control_c, 0, 64, 45
1, 104631, Control_c, 0, 64, 57
1, 104645, Control_c, 0, 64, 65
1, 104660, Control_c, 0, 64, 73
1, 104675, Control_c, 0, 64, 76
1, 104690, Control_c, 0, 64, 81
1, 104705, Control_c, 0, 64, 90
1, 104709, Note_off_c, 0, 55, 49
1, 104719, Control_c, 0, 64, 102
1, 104734, Control_c, 0, 64, 127
1, 104780, Note_off_c, 0, 51, 42
1, 104785, Note_off_c, 0, 46, 45
1, 104882, Note_off_c, 0, 73, 34
1, 105043, Note_on_c, 0, 51, 32
1, 105045, Control_c, 0, 64, 117
1, 105058, Note_on_c, 0, 71, 51
1, 105060, Control_c, 0, 64, 85
1, 105065, Note_on_c, 0, 56, 33
1, 105075, Control_c, 0, 64, 71
1, 105076, Note_on_c, 0, 44, 31
1, 105090, Control_c, 0, 64, 62
1, 105104, Control_c, 0, 64, 49
1, 105119, Control_c, 0, 64, 20
1, 105134, Control_c, 0, 64, 0
1, 105283, Control_c, 0, 64, 15
1, 105298, Control_c, 0, 64, 30
1, 105320, Control_c, 0, 64, 44
1, 105335, Control_c, 0, 64, 55
1, 105350, Control_c, 0, 64, 63
1, 105365, Control_c, 0, 64, 69
1, 105373, Note_off_c, 0, 56, 56
1, 105380, Control_c, 0, 64, 75
1, 105394, Control_c, 0, 64, 83
1, 105409, Control_c, 0, 64, 96
1, 105424, Control_c, 0, 64, 127
1, 105431, Note_off_c, 0, 44, 38
1, 105445, Note_off_c, 0, 51, 42
1, 105579, Note_on_c, 0, 51, 27
1, 105582, Note_on_c, 0, 44, 27
1, 105613, Note_on_c, 0, 47, 31
1, 105693, Note_off_c, 0, 51, 44
1, 105695, Note_off_c, 0, 47, 40
1, 105731, Note_off_c, 0, 44, 42
1, 105937, Note_on_c, 0, 51, 34
1, 105964, Note_on_c, 0, 44, 20
1, 105964, Note_on_c, 0, 47, 28
1, 106016, Note_off_c, 0, 47, 45
1, 106035, Note_off_c, 0, 51, 38
1, 106063, Note_off_c, 0, 44, 35
1, 106310, Note_on_c, 0, 51, 35
1, 106315, Note_on_c, 0, 44, 27
1, 106324, Note_on_c, 0, 47, 30
1, 106413, Note_off_c, 0, 47, 37
1, 106444, Note_off_c, 0, 44, 0
1, 106462, Note_off_c, 0, 51, 32
1, 106484, Poly_aftertouch_c, 0, 44, 0
1, 106660, Note_on_c, 0, 51, 37
1, 106661, Note_on_c, 0, 44, 22
1, 106685, Note_on_c, 0, 47, 23
1, 106762, Note_off_c, 0, 47, 38
1, 106828, Note_off_c, 0, 51, 41
1, 106843, Note_off_c, 0, 44, 38
1, 106999, Note_on_c, 0, 44, 30
1, 107010, Note_on_c, 0, 51, 37
1, 107025, Note_on_c, 0, 47, 33
1, 107077, Note_off_c, 0, 47, 47
1, 107125, Note_off_c, 0, 44, 35
1, 107165, Note_off_c, 0, 51, 28
1, 107409, Note_on_c, 0, 42, 38
1, 107413, Note_on_c, 0, 52, 38
1, 107423, Note_on_c, 0, 73, 60
1, 107424, Note_on_c, 0, 47, 34
1, 107454, Control_c, 0, 64, 99
1, 107469, Control_c, 0, 64, 70
1, 107483, Control_c, 0, 64, 56
1, 107498, Control_c, 0, 64, 24
1, 107513, Control_c, 0, 64, 0
1, 107594, Control_c, 0, 64, 15
1, 107609, Control_c, 0, 64, 34
1, 107625, Control_c, 0, 64, 51
1, 107640, Control_c, 0, 64, 64
1, 107654, Control_c, 0, 64, 80
1, 107669, Note_off_c, 0, 71, 38
1, 107669, Control_c, 0, 64, 98
1, 107684, Control_c, 0, 64, 113
1, 107699, Control_c, 0, 64, 127
1, 107704, Note_off_c, 0, 52, 54
1, 107725, Note_off_c, 0, 47, 42
1, 107729, Note_off_c, 0, 42, 36
1, 107847, Note_on_c, 0, 42, 43
1, 107857, Note_on_c, 0, 47, 37
1, 107858, Note_on_c, 0, 52, 36
1, 107986, Note_off_c, 0, 47, 39
1, 107994, Note_off_c, 0, 42, 33
1, 108002, Note_off_c, 0, 52, 44
1, 108179, Note_on_c, 0, 52, 46
1, 108187, Note_on_c, 0, 47, 39
1, 108193, Note_on_c, 0, 42, 32
1, 108308, Note_off_c, 0, 47, 37
1, 108328, Note_off_c, 0, 52, 35
1, 108336, Note_off_c, 0, 42, 31
1, 108524, Note_on_c, 0, 46, 48
1, 108533, Note_on_c, 0, 52, 51
1, 108536, Control_c, 0, 64, 72
1, 108547, Note_on_c, 0, 42, 39
1, 108551, Control_c, 0, 64, 58
1, 108566, Control_c, 0, 64, 30
1, 108581, Control_c, 0, 64, 0
1, 108641, Control_c, 0, 64, 13
1, 108656, Control_c, 0, 64, 27
1, 108670, Control_c, 0, 64, 41
1, 108685, Control_c, 0, 64, 55
1, 108700, Control_c, 0, 64, 67
1, 108715, Control_c, 0, 64, 85
1, 108729, Control_c, 0, 64, 100
1, 108730, Note_off_c, 0, 46, 55
1, 108739, Note_off_c, 0, 52, 63
1, 108744, Control_c, 0, 64, 108
1, 108753, Note_off_c, 0, 42, 39
1, 108759, Control_c, 0, 64, 127
1, 108870, Note_on_c, 0, 46, 48
1, 108877, Note_on_c, 0, 52, 48
1, 108882, Note_on_c, 0, 42, 37
1, 108976, Note_off_c, 0, 46, 53
1, 109026, Note_off_c, 0, 52, 38
1, 109050, Note_off_c, 0, 42, 30
1, 109242, Note_on_c, 0, 42, 34
1, 109242, Note_on_c, 0, 52, 46
1, 109243, Note_on_c, 0, 46, 39
1, 109352, Note_off_c, 0, 52, 61
1, 109411, Note_off_c, 0, 42, 35
1, 109465, Note_off_c, 0, 46, 33
1, 109659, Note_on_c, 0, 42, 35
1, 109660, Note_on_c, 0, 47, 39
1, 109666, Note_on_c, 0, 51, 34
1, 109669, Note_on_c, 0, 75, 72
1, 109700, Control_c, 0, 64, 73
1, 109715, Control_c, 0, 64, 54
1, 109730, Control_c, 0, 64, 17
1, 109744, Control_c, 0, 64, 0
1, 109841, Control_c, 0, 64, 20
1, 109856, Control_c, 0, 64, 38
1, 109864, Note_off_c, 0, 73, 58
1, 109870, Control_c, 0, 64, 53
1, 109885, Control_c, 0, 64, 65
1, 109900, Control_c, 0, 64, 81
1, 109915, Control_c, 0, 64, 94
1, 109930, Control_c, 0, 64, 119
1, 109945, Control_c, 0, 64, 127
1, 109963, Note_off_c, 0, 51, 41
1, 109970, Note_off_c, 0, 42, 39
1, 109976, Note_off_c, 0, 47, 41
1, 110071, Note_on_c, 0, 51, 53
1, 110092, Note_on_c, 0, 47, 46
1, 110095, Note_on_c, 0, 42, 42
1, 110140, Note_off_c, 0, 47, 57
1, 110170, Note_off_c, 0, 42, 48
1, 110185, Note_off_c, 0, 51, 51
1, 110392, Note_on_c, 0, 51, 57
1, 110405, Note_on_c, 0, 47, 52
1, 110416, Note_on_c, 0, 42, 46
1, 110438, Note_off_c, 0, 47, 64
1, 110452, Note_off_c, 0, 42, 62
1, 110452, Note_off_c, 0, 51, 64
1, 110733, Note_on_c, 0, 59, 56
1, 110738, Control_c, 0, 64, 72
1, 110739, Note_on_c, 0, 54, 56
1, 110751, Note_on_c, 0, 47, 47
1, 110753, Control_c, 0, 64, 64
1, 110767, Control_c, 0, 64, 63
1, 110797, Control_c, 0, 64, 64
1, 110812, Control_c, 0, 64, 67
1, 110828, Control_c, 0, 64, 77
1, 110843, Control_c, 0, 64, 127
1, 110872, Control_c, 0, 67, 124
1, 110887, Control_c, 0, 67, 119
1, 110902, Control_c, 0, 67, 116
1, 110917, Control_c, 0, 67, 114
1, 110946, Control_c, 0, 67, 114
1, 110952, Note_off_c, 0, 54, 61
1, 110962, Note_off_c, 0, 47, 59
1, 110962, Note_off_c, 0, 59, 61
1, 110991, Control_c, 0, 67, 115
1, 111005, Control_c, 0, 67, 116
1, 111020, Control_c, 0, 67, 117
1, 111035, Control_c, 0, 67, 117
1, 111050, Control_c, 0, 67, 118
1, 111065, Control_c, 0, 67, 118
1, 111088, Note_on_c, 0, 59, 54
1, 111088, Note_on_c, 0, 47, 59
1, 111088, Note_on_c, 0, 54, 56
1, 111094, Control_c, 0, 67, 119
1, 111109, Control_c, 0, 67, 119
1, 111198, Control_c, 0, 67, 118
1, 111213, Control_c, 0, 67, 117
1, 111228, Control_c, 0, 67, 116
1, 111233, Note_off_c, 0, 47, 55
1, 111234, Note_off_c, 0, 54, 51
1, 111240, Note_off_c, 0, 59, 52
1, 111243, Control_c, 0, 67, 116
1, 111258, Control_c, 0, 67, 115
1, 111272, Control_c, 0, 67, 114
1, 111309, Control_c, 0, 67, 113
1, 111323, Control_c, 0, 67, 112
1, 111338, Control_c, 0, 67, 108
1, 111353, Control_c, 0, 67, 106
1, 111368, Control_c, 0, 67, 104
1, 111383, Control_c, 0, 67, 101
1, 111398, Control_c, 0, 67, 93
1, 111413, Control_c, 0, 67, 84
1, 111413, Note_on_c, 0, 54, 57
1, 111425, Note_on_c, 0, 59, 54
1, 111427, Control_c, 0, 67, 78
1, 111428, Note_on_c, 0, 47, 52
1, 111442, Control_c, 0, 67, 75
1, 111456, Control_c, 0, 67, 73
1, 111471, Control_c, 0, 67, 71
1, 111486, Control_c, 0, 67, 69
1, 111501, Control_c, 0, 67, 65
1, 111515, Control_c, 0, 67, 62
1, 111530, Control_c, 0, 67, 59
1, 111547, Note_off_c, 0, 54, 37
1, 111582, Note_off_c, 0, 47, 32
1, 111586, Note_off_c, 0, 59, 34
1, 111620, Control_c, 0, 67, 60
1, 111650, Control_c, 0, 67, 61
1, 111694, Control_c, 0, 67, 62
1, 111724, Control_c, 0, 67, 62
1, 111807, Note_on_c, 0, 52, 41
1, 111809, Note_on_c, 0, 59, 28
1, 111813, Note_on_c, 0, 49, 38
1, 111820, Note_on_c, 0, 76, 69
1, 111827, Control_c, 0, 67, 63
1, 111842, Control_c, 0, 64, 117
1, 111857, Control_c, 0, 64, 70
1, 111872, Control_c, 0, 64, 55
1, 111887, Control_c, 0, 64, 21
1, 111902, Control_c, 0, 64, 0
1, 111972, Note_off_c, 0, 75, 60
1, 111976, Control_c, 0, 64, 30
1, 111991, Control_c, 0, 64, 48
1, 112006, Control_c, 0, 64, 66
1, 112006, Control_c, 0, 67, 62
1, 112020, Control_c, 0, 64, 104
1, 112035, Control_c, 0, 64, 127
1, 112035, Control_c, 0, 67, 62
1, 112072, Control_c, 0, 67, 61
1, 112101, Control_c, 0, 67, 61
1, 112104, Note_off_c, 0, 59, 52
1, 112110, Note_off_c, 0, 52, 42
1, 112128, Note_off_c, 0, 49, 42
1, 112206, Control_c, 0, 67, 60
1, 112215, Note_on_c, 0, 59, 56
1, 112224, Note_on_c, 0, 52, 49
1, 112235, Note_on_c, 0, 49, 54
1, 112280, Control_c, 0, 67, 60
1, 112369, Note_off_c, 0, 59, 48
1, 112388, Note_off_c, 0, 52, 33
1, 112393, Note_off_c, 0, 49, 43
1, 112459, Control_c, 0, 67, 60
1, 112531, Note_on_c, 0, 59, 56
1, 112537, Note_on_c, 0, 52, 50
1, 112542, Note_on_c, 0, 49, 45
1, 112548, Control_c, 0, 67, 60
1, 112562, Control_c, 0, 67, 59
1, 112592, Control_c, 0, 67, 59
1, 112620, Note_off_c, 0, 52, 62
1, 112620, Note_off_c, 0, 59, 61
1, 112622, Control_c, 0, 67, 57
1, 112631, Note_off_c, 0, 49, 56
1, 112636, Control_c, 0, 67, 55
1, 112651, Control_c, 0, 67, 49
1, 112666, Control_c, 0, 67, 45
1, 112681, Control_c, 0, 67, 44
1, 112695, Control_c, 0, 67, 43
1, 112784, Control_c, 0, 67, 44
1, 112837, Control_c, 0, 67, 44
1, 112851, Control_c, 0, 67, 45
1, 112866, Control_c, 0, 67, 45
1, 112875, Note_on_c, 0, 58, 44
1, 112882, Note_on_c, 0, 80, 78
1, 112889, Note_on_c, 0, 49, 43
1, 112900, Note_on_c, 0, 52, 44
1, 112910, Control_c, 0, 64, 84
1, 112910, Control_c, 0, 67, 46
1, 112925, Control_c, 0, 64, 64
1, 112925, Control_c, 0, 67, 46
1, 112940, Control_c, 0, 64, 48
1, 112955, Control_c, 0, 64, 11
1, 112955, Control_c, 0, 67, 47
1, 112969, Control_c, 0, 64, 0
1, 112969, Control_c, 0, 67, 47
1, 112999, Control_c, 0, 67, 48
1, 113014, Control_c, 0, 64, 11
1, 113029, Control_c, 0, 64, 26
1, 113029, Control_c, 0, 67, 49
1, 113043, Control_c, 0, 64, 38
1, 113058, Control_c, 0, 64, 55
1, 113058, Control_c, 0, 67, 50
1, 113073, Control_c, 0, 64, 69
1, 113073, Control_c, 0, 67, 50
1, 113088, Control_c, 0, 64, 99
1, 113088, Control_c, 0, 67, 51
1, 113103, Control_c, 0, 64, 122
1, 113103, Control_c, 0, 67, 51
1, 113112, Note_off_c, 0, 58, 63
1, 113118, Control_c, 0, 64, 127
1, 113118, Control_c, 0, 67, 52
1, 113120, Note_off_c, 0, 52, 54
1, 113136, Note_off_c, 0, 49, 58
1, 113177, Control_c, 0, 67, 51
1, 113207, Control_c, 0, 67, 50
1, 113222, Control_c, 0, 67, 50
1, 113237, Control_c, 0, 67, 49
1, 113246, Note_on_c, 0, 58, 60
1, 113246, Note_off_c, 0, 76, 48
1, 113252, Control_c, 0, 67, 49
1, 113254, Note_on_c, 0, 52, 50
1, 113258, Note_on_c, 0, 49, 53
1, 113267, Control_c, 0, 67, 48
1, 113282, Control_c, 0, 67, 48
1, 113297, Control_c, 0, 67, 47
1, 113341, Control_c, 0, 67, 46
1, 113356, Control_c, 0, 67, 46
1, 113371, Control_c, 0, 67, 45
1, 113385, Control_c, 0, 67, 45
1, 113391, Note_off_c, 0, 58, 50
1, 113396, Note_off_c, 0, 52, 36
1, 113407, Note_off_c, 0, 49, 36
1, 113415, Control_c, 0, 67, 44
1, 113430, Control_c, 0, 67, 44
1, 113474, Control_c, 0, 67, 43
1, 113579, Note_on_c, 0, 49, 46
1, 113585, Note_on_c, 0, 58, 55
1, 113588, Note_on_c, 0, 52, 42
1, 113652, Note_off_c, 0, 52, 53
1, 113660, Control_c, 0, 67, 43
1, 113682, Note_off_c, 0, 49, 59
1, 113718, Control_c, 0, 67, 42
1, 113723, Note_off_c, 0, 58, 55
1, 113733, Control_c, 0, 67, 41
1, 113748, Control_c, 0, 67, 37
1, 113763, Control_c, 0, 67, 32
1, 113778, Control_c, 0, 67, 29
1, 113792, Control_c, 0, 67, 27
1, 113807, Control_c, 0, 67, 26
1, 113956, Control_c, 0, 67, 26
1, 113975, Note_on_c, 0, 54, 45
1, 113975, Note_on_c, 0, 59, 42
1, 113975, Note_on_c, 0, 78, 82
1, 114001, Note_on_c, 0, 51, 45
1, 114015, Control_c, 0, 64, 71
1, 114030, Control_c, 0, 64, 54
1, 114030, Control_c, 0, 67, 27
1, 114045, Control_c, 0, 64, 17
1, 114060, Control_c, 0, 64, 0
1, 114085, Note_off_c, 0, 80, 60
1, 114134, Control_c, 0, 64, 21
1, 114149, Control_c, 0, 64, 39
1, 114164, Control_c, 0, 64, 55
1, 114179, Control_c, 0, 64, 72
1, 114194, Control_c, 0, 64, 127
1, 114223, Control_c, 0, 67, 26
1, 114227, Note_off_c, 0, 59, 58
1, 114236, Note_off_c, 0, 51, 58
1, 114244, Note_off_c, 0, 54, 45
1, 114289, Control_c, 0, 67, 26
1, 114358, Note_on_c, 0, 59, 59
1, 114361, Note_on_c, 0, 54, 57
1, 114376, Note_on_c, 0, 51, 58
1, 114379, Control_c, 0, 67, 25
1, 114478, Note_off_c, 0, 54, 57
1, 114486, Note_off_c, 0, 51, 56
1, 114495, Note_off_c, 0, 59, 58
1, 114701, Note_on_c, 0, 83, 84
1, 114707, Note_on_c, 0, 59, 45
1, 114715, Note_on_c, 0, 54, 39
1, 114716, Note_on_c, 0, 51, 40
1, 114748, Control_c, 0, 67, 26
1, 114776, Note_off_c, 0, 54, 61
1, 114781, Note_off_c, 0, 51, 60
1, 114790, Note_off_c, 0, 78, 63
1, 114793, Control_c, 0, 67, 26
1, 114803, Note_off_c, 0, 59, 56
1, 114942, Control_c, 0, 67, 27
1, 114987, Control_c, 0, 67, 27
1, 115081, Note_on_c, 0, 64, 45
1, 115088, Note_on_c, 0, 59, 45
1, 115088, Note_on_c, 0, 80, 86
1, 115095, Note_on_c, 0, 52, 51
1, 115127, Control_c, 0, 64, 67
1, 115142, Control_c, 0, 64, 48
1, 115157, Control_c, 0, 64, 0
1, 115180, Note_off_c, 0, 83, 60
1, 115231, Control_c, 0, 64, 11
1, 115246, Control_c, 0, 64, 34
1, 115261, Control_c, 0, 64, 54
1, 115261, Control_c, 0, 67, 28
1, 115276, Control_c, 0, 64, 72
1, 115276, Control_c, 0, 67, 28
1, 115290, Control_c, 0, 64, 127
1, 115290, Control_c, 0, 67, 29
1, 115305, Control_c, 0, 67, 29
1, 115337, Note_off_c, 0, 52, 59
1, 115345, Note_off_c, 0, 59, 52
1, 115353, Note_off_c, 0, 64, 57
1, 115457, Note_on_c, 0, 64, 57
1, 115469, Note_on_c, 0, 52, 58
1, 115473, Note_on_c, 0, 59, 60
1, 115557, Control_c, 0, 67, 29
1, 115601, Control_c, 0, 67, 28
1, 115617, Control_c, 0, 67, 28
1, 115632, Control_c, 0, 67, 27
1, 115647, Control_c, 0, 67, 26
1, 115661, Note_off_c, 0, 52, 34
1, 115671, Note_off_c, 0, 59, 46
1, 115674, Note_off_c, 0, 64, 60
1, 115832, Control_c, 0, 67, 27
1, 115871, Note_on_c, 0, 59, 39
1, 115884, Note_on_c, 0, 64, 53
1, 115885, Note_on_c, 0, 92, 86
1, 115899, Note_on_c, 0, 52, 45
1, 115906, Control_c, 0, 67, 27
1, 116011, Note_off_c, 0, 52, 46
1, 116019, Note_off_c, 0, 64, 58
1, 116056, Note_off_c, 0, 59, 35
1, 116291, Control_c, 0, 67, 27
1, 116304, Note_on_c, 0, 63, 69
1, 116306, Control_c, 0, 67, 26
1, 116307, Note_on_c, 0, 59, 57
1, 116315, Note_on_c, 0, 54, 59
1, 116335, Control_c, 0, 64, 70
1, 116335, Control_c, 0, 67, 26
1, 116350, Control_c, 0, 64, 52
1, 116365, Control_c, 0, 64, 0
1, 116365, Control_c, 0, 67, 25
1, 116425, Control_c, 0, 67, 25
1, 116440, Control_c, 0, 64, 32
1, 116442, Note_off_c, 0, 80, 37
1, 116455, Control_c, 0, 64, 50
1, 116469, Control_c, 0, 64, 66
1, 116469, Control_c, 0, 67, 24
1, 116484, Control_c, 0, 64, 127
1, 116499, Control_c, 0, 67, 24
1, 116514, Control_c, 0, 67, 23
1, 116529, Control_c, 0, 67, 23
1, 116551, Control_c, 0, 67, 21
1, 116566, Control_c, 0, 67, 18
1, 116581, Control_c, 0, 67, 15
1, 116596, Control_c, 0, 67, 13
1, 116611, Control_c, 0, 67, 10
1, 116625, Control_c, 0, 67, 9
1, 116626, Note_off_c, 0, 63, 62
1, 116632, Note_off_c, 0, 59, 54
1, 116640, Control_c, 0, 67, 8
1, 116641, Note_off_c, 0, 54, 37
1, 116655, Control_c, 0, 67, 0
1, 116737, Note_on_c, 0, 63, 66
1, 116755, Note_on_c, 0, 59, 57
1, 116771, Note_on_c, 0, 54, 38
1, 116908, Note_off_c, 0, 59, 53
1, 116939, Note_off_c, 0, 63, 55
1, 116941, Note_off_c, 0, 54, 43
1, 117087, Note_on_c, 0, 90, 90
1, 117109, Note_on_c, 0, 63, 41
1, 117112, Note_on_c, 0, 59, 40
1, 117115, Note_on_c, 0, 54, 32
1, 117163, Note_off_c, 0, 59, 57
1, 117202, Note_off_c, 0, 92, 60
1, 117325, Note_off_c, 0, 54, 39
1, 117340, Note_off_c, 0, 63, 48
1, 117446, Note_on_c, 0, 64, 59
1, 117451, Note_on_c, 0, 61, 54
1, 117452, Note_on_c, 0, 58, 49
1, 117460, Note_on_c, 0, 54, 52
1, 117463, Control_c, 0, 64, 69
1, 117478, Control_c, 0, 64, 50
1, 117492, Control_c, 0, 64, 0
1, 117552, Control_c, 0, 64, 21
1, 117566, Control_c, 0, 64, 35
1, 117581, Control_c, 0, 64, 47
1, 117581, Control_c, 0, 67, 8
1, 117596, Control_c, 0, 64, 60
1, 117611, Control_c, 0, 64, 77
1, 117626, Control_c, 0, 64, 127
1, 117676, Note_off_c, 0, 61, 62
1, 117682, Note_off_c, 0, 58, 58
1, 117686, Note_off_c, 0, 64, 61
1, 117689, Note_off_c, 0, 54, 47
1, 117831, Note_on_c, 0, 87, 80
1, 117855, Note_on_c, 0, 54, 30
1, 117863, Control_c, 0, 67, 0
1, 117864, Note_on_c, 0, 58, 28
1, 117867, Note_on_c, 0, 64, 40
1, 117870, Note_on_c, 0, 61, 36
1, 117913, Note_off_c, 0, 90, 66
1, 118056, Note_off_c, 0, 61, 58
1, 118069, Note_off_c, 0, 64, 54
1, 118085, Note_off_c, 0, 58, 40
1, 118105, Note_off_c, 0, 54, 42
1, 118215, Note_off_c, 0, 87, 37
1, 118238, Note_on_c, 0, 88, 77
1, 118258, Note_on_c, 0, 54, 37
1, 118273, Note_on_c, 0, 64, 38
1, 118277, Note_on_c, 0, 58, 33
1, 118278, Note_on_c, 0, 61, 37
1, 118433, Note_off_c, 0, 61, 56
1, 118451, Note_off_c, 0, 58, 38
1, 118454, Note_on_c, 0, 82, 82
1, 118457, Note_off_c, 0, 54, 40
1, 118492, Note_off_c, 0, 64, 35
1, 118522, Note_off_c, 0, 88, 60
1, 118737, Note_on_c, 0, 85, 75
1, 118747, Note_on_c, 0, 58, 37
1, 118748, Note_on_c, 0, 64, 37
1, 118753, Note_on_c, 0, 61, 37
1, 118761, Note_on_c, 0, 55, 43
1, 118812, Control_c, 0, 64, 69
1, 118827, Control_c, 0, 64, 51
1, 118842, Control_c, 0, 64, 0
1, 118887, Note_off_c, 0, 82, 63
1, 118931, Control_c, 0, 64, 18
1, 118946, Control_c, 0, 64, 37
1, 118961, Control_c, 0, 64, 53
1, 118976, Control_c, 0, 64, 68
1, 118991, Control_c, 0, 64, 127
1, 119076, Note_off_c, 0, 61, 51
1, 119078, Note_off_c, 0, 58, 49
1, 119083, Note_off_c, 0, 64, 40
1, 119095, Note_off_c, 0, 55, 36
1, 119167, Note_on_c, 0, 64, 50
1, 119169, Note_on_c, 0, 61, 32
1, 119172, Note_on_c, 0, 58, 27
1, 119178, Note_on_c, 0, 55, 29
1, 119367, Note_off_c, 0, 64, 52
1, 119375, Note_off_c, 0, 58, 40
1, 119383, Note_off_c, 0, 55, 43
1, 119387, Note_off_c, 0, 61, 46
1, 119517, Note_on_c, 0, 55, 40
1, 119519, Note_on_c, 0, 58, 33
1, 119519, Note_on_c, 0, 61, 37
1, 119519, Note_on_c, 0, 64, 48
1, 119611, Note_off_c, 0, 61, 59
1, 119613, Note_off_c, 0, 55, 61
1, 119618, Note_off_c, 0, 64, 55
1, 119620, Note_off_c, 0, 58, 49
1, 119901, Control_c, 0, 64, 122
1, 119916, Control_c, 0, 64, 68
1, 119917, Note_on_c, 0, 54, 39
1, 119929, Note_on_c, 0, 64, 37
1, 119931, Control_c, 0, 64, 53
1, 119941, Note_on_c, 0, 61, 32
1, 119946, Control_c, 0, 64, 8
1, 119959, Note_on_c, 0, 58, 17
1, 119960, Control_c, 0, 64, 0
1, 120005, Control_c, 0, 64, 11
1, 120020, Control_c, 0, 64, 26
1, 120034, Control_c, 0, 64, 38
1, 120049, Control_c, 0, 64, 50
1, 120064, Control_c, 0, 64, 62
1, 120078, Control_c, 0, 64, 75
1, 120093, Control_c, 0, 64, 95
1, 120108, Control_c, 0, 64, 102
1, 120123, Control_c, 0, 64, 127
1, 120160, Note_off_c, 0, 64, 46
1, 120164, Note_off_c, 0, 61, 41
1, 120172, Note_off_c, 0, 54, 41
1, 120173, Note_off_c, 0, 58, 41
1, 120300, Note_on_c, 0, 61, 33
1, 120300, Note_on_c, 0, 64, 41
1, 120315, Note_on_c, 0, 54, 40
1, 120315, Note_on_c, 0, 58, 30
1, 120364, Note_off_c, 0, 58, 44
1, 120384, Note_off_c, 0, 61, 40
1, 120388, Note_off_c, 0, 54, 38
1, 120397, Note_off_c, 0, 64, 53
1, 120673, Note_on_c, 0, 66, 42
1, 120690, Note_on_c, 0, 54, 30
1, 120699, Note_on_c, 0, 61, 25
1, 120767, Note_off_c, 0, 61, 43
1, 120841, Note_off_c, 0, 66, 42
1, 120993, Note_off_c, 0, 54, 35
1, 121166, Note_on_c, 0, 83, 47
1, 121168, Note_on_c, 0, 59, 33
1, 121169, Note_on_c, 0, 63, 24
1, 121178, Note_on_c, 0, 66, 24
1, 121190, Control_c, 0, 64, 95
1, 121206, Control_c, 0, 64, 71
1, 121221, Control_c, 0, 64, 58
1, 121236, Control_c, 0, 64, 33
1, 121251, Control_c, 0, 64, 0
1, 121329, Note_off_c, 0, 85, 51
1, 121369, Control_c, 0, 64, 23
1, 121384, Control_c, 0, 64, 38
1, 121399, Control_c, 0, 64, 51
1, 121414, Control_c, 0, 64, 62
1, 121429, Control_c, 0, 64, 70
1, 121444, Control_c, 0, 64, 77
1, 121458, Control_c, 0, 64, 84
1, 121465, Note_off_c, 0, 59, 40
1, 121466, Note_off_c, 0, 66, 43
1, 121473, Control_c, 0, 64, 100
1, 121473, Control_c, 0, 67, 8
1, 121478, Note_off_c, 0, 63, 45
1, 121488, Control_c, 0, 64, 127
1, 121532, Control_c, 0, 67, 8
1, 121632, Note_on_c, 0, 66, 21
1, 121638, Note_on_c, 0, 59, 27
1, 121641, Note_on_c, 0, 63, 22
1, 121752, Note_off_c, 0, 83, 36
1, 121776, Control_c, 0, 67, 9
1, 121789, Note_off_c, 0, 66, 41
1, 121799, Note_off_c, 0, 59, 41
1, 121801, Note_off_c, 0, 63, 44
1, 121821, Control_c, 0, 67, 13
1, 121909, Control_c, 0, 67, 13
1, 121998, Control_c, 0, 67, 13
1, 122043, Control_c, 0, 67, 12
1, 122046, Note_on_c, 0, 66, 21
1, 122054, Note_on_c, 0, 59, 28
1, 122062, Note_on_c, 0, 63, 18
1, 122087, Control_c, 0, 67, 12
1, 122147, Control_c, 0, 67, 11
1, 122194, Note_off_c, 0, 66, 39
1, 122209, Note_off_c, 0, 63, 36
1, 122210, Note_off_c, 0, 59, 37
1, 122340, Control_c, 0, 67, 11
1, 122443, Control_c, 0, 67, 10
1, 122509, Note_on_c, 0, 75, 52
1, 122552, Note_on_c, 0, 59, 23
1, 122564, Note_on_c, 0, 66, 16
1, 122575, Note_on_c, 0, 63, 4
1, 122733, Note_off_c, 0, 66, 38
1, 122743, Note_off_c, 0, 63, 42
1, 122748, Control_c, 0, 67, 11
1, 122760, Note_off_c, 0, 59, 37
1, 122762, Control_c, 0, 67, 11
1, 122777, Control_c, 0, 67, 13
1, 122808, Control_c, 0, 67, 13
1, 122822, Control_c, 0, 67, 14
1, 122867, Control_c, 0, 67, 15
1, 122911, Control_c, 0, 67, 15
1, 122926, Control_c, 0, 67, 16
1, 122934, Note_on_c, 0, 66, 26
1, 122937, Note_on_c, 0, 59, 29
1, 122956, Control_c, 0, 67, 16
1, 122959, Note_on_c, 0, 63, 17
1, 122985, Control_c, 0, 67, 17
1, 123000, Control_c, 0, 67, 17
1, 123029, Control_c, 0, 67, 18
1, 123044, Control_c, 0, 67, 18
1, 123059, Control_c, 0, 67, 20
1, 123074, Control_c, 0, 67, 21
1, 123089, Control_c, 0, 67, 22
1, 123098, Note_off_c, 0, 66, 38
1, 123104, Control_c, 0, 67, 22
1, 123106, Note_off_c, 0, 63, 41
1, 123110, Note_off_c, 0, 59, 39
1, 123119, Control_c, 0, 67, 23
1, 123134, Control_c, 0, 67, 24
1, 123149, Control_c, 0, 67, 25
1, 123289, Control_c, 0, 67, 24
1, 123319, Control_c, 0, 67, 24
1, 123355, Note_on_c, 0, 59, 25
1, 123361, Note_on_c, 0, 66, 12
1, 123378, Control_c, 0, 67, 23
1, 123384, Note_on_c, 0, 63, 9
1, 123423, Control_c, 0, 67, 23
1, 123526, Control_c, 0, 67, 22
1, 123539, Note_off_c, 0, 66, 36
1, 123540, Note_off_c, 0, 59, 39
1, 123571, Note_off_c, 0, 63, 37
1, 123705, Control_c, 0, 67, 22
1, 123749, Control_c, 0, 67, 21
1, 123764, Control_c, 0, 67, 21
1, 123823, Control_c, 0, 67, 20
1, 123891, Note_on_c, 0, 60, 39
1, 123927, Control_c, 0, 64, 101
1, 123942, Control_c, 0, 64, 75
1, 123949, Poly_aftertouch_c, 0, 66, 127
1, 123956, Control_c, 0, 64, 61
1, 123964, Poly_aftertouch_c, 0, 63, 127
1, 123971, Control_c, 0, 64, 48
1, 123986, Control_c, 0, 64, 23
1, 124001, Control_c, 0, 64, 0
1, 124082, Control_c, 0, 64, 19
1, 124097, Control_c, 0, 64, 30
1, 124112, Control_c, 0, 64, 41
1, 124126, Control_c, 0, 64, 52
1, 124141, Control_c, 0, 64, 64
1, 124156, Control_c, 0, 64, 73
1, 124171, Control_c, 0, 64, 79
1, 124186, Note_off_c, 0, 60, 36
1, 124186, Control_c, 0, 64, 84
1, 124201, Control_c, 0, 64, 94
1, 124201, Poly_aftertouch_c, 0, 63, 0
1, 124201, Poly_aftertouch_c, 0, 66, 0
1, 124216, Control_c, 0, 64, 115
1, 124231, Control_c, 0, 64, 127
1, 124344, Note_on_c, 0, 66, 33
1, 124351, Note_on_c, 0, 60, 33
1, 124392, Poly_aftertouch_c, 0, 63, 127
1, 124497, Note_off_c, 0, 66, 41
1, 124517, Poly_aftertouch_c, 0, 63, 0
1, 124523, Note_off_c, 0, 60, 42
1, 124631, Control_c, 0, 67, 20
1, 124693, Note_on_c, 0, 60, 29
1, 124705, Control_c, 0, 67, 19
1, 124711, Note_on_c, 0, 66, 29
1, 124713, Note_on_c, 0, 63, 28
1, 124720, Control_c, 0, 67, 19
1, 124735, Control_c, 0, 67, 18
1, 124806, Note_off_c, 0, 66, 37
1, 124828, Note_off_c, 0, 63, 39
1, 124844, Note_off_c, 0, 60, 39
1, 124846, Control_c, 0, 67, 17
1, 124920, Control_c, 0, 67, 17
1, 124935, Control_c, 0, 67, 16
1, 124964, Control_c, 0, 67, 15
1, 124994, Control_c, 0, 67, 15
1, 125024, Control_c, 0, 67, 14
1, 125068, Control_c, 0, 67, 13
1, 125095, Note_on_c, 0, 69, 47
1, 125098, Control_c, 0, 67, 13
1, 125106, Note_on_c, 0, 60, 26
1, 125110, Note_on_c, 0, 66, 21
1, 125113, Control_c, 0, 67, 12
1, 125133, Note_on_c, 0, 63, 16
1, 125157, Control_c, 0, 67, 12
1, 125217, Control_c, 0, 67, 11
1, 125263, Note_off_c, 0, 66, 40
1, 125286, Note_off_c, 0, 63, 44
1, 125292, Note_off_c, 0, 60, 42
1, 125336, Control_c, 0, 67, 11
1, 125366, Control_c, 0, 67, 10
1, 125380, Control_c, 0, 67, 9
1, 125395, Control_c, 0, 67, 8
1, 125410, Control_c, 0, 67, 0
1, 125452, Note_on_c, 0, 60, 34
1, 125456, Note_on_c, 0, 66, 27
1, 125471, Note_on_c, 0, 63, 19
1, 125587, Note_off_c, 0, 66, 41
1, 125587, Note_off_c, 0, 63, 37
1, 125594, Note_off_c, 0, 60, 34
1, 125787, Note_on_c, 0, 60, 26
1, 125790, Note_on_c, 0, 66, 33
1, 125826, Note_on_c, 0, 63, 16
1, 125906, Note_off_c, 0, 63, 39
1, 125917, Note_off_c, 0, 66, 39
1, 125945, Note_off_c, 0, 60, 40
1, 126159, Note_on_c, 0, 60, 23
1, 126170, Note_on_c, 0, 68, 59
1, 126174, Control_c, 0, 64, 92
1, 126189, Control_c, 0, 64, 68
1, 126195, Note_on_c, 0, 66, 27
1, 126197, Note_on_c, 0, 63, 24
1, 126204, Control_c, 0, 64, 56
1, 126219, Control_c, 0, 64, 33
1, 126234, Control_c, 0, 64, 0
1, 126315, Control_c, 0, 64, 20
1, 126329, Control_c, 0, 64, 33
1, 126344, Control_c, 0, 64, 48
1, 126359, Control_c, 0, 64, 62
1, 126374, Control_c, 0, 64, 78
1, 126389, Control_c, 0, 64, 101
1, 126403, Control_c, 0, 64, 108
1, 126406, Note_off_c, 0, 69, 39
1, 126418, Control_c, 0, 64, 127
1, 126437, Note_off_c, 0, 66, 41
1, 126440, Note_off_c, 0, 63, 46
1, 126443, Note_off_c, 0, 60, 41
1, 126496, Note_off_c, 0, 75, 51
1, 126564, Note_on_c, 0, 66, 37
1, 126570, Note_on_c, 0, 60, 37
1, 126577, Note_on_c, 0, 63, 32
1, 126628, Note_off_c, 0, 60, 55
1, 126642, Note_off_c, 0, 63, 44
1, 126671, Note_off_c, 0, 66, 33
1, 126896, Note_on_c, 0, 63, 44
1, 126899, Note_on_c, 0, 60, 36
1, 126925, Note_on_c, 0, 66, 34
1, 126939, Note_off_c, 0, 60, 49
1, 126952, Note_off_c, 0, 63, 63
1, 126976, Note_off_c, 0, 66, 44
1, 127030, Note_off_c, 0, 68, 53
1, 127274, Note_on_c, 0, 78, 61
1, 127285, Control_c, 0, 64, 79
1, 127300, Control_c, 0, 64, 60
1, 127306, Note_on_c, 0, 60, 28
1, 127310, Note_on_c, 0, 66, 30
1, 127313, Note_on_c, 0, 68, 17
1, 127315, Control_c, 0, 64, 43
1, 127323, Note_on_c, 0, 63, 14
1, 127330, Control_c, 0, 64, 16
1, 127344, Control_c, 0, 64, 0
1, 127359, Control_c, 0, 64, 14
1, 127374, Control_c, 0, 64, 23
1, 127388, Control_c, 0, 64, 35
1, 127403, Control_c, 0, 64, 46
1, 127418, Control_c, 0, 64, 58
1, 127433, Control_c, 0, 64, 69
1, 127448, Control_c, 0, 64, 92
1, 127462, Control_c, 0, 64, 115
1, 127477, Control_c, 0, 64, 127
1, 127513, Note_off_c, 0, 66, 42
1, 127527, Note_off_c, 0, 68, 41
1, 127528, Note_off_c, 0, 63, 44
1, 127530, Note_off_c, 0, 60, 41
1, 127658, Note_on_c, 0, 66, 21
1, 127658, Note_on_c, 0, 68, 36
1, 127671, Note_on_c, 0, 60, 32
1, 127672, Note_on_c, 0, 63, 28
1, 127800, Note_off_c, 0, 66, 37
1, 127813, Note_off_c, 0, 60, 36
1, 127814, Note_off_c, 0, 63, 41
1, 127826, Note_off_c, 0, 68, 37
1, 128040, Note_on_c, 0, 75, 55
1, 128052, Note_on_c, 0, 66, 27
1, 128055, Note_on_c, 0, 60, 32
1, 128078, Note_on_c, 0, 68, 12
1, 128192, Note_off_c, 0, 66, 42
1, 128231, Note_off_c, 0, 60, 41
1, 128233, Note_off_c, 0, 68, 34
1, 128270, Note_off_c, 0, 78, 57
1, 128493, Note_on_c, 0, 64, 36
1, 128495, Note_on_c, 0, 78, 53
1, 128500, Note_on_c, 0, 61, 33
1, 128509, Control_c, 0, 64, 107
1, 128523, Note_on_c, 0, 68, 21
1, 128531, Control_c, 0, 64, 74
1, 128546, Control_c, 0, 64, 56
1, 128561, Control_c, 0, 64, 27
1, 128575, Control_c, 0, 64, 0
1, 128604, Note_off_c, 0, 75, 51
1, 128664, Control_c, 0, 64, 16
1, 128679, Control_c, 0, 64, 33
1, 128694, Control_c, 0, 64, 46
1, 128709, Control_c, 0, 64, 59
1, 128723, Control_c, 0, 64, 70
1, 128738, Control_c, 0, 64, 84
1, 128753, Control_c, 0, 64, 90
1, 128768, Control_c, 0, 64, 100
1, 128771, Note_off_c, 0, 68, 41
1, 128771, Note_off_c, 0, 61, 45
1, 128783, Control_c, 0, 64, 127
1, 128799, Note_off_c, 0, 64, 40
1, 128911, Note_on_c, 0, 64, 31
1, 128920, Note_on_c, 0, 61, 26
1, 128925, Note_on_c, 0, 68, 9
1, 129051, Note_off_c, 0, 68, 37
1, 129056, Note_off_c, 0, 61, 41
1, 129074, Note_off_c, 0, 64, 38
1, 129251, Note_on_c, 0, 64, 31
1, 129288, Note_on_c, 0, 61, 10
1, 129307, Poly_aftertouch_c, 0, 68, 127
1, 129423, Note_off_c, 0, 64, 40
1, 129426, Note_off_c, 0, 61, 46
1, 129429, Poly_aftertouch_c, 0, 68, 0
1, 129651, Note_on_c, 0, 61, 27
1, 129665, Control_c, 0, 64, 82
1, 129671, Note_on_c, 0, 76, 50
1, 129676, Note_on_c, 0, 64, 19
1, 129680, Control_c, 0, 64, 64
1, 129695, Control_c, 0, 64, 52
1, 129701, Note_on_c, 0, 68, 8
1, 129710, Control_c, 0, 64, 30
1, 129725, Control_c, 0, 64, 0
1, 129739, Control_c, 0, 64, 20
1, 129754, Control_c, 0, 64, 34
1, 129769, Control_c, 0, 64, 46
1, 129771, Note_off_c, 0, 78, 53
1, 129784, Control_c, 0, 64, 60
1, 129799, Control_c, 0, 64, 71
1, 129814, Control_c, 0, 64, 95
1, 129829, Control_c, 0, 64, 127
1, 129831, Note_off_c, 0, 64, 41
1, 129838, Note_off_c, 0, 68, 39
1, 129859, Note_off_c, 0, 61, 56
1, 130140, Note_on_c, 0, 56, 32
1, 130145, Note_on_c, 0, 49, 30
1, 130160, Note_on_c, 0, 68, 27
1, 130165, Poly_aftertouch_c, 0, 61, 127
1, 130308, Note_off_c, 0, 56, 41
1, 130313, Note_off_c, 0, 49, 43
1, 130325, Poly_aftertouch_c, 0, 61, 0
1, 130343, Note_off_c, 0, 68, 40
1, 130526, Note_on_c, 0, 56, 32
1, 130538, Note_on_c, 0, 49, 27
1, 130547, Note_on_c, 0, 68, 29
1, 130563, Note_on_c, 0, 61, 13
1, 130688, Note_off_c, 0, 56, 40
1, 130693, Note_off_c, 0, 61, 48
1, 130695, Note_off_c, 0, 49, 39
1, 130712, Note_off_c, 0, 68, 34
1, 130894, Note_on_c, 0, 56, 36
1, 130899, Note_on_c, 0, 49, 36
1, 130906, Note_on_c, 0, 61, 28
1, 130907, Note_on_c, 0, 68, 29
1, 131072, Note_off_c, 0, 61, 50
1, 131078, Note_off_c, 0, 49, 44
1, 131088, Note_off_c, 0, 56, 38
1, 131100, Note_off_c, 0, 68, 40
1, 131227, Note_on_c, 0, 68, 38
1, 131234, Note_on_c, 0, 56, 30
1, 131241, Note_on_c, 0, 49, 32
1, 131255, Note_on_c, 0, 61, 29
1, 131432, Note_off_c, 0, 56, 42
1, 131437, Note_off_c, 0, 61, 48
1, 131440, Note_off_c, 0, 68, 35
1, 131443, Note_off_c, 0, 49, 46
1, 131570, Note_on_c, 0, 56, 39
1, 131572, Note_on_c, 0, 68, 50
1, 131573, Note_on_c, 0, 61, 41
1, 131579, Note_on_c, 0, 49, 35
1, 131673, Note_off_c, 0, 61, 58
1, 131746, Note_off_c, 0, 68, 42
1, 131754, Note_off_c, 0, 56, 33
1, 131758, Note_off_c, 0, 49, 43
1, 131943, Note_on_c, 0, 56, 31
1, 131961, Note_on_c, 0, 75, 66
1, 131966, Note_on_c, 0, 59, 28
1, 131970, Note_on_c, 0, 51, 40
1, 131971, Control_c, 0, 64, 80
1, 131986, Control_c, 0, 64, 62
1, 131997, Note_on_c, 0, 68, 32
1, 132000, Control_c, 0, 64, 45
1, 132015, Control_c, 0, 64, 0
1, 132068, Note_off_c, 0, 76, 61
1, 132104, Control_c, 0, 64, 28
1, 132119, Control_c, 0, 64, 44
1, 132133, Control_c, 0, 64, 59
1, 132148, Control_c, 0, 64, 77
1, 132163, Control_c, 0, 64, 127
1, 132219, Note_off_c, 0, 51, 57
1, 132247, Note_off_c, 0, 68, 42
1, 132263, Note_off_c, 0, 56, 41
1, 132265, Note_off_c, 0, 59, 40
1, 132346, Note_on_c, 0, 56, 35
1, 132352, Note_on_c, 0, 59, 42
1, 132353, Note_on_c, 0, 68, 55
1, 132378, Note_on_c, 0, 51, 43
1, 132524, Note_off_c, 0, 68, 36
1, 132529, Note_off_c, 0, 56, 39
1, 132530, Note_off_c, 0, 51, 34
1, 132546, Note_off_c, 0, 59, 39
1, 132665, Note_on_c, 0, 59, 44
1, 132668, Note_on_c, 0, 56, 44
1, 132673, Note_on_c, 0, 51, 40
1, 132677, Note_on_c, 0, 68, 55
1, 132795, Note_off_c, 0, 59, 59
1, 132829, Note_off_c, 0, 68, 35
1, 132846, Note_off_c, 0, 56, 35
1, 132991, Note_off_c, 0, 51, 36
1, 133036, Note_on_c, 0, 61, 57
1, 133045, Note_on_c, 0, 56, 41
1, 133052, Note_on_c, 0, 52, 48
1, 133054, Control_c, 0, 64, 90
1, 133054, Note_on_c, 0, 68, 45
1, 133069, Control_c, 0, 64, 63
1, 133083, Control_c, 0, 64, 45
1, 133098, Control_c, 0, 64, 0
1, 133141, Control_c, 0, 64, 12
1, 133156, Control_c, 0, 64, 29
1, 133170, Control_c, 0, 64, 41
1, 133186, Control_c, 0, 64, 55
1, 133201, Control_c, 0, 64, 68
1, 133216, Control_c, 0, 64, 106
1, 133231, Control_c, 0, 64, 127
1, 133282, Note_off_c, 0, 68, 48
1, 133286, Note_off_c, 0, 56, 60
1, 133291, Note_off_c, 0, 52, 59
1, 133301, Note_off_c, 0, 61, 61
1, 133414, Note_on_c, 0, 61, 63
1, 133427, Note_on_c, 0, 56, 53
1, 133431, Note_on_c, 0, 68, 34
1, 133435, Note_on_c, 0, 52, 49
1, 133565, Note_off_c, 0, 56, 58
1, 133570, Note_off_c, 0, 52, 57
1, 133576, Note_off_c, 0, 61, 60
1, 133585, Note_off_c, 0, 68, 39
1, 133777, Note_on_c, 0, 73, 71
1, 133779, Note_on_c, 0, 52, 41
1, 133795, Note_on_c, 0, 61, 46
1, 133814, Note_on_c, 0, 68, 37
1, 133831, Note_on_c, 0, 56, 11
1, 133892, Note_off_c, 0, 56, 44
1, 133915, Note_off_c, 0, 61, 64
1, 133957, Note_off_c, 0, 52, 35
1, 133991, Note_off_c, 0, 68, 35
1, 134122, Note_on_c, 0, 59, 58
1, 134124, Note_on_c, 0, 51, 52
1, 134129, Note_on_c, 0, 56, 50
1, 134153, Note_on_c, 0, 68, 44
1, 134157, Control_c, 0, 64, 72
1, 134172, Control_c, 0, 64, 51
1, 134187, Control_c, 0, 64, 12
1, 134202, Control_c, 0, 64, 0
1, 134232, Control_c, 0, 64, 27
1, 134247, Control_c, 0, 64, 41
1, 134261, Control_c, 0, 64, 55
1, 134276, Control_c, 0, 64, 75
1, 134291, Control_c, 0, 64, 127
1, 134330, Note_off_c, 0, 68, 41
1, 134364, Note_off_c, 0, 56, 62
1, 134371, Note_off_c, 0, 51, 58
1, 134376, Note_off_c, 0, 59, 59
1, 134483, Note_on_c, 0, 59, 63
1, 134494, Note_on_c, 0, 56, 55
1, 134499, Note_on_c, 0, 51, 56
1, 134515, Note_on_c, 0, 68, 37
1, 134648, Note_off_c, 0, 75, 32
1, 134681, Note_off_c, 0, 56, 58
1, 134682, Note_off_c, 0, 51, 57
1, 134710, Note_off_c, 0, 59, 53
1, 134819, Note_off_c, 0, 68, 37
1, 134848, Note_on_c, 0, 56, 44
1, 134849, Note_on_c, 0, 71, 71
1, 134858, Note_on_c, 0, 59, 44
1, 134868, Note_on_c, 0, 51, 42
1, 134948, Note_off_c, 0, 73, 63
1, 134986, Note_off_c, 0, 59, 51
1, 135041, Note_off_c, 0, 51, 54
1, 135041, Note_off_c, 0, 56, 41
1, 135201, Note_on_c, 0, 58, 59
1, 135210, Note_on_c, 0, 52, 59
1, 135217, Control_c, 0, 64, 78
1, 135232, Control_c, 0, 64, 54
1, 135233, Note_on_c, 0, 49, 49
1, 135247, Control_c, 0, 64, 16
1, 135269, Control_c, 0, 64, 0
1, 135303, Note_off_c, 0, 49, 0
1, 135303, Note_on_c, 0, 49, 3
1, 135329, Control_c, 0, 64, 30
1, 135343, Control_c, 0, 64, 42
1, 135358, Control_c, 0, 64, 57
1, 135373, Control_c, 0, 64, 73
1, 135388, Control_c, 0, 64, 127
1, 135466, Note_off_c, 0, 52, 55
1, 135472, Note_off_c, 0, 58, 62
1, 135492, Note_off_c, 0, 49, 42
1, 135591, Note_on_c, 0, 58, 60
1, 135607, Note_on_c, 0, 52, 56
1, 135613, Note_on_c, 0, 49, 50
1, 135731, Note_off_c, 0, 52, 61
1, 135757, Note_off_c, 0, 58, 52
1, 135774, Note_off_c, 0, 49, 34
1, 135950, Note_on_c, 0, 70, 68
1, 135972, Note_on_c, 0, 49, 45
1, 135976, Note_on_c, 0, 58, 37
1, 135977, Note_on_c, 0, 52, 46
1, 136091, Note_off_c, 0, 52, 38
1, 136121, Note_off_c, 0, 49, 36
1, 136140, Note_off_c, 0, 58, 34
1, 136205, Note_off_c, 0, 71, 63
1, 136340, Note_on_c, 0, 53, 48
1, 136345, Note_on_c, 0, 58, 52
1, 136345, Control_c, 0, 64, 67
1, 136359, Control_c, 0, 64, 50
1, 136365, Note_on_c, 0, 50, 41
1, 136374, Control_c, 0, 64, 0
1, 136420, Control_c, 0, 64, 30
1, 136435, Control_c, 0, 64, 44
1, 136449, Control_c, 0, 64, 57
1, 136464, Control_c, 0, 64, 71
1, 136479, Control_c, 0, 64, 99
1, 136494, Control_c, 0, 64, 127
1, 136542, Note_off_c, 0, 53, 52
1, 136593, Note_off_c, 0, 50, 38
1, 136606, Note_off_c, 0, 58, 56
1, 136779, Note_on_c, 0, 71, 57
1, 136797, Control_c, 0, 64, 72
1, 136799, Note_on_c, 0, 59, 29
1, 136803, Note_on_c, 0, 50, 18
1, 136812, Control_c, 0, 64, 57
1, 136819, Note_on_c, 0, 53, 30
1, 136825, Note_on_c, 0, 56, 20
1, 136827, Control_c, 0, 64, 29
1, 136841, Note_off_c, 0, 70, 39
1, 136842, Control_c, 0, 64, 0
1, 136929, Control_c, 0, 64, 24
1, 136944, Control_c, 0, 64, 38
1, 136959, Control_c, 0, 64, 50
1, 136974, Control_c, 0, 64, 61
1, 136989, Control_c, 0, 64, 68
1, 137004, Control_c, 0, 64, 73
1, 137019, Control_c, 0, 64, 77
1, 137034, Control_c, 0, 64, 83
1, 137049, Control_c, 0, 64, 100
1, 137057, Note_off_c, 0, 59, 40
1, 137061, Note_off_c, 0, 56, 40
1, 137063, Control_c, 0, 64, 127
1, 137080, Note_off_c, 0, 53, 38
1, 137082, Note_off_c, 0, 50, 33
1, 137194, Note_on_c, 0, 68, 52
1, 137205, Note_on_c, 0, 59, 29
1, 137213, Note_on_c, 0, 50, 13
1, 137220, Note_on_c, 0, 56, 31
1, 137222, Poly_aftertouch_c, 0, 53, 127
1, 137313, Poly_aftertouch_c, 0, 53, 0
1, 137372, Note_off_c, 0, 50, 40
1, 137373, Note_off_c, 0, 59, 39
1, 137385, Note_off_c, 0, 56, 43
1, 137508, Note_off_c, 0, 68, 36
1, 137710, Note_on_c, 0, 68, 50
1, 137718, Note_on_c, 0, 51, 34
1, 137727, Note_on_c, 0, 59, 29
1, 137731, Note_on_c, 0, 56, 27
1, 137737, Control_c, 0, 64, 80
1, 137752, Control_c, 0, 64, 62
1, 137767, Control_c, 0, 64, 43
1, 137782, Control_c, 0, 64, 0
1, 137886, Control_c, 0, 64, 25
1, 137901, Control_c, 0, 64, 42
1, 137904, Note_off_c, 0, 71, 59
1, 137916, Control_c, 0, 64, 55
1, 137930, Control_c, 0, 64, 67
1, 137945, Control_c, 0, 64, 86
1, 137960, Control_c, 0, 64, 105
1, 137976, Control_c, 0, 64, 127
1, 138005, Note_off_c, 0, 51, 42
1, 138009, Note_off_c, 0, 56, 44
1, 138017, Note_off_c, 0, 59, 40
1, 138140, Note_on_c, 0, 59, 38
1, 138143, Note_on_c, 0, 56, 37
1, 138149, Note_on_c, 0, 51, 31
1, 138262, Note_off_c, 0, 56, 29
1, 138310, Note_off_c, 0, 59, 33
1, 138312, Note_off_c, 0, 51, 38
1, 138485, Note_on_c, 0, 59, 44
1, 138503, Note_on_c, 0, 56, 34
1, 138513, Note_on_c, 0, 51, 26
1, 138635, Note_off_c, 0, 56, 41
1, 138636, Note_off_c, 0, 59, 40
1, 138649, Note_off_c, 0, 51, 31
1, 138873, Note_on_c, 0, 62, 52
1, 138873, Control_c, 0, 64, 80
1, 138875, Note_on_c, 0, 59, 39
1, 138882, Note_on_c, 0, 51, 40
1, 138888, Control_c, 0, 64, 63
1, 138902, Control_c, 0, 64, 49
1, 138917, Control_c, 0, 64, 31
1, 138932, Control_c, 0, 64, 25
1, 138947, Control_c, 0, 64, 32
1, 138962, Control_c, 0, 64, 41
1, 138976, Control_c, 0, 64, 50
1, 138991, Control_c, 0, 64, 60
1, 139013, Control_c, 0, 64, 67
1, 139028, Control_c, 0, 64, 76
1, 139043, Control_c, 0, 64, 88
1, 139058, Control_c, 0, 64, 110
1, 139073, Control_c, 0, 64, 127
1, 139105, Note_off_c, 0, 59, 53
1, 139114, Note_off_c, 0, 62, 62
1, 139135, Note_off_c, 0, 51, 41
1, 139259, Note_on_c, 0, 62, 50
1, 139269, Note_on_c, 0, 51, 34
1, 139272, Note_on_c, 0, 59, 38
1, 139368, Note_off_c, 0, 59, 37
1, 139406, Note_off_c, 0, 51, 31
1, 139406, Note_off_c, 0, 62, 34
1, 139627, Note_on_c, 0, 62, 40
1, 139628, Note_on_c, 0, 59, 34
1, 139658, Note_on_c, 0, 51, 10
1, 139673, Note_off_c, 0, 59, 52
1, 139694, Note_off_c, 0, 62, 55
1, 139709, Note_off_c, 0, 51, 49
1, 140037, Note_on_c, 0, 67, 46
1, 140044, Control_c, 0, 64, 117
1, 140052, Note_on_c, 0, 58, 25
1, 140052, Note_on_c, 0, 63, 29
1, 140059, Control_c, 0, 64, 77
1, 140074, Control_c, 0, 64, 62
1, 140087, Note_on_c, 0, 51, 27
1, 140089, Control_c, 0, 64, 45
1, 140104, Control_c, 0, 64, 0
1, 140107, Note_off_c, 0, 68, 41
1, 140207, Control_c, 0, 64, 13
1, 140222, Control_c, 0, 64, 31
1, 140237, Control_c, 0, 64, 44
1, 140251, Control_c, 0, 64, 57
1, 140266, Control_c, 0, 64, 67
1, 140281, Control_c, 0, 64, 78
1, 140296, Control_c, 0, 64, 84
1, 140311, Control_c, 0, 64, 89
1, 140317, Note_off_c, 0, 51, 42
1, 140325, Control_c, 0, 64, 103
1, 140340, Control_c, 0, 64, 127
1, 140453, Note_on_c, 0, 51, 39
1, 140560, Note_off_c, 0, 51, 48
1, 140584, Note_off_c, 0, 63, 44
1, 140659, Note_off_c, 0, 58, 30
1, 140846, Note_on_c, 0, 51, 34
1, 140924, Note_off_c, 0, 51, 57
1, 141275, Note_on_c, 0, 63, 47
1, 141275, Control_c, 0, 64, 101
1, 141283, Note_on_c, 0, 51, 26
1, 141290, Control_c, 0, 64, 92
1, 141364, Control_c, 0, 64, 92
1, 141378, Control_c, 0, 64, 97
1, 141393, Control_c, 0, 64, 108
1, 141408, Control_c, 0, 64, 127
1, 141487, Note_off_c, 0, 51, 42
1, 141738, Note_on_c, 0, 51, 28
1, 141847, Note_off_c, 0, 67, 43
1, 141926, Note_off_c, 0, 51, 38
1, 142157, Note_on_c, 0, 49, 38
1, 142194, Note_on_c, 0, 51, 14
1, 142427, Note_off_c, 0, 51, 38
1, 142764, Note_on_c, 0, 47, 31
1, 142772, Note_on_c, 0, 51, 17
1, 142781, Note_on_c, 0, 68, 46
1, 142802, Control_c, 0, 64, 103
1, 142817, Control_c, 0, 64, 78
1, 142822, Note_off_c, 0, 49, 43
1, 142832, Control_c, 0, 64, 65
1, 142836, Note_off_c, 0, 63, 56
1, 142846, Control_c, 0, 64, 54
1, 142861, Control_c, 0, 64, 28
1, 142877, Control_c, 0, 64, 0
1, 142981, Control_c, 0, 64, 23
1, 142996, Control_c, 0, 64, 36
1, 143010, Control_c, 0, 64, 48
1, 143025, Control_c, 0, 64, 61
1, 143040, Control_c, 0, 64, 70
1, 143055, Control_c, 0, 64, 83
1, 143069, Control_c, 0, 64, 96
1, 143084, Control_c, 0, 64, 127
1, 143131, Note_off_c, 0, 51, 42
1, 143133, Note_off_c, 0, 47, 44
1, 143368, Note_on_c, 0, 51, 20
1, 143368, Note_on_c, 0, 62, 33
1, 143394, Note_on_c, 0, 47, 19
1, 143522, Note_off_c, 0, 51, 42
1, 143533, Note_off_c, 0, 47, 42
1, 143550, Note_off_c, 0, 62, 42
1, 143748, Note_on_c, 0, 62, 51
1, 143762, Note_on_c, 0, 47, 34
1, 143765, Note_on_c, 0, 51, 30
1, 143876, Note_off_c, 0, 51, 48
1, 143893, Note_off_c, 0, 47, 0
1, 143916, Poly_aftertouch_c, 0, 47, 0
1, 143927, Note_off_c, 0, 62, 36
1, 144085, Control_c, 0, 64, 103
1, 144099, Control_c, 0, 64, 79
1, 144100, Note_on_c, 0, 62, 59
1, 144107, Note_on_c, 0, 47, 34
1, 144110, Note_on_c, 0, 51, 38
1, 144114, Control_c, 0, 64, 78
1, 144144, Control_c, 0, 64, 78
1, 144159, Control_c, 0, 64, 79
1, 144173, Control_c, 0, 64, 81
1, 144188, Control_c, 0, 64, 84
1, 144203, Control_c, 0, 64, 91
1, 144218, Control_c, 0, 64, 105
1, 144240, Control_c, 0, 64, 127
1, 144271, Note_off_c, 0, 51, 55
1, 144295, Note_off_c, 0, 47, 41
1, 144441, Note_on_c, 0, 63, 63
1, 144449, Control_c, 0, 64, 87
1, 144456, Note_on_c, 0, 51, 32
1, 144464, Control_c, 0, 64, 85
1, 144467, Note_on_c, 0, 47, 35
1, 144478, Control_c, 0, 64, 88
1, 144493, Control_c, 0, 64, 98
1, 144508, Control_c, 0, 64, 119
1, 144522, Control_c, 0, 64, 127
1, 144608, Note_off_c, 0, 51, 39
1, 144615, Note_off_c, 0, 47, 34
1, 144667, Note_off_c, 0, 63, 64
1, 144787, Note_on_c, 0, 63, 72
1, 144796, Note_on_c, 0, 47, 38
1, 144801, Note_on_c, 0, 51, 35
1, 144977, Note_off_c, 0, 51, 43
1, 145008, Note_off_c, 0, 62, 55
1, 145037, Note_off_c, 0, 68, 46
1, 145095, Note_off_c, 0, 47, 34
1, 145169, Note_off_c, 0, 63, 48
1, 145261, Note_on_c, 0, 46, 37
1, 145264, Note_on_c, 0, 64, 61
1, 145278, Note_on_c, 0, 51, 26
1, 145285, Note_on_c, 0, 67, 55
1, 145285, Control_c, 0, 64, 97
1, 145300, Control_c, 0, 64, 70
1, 145315, Control_c, 0, 64, 57
1, 145330, Control_c, 0, 64, 36
1, 145344, Control_c, 0, 64, 0
1, 145434, Control_c, 0, 64, 18
1, 145449, Control_c, 0, 64, 31
1, 145463, Control_c, 0, 64, 41
1, 145478, Control_c, 0, 64, 52
1, 145493, Control_c, 0, 64, 63
1, 145508, Control_c, 0, 64, 72
1, 145523, Control_c, 0, 64, 79
1, 145537, Control_c, 0, 64, 83
1, 145544, Note_off_c, 0, 51, 42
1, 145552, Control_c, 0, 64, 92
1, 145559, Note_off_c, 0, 46, 44
1, 145567, Control_c, 0, 64, 114
1, 145582, Control_c, 0, 64, 127
1, 145674, Note_on_c, 0, 51, 33
1, 145691, Note_on_c, 0, 46, 44
1, 145748, Note_off_c, 0, 51, 50
1, 145754, Note_off_c, 0, 46, 57
1, 146015, Note_on_c, 0, 51, 35
1, 146022, Note_on_c, 0, 46, 37
1, 146085, Note_off_c, 0, 51, 55
1, 146091, Note_off_c, 0, 46, 56
1, 146350, Note_on_c, 0, 51, 27
1, 146356, Note_on_c, 0, 46, 36
1, 146359, Control_c, 0, 64, 100
1, 146370, Note_on_c, 0, 63, 45
1, 146374, Control_c, 0, 64, 74
1, 146389, Control_c, 0, 64, 61
1, 146404, Control_c, 0, 64, 39
1, 146419, Control_c, 0, 64, 0
1, 146424, Note_off_c, 0, 64, 56
1, 146515, Control_c, 0, 64, 25
1, 146530, Control_c, 0, 64, 39
1, 146545, Control_c, 0, 64, 53
1, 146560, Control_c, 0, 64, 65
1, 146574, Control_c, 0, 64, 77
1, 146576, Note_off_c, 0, 51, 40
1, 146589, Control_c, 0, 64, 87
1, 146592, Note_off_c, 0, 46, 35
1, 146604, Control_c, 0, 64, 94
1, 146619, Control_c, 0, 64, 115
1, 146634, Control_c, 0, 64, 127
1, 146743, Note_on_c, 0, 46, 29
1, 146745, Note_on_c, 0, 51, 3
1, 146814, Note_off_c, 0, 51, 39
1, 146831, Note_off_c, 0, 46, 39
1, 146963, Note_off_c, 0, 67, 36
1, 147091, Note_on_c, 0, 46, 31
1, 147094, Note_on_c, 0, 51, 28
1, 147241, Note_off_c, 0, 51, 38
1, 147454, Note_off_c, 0, 63, 45
1, 147512, Note_off_c, 0, 46, 41
1, 147520, Note_on_c, 0, 44, 31
1, 147521, Note_on_c, 0, 71, 58
1, 147524, Note_on_c, 0, 51, 5
1, 147545, Control_c, 0, 64, 106
1, 147560, Control_c, 0, 64, 72
1, 147576, Control_c, 0, 64, 60
1, 147591, Control_c, 0, 64, 44
1, 147606, Control_c, 0, 64, 11
1, 147620, Control_c, 0, 64, 0
1, 147664, Control_c, 0, 64, 17
1, 147679, Control_c, 0, 64, 28
1, 147694, Control_c, 0, 64, 36
1, 147709, Control_c, 0, 64, 45
1, 147724, Control_c, 0, 64, 56
1, 147738, Control_c, 0, 64, 67
1, 147753, Control_c, 0, 64, 78
1, 147768, Control_c, 0, 64, 84
1, 147783, Control_c, 0, 64, 89
1, 147798, Control_c, 0, 64, 100
1, 147813, Control_c, 0, 64, 127
1, 147816, Note_off_c, 0, 51, 42
1, 147840, Note_off_c, 0, 44, 40
1, 147968, Note_on_c, 0, 44, 41
1, 147974, Note_on_c, 0, 51, 36
1, 147986, Note_on_c, 0, 62, 50
1, 148111, Note_off_c, 0, 44, 53
1, 148122, Note_off_c, 0, 51, 35
1, 148161, Note_off_c, 0, 62, 60
1, 148325, Note_on_c, 0, 62, 64
1, 148331, Note_on_c, 0, 44, 39
1, 148340, Note_on_c, 0, 51, 39
1, 148430, Note_off_c, 0, 51, 53
1, 148439, Note_off_c, 0, 44, 52
1, 148528, Note_off_c, 0, 62, 60
1, 148665, Control_c, 0, 64, 81
1, 148671, Note_on_c, 0, 51, 45
1, 148671, Note_on_c, 0, 44, 43
1, 148675, Note_on_c, 0, 62, 65
1, 148680, Control_c, 0, 64, 67
1, 148695, Control_c, 0, 64, 64
1, 148725, Control_c, 0, 64, 65
1, 148747, Control_c, 0, 64, 67
1, 148761, Control_c, 0, 64, 72
1, 148776, Control_c, 0, 64, 83
1, 148791, Control_c, 0, 64, 122
1, 148806, Control_c, 0, 64, 127
1, 148851, Note_off_c, 0, 51, 57
1, 148853, Note_off_c, 0, 44, 57
1, 149015, Note_on_c, 0, 63, 72
1, 149021, Note_on_c, 0, 51, 43
1, 149025, Note_on_c, 0, 44, 39
1, 149154, Note_off_c, 0, 51, 60
1, 149208, Note_off_c, 0, 63, 67
1, 149210, Note_off_c, 0, 44, 34
1, 149327, Note_on_c, 0, 63, 81
1, 149330, Note_on_c, 0, 44, 45
1, 149335, Note_on_c, 0, 51, 52
1, 149413, Note_off_c, 0, 71, 64
1, 149443, Note_off_c, 0, 51, 59
1, 149451, Note_off_c, 0, 44, 54
1, 149554, Note_off_c, 0, 62, 37
1, 149655, Note_off_c, 0, 63, 60
1, 149720, Note_on_c, 0, 51, 45
1, 149740, Note_on_c, 0, 43, 50
1, 149745, Note_on_c, 0, 64, 73
1, 149748, Control_c, 0, 64, 85
1, 149752, Note_on_c, 0, 70, 66
1, 149763, Control_c, 0, 64, 62
1, 149778, Control_c, 0, 64, 40
1, 149792, Control_c, 0, 64, 0
1, 149896, Control_c, 0, 64, 28
1, 149911, Control_c, 0, 64, 43
1, 149926, Control_c, 0, 64, 58
1, 149941, Control_c, 0, 64, 75
1, 149956, Control_c, 0, 64, 103
1, 149970, Note_off_c, 0, 43, 53
1, 149971, Control_c, 0, 64, 127
1, 149978, Note_off_c, 0, 51, 61
1, 150100, Note_on_c, 0, 51, 64
1, 150106, Note_on_c, 0, 43, 52
1, 150246, Note_off_c, 0, 43, 56
1, 150251, Note_off_c, 0, 51, 61
1, 150424, Note_on_c, 0, 51, 49
1, 150425, Note_on_c, 0, 63, 79
1, 150430, Note_on_c, 0, 43, 39
1, 150583, Note_off_c, 0, 51, 61
1, 150593, Note_off_c, 0, 70, 60
1, 150649, Note_off_c, 0, 43, 43
1, 150674, Note_off_c, 0, 64, 32
1, 150708, Note_off_c, 0, 63, 64
1, 150808, Note_on_c, 0, 51, 51
1, 150814, Note_on_c, 0, 72, 77
1, 150819, Note_on_c, 0, 42, 46
1, 150824, Control_c, 0, 64, 74
1, 150838, Control_c, 0, 64, 55
1, 150853, Control_c, 0, 64, 0
1, 150858, Note_on_c, 0, 68, 50
1, 150957, Control_c, 0, 64, 19
1, 150972, Control_c, 0, 64, 37
1, 150994, Control_c, 0, 64, 53
1, 151009, Control_c, 0, 64, 66
1, 151024, Control_c, 0, 64, 88
1, 151038, Control_c, 0, 64, 115
1, 151053, Control_c, 0, 64, 127
1, 151074, Note_off_c, 0, 51, 58
1, 151110, Note_off_c, 0, 42, 36
1, 151216, Note_on_c, 0, 51, 46
1, 151220, Note_on_c, 0, 42, 50
1, 151274, Note_off_c, 0, 42, 60
1, 151302, Note_off_c, 0, 51, 62
1, 151581, Note_on_c, 0, 63, 59
1, 151584, Note_on_c, 0, 56, 43
1, 151591, Note_on_c, 0, 54, 46
1, 151693, Note_off_c, 0, 68, 52
1, 151813, Note_off_c, 0, 56, 43
1, 151882, Note_off_c, 0, 72, 52
1, 151977, Note_off_c, 0, 54, 40
1, 151986, Note_off_c, 0, 63, 37
1, 152082, Note_on_c, 0, 56, 44
1, 152090, Note_on_c, 0, 52, 44
1, 152090, Note_on_c, 0, 73, 64
1, 152112, Control_c, 0, 64, 95
1, 152127, Control_c, 0, 64, 69
1, 152142, Control_c, 0, 64, 53
1, 152157, Control_c, 0, 64, 21
1, 152172, Control_c, 0, 64, 0
1, 152335, Control_c, 0, 64, 25
1, 152350, Control_c, 0, 64, 40
1, 152365, Control_c, 0, 64, 54
1, 152380, Control_c, 0, 64, 63
1, 152395, Control_c, 0, 64, 69
1, 152409, Control_c, 0, 64, 75
1, 152424, Control_c, 0, 64, 91
1, 152439, Control_c, 0, 64, 127
1, 152457, Note_off_c, 0, 52, 35
1, 152462, Note_off_c, 0, 56, 40
1, 152575, Note_on_c, 0, 56, 35
1, 152595, Note_on_c, 0, 61, 41
1, 152597, Note_on_c, 0, 52, 45
1, 152603, Note_on_c, 0, 68, 46
1, 152713, Note_off_c, 0, 52, 56
1, 152739, Note_off_c, 0, 56, 39
1, 152746, Note_off_c, 0, 61, 35
1, 152759, Note_off_c, 0, 68, 33
1, 152952, Note_on_c, 0, 56, 42
1, 152955, Note_on_c, 0, 61, 51
1, 152961, Note_on_c, 0, 68, 47
1, 152966, Note_on_c, 0, 52, 47
1, 153121, Note_off_c, 0, 52, 57
1, 153131, Note_off_c, 0, 68, 33
1, 153134, Note_off_c, 0, 61, 59
1, 153149, Note_off_c, 0, 56, 38
1, 153305, Note_on_c, 0, 56, 50
1, 153312, Note_on_c, 0, 52, 51
1, 153312, Note_on_c, 0, 61, 66
1, 153320, Note_on_c, 0, 68, 44
1, 153485, Note_off_c, 0, 56, 50
1, 153539, Note_off_c, 0, 68, 36
1, 153554, Note_off_c, 0, 61, 61
1, 153608, Note_off_c, 0, 52, 34
1, 153670, Note_on_c, 0, 75, 75
1, 153690, Note_on_c, 0, 56, 26
1, 153693, Note_on_c, 0, 68, 47
1, 153696, Note_on_c, 0, 51, 38
1, 153697, Note_on_c, 0, 60, 43
1, 153700, Control_c, 0, 64, 98
1, 153715, Control_c, 0, 64, 67
1, 153730, Control_c, 0, 64, 54
1, 153745, Control_c, 0, 64, 29
1, 153759, Control_c, 0, 64, 0
1, 153789, Control_c, 0, 64, 9
1, 153797, Note_off_c, 0, 73, 31
1, 153803, Control_c, 0, 64, 26
1, 153818, Control_c, 0, 64, 37
1, 153833, Control_c, 0, 64, 48
1, 153848, Control_c, 0, 64, 60
1, 153863, Control_c, 0, 64, 74
1, 153872, Note_off_c, 0, 60, 61
1, 153877, Control_c, 0, 64, 101
1, 153884, Note_off_c, 0, 51, 58
1, 153892, Control_c, 0, 64, 127
1, 153929, Note_off_c, 0, 56, 42
1, 154010, Note_off_c, 0, 68, 35
1, 154132, Note_on_c, 0, 76, 71
1, 154135, Note_on_c, 0, 56, 38
1, 154151, Note_on_c, 0, 49, 40
1, 154153, Control_c, 0, 64, 85
1, 154155, Note_on_c, 0, 61, 39
1, 154166, Note_on_c, 0, 68, 37
1, 154168, Control_c, 0, 64, 64
1, 154170, Note_off_c, 0, 75, 37
1, 154182, Control_c, 0, 64, 50
1, 154197, Control_c, 0, 64, 22
1, 154212, Control_c, 0, 64, 0
1, 154286, Control_c, 0, 64, 17
1, 154300, Control_c, 0, 64, 28
1, 154315, Control_c, 0, 64, 38
1, 154330, Control_c, 0, 64, 50
1, 154345, Control_c, 0, 64, 63
1, 154359, Note_off_c, 0, 56, 37
1, 154360, Control_c, 0, 64, 76
1, 154374, Control_c, 0, 64, 87
1, 154389, Note_off_c, 0, 61, 59
1, 154389, Control_c, 0, 64, 88
1, 154404, Control_c, 0, 64, 95
1, 154419, Control_c, 0, 64, 127
1, 154486, Note_off_c, 0, 76, 57
1, 154579, Note_off_c, 0, 49, 41
1, 154744, Note_on_c, 0, 56, 34
1, 154745, Note_on_c, 0, 76, 64
1, 154752, Note_on_c, 0, 59, 29
1, 154758, Note_on_c, 0, 51, 38
1, 154768, Control_c, 0, 64, 100
1, 154783, Control_c, 0, 64, 80
1, 154798, Control_c, 0, 64, 67
1, 154812, Control_c, 0, 64, 54
1, 154827, Control_c, 0, 64, 27
1, 154842, Control_c, 0, 64, 0
1, 154930, Note_off_c, 0, 68, 36
1, 154961, Control_c, 0, 64, 14
1, 154976, Control_c, 0, 64, 27
1, 154991, Control_c, 0, 64, 38
1, 155005, Control_c, 0, 64, 52
1, 155020, Control_c, 0, 64, 62
1, 155035, Control_c, 0, 64, 72
1, 155049, Control_c, 0, 64, 80
1, 155064, Control_c, 0, 64, 84
1, 155074, Note_off_c, 0, 56, 43
1, 155079, Control_c, 0, 64, 93
1, 155089, Note_off_c, 0, 59, 40
1, 155093, Note_off_c, 0, 51, 41
1, 155094, Control_c, 0, 64, 127
1, 155217, Note_on_c, 0, 59, 33
1, 155225, Note_on_c, 0, 51, 38
1, 155234, Note_on_c, 0, 56, 11
1, 155299, Note_off_c, 0, 56, 44
1, 155320, Note_off_c, 0, 51, 50
1, 155361, Note_off_c, 0, 59, 40
1, 155584, Note_on_c, 0, 75, 59
1, 155598, Note_on_c, 0, 51, 30
1, 155602, Note_on_c, 0, 59, 27
1, 155618, Note_on_c, 0, 56, 9
1, 155644, Note_off_c, 0, 59, 50
1, 155647, Note_off_c, 0, 51, 62
1, 155668, Note_off_c, 0, 56, 37
1, 155785, Note_off_c, 0, 76, 61
1, 155931, Control_c, 0, 64, 122
1, 155945, Control_c, 0, 64, 72
1, 155951, Note_on_c, 0, 51, 44
1, 155958, Note_on_c, 0, 58, 42
1, 155958, Note_on_c, 0, 61, 40
1, 155960, Control_c, 0, 64, 53
1, 155975, Control_c, 0, 64, 16
1, 155989, Note_on_c, 0, 55, 12
1, 155990, Control_c, 0, 64, 0
1, 156064, Control_c, 0, 64, 18
1, 156079, Control_c, 0, 64, 34
1, 156094, Control_c, 0, 64, 47
1, 156109, Control_c, 0, 64, 61
1, 156123, Control_c, 0, 64, 76
1, 156138, Control_c, 0, 64, 103
1, 156153, Control_c, 0, 64, 115
1, 156155, Note_off_c, 0, 58, 40
1, 156165, Note_off_c, 0, 51, 34
1, 156168, Control_c, 0, 64, 127
1, 156172, Note_off_c, 0, 61, 44
1, 156178, Note_off_c, 0, 55, 41
1, 156354, Note_on_c, 0, 51, 28
1, 156365, Note_on_c, 0, 58, 31
1, 156371, Note_on_c, 0, 61, 22
1, 156374, Note_on_c, 0, 55, 8
1, 156486, Note_off_c, 0, 55, 32
1, 156508, Note_off_c, 0, 58, 35
1, 156512, Note_off_c, 0, 61, 42
1, 156519, Note_off_c, 0, 51, 44
1, 156747, Note_off_c, 0, 75, 37
1, 156790, Note_on_c, 0, 51, 25
1, 156800, Note_on_c, 0, 67, 64
1, 156808, Note_on_c, 0, 58, 27
1, 156809, Note_on_c, 0, 61, 26
1, 156924, Poly_aftertouch_c, 0, 55, 127
1, 157010, Note_off_c, 0, 61, 41
1, 157020, Poly_aftertouch_c, 0, 55, 0
1, 157022, Note_off_c, 0, 51, 42
1, 157032, Note_off_c, 0, 58, 38
1, 157390, Note_on_c, 0, 58, 26
1, 157390, Note_on_c, 0, 70, 60
1, 157404, Note_on_c, 0, 52, 30
1, 157405, Note_on_c, 0, 61, 20
1, 157429, Control_c, 0, 64, 110
1, 157438, Note_on_c, 0, 55, 9
1, 157444, Control_c, 0, 64, 69
1, 157459, Control_c, 0, 64, 54
1, 157474, Control_c, 0, 64, 18
1, 157489, Control_c, 0, 64, 0
1, 157592, Control_c, 0, 64, 21
1, 157607, Note_off_c, 0, 67, 38
1, 157607, Control_c, 0, 64, 37
1, 157622, Control_c, 0, 64, 51
1, 157637, Control_c, 0, 64, 63
1, 157651, Control_c, 0, 64, 77
1, 157666, Control_c, 0, 64, 94
1, 157681, Control_c, 0, 64, 107
1, 157696, Control_c, 0, 64, 127
1, 157730, Note_off_c, 0, 52, 42
1, 157735, Note_off_c, 0, 55, 42
1, 157737, Note_off_c, 0, 61, 44
1, 157740, Note_off_c, 0, 58, 41
1, 157885, Note_on_c, 0, 61, 15
1, 157896, Note_on_c, 0, 58, 19
1, 157909, Note_on_c, 0, 55, 11
1, 157923, Poly_aftertouch_c, 0, 52, 127
1, 157978, Note_off_c, 0, 55, 44
1, 157994, Note_off_c, 0, 61, 34
1, 157995, Note_off_c, 0, 58, 34
1, 158019, Poly_aftertouch_c, 0, 52, 0
1, 158251, Note_on_c, 0, 52, 37
1, 158268, Note_on_c, 0, 58, 16
1, 158268, Note_on_c, 0, 61, 23
1, 158324, Note_off_c, 0, 52, 56
1, 158325, Note_off_c, 0, 58, 44
1, 158334, Note_off_c, 0, 61, 44
1, 158356, Control_c, 0, 67, 8
1, 158371, Control_c, 0, 67, 9
1, 158386, Control_c, 0, 67, 10
1, 158400, Control_c, 0, 67, 12
1, 158415, Control_c, 0, 67, 13
1, 158430, Control_c, 0, 67, 15
1, 158445, Control_c, 0, 67, 17
1, 158460, Control_c, 0, 67, 19
1, 158481, Control_c, 0, 67, 22
1, 158496, Control_c, 0, 67, 25
1, 158511, Control_c, 0, 67, 30
1, 158526, Control_c, 0, 67, 34
1, 158541, Control_c, 0, 67, 38
1, 158556, Control_c, 0, 67, 44
1, 158571, Control_c, 0, 67, 49
1, 158586, Control_c, 0, 67, 54
1, 158598, Control_c, 0, 67, 61
1, 158613, Control_c, 0, 67, 68
1, 158628, Control_c, 0, 64, 92
1, 158628, Control_c, 0, 67, 76
1, 158636, Note_on_c, 0, 51, 32
1, 158642, Note_on_c, 0, 63, 38
1, 158643, Control_c, 0, 64, 66
1, 158643, Control_c, 0, 67, 83
1, 158648, Note_on_c, 0, 58, 35
1, 158658, Note_on_c, 0, 61, 26
1, 158658, Control_c, 0, 64, 51
1, 158658, Control_c, 0, 67, 92
1, 158672, Control_c, 0, 64, 15
1, 158672, Control_c, 0, 67, 99
1, 158684, Note_on_c, 0, 55, 9
1, 158687, Control_c, 0, 64, 0
1, 158687, Control_c, 0, 67, 107
1, 158702, Control_c, 0, 67, 113
1, 158717, Control_c, 0, 67, 119
1, 158732, Control_c, 0, 67, 124
1, 158748, Control_c, 0, 64, 10
1, 158748, Control_c, 0, 67, 127
1, 158763, Control_c, 0, 64, 25
1, 158777, Control_c, 0, 64, 36
1, 158792, Control_c, 0, 64, 47
1, 158807, Control_c, 0, 64, 60
1, 158821, Control_c, 0, 64, 69
1, 158836, Control_c, 0, 64, 80
1, 158851, Control_c, 0, 64, 84
1, 158866, Control_c, 0, 64, 89
1, 158875, Note_off_c, 0, 58, 41
1, 158875, Note_off_c, 0, 61, 45
1, 158881, Control_c, 0, 64, 98
1, 158883, Note_off_c, 0, 51, 43
1, 158893, Note_off_c, 0, 55, 42
1, 158896, Control_c, 0, 64, 127
1, 158934, Note_off_c, 0, 63, 42
1, 159043, Note_on_c, 0, 63, 42
1, 159052, Note_on_c, 0, 51, 4
1, 159063, Note_on_c, 0, 61, 8
1, 159064, Note_on_c, 0, 58, 11
1, 159078, Note_on_c, 0, 55, 6
1, 159143, Note_off_c, 0, 61, 40
1, 159148, Note_off_c, 0, 58, 37
1, 159154, Note_off_c, 0, 55, 39
1, 159182, Note_off_c, 0, 51, 43
1, 159182, Note_off_c, 0, 63, 45
1, 159423, Note_on_c, 0, 63, 37
1, 159427, Note_on_c, 0, 51, 12
1, 159452, Note_on_c, 0, 61, 21
1, 159599, Note_off_c, 0, 61, 43
1, 159653, Note_off_c, 0, 51, 34
1, 159663, Note_off_c, 0, 63, 29
1, 159978, Control_c, 0, 64, 108
1, 159984, Note_on_c, 0, 68, 31
1, 159990, Note_on_c, 0, 56, 24
1, 159990, Note_off_c, 0, 70, 0
1, 159993, Control_c, 0, 64, 81
1, 159994, Note_on_c, 0, 59, 24
1, 159996, Note_on_c, 0, 63, 23
1, 160008, Control_c, 0, 64, 68
1, 160022, Control_c, 0, 64, 60
1, 160028, Poly_aftertouch_c, 0, 70, 127
1, 160037, Control_c, 0, 64, 46
1, 160052, Control_c, 0, 64, 19
1, 160067, Control_c, 0, 64, 0
1, 160103, Poly_aftertouch_c, 0, 70, 0
1, 160260, Control_c, 0, 64, 22
1, 160275, Control_c, 0, 64, 28
1, 160290, Control_c, 0, 64, 35
1, 160304, Control_c, 0, 64, 43
1, 160319, Control_c, 0, 64, 52
1, 160334, Control_c, 0, 64, 60
1, 160350, Control_c, 0, 64, 64
1, 160365, Control_c, 0, 64, 66
1, 160380, Control_c, 0, 64, 67
1, 160394, Control_c, 0, 64, 70
1, 160409, Control_c, 0, 64, 77
1, 160424, Control_c, 0, 64, 85
1, 160439, Control_c, 0, 64, 92
1, 160454, Control_c, 0, 64, 99
1, 160468, Control_c, 0, 64, 108
1, 160483, Control_c, 0, 64, 127
1, 160546, Note_off_c, 0, 59, 38
1, 160628, Note_off_c, 0, 56, 40
1, 160724, Note_off_c, 0, 63, 42
1, 160746, Note_off_c, 0, 68, 40
1, 161232, Control_c, 0, 64, 115
1, 161247, Control_c, 0, 64, 108
1, 161262, Control_c, 0, 64, 101
1, 161277, Control_c, 0, 64, 93
1, 161291, Control_c, 0, 64, 86
1, 161306, Control_c, 0, 64, 79
1, 161321, Control_c, 0, 64, 77
1, 161336, Control_c, 0, 64, 76
1, 161409, Control_c, 0, 64, 76
1, 161424, Control_c, 0, 64, 75
1, 161454, Control_c, 0, 64, 74
1, 161477, Control_c, 0, 64, 72
1, 161491, Control_c, 0, 64, 70
1, 161506, Control_c, 0, 64, 67
1, 161521, Control_c, 0, 64, 64
1, 161536, Control_c, 0, 64, 62
1, 161550, Control_c, 0, 64, 59
1, 161565, Control_c, 0, 64, 55
1, 161580, Control_c, 0, 64, 52
1, 161594, Control_c, 0, 64, 49
1, 161609, Control_c, 0, 64, 47
1, 161623, Control_c, 0, 64, 45
1, 161638, Control_c, 0, 64, 43
1, 161653, Note_on_c, 0, 59, 45
1, 161653, Control_c, 0, 64, 41
1, 161654, Note_on_c, 0, 35, 34
1, 161663, Note_on_c, 0, 47, 28
1, 161668, Control_c, 0, 64, 38
1, 161683, Control_c, 0, 64, 35
1, 161698, Control_c, 0, 64, 31
1, 161713, Control_c, 0, 64, 28
1, 161728, Control_c, 0, 64, 24
1, 161742, Control_c, 0, 64, 18
1, 161757, Control_c, 0, 64, 8
1, 161772, Control_c, 0, 64, 0
1, 161980, Control_c, 0, 64, 11
1, 161995, Control_c, 0, 64, 21
1, 162010, Control_c, 0, 64, 27
1, 162025, Control_c, 0, 64, 32
1, 162039, Control_c, 0, 64, 38
1, 162054, Control_c, 0, 64, 44
1, 162069, Control_c, 0, 64, 52
1, 162084, Control_c, 0, 64, 58
1, 162099, Control_c, 0, 64, 61
1, 162113, Control_c, 0, 64, 62
1, 162128, Control_c, 0, 64, 64
1, 162143, Control_c, 0, 64, 66
1, 162157, Control_c, 0, 64, 69
1, 162172, Control_c, 0, 64, 74
1, 162187, Control_c, 0, 64, 78
1, 162202, Control_c, 0, 64, 82
1, 162225, Control_c, 0, 64, 86
1, 162239, Control_c, 0, 64, 91
1, 162254, Control_c, 0, 64, 97
1, 162269, Control_c, 0, 64, 102
1, 162284, Control_c, 0, 64, 106
1, 162292, Note_off_c, 0, 47, 38
1, 162298, Note_off_c, 0, 35, 30
1, 162299, Control_c, 0, 64, 115
1, 162313, Control_c, 0, 64, 127
1, 162884, Note_on_c, 0, 58, 47
1, 162896, Note_on_c, 0, 34, 31
1, 162907, Control_c, 0, 64, 108
1, 162911, Note_on_c, 0, 46, 24
1, 162922, Control_c, 0, 64, 90
1, 162936, Control_c, 0, 64, 77
1, 162951, Control_c, 0, 64, 68
1, 162974, Control_c, 0, 64, 62
1, 162988, Control_c, 0, 64, 55
1, 163003, Control_c, 0, 64, 43
1, 163018, Control_c, 0, 64, 28
1, 163033, Control_c, 0, 64, 0
1, 163039, Note_off_c, 0, 59, 37
1, 163270, Control_c, 0, 64, 20
1, 163285, Control_c, 0, 64, 28
1, 163300, Control_c, 0, 64, 34
1, 163314, Control_c, 0, 64, 42
1, 163329, Control_c, 0, 64, 51
1, 163344, Control_c, 0, 64, 59
1, 163359, Control_c, 0, 64, 63
1, 163374, Control_c, 0, 64, 65
1, 163388, Control_c, 0, 64, 66
1, 163403, Control_c, 0, 64, 68
1, 163418, Control_c, 0, 64, 73
1, 163433, Control_c, 0, 64, 79
1, 163448, Control_c, 0, 64, 84
1, 163462, Control_c, 0, 64, 86
1, 163471, Note_off_c, 0, 34, 36
1, 163477, Control_c, 0, 64, 88
1, 163492, Control_c, 0, 64, 90
1, 163507, Control_c, 0, 64, 94
1, 163522, Control_c, 0, 64, 99
1, 163538, Control_c, 0, 64, 105
1, 163553, Control_c, 0, 64, 111
1, 163567, Control_c, 0, 64, 127
1, 163653, Note_off_c, 0, 46, 43
1, 164167, Control_c, 0, 64, 96
1, 164177, Note_on_c, 0, 63, 40
1, 164182, Control_c, 0, 64, 80
1, 164190, Note_on_c, 0, 39, 24
1, 164194, Note_on_c, 0, 51, 23
1, 164197, Control_c, 0, 64, 72
1, 164211, Control_c, 0, 64, 64
1, 164226, Control_c, 0, 64, 58
1, 164241, Control_c, 0, 64, 46
1, 164256, Control_c, 0, 64, 26
1, 164271, Control_c, 0, 64, 0
1, 164296, Note_off_c, 0, 58, 33
1, 164487, Control_c, 0, 64, 10
1, 164502, Control_c, 0, 64, 20
1, 164516, Control_c, 0, 64, 27
1, 164531, Control_c, 0, 64, 33
1, 164546, Control_c, 0, 64, 40
1, 164560, Control_c, 0, 64, 50
1, 164575, Control_c, 0, 64, 57
1, 164590, Control_c, 0, 64, 61
1, 164605, Control_c, 0, 64, 63
1, 164620, Control_c, 0, 64, 63
1, 164634, Control_c, 0, 64, 65
1, 164649, Note_off_c, 0, 51, 41
1, 164649, Control_c, 0, 64, 69
1, 164664, Control_c, 0, 64, 73
1, 164679, Control_c, 0, 64, 76
1, 164694, Control_c, 0, 64, 78
1, 164708, Control_c, 0, 64, 80
1, 164723, Control_c, 0, 64, 82
1, 164738, Control_c, 0, 64, 84
1, 164753, Control_c, 0, 64, 87
1, 164768, Control_c, 0, 64, 89
1, 164783, Control_c, 0, 64, 91
1, 164798, Control_c, 0, 64, 93
1, 164813, Control_c, 0, 64, 94
1, 164828, Control_c, 0, 64, 95
1, 164842, Control_c, 0, 64, 97
1, 164857, Control_c, 0, 64, 100
1, 164872, Control_c, 0, 64, 103
1, 164886, Control_c, 0, 64, 106
1, 164901, Control_c, 0, 64, 108
1, 164916, Control_c, 0, 64, 109
1, 164946, Control_c, 0, 64, 110
1, 164960, Control_c, 0, 64, 113
1, 164975, Control_c, 0, 64, 115
1, 165045, Note_off_c, 0, 39, 15
1, 165138, Note_off_c, 0, 63, 34
1, 165325, Control_c, 0, 64, 114
1, 165339, Control_c, 0, 64, 113
1, 165354, Control_c, 0, 64, 110
1, 165369, Control_c, 0, 64, 108
1, 165383, Control_c, 0, 64, 106
1, 165398, Control_c, 0, 64, 104
1, 165413, Control_c, 0, 64, 103
1, 165428, Control_c, 0, 64, 102
1, 165443, Control_c, 0, 64, 100
1, 165457, Control_c, 0, 64, 98
1, 165472, Control_c, 0, 64, 94
1, 165487, Control_c, 0, 64, 88
1, 165502, Control_c, 0, 64, 82
1, 165516, Control_c, 0, 64, 75
1, 165528, Note_on_c, 0, 56, 39
1, 165531, Control_c, 0, 64, 70
1, 165546, Note_on_c, 0, 32, 29
1, 165546, Control_c, 0, 64, 64
1, 165559, Note_on_c, 0, 44, 20
1, 165561, Control_c, 0, 64, 58
1, 165576, Control_c, 0, 64, 47
1, 165591, Control_c, 0, 64, 32
1, 165606, Control_c, 0, 64, 9
1, 165621, Control_c, 0, 64, 0
1, 165724, Control_c, 0, 64, 9
1, 165739, Control_c, 0, 64, 14
1, 165754, Control_c, 0, 64, 18
1, 165769, Control_c, 0, 64, 22
1, 165783, Control_c, 0, 64, 28
1, 165798, Control_c, 0, 64, 35
1, 165813, Control_c, 0, 64, 41
1, 165828, Control_c, 0, 64, 49
1, 165843, Control_c, 0, 64, 56
1, 165857, Control_c, 0, 64, 61
1, 165872, Control_c, 0, 64, 63
1, 165887, Control_c, 0, 64, 65
1, 165902, Control_c, 0, 64, 67
1, 165916, Control_c, 0, 64, 69
1, 165932, Control_c, 0, 64, 73
1, 165947, Control_c, 0, 64, 77
1, 165969, Control_c, 0, 64, 80
1, 165984, Control_c, 0, 64, 82
1, 165999, Control_c, 0, 64, 84
1, 166011, Note_off_c, 0, 44, 33
1, 166014, Control_c, 0, 64, 86
1, 166026, Note_off_c, 0, 56, 40
1, 166029, Control_c, 0, 64, 91
1, 166035, Note_off_c, 0, 32, 34
1, 166044, Control_c, 0, 64, 94
1, 166059, Control_c, 0, 64, 95
1, 166146, Control_c, 0, 64, 94
1, 166161, Control_c, 0, 64, 92
1, 166176, Control_c, 0, 64, 90
1, 166191, Control_c, 0, 64, 87
1, 166205, Control_c, 0, 64, 84
1, 166220, Control_c, 0, 64, 79
1, 166235, Control_c, 0, 64, 74
1, 166250, Control_c, 0, 64, 68
1, 166265, Control_c, 0, 64, 63
1, 166279, Control_c, 0, 64, 54
1, 166294, Control_c, 0, 64, 43
1, 166309, Control_c, 0, 64, 29
1, 166324, Control_c, 0, 64, 16
1, 166339, Control_c, 0, 64, 0
1, 166576, Control_c, 0, 64, 18
1, 166591, Control_c, 0, 64, 24
1, 166605, Control_c, 0, 64, 28
1, 166620, Control_c, 0, 64, 32
1, 166635, Control_c, 0, 64, 37
1, 166650, Control_c, 0, 64, 42
1, 166664, Control_c, 0, 64, 49
1, 166679, Control_c, 0, 64, 53
1, 166694, Control_c, 0, 64, 56
1, 166717, Control_c, 0, 64, 58
1, 166732, Control_c, 0, 64, 60
1, 166747, Control_c, 0, 64, 62
1, 166762, Control_c, 0, 64, 64
1, 166777, Control_c, 0, 64, 66
1, 166792, Control_c, 0, 64, 67
1, 166807, Control_c, 0, 64, 69
1, 166822, Control_c, 0, 64, 71
1, 166837, Control_c, 0, 64, 75
1, 166852, Control_c, 0, 64, 79
1, 166867, Control_c, 0, 64, 81
1, 166870, Note_on_c, 0, 56, 38
1, 166882, Control_c, 0, 64, 82
1, 166883, Note_on_c, 0, 32, 22
1, 166889, Note_on_c, 0, 44, 13
1, 166896, Control_c, 0, 64, 83
1, 166911, Control_c, 0, 64, 84
1, 166926, Control_c, 0, 64, 87
1, 166941, Control_c, 0, 64, 90
1, 166955, Control_c, 0, 64, 92
1, 166970, Control_c, 0, 64, 93
1, 166985, Control_c, 0, 64, 95
1, 167000, Control_c, 0, 64, 98
1, 167015, Control_c, 0, 64, 99
1, 167029, Control_c, 0, 64, 100
1, 167089, Control_c, 0, 64, 101
1, 167103, Control_c, 0, 64, 103
1, 167152, Note_off_c, 0, 56, 40
1, 167162, Control_c, 0, 64, 103
1, 167177, Control_c, 0, 64, 104
1, 167204, Note_off_c, 0, 44, 34
1, 167290, Note_off_c, 0, 32, 29
1, 167941, Control_c, 0, 64, 103
1, 167985, Control_c, 0, 64, 103
1, 168015, Control_c, 0, 64, 102
1, 168059, Control_c, 0, 64, 101
1, 168659, Note_on_c, 0, 56, 38
1, 168683, Note_on_c, 0, 32, 23
1, 168683, Note_on_c, 0, 44, 19
1, 169132, Note_off_c, 0, 44, 34
1, 169350, Control_c, 0, 64, 102
1, 169380, Control_c, 0, 64, 103
1, 169394, Control_c, 0, 64, 103
1, 169409, Control_c, 0, 64, 104
1, 169439, Control_c, 0, 64, 105
1, 169454, Control_c, 0, 64, 105
1, 169483, Control_c, 0, 64, 106
1, 169513, Control_c, 0, 64, 107
1, 169587, Control_c, 0, 64, 108
1, 169646, Control_c, 0, 64, 108
1, 169675, Control_c, 0, 64, 109
1, 169728, Control_c, 0, 64, 110
1, 169757, Control_c, 0, 64, 111
1, 169802, Control_c, 0, 64, 113
1, 169846, Control_c, 0, 64, 114
1, 170025, Control_c, 0, 64, 115
1, 170128, Control_c, 0, 64, 117
1, 170158, Control_c, 0, 64, 119
1, 170187, Control_c, 0, 64, 122
1, 170202, Control_c, 0, 64, 127
1, 170852, Note_off_c, 0, 32, 20
1, 171538, Note_off_c, 0, 56, 39
1, 172462, Control_c, 0, 64, 117
1, 172477, Control_c, 0, 64, 113
1, 172492, Control_c, 0, 64, 107
1, 172506, Control_c, 0, 64, 103
1, 172521, Control_c, 0, 64, 100
1, 172536, Control_c, 0, 64, 97
1, 172551, Control_c, 0, 64, 96
1, 172566, Control_c, 0, 64, 95
1, 172581, Control_c, 0, 64, 93
1, 172596, Control_c, 0, 64, 92
1, 172611, Control_c, 0, 64, 90
1, 172626, Control_c, 0, 64, 90
1, 172670, Control_c, 0, 64, 89
1, 172706, Control_c, 0, 64, 88
1, 172721, Control_c, 0, 64, 88
1, 172736, Control_c, 0, 64, 87
1, 172751, Control_c, 0, 64, 86
1, 172766, Control_c, 0, 64, 85
1, 172781, Control_c, 0, 64, 82
1, 172796, Control_c, 0, 64, 80
1, 172811, Control_c, 0, 64, 79
1, 172825, Control_c, 0, 64, 78
1, 172840, Control_c, 0, 64, 77
1, 172855, Control_c, 0, 64, 76
1, 172870, Control_c, 0, 64, 75
1, 172885, Control_c, 0, 64, 74
1, 172899, Control_c, 0, 64, 72
1, 172914, Control_c, 0, 64, 71
1, 172929, Control_c, 0, 64, 69
1, 172944, Control_c, 0, 64, 68
1, 172959, Control_c, 0, 64, 66
1, 172973, Control_c, 0, 64, 63
1, 172988, Control_c, 0, 64, 59
1, 173000, Note_on_c, 0, 56, 33
1, 173003, Control_c, 0, 64, 52
1, 173017, Control_c, 0, 64, 42
1, 173032, Control_c, 0, 64, 30
1, 173047, Control_c, 0, 64, 14
1, 173062, Control_c, 0, 64, 0
1, 173669, Note_on_c, 0, 61, 51
1, 173874, Note_off_c, 0, 56, 42
1, 174305, Note_on_c, 0, 58, 45
1, 174462, Note_off_c, 0, 61, 58
1, 174917, Note_on_c, 0, 63, 50
1, 175049, Note_off_c, 0, 58, 62
1, 175553, Note_on_c, 0, 60, 53
1, 175727, Note_off_c, 0, 63, 61
1, 176199, Note_on_c, 0, 65, 58
1, 176289, Note_off_c, 0, 60, 60
1, 176826, Note_on_c, 0, 63, 55
1, 176937, Note_off_c, 0, 65, 39
1, 177276, Note_on_c, 0, 61, 48
1, 177304, Note_off_c, 0, 63, 50
1, 177491, Note_on_c, 0, 60, 45
1, 177518, Note_off_c, 0, 61, 55
1, 177645, Control_c, 0, 64, 9
1, 177660, Control_c, 0, 64, 13
1, 177675, Control_c, 0, 64, 15
1, 177689, Control_c, 0, 64, 16
1, 177719, Control_c, 0, 64, 17
1, 177734, Control_c, 0, 64, 18
1, 177749, Control_c, 0, 64, 18
1, 177763, Control_c, 0, 64, 19
1, 177778, Control_c, 0, 64, 19
1, 177793, Control_c, 0, 64, 20
1, 177808, Control_c, 0, 64, 21
1, 177822, Control_c, 0, 64, 22
1, 177837, Control_c, 0, 64, 23
1, 177852, Control_c, 0, 64, 23
1, 177882, Control_c, 0, 64, 24
1, 178113, Note_on_c, 0, 63, 53
1, 178298, Note_on_c, 0, 56, 42
1, 178482, Note_on_c, 0, 55, 46
1, 178494, Note_off_c, 0, 56, 38
1, 178513, Note_off_c, 0, 60, 38
1, 178692, Note_on_c, 0, 68, 63
1, 178707, Note_on_c, 0, 53, 43
1, 178716, Note_off_c, 0, 55, 37
1, 178863, Note_off_c, 0, 53, 61
1, 178889, Note_on_c, 0, 55, 45
1, 178942, Note_off_c, 0, 63, 60
1, 179067, Note_on_c, 0, 51, 51
1, 179103, Note_off_c, 0, 55, 36
1, 179244, Note_off_c, 0, 51, 52
1, 179257, Note_on_c, 0, 65, 63
1, 179264, Note_on_c, 0, 50, 38
1, 179390, Note_off_c, 0, 68, 58
1, 179447, Note_on_c, 0, 51, 55
1, 179473, Note_off_c, 0, 50, 39
1, 179565, Control_c, 0, 64, 23
1, 179616, Note_off_c, 0, 51, 61
1, 179634, Note_on_c, 0, 53, 50
1, 179780, Note_off_c, 0, 53, 62
1, 179822, Note_on_c, 0, 55, 37
1, 179830, Note_on_c, 0, 70, 68
1, 179979, Note_off_c, 0, 65, 53
1, 180026, Note_on_c, 0, 56, 52
1, 180042, Note_off_c, 0, 55, 43
1, 180084, Control_c, 0, 64, 23
1, 180158, Control_c, 0, 64, 22
1, 180206, Note_off_c, 0, 56, 59
1, 180215, Note_on_c, 0, 53, 48
1, 180371, Note_off_c, 0, 53, 57
1, 180384, Note_on_c, 0, 67, 69
1, 180391, Note_on_c, 0, 52, 48
1, 180531, Note_off_c, 0, 70, 57
1, 180534, Note_off_c, 0, 52, 52
1, 180557, Note_on_c, 0, 53, 52
1, 180683, Note_off_c, 0, 53, 62
1, 180741, Note_on_c, 0, 55, 44
1, 180910, Note_off_c, 0, 55, 56
1, 180913, Note_on_c, 0, 56, 51
1, 180914, Note_on_c, 0, 72, 69
1, 181002, Note_off_c, 0, 67, 53
1, 181088, Note_off_c, 0, 56, 57
1, 181116, Note_on_c, 0, 55, 47
1, 181182, Control_c, 0, 64, 22
1, 181211, Control_c, 0, 64, 21
1, 181226, Control_c, 0, 64, 20
1, 181241, Control_c, 0, 64, 19
1, 181255, Control_c, 0, 64, 18
1, 181270, Control_c, 0, 64, 16
1, 181285, Control_c, 0, 64, 15
1, 181288, Note_off_c, 0, 55, 56
1, 181290, Note_on_c, 0, 56, 57
1, 181300, Control_c, 0, 64, 14
1, 181315, Control_c, 0, 64, 12
1, 181330, Control_c, 0, 64, 11
1, 181345, Control_c, 0, 64, 11
1, 181360, Control_c, 0, 64, 10
1, 181375, Control_c, 0, 64, 10
1, 181463, Note_off_c, 0, 56, 53
1, 181479, Note_on_c, 0, 70, 62
1, 181484, Note_on_c, 0, 58, 47
1, 181578, Note_off_c, 0, 72, 56
1, 181644, Note_off_c, 0, 58, 60
1, 181686, Note_on_c, 0, 60, 53
1, 181836, Note_off_c, 0, 60, 62
1, 181853, Note_on_c, 0, 68, 62
1, 181857, Note_on_c, 0, 62, 50
1, 182010, Note_off_c, 0, 62, 56
1, 182039, Note_on_c, 0, 63, 51
1, 182045, Note_on_c, 0, 67, 60
1, 182105, Note_off_c, 0, 70, 38
1, 182117, Note_off_c, 0, 68, 55
1, 182208, Note_off_c, 0, 63, 58
1, 182236, Note_on_c, 0, 65, 50
1, 182257, Control_c, 0, 64, 10
1, 182418, Note_on_c, 0, 62, 50
1, 182445, Note_off_c, 0, 65, 42
1, 182603, Note_off_c, 0, 62, 51
1, 182623, Note_on_c, 0, 70, 65
1, 182639, Note_on_c, 0, 63, 39
1, 182750, Note_off_c, 0, 67, 52
1, 182827, Note_off_c, 0, 63, 53
1, 182833, Note_on_c, 0, 65, 39
1, 183005, Control_c, 0, 64, 11
1, 183009, Note_on_c, 0, 61, 41
1, 183021, Note_off_c, 0, 65, 43
1, 183157, Note_off_c, 0, 61, 36
1, 183181, Note_on_c, 0, 60, 43
1, 183205, Control_c, 0, 64, 11
1, 183235, Control_c, 0, 64, 12
1, 183250, Control_c, 0, 64, 12
1, 183279, Control_c, 0, 64, 13
1, 183294, Control_c, 0, 64, 13
1, 183322, Note_off_c, 0, 60, 53
1, 183324, Control_c, 0, 64, 14
1, 183364, Note_on_c, 0, 63, 46
1, 183545, Note_on_c, 0, 61, 48
1, 183563, Control_c, 0, 64, 13
1, 183578, Control_c, 0, 64, 11
1, 183587, Note_off_c, 0, 63, 45
1, 183592, Control_c, 0, 64, 10
1, 183607, Control_c, 0, 64, 8
1, 183622, Control_c, 0, 64, 0
1, 183684, Note_off_c, 0, 61, 54
1, 183717, Note_on_c, 0, 68, 62
1, 183733, Note_on_c, 0, 60, 40
1, 183836, Note_off_c, 0, 70, 56
1, 183848, Note_off_c, 0, 60, 57
1, 183897, Note_on_c, 0, 61, 50
1, 183918, Control_c, 0, 64, 8
1, 183940, Control_c, 0, 64, 9
1, 183955, Control_c, 0, 64, 9
1, 183970, Control_c, 0, 64, 10
1, 183984, Control_c, 0, 64, 10
1, 183999, Control_c, 0, 64, 11
1, 184054, Note_off_c, 0, 61, 50
1, 184088, Control_c, 0, 64, 11
1, 184096, Note_on_c, 0, 63, 43
1, 184098, Note_on_c, 0, 66, 59
1, 184118, Control_c, 0, 64, 12
1, 184147, Control_c, 0, 64, 12
1, 184295, Note_on_c, 0, 65, 62
1, 184310, Note_off_c, 0, 68, 50
1, 184320, Note_off_c, 0, 66, 58
1, 184370, Control_c, 0, 64, 11
1, 184385, Control_c, 0, 64, 10
1, 184400, Control_c, 0, 64, 10
1, 184439, Note_off_c, 0, 63, 45
1, 184463, Note_on_c, 0, 60, 45
1, 184475, Control_c, 0, 64, 11
1, 184489, Control_c, 0, 64, 13
1, 184504, Control_c, 0, 64, 15
1, 184519, Control_c, 0, 64, 17
1, 184534, Control_c, 0, 64, 20
1, 184548, Control_c, 0, 64, 23
1, 184563, Control_c, 0, 64, 26
1, 184578, Control_c, 0, 64, 29
1, 184593, Control_c, 0, 64, 31
1, 184607, Control_c, 0, 64, 34
1, 184618, Note_off_c, 0, 60, 60
1, 184622, Control_c, 0, 64, 38
1, 184637, Control_c, 0, 64, 42
1, 184649, Note_on_c, 0, 61, 43
1, 184652, Control_c, 0, 64, 46
1, 184667, Control_c, 0, 64, 49
1, 184689, Control_c, 0, 64, 52
1, 184704, Control_c, 0, 64, 54
1, 184719, Control_c, 0, 64, 55
1, 184778, Control_c, 0, 64, 55
1, 184806, Control_c, 0, 64, 54
1, 184821, Control_c, 0, 64, 54
1, 184835, Control_c, 0, 64, 52
1, 184850, Control_c, 0, 64, 51
1, 184859, Note_on_c, 0, 68, 71
1, 184865, Control_c, 0, 64, 48
1, 184880, Control_c, 0, 64, 45
1, 184895, Control_c, 0, 64, 42
1, 184910, Control_c, 0, 64, 37
1, 184925, Control_c, 0, 64, 31
1, 184940, Control_c, 0, 64, 24
1, 184954, Control_c, 0, 64, 15
1, 184969, Control_c, 0, 64, 0
1, 185013, Note_off_c, 0, 65, 61
1, 185029, Note_off_c, 0, 61, 53
1, 185039, Note_on_c, 0, 62, 50
1, 185049, Note_on_c, 0, 59, 46
1, 185087, Control_c, 0, 64, 11
1, 185103, Control_c, 0, 64, 17
1, 185118, Control_c, 0, 64, 22
1, 185133, Control_c, 0, 64, 27
1, 185148, Control_c, 0, 64, 32
1, 185163, Control_c, 0, 64, 37
1, 185177, Control_c, 0, 64, 43
1, 185192, Control_c, 0, 64, 49
1, 185207, Control_c, 0, 64, 54
1, 185211, Note_off_c, 0, 59, 55
1, 185218, Note_off_c, 0, 68, 57
1, 185220, Note_on_c, 0, 63, 60
1, 185222, Control_c, 0, 64, 58
1, 185232, Note_off_c, 0, 62, 35
1, 185236, Control_c, 0, 64, 60
1, 185244, Note_on_c, 0, 60, 41
1, 185251, Control_c, 0, 64, 60
1, 185296, Control_c, 0, 64, 61
1, 185310, Control_c, 0, 64, 61
1, 185325, Control_c, 0, 64, 62
1, 185381, Note_off_c, 0, 63, 67
1, 185435, Note_on_c, 0, 73, 72
1, 185451, Control_c, 0, 64, 61
1, 185456, Note_on_c, 0, 65, 51
1, 185466, Control_c, 0, 64, 59
1, 185481, Control_c, 0, 64, 55
1, 185496, Control_c, 0, 64, 43
1, 185510, Control_c, 0, 64, 24
1, 185519, Note_off_c, 0, 65, 41
1, 185525, Control_c, 0, 64, 0
1, 185631, Note_on_c, 0, 70, 54
1, 185656, Note_on_c, 0, 58, 45
1, 185688, Control_c, 0, 64, 16
1, 185702, Note_off_c, 0, 60, 51
1, 185703, Control_c, 0, 64, 24
1, 185718, Control_c, 0, 64, 30
1, 185733, Control_c, 0, 64, 36
1, 185747, Control_c, 0, 64, 42
1, 185762, Control_c, 0, 64, 47
1, 185777, Control_c, 0, 64, 53
1, 185792, Control_c, 0, 64, 57
1, 185807, Control_c, 0, 64, 60
1, 185821, Note_on_c, 0, 61, 54
1, 185821, Control_c, 0, 64, 60
1, 185822, Note_on_c, 0, 68, 62
1, 185851, Control_c, 0, 64, 61
1, 185853, Note_off_c, 0, 58, 33
1, 185878, Note_off_c, 0, 70, 22
1, 185881, Note_off_c, 0, 73, 35
1, 185881, Control_c, 0, 64, 62
1, 185897, Control_c, 0, 64, 63
1, 185980, Note_off_c, 0, 61, 57
1, 186000, Control_c, 0, 64, 62
1, 186001, Note_on_c, 0, 70, 70
1, 186010, Note_on_c, 0, 63, 48
1, 186015, Control_c, 0, 64, 58
1, 186030, Control_c, 0, 64, 48
1, 186044, Control_c, 0, 64, 30
1, 186049, Note_off_c, 0, 68, 31
1, 186059, Control_c, 0, 64, 0
1, 186200, Control_c, 0, 64, 16
1, 186203, Note_on_c, 0, 65, 52
1, 186215, Control_c, 0, 64, 23
1, 186230, Control_c, 0, 64, 28
1, 186245, Control_c, 0, 64, 33
1, 186259, Control_c, 0, 64, 40
1, 186274, Control_c, 0, 64, 47
1, 186289, Control_c, 0, 64, 53
1, 186293, Note_off_c, 0, 65, 61
1, 186304, Control_c, 0, 64, 57
1, 186319, Control_c, 0, 64, 60
1, 186333, Control_c, 0, 64, 61
1, 186335, Note_off_c, 0, 70, 57
1, 186348, Control_c, 0, 64, 61
1, 186363, Control_c, 0, 64, 62
1, 186371, Note_on_c, 0, 61, 46
1, 186377, Control_c, 0, 64, 63
1, 186386, Note_off_c, 0, 63, 46
1, 186392, Control_c, 0, 64, 64
1, 186398, Note_on_c, 0, 67, 40
1, 186407, Control_c, 0, 64, 65
1, 186422, Control_c, 0, 64, 66
1, 186555, Control_c, 0, 64, 65
1, 186569, Note_on_c, 0, 75, 78
1, 186570, Control_c, 0, 64, 63
1, 186585, Control_c, 0, 64, 59
1, 186587, Note_off_c, 0, 61, 38
1, 186591, Note_on_c, 0, 60, 47
1, 186600, Control_c, 0, 64, 47
1, 186615, Control_c, 0, 64, 22
1, 186630, Control_c, 0, 64, 0
1, 186659, Note_off_c, 0, 60, 0
1, 186659, Note_on_c, 0, 60, 7
1, 186749, Control_c, 0, 64, 14
1, 186756, Note_on_c, 0, 72, 57
1, 186764, Control_c, 0, 64, 22
1, 186779, Control_c, 0, 64, 28
1, 186793, Control_c, 0, 64, 34
1, 186808, Control_c, 0, 64, 40
1, 186823, Control_c, 0, 64, 48
1, 186838, Control_c, 0, 64, 54
1, 186853, Control_c, 0, 64, 58
1, 186867, Control_c, 0, 64, 60
1, 186882, Control_c, 0, 64, 61
1, 186897, Control_c, 0, 64, 61
1, 186912, Control_c, 0, 64, 62
1, 186934, Control_c, 0, 64, 64
1, 186949, Control_c, 0, 64, 65
1, 186951, Note_on_c, 0, 48, 46
1, 186961, Note_on_c, 0, 70, 56
1, 186964, Control_c, 0, 64, 66
1, 186979, Control_c, 0, 64, 66
1, 187013, Note_off_c, 0, 75, 36
1, 187020, Note_off_c, 0, 72, 32
1, 187038, Control_c, 0, 64, 67
1, 187068, Control_c, 0, 64, 67
1, 187074, Note_off_c, 0, 67, 42
1, 187087, Note_off_c, 0, 70, 59
1, 187112, Control_c, 0, 64, 67
1, 187127, Control_c, 0, 64, 63
1, 187134, Note_on_c, 0, 72, 75
1, 187142, Control_c, 0, 64, 56
1, 187156, Note_on_c, 0, 53, 47
1, 187156, Control_c, 0, 64, 39
1, 187171, Control_c, 0, 64, 0
1, 187188, Note_off_c, 0, 48, 39
1, 187190, Note_off_c, 0, 60, 41
1, 187304, Control_c, 0, 64, 14
1, 187319, Control_c, 0, 64, 22
1, 187333, Note_on_c, 0, 67, 51
1, 187334, Control_c, 0, 64, 27
1, 187349, Control_c, 0, 64, 33
1, 187364, Control_c, 0, 64, 39
1, 187379, Control_c, 0, 64, 47
1, 187394, Control_c, 0, 64, 56
1, 187408, Control_c, 0, 64, 60
1, 187423, Control_c, 0, 64, 62
1, 187436, Note_off_c, 0, 67, 52
1, 187438, Control_c, 0, 64, 63
1, 187453, Control_c, 0, 64, 64
1, 187468, Control_c, 0, 64, 65
1, 187477, Note_off_c, 0, 72, 59
1, 187483, Control_c, 0, 64, 68
1, 187498, Control_c, 0, 64, 70
1, 187513, Control_c, 0, 64, 72
1, 187516, Note_off_c, 0, 53, 55
1, 187518, Note_on_c, 0, 51, 51
1, 187525, Note_on_c, 0, 69, 50
1, 187635, Note_off_c, 0, 69, 59
1, 187698, Control_c, 0, 64, 68
1, 187703, Note_on_c, 0, 77, 81
1, 187713, Control_c, 0, 64, 61
1, 187720, Note_on_c, 0, 49, 58
1, 187722, Note_off_c, 0, 51, 46
1, 187728, Control_c, 0, 64, 47
1, 187743, Control_c, 0, 64, 15
1, 187758, Control_c, 0, 64, 0
1, 187891, Control_c, 0, 64, 11
1, 187906, Control_c, 0, 64, 20
1, 187906, Note_on_c, 0, 70, 61
1, 187921, Control_c, 0, 64, 26
1, 187936, Control_c, 0, 64, 31
1, 187943, Note_off_c, 0, 77, 59
1, 187950, Control_c, 0, 64, 36
1, 187965, Control_c, 0, 64, 43
1, 187980, Control_c, 0, 64, 50
1, 187995, Control_c, 0, 64, 55
1, 188010, Control_c, 0, 64, 58
1, 188024, Control_c, 0, 64, 60
1, 188040, Note_off_c, 0, 70, 59
1, 188054, Control_c, 0, 64, 61
1, 188067, Note_off_c, 0, 49, 32
1, 188069, Control_c, 0, 64, 62
1, 188073, Note_on_c, 0, 50, 48
1, 188084, Control_c, 0, 64, 63
1, 188087, Note_on_c, 0, 68, 56
1, 188098, Control_c, 0, 64, 65
1, 188113, Control_c, 0, 64, 65
1, 188157, Control_c, 0, 64, 66
1, 188167, Note_off_c, 0, 68, 58
1, 188172, Control_c, 0, 64, 69
1, 188187, Control_c, 0, 64, 72
1, 188202, Control_c, 0, 64, 73
1, 188217, Control_c, 0, 64, 72
1, 188219, Note_off_c, 0, 50, 55
1, 188231, Control_c, 0, 64, 65
1, 188246, Control_c, 0, 64, 56
1, 188261, Control_c, 0, 64, 29
1, 188264, Note_on_c, 0, 75, 71
1, 188276, Control_c, 0, 64, 0
1, 188278, Note_on_c, 0, 51, 42
1, 188294, Note_on_c, 0, 67, 44
1, 188350, Note_off_c, 0, 67, 56
1, 188380, Control_c, 0, 64, 16
1, 188395, Control_c, 0, 64, 23
1, 188410, Control_c, 0, 64, 29
1, 188423, Note_off_c, 0, 51, 62
1, 188433, Control_c, 0, 64, 33
1, 188447, Control_c, 0, 64, 38
1, 188462, Control_c, 0, 64, 43
1, 188464, Note_on_c, 0, 68, 59
1, 188470, Note_on_c, 0, 53, 49
1, 188477, Control_c, 0, 64, 47
1, 188492, Control_c, 0, 64, 51
1, 188507, Control_c, 0, 64, 54
1, 188521, Control_c, 0, 64, 55
1, 188536, Control_c, 0, 64, 56
1, 188551, Control_c, 0, 64, 56
1, 188566, Control_c, 0, 64, 57
1, 188580, Control_c, 0, 64, 58
1, 188595, Control_c, 0, 64, 58
1, 188602, Note_off_c, 0, 53, 57
1, 188625, Control_c, 0, 64, 58
1, 188636, Note_on_c, 0, 73, 73
1, 188638, Note_on_c, 0, 55, 48
1, 188640, Control_c, 0, 64, 56
1, 188654, Control_c, 0, 64, 53
1, 188657, Note_on_c, 0, 70, 59
1, 188669, Control_c, 0, 64, 49
1, 188670, Note_off_c, 0, 68, 36
1, 188684, Control_c, 0, 64, 43
1, 188699, Control_c, 0, 64, 39
1, 188714, Control_c, 0, 64, 36
1, 188729, Control_c, 0, 64, 36
1, 188740, Note_off_c, 0, 75, 37
1, 188758, Control_c, 0, 64, 35
1, 188773, Control_c, 0, 64, 34
1, 188788, Control_c, 0, 64, 33
1, 188802, Note_off_c, 0, 70, 53
1, 188803, Control_c, 0, 64, 30
1, 188812, Note_off_c, 0, 55, 54
1, 188818, Control_c, 0, 64, 26
1, 188826, Note_off_c, 0, 73, 56
1, 188830, Note_on_c, 0, 56, 51
1, 188832, Note_on_c, 0, 72, 67
1, 188833, Control_c, 0, 64, 15
1, 188847, Control_c, 0, 64, 0
1, 188866, Note_on_c, 0, 63, 35
1, 188931, Note_off_c, 0, 63, 0
1, 188931, Note_on_c, 0, 63, 3
1, 189026, Note_on_c, 0, 60, 50
1, 189058, Note_off_c, 0, 56, 33
1, 189084, Control_c, 0, 64, 11
1, 189100, Control_c, 0, 64, 22
1, 189115, Control_c, 0, 64, 29
1, 189130, Control_c, 0, 64, 35
1, 189144, Control_c, 0, 64, 41
1, 189159, Control_c, 0, 64, 48
1, 189182, Control_c, 0, 64, 53
1, 189195, Note_off_c, 0, 72, 54
1, 189196, Control_c, 0, 64, 57
1, 189211, Control_c, 0, 64, 59
1, 189223, Note_on_c, 0, 58, 60
1, 189226, Control_c, 0, 64, 60
1, 189273, Note_off_c, 0, 60, 38
1, 189340, Note_off_c, 0, 63, 47
1, 189418, Control_c, 0, 64, 58
1, 189432, Note_on_c, 0, 75, 75
1, 189433, Control_c, 0, 64, 54
1, 189437, Note_off_c, 0, 58, 55
1, 189448, Control_c, 0, 64, 44
1, 189449, Note_on_c, 0, 56, 51
1, 189463, Control_c, 0, 64, 30
1, 189477, Control_c, 0, 64, 18
1, 189522, Control_c, 0, 64, 18
1, 189534, Poly_aftertouch_c, 0, 72, 0
1, 189537, Control_c, 0, 64, 20
1, 189551, Control_c, 0, 64, 22
1, 189566, Control_c, 0, 64, 25
1, 189581, Control_c, 0, 64, 28
1, 189596, Control_c, 0, 64, 31
1, 189611, Control_c, 0, 64, 34
1, 189614, Note_on_c, 0, 58, 45
1, 189626, Control_c, 0, 64, 36
1, 189629, Note_on_c, 0, 73, 60
1, 189641, Control_c, 0, 64, 37
1, 189656, Control_c, 0, 64, 38
1, 189670, Control_c, 0, 64, 39
1, 189682, Note_off_c, 0, 56, 33
1, 189685, Control_c, 0, 64, 40
1, 189762, Note_off_c, 0, 58, 58
1, 189789, Control_c, 0, 64, 39
1, 189796, Note_on_c, 0, 55, 46
1, 189800, Note_on_c, 0, 70, 60
1, 189803, Control_c, 0, 64, 38
1, 189809, Note_off_c, 0, 73, 54
1, 189818, Control_c, 0, 64, 38
1, 189833, Control_c, 0, 64, 37
1, 189848, Control_c, 0, 64, 36
1, 189863, Control_c, 0, 64, 36
1, 189877, Control_c, 0, 64, 35
1, 189893, Control_c, 0, 64, 35
1, 189908, Control_c, 0, 64, 33
1, 189927, Note_off_c, 0, 55, 55
1, 189930, Control_c, 0, 64, 31
1, 189945, Control_c, 0, 64, 28
1, 189953, Note_off_c, 0, 70, 56
1, 189960, Control_c, 0, 64, 22
1, 189975, Control_c, 0, 64, 0
1, 189988, Note_on_c, 0, 53, 42
1, 189998, Note_on_c, 0, 68, 48
1, 190169, Note_on_c, 0, 56, 45
1, 190172, Note_on_c, 0, 72, 53
1, 190177, Note_off_c, 0, 68, 42
1, 190181, Note_off_c, 0, 53, 41
1, 190197, Control_c, 0, 64, 14
1, 190212, Control_c, 0, 64, 21
1, 190226, Control_c, 0, 64, 25
1, 190241, Control_c, 0, 64, 29
1, 190256, Control_c, 0, 64, 32
1, 190271, Control_c, 0, 64, 36
1, 190286, Control_c, 0, 64, 40
1, 190300, Control_c, 0, 64, 44
1, 190304, Note_off_c, 0, 56, 58
1, 190315, Control_c, 0, 64, 48
1, 190330, Control_c, 0, 64, 51
1, 190344, Note_on_c, 0, 55, 46
1, 190344, Control_c, 0, 64, 54
1, 190345, Note_on_c, 0, 70, 61
1, 190356, Note_off_c, 0, 75, 57
1, 190359, Control_c, 0, 64, 56
1, 190374, Control_c, 0, 64, 57
1, 190389, Control_c, 0, 64, 58
1, 190404, Control_c, 0, 64, 58
1, 190449, Control_c, 0, 64, 59
1, 190457, Note_off_c, 0, 72, 35
1, 190463, Control_c, 0, 64, 59
1, 190523, Control_c, 0, 64, 58
1, 190537, Control_c, 0, 64, 54
1, 190538, Note_on_c, 0, 73, 73
1, 190552, Control_c, 0, 64, 43
1, 190553, Note_on_c, 0, 53, 51
1, 190559, Note_off_c, 0, 55, 36
1, 190563, Note_on_c, 0, 68, 49
1, 190564, Note_off_c, 0, 70, 58
1, 190567, Control_c, 0, 64, 26
1, 190582, Control_c, 0, 64, 0
1, 190678, Control_c, 0, 64, 10
1, 190684, Note_off_c, 0, 68, 52
1, 190694, Control_c, 0, 64, 15
1, 190709, Control_c, 0, 64, 20
1, 190716, Note_off_c, 0, 53, 55
1, 190723, Control_c, 0, 64, 24
1, 190729, Note_on_c, 0, 67, 52
1, 190738, Control_c, 0, 64, 28
1, 190741, Note_on_c, 0, 52, 45
1, 190753, Control_c, 0, 64, 31
1, 190767, Control_c, 0, 64, 34
1, 190782, Control_c, 0, 64, 37
1, 190797, Control_c, 0, 64, 41
1, 190800, Note_off_c, 0, 73, 64
1, 190812, Control_c, 0, 64, 45
1, 190827, Control_c, 0, 64, 49
1, 190831, Note_off_c, 0, 67, 61
1, 190842, Control_c, 0, 64, 52
1, 190857, Control_c, 0, 64, 53
1, 190872, Control_c, 0, 64, 54
1, 190901, Note_off_c, 0, 52, 51
1, 190903, Note_on_c, 0, 72, 76
1, 190917, Control_c, 0, 64, 54
1, 190922, Note_on_c, 0, 53, 48
1, 190931, Control_c, 0, 64, 55
1, 190932, Note_on_c, 0, 68, 54
1, 190946, Control_c, 0, 64, 56
1, 190990, Note_off_c, 0, 68, 54
1, 191005, Control_c, 0, 64, 56
1, 191020, Control_c, 0, 64, 58
1, 191035, Control_c, 0, 64, 59
1, 191049, Control_c, 0, 64, 59
1, 191057, Note_off_c, 0, 53, 47
1, 191079, Control_c, 0, 64, 58
1, 191091, Note_on_c, 0, 70, 78
1, 191094, Control_c, 0, 64, 54
1, 191109, Control_c, 0, 64, 45
1, 191110, Note_on_c, 0, 55, 46
1, 191119, Note_on_c, 0, 64, 37
1, 191123, Control_c, 0, 64, 18
1, 191138, Control_c, 0, 64, 0
1, 191146, Note_off_c, 0, 72, 58
1, 191202, Note_off_c, 0, 64, 42
1, 191278, Note_on_c, 0, 67, 63
1, 191286, Control_c, 0, 64, 8
1, 191293, Note_off_c, 0, 55, 50
1, 191301, Note_on_c, 0, 58, 50
1, 191301, Control_c, 0, 64, 17
1, 191316, Control_c, 0, 64, 22
1, 191331, Control_c, 0, 64, 25
1, 191346, Control_c, 0, 64, 28
1, 191360, Control_c, 0, 64, 32
1, 191375, Control_c, 0, 64, 35
1, 191390, Control_c, 0, 64, 39
1, 191405, Control_c, 0, 64, 44
1, 191427, Control_c, 0, 64, 49
1, 191441, Control_c, 0, 64, 53
1, 191455, Note_off_c, 0, 70, 57
1, 191456, Control_c, 0, 64, 56
1, 191457, Note_off_c, 0, 67, 60
1, 191463, Note_on_c, 0, 65, 71
1, 191466, Note_off_c, 0, 58, 55
1, 191471, Control_c, 0, 64, 57
1, 191474, Note_on_c, 0, 56, 56
1, 191486, Control_c, 0, 64, 58
1, 191502, Control_c, 0, 64, 59
1, 191517, Control_c, 0, 64, 59
1, 191532, Control_c, 0, 64, 60
1, 191546, Control_c, 0, 64, 61
1, 191561, Control_c, 0, 64, 61
1, 191576, Control_c, 0, 64, 62
1, 191605, Control_c, 0, 64, 63
1, 191620, Control_c, 0, 64, 64
1, 191626, Note_off_c, 0, 56, 64
1, 191650, Control_c, 0, 64, 63
1, 191665, Control_c, 0, 64, 59
1, 191670, Note_on_c, 0, 73, 76
1, 191680, Control_c, 0, 64, 51
1, 191692, Note_on_c, 0, 70, 47
1, 191693, Note_on_c, 0, 55, 42
1, 191695, Control_c, 0, 64, 30
1, 191709, Control_c, 0, 64, 0
1, 191717, Note_off_c, 0, 65, 36
1, 191736, Note_off_c, 0, 70, 60
1, 191813, Control_c, 0, 64, 12
1, 191828, Control_c, 0, 64, 17
1, 191843, Control_c, 0, 64, 19
1, 191858, Control_c, 0, 64, 20
1, 191883, Note_off_c, 0, 55, 50
1, 191889, Note_on_c, 0, 56, 49
1, 191890, Note_on_c, 0, 72, 65
1, 192019, Note_off_c, 0, 56, 57
1, 192042, Note_off_c, 0, 72, 59
1, 192060, Note_on_c, 0, 68, 58
1, 192065, Note_on_c, 0, 53, 47
1, 192204, Note_off_c, 0, 53, 49
1, 192227, Note_off_c, 0, 68, 57
1, 192238, Note_on_c, 0, 52, 46
1, 192246, Note_on_c, 0, 67, 49
1, 192358, Note_off_c, 0, 52, 57
1, 192369, Control_c, 0, 64, 22
1, 192384, Control_c, 0, 64, 23
1, 192399, Control_c, 0, 64, 24
1, 192413, Control_c, 0, 64, 26
1, 192415, Note_off_c, 0, 67, 41
1, 192416, Note_on_c, 0, 70, 55
1, 192420, Note_on_c, 0, 55, 39
1, 192428, Control_c, 0, 64, 28
1, 192443, Control_c, 0, 64, 29
1, 192458, Control_c, 0, 64, 31
1, 192473, Control_c, 0, 64, 33
1, 192487, Control_c, 0, 64, 34
1, 192502, Control_c, 0, 64, 36
1, 192517, Control_c, 0, 64, 38
1, 192532, Control_c, 0, 64, 40
1, 192547, Control_c, 0, 64, 43
1, 192562, Control_c, 0, 64, 46
1, 192577, Control_c, 0, 64, 48
1, 192592, Control_c, 0, 64, 50
1, 192593, Note_on_c, 0, 68, 63
1, 192607, Note_on_c, 0, 53, 52
1, 192607, Control_c, 0, 64, 51
1, 192621, Control_c, 0, 64, 53
1, 192625, Note_off_c, 0, 55, 33
1, 192633, Note_off_c, 0, 73, 37
1, 192636, Control_c, 0, 64, 54
1, 192651, Control_c, 0, 64, 54
1, 192690, Note_off_c, 0, 70, 23
1, 192710, Control_c, 0, 64, 55
1, 192725, Control_c, 0, 64, 57
1, 192739, Control_c, 0, 64, 58
1, 192748, Note_off_c, 0, 68, 37
1, 192769, Control_c, 0, 64, 57
1, 192778, Note_off_c, 0, 53, 35
1, 192781, Note_on_c, 0, 72, 64
1, 192784, Control_c, 0, 64, 53
1, 192792, Note_on_c, 0, 52, 55
1, 192799, Control_c, 0, 64, 44
1, 192813, Control_c, 0, 64, 27
1, 192818, Note_on_c, 0, 67, 39
1, 192828, Control_c, 0, 64, 0
1, 192858, Control_c, 0, 67, 125
1, 192873, Control_c, 0, 67, 116
1, 192887, Control_c, 0, 67, 106
1, 192902, Control_c, 0, 64, 10
1, 192902, Control_c, 0, 67, 98
1, 192925, Control_c, 0, 64, 17
1, 192925, Control_c, 0, 67, 93
1, 192940, Control_c, 0, 64, 24
1, 192940, Control_c, 0, 67, 89
1, 192947, Note_off_c, 0, 52, 59
1, 192954, Control_c, 0, 64, 29
1, 192954, Control_c, 0, 67, 84
1, 192958, Note_off_c, 0, 67, 34
1, 192969, Control_c, 0, 64, 33
1, 192969, Control_c, 0, 67, 81
1, 192984, Control_c, 0, 64, 36
1, 192984, Control_c, 0, 67, 79
1, 192991, Note_on_c, 0, 65, 52
1, 192997, Note_on_c, 0, 50, 43
1, 192999, Control_c, 0, 64, 41
1, 193014, Control_c, 0, 64, 46
1, 193014, Control_c, 0, 67, 79
1, 193028, Control_c, 0, 64, 52
1, 193043, Control_c, 0, 64, 55
1, 193058, Control_c, 0, 64, 57
1, 193073, Control_c, 0, 64, 58
1, 193093, Note_off_c, 0, 65, 61
1, 193118, Control_c, 0, 64, 59
1, 193133, Control_c, 0, 64, 59
1, 193133, Control_c, 0, 67, 78
1, 193148, Control_c, 0, 64, 60
1, 193148, Control_c, 0, 67, 78
1, 193166, Note_on_c, 0, 70, 70
1, 193182, Note_on_c, 0, 52, 56
1, 193190, Note_off_c, 0, 50, 32
1, 193192, Control_c, 0, 64, 60
1, 193197, Note_on_c, 0, 67, 45
1, 193207, Control_c, 0, 64, 61
1, 193222, Control_c, 0, 64, 62
1, 193222, Control_c, 0, 67, 77
1, 193236, Control_c, 0, 64, 64
1, 193251, Control_c, 0, 64, 66
1, 193251, Control_c, 0, 67, 77
1, 193266, Control_c, 0, 64, 68
1, 193281, Control_c, 0, 64, 71
1, 193281, Control_c, 0, 67, 77
1, 193296, Control_c, 0, 64, 72
1, 193310, Control_c, 0, 64, 69
1, 193321, Note_off_c, 0, 67, 35
1, 193325, Control_c, 0, 64, 62
1, 193329, Note_off_c, 0, 52, 34
1, 193340, Control_c, 0, 64, 49
1, 193352, Note_on_c, 0, 68, 70
1, 193355, Note_on_c, 0, 53, 53
1, 193355, Control_c, 0, 64, 21
1, 193355, Control_c, 0, 67, 77
1, 193356, Note_off_c, 0, 72, 33
1, 193370, Control_c, 0, 64, 0
1, 193370, Control_c, 0, 67, 76
1, 193400, Control_c, 0, 67, 76
1, 193429, Control_c, 0, 64, 20
1, 193444, Control_c, 0, 64, 30
1, 193459, Control_c, 0, 64, 37
1, 193461, Note_off_c, 0, 70, 30
1, 193474, Control_c, 0, 64, 45
1, 193474, Control_c, 0, 67, 75
1, 193489, Control_c, 0, 64, 54
1, 193504, Control_c, 0, 64, 60
1, 193504, Control_c, 0, 67, 74
1, 193518, Control_c, 0, 64, 63
1, 193533, Control_c, 0, 64, 64
1, 193533, Control_c, 0, 67, 73
1, 193547, Note_on_c, 0, 60, 72
1, 193548, Note_on_c, 0, 51, 64
1, 193548, Control_c, 0, 64, 65
1, 193548, Control_c, 0, 67, 72
1, 193562, Control_c, 0, 64, 65
1, 193562, Control_c, 0, 67, 72
1, 193577, Control_c, 0, 64, 67
1, 193577, Control_c, 0, 67, 71
1, 193592, Control_c, 0, 64, 69
1, 193592, Control_c, 0, 67, 70
1, 193596, Note_off_c, 0, 53, 36
1, 193607, Control_c, 0, 64, 72
1, 193607, Control_c, 0, 67, 69
1, 193622, Control_c, 0, 64, 73
1, 193622, Control_c, 0, 67, 66
1, 193636, Control_c, 0, 64, 74
1, 193636, Control_c, 0, 67, 63
1, 193637, Note_off_c, 0, 68, 35
1, 193651, Control_c, 0, 64, 78
1, 193651, Control_c, 0, 67, 61
1, 193674, Control_c, 0, 64, 100
1, 193674, Control_c, 0, 67, 58
1, 193689, Control_c, 0, 64, 127
1, 193689, Control_c, 0, 67, 55
1, 193703, Control_c, 0, 67, 53
1, 193714, Note_off_c, 0, 51, 54
1, 193718, Control_c, 0, 67, 51
1, 193727, Note_off_c, 0, 60, 56
1, 193732, Note_on_c, 0, 70, 82
1, 193733, Control_c, 0, 67, 50
1, 193736, Note_on_c, 0, 50, 62
1, 193748, Control_c, 0, 64, 83
1, 193754, Note_on_c, 0, 65, 56
1, 193763, Control_c, 0, 64, 68
1, 193777, Control_c, 0, 64, 60
1, 193793, Control_c, 0, 64, 56
1, 193805, Note_off_c, 0, 50, 63
1, 193808, Control_c, 0, 64, 58
1, 193823, Control_c, 0, 64, 62
1, 193823, Control_c, 0, 67, 49
1, 193838, Control_c, 0, 64, 65
1, 193852, Control_c, 0, 64, 72
1, 193867, Control_c, 0, 64, 77
1, 193867, Control_c, 0, 67, 49
1, 193882, Control_c, 0, 64, 73
1, 193897, Control_c, 0, 64, 62
1, 193906, Note_on_c, 0, 67, 81
1, 193911, Note_off_c, 0, 70, 50
1, 193912, Note_on_c, 0, 51, 68
1, 193912, Control_c, 0, 64, 45
1, 193927, Control_c, 0, 64, 0
1, 193942, Note_off_c, 0, 65, 54
1, 193942, Control_c, 0, 67, 48
1, 193957, Control_c, 0, 67, 47
1, 193972, Control_c, 0, 67, 43
1, 193986, Control_c, 0, 64, 28
1, 193986, Control_c, 0, 67, 37
1, 194001, Control_c, 0, 64, 40
1, 194001, Control_c, 0, 67, 31
1, 194016, Control_c, 0, 64, 53
1, 194016, Control_c, 0, 67, 23
1, 194031, Control_c, 0, 64, 67
1, 194031, Control_c, 0, 67, 11
1, 194046, Control_c, 0, 64, 94
1, 194046, Control_c, 0, 67, 0
1, 194060, Control_c, 0, 64, 111
1, 194075, Control_c, 0, 64, 99
1, 194090, Note_on_c, 0, 63, 79
1, 194090, Control_c, 0, 64, 79
1, 194098, Note_on_c, 0, 48, 68
1, 194105, Control_c, 0, 64, 68
1, 194120, Control_c, 0, 64, 62
1, 194134, Control_c, 0, 64, 62
1, 194149, Control_c, 0, 64, 65
1, 194164, Control_c, 0, 64, 71
1, 194179, Control_c, 0, 64, 87
1, 194193, Control_c, 0, 64, 95
1, 194208, Control_c, 0, 64, 86
1, 194219, Note_off_c, 0, 63, 57
1, 194223, Control_c, 0, 64, 71
1, 194238, Control_c, 0, 64, 59
1, 194253, Control_c, 0, 64, 49
1, 194258, Note_on_c, 0, 68, 77
1, 194264, Note_on_c, 0, 63, 39
1, 194267, Control_c, 0, 64, 53
1, 194269, Note_off_c, 0, 67, 32
1, 194273, Note_on_c, 0, 44, 70
1, 194282, Control_c, 0, 64, 62
1, 194297, Control_c, 0, 64, 71
1, 194312, Control_c, 0, 64, 88
1, 194323, Note_off_c, 0, 51, 37
1, 194327, Control_c, 0, 64, 127
1, 194346, Note_off_c, 0, 48, 58
1, 194375, Note_off_c, 0, 68, 57
1, 194401, Control_c, 0, 64, 105
1, 194404, Note_off_c, 0, 63, 37
1, 194423, Control_c, 0, 64, 63
1, 194428, Note_on_c, 0, 67, 74
1, 194437, Note_on_c, 0, 45, 83
1, 194438, Control_c, 0, 64, 38
1, 194453, Control_c, 0, 64, 0
1, 194459, Note_off_c, 0, 67, 62
1, 194467, Note_off_c, 0, 44, 49
1, 194467, Control_c, 0, 64, 10
1, 194477, Note_on_c, 0, 65, 62
1, 194482, Control_c, 0, 64, 27
1, 194497, Control_c, 0, 64, 38
1, 194512, Control_c, 0, 64, 50
1, 194526, Control_c, 0, 64, 65
1, 194532, Note_on_c, 0, 62, 66
1, 194541, Control_c, 0, 64, 106
1, 194550, Note_off_c, 0, 65, 62
1, 194556, Control_c, 0, 64, 127
1, 194562, Note_on_c, 0, 67, 75
1, 194571, Control_c, 0, 64, 91
1, 194586, Control_c, 0, 64, 73
1, 194588, Note_off_c, 0, 62, 63
1, 194601, Control_c, 0, 64, 63
1, 194616, Control_c, 0, 64, 58
1, 194616, Note_off_c, 0, 45, 64
1, 194622, Note_off_c, 0, 67, 61
1, 194622, Note_on_c, 0, 46, 84
1, 194631, Control_c, 0, 64, 60
1, 194631, Note_on_c, 0, 65, 62
1, 194646, Control_c, 0, 64, 67
1, 194661, Control_c, 0, 64, 82
1, 194675, Note_off_c, 0, 65, 61
1, 194675, Control_c, 0, 64, 94
1, 194686, Note_on_c, 0, 67, 68
1, 194690, Control_c, 0, 64, 102
1, 194705, Control_c, 0, 64, 109
1, 194720, Control_c, 0, 64, 111
1, 194735, Control_c, 0, 64, 113
1, 194740, Note_on_c, 0, 65, 54
1, 194750, Control_c, 0, 64, 127
1, 194790, Note_off_c, 0, 67, 60
1, 194811, Note_on_c, 0, 63, 84
1, 194811, Note_off_c, 0, 65, 66
1, 194823, Note_on_c, 0, 56, 78
1, 194917, Note_off_c, 0, 56, 60
1, 194941, Note_on_c, 0, 65, 75
1, 194962, Note_off_c, 0, 63, 59
1, 195076, Control_c, 0, 64, 79
1, 195090, Control_c, 0, 64, 61
1, 195105, Control_c, 0, 64, 39
1, 195107, Note_off_c, 0, 65, 60
1, 195111, Note_on_c, 0, 51, 85
1, 195120, Note_on_c, 0, 39, 66
1, 195120, Control_c, 0, 64, 0
1, 195129, Note_off_c, 0, 46, 61
1, 195130, Note_on_c, 0, 55, 57
1, 195276, Control_c, 0, 64, 14
1, 195290, Control_c, 0, 64, 30
1, 195304, Control_c, 0, 64, 42
1, 195319, Control_c, 0, 64, 56
1, 195334, Control_c, 0, 64, 70
1, 195349, Control_c, 0, 64, 92
1, 195364, Control_c, 0, 64, 108
1, 195379, Control_c, 0, 64, 127
1, 195392, Note_on_c, 0, 63, 70
1, 195409, Note_off_c, 0, 39, 58
1, 195449, Note_off_c, 0, 55, 59
1, 195454, Note_off_c, 0, 51, 62
1, 195574, Note_on_c, 0, 61, 78
1, 195589, Note_off_c, 0, 63, 57
1, 195757, Note_off_c, 0, 61, 56
1, 195764, Note_on_c, 0, 56, 83
1, 195764, Control_c, 0, 64, 79
1, 195778, Note_on_c, 0, 60, 63
1, 195779, Control_c, 0, 64, 56
1, 195780, Note_on_c, 0, 44, 63
1, 195794, Control_c, 0, 64, 18
1, 195809, Control_c, 0, 64, 0
1, 195868, Control_c, 0, 64, 16
1, 195883, Control_c, 0, 64, 32
1, 195898, Control_c, 0, 64, 48
1, 195920, Control_c, 0, 64, 62
1, 195935, Control_c, 0, 64, 87
1, 195950, Control_c, 0, 64, 127
1, 195961, Note_off_c, 0, 60, 36
1, 195975, Note_on_c, 0, 70, 65
1, 195977, Note_on_c, 0, 61, 62
1, 196048, Note_off_c, 0, 56, 64
1, 196076, Note_off_c, 0, 44, 60
1, 196089, Note_off_c, 0, 70, 57
1, 196103, Note_off_c, 0, 61, 60
1, 196151, Note_on_c, 0, 67, 71
1, 196157, Note_on_c, 0, 58, 60
1, 196223, Note_off_c, 0, 67, 61
1, 196224, Note_off_c, 0, 58, 61
1, 196331, Note_on_c, 0, 53, 89
1, 196336, Control_c, 0, 64, 69
1, 196347, Note_on_c, 0, 41, 65
1, 196351, Control_c, 0, 64, 49
1, 196351, Note_on_c, 0, 68, 64
1, 196361, Note_on_c, 0, 56, 58
1, 196366, Control_c, 0, 64, 0
1, 196394, Note_off_c, 0, 68, 0
1, 196394, Note_on_c, 0, 68, 24
1, 196425, Control_c, 0, 64, 27
1, 196440, Control_c, 0, 64, 42
1, 196455, Control_c, 0, 64, 58
1, 196469, Control_c, 0, 64, 84
1, 196484, Control_c, 0, 64, 127
1, 196516, Poly_aftertouch_c, 0, 66, 127
1, 196540, Note_off_c, 0, 41, 57
1, 196541, Note_on_c, 0, 58, 65
1, 196550, Note_off_c, 0, 56, 27
1, 196617, Note_off_c, 0, 53, 63
1, 196622, Poly_aftertouch_c, 0, 66, 0
1, 196667, Note_off_c, 0, 68, 40
1, 196700, Note_off_c, 0, 58, 62
1, 196726, Note_on_c, 0, 60, 74
1, 196874, Note_off_c, 0, 60, 53
1, 196891, Control_c, 0, 64, 105
1, 196905, Control_c, 0, 64, 62
1, 196907, Note_on_c, 0, 58, 85
1, 196916, Note_on_c, 0, 67, 72
1, 196920, Note_on_c, 0, 46, 70
1, 196920, Control_c, 0, 64, 33
1, 196935, Control_c, 0, 64, 0
1, 196938, Note_on_c, 0, 61, 53
1, 196995, Control_c, 0, 64, 22
1, 197010, Control_c, 0, 64, 37
1, 197024, Control_c, 0, 64, 51
1, 197039, Control_c, 0, 64, 65
1, 197054, Control_c, 0, 64, 104
1, 197069, Control_c, 0, 64, 127
1, 197118, Note_on_c, 0, 63, 78
1, 197144, Note_off_c, 0, 61, 63
1, 197148, Note_off_c, 0, 58, 63
1, 197159, Note_off_c, 0, 67, 57
1, 197210, Note_off_c, 0, 46, 58
1, 197287, Note_off_c, 0, 63, 63
1, 197293, Note_on_c, 0, 60, 75
1, 197352, Note_off_c, 0, 60, 64
1, 197448, Control_c, 0, 64, 99
1, 197463, Control_c, 0, 64, 61
1, 197475, Note_on_c, 0, 55, 86
1, 197478, Control_c, 0, 64, 30
1, 197488, Note_on_c, 0, 43, 62
1, 197492, Control_c, 0, 64, 0
1, 197495, Note_on_c, 0, 58, 76
1, 197501, Note_on_c, 0, 70, 71
1, 197535, Control_c, 0, 64, 25
1, 197550, Control_c, 0, 64, 40
1, 197565, Control_c, 0, 64, 54
1, 197580, Control_c, 0, 64, 68
1, 197581, Note_off_c, 0, 58, 59
1, 197595, Control_c, 0, 64, 106
1, 197609, Control_c, 0, 64, 127
1, 197681, Note_off_c, 0, 43, 59
1, 197698, Note_on_c, 0, 60, 53
1, 197705, Note_on_c, 0, 59, 51
1, 197736, Note_off_c, 0, 59, 54
1, 197764, Note_off_c, 0, 55, 57
1, 197864, Note_on_c, 0, 61, 79
1, 197893, Note_off_c, 0, 60, 48
1, 197946, Note_off_c, 0, 70, 56
1, 197953, Note_off_c, 0, 61, 64
1, 198040, Control_c, 0, 64, 104
1, 198042, Note_on_c, 0, 60, 85
1, 198055, Control_c, 0, 64, 61
1, 198056, Note_on_c, 0, 63, 76
1, 198062, Note_on_c, 0, 48, 68
1, 198070, Control_c, 0, 64, 27
1, 198085, Control_c, 0, 64, 0
1, 198159, Note_off_c, 0, 63, 61
1, 198181, Control_c, 0, 64, 15
1, 198196, Control_c, 0, 64, 35
1, 198211, Control_c, 0, 64, 49
1, 198226, Control_c, 0, 64, 62
1, 198240, Control_c, 0, 64, 79
1, 198242, Note_on_c, 0, 67, 81
1, 198255, Control_c, 0, 64, 113
1, 198256, Note_on_c, 0, 63, 68
1, 198270, Control_c, 0, 64, 127
1, 198297, Note_off_c, 0, 60, 65
1, 198301, Note_off_c, 0, 48, 64
1, 198430, Note_on_c, 0, 68, 79
1, 198477, Note_off_c, 0, 63, 41
1, 198477, Note_off_c, 0, 67, 54
1, 198607, Note_on_c, 0, 58, 82
1, 198610, Control_c, 0, 64, 90
1, 198618, Note_on_c, 0, 62, 69
1, 198620, Note_on_c, 0, 46, 71
1, 198623, Note_off_c, 0, 68, 46
1, 198625, Control_c, 0, 64, 59
1, 198640, Control_c, 0, 64, 21
1, 198655, Control_c, 0, 64, 0
1, 198729, Control_c, 0, 64, 21
1, 198744, Control_c, 0, 64, 35
1, 198759, Control_c, 0, 64, 51
1, 198774, Control_c, 0, 64, 64
1, 198789, Control_c, 0, 64, 81
1, 198804, Control_c, 0, 64, 97
1, 198807, Note_on_c, 0, 70, 76
1, 198811, Note_off_c, 0, 58, 63
1, 198819, Control_c, 0, 64, 100
1, 198834, Control_c, 0, 64, 127
1, 198873, Note_off_c, 0, 46, 52
1, 198931, Note_off_c, 0, 62, 59
1, 198943, Note_off_c, 0, 70, 60
1, 198968, Note_on_c, 0, 56, 85
1, 198989, Note_on_c, 0, 44, 64
1, 198991, Note_on_c, 0, 72, 77
1, 199042, Note_off_c, 0, 44, 59
1, 199054, Note_off_c, 0, 56, 64
1, 199100, Note_off_c, 0, 72, 58
1, 199152, Control_c, 0, 64, 72
1, 199167, Control_c, 0, 64, 53
1, 199171, Note_on_c, 0, 55, 84
1, 199174, Note_on_c, 0, 63, 69
1, 199181, Control_c, 0, 64, 0
1, 199186, Note_on_c, 0, 43, 60
1, 199362, Note_on_c, 0, 69, 79
1, 199374, Control_c, 0, 64, 24
1, 199388, Control_c, 0, 64, 40
1, 199403, Control_c, 0, 64, 53
1, 199418, Control_c, 0, 64, 63
1, 199421, Note_off_c, 0, 63, 51
1, 199433, Control_c, 0, 64, 72
1, 199433, Note_off_c, 0, 43, 37
1, 199448, Control_c, 0, 64, 82
1, 199463, Control_c, 0, 64, 111
1, 199471, Note_off_c, 0, 55, 62
1, 199478, Control_c, 0, 64, 127
1, 199528, Note_off_c, 0, 69, 60
1, 199543, Note_on_c, 0, 70, 78
1, 199760, Note_off_c, 0, 70, 37
1, 199764, Note_on_c, 0, 58, 84
1, 199775, Note_on_c, 0, 61, 61
1, 199782, Note_on_c, 0, 46, 68
1, 199784, Note_on_c, 0, 63, 57
1, 199797, Control_c, 0, 64, 73
1, 199812, Control_c, 0, 64, 56
1, 199826, Control_c, 0, 64, 0
1, 199977, Note_on_c, 0, 65, 68
1, 200008, Note_off_c, 0, 63, 61
1, 200143, Note_off_c, 0, 65, 64
1, 200148, Note_on_c, 0, 67, 66
1, 200318, Note_off_c, 0, 67, 63
1, 200329, Note_on_c, 0, 68, 69
1, 200442, Control_c, 0, 64, 9
1, 200457, Control_c, 0, 64, 19
1, 200472, Control_c, 0, 64, 27
1, 200486, Control_c, 0, 64, 37
1, 200501, Control_c, 0, 64, 47
1, 200509, Note_on_c, 0, 65, 64
1, 200516, Control_c, 0, 64, 58
1, 200532, Control_c, 0, 64, 64
1, 200547, Control_c, 0, 64, 67
1, 200555, Note_off_c, 0, 68, 58
1, 200561, Control_c, 0, 64, 68
1, 200576, Control_c, 0, 64, 70
1, 200584, Note_off_c, 0, 58, 60
1, 200591, Control_c, 0, 64, 80
1, 200606, Control_c, 0, 64, 95
1, 200621, Control_c, 0, 64, 106
1, 200635, Control_c, 0, 64, 119
1, 200650, Control_c, 0, 64, 127
1, 200699, Note_on_c, 0, 67, 77
1, 200733, Note_off_c, 0, 61, 60
1, 200763, Note_off_c, 0, 65, 57
1, 200873, Control_c, 0, 64, 66
1, 200886, Note_on_c, 0, 60, 81
1, 200887, Control_c, 0, 64, 44
1, 200891, Note_on_c, 0, 44, 60
1, 200892, Note_on_c, 0, 56, 65
1, 200894, Note_off_c, 0, 46, 35
1, 200902, Control_c, 0, 64, 0
1, 200922, Note_off_c, 0, 67, 51
1, 200976, Control_c, 0, 64, 16
1, 200991, Control_c, 0, 64, 26
1, 201006, Control_c, 0, 64, 35
1, 201021, Control_c, 0, 64, 44
1, 201035, Control_c, 0, 64, 55
1, 201050, Control_c, 0, 64, 62
1, 201065, Control_c, 0, 64, 66
1, 201066, Note_off_c, 0, 56, 60
1, 201075, Note_on_c, 0, 68, 68
1, 201081, Control_c, 0, 64, 67
1, 201096, Control_c, 0, 64, 71
1, 201110, Control_c, 0, 64, 82
1, 201118, Note_off_c, 0, 44, 57
1, 201125, Control_c, 0, 64, 111
1, 201140, Control_c, 0, 64, 127
1, 201220, Note_off_c, 0, 68, 53
1, 201256, Note_on_c, 0, 70, 67
1, 201268, Note_on_c, 0, 54, 64
1, 201270, Note_on_c, 0, 42, 55
1, 201303, Note_off_c, 0, 60, 64
1, 201321, Note_off_c, 0, 42, 61
1, 201336, Note_off_c, 0, 54, 61
1, 201443, Control_c, 0, 64, 81
1, 201448, Note_on_c, 0, 61, 75
1, 201457, Note_on_c, 0, 41, 47
1, 201457, Control_c, 0, 64, 61
1, 201460, Note_on_c, 0, 53, 50
1, 201472, Control_c, 0, 64, 37
1, 201487, Control_c, 0, 64, 0
1, 201500, Note_off_c, 0, 70, 50
1, 201650, Note_on_c, 0, 67, 54
1, 201650, Control_c, 0, 64, 12
1, 201665, Control_c, 0, 64, 27
1, 201680, Control_c, 0, 64, 36
1, 201694, Control_c, 0, 64, 43
1, 201709, Control_c, 0, 64, 52
1, 201724, Control_c, 0, 64, 59
1, 201739, Control_c, 0, 64, 62
1, 201754, Control_c, 0, 64, 63
1, 201758, Note_off_c, 0, 41, 46
1, 201768, Control_c, 0, 64, 63
1, 201783, Control_c, 0, 64, 64
1, 201798, Control_c, 0, 64, 67
1, 201813, Control_c, 0, 64, 72
1, 201827, Control_c, 0, 64, 76
1, 201856, Note_on_c, 0, 68, 43
1, 201888, Control_c, 0, 64, 76
1, 201910, Control_c, 0, 64, 77
1, 201913, Note_off_c, 0, 67, 37
1, 201949, Note_off_c, 0, 61, 48
1, 201985, Control_c, 0, 64, 76
1, 202000, Control_c, 0, 64, 75
1, 202014, Control_c, 0, 64, 73
1, 202029, Control_c, 0, 64, 71
1, 202044, Control_c, 0, 64, 69
1, 202059, Control_c, 0, 64, 67
1, 202074, Control_c, 0, 64, 66
1, 202088, Control_c, 0, 64, 65
1, 202093, Note_on_c, 0, 62, 56
1, 202103, Control_c, 0, 64, 63
1, 202118, Control_c, 0, 64, 61
1, 202132, Control_c, 0, 64, 59
1, 202147, Control_c, 0, 64, 55
1, 202162, Control_c, 0, 64, 51
1, 202177, Control_c, 0, 64, 48
1, 202183, Note_off_c, 0, 68, 33
1, 202192, Control_c, 0, 64, 46
1, 202236, Control_c, 0, 64, 45
1, 202250, Control_c, 0, 64, 44
1, 202265, Control_c, 0, 64, 42
1, 202280, Control_c, 0, 64, 40
1, 202289, Note_on_c, 0, 70, 49
1, 202292, Note_off_c, 0, 53, 41
1, 202295, Control_c, 0, 64, 39
1, 202302, Note_on_c, 0, 54, 39
1, 202310, Control_c, 0, 64, 37
1, 202324, Control_c, 0, 64, 35
1, 202339, Control_c, 0, 64, 31
1, 202354, Control_c, 0, 64, 28
1, 202369, Control_c, 0, 64, 24
1, 202384, Control_c, 0, 64, 22
1, 202399, Control_c, 0, 64, 20
1, 202414, Control_c, 0, 64, 19
1, 202475, Note_on_c, 0, 68, 49
1, 202489, Note_on_c, 0, 53, 32
1, 202495, Note_off_c, 0, 54, 37
1, 202636, Control_c, 0, 64, 18
1, 202653, Note_on_c, 0, 63, 59
1, 202658, Control_c, 0, 64, 18
1, 202674, Control_c, 0, 64, 15
1, 202689, Control_c, 0, 64, 0
1, 202795, Note_off_c, 0, 68, 36
1, 202816, Note_off_c, 0, 70, 43
1, 202858, Note_on_c, 0, 65, 44
1, 202862, Note_on_c, 0, 50, 38
1, 202922, Note_off_c, 0, 62, 54
1, 202934, Note_off_c, 0, 53, 43
1, 202955, Control_c, 0, 64, 9
1, 202970, Control_c, 0, 64, 13
1, 202985, Control_c, 0, 64, 17
1, 203000, Control_c, 0, 64, 20
1, 203009, Note_off_c, 0, 65, 61
1, 203015, Control_c, 0, 64, 23
1, 203029, Control_c, 0, 64, 27
1, 203036, Note_on_c, 0, 51, 41
1, 203040, Note_on_c, 0, 66, 52
1, 203044, Control_c, 0, 64, 30
1, 203059, Control_c, 0, 64, 33
1, 203067, Note_off_c, 0, 50, 38
1, 203073, Control_c, 0, 64, 36
1, 203088, Control_c, 0, 64, 39
1, 203103, Control_c, 0, 64, 43
1, 203118, Control_c, 0, 64, 48
1, 203133, Control_c, 0, 64, 53
1, 203147, Control_c, 0, 64, 59
1, 203162, Control_c, 0, 64, 62
1, 203177, Control_c, 0, 64, 63
1, 203192, Control_c, 0, 64, 60
1, 203207, Note_on_c, 0, 58, 69
1, 203207, Control_c, 0, 64, 54
1, 203222, Control_c, 0, 64, 45
1, 203237, Control_c, 0, 64, 32
1, 203252, Control_c, 0, 64, 21
1, 203281, Control_c, 0, 64, 21
1, 203296, Control_c, 0, 64, 23
1, 203311, Control_c, 0, 64, 26
1, 203326, Control_c, 0, 64, 28
1, 203336, Note_off_c, 0, 66, 35
1, 203341, Control_c, 0, 64, 31
1, 203355, Control_c, 0, 64, 34
1, 203370, Control_c, 0, 64, 38
1, 203375, Note_off_c, 0, 51, 59
1, 203385, Control_c, 0, 64, 42
1, 203407, Control_c, 0, 64, 47
1, 203418, Note_on_c, 0, 53, 43
1, 203422, Control_c, 0, 64, 52
1, 203430, Note_on_c, 0, 68, 48
1, 203436, Control_c, 0, 64, 55
1, 203451, Control_c, 0, 64, 58
1, 203466, Control_c, 0, 64, 58
1, 203484, Note_off_c, 0, 58, 61
1, 203505, Note_off_c, 0, 63, 42
1, 203505, Note_off_c, 0, 68, 43
1, 203511, Control_c, 0, 64, 59
1, 203526, Control_c, 0, 64, 59
1, 203541, Control_c, 0, 64, 60
1, 203595, Note_on_c, 0, 60, 67
1, 203604, Note_on_c, 0, 66, 54
1, 203615, Control_c, 0, 64, 59
1, 203621, Note_on_c, 0, 51, 38
1, 203630, Control_c, 0, 64, 58
1, 203645, Control_c, 0, 64, 56
1, 203647, Note_off_c, 0, 53, 32
1, 203660, Control_c, 0, 64, 56
1, 203675, Control_c, 0, 64, 55
1, 203690, Control_c, 0, 64, 54
1, 203704, Control_c, 0, 64, 53
1, 203719, Control_c, 0, 64, 52
1, 203734, Control_c, 0, 64, 50
1, 203749, Control_c, 0, 64, 47
1, 203764, Control_c, 0, 64, 44
1, 203774, Note_off_c, 0, 66, 31
1, 203778, Control_c, 0, 64, 40
1, 203788, Note_on_c, 0, 61, 64
1, 203793, Control_c, 0, 64, 34
1, 203808, Control_c, 0, 64, 24
1, 203823, Control_c, 0, 64, 0
1, 203939, Note_off_c, 0, 60, 56
1, 203992, Note_on_c, 0, 64, 48
1, 203995, Note_on_c, 0, 48, 42
1, 204003, Note_off_c, 0, 51, 34
1, 204104, Control_c, 0, 64, 16
1, 204119, Control_c, 0, 64, 24
1, 204121, Note_off_c, 0, 64, 55
1, 204134, Control_c, 0, 64, 31
1, 204156, Control_c, 0, 64, 38
1, 204164, Note_off_c, 0, 48, 35
1, 204171, Control_c, 0, 64, 47
1, 204182, Note_on_c, 0, 49, 41
1, 204185, Control_c, 0, 64, 55
1, 204192, Note_on_c, 0, 65, 45
1, 204200, Control_c, 0, 64, 60
1, 204215, Control_c, 0, 64, 62
1, 204229, Control_c, 0, 64, 62
1, 204244, Control_c, 0, 64, 64
1, 204249, Note_off_c, 0, 65, 0
1, 204249, Note_on_c, 0, 65, 9
1, 204259, Control_c, 0, 64, 65
1, 204276, Control_c, 0, 64, 68
1, 204291, Control_c, 0, 64, 71
1, 204306, Control_c, 0, 64, 73
1, 204335, Control_c, 0, 64, 74
1, 204344, Note_off_c, 0, 61, 45
1, 204350, Control_c, 0, 64, 76
1, 204365, Control_c, 0, 64, 80
1, 204380, Control_c, 0, 64, 84
1, 204394, Control_c, 0, 64, 85
1, 204401, Note_on_c, 0, 56, 71
1, 204409, Control_c, 0, 64, 82
1, 204424, Control_c, 0, 64, 73
1, 204439, Control_c, 0, 64, 63
1, 204453, Control_c, 0, 64, 50
1, 204468, Control_c, 0, 64, 24
1, 204483, Control_c, 0, 64, 0
1, 204542, Control_c, 0, 64, 14
1, 204557, Control_c, 0, 64, 23
1, 204572, Control_c, 0, 64, 31
1, 204575, Note_off_c, 0, 49, 51
1, 204585, Note_off_c, 0, 65, 59
1, 204587, Control_c, 0, 64, 39
1, 204602, Control_c, 0, 64, 48
1, 204602, Note_on_c, 0, 47, 43
1, 204614, Note_on_c, 0, 62, 53
1, 204617, Control_c, 0, 64, 56
1, 204632, Control_c, 0, 64, 61
1, 204646, Control_c, 0, 64, 63
1, 204661, Control_c, 0, 64, 64
1, 204676, Control_c, 0, 64, 65
1, 204691, Control_c, 0, 64, 66
1, 204703, Note_off_c, 0, 56, 59
1, 204706, Control_c, 0, 64, 69
1, 204720, Control_c, 0, 64, 73
1, 204735, Control_c, 0, 64, 76
1, 204750, Control_c, 0, 64, 76
1, 204765, Note_off_c, 0, 47, 36
1, 204780, Control_c, 0, 64, 77
1, 204788, Note_on_c, 0, 48, 41
1, 204793, Note_on_c, 0, 63, 50
1, 204794, Control_c, 0, 64, 80
1, 204801, Note_off_c, 0, 62, 60
1, 204809, Control_c, 0, 64, 83
1, 204824, Control_c, 0, 64, 85
1, 204868, Control_c, 0, 64, 85
1, 204872, Note_off_c, 0, 63, 49
1, 204883, Control_c, 0, 64, 88
1, 204906, Control_c, 0, 64, 91
1, 204921, Control_c, 0, 64, 94
1, 204935, Control_c, 0, 64, 94
1, 204950, Control_c, 0, 64, 93
1, 204965, Control_c, 0, 64, 82
1, 204971, Note_on_c, 0, 61, 71
1, 204978, Note_off_c, 0, 48, 43
1, 204980, Control_c, 0, 64, 65
1, 204988, Note_on_c, 0, 67, 62
1, 204989, Note_on_c, 0, 46, 50
1, 204995, Control_c, 0, 64, 52
1, 205009, Control_c, 0, 64, 20
1, 205024, Control_c, 0, 64, 0
1, 205114, Control_c, 0, 64, 14
1, 205129, Control_c, 0, 64, 25
1, 205144, Control_c, 0, 64, 34
1, 205151, Note_off_c, 0, 67, 57
1, 205153, Note_off_c, 0, 46, 59
1, 205158, Control_c, 0, 64, 43
1, 205164, Note_on_c, 0, 68, 56
1, 205173, Control_c, 0, 64, 53
1, 205188, Control_c, 0, 64, 60
1, 205193, Note_on_c, 0, 48, 43
1, 205203, Control_c, 0, 64, 64
1, 205217, Control_c, 0, 64, 65
1, 205232, Control_c, 0, 64, 66
1, 205247, Control_c, 0, 64, 67
1, 205262, Control_c, 0, 64, 71
1, 205276, Control_c, 0, 64, 76
1, 205291, Control_c, 0, 64, 80
1, 205306, Control_c, 0, 64, 81
1, 205335, Note_on_c, 0, 65, 66
1, 205336, Control_c, 0, 64, 81
1, 205350, Control_c, 0, 64, 85
1, 205356, Note_on_c, 0, 44, 45
1, 205365, Control_c, 0, 64, 93
1, 205369, Note_off_c, 0, 68, 36
1, 205375, Note_off_c, 0, 48, 43
1, 205380, Note_off_c, 0, 61, 43
1, 205380, Control_c, 0, 64, 95
1, 205439, Control_c, 0, 64, 98
1, 205454, Control_c, 0, 64, 103
1, 205469, Control_c, 0, 64, 105
1, 205514, Control_c, 0, 64, 91
1, 205523, Note_on_c, 0, 58, 79
1, 205529, Control_c, 0, 64, 71
1, 205534, Note_off_c, 0, 44, 35
1, 205538, Note_on_c, 0, 43, 48
1, 205543, Control_c, 0, 64, 52
1, 205558, Control_c, 0, 64, 0
1, 205566, Note_on_c, 0, 63, 43
1, 205580, Note_off_c, 0, 65, 36
1, 205669, Control_c, 0, 64, 10
1, 205684, Control_c, 0, 64, 27
1, 205699, Control_c, 0, 64, 38
1, 205714, Control_c, 0, 64, 49
1, 205729, Control_c, 0, 64, 60
1, 205738, Note_on_c, 0, 44, 57
1, 205740, Note_on_c, 0, 65, 64
1, 205744, Control_c, 0, 64, 70
1, 205758, Control_c, 0, 64, 76
1, 205762, Note_off_c, 0, 63, 32
1, 205772, Control_c, 0, 64, 79
1, 205787, Control_c, 0, 64, 83
1, 205788, Note_off_c, 0, 58, 60
1, 205801, Control_c, 0, 64, 94
1, 205813, Note_off_c, 0, 43, 27
1, 205816, Control_c, 0, 64, 122
1, 205831, Control_c, 0, 64, 127
1, 205899, Note_off_c, 0, 44, 59
1, 205918, Note_on_c, 0, 46, 60
1, 205921, Note_on_c, 0, 67, 72
1, 205950, Note_off_c, 0, 65, 57
1, 205988, Note_off_c, 0, 67, 61
1, 206066, Note_off_c, 0, 46, 63
1, 206092, Note_on_c, 0, 63, 89
1, 206105, Note_on_c, 0, 48, 56
1, 206113, Control_c, 0, 64, 67
1, 206122, Note_on_c, 0, 68, 62
1, 206128, Control_c, 0, 64, 42
1, 206143, Control_c, 0, 64, 0
1, 206277, Control_c, 0, 64, 22
1, 206282, Note_off_c, 0, 68, 59
1, 206291, Control_c, 0, 64, 32
1, 206298, Note_on_c, 0, 49, 60
1, 206306, Control_c, 0, 64, 43
1, 206307, Note_on_c, 0, 70, 59
1, 206321, Control_c, 0, 64, 53
1, 206336, Control_c, 0, 64, 61
1, 206351, Control_c, 0, 64, 65
1, 206353, Note_off_c, 0, 48, 33
1, 206365, Control_c, 0, 64, 69
1, 206380, Control_c, 0, 64, 72
1, 206402, Control_c, 0, 64, 78
1, 206417, Control_c, 0, 64, 87
1, 206432, Control_c, 0, 64, 97
1, 206447, Control_c, 0, 64, 110
1, 206462, Control_c, 0, 64, 127
1, 206481, Note_on_c, 0, 66, 68
1, 206487, Note_on_c, 0, 46, 60
1, 206495, Note_off_c, 0, 49, 54
1, 206495, Note_off_c, 0, 63, 61
1, 206584, Note_off_c, 0, 70, 35
1, 206594, Note_off_c, 0, 66, 58
1, 206662, Note_on_c, 0, 60, 86
1, 206667, Note_off_c, 0, 46, 50
1, 206670, Control_c, 0, 64, 93
1, 206673, Note_on_c, 0, 45, 60
1, 206685, Note_on_c, 0, 65, 65
1, 206685, Control_c, 0, 64, 63
1, 206700, Control_c, 0, 64, 33
1, 206715, Control_c, 0, 64, 0
1, 206847, Note_off_c, 0, 45, 58
1, 206847, Control_c, 0, 64, 19
1, 206857, Note_on_c, 0, 46, 57
1, 206862, Control_c, 0, 64, 29
1, 206867, Note_off_c, 0, 65, 57
1, 206870, Note_on_c, 0, 67, 62
1, 206877, Control_c, 0, 64, 38
1, 206892, Control_c, 0, 64, 50
1, 206907, Control_c, 0, 64, 58
1, 206921, Control_c, 0, 64, 63
1, 206936, Control_c, 0, 64, 64
1, 206966, Control_c, 0, 64, 65
1, 206981, Control_c, 0, 64, 71
1, 206996, Control_c, 0, 64, 79
1, 207005, Note_off_c, 0, 46, 58
1, 207010, Control_c, 0, 64, 84
1, 207012, Note_off_c, 0, 67, 53
1, 207025, Control_c, 0, 64, 85
1, 207037, Note_on_c, 0, 69, 60
1, 207040, Control_c, 0, 64, 86
1, 207046, Note_on_c, 0, 48, 51
1, 207055, Control_c, 0, 64, 88
1, 207070, Control_c, 0, 64, 96
1, 207085, Control_c, 0, 64, 109
1, 207100, Control_c, 0, 64, 113
1, 207129, Control_c, 0, 64, 115
1, 207133, Note_off_c, 0, 60, 57
1, 207151, Control_c, 0, 64, 127
1, 207218, Note_off_c, 0, 69, 60
1, 207234, Note_on_c, 0, 65, 79
1, 207240, Note_off_c, 0, 48, 58
1, 207240, Control_c, 0, 64, 77
1, 207242, Note_on_c, 0, 49, 60
1, 207244, Note_on_c, 0, 70, 69
1, 207255, Control_c, 0, 64, 61
1, 207270, Control_c, 0, 64, 33
1, 207285, Control_c, 0, 64, 0
1, 207397, Note_off_c, 0, 49, 60
1, 207413, Note_on_c, 0, 48, 51
1, 207448, Control_c, 0, 64, 9
1, 207463, Control_c, 0, 64, 22
1, 207478, Control_c, 0, 64, 28
1, 207493, Control_c, 0, 64, 34
1, 207508, Control_c, 0, 64, 39
1, 207523, Control_c, 0, 64, 45
1, 207538, Control_c, 0, 64, 52
1, 207553, Control_c, 0, 64, 57
1, 207568, Control_c, 0, 64, 60
1, 207583, Control_c, 0, 64, 60
1, 207614, Note_on_c, 0, 50, 44
1, 207616, Note_on_c, 0, 68, 69
1, 207622, Note_off_c, 0, 48, 36
1, 207632, Note_off_c, 0, 70, 48
1, 207642, Control_c, 0, 64, 61
1, 207657, Control_c, 0, 64, 62
1, 207671, Control_c, 0, 64, 62
1, 207760, Control_c, 0, 64, 60
1, 207775, Control_c, 0, 64, 52
1, 207779, Note_off_c, 0, 50, 54
1, 207789, Note_off_c, 0, 68, 59
1, 207790, Control_c, 0, 64, 33
1, 207792, Note_on_c, 0, 51, 58
1, 207795, Note_on_c, 0, 63, 76
1, 207798, Note_on_c, 0, 67, 67
1, 207804, Note_off_c, 0, 65, 62
1, 207805, Control_c, 0, 64, 0
1, 207973, Note_off_c, 0, 67, 60
1, 207975, Control_c, 0, 64, 11
1, 207988, Note_off_c, 0, 51, 56
1, 207990, Note_on_c, 0, 53, 54
1, 207990, Control_c, 0, 64, 18
1, 207996, Note_on_c, 0, 68, 64
1, 208004, Control_c, 0, 64, 23
1, 208019, Control_c, 0, 64, 27
1, 208034, Control_c, 0, 64, 30
1, 208049, Control_c, 0, 64, 32
1, 208064, Control_c, 0, 64, 36
1, 208078, Control_c, 0, 64, 40
1, 208093, Control_c, 0, 64, 45
1, 208108, Control_c, 0, 64, 49
1, 208113, Note_off_c, 0, 63, 63
1, 208121, Note_off_c, 0, 53, 64
1, 208123, Control_c, 0, 64, 51
1, 208152, Control_c, 0, 64, 50
1, 208158, Note_off_c, 0, 68, 52
1, 208164, Note_on_c, 0, 61, 74
1, 208166, Note_on_c, 0, 70, 65
1, 208167, Control_c, 0, 64, 49
1, 208168, Note_on_c, 0, 55, 61
1, 208182, Control_c, 0, 64, 48
1, 208197, Control_c, 0, 64, 47
1, 208212, Control_c, 0, 64, 47
1, 208227, Control_c, 0, 64, 46
1, 208242, Control_c, 0, 64, 46
1, 208256, Control_c, 0, 64, 45
1, 208301, Control_c, 0, 64, 45
1, 208316, Control_c, 0, 64, 44
1, 208331, Control_c, 0, 64, 42
1, 208346, Control_c, 0, 64, 39
1, 208356, Note_on_c, 0, 60, 76
1, 208361, Control_c, 0, 64, 33
1, 208362, Note_off_c, 0, 55, 57
1, 208365, Note_on_c, 0, 56, 54
1, 208376, Control_c, 0, 64, 22
1, 208391, Control_c, 0, 64, 0
1, 208403, Note_off_c, 0, 61, 53
1, 208435, Note_off_c, 0, 70, 36
1, 208553, Note_on_c, 0, 58, 66
1, 208575, Note_off_c, 0, 56, 56
1, 208627, Control_c, 0, 64, 10
1, 208650, Control_c, 0, 64, 15
1, 208665, Control_c, 0, 64, 20
1, 208680, Control_c, 0, 64, 22
1, 208694, Control_c, 0, 64, 25
1, 208709, Control_c, 0, 64, 27
1, 208724, Control_c, 0, 64, 29
1, 208739, Control_c, 0, 64, 31
1, 208745, Note_off_c, 0, 58, 62
1, 208749, Note_on_c, 0, 55, 61
1, 208754, Control_c, 0, 64, 33
1, 208768, Control_c, 0, 64, 35
1, 208783, Control_c, 0, 64, 37
1, 208798, Control_c, 0, 64, 38
1, 208813, Control_c, 0, 64, 39
1, 208827, Control_c, 0, 64, 40
1, 208842, Control_c, 0, 64, 41
1, 208857, Control_c, 0, 64, 42
1, 208872, Control_c, 0, 64, 43
1, 208887, Control_c, 0, 64, 43
1, 208916, Control_c, 0, 64, 41
1, 208931, Control_c, 0, 64, 37
1, 208945, Note_on_c, 0, 61, 73
1, 208946, Control_c, 0, 64, 28
1, 208956, Note_on_c, 0, 68, 61
1, 208960, Control_c, 0, 64, 14
1, 208965, Note_off_c, 0, 55, 57
1, 208975, Note_on_c, 0, 53, 48
1, 208975, Control_c, 0, 64, 0
1, 208987, Note_off_c, 0, 60, 61
1, 209095, Control_c, 0, 64, 9
1, 209109, Control_c, 0, 64, 12
1, 209124, Control_c, 0, 64, 16
1, 209139, Control_c, 0, 64, 19
1, 209140, Note_off_c, 0, 53, 57
1, 209148, Note_on_c, 0, 52, 66
1, 209154, Control_c, 0, 64, 21
1, 209169, Control_c, 0, 64, 22
1, 209184, Control_c, 0, 64, 24
1, 209198, Control_c, 0, 64, 24
1, 209213, Control_c, 0, 64, 25
1, 209228, Control_c, 0, 64, 26
1, 209243, Control_c, 0, 64, 27
1, 209327, Note_on_c, 0, 60, 75
1, 209337, Note_on_c, 0, 53, 56
1, 209343, Note_off_c, 0, 52, 50
1, 209374, Note_off_c, 0, 61, 64
1, 209377, Control_c, 0, 64, 26
1, 209458, Control_c, 0, 64, 26
1, 209497, Note_off_c, 0, 53, 62
1, 209513, Note_on_c, 0, 58, 76
1, 209516, Control_c, 0, 64, 25
1, 209518, Note_on_c, 0, 55, 50
1, 209531, Control_c, 0, 64, 24
1, 209546, Control_c, 0, 64, 23
1, 209561, Control_c, 0, 64, 21
1, 209575, Note_off_c, 0, 60, 56
1, 209575, Control_c, 0, 64, 20
1, 209590, Control_c, 0, 64, 19
1, 209605, Control_c, 0, 64, 18
1, 209649, Note_off_c, 0, 68, 60
1, 209664, Control_c, 0, 64, 19
1, 209679, Control_c, 0, 64, 20
1, 209694, Control_c, 0, 64, 21
1, 209706, Note_on_c, 0, 56, 64
1, 209709, Control_c, 0, 64, 22
1, 209723, Control_c, 0, 64, 23
1, 209738, Control_c, 0, 64, 25
1, 209741, Note_off_c, 0, 55, 38
1, 209753, Control_c, 0, 64, 26
1, 209768, Control_c, 0, 64, 27
1, 209783, Control_c, 0, 64, 29
1, 209798, Control_c, 0, 64, 31
1, 209812, Control_c, 0, 64, 32
1, 209827, Control_c, 0, 64, 34
1, 209842, Control_c, 0, 64, 35
1, 209857, Control_c, 0, 64, 37
1, 209872, Control_c, 0, 64, 38
1, 209876, Note_on_c, 0, 53, 62
1, 209902, Control_c, 0, 64, 38
1, 209959, Note_off_c, 0, 56, 32
1, 210009, Note_off_c, 0, 53, 57
1, 210036, Control_c, 0, 64, 38
1, 210051, Control_c, 0, 64, 37
1, 210065, Note_on_c, 0, 60, 63
1, 210065, Control_c, 0, 64, 37
1, 210073, Note_on_c, 0, 52, 48
1, 210074, Note_on_c, 0, 67, 57
1, 210080, Control_c, 0, 64, 36
1, 210095, Control_c, 0, 64, 35
1, 210120, Note_off_c, 0, 58, 51
1, 210125, Control_c, 0, 64, 35
1, 210146, Control_c, 0, 64, 34
1, 210161, Control_c, 0, 64, 34
1, 210176, Control_c, 0, 64, 33
1, 210191, Control_c, 0, 64, 32
1, 210206, Control_c, 0, 64, 30
1, 210221, Control_c, 0, 64, 28
1, 210231, Note_off_c, 0, 52, 54
1, 210236, Control_c, 0, 64, 24
1, 210251, Control_c, 0, 64, 21
1, 210264, Control_c, 0, 64, 18
1, 210275, Note_on_c, 0, 50, 51
1, 210279, Control_c, 0, 64, 18
1, 210294, Control_c, 0, 64, 17
1, 210309, Control_c, 0, 64, 16
1, 210324, Control_c, 0, 64, 11
1, 210338, Control_c, 0, 64, 0
1, 210414, Note_off_c, 0, 67, 46
1, 210450, Note_on_c, 0, 52, 54
1, 210450, Note_on_c, 0, 58, 60
1, 210455, Note_off_c, 0, 50, 31
1, 210471, Note_off_c, 0, 60, 53
1, 210531, Control_c, 0, 64, 12
1, 210546, Control_c, 0, 64, 17
1, 210561, Control_c, 0, 64, 20
1, 210576, Control_c, 0, 64, 23
1, 210590, Control_c, 0, 64, 25
1, 210605, Control_c, 0, 64, 28
1, 210620, Control_c, 0, 64, 31
1, 210635, Control_c, 0, 64, 32
1, 210636, Note_off_c, 0, 52, 52
1, 210650, Control_c, 0, 64, 33
1, 210659, Note_on_c, 0, 56, 53
1, 210690, Note_on_c, 0, 53, 28
1, 210692, Note_off_c, 0, 58, 60
1, 210695, Control_c, 0, 64, 32
1, 210710, Control_c, 0, 64, 25
1, 210725, Control_c, 0, 64, 11
1, 210740, Control_c, 0, 64, 0
1, 210837, Note_on_c, 0, 68, 55
1, 210909, Control_c, 0, 64, 16
1, 210924, Control_c, 0, 64, 21
1, 210939, Control_c, 0, 64, 24
1, 210954, Control_c, 0, 64, 27
1, 210969, Control_c, 0, 64, 30
1, 210980, Note_off_c, 0, 53, 40
1, 210984, Control_c, 0, 64, 34
1, 210999, Control_c, 0, 64, 38
1, 211014, Control_c, 0, 64, 42
1, 211029, Control_c, 0, 64, 46
1, 211033, Note_on_c, 0, 67, 53
1, 211038, Note_on_c, 0, 51, 53
1, 211044, Control_c, 0, 64, 50
1, 211047, Note_off_c, 0, 68, 49
1, 211059, Note_off_c, 0, 56, 59
1, 211059, Control_c, 0, 64, 54
1, 211073, Control_c, 0, 64, 56
1, 211088, Control_c, 0, 64, 58
1, 211103, Control_c, 0, 64, 58
1, 211148, Control_c, 0, 64, 59
1, 211162, Control_c, 0, 64, 60
1, 211177, Control_c, 0, 64, 62
1, 211192, Control_c, 0, 64, 63
1, 211218, Note_off_c, 0, 51, 53
1, 211221, Control_c, 0, 64, 61
1, 211236, Control_c, 0, 64, 54
1, 211241, Note_off_c, 0, 67, 37
1, 211246, Note_on_c, 0, 65, 52
1, 211247, Note_on_c, 0, 49, 60
1, 211249, Note_on_c, 0, 58, 63
1, 211251, Control_c, 0, 64, 37
1, 211266, Control_c, 0, 64, 0
1, 211369, Control_c, 0, 64, 10
1, 211384, Control_c, 0, 64, 22
1, 211399, Control_c, 0, 64, 28
1, 211413, Control_c, 0, 64, 33
1, 211426, Note_off_c, 0, 65, 55
1, 211428, Control_c, 0, 64, 39
1, 211443, Note_on_c, 0, 64, 61
1, 211443, Control_c, 0, 64, 46
1, 211456, Note_off_c, 0, 49, 61
1, 211459, Control_c, 0, 64, 51
1, 211473, Note_off_c, 0, 58, 62
1, 211474, Control_c, 0, 64, 55
1, 211489, Control_c, 0, 64, 56
1, 211504, Control_c, 0, 64, 57
1, 211518, Control_c, 0, 64, 58
1, 211533, Control_c, 0, 64, 59
1, 211548, Control_c, 0, 64, 60
1, 211563, Control_c, 0, 64, 62
1, 211578, Control_c, 0, 64, 63
1, 211584, Note_on_c, 0, 56, 74
1, 211592, Control_c, 0, 64, 64
1, 211595, Note_on_c, 0, 48, 61
1, 211596, Note_off_c, 0, 64, 60
1, 211604, Note_on_c, 0, 65, 66
1, 211622, Control_c, 0, 64, 64
1, 211644, Control_c, 0, 64, 65
1, 211659, Control_c, 0, 64, 66
1, 211667, Note_off_c, 0, 48, 61
1, 211674, Control_c, 0, 64, 67
1, 211685, Note_off_c, 0, 56, 61
1, 211704, Control_c, 0, 64, 67
1, 211733, Control_c, 0, 64, 68
1, 211748, Control_c, 0, 64, 69
1, 211792, Control_c, 0, 64, 66
1, 211792, Note_off_c, 0, 65, 61
1, 211795, Note_on_c, 0, 55, 78
1, 211796, Note_on_c, 0, 67, 64
1, 211807, Control_c, 0, 64, 59
1, 211811, Note_on_c, 0, 46, 60
1, 211822, Control_c, 0, 64, 42
1, 211836, Control_c, 0, 64, 0
1, 211948, Note_off_c, 0, 67, 54
1, 211986, Note_on_c, 0, 68, 59
1, 212088, Control_c, 0, 64, 11
1, 212103, Control_c, 0, 64, 20
1, 212116, Note_off_c, 0, 46, 55
1, 212117, Control_c, 0, 64, 30
1, 212132, Control_c, 0, 64, 37
1, 212147, Control_c, 0, 64, 46
1, 212160, Note_on_c, 0, 47, 73
1, 212160, Note_off_c, 0, 68, 58
1, 212161, Control_c, 0, 64, 53
1, 212167, Note_on_c, 0, 65, 69
1, 212176, Control_c, 0, 64, 57
1, 212191, Control_c, 0, 64, 59
1, 212206, Control_c, 0, 64, 60
1, 212215, Note_off_c, 0, 55, 59
1, 212236, Control_c, 0, 64, 60
1, 212251, Control_c, 0, 64, 61
1, 212266, Control_c, 0, 64, 63
1, 212281, Control_c, 0, 64, 66
1, 212296, Control_c, 0, 64, 68
1, 212326, Control_c, 0, 64, 67
1, 212340, Control_c, 0, 64, 63
1, 212355, Control_c, 0, 64, 55
1, 212368, Note_on_c, 0, 56, 79
1, 212370, Control_c, 0, 64, 31
1, 212373, Note_on_c, 0, 48, 56
1, 212393, Control_c, 0, 64, 0
1, 212421, Note_off_c, 0, 47, 38
1, 212555, Control_c, 0, 64, 14
1, 212570, Control_c, 0, 64, 22
1, 212576, Note_on_c, 0, 62, 60
1, 212585, Control_c, 0, 64, 28
1, 212600, Control_c, 0, 64, 33
1, 212615, Control_c, 0, 64, 39
1, 212626, Note_off_c, 0, 56, 63
1, 212629, Control_c, 0, 64, 46
1, 212644, Control_c, 0, 64, 52
1, 212659, Control_c, 0, 64, 56
1, 212674, Control_c, 0, 64, 58
1, 212689, Control_c, 0, 64, 59
1, 212719, Control_c, 0, 64, 60
1, 212730, Note_off_c, 0, 65, 35
1, 212733, Control_c, 0, 64, 62
1, 212737, Note_on_c, 0, 55, 64
1, 212739, Note_on_c, 0, 64, 74
1, 212747, Note_on_c, 0, 46, 59
1, 212748, Control_c, 0, 64, 64
1, 212763, Control_c, 0, 64, 65
1, 212771, Note_off_c, 0, 62, 62
1, 212777, Control_c, 0, 64, 67
1, 212799, Note_off_c, 0, 48, 41
1, 212822, Control_c, 0, 64, 68
1, 212837, Control_c, 0, 64, 70
1, 212851, Control_c, 0, 64, 73
1, 212866, Control_c, 0, 64, 75
1, 212881, Control_c, 0, 64, 76
1, 212925, Control_c, 0, 64, 75
1, 212940, Control_c, 0, 64, 71
1, 212946, Note_off_c, 0, 55, 35
1, 212948, Note_on_c, 0, 60, 77
1, 212950, Note_off_c, 0, 64, 54
1, 212955, Control_c, 0, 64, 66
1, 212960, Note_on_c, 0, 65, 66
1, 212963, Note_on_c, 0, 44, 59
1, 212970, Control_c, 0, 64, 59
1, 212984, Control_c, 0, 64, 44
1, 212992, Note_off_c, 0, 46, 36
1, 212999, Control_c, 0, 64, 0
1, 213164, Note_on_c, 0, 66, 57
1, 213165, Note_off_c, 0, 65, 56
1, 213230, Control_c, 0, 64, 20
1, 213245, Control_c, 0, 64, 27
1, 213260, Control_c, 0, 64, 34
1, 213275, Control_c, 0, 64, 41
1, 213289, Control_c, 0, 64, 50
1, 213304, Control_c, 0, 64, 57
1, 213319, Control_c, 0, 64, 60
1, 213333, Note_on_c, 0, 45, 59
1, 213334, Control_c, 0, 64, 61
1, 213347, Note_on_c, 0, 63, 66
1, 213349, Control_c, 0, 64, 62
1, 213362, Note_off_c, 0, 44, 31
1, 213363, Control_c, 0, 64, 63
1, 213378, Control_c, 0, 64, 65
1, 213393, Control_c, 0, 64, 69
1, 213407, Control_c, 0, 64, 72
1, 213422, Control_c, 0, 64, 74
1, 213437, Control_c, 0, 64, 74
1, 213482, Control_c, 0, 64, 74
1, 213497, Control_c, 0, 64, 69
1, 213512, Control_c, 0, 64, 62
1, 213527, Control_c, 0, 64, 49
1, 213528, Note_on_c, 0, 53, 76
1, 213534, Note_on_c, 0, 46, 68
1, 213539, Note_off_c, 0, 60, 61
1, 213542, Control_c, 0, 64, 14
1, 213544, Note_off_c, 0, 45, 59
1, 213549, Note_on_c, 0, 61, 62
1, 213556, Control_c, 0, 64, 0
1, 213611, Note_off_c, 0, 63, 55
1, 213719, Control_c, 0, 64, 12
1, 213734, Control_c, 0, 64, 21
1, 213737, Note_on_c, 0, 60, 63
1, 213737, Note_off_c, 0, 61, 59
1, 213748, Control_c, 0, 64, 26
1, 213763, Control_c, 0, 64, 31
1, 213778, Control_c, 0, 64, 35
1, 213793, Control_c, 0, 64, 40
1, 213807, Control_c, 0, 64, 45
1, 213815, Note_off_c, 0, 66, 38
1, 213822, Control_c, 0, 64, 52
1, 213837, Control_c, 0, 64, 56
1, 213853, Control_c, 0, 64, 59
1, 213868, Control_c, 0, 64, 61
1, 213890, Control_c, 0, 64, 62
1, 213905, Control_c, 0, 64, 63
1, 213920, Control_c, 0, 64, 65
1, 213924, Note_on_c, 0, 44, 58
1, 213930, Note_off_c, 0, 53, 62
1, 213932, Note_on_c, 0, 61, 69
1, 213935, Control_c, 0, 64, 66
1, 213950, Control_c, 0, 64, 67
1, 213973, Note_off_c, 0, 46, 44
1, 213979, Control_c, 0, 64, 68
1, 213992, Note_off_c, 0, 60, 38
1, 213994, Control_c, 0, 64, 69
1, 214010, Control_c, 0, 64, 71
1, 214024, Control_c, 0, 64, 73
1, 214039, Control_c, 0, 64, 73
1, 214069, Control_c, 0, 64, 69
1, 214084, Control_c, 0, 64, 62
1, 214099, Control_c, 0, 64, 49
1, 214110, Note_on_c, 0, 51, 68
1, 214112, Note_on_c, 0, 43, 58
1, 214113, Control_c, 0, 64, 8
1, 214116, Note_off_c, 0, 44, 34
1, 214128, Control_c, 0, 64, 0
1, 214299, Note_off_c, 0, 43, 44
1, 214301, Note_on_c, 0, 60, 61
1, 214301, Note_off_c, 0, 61, 65
1, 214318, Note_off_c, 0, 51, 55
1, 214324, Note_on_c, 0, 44, 48
1, 214335, Control_c, 0, 64, 8
1, 214350, Control_c, 0, 64, 18
1, 214364, Control_c, 0, 64, 25
1, 214379, Control_c, 0, 64, 33
1, 214394, Control_c, 0, 64, 41
1, 214409, Control_c, 0, 64, 50
1, 214424, Control_c, 0, 64, 57
1, 214439, Control_c, 0, 64, 60
1, 214454, Control_c, 0, 64, 62
1, 214469, Control_c, 0, 64, 63
1, 214474, Note_off_c, 0, 44, 50
1, 214484, Control_c, 0, 64, 66
1, 214498, Control_c, 0, 64, 70
1, 214504, Note_on_c, 0, 43, 48
1, 214505, Note_on_c, 0, 63, 60
1, 214513, Control_c, 0, 64, 77
1, 214522, Note_on_c, 0, 58, 40
1, 214528, Control_c, 0, 64, 83
1, 214534, Note_off_c, 0, 60, 36
1, 214543, Control_c, 0, 64, 85
1, 214557, Control_c, 0, 64, 88
1, 214569, Note_off_c, 0, 43, 60
1, 214572, Control_c, 0, 64, 90
1, 214574, Note_off_c, 0, 58, 42
1, 214587, Control_c, 0, 64, 95
1, 214602, Control_c, 0, 64, 102
1, 214617, Control_c, 0, 64, 117
1, 214622, Note_off_c, 0, 63, 55
1, 214639, Control_c, 0, 64, 127
1, 214758, Note_on_c, 0, 63, 82
1, 214761, Note_on_c, 0, 41, 46
1, 214773, Control_c, 0, 64, 76
1, 214779, Note_on_c, 0, 56, 59
1, 214788, Control_c, 0, 64, 61
1, 214803, Control_c, 0, 64, 39
1, 214817, Control_c, 0, 64, 0
1, 214859, Note_off_c, 0, 56, 35
1, 214907, Control_c, 0, 64, 8
1, 214922, Control_c, 0, 64, 27
1, 214936, Control_c, 0, 64, 37
1, 214951, Control_c, 0, 64, 48
1, 214966, Control_c, 0, 64, 57
1, 214980, Control_c, 0, 64, 63
1, 214995, Control_c, 0, 64, 66
1, 214999, Note_on_c, 0, 39, 53
1, 215010, Control_c, 0, 64, 69
1, 215011, Note_on_c, 0, 55, 54
1, 215025, Control_c, 0, 64, 72
1, 215040, Control_c, 0, 64, 79
1, 215054, Control_c, 0, 64, 88
1, 215058, Note_off_c, 0, 41, 36
1, 215069, Control_c, 0, 64, 96
1, 215084, Control_c, 0, 64, 103
1, 215099, Control_c, 0, 64, 119
1, 215114, Control_c, 0, 64, 127
1, 215158, Note_off_c, 0, 63, 57
1, 215171, Note_off_c, 0, 39, 57
1, 215178, Note_on_c, 0, 58, 54
1, 215181, Note_on_c, 0, 37, 57
1, 215181, Note_off_c, 0, 55, 36
1, 215199, Note_off_c, 0, 58, 62
1, 215320, Note_off_c, 0, 37, 49
1, 215366, Control_c, 0, 64, 85
1, 215369, Note_on_c, 0, 68, 83
1, 215384, Note_on_c, 0, 36, 49
1, 215387, Control_c, 0, 64, 61
1, 215396, Note_on_c, 0, 63, 59
1, 215402, Control_c, 0, 64, 28
1, 215417, Control_c, 0, 64, 0
1, 215459, Note_off_c, 0, 63, 0
1, 215492, Control_c, 0, 64, 21
1, 215496, Poly_aftertouch_c, 0, 63, 127
1, 215507, Control_c, 0, 64, 31
1, 215522, Control_c, 0, 64, 41
1, 215537, Control_c, 0, 64, 53
1, 215551, Control_c, 0, 64, 62
1, 215555, Note_off_c, 0, 36, 60
1, 215566, Control_c, 0, 64, 69
1, 215581, Control_c, 0, 64, 73
1, 215589, Note_on_c, 0, 37, 52
1, 215596, Control_c, 0, 64, 75
1, 215597, Poly_aftertouch_c, 0, 63, 0
1, 215602, Note_on_c, 0, 65, 54
1, 215610, Control_c, 0, 64, 81
1, 215625, Control_c, 0, 64, 91
1, 215640, Control_c, 0, 64, 104
1, 215655, Control_c, 0, 64, 119
1, 215670, Control_c, 0, 64, 127
1, 215698, Note_off_c, 0, 65, 52
1, 215748, Note_on_c, 0, 61, 55
1, 215748, Note_off_c, 0, 68, 54
1, 215753, Note_off_c, 0, 37, 55
1, 215759, Note_on_c, 0, 34, 49
1, 215880, Note_off_c, 0, 61, 62
1, 215886, Note_off_c, 0, 34, 55
1, 215907, Control_c, 0, 64, 79
1, 215922, Control_c, 0, 64, 57
1, 215929, Note_on_c, 0, 65, 90
1, 215930, Note_on_c, 0, 33, 54
1, 215937, Control_c, 0, 64, 13
1, 215951, Control_c, 0, 64, 0
1, 215968, Note_on_c, 0, 60, 42
1, 216025, Control_c, 0, 64, 20
1, 216040, Control_c, 0, 64, 33
1, 216055, Control_c, 0, 64, 46
1, 216070, Control_c, 0, 64, 59
1, 216084, Control_c, 0, 64, 69
1, 216099, Control_c, 0, 64, 80
1, 216112, Note_on_c, 0, 34, 63
1, 216114, Control_c, 0, 64, 84
1, 216136, Control_c, 0, 64, 89
1, 216151, Control_c, 0, 64, 105
1, 216158, Note_on_c, 0, 61, 59
1, 216166, Control_c, 0, 64, 127
1, 216191, Note_off_c, 0, 33, 27
1, 216197, Note_off_c, 0, 60, 39
1, 216252, Note_off_c, 0, 65, 59
1, 216273, Note_off_c, 0, 34, 61
1, 216307, Note_on_c, 0, 36, 51
1, 216317, Note_on_c, 0, 63, 67
1, 216324, Note_off_c, 0, 61, 63
1, 216338, Note_off_c, 0, 63, 70
1, 216492, Note_on_c, 0, 37, 65
1, 216493, Note_on_c, 0, 70, 86
1, 216493, Control_c, 0, 64, 65
1, 216493, Note_off_c, 0, 36, 59
1, 216507, Control_c, 0, 64, 42
1, 216511, Note_on_c, 0, 65, 63
1, 216522, Control_c, 0, 64, 0
1, 216625, Control_c, 0, 64, 24
1, 216627, Note_off_c, 0, 65, 49
1, 216640, Control_c, 0, 64, 32
1, 216655, Control_c, 0, 64, 39
1, 216666, Note_off_c, 0, 37, 55
1, 216670, Control_c, 0, 64, 48
1, 216685, Control_c, 0, 64, 57
1, 216687, Note_on_c, 0, 39, 57
1, 216689, Note_on_c, 0, 66, 62
1, 216699, Control_c, 0, 64, 64
1, 216714, Control_c, 0, 64, 71
1, 216729, Control_c, 0, 64, 74
1, 216744, Control_c, 0, 64, 74
1, 216758, Control_c, 0, 64, 78
1, 216773, Control_c, 0, 64, 88
1, 216788, Note_off_c, 0, 66, 55
1, 216788, Control_c, 0, 64, 104
1, 216803, Control_c, 0, 64, 127
1, 216809, Note_off_c, 0, 39, 57
1, 216859, Note_on_c, 0, 36, 51
1, 216870, Note_on_c, 0, 63, 51
1, 216973, Note_off_c, 0, 63, 46
1, 217032, Control_c, 0, 64, 83
1, 217047, Note_on_c, 0, 67, 87
1, 217047, Control_c, 0, 64, 59
1, 217055, Note_off_c, 0, 36, 39
1, 217059, Note_on_c, 0, 34, 56
1, 217063, Control_c, 0, 64, 23
1, 217069, Note_on_c, 0, 61, 58
1, 217078, Control_c, 0, 64, 0
1, 217152, Note_off_c, 0, 70, 53
1, 217181, Note_off_c, 0, 61, 26
1, 217226, Control_c, 0, 64, 14
1, 217237, Note_on_c, 0, 36, 39
1, 217241, Control_c, 0, 64, 28
1, 217252, Note_on_c, 0, 63, 66
1, 217256, Control_c, 0, 64, 38
1, 217270, Note_off_c, 0, 67, 57
1, 217271, Control_c, 0, 64, 48
1, 217286, Control_c, 0, 64, 57
1, 217294, Note_off_c, 0, 34, 43
1, 217301, Control_c, 0, 64, 63
1, 217315, Control_c, 0, 64, 65
1, 217330, Control_c, 0, 64, 67
1, 217345, Control_c, 0, 64, 72
1, 217360, Control_c, 0, 64, 81
1, 217374, Control_c, 0, 64, 92
1, 217389, Control_c, 0, 64, 101
1, 217404, Control_c, 0, 64, 115
1, 217416, Note_on_c, 0, 37, 54
1, 217419, Control_c, 0, 64, 127
1, 217432, Note_on_c, 0, 65, 65
1, 217437, Note_off_c, 0, 63, 37
1, 217446, Note_off_c, 0, 36, 36
1, 217535, Note_off_c, 0, 37, 54
1, 217536, Note_off_c, 0, 65, 62
1, 217627, Note_on_c, 0, 72, 89
1, 217634, Control_c, 0, 64, 81
1, 217648, Control_c, 0, 64, 63
1, 217649, Note_on_c, 0, 63, 62
1, 217663, Control_c, 0, 64, 48
1, 217678, Control_c, 0, 64, 9
1, 217693, Control_c, 0, 64, 0
1, 217725, Note_off_c, 0, 63, 0
1, 217725, Note_on_c, 0, 63, 11
1, 217809, Note_on_c, 0, 68, 63
1, 217828, Note_on_c, 0, 36, 50
1, 217842, Control_c, 0, 64, 12
1, 217858, Note_off_c, 0, 63, 51
1, 217858, Control_c, 0, 64, 31
1, 217873, Control_c, 0, 64, 47
1, 217887, Control_c, 0, 64, 59
1, 217902, Control_c, 0, 64, 69
1, 217917, Control_c, 0, 64, 79
1, 217932, Control_c, 0, 64, 83
1, 217947, Control_c, 0, 64, 88
1, 217961, Control_c, 0, 64, 110
1, 217975, Note_off_c, 0, 72, 61
1, 217976, Control_c, 0, 64, 127
1, 218002, Note_on_c, 0, 39, 64
1, 218010, Note_off_c, 0, 36, 35
1, 218168, Note_off_c, 0, 39, 61
1, 218180, Note_on_c, 0, 70, 81
1, 218192, Note_on_c, 0, 37, 54
1, 218198, Control_c, 0, 64, 72
1, 218213, Control_c, 0, 64, 55
1, 218225, Note_off_c, 0, 68, 45
1, 218228, Control_c, 0, 64, 19
1, 218242, Control_c, 0, 64, 0
1, 218361, Control_c, 0, 64, 12
1, 218374, Note_on_c, 0, 62, 58
1, 218383, Control_c, 0, 64, 24
1, 218386, Note_on_c, 0, 41, 47
1, 218397, Control_c, 0, 64, 32
1, 218412, Control_c, 0, 64, 40
1, 218427, Control_c, 0, 64, 49
1, 218442, Control_c, 0, 64, 57
1, 218447, Note_off_c, 0, 37, 0
1, 218457, Control_c, 0, 64, 64
1, 218472, Control_c, 0, 64, 66
1, 218478, Note_off_c, 0, 62, 60
1, 218487, Control_c, 0, 64, 67
1, 218493, Poly_aftertouch_c, 0, 37, 0
1, 218502, Control_c, 0, 64, 68
1, 218517, Control_c, 0, 64, 69
1, 218531, Control_c, 0, 64, 73
1, 218546, Control_c, 0, 64, 79
1, 218555, Note_on_c, 0, 68, 82
1, 218561, Control_c, 0, 64, 82
1, 218571, Note_on_c, 0, 38, 58
1, 218583, Note_on_c, 0, 65, 60
1, 218609, Note_off_c, 0, 41, 35
1, 218612, Note_off_c, 0, 70, 60
1, 218620, Control_c, 0, 64, 83
1, 218635, Control_c, 0, 64, 85
1, 218681, Control_c, 0, 64, 85
1, 218696, Control_c, 0, 64, 80
1, 218700, Note_off_c, 0, 65, 60
1, 218710, Control_c, 0, 64, 70
1, 218725, Control_c, 0, 64, 60
1, 218733, Note_off_c, 0, 38, 59
1, 218740, Control_c, 0, 64, 31
1, 218748, Note_off_c, 0, 68, 60
1, 218755, Note_on_c, 0, 67, 70
1, 218755, Control_c, 0, 64, 0
1, 218761, Note_on_c, 0, 39, 51
1, 218770, Note_on_c, 0, 58, 58
1, 218888, Control_c, 0, 64, 24
1, 218902, Control_c, 0, 64, 35
1, 218917, Control_c, 0, 64, 45
1, 218925, Note_off_c, 0, 58, 62
1, 218932, Control_c, 0, 64, 57
1, 218946, Control_c, 0, 64, 64
1, 218952, Note_on_c, 0, 43, 65
1, 218953, Note_off_c, 0, 39, 60
1, 218961, Control_c, 0, 64, 69
1, 218976, Control_c, 0, 64, 72
1, 218991, Control_c, 0, 64, 77
1, 219006, Control_c, 0, 64, 85
1, 219020, Control_c, 0, 64, 103
1, 219032, Note_off_c, 0, 67, 62
1, 219035, Control_c, 0, 64, 127
1, 219135, Note_on_c, 0, 41, 67
1, 219204, Note_off_c, 0, 43, 37
1, 219339, Control_c, 0, 64, 81
1, 219345, Note_on_c, 0, 73, 87
1, 219354, Control_c, 0, 64, 62
1, 219364, Note_off_c, 0, 41, 60
1, 219365, Note_on_c, 0, 39, 61
1, 219369, Control_c, 0, 64, 45
1, 219384, Control_c, 0, 64, 0
1, 219386, Note_on_c, 0, 70, 45
1, 219488, Control_c, 0, 64, 12
1, 219503, Control_c, 0, 64, 22
1, 219518, Control_c, 0, 64, 27
1, 219533, Control_c, 0, 64, 31
1, 219548, Control_c, 0, 64, 35
1, 219550, Note_off_c, 0, 39, 58
1, 219560, Note_on_c, 0, 38, 61
1, 219563, Control_c, 0, 64, 38
1, 219577, Control_c, 0, 64, 43
1, 219592, Control_c, 0, 64, 50
1, 219607, Control_c, 0, 64, 54
1, 219622, Control_c, 0, 64, 57
1, 219637, Control_c, 0, 64, 60
1, 219651, Control_c, 0, 64, 61
1, 219666, Control_c, 0, 64, 62
1, 219725, Note_off_c, 0, 38, 51
1, 219726, Note_on_c, 0, 39, 69
1, 219799, Control_c, 0, 64, 61
1, 219814, Control_c, 0, 64, 61
1, 219829, Control_c, 0, 64, 60
1, 219858, Control_c, 0, 64, 60
1, 219881, Control_c, 0, 64, 59
1, 219896, Control_c, 0, 64, 56
1, 219903, Note_off_c, 0, 39, 57
1, 219911, Control_c, 0, 64, 51
1, 219921, Note_on_c, 0, 67, 58
1, 219922, Note_on_c, 0, 40, 58
1, 219925, Control_c, 0, 64, 42
1, 219940, Note_off_c, 0, 70, 43
1, 219940, Control_c, 0, 64, 26
1, 219955, Control_c, 0, 64, 0
1, 220073, Note_off_c, 0, 40, 62
1, 220102, Control_c, 0, 64, 17
1, 220106, Note_on_c, 0, 43, 49
1, 220116, Note_on_c, 0, 70, 56
1, 220117, Control_c, 0, 64, 23
1, 220132, Control_c, 0, 64, 28
1, 220147, Control_c, 0, 64, 32
1, 220147, Note_off_c, 0, 67, 38
1, 220162, Control_c, 0, 64, 37
1, 220176, Control_c, 0, 64, 43
1, 220191, Control_c, 0, 64, 49
1, 220206, Control_c, 0, 64, 54
1, 220221, Control_c, 0, 64, 58
1, 220236, Control_c, 0, 64, 60
1, 220252, Control_c, 0, 64, 60
1, 220277, Note_on_c, 0, 41, 57
1, 220277, Note_on_c, 0, 68, 66
1, 220281, Control_c, 0, 64, 61
1, 220283, Note_off_c, 0, 43, 50
1, 220296, Control_c, 0, 64, 62
1, 220311, Control_c, 0, 64, 63
1, 220325, Note_off_c, 0, 73, 57
1, 220326, Control_c, 0, 64, 65
1, 220376, Note_off_c, 0, 70, 31
1, 220385, Control_c, 0, 64, 65
1, 220399, Control_c, 0, 64, 66
1, 220414, Control_c, 0, 64, 67
1, 220419, Note_off_c, 0, 41, 54
1, 220429, Control_c, 0, 64, 68
1, 220444, Control_c, 0, 64, 67
1, 220459, Control_c, 0, 64, 62
1, 220463, Note_on_c, 0, 40, 50
1, 220463, Note_off_c, 0, 68, 52
1, 220466, Note_on_c, 0, 72, 68
1, 220473, Control_c, 0, 64, 53
1, 220488, Control_c, 0, 64, 33
1, 220499, Note_on_c, 0, 67, 38
1, 220503, Control_c, 0, 64, 0
1, 220591, Control_c, 0, 64, 10
1, 220601, Note_off_c, 0, 67, 53
1, 220606, Control_c, 0, 64, 19
1, 220625, Note_off_c, 0, 40, 57
1, 220629, Control_c, 0, 64, 25
1, 220644, Control_c, 0, 64, 30
1, 220646, Note_on_c, 0, 38, 49
1, 220659, Control_c, 0, 64, 36
1, 220661, Note_on_c, 0, 65, 62
1, 220673, Control_c, 0, 64, 41
1, 220688, Control_c, 0, 64, 48
1, 220703, Control_c, 0, 64, 54
1, 220718, Control_c, 0, 64, 59
1, 220732, Control_c, 0, 64, 61
1, 220748, Control_c, 0, 64, 62
1, 220760, Note_off_c, 0, 65, 64
1, 220763, Control_c, 0, 64, 63
1, 220778, Control_c, 0, 64, 64
1, 220793, Control_c, 0, 64, 65
1, 220807, Control_c, 0, 64, 68
1, 220822, Control_c, 0, 64, 70
1, 220833, Note_on_c, 0, 70, 86
1, 220835, Note_on_c, 0, 40, 62
1, 220837, Control_c, 0, 64, 72
1, 220854, Note_on_c, 0, 67, 60
1, 220867, Control_c, 0, 64, 72
1, 220881, Control_c, 0, 64, 75
1, 220896, Control_c, 0, 64, 78
1, 220909, Note_off_c, 0, 72, 52
1, 220911, Control_c, 0, 64, 80
1, 220926, Note_off_c, 0, 38, 35
1, 220940, Control_c, 0, 64, 82
1, 220955, Control_c, 0, 64, 87
1, 220964, Note_off_c, 0, 70, 60
1, 220970, Control_c, 0, 64, 96
1, 220973, Note_off_c, 0, 67, 58
1, 220985, Control_c, 0, 64, 102
1, 221000, Control_c, 0, 64, 101
1, 221015, Control_c, 0, 64, 84
1, 221024, Note_on_c, 0, 69, 81
1, 221026, Note_on_c, 0, 41, 60
1, 221030, Control_c, 0, 64, 63
1, 221033, Note_on_c, 0, 60, 72
1, 221037, Note_off_c, 0, 40, 36
1, 221045, Control_c, 0, 64, 43
1, 221060, Control_c, 0, 64, 0
1, 221139, Note_off_c, 0, 60, 63
1, 221211, Note_on_c, 0, 72, 84
1, 221213, Note_on_c, 0, 45, 64
1, 221214, Note_off_c, 0, 69, 63
1, 221253, Control_c, 0, 64, 8
1, 221268, Control_c, 0, 64, 29
1, 221283, Control_c, 0, 64, 40
1, 221297, Control_c, 0, 64, 51
1, 221312, Control_c, 0, 64, 62
1, 221327, Control_c, 0, 64, 69
1, 221335, Note_off_c, 0, 41, 46
1, 221341, Control_c, 0, 64, 75
1, 221356, Control_c, 0, 64, 79
1, 221358, Note_off_c, 0, 72, 64
1, 221378, Control_c, 0, 64, 85
1, 221381, Note_on_c, 0, 70, 90
1, 221393, Control_c, 0, 64, 97
1, 221396, Note_on_c, 0, 43, 79
1, 221408, Control_c, 0, 64, 127
1, 221426, Note_off_c, 0, 45, 61
1, 221531, Note_off_c, 0, 70, 54
1, 221571, Control_c, 0, 64, 96
1, 221586, Control_c, 0, 64, 63
1, 221594, Note_on_c, 0, 75, 93
1, 221601, Control_c, 0, 64, 25
1, 221606, Note_on_c, 0, 41, 72
1, 221616, Control_c, 0, 64, 0
1, 221617, Note_on_c, 0, 69, 55
1, 221634, Note_off_c, 0, 43, 59
1, 221664, Note_on_c, 0, 76, 47
1, 221803, Note_on_c, 0, 70, 72
1, 221804, Note_on_c, 0, 43, 75
1, 221821, Note_off_c, 0, 41, 60
1, 221837, Note_off_c, 0, 69, 55
1, 221868, Control_c, 0, 64, 25
1, 221883, Control_c, 0, 64, 38
1, 221898, Control_c, 0, 64, 51
1, 221913, Control_c, 0, 64, 60
1, 221927, Control_c, 0, 64, 65
1, 221942, Control_c, 0, 64, 68
1, 221957, Control_c, 0, 64, 73
1, 221971, Note_on_c, 0, 45, 76
1, 221972, Control_c, 0, 64, 84
1, 221973, Note_off_c, 0, 76, 11
1, 221979, Note_on_c, 0, 72, 77
1, 221986, Note_off_c, 0, 43, 55
1, 221986, Control_c, 0, 64, 114
1, 222001, Control_c, 0, 64, 127
1, 222025, Note_off_c, 0, 75, 51
1, 222157, Control_c, 0, 64, 113
1, 222162, Note_on_c, 0, 42, 80
1, 222167, Note_on_c, 0, 69, 82
1, 222171, Control_c, 0, 64, 64
1, 222186, Control_c, 0, 64, 35
1, 222190, Note_off_c, 0, 72, 57
1, 222201, Control_c, 0, 64, 0
1, 222211, Note_off_c, 0, 45, 61
1, 222216, Control_c, 0, 64, 23
1, 222231, Control_c, 0, 64, 32
1, 222246, Control_c, 0, 64, 42
1, 222261, Control_c, 0, 64, 54
1, 222276, Control_c, 0, 64, 64
1, 222291, Control_c, 0, 64, 71
1, 222302, Note_off_c, 0, 70, 50
1, 222305, Control_c, 0, 64, 74
1, 222320, Control_c, 0, 64, 77
1, 222334, Note_on_c, 0, 45, 72
1, 222335, Control_c, 0, 64, 86
1, 222345, Note_on_c, 0, 72, 81
1, 222350, Control_c, 0, 64, 106
1, 222365, Control_c, 0, 64, 127
1, 222385, Note_off_c, 0, 69, 60
1, 222401, Note_off_c, 0, 42, 57
1, 222511, Note_on_c, 0, 70, 82
1, 222516, Note_on_c, 0, 43, 73
1, 222532, Note_off_c, 0, 45, 57
1, 222592, Note_off_c, 0, 72, 36
1, 222631, Note_off_c, 0, 70, 62
1, 222662, Control_c, 0, 64, 76
1, 222676, Control_c, 0, 64, 51
1, 222681, Note_on_c, 0, 74, 89
1, 222691, Control_c, 0, 64, 0
1, 222695, Note_on_c, 0, 42, 67
1, 222698, Note_off_c, 0, 43, 56
1, 222705, Note_on_c, 0, 69, 65
1, 222794, Control_c, 0, 64, 13
1, 222805, Note_off_c, 0, 69, 59
1, 222809, Control_c, 0, 64, 30
1, 222824, Control_c, 0, 64, 43
1, 222839, Control_c, 0, 64, 58
1, 222854, Control_c, 0, 64, 68
1, 222876, Control_c, 0, 64, 80
1, 222884, Note_on_c, 0, 70, 81
1, 222891, Control_c, 0, 64, 89
1, 222897, Note_on_c, 0, 43, 72
1, 222906, Control_c, 0, 64, 104
1, 222920, Control_c, 0, 64, 127
1, 222932, Note_off_c, 0, 42, 30
1, 222936, Note_off_c, 0, 74, 54
1, 222991, Note_off_c, 0, 43, 59
1, 223005, Note_off_c, 0, 70, 59
1, 223046, Note_on_c, 0, 45, 73
1, 223053, Note_on_c, 0, 72, 88
1, 223058, Note_on_c, 0, 66, 83
1, 223146, Note_off_c, 0, 45, 59
1, 223199, Note_off_c, 0, 72, 56
1, 223215, Control_c, 0, 64, 65
1, 223230, Control_c, 0, 64, 23
1, 223243, Note_on_c, 0, 43, 82
1, 223245, Control_c, 0, 64, 0
1, 223254, Note_on_c, 0, 71, 83
1, 223260, Note_off_c, 0, 66, 61
1, 223264, Note_on_c, 0, 62, 73
1, 223319, Control_c, 0, 64, 34
1, 223334, Control_c, 0, 64, 50
1, 223346, Note_off_c, 0, 62, 61
1, 223349, Control_c, 0, 64, 65
1, 223364, Control_c, 0, 64, 113
1, 223379, Control_c, 0, 64, 127
1, 223395, Note_off_c, 0, 71, 65
1, 223475, Note_on_c, 0, 50, 69
1, 223483, Note_on_c, 0, 77, 92
1, 223621, Note_off_c, 0, 50, 58
1, 223636, Note_off_c, 0, 77, 60
1, 223655, Note_on_c, 0, 75, 88
1, 223659, Note_on_c, 0, 48, 80
1, 223725, Note_off_c, 0, 43, 30
1, 223816, Control_c, 0, 64, 113
1, 223830, Note_off_c, 0, 75, 42
1, 223831, Control_c, 0, 64, 60
1, 223832, Note_on_c, 0, 47, 86
1, 223834, Note_on_c, 0, 80, 96
1, 223846, Control_c, 0, 64, 12
1, 223847, Note_on_c, 0, 74, 68
1, 223861, Note_off_c, 0, 48, 63
1, 223861, Control_c, 0, 64, 0
1, 223964, Control_c, 0, 64, 18
1, 223979, Control_c, 0, 64, 28
1, 223987, Note_off_c, 0, 74, 46
1, 223994, Control_c, 0, 64, 39
1, 224008, Control_c, 0, 64, 51
1, 224023, Control_c, 0, 64, 62
1, 224024, Note_on_c, 0, 75, 79
1, 224028, Note_on_c, 0, 48, 77
1, 224038, Control_c, 0, 64, 67
1, 224053, Note_off_c, 0, 47, 60
1, 224053, Control_c, 0, 64, 68
1, 224082, Control_c, 0, 64, 73
1, 224097, Control_c, 0, 64, 91
1, 224112, Control_c, 0, 64, 122
1, 224127, Control_c, 0, 64, 127
1, 224176, Note_off_c, 0, 48, 65
1, 224192, Note_on_c, 0, 77, 82
1, 224197, Note_on_c, 0, 50, 74
1, 224219, Note_off_c, 0, 75, 60
1, 224225, Note_off_c, 0, 80, 52
1, 224319, Note_off_c, 0, 50, 35
1, 224370, Note_on_c, 0, 50, 72
1, 224372, Control_c, 0, 64, 80
1, 224384, Note_off_c, 0, 77, 59
1, 224386, Note_on_c, 0, 71, 70
1, 224387, Control_c, 0, 64, 59
1, 224402, Control_c, 0, 64, 28
1, 224417, Control_c, 0, 64, 0
1, 224521, Control_c, 0, 64, 16
1, 224536, Control_c, 0, 64, 24
1, 224551, Control_c, 0, 64, 29
1, 224565, Control_c, 0, 64, 36
1, 224567, Note_on_c, 0, 51, 86
1, 224571, Note_on_c, 0, 72, 79
1, 224580, Control_c, 0, 64, 42
1, 224595, Control_c, 0, 64, 50
1, 224605, Note_off_c, 0, 71, 62
1, 224610, Control_c, 0, 64, 55
1, 224625, Control_c, 0, 64, 58
1, 224626, Note_off_c, 0, 50, 51
1, 224639, Control_c, 0, 64, 59
1, 224654, Control_c, 0, 64, 60
1, 224669, Control_c, 0, 64, 61
1, 224684, Control_c, 0, 64, 61
1, 224699, Control_c, 0, 64, 62
1, 224723, Note_off_c, 0, 72, 60
1, 224729, Control_c, 0, 64, 61
1, 224744, Control_c, 0, 64, 59
1, 224750, Note_off_c, 0, 51, 67
1, 224753, Note_on_c, 0, 53, 81
1, 224759, Note_on_c, 0, 74, 75
1, 224759, Control_c, 0, 64, 50
1, 224773, Control_c, 0, 64, 31
1, 224788, Control_c, 0, 64, 0
1, 224877, Note_off_c, 0, 74, 63
1, 224906, Control_c, 0, 64, 18
1, 224921, Control_c, 0, 64, 29
1, 224932, Note_off_c, 0, 53, 60
1, 224936, Control_c, 0, 64, 38
1, 224951, Control_c, 0, 64, 46
1, 224961, Note_on_c, 0, 79, 68
1, 224965, Control_c, 0, 64, 47
1, 224980, Control_c, 0, 64, 41
1, 224995, Control_c, 0, 64, 27
1, 224997, Note_on_c, 0, 75, 37
1, 225010, Control_c, 0, 64, 0
1, 225104, Note_off_c, 0, 75, 0
1, 225137, Control_c, 0, 64, 16
1, 225148, Poly_aftertouch_c, 0, 75, 127
1, 225152, Control_c, 0, 64, 25
1, 225155, Note_on_c, 0, 77, 67
1, 225167, Control_c, 0, 64, 31
1, 225182, Control_c, 0, 64, 38
1, 225182, Note_off_c, 0, 79, 57
1, 225196, Control_c, 0, 64, 44
1, 225211, Control_c, 0, 64, 51
1, 225226, Control_c, 0, 64, 56
1, 225230, Poly_aftertouch_c, 0, 75, 0
1, 225241, Control_c, 0, 64, 60
1, 225243, Note_off_c, 0, 77, 60
1, 225256, Control_c, 0, 64, 61
1, 225270, Control_c, 0, 64, 62
1, 225285, Control_c, 0, 64, 63
1, 225300, Control_c, 0, 64, 64
1, 225314, Control_c, 0, 64, 65
1, 225329, Control_c, 0, 64, 68
1, 225336, Note_on_c, 0, 77, 58
1, 225344, Control_c, 0, 64, 69
1, 225349, Note_on_c, 0, 74, 43
1, 225380, Note_off_c, 0, 74, 67
1, 225418, Control_c, 0, 64, 70
1, 225433, Control_c, 0, 64, 71
1, 225448, Control_c, 0, 64, 71
1, 225462, Control_c, 0, 64, 72
1, 225477, Control_c, 0, 64, 72
1, 225507, Control_c, 0, 64, 71
1, 225522, Control_c, 0, 64, 63
1, 225530, Note_on_c, 0, 75, 61
1, 225537, Control_c, 0, 64, 51
1, 225552, Control_c, 0, 64, 17
1, 225552, Note_on_c, 0, 67, 48
1, 225567, Control_c, 0, 64, 0
1, 225572, Note_off_c, 0, 77, 43
1, 225626, Control_c, 0, 64, 10
1, 225641, Control_c, 0, 64, 24
1, 225656, Control_c, 0, 64, 33
1, 225670, Control_c, 0, 64, 41
1, 225685, Control_c, 0, 64, 50
1, 225700, Control_c, 0, 64, 58
1, 225714, Control_c, 0, 64, 63
1, 225729, Control_c, 0, 64, 66
1, 225736, Note_on_c, 0, 72, 56
1, 225744, Control_c, 0, 64, 68
1, 225745, Note_off_c, 0, 67, 35
1, 225759, Control_c, 0, 64, 70
1, 225774, Control_c, 0, 64, 76
1, 225788, Control_c, 0, 64, 84
1, 225803, Control_c, 0, 64, 95
1, 225818, Control_c, 0, 64, 102
1, 225834, Control_c, 0, 64, 113
1, 225849, Control_c, 0, 64, 127
1, 225853, Note_off_c, 0, 75, 56
1, 225863, Note_off_c, 0, 72, 60
1, 225909, Note_on_c, 0, 70, 63
1, 225971, Note_off_c, 0, 70, 60
1, 226079, Control_c, 0, 64, 114
1, 226093, Control_c, 0, 64, 63
1, 226101, Note_on_c, 0, 77, 60
1, 226108, Control_c, 0, 64, 36
1, 226121, Note_on_c, 0, 68, 29
1, 226123, Control_c, 0, 64, 0
1, 226167, Control_c, 0, 64, 10
1, 226182, Control_c, 0, 64, 32
1, 226197, Control_c, 0, 64, 50
1, 226211, Control_c, 0, 64, 67
1, 226226, Control_c, 0, 64, 127
1, 226321, Note_on_c, 0, 67, 47
1, 226363, Note_off_c, 0, 67, 47
1, 226437, Note_off_c, 0, 77, 41
1, 226514, Note_on_c, 0, 74, 56
1, 226515, Note_on_c, 0, 65, 62
1, 226537, Note_off_c, 0, 68, 41
1, 226615, Note_off_c, 0, 65, 57
1, 226784, Note_off_c, 0, 74, 60
1, 226806, Note_on_c, 0, 43, 99
1, 226812, Note_on_c, 0, 31, 82
1, 226813, Note_on_c, 0, 75, 81
1, 226818, Note_on_c, 0, 67, 82
1, 226841, Control_c, 0, 64, 73
1, 226856, Control_c, 0, 64, 51
1, 226871, Control_c, 0, 64, 0
1, 227019, Control_c, 0, 64, 14
1, 227033, Control_c, 0, 64, 27
1, 227048, Control_c, 0, 64, 38
1, 227063, Control_c, 0, 64, 49
1, 227067, Note_off_c, 0, 75, 59
1, 227078, Control_c, 0, 64, 58
1, 227081, Note_on_c, 0, 71, 63
1, 227093, Control_c, 0, 64, 62
1, 227108, Control_c, 0, 64, 63
1, 227123, Control_c, 0, 64, 64
1, 227137, Control_c, 0, 64, 68
1, 227152, Control_c, 0, 64, 73
1, 227167, Control_c, 0, 64, 78
1, 227182, Control_c, 0, 64, 82
1, 227197, Control_c, 0, 64, 86
1, 227212, Control_c, 0, 64, 90
1, 227227, Control_c, 0, 64, 95
1, 227241, Control_c, 0, 64, 109
1, 227254, Note_on_c, 0, 72, 74
1, 227256, Control_c, 0, 64, 127
1, 227266, Note_off_c, 0, 71, 64
1, 227398, Note_off_c, 0, 72, 62
1, 227427, Control_c, 0, 64, 77
1, 227434, Note_on_c, 0, 74, 88
1, 227442, Control_c, 0, 64, 52
1, 227457, Control_c, 0, 64, 0
1, 227502, Control_c, 0, 64, 15
1, 227516, Control_c, 0, 64, 33
1, 227531, Control_c, 0, 64, 52
1, 227546, Control_c, 0, 64, 68
1, 227561, Control_c, 0, 64, 127
1, 227624, Note_off_c, 0, 31, 56
1, 227626, Note_on_c, 0, 69, 62
1, 227657, Note_off_c, 0, 67, 57
1, 227710, Note_off_c, 0, 43, 56
1, 227798, Note_off_c, 0, 74, 62
1, 227811, Note_on_c, 0, 71, 72
1, 227824, Note_off_c, 0, 69, 61
1, 227961, Control_c, 0, 64, 101
1, 227976, Control_c, 0, 64, 59
1, 227981, Note_off_c, 0, 71, 64
1, 227986, Note_on_c, 0, 48, 98
1, 227990, Control_c, 0, 64, 0
1, 228001, Note_on_c, 0, 36, 72
1, 228002, Note_on_c, 0, 63, 80
1, 228094, Control_c, 0, 64, 34
1, 228116, Control_c, 0, 64, 51
1, 228131, Control_c, 0, 64, 68
1, 228146, Control_c, 0, 64, 127
1, 228214, Note_on_c, 0, 75, 77
1, 228260, Note_off_c, 0, 63, 64
1, 228263, Note_off_c, 0, 48, 60
1, 228321, Note_off_c, 0, 36, 62
1, 228394, Note_on_c, 0, 72, 74
1, 228423, Note_off_c, 0, 75, 47
1, 228562, Control_c, 0, 64, 68
1, 228572, Note_on_c, 0, 45, 97
1, 228577, Control_c, 0, 64, 24
1, 228585, Note_on_c, 0, 33, 75
1, 228589, Note_on_c, 0, 65, 79
1, 228592, Control_c, 0, 64, 0
1, 228623, Note_off_c, 0, 72, 36
1, 228680, Control_c, 0, 64, 19
1, 228695, Control_c, 0, 64, 40
1, 228710, Control_c, 0, 64, 58
1, 228725, Control_c, 0, 64, 87
1, 228739, Control_c, 0, 64, 127
1, 228774, Note_on_c, 0, 74, 78
1, 228815, Note_off_c, 0, 33, 59
1, 228874, Note_off_c, 0, 45, 65
1, 228964, Note_on_c, 0, 75, 86
1, 229000, Note_off_c, 0, 74, 63
1, 229133, Control_c, 0, 64, 102
1, 229144, Note_on_c, 0, 50, 101
1, 229148, Control_c, 0, 64, 50
1, 229155, Note_on_c, 0, 38, 78
1, 229162, Control_c, 0, 64, 0
1, 229238, Note_off_c, 0, 75, 60
1, 229251, Control_c, 0, 64, 33
1, 229266, Control_c, 0, 64, 52
1, 229281, Control_c, 0, 64, 72
1, 229296, Control_c, 0, 64, 127
1, 229337, Note_on_c, 0, 77, 86
1, 229379, Note_off_c, 0, 50, 58
1, 229447, Note_off_c, 0, 38, 61
1, 229520, Note_on_c, 0, 75, 82
1, 229570, Note_off_c, 0, 65, 37
1, 229606, Note_off_c, 0, 77, 50
1, 229676, Note_off_c, 0, 75, 60
1, 229688, Control_c, 0, 64, 69
1, 229703, Control_c, 0, 64, 40
1, 229708, Note_on_c, 0, 47, 95
1, 229716, Note_on_c, 0, 74, 73
1, 229718, Control_c, 0, 64, 0
1, 229721, Note_on_c, 0, 35, 70
1, 229722, Note_on_c, 0, 67, 75
1, 229822, Control_c, 0, 64, 26
1, 229838, Control_c, 0, 64, 46
1, 229853, Control_c, 0, 64, 63
1, 229867, Control_c, 0, 64, 127
1, 229908, Note_off_c, 0, 35, 62
1, 229922, Note_off_c, 0, 74, 61
1, 229923, Note_on_c, 0, 75, 81
1, 229960, Note_off_c, 0, 47, 63
1, 230092, Note_off_c, 0, 67, 0
1, 230103, Note_on_c, 0, 77, 91
1, 230109, Note_on_c, 0, 67, 38
1, 230133, Note_off_c, 0, 75, 46
1, 230164, Note_off_c, 0, 67, 60
1, 230267, Control_c, 0, 64, 103
1, 230273, Note_off_c, 0, 77, 60
1, 230282, Control_c, 0, 64, 57
1, 230289, Note_on_c, 0, 51, 104
1, 230289, Note_on_c, 0, 79, 85
1, 230297, Control_c, 0, 64, 0
1, 230303, Note_on_c, 0, 39, 76
1, 230363, Control_c, 0, 64, 15
1, 230378, Control_c, 0, 64, 36
1, 230393, Control_c, 0, 64, 55
1, 230408, Control_c, 0, 64, 74
1, 230422, Control_c, 0, 64, 127
1, 230490, Note_off_c, 0, 79, 38
1, 230493, Note_on_c, 0, 68, 81
1, 230557, Note_off_c, 0, 51, 61
1, 230597, Note_off_c, 0, 39, 62
1, 230682, Note_off_c, 0, 68, 57
1, 230690, Note_on_c, 0, 65, 83
1, 230852, Control_c, 0, 64, 84
1, 230861, Note_on_c, 0, 48, 98
1, 230867, Control_c, 0, 64, 47
1, 230872, Note_on_c, 0, 63, 74
1, 230876, Note_on_c, 0, 36, 71
1, 230882, Control_c, 0, 64, 0
1, 230884, Note_off_c, 0, 65, 56
1, 231000, Control_c, 0, 64, 27
1, 231015, Control_c, 0, 64, 47
1, 231030, Control_c, 0, 64, 65
1, 231045, Control_c, 0, 64, 127
1, 231059, Note_on_c, 0, 65, 83
1, 231082, Note_off_c, 0, 63, 38
1, 231090, Note_off_c, 0, 36, 60
1, 231176, Note_off_c, 0, 48, 59
1, 231258, Note_on_c, 0, 67, 89
1, 231319, Note_off_c, 0, 65, 61
1, 231424, Control_c, 0, 64, 80
1, 231436, Note_on_c, 0, 53, 97
1, 231439, Control_c, 0, 64, 48
1, 231452, Note_on_c, 0, 41, 68
1, 231454, Control_c, 0, 64, 0
1, 231602, Control_c, 0, 64, 20
1, 231617, Control_c, 0, 64, 39
1, 231631, Control_c, 0, 64, 57
1, 231635, Note_on_c, 0, 68, 79
1, 231646, Control_c, 0, 64, 73
1, 231661, Control_c, 0, 64, 127
1, 231686, Note_off_c, 0, 67, 22
1, 231730, Note_off_c, 0, 53, 57
1, 231758, Note_off_c, 0, 41, 62
1, 231820, Note_on_c, 0, 67, 87
1, 231868, Note_off_c, 0, 68, 59
1, 232008, Note_on_c, 0, 50, 91
1, 232009, Control_c, 0, 64, 66
1, 232018, Note_on_c, 0, 38, 76
1, 232024, Control_c, 0, 64, 25
1, 232029, Note_on_c, 0, 65, 77
1, 232029, Note_off_c, 0, 67, 56
1, 232038, Control_c, 0, 64, 0
1, 232128, Control_c, 0, 64, 33
1, 232142, Control_c, 0, 64, 53
1, 232157, Control_c, 0, 64, 74
1, 232172, Control_c, 0, 64, 127
1, 232200, Note_on_c, 0, 67, 86
1, 232219, Note_off_c, 0, 38, 62
1, 232235, Note_off_c, 0, 65, 65
1, 232279, Note_off_c, 0, 50, 64
1, 232387, Note_on_c, 0, 68, 88
1, 232402, Note_off_c, 0, 67, 64
1, 232430, Note_off_c, 0, 68, 62
1, 232558, Control_c, 0, 64, 100
1, 232572, Control_c, 0, 64, 55
1, 232582, Note_on_c, 0, 55, 97
1, 232587, Control_c, 0, 64, 0
1, 232593, Note_on_c, 0, 43, 75
1, 232604, Note_on_c, 0, 80, 81
1, 232605, Note_on_c, 0, 70, 82
1, 232730, Note_off_c, 0, 80, 60
1, 232743, Control_c, 0, 64, 25
1, 232758, Control_c, 0, 64, 41
1, 232773, Control_c, 0, 64, 59
1, 232787, Control_c, 0, 64, 127
1, 232795, Note_on_c, 0, 82, 85
1, 232831, Note_off_c, 0, 70, 60
1, 232852, Note_off_c, 0, 55, 61
1, 232894, Note_off_c, 0, 43, 61
1, 232975, Note_on_c, 0, 79, 89
1, 232996, Note_off_c, 0, 82, 60
1, 233153, Note_on_c, 0, 52, 102
1, 233157, Note_off_c, 0, 79, 51
1, 233159, Control_c, 0, 64, 54
1, 233162, Note_on_c, 0, 72, 76
1, 233167, Note_on_c, 0, 40, 80
1, 233174, Control_c, 0, 64, 0
1, 233277, Control_c, 0, 64, 22
1, 233292, Control_c, 0, 64, 39
1, 233307, Control_c, 0, 64, 54
1, 233321, Control_c, 0, 64, 68
1, 233336, Control_c, 0, 64, 99
1, 233339, Note_on_c, 0, 81, 84
1, 233359, Note_off_c, 0, 40, 60
1, 233359, Control_c, 0, 64, 127
1, 233414, Note_off_c, 0, 52, 69
1, 233526, Note_on_c, 0, 82, 94
1, 233586, Note_off_c, 0, 81, 58
1, 233684, Control_c, 0, 64, 70
1, 233699, Control_c, 0, 64, 39
1, 233704, Note_on_c, 0, 57, 96
1, 233714, Control_c, 0, 64, 0
1, 233716, Note_on_c, 0, 45, 79
1, 233758, Control_c, 0, 64, 9
1, 233773, Control_c, 0, 64, 34
1, 233786, Note_off_c, 0, 82, 63
1, 233788, Control_c, 0, 64, 51
1, 233803, Control_c, 0, 64, 69
1, 233818, Control_c, 0, 64, 127
1, 233867, Note_off_c, 0, 45, 63
1, 233867, Note_off_c, 0, 57, 53
1, 233883, Note_on_c, 0, 84, 89
1, 233919, Note_off_c, 0, 72, 28
1, 234056, Note_on_c, 0, 55, 92
1, 234062, Note_on_c, 0, 43, 80
1, 234063, Note_on_c, 0, 82, 84
1, 234080, Note_off_c, 0, 84, 60
1, 234163, Note_off_c, 0, 55, 64
1, 234174, Note_off_c, 0, 43, 59
1, 234206, Poly_aftertouch_c, 0, 45, 127
1, 234230, Note_off_c, 0, 82, 62
1, 234238, Poly_aftertouch_c, 0, 45, 0
1, 234241, Control_c, 0, 64, 117
1, 234256, Control_c, 0, 64, 64
1, 234262, Note_on_c, 0, 53, 95
1, 234270, Note_on_c, 0, 41, 81
1, 234270, Note_on_c, 0, 75, 80
1, 234271, Control_c, 0, 64, 40
1, 234271, Note_on_c, 0, 81, 77
1, 234285, Control_c, 0, 64, 0
1, 234375, Note_off_c, 0, 41, 61
1, 234375, Note_off_c, 0, 53, 65
1, 234458, Note_on_c, 0, 55, 97
1, 234462, Note_on_c, 0, 82, 79
1, 234465, Note_on_c, 0, 43, 83
1, 234494, Note_off_c, 0, 81, 56
1, 234540, Note_off_c, 0, 55, 63
1, 234544, Note_off_c, 0, 43, 62
1, 234546, Note_off_c, 0, 75, 55
1, 234626, Note_on_c, 0, 57, 101
1, 234631, Note_on_c, 0, 45, 80
1, 234639, Note_on_c, 0, 84, 85
1, 234657, Note_off_c, 0, 82, 47
1, 234691, Note_off_c, 0, 45, 63
1, 234707, Note_off_c, 0, 57, 59
1, 234815, Note_on_c, 0, 58, 103
1, 234821, Note_off_c, 0, 84, 61
1, 234828, Note_on_c, 0, 85, 81
1, 234832, Note_on_c, 0, 46, 73
1, 234915, Control_c, 0, 64, 22
1, 234930, Control_c, 0, 64, 42
1, 234945, Control_c, 0, 64, 59
1, 234960, Control_c, 0, 64, 82
1, 234974, Note_off_c, 0, 85, 53
1, 234974, Control_c, 0, 64, 127
1, 235019, Note_on_c, 0, 73, 76
1, 235055, Note_off_c, 0, 46, 63
1, 235119, Note_off_c, 0, 73, 60
1, 235135, Note_off_c, 0, 58, 62
1, 235203, Note_on_c, 0, 70, 75
1, 235369, Note_on_c, 0, 60, 98
1, 235372, Note_off_c, 0, 70, 50
1, 235374, Control_c, 0, 64, 64
1, 235380, Note_on_c, 0, 48, 74
1, 235389, Control_c, 0, 64, 33
1, 235394, Note_on_c, 0, 77, 71
1, 235404, Control_c, 0, 64, 0
1, 235494, Control_c, 0, 64, 19
1, 235509, Control_c, 0, 64, 34
1, 235523, Control_c, 0, 64, 48
1, 235538, Control_c, 0, 64, 62
1, 235553, Control_c, 0, 64, 89
1, 235568, Control_c, 0, 64, 122
1, 235579, Note_on_c, 0, 69, 79
1, 235583, Control_c, 0, 64, 127
1, 235628, Note_off_c, 0, 48, 63
1, 235636, Note_off_c, 0, 77, 37
1, 235674, Note_off_c, 0, 60, 59
1, 235769, Note_on_c, 0, 72, 87
1, 235853, Note_off_c, 0, 69, 60
1, 235942, Note_on_c, 0, 61, 87
1, 235955, Note_on_c, 0, 49, 72
1, 235961, Control_c, 0, 64, 68
1, 235976, Control_c, 0, 64, 46
1, 235991, Control_c, 0, 64, 0
1, 236135, Note_on_c, 0, 70, 86
1, 236227, Note_off_c, 0, 72, 59
1, 236228, Control_c, 0, 64, 12
1, 236243, Control_c, 0, 64, 29
1, 236258, Control_c, 0, 64, 40
1, 236272, Note_off_c, 0, 49, 65
1, 236272, Control_c, 0, 64, 51
1, 236287, Control_c, 0, 64, 60
1, 236302, Control_c, 0, 64, 65
1, 236317, Control_c, 0, 64, 68
1, 236332, Control_c, 0, 64, 72
1, 236354, Control_c, 0, 64, 76
1, 236360, Note_on_c, 0, 73, 78
1, 236369, Control_c, 0, 64, 79
1, 236384, Control_c, 0, 64, 84
1, 236399, Control_c, 0, 64, 90
1, 236414, Control_c, 0, 64, 93
1, 236428, Note_off_c, 0, 61, 56
1, 236477, Note_off_c, 0, 70, 57
1, 236501, Control_c, 0, 64, 92
1, 236516, Control_c, 0, 64, 90
1, 236531, Control_c, 0, 64, 87
1, 236545, Control_c, 0, 64, 86
1, 236560, Control_c, 0, 64, 84
1, 236575, Control_c, 0, 64, 81
1, 236590, Control_c, 0, 64, 78
1, 236605, Control_c, 0, 64, 73
1, 236620, Control_c, 0, 64, 68
1, 236635, Control_c, 0, 64, 64
1, 236650, Control_c, 0, 64, 59
1, 236664, Control_c, 0, 64, 51
1, 236668, Note_off_c, 0, 73, 20
1, 236677, Note_on_c, 0, 69, 50
1, 236679, Control_c, 0, 64, 38
1, 236682, Note_on_c, 0, 60, 38
1, 236694, Control_c, 0, 64, 19
1, 236707, Note_on_c, 0, 65, 26
1, 236709, Control_c, 0, 64, 0
1, 236848, Note_off_c, 0, 60, 58
1, 236882, Note_on_c, 0, 61, 45
1, 237014, Note_off_c, 0, 69, 45
1, 237052, Note_on_c, 0, 72, 45
1, 237054, Note_off_c, 0, 61, 43
1, 237071, Note_on_c, 0, 63, 32
1, 237263, Note_on_c, 0, 70, 57
1, 237282, Note_off_c, 0, 72, 50
1, 237437, Note_on_c, 0, 61, 43
1, 237468, Note_off_c, 0, 63, 43
1, 237618, Note_on_c, 0, 73, 51
1, 237634, Note_on_c, 0, 58, 40
1, 237647, Note_off_c, 0, 61, 56
1, 237761, Note_off_c, 0, 73, 54
1, 237828, Note_on_c, 0, 72, 53
1, 237860, Note_off_c, 0, 70, 53
1, 238016, Note_off_c, 0, 58, 36
1, 238023, Note_on_c, 0, 57, 38
1, 238196, Note_on_c, 0, 75, 56
1, 238215, Note_off_c, 0, 72, 50
1, 238233, Note_on_c, 0, 60, 9
1, 238252, Note_off_c, 0, 57, 29
1, 238401, Note_off_c, 0, 75, 54
1, 238411, Note_on_c, 0, 73, 48
1, 238582, Note_off_c, 0, 60, 43
1, 238596, Note_on_c, 0, 58, 46
1, 238738, Note_off_c, 0, 73, 60
1, 238748, Control_c, 0, 64, 14
1, 238760, Note_off_c, 0, 58, 55
1, 238763, Control_c, 0, 64, 22
1, 238778, Control_c, 0, 64, 28
1, 238781, Note_on_c, 0, 77, 66
1, 238782, Note_on_c, 0, 61, 39
1, 238793, Control_c, 0, 64, 32
1, 238808, Control_c, 0, 64, 37
1, 238816, Note_off_c, 0, 65, 41
1, 238822, Control_c, 0, 64, 44
1, 238837, Control_c, 0, 64, 50
1, 238852, Control_c, 0, 64, 54
1, 238866, Control_c, 0, 64, 55
1, 238881, Control_c, 0, 64, 56
1, 238896, Control_c, 0, 64, 57
1, 238911, Control_c, 0, 64, 58
1, 238926, Control_c, 0, 64, 60
1, 238940, Control_c, 0, 64, 62
1, 238955, Control_c, 0, 64, 63
1, 238959, Note_off_c, 0, 61, 56
1, 238962, Note_off_c, 0, 77, 55
1, 239029, Control_c, 0, 64, 62
1, 239044, Control_c, 0, 64, 58
1, 239052, Note_on_c, 0, 75, 85
1, 239059, Control_c, 0, 64, 49
1, 239073, Control_c, 0, 64, 29
1, 239076, Note_on_c, 0, 55, 50
1, 239088, Note_on_c, 0, 70, 48
1, 239088, Control_c, 0, 64, 0
1, 239141, Note_off_c, 0, 70, 0
1, 239141, Note_on_c, 0, 70, 21
1, 239207, Control_c, 0, 64, 12
1, 239222, Control_c, 0, 64, 22
1, 239237, Control_c, 0, 64, 28
1, 239252, Control_c, 0, 64, 33
1, 239266, Control_c, 0, 64, 37
1, 239273, Note_on_c, 0, 72, 75
1, 239277, Note_on_c, 0, 56, 62
1, 239281, Control_c, 0, 64, 43
1, 239296, Control_c, 0, 64, 48
1, 239297, Note_off_c, 0, 70, 40
1, 239311, Control_c, 0, 64, 52
1, 239326, Control_c, 0, 64, 53
1, 239347, Control_c, 0, 64, 54
1, 239392, Control_c, 0, 64, 55
1, 239407, Control_c, 0, 64, 57
1, 239423, Control_c, 0, 64, 59
1, 239452, Control_c, 0, 64, 58
1, 239464, Note_on_c, 0, 58, 55
1, 239466, Note_on_c, 0, 73, 82
1, 239467, Control_c, 0, 64, 54
1, 239482, Control_c, 0, 64, 46
1, 239484, Note_off_c, 0, 55, 40
1, 239487, Note_off_c, 0, 72, 60
1, 239496, Control_c, 0, 64, 29
1, 239500, Note_off_c, 0, 56, 35
1, 239511, Control_c, 0, 64, 0
1, 239650, Note_on_c, 0, 72, 77
1, 239728, Note_off_c, 0, 73, 38
1, 239734, Control_c, 0, 64, 9
1, 239749, Control_c, 0, 64, 14
1, 239763, Control_c, 0, 64, 18
1, 239778, Control_c, 0, 64, 19
1, 239822, Control_c, 0, 64, 18
1, 239837, Control_c, 0, 64, 16
1, 239842, Note_on_c, 0, 56, 64
1, 239852, Control_c, 0, 64, 14
1, 239867, Control_c, 0, 64, 13
1, 239881, Note_off_c, 0, 58, 60
1, 240006, Note_off_c, 0, 72, 62
1, 240019, Note_on_c, 0, 68, 67
1, 240028, Note_on_c, 0, 60, 47
1, 240028, Note_off_c, 0, 56, 65
1, 240045, Control_c, 0, 64, 13
1, 240096, Control_c, 0, 64, 14
1, 240177, Note_off_c, 0, 68, 53
1, 240231, Control_c, 0, 64, 12
1, 240234, Note_on_c, 0, 67, 73
1, 240245, Control_c, 0, 64, 8
1, 240260, Control_c, 0, 64, 0
1, 240409, Note_on_c, 0, 58, 61
1, 240471, Note_off_c, 0, 60, 59
1, 240588, Note_off_c, 0, 58, 58
1, 240589, Note_on_c, 0, 70, 68
1, 240611, Note_on_c, 0, 61, 51
1, 240643, Note_off_c, 0, 67, 60
1, 240784, Note_on_c, 0, 68, 72
1, 240907, Note_off_c, 0, 70, 55
1, 240979, Note_on_c, 0, 60, 52
1, 240981, Note_off_c, 0, 61, 55
1, 241006, Note_off_c, 0, 75, 56
1, 241125, Note_off_c, 0, 60, 61
1, 241155, Note_on_c, 0, 72, 65
1, 241172, Control_c, 0, 64, 18
1, 241178, Note_on_c, 0, 63, 42
1, 241186, Control_c, 0, 64, 25
1, 241201, Control_c, 0, 64, 29
1, 241209, Note_off_c, 0, 68, 57
1, 241216, Control_c, 0, 64, 34
1, 241231, Control_c, 0, 64, 39
1, 241246, Control_c, 0, 64, 45
1, 241260, Control_c, 0, 64, 50
1, 241275, Control_c, 0, 64, 52
1, 241290, Control_c, 0, 64, 53
1, 241305, Control_c, 0, 64, 53
1, 241347, Note_off_c, 0, 63, 36
1, 241350, Note_off_c, 0, 72, 47
1, 241379, Control_c, 0, 64, 52
1, 241393, Control_c, 0, 64, 50
1, 241408, Control_c, 0, 64, 48
1, 241416, Note_on_c, 0, 67, 51
1, 241423, Control_c, 0, 64, 43
1, 241436, Note_on_c, 0, 58, 38
1, 241438, Control_c, 0, 64, 35
1, 241453, Poly_aftertouch_c, 0, 63, 127
1, 241453, Control_c, 0, 64, 21
1, 241467, Control_c, 0, 64, 0
1, 241634, Note_on_c, 0, 60, 38
1, 241641, Note_off_c, 0, 58, 35
1, 241761, Note_off_c, 0, 60, 36
1, 241801, Note_on_c, 0, 70, 48
1, 241811, Note_off_c, 0, 67, 46
1, 241818, Note_on_c, 0, 61, 36
1, 241906, Control_c, 0, 64, 10
1, 241921, Control_c, 0, 64, 12
1, 241936, Control_c, 0, 64, 12
1, 241994, Note_on_c, 0, 68, 54
1, 241995, Control_c, 0, 64, 12
1, 242008, Note_off_c, 0, 70, 51
1, 242009, Control_c, 0, 64, 9
1, 242024, Control_c, 0, 64, 0
1, 242194, Note_on_c, 0, 60, 37
1, 242244, Note_off_c, 0, 61, 34
1, 242378, Note_on_c, 0, 72, 55
1, 242385, Note_off_c, 0, 68, 54
1, 242409, Note_on_c, 0, 56, 30
1, 242513, Note_off_c, 0, 60, 34
1, 242564, Note_on_c, 0, 70, 62
1, 242677, Note_off_c, 0, 72, 48
1, 242685, Control_c, 0, 64, 8
1, 242700, Control_c, 0, 64, 9
1, 242714, Control_c, 0, 64, 10
1, 242722, Note_off_c, 0, 56, 41
1, 242729, Control_c, 0, 64, 11
1, 242744, Note_on_c, 0, 55, 47
1, 242744, Control_c, 0, 64, 12
1, 242759, Control_c, 0, 64, 13
1, 242774, Control_c, 0, 64, 14
1, 242788, Control_c, 0, 64, 15
1, 242803, Control_c, 0, 64, 16
1, 242818, Control_c, 0, 64, 18
1, 242832, Control_c, 0, 64, 18
1, 242847, Control_c, 0, 64, 19
1, 242877, Control_c, 0, 64, 19
1, 242905, Note_off_c, 0, 55, 63
1, 242932, Note_on_c, 0, 58, 59
1, 242941, Note_on_c, 0, 73, 56
1, 242997, Poly_aftertouch_c, 0, 63, 0
1, 243011, Control_c, 0, 64, 20
1, 243026, Control_c, 0, 64, 20
1, 243071, Note_off_c, 0, 73, 62
1, 243121, Control_c, 0, 64, 20
1, 243136, Control_c, 0, 64, 14
1, 243137, Note_on_c, 0, 72, 62
1, 243151, Control_c, 0, 64, 0
1, 243164, Note_off_c, 0, 70, 58
1, 243305, Note_off_c, 0, 72, 60
1, 243319, Note_on_c, 0, 56, 56
1, 243321, Note_on_c, 0, 73, 60
1, 243330, Note_on_c, 0, 70, 48
1, 243333, Note_off_c, 0, 58, 50
1, 243424, Note_off_c, 0, 73, 59
1, 243434, Control_c, 0, 64, 12
1, 243449, Control_c, 0, 64, 20
1, 243457, Note_off_c, 0, 70, 50
1, 243463, Note_off_c, 0, 56, 62
1, 243463, Control_c, 0, 64, 26
1, 243478, Control_c, 0, 64, 33
1, 243493, Control_c, 0, 64, 42
1, 243501, Note_on_c, 0, 54, 55
1, 243504, Note_on_c, 0, 75, 52
1, 243508, Control_c, 0, 64, 52
1, 243523, Control_c, 0, 64, 60
1, 243537, Control_c, 0, 64, 64
1, 243552, Control_c, 0, 64, 65
1, 243563, Note_on_c, 0, 72, 26
1, 243567, Control_c, 0, 64, 66
1, 243571, Note_off_c, 0, 75, 58
1, 243581, Control_c, 0, 64, 68
1, 243596, Control_c, 0, 64, 71
1, 243611, Control_c, 0, 64, 73
1, 243626, Control_c, 0, 64, 73
1, 243655, Control_c, 0, 64, 74
1, 243670, Control_c, 0, 64, 82
1, 243685, Control_c, 0, 64, 91
1, 243700, Control_c, 0, 64, 94
1, 243715, Control_c, 0, 64, 91
1, 243729, Control_c, 0, 64, 78
1, 243742, Note_on_c, 0, 61, 66
1, 243744, Control_c, 0, 64, 65
1, 243755, Note_off_c, 0, 54, 37
1, 243759, Control_c, 0, 64, 51
1, 243774, Control_c, 0, 64, 0
1, 243775, Note_on_c, 0, 77, 45
1, 243776, Note_on_c, 0, 53, 38
1, 243786, Note_on_c, 0, 52, 41
1, 243915, Note_off_c, 0, 52, 42
1, 243937, Note_off_c, 0, 53, 35
1, 244003, Control_c, 0, 64, 18
1, 244006, Note_on_c, 0, 52, 54
1, 244018, Control_c, 0, 64, 28
1, 244033, Control_c, 0, 64, 38
1, 244048, Control_c, 0, 64, 48
1, 244057, Note_off_c, 0, 77, 62
1, 244063, Control_c, 0, 64, 59
1, 244078, Control_c, 0, 64, 64
1, 244093, Control_c, 0, 64, 66
1, 244108, Control_c, 0, 64, 67
1, 244116, Note_off_c, 0, 72, 45
1, 244123, Control_c, 0, 64, 69
1, 244137, Control_c, 0, 64, 74
1, 244143, Note_off_c, 0, 52, 57
1, 244152, Control_c, 0, 64, 81
1, 244167, Control_c, 0, 64, 85
1, 244181, Control_c, 0, 64, 88
1, 244192, Note_on_c, 0, 53, 57
1, 244196, Control_c, 0, 64, 91
1, 244212, Control_c, 0, 64, 95
1, 244227, Control_c, 0, 64, 100
1, 244242, Control_c, 0, 64, 103
1, 244360, Control_c, 0, 64, 99
1, 244364, Note_off_c, 0, 53, 62
1, 244375, Control_c, 0, 64, 86
1, 244390, Control_c, 0, 64, 71
1, 244392, Note_on_c, 0, 66, 72
1, 244403, Note_on_c, 0, 51, 54
1, 244404, Control_c, 0, 64, 60
1, 244419, Control_c, 0, 64, 44
1, 244423, Note_off_c, 0, 61, 37
1, 244434, Control_c, 0, 64, 0
1, 244493, Control_c, 0, 64, 11
1, 244508, Control_c, 0, 64, 17
1, 244523, Control_c, 0, 64, 20
1, 244538, Control_c, 0, 64, 24
1, 244552, Control_c, 0, 64, 28
1, 244559, Note_off_c, 0, 51, 61
1, 244567, Control_c, 0, 64, 31
1, 244590, Control_c, 0, 64, 33
1, 244605, Control_c, 0, 64, 34
1, 244610, Note_on_c, 0, 53, 52
1, 244619, Control_c, 0, 64, 37
1, 244634, Control_c, 0, 64, 41
1, 244649, Control_c, 0, 64, 46
1, 244664, Control_c, 0, 64, 50
1, 244679, Control_c, 0, 64, 54
1, 244693, Control_c, 0, 64, 56
1, 244709, Control_c, 0, 64, 57
1, 244754, Control_c, 0, 64, 56
1, 244768, Control_c, 0, 64, 56
1, 244781, Note_on_c, 0, 49, 48
1, 244783, Note_on_c, 0, 58, 54
1, 244783, Control_c, 0, 64, 55
1, 244812, Control_c, 0, 64, 55
1, 244826, Note_off_c, 0, 53, 35
1, 244872, Control_c, 0, 64, 54
1, 244886, Control_c, 0, 64, 54
1, 244916, Control_c, 0, 64, 53
1, 244931, Control_c, 0, 64, 53
1, 244945, Control_c, 0, 64, 52
1, 244960, Control_c, 0, 64, 51
1, 244975, Control_c, 0, 64, 49
1, 244990, Control_c, 0, 64, 45
1, 244997, Note_on_c, 0, 63, 73
1, 245006, Control_c, 0, 64, 38
1, 245021, Control_c, 0, 64, 30
1, 245035, Control_c, 0, 64, 20
1, 245045, Note_off_c, 0, 58, 58
1, 245050, Control_c, 0, 64, 14
1, 245065, Control_c, 0, 64, 11
1, 245080, Control_c, 0, 64, 10
1, 245095, Control_c, 0, 64, 9
1, 245109, Control_c, 0, 64, 8
1, 245157, Note_off_c, 0, 49, 56
1, 245178, Note_on_c, 0, 48, 47
1, 245190, Note_on_c, 0, 56, 51
1, 245199, Control_c, 0, 64, 9
1, 245214, Control_c, 0, 64, 10
1, 245228, Control_c, 0, 64, 12
1, 245243, Control_c, 0, 64, 15
1, 245254, Note_off_c, 0, 66, 38
1, 245258, Control_c, 0, 64, 17
1, 245273, Control_c, 0, 64, 19
1, 245288, Control_c, 0, 64, 21
1, 245302, Control_c, 0, 64, 23
1, 245304, Note_off_c, 0, 56, 57
1, 245317, Control_c, 0, 64, 25
1, 245339, Control_c, 0, 64, 28
1, 245354, Control_c, 0, 64, 31
1, 245369, Control_c, 0, 64, 34
1, 245384, Control_c, 0, 64, 36
1, 245388, Note_on_c, 0, 60, 47
1, 245399, Control_c, 0, 64, 40
1, 245402, Note_on_c, 0, 54, 43
1, 245412, Note_off_c, 0, 48, 34
1, 245413, Control_c, 0, 64, 45
1, 245428, Control_c, 0, 64, 49
1, 245443, Control_c, 0, 64, 53
1, 245457, Control_c, 0, 64, 55
1, 245472, Control_c, 0, 64, 57
1, 245590, Control_c, 0, 64, 56
1, 245593, Note_on_c, 0, 68, 70
1, 245605, Control_c, 0, 64, 55
1, 245620, Control_c, 0, 64, 53
1, 245634, Control_c, 0, 64, 49
1, 245649, Control_c, 0, 64, 44
1, 245664, Control_c, 0, 64, 38
1, 245665, Note_off_c, 0, 63, 59
1, 245679, Control_c, 0, 64, 33
1, 245694, Control_c, 0, 64, 29
1, 245709, Control_c, 0, 64, 28
1, 245723, Control_c, 0, 64, 26
1, 245738, Control_c, 0, 64, 25
1, 245753, Control_c, 0, 64, 23
1, 245768, Control_c, 0, 64, 21
1, 245783, Control_c, 0, 64, 18
1, 245793, Note_on_c, 0, 61, 55
1, 245797, Note_on_c, 0, 53, 42
1, 245798, Control_c, 0, 64, 17
1, 245813, Control_c, 0, 64, 16
1, 245828, Note_off_c, 0, 54, 42
1, 245902, Control_c, 0, 64, 18
1, 245917, Control_c, 0, 64, 20
1, 245932, Control_c, 0, 64, 22
1, 245947, Control_c, 0, 64, 25
1, 245956, Note_off_c, 0, 61, 53
1, 245959, Note_off_c, 0, 53, 60
1, 245962, Control_c, 0, 64, 27
1, 245974, Note_on_c, 0, 51, 47
1, 245975, Note_on_c, 0, 63, 53
1, 245976, Control_c, 0, 64, 31
1, 245991, Control_c, 0, 64, 34
1, 246006, Control_c, 0, 64, 38
1, 246021, Control_c, 0, 64, 41
1, 246036, Control_c, 0, 64, 45
1, 246050, Control_c, 0, 64, 49
1, 246065, Control_c, 0, 64, 53
1, 246087, Control_c, 0, 64, 56
1, 246101, Note_off_c, 0, 60, 36
1, 246102, Control_c, 0, 64, 58
1, 246117, Control_c, 0, 64, 57
1, 246132, Note_off_c, 0, 51, 58
1, 246132, Control_c, 0, 64, 54
1, 246147, Control_c, 0, 64, 46
1, 246162, Control_c, 0, 64, 24
1, 246167, Note_on_c, 0, 65, 71
1, 246171, Note_on_c, 0, 49, 51
1, 246177, Control_c, 0, 64, 0
1, 246189, Note_off_c, 0, 63, 58
1, 246351, Note_on_c, 0, 58, 50
1, 246370, Note_on_c, 0, 61, 57
1, 246381, Note_off_c, 0, 68, 55
1, 246383, Control_c, 0, 64, 16
1, 246398, Control_c, 0, 64, 24
1, 246413, Control_c, 0, 64, 29
1, 246428, Control_c, 0, 64, 35
1, 246443, Control_c, 0, 64, 41
1, 246457, Note_off_c, 0, 65, 63
1, 246457, Control_c, 0, 64, 50
1, 246472, Control_c, 0, 64, 56
1, 246475, Note_off_c, 0, 61, 61
1, 246487, Control_c, 0, 64, 60
1, 246496, Note_off_c, 0, 49, 41
1, 246501, Control_c, 0, 64, 61
1, 246545, Note_on_c, 0, 62, 57
1, 246546, Note_on_c, 0, 56, 58
1, 246561, Control_c, 0, 64, 62
1, 246581, Note_off_c, 0, 58, 44
1, 246591, Control_c, 0, 64, 62
1, 246614, Note_off_c, 0, 56, 63
1, 246695, Control_c, 0, 64, 60
1, 246710, Control_c, 0, 64, 53
1, 246716, Note_off_c, 0, 62, 36
1, 246719, Note_on_c, 0, 70, 79
1, 246725, Control_c, 0, 64, 29
1, 246733, Note_on_c, 0, 54, 50
1, 246740, Control_c, 0, 64, 0
1, 246788, Note_on_c, 0, 63, 17
1, 246840, Note_off_c, 0, 63, 52
1, 246924, Note_on_c, 0, 51, 50
1, 246939, Note_on_c, 0, 66, 57
1, 247014, Control_c, 0, 64, 12
1, 247025, Note_off_c, 0, 54, 33
1, 247029, Control_c, 0, 64, 18
1, 247044, Control_c, 0, 64, 22
1, 247059, Note_off_c, 0, 66, 53
1, 247059, Control_c, 0, 64, 26
1, 247074, Control_c, 0, 64, 29
1, 247088, Control_c, 0, 64, 32
1, 247091, Note_off_c, 0, 51, 57
1, 247101, Note_on_c, 0, 49, 49
1, 247103, Control_c, 0, 64, 34
1, 247105, Note_on_c, 0, 65, 58
1, 247118, Control_c, 0, 64, 35
1, 247132, Control_c, 0, 64, 36
1, 247147, Control_c, 0, 64, 37
1, 247162, Control_c, 0, 64, 38
1, 247177, Control_c, 0, 64, 39
1, 247221, Control_c, 0, 64, 38
1, 247236, Control_c, 0, 64, 34
1, 247247, Note_off_c, 0, 49, 52
1, 247251, Control_c, 0, 64, 24
1, 247266, Control_c, 0, 64, 0
1, 247268, Note_off_c, 0, 65, 57
1, 247277, Note_on_c, 0, 68, 74
1, 247290, Note_on_c, 0, 48, 48
1, 247297, Note_on_c, 0, 63, 46
1, 247313, Note_off_c, 0, 70, 61
1, 247387, Note_off_c, 0, 63, 0
1, 247387, Note_on_c, 0, 63, 3
1, 247437, Note_off_c, 0, 48, 56
1, 247442, Note_off_c, 0, 63, 48
1, 247476, Note_on_c, 0, 65, 57
1, 247479, Note_on_c, 0, 49, 54
1, 247533, Control_c, 0, 64, 12
1, 247548, Control_c, 0, 64, 16
1, 247563, Control_c, 0, 64, 18
1, 247585, Control_c, 0, 64, 20
1, 247594, Note_off_c, 0, 68, 56
1, 247600, Control_c, 0, 64, 23
1, 247615, Control_c, 0, 64, 25
1, 247619, Note_off_c, 0, 65, 51
1, 247629, Control_c, 0, 64, 26
1, 247633, Note_off_c, 0, 49, 34
1, 247644, Control_c, 0, 64, 28
1, 247649, Note_on_c, 0, 66, 68
1, 247657, Note_on_c, 0, 51, 50
1, 247659, Control_c, 0, 64, 30
1, 247667, Note_on_c, 0, 60, 57
1, 247674, Control_c, 0, 64, 34
1, 247689, Control_c, 0, 64, 38
1, 247703, Control_c, 0, 64, 42
1, 247718, Control_c, 0, 64, 46
1, 247733, Note_off_c, 0, 66, 62
1, 247733, Control_c, 0, 64, 49
1, 247748, Control_c, 0, 64, 51
1, 247762, Control_c, 0, 64, 53
1, 247777, Control_c, 0, 64, 53
1, 247783, Note_off_c, 0, 60, 60
1, 247792, Control_c, 0, 64, 53
1, 247807, Control_c, 0, 64, 52
1, 247822, Control_c, 0, 64, 50
1, 247828, Note_off_c, 0, 51, 50
1, 247837, Control_c, 0, 64, 46
1, 247846, Note_on_c, 0, 49, 55
1, 247846, Note_on_c, 0, 65, 61
1, 247852, Control_c, 0, 64, 40
1, 247861, Note_on_c, 0, 61, 43
1, 247867, Control_c, 0, 64, 29
1, 247882, Control_c, 0, 64, 11
1, 247897, Control_c, 0, 64, 0
1, 247968, Note_off_c, 0, 65, 59
1, 247983, Note_off_c, 0, 49, 49
1, 248026, Note_on_c, 0, 66, 57
1, 248026, Note_off_c, 0, 61, 50
1, 248027, Note_on_c, 0, 51, 49
1, 248152, Note_off_c, 0, 66, 57
1, 248162, Control_c, 0, 64, 12
1, 248177, Control_c, 0, 64, 21
1, 248192, Control_c, 0, 64, 25
1, 248199, Note_off_c, 0, 51, 49
1, 248205, Note_on_c, 0, 49, 40
1, 248208, Control_c, 0, 64, 28
1, 248210, Note_on_c, 0, 56, 39
1, 248217, Note_on_c, 0, 65, 51
1, 248223, Control_c, 0, 64, 31
1, 248238, Control_c, 0, 64, 35
1, 248252, Control_c, 0, 64, 42
1, 248267, Control_c, 0, 64, 48
1, 248282, Control_c, 0, 64, 53
1, 248290, Note_off_c, 0, 56, 43
1, 248297, Control_c, 0, 64, 55
1, 248312, Control_c, 0, 64, 56
1, 248334, Control_c, 0, 64, 57
1, 248364, Control_c, 0, 64, 57
1, 248393, Control_c, 0, 64, 58
1, 248408, Control_c, 0, 64, 57
1, 248414, Note_on_c, 0, 68, 76
1, 248423, Control_c, 0, 64, 56
1, 248438, Control_c, 0, 64, 54
1, 248453, Control_c, 0, 64, 46
1, 248468, Control_c, 0, 64, 32
1, 248483, Control_c, 0, 64, 0
1, 248552, Note_off_c, 0, 65, 41
1, 248600, Note_off_c, 0, 49, 42
1, 248609, Note_on_c, 0, 62, 41
1, 248613, Note_on_c, 0, 47, 39
1, 248631, Control_c, 0, 64, 11
1, 248646, Control_c, 0, 64, 20
1, 248660, Control_c, 0, 64, 25
1, 248675, Control_c, 0, 64, 30
1, 248690, Control_c, 0, 64, 35
1, 248705, Control_c, 0, 64, 39
1, 248720, Control_c, 0, 64, 45
1, 248734, Control_c, 0, 64, 50
1, 248749, Control_c, 0, 64, 54
1, 248764, Control_c, 0, 64, 57
1, 248767, Note_off_c, 0, 68, 57
1, 248779, Control_c, 0, 64, 58
1, 248786, Note_off_c, 0, 47, 40
1, 248794, Control_c, 0, 64, 59
1, 248797, Note_on_c, 0, 63, 52
1, 248798, Note_on_c, 0, 48, 48
1, 248802, Note_off_c, 0, 62, 43
1, 248809, Control_c, 0, 64, 60
1, 248824, Control_c, 0, 64, 60
1, 248853, Control_c, 0, 64, 61
1, 248868, Control_c, 0, 64, 61
1, 248969, Note_off_c, 0, 63, 49
1, 248986, Control_c, 0, 64, 61
1, 248996, Note_on_c, 0, 73, 70
1, 249002, Control_c, 0, 64, 59
1, 249017, Control_c, 0, 64, 55
1, 249032, Control_c, 0, 64, 45
1, 249032, Note_on_c, 0, 65, 42
1, 249047, Control_c, 0, 64, 29
1, 249062, Control_c, 0, 64, 0
1, 249080, Note_off_c, 0, 65, 46
1, 249175, Poly_aftertouch_c, 0, 65, 127
1, 249207, Note_on_c, 0, 46, 51
1, 249245, Control_c, 0, 64, 14
1, 249246, Note_off_c, 0, 48, 42
1, 249260, Control_c, 0, 64, 22
1, 249274, Control_c, 0, 64, 26
1, 249289, Control_c, 0, 64, 31
1, 249304, Control_c, 0, 64, 37
1, 249319, Control_c, 0, 64, 43
1, 249334, Control_c, 0, 64, 49
1, 249348, Control_c, 0, 64, 53
1, 249363, Control_c, 0, 64, 56
1, 249366, Note_on_c, 0, 49, 64
1, 249378, Control_c, 0, 64, 58
1, 249393, Control_c, 0, 64, 58
1, 249408, Control_c, 0, 64, 59
1, 249410, Note_off_c, 0, 46, 35
1, 249423, Control_c, 0, 64, 59
1, 249438, Control_c, 0, 64, 60
1, 249453, Control_c, 0, 64, 61
1, 249467, Control_c, 0, 64, 62
1, 249469, Poly_aftertouch_c, 0, 65, 0
1, 249526, Control_c, 0, 64, 59
1, 249541, Control_c, 0, 64, 53
1, 249546, Note_on_c, 0, 70, 80
1, 249550, Note_off_c, 0, 49, 53
1, 249556, Control_c, 0, 64, 38
1, 249571, Control_c, 0, 64, 0
1, 249572, Note_on_c, 0, 51, 52
1, 249589, Note_on_c, 0, 67, 36
1, 249634, Note_off_c, 0, 67, 47
1, 249698, Note_off_c, 0, 73, 45
1, 249718, Control_c, 0, 64, 14
1, 249726, Note_on_c, 0, 67, 36
1, 249733, Control_c, 0, 64, 20
1, 249743, Note_off_c, 0, 51, 52
1, 249748, Control_c, 0, 64, 26
1, 249757, Note_on_c, 0, 53, 61
1, 249763, Control_c, 0, 64, 33
1, 249778, Control_c, 0, 64, 39
1, 249794, Control_c, 0, 64, 47
1, 249809, Control_c, 0, 64, 54
1, 249831, Control_c, 0, 64, 57
1, 249846, Control_c, 0, 64, 58
1, 249856, Note_off_c, 0, 70, 57
1, 249861, Control_c, 0, 64, 59
1, 249891, Control_c, 0, 64, 60
1, 249905, Control_c, 0, 64, 60
1, 249916, Note_off_c, 0, 53, 62
1, 249920, Control_c, 0, 64, 61
1, 249925, Note_on_c, 0, 49, 66
1, 250060, Note_off_c, 0, 49, 61
1, 250112, Control_c, 0, 64, 59
1, 250115, Note_on_c, 0, 75, 79
1, 250123, Note_on_c, 0, 48, 61
1, 250127, Control_c, 0, 64, 55
1, 250142, Note_off_c, 0, 67, 41
1, 250142, Control_c, 0, 64, 46
1, 250156, Control_c, 0, 64, 26
1, 250171, Control_c, 0, 64, 0
1, 250183, Note_on_c, 0, 68, 4
1, 250244, Note_off_c, 0, 68, 41
1, 250308, Note_on_c, 0, 44, 56
1, 250332, Note_on_c, 0, 72, 49
1, 250349, Control_c, 0, 64, 20
1, 250364, Control_c, 0, 64, 34
1, 250379, Control_c, 0, 64, 43
1, 250394, Control_c, 0, 64, 51
1, 250409, Control_c, 0, 64, 58
1, 250423, Control_c, 0, 64, 62
1, 250438, Control_c, 0, 64, 64
1, 250453, Control_c, 0, 64, 66
1, 250461, Note_off_c, 0, 72, 53
1, 250466, Note_off_c, 0, 48, 16
1, 250468, Control_c, 0, 64, 67
1, 250497, Control_c, 0, 64, 68
1, 250509, Note_on_c, 0, 70, 68
1, 250512, Control_c, 0, 64, 70
1, 250527, Control_c, 0, 64, 72
1, 250541, Control_c, 0, 64, 72
1, 250624, Control_c, 0, 64, 73
1, 250628, Note_off_c, 0, 44, 27
1, 250657, Note_off_c, 0, 70, 59
1, 250672, Note_off_c, 0, 75, 54
1, 250684, Control_c, 0, 64, 71
1, 250692, Note_on_c, 0, 56, 85
1, 250699, Control_c, 0, 64, 67
1, 250709, Note_on_c, 0, 72, 69
1, 250713, Control_c, 0, 64, 59
1, 250728, Control_c, 0, 64, 43
1, 250743, Control_c, 0, 64, 0
1, 250891, Control_c, 0, 64, 20
1, 250906, Control_c, 0, 64, 30
1, 250910, Note_on_c, 0, 68, 66
1, 250920, Control_c, 0, 64, 38
1, 250923, Note_off_c, 0, 72, 57
1, 250935, Control_c, 0, 64, 49
1, 250950, Control_c, 0, 64, 57
1, 250965, Control_c, 0, 64, 61
1, 250979, Control_c, 0, 64, 63
1, 250994, Control_c, 0, 64, 63
1, 251009, Control_c, 0, 64, 65
1, 251024, Control_c, 0, 64, 68
1, 251039, Control_c, 0, 64, 71
1, 251053, Control_c, 0, 64, 73
1, 251068, Control_c, 0, 64, 74
1, 251079, Note_off_c, 0, 68, 59
1, 251088, Note_on_c, 0, 66, 70
1, 251128, Control_c, 0, 64, 74
1, 251151, Note_off_c, 0, 66, 63
1, 251261, Control_c, 0, 64, 72
1, 251276, Control_c, 0, 64, 66
1, 251280, Note_on_c, 0, 61, 88
1, 251290, Note_on_c, 0, 77, 75
1, 251291, Control_c, 0, 64, 58
1, 251303, Note_on_c, 0, 65, 47
1, 251305, Control_c, 0, 64, 42
1, 251328, Control_c, 0, 64, 0
1, 251334, Note_off_c, 0, 56, 62
1, 251431, Note_off_c, 0, 65, 0
1, 251468, Poly_aftertouch_c, 0, 65, 127
1, 251506, Control_c, 0, 64, 10
1, 251510, Note_on_c, 0, 70, 58
1, 251521, Control_c, 0, 64, 23
1, 251536, Control_c, 0, 64, 31
1, 251551, Control_c, 0, 64, 38
1, 251559, Note_off_c, 0, 77, 55
1, 251566, Control_c, 0, 64, 46
1, 251581, Control_c, 0, 64, 54
1, 251595, Control_c, 0, 64, 61
1, 251610, Control_c, 0, 64, 65
1, 251625, Control_c, 0, 64, 66
1, 251640, Control_c, 0, 64, 66
1, 251655, Control_c, 0, 64, 68
1, 251669, Control_c, 0, 64, 71
1, 251684, Control_c, 0, 64, 75
1, 251695, Note_on_c, 0, 68, 72
1, 251699, Control_c, 0, 64, 77
1, 251754, Poly_aftertouch_c, 0, 65, 0
1, 251808, Note_off_c, 0, 70, 36
1, 251869, Note_on_c, 0, 75, 84
1, 251876, Control_c, 0, 64, 71
1, 251880, Note_on_c, 0, 58, 66
1, 251885, Note_off_c, 0, 68, 58
1, 251891, Note_on_c, 0, 67, 64
1, 251891, Control_c, 0, 64, 61
1, 251906, Control_c, 0, 64, 43
1, 251921, Control_c, 0, 64, 0
1, 251932, Note_off_c, 0, 61, 60
1, 252076, Control_c, 0, 64, 9
1, 252091, Control_c, 0, 64, 21
1, 252097, Note_on_c, 0, 68, 64
1, 252106, Control_c, 0, 64, 27
1, 252117, Note_off_c, 0, 75, 61
1, 252121, Control_c, 0, 64, 32
1, 252135, Control_c, 0, 64, 36
1, 252150, Control_c, 0, 64, 42
1, 252165, Control_c, 0, 64, 48
1, 252180, Control_c, 0, 64, 55
1, 252196, Control_c, 0, 64, 59
1, 252211, Control_c, 0, 64, 60
1, 252255, Note_on_c, 0, 73, 84
1, 252255, Control_c, 0, 64, 60
1, 252270, Note_on_c, 0, 70, 54
1, 252270, Control_c, 0, 64, 62
1, 252285, Control_c, 0, 64, 64
1, 252287, Note_off_c, 0, 67, 32
1, 252299, Control_c, 0, 64, 65
1, 252358, Note_off_c, 0, 70, 58
1, 252364, Note_off_c, 0, 68, 36
1, 252374, Control_c, 0, 64, 65
1, 252389, Control_c, 0, 64, 66
1, 252404, Control_c, 0, 64, 67
1, 252413, Note_off_c, 0, 73, 56
1, 252418, Control_c, 0, 64, 68
1, 252448, Control_c, 0, 64, 66
1, 252457, Note_on_c, 0, 72, 83
1, 252459, Note_on_c, 0, 63, 59
1, 252463, Control_c, 0, 64, 57
1, 252478, Control_c, 0, 64, 35
1, 252490, Note_off_c, 0, 58, 42
1, 252492, Control_c, 0, 64, 0
1, 252611, Control_c, 0, 64, 15
1, 252625, Control_c, 0, 64, 22
1, 252640, Control_c, 0, 64, 27
1, 252649, Note_on_c, 0, 68, 64
1, 252655, Control_c, 0, 64, 33
1, 252670, Control_c, 0, 64, 38
1, 252685, Control_c, 0, 64, 44
1, 252699, Control_c, 0, 64, 51
1, 252714, Control_c, 0, 64, 55
1, 252729, Control_c, 0, 64, 57
1, 252788, Control_c, 0, 64, 59
1, 252799, Note_off_c, 0, 63, 63
1, 252803, Control_c, 0, 64, 60
1, 252825, Control_c, 0, 64, 62
1, 252826, Note_on_c, 0, 75, 80
1, 252833, Note_on_c, 0, 60, 56
1, 252840, Note_off_c, 0, 68, 55
1, 252840, Control_c, 0, 64, 63
1, 252855, Note_on_c, 0, 67, 59
1, 252855, Control_c, 0, 64, 63
1, 252904, Note_off_c, 0, 72, 49
1, 252927, Note_off_c, 0, 75, 61
1, 252958, Control_c, 0, 64, 64
1, 252961, Note_off_c, 0, 67, 63
1, 253004, Control_c, 0, 64, 62
1, 253019, Control_c, 0, 64, 56
1, 253027, Note_on_c, 0, 73, 82
1, 253034, Control_c, 0, 64, 39
1, 253048, Control_c, 0, 64, 0
1, 253056, Note_on_c, 0, 65, 43
1, 253144, Note_off_c, 0, 65, 59
1, 253182, Control_c, 0, 64, 14
1, 253197, Control_c, 0, 64, 18
1, 253209, Note_on_c, 0, 67, 66
1, 253211, Control_c, 0, 64, 21
1, 253226, Control_c, 0, 64, 24
1, 253227, Note_on_c, 0, 58, 58
1, 253241, Control_c, 0, 64, 26
1, 253256, Control_c, 0, 64, 28
1, 253261, Note_off_c, 0, 73, 60
1, 253271, Control_c, 0, 64, 30
1, 253286, Control_c, 0, 64, 31
1, 253301, Control_c, 0, 64, 31
1, 253318, Note_off_c, 0, 60, 55
1, 253334, Note_off_c, 0, 67, 61
1, 253389, Control_c, 0, 64, 30
1, 253392, Note_on_c, 0, 72, 75
1, 253404, Control_c, 0, 64, 30
1, 253408, Note_off_c, 0, 58, 62
1, 253423, Note_on_c, 0, 56, 59
1, 253431, Note_on_c, 0, 68, 41
1, 253516, Note_off_c, 0, 68, 49
1, 253522, Control_c, 0, 64, 30
1, 253572, Note_off_c, 0, 56, 59
1, 253580, Note_on_c, 0, 70, 78
1, 253589, Control_c, 0, 64, 29
1, 253593, Note_on_c, 0, 55, 55
1, 253604, Control_c, 0, 64, 26
1, 253615, Note_off_c, 0, 72, 61
1, 253619, Control_c, 0, 64, 24
1, 253663, Control_c, 0, 64, 25
1, 253678, Control_c, 0, 64, 26
1, 253692, Control_c, 0, 64, 26
1, 253707, Control_c, 0, 64, 26
1, 253722, Control_c, 0, 64, 22
1, 253737, Control_c, 0, 64, 8
1, 253752, Control_c, 0, 64, 0
1, 253770, Note_off_c, 0, 70, 63
1, 253775, Note_off_c, 0, 55, 58
1, 253778, Note_on_c, 0, 67, 68
1, 253781, Note_on_c, 0, 56, 62
1, 253827, Control_c, 0, 64, 16
1, 253842, Control_c, 0, 64, 24
1, 253857, Control_c, 0, 64, 30
1, 253871, Control_c, 0, 64, 33
1, 253901, Control_c, 0, 64, 30
1, 253902, Note_off_c, 0, 67, 62
1, 253915, Control_c, 0, 64, 28
1, 253940, Note_off_c, 0, 56, 62
1, 253948, Note_on_c, 0, 73, 77
1, 253957, Note_on_c, 0, 58, 62
1, 253960, Control_c, 0, 64, 28
1, 253967, Note_on_c, 0, 65, 46
1, 253975, Control_c, 0, 64, 30
1, 253990, Control_c, 0, 64, 32
1, 254004, Control_c, 0, 64, 34
1, 254019, Control_c, 0, 64, 35
1, 254020, Note_off_c, 0, 65, 64
1, 254034, Control_c, 0, 64, 36
1, 254049, Control_c, 0, 64, 38
1, 254058, Note_off_c, 0, 73, 62
1, 254064, Control_c, 0, 64, 41
1, 254079, Control_c, 0, 64, 46
1, 254094, Control_c, 0, 64, 50
1, 254109, Control_c, 0, 64, 52
1, 254112, Note_off_c, 0, 58, 58
1, 254123, Control_c, 0, 64, 52
1, 254138, Control_c, 0, 64, 47
1, 254145, Note_on_c, 0, 72, 64
1, 254148, Note_on_c, 0, 60, 57
1, 254153, Control_c, 0, 64, 39
1, 254168, Note_on_c, 0, 64, 46
1, 254168, Control_c, 0, 64, 20
1, 254183, Control_c, 0, 64, 0
1, 254273, Note_off_c, 0, 64, 59
1, 254341, Note_on_c, 0, 65, 61
1, 254359, Note_on_c, 0, 50, 49
1, 254383, Control_c, 0, 64, 9
1, 254397, Control_c, 0, 64, 13
1, 254408, Note_off_c, 0, 60, 34
1, 254412, Control_c, 0, 64, 18
1, 254427, Control_c, 0, 64, 23
1, 254442, Control_c, 0, 64, 26
1, 254457, Control_c, 0, 64, 28
1, 254471, Control_c, 0, 64, 29
1, 254513, Note_on_c, 0, 70, 72
1, 254515, Control_c, 0, 64, 27
1, 254530, Control_c, 0, 64, 24
1, 254538, Note_on_c, 0, 52, 54
1, 254538, Note_off_c, 0, 65, 46
1, 254542, Note_on_c, 0, 67, 48
1, 254545, Control_c, 0, 64, 21
1, 254560, Control_c, 0, 64, 20
1, 254606, Note_off_c, 0, 50, 35
1, 254620, Control_c, 0, 64, 20
1, 254635, Control_c, 0, 64, 22
1, 254650, Control_c, 0, 64, 23
1, 254692, Note_off_c, 0, 52, 57
1, 254694, Control_c, 0, 64, 22
1, 254708, Note_on_c, 0, 53, 52
1, 254708, Note_on_c, 0, 68, 80
1, 254709, Control_c, 0, 64, 19
1, 254724, Control_c, 0, 64, 13
1, 254737, Note_off_c, 0, 67, 62
1, 254738, Control_c, 0, 64, 0
1, 254745, Note_off_c, 0, 72, 24
1, 254823, Note_off_c, 0, 70, 46
1, 254887, Note_on_c, 0, 65, 74
1, 254891, Note_on_c, 0, 55, 50
1, 254924, Note_off_c, 0, 53, 36
1, 254949, Note_off_c, 0, 68, 56
1, 254961, Control_c, 0, 64, 9
1, 254976, Control_c, 0, 64, 14
1, 254991, Control_c, 0, 64, 17
1, 255005, Note_off_c, 0, 65, 65
1, 255006, Control_c, 0, 64, 20
1, 255020, Control_c, 0, 64, 22
1, 255021, Note_off_c, 0, 55, 60
1, 255035, Control_c, 0, 64, 23
1, 255072, Control_c, 0, 64, 21
1, 255085, Note_on_c, 0, 72, 72
1, 255086, Note_on_c, 0, 56, 54
1, 255087, Control_c, 0, 64, 14
1, 255101, Control_c, 0, 64, 0
1, 255113, Note_on_c, 0, 63, 51
1, 255209, Note_off_c, 0, 63, 58
1, 255215, Note_off_c, 0, 56, 60
1, 255259, Note_on_c, 0, 58, 59
1, 255267, Note_on_c, 0, 62, 63
1, 255267, Note_on_c, 0, 70, 64
1, 255304, Note_off_c, 0, 72, 36
1, 255339, Control_c, 0, 64, 8
1, 255354, Control_c, 0, 64, 13
1, 255369, Control_c, 0, 64, 14
1, 255432, Note_off_c, 0, 62, 0
1, 255442, Note_on_c, 0, 48, 49
1, 255450, Note_on_c, 0, 63, 67
1, 255465, Note_off_c, 0, 58, 34
1, 255469, Poly_aftertouch_c, 0, 62, 127
1, 255474, Control_c, 0, 64, 17
1, 255489, Control_c, 0, 64, 23
1, 255504, Control_c, 0, 64, 30
1, 255515, Poly_aftertouch_c, 0, 62, 0
1, 255518, Control_c, 0, 64, 36
1, 255533, Control_c, 0, 64, 41
1, 255544, Note_off_c, 0, 63, 65
1, 255548, Control_c, 0, 64, 45
1, 255562, Control_c, 0, 64, 49
1, 255577, Control_c, 0, 64, 51
1, 255592, Control_c, 0, 64, 53
1, 255601, Note_off_c, 0, 48, 32
1, 255607, Control_c, 0, 64, 54
1, 255622, Control_c, 0, 64, 56
1, 255636, Control_c, 0, 64, 57
1, 255645, Note_on_c, 0, 50, 56
1, 255651, Control_c, 0, 64, 58
1, 255652, Note_on_c, 0, 65, 54
1, 255654, Note_on_c, 0, 68, 61
1, 255666, Control_c, 0, 64, 59
1, 255676, Note_off_c, 0, 50, 66
1, 255681, Control_c, 0, 64, 59
1, 255694, Note_off_c, 0, 70, 26
1, 255695, Note_off_c, 0, 65, 55
1, 255769, Note_off_c, 0, 68, 55
1, 255769, Control_c, 0, 64, 60
1, 255799, Control_c, 0, 64, 60
1, 255822, Control_c, 0, 64, 62
1, 255837, Control_c, 0, 64, 63
1, 255851, Control_c, 0, 64, 63
1, 255866, Control_c, 0, 64, 62
1, 255881, Control_c, 0, 64, 57
1, 255895, Control_c, 0, 64, 45
1, 255904, Note_on_c, 0, 51, 45
1, 255910, Control_c, 0, 64, 0
1, 255912, Note_on_c, 0, 39, 40
1, 255913, Note_on_c, 0, 58, 40
1, 255914, Note_on_c, 0, 67, 51
1, 255984, Note_off_c, 0, 58, 59
1, 256028, Control_c, 0, 64, 19
1, 256043, Control_c, 0, 64, 28
1, 256058, Control_c, 0, 64, 35
1, 256073, Control_c, 0, 64, 41
1, 256087, Control_c, 0, 64, 48
1, 256102, Control_c, 0, 64, 55
1, 256115, Note_off_c, 0, 51, 62
1, 256117, Control_c, 0, 64, 58
1, 256123, Note_off_c, 0, 39, 48
1, 256132, Control_c, 0, 64, 60
1, 256141, Note_on_c, 0, 72, 60
1, 256146, Note_on_c, 0, 63, 49
1, 256147, Control_c, 0, 64, 60
1, 256171, Note_off_c, 0, 67, 36
1, 256176, Control_c, 0, 64, 61
1, 256192, Control_c, 0, 64, 62
1, 256207, Control_c, 0, 64, 64
1, 256222, Control_c, 0, 64, 65
1, 256237, Control_c, 0, 64, 65
1, 256310, Control_c, 0, 64, 64
1, 256321, Note_off_c, 0, 72, 53
1, 256321, Note_off_c, 0, 63, 45
1, 256325, Control_c, 0, 64, 62
1, 256332, Note_on_c, 0, 51, 69
1, 256334, Note_on_c, 0, 70, 57
1, 256340, Control_c, 0, 64, 57
1, 256344, Note_on_c, 0, 39, 57
1, 256348, Note_on_c, 0, 67, 52
1, 256355, Control_c, 0, 64, 45
1, 256370, Control_c, 0, 64, 25
1, 256384, Control_c, 0, 64, 0
1, 256458, Control_c, 0, 64, 8
1, 256473, Control_c, 0, 64, 8
1, 256511, Note_off_c, 0, 67, 50
1, 256523, Note_on_c, 0, 68, 67
1, 256528, Note_on_c, 0, 65, 62
1, 256532, Control_c, 0, 64, 0
1, 256567, Note_off_c, 0, 70, 49
1, 256673, Control_c, 0, 64, 10
1, 256688, Control_c, 0, 64, 12
1, 256703, Control_c, 0, 64, 14
1, 256717, Control_c, 0, 64, 16
1, 256723, Note_on_c, 0, 70, 64
1, 256732, Control_c, 0, 64, 18
1, 256735, Note_off_c, 0, 68, 49
1, 256747, Control_c, 0, 64, 19
1, 256762, Control_c, 0, 64, 21
1, 256771, Note_off_c, 0, 65, 62
1, 256777, Control_c, 0, 64, 23
1, 256792, Control_c, 0, 64, 25
1, 256806, Control_c, 0, 64, 26
1, 256821, Control_c, 0, 64, 27
1, 256836, Control_c, 0, 64, 28
1, 256851, Control_c, 0, 64, 29
1, 256866, Control_c, 0, 64, 31
1, 256875, Note_off_c, 0, 70, 56
1, 256881, Control_c, 0, 64, 32
1, 256891, Note_on_c, 0, 63, 70
1, 256895, Note_on_c, 0, 72, 65
1, 256896, Control_c, 0, 64, 34
1, 256911, Control_c, 0, 64, 35
1, 256925, Control_c, 0, 64, 37
1, 256940, Control_c, 0, 64, 40
1, 256955, Control_c, 0, 64, 45
1, 256970, Control_c, 0, 64, 50
1, 256985, Control_c, 0, 64, 55
1, 257000, Control_c, 0, 64, 59
1, 257015, Control_c, 0, 64, 60
1, 257015, Poly_aftertouch_c, 0, 70, 127
1, 257024, Note_off_c, 0, 63, 62
1, 257030, Control_c, 0, 64, 59
1, 257041, Note_off_c, 0, 72, 57
1, 257045, Control_c, 0, 64, 55
1, 257060, Control_c, 0, 64, 40
1, 257066, Poly_aftertouch_c, 0, 70, 0
1, 257071, Note_on_c, 0, 62, 81
1, 257075, Control_c, 0, 64, 0
1, 257178, Control_c, 0, 64, 13
1, 257193, Control_c, 0, 64, 23
1, 257207, Control_c, 0, 64, 31
1, 257222, Control_c, 0, 64, 39
1, 257237, Control_c, 0, 64, 49
1, 257249, Note_off_c, 0, 39, 58
1, 257252, Control_c, 0, 64, 57
1, 257254, Note_on_c, 0, 70, 80
1, 257263, Note_off_c, 0, 51, 56
1, 257267, Control_c, 0, 64, 61
1, 257281, Control_c, 0, 64, 63
1, 257296, Control_c, 0, 64, 63
1, 257334, Control_c, 0, 64, 64
1, 257348, Control_c, 0, 64, 67
1, 257363, Control_c, 0, 64, 71
1, 257367, Note_off_c, 0, 62, 58
1, 257378, Control_c, 0, 64, 76
1, 257393, Control_c, 0, 64, 79
1, 257408, Control_c, 0, 64, 79
1, 257422, Control_c, 0, 64, 79
1, 257437, Control_c, 0, 64, 69
1, 257447, Note_on_c, 0, 51, 91
1, 257452, Control_c, 0, 64, 58
1, 257454, Note_on_c, 0, 65, 72
1, 257458, Note_on_c, 0, 68, 74
1, 257461, Note_on_c, 0, 39, 67
1, 257466, Control_c, 0, 64, 31
1, 257470, Note_off_c, 0, 70, 53
1, 257481, Control_c, 0, 64, 0
1, 257612, Note_off_c, 0, 65, 59
1, 257642, Note_off_c, 0, 68, 53
1, 257644, Note_on_c, 0, 63, 80
1, 257650, Note_on_c, 0, 67, 76
1, 257674, Control_c, 0, 64, 14
1, 257689, Control_c, 0, 64, 18
1, 257704, Control_c, 0, 64, 20
1, 257719, Control_c, 0, 64, 22
1, 257733, Control_c, 0, 64, 25
1, 257748, Control_c, 0, 64, 29
1, 257763, Control_c, 0, 64, 33
1, 257778, Control_c, 0, 64, 37
1, 257793, Control_c, 0, 64, 40
1, 257808, Control_c, 0, 64, 44
1, 257823, Control_c, 0, 64, 46
1, 257835, Note_off_c, 0, 63, 0
1, 257835, Note_on_c, 0, 63, 16
1, 257838, Control_c, 0, 64, 46
1, 257842, Note_on_c, 0, 68, 75
1, 257847, Note_off_c, 0, 67, 54
1, 257868, Control_c, 0, 64, 47
1, 257882, Control_c, 0, 64, 49
1, 257897, Control_c, 0, 64, 51
1, 257900, Note_off_c, 0, 63, 57
1, 257912, Control_c, 0, 64, 54
1, 257927, Control_c, 0, 64, 55
1, 257942, Control_c, 0, 64, 58
1, 257956, Control_c, 0, 64, 60
1, 257971, Control_c, 0, 64, 63
1, 257986, Control_c, 0, 64, 65
1, 257994, Note_off_c, 0, 68, 55
1, 258001, Control_c, 0, 64, 66
1, 258014, Note_on_c, 0, 70, 76
1, 258014, Note_on_c, 0, 61, 86
1, 258016, Control_c, 0, 64, 64
1, 258030, Control_c, 0, 64, 60
1, 258045, Control_c, 0, 64, 49
1, 258067, Control_c, 0, 64, 22
1, 258082, Control_c, 0, 64, 0
1, 258142, Control_c, 0, 64, 18
1, 258157, Control_c, 0, 64, 25
1, 258166, Note_off_c, 0, 61, 59
1, 258171, Control_c, 0, 64, 30
1, 258201, Control_c, 0, 64, 24
1, 258212, Note_on_c, 0, 60, 87
1, 258216, Control_c, 0, 64, 0
1, 258276, Control_c, 0, 64, 8
1, 258290, Control_c, 0, 64, 21
1, 258305, Control_c, 0, 64, 30
1, 258306, Note_off_c, 0, 70, 34
1, 258320, Control_c, 0, 64, 37
1, 258335, Control_c, 0, 64, 45
1, 258350, Control_c, 0, 64, 54
1, 258364, Control_c, 0, 64, 61
1, 258379, Control_c, 0, 64, 64
1, 258392, Note_on_c, 0, 68, 87
1, 258392, Note_off_c, 0, 60, 49
1, 258393, Note_off_c, 0, 39, 50
1, 258394, Control_c, 0, 64, 65
1, 258409, Control_c, 0, 64, 66
1, 258424, Control_c, 0, 64, 70
1, 258434, Note_off_c, 0, 51, 40
1, 258438, Control_c, 0, 64, 85
1, 258453, Control_c, 0, 64, 127
1, 258512, Control_c, 0, 64, 89
1, 258527, Control_c, 0, 64, 66
1, 258542, Control_c, 0, 64, 51
1, 258545, Note_off_c, 0, 68, 54
1, 258556, Control_c, 0, 64, 33
1, 258570, Note_on_c, 0, 51, 92
1, 258571, Control_c, 0, 64, 30
1, 258573, Note_on_c, 0, 58, 82
1, 258581, Note_on_c, 0, 66, 73
1, 258586, Note_on_c, 0, 39, 74
1, 258587, Control_c, 0, 64, 33
1, 258602, Control_c, 0, 64, 37
1, 258617, Control_c, 0, 64, 44
1, 258632, Control_c, 0, 64, 52
1, 258647, Control_c, 0, 64, 61
1, 258661, Control_c, 0, 64, 68
1, 258676, Control_c, 0, 64, 77
1, 258691, Control_c, 0, 64, 80
1, 258695, Note_off_c, 0, 58, 60
1, 258705, Control_c, 0, 64, 83
1, 258720, Control_c, 0, 64, 85
1, 258735, Control_c, 0, 64, 85
1, 258748, Note_off_c, 0, 66, 61
1, 258750, Control_c, 0, 64, 85
1, 258765, Control_c, 0, 64, 78
1, 258775, Note_on_c, 0, 57, 88
1, 258780, Control_c, 0, 64, 70
1, 258795, Control_c, 0, 64, 64
1, 258817, Control_c, 0, 64, 57
1, 258832, Control_c, 0, 64, 46
1, 258833, Note_off_c, 0, 51, 59
1, 258847, Control_c, 0, 64, 36
1, 258861, Control_c, 0, 64, 32
1, 258935, Note_off_c, 0, 39, 50
1, 258935, Control_c, 0, 64, 31
1, 258950, Note_on_c, 0, 49, 94
1, 258950, Control_c, 0, 64, 29
1, 258956, Note_on_c, 0, 37, 74
1, 258965, Control_c, 0, 64, 25
1, 258980, Control_c, 0, 64, 18
1, 258994, Control_c, 0, 64, 0
1, 259027, Note_off_c, 0, 49, 62
1, 259031, Note_off_c, 0, 37, 63
1, 259132, Note_on_c, 0, 48, 88
1, 259137, Note_on_c, 0, 36, 76
1, 259137, Note_on_c, 0, 66, 83
1, 259170, Note_off_c, 0, 48, 64
1, 259185, Note_off_c, 0, 36, 65
1, 259266, Note_off_c, 0, 66, 59
1, 259319, Note_on_c, 0, 46, 99
1, 259325, Note_on_c, 0, 34, 87
1, 259329, Note_on_c, 0, 61, 86
1, 259372, Note_off_c, 0, 46, 63
1, 259373, Note_off_c, 0, 34, 65
1, 259514, Note_on_c, 0, 48, 93
1, 259519, Note_on_c, 0, 36, 76
1, 259544, Note_off_c, 0, 48, 67
1, 259546, Note_off_c, 0, 36, 63
1, 259643, Note_off_c, 0, 61, 59
1, 259667, Note_off_c, 0, 57, 54
1, 259711, Note_on_c, 0, 49, 96
1, 259715, Note_on_c, 0, 65, 83
1, 259719, Note_on_c, 0, 37, 77
1, 259742, Note_off_c, 0, 49, 66
1, 259763, Note_off_c, 0, 37, 66
1, 259924, Note_off_c, 0, 65, 58
1, 259947, Note_on_c, 0, 39, 99
1, 259955, Note_on_c, 0, 27, 86
1, 259962, Note_on_c, 0, 55, 77
1, 260083, Control_c, 0, 64, 21
1, 260098, Control_c, 0, 64, 37
1, 260113, Control_c, 0, 64, 53
1, 260127, Control_c, 0, 64, 64
1, 260142, Control_c, 0, 64, 75
1, 260157, Control_c, 0, 64, 83
1, 260172, Control_c, 0, 64, 87
1, 260176, Note_on_c, 0, 63, 65
1, 260188, Control_c, 0, 64, 99
1, 260203, Control_c, 0, 64, 127
1, 260229, Note_off_c, 0, 27, 63
1, 260254, Note_off_c, 0, 55, 61
1, 260270, Note_off_c, 0, 39, 63
1, 260384, Note_on_c, 0, 61, 71
1, 260409, Note_off_c, 0, 63, 58
1, 260551, Control_c, 0, 64, 102
1, 260565, Control_c, 0, 64, 60
1, 260577, Note_on_c, 0, 44, 95
1, 260580, Control_c, 0, 64, 14
1, 260594, Note_on_c, 0, 32, 82
1, 260595, Control_c, 0, 64, 0
1, 260599, Note_on_c, 0, 51, 73
1, 260617, Note_off_c, 0, 61, 54
1, 260744, Control_c, 0, 64, 21
1, 260758, Control_c, 0, 64, 36
1, 260773, Control_c, 0, 64, 51
1, 260788, Control_c, 0, 64, 62
1, 260792, Note_on_c, 0, 59, 72
1, 260795, Note_off_c, 0, 51, 56
1, 260803, Control_c, 0, 64, 69
1, 260818, Control_c, 0, 64, 74
1, 260832, Control_c, 0, 64, 79
1, 260847, Control_c, 0, 64, 90
1, 260862, Control_c, 0, 64, 111
1, 260874, Note_off_c, 0, 44, 59
1, 260876, Control_c, 0, 64, 127
1, 260882, Note_off_c, 0, 32, 60
1, 260983, Note_on_c, 0, 60, 74
1, 261013, Note_off_c, 0, 59, 61
1, 261137, Control_c, 0, 64, 88
1, 261152, Control_c, 0, 64, 58
1, 261167, Control_c, 0, 64, 0
1, 261167, Note_off_c, 0, 60, 56
1, 261179, Note_on_c, 0, 41, 87
1, 261187, Note_on_c, 0, 57, 70
1, 261196, Note_on_c, 0, 29, 67
1, 261374, Control_c, 0, 64, 14
1, 261381, Note_on_c, 0, 58, 64
1, 261382, Note_on_c, 0, 61, 62
1, 261388, Control_c, 0, 64, 36
1, 261403, Control_c, 0, 64, 52
1, 261418, Control_c, 0, 64, 67
1, 261430, Note_off_c, 0, 29, 47
1, 261433, Control_c, 0, 64, 103
1, 261448, Control_c, 0, 64, 127
1, 261475, Note_off_c, 0, 41, 61
1, 261494, Note_off_c, 0, 61, 63
1, 261495, Note_off_c, 0, 57, 52
1, 261558, Note_on_c, 0, 63, 81
1, 261564, Note_on_c, 0, 60, 67
1, 261603, Note_off_c, 0, 58, 35
1, 261699, Note_off_c, 0, 60, 59
1, 261729, Control_c, 0, 64, 83
1, 261741, Note_on_c, 0, 46, 97
1, 261744, Control_c, 0, 64, 52
1, 261759, Control_c, 0, 64, 0
1, 261760, Note_on_c, 0, 34, 66
1, 261901, Control_c, 0, 64, 10
1, 261916, Control_c, 0, 64, 24
1, 261929, Control_c, 0, 64, 40
1, 261935, Note_off_c, 0, 63, 52
1, 261944, Control_c, 0, 64, 58
1, 261949, Note_on_c, 0, 57, 82
1, 261951, Note_on_c, 0, 60, 80
1, 261959, Control_c, 0, 64, 92
1, 261974, Control_c, 0, 64, 127
1, 261987, Note_off_c, 0, 46, 63
1, 262086, Note_off_c, 0, 34, 63
1, 262103, Note_off_c, 0, 57, 55
1, 262124, Note_off_c, 0, 60, 55
1, 262160, Note_on_c, 0, 58, 79
1, 262160, Note_on_c, 0, 61, 77
1, 262286, Note_off_c, 0, 58, 56
1, 262332, Note_off_c, 0, 61, 62
1, 262374, Control_c, 0, 64, 98
1, 262385, Note_on_c, 0, 43, 89
1, 262389, Control_c, 0, 64, 57
1, 262392, Note_on_c, 0, 51, 104
1, 262401, Note_on_c, 0, 31, 62
1, 262403, Control_c, 0, 64, 0
1, 262492, Control_c, 0, 64, 8
1, 262507, Control_c, 0, 64, 33
1, 262522, Control_c, 0, 64, 48
1, 262536, Control_c, 0, 64, 62
1, 262559, Control_c, 0, 64, 75
1, 262574, Control_c, 0, 64, 93
1, 262589, Control_c, 0, 64, 111
1, 262604, Control_c, 0, 64, 127
1, 262636, Note_on_c, 0, 58, 68
1, 262657, Note_off_c, 0, 31, 60
1, 262721, Note_off_c, 0, 51, 61
1, 262743, Note_off_c, 0, 43, 59
1, 262817, Note_on_c, 0, 63, 74
1, 262880, Note_off_c, 0, 58, 52
1, 262961, Note_off_c, 0, 63, 54
1, 262974, Control_c, 0, 64, 88
1, 262989, Control_c, 0, 64, 48
1, 262996, Note_on_c, 0, 48, 81
1, 262997, Note_on_c, 0, 56, 105
1, 263004, Control_c, 0, 64, 0
1, 263013, Note_on_c, 0, 36, 58
1, 263063, Control_c, 0, 64, 12
1, 263078, Control_c, 0, 64, 33
1, 263093, Control_c, 0, 64, 48
1, 263108, Control_c, 0, 64, 63
1, 263123, Control_c, 0, 64, 81
1, 263138, Control_c, 0, 64, 115
1, 263152, Control_c, 0, 64, 127
1, 263203, Note_on_c, 0, 62, 64
1, 263219, Note_off_c, 0, 48, 63
1, 263220, Note_off_c, 0, 36, 60
1, 263302, Note_off_c, 0, 56, 59
1, 263379, Note_on_c, 0, 60, 79
1, 263400, Note_off_c, 0, 62, 37
1, 263531, Control_c, 0, 64, 57
1, 263546, Control_c, 0, 64, 0
1, 263559, Note_on_c, 0, 46, 81
1, 263559, Note_on_c, 0, 53, 92
1, 263572, Note_on_c, 0, 34, 70
1, 263572, Note_on_c, 0, 62, 80
1, 263580, Note_off_c, 0, 60, 60
1, 263605, Control_c, 0, 64, 29
1, 263620, Control_c, 0, 64, 44
1, 263635, Control_c, 0, 64, 58
1, 263649, Control_c, 0, 64, 75
1, 263664, Control_c, 0, 64, 101
1, 263679, Control_c, 0, 64, 127
1, 263718, Note_off_c, 0, 46, 60
1, 263750, Note_on_c, 0, 63, 75
1, 263813, Note_off_c, 0, 53, 62
1, 263820, Note_off_c, 0, 62, 37
1, 263839, Note_off_c, 0, 34, 30
1, 263877, Note_off_c, 0, 63, 60
1, 263922, Note_on_c, 0, 65, 85
1, 263925, Note_on_c, 0, 44, 70
1, 263929, Note_on_c, 0, 32, 66
1, 263980, Note_off_c, 0, 32, 63
1, 263996, Note_off_c, 0, 44, 58
1, 263996, Note_off_c, 0, 65, 62
1, 264101, Control_c, 0, 64, 65
1, 264116, Control_c, 0, 64, 32
1, 264131, Note_on_c, 0, 58, 98
1, 264131, Control_c, 0, 64, 0
1, 264131, Note_on_c, 0, 43, 77
1, 264138, Note_on_c, 0, 31, 63
1, 264235, Control_c, 0, 64, 25
1, 264250, Control_c, 0, 64, 39
1, 264265, Control_c, 0, 64, 53
1, 264280, Control_c, 0, 64, 64
1, 264294, Control_c, 0, 64, 71
1, 264309, Control_c, 0, 64, 74
1, 264324, Control_c, 0, 64, 77
1, 264339, Control_c, 0, 64, 87
1, 264345, Note_on_c, 0, 63, 73
1, 264354, Control_c, 0, 64, 117
1, 264369, Control_c, 0, 64, 127
1, 264387, Note_off_c, 0, 43, 54
1, 264395, Note_off_c, 0, 31, 55
1, 264521, Note_on_c, 0, 61, 75
1, 264556, Note_off_c, 0, 58, 57
1, 264648, Note_off_c, 0, 63, 30
1, 264724, Control_c, 0, 64, 105
1, 264739, Control_c, 0, 64, 66
1, 264754, Control_c, 0, 64, 45
1, 264754, Note_on_c, 0, 30, 44
1, 264762, Note_off_c, 0, 61, 38
1, 264766, Note_on_c, 0, 42, 36
1, 264768, Note_on_c, 0, 68, 55
1, 264768, Control_c, 0, 64, 0
1, 264924, Control_c, 0, 64, 22
1, 264939, Control_c, 0, 64, 39
1, 264954, Control_c, 0, 64, 53
1, 264955, Note_on_c, 0, 60, 59
1, 264969, Control_c, 0, 64, 65
1, 264985, Control_c, 0, 64, 86
1, 265000, Control_c, 0, 64, 117
1, 265015, Control_c, 0, 64, 127
1, 265144, Note_on_c, 0, 63, 70
1, 265152, Note_off_c, 0, 68, 52
1, 265162, Note_off_c, 0, 30, 37
1, 265174, Note_off_c, 0, 60, 30
1, 265219, Note_off_c, 0, 63, 64
1, 265252, Note_off_c, 0, 42, 35
1, 265326, Control_c, 0, 64, 65
1, 265341, Control_c, 0, 64, 43
1, 265344, Note_on_c, 0, 73, 68
1, 265344, Note_on_c, 0, 29, 52
1, 265349, Note_on_c, 0, 41, 49
1, 265355, Control_c, 0, 64, 0
1, 265367, Note_on_c, 0, 61, 53
1, 265385, Control_c, 0, 64, 19
1, 265400, Control_c, 0, 64, 31
1, 265415, Control_c, 0, 64, 42
1, 265429, Control_c, 0, 64, 55
1, 265444, Control_c, 0, 64, 68
1, 265459, Control_c, 0, 64, 111
1, 265473, Control_c, 0, 64, 127
1, 265532, Note_on_c, 0, 70, 77
1, 265551, Note_off_c, 0, 41, 58
1, 265568, Note_off_c, 0, 29, 39
1, 265569, Note_off_c, 0, 61, 57
1, 265663, Note_off_c, 0, 73, 34
1, 265680, Note_off_c, 0, 70, 58
1, 265704, Note_on_c, 0, 40, 82
1, 265710, Note_on_c, 0, 28, 74
1, 265713, Note_on_c, 0, 68, 78
1, 265745, Note_off_c, 0, 40, 64
1, 265754, Note_off_c, 0, 28, 63
1, 265815, Note_off_c, 0, 68, 56
1, 265852, Control_c, 0, 64, 99
1, 265867, Control_c, 0, 64, 58
1, 265882, Control_c, 0, 64, 0
1, 265893, Note_on_c, 0, 39, 79
1, 265895, Note_on_c, 0, 70, 92
1, 265896, Note_on_c, 0, 27, 76
1, 265904, Note_on_c, 0, 67, 73
1, 265970, Control_c, 0, 64, 16
1, 265985, Control_c, 0, 64, 38
1, 266000, Control_c, 0, 64, 57
1, 266015, Control_c, 0, 64, 81
1, 266029, Control_c, 0, 64, 127
1, 266030, Note_off_c, 0, 67, 52
1, 266063, Note_off_c, 0, 39, 63
1, 266074, Note_off_c, 0, 27, 65
1, 266101, Note_on_c, 0, 65, 82
1, 266195, Note_off_c, 0, 70, 54
1, 266258, Note_on_c, 0, 37, 79
1, 266267, Note_on_c, 0, 67, 91
1, 266280, Note_on_c, 0, 25, 55
1, 266290, Note_off_c, 0, 65, 64
1, 266323, Note_on_c, 0, 27, 20
1, 266366, Note_off_c, 0, 25, 60
1, 266368, Note_off_c, 0, 27, 47
1, 266375, Note_off_c, 0, 37, 57
1, 266375, Note_off_c, 0, 67, 59
1, 266451, Control_c, 0, 64, 88
1, 266466, Control_c, 0, 64, 51
1, 266481, Control_c, 0, 64, 0
1, 266488, Note_on_c, 0, 36, 91
1, 266494, Note_on_c, 0, 24, 79
1, 266503, Note_on_c, 0, 75, 83
1, 266505, Note_on_c, 0, 67, 81
1, 266533, Note_on_c, 0, 74, 71
1, 266540, Control_c, 0, 64, 23
1, 266554, Note_off_c, 0, 24, 64
1, 266555, Control_c, 0, 64, 47
1, 266571, Control_c, 0, 64, 67
1, 266586, Control_c, 0, 64, 127
1, 266597, Note_off_c, 0, 36, 63
1, 266640, Note_off_c, 0, 74, 61
1, 266648, Note_off_c, 0, 75, 56
1, 266709, Note_on_c, 0, 70, 90
1, 266737, Note_off_c, 0, 67, 64
1, 266822, Note_off_c, 0, 70, 57
1, 266866, Note_on_c, 0, 56, 95
1, 266871, Note_on_c, 0, 72, 87
1, 266872, Note_on_c, 0, 68, 91
1, 266881, Note_on_c, 0, 44, 62
1, 266905, Note_off_c, 0, 44, 60
1, 266909, Note_off_c, 0, 56, 64
1, 266950, Note_off_c, 0, 68, 56
1, 266960, Note_off_c, 0, 72, 62
1, 267030, Control_c, 0, 64, 110
1, 267052, Control_c, 0, 64, 54
1, 267062, Note_on_c, 0, 77, 99
1, 267064, Note_on_c, 0, 61, 87
1, 267067, Control_c, 0, 64, 0
1, 267067, Note_on_c, 0, 67, 87
1, 267075, Note_on_c, 0, 49, 71
1, 267169, Note_off_c, 0, 67, 59
1, 267171, Control_c, 0, 64, 21
1, 267186, Control_c, 0, 64, 47
1, 267200, Control_c, 0, 64, 66
1, 267215, Control_c, 0, 64, 127
1, 267226, Note_off_c, 0, 61, 64
1, 267247, Note_off_c, 0, 49, 64
1, 267249, Note_on_c, 0, 65, 90
1, 267261, Note_off_c, 0, 77, 54
1, 267418, Note_on_c, 0, 58, 99
1, 267421, Note_on_c, 0, 70, 91
1, 267424, Note_on_c, 0, 73, 87
1, 267428, Note_on_c, 0, 46, 73
1, 267442, Note_off_c, 0, 65, 63
1, 267458, Note_off_c, 0, 46, 67
1, 267464, Note_off_c, 0, 58, 63
1, 267486, Note_off_c, 0, 70, 60
1, 267502, Note_off_c, 0, 73, 64
1, 267586, Control_c, 0, 64, 68
1, 267601, Control_c, 0, 64, 25
1, 267615, Control_c, 0, 64, 0
1, 267623, Note_on_c, 0, 63, 92
1, 267629, Note_on_c, 0, 79, 91
1, 267630, Note_on_c, 0, 68, 88
1, 267633, Note_on_c, 0, 51, 77
1, 267720, Control_c, 0, 64, 24
1, 267734, Control_c, 0, 64, 46
1, 267749, Control_c, 0, 64, 71
1, 267764, Control_c, 0, 64, 127
1, 267773, Note_off_c, 0, 68, 57
1, 267798, Note_off_c, 0, 79, 56
1, 267831, Note_off_c, 0, 51, 61
1, 267837, Note_on_c, 0, 67, 96
1, 267850, Note_off_c, 0, 63, 64
1, 268000, Note_off_c, 0, 67, 51
1, 268016, Note_on_c, 0, 60, 100
1, 268022, Note_on_c, 0, 72, 86
1, 268025, Note_on_c, 0, 48, 77
1, 268028, Note_on_c, 0, 75, 91
1, 268050, Note_off_c, 0, 48, 68
1, 268054, Note_off_c, 0, 60, 68
1, 268101, Note_off_c, 0, 72, 45
1, 268268, Note_off_c, 0, 75, 52
1, 268276, Control_c, 0, 64, 74
1, 268282, Note_on_c, 0, 65, 98
1, 268286, Note_on_c, 0, 80, 93
1, 268290, Note_on_c, 0, 72, 82
1, 268290, Control_c, 0, 64, 43
1, 268291, Note_on_c, 0, 53, 80
1, 268305, Control_c, 0, 64, 0
1, 268364, Control_c, 0, 64, 17
1, 268379, Control_c, 0, 64, 37
1, 268394, Control_c, 0, 64, 51
1, 268409, Control_c, 0, 64, 65
1, 268423, Control_c, 0, 64, 93
1, 268438, Control_c, 0, 64, 119
1, 268453, Control_c, 0, 64, 127
1, 268479, Note_off_c, 0, 80, 57
1, 268530, Note_off_c, 0, 72, 62
1, 268553, Note_off_c, 0, 53, 57
1, 268572, Note_on_c, 0, 79, 97
1, 268582, Note_on_c, 0, 75, 84
1, 268644, Note_off_c, 0, 65, 60
1, 268701, Note_off_c, 0, 75, 59
1, 268715, Note_off_c, 0, 79, 58
1, 268758, Control_c, 0, 64, 64
1, 268766, Note_on_c, 0, 67, 90
1, 268766, Note_on_c, 0, 77, 100
1, 268768, Note_on_c, 0, 55, 74
1, 268768, Note_on_c, 0, 73, 93
1, 268772, Control_c, 0, 64, 41
1, 268787, Control_c, 0, 64, 28
1, 268802, Control_c, 0, 64, 39
1, 268816, Control_c, 0, 64, 47
1, 268831, Control_c, 0, 64, 59
1, 268846, Control_c, 0, 64, 75
1, 268852, Note_off_c, 0, 55, 63
1, 268860, Note_off_c, 0, 67, 61
1, 268861, Control_c, 0, 64, 127
1, 268936, Control_c, 0, 64, 62
1, 268951, Control_c, 0, 64, 24
1, 268966, Control_c, 0, 64, 0
1, 268973, Note_on_c, 0, 68, 95
1, 268980, Note_on_c, 0, 56, 79
1, 269025, Control_c, 0, 64, 28
1, 269040, Control_c, 0, 64, 40
1, 269055, Control_c, 0, 64, 52
1, 269070, Control_c, 0, 64, 62
1, 269085, Control_c, 0, 64, 73
1, 269100, Control_c, 0, 64, 81
1, 269106, Note_off_c, 0, 68, 58
1, 269108, Note_off_c, 0, 73, 62
1, 269114, Control_c, 0, 64, 87
1, 269121, Note_off_c, 0, 77, 58
1, 269129, Control_c, 0, 64, 107
1, 269131, Note_off_c, 0, 56, 64
1, 269144, Control_c, 0, 64, 127
1, 269153, Note_on_c, 0, 72, 90
1, 269154, Note_on_c, 0, 75, 88
1, 269190, Note_off_c, 0, 72, 67
1, 269190, Note_off_c, 0, 75, 61
1, 269329, Control_c, 0, 64, 63
1, 269344, Control_c, 0, 64, 35
1, 269357, Note_on_c, 0, 73, 90
1, 269359, Note_on_c, 0, 64, 91
1, 269359, Control_c, 0, 64, 0
1, 269366, Note_on_c, 0, 67, 75
1, 269368, Note_on_c, 0, 52, 75
1, 269372, Note_on_c, 0, 70, 64
1, 269389, Control_c, 0, 64, 34
1, 269403, Control_c, 0, 64, 48
1, 269418, Control_c, 0, 64, 62
1, 269433, Control_c, 0, 64, 80
1, 269447, Control_c, 0, 64, 127
1, 269460, Note_off_c, 0, 70, 28
1, 269461, Note_off_c, 0, 67, 56
1, 269468, Note_off_c, 0, 52, 62
1, 269500, Note_off_c, 0, 64, 58
1, 269528, Note_off_c, 0, 73, 57
1, 269565, Control_c, 0, 64, 106
1, 269580, Control_c, 0, 64, 59
1, 269590, Note_on_c, 0, 72, 96
1, 269591, Note_on_c, 0, 65, 86
1, 269595, Control_c, 0, 64, 0
1, 269598, Note_on_c, 0, 53, 70
1, 269603, Note_on_c, 0, 68, 75
1, 269654, Control_c, 0, 64, 19
1, 269669, Control_c, 0, 64, 40
1, 269684, Control_c, 0, 64, 54
1, 269693, Note_off_c, 0, 65, 64
1, 269699, Control_c, 0, 64, 68
1, 269714, Control_c, 0, 64, 108
1, 269719, Note_off_c, 0, 53, 66
1, 269729, Control_c, 0, 64, 127
1, 269757, Note_off_c, 0, 68, 50
1, 269832, Note_on_c, 0, 73, 95
1, 269841, Note_on_c, 0, 61, 83
1, 269845, Note_on_c, 0, 65, 78
1, 269848, Control_c, 0, 64, 64
1, 269853, Note_on_c, 0, 49, 76
1, 269854, Note_on_c, 0, 68, 72
1, 269863, Note_off_c, 0, 72, 59
1, 269863, Control_c, 0, 64, 41
1, 269878, Control_c, 0, 64, 0
1, 269893, Control_c, 0, 64, 13
1, 269907, Control_c, 0, 64, 33
1, 269922, Control_c, 0, 64, 48
1, 269937, Control_c, 0, 64, 64
1, 269952, Control_c, 0, 64, 127
1, 270006, Note_off_c, 0, 49, 62
1, 270015, Note_off_c, 0, 61, 64
1, 270023, Note_off_c, 0, 73, 59
1, 270025, Note_off_c, 0, 68, 50
1, 270059, Note_off_c, 0, 65, 35
1, 270063, Control_c, 0, 64, 77
1, 270077, Control_c, 0, 64, 53
1, 270092, Control_c, 0, 64, 0
1, 270096, Note_on_c, 0, 70, 92
1, 270097, Note_on_c, 0, 62, 89
1, 270099, Note_on_c, 0, 65, 73
1, 270104, Note_on_c, 0, 68, 79
1, 270107, Note_on_c, 0, 50, 67
1, 270152, Control_c, 0, 64, 28
1, 270166, Control_c, 0, 64, 44
1, 270181, Control_c, 0, 64, 61
1, 270195, Control_c, 0, 64, 100
1, 270210, Control_c, 0, 64, 127
1, 270261, Note_off_c, 0, 62, 62
1, 270269, Note_off_c, 0, 50, 55
1, 270287, Note_off_c, 0, 65, 59
1, 270325, Note_off_c, 0, 70, 60
1, 270331, Note_off_c, 0, 68, 59
1, 270401, Note_on_c, 0, 63, 91
1, 270402, Control_c, 0, 64, 68
1, 270406, Note_on_c, 0, 51, 76
1, 270417, Control_c, 0, 64, 41
1, 270420, Note_on_c, 0, 70, 85
1, 270425, Note_on_c, 0, 67, 80
1, 270432, Control_c, 0, 64, 0
1, 270577, Note_off_c, 0, 70, 60
1, 270579, Note_on_c, 0, 72, 75
1, 270611, Control_c, 0, 64, 12
1, 270626, Control_c, 0, 64, 39
1, 270641, Control_c, 0, 64, 53
1, 270656, Control_c, 0, 64, 68
1, 270671, Control_c, 0, 64, 127
1, 270672, Note_off_c, 0, 72, 63
1, 270673, Note_on_c, 0, 70, 86
1, 270740, Note_off_c, 0, 70, 61
1, 270747, Note_off_c, 0, 63, 63
1, 270751, Note_on_c, 0, 72, 75
1, 270791, Note_off_c, 0, 51, 60
1, 270827, Note_off_c, 0, 72, 64
1, 270828, Note_on_c, 0, 70, 80
1, 270880, Note_off_c, 0, 70, 61
1, 270902, Note_on_c, 0, 72, 70
1, 270940, Note_on_c, 0, 70, 74
1, 270950, Note_off_c, 0, 72, 62
1, 270999, Note_off_c, 0, 70, 61
1, 271004, Note_on_c, 0, 72, 70
1, 271058, Note_on_c, 0, 70, 86
1, 271097, Note_off_c, 0, 72, 64
1, 271098, Note_off_c, 0, 67, 62
1, 271126, Note_on_c, 0, 69, 87
1, 271150, Note_off_c, 0, 70, 64
1, 271222, Note_on_c, 0, 70, 98
1, 271262, Note_off_c, 0, 69, 66
1, 271451, Note_off_c, 0, 70, 53
1, 271516, Note_on_c, 0, 51, 77
1, 271517, Note_on_c, 0, 39, 63
1, 271517, Note_on_c, 0, 73, 88
1, 271521, Note_on_c, 0, 70, 60
1, 271523, Note_on_c, 0, 67, 76
1, 271523, Control_c, 0, 64, 95
1, 271545, Control_c, 0, 64, 63
1, 271560, Control_c, 0, 64, 37
1, 271575, Control_c, 0, 64, 0
1, 271809, Note_off_c, 0, 70, 59
1, 271812, Control_c, 0, 64, 22
1, 271827, Control_c, 0, 64, 42
1, 271842, Control_c, 0, 64, 58
1, 271857, Control_c, 0, 64, 77
1, 271872, Control_c, 0, 64, 111
1, 271902, Control_c, 0, 64, 127
1, 271984, Note_on_c, 0, 70, 85
1, 272138, Note_off_c, 0, 67, 32
1, 272214, Note_off_c, 0, 73, 54
1, 272242, Note_off_c, 0, 70, 61
1, 272249, Note_on_c, 0, 67, 84
1, 272310, Note_off_c, 0, 67, 63
1, 272471, Note_off_c, 0, 51, 61
1, 272481, Note_on_c, 0, 61, 78
1, 272705, Note_on_c, 0, 58, 76
1, 272918, Note_on_c, 0, 55, 73
1, 272978, Note_off_c, 0, 58, 58
1, 273103, Control_c, 0, 64, 110
1, 273118, Control_c, 0, 64, 70
1, 273133, Control_c, 0, 64, 69
1, 273143, Note_on_c, 0, 49, 64
1, 273148, Control_c, 0, 64, 71
1, 273162, Control_c, 0, 64, 72
1, 273177, Control_c, 0, 64, 73
1, 273192, Control_c, 0, 64, 77
1, 273207, Control_c, 0, 64, 83
1, 273221, Control_c, 0, 64, 89
1, 273236, Control_c, 0, 64, 100
1, 273251, Control_c, 0, 64, 127
1, 273392, Note_on_c, 0, 46, 71
1, 273430, Note_off_c, 0, 55, 0
1, 273467, Poly_aftertouch_c, 0, 55, 127
1, 273496, Note_off_c, 0, 39, 1
1, 273616, Note_on_c, 0, 43, 67
1, 273690, Note_off_c, 0, 49, 57
1, 273735, Poly_aftertouch_c, 0, 55, 0
1, 273851, Control_c, 0, 64, 101
1, 273866, Control_c, 0, 64, 66
1, 273881, Control_c, 0, 64, 51
1, 273883, Note_on_c, 0, 39, 64
1, 273896, Control_c, 0, 64, 37
1, 273911, Control_c, 0, 64, 39
1, 273926, Control_c, 0, 64, 45
1, 273941, Control_c, 0, 64, 49
1, 273956, Control_c, 0, 64, 53
1, 273970, Control_c, 0, 64, 58
1, 273985, Control_c, 0, 64, 62
1, 273999, Note_off_c, 0, 46, 57
1, 274000, Control_c, 0, 64, 65
1, 274000, Note_off_c, 0, 43, 37
1, 274014, Note_off_c, 0, 61, 22
1, 274015, Control_c, 0, 64, 70
1, 274030, Control_c, 0, 64, 77
1, 274044, Control_c, 0, 64, 83
1, 274059, Control_c, 0, 64, 86
1, 274089, Control_c, 0, 64, 81
1, 274104, Control_c, 0, 64, 70
1, 274118, Control_c, 0, 64, 60
1, 274133, Control_c, 0, 64, 46
1, 274148, Control_c, 0, 64, 41
1, 274162, Control_c, 0, 64, 46
1, 274167, Note_on_c, 0, 43, 62
1, 274177, Control_c, 0, 64, 52
1, 274192, Control_c, 0, 64, 58
1, 274207, Control_c, 0, 64, 64
1, 274222, Control_c, 0, 64, 73
1, 274236, Control_c, 0, 64, 94
1, 274251, Control_c, 0, 64, 110
1, 274266, Control_c, 0, 64, 93
1, 274281, Control_c, 0, 64, 75
1, 274296, Control_c, 0, 64, 62
1, 274310, Control_c, 0, 64, 49
1, 274325, Control_c, 0, 64, 37
1, 274340, Control_c, 0, 64, 40
1, 274355, Control_c, 0, 64, 46
1, 274370, Control_c, 0, 64, 54
1, 274385, Control_c, 0, 64, 64
1, 274392, Note_on_c, 0, 46, 62
1, 274400, Control_c, 0, 64, 77
1, 274415, Control_c, 0, 64, 85
1, 274430, Control_c, 0, 64, 77
1, 274444, Control_c, 0, 64, 66
1, 274459, Control_c, 0, 64, 62
1, 274474, Control_c, 0, 64, 62
1, 274489, Control_c, 0, 64, 64
1, 274504, Control_c, 0, 64, 65
1, 274518, Control_c, 0, 64, 68
1, 274540, Control_c, 0, 64, 73
1, 274555, Control_c, 0, 64, 72
1, 274571, Control_c, 0, 64, 65
1, 274585, Control_c, 0, 64, 56
1, 274600, Control_c, 0, 64, 51
1, 274615, Control_c, 0, 64, 52
1, 274630, Control_c, 0, 64, 55
1, 274645, Control_c, 0, 64, 56
1, 274651, Note_on_c, 0, 49, 62
1, 274659, Control_c, 0, 64, 58
1, 274674, Control_c, 0, 64, 59
1, 274689, Control_c, 0, 64, 57
1, 274704, Control_c, 0, 64, 48
1, 274719, Control_c, 0, 64, 40
1, 274733, Control_c, 0, 64, 43
1, 274748, Control_c, 0, 64, 51
1, 274763, Control_c, 0, 64, 59
1, 274778, Control_c, 0, 64, 65
1, 274792, Control_c, 0, 64, 67
1, 274807, Control_c, 0, 64, 65
1, 274822, Control_c, 0, 64, 58
1, 274837, Control_c, 0, 64, 49
1, 274852, Control_c, 0, 64, 47
1, 274866, Control_c, 0, 64, 49
1, 274881, Control_c, 0, 64, 52
1, 274896, Control_c, 0, 64, 56
1, 274907, Note_on_c, 0, 55, 66
1, 274911, Control_c, 0, 64, 62
1, 274926, Control_c, 0, 64, 72
1, 274940, Control_c, 0, 64, 76
1, 274955, Control_c, 0, 64, 72
1, 274970, Control_c, 0, 64, 66
1, 274971, Note_off_c, 0, 49, 57
1, 274984, Control_c, 0, 64, 60
1, 274999, Control_c, 0, 64, 52
1, 275014, Control_c, 0, 64, 50
1, 275028, Note_off_c, 0, 43, 15
1, 275029, Control_c, 0, 64, 55
1, 275044, Control_c, 0, 64, 62
1, 275059, Control_c, 0, 64, 69
1, 275073, Control_c, 0, 64, 74
1, 275088, Control_c, 0, 64, 69
1, 275103, Control_c, 0, 64, 60
1, 275118, Control_c, 0, 64, 51
1, 275133, Control_c, 0, 64, 51
1, 275148, Control_c, 0, 64, 56
1, 275163, Control_c, 0, 64, 61
1, 275177, Control_c, 0, 64, 63
1, 275185, Note_on_c, 0, 58, 65
1, 275192, Control_c, 0, 64, 64
1, 275200, Note_off_c, 0, 46, 34
1, 275207, Control_c, 0, 64, 65
1, 275222, Control_c, 0, 64, 64
1, 275237, Control_c, 0, 64, 63
1, 275251, Control_c, 0, 64, 63
1, 275255, Note_off_c, 0, 55, 63
1, 275266, Control_c, 0, 64, 63
1, 275318, Control_c, 0, 64, 64
1, 275333, Control_c, 0, 64, 64
1, 275336, Note_off_c, 0, 58, 62
1, 275348, Control_c, 0, 64, 64
1, 275363, Control_c, 0, 64, 62
1, 275378, Control_c, 0, 64, 60
1, 275393, Control_c, 0, 64, 56
1, 275407, Note_off_c, 0, 39, 8
1, 275408, Control_c, 0, 64, 50
1, 275422, Control_c, 0, 64, 48
1, 275437, Control_c, 0, 64, 50
1, 275452, Control_c, 0, 64, 56
1, 275467, Control_c, 0, 64, 63
1, 275468, Note_on_c, 0, 61, 60
1, 275482, Control_c, 0, 64, 73
1, 275497, Control_c, 0, 64, 74
1, 275512, Control_c, 0, 64, 67
1, 275527, Control_c, 0, 64, 61
1, 275541, Control_c, 0, 64, 57
1, 275556, Control_c, 0, 64, 59
1, 275571, Control_c, 0, 64, 64
1, 275586, Control_c, 0, 64, 69
1, 275601, Control_c, 0, 64, 72
1, 275630, Control_c, 0, 64, 66
1, 275645, Control_c, 0, 64, 59
1, 275660, Control_c, 0, 64, 55
1, 275675, Control_c, 0, 64, 57
1, 275689, Control_c, 0, 64, 62
1, 275704, Control_c, 0, 64, 65
1, 275719, Control_c, 0, 64, 68
1, 275733, Control_c, 0, 64, 69
1, 275744, Note_on_c, 0, 67, 57
1, 275748, Control_c, 0, 64, 67
1, 275763, Control_c, 0, 64, 63
1, 275778, Control_c, 0, 64, 56
1, 275793, Control_c, 0, 64, 52
1, 275807, Control_c, 0, 64, 56
1, 275822, Control_c, 0, 64, 64
1, 275837, Control_c, 0, 64, 74
1, 275852, Control_c, 0, 64, 87
1, 275867, Control_c, 0, 64, 91
1, 275896, Control_c, 0, 64, 83
1, 275911, Control_c, 0, 64, 69
1, 275926, Control_c, 0, 64, 59
1, 275941, Control_c, 0, 64, 56
1, 275956, Control_c, 0, 64, 59
1, 275971, Control_c, 0, 64, 65
1, 275986, Control_c, 0, 64, 67
1, 276015, Control_c, 0, 64, 65
1, 276037, Control_c, 0, 64, 63
1, 276052, Control_c, 0, 64, 64
1, 276067, Control_c, 0, 64, 68
1, 276081, Control_c, 0, 64, 70
1, 276086, Note_on_c, 0, 70, 62
1, 276096, Control_c, 0, 64, 71
1, 276141, Control_c, 0, 64, 72
1, 276155, Control_c, 0, 64, 76
1, 276172, Control_c, 0, 64, 86
1, 276186, Control_c, 0, 64, 90
1, 276216, Control_c, 0, 64, 89
1, 276260, Control_c, 0, 64, 90
1, 276349, Control_c, 0, 64, 91
1, 276386, Note_off_c, 0, 67, 51
1, 276394, Control_c, 0, 64, 92
1, 276408, Note_off_c, 0, 61, 31
1, 276409, Control_c, 0, 64, 93
1, 276421, Note_off_c, 0, 70, 57
1, 276424, Control_c, 0, 64, 95
1, 276438, Control_c, 0, 64, 96
1, 276483, Control_c, 0, 64, 96
1, 276498, Control_c, 0, 64, 98
1, 276512, Control_c, 0, 64, 99
1, 276571, Control_c, 0, 64, 100
1, 276675, Control_c, 0, 64, 99
1, 276690, Control_c, 0, 64, 96
1, 276704, Control_c, 0, 64, 91
1, 276719, Control_c, 0, 64, 84
1, 276734, Control_c, 0, 64, 78
1, 276742, Note_on_c, 0, 73, 52
1, 276743, Note_on_c, 0, 61, 46
1, 276749, Control_c, 0, 64, 73
1, 276752, Note_on_c, 0, 39, 35
1, 276753, Note_on_c, 0, 51, 32
1, 276760, Note_on_c, 0, 70, 41
1, 276764, Control_c, 0, 64, 69
1, 276786, Control_c, 0, 64, 64
1, 276790, Note_on_c, 0, 67, 28
1, 276801, Control_c, 0, 64, 59
1, 276816, Control_c, 0, 64, 52
1, 276830, Control_c, 0, 64, 48
1, 276890, Control_c, 0, 64, 47
1, 276904, Control_c, 0, 64, 44
1, 276919, Control_c, 0, 64, 39
1, 276933, Control_c, 0, 64, 29
1, 276948, Control_c, 0, 64, 20
1, 276964, Control_c, 0, 64, 14
1, 276978, Control_c, 0, 64, 11
1, 276993, Control_c, 0, 64, 8
1, 277008, Control_c, 0, 64, 0
1, 277579, Control_c, 0, 64, 8
1, 277593, Control_c, 0, 64, 12
1, 277608, Control_c, 0, 64, 15
1, 277623, Control_c, 0, 64, 18
1, 277638, Control_c, 0, 64, 21
1, 277652, Control_c, 0, 64, 24
1, 277667, Control_c, 0, 64, 27
1, 277682, Control_c, 0, 64, 28
1, 277697, Control_c, 0, 64, 30
1, 277712, Control_c, 0, 64, 32
1, 277726, Control_c, 0, 64, 35
1, 277741, Control_c, 0, 64, 38
1, 277757, Control_c, 0, 64, 42
1, 277772, Control_c, 0, 64, 47
1, 277787, Control_c, 0, 64, 53
1, 277801, Control_c, 0, 64, 58
1, 277816, Control_c, 0, 64, 61
1, 277831, Control_c, 0, 64, 61
1, 277846, Control_c, 0, 64, 62
1, 277861, Control_c, 0, 64, 63
1, 277875, Control_c, 0, 64, 65
1, 277890, Control_c, 0, 64, 67
1, 277905, Control_c, 0, 64, 69
1, 277920, Control_c, 0, 64, 70
1, 277935, Control_c, 0, 64, 72
1, 277950, Control_c, 0, 64, 74
1, 277965, Control_c, 0, 64, 77
1, 277980, Control_c, 0, 64, 81
1, 277995, Control_c, 0, 64, 83
1, 278004, Note_off_c, 0, 51, 41
1, 278009, Control_c, 0, 64, 86
1, 278024, Control_c, 0, 64, 91
1, 278030, Note_off_c, 0, 61, 45
1, 278039, Control_c, 0, 64, 100
1, 278054, Control_c, 0, 64, 109
1, 278069, Control_c, 0, 64, 127
1, 278098, Control_c, 0, 67, 10
1, 278113, Control_c, 0, 67, 11
1, 278127, Control_c, 0, 67, 13
1, 278142, Control_c, 0, 67, 16
1, 278157, Control_c, 0, 67, 20
1, 278160, Note_off_c, 0, 67, 40
1, 278172, Control_c, 0, 67, 23
1, 278187, Control_c, 0, 67, 28
1, 278201, Control_c, 0, 67, 33
1, 278209, Note_off_c, 0, 70, 30
1, 278216, Control_c, 0, 67, 37
1, 278231, Control_c, 0, 67, 41
1, 278246, Control_c, 0, 67, 45
1, 278261, Control_c, 0, 67, 49
1, 278283, Control_c, 0, 67, 53
1, 278298, Control_c, 0, 67, 56
1, 278313, Control_c, 0, 67, 59
1, 278328, Control_c, 0, 67, 62
1, 278342, Control_c, 0, 67, 64
1, 278372, Control_c, 0, 67, 64
1, 278402, Control_c, 0, 67, 65
1, 278416, Control_c, 0, 67, 67
1, 278431, Control_c, 0, 67, 71
1, 278446, Control_c, 0, 67, 76
1, 278461, Control_c, 0, 67, 80
1, 278475, Control_c, 0, 67, 85
1, 278490, Control_c, 0, 67, 91
1, 278505, Control_c, 0, 67, 97
1, 278520, Control_c, 0, 67, 103
1, 278534, Control_c, 0, 67, 110
1, 278550, Control_c, 0, 67, 115
1, 278555, Note_off_c, 0, 39, 32
1, 278565, Control_c, 0, 67, 120
1, 278580, Control_c, 0, 67, 124
1, 278595, Control_c, 0, 67, 127
1, 278686, Note_off_c, 0, 73, 39
1, 278773, Control_c, 0, 67, 127
1, 278847, Control_c, 0, 67, 127
1, 279611, Control_c, 0, 64, 105
1, 279626, Control_c, 0, 64, 93
1, 279638, Note_on_c, 0, 74, 46
1, 279641, Control_c, 0, 64, 82
1, 279652, Note_on_c, 0, 62, 37
1, 279654, Note_on_c, 0, 70, 39
1, 279655, Control_c, 0, 64, 72
1, 279665, Note_on_c, 0, 50, 24
1, 279670, Note_on_c, 0, 38, 32
1, 279670, Control_c, 0, 64, 65
1, 279685, Control_c, 0, 64, 56
1, 279700, Control_c, 0, 64, 43
1, 279715, Control_c, 0, 64, 24
1, 279729, Poly_aftertouch_c, 0, 67, 127
1, 279730, Control_c, 0, 64, 0
1, 279914, Control_c, 0, 64, 11
1, 279929, Control_c, 0, 64, 24
1, 279944, Control_c, 0, 64, 30
1, 279959, Control_c, 0, 64, 35
1, 279974, Control_c, 0, 64, 41
1, 279989, Control_c, 0, 64, 48
1, 280004, Control_c, 0, 64, 55
1, 280019, Control_c, 0, 64, 59
1, 280034, Control_c, 0, 64, 61
1, 280049, Control_c, 0, 64, 61
1, 280078, Control_c, 0, 64, 62
1, 280093, Control_c, 0, 64, 64
1, 280107, Control_c, 0, 64, 66
1, 280122, Control_c, 0, 64, 68
1, 280137, Control_c, 0, 64, 69
1, 280153, Control_c, 0, 64, 69
1, 280168, Control_c, 0, 64, 70
1, 280183, Control_c, 0, 64, 74
1, 280197, Control_c, 0, 64, 78
1, 280212, Control_c, 0, 64, 81
1, 280227, Control_c, 0, 64, 83
1, 280232, Note_off_c, 0, 70, 37
1, 280242, Control_c, 0, 64, 84
1, 280257, Control_c, 0, 64, 86
1, 280271, Control_c, 0, 64, 94
1, 280286, Control_c, 0, 64, 108
1, 280301, Control_c, 0, 64, 127
1, 280505, Note_on_c, 0, 70, 44
1, 280663, Control_c, 0, 67, 127
1, 280678, Control_c, 0, 67, 123
1, 280692, Control_c, 0, 67, 121
1, 280706, Poly_aftertouch_c, 0, 67, 0
1, 280707, Control_c, 0, 67, 117
1, 280722, Control_c, 0, 67, 113
1, 280737, Control_c, 0, 67, 107
1, 280752, Control_c, 0, 67, 102
1, 280767, Control_c, 0, 67, 98
1, 280782, Control_c, 0, 67, 96
1, 280796, Control_c, 0, 67, 94
1, 280811, Control_c, 0, 67, 91
1, 280818, Note_off_c, 0, 62, 42
1, 280826, Control_c, 0, 67, 88
1, 280841, Control_c, 0, 67, 86
1, 280856, Control_c, 0, 67, 85
1, 280870, Control_c, 0, 67, 84
1, 280885, Control_c, 0, 67, 83
1, 280900, Control_c, 0, 67, 81
1, 280915, Control_c, 0, 67, 79
1, 280929, Control_c, 0, 67, 78
1, 280944, Control_c, 0, 67, 76
1, 280960, Control_c, 0, 67, 74
1, 280975, Control_c, 0, 67, 72
1, 280990, Control_c, 0, 67, 71
1, 281005, Control_c, 0, 67, 69
1, 281008, Note_on_c, 0, 67, 33
1, 281016, Note_off_c, 0, 50, 35
1, 281020, Control_c, 0, 67, 67
1, 281034, Control_c, 0, 67, 65
1, 281049, Control_c, 0, 67, 64
1, 281064, Control_c, 0, 67, 64
1, 281094, Control_c, 0, 67, 63
1, 281108, Control_c, 0, 67, 62
1, 281123, Control_c, 0, 67, 61
1, 281138, Control_c, 0, 67, 61
1, 281152, Control_c, 0, 67, 60
1, 281167, Control_c, 0, 67, 60
1, 281182, Control_c, 0, 67, 59
1, 281197, Control_c, 0, 67, 58
1, 281212, Control_c, 0, 67, 57
1, 281226, Control_c, 0, 67, 57
1, 281241, Control_c, 0, 67, 56
1, 281256, Control_c, 0, 67, 55
1, 281279, Control_c, 0, 67, 54
1, 281286, Note_off_c, 0, 74, 39
1, 281294, Control_c, 0, 67, 52
1, 281308, Control_c, 0, 67, 51
1, 281323, Control_c, 0, 67, 50
1, 281338, Control_c, 0, 67, 50
1, 281352, Control_c, 0, 67, 49
1, 281382, Control_c, 0, 67, 49
1, 281406, Note_off_c, 0, 70, 36
1, 281412, Control_c, 0, 67, 48
1, 281413, Note_on_c, 0, 62, 46
1, 281426, Control_c, 0, 67, 48
1, 281434, Note_off_c, 0, 67, 44
1, 281587, Note_off_c, 0, 62, 0
1, 281587, Note_on_c, 0, 62, 11
1, 281771, Note_on_c, 0, 58, 47
1, 281798, Control_c, 0, 67, 47
1, 281825, Note_off_c, 0, 62, 40
1, 281857, Control_c, 0, 67, 47
1, 281872, Control_c, 0, 67, 46
1, 281917, Control_c, 0, 67, 46
1, 281931, Control_c, 0, 67, 44
1, 281946, Control_c, 0, 67, 42
1, 281961, Control_c, 0, 67, 40
1, 281975, Control_c, 0, 67, 40
1, 282028, Control_c, 0, 67, 39
1, 282043, Control_c, 0, 67, 39
1, 282057, Control_c, 0, 67, 38
1, 282072, Control_c, 0, 67, 38
1, 282139, Note_on_c, 0, 55, 47
1, 282234, Note_off_c, 0, 38, 27
1, 282236, Control_c, 0, 67, 38
1, 282265, Control_c, 0, 67, 39
1, 282487, Control_c, 0, 67, 38
1, 282496, Note_on_c, 0, 50, 51
1, 282577, Control_c, 0, 67, 39
1, 282677, Note_off_c, 0, 55, 42
1, 282836, Control_c, 0, 67, 39
1, 282851, Control_c, 0, 67, 40
1, 282895, Control_c, 0, 67, 40
1, 282898, Note_on_c, 0, 46, 57
1, 283242, Note_on_c, 0, 43, 62
1, 283527, Note_off_c, 0, 58, 55
1, 283541, Control_c, 0, 67, 40
1, 283600, Control_c, 0, 67, 39
1, 283615, Control_c, 0, 67, 39
1, 283627, Note_on_c, 0, 38, 68
1, 283629, Control_c, 0, 67, 38
1, 283632, Note_off_c, 0, 50, 32
1, 283644, Control_c, 0, 67, 37
1, 283659, Control_c, 0, 67, 37
1, 283674, Control_c, 0, 67, 36
1, 283689, Control_c, 0, 67, 34
1, 283703, Control_c, 0, 67, 30
1, 283705, Note_off_c, 0, 43, 55
1, 283718, Control_c, 0, 67, 25
1, 283733, Control_c, 0, 67, 20
1, 283739, Note_off_c, 0, 46, 52
1, 283748, Control_c, 0, 67, 15
1, 283763, Control_c, 0, 67, 10
1, 283778, Control_c, 0, 67, 0
1, 283834, Note_off_c, 0, 38, 61
1, 284132, Note_on_c, 0, 62, 60
1, 284147, Note_on_c, 0, 34, 41
1, 284150, Note_on_c, 0, 50, 38
1, 284153, Note_on_c, 0, 55, 42
1, 284159, Note_on_c, 0, 46, 40
1, 284163, Note_on_c, 0, 38, 38
1, 284400, Note_off_c, 0, 46, 60
1, 284415, Note_off_c, 0, 62, 55
1, 284416, Note_off_c, 0, 34, 40
1, 284422, Note_off_c, 0, 38, 40
1, 284425, Note_off_c, 0, 55, 0
1, 284451, Note_off_c, 0, 50, 40
1, 284461, Poly_aftertouch_c, 0, 55, 0
1, 284600, Note_on_c, 0, 62, 73
1, 284616, Note_on_c, 0, 50, 44
1, 284623, Note_on_c, 0, 46, 52
1, 284623, Note_on_c, 0, 55, 47
1, 284624, Note_on_c, 0, 34, 46
1, 284636, Note_on_c, 0, 38, 32
1, 284823, Note_off_c, 0, 34, 52
1, 284833, Note_off_c, 0, 46, 60
1, 284854, Note_off_c, 0, 62, 57
1, 284858, Note_off_c, 0, 38, 38
1, 284862, Note_off_c, 0, 50, 58
1, 284871, Note_off_c, 0, 55, 48
1, 284980, Note_on_c, 0, 62, 71
1, 285000, Note_on_c, 0, 50, 52
1, 285004, Note_on_c, 0, 34, 39
1, 285005, Note_on_c, 0, 46, 39
1, 285006, Note_on_c, 0, 55, 56
1, 285026, Note_on_c, 0, 38, 38
1, 285188, Note_off_c, 0, 34, 41
1, 285191, Note_off_c, 0, 46, 43
1, 285220, Note_off_c, 0, 38, 37
1, 285276, Note_off_c, 0, 62, 49
1, 285292, Note_off_c, 0, 50, 36
1, 285333, Note_off_c, 0, 55, 30
1, 285444, Note_on_c, 0, 62, 68
1, 285451, Note_on_c, 0, 31, 46
1, 285453, Control_c, 0, 64, 92
1, 285465, Note_on_c, 0, 43, 45
1, 285467, Note_on_c, 0, 38, 43
1, 285467, Note_on_c, 0, 55, 40
1, 285467, Control_c, 0, 64, 66
1, 285468, Note_on_c, 0, 50, 42
1, 285482, Control_c, 0, 64, 51
1, 285486, Note_on_c, 0, 58, 47
1, 285497, Control_c, 0, 64, 19
1, 285511, Control_c, 0, 64, 0
1, 285526, Control_c, 0, 64, 19
1, 285541, Control_c, 0, 64, 29
1, 285556, Control_c, 0, 64, 39
1, 285571, Control_c, 0, 64, 50
1, 285586, Control_c, 0, 64, 61
1, 285600, Control_c, 0, 64, 72
1, 285615, Control_c, 0, 64, 97
1, 285630, Control_c, 0, 64, 127
1, 285695, Note_off_c, 0, 31, 52
1, 285715, Note_off_c, 0, 38, 58
1, 285785, Note_off_c, 0, 43, 56
1, 285817, Note_off_c, 0, 50, 40
1, 285823, Note_off_c, 0, 62, 56
1, 285840, Note_off_c, 0, 58, 36
1, 285846, Note_off_c, 0, 55, 35
1, 286024, Note_on_c, 0, 62, 62
1, 286045, Note_on_c, 0, 46, 35
1, 286051, Note_on_c, 0, 50, 29
1, 286061, Note_on_c, 0, 55, 32
1, 286064, Note_on_c, 0, 58, 36
1, 286065, Note_on_c, 0, 43, 35
1, 286220, Note_off_c, 0, 46, 46
1, 286237, Note_off_c, 0, 43, 44
1, 286245, Note_off_c, 0, 50, 40
1, 286268, Note_off_c, 0, 62, 54
1, 286272, Note_off_c, 0, 55, 40
1, 286314, Note_off_c, 0, 58, 38
1, 286442, Note_on_c, 0, 62, 56
1, 286466, Note_on_c, 0, 46, 33
1, 286466, Note_on_c, 0, 58, 38
1, 286470, Note_on_c, 0, 43, 32
1, 286502, Note_on_c, 0, 50, 13
1, 286548, Poly_aftertouch_c, 0, 55, 127
1, 286610, Note_off_c, 0, 46, 35
1, 286623, Note_off_c, 0, 43, 38
1, 286652, Note_off_c, 0, 50, 36
1, 286666, Poly_aftertouch_c, 0, 55, 0
1, 286677, Note_off_c, 0, 62, 37
1, 286724, Note_off_c, 0, 58, 35
1, 286759, Control_c, 0, 67, 8
1, 286773, Control_c, 0, 67, 10
1, 286788, Control_c, 0, 67, 11
1, 286803, Control_c, 0, 67, 13
1, 286818, Control_c, 0, 64, 90
1, 286818, Control_c, 0, 67, 17
1, 286833, Control_c, 0, 64, 85
1, 286833, Control_c, 0, 67, 23
1, 286847, Control_c, 0, 67, 31
1, 286862, Control_c, 0, 64, 86
1, 286862, Control_c, 0, 67, 41
1, 286877, Control_c, 0, 64, 87
1, 286877, Control_c, 0, 67, 49
1, 286879, Note_on_c, 0, 62, 45
1, 286891, Control_c, 0, 64, 89
1, 286891, Control_c, 0, 67, 58
1, 286897, Note_on_c, 0, 46, 26
1, 286905, Note_on_c, 0, 43, 28
1, 286906, Control_c, 0, 64, 97
1, 286906, Control_c, 0, 67, 67
1, 286915, Note_on_c, 0, 58, 25
1, 286921, Control_c, 0, 64, 127
1, 286921, Control_c, 0, 67, 76
1, 286922, Note_on_c, 0, 50, 18
1, 286936, Control_c, 0, 67, 87
1, 286951, Control_c, 0, 67, 97
1, 286955, Poly_aftertouch_c, 0, 55, 127
1, 286965, Control_c, 0, 67, 109
1, 286980, Control_c, 0, 67, 120
1, 286995, Control_c, 0, 67, 127
1, 287027, Poly_aftertouch_c, 0, 55, 0
1, 287061, Note_off_c, 0, 43, 43
1, 287072, Note_off_c, 0, 46, 43
1, 287078, Note_off_c, 0, 62, 36
1, 287081, Note_off_c, 0, 50, 39
1, 287110, Note_off_c, 0, 58, 36
1, 287316, Note_on_c, 0, 62, 43
1, 287347, Note_on_c, 0, 58, 18
1, 287351, Note_on_c, 0, 43, 22
1, 287375, Poly_aftertouch_c, 0, 50, 127
1, 287394, Poly_aftertouch_c, 0, 46, 127
1, 287396, Poly_aftertouch_c, 0, 55, 127
1, 287456, Poly_aftertouch_c, 0, 46, 0
1, 287460, Poly_aftertouch_c, 0, 55, 0
1, 287461, Poly_aftertouch_c, 0, 50, 0
1, 287486, Note_off_c, 0, 43, 42
1, 287490, Note_off_c, 0, 62, 40
1, 287540, Note_off_c, 0, 58, 35
1, 287777, Note_on_c, 0, 43, 26
1, 287778, Note_on_c, 0, 62, 38
1, 287798, Note_on_c, 0, 58, 19
1, 287841, Poly_aftertouch_c, 0, 50, 127
1, 287852, Poly_aftertouch_c, 0, 46, 127
1, 287885, Poly_aftertouch_c, 0, 55, 127
1, 287929, Poly_aftertouch_c, 0, 55, 0
1, 287950, Poly_aftertouch_c, 0, 50, 0
1, 287954, Poly_aftertouch_c, 0, 46, 0
1, 288002, Note_off_c, 0, 43, 36
1, 288002, Note_off_c, 0, 58, 40
1, 288040, Note_off_c, 0, 62, 41
1, 288258, Note_on_c, 0, 62, 36
1, 288664, Note_on_c, 0, 43, 31
1, 288673, Note_on_c, 0, 46, 24
1, 288675, Note_on_c, 0, 50, 12
1, 288713, Note_on_c, 0, 74, 53
1, 288714, Control_c, 0, 64, 102
1, 288729, Control_c, 0, 64, 81
1, 288743, Control_c, 0, 64, 68
1, 288765, Control_c, 0, 64, 60
1, 288780, Control_c, 0, 64, 49
1, 288795, Control_c, 0, 64, 37
1, 288810, Control_c, 0, 64, 30
1, 288824, Control_c, 0, 64, 29
1, 288839, Control_c, 0, 64, 29
1, 288854, Control_c, 0, 64, 33
1, 288869, Control_c, 0, 64, 36
1, 288884, Control_c, 0, 64, 38
1, 288899, Control_c, 0, 64, 43
1, 288914, Control_c, 0, 64, 49
1, 288929, Control_c, 0, 64, 58
1, 288945, Control_c, 0, 64, 64
1, 288959, Control_c, 0, 64, 70
1, 288974, Control_c, 0, 64, 72
1, 288989, Control_c, 0, 64, 74
1, 289004, Control_c, 0, 64, 77
1, 289019, Control_c, 0, 64, 83
1, 289033, Control_c, 0, 64, 89
1, 289048, Control_c, 0, 64, 95
1, 289061, Note_off_c, 0, 46, 41
1, 289063, Control_c, 0, 64, 98
1, 289078, Control_c, 0, 64, 101
1, 289093, Control_c, 0, 64, 109
1, 289093, Note_off_c, 0, 50, 39
1, 289101, Note_off_c, 0, 43, 40
1, 289107, Control_c, 0, 64, 127
1, 289187, Note_off_c, 0, 62, 40
1, 289325, Note_on_c, 0, 43, 23
1, 289329, Note_on_c, 0, 50, 10
1, 289337, Note_on_c, 0, 46, 11
1, 289477, Note_off_c, 0, 46, 41
1, 289485, Note_off_c, 0, 43, 43
1, 289486, Note_off_c, 0, 50, 39
1, 289715, Note_on_c, 0, 43, 32
1, 289719, Note_on_c, 0, 50, 14
1, 289725, Note_on_c, 0, 46, 17
1, 289817, Note_off_c, 0, 46, 36
1, 289874, Note_off_c, 0, 43, 43
1, 289883, Note_off_c, 0, 50, 40
1, 290048, Note_on_c, 0, 50, 33
1, 290072, Note_on_c, 0, 46, 25
1, 290075, Note_on_c, 0, 43, 27
1, 290166, Note_off_c, 0, 46, 37
1, 290178, Note_off_c, 0, 50, 40
1, 290210, Note_off_c, 0, 43, 29
1, 290420, Note_on_c, 0, 50, 31
1, 290426, Note_on_c, 0, 43, 28
1, 290435, Note_on_c, 0, 46, 28
1, 290504, Note_off_c, 0, 46, 40
1, 290519, Note_off_c, 0, 50, 32
1, 290589, Note_off_c, 0, 43, 25
1, 290768, Note_on_c, 0, 43, 29
1, 290781, Note_on_c, 0, 46, 24
1, 290818, Poly_aftertouch_c, 0, 50, 127
1, 290838, Note_off_c, 0, 46, 44
1, 290868, Poly_aftertouch_c, 0, 50, 0
1, 290896, Note_off_c, 0, 43, 34
1, 291128, Note_on_c, 0, 72, 61
1, 291146, Note_on_c, 0, 43, 25
1, 291146, Note_on_c, 0, 46, 29
1, 291151, Note_on_c, 0, 50, 9
1, 291260, Note_off_c, 0, 46, 33
1, 291281, Note_off_c, 0, 50, 35
1, 291300, Note_off_c, 0, 43, 37
1, 291391, Note_off_c, 0, 72, 61
1, 291428, Control_c, 0, 64, 92
1, 291442, Control_c, 0, 64, 85
1, 291457, Control_c, 0, 64, 91
1, 291472, Control_c, 0, 64, 106
1, 291486, Control_c, 0, 64, 127
1, 291519, Note_on_c, 0, 43, 30
1, 291539, Note_on_c, 0, 50, 30
1, 291542, Note_on_c, 0, 72, 60
1, 291544, Note_on_c, 0, 46, 29
1, 291561, Control_c, 0, 64, 89
1, 291576, Control_c, 0, 64, 69
1, 291591, Control_c, 0, 64, 64
1, 291605, Control_c, 0, 64, 65
1, 291620, Control_c, 0, 64, 67
1, 291635, Control_c, 0, 64, 70
1, 291650, Control_c, 0, 64, 73
1, 291665, Control_c, 0, 64, 75
1, 291679, Control_c, 0, 64, 76
1, 291709, Control_c, 0, 64, 77
1, 291724, Control_c, 0, 64, 83
1, 291739, Control_c, 0, 64, 92
1, 291761, Control_c, 0, 64, 93
1, 291790, Control_c, 0, 64, 92
1, 291803, Note_off_c, 0, 46, 41
1, 291817, Note_off_c, 0, 50, 40
1, 291824, Note_off_c, 0, 74, 60
1, 291826, Note_off_c, 0, 43, 44
1, 291835, Control_c, 0, 64, 92
1, 291879, Control_c, 0, 64, 94
1, 291894, Control_c, 0, 64, 101
1, 291909, Control_c, 0, 64, 109
1, 291953, Control_c, 0, 64, 107
1, 291968, Control_c, 0, 64, 101
1, 291983, Control_c, 0, 64, 93
1, 291998, Control_c, 0, 64, 85
1, 292012, Control_c, 0, 64, 76
1, 292027, Control_c, 0, 64, 65
1, 292042, Control_c, 0, 64, 57
1, 292044, Note_on_c, 0, 46, 32
1, 292051, Note_on_c, 0, 70, 54
1, 292057, Control_c, 0, 64, 41
1, 292060, Note_on_c, 0, 43, 34
1, 292072, Control_c, 0, 64, 15
1, 292079, Note_on_c, 0, 50, 11
1, 292086, Control_c, 0, 64, 0
1, 292114, Note_off_c, 0, 72, 61
1, 292177, Control_c, 0, 64, 13
1, 292191, Control_c, 0, 64, 24
1, 292206, Control_c, 0, 64, 33
1, 292221, Control_c, 0, 64, 40
1, 292235, Control_c, 0, 64, 47
1, 292250, Control_c, 0, 64, 55
1, 292265, Control_c, 0, 64, 61
1, 292280, Control_c, 0, 64, 64
1, 292293, Note_off_c, 0, 46, 42
1, 292295, Control_c, 0, 64, 65
1, 292298, Note_off_c, 0, 50, 41
1, 292309, Control_c, 0, 64, 67
1, 292315, Note_off_c, 0, 43, 42
1, 292324, Control_c, 0, 64, 71
1, 292339, Control_c, 0, 64, 78
1, 292354, Control_c, 0, 64, 89
1, 292369, Control_c, 0, 64, 95
1, 292384, Control_c, 0, 64, 98
1, 292404, Note_off_c, 0, 70, 32
1, 292443, Note_on_c, 0, 46, 28
1, 292445, Note_on_c, 0, 43, 37
1, 292458, Note_on_c, 0, 50, 12
1, 292519, Note_off_c, 0, 50, 45
1, 292524, Control_c, 0, 64, 99
1, 292539, Control_c, 0, 64, 101
1, 292549, Note_off_c, 0, 43, 37
1, 292550, Note_off_c, 0, 46, 37
1, 292554, Control_c, 0, 64, 102
1, 292586, Note_on_c, 0, 69, 65
1, 292598, Control_c, 0, 64, 103
1, 292613, Control_c, 0, 64, 105
1, 292628, Control_c, 0, 64, 108
1, 292643, Control_c, 0, 64, 109
1, 292688, Control_c, 0, 64, 110
1, 292746, Note_off_c, 0, 69, 61
1, 292777, Control_c, 0, 64, 113
1, 292792, Control_c, 0, 64, 114
1, 292827, Note_on_c, 0, 43, 35
1, 292839, Note_on_c, 0, 50, 29
1, 292846, Note_on_c, 0, 46, 31
1, 292866, Control_c, 0, 64, 113
1, 292881, Control_c, 0, 64, 96
1, 292890, Note_on_c, 0, 69, 60
1, 292896, Control_c, 0, 64, 79
1, 292911, Control_c, 0, 64, 65
1, 292926, Control_c, 0, 64, 53
1, 292941, Control_c, 0, 64, 31
1, 292956, Control_c, 0, 64, 0
1, 293001, Control_c, 0, 64, 12
1, 293015, Control_c, 0, 64, 20
1, 293030, Control_c, 0, 64, 26
1, 293045, Control_c, 0, 64, 32
1, 293060, Control_c, 0, 64, 41
1, 293075, Control_c, 0, 64, 52
1, 293090, Control_c, 0, 64, 60
1, 293105, Control_c, 0, 64, 64
1, 293120, Control_c, 0, 64, 66
1, 293134, Control_c, 0, 64, 67
1, 293139, Note_off_c, 0, 46, 45
1, 293149, Control_c, 0, 64, 68
1, 293155, Note_off_c, 0, 43, 41
1, 293156, Note_off_c, 0, 50, 40
1, 293164, Control_c, 0, 64, 72
1, 293179, Control_c, 0, 64, 77
1, 293194, Control_c, 0, 64, 79
1, 293238, Control_c, 0, 64, 80
1, 293290, Control_c, 0, 64, 79
1, 293299, Note_on_c, 0, 46, 29
1, 293300, Note_off_c, 0, 69, 61
1, 293301, Note_on_c, 0, 70, 53
1, 293305, Control_c, 0, 64, 72
1, 293315, Note_on_c, 0, 43, 27
1, 293320, Control_c, 0, 64, 63
1, 293330, Note_on_c, 0, 50, 23
1, 293334, Control_c, 0, 64, 51
1, 293349, Control_c, 0, 64, 27
1, 293364, Control_c, 0, 64, 0
1, 293423, Control_c, 0, 64, 11
1, 293438, Control_c, 0, 64, 19
1, 293453, Control_c, 0, 64, 29
1, 293467, Control_c, 0, 64, 39
1, 293478, Note_off_c, 0, 46, 43
1, 293482, Control_c, 0, 64, 48
1, 293486, Note_off_c, 0, 43, 41
1, 293486, Note_off_c, 0, 50, 40
1, 293497, Control_c, 0, 64, 57
1, 293512, Control_c, 0, 64, 62
1, 293526, Control_c, 0, 64, 64
1, 293541, Control_c, 0, 64, 64
1, 293556, Control_c, 0, 64, 66
1, 293571, Control_c, 0, 64, 70
1, 293586, Control_c, 0, 64, 75
1, 293600, Control_c, 0, 64, 79
1, 293615, Control_c, 0, 64, 81
1, 293630, Control_c, 0, 64, 82
1, 293645, Control_c, 0, 64, 86
1, 293659, Control_c, 0, 64, 93
1, 293674, Control_c, 0, 64, 101
1, 293689, Control_c, 0, 64, 105
1, 293695, Note_on_c, 0, 50, 16
1, 293704, Control_c, 0, 64, 108
1, 293706, Note_on_c, 0, 46, 6
1, 293707, Note_on_c, 0, 43, 15
1, 293719, Control_c, 0, 64, 109
1, 293735, Control_c, 0, 64, 117
1, 293749, Control_c, 0, 64, 127
1, 293786, Note_off_c, 0, 46, 40
1, 293825, Note_off_c, 0, 50, 28
1, 293842, Note_off_c, 0, 43, 38
1, 293883, Note_on_c, 0, 67, 50
1, 294018, Note_off_c, 0, 67, 52
1, 294065, Note_off_c, 0, 70, 32
1, 294214, Note_on_c, 0, 45, 27
1, 294217, Control_c, 0, 64, 95
1, 294220, Note_on_c, 0, 48, 31
1, 294231, Control_c, 0, 64, 77
1, 294232, Note_on_c, 0, 50, 27
1, 294238, Note_on_c, 0, 67, 54
1, 294246, Control_c, 0, 64, 65
1, 294261, Control_c, 0, 64, 56
1, 294276, Control_c, 0, 64, 38
1, 294290, Control_c, 0, 64, 0
1, 294408, Control_c, 0, 64, 9
1, 294423, Control_c, 0, 64, 21
1, 294438, Control_c, 0, 64, 28
1, 294453, Control_c, 0, 64, 34
1, 294468, Control_c, 0, 64, 40
1, 294482, Control_c, 0, 64, 47
1, 294497, Control_c, 0, 64, 54
1, 294512, Control_c, 0, 64, 60
1, 294524, Note_off_c, 0, 48, 42
1, 294528, Control_c, 0, 64, 63
1, 294543, Control_c, 0, 64, 63
1, 294549, Note_off_c, 0, 45, 36
1, 294557, Note_off_c, 0, 50, 41
1, 294558, Control_c, 0, 64, 64
1, 294572, Control_c, 0, 64, 65
1, 294587, Control_c, 0, 64, 68
1, 294602, Control_c, 0, 64, 71
1, 294617, Control_c, 0, 64, 74
1, 294632, Control_c, 0, 64, 76
1, 294646, Control_c, 0, 64, 79
1, 294661, Control_c, 0, 64, 81
1, 294676, Control_c, 0, 64, 81
1, 294691, Control_c, 0, 64, 81
1, 294706, Control_c, 0, 64, 75
1, 294721, Control_c, 0, 64, 67
1, 294735, Control_c, 0, 64, 60
1, 294758, Control_c, 0, 64, 50
1, 294762, Note_on_c, 0, 54, 44
1, 294773, Control_c, 0, 64, 47
1, 294777, Note_on_c, 0, 50, 28
1, 294787, Control_c, 0, 64, 48
1, 294792, Note_on_c, 0, 48, 31
1, 294802, Control_c, 0, 64, 50
1, 294803, Note_on_c, 0, 45, 21
1, 294817, Control_c, 0, 64, 52
1, 294831, Control_c, 0, 64, 53
1, 294846, Control_c, 0, 64, 56
1, 294861, Control_c, 0, 64, 60
1, 294876, Control_c, 0, 64, 64
1, 294891, Control_c, 0, 64, 67
1, 294905, Control_c, 0, 64, 69
1, 294920, Control_c, 0, 64, 70
1, 294935, Control_c, 0, 64, 72
1, 294950, Control_c, 0, 64, 75
1, 294965, Control_c, 0, 64, 79
1, 294971, Note_off_c, 0, 54, 55
1, 294977, Note_off_c, 0, 48, 44
1, 294979, Note_off_c, 0, 45, 41
1, 294980, Control_c, 0, 64, 82
1, 294989, Note_off_c, 0, 50, 39
1, 294995, Control_c, 0, 64, 83
1, 295025, Control_c, 0, 64, 83
1, 295039, Control_c, 0, 64, 85
1, 295054, Control_c, 0, 64, 87
1, 295069, Control_c, 0, 64, 88
1, 295128, Control_c, 0, 64, 89
1, 295143, Control_c, 0, 64, 89
1, 295202, Control_c, 0, 64, 88
1, 295217, Control_c, 0, 64, 86
1, 295231, Control_c, 0, 64, 80
1, 295238, Note_on_c, 0, 50, 23
1, 295238, Note_on_c, 0, 54, 30
1, 295245, Note_on_c, 0, 48, 26
1, 295246, Control_c, 0, 64, 72
1, 295254, Note_on_c, 0, 66, 58
1, 295254, Note_on_c, 0, 45, 25
1, 295261, Control_c, 0, 64, 64
1, 295276, Control_c, 0, 64, 51
1, 295291, Control_c, 0, 64, 27
1, 295305, Control_c, 0, 64, 0
1, 295446, Note_off_c, 0, 67, 59
1, 295454, Control_c, 0, 64, 20
1, 295469, Control_c, 0, 64, 29
1, 295484, Control_c, 0, 64, 37
1, 295507, Control_c, 0, 64, 46
1, 295522, Control_c, 0, 64, 54
1, 295535, Note_off_c, 0, 48, 42
1, 295536, Control_c, 0, 64, 60
1, 295545, Note_off_c, 0, 45, 40
1, 295551, Note_off_c, 0, 54, 40
1, 295551, Control_c, 0, 64, 64
1, 295552, Note_off_c, 0, 50, 40
1, 295566, Control_c, 0, 64, 69
1, 295581, Control_c, 0, 64, 77
1, 295596, Control_c, 0, 64, 82
1, 295610, Control_c, 0, 64, 83
1, 295625, Control_c, 0, 64, 82
1, 295640, Control_c, 0, 64, 74
1, 295654, Control_c, 0, 64, 64
1, 295658, Note_on_c, 0, 54, 56
1, 295669, Control_c, 0, 64, 55
1, 295676, Note_on_c, 0, 45, 26
1, 295680, Note_on_c, 0, 48, 27
1, 295682, Note_on_c, 0, 50, 35
1, 295684, Control_c, 0, 64, 47
1, 295699, Control_c, 0, 64, 47
1, 295714, Control_c, 0, 64, 49
1, 295728, Control_c, 0, 64, 50
1, 295743, Control_c, 0, 64, 52
1, 295758, Control_c, 0, 64, 56
1, 295773, Control_c, 0, 64, 59
1, 295788, Control_c, 0, 64, 62
1, 295803, Control_c, 0, 64, 65
1, 295818, Control_c, 0, 64, 70
1, 295832, Control_c, 0, 64, 75
1, 295834, Note_off_c, 0, 54, 57
1, 295847, Control_c, 0, 64, 79
1, 295862, Note_off_c, 0, 48, 42
1, 295874, Note_off_c, 0, 50, 39
1, 295876, Note_off_c, 0, 45, 42
1, 295877, Control_c, 0, 64, 75
1, 295892, Control_c, 0, 64, 67
1, 295907, Control_c, 0, 64, 61
1, 295922, Control_c, 0, 64, 52
1, 295936, Control_c, 0, 64, 49
1, 295951, Control_c, 0, 64, 51
1, 295966, Control_c, 0, 64, 52
1, 295980, Control_c, 0, 64, 53
1, 295995, Control_c, 0, 64, 55
1, 295996, Note_on_c, 0, 54, 40
1, 296010, Control_c, 0, 64, 57
1, 296017, Note_on_c, 0, 50, 37
1, 296025, Control_c, 0, 64, 60
1, 296027, Note_on_c, 0, 48, 30
1, 296029, Note_on_c, 0, 45, 26
1, 296040, Control_c, 0, 64, 63
1, 296054, Control_c, 0, 64, 66
1, 296069, Control_c, 0, 64, 68
1, 296084, Control_c, 0, 64, 70
1, 296099, Control_c, 0, 64, 73
1, 296114, Control_c, 0, 64, 75
1, 296130, Control_c, 0, 64, 78
1, 296136, Note_off_c, 0, 48, 35
1, 296144, Control_c, 0, 64, 80
1, 296148, Note_off_c, 0, 45, 36
1, 296151, Note_off_c, 0, 54, 38
1, 296159, Control_c, 0, 64, 84
1, 296172, Note_off_c, 0, 50, 34
1, 296174, Control_c, 0, 64, 86
1, 296189, Control_c, 0, 64, 86
1, 296204, Control_c, 0, 64, 87
1, 296218, Control_c, 0, 64, 88
1, 296256, Control_c, 0, 64, 88
1, 296374, Control_c, 0, 64, 89
1, 296448, Control_c, 0, 64, 86
1, 296455, Note_on_c, 0, 45, 30
1, 296463, Note_on_c, 0, 54, 25
1, 296463, Control_c, 0, 64, 80
1, 296470, Note_on_c, 0, 50, 18
1, 296477, Control_c, 0, 64, 70
1, 296479, Note_on_c, 0, 75, 70
1, 296482, Note_on_c, 0, 48, 29
1, 296492, Control_c, 0, 64, 62
1, 296507, Control_c, 0, 64, 51
1, 296522, Control_c, 0, 64, 33
1, 296537, Control_c, 0, 64, 18
1, 296551, Control_c, 0, 64, 17
1, 296566, Control_c, 0, 64, 20
1, 296581, Control_c, 0, 64, 24
1, 296596, Control_c, 0, 64, 27
1, 296610, Control_c, 0, 64, 31
1, 296625, Control_c, 0, 64, 36
1, 296640, Control_c, 0, 64, 44
1, 296655, Control_c, 0, 64, 53
1, 296670, Control_c, 0, 64, 62
1, 296685, Control_c, 0, 64, 67
1, 296700, Control_c, 0, 64, 71
1, 296715, Control_c, 0, 64, 72
1, 296730, Control_c, 0, 64, 73
1, 296734, Note_off_c, 0, 66, 47
1, 296735, Note_off_c, 0, 54, 40
1, 296736, Note_off_c, 0, 48, 42
1, 296745, Control_c, 0, 64, 75
1, 296745, Note_off_c, 0, 50, 39
1, 296753, Note_off_c, 0, 45, 43
1, 296759, Control_c, 0, 64, 79
1, 296774, Control_c, 0, 64, 81
1, 296789, Control_c, 0, 64, 81
1, 296803, Control_c, 0, 64, 83
1, 296818, Control_c, 0, 64, 89
1, 296833, Control_c, 0, 64, 99
1, 296848, Control_c, 0, 64, 100
1, 296863, Control_c, 0, 64, 89
1, 296877, Control_c, 0, 64, 73
1, 296892, Control_c, 0, 64, 60
1, 296906, Note_on_c, 0, 45, 30
1, 296907, Control_c, 0, 64, 43
1, 296911, Note_on_c, 0, 54, 38
1, 296912, Note_on_c, 0, 50, 23
1, 296923, Control_c, 0, 64, 23
1, 296932, Note_on_c, 0, 48, 20
1, 296938, Control_c, 0, 64, 24
1, 296953, Control_c, 0, 64, 27
1, 296968, Control_c, 0, 64, 32
1, 296982, Control_c, 0, 64, 38
1, 296997, Control_c, 0, 64, 46
1, 297019, Control_c, 0, 64, 54
1, 297034, Control_c, 0, 64, 61
1, 297049, Control_c, 0, 64, 66
1, 297064, Control_c, 0, 64, 70
1, 297078, Control_c, 0, 64, 71
1, 297093, Control_c, 0, 64, 72
1, 297108, Control_c, 0, 64, 74
1, 297114, Note_off_c, 0, 45, 43
1, 297117, Note_off_c, 0, 48, 43
1, 297118, Note_off_c, 0, 54, 42
1, 297122, Note_off_c, 0, 50, 40
1, 297123, Control_c, 0, 64, 77
1, 297138, Control_c, 0, 64, 80
1, 297153, Control_c, 0, 64, 82
1, 297165, Note_off_c, 0, 75, 35
1, 297168, Control_c, 0, 64, 84
1, 297182, Control_c, 0, 64, 87
1, 297197, Control_c, 0, 64, 90
1, 297212, Control_c, 0, 64, 91
1, 297241, Control_c, 0, 64, 83
1, 297256, Control_c, 0, 64, 71
1, 297271, Control_c, 0, 64, 60
1, 297286, Control_c, 0, 64, 42
1, 297298, Note_on_c, 0, 75, 75
1, 297300, Control_c, 0, 64, 25
1, 297322, Note_on_c, 0, 54, 35
1, 297327, Note_on_c, 0, 45, 21
1, 297330, Control_c, 0, 64, 28
1, 297332, Note_on_c, 0, 50, 7
1, 297344, Note_on_c, 0, 48, 11
1, 297345, Control_c, 0, 64, 32
1, 297360, Control_c, 0, 64, 36
1, 297374, Control_c, 0, 64, 43
1, 297389, Control_c, 0, 64, 51
1, 297404, Control_c, 0, 64, 60
1, 297418, Control_c, 0, 64, 68
1, 297433, Control_c, 0, 64, 75
1, 297448, Control_c, 0, 64, 77
1, 297463, Control_c, 0, 64, 78
1, 297478, Control_c, 0, 64, 80
1, 297487, Note_off_c, 0, 45, 41
1, 297490, Note_off_c, 0, 48, 43
1, 297492, Note_off_c, 0, 54, 38
1, 297493, Control_c, 0, 64, 86
1, 297495, Note_off_c, 0, 50, 40
1, 297508, Control_c, 0, 64, 91
1, 297523, Control_c, 0, 64, 91
1, 297597, Control_c, 0, 64, 90
1, 297612, Control_c, 0, 64, 84
1, 297626, Control_c, 0, 64, 75
1, 297641, Control_c, 0, 64, 66
1, 297656, Control_c, 0, 64, 54
1, 297671, Control_c, 0, 64, 33
1, 297681, Note_on_c, 0, 54, 31
1, 297684, Note_on_c, 0, 77, 52
1, 297686, Control_c, 0, 64, 0
1, 297701, Note_on_c, 0, 45, 18
1, 297719, Poly_aftertouch_c, 0, 50, 127
1, 297721, Note_on_c, 0, 48, 9
1, 297722, Note_on_c, 0, 50, 3
1, 297761, Note_off_c, 0, 75, 58
1, 297827, Control_c, 0, 64, 23
1, 297842, Control_c, 0, 64, 32
1, 297856, Control_c, 0, 64, 41
1, 297871, Control_c, 0, 64, 49
1, 297877, Note_off_c, 0, 48, 43
1, 297880, Note_off_c, 0, 54, 45
1, 297883, Note_on_c, 0, 75, 60
1, 297885, Note_off_c, 0, 45, 39
1, 297886, Control_c, 0, 64, 56
1, 297888, Note_off_c, 0, 50, 40
1, 297901, Control_c, 0, 64, 60
1, 297916, Control_c, 0, 64, 63
1, 298000, Note_off_c, 0, 77, 31
1, 298005, Control_c, 0, 64, 61
1, 298020, Control_c, 0, 64, 55
1, 298035, Control_c, 0, 64, 41
1, 298049, Control_c, 0, 64, 0
1, 298055, Note_off_c, 0, 75, 50
1, 298073, Note_on_c, 0, 54, 38
1, 298080, Note_on_c, 0, 50, 17
1, 298089, Note_on_c, 0, 45, 29
1, 298093, Note_on_c, 0, 48, 29
1, 298197, Control_c, 0, 64, 27
1, 298212, Control_c, 0, 64, 39
1, 298227, Control_c, 0, 64, 52
1, 298241, Control_c, 0, 64, 61
1, 298256, Control_c, 0, 64, 67
1, 298271, Control_c, 0, 64, 69
1, 298286, Control_c, 0, 64, 70
1, 298296, Note_off_c, 0, 54, 42
1, 298297, Note_off_c, 0, 45, 45
1, 298301, Note_off_c, 0, 48, 42
1, 298301, Control_c, 0, 64, 72
1, 298314, Note_off_c, 0, 50, 39
1, 298316, Control_c, 0, 64, 78
1, 298330, Control_c, 0, 64, 96
1, 298345, Control_c, 0, 64, 109
1, 298360, Control_c, 0, 64, 114
1, 298390, Control_c, 0, 64, 106
1, 298405, Control_c, 0, 64, 88
1, 298420, Control_c, 0, 64, 72
1, 298429, Note_on_c, 0, 74, 69
1, 298435, Control_c, 0, 64, 63
1, 298442, Note_on_c, 0, 54, 33
1, 298444, Note_on_c, 0, 45, 30
1, 298447, Note_on_c, 0, 48, 30
1, 298449, Control_c, 0, 64, 57
1, 298455, Note_on_c, 0, 50, 31
1, 298464, Control_c, 0, 64, 54
1, 298479, Control_c, 0, 64, 56
1, 298501, Control_c, 0, 64, 58
1, 298516, Control_c, 0, 64, 59
1, 298532, Control_c, 0, 64, 60
1, 298547, Control_c, 0, 64, 62
1, 298561, Control_c, 0, 64, 65
1, 298576, Control_c, 0, 64, 68
1, 298591, Control_c, 0, 64, 72
1, 298598, Note_off_c, 0, 45, 41
1, 298606, Control_c, 0, 64, 74
1, 298607, Note_off_c, 0, 54, 39
1, 298617, Note_off_c, 0, 48, 44
1, 298621, Control_c, 0, 64, 75
1, 298623, Note_off_c, 0, 50, 40
1, 298635, Control_c, 0, 64, 75
1, 298650, Control_c, 0, 64, 77
1, 298665, Control_c, 0, 64, 78
1, 298679, Control_c, 0, 64, 81
1, 298694, Control_c, 0, 64, 82
1, 298769, Control_c, 0, 64, 80
1, 298784, Control_c, 0, 64, 74
1, 298798, Control_c, 0, 64, 65
1, 298813, Control_c, 0, 64, 53
1, 298817, Note_off_c, 0, 74, 59
1, 298828, Control_c, 0, 64, 33
1, 298843, Control_c, 0, 64, 0
1, 298847, Note_on_c, 0, 45, 30
1, 298849, Note_on_c, 0, 75, 59
1, 298857, Note_on_c, 0, 54, 25
1, 298871, Note_on_c, 0, 48, 12
1, 298885, Poly_aftertouch_c, 0, 50, 127
1, 298976, Control_c, 0, 64, 18
1, 298991, Control_c, 0, 64, 27
1, 299005, Control_c, 0, 64, 34
1, 299020, Control_c, 0, 64, 40
1, 299035, Control_c, 0, 64, 47
1, 299050, Control_c, 0, 64, 54
1, 299058, Note_off_c, 0, 48, 43
1, 299061, Poly_aftertouch_c, 0, 50, 0
1, 299064, Note_on_c, 0, 74, 58
1, 299064, Control_c, 0, 64, 61
1, 299079, Control_c, 0, 64, 64
1, 299094, Control_c, 0, 64, 66
1, 299095, Note_off_c, 0, 75, 32
1, 299096, Note_off_c, 0, 45, 44
1, 299109, Control_c, 0, 64, 67
1, 299124, Control_c, 0, 64, 69
1, 299138, Control_c, 0, 64, 74
1, 299153, Control_c, 0, 64, 80
1, 299168, Control_c, 0, 64, 83
1, 299186, Note_off_c, 0, 74, 59
1, 299213, Control_c, 0, 64, 84
1, 299219, Note_off_c, 0, 54, 40
1, 299228, Control_c, 0, 64, 88
1, 299243, Control_c, 0, 64, 92
1, 299265, Control_c, 0, 64, 93
1, 299369, Control_c, 0, 64, 89
1, 299384, Control_c, 0, 64, 81
1, 299399, Control_c, 0, 64, 72
1, 299409, Note_on_c, 0, 74, 65
1, 299414, Note_on_c, 0, 46, 36
1, 299414, Control_c, 0, 64, 63
1, 299415, Note_on_c, 0, 55, 34
1, 299418, Note_on_c, 0, 50, 32
1, 299428, Control_c, 0, 64, 51
1, 299443, Control_c, 0, 64, 28
1, 299458, Control_c, 0, 64, 0
1, 299681, Control_c, 0, 64, 19
1, 299695, Control_c, 0, 64, 30
1, 299710, Control_c, 0, 64, 40
1, 299725, Control_c, 0, 64, 52
1, 299740, Control_c, 0, 64, 61
1, 299755, Control_c, 0, 64, 67
1, 299769, Control_c, 0, 64, 68
1, 299784, Control_c, 0, 64, 69
1, 299792, Note_off_c, 0, 55, 42
1, 299795, Note_off_c, 0, 50, 39
1, 299796, Note_off_c, 0, 46, 43
1, 299799, Control_c, 0, 64, 73
1, 299814, Control_c, 0, 64, 80
1, 299828, Control_c, 0, 64, 88
1, 299843, Control_c, 0, 64, 91
1, 299858, Control_c, 0, 64, 93
1, 299873, Control_c, 0, 64, 95
1, 299888, Control_c, 0, 64, 102
1, 299902, Control_c, 0, 64, 110
1, 299917, Control_c, 0, 64, 119
1, 299932, Control_c, 0, 64, 127
1, 299938, Note_on_c, 0, 46, 33
1, 299950, Note_on_c, 0, 55, 25
1, 299959, Note_on_c, 0, 50, 29
1, 300110, Note_off_c, 0, 46, 37
1, 300117, Note_off_c, 0, 50, 42
1, 300124, Note_off_c, 0, 55, 45
1, 300422, Note_on_c, 0, 46, 38
1, 300422, Note_on_c, 0, 55, 31
1, 300465, Note_on_c, 0, 79, 71
1, 300492, Poly_aftertouch_c, 0, 50, 127
1, 300607, Poly_aftertouch_c, 0, 50, 0
1, 300623, Note_off_c, 0, 55, 42
1, 300630, Note_off_c, 0, 46, 36
1, 300788, Note_off_c, 0, 74, 58
1, 300822, Control_c, 0, 64, 67
1, 300837, Control_c, 0, 64, 47
1, 300848, Note_on_c, 0, 55, 37
1, 300850, Note_on_c, 0, 47, 36
1, 300851, Control_c, 0, 64, 0
1, 300853, Note_on_c, 0, 50, 29
1, 300955, Control_c, 0, 64, 19
1, 300970, Control_c, 0, 64, 29
1, 300985, Control_c, 0, 64, 39
1, 300999, Control_c, 0, 64, 50
1, 301014, Control_c, 0, 64, 61
1, 301029, Control_c, 0, 64, 67
1, 301031, Note_off_c, 0, 79, 58
1, 301044, Control_c, 0, 64, 69
1, 301073, Control_c, 0, 64, 70
1, 301088, Control_c, 0, 64, 72
1, 301097, Note_off_c, 0, 55, 42
1, 301101, Note_off_c, 0, 47, 42
1, 301101, Note_off_c, 0, 50, 41
1, 301103, Control_c, 0, 64, 78
1, 301118, Control_c, 0, 64, 87
1, 301133, Control_c, 0, 64, 100
1, 301147, Control_c, 0, 64, 127
1, 301207, Control_c, 0, 64, 104
1, 301222, Control_c, 0, 64, 78
1, 301237, Control_c, 0, 64, 67
1, 301248, Note_on_c, 0, 47, 38
1, 301252, Control_c, 0, 64, 64
1, 301255, Note_on_c, 0, 50, 34
1, 301257, Note_on_c, 0, 79, 77
1, 301264, Note_on_c, 0, 55, 23
1, 301281, Control_c, 0, 64, 65
1, 301296, Control_c, 0, 64, 67
1, 301311, Control_c, 0, 64, 68
1, 301326, Control_c, 0, 64, 69
1, 301340, Control_c, 0, 64, 71
1, 301355, Control_c, 0, 64, 76
1, 301370, Control_c, 0, 64, 85
1, 301385, Control_c, 0, 64, 97
1, 301399, Control_c, 0, 64, 109
1, 301413, Note_off_c, 0, 50, 49
1, 301414, Control_c, 0, 64, 127
1, 301444, Note_off_c, 0, 55, 41
1, 301446, Note_off_c, 0, 47, 41
1, 301526, Control_c, 0, 64, 100
1, 301541, Control_c, 0, 64, 73
1, 301555, Control_c, 0, 64, 64
1, 301570, Control_c, 0, 64, 63
1, 301585, Control_c, 0, 64, 65
1, 301599, Control_c, 0, 64, 67
1, 301614, Control_c, 0, 64, 69
1, 301628, Control_c, 0, 64, 72
1, 301630, Note_on_c, 0, 77, 67
1, 301643, Control_c, 0, 64, 79
1, 301645, Note_on_c, 0, 55, 26
1, 301653, Note_on_c, 0, 47, 34
1, 301654, Note_on_c, 0, 50, 28
1, 301658, Control_c, 0, 64, 92
1, 301672, Control_c, 0, 64, 110
1, 301687, Control_c, 0, 64, 127
1, 301723, Note_off_c, 0, 47, 57
1, 301729, Note_off_c, 0, 50, 40
1, 301782, Note_off_c, 0, 55, 42
1, 301839, Note_off_c, 0, 79, 56
1, 301955, Control_c, 0, 64, 102
1, 301960, Note_off_c, 0, 77, 57
1, 301970, Control_c, 0, 64, 67
1, 301985, Control_c, 0, 64, 48
1, 301987, Note_on_c, 0, 51, 53
1, 301991, Note_on_c, 0, 55, 56
1, 302000, Control_c, 0, 64, 0
1, 302000, Note_on_c, 0, 48, 44
1, 302118, Control_c, 0, 64, 21
1, 302133, Control_c, 0, 64, 33
1, 302148, Control_c, 0, 64, 45
1, 302162, Control_c, 0, 64, 56
1, 302177, Control_c, 0, 64, 64
1, 302192, Control_c, 0, 64, 71
1, 302206, Control_c, 0, 64, 74
1, 302244, Control_c, 0, 64, 75
1, 302252, Note_off_c, 0, 51, 56
1, 302257, Note_off_c, 0, 55, 59
1, 302259, Control_c, 0, 64, 81
1, 302260, Note_off_c, 0, 48, 0
1, 302274, Control_c, 0, 64, 93
1, 302288, Control_c, 0, 64, 107
1, 302289, Poly_aftertouch_c, 0, 48, 0
1, 302303, Control_c, 0, 64, 127
1, 302378, Control_c, 0, 64, 85
1, 302393, Control_c, 0, 64, 67
1, 302397, Note_on_c, 0, 77, 73
1, 302407, Note_on_c, 0, 55, 46
1, 302408, Control_c, 0, 64, 57
1, 302420, Note_on_c, 0, 51, 41
1, 302422, Control_c, 0, 64, 51
1, 302426, Note_on_c, 0, 48, 39
1, 302437, Control_c, 0, 64, 53
1, 302452, Control_c, 0, 64, 56
1, 302467, Control_c, 0, 64, 59
1, 302482, Control_c, 0, 64, 62
1, 302496, Control_c, 0, 64, 64
1, 302511, Control_c, 0, 64, 66
1, 302527, Control_c, 0, 64, 69
1, 302542, Control_c, 0, 64, 74
1, 302557, Control_c, 0, 64, 83
1, 302572, Control_c, 0, 64, 100
1, 302587, Control_c, 0, 64, 127
1, 302590, Note_off_c, 0, 51, 44
1, 302603, Note_off_c, 0, 55, 54
1, 302626, Note_off_c, 0, 48, 45
1, 302660, Control_c, 0, 64, 119
1, 302675, Control_c, 0, 64, 79
1, 302690, Control_c, 0, 64, 64
1, 302705, Control_c, 0, 64, 52
1, 302719, Control_c, 0, 64, 37
1, 302734, Control_c, 0, 64, 34
1, 302763, Control_c, 0, 64, 34
1, 302765, Note_on_c, 0, 48, 32
1, 302766, Note_on_c, 0, 55, 34
1, 302767, Note_on_c, 0, 75, 63
1, 302778, Control_c, 0, 64, 36
1, 302781, Note_on_c, 0, 51, 28
1, 302793, Control_c, 0, 64, 41
1, 302808, Control_c, 0, 64, 47
1, 302823, Control_c, 0, 64, 56
1, 302838, Control_c, 0, 64, 63
1, 302852, Control_c, 0, 64, 67
1, 302860, Note_off_c, 0, 77, 57
1, 302867, Control_c, 0, 64, 75
1, 302882, Control_c, 0, 64, 79
1, 302889, Note_off_c, 0, 55, 54
1, 302897, Control_c, 0, 64, 82
1, 302912, Control_c, 0, 64, 90
1, 302925, Note_off_c, 0, 51, 37
1, 302927, Control_c, 0, 64, 100
1, 302939, Note_off_c, 0, 48, 41
1, 302942, Control_c, 0, 64, 108
1, 302956, Control_c, 0, 64, 109
1, 302971, Control_c, 0, 64, 111
1, 302993, Control_c, 0, 64, 119
1, 302997, Note_off_c, 0, 75, 61
1, 303008, Control_c, 0, 64, 127
1, 303097, Control_c, 0, 64, 93
1, 303112, Control_c, 0, 64, 70
1, 303127, Control_c, 0, 64, 58
1, 303138, Note_on_c, 0, 60, 56
1, 303142, Control_c, 0, 64, 39
1, 303143, Note_on_c, 0, 55, 39
1, 303155, Note_on_c, 0, 51, 32
1, 303156, Control_c, 0, 64, 0
1, 303245, Control_c, 0, 64, 20
1, 303260, Control_c, 0, 64, 29
1, 303275, Control_c, 0, 64, 38
1, 303290, Control_c, 0, 64, 47
1, 303305, Control_c, 0, 64, 58
1, 303320, Control_c, 0, 64, 64
1, 303335, Control_c, 0, 64, 67
1, 303365, Control_c, 0, 64, 68
1, 303374, Note_off_c, 0, 60, 60
1, 303380, Control_c, 0, 64, 69
1, 303394, Control_c, 0, 64, 73
1, 303395, Note_off_c, 0, 51, 36
1, 303395, Note_off_c, 0, 55, 45
1, 303409, Control_c, 0, 64, 80
1, 303424, Control_c, 0, 64, 84
1, 303439, Control_c, 0, 64, 86
1, 303454, Control_c, 0, 64, 91
1, 303468, Control_c, 0, 64, 97
1, 303483, Control_c, 0, 64, 98
1, 303498, Control_c, 0, 64, 93
1, 303513, Control_c, 0, 64, 80
1, 303528, Control_c, 0, 64, 68
1, 303542, Control_c, 0, 64, 60
1, 303547, Note_on_c, 0, 51, 32
1, 303557, Control_c, 0, 64, 51
1, 303559, Note_on_c, 0, 60, 31
1, 303565, Note_on_c, 0, 74, 59
1, 303569, Note_on_c, 0, 55, 32
1, 303572, Control_c, 0, 64, 48
1, 303586, Control_c, 0, 64, 50
1, 303601, Control_c, 0, 64, 52
1, 303616, Control_c, 0, 64, 54
1, 303631, Control_c, 0, 64, 56
1, 303646, Control_c, 0, 64, 58
1, 303660, Control_c, 0, 64, 61
1, 303675, Control_c, 0, 64, 64
1, 303690, Control_c, 0, 64, 66
1, 303705, Control_c, 0, 64, 70
1, 303720, Control_c, 0, 64, 74
1, 303742, Control_c, 0, 64, 76
1, 303757, Control_c, 0, 64, 77
1, 303762, Note_off_c, 0, 60, 50
1, 303772, Control_c, 0, 64, 78
1, 303782, Note_off_c, 0, 55, 44
1, 303785, Note_off_c, 0, 51, 42
1, 303786, Control_c, 0, 64, 80
1, 303801, Control_c, 0, 64, 82
1, 303816, Control_c, 0, 64, 82
1, 303831, Control_c, 0, 64, 83
1, 303860, Control_c, 0, 64, 83
1, 303875, Control_c, 0, 64, 86
1, 303890, Control_c, 0, 64, 87
1, 303935, Control_c, 0, 64, 86
1, 303949, Control_c, 0, 64, 81
1, 303964, Control_c, 0, 64, 71
1, 303979, Control_c, 0, 64, 62
1, 303994, Control_c, 0, 64, 48
1, 303998, Note_on_c, 0, 51, 35
1, 303999, Note_on_c, 0, 60, 40
1, 304000, Note_on_c, 0, 72, 52
1, 304009, Control_c, 0, 64, 26
1, 304022, Note_on_c, 0, 55, 19
1, 304024, Control_c, 0, 64, 15
1, 304039, Control_c, 0, 64, 16
1, 304054, Control_c, 0, 64, 19
1, 304065, Note_off_c, 0, 74, 51
1, 304068, Control_c, 0, 64, 23
1, 304083, Control_c, 0, 64, 26
1, 304098, Control_c, 0, 64, 31
1, 304113, Control_c, 0, 64, 36
1, 304128, Control_c, 0, 64, 44
1, 304143, Control_c, 0, 64, 54
1, 304158, Control_c, 0, 64, 62
1, 304173, Control_c, 0, 64, 66
1, 304188, Control_c, 0, 64, 66
1, 304217, Control_c, 0, 64, 69
1, 304230, Note_off_c, 0, 60, 45
1, 304232, Control_c, 0, 64, 75
1, 304247, Control_c, 0, 64, 84
1, 304262, Control_c, 0, 64, 86
1, 304263, Note_off_c, 0, 72, 34
1, 304277, Note_off_c, 0, 55, 40
1, 304306, Control_c, 0, 64, 87
1, 304321, Control_c, 0, 64, 92
1, 304336, Control_c, 0, 64, 97
1, 304351, Control_c, 0, 64, 97
1, 304438, Note_off_c, 0, 51, 36
1, 304491, Control_c, 0, 64, 97
1, 304506, Control_c, 0, 64, 95
1, 304521, Control_c, 0, 64, 92
1, 304536, Control_c, 0, 64, 88
1, 304551, Control_c, 0, 64, 81
1, 304565, Control_c, 0, 64, 75
1, 304580, Control_c, 0, 64, 71
1, 304584, Note_on_c, 0, 55, 28
1, 304587, Note_on_c, 0, 72, 55
1, 304595, Control_c, 0, 64, 66
1, 304604, Note_on_c, 0, 50, 30
1, 304610, Note_on_c, 0, 58, 26
1, 304610, Control_c, 0, 64, 62
1, 304624, Control_c, 0, 64, 57
1, 304639, Control_c, 0, 64, 48
1, 304654, Control_c, 0, 64, 37
1, 304669, Control_c, 0, 64, 24
1, 304684, Control_c, 0, 64, 11
1, 304698, Control_c, 0, 64, 0
1, 304772, Control_c, 0, 64, 12
1, 304787, Control_c, 0, 64, 17
1, 304802, Control_c, 0, 64, 21
1, 304817, Control_c, 0, 64, 26
1, 304832, Control_c, 0, 64, 31
1, 304847, Control_c, 0, 64, 36
1, 304862, Control_c, 0, 64, 43
1, 304876, Control_c, 0, 64, 51
1, 304889, Note_off_c, 0, 55, 40
1, 304889, Note_off_c, 0, 58, 41
1, 304891, Control_c, 0, 64, 58
1, 304906, Control_c, 0, 64, 62
1, 304921, Control_c, 0, 64, 64
1, 304936, Control_c, 0, 64, 64
1, 304940, Note_off_c, 0, 50, 34
1, 304951, Control_c, 0, 64, 65
1, 304966, Control_c, 0, 64, 66
1, 304981, Control_c, 0, 64, 69
1, 304996, Control_c, 0, 64, 72
1, 305011, Control_c, 0, 64, 73
1, 305040, Control_c, 0, 64, 74
1, 305055, Control_c, 0, 64, 76
1, 305070, Control_c, 0, 64, 82
1, 305085, Control_c, 0, 64, 84
1, 305114, Control_c, 0, 64, 80
1, 305129, Control_c, 0, 64, 73
1, 305144, Control_c, 0, 64, 65
1, 305158, Control_c, 0, 64, 56
1, 305162, Note_on_c, 0, 50, 30
1, 305163, Note_on_c, 0, 55, 32
1, 305167, Note_on_c, 0, 58, 34
1, 305169, Note_on_c, 0, 70, 52
1, 305173, Control_c, 0, 64, 42
1, 305188, Control_c, 0, 64, 30
1, 305203, Control_c, 0, 64, 31
1, 305218, Control_c, 0, 64, 34
1, 305240, Control_c, 0, 64, 38
1, 305255, Control_c, 0, 64, 42
1, 305270, Control_c, 0, 64, 47
1, 305285, Control_c, 0, 64, 52
1, 305300, Control_c, 0, 64, 58
1, 305314, Control_c, 0, 64, 63
1, 305329, Note_off_c, 0, 72, 59
1, 305329, Control_c, 0, 64, 65
1, 305344, Control_c, 0, 64, 67
1, 305359, Control_c, 0, 64, 68
1, 305373, Control_c, 0, 64, 69
1, 305388, Control_c, 0, 64, 70
1, 305403, Control_c, 0, 64, 72
1, 305410, Note_off_c, 0, 58, 40
1, 305418, Control_c, 0, 64, 74
1, 305424, Note_off_c, 0, 50, 40
1, 305428, Note_off_c, 0, 55, 43
1, 305462, Control_c, 0, 64, 74
1, 305477, Control_c, 0, 64, 76
1, 305492, Control_c, 0, 64, 80
1, 305507, Control_c, 0, 64, 82
1, 305551, Control_c, 0, 64, 78
1, 305565, Control_c, 0, 64, 71
1, 305580, Control_c, 0, 64, 63
1, 305595, Control_c, 0, 64, 51
1, 305604, Note_on_c, 0, 55, 28
1, 305610, Note_on_c, 0, 58, 23
1, 305610, Control_c, 0, 64, 36
1, 305625, Control_c, 0, 64, 24
1, 305634, Note_on_c, 0, 50, 16
1, 305634, Note_on_c, 0, 72, 46
1, 305669, Control_c, 0, 64, 24
1, 305684, Control_c, 0, 64, 26
1, 305699, Control_c, 0, 64, 27
1, 305715, Control_c, 0, 64, 30
1, 305724, Note_off_c, 0, 70, 58
1, 305729, Control_c, 0, 64, 33
1, 305744, Control_c, 0, 64, 37
1, 305759, Control_c, 0, 64, 43
1, 305774, Control_c, 0, 64, 48
1, 305789, Control_c, 0, 64, 53
1, 305804, Control_c, 0, 64, 56
1, 305804, Note_off_c, 0, 58, 40
1, 305818, Control_c, 0, 64, 59
1, 305820, Note_off_c, 0, 50, 39
1, 305820, Note_off_c, 0, 55, 45
1, 305827, Note_on_c, 0, 74, 48
1, 305833, Control_c, 0, 64, 61
1, 305848, Control_c, 0, 64, 62
1, 305863, Control_c, 0, 64, 63
1, 305866, Note_off_c, 0, 72, 35
1, 305878, Control_c, 0, 64, 67
1, 305893, Control_c, 0, 64, 72
1, 305908, Control_c, 0, 64, 73
1, 305923, Control_c, 0, 64, 72
1, 305937, Control_c, 0, 64, 68
1, 305952, Control_c, 0, 64, 63
1, 305967, Control_c, 0, 64, 52
1, 305988, Control_c, 0, 64, 35
1, 305997, Note_on_c, 0, 55, 29
1, 306003, Control_c, 0, 64, 8
1, 306017, Note_on_c, 0, 58, 39
1, 306018, Control_c, 0, 64, 0
1, 306020, Note_on_c, 0, 50, 16
1, 306048, Control_c, 0, 64, 14
1, 306063, Control_c, 0, 64, 19
1, 306078, Control_c, 0, 64, 23
1, 306093, Control_c, 0, 64, 27
1, 306108, Control_c, 0, 64, 32
1, 306115, Note_off_c, 0, 74, 41
1, 306122, Control_c, 0, 64, 39
1, 306137, Control_c, 0, 64, 48
1, 306152, Control_c, 0, 64, 57
1, 306161, Note_off_c, 0, 58, 59
1, 306167, Control_c, 0, 64, 62
1, 306182, Control_c, 0, 64, 63
1, 306188, Note_off_c, 0, 55, 47
1, 306191, Note_off_c, 0, 50, 40
1, 306226, Control_c, 0, 64, 65
1, 306241, Control_c, 0, 64, 69
1, 306256, Control_c, 0, 64, 76
1, 306270, Control_c, 0, 64, 79
1, 306344, Control_c, 0, 64, 77
1, 306359, Control_c, 0, 64, 71
1, 306374, Control_c, 0, 64, 64
1, 306388, Control_c, 0, 64, 55
1, 306403, Control_c, 0, 64, 41
1, 306418, Control_c, 0, 64, 34
1, 306426, Note_on_c, 0, 58, 25
1, 306432, Note_on_c, 0, 55, 19
1, 306432, Note_on_c, 0, 74, 49
1, 306433, Control_c, 0, 64, 34
1, 306442, Note_on_c, 0, 50, 20
1, 306448, Control_c, 0, 64, 36
1, 306462, Control_c, 0, 64, 37
1, 306477, Control_c, 0, 64, 40
1, 306492, Control_c, 0, 64, 42
1, 306508, Control_c, 0, 64, 46
1, 306523, Control_c, 0, 64, 50
1, 306538, Control_c, 0, 64, 55
1, 306552, Control_c, 0, 64, 60
1, 306567, Control_c, 0, 64, 63
1, 306582, Control_c, 0, 64, 64
1, 306611, Control_c, 0, 64, 65
1, 306624, Note_off_c, 0, 58, 41
1, 306626, Note_off_c, 0, 50, 41
1, 306626, Note_off_c, 0, 55, 42
1, 306626, Control_c, 0, 64, 66
1, 306641, Control_c, 0, 64, 71
1, 306656, Control_c, 0, 64, 77
1, 306671, Control_c, 0, 64, 82
1, 306686, Control_c, 0, 64, 84
1, 306716, Control_c, 0, 64, 83
1, 306738, Control_c, 0, 64, 78
1, 306753, Control_c, 0, 64, 71
1, 306767, Control_c, 0, 64, 63
1, 306782, Control_c, 0, 64, 56
1, 306795, Note_on_c, 0, 55, 31
1, 306797, Control_c, 0, 64, 49
1, 306801, Note_on_c, 0, 58, 21
1, 306802, Note_on_c, 0, 72, 54
1, 306813, Note_on_c, 0, 50, 11
1, 306826, Control_c, 0, 64, 51
1, 306841, Control_c, 0, 64, 53
1, 306856, Control_c, 0, 64, 54
1, 306871, Control_c, 0, 64, 56
1, 306886, Control_c, 0, 64, 59
1, 306901, Control_c, 0, 64, 62
1, 306915, Control_c, 0, 64, 64
1, 306930, Control_c, 0, 64, 65
1, 306945, Control_c, 0, 64, 66
1, 306952, Note_off_c, 0, 58, 43
1, 306957, Note_off_c, 0, 50, 40
1, 306960, Control_c, 0, 64, 67
1, 306965, Note_off_c, 0, 55, 44
1, 306975, Control_c, 0, 64, 69
1, 306984, Note_on_c, 0, 70, 60
1, 306990, Control_c, 0, 64, 71
1, 307005, Control_c, 0, 64, 74
1, 307019, Control_c, 0, 64, 75
1, 307064, Control_c, 0, 64, 76
1, 307079, Control_c, 0, 64, 78
1, 307093, Control_c, 0, 64, 80
1, 307109, Note_off_c, 0, 70, 52
1, 307197, Control_c, 0, 64, 79
1, 307211, Control_c, 0, 64, 78
1, 307214, Note_off_c, 0, 72, 36
1, 307226, Control_c, 0, 64, 72
1, 307241, Control_c, 0, 64, 64
1, 307256, Control_c, 0, 64, 51
1, 307268, Note_on_c, 0, 70, 49
1, 307271, Control_c, 0, 64, 20
1, 307275, Note_on_c, 0, 55, 32
1, 307279, Note_on_c, 0, 58, 24
1, 307285, Control_c, 0, 64, 0
1, 307287, Note_on_c, 0, 50, 31
1, 307420, Control_c, 0, 64, 9
1, 307434, Control_c, 0, 64, 24
1, 307442, Note_off_c, 0, 74, 61
1, 307449, Control_c, 0, 64, 33
1, 307464, Control_c, 0, 64, 41
1, 307487, Control_c, 0, 64, 50
1, 307502, Control_c, 0, 64, 58
1, 307516, Control_c, 0, 64, 61
1, 307530, Note_off_c, 0, 50, 40
1, 307531, Control_c, 0, 64, 62
1, 307536, Note_off_c, 0, 58, 41
1, 307538, Note_off_c, 0, 55, 46
1, 307546, Control_c, 0, 64, 63
1, 307560, Control_c, 0, 64, 64
1, 307575, Control_c, 0, 64, 68
1, 307590, Control_c, 0, 64, 74
1, 307605, Control_c, 0, 64, 81
1, 307620, Control_c, 0, 64, 83
1, 307649, Control_c, 0, 64, 82
1, 307664, Control_c, 0, 64, 77
1, 307679, Control_c, 0, 64, 71
1, 307694, Control_c, 0, 64, 65
1, 307707, Note_on_c, 0, 55, 25
1, 307708, Control_c, 0, 64, 61
1, 307723, Note_on_c, 0, 58, 21
1, 307723, Control_c, 0, 64, 57
1, 307727, Note_on_c, 0, 50, 23
1, 307738, Control_c, 0, 64, 55
1, 307753, Control_c, 0, 64, 57
1, 307768, Control_c, 0, 64, 59
1, 307783, Control_c, 0, 64, 60
1, 307798, Control_c, 0, 64, 60
1, 307827, Control_c, 0, 64, 61
1, 307842, Control_c, 0, 64, 62
1, 307857, Control_c, 0, 64, 63
1, 307872, Note_off_c, 0, 58, 41
1, 307872, Control_c, 0, 64, 65
1, 307873, Note_off_c, 0, 55, 45
1, 307887, Control_c, 0, 64, 66
1, 307890, Note_off_c, 0, 50, 39
1, 307916, Control_c, 0, 64, 67
1, 307931, Control_c, 0, 64, 67
1, 307946, Control_c, 0, 64, 69
1, 307960, Control_c, 0, 64, 72
1, 307975, Control_c, 0, 64, 74
1, 307990, Control_c, 0, 64, 75
1, 308020, Control_c, 0, 64, 75
1, 308034, Control_c, 0, 64, 76
1, 308049, Control_c, 0, 64, 78
1, 308064, Control_c, 0, 64, 80
1, 308086, Note_on_c, 0, 58, 42
1, 308093, Control_c, 0, 64, 80
1, 308107, Note_on_c, 0, 55, 29
1, 308108, Note_on_c, 0, 50, 23
1, 308110, Control_c, 0, 64, 81
1, 308125, Control_c, 0, 64, 82
1, 308139, Control_c, 0, 64, 84
1, 308154, Control_c, 0, 64, 86
1, 308169, Control_c, 0, 64, 88
1, 308183, Control_c, 0, 64, 89
1, 308193, Note_off_c, 0, 50, 36
1, 308206, Note_off_c, 0, 55, 34
1, 308209, Note_off_c, 0, 58, 36
1, 308236, Control_c, 0, 64, 90
1, 308251, Control_c, 0, 64, 91
1, 308265, Control_c, 0, 64, 92
1, 308280, Control_c, 0, 64, 92
1, 308457, Control_c, 0, 64, 90
1, 308472, Control_c, 0, 64, 86
1, 308487, Control_c, 0, 64, 79
1, 308492, Note_on_c, 0, 69, 47
1, 308501, Note_on_c, 0, 57, 20
1, 308502, Control_c, 0, 64, 71
1, 308511, Note_on_c, 0, 50, 23
1, 308517, Control_c, 0, 64, 63
1, 308531, Control_c, 0, 64, 50
1, 308534, Note_on_c, 0, 54, 26
1, 308546, Control_c, 0, 64, 0
1, 308557, Note_off_c, 0, 70, 51
1, 308665, Control_c, 0, 64, 11
1, 308680, Control_c, 0, 64, 25
1, 308695, Control_c, 0, 64, 36
1, 308709, Control_c, 0, 64, 45
1, 308724, Control_c, 0, 64, 55
1, 308739, Control_c, 0, 64, 63
1, 308743, Note_off_c, 0, 54, 43
1, 308748, Note_off_c, 0, 50, 39
1, 308754, Control_c, 0, 64, 66
1, 308757, Note_off_c, 0, 57, 39
1, 308769, Control_c, 0, 64, 67
1, 308783, Control_c, 0, 64, 69
1, 308798, Control_c, 0, 64, 72
1, 308813, Control_c, 0, 64, 76
1, 308828, Control_c, 0, 64, 81
1, 308843, Control_c, 0, 64, 84
1, 308857, Control_c, 0, 64, 86
1, 308872, Control_c, 0, 64, 88
1, 308887, Control_c, 0, 64, 90
1, 308900, Note_on_c, 0, 57, 27
1, 308903, Control_c, 0, 64, 95
1, 308915, Note_on_c, 0, 50, 28
1, 308918, Control_c, 0, 64, 98
1, 308933, Control_c, 0, 64, 100
1, 308939, Poly_aftertouch_c, 0, 54, 127
1, 308943, Note_on_c, 0, 54, 3
1, 308948, Control_c, 0, 64, 100
1, 308962, Control_c, 0, 64, 101
1, 308984, Control_c, 0, 64, 105
1, 308999, Control_c, 0, 64, 110
1, 309014, Control_c, 0, 64, 117
1, 309017, Note_off_c, 0, 54, 38
1, 309029, Control_c, 0, 64, 119
1, 309059, Control_c, 0, 64, 122
1, 309065, Note_off_c, 0, 57, 40
1, 309074, Control_c, 0, 64, 127
1, 309088, Note_off_c, 0, 50, 39
1, 309321, Note_on_c, 0, 57, 26
1, 309331, Note_on_c, 0, 50, 26
1, 309352, Note_on_c, 0, 54, 27
1, 309501, Note_off_c, 0, 54, 40
1, 309506, Note_off_c, 0, 50, 38
1, 309540, Note_off_c, 0, 57, 40
1, 309972, Note_off_c, 0, 69, 38
1, 309985, Note_on_c, 0, 43, 20
1, 309985, Control_c, 0, 64, 103
1, 310000, Control_c, 0, 64, 87
1, 310003, Note_on_c, 0, 70, 41
1, 310011, Note_on_c, 0, 50, 13
1, 310015, Control_c, 0, 64, 74
1, 310024, Poly_aftertouch_c, 0, 55, 127
1, 310029, Control_c, 0, 64, 64
1, 310031, Note_on_c, 0, 55, 3
1, 310044, Control_c, 0, 64, 54
1, 310045, Note_on_c, 0, 46, 21
1, 310059, Control_c, 0, 64, 29
1, 310074, Control_c, 0, 64, 0
1, 310207, Control_c, 0, 64, 19
1, 310222, Control_c, 0, 64, 32
1, 310236, Control_c, 0, 64, 43
1, 310251, Control_c, 0, 64, 55
1, 310266, Control_c, 0, 64, 64
1, 310281, Control_c, 0, 64, 71
1, 310296, Control_c, 0, 64, 74
1, 310311, Control_c, 0, 64, 77
1, 310326, Control_c, 0, 64, 83
1, 310340, Control_c, 0, 64, 92
1, 310351, Note_off_c, 0, 55, 44
1, 310355, Control_c, 0, 64, 100
1, 310366, Note_off_c, 0, 46, 39
1, 310370, Control_c, 0, 64, 110
1, 310385, Control_c, 0, 64, 127
1, 310400, Note_off_c, 0, 50, 40
1, 310454, Note_off_c, 0, 43, 37
1, 310628, Note_on_c, 0, 50, 35
1, 310648, Note_on_c, 0, 43, 13
1, 310683, Poly_aftertouch_c, 0, 46, 127
1, 310747, Note_off_c, 0, 50, 27
1, 310801, Poly_aftertouch_c, 0, 46, 0
1, 310837, Note_off_c, 0, 43, 41
1, 311008, Note_on_c, 0, 50, 40
1, 311014, Note_on_c, 0, 43, 26
1, 311018, Note_on_c, 0, 46, 27
1, 311090, Note_off_c, 0, 46, 39
1, 311107, Note_off_c, 0, 50, 47
1, 311148, Control_c, 0, 67, 125
1, 311163, Control_c, 0, 67, 120
1, 311167, Note_off_c, 0, 43, 40
1, 311178, Control_c, 0, 67, 115
1, 311193, Control_c, 0, 67, 112
1, 311208, Control_c, 0, 67, 109
1, 311230, Control_c, 0, 67, 108
1, 311259, Control_c, 0, 67, 108
1, 311274, Control_c, 0, 67, 109
1, 311289, Control_c, 0, 67, 110
1, 311305, Control_c, 0, 67, 111
1, 311320, Control_c, 0, 67, 113
1, 311334, Control_c, 0, 64, 97
1, 311334, Control_c, 0, 67, 114
1, 311349, Control_c, 0, 64, 67
1, 311349, Control_c, 0, 67, 115
1, 311363, Note_on_c, 0, 51, 50
1, 311364, Control_c, 0, 64, 51
1, 311364, Control_c, 0, 67, 116
1, 311379, Control_c, 0, 64, 16
1, 311379, Control_c, 0, 67, 116
1, 311382, Note_on_c, 0, 46, 29
1, 311384, Note_on_c, 0, 43, 27
1, 311394, Control_c, 0, 64, 0
1, 311394, Control_c, 0, 67, 117
1, 311408, Control_c, 0, 67, 118
1, 311423, Control_c, 0, 67, 118
1, 311438, Control_c, 0, 64, 19
1, 311438, Control_c, 0, 67, 119
1, 311444, Note_off_c, 0, 70, 35
1, 311453, Control_c, 0, 64, 29
1, 311453, Control_c, 0, 67, 120
1, 311468, Control_c, 0, 64, 36
1, 311468, Control_c, 0, 67, 121
1, 311482, Control_c, 0, 64, 44
1, 311482, Control_c, 0, 67, 122
1, 311497, Control_c, 0, 64, 52
1, 311512, Control_c, 0, 64, 61
1, 311512, Control_c, 0, 67, 123
1, 311527, Control_c, 0, 64, 65
1, 311527, Control_c, 0, 67, 125
1, 311542, Control_c, 0, 64, 66
1, 311542, Control_c, 0, 67, 127
1, 311572, Control_c, 0, 64, 68
1, 311575, Note_off_c, 0, 51, 56
1, 311586, Control_c, 0, 64, 71
1, 311591, Note_off_c, 0, 46, 44
1, 311601, Control_c, 0, 64, 79
1, 311612, Note_off_c, 0, 43, 43
1, 311616, Control_c, 0, 64, 93
1, 311631, Control_c, 0, 64, 101
1, 311646, Control_c, 0, 64, 105
1, 311675, Control_c, 0, 64, 100
1, 311690, Control_c, 0, 64, 83
1, 311705, Control_c, 0, 64, 66
1, 311720, Control_c, 0, 64, 58
1, 311734, Control_c, 0, 64, 52
1, 311735, Note_on_c, 0, 51, 35
1, 311737, Note_on_c, 0, 46, 22
1, 311740, Note_on_c, 0, 69, 54
1, 311749, Control_c, 0, 64, 53
1, 311754, Note_on_c, 0, 43, 29
1, 311764, Control_c, 0, 64, 56
1, 311779, Control_c, 0, 64, 57
1, 311794, Control_c, 0, 64, 59
1, 311808, Control_c, 0, 64, 62
1, 311823, Control_c, 0, 64, 65
1, 311838, Control_c, 0, 64, 71
1, 311853, Control_c, 0, 64, 77
1, 311868, Control_c, 0, 64, 81
1, 311882, Control_c, 0, 64, 83
1, 311897, Control_c, 0, 64, 86
1, 311912, Control_c, 0, 64, 92
1, 311920, Note_off_c, 0, 46, 43
1, 311926, Control_c, 0, 64, 101
1, 311929, Note_off_c, 0, 51, 41
1, 311935, Note_off_c, 0, 43, 42
1, 311941, Control_c, 0, 64, 108
1, 311994, Control_c, 0, 64, 109
1, 312008, Control_c, 0, 64, 115
1, 312023, Control_c, 0, 64, 127
1, 312068, Control_c, 0, 64, 111
1, 312082, Control_c, 0, 64, 85
1, 312098, Control_c, 0, 64, 67
1, 312113, Control_c, 0, 64, 54
1, 312128, Control_c, 0, 64, 22
1, 312137, Note_on_c, 0, 70, 52
1, 312143, Control_c, 0, 64, 0
1, 312165, Note_on_c, 0, 51, 23
1, 312165, Note_on_c, 0, 43, 15
1, 312174, Note_on_c, 0, 46, 13
1, 312183, Note_off_c, 0, 69, 60
1, 312247, Control_c, 0, 64, 21
1, 312262, Control_c, 0, 64, 30
1, 312277, Control_c, 0, 64, 42
1, 312292, Control_c, 0, 64, 53
1, 312306, Control_c, 0, 64, 62
1, 312321, Control_c, 0, 64, 67
1, 312336, Control_c, 0, 64, 69
1, 312350, Control_c, 0, 64, 70
1, 312365, Control_c, 0, 64, 72
1, 312380, Control_c, 0, 64, 79
1, 312382, Note_off_c, 0, 70, 35
1, 312395, Control_c, 0, 64, 88
1, 312407, Note_off_c, 0, 51, 41
1, 312409, Note_off_c, 0, 46, 41
1, 312409, Note_off_c, 0, 43, 42
1, 312410, Control_c, 0, 64, 93
1, 312424, Control_c, 0, 64, 93
1, 312469, Control_c, 0, 64, 95
1, 312484, Control_c, 0, 64, 98
1, 312543, Control_c, 0, 64, 98
1, 312618, Control_c, 0, 64, 94
1, 312632, Control_c, 0, 64, 88
1, 312645, Note_on_c, 0, 72, 62
1, 312647, Control_c, 0, 64, 80
1, 312653, Note_on_c, 0, 46, 34
1, 312662, Control_c, 0, 64, 71
1, 312666, Note_on_c, 0, 41, 25
1, 312676, Note_on_c, 0, 51, 27
1, 312676, Control_c, 0, 64, 64
1, 312691, Control_c, 0, 64, 56
1, 312706, Control_c, 0, 64, 40
1, 312728, Control_c, 0, 64, 0
1, 312832, Control_c, 0, 64, 11
1, 312847, Control_c, 0, 64, 24
1, 312862, Control_c, 0, 64, 35
1, 312877, Control_c, 0, 64, 44
1, 312892, Control_c, 0, 64, 53
1, 312908, Control_c, 0, 64, 62
1, 312923, Control_c, 0, 64, 67
1, 312937, Control_c, 0, 64, 69
1, 312952, Control_c, 0, 64, 71
1, 312967, Control_c, 0, 64, 73
1, 312982, Control_c, 0, 64, 78
1, 312982, Note_off_c, 0, 51, 41
1, 312984, Note_off_c, 0, 41, 42
1, 312987, Note_off_c, 0, 46, 44
1, 312996, Control_c, 0, 64, 85
1, 313011, Control_c, 0, 64, 90
1, 313026, Control_c, 0, 64, 91
1, 313071, Control_c, 0, 64, 93
1, 313086, Control_c, 0, 64, 95
1, 313112, Note_on_c, 0, 46, 36
1, 313112, Note_on_c, 0, 51, 39
1, 313120, Note_on_c, 0, 41, 26
1, 313145, Control_c, 0, 64, 93
1, 313160, Control_c, 0, 64, 89
1, 313174, Control_c, 0, 64, 85
1, 313189, Control_c, 0, 64, 83
1, 313306, Note_off_c, 0, 46, 45
1, 313306, Note_off_c, 0, 51, 44
1, 313308, Note_off_c, 0, 41, 39
1, 313322, Control_c, 0, 64, 84
1, 313337, Control_c, 0, 64, 84
1, 313352, Control_c, 0, 64, 86
1, 313367, Control_c, 0, 64, 87
1, 313381, Control_c, 0, 64, 88
1, 313411, Control_c, 0, 64, 89
1, 313426, Control_c, 0, 64, 90
1, 313441, Control_c, 0, 64, 91
1, 313456, Control_c, 0, 64, 93
1, 313459, Note_on_c, 0, 46, 36
1, 313478, Control_c, 0, 64, 93
1, 313482, Note_on_c, 0, 51, 32
1, 313500, Note_on_c, 0, 41, 29
1, 313522, Control_c, 0, 64, 95
1, 313537, Control_c, 0, 64, 96
1, 313552, Control_c, 0, 64, 98
1, 313596, Control_c, 0, 64, 99
1, 313602, Note_off_c, 0, 51, 34
1, 313610, Control_c, 0, 64, 99
1, 313622, Note_off_c, 0, 41, 34
1, 313625, Control_c, 0, 64, 100
1, 313646, Note_off_c, 0, 46, 46
1, 313789, Control_c, 0, 64, 91
1, 313803, Control_c, 0, 64, 74
1, 313818, Control_c, 0, 64, 63
1, 313833, Control_c, 0, 64, 50
1, 313846, Note_on_c, 0, 51, 38
1, 313848, Control_c, 0, 64, 30
1, 313849, Note_on_c, 0, 45, 39
1, 313852, Note_on_c, 0, 41, 30
1, 313863, Control_c, 0, 64, 23
1, 313877, Control_c, 0, 64, 25
1, 313892, Control_c, 0, 64, 29
1, 313907, Control_c, 0, 64, 34
1, 313921, Control_c, 0, 64, 38
1, 313936, Control_c, 0, 64, 45
1, 313951, Control_c, 0, 64, 53
1, 313966, Control_c, 0, 64, 61
1, 313981, Control_c, 0, 64, 67
1, 313995, Control_c, 0, 64, 71
1, 314010, Control_c, 0, 64, 72
1, 314025, Control_c, 0, 64, 73
1, 314032, Note_off_c, 0, 51, 58
1, 314040, Control_c, 0, 64, 77
1, 314055, Control_c, 0, 64, 84
1, 314067, Note_off_c, 0, 45, 39
1, 314069, Note_off_c, 0, 41, 43
1, 314070, Control_c, 0, 64, 92
1, 314084, Control_c, 0, 64, 100
1, 314099, Control_c, 0, 64, 117
1, 314114, Control_c, 0, 64, 127
1, 314144, Control_c, 0, 64, 117
1, 314159, Control_c, 0, 64, 92
1, 314174, Control_c, 0, 64, 77
1, 314189, Control_c, 0, 64, 66
1, 314203, Note_on_c, 0, 41, 30
1, 314203, Control_c, 0, 64, 62
1, 314205, Note_on_c, 0, 51, 31
1, 314206, Note_on_c, 0, 71, 63
1, 314214, Note_on_c, 0, 45, 33
1, 314225, Control_c, 0, 64, 63
1, 314240, Control_c, 0, 64, 65
1, 314255, Control_c, 0, 64, 66
1, 314270, Control_c, 0, 64, 67
1, 314272, Note_off_c, 0, 72, 56
1, 314284, Control_c, 0, 64, 69
1, 314299, Control_c, 0, 64, 71
1, 314314, Control_c, 0, 64, 76
1, 314329, Control_c, 0, 64, 82
1, 314344, Control_c, 0, 64, 86
1, 314359, Control_c, 0, 64, 88
1, 314374, Control_c, 0, 64, 89
1, 314384, Note_off_c, 0, 45, 42
1, 314389, Control_c, 0, 64, 90
1, 314393, Note_off_c, 0, 51, 39
1, 314399, Note_off_c, 0, 41, 38
1, 314403, Control_c, 0, 64, 98
1, 314418, Control_c, 0, 64, 115
1, 314433, Control_c, 0, 64, 127
1, 314538, Control_c, 0, 64, 101
1, 314552, Control_c, 0, 64, 79
1, 314567, Control_c, 0, 64, 65
1, 314582, Control_c, 0, 64, 47
1, 314597, Control_c, 0, 64, 0
1, 314600, Note_on_c, 0, 41, 27
1, 314606, Note_on_c, 0, 51, 30
1, 314606, Note_on_c, 0, 72, 64
1, 314607, Note_on_c, 0, 45, 20
1, 314682, Note_off_c, 0, 71, 60
1, 314759, Control_c, 0, 64, 15
1, 314774, Control_c, 0, 64, 31
1, 314789, Control_c, 0, 64, 42
1, 314804, Control_c, 0, 64, 53
1, 314818, Control_c, 0, 64, 62
1, 314833, Control_c, 0, 64, 66
1, 314848, Control_c, 0, 64, 69
1, 314861, Note_off_c, 0, 41, 35
1, 314863, Note_off_c, 0, 72, 55
1, 314863, Control_c, 0, 64, 72
1, 314878, Control_c, 0, 64, 77
1, 314892, Control_c, 0, 64, 84
1, 314907, Control_c, 0, 64, 92
1, 314922, Control_c, 0, 64, 97
1, 314923, Note_off_c, 0, 51, 53
1, 314937, Control_c, 0, 64, 99
1, 314952, Control_c, 0, 64, 100
1, 314974, Control_c, 0, 64, 103
1, 314989, Control_c, 0, 64, 119
1, 315004, Control_c, 0, 64, 127
1, 315035, Note_off_c, 0, 45, 39
1, 315092, Control_c, 0, 64, 93
1, 315095, Note_on_c, 0, 74, 77
1, 315107, Note_on_c, 0, 50, 36
1, 315107, Control_c, 0, 64, 72
1, 315110, Note_on_c, 0, 41, 32
1, 315116, Note_on_c, 0, 46, 36
1, 315122, Control_c, 0, 64, 59
1, 315137, Control_c, 0, 64, 35
1, 315152, Control_c, 0, 64, 0
1, 315285, Control_c, 0, 64, 22
1, 315301, Control_c, 0, 64, 33
1, 315316, Control_c, 0, 64, 44
1, 315331, Control_c, 0, 64, 56
1, 315345, Control_c, 0, 64, 67
1, 315360, Control_c, 0, 64, 73
1, 315375, Control_c, 0, 64, 74
1, 315390, Control_c, 0, 64, 75
1, 315397, Note_off_c, 0, 50, 40
1, 315398, Note_off_c, 0, 41, 41
1, 315405, Control_c, 0, 64, 83
1, 315408, Note_off_c, 0, 46, 44
1, 315420, Control_c, 0, 64, 109
1, 315435, Control_c, 0, 64, 127
1, 315517, Note_on_c, 0, 41, 36
1, 315517, Note_on_c, 0, 50, 45
1, 315533, Note_on_c, 0, 46, 45
1, 315538, Control_c, 0, 67, 123
1, 315553, Control_c, 0, 67, 113
1, 315567, Control_c, 0, 67, 103
1, 315582, Control_c, 0, 67, 91
1, 315597, Control_c, 0, 67, 82
1, 315612, Control_c, 0, 67, 75
1, 315627, Control_c, 0, 67, 70
1, 315641, Control_c, 0, 67, 65
1, 315656, Control_c, 0, 67, 62
1, 315664, Note_off_c, 0, 46, 53
1, 315671, Control_c, 0, 67, 61
1, 315684, Note_off_c, 0, 50, 53
1, 315703, Note_off_c, 0, 41, 39
1, 315738, Control_c, 0, 67, 62
1, 315753, Control_c, 0, 67, 63
1, 315768, Control_c, 0, 67, 64
1, 315782, Control_c, 0, 67, 64
1, 315797, Control_c, 0, 67, 65
1, 315860, Note_on_c, 0, 41, 41
1, 315861, Note_on_c, 0, 50, 46
1, 315865, Note_on_c, 0, 46, 48
1, 315886, Control_c, 0, 67, 64
1, 315915, Control_c, 0, 67, 64
1, 315945, Control_c, 0, 67, 63
1, 315960, Control_c, 0, 67, 63
1, 315973, Note_off_c, 0, 46, 51
1, 315974, Control_c, 0, 67, 62
1, 315989, Control_c, 0, 67, 62
1, 316004, Control_c, 0, 67, 61
1, 316013, Note_off_c, 0, 41, 33
1, 316020, Note_off_c, 0, 50, 35
1, 316034, Control_c, 0, 67, 60
1, 316064, Control_c, 0, 67, 58
1, 316079, Control_c, 0, 67, 54
1, 316094, Control_c, 0, 67, 48
1, 316109, Control_c, 0, 67, 43
1, 316123, Control_c, 0, 67, 40
1, 316138, Control_c, 0, 67, 36
1, 316153, Control_c, 0, 67, 35
1, 316168, Control_c, 0, 64, 93
1, 316183, Control_c, 0, 64, 65
1, 316198, Control_c, 0, 64, 45
1, 316198, Control_c, 0, 67, 34
1, 316213, Control_c, 0, 64, 0
1, 316214, Note_on_c, 0, 46, 40
1, 316222, Note_on_c, 0, 44, 37
1, 316225, Note_on_c, 0, 41, 38
1, 316225, Note_on_c, 0, 50, 40
1, 316228, Control_c, 0, 67, 34
1, 316272, Control_c, 0, 64, 22
1, 316287, Control_c, 0, 64, 32
1, 316302, Control_c, 0, 64, 43
1, 316316, Control_c, 0, 64, 53
1, 316331, Control_c, 0, 64, 62
1, 316346, Control_c, 0, 64, 70
1, 316361, Control_c, 0, 64, 78
1, 316376, Control_c, 0, 64, 79
1, 316376, Control_c, 0, 67, 34
1, 316390, Control_c, 0, 64, 80
1, 316405, Control_c, 0, 64, 84
1, 316420, Control_c, 0, 64, 92
1, 316426, Note_off_c, 0, 46, 56
1, 316435, Control_c, 0, 64, 102
1, 316435, Control_c, 0, 67, 35
1, 316439, Note_off_c, 0, 50, 53
1, 316449, Note_off_c, 0, 44, 40
1, 316450, Control_c, 0, 64, 104
1, 316457, Note_off_c, 0, 41, 40
1, 316502, Control_c, 0, 64, 106
1, 316517, Control_c, 0, 64, 127
1, 316620, Control_c, 0, 64, 88
1, 316635, Control_c, 0, 64, 67
1, 316641, Note_on_c, 0, 73, 76
1, 316648, Note_on_c, 0, 41, 38
1, 316650, Control_c, 0, 64, 60
1, 316650, Control_c, 0, 67, 35
1, 316654, Note_on_c, 0, 44, 34
1, 316660, Note_on_c, 0, 46, 34
1, 316664, Control_c, 0, 64, 58
1, 316667, Note_on_c, 0, 50, 29
1, 316679, Control_c, 0, 64, 60
1, 316694, Control_c, 0, 64, 61
1, 316709, Control_c, 0, 64, 63
1, 316723, Control_c, 0, 64, 66
1, 316738, Control_c, 0, 64, 69
1, 316753, Control_c, 0, 64, 73
1, 316756, Note_off_c, 0, 74, 60
1, 316768, Control_c, 0, 64, 78
1, 316783, Control_c, 0, 64, 81
1, 316797, Control_c, 0, 64, 84
1, 316797, Control_c, 0, 67, 36
1, 316812, Control_c, 0, 64, 88
1, 316812, Control_c, 0, 67, 36
1, 316827, Control_c, 0, 64, 97
1, 316842, Control_c, 0, 64, 122
1, 316857, Control_c, 0, 64, 127
1, 316867, Note_off_c, 0, 44, 39
1, 316881, Note_off_c, 0, 46, 45
1, 316887, Control_c, 0, 67, 37
1, 316895, Note_off_c, 0, 50, 40
1, 316897, Note_off_c, 0, 41, 36
1, 316917, Control_c, 0, 67, 38
1, 316932, Control_c, 0, 67, 38
1, 316946, Control_c, 0, 67, 39
1, 316961, Control_c, 0, 64, 77
1, 316976, Control_c, 0, 64, 62
1, 316991, Control_c, 0, 64, 55
1, 317004, Note_on_c, 0, 44, 39
1, 317006, Note_on_c, 0, 74, 74
1, 317006, Note_on_c, 0, 50, 48
1, 317006, Control_c, 0, 64, 53
1, 317018, Note_on_c, 0, 41, 41
1, 317021, Control_c, 0, 64, 56
1, 317030, Note_on_c, 0, 46, 25
1, 317036, Control_c, 0, 64, 59
1, 317050, Control_c, 0, 64, 62
1, 317065, Control_c, 0, 64, 66
1, 317080, Control_c, 0, 64, 74
1, 317095, Control_c, 0, 64, 86
1, 317099, Note_off_c, 0, 73, 57
1, 317110, Control_c, 0, 64, 98
1, 317122, Note_off_c, 0, 50, 59
1, 317125, Control_c, 0, 64, 117
1, 317139, Control_c, 0, 64, 127
1, 317147, Note_off_c, 0, 41, 49
1, 317149, Note_off_c, 0, 44, 31
1, 317167, Note_off_c, 0, 46, 43
1, 317220, Control_c, 0, 67, 39
1, 317235, Control_c, 0, 67, 40
1, 317250, Control_c, 0, 67, 40
1, 317280, Control_c, 0, 67, 41
1, 317299, Note_off_c, 0, 74, 64
1, 317325, Control_c, 0, 64, 83
1, 317325, Control_c, 0, 67, 42
1, 317340, Control_c, 0, 64, 59
1, 317349, Note_on_c, 0, 46, 50
1, 317349, Note_on_c, 0, 51, 66
1, 317354, Control_c, 0, 64, 12
1, 317354, Control_c, 0, 67, 42
1, 317361, Note_on_c, 0, 43, 52
1, 317369, Control_c, 0, 64, 0
1, 317414, Control_c, 0, 67, 43
1, 317443, Control_c, 0, 64, 23
1, 317458, Control_c, 0, 64, 33
1, 317472, Control_c, 0, 64, 42
1, 317487, Control_c, 0, 64, 52
1, 317487, Control_c, 0, 67, 42
1, 317502, Control_c, 0, 64, 62
1, 317517, Control_c, 0, 64, 70
1, 317517, Control_c, 0, 67, 41
1, 317532, Control_c, 0, 64, 76
1, 317546, Control_c, 0, 64, 77
1, 317561, Control_c, 0, 64, 78
1, 317575, Note_off_c, 0, 46, 60
1, 317576, Control_c, 0, 64, 85
1, 317584, Note_off_c, 0, 51, 64
1, 317586, Note_off_c, 0, 43, 55
1, 317591, Control_c, 0, 64, 115
1, 317606, Control_c, 0, 64, 127
1, 317606, Control_c, 0, 67, 42
1, 317620, Control_c, 0, 67, 42
1, 317695, Control_c, 0, 64, 89
1, 317710, Control_c, 0, 64, 68
1, 317725, Control_c, 0, 64, 63
1, 317740, Control_c, 0, 64, 64
1, 317745, Note_on_c, 0, 51, 45
1, 317746, Note_on_c, 0, 74, 78
1, 317749, Note_on_c, 0, 46, 45
1, 317750, Note_on_c, 0, 43, 44
1, 317755, Control_c, 0, 64, 67
1, 317769, Control_c, 0, 64, 70
1, 317784, Control_c, 0, 64, 75
1, 317799, Control_c, 0, 64, 81
1, 317814, Control_c, 0, 64, 86
1, 317829, Control_c, 0, 64, 87
1, 317843, Control_c, 0, 64, 90
1, 317858, Control_c, 0, 64, 105
1, 317873, Control_c, 0, 64, 127
1, 317897, Note_off_c, 0, 46, 51
1, 317931, Note_off_c, 0, 51, 57
1, 317933, Control_c, 0, 67, 43
1, 317933, Note_off_c, 0, 43, 44
1, 317969, Control_c, 0, 67, 43
1, 318091, Note_on_c, 0, 51, 44
1, 318094, Note_on_c, 0, 75, 77
1, 318103, Control_c, 0, 67, 44
1, 318110, Note_on_c, 0, 46, 50
1, 318115, Note_on_c, 0, 43, 38
1, 318165, Note_off_c, 0, 43, 60
1, 318167, Note_off_c, 0, 51, 59
1, 318173, Note_off_c, 0, 46, 58
1, 318178, Note_off_c, 0, 74, 59
1, 318222, Control_c, 0, 67, 44
1, 318281, Control_c, 0, 67, 45
1, 318318, Note_off_c, 0, 75, 61
1, 318399, Control_c, 0, 64, 78
1, 318413, Control_c, 0, 64, 56
1, 318425, Note_on_c, 0, 51, 67
1, 318427, Note_on_c, 0, 46, 59
1, 318428, Control_c, 0, 64, 0
1, 318437, Note_on_c, 0, 39, 50
1, 318458, Control_c, 0, 67, 45
1, 318533, Control_c, 0, 64, 21
1, 318548, Control_c, 0, 64, 33
1, 318563, Control_c, 0, 64, 43
1, 318563, Control_c, 0, 67, 46
1, 318578, Control_c, 0, 64, 57
1, 318592, Control_c, 0, 64, 65
1, 318592, Control_c, 0, 67, 45
1, 318607, Control_c, 0, 64, 71
1, 318622, Control_c, 0, 64, 72
1, 318637, Control_c, 0, 64, 73
1, 318652, Control_c, 0, 64, 75
1, 318652, Control_c, 0, 67, 46
1, 318659, Note_off_c, 0, 51, 55
1, 318666, Note_off_c, 0, 46, 54
1, 318666, Control_c, 0, 64, 86
1, 318666, Control_c, 0, 67, 46
1, 318672, Note_off_c, 0, 39, 35
1, 318681, Control_c, 0, 64, 119
1, 318696, Control_c, 0, 64, 127
1, 318778, Control_c, 0, 67, 46
1, 318792, Control_c, 0, 64, 94
1, 318807, Control_c, 0, 64, 69
1, 318815, Note_on_c, 0, 46, 47
1, 318817, Note_on_c, 0, 39, 45
1, 318818, Note_on_c, 0, 51, 46
1, 318821, Note_on_c, 0, 78, 85
1, 318822, Control_c, 0, 64, 59
1, 318837, Control_c, 0, 64, 54
1, 318852, Control_c, 0, 64, 56
1, 318866, Control_c, 0, 64, 60
1, 318881, Control_c, 0, 64, 64
1, 318896, Control_c, 0, 64, 68
1, 318896, Control_c, 0, 67, 46
1, 318911, Control_c, 0, 64, 74
1, 318925, Control_c, 0, 64, 80
1, 318940, Control_c, 0, 64, 86
1, 318940, Control_c, 0, 67, 47
1, 318955, Control_c, 0, 64, 93
1, 318955, Control_c, 0, 67, 46
1, 318970, Control_c, 0, 64, 103
1, 318980, Note_off_c, 0, 39, 53
1, 318985, Control_c, 0, 64, 108
1, 319000, Control_c, 0, 64, 119
1, 319000, Control_c, 0, 67, 46
1, 319009, Note_off_c, 0, 46, 52
1, 319011, Note_off_c, 0, 51, 61
1, 319015, Control_c, 0, 64, 127
1, 319015, Control_c, 0, 67, 45
1, 319059, Control_c, 0, 67, 45
1, 319104, Control_c, 0, 67, 44
1, 319118, Control_c, 0, 67, 44
1, 319163, Control_c, 0, 64, 82
1, 319163, Control_c, 0, 67, 44
1, 319178, Control_c, 0, 64, 63
1, 319186, Note_on_c, 0, 79, 79
1, 319192, Control_c, 0, 64, 55
1, 319192, Control_c, 0, 67, 44
1, 319193, Note_on_c, 0, 51, 54
1, 319200, Note_on_c, 0, 46, 43
1, 319206, Note_on_c, 0, 39, 46
1, 319207, Control_c, 0, 64, 56
1, 319222, Control_c, 0, 64, 62
1, 319222, Control_c, 0, 67, 43
1, 319236, Control_c, 0, 64, 67
1, 319236, Control_c, 0, 67, 43
1, 319251, Control_c, 0, 64, 78
1, 319266, Control_c, 0, 64, 99
1, 319281, Control_c, 0, 64, 127
1, 319281, Control_c, 0, 67, 41
1, 319297, Control_c, 0, 67, 40
1, 319312, Control_c, 0, 67, 39
1, 319327, Control_c, 0, 67, 37
1, 319331, Note_off_c, 0, 39, 61
1, 319341, Control_c, 0, 67, 33
1, 319351, Note_off_c, 0, 46, 35
1, 319352, Note_off_c, 0, 78, 57
1, 319356, Control_c, 0, 67, 32
1, 319371, Control_c, 0, 67, 30
1, 319373, Note_off_c, 0, 51, 60
1, 319386, Control_c, 0, 67, 22
1, 319401, Control_c, 0, 67, 12
1, 319415, Control_c, 0, 67, 0
1, 319449, Note_off_c, 0, 79, 63
1, 319512, Control_c, 0, 64, 83
1, 319527, Control_c, 0, 64, 59
1, 319529, Note_on_c, 0, 46, 60
1, 319531, Note_on_c, 0, 50, 62
1, 319539, Note_on_c, 0, 38, 57
1, 319541, Control_c, 0, 64, 21
1, 319556, Control_c, 0, 64, 0
1, 319602, Control_c, 0, 64, 18
1, 319616, Control_c, 0, 64, 32
1, 319631, Control_c, 0, 64, 42
1, 319646, Control_c, 0, 64, 55
1, 319660, Control_c, 0, 64, 65
1, 319675, Control_c, 0, 64, 78
1, 319690, Control_c, 0, 64, 88
1, 319690, Control_c, 0, 67, 9
1, 319705, Control_c, 0, 64, 89
1, 319705, Control_c, 0, 67, 10
1, 319720, Control_c, 0, 64, 91
1, 319720, Control_c, 0, 67, 12
1, 319734, Control_c, 0, 64, 109
1, 319734, Control_c, 0, 67, 13
1, 319749, Control_c, 0, 64, 127
1, 319749, Control_c, 0, 67, 14
1, 319764, Control_c, 0, 67, 15
1, 319772, Note_off_c, 0, 38, 51
1, 319786, Note_off_c, 0, 46, 56
1, 319794, Control_c, 0, 67, 15
1, 319796, Note_off_c, 0, 50, 60
1, 319838, Control_c, 0, 67, 15
1, 319867, Control_c, 0, 67, 14
1, 319897, Control_c, 0, 67, 13
1, 319912, Control_c, 0, 64, 104
1, 319912, Control_c, 0, 67, 13
1, 319927, Control_c, 0, 64, 72
1, 319942, Control_c, 0, 64, 69
1, 319957, Control_c, 0, 64, 70
1, 319967, Note_on_c, 0, 38, 42
1, 319972, Control_c, 0, 64, 74
1, 319974, Note_on_c, 0, 50, 39
1, 319980, Note_on_c, 0, 46, 40
1, 319987, Control_c, 0, 64, 89
1, 319991, Note_on_c, 0, 79, 80
1, 320002, Control_c, 0, 64, 127
1, 320016, Control_c, 0, 67, 14
1, 320091, Control_c, 0, 67, 13
1, 320106, Control_c, 0, 67, 13
1, 320136, Control_c, 0, 67, 12
1, 320151, Control_c, 0, 67, 12
1, 320164, Note_off_c, 0, 46, 0
1, 320165, Control_c, 0, 67, 11
1, 320180, Control_c, 0, 67, 10
1, 320192, Note_off_c, 0, 50, 40
1, 320198, Poly_aftertouch_c, 0, 46, 0
1, 320201, Note_off_c, 0, 38, 37
1, 320204, Note_on_c, 0, 77, 89
1, 320217, Control_c, 0, 67, 10
1, 320321, Control_c, 0, 67, 10
1, 320327, Note_off_c, 0, 79, 59
1, 320335, Control_c, 0, 67, 11
1, 320350, Control_c, 0, 67, 11
1, 320379, Control_c, 0, 67, 12
1, 320394, Control_c, 0, 67, 12
1, 320403, Note_on_c, 0, 46, 48
1, 320407, Note_on_c, 0, 38, 53
1, 320411, Note_on_c, 0, 82, 88
1, 320423, Note_on_c, 0, 50, 46
1, 320482, Note_off_c, 0, 38, 60
1, 320493, Note_off_c, 0, 50, 61
1, 320505, Note_off_c, 0, 46, 61
1, 320557, Control_c, 0, 67, 12
1, 320566, Note_off_c, 0, 77, 59
1, 320571, Control_c, 0, 67, 11
1, 320675, Control_c, 0, 67, 13
1, 320690, Control_c, 0, 67, 14
1, 320705, Control_c, 0, 67, 14
1, 320720, Control_c, 0, 64, 67
1, 320720, Control_c, 0, 67, 15
1, 320735, Control_c, 0, 64, 43
1, 320748, Note_on_c, 0, 46, 49
1, 320750, Control_c, 0, 64, 0
1, 320752, Note_on_c, 0, 51, 55
1, 320757, Note_on_c, 0, 39, 34
1, 320764, Control_c, 0, 67, 14
1, 320779, Control_c, 0, 67, 14
1, 320794, Control_c, 0, 67, 13
1, 320808, Control_c, 0, 67, 13
1, 320823, Control_c, 0, 64, 30
1, 320838, Control_c, 0, 64, 44
1, 320838, Control_c, 0, 67, 12
1, 320853, Control_c, 0, 64, 58
1, 320868, Control_c, 0, 64, 74
1, 320884, Control_c, 0, 64, 94
1, 320899, Control_c, 0, 64, 95
1, 320899, Control_c, 0, 67, 12
1, 320913, Control_c, 0, 64, 98
1, 320913, Control_c, 0, 67, 11
1, 320928, Control_c, 0, 64, 114
1, 320943, Control_c, 0, 64, 127
1, 320949, Note_off_c, 0, 39, 53
1, 320967, Note_off_c, 0, 51, 63
1, 320976, Note_off_c, 0, 46, 62
1, 320994, Control_c, 0, 67, 12
1, 321009, Control_c, 0, 67, 12
1, 321024, Control_c, 0, 67, 13
1, 321039, Control_c, 0, 67, 14
1, 321054, Control_c, 0, 67, 14
1, 321092, Note_on_c, 0, 81, 87
1, 321105, Note_on_c, 0, 39, 38
1, 321110, Note_on_c, 0, 51, 47
1, 321122, Note_on_c, 0, 46, 50
1, 321134, Note_off_c, 0, 82, 62
1, 321143, Control_c, 0, 67, 15
1, 321187, Control_c, 0, 67, 15
1, 321227, Note_off_c, 0, 51, 56
1, 321234, Note_off_c, 0, 39, 40
1, 321251, Note_off_c, 0, 46, 55
1, 321261, Control_c, 0, 67, 16
1, 321276, Control_c, 0, 67, 17
1, 321280, Note_on_c, 0, 79, 95
1, 321291, Control_c, 0, 67, 17
1, 321319, Note_off_c, 0, 81, 62
1, 321409, Control_c, 0, 67, 17
1, 321424, Control_c, 0, 67, 16
1, 321453, Control_c, 0, 67, 16
1, 321483, Control_c, 0, 67, 15
1, 321527, Note_on_c, 0, 46, 41
1, 321532, Note_on_c, 0, 39, 45
1, 321543, Control_c, 0, 64, 67
1, 321543, Control_c, 0, 67, 15
1, 321547, Note_on_c, 0, 51, 44
1, 321558, Control_c, 0, 64, 53
1, 321560, Note_on_c, 0, 91, 94
1, 321573, Control_c, 0, 64, 43
1, 321587, Control_c, 0, 64, 45
1, 321602, Control_c, 0, 64, 52
1, 321617, Control_c, 0, 64, 59
1, 321631, Control_c, 0, 64, 68
1, 321646, Control_c, 0, 64, 90
1, 321661, Control_c, 0, 64, 119
1, 321661, Control_c, 0, 67, 15
1, 321676, Control_c, 0, 64, 127
1, 321676, Control_c, 0, 67, 14
1, 321714, Control_c, 0, 67, 14
1, 321729, Note_off_c, 0, 46, 55
1, 321731, Note_off_c, 0, 39, 55
1, 321795, Note_off_c, 0, 51, 62
1, 321891, Control_c, 0, 67, 14
1, 321926, Note_off_c, 0, 79, 54
1, 322010, Control_c, 0, 67, 13
1, 322029, Note_on_c, 0, 50, 69
1, 322037, Note_on_c, 0, 46, 54
1, 322040, Control_c, 0, 64, 91
1, 322042, Note_on_c, 0, 41, 45
1, 322055, Control_c, 0, 64, 63
1, 322055, Control_c, 0, 67, 13
1, 322069, Control_c, 0, 64, 43
1, 322084, Control_c, 0, 64, 0
1, 322143, Control_c, 0, 64, 24
1, 322158, Control_c, 0, 64, 37
1, 322173, Control_c, 0, 64, 48
1, 322188, Control_c, 0, 64, 60
1, 322203, Control_c, 0, 64, 73
1, 322217, Control_c, 0, 64, 110
1, 322232, Control_c, 0, 64, 127
1, 322291, Control_c, 0, 67, 12
1, 322336, Control_c, 0, 67, 12
1, 322346, Note_off_c, 0, 46, 35
1, 322351, Control_c, 0, 67, 11
1, 322360, Note_off_c, 0, 50, 58
1, 322365, Control_c, 0, 67, 10
1, 322370, Note_off_c, 0, 41, 39
1, 322380, Control_c, 0, 67, 10
1, 322395, Control_c, 0, 67, 9
1, 322410, Control_c, 0, 67, 8
1, 322492, Control_c, 0, 67, 9
1, 322507, Control_c, 0, 67, 9
1, 322522, Control_c, 0, 67, 10
1, 322537, Control_c, 0, 64, 104
1, 322552, Control_c, 0, 64, 106
1, 322564, Note_on_c, 0, 89, 86
1, 322566, Note_on_c, 0, 41, 39
1, 322566, Control_c, 0, 64, 127
1, 322574, Note_on_c, 0, 46, 43
1, 322577, Note_on_c, 0, 50, 35
1, 322626, Control_c, 0, 67, 10
1, 322640, Control_c, 0, 67, 11
1, 322649, Note_off_c, 0, 91, 60
1, 322655, Control_c, 0, 67, 12
1, 322670, Control_c, 0, 67, 12
1, 322684, Control_c, 0, 67, 13
1, 322729, Control_c, 0, 67, 13
1, 322744, Control_c, 0, 67, 14
1, 322759, Control_c, 0, 67, 14
1, 322774, Control_c, 0, 67, 15
1, 322780, Note_off_c, 0, 46, 36
1, 322789, Control_c, 0, 67, 15
1, 322804, Control_c, 0, 67, 16
1, 322819, Control_c, 0, 67, 17
1, 322822, Note_off_c, 0, 89, 64
1, 322833, Control_c, 0, 67, 17
1, 322848, Control_c, 0, 67, 18
1, 322856, Note_off_c, 0, 41, 38
1, 322863, Control_c, 0, 67, 18
1, 322872, Note_off_c, 0, 50, 40
1, 322878, Control_c, 0, 67, 19
1, 322907, Control_c, 0, 67, 20
1, 322937, Control_c, 0, 67, 20
1, 322952, Control_c, 0, 67, 21
1, 322966, Control_c, 0, 67, 22
1, 322981, Control_c, 0, 67, 22
1, 322996, Control_c, 0, 67, 23
1, 323004, Note_on_c, 0, 50, 39
1, 323009, Note_on_c, 0, 41, 36
1, 323010, Control_c, 0, 67, 24
1, 323012, Note_on_c, 0, 74, 73
1, 323015, Note_on_c, 0, 46, 45
1, 323055, Control_c, 0, 67, 24
1, 323070, Control_c, 0, 67, 25
1, 323129, Control_c, 0, 67, 25
1, 323144, Control_c, 0, 67, 26
1, 323158, Control_c, 0, 67, 27
1, 323173, Control_c, 0, 67, 28
1, 323181, Note_off_c, 0, 46, 54
1, 323188, Control_c, 0, 67, 29
1, 323189, Note_off_c, 0, 41, 40
1, 323210, Control_c, 0, 67, 29
1, 323214, Note_off_c, 0, 50, 34
1, 323225, Control_c, 0, 67, 30
1, 323240, Control_c, 0, 67, 31
1, 323255, Control_c, 0, 67, 34
1, 323270, Control_c, 0, 67, 36
1, 323285, Control_c, 0, 67, 40
1, 323301, Control_c, 0, 67, 42
1, 323315, Control_c, 0, 67, 43
1, 323330, Control_c, 0, 67, 43
1, 323346, Control_c, 0, 67, 45
1, 323361, Control_c, 0, 67, 46
1, 323376, Control_c, 0, 67, 48
1, 323390, Control_c, 0, 67, 49
1, 323405, Control_c, 0, 67, 51
1, 323420, Control_c, 0, 67, 52
1, 323434, Control_c, 0, 67, 53
1, 323449, Control_c, 0, 67, 54
1, 323464, Control_c, 0, 67, 54
1, 323468, Note_off_c, 0, 74, 59
1, 323553, Control_c, 0, 67, 56
1, 323568, Control_c, 0, 67, 59
1, 323582, Control_c, 0, 67, 62
1, 323597, Control_c, 0, 67, 64
1, 323612, Control_c, 0, 67, 65
1, 323627, Control_c, 0, 67, 65
1, 323641, Control_c, 0, 67, 66
1, 323649, Note_on_c, 0, 51, 34
1, 323650, Note_on_c, 0, 48, 34
1, 323651, Note_on_c, 0, 42, 33
1, 323656, Control_c, 0, 64, 85
1, 323656, Control_c, 0, 67, 66
1, 323671, Control_c, 0, 64, 68
1, 323671, Control_c, 0, 67, 67
1, 323686, Control_c, 0, 64, 57
1, 323686, Control_c, 0, 67, 69
1, 323701, Control_c, 0, 64, 35
1, 323701, Control_c, 0, 67, 73
1, 323716, Control_c, 0, 64, 0
1, 323716, Control_c, 0, 67, 78
1, 323731, Control_c, 0, 67, 81
1, 323746, Control_c, 0, 67, 83
1, 323761, Control_c, 0, 67, 85
1, 323775, Control_c, 0, 67, 86
1, 323790, Control_c, 0, 67, 87
1, 323805, Control_c, 0, 67, 89
1, 323820, Control_c, 0, 67, 91
1, 323834, Control_c, 0, 67, 93
1, 323849, Control_c, 0, 67, 95
1, 323864, Control_c, 0, 67, 97
1, 323879, Control_c, 0, 64, 25
1, 323879, Control_c, 0, 67, 99
1, 323894, Control_c, 0, 64, 40
1, 323894, Control_c, 0, 67, 105
1, 323908, Control_c, 0, 64, 53
1, 323908, Control_c, 0, 67, 113
1, 323923, Control_c, 0, 64, 62
1, 323923, Control_c, 0, 67, 118
1, 323938, Control_c, 0, 64, 68
1, 323938, Control_c, 0, 67, 122
1, 323960, Control_c, 0, 64, 71
1, 323960, Control_c, 0, 67, 123
1, 323975, Control_c, 0, 64, 77
1, 323975, Control_c, 0, 67, 125
1, 323990, Control_c, 0, 64, 93
1, 323990, Control_c, 0, 67, 127
1, 324005, Control_c, 0, 64, 127
1, 324005, Control_c, 0, 67, 127
1, 324051, Note_off_c, 0, 51, 41
1, 324063, Note_off_c, 0, 42, 41
1, 324084, Note_off_c, 0, 48, 38
1, 324206, Note_on_c, 0, 51, 22
1, 324230, Note_on_c, 0, 42, 26
1, 324231, Poly_aftertouch_c, 0, 48, 127
1, 324238, Note_on_c, 0, 48, 3
1, 324341, Note_off_c, 0, 51, 36
1, 324351, Note_off_c, 0, 42, 34
1, 324409, Note_on_c, 0, 77, 49
1, 324420, Note_off_c, 0, 48, 37
1, 324617, Note_on_c, 0, 42, 37
1, 324631, Note_on_c, 0, 75, 52
1, 324637, Note_on_c, 0, 51, 35
1, 324641, Note_on_c, 0, 48, 14
1, 324762, Note_off_c, 0, 48, 39
1, 324772, Note_off_c, 0, 42, 34
1, 324810, Note_off_c, 0, 51, 36
1, 324830, Note_on_c, 0, 69, 53
1, 324896, Note_off_c, 0, 69, 58
1, 324992, Note_on_c, 0, 69, 56
1, 325203, Note_on_c, 0, 42, 33
1, 325212, Note_on_c, 0, 54, 33
1, 325237, Note_off_c, 0, 77, 26
1, 325243, Note_on_c, 0, 48, 26
1, 325245, Note_on_c, 0, 72, 54
1, 325257, Note_on_c, 0, 51, 21
1, 325257, Control_c, 0, 64, 92
1, 325272, Control_c, 0, 64, 64
1, 325286, Note_off_c, 0, 69, 38
1, 325287, Control_c, 0, 64, 44
1, 325295, Note_off_c, 0, 75, 57
1, 325302, Control_c, 0, 64, 0
1, 325420, Control_c, 0, 64, 15
1, 325435, Control_c, 0, 64, 31
1, 325457, Control_c, 0, 64, 43
1, 325472, Control_c, 0, 64, 58
1, 325486, Control_c, 0, 64, 70
1, 325501, Control_c, 0, 64, 86
1, 325516, Control_c, 0, 64, 91
1, 325531, Control_c, 0, 64, 95
1, 325546, Control_c, 0, 64, 113
1, 325561, Control_c, 0, 64, 127
1, 325596, Note_off_c, 0, 48, 42
1, 325596, Note_off_c, 0, 51, 42
1, 325602, Note_off_c, 0, 42, 32
1, 325608, Note_off_c, 0, 54, 40
1, 325758, Note_on_c, 0, 42, 38
1, 325776, Note_on_c, 0, 54, 41
1, 325795, Note_on_c, 0, 51, 19
1, 325864, Poly_aftertouch_c, 0, 48, 127
1, 325925, Note_off_c, 0, 54, 55
1, 325954, Note_off_c, 0, 42, 52
1, 325969, Note_off_c, 0, 51, 38
1, 326017, Poly_aftertouch_c, 0, 48, 0
1, 326139, Control_c, 0, 64, 98
1, 326149, Note_on_c, 0, 41, 39
1, 326154, Control_c, 0, 64, 69
1, 326169, Note_on_c, 0, 53, 46
1, 326169, Control_c, 0, 64, 56
1, 326184, Control_c, 0, 64, 28
1, 326206, Control_c, 0, 64, 0
1, 326231, Poly_aftertouch_c, 0, 51, 127
1, 326232, Poly_aftertouch_c, 0, 48, 127
1, 326233, Note_on_c, 0, 48, 3
1, 326280, Control_c, 0, 64, 19
1, 326295, Control_c, 0, 64, 29
1, 326309, Control_c, 0, 64, 39
1, 326324, Control_c, 0, 64, 53
1, 326340, Control_c, 0, 64, 63
1, 326354, Control_c, 0, 64, 70
1, 326369, Control_c, 0, 64, 73
1, 326384, Control_c, 0, 64, 74
1, 326399, Control_c, 0, 64, 77
1, 326414, Control_c, 0, 64, 91
1, 326416, Poly_aftertouch_c, 0, 51, 0
1, 326425, Note_off_c, 0, 48, 42
1, 326429, Control_c, 0, 64, 127
1, 326440, Note_off_c, 0, 41, 43
1, 326441, Note_off_c, 0, 53, 42
1, 326489, Control_c, 0, 64, 99
1, 326504, Control_c, 0, 64, 88
1, 326519, Control_c, 0, 64, 86
1, 326563, Note_on_c, 0, 51, 37
1, 326563, Note_on_c, 0, 41, 39
1, 326564, Note_on_c, 0, 53, 42
1, 326591, Note_on_c, 0, 48, 30
1, 326593, Control_c, 0, 64, 88
1, 326607, Control_c, 0, 64, 95
1, 326622, Control_c, 0, 64, 101
1, 326637, Control_c, 0, 64, 104
1, 326639, Note_off_c, 0, 51, 57
1, 326643, Note_off_c, 0, 48, 45
1, 326649, Note_off_c, 0, 53, 55
1, 326652, Control_c, 0, 64, 105
1, 326697, Control_c, 0, 64, 107
1, 326712, Control_c, 0, 64, 108
1, 326718, Note_off_c, 0, 41, 37
1, 326771, Control_c, 0, 64, 115
1, 326786, Control_c, 0, 64, 127
1, 326889, Control_c, 0, 64, 91
1, 326904, Control_c, 0, 64, 67
1, 326919, Control_c, 0, 64, 56
1, 326933, Control_c, 0, 64, 44
1, 326944, Note_on_c, 0, 51, 38
1, 326956, Control_c, 0, 64, 40
1, 326971, Control_c, 0, 64, 43
1, 326977, Note_on_c, 0, 45, 29
1, 326985, Control_c, 0, 64, 45
1, 326989, Note_on_c, 0, 41, 12
1, 326993, Note_on_c, 0, 48, 15
1, 327000, Control_c, 0, 64, 48
1, 327015, Control_c, 0, 64, 52
1, 327030, Control_c, 0, 64, 57
1, 327045, Control_c, 0, 64, 62
1, 327059, Control_c, 0, 64, 66
1, 327074, Control_c, 0, 64, 70
1, 327087, Control_c, 0, 64, 75
1, 327102, Control_c, 0, 64, 81
1, 327117, Control_c, 0, 64, 90
1, 327132, Control_c, 0, 64, 100
1, 327147, Control_c, 0, 64, 108
1, 327148, Note_off_c, 0, 51, 54
1, 327162, Control_c, 0, 64, 127
1, 327164, Note_off_c, 0, 48, 42
1, 327166, Note_off_c, 0, 41, 42
1, 327187, Note_off_c, 0, 45, 44
1, 327341, Note_on_c, 0, 41, 25
1, 327347, Note_on_c, 0, 48, 26
1, 327349, Note_on_c, 0, 51, 31
1, 327507, Note_off_c, 0, 41, 43
1, 327521, Note_off_c, 0, 48, 42
1, 327554, Note_off_c, 0, 51, 43
1, 327809, Note_on_c, 0, 70, 53
1, 327821, Control_c, 0, 64, 113
1, 327823, Note_on_c, 0, 41, 21
1, 327833, Note_on_c, 0, 46, 27
1, 327836, Control_c, 0, 64, 85
1, 327846, Poly_aftertouch_c, 0, 50, 127
1, 327851, Control_c, 0, 64, 66
1, 327866, Control_c, 0, 64, 53
1, 327880, Control_c, 0, 64, 19
1, 327895, Control_c, 0, 64, 0
1, 327986, Note_off_c, 0, 72, 56
1, 328014, Control_c, 0, 64, 25
1, 328029, Control_c, 0, 64, 36
1, 328044, Control_c, 0, 64, 50
1, 328050, Note_off_c, 0, 46, 46
1, 328059, Control_c, 0, 64, 61
1, 328074, Control_c, 0, 64, 68
1, 328089, Control_c, 0, 64, 71
1, 328090, Poly_aftertouch_c, 0, 50, 0
1, 328104, Control_c, 0, 64, 72
1, 328117, Note_off_c, 0, 41, 39
1, 328119, Control_c, 0, 64, 73
1, 328133, Control_c, 0, 64, 78
1, 328148, Control_c, 0, 64, 89
1, 328163, Control_c, 0, 64, 95
1, 328178, Control_c, 0, 64, 95
1, 328208, Control_c, 0, 64, 96
1, 328222, Control_c, 0, 64, 101
1, 328237, Control_c, 0, 64, 115
1, 328252, Control_c, 0, 64, 122
1, 328291, Note_on_c, 0, 46, 34
1, 328296, Control_c, 0, 64, 127
1, 328304, Note_on_c, 0, 53, 28
1, 328315, Poly_aftertouch_c, 0, 50, 127
1, 328318, Note_on_c, 0, 50, 3
1, 328425, Note_off_c, 0, 50, 36
1, 328432, Note_off_c, 0, 46, 35
1, 328436, Note_off_c, 0, 53, 35
1, 328658, Note_on_c, 0, 46, 34
1, 328669, Note_on_c, 0, 50, 23
1, 328669, Note_on_c, 0, 53, 35
1, 328771, Note_off_c, 0, 50, 31
1, 328774, Note_off_c, 0, 46, 37
1, 328780, Note_off_c, 0, 53, 37
1, 329060, Control_c, 0, 64, 113
1, 329069, Note_on_c, 0, 74, 53
1, 329075, Control_c, 0, 64, 85
1, 329082, Note_on_c, 0, 46, 25
1, 329090, Control_c, 0, 64, 68
1, 329093, Note_on_c, 0, 53, 18
1, 329105, Control_c, 0, 64, 53
1, 329119, Control_c, 0, 64, 25
1, 329132, Poly_aftertouch_c, 0, 50, 127
1, 329134, Control_c, 0, 64, 0
1, 329201, Control_c, 0, 64, 9
1, 329216, Control_c, 0, 64, 21
1, 329230, Control_c, 0, 64, 30
1, 329245, Control_c, 0, 64, 39
1, 329260, Control_c, 0, 64, 50
1, 329275, Control_c, 0, 64, 61
1, 329290, Control_c, 0, 64, 69
1, 329305, Control_c, 0, 64, 72
1, 329320, Control_c, 0, 64, 73
1, 329330, Note_off_c, 0, 53, 44
1, 329334, Control_c, 0, 64, 74
1, 329341, Note_off_c, 0, 46, 42
1, 329349, Control_c, 0, 64, 79
1, 329351, Poly_aftertouch_c, 0, 50, 0
1, 329364, Control_c, 0, 64, 89
1, 329378, Control_c, 0, 64, 95
1, 329393, Control_c, 0, 64, 95
1, 329423, Control_c, 0, 64, 100
1, 329438, Control_c, 0, 64, 127
1, 329482, Control_c, 0, 64, 100
1, 329491, Note_on_c, 0, 46, 28
1, 329497, Control_c, 0, 64, 84
1, 329511, Note_on_c, 0, 53, 23
1, 329512, Control_c, 0, 64, 73
1, 329526, Control_c, 0, 64, 67
1, 329555, Poly_aftertouch_c, 0, 50, 127
1, 329556, Control_c, 0, 64, 68
1, 329570, Control_c, 0, 64, 70
1, 329585, Control_c, 0, 64, 72
1, 329600, Control_c, 0, 64, 73
1, 329615, Control_c, 0, 64, 74
1, 329628, Note_off_c, 0, 70, 24
1, 329630, Control_c, 0, 64, 75
1, 329645, Control_c, 0, 64, 79
1, 329659, Poly_aftertouch_c, 0, 50, 0
1, 329660, Control_c, 0, 64, 83
1, 329675, Control_c, 0, 64, 85
1, 329690, Control_c, 0, 64, 87
1, 329698, Note_off_c, 0, 53, 40
1, 329704, Note_off_c, 0, 46, 40
1, 329705, Control_c, 0, 64, 88
1, 329720, Control_c, 0, 64, 92
1, 329735, Control_c, 0, 64, 100
1, 329749, Control_c, 0, 64, 110
1, 329764, Control_c, 0, 64, 119
1, 329779, Control_c, 0, 64, 122
1, 329794, Control_c, 0, 64, 127
1, 329906, Note_on_c, 0, 46, 31
1, 329928, Note_on_c, 0, 53, 25
1, 330099, Note_off_c, 0, 46, 42
1, 330132, Note_off_c, 0, 53, 37
1, 330143, Note_off_c, 0, 74, 33
1, 330544, Note_on_c, 0, 74, 49
1, 330549, Note_on_c, 0, 44, 17
1, 330557, Note_on_c, 0, 53, 24
1, 330559, Control_c, 0, 64, 98
1, 330566, Note_on_c, 0, 50, 22
1, 330573, Control_c, 0, 64, 78
1, 330578, Note_on_c, 0, 47, 24
1, 330588, Control_c, 0, 64, 63
1, 330603, Control_c, 0, 64, 49
1, 330617, Control_c, 0, 64, 0
1, 330729, Control_c, 0, 64, 19
1, 330744, Control_c, 0, 64, 32
1, 330759, Control_c, 0, 64, 44
1, 330773, Control_c, 0, 64, 56
1, 330788, Control_c, 0, 64, 66
1, 330803, Control_c, 0, 64, 75
1, 330803, Control_c, 0, 67, 124
1, 330818, Control_c, 0, 64, 79
1, 330818, Control_c, 0, 67, 119
1, 330831, Control_c, 0, 64, 83
1, 330831, Control_c, 0, 67, 113
1, 330846, Control_c, 0, 64, 92
1, 330846, Control_c, 0, 67, 107
1, 330861, Control_c, 0, 64, 115
1, 330861, Control_c, 0, 67, 101
1, 330876, Control_c, 0, 64, 127
1, 330876, Control_c, 0, 67, 95
1, 330891, Control_c, 0, 67, 89
1, 330906, Control_c, 0, 67, 84
1, 330921, Control_c, 0, 67, 84
1, 330941, Note_off_c, 0, 44, 39
1, 330942, Note_off_c, 0, 47, 40
1, 330946, Note_off_c, 0, 50, 40
1, 330950, Control_c, 0, 67, 84
1, 330965, Note_off_c, 0, 53, 44
1, 330980, Control_c, 0, 67, 85
1, 330995, Control_c, 0, 67, 85
1, 331010, Control_c, 0, 67, 87
1, 331024, Control_c, 0, 67, 88
1, 331039, Control_c, 0, 67, 89
1, 331054, Control_c, 0, 67, 89
1, 331069, Control_c, 0, 67, 90
1, 331084, Control_c, 0, 67, 91
1, 331098, Control_c, 0, 67, 91
1, 331113, Control_c, 0, 67, 92
1, 331127, Note_on_c, 0, 53, 26
1, 331128, Control_c, 0, 67, 93
1, 331142, Control_c, 0, 67, 93
1, 331144, Note_on_c, 0, 44, 16
1, 331155, Note_on_c, 0, 47, 21
1, 331155, Note_on_c, 0, 50, 13
1, 331187, Control_c, 0, 67, 94
1, 331202, Control_c, 0, 67, 94
1, 331216, Control_c, 0, 67, 95
1, 331221, Note_off_c, 0, 74, 36
1, 331231, Control_c, 0, 67, 95
1, 331246, Control_c, 0, 67, 96
1, 331292, Control_c, 0, 67, 97
1, 331301, Note_off_c, 0, 50, 40
1, 331305, Note_off_c, 0, 47, 46
1, 331307, Note_off_c, 0, 44, 41
1, 331307, Control_c, 0, 67, 97
1, 331311, Note_off_c, 0, 53, 46
1, 331321, Control_c, 0, 67, 98
1, 331395, Control_c, 0, 67, 97
1, 331410, Control_c, 0, 67, 97
1, 331425, Control_c, 0, 67, 96
1, 331447, Control_c, 0, 67, 95
1, 331462, Control_c, 0, 67, 94
1, 331477, Control_c, 0, 67, 94
1, 331507, Control_c, 0, 67, 93
1, 331519, Note_on_c, 0, 74, 58
1, 331521, Control_c, 0, 67, 93
1, 331523, Note_on_c, 0, 44, 40
1, 331552, Note_on_c, 0, 53, 29
1, 331585, Poly_aftertouch_c, 0, 47, 127
1, 331595, Control_c, 0, 67, 92
1, 331606, Poly_aftertouch_c, 0, 50, 127
1, 331610, Control_c, 0, 67, 92
1, 331654, Control_c, 0, 67, 91
1, 331666, Note_off_c, 0, 44, 48
1, 331679, Poly_aftertouch_c, 0, 50, 0
1, 331684, Control_c, 0, 67, 91
1, 331714, Control_c, 0, 67, 90
1, 331718, Poly_aftertouch_c, 0, 47, 0
1, 331723, Note_off_c, 0, 53, 40
1, 331758, Control_c, 0, 67, 90
1, 331862, Control_c, 0, 64, 83
1, 331862, Control_c, 0, 67, 90
1, 331875, Note_on_c, 0, 53, 47
1, 331877, Control_c, 0, 64, 60
1, 331888, Note_on_c, 0, 43, 45
1, 331892, Control_c, 0, 64, 34
1, 331898, Note_on_c, 0, 47, 35
1, 331900, Note_on_c, 0, 50, 31
1, 331907, Control_c, 0, 64, 0
1, 331965, Control_c, 0, 64, 13
1, 331980, Control_c, 0, 64, 27
1, 331980, Control_c, 0, 67, 91
1, 331995, Control_c, 0, 64, 37
1, 332010, Control_c, 0, 64, 46
1, 332010, Control_c, 0, 67, 91
1, 332025, Control_c, 0, 64, 58
1, 332039, Control_c, 0, 64, 68
1, 332054, Control_c, 0, 64, 85
1, 332070, Control_c, 0, 64, 89
1, 332085, Control_c, 0, 64, 90
1, 332100, Control_c, 0, 64, 96
1, 332100, Control_c, 0, 67, 92
1, 332104, Note_off_c, 0, 53, 59
1, 332112, Note_off_c, 0, 47, 44
1, 332115, Note_off_c, 0, 50, 40
1, 332115, Control_c, 0, 64, 117
1, 332130, Control_c, 0, 64, 127
1, 332137, Note_off_c, 0, 43, 34
1, 332144, Control_c, 0, 67, 92
1, 332159, Control_c, 0, 67, 93
1, 332211, Control_c, 0, 67, 93
1, 332226, Control_c, 0, 67, 94
1, 332256, Control_c, 0, 67, 94
1, 332267, Note_on_c, 0, 53, 48
1, 332273, Note_on_c, 0, 43, 48
1, 332276, Note_on_c, 0, 50, 39
1, 332300, Control_c, 0, 67, 95
1, 332315, Control_c, 0, 67, 95
1, 332316, Note_off_c, 0, 50, 63
1, 332322, Note_off_c, 0, 43, 48
1, 332326, Note_off_c, 0, 53, 64
1, 332326, Poly_aftertouch_c, 0, 47, 127
1, 332344, Control_c, 0, 67, 96
1, 332376, Poly_aftertouch_c, 0, 47, 0
1, 332418, Control_c, 0, 67, 96
1, 332433, Control_c, 0, 67, 97
1, 332656, Control_c, 0, 64, 95
1, 332670, Control_c, 0, 64, 69
1, 332676, Note_on_c, 0, 68, 67
1, 332681, Note_on_c, 0, 48, 39
1, 332684, Note_on_c, 0, 56, 41
1, 332685, Control_c, 0, 64, 57
1, 332694, Note_on_c, 0, 53, 32
1, 332700, Control_c, 0, 64, 42
1, 332715, Control_c, 0, 64, 41
1, 332730, Control_c, 0, 64, 51
1, 332744, Control_c, 0, 64, 60
1, 332759, Control_c, 0, 64, 68
1, 332774, Control_c, 0, 64, 77
1, 332788, Control_c, 0, 64, 82
1, 332803, Control_c, 0, 64, 88
1, 332818, Control_c, 0, 64, 113
1, 332818, Control_c, 0, 67, 97
1, 332833, Control_c, 0, 64, 127
1, 332843, Note_off_c, 0, 48, 37
1, 332887, Note_off_c, 0, 53, 35
1, 332901, Note_off_c, 0, 56, 55
1, 332908, Note_off_c, 0, 74, 43
1, 333079, Control_c, 0, 64, 80
1, 333094, Control_c, 0, 64, 63
1, 333109, Control_c, 0, 64, 38
1, 333114, Note_on_c, 0, 47, 49
1, 333115, Note_on_c, 0, 55, 41
1, 333124, Control_c, 0, 64, 0
1, 333124, Control_c, 0, 67, 98
1, 333141, Note_on_c, 0, 53, 33
1, 333145, Note_on_c, 0, 50, 35
1, 333157, Note_off_c, 0, 55, 0
1, 333157, Note_on_c, 0, 55, 17
1, 333257, Control_c, 0, 67, 98
1, 333287, Control_c, 0, 64, 25
1, 333301, Control_c, 0, 64, 39
1, 333316, Control_c, 0, 64, 50
1, 333331, Control_c, 0, 64, 60
1, 333331, Control_c, 0, 67, 99
1, 333345, Control_c, 0, 64, 67
1, 333360, Control_c, 0, 64, 70
1, 333383, Note_off_c, 0, 47, 53
1, 333384, Note_off_c, 0, 55, 54
1, 333390, Control_c, 0, 64, 73
1, 333398, Note_off_c, 0, 53, 42
1, 333401, Note_off_c, 0, 50, 40
1, 333405, Control_c, 0, 64, 88
1, 333419, Control_c, 0, 64, 127
1, 333419, Control_c, 0, 67, 99
1, 333496, Note_on_c, 0, 55, 41
1, 333504, Note_on_c, 0, 50, 29
1, 333510, Note_on_c, 0, 47, 35
1, 333514, Note_on_c, 0, 53, 38
1, 333597, Control_c, 0, 67, 100
1, 333606, Note_off_c, 0, 53, 53
1, 333619, Note_off_c, 0, 55, 46
1, 333627, Control_c, 0, 67, 101
1, 333630, Note_off_c, 0, 47, 36
1, 333634, Note_off_c, 0, 50, 33
1, 333642, Control_c, 0, 67, 102
1, 333657, Control_c, 0, 67, 102
1, 333859, Note_on_c, 0, 67, 68
1, 333872, Note_on_c, 0, 47, 33
1, 333873, Note_on_c, 0, 53, 36
1, 333890, Note_on_c, 0, 55, 15
1, 333893, Note_on_c, 0, 50, 15
1, 334007, Note_off_c, 0, 55, 45
1, 334015, Note_off_c, 0, 47, 42
1, 334021, Note_off_c, 0, 53, 43
1, 334028, Note_off_c, 0, 50, 41
1, 334036, Note_off_c, 0, 68, 58
1, 334065, Control_c, 0, 67, 103
1, 334315, Note_on_c, 0, 47, 38
1, 334327, Note_on_c, 0, 53, 33
1, 334334, Note_on_c, 0, 55, 25
1, 334346, Control_c, 0, 64, 97
1, 334348, Note_on_c, 0, 50, 26
1, 334361, Control_c, 0, 64, 77
1, 334373, Note_on_c, 0, 77, 75
1, 334376, Control_c, 0, 64, 65
1, 334390, Control_c, 0, 64, 54
1, 334405, Control_c, 0, 64, 31
1, 334420, Control_c, 0, 64, 0
1, 334442, Control_c, 0, 67, 102
1, 334533, Control_c, 0, 64, 25
1, 334538, Note_off_c, 0, 67, 64
1, 334547, Control_c, 0, 64, 39
1, 334562, Control_c, 0, 64, 51
1, 334577, Control_c, 0, 64, 62
1, 334591, Control_c, 0, 64, 70
1, 334603, Note_off_c, 0, 47, 52
1, 334606, Control_c, 0, 64, 75
1, 334614, Note_off_c, 0, 50, 42
1, 334614, Note_off_c, 0, 55, 49
1, 334621, Control_c, 0, 64, 75
1, 334633, Note_off_c, 0, 53, 41
1, 334636, Control_c, 0, 64, 78
1, 334651, Control_c, 0, 64, 84
1, 334665, Control_c, 0, 64, 96
1, 334680, Control_c, 0, 64, 114
1, 334695, Control_c, 0, 64, 127
1, 334754, Note_on_c, 0, 47, 36
1, 334756, Note_on_c, 0, 55, 22
1, 334763, Note_on_c, 0, 50, 29
1, 334766, Note_on_c, 0, 53, 19
1, 334858, Control_c, 0, 67, 103
1, 334864, Note_off_c, 0, 53, 32
1, 334891, Note_off_c, 0, 55, 42
1, 334906, Note_off_c, 0, 47, 41
1, 334927, Note_off_c, 0, 50, 38
1, 335097, Note_on_c, 0, 47, 35
1, 335118, Note_on_c, 0, 53, 26
1, 335128, Note_on_c, 0, 74, 60
1, 335160, Poly_aftertouch_c, 0, 55, 127
1, 335267, Note_off_c, 0, 47, 40
1, 335276, Poly_aftertouch_c, 0, 55, 0
1, 335280, Note_off_c, 0, 74, 60
1, 335343, Note_on_c, 0, 74, 58
1, 335461, Note_off_c, 0, 77, 59
1, 335487, Control_c, 0, 67, 102
1, 335547, Control_c, 0, 67, 102
1, 335602, Note_off_c, 0, 53, 44
1, 335653, Note_on_c, 0, 51, 21
1, 335653, Note_on_c, 0, 55, 27
1, 335657, Note_on_c, 0, 77, 65
1, 335658, Note_on_c, 0, 48, 33
1, 335666, Control_c, 0, 64, 92
1, 335680, Control_c, 0, 64, 68
1, 335695, Control_c, 0, 64, 54
1, 335710, Control_c, 0, 64, 19
1, 335725, Control_c, 0, 64, 0
1, 335732, Note_off_c, 0, 74, 56
1, 335843, Control_c, 0, 64, 22
1, 335858, Control_c, 0, 64, 34
1, 335873, Control_c, 0, 64, 47
1, 335887, Control_c, 0, 64, 59
1, 335902, Control_c, 0, 64, 69
1, 335917, Control_c, 0, 64, 81
1, 335939, Control_c, 0, 64, 83
1, 335954, Control_c, 0, 64, 84
1, 335969, Control_c, 0, 64, 86
1, 335970, Note_off_c, 0, 55, 44
1, 335976, Note_off_c, 0, 51, 42
1, 335979, Note_off_c, 0, 48, 41
1, 335984, Control_c, 0, 64, 98
1, 335999, Control_c, 0, 64, 127
1, 336115, Note_on_c, 0, 51, 35
1, 336115, Note_on_c, 0, 55, 31
1, 336133, Note_on_c, 0, 48, 35
1, 336234, Note_off_c, 0, 51, 30
1, 336247, Note_off_c, 0, 48, 35
1, 336256, Note_off_c, 0, 55, 47
1, 336489, Note_on_c, 0, 75, 52
1, 336504, Note_on_c, 0, 51, 16
1, 336512, Note_on_c, 0, 48, 26
1, 336525, Poly_aftertouch_c, 0, 55, 127
1, 336592, Control_c, 0, 67, 101
1, 336622, Control_c, 0, 67, 101
1, 336653, Poly_aftertouch_c, 0, 55, 0
1, 336655, Note_off_c, 0, 51, 40
1, 336656, Note_off_c, 0, 48, 46
1, 336704, Control_c, 0, 67, 100
1, 336724, Note_off_c, 0, 75, 53
1, 336733, Control_c, 0, 67, 100
1, 336748, Control_c, 0, 67, 99
1, 336792, Control_c, 0, 67, 99
1, 336807, Control_c, 0, 67, 98
1, 336868, Control_c, 0, 67, 98
1, 336972, Control_c, 0, 64, 92
1, 336972, Control_c, 0, 67, 98
1, 336976, Note_on_c, 0, 51, 24
1, 336982, Note_on_c, 0, 55, 29
1, 336983, Note_on_c, 0, 75, 50
1, 336986, Control_c, 0, 64, 66
1, 336986, Control_c, 0, 67, 100
1, 336989, Note_on_c, 0, 48, 31
1, 337001, Control_c, 0, 64, 48
1, 337001, Control_c, 0, 67, 100
1, 337016, Control_c, 0, 64, 0
1, 337016, Control_c, 0, 67, 101
1, 337105, Control_c, 0, 67, 100
1, 337115, Note_off_c, 0, 77, 55
1, 337120, Control_c, 0, 64, 17
1, 337134, Control_c, 0, 64, 30
1, 337134, Control_c, 0, 67, 100
1, 337149, Control_c, 0, 64, 43
1, 337149, Control_c, 0, 67, 99
1, 337164, Control_c, 0, 64, 56
1, 337164, Control_c, 0, 67, 98
1, 337179, Control_c, 0, 64, 65
1, 337179, Control_c, 0, 67, 97
1, 337193, Control_c, 0, 64, 75
1, 337193, Control_c, 0, 67, 96
1, 337208, Control_c, 0, 64, 80
1, 337208, Control_c, 0, 67, 95
1, 337223, Control_c, 0, 64, 81
1, 337223, Control_c, 0, 67, 95
1, 337238, Control_c, 0, 64, 84
1, 337253, Control_c, 0, 64, 94
1, 337253, Control_c, 0, 67, 94
1, 337267, Control_c, 0, 64, 115
1, 337268, Note_off_c, 0, 48, 38
1, 337282, Control_c, 0, 64, 127
1, 337297, Control_c, 0, 67, 94
1, 337312, Control_c, 0, 67, 93
1, 337327, Control_c, 0, 67, 92
1, 337341, Control_c, 0, 67, 92
1, 337344, Note_off_c, 0, 51, 41
1, 337347, Note_off_c, 0, 55, 43
1, 337356, Control_c, 0, 67, 91
1, 337371, Control_c, 0, 67, 90
1, 337401, Control_c, 0, 67, 90
1, 337438, Control_c, 0, 67, 89
1, 337541, Control_c, 0, 64, 80
1, 337541, Control_c, 0, 67, 89
1, 337556, Control_c, 0, 64, 65
1, 337560, Note_on_c, 0, 57, 49
1, 337569, Note_on_c, 0, 54, 43
1, 337571, Control_c, 0, 64, 54
1, 337574, Note_on_c, 0, 48, 41
1, 337586, Control_c, 0, 64, 43
1, 337601, Control_c, 0, 67, 88
1, 337616, Control_c, 0, 64, 47
1, 337631, Control_c, 0, 64, 51
1, 337646, Control_c, 0, 64, 55
1, 337646, Control_c, 0, 67, 89
1, 337661, Control_c, 0, 64, 58
1, 337676, Control_c, 0, 64, 62
1, 337690, Control_c, 0, 64, 67
1, 337705, Control_c, 0, 64, 72
1, 337720, Control_c, 0, 64, 76
1, 337735, Control_c, 0, 64, 79
1, 337750, Control_c, 0, 64, 81
1, 337765, Control_c, 0, 64, 86
1, 337780, Control_c, 0, 64, 92
1, 337795, Control_c, 0, 64, 97
1, 337795, Control_c, 0, 67, 89
1, 337809, Control_c, 0, 64, 98
1, 337854, Control_c, 0, 64, 100
1, 337869, Control_c, 0, 64, 109
1, 337879, Note_off_c, 0, 48, 45
1, 337883, Control_c, 0, 64, 127
1, 337887, Note_off_c, 0, 54, 41
1, 337902, Note_off_c, 0, 57, 53
1, 338002, Control_c, 0, 64, 105
1, 338016, Control_c, 0, 64, 76
1, 338031, Control_c, 0, 64, 66
1, 338046, Control_c, 0, 64, 64
1, 338046, Control_c, 0, 67, 89
1, 338048, Note_on_c, 0, 57, 52
1, 338061, Control_c, 0, 64, 65
1, 338061, Control_c, 0, 67, 88
1, 338073, Note_on_c, 0, 54, 41
1, 338076, Control_c, 0, 64, 66
1, 338076, Control_c, 0, 67, 88
1, 338079, Note_on_c, 0, 48, 38
1, 338090, Control_c, 0, 64, 66
1, 338105, Control_c, 0, 64, 67
1, 338120, Control_c, 0, 64, 68
1, 338120, Control_c, 0, 67, 87
1, 338134, Control_c, 0, 64, 70
1, 338134, Control_c, 0, 67, 87
1, 338149, Control_c, 0, 64, 72
1, 338149, Control_c, 0, 67, 85
1, 338164, Control_c, 0, 64, 74
1, 338164, Control_c, 0, 67, 80
1, 338187, Control_c, 0, 64, 76
1, 338187, Control_c, 0, 67, 75
1, 338202, Control_c, 0, 64, 78
1, 338202, Control_c, 0, 67, 70
1, 338216, Control_c, 0, 64, 81
1, 338216, Control_c, 0, 67, 68
1, 338231, Control_c, 0, 64, 84
1, 338246, Control_c, 0, 64, 85
1, 338261, Control_c, 0, 64, 87
1, 338263, Note_off_c, 0, 48, 42
1, 338276, Control_c, 0, 64, 96
1, 338276, Control_c, 0, 67, 69
1, 338282, Note_off_c, 0, 54, 34
1, 338285, Note_off_c, 0, 57, 52
1, 338290, Control_c, 0, 64, 127
1, 338290, Control_c, 0, 67, 69
1, 338305, Control_c, 0, 67, 70
1, 338320, Control_c, 0, 67, 71
1, 338334, Control_c, 0, 67, 71
1, 338349, Control_c, 0, 67, 72
1, 338364, Control_c, 0, 67, 72
1, 338379, Control_c, 0, 67, 73
1, 338394, Control_c, 0, 64, 87
1, 338394, Control_c, 0, 67, 73
1, 338409, Control_c, 0, 64, 67
1, 338409, Control_c, 0, 67, 74
1, 338424, Control_c, 0, 64, 59
1, 338424, Control_c, 0, 67, 74
1, 338430, Note_on_c, 0, 57, 55
1, 338438, Control_c, 0, 64, 57
1, 338438, Control_c, 0, 67, 75
1, 338444, Note_on_c, 0, 54, 44
1, 338453, Control_c, 0, 64, 60
1, 338453, Control_c, 0, 67, 76
1, 338460, Note_on_c, 0, 48, 45
1, 338469, Control_c, 0, 64, 63
1, 338469, Control_c, 0, 67, 76
1, 338484, Control_c, 0, 64, 64
1, 338484, Control_c, 0, 67, 77
1, 338499, Control_c, 0, 64, 66
1, 338499, Control_c, 0, 67, 77
1, 338513, Control_c, 0, 64, 72
1, 338513, Control_c, 0, 67, 78
1, 338528, Control_c, 0, 64, 80
1, 338543, Control_c, 0, 64, 92
1, 338543, Control_c, 0, 67, 78
1, 338558, Control_c, 0, 64, 104
1, 338573, Control_c, 0, 64, 113
1, 338582, Note_off_c, 0, 75, 19
1, 338588, Control_c, 0, 64, 127
1, 338617, Control_c, 0, 67, 79
1, 338650, Note_off_c, 0, 54, 58
1, 338666, Note_off_c, 0, 57, 60
1, 338677, Note_off_c, 0, 48, 45
1, 338795, Control_c, 0, 67, 78
1, 338837, Note_on_c, 0, 57, 49
1, 338839, Control_c, 0, 64, 97
1, 338841, Note_on_c, 0, 75, 75
1, 338852, Note_on_c, 0, 48, 37
1, 338854, Control_c, 0, 64, 69
1, 338862, Note_on_c, 0, 54, 41
1, 338869, Control_c, 0, 64, 57
1, 338869, Control_c, 0, 67, 78
1, 338884, Control_c, 0, 64, 43
1, 338884, Control_c, 0, 67, 77
1, 338899, Control_c, 0, 64, 39
1, 338899, Control_c, 0, 67, 77
1, 338913, Control_c, 0, 64, 43
1, 338913, Control_c, 0, 67, 76
1, 338936, Control_c, 0, 64, 48
1, 338951, Control_c, 0, 64, 53
1, 338965, Control_c, 0, 64, 59
1, 338965, Control_c, 0, 67, 76
1, 338980, Control_c, 0, 64, 64
1, 338995, Control_c, 0, 64, 71
1, 338995, Control_c, 0, 67, 75
1, 339010, Control_c, 0, 64, 78
1, 339010, Control_c, 0, 67, 75
1, 339025, Control_c, 0, 64, 84
1, 339025, Control_c, 0, 67, 74
1, 339039, Control_c, 0, 64, 91
1, 339039, Control_c, 0, 67, 74
1, 339054, Control_c, 0, 64, 101
1, 339054, Control_c, 0, 67, 73
1, 339068, Control_c, 0, 64, 127
1, 339068, Control_c, 0, 67, 73
1, 339124, Note_off_c, 0, 54, 55
1, 339139, Note_off_c, 0, 48, 43
1, 339142, Control_c, 0, 67, 73
1, 339158, Note_off_c, 0, 57, 53
1, 339172, Control_c, 0, 67, 74
1, 339187, Control_c, 0, 67, 74
1, 339211, Note_off_c, 0, 75, 59
1, 339231, Control_c, 0, 67, 75
1, 339246, Control_c, 0, 67, 75
1, 339276, Control_c, 0, 67, 76
1, 339306, Control_c, 0, 67, 77
1, 339307, Note_on_c, 0, 57, 45
1, 339323, Note_on_c, 0, 54, 41
1, 339324, Note_on_c, 0, 75, 60
1, 339336, Control_c, 0, 67, 77
1, 339337, Note_on_c, 0, 48, 36
1, 339398, Note_off_c, 0, 48, 58
1, 339403, Note_off_c, 0, 57, 60
1, 339464, Note_off_c, 0, 54, 35
1, 339469, Control_c, 0, 67, 78
1, 339500, Note_off_c, 0, 75, 56
1, 339656, Note_on_c, 0, 46, 58
1, 339658, Note_on_c, 0, 58, 57
1, 339658, Note_on_c, 0, 55, 54
1, 339661, Control_c, 0, 64, 80
1, 339684, Control_c, 0, 64, 57
1, 339684, Control_c, 0, 67, 77
1, 339699, Control_c, 0, 64, 20
1, 339713, Control_c, 0, 64, 0
1, 339713, Control_c, 0, 67, 77
1, 339773, Control_c, 0, 64, 24
1, 339787, Control_c, 0, 64, 37
1, 339802, Control_c, 0, 64, 52
1, 339817, Control_c, 0, 64, 64
1, 339832, Control_c, 0, 64, 81
1, 339847, Control_c, 0, 64, 97
1, 339847, Control_c, 0, 67, 76
1, 339861, Control_c, 0, 64, 98
1, 339876, Control_c, 0, 64, 105
1, 339876, Control_c, 0, 67, 75
1, 339884, Note_off_c, 0, 46, 57
1, 339891, Control_c, 0, 64, 127
1, 339898, Note_off_c, 0, 55, 59
1, 339905, Control_c, 0, 67, 75
1, 339918, Note_off_c, 0, 58, 57
1, 339920, Control_c, 0, 67, 74
1, 340024, Control_c, 0, 67, 74
1, 340045, Note_on_c, 0, 46, 46
1, 340049, Note_on_c, 0, 58, 51
1, 340062, Note_on_c, 0, 55, 41
1, 340063, Note_on_c, 0, 74, 73
1, 340128, Note_off_c, 0, 55, 0
1, 340128, Note_on_c, 0, 55, 4
1, 340227, Note_off_c, 0, 46, 44
1, 340228, Note_off_c, 0, 58, 57
1, 340268, Note_off_c, 0, 55, 42
1, 340307, Control_c, 0, 67, 74
1, 340335, Note_off_c, 0, 74, 67
1, 340413, Note_on_c, 0, 55, 43
1, 340430, Note_on_c, 0, 74, 67
1, 340432, Note_on_c, 0, 46, 52
1, 340433, Control_c, 0, 67, 75
1, 340436, Note_on_c, 0, 58, 44
1, 340463, Control_c, 0, 67, 75
1, 340476, Note_off_c, 0, 55, 61
1, 340530, Note_off_c, 0, 46, 63
1, 340533, Note_off_c, 0, 74, 61
1, 340547, Note_off_c, 0, 58, 57
1, 340743, Control_c, 0, 67, 76
1, 340758, Control_c, 0, 67, 76
1, 340772, Note_on_c, 0, 54, 62
1, 340774, Note_on_c, 0, 45, 51
1, 340778, Note_on_c, 0, 57, 62
1, 340788, Control_c, 0, 64, 86
1, 340802, Control_c, 0, 64, 58
1, 340817, Control_c, 0, 64, 14
1, 340832, Control_c, 0, 64, 0
1, 340922, Control_c, 0, 64, 25
1, 340937, Control_c, 0, 64, 39
1, 340951, Control_c, 0, 64, 56
1, 340966, Control_c, 0, 64, 67
1, 340981, Control_c, 0, 64, 86
1, 340981, Control_c, 0, 67, 75
1, 340996, Control_c, 0, 64, 100
1, 341011, Control_c, 0, 64, 117
1, 341011, Control_c, 0, 67, 74
1, 341014, Note_off_c, 0, 45, 53
1, 341017, Note_off_c, 0, 54, 59
1, 341026, Control_c, 0, 64, 127
1, 341026, Control_c, 0, 67, 73
1, 341040, Note_off_c, 0, 57, 56
1, 341041, Control_c, 0, 67, 73
1, 341157, Note_on_c, 0, 72, 75
1, 341159, Control_c, 0, 67, 73
1, 341165, Note_on_c, 0, 45, 41
1, 341172, Note_on_c, 0, 54, 40
1, 341187, Note_on_c, 0, 57, 39
1, 341196, Control_c, 0, 67, 74
1, 341226, Control_c, 0, 67, 74
1, 341241, Control_c, 0, 67, 75
1, 341255, Control_c, 0, 67, 75
1, 341270, Control_c, 0, 67, 76
1, 341285, Control_c, 0, 67, 76
1, 341314, Control_c, 0, 67, 77
1, 341335, Note_off_c, 0, 54, 56
1, 341344, Control_c, 0, 67, 77
1, 341351, Note_off_c, 0, 45, 36
1, 341354, Note_off_c, 0, 57, 51
1, 341358, Control_c, 0, 67, 78
1, 341388, Control_c, 0, 67, 79
1, 341418, Control_c, 0, 67, 79
1, 341443, Note_off_c, 0, 72, 63
1, 341525, Note_on_c, 0, 54, 49
1, 341527, Note_on_c, 0, 72, 66
1, 341530, Note_on_c, 0, 45, 42
1, 341548, Note_on_c, 0, 57, 29
1, 341591, Note_off_c, 0, 54, 60
1, 341603, Note_off_c, 0, 57, 44
1, 341616, Note_off_c, 0, 45, 60
1, 341676, Note_off_c, 0, 72, 58
1, 341905, Note_on_c, 0, 55, 64
1, 341907, Control_c, 0, 64, 87
1, 341907, Control_c, 0, 67, 80
1, 341910, Note_on_c, 0, 50, 58
1, 341911, Note_on_c, 0, 43, 54
1, 341929, Control_c, 0, 64, 59
1, 341944, Control_c, 0, 64, 24
1, 341944, Control_c, 0, 67, 80
1, 341959, Control_c, 0, 64, 0
1, 341974, Control_c, 0, 67, 81
1, 342019, Control_c, 0, 67, 82
1, 342033, Control_c, 0, 64, 25
1, 342048, Control_c, 0, 64, 39
1, 342063, Control_c, 0, 64, 53
1, 342078, Control_c, 0, 64, 64
1, 342093, Control_c, 0, 64, 77
1, 342107, Control_c, 0, 64, 81
1, 342122, Control_c, 0, 64, 82
1, 342122, Control_c, 0, 67, 81
1, 342137, Control_c, 0, 64, 86
1, 342137, Control_c, 0, 67, 81
1, 342152, Control_c, 0, 64, 98
1, 342152, Control_c, 0, 67, 80
1, 342167, Control_c, 0, 64, 127
1, 342168, Note_off_c, 0, 43, 50
1, 342178, Note_off_c, 0, 50, 59
1, 342182, Note_off_c, 0, 55, 64
1, 342196, Control_c, 0, 67, 80
1, 342226, Control_c, 0, 67, 79
1, 342270, Control_c, 0, 67, 79
1, 342285, Control_c, 0, 64, 91
1, 342285, Control_c, 0, 67, 78
1, 342296, Note_on_c, 0, 70, 77
1, 342300, Control_c, 0, 67, 77
1, 342314, Note_on_c, 0, 43, 38
1, 342314, Control_c, 0, 67, 77
1, 342329, Control_c, 0, 64, 93
1, 342329, Control_c, 0, 67, 76
1, 342332, Note_on_c, 0, 55, 43
1, 342334, Note_on_c, 0, 50, 39
1, 342344, Control_c, 0, 64, 95
1, 342359, Control_c, 0, 64, 95
1, 342373, Control_c, 0, 64, 104
1, 342388, Control_c, 0, 64, 127
1, 342506, Note_off_c, 0, 55, 58
1, 342530, Note_off_c, 0, 50, 35
1, 342534, Note_off_c, 0, 43, 34
1, 342597, Control_c, 0, 67, 76
1, 342598, Note_off_c, 0, 70, 59
1, 342612, Control_c, 0, 67, 75
1, 342627, Control_c, 0, 67, 75
1, 342642, Control_c, 0, 67, 74
1, 342656, Control_c, 0, 67, 74
1, 342703, Note_on_c, 0, 70, 62
1, 342704, Note_on_c, 0, 43, 28
1, 342720, Note_on_c, 0, 50, 28
1, 342723, Control_c, 0, 67, 74
1, 342733, Note_on_c, 0, 55, 36
1, 342808, Note_off_c, 0, 55, 54
1, 342811, Control_c, 0, 67, 74
1, 342829, Note_off_c, 0, 50, 30
1, 342851, Note_off_c, 0, 43, 42
1, 342904, Note_off_c, 0, 70, 56
1, 343034, Control_c, 0, 67, 74
1, 343048, Control_c, 0, 64, 105
1, 343063, Note_on_c, 0, 56, 57
1, 343063, Control_c, 0, 64, 70
1, 343078, Note_on_c, 0, 48, 48
1, 343078, Control_c, 0, 64, 55
1, 343081, Note_on_c, 0, 51, 49
1, 343093, Control_c, 0, 64, 28
1, 343108, Control_c, 0, 64, 0
1, 343122, Control_c, 0, 67, 74
1, 343152, Control_c, 0, 67, 74
1, 343167, Control_c, 0, 64, 10
1, 343182, Control_c, 0, 64, 20
1, 343196, Control_c, 0, 64, 28
1, 343196, Control_c, 0, 67, 75
1, 343211, Control_c, 0, 64, 38
1, 343226, Control_c, 0, 64, 50
1, 343241, Control_c, 0, 64, 62
1, 343257, Control_c, 0, 64, 67
1, 343272, Control_c, 0, 64, 69
1, 343272, Control_c, 0, 67, 74
1, 343301, Control_c, 0, 64, 71
1, 343316, Control_c, 0, 64, 77
1, 343321, Note_off_c, 0, 51, 54
1, 343331, Control_c, 0, 64, 89
1, 343331, Control_c, 0, 67, 75
1, 343336, Note_off_c, 0, 56, 58
1, 343339, Note_off_c, 0, 48, 55
1, 343345, Control_c, 0, 64, 95
1, 343360, Control_c, 0, 64, 111
1, 343360, Control_c, 0, 67, 75
1, 343375, Control_c, 0, 64, 127
1, 343442, Control_c, 0, 64, 103
1, 343457, Control_c, 0, 64, 73
1, 343472, Control_c, 0, 64, 60
1, 343485, Note_on_c, 0, 56, 46
1, 343487, Control_c, 0, 64, 48
1, 343490, Note_on_c, 0, 68, 66
1, 343496, Note_on_c, 0, 51, 29
1, 343501, Control_c, 0, 64, 46
1, 343510, Note_on_c, 0, 48, 43
1, 343516, Control_c, 0, 64, 50
1, 343531, Control_c, 0, 64, 52
1, 343546, Control_c, 0, 64, 55
1, 343561, Control_c, 0, 64, 58
1, 343576, Control_c, 0, 64, 62
1, 343576, Control_c, 0, 67, 76
1, 343591, Control_c, 0, 64, 64
1, 343606, Control_c, 0, 64, 66
1, 343621, Control_c, 0, 64, 68
1, 343635, Control_c, 0, 64, 70
1, 343650, Control_c, 0, 64, 72
1, 343665, Control_c, 0, 64, 77
1, 343679, Note_off_c, 0, 48, 56
1, 343679, Control_c, 0, 64, 85
1, 343679, Control_c, 0, 67, 76
1, 343694, Note_off_c, 0, 51, 40
1, 343694, Control_c, 0, 64, 91
1, 343709, Control_c, 0, 64, 98
1, 343715, Note_off_c, 0, 56, 42
1, 343724, Control_c, 0, 64, 127
1, 343771, Note_off_c, 0, 68, 54
1, 343798, Control_c, 0, 64, 100
1, 343813, Control_c, 0, 64, 76
1, 343828, Control_c, 0, 64, 65
1, 343843, Control_c, 0, 64, 61
1, 343858, Control_c, 0, 64, 61
1, 343872, Control_c, 0, 64, 63
1, 343881, Note_on_c, 0, 56, 36
1, 343887, Note_on_c, 0, 51, 40
1, 343887, Control_c, 0, 64, 64
1, 343889, Note_on_c, 0, 68, 49
1, 343891, Note_on_c, 0, 48, 31
1, 343902, Control_c, 0, 64, 65
1, 343917, Control_c, 0, 64, 67
1, 343932, Control_c, 0, 64, 71
1, 343946, Control_c, 0, 64, 79
1, 343955, Note_off_c, 0, 51, 60
1, 343961, Control_c, 0, 64, 87
1, 343965, Note_off_c, 0, 48, 48
1, 343976, Control_c, 0, 64, 90
1, 343991, Control_c, 0, 64, 92
1, 343992, Note_off_c, 0, 56, 51
1, 344006, Control_c, 0, 64, 100
1, 344020, Control_c, 0, 64, 127
1, 344130, Note_off_c, 0, 68, 41
1, 344236, Control_c, 0, 64, 86
1, 344251, Control_c, 0, 64, 66
1, 344266, Note_on_c, 0, 58, 50
1, 344266, Control_c, 0, 64, 52
1, 344268, Note_on_c, 0, 49, 51
1, 344278, Note_on_c, 0, 55, 42
1, 344281, Control_c, 0, 64, 21
1, 344296, Control_c, 0, 64, 0
1, 344308, Note_on_c, 0, 52, 22
1, 344414, Control_c, 0, 64, 14
1, 344429, Control_c, 0, 64, 26
1, 344444, Control_c, 0, 64, 35
1, 344458, Control_c, 0, 64, 43
1, 344473, Control_c, 0, 64, 55
1, 344488, Control_c, 0, 64, 61
1, 344502, Control_c, 0, 64, 63
1, 344520, Note_off_c, 0, 52, 41
1, 344525, Note_off_c, 0, 58, 41
1, 344532, Control_c, 0, 64, 64
1, 344537, Note_off_c, 0, 55, 44
1, 344547, Control_c, 0, 64, 67
1, 344549, Note_off_c, 0, 49, 41
1, 344562, Control_c, 0, 64, 75
1, 344576, Control_c, 0, 64, 84
1, 344591, Control_c, 0, 64, 86
1, 344621, Control_c, 0, 64, 85
1, 344636, Control_c, 0, 64, 81
1, 344651, Control_c, 0, 64, 76
1, 344666, Control_c, 0, 64, 72
1, 344672, Note_on_c, 0, 67, 52
1, 344680, Control_c, 0, 64, 70
1, 344686, Note_on_c, 0, 58, 25
1, 344693, Note_on_c, 0, 49, 42
1, 344695, Control_c, 0, 64, 70
1, 344698, Note_on_c, 0, 55, 31
1, 344705, Note_on_c, 0, 52, 24
1, 344769, Control_c, 0, 64, 70
1, 344784, Control_c, 0, 64, 71
1, 344799, Control_c, 0, 64, 73
1, 344799, Control_c, 0, 67, 76
1, 344814, Control_c, 0, 64, 74
1, 344829, Control_c, 0, 64, 75
1, 344844, Control_c, 0, 64, 76
1, 344859, Control_c, 0, 64, 77
1, 344859, Control_c, 0, 67, 75
1, 344863, Note_off_c, 0, 52, 42
1, 344869, Note_off_c, 0, 58, 40
1, 344874, Control_c, 0, 64, 77
1, 344882, Note_off_c, 0, 55, 40
1, 344889, Control_c, 0, 64, 78
1, 344901, Note_off_c, 0, 49, 43
1, 344904, Control_c, 0, 64, 78
1, 344925, Control_c, 0, 64, 79
1, 344925, Control_c, 0, 67, 75
1, 344955, Control_c, 0, 67, 74
1, 344970, Control_c, 0, 64, 80
1, 344985, Control_c, 0, 64, 85
1, 344986, Note_off_c, 0, 67, 36
1, 344999, Control_c, 0, 64, 95
1, 345014, Control_c, 0, 64, 101
1, 345044, Control_c, 0, 64, 97
1, 345059, Control_c, 0, 64, 84
1, 345074, Control_c, 0, 64, 72
1, 345089, Control_c, 0, 64, 66
1, 345089, Control_c, 0, 67, 74
1, 345104, Control_c, 0, 64, 65
1, 345116, Note_on_c, 0, 67, 52
1, 345119, Control_c, 0, 64, 65
1, 345125, Note_on_c, 0, 58, 32
1, 345138, Note_on_c, 0, 55, 30
1, 345140, Note_on_c, 0, 49, 25
1, 345148, Control_c, 0, 64, 66
1, 345163, Control_c, 0, 64, 67
1, 345177, Poly_aftertouch_c, 0, 52, 127
1, 345178, Control_c, 0, 64, 68
1, 345180, Note_on_c, 0, 52, 3
1, 345193, Control_c, 0, 64, 71
1, 345207, Control_c, 0, 64, 75
1, 345222, Control_c, 0, 64, 78
1, 345237, Control_c, 0, 64, 79
1, 345252, Control_c, 0, 64, 81
1, 345267, Control_c, 0, 64, 85
1, 345281, Control_c, 0, 64, 93
1, 345296, Control_c, 0, 64, 103
1, 345311, Control_c, 0, 64, 107
1, 345325, Note_off_c, 0, 55, 40
1, 345325, Control_c, 0, 64, 108
1, 345336, Note_off_c, 0, 67, 36
1, 345338, Note_off_c, 0, 58, 35
1, 345340, Control_c, 0, 67, 73
1, 345355, Control_c, 0, 64, 110
1, 345370, Control_c, 0, 64, 122
1, 345381, Note_off_c, 0, 49, 40
1, 345385, Control_c, 0, 64, 127
1, 345444, Control_c, 0, 67, 73
1, 345539, Note_off_c, 0, 52, 38
1, 345607, Control_c, 0, 67, 72
1, 345637, Control_c, 0, 67, 72
1, 345704, Control_c, 0, 64, 119
1, 345719, Control_c, 0, 64, 108
1, 345719, Control_c, 0, 67, 71
1, 345730, Note_on_c, 0, 58, 31
1, 345733, Note_on_c, 0, 55, 32
1, 345734, Control_c, 0, 64, 95
1, 345742, Note_on_c, 0, 67, 50
1, 345748, Control_c, 0, 64, 84
1, 345757, Note_on_c, 0, 50, 25
1, 345763, Control_c, 0, 64, 73
1, 345763, Control_c, 0, 67, 71
1, 345778, Control_c, 0, 64, 63
1, 345793, Control_c, 0, 64, 52
1, 345793, Control_c, 0, 67, 70
1, 345807, Control_c, 0, 64, 24
1, 345822, Control_c, 0, 64, 0
1, 345852, Control_c, 0, 67, 70
1, 345896, Control_c, 0, 67, 69
1, 345926, Control_c, 0, 64, 17
1, 345926, Control_c, 0, 67, 69
1, 345941, Control_c, 0, 64, 32
1, 345941, Control_c, 0, 67, 68
1, 345955, Control_c, 0, 64, 44
1, 345955, Control_c, 0, 67, 68
1, 345970, Control_c, 0, 64, 56
1, 345970, Control_c, 0, 67, 67
1, 345985, Control_c, 0, 64, 63
1, 345985, Control_c, 0, 67, 66
1, 346000, Control_c, 0, 64, 67
1, 346000, Control_c, 0, 67, 63
1, 346015, Control_c, 0, 64, 68
1, 346015, Control_c, 0, 67, 59
1, 346029, Control_c, 0, 64, 70
1, 346029, Control_c, 0, 67, 55
1, 346044, Control_c, 0, 64, 74
1, 346044, Control_c, 0, 67, 53
1, 346059, Control_c, 0, 64, 83
1, 346059, Control_c, 0, 67, 51
1, 346073, Control_c, 0, 64, 90
1, 346073, Control_c, 0, 67, 49
1, 346079, Note_off_c, 0, 55, 42
1, 346084, Note_off_c, 0, 58, 40
1, 346088, Control_c, 0, 64, 93
1, 346088, Control_c, 0, 67, 49
1, 346103, Control_c, 0, 64, 96
1, 346103, Control_c, 0, 67, 48
1, 346112, Note_off_c, 0, 50, 39
1, 346118, Control_c, 0, 64, 101
1, 346118, Control_c, 0, 67, 48
1, 346133, Control_c, 0, 64, 115
1, 346133, Control_c, 0, 67, 47
1, 346147, Control_c, 0, 64, 127
1, 346192, Control_c, 0, 67, 47
1, 346222, Control_c, 0, 67, 46
1, 346299, Note_on_c, 0, 50, 13
1, 346307, Note_on_c, 0, 58, 31
1, 346321, Note_on_c, 0, 55, 23
1, 346340, Control_c, 0, 67, 46
1, 346452, Control_c, 0, 67, 46
1, 346467, Note_off_c, 0, 58, 41
1, 346474, Note_off_c, 0, 55, 42
1, 346481, Note_off_c, 0, 50, 41
1, 346660, Control_c, 0, 67, 47
1, 346708, Note_on_c, 0, 70, 62
1, 346713, Note_on_c, 0, 58, 33
1, 346719, Control_c, 0, 67, 47
1, 346725, Note_on_c, 0, 55, 25
1, 346731, Note_on_c, 0, 50, 20
1, 346853, Control_c, 0, 67, 48
1, 346880, Note_off_c, 0, 58, 49
1, 346907, Note_off_c, 0, 55, 42
1, 346943, Note_off_c, 0, 50, 36
1, 347075, Control_c, 0, 64, 82
1, 347080, Note_on_c, 0, 61, 50
1, 347089, Control_c, 0, 64, 62
1, 347089, Control_c, 0, 67, 47
1, 347096, Note_on_c, 0, 55, 38
1, 347098, Note_on_c, 0, 52, 51
1, 347100, Note_on_c, 0, 50, 27
1, 347104, Control_c, 0, 64, 41
1, 347119, Control_c, 0, 64, 0
1, 347186, Control_c, 0, 64, 24
1, 347201, Control_c, 0, 64, 39
1, 347216, Control_c, 0, 64, 54
1, 347216, Control_c, 0, 67, 48
1, 347230, Control_c, 0, 64, 67
1, 347247, Control_c, 0, 64, 85
1, 347262, Control_c, 0, 64, 92
1, 347276, Control_c, 0, 64, 94
1, 347291, Control_c, 0, 64, 108
1, 347306, Control_c, 0, 64, 127
1, 347306, Control_c, 0, 67, 48
1, 347320, Control_c, 0, 67, 49
1, 347350, Control_c, 0, 67, 49
1, 347365, Note_off_c, 0, 55, 43
1, 347386, Note_off_c, 0, 50, 40
1, 347391, Note_off_c, 0, 61, 50
1, 347393, Note_off_c, 0, 52, 36
1, 347394, Control_c, 0, 67, 50
1, 347439, Control_c, 0, 67, 50
1, 347471, Note_off_c, 0, 67, 37
1, 347497, Note_on_c, 0, 69, 66
1, 347510, Note_on_c, 0, 61, 39
1, 347513, Control_c, 0, 67, 51
1, 347518, Note_on_c, 0, 55, 35
1, 347527, Control_c, 0, 67, 51
1, 347543, Note_on_c, 0, 50, 22
1, 347551, Note_on_c, 0, 52, 38
1, 347625, Note_off_c, 0, 55, 52
1, 347632, Control_c, 0, 67, 51
1, 347667, Note_off_c, 0, 52, 36
1, 347676, Note_off_c, 0, 50, 35
1, 347691, Note_off_c, 0, 61, 40
1, 347780, Control_c, 0, 67, 50
1, 347894, Note_on_c, 0, 58, 49
1, 347900, Note_on_c, 0, 67, 73
1, 347905, Note_on_c, 0, 61, 46
1, 347913, Control_c, 0, 64, 74
1, 347921, Note_on_c, 0, 52, 47
1, 347931, Note_on_c, 0, 50, 37
1, 347935, Control_c, 0, 64, 58
1, 347950, Control_c, 0, 64, 32
1, 347965, Control_c, 0, 64, 0
1, 348024, Control_c, 0, 64, 12
1, 348039, Control_c, 0, 64, 26
1, 348055, Control_c, 0, 64, 36
1, 348070, Control_c, 0, 64, 48
1, 348085, Control_c, 0, 64, 61
1, 348099, Control_c, 0, 64, 73
1, 348099, Control_c, 0, 67, 51
1, 348114, Control_c, 0, 64, 85
1, 348129, Control_c, 0, 64, 86
1, 348143, Control_c, 0, 64, 92
1, 348158, Control_c, 0, 64, 110
1, 348173, Control_c, 0, 64, 127
1, 348181, Note_off_c, 0, 52, 57
1, 348187, Note_off_c, 0, 58, 56
1, 348188, Control_c, 0, 67, 51
1, 348196, Note_off_c, 0, 61, 59
1, 348197, Note_off_c, 0, 50, 40
1, 348210, Note_off_c, 0, 70, 31
1, 348275, Note_off_c, 0, 69, 38
1, 348330, Note_on_c, 0, 61, 54
1, 348336, Control_c, 0, 64, 80
1, 348341, Note_on_c, 0, 58, 47
1, 348346, Note_on_c, 0, 52, 44
1, 348350, Control_c, 0, 64, 62
1, 348350, Control_c, 0, 67, 52
1, 348365, Note_on_c, 0, 50, 45
1, 348365, Control_c, 0, 64, 44
1, 348380, Control_c, 0, 64, 0
1, 348424, Control_c, 0, 64, 10
1, 348439, Control_c, 0, 64, 20
1, 348454, Control_c, 0, 64, 28
1, 348463, Note_off_c, 0, 50, 0
1, 348463, Note_on_c, 0, 50, 3
1, 348469, Control_c, 0, 64, 35
1, 348484, Control_c, 0, 64, 45
1, 348499, Control_c, 0, 64, 56
1, 348514, Control_c, 0, 64, 65
1, 348514, Control_c, 0, 67, 52
1, 348529, Control_c, 0, 64, 72
1, 348543, Control_c, 0, 64, 75
1, 348543, Control_c, 0, 67, 53
1, 348573, Control_c, 0, 64, 77
1, 348588, Control_c, 0, 64, 95
1, 348594, Note_off_c, 0, 58, 54
1, 348603, Control_c, 0, 64, 127
1, 348603, Note_off_c, 0, 61, 59
1, 348606, Note_off_c, 0, 52, 43
1, 348625, Note_off_c, 0, 50, 41
1, 348632, Control_c, 0, 67, 53
1, 348669, Control_c, 0, 67, 54
1, 348684, Control_c, 0, 64, 83
1, 348699, Control_c, 0, 64, 71
1, 348714, Control_c, 0, 64, 69
1, 348729, Control_c, 0, 64, 69
1, 348743, Control_c, 0, 64, 71
1, 348754, Note_on_c, 0, 58, 44
1, 348757, Note_on_c, 0, 61, 50
1, 348758, Control_c, 0, 64, 75
1, 348767, Note_on_c, 0, 50, 39
1, 348770, Note_on_c, 0, 52, 36
1, 348773, Control_c, 0, 64, 78
1, 348788, Control_c, 0, 64, 82
1, 348803, Control_c, 0, 64, 88
1, 348817, Control_c, 0, 64, 101
1, 348817, Control_c, 0, 67, 54
1, 348832, Control_c, 0, 64, 127
1, 348903, Note_off_c, 0, 52, 36
1, 348907, Control_c, 0, 67, 54
1, 348922, Note_off_c, 0, 61, 59
1, 348942, Note_off_c, 0, 50, 37
1, 348943, Note_off_c, 0, 58, 34
1, 349070, Control_c, 0, 67, 53
1, 349144, Control_c, 0, 64, 103
1, 349144, Control_c, 0, 67, 54
1, 349159, Control_c, 0, 64, 81
1, 349173, Control_c, 0, 64, 67
1, 349188, Note_on_c, 0, 66, 52
1, 349188, Control_c, 0, 64, 55
1, 349203, Control_c, 0, 64, 33
1, 349218, Control_c, 0, 64, 0
1, 349232, Note_off_c, 0, 67, 35
1, 349235, Note_on_c, 0, 50, 3
1, 349240, Note_on_c, 0, 62, 10
1, 349244, Note_on_c, 0, 57, 11
1, 349252, Poly_aftertouch_c, 0, 54, 127
1, 349254, Note_on_c, 0, 54, 3
1, 349337, Control_c, 0, 64, 18
1, 349352, Control_c, 0, 64, 28
1, 349352, Control_c, 0, 67, 54
1, 349366, Control_c, 0, 64, 36
1, 349381, Control_c, 0, 64, 45
1, 349396, Control_c, 0, 64, 56
1, 349396, Control_c, 0, 67, 54
1, 349417, Control_c, 0, 64, 64
1, 349432, Control_c, 0, 64, 69
1, 349447, Control_c, 0, 64, 70
1, 349468, Note_off_c, 0, 57, 40
1, 349474, Note_off_c, 0, 54, 40
1, 349477, Control_c, 0, 64, 73
1, 349484, Note_off_c, 0, 50, 39
1, 349487, Note_off_c, 0, 62, 42
1, 349492, Control_c, 0, 64, 81
1, 349507, Control_c, 0, 64, 93
1, 349521, Control_c, 0, 64, 101
1, 349536, Control_c, 0, 64, 117
1, 349551, Control_c, 0, 64, 127
1, 349610, Control_c, 0, 64, 83
1, 349610, Control_c, 0, 67, 54
1, 349624, Control_c, 0, 64, 69
1, 349639, Control_c, 0, 64, 63
1, 349653, Note_on_c, 0, 50, 36
1, 349656, Control_c, 0, 64, 63
1, 349665, Note_on_c, 0, 62, 35
1, 349674, Note_on_c, 0, 57, 27
1, 349675, Note_on_c, 0, 54, 31
1, 349685, Control_c, 0, 64, 63
1, 349700, Control_c, 0, 64, 65
1, 349714, Control_c, 0, 64, 67
1, 349729, Control_c, 0, 64, 71
1, 349744, Control_c, 0, 64, 77
1, 349759, Control_c, 0, 64, 80
1, 349774, Control_c, 0, 64, 83
1, 349788, Control_c, 0, 64, 85
1, 349788, Control_c, 0, 67, 55
1, 349801, Note_off_c, 0, 62, 41
1, 349803, Control_c, 0, 64, 86
1, 349808, Note_off_c, 0, 57, 33
1, 349818, Control_c, 0, 64, 86
1, 349818, Control_c, 0, 67, 54
1, 349849, Note_off_c, 0, 54, 42
1, 349865, Note_off_c, 0, 50, 40
1, 349877, Control_c, 0, 64, 87
1, 349892, Control_c, 0, 64, 90
1, 349907, Control_c, 0, 64, 100
1, 349921, Control_c, 0, 64, 127
1, 350040, Control_c, 0, 64, 111
1, 350055, Control_c, 0, 64, 110
1, 350097, Note_on_c, 0, 50, 43
1, 350166, Control_c, 0, 64, 111
1, 350181, Control_c, 0, 64, 115
1, 350195, Control_c, 0, 64, 119
1, 350210, Control_c, 0, 64, 122
1, 350225, Control_c, 0, 64, 127
1, 350350, Note_off_c, 0, 50, 39
1, 350389, Control_c, 0, 67, 55
1, 350392, Note_off_c, 0, 66, 35
1, 350419, Control_c, 0, 67, 55
1, 350523, Control_c, 0, 67, 55
1, 350686, Control_c, 0, 64, 90
1, 350699, Note_on_c, 0, 48, 28
1, 350701, Control_c, 0, 64, 74
1, 350708, Poly_aftertouch_c, 0, 50, 127
1, 350711, Note_on_c, 0, 62, 51
1, 350716, Control_c, 0, 64, 65
1, 350731, Control_c, 0, 64, 60
1, 350745, Control_c, 0, 64, 58
1, 350760, Control_c, 0, 64, 59
1, 350775, Control_c, 0, 64, 60
1, 350790, Control_c, 0, 64, 60
1, 350805, Control_c, 0, 64, 61
1, 350819, Control_c, 0, 64, 63
1, 350834, Control_c, 0, 64, 65
1, 350849, Control_c, 0, 64, 70
1, 350863, Control_c, 0, 64, 77
1, 350878, Control_c, 0, 64, 81
1, 350893, Control_c, 0, 64, 82
1, 350916, Control_c, 0, 64, 85
1, 350931, Control_c, 0, 64, 91
1, 350945, Control_c, 0, 64, 101
1, 350960, Control_c, 0, 64, 110
1, 350960, Control_c, 0, 67, 54
1, 350975, Control_c, 0, 64, 117
1, 351005, Control_c, 0, 64, 119
1, 351005, Control_c, 0, 67, 54
1, 351019, Control_c, 0, 64, 127
1, 351028, Poly_aftertouch_c, 0, 50, 0
1, 351049, Control_c, 0, 67, 53
1, 351064, Control_c, 0, 67, 53
1, 351331, Control_c, 0, 67, 52
1, 351364, Note_off_c, 0, 48, 37
1, 351441, Note_on_c, 0, 46, 33
1, 351452, Note_on_c, 0, 50, 5
1, 351465, Control_c, 0, 64, 110
1, 351472, Note_on_c, 0, 67, 43
1, 351480, Control_c, 0, 64, 97
1, 351480, Control_c, 0, 67, 53
1, 351494, Control_c, 0, 64, 84
1, 351509, Control_c, 0, 64, 72
1, 351524, Control_c, 0, 64, 62
1, 351539, Control_c, 0, 64, 46
1, 351539, Control_c, 0, 67, 53
1, 351554, Control_c, 0, 64, 0
1, 351554, Control_c, 0, 67, 54
1, 351557, Note_off_c, 0, 62, 50
1, 351583, Control_c, 0, 67, 54
1, 351642, Control_c, 0, 67, 54
1, 351694, Control_c, 0, 67, 53
1, 351724, Control_c, 0, 64, 22
1, 351724, Control_c, 0, 67, 52
1, 351739, Control_c, 0, 64, 32
1, 351739, Control_c, 0, 67, 52
1, 351754, Control_c, 0, 64, 45
1, 351754, Control_c, 0, 67, 51
1, 351768, Control_c, 0, 64, 56
1, 351768, Control_c, 0, 67, 50
1, 351783, Control_c, 0, 64, 66
1, 351783, Control_c, 0, 67, 49
1, 351798, Control_c, 0, 64, 75
1, 351798, Control_c, 0, 67, 49
1, 351812, Control_c, 0, 64, 80
1, 351812, Control_c, 0, 67, 48
1, 351827, Control_c, 0, 64, 84
1, 351827, Control_c, 0, 67, 48
1, 351842, Control_c, 0, 64, 91
1, 351857, Control_c, 0, 64, 101
1, 351857, Control_c, 0, 67, 47
1, 351872, Control_c, 0, 64, 127
1, 351872, Control_c, 0, 67, 46
1, 351886, Control_c, 0, 67, 46
1, 351901, Control_c, 0, 67, 45
1, 351923, Note_off_c, 0, 46, 42
1, 351946, Control_c, 0, 67, 45
1, 352051, Control_c, 0, 67, 45
1, 352065, Control_c, 0, 67, 46
1, 352095, Control_c, 0, 67, 46
1, 352125, Note_on_c, 0, 51, 46
1, 352133, Note_on_c, 0, 46, 35
1, 352183, Control_c, 0, 67, 47
1, 352213, Control_c, 0, 67, 47
1, 352219, Note_off_c, 0, 50, 24
1, 352310, Note_off_c, 0, 46, 46
1, 352332, Note_off_c, 0, 51, 56
1, 352347, Control_c, 0, 67, 47
1, 352377, Control_c, 0, 67, 46
1, 352458, Control_c, 0, 67, 46
1, 352473, Control_c, 0, 64, 93
1, 352473, Control_c, 0, 67, 45
1, 352487, Control_c, 0, 64, 78
1, 352502, Control_c, 0, 64, 77
1, 352517, Note_on_c, 0, 51, 57
1, 352517, Control_c, 0, 64, 77
1, 352532, Control_c, 0, 64, 78
1, 352540, Note_on_c, 0, 46, 47
1, 352545, Control_c, 0, 64, 80
1, 352560, Control_c, 0, 64, 82
1, 352575, Control_c, 0, 64, 83
1, 352589, Control_c, 0, 64, 88
1, 352589, Control_c, 0, 67, 46
1, 352604, Control_c, 0, 64, 98
1, 352619, Control_c, 0, 64, 105
1, 352619, Control_c, 0, 67, 46
1, 352634, Control_c, 0, 64, 107
1, 352663, Control_c, 0, 67, 47
1, 352670, Note_off_c, 0, 51, 57
1, 352693, Control_c, 0, 64, 108
1, 352693, Control_c, 0, 67, 47
1, 352697, Note_off_c, 0, 46, 38
1, 352723, Control_c, 0, 67, 48
1, 352738, Control_c, 0, 64, 109
1, 352753, Control_c, 0, 64, 127
1, 352753, Control_c, 0, 67, 48
1, 352768, Control_c, 0, 67, 49
1, 352797, Control_c, 0, 67, 49
1, 352827, Control_c, 0, 64, 98
1, 352827, Control_c, 0, 67, 50
1, 352842, Control_c, 0, 64, 71
1, 352857, Control_c, 0, 64, 58
1, 352857, Control_c, 0, 67, 50
1, 352872, Control_c, 0, 64, 38
1, 352887, Control_c, 0, 64, 0
1, 352891, Note_on_c, 0, 51, 44
1, 352893, Note_on_c, 0, 46, 42
1, 352931, Control_c, 0, 64, 9
1, 352931, Control_c, 0, 67, 51
1, 352946, Control_c, 0, 64, 20
1, 352961, Control_c, 0, 64, 25
1, 352976, Control_c, 0, 64, 30
1, 352991, Control_c, 0, 64, 36
1, 353005, Control_c, 0, 64, 45
1, 353020, Control_c, 0, 64, 55
1, 353035, Control_c, 0, 64, 61
1, 353050, Control_c, 0, 64, 65
1, 353064, Control_c, 0, 64, 67
1, 353079, Control_c, 0, 64, 72
1, 353094, Control_c, 0, 64, 81
1, 353109, Control_c, 0, 64, 93
1, 353109, Control_c, 0, 67, 51
1, 353116, Note_off_c, 0, 51, 49
1, 353124, Control_c, 0, 64, 101
1, 353138, Control_c, 0, 64, 103
1, 353176, Control_c, 0, 64, 91
1, 353191, Control_c, 0, 64, 74
1, 353191, Control_c, 0, 67, 52
1, 353206, Control_c, 0, 64, 64
1, 353220, Control_c, 0, 64, 53
1, 353235, Control_c, 0, 64, 36
1, 353247, Note_on_c, 0, 50, 37
1, 353250, Control_c, 0, 64, 20
1, 353264, Control_c, 0, 64, 23
1, 353279, Control_c, 0, 64, 29
1, 353295, Control_c, 0, 64, 34
1, 353310, Control_c, 0, 64, 39
1, 353310, Control_c, 0, 67, 52
1, 353325, Control_c, 0, 64, 47
1, 353339, Control_c, 0, 64, 55
1, 353339, Control_c, 0, 67, 52
1, 353354, Control_c, 0, 64, 63
1, 353354, Control_c, 0, 67, 51
1, 353369, Control_c, 0, 64, 71
1, 353369, Control_c, 0, 67, 50
1, 353384, Control_c, 0, 64, 75
1, 353384, Control_c, 0, 67, 49
1, 353399, Control_c, 0, 64, 76
1, 353399, Control_c, 0, 67, 48
1, 353409, Note_off_c, 0, 67, 30
1, 353413, Control_c, 0, 64, 78
1, 353413, Control_c, 0, 67, 46
1, 353428, Control_c, 0, 64, 83
1, 353428, Control_c, 0, 67, 45
1, 353443, Control_c, 0, 64, 92
1, 353443, Control_c, 0, 67, 43
1, 353447, Note_off_c, 0, 46, 43
1, 353450, Note_off_c, 0, 50, 40
1, 353458, Control_c, 0, 64, 102
1, 353458, Control_c, 0, 67, 39
1, 353472, Control_c, 0, 64, 107
1, 353472, Control_c, 0, 67, 30
1, 353487, Control_c, 0, 64, 110
1, 353487, Control_c, 0, 67, 22
1, 353502, Control_c, 0, 64, 127
1, 353502, Control_c, 0, 67, 16
1, 353517, Control_c, 0, 67, 11
1, 353532, Control_c, 0, 67, 10
1, 353561, Control_c, 0, 64, 122
1, 353576, Control_c, 0, 64, 81
1, 353590, Control_c, 0, 64, 65
1, 353605, Control_c, 0, 64, 56
1, 353616, Note_on_c, 0, 46, 34
1, 353620, Control_c, 0, 64, 54
1, 353623, Note_on_c, 0, 50, 30
1, 353623, Note_on_c, 0, 67, 59
1, 353636, Control_c, 0, 64, 58
1, 353651, Control_c, 0, 64, 62
1, 353666, Control_c, 0, 64, 63
1, 353680, Control_c, 0, 64, 65
1, 353695, Control_c, 0, 64, 67
1, 353710, Control_c, 0, 64, 69
1, 353710, Control_c, 0, 67, 10
1, 353725, Control_c, 0, 64, 73
1, 353740, Control_c, 0, 64, 83
1, 353754, Control_c, 0, 64, 91
1, 353769, Control_c, 0, 64, 94
1, 353769, Control_c, 0, 67, 11
1, 353784, Control_c, 0, 64, 95
1, 353784, Control_c, 0, 67, 11
1, 353799, Control_c, 0, 64, 98
1, 353799, Control_c, 0, 67, 12
1, 353814, Control_c, 0, 64, 108
1, 353814, Control_c, 0, 67, 13
1, 353825, Note_off_c, 0, 50, 41
1, 353829, Control_c, 0, 64, 127
1, 353829, Control_c, 0, 67, 13
1, 353835, Note_off_c, 0, 46, 42
1, 353844, Control_c, 0, 67, 14
1, 353874, Control_c, 0, 67, 14
1, 353940, Control_c, 0, 67, 15
1, 353999, Control_c, 0, 67, 15
1, 354073, Control_c, 0, 64, 95
1, 354088, Control_c, 0, 64, 78
1, 354103, Control_c, 0, 64, 66
1, 354106, Note_on_c, 0, 45, 35
1, 354114, Note_on_c, 0, 50, 31
1, 354118, Control_c, 0, 64, 56
1, 354133, Control_c, 0, 64, 29
1, 354133, Control_c, 0, 67, 16
1, 354133, Note_on_c, 0, 66, 44
1, 354148, Control_c, 0, 64, 0
1, 354159, Note_off_c, 0, 67, 53
1, 354162, Control_c, 0, 67, 16
1, 354251, Control_c, 0, 64, 18
1, 354266, Control_c, 0, 64, 28
1, 354280, Control_c, 0, 64, 36
1, 354295, Control_c, 0, 64, 45
1, 354310, Control_c, 0, 64, 55
1, 354325, Control_c, 0, 64, 61
1, 354340, Control_c, 0, 64, 64
1, 354354, Control_c, 0, 64, 65
1, 354354, Control_c, 0, 67, 16
1, 354356, Note_off_c, 0, 50, 41
1, 354367, Note_off_c, 0, 45, 43
1, 354369, Control_c, 0, 64, 67
1, 354369, Control_c, 0, 67, 15
1, 354384, Control_c, 0, 64, 71
1, 354384, Control_c, 0, 67, 15
1, 354399, Control_c, 0, 64, 77
1, 354413, Control_c, 0, 64, 83
1, 354413, Control_c, 0, 67, 14
1, 354429, Control_c, 0, 64, 86
1, 354429, Control_c, 0, 67, 14
1, 354444, Control_c, 0, 64, 88
1, 354444, Control_c, 0, 67, 13
1, 354459, Control_c, 0, 64, 90
1, 354474, Control_c, 0, 64, 91
1, 354474, Control_c, 0, 67, 12
1, 354489, Control_c, 0, 64, 92
1, 354489, Control_c, 0, 67, 12
1, 354503, Control_c, 0, 67, 11
1, 354516, Note_off_c, 0, 66, 42
1, 354518, Control_c, 0, 67, 10
1, 354533, Control_c, 0, 67, 9
1, 354540, Note_on_c, 0, 50, 27
1, 354542, Note_on_c, 0, 45, 26
1, 354563, Control_c, 0, 67, 8
1, 354577, Control_c, 0, 67, 0
1, 354659, Note_off_c, 0, 45, 36
1, 354662, Note_off_c, 0, 50, 35
1, 354807, Control_c, 0, 64, 89
1, 354822, Control_c, 0, 64, 79
1, 354836, Control_c, 0, 64, 67
1, 354851, Control_c, 0, 64, 58
1, 354866, Control_c, 0, 64, 43
1, 354881, Control_c, 0, 64, 25
1, 354896, Control_c, 0, 64, 24
1, 354904, Note_on_c, 0, 66, 47
1, 354910, Note_on_c, 0, 50, 23
1, 354911, Control_c, 0, 64, 26
1, 354917, Note_on_c, 0, 45, 29
1, 354926, Control_c, 0, 64, 29
1, 354941, Control_c, 0, 64, 33
1, 354956, Control_c, 0, 64, 37
1, 354971, Control_c, 0, 64, 42
1, 354985, Control_c, 0, 64, 51
1, 355000, Control_c, 0, 64, 59
1, 355015, Control_c, 0, 64, 64
1, 355029, Control_c, 0, 64, 67
1, 355044, Control_c, 0, 64, 68
1, 355059, Control_c, 0, 64, 69
1, 355074, Control_c, 0, 64, 70
1, 355083, Note_off_c, 0, 50, 41
1, 355089, Control_c, 0, 64, 74
1, 355096, Note_off_c, 0, 45, 42
1, 355103, Control_c, 0, 64, 78
1, 355118, Control_c, 0, 64, 80
1, 355133, Control_c, 0, 64, 82
1, 355148, Control_c, 0, 64, 84
1, 355163, Control_c, 0, 64, 86
1, 355207, Control_c, 0, 64, 80
1, 355222, Control_c, 0, 64, 70
1, 355238, Control_c, 0, 64, 62
1, 355252, Control_c, 0, 64, 51
1, 355261, Note_on_c, 0, 45, 31
1, 355261, Note_on_c, 0, 50, 33
1, 355267, Control_c, 0, 64, 38
1, 355282, Control_c, 0, 64, 36
1, 355297, Control_c, 0, 64, 38
1, 355312, Control_c, 0, 64, 40
1, 355321, Note_off_c, 0, 66, 32
1, 355326, Control_c, 0, 64, 43
1, 355341, Control_c, 0, 64, 46
1, 355356, Control_c, 0, 64, 50
1, 355371, Control_c, 0, 64, 55
1, 355386, Control_c, 0, 64, 59
1, 355408, Control_c, 0, 64, 63
1, 355423, Control_c, 0, 64, 64
1, 355438, Control_c, 0, 64, 65
1, 355453, Control_c, 0, 64, 66
1, 355467, Control_c, 0, 64, 68
1, 355480, Note_off_c, 0, 50, 40
1, 355482, Control_c, 0, 64, 72
1, 355487, Note_off_c, 0, 45, 40
1, 355497, Control_c, 0, 64, 82
1, 355512, Control_c, 0, 64, 94
1, 355527, Control_c, 0, 64, 105
1, 355541, Control_c, 0, 64, 111
1, 355571, Control_c, 0, 64, 100
1, 355586, Control_c, 0, 64, 83
1, 355601, Control_c, 0, 64, 71
1, 355615, Control_c, 0, 64, 63
1, 355630, Control_c, 0, 64, 60
1, 355638, Note_on_c, 0, 45, 30
1, 355642, Note_on_c, 0, 50, 26
1, 355645, Control_c, 0, 64, 61
1, 355659, Control_c, 0, 64, 64
1, 355674, Control_c, 0, 64, 65
1, 355689, Control_c, 0, 64, 66
1, 355704, Control_c, 0, 64, 67
1, 355719, Control_c, 0, 64, 67
1, 355734, Control_c, 0, 64, 69
1, 355749, Control_c, 0, 64, 75
1, 355763, Control_c, 0, 64, 79
1, 355778, Control_c, 0, 64, 81
1, 355798, Note_off_c, 0, 45, 40
1, 355800, Note_off_c, 0, 50, 40
1, 355823, Control_c, 0, 64, 83
1, 355838, Control_c, 0, 64, 90
1, 355852, Control_c, 0, 64, 122
1, 355867, Control_c, 0, 64, 127
1, 355971, Control_c, 0, 64, 115
1, 355985, Control_c, 0, 64, 85
1, 356000, Control_c, 0, 64, 72
1, 356015, Control_c, 0, 64, 65
1, 356031, Control_c, 0, 64, 63
1, 356046, Control_c, 0, 64, 63
1, 356058, Note_on_c, 0, 62, 59
1, 356061, Control_c, 0, 64, 64
1, 356068, Note_on_c, 0, 45, 36
1, 356072, Note_on_c, 0, 50, 29
1, 356076, Control_c, 0, 64, 65
1, 356090, Control_c, 0, 64, 67
1, 356105, Control_c, 0, 64, 69
1, 356120, Control_c, 0, 64, 71
1, 356135, Control_c, 0, 64, 73
1, 356157, Control_c, 0, 64, 76
1, 356172, Control_c, 0, 64, 80
1, 356187, Control_c, 0, 64, 86
1, 356202, Control_c, 0, 64, 91
1, 356217, Control_c, 0, 64, 95
1, 356231, Control_c, 0, 64, 103
1, 356246, Control_c, 0, 64, 115
1, 356261, Control_c, 0, 64, 127
1, 356312, Note_off_c, 0, 50, 41
1, 356479, Note_off_c, 0, 45, 38
1, 356603, Note_on_c, 0, 50, 28
1, 356610, Note_on_c, 0, 43, 36
1, 356615, Control_c, 0, 64, 93
1, 356623, Note_on_c, 0, 70, 64
1, 356630, Control_c, 0, 64, 75
1, 356645, Control_c, 0, 64, 64
1, 356660, Control_c, 0, 64, 53
1, 356674, Control_c, 0, 64, 35
1, 356689, Control_c, 0, 64, 0
1, 356689, Control_c, 0, 67, 11
1, 356704, Control_c, 0, 67, 13
1, 356719, Control_c, 0, 67, 14
1, 356734, Control_c, 0, 67, 16
1, 356748, Control_c, 0, 67, 17
1, 356762, Note_off_c, 0, 62, 56
1, 356763, Control_c, 0, 64, 14
1, 356763, Control_c, 0, 67, 18
1, 356778, Control_c, 0, 64, 22
1, 356778, Control_c, 0, 67, 20
1, 356793, Control_c, 0, 64, 30
1, 356793, Control_c, 0, 67, 21
1, 356807, Control_c, 0, 64, 39
1, 356807, Control_c, 0, 67, 21
1, 356823, Control_c, 0, 64, 49
1, 356823, Control_c, 0, 67, 22
1, 356838, Control_c, 0, 64, 58
1, 356838, Control_c, 0, 67, 24
1, 356853, Control_c, 0, 64, 64
1, 356853, Control_c, 0, 67, 27
1, 356868, Control_c, 0, 64, 68
1, 356868, Control_c, 0, 67, 28
1, 356883, Control_c, 0, 64, 70
1, 356883, Control_c, 0, 67, 30
1, 356905, Control_c, 0, 64, 73
1, 356905, Control_c, 0, 67, 32
1, 356920, Control_c, 0, 64, 76
1, 356920, Control_c, 0, 67, 35
1, 356935, Control_c, 0, 64, 82
1, 356935, Control_c, 0, 67, 40
1, 356950, Control_c, 0, 64, 86
1, 356950, Control_c, 0, 67, 44
1, 356965, Control_c, 0, 64, 88
1, 356965, Control_c, 0, 67, 49
1, 356965, Note_off_c, 0, 43, 43
1, 356979, Control_c, 0, 67, 54
1, 356994, Control_c, 0, 64, 90
1, 356994, Control_c, 0, 67, 58
1, 357009, Control_c, 0, 64, 99
1, 357009, Control_c, 0, 67, 62
1, 357024, Control_c, 0, 64, 127
1, 357024, Control_c, 0, 67, 65
1, 357039, Control_c, 0, 67, 67
1, 357054, Control_c, 0, 67, 69
1, 357069, Control_c, 0, 67, 70
1, 357084, Control_c, 0, 67, 72
1, 357099, Control_c, 0, 64, 103
1, 357099, Control_c, 0, 67, 73
1, 357113, Control_c, 0, 64, 77
1, 357113, Control_c, 0, 67, 73
1, 357128, Control_c, 0, 64, 64
1, 357143, Note_on_c, 0, 51, 60
1, 357143, Control_c, 0, 64, 55
1, 357158, Control_c, 0, 64, 49
1, 357173, Control_c, 0, 64, 50
1, 357187, Control_c, 0, 64, 51
1, 357202, Control_c, 0, 64, 52
1, 357204, Poly_aftertouch_c, 0, 43, 127
1, 357217, Control_c, 0, 64, 54
1, 357219, Note_off_c, 0, 50, 39
1, 357231, Control_c, 0, 64, 56
1, 357246, Control_c, 0, 64, 60
1, 357261, Control_c, 0, 64, 63
1, 357276, Control_c, 0, 64, 69
1, 357291, Control_c, 0, 64, 73
1, 357305, Control_c, 0, 64, 76
1, 357320, Control_c, 0, 64, 78
1, 357335, Control_c, 0, 64, 80
1, 357350, Control_c, 0, 64, 82
1, 357361, Poly_aftertouch_c, 0, 43, 0
1, 357365, Control_c, 0, 64, 84
1, 357367, Note_off_c, 0, 51, 59
1, 357379, Control_c, 0, 64, 88
1, 357394, Control_c, 0, 64, 92
1, 357409, Control_c, 0, 64, 99
1, 357424, Control_c, 0, 64, 113
1, 357439, Control_c, 0, 64, 127
1, 357469, Control_c, 0, 64, 122
1, 357483, Control_c, 0, 64, 94
1, 357498, Control_c, 0, 64, 76
1, 357513, Control_c, 0, 64, 64
1, 357517, Note_on_c, 0, 51, 58
1, 357528, Control_c, 0, 64, 54
1, 357543, Control_c, 0, 64, 42
1, 357547, Note_on_c, 0, 43, 43
1, 357557, Control_c, 0, 64, 37
1, 357572, Control_c, 0, 64, 40
1, 357587, Control_c, 0, 64, 44
1, 357602, Control_c, 0, 64, 48
1, 357617, Control_c, 0, 64, 53
1, 357633, Control_c, 0, 64, 58
1, 357654, Control_c, 0, 64, 62
1, 357669, Control_c, 0, 64, 66
1, 357684, Control_c, 0, 64, 68
1, 357699, Control_c, 0, 64, 71
1, 357713, Note_off_c, 0, 43, 47
1, 357714, Control_c, 0, 64, 73
1, 357715, Note_off_c, 0, 51, 58
1, 357728, Control_c, 0, 64, 77
1, 357743, Control_c, 0, 64, 81
1, 357758, Control_c, 0, 64, 87
1, 357773, Control_c, 0, 64, 98
1, 357788, Control_c, 0, 64, 117
1, 357802, Control_c, 0, 64, 127
1, 357847, Control_c, 0, 64, 92
1, 357862, Control_c, 0, 64, 70
1, 357871, Note_on_c, 0, 51, 58
1, 357877, Control_c, 0, 64, 60
1, 357892, Control_c, 0, 64, 49
1, 357898, Note_on_c, 0, 43, 40
1, 357907, Control_c, 0, 64, 45
1, 357922, Control_c, 0, 64, 46
1, 357936, Control_c, 0, 64, 49
1, 357951, Control_c, 0, 64, 52
1, 357966, Control_c, 0, 64, 55
1, 357980, Control_c, 0, 64, 59
1, 357995, Control_c, 0, 64, 62
1, 358010, Control_c, 0, 64, 65
1, 358025, Control_c, 0, 64, 67
1, 358025, Control_c, 0, 67, 73
1, 358040, Control_c, 0, 64, 69
1, 358040, Control_c, 0, 67, 72
1, 358054, Control_c, 0, 64, 71
1, 358065, Note_off_c, 0, 43, 42
1, 358069, Control_c, 0, 64, 74
1, 358069, Control_c, 0, 67, 71
1, 358084, Control_c, 0, 64, 83
1, 358099, Control_c, 0, 64, 96
1, 358102, Note_off_c, 0, 51, 36
1, 358114, Control_c, 0, 64, 105
1, 358128, Control_c, 0, 64, 105
1, 358143, Control_c, 0, 64, 95
1, 358158, Control_c, 0, 64, 78
1, 358173, Control_c, 0, 64, 66
1, 358187, Control_c, 0, 64, 57
1, 358202, Control_c, 0, 64, 45
1, 358202, Control_c, 0, 67, 71
1, 358211, Note_on_c, 0, 50, 47
1, 358213, Note_on_c, 0, 43, 36
1, 358217, Control_c, 0, 64, 40
1, 358217, Control_c, 0, 67, 70
1, 358232, Control_c, 0, 64, 42
1, 358247, Control_c, 0, 64, 45
1, 358261, Control_c, 0, 64, 49
1, 358276, Control_c, 0, 64, 54
1, 358291, Control_c, 0, 64, 58
1, 358306, Control_c, 0, 64, 63
1, 358321, Control_c, 0, 64, 67
1, 358336, Control_c, 0, 64, 74
1, 358351, Control_c, 0, 64, 79
1, 358366, Control_c, 0, 64, 82
1, 358369, Note_off_c, 0, 70, 59
1, 358380, Control_c, 0, 64, 84
1, 358387, Note_off_c, 0, 50, 60
1, 358402, Control_c, 0, 64, 87
1, 358417, Control_c, 0, 64, 89
1, 358417, Control_c, 0, 67, 70
1, 358422, Note_off_c, 0, 43, 42
1, 358433, Control_c, 0, 64, 89
1, 358448, Control_c, 0, 64, 90
1, 358463, Control_c, 0, 64, 94
1, 358477, Control_c, 0, 64, 106
1, 358477, Control_c, 0, 67, 69
1, 358492, Control_c, 0, 64, 127
1, 358537, Control_c, 0, 64, 101
1, 358551, Control_c, 0, 64, 79
1, 358551, Control_c, 0, 67, 69
1, 358566, Control_c, 0, 64, 66
1, 358581, Control_c, 0, 64, 58
1, 358583, Note_on_c, 0, 70, 65
1, 358591, Note_on_c, 0, 43, 33
1, 358596, Control_c, 0, 64, 54
1, 358610, Control_c, 0, 64, 55
1, 358613, Note_on_c, 0, 50, 16
1, 358625, Control_c, 0, 64, 58
1, 358640, Control_c, 0, 64, 59
1, 358655, Control_c, 0, 64, 61
1, 358670, Control_c, 0, 64, 63
1, 358685, Control_c, 0, 64, 66
1, 358700, Control_c, 0, 64, 73
1, 358715, Control_c, 0, 64, 82
1, 358729, Control_c, 0, 64, 86
1, 358744, Control_c, 0, 64, 89
1, 358744, Control_c, 0, 67, 69
1, 358759, Control_c, 0, 64, 95
1, 358774, Control_c, 0, 64, 109
1, 358774, Control_c, 0, 67, 70
1, 358789, Control_c, 0, 64, 127
1, 358789, Control_c, 0, 67, 70
1, 358829, Note_off_c, 0, 50, 41
1, 358839, Note_off_c, 0, 43, 44
1, 358995, Control_c, 0, 64, 101
1, 359010, Control_c, 0, 64, 80
1, 359019, Note_on_c, 0, 69, 58
1, 359025, Control_c, 0, 64, 66
1, 359031, Note_on_c, 0, 43, 42
1, 359034, Note_on_c, 0, 50, 27
1, 359040, Control_c, 0, 64, 55
1, 359055, Control_c, 0, 64, 34
1, 359057, Note_off_c, 0, 70, 53
1, 359070, Control_c, 0, 64, 0
1, 359196, Control_c, 0, 64, 25
1, 359210, Control_c, 0, 64, 34
1, 359226, Control_c, 0, 64, 43
1, 359241, Control_c, 0, 64, 52
1, 359256, Control_c, 0, 64, 60
1, 359271, Control_c, 0, 64, 64
1, 359286, Control_c, 0, 64, 66
1, 359315, Control_c, 0, 64, 67
1, 359323, Note_off_c, 0, 50, 38
1, 359330, Control_c, 0, 64, 70
1, 359345, Control_c, 0, 64, 76
1, 359360, Control_c, 0, 64, 82
1, 359370, Note_off_c, 0, 43, 42
1, 359374, Control_c, 0, 64, 85
1, 359389, Control_c, 0, 64, 91
1, 359404, Control_c, 0, 64, 98
1, 359419, Control_c, 0, 64, 100
1, 359433, Control_c, 0, 64, 96
1, 359433, Control_c, 0, 67, 71
1, 359448, Control_c, 0, 64, 83
1, 359463, Control_c, 0, 64, 69
1, 359463, Control_c, 0, 67, 71
1, 359478, Note_on_c, 0, 50, 33
1, 359478, Control_c, 0, 64, 56
1, 359489, Note_on_c, 0, 42, 42
1, 359493, Control_c, 0, 64, 39
1, 359507, Control_c, 0, 64, 32
1, 359522, Control_c, 0, 64, 34
1, 359522, Control_c, 0, 67, 72
1, 359537, Control_c, 0, 64, 36
1, 359552, Control_c, 0, 64, 39
1, 359567, Control_c, 0, 64, 44
1, 359567, Control_c, 0, 67, 73
1, 359582, Control_c, 0, 64, 51
1, 359597, Control_c, 0, 64, 57
1, 359612, Control_c, 0, 64, 62
1, 359612, Control_c, 0, 67, 73
1, 359626, Control_c, 0, 64, 66
1, 359641, Control_c, 0, 64, 70
1, 359656, Control_c, 0, 64, 72
1, 359657, Note_off_c, 0, 69, 48
1, 359668, Note_off_c, 0, 42, 48
1, 359671, Control_c, 0, 64, 73
1, 359686, Control_c, 0, 64, 75
1, 359689, Note_off_c, 0, 50, 39
1, 359700, Control_c, 0, 64, 84
1, 359715, Control_c, 0, 64, 107
1, 359730, Control_c, 0, 64, 127
1, 359789, Control_c, 0, 64, 108
1, 359804, Control_c, 0, 64, 79
1, 359818, Control_c, 0, 64, 65
1, 359828, Note_on_c, 0, 42, 44
1, 359830, Note_on_c, 0, 69, 59
1, 359833, Control_c, 0, 64, 56
1, 359848, Control_c, 0, 64, 46
1, 359851, Note_on_c, 0, 50, 30
1, 359878, Control_c, 0, 64, 50
1, 359893, Control_c, 0, 64, 52
1, 359915, Control_c, 0, 64, 56
1, 359930, Control_c, 0, 64, 59
1, 359945, Control_c, 0, 64, 63
1, 359959, Control_c, 0, 64, 67
1, 359974, Control_c, 0, 64, 72
1, 359989, Control_c, 0, 64, 76
1, 360004, Control_c, 0, 64, 78
1, 360019, Control_c, 0, 64, 81
1, 360026, Note_off_c, 0, 42, 48
1, 360035, Control_c, 0, 64, 91
1, 360049, Control_c, 0, 64, 127
1, 360067, Note_off_c, 0, 50, 40
1, 360138, Control_c, 0, 64, 85
1, 360138, Control_c, 0, 67, 74
1, 360153, Control_c, 0, 64, 63
1, 360168, Control_c, 0, 64, 50
1, 360177, Note_on_c, 0, 50, 58
1, 360178, Note_on_c, 0, 42, 45
1, 360183, Control_c, 0, 64, 41
1, 360197, Control_c, 0, 64, 44
1, 360212, Control_c, 0, 64, 48
1, 360227, Control_c, 0, 64, 51
1, 360242, Control_c, 0, 64, 56
1, 360242, Control_c, 0, 67, 74
1, 360247, Note_off_c, 0, 69, 35
1, 360256, Control_c, 0, 64, 60
1, 360256, Control_c, 0, 67, 75
1, 360271, Control_c, 0, 64, 64
1, 360286, Control_c, 0, 64, 70
1, 360286, Control_c, 0, 67, 76
1, 360301, Control_c, 0, 64, 78
1, 360301, Control_c, 0, 67, 78
1, 360316, Control_c, 0, 64, 84
1, 360316, Control_c, 0, 67, 78
1, 360330, Control_c, 0, 64, 89
1, 360345, Control_c, 0, 64, 96
1, 360360, Control_c, 0, 64, 106
1, 360360, Control_c, 0, 67, 79
1, 360375, Control_c, 0, 64, 122
1, 360382, Note_off_c, 0, 50, 59
1, 360390, Control_c, 0, 64, 127
1, 360390, Control_c, 0, 67, 79
1, 360399, Note_off_c, 0, 42, 34
1, 360405, Control_c, 0, 67, 80
1, 360420, Control_c, 0, 67, 81
1, 360435, Control_c, 0, 67, 82
1, 360494, Control_c, 0, 64, 83
1, 360509, Control_c, 0, 64, 64
1, 360523, Control_c, 0, 64, 46
1, 360527, Note_on_c, 0, 50, 60
1, 360538, Control_c, 0, 64, 20
1, 360542, Note_on_c, 0, 43, 48
1, 360550, Note_on_c, 0, 41, 39
1, 360553, Control_c, 0, 64, 0
1, 360567, Control_c, 0, 64, 11
1, 360582, Control_c, 0, 64, 19
1, 360597, Control_c, 0, 64, 26
1, 360612, Control_c, 0, 64, 32
1, 360627, Control_c, 0, 64, 40
1, 360649, Control_c, 0, 64, 48
1, 360664, Control_c, 0, 64, 56
1, 360679, Control_c, 0, 64, 64
1, 360694, Control_c, 0, 64, 73
1, 360709, Control_c, 0, 64, 77
1, 360723, Control_c, 0, 64, 78
1, 360738, Control_c, 0, 64, 80
1, 360753, Control_c, 0, 64, 86
1, 360768, Control_c, 0, 64, 94
1, 360771, Note_off_c, 0, 43, 55
1, 360782, Control_c, 0, 64, 98
1, 360790, Note_off_c, 0, 50, 59
1, 360799, Note_off_c, 0, 41, 37
1, 360812, Control_c, 0, 64, 100
1, 360828, Control_c, 0, 64, 127
1, 360858, Control_c, 0, 67, 81
1, 360902, Control_c, 0, 64, 101
1, 360917, Control_c, 0, 64, 70
1, 360932, Note_on_c, 0, 71, 73
1, 360932, Control_c, 0, 64, 59
1, 360941, Note_on_c, 0, 50, 45
1, 360943, Note_on_c, 0, 41, 28
1, 360944, Note_on_c, 0, 43, 32
1, 360946, Control_c, 0, 64, 45
1, 360961, Control_c, 0, 64, 38
1, 360976, Control_c, 0, 64, 40
1, 360991, Control_c, 0, 64, 43
1, 360991, Control_c, 0, 67, 81
1, 361005, Control_c, 0, 64, 47
1, 361005, Control_c, 0, 67, 80
1, 361020, Control_c, 0, 64, 52
1, 361035, Control_c, 0, 64, 58
1, 361050, Control_c, 0, 64, 63
1, 361065, Control_c, 0, 64, 67
1, 361079, Control_c, 0, 64, 72
1, 361094, Control_c, 0, 64, 75
1, 361109, Control_c, 0, 64, 78
1, 361124, Control_c, 0, 64, 82
1, 361139, Control_c, 0, 64, 89
1, 361153, Control_c, 0, 64, 101
1, 361154, Note_off_c, 0, 50, 60
1, 361167, Note_off_c, 0, 43, 42
1, 361168, Note_off_c, 0, 41, 40
1, 361168, Control_c, 0, 64, 127
1, 361168, Control_c, 0, 67, 80
1, 361183, Control_c, 0, 67, 79
1, 361227, Control_c, 0, 64, 103
1, 361242, Control_c, 0, 64, 72
1, 361257, Control_c, 0, 64, 56
1, 361268, Note_on_c, 0, 50, 65
1, 361272, Control_c, 0, 64, 23
1, 361272, Note_on_c, 0, 41, 46
1, 361272, Note_on_c, 0, 43, 48
1, 361287, Control_c, 0, 64, 0
1, 361346, Control_c, 0, 64, 11
1, 361361, Control_c, 0, 64, 28
1, 361376, Control_c, 0, 64, 39
1, 361397, Control_c, 0, 64, 54
1, 361412, Control_c, 0, 64, 64
1, 361427, Control_c, 0, 64, 75
1, 361442, Control_c, 0, 64, 79
1, 361457, Control_c, 0, 64, 80
1, 361465, Note_off_c, 0, 71, 62
1, 361472, Control_c, 0, 64, 83
1, 361487, Control_c, 0, 64, 95
1, 361487, Note_off_c, 0, 50, 57
1, 361502, Control_c, 0, 64, 127
1, 361511, Note_off_c, 0, 43, 33
1, 361514, Note_off_c, 0, 41, 37
1, 361546, Control_c, 0, 67, 80
1, 361621, Control_c, 0, 64, 93
1, 361633, Note_on_c, 0, 48, 70
1, 361636, Control_c, 0, 64, 67
1, 361637, Note_on_c, 0, 43, 58
1, 361647, Note_on_c, 0, 39, 57
1, 361651, Control_c, 0, 64, 53
1, 361666, Control_c, 0, 64, 26
1, 361681, Control_c, 0, 64, 0
1, 361710, Control_c, 0, 64, 12
1, 361725, Control_c, 0, 64, 25
1, 361740, Control_c, 0, 64, 34
1, 361755, Control_c, 0, 64, 43
1, 361769, Control_c, 0, 64, 54
1, 361784, Control_c, 0, 64, 63
1, 361799, Control_c, 0, 64, 72
1, 361814, Control_c, 0, 64, 80
1, 361828, Control_c, 0, 64, 81
1, 361843, Control_c, 0, 64, 84
1, 361858, Control_c, 0, 64, 89
1, 361873, Control_c, 0, 64, 103
1, 361888, Control_c, 0, 64, 115
1, 361902, Control_c, 0, 64, 117
1, 361902, Control_c, 0, 67, 80
1, 361904, Note_off_c, 0, 39, 37
1, 361908, Note_off_c, 0, 48, 61
1, 361920, Note_off_c, 0, 43, 36
1, 361947, Control_c, 0, 64, 127
1, 362073, Note_on_c, 0, 43, 39
1, 362081, Note_on_c, 0, 39, 37
1, 362082, Note_on_c, 0, 48, 50
1, 362087, Note_on_c, 0, 71, 70
1, 362095, Control_c, 0, 64, 83
1, 362110, Control_c, 0, 64, 65
1, 362125, Control_c, 0, 64, 53
1, 362146, Control_c, 0, 64, 31
1, 362161, Control_c, 0, 64, 0
1, 362191, Control_c, 0, 64, 14
1, 362206, Control_c, 0, 64, 23
1, 362220, Control_c, 0, 64, 32
1, 362235, Control_c, 0, 64, 41
1, 362250, Control_c, 0, 64, 52
1, 362265, Control_c, 0, 64, 63
1, 362280, Control_c, 0, 64, 74
1, 362295, Control_c, 0, 64, 83
1, 362324, Control_c, 0, 64, 85
1, 362333, Note_on_c, 0, 72, 68
1, 362339, Control_c, 0, 64, 92
1, 362345, Note_off_c, 0, 48, 60
1, 362347, Note_off_c, 0, 39, 39
1, 362349, Note_off_c, 0, 43, 36
1, 362354, Control_c, 0, 64, 102
1, 362369, Control_c, 0, 64, 107
1, 362399, Control_c, 0, 67, 81
1, 362414, Control_c, 0, 64, 108
1, 362429, Control_c, 0, 64, 127
1, 362432, Note_off_c, 0, 71, 62
1, 362488, Control_c, 0, 64, 119
1, 362503, Control_c, 0, 64, 70
1, 362518, Control_c, 0, 64, 51
1, 362533, Control_c, 0, 64, 0
1, 362542, Note_on_c, 0, 48, 59
1, 362553, Note_on_c, 0, 43, 39
1, 362556, Note_on_c, 0, 39, 47
1, 362577, Control_c, 0, 64, 12
1, 362592, Control_c, 0, 64, 28
1, 362607, Control_c, 0, 64, 41
1, 362622, Control_c, 0, 64, 53
1, 362637, Control_c, 0, 64, 64
1, 362639, Note_off_c, 0, 39, 63
1, 362651, Control_c, 0, 64, 70
1, 362655, Note_off_c, 0, 48, 64
1, 362660, Note_off_c, 0, 43, 36
1, 362666, Control_c, 0, 64, 72
1, 362681, Control_c, 0, 64, 74
1, 362696, Control_c, 0, 64, 76
1, 362711, Control_c, 0, 64, 81
1, 362725, Control_c, 0, 64, 85
1, 362725, Control_c, 0, 67, 81
1, 362766, Note_off_c, 0, 72, 54
1, 362784, Control_c, 0, 64, 86
1, 362799, Control_c, 0, 64, 88
1, 362814, Control_c, 0, 64, 89
1, 362843, Control_c, 0, 64, 90
1, 362858, Control_c, 0, 64, 95
1, 362873, Control_c, 0, 64, 103
1, 362896, Control_c, 0, 64, 105
1, 362925, Control_c, 0, 64, 98
1, 362940, Control_c, 0, 64, 80
1, 362955, Control_c, 0, 64, 65
1, 362969, Control_c, 0, 64, 53
1, 362973, Note_on_c, 0, 60, 52
1, 362975, Note_on_c, 0, 55, 50
1, 362983, Note_on_c, 0, 48, 44
1, 362984, Control_c, 0, 64, 31
1, 362999, Control_c, 0, 64, 0
1, 363043, Control_c, 0, 64, 11
1, 363058, Control_c, 0, 64, 18
1, 363073, Control_c, 0, 64, 24
1, 363088, Control_c, 0, 64, 31
1, 363102, Control_c, 0, 64, 39
1, 363117, Control_c, 0, 64, 51
1, 363132, Control_c, 0, 64, 60
1, 363147, Control_c, 0, 64, 67
1, 363162, Control_c, 0, 64, 73
1, 363177, Control_c, 0, 64, 74
1, 363192, Control_c, 0, 64, 76
1, 363207, Control_c, 0, 64, 81
1, 363222, Control_c, 0, 64, 87
1, 363222, Control_c, 0, 67, 82
1, 363225, Note_off_c, 0, 55, 59
1, 363237, Control_c, 0, 64, 91
1, 363238, Note_off_c, 0, 60, 62
1, 363245, Note_off_c, 0, 48, 36
1, 363252, Control_c, 0, 64, 92
1, 363281, Control_c, 0, 64, 94
1, 363296, Control_c, 0, 64, 127
1, 363371, Control_c, 0, 64, 108
1, 363386, Control_c, 0, 64, 77
1, 363398, Note_on_c, 0, 60, 35
1, 363400, Control_c, 0, 64, 61
1, 363407, Note_on_c, 0, 55, 31
1, 363415, Control_c, 0, 64, 46
1, 363418, Note_on_c, 0, 48, 31
1, 363425, Note_on_c, 0, 77, 60
1, 363430, Control_c, 0, 64, 24
1, 363445, Control_c, 0, 64, 18
1, 363460, Control_c, 0, 64, 21
1, 363474, Control_c, 0, 64, 26
1, 363489, Control_c, 0, 64, 31
1, 363504, Control_c, 0, 64, 37
1, 363519, Control_c, 0, 64, 43
1, 363534, Control_c, 0, 64, 52
1, 363548, Control_c, 0, 64, 61
1, 363563, Control_c, 0, 64, 68
1, 363578, Control_c, 0, 64, 74
1, 363606, Note_on_c, 0, 75, 70
1, 363607, Control_c, 0, 64, 74
1, 363622, Control_c, 0, 64, 76
1, 363637, Control_c, 0, 64, 82
1, 363656, Note_off_c, 0, 60, 51
1, 363660, Control_c, 0, 64, 91
1, 363662, Note_off_c, 0, 55, 42
1, 363666, Note_off_c, 0, 48, 43
1, 363674, Control_c, 0, 64, 94
1, 363674, Control_c, 0, 67, 81
1, 363689, Control_c, 0, 64, 98
1, 363704, Control_c, 0, 64, 104
1, 363706, Note_off_c, 0, 77, 56
1, 363719, Control_c, 0, 64, 108
1, 363733, Control_c, 0, 64, 107
1, 363748, Control_c, 0, 64, 90
1, 363763, Control_c, 0, 64, 72
1, 363779, Control_c, 0, 64, 57
1, 363793, Note_on_c, 0, 48, 47
1, 363793, Note_on_c, 0, 60, 50
1, 363794, Control_c, 0, 64, 37
1, 363796, Note_on_c, 0, 55, 42
1, 363808, Control_c, 0, 64, 0
1, 363823, Control_c, 0, 67, 81
1, 363838, Control_c, 0, 64, 16
1, 363853, Control_c, 0, 64, 25
1, 363867, Control_c, 0, 64, 32
1, 363882, Control_c, 0, 64, 41
1, 363897, Control_c, 0, 64, 50
1, 363912, Control_c, 0, 64, 60
1, 363926, Control_c, 0, 64, 67
1, 363941, Control_c, 0, 64, 72
1, 363956, Control_c, 0, 64, 72
1, 363967, Note_off_c, 0, 60, 64
1, 363970, Note_off_c, 0, 55, 58
1, 363971, Control_c, 0, 64, 73
1, 363973, Note_off_c, 0, 48, 36
1, 363986, Control_c, 0, 64, 75
1, 364000, Control_c, 0, 64, 82
1, 364000, Control_c, 0, 67, 80
1, 364016, Control_c, 0, 64, 92
1, 364031, Control_c, 0, 64, 97
1, 364041, Note_off_c, 0, 75, 40
1, 364046, Control_c, 0, 64, 97
1, 364076, Control_c, 0, 64, 94
1, 364090, Control_c, 0, 64, 82
1, 364105, Control_c, 0, 64, 66
1, 364120, Control_c, 0, 64, 52
1, 364135, Control_c, 0, 64, 16
1, 364150, Control_c, 0, 64, 0
1, 364164, Control_c, 0, 67, 80
1, 364170, Note_on_c, 0, 58, 39
1, 364182, Note_on_c, 0, 55, 15
1, 364191, Note_on_c, 0, 50, 29
1, 364223, Control_c, 0, 64, 11
1, 364238, Control_c, 0, 64, 24
1, 364238, Control_c, 0, 67, 79
1, 364253, Control_c, 0, 64, 38
1, 364268, Control_c, 0, 64, 50
1, 364283, Control_c, 0, 64, 62
1, 364283, Control_c, 0, 67, 79
1, 364298, Control_c, 0, 64, 72
1, 364313, Control_c, 0, 64, 77
1, 364313, Control_c, 0, 67, 78
1, 364328, Control_c, 0, 64, 77
1, 364342, Control_c, 0, 64, 80
1, 364357, Control_c, 0, 64, 95
1, 364372, Control_c, 0, 64, 127
1, 364378, Note_off_c, 0, 58, 61
1, 364404, Note_off_c, 0, 55, 50
1, 364417, Note_off_c, 0, 50, 41
1, 364498, Control_c, 0, 64, 111
1, 364512, Control_c, 0, 64, 74
1, 364512, Control_c, 0, 67, 79
1, 364527, Control_c, 0, 64, 59
1, 364536, Note_on_c, 0, 75, 52
1, 364542, Control_c, 0, 64, 25
1, 364542, Control_c, 0, 67, 79
1, 364544, Note_on_c, 0, 55, 36
1, 364547, Note_on_c, 0, 58, 31
1, 364554, Note_on_c, 0, 50, 32
1, 364556, Control_c, 0, 64, 0
1, 364616, Control_c, 0, 64, 13
1, 364630, Control_c, 0, 64, 31
1, 364645, Control_c, 0, 64, 46
1, 364660, Control_c, 0, 64, 57
1, 364675, Control_c, 0, 64, 65
1, 364690, Control_c, 0, 64, 72
1, 364704, Control_c, 0, 64, 75
1, 364715, Note_on_c, 0, 74, 47
1, 364734, Control_c, 0, 64, 76
1, 364748, Control_c, 0, 64, 80
1, 364751, Note_off_c, 0, 55, 43
1, 364752, Note_off_c, 0, 58, 46
1, 364763, Control_c, 0, 64, 87
1, 364774, Note_off_c, 0, 50, 41
1, 364778, Control_c, 0, 64, 91
1, 364778, Control_c, 0, 67, 79
1, 364787, Note_off_c, 0, 75, 37
1, 364824, Control_c, 0, 64, 86
1, 364838, Control_c, 0, 64, 73
1, 364853, Control_c, 0, 64, 63
1, 364868, Control_c, 0, 64, 50
1, 364883, Control_c, 0, 64, 34
1, 364898, Control_c, 0, 64, 30
1, 364908, Note_on_c, 0, 55, 35
1, 364919, Note_on_c, 0, 58, 35
1, 364924, Note_on_c, 0, 50, 30
1, 364927, Control_c, 0, 64, 31
1, 364942, Control_c, 0, 64, 34
1, 364957, Control_c, 0, 64, 37
1, 364971, Control_c, 0, 64, 41
1, 364986, Control_c, 0, 64, 47
1, 365001, Control_c, 0, 64, 55
1, 365016, Control_c, 0, 64, 61
1, 365025, Note_off_c, 0, 55, 54
1, 365031, Control_c, 0, 64, 65
1, 365046, Control_c, 0, 64, 67
1, 365061, Control_c, 0, 64, 68
1, 365076, Control_c, 0, 64, 69
1, 365083, Note_off_c, 0, 58, 54
1, 365091, Control_c, 0, 64, 74
1, 365106, Control_c, 0, 64, 79
1, 365107, Note_off_c, 0, 50, 38
1, 365120, Control_c, 0, 64, 82
1, 365147, Note_off_c, 0, 74, 43
1, 365171, Control_c, 0, 64, 84
1, 365186, Control_c, 0, 64, 92
1, 365201, Control_c, 0, 64, 98
1, 365216, Control_c, 0, 64, 99
1, 365231, Control_c, 0, 64, 96
1, 365246, Control_c, 0, 64, 85
1, 365261, Control_c, 0, 64, 73
1, 365275, Control_c, 0, 64, 63
1, 365290, Control_c, 0, 64, 54
1, 365305, Control_c, 0, 64, 37
1, 365308, Note_on_c, 0, 57, 38
1, 365317, Note_on_c, 0, 60, 37
1, 365319, Control_c, 0, 64, 14
1, 365332, Note_on_c, 0, 50, 18
1, 365334, Control_c, 0, 64, 12
1, 365349, Control_c, 0, 64, 14
1, 365363, Control_c, 0, 64, 18
1, 365378, Control_c, 0, 64, 20
1, 365393, Control_c, 0, 64, 22
1, 365408, Control_c, 0, 64, 25
1, 365423, Control_c, 0, 64, 29
1, 365437, Control_c, 0, 64, 37
1, 365452, Control_c, 0, 64, 46
1, 365467, Control_c, 0, 64, 54
1, 365482, Control_c, 0, 64, 59
1, 365496, Control_c, 0, 64, 62
1, 365511, Control_c, 0, 64, 62
1, 365526, Control_c, 0, 64, 63
1, 365541, Control_c, 0, 64, 64
1, 365556, Control_c, 0, 64, 69
1, 365559, Note_off_c, 0, 60, 41
1, 365571, Control_c, 0, 64, 75
1, 365586, Control_c, 0, 64, 77
1, 365591, Note_off_c, 0, 57, 34
1, 365631, Control_c, 0, 64, 78
1, 365646, Control_c, 0, 64, 80
1, 365660, Control_c, 0, 64, 84
1, 365675, Control_c, 0, 64, 87
1, 365690, Control_c, 0, 64, 88
1, 365705, Control_c, 0, 64, 88
1, 365711, Note_off_c, 0, 50, 36
1, 365764, Control_c, 0, 64, 85
1, 365767, Note_on_c, 0, 57, 26
1, 365779, Control_c, 0, 64, 75
1, 365794, Control_c, 0, 64, 65
1, 365795, Note_on_c, 0, 60, 34
1, 365796, Note_on_c, 0, 51, 31
1, 365809, Control_c, 0, 64, 56
1, 365814, Note_on_c, 0, 67, 52
1, 365824, Control_c, 0, 64, 42
1, 365839, Control_c, 0, 64, 31
1, 365854, Control_c, 0, 67, 78
1, 365868, Control_c, 0, 64, 32
1, 365890, Control_c, 0, 64, 34
1, 365905, Control_c, 0, 64, 36
1, 365920, Control_c, 0, 64, 38
1, 365935, Control_c, 0, 64, 41
1, 365949, Control_c, 0, 64, 47
1, 365964, Control_c, 0, 64, 53
1, 365964, Control_c, 0, 67, 78
1, 365979, Control_c, 0, 64, 59
1, 365994, Control_c, 0, 64, 63
1, 366009, Control_c, 0, 64, 64
1, 366024, Control_c, 0, 64, 65
1, 366039, Control_c, 0, 64, 65
1, 366054, Control_c, 0, 64, 67
1, 366068, Control_c, 0, 64, 70
1, 366083, Control_c, 0, 64, 71
1, 366096, Note_off_c, 0, 57, 39
1, 366098, Control_c, 0, 64, 72
1, 366101, Note_off_c, 0, 51, 40
1, 366107, Note_off_c, 0, 60, 41
1, 366127, Control_c, 0, 67, 77
1, 366146, Note_on_c, 0, 66, 52
1, 366157, Control_c, 0, 67, 77
1, 366186, Control_c, 0, 67, 76
1, 366231, Control_c, 0, 64, 72
1, 366246, Control_c, 0, 64, 73
1, 366290, Control_c, 0, 64, 72
1, 366305, Control_c, 0, 64, 72
1, 366319, Control_c, 0, 64, 71
1, 366322, Note_off_c, 0, 67, 52
1, 366334, Control_c, 0, 64, 69
1, 366334, Control_c, 0, 67, 76
1, 366349, Control_c, 0, 64, 67
1, 366364, Control_c, 0, 64, 62
1, 366379, Control_c, 0, 64, 53
1, 366390, Note_on_c, 0, 57, 40
1, 366393, Control_c, 0, 64, 38
1, 366399, Note_on_c, 0, 60, 36
1, 366409, Control_c, 0, 64, 13
1, 366411, Note_on_c, 0, 51, 36
1, 366424, Control_c, 0, 64, 0
1, 366528, Control_c, 0, 64, 14
1, 366542, Control_c, 0, 64, 22
1, 366557, Control_c, 0, 64, 30
1, 366572, Control_c, 0, 64, 36
1, 366587, Control_c, 0, 64, 43
1, 366602, Control_c, 0, 64, 49
1, 366617, Control_c, 0, 64, 55
1, 366639, Control_c, 0, 64, 59
1, 366654, Control_c, 0, 64, 62
1, 366669, Control_c, 0, 64, 63
1, 366684, Control_c, 0, 64, 63
1, 366698, Control_c, 0, 64, 64
1, 366711, Note_off_c, 0, 60, 55
1, 366713, Control_c, 0, 64, 66
1, 366723, Note_off_c, 0, 57, 33
1, 366728, Control_c, 0, 64, 68
1, 366729, Note_off_c, 0, 51, 41
1, 366742, Control_c, 0, 64, 70
1, 366757, Control_c, 0, 67, 75
1, 366772, Control_c, 0, 67, 74
1, 366787, Control_c, 0, 64, 71
1, 366787, Control_c, 0, 67, 74
1, 366802, Control_c, 0, 64, 72
1, 366816, Control_c, 0, 64, 77
1, 366816, Control_c, 0, 67, 73
1, 366831, Control_c, 0, 64, 86
1, 366846, Control_c, 0, 64, 95
1, 366846, Note_off_c, 0, 66, 36
1, 366861, Control_c, 0, 64, 100
1, 366876, Control_c, 0, 64, 101
1, 366890, Control_c, 0, 64, 98
1, 366905, Control_c, 0, 64, 87
1, 366920, Control_c, 0, 64, 75
1, 366930, Note_on_c, 0, 51, 42
1, 366932, Note_on_c, 0, 57, 44
1, 366933, Note_on_c, 0, 60, 43
1, 366934, Control_c, 0, 64, 65
1, 366949, Control_c, 0, 64, 62
1, 366964, Control_c, 0, 64, 63
1, 366979, Control_c, 0, 64, 64
1, 366994, Control_c, 0, 64, 65
1, 367008, Control_c, 0, 64, 66
1, 367023, Control_c, 0, 64, 67
1, 367038, Control_c, 0, 64, 68
1, 367038, Control_c, 0, 67, 74
1, 367053, Control_c, 0, 64, 71
1, 367068, Control_c, 0, 64, 74
1, 367068, Control_c, 0, 67, 74
1, 367082, Control_c, 0, 64, 78
1, 367097, Control_c, 0, 64, 79
1, 367112, Control_c, 0, 64, 80
1, 367127, Control_c, 0, 64, 82
1, 367128, Note_off_c, 0, 57, 54
1, 367142, Note_off_c, 0, 60, 58
1, 367142, Control_c, 0, 64, 85
1, 367156, Control_c, 0, 64, 88
1, 367159, Note_off_c, 0, 51, 36
1, 367171, Control_c, 0, 64, 89
1, 367186, Control_c, 0, 64, 90
1, 367186, Control_c, 0, 67, 75
1, 367201, Control_c, 0, 64, 91
1, 367217, Control_c, 0, 64, 96
1, 367217, Control_c, 0, 67, 75
1, 367231, Control_c, 0, 64, 101
1, 367246, Control_c, 0, 64, 103
1, 367285, Note_on_c, 0, 51, 49
1, 367288, Note_on_c, 0, 60, 45
1, 367291, Control_c, 0, 64, 106
1, 367293, Note_on_c, 0, 57, 37
1, 367306, Control_c, 0, 64, 127
1, 367320, Control_c, 0, 67, 76
1, 367350, Control_c, 0, 67, 76
1, 367402, Control_c, 0, 67, 77
1, 367410, Note_off_c, 0, 57, 54
1, 367432, Note_off_c, 0, 51, 53
1, 367434, Note_off_c, 0, 60, 62
1, 367506, Control_c, 0, 67, 77
1, 367536, Control_c, 0, 67, 78
1, 367565, Control_c, 0, 67, 78
1, 367639, Control_c, 0, 67, 79
1, 367648, Note_on_c, 0, 66, 73
1, 367662, Note_on_c, 0, 51, 38
1, 367663, Note_on_c, 0, 60, 34
1, 367665, Note_on_c, 0, 57, 34
1, 367714, Control_c, 0, 67, 79
1, 367820, Note_off_c, 0, 51, 56
1, 367847, Control_c, 0, 67, 80
1, 367856, Note_off_c, 0, 60, 43
1, 367921, Control_c, 0, 67, 80
1, 367965, Control_c, 0, 67, 81
1, 367980, Control_c, 0, 67, 81
1, 368011, Control_c, 0, 67, 82
1, 368026, Control_c, 0, 67, 82
1, 368041, Control_c, 0, 67, 83
1, 368115, Control_c, 0, 67, 83
1, 368137, Control_c, 0, 67, 84
1, 368182, Control_c, 0, 67, 84
1, 368192, Note_off_c, 0, 57, 36
1, 368209, Note_on_c, 0, 60, 35
1, 368211, Control_c, 0, 67, 85
1, 368219, Note_on_c, 0, 54, 32
1, 368226, Control_c, 0, 67, 87
1, 368241, Control_c, 0, 67, 90
1, 368248, Note_on_c, 0, 50, 28
1, 368253, Note_on_c, 0, 69, 65
1, 368256, Control_c, 0, 67, 92
1, 368270, Control_c, 0, 64, 79
1, 368270, Control_c, 0, 67, 94
1, 368285, Control_c, 0, 64, 62
1, 368285, Control_c, 0, 67, 94
1, 368300, Control_c, 0, 64, 45
1, 368300, Control_c, 0, 67, 95
1, 368314, Control_c, 0, 64, 0
1, 368329, Control_c, 0, 67, 96
1, 368344, Control_c, 0, 67, 97
1, 368359, Control_c, 0, 67, 98
1, 368374, Control_c, 0, 67, 99
1, 368388, Control_c, 0, 67, 100
1, 368403, Control_c, 0, 67, 100
1, 368448, Control_c, 0, 64, 22
1, 368452, Note_off_c, 0, 66, 58
1, 368462, Control_c, 0, 64, 34
1, 368477, Control_c, 0, 64, 43
1, 368492, Control_c, 0, 64, 53
1, 368507, Control_c, 0, 64, 61
1, 368522, Control_c, 0, 64, 65
1, 368537, Control_c, 0, 64, 68
1, 368552, Control_c, 0, 64, 71
1, 368566, Control_c, 0, 64, 75
1, 368581, Control_c, 0, 64, 81
1, 368596, Control_c, 0, 64, 86
1, 368611, Control_c, 0, 64, 90
1, 368619, Note_off_c, 0, 60, 54
1, 368626, Note_off_c, 0, 54, 40
1, 368626, Control_c, 0, 64, 92
1, 368627, Note_off_c, 0, 50, 40
1, 368641, Control_c, 0, 64, 92
1, 368655, Control_c, 0, 64, 94
1, 368670, Control_c, 0, 64, 98
1, 368685, Control_c, 0, 64, 109
1, 368700, Control_c, 0, 64, 127
1, 368819, Control_c, 0, 64, 95
1, 368834, Control_c, 0, 64, 76
1, 368849, Control_c, 0, 64, 66
1, 368860, Note_on_c, 0, 60, 29
1, 368864, Control_c, 0, 64, 64
1, 368865, Note_on_c, 0, 62, 49
1, 368868, Note_on_c, 0, 54, 34
1, 368870, Note_on_c, 0, 50, 25
1, 368885, Control_c, 0, 64, 64
1, 368900, Control_c, 0, 64, 65
1, 368930, Control_c, 0, 64, 65
1, 368945, Control_c, 0, 64, 67
1, 368960, Control_c, 0, 64, 71
1, 368975, Control_c, 0, 64, 75
1, 368990, Control_c, 0, 64, 79
1, 369005, Control_c, 0, 64, 81
1, 369019, Control_c, 0, 64, 81
1, 369034, Control_c, 0, 64, 82
1, 369049, Control_c, 0, 64, 84
1, 369064, Control_c, 0, 64, 89
1, 369069, Note_off_c, 0, 54, 39
1, 369079, Control_c, 0, 64, 92
1, 369081, Note_off_c, 0, 50, 41
1, 369087, Note_off_c, 0, 60, 42
1, 369108, Control_c, 0, 67, 100
1, 369137, Control_c, 0, 64, 92
1, 369137, Control_c, 0, 67, 99
1, 369152, Control_c, 0, 64, 93
1, 369182, Control_c, 0, 67, 99
1, 369197, Control_c, 0, 67, 98
1, 369211, Control_c, 0, 64, 94
1, 369226, Control_c, 0, 64, 94
1, 369241, Control_c, 0, 64, 95
1, 369271, Control_c, 0, 64, 94
1, 369285, Control_c, 0, 64, 90
1, 369300, Control_c, 0, 64, 82
1, 369315, Control_c, 0, 64, 72
1, 369330, Control_c, 0, 64, 65
1, 369339, Note_on_c, 0, 60, 32
1, 369344, Control_c, 0, 64, 57
1, 369346, Note_on_c, 0, 63, 44
1, 369355, Note_on_c, 0, 50, 23
1, 369356, Note_on_c, 0, 54, 28
1, 369359, Control_c, 0, 64, 46
1, 369374, Control_c, 0, 64, 36
1, 369389, Control_c, 0, 64, 34
1, 369404, Control_c, 0, 64, 37
1, 369407, Note_off_c, 0, 63, 0
1, 369407, Note_on_c, 0, 63, 3
1, 369419, Control_c, 0, 64, 39
1, 369423, Note_off_c, 0, 62, 33
1, 369434, Control_c, 0, 64, 42
1, 369449, Control_c, 0, 64, 45
1, 369464, Control_c, 0, 64, 49
1, 369478, Control_c, 0, 64, 54
1, 369493, Control_c, 0, 64, 60
1, 369508, Control_c, 0, 64, 64
1, 369523, Control_c, 0, 64, 65
1, 369523, Control_c, 0, 67, 98
1, 369537, Control_c, 0, 64, 66
1, 369552, Control_c, 0, 64, 67
1, 369567, Control_c, 0, 64, 70
1, 369581, Note_off_c, 0, 60, 41
1, 369582, Control_c, 0, 64, 74
1, 369597, Control_c, 0, 64, 77
1, 369613, Control_c, 0, 64, 79
1, 369634, Control_c, 0, 64, 81
1, 369646, Note_on_c, 0, 62, 45
1, 369649, Control_c, 0, 64, 83
1, 369664, Control_c, 0, 64, 85
1, 369679, Control_c, 0, 64, 89
1, 369694, Control_c, 0, 64, 92
1, 369708, Control_c, 0, 64, 93
1, 369738, Control_c, 0, 64, 94
1, 369753, Control_c, 0, 64, 98
1, 369768, Control_c, 0, 64, 102
1, 369768, Note_off_c, 0, 54, 37
1, 369783, Control_c, 0, 64, 105
1, 369795, Note_off_c, 0, 63, 42
1, 369827, Control_c, 0, 64, 105
1, 369842, Control_c, 0, 64, 108
1, 369857, Control_c, 0, 64, 109
1, 369857, Control_c, 0, 67, 97
1, 369872, Control_c, 0, 64, 110
1, 369902, Control_c, 0, 67, 97
1, 369994, Note_off_c, 0, 62, 27
1, 370064, Control_c, 0, 67, 96
1, 370153, Control_c, 0, 64, 109
1, 370167, Control_c, 0, 64, 104
1, 370182, Control_c, 0, 64, 95
1, 370182, Control_c, 0, 67, 96
1, 370193, Note_on_c, 0, 62, 23
1, 370197, Control_c, 0, 64, 86
1, 370203, Note_on_c, 0, 67, 39
1, 370204, Note_on_c, 0, 55, 32
1, 370212, Control_c, 0, 64, 76
1, 370214, Note_on_c, 0, 58, 22
1, 370227, Control_c, 0, 64, 67
1, 370242, Control_c, 0, 64, 59
1, 370257, Control_c, 0, 64, 47
1, 370272, Control_c, 0, 64, 22
1, 370286, Control_c, 0, 64, 0
1, 370312, Note_off_c, 0, 69, 51
1, 370388, Note_off_c, 0, 50, 27
1, 370561, Control_c, 0, 67, 95
1, 370709, Control_c, 0, 67, 95
1, 370724, Control_c, 0, 64, 13
1, 370739, Control_c, 0, 64, 23
1, 370739, Control_c, 0, 67, 94
1, 370754, Control_c, 0, 64, 31
1, 370769, Control_c, 0, 64, 38
1, 370774, Note_off_c, 0, 55, 30
1, 370783, Control_c, 0, 64, 46
1, 370798, Control_c, 0, 64, 52
1, 370813, Control_c, 0, 64, 57
1, 370828, Control_c, 0, 64, 61
1, 370843, Control_c, 0, 64, 63
1, 370857, Control_c, 0, 64, 64
1, 370872, Control_c, 0, 64, 66
1, 370887, Control_c, 0, 64, 68
1, 370901, Control_c, 0, 64, 71
1, 370916, Control_c, 0, 64, 73
1, 370931, Control_c, 0, 64, 75
1, 370946, Control_c, 0, 64, 77
1, 370961, Control_c, 0, 64, 80
1, 370975, Control_c, 0, 64, 84
1, 370975, Control_c, 0, 67, 95
1, 370990, Control_c, 0, 64, 88
1, 371005, Control_c, 0, 64, 90
1, 371005, Control_c, 0, 67, 95
1, 371020, Control_c, 0, 64, 91
1, 371035, Control_c, 0, 64, 92
1, 371050, Control_c, 0, 64, 95
1, 371050, Control_c, 0, 67, 96
1, 371064, Control_c, 0, 64, 102
1, 371079, Control_c, 0, 64, 107
1, 371079, Control_c, 0, 67, 96
1, 371094, Control_c, 0, 64, 108
1, 371094, Control_c, 0, 67, 97
1, 371104, Note_off_c, 0, 58, 37
1, 371124, Control_c, 0, 64, 109
1, 371124, Control_c, 0, 67, 97
1, 371146, Control_c, 0, 64, 115
1, 371161, Control_c, 0, 64, 127
1, 371161, Control_c, 0, 67, 98
1, 371266, Control_c, 0, 67, 98
1, 371290, Note_off_c, 0, 62, 43
1, 371297, Note_off_c, 0, 67, 38
1, 371310, Control_c, 0, 64, 114
1, 371325, Control_c, 0, 64, 106
1, 371339, Control_c, 0, 64, 104
1, 371369, Control_c, 0, 64, 103
1, 371384, Control_c, 0, 64, 101
1, 371399, Control_c, 0, 64, 98
1, 371413, Control_c, 0, 64, 94
1, 371428, Control_c, 0, 64, 93
1, 371443, Control_c, 0, 64, 93
1, 371458, Control_c, 0, 64, 92
1, 371473, Control_c, 0, 64, 91
1, 371488, Control_c, 0, 64, 89
1, 371503, Control_c, 0, 64, 84
1, 371518, Control_c, 0, 64, 79
1, 371532, Control_c, 0, 64, 77
1, 371547, Control_c, 0, 64, 74
1, 371562, Control_c, 0, 64, 72
1, 371577, Control_c, 0, 64, 70
1, 371592, Control_c, 0, 64, 68
1, 371606, Control_c, 0, 64, 65
1, 371621, Control_c, 0, 64, 62
1, 371636, Control_c, 0, 64, 61
1, 371651, Control_c, 0, 64, 61
1, 371651, Control_c, 0, 67, 98
1, 371666, Control_c, 0, 64, 60
1, 371680, Control_c, 0, 64, 59
1, 371695, Control_c, 0, 64, 57
1, 371710, Control_c, 0, 64, 51
1, 371724, Control_c, 0, 64, 43
1, 371739, Control_c, 0, 64, 33
1, 371754, Control_c, 0, 64, 22
1, 371769, Control_c, 0, 64, 9
1, 371784, Control_c, 0, 64, 0
1, 371984, Control_c, 0, 64, 14
1, 371999, Control_c, 0, 64, 22
1, 372015, Control_c, 0, 64, 27
1, 372029, Control_c, 0, 64, 31
1, 372044, Control_c, 0, 64, 36
1, 372059, Control_c, 0, 64, 42
1, 372074, Control_c, 0, 64, 49
1, 372089, Control_c, 0, 64, 55
1, 372104, Control_c, 0, 64, 59
1, 372118, Control_c, 0, 64, 61
1, 372120, Note_on_c, 0, 58, 39
1, 372133, Control_c, 0, 64, 62
1, 372133, Control_c, 0, 67, 98
1, 372135, Note_on_c, 0, 34, 32
1, 372148, Control_c, 0, 64, 63
1, 372158, Note_on_c, 0, 46, 19
1, 372162, Control_c, 0, 64, 65
1, 372177, Control_c, 0, 64, 68
1, 372192, Control_c, 0, 64, 71
1, 372207, Control_c, 0, 64, 73
1, 372222, Control_c, 0, 64, 74
1, 372236, Control_c, 0, 64, 75
1, 372251, Control_c, 0, 64, 76
1, 372266, Control_c, 0, 64, 78
1, 372281, Control_c, 0, 64, 81
1, 372296, Control_c, 0, 64, 85
1, 372310, Control_c, 0, 64, 87
1, 372319, Note_off_c, 0, 46, 40
1, 372325, Control_c, 0, 64, 89
1, 372340, Control_c, 0, 64, 89
1, 372353, Note_off_c, 0, 58, 33
1, 372370, Control_c, 0, 64, 90
1, 372385, Control_c, 0, 64, 92
1, 372400, Control_c, 0, 64, 94
1, 372405, Note_off_c, 0, 34, 34
1, 372415, Control_c, 0, 64, 95
1, 372488, Control_c, 0, 67, 99
1, 372533, Control_c, 0, 64, 94
1, 372533, Control_c, 0, 67, 99
1, 372547, Control_c, 0, 64, 93
1, 372562, Control_c, 0, 64, 90
1, 372577, Control_c, 0, 64, 87
1, 372592, Control_c, 0, 64, 83
1, 372607, Control_c, 0, 64, 79
1, 372629, Control_c, 0, 64, 75
1, 372644, Control_c, 0, 64, 73
1, 372659, Control_c, 0, 64, 71
1, 372674, Control_c, 0, 64, 68
1, 372688, Control_c, 0, 64, 65
1, 372703, Control_c, 0, 64, 61
1, 372718, Control_c, 0, 64, 56
1, 372718, Control_c, 0, 67, 100
1, 372733, Control_c, 0, 64, 50
1, 372748, Control_c, 0, 64, 43
1, 372762, Control_c, 0, 64, 37
1, 372762, Control_c, 0, 67, 100
1, 372777, Control_c, 0, 64, 32
1, 372792, Control_c, 0, 64, 26
1, 372808, Control_c, 0, 64, 18
1, 372823, Control_c, 0, 64, 0
1, 373015, Control_c, 0, 64, 14
1, 373030, Control_c, 0, 64, 23
1, 373045, Control_c, 0, 64, 31
1, 373059, Control_c, 0, 64, 36
1, 373074, Control_c, 0, 64, 41
1, 373089, Control_c, 0, 64, 47
1, 373103, Control_c, 0, 64, 52
1, 373118, Control_c, 0, 64, 57
1, 373133, Control_c, 0, 64, 59
1, 373148, Control_c, 0, 64, 60
1, 373163, Control_c, 0, 64, 62
1, 373169, Note_on_c, 0, 57, 36
1, 373171, Note_on_c, 0, 33, 35
1, 373178, Control_c, 0, 64, 63
1, 373193, Control_c, 0, 64, 65
1, 373208, Control_c, 0, 64, 67
1, 373221, Poly_aftertouch_c, 0, 45, 127
1, 373223, Control_c, 0, 64, 69
1, 373238, Control_c, 0, 64, 70
1, 373252, Control_c, 0, 64, 71
1, 373267, Control_c, 0, 64, 72
1, 373278, Note_off_c, 0, 57, 0
1, 373282, Control_c, 0, 64, 73
1, 373296, Control_c, 0, 64, 75
1, 373306, Poly_aftertouch_c, 0, 45, 0
1, 373311, Control_c, 0, 64, 77
1, 373315, Poly_aftertouch_c, 0, 57, 127
1, 373326, Control_c, 0, 64, 78
1, 373378, Control_c, 0, 64, 79
1, 373380, Note_off_c, 0, 33, 37
1, 373393, Control_c, 0, 64, 80
1, 373405, Poly_aftertouch_c, 0, 57, 0
1, 373407, Control_c, 0, 64, 82
1, 373422, Control_c, 0, 64, 84
1, 373571, Control_c, 0, 64, 83
1, 373585, Control_c, 0, 64, 83
1, 373601, Control_c, 0, 64, 82
1, 373616, Control_c, 0, 64, 80
1, 373631, Control_c, 0, 64, 77
1, 373646, Control_c, 0, 64, 74
1, 373661, Control_c, 0, 64, 72
1, 373675, Control_c, 0, 64, 70
1, 373690, Control_c, 0, 64, 70
1, 373705, Control_c, 0, 64, 68
1, 373720, Control_c, 0, 64, 66
1, 373734, Control_c, 0, 64, 63
1, 373749, Control_c, 0, 64, 59
1, 373764, Control_c, 0, 64, 53
1, 373779, Control_c, 0, 64, 45
1, 373794, Control_c, 0, 64, 39
1, 373808, Control_c, 0, 64, 32
1, 373823, Control_c, 0, 64, 27
1, 373838, Control_c, 0, 64, 21
1, 373853, Control_c, 0, 64, 13
1, 373868, Control_c, 0, 64, 0
1, 374075, Control_c, 0, 64, 9
1, 374090, Control_c, 0, 64, 21
1, 374105, Control_c, 0, 64, 28
1, 374126, Control_c, 0, 64, 34
1, 374126, Control_c, 0, 67, 100
1, 374141, Control_c, 0, 64, 40
1, 374156, Control_c, 0, 64, 47
1, 374171, Control_c, 0, 64, 54
1, 374171, Control_c, 0, 67, 99
1, 374186, Control_c, 0, 64, 58
1, 374200, Control_c, 0, 64, 61
1, 374215, Control_c, 0, 64, 62
1, 374230, Control_c, 0, 64, 64
1, 374245, Control_c, 0, 64, 65
1, 374256, Note_on_c, 0, 38, 36
1, 374260, Control_c, 0, 64, 67
1, 374275, Note_on_c, 0, 62, 37
1, 374275, Control_c, 0, 64, 70
1, 374290, Control_c, 0, 64, 73
1, 374293, Poly_aftertouch_c, 0, 50, 127
1, 374305, Control_c, 0, 64, 75
1, 374320, Control_c, 0, 64, 77
1, 374335, Control_c, 0, 64, 79
1, 374349, Control_c, 0, 64, 81
1, 374364, Control_c, 0, 64, 82
1, 374379, Control_c, 0, 64, 83
1, 374394, Control_c, 0, 64, 85
1, 374410, Control_c, 0, 64, 87
1, 374424, Control_c, 0, 64, 89
1, 374436, Poly_aftertouch_c, 0, 50, 0
1, 374439, Control_c, 0, 64, 89
1, 374444, Note_off_c, 0, 38, 37
1, 374454, Control_c, 0, 64, 90
1, 374469, Control_c, 0, 64, 90
1, 374478, Note_off_c, 0, 62, 44
1, 374484, Control_c, 0, 64, 92
1, 374498, Control_c, 0, 64, 92
1, 374647, Control_c, 0, 64, 92
1, 374662, Control_c, 0, 64, 90
1, 374676, Control_c, 0, 64, 86
1, 374676, Control_c, 0, 67, 99
1, 374691, Control_c, 0, 64, 83
1, 374691, Control_c, 0, 67, 98
1, 374706, Control_c, 0, 64, 81
1, 374721, Control_c, 0, 64, 80
1, 374736, Control_c, 0, 64, 77
1, 374736, Control_c, 0, 67, 98
1, 374750, Control_c, 0, 64, 73
1, 374765, Control_c, 0, 64, 68
1, 374780, Control_c, 0, 64, 64
1, 374795, Control_c, 0, 64, 60
1, 374810, Control_c, 0, 64, 55
1, 374824, Control_c, 0, 64, 49
1, 374824, Control_c, 0, 67, 97
1, 374839, Control_c, 0, 64, 41
1, 374839, Control_c, 0, 67, 97
1, 374854, Control_c, 0, 64, 37
1, 374891, Control_c, 0, 67, 96
1, 374921, Control_c, 0, 64, 37
1, 374936, Control_c, 0, 64, 36
1, 374951, Control_c, 0, 64, 33
1, 374965, Control_c, 0, 64, 26
1, 374980, Control_c, 0, 64, 15
1, 374995, Control_c, 0, 64, 0
1, 375172, Control_c, 0, 64, 18
1, 375187, Control_c, 0, 64, 25
1, 375202, Control_c, 0, 64, 33
1, 375217, Control_c, 0, 64, 40
1, 375232, Control_c, 0, 64, 48
1, 375247, Control_c, 0, 64, 56
1, 375262, Control_c, 0, 64, 60
1, 375276, Control_c, 0, 64, 61
1, 375291, Control_c, 0, 64, 62
1, 375306, Control_c, 0, 64, 64
1, 375321, Control_c, 0, 64, 66
1, 375336, Control_c, 0, 64, 69
1, 375351, Control_c, 0, 64, 71
1, 375351, Control_c, 0, 67, 97
1, 375359, Note_on_c, 0, 59, 40
1, 375361, Note_on_c, 0, 43, 31
1, 375366, Control_c, 0, 64, 73
1, 375372, Note_on_c, 0, 50, 24
1, 375378, Note_on_c, 0, 55, 31
1, 375395, Control_c, 0, 64, 74
1, 375410, Control_c, 0, 64, 75
1, 375425, Control_c, 0, 64, 78
1, 375440, Control_c, 0, 64, 80
1, 375454, Control_c, 0, 64, 81
1, 375498, Control_c, 0, 64, 81
1, 375513, Control_c, 0, 64, 83
1, 375518, Note_off_c, 0, 55, 32
1, 375528, Control_c, 0, 64, 85
1, 375543, Control_c, 0, 64, 86
1, 375551, Note_off_c, 0, 59, 38
1, 375563, Note_off_c, 0, 50, 40
1, 375565, Note_off_c, 0, 43, 40
1, 375654, Control_c, 0, 67, 95
1, 375669, Control_c, 0, 67, 94
1, 375684, Control_c, 0, 67, 93
1, 375699, Control_c, 0, 64, 85
1, 375699, Control_c, 0, 67, 92
1, 375713, Control_c, 0, 64, 84
1, 375713, Control_c, 0, 67, 91
1, 375728, Control_c, 0, 64, 83
1, 375728, Control_c, 0, 67, 90
1, 375743, Control_c, 0, 64, 83
1, 375743, Control_c, 0, 67, 89
1, 375758, Control_c, 0, 64, 81
1, 375758, Control_c, 0, 67, 87
1, 375773, Control_c, 0, 64, 79
1, 375773, Control_c, 0, 67, 86
1, 375787, Control_c, 0, 64, 77
1, 375802, Control_c, 0, 64, 76
1, 375817, Control_c, 0, 64, 76
1, 375832, Control_c, 0, 64, 75
1, 375847, Control_c, 0, 64, 74
1, 375861, Control_c, 0, 64, 73
1, 375876, Control_c, 0, 64, 73
1, 375876, Control_c, 0, 67, 87
1, 375905, Control_c, 0, 67, 87
1, 375935, Control_c, 0, 67, 88
1, 376144, Control_c, 0, 64, 73
1, 376159, Control_c, 0, 64, 74
1, 376174, Control_c, 0, 67, 87
1, 376189, Control_c, 0, 64, 74
1, 376203, Control_c, 0, 64, 76
1, 376203, Control_c, 0, 67, 87
1, 376218, Control_c, 0, 64, 77
1, 376233, Control_c, 0, 64, 79
1, 376248, Control_c, 0, 64, 81
1, 376263, Control_c, 0, 64, 82
1, 376277, Control_c, 0, 64, 83
1, 376292, Control_c, 0, 64, 85
1, 376292, Control_c, 0, 67, 86
1, 376307, Control_c, 0, 64, 89
1, 376321, Control_c, 0, 64, 94
1, 376336, Control_c, 0, 64, 99
1, 376351, Control_c, 0, 64, 101
1, 376388, Control_c, 0, 67, 86
1, 376403, Control_c, 0, 64, 103
1, 376418, Control_c, 0, 64, 108
1, 376418, Control_c, 0, 67, 85
1, 376433, Control_c, 0, 64, 114
1, 376447, Control_c, 0, 64, 115
1, 376462, Control_c, 0, 64, 117
1, 376492, Control_c, 0, 64, 122
1, 376507, Control_c, 0, 64, 127
1, 376512, Note_on_c, 0, 43, 25
1, 376514, Note_on_c, 0, 31, 31
1, 376515, Note_on_c, 0, 59, 43
1, 376533, Note_on_c, 0, 50, 19
1, 376533, Note_on_c, 0, 55, 28
1, 376543, Note_on_c, 0, 38, 19
1, 376581, Control_c, 0, 67, 85
1, 376654, Control_c, 0, 67, 84
1, 376699, Control_c, 0, 67, 84
1, 376714, Control_c, 0, 67, 82
1, 376728, Control_c, 0, 67, 76
1, 376743, Control_c, 0, 67, 69
1, 376758, Note_off_c, 0, 31, 33
1, 376758, Control_c, 0, 67, 59
1, 376773, Control_c, 0, 67, 50
1, 376785, Note_off_c, 0, 43, 39
1, 376788, Control_c, 0, 67, 42
1, 376804, Control_c, 0, 67, 34
1, 376818, Control_c, 0, 67, 27
1, 376819, Note_off_c, 0, 38, 27
1, 376833, Control_c, 0, 67, 20
1, 376844, Note_off_c, 0, 55, 33
1, 376844, Note_off_c, 0, 50, 38
1, 376848, Control_c, 0, 67, 14
1, 376852, Note_off_c, 0, 59, 34
1, 376863, Control_c, 0, 67, 0
1, 377625, Note_on_c, 0, 59, 57
1, 377637, Note_on_c, 0, 55, 45
1, 377640, Note_on_c, 0, 31, 41
1, 377648, Note_on_c, 0, 38, 34
1, 377650, Note_on_c, 0, 50, 33
1, 377653, Note_on_c, 0, 43, 31
1, 377888, Note_off_c, 0, 43, 39
1, 377927, Note_off_c, 0, 31, 30
1, 377950, Note_off_c, 0, 50, 39
1, 377989, Note_off_c, 0, 38, 27
1, 378126, Note_off_c, 0, 55, 35
1, 378208, Note_off_c, 0, 59, 31
1, 378781, Note_on_c, 0, 59, 75
1, 378794, Note_on_c, 0, 55, 61
1, 378797, Note_on_c, 0, 31, 51
1, 378797, Note_on_c, 0, 38, 45
1, 378797, Note_on_c, 0, 50, 51
1, 378797, Note_on_c, 0, 43, 51
1, 379084, Note_off_c, 0, 50, 63
1, 379147, Note_off_c, 0, 43, 37
1, 379198, Note_off_c, 0, 31, 37
1, 379287, Note_off_c, 0, 38, 31
1, 379289, Note_off_c, 0, 55, 36
1, 379399, Note_off_c, 0, 59, 34
1, 379980, Note_on_c, 0, 59, 83
1, 379985, Note_on_c, 0, 43, 66
1, 379985, Note_on_c, 0, 55, 78
1, 379986, Note_on_c, 0, 38, 61
1, 379987, Note_on_c, 0, 50, 67
1, 379998, Note_on_c, 0, 31, 55
1, 380361, Note_off_c, 0, 31, 37
1, 380363, Note_off_c, 0, 43, 34
1, 380418, Note_off_c, 0, 50, 36
1, 380526, Note_off_c, 0, 55, 38
1, 380530, Note_off_c, 0, 38, 34
1, 380561, Note_off_c, 0, 59, 37
1, 381229, Note_on_c, 0, 43, 84
1, 381229, Note_on_c, 0, 50, 89
1, 381231, Note_on_c, 0, 55, 87
1, 381232, Note_on_c, 0, 59, 84
1, 381234, Note_on_c, 0, 38, 74
1, 381244, Note_on_c, 0, 31, 65
1, 381519, Note_off_c, 0, 50, 56
1, 381569, Note_off_c, 0, 31, 38
1, 381613, Note_off_c, 0, 59, 59
1, 381614, Note_off_c, 0, 55, 59
1, 381620, Note_off_c, 0, 43, 32
1, 381831, Note_off_c, 0, 38, 31
1, 382431, Note_on_c, 0, 50, 95
1, 382434, Note_on_c, 0, 43, 95
1, 382434, Note_on_c, 0, 62, 97
1, 382435, Note_on_c, 0, 55, 86
1, 382437, Note_on_c, 0, 38, 87
1, 382439, Note_on_c, 0, 59, 78
1, 382444, Note_on_c, 0, 35, 75
1, 382451, Note_on_c, 0, 31, 75
1, 382729, Note_off_c, 0, 43, 60
1, 382794, Note_off_c, 0, 50, 57
1, 382794, Note_off_c, 0, 31, 25
1, 382895, Note_off_c, 0, 35, 38
1, 382920, Note_off_c, 0, 62, 57
1, 382923, Note_off_c, 0, 55, 59
1, 382943, Note_off_c, 0, 59, 36
1, 383003, Note_off_c, 0, 38, 19
1, 383689, Note_on_c, 0, 50, 90
1, 383693, Note_on_c, 0, 62, 92
1, 383695, Note_on_c, 0, 43, 94
1, 383697, Note_on_c, 0, 55, 83
1, 383698, Note_on_c, 0, 59, 78
1, 383700, Note_on_c, 0, 38, 86
1, 383703, Note_on_c, 0, 35, 70
1, 383706, Note_on_c, 0, 31, 72
1, 384060, Note_off_c, 0, 31, 37
1, 384065, Note_off_c, 0, 43, 38
1, 384114, Note_off_c, 0, 50, 56
1, 384146, Note_off_c, 0, 35, 31
1, 384213, Note_off_c, 0, 55, 59
1, 384222, Note_off_c, 0, 59, 35
1, 384222, Note_off_c, 0, 62, 55
1, 384263, Note_off_c, 0, 38, 23
1, 384964, Note_on_c, 0, 50, 91
1, 384967, Note_on_c, 0, 43, 97
1, 384967, Note_on_c, 0, 62, 94
1, 384972, Note_on_c, 0, 55, 81
1, 384973, Note_on_c, 0, 38, 86
1, 384973, Note_on_c, 0, 59, 75
1, 384975, Note_on_c, 0, 35, 72
1, 384981, Note_on_c, 0, 31, 68
1, 385331, Note_off_c, 0, 50, 58
1, 385365, Note_off_c, 0, 43, 34
1, 385377, Note_off_c, 0, 31, 27
1, 385439, Note_off_c, 0, 62, 55
1, 385451, Note_off_c, 0, 55, 55
1, 385451, Note_off_c, 0, 59, 27
1, 385678, Note_off_c, 0, 38, 24
1, 385877, Note_off_c, 0, 35, 1
1, 386306, Note_on_c, 0, 50, 89
1, 386308, Note_on_c, 0, 62, 89
1, 386310, Note_on_c, 0, 55, 78
1, 386312, Note_on_c, 0, 43, 85
1, 386315, Note_on_c, 0, 59, 75
1, 386315, Note_on_c, 0, 38, 80
1, 386317, Note_on_c, 0, 35, 65
1, 386325, Note_on_c, 0, 31, 73
1, 386497, Note_off_c, 0, 31, 50
1, 386517, Note_off_c, 0, 43, 38
1, 386593, Note_off_c, 0, 35, 0
1, 386676, Poly_aftertouch_c, 0, 35, 0
1, 386775, Note_off_c, 0, 38, 35
1, 387085, Note_off_c, 0, 50, 61
1, 388068, Note_on_c, 0, 31, 73
1, 388414, Note_off_c, 0, 55, 32
1, 388540, Note_on_c, 0, 35, 66
1, 388615, Note_off_c, 0, 59, 24
1, 388854, Note_off_c, 0, 62, 31
1, 389299, Note_on_c, 0, 38, 63
1, 389710, Note_on_c, 0, 43, 68
1, 389841, Note_off_c, 0, 31, 28
1, 389966, Note_off_c, 0, 35, 32
1, 389976, Note_off_c, 0, 38, 37
1, 390159, Note_off_c, 0, 43, 58
1, 390482, Note_on_c, 0, 47, 62
1, 390916, Note_on_c, 0, 50, 49
1, 391766, Note_on_c, 0, 55, 43
1, 392063, Note_off_c, 0, 47, 35
1, 392160, Note_off_c, 0, 55, 39
1, 392175, Note_off_c, 0, 50, 36
1, 392188, Note_on_c, 0, 59, 41
1, 392532, Note_off_c, 0, 59, 55
1, 392718, Control_c, 0, 67, 8
1, 392733, Control_c, 0, 67, 8
1, 392861, Control_c, 0, 67, 8
1, 392891, Control_c, 0, 67, 0
1, 393092, Note_on_c, 0, 62, 36
1, 393563, Note_on_c, 0, 67, 46
1, 393925, Note_off_c, 0, 62, 51
1, 394202, Control_c, 0, 67, 8
1, 394217, Control_c, 0, 67, 8
1, 394232, Control_c, 0, 67, 9
1, 394246, Control_c, 0, 67, 9
1, 394261, Control_c, 0, 67, 10
1, 394276, Control_c, 0, 67, 10
1, 394290, Control_c, 0, 67, 11
1, 394305, Control_c, 0, 67, 12
1, 394310, Note_off_c, 0, 67, 38
1, 394320, Control_c, 0, 67, 14
1, 394335, Control_c, 0, 67, 15
1, 394357, Control_c, 0, 67, 16
1, 394373, Control_c, 0, 67, 16
1, 394388, Control_c, 0, 67, 18
1, 394402, Control_c, 0, 67, 19
1, 394417, Control_c, 0, 67, 21
1, 394432, Control_c, 0, 67, 23
1, 394447, Control_c, 0, 67, 26
1, 394462, Control_c, 0, 67, 29
1, 394477, Control_c, 0, 67, 32
1, 394492, Control_c, 0, 67, 36
1, 394507, Control_c, 0, 67, 42
1, 394522, Control_c, 0, 67, 47
1, 394537, Control_c, 0, 67, 53
1, 394551, Control_c, 0, 67, 58
1, 394566, Control_c, 0, 67, 62
1, 394581, Control_c, 0, 67, 66
1, 394596, Control_c, 0, 67, 70
1, 394611, Control_c, 0, 67, 75
1, 394626, Control_c, 0, 67, 78
1, 394640, Control_c, 0, 67, 81
1, 394655, Control_c, 0, 67, 84
1, 394670, Control_c, 0, 67, 86
1, 394685, Control_c, 0, 67, 88
1, 394700, Control_c, 0, 67, 91
1, 394703, Note_on_c, 0, 71, 41
1, 394714, Control_c, 0, 67, 94
1, 394729, Control_c, 0, 67, 97
1, 394744, Control_c, 0, 67, 100
1, 394759, Control_c, 0, 67, 103
1, 394774, Control_c, 0, 67, 107
1, 394788, Control_c, 0, 67, 109
1, 394803, Control_c, 0, 67, 111
1, 394818, Control_c, 0, 67, 113
1, 394833, Control_c, 0, 67, 116
1, 394848, Control_c, 0, 67, 119
1, 394862, Control_c, 0, 67, 123
1, 394877, Control_c, 0, 67, 125
1, 394892, Control_c, 0, 67, 127
1, 395597, Control_c, 0, 64, 96
1, 395612, Control_c, 0, 64, 78
1, 395626, Control_c, 0, 64, 67
1, 395641, Control_c, 0, 64, 60
1, 395650, Note_on_c, 0, 74, 51
1, 395656, Control_c, 0, 64, 47
1, 395671, Control_c, 0, 64, 18
1, 395686, Control_c, 0, 64, 0
1, 395771, Note_off_c, 0, 71, 47
1, 396356, Note_on_c, 0, 69, 46
1, 396470, Note_off_c, 0, 74, 58
1, 397025, Note_on_c, 0, 72, 51
1, 397167, Note_off_c, 0, 69, 54
1, 397666, Note_on_c, 0, 67, 52
1, 397797, Note_off_c, 0, 72, 54
1, 398296, Note_on_c, 0, 71, 55
1, 398468, Note_off_c, 0, 67, 53
1, 398945, Note_on_c, 0, 66, 51
1, 399122, Note_off_c, 0, 71, 60
1, 399563, Note_on_c, 0, 67, 51
1, 399602, Note_off_c, 0, 66, 59
1, 399984, Note_on_c, 0, 69, 47
1, 399988, Note_off_c, 0, 67, 55
1, 400200, Note_off_c, 0, 69, 61
1, 400221, Note_on_c, 0, 71, 40
1, 400422, Control_c, 0, 64, 12
1, 400437, Control_c, 0, 64, 18
1, 400452, Control_c, 0, 64, 25
1, 400467, Control_c, 0, 64, 34
1, 400481, Control_c, 0, 64, 40
1, 400496, Control_c, 0, 64, 45
1, 400511, Control_c, 0, 64, 49
1, 400526, Control_c, 0, 64, 51
1, 400674, Control_c, 0, 64, 50
1, 400704, Control_c, 0, 64, 50
1, 400778, Control_c, 0, 64, 49
1, 400793, Control_c, 0, 64, 49
1, 400823, Control_c, 0, 64, 48
1, 400838, Control_c, 0, 64, 47
1, 400853, Control_c, 0, 64, 46
1, 400867, Note_on_c, 0, 79, 58
1, 400868, Control_c, 0, 64, 44
1, 400882, Control_c, 0, 64, 43
1, 400897, Control_c, 0, 64, 42
1, 400912, Control_c, 0, 64, 42
1, 400942, Control_c, 0, 64, 41
1, 400956, Control_c, 0, 64, 41
1, 400965, Note_off_c, 0, 71, 57
1, 400971, Control_c, 0, 64, 40
1, 400986, Control_c, 0, 64, 40
1, 401071, Note_on_c, 0, 72, 45
1, 401157, Control_c, 0, 64, 39
1, 401186, Control_c, 0, 64, 39
1, 401201, Control_c, 0, 64, 38
1, 401216, Control_c, 0, 64, 36
1, 401231, Control_c, 0, 64, 35
1, 401244, Note_off_c, 0, 72, 50
1, 401246, Control_c, 0, 64, 33
1, 401248, Note_on_c, 0, 71, 47
1, 401261, Control_c, 0, 64, 32
1, 401394, Control_c, 0, 64, 32
1, 401424, Note_on_c, 0, 74, 67
1, 401424, Control_c, 0, 64, 31
1, 401438, Control_c, 0, 64, 30
1, 401453, Control_c, 0, 64, 27
1, 401468, Control_c, 0, 64, 24
1, 401480, Note_off_c, 0, 79, 43
1, 401482, Control_c, 0, 64, 20
1, 401497, Control_c, 0, 64, 16
1, 401512, Control_c, 0, 64, 15
1, 401527, Control_c, 0, 64, 13
1, 401542, Control_c, 0, 64, 12
1, 401558, Control_c, 0, 64, 11
1, 401577, Note_off_c, 0, 71, 63
1, 401628, Note_on_c, 0, 69, 48
1, 401632, Control_c, 0, 64, 12
1, 401647, Control_c, 0, 64, 12
1, 401661, Control_c, 0, 64, 15
1, 401676, Control_c, 0, 64, 17
1, 401691, Control_c, 0, 64, 19
1, 401705, Control_c, 0, 64, 21
1, 401720, Control_c, 0, 64, 22
1, 401735, Control_c, 0, 64, 24
1, 401750, Control_c, 0, 64, 27
1, 401765, Control_c, 0, 64, 28
1, 401780, Control_c, 0, 64, 29
1, 401795, Control_c, 0, 64, 30
1, 401810, Note_on_c, 0, 68, 48
1, 401824, Note_off_c, 0, 69, 36
1, 401980, Control_c, 0, 64, 28
1, 401986, Note_on_c, 0, 78, 73
1, 401994, Control_c, 0, 64, 25
1, 402009, Control_c, 0, 64, 20
1, 402015, Note_on_c, 0, 69, 36
1, 402020, Note_off_c, 0, 68, 39
1, 402024, Control_c, 0, 64, 14
1, 402039, Control_c, 0, 64, 0
1, 402055, Note_off_c, 0, 69, 48
1, 402199, Note_on_c, 0, 71, 39
1, 402261, Control_c, 0, 64, 8
1, 402276, Control_c, 0, 64, 11
1, 402291, Control_c, 0, 64, 11
1, 402305, Control_c, 0, 64, 12
1, 402352, Note_off_c, 0, 74, 15
1, 402364, Note_on_c, 0, 69, 60
1, 402408, Note_off_c, 0, 71, 59
1, 402450, Note_off_c, 0, 78, 56
1, 402556, Note_on_c, 0, 73, 71
1, 402558, Control_c, 0, 64, 11
1, 402596, Control_c, 0, 64, 10
1, 402610, Control_c, 0, 64, 9
1, 402625, Control_c, 0, 64, 0
1, 402710, Note_off_c, 0, 69, 60
1, 402757, Note_on_c, 0, 67, 48
1, 402925, Note_off_c, 0, 73, 51
1, 402936, Control_c, 0, 64, 11
1, 402939, Note_on_c, 0, 66, 45
1, 402951, Control_c, 0, 64, 14
1, 402966, Control_c, 0, 64, 16
1, 402981, Control_c, 0, 64, 18
1, 402984, Note_off_c, 0, 67, 28
1, 402996, Control_c, 0, 64, 20
1, 403010, Control_c, 0, 64, 22
1, 403025, Control_c, 0, 64, 24
1, 403040, Control_c, 0, 64, 26
1, 403054, Control_c, 0, 64, 29
1, 403069, Control_c, 0, 64, 30
1, 403103, Note_off_c, 0, 66, 53
1, 403114, Control_c, 0, 64, 29
1, 403117, Note_on_c, 0, 76, 73
1, 403128, Control_c, 0, 64, 26
1, 403129, Note_on_c, 0, 67, 44
1, 403143, Control_c, 0, 64, 24
1, 403248, Control_c, 0, 64, 24
1, 403263, Control_c, 0, 64, 25
1, 403277, Control_c, 0, 64, 25
1, 403292, Note_off_c, 0, 67, 31
1, 403292, Control_c, 0, 64, 26
1, 403307, Control_c, 0, 64, 27
1, 403317, Note_on_c, 0, 69, 47
1, 403322, Control_c, 0, 64, 27
1, 403345, Control_c, 0, 64, 28
1, 403359, Control_c, 0, 64, 28
1, 403374, Control_c, 0, 64, 29
1, 403389, Control_c, 0, 64, 29
1, 403404, Control_c, 0, 64, 30
1, 403433, Control_c, 0, 64, 30
1, 403472, Note_off_c, 0, 69, 54
1, 403494, Note_on_c, 0, 67, 47
1, 403537, Control_c, 0, 64, 31
1, 403566, Control_c, 0, 64, 31
1, 403568, Note_off_c, 0, 76, 28
1, 403581, Control_c, 0, 64, 32
1, 403611, Control_c, 0, 64, 33
1, 403625, Note_off_c, 0, 67, 36
1, 403626, Control_c, 0, 64, 32
1, 403640, Control_c, 0, 64, 31
1, 403655, Control_c, 0, 64, 28
1, 403667, Note_on_c, 0, 69, 66
1, 403670, Control_c, 0, 64, 25
1, 403759, Control_c, 0, 64, 26
1, 403774, Control_c, 0, 64, 26
1, 403789, Control_c, 0, 64, 27
1, 403804, Control_c, 0, 64, 28
1, 403819, Control_c, 0, 64, 29
1, 403833, Control_c, 0, 64, 30
1, 403848, Control_c, 0, 64, 31
1, 403850, Note_on_c, 0, 64, 50
1, 403863, Control_c, 0, 64, 31
1, 403877, Control_c, 0, 64, 32
1, 403892, Control_c, 0, 64, 33
1, 403907, Control_c, 0, 64, 34
1, 403922, Control_c, 0, 64, 36
1, 403937, Control_c, 0, 64, 37
1, 403953, Control_c, 0, 64, 39
1, 403968, Control_c, 0, 64, 40
1, 403982, Control_c, 0, 64, 41
1, 403997, Control_c, 0, 64, 43
1, 404012, Control_c, 0, 64, 44
1, 404018, Note_off_c, 0, 64, 29
1, 404027, Control_c, 0, 64, 45
1, 404042, Control_c, 0, 64, 46
1, 404044, Note_on_c, 0, 66, 46
1, 404056, Control_c, 0, 64, 46
1, 404108, Control_c, 0, 64, 47
1, 404123, Control_c, 0, 64, 48
1, 404131, Note_off_c, 0, 66, 38
1, 404138, Control_c, 0, 64, 49
1, 404152, Control_c, 0, 64, 50
1, 404167, Control_c, 0, 64, 51
1, 404182, Control_c, 0, 64, 50
1, 404197, Control_c, 0, 64, 44
1, 404210, Control_c, 0, 64, 31
1, 404218, Note_on_c, 0, 71, 70
1, 404218, Note_off_c, 0, 69, 60
1, 404225, Control_c, 0, 64, 0
1, 404252, Note_on_c, 0, 67, 31
1, 404328, Control_c, 0, 64, 8
1, 404343, Control_c, 0, 64, 14
1, 404358, Control_c, 0, 64, 20
1, 404373, Control_c, 0, 64, 24
1, 404381, Note_off_c, 0, 67, 44
1, 404388, Control_c, 0, 64, 27
1, 404391, Note_on_c, 0, 66, 62
1, 404403, Control_c, 0, 64, 30
1, 404406, Note_off_c, 0, 71, 58
1, 404418, Control_c, 0, 64, 33
1, 404433, Control_c, 0, 64, 38
1, 404448, Control_c, 0, 64, 43
1, 404462, Control_c, 0, 64, 47
1, 404477, Control_c, 0, 64, 51
1, 404492, Control_c, 0, 64, 53
1, 404506, Control_c, 0, 64, 53
1, 404526, Note_off_c, 0, 66, 56
1, 404536, Control_c, 0, 64, 54
1, 404570, Note_on_c, 0, 73, 69
1, 404583, Note_on_c, 0, 64, 53
1, 404615, Note_off_c, 0, 64, 53
1, 404654, Control_c, 0, 64, 54
1, 404669, Control_c, 0, 64, 55
1, 404684, Control_c, 0, 64, 55
1, 404695, Note_off_c, 0, 73, 62
1, 404728, Control_c, 0, 64, 55
1, 404743, Control_c, 0, 64, 51
1, 404759, Control_c, 0, 64, 43
1, 404774, Control_c, 0, 64, 22
1, 404781, Note_on_c, 0, 74, 53
1, 404789, Control_c, 0, 64, 0
1, 404796, Note_on_c, 0, 66, 44
1, 404915, Control_c, 0, 64, 15
1, 404929, Control_c, 0, 64, 21
1, 404944, Control_c, 0, 64, 25
1, 404954, Note_off_c, 0, 66, 49
1, 404960, Control_c, 0, 64, 29
1, 404964, Note_off_c, 0, 74, 60
1, 404972, Note_on_c, 0, 72, 55
1, 404975, Control_c, 0, 64, 32
1, 404990, Control_c, 0, 64, 36
1, 404993, Note_on_c, 0, 69, 36
1, 405004, Control_c, 0, 64, 41
1, 405019, Control_c, 0, 64, 47
1, 405034, Control_c, 0, 64, 51
1, 405048, Control_c, 0, 64, 53
1, 405063, Control_c, 0, 64, 53
1, 405122, Control_c, 0, 64, 54
1, 405126, Note_off_c, 0, 69, 35
1, 405136, Note_off_c, 0, 72, 57
1, 405160, Note_on_c, 0, 71, 49
1, 405175, Note_on_c, 0, 67, 44
1, 405182, Control_c, 0, 64, 53
1, 405269, Note_off_c, 0, 67, 33
1, 405270, Control_c, 0, 64, 53
1, 405285, Control_c, 0, 64, 52
1, 405315, Control_c, 0, 64, 52
1, 405330, Control_c, 0, 64, 51
1, 405345, Control_c, 0, 64, 51
1, 405375, Control_c, 0, 64, 50
1, 405390, Control_c, 0, 64, 50
1, 405395, Note_on_c, 0, 62, 72
1, 405404, Control_c, 0, 64, 49
1, 405408, Note_on_c, 0, 69, 56
1, 405419, Control_c, 0, 64, 47
1, 405424, Note_off_c, 0, 71, 54
1, 405434, Control_c, 0, 64, 44
1, 405448, Control_c, 0, 64, 41
1, 405463, Control_c, 0, 64, 38
1, 405478, Control_c, 0, 64, 35
1, 405493, Control_c, 0, 64, 33
1, 405508, Control_c, 0, 64, 31
1, 405522, Control_c, 0, 64, 28
1, 405537, Control_c, 0, 64, 26
1, 405553, Control_c, 0, 64, 25
1, 405622, Note_on_c, 0, 65, 43
1, 405709, Control_c, 0, 64, 24
1, 405783, Control_c, 0, 64, 24
1, 405805, Note_off_c, 0, 65, 45
1, 405813, Control_c, 0, 64, 22
1, 405813, Note_on_c, 0, 71, 47
1, 405827, Control_c, 0, 64, 20
1, 405842, Control_c, 0, 64, 18
1, 405857, Control_c, 0, 64, 13
1, 405872, Control_c, 0, 64, 0
1, 405959, Note_off_c, 0, 71, 58
1, 405993, Note_off_c, 0, 69, 59
1, 406003, Note_on_c, 0, 57, 68
1, 406011, Note_on_c, 0, 72, 53
1, 406024, Note_on_c, 0, 64, 36
1, 406188, Note_off_c, 0, 72, 50
1, 406191, Note_on_c, 0, 71, 50
1, 406254, Note_off_c, 0, 64, 42
1, 406287, Note_off_c, 0, 62, 60
1, 406310, Note_off_c, 0, 71, 61
1, 406383, Note_on_c, 0, 69, 56
1, 406553, Note_on_c, 0, 60, 73
1, 406576, Note_on_c, 0, 63, 45
1, 406748, Note_on_c, 0, 67, 59
1, 406761, Note_off_c, 0, 69, 52
1, 406771, Note_off_c, 0, 57, 60
1, 406881, Note_off_c, 0, 63, 37
1, 406913, Note_off_c, 0, 67, 61
1, 406929, Note_on_c, 0, 69, 62
1, 406939, Note_on_c, 0, 66, 52
1, 407037, Note_off_c, 0, 66, 0
1, 407037, Note_on_c, 0, 66, 4
1, 407131, Note_off_c, 0, 66, 39
1, 407133, Note_off_c, 0, 69, 57
1, 407142, Note_on_c, 0, 55, 66
1, 407156, Note_on_c, 0, 71, 51
1, 407172, Note_on_c, 0, 62, 41
1, 407315, Note_off_c, 0, 71, 58
1, 407340, Note_on_c, 0, 69, 60
1, 407356, Note_off_c, 0, 60, 59
1, 407395, Note_off_c, 0, 62, 45
1, 407501, Note_off_c, 0, 69, 62
1, 407518, Note_on_c, 0, 67, 58
1, 407706, Note_on_c, 0, 59, 62
1, 407715, Note_on_c, 0, 62, 48
1, 407885, Note_off_c, 0, 62, 53
1, 407897, Note_on_c, 0, 61, 53
1, 407928, Note_off_c, 0, 55, 61
1, 408049, Note_off_c, 0, 67, 49
1, 408070, Note_off_c, 0, 61, 64
1, 408090, Note_on_c, 0, 62, 58
1, 408285, Note_on_c, 0, 54, 50
1, 408288, Note_on_c, 0, 69, 54
1, 408431, Note_off_c, 0, 59, 48
1, 408475, Note_on_c, 0, 71, 64
1, 408483, Note_off_c, 0, 69, 60
1, 408666, Note_on_c, 0, 69, 71
1, 408705, Note_off_c, 0, 71, 63
1, 408733, Control_c, 0, 64, 9
1, 408749, Control_c, 0, 64, 11
1, 408764, Control_c, 0, 64, 13
1, 408778, Control_c, 0, 64, 14
1, 408793, Control_c, 0, 64, 14
1, 408822, Note_off_c, 0, 54, 61
1, 408835, Note_on_c, 0, 55, 46
1, 408838, Control_c, 0, 64, 14
1, 408839, Note_on_c, 0, 71, 71
1, 408852, Control_c, 0, 64, 0
1, 408887, Note_off_c, 0, 69, 59
1, 409016, Note_on_c, 0, 67, 55
1, 409017, Note_off_c, 0, 55, 52
1, 409035, Note_on_c, 0, 53, 41
1, 409035, Note_off_c, 0, 62, 53
1, 409196, Note_on_c, 0, 72, 70
1, 409202, Note_off_c, 0, 53, 35
1, 409215, Note_on_c, 0, 51, 45
1, 409235, Note_off_c, 0, 67, 59
1, 409255, Note_off_c, 0, 71, 55
1, 409394, Note_on_c, 0, 65, 51
1, 409557, Note_off_c, 0, 72, 52
1, 409561, Note_on_c, 0, 71, 54
1, 409566, Note_off_c, 0, 51, 56
1, 409573, Note_on_c, 0, 50, 43
1, 409625, Note_off_c, 0, 65, 59
1, 409631, Control_c, 0, 64, 8
1, 409646, Control_c, 0, 64, 20
1, 409661, Control_c, 0, 64, 28
1, 409675, Control_c, 0, 64, 34
1, 409690, Control_c, 0, 64, 39
1, 409705, Control_c, 0, 64, 44
1, 409719, Control_c, 0, 64, 49
1, 409734, Control_c, 0, 64, 53
1, 409749, Control_c, 0, 64, 54
1, 409753, Note_on_c, 0, 47, 43
1, 409754, Note_on_c, 0, 74, 62
1, 409764, Control_c, 0, 64, 55
1, 409775, Note_on_c, 0, 62, 39
1, 409779, Control_c, 0, 64, 56
1, 409792, Note_off_c, 0, 71, 64
1, 409793, Control_c, 0, 64, 56
1, 409808, Note_off_c, 0, 62, 54
1, 409808, Control_c, 0, 64, 57
1, 409813, Note_off_c, 0, 50, 25
1, 409821, Note_off_c, 0, 74, 63
1, 409823, Control_c, 0, 64, 58
1, 409837, Control_c, 0, 64, 59
1, 409912, Control_c, 0, 64, 58
1, 409956, Control_c, 0, 64, 58
1, 409971, Control_c, 0, 64, 57
1, 409986, Control_c, 0, 64, 55
1, 409994, Note_on_c, 0, 79, 76
1, 410001, Control_c, 0, 64, 53
1, 410016, Control_c, 0, 64, 48
1, 410031, Control_c, 0, 64, 42
1, 410045, Control_c, 0, 64, 37
1, 410060, Control_c, 0, 64, 36
1, 410082, Control_c, 0, 64, 35
1, 410097, Control_c, 0, 64, 34
1, 410112, Control_c, 0, 64, 33
1, 410126, Control_c, 0, 64, 30
1, 410141, Control_c, 0, 64, 28
1, 410156, Control_c, 0, 64, 26
1, 410171, Control_c, 0, 64, 24
1, 410186, Control_c, 0, 64, 21
1, 410200, Control_c, 0, 64, 18
1, 410215, Control_c, 0, 64, 12
1, 410220, Note_on_c, 0, 75, 55
1, 410230, Control_c, 0, 64, 9
1, 410232, Note_on_c, 0, 48, 39
1, 410244, Control_c, 0, 64, 8
1, 410259, Control_c, 0, 64, 0
1, 410288, Note_off_c, 0, 47, 36
1, 410318, Control_c, 0, 64, 8
1, 410333, Control_c, 0, 64, 8
1, 410349, Control_c, 0, 64, 10
1, 410364, Control_c, 0, 64, 12
1, 410379, Control_c, 0, 64, 13
1, 410394, Control_c, 0, 64, 14
1, 410403, Note_off_c, 0, 48, 44
1, 410406, Note_on_c, 0, 51, 47
1, 410409, Control_c, 0, 64, 15
1, 410423, Control_c, 0, 64, 15
1, 410425, Note_on_c, 0, 72, 34
1, 410438, Control_c, 0, 64, 16
1, 410453, Control_c, 0, 64, 16
1, 410555, Note_off_c, 0, 51, 57
1, 410591, Note_on_c, 0, 74, 68
1, 410600, Note_on_c, 0, 55, 42
1, 410614, Note_off_c, 0, 72, 58
1, 410615, Control_c, 0, 64, 16
1, 410628, Note_on_c, 0, 71, 37
1, 410630, Control_c, 0, 64, 14
1, 410645, Control_c, 0, 64, 11
1, 410660, Control_c, 0, 64, 0
1, 410696, Note_off_c, 0, 79, 51
1, 410728, Note_off_c, 0, 71, 0
1, 410728, Note_on_c, 0, 71, 3
1, 410734, Note_off_c, 0, 75, 60
1, 410782, Note_on_c, 0, 53, 49
1, 410782, Note_off_c, 0, 55, 53
1, 410889, Control_c, 0, 64, 9
1, 410904, Control_c, 0, 64, 11
1, 410919, Control_c, 0, 64, 12
1, 410934, Control_c, 0, 64, 12
1, 410955, Note_off_c, 0, 53, 51
1, 410957, Note_off_c, 0, 71, 41
1, 410960, Note_on_c, 0, 51, 55
1, 411113, Note_off_c, 0, 51, 53
1, 411133, Note_on_c, 0, 77, 81
1, 411146, Note_on_c, 0, 50, 39
1, 411167, Note_on_c, 0, 71, 41
1, 411168, Note_off_c, 0, 74, 62
1, 411172, Control_c, 0, 64, 9
1, 411187, Control_c, 0, 64, 0
1, 411228, Note_off_c, 0, 71, 0
1, 411228, Note_on_c, 0, 71, 15
1, 411319, Note_off_c, 0, 50, 56
1, 411333, Note_on_c, 0, 48, 55
1, 411487, Note_on_c, 0, 50, 49
1, 411530, Note_off_c, 0, 48, 32
1, 411594, Control_c, 0, 64, 8
1, 411623, Control_c, 0, 64, 8
1, 411642, Note_off_c, 0, 50, 59
1, 411692, Note_on_c, 0, 53, 45
1, 411692, Note_on_c, 0, 72, 71
1, 411724, Note_on_c, 0, 69, 34
1, 411735, Note_off_c, 0, 71, 50
1, 411758, Control_c, 0, 64, 8
1, 411825, Note_off_c, 0, 77, 58
1, 411892, Note_on_c, 0, 51, 51
1, 411921, Control_c, 0, 64, 8
1, 411930, Note_off_c, 0, 53, 35
1, 411962, Note_off_c, 0, 69, 44
1, 412055, Note_on_c, 0, 74, 76
1, 412071, Note_on_c, 0, 71, 56
1, 412073, Note_on_c, 0, 50, 45
1, 412097, Note_off_c, 0, 51, 36
1, 412111, Note_off_c, 0, 72, 57
1, 412228, Note_off_c, 0, 50, 37
1, 412240, Note_off_c, 0, 71, 62
1, 412244, Note_on_c, 0, 48, 43
1, 412246, Note_on_c, 0, 75, 69
1, 412262, Control_c, 0, 64, 8
1, 412267, Note_off_c, 0, 74, 64
1, 412274, Note_on_c, 0, 67, 46
1, 412277, Control_c, 0, 64, 0
1, 412373, Note_off_c, 0, 67, 0
1, 412373, Note_on_c, 0, 67, 9
1, 412407, Note_off_c, 0, 48, 54
1, 412439, Note_on_c, 0, 47, 56
1, 412484, Note_off_c, 0, 67, 49
1, 412521, Control_c, 0, 64, 11
1, 412536, Control_c, 0, 64, 14
1, 412551, Control_c, 0, 64, 16
1, 412566, Control_c, 0, 64, 18
1, 412581, Control_c, 0, 64, 19
1, 412595, Control_c, 0, 64, 20
1, 412597, Note_off_c, 0, 47, 51
1, 412610, Control_c, 0, 64, 20
1, 412623, Note_on_c, 0, 48, 51
1, 412625, Control_c, 0, 64, 21
1, 412640, Control_c, 0, 64, 21
1, 412654, Control_c, 0, 64, 22
1, 412684, Control_c, 0, 64, 22
1, 412759, Control_c, 0, 64, 20
1, 412774, Control_c, 0, 64, 16
1, 412780, Note_off_c, 0, 48, 59
1, 412789, Control_c, 0, 64, 11
1, 412803, Note_on_c, 0, 69, 52
1, 412804, Control_c, 0, 64, 9
1, 412818, Note_on_c, 0, 65, 45
1, 412848, Note_on_c, 0, 51, 44
1, 412887, Note_off_c, 0, 75, 31
1, 412893, Control_c, 0, 64, 11
1, 412907, Control_c, 0, 64, 13
1, 412922, Control_c, 0, 64, 15
1, 412937, Control_c, 0, 64, 16
1, 412952, Control_c, 0, 64, 17
1, 412953, Note_off_c, 0, 51, 64
1, 412967, Control_c, 0, 64, 18
1, 412982, Control_c, 0, 64, 19
1, 412993, Note_on_c, 0, 50, 49
1, 412997, Control_c, 0, 64, 20
1, 413026, Control_c, 0, 64, 21
1, 413034, Note_off_c, 0, 65, 41
1, 413041, Control_c, 0, 64, 22
1, 413056, Control_c, 0, 64, 22
1, 413077, Control_c, 0, 64, 23
1, 413137, Control_c, 0, 64, 22
1, 413152, Control_c, 0, 64, 19
1, 413164, Note_on_c, 0, 74, 67
1, 413167, Control_c, 0, 64, 16
1, 413182, Control_c, 0, 64, 15
1, 413187, Note_on_c, 0, 48, 53
1, 413187, Note_on_c, 0, 65, 43
1, 413194, Note_off_c, 0, 50, 35
1, 413196, Control_c, 0, 64, 14
1, 413228, Note_off_c, 0, 69, 55
1, 413300, Control_c, 0, 64, 15
1, 413330, Control_c, 0, 64, 15
1, 413349, Note_on_c, 0, 47, 67
1, 413381, Note_off_c, 0, 48, 60
1, 413391, Note_off_c, 0, 65, 43
1, 413433, Control_c, 0, 64, 16
1, 413448, Control_c, 0, 64, 16
1, 413462, Control_c, 0, 64, 17
1, 413477, Control_c, 0, 64, 18
1, 413492, Control_c, 0, 64, 18
1, 413507, Control_c, 0, 64, 19
1, 413520, Note_off_c, 0, 47, 64
1, 413522, Control_c, 0, 64, 19
1, 413545, Note_on_c, 0, 48, 66
1, 413553, Control_c, 0, 64, 20
1, 413717, Note_on_c, 0, 42, 55
1, 413726, Note_on_c, 0, 72, 63
1, 413751, Note_off_c, 0, 74, 60
1, 413762, Note_on_c, 0, 63, 29
1, 413779, Note_off_c, 0, 48, 34
1, 413874, Note_off_c, 0, 63, 53
1, 413945, Note_off_c, 0, 72, 53
1, 413957, Note_off_c, 0, 42, 55
1, 413975, Note_on_c, 0, 43, 36
1, 414004, Control_c, 0, 64, 19
1, 414006, Note_on_c, 0, 71, 43
1, 414029, Note_on_c, 0, 62, 30
1, 414049, Control_c, 0, 64, 19
1, 414123, Control_c, 0, 64, 18
1, 414167, Control_c, 0, 64, 18
1, 414170, Note_off_c, 0, 43, 40
1, 414191, Note_on_c, 0, 48, 49
1, 414226, Control_c, 0, 64, 17
1, 414241, Control_c, 0, 64, 17
1, 414285, Control_c, 0, 64, 16
1, 414315, Control_c, 0, 64, 16
1, 414359, Note_on_c, 0, 45, 59
1, 414361, Control_c, 0, 64, 15
1, 414374, Note_off_c, 0, 48, 38
1, 414420, Control_c, 0, 64, 15
1, 414449, Control_c, 0, 64, 14
1, 414508, Control_c, 0, 64, 14
1, 414511, Note_off_c, 0, 71, 62
1, 414532, Note_off_c, 0, 62, 44
1, 414539, Note_on_c, 0, 50, 65
1, 414566, Note_off_c, 0, 45, 61
1, 414590, Control_c, 0, 64, 13
1, 414605, Control_c, 0, 64, 13
1, 414620, Control_c, 0, 64, 12
1, 414679, Control_c, 0, 64, 12
1, 414709, Control_c, 0, 64, 11
1, 414732, Note_on_c, 0, 47, 69
1, 414738, Control_c, 0, 64, 11
1, 414783, Note_off_c, 0, 50, 61
1, 414812, Control_c, 0, 64, 10
1, 414917, Note_on_c, 0, 67, 79
1, 414922, Note_off_c, 0, 47, 61
1, 414941, Note_on_c, 0, 51, 54
1, 414990, Control_c, 0, 64, 10
1, 415005, Control_c, 0, 64, 9
1, 415020, Control_c, 0, 64, 0
1, 415049, Note_off_c, 0, 51, 63
1, 415072, Note_on_c, 0, 50, 50
1, 415126, Note_on_c, 0, 59, 51
1, 415154, Note_off_c, 0, 50, 60
1, 415181, Note_on_c, 0, 48, 50
1, 415215, Note_off_c, 0, 59, 55
1, 415241, Note_off_c, 0, 48, 61
1, 415269, Note_on_c, 0, 47, 54
1, 415275, Note_on_c, 0, 62, 51
1, 415399, Note_off_c, 0, 62, 60
1, 415442, Note_off_c, 0, 67, 59
1, 415482, Note_on_c, 0, 60, 50
1, 415532, Control_c, 0, 67, 126
1, 415546, Control_c, 0, 67, 125
1, 415605, Control_c, 0, 67, 125
1, 415620, Control_c, 0, 67, 126
1, 415635, Note_off_c, 0, 60, 49
1, 415647, Note_off_c, 0, 47, 55
1, 415651, Note_on_c, 0, 72, 71
1, 415665, Control_c, 0, 67, 126
1, 415680, Control_c, 0, 67, 127
1, 415688, Note_on_c, 0, 63, 34
1, 415709, Control_c, 0, 67, 127
1, 415832, Note_off_c, 0, 63, 48
1, 415867, Note_on_c, 0, 62, 42
1, 416024, Note_on_c, 0, 65, 46
1, 416043, Note_off_c, 0, 62, 38
1, 416088, Control_c, 0, 67, 126
1, 416103, Control_c, 0, 67, 126
1, 416118, Control_c, 0, 67, 125
1, 416133, Control_c, 0, 67, 124
1, 416148, Control_c, 0, 67, 124
1, 416162, Control_c, 0, 67, 123
1, 416177, Control_c, 0, 67, 122
1, 416186, Note_on_c, 0, 48, 46
1, 416189, Note_on_c, 0, 63, 54
1, 416192, Control_c, 0, 67, 121
1, 416207, Control_c, 0, 67, 120
1, 416221, Note_off_c, 0, 65, 37
1, 416221, Control_c, 0, 67, 119
1, 416236, Control_c, 0, 67, 119
1, 416246, Note_off_c, 0, 63, 62
1, 416251, Control_c, 0, 67, 118
1, 416257, Note_on_c, 0, 62, 56
1, 416280, Control_c, 0, 67, 118
1, 416339, Note_off_c, 0, 62, 61
1, 416348, Note_on_c, 0, 60, 58
1, 416371, Note_on_c, 0, 53, 58
1, 416401, Note_off_c, 0, 60, 0
1, 416401, Note_on_c, 0, 60, 12
1, 416437, Note_off_c, 0, 48, 29
1, 416443, Control_c, 0, 67, 118
1, 416455, Poly_aftertouch_c, 0, 62, 0
1, 416459, Note_off_c, 0, 60, 49
1, 416473, Control_c, 0, 67, 119
1, 416487, Control_c, 0, 67, 120
1, 416502, Control_c, 0, 67, 121
1, 416517, Control_c, 0, 67, 121
1, 416532, Control_c, 0, 67, 122
1, 416541, Note_on_c, 0, 51, 66
1, 416541, Note_off_c, 0, 53, 63
1, 416547, Control_c, 0, 67, 122
1, 416562, Control_c, 0, 67, 123
1, 416577, Control_c, 0, 67, 124
1, 416592, Control_c, 0, 67, 124
1, 416621, Control_c, 0, 67, 125
1, 416636, Control_c, 0, 67, 125
1, 416720, Note_off_c, 0, 51, 63
1, 416725, Control_c, 0, 67, 125
1, 416727, Note_on_c, 0, 69, 76
1, 416741, Control_c, 0, 67, 124
1, 416745, Note_on_c, 0, 55, 52
1, 416756, Control_c, 0, 67, 123
1, 416771, Control_c, 0, 67, 122
1, 416785, Control_c, 0, 67, 121
1, 416800, Control_c, 0, 67, 119
1, 416822, Control_c, 0, 67, 118
1, 416836, Control_c, 0, 67, 118
1, 416851, Control_c, 0, 67, 117
1, 416866, Control_c, 0, 67, 117
1, 416881, Control_c, 0, 67, 116
1, 416887, Note_off_c, 0, 72, 41
1, 416896, Control_c, 0, 67, 116
1, 416899, Note_off_c, 0, 55, 53
1, 416911, Control_c, 0, 67, 115
1, 416911, Note_on_c, 0, 54, 60
1, 416926, Control_c, 0, 67, 110
1, 416939, Control_c, 0, 67, 103
1, 416954, Control_c, 0, 67, 96
1, 416969, Control_c, 0, 67, 88
1, 416983, Control_c, 0, 67, 76
1, 416998, Control_c, 0, 67, 68
1, 417013, Control_c, 0, 67, 64
1, 417028, Control_c, 0, 67, 65
1, 417042, Control_c, 0, 67, 65
1, 417057, Control_c, 0, 67, 66
1, 417072, Control_c, 0, 67, 66
1, 417092, Note_on_c, 0, 60, 61
1, 417116, Control_c, 0, 67, 67
1, 417146, Control_c, 0, 67, 68
1, 417161, Control_c, 0, 67, 68
1, 417176, Control_c, 0, 67, 69
1, 417183, Note_off_c, 0, 54, 47
1, 417191, Control_c, 0, 67, 70
1, 417206, Control_c, 0, 67, 70
1, 417235, Control_c, 0, 67, 71
1, 417250, Control_c, 0, 67, 72
1, 417263, Note_on_c, 0, 62, 52
1, 417265, Control_c, 0, 67, 73
1, 417280, Control_c, 0, 67, 74
1, 417295, Control_c, 0, 67, 74
1, 417324, Control_c, 0, 67, 75
1, 417325, Note_off_c, 0, 60, 59
1, 417353, Control_c, 0, 67, 75
1, 417356, Note_on_c, 0, 58, 52
1, 417406, Note_off_c, 0, 58, 58
1, 417436, Note_on_c, 0, 57, 54
1, 417446, Note_on_c, 0, 67, 56
1, 417457, Control_c, 0, 67, 76
1, 417462, Note_off_c, 0, 62, 34
1, 417570, Control_c, 0, 64, 12
1, 417584, Control_c, 0, 64, 18
1, 417599, Control_c, 0, 64, 22
1, 417602, Note_off_c, 0, 69, 62
1, 417610, Note_off_c, 0, 67, 62
1, 417614, Control_c, 0, 64, 25
1, 417623, Note_on_c, 0, 66, 69
1, 417629, Control_c, 0, 64, 28
1, 417644, Control_c, 0, 64, 31
1, 417658, Control_c, 0, 64, 33
1, 417673, Control_c, 0, 64, 34
1, 417688, Control_c, 0, 64, 36
1, 417703, Control_c, 0, 64, 37
1, 417718, Control_c, 0, 64, 39
1, 417732, Control_c, 0, 64, 41
1, 417745, Note_off_c, 0, 57, 27
1, 417747, Control_c, 0, 64, 42
1, 417762, Control_c, 0, 64, 43
1, 417772, Note_off_c, 0, 66, 54
1, 417777, Control_c, 0, 64, 42
1, 417777, Control_c, 0, 67, 76
1, 417791, Control_c, 0, 64, 41
1, 417799, Note_on_c, 0, 74, 78
1, 417806, Control_c, 0, 64, 37
1, 417821, Note_on_c, 0, 69, 46
1, 417821, Control_c, 0, 64, 33
1, 417822, Note_on_c, 0, 54, 50
1, 417836, Control_c, 0, 64, 26
1, 417851, Control_c, 0, 64, 22
1, 417876, Note_off_c, 0, 69, 0
1, 417876, Note_on_c, 0, 69, 26
1, 417925, Control_c, 0, 67, 77
1, 417958, Note_off_c, 0, 69, 62
1, 417993, Note_on_c, 0, 58, 59
1, 417994, Note_on_c, 0, 67, 68
1, 418056, Note_off_c, 0, 54, 35
1, 418141, Note_off_c, 0, 58, 57
1, 418149, Note_on_c, 0, 57, 61
1, 418163, Note_on_c, 0, 72, 69
1, 418196, Note_off_c, 0, 67, 28
1, 418221, Control_c, 0, 67, 76
1, 418303, Control_c, 0, 67, 77
1, 418325, Note_off_c, 0, 57, 50
1, 418330, Note_on_c, 0, 55, 60
1, 418339, Note_on_c, 0, 70, 61
1, 418362, Control_c, 0, 64, 21
1, 418377, Control_c, 0, 64, 20
1, 418382, Note_off_c, 0, 72, 60
1, 418392, Control_c, 0, 64, 19
1, 418407, Control_c, 0, 64, 19
1, 418413, Note_on_c, 0, 69, 64
1, 418427, Note_off_c, 0, 70, 63
1, 418474, Note_off_c, 0, 55, 60
1, 418481, Note_off_c, 0, 69, 61
1, 418498, Note_on_c, 0, 67, 62
1, 418503, Note_on_c, 0, 60, 70
1, 418586, Control_c, 0, 64, 18
1, 418662, Note_off_c, 0, 67, 51
1, 418670, Note_on_c, 0, 57, 73
1, 418675, Control_c, 0, 67, 78
1, 418700, Note_off_c, 0, 60, 64
1, 418704, Control_c, 0, 67, 78
1, 418719, Control_c, 0, 67, 79
1, 418763, Control_c, 0, 67, 79
1, 418822, Control_c, 0, 67, 80
1, 418859, Note_on_c, 0, 70, 77
1, 418860, Note_on_c, 0, 62, 64
1, 418867, Control_c, 0, 67, 80
1, 418884, Note_off_c, 0, 57, 48
1, 418896, Control_c, 0, 67, 81
1, 418911, Control_c, 0, 67, 81
1, 418926, Control_c, 0, 67, 82
1, 418941, Control_c, 0, 67, 84
1, 418955, Note_off_c, 0, 74, 50
1, 418956, Control_c, 0, 67, 85
1, 418971, Control_c, 0, 67, 86
1, 418985, Control_c, 0, 67, 87
1, 419000, Control_c, 0, 67, 87
1, 419015, Control_c, 0, 67, 88
1, 419030, Control_c, 0, 67, 89
1, 419045, Control_c, 0, 67, 91
1, 419058, Note_on_c, 0, 58, 60
1, 419067, Control_c, 0, 67, 93
1, 419081, Control_c, 0, 67, 95
1, 419096, Control_c, 0, 67, 97
1, 419110, Note_off_c, 0, 62, 55
1, 419111, Control_c, 0, 67, 98
1, 419127, Control_c, 0, 67, 98
1, 419142, Control_c, 0, 67, 99
1, 419157, Control_c, 0, 67, 100
1, 419172, Control_c, 0, 67, 101
1, 419186, Control_c, 0, 67, 102
1, 419201, Control_c, 0, 67, 103
1, 419216, Control_c, 0, 67, 104
1, 419227, Note_off_c, 0, 58, 53
1, 419230, Control_c, 0, 67, 105
1, 419245, Note_on_c, 0, 63, 60
1, 419245, Control_c, 0, 67, 105
1, 419260, Control_c, 0, 67, 106
1, 419275, Control_c, 0, 67, 106
1, 419290, Control_c, 0, 67, 107
1, 419304, Control_c, 0, 64, 19
1, 419304, Control_c, 0, 67, 108
1, 419334, Control_c, 0, 67, 108
1, 419366, Note_off_c, 0, 63, 61
1, 419379, Control_c, 0, 64, 19
1, 419398, Note_on_c, 0, 62, 59
1, 419424, Control_c, 0, 64, 20
1, 419447, Note_off_c, 0, 62, 57
1, 419453, Control_c, 0, 64, 20
1, 419491, Note_on_c, 0, 60, 57
1, 419551, Note_off_c, 0, 60, 61
1, 419576, Note_on_c, 0, 58, 52
1, 419581, Note_on_c, 0, 62, 57
1, 419630, Control_c, 0, 64, 19
1, 419645, Control_c, 0, 64, 16
1, 419660, Control_c, 0, 64, 10
1, 419675, Control_c, 0, 64, 0
1, 419702, Note_off_c, 0, 58, 0
1, 419702, Note_on_c, 0, 58, 2
1, 419704, Control_c, 0, 67, 109
1, 419719, Control_c, 0, 67, 109
1, 419752, Note_off_c, 0, 62, 40
1, 419753, Note_off_c, 0, 70, 55
1, 419763, Note_on_c, 0, 67, 58
1, 419763, Control_c, 0, 67, 110
1, 419778, Control_c, 0, 67, 111
1, 419793, Control_c, 0, 67, 114
1, 419816, Control_c, 0, 67, 116
1, 419830, Control_c, 0, 67, 118
1, 419845, Control_c, 0, 67, 119
1, 419860, Control_c, 0, 67, 119
1, 419875, Control_c, 0, 64, 9
1, 419875, Control_c, 0, 67, 120
1, 419890, Control_c, 0, 64, 11
1, 419890, Control_c, 0, 67, 121
1, 419904, Control_c, 0, 64, 12
1, 419904, Control_c, 0, 67, 123
1, 419911, Note_on_c, 0, 75, 68
1, 419919, Control_c, 0, 64, 14
1, 419919, Control_c, 0, 67, 124
1, 419930, Note_off_c, 0, 67, 60
1, 419935, Control_c, 0, 64, 15
1, 419950, Control_c, 0, 64, 17
1, 419950, Control_c, 0, 67, 125
1, 419965, Control_c, 0, 64, 19
1, 419979, Control_c, 0, 64, 21
1, 419981, Note_off_c, 0, 75, 59
1, 419994, Note_on_c, 0, 65, 61
1, 419994, Control_c, 0, 64, 23
1, 420009, Control_c, 0, 64, 24
1, 420024, Control_c, 0, 64, 25
1, 420024, Control_c, 0, 67, 125
1, 420050, Note_off_c, 0, 58, 44
1, 420068, Control_c, 0, 64, 22
1, 420068, Control_c, 0, 67, 126
1, 420083, Control_c, 0, 64, 16
1, 420083, Control_c, 0, 67, 127
1, 420088, Note_off_c, 0, 65, 65
1, 420094, Note_on_c, 0, 63, 59
1, 420097, Note_on_c, 0, 55, 52
1, 420098, Control_c, 0, 64, 0
1, 420217, Control_c, 0, 64, 9
1, 420231, Control_c, 0, 64, 13
1, 420246, Control_c, 0, 64, 16
1, 420261, Control_c, 0, 64, 18
1, 420274, Note_off_c, 0, 55, 59
1, 420276, Control_c, 0, 64, 21
1, 420291, Control_c, 0, 64, 24
1, 420297, Note_on_c, 0, 60, 64
1, 420306, Control_c, 0, 64, 26
1, 420321, Control_c, 0, 64, 28
1, 420335, Control_c, 0, 64, 30
1, 420350, Control_c, 0, 64, 32
1, 420365, Control_c, 0, 64, 33
1, 420379, Control_c, 0, 64, 34
1, 420394, Control_c, 0, 64, 35
1, 420409, Control_c, 0, 64, 36
1, 420424, Control_c, 0, 64, 37
1, 420439, Control_c, 0, 64, 39
1, 420453, Control_c, 0, 64, 40
1, 420455, Note_off_c, 0, 63, 64
1, 420459, Note_off_c, 0, 60, 56
1, 420468, Control_c, 0, 64, 40
1, 420485, Note_on_c, 0, 58, 63
1, 420498, Control_c, 0, 64, 40
1, 420513, Control_c, 0, 64, 39
1, 420527, Control_c, 0, 64, 37
1, 420542, Control_c, 0, 64, 36
1, 420543, Note_off_c, 0, 58, 62
1, 420565, Control_c, 0, 64, 35
1, 420568, Note_on_c, 0, 57, 61
1, 420569, Note_on_c, 0, 66, 64
1, 420594, Control_c, 0, 64, 35
1, 420609, Control_c, 0, 64, 34
1, 420624, Control_c, 0, 64, 34
1, 420639, Control_c, 0, 64, 33
1, 420653, Control_c, 0, 64, 32
1, 420668, Control_c, 0, 64, 31
1, 420682, Control_c, 0, 64, 30
1, 420697, Control_c, 0, 64, 29
1, 420712, Control_c, 0, 64, 26
1, 420728, Control_c, 0, 64, 24
1, 420743, Control_c, 0, 64, 22
1, 420757, Control_c, 0, 64, 21
1, 420759, Note_off_c, 0, 66, 59
1, 420763, Note_on_c, 0, 72, 62
1, 420772, Control_c, 0, 64, 19
1, 420787, Control_c, 0, 64, 16
1, 420792, Note_off_c, 0, 57, 52
1, 420801, Control_c, 0, 64, 10
1, 420816, Note_on_c, 0, 55, 53
1, 420816, Control_c, 0, 64, 0
1, 420919, Note_off_c, 0, 72, 58
1, 420923, Note_off_c, 0, 55, 59
1, 420939, Note_on_c, 0, 74, 60
1, 420949, Note_on_c, 0, 54, 58
1, 421024, Note_on_c, 0, 70, 60
1, 421087, Note_off_c, 0, 70, 60
1, 421108, Note_on_c, 0, 69, 63
1, 421120, Note_on_c, 0, 60, 60
1, 421190, Note_off_c, 0, 54, 49
1, 421225, Note_off_c, 0, 69, 58
1, 421284, Note_on_c, 0, 57, 63
1, 421288, Note_on_c, 0, 72, 67
1, 421320, Note_off_c, 0, 60, 39
1, 421463, Note_on_c, 0, 71, 68
1, 421464, Note_on_c, 0, 62, 79
1, 421472, Note_off_c, 0, 57, 62
1, 421504, Note_off_c, 0, 72, 56
1, 421553, Note_on_c, 0, 69, 68
1, 421559, Note_off_c, 0, 71, 59
1, 421628, Note_on_c, 0, 59, 71
1, 421634, Note_off_c, 0, 69, 59
1, 421638, Note_off_c, 0, 62, 59
1, 421641, Note_on_c, 0, 67, 70
1, 421714, Note_off_c, 0, 67, 60
1, 421773, Note_off_c, 0, 74, 54
1, 421810, Note_on_c, 0, 65, 80
1, 421814, Note_off_c, 0, 59, 55
1, 421817, Note_on_c, 0, 67, 74
1, 421877, Control_c, 0, 64, 8
1, 421892, Control_c, 0, 64, 11
1, 421892, Note_off_c, 0, 67, 54
1, 421907, Control_c, 0, 64, 14
1, 421922, Control_c, 0, 64, 16
1, 421937, Control_c, 0, 64, 18
1, 421951, Control_c, 0, 64, 18
1, 421977, Note_off_c, 0, 65, 59
1, 421996, Control_c, 0, 64, 16
1, 422000, Note_on_c, 0, 63, 60
1, 422011, Control_c, 0, 64, 12
1, 422012, Note_on_c, 0, 72, 71
1, 422016, Note_on_c, 0, 67, 64
1, 422025, Control_c, 0, 64, 11
1, 422038, Note_off_c, 0, 63, 0
1, 422038, Note_on_c, 0, 63, 11
1, 422092, Note_off_c, 0, 63, 55
1, 422106, Control_c, 0, 64, 11
1, 422109, Note_on_c, 0, 62, 77
1, 422121, Control_c, 0, 64, 12
1, 422136, Control_c, 0, 64, 13
1, 422151, Control_c, 0, 64, 14
1, 422184, Note_on_c, 0, 60, 83
1, 422192, Note_off_c, 0, 62, 62
1, 422235, Note_off_c, 0, 67, 60
1, 422240, Control_c, 0, 64, 14
1, 422288, Note_on_c, 0, 65, 71
1, 422374, Note_on_c, 0, 63, 76
1, 422384, Note_off_c, 0, 65, 60
1, 422436, Note_off_c, 0, 60, 63
1, 422444, Note_on_c, 0, 58, 77
1, 422448, Control_c, 0, 64, 14
1, 422463, Control_c, 0, 64, 11
1, 422478, Control_c, 0, 64, 0
1, 422538, Note_off_c, 0, 58, 66
1, 422541, Note_on_c, 0, 56, 80
1, 422629, Note_on_c, 0, 62, 74
1, 422645, Note_off_c, 0, 63, 62
1, 422658, Note_off_c, 0, 62, 65
1, 422715, Control_c, 0, 67, 124
1, 422729, Control_c, 0, 67, 118
1, 422730, Note_on_c, 0, 60, 70
1, 422741, Note_off_c, 0, 56, 65
1, 422744, Control_c, 0, 67, 113
1, 422759, Control_c, 0, 67, 108
1, 422773, Note_on_c, 0, 55, 60
1, 422774, Control_c, 0, 67, 104
1, 422789, Control_c, 0, 67, 100
1, 422811, Control_c, 0, 67, 96
1, 422826, Control_c, 0, 64, 16
1, 422826, Control_c, 0, 67, 90
1, 422840, Note_off_c, 0, 60, 62
1, 422841, Control_c, 0, 64, 23
1, 422841, Control_c, 0, 67, 84
1, 422855, Note_off_c, 0, 55, 50
1, 422855, Control_c, 0, 64, 28
1, 422855, Control_c, 0, 67, 79
1, 422865, Note_off_c, 0, 72, 45
1, 422870, Control_c, 0, 64, 31
1, 422870, Control_c, 0, 67, 74
1, 422885, Control_c, 0, 64, 35
1, 422885, Control_c, 0, 67, 69
1, 422900, Note_on_c, 0, 53, 54
1, 422900, Control_c, 0, 64, 40
1, 422900, Control_c, 0, 67, 64
1, 422915, Control_c, 0, 64, 45
1, 422915, Control_c, 0, 67, 59
1, 422929, Control_c, 0, 64, 52
1, 422929, Control_c, 0, 67, 52
1, 422937, Note_on_c, 0, 71, 66
1, 422938, Note_on_c, 0, 62, 64
1, 422944, Control_c, 0, 64, 55
1, 422944, Control_c, 0, 67, 46
1, 422959, Control_c, 0, 64, 56
1, 422959, Control_c, 0, 67, 42
1, 422971, Note_off_c, 0, 53, 64
1, 422974, Control_c, 0, 67, 39
1, 422989, Control_c, 0, 67, 35
1, 422989, Note_on_c, 0, 55, 58
1, 423004, Control_c, 0, 67, 32
1, 423012, Note_off_c, 0, 55, 64
1, 423019, Control_c, 0, 67, 30
1, 423034, Control_c, 0, 67, 27
1, 423048, Control_c, 0, 67, 25
1, 423054, Note_off_c, 0, 62, 0
1, 423054, Note_on_c, 0, 62, 17
1, 423063, Control_c, 0, 67, 23
1, 423078, Control_c, 0, 64, 57
1, 423078, Control_c, 0, 67, 20
1, 423093, Control_c, 0, 64, 57
1, 423093, Control_c, 0, 67, 16
1, 423108, Control_c, 0, 64, 58
1, 423108, Control_c, 0, 67, 11
1, 423123, Control_c, 0, 67, 0
1, 423138, Control_c, 0, 64, 57
1, 423153, Control_c, 0, 64, 53
1, 423165, Note_off_c, 0, 62, 36
1, 423168, Control_c, 0, 64, 43
1, 423174, Note_off_c, 0, 71, 62
1, 423183, Control_c, 0, 64, 18
1, 423197, Control_c, 0, 64, 0
1, 423211, Note_on_c, 0, 72, 54
1, 423212, Note_on_c, 0, 48, 49
1, 423217, Note_on_c, 0, 36, 48
1, 423223, Note_on_c, 0, 63, 49
1, 423301, Control_c, 0, 64, 11
1, 423316, Control_c, 0, 64, 22
1, 423317, Note_off_c, 0, 63, 65
1, 423329, Note_off_c, 0, 72, 61
1, 423331, Control_c, 0, 64, 29
1, 423345, Control_c, 0, 64, 34
1, 423360, Control_c, 0, 64, 39
1, 423375, Control_c, 0, 64, 44
1, 423390, Control_c, 0, 64, 49
1, 423404, Control_c, 0, 64, 53
1, 423419, Control_c, 0, 64, 55
1, 423434, Control_c, 0, 64, 55
1, 423446, Note_on_c, 0, 77, 61
1, 423456, Note_on_c, 0, 68, 56
1, 423557, Note_off_c, 0, 77, 53
1, 423577, Note_off_c, 0, 68, 54
1, 423590, Control_c, 0, 64, 55
1, 423629, Note_on_c, 0, 65, 63
1, 423630, Note_on_c, 0, 74, 63
1, 423693, Control_c, 0, 64, 55
1, 423695, Note_off_c, 0, 74, 63
1, 423708, Control_c, 0, 64, 57
1, 423712, Note_off_c, 0, 65, 63
1, 423722, Control_c, 0, 64, 59
1, 423737, Control_c, 0, 64, 62
1, 423752, Control_c, 0, 64, 63
1, 423767, Control_c, 0, 64, 63
1, 423782, Control_c, 0, 64, 59
1, 423797, Control_c, 0, 64, 49
1, 423804, Note_on_c, 0, 79, 67
1, 423809, Note_on_c, 0, 70, 62
1, 423812, Control_c, 0, 64, 24
1, 423826, Control_c, 0, 64, 0
1, 423901, Control_c, 0, 64, 20
1, 423913, Note_off_c, 0, 79, 57
1, 423916, Control_c, 0, 64, 29
1, 423928, Note_off_c, 0, 70, 62
1, 423931, Control_c, 0, 64, 38
1, 423946, Control_c, 0, 64, 47
1, 423951, Note_off_c, 0, 36, 50
1, 423961, Control_c, 0, 64, 55
1, 423976, Note_on_c, 0, 76, 74
1, 423976, Control_c, 0, 64, 60
1, 423978, Note_on_c, 0, 67, 74
1, 423990, Control_c, 0, 64, 62
1, 424005, Control_c, 0, 64, 62
1, 424020, Control_c, 0, 64, 63
1, 424035, Control_c, 0, 64, 64
1, 424035, Note_off_c, 0, 67, 54
1, 424050, Control_c, 0, 64, 66
1, 424065, Control_c, 0, 64, 68
1, 424067, Note_off_c, 0, 76, 63
1, 424080, Control_c, 0, 64, 69
1, 424085, Note_off_c, 0, 48, 35
1, 424094, Control_c, 0, 64, 69
1, 424139, Control_c, 0, 64, 70
1, 424153, Control_c, 0, 64, 70
1, 424155, Note_on_c, 0, 80, 82
1, 424159, Note_on_c, 0, 72, 73
1, 424168, Control_c, 0, 64, 71
1, 424287, Control_c, 0, 64, 72
1, 424303, Note_off_c, 0, 72, 56
1, 424303, Note_off_c, 0, 80, 60
1, 424309, Control_c, 0, 64, 74
1, 424324, Control_c, 0, 64, 76
1, 424325, Note_on_c, 0, 53, 83
1, 424339, Control_c, 0, 64, 77
1, 424342, Note_on_c, 0, 41, 60
1, 424368, Control_c, 0, 64, 76
1, 424383, Control_c, 0, 64, 72
1, 424398, Control_c, 0, 64, 66
1, 424410, Note_on_c, 0, 79, 69
1, 424412, Note_on_c, 0, 70, 71
1, 424413, Control_c, 0, 64, 60
1, 424427, Control_c, 0, 64, 50
1, 424432, Note_off_c, 0, 70, 66
1, 424436, Note_off_c, 0, 79, 65
1, 424442, Control_c, 0, 64, 34
1, 424457, Control_c, 0, 64, 0
1, 424492, Note_on_c, 0, 77, 77
1, 424495, Note_on_c, 0, 68, 81
1, 424536, Note_off_c, 0, 68, 57
1, 424543, Note_off_c, 0, 77, 60
1, 424739, Note_on_c, 0, 68, 78
1, 424742, Note_on_c, 0, 72, 80
1, 424783, Control_c, 0, 64, 28
1, 424798, Control_c, 0, 64, 41
1, 424813, Control_c, 0, 64, 54
1, 424828, Control_c, 0, 64, 64
1, 424843, Control_c, 0, 64, 70
1, 424858, Control_c, 0, 64, 73
1, 424873, Control_c, 0, 64, 77
1, 424888, Control_c, 0, 64, 84
1, 424903, Control_c, 0, 64, 95
1, 424911, Note_off_c, 0, 72, 60
1, 424917, Control_c, 0, 64, 108
1, 424932, Control_c, 0, 64, 127
1, 424953, Note_off_c, 0, 68, 56
1, 424989, Note_off_c, 0, 53, 60
1, 425147, Note_on_c, 0, 65, 74
1, 425147, Note_on_c, 0, 68, 73
1, 425171, Note_off_c, 0, 41, 56
1, 425259, Note_off_c, 0, 65, 60
1, 425272, Note_off_c, 0, 68, 57
1, 425342, Note_on_c, 0, 72, 88
1, 425351, Note_on_c, 0, 69, 80
1, 425444, Note_off_c, 0, 69, 60
1, 425518, Control_c, 0, 64, 105
1, 425533, Control_c, 0, 64, 75
1, 425535, Note_on_c, 0, 50, 84
1, 425547, Control_c, 0, 64, 59
1, 425552, Note_on_c, 0, 38, 70
1, 425562, Control_c, 0, 64, 31
1, 425577, Control_c, 0, 64, 0
1, 425588, Note_off_c, 0, 72, 58
1, 425614, Note_on_c, 0, 67, 67
1, 425615, Note_on_c, 0, 70, 65
1, 425667, Note_off_c, 0, 67, 61
1, 425678, Note_off_c, 0, 70, 63
1, 425702, Note_on_c, 0, 69, 83
1, 425708, Note_on_c, 0, 66, 82
1, 425735, Note_off_c, 0, 66, 62
1, 425745, Note_off_c, 0, 69, 66
1, 425949, Note_on_c, 0, 81, 94
1, 425950, Note_on_c, 0, 72, 88
1, 425999, Control_c, 0, 64, 24
1, 426014, Control_c, 0, 64, 41
1, 426029, Control_c, 0, 64, 55
1, 426044, Control_c, 0, 64, 65
1, 426059, Control_c, 0, 64, 71
1, 426073, Control_c, 0, 64, 74
1, 426088, Control_c, 0, 64, 78
1, 426103, Control_c, 0, 64, 86
1, 426117, Control_c, 0, 64, 97
1, 426132, Control_c, 0, 64, 108
1, 426147, Control_c, 0, 64, 117
1, 426162, Control_c, 0, 64, 127
1, 426217, Note_off_c, 0, 81, 55
1, 426247, Note_off_c, 0, 72, 60
1, 426300, Note_off_c, 0, 38, 56
1, 426308, Note_on_c, 0, 69, 80
1, 426310, Note_on_c, 0, 78, 90
1, 426350, Note_off_c, 0, 50, 64
1, 426353, Note_off_c, 0, 69, 57
1, 426414, Note_off_c, 0, 78, 62
1, 426487, Note_on_c, 0, 74, 89
1, 426488, Note_on_c, 0, 82, 89
1, 426663, Note_off_c, 0, 82, 62
1, 426671, Note_on_c, 0, 55, 92
1, 426688, Note_on_c, 0, 43, 68
1, 426690, Note_off_c, 0, 74, 54
1, 426718, Control_c, 0, 64, 94
1, 426733, Control_c, 0, 64, 71
1, 426747, Note_on_c, 0, 81, 83
1, 426748, Control_c, 0, 64, 59
1, 426750, Note_on_c, 0, 72, 77
1, 426763, Control_c, 0, 64, 45
1, 426771, Note_off_c, 0, 72, 69
1, 426778, Control_c, 0, 64, 19
1, 426792, Control_c, 0, 64, 0
1, 426804, Note_off_c, 0, 81, 62
1, 426837, Note_on_c, 0, 80, 88
1, 426844, Note_on_c, 0, 70, 88
1, 426870, Note_off_c, 0, 80, 67
1, 426879, Note_off_c, 0, 70, 60
1, 427091, Note_on_c, 0, 62, 88
1, 427267, Control_c, 0, 64, 20
1, 427282, Control_c, 0, 64, 31
1, 427305, Control_c, 0, 64, 40
1, 427319, Control_c, 0, 64, 51
1, 427334, Control_c, 0, 64, 58
1, 427349, Control_c, 0, 64, 61
1, 427364, Control_c, 0, 64, 62
1, 427378, Control_c, 0, 64, 62
1, 427393, Control_c, 0, 64, 63
1, 427403, Note_off_c, 0, 55, 57
1, 427408, Control_c, 0, 64, 64
1, 427423, Control_c, 0, 64, 66
1, 427438, Control_c, 0, 64, 68
1, 427452, Note_on_c, 0, 59, 75
1, 427452, Control_c, 0, 64, 69
1, 427462, Note_off_c, 0, 43, 55
1, 427484, Note_off_c, 0, 62, 60
1, 427493, Note_off_c, 0, 59, 61
1, 427497, Control_c, 0, 64, 70
1, 427647, Note_on_c, 0, 67, 71
1, 427660, Control_c, 0, 64, 69
1, 427675, Control_c, 0, 64, 67
1, 427689, Control_c, 0, 64, 65
1, 427704, Control_c, 0, 64, 63
1, 427719, Control_c, 0, 64, 60
1, 427734, Control_c, 0, 64, 55
1, 427749, Control_c, 0, 64, 49
1, 427763, Control_c, 0, 64, 42
1, 427778, Control_c, 0, 64, 35
1, 427793, Control_c, 0, 64, 28
1, 427808, Control_c, 0, 64, 22
1, 427823, Control_c, 0, 64, 8
1, 427827, Note_on_c, 0, 51, 59
1, 427837, Control_c, 0, 64, 0
1, 427842, Note_on_c, 0, 39, 55
1, 427888, Note_off_c, 0, 67, 60
1, 427924, Note_on_c, 0, 65, 60
1, 427988, Note_off_c, 0, 65, 65
1, 427999, Note_on_c, 0, 63, 68
1, 428076, Note_off_c, 0, 63, 58
1, 428238, Note_on_c, 0, 70, 70
1, 428246, Note_on_c, 0, 67, 59
1, 428356, Note_off_c, 0, 67, 34
1, 428365, Control_c, 0, 64, 21
1, 428380, Control_c, 0, 64, 34
1, 428394, Control_c, 0, 64, 43
1, 428409, Control_c, 0, 64, 52
1, 428424, Control_c, 0, 64, 58
1, 428439, Control_c, 0, 64, 61
1, 428454, Control_c, 0, 64, 62
1, 428468, Control_c, 0, 64, 64
1, 428483, Control_c, 0, 64, 67
1, 428498, Control_c, 0, 64, 70
1, 428512, Control_c, 0, 64, 73
1, 428527, Control_c, 0, 64, 75
1, 428542, Control_c, 0, 64, 77
1, 428557, Control_c, 0, 64, 78
1, 428558, Note_off_c, 0, 70, 61
1, 428573, Note_off_c, 0, 39, 35
1, 428577, Note_off_c, 0, 51, 57
1, 428579, Note_on_c, 0, 67, 73
1, 428604, Note_on_c, 0, 63, 52
1, 428632, Control_c, 0, 64, 78
1, 428634, Note_off_c, 0, 67, 43
1, 428694, Note_off_c, 0, 63, 49
1, 428775, Note_on_c, 0, 75, 80
1, 428804, Note_on_c, 0, 72, 61
1, 428832, Control_c, 0, 64, 78
1, 428847, Control_c, 0, 64, 76
1, 428862, Control_c, 0, 64, 74
1, 428877, Control_c, 0, 64, 72
1, 428891, Control_c, 0, 64, 71
1, 428898, Note_off_c, 0, 72, 58
1, 428906, Control_c, 0, 64, 69
1, 428921, Control_c, 0, 64, 67
1, 428936, Control_c, 0, 64, 64
1, 428950, Control_c, 0, 64, 59
1, 428963, Note_on_c, 0, 56, 77
1, 428965, Control_c, 0, 64, 49
1, 428979, Note_on_c, 0, 44, 61
1, 428980, Control_c, 0, 64, 30
1, 428995, Control_c, 0, 64, 0
1, 429057, Note_on_c, 0, 70, 59
1, 429058, Note_off_c, 0, 75, 50
1, 429060, Note_on_c, 0, 73, 62
1, 429096, Note_off_c, 0, 70, 57
1, 429130, Note_on_c, 0, 72, 80
1, 429132, Note_off_c, 0, 73, 55
1, 429136, Note_on_c, 0, 68, 75
1, 429161, Note_off_c, 0, 68, 64
1, 429162, Note_off_c, 0, 72, 60
1, 429386, Note_on_c, 0, 65, 73
1, 429595, Control_c, 0, 64, 9
1, 429610, Control_c, 0, 64, 17
1, 429625, Control_c, 0, 64, 23
1, 429639, Control_c, 0, 64, 27
1, 429654, Control_c, 0, 64, 34
1, 429669, Control_c, 0, 64, 40
1, 429684, Control_c, 0, 64, 46
1, 429699, Control_c, 0, 64, 51
1, 429713, Control_c, 0, 64, 53
1, 429728, Control_c, 0, 64, 53
1, 429776, Note_off_c, 0, 65, 53
1, 429789, Note_on_c, 0, 60, 53
1, 429802, Control_c, 0, 64, 54
1, 429817, Control_c, 0, 64, 54
1, 429832, Control_c, 0, 64, 54
1, 429861, Control_c, 0, 64, 53
1, 429876, Control_c, 0, 64, 53
1, 429920, Control_c, 0, 64, 52
1, 429933, Note_off_c, 0, 60, 28
1, 429935, Control_c, 0, 64, 52
1, 429949, Note_off_c, 0, 44, 55
1, 429950, Control_c, 0, 64, 51
1, 429964, Control_c, 0, 64, 51
1, 429976, Note_on_c, 0, 70, 80
1, 429994, Control_c, 0, 64, 50
1, 430024, Control_c, 0, 64, 49
1, 430039, Control_c, 0, 64, 49
1, 430054, Control_c, 0, 64, 48
1, 430065, Note_off_c, 0, 56, 20
1, 430128, Control_c, 0, 64, 48
1, 430143, Control_c, 0, 64, 47
1, 430146, Note_on_c, 0, 55, 71
1, 430157, Control_c, 0, 64, 45
1, 430161, Note_on_c, 0, 43, 56
1, 430172, Control_c, 0, 64, 43
1, 430187, Control_c, 0, 64, 38
1, 430202, Control_c, 0, 64, 30
1, 430217, Control_c, 0, 64, 18
1, 430231, Control_c, 0, 64, 0
1, 430339, Note_on_c, 0, 75, 74
1, 430353, Note_off_c, 0, 70, 60
1, 430366, Note_off_c, 0, 75, 64
1, 430555, Note_on_c, 0, 63, 78
1, 430655, Control_c, 0, 64, 11
1, 430669, Control_c, 0, 64, 22
1, 430684, Control_c, 0, 64, 28
1, 430699, Control_c, 0, 64, 35
1, 430713, Control_c, 0, 64, 43
1, 430728, Control_c, 0, 64, 51
1, 430743, Control_c, 0, 64, 56
1, 430758, Control_c, 0, 64, 59
1, 430787, Control_c, 0, 64, 59
1, 430802, Control_c, 0, 64, 60
1, 430817, Control_c, 0, 64, 61
1, 430832, Control_c, 0, 64, 62
1, 430836, Note_off_c, 0, 55, 54
1, 430847, Control_c, 0, 64, 62
1, 430911, Note_off_c, 0, 63, 58
1, 430921, Control_c, 0, 64, 63
1, 430938, Note_on_c, 0, 58, 57
1, 431010, Note_off_c, 0, 58, 60
1, 431072, Note_off_c, 0, 43, 34
1, 431133, Note_on_c, 0, 68, 75
1, 431136, Control_c, 0, 64, 62
1, 431151, Control_c, 0, 64, 61
1, 431165, Control_c, 0, 64, 60
1, 431180, Control_c, 0, 64, 58
1, 431195, Control_c, 0, 64, 55
1, 431210, Control_c, 0, 64, 50
1, 431225, Control_c, 0, 64, 44
1, 431240, Control_c, 0, 64, 37
1, 431255, Control_c, 0, 64, 32
1, 431270, Control_c, 0, 64, 29
1, 431284, Control_c, 0, 64, 26
1, 431299, Control_c, 0, 64, 22
1, 431314, Control_c, 0, 64, 16
1, 431320, Note_on_c, 0, 53, 54
1, 431329, Control_c, 0, 64, 0
1, 431339, Note_on_c, 0, 41, 39
1, 431493, Note_on_c, 0, 74, 56
1, 431523, Note_off_c, 0, 68, 61
1, 431538, Note_off_c, 0, 74, 63
1, 431735, Note_on_c, 0, 62, 65
1, 431854, Control_c, 0, 64, 9
1, 431869, Control_c, 0, 64, 19
1, 431884, Control_c, 0, 64, 25
1, 431899, Control_c, 0, 64, 30
1, 431915, Control_c, 0, 64, 38
1, 431930, Control_c, 0, 64, 46
1, 431945, Control_c, 0, 64, 52
1, 431945, Control_c, 0, 67, 8
1, 431952, Note_off_c, 0, 62, 0
1, 431959, Control_c, 0, 64, 56
1, 431959, Control_c, 0, 67, 10
1, 431974, Control_c, 0, 64, 57
1, 431974, Control_c, 0, 67, 10
1, 431988, Poly_aftertouch_c, 0, 62, 127
1, 431989, Control_c, 0, 64, 57
1, 431989, Control_c, 0, 67, 12
1, 432004, Control_c, 0, 64, 58
1, 432004, Control_c, 0, 67, 13
1, 432019, Control_c, 0, 64, 61
1, 432019, Control_c, 0, 67, 14
1, 432033, Control_c, 0, 64, 63
1, 432033, Control_c, 0, 67, 15
1, 432048, Control_c, 0, 64, 64
1, 432048, Control_c, 0, 67, 16
1, 432063, Control_c, 0, 64, 65
1, 432063, Control_c, 0, 67, 17
1, 432078, Control_c, 0, 67, 18
1, 432093, Control_c, 0, 67, 19
1, 432093, Note_off_c, 0, 41, 43
1, 432107, Control_c, 0, 64, 67
1, 432107, Control_c, 0, 67, 20
1, 432120, Note_off_c, 0, 53, 34
1, 432122, Control_c, 0, 64, 70
1, 432122, Control_c, 0, 67, 21
1, 432137, Control_c, 0, 64, 73
1, 432137, Control_c, 0, 67, 22
1, 432152, Control_c, 0, 64, 73
1, 432152, Control_c, 0, 67, 23
1, 432167, Control_c, 0, 64, 74
1, 432167, Control_c, 0, 67, 23
1, 432182, Control_c, 0, 67, 24
1, 432182, Note_on_c, 0, 56, 45
1, 432197, Control_c, 0, 64, 75
1, 432212, Control_c, 0, 64, 77
1, 432227, Control_c, 0, 64, 79
1, 432227, Control_c, 0, 67, 24
1, 432231, Note_off_c, 0, 56, 51
1, 432241, Control_c, 0, 64, 80
1, 432241, Control_c, 0, 67, 25
1, 432256, Control_c, 0, 67, 25
1, 432280, Poly_aftertouch_c, 0, 62, 0
1, 432285, Control_c, 0, 67, 26
1, 432300, Control_c, 0, 67, 27
1, 432315, Control_c, 0, 67, 27
1, 432330, Control_c, 0, 67, 28
1, 432345, Control_c, 0, 67, 30
1, 432359, Control_c, 0, 64, 80
1, 432359, Control_c, 0, 67, 31
1, 432374, Control_c, 0, 64, 78
1, 432374, Control_c, 0, 67, 33
1, 432389, Control_c, 0, 64, 75
1, 432389, Control_c, 0, 67, 34
1, 432404, Control_c, 0, 64, 72
1, 432404, Control_c, 0, 67, 35
1, 432419, Control_c, 0, 64, 68
1, 432419, Control_c, 0, 67, 36
1, 432420, Note_on_c, 0, 63, 52
1, 432433, Control_c, 0, 64, 65
1, 432433, Control_c, 0, 67, 38
1, 432448, Control_c, 0, 64, 63
1, 432448, Control_c, 0, 67, 40
1, 432463, Control_c, 0, 64, 59
1, 432463, Control_c, 0, 67, 40
1, 432477, Control_c, 0, 64, 53
1, 432477, Control_c, 0, 67, 41
1, 432492, Control_c, 0, 64, 46
1, 432492, Control_c, 0, 67, 42
1, 432507, Control_c, 0, 64, 39
1, 432522, Control_c, 0, 64, 35
1, 432545, Control_c, 0, 64, 34
1, 432574, Control_c, 0, 64, 33
1, 432588, Note_off_c, 0, 63, 52
1, 432589, Control_c, 0, 64, 32
1, 432604, Control_c, 0, 64, 29
1, 432617, Note_on_c, 0, 68, 34
1, 432619, Control_c, 0, 64, 27
1, 432633, Control_c, 0, 64, 25
1, 432648, Control_c, 0, 64, 23
1, 432663, Control_c, 0, 64, 20
1, 432663, Control_c, 0, 67, 42
1, 432678, Control_c, 0, 64, 14
1, 432692, Control_c, 0, 64, 0
1, 432753, Control_c, 0, 67, 41
1, 432760, Note_off_c, 0, 68, 39
1, 432768, Control_c, 0, 67, 40
1, 432782, Control_c, 0, 67, 39
1, 432797, Control_c, 0, 67, 38
1, 432809, Note_on_c, 0, 51, 35
1, 432810, Note_on_c, 0, 67, 39
1, 432812, Note_on_c, 0, 39, 39
1, 432812, Control_c, 0, 67, 36
1, 432827, Control_c, 0, 67, 35
1, 432842, Control_c, 0, 67, 34
1, 432856, Control_c, 0, 67, 33
1, 432871, Control_c, 0, 67, 32
1, 432886, Control_c, 0, 67, 31
1, 432901, Control_c, 0, 67, 30
1, 432915, Control_c, 0, 67, 30
1, 432930, Control_c, 0, 67, 29
1, 432963, Note_off_c, 0, 67, 41
1, 432975, Control_c, 0, 67, 29
1, 432981, Note_on_c, 0, 72, 39
1, 433029, Note_off_c, 0, 39, 41
1, 433040, Note_off_c, 0, 51, 42
1, 433063, Note_off_c, 0, 72, 60
1, 433086, Note_on_c, 0, 70, 50
1, 433094, Control_c, 0, 64, 8
1, 433108, Control_c, 0, 64, 11
1, 433123, Control_c, 0, 64, 12
1, 433138, Control_c, 0, 64, 13
1, 433153, Control_c, 0, 64, 15
1, 433160, Note_off_c, 0, 70, 59
1, 433168, Control_c, 0, 64, 17
1, 433171, Note_on_c, 0, 68, 55
1, 433182, Control_c, 0, 64, 18
1, 433197, Control_c, 0, 64, 18
1, 433227, Control_c, 0, 64, 19
1, 433227, Control_c, 0, 67, 29
1, 433242, Control_c, 0, 64, 20
1, 433244, Note_off_c, 0, 68, 56
1, 433245, Note_on_c, 0, 67, 64
1, 433256, Control_c, 0, 64, 20
1, 433288, Note_off_c, 0, 67, 63
1, 433353, Control_c, 0, 67, 30
1, 433372, Note_on_c, 0, 58, 55
1, 433452, Note_off_c, 0, 58, 52
1, 433517, Note_on_c, 0, 63, 44
1, 433620, Control_c, 0, 64, 20
1, 433635, Control_c, 0, 64, 19
1, 433640, Note_on_c, 0, 68, 57
1, 433650, Control_c, 0, 64, 18
1, 433653, Note_on_c, 0, 62, 53
1, 433654, Note_off_c, 0, 63, 36
1, 433665, Control_c, 0, 64, 18
1, 433691, Note_off_c, 0, 68, 57
1, 433694, Control_c, 0, 64, 17
1, 433709, Control_c, 0, 64, 16
1, 433724, Control_c, 0, 64, 15
1, 433738, Control_c, 0, 64, 14
1, 433742, Note_off_c, 0, 62, 37
1, 433789, Note_on_c, 0, 67, 56
1, 433857, Control_c, 0, 67, 29
1, 433872, Control_c, 0, 67, 29
1, 433887, Control_c, 0, 67, 28
1, 433902, Control_c, 0, 67, 28
1, 433911, Note_off_c, 0, 67, 58
1, 433915, Note_on_c, 0, 65, 52
1, 433917, Control_c, 0, 67, 27
1, 433931, Control_c, 0, 67, 26
1, 433946, Control_c, 0, 67, 25
1, 433961, Control_c, 0, 64, 14
1, 433961, Control_c, 0, 67, 22
1, 433976, Control_c, 0, 67, 18
1, 433991, Note_on_c, 0, 63, 60
1, 433991, Control_c, 0, 64, 13
1, 433991, Control_c, 0, 67, 13
1, 434000, Note_off_c, 0, 65, 55
1, 434005, Control_c, 0, 64, 12
1, 434005, Control_c, 0, 67, 0
1, 434042, Control_c, 0, 64, 11
1, 434057, Control_c, 0, 64, 10
1, 434072, Control_c, 0, 64, 9
1, 434082, Note_on_c, 0, 62, 63
1, 434087, Control_c, 0, 64, 9
1, 434136, Note_off_c, 0, 62, 59
1, 434145, Note_off_c, 0, 63, 37
1, 434195, Note_on_c, 0, 46, 56
1, 434324, Note_on_c, 0, 53, 48
1, 434348, Note_off_c, 0, 46, 54
1, 434399, Control_c, 0, 64, 8
1, 434443, Control_c, 0, 64, 8
1, 434458, Control_c, 0, 64, 0
1, 434462, Note_on_c, 0, 67, 55
1, 434463, Note_on_c, 0, 51, 49
1, 434465, Note_off_c, 0, 53, 53
1, 434542, Note_off_c, 0, 51, 62
1, 434584, Note_on_c, 0, 56, 49
1, 434614, Note_off_c, 0, 67, 48
1, 434621, Note_on_c, 0, 72, 55
1, 434678, Note_off_c, 0, 56, 54
1, 434713, Note_off_c, 0, 72, 59
1, 434718, Note_on_c, 0, 55, 41
1, 434725, Note_on_c, 0, 70, 58
1, 434760, Note_off_c, 0, 55, 62
1, 434798, Note_on_c, 0, 53, 46
1, 434815, Note_on_c, 0, 68, 58
1, 434833, Note_off_c, 0, 70, 58
1, 434850, Control_c, 0, 64, 11
1, 434865, Control_c, 0, 64, 16
1, 434880, Control_c, 0, 64, 18
1, 434883, Note_off_c, 0, 53, 61
1, 434889, Note_on_c, 0, 67, 67
1, 434895, Control_c, 0, 64, 20
1, 434897, Note_off_c, 0, 68, 52
1, 434903, Note_on_c, 0, 51, 55
1, 434909, Control_c, 0, 64, 21
1, 434920, Note_off_c, 0, 67, 65
1, 434924, Control_c, 0, 64, 21
1, 434954, Control_c, 0, 64, 22
1, 434982, Note_off_c, 0, 51, 64
1, 435014, Control_c, 0, 64, 21
1, 435027, Note_on_c, 0, 75, 59
1, 435028, Control_c, 0, 64, 21
1, 435043, Control_c, 0, 64, 18
1, 435058, Control_c, 0, 64, 16
1, 435073, Control_c, 0, 64, 13
1, 435087, Control_c, 0, 64, 11
1, 435103, Control_c, 0, 64, 9
1, 435118, Control_c, 0, 64, 8
1, 435133, Control_c, 0, 64, 0
1, 435150, Note_off_c, 0, 75, 56
1, 435156, Note_on_c, 0, 80, 60
1, 435240, Note_off_c, 0, 80, 56
1, 435291, Note_on_c, 0, 63, 47
1, 435293, Note_on_c, 0, 79, 51
1, 435389, Note_off_c, 0, 79, 34
1, 435432, Note_on_c, 0, 84, 58
1, 435438, Note_off_c, 0, 63, 53
1, 435442, Note_on_c, 0, 68, 56
1, 435550, Note_on_c, 0, 82, 69
1, 435556, Note_on_c, 0, 67, 47
1, 435576, Note_off_c, 0, 84, 58
1, 435584, Note_off_c, 0, 68, 50
1, 435621, Note_on_c, 0, 80, 71
1, 435640, Note_off_c, 0, 67, 61
1, 435662, Note_off_c, 0, 82, 62
1, 435679, Note_on_c, 0, 72, 60
1, 435690, Note_on_c, 0, 79, 68
1, 435773, Note_off_c, 0, 79, 61
1, 435775, Note_off_c, 0, 80, 56
1, 435816, Note_on_c, 0, 70, 70
1, 435825, Note_off_c, 0, 72, 59
1, 435884, Note_on_c, 0, 68, 73
1, 435928, Note_off_c, 0, 70, 60
1, 435965, Note_on_c, 0, 67, 75
1, 435972, Note_off_c, 0, 68, 57
1, 436090, Note_on_c, 0, 78, 57
1, 436098, Note_on_c, 0, 75, 82
1, 436169, Note_off_c, 0, 67, 63
1, 436221, Note_off_c, 0, 78, 63
1, 436238, Note_on_c, 0, 87, 66
1, 436376, Note_on_c, 0, 84, 60
1, 436387, Note_off_c, 0, 87, 50
1, 436501, Note_off_c, 0, 84, 49
1, 436510, Note_on_c, 0, 89, 56
1, 436555, Control_c, 0, 64, 19
1, 436570, Control_c, 0, 64, 30
1, 436585, Control_c, 0, 64, 41
1, 436600, Control_c, 0, 64, 51
1, 436600, Note_on_c, 0, 87, 66
1, 436615, Control_c, 0, 64, 59
1, 436618, Note_off_c, 0, 89, 59
1, 436629, Control_c, 0, 64, 64
1, 436644, Control_c, 0, 64, 65
1, 436659, Control_c, 0, 64, 67
1, 436674, Control_c, 0, 64, 70
1, 436683, Note_on_c, 0, 85, 64
1, 436689, Control_c, 0, 64, 76
1, 436704, Control_c, 0, 64, 82
1, 436717, Note_off_c, 0, 87, 44
1, 436719, Control_c, 0, 64, 85
1, 436734, Control_c, 0, 64, 85
1, 436740, Note_off_c, 0, 75, 60
1, 436741, Note_on_c, 0, 84, 70
1, 436747, Note_off_c, 0, 85, 61
1, 436765, Note_off_c, 0, 84, 67
1, 436778, Control_c, 0, 64, 86
1, 436793, Control_c, 0, 64, 88
1, 436808, Control_c, 0, 64, 89
1, 436823, Control_c, 0, 64, 90
1, 436867, Control_c, 0, 64, 94
1, 436882, Control_c, 0, 64, 103
1, 436897, Control_c, 0, 64, 110
1, 436912, Control_c, 0, 64, 109
1, 436927, Control_c, 0, 64, 97
1, 436933, Note_on_c, 0, 69, 83
1, 436942, Control_c, 0, 64, 80
1, 436951, Note_on_c, 0, 60, 54
1, 436956, Control_c, 0, 64, 68
1, 436971, Control_c, 0, 64, 57
1, 436986, Control_c, 0, 64, 39
1, 437001, Control_c, 0, 64, 0
1, 437106, Note_on_c, 0, 53, 53
1, 437128, Note_off_c, 0, 60, 52
1, 437160, Note_off_c, 0, 53, 57
1, 437223, Note_on_c, 0, 58, 66
1, 437324, Note_off_c, 0, 58, 60
1, 437346, Note_on_c, 0, 53, 59
1, 437393, Note_off_c, 0, 53, 57
1, 437472, Note_on_c, 0, 57, 51
1, 437515, Note_off_c, 0, 57, 63
1, 437531, Note_on_c, 0, 54, 57
1, 437542, Control_c, 0, 64, 24
1, 437557, Note_off_c, 0, 54, 38
1, 437557, Control_c, 0, 64, 35
1, 437563, Note_on_c, 0, 55, 44
1, 437571, Control_c, 0, 64, 44
1, 437586, Control_c, 0, 64, 52
1, 437592, Note_off_c, 0, 55, 55
1, 437601, Control_c, 0, 64, 57
1, 437604, Note_on_c, 0, 53, 68
1, 437616, Control_c, 0, 64, 61
1, 437631, Note_off_c, 0, 53, 67
1, 437631, Control_c, 0, 64, 63
1, 437646, Control_c, 0, 64, 64
1, 437661, Control_c, 0, 64, 66
1, 437676, Control_c, 0, 64, 67
1, 437691, Control_c, 0, 64, 68
1, 437750, Control_c, 0, 64, 67
1, 437765, Control_c, 0, 64, 63
1, 437786, Control_c, 0, 64, 57
1, 437789, Note_on_c, 0, 73, 92
1, 437801, Control_c, 0, 64, 41
1, 437807, Note_on_c, 0, 77, 65
1, 437816, Control_c, 0, 64, 0
1, 437826, Note_off_c, 0, 69, 63
1, 437943, Note_on_c, 0, 84, 68
1, 437953, Note_off_c, 0, 77, 37
1, 438069, Note_on_c, 0, 82, 74
1, 438072, Note_off_c, 0, 84, 58
1, 438190, Note_on_c, 0, 87, 72
1, 438203, Note_off_c, 0, 82, 56
1, 438260, Control_c, 0, 64, 12
1, 438275, Control_c, 0, 64, 26
1, 438290, Control_c, 0, 64, 37
1, 438299, Note_on_c, 0, 85, 66
1, 438306, Control_c, 0, 64, 49
1, 438315, Note_off_c, 0, 87, 54
1, 438320, Control_c, 0, 64, 58
1, 438335, Control_c, 0, 64, 62
1, 438350, Control_c, 0, 64, 63
1, 438365, Control_c, 0, 64, 64
1, 438368, Note_on_c, 0, 84, 70
1, 438380, Control_c, 0, 64, 66
1, 438394, Control_c, 0, 64, 70
1, 438409, Control_c, 0, 64, 73
1, 438424, Control_c, 0, 64, 73
1, 438430, Note_on_c, 0, 82, 82
1, 438430, Note_off_c, 0, 84, 64
1, 438439, Control_c, 0, 64, 74
1, 438441, Note_off_c, 0, 85, 30
1, 438449, Note_off_c, 0, 82, 73
1, 438469, Control_c, 0, 64, 74
1, 438484, Control_c, 0, 64, 76
1, 438498, Control_c, 0, 64, 77
1, 438513, Control_c, 0, 64, 78
1, 438535, Control_c, 0, 64, 78
1, 438550, Control_c, 0, 64, 79
1, 438565, Control_c, 0, 64, 83
1, 438580, Control_c, 0, 64, 86
1, 438595, Control_c, 0, 64, 87
1, 438609, Control_c, 0, 64, 82
1, 438624, Control_c, 0, 64, 71
1, 438633, Note_on_c, 0, 67, 91
1, 438639, Control_c, 0, 64, 61
1, 438646, Note_on_c, 0, 58, 55
1, 438654, Control_c, 0, 64, 46
1, 438669, Control_c, 0, 64, 0
1, 438678, Note_off_c, 0, 73, 61
1, 438683, Note_off_c, 0, 58, 0
1, 438683, Note_on_c, 0, 58, 13
1, 438764, Note_on_c, 0, 51, 70
1, 438788, Note_off_c, 0, 58, 56
1, 438878, Note_off_c, 0, 51, 49
1, 438903, Note_on_c, 0, 56, 66
1, 439014, Note_on_c, 0, 51, 67
1, 439029, Note_off_c, 0, 56, 54
1, 439105, Note_off_c, 0, 51, 54
1, 439139, Note_on_c, 0, 55, 55
1, 439189, Note_off_c, 0, 55, 65
1, 439201, Note_on_c, 0, 53, 66
1, 439233, Control_c, 0, 64, 29
1, 439248, Control_c, 0, 64, 42
1, 439256, Note_off_c, 0, 53, 64
1, 439258, Note_on_c, 0, 51, 74
1, 439263, Control_c, 0, 64, 55
1, 439285, Control_c, 0, 64, 61
1, 439295, Note_off_c, 0, 51, 68
1, 439300, Control_c, 0, 64, 62
1, 439315, Control_c, 0, 64, 63
1, 439330, Control_c, 0, 64, 64
1, 439345, Control_c, 0, 64, 67
1, 439359, Control_c, 0, 64, 70
1, 439374, Control_c, 0, 64, 70
1, 439418, Control_c, 0, 64, 68
1, 439432, Control_c, 0, 64, 64
1, 439447, Control_c, 0, 64, 58
1, 439456, Note_on_c, 0, 72, 90
1, 439462, Control_c, 0, 64, 43
1, 439469, Note_on_c, 0, 75, 64
1, 439476, Control_c, 0, 64, 8
1, 439491, Note_off_c, 0, 67, 60
1, 439491, Control_c, 0, 64, 0
1, 439597, Note_on_c, 0, 82, 65
1, 439610, Note_off_c, 0, 75, 50
1, 439725, Note_on_c, 0, 80, 66
1, 439819, Note_off_c, 0, 82, 27
1, 439840, Note_on_c, 0, 85, 64
1, 439852, Note_off_c, 0, 80, 54
1, 439937, Control_c, 0, 64, 15
1, 439952, Control_c, 0, 64, 26
1, 439953, Note_on_c, 0, 84, 66
1, 439962, Note_off_c, 0, 85, 54
1, 439966, Control_c, 0, 64, 36
1, 439981, Control_c, 0, 64, 46
1, 439996, Control_c, 0, 64, 56
1, 440011, Control_c, 0, 64, 63
1, 440034, Control_c, 0, 64, 67
1, 440038, Note_on_c, 0, 82, 74
1, 440048, Control_c, 0, 64, 69
1, 440060, Note_off_c, 0, 84, 58
1, 440063, Control_c, 0, 64, 72
1, 440078, Control_c, 0, 64, 75
1, 440093, Control_c, 0, 64, 81
1, 440098, Note_on_c, 0, 80, 75
1, 440103, Note_off_c, 0, 82, 64
1, 440107, Control_c, 0, 64, 87
1, 440120, Note_off_c, 0, 80, 69
1, 440122, Control_c, 0, 64, 93
1, 440137, Control_c, 0, 64, 97
1, 440152, Control_c, 0, 64, 99
1, 440167, Control_c, 0, 64, 100
1, 440181, Control_c, 0, 64, 102
1, 440196, Control_c, 0, 64, 106
1, 440211, Control_c, 0, 64, 111
1, 440225, Control_c, 0, 64, 113
1, 440270, Control_c, 0, 64, 111
1, 440285, Control_c, 0, 64, 103
1, 440299, Control_c, 0, 64, 88
1, 440305, Note_on_c, 0, 65, 73
1, 440314, Control_c, 0, 64, 73
1, 440324, Note_on_c, 0, 56, 46
1, 440329, Control_c, 0, 64, 64
1, 440344, Control_c, 0, 64, 55
1, 440359, Control_c, 0, 64, 36
1, 440373, Control_c, 0, 64, 0
1, 440445, Note_on_c, 0, 49, 63
1, 440474, Note_off_c, 0, 56, 40
1, 440564, Note_off_c, 0, 72, 53
1, 440581, Note_off_c, 0, 49, 58
1, 440582, Note_on_c, 0, 54, 66
1, 440695, Note_on_c, 0, 49, 71
1, 440719, Note_off_c, 0, 54, 63
1, 440803, Note_off_c, 0, 49, 63
1, 440807, Note_on_c, 0, 53, 61
1, 440841, Control_c, 0, 64, 8
1, 440856, Control_c, 0, 64, 20
1, 440871, Control_c, 0, 64, 30
1, 440877, Note_on_c, 0, 51, 70
1, 440880, Note_off_c, 0, 53, 65
1, 440886, Control_c, 0, 64, 41
1, 440901, Control_c, 0, 64, 50
1, 440916, Control_c, 0, 64, 56
1, 440930, Control_c, 0, 64, 59
1, 440937, Note_off_c, 0, 51, 63
1, 440938, Note_on_c, 0, 49, 74
1, 440945, Control_c, 0, 64, 61
1, 440960, Control_c, 0, 64, 62
1, 440975, Control_c, 0, 64, 65
1, 440990, Control_c, 0, 64, 70
1, 440994, Note_off_c, 0, 49, 65
1, 441004, Control_c, 0, 64, 73
1, 441019, Control_c, 0, 64, 75
1, 441055, Note_on_c, 0, 67, 84
1, 441063, Control_c, 0, 64, 72
1, 441072, Note_on_c, 0, 63, 67
1, 441078, Control_c, 0, 64, 64
1, 441093, Control_c, 0, 64, 53
1, 441108, Control_c, 0, 64, 24
1, 441109, Note_off_c, 0, 65, 62
1, 441122, Control_c, 0, 64, 0
1, 441185, Note_on_c, 0, 58, 78
1, 441201, Note_off_c, 0, 63, 56
1, 441292, Note_on_c, 0, 61, 82
1, 441306, Note_off_c, 0, 58, 59
1, 441399, Note_on_c, 0, 58, 79
1, 441439, Note_off_c, 0, 61, 57
1, 441470, Note_off_c, 0, 58, 58
1, 441487, Note_on_c, 0, 68, 89
1, 441492, Note_on_c, 0, 60, 76
1, 441509, Control_c, 0, 64, 29
1, 441531, Control_c, 0, 64, 44
1, 441532, Note_off_c, 0, 67, 61
1, 441545, Control_c, 0, 64, 56
1, 441560, Control_c, 0, 64, 65
1, 441572, Note_off_c, 0, 60, 62
1, 441575, Control_c, 0, 64, 69
1, 441583, Note_on_c, 0, 58, 80
1, 441590, Control_c, 0, 64, 71
1, 441605, Control_c, 0, 64, 74
1, 441619, Control_c, 0, 64, 79
1, 441631, Note_off_c, 0, 58, 62
1, 441634, Control_c, 0, 64, 87
1, 441649, Control_c, 0, 64, 98
1, 441658, Note_on_c, 0, 56, 75
1, 441664, Control_c, 0, 64, 117
1, 441679, Control_c, 0, 64, 127
1, 441687, Note_off_c, 0, 56, 67
1, 441753, Control_c, 0, 64, 114
1, 441768, Control_c, 0, 64, 75
1, 441783, Control_c, 0, 64, 59
1, 441785, Note_on_c, 0, 70, 95
1, 441798, Control_c, 0, 64, 30
1, 441813, Control_c, 0, 64, 0
1, 441819, Note_on_c, 0, 79, 59
1, 441820, Note_off_c, 0, 68, 59
1, 441879, Note_off_c, 0, 79, 0
1, 441879, Note_on_c, 0, 79, 12
1, 441920, Note_on_c, 0, 74, 81
1, 441970, Note_off_c, 0, 79, 42
1, 442019, Control_c, 0, 64, 28
1, 442034, Note_off_c, 0, 74, 54
1, 442034, Control_c, 0, 64, 44
1, 442039, Note_on_c, 0, 77, 88
1, 442049, Control_c, 0, 64, 57
1, 442064, Control_c, 0, 64, 67
1, 442079, Control_c, 0, 64, 79
1, 442093, Control_c, 0, 64, 88
1, 442097, Note_off_c, 0, 70, 66
1, 442108, Control_c, 0, 64, 100
1, 442123, Control_c, 0, 64, 127
1, 442145, Note_on_c, 0, 73, 87
1, 442157, Note_off_c, 0, 77, 57
1, 442246, Note_on_c, 0, 77, 90
1, 442275, Note_off_c, 0, 73, 61
1, 442341, Note_on_c, 0, 75, 83
1, 442387, Note_off_c, 0, 77, 57
1, 442417, Note_on_c, 0, 73, 91
1, 442445, Note_off_c, 0, 75, 62
1, 442466, Note_off_c, 0, 73, 66
1, 442564, Note_on_c, 0, 44, 87
1, 442577, Note_on_c, 0, 32, 71
1, 442587, Note_on_c, 0, 63, 70
1, 442588, Note_on_c, 0, 72, 66
1, 442591, Control_c, 0, 64, 66
1, 442606, Control_c, 0, 64, 32
1, 442621, Control_c, 0, 64, 0
1, 442721, Note_on_c, 0, 70, 72
1, 442725, Control_c, 0, 64, 31
1, 442740, Control_c, 0, 64, 46
1, 442743, Note_off_c, 0, 72, 49
1, 442755, Control_c, 0, 64, 61
1, 442767, Note_off_c, 0, 63, 58
1, 442769, Control_c, 0, 64, 84
1, 442784, Control_c, 0, 64, 127
1, 442844, Note_on_c, 0, 67, 77
1, 442863, Note_off_c, 0, 70, 59
1, 442886, Note_off_c, 0, 32, 59
1, 442939, Note_off_c, 0, 44, 61
1, 442940, Note_on_c, 0, 68, 81
1, 442940, Note_off_c, 0, 67, 61
1, 443033, Note_off_c, 0, 68, 57
1, 443045, Note_on_c, 0, 60, 77
1, 443127, Note_off_c, 0, 60, 61
1, 443134, Note_on_c, 0, 66, 79
1, 443196, Note_off_c, 0, 66, 61
1, 443220, Control_c, 0, 64, 97
1, 443235, Control_c, 0, 64, 58
1, 443247, Note_on_c, 0, 49, 92
1, 443250, Control_c, 0, 64, 0
1, 443262, Note_on_c, 0, 56, 63
1, 443262, Note_on_c, 0, 37, 69
1, 443351, Note_off_c, 0, 56, 61
1, 443363, Note_on_c, 0, 66, 68
1, 443398, Control_c, 0, 64, 22
1, 443413, Control_c, 0, 64, 37
1, 443428, Control_c, 0, 64, 50
1, 443442, Control_c, 0, 64, 62
1, 443457, Control_c, 0, 64, 73
1, 443464, Note_on_c, 0, 56, 69
1, 443472, Control_c, 0, 64, 86
1, 443478, Note_off_c, 0, 66, 56
1, 443487, Control_c, 0, 64, 95
1, 443502, Control_c, 0, 64, 127
1, 443545, Note_off_c, 0, 56, 64
1, 443549, Note_off_c, 0, 49, 63
1, 443554, Note_on_c, 0, 64, 68
1, 443636, Note_on_c, 0, 56, 72
1, 443657, Note_off_c, 0, 64, 57
1, 443720, Note_off_c, 0, 56, 64
1, 443732, Note_on_c, 0, 65, 70
1, 443787, Note_off_c, 0, 37, 62
1, 443790, Note_off_c, 0, 65, 62
1, 443820, Control_c, 0, 64, 76
1, 443827, Note_on_c, 0, 46, 95
1, 443835, Control_c, 0, 64, 48
1, 443843, Note_on_c, 0, 34, 67
1, 443847, Note_on_c, 0, 61, 72
1, 443849, Control_c, 0, 64, 0
1, 443925, Control_c, 0, 64, 17
1, 443932, Note_on_c, 0, 65, 73
1, 443932, Note_off_c, 0, 61, 63
1, 443939, Control_c, 0, 64, 39
1, 443954, Control_c, 0, 64, 54
1, 443969, Control_c, 0, 64, 69
1, 443984, Control_c, 0, 64, 104
1, 443999, Control_c, 0, 64, 127
1, 444009, Note_off_c, 0, 65, 58
1, 444023, Note_on_c, 0, 61, 82
1, 444044, Note_off_c, 0, 34, 61
1, 444087, Note_off_c, 0, 61, 55
1, 444089, Note_off_c, 0, 46, 62
1, 444110, Note_on_c, 0, 72, 71
1, 444174, Note_off_c, 0, 72, 58
1, 444185, Note_on_c, 0, 61, 81
1, 444270, Note_on_c, 0, 70, 80
1, 444271, Note_off_c, 0, 61, 64
1, 444322, Note_off_c, 0, 70, 62
1, 444354, Control_c, 0, 64, 68
1, 444364, Note_on_c, 0, 51, 102
1, 444368, Note_on_c, 0, 58, 82
1, 444369, Control_c, 0, 64, 40
1, 444378, Note_on_c, 0, 39, 77
1, 444383, Control_c, 0, 64, 0
1, 444436, Note_off_c, 0, 58, 60
1, 444450, Note_on_c, 0, 68, 71
1, 444525, Control_c, 0, 64, 29
1, 444540, Control_c, 0, 64, 42
1, 444550, Note_on_c, 0, 58, 75
1, 444554, Control_c, 0, 64, 55
1, 444569, Control_c, 0, 64, 65
1, 444573, Note_off_c, 0, 68, 57
1, 444584, Control_c, 0, 64, 79
1, 444598, Control_c, 0, 64, 91
1, 444613, Control_c, 0, 64, 107
1, 444616, Note_off_c, 0, 51, 62
1, 444628, Control_c, 0, 64, 127
1, 444637, Note_off_c, 0, 58, 61
1, 444639, Note_on_c, 0, 66, 75
1, 444689, Note_off_c, 0, 39, 61
1, 444726, Note_on_c, 0, 58, 80
1, 444740, Note_off_c, 0, 66, 59
1, 444805, Note_off_c, 0, 58, 61
1, 444815, Note_on_c, 0, 67, 77
1, 444873, Note_off_c, 0, 67, 61
1, 444881, Control_c, 0, 64, 86
1, 444895, Control_c, 0, 64, 49
1, 444904, Note_on_c, 0, 48, 88
1, 444910, Control_c, 0, 64, 0
1, 444918, Note_on_c, 0, 36, 68
1, 444925, Note_on_c, 0, 63, 69
1, 445004, Note_on_c, 0, 67, 74
1, 445009, Note_off_c, 0, 63, 63
1, 445029, Control_c, 0, 64, 31
1, 445044, Control_c, 0, 64, 47
1, 445055, Note_off_c, 0, 36, 59
1, 445059, Control_c, 0, 64, 62
1, 445074, Control_c, 0, 64, 81
1, 445088, Control_c, 0, 64, 106
1, 445091, Note_off_c, 0, 67, 54
1, 445095, Note_on_c, 0, 63, 81
1, 445103, Control_c, 0, 64, 111
1, 445118, Control_c, 0, 64, 127
1, 445162, Note_off_c, 0, 63, 64
1, 445170, Note_on_c, 0, 70, 75
1, 445253, Note_on_c, 0, 63, 84
1, 445259, Note_off_c, 0, 70, 60
1, 445348, Note_on_c, 0, 68, 79
1, 445349, Note_off_c, 0, 63, 63
1, 445421, Note_off_c, 0, 68, 57
1, 445422, Control_c, 0, 64, 72
1, 445433, Note_on_c, 0, 53, 101
1, 445437, Control_c, 0, 64, 47
1, 445446, Note_on_c, 0, 62, 77
1, 445452, Control_c, 0, 64, 0
1, 445456, Note_on_c, 0, 41, 61
1, 445469, Note_off_c, 0, 48, 58
1, 445528, Note_on_c, 0, 68, 77
1, 445532, Note_off_c, 0, 62, 53
1, 445586, Control_c, 0, 64, 19
1, 445596, Note_off_c, 0, 68, 57
1, 445601, Control_c, 0, 64, 38
1, 445616, Control_c, 0, 64, 52
1, 445623, Note_on_c, 0, 67, 80
1, 445631, Control_c, 0, 64, 64
1, 445645, Control_c, 0, 64, 77
1, 445660, Control_c, 0, 64, 82
1, 445663, Note_off_c, 0, 53, 63
1, 445675, Control_c, 0, 64, 86
1, 445676, Note_off_c, 0, 41, 62
1, 445690, Control_c, 0, 64, 100
1, 445705, Control_c, 0, 64, 127
1, 445709, Note_on_c, 0, 70, 73
1, 445720, Note_off_c, 0, 67, 59
1, 445786, Note_off_c, 0, 70, 60
1, 445788, Note_on_c, 0, 61, 80
1, 445868, Note_on_c, 0, 68, 77
1, 445873, Note_off_c, 0, 61, 63
1, 445927, Control_c, 0, 64, 64
1, 445935, Note_off_c, 0, 68, 59
1, 445942, Control_c, 0, 64, 28
1, 445957, Control_c, 0, 64, 0
1, 445961, Note_on_c, 0, 51, 91
1, 445964, Note_on_c, 0, 60, 80
1, 445975, Note_on_c, 0, 39, 74
1, 446001, Control_c, 0, 64, 14
1, 446023, Control_c, 0, 64, 29
1, 446037, Control_c, 0, 64, 39
1, 446040, Note_off_c, 0, 60, 62
1, 446047, Note_on_c, 0, 68, 75
1, 446052, Control_c, 0, 64, 51
1, 446067, Control_c, 0, 64, 60
1, 446082, Control_c, 0, 64, 66
1, 446097, Control_c, 0, 64, 71
1, 446112, Control_c, 0, 64, 73
1, 446116, Note_off_c, 0, 51, 56
1, 446123, Note_off_c, 0, 68, 60
1, 446127, Control_c, 0, 64, 74
1, 446141, Control_c, 0, 64, 78
1, 446143, Note_on_c, 0, 58, 82
1, 446156, Control_c, 0, 64, 98
1, 446170, Control_c, 0, 64, 127
1, 446218, Note_on_c, 0, 68, 74
1, 446219, Note_off_c, 0, 58, 60
1, 446244, Control_c, 0, 64, 81
1, 446259, Control_c, 0, 64, 66
1, 446261, Note_off_c, 0, 39, 48
1, 446274, Control_c, 0, 64, 55
1, 446290, Control_c, 0, 64, 35
1, 446303, Note_on_c, 0, 49, 86
1, 446305, Control_c, 0, 64, 0
1, 446306, Note_off_c, 0, 68, 60
1, 446309, Note_on_c, 0, 65, 75
1, 446311, Note_on_c, 0, 37, 70
1, 446373, Note_off_c, 0, 37, 61
1, 446373, Note_off_c, 0, 49, 65
1, 446403, Note_on_c, 0, 67, 69
1, 446404, Note_off_c, 0, 65, 65
1, 446447, Note_off_c, 0, 67, 58
1, 446475, Note_on_c, 0, 48, 84
1, 446481, Note_on_c, 0, 36, 71
1, 446484, Note_on_c, 0, 63, 79
1, 446511, Note_off_c, 0, 48, 65
1, 446526, Note_off_c, 0, 36, 63
1, 446552, Note_off_c, 0, 63, 57
1, 446569, Note_on_c, 0, 68, 78
1, 446645, Note_on_c, 0, 46, 86
1, 446656, Note_on_c, 0, 63, 82
1, 446657, Note_on_c, 0, 34, 67
1, 446661, Note_off_c, 0, 68, 54
1, 446672, Note_off_c, 0, 46, 63
1, 446689, Note_off_c, 0, 34, 63
1, 446741, Note_off_c, 0, 63, 63
1, 446744, Note_on_c, 0, 70, 78
1, 446809, Note_off_c, 0, 70, 61
1, 446826, Note_on_c, 0, 44, 81
1, 446837, Note_on_c, 0, 32, 68
1, 446841, Note_on_c, 0, 63, 76
1, 446886, Note_off_c, 0, 32, 62
1, 446896, Note_off_c, 0, 44, 60
1, 446928, Note_off_c, 0, 63, 64
1, 446931, Note_on_c, 0, 72, 69
1, 446990, Note_off_c, 0, 72, 62
1, 447015, Note_on_c, 0, 43, 92
1, 447020, Note_on_c, 0, 63, 85
1, 447021, Note_on_c, 0, 31, 75
1, 447024, Note_on_c, 0, 70, 74
1, 447079, Note_off_c, 0, 63, 61
1, 447098, Control_c, 0, 64, 25
1, 447104, Note_on_c, 0, 75, 73
1, 447104, Note_off_c, 0, 70, 58
1, 447113, Control_c, 0, 64, 42
1, 447128, Note_off_c, 0, 31, 63
1, 447128, Control_c, 0, 64, 58
1, 447143, Control_c, 0, 64, 75
1, 447157, Control_c, 0, 64, 108
1, 447172, Control_c, 0, 64, 114
1, 447178, Note_off_c, 0, 43, 62
1, 447187, Control_c, 0, 64, 127
1, 447197, Note_on_c, 0, 70, 78
1, 447197, Note_off_c, 0, 75, 58
1, 447277, Note_on_c, 0, 73, 77
1, 447278, Note_off_c, 0, 70, 58
1, 447352, Note_off_c, 0, 73, 49
1, 447371, Note_on_c, 0, 72, 76
1, 447448, Note_off_c, 0, 72, 49
1, 447461, Note_on_c, 0, 73, 77
1, 447554, Note_off_c, 0, 73, 59
1, 447579, Control_c, 0, 64, 92
1, 447587, Note_on_c, 0, 68, 101
1, 447594, Control_c, 0, 64, 60
1, 447596, Note_on_c, 0, 70, 82
1, 447608, Control_c, 0, 64, 24
1, 447623, Control_c, 0, 64, 0
1, 447682, Note_off_c, 0, 70, 58
1, 447692, Note_on_c, 0, 73, 70
1, 447763, Note_off_c, 0, 73, 57
1, 447778, Note_on_c, 0, 71, 74
1, 447787, Control_c, 0, 64, 14
1, 447802, Control_c, 0, 64, 25
1, 447816, Control_c, 0, 64, 33
1, 447831, Control_c, 0, 64, 42
1, 447839, Note_off_c, 0, 71, 56
1, 447846, Control_c, 0, 64, 54
1, 447859, Note_on_c, 0, 73, 79
1, 447861, Control_c, 0, 64, 64
1, 447876, Control_c, 0, 64, 71
1, 447891, Control_c, 0, 64, 74
1, 447906, Control_c, 0, 64, 78
1, 447921, Control_c, 0, 64, 83
1, 447926, Note_off_c, 0, 73, 60
1, 447936, Control_c, 0, 64, 95
1, 447936, Note_on_c, 0, 71, 79
1, 447951, Control_c, 0, 64, 107
1, 447966, Control_c, 0, 64, 113
1, 447995, Control_c, 0, 64, 127
1, 447996, Note_off_c, 0, 71, 56
1, 448016, Note_on_c, 0, 72, 71
1, 448037, Note_off_c, 0, 72, 69
1, 448084, Control_c, 0, 64, 108
1, 448091, Note_off_c, 0, 68, 55
1, 448099, Control_c, 0, 64, 65
1, 448100, Note_on_c, 0, 65, 82
1, 448106, Note_on_c, 0, 72, 78
1, 448113, Control_c, 0, 64, 39
1, 448128, Control_c, 0, 64, 0
1, 448173, Note_off_c, 0, 72, 56
1, 448189, Note_on_c, 0, 80, 77
1, 448217, Control_c, 0, 64, 24
1, 448231, Control_c, 0, 64, 36
1, 448246, Control_c, 0, 64, 51
1, 448264, Note_off_c, 0, 80, 60
1, 448269, Control_c, 0, 64, 63
1, 448278, Poly_aftertouch_c, 0, 68, 127
1, 448279, Note_on_c, 0, 72, 78
1, 448284, Control_c, 0, 64, 78
1, 448299, Control_c, 0, 64, 88
1, 448313, Control_c, 0, 64, 89
1, 448328, Control_c, 0, 64, 100
1, 448333, Poly_aftertouch_c, 0, 68, 0
1, 448343, Control_c, 0, 64, 127
1, 448356, Note_on_c, 0, 82, 82
1, 448356, Note_off_c, 0, 72, 56
1, 448395, Note_off_c, 0, 65, 55
1, 448449, Note_on_c, 0, 72, 79
1, 448450, Note_off_c, 0, 82, 59
1, 448532, Note_off_c, 0, 72, 58
1, 448533, Note_on_c, 0, 80, 79
1, 448625, Note_off_c, 0, 80, 60
1, 448630, Note_on_c, 0, 70, 93
1, 448639, Control_c, 0, 64, 78
1, 448652, Note_on_c, 0, 74, 70
1, 448654, Control_c, 0, 64, 56
1, 448669, Control_c, 0, 64, 0
1, 448722, Note_off_c, 0, 74, 56
1, 448747, Note_on_c, 0, 79, 56
1, 448821, Note_on_c, 0, 74, 72
1, 448835, Note_off_c, 0, 79, 58
1, 448848, Control_c, 0, 64, 22
1, 448862, Control_c, 0, 64, 38
1, 448874, Note_off_c, 0, 74, 58
1, 448877, Control_c, 0, 64, 51
1, 448892, Control_c, 0, 64, 62
1, 448902, Note_on_c, 0, 76, 65
1, 448907, Control_c, 0, 64, 72
1, 448922, Control_c, 0, 64, 78
1, 448936, Control_c, 0, 64, 84
1, 448951, Control_c, 0, 64, 100
1, 448966, Control_c, 0, 64, 127
1, 448973, Note_on_c, 0, 74, 77
1, 448974, Note_off_c, 0, 76, 64
1, 449056, Note_off_c, 0, 74, 62
1, 449061, Note_on_c, 0, 77, 74
1, 449111, Note_off_c, 0, 77, 61
1, 449149, Note_on_c, 0, 67, 86
1, 449152, Control_c, 0, 64, 87
1, 449160, Note_on_c, 0, 75, 69
1, 449167, Control_c, 0, 64, 59
1, 449182, Note_off_c, 0, 70, 59
1, 449182, Control_c, 0, 64, 17
1, 449196, Control_c, 0, 64, 0
1, 449245, Note_on_c, 0, 82, 78
1, 449248, Note_off_c, 0, 75, 61
1, 449270, Control_c, 0, 64, 23
1, 449285, Control_c, 0, 64, 38
1, 449300, Control_c, 0, 64, 56
1, 449313, Note_off_c, 0, 82, 62
1, 449315, Control_c, 0, 64, 72
1, 449319, Note_on_c, 0, 75, 73
1, 449329, Control_c, 0, 64, 107
1, 449344, Control_c, 0, 64, 117
1, 449359, Control_c, 0, 64, 127
1, 449383, Note_off_c, 0, 75, 61
1, 449406, Note_on_c, 0, 84, 83
1, 449482, Note_on_c, 0, 75, 83
1, 449483, Note_off_c, 0, 84, 62
1, 449563, Note_on_c, 0, 82, 82
1, 449574, Note_off_c, 0, 75, 60
1, 449643, Note_off_c, 0, 82, 64
1, 449677, Note_on_c, 0, 72, 102
1, 449686, Control_c, 0, 64, 95
1, 449689, Note_on_c, 0, 75, 69
1, 449701, Control_c, 0, 64, 60
1, 449716, Control_c, 0, 64, 27
1, 449731, Control_c, 0, 64, 0
1, 449742, Note_off_c, 0, 67, 37
1, 449766, Note_on_c, 0, 82, 74
1, 449766, Note_off_c, 0, 75, 56
1, 449811, Control_c, 0, 64, 10
1, 449826, Control_c, 0, 64, 27
1, 449841, Control_c, 0, 64, 39
1, 449854, Note_on_c, 0, 75, 76
1, 449856, Control_c, 0, 64, 52
1, 449858, Note_off_c, 0, 82, 64
1, 449871, Control_c, 0, 64, 66
1, 449885, Control_c, 0, 64, 83
1, 449900, Control_c, 0, 64, 91
1, 449915, Control_c, 0, 64, 92
1, 449927, Note_off_c, 0, 75, 61
1, 449930, Note_on_c, 0, 79, 77
1, 449930, Control_c, 0, 64, 103
1, 449945, Control_c, 0, 64, 127
1, 450009, Note_off_c, 0, 79, 58
1, 450012, Note_on_c, 0, 75, 80
1, 450093, Note_on_c, 0, 80, 82
1, 450097, Note_off_c, 0, 75, 60
1, 450162, Note_off_c, 0, 80, 60
1, 450177, Note_on_c, 0, 70, 92
1, 450181, Control_c, 0, 64, 67
1, 450182, Note_on_c, 0, 74, 78
1, 450196, Control_c, 0, 64, 46
1, 450210, Control_c, 0, 64, 0
1, 450219, Note_off_c, 0, 72, 58
1, 450249, Note_off_c, 0, 74, 51
1, 450263, Note_on_c, 0, 80, 80
1, 450330, Control_c, 0, 64, 14
1, 450333, Note_off_c, 0, 80, 62
1, 450345, Control_c, 0, 64, 21
1, 450348, Note_on_c, 0, 74, 79
1, 450360, Control_c, 0, 64, 26
1, 450374, Control_c, 0, 64, 31
1, 450389, Control_c, 0, 64, 37
1, 450404, Control_c, 0, 64, 44
1, 450419, Control_c, 0, 64, 53
1, 450424, Note_off_c, 0, 74, 61
1, 450425, Note_on_c, 0, 82, 76
1, 450434, Control_c, 0, 64, 59
1, 450449, Control_c, 0, 64, 62
1, 450479, Control_c, 0, 64, 62
1, 450494, Control_c, 0, 64, 64
1, 450513, Note_off_c, 0, 82, 59
1, 450515, Control_c, 0, 64, 68
1, 450523, Note_on_c, 0, 74, 78
1, 450525, Note_on_c, 0, 68, 87
1, 450530, Control_c, 0, 64, 72
1, 450545, Control_c, 0, 64, 74
1, 450558, Note_off_c, 0, 70, 59
1, 450575, Note_off_c, 0, 74, 64
1, 450589, Control_c, 0, 64, 74
1, 450604, Control_c, 0, 64, 77
1, 450609, Note_on_c, 0, 84, 76
1, 450619, Control_c, 0, 64, 83
1, 450634, Control_c, 0, 64, 86
1, 450649, Control_c, 0, 64, 87
1, 450678, Control_c, 0, 64, 85
1, 450679, Note_off_c, 0, 84, 61
1, 450693, Control_c, 0, 64, 74
1, 450694, Note_on_c, 0, 67, 88
1, 450697, Note_off_c, 0, 68, 56
1, 450702, Note_on_c, 0, 75, 82
1, 450708, Control_c, 0, 64, 61
1, 450723, Control_c, 0, 64, 29
1, 450738, Control_c, 0, 64, 0
1, 450774, Note_off_c, 0, 75, 60
1, 450786, Note_on_c, 0, 84, 71
1, 450860, Note_off_c, 0, 84, 60
1, 450860, Note_on_c, 0, 75, 79
1, 450930, Control_c, 0, 64, 21
1, 450938, Note_off_c, 0, 75, 61
1, 450945, Control_c, 0, 64, 29
1, 450947, Note_on_c, 0, 81, 80
1, 450959, Control_c, 0, 64, 36
1, 450974, Control_c, 0, 64, 46
1, 450989, Control_c, 0, 64, 56
1, 451004, Control_c, 0, 64, 63
1, 451019, Control_c, 0, 64, 67
1, 451022, Note_off_c, 0, 81, 62
1, 451031, Note_on_c, 0, 73, 84
1, 451033, Control_c, 0, 64, 69
1, 451048, Control_c, 0, 64, 70
1, 451063, Control_c, 0, 64, 72
1, 451079, Control_c, 0, 64, 76
1, 451089, Note_off_c, 0, 67, 36
1, 451094, Control_c, 0, 64, 80
1, 451109, Control_c, 0, 64, 84
1, 451113, Note_on_c, 0, 82, 82
1, 451119, Note_off_c, 0, 73, 63
1, 451123, Control_c, 0, 64, 86
1, 451138, Control_c, 0, 64, 92
1, 451153, Control_c, 0, 64, 102
1, 451168, Control_c, 0, 64, 114
1, 451182, Control_c, 0, 64, 109
1, 451197, Control_c, 0, 64, 83
1, 451212, Control_c, 0, 64, 66
1, 451218, Note_on_c, 0, 70, 96
1, 451218, Note_off_c, 0, 82, 61
1, 451227, Control_c, 0, 64, 52
1, 451237, Note_on_c, 0, 73, 74
1, 451242, Control_c, 0, 64, 15
1, 451264, Control_c, 0, 64, 0
1, 451319, Note_on_c, 0, 80, 77
1, 451327, Note_off_c, 0, 73, 63
1, 451402, Note_on_c, 0, 73, 69
1, 451406, Note_off_c, 0, 80, 62
1, 451483, Note_on_c, 0, 77, 77
1, 451483, Note_off_c, 0, 73, 63
1, 451549, Note_off_c, 0, 77, 57
1, 451564, Note_on_c, 0, 73, 67
1, 451648, Note_off_c, 0, 73, 61
1, 451649, Note_on_c, 0, 79, 74
1, 451708, Note_off_c, 0, 79, 60
1, 451732, Note_on_c, 0, 73, 74
1, 451808, Note_off_c, 0, 73, 60
1, 451814, Note_on_c, 0, 79, 74
1, 451887, Control_c, 0, 64, 9
1, 451889, Note_off_c, 0, 79, 60
1, 451892, Note_on_c, 0, 73, 75
1, 451902, Control_c, 0, 64, 11
1, 451917, Control_c, 0, 64, 13
1, 451932, Control_c, 0, 64, 15
1, 451946, Control_c, 0, 64, 16
1, 451961, Control_c, 0, 64, 17
1, 451967, Note_off_c, 0, 73, 64
1, 451971, Note_on_c, 0, 75, 76
1, 451976, Control_c, 0, 64, 19
1, 451991, Control_c, 0, 64, 20
1, 452013, Control_c, 0, 64, 22
1, 452028, Control_c, 0, 64, 24
1, 452043, Control_c, 0, 64, 25
1, 452058, Control_c, 0, 64, 27
1, 452059, Note_on_c, 0, 73, 80
1, 452061, Note_off_c, 0, 75, 58
1, 452073, Control_c, 0, 64, 29
1, 452087, Control_c, 0, 64, 32
1, 452102, Control_c, 0, 64, 35
1, 452117, Control_c, 0, 64, 38
1, 452133, Note_off_c, 0, 73, 62
1, 452133, Control_c, 0, 64, 43
1, 452148, Control_c, 0, 64, 46
1, 452151, Note_on_c, 0, 77, 58
1, 452158, Note_on_c, 0, 76, 58
1, 452162, Control_c, 0, 64, 50
1, 452177, Control_c, 0, 64, 52
1, 452188, Note_off_c, 0, 76, 61
1, 452192, Control_c, 0, 64, 53
1, 452196, Note_off_c, 0, 77, 54
1, 452214, Note_on_c, 0, 73, 81
1, 452266, Control_c, 0, 64, 52
1, 452280, Control_c, 0, 64, 49
1, 452294, Note_on_c, 0, 79, 80
1, 452295, Note_off_c, 0, 73, 62
1, 452295, Control_c, 0, 64, 45
1, 452310, Control_c, 0, 64, 39
1, 452324, Control_c, 0, 64, 30
1, 452339, Control_c, 0, 64, 19
1, 452351, Note_off_c, 0, 79, 62
1, 452354, Control_c, 0, 64, 17
1, 452381, Note_on_c, 0, 72, 82
1, 452383, Note_on_c, 0, 68, 85
1, 452384, Control_c, 0, 64, 19
1, 452398, Control_c, 0, 64, 22
1, 452410, Note_off_c, 0, 70, 58
1, 452413, Control_c, 0, 64, 23
1, 452428, Control_c, 0, 64, 25
1, 452443, Control_c, 0, 64, 28
1, 452445, Note_off_c, 0, 72, 61
1, 452457, Note_on_c, 0, 80, 82
1, 452458, Control_c, 0, 64, 34
1, 452473, Control_c, 0, 64, 44
1, 452488, Control_c, 0, 64, 54
1, 452503, Control_c, 0, 64, 60
1, 452518, Control_c, 0, 64, 63
1, 452522, Note_off_c, 0, 80, 59
1, 452532, Control_c, 0, 64, 64
1, 452544, Note_on_c, 0, 72, 86
1, 452547, Control_c, 0, 64, 64
1, 452559, Note_on_c, 0, 66, 89
1, 452562, Control_c, 0, 64, 65
1, 452577, Control_c, 0, 64, 67
1, 452592, Note_off_c, 0, 72, 59
1, 452592, Control_c, 0, 64, 70
1, 452592, Note_off_c, 0, 68, 60
1, 452606, Control_c, 0, 64, 74
1, 452621, Control_c, 0, 64, 79
1, 452634, Note_on_c, 0, 82, 85
1, 452636, Control_c, 0, 64, 83
1, 452651, Control_c, 0, 64, 90
1, 452666, Control_c, 0, 64, 104
1, 452682, Control_c, 0, 64, 127
1, 452700, Note_off_c, 0, 82, 62
1, 452711, Note_off_c, 0, 66, 57
1, 452711, Control_c, 0, 64, 108
1, 452726, Control_c, 0, 64, 72
1, 452735, Note_on_c, 0, 73, 81
1, 452736, Note_on_c, 0, 65, 93
1, 452741, Control_c, 0, 64, 54
1, 452763, Control_c, 0, 64, 0
1, 452833, Note_on_c, 0, 82, 82
1, 452843, Note_off_c, 0, 73, 57
1, 452914, Note_off_c, 0, 82, 60
1, 452918, Note_on_c, 0, 80, 87
1, 453002, Note_on_c, 0, 85, 81
1, 453015, Note_off_c, 0, 80, 61
1, 453029, Control_c, 0, 64, 25
1, 453044, Control_c, 0, 64, 41
1, 453059, Control_c, 0, 64, 58
1, 453074, Control_c, 0, 64, 86
1, 453082, Note_off_c, 0, 65, 0
1, 453084, Note_on_c, 0, 67, 82
1, 453085, Note_on_c, 0, 82, 91
1, 453089, Control_c, 0, 64, 127
1, 453091, Note_off_c, 0, 85, 64
1, 453111, Note_on_c, 0, 65, 17
1, 453113, Note_off_c, 0, 67, 66
1, 453147, Note_off_c, 0, 82, 64
1, 453149, Note_off_c, 0, 65, 48
1, 453192, Note_on_c, 0, 87, 91
1, 453228, Note_off_c, 0, 87, 67
1, 453355, Control_c, 0, 64, 99
1, 453360, Note_on_c, 0, 48, 69
1, 453370, Control_c, 0, 64, 58
1, 453373, Note_on_c, 0, 68, 88
1, 453376, Note_on_c, 0, 80, 90
1, 453379, Note_on_c, 0, 75, 79
1, 453385, Control_c, 0, 64, 0
1, 453494, Note_on_c, 0, 53, 69
1, 453495, Note_off_c, 0, 48, 61
1, 453512, Control_c, 0, 64, 17
1, 453526, Control_c, 0, 64, 37
1, 453541, Control_c, 0, 64, 53
1, 453556, Control_c, 0, 64, 68
1, 453571, Control_c, 0, 64, 97
1, 453585, Control_c, 0, 64, 104
1, 453593, Note_on_c, 0, 51, 72
1, 453600, Note_off_c, 0, 53, 62
1, 453600, Control_c, 0, 64, 108
1, 453615, Control_c, 0, 64, 127
1, 453627, Note_off_c, 0, 68, 59
1, 453643, Note_off_c, 0, 51, 61
1, 453648, Note_off_c, 0, 75, 57
1, 453653, Note_on_c, 0, 56, 73
1, 453679, Note_off_c, 0, 80, 56
1, 453723, Note_off_c, 0, 56, 50
1, 453750, Note_on_c, 0, 55, 76
1, 453821, Note_off_c, 0, 55, 63
1, 453836, Note_on_c, 0, 56, 80
1, 453926, Control_c, 0, 64, 66
1, 453941, Control_c, 0, 64, 38
1, 453944, Note_on_c, 0, 73, 97
1, 453946, Note_on_c, 0, 79, 85
1, 453948, Note_on_c, 0, 85, 88
1, 453951, Note_on_c, 0, 46, 75
1, 453956, Control_c, 0, 64, 0
1, 453960, Note_off_c, 0, 56, 53
1, 454063, Note_on_c, 0, 55, 70
1, 454074, Control_c, 0, 64, 26
1, 454089, Control_c, 0, 64, 41
1, 454103, Control_c, 0, 64, 57
1, 454118, Control_c, 0, 64, 77
1, 454133, Control_c, 0, 64, 127
1, 454147, Note_on_c, 0, 51, 71
1, 454155, Note_off_c, 0, 55, 64
1, 454188, Note_off_c, 0, 46, 35
1, 454204, Note_off_c, 0, 79, 57
1, 454206, Note_off_c, 0, 85, 63
1, 454215, Note_off_c, 0, 51, 64
1, 454224, Note_on_c, 0, 55, 69
1, 454264, Note_off_c, 0, 73, 59
1, 454305, Note_off_c, 0, 55, 63
1, 454318, Note_on_c, 0, 51, 72
1, 454378, Note_off_c, 0, 51, 64
1, 454395, Note_on_c, 0, 55, 69
1, 454462, Note_off_c, 0, 55, 63
1, 454467, Control_c, 0, 64, 80
1, 454482, Control_c, 0, 64, 54
1, 454488, Note_on_c, 0, 79, 82
1, 454488, Note_on_c, 0, 82, 85
1, 454494, Note_on_c, 0, 70, 84
1, 454497, Control_c, 0, 64, 0
1, 454501, Note_on_c, 0, 49, 63
1, 454556, Control_c, 0, 64, 28
1, 454571, Control_c, 0, 64, 44
1, 454586, Control_c, 0, 64, 60
1, 454595, Note_on_c, 0, 58, 74
1, 454600, Control_c, 0, 64, 87
1, 454614, Note_off_c, 0, 49, 62
1, 454615, Control_c, 0, 64, 127
1, 454681, Note_on_c, 0, 51, 71
1, 454685, Note_off_c, 0, 70, 62
1, 454696, Note_off_c, 0, 58, 62
1, 454726, Note_off_c, 0, 79, 60
1, 454747, Note_off_c, 0, 51, 65
1, 454765, Note_on_c, 0, 58, 74
1, 454794, Note_off_c, 0, 82, 63
1, 454846, Note_on_c, 0, 51, 79
1, 454846, Note_off_c, 0, 58, 61
1, 454923, Note_on_c, 0, 58, 75
1, 454932, Note_off_c, 0, 51, 61
1, 455022, Control_c, 0, 64, 81
1, 455037, Control_c, 0, 64, 44
1, 455044, Note_on_c, 0, 75, 92
1, 455046, Note_on_c, 0, 87, 96
1, 455048, Note_on_c, 0, 80, 92
1, 455051, Note_on_c, 0, 48, 62
1, 455051, Note_off_c, 0, 58, 57
1, 455052, Control_c, 0, 64, 0
1, 455112, Control_c, 0, 64, 30
1, 455127, Control_c, 0, 64, 52
1, 455142, Control_c, 0, 64, 71
1, 455144, Note_on_c, 0, 53, 72
1, 455156, Control_c, 0, 64, 127
1, 455175, Note_off_c, 0, 48, 55
1, 455222, Note_on_c, 0, 51, 75
1, 455244, Note_off_c, 0, 53, 62
1, 455248, Note_off_c, 0, 87, 62
1, 455279, Note_off_c, 0, 51, 63
1, 455287, Note_off_c, 0, 80, 61
1, 455295, Note_on_c, 0, 56, 73
1, 455296, Note_off_c, 0, 75, 58
1, 455380, Note_on_c, 0, 55, 73
1, 455460, Note_off_c, 0, 56, 0
1, 455467, Note_off_c, 0, 55, 62
1, 455472, Note_on_c, 0, 56, 62
1, 455585, Note_on_c, 0, 78, 83
1, 455585, Note_on_c, 0, 84, 93
1, 455586, Note_on_c, 0, 51, 71
1, 455586, Control_c, 0, 64, 63
1, 455589, Note_off_c, 0, 56, 63
1, 455590, Note_on_c, 0, 72, 87
1, 455601, Control_c, 0, 64, 0
1, 455687, Note_on_c, 0, 56, 78
1, 455690, Control_c, 0, 64, 19
1, 455704, Control_c, 0, 64, 42
1, 455719, Control_c, 0, 64, 59
1, 455734, Control_c, 0, 64, 85
1, 455756, Control_c, 0, 64, 127
1, 455779, Note_on_c, 0, 54, 76
1, 455785, Note_off_c, 0, 56, 65
1, 455858, Note_off_c, 0, 51, 20
1, 455862, Note_on_c, 0, 56, 81
1, 455862, Note_off_c, 0, 54, 64
1, 455899, Note_off_c, 0, 84, 50
1, 455928, Note_off_c, 0, 78, 60
1, 455940, Note_off_c, 0, 56, 65
1, 455948, Note_on_c, 0, 55, 79
1, 455964, Note_on_c, 0, 75, 91
1, 455978, Note_off_c, 0, 72, 64
1, 456000, Note_off_c, 0, 75, 64
1, 456040, Note_on_c, 0, 56, 85
1, 456050, Note_off_c, 0, 55, 63
1, 456142, Control_c, 0, 64, 71
1, 456152, Note_off_c, 0, 56, 56
1, 456157, Control_c, 0, 64, 41
1, 456161, Note_on_c, 0, 77, 95
1, 456162, Note_on_c, 0, 89, 97
1, 456164, Note_on_c, 0, 49, 73
1, 456172, Control_c, 0, 64, 0
1, 456202, Control_c, 0, 64, 9
1, 456217, Control_c, 0, 64, 33
1, 456232, Control_c, 0, 64, 51
1, 456246, Control_c, 0, 64, 68
1, 456256, Note_on_c, 0, 56, 73
1, 456261, Control_c, 0, 64, 127
1, 456267, Note_off_c, 0, 49, 60
1, 456331, Note_off_c, 0, 56, 66
1, 456336, Note_on_c, 0, 55, 73
1, 456393, Note_off_c, 0, 77, 54
1, 456422, Note_on_c, 0, 56, 74
1, 456438, Note_off_c, 0, 89, 51
1, 456445, Note_off_c, 0, 55, 61
1, 456483, Note_off_c, 0, 56, 63
1, 456513, Note_on_c, 0, 77, 87
1, 456515, Note_on_c, 0, 82, 96
1, 456522, Note_on_c, 0, 50, 66
1, 456559, Note_off_c, 0, 77, 62
1, 456582, Note_off_c, 0, 50, 60
1, 456594, Note_on_c, 0, 56, 70
1, 456628, Note_off_c, 0, 56, 54
1, 456631, Note_off_c, 0, 82, 64
1, 456683, Note_on_c, 0, 51, 75
1, 456683, Control_c, 0, 64, 86
1, 456698, Control_c, 0, 64, 52
1, 456706, Note_on_c, 0, 75, 95
1, 456706, Note_on_c, 0, 87, 90
1, 456709, Note_on_c, 0, 82, 88
1, 456713, Control_c, 0, 64, 0
1, 456774, Note_on_c, 0, 55, 69
1, 456785, Note_off_c, 0, 51, 61
1, 456787, Control_c, 0, 64, 27
1, 456801, Control_c, 0, 64, 42
1, 456816, Control_c, 0, 64, 58
1, 456824, Note_off_c, 0, 82, 63
1, 456831, Control_c, 0, 64, 77
1, 456838, Note_off_c, 0, 87, 64
1, 456846, Control_c, 0, 64, 127
1, 456879, Note_on_c, 0, 51, 82
1, 456905, Note_off_c, 0, 75, 61
1, 456920, Note_off_c, 0, 55, 52
1, 456935, Control_c, 0, 64, 104
1, 456950, Control_c, 0, 64, 94
1, 456965, Control_c, 0, 64, 127
1, 456970, Note_on_c, 0, 58, 76
1, 456974, Note_off_c, 0, 51, 61
1, 457043, Note_on_c, 0, 79, 87
1, 457047, Note_on_c, 0, 73, 93
1, 457047, Note_on_c, 0, 85, 85
1, 457049, Note_off_c, 0, 58, 42
1, 457073, Note_on_c, 0, 52, 70
1, 457126, Note_off_c, 0, 52, 63
1, 457152, Note_on_c, 0, 58, 64
1, 457157, Note_off_c, 0, 85, 62
1, 457158, Note_off_c, 0, 73, 61
1, 457174, Note_off_c, 0, 58, 61
1, 457189, Note_off_c, 0, 79, 58
1, 457265, Note_on_c, 0, 72, 91
1, 457266, Note_on_c, 0, 84, 90
1, 457268, Control_c, 0, 64, 69
1, 457269, Note_on_c, 0, 53, 69
1, 457269, Note_on_c, 0, 80, 81
1, 457283, Control_c, 0, 64, 41
1, 457298, Control_c, 0, 64, 0
1, 457351, Note_on_c, 0, 60, 78
1, 457401, Control_c, 0, 64, 18
1, 457416, Control_c, 0, 64, 44
1, 457431, Control_c, 0, 64, 62
1, 457446, Control_c, 0, 64, 113
1, 457449, Note_on_c, 0, 56, 80
1, 457451, Note_off_c, 0, 72, 58
1, 457461, Control_c, 0, 64, 127
1, 457466, Note_off_c, 0, 60, 64
1, 457527, Note_off_c, 0, 80, 59
1, 457539, Note_off_c, 0, 53, 37
1, 457540, Note_on_c, 0, 60, 82
1, 457550, Note_off_c, 0, 56, 65
1, 457624, Note_on_c, 0, 59, 85
1, 457630, Note_off_c, 0, 60, 63
1, 457714, Note_on_c, 0, 60, 83
1, 457717, Note_off_c, 0, 59, 63
1, 457812, Note_off_c, 0, 60, 60
1, 457865, Note_on_c, 0, 53, 64
1, 457870, Note_on_c, 0, 80, 95
1, 457877, Control_c, 0, 64, 95
1, 457880, Note_on_c, 0, 77, 85
1, 457891, Control_c, 0, 64, 56
1, 457892, Note_off_c, 0, 84, 61
1, 457906, Control_c, 0, 64, 0
1, 457979, Note_on_c, 0, 61, 67
1, 457980, Control_c, 0, 64, 22
1, 458003, Control_c, 0, 64, 38
1, 458017, Control_c, 0, 64, 53
1, 458032, Control_c, 0, 64, 67
1, 458036, Note_off_c, 0, 53, 57
1, 458047, Control_c, 0, 64, 100
1, 458062, Control_c, 0, 64, 127
1, 458070, Note_on_c, 0, 56, 71
1, 458074, Note_off_c, 0, 61, 65
1, 458137, Note_off_c, 0, 56, 65
1, 458149, Note_on_c, 0, 61, 66
1, 458235, Note_on_c, 0, 60, 70
1, 458235, Note_off_c, 0, 61, 49
1, 458298, Note_off_c, 0, 60, 63
1, 458310, Note_on_c, 0, 61, 75
1, 458373, Control_c, 0, 64, 78
1, 458388, Control_c, 0, 64, 52
1, 458400, Note_off_c, 0, 61, 49
1, 458403, Note_on_c, 0, 49, 83
1, 458403, Control_c, 0, 64, 0
1, 458431, Note_on_c, 0, 51, 44
1, 458464, Note_off_c, 0, 51, 35
1, 458477, Control_c, 0, 64, 28
1, 458491, Note_off_c, 0, 49, 63
1, 458491, Control_c, 0, 64, 44
1, 458499, Note_on_c, 0, 61, 76
1, 458506, Control_c, 0, 64, 59
1, 458521, Control_c, 0, 64, 79
1, 458536, Control_c, 0, 64, 127
1, 458587, Note_off_c, 0, 80, 62
1, 458591, Note_on_c, 0, 56, 74
1, 458593, Note_off_c, 0, 61, 65
1, 458629, Note_off_c, 0, 77, 61
1, 458655, Note_off_c, 0, 56, 64
1, 458665, Note_on_c, 0, 61, 69
1, 458747, Note_on_c, 0, 60, 72
1, 458768, Note_off_c, 0, 61, 62
1, 458831, Note_off_c, 0, 60, 63
1, 458832, Note_on_c, 0, 61, 69
1, 458930, Control_c, 0, 64, 72
1, 458941, Note_on_c, 0, 79, 93
1, 458943, Note_off_c, 0, 61, 64
1, 458944, Control_c, 0, 64, 37
1, 458947, Note_on_c, 0, 53, 64
1, 458956, Note_on_c, 0, 75, 64
1, 458959, Control_c, 0, 64, 0
1, 459034, Control_c, 0, 64, 15
1, 459039, Note_on_c, 0, 61, 69
1, 459048, Control_c, 0, 64, 37
1, 459064, Control_c, 0, 64, 54
1, 459079, Control_c, 0, 64, 70
1, 459092, Note_off_c, 0, 75, 61
1, 459094, Control_c, 0, 64, 127
1, 459105, Note_off_c, 0, 53, 30
1, 459111, Note_on_c, 0, 56, 70
1, 459117, Note_off_c, 0, 61, 64
1, 459196, Note_off_c, 0, 56, 65
1, 459213, Note_on_c, 0, 61, 61
1, 459247, Note_off_c, 0, 79, 56
1, 459279, Note_off_c, 0, 61, 64
1, 459299, Note_on_c, 0, 77, 95
1, 459300, Note_on_c, 0, 60, 63
1, 459307, Note_on_c, 0, 73, 84
1, 459377, Note_off_c, 0, 60, 64
1, 459395, Note_on_c, 0, 61, 62
1, 459462, Note_off_c, 0, 61, 44
1, 459500, Note_on_c, 0, 56, 69
1, 459501, Control_c, 0, 64, 99
1, 459506, Note_on_c, 0, 75, 91
1, 459512, Note_on_c, 0, 72, 81
1, 459515, Control_c, 0, 64, 56
1, 459527, Note_off_c, 0, 73, 65
1, 459530, Control_c, 0, 64, 0
1, 459545, Note_off_c, 0, 77, 59
1, 459590, Control_c, 0, 64, 18
1, 459596, Note_on_c, 0, 63, 69
1, 459604, Control_c, 0, 64, 38
1, 459619, Control_c, 0, 64, 57
1, 459634, Control_c, 0, 64, 84
1, 459649, Control_c, 0, 64, 127
1, 459659, Note_off_c, 0, 56, 60
1, 459672, Note_on_c, 0, 60, 72
1, 459684, Note_off_c, 0, 63, 64
1, 459737, Note_off_c, 0, 72, 60
1, 459761, Note_off_c, 0, 60, 65
1, 459761, Note_on_c, 0, 63, 81
1, 459796, Note_off_c, 0, 75, 58
1, 459845, Note_off_c, 0, 63, 60
1, 459847, Note_on_c, 0, 62, 80
1, 459934, Note_off_c, 0, 62, 61
1, 459937, Note_on_c, 0, 63, 87
1, 460056, Note_off_c, 0, 63, 63
1, 460079, Note_on_c, 0, 84, 100
1, 460080, Control_c, 0, 64, 76
1, 460080, Note_on_c, 0, 56, 56
1, 460083, Note_on_c, 0, 72, 88
1, 460086, Note_on_c, 0, 75, 85
1, 460094, Control_c, 0, 64, 40
1, 460109, Control_c, 0, 64, 0
1, 460168, Control_c, 0, 64, 30
1, 460183, Control_c, 0, 64, 49
1, 460189, Note_off_c, 0, 56, 63
1, 460193, Note_on_c, 0, 60, 70
1, 460198, Control_c, 0, 64, 65
1, 460212, Control_c, 0, 64, 127
1, 460279, Note_off_c, 0, 60, 63
1, 460290, Note_on_c, 0, 59, 67
1, 460365, Note_off_c, 0, 59, 61
1, 460372, Note_on_c, 0, 60, 71
1, 460439, Note_off_c, 0, 75, 50
1, 460450, Note_off_c, 0, 60, 63
1, 460451, Note_on_c, 0, 56, 72
1, 460509, Note_off_c, 0, 56, 66
1, 460524, Note_on_c, 0, 60, 71
1, 460590, Note_off_c, 0, 60, 64
1, 460614, Note_on_c, 0, 49, 86
1, 460626, Note_on_c, 0, 77, 78
1, 460634, Control_c, 0, 64, 77
1, 460649, Control_c, 0, 64, 54
1, 460664, Control_c, 0, 64, 0
1, 460724, Control_c, 0, 64, 29
1, 460729, Note_on_c, 0, 58, 73
1, 460739, Control_c, 0, 64, 43
1, 460754, Control_c, 0, 64, 59
1, 460768, Control_c, 0, 64, 75
1, 460783, Control_c, 0, 64, 127
1, 460787, Note_off_c, 0, 84, 51
1, 460791, Note_off_c, 0, 49, 59
1, 460793, Note_on_c, 0, 53, 70
1, 460797, Note_off_c, 0, 58, 63
1, 460841, Note_off_c, 0, 72, 55
1, 460873, Note_off_c, 0, 53, 64
1, 460882, Note_on_c, 0, 58, 76
1, 460899, Note_off_c, 0, 77, 59
1, 460961, Note_off_c, 0, 58, 55
1, 460963, Note_on_c, 0, 57, 76
1, 461055, Note_off_c, 0, 57, 63
1, 461055, Note_on_c, 0, 58, 81
1, 461116, Control_c, 0, 64, 72
1, 461131, Control_c, 0, 64, 40
1, 461141, Note_on_c, 0, 70, 85
1, 461144, Note_on_c, 0, 82, 86
1, 461146, Control_c, 0, 64, 0
1, 461150, Note_on_c, 0, 77, 78
1, 461153, Note_on_c, 0, 50, 69
1, 461160, Note_off_c, 0, 58, 62
1, 461235, Control_c, 0, 64, 10
1, 461239, Note_on_c, 0, 58, 73
1, 461249, Control_c, 0, 64, 34
1, 461264, Control_c, 0, 64, 50
1, 461275, Note_off_c, 0, 82, 63
1, 461279, Control_c, 0, 64, 68
1, 461293, Control_c, 0, 64, 127
1, 461317, Note_on_c, 0, 53, 75
1, 461322, Note_off_c, 0, 70, 57
1, 461325, Note_off_c, 0, 58, 63
1, 461342, Note_off_c, 0, 77, 47
1, 461391, Note_on_c, 0, 58, 73
1, 461404, Note_off_c, 0, 50, 19
1, 461419, Note_off_c, 0, 53, 60
1, 461492, Note_on_c, 0, 50, 67
1, 461493, Note_on_c, 0, 68, 95
1, 461496, Note_on_c, 0, 77, 81
1, 461501, Note_on_c, 0, 80, 86
1, 461501, Note_off_c, 0, 58, 61
1, 461577, Note_off_c, 0, 50, 63
1, 461594, Note_on_c, 0, 58, 78
1, 461617, Note_off_c, 0, 80, 62
1, 461632, Note_off_c, 0, 68, 58
1, 461700, Note_on_c, 0, 67, 89
1, 461701, Note_on_c, 0, 79, 84
1, 461705, Note_off_c, 0, 77, 60
1, 461705, Note_on_c, 0, 51, 76
1, 461708, Note_on_c, 0, 75, 81
1, 461709, Control_c, 0, 64, 57
1, 461717, Note_off_c, 0, 58, 61
1, 461724, Control_c, 0, 64, 0
1, 461806, Control_c, 0, 64, 34
1, 461813, Note_on_c, 0, 58, 80
1, 461821, Control_c, 0, 64, 52
1, 461836, Control_c, 0, 64, 72
1, 461851, Control_c, 0, 64, 127
1, 461869, Note_off_c, 0, 51, 61
1, 461888, Note_on_c, 0, 55, 78
1, 461900, Note_off_c, 0, 67, 59
1, 461901, Note_off_c, 0, 58, 63
1, 461915, Note_off_c, 0, 79, 59
1, 461953, Note_off_c, 0, 75, 60
1, 461979, Note_on_c, 0, 58, 88
1, 461994, Note_off_c, 0, 55, 67
1, 462067, Note_on_c, 0, 57, 86
1, 462083, Note_off_c, 0, 58, 62
1, 462173, Note_on_c, 0, 58, 93
1, 462194, Note_off_c, 0, 57, 61
1, 462306, Note_on_c, 0, 89, 100
1, 462310, Note_on_c, 0, 51, 82
1, 462310, Note_on_c, 0, 77, 99
1, 462310, Note_on_c, 0, 85, 88
1, 462310, Control_c, 0, 64, 77
1, 462325, Note_on_c, 0, 76, 59
1, 462326, Note_off_c, 0, 76, 127
1, 462326, Control_c, 0, 64, 46
1, 462329, Note_off_c, 0, 58, 63
1, 462340, Control_c, 0, 64, 0
1, 462384, Control_c, 0, 64, 18
1, 462399, Control_c, 0, 64, 38
1, 462414, Control_c, 0, 64, 53
1, 462422, Note_on_c, 0, 58, 78
1, 462429, Control_c, 0, 64, 68
1, 462438, Note_off_c, 0, 51, 61
1, 462444, Control_c, 0, 64, 101
1, 462458, Control_c, 0, 64, 127
1, 462511, Note_off_c, 0, 58, 62
1, 462517, Note_on_c, 0, 55, 70
1, 462575, Note_off_c, 0, 55, 65
1, 462593, Note_on_c, 0, 58, 72
1, 462656, Note_off_c, 0, 58, 58
1, 462675, Note_on_c, 0, 51, 83
1, 462757, Note_on_c, 0, 55, 76
1, 462759, Note_off_c, 0, 51, 62
1, 462807, Control_c, 0, 64, 63
1, 462822, Control_c, 0, 64, 25
1, 462837, Control_c, 0, 64, 0
1, 462841, Note_on_c, 0, 51, 92
1, 462844, Note_off_c, 0, 55, 58
1, 462881, Control_c, 0, 64, 12
1, 462896, Control_c, 0, 64, 36
1, 462911, Control_c, 0, 64, 56
1, 462926, Note_off_c, 0, 51, 64
1, 462926, Control_c, 0, 64, 100
1, 462931, Note_on_c, 0, 55, 79
1, 462940, Control_c, 0, 64, 127
1, 462971, Note_off_c, 0, 55, 63
1, 462985, Control_c, 0, 64, 71
1, 463000, Control_c, 0, 64, 61
1, 463010, Note_on_c, 0, 53, 82
1, 463014, Control_c, 0, 64, 63
1, 463029, Control_c, 0, 64, 90
1, 463044, Control_c, 0, 64, 127
1, 463050, Note_off_c, 0, 89, 61
1, 463075, Control_c, 0, 64, 110
1, 463084, Note_off_c, 0, 77, 49
1, 463089, Control_c, 0, 64, 65
1, 463094, Note_on_c, 0, 56, 81
1, 463103, Note_off_c, 0, 53, 64
1, 463104, Control_c, 0, 64, 39
1, 463116, Note_off_c, 0, 85, 60
1, 463119, Control_c, 0, 64, 21
1, 463134, Control_c, 0, 64, 40
1, 463149, Control_c, 0, 64, 55
1, 463159, Note_off_c, 0, 56, 61
1, 463163, Control_c, 0, 64, 68
1, 463178, Control_c, 0, 64, 96
1, 463187, Note_on_c, 0, 55, 77
1, 463193, Control_c, 0, 64, 127
1, 463282, Note_off_c, 0, 55, 64
1, 463288, Note_on_c, 0, 57, 65
1, 463320, Note_off_c, 0, 57, 63
1, 463349, Control_c, 0, 64, 91
1, 463360, Note_on_c, 0, 75, 100
1, 463361, Note_on_c, 0, 87, 92
1, 463363, Control_c, 0, 64, 55
1, 463367, Note_on_c, 0, 84, 83
1, 463371, Note_on_c, 0, 55, 58
1, 463378, Control_c, 0, 64, 0
1, 463380, Note_on_c, 0, 53, 57
1, 463408, Control_c, 0, 64, 26
1, 463423, Control_c, 0, 64, 43
1, 463437, Note_off_c, 0, 87, 66
1, 463437, Control_c, 0, 64, 60
1, 463440, Note_off_c, 0, 53, 47
1, 463451, Note_on_c, 0, 58, 71
1, 463452, Control_c, 0, 64, 79
1, 463458, Note_off_c, 0, 55, 65
1, 463467, Control_c, 0, 64, 127
1, 463492, Note_off_c, 0, 84, 60
1, 463507, Note_off_c, 0, 75, 55
1, 463533, Note_on_c, 0, 56, 79
1, 463555, Note_off_c, 0, 58, 61
1, 463601, Note_off_c, 0, 56, 66
1, 463605, Note_on_c, 0, 60, 78
1, 463700, Note_off_c, 0, 60, 61
1, 463701, Note_on_c, 0, 58, 75
1, 463705, Note_on_c, 0, 82, 92
1, 463706, Note_on_c, 0, 73, 98
1, 463709, Note_on_c, 0, 85, 83
1, 463788, Note_on_c, 0, 63, 83
1, 463803, Note_off_c, 0, 58, 62
1, 463810, Note_off_c, 0, 85, 62
1, 463817, Note_off_c, 0, 73, 62
1, 463854, Note_off_c, 0, 63, 62
1, 463862, Note_off_c, 0, 82, 63
1, 463898, Control_c, 0, 64, 60
1, 463902, Note_on_c, 0, 60, 84
1, 463905, Note_on_c, 0, 72, 94
1, 463906, Note_on_c, 0, 80, 88
1, 463907, Note_on_c, 0, 84, 89
1, 463912, Control_c, 0, 64, 0
1, 464012, Note_on_c, 0, 63, 77
1, 464024, Control_c, 0, 64, 28
1, 464039, Control_c, 0, 64, 48
1, 464046, Note_off_c, 0, 60, 64
1, 464054, Control_c, 0, 64, 66
1, 464068, Control_c, 0, 64, 127
1, 464095, Note_off_c, 0, 72, 59
1, 464104, Note_on_c, 0, 61, 86
1, 464108, Note_off_c, 0, 84, 61
1, 464147, Note_off_c, 0, 63, 62
1, 464164, Note_off_c, 0, 80, 61
1, 464201, Note_on_c, 0, 65, 84
1, 464204, Note_off_c, 0, 61, 65
1, 464284, Note_on_c, 0, 60, 81
1, 464305, Note_off_c, 0, 65, 67
1, 464379, Note_on_c, 0, 63, 92
1, 464421, Note_off_c, 0, 60, 63
1, 464524, Note_on_c, 0, 59, 69
1, 464530, Note_on_c, 0, 80, 103
1, 464533, Note_on_c, 0, 92, 100
1, 464534, Note_on_c, 0, 86, 92
1, 464542, Control_c, 0, 64, 76
1, 464544, Note_off_c, 0, 63, 62
1, 464557, Control_c, 0, 64, 45
1, 464572, Control_c, 0, 64, 0
1, 464647, Note_on_c, 0, 65, 68
1, 464662, Control_c, 0, 64, 13
1, 464676, Control_c, 0, 64, 37
1, 464691, Control_c, 0, 64, 52
1, 464706, Control_c, 0, 64, 66
1, 464721, Control_c, 0, 64, 96
1, 464742, Control_c, 0, 64, 127
1, 464745, Note_off_c, 0, 65, 65
1, 464746, Note_on_c, 0, 62, 73
1, 464798, Note_off_c, 0, 59, 46
1, 464826, Note_off_c, 0, 62, 62
1, 464835, Note_on_c, 0, 65, 80
1, 464915, Note_off_c, 0, 65, 66
1, 464916, Note_on_c, 0, 64, 82
1, 464994, Note_off_c, 0, 64, 61
1, 465002, Note_on_c, 0, 65, 81
1, 465038, Control_c, 0, 64, 66
1, 465053, Control_c, 0, 64, 39
1, 465067, Control_c, 0, 64, 0
1, 465068, Note_on_c, 0, 59, 86
1, 465081, Note_off_c, 0, 65, 66
1, 465127, Control_c, 0, 64, 32
1, 465142, Control_c, 0, 64, 47
1, 465157, Control_c, 0, 64, 64
1, 465159, Note_on_c, 0, 65, 80
1, 465168, Note_off_c, 0, 59, 60
1, 465172, Control_c, 0, 64, 89
1, 465186, Control_c, 0, 64, 127
1, 465234, Note_off_c, 0, 92, 65
1, 465236, Note_on_c, 0, 62, 77
1, 465240, Note_off_c, 0, 65, 66
1, 465304, Note_off_c, 0, 62, 63
1, 465310, Note_off_c, 0, 86, 49
1, 465318, Note_on_c, 0, 65, 76
1, 465400, Note_on_c, 0, 64, 78
1, 465404, Note_off_c, 0, 65, 0
1, 465441, Poly_aftertouch_c, 0, 65, 127
1, 465471, Note_on_c, 0, 65, 40
1, 465488, Note_off_c, 0, 64, 62
1, 465500, Note_off_c, 0, 80, 12
1, 465563, Note_off_c, 0, 65, 61
1, 465565, Control_c, 0, 64, 67
1, 465575, Note_on_c, 0, 80, 102
1, 465578, Note_on_c, 0, 91, 97
1, 465580, Control_c, 0, 64, 43
1, 465581, Note_on_c, 0, 86, 88
1, 465582, Note_on_c, 0, 59, 73
1, 465595, Control_c, 0, 64, 0
1, 465640, Control_c, 0, 64, 33
1, 465654, Control_c, 0, 64, 49
1, 465669, Control_c, 0, 64, 65
1, 465684, Control_c, 0, 64, 114
1, 465687, Note_on_c, 0, 68, 76
1, 465699, Control_c, 0, 64, 127
1, 465705, Note_off_c, 0, 59, 56
1, 465705, Note_off_c, 0, 91, 51
1, 465743, Note_off_c, 0, 86, 57
1, 465744, Note_off_c, 0, 80, 60
1, 465756, Note_on_c, 0, 62, 73
1, 465768, Note_off_c, 0, 68, 58
1, 465830, Note_on_c, 0, 68, 73
1, 465865, Note_off_c, 0, 62, 59
1, 465942, Note_on_c, 0, 80, 99
1, 465942, Note_on_c, 0, 89, 98
1, 465943, Note_on_c, 0, 59, 72
1, 465952, Note_off_c, 0, 68, 58
1, 465965, Note_on_c, 0, 86, 47
1, 465991, Note_off_c, 0, 86, 57
1, 466032, Note_off_c, 0, 59, 61
1, 466037, Note_on_c, 0, 68, 75
1, 466062, Note_off_c, 0, 89, 61
1, 466068, Note_off_c, 0, 80, 61
1, 466128, Control_c, 0, 64, 70
1, 466135, Note_on_c, 0, 87, 81
1, 466143, Note_on_c, 0, 80, 93
1, 466143, Note_on_c, 0, 84, 81
1, 466143, Control_c, 0, 64, 40
1, 466147, Note_on_c, 0, 60, 73
1, 466151, Note_off_c, 0, 68, 54
1, 466158, Control_c, 0, 64, 0
1, 466217, Control_c, 0, 64, 16
1, 466239, Control_c, 0, 64, 36
1, 466248, Note_off_c, 0, 60, 64
1, 466252, Note_on_c, 0, 68, 74
1, 466255, Control_c, 0, 64, 52
1, 466270, Control_c, 0, 64, 68
1, 466285, Control_c, 0, 64, 127
1, 466338, Note_on_c, 0, 63, 76
1, 466361, Note_off_c, 0, 68, 57
1, 466394, Note_off_c, 0, 84, 59
1, 466406, Note_off_c, 0, 80, 28
1, 466421, Note_off_c, 0, 63, 64
1, 466432, Note_on_c, 0, 68, 71
1, 466505, Note_off_c, 0, 68, 61
1, 466507, Note_on_c, 0, 67, 78
1, 466597, Note_on_c, 0, 68, 87
1, 466601, Note_off_c, 0, 67, 63
1, 466654, Note_off_c, 0, 87, 43
1, 466655, Control_c, 0, 64, 64
1, 466670, Control_c, 0, 64, 32
1, 466685, Control_c, 0, 64, 0
1, 466688, Note_on_c, 0, 80, 96
1, 466689, Note_on_c, 0, 89, 96
1, 466692, Note_on_c, 0, 82, 92
1, 466694, Note_on_c, 0, 61, 80
1, 466704, Note_off_c, 0, 68, 59
1, 466714, Control_c, 0, 64, 19
1, 466729, Control_c, 0, 64, 36
1, 466744, Control_c, 0, 64, 52
1, 466759, Control_c, 0, 64, 71
1, 466767, Note_off_c, 0, 89, 63
1, 466774, Control_c, 0, 64, 127
1, 466781, Note_on_c, 0, 68, 78
1, 466800, Note_off_c, 0, 80, 58
1, 466803, Note_off_c, 0, 61, 63
1, 466814, Note_off_c, 0, 82, 62
1, 466855, Note_off_c, 0, 68, 62
1, 466876, Note_on_c, 0, 65, 63
1, 466948, Note_on_c, 0, 68, 83
1, 466966, Note_off_c, 0, 65, 64
1, 467039, Note_off_c, 0, 68, 58
1, 467042, Note_on_c, 0, 77, 96
1, 467047, Note_on_c, 0, 82, 92
1, 467050, Note_on_c, 0, 61, 77
1, 467051, Note_on_c, 0, 80, 87
1, 467073, Note_off_c, 0, 61, 68
1, 467121, Note_off_c, 0, 77, 60
1, 467125, Note_on_c, 0, 62, 21
1, 467143, Note_on_c, 0, 65, 76
1, 467169, Note_off_c, 0, 62, 52
1, 467182, Note_off_c, 0, 80, 44
1, 467225, Note_off_c, 0, 82, 62
1, 467243, Note_off_c, 0, 65, 60
1, 467263, Note_on_c, 0, 75, 90
1, 467266, Note_on_c, 0, 84, 86
1, 467267, Note_on_c, 0, 80, 93
1, 467285, Control_c, 0, 64, 68
1, 467300, Control_c, 0, 64, 39
1, 467315, Control_c, 0, 64, 0
1, 467363, Note_on_c, 0, 63, 78
1, 467374, Control_c, 0, 64, 14
1, 467389, Control_c, 0, 64, 33
1, 467404, Control_c, 0, 64, 45
1, 467419, Control_c, 0, 64, 58
1, 467434, Control_c, 0, 64, 71
1, 467448, Control_c, 0, 64, 100
1, 467449, Note_on_c, 0, 61, 81
1, 467462, Note_off_c, 0, 63, 65
1, 467463, Control_c, 0, 64, 122
1, 467478, Control_c, 0, 64, 127
1, 467482, Note_off_c, 0, 75, 56
1, 467515, Note_off_c, 0, 61, 66
1, 467526, Note_on_c, 0, 60, 82
1, 467533, Note_off_c, 0, 80, 60
1, 467616, Note_on_c, 0, 58, 83
1, 467616, Note_off_c, 0, 60, 62
1, 467703, Note_on_c, 0, 56, 86
1, 467715, Control_c, 0, 64, 99
1, 467737, Control_c, 0, 64, 63
1, 467741, Note_off_c, 0, 58, 62
1, 467741, Note_off_c, 0, 84, 61
1, 467752, Control_c, 0, 64, 59
1, 467767, Control_c, 0, 64, 62
1, 467782, Control_c, 0, 64, 70
1, 467784, Note_off_c, 0, 56, 63
1, 467793, Note_on_c, 0, 82, 96
1, 467797, Control_c, 0, 64, 82
1, 467798, Note_on_c, 0, 75, 84
1, 467811, Control_c, 0, 64, 104
1, 467826, Control_c, 0, 64, 127
1, 467884, Note_on_c, 0, 55, 76
1, 467933, Note_off_c, 0, 75, 60
1, 467965, Note_off_c, 0, 82, 63
1, 467976, Note_on_c, 0, 53, 86
1, 467986, Note_on_c, 0, 79, 93
1, 467992, Note_off_c, 0, 55, 63
1, 468069, Note_on_c, 0, 51, 79
1, 468104, Note_off_c, 0, 53, 62
1, 468110, Note_off_c, 0, 79, 58
1, 468150, Note_off_c, 0, 51, 65
1, 468152, Note_on_c, 0, 50, 73
1, 468182, Note_on_c, 0, 75, 101
1, 468184, Note_on_c, 0, 82, 94
1, 468185, Note_on_c, 0, 87, 93
1, 468255, Note_on_c, 0, 51, 81
1, 468265, Note_off_c, 0, 50, 62
1, 468305, Note_off_c, 0, 51, 65
1, 468310, Note_off_c, 0, 75, 60
1, 468316, Note_off_c, 0, 87, 63
1, 468380, Note_off_c, 0, 82, 62
1, 468404, Control_c, 0, 64, 64
1, 468413, Note_on_c, 0, 41, 73
1, 468418, Note_on_c, 0, 74, 97
1, 468419, Control_c, 0, 64, 22
1, 468420, Note_on_c, 0, 86, 95
1, 468423, Note_on_c, 0, 80, 89
1, 468434, Control_c, 0, 64, 0
1, 468547, Note_on_c, 0, 53, 72
1, 468575, Control_c, 0, 64, 22
1, 468590, Control_c, 0, 64, 50
1, 468603, Control_c, 0, 64, 71
1, 468618, Control_c, 0, 64, 127
1, 468625, Note_off_c, 0, 53, 64
1, 468626, Note_on_c, 0, 46, 75
1, 468651, Note_off_c, 0, 86, 58
1, 468668, Note_off_c, 0, 74, 61
1, 468674, Note_off_c, 0, 41, 61
1, 468695, Note_on_c, 0, 53, 73
1, 468715, Note_off_c, 0, 46, 64
1, 468724, Note_off_c, 0, 80, 61
1, 468771, Note_off_c, 0, 53, 64
1, 468784, Note_on_c, 0, 41, 76
1, 468853, Note_off_c, 0, 41, 64
1, 468868, Note_on_c, 0, 53, 79
1, 468933, Note_off_c, 0, 53, 61
1, 468945, Control_c, 0, 64, 79
1, 468949, Note_on_c, 0, 73, 99
1, 468950, Note_on_c, 0, 85, 93
1, 468954, Note_on_c, 0, 75, 94
1, 468960, Note_on_c, 0, 43, 79
1, 468960, Control_c, 0, 64, 48
1, 468962, Note_on_c, 0, 82, 74
1, 468974, Control_c, 0, 64, 0
1, 469047, Note_on_c, 0, 55, 75
1, 469063, Control_c, 0, 64, 30
1, 469078, Control_c, 0, 64, 53
1, 469092, Control_c, 0, 64, 75
1, 469107, Control_c, 0, 64, 127
1, 469121, Note_off_c, 0, 55, 64
1, 469123, Note_on_c, 0, 51, 78
1, 469163, Note_off_c, 0, 43, 53
1, 469190, Note_off_c, 0, 85, 53
1, 469193, Note_on_c, 0, 55, 68
1, 469202, Note_off_c, 0, 51, 63
1, 469208, Note_off_c, 0, 75, 56
1, 469214, Note_off_c, 0, 82, 46
1, 469229, Note_off_c, 0, 73, 52
1, 469267, Note_off_c, 0, 55, 63
1, 469285, Note_on_c, 0, 43, 79
1, 469372, Note_on_c, 0, 55, 75
1, 469384, Note_off_c, 0, 43, 54
1, 469440, Note_off_c, 0, 55, 61
1, 469457, Control_c, 0, 64, 81
1, 469472, Control_c, 0, 64, 47
1, 469478, Note_on_c, 0, 44, 70
1, 469478, Note_on_c, 0, 84, 97
1, 469479, Note_on_c, 0, 72, 94
1, 469479, Note_on_c, 0, 75, 94
1, 469487, Control_c, 0, 64, 0
1, 469546, Control_c, 0, 64, 19
1, 469561, Control_c, 0, 64, 45
1, 469569, Note_off_c, 0, 44, 59
1, 469576, Control_c, 0, 64, 63
1, 469583, Note_on_c, 0, 46, 77
1, 469590, Control_c, 0, 64, 127
1, 469613, Note_off_c, 0, 72, 56
1, 469632, Note_off_c, 0, 75, 60
1, 469670, Note_on_c, 0, 44, 76
1, 469694, Note_off_c, 0, 46, 52
1, 469766, Note_on_c, 0, 42, 72
1, 469782, Note_off_c, 0, 44, 62
1, 469793, Note_off_c, 0, 84, 59
1, 469826, Note_off_c, 0, 42, 62
1, 469858, Note_on_c, 0, 80, 99
1, 469861, Note_on_c, 0, 41, 78
1, 469904, Note_off_c, 0, 80, 62
1, 469956, Note_on_c, 0, 39, 76
1, 469965, Note_off_c, 0, 41, 63
1, 470032, Note_off_c, 0, 39, 61
1, 470042, Control_c, 0, 64, 78
1, 470057, Control_c, 0, 64, 48
1, 470066, Note_on_c, 0, 80, 96
1, 470067, Note_on_c, 0, 77, 99
1, 470068, Note_on_c, 0, 85, 93
1, 470069, Note_on_c, 0, 37, 80
1, 470072, Control_c, 0, 64, 0
1, 470131, Control_c, 0, 64, 13
1, 470146, Control_c, 0, 64, 35
1, 470161, Control_c, 0, 64, 49
1, 470176, Control_c, 0, 64, 63
1, 470177, Note_on_c, 0, 44, 72
1, 470191, Control_c, 0, 64, 85
1, 470192, Note_off_c, 0, 37, 63
1, 470192, Note_off_c, 0, 80, 59
1, 470195, Note_off_c, 0, 85, 58
1, 470203, Note_off_c, 0, 77, 49
1, 470205, Control_c, 0, 64, 127
1, 470265, Note_off_c, 0, 44, 60
1, 470266, Note_on_c, 0, 41, 71
1, 470354, Control_c, 0, 64, 79
1, 470357, Note_on_c, 0, 44, 84
1, 470369, Control_c, 0, 64, 68
1, 470373, Note_off_c, 0, 41, 62
1, 470384, Control_c, 0, 64, 74
1, 470399, Control_c, 0, 64, 88
1, 470414, Control_c, 0, 64, 97
1, 470428, Control_c, 0, 64, 127
1, 470459, Note_on_c, 0, 38, 81
1, 470459, Note_on_c, 0, 77, 98
1, 470462, Note_on_c, 0, 82, 100
1, 470466, Note_on_c, 0, 80, 86
1, 470467, Note_off_c, 0, 44, 53
1, 470494, Note_off_c, 0, 77, 67
1, 470502, Note_off_c, 0, 80, 56
1, 470525, Note_off_c, 0, 82, 63
1, 470566, Note_on_c, 0, 44, 76
1, 470568, Note_off_c, 0, 38, 62
1, 470623, Note_off_c, 0, 44, 61
1, 470665, Control_c, 0, 64, 78
1, 470680, Control_c, 0, 64, 52
1, 470695, Control_c, 0, 64, 0
1, 470696, Note_on_c, 0, 75, 108
1, 470700, Note_on_c, 0, 84, 91
1, 470703, Note_on_c, 0, 80, 91
1, 470704, Note_on_c, 0, 39, 86
1, 470747, Control_c, 0, 64, 28
1, 470761, Control_c, 0, 64, 42
1, 470776, Control_c, 0, 64, 56
1, 470779, Note_off_c, 0, 84, 59
1, 470791, Control_c, 0, 64, 75
1, 470805, Control_c, 0, 64, 127
1, 470806, Note_off_c, 0, 80, 62
1, 470814, Poly_aftertouch_c, 0, 38, 127
1, 470829, Note_on_c, 0, 51, 81
1, 470846, Poly_aftertouch_c, 0, 38, 0
1, 470861, Note_off_c, 0, 75, 52
1, 470889, Note_off_c, 0, 51, 63
1, 470889, Note_off_c, 0, 39, 61
1, 470939, Control_c, 0, 64, 80
1, 470953, Control_c, 0, 64, 54
1, 470962, Note_on_c, 0, 77, 93
1, 470965, Note_on_c, 0, 82, 95
1, 470968, Control_c, 0, 64, 20
1, 470973, Note_on_c, 0, 37, 83
1, 470975, Note_on_c, 0, 80, 82
1, 470983, Control_c, 0, 64, 28
1, 470997, Control_c, 0, 64, 43
1, 471012, Control_c, 0, 64, 58
1, 471027, Control_c, 0, 64, 84
1, 471043, Control_c, 0, 64, 127
1, 471074, Note_off_c, 0, 37, 62
1, 471084, Note_on_c, 0, 49, 82
1, 471132, Control_c, 0, 64, 81
1, 471147, Control_c, 0, 64, 64
1, 471151, Note_off_c, 0, 49, 60
1, 471152, Note_off_c, 0, 77, 57
1, 471162, Control_c, 0, 64, 65
1, 471166, Note_off_c, 0, 80, 55
1, 471167, Note_off_c, 0, 82, 59
1, 471176, Control_c, 0, 64, 79
1, 471181, Note_on_c, 0, 39, 85
1, 471187, Note_on_c, 0, 79, 91
1, 471188, Note_on_c, 0, 73, 95
1, 471191, Control_c, 0, 64, 108
1, 471206, Control_c, 0, 64, 127
1, 471269, Note_on_c, 0, 51, 75
1, 471293, Note_off_c, 0, 79, 57
1, 471296, Note_off_c, 0, 51, 69
1, 471302, Note_off_c, 0, 73, 60
1, 471315, Note_off_c, 0, 39, 63
1, 471423, Note_on_c, 0, 32, 86
1, 471428, Control_c, 0, 64, 66
1, 471432, Note_on_c, 0, 80, 92
1, 471437, Note_on_c, 0, 72, 79
1, 471438, Note_on_c, 0, 75, 79
1, 471443, Control_c, 0, 64, 29
1, 471458, Control_c, 0, 64, 0
1, 471566, Note_on_c, 0, 44, 72
1, 471584, Control_c, 0, 64, 30
1, 471598, Control_c, 0, 64, 46
1, 471613, Control_c, 0, 64, 63
1, 471628, Control_c, 0, 64, 127
1, 471659, Note_on_c, 0, 36, 71
1, 471665, Note_off_c, 0, 72, 60
1, 471676, Note_off_c, 0, 44, 60
1, 471712, Note_off_c, 0, 75, 58
1, 471730, Note_off_c, 0, 32, 59
1, 471730, Note_off_c, 0, 80, 60
1, 471756, Note_on_c, 0, 44, 77
1, 471803, Note_off_c, 0, 36, 59
1, 471856, Note_on_c, 0, 39, 81
1, 471872, Note_off_c, 0, 44, 61
1, 471965, Note_on_c, 0, 44, 77
1, 472075, Note_off_c, 0, 44, 58
1, 472085, Note_on_c, 0, 85, 96
1, 472087, Note_on_c, 0, 80, 94
1, 472087, Note_on_c, 0, 77, 93
1, 472088, Control_c, 0, 64, 70
1, 472092, Note_on_c, 0, 32, 79
1, 472103, Control_c, 0, 64, 40
1, 472117, Control_c, 0, 64, 0
1, 472126, Note_off_c, 0, 39, 61
1, 472177, Control_c, 0, 64, 33
1, 472190, Note_on_c, 0, 44, 70
1, 472192, Control_c, 0, 64, 50
1, 472207, Control_c, 0, 64, 67
1, 472229, Control_c, 0, 64, 127
1, 472275, Note_off_c, 0, 77, 55
1, 472288, Note_off_c, 0, 44, 61
1, 472290, Note_on_c, 0, 37, 66
1, 472350, Poly_aftertouch_c, 0, 34, 127
1, 472350, Note_off_c, 0, 80, 61
1, 472365, Note_on_c, 0, 44, 69
1, 472431, Poly_aftertouch_c, 0, 34, 0
1, 472463, Note_on_c, 0, 41, 68
1, 472463, Note_off_c, 0, 44, 61
1, 472471, Note_off_c, 0, 37, 0
1, 472508, Poly_aftertouch_c, 0, 37, 127
1, 472529, Note_off_c, 0, 32, 19
1, 472542, Poly_aftertouch_c, 0, 37, 0
1, 472548, Note_on_c, 0, 44, 74
1, 472565, Note_off_c, 0, 41, 60
1, 472660, Control_c, 0, 64, 68
1, 472662, Note_on_c, 0, 32, 74
1, 472662, Note_on_c, 0, 82, 88
1, 472669, Note_on_c, 0, 73, 84
1, 472674, Note_off_c, 0, 44, 59
1, 472675, Control_c, 0, 64, 47
1, 472676, Note_on_c, 0, 79, 74
1, 472689, Control_c, 0, 64, 29
1, 472704, Control_c, 0, 64, 42
1, 472712, Note_off_c, 0, 85, 61
1, 472719, Control_c, 0, 64, 53
1, 472734, Control_c, 0, 64, 64
1, 472749, Control_c, 0, 64, 87
1, 472764, Control_c, 0, 64, 127
1, 472767, Note_on_c, 0, 44, 75
1, 472847, Note_on_c, 0, 37, 71
1, 472855, Note_off_c, 0, 73, 59
1, 472864, Note_off_c, 0, 44, 61
1, 472893, Note_off_c, 0, 79, 59
1, 472922, Note_off_c, 0, 32, 60
1, 472938, Note_off_c, 0, 82, 55
1, 472952, Note_on_c, 0, 44, 81
1, 472961, Note_off_c, 0, 37, 62
1, 473035, Note_on_c, 0, 40, 79
1, 473048, Note_off_c, 0, 44, 61
1, 473140, Note_on_c, 0, 44, 77
1, 473140, Note_off_c, 0, 40, 64
1, 473215, Control_c, 0, 64, 67
1, 473217, Note_off_c, 0, 44, 60
1, 473223, Note_on_c, 0, 75, 104
1, 473228, Note_on_c, 0, 87, 94
1, 473229, Note_on_c, 0, 80, 94
1, 473230, Control_c, 0, 64, 34
1, 473232, Note_on_c, 0, 84, 83
1, 473235, Note_on_c, 0, 32, 85
1, 473245, Control_c, 0, 64, 0
1, 473332, Note_on_c, 0, 44, 72
1, 473348, Control_c, 0, 64, 22
1, 473363, Control_c, 0, 64, 41
1, 473378, Control_c, 0, 64, 62
1, 473393, Control_c, 0, 64, 127
1, 473426, Note_on_c, 0, 36, 67
1, 473431, Note_off_c, 0, 44, 60
1, 473479, Note_off_c, 0, 32, 58
1, 473494, Poly_aftertouch_c, 0, 34, 127
1, 473498, Note_off_c, 0, 75, 51
1, 473498, Note_off_c, 0, 84, 54
1, 473503, Note_off_c, 0, 80, 62
1, 473508, Note_on_c, 0, 44, 72
1, 473515, Note_off_c, 0, 36, 62
1, 473530, Poly_aftertouch_c, 0, 34, 0
1, 473599, Note_on_c, 0, 39, 80
1, 473602, Note_off_c, 0, 44, 61
1, 473675, Note_on_c, 0, 44, 75
1, 473688, Note_off_c, 0, 87, 59
1, 473691, Note_off_c, 0, 39, 63
1, 473784, Note_on_c, 0, 84, 93
1, 473787, Note_on_c, 0, 75, 83
1, 473789, Note_on_c, 0, 32, 80
1, 473789, Note_on_c, 0, 78, 82
1, 473810, Note_off_c, 0, 44, 58
1, 473882, Note_on_c, 0, 44, 69
1, 473883, Note_off_c, 0, 32, 62
1, 473899, Note_off_c, 0, 75, 59
1, 473915, Note_off_c, 0, 84, 61
1, 473938, Note_off_c, 0, 78, 62
1, 473988, Note_on_c, 0, 39, 74
1, 473996, Note_off_c, 0, 44, 62
1, 474066, Note_off_c, 0, 39, 63
1, 474067, Note_on_c, 0, 44, 73
1, 474159, Note_on_c, 0, 42, 83
1, 474165, Note_off_c, 0, 44, 61
1, 474244, Note_off_c, 0, 42, 60
1, 474251, Note_on_c, 0, 44, 74
1, 474333, Note_off_c, 0, 44, 59
1, 474348, Note_on_c, 0, 77, 101
1, 474348, Note_on_c, 0, 89, 102
1, 474350, Control_c, 0, 64, 71
1, 474351, Note_on_c, 0, 85, 93
1, 474354, Note_on_c, 0, 32, 86
1, 474365, Control_c, 0, 64, 39
1, 474377, Note_on_c, 0, 79, 49
1, 474380, Control_c, 0, 64, 0
1, 474398, Note_off_c, 0, 79, 40
1, 474447, Note_on_c, 0, 44, 70
1, 474454, Control_c, 0, 64, 12
1, 474476, Control_c, 0, 64, 36
1, 474491, Control_c, 0, 64, 53
1, 474506, Control_c, 0, 64, 70
1, 474520, Control_c, 0, 64, 127
1, 474540, Note_on_c, 0, 37, 67
1, 474559, Note_off_c, 0, 44, 56
1, 474614, Note_on_c, 0, 44, 59
1, 474618, Note_off_c, 0, 85, 54
1, 474621, Note_off_c, 0, 32, 52
1, 474642, Note_off_c, 0, 37, 59
1, 474708, Note_on_c, 0, 41, 66
1, 474714, Note_off_c, 0, 44, 61
1, 474794, Note_off_c, 0, 77, 31
1, 474798, Note_on_c, 0, 44, 75
1, 474830, Note_off_c, 0, 41, 61
1, 474897, Note_on_c, 0, 86, 88
1, 474900, Note_on_c, 0, 77, 83
1, 474901, Note_on_c, 0, 83, 78
1, 474908, Note_on_c, 0, 32, 78
1, 474922, Note_off_c, 0, 44, 62
1, 474997, Note_off_c, 0, 89, 55
1, 475006, Note_on_c, 0, 44, 78
1, 475089, Note_off_c, 0, 77, 58
1, 475095, Note_on_c, 0, 38, 75
1, 475110, Note_off_c, 0, 44, 61
1, 475140, Note_off_c, 0, 86, 59
1, 475145, Note_off_c, 0, 83, 61
1, 475170, Note_off_c, 0, 32, 32
1, 475175, Note_on_c, 0, 44, 71
1, 475217, Note_off_c, 0, 38, 61
1, 475268, Note_on_c, 0, 41, 70
1, 475291, Note_off_c, 0, 44, 59
1, 475358, Note_on_c, 0, 44, 71
1, 475379, Note_off_c, 0, 41, 62
1, 475447, Control_c, 0, 64, 97
1, 475455, Note_on_c, 0, 90, 98
1, 475456, Note_on_c, 0, 78, 108
1, 475457, Note_on_c, 0, 84, 96
1, 475461, Control_c, 0, 64, 53
1, 475463, Note_on_c, 0, 32, 81
1, 475470, Note_off_c, 0, 44, 46
1, 475476, Control_c, 0, 64, 0
1, 475565, Control_c, 0, 64, 14
1, 475566, Note_on_c, 0, 44, 72
1, 475580, Control_c, 0, 64, 37
1, 475594, Control_c, 0, 64, 55
1, 475609, Control_c, 0, 64, 74
1, 475624, Control_c, 0, 64, 127
1, 475670, Note_on_c, 0, 39, 68
1, 475670, Note_off_c, 0, 44, 60
1, 475712, Note_off_c, 0, 32, 57
1, 475736, Note_on_c, 0, 44, 65
1, 475742, Note_off_c, 0, 90, 65
1, 475751, Note_off_c, 0, 39, 64
1, 475829, Note_on_c, 0, 42, 77
1, 475834, Note_off_c, 0, 44, 61
1, 475899, Note_on_c, 0, 44, 66
1, 475923, Note_off_c, 0, 42, 60
1, 475980, Note_off_c, 0, 84, 59
1, 476016, Note_off_c, 0, 44, 52
1, 476026, Note_on_c, 0, 32, 75
1, 476027, Note_on_c, 0, 89, 104
1, 476124, Note_on_c, 0, 44, 79
1, 476145, Note_off_c, 0, 32, 58
1, 476180, Note_off_c, 0, 89, 50
1, 476222, Note_on_c, 0, 39, 76
1, 476238, Note_off_c, 0, 44, 61
1, 476301, Note_on_c, 0, 44, 69
1, 476320, Note_off_c, 0, 39, 63
1, 476390, Note_off_c, 0, 78, 64
1, 476395, Note_on_c, 0, 87, 102
1, 476413, Note_on_c, 0, 42, 79
1, 476421, Note_off_c, 0, 44, 57
1, 476496, Note_on_c, 0, 44, 61
1, 476508, Note_off_c, 0, 42, 59
1, 476540, Note_off_c, 0, 87, 61
1, 476608, Note_on_c, 0, 32, 73
1, 476610, Control_c, 0, 64, 85
1, 476612, Note_on_c, 0, 89, 100
1, 476622, Note_on_c, 0, 77, 82
1, 476623, Note_on_c, 0, 85, 78
1, 476625, Control_c, 0, 64, 49
1, 476627, Note_off_c, 0, 44, 58
1, 476641, Control_c, 0, 64, 0
1, 476726, Note_on_c, 0, 44, 63
1, 476737, Control_c, 0, 64, 8
1, 476752, Control_c, 0, 64, 38
1, 476767, Control_c, 0, 64, 57
1, 476782, Control_c, 0, 64, 94
1, 476797, Control_c, 0, 64, 127
1, 476812, Note_on_c, 0, 37, 68
1, 476818, Note_off_c, 0, 44, 61
1, 476876, Note_off_c, 0, 85, 62
1, 476890, Note_on_c, 0, 44, 70
1, 476892, Note_off_c, 0, 32, 55
1, 476940, Note_off_c, 0, 77, 57
1, 476944, Note_off_c, 0, 37, 56
1, 476974, Note_on_c, 0, 41, 67
1, 476982, Note_off_c, 0, 44, 60
1, 477056, Note_on_c, 0, 44, 76
1, 477094, Note_off_c, 0, 41, 60
1, 477166, Note_on_c, 0, 86, 90
1, 477169, Note_on_c, 0, 77, 91
1, 477173, Note_on_c, 0, 32, 81
1, 477174, Note_on_c, 0, 83, 85
1, 477176, Note_off_c, 0, 44, 49
1, 477263, Note_on_c, 0, 44, 76
1, 477271, Note_off_c, 0, 89, 32
1, 477278, Note_off_c, 0, 32, 62
1, 477327, Note_off_c, 0, 77, 58
1, 477352, Note_on_c, 0, 38, 77
1, 477357, Note_off_c, 0, 83, 62
1, 477366, Note_off_c, 0, 44, 61
1, 477375, Note_off_c, 0, 86, 58
1, 477441, Note_on_c, 0, 44, 78
1, 477471, Note_off_c, 0, 38, 59
1, 477526, Note_on_c, 0, 41, 71
1, 477545, Note_off_c, 0, 44, 61
1, 477628, Note_on_c, 0, 44, 72
1, 477635, Note_off_c, 0, 41, 63
1, 477727, Note_off_c, 0, 44, 59
1, 477758, Note_on_c, 0, 92, 111
1, 477761, Note_on_c, 0, 83, 98
1, 477761, Note_on_c, 0, 86, 101
1, 477764, Note_on_c, 0, 32, 90
1, 477768, Control_c, 0, 64, 66
1, 477782, Control_c, 0, 64, 59
1, 477797, Control_c, 0, 64, 62
1, 477812, Control_c, 0, 64, 71
1, 477827, Control_c, 0, 64, 88
1, 477842, Control_c, 0, 64, 127
1, 477884, Note_off_c, 0, 32, 60
1, 477891, Note_on_c, 0, 44, 76
1, 477988, Note_on_c, 0, 38, 69
1, 477994, Note_off_c, 0, 44, 60
1, 477997, Note_off_c, 0, 92, 52
1, 478076, Note_on_c, 0, 44, 69
1, 478084, Note_off_c, 0, 38, 60
1, 478178, Note_off_c, 0, 44, 61
1, 478184, Note_on_c, 0, 41, 67
1, 478276, Note_on_c, 0, 44, 76
1, 478283, Note_off_c, 0, 41, 60
1, 478308, Note_off_c, 0, 86, 0
1, 478346, Poly_aftertouch_c, 0, 86, 127
1, 478361, Note_off_c, 0, 44, 59
1, 478369, Note_on_c, 0, 90, 104
1, 478371, Note_on_c, 0, 32, 80
1, 478413, Note_on_c, 0, 31, 44
1, 478421, Poly_aftertouch_c, 0, 86, 0
1, 478452, Note_off_c, 0, 31, 45
1, 478483, Note_on_c, 0, 44, 69
1, 478505, Note_off_c, 0, 32, 54
1, 478534, Note_off_c, 0, 90, 63
1, 478577, Note_on_c, 0, 38, 76
1, 478590, Note_off_c, 0, 44, 60
1, 478678, Note_on_c, 0, 44, 76
1, 478719, Note_off_c, 0, 38, 53
1, 478769, Note_off_c, 0, 83, 62
1, 478794, Note_on_c, 0, 41, 71
1, 478800, Note_off_c, 0, 44, 60
1, 478802, Note_on_c, 0, 89, 113
1, 478899, Note_off_c, 0, 41, 62
1, 478904, Note_on_c, 0, 44, 76
1, 478999, Note_off_c, 0, 89, 46
1, 479033, Note_off_c, 0, 44, 57
1, 479086, Note_on_c, 0, 91, 103
1, 479090, Note_on_c, 0, 82, 102
1, 479092, Note_on_c, 0, 32, 94
1, 479098, Note_on_c, 0, 85, 83
1, 479103, Control_c, 0, 64, 89
1, 479117, Control_c, 0, 64, 50
1, 479119, Note_on_c, 0, 88, 45
1, 479132, Control_c, 0, 64, 0
1, 479163, Note_off_c, 0, 88, 45
1, 479206, Control_c, 0, 64, 15
1, 479221, Control_c, 0, 64, 39
1, 479235, Control_c, 0, 64, 58
1, 479250, Control_c, 0, 64, 94
1, 479258, Note_off_c, 0, 32, 57
1, 479259, Note_on_c, 0, 43, 56
1, 479265, Control_c, 0, 64, 127
1, 479359, Note_off_c, 0, 43, 35
1, 479367, Note_on_c, 0, 34, 78
1, 479459, Note_on_c, 0, 43, 71
1, 479465, Note_off_c, 0, 34, 59
1, 479556, Note_on_c, 0, 37, 76
1, 479568, Note_off_c, 0, 43, 58
1, 479632, Note_on_c, 0, 43, 64
1, 479638, Note_off_c, 0, 37, 61
1, 479736, Note_on_c, 0, 40, 101
1, 479757, Note_off_c, 0, 43, 59
1, 479818, Note_off_c, 0, 91, 49
1, 479841, Note_on_c, 0, 43, 77
1, 479843, Note_off_c, 0, 82, 59
1, 479847, Note_off_c, 0, 40, 64
1, 479879, Note_off_c, 0, 85, 58
1, 479935, Note_on_c, 0, 37, 79
1, 479948, Note_off_c, 0, 43, 59
1, 480023, Note_on_c, 0, 43, 78
1, 480025, Note_off_c, 0, 37, 63
1, 480126, Note_on_c, 0, 34, 90
1, 480131, Note_off_c, 0, 43, 58
1, 480218, Note_off_c, 0, 34, 62
1, 480221, Note_on_c, 0, 43, 84
1, 480316, Note_off_c, 0, 43, 58
1, 480343, Note_on_c, 0, 94, 107
1, 480344, Note_on_c, 0, 85, 97
1, 480348, Note_on_c, 0, 88, 92
1, 480349, Note_on_c, 0, 32, 94
1, 480475, Note_on_c, 0, 43, 70
1, 480487, Note_off_c, 0, 32, 59
1, 480578, Note_on_c, 0, 34, 83
1, 480596, Note_off_c, 0, 43, 59
1, 480639, Note_off_c, 0, 94, 52
1, 480666, Note_off_c, 0, 34, 62
1, 480677, Note_on_c, 0, 43, 76
1, 480718, Note_off_c, 0, 88, 55
1, 480777, Note_on_c, 0, 37, 85
1, 480789, Note_off_c, 0, 43, 56
1, 480877, Note_on_c, 0, 43, 79
1, 480878, Note_off_c, 0, 37, 60
1, 480940, Note_off_c, 0, 85, 58
1, 480973, Note_on_c, 0, 92, 107
1, 480983, Note_on_c, 0, 40, 94
1, 480995, Note_off_c, 0, 43, 62
1, 481086, Note_off_c, 0, 40, 65
1, 481088, Note_on_c, 0, 43, 81
1, 481210, Note_on_c, 0, 37, 77
1, 481227, Note_off_c, 0, 43, 59
1, 481276, Note_off_c, 0, 92, 49
1, 481322, Note_on_c, 0, 43, 87
1, 481327, Note_off_c, 0, 37, 63
1, 481462, Note_off_c, 0, 43, 61
1, 481468, Note_on_c, 0, 91, 107
1, 481471, Note_on_c, 0, 34, 85
1, 481599, Note_off_c, 0, 34, 63
1, 481614, Note_on_c, 0, 43, 73
1, 481662, Note_off_c, 0, 43, 60
1, 481701, Note_off_c, 0, 91, 44
1, 481859, Note_on_c, 0, 44, 99
1, 481862, Note_on_c, 0, 39, 81
1, 481866, Note_on_c, 0, 84, 102
1, 481867, Note_on_c, 0, 96, 101
1, 481868, Note_on_c, 0, 87, 96
1, 481871, Note_on_c, 0, 32, 80
1, 481875, Note_on_c, 0, 36, 69
1, 481881, Control_c, 0, 64, 58
1, 481896, Control_c, 0, 64, 0
1, 482044, Note_off_c, 0, 96, 59
1, 482148, Note_on_c, 0, 92, 105
1, 482154, Control_c, 0, 64, 25
1, 482169, Control_c, 0, 64, 42
1, 482176, Note_off_c, 0, 87, 64
1, 482184, Control_c, 0, 64, 57
1, 482199, Control_c, 0, 64, 72
1, 482214, Control_c, 0, 64, 127
1, 482273, Note_off_c, 0, 92, 62
1, 482304, Note_on_c, 0, 87, 101
1, 482333, Note_off_c, 0, 84, 59
1, 482403, Note_off_c, 0, 32, 48
1, 482425, Note_on_c, 0, 92, 98
1, 482440, Note_off_c, 0, 87, 64
1, 482538, Note_on_c, 0, 87, 98
1, 482554, Note_off_c, 0, 92, 64
1, 482621, Note_off_c, 0, 44, 37
1, 482638, Note_on_c, 0, 84, 94
1, 482640, Note_off_c, 0, 36, 46
1, 482655, Note_off_c, 0, 39, 62
1, 482658, Note_off_c, 0, 87, 63
1, 482743, Note_on_c, 0, 87, 95
1, 482758, Note_off_c, 0, 84, 63
1, 482835, Note_off_c, 0, 87, 63
1, 482846, Note_on_c, 0, 84, 86
1, 482898, Note_off_c, 0, 84, 61
1, 482938, Note_on_c, 0, 80, 89
1, 483007, Note_off_c, 0, 80, 52
1, 483033, Note_on_c, 0, 84, 87
1, 483117, Note_on_c, 0, 80, 89
1, 483129, Note_off_c, 0, 84, 59
1, 483190, Note_off_c, 0, 80, 65
1, 483196, Note_on_c, 0, 75, 97
1, 483259, Note_off_c, 0, 75, 59
1, 483279, Note_on_c, 0, 72, 84
1, 483321, Note_off_c, 0, 72, 62
1, 483363, Note_on_c, 0, 68, 86
1, 483436, Note_off_c, 0, 68, 60
1, 483438, Note_on_c, 0, 63, 94
1, 483522, Note_off_c, 0, 63, 61
1, 483531, Note_on_c, 0, 68, 90
1, 483613, Note_on_c, 0, 63, 87
1, 483623, Note_off_c, 0, 68, 57
1, 483686, Note_on_c, 0, 60, 84
1, 483692, Note_off_c, 0, 63, 63
1, 483728, Note_off_c, 0, 60, 66
1, 483784, Note_on_c, 0, 56, 83
1, 483865, Note_on_c, 0, 51, 90
1, 483874, Note_off_c, 0, 56, 63
1, 483956, Note_on_c, 0, 48, 88
1, 483960, Note_off_c, 0, 51, 62
1, 484047, Note_on_c, 0, 51, 90
1, 484048, Note_off_c, 0, 48, 65
1, 484122, Note_off_c, 0, 51, 61
1, 484136, Note_on_c, 0, 48, 81
1, 484229, Note_on_c, 0, 44, 87
1, 484234, Note_off_c, 0, 48, 64
1, 484273, Note_off_c, 0, 44, 60
1, 484348, Note_on_c, 0, 32, 90
1, 484372, Control_c, 0, 64, 71
1, 484387, Control_c, 0, 64, 62
1, 484417, Control_c, 0, 64, 66
1, 484431, Control_c, 0, 64, 72
1, 484446, Control_c, 0, 64, 85
1, 484461, Control_c, 0, 64, 127
1, 484482, Note_on_c, 0, 36, 76
1, 484581, Note_on_c, 0, 39, 85
1, 484605, Note_off_c, 0, 36, 63
1, 484626, Note_off_c, 0, 39, 63
1, 484630, Note_off_c, 0, 32, 26
1, 484668, Note_on_c, 0, 44, 85
1, 484750, Note_on_c, 0, 48, 82
1, 484762, Note_off_c, 0, 44, 35
1, 484837, Note_on_c, 0, 51, 86
1, 484838, Note_off_c, 0, 48, 66
1, 484863, Note_off_c, 0, 51, 69
1, 484908, Note_on_c, 0, 44, 90
1, 485018, Note_on_c, 0, 48, 84
1, 485054, Note_off_c, 0, 44, 59
1, 485105, Note_on_c, 0, 51, 92
1, 485125, Note_off_c, 0, 48, 64
1, 485144, Note_off_c, 0, 51, 66
1, 485188, Note_on_c, 0, 56, 91
1, 485239, Note_off_c, 0, 56, 64
1, 485272, Note_on_c, 0, 60, 88
1, 485355, Note_on_c, 0, 63, 90
1, 485365, Note_off_c, 0, 60, 65
1, 485391, Note_off_c, 0, 63, 70
1, 485428, Note_on_c, 0, 56, 90
1, 485448, Control_c, 0, 64, 72
1, 485463, Control_c, 0, 64, 71
1, 485478, Control_c, 0, 64, 79
1, 485492, Control_c, 0, 64, 90
1, 485507, Control_c, 0, 64, 127
1, 485534, Note_on_c, 0, 60, 83
1, 485566, Note_off_c, 0, 56, 58
1, 485621, Note_on_c, 0, 63, 94
1, 485637, Note_off_c, 0, 60, 64
1, 485662, Note_off_c, 0, 63, 67
1, 485715, Note_on_c, 0, 68, 93
1, 485802, Note_on_c, 0, 72, 87
1, 485889, Note_on_c, 0, 75, 90
1, 485897, Note_off_c, 0, 68, 29
1, 485902, Note_off_c, 0, 72, 64
1, 485937, Note_off_c, 0, 75, 64
1, 485979, Note_on_c, 0, 68, 98
1, 486100, Note_on_c, 0, 72, 87
1, 486133, Note_off_c, 0, 68, 56
1, 486209, Note_on_c, 0, 75, 102
1, 486244, Note_off_c, 0, 72, 60
1, 486253, Note_off_c, 0, 75, 65
1, 486334, Note_on_c, 0, 80, 99
1, 486485, Note_on_c, 0, 84, 100
1, 486503, Note_off_c, 0, 80, 64
1, 486598, Note_off_c, 0, 84, 61
1, 486666, Note_on_c, 0, 87, 105
1, 486786, Note_off_c, 0, 87, 66
1, 486971, Note_on_c, 0, 44, 101
1, 486973, Note_on_c, 0, 80, 106
1, 486974, Note_on_c, 0, 39, 84
1, 486976, Note_on_c, 0, 92, 104
1, 486978, Note_on_c, 0, 87, 90
1, 486980, Note_on_c, 0, 84, 89
1, 486982, Note_on_c, 0, 32, 76
1, 486986, Note_on_c, 0, 36, 66
1, 488992, Note_off_c, 0, 92, 66
1, 489009, Note_off_c, 0, 80, 60
1, 489012, Note_off_c, 0, 84, 65
1, 489015, Note_off_c, 0, 87, 65
1, 489028, Control_c, 0, 64, 86
1, 489032, Note_off_c, 0, 36, 62
1, 489034, Note_off_c, 0, 39, 64
1, 489037, Note_off_c, 0, 44, 60
1, 489043, Control_c, 0, 64, 58
1, 489044, Note_off_c, 0, 32, 51
1, 489058, Control_c, 0, 64, 26
1, 489073, Control_c, 0, 64, 0
1, 489148, End_track
0, 0, End_of_file
