0, 0, Header, 0, 1, 384
1, 0, Start_track
1, 0, Title_t, "Tran.Etude No.10--Yun-Yi Qin       "
1, 0, Text_t, "2008 e-Piano Junior Competition virtual audition round"
1, 0, Text_t, "recorded January and February 2008"
1, 0, Text_t, "http://www.piano-e-competition.com/"
1, 0, Text_t, "File processed for distribution by software from Zenph Studios, Inc., http://www.zenph.com"
1, 0, Instrument_name_t, "Yamaha Disklavier Pro Mark IV concert grand piano, model DCFIIISM4PRO"
1, 0, Sequencer_specific, 39, 67, 113, 0, 1, 0, 1, 0, 84, 114, 97, 110, 46, 69, 116, 117, 100, 101, 32, 78, 111, 46, 49, 48, 89, 117, 110, 45, 89, 105, 32, 81, 105, 110, 32, 32, 32, 32, 32, 32
1, 0, Sequencer_specific, 6, 67, 113, 0, 0, 0, 69
1, 0, System_exclusive, 21, 67, 113, 126, 21, 0, 2, 2, 0, 13, 12, 15, 4, 7, 9, 7, 5, 10, 6, 11, 0, 247
1, 0, Sequencer_specific, 5, 67, 123, 12, 2, 1
1, 0, Tempo, 512820
1, 0, Time_signature, 4, 2, 24, 8
1, 0, System_exclusive, 5, 126, 127, 9, 1, 247
1, 1, System_exclusive, 8, 67, 16, 76, 0, 0, 126, 0, 247
1, 2, System_exclusive, 8, 67, 16, 76, 8, 9, 7, 1, 247
1, 3, Control_c, 0, 0, 0
1, 3, Control_c, 1, 0, 0
1, 3, Control_c, 2, 0, 0
1, 3, Control_c, 3, 0, 0
1, 3, Control_c, 4, 0, 0
1, 3, Control_c, 5, 0, 0
1, 3, Control_c, 6, 0, 0
1, 3, Control_c, 7, 0, 0
1, 3, Control_c, 8, 0, 0
1, 3, Control_c, 9, 0, 127
1, 3, Control_c, 10, 0, 0
1, 3, Control_c, 11, 0, 0
1, 3, Control_c, 12, 0, 0
1, 3, Control_c, 13, 0, 0
1, 3, Control_c, 14, 0, 0
1, 3, Control_c, 15, 0, 0
1, 4, Control_c, 0, 32, 0
1, 4, Control_c, 1, 32, 0
1, 4, Control_c, 2, 32, 0
1, 4, Control_c, 3, 32, 0
1, 4, Control_c, 4, 32, 0
1, 4, Control_c, 5, 32, 0
1, 4, Control_c, 6, 32, 0
1, 4, Control_c, 7, 32, 0
1, 4, Control_c, 8, 32, 0
1, 4, Control_c, 9, 32, 0
1, 4, Control_c, 10, 32, 0
1, 4, Control_c, 11, 32, 0
1, 4, Control_c, 12, 32, 0
1, 4, Control_c, 13, 32, 0
1, 4, Control_c, 14, 32, 0
1, 4, Control_c, 15, 32, 0
1, 5, Program_c, 0, 0
1, 5, Program_c, 1, 0
1, 5, Program_c, 2, 0
1, 5, Program_c, 3, 0
1, 5, Program_c, 4, 0
1, 5, Program_c, 5, 0
1, 5, Program_c, 6, 0
1, 5, Program_c, 7, 0
1, 5, Program_c, 8, 0
1, 5, Program_c, 9, 0
1, 5, Program_c, 10, 0
1, 5, Program_c, 11, 0
1, 5, Program_c, 12, 0
1, 5, Program_c, 13, 0
1, 5, Program_c, 14, 0
1, 5, Program_c, 15, 0
1, 6, Control_c, 0, 7, 100
1, 117, Control_c, 0, 67, 15
1, 229, Control_c, 0, 67, 31
1, 341, Control_c, 0, 67, 46
1, 452, Control_c, 0, 67, 63
1, 564, Control_c, 0, 67, 77
1, 676, Control_c, 0, 67, 94
1, 787, Control_c, 0, 67, 108
1, 899, Control_c, 0, 67, 127
1, 899, Control_c, 1, 7, 100
1, 899, Control_c, 2, 7, 100
1, 899, Control_c, 3, 7, 100
1, 899, Control_c, 4, 7, 100
1, 899, Control_c, 5, 7, 100
1, 899, Control_c, 6, 7, 100
1, 899, Control_c, 7, 7, 100
1, 899, Control_c, 8, 7, 100
1, 899, Control_c, 9, 7, 100
1, 899, Control_c, 10, 7, 100
1, 899, Control_c, 11, 7, 100
1, 899, Control_c, 12, 7, 100
1, 899, Control_c, 13, 7, 100
1, 899, Control_c, 14, 7, 100
1, 899, Control_c, 15, 7, 100
1, 1129, Note_on_c, 0, 77, 68
1, 1150, Note_on_c, 0, 68, 51
1, 1152, Note_on_c, 0, 72, 54
1, 1337, Note_on_c, 0, 79, 72
1, 1344, Note_off_c, 0, 68, 55
1, 1347, Note_off_c, 0, 77, 60
1, 1351, Note_on_c, 0, 73, 57
1, 1353, Note_off_c, 0, 72, 58
1, 1363, Note_on_c, 0, 70, 48
1, 1424, Note_off_c, 0, 79, 63
1, 1428, Note_off_c, 0, 70, 58
1, 1443, Note_off_c, 0, 73, 63
1, 1470, Note_on_c, 0, 77, 67
1, 1473, Note_on_c, 0, 68, 58
1, 1478, Note_on_c, 0, 72, 61
1, 1544, Note_off_c, 0, 77, 61
1, 1554, Note_off_c, 0, 68, 58
1, 1561, Note_on_c, 0, 75, 70
1, 1565, Note_off_c, 0, 72, 54
1, 1573, Note_on_c, 0, 70, 60
1, 1577, Note_on_c, 0, 67, 56
1, 1625, Note_off_c, 0, 67, 62
1, 1636, Note_off_c, 0, 75, 61
1, 1641, Note_off_c, 0, 70, 60
1, 1670, Note_on_c, 0, 77, 68
1, 1682, Note_on_c, 0, 68, 61
1, 1715, Note_on_c, 0, 72, 9
1, 1739, Note_off_c, 0, 77, 62
1, 1741, Note_off_c, 0, 68, 57
1, 1742, Note_off_c, 0, 72, 45
1, 1744, Note_on_c, 0, 75, 63
1, 1755, Note_on_c, 0, 67, 58
1, 1758, Note_on_c, 0, 70, 62
1, 1798, Note_off_c, 0, 67, 63
1, 1798, Note_off_c, 0, 70, 61
1, 1799, Note_off_c, 0, 75, 59
1, 1818, Note_on_c, 0, 65, 64
1, 1823, Note_on_c, 0, 73, 65
1, 1828, Note_on_c, 0, 68, 64
1, 1863, Note_off_c, 0, 65, 60
1, 1872, Note_off_c, 0, 73, 59
1, 1887, Note_off_c, 0, 68, 59
1, 1896, Note_on_c, 0, 67, 67
1, 1901, Note_on_c, 0, 75, 59
1, 1927, Note_off_c, 0, 75, 67
1, 1930, Note_off_c, 0, 67, 63
1, 1968, Note_on_c, 0, 68, 61
1, 1971, Note_on_c, 0, 73, 66
1, 1973, Note_on_c, 0, 65, 55
1, 2000, Note_off_c, 0, 65, 64
1, 2003, Note_off_c, 0, 73, 63
1, 2007, Note_off_c, 0, 68, 63
1, 2027, Note_on_c, 0, 72, 80
1, 2033, Note_on_c, 0, 63, 68
1, 2072, Note_off_c, 0, 63, 60
1, 2084, Note_off_c, 0, 72, 61
1, 2093, Note_on_c, 0, 65, 53
1, 2104, Note_on_c, 0, 73, 62
1, 2109, Note_on_c, 0, 68, 71
1, 2129, Note_off_c, 0, 73, 67
1, 2134, Note_off_c, 0, 65, 65
1, 2135, Note_off_c, 0, 68, 69
1, 2167, Note_on_c, 0, 72, 75
1, 2167, Note_on_c, 0, 63, 73
1, 2208, Note_off_c, 0, 72, 65
1, 2223, Note_on_c, 0, 70, 71
1, 2245, Note_on_c, 0, 61, 51
1, 2250, Note_on_c, 0, 65, 48
1, 2252, Note_on_c, 0, 64, 41
1, 2268, Note_off_c, 0, 63, 30
1, 2281, Note_off_c, 0, 64, 63
1, 2282, Note_off_c, 0, 61, 60
1, 2282, Note_off_c, 0, 65, 65
1, 2284, Note_off_c, 0, 70, 62
1, 2297, Note_on_c, 0, 63, 57
1, 2299, Note_on_c, 0, 72, 79
1, 2325, Note_off_c, 0, 72, 68
1, 2352, Note_off_c, 0, 63, 64
1, 2369, Note_on_c, 0, 65, 71
1, 2373, Note_on_c, 0, 70, 63
1, 2375, Note_on_c, 0, 61, 57
1, 2412, Note_off_c, 0, 61, 62
1, 2427, Note_off_c, 0, 70, 55
1, 2428, Note_off_c, 0, 65, 62
1, 2438, Note_on_c, 0, 68, 75
1, 2451, Note_on_c, 0, 60, 69
1, 2484, Note_off_c, 0, 60, 61
1, 2494, Note_off_c, 0, 68, 63
1, 2507, Note_on_c, 0, 61, 63
1, 2519, Note_on_c, 0, 65, 58
1, 2557, Note_off_c, 0, 65, 66
1, 2571, Note_on_c, 0, 68, 75
1, 2574, Note_off_c, 0, 61, 63
1, 2582, Note_on_c, 0, 60, 72
1, 2620, Note_off_c, 0, 68, 63
1, 2624, Note_off_c, 0, 60, 56
1, 2653, Note_on_c, 0, 67, 72
1, 2683, Note_on_c, 0, 58, 53
1, 2684, Note_on_c, 0, 61, 58
1, 2695, Control_c, 0, 64, 26
1, 2707, Note_on_c, 0, 63, 66
1, 2710, Note_on_c, 0, 68, 68
1, 2710, Control_c, 0, 64, 63
1, 2712, Note_off_c, 0, 67, 61
1, 2715, Note_off_c, 0, 58, 66
1, 2715, Note_off_c, 0, 61, 65
1, 2725, Control_c, 0, 64, 68
1, 2739, Control_c, 0, 64, 73
1, 2745, Note_off_c, 0, 68, 62
1, 2754, Control_c, 0, 64, 79
1, 2758, Note_off_c, 0, 63, 60
1, 2769, Control_c, 0, 64, 84
1, 2784, Control_c, 0, 64, 90
1, 2798, Note_on_c, 0, 67, 70
1, 2799, Control_c, 0, 64, 97
1, 2811, Note_on_c, 0, 58, 55
1, 2811, Note_on_c, 0, 61, 37
1, 2813, Control_c, 0, 64, 104
1, 2828, Control_c, 0, 64, 116
1, 2835, Note_off_c, 0, 67, 58
1, 2843, Control_c, 0, 64, 127
1, 2844, Note_off_c, 0, 61, 55
1, 2854, Note_off_c, 0, 58, 62
1, 2902, Control_c, 0, 64, 114
1, 2917, Control_c, 0, 64, 88
1, 2932, Control_c, 0, 64, 68
1, 2934, Note_on_c, 0, 65, 72
1, 2939, Note_on_c, 0, 56, 68
1, 2946, Control_c, 0, 64, 0
1, 2991, Control_c, 0, 64, 56
1, 3006, Control_c, 0, 64, 65
1, 3020, Control_c, 0, 64, 71
1, 3035, Control_c, 0, 64, 76
1, 3050, Control_c, 0, 64, 81
1, 3065, Control_c, 0, 64, 86
1, 3080, Control_c, 0, 64, 90
1, 3102, Control_c, 0, 64, 96
1, 3117, Control_c, 0, 64, 104
1, 3132, Control_c, 0, 64, 113
1, 3146, Control_c, 0, 64, 127
1, 3160, Note_off_c, 0, 65, 54
1, 3163, Note_off_c, 0, 56, 32
1, 3184, Note_on_c, 0, 60, 48
1, 3247, Note_on_c, 0, 53, 53
1, 3255, Note_off_c, 0, 60, 59
1, 3314, Note_on_c, 0, 71, 62
1, 3327, Note_on_c, 0, 59, 61
1, 3348, Note_off_c, 0, 53, 57
1, 3407, Note_off_c, 0, 59, 57
1, 3408, Note_off_c, 0, 71, 63
1, 3420, Note_on_c, 0, 68, 64
1, 3444, Note_on_c, 0, 65, 44
1, 3493, Note_off_c, 0, 65, 64
1, 3496, Note_on_c, 0, 72, 81
1, 3497, Note_off_c, 0, 68, 61
1, 3500, Note_on_c, 0, 60, 65
1, 3518, Control_c, 0, 64, 113
1, 3529, Note_off_c, 0, 60, 62
1, 3533, Control_c, 0, 64, 86
1, 3548, Control_c, 0, 64, 64
1, 3559, Note_off_c, 0, 72, 64
1, 3562, Control_c, 0, 64, 0
1, 3571, Note_on_c, 0, 64, 73
1, 3582, Note_on_c, 0, 55, 57
1, 3607, Control_c, 0, 64, 27
1, 3622, Control_c, 0, 64, 55
1, 3636, Control_c, 0, 64, 64
1, 3651, Control_c, 0, 64, 69
1, 3667, Control_c, 0, 64, 76
1, 3682, Control_c, 0, 64, 83
1, 3696, Control_c, 0, 64, 89
1, 3702, Note_on_c, 0, 58, 63
1, 3711, Control_c, 0, 64, 94
1, 3726, Control_c, 0, 64, 99
1, 3741, Control_c, 0, 64, 107
1, 3753, Note_off_c, 0, 55, 57
1, 3756, Control_c, 0, 64, 127
1, 3781, Note_on_c, 0, 53, 56
1, 3793, Note_on_c, 0, 73, 76
1, 3803, Note_on_c, 0, 61, 70
1, 3813, Note_off_c, 0, 58, 61
1, 3813, Note_off_c, 0, 64, 21
1, 3834, Note_off_c, 0, 53, 54
1, 3927, Note_on_c, 0, 67, 50
1, 3951, Note_on_c, 0, 64, 46
1, 3959, Note_off_c, 0, 61, 62
1, 3974, Note_off_c, 0, 73, 39
1, 3991, Note_off_c, 0, 64, 61
1, 4016, Note_on_c, 0, 60, 54
1, 4042, Note_off_c, 0, 67, 63
1, 4047, Note_on_c, 0, 72, 65
1, 4049, Note_off_c, 0, 60, 63
1, 4075, Control_c, 0, 64, 97
1, 4089, Note_off_c, 0, 72, 64
1, 4090, Control_c, 0, 64, 74
1, 4099, Note_on_c, 0, 56, 53
1, 4105, Control_c, 0, 64, 28
1, 4111, Note_on_c, 0, 65, 73
1, 4119, Control_c, 0, 64, 0
1, 4149, Control_c, 0, 64, 47
1, 4164, Control_c, 0, 64, 66
1, 4179, Control_c, 0, 64, 73
1, 4193, Control_c, 0, 64, 81
1, 4208, Control_c, 0, 64, 86
1, 4223, Control_c, 0, 64, 90
1, 4238, Control_c, 0, 64, 93
1, 4242, Note_on_c, 0, 60, 54
1, 4253, Control_c, 0, 64, 98
1, 4267, Control_c, 0, 64, 104
1, 4282, Control_c, 0, 64, 110
1, 4297, Control_c, 0, 64, 115
1, 4311, Note_off_c, 0, 65, 35
1, 4311, Control_c, 0, 64, 121
1, 4326, Control_c, 0, 64, 127
1, 4341, Note_off_c, 0, 56, 22
1, 4341, Note_on_c, 0, 53, 58
1, 4352, Note_off_c, 0, 60, 59
1, 4369, Note_off_c, 0, 53, 62
1, 4576, Note_on_c, 0, 77, 62
1, 4590, Note_on_c, 0, 68, 56
1, 4609, Note_on_c, 0, 72, 46
1, 4634, Note_off_c, 0, 68, 59
1, 4639, Note_off_c, 0, 72, 54
1, 4640, Note_off_c, 0, 77, 53
1, 4659, Note_on_c, 0, 79, 56
1, 4667, Note_on_c, 0, 70, 55
1, 4667, Note_on_c, 0, 73, 52
1, 4674, Control_c, 0, 64, 114
1, 4678, Note_off_c, 0, 79, 60
1, 4689, Control_c, 0, 64, 103
1, 4693, Note_off_c, 0, 73, 64
1, 4700, Note_off_c, 0, 70, 65
1, 4704, Control_c, 0, 64, 95
1, 4718, Note_on_c, 0, 77, 57
1, 4718, Control_c, 0, 64, 86
1, 4728, Note_on_c, 0, 68, 58
1, 4733, Control_c, 0, 64, 78
1, 4737, Note_on_c, 0, 72, 59
1, 4748, Control_c, 0, 64, 69
1, 4763, Control_c, 0, 64, 59
1, 4776, Note_off_c, 0, 68, 57
1, 4778, Control_c, 0, 64, 50
1, 4779, Note_off_c, 0, 72, 61
1, 4782, Note_off_c, 0, 77, 63
1, 4792, Control_c, 0, 64, 48
1, 4800, Note_on_c, 0, 75, 67
1, 4807, Control_c, 0, 64, 47
1, 4814, Note_on_c, 0, 70, 53
1, 4817, Note_on_c, 0, 67, 52
1, 4836, Control_c, 0, 64, 47
1, 4843, Note_off_c, 0, 75, 57
1, 4846, Note_off_c, 0, 67, 64
1, 4851, Note_off_c, 0, 70, 64
1, 4851, Control_c, 0, 64, 45
1, 4868, Control_c, 0, 64, 41
1, 4871, Note_on_c, 0, 77, 68
1, 4880, Note_on_c, 0, 68, 69
1, 4883, Control_c, 0, 64, 36
1, 4897, Note_on_c, 0, 72, 24
1, 4897, Control_c, 0, 64, 34
1, 4912, Control_c, 0, 64, 33
1, 4924, Note_off_c, 0, 72, 49
1, 4929, Note_off_c, 0, 77, 63
1, 4938, Note_on_c, 0, 67, 64
1, 4939, Note_on_c, 0, 75, 67
1, 4940, Note_off_c, 0, 68, 62
1, 4941, Note_on_c, 0, 70, 61
1, 4941, Control_c, 0, 64, 32
1, 4956, Control_c, 0, 64, 30
1, 4971, Control_c, 0, 64, 27
1, 4975, Note_off_c, 0, 67, 65
1, 4978, Note_off_c, 0, 70, 63
1, 4983, Note_off_c, 0, 75, 60
1, 4986, Control_c, 0, 64, 22
1, 5000, Note_on_c, 0, 65, 67
1, 5001, Control_c, 0, 64, 20
1, 5005, Note_on_c, 0, 68, 58
1, 5005, Note_on_c, 0, 73, 73
1, 5015, Control_c, 0, 64, 18
1, 5047, Note_off_c, 0, 65, 60
1, 5063, Note_off_c, 0, 73, 64
1, 5068, Note_off_c, 0, 68, 62
1, 5073, Note_on_c, 0, 75, 70
1, 5078, Note_on_c, 0, 67, 63
1, 5101, Note_off_c, 0, 75, 63
1, 5104, Control_c, 0, 64, 15
1, 5111, Note_off_c, 0, 67, 65
1, 5132, Note_on_c, 0, 73, 67
1, 5137, Note_on_c, 0, 65, 61
1, 5138, Note_on_c, 0, 68, 66
1, 5148, Control_c, 0, 64, 12
1, 5168, Note_off_c, 0, 65, 65
1, 5187, Note_off_c, 0, 73, 65
1, 5190, Note_off_c, 0, 68, 62
1, 5209, Note_on_c, 0, 72, 82
1, 5217, Note_on_c, 0, 63, 72
1, 5252, Note_off_c, 0, 63, 63
1, 5260, Note_off_c, 0, 72, 63
1, 5262, Note_on_c, 0, 65, 59
1, 5272, Note_on_c, 0, 73, 71
1, 5277, Note_on_c, 0, 68, 73
1, 5303, Note_off_c, 0, 73, 68
1, 5310, Note_off_c, 0, 65, 63
1, 5324, Note_off_c, 0, 68, 62
1, 5342, Note_on_c, 0, 72, 82
1, 5354, Note_on_c, 0, 63, 69
1, 5379, Control_c, 0, 64, 0
1, 5390, Note_off_c, 0, 63, 62
1, 5396, Note_off_c, 0, 72, 64
1, 5399, Note_on_c, 0, 66, 80
1, 5411, Note_on_c, 0, 70, 70
1, 5423, Note_on_c, 0, 61, 62
1, 5454, Note_on_c, 0, 65, 30
1, 5461, Note_off_c, 0, 66, 66
1, 5470, Note_off_c, 0, 70, 62
1, 5479, Note_on_c, 0, 72, 83
1, 5480, Note_off_c, 0, 65, 52
1, 5482, Note_on_c, 0, 63, 77
1, 5482, Note_off_c, 0, 61, 50
1, 5503, Note_off_c, 0, 72, 70
1, 5530, Note_off_c, 0, 63, 63
1, 5539, Note_on_c, 0, 61, 51
1, 5545, Note_on_c, 0, 70, 64
1, 5559, Note_on_c, 0, 65, 69
1, 5587, Note_off_c, 0, 61, 60
1, 5592, Note_off_c, 0, 65, 66
1, 5605, Note_off_c, 0, 70, 62
1, 5610, Note_on_c, 0, 68, 82
1, 5621, Note_on_c, 0, 60, 74
1, 5652, Note_off_c, 0, 60, 62
1, 5666, Note_off_c, 0, 68, 63
1, 5679, Note_on_c, 0, 61, 75
1, 5692, Note_on_c, 0, 70, 37
1, 5697, Note_on_c, 0, 65, 59
1, 5722, Note_off_c, 0, 70, 51
1, 5727, Note_off_c, 0, 65, 67
1, 5738, Note_on_c, 0, 68, 85
1, 5750, Note_off_c, 0, 61, 63
1, 5751, Note_on_c, 0, 60, 72
1, 5793, Note_off_c, 0, 68, 64
1, 5795, Note_off_c, 0, 60, 56
1, 5816, Note_on_c, 0, 67, 75
1, 5825, Control_c, 0, 64, 24
1, 5831, Note_on_c, 0, 61, 62
1, 5839, Note_on_c, 0, 58, 55
1, 5839, Control_c, 0, 64, 48
1, 5854, Control_c, 0, 64, 60
1, 5869, Control_c, 0, 64, 66
1, 5872, Note_off_c, 0, 67, 59
1, 5873, Note_on_c, 0, 68, 72
1, 5876, Note_off_c, 0, 58, 61
1, 5881, Note_off_c, 0, 61, 58
1, 5883, Control_c, 0, 64, 73
1, 5887, Note_on_c, 0, 63, 67
1, 5898, Control_c, 0, 64, 83
1, 5913, Control_c, 0, 64, 90
1, 5920, Note_off_c, 0, 68, 57
1, 5924, Note_off_c, 0, 63, 60
1, 5928, Control_c, 0, 64, 96
1, 5943, Control_c, 0, 64, 106
1, 5957, Control_c, 0, 64, 119
1, 5965, Note_on_c, 0, 58, 60
1, 5965, Note_on_c, 0, 67, 72
1, 5972, Control_c, 0, 64, 127
1, 5995, Note_on_c, 0, 61, 36
1, 5996, Note_off_c, 0, 67, 63
1, 6018, Note_off_c, 0, 61, 58
1, 6019, Note_off_c, 0, 58, 59
1, 6061, Control_c, 0, 64, 101
1, 6076, Control_c, 0, 64, 79
1, 6098, Control_c, 0, 64, 61
1, 6099, Note_on_c, 0, 56, 63
1, 6101, Note_on_c, 0, 65, 65
1, 6113, Control_c, 0, 64, 0
1, 6143, Control_c, 0, 64, 32
1, 6158, Control_c, 0, 64, 63
1, 6172, Control_c, 0, 64, 68
1, 6187, Control_c, 0, 64, 73
1, 6202, Control_c, 0, 64, 78
1, 6216, Control_c, 0, 64, 83
1, 6231, Control_c, 0, 64, 87
1, 6246, Control_c, 0, 64, 93
1, 6261, Control_c, 0, 64, 100
1, 6276, Control_c, 0, 64, 108
1, 6287, Note_off_c, 0, 65, 59
1, 6290, Control_c, 0, 64, 118
1, 6305, Control_c, 0, 64, 127
1, 6314, Note_off_c, 0, 56, 37
1, 6332, Note_on_c, 0, 60, 41
1, 6379, Note_off_c, 0, 60, 59
1, 6383, Note_on_c, 0, 53, 59
1, 6448, Note_on_c, 0, 71, 55
1, 6460, Note_on_c, 0, 59, 59
1, 6485, Note_off_c, 0, 53, 56
1, 6524, Note_off_c, 0, 59, 56
1, 6524, Note_off_c, 0, 71, 63
1, 6538, Note_on_c, 0, 68, 61
1, 6587, Note_on_c, 0, 65, 22
1, 6612, Note_off_c, 0, 68, 59
1, 6617, Note_on_c, 0, 72, 79
1, 6618, Note_on_c, 0, 60, 63
1, 6623, Note_off_c, 0, 65, 50
1, 6647, Control_c, 0, 64, 106
1, 6648, Note_off_c, 0, 60, 62
1, 6663, Control_c, 0, 64, 81
1, 6677, Note_off_c, 0, 72, 63
1, 6678, Control_c, 0, 64, 63
1, 6685, Note_on_c, 0, 64, 76
1, 6692, Control_c, 0, 64, 0
1, 6696, Note_on_c, 0, 55, 57
1, 6722, Control_c, 0, 64, 51
1, 6737, Control_c, 0, 64, 63
1, 6752, Control_c, 0, 64, 69
1, 6767, Control_c, 0, 64, 77
1, 6781, Control_c, 0, 64, 87
1, 6796, Control_c, 0, 64, 95
1, 6802, Note_on_c, 0, 58, 64
1, 6811, Control_c, 0, 64, 103
1, 6826, Control_c, 0, 64, 112
1, 6847, Control_c, 0, 64, 127
1, 6851, Note_off_c, 0, 55, 50
1, 6863, Note_off_c, 0, 64, 0
1, 6886, Note_on_c, 0, 53, 57
1, 6901, Poly_aftertouch_c, 0, 64, 127
1, 6910, Note_on_c, 0, 73, 77
1, 6916, Note_on_c, 0, 61, 73
1, 6922, Note_off_c, 0, 58, 59
1, 6931, Poly_aftertouch_c, 0, 64, 0
1, 6943, Note_off_c, 0, 53, 49
1, 6967, Poly_aftertouch_c, 0, 64, 0
1, 6967, Control_c, 0, 67, 124
1, 6982, Control_c, 0, 67, 113
1, 6996, Control_c, 0, 67, 101
1, 7011, Control_c, 0, 67, 91
1, 7026, Control_c, 0, 67, 82
1, 7032, Note_off_c, 0, 73, 58
1, 7040, Note_on_c, 0, 67, 51
1, 7040, Control_c, 0, 67, 76
1, 7047, Note_off_c, 0, 61, 62
1, 7055, Control_c, 0, 67, 68
1, 7070, Control_c, 0, 67, 58
1, 7085, Control_c, 0, 67, 45
1, 7100, Control_c, 0, 67, 30
1, 7111, Poly_aftertouch_c, 0, 64, 127
1, 7112, Note_on_c, 0, 60, 60
1, 7114, Control_c, 0, 67, 16
1, 7128, Note_off_c, 0, 67, 63
1, 7129, Control_c, 0, 67, 0
1, 7132, Note_on_c, 0, 72, 69
1, 7134, Poly_aftertouch_c, 0, 64, 0
1, 7148, Note_off_c, 0, 60, 60
1, 7173, Control_c, 0, 64, 102
1, 7175, Note_off_c, 0, 72, 63
1, 7188, Control_c, 0, 64, 79
1, 7202, Note_on_c, 0, 65, 76
1, 7203, Control_c, 0, 64, 63
1, 7204, Note_on_c, 0, 56, 51
1, 7218, Control_c, 0, 64, 0
1, 7247, Control_c, 0, 64, 42
1, 7263, Control_c, 0, 64, 63
1, 7278, Control_c, 0, 64, 69
1, 7293, Control_c, 0, 64, 79
1, 7308, Control_c, 0, 64, 91
1, 7318, Note_on_c, 0, 60, 62
1, 7323, Control_c, 0, 64, 101
1, 7337, Control_c, 0, 64, 112
1, 7347, Note_off_c, 0, 65, 63
1, 7352, Control_c, 0, 64, 127
1, 7388, Note_on_c, 0, 53, 65
1, 7399, Note_off_c, 0, 60, 61
1, 7436, Note_off_c, 0, 56, 43
1, 7438, Note_off_c, 0, 53, 59
1, 7453, Note_on_c, 0, 71, 74
1, 7468, Note_on_c, 0, 59, 65
1, 7501, Note_off_c, 0, 59, 65
1, 7509, Note_off_c, 0, 71, 64
1, 7533, Note_on_c, 0, 68, 48
1, 7560, Note_off_c, 0, 68, 57
1, 7606, Note_on_c, 0, 61, 73
1, 7607, Note_on_c, 0, 73, 76
1, 7661, Note_off_c, 0, 73, 65
1, 7666, Note_off_c, 0, 61, 62
1, 7685, Control_c, 0, 64, 90
1, 7700, Control_c, 0, 64, 69
1, 7715, Control_c, 0, 64, 0
1, 7717, Note_on_c, 0, 72, 73
1, 7725, Note_on_c, 0, 60, 61
1, 7745, Control_c, 0, 64, 54
1, 7760, Control_c, 0, 64, 67
1, 7769, Note_off_c, 0, 60, 62
1, 7775, Control_c, 0, 64, 76
1, 7789, Control_c, 0, 64, 88
1, 7800, Note_off_c, 0, 72, 64
1, 7804, Control_c, 0, 64, 100
1, 7819, Control_c, 0, 64, 110
1, 7831, Note_on_c, 0, 41, 53
1, 7834, Control_c, 0, 64, 127
1, 7960, Note_on_c, 0, 48, 59
1, 7962, Note_off_c, 0, 41, 56
1, 7962, Note_on_c, 0, 80, 72
1, 7971, Note_on_c, 0, 68, 65
1, 8006, Note_off_c, 0, 68, 61
1, 8031, Note_off_c, 0, 80, 59
1, 8047, Note_off_c, 0, 48, 58
1, 8058, Note_on_c, 0, 53, 60
1, 8138, Note_off_c, 0, 53, 59
1, 8174, Note_on_c, 0, 77, 74
1, 8186, Note_on_c, 0, 56, 62
1, 8188, Note_on_c, 0, 65, 62
1, 8223, Note_off_c, 0, 65, 66
1, 8254, Note_off_c, 0, 77, 62
1, 8266, Note_on_c, 0, 59, 62
1, 8284, Note_off_c, 0, 56, 54
1, 8317, Note_off_c, 0, 59, 58
1, 8359, Control_c, 0, 64, 115
1, 8374, Control_c, 0, 64, 87
1, 8389, Control_c, 0, 64, 68
1, 8400, Note_on_c, 0, 60, 68
1, 8400, Note_on_c, 0, 68, 80
1, 8403, Control_c, 0, 64, 30
1, 8418, Control_c, 0, 64, 31
1, 8433, Control_c, 0, 64, 61
1, 8448, Control_c, 0, 64, 69
1, 8463, Control_c, 0, 64, 80
1, 8478, Control_c, 0, 64, 95
1, 8484, Note_off_c, 0, 68, 64
1, 8492, Control_c, 0, 64, 109
1, 8507, Control_c, 0, 64, 127
1, 8517, Note_off_c, 0, 60, 60
1, 8527, Note_on_c, 0, 63, 69
1, 8552, Note_off_c, 0, 63, 66
1, 8609, Note_on_c, 0, 51, 77
1, 8661, Note_on_c, 0, 74, 75
1, 8669, Note_off_c, 0, 51, 63
1, 8678, Note_on_c, 0, 62, 64
1, 8722, Note_off_c, 0, 74, 65
1, 8736, Note_off_c, 0, 62, 58
1, 8746, Note_on_c, 0, 72, 66
1, 8751, Note_on_c, 0, 68, 66
1, 8794, Note_off_c, 0, 72, 62
1, 8803, Note_off_c, 0, 68, 47
1, 8810, Note_on_c, 0, 75, 77
1, 8812, Note_on_c, 0, 63, 76
1, 8833, Control_c, 0, 64, 93
1, 8845, Note_off_c, 0, 63, 60
1, 8848, Control_c, 0, 64, 67
1, 8863, Control_c, 0, 64, 0
1, 8877, Note_off_c, 0, 75, 58
1, 8881, Note_on_c, 0, 67, 83
1, 8892, Note_on_c, 0, 58, 71
1, 8893, Control_c, 0, 64, 62
1, 8907, Control_c, 0, 64, 70
1, 8922, Control_c, 0, 64, 84
1, 8937, Control_c, 0, 64, 111
1, 8952, Note_off_c, 0, 67, 58
1, 8952, Control_c, 0, 64, 127
1, 8991, Note_on_c, 0, 61, 73
1, 9001, Note_off_c, 0, 58, 62
1, 9047, Note_off_c, 0, 61, 62
1, 9065, Note_on_c, 0, 51, 81
1, 9113, Note_on_c, 0, 76, 74
1, 9116, Note_off_c, 0, 51, 55
1, 9117, Note_on_c, 0, 64, 78
1, 9184, Note_off_c, 0, 76, 63
1, 9199, Note_off_c, 0, 64, 62
1, 9199, Note_on_c, 0, 70, 61
1, 9222, Note_on_c, 0, 67, 52
1, 9253, Note_off_c, 0, 67, 65
1, 9276, Note_off_c, 0, 70, 61
1, 9283, Note_on_c, 0, 63, 78
1, 9286, Note_on_c, 0, 75, 74
1, 9307, Note_off_c, 0, 63, 69
1, 9330, Control_c, 0, 64, 97
1, 9337, Note_off_c, 0, 75, 63
1, 9345, Control_c, 0, 64, 73
1, 9359, Control_c, 0, 64, 54
1, 9361, Note_on_c, 0, 68, 86
1, 9365, Note_on_c, 0, 60, 68
1, 9374, Control_c, 0, 64, 47
1, 9389, Control_c, 0, 64, 63
1, 9404, Control_c, 0, 64, 69
1, 9419, Control_c, 0, 64, 81
1, 9433, Control_c, 0, 64, 101
1, 9448, Control_c, 0, 64, 127
1, 9462, Note_off_c, 0, 68, 52
1, 9466, Note_on_c, 0, 63, 72
1, 9487, Note_off_c, 0, 60, 55
1, 9513, Note_on_c, 0, 56, 74
1, 9525, Note_off_c, 0, 63, 63
1, 9561, Note_on_c, 0, 74, 73
1, 9566, Note_on_c, 0, 62, 69
1, 9571, Note_off_c, 0, 56, 63
1, 9594, Note_off_c, 0, 62, 67
1, 9619, Note_off_c, 0, 74, 63
1, 9689, Note_on_c, 0, 65, 82
1, 9698, Note_on_c, 0, 77, 59
1, 9704, Note_on_c, 0, 76, 62
1, 9715, Note_off_c, 0, 65, 68
1, 9718, Note_off_c, 0, 77, 63
1, 9727, Note_off_c, 0, 76, 66
1, 9805, Control_c, 0, 64, 100
1, 9815, Note_on_c, 0, 75, 81
1, 9820, Control_c, 0, 64, 73
1, 9822, Note_on_c, 0, 63, 74
1, 9843, Control_c, 0, 64, 0
1, 9872, Control_c, 0, 64, 44
1, 9887, Control_c, 0, 64, 68
1, 9888, Note_off_c, 0, 63, 63
1, 9902, Control_c, 0, 64, 82
1, 9917, Control_c, 0, 64, 109
1, 9919, Note_off_c, 0, 75, 62
1, 9920, Note_on_c, 0, 44, 72
1, 9931, Control_c, 0, 64, 127
1, 10020, Note_off_c, 0, 44, 58
1, 10039, Note_on_c, 0, 51, 69
1, 10049, Note_on_c, 0, 84, 85
1, 10052, Note_on_c, 0, 72, 87
1, 10079, Note_off_c, 0, 72, 64
1, 10091, Note_off_c, 0, 84, 61
1, 10143, Note_on_c, 0, 56, 68
1, 10170, Note_off_c, 0, 51, 60
1, 10219, Note_off_c, 0, 56, 63
1, 10225, Note_on_c, 0, 60, 64
1, 10259, Note_off_c, 0, 60, 59
1, 10275, Note_on_c, 0, 80, 84
1, 10278, Note_on_c, 0, 68, 83
1, 10302, Note_off_c, 0, 68, 66
1, 10324, Note_off_c, 0, 80, 64
1, 10328, Note_on_c, 0, 63, 63
1, 10395, Note_off_c, 0, 63, 60
1, 10419, Control_c, 0, 64, 100
1, 10434, Control_c, 0, 64, 71
1, 10436, Note_on_c, 0, 73, 90
1, 10439, Note_on_c, 0, 64, 75
1, 10450, Control_c, 0, 64, 0
1, 10479, Control_c, 0, 64, 59
1, 10494, Control_c, 0, 64, 70
1, 10509, Control_c, 0, 64, 85
1, 10513, Note_off_c, 0, 73, 62
1, 10524, Control_c, 0, 64, 107
1, 10539, Control_c, 0, 64, 127
1, 10546, Note_off_c, 0, 64, 64
1, 10552, Note_on_c, 0, 68, 74
1, 10568, Note_off_c, 0, 68, 68
1, 10637, Note_on_c, 0, 56, 76
1, 10690, Note_off_c, 0, 56, 65
1, 10704, Note_on_c, 0, 79, 77
1, 10711, Note_on_c, 0, 67, 79
1, 10760, Note_off_c, 0, 79, 65
1, 10772, Note_off_c, 0, 67, 63
1, 10785, Note_on_c, 0, 73, 65
1, 10785, Note_on_c, 0, 76, 55
1, 10832, Note_off_c, 0, 76, 58
1, 10851, Note_on_c, 0, 80, 86
1, 10851, Note_on_c, 0, 68, 81
1, 10857, Note_off_c, 0, 73, 62
1, 10880, Note_off_c, 0, 68, 64
1, 10887, Control_c, 0, 64, 101
1, 10901, Note_off_c, 0, 80, 65
1, 10901, Control_c, 0, 64, 73
1, 10906, Note_on_c, 0, 72, 92
1, 10916, Control_c, 0, 64, 0
1, 10917, Note_on_c, 0, 63, 74
1, 10946, Control_c, 0, 64, 63
1, 10961, Control_c, 0, 64, 74
1, 10976, Control_c, 0, 64, 94
1, 10983, Note_off_c, 0, 72, 61
1, 10991, Control_c, 0, 64, 127
1, 11006, Note_on_c, 0, 66, 79
1, 11014, Note_off_c, 0, 63, 63
1, 11071, Note_off_c, 0, 66, 64
1, 11089, Note_on_c, 0, 56, 77
1, 11133, Note_on_c, 0, 81, 90
1, 11134, Note_on_c, 0, 69, 87
1, 11140, Note_off_c, 0, 56, 63
1, 11199, Note_off_c, 0, 81, 66
1, 11206, Note_off_c, 0, 69, 63
1, 11217, Note_on_c, 0, 75, 66
1, 11232, Note_on_c, 0, 72, 58
1, 11264, Note_off_c, 0, 72, 65
1, 11286, Note_on_c, 0, 68, 84
1, 11290, Note_on_c, 0, 80, 79
1, 11294, Note_off_c, 0, 75, 62
1, 11310, Note_off_c, 0, 68, 69
1, 11340, Control_c, 0, 64, 99
1, 11349, Note_off_c, 0, 80, 64
1, 11354, Control_c, 0, 64, 72
1, 11361, Note_on_c, 0, 64, 72
1, 11363, Note_on_c, 0, 73, 82
1, 11369, Control_c, 0, 64, 0
1, 11399, Control_c, 0, 64, 63
1, 11414, Control_c, 0, 64, 75
1, 11424, Note_off_c, 0, 73, 66
1, 11428, Control_c, 0, 64, 99
1, 11443, Control_c, 0, 64, 127
1, 11456, Note_on_c, 0, 68, 76
1, 11460, Note_off_c, 0, 64, 63
1, 11506, Note_off_c, 0, 68, 64
1, 11526, Note_on_c, 0, 58, 74
1, 11543, Note_off_c, 0, 58, 68
1, 11554, Note_on_c, 0, 57, 50
1, 11581, Note_off_c, 0, 57, 52
1, 11596, Note_on_c, 0, 79, 86
1, 11598, Note_on_c, 0, 67, 87
1, 11679, Note_off_c, 0, 79, 62
1, 11680, Note_off_c, 0, 67, 64
1, 11691, Note_on_c, 0, 76, 63
1, 11695, Note_on_c, 0, 73, 65
1, 11756, Note_off_c, 0, 73, 58
1, 11761, Note_off_c, 0, 76, 63
1, 11764, Note_on_c, 0, 80, 85
1, 11767, Note_on_c, 0, 68, 79
1, 11787, Note_off_c, 0, 68, 73
1, 11813, Note_off_c, 0, 80, 66
1, 11888, Control_c, 0, 64, 88
1, 11902, Control_c, 0, 64, 65
1, 11917, Control_c, 0, 64, 0
1, 11924, Note_on_c, 0, 80, 98
1, 11924, Note_on_c, 0, 92, 95
1, 11932, Control_c, 0, 64, 37
1, 11944, Note_off_c, 0, 80, 70
1, 11947, Control_c, 0, 64, 68
1, 11954, Note_off_c, 0, 92, 60
1, 11961, Control_c, 0, 64, 84
1, 11976, Control_c, 0, 64, 127
1, 12051, Note_on_c, 0, 44, 69
1, 12170, Note_off_c, 0, 44, 60
1, 12181, Note_on_c, 0, 88, 87
1, 12186, Note_on_c, 0, 76, 82
1, 12207, Note_on_c, 0, 52, 59
1, 12236, Note_off_c, 0, 76, 49
1, 12258, Note_off_c, 0, 88, 61
1, 12276, Note_on_c, 0, 56, 71
1, 12279, Note_off_c, 0, 52, 62
1, 12347, Note_off_c, 0, 56, 62
1, 12370, Note_on_c, 0, 60, 61
1, 12404, Note_on_c, 0, 85, 88
1, 12406, Note_on_c, 0, 73, 86
1, 12407, Note_off_c, 0, 60, 59
1, 12436, Note_off_c, 0, 73, 62
1, 12453, Note_off_c, 0, 85, 64
1, 12466, Note_on_c, 0, 61, 66
1, 12547, Control_c, 0, 64, 85
1, 12562, Control_c, 0, 64, 63
1, 12570, Note_on_c, 0, 64, 74
1, 12577, Control_c, 0, 64, 0
1, 12578, Note_on_c, 0, 73, 84
1, 12592, Control_c, 0, 64, 51
1, 12595, Note_off_c, 0, 61, 40
1, 12607, Control_c, 0, 64, 69
1, 12620, Note_off_c, 0, 73, 65
1, 12621, Control_c, 0, 64, 84
1, 12636, Control_c, 0, 64, 127
1, 12648, Note_off_c, 0, 64, 65
1, 12651, Note_on_c, 0, 68, 71
1, 12678, Note_off_c, 0, 68, 69
1, 12690, Note_on_c, 0, 75, 29
1, 12720, Poly_aftertouch_c, 0, 72, 0
1, 12738, Note_on_c, 0, 56, 80
1, 12770, Note_off_c, 0, 75, 54
1, 12794, Note_on_c, 0, 79, 87
1, 12800, Note_on_c, 0, 67, 84
1, 12801, Note_off_c, 0, 56, 64
1, 12870, Note_off_c, 0, 79, 64
1, 12878, Note_off_c, 0, 67, 62
1, 12889, Note_on_c, 0, 73, 66
1, 12896, Note_on_c, 0, 76, 59
1, 12931, Note_off_c, 0, 76, 62
1, 12952, Note_on_c, 0, 68, 85
1, 12953, Note_on_c, 0, 80, 82
1, 12964, Note_off_c, 0, 73, 61
1, 12991, Note_off_c, 0, 68, 57
1, 13000, Control_c, 0, 64, 87
1, 13003, Note_off_c, 0, 80, 64
1, 13009, Note_on_c, 0, 72, 91
1, 13015, Control_c, 0, 64, 60
1, 13022, Note_on_c, 0, 63, 68
1, 13030, Control_c, 0, 64, 0
1, 13045, Control_c, 0, 64, 42
1, 13060, Control_c, 0, 64, 72
1, 13074, Control_c, 0, 64, 98
1, 13086, Note_off_c, 0, 72, 63
1, 13089, Control_c, 0, 64, 127
1, 13109, Note_on_c, 0, 66, 81
1, 13143, Note_off_c, 0, 63, 59
1, 13171, Note_off_c, 0, 66, 66
1, 13180, Note_on_c, 0, 56, 80
1, 13230, Note_off_c, 0, 56, 63
1, 13252, Note_on_c, 0, 81, 100
1, 13255, Note_on_c, 0, 69, 92
1, 13433, Note_off_c, 0, 81, 60
1, 13440, Note_off_c, 0, 69, 57
1, 13453, Note_on_c, 0, 75, 53
1, 13465, Note_on_c, 0, 72, 49
1, 13587, Note_off_c, 0, 75, 63
1, 13594, Note_off_c, 0, 72, 64
1, 13611, Note_on_c, 0, 68, 85
1, 13611, Note_on_c, 0, 80, 85
1, 13632, Note_off_c, 0, 68, 71
1, 13662, Note_off_c, 0, 80, 63
1, 13731, Note_on_c, 0, 47, 71
1, 13816, Note_on_c, 0, 53, 62
1, 13865, Note_on_c, 0, 56, 81
1, 13868, Control_c, 0, 64, 89
1, 13876, Note_off_c, 0, 47, 62
1, 13883, Control_c, 0, 64, 64
1, 13897, Control_c, 0, 64, 0
1, 13924, Note_off_c, 0, 53, 62
1, 13925, Note_on_c, 0, 62, 95
1, 13925, Note_on_c, 0, 80, 101
1, 13927, Note_on_c, 0, 92, 94
1, 13927, Control_c, 0, 64, 65
1, 13935, Note_on_c, 0, 86, 86
1, 13942, Control_c, 0, 64, 100
1, 13946, Note_off_c, 0, 56, 65
1, 13954, Note_off_c, 0, 86, 70
1, 13957, Control_c, 0, 64, 127
1, 13963, Note_off_c, 0, 80, 66
1, 13967, Note_on_c, 0, 90, 34
1, 13968, Note_off_c, 0, 90, 127
1, 13968, Note_off_c, 0, 62, 64
1, 13968, Note_off_c, 0, 92, 66
1, 14332, Note_on_c, 0, 68, 67
1, 14338, Note_on_c, 0, 77, 76
1, 14379, Control_c, 0, 64, 111
1, 14394, Control_c, 0, 64, 87
1, 14395, Note_off_c, 0, 68, 62
1, 14395, Note_off_c, 0, 77, 60
1, 14399, Note_on_c, 0, 71, 65
1, 14409, Control_c, 0, 64, 69
1, 14410, Note_on_c, 0, 79, 51
1, 14423, Control_c, 0, 64, 0
1, 14431, Note_off_c, 0, 79, 57
1, 14454, Note_off_c, 0, 71, 58
1, 14469, Note_on_c, 0, 77, 75
1, 14476, Note_on_c, 0, 68, 64
1, 14519, Note_off_c, 0, 68, 58
1, 14525, Note_off_c, 0, 77, 63
1, 14536, Note_on_c, 0, 76, 78
1, 14541, Note_on_c, 0, 67, 75
1, 14575, Note_off_c, 0, 67, 63
1, 14589, Note_off_c, 0, 76, 64
1, 14610, Note_on_c, 0, 77, 76
1, 14613, Note_on_c, 0, 68, 77
1, 14660, Note_off_c, 0, 68, 56
1, 14663, Note_off_c, 0, 77, 61
1, 14666, Note_on_c, 0, 67, 81
1, 14668, Note_on_c, 0, 76, 77
1, 14689, Note_off_c, 0, 67, 67
1, 14720, Note_off_c, 0, 76, 63
1, 14735, Note_on_c, 0, 77, 83
1, 14745, Note_on_c, 0, 68, 73
1, 14773, Note_off_c, 0, 68, 67
1, 14786, Note_off_c, 0, 77, 63
1, 14791, Note_on_c, 0, 71, 73
1, 14792, Note_on_c, 0, 79, 75
1, 14817, Note_off_c, 0, 79, 66
1, 14839, Control_c, 0, 64, 57
1, 14848, Note_on_c, 0, 77, 82
1, 14850, Note_on_c, 0, 68, 93
1, 14850, Note_off_c, 0, 71, 52
1, 14854, Control_c, 0, 64, 72
1, 14869, Control_c, 0, 64, 92
1, 14869, Note_off_c, 0, 77, 70
1, 14884, Control_c, 0, 64, 127
1, 14896, Note_on_c, 0, 71, 85
1, 14902, Note_on_c, 0, 80, 94
1, 14902, Note_off_c, 0, 68, 69
1, 14926, Note_off_c, 0, 71, 67
1, 14939, Note_off_c, 0, 80, 67
1, 15184, Note_on_c, 0, 35, 81
1, 15184, Note_on_c, 0, 47, 92
1, 15188, Note_on_c, 0, 41, 82
1, 15190, Note_on_c, 0, 53, 84
1, 15231, Note_on_c, 0, 36, 23
1, 15265, Note_off_c, 0, 53, 60
1, 15266, Note_on_c, 0, 55, 80
1, 15273, Note_off_c, 0, 35, 55
1, 15277, Poly_aftertouch_c, 0, 44, 127
1, 15283, Note_off_c, 0, 36, 46
1, 15291, Note_off_c, 0, 47, 59
1, 15317, Note_off_c, 0, 41, 0
1, 15328, Note_off_c, 0, 55, 63
1, 15343, Note_on_c, 0, 53, 76
1, 15354, Poly_aftertouch_c, 0, 41, 127
1, 15357, Poly_aftertouch_c, 0, 44, 0
1, 15393, Note_off_c, 0, 53, 60
1, 15411, Poly_aftertouch_c, 0, 41, 0
1, 15424, Note_on_c, 0, 41, 62
1, 15428, Note_on_c, 0, 47, 95
1, 15431, Note_on_c, 0, 35, 84
1, 15435, Note_on_c, 0, 65, 83
1, 15475, Note_on_c, 0, 44, 37
1, 15475, Note_on_c, 0, 67, 77
1, 15485, Note_off_c, 0, 65, 66
1, 15486, Note_on_c, 0, 38, 8
1, 15511, Note_off_c, 0, 67, 63
1, 15516, Note_off_c, 0, 47, 57
1, 15532, Note_off_c, 0, 35, 57
1, 15540, Note_off_c, 0, 44, 39
1, 15543, Poly_aftertouch_c, 0, 40, 0
1, 15547, Note_off_c, 0, 38, 44
1, 15556, Note_on_c, 0, 65, 84
1, 15600, Note_off_c, 0, 65, 63
1, 15607, Note_off_c, 0, 41, 0
1, 15633, Note_on_c, 0, 77, 87
1, 15634, Note_on_c, 0, 35, 85
1, 15636, Note_on_c, 0, 47, 90
1, 15644, Poly_aftertouch_c, 0, 41, 127
1, 15677, Note_on_c, 0, 79, 77
1, 15683, Note_off_c, 0, 77, 65
1, 15705, Note_off_c, 0, 79, 66
1, 15710, Note_off_c, 0, 35, 61
1, 15722, Poly_aftertouch_c, 0, 38, 127
1, 15745, Note_off_c, 0, 47, 58
1, 15757, Poly_aftertouch_c, 0, 38, 0
1, 15762, Note_on_c, 0, 77, 71
1, 15765, Control_c, 0, 64, 102
1, 15780, Control_c, 0, 64, 73
1, 15787, Note_off_c, 0, 77, 65
1, 15794, Control_c, 0, 64, 0
1, 15850, Note_on_c, 0, 92, 115
1, 15850, Note_on_c, 0, 36, 77
1, 15850, Note_on_c, 0, 48, 94
1, 15861, Control_c, 0, 64, 74
1, 15876, Control_c, 0, 64, 127
1, 15879, Poly_aftertouch_c, 0, 41, 0
1, 15881, Note_off_c, 0, 36, 64
1, 15881, Note_off_c, 0, 92, 64
1, 15891, Note_off_c, 0, 48, 65
1, 16062, Note_on_c, 0, 75, 38
1, 16094, Note_off_c, 0, 75, 53
1, 16112, Note_on_c, 0, 77, 79
1, 16126, Note_on_c, 0, 68, 73
1, 16175, Note_off_c, 0, 68, 60
1, 16176, Note_off_c, 0, 77, 63
1, 16188, Control_c, 0, 64, 124
1, 16189, Note_on_c, 0, 70, 84
1, 16203, Control_c, 0, 64, 95
1, 16211, Note_on_c, 0, 79, 48
1, 16217, Note_off_c, 0, 70, 56
1, 16217, Control_c, 0, 64, 76
1, 16232, Control_c, 0, 64, 0
1, 16235, Note_off_c, 0, 79, 40
1, 16240, Note_on_c, 0, 77, 82
1, 16260, Note_on_c, 0, 69, 56
1, 16290, Note_off_c, 0, 69, 66
1, 16306, Note_off_c, 0, 77, 63
1, 16310, Note_on_c, 0, 76, 81
1, 16315, Note_on_c, 0, 67, 75
1, 16330, Note_off_c, 0, 67, 46
1, 16341, Note_off_c, 0, 76, 55
1, 16362, Note_on_c, 0, 77, 80
1, 16369, Note_on_c, 0, 68, 79
1, 16423, Note_on_c, 0, 67, 81
1, 16424, Note_off_c, 0, 68, 65
1, 16428, Note_on_c, 0, 76, 83
1, 16431, Note_off_c, 0, 77, 63
1, 16453, Note_off_c, 0, 67, 61
1, 16489, Note_off_c, 0, 76, 61
1, 16491, Note_on_c, 0, 77, 85
1, 16494, Note_on_c, 0, 68, 81
1, 16545, Note_on_c, 0, 70, 83
1, 16549, Note_off_c, 0, 68, 64
1, 16552, Note_off_c, 0, 77, 62
1, 16559, Note_on_c, 0, 79, 77
1, 16589, Note_off_c, 0, 79, 67
1, 16609, Note_off_c, 0, 70, 64
1, 16611, Control_c, 0, 64, 56
1, 16612, Note_on_c, 0, 77, 84
1, 16615, Note_on_c, 0, 68, 78
1, 16625, Control_c, 0, 64, 73
1, 16640, Control_c, 0, 64, 90
1, 16646, Note_off_c, 0, 77, 64
1, 16655, Control_c, 0, 64, 127
1, 16666, Note_on_c, 0, 72, 94
1, 16670, Note_on_c, 0, 80, 93
1, 16673, Note_off_c, 0, 68, 68
1, 16696, Note_off_c, 0, 72, 64
1, 16709, Note_off_c, 0, 80, 64
1, 16913, Poly_aftertouch_c, 0, 42, 127
1, 16947, Note_on_c, 0, 48, 94
1, 16948, Note_on_c, 0, 36, 82
1, 16956, Note_on_c, 0, 44, 77
1, 16958, Note_on_c, 0, 53, 72
1, 16964, Note_on_c, 0, 41, 68
1, 17015, Poly_aftertouch_c, 0, 42, 0
1, 17026, Note_on_c, 0, 55, 79
1, 17026, Note_off_c, 0, 53, 61
1, 17028, Note_off_c, 0, 36, 62
1, 17034, Note_off_c, 0, 48, 58
1, 17080, Note_off_c, 0, 44, 0
1, 17093, Note_off_c, 0, 55, 63
1, 17096, Note_off_c, 0, 41, 0
1, 17103, Note_on_c, 0, 53, 76
1, 17117, Poly_aftertouch_c, 0, 44, 127
1, 17120, Note_on_c, 0, 44, 3
1, 17133, Poly_aftertouch_c, 0, 41, 127
1, 17155, Note_off_c, 0, 53, 63
1, 17161, Note_off_c, 0, 44, 45
1, 17165, Poly_aftertouch_c, 0, 41, 0
1, 17182, Note_on_c, 0, 41, 43
1, 17188, Note_on_c, 0, 48, 100
1, 17192, Note_on_c, 0, 65, 79
1, 17195, Note_on_c, 0, 36, 80
1, 17195, Note_on_c, 0, 44, 70
1, 17242, Note_on_c, 0, 67, 76
1, 17245, Note_off_c, 0, 65, 64
1, 17272, Note_off_c, 0, 41, 61
1, 17278, Poly_aftertouch_c, 0, 40, 127
1, 17285, Note_off_c, 0, 36, 59
1, 17288, Note_off_c, 0, 48, 59
1, 17289, Note_off_c, 0, 67, 62
1, 17324, Poly_aftertouch_c, 0, 40, 0
1, 17335, Note_on_c, 0, 65, 81
1, 17375, Note_off_c, 0, 44, 58
1, 17376, Note_off_c, 0, 65, 60
1, 17417, Note_on_c, 0, 77, 83
1, 17420, Poly_aftertouch_c, 0, 44, 0
1, 17421, Note_on_c, 0, 48, 94
1, 17424, Note_on_c, 0, 41, 75
1, 17427, Note_on_c, 0, 44, 62
1, 17436, Note_on_c, 0, 36, 65
1, 17461, Note_off_c, 0, 36, 62
1, 17467, Note_on_c, 0, 79, 76
1, 17472, Note_off_c, 0, 77, 64
1, 17487, Note_off_c, 0, 48, 61
1, 17501, Note_off_c, 0, 79, 64
1, 17525, Note_off_c, 0, 44, 52
1, 17552, Note_on_c, 0, 77, 81
1, 17573, Note_off_c, 0, 77, 67
1, 17582, Control_c, 0, 64, 93
1, 17588, Note_off_c, 0, 41, 0
1, 17597, Control_c, 0, 64, 68
1, 17612, Control_c, 0, 64, 0
1, 17624, Poly_aftertouch_c, 0, 41, 127
1, 17682, Poly_aftertouch_c, 0, 41, 0
1, 17683, Note_on_c, 0, 92, 110
1, 17686, Control_c, 0, 64, 66
1, 17689, Note_on_c, 0, 49, 96
1, 17698, Note_on_c, 0, 37, 69
1, 17701, Control_c, 0, 64, 85
1, 17716, Control_c, 0, 64, 127
1, 17722, Note_off_c, 0, 92, 64
1, 17729, Note_off_c, 0, 37, 64
1, 17746, Note_off_c, 0, 49, 65
1, 18079, Control_c, 0, 64, 103
1, 18085, Note_on_c, 0, 61, 78
1, 18088, Note_on_c, 0, 68, 76
1, 18094, Control_c, 0, 64, 75
1, 18095, Note_on_c, 0, 77, 89
1, 18097, Note_on_c, 0, 71, 68
1, 18109, Control_c, 0, 64, 0
1, 18153, Control_c, 0, 64, 48
1, 18168, Control_c, 0, 64, 71
1, 18169, Note_off_c, 0, 71, 63
1, 18183, Control_c, 0, 64, 93
1, 18197, Control_c, 0, 64, 127
1, 18240, Note_off_c, 0, 68, 61
1, 18247, Note_on_c, 0, 87, 13
1, 18249, Note_off_c, 0, 77, 57
1, 18290, Note_off_c, 0, 87, 39
1, 18297, Note_on_c, 0, 90, 91
1, 18348, Note_off_c, 0, 90, 68
1, 18387, Note_on_c, 0, 73, 82
1, 18464, Note_on_c, 0, 89, 98
1, 18587, Note_on_c, 0, 87, 90
1, 18587, Note_off_c, 0, 89, 46
1, 18593, Note_off_c, 0, 73, 64
1, 18605, Note_on_c, 0, 66, 67
1, 18610, Note_on_c, 0, 70, 62
1, 18679, Note_off_c, 0, 87, 64
1, 18706, Note_on_c, 0, 77, 69
1, 18718, Note_off_c, 0, 70, 54
1, 18772, Note_off_c, 0, 77, 59
1, 18780, Note_on_c, 0, 71, 52
1, 18808, Note_on_c, 0, 75, 79
1, 18857, Control_c, 0, 64, 89
1, 18871, Control_c, 0, 64, 68
1, 18886, Control_c, 0, 64, 43
1, 18887, Note_off_c, 0, 75, 59
1, 18897, Note_on_c, 0, 65, 59
1, 18897, Note_off_c, 0, 71, 61
1, 18901, Control_c, 0, 64, 61
1, 18906, Note_on_c, 0, 73, 83
1, 18908, Note_off_c, 0, 66, 56
1, 18916, Control_c, 0, 64, 71
1, 18927, Note_on_c, 0, 68, 62
1, 18931, Control_c, 0, 64, 93
1, 18945, Control_c, 0, 64, 127
1, 18967, Note_off_c, 0, 73, 64
1, 19007, Note_off_c, 0, 65, 61
1, 19007, Note_on_c, 0, 87, 83
1, 19047, Note_off_c, 0, 68, 61
1, 19068, Note_on_c, 0, 70, 56
1, 19088, Note_on_c, 0, 85, 72
1, 19138, Note_off_c, 0, 87, 65
1, 19147, Note_on_c, 0, 83, 79
1, 19162, Note_off_c, 0, 61, 58
1, 19170, Note_off_c, 0, 70, 62
1, 19184, Note_on_c, 0, 63, 51
1, 19199, Note_off_c, 0, 85, 64
1, 19206, Note_on_c, 0, 66, 52
1, 19206, Note_off_c, 0, 83, 68
1, 19224, Note_on_c, 0, 73, 76
1, 19246, Note_off_c, 0, 73, 70
1, 19250, Note_off_c, 0, 66, 63
1, 19257, Note_off_c, 0, 63, 62
1, 19295, Note_on_c, 0, 68, 61
1, 19307, Note_on_c, 0, 71, 52
1, 19320, Note_on_c, 0, 72, 67
1, 19331, Control_c, 0, 64, 118
1, 19346, Control_c, 0, 64, 84
1, 19347, Note_off_c, 0, 68, 58
1, 19349, Note_off_c, 0, 71, 66
1, 19350, Note_off_c, 0, 72, 64
1, 19361, Control_c, 0, 64, 65
1, 19373, Note_on_c, 0, 65, 46
1, 19376, Control_c, 0, 64, 43
1, 19378, Note_on_c, 0, 70, 79
1, 19391, Control_c, 0, 64, 62
1, 19391, Note_on_c, 0, 61, 59
1, 19406, Control_c, 0, 64, 69
1, 19420, Control_c, 0, 64, 83
1, 19431, Note_off_c, 0, 70, 63
1, 19435, Control_c, 0, 64, 101
1, 19450, Control_c, 0, 64, 127
1, 19451, Note_off_c, 0, 65, 60
1, 19456, Note_on_c, 0, 83, 76
1, 19501, Note_on_c, 0, 66, 63
1, 19506, Note_off_c, 0, 61, 61
1, 19521, Note_on_c, 0, 82, 69
1, 19571, Note_off_c, 0, 83, 58
1, 19603, Note_on_c, 0, 80, 79
1, 19605, Note_off_c, 0, 66, 58
1, 19612, Note_on_c, 0, 63, 56
1, 19621, Note_on_c, 0, 59, 43
1, 19650, Note_off_c, 0, 82, 64
1, 19671, Note_off_c, 0, 80, 65
1, 19683, Note_on_c, 0, 70, 75
1, 19692, Note_off_c, 0, 59, 57
1, 19705, Note_off_c, 0, 63, 60
1, 19734, Note_off_c, 0, 70, 62
1, 19740, Note_on_c, 0, 65, 54
1, 19747, Note_on_c, 0, 68, 77
1, 19798, Control_c, 0, 64, 96
1, 19812, Control_c, 0, 64, 74
1, 19813, Note_off_c, 0, 68, 65
1, 19823, Note_off_c, 0, 65, 64
1, 19827, Control_c, 0, 64, 41
1, 19832, Note_on_c, 0, 66, 78
1, 19842, Control_c, 0, 64, 41
1, 19845, Note_on_c, 0, 61, 53
1, 19846, Note_on_c, 0, 58, 49
1, 19857, Control_c, 0, 64, 62
1, 19872, Control_c, 0, 64, 69
1, 19886, Control_c, 0, 64, 79
1, 19901, Control_c, 0, 64, 95
1, 19916, Control_c, 0, 64, 124
1, 19919, Note_off_c, 0, 66, 41
1, 19919, Note_on_c, 0, 80, 68
1, 19931, Note_off_c, 0, 58, 62
1, 19931, Control_c, 0, 64, 127
1, 19943, Note_off_c, 0, 61, 51
1, 19954, Note_off_c, 0, 80, 59
1, 19960, Note_on_c, 0, 63, 59
1, 19987, Note_on_c, 0, 79, 46
1, 20010, Note_on_c, 0, 78, 66
1, 20013, Note_off_c, 0, 79, 53
1, 20079, Note_on_c, 0, 59, 48
1, 20085, Note_on_c, 0, 56, 57
1, 20101, Note_on_c, 0, 77, 65
1, 20114, Note_off_c, 0, 78, 64
1, 20127, Note_off_c, 0, 63, 36
1, 20130, Note_off_c, 0, 59, 56
1, 20173, Note_off_c, 0, 56, 64
1, 20187, Note_off_c, 0, 77, 63
1, 20210, Note_on_c, 0, 66, 76
1, 20317, Note_on_c, 0, 65, 68
1, 20331, Note_off_c, 0, 66, 59
1, 20379, Note_off_c, 0, 65, 65
1, 20427, Note_on_c, 0, 49, 56
1, 20429, Control_c, 0, 64, 93
1, 20431, Note_on_c, 0, 58, 59
1, 20434, Note_on_c, 0, 55, 47
1, 20443, Control_c, 0, 64, 72
1, 20446, Note_on_c, 0, 64, 69
1, 20458, Control_c, 0, 64, 53
1, 20473, Control_c, 0, 64, 54
1, 20482, Note_off_c, 0, 55, 61
1, 20488, Control_c, 0, 64, 65
1, 20503, Control_c, 0, 64, 72
1, 20518, Control_c, 0, 64, 88
1, 20532, Note_on_c, 0, 75, 69
1, 20533, Note_off_c, 0, 64, 63
1, 20533, Control_c, 0, 64, 111
1, 20548, Control_c, 0, 64, 127
1, 20571, Note_off_c, 0, 58, 62
1, 20583, Note_on_c, 0, 76, 61
1, 20619, Note_off_c, 0, 75, 60
1, 20637, Note_off_c, 0, 76, 62
1, 20663, Note_on_c, 0, 65, 76
1, 20673, Note_on_c, 0, 56, 58
1, 20675, Note_on_c, 0, 59, 50
1, 20687, Note_off_c, 0, 49, 60
1, 20691, Note_off_c, 0, 65, 69
1, 20699, Note_off_c, 0, 59, 57
1, 20701, Note_off_c, 0, 56, 65
1, 20740, Note_on_c, 0, 79, 77
1, 20817, Note_on_c, 0, 77, 70
1, 20840, Note_off_c, 0, 79, 59
1, 20851, Note_off_c, 0, 77, 65
1, 20874, Control_c, 0, 64, 102
1, 20889, Control_c, 0, 64, 79
1, 20904, Control_c, 0, 64, 63
1, 20910, Note_on_c, 0, 37, 69
1, 20919, Note_on_c, 0, 59, 74
1, 20919, Control_c, 0, 64, 46
1, 20933, Control_c, 0, 64, 62
1, 20948, Control_c, 0, 64, 68
1, 20963, Control_c, 0, 64, 78
1, 20978, Control_c, 0, 64, 97
1, 20983, Note_off_c, 0, 37, 63
1, 20992, Control_c, 0, 64, 127
1, 21026, Note_on_c, 0, 70, 71
1, 21043, Note_off_c, 0, 59, 59
1, 21105, Note_on_c, 0, 53, 7
1, 21131, Note_off_c, 0, 70, 62
1, 21134, Note_on_c, 0, 71, 63
1, 21150, Note_off_c, 0, 53, 37
1, 21180, Note_off_c, 0, 71, 60
1, 21183, Note_on_c, 0, 36, 74
1, 21192, Control_c, 0, 64, 110
1, 21192, Control_c, 0, 67, 11
1, 21207, Control_c, 0, 64, 81
1, 21207, Control_c, 0, 67, 18
1, 21222, Control_c, 0, 64, 0
1, 21222, Control_c, 0, 67, 29
1, 21237, Control_c, 0, 67, 47
1, 21248, Note_off_c, 0, 36, 64
1, 21252, Control_c, 0, 67, 71
1, 21266, Control_c, 0, 64, 58
1, 21266, Control_c, 0, 67, 101
1, 21274, Note_on_c, 0, 72, 82
1, 21279, Note_on_c, 0, 60, 76
1, 21281, Control_c, 0, 64, 70
1, 21281, Control_c, 0, 67, 125
1, 21284, Note_on_c, 0, 52, 78
1, 21296, Control_c, 0, 64, 83
1, 21296, Control_c, 0, 67, 127
1, 21304, Note_off_c, 0, 60, 68
1, 21311, Control_c, 0, 64, 99
1, 21312, Note_on_c, 0, 71, 31
1, 21314, Note_off_c, 0, 72, 64
1, 21316, Note_off_c, 0, 52, 64
1, 21326, Control_c, 0, 64, 111
1, 21341, Control_c, 0, 64, 120
1, 21343, Note_off_c, 0, 71, 57
1, 21356, Control_c, 0, 64, 127
1, 21522, Note_on_c, 0, 68, 57
1, 21560, Note_off_c, 0, 68, 64
1, 21642, Note_on_c, 0, 68, 66
1, 21644, Note_on_c, 0, 73, 65
1, 21649, Note_on_c, 0, 65, 59
1, 21682, Control_c, 0, 64, 101
1, 21690, Note_off_c, 0, 65, 59
1, 21697, Control_c, 0, 64, 88
1, 21710, Note_off_c, 0, 68, 59
1, 21711, Note_off_c, 0, 73, 62
1, 21712, Control_c, 0, 64, 73
1, 21717, Note_on_c, 0, 75, 57
1, 21722, Note_on_c, 0, 70, 59
1, 21727, Control_c, 0, 64, 63
1, 21728, Note_on_c, 0, 67, 53
1, 21742, Control_c, 0, 64, 31
1, 21744, Note_off_c, 0, 75, 58
1, 21751, Note_off_c, 0, 67, 60
1, 21753, Note_off_c, 0, 70, 64
1, 21756, Control_c, 0, 64, 0
1, 21784, Note_on_c, 0, 73, 66
1, 21788, Note_on_c, 0, 65, 57
1, 21793, Note_on_c, 0, 68, 60
1, 21831, Note_off_c, 0, 65, 64
1, 21853, Note_off_c, 0, 68, 55
1, 21859, Note_off_c, 0, 73, 56
1, 21871, Note_on_c, 0, 72, 77
1, 21889, Note_on_c, 0, 64, 39
1, 21907, Note_off_c, 0, 72, 55
1, 21918, Note_off_c, 0, 64, 36
1, 21932, Note_on_c, 0, 65, 42
1, 21942, Note_on_c, 0, 73, 65
1, 21946, Note_on_c, 0, 68, 67
1, 21974, Note_off_c, 0, 73, 68
1, 21976, Note_off_c, 0, 65, 64
1, 21988, Note_off_c, 0, 68, 63
1, 22011, Note_on_c, 0, 64, 65
1, 22012, Note_on_c, 0, 72, 73
1, 22045, Note_off_c, 0, 64, 66
1, 22051, Note_off_c, 0, 72, 58
1, 22066, Note_on_c, 0, 70, 65
1, 22077, Note_on_c, 0, 65, 66
1, 22082, Note_on_c, 0, 61, 68
1, 22136, Note_off_c, 0, 70, 63
1, 22139, Note_off_c, 0, 65, 65
1, 22142, Note_off_c, 0, 61, 60
1, 22149, Note_on_c, 0, 72, 74
1, 22150, Note_on_c, 0, 64, 69
1, 22175, Note_off_c, 0, 72, 65
1, 22182, Note_off_c, 0, 64, 65
1, 22209, Note_on_c, 0, 70, 62
1, 22212, Note_on_c, 0, 65, 59
1, 22226, Note_on_c, 0, 61, 51
1, 22261, Note_off_c, 0, 61, 64
1, 22283, Note_off_c, 0, 65, 63
1, 22286, Note_off_c, 0, 70, 57
1, 22291, Note_on_c, 0, 68, 71
1, 22324, Note_on_c, 0, 60, 44
1, 22339, Note_off_c, 0, 68, 60
1, 22352, Note_off_c, 0, 60, 51
1, 22363, Note_on_c, 0, 61, 70
1, 22376, Note_on_c, 0, 65, 55
1, 22414, Note_off_c, 0, 65, 66
1, 22437, Note_off_c, 0, 61, 63
1, 22450, Note_on_c, 0, 60, 50
1, 22453, Note_on_c, 0, 68, 66
1, 22494, Note_off_c, 0, 60, 60
1, 22500, Note_off_c, 0, 68, 59
1, 22506, Note_on_c, 0, 67, 70
1, 22525, Note_on_c, 0, 61, 60
1, 22533, Note_on_c, 0, 58, 54
1, 22590, Note_off_c, 0, 58, 56
1, 22593, Note_off_c, 0, 61, 58
1, 22595, Note_off_c, 0, 67, 60
1, 22615, Note_on_c, 0, 68, 65
1, 22624, Note_on_c, 0, 60, 56
1, 22644, Note_off_c, 0, 68, 68
1, 22659, Note_off_c, 0, 60, 64
1, 22685, Note_on_c, 0, 67, 61
1, 22698, Note_on_c, 0, 61, 50
1, 22711, Note_on_c, 0, 58, 52
1, 22723, Note_off_c, 0, 67, 66
1, 22732, Note_off_c, 0, 61, 62
1, 22745, Note_off_c, 0, 58, 66
1, 22777, Note_on_c, 0, 64, 69
1, 22855, Note_off_c, 0, 64, 60
1, 22876, Note_on_c, 0, 60, 43
1, 22888, Note_on_c, 0, 65, 48
1, 22888, Note_on_c, 0, 56, 56
1, 22917, Note_off_c, 0, 65, 55
1, 22930, Note_off_c, 0, 60, 56
1, 22938, Note_off_c, 0, 56, 62
1, 22965, Poly_aftertouch_c, 0, 64, 0
1, 22981, Note_on_c, 0, 55, 55
1, 22986, Note_on_c, 0, 64, 42
1, 23051, Note_off_c, 0, 64, 58
1, 23090, Note_off_c, 0, 55, 0
1, 23111, Note_on_c, 0, 55, 28
1, 23112, Note_on_c, 0, 60, 61
1, 23116, Note_on_c, 0, 52, 50
1, 23285, Note_off_c, 0, 55, 48
1, 23292, Note_off_c, 0, 52, 53
1, 23294, Note_on_c, 0, 61, 48
1, 23295, Note_off_c, 0, 60, 51
1, 23320, Note_on_c, 0, 53, 45
1, 23328, Note_on_c, 0, 56, 45
1, 23529, Note_off_c, 0, 53, 54
1, 23540, Note_off_c, 0, 61, 53
1, 23544, Note_off_c, 0, 56, 55
1, 23558, Control_c, 0, 64, 22
1, 23562, Note_on_c, 0, 60, 47
1, 23568, Note_on_c, 0, 55, 42
1, 23573, Control_c, 0, 64, 34
1, 23577, Note_on_c, 0, 52, 37
1, 23587, Control_c, 0, 64, 41
1, 23602, Control_c, 0, 64, 46
1, 23617, Control_c, 0, 64, 54
1, 23632, Control_c, 0, 64, 61
1, 23647, Control_c, 0, 64, 64
1, 23661, Control_c, 0, 64, 67
1, 23676, Control_c, 0, 64, 71
1, 23691, Control_c, 0, 64, 77
1, 23705, Control_c, 0, 64, 82
1, 23720, Control_c, 0, 64, 86
1, 23735, Control_c, 0, 64, 91
1, 23750, Control_c, 0, 64, 95
1, 23765, Control_c, 0, 64, 100
1, 23766, Note_off_c, 0, 55, 56
1, 23779, Control_c, 0, 64, 105
1, 23782, Note_off_c, 0, 60, 58
1, 23794, Control_c, 0, 64, 112
1, 23809, Control_c, 0, 64, 127
1, 23821, Note_off_c, 0, 52, 50
1, 24290, Note_on_c, 0, 41, 45
1, 24291, Control_c, 0, 64, 121
1, 24306, Control_c, 0, 64, 96
1, 24321, Control_c, 0, 64, 77
1, 24335, Control_c, 0, 64, 65
1, 24350, Control_c, 0, 64, 47
1, 24365, Control_c, 0, 64, 48
1, 24380, Control_c, 0, 64, 59
1, 24395, Control_c, 0, 64, 64
1, 24409, Control_c, 0, 64, 68
1, 24424, Control_c, 0, 64, 75
1, 24439, Control_c, 0, 64, 84
1, 24454, Control_c, 0, 64, 94
1, 24469, Control_c, 0, 64, 100
1, 24483, Control_c, 0, 64, 107
1, 24498, Control_c, 0, 64, 115
1, 24513, Control_c, 0, 64, 127
1, 24631, Note_off_c, 0, 41, 41
1, 24658, Note_on_c, 0, 48, 42
1, 24748, Note_off_c, 0, 48, 59
1, 24777, Note_on_c, 0, 56, 49
1, 24812, Note_on_c, 0, 83, 60
1, 24817, Note_on_c, 0, 71, 48
1, 24852, Note_off_c, 0, 56, 51
1, 24955, Note_off_c, 0, 71, 55
1, 24959, Note_on_c, 0, 56, 24
1, 25007, Note_off_c, 0, 56, 47
1, 25066, Note_on_c, 0, 65, 43
1, 25159, Note_off_c, 0, 65, 55
1, 25161, Note_on_c, 0, 60, 55
1, 25192, Note_off_c, 0, 60, 64
1, 25246, Note_off_c, 0, 83, 66
1, 25265, Note_on_c, 0, 84, 59
1, 25272, Note_on_c, 0, 72, 53
1, 25336, Control_c, 0, 64, 90
1, 25343, Note_off_c, 0, 72, 62
1, 25350, Control_c, 0, 64, 69
1, 25356, Note_off_c, 0, 84, 60
1, 25365, Control_c, 0, 64, 26
1, 25374, Note_on_c, 0, 41, 56
1, 25380, Control_c, 0, 64, 45
1, 25395, Control_c, 0, 64, 63
1, 25410, Control_c, 0, 64, 71
1, 25424, Control_c, 0, 64, 83
1, 25430, Note_off_c, 0, 41, 62
1, 25439, Control_c, 0, 64, 99
1, 25454, Control_c, 0, 64, 127
1, 25582, Note_on_c, 0, 52, 32
1, 25620, Note_off_c, 0, 52, 49
1, 25663, Poly_aftertouch_c, 0, 53, 0
1, 25666, Note_on_c, 0, 58, 57
1, 25675, Note_on_c, 0, 85, 78
1, 25681, Note_on_c, 0, 73, 67
1, 25694, Note_off_c, 0, 58, 64
1, 25788, Control_c, 0, 67, 126
1, 25790, Note_on_c, 0, 55, 51
1, 25803, Control_c, 0, 67, 114
1, 25818, Control_c, 0, 67, 101
1, 25833, Control_c, 0, 67, 88
1, 25848, Control_c, 0, 67, 74
1, 25862, Control_c, 0, 67, 61
1, 25877, Control_c, 0, 67, 48
1, 25892, Control_c, 0, 67, 36
1, 25906, Control_c, 0, 67, 23
1, 25908, Note_off_c, 0, 85, 56
1, 25921, Control_c, 0, 67, 12
1, 25926, Note_on_c, 0, 64, 42
1, 25936, Control_c, 0, 67, 0
1, 26027, Note_off_c, 0, 73, 37
1, 26039, Note_off_c, 0, 64, 51
1, 26041, Note_on_c, 0, 58, 52
1, 26053, Note_off_c, 0, 55, 43
1, 26110, Note_off_c, 0, 58, 62
1, 26229, Note_on_c, 0, 84, 58
1, 26239, Note_on_c, 0, 72, 55
1, 26294, Note_off_c, 0, 72, 60
1, 26319, Note_off_c, 0, 84, 63
1, 26381, Note_on_c, 0, 41, 57
1, 26433, Control_c, 0, 64, 98
1, 26448, Control_c, 0, 64, 80
1, 26463, Control_c, 0, 64, 66
1, 26477, Control_c, 0, 64, 53
1, 26492, Control_c, 0, 64, 60
1, 26507, Control_c, 0, 64, 65
1, 26522, Control_c, 0, 64, 69
1, 26526, Note_off_c, 0, 41, 60
1, 26536, Control_c, 0, 64, 75
1, 26545, Note_on_c, 0, 48, 56
1, 26551, Control_c, 0, 64, 85
1, 26566, Control_c, 0, 64, 94
1, 26581, Control_c, 0, 64, 100
1, 26596, Control_c, 0, 64, 106
1, 26607, Note_off_c, 0, 48, 57
1, 26611, Control_c, 0, 64, 119
1, 26626, Control_c, 0, 64, 127
1, 26638, Note_on_c, 0, 56, 62
1, 26653, Note_on_c, 0, 83, 71
1, 26662, Note_on_c, 0, 71, 60
1, 26665, Note_off_c, 0, 56, 66
1, 26683, Note_off_c, 0, 83, 64
1, 26686, Note_off_c, 0, 71, 64
1, 26736, Note_on_c, 0, 56, 59
1, 26745, Note_on_c, 0, 60, 56
1, 26798, Note_off_c, 0, 56, 62
1, 26799, Note_on_c, 0, 85, 72
1, 26799, Note_off_c, 0, 60, 47
1, 26802, Note_on_c, 0, 67, 65
1, 26805, Note_on_c, 0, 73, 62
1, 26834, Note_off_c, 0, 73, 66
1, 26846, Note_off_c, 0, 67, 53
1, 26860, Note_off_c, 0, 85, 60
1, 26862, Control_c, 0, 64, 126
1, 26862, Control_c, 0, 67, 11
1, 26877, Note_on_c, 0, 65, 51
1, 26878, Control_c, 0, 64, 84
1, 26878, Control_c, 0, 67, 23
1, 26893, Control_c, 0, 64, 63
1, 26893, Control_c, 0, 67, 42
1, 26908, Control_c, 0, 64, 0
1, 26908, Control_c, 0, 67, 66
1, 26915, Note_off_c, 0, 65, 52
1, 26923, Note_on_c, 0, 84, 71
1, 26923, Control_c, 0, 64, 44
1, 26923, Control_c, 0, 67, 99
1, 26926, Note_on_c, 0, 55, 55
1, 26936, Note_on_c, 0, 58, 40
1, 26937, Control_c, 0, 64, 64
1, 26937, Control_c, 0, 67, 127
1, 26938, Note_on_c, 0, 72, 50
1, 26952, Control_c, 0, 64, 71
1, 26966, Note_off_c, 0, 72, 53
1, 26967, Control_c, 0, 64, 83
1, 26970, Note_off_c, 0, 84, 59
1, 26982, Control_c, 0, 64, 99
1, 26997, Control_c, 0, 64, 122
1, 27010, Note_on_c, 0, 65, 56
1, 27011, Control_c, 0, 64, 127
1, 27096, Note_off_c, 0, 55, 48
1, 27112, Note_off_c, 0, 65, 57
1, 27124, Note_off_c, 0, 58, 36
1, 27125, Note_on_c, 0, 92, 73
1, 27131, Note_on_c, 0, 63, 53
1, 27135, Note_on_c, 0, 80, 64
1, 27153, Note_off_c, 0, 80, 65
1, 27155, Note_off_c, 0, 92, 60
1, 27201, Note_off_c, 0, 63, 64
1, 27227, Note_on_c, 0, 53, 56
1, 27257, Note_on_c, 0, 56, 46
1, 27344, Note_off_c, 0, 53, 56
1, 27355, Note_on_c, 0, 63, 52
1, 27372, Note_on_c, 0, 89, 70
1, 27374, Note_off_c, 0, 56, 58
1, 27383, Note_on_c, 0, 77, 56
1, 27401, Note_off_c, 0, 89, 69
1, 27413, Note_off_c, 0, 77, 60
1, 27471, Note_off_c, 0, 63, 59
1, 27474, Note_on_c, 0, 61, 52
1, 27539, Note_off_c, 0, 61, 62
1, 27558, Note_on_c, 0, 55, 48
1, 27579, Note_on_c, 0, 51, 50
1, 27658, Note_on_c, 0, 61, 59
1, 27685, Note_off_c, 0, 51, 60
1, 27700, Note_on_c, 0, 60, 64
1, 27720, Note_off_c, 0, 61, 60
1, 27752, Note_off_c, 0, 60, 59
1, 27777, Note_off_c, 0, 55, 24
1, 27779, Note_on_c, 0, 49, 68
1, 27786, Note_on_c, 0, 53, 45
1, 27846, Note_on_c, 0, 60, 68
1, 27856, Note_off_c, 0, 53, 59
1, 27868, Note_off_c, 0, 49, 62
1, 27872, Control_c, 0, 64, 103
1, 27886, Control_c, 0, 64, 84
1, 27901, Control_c, 0, 64, 66
1, 27911, Note_on_c, 0, 58, 65
1, 27912, Note_off_c, 0, 60, 63
1, 27916, Control_c, 0, 64, 0
1, 27969, Note_on_c, 0, 48, 67
1, 27971, Note_off_c, 0, 58, 64
1, 27982, Note_on_c, 0, 51, 62
1, 28048, Note_on_c, 0, 58, 65
1, 28049, Note_off_c, 0, 48, 63
1, 28050, Control_c, 0, 64, 47
1, 28065, Control_c, 0, 64, 62
1, 28071, Note_off_c, 0, 51, 63
1, 28080, Control_c, 0, 64, 66
1, 28095, Control_c, 0, 64, 71
1, 28108, Note_on_c, 0, 56, 66
1, 28109, Control_c, 0, 64, 75
1, 28119, Note_off_c, 0, 58, 65
1, 28124, Control_c, 0, 64, 78
1, 28139, Control_c, 0, 64, 80
1, 28154, Control_c, 0, 64, 83
1, 28169, Control_c, 0, 64, 87
1, 28172, Note_off_c, 0, 56, 64
1, 28175, Note_on_c, 0, 46, 68
1, 28181, Note_on_c, 0, 49, 60
1, 28183, Control_c, 0, 64, 91
1, 28198, Control_c, 0, 64, 97
1, 28213, Control_c, 0, 64, 105
1, 28227, Control_c, 0, 64, 116
1, 28242, Control_c, 0, 64, 127
1, 28252, Note_on_c, 0, 56, 62
1, 28298, Note_off_c, 0, 46, 52
1, 28328, Note_off_c, 0, 56, 64
1, 28334, Note_off_c, 0, 49, 54
1, 28335, Note_on_c, 0, 55, 68
1, 28366, Note_off_c, 0, 55, 65
1, 28376, Control_c, 0, 67, 122
1, 28390, Control_c, 0, 67, 113
1, 28405, Control_c, 0, 67, 104
1, 28420, Control_c, 0, 64, 90
1, 28420, Control_c, 0, 67, 95
1, 28426, Note_on_c, 0, 41, 76
1, 28435, Control_c, 0, 64, 70
1, 28435, Control_c, 0, 67, 90
1, 28450, Control_c, 0, 64, 32
1, 28450, Control_c, 0, 67, 85
1, 28465, Control_c, 0, 64, 0
1, 28465, Control_c, 0, 67, 79
1, 28480, Control_c, 0, 64, 18
1, 28480, Control_c, 0, 67, 72
1, 28495, Control_c, 0, 64, 54
1, 28495, Control_c, 0, 67, 61
1, 28509, Control_c, 0, 64, 65
1, 28509, Control_c, 0, 67, 49
1, 28524, Control_c, 0, 64, 71
1, 28524, Control_c, 0, 67, 32
1, 28539, Control_c, 0, 64, 79
1, 28539, Control_c, 0, 67, 16
1, 28561, Control_c, 0, 64, 89
1, 28561, Control_c, 0, 67, 0
1, 28565, Note_off_c, 0, 41, 59
1, 28576, Control_c, 0, 64, 99
1, 28590, Control_c, 0, 64, 111
1, 28602, Note_on_c, 0, 48, 52
1, 28605, Control_c, 0, 64, 127
1, 28653, Note_off_c, 0, 48, 59
1, 28697, Note_on_c, 0, 83, 71
1, 28700, Note_on_c, 0, 56, 51
1, 28711, Note_on_c, 0, 71, 56
1, 28727, Note_off_c, 0, 56, 64
1, 28828, Note_on_c, 0, 56, 45
1, 28841, Note_off_c, 0, 71, 62
1, 28904, Note_on_c, 0, 65, 56
1, 28906, Note_off_c, 0, 56, 36
1, 28960, Note_off_c, 0, 65, 52
1, 28966, Note_on_c, 0, 60, 63
1, 29025, Note_off_c, 0, 60, 55
1, 29037, Note_on_c, 0, 56, 21
1, 29042, Note_off_c, 0, 83, 65
1, 29051, Note_on_c, 0, 84, 67
1, 29056, Note_on_c, 0, 72, 67
1, 29073, Note_off_c, 0, 56, 54
1, 29108, Note_off_c, 0, 72, 63
1, 29110, Control_c, 0, 64, 97
1, 29121, Note_off_c, 0, 84, 63
1, 29124, Control_c, 0, 64, 75
1, 29139, Control_c, 0, 64, 54
1, 29148, Note_on_c, 0, 41, 76
1, 29154, Control_c, 0, 64, 38
1, 29168, Control_c, 0, 64, 61
1, 29183, Control_c, 0, 64, 69
1, 29187, Note_off_c, 0, 41, 64
1, 29198, Control_c, 0, 64, 84
1, 29213, Control_c, 0, 64, 106
1, 29228, Control_c, 0, 64, 127
1, 29280, Note_on_c, 0, 52, 56
1, 29344, Note_off_c, 0, 52, 61
1, 29389, Note_on_c, 0, 85, 79
1, 29397, Note_on_c, 0, 58, 31
1, 29399, Note_on_c, 0, 73, 67
1, 29433, Note_off_c, 0, 58, 48
1, 29491, Note_on_c, 0, 55, 55
1, 29553, Note_off_c, 0, 85, 59
1, 29595, Note_on_c, 0, 64, 55
1, 29610, Note_off_c, 0, 73, 57
1, 29687, Note_off_c, 0, 64, 63
1, 29688, Note_off_c, 0, 55, 61
1, 29705, Note_on_c, 0, 58, 61
1, 29767, Note_off_c, 0, 58, 62
1, 29819, Note_on_c, 0, 84, 71
1, 29821, Note_on_c, 0, 72, 69
1, 29868, Note_off_c, 0, 72, 62
1, 29880, Note_off_c, 0, 84, 64
1, 29930, Note_on_c, 0, 41, 68
1, 29933, Control_c, 0, 64, 89
1, 29947, Control_c, 0, 64, 69
1, 29962, Control_c, 0, 64, 26
1, 29977, Control_c, 0, 64, 27
1, 29991, Control_c, 0, 64, 56
1, 30006, Control_c, 0, 64, 65
1, 30021, Control_c, 0, 64, 72
1, 30022, Note_on_c, 0, 48, 65
1, 30022, Note_off_c, 0, 41, 63
1, 30036, Control_c, 0, 64, 82
1, 30059, Control_c, 0, 64, 95
1, 30073, Control_c, 0, 64, 108
1, 30088, Control_c, 0, 64, 127
1, 30089, Note_off_c, 0, 48, 60
1, 30104, Note_on_c, 0, 56, 72
1, 30134, Note_off_c, 0, 56, 67
1, 30143, Note_on_c, 0, 83, 61
1, 30145, Note_on_c, 0, 71, 57
1, 30155, Note_on_c, 0, 84, 40
1, 30165, Note_off_c, 0, 71, 61
1, 30171, Note_off_c, 0, 83, 69
1, 30185, Note_off_c, 0, 84, 55
1, 30207, Note_on_c, 0, 60, 64
1, 30217, Note_on_c, 0, 56, 52
1, 30262, Note_on_c, 0, 85, 79
1, 30263, Note_on_c, 0, 73, 78
1, 30265, Note_off_c, 0, 56, 65
1, 30265, Note_on_c, 0, 67, 74
1, 30268, Note_off_c, 0, 60, 58
1, 30295, Note_off_c, 0, 73, 61
1, 30313, Note_off_c, 0, 67, 53
1, 30321, Note_off_c, 0, 85, 62
1, 30325, Control_c, 0, 64, 104
1, 30335, Note_on_c, 0, 65, 63
1, 30340, Control_c, 0, 64, 79
1, 30355, Control_c, 0, 64, 62
1, 30370, Control_c, 0, 64, 50
1, 30378, Note_off_c, 0, 65, 59
1, 30382, Note_on_c, 0, 84, 78
1, 30385, Control_c, 0, 64, 63
1, 30391, Note_on_c, 0, 58, 57
1, 30391, Note_on_c, 0, 72, 71
1, 30395, Note_on_c, 0, 55, 62
1, 30399, Control_c, 0, 64, 72
1, 30410, Note_off_c, 0, 72, 65
1, 30414, Control_c, 0, 64, 87
1, 30429, Control_c, 0, 64, 112
1, 30432, Note_off_c, 0, 84, 64
1, 30444, Control_c, 0, 64, 127
1, 30470, Note_on_c, 0, 65, 59
1, 30530, Note_off_c, 0, 55, 62
1, 30534, Note_off_c, 0, 58, 61
1, 30543, Note_off_c, 0, 65, 64
1, 30557, Note_on_c, 0, 63, 62
1, 30567, Note_on_c, 0, 92, 77
1, 30572, Note_on_c, 0, 80, 78
1, 30599, Note_off_c, 0, 80, 65
1, 30621, Note_off_c, 0, 92, 62
1, 30624, Note_off_c, 0, 63, 63
1, 30641, Note_on_c, 0, 53, 56
1, 30642, Note_on_c, 0, 56, 58
1, 30706, Note_off_c, 0, 53, 48
1, 30723, Note_on_c, 0, 63, 72
1, 30731, Note_on_c, 0, 89, 90
1, 30736, Note_on_c, 0, 77, 79
1, 30744, Note_off_c, 0, 56, 63
1, 30777, Note_off_c, 0, 77, 56
1, 30782, Note_off_c, 0, 63, 65
1, 30788, Note_on_c, 0, 61, 74
1, 30801, Note_off_c, 0, 89, 63
1, 30817, Note_off_c, 0, 61, 67
1, 30908, Note_on_c, 0, 39, 85
1, 30911, Control_c, 0, 64, 98
1, 30926, Control_c, 0, 64, 71
1, 30941, Control_c, 0, 64, 0
1, 30985, Control_c, 0, 64, 62
1, 31000, Control_c, 0, 64, 76
1, 31015, Control_c, 0, 64, 98
1, 31023, Note_on_c, 0, 47, 61
1, 31029, Control_c, 0, 64, 127
1, 31035, Note_off_c, 0, 39, 62
1, 31091, Note_off_c, 0, 47, 62
1, 31136, Note_on_c, 0, 86, 81
1, 31142, Note_on_c, 0, 74, 75
1, 31169, Note_off_c, 0, 74, 67
1, 31189, Note_off_c, 0, 86, 62
1, 31202, Poly_aftertouch_c, 0, 56, 0
1, 31222, Poly_aftertouch_c, 0, 56, 0
1, 31248, Note_on_c, 0, 59, 55
1, 31321, Note_on_c, 0, 68, 75
1, 31374, Note_off_c, 0, 68, 66
1, 31382, Note_off_c, 0, 59, 62
1, 31387, Note_on_c, 0, 63, 79
1, 31425, Note_off_c, 0, 63, 64
1, 31470, Note_on_c, 0, 87, 83
1, 31474, Note_on_c, 0, 75, 83
1, 31518, Note_off_c, 0, 75, 56
1, 31520, Note_off_c, 0, 87, 61
1, 31529, Note_on_c, 0, 39, 82
1, 31571, Control_c, 0, 64, 112
1, 31586, Control_c, 0, 64, 79
1, 31601, Control_c, 0, 64, 0
1, 31640, Note_on_c, 0, 49, 68
1, 31643, Note_off_c, 0, 39, 62
1, 31645, Control_c, 0, 64, 15
1, 31660, Control_c, 0, 64, 66
1, 31675, Control_c, 0, 64, 78
1, 31690, Control_c, 0, 64, 94
1, 31701, Note_off_c, 0, 49, 63
1, 31705, Control_c, 0, 64, 127
1, 31729, Note_on_c, 0, 55, 57
1, 31738, Note_on_c, 0, 76, 79
1, 31738, Note_on_c, 0, 88, 81
1, 31777, Note_off_c, 0, 55, 63
1, 31815, Note_off_c, 0, 88, 63
1, 31823, Note_on_c, 0, 58, 63
1, 31827, Note_off_c, 0, 76, 58
1, 31910, Poly_aftertouch_c, 0, 81, 127
1, 31942, Note_on_c, 0, 67, 61
1, 31967, Poly_aftertouch_c, 0, 81, 0
1, 32017, Note_off_c, 0, 67, 57
1, 32036, Note_on_c, 0, 61, 65
1, 32055, Note_off_c, 0, 58, 59
1, 32089, Note_off_c, 0, 61, 60
1, 32173, Note_on_c, 0, 87, 70
1, 32182, Note_on_c, 0, 75, 62
1, 32280, Note_on_c, 0, 44, 71
1, 32283, Control_c, 0, 64, 90
1, 32305, Control_c, 0, 64, 68
1, 32317, Note_off_c, 0, 87, 50
1, 32320, Control_c, 0, 64, 0
1, 32349, Control_c, 0, 64, 49
1, 32364, Control_c, 0, 64, 64
1, 32379, Control_c, 0, 64, 70
1, 32380, Note_on_c, 0, 51, 67
1, 32387, Note_off_c, 0, 44, 61
1, 32394, Control_c, 0, 64, 80
1, 32409, Control_c, 0, 64, 88
1, 32424, Control_c, 0, 64, 94
1, 32427, Note_off_c, 0, 75, 62
1, 32439, Control_c, 0, 64, 100
1, 32452, Note_off_c, 0, 51, 63
1, 32453, Control_c, 0, 64, 110
1, 32456, Note_on_c, 0, 59, 60
1, 32468, Control_c, 0, 64, 127
1, 32480, Note_on_c, 0, 74, 64
1, 32480, Note_on_c, 0, 86, 61
1, 32485, Note_off_c, 0, 59, 65
1, 32509, Note_off_c, 0, 74, 66
1, 32531, Note_off_c, 0, 86, 64
1, 32564, Note_on_c, 0, 63, 60
1, 32604, Note_on_c, 0, 88, 88
1, 32608, Note_on_c, 0, 70, 71
1, 32611, Note_on_c, 0, 76, 71
1, 32629, Note_off_c, 0, 63, 62
1, 32638, Note_off_c, 0, 76, 66
1, 32646, Note_off_c, 0, 88, 60
1, 32675, Note_on_c, 0, 68, 77
1, 32689, Note_off_c, 0, 70, 61
1, 32735, Note_on_c, 0, 87, 80
1, 32743, Note_on_c, 0, 75, 65
1, 32745, Note_off_c, 0, 68, 60
1, 32748, Note_on_c, 0, 61, 67
1, 32753, Note_on_c, 0, 58, 59
1, 32768, Note_off_c, 0, 75, 66
1, 32786, Note_off_c, 0, 87, 66
1, 32817, Note_on_c, 0, 68, 70
1, 32834, Note_off_c, 0, 58, 60
1, 32851, Note_off_c, 0, 61, 60
1, 32901, Note_on_c, 0, 95, 89
1, 32904, Note_on_c, 0, 83, 86
1, 32904, Note_on_c, 0, 66, 74
1, 32912, Note_off_c, 0, 68, 62
1, 32930, Note_off_c, 0, 83, 67
1, 32933, Note_off_c, 0, 95, 56
1, 32957, Note_on_c, 0, 56, 69
1, 32959, Note_off_c, 0, 66, 65
1, 32972, Note_on_c, 0, 59, 54
1, 33057, Note_on_c, 0, 66, 82
1, 33067, Note_off_c, 0, 56, 59
1, 33073, Note_on_c, 0, 92, 86
1, 33074, Note_on_c, 0, 80, 86
1, 33097, Note_off_c, 0, 59, 44
1, 33108, Note_off_c, 0, 66, 67
1, 33111, Note_on_c, 0, 64, 70
1, 33133, Note_off_c, 0, 80, 55
1, 33134, Note_off_c, 0, 64, 68
1, 33143, Note_off_c, 0, 92, 63
1, 33203, Control_c, 0, 64, 106
1, 33218, Control_c, 0, 64, 74
1, 33229, Note_on_c, 0, 42, 87
1, 33232, Control_c, 0, 64, 0
1, 33277, Control_c, 0, 64, 63
1, 33292, Control_c, 0, 64, 81
1, 33306, Control_c, 0, 64, 122
1, 33321, Control_c, 0, 64, 127
1, 33327, Note_on_c, 0, 51, 73
1, 33330, Note_off_c, 0, 42, 61
1, 33385, Note_off_c, 0, 51, 62
1, 33412, Note_on_c, 0, 89, 90
1, 33413, Note_on_c, 0, 59, 61
1, 33416, Note_on_c, 0, 77, 91
1, 33438, Note_off_c, 0, 59, 66
1, 33455, Note_off_c, 0, 77, 63
1, 33458, Note_off_c, 0, 89, 67
1, 33503, Note_on_c, 0, 63, 70
1, 33574, Note_on_c, 0, 71, 74
1, 33624, Note_off_c, 0, 71, 67
1, 33641, Note_on_c, 0, 66, 86
1, 33646, Note_off_c, 0, 63, 63
1, 33677, Note_off_c, 0, 66, 68
1, 33708, Note_on_c, 0, 90, 82
1, 33708, Note_on_c, 0, 78, 85
1, 33765, Note_off_c, 0, 78, 53
1, 33767, Note_off_c, 0, 90, 57
1, 33774, Note_on_c, 0, 42, 81
1, 33778, Note_on_c, 0, 44, 62
1, 33780, Control_c, 0, 64, 82
1, 33803, Control_c, 0, 64, 0
1, 33828, Note_off_c, 0, 42, 64
1, 33847, Control_c, 0, 64, 66
1, 33862, Control_c, 0, 64, 84
1, 33872, Note_on_c, 0, 52, 61
1, 33877, Note_off_c, 0, 44, 27
1, 33877, Control_c, 0, 64, 127
1, 33947, Note_off_c, 0, 52, 62
1, 33964, Note_on_c, 0, 58, 72
1, 33965, Note_on_c, 0, 91, 90
1, 33967, Note_on_c, 0, 79, 88
1, 33991, Note_off_c, 0, 58, 68
1, 34041, Note_off_c, 0, 91, 63
1, 34047, Note_off_c, 0, 79, 49
1, 34063, Note_on_c, 0, 61, 70
1, 34156, Note_on_c, 0, 70, 74
1, 34219, Note_off_c, 0, 70, 66
1, 34230, Note_off_c, 0, 61, 61
1, 34233, Note_on_c, 0, 64, 71
1, 34262, Note_off_c, 0, 64, 67
1, 34337, Note_on_c, 0, 78, 83
1, 34337, Note_on_c, 0, 90, 81
1, 34443, Note_on_c, 0, 42, 78
1, 34453, Note_off_c, 0, 90, 62
1, 34481, Note_off_c, 0, 78, 58
1, 34501, Control_c, 0, 64, 87
1, 34515, Control_c, 0, 64, 65
1, 34516, Note_on_c, 0, 51, 80
1, 34530, Control_c, 0, 64, 0
1, 34545, Note_off_c, 0, 42, 64
1, 34567, Control_c, 0, 64, 61
1, 34582, Control_c, 0, 64, 71
1, 34597, Control_c, 0, 64, 92
1, 34600, Poly_aftertouch_c, 0, 87, 0
1, 34602, Note_off_c, 0, 51, 60
1, 34610, Note_on_c, 0, 59, 68
1, 34612, Control_c, 0, 64, 127
1, 34615, Note_on_c, 0, 89, 96
1, 34619, Note_on_c, 0, 77, 85
1, 34641, Note_off_c, 0, 59, 64
1, 34663, Note_off_c, 0, 77, 61
1, 34720, Note_on_c, 0, 55, 44
1, 34752, Note_on_c, 0, 63, 75
1, 34776, Note_on_c, 0, 78, 89
1, 34777, Note_on_c, 0, 90, 84
1, 34786, Note_off_c, 0, 55, 52
1, 34803, Note_off_c, 0, 89, 57
1, 34833, Note_off_c, 0, 63, 64
1, 34844, Note_off_c, 0, 78, 57
1, 34847, Note_on_c, 0, 59, 55
1, 34870, Note_off_c, 0, 59, 63
1, 34922, Control_c, 0, 64, 94
1, 34937, Control_c, 0, 64, 68
1, 34952, Control_c, 0, 64, 0
1, 34965, Note_on_c, 0, 42, 79
1, 34969, Note_on_c, 0, 93, 90
1, 34970, Note_on_c, 0, 81, 96
1, 34982, Control_c, 0, 64, 53
1, 34993, Note_off_c, 0, 90, 61
1, 34996, Control_c, 0, 64, 74
1, 35011, Control_c, 0, 64, 100
1, 35026, Control_c, 0, 64, 127
1, 35033, Note_off_c, 0, 81, 62
1, 35036, Note_off_c, 0, 42, 61
1, 35061, Note_off_c, 0, 93, 62
1, 35124, Note_on_c, 0, 52, 63
1, 35228, Note_off_c, 0, 52, 61
1, 35239, Note_on_c, 0, 58, 72
1, 35251, Note_on_c, 0, 91, 95
1, 35258, Note_on_c, 0, 79, 92
1, 35342, Note_off_c, 0, 58, 64
1, 35348, Note_on_c, 0, 52, 72
1, 35439, Note_off_c, 0, 79, 61
1, 35456, Note_on_c, 0, 61, 82
1, 35487, Note_off_c, 0, 91, 65
1, 35551, Note_off_c, 0, 52, 63
1, 35555, Note_off_c, 0, 61, 63
1, 35575, Note_on_c, 0, 58, 78
1, 35582, Note_on_c, 0, 78, 81
1, 35582, Note_on_c, 0, 90, 92
1, 35606, Note_off_c, 0, 78, 66
1, 35635, Note_off_c, 0, 58, 63
1, 35644, Note_off_c, 0, 90, 63
1, 35824, Note_on_c, 0, 47, 84
1, 35898, Note_on_c, 0, 87, 103
1, 35902, Note_on_c, 0, 99, 95
1, 35938, Control_c, 0, 64, 116
1, 35953, Control_c, 0, 64, 84
1, 35968, Control_c, 0, 64, 63
1, 35983, Control_c, 0, 64, 0
1, 36050, Control_c, 0, 64, 38
1, 36065, Control_c, 0, 64, 67
1, 36080, Control_c, 0, 64, 79
1, 36094, Control_c, 0, 64, 106
1, 36109, Control_c, 0, 64, 127
1, 36194, Note_on_c, 0, 57, 85
1, 36226, Note_off_c, 0, 47, 38
1, 36352, Note_on_c, 0, 54, 84
1, 36373, Note_off_c, 0, 57, 62
1, 36469, Note_on_c, 0, 60, 78
1, 36473, Note_off_c, 0, 54, 62
1, 36484, Poly_aftertouch_c, 0, 53, 0
1, 36553, Note_off_c, 0, 60, 60
1, 36573, Note_on_c, 0, 57, 81
1, 36609, Note_off_c, 0, 99, 56
1, 36632, Note_off_c, 0, 87, 61
1, 36674, Note_off_c, 0, 57, 59
1, 36678, Note_on_c, 0, 66, 86
1, 36752, Note_on_c, 0, 87, 99
1, 36754, Note_on_c, 0, 99, 102
1, 36758, Note_on_c, 0, 60, 77
1, 36771, Note_off_c, 0, 66, 64
1, 36857, Note_on_c, 0, 69, 77
1, 36894, Note_off_c, 0, 60, 44
1, 36919, Note_off_c, 0, 69, 62
1, 36922, Note_on_c, 0, 66, 77
1, 36969, Note_off_c, 0, 99, 63
1, 36981, Note_off_c, 0, 87, 62
1, 36993, Note_on_c, 0, 72, 89
1, 37020, Note_off_c, 0, 66, 62
1, 37030, Note_off_c, 0, 72, 58
1, 37062, Note_on_c, 0, 60, 76
1, 37134, Note_on_c, 0, 69, 85
1, 37175, Note_off_c, 0, 60, 60
1, 37178, Note_off_c, 0, 69, 63
1, 37238, Note_on_c, 0, 87, 100
1, 37240, Note_on_c, 0, 99, 95
1, 37369, Note_off_c, 0, 87, 63
1, 37374, Note_off_c, 0, 99, 64
1, 37375, Note_on_c, 0, 47, 84
1, 37436, Note_on_c, 0, 87, 97
1, 37439, Note_on_c, 0, 99, 89
1, 37450, Control_c, 0, 64, 108
1, 37465, Control_c, 0, 64, 80
1, 37480, Control_c, 0, 64, 41
1, 37495, Control_c, 0, 64, 0
1, 37547, Control_c, 0, 64, 62
1, 37562, Control_c, 0, 64, 72
1, 37577, Control_c, 0, 64, 86
1, 37591, Control_c, 0, 64, 127
1, 37593, Note_on_c, 0, 56, 77
1, 37674, Note_on_c, 0, 53, 74
1, 37691, Note_off_c, 0, 56, 63
1, 37692, Note_off_c, 0, 47, 55
1, 37745, Note_on_c, 0, 59, 65
1, 37812, Note_on_c, 0, 56, 80
1, 37817, Note_off_c, 0, 59, 65
1, 37842, Note_off_c, 0, 53, 59
1, 37848, Note_off_c, 0, 99, 61
1, 37877, Note_off_c, 0, 56, 64
1, 37888, Note_off_c, 0, 87, 51
1, 37909, Note_on_c, 0, 65, 81
1, 38002, Note_on_c, 0, 59, 76
1, 38025, Note_off_c, 0, 65, 63
1, 38048, Note_on_c, 0, 86, 87
1, 38048, Note_on_c, 0, 98, 86
1, 38092, Note_on_c, 0, 96, 26
1, 38093, Note_off_c, 0, 96, 127
1, 38149, Note_on_c, 0, 68, 77
1, 38183, Note_off_c, 0, 59, 40
1, 38212, Note_on_c, 0, 65, 72
1, 38226, Note_off_c, 0, 68, 63
1, 38301, Note_off_c, 0, 65, 63
1, 38303, Note_on_c, 0, 71, 66
1, 38353, Note_on_c, 0, 59, 76
1, 38448, Note_off_c, 0, 71, 62
1, 38448, Note_off_c, 0, 59, 60
1, 38452, Note_on_c, 0, 68, 77
1, 38478, Note_off_c, 0, 68, 66
1, 38637, Control_c, 0, 64, 116
1, 38652, Control_c, 0, 64, 87
1, 38663, Note_on_c, 0, 47, 73
1, 38667, Control_c, 0, 64, 69
1, 38682, Control_c, 0, 64, 0
1, 38711, Control_c, 0, 64, 40
1, 38726, Control_c, 0, 64, 63
1, 38741, Control_c, 0, 64, 70
1, 38756, Control_c, 0, 64, 81
1, 38770, Control_c, 0, 64, 95
1, 38785, Control_c, 0, 64, 117
1, 38800, Control_c, 0, 64, 127
1, 38847, Note_on_c, 0, 55, 72
1, 38859, Note_off_c, 0, 47, 57
1, 38876, Note_off_c, 0, 86, 61
1, 38881, Note_off_c, 0, 98, 64
1, 38928, Note_on_c, 0, 52, 70
1, 38951, Note_off_c, 0, 55, 58
1, 39002, Note_on_c, 0, 58, 72
1, 39005, Note_on_c, 0, 97, 90
1, 39006, Note_on_c, 0, 85, 96
1, 39083, Note_off_c, 0, 58, 65
1, 39089, Note_on_c, 0, 55, 65
1, 39122, Note_off_c, 0, 52, 55
1, 39135, Note_off_c, 0, 55, 62
1, 39137, Note_off_c, 0, 85, 62
1, 39163, Note_on_c, 0, 64, 76
1, 39174, Note_off_c, 0, 97, 63
1, 39208, Note_off_c, 0, 64, 61
1, 39249, Note_on_c, 0, 99, 94
1, 39252, Note_on_c, 0, 87, 96
1, 39258, Note_on_c, 0, 58, 83
1, 39328, Note_off_c, 0, 58, 59
1, 39342, Note_on_c, 0, 67, 61
1, 39410, Note_on_c, 0, 64, 64
1, 39411, Note_off_c, 0, 67, 63
1, 39438, Note_off_c, 0, 87, 63
1, 39480, Note_on_c, 0, 70, 74
1, 39493, Note_off_c, 0, 64, 63
1, 39503, Note_on_c, 0, 100, 93
1, 39506, Note_on_c, 0, 88, 92
1, 39509, Note_off_c, 0, 99, 38
1, 39536, Note_off_c, 0, 70, 65
1, 39548, Note_on_c, 0, 58, 76
1, 39599, Note_off_c, 0, 88, 62
1, 39624, Note_off_c, 0, 100, 66
1, 39625, Note_on_c, 0, 67, 76
1, 39629, Note_off_c, 0, 58, 65
1, 39649, Note_off_c, 0, 67, 64
1, 39808, Note_on_c, 0, 47, 80
1, 39851, Poly_aftertouch_c, 0, 51, 127
1, 39854, Poly_aftertouch_c, 0, 54, 127
1, 39885, Note_on_c, 0, 90, 97
1, 39887, Poly_aftertouch_c, 0, 54, 0
1, 39888, Note_on_c, 0, 102, 95
1, 39888, Poly_aftertouch_c, 0, 51, 0
1, 39897, Control_c, 0, 64, 104
1, 39911, Control_c, 0, 64, 77
1, 39926, Control_c, 0, 64, 42
1, 39941, Control_c, 0, 64, 0
1, 40000, Control_c, 0, 64, 48
1, 40016, Control_c, 0, 64, 68
1, 40031, Control_c, 0, 64, 81
1, 40046, Control_c, 0, 64, 101
1, 40060, Control_c, 0, 64, 127
1, 40070, Note_on_c, 0, 54, 72
1, 40082, Note_off_c, 0, 47, 61
1, 40089, Note_off_c, 0, 102, 65
1, 40141, Note_on_c, 0, 51, 76
1, 40156, Note_off_c, 0, 90, 63
1, 40168, Note_off_c, 0, 54, 61
1, 40200, Note_off_c, 0, 51, 64
1, 40202, Note_on_c, 0, 59, 63
1, 40250, Note_off_c, 0, 59, 62
1, 40291, Note_on_c, 0, 56, 72
1, 40303, Note_on_c, 0, 54, 63
1, 40355, Note_on_c, 0, 87, 84
1, 40356, Note_on_c, 0, 99, 87
1, 40386, Note_off_c, 0, 56, 57
1, 40392, Note_on_c, 0, 63, 73
1, 40395, Note_off_c, 0, 54, 56
1, 40401, Note_off_c, 0, 87, 64
1, 40401, Note_off_c, 0, 99, 65
1, 40492, Note_on_c, 0, 95, 92
1, 40492, Note_off_c, 0, 63, 61
1, 40494, Note_on_c, 0, 83, 88
1, 40499, Note_on_c, 0, 59, 62
1, 40542, Note_off_c, 0, 83, 66
1, 40552, Note_off_c, 0, 95, 63
1, 40623, Note_on_c, 0, 66, 70
1, 40645, Note_off_c, 0, 59, 52
1, 40696, Note_on_c, 0, 54, 59
1, 40705, Control_c, 0, 67, 10
1, 40719, Control_c, 0, 67, 19
1, 40734, Control_c, 0, 67, 33
1, 40749, Control_c, 0, 67, 56
1, 40764, Control_c, 0, 67, 79
1, 40766, Note_off_c, 0, 66, 58
1, 40768, Note_on_c, 0, 63, 59
1, 40779, Control_c, 0, 67, 104
1, 40793, Control_c, 0, 67, 127
1, 40796, Note_off_c, 0, 54, 49
1, 40847, Note_on_c, 0, 59, 58
1, 40857, Note_off_c, 0, 63, 61
1, 40925, Note_off_c, 0, 59, 62
1, 40949, Note_on_c, 0, 66, 59
1, 40991, Note_off_c, 0, 66, 66
1, 41260, Note_on_c, 0, 47, 54
1, 41345, Note_on_c, 0, 87, 77
1, 41348, Note_on_c, 0, 75, 65
1, 41349, Control_c, 0, 64, 103
1, 41364, Control_c, 0, 64, 83
1, 41379, Control_c, 0, 64, 61
1, 41394, Control_c, 0, 64, 0
1, 41483, Control_c, 0, 64, 44
1, 41497, Control_c, 0, 64, 64
1, 41512, Control_c, 0, 64, 70
1, 41527, Control_c, 0, 64, 77
1, 41542, Control_c, 0, 64, 85
1, 41557, Control_c, 0, 64, 92
1, 41566, Note_on_c, 0, 57, 55
1, 41572, Control_c, 0, 64, 101
1, 41578, Note_off_c, 0, 47, 33
1, 41587, Control_c, 0, 64, 110
1, 41602, Control_c, 0, 64, 127
1, 41602, Control_c, 0, 67, 122
1, 41617, Control_c, 0, 67, 110
1, 41632, Control_c, 0, 67, 96
1, 41647, Control_c, 0, 67, 84
1, 41661, Control_c, 0, 67, 69
1, 41676, Control_c, 0, 67, 58
1, 41691, Control_c, 0, 67, 47
1, 41701, Note_on_c, 0, 54, 51
1, 41706, Control_c, 0, 67, 38
1, 41721, Control_c, 0, 67, 29
1, 41736, Control_c, 0, 67, 21
1, 41751, Note_off_c, 0, 57, 29
1, 41751, Control_c, 0, 67, 12
1, 41765, Control_c, 0, 67, 0
1, 41776, Note_off_c, 0, 54, 58
1, 41789, Note_on_c, 0, 60, 63
1, 41830, Note_off_c, 0, 87, 60
1, 41849, Note_off_c, 0, 60, 56
1, 41855, Note_off_c, 0, 75, 61
1, 41894, Note_on_c, 0, 57, 61
1, 41950, Note_off_c, 0, 57, 59
1, 41975, Note_on_c, 0, 66, 70
1, 42042, Note_on_c, 0, 87, 77
1, 42046, Note_on_c, 0, 75, 69
1, 42051, Note_on_c, 0, 60, 59
1, 42060, Note_off_c, 0, 66, 58
1, 42134, Note_on_c, 0, 69, 58
1, 42136, Note_off_c, 0, 60, 55
1, 42178, Note_off_c, 0, 69, 62
1, 42185, Note_on_c, 0, 66, 60
1, 42243, Note_off_c, 0, 66, 50
1, 42258, Note_on_c, 0, 72, 74
1, 42287, Note_off_c, 0, 87, 61
1, 42287, Note_off_c, 0, 72, 65
1, 42299, Note_off_c, 0, 75, 54
1, 42327, Note_on_c, 0, 60, 65
1, 42398, Note_on_c, 0, 69, 66
1, 42436, Note_off_c, 0, 60, 59
1, 42437, Note_off_c, 0, 69, 57
1, 42522, Note_on_c, 0, 87, 80
1, 42525, Note_on_c, 0, 75, 71
1, 42655, Note_off_c, 0, 87, 63
1, 42659, Note_off_c, 0, 75, 59
1, 42666, Note_on_c, 0, 47, 73
1, 42748, Note_on_c, 0, 87, 84
1, 42751, Control_c, 0, 64, 95
1, 42752, Note_on_c, 0, 75, 76
1, 42766, Control_c, 0, 64, 68
1, 42788, Control_c, 0, 64, 0
1, 42848, Control_c, 0, 64, 61
1, 42862, Control_c, 0, 64, 67
1, 42874, Note_on_c, 0, 56, 67
1, 42877, Control_c, 0, 64, 76
1, 42892, Control_c, 0, 64, 87
1, 42906, Control_c, 0, 64, 101
1, 42921, Control_c, 0, 64, 127
1, 42939, Note_off_c, 0, 47, 51
1, 42946, Note_on_c, 0, 53, 64
1, 42956, Note_off_c, 0, 56, 62
1, 42997, Note_on_c, 0, 59, 67
1, 43062, Note_off_c, 0, 59, 64
1, 43071, Note_on_c, 0, 56, 71
1, 43074, Note_off_c, 0, 53, 57
1, 43095, Note_off_c, 0, 87, 59
1, 43100, Note_off_c, 0, 56, 62
1, 43122, Note_off_c, 0, 75, 56
1, 43161, Note_on_c, 0, 65, 70
1, 43244, Note_on_c, 0, 59, 64
1, 43262, Note_off_c, 0, 65, 57
1, 43339, Note_on_c, 0, 86, 80
1, 43345, Note_on_c, 0, 74, 73
1, 43417, Note_on_c, 0, 68, 67
1, 43455, Note_off_c, 0, 59, 40
1, 43504, Note_off_c, 0, 68, 61
1, 43507, Note_on_c, 0, 65, 62
1, 43594, Note_on_c, 0, 71, 48
1, 43596, Note_off_c, 0, 65, 62
1, 43643, Note_on_c, 0, 59, 61
1, 43734, Note_off_c, 0, 59, 60
1, 43753, Note_off_c, 0, 71, 37
1, 43755, Note_on_c, 0, 68, 63
1, 43784, Note_off_c, 0, 68, 65
1, 43982, Control_c, 0, 64, 119
1, 43998, Control_c, 0, 64, 93
1, 44007, Note_on_c, 0, 46, 63
1, 44013, Control_c, 0, 64, 76
1, 44027, Control_c, 0, 64, 64
1, 44042, Control_c, 0, 64, 34
1, 44057, Control_c, 0, 64, 24
1, 44072, Control_c, 0, 64, 38
1, 44087, Control_c, 0, 64, 51
1, 44100, Control_c, 0, 64, 60
1, 44115, Control_c, 0, 64, 65
1, 44130, Control_c, 0, 64, 70
1, 44145, Control_c, 0, 64, 78
1, 44159, Control_c, 0, 64, 90
1, 44174, Control_c, 0, 64, 104
1, 44189, Control_c, 0, 64, 116
1, 44204, Control_c, 0, 64, 127
1, 44217, Note_off_c, 0, 46, 56
1, 44231, Note_on_c, 0, 56, 62
1, 44279, Note_off_c, 0, 86, 62
1, 44281, Note_off_c, 0, 74, 62
1, 44332, Note_off_c, 0, 56, 61
1, 44340, Note_on_c, 0, 53, 54
1, 44400, Note_on_c, 0, 59, 58
1, 44410, Note_on_c, 0, 86, 88
1, 44415, Note_on_c, 0, 74, 83
1, 44457, Note_on_c, 0, 56, 68
1, 44457, Note_off_c, 0, 59, 62
1, 44548, Note_on_c, 0, 60, 66
1, 44555, Note_off_c, 0, 56, 62
1, 44558, Note_off_c, 0, 74, 61
1, 44578, Note_off_c, 0, 60, 66
1, 44604, Note_off_c, 0, 53, 38
1, 44655, Note_on_c, 0, 44, 82
1, 44656, Control_c, 0, 64, 109
1, 44663, Note_on_c, 0, 75, 88
1, 44663, Note_on_c, 0, 87, 86
1, 44671, Control_c, 0, 64, 76
1, 44685, Control_c, 0, 64, 36
1, 44692, Note_off_c, 0, 86, 61
1, 44700, Control_c, 0, 64, 0
1, 44730, Control_c, 0, 64, 42
1, 44745, Control_c, 0, 64, 66
1, 44759, Control_c, 0, 64, 78
1, 44774, Control_c, 0, 64, 100
1, 44776, Note_on_c, 0, 53, 65
1, 44785, Note_off_c, 0, 44, 59
1, 44789, Control_c, 0, 64, 127
1, 44818, Note_off_c, 0, 75, 63
1, 44860, Note_on_c, 0, 50, 66
1, 44876, Note_off_c, 0, 53, 52
1, 44946, Note_on_c, 0, 59, 64
1, 44947, Note_off_c, 0, 87, 67
1, 44948, Note_on_c, 0, 89, 91
1, 44955, Note_on_c, 0, 77, 81
1, 44999, Note_off_c, 0, 77, 56
1, 45014, Note_on_c, 0, 53, 63
1, 45019, Note_off_c, 0, 59, 63
1, 45055, Note_off_c, 0, 50, 55
1, 45069, Note_off_c, 0, 89, 60
1, 45134, Note_on_c, 0, 58, 67
1, 45134, Note_off_c, 0, 53, 60
1, 45166, Note_off_c, 0, 58, 65
1, 45289, Note_on_c, 0, 42, 77
1, 45368, Note_on_c, 0, 92, 83
1, 45371, Note_on_c, 0, 80, 84
1, 45375, Control_c, 0, 64, 91
1, 45390, Control_c, 0, 64, 69
1, 45405, Control_c, 0, 64, 0
1, 45464, Control_c, 0, 64, 63
1, 45479, Control_c, 0, 64, 71
1, 45494, Control_c, 0, 64, 83
1, 45508, Control_c, 0, 64, 101
1, 45517, Note_off_c, 0, 42, 62
1, 45523, Control_c, 0, 64, 127
1, 45563, Note_on_c, 0, 54, 63
1, 45612, Note_off_c, 0, 92, 61
1, 45639, Note_off_c, 0, 54, 59
1, 45663, Note_on_c, 0, 51, 70
1, 45702, Note_off_c, 0, 80, 63
1, 45764, Note_on_c, 0, 58, 65
1, 45805, Note_on_c, 0, 78, 85
1, 45806, Note_on_c, 0, 90, 84
1, 45866, Note_off_c, 0, 58, 64
1, 45872, Note_on_c, 0, 54, 73
1, 45978, Note_on_c, 0, 63, 64
1, 45993, Note_off_c, 0, 51, 22
1, 46001, Note_off_c, 0, 63, 65
1, 46020, Control_c, 0, 64, 99
1, 46035, Control_c, 0, 64, 74
1, 46037, Note_off_c, 0, 54, 62
1, 46049, Control_c, 0, 64, 0
1, 46064, Control_c, 0, 64, 18
1, 46070, Note_on_c, 0, 44, 86
1, 46079, Control_c, 0, 64, 65
1, 46084, Note_off_c, 0, 90, 62
1, 46094, Control_c, 0, 64, 78
1, 46109, Control_c, 0, 64, 105
1, 46124, Note_off_c, 0, 44, 63
1, 46124, Control_c, 0, 64, 127
1, 46165, Note_on_c, 0, 56, 64
1, 46209, Note_off_c, 0, 78, 60
1, 46215, Note_off_c, 0, 56, 63
1, 46245, Note_on_c, 0, 52, 53
1, 46315, Note_off_c, 0, 52, 61
1, 46324, Note_on_c, 0, 88, 86
1, 46325, Note_on_c, 0, 76, 82
1, 46329, Note_on_c, 0, 59, 70
1, 46380, Note_off_c, 0, 59, 62
1, 46386, Note_on_c, 0, 56, 75
1, 46458, Note_on_c, 0, 64, 74
1, 46464, Note_off_c, 0, 56, 64
1, 46484, Note_off_c, 0, 64, 65
1, 46533, Control_c, 0, 64, 94
1, 46548, Control_c, 0, 64, 68
1, 46562, Control_c, 0, 64, 0
1, 46565, Note_on_c, 0, 46, 92
1, 46588, Note_off_c, 0, 88, 65
1, 46592, Control_c, 0, 64, 44
1, 46602, Note_off_c, 0, 76, 61
1, 46607, Control_c, 0, 64, 72
1, 46622, Control_c, 0, 64, 96
1, 46634, Note_off_c, 0, 46, 64
1, 46637, Control_c, 0, 64, 127
1, 46653, Note_on_c, 0, 58, 74
1, 46698, Note_off_c, 0, 58, 59
1, 46730, Note_on_c, 0, 54, 79
1, 46809, Note_on_c, 0, 87, 84
1, 46809, Note_on_c, 0, 75, 85
1, 46811, Note_on_c, 0, 63, 77
1, 46861, Note_off_c, 0, 63, 63
1, 46865, Note_on_c, 0, 58, 76
1, 46940, Note_on_c, 0, 66, 83
1, 46962, Note_off_c, 0, 66, 71
1, 46964, Note_off_c, 0, 54, 61
1, 46972, Note_off_c, 0, 58, 64
1, 46977, Control_c, 0, 64, 83
1, 46992, Control_c, 0, 64, 51
1, 47007, Control_c, 0, 64, 0
1, 47036, Note_on_c, 0, 44, 88
1, 47036, Control_c, 0, 64, 65
1, 47051, Note_off_c, 0, 75, 58
1, 47051, Control_c, 0, 64, 79
1, 47066, Control_c, 0, 64, 110
1, 47067, Note_off_c, 0, 87, 64
1, 47081, Control_c, 0, 64, 127
1, 47102, Poly_aftertouch_c, 0, 46, 127
1, 47108, Note_off_c, 0, 44, 62
1, 47137, Poly_aftertouch_c, 0, 46, 0
1, 47156, Note_on_c, 0, 86, 88
1, 47158, Note_on_c, 0, 74, 80
1, 47162, Note_on_c, 0, 56, 35
1, 47183, Note_on_c, 0, 57, 58
1, 47190, Note_off_c, 0, 74, 63
1, 47200, Note_off_c, 0, 86, 61
1, 47212, Note_off_c, 0, 56, 46
1, 47216, Note_off_c, 0, 57, 62
1, 47221, Note_on_c, 0, 53, 66
1, 47282, Note_on_c, 0, 75, 83
1, 47283, Note_on_c, 0, 87, 94
1, 47305, Note_on_c, 0, 59, 71
1, 47323, Note_off_c, 0, 75, 64
1, 47339, Note_off_c, 0, 87, 64
1, 47353, Note_on_c, 0, 56, 64
1, 47355, Note_off_c, 0, 53, 56
1, 47358, Note_off_c, 0, 59, 62
1, 47414, Note_on_c, 0, 89, 98
1, 47420, Note_on_c, 0, 77, 87
1, 47438, Note_on_c, 0, 62, 59
1, 47446, Note_off_c, 0, 77, 65
1, 47448, Note_off_c, 0, 56, 63
1, 47456, Note_on_c, 0, 53, 39
1, 47458, Note_off_c, 0, 62, 60
1, 47459, Note_off_c, 0, 89, 65
1, 47489, Note_off_c, 0, 53, 61
1, 47534, Control_c, 0, 64, 116
1, 47549, Control_c, 0, 64, 81
1, 47564, Control_c, 0, 64, 0
1, 47568, Note_on_c, 0, 42, 84
1, 47571, Note_on_c, 0, 92, 95
1, 47573, Note_on_c, 0, 80, 93
1, 47608, Control_c, 0, 64, 65
1, 47622, Control_c, 0, 64, 80
1, 47624, Note_off_c, 0, 80, 65
1, 47636, Note_off_c, 0, 92, 63
1, 47637, Control_c, 0, 64, 113
1, 47650, Note_off_c, 0, 42, 61
1, 47652, Control_c, 0, 64, 127
1, 47679, Note_on_c, 0, 54, 66
1, 47694, Poly_aftertouch_c, 0, 93, 0
1, 47739, Note_off_c, 0, 54, 59
1, 47770, Note_on_c, 0, 51, 71
1, 47790, Note_on_c, 0, 90, 93
1, 47796, Note_on_c, 0, 78, 89
1, 47817, Note_off_c, 0, 78, 65
1, 47841, Note_off_c, 0, 90, 64
1, 47849, Note_on_c, 0, 58, 61
1, 47915, Note_off_c, 0, 58, 65
1, 47918, Note_on_c, 0, 54, 75
1, 47960, Note_on_c, 0, 83, 99
1, 47961, Note_on_c, 0, 95, 101
1, 47963, Control_c, 0, 64, 102
1, 47977, Control_c, 0, 64, 73
1, 47993, Control_c, 0, 64, 0
1, 48000, Note_on_c, 0, 63, 71
1, 48027, Note_off_c, 0, 51, 44
1, 48030, Control_c, 0, 64, 55
1, 48034, Note_off_c, 0, 63, 66
1, 48045, Control_c, 0, 64, 74
1, 48047, Note_off_c, 0, 54, 62
1, 48059, Control_c, 0, 64, 96
1, 48074, Control_c, 0, 64, 127
1, 48087, Note_off_c, 0, 95, 64
1, 48090, Note_on_c, 0, 44, 92
1, 48096, Note_off_c, 0, 83, 66
1, 48125, Note_on_c, 0, 43, 49
1, 48154, Note_off_c, 0, 43, 55
1, 48155, Note_off_c, 0, 44, 62
1, 48169, Note_on_c, 0, 56, 73
1, 48218, Note_off_c, 0, 56, 65
1, 48235, Note_on_c, 0, 51, 69
1, 48252, Note_on_c, 0, 88, 81
1, 48257, Note_on_c, 0, 86, 85
1, 48258, Note_on_c, 0, 74, 73
1, 48263, Note_on_c, 0, 76, 70
1, 48274, Note_off_c, 0, 74, 69
1, 48277, Note_off_c, 0, 86, 69
1, 48279, Note_off_c, 0, 76, 67
1, 48288, Note_off_c, 0, 88, 63
1, 48318, Note_off_c, 0, 51, 64
1, 48322, Note_on_c, 0, 59, 63
1, 48374, Note_off_c, 0, 59, 64
1, 48376, Note_on_c, 0, 56, 79
1, 48384, Note_on_c, 0, 83, 96
1, 48385, Note_on_c, 0, 95, 98
1, 48411, Note_off_c, 0, 95, 63
1, 48416, Note_off_c, 0, 83, 65
1, 48444, Note_on_c, 0, 62, 73
1, 48466, Note_off_c, 0, 56, 61
1, 48473, Note_off_c, 0, 62, 65
1, 48489, Control_c, 0, 64, 98
1, 48504, Control_c, 0, 64, 71
1, 48518, Control_c, 0, 64, 0
1, 48524, Note_on_c, 0, 46, 89
1, 48543, Note_on_c, 0, 49, 48
1, 48563, Control_c, 0, 64, 70
1, 48577, Note_off_c, 0, 49, 55
1, 48578, Control_c, 0, 64, 90
1, 48589, Note_off_c, 0, 46, 64
1, 48592, Control_c, 0, 64, 127
1, 48603, Note_on_c, 0, 58, 78
1, 48644, Note_off_c, 0, 58, 58
1, 48675, Note_on_c, 0, 87, 93
1, 48677, Note_on_c, 0, 75, 87
1, 48681, Note_on_c, 0, 54, 76
1, 48696, Note_off_c, 0, 75, 72
1, 48717, Note_off_c, 0, 87, 65
1, 48759, Note_on_c, 0, 63, 79
1, 48833, Note_off_c, 0, 63, 63
1, 48836, Note_on_c, 0, 58, 79
1, 48845, Note_on_c, 0, 83, 105
1, 48846, Note_on_c, 0, 95, 104
1, 48872, Note_off_c, 0, 83, 65
1, 48881, Note_off_c, 0, 95, 62
1, 48914, Note_on_c, 0, 66, 75
1, 48940, Note_off_c, 0, 66, 67
1, 48945, Note_off_c, 0, 54, 20
1, 48945, Note_off_c, 0, 58, 60
1, 48971, Control_c, 0, 64, 122
1, 48986, Control_c, 0, 64, 81
1, 49000, Note_on_c, 0, 46, 92
1, 49001, Control_c, 0, 64, 24
1, 49016, Control_c, 0, 64, 0
1, 49060, Control_c, 0, 64, 68
1, 49075, Control_c, 0, 64, 83
1, 49090, Control_c, 0, 64, 108
1, 49105, Control_c, 0, 64, 127
1, 49141, Note_on_c, 0, 53, 67
1, 49154, Note_on_c, 0, 52, 62
1, 49164, Note_off_c, 0, 46, 61
1, 49179, Note_off_c, 0, 52, 54
1, 49240, Note_on_c, 0, 86, 101
1, 49242, Note_on_c, 0, 74, 94
1, 49248, Note_on_c, 0, 56, 84
1, 49262, Note_off_c, 0, 53, 61
1, 49262, Note_off_c, 0, 74, 68
1, 49278, Note_off_c, 0, 86, 65
1, 49400, Note_on_c, 0, 62, 80
1, 49406, Note_off_c, 0, 56, 52
1, 49444, Note_off_c, 0, 62, 62
1, 49659, Note_on_c, 0, 71, 109
1, 49659, Note_on_c, 0, 83, 100
1, 49660, Note_on_c, 0, 95, 100
1, 49689, Note_off_c, 0, 83, 72
1, 49694, Note_off_c, 0, 71, 71
1, 49698, Note_off_c, 0, 95, 67
1, 50306, Control_c, 0, 64, 109
1, 50321, Control_c, 0, 64, 78
1, 50336, Control_c, 0, 64, 0
1, 50535, Note_on_c, 0, 70, 81
1, 50536, Note_on_c, 0, 82, 95
1, 50539, Note_on_c, 0, 94, 102
1, 50555, Note_off_c, 0, 70, 69
1, 50570, Note_off_c, 0, 82, 65
1, 50574, Control_c, 0, 64, 86
1, 50575, Note_off_c, 0, 94, 65
1, 50582, Note_on_c, 0, 92, 20
1, 50583, Note_off_c, 0, 92, 127
1, 50588, Control_c, 0, 64, 127
1, 50625, Note_on_c, 0, 51, 89
1, 50638, Note_on_c, 0, 58, 56
1, 50666, Poly_aftertouch_c, 0, 70, 127
1, 50674, Note_off_c, 0, 58, 64
1, 50688, Note_on_c, 0, 75, 107
1, 50688, Note_on_c, 0, 87, 103
1, 50688, Poly_aftertouch_c, 0, 70, 0
1, 50689, Note_off_c, 0, 51, 66
1, 50705, Note_on_c, 0, 66, 91
1, 50711, Note_off_c, 0, 75, 61
1, 50714, Note_on_c, 0, 59, 28
1, 50717, Note_off_c, 0, 87, 68
1, 50734, Note_off_c, 0, 66, 67
1, 50747, Note_off_c, 0, 59, 47
1, 51010, Note_on_c, 0, 78, 84
1, 51012, Note_on_c, 0, 69, 79
1, 51066, Note_off_c, 0, 69, 63
1, 51072, Note_off_c, 0, 78, 63
1, 51082, Note_on_c, 0, 75, 81
1, 51084, Note_on_c, 0, 80, 83
1, 51084, Control_c, 0, 64, 106
1, 51096, Note_on_c, 0, 72, 72
1, 51099, Control_c, 0, 64, 82
1, 51112, Note_off_c, 0, 80, 65
1, 51114, Note_off_c, 0, 72, 65
1, 51114, Note_off_c, 0, 75, 58
1, 51114, Control_c, 0, 64, 61
1, 51129, Control_c, 0, 64, 0
1, 51145, Note_on_c, 0, 69, 81
1, 51148, Note_on_c, 0, 78, 86
1, 51197, Note_off_c, 0, 69, 62
1, 51206, Note_off_c, 0, 78, 63
1, 51214, Note_on_c, 0, 72, 78
1, 51222, Note_on_c, 0, 77, 81
1, 51255, Note_off_c, 0, 77, 61
1, 51258, Note_off_c, 0, 72, 63
1, 51273, Note_on_c, 0, 78, 81
1, 51279, Note_on_c, 0, 69, 73
1, 51326, Note_off_c, 0, 69, 61
1, 51335, Note_off_c, 0, 78, 63
1, 51346, Note_on_c, 0, 77, 84
1, 51346, Note_on_c, 0, 72, 78
1, 51376, Note_off_c, 0, 72, 67
1, 51382, Note_off_c, 0, 77, 58
1, 51403, Note_on_c, 0, 78, 88
1, 51412, Note_on_c, 0, 69, 74
1, 51451, Note_off_c, 0, 69, 59
1, 51462, Note_off_c, 0, 78, 63
1, 51463, Note_on_c, 0, 80, 83
1, 51465, Note_on_c, 0, 72, 75
1, 51494, Note_off_c, 0, 72, 69
1, 51514, Note_off_c, 0, 80, 64
1, 51515, Control_c, 0, 64, 59
1, 51516, Note_on_c, 0, 69, 83
1, 51516, Note_on_c, 0, 78, 84
1, 51530, Control_c, 0, 64, 92
1, 51544, Control_c, 0, 64, 127
1, 51548, Note_off_c, 0, 78, 63
1, 51568, Note_on_c, 0, 72, 108
1, 51568, Note_on_c, 0, 81, 112
1, 51573, Note_off_c, 0, 69, 67
1, 51588, Note_off_c, 0, 72, 68
1, 51597, Note_off_c, 0, 81, 67
1, 51864, Note_on_c, 0, 51, 101
1, 51868, Note_on_c, 0, 39, 84
1, 51870, Note_on_c, 0, 54, 87
1, 51871, Note_on_c, 0, 45, 81
1, 51875, Note_on_c, 0, 48, 75
1, 51919, Note_on_c, 0, 42, 20
1, 51946, Note_off_c, 0, 54, 41
1, 51963, Note_on_c, 0, 56, 71
1, 51965, Note_off_c, 0, 42, 39
1, 52003, Note_off_c, 0, 39, 61
1, 52047, Note_off_c, 0, 56, 65
1, 52051, Note_off_c, 0, 51, 57
1, 52059, Note_on_c, 0, 54, 73
1, 52096, Note_off_c, 0, 48, 59
1, 52114, Note_off_c, 0, 45, 24
1, 52121, Note_off_c, 0, 54, 63
1, 52151, Note_on_c, 0, 51, 105
1, 52156, Note_on_c, 0, 45, 75
1, 52160, Note_on_c, 0, 39, 87
1, 52166, Note_on_c, 0, 66, 78
1, 52167, Note_on_c, 0, 48, 64
1, 52221, Note_on_c, 0, 68, 72
1, 52223, Note_off_c, 0, 66, 64
1, 52250, Note_off_c, 0, 68, 68
1, 52253, Note_off_c, 0, 39, 61
1, 52282, Note_off_c, 0, 45, 0
1, 52300, Note_on_c, 0, 66, 83
1, 52302, Note_off_c, 0, 51, 59
1, 52319, Poly_aftertouch_c, 0, 45, 127
1, 52327, Note_off_c, 0, 48, 55
1, 52344, Note_off_c, 0, 66, 64
1, 52360, Poly_aftertouch_c, 0, 45, 0
1, 52374, Note_on_c, 0, 45, 47
1, 52377, Note_on_c, 0, 51, 109
1, 52379, Note_on_c, 0, 78, 84
1, 52384, Note_on_c, 0, 39, 86
1, 52405, Note_on_c, 0, 42, 57
1, 52411, Note_off_c, 0, 45, 63
1, 52411, Note_on_c, 0, 75, 30
1, 52429, Note_on_c, 0, 80, 80
1, 52431, Note_off_c, 0, 78, 64
1, 52435, Note_off_c, 0, 42, 64
1, 52443, Note_off_c, 0, 75, 54
1, 52458, Note_off_c, 0, 80, 63
1, 52488, Note_off_c, 0, 39, 52
1, 52505, Note_off_c, 0, 51, 60
1, 52517, Note_on_c, 0, 78, 87
1, 52537, Control_c, 0, 64, 93
1, 52551, Control_c, 0, 64, 62
1, 52554, Note_on_c, 0, 46, 14
1, 52566, Control_c, 0, 64, 0
1, 52570, Note_off_c, 0, 46, 0
1, 52575, Note_off_c, 0, 78, 64
1, 52586, Note_on_c, 0, 51, 103
1, 52587, Note_on_c, 0, 46, 26
1, 52588, Note_on_c, 0, 90, 113
1, 52589, Note_on_c, 0, 39, 78
1, 52596, Control_c, 0, 64, 38
1, 52607, Note_on_c, 0, 42, 48
1, 52611, Control_c, 0, 64, 91
1, 52616, Note_off_c, 0, 39, 69
1, 52622, Note_off_c, 0, 90, 69
1, 52625, Control_c, 0, 64, 127
1, 52639, Note_off_c, 0, 42, 53
1, 52640, Note_off_c, 0, 46, 63
1, 52640, Note_off_c, 0, 51, 65
1, 52663, Note_on_c, 0, 52, 29
1, 52703, Note_off_c, 0, 52, 43
1, 52797, Note_on_c, 0, 69, 80
1, 52813, Note_on_c, 0, 78, 80
1, 52867, Note_off_c, 0, 69, 62
1, 52876, Note_on_c, 0, 75, 88
1, 52881, Note_on_c, 0, 72, 48
1, 52881, Note_off_c, 0, 78, 56
1, 52893, Note_on_c, 0, 79, 67
1, 52913, Note_off_c, 0, 72, 65
1, 52920, Note_off_c, 0, 79, 62
1, 52923, Control_c, 0, 64, 108
1, 52926, Note_off_c, 0, 75, 57
1, 52933, Note_on_c, 0, 78, 83
1, 52938, Control_c, 0, 64, 83
1, 52947, Note_on_c, 0, 69, 79
1, 52952, Note_on_c, 0, 73, 64
1, 52953, Control_c, 0, 64, 55
1, 52967, Control_c, 0, 64, 0
1, 52989, Note_off_c, 0, 73, 65
1, 52992, Note_off_c, 0, 69, 59
1, 53010, Poly_aftertouch_c, 0, 75, 0
1, 53012, Note_off_c, 0, 78, 64
1, 53018, Note_on_c, 0, 77, 87
1, 53019, Note_on_c, 0, 72, 88
1, 53046, Note_off_c, 0, 72, 68
1, 53050, Poly_aftertouch_c, 0, 75, 0
1, 53060, Note_off_c, 0, 77, 59
1, 53064, Note_on_c, 0, 78, 83
1, 53068, Note_on_c, 0, 69, 82
1, 53120, Note_off_c, 0, 69, 60
1, 53134, Note_off_c, 0, 78, 64
1, 53141, Note_on_c, 0, 72, 83
1, 53144, Note_on_c, 0, 77, 83
1, 53169, Note_off_c, 0, 77, 64
1, 53170, Note_off_c, 0, 72, 65
1, 53189, Note_on_c, 0, 78, 92
1, 53201, Note_on_c, 0, 69, 80
1, 53239, Note_off_c, 0, 69, 60
1, 53254, Note_on_c, 0, 80, 87
1, 53263, Note_on_c, 0, 72, 81
1, 53270, Note_off_c, 0, 78, 63
1, 53287, Note_off_c, 0, 72, 69
1, 53308, Note_on_c, 0, 78, 85
1, 53311, Note_off_c, 0, 80, 65
1, 53314, Note_on_c, 0, 69, 82
1, 53331, Control_c, 0, 64, 72
1, 53335, Note_on_c, 0, 70, 47
1, 53336, Note_on_c, 0, 73, 56
1, 53346, Note_off_c, 0, 78, 67
1, 53346, Control_c, 0, 64, 111
1, 53358, Note_off_c, 0, 73, 64
1, 53360, Note_off_c, 0, 70, 60
1, 53360, Control_c, 0, 64, 127
1, 53373, Note_off_c, 0, 69, 65
1, 53374, Note_on_c, 0, 81, 111
1, 53375, Note_on_c, 0, 72, 97
1, 53395, Note_off_c, 0, 72, 72
1, 53400, Note_off_c, 0, 81, 59
1, 53609, Note_on_c, 0, 39, 86
1, 53609, Note_on_c, 0, 51, 105
1, 53615, Note_on_c, 0, 54, 89
1, 53667, Poly_aftertouch_c, 0, 46, 0
1, 53698, Note_off_c, 0, 54, 60
1, 53699, Note_on_c, 0, 56, 76
1, 53718, Note_off_c, 0, 39, 63
1, 53764, Note_off_c, 0, 51, 32
1, 53768, Note_off_c, 0, 56, 64
1, 53779, Note_on_c, 0, 54, 75
1, 53830, Note_off_c, 0, 54, 64
1, 53861, Note_on_c, 0, 51, 109
1, 53867, Note_on_c, 0, 39, 91
1, 53877, Note_on_c, 0, 66, 74
1, 53925, Note_on_c, 0, 68, 72
1, 53926, Note_off_c, 0, 66, 65
1, 53949, Note_off_c, 0, 39, 63
1, 53954, Note_off_c, 0, 68, 68
1, 53986, Note_off_c, 0, 51, 54
1, 53998, Note_on_c, 0, 66, 86
1, 54062, Note_off_c, 0, 66, 64
1, 54089, Note_on_c, 0, 51, 102
1, 54092, Poly_aftertouch_c, 0, 48, 0
1, 54095, Note_on_c, 0, 45, 78
1, 54098, Note_on_c, 0, 78, 86
1, 54100, Note_on_c, 0, 39, 76
1, 54121, Note_on_c, 0, 42, 56
1, 54135, Note_off_c, 0, 45, 62
1, 54151, Note_off_c, 0, 42, 64
1, 54155, Note_off_c, 0, 78, 66
1, 54161, Note_on_c, 0, 80, 75
1, 54187, Note_off_c, 0, 80, 69
1, 54208, Note_off_c, 0, 39, 47
1, 54223, Note_off_c, 0, 51, 54
1, 54238, Note_on_c, 0, 78, 85
1, 54268, Note_on_c, 0, 46, 10
1, 54272, Control_c, 0, 64, 89
1, 54287, Control_c, 0, 64, 54
1, 54289, Note_off_c, 0, 78, 63
1, 54300, Note_off_c, 0, 46, 45
1, 54302, Control_c, 0, 64, 0
1, 54315, Poly_aftertouch_c, 0, 46, 0
1, 54317, Note_on_c, 0, 51, 114
1, 54321, Note_on_c, 0, 90, 95
1, 54323, Note_on_c, 0, 39, 86
1, 54333, Note_on_c, 0, 47, 71
1, 54346, Control_c, 0, 64, 69
1, 54349, Note_on_c, 0, 52, 53
1, 54351, Note_on_c, 0, 42, 45
1, 54354, Note_on_c, 0, 44, 42
1, 54361, Control_c, 0, 64, 98
1, 54376, Control_c, 0, 64, 127
1, 54381, Note_off_c, 0, 52, 56
1, 54402, Note_off_c, 0, 90, 66
1, 54404, Note_on_c, 0, 92, 83
1, 54411, Note_off_c, 0, 44, 40
1, 54448, Note_off_c, 0, 42, 57
1, 54470, Note_off_c, 0, 39, 61
1, 54475, Note_on_c, 0, 90, 81
1, 54500, Note_off_c, 0, 51, 58
1, 54502, Note_off_c, 0, 47, 55
1, 54511, Note_off_c, 0, 92, 64
1, 54533, Note_off_c, 0, 90, 63
1, 54542, Note_on_c, 0, 78, 81
1, 54609, Note_off_c, 0, 78, 63
1, 54619, Note_on_c, 0, 80, 75
1, 54680, Note_off_c, 0, 80, 66
1, 54689, Note_on_c, 0, 78, 83
1, 54735, Note_off_c, 0, 78, 64
1, 54747, Control_c, 0, 64, 122
1, 54769, Control_c, 0, 64, 80
1, 54784, Control_c, 0, 64, 0
1, 54790, Note_on_c, 0, 49, 99
1, 54796, Note_on_c, 0, 37, 83
1, 54796, Note_on_c, 0, 47, 82
1, 54797, Note_on_c, 0, 92, 87
1, 54798, Note_on_c, 0, 41, 76
1, 54828, Control_c, 0, 64, 41
1, 54830, Note_on_c, 0, 90, 34
1, 54841, Note_on_c, 0, 91, 40
1, 54843, Control_c, 0, 64, 77
1, 54845, Note_on_c, 0, 39, 26
1, 54849, Note_off_c, 0, 90, 52
1, 54858, Control_c, 0, 64, 127
1, 54874, Note_off_c, 0, 91, 47
1, 54876, Note_on_c, 0, 94, 89
1, 54879, Note_off_c, 0, 92, 65
1, 54882, Note_off_c, 0, 41, 62
1, 54884, Note_off_c, 0, 37, 63
1, 54891, Note_off_c, 0, 39, 47
1, 54908, Note_off_c, 0, 47, 62
1, 54934, Note_off_c, 0, 49, 62
1, 54947, Note_on_c, 0, 92, 82
1, 54984, Note_off_c, 0, 94, 64
1, 55010, Note_off_c, 0, 92, 65
1, 55025, Note_on_c, 0, 80, 85
1, 55091, Note_off_c, 0, 80, 64
1, 55094, Note_on_c, 0, 82, 79
1, 55162, Note_off_c, 0, 82, 69
1, 55171, Note_on_c, 0, 80, 88
1, 55175, Note_on_c, 0, 49, 31
1, 55200, Control_c, 0, 64, 104
1, 55202, Note_off_c, 0, 49, 60
1, 55214, Note_off_c, 0, 80, 66
1, 55215, Control_c, 0, 64, 73
1, 55229, Control_c, 0, 64, 0
1, 55248, Note_on_c, 0, 54, 100
1, 55251, Note_on_c, 0, 42, 83
1, 55252, Note_on_c, 0, 46, 78
1, 55254, Note_on_c, 0, 95, 101
1, 55259, Control_c, 0, 64, 61
1, 55274, Control_c, 0, 64, 77
1, 55287, Note_on_c, 0, 49, 18
1, 55289, Control_c, 0, 64, 108
1, 55291, Note_off_c, 0, 46, 60
1, 55304, Control_c, 0, 64, 127
1, 55311, Note_off_c, 0, 42, 62
1, 55324, Note_off_c, 0, 49, 53
1, 55325, Note_on_c, 0, 94, 87
1, 55344, Note_off_c, 0, 54, 54
1, 55353, Note_off_c, 0, 95, 63
1, 55400, Note_on_c, 0, 82, 82
1, 55418, Note_off_c, 0, 94, 64
1, 55465, Control_c, 0, 64, 83
1, 55479, Note_off_c, 0, 82, 67
1, 55479, Control_c, 0, 64, 61
1, 55487, Note_on_c, 0, 44, 85
1, 55488, Note_on_c, 0, 53, 78
1, 55491, Note_on_c, 0, 56, 104
1, 55494, Control_c, 0, 64, 0
1, 55503, Note_on_c, 0, 94, 99
1, 55517, Note_on_c, 0, 47, 48
1, 55517, Control_c, 0, 64, 61
1, 55532, Control_c, 0, 64, 75
1, 55546, Control_c, 0, 64, 99
1, 55547, Note_off_c, 0, 47, 59
1, 55561, Control_c, 0, 64, 127
1, 55576, Note_on_c, 0, 92, 84
1, 55587, Note_off_c, 0, 44, 62
1, 55621, Note_off_c, 0, 94, 63
1, 55639, Note_off_c, 0, 56, 59
1, 55654, Note_on_c, 0, 80, 87
1, 55661, Note_off_c, 0, 92, 62
1, 55680, Control_c, 0, 64, 106
1, 55694, Control_c, 0, 64, 74
1, 55699, Note_off_c, 0, 53, 52
1, 55709, Control_c, 0, 64, 0
1, 55713, Note_off_c, 0, 80, 64
1, 55731, Note_on_c, 0, 58, 105
1, 55731, Note_on_c, 0, 51, 86
1, 55738, Note_on_c, 0, 92, 95
1, 55739, Control_c, 0, 64, 53
1, 55749, Note_on_c, 0, 46, 72
1, 55754, Control_c, 0, 64, 80
1, 55768, Control_c, 0, 64, 127
1, 55770, Note_on_c, 0, 93, 52
1, 55793, Note_off_c, 0, 93, 59
1, 55806, Note_on_c, 0, 90, 83
1, 55818, Note_off_c, 0, 51, 60
1, 55821, Poly_aftertouch_c, 0, 49, 127
1, 55822, Note_off_c, 0, 46, 60
1, 55851, Poly_aftertouch_c, 0, 49, 0
1, 55851, Note_off_c, 0, 92, 62
1, 55871, Note_off_c, 0, 58, 36
1, 55883, Note_on_c, 0, 78, 86
1, 55892, Note_off_c, 0, 90, 63
1, 55921, Poly_aftertouch_c, 0, 91, 0
1, 55939, Note_off_c, 0, 78, 64
1, 55964, Note_on_c, 0, 58, 99
1, 55967, Note_on_c, 0, 46, 80
1, 55967, Note_on_c, 0, 90, 89
1, 55968, Note_on_c, 0, 56, 64
1, 55993, Note_on_c, 0, 50, 24
1, 56013, Note_off_c, 0, 46, 64
1, 56019, Note_off_c, 0, 56, 62
1, 56019, Note_off_c, 0, 90, 51
1, 56028, Note_on_c, 0, 91, 33
1, 56032, Note_on_c, 0, 89, 79
1, 56032, Note_off_c, 0, 50, 42
1, 56035, Note_off_c, 0, 58, 61
1, 56057, Note_off_c, 0, 91, 49
1, 56107, Note_on_c, 0, 77, 78
1, 56107, Note_off_c, 0, 89, 66
1, 56146, Note_off_c, 0, 77, 62
1, 56170, Control_c, 0, 64, 83
1, 56184, Control_c, 0, 64, 42
1, 56199, Control_c, 0, 64, 0
1, 56208, Note_on_c, 0, 75, 95
1, 56208, Note_on_c, 0, 63, 105
1, 56213, Note_on_c, 0, 51, 91
1, 56213, Note_on_c, 0, 87, 88
1, 56219, Note_on_c, 0, 54, 66
1, 56229, Control_c, 0, 64, 74
1, 56238, Note_off_c, 0, 87, 68
1, 56244, Note_off_c, 0, 75, 64
1, 56244, Control_c, 0, 64, 127
1, 56262, Note_off_c, 0, 54, 64
1, 56267, Note_off_c, 0, 63, 66
1, 56268, Note_off_c, 0, 51, 66
1, 56450, Note_on_c, 0, 57, 76
1, 56456, Note_on_c, 0, 66, 85
1, 56503, Control_c, 0, 64, 98
1, 56518, Note_off_c, 0, 66, 65
1, 56518, Control_c, 0, 64, 76
1, 56519, Note_off_c, 0, 57, 57
1, 56522, Note_on_c, 0, 63, 82
1, 56527, Note_on_c, 0, 60, 59
1, 56528, Note_on_c, 0, 68, 75
1, 56533, Control_c, 0, 64, 0
1, 56554, Note_off_c, 0, 60, 65
1, 56566, Note_off_c, 0, 63, 59
1, 56569, Note_off_c, 0, 68, 61
1, 56585, Note_on_c, 0, 66, 88
1, 56587, Note_on_c, 0, 57, 75
1, 56639, Note_on_c, 0, 60, 32
1, 56642, Note_off_c, 0, 57, 62
1, 56656, Note_off_c, 0, 66, 64
1, 56660, Note_on_c, 0, 65, 88
1, 56705, Note_off_c, 0, 60, 62
1, 56709, Note_off_c, 0, 65, 66
1, 56718, Note_on_c, 0, 66, 90
1, 56721, Note_on_c, 0, 57, 86
1, 56779, Note_off_c, 0, 57, 62
1, 56789, Note_on_c, 0, 60, 59
1, 56794, Note_on_c, 0, 65, 90
1, 56794, Note_off_c, 0, 66, 66
1, 56829, Note_off_c, 0, 60, 63
1, 56841, Note_off_c, 0, 65, 66
1, 56851, Note_on_c, 0, 66, 90
1, 56855, Note_on_c, 0, 57, 84
1, 56907, Note_off_c, 0, 57, 63
1, 56919, Note_on_c, 0, 68, 86
1, 56919, Note_off_c, 0, 66, 64
1, 56922, Note_on_c, 0, 63, 73
1, 56930, Note_on_c, 0, 60, 52
1, 56948, Note_off_c, 0, 63, 66
1, 56955, Note_off_c, 0, 60, 54
1, 56971, Note_off_c, 0, 68, 64
1, 56975, Note_on_c, 0, 66, 92
1, 56977, Note_on_c, 0, 57, 90
1, 57025, Note_off_c, 0, 66, 67
1, 57030, Control_c, 0, 64, 84
1, 57044, Note_off_c, 0, 57, 66
1, 57045, Control_c, 0, 64, 127
1, 57049, Note_on_c, 0, 63, 78
1, 57049, Note_on_c, 0, 69, 100
1, 57051, Note_on_c, 0, 60, 92
1, 57086, Note_off_c, 0, 60, 54
1, 57117, Note_off_c, 0, 63, 58
1, 57277, Note_off_c, 0, 69, 54
1, 57297, Note_on_c, 0, 51, 103
1, 57298, Note_on_c, 0, 39, 89
1, 57300, Note_on_c, 0, 63, 89
1, 57385, Note_off_c, 0, 63, 61
1, 57387, Note_on_c, 0, 65, 78
1, 57465, Note_off_c, 0, 39, 61
1, 57468, Note_off_c, 0, 65, 64
1, 57469, Note_on_c, 0, 63, 89
1, 57476, Note_off_c, 0, 51, 61
1, 57524, Note_off_c, 0, 63, 66
1, 57553, Note_on_c, 0, 51, 103
1, 57557, Note_on_c, 0, 39, 87
1, 57562, Note_on_c, 0, 75, 81
1, 57564, Note_on_c, 0, 48, 59
1, 57571, Note_on_c, 0, 52, 84
1, 57602, Note_on_c, 0, 50, 43
1, 57630, Note_off_c, 0, 50, 53
1, 57632, Note_on_c, 0, 77, 77
1, 57639, Note_off_c, 0, 75, 62
1, 57642, Note_on_c, 0, 76, 25
1, 57657, Note_off_c, 0, 52, 51
1, 57659, Note_off_c, 0, 77, 66
1, 57663, Note_on_c, 0, 79, 75
1, 57676, Note_off_c, 0, 79, 69
1, 57678, Note_off_c, 0, 76, 45
1, 57689, Note_off_c, 0, 39, 57
1, 57696, Note_off_c, 0, 51, 59
1, 57707, Note_on_c, 0, 75, 85
1, 57734, Note_off_c, 0, 48, 57
1, 57779, Note_off_c, 0, 75, 65
1, 57785, Note_on_c, 0, 45, 84
1, 57785, Note_on_c, 0, 51, 99
1, 57792, Note_on_c, 0, 87, 87
1, 57808, Note_on_c, 0, 39, 72
1, 57839, Note_on_c, 0, 42, 25
1, 57848, Note_off_c, 0, 45, 62
1, 57853, Note_on_c, 0, 89, 87
1, 57854, Note_off_c, 0, 87, 67
1, 57879, Note_off_c, 0, 42, 44
1, 57890, Note_off_c, 0, 39, 61
1, 57891, Note_off_c, 0, 89, 66
1, 57920, Note_off_c, 0, 51, 56
1, 57933, Note_on_c, 0, 87, 90
1, 57942, Control_c, 0, 64, 105
1, 57956, Control_c, 0, 64, 71
1, 57971, Control_c, 0, 64, 0
1, 58000, Note_off_c, 0, 87, 68
1, 58001, Note_on_c, 0, 99, 113
1, 58001, Control_c, 0, 64, 31
1, 58002, Note_on_c, 0, 51, 104
1, 58003, Note_on_c, 0, 39, 82
1, 58003, Note_on_c, 0, 46, 62
1, 58016, Control_c, 0, 64, 90
1, 58026, Note_on_c, 0, 42, 54
1, 58030, Note_off_c, 0, 99, 69
1, 58030, Control_c, 0, 64, 127
1, 58039, Note_off_c, 0, 39, 65
1, 58055, Note_off_c, 0, 42, 55
1, 58062, Note_off_c, 0, 46, 63
1, 58065, Note_off_c, 0, 51, 64
1, 58212, Note_on_c, 0, 57, 70
1, 58237, Note_on_c, 0, 66, 86
1, 58296, Note_off_c, 0, 57, 60
1, 58301, Note_off_c, 0, 66, 64
1, 58304, Note_on_c, 0, 68, 89
1, 58318, Note_on_c, 0, 60, 64
1, 58324, Note_on_c, 0, 64, 54
1, 58326, Control_c, 0, 64, 98
1, 58332, Note_on_c, 0, 62, 49
1, 58337, Note_off_c, 0, 60, 61
1, 58341, Control_c, 0, 64, 72
1, 58345, Note_off_c, 0, 64, 60
1, 58355, Control_c, 0, 64, 0
1, 58357, Note_off_c, 0, 62, 55
1, 58360, Note_off_c, 0, 68, 61
1, 58363, Note_on_c, 0, 66, 85
1, 58364, Note_on_c, 0, 57, 78
1, 58427, Note_off_c, 0, 57, 63
1, 58435, Note_on_c, 0, 60, 72
1, 58435, Note_off_c, 0, 66, 66
1, 58440, Note_on_c, 0, 65, 88
1, 58477, Note_off_c, 0, 60, 62
1, 58486, Note_off_c, 0, 65, 64
1, 58507, Note_on_c, 0, 57, 88
1, 58508, Note_on_c, 0, 66, 96
1, 58567, Note_off_c, 0, 57, 61
1, 58574, Note_on_c, 0, 60, 77
1, 58574, Note_on_c, 0, 65, 88
1, 58576, Note_off_c, 0, 66, 65
1, 58603, Note_off_c, 0, 60, 64
1, 58617, Note_off_c, 0, 65, 63
1, 58631, Note_on_c, 0, 66, 95
1, 58634, Note_on_c, 0, 57, 85
1, 58690, Note_off_c, 0, 57, 63
1, 58698, Note_on_c, 0, 60, 67
1, 58698, Note_on_c, 0, 68, 88
1, 58706, Note_on_c, 0, 63, 65
1, 58709, Note_off_c, 0, 66, 63
1, 58724, Note_off_c, 0, 60, 64
1, 58731, Note_off_c, 0, 63, 67
1, 58741, Note_off_c, 0, 68, 67
1, 58754, Note_on_c, 0, 66, 92
1, 58756, Note_on_c, 0, 57, 89
1, 58798, Note_off_c, 0, 66, 68
1, 58808, Control_c, 0, 64, 53
1, 58818, Note_on_c, 0, 63, 80
1, 58820, Note_on_c, 0, 60, 82
1, 58820, Note_on_c, 0, 69, 106
1, 58822, Control_c, 0, 64, 93
1, 58825, Note_off_c, 0, 57, 66
1, 58837, Control_c, 0, 64, 127
1, 58855, Note_off_c, 0, 63, 61
1, 58858, Note_off_c, 0, 60, 59
1, 59019, Note_off_c, 0, 69, 58
1, 59050, Note_on_c, 0, 63, 90
1, 59057, Note_on_c, 0, 51, 105
1, 59058, Note_on_c, 0, 39, 90
1, 59115, Note_off_c, 0, 63, 61
1, 59135, Note_on_c, 0, 65, 59
1, 59140, Note_on_c, 0, 64, 65
1, 59177, Note_off_c, 0, 64, 63
1, 59200, Note_off_c, 0, 39, 60
1, 59201, Note_off_c, 0, 65, 65
1, 59206, Note_on_c, 0, 63, 82
1, 59214, Note_off_c, 0, 51, 61
1, 59273, Note_off_c, 0, 63, 64
1, 59301, Note_on_c, 0, 51, 104
1, 59305, Note_on_c, 0, 75, 83
1, 59306, Note_on_c, 0, 39, 86
1, 59340, Note_on_c, 0, 52, 44
1, 59358, Note_on_c, 0, 48, 3
1, 59370, Note_off_c, 0, 52, 52
1, 59375, Note_on_c, 0, 77, 80
1, 59377, Note_off_c, 0, 48, 0
1, 59380, Note_off_c, 0, 75, 63
1, 59397, Poly_aftertouch_c, 0, 42, 127
1, 59407, Poly_aftertouch_c, 0, 48, 0
1, 59414, Note_off_c, 0, 77, 65
1, 59419, Note_off_c, 0, 39, 61
1, 59429, Note_on_c, 0, 48, 11
1, 59431, Poly_aftertouch_c, 0, 42, 0
1, 59443, Note_off_c, 0, 51, 52
1, 59446, Note_on_c, 0, 75, 86
1, 59487, Note_off_c, 0, 48, 58
1, 59523, Note_off_c, 0, 75, 61
1, 59529, Note_on_c, 0, 51, 98
1, 59532, Note_on_c, 0, 45, 71
1, 59533, Note_on_c, 0, 87, 87
1, 59538, Note_on_c, 0, 39, 70
1, 59562, Note_on_c, 0, 82, 21
1, 59571, Note_on_c, 0, 42, 29
1, 59573, Note_off_c, 0, 45, 63
1, 59589, Note_off_c, 0, 87, 71
1, 59598, Note_on_c, 0, 89, 84
1, 59600, Note_off_c, 0, 82, 33
1, 59610, Note_off_c, 0, 42, 45
1, 59656, Note_off_c, 0, 89, 63
1, 59684, Note_on_c, 0, 87, 97
1, 59695, Note_off_c, 0, 39, 61
1, 59698, Note_off_c, 0, 51, 61
1, 59750, Control_c, 0, 64, 98
1, 59756, Note_off_c, 0, 87, 64
1, 59764, Note_on_c, 0, 51, 103
1, 59764, Control_c, 0, 64, 65
1, 59767, Note_on_c, 0, 46, 69
1, 59768, Note_on_c, 0, 39, 82
1, 59771, Note_on_c, 0, 42, 50
1, 59776, Note_on_c, 0, 99, 104
1, 59779, Control_c, 0, 64, 0
1, 59854, Control_c, 0, 64, 76
1, 59869, Control_c, 0, 64, 106
1, 59872, Note_on_c, 0, 101, 89
1, 59878, Note_off_c, 0, 99, 66
1, 59884, Control_c, 0, 64, 127
1, 59939, Note_off_c, 0, 42, 59
1, 59949, Note_on_c, 0, 99, 88
1, 59956, Note_off_c, 0, 46, 62
1, 59972, Note_off_c, 0, 101, 59
1, 59982, Note_off_c, 0, 39, 61
1, 60018, Note_off_c, 0, 99, 66
1, 60021, Note_off_c, 0, 51, 60
1, 60026, Note_on_c, 0, 87, 86
1, 60098, Note_on_c, 0, 89, 86
1, 60119, Note_off_c, 0, 87, 65
1, 60172, Note_on_c, 0, 87, 82
1, 60172, Note_off_c, 0, 89, 68
1, 60226, Note_off_c, 0, 87, 66
1, 60232, Control_c, 0, 64, 108
1, 60247, Control_c, 0, 64, 69
1, 60252, Note_on_c, 0, 53, 101
1, 60255, Note_on_c, 0, 44, 82
1, 60255, Note_on_c, 0, 49, 87
1, 60255, Note_on_c, 0, 97, 95
1, 60257, Note_on_c, 0, 41, 87
1, 60262, Control_c, 0, 64, 0
1, 60273, Note_on_c, 0, 96, 69
1, 60301, Note_off_c, 0, 96, 64
1, 60322, Control_c, 0, 64, 70
1, 60334, Note_on_c, 0, 99, 91
1, 60337, Control_c, 0, 64, 95
1, 60343, Note_off_c, 0, 97, 65
1, 60351, Control_c, 0, 64, 127
1, 60409, Note_on_c, 0, 97, 81
1, 60413, Note_off_c, 0, 41, 63
1, 60444, Note_off_c, 0, 99, 65
1, 60447, Note_off_c, 0, 44, 59
1, 60450, Note_off_c, 0, 53, 60
1, 60473, Note_off_c, 0, 97, 65
1, 60484, Note_on_c, 0, 85, 80
1, 60491, Note_off_c, 0, 49, 60
1, 60563, Note_on_c, 0, 87, 81
1, 60563, Note_off_c, 0, 85, 65
1, 60637, Note_on_c, 0, 85, 89
1, 60638, Note_off_c, 0, 87, 67
1, 60687, Note_on_c, 0, 49, 3
1, 60692, Control_c, 0, 64, 95
1, 60698, Note_off_c, 0, 85, 64
1, 60706, Control_c, 0, 64, 68
1, 60721, Control_c, 0, 64, 0
1, 60727, Note_on_c, 0, 54, 98
1, 60727, Note_on_c, 0, 95, 103
1, 60730, Note_on_c, 0, 42, 77
1, 60730, Note_off_c, 0, 49, 39
1, 60733, Note_on_c, 0, 46, 81
1, 60758, Control_c, 0, 64, 51
1, 60774, Control_c, 0, 64, 70
1, 60787, Note_off_c, 0, 46, 59
1, 60789, Control_c, 0, 64, 88
1, 60803, Note_off_c, 0, 42, 61
1, 60804, Control_c, 0, 64, 127
1, 60828, Note_on_c, 0, 94, 85
1, 60829, Note_off_c, 0, 54, 52
1, 60855, Note_off_c, 0, 95, 64
1, 60907, Note_on_c, 0, 82, 82
1, 60924, Note_off_c, 0, 94, 65
1, 60967, Control_c, 0, 64, 96
1, 60981, Control_c, 0, 64, 70
1, 60988, Note_off_c, 0, 82, 66
1, 60996, Control_c, 0, 64, 0
1, 60999, Note_on_c, 0, 44, 83
1, 61001, Note_on_c, 0, 56, 99
1, 61004, Note_on_c, 0, 47, 72
1, 61005, Note_on_c, 0, 53, 81
1, 61013, Note_on_c, 0, 94, 97
1, 61025, Control_c, 0, 64, 42
1, 61040, Control_c, 0, 64, 73
1, 61055, Control_c, 0, 64, 97
1, 61070, Control_c, 0, 64, 127
1, 61073, Note_off_c, 0, 47, 61
1, 61084, Note_off_c, 0, 44, 63
1, 61096, Note_on_c, 0, 92, 85
1, 61136, Note_off_c, 0, 94, 60
1, 61137, Note_off_c, 0, 56, 55
1, 61177, Note_on_c, 0, 80, 86
1, 61200, Note_off_c, 0, 92, 62
1, 61248, Control_c, 0, 64, 83
1, 61256, Note_off_c, 0, 53, 56
1, 61263, Control_c, 0, 64, 51
1, 61265, Note_off_c, 0, 80, 64
1, 61278, Control_c, 0, 64, 0
1, 61279, Note_on_c, 0, 58, 99
1, 61281, Note_on_c, 0, 51, 80
1, 61285, Note_on_c, 0, 92, 102
1, 61289, Note_on_c, 0, 46, 79
1, 61307, Control_c, 0, 64, 56
1, 61322, Control_c, 0, 64, 76
1, 61323, Note_on_c, 0, 56, 31
1, 61324, Note_off_c, 0, 56, 127
1, 61337, Control_c, 0, 64, 127
1, 61365, Note_off_c, 0, 51, 62
1, 61381, Note_off_c, 0, 46, 60
1, 61389, Note_on_c, 0, 90, 85
1, 61413, Poly_aftertouch_c, 0, 49, 0
1, 61420, Note_off_c, 0, 92, 62
1, 61428, Note_off_c, 0, 58, 56
1, 61485, Note_on_c, 0, 78, 88
1, 61519, Note_off_c, 0, 90, 62
1, 61574, Note_off_c, 0, 78, 61
1, 61598, Note_on_c, 0, 56, 75
1, 61599, Note_on_c, 0, 58, 93
1, 61601, Note_on_c, 0, 46, 78
1, 61615, Note_on_c, 0, 90, 102
1, 61631, Note_off_c, 0, 58, 62
1, 61633, Note_off_c, 0, 56, 62
1, 61670, Note_off_c, 0, 90, 69
1, 61681, Note_off_c, 0, 46, 64
1, 61748, Note_on_c, 0, 89, 96
1, 61861, Note_off_c, 0, 89, 65
1, 61882, Note_on_c, 0, 77, 91
1, 61920, Note_off_c, 0, 77, 67
1, 62003, Note_on_c, 0, 39, 73
1, 62018, Note_on_c, 0, 42, 70
1, 62064, Poly_aftertouch_c, 0, 51, 127
1, 62085, Note_on_c, 0, 46, 78
1, 62108, Poly_aftertouch_c, 0, 51, 0
1, 62145, Control_c, 0, 64, 103
1, 62160, Control_c, 0, 64, 74
1, 62174, Control_c, 0, 64, 0
1, 62191, Note_on_c, 0, 51, 95
1, 62198, Note_on_c, 0, 63, 107
1, 62227, Note_on_c, 0, 70, 62
1, 62228, Note_off_c, 0, 70, 127
1, 62234, Control_c, 0, 64, 73
1, 62256, Control_c, 0, 64, 100
1, 62271, Control_c, 0, 64, 127
1, 62293, Poly_aftertouch_c, 0, 73, 127
1, 62336, Poly_aftertouch_c, 0, 73, 0
1, 62385, Note_on_c, 0, 66, 90
1, 62385, Note_on_c, 0, 75, 82
1, 62388, Note_off_c, 0, 63, 60
1, 62484, Note_off_c, 0, 66, 64
1, 62504, Note_on_c, 0, 70, 85
1, 62505, Note_off_c, 0, 75, 64
1, 62549, Note_off_c, 0, 70, 66
1, 62610, Note_off_c, 0, 39, 62
1, 62612, Note_off_c, 0, 42, 59
1, 62623, Note_on_c, 0, 75, 96
1, 62623, Note_off_c, 0, 46, 17
1, 62640, Note_off_c, 0, 51, 62
1, 62696, Note_off_c, 0, 75, 58
1, 62720, Note_on_c, 0, 87, 87
1, 62721, Note_on_c, 0, 78, 83
1, 62794, Note_off_c, 0, 78, 64
1, 62800, Note_on_c, 0, 82, 88
1, 62819, Note_off_c, 0, 87, 66
1, 62836, Note_off_c, 0, 82, 70
1, 62891, Note_on_c, 0, 51, 89
1, 62891, Note_on_c, 0, 63, 105
1, 62897, Note_on_c, 0, 87, 102
1, 62936, Note_off_c, 0, 63, 62
1, 62945, Note_off_c, 0, 87, 67
1, 62964, Note_on_c, 0, 99, 89
1, 62968, Note_off_c, 0, 51, 62
1, 63001, Note_on_c, 0, 97, 47
1, 63031, Note_off_c, 0, 97, 39
1, 63033, Note_on_c, 0, 94, 82
1, 63057, Note_off_c, 0, 99, 65
1, 63079, Note_off_c, 0, 94, 67
1, 63423, Note_on_c, 0, 63, 117
1, 63437, Note_on_c, 0, 51, 81
1, 63575, Note_on_c, 0, 39, 54
1, 63586, Note_on_c, 0, 41, 47
1, 63589, Note_on_c, 0, 44, 70
1, 63601, Note_on_c, 0, 47, 63
1, 63609, Note_off_c, 0, 51, 63
1, 63653, Note_off_c, 0, 63, 57
1, 63672, Control_c, 0, 64, 84
1, 63687, Control_c, 0, 64, 33
1, 63691, Note_on_c, 0, 62, 99
1, 63701, Note_on_c, 0, 50, 99
1, 63702, Control_c, 0, 64, 0
1, 63732, Control_c, 0, 64, 55
1, 63753, Note_on_c, 0, 69, 20
1, 63753, Control_c, 0, 64, 73
1, 63768, Control_c, 0, 64, 95
1, 63783, Control_c, 0, 64, 127
1, 63795, Note_off_c, 0, 69, 33
1, 63809, Note_off_c, 0, 62, 60
1, 63845, Note_on_c, 0, 74, 82
1, 63848, Note_on_c, 0, 65, 88
1, 63940, Note_off_c, 0, 65, 63
1, 63950, Note_off_c, 0, 74, 63
1, 63951, Note_on_c, 0, 68, 83
1, 63994, Note_off_c, 0, 68, 66
1, 64054, Note_on_c, 0, 74, 99
1, 64054, Note_off_c, 0, 47, 61
1, 64059, Note_off_c, 0, 39, 62
1, 64063, Note_off_c, 0, 44, 60
1, 64064, Note_off_c, 0, 41, 41
1, 64085, Note_off_c, 0, 50, 63
1, 64124, Note_off_c, 0, 74, 62
1, 64145, Note_on_c, 0, 77, 86
1, 64149, Note_on_c, 0, 86, 78
1, 64204, Note_off_c, 0, 77, 62
1, 64221, Note_on_c, 0, 80, 80
1, 64260, Note_off_c, 0, 80, 66
1, 64263, Note_off_c, 0, 86, 64
1, 64306, Note_on_c, 0, 86, 86
1, 64364, Note_off_c, 0, 86, 65
1, 64379, Note_on_c, 0, 89, 79
1, 64379, Note_on_c, 0, 98, 81
1, 64400, Note_on_c, 0, 96, 66
1, 64418, Note_off_c, 0, 96, 59
1, 64439, Note_on_c, 0, 92, 91
1, 64450, Note_off_c, 0, 89, 67
1, 64461, Note_off_c, 0, 98, 66
1, 64504, Note_off_c, 0, 92, 66
1, 64513, Note_on_c, 0, 50, 89
1, 64513, Note_on_c, 0, 62, 103
1, 64552, Note_off_c, 0, 62, 65
1, 64589, Note_off_c, 0, 50, 64
1, 64628, Poly_aftertouch_c, 0, 52, 0
1, 64797, Note_on_c, 0, 43, 23
1, 64799, Note_on_c, 0, 39, 75
1, 64835, Note_on_c, 0, 46, 77
1, 64889, Control_c, 0, 64, 80
1, 64889, Note_on_c, 0, 61, 103
1, 64901, Note_on_c, 0, 49, 98
1, 64904, Control_c, 0, 64, 0
1, 64923, Note_off_c, 0, 43, 61
1, 64942, Note_on_c, 0, 73, 46
1, 64945, Note_off_c, 0, 46, 64
1, 64948, Control_c, 0, 64, 28
1, 64963, Control_c, 0, 64, 70
1, 64975, Note_off_c, 0, 39, 64
1, 64978, Control_c, 0, 64, 93
1, 64992, Control_c, 0, 64, 127
1, 64997, Note_off_c, 0, 49, 64
1, 65047, Note_off_c, 0, 61, 62
1, 65070, Note_off_c, 0, 73, 61
1, 65076, Note_on_c, 0, 67, 61
1, 65088, Poly_aftertouch_c, 0, 64, 127
1, 65110, Note_off_c, 0, 67, 65
1, 65127, Poly_aftertouch_c, 0, 64, 0
1, 65246, Note_on_c, 0, 73, 90
1, 65252, Note_on_c, 0, 61, 109
1, 65253, Note_on_c, 0, 49, 88
1, 65285, Note_on_c, 0, 51, 47
1, 65289, Note_on_c, 0, 82, 27
1, 65291, Note_on_c, 0, 85, 49
1, 65308, Note_off_c, 0, 73, 60
1, 65315, Note_off_c, 0, 49, 66
1, 65318, Note_off_c, 0, 51, 51
1, 65319, Note_off_c, 0, 82, 61
1, 65355, Note_on_c, 0, 79, 70
1, 65377, Note_off_c, 0, 85, 55
1, 65381, Note_off_c, 0, 61, 58
1, 65395, Note_off_c, 0, 79, 64
1, 65456, Poly_aftertouch_c, 0, 58, 127
1, 65480, Note_on_c, 0, 51, 92
1, 65480, Note_on_c, 0, 63, 100
1, 65485, Note_on_c, 0, 85, 76
1, 65489, Poly_aftertouch_c, 0, 58, 0
1, 65541, Note_on_c, 0, 97, 78
1, 65542, Note_off_c, 0, 85, 64
1, 65585, Note_off_c, 0, 63, 62
1, 65586, Note_off_c, 0, 51, 64
1, 65588, Note_on_c, 0, 91, 45
1, 65623, Note_off_c, 0, 97, 66
1, 65626, Note_on_c, 0, 92, 5
1, 65644, Note_off_c, 0, 91, 66
1, 65653, Note_off_c, 0, 92, 32
1, 65699, Note_on_c, 0, 64, 100
1, 65699, Note_on_c, 0, 52, 89
1, 65735, Note_off_c, 0, 64, 67
1, 65765, Note_off_c, 0, 52, 61
1, 65852, Note_on_c, 0, 39, 80
1, 65869, Note_on_c, 0, 45, 56
1, 65883, Note_on_c, 0, 44, 50
1, 65912, Note_off_c, 0, 44, 54
1, 65919, Control_c, 0, 64, 89
1, 65927, Note_on_c, 0, 48, 74
1, 65932, Note_off_c, 0, 39, 64
1, 65934, Control_c, 0, 64, 28
1, 65944, Note_on_c, 0, 60, 98
1, 65946, Note_on_c, 0, 66, 87
1, 65948, Note_on_c, 0, 54, 96
1, 65948, Control_c, 0, 64, 0
1, 65966, Poly_aftertouch_c, 0, 42, 0
1, 65978, Control_c, 0, 64, 64
1, 65998, Note_off_c, 0, 48, 61
1, 66001, Control_c, 0, 64, 87
1, 66015, Control_c, 0, 64, 127
1, 66019, Note_off_c, 0, 45, 36
1, 66028, Note_off_c, 0, 60, 57
1, 66029, Note_on_c, 0, 72, 86
1, 66061, Note_off_c, 0, 66, 63
1, 66069, Poly_aftertouch_c, 0, 44, 0
1, 66072, Note_off_c, 0, 54, 61
1, 66078, Note_on_c, 0, 63, 75
1, 66102, Note_off_c, 0, 63, 67
1, 66118, Note_off_c, 0, 72, 63
1, 66176, Note_on_c, 0, 72, 97
1, 66245, Note_off_c, 0, 72, 64
1, 66254, Note_on_c, 0, 84, 89
1, 66256, Note_on_c, 0, 75, 88
1, 66303, Poly_aftertouch_c, 0, 58, 127
1, 66331, Note_off_c, 0, 75, 67
1, 66333, Note_on_c, 0, 78, 82
1, 66337, Note_on_c, 0, 51, 88
1, 66338, Note_on_c, 0, 63, 98
1, 66346, Poly_aftertouch_c, 0, 58, 0
1, 66370, Note_off_c, 0, 78, 66
1, 66373, Note_off_c, 0, 84, 61
1, 66383, Note_off_c, 0, 63, 65
1, 66395, Note_off_c, 0, 51, 64
1, 66433, Note_on_c, 0, 84, 92
1, 66447, Note_on_c, 0, 60, 102
1, 66453, Note_on_c, 0, 48, 91
1, 66495, Note_off_c, 0, 60, 55
1, 66510, Note_on_c, 0, 96, 92
1, 66522, Note_on_c, 0, 87, 75
1, 66524, Note_off_c, 0, 84, 61
1, 66531, Note_off_c, 0, 48, 63
1, 66585, Note_on_c, 0, 90, 92
1, 66600, Note_off_c, 0, 87, 68
1, 66604, Note_off_c, 0, 96, 65
1, 66641, Note_off_c, 0, 90, 67
1, 66980, Note_on_c, 0, 38, 67
1, 67009, Note_on_c, 0, 41, 67
1, 67082, Note_on_c, 0, 44, 79
1, 67151, Note_on_c, 0, 47, 92
1, 67160, Note_on_c, 0, 59, 99
1, 67180, Control_c, 0, 64, 90
1, 67194, Control_c, 0, 64, 62
1, 67209, Control_c, 0, 64, 0
1, 67254, Control_c, 0, 64, 64
1, 67268, Control_c, 0, 64, 81
1, 67283, Control_c, 0, 64, 127
1, 67285, Note_off_c, 0, 59, 67
1, 67301, Note_on_c, 0, 71, 80
1, 67310, Note_on_c, 0, 62, 80
1, 67403, Note_on_c, 0, 65, 80
1, 67403, Note_off_c, 0, 62, 63
1, 67418, Note_off_c, 0, 71, 59
1, 67454, Note_off_c, 0, 65, 67
1, 67469, Note_off_c, 0, 41, 62
1, 67476, Note_off_c, 0, 38, 62
1, 67497, Note_off_c, 0, 47, 61
1, 67508, Note_off_c, 0, 44, 60
1, 67531, Note_on_c, 0, 71, 97
1, 67589, Note_off_c, 0, 71, 67
1, 67611, Note_on_c, 0, 83, 92
1, 67618, Note_on_c, 0, 74, 81
1, 67675, Note_off_c, 0, 74, 63
1, 67680, Note_on_c, 0, 77, 79
1, 67725, Note_off_c, 0, 77, 66
1, 67729, Note_off_c, 0, 83, 61
1, 67777, Note_on_c, 0, 47, 93
1, 67777, Note_on_c, 0, 59, 109
1, 67785, Note_on_c, 0, 83, 95
1, 67827, Note_off_c, 0, 59, 63
1, 67831, Note_off_c, 0, 83, 67
1, 67855, Note_on_c, 0, 95, 75
1, 67864, Note_off_c, 0, 47, 63
1, 67866, Note_on_c, 0, 93, 79
1, 67882, Note_off_c, 0, 93, 63
1, 67899, Note_on_c, 0, 89, 87
1, 67927, Note_off_c, 0, 95, 66
1, 67945, Note_off_c, 0, 89, 67
1, 68230, Note_on_c, 0, 59, 105
1, 68252, Note_on_c, 0, 47, 71
1, 68265, Note_off_c, 0, 59, 70
1, 68283, Note_on_c, 0, 60, 24
1, 68284, Note_off_c, 0, 60, 127
1, 68382, Note_on_c, 0, 37, 74
1, 68400, Note_on_c, 0, 39, 71
1, 68409, Note_on_c, 0, 43, 76
1, 68409, Note_off_c, 0, 47, 62
1, 68500, Note_on_c, 0, 58, 106
1, 68502, Note_on_c, 0, 46, 99
1, 68543, Control_c, 0, 64, 88
1, 68546, Note_off_c, 0, 43, 62
1, 68558, Control_c, 0, 64, 63
1, 68573, Control_c, 0, 64, 0
1, 68609, Note_on_c, 0, 70, 61
1, 68617, Control_c, 0, 64, 62
1, 68632, Control_c, 0, 64, 77
1, 68646, Note_on_c, 0, 61, 70
1, 68647, Control_c, 0, 64, 101
1, 68661, Control_c, 0, 64, 127
1, 68679, Note_off_c, 0, 58, 61
1, 68699, Note_off_c, 0, 70, 58
1, 68708, Note_on_c, 0, 64, 64
1, 68709, Note_off_c, 0, 61, 63
1, 68737, Note_off_c, 0, 64, 67
1, 68848, Note_on_c, 0, 70, 98
1, 68898, Note_off_c, 0, 37, 61
1, 68899, Note_off_c, 0, 39, 61
1, 68907, Note_off_c, 0, 70, 62
1, 68919, Note_off_c, 0, 46, 62
1, 68922, Note_on_c, 0, 82, 79
1, 68975, Note_on_c, 0, 76, 75
1, 69007, Note_off_c, 0, 76, 70
1, 69015, Note_off_c, 0, 82, 65
1, 69091, Note_on_c, 0, 82, 93
1, 69142, Note_off_c, 0, 82, 65
1, 69148, Note_on_c, 0, 94, 89
1, 69222, Note_on_c, 0, 88, 89
1, 69257, Note_off_c, 0, 94, 64
1, 69280, Note_off_c, 0, 88, 66
1, 69314, Note_on_c, 0, 58, 97
1, 69318, Note_on_c, 0, 46, 87
1, 69348, Note_off_c, 0, 58, 68
1, 69377, Note_off_c, 0, 46, 63
1, 69486, Note_on_c, 0, 42, 51
1, 69498, Note_on_c, 0, 45, 59
1, 69529, Control_c, 0, 64, 103
1, 69531, Note_off_c, 0, 42, 0
1, 69531, Note_on_c, 0, 42, 12
1, 69543, Note_on_c, 0, 41, 46
1, 69544, Control_c, 0, 64, 73
1, 69552, Note_on_c, 0, 39, 86
1, 69560, Control_c, 0, 64, 0
1, 69563, Note_off_c, 0, 42, 60
1, 69575, Note_on_c, 0, 57, 95
1, 69575, Note_off_c, 0, 41, 52
1, 69584, Note_on_c, 0, 48, 89
1, 69599, Note_off_c, 0, 45, 62
1, 69604, Control_c, 0, 64, 62
1, 69619, Control_c, 0, 64, 80
1, 69631, Note_off_c, 0, 39, 63
1, 69632, Note_off_c, 0, 57, 55
1, 69634, Control_c, 0, 64, 117
1, 69643, Note_off_c, 0, 48, 61
1, 69649, Control_c, 0, 64, 127
1, 69656, Note_on_c, 0, 60, 74
1, 69661, Note_on_c, 0, 69, 70
1, 69716, Note_off_c, 0, 60, 62
1, 69718, Note_on_c, 0, 63, 75
1, 69755, Note_off_c, 0, 63, 66
1, 69768, Note_off_c, 0, 69, 62
1, 69820, Note_on_c, 0, 45, 91
1, 69820, Note_on_c, 0, 57, 102
1, 69820, Note_on_c, 0, 69, 85
1, 69876, Note_off_c, 0, 69, 65
1, 69883, Note_off_c, 0, 45, 61
1, 69895, Note_on_c, 0, 72, 87
1, 69897, Note_on_c, 0, 81, 91
1, 69914, Note_off_c, 0, 57, 58
1, 69944, Note_off_c, 0, 72, 65
1, 69951, Note_on_c, 0, 75, 73
1, 69974, Note_off_c, 0, 75, 71
1, 69987, Note_off_c, 0, 81, 63
1, 70027, Control_c, 0, 64, 73
1, 70033, Note_on_c, 0, 46, 85
1, 70034, Note_on_c, 0, 58, 95
1, 70041, Control_c, 0, 64, 0
1, 70052, Note_on_c, 0, 81, 77
1, 70063, Note_on_c, 0, 83, 62
1, 70071, Control_c, 0, 64, 63
1, 70085, Note_off_c, 0, 83, 58
1, 70086, Control_c, 0, 64, 78
1, 70099, Note_off_c, 0, 81, 66
1, 70101, Control_c, 0, 64, 110
1, 70115, Control_c, 0, 64, 127
1, 70117, Note_on_c, 0, 84, 74
1, 70122, Note_on_c, 0, 93, 79
1, 70125, Note_off_c, 0, 46, 65
1, 70165, Note_off_c, 0, 58, 61
1, 70168, Note_on_c, 0, 87, 84
1, 70178, Note_off_c, 0, 84, 63
1, 70192, Note_off_c, 0, 93, 64
1, 70224, Note_off_c, 0, 87, 66
1, 70248, Control_c, 0, 67, 15
1, 70263, Control_c, 0, 67, 32
1, 70264, Note_on_c, 0, 60, 104
1, 70267, Note_on_c, 0, 48, 92
1, 70278, Control_c, 0, 67, 61
1, 70293, Control_c, 0, 67, 99
1, 70303, Note_off_c, 0, 60, 61
1, 70308, Control_c, 0, 67, 127
1, 70350, Note_off_c, 0, 48, 63
1, 70398, Control_c, 0, 64, 99
1, 70412, Control_c, 0, 64, 79
1, 70427, Control_c, 0, 64, 64
1, 70442, Control_c, 0, 64, 0
1, 70612, Control_c, 0, 64, 39
1, 70627, Control_c, 0, 64, 59
1, 70636, Note_on_c, 0, 35, 52
1, 70642, Control_c, 0, 64, 65
1, 70657, Control_c, 0, 64, 69
1, 70672, Control_c, 0, 64, 76
1, 70686, Control_c, 0, 64, 83
1, 70692, Note_off_c, 0, 35, 60
1, 70701, Control_c, 0, 64, 89
1, 70716, Control_c, 0, 64, 96
1, 70731, Control_c, 0, 64, 105
1, 70746, Control_c, 0, 64, 126
1, 70761, Control_c, 0, 64, 127
1, 70841, Note_on_c, 0, 50, 54
1, 70958, Note_off_c, 0, 50, 49
1, 70967, Note_on_c, 0, 47, 41
1, 71025, Note_on_c, 0, 43, 58
1, 71033, Note_off_c, 0, 47, 55
1, 71068, Note_off_c, 0, 43, 61
1, 71078, Note_on_c, 0, 66, 69
1, 71110, Note_on_c, 0, 54, 42
1, 71147, Note_off_c, 0, 54, 64
1, 71164, Note_off_c, 0, 66, 64
1, 71184, Note_on_c, 0, 62, 53
1, 71188, Note_on_c, 0, 55, 53
1, 71246, Note_off_c, 0, 55, 64
1, 71262, Note_on_c, 0, 67, 65
1, 71271, Note_off_c, 0, 62, 60
1, 71271, Control_c, 0, 64, 119
1, 71286, Control_c, 0, 64, 88
1, 71289, Note_on_c, 0, 47, 71
1, 71301, Control_c, 0, 64, 71
1, 71315, Control_c, 0, 64, 65
1, 71321, Note_off_c, 0, 67, 64
1, 71330, Control_c, 0, 64, 69
1, 71332, Note_off_c, 0, 47, 63
1, 71345, Control_c, 0, 64, 76
1, 71360, Control_c, 0, 64, 89
1, 71375, Control_c, 0, 64, 111
1, 71386, Note_on_c, 0, 62, 69
1, 71390, Control_c, 0, 64, 127
1, 71494, Note_on_c, 0, 59, 57
1, 71520, Note_off_c, 0, 62, 51
1, 71550, Note_on_c, 0, 55, 54
1, 71573, Note_off_c, 0, 59, 60
1, 71595, Note_on_c, 0, 80, 79
1, 71617, Note_on_c, 0, 68, 66
1, 71628, Note_off_c, 0, 55, 62
1, 71797, Note_off_c, 0, 80, 54
1, 71857, Note_on_c, 0, 74, 23
1, 71871, Note_off_c, 0, 68, 61
1, 71882, Note_on_c, 0, 71, 19
1, 71953, Control_c, 0, 64, 102
1, 71964, Note_on_c, 0, 36, 60
1, 71968, Control_c, 0, 64, 80
1, 71990, Control_c, 0, 64, 65
1, 71995, Note_on_c, 0, 79, 61
1, 72005, Control_c, 0, 64, 58
1, 72008, Note_off_c, 0, 74, 56
1, 72013, Note_on_c, 0, 67, 48
1, 72020, Control_c, 0, 64, 65
1, 72025, Note_off_c, 0, 71, 43
1, 72034, Control_c, 0, 64, 70
1, 72049, Control_c, 0, 64, 80
1, 72064, Control_c, 0, 64, 93
1, 72067, Note_off_c, 0, 36, 59
1, 72079, Control_c, 0, 64, 105
1, 72094, Control_c, 0, 64, 117
1, 72108, Control_c, 0, 64, 127
1, 72116, Note_on_c, 0, 48, 62
1, 72120, Note_off_c, 0, 79, 63
1, 72129, Note_off_c, 0, 67, 63
1, 72153, Note_off_c, 0, 48, 65
1, 72227, Note_on_c, 0, 43, 60
1, 72239, Note_on_c, 0, 66, 70
1, 72240, Note_on_c, 0, 78, 68
1, 72271, Note_off_c, 0, 66, 65
1, 72282, Note_off_c, 0, 78, 54
1, 72286, Note_on_c, 0, 50, 48
1, 72310, Note_off_c, 0, 43, 58
1, 72320, Note_off_c, 0, 50, 64
1, 72368, Note_on_c, 0, 48, 20
1, 72375, Note_on_c, 0, 80, 69
1, 72384, Note_on_c, 0, 68, 56
1, 72387, Note_on_c, 0, 55, 67
1, 72395, Note_off_c, 0, 80, 63
1, 72408, Note_off_c, 0, 68, 60
1, 72415, Note_off_c, 0, 48, 37
1, 72433, Note_off_c, 0, 55, 62
1, 72449, Control_c, 0, 64, 89
1, 72464, Control_c, 0, 64, 68
1, 72476, Note_on_c, 0, 51, 72
1, 72479, Control_c, 0, 64, 63
1, 72494, Control_c, 0, 64, 67
1, 72499, Note_on_c, 0, 79, 74
1, 72505, Note_on_c, 0, 67, 62
1, 72508, Control_c, 0, 64, 77
1, 72523, Control_c, 0, 64, 93
1, 72524, Note_off_c, 0, 67, 65
1, 72538, Control_c, 0, 64, 127
1, 72552, Note_on_c, 0, 60, 35
1, 72554, Note_off_c, 0, 79, 63
1, 72556, Note_off_c, 0, 51, 58
1, 72580, Note_on_c, 0, 55, 58
1, 72584, Note_off_c, 0, 60, 47
1, 72665, Note_off_c, 0, 55, 63
1, 72669, Note_on_c, 0, 63, 56
1, 72672, Note_on_c, 0, 87, 80
1, 72673, Note_on_c, 0, 75, 75
1, 72693, Note_off_c, 0, 63, 59
1, 72715, Note_off_c, 0, 75, 59
1, 72718, Note_off_c, 0, 87, 64
1, 72788, Note_on_c, 0, 51, 68
1, 72836, Note_on_c, 0, 84, 81
1, 72837, Note_on_c, 0, 72, 85
1, 72857, Note_on_c, 0, 60, 76
1, 72873, Note_off_c, 0, 84, 60
1, 72881, Note_off_c, 0, 72, 59
1, 72886, Note_off_c, 0, 60, 65
1, 72933, Note_off_c, 0, 51, 63
1, 72946, Control_c, 0, 64, 91
1, 72961, Control_c, 0, 64, 69
1, 72976, Control_c, 0, 64, 51
1, 72991, Note_on_c, 0, 38, 79
1, 72991, Control_c, 0, 64, 63
1, 73006, Control_c, 0, 64, 70
1, 73021, Control_c, 0, 64, 86
1, 73035, Control_c, 0, 64, 116
1, 73037, Note_off_c, 0, 38, 61
1, 73050, Control_c, 0, 64, 127
1, 73148, Note_on_c, 0, 53, 50
1, 73179, Note_on_c, 0, 66, 80
1, 73184, Note_on_c, 0, 54, 75
1, 73211, Note_off_c, 0, 53, 60
1, 73236, Note_on_c, 0, 47, 61
1, 73240, Note_off_c, 0, 54, 62
1, 73241, Note_off_c, 0, 66, 64
1, 73246, Note_on_c, 0, 43, 68
1, 73266, Note_on_c, 0, 62, 59
1, 73271, Note_off_c, 0, 47, 61
1, 73286, Note_off_c, 0, 43, 60
1, 73313, Note_on_c, 0, 55, 53
1, 73315, Note_off_c, 0, 62, 58
1, 73318, Note_on_c, 0, 67, 75
1, 73337, Note_off_c, 0, 55, 60
1, 73361, Control_c, 0, 64, 99
1, 73365, Note_off_c, 0, 67, 64
1, 73375, Control_c, 0, 64, 72
1, 73390, Control_c, 0, 64, 18
1, 73405, Control_c, 0, 64, 0
1, 73406, Note_on_c, 0, 50, 73
1, 73420, Control_c, 0, 64, 60
1, 73435, Control_c, 0, 64, 69
1, 73438, Note_on_c, 0, 52, 49
1, 73450, Control_c, 0, 64, 82
1, 73460, Note_off_c, 0, 50, 60
1, 73465, Control_c, 0, 64, 108
1, 73466, Note_off_c, 0, 52, 55
1, 73487, Control_c, 0, 64, 127
1, 73545, Note_on_c, 0, 65, 64
1, 73593, Note_on_c, 0, 80, 81
1, 73606, Note_on_c, 0, 68, 71
1, 73653, Note_off_c, 0, 65, 58
1, 73676, Note_on_c, 0, 59, 59
1, 73742, Note_off_c, 0, 59, 63
1, 73745, Note_on_c, 0, 55, 58
1, 73777, Note_off_c, 0, 55, 64
1, 73793, Note_off_c, 0, 80, 60
1, 73813, Note_off_c, 0, 68, 63
1, 73821, Note_on_c, 0, 74, 10
1, 73864, Note_on_c, 0, 71, 28
1, 73918, Control_c, 0, 64, 107
1, 73918, Note_off_c, 0, 71, 59
1, 73932, Control_c, 0, 64, 81
1, 73942, Note_on_c, 0, 67, 64
1, 73942, Note_off_c, 0, 74, 59
1, 73944, Note_on_c, 0, 79, 70
1, 73947, Control_c, 0, 64, 63
1, 73950, Note_on_c, 0, 40, 61
1, 73962, Control_c, 0, 64, 44
1, 73977, Control_c, 0, 64, 62
1, 73991, Note_off_c, 0, 67, 60
1, 73992, Control_c, 0, 64, 69
1, 74006, Control_c, 0, 64, 84
1, 74016, Note_off_c, 0, 40, 63
1, 74021, Note_off_c, 0, 79, 61
1, 74021, Control_c, 0, 64, 106
1, 74036, Control_c, 0, 64, 127
1, 74050, Note_on_c, 0, 52, 64
1, 74097, Note_off_c, 0, 52, 60
1, 74123, Note_on_c, 0, 83, 79
1, 74134, Note_on_c, 0, 71, 49
1, 74147, Note_off_c, 0, 83, 67
1, 74148, Note_on_c, 0, 48, 61
1, 74156, Note_off_c, 0, 71, 59
1, 74165, Note_on_c, 0, 72, 25
1, 74181, Note_on_c, 0, 55, 64
1, 74207, Note_off_c, 0, 72, 43
1, 74221, Note_off_c, 0, 48, 58
1, 74237, Note_on_c, 0, 52, 65
1, 74249, Note_on_c, 0, 85, 87
1, 74255, Note_off_c, 0, 55, 61
1, 74258, Note_on_c, 0, 73, 74
1, 74290, Note_on_c, 0, 60, 67
1, 74290, Note_off_c, 0, 85, 68
1, 74293, Note_off_c, 0, 73, 62
1, 74294, Note_off_c, 0, 52, 62
1, 74331, Note_off_c, 0, 60, 60
1, 74379, Note_on_c, 0, 84, 79
1, 74386, Note_on_c, 0, 72, 78
1, 74389, Note_on_c, 0, 55, 73
1, 74413, Note_off_c, 0, 72, 69
1, 74445, Note_off_c, 0, 84, 64
1, 74463, Note_off_c, 0, 55, 61
1, 74475, Note_on_c, 0, 64, 48
1, 74526, Note_off_c, 0, 64, 62
1, 74536, Note_on_c, 0, 60, 60
1, 74545, Note_on_c, 0, 91, 83
1, 74552, Note_on_c, 0, 79, 77
1, 74572, Note_off_c, 0, 91, 59
1, 74574, Note_on_c, 0, 67, 53
1, 74587, Note_off_c, 0, 79, 61
1, 74642, Note_off_c, 0, 60, 52
1, 74670, Note_on_c, 0, 55, 66
1, 74672, Note_off_c, 0, 67, 59
1, 74702, Note_on_c, 0, 88, 77
1, 74705, Note_on_c, 0, 76, 77
1, 74746, Note_on_c, 0, 64, 65
1, 74747, Note_off_c, 0, 76, 57
1, 74748, Note_off_c, 0, 88, 63
1, 74772, Note_off_c, 0, 64, 67
1, 74788, Note_off_c, 0, 55, 61
1, 74829, Control_c, 0, 64, 101
1, 74844, Control_c, 0, 64, 75
1, 74859, Control_c, 0, 64, 15
1, 74873, Control_c, 0, 64, 0
1, 74882, Note_on_c, 0, 40, 74
1, 74903, Control_c, 0, 64, 65
1, 74917, Note_off_c, 0, 40, 64
1, 74918, Control_c, 0, 64, 77
1, 74933, Control_c, 0, 64, 98
1, 74947, Control_c, 0, 64, 127
1, 74988, Poly_aftertouch_c, 0, 41, 0
1, 75075, Note_on_c, 0, 71, 70
1, 75084, Note_on_c, 0, 59, 61
1, 75103, Control_c, 0, 67, 117
1, 75108, Note_on_c, 0, 56, 60
1, 75118, Control_c, 0, 67, 102
1, 75119, Note_off_c, 0, 59, 57
1, 75131, Note_off_c, 0, 71, 64
1, 75133, Control_c, 0, 67, 85
1, 75148, Control_c, 0, 67, 68
1, 75162, Note_on_c, 0, 65, 44
1, 75164, Control_c, 0, 67, 50
1, 75178, Control_c, 0, 67, 29
1, 75182, Note_on_c, 0, 48, 53
1, 75190, Note_on_c, 0, 68, 10
1, 75190, Note_off_c, 0, 56, 64
1, 75191, Note_off_c, 0, 65, 57
1, 75193, Control_c, 0, 67, 12
1, 75208, Control_c, 0, 67, 0
1, 75212, Note_on_c, 0, 72, 86
1, 75215, Note_on_c, 0, 60, 75
1, 75241, Note_off_c, 0, 68, 52
1, 75243, Note_off_c, 0, 60, 68
1, 75270, Note_off_c, 0, 72, 64
1, 75282, Control_c, 0, 64, 92
1, 75297, Control_c, 0, 64, 71
1, 75298, Note_off_c, 0, 48, 58
1, 75301, Note_on_c, 0, 43, 82
1, 75312, Control_c, 0, 64, 40
1, 75326, Control_c, 0, 64, 51
1, 75341, Control_c, 0, 64, 65
1, 75356, Control_c, 0, 64, 74
1, 75371, Control_c, 0, 64, 91
1, 75385, Control_c, 0, 64, 127
1, 75405, Note_off_c, 0, 43, 61
1, 75439, Note_on_c, 0, 73, 82
1, 75442, Note_on_c, 0, 85, 81
1, 75495, Note_on_c, 0, 58, 62
1, 75519, Poly_aftertouch_c, 0, 48, 0
1, 75524, Note_on_c, 0, 79, 59
1, 75524, Note_off_c, 0, 73, 64
1, 75529, Note_off_c, 0, 85, 62
1, 75556, Note_on_c, 0, 76, 41
1, 75564, Note_off_c, 0, 58, 60
1, 75580, Note_on_c, 0, 52, 28
1, 75581, Note_off_c, 0, 76, 56
1, 75585, Note_on_c, 0, 72, 80
1, 75587, Note_on_c, 0, 84, 69
1, 75596, Note_on_c, 0, 48, 74
1, 75602, Note_off_c, 0, 79, 64
1, 75614, Note_off_c, 0, 84, 67
1, 75617, Note_off_c, 0, 72, 63
1, 75620, Note_off_c, 0, 52, 40
1, 75638, Control_c, 0, 64, 86
1, 75652, Control_c, 0, 64, 65
1, 75667, Control_c, 0, 64, 0
1, 75676, Note_on_c, 0, 44, 87
1, 75681, Note_off_c, 0, 48, 65
1, 75696, Control_c, 0, 64, 63
1, 75711, Control_c, 0, 64, 76
1, 75733, Control_c, 0, 64, 95
1, 75744, Note_off_c, 0, 44, 63
1, 75748, Control_c, 0, 64, 127
1, 75818, Note_on_c, 0, 60, 77
1, 75823, Note_on_c, 0, 59, 78
1, 75825, Note_on_c, 0, 71, 65
1, 75849, Note_off_c, 0, 59, 64
1, 75857, Note_off_c, 0, 71, 65
1, 75861, Note_on_c, 0, 72, 14
1, 75864, Note_off_c, 0, 60, 50
1, 75894, Note_on_c, 0, 56, 62
1, 75911, Note_off_c, 0, 72, 40
1, 75931, Note_on_c, 0, 53, 68
1, 75935, Note_on_c, 0, 72, 75
1, 75939, Note_on_c, 0, 60, 69
1, 75941, Note_off_c, 0, 56, 62
1, 75966, Note_off_c, 0, 60, 68
1, 75981, Poly_aftertouch_c, 0, 68, 127
1, 75995, Note_off_c, 0, 72, 65
1, 76001, Control_c, 0, 64, 88
1, 76003, Note_off_c, 0, 53, 62
1, 76010, Poly_aftertouch_c, 0, 68, 0
1, 76016, Control_c, 0, 64, 64
1, 76022, Note_on_c, 0, 47, 81
1, 76031, Control_c, 0, 64, 0
1, 76061, Control_c, 0, 64, 65
1, 76075, Control_c, 0, 64, 79
1, 76090, Control_c, 0, 64, 109
1, 76096, Note_off_c, 0, 47, 60
1, 76105, Control_c, 0, 64, 127
1, 76140, Note_on_c, 0, 86, 84
1, 76141, Note_on_c, 0, 74, 84
1, 76168, Note_on_c, 0, 62, 66
1, 76186, Note_off_c, 0, 86, 62
1, 76200, Note_off_c, 0, 74, 56
1, 76222, Note_on_c, 0, 80, 65
1, 76234, Note_off_c, 0, 62, 59
1, 76239, Note_on_c, 0, 77, 49
1, 76243, Note_on_c, 0, 56, 62
1, 76272, Note_on_c, 0, 85, 80
1, 76272, Note_off_c, 0, 56, 67
1, 76273, Note_on_c, 0, 53, 73
1, 76273, Note_off_c, 0, 77, 54
1, 76276, Note_on_c, 0, 73, 87
1, 76278, Note_off_c, 0, 80, 64
1, 76317, Note_off_c, 0, 73, 66
1, 76318, Note_off_c, 0, 85, 66
1, 76340, Note_off_c, 0, 53, 62
1, 76353, Note_on_c, 0, 46, 93
1, 76372, Control_c, 0, 64, 84
1, 76387, Control_c, 0, 64, 52
1, 76401, Control_c, 0, 64, 0
1, 76422, Note_off_c, 0, 46, 65
1, 76431, Control_c, 0, 64, 61
1, 76446, Control_c, 0, 64, 75
1, 76461, Control_c, 0, 64, 100
1, 76483, Control_c, 0, 64, 127
1, 76493, Note_on_c, 0, 72, 82
1, 76496, Note_on_c, 0, 60, 82
1, 76520, Note_on_c, 0, 61, 54
1, 76523, Note_on_c, 0, 71, 49
1, 76525, Note_off_c, 0, 60, 59
1, 76534, Note_off_c, 0, 72, 62
1, 76547, Note_off_c, 0, 71, 62
1, 76559, Note_off_c, 0, 61, 59
1, 76562, Note_on_c, 0, 70, 59
1, 76571, Note_on_c, 0, 66, 61
1, 76604, Note_off_c, 0, 66, 66
1, 76606, Note_on_c, 0, 57, 37
1, 76620, Note_on_c, 0, 61, 90
1, 76621, Note_on_c, 0, 54, 64
1, 76624, Note_on_c, 0, 73, 84
1, 76633, Note_off_c, 0, 70, 58
1, 76639, Note_off_c, 0, 57, 45
1, 76642, Note_off_c, 0, 61, 68
1, 76674, Note_off_c, 0, 73, 63
1, 76675, Control_c, 0, 64, 92
1, 76690, Note_on_c, 0, 49, 92
1, 76690, Control_c, 0, 64, 67
1, 76696, Note_off_c, 0, 54, 64
1, 76705, Control_c, 0, 64, 0
1, 76735, Control_c, 0, 64, 68
1, 76750, Control_c, 0, 64, 87
1, 76765, Control_c, 0, 64, 127
1, 76772, Note_off_c, 0, 49, 64
1, 76815, Note_on_c, 0, 64, 81
1, 76818, Note_on_c, 0, 76, 91
1, 76818, Note_on_c, 0, 88, 84
1, 76861, Note_off_c, 0, 88, 65
1, 76869, Note_off_c, 0, 64, 59
1, 76869, Note_off_c, 0, 76, 61
1, 76899, Note_on_c, 0, 58, 61
1, 76902, Note_on_c, 0, 78, 40
1, 76908, Note_on_c, 0, 82, 62
1, 76926, Note_on_c, 0, 79, 55
1, 76930, Note_off_c, 0, 78, 57
1, 76935, Note_off_c, 0, 58, 64
1, 76943, Note_on_c, 0, 55, 67
1, 76954, Note_on_c, 0, 87, 78
1, 76954, Note_off_c, 0, 79, 55
1, 76958, Note_on_c, 0, 75, 84
1, 76967, Note_off_c, 0, 82, 66
1, 76994, Note_off_c, 0, 55, 62
1, 76997, Note_off_c, 0, 87, 66
1, 77000, Note_off_c, 0, 75, 63
1, 77003, Control_c, 0, 64, 96
1, 77018, Control_c, 0, 64, 68
1, 77018, Note_on_c, 0, 48, 90
1, 77032, Control_c, 0, 64, 0
1, 77061, Control_c, 0, 64, 67
1, 77075, Control_c, 0, 64, 84
1, 77089, Note_off_c, 0, 48, 63
1, 77090, Control_c, 0, 64, 127
1, 77146, Note_on_c, 0, 74, 88
1, 77150, Note_on_c, 0, 62, 83
1, 77183, Note_off_c, 0, 62, 59
1, 77197, Note_on_c, 0, 63, 72
1, 77205, Note_off_c, 0, 74, 62
1, 77241, Note_on_c, 0, 68, 68
1, 77258, Note_off_c, 0, 63, 62
1, 77264, Note_on_c, 0, 60, 48
1, 77265, Note_on_c, 0, 72, 47
1, 77294, Note_off_c, 0, 68, 58
1, 77298, Note_on_c, 0, 56, 61
1, 77298, Note_on_c, 0, 75, 83
1, 77302, Note_off_c, 0, 72, 54
1, 77352, Note_off_c, 0, 75, 65
1, 77355, Note_off_c, 0, 60, 59
1, 77366, Poly_aftertouch_c, 0, 61, 127
1, 77375, Note_on_c, 0, 51, 86
1, 77379, Note_off_c, 0, 56, 65
1, 77379, Control_c, 0, 64, 86
1, 77394, Control_c, 0, 64, 60
1, 77405, Poly_aftertouch_c, 0, 61, 0
1, 77409, Control_c, 0, 64, 0
1, 77431, Note_on_c, 0, 50, 15
1, 77438, Control_c, 0, 64, 69
1, 77453, Control_c, 0, 64, 92
1, 77468, Control_c, 0, 64, 127
1, 77473, Note_off_c, 0, 50, 30
1, 77484, Note_off_c, 0, 51, 64
1, 77547, Note_on_c, 0, 66, 74
1, 77547, Note_on_c, 0, 78, 92
1, 77552, Note_on_c, 0, 85, 64
1, 77552, Note_on_c, 0, 90, 92
1, 77578, Note_off_c, 0, 85, 67
1, 77623, Note_off_c, 0, 90, 67
1, 77648, Note_off_c, 0, 66, 63
1, 77653, Note_on_c, 0, 60, 55
1, 77657, Note_off_c, 0, 78, 63
1, 77693, Note_off_c, 0, 60, 61
1, 77699, Note_on_c, 0, 84, 51
1, 77701, Note_on_c, 0, 57, 63
1, 77724, Note_on_c, 0, 81, 59
1, 77731, Note_off_c, 0, 57, 65
1, 77789, Note_off_c, 0, 84, 64
1, 77795, Note_on_c, 0, 89, 83
1, 77796, Note_off_c, 0, 81, 60
1, 77803, Note_on_c, 0, 77, 84
1, 77884, Control_c, 0, 64, 84
1, 77898, Control_c, 0, 64, 44
1, 77905, Note_off_c, 0, 77, 61
1, 77912, Note_off_c, 0, 89, 65
1, 77913, Control_c, 0, 64, 0
1, 77917, Note_on_c, 0, 61, 95
1, 77918, Note_on_c, 0, 49, 78
1, 77943, Control_c, 0, 64, 64
1, 77958, Control_c, 0, 64, 76
1, 77966, Note_off_c, 0, 49, 64
1, 77980, Control_c, 0, 64, 99
1, 77995, Control_c, 0, 64, 127
1, 78005, Note_off_c, 0, 61, 61
1, 78021, Poly_aftertouch_c, 0, 51, 127
1, 78040, Poly_aftertouch_c, 0, 51, 0
1, 78189, Note_on_c, 0, 88, 81
1, 78193, Note_on_c, 0, 76, 78
1, 78195, Note_on_c, 0, 70, 69
1, 78210, Note_on_c, 0, 82, 51
1, 78219, Note_off_c, 0, 76, 65
1, 78240, Note_off_c, 0, 82, 65
1, 78261, Note_off_c, 0, 88, 59
1, 78283, Note_off_c, 0, 70, 61
1, 78287, Note_on_c, 0, 73, 65
1, 78336, Note_off_c, 0, 73, 62
1, 78353, Note_on_c, 0, 65, 65
1, 78386, Note_on_c, 0, 89, 84
1, 78391, Note_on_c, 0, 77, 74
1, 78392, Note_on_c, 0, 82, 72
1, 78401, Note_off_c, 0, 65, 63
1, 78414, Note_off_c, 0, 89, 60
1, 78416, Note_off_c, 0, 77, 67
1, 78429, Note_off_c, 0, 82, 58
1, 78440, Note_on_c, 0, 70, 79
1, 78488, Note_off_c, 0, 70, 65
1, 78514, Note_on_c, 0, 61, 71
1, 78528, Note_on_c, 0, 78, 77
1, 78528, Note_on_c, 0, 90, 89
1, 78543, Note_off_c, 0, 61, 66
1, 78560, Note_off_c, 0, 78, 63
1, 78576, Note_off_c, 0, 90, 65
1, 78588, Note_on_c, 0, 65, 77
1, 78648, Note_off_c, 0, 65, 62
1, 78652, Note_on_c, 0, 58, 68
1, 78663, Note_on_c, 0, 91, 87
1, 78667, Note_on_c, 0, 79, 84
1, 78700, Note_on_c, 0, 61, 75
1, 78704, Note_off_c, 0, 79, 63
1, 78709, Note_off_c, 0, 58, 63
1, 78709, Note_off_c, 0, 91, 67
1, 78759, Note_off_c, 0, 61, 63
1, 78772, Note_on_c, 0, 53, 64
1, 78804, Note_on_c, 0, 92, 86
1, 78806, Note_on_c, 0, 80, 81
1, 78821, Note_on_c, 0, 58, 79
1, 78827, Note_off_c, 0, 53, 59
1, 78863, Note_off_c, 0, 58, 65
1, 78880, Note_off_c, 0, 80, 59
1, 78907, Control_c, 0, 64, 95
1, 78909, Note_off_c, 0, 92, 64
1, 78921, Control_c, 0, 64, 67
1, 78935, Note_on_c, 0, 55, 102
1, 78936, Control_c, 0, 64, 0
1, 78939, Note_on_c, 0, 43, 87
1, 78961, Note_off_c, 0, 43, 67
1, 78966, Control_c, 0, 64, 66
1, 78981, Control_c, 0, 64, 83
1, 78984, Note_off_c, 0, 55, 65
1, 78995, Control_c, 0, 64, 127
1, 79128, Note_on_c, 0, 70, 81
1, 79134, Note_on_c, 0, 93, 84
1, 79136, Note_on_c, 0, 81, 98
1, 79176, Note_off_c, 0, 81, 65
1, 79191, Note_off_c, 0, 93, 64
1, 79205, Note_off_c, 0, 70, 62
1, 79212, Note_on_c, 0, 73, 75
1, 79245, Note_off_c, 0, 73, 58
1, 79274, Note_on_c, 0, 65, 71
1, 79295, Note_on_c, 0, 94, 92
1, 79295, Note_on_c, 0, 82, 84
1, 79307, Note_off_c, 0, 65, 63
1, 79337, Note_off_c, 0, 82, 65
1, 79343, Note_on_c, 0, 70, 83
1, 79343, Note_off_c, 0, 94, 65
1, 79388, Note_off_c, 0, 70, 67
1, 79421, Note_on_c, 0, 61, 80
1, 79435, Note_on_c, 0, 95, 89
1, 79437, Note_on_c, 0, 83, 87
1, 79453, Note_off_c, 0, 61, 57
1, 79483, Note_off_c, 0, 83, 65
1, 79495, Note_on_c, 0, 65, 77
1, 79495, Note_off_c, 0, 95, 63
1, 79573, Note_on_c, 0, 58, 70
1, 79574, Note_on_c, 0, 84, 88
1, 79576, Note_off_c, 0, 65, 58
1, 79584, Note_on_c, 0, 96, 76
1, 79604, Note_on_c, 0, 95, 45
1, 79605, Note_on_c, 0, 61, 75
1, 79606, Note_off_c, 0, 84, 63
1, 79609, Note_off_c, 0, 96, 68
1, 79626, Note_off_c, 0, 58, 62
1, 79632, Note_off_c, 0, 95, 54
1, 79671, Note_off_c, 0, 61, 61
1, 79686, Note_on_c, 0, 53, 74
1, 79689, Note_on_c, 0, 85, 91
1, 79695, Note_on_c, 0, 97, 89
1, 79729, Note_off_c, 0, 53, 57
1, 79731, Note_off_c, 0, 85, 66
1, 79734, Note_off_c, 0, 97, 64
1, 79738, Note_on_c, 0, 58, 70
1, 79775, Control_c, 0, 64, 121
1, 79790, Control_c, 0, 64, 78
1, 79804, Control_c, 0, 64, 0
1, 79819, Note_on_c, 0, 50, 86
1, 79825, Note_on_c, 0, 62, 87
1, 79834, Control_c, 0, 64, 40
1, 79835, Note_off_c, 0, 58, 64
1, 79842, Note_off_c, 0, 50, 69
1, 79846, Note_on_c, 0, 52, 58
1, 79849, Control_c, 0, 64, 74
1, 79864, Note_off_c, 0, 62, 65
1, 79864, Control_c, 0, 64, 103
1, 79874, Note_off_c, 0, 52, 58
1, 79878, Control_c, 0, 64, 127
1, 79960, Note_on_c, 0, 71, 68
1, 79971, Note_on_c, 0, 76, 84
1, 79971, Note_on_c, 0, 88, 82
1, 80005, Note_off_c, 0, 76, 61
1, 80019, Note_on_c, 0, 74, 80
1, 80020, Note_off_c, 0, 71, 64
1, 80027, Note_off_c, 0, 88, 65
1, 80074, Note_off_c, 0, 74, 64
1, 80100, Note_on_c, 0, 64, 59
1, 80107, Note_on_c, 0, 77, 90
1, 80107, Note_on_c, 0, 89, 91
1, 80115, Note_on_c, 0, 65, 46
1, 80132, Note_off_c, 0, 64, 66
1, 80143, Note_off_c, 0, 65, 56
1, 80145, Note_off_c, 0, 77, 63
1, 80147, Note_off_c, 0, 89, 67
1, 80170, Note_on_c, 0, 69, 84
1, 80235, Note_off_c, 0, 69, 54
1, 80249, Note_on_c, 0, 90, 92
1, 80251, Note_on_c, 0, 78, 86
1, 80255, Note_on_c, 0, 60, 77
1, 80287, Note_off_c, 0, 78, 62
1, 80292, Note_off_c, 0, 60, 61
1, 80298, Note_off_c, 0, 90, 64
1, 80339, Note_on_c, 0, 64, 82
1, 80387, Note_on_c, 0, 91, 86
1, 80389, Note_on_c, 0, 79, 88
1, 80396, Note_on_c, 0, 59, 74
1, 80400, Note_off_c, 0, 64, 62
1, 80419, Note_off_c, 0, 79, 62
1, 80431, Note_off_c, 0, 91, 67
1, 80461, Note_off_c, 0, 59, 62
1, 80468, Note_on_c, 0, 53, 70
1, 80508, Note_on_c, 0, 60, 63
1, 80522, Note_on_c, 0, 92, 85
1, 80526, Note_on_c, 0, 80, 75
1, 80534, Note_off_c, 0, 53, 55
1, 80547, Note_off_c, 0, 60, 63
1, 80556, Note_on_c, 0, 57, 68
1, 80579, Note_off_c, 0, 80, 64
1, 80582, Note_off_c, 0, 57, 65
1, 80601, Note_off_c, 0, 92, 62
1, 80613, Control_c, 0, 64, 91
1, 80627, Control_c, 0, 64, 60
1, 80642, Control_c, 0, 64, 0
1, 80649, Note_on_c, 0, 43, 83
1, 80650, Note_on_c, 0, 55, 91
1, 80672, Control_c, 0, 64, 62
1, 80679, Note_off_c, 0, 43, 62
1, 80687, Control_c, 0, 64, 80
1, 80689, Note_off_c, 0, 55, 62
1, 80696, Note_on_c, 0, 45, 22
1, 80701, Control_c, 0, 64, 127
1, 80738, Note_off_c, 0, 45, 39
1, 80806, Note_on_c, 0, 71, 76
1, 80822, Note_on_c, 0, 81, 98
1, 80826, Note_on_c, 0, 93, 85
1, 80865, Note_off_c, 0, 81, 64
1, 80875, Note_off_c, 0, 93, 62
1, 80882, Note_on_c, 0, 74, 77
1, 80884, Note_off_c, 0, 71, 63
1, 80936, Note_off_c, 0, 74, 63
1, 80979, Note_on_c, 0, 65, 59
1, 80987, Note_on_c, 0, 82, 89
1, 80988, Note_on_c, 0, 94, 92
1, 81013, Note_off_c, 0, 65, 66
1, 81025, Note_off_c, 0, 82, 66
1, 81044, Note_on_c, 0, 71, 74
1, 81050, Note_off_c, 0, 94, 65
1, 81102, Note_off_c, 0, 71, 56
1, 81128, Note_on_c, 0, 62, 77
1, 81146, Note_on_c, 0, 95, 94
1, 81147, Note_on_c, 0, 83, 93
1, 81180, Note_off_c, 0, 83, 65
1, 81191, Note_off_c, 0, 62, 59
1, 81194, Note_off_c, 0, 95, 64
1, 81230, Note_on_c, 0, 65, 79
1, 81304, Note_on_c, 0, 59, 78
1, 81313, Note_on_c, 0, 85, 99
1, 81315, Note_off_c, 0, 65, 61
1, 81316, Note_on_c, 0, 97, 98
1, 81352, Note_off_c, 0, 85, 66
1, 81369, Note_off_c, 0, 97, 65
1, 81391, Note_off_c, 0, 59, 57
1, 81418, Note_on_c, 0, 62, 80
1, 81477, Note_on_c, 0, 53, 65
1, 81493, Note_on_c, 0, 98, 95
1, 81495, Note_on_c, 0, 86, 94
1, 81528, Note_off_c, 0, 86, 66
1, 81529, Note_off_c, 0, 62, 58
1, 81549, Note_off_c, 0, 98, 57
1, 81561, Note_on_c, 0, 59, 74
1, 81579, Note_off_c, 0, 53, 59
1, 81582, Note_off_c, 0, 59, 71
1, 81725, Control_c, 0, 64, 98
1, 81740, Control_c, 0, 64, 68
1, 81754, Control_c, 0, 64, 0
1, 81768, Note_on_c, 0, 87, 104
1, 81770, Note_on_c, 0, 99, 97
1, 81777, Note_on_c, 0, 42, 85
1, 81777, Note_on_c, 0, 54, 100
1, 81779, Note_on_c, 0, 95, 69
1, 81784, Control_c, 0, 64, 65
1, 81790, Note_on_c, 0, 97, 68
1, 81798, Control_c, 0, 64, 127
1, 81802, Note_off_c, 0, 95, 67
1, 81808, Note_off_c, 0, 97, 66
1, 81813, Note_off_c, 0, 42, 63
1, 81823, Note_off_c, 0, 99, 67
1, 81826, Note_off_c, 0, 87, 64
1, 81840, Note_off_c, 0, 54, 63
1, 81993, Note_on_c, 0, 95, 74
1, 82036, Note_on_c, 0, 87, 75
1, 82097, Note_on_c, 0, 90, 82
1, 82098, Note_off_c, 0, 95, 33
1, 82102, Note_off_c, 0, 87, 65
1, 82154, Note_on_c, 0, 75, 92
1, 82163, Note_on_c, 0, 63, 63
1, 82163, Note_on_c, 0, 71, 74
1, 82169, Note_on_c, 0, 83, 75
1, 82169, Note_off_c, 0, 90, 65
1, 82174, Note_on_c, 0, 66, 67
1, 82191, Note_off_c, 0, 63, 65
1, 82193, Note_off_c, 0, 75, 63
1, 82198, Note_off_c, 0, 71, 63
1, 82199, Note_off_c, 0, 66, 67
1, 82220, Note_off_c, 0, 83, 68
1, 82235, Note_on_c, 0, 75, 93
1, 82241, Note_on_c, 0, 63, 89
1, 82249, Note_on_c, 0, 71, 74
1, 82251, Note_on_c, 0, 87, 85
1, 82254, Note_on_c, 0, 66, 86
1, 82279, Note_off_c, 0, 75, 66
1, 82285, Note_off_c, 0, 71, 63
1, 82291, Note_on_c, 0, 78, 89
1, 82304, Note_off_c, 0, 87, 66
1, 82313, Note_off_c, 0, 66, 64
1, 82325, Note_off_c, 0, 63, 65
1, 82362, Note_off_c, 0, 78, 63
1, 82376, Note_on_c, 0, 83, 79
1, 82398, Note_on_c, 0, 75, 84
1, 82410, Note_off_c, 0, 83, 70
1, 82449, Note_off_c, 0, 75, 62
1, 82488, Note_on_c, 0, 78, 85
1, 82529, Note_on_c, 0, 71, 82
1, 82542, Note_off_c, 0, 78, 63
1, 82554, Note_off_c, 0, 71, 70
1, 82695, Control_c, 0, 64, 88
1, 82710, Control_c, 0, 64, 62
1, 82725, Control_c, 0, 64, 0
1, 82734, Note_on_c, 0, 52, 109
1, 82735, Note_on_c, 0, 100, 97
1, 82735, Note_on_c, 0, 40, 88
1, 82738, Note_on_c, 0, 88, 101
1, 82753, Note_on_c, 0, 97, 63
1, 82754, Note_on_c, 0, 95, 68
1, 82754, Control_c, 0, 64, 67
1, 82757, Note_on_c, 0, 96, 71
1, 82769, Control_c, 0, 64, 112
1, 82777, Note_off_c, 0, 40, 63
1, 82780, Note_off_c, 0, 96, 65
1, 82780, Note_off_c, 0, 97, 67
1, 82783, Note_off_c, 0, 95, 66
1, 82784, Control_c, 0, 64, 127
1, 82789, Note_off_c, 0, 52, 66
1, 82795, Note_off_c, 0, 100, 65
1, 82839, Poly_aftertouch_c, 0, 46, 0
1, 82844, Note_off_c, 0, 88, 62
1, 82896, Note_on_c, 0, 96, 72
1, 82901, Note_on_c, 0, 95, 65
1, 82939, Note_off_c, 0, 96, 62
1, 82949, Note_on_c, 0, 88, 78
1, 82953, Note_off_c, 0, 95, 63
1, 83016, Note_on_c, 0, 91, 89
1, 83034, Note_off_c, 0, 88, 64
1, 83053, Note_on_c, 0, 76, 94
1, 83059, Note_on_c, 0, 72, 87
1, 83068, Note_on_c, 0, 64, 59
1, 83072, Note_on_c, 0, 67, 63
1, 83072, Note_on_c, 0, 84, 81
1, 83081, Note_off_c, 0, 91, 66
1, 83086, Note_off_c, 0, 64, 66
1, 83089, Note_off_c, 0, 76, 60
1, 83098, Note_off_c, 0, 67, 66
1, 83105, Note_off_c, 0, 72, 61
1, 83129, Note_off_c, 0, 84, 66
1, 83149, Note_on_c, 0, 64, 86
1, 83149, Note_on_c, 0, 76, 85
1, 83152, Note_on_c, 0, 72, 80
1, 83153, Note_on_c, 0, 67, 82
1, 83156, Note_on_c, 0, 88, 99
1, 83176, Note_off_c, 0, 76, 64
1, 83185, Note_off_c, 0, 72, 63
1, 83219, Note_off_c, 0, 67, 62
1, 83224, Note_off_c, 0, 88, 65
1, 83225, Note_on_c, 0, 79, 82
1, 83229, Note_off_c, 0, 64, 67
1, 83287, Note_on_c, 0, 84, 82
1, 83292, Note_off_c, 0, 79, 61
1, 83328, Note_on_c, 0, 76, 79
1, 83347, Note_off_c, 0, 84, 65
1, 83364, Note_off_c, 0, 76, 63
1, 83406, Note_on_c, 0, 79, 84
1, 83438, Note_on_c, 0, 72, 90
1, 83454, Note_off_c, 0, 79, 66
1, 83467, Note_off_c, 0, 72, 61
1, 83637, Control_c, 0, 64, 87
1, 83652, Control_c, 0, 64, 55
1, 83667, Control_c, 0, 64, 0
1, 83682, Note_on_c, 0, 101, 105
1, 83683, Note_on_c, 0, 89, 104
1, 83684, Note_on_c, 0, 47, 98
1, 83685, Note_on_c, 0, 35, 88
1, 83685, Note_on_c, 0, 97, 97
1, 83697, Control_c, 0, 64, 63
1, 83699, Note_on_c, 0, 37, 66
1, 83711, Control_c, 0, 64, 103
1, 83716, Note_off_c, 0, 35, 65
1, 83726, Control_c, 0, 64, 127
1, 83728, Note_off_c, 0, 37, 64
1, 83739, Note_off_c, 0, 101, 64
1, 83745, Note_off_c, 0, 47, 65
1, 83748, Note_off_c, 0, 89, 64
1, 83754, Note_off_c, 0, 97, 64
1, 83871, Note_on_c, 0, 97, 94
1, 83934, Note_on_c, 0, 89, 88
1, 83947, Note_off_c, 0, 97, 65
1, 84030, Note_on_c, 0, 92, 89
1, 84045, Note_off_c, 0, 89, 64
1, 84107, Note_on_c, 0, 77, 97
1, 84115, Note_on_c, 0, 68, 74
1, 84115, Note_on_c, 0, 73, 79
1, 84116, Note_on_c, 0, 85, 94
1, 84117, Note_on_c, 0, 65, 75
1, 84127, Note_off_c, 0, 92, 61
1, 84139, Note_off_c, 0, 65, 69
1, 84151, Note_off_c, 0, 68, 62
1, 84151, Note_off_c, 0, 77, 63
1, 84162, Note_off_c, 0, 73, 65
1, 84172, Note_off_c, 0, 85, 66
1, 84217, Note_on_c, 0, 65, 79
1, 84219, Note_on_c, 0, 77, 100
1, 84220, Note_on_c, 0, 89, 94
1, 84224, Note_on_c, 0, 68, 89
1, 84227, Note_on_c, 0, 73, 77
1, 84261, Note_off_c, 0, 77, 65
1, 84277, Note_off_c, 0, 73, 65
1, 84291, Note_off_c, 0, 89, 59
1, 84298, Note_off_c, 0, 68, 61
1, 84312, Note_off_c, 0, 65, 65
1, 84315, Note_on_c, 0, 80, 89
1, 84333, Poly_aftertouch_c, 0, 76, 0
1, 84388, Note_on_c, 0, 85, 85
1, 84394, Note_off_c, 0, 80, 66
1, 84458, Note_on_c, 0, 77, 78
1, 84463, Note_off_c, 0, 85, 64
1, 84503, Note_off_c, 0, 77, 64
1, 84535, Note_on_c, 0, 80, 83
1, 84594, Note_on_c, 0, 73, 85
1, 84596, Note_off_c, 0, 80, 63
1, 84640, Note_off_c, 0, 73, 64
1, 84670, Note_on_c, 0, 77, 85
1, 84734, Note_off_c, 0, 77, 61
1, 84738, Note_on_c, 0, 68, 85
1, 84815, Note_on_c, 0, 73, 87
1, 84822, Note_off_c, 0, 68, 59
1, 84866, Note_on_c, 0, 65, 84
1, 84880, Note_off_c, 0, 73, 64
1, 84920, Note_off_c, 0, 65, 64
1, 84948, Note_on_c, 0, 68, 87
1, 85010, Note_on_c, 0, 61, 85
1, 85013, Note_off_c, 0, 68, 64
1, 85055, Note_off_c, 0, 61, 63
1, 85085, Note_on_c, 0, 65, 91
1, 85149, Note_off_c, 0, 65, 63
1, 85160, Note_on_c, 0, 56, 79
1, 85230, Note_on_c, 0, 61, 83
1, 85234, Note_off_c, 0, 56, 64
1, 85285, Note_on_c, 0, 53, 76
1, 85293, Note_off_c, 0, 61, 63
1, 85338, Note_off_c, 0, 53, 62
1, 85400, Note_on_c, 0, 54, 50
1, 85400, Note_on_c, 0, 55, 61
1, 85437, Note_off_c, 0, 55, 64
1, 85439, Note_off_c, 0, 54, 63
1, 85449, Note_on_c, 0, 49, 80
1, 85484, Note_off_c, 0, 49, 68
1, 85543, Note_on_c, 0, 53, 98
1, 85585, Note_off_c, 0, 53, 64
1, 85618, Control_c, 0, 64, 101
1, 85627, Note_on_c, 0, 44, 92
1, 85633, Control_c, 0, 64, 82
1, 85648, Control_c, 0, 64, 66
1, 85663, Control_c, 0, 64, 0
1, 85676, Note_on_c, 0, 34, 27
1, 85682, Note_off_c, 0, 44, 63
1, 85695, Note_on_c, 0, 49, 97
1, 85719, Note_off_c, 0, 34, 40
1, 85734, Note_off_c, 0, 49, 61
1, 85763, Note_on_c, 0, 41, 81
1, 85788, Note_on_c, 0, 40, 51
1, 85811, Note_off_c, 0, 41, 63
1, 85824, Note_off_c, 0, 40, 35
1, 85825, Note_on_c, 0, 44, 110
1, 85863, Note_off_c, 0, 44, 63
1, 85883, Note_on_c, 0, 37, 96
1, 85934, Note_off_c, 0, 37, 64
1, 85948, Note_on_c, 0, 41, 113
1, 85976, Note_off_c, 0, 41, 70
1, 86063, Control_c, 0, 67, 14
1, 86078, Control_c, 0, 67, 28
1, 86092, Control_c, 0, 67, 57
1, 86107, Control_c, 0, 67, 88
1, 86122, Control_c, 0, 67, 122
1, 86137, Control_c, 0, 67, 127
1, 86602, Note_on_c, 0, 35, 50
1, 86638, Note_off_c, 0, 35, 62
1, 86726, Note_on_c, 0, 35, 63
1, 86765, Note_off_c, 0, 35, 62
1, 86939, Note_on_c, 0, 52, 47
1, 86941, Note_on_c, 0, 59, 45
1, 86941, Note_on_c, 0, 36, 58
1, 86952, Note_on_c, 0, 55, 39
1, 86985, Note_off_c, 0, 52, 55
1, 86991, Note_off_c, 0, 55, 57
1, 86992, Note_off_c, 0, 36, 61
1, 87008, Note_off_c, 0, 59, 54
1, 87129, Note_on_c, 0, 52, 58
1, 87129, Note_on_c, 0, 55, 46
1, 87131, Note_on_c, 0, 60, 59
1, 87168, Note_off_c, 0, 52, 63
1, 87175, Note_off_c, 0, 55, 63
1, 87195, Note_off_c, 0, 60, 56
1, 87260, Note_on_c, 0, 34, 60
1, 87308, Note_off_c, 0, 34, 61
1, 87390, Note_on_c, 0, 62, 62
1, 87396, Note_on_c, 0, 35, 59
1, 87402, Note_on_c, 0, 53, 44
1, 87406, Note_on_c, 0, 56, 42
1, 87427, Note_off_c, 0, 53, 56
1, 87429, Note_off_c, 0, 62, 57
1, 87430, Note_off_c, 0, 35, 61
1, 87435, Note_off_c, 0, 56, 58
1, 87508, Note_on_c, 0, 53, 57
1, 87511, Note_on_c, 0, 56, 61
1, 87523, Note_on_c, 0, 61, 60
1, 87541, Note_off_c, 0, 53, 64
1, 87547, Note_off_c, 0, 56, 61
1, 87563, Note_off_c, 0, 61, 56
1, 87625, Note_on_c, 0, 32, 67
1, 87667, Note_off_c, 0, 32, 62
1, 87749, Note_on_c, 0, 60, 61
1, 87755, Note_on_c, 0, 33, 62
1, 87756, Note_on_c, 0, 54, 56
1, 87773, Note_on_c, 0, 57, 40
1, 87782, Note_off_c, 0, 54, 60
1, 87785, Note_off_c, 0, 33, 65
1, 87788, Note_off_c, 0, 60, 61
1, 87799, Note_off_c, 0, 57, 51
1, 87857, Note_on_c, 0, 54, 61
1, 87861, Note_on_c, 0, 61, 66
1, 87883, Note_on_c, 0, 57, 49
1, 87898, Note_off_c, 0, 54, 60
1, 87908, Note_off_c, 0, 57, 52
1, 87920, Note_off_c, 0, 61, 61
1, 87948, Note_on_c, 0, 34, 74
1, 87996, Note_off_c, 0, 34, 62
1, 88055, Note_on_c, 0, 63, 67
1, 88059, Note_on_c, 0, 35, 72
1, 88064, Note_on_c, 0, 53, 50
1, 88079, Note_on_c, 0, 56, 31
1, 88088, Note_off_c, 0, 53, 57
1, 88089, Note_off_c, 0, 63, 61
1, 88093, Note_off_c, 0, 35, 65
1, 88104, Note_off_c, 0, 56, 50
1, 88159, Note_on_c, 0, 53, 62
1, 88164, Note_on_c, 0, 61, 67
1, 88176, Note_on_c, 0, 56, 48
1, 88188, Note_off_c, 0, 53, 63
1, 88202, Note_off_c, 0, 56, 57
1, 88216, Note_off_c, 0, 61, 61
1, 88249, Control_c, 0, 64, 36
1, 88252, Note_on_c, 0, 47, 74
1, 88262, Note_on_c, 0, 35, 65
1, 88264, Control_c, 0, 64, 68
1, 88278, Control_c, 0, 64, 76
1, 88284, Note_off_c, 0, 47, 62
1, 88289, Note_off_c, 0, 35, 58
1, 88293, Control_c, 0, 64, 84
1, 88308, Control_c, 0, 64, 90
1, 88323, Control_c, 0, 64, 95
1, 88338, Control_c, 0, 64, 99
1, 88352, Control_c, 0, 64, 100
1, 88369, Note_on_c, 0, 48, 74
1, 88378, Note_on_c, 0, 36, 62
1, 88382, Note_on_c, 0, 69, 43
1, 88382, Control_c, 0, 64, 92
1, 88387, Note_on_c, 0, 71, 38
1, 88390, Note_on_c, 0, 59, 27
1, 88397, Note_on_c, 0, 57, 16
1, 88397, Control_c, 0, 64, 79
1, 88399, Note_off_c, 0, 48, 66
1, 88404, Note_off_c, 0, 36, 58
1, 88409, Note_off_c, 0, 69, 54
1, 88412, Control_c, 0, 64, 62
1, 88414, Note_off_c, 0, 59, 50
1, 88415, Note_off_c, 0, 71, 51
1, 88421, Note_off_c, 0, 57, 46
1, 88426, Control_c, 0, 64, 0
1, 88464, Control_c, 0, 67, 127
1, 88479, Control_c, 0, 67, 122
1, 88480, Note_on_c, 0, 60, 76
1, 88482, Note_on_c, 0, 72, 85
1, 88493, Control_c, 0, 67, 114
1, 88504, Note_off_c, 0, 60, 67
1, 88506, Note_off_c, 0, 72, 67
1, 88508, Control_c, 0, 67, 104
1, 88523, Control_c, 0, 67, 90
1, 88538, Control_c, 0, 67, 77
1, 88553, Control_c, 0, 67, 63
1, 88558, Note_on_c, 0, 46, 77
1, 88563, Note_on_c, 0, 34, 76
1, 88567, Control_c, 0, 67, 46
1, 88582, Control_c, 0, 64, 66
1, 88582, Control_c, 0, 67, 30
1, 88596, Note_off_c, 0, 46, 63
1, 88597, Control_c, 0, 64, 77
1, 88597, Control_c, 0, 67, 16
1, 88602, Note_off_c, 0, 34, 64
1, 88611, Control_c, 0, 64, 90
1, 88611, Control_c, 0, 67, 0
1, 88626, Control_c, 0, 64, 102
1, 88641, Control_c, 0, 64, 126
1, 88656, Control_c, 0, 64, 127
1, 88661, Note_on_c, 0, 62, 65
1, 88671, Note_on_c, 0, 47, 72
1, 88680, Note_on_c, 0, 35, 59
1, 88692, Note_off_c, 0, 62, 64
1, 88702, Note_on_c, 0, 69, 39
1, 88705, Note_off_c, 0, 47, 63
1, 88718, Note_off_c, 0, 35, 62
1, 88728, Poly_aftertouch_c, 0, 66, 127
1, 88736, Note_off_c, 0, 69, 53
1, 88746, Control_c, 0, 64, 122
1, 88761, Control_c, 0, 64, 89
1, 88769, Note_on_c, 0, 61, 80
1, 88769, Note_on_c, 0, 73, 82
1, 88771, Poly_aftertouch_c, 0, 66, 0
1, 88776, Control_c, 0, 64, 67
1, 88790, Control_c, 0, 64, 0
1, 88801, Note_off_c, 0, 61, 62
1, 88822, Note_off_c, 0, 73, 62
1, 88853, Note_on_c, 0, 32, 75
1, 88854, Note_on_c, 0, 44, 78
1, 88879, Control_c, 0, 64, 43
1, 88886, Note_off_c, 0, 44, 66
1, 88894, Note_off_c, 0, 32, 64
1, 88894, Control_c, 0, 64, 70
1, 88909, Control_c, 0, 64, 82
1, 88924, Control_c, 0, 64, 96
1, 88939, Control_c, 0, 64, 127
1, 88956, Note_on_c, 0, 68, 76
1, 88958, Note_on_c, 0, 60, 70
1, 88962, Note_on_c, 0, 45, 75
1, 88970, Note_on_c, 0, 33, 58
1, 88985, Note_off_c, 0, 60, 67
1, 89001, Note_off_c, 0, 45, 63
1, 89003, Note_off_c, 0, 33, 63
1, 89018, Note_off_c, 0, 68, 62
1, 89061, Note_on_c, 0, 61, 77
1, 89070, Note_on_c, 0, 73, 74
1, 89072, Control_c, 0, 64, 104
1, 89087, Control_c, 0, 64, 75
1, 89099, Note_off_c, 0, 61, 60
1, 89101, Control_c, 0, 64, 0
1, 89113, Note_off_c, 0, 73, 58
1, 89138, Note_on_c, 0, 46, 80
1, 89140, Note_on_c, 0, 34, 80
1, 89175, Control_c, 0, 64, 49
1, 89178, Note_off_c, 0, 46, 63
1, 89189, Note_off_c, 0, 34, 61
1, 89190, Control_c, 0, 64, 73
1, 89213, Control_c, 0, 64, 91
1, 89225, Note_on_c, 0, 63, 80
1, 89228, Control_c, 0, 64, 127
1, 89233, Note_on_c, 0, 75, 73
1, 89242, Note_on_c, 0, 35, 72
1, 89247, Note_on_c, 0, 47, 72
1, 89256, Note_off_c, 0, 75, 69
1, 89267, Note_off_c, 0, 63, 60
1, 89286, Note_off_c, 0, 35, 63
1, 89289, Note_off_c, 0, 47, 63
1, 89324, Note_on_c, 0, 61, 81
1, 89326, Note_on_c, 0, 73, 85
1, 89347, Note_off_c, 0, 61, 70
1, 89361, Control_c, 0, 64, 99
1, 89376, Control_c, 0, 64, 70
1, 89381, Note_off_c, 0, 73, 64
1, 89390, Control_c, 0, 64, 0
1, 89411, Note_on_c, 0, 47, 86
1, 89416, Note_on_c, 0, 35, 83
1, 89434, Control_c, 0, 64, 31
1, 89449, Control_c, 0, 64, 67
1, 89452, Note_off_c, 0, 35, 64
1, 89457, Note_off_c, 0, 47, 60
1, 89464, Control_c, 0, 64, 81
1, 89479, Control_c, 0, 64, 107
1, 89494, Control_c, 0, 64, 127
1, 89514, Note_on_c, 0, 71, 85
1, 89516, Note_on_c, 0, 83, 86
1, 89525, Note_on_c, 0, 48, 82
1, 89534, Note_on_c, 0, 36, 71
1, 89541, Note_off_c, 0, 71, 66
1, 89546, Note_off_c, 0, 83, 66
1, 89556, Note_off_c, 0, 48, 65
1, 89567, Note_off_c, 0, 36, 63
1, 89609, Note_on_c, 0, 72, 98
1, 89610, Note_on_c, 0, 84, 94
1, 89628, Control_c, 0, 64, 113
1, 89643, Control_c, 0, 64, 82
1, 89649, Note_off_c, 0, 72, 64
1, 89657, Control_c, 0, 64, 58
1, 89658, Note_off_c, 0, 84, 59
1, 89672, Control_c, 0, 64, 0
1, 89691, Note_on_c, 0, 46, 86
1, 89693, Note_on_c, 0, 34, 88
1, 89717, Control_c, 0, 64, 63
1, 89731, Note_off_c, 0, 46, 63
1, 89731, Control_c, 0, 64, 78
1, 89741, Note_off_c, 0, 34, 61
1, 89746, Control_c, 0, 64, 101
1, 89761, Control_c, 0, 64, 127
1, 89796, Note_on_c, 0, 74, 62
1, 89796, Note_on_c, 0, 80, 80
1, 89801, Note_on_c, 0, 35, 70
1, 89803, Note_on_c, 0, 47, 78
1, 89815, Note_off_c, 0, 74, 66
1, 89821, Note_on_c, 0, 77, 45
1, 89845, Note_off_c, 0, 47, 61
1, 89851, Note_off_c, 0, 35, 60
1, 89853, Note_off_c, 0, 77, 50
1, 89862, Note_off_c, 0, 80, 65
1, 89886, Note_on_c, 0, 73, 95
1, 89886, Note_on_c, 0, 85, 88
1, 89925, Control_c, 0, 64, 107
1, 89934, Note_off_c, 0, 73, 64
1, 89939, Note_off_c, 0, 85, 66
1, 89940, Control_c, 0, 64, 78
1, 89962, Control_c, 0, 64, 0
1, 89970, Note_on_c, 0, 44, 91
1, 89973, Note_on_c, 0, 32, 83
1, 90007, Control_c, 0, 64, 48
1, 90021, Control_c, 0, 64, 70
1, 90024, Note_off_c, 0, 44, 63
1, 90025, Note_off_c, 0, 32, 63
1, 90036, Control_c, 0, 64, 85
1, 90051, Control_c, 0, 64, 109
1, 90065, Control_c, 0, 64, 127
1, 90068, Note_on_c, 0, 72, 87
1, 90071, Note_on_c, 0, 80, 85
1, 90076, Note_on_c, 0, 33, 73
1, 90079, Note_on_c, 0, 45, 86
1, 90100, Note_off_c, 0, 72, 63
1, 90128, Note_off_c, 0, 80, 63
1, 90129, Note_off_c, 0, 45, 63
1, 90129, Note_off_c, 0, 33, 61
1, 90164, Note_on_c, 0, 73, 93
1, 90165, Note_on_c, 0, 85, 88
1, 90206, Note_off_c, 0, 73, 63
1, 90214, Control_c, 0, 64, 104
1, 90224, Note_off_c, 0, 85, 63
1, 90229, Control_c, 0, 64, 77
1, 90241, Note_on_c, 0, 46, 90
1, 90244, Control_c, 0, 64, 30
1, 90244, Note_on_c, 0, 34, 87
1, 90258, Control_c, 0, 64, 0
1, 90288, Control_c, 0, 64, 68
1, 90289, Note_off_c, 0, 46, 64
1, 90296, Note_off_c, 0, 34, 63
1, 90303, Control_c, 0, 64, 85
1, 90318, Control_c, 0, 64, 127
1, 90319, Note_on_c, 0, 75, 87
1, 90324, Note_on_c, 0, 87, 83
1, 90348, Note_off_c, 0, 87, 70
1, 90352, Note_on_c, 0, 35, 76
1, 90353, Note_on_c, 0, 47, 83
1, 90357, Note_off_c, 0, 75, 62
1, 90407, Note_off_c, 0, 47, 62
1, 90412, Note_on_c, 0, 85, 80
1, 90412, Note_off_c, 0, 35, 60
1, 90414, Note_on_c, 0, 73, 88
1, 90432, Note_off_c, 0, 73, 73
1, 90458, Note_on_c, 0, 86, 32
1, 90473, Note_off_c, 0, 85, 64
1, 90482, Control_c, 0, 64, 88
1, 90490, Note_off_c, 0, 86, 53
1, 90497, Control_c, 0, 64, 66
1, 90507, Note_on_c, 0, 47, 105
1, 90510, Note_on_c, 0, 35, 92
1, 90512, Control_c, 0, 64, 0
1, 90542, Control_c, 0, 64, 56
1, 90556, Control_c, 0, 64, 72
1, 90566, Note_off_c, 0, 35, 60
1, 90566, Note_off_c, 0, 47, 55
1, 90571, Control_c, 0, 64, 95
1, 90586, Control_c, 0, 64, 127
1, 90598, Note_on_c, 0, 83, 98
1, 90599, Note_on_c, 0, 95, 96
1, 90632, Note_off_c, 0, 83, 69
1, 90635, Note_off_c, 0, 95, 66
1, 90635, Note_on_c, 0, 48, 88
1, 90639, Note_on_c, 0, 36, 82
1, 90673, Note_on_c, 0, 38, 44
1, 90692, Note_off_c, 0, 48, 62
1, 90697, Note_off_c, 0, 36, 63
1, 90710, Note_on_c, 0, 84, 102
1, 90712, Note_on_c, 0, 96, 97
1, 90713, Note_off_c, 0, 38, 55
1, 90748, Note_off_c, 0, 84, 64
1, 90775, Note_off_c, 0, 96, 63
1, 90786, Control_c, 0, 64, 107
1, 90801, Control_c, 0, 64, 80
1, 90807, Note_on_c, 0, 34, 92
1, 90807, Note_on_c, 0, 46, 92
1, 90815, Control_c, 0, 64, 54
1, 90830, Control_c, 0, 64, 0
1, 90860, Control_c, 0, 64, 53
1, 90861, Note_off_c, 0, 46, 63
1, 90862, Note_on_c, 0, 33, 14
1, 90869, Note_off_c, 0, 34, 61
1, 90875, Control_c, 0, 64, 75
1, 90889, Control_c, 0, 64, 99
1, 90894, Note_on_c, 0, 86, 84
1, 90900, Note_on_c, 0, 92, 95
1, 90904, Control_c, 0, 64, 127
1, 90910, Note_off_c, 0, 33, 40
1, 90924, Note_on_c, 0, 47, 83
1, 90927, Note_on_c, 0, 35, 74
1, 90936, Note_off_c, 0, 86, 64
1, 90967, Note_off_c, 0, 92, 65
1, 90980, Note_off_c, 0, 47, 62
1, 90992, Note_off_c, 0, 35, 61
1, 90995, Note_on_c, 0, 85, 97
1, 90995, Note_on_c, 0, 97, 90
1, 91004, Poly_aftertouch_c, 0, 37, 127
1, 91007, Note_on_c, 0, 88, 18
1, 91041, Note_on_c, 0, 94, 28
1, 91045, Note_off_c, 0, 88, 44
1, 91046, Poly_aftertouch_c, 0, 37, 0
1, 91061, Note_off_c, 0, 85, 62
1, 91075, Note_off_c, 0, 97, 66
1, 91080, Note_off_c, 0, 94, 46
1, 91082, Control_c, 0, 64, 97
1, 91088, Note_on_c, 0, 44, 93
1, 91090, Note_on_c, 0, 32, 90
1, 91097, Control_c, 0, 64, 71
1, 91112, Control_c, 0, 64, 0
1, 91118, Note_on_c, 0, 34, 40
1, 91140, Note_off_c, 0, 34, 63
1, 91142, Control_c, 0, 64, 42
1, 91149, Note_off_c, 0, 44, 61
1, 91157, Note_off_c, 0, 32, 64
1, 91157, Control_c, 0, 64, 70
1, 91172, Control_c, 0, 64, 93
1, 91186, Control_c, 0, 64, 127
1, 91191, Note_on_c, 0, 84, 89
1, 91195, Note_on_c, 0, 92, 91
1, 91205, Note_on_c, 0, 33, 75
1, 91213, Note_on_c, 0, 45, 82
1, 91231, Note_off_c, 0, 84, 65
1, 91236, Note_on_c, 0, 34, 28
1, 91237, Note_on_c, 0, 43, 49
1, 91264, Note_off_c, 0, 33, 63
1, 91266, Note_off_c, 0, 43, 56
1, 91267, Note_off_c, 0, 45, 62
1, 91271, Note_off_c, 0, 92, 65
1, 91294, Note_off_c, 0, 34, 49
1, 91296, Note_on_c, 0, 85, 103
1, 91302, Note_on_c, 0, 97, 91
1, 91380, Control_c, 0, 64, 99
1, 91386, Note_off_c, 0, 85, 61
1, 91394, Note_on_c, 0, 46, 99
1, 91395, Control_c, 0, 64, 72
1, 91395, Note_on_c, 0, 34, 85
1, 91409, Note_off_c, 0, 97, 64
1, 91410, Control_c, 0, 64, 0
1, 91461, Control_c, 0, 64, 68
1, 91476, Control_c, 0, 64, 91
1, 91490, Note_off_c, 0, 46, 63
1, 91491, Control_c, 0, 64, 127
1, 91496, Note_off_c, 0, 34, 62
1, 91505, Note_on_c, 0, 87, 96
1, 91506, Note_on_c, 0, 99, 97
1, 91530, Note_on_c, 0, 35, 76
1, 91531, Note_on_c, 0, 47, 82
1, 91566, Note_off_c, 0, 87, 63
1, 91569, Note_off_c, 0, 99, 65
1, 91611, Note_off_c, 0, 35, 56
1, 91632, Note_off_c, 0, 47, 58
1, 91659, Note_on_c, 0, 85, 95
1, 91667, Note_on_c, 0, 97, 81
1, 91695, Note_off_c, 0, 85, 66
1, 91712, Note_off_c, 0, 97, 64
1, 91765, Note_on_c, 0, 82, 69
1, 91816, Note_on_c, 0, 88, 75
1, 91849, Note_off_c, 0, 82, 66
1, 91881, Note_on_c, 0, 91, 77
1, 91891, Control_c, 0, 64, 93
1, 91905, Control_c, 0, 64, 65
1, 91916, Note_off_c, 0, 88, 63
1, 91920, Control_c, 0, 64, 0
1, 91949, Note_on_c, 0, 36, 84
1, 91949, Note_on_c, 0, 48, 102
1, 91957, Note_on_c, 0, 97, 101
1, 91966, Control_c, 0, 64, 69
1, 91967, Note_off_c, 0, 91, 67
1, 91981, Control_c, 0, 64, 127
1, 91995, Note_off_c, 0, 36, 64
1, 91998, Note_off_c, 0, 97, 68
1, 92015, Note_off_c, 0, 48, 65
1, 92417, Note_on_c, 0, 65, 77
1, 92417, Note_on_c, 0, 73, 86
1, 92428, Note_on_c, 0, 68, 75
1, 92603, Note_on_c, 0, 75, 82
1, 92608, Note_off_c, 0, 65, 59
1, 92611, Note_on_c, 0, 67, 77
1, 92614, Note_on_c, 0, 70, 70
1, 92646, Note_off_c, 0, 68, 62
1, 92646, Note_off_c, 0, 73, 61
1, 92667, Note_off_c, 0, 67, 61
1, 92687, Note_off_c, 0, 70, 62
1, 92687, Note_off_c, 0, 75, 60
1, 92721, Note_on_c, 0, 65, 68
1, 92725, Note_on_c, 0, 73, 76
1, 92726, Note_on_c, 0, 68, 73
1, 92797, Note_off_c, 0, 65, 62
1, 92813, Note_off_c, 0, 73, 61
1, 92822, Note_on_c, 0, 72, 85
1, 92826, Note_on_c, 0, 64, 80
1, 92865, Note_off_c, 0, 68, 56
1, 92866, Note_off_c, 0, 64, 56
1, 92884, Note_off_c, 0, 72, 61
1, 92903, Note_on_c, 0, 68, 38
1, 92912, Note_on_c, 0, 73, 78
1, 92913, Note_on_c, 0, 65, 68
1, 92963, Note_off_c, 0, 65, 57
1, 92963, Note_off_c, 0, 73, 66
1, 92985, Note_off_c, 0, 68, 61
1, 92988, Note_on_c, 0, 72, 83
1, 92992, Note_on_c, 0, 64, 76
1, 93038, Note_off_c, 0, 64, 61
1, 93044, Note_off_c, 0, 72, 60
1, 93061, Note_on_c, 0, 70, 77
1, 93066, Note_on_c, 0, 65, 72
1, 93070, Note_on_c, 0, 61, 70
1, 93077, Control_c, 0, 67, 8
1, 93092, Control_c, 0, 64, 99
1, 93092, Control_c, 0, 67, 14
1, 93107, Control_c, 0, 64, 85
1, 93107, Control_c, 0, 67, 23
1, 93122, Control_c, 0, 64, 71
1, 93122, Control_c, 0, 67, 38
1, 93132, Note_on_c, 0, 72, 80
1, 93135, Note_off_c, 0, 70, 62
1, 93135, Note_off_c, 0, 65, 65
1, 93136, Note_off_c, 0, 61, 61
1, 93137, Control_c, 0, 64, 50
1, 93137, Control_c, 0, 67, 59
1, 93139, Note_on_c, 0, 64, 69
1, 93151, Control_c, 0, 64, 0
1, 93151, Control_c, 0, 67, 82
1, 93157, Note_off_c, 0, 72, 63
1, 93166, Control_c, 0, 67, 107
1, 93173, Note_off_c, 0, 64, 64
1, 93181, Control_c, 0, 67, 125
1, 93196, Control_c, 0, 67, 127
1, 93200, Note_on_c, 0, 70, 74
1, 93205, Note_on_c, 0, 65, 69
1, 93207, Note_on_c, 0, 61, 59
1, 93264, Note_off_c, 0, 61, 46
1, 93268, Note_on_c, 0, 68, 80
1, 93274, Note_off_c, 0, 65, 64
1, 93276, Note_off_c, 0, 70, 63
1, 93285, Note_on_c, 0, 60, 72
1, 93315, Note_off_c, 0, 60, 63
1, 93331, Note_off_c, 0, 68, 62
1, 93347, Note_on_c, 0, 61, 78
1, 93355, Note_on_c, 0, 65, 67
1, 93395, Note_off_c, 0, 65, 63
1, 93411, Note_on_c, 0, 68, 80
1, 93414, Note_off_c, 0, 61, 63
1, 93429, Note_on_c, 0, 60, 60
1, 93468, Note_off_c, 0, 60, 62
1, 93470, Note_off_c, 0, 68, 62
1, 93476, Note_on_c, 0, 67, 80
1, 93497, Note_on_c, 0, 61, 63
1, 93500, Note_on_c, 0, 58, 61
1, 93538, Note_off_c, 0, 67, 62
1, 93541, Note_off_c, 0, 58, 58
1, 93546, Note_off_c, 0, 61, 57
1, 93551, Note_on_c, 0, 68, 73
1, 93564, Note_on_c, 0, 60, 67
1, 93592, Note_off_c, 0, 68, 61
1, 93596, Note_off_c, 0, 60, 62
1, 93622, Note_on_c, 0, 67, 76
1, 93636, Note_on_c, 0, 58, 63
1, 93639, Note_on_c, 0, 61, 61
1, 93676, Note_off_c, 0, 61, 60
1, 93682, Note_off_c, 0, 67, 62
1, 93688, Note_off_c, 0, 58, 58
1, 93705, Note_on_c, 0, 65, 79
1, 93713, Note_on_c, 0, 56, 66
1, 93746, Note_off_c, 0, 56, 63
1, 93753, Note_off_c, 0, 65, 57
1, 93774, Note_on_c, 0, 67, 72
1, 93783, Note_on_c, 0, 58, 59
1, 93786, Note_on_c, 0, 61, 50
1, 93826, Note_off_c, 0, 67, 62
1, 93833, Note_off_c, 0, 61, 60
1, 93852, Note_on_c, 0, 65, 71
1, 93857, Note_off_c, 0, 58, 63
1, 93860, Note_on_c, 0, 56, 65
1, 93900, Note_off_c, 0, 56, 57
1, 93913, Note_on_c, 0, 64, 61
1, 93915, Note_off_c, 0, 65, 65
1, 93931, Note_on_c, 0, 55, 60
1, 93932, Note_on_c, 0, 58, 58
1, 93972, Note_off_c, 0, 55, 60
1, 93974, Control_c, 0, 64, 47
1, 93989, Control_c, 0, 64, 64
1, 93991, Note_off_c, 0, 64, 62
1, 94001, Note_off_c, 0, 58, 63
1, 94004, Control_c, 0, 64, 70
1, 94011, Note_on_c, 0, 56, 67
1, 94014, Note_on_c, 0, 65, 62
1, 94019, Control_c, 0, 64, 78
1, 94033, Control_c, 0, 64, 86
1, 94048, Control_c, 0, 64, 92
1, 94055, Note_off_c, 0, 65, 62
1, 94063, Control_c, 0, 64, 99
1, 94078, Control_c, 0, 64, 112
1, 94090, Note_on_c, 0, 64, 73
1, 94093, Control_c, 0, 64, 127
1, 94095, Note_off_c, 0, 56, 36
1, 94098, Note_on_c, 0, 58, 46
1, 94113, Note_on_c, 0, 55, 12
1, 94121, Note_off_c, 0, 58, 60
1, 94155, Note_off_c, 0, 55, 54
1, 94182, Note_on_c, 0, 53, 67
1, 94182, Control_c, 0, 64, 107
1, 94184, Note_on_c, 0, 61, 69
1, 94193, Note_off_c, 0, 64, 62
1, 94197, Note_on_c, 0, 56, 72
1, 94197, Control_c, 0, 64, 91
1, 94212, Control_c, 0, 64, 79
1, 94226, Control_c, 0, 64, 67
1, 94241, Control_c, 0, 64, 33
1, 94248, Note_on_c, 0, 63, 75
1, 94248, Note_off_c, 0, 53, 59
1, 94248, Note_off_c, 0, 61, 61
1, 94254, Note_off_c, 0, 56, 63
1, 94256, Control_c, 0, 64, 0
1, 94258, Note_on_c, 0, 55, 64
1, 94282, Note_off_c, 0, 63, 60
1, 94293, Note_off_c, 0, 55, 65
1, 94315, Note_on_c, 0, 61, 68
1, 94324, Note_on_c, 0, 56, 64
1, 94327, Note_on_c, 0, 53, 54
1, 94373, Note_off_c, 0, 53, 55
1, 94388, Note_off_c, 0, 56, 64
1, 94388, Note_off_c, 0, 61, 61
1, 94409, Note_on_c, 0, 52, 72
1, 94412, Note_on_c, 0, 60, 66
1, 94450, Note_off_c, 0, 52, 63
1, 94457, Note_off_c, 0, 60, 60
1, 94479, Note_on_c, 0, 61, 69
1, 94480, Note_on_c, 0, 53, 55
1, 94487, Note_on_c, 0, 56, 64
1, 94519, Note_off_c, 0, 53, 62
1, 94536, Note_off_c, 0, 56, 60
1, 94537, Note_off_c, 0, 61, 60
1, 94555, Note_on_c, 0, 52, 74
1, 94559, Note_on_c, 0, 60, 68
1, 94584, Note_off_c, 0, 52, 65
1, 94590, Note_off_c, 0, 60, 65
1, 94626, Note_on_c, 0, 53, 56
1, 94626, Note_on_c, 0, 61, 70
1, 94638, Note_on_c, 0, 56, 64
1, 94668, Note_off_c, 0, 53, 59
1, 94673, Note_off_c, 0, 56, 61
1, 94686, Note_off_c, 0, 61, 61
1, 94704, Note_on_c, 0, 63, 73
1, 94719, Note_on_c, 0, 55, 56
1, 94733, Note_off_c, 0, 63, 64
1, 94742, Note_off_c, 0, 55, 58
1, 94772, Note_on_c, 0, 61, 62
1, 94774, Note_on_c, 0, 53, 62
1, 94774, Note_on_c, 0, 56, 63
1, 94817, Note_off_c, 0, 53, 56
1, 94828, Note_off_c, 0, 61, 57
1, 94835, Note_off_c, 0, 56, 60
1, 94859, Note_on_c, 0, 60, 65
1, 94859, Note_on_c, 0, 52, 67
1, 94893, Note_off_c, 0, 52, 64
1, 94897, Note_off_c, 0, 60, 61
1, 94930, Note_on_c, 0, 61, 69
1, 94931, Note_on_c, 0, 53, 54
1, 94937, Note_on_c, 0, 56, 63
1, 94969, Note_off_c, 0, 53, 62
1, 94979, Note_off_c, 0, 56, 59
1, 94981, Note_off_c, 0, 61, 54
1, 95002, Note_on_c, 0, 60, 68
1, 95006, Note_on_c, 0, 52, 61
1, 95038, Note_off_c, 0, 52, 64
1, 95046, Note_off_c, 0, 60, 59
1, 95082, Note_on_c, 0, 61, 69
1, 95085, Note_on_c, 0, 53, 45
1, 95090, Note_on_c, 0, 56, 65
1, 95132, Note_off_c, 0, 53, 58
1, 95149, Note_off_c, 0, 61, 59
1, 95165, Note_on_c, 0, 63, 74
1, 95184, Note_on_c, 0, 55, 56
1, 95200, Note_off_c, 0, 56, 33
1, 95213, Note_off_c, 0, 63, 56
1, 95223, Note_off_c, 0, 55, 65
1, 95251, Note_on_c, 0, 53, 48
1, 95252, Note_on_c, 0, 61, 61
1, 95253, Note_on_c, 0, 56, 45
1, 95314, Note_off_c, 0, 53, 53
1, 95327, Note_off_c, 0, 56, 61
1, 95357, Note_on_c, 0, 52, 45
1, 95386, Note_off_c, 0, 52, 53
1, 95434, Note_on_c, 0, 56, 58
1, 95440, Note_on_c, 0, 53, 41
1, 95484, Note_off_c, 0, 53, 59
1, 95494, Note_off_c, 0, 56, 61
1, 95500, Note_off_c, 0, 61, 56
1, 95529, Note_on_c, 0, 52, 57
1, 95534, Note_on_c, 0, 60, 59
1, 95572, Note_off_c, 0, 52, 62
1, 95574, Note_off_c, 0, 60, 61
1, 95606, Note_on_c, 0, 61, 58
1, 95625, Note_on_c, 0, 56, 57
1, 95625, Note_on_c, 0, 53, 39
1, 95782, Note_on_c, 0, 63, 54
1, 95795, Note_off_c, 0, 53, 53
1, 95797, Note_off_c, 0, 56, 60
1, 95799, Note_off_c, 0, 61, 55
1, 95804, Note_on_c, 0, 55, 48
1, 95808, Note_on_c, 0, 58, 41
1, 95920, Note_off_c, 0, 63, 60
1, 95923, Note_off_c, 0, 55, 62
1, 95933, Note_off_c, 0, 58, 62
1, 95975, Note_on_c, 0, 61, 54
1, 95985, Note_on_c, 0, 56, 45
1, 95994, Note_on_c, 0, 53, 31
1, 96170, Note_on_c, 0, 52, 49
1, 96175, Note_on_c, 0, 60, 44
1, 96180, Note_off_c, 0, 53, 53
1, 96181, Note_off_c, 0, 56, 57
1, 96185, Note_on_c, 0, 55, 45
1, 96188, Note_off_c, 0, 61, 56
1, 96432, Note_off_c, 0, 52, 57
1, 96433, Note_off_c, 0, 55, 58
1, 96436, Note_on_c, 0, 61, 50
1, 96439, Note_off_c, 0, 60, 49
1, 96445, Note_on_c, 0, 56, 47
1, 96447, Note_on_c, 0, 53, 37
1, 96814, Note_off_c, 0, 56, 48
1, 96817, Note_on_c, 0, 52, 37
1, 96821, Note_on_c, 0, 60, 42
1, 96823, Note_off_c, 0, 61, 55
1, 96844, Note_on_c, 0, 55, 40
1, 96907, Note_off_c, 0, 53, 39
1, 97541, Control_c, 0, 64, 18
1, 97556, Control_c, 0, 64, 42
1, 97571, Control_c, 0, 64, 54
1, 97586, Control_c, 0, 64, 58
1, 97600, Control_c, 0, 64, 61
1, 97603, Note_on_c, 0, 41, 41
1, 97615, Control_c, 0, 64, 63
1, 97628, Note_off_c, 0, 52, 38
1, 97630, Control_c, 0, 64, 64
1, 97645, Control_c, 0, 64, 66
1, 97660, Control_c, 0, 64, 69
1, 97661, Note_off_c, 0, 55, 35
1, 97674, Control_c, 0, 64, 71
1, 97689, Control_c, 0, 64, 73
1, 97704, Control_c, 0, 64, 77
1, 97716, Note_off_c, 0, 60, 34
1, 97718, Control_c, 0, 64, 81
1, 97733, Control_c, 0, 64, 87
1, 97748, Control_c, 0, 64, 93
1, 97763, Control_c, 0, 64, 103
1, 97778, Control_c, 0, 64, 120
1, 97792, Control_c, 0, 64, 127
1, 97886, Note_off_c, 0, 41, 39
1, 97934, Note_on_c, 0, 48, 44
1, 98051, Note_off_c, 0, 48, 61
1, 98085, Note_on_c, 0, 56, 56
1, 98164, Note_off_c, 0, 56, 61
1, 98237, Note_on_c, 0, 83, 66
1, 98258, Note_on_c, 0, 71, 47
1, 98271, Note_on_c, 0, 56, 43
1, 98382, Note_off_c, 0, 56, 34
1, 98416, Note_off_c, 0, 71, 35
1, 98436, Note_on_c, 0, 65, 42
1, 98560, Note_off_c, 0, 65, 56
1, 98572, Note_on_c, 0, 60, 51
1, 98606, Note_off_c, 0, 60, 64
1, 98758, Note_off_c, 0, 83, 63
1, 98776, Note_on_c, 0, 84, 58
1, 98781, Note_on_c, 0, 72, 56
1, 98838, Control_c, 0, 64, 111
1, 98853, Control_c, 0, 64, 87
1, 98867, Control_c, 0, 64, 65
1, 98882, Control_c, 0, 64, 0
1, 98927, Control_c, 0, 64, 41
1, 98933, Note_on_c, 0, 41, 54
1, 98948, Control_c, 0, 64, 65
1, 98963, Control_c, 0, 64, 75
1, 98978, Control_c, 0, 64, 88
1, 98989, Note_off_c, 0, 41, 64
1, 98989, Note_off_c, 0, 72, 51
1, 98993, Control_c, 0, 64, 99
1, 98999, Note_off_c, 0, 84, 59
1, 99008, Control_c, 0, 64, 107
1, 99023, Control_c, 0, 64, 127
1, 99117, Note_on_c, 0, 52, 53
1, 99193, Note_off_c, 0, 52, 62
1, 99240, Note_on_c, 0, 58, 61
1, 99273, Note_off_c, 0, 58, 65
1, 99335, Control_c, 0, 64, 120
1, 99350, Control_c, 0, 64, 89
1, 99354, Note_on_c, 0, 85, 71
1, 99361, Note_on_c, 0, 73, 59
1, 99364, Control_c, 0, 64, 67
1, 99368, Note_on_c, 0, 55, 53
1, 99379, Control_c, 0, 64, 0
1, 99438, Control_c, 0, 64, 52
1, 99453, Control_c, 0, 64, 67
1, 99468, Control_c, 0, 64, 74
1, 99483, Control_c, 0, 64, 83
1, 99497, Control_c, 0, 64, 92
1, 99513, Control_c, 0, 64, 99
1, 99528, Control_c, 0, 64, 108
1, 99543, Control_c, 0, 64, 127
1, 99563, Note_on_c, 0, 64, 35
1, 99641, Note_off_c, 0, 85, 55
1, 99773, Note_off_c, 0, 55, 35
1, 99803, Note_on_c, 0, 58, 42
1, 99832, Note_off_c, 0, 64, 34
1, 99910, Note_off_c, 0, 58, 62
1, 99924, Note_off_c, 0, 73, 39
1, 100065, Note_on_c, 0, 84, 55
1, 100079, Note_on_c, 0, 72, 45
1, 100247, Control_c, 0, 64, 100
1, 100262, Control_c, 0, 64, 77
1, 100276, Control_c, 0, 64, 59
1, 100284, Note_on_c, 0, 41, 40
1, 100291, Control_c, 0, 64, 0
1, 100335, Control_c, 0, 64, 59
1, 100350, Control_c, 0, 64, 66
1, 100365, Control_c, 0, 64, 72
1, 100380, Control_c, 0, 64, 79
1, 100394, Control_c, 0, 64, 85
1, 100409, Control_c, 0, 64, 90
1, 100421, Note_off_c, 0, 84, 38
1, 100424, Control_c, 0, 64, 94
1, 100427, Note_off_c, 0, 41, 58
1, 100446, Control_c, 0, 64, 99
1, 100460, Note_on_c, 0, 48, 52
1, 100461, Control_c, 0, 64, 105
1, 100476, Control_c, 0, 64, 112
1, 100478, Note_off_c, 0, 72, 63
1, 100491, Control_c, 0, 64, 124
1, 100506, Control_c, 0, 64, 127
1, 100527, Note_off_c, 0, 48, 58
1, 100567, Note_on_c, 0, 56, 52
1, 100597, Note_on_c, 0, 83, 61
1, 100599, Note_off_c, 0, 56, 66
1, 100608, Note_on_c, 0, 71, 47
1, 100633, Note_off_c, 0, 71, 57
1, 100659, Note_off_c, 0, 83, 64
1, 100690, Note_on_c, 0, 60, 44
1, 100692, Note_on_c, 0, 56, 47
1, 100744, Note_off_c, 0, 60, 55
1, 100749, Note_off_c, 0, 56, 65
1, 100750, Note_on_c, 0, 67, 66
1, 100753, Note_on_c, 0, 85, 70
1, 100754, Note_on_c, 0, 73, 64
1, 100785, Note_off_c, 0, 73, 65
1, 100794, Note_off_c, 0, 85, 62
1, 100803, Control_c, 0, 64, 99
1, 100805, Note_off_c, 0, 67, 56
1, 100817, Control_c, 0, 64, 77
1, 100831, Note_on_c, 0, 65, 57
1, 100832, Control_c, 0, 64, 62
1, 100847, Control_c, 0, 64, 52
1, 100861, Note_off_c, 0, 65, 64
1, 100862, Control_c, 0, 64, 64
1, 100877, Control_c, 0, 64, 70
1, 100884, Note_on_c, 0, 84, 67
1, 100886, Note_on_c, 0, 55, 52
1, 100886, Note_on_c, 0, 58, 38
1, 100892, Control_c, 0, 64, 81
1, 100894, Note_on_c, 0, 72, 63
1, 100907, Control_c, 0, 64, 98
1, 100917, Note_off_c, 0, 72, 64
1, 100922, Control_c, 0, 64, 127
1, 100951, Note_off_c, 0, 84, 63
1, 100961, Note_on_c, 0, 65, 55
1, 101095, Note_off_c, 0, 55, 48
1, 101105, Note_on_c, 0, 92, 61
1, 101109, Note_on_c, 0, 80, 59
1, 101109, Note_off_c, 0, 58, 43
1, 101113, Note_off_c, 0, 65, 49
1, 101118, Note_on_c, 0, 63, 51
1, 101136, Note_off_c, 0, 80, 62
1, 101166, Note_off_c, 0, 92, 62
1, 101235, Note_off_c, 0, 63, 63
1, 101275, Note_on_c, 0, 56, 41
1, 101282, Note_on_c, 0, 53, 44
1, 101389, Note_on_c, 0, 89, 65
1, 101389, Note_off_c, 0, 53, 54
1, 101391, Note_on_c, 0, 63, 49
1, 101403, Note_on_c, 0, 77, 47
1, 101443, Note_off_c, 0, 77, 46
1, 101467, Note_off_c, 0, 89, 58
1, 101468, Note_off_c, 0, 56, 33
1, 101509, Note_on_c, 0, 61, 57
1, 101545, Note_off_c, 0, 63, 39
1, 101587, Note_off_c, 0, 61, 61
1, 101610, Note_on_c, 0, 55, 51
1, 101634, Note_on_c, 0, 51, 50
1, 101712, Note_on_c, 0, 61, 59
1, 101712, Note_off_c, 0, 55, 51
1, 101757, Note_off_c, 0, 51, 63
1, 101767, Note_on_c, 0, 60, 65
1, 101768, Note_off_c, 0, 61, 57
1, 101818, Note_off_c, 0, 60, 59
1, 101848, Control_c, 0, 64, 95
1, 101854, Note_on_c, 0, 49, 59
1, 101863, Control_c, 0, 64, 75
1, 101868, Note_on_c, 0, 53, 37
1, 101878, Control_c, 0, 64, 48
1, 101892, Control_c, 0, 64, 0
1, 101902, Note_on_c, 0, 60, 62
1, 101908, Note_off_c, 0, 53, 55
1, 101945, Note_off_c, 0, 49, 62
1, 101972, Note_on_c, 0, 58, 66
1, 101974, Note_off_c, 0, 60, 63
1, 102034, Note_off_c, 0, 58, 64
1, 102040, Note_on_c, 0, 48, 62
1, 102051, Note_on_c, 0, 51, 55
1, 102063, Control_c, 0, 64, 54
1, 102078, Control_c, 0, 64, 62
1, 102092, Control_c, 0, 64, 64
1, 102099, Note_on_c, 0, 58, 65
1, 102107, Control_c, 0, 64, 66
1, 102117, Note_off_c, 0, 48, 57
1, 102122, Control_c, 0, 64, 66
1, 102130, Note_off_c, 0, 51, 61
1, 102137, Control_c, 0, 64, 68
1, 102152, Control_c, 0, 64, 70
1, 102166, Control_c, 0, 64, 73
1, 102177, Note_on_c, 0, 56, 62
1, 102181, Control_c, 0, 64, 75
1, 102182, Note_off_c, 0, 58, 64
1, 102196, Control_c, 0, 64, 76
1, 102210, Control_c, 0, 64, 76
1, 102234, Note_off_c, 0, 56, 63
1, 102240, Control_c, 0, 64, 77
1, 102245, Note_on_c, 0, 46, 57
1, 102252, Note_on_c, 0, 49, 52
1, 102255, Control_c, 0, 64, 78
1, 102270, Control_c, 0, 64, 79
1, 102284, Control_c, 0, 64, 81
1, 102299, Control_c, 0, 64, 82
1, 102315, Control_c, 0, 64, 84
1, 102330, Note_on_c, 0, 56, 52
1, 102330, Control_c, 0, 64, 86
1, 102345, Control_c, 0, 64, 89
1, 102360, Control_c, 0, 64, 92
1, 102375, Control_c, 0, 64, 94
1, 102389, Control_c, 0, 64, 97
1, 102404, Control_c, 0, 64, 101
1, 102408, Note_off_c, 0, 46, 38
1, 102419, Control_c, 0, 64, 107
1, 102433, Control_c, 0, 64, 114
1, 102448, Control_c, 0, 64, 127
1, 102451, Note_on_c, 0, 55, 65
1, 102451, Note_off_c, 0, 56, 64
1, 102460, Note_off_c, 0, 49, 33
1, 102478, Note_off_c, 0, 55, 65
1, 102588, Note_on_c, 0, 41, 66
1, 102612, Control_c, 0, 64, 93
1, 102627, Control_c, 0, 64, 71
1, 102642, Control_c, 0, 64, 0
1, 102723, Control_c, 0, 64, 59
1, 102724, Note_off_c, 0, 41, 61
1, 102738, Control_c, 0, 64, 67
1, 102753, Control_c, 0, 64, 76
1, 102755, Note_on_c, 0, 48, 49
1, 102767, Control_c, 0, 64, 89
1, 102782, Control_c, 0, 64, 99
1, 102797, Control_c, 0, 64, 109
1, 102807, Note_off_c, 0, 48, 57
1, 102812, Control_c, 0, 64, 127
1, 102835, Note_on_c, 0, 56, 57
1, 102872, Note_off_c, 0, 56, 64
1, 102925, Note_on_c, 0, 83, 66
1, 102933, Note_on_c, 0, 71, 48
1, 102955, Note_on_c, 0, 56, 55
1, 103023, Note_off_c, 0, 56, 50
1, 103035, Note_off_c, 0, 71, 49
1, 103078, Note_on_c, 0, 65, 51
1, 103180, Note_off_c, 0, 65, 61
1, 103197, Note_on_c, 0, 60, 57
1, 103236, Note_off_c, 0, 60, 60
1, 103280, Note_on_c, 0, 56, 18
1, 103292, Note_off_c, 0, 83, 65
1, 103307, Note_on_c, 0, 84, 64
1, 103312, Note_on_c, 0, 72, 60
1, 103321, Note_off_c, 0, 56, 54
1, 103375, Control_c, 0, 64, 90
1, 103379, Note_off_c, 0, 72, 63
1, 103389, Control_c, 0, 64, 68
1, 103392, Note_off_c, 0, 84, 61
1, 103394, Note_on_c, 0, 41, 70
1, 103404, Control_c, 0, 64, 0
1, 103419, Control_c, 0, 64, 27
1, 103441, Control_c, 0, 64, 61
1, 103451, Note_off_c, 0, 41, 60
1, 103456, Control_c, 0, 64, 69
1, 103470, Control_c, 0, 64, 80
1, 103485, Control_c, 0, 64, 96
1, 103500, Control_c, 0, 64, 118
1, 103515, Control_c, 0, 64, 127
1, 103542, Note_on_c, 0, 52, 62
1, 103602, Note_off_c, 0, 52, 61
1, 103638, Note_on_c, 0, 58, 58
1, 103667, Note_off_c, 0, 58, 65
1, 103727, Note_on_c, 0, 85, 70
1, 103731, Note_on_c, 0, 73, 61
1, 103752, Note_on_c, 0, 55, 57
1, 103752, Control_c, 0, 64, 97
1, 103767, Control_c, 0, 64, 79
1, 103781, Control_c, 0, 64, 68
1, 103796, Control_c, 0, 64, 65
1, 103811, Control_c, 0, 64, 68
1, 103826, Control_c, 0, 64, 75
1, 103841, Control_c, 0, 64, 87
1, 103856, Control_c, 0, 64, 110
1, 103870, Control_c, 0, 64, 127
1, 103900, Note_on_c, 0, 64, 44
1, 104042, Note_off_c, 0, 85, 49
1, 104046, Note_off_c, 0, 64, 58
1, 104050, Note_on_c, 0, 58, 61
1, 104066, Note_off_c, 0, 73, 61
1, 104070, Note_off_c, 0, 55, 35
1, 104107, Note_off_c, 0, 58, 62
1, 104163, Note_on_c, 0, 84, 68
1, 104169, Note_on_c, 0, 72, 63
1, 104227, Note_off_c, 0, 72, 61
1, 104242, Note_off_c, 0, 84, 64
1, 104279, Control_c, 0, 64, 97
1, 104292, Note_on_c, 0, 41, 67
1, 104293, Control_c, 0, 64, 78
1, 104308, Control_c, 0, 64, 65
1, 104323, Control_c, 0, 64, 62
1, 104338, Control_c, 0, 64, 64
1, 104353, Control_c, 0, 64, 67
1, 104368, Control_c, 0, 64, 70
1, 104376, Note_off_c, 0, 41, 63
1, 104383, Control_c, 0, 64, 77
1, 104383, Note_on_c, 0, 48, 60
1, 104398, Control_c, 0, 64, 89
1, 104412, Control_c, 0, 64, 102
1, 104427, Control_c, 0, 64, 116
1, 104442, Control_c, 0, 64, 127
1, 104442, Note_off_c, 0, 48, 60
1, 104463, Note_on_c, 0, 56, 68
1, 104484, Note_on_c, 0, 83, 73
1, 104492, Note_off_c, 0, 56, 66
1, 104496, Note_on_c, 0, 71, 53
1, 104511, Note_off_c, 0, 83, 68
1, 104517, Note_off_c, 0, 71, 60
1, 104558, Note_on_c, 0, 56, 56
1, 104569, Note_on_c, 0, 60, 65
1, 104608, Note_on_c, 0, 73, 74
1, 104617, Note_on_c, 0, 85, 71
1, 104618, Note_on_c, 0, 67, 71
1, 104621, Note_off_c, 0, 60, 56
1, 104622, Note_off_c, 0, 56, 65
1, 104643, Note_off_c, 0, 73, 59
1, 104661, Note_off_c, 0, 67, 50
1, 104675, Note_off_c, 0, 85, 62
1, 104679, Control_c, 0, 64, 111
1, 104693, Control_c, 0, 64, 80
1, 104694, Note_on_c, 0, 65, 57
1, 104709, Control_c, 0, 64, 56
1, 104723, Note_off_c, 0, 65, 64
1, 104724, Control_c, 0, 64, 0
1, 104739, Control_c, 0, 64, 30
1, 104740, Note_on_c, 0, 58, 57
1, 104741, Note_on_c, 0, 84, 71
1, 104742, Note_on_c, 0, 55, 66
1, 104746, Note_on_c, 0, 72, 74
1, 104754, Control_c, 0, 64, 65
1, 104768, Control_c, 0, 64, 76
1, 104774, Note_off_c, 0, 72, 66
1, 104783, Control_c, 0, 64, 93
1, 104793, Note_off_c, 0, 84, 62
1, 104798, Control_c, 0, 64, 127
1, 104822, Note_on_c, 0, 65, 57
1, 104898, Note_off_c, 0, 55, 57
1, 104900, Note_off_c, 0, 58, 59
1, 104916, Note_off_c, 0, 65, 58
1, 104938, Note_on_c, 0, 63, 60
1, 104949, Note_on_c, 0, 80, 72
1, 104955, Note_on_c, 0, 92, 72
1, 104989, Note_off_c, 0, 80, 59
1, 105009, Note_off_c, 0, 92, 62
1, 105027, Note_off_c, 0, 63, 62
1, 105052, Note_on_c, 0, 53, 58
1, 105077, Note_on_c, 0, 56, 46
1, 105159, Note_off_c, 0, 53, 53
1, 105160, Note_on_c, 0, 63, 68
1, 105163, Note_on_c, 0, 89, 77
1, 105170, Note_on_c, 0, 77, 67
1, 105225, Note_off_c, 0, 56, 38
1, 105232, Note_off_c, 0, 63, 64
1, 105250, Note_on_c, 0, 61, 70
1, 105256, Note_off_c, 0, 89, 61
1, 105274, Note_off_c, 0, 61, 66
1, 105292, Note_off_c, 0, 77, 59
1, 105353, Control_c, 0, 64, 117
1, 105354, Note_on_c, 0, 39, 83
1, 105368, Control_c, 0, 64, 83
1, 105383, Control_c, 0, 64, 61
1, 105398, Control_c, 0, 64, 0
1, 105427, Control_c, 0, 64, 49
1, 105442, Control_c, 0, 64, 68
1, 105447, Note_on_c, 0, 48, 64
1, 105457, Control_c, 0, 64, 81
1, 105461, Note_off_c, 0, 39, 64
1, 105472, Control_c, 0, 64, 101
1, 105486, Control_c, 0, 64, 127
1, 105512, Note_off_c, 0, 48, 62
1, 105536, Note_on_c, 0, 56, 66
1, 105566, Note_off_c, 0, 56, 66
1, 105616, Note_on_c, 0, 86, 79
1, 105624, Note_on_c, 0, 74, 72
1, 105661, Note_on_c, 0, 60, 58
1, 105664, Note_off_c, 0, 74, 60
1, 105685, Note_off_c, 0, 86, 62
1, 105771, Note_on_c, 0, 68, 61
1, 105823, Note_off_c, 0, 68, 62
1, 105856, Note_on_c, 0, 63, 71
1, 105857, Note_off_c, 0, 60, 54
1, 105881, Note_off_c, 0, 63, 66
1, 105931, Note_on_c, 0, 75, 73
1, 105933, Note_on_c, 0, 87, 71
1, 105992, Note_on_c, 0, 39, 81
1, 105998, Control_c, 0, 64, 93
1, 106013, Control_c, 0, 64, 67
1, 106020, Note_off_c, 0, 87, 59
1, 106028, Control_c, 0, 64, 0
1, 106073, Control_c, 0, 64, 52
1, 106088, Control_c, 0, 64, 69
1, 106088, Note_off_c, 0, 39, 63
1, 106093, Note_on_c, 0, 49, 69
1, 106102, Control_c, 0, 64, 82
1, 106117, Control_c, 0, 64, 100
1, 106132, Control_c, 0, 64, 127
1, 106145, Note_off_c, 0, 75, 34
1, 106152, Note_off_c, 0, 49, 60
1, 106181, Note_on_c, 0, 55, 52
1, 106216, Note_on_c, 0, 88, 74
1, 106216, Note_on_c, 0, 76, 74
1, 106230, Note_off_c, 0, 55, 61
1, 106291, Note_on_c, 0, 58, 52
1, 106323, Note_off_c, 0, 76, 52
1, 106323, Note_off_c, 0, 88, 58
1, 106477, Note_on_c, 0, 67, 45
1, 106620, Note_off_c, 0, 67, 53
1, 106661, Note_on_c, 0, 61, 58
1, 106666, Note_off_c, 0, 58, 49
1, 106707, Note_off_c, 0, 61, 61
1, 106805, Note_on_c, 0, 87, 62
1, 106809, Note_on_c, 0, 75, 55
1, 106920, Note_on_c, 0, 44, 68
1, 106925, Control_c, 0, 64, 108
1, 106940, Control_c, 0, 64, 79
1, 106955, Control_c, 0, 64, 55
1, 106970, Control_c, 0, 64, 0
1, 106983, Note_off_c, 0, 87, 38
1, 107014, Control_c, 0, 64, 47
1, 107029, Control_c, 0, 64, 64
1, 107031, Note_off_c, 0, 44, 60
1, 107033, Note_on_c, 0, 51, 61
1, 107044, Control_c, 0, 64, 71
1, 107058, Control_c, 0, 64, 77
1, 107061, Note_off_c, 0, 75, 63
1, 107073, Control_c, 0, 64, 81
1, 107088, Control_c, 0, 64, 86
1, 107102, Note_on_c, 0, 59, 64
1, 107104, Control_c, 0, 64, 92
1, 107108, Note_off_c, 0, 51, 62
1, 107113, Note_on_c, 0, 86, 67
1, 107117, Note_on_c, 0, 74, 61
1, 107119, Control_c, 0, 64, 99
1, 107134, Control_c, 0, 64, 107
1, 107136, Note_off_c, 0, 59, 62
1, 107146, Note_off_c, 0, 74, 66
1, 107148, Control_c, 0, 64, 124
1, 107163, Control_c, 0, 64, 127
1, 107182, Note_off_c, 0, 86, 64
1, 107227, Note_on_c, 0, 63, 57
1, 107262, Note_on_c, 0, 89, 85
1, 107275, Note_on_c, 0, 77, 67
1, 107277, Note_on_c, 0, 70, 64
1, 107285, Note_off_c, 0, 63, 61
1, 107290, Note_off_c, 0, 89, 61
1, 107294, Note_off_c, 0, 77, 64
1, 107353, Note_off_c, 0, 70, 63
1, 107358, Note_on_c, 0, 68, 74
1, 107378, Control_c, 0, 64, 112
1, 107393, Control_c, 0, 64, 87
1, 107407, Note_on_c, 0, 61, 56
1, 107408, Control_c, 0, 64, 71
1, 107409, Note_off_c, 0, 68, 53
1, 107422, Note_on_c, 0, 58, 58
1, 107423, Control_c, 0, 64, 66
1, 107424, Note_on_c, 0, 87, 73
1, 107426, Note_on_c, 0, 75, 65
1, 107437, Control_c, 0, 64, 72
1, 107452, Control_c, 0, 64, 87
1, 107453, Note_off_c, 0, 75, 68
1, 107467, Control_c, 0, 64, 109
1, 107481, Control_c, 0, 64, 127
1, 107488, Note_off_c, 0, 87, 63
1, 107530, Note_on_c, 0, 68, 57
1, 107561, Note_off_c, 0, 68, 64
1, 107566, Note_off_c, 0, 58, 39
1, 107569, Note_off_c, 0, 61, 60
1, 107594, Note_on_c, 0, 67, 60
1, 107627, Note_on_c, 0, 96, 78
1, 107630, Note_on_c, 0, 84, 77
1, 107671, Note_off_c, 0, 84, 62
1, 107674, Note_off_c, 0, 96, 59
1, 107699, Note_on_c, 0, 56, 55
1, 107705, Note_off_c, 0, 67, 56
1, 107726, Note_on_c, 0, 60, 52
1, 107793, Note_off_c, 0, 56, 59
1, 107815, Note_off_c, 0, 60, 58
1, 107829, Note_on_c, 0, 67, 60
1, 107855, Note_on_c, 0, 92, 82
1, 107863, Note_on_c, 0, 80, 76
1, 107911, Note_off_c, 0, 80, 64
1, 107912, Note_off_c, 0, 67, 61
1, 107916, Note_on_c, 0, 65, 71
1, 107929, Note_off_c, 0, 92, 62
1, 107950, Note_off_c, 0, 65, 68
1, 108023, Control_c, 0, 64, 84
1, 108031, Note_on_c, 0, 43, 81
1, 108038, Control_c, 0, 64, 58
1, 108052, Control_c, 0, 64, 0
1, 108097, Control_c, 0, 64, 60
1, 108112, Control_c, 0, 64, 71
1, 108127, Control_c, 0, 64, 83
1, 108129, Note_off_c, 0, 43, 54
1, 108136, Note_on_c, 0, 52, 64
1, 108142, Control_c, 0, 64, 101
1, 108142, Control_c, 0, 67, 113
1, 108156, Control_c, 0, 64, 127
1, 108156, Control_c, 0, 67, 93
1, 108171, Control_c, 0, 67, 69
1, 108186, Control_c, 0, 67, 42
1, 108201, Control_c, 0, 67, 14
1, 108206, Note_off_c, 0, 52, 61
1, 108216, Control_c, 0, 67, 0
1, 108243, Note_on_c, 0, 60, 62
1, 108276, Note_off_c, 0, 60, 65
1, 108301, Note_on_c, 0, 90, 87
1, 108306, Note_on_c, 0, 78, 82
1, 108344, Note_on_c, 0, 55, 56
1, 108434, Note_on_c, 0, 64, 57
1, 108503, Note_on_c, 0, 60, 75
1, 108511, Note_off_c, 0, 64, 64
1, 108527, Note_off_c, 0, 55, 54
1, 108529, Note_off_c, 0, 60, 66
1, 108532, Note_off_c, 0, 78, 63
1, 108595, Note_off_c, 0, 90, 60
1, 108604, Note_on_c, 0, 91, 78
1, 108616, Note_on_c, 0, 79, 69
1, 108648, Note_off_c, 0, 79, 64
1, 108659, Note_on_c, 0, 43, 72
1, 108663, Note_off_c, 0, 91, 65
1, 108697, Control_c, 0, 64, 88
1, 108713, Control_c, 0, 64, 66
1, 108727, Control_c, 0, 64, 0
1, 108772, Control_c, 0, 64, 59
1, 108787, Control_c, 0, 64, 68
1, 108788, Note_on_c, 0, 50, 67
1, 108801, Note_off_c, 0, 43, 62
1, 108801, Control_c, 0, 64, 78
1, 108816, Control_c, 0, 64, 91
1, 108831, Control_c, 0, 64, 103
1, 108846, Control_c, 0, 64, 121
1, 108861, Control_c, 0, 64, 127
1, 108883, Note_off_c, 0, 50, 60
1, 108907, Note_on_c, 0, 59, 59
1, 108927, Note_on_c, 0, 92, 81
1, 108934, Note_on_c, 0, 80, 78
1, 108984, Note_off_c, 0, 59, 61
1, 109060, Note_on_c, 0, 53, 50
1, 109101, Note_off_c, 0, 92, 60
1, 109175, Note_on_c, 0, 62, 50
1, 109276, Note_off_c, 0, 80, 58
1, 109278, Note_off_c, 0, 62, 55
1, 109284, Note_on_c, 0, 59, 55
1, 109290, Note_off_c, 0, 53, 38
1, 109327, Note_off_c, 0, 59, 61
1, 109414, Note_on_c, 0, 91, 65
1, 109418, Note_on_c, 0, 79, 61
1, 109479, Note_off_c, 0, 79, 63
1, 109486, Note_off_c, 0, 91, 66
1, 109508, Note_on_c, 0, 43, 63
1, 109566, Control_c, 0, 64, 99
1, 109581, Control_c, 0, 64, 76
1, 109596, Control_c, 0, 64, 54
1, 109609, Note_off_c, 0, 43, 55
1, 109611, Control_c, 0, 64, 0
1, 109616, Note_on_c, 0, 52, 67
1, 109625, Control_c, 0, 64, 56
1, 109640, Control_c, 0, 64, 66
1, 109655, Control_c, 0, 64, 74
1, 109670, Control_c, 0, 64, 86
1, 109678, Note_off_c, 0, 52, 60
1, 109684, Control_c, 0, 64, 98
1, 109699, Control_c, 0, 64, 106
1, 109704, Note_on_c, 0, 60, 61
1, 109714, Control_c, 0, 64, 120
1, 109717, Note_on_c, 0, 90, 84
1, 109723, Note_on_c, 0, 78, 74
1, 109729, Control_c, 0, 64, 127
1, 109737, Note_off_c, 0, 60, 65
1, 109749, Note_off_c, 0, 78, 64
1, 109778, Note_off_c, 0, 90, 59
1, 109798, Note_on_c, 0, 55, 68
1, 109853, Note_on_c, 0, 64, 73
1, 109872, Note_on_c, 0, 91, 85
1, 109877, Note_on_c, 0, 79, 80
1, 109903, Note_off_c, 0, 79, 65
1, 109909, Note_off_c, 0, 55, 62
1, 109911, Note_off_c, 0, 64, 64
1, 109912, Note_on_c, 0, 60, 79
1, 109924, Note_off_c, 0, 91, 65
1, 109936, Note_off_c, 0, 60, 69
1, 109981, Control_c, 0, 64, 90
1, 109995, Control_c, 0, 64, 66
1, 110010, Control_c, 0, 64, 0
1, 110022, Note_on_c, 0, 43, 65
1, 110037, Note_on_c, 0, 92, 78
1, 110040, Control_c, 0, 64, 64
1, 110040, Note_on_c, 0, 80, 79
1, 110048, Note_on_c, 0, 45, 44
1, 110053, Note_off_c, 0, 43, 64
1, 110055, Control_c, 0, 64, 75
1, 110069, Control_c, 0, 64, 94
1, 110075, Note_off_c, 0, 80, 57
1, 110082, Note_off_c, 0, 45, 51
1, 110084, Control_c, 0, 64, 127
1, 110103, Note_off_c, 0, 92, 61
1, 110119, Note_on_c, 0, 55, 48
1, 110166, Note_on_c, 0, 91, 81
1, 110181, Note_on_c, 0, 79, 63
1, 110195, Note_off_c, 0, 55, 39
1, 110198, Note_off_c, 0, 79, 65
1, 110199, Note_on_c, 0, 59, 65
1, 110223, Note_off_c, 0, 91, 65
1, 110241, Note_off_c, 0, 59, 59
1, 110339, Note_on_c, 0, 101, 93
1, 110343, Note_on_c, 0, 89, 87
1, 110346, Note_on_c, 0, 62, 56
1, 110373, Note_off_c, 0, 89, 64
1, 110386, Note_off_c, 0, 101, 65
1, 110496, Note_off_c, 0, 62, 60
1, 110514, Note_on_c, 0, 68, 59
1, 110522, Control_c, 0, 67, 11
1, 110537, Control_c, 0, 67, 18
1, 110552, Control_c, 0, 67, 28
1, 110567, Control_c, 0, 67, 41
1, 110581, Control_c, 0, 67, 57
1, 110596, Control_c, 0, 67, 76
1, 110611, Control_c, 0, 67, 96
1, 110625, Control_c, 0, 67, 121
1, 110640, Control_c, 0, 67, 127
1, 110768, Note_off_c, 0, 68, 60
1, 110773, Control_c, 0, 64, 104
1, 110786, Note_on_c, 0, 71, 50
1, 110788, Control_c, 0, 64, 90
1, 110803, Control_c, 0, 64, 75
1, 110817, Control_c, 0, 64, 62
1, 110832, Control_c, 0, 64, 0
1, 111075, Note_off_c, 0, 71, 49
1, 111196, Control_c, 0, 64, 28
1, 111211, Control_c, 0, 64, 42
1, 111226, Control_c, 0, 64, 53
1, 111241, Control_c, 0, 64, 61
1, 111255, Control_c, 0, 64, 64
1, 111270, Control_c, 0, 64, 67
1, 111285, Control_c, 0, 64, 70
1, 111300, Control_c, 0, 64, 75
1, 111315, Control_c, 0, 64, 79
1, 111329, Control_c, 0, 64, 83
1, 111344, Control_c, 0, 64, 88
1, 111359, Control_c, 0, 64, 93
1, 111374, Control_c, 0, 64, 99
1, 111389, Control_c, 0, 64, 106
1, 111403, Control_c, 0, 64, 113
1, 111418, Control_c, 0, 64, 127
1, 111517, Note_on_c, 0, 100, 62
1, 111537, Note_on_c, 0, 88, 54
1, 111589, Note_off_c, 0, 100, 60
1, 111616, Note_off_c, 0, 88, 62
1, 111782, Note_on_c, 0, 96, 54
1, 111784, Note_on_c, 0, 48, 41
1, 111790, Note_on_c, 0, 84, 40
1, 111826, Control_c, 0, 64, 114
1, 111841, Control_c, 0, 64, 90
1, 111855, Control_c, 0, 64, 76
1, 111870, Control_c, 0, 64, 65
1, 111885, Control_c, 0, 64, 58
1, 111900, Control_c, 0, 64, 58
1, 111915, Control_c, 0, 64, 62
1, 111930, Control_c, 0, 64, 65
1, 111945, Control_c, 0, 64, 68
1, 111960, Control_c, 0, 64, 72
1, 111975, Control_c, 0, 64, 81
1, 111990, Control_c, 0, 64, 93
1, 112005, Control_c, 0, 64, 104
1, 112019, Control_c, 0, 64, 117
1, 112034, Control_c, 0, 64, 127
1, 112131, Note_off_c, 0, 48, 53
1, 112192, Note_on_c, 0, 60, 47
1, 112375, Note_off_c, 0, 60, 57
1, 112381, Note_on_c, 0, 55, 45
1, 112509, Note_off_c, 0, 55, 36
1, 112549, Note_on_c, 0, 64, 52
1, 112657, Note_off_c, 0, 64, 61
1, 112685, Note_on_c, 0, 60, 54
1, 112750, Note_off_c, 0, 60, 57
1, 112795, Note_on_c, 0, 67, 50
1, 112829, Note_off_c, 0, 67, 65
1, 112889, Note_on_c, 0, 64, 52
1, 112975, Control_c, 0, 67, 117
1, 112978, Note_on_c, 0, 72, 66
1, 112990, Control_c, 0, 67, 98
1, 113006, Control_c, 0, 67, 75
1, 113020, Control_c, 0, 67, 52
1, 113035, Control_c, 0, 67, 30
1, 113050, Control_c, 0, 67, 9
1, 113065, Control_c, 0, 67, 0
1, 113078, Note_on_c, 0, 60, 49
1, 113079, Note_off_c, 0, 64, 30
1, 113172, Note_off_c, 0, 72, 50
1, 113218, Note_on_c, 0, 67, 47
1, 113322, Note_off_c, 0, 84, 37
1, 113330, Note_on_c, 0, 64, 46
1, 113382, Note_off_c, 0, 60, 28
1, 113484, Note_on_c, 0, 72, 61
1, 113487, Note_off_c, 0, 67, 40
1, 113528, Note_off_c, 0, 72, 60
1, 113545, Note_off_c, 0, 96, 30
1, 113563, Note_off_c, 0, 64, 36
1, 113645, Note_on_c, 0, 84, 65
1, 114414, Note_on_c, 0, 45, 43
1, 114459, Control_c, 0, 64, 110
1, 114464, Note_on_c, 0, 96, 61
1, 114473, Control_c, 0, 64, 90
1, 114488, Control_c, 0, 64, 72
1, 114503, Control_c, 0, 64, 36
1, 114518, Control_c, 0, 64, 0
1, 114562, Control_c, 0, 64, 32
1, 114577, Control_c, 0, 64, 58
1, 114591, Control_c, 0, 64, 65
1, 114606, Control_c, 0, 64, 72
1, 114621, Control_c, 0, 64, 85
1, 114636, Control_c, 0, 64, 95
1, 114651, Control_c, 0, 64, 104
1, 114673, Control_c, 0, 64, 119
1, 114688, Control_c, 0, 64, 127
1, 114750, Note_off_c, 0, 45, 58
1, 114792, Note_on_c, 0, 57, 43
1, 114958, Note_on_c, 0, 52, 50
1, 114969, Control_c, 0, 67, 8
1, 114980, Note_off_c, 0, 57, 55
1, 114984, Control_c, 0, 67, 11
1, 114998, Control_c, 0, 67, 16
1, 115013, Control_c, 0, 67, 23
1, 115028, Control_c, 0, 67, 36
1, 115043, Control_c, 0, 67, 51
1, 115058, Control_c, 0, 67, 68
1, 115072, Control_c, 0, 67, 86
1, 115088, Control_c, 0, 67, 101
1, 115103, Control_c, 0, 67, 115
1, 115118, Control_c, 0, 67, 126
1, 115123, Note_on_c, 0, 60, 56
1, 115123, Note_off_c, 0, 52, 45
1, 115133, Control_c, 0, 67, 127
1, 115239, Note_off_c, 0, 60, 52
1, 115248, Note_on_c, 0, 57, 55
1, 115297, Note_off_c, 0, 96, 28
1, 115302, Note_off_c, 0, 84, 54
1, 115322, Note_off_c, 0, 57, 61
1, 115334, Note_on_c, 0, 64, 66
1, 115377, Note_off_c, 0, 64, 56
1, 115420, Note_on_c, 0, 84, 77
1, 115421, Note_on_c, 0, 96, 78
1, 115448, Note_on_c, 0, 60, 65
1, 115535, Note_on_c, 0, 69, 63
1, 115549, Note_off_c, 0, 60, 43
1, 115600, Note_off_c, 0, 69, 61
1, 115615, Note_on_c, 0, 64, 64
1, 115710, Note_on_c, 0, 72, 60
1, 115743, Note_off_c, 0, 64, 58
1, 115761, Note_on_c, 0, 60, 55
1, 115797, Note_off_c, 0, 72, 49
1, 115803, Note_off_c, 0, 84, 58
1, 115806, Note_off_c, 0, 96, 63
1, 115854, Note_off_c, 0, 60, 60
1, 115878, Note_on_c, 0, 69, 34
1, 115889, Note_on_c, 0, 71, 19
1, 115913, Note_off_c, 0, 69, 49
1, 115926, Note_off_c, 0, 71, 54
1, 116038, Note_on_c, 0, 96, 79
1, 116050, Note_on_c, 0, 84, 69
1, 116221, Note_off_c, 0, 84, 62
1, 116222, Note_off_c, 0, 96, 62
1, 116251, Note_on_c, 0, 45, 57
1, 116327, Note_on_c, 0, 96, 75
1, 116327, Note_on_c, 0, 84, 70
1, 116349, Control_c, 0, 64, 110
1, 116363, Control_c, 0, 64, 83
1, 116378, Control_c, 0, 64, 64
1, 116393, Control_c, 0, 64, 0
1, 116423, Control_c, 0, 64, 54
1, 116437, Control_c, 0, 64, 66
1, 116452, Control_c, 0, 64, 73
1, 116467, Control_c, 0, 64, 85
1, 116482, Control_c, 0, 64, 98
1, 116497, Control_c, 0, 64, 110
1, 116511, Note_off_c, 0, 45, 31
1, 116512, Control_c, 0, 64, 127
1, 116548, Note_on_c, 0, 54, 52
1, 116676, Note_on_c, 0, 51, 48
1, 116726, Note_off_c, 0, 51, 61
1, 116734, Note_off_c, 0, 54, 50
1, 116774, Note_off_c, 0, 96, 62
1, 116792, Note_on_c, 0, 60, 44
1, 116840, Note_off_c, 0, 60, 62
1, 116853, Note_off_c, 0, 84, 60
1, 116885, Note_on_c, 0, 57, 54
1, 116964, Note_off_c, 0, 57, 59
1, 116994, Note_on_c, 0, 66, 61
1, 117069, Note_on_c, 0, 95, 67
1, 117072, Note_on_c, 0, 83, 62
1, 117079, Note_off_c, 0, 66, 56
1, 117086, Note_on_c, 0, 63, 49
1, 117140, Note_off_c, 0, 63, 58
1, 117167, Note_on_c, 0, 71, 48
1, 117206, Note_off_c, 0, 71, 45
1, 117227, Note_on_c, 0, 57, 55
1, 117323, Note_off_c, 0, 57, 25
1, 117332, Note_on_c, 0, 66, 54
1, 117415, Note_off_c, 0, 66, 51
1, 117421, Note_on_c, 0, 63, 44
1, 117521, Note_off_c, 0, 63, 34
1, 117536, Note_on_c, 0, 71, 53
1, 117570, Note_off_c, 0, 71, 65
1, 117603, Control_c, 0, 67, 126
1, 117617, Control_c, 0, 67, 118
1, 117632, Control_c, 0, 67, 109
1, 117647, Control_c, 0, 67, 101
1, 117669, Control_c, 0, 67, 93
1, 117684, Control_c, 0, 67, 83
1, 117698, Control_c, 0, 67, 69
1, 117713, Control_c, 0, 67, 58
1, 117728, Control_c, 0, 67, 48
1, 117743, Control_c, 0, 67, 39
1, 117758, Control_c, 0, 67, 31
1, 117773, Control_c, 0, 67, 22
1, 117788, Control_c, 0, 67, 14
1, 117803, Control_c, 0, 64, 106
1, 117803, Control_c, 0, 67, 8
1, 117817, Control_c, 0, 64, 85
1, 117817, Control_c, 0, 67, 0
1, 117832, Control_c, 0, 64, 66
1, 117832, Note_on_c, 0, 45, 34
1, 117847, Control_c, 0, 64, 30
1, 117862, Control_c, 0, 64, 38
1, 117876, Control_c, 0, 64, 57
1, 117891, Control_c, 0, 64, 64
1, 117906, Control_c, 0, 64, 69
1, 117921, Control_c, 0, 64, 77
1, 117936, Control_c, 0, 64, 88
1, 117950, Control_c, 0, 64, 98
1, 117965, Control_c, 0, 64, 107
1, 117980, Control_c, 0, 64, 119
1, 117982, Note_off_c, 0, 45, 35
1, 117995, Control_c, 0, 64, 127
1, 118035, Note_on_c, 0, 56, 61
1, 118046, Note_off_c, 0, 95, 61
1, 118055, Note_off_c, 0, 83, 60
1, 118100, Note_off_c, 0, 56, 60
1, 118122, Note_on_c, 0, 53, 54
1, 118184, Note_off_c, 0, 53, 60
1, 118208, Note_on_c, 0, 62, 59
1, 118208, Note_on_c, 0, 95, 84
1, 118214, Note_on_c, 0, 83, 73
1, 118270, Note_off_c, 0, 62, 59
1, 118311, Note_on_c, 0, 56, 71
1, 118360, Note_off_c, 0, 83, 63
1, 118389, Note_on_c, 0, 65, 61
1, 118417, Note_off_c, 0, 56, 53
1, 118463, Note_on_c, 0, 62, 56
1, 118464, Note_off_c, 0, 65, 64
1, 118479, Note_on_c, 0, 96, 84
1, 118482, Note_on_c, 0, 84, 81
1, 118493, Note_off_c, 0, 95, 64
1, 118516, Note_on_c, 0, 71, 53
1, 118539, Note_off_c, 0, 71, 61
1, 118603, Note_off_c, 0, 62, 58
1, 118611, Note_on_c, 0, 56, 71
1, 118635, Note_off_c, 0, 84, 59
1, 118705, Note_on_c, 0, 65, 63
1, 118709, Note_off_c, 0, 56, 59
1, 118754, Note_on_c, 0, 98, 84
1, 118756, Note_on_c, 0, 86, 76
1, 118761, Note_off_c, 0, 96, 64
1, 118795, Note_on_c, 0, 62, 53
1, 118810, Note_off_c, 0, 65, 53
1, 118863, Control_c, 0, 67, 9
1, 118878, Control_c, 0, 67, 19
1, 118886, Note_off_c, 0, 62, 60
1, 118892, Control_c, 0, 67, 35
1, 118903, Note_on_c, 0, 71, 59
1, 118907, Control_c, 0, 67, 63
1, 118922, Control_c, 0, 67, 89
1, 118937, Note_off_c, 0, 71, 63
1, 118937, Control_c, 0, 67, 116
1, 118952, Control_c, 0, 67, 127
1, 118972, Note_off_c, 0, 86, 55
1, 119146, Note_on_c, 0, 45, 68
1, 119226, Control_c, 0, 64, 99
1, 119232, Note_on_c, 0, 100, 82
1, 119233, Note_on_c, 0, 88, 74
1, 119239, Note_off_c, 0, 98, 65
1, 119241, Control_c, 0, 64, 73
1, 119256, Control_c, 0, 64, 0
1, 119329, Control_c, 0, 64, 51
1, 119344, Control_c, 0, 64, 66
1, 119359, Control_c, 0, 64, 75
1, 119374, Control_c, 0, 64, 87
1, 119388, Control_c, 0, 64, 103
1, 119403, Control_c, 0, 64, 127
1, 119430, Note_off_c, 0, 45, 46
1, 119476, Note_off_c, 0, 100, 54
1, 119511, Note_on_c, 0, 57, 53
1, 119590, Note_off_c, 0, 57, 62
1, 119615, Note_on_c, 0, 52, 54
1, 119647, Note_off_c, 0, 88, 61
1, 119677, Note_off_c, 0, 52, 47
1, 119701, Note_on_c, 0, 60, 51
1, 119768, Note_off_c, 0, 60, 57
1, 119787, Note_on_c, 0, 57, 54
1, 119832, Note_off_c, 0, 57, 59
1, 119859, Note_on_c, 0, 96, 67
1, 119865, Note_on_c, 0, 84, 62
1, 119880, Note_on_c, 0, 64, 55
1, 119900, Note_off_c, 0, 96, 56
1, 119928, Note_off_c, 0, 84, 57
1, 119931, Note_off_c, 0, 64, 63
1, 120007, Note_on_c, 0, 60, 55
1, 120029, Note_on_c, 0, 81, 79
1, 120035, Note_on_c, 0, 93, 49
1, 120107, Note_off_c, 0, 93, 51
1, 120118, Note_off_c, 0, 81, 60
1, 120137, Note_on_c, 0, 69, 47
1, 120174, Note_off_c, 0, 60, 33
1, 120208, Note_on_c, 0, 57, 45
1, 120271, Note_off_c, 0, 69, 53
1, 120313, Note_on_c, 0, 64, 40
1, 120355, Note_off_c, 0, 57, 56
1, 120396, Note_on_c, 0, 60, 45
1, 120480, Note_off_c, 0, 64, 31
1, 120532, Note_on_c, 0, 69, 45
1, 120571, Note_off_c, 0, 60, 35
1, 120589, Note_off_c, 0, 69, 61
1, 121011, Note_on_c, 0, 45, 50
1, 121076, Note_on_c, 0, 72, 54
1, 121082, Note_on_c, 0, 84, 60
1, 121094, Control_c, 0, 64, 99
1, 121108, Control_c, 0, 64, 81
1, 121123, Control_c, 0, 64, 63
1, 121138, Control_c, 0, 64, 0
1, 121198, Control_c, 0, 64, 45
1, 121212, Control_c, 0, 64, 63
1, 121227, Control_c, 0, 64, 68
1, 121241, Control_c, 0, 64, 75
1, 121256, Control_c, 0, 64, 84
1, 121271, Control_c, 0, 64, 93
1, 121285, Control_c, 0, 64, 98
1, 121289, Note_off_c, 0, 45, 58
1, 121300, Control_c, 0, 64, 103
1, 121315, Control_c, 0, 64, 109
1, 121330, Control_c, 0, 64, 116
1, 121345, Control_c, 0, 64, 127
1, 121351, Note_on_c, 0, 57, 52
1, 121449, Note_off_c, 0, 57, 58
1, 121508, Note_on_c, 0, 52, 34
1, 121601, Note_off_c, 0, 52, 50
1, 121606, Note_on_c, 0, 60, 42
1, 121682, Note_off_c, 0, 60, 51
1, 121690, Note_on_c, 0, 57, 51
1, 121744, Note_off_c, 0, 57, 59
1, 121753, Control_c, 0, 67, 123
1, 121768, Control_c, 0, 67, 117
1, 121778, Note_off_c, 0, 72, 48
1, 121782, Note_off_c, 0, 84, 63
1, 121783, Control_c, 0, 67, 109
1, 121786, Note_on_c, 0, 64, 55
1, 121797, Control_c, 0, 67, 99
1, 121812, Control_c, 0, 67, 88
1, 121822, Note_off_c, 0, 64, 66
1, 121827, Control_c, 0, 67, 78
1, 121842, Control_c, 0, 67, 66
1, 121857, Control_c, 0, 67, 56
1, 121872, Control_c, 0, 67, 45
1, 121874, Note_on_c, 0, 84, 81
1, 121875, Note_on_c, 0, 72, 76
1, 121886, Note_on_c, 0, 60, 57
1, 121886, Control_c, 0, 67, 31
1, 121901, Control_c, 0, 67, 17
1, 121916, Control_c, 0, 67, 0
1, 121990, Note_on_c, 0, 69, 47
1, 121998, Note_off_c, 0, 60, 52
1, 122054, Note_on_c, 0, 57, 57
1, 122105, Note_off_c, 0, 69, 48
1, 122136, Note_on_c, 0, 64, 53
1, 122172, Note_off_c, 0, 72, 45
1, 122183, Note_off_c, 0, 57, 53
1, 122205, Note_on_c, 0, 60, 47
1, 122239, Note_off_c, 0, 64, 55
1, 122256, Note_off_c, 0, 84, 53
1, 122272, Note_on_c, 0, 69, 53
1, 122298, Note_off_c, 0, 60, 58
1, 122307, Note_off_c, 0, 69, 66
1, 122416, Note_on_c, 0, 84, 78
1, 122422, Note_on_c, 0, 72, 72
1, 122552, Note_off_c, 0, 72, 58
1, 122554, Note_on_c, 0, 45, 68
1, 122554, Note_off_c, 0, 84, 63
1, 122641, Note_on_c, 0, 84, 81
1, 122646, Note_on_c, 0, 72, 79
1, 122665, Control_c, 0, 64, 92
1, 122679, Control_c, 0, 64, 74
1, 122694, Control_c, 0, 64, 60
1, 122709, Control_c, 0, 64, 22
1, 122724, Control_c, 0, 64, 32
1, 122739, Control_c, 0, 64, 54
1, 122754, Control_c, 0, 64, 64
1, 122769, Control_c, 0, 64, 68
1, 122784, Control_c, 0, 64, 74
1, 122799, Control_c, 0, 64, 85
1, 122814, Note_on_c, 0, 54, 55
1, 122814, Control_c, 0, 64, 102
1, 122828, Control_c, 0, 64, 122
1, 122841, Note_off_c, 0, 45, 39
1, 122843, Control_c, 0, 64, 127
1, 122894, Note_on_c, 0, 51, 64
1, 122955, Note_off_c, 0, 54, 38
1, 122976, Note_on_c, 0, 57, 61
1, 122978, Note_off_c, 0, 51, 62
1, 123015, Note_off_c, 0, 57, 60
1, 123074, Note_on_c, 0, 54, 67
1, 123100, Note_off_c, 0, 84, 49
1, 123153, Note_on_c, 0, 63, 66
1, 123174, Note_off_c, 0, 54, 59
1, 123222, Note_off_c, 0, 63, 62
1, 123238, Note_on_c, 0, 57, 70
1, 123285, Note_off_c, 0, 72, 55
1, 123323, Note_on_c, 0, 66, 70
1, 123346, Note_off_c, 0, 57, 57
1, 123396, Note_on_c, 0, 54, 72
1, 123419, Note_off_c, 0, 66, 61
1, 123469, Note_on_c, 0, 83, 85
1, 123475, Note_on_c, 0, 71, 74
1, 123476, Note_on_c, 0, 63, 59
1, 123514, Note_on_c, 0, 57, 43
1, 123517, Note_off_c, 0, 54, 51
1, 123523, Note_off_c, 0, 63, 60
1, 123549, Note_on_c, 0, 66, 78
1, 123571, Note_off_c, 0, 66, 72
1, 123581, Note_off_c, 0, 57, 62
1, 123747, Control_c, 0, 64, 122
1, 123762, Control_c, 0, 64, 86
1, 123763, Note_on_c, 0, 44, 73
1, 123777, Control_c, 0, 64, 64
1, 123792, Control_c, 0, 64, 0
1, 123836, Control_c, 0, 64, 53
1, 123851, Control_c, 0, 64, 69
1, 123866, Control_c, 0, 64, 79
1, 123882, Control_c, 0, 64, 92
1, 123897, Control_c, 0, 64, 105
1, 123911, Control_c, 0, 64, 127
1, 123926, Note_on_c, 0, 54, 69
1, 123943, Note_off_c, 0, 44, 59
1, 123944, Note_off_c, 0, 71, 59
1, 123996, Note_off_c, 0, 54, 62
1, 124000, Note_on_c, 0, 51, 68
1, 124057, Note_on_c, 0, 57, 63
1, 124060, Note_on_c, 0, 84, 86
1, 124065, Note_off_c, 0, 51, 62
1, 124067, Note_on_c, 0, 72, 84
1, 124080, Note_off_c, 0, 83, 66
1, 124097, Note_off_c, 0, 57, 56
1, 124134, Control_c, 0, 67, 9
1, 124149, Control_c, 0, 67, 15
1, 124152, Note_on_c, 0, 54, 68
1, 124164, Control_c, 0, 67, 23
1, 124178, Control_c, 0, 67, 33
1, 124193, Control_c, 0, 67, 46
1, 124203, Note_off_c, 0, 72, 62
1, 124208, Control_c, 0, 67, 64
1, 124223, Control_c, 0, 67, 84
1, 124237, Control_c, 0, 67, 104
1, 124241, Note_off_c, 0, 54, 59
1, 124247, Note_on_c, 0, 60, 58
1, 124252, Control_c, 0, 67, 122
1, 124267, Control_c, 0, 67, 127
1, 124336, Note_on_c, 0, 56, 61
1, 124340, Note_on_c, 0, 73, 75
1, 124341, Control_c, 0, 64, 93
1, 124342, Note_off_c, 0, 60, 54
1, 124343, Note_on_c, 0, 85, 72
1, 124355, Control_c, 0, 64, 70
1, 124360, Note_off_c, 0, 84, 54
1, 124370, Control_c, 0, 64, 0
1, 124423, Control_c, 0, 64, 34
1, 124437, Control_c, 0, 64, 65
1, 124452, Control_c, 0, 64, 76
1, 124467, Note_on_c, 0, 66, 50
1, 124467, Control_c, 0, 64, 88
1, 124482, Control_c, 0, 64, 100
1, 124497, Control_c, 0, 64, 110
1, 124505, Note_off_c, 0, 73, 56
1, 124511, Control_c, 0, 64, 127
1, 124534, Note_off_c, 0, 56, 27
1, 124566, Note_off_c, 0, 85, 63
1, 124576, Note_on_c, 0, 54, 49
1, 124669, Note_off_c, 0, 54, 61
1, 124683, Note_on_c, 0, 87, 67
1, 124689, Note_on_c, 0, 75, 62
1, 124694, Note_off_c, 0, 66, 48
1, 124695, Note_on_c, 0, 60, 56
1, 124805, Note_on_c, 0, 56, 48
1, 124832, Note_off_c, 0, 60, 36
1, 124868, Note_on_c, 0, 66, 57
1, 124877, Note_off_c, 0, 75, 35
1, 124894, Note_off_c, 0, 66, 67
1, 124950, Note_off_c, 0, 56, 64
1, 125189, Note_on_c, 0, 37, 52
1, 125230, Control_c, 0, 64, 119
1, 125245, Control_c, 0, 64, 90
1, 125246, Note_on_c, 0, 89, 69
1, 125246, Note_off_c, 0, 87, 56
1, 125252, Note_on_c, 0, 77, 60
1, 125259, Control_c, 0, 64, 71
1, 125274, Control_c, 0, 64, 0
1, 125333, Control_c, 0, 64, 55
1, 125348, Control_c, 0, 64, 65
1, 125363, Control_c, 0, 64, 72
1, 125377, Control_c, 0, 64, 80
1, 125392, Control_c, 0, 64, 89
1, 125407, Control_c, 0, 64, 97
1, 125422, Control_c, 0, 64, 103
1, 125437, Control_c, 0, 64, 114
1, 125452, Control_c, 0, 64, 127
1, 125476, Note_off_c, 0, 37, 35
1, 125516, Note_off_c, 0, 89, 36
1, 125517, Note_on_c, 0, 49, 48
1, 125604, Note_off_c, 0, 49, 46
1, 125621, Note_off_c, 0, 77, 59
1, 125660, Note_on_c, 0, 44, 53
1, 125769, Note_on_c, 0, 53, 56
1, 125822, Note_off_c, 0, 44, 33
1, 125826, Note_on_c, 0, 49, 53
1, 125834, Note_off_c, 0, 53, 45
1, 125901, Note_off_c, 0, 49, 59
1, 125911, Note_on_c, 0, 56, 59
1, 125912, Note_on_c, 0, 85, 63
1, 125914, Note_on_c, 0, 73, 63
1, 125949, Note_off_c, 0, 85, 63
1, 125950, Note_off_c, 0, 56, 59
1, 125970, Note_off_c, 0, 73, 63
1, 126062, Note_on_c, 0, 53, 49
1, 126068, Note_on_c, 0, 80, 71
1, 126077, Note_on_c, 0, 68, 64
1, 126154, Note_off_c, 0, 53, 47
1, 126175, Note_on_c, 0, 61, 50
1, 126206, Note_off_c, 0, 68, 35
1, 126216, Note_off_c, 0, 80, 57
1, 126257, Note_on_c, 0, 56, 51
1, 126259, Note_off_c, 0, 61, 46
1, 126347, Note_on_c, 0, 65, 45
1, 126386, Note_off_c, 0, 56, 33
1, 126430, Note_on_c, 0, 53, 50
1, 126505, Note_off_c, 0, 53, 59
1, 126534, Note_on_c, 0, 61, 54
1, 126578, Note_off_c, 0, 65, 34
1, 126632, Note_off_c, 0, 61, 60
1, 127045, Note_on_c, 0, 37, 54
1, 127100, Note_on_c, 0, 82, 66
1, 127102, Note_on_c, 0, 94, 75
1, 127115, Control_c, 0, 64, 103
1, 127129, Control_c, 0, 64, 84
1, 127144, Control_c, 0, 64, 69
1, 127159, Control_c, 0, 64, 53
1, 127173, Control_c, 0, 64, 51
1, 127188, Control_c, 0, 64, 62
1, 127203, Control_c, 0, 64, 67
1, 127218, Control_c, 0, 64, 73
1, 127233, Control_c, 0, 64, 82
1, 127247, Control_c, 0, 64, 92
1, 127262, Control_c, 0, 64, 102
1, 127277, Control_c, 0, 64, 113
1, 127291, Control_c, 0, 64, 127
1, 127306, Control_c, 0, 67, 119
1, 127321, Control_c, 0, 67, 107
1, 127328, Note_off_c, 0, 37, 52
1, 127336, Control_c, 0, 67, 92
1, 127338, Note_on_c, 0, 46, 57
1, 127351, Control_c, 0, 67, 78
1, 127365, Control_c, 0, 67, 64
1, 127380, Control_c, 0, 67, 51
1, 127403, Control_c, 0, 67, 36
1, 127418, Control_c, 0, 67, 25
1, 127433, Control_c, 0, 67, 13
1, 127447, Control_c, 0, 67, 0
1, 127456, Note_off_c, 0, 46, 54
1, 127457, Note_on_c, 0, 43, 60
1, 127532, Note_off_c, 0, 43, 61
1, 127553, Note_on_c, 0, 52, 65
1, 127601, Note_off_c, 0, 52, 61
1, 127640, Note_off_c, 0, 82, 59
1, 127666, Note_on_c, 0, 49, 59
1, 127674, Note_off_c, 0, 94, 35
1, 127734, Note_on_c, 0, 58, 66
1, 127751, Note_off_c, 0, 49, 59
1, 127822, Note_off_c, 0, 58, 62
1, 127836, Note_on_c, 0, 82, 79
1, 127836, Note_on_c, 0, 94, 85
1, 127837, Note_on_c, 0, 55, 62
1, 127881, Note_on_c, 0, 64, 61
1, 127903, Note_off_c, 0, 64, 62
1, 127986, Note_on_c, 0, 49, 66
1, 127989, Note_off_c, 0, 55, 59
1, 128045, Note_on_c, 0, 58, 71
1, 128069, Note_off_c, 0, 49, 60
1, 128111, Note_on_c, 0, 55, 62
1, 128114, Note_off_c, 0, 82, 65
1, 128118, Note_off_c, 0, 94, 61
1, 128160, Note_on_c, 0, 64, 68
1, 128162, Note_off_c, 0, 58, 60
1, 128188, Note_off_c, 0, 64, 68
1, 128215, Note_on_c, 0, 82, 82
1, 128229, Note_on_c, 0, 94, 79
1, 128241, Note_off_c, 0, 55, 62
1, 128265, Note_off_c, 0, 82, 64
1, 128360, Note_on_c, 0, 82, 90
1, 128393, Note_off_c, 0, 94, 62
1, 128499, Note_on_c, 0, 37, 71
1, 128567, Control_c, 0, 64, 106
1, 128582, Control_c, 0, 64, 79
1, 128595, Note_on_c, 0, 94, 93
1, 128596, Control_c, 0, 64, 12
1, 128611, Control_c, 0, 64, 0
1, 128701, Control_c, 0, 64, 59
1, 128716, Control_c, 0, 64, 69
1, 128731, Control_c, 0, 64, 80
1, 128745, Control_c, 0, 64, 93
1, 128760, Control_c, 0, 64, 109
1, 128768, Note_off_c, 0, 37, 60
1, 128775, Control_c, 0, 64, 127
1, 128795, Note_on_c, 0, 49, 58
1, 128860, Note_off_c, 0, 49, 53
1, 128907, Note_on_c, 0, 44, 68
1, 128987, Note_off_c, 0, 94, 57
1, 128992, Note_on_c, 0, 53, 52
1, 129042, Note_on_c, 0, 49, 62
1, 129043, Note_off_c, 0, 44, 34
1, 129070, Note_off_c, 0, 53, 57
1, 129092, Note_on_c, 0, 56, 65
1, 129094, Note_off_c, 0, 49, 62
1, 129124, Note_off_c, 0, 56, 67
1, 129124, Note_off_c, 0, 82, 55
1, 129187, Note_on_c, 0, 53, 60
1, 129257, Note_on_c, 0, 61, 64
1, 129285, Note_off_c, 0, 53, 51
1, 129327, Note_on_c, 0, 56, 59
1, 129338, Note_off_c, 0, 61, 53
1, 129348, Note_on_c, 0, 92, 80
1, 129354, Note_on_c, 0, 80, 75
1, 129404, Note_on_c, 0, 65, 56
1, 129425, Note_off_c, 0, 56, 54
1, 129431, Note_off_c, 0, 92, 65
1, 129434, Note_off_c, 0, 80, 61
1, 129491, Note_on_c, 0, 53, 62
1, 129518, Note_off_c, 0, 65, 57
1, 129539, Note_off_c, 0, 53, 61
1, 129546, Note_on_c, 0, 61, 57
1, 129559, Note_on_c, 0, 89, 79
1, 129562, Note_on_c, 0, 77, 76
1, 129574, Note_off_c, 0, 61, 65
1, 129695, Note_off_c, 0, 77, 60
1, 129714, Note_off_c, 0, 89, 51
1, 129723, Control_c, 0, 67, 10
1, 129737, Note_on_c, 0, 37, 60
1, 129738, Control_c, 0, 67, 16
1, 129753, Control_c, 0, 67, 27
1, 129768, Control_c, 0, 67, 43
1, 129783, Control_c, 0, 67, 65
1, 129798, Control_c, 0, 67, 95
1, 129811, Note_on_c, 0, 89, 86
1, 129813, Control_c, 0, 67, 127
1, 129813, Note_on_c, 0, 77, 81
1, 129828, Control_c, 0, 64, 101
1, 129843, Control_c, 0, 64, 79
1, 129857, Control_c, 0, 64, 63
1, 129872, Control_c, 0, 64, 0
1, 129931, Control_c, 0, 64, 50
1, 129946, Control_c, 0, 64, 63
1, 129959, Note_off_c, 0, 37, 61
1, 129961, Control_c, 0, 64, 70
1, 129975, Control_c, 0, 64, 80
1, 129990, Control_c, 0, 64, 95
1, 130005, Control_c, 0, 64, 117
1, 130009, Note_on_c, 0, 48, 56
1, 130019, Control_c, 0, 64, 127
1, 130065, Note_off_c, 0, 48, 60
1, 130113, Note_on_c, 0, 45, 58
1, 130153, Note_off_c, 0, 45, 60
1, 130184, Note_off_c, 0, 89, 58
1, 130189, Note_on_c, 0, 54, 61
1, 130208, Note_off_c, 0, 77, 57
1, 130256, Note_off_c, 0, 54, 60
1, 130263, Note_on_c, 0, 48, 58
1, 130318, Note_off_c, 0, 48, 60
1, 130344, Note_on_c, 0, 57, 61
1, 130439, Note_off_c, 0, 57, 60
1, 130456, Note_on_c, 0, 54, 55
1, 130497, Note_off_c, 0, 54, 61
1, 130544, Note_on_c, 0, 63, 61
1, 130570, Note_off_c, 0, 63, 66
1, 130608, Note_on_c, 0, 87, 66
1, 130613, Note_on_c, 0, 75, 58
1, 130632, Note_on_c, 0, 48, 67
1, 130642, Note_off_c, 0, 87, 60
1, 130645, Note_off_c, 0, 75, 63
1, 130707, Note_off_c, 0, 48, 57
1, 130743, Note_on_c, 0, 57, 50
1, 130788, Note_on_c, 0, 84, 30
1, 130791, Note_on_c, 0, 72, 37
1, 130810, Note_on_c, 0, 83, 21
1, 130811, Note_off_c, 0, 57, 48
1, 130819, Note_on_c, 0, 54, 46
1, 130824, Note_off_c, 0, 84, 53
1, 130827, Note_off_c, 0, 72, 54
1, 130853, Note_off_c, 0, 83, 39
1, 130916, Note_on_c, 0, 63, 38
1, 130941, Note_on_c, 0, 81, 73
1, 130942, Note_off_c, 0, 63, 57
1, 130948, Note_on_c, 0, 69, 47
1, 130991, Note_off_c, 0, 54, 51
1, 131032, Note_off_c, 0, 69, 30
1, 131036, Note_off_c, 0, 81, 53
1, 131226, Note_on_c, 0, 37, 42
1, 131280, Control_c, 0, 64, 105
1, 131292, Note_on_c, 0, 81, 65
1, 131295, Control_c, 0, 64, 81
1, 131300, Note_on_c, 0, 69, 45
1, 131310, Control_c, 0, 64, 64
1, 131325, Control_c, 0, 64, 0
1, 131399, Control_c, 0, 64, 45
1, 131413, Control_c, 0, 64, 64
1, 131428, Control_c, 0, 64, 70
1, 131443, Control_c, 0, 64, 79
1, 131458, Control_c, 0, 64, 90
1, 131463, Note_off_c, 0, 37, 52
1, 131473, Control_c, 0, 64, 98
1, 131488, Control_c, 0, 64, 106
1, 131503, Control_c, 0, 64, 122
1, 131505, Note_on_c, 0, 49, 46
1, 131518, Control_c, 0, 64, 127
1, 131559, Note_off_c, 0, 49, 57
1, 131646, Note_on_c, 0, 45, 42
1, 131708, Note_off_c, 0, 45, 42
1, 131731, Note_on_c, 0, 53, 53
1, 131769, Note_off_c, 0, 81, 64
1, 131784, Note_off_c, 0, 69, 59
1, 131798, Note_on_c, 0, 49, 54
1, 131798, Control_c, 0, 67, 125
1, 131813, Control_c, 0, 67, 118
1, 131828, Control_c, 0, 67, 107
1, 131839, Note_off_c, 0, 53, 55
1, 131843, Control_c, 0, 67, 97
1, 131858, Control_c, 0, 67, 87
1, 131861, Note_off_c, 0, 49, 61
1, 131874, Control_c, 0, 67, 77
1, 131878, Note_on_c, 0, 56, 54
1, 131896, Control_c, 0, 67, 68
1, 131911, Control_c, 0, 67, 59
1, 131915, Note_off_c, 0, 56, 66
1, 131926, Control_c, 0, 67, 50
1, 131941, Control_c, 0, 67, 36
1, 131956, Control_c, 0, 67, 22
1, 131970, Control_c, 0, 67, 0
1, 131978, Note_on_c, 0, 53, 62
1, 132048, Note_off_c, 0, 53, 59
1, 132051, Note_on_c, 0, 61, 67
1, 132108, Note_off_c, 0, 61, 61
1, 132120, Note_on_c, 0, 56, 56
1, 132120, Note_on_c, 0, 80, 77
1, 132124, Note_on_c, 0, 68, 69
1, 132153, Note_off_c, 0, 68, 66
1, 132166, Note_on_c, 0, 65, 52
1, 132180, Note_off_c, 0, 80, 63
1, 132221, Note_off_c, 0, 56, 59
1, 132242, Note_off_c, 0, 65, 62
1, 132246, Note_on_c, 0, 61, 61
1, 132249, Note_on_c, 0, 53, 60
1, 132260, Note_on_c, 0, 85, 82
1, 132274, Note_on_c, 0, 73, 57
1, 132287, Note_off_c, 0, 61, 62
1, 132294, Note_off_c, 0, 53, 59
1, 132294, Note_off_c, 0, 73, 63
1, 132319, Note_off_c, 0, 85, 62
1, 132412, Note_on_c, 0, 89, 89
1, 132420, Note_on_c, 0, 77, 76
1, 132445, Note_off_c, 0, 77, 69
1, 132469, Note_off_c, 0, 89, 63
1, 132618, Note_on_c, 0, 37, 61
1, 132696, Note_on_c, 0, 82, 80
1, 132698, Note_on_c, 0, 94, 80
1, 132734, Control_c, 0, 64, 102
1, 132749, Control_c, 0, 64, 82
1, 132764, Control_c, 0, 64, 65
1, 132779, Control_c, 0, 64, 0
1, 132823, Control_c, 0, 64, 18
1, 132838, Control_c, 0, 64, 62
1, 132853, Control_c, 0, 64, 70
1, 132868, Control_c, 0, 64, 80
1, 132871, Note_off_c, 0, 37, 59
1, 132883, Control_c, 0, 64, 94
1, 132884, Note_on_c, 0, 46, 58
1, 132898, Control_c, 0, 64, 109
1, 132912, Control_c, 0, 64, 127
1, 132961, Note_off_c, 0, 46, 61
1, 132971, Note_on_c, 0, 43, 62
1, 133014, Note_off_c, 0, 43, 63
1, 133035, Note_on_c, 0, 52, 66
1, 133077, Note_off_c, 0, 52, 60
1, 133135, Note_on_c, 0, 49, 69
1, 133208, Note_off_c, 0, 94, 34
1, 133212, Note_off_c, 0, 49, 61
1, 133217, Note_on_c, 0, 58, 58
1, 133222, Note_off_c, 0, 82, 62
1, 133298, Note_off_c, 0, 58, 61
1, 133315, Note_on_c, 0, 55, 60
1, 133318, Note_on_c, 0, 82, 88
1, 133320, Note_on_c, 0, 94, 86
1, 133352, Note_on_c, 0, 64, 68
1, 133380, Note_off_c, 0, 64, 66
1, 133459, Note_on_c, 0, 49, 71
1, 133474, Note_off_c, 0, 55, 56
1, 133521, Note_on_c, 0, 58, 69
1, 133550, Note_off_c, 0, 49, 59
1, 133590, Note_on_c, 0, 55, 63
1, 133620, Note_off_c, 0, 94, 55
1, 133636, Note_on_c, 0, 64, 72
1, 133641, Note_off_c, 0, 82, 58
1, 133644, Note_off_c, 0, 58, 60
1, 133670, Note_off_c, 0, 64, 61
1, 133725, Note_off_c, 0, 55, 63
1, 133775, Note_on_c, 0, 82, 78
1, 133778, Note_on_c, 0, 94, 83
1, 133888, Note_off_c, 0, 82, 56
1, 133934, Note_off_c, 0, 94, 48
1, 133962, Note_on_c, 0, 37, 64
1, 134046, Note_on_c, 0, 82, 75
1, 134046, Control_c, 0, 64, 101
1, 134046, Note_on_c, 0, 94, 78
1, 134060, Control_c, 0, 64, 78
1, 134075, Control_c, 0, 64, 49
1, 134090, Control_c, 0, 64, 0
1, 134156, Control_c, 0, 64, 57
1, 134171, Control_c, 0, 64, 67
1, 134186, Control_c, 0, 64, 76
1, 134201, Control_c, 0, 64, 88
1, 134216, Control_c, 0, 64, 100
1, 134226, Note_off_c, 0, 37, 61
1, 134230, Control_c, 0, 64, 114
1, 134245, Control_c, 0, 64, 127
1, 134256, Note_on_c, 0, 49, 55
1, 134334, Note_off_c, 0, 49, 51
1, 134366, Note_on_c, 0, 44, 70
1, 134439, Control_c, 0, 67, 12
1, 134454, Control_c, 0, 67, 21
1, 134466, Note_off_c, 0, 44, 52
1, 134467, Note_on_c, 0, 53, 56
1, 134469, Control_c, 0, 67, 40
1, 134484, Control_c, 0, 67, 62
1, 134498, Control_c, 0, 67, 84
1, 134513, Control_c, 0, 67, 104
1, 134517, Note_off_c, 0, 94, 57
1, 134528, Control_c, 0, 67, 124
1, 134534, Note_on_c, 0, 49, 63
1, 134543, Control_c, 0, 67, 127
1, 134553, Note_off_c, 0, 53, 51
1, 134577, Note_off_c, 0, 49, 58
1, 134578, Note_on_c, 0, 56, 65
1, 134617, Note_off_c, 0, 56, 60
1, 134622, Note_off_c, 0, 82, 60
1, 134679, Note_on_c, 0, 53, 62
1, 134759, Note_off_c, 0, 53, 59
1, 134772, Note_on_c, 0, 61, 65
1, 134837, Note_off_c, 0, 61, 60
1, 134845, Note_on_c, 0, 56, 59
1, 134851, Note_on_c, 0, 92, 75
1, 134858, Note_on_c, 0, 80, 68
1, 134893, Note_off_c, 0, 80, 64
1, 134914, Note_off_c, 0, 92, 63
1, 134940, Note_on_c, 0, 65, 53
1, 134961, Note_off_c, 0, 56, 55
1, 135022, Note_on_c, 0, 53, 56
1, 135062, Note_on_c, 0, 89, 78
1, 135065, Note_off_c, 0, 53, 55
1, 135077, Note_off_c, 0, 65, 49
1, 135079, Note_on_c, 0, 77, 53
1, 135104, Note_on_c, 0, 61, 57
1, 135133, Note_off_c, 0, 61, 65
1, 135199, Note_off_c, 0, 77, 56
1, 135222, Note_off_c, 0, 89, 58
1, 135329, Note_on_c, 0, 37, 52
1, 135364, Control_c, 0, 64, 116
1, 135379, Control_c, 0, 64, 87
1, 135381, Note_on_c, 0, 89, 78
1, 135387, Note_on_c, 0, 77, 72
1, 135394, Control_c, 0, 64, 65
1, 135409, Control_c, 0, 64, 0
1, 135467, Control_c, 0, 64, 60
1, 135482, Control_c, 0, 64, 69
1, 135497, Control_c, 0, 64, 77
1, 135512, Control_c, 0, 64, 87
1, 135527, Control_c, 0, 64, 96
1, 135542, Control_c, 0, 64, 104
1, 135556, Control_c, 0, 64, 114
1, 135569, Note_off_c, 0, 37, 55
1, 135571, Control_c, 0, 64, 127
1, 135661, Note_on_c, 0, 48, 55
1, 135706, Note_off_c, 0, 48, 58
1, 135772, Note_on_c, 0, 45, 39
1, 135808, Note_off_c, 0, 45, 45
1, 135836, Note_off_c, 0, 89, 61
1, 135846, Note_off_c, 0, 77, 58
1, 135847, Note_on_c, 0, 54, 54
1, 135906, Note_off_c, 0, 54, 57
1, 135917, Note_on_c, 0, 48, 59
1, 135980, Note_off_c, 0, 48, 55
1, 135995, Note_on_c, 0, 57, 58
1, 136063, Note_off_c, 0, 57, 57
1, 136076, Note_on_c, 0, 54, 67
1, 136120, Note_off_c, 0, 54, 56
1, 136179, Note_on_c, 0, 63, 54
1, 136208, Note_off_c, 0, 63, 65
1, 136214, Note_on_c, 0, 75, 66
1, 136214, Note_on_c, 0, 87, 68
1, 136243, Note_off_c, 0, 75, 64
1, 136248, Note_off_c, 0, 87, 62
1, 136268, Note_on_c, 0, 48, 61
1, 136335, Note_off_c, 0, 48, 49
1, 136371, Note_on_c, 0, 57, 61
1, 136372, Note_on_c, 0, 84, 61
1, 136384, Note_on_c, 0, 72, 64
1, 136412, Note_off_c, 0, 72, 60
1, 136413, Note_off_c, 0, 84, 56
1, 136468, Note_off_c, 0, 57, 56
1, 136490, Note_on_c, 0, 54, 43
1, 136542, Note_on_c, 0, 63, 37
1, 136560, Note_on_c, 0, 81, 71
1, 136566, Note_on_c, 0, 69, 55
1, 136579, Note_off_c, 0, 63, 48
1, 136611, Note_off_c, 0, 69, 45
1, 136621, Note_off_c, 0, 54, 49
1, 136642, Note_off_c, 0, 81, 55
1, 136818, Note_on_c, 0, 37, 48
1, 136877, Control_c, 0, 64, 97
1, 136882, Note_on_c, 0, 81, 63
1, 136887, Note_on_c, 0, 69, 47
1, 136892, Control_c, 0, 64, 76
1, 136907, Control_c, 0, 64, 64
1, 136922, Control_c, 0, 64, 40
1, 136936, Control_c, 0, 64, 24
1, 136966, Control_c, 0, 64, 44
1, 136981, Control_c, 0, 64, 62
1, 136996, Control_c, 0, 64, 68
1, 137010, Control_c, 0, 64, 76
1, 137025, Control_c, 0, 64, 88
1, 137028, Note_off_c, 0, 37, 54
1, 137040, Control_c, 0, 64, 100
1, 137055, Control_c, 0, 64, 108
1, 137070, Control_c, 0, 64, 117
1, 137071, Note_on_c, 0, 49, 49
1, 137084, Control_c, 0, 64, 127
1, 137153, Note_off_c, 0, 49, 57
1, 137208, Note_on_c, 0, 46, 54
1, 137255, Control_c, 0, 67, 123
1, 137270, Control_c, 0, 67, 118
1, 137284, Control_c, 0, 67, 111
1, 137299, Control_c, 0, 67, 103
1, 137307, Note_off_c, 0, 46, 60
1, 137314, Control_c, 0, 67, 96
1, 137316, Note_on_c, 0, 53, 49
1, 137329, Control_c, 0, 67, 89
1, 137343, Control_c, 0, 67, 81
1, 137358, Control_c, 0, 67, 74
1, 137366, Note_off_c, 0, 53, 59
1, 137371, Note_off_c, 0, 69, 62
1, 137373, Control_c, 0, 67, 66
1, 137375, Note_on_c, 0, 49, 60
1, 137388, Control_c, 0, 67, 55
1, 137394, Note_off_c, 0, 81, 63
1, 137403, Control_c, 0, 67, 46
1, 137417, Control_c, 0, 67, 37
1, 137432, Control_c, 0, 67, 29
1, 137439, Note_off_c, 0, 49, 60
1, 137441, Note_on_c, 0, 58, 59
1, 137447, Control_c, 0, 67, 19
1, 137463, Control_c, 0, 67, 11
1, 137478, Control_c, 0, 67, 0
1, 137481, Note_off_c, 0, 58, 66
1, 137543, Note_on_c, 0, 53, 60
1, 137583, Note_on_c, 0, 61, 66
1, 137603, Note_off_c, 0, 53, 47
1, 137638, Note_off_c, 0, 61, 60
1, 137645, Note_on_c, 0, 58, 57
1, 137668, Note_on_c, 0, 82, 72
1, 137679, Note_on_c, 0, 70, 63
1, 137689, Note_on_c, 0, 65, 61
1, 137706, Note_off_c, 0, 70, 66
1, 137716, Note_off_c, 0, 58, 56
1, 137720, Note_off_c, 0, 82, 62
1, 137760, Note_off_c, 0, 65, 64
1, 137764, Note_on_c, 0, 53, 62
1, 137772, Note_on_c, 0, 61, 61
1, 137791, Note_on_c, 0, 85, 83
1, 137799, Note_on_c, 0, 73, 65
1, 137800, Note_off_c, 0, 61, 67
1, 137822, Note_off_c, 0, 53, 60
1, 137826, Note_off_c, 0, 73, 68
1, 137844, Note_off_c, 0, 85, 63
1, 137934, Note_on_c, 0, 89, 91
1, 137945, Note_on_c, 0, 77, 71
1, 137970, Note_off_c, 0, 77, 66
1, 137989, Note_off_c, 0, 89, 64
1, 138094, Note_on_c, 0, 37, 74
1, 138157, Note_on_c, 0, 82, 85
1, 138159, Note_on_c, 0, 94, 83
1, 138166, Control_c, 0, 64, 117
1, 138181, Control_c, 0, 64, 85
1, 138196, Control_c, 0, 64, 66
1, 138211, Control_c, 0, 64, 0
1, 138256, Control_c, 0, 64, 50
1, 138271, Control_c, 0, 64, 66
1, 138286, Control_c, 0, 64, 77
1, 138300, Note_off_c, 0, 37, 60
1, 138301, Control_c, 0, 64, 92
1, 138311, Note_on_c, 0, 46, 64
1, 138315, Control_c, 0, 64, 119
1, 138330, Control_c, 0, 64, 127
1, 138385, Note_off_c, 0, 46, 61
1, 138396, Note_on_c, 0, 43, 69
1, 138432, Note_off_c, 0, 43, 63
1, 138467, Note_on_c, 0, 53, 63
1, 138515, Note_off_c, 0, 53, 53
1, 138547, Note_off_c, 0, 94, 61
1, 138571, Note_on_c, 0, 49, 67
1, 138658, Note_on_c, 0, 58, 57
1, 138660, Note_off_c, 0, 49, 59
1, 138684, Note_off_c, 0, 82, 53
1, 138755, Note_on_c, 0, 55, 58
1, 138761, Note_off_c, 0, 58, 63
1, 138791, Note_off_c, 0, 55, 63
1, 138809, Note_on_c, 0, 82, 80
1, 138810, Note_on_c, 0, 65, 80
1, 138811, Note_on_c, 0, 94, 88
1, 138836, Note_off_c, 0, 65, 66
1, 138928, Note_on_c, 0, 49, 76
1, 138987, Note_on_c, 0, 58, 69
1, 138994, Note_off_c, 0, 49, 61
1, 139027, Note_off_c, 0, 94, 58
1, 139048, Note_off_c, 0, 82, 60
1, 139054, Note_off_c, 0, 58, 63
1, 139062, Note_on_c, 0, 55, 42
1, 139086, Note_on_c, 0, 65, 79
1, 139086, Note_off_c, 0, 55, 58
1, 139112, Note_off_c, 0, 65, 68
1, 139142, Poly_aftertouch_c, 0, 56, 127
1, 139186, Poly_aftertouch_c, 0, 56, 0
1, 139216, Note_on_c, 0, 82, 86
1, 139217, Note_on_c, 0, 94, 85
1, 139365, Note_on_c, 0, 36, 78
1, 139369, Note_off_c, 0, 94, 58
1, 139386, Note_off_c, 0, 82, 58
1, 139465, Note_on_c, 0, 90, 9
1, 139472, Control_c, 0, 64, 87
1, 139481, Note_on_c, 0, 82, 87
1, 139486, Note_on_c, 0, 94, 85
1, 139487, Control_c, 0, 64, 67
1, 139492, Note_off_c, 0, 90, 49
1, 139502, Control_c, 0, 64, 0
1, 139546, Control_c, 0, 64, 60
1, 139561, Control_c, 0, 64, 70
1, 139575, Note_off_c, 0, 36, 50
1, 139576, Control_c, 0, 64, 88
1, 139591, Control_c, 0, 64, 117
1, 139605, Control_c, 0, 64, 127
1, 139622, Note_on_c, 0, 46, 63
1, 139712, Note_on_c, 0, 43, 68
1, 139715, Note_off_c, 0, 46, 62
1, 139735, Note_off_c, 0, 94, 64
1, 139772, Note_off_c, 0, 43, 58
1, 139796, Note_on_c, 0, 52, 68
1, 139807, Note_off_c, 0, 82, 64
1, 139842, Note_off_c, 0, 52, 60
1, 139878, Note_on_c, 0, 48, 72
1, 139927, Note_off_c, 0, 48, 44
1, 139954, Note_on_c, 0, 58, 71
1, 140019, Note_on_c, 0, 55, 59
1, 140020, Note_off_c, 0, 58, 63
1, 140061, Note_on_c, 0, 64, 74
1, 140115, Note_off_c, 0, 64, 63
1, 140118, Note_on_c, 0, 91, 89
1, 140127, Note_on_c, 0, 79, 81
1, 140164, Note_off_c, 0, 79, 62
1, 140166, Note_on_c, 0, 48, 76
1, 140169, Note_off_c, 0, 91, 65
1, 140246, Note_off_c, 0, 48, 61
1, 140249, Note_on_c, 0, 58, 77
1, 140252, Note_on_c, 0, 88, 90
1, 140256, Note_on_c, 0, 76, 85
1, 140270, Note_off_c, 0, 55, 41
1, 140277, Poly_aftertouch_c, 0, 50, 0
1, 140283, Note_off_c, 0, 76, 64
1, 140292, Note_off_c, 0, 88, 64
1, 140323, Note_on_c, 0, 55, 60
1, 140329, Note_off_c, 0, 58, 62
1, 140362, Note_on_c, 0, 64, 77
1, 140380, Note_on_c, 0, 85, 95
1, 140381, Note_on_c, 0, 73, 90
1, 140383, Note_off_c, 0, 64, 71
1, 140407, Note_off_c, 0, 73, 65
1, 140423, Note_off_c, 0, 55, 64
1, 140440, Note_off_c, 0, 85, 64
1, 140645, Note_on_c, 0, 34, 87
1, 140735, Note_on_c, 0, 85, 93
1, 140740, Note_on_c, 0, 97, 92
1, 140740, Control_c, 0, 64, 118
1, 140755, Control_c, 0, 64, 87
1, 140769, Control_c, 0, 64, 64
1, 140784, Control_c, 0, 64, 0
1, 140858, Control_c, 0, 64, 64
1, 140881, Control_c, 0, 64, 78
1, 140892, Note_off_c, 0, 34, 61
1, 140896, Control_c, 0, 64, 97
1, 140901, Note_on_c, 0, 43, 66
1, 140910, Control_c, 0, 64, 127
1, 140982, Note_on_c, 0, 41, 77
1, 140994, Note_off_c, 0, 43, 62
1, 141050, Note_off_c, 0, 41, 63
1, 141060, Note_on_c, 0, 49, 70
1, 141116, Note_off_c, 0, 49, 60
1, 141154, Note_on_c, 0, 46, 81
1, 141226, Note_off_c, 0, 97, 62
1, 141227, Note_off_c, 0, 85, 62
1, 141230, Note_on_c, 0, 55, 74
1, 141231, Note_off_c, 0, 46, 59
1, 141301, Note_on_c, 0, 53, 59
1, 141316, Note_on_c, 0, 85, 101
1, 141319, Note_on_c, 0, 97, 101
1, 141319, Note_off_c, 0, 55, 58
1, 141322, Poly_aftertouch_c, 0, 94, 0
1, 141331, Note_on_c, 0, 61, 80
1, 141366, Note_off_c, 0, 53, 59
1, 141376, Note_off_c, 0, 61, 63
1, 141421, Note_on_c, 0, 46, 82
1, 141500, Note_off_c, 0, 85, 57
1, 141504, Note_off_c, 0, 97, 61
1, 141513, Note_on_c, 0, 55, 69
1, 141515, Note_off_c, 0, 46, 62
1, 141560, Note_on_c, 0, 53, 78
1, 141602, Note_off_c, 0, 55, 58
1, 141640, Note_on_c, 0, 61, 76
1, 141664, Note_off_c, 0, 53, 61
1, 141686, Note_off_c, 0, 61, 64
1, 141746, Note_on_c, 0, 85, 95
1, 141746, Note_on_c, 0, 97, 90
1, 141871, Note_off_c, 0, 85, 61
1, 141876, Note_on_c, 0, 36, 82
1, 141882, Note_off_c, 0, 97, 65
1, 141940, Control_c, 0, 64, 107
1, 141955, Control_c, 0, 64, 79
1, 141961, Note_on_c, 0, 85, 94
1, 141968, Note_on_c, 0, 97, 94
1, 141970, Control_c, 0, 64, 30
1, 141985, Control_c, 0, 64, 0
1, 142015, Note_off_c, 0, 36, 54
1, 142029, Control_c, 0, 64, 63
1, 142044, Control_c, 0, 64, 75
1, 142058, Control_c, 0, 64, 93
1, 142073, Control_c, 0, 64, 127
1, 142100, Note_on_c, 0, 46, 68
1, 142178, Note_on_c, 0, 43, 72
1, 142185, Note_off_c, 0, 97, 64
1, 142188, Note_off_c, 0, 46, 62
1, 142243, Note_off_c, 0, 43, 62
1, 142250, Note_on_c, 0, 52, 70
1, 142258, Note_off_c, 0, 85, 63
1, 142311, Note_off_c, 0, 52, 61
1, 142339, Note_on_c, 0, 48, 79
1, 142390, Note_off_c, 0, 48, 57
1, 142427, Note_on_c, 0, 58, 75
1, 142490, Note_off_c, 0, 58, 62
1, 142493, Note_on_c, 0, 55, 64
1, 142548, Note_on_c, 0, 64, 62
1, 142577, Note_off_c, 0, 55, 57
1, 142598, Note_off_c, 0, 64, 61
1, 142600, Note_on_c, 0, 82, 82
1, 142601, Note_on_c, 0, 94, 84
1, 142643, Note_on_c, 0, 48, 76
1, 142648, Note_off_c, 0, 82, 65
1, 142657, Note_off_c, 0, 94, 64
1, 142659, Poly_aftertouch_c, 0, 62, 0
1, 142726, Note_off_c, 0, 48, 59
1, 142748, Note_on_c, 0, 58, 69
1, 142768, Note_on_c, 0, 91, 87
1, 142772, Note_on_c, 0, 79, 82
1, 142813, Note_off_c, 0, 91, 64
1, 142821, Note_off_c, 0, 79, 58
1, 142824, Note_on_c, 0, 55, 47
1, 142851, Note_on_c, 0, 64, 69
1, 142857, Note_off_c, 0, 58, 61
1, 142879, Note_off_c, 0, 64, 68
1, 142917, Note_on_c, 0, 88, 83
1, 142923, Note_on_c, 0, 76, 82
1, 142926, Note_off_c, 0, 55, 61
1, 142950, Note_off_c, 0, 76, 66
1, 142962, Note_off_c, 0, 88, 63
1, 143045, Note_on_c, 0, 85, 91
1, 143052, Note_on_c, 0, 73, 85
1, 143073, Note_off_c, 0, 73, 70
1, 143104, Note_off_c, 0, 85, 64
1, 143110, Poly_aftertouch_c, 0, 39, 127
1, 143145, Poly_aftertouch_c, 0, 44, 127
1, 143160, Poly_aftertouch_c, 0, 39, 0
1, 143170, Note_on_c, 0, 37, 83
1, 143261, Control_c, 0, 64, 102
1, 143263, Poly_aftertouch_c, 0, 39, 127
1, 143264, Poly_aftertouch_c, 0, 44, 0
1, 143271, Note_on_c, 0, 82, 92
1, 143276, Note_on_c, 0, 94, 92
1, 143276, Control_c, 0, 64, 73
1, 143291, Control_c, 0, 64, 0
1, 143301, Poly_aftertouch_c, 0, 44, 127
1, 143365, Control_c, 0, 64, 63
1, 143379, Control_c, 0, 64, 73
1, 143394, Control_c, 0, 64, 86
1, 143397, Note_off_c, 0, 37, 62
1, 143409, Control_c, 0, 64, 105
1, 143424, Control_c, 0, 64, 127
1, 143430, Note_on_c, 0, 49, 60
1, 143440, Poly_aftertouch_c, 0, 39, 0
1, 143460, Poly_aftertouch_c, 0, 44, 0
1, 143483, Note_off_c, 0, 49, 62
1, 143528, Note_on_c, 0, 46, 63
1, 143605, Note_on_c, 0, 54, 68
1, 143635, Note_off_c, 0, 46, 50
1, 143655, Note_on_c, 0, 49, 67
1, 143665, Note_off_c, 0, 54, 61
1, 143719, Note_on_c, 0, 58, 74
1, 143732, Note_off_c, 0, 49, 63
1, 143748, Note_off_c, 0, 94, 65
1, 143751, Note_off_c, 0, 82, 65
1, 143796, Note_off_c, 0, 58, 64
1, 143819, Note_on_c, 0, 54, 75
1, 143826, Note_on_c, 0, 82, 97
1, 143829, Note_on_c, 0, 94, 97
1, 143901, Note_on_c, 0, 61, 76
1, 143905, Note_off_c, 0, 54, 62
1, 143936, Note_off_c, 0, 82, 62
1, 143936, Note_off_c, 0, 94, 64
1, 143959, Note_on_c, 0, 58, 72
1, 143967, Note_off_c, 0, 61, 62
1, 144011, Note_on_c, 0, 66, 79
1, 144028, Note_off_c, 0, 58, 63
1, 144058, Note_on_c, 0, 54, 76
1, 144064, Note_off_c, 0, 66, 67
1, 144107, Note_on_c, 0, 61, 76
1, 144124, Note_off_c, 0, 54, 64
1, 144133, Note_off_c, 0, 61, 66
1, 144170, Poly_aftertouch_c, 0, 64, 0
1, 144184, Poly_aftertouch_c, 0, 64, 0
1, 144218, Note_on_c, 0, 82, 95
1, 144220, Note_on_c, 0, 94, 90
1, 144333, Note_off_c, 0, 82, 61
1, 144342, Note_off_c, 0, 94, 61
1, 144357, Note_on_c, 0, 36, 80
1, 144424, Control_c, 0, 64, 99
1, 144439, Control_c, 0, 64, 71
1, 144440, Note_on_c, 0, 82, 94
1, 144443, Poly_aftertouch_c, 0, 90, 0
1, 144446, Note_on_c, 0, 94, 91
1, 144453, Control_c, 0, 64, 0
1, 144498, Control_c, 0, 64, 27
1, 144512, Control_c, 0, 64, 67
1, 144527, Control_c, 0, 64, 82
1, 144528, Note_off_c, 0, 36, 56
1, 144542, Control_c, 0, 64, 111
1, 144557, Control_c, 0, 64, 127
1, 144565, Note_on_c, 0, 46, 76
1, 144652, Note_on_c, 0, 43, 73
1, 144664, Note_off_c, 0, 46, 62
1, 144672, Note_off_c, 0, 94, 64
1, 144711, Note_off_c, 0, 43, 62
1, 144718, Note_on_c, 0, 52, 74
1, 144735, Note_off_c, 0, 82, 64
1, 144772, Note_off_c, 0, 52, 63
1, 144798, Note_on_c, 0, 48, 86
1, 144853, Note_off_c, 0, 48, 60
1, 144877, Note_on_c, 0, 58, 75
1, 144911, Note_on_c, 0, 54, 68
1, 144928, Note_off_c, 0, 58, 59
1, 144986, Note_on_c, 0, 64, 71
1, 145000, Note_off_c, 0, 54, 63
1, 145023, Note_off_c, 0, 64, 58
1, 145025, Note_on_c, 0, 91, 92
1, 145027, Note_on_c, 0, 79, 86
1, 145059, Note_off_c, 0, 79, 61
1, 145066, Note_off_c, 0, 91, 66
1, 145070, Note_on_c, 0, 48, 80
1, 145125, Note_off_c, 0, 48, 63
1, 145153, Note_on_c, 0, 88, 90
1, 145157, Note_on_c, 0, 76, 87
1, 145162, Note_on_c, 0, 58, 76
1, 145190, Note_off_c, 0, 76, 64
1, 145194, Note_off_c, 0, 88, 67
1, 145195, Note_on_c, 0, 86, 33
1, 145229, Note_off_c, 0, 86, 33
1, 145238, Note_off_c, 0, 58, 63
1, 145247, Note_on_c, 0, 55, 60
1, 145265, Note_on_c, 0, 64, 77
1, 145281, Note_on_c, 0, 85, 90
1, 145285, Note_on_c, 0, 73, 89
1, 145307, Note_off_c, 0, 64, 61
1, 145323, Note_off_c, 0, 73, 64
1, 145324, Note_off_c, 0, 85, 65
1, 145337, Note_off_c, 0, 55, 64
1, 145409, Note_on_c, 0, 82, 88
1, 145410, Note_on_c, 0, 70, 90
1, 145430, Note_off_c, 0, 70, 70
1, 145456, Note_off_c, 0, 82, 67
1, 145633, Note_on_c, 0, 34, 91
1, 145705, Note_on_c, 0, 85, 107
1, 145708, Note_on_c, 0, 97, 95
1, 145714, Control_c, 0, 64, 83
1, 145729, Control_c, 0, 64, 53
1, 145743, Control_c, 0, 64, 0
1, 145788, Control_c, 0, 64, 63
1, 145803, Control_c, 0, 64, 81
1, 145817, Control_c, 0, 64, 127
1, 145857, Note_off_c, 0, 34, 61
1, 145865, Note_on_c, 0, 46, 80
1, 145906, Note_off_c, 0, 46, 62
1, 145981, Note_on_c, 0, 49, 74
1, 146055, Note_on_c, 0, 58, 73
1, 146060, Note_off_c, 0, 49, 62
1, 146136, Note_on_c, 0, 54, 78
1, 146145, Note_off_c, 0, 58, 62
1, 146187, Note_off_c, 0, 97, 63
1, 146193, Note_off_c, 0, 85, 61
1, 146197, Note_on_c, 0, 61, 80
1, 146205, Note_off_c, 0, 54, 62
1, 146291, Note_off_c, 0, 61, 44
1, 146294, Note_on_c, 0, 58, 82
1, 146316, Note_on_c, 0, 85, 100
1, 146317, Note_on_c, 0, 97, 107
1, 146360, Note_off_c, 0, 85, 64
1, 146372, Note_off_c, 0, 97, 64
1, 146392, Note_on_c, 0, 66, 80
1, 146393, Note_off_c, 0, 58, 62
1, 146439, Note_on_c, 0, 54, 78
1, 146497, Note_off_c, 0, 66, 53
1, 146512, Note_on_c, 0, 61, 76
1, 146561, Note_off_c, 0, 54, 60
1, 146566, Note_on_c, 0, 58, 73
1, 146591, Note_off_c, 0, 61, 62
1, 146610, Note_on_c, 0, 66, 90
1, 146648, Note_off_c, 0, 58, 63
1, 146649, Note_off_c, 0, 66, 68
1, 146752, Note_on_c, 0, 97, 104
1, 146754, Note_on_c, 0, 85, 100
1, 146801, Note_off_c, 0, 85, 63
1, 146821, Note_off_c, 0, 97, 64
1, 146986, Note_on_c, 0, 33, 95
1, 147026, Note_on_c, 0, 85, 109
1, 147027, Note_on_c, 0, 97, 104
1, 147034, Control_c, 0, 64, 92
1, 147050, Control_c, 0, 64, 63
1, 147064, Control_c, 0, 64, 0
1, 147123, Control_c, 0, 64, 70
1, 147138, Control_c, 0, 64, 97
1, 147153, Control_c, 0, 64, 127
1, 147261, Note_on_c, 0, 45, 94
1, 147277, Note_off_c, 0, 33, 61
1, 147311, Note_off_c, 0, 45, 65
1, 147413, Note_on_c, 0, 52, 94
1, 147457, Note_off_c, 0, 85, 59
1, 147470, Note_off_c, 0, 97, 61
1, 147540, Note_off_c, 0, 52, 57
1, 147565, Note_on_c, 0, 61, 84
1, 147571, Note_on_c, 0, 85, 99
1, 147573, Note_on_c, 0, 97, 104
1, 147693, Note_on_c, 0, 55, 75
1, 147695, Note_off_c, 0, 61, 59
1, 147787, Note_on_c, 0, 64, 82
1, 147808, Note_off_c, 0, 64, 71
1, 147843, Note_off_c, 0, 55, 65
1, 147917, Control_c, 0, 64, 94
1, 147932, Control_c, 0, 64, 65
1, 147942, Note_on_c, 0, 32, 97
1, 147946, Control_c, 0, 64, 0
1, 147991, Control_c, 0, 64, 71
1, 148006, Control_c, 0, 64, 107
1, 148020, Control_c, 0, 64, 127
1, 148047, Note_off_c, 0, 32, 63
1, 148062, Note_on_c, 0, 44, 78
1, 148073, Poly_aftertouch_c, 0, 31, 0
1, 148080, Note_off_c, 0, 85, 52
1, 148087, Note_off_c, 0, 44, 64
1, 148098, Note_off_c, 0, 97, 56
1, 148144, Poly_aftertouch_c, 0, 38, 0
1, 148184, Note_on_c, 0, 52, 84
1, 148233, Note_on_c, 0, 61, 78
1, 148239, Note_off_c, 0, 52, 62
1, 148251, Note_on_c, 0, 85, 103
1, 148254, Note_on_c, 0, 97, 96
1, 148292, Note_on_c, 0, 56, 75
1, 148318, Note_on_c, 0, 64, 84
1, 148336, Note_off_c, 0, 61, 61
1, 148364, Note_off_c, 0, 64, 64
1, 148395, Note_off_c, 0, 56, 66
1, 148471, Control_c, 0, 64, 115
1, 148486, Control_c, 0, 64, 77
1, 148488, Note_on_c, 0, 31, 99
1, 148501, Control_c, 0, 64, 0
1, 148527, Note_on_c, 0, 33, 23
1, 148528, Note_off_c, 0, 33, 127
1, 148545, Control_c, 0, 64, 57
1, 148560, Control_c, 0, 64, 84
1, 148575, Control_c, 0, 64, 127
1, 148576, Note_off_c, 0, 31, 64
1, 148581, Note_off_c, 0, 85, 56
1, 148599, Note_off_c, 0, 97, 62
1, 148697, Note_on_c, 0, 85, 99
1, 148700, Note_on_c, 0, 97, 95
1, 148732, Note_on_c, 0, 53, 59
1, 148735, Note_on_c, 0, 61, 76
1, 148738, Note_on_c, 0, 52, 34
1, 148755, Note_off_c, 0, 85, 63
1, 148767, Note_off_c, 0, 53, 63
1, 148769, Note_off_c, 0, 97, 64
1, 148772, Note_off_c, 0, 52, 45
1, 148802, Note_off_c, 0, 61, 59
1, 148812, Note_on_c, 0, 57, 69
1, 148829, Note_on_c, 0, 64, 81
1, 148846, Note_on_c, 0, 85, 98
1, 148849, Note_on_c, 0, 97, 103
1, 148858, Note_off_c, 0, 64, 66
1, 148881, Note_off_c, 0, 57, 65
1, 148888, Note_off_c, 0, 85, 63
1, 148902, Note_off_c, 0, 97, 63
1, 148977, Control_c, 0, 64, 87
1, 148988, Note_on_c, 0, 30, 94
1, 148992, Control_c, 0, 64, 50
1, 149007, Control_c, 0, 64, 0
1, 149016, Note_on_c, 0, 85, 108
1, 149018, Note_on_c, 0, 97, 100
1, 149031, Note_on_c, 0, 29, 45
1, 149036, Control_c, 0, 64, 18
1, 149051, Control_c, 0, 64, 75
1, 149063, Note_off_c, 0, 29, 52
1, 149066, Control_c, 0, 64, 127
1, 149066, Note_off_c, 0, 85, 62
1, 149087, Note_off_c, 0, 97, 63
1, 149093, Note_off_c, 0, 30, 62
1, 149099, Note_on_c, 0, 42, 77
1, 149129, Note_off_c, 0, 42, 66
1, 149212, Note_on_c, 0, 85, 102
1, 149214, Note_on_c, 0, 97, 92
1, 149230, Note_on_c, 0, 52, 80
1, 149250, Note_off_c, 0, 85, 63
1, 149257, Note_on_c, 0, 61, 73
1, 149268, Note_off_c, 0, 97, 62
1, 149288, Note_off_c, 0, 52, 60
1, 149317, Note_off_c, 0, 61, 62
1, 149335, Note_on_c, 0, 58, 77
1, 149341, Note_on_c, 0, 64, 80
1, 149361, Note_on_c, 0, 85, 101
1, 149361, Note_on_c, 0, 97, 96
1, 149377, Note_off_c, 0, 64, 64
1, 149380, Note_on_c, 0, 94, 57
1, 149381, Note_off_c, 0, 94, 127
1, 149383, Note_on_c, 0, 57, 58
1, 149389, Note_off_c, 0, 58, 65
1, 149413, Note_off_c, 0, 57, 63
1, 149416, Note_off_c, 0, 85, 60
1, 149438, Note_off_c, 0, 97, 62
1, 149479, Poly_aftertouch_c, 0, 56, 0
1, 149518, Control_c, 0, 64, 114
1, 149533, Control_c, 0, 64, 76
1, 149537, Note_on_c, 0, 29, 101
1, 149548, Control_c, 0, 64, 0
1, 149561, Note_on_c, 0, 85, 107
1, 149562, Note_on_c, 0, 97, 102
1, 149582, Note_on_c, 0, 38, 33
1, 149583, Note_off_c, 0, 38, 127
1, 149592, Control_c, 0, 64, 55
1, 149607, Control_c, 0, 64, 78
1, 149622, Control_c, 0, 64, 127
1, 149636, Note_off_c, 0, 85, 63
1, 149650, Note_off_c, 0, 97, 62
1, 149703, Note_off_c, 0, 29, 63
1, 149708, Note_on_c, 0, 41, 81
1, 149735, Note_on_c, 0, 36, 11
1, 149740, Note_off_c, 0, 41, 65
1, 149763, Note_off_c, 0, 36, 0
1, 149790, Poly_aftertouch_c, 0, 36, 0
1, 149791, Note_on_c, 0, 85, 105
1, 149791, Note_on_c, 0, 97, 98
1, 149830, Note_off_c, 0, 85, 61
1, 149832, Note_on_c, 0, 53, 74
1, 149849, Note_off_c, 0, 97, 63
1, 149874, Note_on_c, 0, 61, 85
1, 149909, Note_off_c, 0, 53, 59
1, 149938, Note_on_c, 0, 85, 103
1, 149939, Note_on_c, 0, 97, 103
1, 149940, Note_on_c, 0, 58, 83
1, 149980, Note_off_c, 0, 85, 62
1, 149984, Note_off_c, 0, 61, 58
1, 149990, Note_off_c, 0, 97, 64
1, 149993, Note_on_c, 0, 65, 79
1, 150031, Note_off_c, 0, 58, 65
1, 150035, Note_off_c, 0, 65, 68
1, 150059, Note_on_c, 0, 85, 111
1, 150062, Note_on_c, 0, 97, 102
1, 150107, Note_off_c, 0, 85, 59
1, 150125, Note_off_c, 0, 97, 63
1, 150238, Control_c, 0, 64, 84
1, 150247, Note_on_c, 0, 26, 84
1, 150247, Note_on_c, 0, 28, 75
1, 150253, Control_c, 0, 64, 0
1, 150256, Note_on_c, 0, 85, 116
1, 150258, Note_on_c, 0, 97, 103
1, 150287, Note_on_c, 0, 94, 46
1, 150297, Control_c, 0, 64, 71
1, 150312, Control_c, 0, 64, 107
1, 150313, Note_off_c, 0, 94, 57
1, 150327, Control_c, 0, 64, 127
1, 150336, Note_off_c, 0, 85, 62
1, 150360, Note_off_c, 0, 97, 62
1, 150416, Note_off_c, 0, 26, 55
1, 150455, Note_on_c, 0, 40, 92
1, 150457, Note_off_c, 0, 28, 63
1, 150461, Poly_aftertouch_c, 0, 35, 127
1, 150474, Note_on_c, 0, 85, 108
1, 150474, Note_on_c, 0, 97, 100
1, 150495, Poly_aftertouch_c, 0, 34, 0
1, 150499, Note_off_c, 0, 40, 64
1, 150512, Note_on_c, 0, 94, 34
1, 150513, Note_off_c, 0, 94, 127
1, 150513, Poly_aftertouch_c, 0, 35, 0
1, 150521, Note_off_c, 0, 85, 60
1, 150548, Note_off_c, 0, 97, 64
1, 150634, Note_on_c, 0, 55, 73
1, 150640, Note_on_c, 0, 85, 107
1, 150641, Note_on_c, 0, 97, 106
1, 150680, Note_off_c, 0, 85, 60
1, 150700, Note_off_c, 0, 97, 62
1, 150786, Note_on_c, 0, 85, 109
1, 150786, Note_on_c, 0, 97, 108
1, 150796, Note_on_c, 0, 61, 86
1, 150810, Note_off_c, 0, 55, 62
1, 150835, Note_off_c, 0, 85, 61
1, 150852, Note_off_c, 0, 97, 61
1, 150890, Poly_aftertouch_c, 0, 96, 0
1, 150941, Note_on_c, 0, 58, 81
1, 150955, Note_on_c, 0, 85, 113
1, 150955, Note_on_c, 0, 97, 108
1, 150959, Note_off_c, 0, 61, 52
1, 150998, Note_on_c, 0, 96, 24
1, 151001, Note_on_c, 0, 94, 22
1, 151002, Note_off_c, 0, 94, 127
1, 151008, Note_off_c, 0, 85, 60
1, 151037, Note_off_c, 0, 97, 62
1, 151040, Note_off_c, 0, 96, 53
1, 151116, Note_on_c, 0, 67, 89
1, 151128, Note_on_c, 0, 85, 115
1, 151130, Note_on_c, 0, 97, 101
1, 151144, Note_off_c, 0, 67, 65
1, 151146, Note_on_c, 0, 94, 70
1, 151162, Note_off_c, 0, 94, 66
1, 151175, Note_off_c, 0, 58, 67
1, 151377, Control_c, 0, 64, 122
1, 151391, Note_on_c, 0, 29, 106
1, 151392, Control_c, 0, 64, 76
1, 151407, Control_c, 0, 64, 0
1, 151483, Note_off_c, 0, 85, 59
1, 151499, Note_off_c, 0, 97, 57
1, 151644, Control_c, 0, 64, 59
1, 151651, Note_on_c, 0, 41, 88
1, 151659, Control_c, 0, 64, 127
1, 151663, Note_on_c, 0, 85, 108
1, 151663, Note_on_c, 0, 97, 101
1, 151664, Note_off_c, 0, 29, 63
1, 151693, Note_off_c, 0, 41, 65
1, 151701, Note_on_c, 0, 94, 20
1, 151732, Note_off_c, 0, 85, 63
1, 151737, Note_off_c, 0, 94, 33
1, 151742, Note_off_c, 0, 97, 64
1, 151828, Note_on_c, 0, 56, 66
1, 151904, Poly_aftertouch_c, 0, 55, 127
1, 151929, Note_off_c, 0, 56, 62
1, 151936, Note_on_c, 0, 65, 65
1, 151948, Poly_aftertouch_c, 0, 55, 0
1, 152025, Note_off_c, 0, 65, 65
1, 152033, Note_on_c, 0, 60, 79
1, 152035, Note_on_c, 0, 96, 98
1, 152038, Note_on_c, 0, 84, 106
1, 152050, Note_on_c, 0, 68, 86
1, 152067, Note_off_c, 0, 84, 69
1, 152072, Note_off_c, 0, 96, 64
1, 152077, Note_off_c, 0, 68, 66
1, 152108, Note_off_c, 0, 60, 64
1, 152226, Note_on_c, 0, 32, 92
1, 152256, Note_on_c, 0, 34, 36
1, 152274, Control_c, 0, 64, 80
1, 152289, Control_c, 0, 64, 0
1, 152322, Note_off_c, 0, 32, 64
1, 152324, Note_on_c, 0, 44, 87
1, 152330, Note_on_c, 0, 82, 96
1, 152333, Note_on_c, 0, 94, 93
1, 152333, Control_c, 0, 64, 56
1, 152348, Control_c, 0, 64, 91
1, 152358, Note_off_c, 0, 44, 63
1, 152363, Control_c, 0, 64, 127
1, 152376, Note_off_c, 0, 82, 66
1, 152377, Note_off_c, 0, 34, 37
1, 152383, Note_off_c, 0, 94, 64
1, 152464, Note_on_c, 0, 53, 74
1, 152496, Note_on_c, 0, 60, 63
1, 152503, Note_off_c, 0, 53, 61
1, 152574, Note_on_c, 0, 56, 78
1, 152583, Note_on_c, 0, 65, 81
1, 152592, Note_on_c, 0, 80, 104
1, 152593, Note_on_c, 0, 92, 90
1, 152602, Note_off_c, 0, 60, 61
1, 152605, Note_off_c, 0, 65, 69
1, 152643, Note_off_c, 0, 92, 66
1, 152647, Note_off_c, 0, 56, 65
1, 152672, Note_off_c, 0, 80, 38
1, 152730, Note_on_c, 0, 37, 95
1, 152765, Control_c, 0, 64, 85
1, 152780, Control_c, 0, 64, 0
1, 152824, Note_on_c, 0, 79, 99
1, 152824, Note_on_c, 0, 91, 95
1, 152824, Control_c, 0, 64, 51
1, 152825, Note_off_c, 0, 37, 61
1, 152826, Note_on_c, 0, 49, 85
1, 152831, Poly_aftertouch_c, 0, 87, 0
1, 152839, Control_c, 0, 64, 80
1, 152861, Note_off_c, 0, 49, 67
1, 152861, Control_c, 0, 64, 127
1, 152869, Note_on_c, 0, 89, 37
1, 152870, Note_off_c, 0, 89, 127
1, 152885, Note_off_c, 0, 79, 61
1, 152885, Note_off_c, 0, 91, 67
1, 152979, Note_on_c, 0, 58, 71
1, 152998, Note_on_c, 0, 55, 25
1, 153002, Note_on_c, 0, 85, 49
1, 153019, Note_off_c, 0, 55, 0
1, 153037, Note_on_c, 0, 55, 39
1, 153042, Note_off_c, 0, 85, 65
1, 153051, Note_on_c, 0, 65, 71
1, 153065, Note_off_c, 0, 58, 63
1, 153067, Note_on_c, 0, 77, 97
1, 153067, Note_on_c, 0, 89, 94
1, 153079, Note_off_c, 0, 65, 68
1, 153106, Note_off_c, 0, 55, 64
1, 153108, Note_off_c, 0, 77, 61
1, 153109, Note_off_c, 0, 89, 67
1, 153200, Note_on_c, 0, 34, 92
1, 153231, Control_c, 0, 64, 95
1, 153232, Note_on_c, 0, 37, 49
1, 153246, Control_c, 0, 64, 60
1, 153261, Control_c, 0, 64, 0
1, 153265, Note_off_c, 0, 37, 55
1, 153290, Control_c, 0, 64, 64
1, 153291, Note_on_c, 0, 75, 92
1, 153293, Note_off_c, 0, 34, 63
1, 153295, Note_on_c, 0, 87, 87
1, 153296, Note_on_c, 0, 46, 82
1, 153305, Control_c, 0, 64, 90
1, 153320, Control_c, 0, 64, 127
1, 153322, Note_off_c, 0, 46, 67
1, 153324, Note_on_c, 0, 47, 62
1, 153332, Poly_aftertouch_c, 0, 41, 0
1, 153347, Note_off_c, 0, 47, 58
1, 153351, Note_off_c, 0, 75, 59
1, 153356, Note_off_c, 0, 87, 64
1, 153431, Note_on_c, 0, 53, 63
1, 153501, Note_off_c, 0, 53, 61
1, 153514, Note_on_c, 0, 60, 59
1, 153550, Note_on_c, 0, 73, 100
1, 153554, Note_on_c, 0, 85, 87
1, 153556, Note_on_c, 0, 55, 67
1, 153560, Note_off_c, 0, 60, 57
1, 153576, Note_on_c, 0, 65, 76
1, 153608, Note_off_c, 0, 65, 69
1, 153648, Note_off_c, 0, 55, 64
1, 153714, Control_c, 0, 64, 120
1, 153729, Control_c, 0, 64, 79
1, 153740, Note_on_c, 0, 36, 101
1, 153744, Control_c, 0, 64, 0
1, 153784, Note_on_c, 0, 42, 37
1, 153788, Control_c, 0, 64, 44
1, 153796, Note_off_c, 0, 73, 57
1, 153800, Note_off_c, 0, 85, 58
1, 153803, Control_c, 0, 64, 71
1, 153818, Control_c, 0, 64, 94
1, 153829, Note_off_c, 0, 42, 31
1, 153833, Note_off_c, 0, 36, 63
1, 153833, Control_c, 0, 64, 127
1, 153851, Note_on_c, 0, 48, 66
1, 153881, Note_off_c, 0, 48, 65
1, 153958, Note_on_c, 0, 73, 87
1, 153961, Note_on_c, 0, 85, 89
1, 153988, Note_on_c, 0, 53, 59
1, 154019, Note_on_c, 0, 60, 67
1, 154024, Note_off_c, 0, 85, 65
1, 154031, Note_off_c, 0, 53, 41
1, 154050, Note_off_c, 0, 73, 63
1, 154078, Note_off_c, 0, 60, 61
1, 154079, Note_on_c, 0, 56, 70
1, 154113, Note_on_c, 0, 84, 81
1, 154119, Note_on_c, 0, 72, 93
1, 154140, Note_off_c, 0, 56, 62
1, 154147, Note_on_c, 0, 65, 66
1, 154155, Note_off_c, 0, 72, 63
1, 154164, Note_off_c, 0, 84, 66
1, 154176, Note_off_c, 0, 65, 65
1, 154223, Note_on_c, 0, 59, 68
1, 154301, Note_on_c, 0, 66, 60
1, 154305, Note_on_c, 0, 68, 48
1, 154311, Poly_aftertouch_c, 0, 61, 127
1, 154331, Note_off_c, 0, 66, 66
1, 154333, Note_off_c, 0, 68, 56
1, 154334, Poly_aftertouch_c, 0, 60, 0
1, 154344, Note_on_c, 0, 83, 89
1, 154348, Note_on_c, 0, 71, 81
1, 154363, Note_off_c, 0, 59, 38
1, 154369, Note_on_c, 0, 56, 56
1, 154378, Note_off_c, 0, 71, 69
1, 154382, Poly_aftertouch_c, 0, 61, 0
1, 154391, Note_on_c, 0, 55, 45
1, 154403, Note_off_c, 0, 83, 65
1, 154421, Note_off_c, 0, 55, 52
1, 154429, Note_off_c, 0, 56, 0
1, 154429, Note_on_c, 0, 56, 3
1, 154450, Note_on_c, 0, 60, 53
1, 154472, Note_on_c, 0, 68, 82
1, 154472, Note_off_c, 0, 56, 47
1, 154477, Note_on_c, 0, 84, 90
1, 154479, Note_on_c, 0, 72, 88
1, 154497, Note_off_c, 0, 68, 70
1, 154518, Note_off_c, 0, 60, 63
1, 154531, Note_off_c, 0, 72, 56
1, 154566, Note_off_c, 0, 84, 63
1, 154596, Control_c, 0, 64, 80
1, 154611, Control_c, 0, 64, 0
1, 154614, Note_on_c, 0, 35, 92
1, 154624, Note_on_c, 0, 36, 79
1, 154655, Control_c, 0, 64, 63
1, 154658, Note_off_c, 0, 36, 47
1, 154659, Note_off_c, 0, 35, 63
1, 154670, Control_c, 0, 64, 82
1, 154685, Control_c, 0, 64, 127
1, 154802, Note_on_c, 0, 73, 95
1, 154805, Note_on_c, 0, 85, 84
1, 154817, Note_on_c, 0, 52, 71
1, 154840, Note_on_c, 0, 58, 65
1, 154852, Note_off_c, 0, 52, 57
1, 154873, Note_off_c, 0, 85, 64
1, 154883, Note_off_c, 0, 73, 57
1, 154918, Note_on_c, 0, 55, 67
1, 154930, Note_off_c, 0, 58, 62
1, 154949, Note_on_c, 0, 84, 86
1, 154952, Note_on_c, 0, 72, 96
1, 154969, Note_off_c, 0, 55, 62
1, 154971, Note_on_c, 0, 64, 69
1, 154992, Note_off_c, 0, 72, 63
1, 154995, Note_off_c, 0, 64, 68
1, 155001, Note_off_c, 0, 84, 65
1, 155049, Note_on_c, 0, 58, 85
1, 155109, Note_on_c, 0, 67, 76
1, 155164, Note_off_c, 0, 67, 62
1, 155182, Note_on_c, 0, 55, 83
1, 155182, Note_on_c, 0, 83, 89
1, 155183, Note_on_c, 0, 71, 89
1, 155188, Note_off_c, 0, 58, 61
1, 155213, Note_off_c, 0, 71, 64
1, 155228, Note_off_c, 0, 83, 65
1, 155252, Note_on_c, 0, 64, 70
1, 155272, Note_off_c, 0, 55, 47
1, 155306, Note_on_c, 0, 58, 73
1, 155312, Note_on_c, 0, 67, 84
1, 155314, Note_on_c, 0, 84, 96
1, 155317, Note_off_c, 0, 64, 64
1, 155317, Note_on_c, 0, 72, 94
1, 155329, Note_off_c, 0, 67, 73
1, 155335, Note_off_c, 0, 72, 74
1, 155353, Note_off_c, 0, 84, 66
1, 155356, Note_off_c, 0, 58, 66
1, 155559, Note_on_c, 0, 29, 102
1, 155581, Control_c, 0, 64, 87
1, 155596, Control_c, 0, 64, 57
1, 155611, Control_c, 0, 64, 0
1, 155745, Control_c, 0, 64, 69
1, 155760, Control_c, 0, 64, 127
1, 155767, Note_on_c, 0, 85, 103
1, 155768, Note_on_c, 0, 41, 86
1, 155770, Note_on_c, 0, 97, 99
1, 155776, Note_off_c, 0, 29, 62
1, 155807, Note_off_c, 0, 41, 63
1, 155866, Note_off_c, 0, 85, 62
1, 155871, Note_off_c, 0, 97, 65
1, 155941, Note_on_c, 0, 48, 72
1, 156054, Note_on_c, 0, 56, 74
1, 156068, Note_off_c, 0, 48, 58
1, 156146, Note_on_c, 0, 53, 69
1, 156153, Note_off_c, 0, 56, 63
1, 156167, Note_on_c, 0, 96, 108
1, 156170, Note_on_c, 0, 84, 107
1, 156182, Note_on_c, 0, 60, 82
1, 156200, Note_off_c, 0, 84, 68
1, 156205, Note_off_c, 0, 96, 65
1, 156206, Note_off_c, 0, 60, 65
1, 156240, Note_off_c, 0, 53, 63
1, 156353, Note_on_c, 0, 32, 99
1, 156405, Control_c, 0, 64, 121
1, 156419, Note_on_c, 0, 31, 7
1, 156420, Control_c, 0, 64, 78
1, 156435, Control_c, 0, 64, 0
1, 156441, Note_off_c, 0, 31, 44
1, 156463, Note_on_c, 0, 38, 13
1, 156465, Note_on_c, 0, 44, 86
1, 156468, Note_on_c, 0, 82, 97
1, 156471, Note_off_c, 0, 32, 64
1, 156471, Note_on_c, 0, 94, 93
1, 156479, Control_c, 0, 64, 71
1, 156490, Note_off_c, 0, 38, 47
1, 156494, Control_c, 0, 64, 127
1, 156507, Note_off_c, 0, 44, 64
1, 156511, Note_on_c, 0, 92, 26
1, 156512, Note_off_c, 0, 92, 127
1, 156519, Note_off_c, 0, 82, 63
1, 156522, Note_off_c, 0, 94, 66
1, 156632, Note_on_c, 0, 53, 60
1, 156658, Note_on_c, 0, 59, 64
1, 156667, Note_off_c, 0, 53, 62
1, 156736, Note_on_c, 0, 56, 76
1, 156742, Note_on_c, 0, 80, 96
1, 156744, Note_on_c, 0, 92, 90
1, 156745, Note_on_c, 0, 65, 78
1, 156755, Note_off_c, 0, 59, 60
1, 156771, Note_off_c, 0, 65, 67
1, 156794, Note_off_c, 0, 80, 60
1, 156796, Note_off_c, 0, 56, 65
1, 156799, Note_off_c, 0, 92, 65
1, 156885, Note_on_c, 0, 37, 95
1, 156902, Control_c, 0, 64, 101
1, 156917, Control_c, 0, 64, 70
1, 156932, Control_c, 0, 64, 0
1, 156933, Poly_aftertouch_c, 0, 87, 127
1, 156961, Control_c, 0, 64, 49
1, 156963, Poly_aftertouch_c, 0, 87, 0
1, 156972, Note_on_c, 0, 91, 90
1, 156975, Note_on_c, 0, 79, 91
1, 156976, Control_c, 0, 64, 77
1, 156980, Note_on_c, 0, 49, 80
1, 156985, Note_off_c, 0, 37, 61
1, 156991, Control_c, 0, 64, 127
1, 157004, Note_off_c, 0, 49, 70
1, 157016, Note_on_c, 0, 50, 62
1, 157033, Note_off_c, 0, 91, 64
1, 157034, Note_off_c, 0, 79, 55
1, 157042, Note_off_c, 0, 50, 62
1, 157130, Note_on_c, 0, 53, 42
1, 157132, Note_on_c, 0, 58, 75
1, 157136, Note_on_c, 0, 82, 40
1, 157161, Note_off_c, 0, 53, 51
1, 157192, Note_off_c, 0, 82, 66
1, 157193, Note_on_c, 0, 55, 76
1, 157200, Note_off_c, 0, 58, 55
1, 157216, Note_on_c, 0, 77, 93
1, 157219, Note_on_c, 0, 89, 87
1, 157229, Note_on_c, 0, 64, 46
1, 157233, Note_on_c, 0, 65, 33
1, 157255, Note_off_c, 0, 64, 57
1, 157258, Note_off_c, 0, 77, 63
1, 157258, Note_off_c, 0, 89, 63
1, 157261, Note_off_c, 0, 55, 64
1, 157267, Note_off_c, 0, 65, 53
1, 157356, Note_on_c, 0, 34, 91
1, 157386, Note_on_c, 0, 37, 42
1, 157398, Control_c, 0, 64, 91
1, 157413, Control_c, 0, 64, 63
1, 157429, Control_c, 0, 64, 0
1, 157434, Note_off_c, 0, 37, 45
1, 157452, Note_on_c, 0, 46, 83
1, 157457, Note_off_c, 0, 34, 64
1, 157458, Note_on_c, 0, 75, 93
1, 157458, Control_c, 0, 64, 64
1, 157462, Note_on_c, 0, 87, 85
1, 157473, Control_c, 0, 64, 89
1, 157477, Note_off_c, 0, 46, 70
1, 157487, Note_on_c, 0, 47, 54
1, 157488, Control_c, 0, 64, 127
1, 157508, Poly_aftertouch_c, 0, 41, 0
1, 157509, Note_off_c, 0, 75, 63
1, 157513, Note_off_c, 0, 47, 55
1, 157520, Note_off_c, 0, 87, 65
1, 157587, Note_on_c, 0, 53, 64
1, 157672, Note_off_c, 0, 53, 59
1, 157680, Note_on_c, 0, 61, 73
1, 157735, Note_on_c, 0, 55, 74
1, 157736, Note_on_c, 0, 73, 105
1, 157741, Note_on_c, 0, 85, 93
1, 157747, Note_off_c, 0, 61, 61
1, 157780, Note_on_c, 0, 65, 77
1, 157805, Note_off_c, 0, 65, 69
1, 157836, Note_off_c, 0, 55, 64
1, 157991, Control_c, 0, 64, 105
1, 158006, Control_c, 0, 64, 74
1, 158012, Note_on_c, 0, 36, 93
1, 158021, Control_c, 0, 64, 0
1, 158066, Control_c, 0, 64, 65
1, 158081, Control_c, 0, 64, 83
1, 158102, Control_c, 0, 64, 127
1, 158124, Note_off_c, 0, 36, 62
1, 158140, Note_on_c, 0, 48, 68
1, 158143, Note_off_c, 0, 73, 54
1, 158160, Note_off_c, 0, 85, 53
1, 158168, Note_off_c, 0, 48, 64
1, 158271, Note_on_c, 0, 73, 88
1, 158271, Note_on_c, 0, 85, 81
1, 158283, Note_on_c, 0, 53, 66
1, 158320, Note_off_c, 0, 73, 62
1, 158336, Note_off_c, 0, 85, 64
1, 158365, Note_off_c, 0, 53, 61
1, 158368, Note_on_c, 0, 60, 60
1, 158432, Note_on_c, 0, 56, 59
1, 158434, Note_off_c, 0, 60, 53
1, 158462, Note_on_c, 0, 84, 88
1, 158466, Note_on_c, 0, 72, 93
1, 158498, Note_off_c, 0, 72, 62
1, 158515, Note_off_c, 0, 84, 63
1, 158528, Note_off_c, 0, 56, 59
1, 158538, Note_on_c, 0, 65, 56
1, 158607, Control_c, 0, 64, 101
1, 158622, Control_c, 0, 64, 79
1, 158627, Note_on_c, 0, 53, 69
1, 158635, Note_off_c, 0, 65, 60
1, 158635, Note_on_c, 0, 73, 83
1, 158637, Note_on_c, 0, 85, 78
1, 158637, Control_c, 0, 64, 64
1, 158667, Control_c, 0, 64, 70
1, 158680, Control_c, 0, 64, 82
1, 158695, Control_c, 0, 64, 104
1, 158699, Note_off_c, 0, 73, 61
1, 158710, Control_c, 0, 64, 127
1, 158711, Note_off_c, 0, 85, 64
1, 158739, Note_off_c, 0, 53, 61
1, 158751, Note_on_c, 0, 59, 63
1, 158816, Note_on_c, 0, 83, 81
1, 158817, Note_on_c, 0, 71, 76
1, 158832, Note_off_c, 0, 59, 62
1, 158835, Note_on_c, 0, 56, 65
1, 158849, Note_off_c, 0, 71, 68
1, 158868, Note_off_c, 0, 83, 64
1, 158903, Note_off_c, 0, 56, 54
1, 158916, Note_on_c, 0, 61, 65
1, 158942, Note_on_c, 0, 85, 88
1, 158945, Note_on_c, 0, 73, 81
1, 158973, Note_off_c, 0, 61, 64
1, 158984, Note_on_c, 0, 58, 67
1, 158988, Note_off_c, 0, 73, 64
1, 158990, Note_off_c, 0, 85, 64
1, 159040, Note_off_c, 0, 58, 57
1, 159065, Note_on_c, 0, 82, 77
1, 159067, Note_on_c, 0, 70, 78
1, 159070, Note_on_c, 0, 65, 78
1, 159090, Note_off_c, 0, 70, 70
1, 159100, Note_off_c, 0, 82, 63
1, 159115, Note_off_c, 0, 65, 62
1, 159132, Note_on_c, 0, 53, 65
1, 159163, Note_on_c, 0, 85, 97
1, 159168, Note_on_c, 0, 73, 88
1, 159182, Note_on_c, 0, 58, 65
1, 159203, Note_off_c, 0, 85, 66
1, 159204, Note_off_c, 0, 73, 63
1, 159208, Note_off_c, 0, 53, 58
1, 159227, Note_off_c, 0, 58, 58
1, 159231, Note_on_c, 0, 55, 59
1, 159273, Note_on_c, 0, 69, 86
1, 159275, Note_on_c, 0, 81, 89
1, 159286, Note_on_c, 0, 61, 64
1, 159291, Note_off_c, 0, 69, 71
1, 159299, Note_off_c, 0, 81, 69
1, 159353, Note_off_c, 0, 61, 65
1, 159360, Note_on_c, 0, 58, 69
1, 159361, Note_on_c, 0, 85, 93
1, 159365, Note_on_c, 0, 73, 90
1, 159391, Note_off_c, 0, 73, 65
1, 159395, Note_off_c, 0, 85, 54
1, 159425, Note_off_c, 0, 58, 61
1, 159449, Note_on_c, 0, 65, 79
1, 159463, Note_on_c, 0, 68, 91
1, 159466, Note_on_c, 0, 80, 86
1, 159470, Note_off_c, 0, 65, 71
1, 159482, Note_off_c, 0, 68, 72
1, 159505, Note_off_c, 0, 80, 64
1, 159539, Note_off_c, 0, 55, 34
1, 159559, Note_on_c, 0, 73, 93
1, 159559, Note_on_c, 0, 85, 98
1, 159574, Note_off_c, 0, 73, 75
1, 159574, Note_off_c, 0, 85, 76
1, 159656, Note_on_c, 0, 67, 94
1, 159661, Note_on_c, 0, 79, 86
1, 159673, Note_off_c, 0, 67, 74
1, 159681, Note_off_c, 0, 79, 69
1, 159752, Note_on_c, 0, 85, 93
1, 159753, Note_on_c, 0, 73, 91
1, 159769, Note_off_c, 0, 73, 75
1, 159771, Note_off_c, 0, 85, 72
1, 159845, Note_on_c, 0, 65, 98
1, 159851, Note_on_c, 0, 77, 85
1, 159863, Note_off_c, 0, 65, 75
1, 159876, Note_off_c, 0, 77, 67
1, 159927, Control_c, 0, 64, 87
1, 159942, Control_c, 0, 64, 12
1, 159950, Note_on_c, 0, 73, 92
1, 159953, Note_on_c, 0, 85, 95
1, 159957, Control_c, 0, 64, 0
1, 159971, Control_c, 0, 64, 42
1, 159975, Note_off_c, 0, 73, 66
1, 159976, Note_on_c, 0, 82, 46
1, 159977, Note_off_c, 0, 82, 127
1, 159982, Note_on_c, 0, 36, 74
1, 159985, Note_off_c, 0, 85, 60
1, 159986, Control_c, 0, 64, 74
1, 160001, Control_c, 0, 64, 105
1, 160016, Control_c, 0, 64, 127
1, 160051, Note_off_c, 0, 36, 62
1, 160051, Note_on_c, 0, 46, 82
1, 160118, Note_on_c, 0, 52, 72
1, 160119, Note_off_c, 0, 46, 64
1, 160149, Note_off_c, 0, 52, 67
1, 160155, Note_on_c, 0, 76, 100
1, 160157, Note_on_c, 0, 64, 93
1, 160173, Note_off_c, 0, 64, 75
1, 160193, Note_off_c, 0, 76, 61
1, 160210, Note_on_c, 0, 55, 76
1, 160282, Note_on_c, 0, 58, 75
1, 160300, Note_off_c, 0, 55, 58
1, 160351, Note_off_c, 0, 58, 62
1, 160355, Note_on_c, 0, 64, 78
1, 160355, Note_on_c, 0, 85, 105
1, 160356, Note_on_c, 0, 73, 107
1, 160386, Note_off_c, 0, 73, 67
1, 160388, Note_off_c, 0, 85, 69
1, 160444, Note_on_c, 0, 58, 74
1, 160447, Note_off_c, 0, 64, 65
1, 160466, Note_on_c, 0, 55, 76
1, 160487, Note_off_c, 0, 58, 64
1, 160496, Note_off_c, 0, 55, 67
1, 160565, Note_on_c, 0, 52, 76
1, 160622, Note_on_c, 0, 46, 67
1, 160632, Note_off_c, 0, 52, 60
1, 160671, Note_off_c, 0, 46, 60
1, 160675, Note_on_c, 0, 36, 77
1, 160681, Poly_aftertouch_c, 0, 50, 0
1, 160759, Note_on_c, 0, 43, 80
1, 160765, Note_off_c, 0, 36, 59
1, 160802, Note_on_c, 0, 46, 75
1, 160834, Note_off_c, 0, 43, 62
1, 160852, Note_on_c, 0, 52, 76
1, 160857, Note_off_c, 0, 46, 65
1, 160893, Note_off_c, 0, 52, 65
1, 160945, Note_on_c, 0, 55, 82
1, 161008, Note_on_c, 0, 59, 72
1, 161050, Note_on_c, 0, 64, 81
1, 161054, Note_off_c, 0, 59, 63
1, 161108, Note_off_c, 0, 64, 62
1, 161123, Note_on_c, 0, 73, 122
1, 161130, Note_off_c, 0, 55, 60
1, 161138, Note_off_c, 0, 73, 69
1, 161147, Note_on_c, 0, 72, 69
1, 161148, Note_off_c, 0, 72, 127
1, 161936, Control_c, 0, 64, 80
1, 161950, Control_c, 0, 64, 0
1, 162071, Note_on_c, 0, 48, 75
1, 162076, Note_on_c, 0, 70, 70
1, 162094, Note_on_c, 0, 55, 66
1, 162098, Note_off_c, 0, 70, 67
1, 162101, Note_on_c, 0, 58, 83
1, 162117, Note_on_c, 0, 76, 76
1, 162118, Note_off_c, 0, 48, 63
1, 162129, Control_c, 0, 64, 78
1, 162140, Note_on_c, 0, 84, 104
1, 162142, Note_off_c, 0, 55, 60
1, 162143, Control_c, 0, 64, 127
1, 162144, Note_off_c, 0, 76, 69
1, 162153, Note_on_c, 0, 64, 84
1, 162171, Note_off_c, 0, 84, 66
1, 162176, Note_off_c, 0, 58, 64
1, 162206, Poly_aftertouch_c, 0, 71, 0
1, 162248, Note_off_c, 0, 64, 62
1, 162352, Poly_aftertouch_c, 0, 58, 0
1, 162366, Control_c, 0, 64, 85
1, 162369, Note_on_c, 0, 53, 77
1, 162373, Note_on_c, 0, 60, 74
1, 162380, Note_on_c, 0, 56, 64
1, 162381, Control_c, 0, 64, 28
1, 162383, Note_on_c, 0, 72, 62
1, 162396, Control_c, 0, 64, 0
1, 162436, Note_on_c, 0, 77, 97
1, 162439, Note_off_c, 0, 72, 66
1, 162440, Control_c, 0, 64, 77
1, 162442, Note_on_c, 0, 65, 96
1, 162446, Note_off_c, 0, 53, 63
1, 162455, Control_c, 0, 64, 127
1, 162458, Note_off_c, 0, 60, 62
1, 162459, Note_off_c, 0, 56, 65
1, 162461, Note_off_c, 0, 77, 64
1, 162500, Note_off_c, 0, 65, 65
1, 162769, Note_on_c, 0, 77, 77
1, 162788, Note_on_c, 0, 68, 70
1, 162817, Control_c, 0, 64, 110
1, 162824, Note_off_c, 0, 77, 62
1, 162832, Control_c, 0, 64, 84
1, 162836, Note_off_c, 0, 68, 60
1, 162845, Note_on_c, 0, 71, 82
1, 162847, Note_on_c, 0, 79, 75
1, 162847, Control_c, 0, 64, 67
1, 162862, Control_c, 0, 64, 0
1, 162866, Note_off_c, 0, 79, 58
1, 162871, Note_off_c, 0, 71, 67
1, 162913, Note_on_c, 0, 77, 84
1, 162926, Note_on_c, 0, 68, 67
1, 162965, Note_off_c, 0, 77, 61
1, 162968, Note_off_c, 0, 68, 61
1, 162976, Note_on_c, 0, 71, 82
1, 162977, Note_on_c, 0, 76, 79
1, 163008, Note_off_c, 0, 71, 66
1, 163025, Note_off_c, 0, 76, 64
1, 163040, Note_on_c, 0, 77, 84
1, 163048, Note_on_c, 0, 68, 79
1, 163091, Note_off_c, 0, 77, 63
1, 163100, Note_on_c, 0, 76, 87
1, 163102, Note_off_c, 0, 68, 64
1, 163107, Note_on_c, 0, 71, 86
1, 163134, Note_off_c, 0, 71, 61
1, 163152, Note_off_c, 0, 76, 65
1, 163159, Note_on_c, 0, 77, 82
1, 163167, Note_on_c, 0, 68, 76
1, 163208, Note_off_c, 0, 77, 62
1, 163217, Note_on_c, 0, 79, 89
1, 163219, Note_on_c, 0, 71, 88
1, 163225, Note_off_c, 0, 68, 64
1, 163252, Note_off_c, 0, 71, 61
1, 163254, Note_off_c, 0, 79, 62
1, 163270, Note_on_c, 0, 77, 88
1, 163272, Note_on_c, 0, 68, 81
1, 163306, Note_off_c, 0, 77, 67
1, 163322, Control_c, 0, 64, 65
1, 163325, Note_on_c, 0, 80, 96
1, 163327, Note_on_c, 0, 71, 91
1, 163345, Control_c, 0, 64, 115
1, 163350, Note_off_c, 0, 68, 67
1, 163353, Note_off_c, 0, 71, 73
1, 163360, Control_c, 0, 64, 127
1, 163372, Note_off_c, 0, 80, 68
1, 163615, Note_on_c, 0, 53, 96
1, 163616, Note_on_c, 0, 50, 74
1, 163617, Note_on_c, 0, 41, 86
1, 163621, Note_on_c, 0, 47, 76
1, 163626, Note_on_c, 0, 44, 67
1, 163627, Note_on_c, 0, 56, 82
1, 163650, Note_off_c, 0, 44, 58
1, 163705, Note_off_c, 0, 56, 55
1, 163712, Note_on_c, 0, 58, 70
1, 163720, Poly_aftertouch_c, 0, 45, 0
1, 163758, Poly_aftertouch_c, 0, 45, 0
1, 163790, Note_off_c, 0, 41, 59
1, 163792, Note_off_c, 0, 58, 63
1, 163799, Note_off_c, 0, 53, 58
1, 163801, Note_on_c, 0, 56, 82
1, 163845, Note_off_c, 0, 47, 56
1, 163848, Note_off_c, 0, 50, 60
1, 163858, Note_off_c, 0, 56, 63
1, 163891, Note_on_c, 0, 47, 75
1, 163893, Note_on_c, 0, 53, 105
1, 163896, Note_on_c, 0, 50, 75
1, 163897, Note_on_c, 0, 41, 87
1, 163908, Note_on_c, 0, 68, 77
1, 163921, Note_on_c, 0, 45, 63
1, 163958, Note_off_c, 0, 45, 56
1, 163959, Note_off_c, 0, 68, 61
1, 163962, Note_on_c, 0, 70, 62
1, 163963, Note_on_c, 0, 69, 39
1, 163982, Note_off_c, 0, 70, 62
1, 163994, Note_off_c, 0, 69, 49
1, 163996, Note_off_c, 0, 41, 63
1, 164001, Note_on_c, 0, 71, 30
1, 164017, Note_off_c, 0, 47, 48
1, 164024, Note_off_c, 0, 53, 57
1, 164037, Note_off_c, 0, 71, 46
1, 164045, Note_on_c, 0, 68, 75
1, 164049, Note_off_c, 0, 50, 57
1, 164060, Note_on_c, 0, 70, 46
1, 164076, Note_off_c, 0, 68, 67
1, 164099, Note_off_c, 0, 70, 52
1, 164117, Note_on_c, 0, 53, 106
1, 164119, Note_on_c, 0, 41, 82
1, 164120, Note_on_c, 0, 47, 66
1, 164126, Note_on_c, 0, 80, 79
1, 164152, Note_on_c, 0, 45, 48
1, 164172, Note_off_c, 0, 47, 62
1, 164179, Note_on_c, 0, 82, 75
1, 164182, Note_off_c, 0, 45, 53
1, 164186, Note_off_c, 0, 80, 64
1, 164193, Note_off_c, 0, 41, 64
1, 164218, Note_off_c, 0, 82, 65
1, 164223, Note_off_c, 0, 53, 60
1, 164248, Poly_aftertouch_c, 0, 81, 0
1, 164257, Control_c, 0, 64, 92
1, 164263, Note_on_c, 0, 80, 85
1, 164271, Control_c, 0, 64, 51
1, 164286, Control_c, 0, 64, 0
1, 164311, Note_off_c, 0, 80, 65
1, 164314, Note_on_c, 0, 41, 85
1, 164314, Note_on_c, 0, 53, 101
1, 164319, Note_on_c, 0, 44, 82
1, 164321, Note_on_c, 0, 92, 105
1, 164327, Note_on_c, 0, 48, 56
1, 164331, Control_c, 0, 64, 100
1, 164345, Control_c, 0, 64, 127
1, 164346, Note_off_c, 0, 41, 65
1, 164354, Note_off_c, 0, 48, 55
1, 164356, Note_off_c, 0, 44, 59
1, 164358, Note_off_c, 0, 92, 66
1, 164361, Note_off_c, 0, 53, 67
1, 164548, Note_on_c, 0, 68, 81
1, 164549, Note_on_c, 0, 77, 89
1, 164597, Control_c, 0, 64, 99
1, 164601, Note_off_c, 0, 77, 62
1, 164609, Note_on_c, 0, 71, 80
1, 164612, Control_c, 0, 64, 78
1, 164614, Note_on_c, 0, 79, 81
1, 164615, Note_off_c, 0, 68, 63
1, 164627, Control_c, 0, 64, 0
1, 164646, Note_off_c, 0, 79, 59
1, 164651, Note_off_c, 0, 71, 62
1, 164679, Note_on_c, 0, 77, 86
1, 164686, Note_on_c, 0, 68, 70
1, 164731, Note_off_c, 0, 77, 63
1, 164744, Note_on_c, 0, 71, 86
1, 164748, Note_on_c, 0, 76, 76
1, 164752, Note_off_c, 0, 68, 63
1, 164778, Note_off_c, 0, 71, 65
1, 164797, Note_off_c, 0, 76, 64
1, 164809, Note_on_c, 0, 77, 91
1, 164816, Note_on_c, 0, 68, 76
1, 164871, Note_off_c, 0, 77, 63
1, 164878, Note_on_c, 0, 76, 69
1, 164882, Note_on_c, 0, 71, 71
1, 164883, Note_off_c, 0, 68, 63
1, 164890, Note_on_c, 0, 79, 74
1, 164906, Note_off_c, 0, 76, 66
1, 164913, Note_on_c, 0, 75, 30
1, 164916, Note_off_c, 0, 71, 63
1, 164922, Note_off_c, 0, 79, 64
1, 164931, Note_on_c, 0, 77, 83
1, 164934, Note_on_c, 0, 68, 77
1, 164945, Note_off_c, 0, 75, 47
1, 164983, Note_off_c, 0, 77, 63
1, 164997, Note_on_c, 0, 71, 80
1, 164997, Note_off_c, 0, 68, 63
1, 164998, Note_on_c, 0, 80, 89
1, 165022, Note_off_c, 0, 71, 67
1, 165040, Note_on_c, 0, 77, 89
1, 165042, Note_on_c, 0, 68, 80
1, 165050, Note_off_c, 0, 80, 63
1, 165080, Control_c, 0, 64, 26
1, 165080, Note_off_c, 0, 77, 66
1, 165094, Control_c, 0, 64, 87
1, 165109, Control_c, 0, 64, 127
1, 165113, Note_off_c, 0, 68, 65
1, 165140, Note_on_c, 0, 80, 91
1, 165154, Note_on_c, 0, 72, 72
1, 165160, Note_off_c, 0, 80, 70
1, 165172, Note_off_c, 0, 72, 67
1, 165181, Note_on_c, 0, 75, 22
1, 165182, Note_off_c, 0, 75, 127
1, 165364, Note_on_c, 0, 41, 81
1, 165365, Note_on_c, 0, 53, 91
1, 165371, Note_on_c, 0, 56, 87
1, 165378, Note_on_c, 0, 47, 75
1, 165387, Note_on_c, 0, 50, 56
1, 165415, Note_off_c, 0, 50, 54
1, 165435, Note_off_c, 0, 41, 61
1, 165446, Note_off_c, 0, 56, 62
1, 165450, Note_off_c, 0, 53, 48
1, 165453, Note_on_c, 0, 58, 71
1, 165484, Note_off_c, 0, 47, 49
1, 165518, Note_off_c, 0, 58, 62
1, 165523, Note_on_c, 0, 56, 77
1, 165572, Note_off_c, 0, 56, 65
1, 165609, Note_on_c, 0, 53, 96
1, 165610, Note_on_c, 0, 41, 81
1, 165615, Note_on_c, 0, 50, 62
1, 165616, Note_on_c, 0, 47, 72
1, 165625, Note_on_c, 0, 68, 77
1, 165650, Note_on_c, 0, 45, 42
1, 165673, Note_on_c, 0, 70, 74
1, 165678, Note_off_c, 0, 68, 64
1, 165685, Note_off_c, 0, 45, 46
1, 165692, Note_off_c, 0, 47, 59
1, 165703, Note_off_c, 0, 70, 67
1, 165707, Note_off_c, 0, 41, 62
1, 165720, Note_off_c, 0, 53, 53
1, 165738, Note_on_c, 0, 68, 88
1, 165787, Note_off_c, 0, 50, 55
1, 165801, Note_off_c, 0, 68, 63
1, 165828, Note_on_c, 0, 53, 90
1, 165831, Note_on_c, 0, 47, 61
1, 165831, Note_on_c, 0, 41, 78
1, 165833, Note_on_c, 0, 80, 88
1, 165873, Note_off_c, 0, 47, 62
1, 165888, Note_off_c, 0, 80, 68
1, 165893, Note_on_c, 0, 82, 82
1, 165908, Note_off_c, 0, 53, 57
1, 165911, Note_off_c, 0, 41, 61
1, 165934, Note_off_c, 0, 82, 66
1, 165973, Note_on_c, 0, 80, 89
1, 166022, Control_c, 0, 64, 88
1, 166030, Note_off_c, 0, 80, 65
1, 166036, Control_c, 0, 64, 61
1, 166051, Control_c, 0, 64, 0
1, 166067, Note_on_c, 0, 53, 114
1, 166070, Note_on_c, 0, 44, 85
1, 166070, Note_on_c, 0, 92, 95
1, 166072, Note_on_c, 0, 41, 90
1, 166072, Note_on_c, 0, 48, 76
1, 166095, Note_on_c, 0, 93, 69
1, 166096, Control_c, 0, 64, 60
1, 166110, Control_c, 0, 64, 86
1, 166125, Control_c, 0, 64, 127
1, 166138, Note_off_c, 0, 92, 65
1, 166152, Note_off_c, 0, 93, 65
1, 166156, Note_on_c, 0, 94, 78
1, 166202, Note_off_c, 0, 41, 60
1, 166232, Note_on_c, 0, 92, 85
1, 166245, Note_off_c, 0, 44, 59
1, 166262, Note_off_c, 0, 53, 55
1, 166262, Note_off_c, 0, 94, 54
1, 166295, Note_off_c, 0, 48, 54
1, 166296, Note_off_c, 0, 92, 64
1, 166307, Note_on_c, 0, 80, 81
1, 166388, Note_on_c, 0, 82, 79
1, 166391, Note_off_c, 0, 80, 65
1, 166394, Note_on_c, 0, 39, 84
1, 166395, Poly_aftertouch_c, 0, 45, 127
1, 166451, Note_off_c, 0, 82, 69
1, 166464, Note_on_c, 0, 80, 84
1, 166479, Note_on_c, 0, 49, 82
1, 166499, Note_off_c, 0, 80, 62
1, 166502, Control_c, 0, 64, 84
1, 166517, Control_c, 0, 64, 0
1, 166518, Note_off_c, 0, 39, 65
1, 166541, Poly_aftertouch_c, 0, 45, 0
1, 166546, Note_on_c, 0, 94, 101
1, 166549, Note_on_c, 0, 55, 96
1, 166561, Control_c, 0, 64, 60
1, 166576, Control_c, 0, 64, 85
1, 166591, Control_c, 0, 64, 127
1, 166604, Note_off_c, 0, 49, 61
1, 166630, Note_on_c, 0, 96, 87
1, 166635, Note_off_c, 0, 94, 64
1, 166649, Note_off_c, 0, 55, 61
1, 166668, Note_on_c, 0, 95, 32
1, 166709, Note_off_c, 0, 95, 32
1, 166713, Note_on_c, 0, 94, 91
1, 166721, Note_off_c, 0, 96, 62
1, 166775, Note_off_c, 0, 94, 66
1, 166788, Note_on_c, 0, 82, 84
1, 166860, Note_on_c, 0, 84, 81
1, 166870, Note_off_c, 0, 82, 64
1, 166937, Note_off_c, 0, 84, 65
1, 166943, Note_on_c, 0, 82, 77
1, 166976, Control_c, 0, 64, 84
1, 166991, Note_off_c, 0, 82, 67
1, 166991, Control_c, 0, 64, 53
1, 167006, Control_c, 0, 64, 0
1, 167016, Note_on_c, 0, 56, 103
1, 167020, Note_on_c, 0, 44, 83
1, 167021, Note_on_c, 0, 51, 80
1, 167028, Note_on_c, 0, 97, 97
1, 167036, Control_c, 0, 64, 66
1, 167051, Control_c, 0, 64, 93
1, 167060, Note_on_c, 0, 46, 32
1, 167066, Control_c, 0, 64, 127
1, 167083, Note_off_c, 0, 44, 62
1, 167084, Note_off_c, 0, 51, 59
1, 167089, Note_off_c, 0, 56, 54
1, 167092, Note_off_c, 0, 97, 65
1, 167104, Note_off_c, 0, 46, 55
1, 167148, Note_on_c, 0, 96, 84
1, 167215, Note_off_c, 0, 96, 65
1, 167233, Note_on_c, 0, 84, 81
1, 167295, Note_off_c, 0, 84, 65
1, 167310, Control_c, 0, 64, 90
1, 167324, Note_on_c, 0, 58, 100
1, 167325, Note_on_c, 0, 46, 91
1, 167325, Control_c, 0, 64, 61
1, 167327, Note_on_c, 0, 96, 98
1, 167327, Note_on_c, 0, 54, 84
1, 167339, Control_c, 0, 64, 0
1, 167369, Control_c, 0, 64, 71
1, 167384, Control_c, 0, 64, 98
1, 167395, Note_off_c, 0, 46, 65
1, 167399, Control_c, 0, 64, 127
1, 167400, Note_off_c, 0, 54, 62
1, 167402, Note_on_c, 0, 94, 88
1, 167417, Note_off_c, 0, 96, 56
1, 167424, Note_off_c, 0, 58, 64
1, 167469, Note_on_c, 0, 82, 83
1, 167480, Note_off_c, 0, 94, 64
1, 167539, Note_off_c, 0, 82, 66
1, 167554, Note_on_c, 0, 60, 94
1, 167557, Note_on_c, 0, 48, 81
1, 167563, Note_on_c, 0, 94, 97
1, 167566, Note_on_c, 0, 53, 63
1, 167568, Note_on_c, 0, 58, 71
1, 167596, Note_on_c, 0, 52, 31
1, 167624, Note_on_c, 0, 92, 87
1, 167634, Note_off_c, 0, 52, 44
1, 167638, Note_off_c, 0, 48, 60
1, 167646, Note_off_c, 0, 58, 30
1, 167662, Note_off_c, 0, 94, 63
1, 167664, Note_off_c, 0, 60, 50
1, 167692, Note_on_c, 0, 80, 79
1, 167694, Note_off_c, 0, 92, 63
1, 167761, Note_off_c, 0, 80, 64
1, 167765, Note_on_c, 0, 60, 89
1, 167772, Note_on_c, 0, 48, 80
1, 167783, Note_on_c, 0, 92, 88
1, 167789, Note_off_c, 0, 60, 62
1, 167815, Note_off_c, 0, 53, 19
1, 167833, Note_off_c, 0, 92, 65
1, 167837, Note_off_c, 0, 48, 61
1, 167848, Note_on_c, 0, 91, 68
1, 167855, Note_on_c, 0, 93, 50
1, 167890, Note_on_c, 0, 90, 38
1, 167890, Note_off_c, 0, 93, 52
1, 167912, Note_off_c, 0, 91, 65
1, 167914, Note_on_c, 0, 79, 87
1, 167924, Note_off_c, 0, 90, 62
1, 167937, Note_on_c, 0, 40, 61
1, 167941, Note_on_c, 0, 41, 72
1, 167956, Control_c, 0, 64, 126
1, 167957, Note_off_c, 0, 79, 63
1, 167967, Note_on_c, 0, 47, 52
1, 167970, Control_c, 0, 64, 77
1, 167971, Note_on_c, 0, 42, 46
1, 167976, Note_on_c, 0, 48, 54
1, 167985, Control_c, 0, 64, 0
1, 167990, Note_off_c, 0, 40, 64
1, 168004, Note_off_c, 0, 41, 65
1, 168011, Note_off_c, 0, 47, 63
1, 168013, Note_off_c, 0, 42, 63
1, 168017, Note_on_c, 0, 89, 98
1, 168018, Note_on_c, 0, 77, 102
1, 168030, Note_on_c, 0, 56, 98
1, 168030, Control_c, 0, 64, 74
1, 168043, Note_off_c, 0, 48, 64
1, 168043, Note_off_c, 0, 77, 64
1, 168044, Control_c, 0, 64, 127
1, 168046, Note_off_c, 0, 89, 68
1, 168089, Note_off_c, 0, 56, 62
1, 168236, Note_on_c, 0, 65, 88
1, 168240, Note_on_c, 0, 56, 70
1, 168293, Note_off_c, 0, 65, 62
1, 168308, Note_on_c, 0, 59, 88
1, 168311, Control_c, 0, 64, 101
1, 168312, Note_on_c, 0, 67, 87
1, 168316, Note_off_c, 0, 56, 62
1, 168326, Control_c, 0, 64, 76
1, 168335, Note_off_c, 0, 67, 64
1, 168341, Control_c, 0, 64, 40
1, 168341, Note_off_c, 0, 59, 62
1, 168355, Control_c, 0, 64, 0
1, 168376, Note_on_c, 0, 65, 90
1, 168377, Note_on_c, 0, 56, 75
1, 168423, Note_off_c, 0, 65, 66
1, 168437, Note_on_c, 0, 64, 85
1, 168444, Note_on_c, 0, 59, 86
1, 168447, Note_off_c, 0, 56, 64
1, 168467, Note_off_c, 0, 59, 66
1, 168490, Note_off_c, 0, 64, 66
1, 168502, Note_on_c, 0, 65, 100
1, 168507, Note_on_c, 0, 56, 78
1, 168552, Note_off_c, 0, 65, 65
1, 168563, Note_on_c, 0, 64, 84
1, 168567, Note_off_c, 0, 56, 64
1, 168569, Note_on_c, 0, 59, 84
1, 168609, Note_off_c, 0, 59, 59
1, 168627, Note_off_c, 0, 64, 63
1, 168634, Note_on_c, 0, 65, 90
1, 168640, Note_on_c, 0, 56, 79
1, 168686, Note_off_c, 0, 65, 66
1, 168689, Note_on_c, 0, 67, 89
1, 168693, Note_on_c, 0, 59, 90
1, 168705, Note_off_c, 0, 56, 63
1, 168731, Note_off_c, 0, 59, 56
1, 168733, Note_off_c, 0, 67, 64
1, 168746, Note_on_c, 0, 65, 95
1, 168748, Note_on_c, 0, 56, 72
1, 168786, Note_off_c, 0, 65, 68
1, 168803, Note_on_c, 0, 59, 96
1, 168804, Note_on_c, 0, 68, 98
1, 168808, Control_c, 0, 64, 71
1, 168818, Note_off_c, 0, 56, 66
1, 168823, Control_c, 0, 64, 127
1, 168827, Note_off_c, 0, 59, 66
1, 168866, Note_off_c, 0, 68, 71
1, 169058, Note_on_c, 0, 41, 104
1, 169059, Note_on_c, 0, 29, 91
1, 169064, Note_on_c, 0, 35, 78
1, 169064, Note_on_c, 0, 53, 91
1, 169068, Note_on_c, 0, 38, 81
1, 169073, Note_on_c, 0, 34, 72
1, 169074, Note_on_c, 0, 32, 69
1, 169122, Note_off_c, 0, 53, 62
1, 169145, Note_on_c, 0, 64, 68
1, 169215, Note_on_c, 0, 65, 73
1, 169229, Note_off_c, 0, 64, 63
1, 169238, Note_off_c, 0, 29, 62
1, 169250, Note_off_c, 0, 41, 62
1, 169262, Note_off_c, 0, 34, 24
1, 169271, Note_off_c, 0, 32, 59
1, 169271, Note_off_c, 0, 65, 66
1, 169284, Note_off_c, 0, 38, 60
1, 169286, Note_off_c, 0, 35, 59
1, 169318, Note_on_c, 0, 65, 84
1, 169334, Note_on_c, 0, 41, 103
1, 169340, Note_on_c, 0, 35, 69
1, 169345, Note_on_c, 0, 29, 83
1, 169345, Note_on_c, 0, 38, 64
1, 169350, Note_on_c, 0, 32, 58
1, 169396, Note_off_c, 0, 65, 65
1, 169405, Note_on_c, 0, 76, 80
1, 169429, Note_off_c, 0, 32, 61
1, 169456, Note_off_c, 0, 29, 55
1, 169459, Note_on_c, 0, 77, 83
1, 169465, Note_off_c, 0, 76, 65
1, 169474, Note_off_c, 0, 41, 57
1, 169502, Note_off_c, 0, 77, 65
1, 169512, Note_off_c, 0, 38, 61
1, 169512, Note_off_c, 0, 35, 59
1, 169548, Note_on_c, 0, 77, 81
1, 169549, Note_on_c, 0, 35, 59
1, 169551, Note_on_c, 0, 41, 96
1, 169565, Note_on_c, 0, 29, 74
1, 169568, Note_on_c, 0, 32, 59
1, 169601, Note_off_c, 0, 35, 63
1, 169602, Note_off_c, 0, 32, 61
1, 169614, Note_on_c, 0, 88, 86
1, 169627, Note_off_c, 0, 77, 63
1, 169642, Note_off_c, 0, 29, 63
1, 169644, Note_off_c, 0, 41, 57
1, 169661, Note_on_c, 0, 89, 91
1, 169670, Note_off_c, 0, 88, 66
1, 169704, Note_off_c, 0, 89, 66
1, 169705, Control_c, 0, 64, 108
1, 169720, Control_c, 0, 64, 68
1, 169734, Control_c, 0, 64, 0
1, 169786, Note_on_c, 0, 29, 90
1, 169786, Note_on_c, 0, 41, 109
1, 169792, Note_on_c, 0, 32, 89
1, 169792, Note_on_c, 0, 89, 112
1, 169792, Note_on_c, 0, 101, 108
1, 169794, Control_c, 0, 64, 127
1, 169796, Note_on_c, 0, 36, 38
1, 169822, Note_off_c, 0, 29, 69
1, 169822, Note_off_c, 0, 89, 71
1, 169824, Note_off_c, 0, 32, 66
1, 169826, Note_off_c, 0, 101, 68
1, 169837, Note_off_c, 0, 36, 45
1, 169846, Note_off_c, 0, 41, 66
1, 169850, Note_on_c, 0, 91, 20
1, 169851, Note_off_c, 0, 91, 127
1, 170066, Note_on_c, 0, 56, 54
1, 170070, Note_on_c, 0, 65, 88
1, 170122, Note_on_c, 0, 59, 87
1, 170123, Note_on_c, 0, 67, 77
1, 170138, Note_off_c, 0, 65, 64
1, 170151, Note_off_c, 0, 56, 63
1, 170161, Note_off_c, 0, 59, 65
1, 170163, Note_off_c, 0, 67, 60
1, 170201, Control_c, 0, 64, 99
1, 170205, Note_on_c, 0, 65, 79
1, 170207, Note_on_c, 0, 56, 75
1, 170217, Control_c, 0, 64, 73
1, 170231, Control_c, 0, 64, 0
1, 170252, Note_off_c, 0, 65, 66
1, 170255, Note_on_c, 0, 64, 82
1, 170267, Note_on_c, 0, 59, 81
1, 170267, Note_off_c, 0, 56, 65
1, 170290, Note_off_c, 0, 59, 68
1, 170311, Note_off_c, 0, 64, 66
1, 170327, Note_on_c, 0, 65, 96
1, 170331, Note_on_c, 0, 56, 79
1, 170371, Note_off_c, 0, 65, 67
1, 170385, Note_on_c, 0, 64, 88
1, 170389, Note_off_c, 0, 56, 65
1, 170390, Note_on_c, 0, 59, 85
1, 170416, Note_off_c, 0, 59, 64
1, 170438, Note_off_c, 0, 64, 66
1, 170439, Note_on_c, 0, 65, 94
1, 170445, Note_on_c, 0, 56, 75
1, 170487, Note_off_c, 0, 65, 66
1, 170499, Note_on_c, 0, 67, 93
1, 170500, Note_on_c, 0, 59, 89
1, 170514, Note_off_c, 0, 56, 64
1, 170538, Note_off_c, 0, 59, 61
1, 170544, Note_off_c, 0, 67, 62
1, 170550, Note_on_c, 0, 65, 91
1, 170552, Note_on_c, 0, 56, 69
1, 170592, Note_off_c, 0, 65, 68
1, 170610, Note_on_c, 0, 59, 95
1, 170616, Note_on_c, 0, 68, 95
1, 170617, Control_c, 0, 64, 82
1, 170629, Note_off_c, 0, 56, 67
1, 170631, Control_c, 0, 64, 127
1, 170639, Note_on_c, 0, 55, 25
1, 170646, Note_off_c, 0, 59, 65
1, 170676, Note_off_c, 0, 55, 53
1, 170735, Note_off_c, 0, 68, 62
1, 170834, Poly_aftertouch_c, 0, 39, 127
1, 170844, Poly_aftertouch_c, 0, 66, 0
1, 170869, Poly_aftertouch_c, 0, 39, 0
1, 170873, Note_on_c, 0, 29, 91
1, 170873, Note_on_c, 0, 53, 90
1, 170874, Note_on_c, 0, 41, 97
1, 170878, Note_on_c, 0, 35, 77
1, 170878, Note_on_c, 0, 38, 79
1, 170895, Note_on_c, 0, 32, 65
1, 170929, Note_off_c, 0, 53, 64
1, 170961, Note_on_c, 0, 64, 66
1, 171027, Note_off_c, 0, 41, 61
1, 171030, Note_off_c, 0, 29, 61
1, 171030, Note_on_c, 0, 65, 74
1, 171044, Note_off_c, 0, 64, 64
1, 171059, Note_off_c, 0, 32, 59
1, 171071, Note_off_c, 0, 38, 60
1, 171075, Note_off_c, 0, 35, 58
1, 171078, Note_off_c, 0, 65, 66
1, 171113, Note_on_c, 0, 65, 91
1, 171114, Note_on_c, 0, 41, 100
1, 171121, Note_on_c, 0, 35, 65
1, 171122, Note_on_c, 0, 29, 87
1, 171125, Note_on_c, 0, 38, 65
1, 171135, Note_on_c, 0, 32, 59
1, 171196, Note_on_c, 0, 76, 84
1, 171199, Note_off_c, 0, 65, 60
1, 171219, Note_off_c, 0, 29, 62
1, 171256, Note_off_c, 0, 41, 60
1, 171266, Note_on_c, 0, 77, 82
1, 171268, Note_off_c, 0, 76, 65
1, 171294, Note_off_c, 0, 38, 59
1, 171313, Note_off_c, 0, 32, 40
1, 171313, Note_off_c, 0, 77, 64
1, 171348, Note_off_c, 0, 35, 0
1, 171348, Note_on_c, 0, 35, 23
1, 171351, Note_on_c, 0, 41, 97
1, 171354, Note_on_c, 0, 77, 95
1, 171358, Note_on_c, 0, 29, 80
1, 171367, Note_on_c, 0, 32, 48
1, 171409, Note_off_c, 0, 35, 62
1, 171423, Note_off_c, 0, 32, 64
1, 171444, Note_on_c, 0, 88, 84
1, 171448, Note_off_c, 0, 29, 52
1, 171463, Note_on_c, 0, 86, 62
1, 171465, Note_off_c, 0, 77, 55
1, 171482, Note_off_c, 0, 86, 61
1, 171525, Note_on_c, 0, 89, 91
1, 171536, Note_off_c, 0, 41, 26
1, 171536, Note_off_c, 0, 88, 66
1, 171605, Note_off_c, 0, 89, 66
1, 171626, Poly_aftertouch_c, 0, 34, 127
1, 171626, Control_c, 0, 64, 116
1, 171640, Note_on_c, 0, 41, 108
1, 171640, Control_c, 0, 64, 75
1, 171643, Note_on_c, 0, 29, 90
1, 171646, Note_on_c, 0, 32, 84
1, 171646, Note_on_c, 0, 36, 77
1, 171652, Note_on_c, 0, 89, 102
1, 171655, Control_c, 0, 64, 0
1, 171700, Control_c, 0, 64, 28
1, 171708, Poly_aftertouch_c, 0, 34, 0
1, 171714, Control_c, 0, 64, 80
1, 171729, Control_c, 0, 64, 127
1, 171814, Note_off_c, 0, 89, 66
1, 171832, Note_on_c, 0, 101, 107
1, 171869, Note_off_c, 0, 36, 62
1, 171906, Note_off_c, 0, 32, 62
1, 171908, Note_off_c, 0, 101, 63
1, 171925, Note_off_c, 0, 29, 54
1, 171935, Note_on_c, 0, 88, 89
1, 171997, Note_off_c, 0, 88, 65
1, 172022, Note_on_c, 0, 100, 102
1, 172047, Poly_aftertouch_c, 0, 92, 0
1, 172099, Note_on_c, 0, 87, 93
1, 172102, Note_off_c, 0, 100, 67
1, 172128, Note_off_c, 0, 41, 47
1, 172134, Note_on_c, 0, 93, 31
1, 172139, Poly_aftertouch_c, 0, 34, 127
1, 172166, Note_on_c, 0, 39, 21
1, 172167, Note_off_c, 0, 87, 65
1, 172182, Note_on_c, 0, 99, 96
1, 172202, Note_off_c, 0, 93, 37
1, 172220, Note_off_c, 0, 39, 55
1, 172224, Note_on_c, 0, 100, 38
1, 172253, Poly_aftertouch_c, 0, 34, 0
1, 172255, Note_off_c, 0, 100, 51
1, 172266, Note_on_c, 0, 34, 71
1, 172268, Note_off_c, 0, 99, 65
1, 172269, Note_on_c, 0, 39, 84
1, 172270, Note_on_c, 0, 43, 101
1, 172273, Note_on_c, 0, 86, 94
1, 172274, Note_on_c, 0, 31, 90
1, 172294, Control_c, 0, 64, 91
1, 172308, Control_c, 0, 64, 44
1, 172330, Control_c, 0, 64, 0
1, 172354, Note_off_c, 0, 86, 63
1, 172375, Control_c, 0, 64, 67
1, 172383, Note_on_c, 0, 98, 96
1, 172390, Control_c, 0, 64, 84
1, 172404, Control_c, 0, 64, 127
1, 172446, Note_off_c, 0, 98, 65
1, 172466, Note_on_c, 0, 85, 91
1, 172509, Note_off_c, 0, 31, 61
1, 172542, Note_off_c, 0, 43, 60
1, 172545, Note_off_c, 0, 34, 61
1, 172547, Note_off_c, 0, 85, 64
1, 172564, Note_on_c, 0, 97, 93
1, 172607, Note_off_c, 0, 39, 54
1, 172647, Note_off_c, 0, 97, 65
1, 172658, Note_on_c, 0, 84, 86
1, 172723, Note_off_c, 0, 84, 61
1, 172741, Note_on_c, 0, 96, 90
1, 172771, Poly_aftertouch_c, 0, 36, 127
1, 172791, Control_c, 0, 64, 106
1, 172806, Control_c, 0, 64, 70
1, 172808, Poly_aftertouch_c, 0, 36, 0
1, 172821, Control_c, 0, 64, 0
1, 172823, Note_off_c, 0, 96, 62
1, 172829, Note_on_c, 0, 44, 103
1, 172829, Note_on_c, 0, 84, 90
1, 172832, Note_on_c, 0, 32, 86
1, 172843, Note_on_c, 0, 39, 68
1, 172851, Control_c, 0, 64, 26
1, 172852, Note_on_c, 0, 34, 58
1, 172866, Control_c, 0, 64, 72
1, 172880, Control_c, 0, 64, 96
1, 172881, Note_off_c, 0, 34, 60
1, 172887, Note_off_c, 0, 84, 64
1, 172895, Control_c, 0, 64, 127
1, 172911, Note_off_c, 0, 32, 62
1, 172912, Note_off_c, 0, 44, 58
1, 172913, Note_off_c, 0, 39, 58
1, 172915, Note_on_c, 0, 96, 93
1, 172969, Note_off_c, 0, 96, 66
1, 172991, Note_on_c, 0, 83, 89
1, 173057, Note_off_c, 0, 83, 67
1, 173057, Control_c, 0, 64, 94
1, 173079, Control_c, 0, 64, 66
1, 173089, Note_on_c, 0, 34, 89
1, 173091, Note_on_c, 0, 46, 96
1, 173091, Note_on_c, 0, 95, 104
1, 173094, Control_c, 0, 64, 0
1, 173098, Note_on_c, 0, 42, 85
1, 173124, Control_c, 0, 64, 58
1, 173139, Control_c, 0, 64, 78
1, 173153, Control_c, 0, 64, 127
1, 173161, Note_off_c, 0, 95, 60
1, 173171, Note_on_c, 0, 82, 87
1, 173196, Note_off_c, 0, 42, 62
1, 173203, Note_off_c, 0, 34, 63
1, 173228, Note_off_c, 0, 46, 60
1, 173254, Note_off_c, 0, 82, 65
1, 173272, Note_on_c, 0, 94, 91
1, 173355, Note_off_c, 0, 94, 65
1, 173361, Control_c, 0, 64, 107
1, 173373, Note_on_c, 0, 48, 98
1, 173373, Note_on_c, 0, 81, 101
1, 173376, Control_c, 0, 64, 75
1, 173377, Note_on_c, 0, 36, 90
1, 173379, Note_on_c, 0, 46, 86
1, 173384, Note_on_c, 0, 41, 74
1, 173391, Control_c, 0, 64, 0
1, 173450, Control_c, 0, 64, 68
1, 173456, Note_off_c, 0, 81, 65
1, 173465, Control_c, 0, 64, 88
1, 173480, Control_c, 0, 64, 127
1, 173488, Note_on_c, 0, 93, 94
1, 173496, Note_off_c, 0, 36, 59
1, 173584, Note_off_c, 0, 48, 59
1, 173584, Note_off_c, 0, 93, 61
1, 173593, Note_on_c, 0, 80, 95
1, 173633, Note_off_c, 0, 46, 60
1, 173668, Note_off_c, 0, 41, 41
1, 173684, Note_on_c, 0, 46, 85
1, 173686, Note_on_c, 0, 48, 102
1, 173687, Note_on_c, 0, 36, 91
1, 173688, Control_c, 0, 64, 81
1, 173689, Note_off_c, 0, 80, 64
1, 173691, Note_on_c, 0, 40, 67
1, 173702, Control_c, 0, 64, 0
1, 173704, Note_on_c, 0, 92, 94
1, 173747, Control_c, 0, 64, 62
1, 173762, Control_c, 0, 64, 81
1, 173776, Control_c, 0, 64, 127
1, 173797, Note_off_c, 0, 40, 62
1, 173799, Note_off_c, 0, 36, 61
1, 173806, Note_off_c, 0, 92, 66
1, 173839, Note_off_c, 0, 46, 63
1, 173840, Note_on_c, 0, 79, 95
1, 173858, Note_off_c, 0, 48, 59
1, 173942, Note_off_c, 0, 79, 60
1, 173965, Note_on_c, 0, 91, 101
1, 174008, Note_off_c, 0, 91, 68
1, 174160, Note_on_c, 0, 41, 79
1, 174165, Note_on_c, 0, 44, 71
1, 174192, Note_on_c, 0, 48, 75
1, 174243, Control_c, 0, 64, 91
1, 174258, Control_c, 0, 64, 67
1, 174273, Control_c, 0, 64, 0
1, 174289, Note_on_c, 0, 65, 103
1, 174290, Note_on_c, 0, 53, 98
1, 174318, Control_c, 0, 64, 67
1, 174330, Note_on_c, 0, 71, 43
1, 174331, Note_off_c, 0, 71, 127
1, 174333, Control_c, 0, 64, 86
1, 174334, Note_on_c, 0, 72, 40
1, 174347, Control_c, 0, 64, 127
1, 174366, Note_off_c, 0, 72, 56
1, 174416, Note_off_c, 0, 65, 56
1, 174457, Note_on_c, 0, 77, 84
1, 174458, Note_on_c, 0, 68, 91
1, 174490, Note_off_c, 0, 48, 53
1, 174504, Note_off_c, 0, 68, 66
1, 174535, Note_off_c, 0, 41, 62
1, 174559, Note_off_c, 0, 77, 49
1, 174574, Note_off_c, 0, 44, 60
1, 174584, Note_on_c, 0, 72, 91
1, 174614, Note_off_c, 0, 53, 63
1, 174625, Note_off_c, 0, 72, 67
1, 174696, Note_on_c, 0, 77, 88
1, 174709, Note_on_c, 0, 79, 71
1, 174727, Note_off_c, 0, 79, 41
1, 174762, Note_off_c, 0, 77, 58
1, 174789, Note_on_c, 0, 89, 84
1, 174795, Note_on_c, 0, 80, 89
1, 174829, Note_off_c, 0, 80, 69
1, 174871, Note_on_c, 0, 84, 85
1, 174902, Note_off_c, 0, 84, 67
1, 174923, Note_off_c, 0, 89, 66
1, 174967, Note_on_c, 0, 89, 100
1, 174967, Note_on_c, 0, 53, 94
1, 174967, Note_on_c, 0, 65, 113
1, 175010, Note_off_c, 0, 65, 66
1, 175019, Note_off_c, 0, 89, 68
1, 175038, Note_on_c, 0, 101, 92
1, 175051, Note_off_c, 0, 53, 57
1, 175054, Note_on_c, 0, 100, 75
1, 175080, Note_off_c, 0, 100, 47
1, 175096, Note_on_c, 0, 96, 85
1, 175122, Note_off_c, 0, 101, 65
1, 175142, Note_off_c, 0, 96, 65
1, 175516, Note_on_c, 0, 65, 122
1, 175546, Note_on_c, 0, 53, 74
1, 175695, Note_on_c, 0, 41, 78
1, 175707, Note_on_c, 0, 46, 76
1, 175719, Note_on_c, 0, 49, 81
1, 175728, Note_off_c, 0, 53, 61
1, 175782, Note_off_c, 0, 65, 65
1, 175801, Control_c, 0, 64, 82
1, 175815, Note_on_c, 0, 52, 98
1, 175816, Control_c, 0, 64, 12
1, 175822, Note_on_c, 0, 64, 102
1, 175830, Control_c, 0, 64, 0
1, 175854, Note_on_c, 0, 71, 59
1, 175855, Note_off_c, 0, 71, 127
1, 175860, Control_c, 0, 64, 46
1, 175875, Control_c, 0, 64, 71
1, 175890, Control_c, 0, 64, 90
1, 175905, Control_c, 0, 64, 127
1, 175933, Note_off_c, 0, 64, 61
1, 175965, Note_on_c, 0, 76, 84
1, 175968, Note_on_c, 0, 67, 84
1, 176064, Note_off_c, 0, 67, 61
1, 176082, Note_on_c, 0, 70, 86
1, 176082, Note_off_c, 0, 76, 63
1, 176135, Note_off_c, 0, 70, 67
1, 176192, Note_on_c, 0, 76, 96
1, 176202, Note_off_c, 0, 41, 63
1, 176227, Note_off_c, 0, 46, 62
1, 176234, Note_off_c, 0, 49, 61
1, 176234, Note_off_c, 0, 52, 65
1, 176246, Note_off_c, 0, 76, 66
1, 176277, Note_on_c, 0, 79, 85
1, 176282, Note_on_c, 0, 88, 84
1, 176333, Note_off_c, 0, 79, 61
1, 176343, Note_on_c, 0, 82, 77
1, 176371, Note_off_c, 0, 88, 66
1, 176372, Note_off_c, 0, 82, 67
1, 176431, Note_on_c, 0, 88, 74
1, 176437, Note_on_c, 0, 89, 75
1, 176466, Note_off_c, 0, 89, 65
1, 176478, Note_off_c, 0, 88, 66
1, 176487, Note_on_c, 0, 100, 90
1, 176496, Note_on_c, 0, 91, 65
1, 176544, Note_on_c, 0, 94, 92
1, 176551, Note_off_c, 0, 91, 65
1, 176568, Note_off_c, 0, 100, 66
1, 176601, Note_off_c, 0, 94, 66
1, 176609, Note_on_c, 0, 64, 106
1, 176610, Note_on_c, 0, 52, 93
1, 176646, Note_off_c, 0, 64, 68
1, 176676, Note_off_c, 0, 52, 63
1, 176725, Poly_aftertouch_c, 0, 53, 0
1, 176854, Note_on_c, 0, 41, 81
1, 176863, Note_on_c, 0, 45, 63
1, 176877, Note_on_c, 0, 48, 57
1, 176893, Note_on_c, 0, 42, 55
1, 176914, Control_c, 0, 64, 89
1, 176928, Control_c, 0, 64, 62
1, 176935, Note_on_c, 0, 63, 100
1, 176938, Note_on_c, 0, 51, 103
1, 176938, Note_off_c, 0, 42, 64
1, 176941, Note_on_c, 0, 75, 82
1, 176943, Control_c, 0, 64, 0
1, 176969, Note_on_c, 0, 73, 48
1, 176972, Control_c, 0, 64, 55
1, 176977, Note_off_c, 0, 48, 62
1, 176979, Note_off_c, 0, 45, 61
1, 176987, Control_c, 0, 64, 79
1, 176996, Note_off_c, 0, 73, 37
1, 177002, Note_off_c, 0, 41, 64
1, 177002, Control_c, 0, 64, 127
1, 177028, Note_on_c, 0, 66, 37
1, 177031, Note_off_c, 0, 63, 61
1, 177033, Note_off_c, 0, 51, 64
1, 177042, Note_on_c, 0, 52, 22
1, 177067, Note_off_c, 0, 66, 63
1, 177076, Note_on_c, 0, 69, 60
1, 177081, Note_off_c, 0, 52, 40
1, 177082, Note_off_c, 0, 75, 57
1, 177117, Note_off_c, 0, 69, 65
1, 177254, Note_on_c, 0, 75, 89
1, 177255, Note_on_c, 0, 51, 90
1, 177257, Note_on_c, 0, 63, 99
1, 177278, Note_on_c, 0, 85, 67
1, 177303, Note_off_c, 0, 85, 51
1, 177303, Note_off_c, 0, 75, 63
1, 177325, Note_on_c, 0, 86, 49
1, 177325, Note_off_c, 0, 51, 64
1, 177354, Note_off_c, 0, 86, 66
1, 177357, Note_on_c, 0, 81, 72
1, 177363, Note_off_c, 0, 63, 62
1, 177390, Note_off_c, 0, 81, 67
1, 177474, Note_on_c, 0, 65, 107
1, 177476, Note_on_c, 0, 53, 88
1, 177486, Note_on_c, 0, 87, 73
1, 177537, Note_on_c, 0, 92, 47
1, 177538, Note_off_c, 0, 87, 65
1, 177543, Note_on_c, 0, 99, 82
1, 177546, Note_off_c, 0, 53, 59
1, 177575, Note_off_c, 0, 65, 62
1, 177576, Note_off_c, 0, 92, 66
1, 177612, Note_on_c, 0, 93, 69
1, 177632, Note_off_c, 0, 99, 65
1, 177632, Note_on_c, 0, 94, 55
1, 177660, Note_off_c, 0, 93, 65
1, 177662, Note_off_c, 0, 94, 35
1, 177708, Note_on_c, 0, 66, 110
1, 177709, Note_on_c, 0, 54, 87
1, 177742, Note_off_c, 0, 66, 71
1, 177758, Note_off_c, 0, 54, 65
1, 177814, Poly_aftertouch_c, 0, 58, 0
1, 177816, Poly_aftertouch_c, 0, 56, 0
1, 177868, Note_on_c, 0, 41, 78
1, 177913, Control_c, 0, 64, 108
1, 177927, Control_c, 0, 64, 77
1, 177936, Note_on_c, 0, 47, 19
1, 177938, Note_on_c, 0, 50, 56
1, 177942, Control_c, 0, 64, 0
1, 177955, Note_off_c, 0, 41, 65
1, 177966, Note_on_c, 0, 62, 96
1, 177969, Note_on_c, 0, 68, 89
1, 177974, Note_on_c, 0, 56, 102
1, 177987, Control_c, 0, 64, 63
1, 178002, Control_c, 0, 64, 91
1, 178003, Note_on_c, 0, 46, 31
1, 178008, Note_off_c, 0, 47, 59
1, 178010, Note_off_c, 0, 50, 63
1, 178017, Control_c, 0, 64, 127
1, 178024, Note_off_c, 0, 62, 60
1, 178040, Poly_aftertouch_c, 0, 45, 0
1, 178042, Note_off_c, 0, 46, 31
1, 178059, Note_on_c, 0, 74, 72
1, 178061, Poly_aftertouch_c, 0, 45, 0
1, 178065, Note_off_c, 0, 56, 62
1, 178068, Note_off_c, 0, 68, 62
1, 178107, Note_on_c, 0, 65, 76
1, 178134, Note_off_c, 0, 65, 68
1, 178149, Note_off_c, 0, 74, 65
1, 178209, Note_on_c, 0, 74, 82
1, 178264, Note_off_c, 0, 74, 66
1, 178285, Note_on_c, 0, 86, 85
1, 178293, Note_on_c, 0, 77, 78
1, 178369, Note_on_c, 0, 65, 98
1, 178372, Note_on_c, 0, 53, 85
1, 178372, Note_on_c, 0, 80, 86
1, 178375, Note_off_c, 0, 77, 63
1, 178409, Note_off_c, 0, 65, 69
1, 178417, Note_off_c, 0, 80, 67
1, 178420, Note_off_c, 0, 86, 62
1, 178422, Note_off_c, 0, 53, 62
1, 178479, Note_on_c, 0, 86, 85
1, 178487, Note_on_c, 0, 62, 87
1, 178488, Note_on_c, 0, 48, 86
1, 178488, Note_on_c, 0, 60, 96
1, 178491, Note_on_c, 0, 50, 90
1, 178507, Note_off_c, 0, 62, 69
1, 178530, Note_off_c, 0, 86, 68
1, 178538, Note_off_c, 0, 60, 58
1, 178550, Note_on_c, 0, 98, 86
1, 178550, Note_off_c, 0, 50, 58
1, 178553, Note_on_c, 0, 89, 78
1, 178565, Note_off_c, 0, 48, 61
1, 178619, Note_on_c, 0, 92, 87
1, 178628, Note_off_c, 0, 89, 66
1, 178634, Note_off_c, 0, 98, 66
1, 178671, Note_off_c, 0, 92, 65
1, 178789, Poly_aftertouch_c, 0, 44, 0
1, 178968, Note_on_c, 0, 40, 73
1, 179004, Note_on_c, 0, 49, 33
1, 179009, Note_on_c, 0, 43, 68
1, 179038, Note_off_c, 0, 49, 55
1, 179079, Note_on_c, 0, 46, 83
1, 179145, Control_c, 0, 64, 85
1, 179153, Note_on_c, 0, 49, 99
1, 179159, Note_on_c, 0, 61, 100
1, 179160, Control_c, 0, 64, 0
1, 179182, Note_off_c, 0, 43, 63
1, 179199, Note_on_c, 0, 73, 57
1, 179219, Control_c, 0, 64, 64
1, 179234, Control_c, 0, 64, 82
1, 179248, Control_c, 0, 64, 127
1, 179339, Note_on_c, 0, 64, 32
1, 179343, Note_off_c, 0, 61, 60
1, 179349, Note_off_c, 0, 73, 62
1, 179363, Note_on_c, 0, 67, 59
1, 179371, Note_off_c, 0, 64, 48
1, 179419, Note_off_c, 0, 67, 63
1, 179461, Note_off_c, 0, 40, 37
1, 179506, Note_off_c, 0, 46, 60
1, 179508, Note_off_c, 0, 49, 61
1, 179543, Note_on_c, 0, 73, 99
1, 179618, Note_on_c, 0, 85, 64
1, 179618, Note_off_c, 0, 73, 63
1, 179671, Note_on_c, 0, 79, 70
1, 179692, Note_off_c, 0, 85, 61
1, 179702, Note_off_c, 0, 79, 67
1, 179779, Note_on_c, 0, 61, 115
1, 179779, Note_on_c, 0, 49, 87
1, 179788, Note_on_c, 0, 85, 94
1, 179820, Note_on_c, 0, 51, 47
1, 179844, Note_on_c, 0, 97, 80
1, 179845, Note_off_c, 0, 61, 58
1, 179850, Note_off_c, 0, 85, 64
1, 179851, Note_off_c, 0, 51, 55
1, 179876, Note_off_c, 0, 49, 62
1, 179904, Note_on_c, 0, 91, 77
1, 179930, Note_off_c, 0, 97, 65
1, 179949, Note_off_c, 0, 91, 66
1, 180256, Note_on_c, 0, 61, 114
1, 180276, Note_on_c, 0, 49, 83
1, 180415, Note_on_c, 0, 39, 71
1, 180420, Note_on_c, 0, 42, 63
1, 180424, Note_on_c, 0, 45, 76
1, 180434, Note_off_c, 0, 49, 58
1, 180497, Note_off_c, 0, 61, 55
1, 180515, Control_c, 0, 64, 99
1, 180525, Note_on_c, 0, 60, 100
1, 180530, Note_on_c, 0, 48, 100
1, 180530, Control_c, 0, 64, 68
1, 180545, Control_c, 0, 64, 0
1, 180568, Note_on_c, 0, 65, 53
1, 180569, Note_off_c, 0, 65, 127
1, 180598, Control_c, 0, 64, 68
1, 180613, Control_c, 0, 64, 84
1, 180628, Control_c, 0, 64, 127
1, 180662, Note_off_c, 0, 60, 60
1, 180671, Note_on_c, 0, 72, 82
1, 180675, Note_on_c, 0, 63, 80
1, 180771, Note_off_c, 0, 63, 63
1, 180774, Note_off_c, 0, 72, 64
1, 180775, Note_on_c, 0, 66, 82
1, 180814, Note_off_c, 0, 66, 68
1, 180858, Note_off_c, 0, 39, 61
1, 180859, Note_off_c, 0, 45, 53
1, 180860, Note_off_c, 0, 42, 61
1, 180879, Note_on_c, 0, 72, 104
1, 180881, Note_off_c, 0, 48, 60
1, 180953, Note_off_c, 0, 72, 59
1, 180960, Note_on_c, 0, 75, 87
1, 180965, Note_on_c, 0, 84, 83
1, 181023, Note_on_c, 0, 78, 79
1, 181025, Note_off_c, 0, 75, 64
1, 181057, Note_off_c, 0, 84, 65
1, 181060, Note_off_c, 0, 78, 63
1, 181103, Note_on_c, 0, 84, 94
1, 181161, Note_off_c, 0, 84, 64
1, 181171, Note_on_c, 0, 87, 85
1, 181174, Note_on_c, 0, 96, 82
1, 181197, Note_on_c, 0, 95, 63
1, 181218, Note_off_c, 0, 95, 61
1, 181229, Note_on_c, 0, 90, 90
1, 181246, Note_off_c, 0, 87, 68
1, 181255, Note_off_c, 0, 96, 65
1, 181282, Note_on_c, 0, 60, 101
1, 181283, Note_on_c, 0, 48, 89
1, 181287, Note_off_c, 0, 90, 66
1, 181303, Note_on_c, 0, 50, 67
1, 181324, Note_off_c, 0, 60, 67
1, 181331, Note_off_c, 0, 50, 63
1, 181359, Note_off_c, 0, 48, 63
1, 181552, Note_on_c, 0, 41, 76
1, 181555, Note_on_c, 0, 38, 79
1, 181572, Note_on_c, 0, 44, 73
1, 181598, Control_c, 0, 64, 83
1, 181613, Control_c, 0, 64, 33
1, 181628, Control_c, 0, 64, 0
1, 181631, Note_on_c, 0, 59, 95
1, 181633, Note_on_c, 0, 47, 92
1, 181657, Control_c, 0, 64, 44
1, 181665, Note_off_c, 0, 41, 64
1, 181672, Control_c, 0, 64, 75
1, 181674, Note_off_c, 0, 44, 63
1, 181680, Note_off_c, 0, 38, 64
1, 181686, Control_c, 0, 64, 111
1, 181701, Control_c, 0, 64, 127
1, 181708, Note_off_c, 0, 47, 63
1, 181720, Note_off_c, 0, 59, 63
1, 181741, Note_on_c, 0, 71, 72
1, 181752, Note_on_c, 0, 62, 70
1, 181829, Note_off_c, 0, 62, 62
1, 181838, Note_on_c, 0, 65, 75
1, 181844, Note_off_c, 0, 71, 60
1, 181884, Note_off_c, 0, 65, 66
1, 181962, Note_on_c, 0, 71, 84
1, 181966, Note_on_c, 0, 47, 84
1, 181967, Note_on_c, 0, 59, 97
1, 182006, Note_off_c, 0, 71, 68
1, 182038, Note_on_c, 0, 74, 77
1, 182039, Note_on_c, 0, 83, 79
1, 182039, Note_off_c, 0, 47, 59
1, 182088, Note_off_c, 0, 74, 64
1, 182094, Note_off_c, 0, 59, 61
1, 182098, Note_on_c, 0, 77, 73
1, 182142, Note_off_c, 0, 77, 65
1, 182150, Note_off_c, 0, 83, 65
1, 182196, Note_on_c, 0, 60, 101
1, 182197, Note_on_c, 0, 48, 92
1, 182198, Note_on_c, 0, 83, 88
1, 182253, Note_off_c, 0, 83, 68
1, 182268, Note_on_c, 0, 95, 85
1, 182280, Note_off_c, 0, 48, 60
1, 182286, Note_off_c, 0, 60, 55
1, 182306, Note_on_c, 0, 89, 78
1, 182336, Note_off_c, 0, 95, 65
1, 182355, Note_off_c, 0, 89, 67
1, 182407, Note_on_c, 0, 50, 85
1, 182408, Note_on_c, 0, 62, 96
1, 182424, Note_on_c, 0, 60, 73
1, 182441, Note_off_c, 0, 62, 64
1, 182442, Note_off_c, 0, 60, 62
1, 182464, Note_off_c, 0, 50, 63
1, 182488, Poly_aftertouch_c, 0, 51, 127
1, 182519, Poly_aftertouch_c, 0, 51, 0
1, 182574, Note_on_c, 0, 37, 78
1, 182588, Note_on_c, 0, 43, 37
1, 182613, Control_c, 0, 64, 109
1, 182626, Note_on_c, 0, 46, 85
1, 182628, Control_c, 0, 64, 74
1, 182637, Note_on_c, 0, 36, 8
1, 182637, Note_on_c, 0, 58, 94
1, 182643, Control_c, 0, 64, 0
1, 182646, Note_off_c, 0, 37, 63
1, 182655, Note_on_c, 0, 64, 73
1, 182655, Note_on_c, 0, 52, 92
1, 182659, Poly_aftertouch_c, 0, 42, 127
1, 182673, Note_off_c, 0, 36, 37
1, 182682, Note_off_c, 0, 43, 62
1, 182688, Control_c, 0, 64, 70
1, 182690, Poly_aftertouch_c, 0, 42, 0
1, 182703, Control_c, 0, 64, 99
1, 182706, Note_off_c, 0, 46, 63
1, 182717, Control_c, 0, 64, 127
1, 182727, Note_off_c, 0, 58, 62
1, 182729, Note_on_c, 0, 70, 72
1, 182733, Note_off_c, 0, 52, 62
1, 182736, Note_off_c, 0, 64, 64
1, 182769, Note_on_c, 0, 61, 25
1, 182816, Note_off_c, 0, 70, 64
1, 182817, Note_off_c, 0, 61, 53
1, 182870, Note_on_c, 0, 70, 96
1, 182937, Note_off_c, 0, 70, 62
1, 182946, Note_on_c, 0, 82, 69
1, 182952, Note_on_c, 0, 73, 75
1, 183011, Note_on_c, 0, 61, 99
1, 183013, Note_on_c, 0, 49, 78
1, 183013, Note_off_c, 0, 82, 62
1, 183014, Note_off_c, 0, 73, 65
1, 183016, Note_on_c, 0, 76, 70
1, 183039, Note_off_c, 0, 76, 68
1, 183050, Note_off_c, 0, 61, 66
1, 183061, Note_off_c, 0, 49, 63
1, 183117, Note_on_c, 0, 58, 99
1, 183117, Note_on_c, 0, 82, 92
1, 183119, Note_on_c, 0, 46, 100
1, 183155, Note_off_c, 0, 58, 64
1, 183168, Note_off_c, 0, 82, 67
1, 183189, Note_off_c, 0, 46, 62
1, 183189, Note_on_c, 0, 94, 84
1, 183264, Note_on_c, 0, 88, 89
1, 183283, Note_off_c, 0, 94, 63
1, 183306, Note_off_c, 0, 88, 65
1, 183640, Note_on_c, 0, 39, 75
1, 183647, Note_on_c, 0, 45, 79
1, 183653, Note_on_c, 0, 42, 56
1, 183695, Control_c, 0, 64, 89
1, 183710, Control_c, 0, 64, 62
1, 183724, Note_on_c, 0, 57, 100
1, 183725, Control_c, 0, 64, 0
1, 183726, Note_on_c, 0, 48, 91
1, 183754, Control_c, 0, 64, 48
1, 183758, Note_off_c, 0, 45, 64
1, 183769, Control_c, 0, 64, 73
1, 183770, Note_off_c, 0, 39, 64
1, 183770, Note_off_c, 0, 42, 64
1, 183785, Control_c, 0, 64, 96
1, 183800, Control_c, 0, 64, 127
1, 183814, Note_off_c, 0, 48, 61
1, 183842, Note_on_c, 0, 69, 55
1, 183846, Note_on_c, 0, 60, 71
1, 183848, Note_off_c, 0, 57, 60
1, 183858, Note_on_c, 0, 67, 62
1, 183936, Note_off_c, 0, 67, 29
1, 183938, Note_off_c, 0, 60, 62
1, 183943, Note_on_c, 0, 63, 75
1, 183958, Note_off_c, 0, 69, 54
1, 183998, Note_off_c, 0, 63, 66
1, 184065, Note_on_c, 0, 45, 84
1, 184065, Note_on_c, 0, 57, 98
1, 184067, Note_on_c, 0, 69, 94
1, 184113, Note_off_c, 0, 45, 63
1, 184115, Note_off_c, 0, 69, 66
1, 184142, Note_on_c, 0, 72, 87
1, 184149, Note_on_c, 0, 81, 84
1, 184151, Note_off_c, 0, 57, 63
1, 184194, Note_on_c, 0, 75, 74
1, 184194, Note_off_c, 0, 72, 65
1, 184235, Note_off_c, 0, 75, 65
1, 184244, Note_off_c, 0, 81, 66
1, 184277, Note_on_c, 0, 46, 88
1, 184278, Note_on_c, 0, 58, 101
1, 184283, Note_on_c, 0, 81, 95
1, 184339, Note_off_c, 0, 81, 69
1, 184355, Note_on_c, 0, 84, 76
1, 184369, Note_off_c, 0, 46, 64
1, 184370, Note_on_c, 0, 93, 84
1, 184371, Note_off_c, 0, 58, 59
1, 184402, Poly_aftertouch_c, 0, 45, 0
1, 184409, Note_on_c, 0, 87, 83
1, 184415, Note_off_c, 0, 84, 64
1, 184437, Note_off_c, 0, 93, 64
1, 184468, Note_off_c, 0, 87, 67
1, 184504, Note_on_c, 0, 60, 100
1, 184505, Note_on_c, 0, 48, 93
1, 184542, Note_off_c, 0, 60, 65
1, 184569, Note_off_c, 0, 48, 64
1, 184695, Note_on_c, 0, 35, 77
1, 184771, Control_c, 0, 64, 99
1, 184779, Note_on_c, 0, 41, 87
1, 184785, Control_c, 0, 64, 63
1, 184796, Note_on_c, 0, 44, 82
1, 184800, Control_c, 0, 64, 0
1, 184809, Note_off_c, 0, 35, 62
1, 184810, Note_on_c, 0, 56, 100
1, 184822, Note_on_c, 0, 62, 81
1, 184840, Note_on_c, 0, 50, 88
1, 184844, Control_c, 0, 64, 70
1, 184853, Note_off_c, 0, 41, 63
1, 184859, Control_c, 0, 64, 95
1, 184867, Poly_aftertouch_c, 0, 38, 0
1, 184874, Control_c, 0, 64, 127
1, 184877, Note_off_c, 0, 44, 61
1, 184893, Note_off_c, 0, 56, 63
1, 184897, Poly_aftertouch_c, 0, 38, 0
1, 184914, Note_off_c, 0, 50, 61
1, 184935, Note_on_c, 0, 68, 74
1, 184968, Note_off_c, 0, 62, 55
1, 185044, Note_off_c, 0, 68, 60
1, 185062, Note_on_c, 0, 59, 66
1, 185100, Note_off_c, 0, 59, 60
1, 185153, Note_on_c, 0, 47, 80
1, 185164, Note_on_c, 0, 56, 80
1, 185167, Note_on_c, 0, 62, 88
1, 185230, Note_off_c, 0, 47, 57
1, 185234, Note_off_c, 0, 62, 59
1, 185258, Note_on_c, 0, 65, 80
1, 185260, Note_on_c, 0, 74, 76
1, 185309, Note_off_c, 0, 65, 66
1, 185311, Note_on_c, 0, 68, 81
1, 185338, Note_off_c, 0, 74, 63
1, 185358, Note_off_c, 0, 56, 64
1, 185358, Note_off_c, 0, 68, 65
1, 185394, Note_on_c, 0, 62, 87
1, 185401, Note_on_c, 0, 68, 87
1, 185445, Note_off_c, 0, 62, 58
1, 185452, Note_off_c, 0, 68, 65
1, 185465, Note_on_c, 0, 80, 67
1, 185470, Note_on_c, 0, 69, 30
1, 185476, Poly_aftertouch_c, 0, 53, 0
1, 185483, Note_on_c, 0, 71, 68
1, 185505, Note_off_c, 0, 69, 46
1, 185512, Note_on_c, 0, 75, 74
1, 185515, Note_off_c, 0, 71, 64
1, 185527, Note_off_c, 0, 75, 65
1, 185529, Note_off_c, 0, 80, 66
1, 185537, Note_on_c, 0, 74, 72
1, 185571, Note_off_c, 0, 74, 66
1, 185597, Note_on_c, 0, 59, 80
1, 185610, Note_on_c, 0, 74, 83
1, 185620, Note_on_c, 0, 68, 78
1, 185662, Note_off_c, 0, 74, 67
1, 185663, Note_off_c, 0, 59, 60
1, 185705, Note_on_c, 0, 77, 67
1, 185706, Note_on_c, 0, 86, 67
1, 185710, Note_on_c, 0, 88, 58
1, 185728, Note_off_c, 0, 88, 63
1, 185748, Note_on_c, 0, 80, 79
1, 185748, Note_off_c, 0, 77, 61
1, 185773, Note_off_c, 0, 86, 64
1, 185791, Poly_aftertouch_c, 0, 79, 0
1, 185791, Note_off_c, 0, 80, 68
1, 185809, Note_off_c, 0, 68, 62
1, 185839, Note_on_c, 0, 80, 90
1, 185848, Note_on_c, 0, 74, 85
1, 185887, Note_off_c, 0, 80, 67
1, 185898, Note_off_c, 0, 74, 63
1, 185916, Note_on_c, 0, 92, 83
1, 185925, Note_on_c, 0, 83, 75
1, 185934, Note_on_c, 0, 81, 11
1, 185949, Note_off_c, 0, 92, 62
1, 185973, Note_off_c, 0, 83, 67
1, 185975, Note_on_c, 0, 86, 75
1, 185984, Note_off_c, 0, 81, 35
1, 185985, Note_on_c, 0, 91, 32
1, 185988, Note_on_c, 0, 93, 30
1, 186012, Note_off_c, 0, 86, 66
1, 186018, Note_off_c, 0, 91, 50
1, 186026, Note_off_c, 0, 93, 44
1, 186068, Note_on_c, 0, 71, 72
1, 186070, Note_on_c, 0, 86, 75
1, 186072, Note_on_c, 0, 88, 79
1, 186080, Note_on_c, 0, 80, 80
1, 186101, Note_off_c, 0, 88, 60
1, 186116, Note_off_c, 0, 86, 66
1, 186128, Note_off_c, 0, 71, 61
1, 186158, Note_on_c, 0, 100, 61
1, 186160, Note_on_c, 0, 89, 67
1, 186160, Note_on_c, 0, 98, 69
1, 186191, Note_off_c, 0, 100, 58
1, 186199, Note_off_c, 0, 89, 65
1, 186201, Note_on_c, 0, 92, 83
1, 186216, Note_off_c, 0, 98, 65
1, 186248, Note_off_c, 0, 80, 62
1, 186252, Note_off_c, 0, 92, 66
1, 186298, Note_on_c, 0, 92, 96
1, 186301, Note_on_c, 0, 86, 96
1, 186394, Note_off_c, 0, 92, 62
1, 186413, Note_on_c, 0, 95, 69
1, 186419, Note_on_c, 0, 104, 89
1, 186439, Note_off_c, 0, 95, 67
1, 186468, Note_off_c, 0, 104, 64
1, 186572, Note_on_c, 0, 98, 107
1, 186593, Note_off_c, 0, 86, 62
1, 186598, Note_off_c, 0, 98, 65
1, 186795, Control_c, 0, 64, 124
1, 186809, Control_c, 0, 64, 94
1, 186824, Control_c, 0, 64, 78
1, 186839, Control_c, 0, 64, 64
1, 186854, Control_c, 0, 64, 0
1, 187321, Control_c, 0, 64, 32
1, 187336, Control_c, 0, 64, 46
1, 187351, Control_c, 0, 64, 55
1, 187365, Control_c, 0, 64, 62
1, 187380, Control_c, 0, 64, 65
1, 187388, Note_on_c, 0, 59, 51
1, 187395, Control_c, 0, 64, 69
1, 187410, Control_c, 0, 64, 74
1, 187425, Control_c, 0, 64, 81
1, 187431, Note_on_c, 0, 77, 40
1, 187440, Control_c, 0, 64, 90
1, 187447, Note_off_c, 0, 59, 64
1, 187451, Note_on_c, 0, 65, 50
1, 187454, Control_c, 0, 64, 98
1, 187459, Note_on_c, 0, 68, 65
1, 187459, Note_off_c, 0, 77, 54
1, 187460, Note_on_c, 0, 83, 52
1, 187469, Control_c, 0, 64, 104
1, 187474, Note_on_c, 0, 86, 45
1, 187484, Note_off_c, 0, 83, 62
1, 187484, Control_c, 0, 64, 105
1, 187497, Note_on_c, 0, 92, 73
1, 187499, Note_off_c, 0, 86, 56
1, 187499, Control_c, 0, 64, 100
1, 187514, Control_c, 0, 64, 88
1, 187520, Note_on_c, 0, 74, 57
1, 187521, Note_off_c, 0, 65, 53
1, 187529, Control_c, 0, 64, 75
1, 187532, Note_off_c, 0, 68, 62
1, 187541, Note_off_c, 0, 92, 49
1, 187541, Note_off_c, 0, 74, 57
1, 187544, Control_c, 0, 64, 62
1, 187558, Control_c, 0, 64, 0
1, 187603, Control_c, 0, 64, 28
1, 187618, Control_c, 0, 64, 32
1, 187662, Control_c, 0, 64, 33
1, 187677, Control_c, 0, 64, 38
1, 187692, Control_c, 0, 64, 41
1, 187706, Control_c, 0, 64, 45
1, 187716, Note_on_c, 0, 78, 38
1, 187721, Control_c, 0, 64, 52
1, 187736, Control_c, 0, 64, 60
1, 187737, Note_on_c, 0, 57, 53
1, 187743, Note_off_c, 0, 78, 61
1, 187750, Control_c, 0, 64, 66
1, 187751, Note_on_c, 0, 66, 47
1, 187764, Note_off_c, 0, 57, 62
1, 187765, Control_c, 0, 64, 73
1, 187771, Note_on_c, 0, 87, 46
1, 187776, Note_on_c, 0, 63, 50
1, 187781, Control_c, 0, 64, 84
1, 187796, Control_c, 0, 64, 92
1, 187798, Note_off_c, 0, 87, 67
1, 187799, Note_on_c, 0, 93, 68
1, 187811, Control_c, 0, 64, 93
1, 187826, Control_c, 0, 64, 91
1, 187838, Note_off_c, 0, 66, 64
1, 187841, Control_c, 0, 64, 83
1, 187845, Note_off_c, 0, 63, 63
1, 187846, Note_off_c, 0, 93, 46
1, 187848, Note_on_c, 0, 72, 43
1, 187855, Control_c, 0, 64, 71
1, 187870, Control_c, 0, 64, 58
1, 187879, Note_off_c, 0, 72, 50
1, 187884, Control_c, 0, 64, 0
1, 187928, Note_on_c, 0, 79, 55
1, 187952, Note_off_c, 0, 79, 64
1, 187972, Note_on_c, 0, 85, 60
1, 187973, Control_c, 0, 64, 37
1, 187988, Control_c, 0, 64, 61
1, 187990, Note_on_c, 0, 55, 64
1, 187991, Note_on_c, 0, 88, 53
1, 188003, Control_c, 0, 64, 69
1, 188007, Note_on_c, 0, 64, 51
1, 188012, Note_off_c, 0, 55, 63
1, 188014, Note_on_c, 0, 94, 79
1, 188018, Control_c, 0, 64, 78
1, 188018, Note_off_c, 0, 85, 64
1, 188018, Note_off_c, 0, 88, 67
1, 188033, Control_c, 0, 64, 89
1, 188054, Control_c, 0, 64, 99
1, 188057, Note_on_c, 0, 60, 21
1, 188063, Note_off_c, 0, 64, 64
1, 188069, Control_c, 0, 64, 108
1, 188075, Note_on_c, 0, 70, 60
1, 188083, Note_off_c, 0, 94, 51
1, 188084, Control_c, 0, 64, 120
1, 188100, Note_off_c, 0, 70, 65
1, 188102, Note_off_c, 0, 60, 39
1, 188114, Control_c, 0, 64, 116
1, 188125, Note_on_c, 0, 80, 57
1, 188128, Control_c, 0, 64, 99
1, 188143, Control_c, 0, 64, 83
1, 188158, Control_c, 0, 64, 68
1, 188159, Note_off_c, 0, 80, 67
1, 188173, Control_c, 0, 64, 0
1, 188187, Note_on_c, 0, 86, 48
1, 188199, Note_on_c, 0, 54, 56
1, 188211, Note_on_c, 0, 53, 73
1, 188218, Control_c, 0, 64, 62
1, 188218, Note_off_c, 0, 86, 65
1, 188223, Note_on_c, 0, 95, 90
1, 188231, Note_off_c, 0, 54, 0
1, 188231, Note_on_c, 0, 54, 8
1, 188232, Control_c, 0, 64, 72
1, 188233, Note_on_c, 0, 59, 40
1, 188241, Note_off_c, 0, 53, 66
1, 188247, Control_c, 0, 64, 85
1, 188254, Note_on_c, 0, 92, 37
1, 188262, Control_c, 0, 64, 100
1, 188263, Note_off_c, 0, 59, 49
1, 188265, Note_off_c, 0, 54, 55
1, 188274, Note_on_c, 0, 68, 74
1, 188274, Note_off_c, 0, 95, 55
1, 188277, Control_c, 0, 64, 127
1, 188281, Note_off_c, 0, 92, 50
1, 188304, Note_off_c, 0, 68, 66
1, 188317, Note_on_c, 0, 81, 67
1, 188340, Poly_aftertouch_c, 0, 62, 0
1, 188343, Note_off_c, 0, 81, 64
1, 188358, Note_on_c, 0, 87, 70
1, 188366, Control_c, 0, 64, 96
1, 188368, Note_on_c, 0, 90, 66
1, 188369, Note_on_c, 0, 56, 70
1, 188380, Control_c, 0, 64, 71
1, 188395, Control_c, 0, 64, 48
1, 188399, Note_on_c, 0, 51, 65
1, 188399, Note_on_c, 0, 96, 89
1, 188410, Note_off_c, 0, 87, 66
1, 188410, Control_c, 0, 64, 56
1, 188411, Note_off_c, 0, 90, 64
1, 188425, Control_c, 0, 64, 68
1, 188432, Note_off_c, 0, 51, 53
1, 188436, Note_off_c, 0, 96, 61
1, 188438, Note_off_c, 0, 56, 64
1, 188440, Control_c, 0, 64, 83
1, 188445, Poly_aftertouch_c, 0, 54, 127
1, 188454, Control_c, 0, 64, 110
1, 188469, Control_c, 0, 64, 127
1, 188474, Note_on_c, 0, 66, 66
1, 188476, Note_on_c, 0, 82, 70
1, 188490, Poly_aftertouch_c, 0, 54, 0
1, 188498, Note_off_c, 0, 66, 67
1, 188528, Note_off_c, 0, 82, 68
1, 188528, Control_c, 0, 64, 85
1, 188537, Note_on_c, 0, 88, 65
1, 188543, Control_c, 0, 64, 64
1, 188548, Note_on_c, 0, 91, 62
1, 188558, Control_c, 0, 64, 0
1, 188561, Note_on_c, 0, 49, 83
1, 188571, Note_off_c, 0, 88, 65
1, 188573, Note_on_c, 0, 97, 85
1, 188574, Control_c, 0, 64, 62
1, 188578, Note_off_c, 0, 91, 64
1, 188581, Note_on_c, 0, 54, 38
1, 188589, Control_c, 0, 64, 78
1, 188598, Note_on_c, 0, 55, 57
1, 188603, Control_c, 0, 64, 127
1, 188613, Note_off_c, 0, 54, 52
1, 188617, Note_off_c, 0, 97, 67
1, 188623, Note_off_c, 0, 49, 63
1, 188641, Note_off_c, 0, 55, 61
1, 188644, Note_on_c, 0, 83, 69
1, 188660, Note_on_c, 0, 64, 49
1, 188678, Control_c, 0, 64, 85
1, 188679, Poly_aftertouch_c, 0, 58, 127
1, 188682, Note_off_c, 0, 64, 58
1, 188691, Note_off_c, 0, 83, 69
1, 188693, Control_c, 0, 64, 65
1, 188705, Note_on_c, 0, 89, 58
1, 188708, Control_c, 0, 64, 0
1, 188709, Poly_aftertouch_c, 0, 58, 0
1, 188714, Note_on_c, 0, 92, 73
1, 188733, Note_off_c, 0, 89, 68
1, 188733, Note_on_c, 0, 47, 80
1, 188737, Control_c, 0, 64, 64
1, 188741, Note_on_c, 0, 98, 87
1, 188751, Note_off_c, 0, 92, 65
1, 188752, Control_c, 0, 64, 83
1, 188767, Control_c, 0, 64, 127
1, 188770, Note_on_c, 0, 53, 52
1, 188772, Note_off_c, 0, 47, 59
1, 188776, Note_on_c, 0, 56, 69
1, 188787, Note_off_c, 0, 98, 66
1, 188805, Note_off_c, 0, 53, 60
1, 188828, Note_on_c, 0, 84, 69
1, 188845, Note_on_c, 0, 62, 64
1, 188847, Note_off_c, 0, 56, 61
1, 188849, Poly_aftertouch_c, 0, 52, 0
1, 188858, Note_off_c, 0, 84, 66
1, 188864, Control_c, 0, 64, 91
1, 188867, Note_on_c, 0, 90, 73
1, 188873, Note_off_c, 0, 62, 63
1, 188878, Control_c, 0, 64, 63
1, 188888, Note_on_c, 0, 93, 46
1, 188893, Control_c, 0, 64, 0
1, 188908, Control_c, 0, 64, 49
1, 188910, Note_on_c, 0, 99, 93
1, 188918, Note_off_c, 0, 90, 66
1, 188918, Note_off_c, 0, 93, 65
1, 188918, Note_on_c, 0, 45, 92
1, 188923, Control_c, 0, 64, 81
1, 188935, Note_on_c, 0, 51, 69
1, 188938, Control_c, 0, 64, 127
1, 188954, Note_on_c, 0, 54, 65
1, 188963, Note_off_c, 0, 45, 63
1, 188969, Note_off_c, 0, 99, 66
1, 189002, Note_on_c, 0, 85, 73
1, 189009, Note_off_c, 0, 51, 64
1, 189011, Note_on_c, 0, 60, 69
1, 189012, Control_c, 0, 64, 119
1, 189022, Note_off_c, 0, 54, 61
1, 189027, Control_c, 0, 64, 76
1, 189040, Note_off_c, 0, 60, 67
1, 189042, Control_c, 0, 64, 0
1, 189043, Note_on_c, 0, 91, 65
1, 189047, Note_off_c, 0, 85, 66
1, 189068, Note_on_c, 0, 94, 85
1, 189072, Control_c, 0, 64, 53
1, 189079, Note_off_c, 0, 91, 67
1, 189086, Control_c, 0, 64, 88
1, 189088, Note_on_c, 0, 100, 92
1, 189092, Note_on_c, 0, 43, 82
1, 189093, Note_on_c, 0, 98, 77
1, 189098, Note_off_c, 0, 94, 61
1, 189101, Note_on_c, 0, 51, 44
1, 189101, Control_c, 0, 64, 127
1, 189106, Note_on_c, 0, 49, 51
1, 189136, Note_on_c, 0, 52, 55
1, 189144, Note_off_c, 0, 100, 64
1, 189146, Note_off_c, 0, 43, 61
1, 189164, Note_off_c, 0, 98, 63
1, 189190, Control_c, 0, 64, 93
1, 189192, Note_on_c, 0, 58, 77
1, 189193, Note_on_c, 0, 86, 73
1, 189201, Note_off_c, 0, 52, 60
1, 189204, Control_c, 0, 64, 58
1, 189205, Note_on_c, 0, 94, 59
1, 189207, Poly_aftertouch_c, 0, 46, 0
1, 189215, Note_off_c, 0, 86, 71
1, 189219, Note_off_c, 0, 51, 46
1, 189219, Control_c, 0, 64, 0
1, 189221, Note_off_c, 0, 58, 67
1, 189226, Note_off_c, 0, 49, 62
1, 189230, Note_on_c, 0, 91, 54
1, 189234, Note_on_c, 0, 95, 84
1, 189234, Note_off_c, 0, 94, 67
1, 189234, Control_c, 0, 64, 24
1, 189249, Control_c, 0, 64, 107
1, 189254, Note_off_c, 0, 91, 57
1, 189254, Note_off_c, 0, 95, 72
1, 189255, Note_on_c, 0, 101, 107
1, 189261, Note_on_c, 0, 41, 88
1, 189264, Control_c, 0, 64, 127
1, 189267, Note_on_c, 0, 100, 74
1, 189277, Note_on_c, 0, 43, 59
1, 189283, Note_on_c, 0, 50, 57
1, 189284, Note_on_c, 0, 47, 59
1, 189285, Note_off_c, 0, 100, 40
1, 189288, Note_off_c, 0, 101, 66
1, 189309, Note_off_c, 0, 43, 48
1, 189323, Note_off_c, 0, 41, 65
1, 189353, Note_on_c, 0, 56, 71
1, 189354, Note_off_c, 0, 47, 62
1, 189364, Note_off_c, 0, 50, 64
1, 189373, Note_off_c, 0, 56, 65
1, 189383, Poly_aftertouch_c, 0, 48, 0
1, 189473, Control_c, 0, 64, 106
1, 189487, Control_c, 0, 64, 82
1, 189502, Control_c, 0, 64, 63
1, 189517, Control_c, 0, 64, 0
1, 190190, Note_on_c, 0, 37, 61
1, 190191, Note_on_c, 0, 49, 117
1, 190191, Control_c, 0, 64, 95
1, 190206, Control_c, 0, 64, 127
1, 190218, Note_off_c, 0, 37, 63
1, 190221, Control_c, 0, 67, 8
1, 190224, Note_off_c, 0, 49, 66
1, 190236, Control_c, 0, 67, 23
1, 190245, Note_on_c, 0, 40, 18
1, 190251, Control_c, 0, 67, 55
1, 190265, Control_c, 0, 67, 104
1, 190280, Control_c, 0, 67, 127
1, 190289, Note_off_c, 0, 40, 51
1, 190317, Control_c, 0, 64, 121
1, 190332, Control_c, 0, 64, 92
1, 190347, Control_c, 0, 64, 73
1, 190362, Control_c, 0, 64, 0
1, 190376, Note_on_c, 0, 31, 59
1, 190377, Note_on_c, 0, 28, 66
1, 190377, Note_on_c, 0, 40, 77
1, 190412, Note_off_c, 0, 31, 63
1, 190423, Note_off_c, 0, 28, 61
1, 190439, Note_off_c, 0, 40, 58
1, 190476, Note_on_c, 0, 49, 68
1, 190485, Note_on_c, 0, 61, 70
1, 190513, Note_off_c, 0, 61, 67
1, 190515, Note_off_c, 0, 49, 63
1, 190550, Note_on_c, 0, 48, 57
1, 190554, Note_on_c, 0, 60, 59
1, 190602, Note_off_c, 0, 48, 62
1, 190602, Note_off_c, 0, 60, 59
1, 190647, Note_on_c, 0, 41, 79
1, 190652, Note_on_c, 0, 29, 64
1, 190686, Note_off_c, 0, 29, 55
1, 190692, Note_off_c, 0, 41, 56
1, 190714, Note_on_c, 0, 47, 68
1, 190719, Note_on_c, 0, 59, 67
1, 190742, Poly_aftertouch_c, 0, 32, 0
1, 190746, Note_off_c, 0, 47, 65
1, 190747, Note_off_c, 0, 59, 67
1, 190798, Note_on_c, 0, 48, 75
1, 190802, Note_on_c, 0, 60, 74
1, 190828, Note_off_c, 0, 48, 65
1, 190834, Note_off_c, 0, 60, 59
1, 190894, Note_on_c, 0, 43, 76
1, 190906, Note_on_c, 0, 34, 54
1, 190915, Note_on_c, 0, 31, 46
1, 190920, Note_off_c, 0, 43, 65
1, 190942, Note_off_c, 0, 34, 62
1, 190951, Note_off_c, 0, 31, 63
1, 190969, Note_on_c, 0, 49, 72
1, 190981, Note_on_c, 0, 61, 65
1, 191002, Note_off_c, 0, 49, 65
1, 191019, Note_off_c, 0, 61, 61
1, 191082, Note_on_c, 0, 60, 59
1, 191105, Note_on_c, 0, 48, 29
1, 191118, Note_off_c, 0, 60, 63
1, 191136, Note_off_c, 0, 48, 44
1, 191153, Note_on_c, 0, 31, 37
1, 191154, Note_on_c, 0, 28, 70
1, 191157, Note_on_c, 0, 40, 77
1, 191193, Note_off_c, 0, 31, 63
1, 191198, Note_off_c, 0, 28, 62
1, 191204, Note_off_c, 0, 40, 62
1, 191234, Note_on_c, 0, 59, 60
1, 191235, Note_on_c, 0, 47, 63
1, 191258, Note_off_c, 0, 47, 60
1, 191263, Note_off_c, 0, 59, 65
1, 191317, Note_on_c, 0, 60, 75
1, 191321, Note_on_c, 0, 48, 72
1, 191347, Note_off_c, 0, 60, 61
1, 191349, Note_off_c, 0, 48, 65
1, 191399, Note_on_c, 0, 41, 95
1, 191404, Note_on_c, 0, 29, 88
1, 191435, Note_off_c, 0, 41, 66
1, 191440, Note_off_c, 0, 29, 66
1, 191467, Note_on_c, 0, 49, 75
1, 191473, Note_on_c, 0, 61, 71
1, 191499, Note_off_c, 0, 49, 65
1, 191503, Note_off_c, 0, 61, 63
1, 191559, Note_on_c, 0, 48, 72
1, 191562, Note_on_c, 0, 60, 73
1, 191585, Note_off_c, 0, 48, 64
1, 191619, Note_off_c, 0, 60, 60
1, 191656, Note_on_c, 0, 44, 77
1, 191662, Note_on_c, 0, 32, 68
1, 191684, Note_on_c, 0, 36, 29
1, 191715, Note_off_c, 0, 36, 45
1, 191717, Note_on_c, 0, 55, 73
1, 191718, Note_on_c, 0, 67, 78
1, 191718, Note_off_c, 0, 32, 61
1, 191729, Note_off_c, 0, 44, 60
1, 191741, Note_off_c, 0, 67, 70
1, 191744, Note_off_c, 0, 55, 66
1, 191810, Note_on_c, 0, 53, 72
1, 191813, Note_on_c, 0, 65, 75
1, 191837, Note_off_c, 0, 53, 65
1, 191847, Note_off_c, 0, 65, 63
1, 191906, Note_on_c, 0, 43, 70
1, 191910, Note_on_c, 0, 34, 66
1, 191915, Note_on_c, 0, 41, 57
1, 191941, Note_off_c, 0, 43, 61
1, 191950, Note_off_c, 0, 41, 62
1, 191964, Note_off_c, 0, 34, 57
1, 191979, Note_on_c, 0, 51, 73
1, 191979, Note_on_c, 0, 63, 72
1, 192006, Note_off_c, 0, 63, 67
1, 192006, Note_off_c, 0, 51, 68
1, 192079, Note_on_c, 0, 61, 73
1, 192084, Note_on_c, 0, 49, 64
1, 192114, Note_off_c, 0, 49, 65
1, 192121, Note_off_c, 0, 61, 53
1, 192149, Note_on_c, 0, 41, 76
1, 192154, Note_on_c, 0, 37, 67
1, 192182, Note_off_c, 0, 41, 65
1, 192196, Note_off_c, 0, 37, 64
1, 192231, Note_on_c, 0, 48, 76
1, 192233, Note_on_c, 0, 60, 75
1, 192257, Note_off_c, 0, 60, 69
1, 192259, Note_off_c, 0, 48, 65
1, 192334, Note_on_c, 0, 58, 71
1, 192338, Note_on_c, 0, 47, 64
1, 192366, Note_off_c, 0, 58, 62
1, 192367, Note_off_c, 0, 47, 62
1, 192405, Note_on_c, 0, 41, 79
1, 192424, Note_on_c, 0, 36, 35
1, 192438, Note_off_c, 0, 41, 66
1, 192442, Note_on_c, 0, 38, 32
1, 192461, Note_off_c, 0, 36, 44
1, 192469, Note_on_c, 0, 46, 78
1, 192472, Note_on_c, 0, 58, 66
1, 192482, Note_off_c, 0, 38, 45
1, 192498, Note_off_c, 0, 46, 66
1, 192501, Note_off_c, 0, 58, 67
1, 192581, Note_on_c, 0, 44, 67
1, 192585, Note_on_c, 0, 56, 65
1, 192611, Note_off_c, 0, 44, 64
1, 192619, Note_off_c, 0, 56, 65
1, 192659, Note_on_c, 0, 44, 74
1, 192676, Note_on_c, 0, 36, 52
1, 192695, Note_off_c, 0, 44, 60
1, 192711, Note_off_c, 0, 36, 56
1, 192728, Note_on_c, 0, 49, 71
1, 192736, Note_on_c, 0, 61, 66
1, 192757, Note_off_c, 0, 49, 64
1, 192765, Note_off_c, 0, 61, 68
1, 192816, Note_on_c, 0, 60, 65
1, 192831, Note_on_c, 0, 48, 55
1, 192847, Note_off_c, 0, 60, 63
1, 192862, Note_off_c, 0, 48, 63
1, 192902, Note_on_c, 0, 36, 69
1, 192920, Note_on_c, 0, 40, 49
1, 192939, Note_off_c, 0, 36, 65
1, 192951, Note_off_c, 0, 40, 54
1, 192977, Note_on_c, 0, 44, 66
1, 192978, Note_on_c, 0, 56, 67
1, 193014, Note_off_c, 0, 44, 63
1, 193014, Note_off_c, 0, 56, 63
1, 193063, Note_on_c, 0, 43, 57
1, 193068, Note_on_c, 0, 55, 62
1, 193089, Note_off_c, 0, 43, 61
1, 193110, Note_off_c, 0, 55, 64
1, 193140, Note_on_c, 0, 46, 85
1, 193143, Note_on_c, 0, 36, 73
1, 193153, Note_on_c, 0, 40, 44
1, 193174, Note_off_c, 0, 36, 60
1, 193186, Note_off_c, 0, 40, 63
1, 193203, Note_off_c, 0, 46, 62
1, 193211, Note_on_c, 0, 49, 76
1, 193219, Note_on_c, 0, 61, 71
1, 193256, Note_off_c, 0, 49, 61
1, 193270, Note_off_c, 0, 61, 62
1, 193298, Note_on_c, 0, 60, 72
1, 193302, Note_on_c, 0, 48, 72
1, 193327, Note_off_c, 0, 48, 66
1, 193366, Note_off_c, 0, 60, 63
1, 193407, Note_on_c, 0, 52, 94
1, 193413, Note_on_c, 0, 40, 74
1, 193414, Note_on_c, 0, 43, 70
1, 193452, Note_off_c, 0, 43, 62
1, 193467, Note_off_c, 0, 52, 57
1, 193474, Note_on_c, 0, 61, 85
1, 193477, Note_off_c, 0, 40, 63
1, 193479, Note_on_c, 0, 73, 82
1, 193516, Note_off_c, 0, 73, 62
1, 193518, Note_off_c, 0, 61, 61
1, 193564, Note_on_c, 0, 72, 83
1, 193566, Note_on_c, 0, 60, 72
1, 193592, Note_off_c, 0, 60, 66
1, 193602, Note_off_c, 0, 72, 59
1, 193660, Note_on_c, 0, 53, 85
1, 193665, Note_on_c, 0, 41, 69
1, 193677, Note_on_c, 0, 44, 54
1, 193708, Note_off_c, 0, 41, 58
1, 193710, Note_off_c, 0, 44, 64
1, 193712, Note_off_c, 0, 53, 58
1, 193746, Note_on_c, 0, 71, 71
1, 193748, Note_on_c, 0, 59, 65
1, 193767, Note_off_c, 0, 59, 64
1, 193771, Note_off_c, 0, 71, 69
1, 193828, Note_on_c, 0, 72, 86
1, 193831, Note_on_c, 0, 60, 73
1, 193856, Note_off_c, 0, 60, 69
1, 193861, Note_off_c, 0, 72, 64
1, 193917, Note_on_c, 0, 55, 81
1, 193922, Note_on_c, 0, 43, 68
1, 193923, Note_on_c, 0, 46, 65
1, 193943, Note_off_c, 0, 55, 67
1, 193966, Note_off_c, 0, 46, 63
1, 193973, Note_off_c, 0, 43, 62
1, 193992, Note_on_c, 0, 61, 78
1, 193997, Note_on_c, 0, 73, 75
1, 194024, Control_c, 0, 67, 108
1, 194031, Note_off_c, 0, 73, 63
1, 194032, Note_off_c, 0, 61, 56
1, 194039, Control_c, 0, 67, 70
1, 194060, Control_c, 0, 67, 35
1, 194075, Control_c, 0, 67, 0
1, 194098, Note_on_c, 0, 72, 76
1, 194100, Note_on_c, 0, 60, 61
1, 194123, Note_off_c, 0, 60, 61
1, 194127, Note_off_c, 0, 72, 64
1, 194176, Note_on_c, 0, 52, 82
1, 194181, Note_on_c, 0, 40, 68
1, 194185, Note_on_c, 0, 43, 58
1, 194217, Note_off_c, 0, 43, 63
1, 194218, Note_off_c, 0, 52, 57
1, 194221, Note_off_c, 0, 40, 62
1, 194245, Note_on_c, 0, 59, 58
1, 194251, Note_on_c, 0, 71, 56
1, 194265, Note_off_c, 0, 59, 60
1, 194270, Note_off_c, 0, 71, 60
1, 194323, Note_on_c, 0, 60, 76
1, 194325, Note_on_c, 0, 72, 85
1, 194349, Note_off_c, 0, 60, 67
1, 194351, Note_off_c, 0, 72, 64
1, 194365, Note_on_c, 0, 62, 26
1, 194400, Note_off_c, 0, 62, 32
1, 194414, Note_on_c, 0, 53, 93
1, 194415, Note_on_c, 0, 41, 83
1, 194429, Note_on_c, 0, 44, 68
1, 194454, Note_off_c, 0, 41, 65
1, 194458, Note_off_c, 0, 44, 64
1, 194460, Note_off_c, 0, 53, 61
1, 194467, Note_on_c, 0, 61, 80
1, 194478, Note_on_c, 0, 73, 71
1, 194501, Note_off_c, 0, 61, 59
1, 194504, Note_off_c, 0, 73, 68
1, 194569, Note_on_c, 0, 72, 77
1, 194573, Note_on_c, 0, 60, 68
1, 194591, Note_off_c, 0, 60, 62
1, 194629, Note_off_c, 0, 72, 64
1, 194671, Note_on_c, 0, 56, 81
1, 194674, Note_on_c, 0, 44, 75
1, 194688, Note_on_c, 0, 48, 47
1, 194720, Note_off_c, 0, 48, 63
1, 194735, Note_off_c, 0, 44, 62
1, 194735, Note_off_c, 0, 56, 61
1, 194746, Note_on_c, 0, 82, 67
1, 194748, Note_on_c, 0, 70, 71
1, 194761, Note_off_c, 0, 82, 69
1, 194774, Note_off_c, 0, 70, 68
1, 194826, Note_on_c, 0, 80, 78
1, 194856, Note_off_c, 0, 80, 62
1, 194928, Note_on_c, 0, 55, 80
1, 194929, Note_on_c, 0, 46, 76
1, 194959, Note_off_c, 0, 55, 64
1, 194967, Note_on_c, 0, 53, 19
1, 194968, Note_off_c, 0, 53, 127
1, 194985, Note_off_c, 0, 46, 60
1, 194997, Note_on_c, 0, 67, 71
1, 194997, Note_on_c, 0, 79, 74
1, 195019, Note_off_c, 0, 79, 67
1, 195023, Note_off_c, 0, 67, 66
1, 195074, Note_on_c, 0, 65, 70
1, 195091, Note_on_c, 0, 79, 34
1, 195104, Note_off_c, 0, 65, 68
1, 195122, Note_off_c, 0, 79, 44
1, 195158, Poly_aftertouch_c, 0, 77, 0
1, 195163, Note_on_c, 0, 49, 69
1, 195166, Note_on_c, 0, 53, 71
1, 195199, Note_off_c, 0, 53, 64
1, 195205, Note_off_c, 0, 49, 61
1, 195225, Note_on_c, 0, 75, 50
1, 195232, Note_off_c, 0, 75, 46
1, 195232, Note_on_c, 0, 64, 40
1, 195261, Note_off_c, 0, 64, 36
1, 195306, Note_on_c, 0, 73, 72
1, 195315, Note_on_c, 0, 61, 61
1, 195333, Note_off_c, 0, 73, 66
1, 195338, Note_off_c, 0, 61, 63
1, 195403, Note_on_c, 0, 48, 73
1, 195403, Note_on_c, 0, 56, 75
1, 195423, Note_off_c, 0, 56, 68
1, 195425, Note_on_c, 0, 53, 32
1, 195448, Control_c, 0, 64, 78
1, 195457, Note_off_c, 0, 48, 63
1, 195458, Note_on_c, 0, 61, 67
1, 195461, Note_off_c, 0, 53, 42
1, 195463, Control_c, 0, 64, 108
1, 195474, Note_on_c, 0, 73, 67
1, 195478, Control_c, 0, 64, 127
1, 195491, Note_off_c, 0, 61, 60
1, 195503, Note_off_c, 0, 73, 64
1, 195556, Note_on_c, 0, 72, 80
1, 195559, Note_on_c, 0, 60, 73
1, 195585, Note_off_c, 0, 60, 67
1, 195601, Note_off_c, 0, 72, 56
1, 195648, Control_c, 0, 64, 112
1, 195652, Note_on_c, 0, 36, 80
1, 195655, Note_on_c, 0, 48, 85
1, 195663, Control_c, 0, 64, 79
1, 195678, Control_c, 0, 64, 0
1, 195680, Note_off_c, 0, 36, 65
1, 195703, Note_off_c, 0, 48, 63
1, 195712, Note_on_c, 0, 59, 79
1, 195718, Note_on_c, 0, 71, 76
1, 195732, Note_off_c, 0, 59, 71
1, 195742, Note_off_c, 0, 71, 69
1, 195797, Note_on_c, 0, 60, 82
1, 195799, Note_on_c, 0, 72, 90
1, 195823, Note_off_c, 0, 60, 66
1, 195834, Note_off_c, 0, 72, 63
1, 195884, Note_on_c, 0, 58, 83
1, 195894, Note_on_c, 0, 48, 71
1, 195903, Note_on_c, 0, 52, 71
1, 195910, Note_off_c, 0, 58, 68
1, 195930, Control_c, 0, 64, 72
1, 195935, Note_off_c, 0, 52, 67
1, 195945, Control_c, 0, 64, 127
1, 195949, Note_on_c, 0, 61, 82
1, 195953, Note_off_c, 0, 48, 63
1, 195961, Note_on_c, 0, 73, 65
1, 195980, Note_off_c, 0, 61, 63
1, 195985, Note_off_c, 0, 73, 67
1, 196025, Note_on_c, 0, 72, 84
1, 196027, Note_on_c, 0, 60, 69
1, 196046, Note_off_c, 0, 60, 63
1, 196079, Note_off_c, 0, 72, 65
1, 196144, Note_on_c, 0, 36, 65
1, 196147, Note_on_c, 0, 48, 79
1, 196168, Note_off_c, 0, 36, 59
1, 196168, Note_on_c, 0, 73, 84
1, 196175, Note_on_c, 0, 85, 82
1, 196191, Note_off_c, 0, 48, 62
1, 196199, Note_off_c, 0, 85, 68
1, 196214, Note_off_c, 0, 73, 64
1, 196250, Note_on_c, 0, 72, 92
1, 196255, Control_c, 0, 64, 118
1, 196256, Note_on_c, 0, 84, 83
1, 196268, Note_off_c, 0, 72, 74
1, 196270, Control_c, 0, 64, 73
1, 196275, Note_on_c, 0, 41, 80
1, 196293, Control_c, 0, 64, 0
1, 196304, Note_on_c, 0, 48, 48
1, 196307, Note_off_c, 0, 84, 62
1, 196347, Note_on_c, 0, 45, 33
1, 196366, Control_c, 0, 64, 84
1, 196368, Note_off_c, 0, 41, 62
1, 196381, Control_c, 0, 64, 127
1, 196385, Note_off_c, 0, 45, 62
1, 196391, Note_on_c, 0, 56, 89
1, 196397, Note_on_c, 0, 97, 93
1, 196398, Note_on_c, 0, 85, 86
1, 196409, Note_off_c, 0, 48, 62
1, 196431, Note_off_c, 0, 85, 64
1, 196437, Note_off_c, 0, 97, 64
1, 196453, Note_off_c, 0, 56, 64
1, 196487, Note_on_c, 0, 84, 87
1, 196493, Note_on_c, 0, 96, 75
1, 196500, Note_on_c, 0, 95, 75
1, 196510, Note_off_c, 0, 84, 66
1, 196522, Note_off_c, 0, 96, 65
1, 196525, Note_off_c, 0, 95, 68
1, 196564, Note_on_c, 0, 44, 75
1, 196585, Note_on_c, 0, 53, 61
1, 196622, Note_on_c, 0, 50, 28
1, 196623, Note_off_c, 0, 44, 62
1, 196647, Note_on_c, 0, 82, 82
1, 196651, Note_on_c, 0, 94, 82
1, 196656, Note_on_c, 0, 60, 79
1, 196659, Note_off_c, 0, 50, 45
1, 196676, Note_off_c, 0, 94, 65
1, 196680, Note_off_c, 0, 82, 62
1, 196688, Note_off_c, 0, 60, 58
1, 196691, Note_off_c, 0, 53, 56
1, 196740, Note_on_c, 0, 92, 75
1, 196749, Note_on_c, 0, 80, 78
1, 196772, Note_off_c, 0, 80, 71
1, 196782, Note_on_c, 0, 46, 82
1, 196791, Note_off_c, 0, 92, 66
1, 196809, Note_on_c, 0, 53, 70
1, 196812, Control_c, 0, 64, 88
1, 196826, Control_c, 0, 64, 57
1, 196841, Control_c, 0, 64, 0
1, 196853, Note_off_c, 0, 46, 65
1, 196871, Control_c, 0, 64, 41
1, 196874, Note_on_c, 0, 61, 90
1, 196886, Note_off_c, 0, 53, 63
1, 196886, Control_c, 0, 64, 83
1, 196901, Control_c, 0, 64, 127
1, 196903, Note_on_c, 0, 91, 96
1, 196906, Note_on_c, 0, 79, 82
1, 196927, Note_off_c, 0, 79, 69
1, 196931, Note_off_c, 0, 91, 63
1, 196950, Note_off_c, 0, 61, 62
1, 196989, Note_on_c, 0, 89, 96
1, 196991, Note_on_c, 0, 77, 85
1, 197015, Note_off_c, 0, 77, 66
1, 197041, Note_off_c, 0, 89, 63
1, 197082, Poly_aftertouch_c, 0, 58, 127
1, 197098, Note_on_c, 0, 58, 15
1, 197105, Note_on_c, 0, 65, 85
1, 197110, Note_on_c, 0, 53, 76
1, 197127, Note_off_c, 0, 65, 71
1, 197153, Note_on_c, 0, 87, 89
1, 197153, Note_off_c, 0, 58, 64
1, 197157, Note_on_c, 0, 75, 82
1, 197170, Note_off_c, 0, 53, 62
1, 197180, Note_off_c, 0, 87, 59
1, 197188, Note_off_c, 0, 75, 62
1, 197250, Note_on_c, 0, 85, 83
1, 197255, Note_on_c, 0, 73, 75
1, 197283, Note_off_c, 0, 73, 62
1, 197304, Note_off_c, 0, 85, 63
1, 197308, Control_c, 0, 64, 111
1, 197322, Control_c, 0, 64, 77
1, 197337, Control_c, 0, 64, 0
1, 197350, Note_on_c, 0, 60, 89
1, 197356, Note_on_c, 0, 53, 81
1, 197360, Note_on_c, 0, 48, 69
1, 197368, Note_on_c, 0, 56, 68
1, 197369, Note_off_c, 0, 60, 72
1, 197383, Control_c, 0, 64, 59
1, 197387, Note_on_c, 0, 51, 36
1, 197394, Note_off_c, 0, 56, 67
1, 197398, Control_c, 0, 64, 89
1, 197401, Note_on_c, 0, 73, 79
1, 197405, Note_off_c, 0, 53, 62
1, 197406, Note_on_c, 0, 85, 84
1, 197412, Control_c, 0, 64, 127
1, 197423, Note_off_c, 0, 48, 63
1, 197429, Note_off_c, 0, 51, 51
1, 197437, Note_off_c, 0, 85, 60
1, 197444, Note_off_c, 0, 73, 60
1, 197488, Note_on_c, 0, 84, 87
1, 197491, Note_on_c, 0, 72, 96
1, 197518, Note_off_c, 0, 72, 67
1, 197536, Note_off_c, 0, 84, 64
1, 197538, Note_on_c, 0, 43, 21
1, 197579, Note_off_c, 0, 43, 51
1, 197582, Note_on_c, 0, 36, 76
1, 197593, Note_on_c, 0, 48, 86
1, 197619, Note_off_c, 0, 36, 65
1, 197638, Note_off_c, 0, 48, 65
1, 197644, Note_on_c, 0, 71, 69
1, 197646, Note_on_c, 0, 83, 76
1, 197661, Note_off_c, 0, 71, 68
1, 197668, Note_off_c, 0, 83, 71
1, 197724, Note_on_c, 0, 74, 67
1, 197725, Note_on_c, 0, 84, 78
1, 197731, Note_on_c, 0, 72, 43
1, 197741, Note_off_c, 0, 74, 66
1, 197747, Note_off_c, 0, 84, 70
1, 197754, Note_off_c, 0, 72, 60
1, 197798, Note_on_c, 0, 49, 48
1, 197814, Note_on_c, 0, 58, 86
1, 197836, Note_on_c, 0, 52, 64
1, 197840, Note_on_c, 0, 48, 70
1, 197861, Note_off_c, 0, 58, 63
1, 197861, Note_on_c, 0, 61, 89
1, 197864, Note_on_c, 0, 73, 89
1, 197870, Note_off_c, 0, 49, 62
1, 197875, Note_off_c, 0, 52, 65
1, 197888, Note_off_c, 0, 48, 60
1, 197908, Note_off_c, 0, 61, 60
1, 197914, Note_off_c, 0, 73, 64
1, 197949, Note_on_c, 0, 60, 87
1, 197949, Note_on_c, 0, 72, 91
1, 197985, Note_off_c, 0, 60, 57
1, 197993, Note_off_c, 0, 72, 63
1, 198043, Note_on_c, 0, 44, 3
1, 198080, Note_on_c, 0, 36, 80
1, 198083, Note_on_c, 0, 59, 92
1, 198083, Note_on_c, 0, 71, 91
1, 198084, Note_on_c, 0, 48, 84
1, 198085, Note_off_c, 0, 44, 49
1, 198106, Note_off_c, 0, 59, 67
1, 198113, Note_off_c, 0, 71, 62
1, 198115, Note_off_c, 0, 36, 63
1, 198128, Note_off_c, 0, 48, 57
1, 198175, Note_on_c, 0, 72, 101
1, 198194, Note_on_c, 0, 60, 43
1, 198206, Control_c, 0, 64, 102
1, 198213, Note_off_c, 0, 60, 64
1, 198216, Note_off_c, 0, 72, 62
1, 198221, Control_c, 0, 64, 68
1, 198235, Control_c, 0, 64, 0
1, 198242, Note_on_c, 0, 41, 78
1, 198252, Note_on_c, 0, 48, 57
1, 198280, Control_c, 0, 64, 41
1, 198295, Control_c, 0, 64, 76
1, 198309, Control_c, 0, 64, 127
1, 198313, Note_off_c, 0, 41, 64
1, 198338, Note_on_c, 0, 89, 99
1, 198339, Note_on_c, 0, 101, 98
1, 198348, Note_on_c, 0, 56, 87
1, 198353, Note_off_c, 0, 48, 63
1, 198368, Note_off_c, 0, 89, 65
1, 198368, Note_off_c, 0, 101, 62
1, 198425, Note_off_c, 0, 56, 62
1, 198436, Note_on_c, 0, 85, 97
1, 198436, Note_on_c, 0, 97, 100
1, 198472, Note_off_c, 0, 85, 64
1, 198485, Note_off_c, 0, 97, 65
1, 198505, Note_on_c, 0, 44, 79
1, 198544, Note_on_c, 0, 53, 65
1, 198564, Note_off_c, 0, 44, 62
1, 198591, Note_on_c, 0, 60, 86
1, 198603, Note_on_c, 0, 84, 96
1, 198605, Note_on_c, 0, 96, 98
1, 198620, Note_off_c, 0, 53, 43
1, 198621, Note_off_c, 0, 84, 71
1, 198622, Note_off_c, 0, 96, 74
1, 198636, Note_off_c, 0, 60, 54
1, 198695, Note_on_c, 0, 92, 100
1, 198695, Note_on_c, 0, 80, 96
1, 198715, Note_on_c, 0, 46, 88
1, 198728, Note_off_c, 0, 80, 62
1, 198737, Note_on_c, 0, 53, 68
1, 198737, Note_off_c, 0, 92, 65
1, 198760, Control_c, 0, 64, 106
1, 198774, Control_c, 0, 64, 71
1, 198789, Control_c, 0, 64, 0
1, 198791, Note_off_c, 0, 46, 65
1, 198810, Note_on_c, 0, 61, 100
1, 198819, Control_c, 0, 64, 38
1, 198822, Note_off_c, 0, 53, 62
1, 198833, Control_c, 0, 64, 81
1, 198848, Control_c, 0, 64, 127
1, 198856, Note_on_c, 0, 78, 87
1, 198859, Note_on_c, 0, 90, 89
1, 198873, Note_off_c, 0, 61, 65
1, 198882, Note_off_c, 0, 78, 61
1, 198885, Note_off_c, 0, 90, 62
1, 198935, Note_on_c, 0, 77, 90
1, 198935, Note_on_c, 0, 89, 99
1, 198976, Note_off_c, 0, 77, 64
1, 198977, Note_off_c, 0, 89, 67
1, 199013, Poly_aftertouch_c, 0, 58, 127
1, 199032, Note_on_c, 0, 58, 25
1, 199034, Note_on_c, 0, 65, 93
1, 199042, Note_on_c, 0, 53, 73
1, 199068, Note_off_c, 0, 65, 64
1, 199089, Note_off_c, 0, 58, 65
1, 199101, Note_on_c, 0, 85, 91
1, 199102, Note_on_c, 0, 73, 91
1, 199107, Note_off_c, 0, 53, 61
1, 199138, Note_off_c, 0, 73, 64
1, 199141, Note_off_c, 0, 85, 61
1, 199196, Note_on_c, 0, 70, 93
1, 199196, Note_on_c, 0, 82, 87
1, 199235, Note_off_c, 0, 70, 62
1, 199250, Note_off_c, 0, 82, 61
1, 199250, Control_c, 0, 64, 109
1, 199265, Control_c, 0, 64, 67
1, 199287, Control_c, 0, 64, 0
1, 199289, Note_on_c, 0, 60, 92
1, 199296, Note_on_c, 0, 48, 73
1, 199296, Note_on_c, 0, 53, 71
1, 199312, Note_on_c, 0, 56, 47
1, 199326, Note_off_c, 0, 60, 60
1, 199331, Control_c, 0, 64, 71
1, 199339, Note_off_c, 0, 56, 52
1, 199346, Control_c, 0, 64, 127
1, 199347, Note_off_c, 0, 53, 63
1, 199357, Note_on_c, 0, 73, 86
1, 199359, Note_on_c, 0, 85, 93
1, 199360, Note_off_c, 0, 48, 64
1, 199384, Note_off_c, 0, 85, 60
1, 199386, Note_off_c, 0, 73, 64
1, 199441, Note_on_c, 0, 84, 90
1, 199443, Note_on_c, 0, 72, 93
1, 199469, Note_off_c, 0, 72, 65
1, 199479, Note_off_c, 0, 84, 65
1, 199513, Note_on_c, 0, 36, 76
1, 199525, Note_on_c, 0, 48, 82
1, 199548, Note_off_c, 0, 36, 66
1, 199572, Note_off_c, 0, 48, 60
1, 199604, Note_on_c, 0, 68, 89
1, 199605, Note_on_c, 0, 80, 86
1, 199628, Note_off_c, 0, 68, 65
1, 199637, Note_off_c, 0, 80, 60
1, 199689, Note_on_c, 0, 48, 72
1, 199692, Note_on_c, 0, 65, 83
1, 199697, Note_on_c, 0, 77, 69
1, 199709, Note_on_c, 0, 50, 48
1, 199711, Note_on_c, 0, 79, 49
1, 199715, Note_off_c, 0, 65, 71
1, 199725, Note_off_c, 0, 77, 66
1, 199733, Note_off_c, 0, 79, 58
1, 199737, Note_on_c, 0, 58, 77
1, 199742, Note_off_c, 0, 48, 62
1, 199744, Note_off_c, 0, 50, 49
1, 199749, Note_on_c, 0, 53, 41
1, 199769, Note_off_c, 0, 53, 61
1, 199777, Note_on_c, 0, 57, 40
1, 199780, Note_on_c, 0, 64, 88
1, 199801, Note_off_c, 0, 64, 68
1, 199806, Note_off_c, 0, 57, 52
1, 199808, Note_off_c, 0, 58, 64
1, 199846, Note_on_c, 0, 61, 91
1, 199851, Note_on_c, 0, 73, 83
1, 199891, Note_off_c, 0, 61, 60
1, 199894, Note_off_c, 0, 73, 61
1, 199939, Note_on_c, 0, 60, 85
1, 199939, Note_on_c, 0, 72, 97
1, 199959, Note_off_c, 0, 60, 71
1, 199987, Note_off_c, 0, 72, 64
1, 200041, Note_on_c, 0, 48, 89
1, 200042, Note_on_c, 0, 36, 76
1, 200047, Note_on_c, 0, 46, 69
1, 200064, Note_on_c, 0, 40, 44
1, 200065, Note_on_c, 0, 38, 60
1, 200096, Note_off_c, 0, 36, 63
1, 200098, Note_off_c, 0, 40, 52
1, 200106, Note_off_c, 0, 38, 48
1, 200121, Note_off_c, 0, 46, 63
1, 200126, Note_on_c, 0, 68, 90
1, 200128, Note_on_c, 0, 80, 85
1, 200129, Note_off_c, 0, 48, 56
1, 200164, Note_off_c, 0, 80, 60
1, 200166, Note_off_c, 0, 68, 63
1, 200212, Note_on_c, 0, 67, 88
1, 200214, Note_on_c, 0, 79, 87
1, 200236, Note_off_c, 0, 79, 65
1, 200240, Note_off_c, 0, 67, 63
1, 200257, Control_c, 0, 64, 88
1, 200272, Control_c, 0, 64, 57
1, 200287, Control_c, 0, 64, 0
1, 200295, Note_on_c, 0, 41, 94
1, 200295, Note_on_c, 0, 53, 103
1, 200298, Note_on_c, 0, 44, 83
1, 200298, Note_on_c, 0, 77, 96
1, 200299, Note_on_c, 0, 48, 64
1, 200299, Note_on_c, 0, 65, 94
1, 200318, Note_off_c, 0, 65, 74
1, 200332, Control_c, 0, 64, 63
1, 200341, Note_off_c, 0, 48, 51
1, 200341, Note_off_c, 0, 77, 65
1, 200347, Control_c, 0, 64, 86
1, 200361, Note_off_c, 0, 41, 63
1, 200362, Control_c, 0, 64, 127
1, 200365, Note_off_c, 0, 44, 60
1, 200391, Note_off_c, 0, 53, 63
1, 200550, Note_on_c, 0, 89, 107
1, 200553, Note_on_c, 0, 77, 98
1, 200583, Note_off_c, 0, 77, 67
1, 200600, Note_off_c, 0, 89, 62
1, 200836, Note_on_c, 0, 65, 104
1, 200836, Note_on_c, 0, 53, 92
1, 200836, Note_on_c, 0, 89, 110
1, 200838, Note_on_c, 0, 101, 108
1, 200864, Note_off_c, 0, 89, 71
1, 200865, Note_off_c, 0, 101, 70
1, 200866, Note_off_c, 0, 65, 71
1, 200902, Note_off_c, 0, 53, 63
1, 201230, Note_on_c, 0, 41, 63
1, 201235, Note_on_c, 0, 65, 68
1, 201246, Note_on_c, 0, 53, 68
1, 201332, Note_off_c, 0, 53, 59
1, 201351, Note_off_c, 0, 65, 57
1, 201378, Control_c, 0, 64, 92
1, 201393, Control_c, 0, 64, 71
1, 201408, Control_c, 0, 64, 0
1, 201421, Note_on_c, 0, 65, 54
1, 201425, Note_on_c, 0, 35, 59
1, 201427, Note_on_c, 0, 53, 62
1, 201437, Note_on_c, 0, 47, 47
1, 201438, Control_c, 0, 64, 35
1, 201447, Note_on_c, 0, 62, 44
1, 201452, Control_c, 0, 64, 63
1, 201457, Note_on_c, 0, 59, 39
1, 201459, Note_off_c, 0, 41, 60
1, 201467, Control_c, 0, 64, 69
1, 201482, Control_c, 0, 64, 79
1, 201497, Control_c, 0, 64, 93
1, 201511, Control_c, 0, 64, 107
1, 201533, Control_c, 0, 64, 127
1, 201585, Note_off_c, 0, 35, 59
1, 201603, Note_off_c, 0, 65, 64
1, 201611, Note_off_c, 0, 53, 60
1, 201612, Note_off_c, 0, 47, 62
1, 201661, Note_off_c, 0, 59, 36
1, 201682, Note_on_c, 0, 65, 77
1, 201693, Note_on_c, 0, 53, 74
1, 201697, Note_off_c, 0, 62, 0
1, 201699, Note_on_c, 0, 48, 81
1, 201700, Note_on_c, 0, 36, 70
1, 201712, Note_on_c, 0, 62, 27
1, 201721, Note_on_c, 0, 59, 23
1, 201758, Note_off_c, 0, 36, 61
1, 201770, Note_off_c, 0, 48, 61
1, 201789, Note_off_c, 0, 65, 63
1, 201799, Note_off_c, 0, 53, 59
1, 201822, Note_off_c, 0, 59, 55
1, 201828, Note_off_c, 0, 62, 53
1, 201855, Note_on_c, 0, 65, 81
1, 201856, Note_on_c, 0, 53, 82
1, 201856, Note_on_c, 0, 49, 91
1, 201860, Note_on_c, 0, 37, 85
1, 201863, Poly_aftertouch_c, 0, 59, 0
1, 201873, Note_on_c, 0, 62, 27
1, 201874, Poly_aftertouch_c, 0, 43, 0
1, 201875, Note_on_c, 0, 59, 41
1, 201935, Note_off_c, 0, 49, 64
1, 201942, Note_off_c, 0, 37, 62
1, 201945, Note_off_c, 0, 65, 64
1, 201948, Note_off_c, 0, 53, 60
1, 201968, Note_off_c, 0, 59, 62
1, 201972, Note_off_c, 0, 62, 61
1, 202004, Note_on_c, 0, 65, 85
1, 202007, Note_on_c, 0, 53, 87
1, 202013, Note_on_c, 0, 62, 50
1, 202014, Note_on_c, 0, 38, 80
1, 202017, Note_on_c, 0, 50, 95
1, 202017, Note_on_c, 0, 59, 57
1, 202084, Note_off_c, 0, 38, 62
1, 202085, Note_off_c, 0, 50, 62
1, 202088, Note_on_c, 0, 45, 45
1, 202112, Note_off_c, 0, 53, 63
1, 202135, Note_off_c, 0, 59, 63
1, 202140, Note_off_c, 0, 45, 60
1, 202153, Note_off_c, 0, 62, 62
1, 202163, Note_off_c, 0, 65, 66
1, 202168, Note_on_c, 0, 39, 83
1, 202172, Note_on_c, 0, 51, 88
1, 202186, Note_on_c, 0, 49, 70
1, 202200, Note_on_c, 0, 38, 52
1, 202202, Note_off_c, 0, 49, 66
1, 202228, Note_off_c, 0, 38, 61
1, 202231, Note_off_c, 0, 51, 64
1, 202233, Note_off_c, 0, 39, 63
1, 202238, Poly_aftertouch_c, 0, 42, 127
1, 202288, Poly_aftertouch_c, 0, 42, 0
1, 202311, Note_on_c, 0, 52, 99
1, 202319, Note_on_c, 0, 40, 84
1, 202354, Note_off_c, 0, 40, 65
1, 202360, Note_off_c, 0, 52, 56
1, 202416, Control_c, 0, 64, 76
1, 202428, Note_on_c, 0, 53, 99
1, 202431, Control_c, 0, 64, 0
1, 202431, Note_on_c, 0, 41, 90
1, 202433, Note_on_c, 0, 77, 96
1, 202434, Note_on_c, 0, 65, 99
1, 202456, Note_off_c, 0, 65, 69
1, 202469, Note_on_c, 0, 42, 27
1, 202475, Control_c, 0, 64, 68
1, 202479, Note_off_c, 0, 77, 65
1, 202490, Control_c, 0, 64, 96
1, 202505, Control_c, 0, 64, 127
1, 202506, Note_off_c, 0, 41, 63
1, 202509, Note_off_c, 0, 42, 42
1, 202544, Note_off_c, 0, 53, 61
1, 202656, Note_on_c, 0, 89, 105
1, 202658, Note_on_c, 0, 77, 104
1, 202688, Note_off_c, 0, 77, 63
1, 202693, Note_off_c, 0, 89, 69
1, 202859, Note_on_c, 0, 53, 94
1, 202859, Note_on_c, 0, 65, 112
1, 202865, Note_on_c, 0, 89, 104
1, 202866, Note_on_c, 0, 101, 105
1, 202890, Note_off_c, 0, 65, 69
1, 202893, Note_off_c, 0, 101, 70
1, 202897, Note_off_c, 0, 89, 69
1, 202916, Note_off_c, 0, 53, 64
1, 203140, Note_on_c, 0, 41, 68
1, 203159, Note_on_c, 0, 65, 59
1, 203161, Note_on_c, 0, 53, 63
1, 203197, Note_off_c, 0, 53, 59
1, 203216, Note_off_c, 0, 65, 59
1, 203224, Control_c, 0, 64, 110
1, 203238, Control_c, 0, 64, 80
1, 203253, Control_c, 0, 64, 46
1, 203262, Note_on_c, 0, 34, 76
1, 203268, Note_on_c, 0, 46, 77
1, 203268, Control_c, 0, 64, 0
1, 203271, Note_on_c, 0, 65, 51
1, 203279, Note_off_c, 0, 41, 60
1, 203281, Note_on_c, 0, 53, 69
1, 203295, Note_on_c, 0, 61, 52
1, 203296, Note_on_c, 0, 58, 52
1, 203298, Control_c, 0, 64, 62
1, 203313, Control_c, 0, 64, 70
1, 203328, Control_c, 0, 64, 83
1, 203343, Control_c, 0, 64, 105
1, 203354, Note_off_c, 0, 53, 59
1, 203357, Control_c, 0, 64, 127
1, 203359, Note_off_c, 0, 65, 62
1, 203364, Note_off_c, 0, 58, 49
1, 203375, Note_off_c, 0, 61, 57
1, 203377, Note_off_c, 0, 46, 62
1, 203379, Note_off_c, 0, 34, 61
1, 203461, Note_on_c, 0, 53, 80
1, 203464, Note_on_c, 0, 35, 54
1, 203464, Note_on_c, 0, 65, 75
1, 203467, Note_on_c, 0, 47, 64
1, 203479, Note_on_c, 0, 58, 56
1, 203492, Note_off_c, 0, 53, 63
1, 203496, Note_off_c, 0, 47, 65
1, 203497, Note_off_c, 0, 35, 52
1, 203499, Note_off_c, 0, 65, 59
1, 203502, Note_on_c, 0, 61, 38
1, 203510, Note_off_c, 0, 58, 64
1, 203542, Note_off_c, 0, 61, 47
1, 203557, Note_on_c, 0, 48, 90
1, 203563, Note_on_c, 0, 53, 86
1, 203564, Note_on_c, 0, 65, 76
1, 203575, Note_on_c, 0, 36, 42
1, 203578, Note_on_c, 0, 44, 63
1, 203579, Note_on_c, 0, 61, 56
1, 203583, Note_off_c, 0, 48, 69
1, 203585, Note_on_c, 0, 58, 67
1, 203596, Note_off_c, 0, 65, 63
1, 203599, Note_off_c, 0, 53, 58
1, 203608, Note_off_c, 0, 58, 70
1, 203610, Note_off_c, 0, 44, 62
1, 203611, Note_off_c, 0, 36, 48
1, 203611, Note_off_c, 0, 61, 64
1, 203633, Poly_aftertouch_c, 0, 38, 127
1, 203651, Note_on_c, 0, 49, 94
1, 203657, Note_on_c, 0, 37, 87
1, 203663, Note_on_c, 0, 53, 92
1, 203663, Note_on_c, 0, 65, 91
1, 203667, Note_on_c, 0, 61, 78
1, 203668, Note_on_c, 0, 58, 78
1, 203675, Poly_aftertouch_c, 0, 38, 0
1, 203700, Note_off_c, 0, 49, 65
1, 203711, Note_off_c, 0, 37, 64
1, 203720, Note_off_c, 0, 53, 63
1, 203727, Note_off_c, 0, 58, 61
1, 203743, Note_off_c, 0, 61, 61
1, 203760, Note_on_c, 0, 50, 85
1, 203766, Note_off_c, 0, 65, 65
1, 203771, Note_on_c, 0, 38, 75
1, 203798, Note_on_c, 0, 45, 26
1, 203805, Note_off_c, 0, 38, 65
1, 203813, Note_off_c, 0, 50, 64
1, 203843, Note_off_c, 0, 45, 50
1, 203870, Note_on_c, 0, 51, 91
1, 203870, Note_on_c, 0, 39, 85
1, 203930, Note_off_c, 0, 39, 63
1, 203930, Note_off_c, 0, 51, 66
1, 203973, Note_on_c, 0, 52, 70
1, 203983, Note_on_c, 0, 40, 56
1, 204020, Note_off_c, 0, 40, 61
1, 204025, Note_off_c, 0, 52, 63
1, 204067, Poly_aftertouch_c, 0, 41, 0
1, 204076, Control_c, 0, 64, 91
1, 204081, Note_on_c, 0, 41, 34
1, 204083, Note_on_c, 0, 53, 105
1, 204091, Note_on_c, 0, 65, 96
1, 204091, Control_c, 0, 64, 64
1, 204093, Note_on_c, 0, 77, 94
1, 204106, Control_c, 0, 64, 0
1, 204112, Note_off_c, 0, 65, 71
1, 204136, Control_c, 0, 64, 54
1, 204138, Note_off_c, 0, 77, 64
1, 204150, Control_c, 0, 64, 81
1, 204165, Control_c, 0, 64, 127
1, 204199, Note_off_c, 0, 41, 63
1, 204234, Note_off_c, 0, 53, 61
1, 204344, Note_on_c, 0, 89, 107
1, 204347, Note_on_c, 0, 77, 98
1, 204368, Note_off_c, 0, 77, 67
1, 204389, Note_off_c, 0, 89, 64
1, 204620, Note_on_c, 0, 53, 92
1, 204621, Note_on_c, 0, 65, 103
1, 204624, Note_on_c, 0, 89, 111
1, 204624, Note_on_c, 0, 101, 115
1, 204649, Note_off_c, 0, 65, 71
1, 204652, Note_off_c, 0, 101, 70
1, 204652, Note_off_c, 0, 89, 70
1, 204675, Note_off_c, 0, 53, 65
1, 204899, Note_on_c, 0, 41, 81
1, 204908, Note_on_c, 0, 53, 81
1, 204931, Note_off_c, 0, 53, 67
1, 204943, Control_c, 0, 64, 80
1, 204958, Control_c, 0, 64, 0
1, 204966, Poly_aftertouch_c, 0, 63, 0
1, 204979, Note_on_c, 0, 33, 87
1, 204980, Note_on_c, 0, 45, 103
1, 204980, Note_on_c, 0, 53, 96
1, 204980, Note_on_c, 0, 65, 90
1, 204982, Note_on_c, 0, 60, 55
1, 204999, Note_off_c, 0, 41, 65
1, 205008, Note_off_c, 0, 53, 65
1, 205015, Note_off_c, 0, 60, 65
1, 205018, Control_c, 0, 64, 68
1, 205033, Control_c, 0, 64, 82
1, 205043, Note_off_c, 0, 65, 67
1, 205046, Note_off_c, 0, 33, 64
1, 205047, Control_c, 0, 64, 101
1, 205062, Control_c, 0, 64, 116
1, 205065, Note_off_c, 0, 45, 65
1, 205077, Control_c, 0, 64, 127
1, 205152, Note_on_c, 0, 65, 100
1, 205153, Note_on_c, 0, 77, 101
1, 205179, Note_off_c, 0, 65, 64
1, 205202, Note_off_c, 0, 77, 59
1, 205330, Note_on_c, 0, 89, 110
1, 205331, Note_on_c, 0, 77, 104
1, 205335, Note_on_c, 0, 53, 89
1, 205337, Note_on_c, 0, 65, 93
1, 205355, Note_off_c, 0, 65, 75
1, 205360, Note_off_c, 0, 77, 70
1, 205360, Note_off_c, 0, 89, 71
1, 205382, Note_off_c, 0, 53, 65
1, 205537, Note_on_c, 0, 45, 90
1, 205544, Poly_aftertouch_c, 0, 39, 127
1, 205549, Note_on_c, 0, 53, 92
1, 205551, Note_on_c, 0, 33, 59
1, 205559, Note_on_c, 0, 59, 62
1, 205581, Note_off_c, 0, 53, 61
1, 205582, Note_on_c, 0, 40, 53
1, 205582, Note_off_c, 0, 45, 62
1, 205584, Note_off_c, 0, 33, 61
1, 205586, Poly_aftertouch_c, 0, 39, 0
1, 205592, Note_off_c, 0, 59, 65
1, 205603, Control_c, 0, 64, 118
1, 205615, Note_off_c, 0, 40, 61
1, 205618, Control_c, 0, 64, 76
1, 205633, Control_c, 0, 64, 0
1, 205639, Note_on_c, 0, 65, 95
1, 205642, Note_on_c, 0, 53, 96
1, 205646, Note_on_c, 0, 44, 91
1, 205648, Note_on_c, 0, 32, 85
1, 205653, Note_on_c, 0, 60, 69
1, 205665, Note_on_c, 0, 59, 65
1, 205677, Control_c, 0, 64, 57
1, 205685, Note_off_c, 0, 59, 58
1, 205688, Note_off_c, 0, 53, 63
1, 205689, Note_off_c, 0, 60, 64
1, 205692, Control_c, 0, 64, 78
1, 205707, Control_c, 0, 64, 122
1, 205713, Note_off_c, 0, 65, 68
1, 205722, Control_c, 0, 64, 127
1, 205727, Note_off_c, 0, 32, 61
1, 205739, Poly_aftertouch_c, 0, 31, 127
1, 205745, Note_off_c, 0, 44, 62
1, 205764, Poly_aftertouch_c, 0, 31, 0
1, 205882, Note_on_c, 0, 77, 104
1, 205884, Note_on_c, 0, 65, 100
1, 205916, Note_off_c, 0, 65, 65
1, 205927, Note_off_c, 0, 77, 63
1, 206178, Note_on_c, 0, 77, 119
1, 206179, Note_on_c, 0, 89, 109
1, 206181, Note_on_c, 0, 53, 91
1, 206183, Note_on_c, 0, 65, 102
1, 206201, Note_on_c, 0, 79, 63
1, 206202, Note_off_c, 0, 79, 127
1, 206205, Note_off_c, 0, 77, 70
1, 206210, Note_off_c, 0, 65, 71
1, 206210, Note_off_c, 0, 89, 69
1, 206213, Note_on_c, 0, 87, 39
1, 206214, Note_off_c, 0, 87, 127
1, 206214, Note_on_c, 0, 90, 37
1, 206215, Note_off_c, 0, 90, 127
1, 206235, Note_off_c, 0, 53, 66
1, 206502, Note_on_c, 0, 32, 76
1, 206504, Note_on_c, 0, 44, 76
1, 206508, Note_on_c, 0, 53, 79
1, 206515, Note_on_c, 0, 65, 66
1, 206528, Note_off_c, 0, 53, 71
1, 206539, Note_off_c, 0, 32, 65
1, 206542, Note_off_c, 0, 44, 63
1, 206542, Note_off_c, 0, 65, 64
1, 206546, Control_c, 0, 64, 76
1, 206561, Control_c, 0, 64, 0
1, 206589, Note_on_c, 0, 65, 86
1, 206590, Control_c, 0, 64, 20
1, 206592, Note_on_c, 0, 31, 78
1, 206592, Note_on_c, 0, 43, 85
1, 206593, Note_on_c, 0, 53, 78
1, 206604, Control_c, 0, 64, 67
1, 206614, Note_on_c, 0, 58, 46
1, 206617, Note_off_c, 0, 53, 68
1, 206619, Control_c, 0, 64, 80
1, 206627, Note_on_c, 0, 32, 38
1, 206634, Control_c, 0, 64, 108
1, 206637, Note_off_c, 0, 65, 67
1, 206642, Note_off_c, 0, 58, 55
1, 206648, Control_c, 0, 64, 127
1, 206671, Note_off_c, 0, 32, 54
1, 206673, Note_off_c, 0, 31, 61
1, 206712, Note_off_c, 0, 43, 60
1, 206819, Control_c, 0, 64, 82
1, 206833, Control_c, 0, 64, 59
1, 206844, Note_on_c, 0, 65, 100
1, 206845, Note_on_c, 0, 77, 101
1, 206847, Note_on_c, 0, 42, 97
1, 206848, Control_c, 0, 64, 0
1, 206849, Note_on_c, 0, 30, 84
1, 206863, Control_c, 0, 64, 69
1, 206869, Note_off_c, 0, 65, 68
1, 206878, Control_c, 0, 64, 106
1, 206883, Note_off_c, 0, 77, 65
1, 206893, Control_c, 0, 64, 127
1, 206917, Note_off_c, 0, 30, 63
1, 206918, Note_off_c, 0, 42, 62
1, 206969, Note_on_c, 0, 37, 28
1, 206997, Control_c, 0, 64, 115
1, 207012, Control_c, 0, 64, 76
1, 207018, Note_off_c, 0, 37, 51
1, 207027, Control_c, 0, 64, 0
1, 207038, Note_on_c, 0, 41, 95
1, 207042, Note_on_c, 0, 29, 84
1, 207047, Note_on_c, 0, 77, 102
1, 207047, Note_on_c, 0, 89, 105
1, 207057, Control_c, 0, 64, 68
1, 207072, Control_c, 0, 64, 105
1, 207074, Note_off_c, 0, 29, 67
1, 207076, Note_on_c, 0, 32, 29
1, 207083, Note_off_c, 0, 77, 66
1, 207085, Note_on_c, 0, 31, 37
1, 207087, Note_off_c, 0, 89, 62
1, 207087, Control_c, 0, 64, 127
1, 207094, Note_off_c, 0, 41, 63
1, 207126, Note_off_c, 0, 32, 46
1, 207128, Note_off_c, 0, 31, 53
1, 207196, Note_on_c, 0, 44, 35
1, 207205, Control_c, 0, 64, 83
1, 207220, Control_c, 0, 64, 26
1, 207228, Note_off_c, 0, 44, 46
1, 207235, Control_c, 0, 64, 0
1, 207241, Note_on_c, 0, 48, 98
1, 207242, Note_on_c, 0, 91, 98
1, 207242, Note_on_c, 0, 79, 107
1, 207248, Note_on_c, 0, 36, 66
1, 207251, Note_on_c, 0, 38, 78
1, 207260, Note_on_c, 0, 40, 65
1, 207264, Control_c, 0, 64, 75
1, 207277, Note_off_c, 0, 36, 64
1, 207279, Control_c, 0, 64, 127
1, 207286, Note_on_c, 0, 89, 18
1, 207288, Note_off_c, 0, 38, 66
1, 207289, Note_off_c, 0, 40, 56
1, 207294, Note_off_c, 0, 79, 63
1, 207299, Note_off_c, 0, 91, 66
1, 207305, Note_off_c, 0, 48, 64
1, 207329, Note_off_c, 0, 89, 54
1, 207377, Note_on_c, 0, 49, 57
1, 207382, Control_c, 0, 64, 91
1, 207389, Note_on_c, 0, 87, 26
1, 207397, Control_c, 0, 64, 62
1, 207407, Note_off_c, 0, 87, 53
1, 207412, Control_c, 0, 64, 0
1, 207422, Note_on_c, 0, 53, 100
1, 207424, Note_on_c, 0, 80, 93
1, 207425, Note_on_c, 0, 92, 100
1, 207432, Note_on_c, 0, 41, 73
1, 207438, Note_on_c, 0, 43, 73
1, 207439, Note_on_c, 0, 45, 72
1, 207441, Note_on_c, 0, 78, 61
1, 207442, Note_off_c, 0, 78, 127
1, 207442, Control_c, 0, 64, 78
1, 207446, Note_off_c, 0, 49, 62
1, 207455, Note_on_c, 0, 48, 26
1, 207457, Control_c, 0, 64, 127
1, 207465, Note_off_c, 0, 80, 65
1, 207466, Note_off_c, 0, 53, 60
1, 207467, Note_off_c, 0, 92, 68
1, 207474, Note_off_c, 0, 43, 55
1, 207477, Note_off_c, 0, 45, 65
1, 207487, Note_off_c, 0, 41, 63
1, 207488, Note_off_c, 0, 48, 56
1, 207657, Control_c, 0, 64, 82
1, 207672, Control_c, 0, 64, 0
1, 207717, Control_c, 0, 64, 67
1, 207717, Note_on_c, 0, 46, 112
1, 207719, Note_on_c, 0, 85, 113
1, 207722, Note_on_c, 0, 97, 98
1, 207723, Note_on_c, 0, 34, 95
1, 207728, Note_on_c, 0, 37, 82
1, 207729, Note_on_c, 0, 94, 97
1, 207732, Control_c, 0, 64, 127
1, 207773, Note_off_c, 0, 85, 68
1, 207773, Note_off_c, 0, 97, 67
1, 207777, Note_off_c, 0, 94, 64
1, 207787, Note_off_c, 0, 37, 62
1, 207791, Note_on_c, 0, 90, 9
1, 207792, Note_off_c, 0, 90, 127
1, 207802, Note_off_c, 0, 34, 62
1, 207803, Note_off_c, 0, 46, 64
1, 208029, Control_c, 0, 64, 109
1, 208044, Control_c, 0, 64, 70
1, 208059, Control_c, 0, 64, 0
1, 208106, Note_on_c, 0, 48, 103
1, 208112, Note_on_c, 0, 84, 103
1, 208113, Note_on_c, 0, 36, 91
1, 208113, Note_on_c, 0, 96, 100
1, 208115, Note_on_c, 0, 40, 86
1, 208121, Note_on_c, 0, 91, 72
1, 208126, Note_on_c, 0, 43, 51
1, 208132, Control_c, 0, 64, 93
1, 208134, Note_on_c, 0, 93, 63
1, 208135, Note_on_c, 0, 92, 61
1, 208136, Note_off_c, 0, 91, 70
1, 208147, Control_c, 0, 64, 127
1, 208149, Note_off_c, 0, 84, 65
1, 208152, Note_off_c, 0, 48, 65
1, 208152, Note_off_c, 0, 93, 63
1, 208157, Note_off_c, 0, 43, 49
1, 208157, Note_off_c, 0, 92, 39
1, 208168, Note_off_c, 0, 40, 64
1, 208170, Note_off_c, 0, 96, 66
1, 208171, Note_off_c, 0, 36, 66
1, 208295, Note_on_c, 0, 37, 27
1, 208343, Note_off_c, 0, 37, 47
1, 208436, Control_c, 0, 64, 87
1, 208451, Control_c, 0, 64, 59
1, 208466, Control_c, 0, 64, 0
1, 208485, Note_on_c, 0, 89, 103
1, 208489, Note_on_c, 0, 41, 102
1, 208489, Note_on_c, 0, 101, 100
1, 208492, Note_on_c, 0, 92, 87
1, 208493, Note_on_c, 0, 36, 76
1, 208495, Note_on_c, 0, 29, 94
1, 208495, Control_c, 0, 64, 71
1, 208496, Note_on_c, 0, 32, 88
1, 208498, Note_on_c, 0, 96, 83
1, 208500, Note_on_c, 0, 97, 71
1, 208510, Control_c, 0, 64, 127
1, 208521, Note_off_c, 0, 96, 67
1, 208522, Note_on_c, 0, 98, 40
1, 208525, Note_off_c, 0, 97, 68
1, 208530, Note_off_c, 0, 101, 65
1, 208532, Note_off_c, 0, 89, 65
1, 208536, Note_off_c, 0, 36, 63
1, 208537, Note_off_c, 0, 92, 65
1, 208539, Note_off_c, 0, 29, 65
1, 208545, Note_off_c, 0, 41, 66
1, 208551, Note_off_c, 0, 98, 57
1, 208555, Note_off_c, 0, 32, 63
1, 209406, Note_on_c, 0, 77, 94
1, 209408, Note_on_c, 0, 65, 108
1, 209410, Note_on_c, 0, 60, 99
1, 209412, Note_on_c, 0, 56, 87
1, 209414, Note_on_c, 0, 72, 95
1, 209448, Note_on_c, 0, 75, 37
1, 209479, Note_off_c, 0, 75, 53
1, 211615, Note_off_c, 0, 60, 63
1, 211622, Note_off_c, 0, 65, 64
1, 211630, Note_off_c, 0, 56, 67
1, 211631, Note_off_c, 0, 72, 66
1, 211638, Note_off_c, 0, 77, 67
1, 211922, Control_c, 0, 64, 95
1, 211937, Control_c, 0, 64, 73
1, 211952, Control_c, 0, 64, 0
1, 211952, End_track
0, 0, End_of_file
