0, 0, Header, 0, 1, 384
1, 0, Start_track
1, 0, Title_t, "Valses nobles--Yun-Yi Qin          "
1, 0, Text_t, "2008 e-Piano Junior Competition virtual audition round"
1, 0, Text_t, "recorded January and February 2008"
1, 0, Text_t, "http://www.piano-e-competition.com/"
1, 0, Text_t, "File processed for distribution by software from Zenph Studios, Inc., http://www.zenph.com"
1, 0, Instrument_name_t, "Yamaha Disklavier Pro Mark IV concert grand piano, model DCFIIISM4PRO"
1, 0, Sequencer_specific, 39, 67, 113, 0, 1, 0, 1, 0, 86, 97, 108, 115, 101, 115, 32, 110, 111, 98, 108, 101, 115, 32, 32, 32, 89, 117, 110, 45, 89, 105, 32, 81, 105, 110, 32, 32, 32, 32, 32, 32
1, 0, Sequencer_specific, 6, 67, 113, 0, 0, 0, 69
1, 0, System_exclusive, 21, 67, 113, 126, 21, 0, 2, 2, 0, 13, 12, 15, 4, 7, 9, 7, 5, 6, 12, 11, 5, 247
1, 0, Sequencer_specific, 5, 67, 123, 12, 2, 1
1, 0, Tempo, 512820
1, 0, Time_signature, 4, 2, 24, 8
1, 0, System_exclusive, 5, 126, 127, 9, 1, 247
1, 1, System_exclusive, 8, 67, 16, 76, 0, 0, 126, 0, 247
1, 2, System_exclusive, 8, 67, 16, 76, 8, 9, 7, 1, 247
1, 3, Control_c, 0, 0, 0
1, 3, Control_c, 1, 0, 0
1, 3, Control_c, 2, 0, 0
1, 3, Control_c, 3, 0, 0
1, 3, Control_c, 4, 0, 0
1, 3, Control_c, 5, 0, 0
1, 3, Control_c, 6, 0, 0
1, 3, Control_c, 7, 0, 0
1, 3, Control_c, 8, 0, 0
1, 3, Control_c, 9, 0, 127
1, 3, Control_c, 10, 0, 0
1, 3, Control_c, 11, 0, 0
1, 3, Control_c, 12, 0, 0
1, 3, Control_c, 13, 0, 0
1, 3, Control_c, 14, 0, 0
1, 3, Control_c, 15, 0, 0
1, 4, Control_c, 0, 32, 0
1, 4, Control_c, 1, 32, 0
1, 4, Control_c, 2, 32, 0
1, 4, Control_c, 3, 32, 0
1, 4, Control_c, 4, 32, 0
1, 4, Control_c, 5, 32, 0
1, 4, Control_c, 6, 32, 0
1, 4, Control_c, 7, 32, 0
1, 4, Control_c, 8, 32, 0
1, 4, Control_c, 9, 32, 0
1, 4, Control_c, 10, 32, 0
1, 4, Control_c, 11, 32, 0
1, 4, Control_c, 12, 32, 0
1, 4, Control_c, 13, 32, 0
1, 4, Control_c, 14, 32, 0
1, 4, Control_c, 15, 32, 0
1, 5, Program_c, 0, 0
1, 5, Program_c, 1, 0
1, 5, Program_c, 2, 0
1, 5, Program_c, 3, 0
1, 5, Program_c, 4, 0
1, 5, Program_c, 5, 0
1, 5, Program_c, 6, 0
1, 5, Program_c, 7, 0
1, 5, Program_c, 8, 0
1, 5, Program_c, 9, 0
1, 5, Program_c, 10, 0
1, 5, Program_c, 11, 0
1, 5, Program_c, 12, 0
1, 5, Program_c, 13, 0
1, 5, Program_c, 14, 0
1, 5, Program_c, 15, 0
1, 6, Control_c, 0, 7, 100
1, 6, Control_c, 1, 7, 100
1, 6, Control_c, 2, 7, 100
1, 6, Control_c, 3, 7, 100
1, 6, Control_c, 4, 7, 100
1, 6, Control_c, 5, 7, 100
1, 6, Control_c, 6, 7, 100
1, 6, Control_c, 7, 7, 100
1, 6, Control_c, 8, 7, 100
1, 6, Control_c, 9, 7, 100
1, 6, Control_c, 10, 7, 100
1, 6, Control_c, 11, 7, 100
1, 6, Control_c, 12, 7, 100
1, 6, Control_c, 13, 7, 100
1, 6, Control_c, 14, 7, 100
1, 6, Control_c, 15, 7, 100
1, 1129, Note_on_c, 0, 43, 73
1, 1138, Note_on_c, 0, 71, 89
1, 1145, Note_on_c, 0, 60, 75
1, 1149, Note_on_c, 0, 62, 69
1, 1150, Note_on_c, 0, 55, 50
1, 1151, Note_on_c, 0, 50, 61
1, 1152, Note_on_c, 0, 65, 58
1, 1158, Note_on_c, 0, 57, 58
1, 1171, Note_off_c, 0, 60, 67
1, 1178, Note_off_c, 0, 62, 63
1, 1182, Note_off_c, 0, 43, 60
1, 1183, Note_off_c, 0, 65, 66
1, 1184, Note_off_c, 0, 57, 61
1, 1185, Note_off_c, 0, 55, 63
1, 1196, Note_off_c, 0, 71, 62
1, 1198, Note_off_c, 0, 50, 59
1, 1239, Note_on_c, 0, 71, 76
1, 1245, Note_on_c, 0, 43, 65
1, 1249, Note_on_c, 0, 65, 70
1, 1250, Note_on_c, 0, 50, 61
1, 1251, Note_on_c, 0, 60, 67
1, 1254, Note_on_c, 0, 55, 65
1, 1257, Note_on_c, 0, 62, 47
1, 1274, Note_off_c, 0, 43, 64
1, 1277, Note_off_c, 0, 55, 61
1, 1277, Note_off_c, 0, 60, 62
1, 1277, Note_off_c, 0, 65, 68
1, 1279, Note_on_c, 0, 57, 27
1, 1282, Note_off_c, 0, 62, 55
1, 1287, Note_off_c, 0, 71, 61
1, 1290, Note_off_c, 0, 50, 64
1, 1311, Note_off_c, 0, 57, 41
1, 1319, Note_on_c, 0, 71, 75
1, 1328, Control_c, 0, 64, 67
1, 1331, Note_on_c, 0, 43, 79
1, 1331, Note_on_c, 0, 65, 76
1, 1342, Control_c, 0, 64, 77
1, 1343, Note_on_c, 0, 55, 63
1, 1357, Control_c, 0, 64, 86
1, 1359, Note_off_c, 0, 65, 68
1, 1359, Note_on_c, 0, 62, 34
1, 1362, Note_on_c, 0, 50, 41
1, 1371, Note_off_c, 0, 43, 59
1, 1372, Control_c, 0, 64, 90
1, 1374, Note_off_c, 0, 55, 47
1, 1374, Note_off_c, 0, 71, 66
1, 1380, Note_on_c, 0, 57, 41
1, 1387, Control_c, 0, 64, 93
1, 1390, Note_off_c, 0, 62, 52
1, 1394, Note_off_c, 0, 50, 53
1, 1402, Control_c, 0, 64, 99
1, 1412, Note_off_c, 0, 57, 50
1, 1416, Control_c, 0, 64, 116
1, 1431, Control_c, 0, 64, 127
1, 1684, Note_on_c, 0, 78, 84
1, 1688, Note_on_c, 0, 62, 79
1, 1689, Note_on_c, 0, 66, 96
1, 1712, Note_off_c, 0, 66, 67
1, 1713, Note_off_c, 0, 62, 66
1, 1719, Note_off_c, 0, 78, 67
1, 1937, Note_on_c, 0, 43, 76
1, 1940, Note_on_c, 0, 55, 69
1, 1943, Control_c, 0, 64, 91
1, 1950, Note_on_c, 0, 59, 93
1, 1952, Note_on_c, 0, 69, 89
1, 1952, Note_on_c, 0, 50, 61
1, 1958, Note_on_c, 0, 64, 77
1, 1958, Control_c, 0, 64, 68
1, 1973, Control_c, 0, 64, 0
1, 1973, Note_off_c, 0, 55, 58
1, 1976, Note_off_c, 0, 43, 62
1, 1977, Note_on_c, 0, 57, 39
1, 1981, Note_off_c, 0, 57, 44
1, 1983, Note_off_c, 0, 64, 69
1, 1989, Note_off_c, 0, 50, 65
1, 1989, Note_off_c, 0, 59, 60
1, 2000, Note_off_c, 0, 69, 61
1, 2037, Note_on_c, 0, 59, 83
1, 2043, Note_on_c, 0, 69, 69
1, 2050, Note_on_c, 0, 55, 45
1, 2052, Note_on_c, 0, 43, 62
1, 2060, Note_on_c, 0, 50, 59
1, 2068, Note_off_c, 0, 59, 61
1, 2069, Note_on_c, 0, 64, 46
1, 2076, Note_off_c, 0, 69, 65
1, 2077, Note_on_c, 0, 57, 23
1, 2083, Note_off_c, 0, 43, 64
1, 2083, Note_off_c, 0, 55, 56
1, 2093, Note_off_c, 0, 64, 59
1, 2099, Note_off_c, 0, 50, 62
1, 2108, Note_off_c, 0, 57, 43
1, 2128, Note_on_c, 0, 69, 81
1, 2130, Note_on_c, 0, 59, 81
1, 2134, Note_on_c, 0, 43, 83
1, 2149, Note_off_c, 0, 59, 73
1, 2151, Control_c, 0, 64, 68
1, 2157, Note_on_c, 0, 55, 53
1, 2165, Control_c, 0, 64, 79
1, 2166, Note_off_c, 0, 43, 65
1, 2171, Note_on_c, 0, 50, 13
1, 2172, Note_off_c, 0, 69, 65
1, 2180, Control_c, 0, 64, 90
1, 2182, Note_off_c, 0, 55, 61
1, 2190, Note_on_c, 0, 57, 47
1, 2193, Note_on_c, 0, 64, 3
1, 2195, Control_c, 0, 64, 96
1, 2210, Control_c, 0, 64, 102
1, 2214, Note_off_c, 0, 50, 52
1, 2217, Note_off_c, 0, 57, 55
1, 2225, Control_c, 0, 64, 122
1, 2229, Note_off_c, 0, 64, 52
1, 2239, Control_c, 0, 64, 127
1, 2385, Note_on_c, 0, 88, 91
1, 2390, Note_on_c, 0, 62, 75
1, 2393, Note_on_c, 0, 73, 76
1, 2393, Note_on_c, 0, 76, 73
1, 2396, Note_on_c, 0, 74, 70
1, 2407, Note_on_c, 0, 81, 59
1, 2408, Note_off_c, 0, 76, 70
1, 2409, Note_off_c, 0, 73, 70
1, 2413, Note_on_c, 0, 86, 52
1, 2414, Note_off_c, 0, 86, 127
1, 2414, Note_off_c, 0, 74, 68
1, 2417, Note_on_c, 0, 85, 37
1, 2418, Note_off_c, 0, 85, 127
1, 2418, Note_on_c, 0, 69, 43
1, 2418, Note_off_c, 0, 88, 65
1, 2430, Note_off_c, 0, 81, 59
1, 2435, Note_off_c, 0, 62, 63
1, 2444, Note_off_c, 0, 69, 56
1, 2589, Control_c, 0, 64, 115
1, 2603, Control_c, 0, 64, 83
1, 2604, Note_on_c, 0, 50, 75
1, 2614, Note_on_c, 0, 43, 55
1, 2616, Note_on_c, 0, 60, 91
1, 2616, Note_on_c, 0, 71, 91
1, 2618, Control_c, 0, 64, 0
1, 2628, Note_on_c, 0, 65, 67
1, 2636, Note_off_c, 0, 43, 62
1, 2642, Note_off_c, 0, 60, 62
1, 2649, Note_on_c, 0, 45, 16
1, 2657, Note_off_c, 0, 65, 66
1, 2659, Note_on_c, 0, 53, 3
1, 2660, Note_off_c, 0, 53, 127
1, 2667, Note_off_c, 0, 71, 61
1, 2673, Note_off_c, 0, 50, 62
1, 2691, Note_off_c, 0, 45, 31
1, 2706, Note_on_c, 0, 71, 70
1, 2708, Note_on_c, 0, 60, 84
1, 2709, Note_on_c, 0, 43, 73
1, 2721, Note_on_c, 0, 65, 62
1, 2730, Note_on_c, 0, 50, 61
1, 2734, Note_off_c, 0, 60, 64
1, 2740, Note_off_c, 0, 65, 64
1, 2754, Note_off_c, 0, 71, 63
1, 2784, Note_off_c, 0, 43, 63
1, 2794, Note_on_c, 0, 71, 81
1, 2805, Note_on_c, 0, 60, 80
1, 2813, Note_on_c, 0, 57, 78
1, 2822, Note_off_c, 0, 50, 61
1, 2825, Control_c, 0, 64, 73
1, 2828, Note_off_c, 0, 60, 70
1, 2840, Control_c, 0, 64, 86
1, 2846, Note_off_c, 0, 71, 66
1, 2855, Control_c, 0, 64, 103
1, 2860, Note_off_c, 0, 57, 59
1, 2870, Control_c, 0, 64, 127
1, 3023, Note_on_c, 0, 62, 80
1, 3025, Note_on_c, 0, 66, 99
1, 3027, Note_on_c, 0, 78, 89
1, 3052, Note_off_c, 0, 66, 73
1, 3052, Note_off_c, 0, 78, 73
1, 3055, Note_off_c, 0, 62, 67
1, 3140, Note_on_c, 0, 51, 50
1, 3149, Poly_aftertouch_c, 0, 60, 0
1, 3189, Note_off_c, 0, 51, 61
1, 3231, Control_c, 0, 64, 108
1, 3246, Note_on_c, 0, 43, 78
1, 3246, Control_c, 0, 64, 81
1, 3256, Note_on_c, 0, 59, 88
1, 3256, Note_on_c, 0, 69, 88
1, 3257, Note_on_c, 0, 55, 64
1, 3259, Note_on_c, 0, 50, 65
1, 3261, Control_c, 0, 64, 31
1, 3263, Note_on_c, 0, 57, 66
1, 3266, Note_on_c, 0, 64, 72
1, 3275, Control_c, 0, 64, 0
1, 3288, Note_off_c, 0, 43, 59
1, 3289, Note_off_c, 0, 57, 68
1, 3292, Note_off_c, 0, 64, 69
1, 3293, Note_off_c, 0, 55, 55
1, 3302, Note_off_c, 0, 59, 61
1, 3306, Note_off_c, 0, 69, 63
1, 3311, Note_off_c, 0, 50, 62
1, 3342, Note_on_c, 0, 59, 73
1, 3350, Note_on_c, 0, 69, 75
1, 3356, Note_on_c, 0, 43, 79
1, 3367, Note_on_c, 0, 64, 64
1, 3368, Note_on_c, 0, 55, 59
1, 3369, Note_on_c, 0, 50, 55
1, 3383, Note_off_c, 0, 59, 63
1, 3384, Note_off_c, 0, 64, 66
1, 3386, Note_off_c, 0, 69, 57
1, 3391, Note_off_c, 0, 43, 63
1, 3392, Note_off_c, 0, 55, 60
1, 3410, Note_off_c, 0, 50, 64
1, 3433, Note_on_c, 0, 43, 65
1, 3433, Note_on_c, 0, 59, 72
1, 3434, Note_on_c, 0, 69, 76
1, 3454, Note_off_c, 0, 59, 71
1, 3454, Control_c, 0, 64, 66
1, 3456, Note_on_c, 0, 64, 51
1, 3457, Note_on_c, 0, 55, 70
1, 3469, Control_c, 0, 64, 75
1, 3478, Note_off_c, 0, 55, 63
1, 3479, Note_off_c, 0, 43, 64
1, 3479, Note_off_c, 0, 64, 59
1, 3480, Note_on_c, 0, 57, 52
1, 3480, Note_off_c, 0, 69, 65
1, 3484, Control_c, 0, 64, 88
1, 3499, Control_c, 0, 64, 101
1, 3503, Note_off_c, 0, 57, 58
1, 3514, Control_c, 0, 64, 127
1, 3678, Note_on_c, 0, 63, 65
1, 3684, Note_on_c, 0, 88, 90
1, 3688, Note_on_c, 0, 76, 75
1, 3690, Note_on_c, 0, 70, 78
1, 3698, Note_on_c, 0, 73, 63
1, 3699, Note_on_c, 0, 74, 61
1, 3702, Note_on_c, 0, 81, 72
1, 3702, Note_off_c, 0, 76, 70
1, 3716, Note_off_c, 0, 70, 69
1, 3717, Note_off_c, 0, 73, 64
1, 3717, Note_off_c, 0, 74, 62
1, 3720, Note_off_c, 0, 81, 65
1, 3725, Note_off_c, 0, 88, 68
1, 3729, Note_off_c, 0, 63, 65
1, 3749, Note_on_c, 0, 62, 37
1, 3780, Note_off_c, 0, 62, 51
1, 3892, Control_c, 0, 64, 101
1, 3907, Control_c, 0, 64, 71
1, 3922, Control_c, 0, 64, 0
1, 3946, Note_on_c, 0, 43, 75
1, 3955, Note_on_c, 0, 50, 63
1, 3981, Control_c, 0, 64, 54
1, 3996, Control_c, 0, 64, 66
1, 4011, Control_c, 0, 64, 74
1, 4025, Control_c, 0, 64, 81
1, 4027, Note_off_c, 0, 43, 60
1, 4032, Note_off_c, 0, 50, 63
1, 4040, Control_c, 0, 64, 90
1, 4045, Note_on_c, 0, 74, 61
1, 4045, Note_on_c, 0, 62, 56
1, 4055, Control_c, 0, 64, 104
1, 4067, Note_off_c, 0, 62, 58
1, 4069, Control_c, 0, 64, 127
1, 4157, Note_on_c, 0, 64, 67
1, 4160, Note_on_c, 0, 50, 58
1, 4170, Note_on_c, 0, 59, 54
1, 4188, Note_off_c, 0, 50, 62
1, 4195, Note_off_c, 0, 59, 60
1, 4236, Note_off_c, 0, 64, 55
1, 4267, Note_on_c, 0, 66, 75
1, 4286, Note_off_c, 0, 74, 58
1, 4360, Note_on_c, 0, 74, 54
1, 4362, Note_on_c, 0, 67, 77
1, 4363, Note_off_c, 0, 66, 65
1, 4459, Note_on_c, 0, 71, 76
1, 4463, Note_off_c, 0, 67, 62
1, 4496, Note_off_c, 0, 74, 63
1, 4522, Note_off_c, 0, 71, 64
1, 4561, Note_on_c, 0, 62, 72
1, 4561, Note_on_c, 0, 69, 87
1, 4581, Control_c, 0, 64, 87
1, 4596, Control_c, 0, 64, 65
1, 4611, Control_c, 0, 64, 0
1, 4671, Note_on_c, 0, 74, 68
1, 4671, Control_c, 0, 64, 62
1, 4675, Note_on_c, 0, 72, 82
1, 4685, Control_c, 0, 64, 69
1, 4700, Control_c, 0, 64, 76
1, 4715, Control_c, 0, 64, 85
1, 4730, Control_c, 0, 64, 92
1, 4745, Control_c, 0, 64, 98
1, 4759, Note_off_c, 0, 72, 63
1, 4760, Note_on_c, 0, 59, 59
1, 4760, Control_c, 0, 64, 108
1, 4763, Note_on_c, 0, 76, 81
1, 4764, Note_off_c, 0, 62, 60
1, 4772, Poly_aftertouch_c, 0, 63, 127
1, 4772, Note_on_c, 0, 66, 70
1, 4774, Control_c, 0, 64, 127
1, 4776, Note_off_c, 0, 74, 62
1, 4790, Note_off_c, 0, 59, 66
1, 4802, Note_off_c, 0, 66, 67
1, 4802, Note_off_c, 0, 69, 56
1, 4814, Poly_aftertouch_c, 0, 63, 0
1, 4872, Note_on_c, 0, 78, 84
1, 4876, Note_off_c, 0, 76, 66
1, 4967, Note_off_c, 0, 78, 64
1, 4981, Note_on_c, 0, 74, 64
1, 4983, Note_on_c, 0, 79, 86
1, 5002, Note_on_c, 0, 71, 47
1, 5007, Note_off_c, 0, 74, 67
1, 5026, Note_off_c, 0, 71, 58
1, 5127, Note_on_c, 0, 83, 80
1, 5128, Note_off_c, 0, 79, 60
1, 5204, Control_c, 0, 64, 126
1, 5219, Control_c, 0, 64, 88
1, 5225, Note_on_c, 0, 59, 44
1, 5234, Control_c, 0, 64, 66
1, 5243, Note_on_c, 0, 62, 54
1, 5249, Control_c, 0, 64, 0
1, 5257, Note_on_c, 0, 54, 52
1, 5294, Note_off_c, 0, 83, 62
1, 5299, Note_on_c, 0, 86, 64
1, 5316, Control_c, 0, 64, 52
1, 5321, Note_off_c, 0, 59, 57
1, 5327, Note_on_c, 0, 74, 19
1, 5330, Control_c, 0, 64, 65
1, 5345, Control_c, 0, 64, 71
1, 5358, Note_off_c, 0, 62, 53
1, 5360, Control_c, 0, 64, 79
1, 5371, Note_off_c, 0, 74, 48
1, 5375, Control_c, 0, 64, 86
1, 5378, Note_off_c, 0, 54, 61
1, 5386, Note_off_c, 0, 86, 59
1, 5390, Control_c, 0, 64, 93
1, 5404, Control_c, 0, 64, 101
1, 5419, Control_c, 0, 64, 117
1, 5434, Control_c, 0, 64, 127
1, 5457, Note_on_c, 0, 86, 58
1, 5471, Note_on_c, 0, 74, 51
1, 5514, Note_off_c, 0, 74, 62
1, 5544, Note_off_c, 0, 86, 60
1, 5641, Note_on_c, 0, 86, 49
1, 5642, Note_on_c, 0, 50, 38
1, 5654, Note_on_c, 0, 43, 51
1, 5657, Note_on_c, 0, 74, 28
1, 5710, Note_off_c, 0, 43, 57
1, 5720, Note_off_c, 0, 50, 62
1, 5737, Note_off_c, 0, 86, 56
1, 5802, Note_off_c, 0, 74, 53
1, 5925, Note_on_c, 0, 55, 45
1, 5930, Note_on_c, 0, 83, 59
1, 5935, Note_on_c, 0, 71, 54
1, 5936, Note_on_c, 0, 62, 33
1, 5939, Note_on_c, 0, 64, 38
1, 6014, Note_off_c, 0, 71, 56
1, 6065, Note_on_c, 0, 78, 65
1, 6075, Note_off_c, 0, 83, 62
1, 6092, Note_off_c, 0, 64, 59
1, 6105, Note_off_c, 0, 78, 62
1, 6116, Note_off_c, 0, 62, 53
1, 6124, Note_off_c, 0, 55, 61
1, 6185, Note_on_c, 0, 86, 72
1, 6194, Note_on_c, 0, 74, 58
1, 6194, Note_on_c, 0, 83, 55
1, 6215, Note_off_c, 0, 74, 58
1, 6222, Note_off_c, 0, 83, 69
1, 6235, Note_off_c, 0, 86, 54
1, 6280, Note_on_c, 0, 86, 53
1, 6289, Note_on_c, 0, 74, 64
1, 6292, Note_on_c, 0, 83, 66
1, 6318, Note_off_c, 0, 83, 70
1, 6319, Note_off_c, 0, 74, 66
1, 6324, Note_off_c, 0, 86, 64
1, 6383, Note_on_c, 0, 86, 74
1, 6390, Note_on_c, 0, 74, 75
1, 6407, Note_on_c, 0, 66, 58
1, 6408, Note_on_c, 0, 62, 54
1, 6412, Note_off_c, 0, 74, 70
1, 6414, Note_on_c, 0, 71, 43
1, 6417, Note_on_c, 0, 69, 45
1, 6430, Note_off_c, 0, 86, 63
1, 6468, Note_off_c, 0, 71, 53
1, 6477, Note_off_c, 0, 69, 44
1, 6523, Note_off_c, 0, 66, 60
1, 6532, Note_off_c, 0, 62, 58
1, 6615, Note_on_c, 0, 83, 90
1, 6620, Note_on_c, 0, 71, 85
1, 6692, Note_off_c, 0, 71, 41
1, 6705, Note_on_c, 0, 78, 74
1, 6727, Note_off_c, 0, 83, 64
1, 6751, Note_off_c, 0, 78, 62
1, 6777, Control_c, 0, 64, 80
1, 6799, Control_c, 0, 64, 18
1, 6811, Note_on_c, 0, 62, 58
1, 6814, Note_on_c, 0, 59, 52
1, 6814, Control_c, 0, 64, 0
1, 6823, Note_on_c, 0, 54, 59
1, 6829, Control_c, 0, 64, 30
1, 6832, Note_on_c, 0, 86, 83
1, 6835, Note_on_c, 0, 74, 79
1, 6836, Note_off_c, 0, 59, 61
1, 6839, Note_off_c, 0, 62, 62
1, 6844, Control_c, 0, 64, 67
1, 6853, Note_on_c, 0, 83, 45
1, 6857, Note_off_c, 0, 54, 66
1, 6858, Control_c, 0, 64, 78
1, 6859, Note_off_c, 0, 74, 66
1, 6873, Control_c, 0, 64, 93
1, 6878, Note_off_c, 0, 86, 57
1, 6882, Note_off_c, 0, 83, 60
1, 6888, Control_c, 0, 64, 113
1, 6903, Control_c, 0, 64, 127
1, 6933, Note_on_c, 0, 86, 67
1, 6939, Note_on_c, 0, 74, 73
1, 6966, Note_off_c, 0, 74, 65
1, 6974, Note_on_c, 0, 47, 34
1, 6975, Note_off_c, 0, 86, 62
1, 7022, Note_off_c, 0, 47, 0
1, 7022, Note_on_c, 0, 47, 30
1, 7026, Poly_aftertouch_c, 0, 83, 0
1, 7031, Note_on_c, 0, 86, 78
1, 7032, Note_on_c, 0, 40, 64
1, 7034, Note_on_c, 0, 74, 84
1, 7054, Note_off_c, 0, 74, 71
1, 7060, Note_off_c, 0, 40, 64
1, 7067, Note_off_c, 0, 86, 57
1, 7070, Note_off_c, 0, 47, 62
1, 7225, Note_on_c, 0, 56, 65
1, 7246, Note_on_c, 0, 64, 50
1, 7249, Note_on_c, 0, 83, 92
1, 7254, Note_on_c, 0, 62, 43
1, 7255, Note_on_c, 0, 71, 81
1, 7312, Note_off_c, 0, 71, 49
1, 7334, Note_on_c, 0, 78, 72
1, 7340, Note_off_c, 0, 83, 64
1, 7346, Note_off_c, 0, 62, 59
1, 7357, Note_off_c, 0, 78, 67
1, 7359, Note_off_c, 0, 64, 63
1, 7366, Note_off_c, 0, 56, 63
1, 7460, Note_on_c, 0, 86, 86
1, 7461, Note_on_c, 0, 74, 85
1, 7464, Note_on_c, 0, 83, 76
1, 7491, Note_off_c, 0, 83, 69
1, 7499, Note_off_c, 0, 74, 56
1, 7504, Note_off_c, 0, 86, 65
1, 7572, Note_on_c, 0, 74, 70
1, 7573, Note_on_c, 0, 86, 72
1, 7577, Note_on_c, 0, 83, 72
1, 7598, Note_off_c, 0, 74, 66
1, 7600, Note_off_c, 0, 86, 66
1, 7602, Note_off_c, 0, 83, 71
1, 7660, Note_on_c, 0, 86, 83
1, 7663, Note_on_c, 0, 74, 78
1, 7669, Note_on_c, 0, 83, 63
1, 7674, Note_on_c, 0, 71, 63
1, 7677, Note_on_c, 0, 66, 65
1, 7678, Note_on_c, 0, 62, 64
1, 7686, Note_off_c, 0, 83, 67
1, 7688, Note_off_c, 0, 74, 68
1, 7693, Note_off_c, 0, 71, 65
1, 7703, Note_off_c, 0, 66, 67
1, 7704, Note_off_c, 0, 86, 64
1, 7720, Note_off_c, 0, 62, 61
1, 7878, Note_on_c, 0, 83, 90
1, 7881, Note_on_c, 0, 71, 87
1, 7922, Note_on_c, 0, 72, 43
1, 7923, Note_off_c, 0, 72, 127
1, 7961, Note_on_c, 0, 78, 77
1, 7967, Note_off_c, 0, 71, 61
1, 7978, Control_c, 0, 64, 88
1, 7987, Note_off_c, 0, 83, 64
1, 7992, Control_c, 0, 64, 62
1, 8007, Control_c, 0, 64, 0
1, 8008, Note_off_c, 0, 78, 63
1, 8057, Note_on_c, 0, 40, 72
1, 8063, Note_on_c, 0, 47, 61
1, 8079, Note_on_c, 0, 86, 96
1, 8081, Note_on_c, 0, 74, 94
1, 8081, Control_c, 0, 64, 72
1, 8090, Note_on_c, 0, 83, 75
1, 8091, Note_off_c, 0, 40, 64
1, 8096, Control_c, 0, 64, 107
1, 8103, Note_off_c, 0, 47, 64
1, 8112, Control_c, 0, 64, 127
1, 8116, Note_off_c, 0, 83, 70
1, 8120, Note_off_c, 0, 74, 62
1, 8128, Note_off_c, 0, 86, 63
1, 8178, Note_on_c, 0, 74, 80
1, 8179, Note_on_c, 0, 86, 76
1, 8182, Note_on_c, 0, 83, 73
1, 8206, Note_off_c, 0, 83, 69
1, 8208, Note_off_c, 0, 74, 55
1, 8219, Note_off_c, 0, 86, 64
1, 8264, Note_on_c, 0, 86, 71
1, 8265, Note_on_c, 0, 56, 69
1, 8265, Note_on_c, 0, 74, 81
1, 8265, Note_on_c, 0, 83, 78
1, 8273, Note_on_c, 0, 62, 59
1, 8285, Note_on_c, 0, 64, 61
1, 8298, Note_off_c, 0, 83, 70
1, 8299, Note_off_c, 0, 74, 67
1, 8312, Note_off_c, 0, 86, 63
1, 8319, Note_off_c, 0, 64, 63
1, 8322, Note_off_c, 0, 56, 59
1, 8332, Note_off_c, 0, 62, 52
1, 8525, Note_on_c, 0, 57, 71
1, 8529, Note_on_c, 0, 65, 63
1, 8530, Note_on_c, 0, 63, 66
1, 8534, Control_c, 0, 64, 96
1, 8538, Note_on_c, 0, 84, 93
1, 8546, Note_on_c, 0, 72, 91
1, 8549, Control_c, 0, 64, 68
1, 8553, Note_off_c, 0, 65, 65
1, 8557, Note_on_c, 0, 81, 74
1, 8558, Note_off_c, 0, 63, 67
1, 8564, Control_c, 0, 64, 0
1, 8575, Note_off_c, 0, 57, 63
1, 8626, Note_off_c, 0, 72, 34
1, 8629, Note_on_c, 0, 77, 78
1, 8640, Note_off_c, 0, 81, 63
1, 8656, Note_off_c, 0, 84, 61
1, 8663, Note_off_c, 0, 77, 62
1, 8719, Note_on_c, 0, 47, 78
1, 8722, Note_on_c, 0, 40, 75
1, 8736, Note_on_c, 0, 86, 87
1, 8738, Note_on_c, 0, 74, 92
1, 8739, Note_on_c, 0, 83, 83
1, 8741, Control_c, 0, 64, 78
1, 8751, Note_off_c, 0, 40, 64
1, 8756, Control_c, 0, 64, 112
1, 8763, Note_off_c, 0, 83, 69
1, 8768, Note_off_c, 0, 47, 60
1, 8771, Control_c, 0, 64, 127
1, 8780, Note_off_c, 0, 74, 61
1, 8783, Note_off_c, 0, 86, 65
1, 8833, Note_on_c, 0, 74, 83
1, 8834, Note_on_c, 0, 86, 74
1, 8841, Note_on_c, 0, 83, 84
1, 8862, Note_off_c, 0, 83, 73
1, 8870, Note_off_c, 0, 74, 56
1, 8874, Note_off_c, 0, 86, 65
1, 8922, Note_on_c, 0, 86, 72
1, 8923, Note_on_c, 0, 74, 75
1, 8923, Note_on_c, 0, 83, 86
1, 8928, Note_on_c, 0, 56, 70
1, 8936, Note_on_c, 0, 64, 67
1, 8940, Note_on_c, 0, 62, 59
1, 8953, Note_off_c, 0, 74, 62
1, 8954, Note_off_c, 0, 83, 64
1, 8968, Note_off_c, 0, 86, 64
1, 8980, Note_off_c, 0, 56, 58
1, 8981, Note_off_c, 0, 62, 57
1, 8992, Note_off_c, 0, 64, 56
1, 9105, Control_c, 0, 64, 91
1, 9120, Control_c, 0, 64, 65
1, 9135, Control_c, 0, 64, 0
1, 9136, Note_on_c, 0, 57, 74
1, 9145, Note_on_c, 0, 84, 91
1, 9146, Note_on_c, 0, 65, 60
1, 9148, Note_on_c, 0, 63, 66
1, 9151, Note_on_c, 0, 72, 88
1, 9157, Note_on_c, 0, 81, 79
1, 9167, Note_off_c, 0, 65, 61
1, 9172, Note_off_c, 0, 63, 67
1, 9189, Note_off_c, 0, 57, 64
1, 9234, Note_on_c, 0, 77, 78
1, 9237, Note_off_c, 0, 81, 57
1, 9249, Note_off_c, 0, 72, 63
1, 9290, Note_off_c, 0, 77, 64
1, 9290, Note_off_c, 0, 84, 61
1, 9342, Note_on_c, 0, 40, 87
1, 9342, Control_c, 0, 64, 37
1, 9345, Note_on_c, 0, 47, 83
1, 9356, Control_c, 0, 64, 81
1, 9371, Control_c, 0, 64, 103
1, 9386, Note_off_c, 0, 40, 61
1, 9386, Control_c, 0, 64, 127
1, 9402, Note_off_c, 0, 47, 62
1, 9440, Note_on_c, 0, 86, 78
1, 9476, Note_on_c, 0, 76, 37
1, 9481, Note_on_c, 0, 74, 18
1, 9506, Note_off_c, 0, 76, 49
1, 9506, Note_off_c, 0, 86, 57
1, 9522, Note_off_c, 0, 74, 43
1, 9535, Note_on_c, 0, 56, 80
1, 9544, Note_on_c, 0, 64, 69
1, 9553, Note_on_c, 0, 83, 75
1, 9554, Note_on_c, 0, 62, 53
1, 9579, Note_off_c, 0, 64, 61
1, 9581, Note_off_c, 0, 56, 54
1, 9584, Note_off_c, 0, 83, 67
1, 9589, Note_off_c, 0, 62, 63
1, 9608, Control_c, 0, 64, 113
1, 9623, Control_c, 0, 64, 84
1, 9638, Control_c, 0, 64, 62
1, 9647, Note_on_c, 0, 81, 60
1, 9649, Note_on_c, 0, 83, 60
1, 9653, Control_c, 0, 64, 0
1, 9663, Note_on_c, 0, 84, 52
1, 9672, Note_off_c, 0, 83, 61
1, 9735, Note_on_c, 0, 57, 70
1, 9736, Note_on_c, 0, 63, 70
1, 9740, Note_on_c, 0, 65, 58
1, 9760, Note_off_c, 0, 63, 67
1, 9762, Note_off_c, 0, 65, 61
1, 9763, Note_on_c, 0, 79, 67
1, 9775, Note_off_c, 0, 57, 62
1, 9775, Note_off_c, 0, 84, 58
1, 9836, Note_off_c, 0, 81, 55
1, 9854, Control_c, 0, 67, 12
1, 9859, Note_off_c, 0, 79, 64
1, 9866, Note_on_c, 0, 77, 61
1, 9869, Control_c, 0, 67, 19
1, 9884, Control_c, 0, 67, 32
1, 9895, Note_off_c, 0, 77, 65
1, 9899, Control_c, 0, 67, 57
1, 9913, Control_c, 0, 67, 98
1, 9928, Control_c, 0, 67, 127
1, 9951, Note_on_c, 0, 47, 55
1, 9953, Note_on_c, 0, 76, 82
1, 9955, Note_on_c, 0, 40, 44
1, 9956, Note_on_c, 0, 41, 56
1, 9958, Control_c, 0, 64, 58
1, 9973, Control_c, 0, 64, 67
1, 9983, Note_off_c, 0, 47, 63
1, 9985, Note_off_c, 0, 41, 62
1, 9987, Control_c, 0, 64, 74
1, 9988, Note_off_c, 0, 40, 50
1, 10002, Control_c, 0, 64, 81
1, 10017, Control_c, 0, 64, 87
1, 10032, Control_c, 0, 64, 91
1, 10046, Control_c, 0, 64, 97
1, 10054, Note_on_c, 0, 74, 75
1, 10061, Control_c, 0, 64, 107
1, 10076, Note_off_c, 0, 76, 59
1, 10076, Control_c, 0, 64, 127
1, 10129, Note_off_c, 0, 74, 64
1, 10135, Control_c, 0, 64, 99
1, 10143, Note_on_c, 0, 56, 68
1, 10147, Note_on_c, 0, 64, 66
1, 10150, Control_c, 0, 64, 78
1, 10161, Note_on_c, 0, 72, 59
1, 10165, Control_c, 0, 64, 55
1, 10173, Note_off_c, 0, 56, 64
1, 10180, Control_c, 0, 64, 0
1, 10181, Note_off_c, 0, 64, 65
1, 10191, Note_off_c, 0, 72, 66
1, 10242, Note_on_c, 0, 72, 76
1, 10277, Note_on_c, 0, 71, 41
1, 10278, Note_on_c, 0, 69, 37
1, 10298, Control_c, 0, 64, 50
1, 10313, Control_c, 0, 64, 63
1, 10328, Control_c, 0, 64, 66
1, 10340, Note_off_c, 0, 71, 50
1, 10343, Control_c, 0, 64, 70
1, 10343, Note_on_c, 0, 57, 63
1, 10345, Note_on_c, 0, 63, 50
1, 10352, Note_off_c, 0, 72, 59
1, 10357, Note_on_c, 0, 67, 64
1, 10357, Control_c, 0, 64, 76
1, 10370, Note_off_c, 0, 63, 56
1, 10372, Control_c, 0, 64, 82
1, 10373, Note_off_c, 0, 57, 65
1, 10387, Control_c, 0, 64, 87
1, 10402, Control_c, 0, 64, 94
1, 10417, Control_c, 0, 64, 101
1, 10431, Control_c, 0, 64, 109
1, 10446, Note_off_c, 0, 67, 61
1, 10446, Control_c, 0, 64, 127
1, 10448, Note_off_c, 0, 69, 42
1, 10460, Note_on_c, 0, 65, 63
1, 10498, Note_off_c, 0, 65, 64
1, 10603, Control_c, 0, 64, 122
1, 10617, Control_c, 0, 64, 88
1, 10620, Note_on_c, 0, 33, 37
1, 10627, Note_on_c, 0, 64, 65
1, 10633, Control_c, 0, 64, 67
1, 10647, Note_on_c, 0, 45, 37
1, 10648, Control_c, 0, 64, 0
1, 10649, Note_on_c, 0, 55, 32
1, 10677, Control_c, 0, 64, 36
1, 10692, Control_c, 0, 64, 64
1, 10707, Control_c, 0, 64, 75
1, 10722, Control_c, 0, 64, 88
1, 10726, Note_off_c, 0, 33, 61
1, 10737, Control_c, 0, 64, 99
1, 10752, Control_c, 0, 64, 110
1, 10760, Note_off_c, 0, 45, 61
1, 10760, Note_off_c, 0, 55, 44
1, 10766, Control_c, 0, 64, 127
1, 10899, Note_off_c, 0, 64, 60
1, 10915, Control_c, 0, 64, 93
1, 10918, Note_on_c, 0, 50, 55
1, 10930, Control_c, 0, 64, 73
1, 10932, Note_on_c, 0, 55, 48
1, 10934, Note_on_c, 0, 59, 57
1, 10944, Control_c, 0, 64, 36
1, 10959, Control_c, 0, 64, 0
1, 10988, Control_c, 0, 64, 59
1, 11003, Control_c, 0, 64, 69
1, 11018, Control_c, 0, 64, 78
1, 11026, Note_on_c, 0, 62, 66
1, 11028, Note_off_c, 0, 59, 61
1, 11033, Control_c, 0, 64, 87
1, 11048, Control_c, 0, 64, 92
1, 11048, Control_c, 0, 67, 119
1, 11062, Control_c, 0, 64, 99
1, 11062, Control_c, 0, 67, 99
1, 11077, Control_c, 0, 64, 109
1, 11077, Control_c, 0, 67, 78
1, 11092, Control_c, 0, 64, 127
1, 11092, Control_c, 0, 67, 59
1, 11107, Note_off_c, 0, 55, 61
1, 11107, Control_c, 0, 67, 38
1, 11115, Note_on_c, 0, 64, 70
1, 11120, Note_on_c, 0, 59, 62
1, 11122, Control_c, 0, 67, 19
1, 11136, Control_c, 0, 67, 0
1, 11139, Note_off_c, 0, 50, 38
1, 11139, Note_off_c, 0, 62, 52
1, 11148, Note_off_c, 0, 59, 64
1, 11211, Note_on_c, 0, 67, 73
1, 11225, Note_off_c, 0, 64, 62
1, 11302, Note_on_c, 0, 62, 64
1, 11307, Note_on_c, 0, 71, 83
1, 11381, Note_off_c, 0, 71, 64
1, 11416, Note_off_c, 0, 62, 0
1, 11454, Poly_aftertouch_c, 0, 62, 127
1, 11473, Note_off_c, 0, 67, 57
1, 11493, Note_on_c, 0, 64, 68
1, 11509, Note_on_c, 0, 71, 74
1, 11509, Note_on_c, 0, 74, 84
1, 11527, Poly_aftertouch_c, 0, 62, 0
1, 11550, Note_off_c, 0, 64, 61
1, 11565, Note_off_c, 0, 71, 63
1, 11571, Note_off_c, 0, 74, 63
1, 11600, Note_on_c, 0, 79, 82
1, 11682, Note_on_c, 0, 67, 82
1, 11687, Note_on_c, 0, 76, 78
1, 11689, Note_on_c, 0, 83, 87
1, 11696, Note_off_c, 0, 79, 62
1, 11747, Note_off_c, 0, 67, 60
1, 11769, Note_on_c, 0, 86, 79
1, 11783, Note_off_c, 0, 83, 69
1, 11860, Note_on_c, 0, 79, 88
1, 11863, Note_on_c, 0, 74, 83
1, 11866, Note_on_c, 0, 90, 95
1, 11867, Note_off_c, 0, 86, 66
1, 11870, Note_off_c, 0, 76, 37
1, 11882, Note_off_c, 0, 79, 67
1, 11897, Note_on_c, 0, 87, 21
1, 11898, Note_off_c, 0, 87, 127
1, 11900, Note_off_c, 0, 74, 65
1, 11905, Note_off_c, 0, 90, 64
1, 12102, Note_on_c, 0, 93, 97
1, 12105, Note_on_c, 0, 57, 62
1, 12107, Note_on_c, 0, 83, 101
1, 12108, Note_on_c, 0, 90, 95
1, 12114, Note_on_c, 0, 86, 75
1, 12115, Note_on_c, 0, 71, 85
1, 12116, Note_on_c, 0, 64, 70
1, 12126, Note_on_c, 0, 59, 51
1, 12127, Note_on_c, 0, 63, 63
1, 12134, Note_on_c, 0, 67, 60
1, 12135, Note_off_c, 0, 86, 69
1, 12137, Note_off_c, 0, 71, 72
1, 12138, Note_off_c, 0, 83, 70
1, 12148, Note_off_c, 0, 90, 63
1, 12151, Note_off_c, 0, 59, 36
1, 12152, Note_off_c, 0, 93, 65
1, 12155, Note_off_c, 0, 57, 54
1, 12157, Note_off_c, 0, 63, 51
1, 12159, Note_off_c, 0, 67, 64
1, 12160, Note_on_c, 0, 66, 30
1, 12166, Note_off_c, 0, 64, 64
1, 12200, Note_off_c, 0, 66, 53
1, 12227, Poly_aftertouch_c, 0, 61, 0
1, 12278, Control_c, 0, 64, 104
1, 12293, Control_c, 0, 64, 72
1, 12308, Control_c, 0, 64, 0
1, 12522, Note_on_c, 0, 79, 98
1, 12522, Note_on_c, 0, 86, 61
1, 12523, Note_on_c, 0, 64, 58
1, 12524, Note_on_c, 0, 90, 87
1, 12525, Note_on_c, 0, 57, 74
1, 12526, Note_on_c, 0, 93, 85
1, 12528, Note_on_c, 0, 83, 87
1, 12528, Note_on_c, 0, 71, 86
1, 12530, Control_c, 0, 64, 59
1, 12540, Note_on_c, 0, 91, 70
1, 12545, Control_c, 0, 64, 76
1, 12546, Note_on_c, 0, 59, 40
1, 12547, Note_off_c, 0, 59, 127
1, 12548, Note_on_c, 0, 67, 55
1, 12559, Control_c, 0, 64, 105
1, 12560, Note_off_c, 0, 79, 65
1, 12561, Note_off_c, 0, 83, 67
1, 12562, Note_on_c, 0, 66, 40
1, 12563, Note_off_c, 0, 91, 54
1, 12567, Note_off_c, 0, 93, 66
1, 12570, Note_off_c, 0, 86, 66
1, 12574, Control_c, 0, 64, 127
1, 12575, Note_off_c, 0, 67, 64
1, 12577, Note_off_c, 0, 71, 66
1, 12579, Note_off_c, 0, 90, 67
1, 12594, Note_off_c, 0, 64, 64
1, 12595, Note_off_c, 0, 66, 56
1, 12641, Note_off_c, 0, 57, 36
1, 12722, Control_c, 0, 64, 96
1, 12737, Control_c, 0, 64, 71
1, 12752, Control_c, 0, 64, 0
1, 12993, Note_on_c, 0, 57, 70
1, 12997, Note_on_c, 0, 79, 101
1, 12997, Control_c, 0, 64, 38
1, 12998, Note_on_c, 0, 90, 86
1, 13001, Note_on_c, 0, 71, 80
1, 13001, Note_on_c, 0, 93, 85
1, 13002, Note_on_c, 0, 86, 77
1, 13004, Note_on_c, 0, 64, 71
1, 13004, Note_on_c, 0, 83, 83
1, 13005, Note_on_c, 0, 67, 67
1, 13012, Note_on_c, 0, 91, 76
1, 13012, Control_c, 0, 64, 75
1, 13027, Control_c, 0, 64, 127
1, 13031, Note_off_c, 0, 71, 68
1, 13032, Note_off_c, 0, 91, 63
1, 13035, Note_off_c, 0, 79, 68
1, 13035, Note_off_c, 0, 83, 68
1, 13038, Note_off_c, 0, 86, 67
1, 13040, Note_off_c, 0, 93, 64
1, 13044, Note_off_c, 0, 90, 67
1, 13053, Note_off_c, 0, 67, 61
1, 13060, Note_off_c, 0, 64, 65
1, 13065, Note_off_c, 0, 57, 62
1, 13515, Control_c, 0, 64, 97
1, 13521, Note_on_c, 0, 54, 71
1, 13531, Note_on_c, 0, 62, 96
1, 13533, Note_on_c, 0, 45, 65
1, 13536, Note_on_c, 0, 59, 85
1, 13538, Control_c, 0, 64, 79
1, 13539, Note_on_c, 0, 55, 88
1, 13553, Control_c, 0, 64, 63
1, 13557, Note_off_c, 0, 54, 68
1, 13568, Control_c, 0, 64, 0
1, 13569, Note_off_c, 0, 55, 65
1, 13574, Note_off_c, 0, 45, 64
1, 13586, Note_off_c, 0, 59, 62
1, 13598, Note_off_c, 0, 62, 55
1, 13648, Note_on_c, 0, 64, 87
1, 13654, Note_on_c, 0, 55, 88
1, 13685, Note_off_c, 0, 55, 65
1, 13693, Note_off_c, 0, 64, 64
1, 13773, Note_on_c, 0, 33, 67
1, 13785, Note_on_c, 0, 59, 87
1, 13790, Note_on_c, 0, 50, 88
1, 13813, Note_off_c, 0, 33, 66
1, 13818, Note_off_c, 0, 50, 68
1, 13845, Note_off_c, 0, 59, 60
1, 13929, Note_on_c, 0, 57, 81
1, 14018, Note_off_c, 0, 57, 60
1, 14119, Note_on_c, 0, 62, 86
1, 14120, Note_on_c, 0, 50, 89
1, 14122, Note_on_c, 0, 26, 82
1, 14122, Note_on_c, 0, 54, 81
1, 14122, Note_on_c, 0, 57, 79
1, 14132, Control_c, 0, 64, 69
1, 14147, Control_c, 0, 64, 85
1, 14150, Note_off_c, 0, 50, 64
1, 14162, Control_c, 0, 64, 109
1, 14162, Note_off_c, 0, 57, 62
1, 14170, Note_off_c, 0, 54, 63
1, 14174, Note_off_c, 0, 26, 63
1, 14177, Control_c, 0, 64, 127
1, 14179, Note_off_c, 0, 62, 58
1, 14970, Control_c, 0, 64, 98
1, 14984, Control_c, 0, 64, 68
1, 14999, Control_c, 0, 64, 0
1, 15217, Note_on_c, 0, 68, 75
1, 15217, Note_on_c, 0, 77, 70
1, 15226, Note_on_c, 0, 88, 93
1, 15228, Note_on_c, 0, 71, 63
1, 15228, Note_on_c, 0, 76, 94
1, 15229, Control_c, 0, 64, 37
1, 15240, Note_on_c, 0, 83, 72
1, 15243, Note_off_c, 0, 77, 66
1, 15244, Control_c, 0, 64, 80
1, 15256, Note_off_c, 0, 71, 66
1, 15259, Control_c, 0, 64, 103
1, 15266, Note_off_c, 0, 68, 66
1, 15268, Note_off_c, 0, 76, 60
1, 15269, Note_off_c, 0, 83, 71
1, 15273, Control_c, 0, 64, 127
1, 15278, Note_off_c, 0, 88, 65
1, 15338, Note_on_c, 0, 88, 90
1, 15339, Note_on_c, 0, 76, 91
1, 15342, Note_on_c, 0, 83, 85
1, 15370, Note_off_c, 0, 76, 63
1, 15375, Note_off_c, 0, 88, 68
1, 15379, Note_off_c, 0, 83, 65
1, 15427, Note_on_c, 0, 88, 99
1, 15429, Note_on_c, 0, 76, 97
1, 15431, Note_on_c, 0, 83, 85
1, 15634, Note_on_c, 0, 38, 74
1, 15636, Note_on_c, 0, 50, 86
1, 15665, Note_off_c, 0, 38, 65
1, 15677, Note_off_c, 0, 83, 63
1, 15679, Note_off_c, 0, 50, 64
1, 15702, Note_off_c, 0, 76, 63
1, 15963, Note_on_c, 0, 77, 95
1, 15968, Note_on_c, 0, 72, 85
1, 15972, Note_on_c, 0, 68, 81
1, 16000, Note_off_c, 0, 77, 66
1, 16012, Note_off_c, 0, 88, 49
1, 16018, Note_off_c, 0, 72, 64
1, 16046, Note_off_c, 0, 68, 64
1, 16189, Note_on_c, 0, 68, 66
1, 16192, Note_on_c, 0, 72, 78
1, 16198, Note_on_c, 0, 74, 80
1, 16201, Note_on_c, 0, 65, 67
1, 16203, Note_on_c, 0, 86, 81
1, 16247, Note_off_c, 0, 72, 58
1, 16288, Note_on_c, 0, 84, 78
1, 16292, Note_off_c, 0, 74, 34
1, 16307, Note_off_c, 0, 86, 61
1, 16337, Note_off_c, 0, 65, 0
1, 16363, Note_off_c, 0, 68, 0
1, 16374, Poly_aftertouch_c, 0, 65, 127
1, 16391, Note_on_c, 0, 80, 85
1, 16399, Note_on_c, 0, 60, 67
1, 16400, Poly_aftertouch_c, 0, 68, 127
1, 16417, Note_off_c, 0, 84, 63
1, 16431, Note_off_c, 0, 60, 62
1, 16437, Poly_aftertouch_c, 0, 65, 0
1, 16448, Poly_aftertouch_c, 0, 68, 0
1, 16482, Note_off_c, 0, 80, 64
1, 16487, Note_on_c, 0, 72, 69
1, 16518, Note_off_c, 0, 72, 67
1, 16533, Control_c, 0, 64, 96
1, 16548, Control_c, 0, 64, 68
1, 16563, Control_c, 0, 64, 0
1, 16568, Note_on_c, 0, 68, 70
1, 16588, Note_on_c, 0, 58, 29
1, 16589, Note_off_c, 0, 58, 127
1, 16593, Note_on_c, 0, 59, 60
1, 16594, Control_c, 0, 64, 58
1, 16601, Note_on_c, 0, 62, 37
1, 16603, Note_on_c, 0, 79, 85
1, 16604, Note_on_c, 0, 67, 83
1, 16608, Control_c, 0, 64, 70
1, 16620, Note_off_c, 0, 68, 65
1, 16623, Control_c, 0, 64, 84
1, 16626, Note_on_c, 0, 74, 52
1, 16629, Note_off_c, 0, 62, 55
1, 16638, Control_c, 0, 64, 101
1, 16643, Note_off_c, 0, 67, 58
1, 16650, Note_off_c, 0, 74, 65
1, 16651, Note_off_c, 0, 59, 63
1, 16652, Note_off_c, 0, 79, 61
1, 16652, Control_c, 0, 64, 119
1, 16667, Control_c, 0, 64, 127
1, 16713, Note_on_c, 0, 67, 74
1, 16713, Note_on_c, 0, 79, 69
1, 16727, Note_on_c, 0, 74, 65
1, 16738, Note_off_c, 0, 67, 66
1, 16741, Note_off_c, 0, 79, 59
1, 16741, Control_c, 0, 67, 11
1, 16754, Note_off_c, 0, 74, 66
1, 16756, Control_c, 0, 67, 17
1, 16771, Control_c, 0, 67, 32
1, 16786, Control_c, 0, 67, 57
1, 16793, Note_on_c, 0, 79, 78
1, 16798, Note_on_c, 0, 67, 74
1, 16801, Control_c, 0, 67, 92
1, 16816, Control_c, 0, 67, 127
1, 16819, Note_on_c, 0, 74, 68
1, 16979, Note_on_c, 0, 50, 74
1, 16982, Note_on_c, 0, 38, 60
1, 17009, Note_off_c, 0, 38, 58
1, 17009, Note_off_c, 0, 50, 68
1, 17142, Control_c, 0, 64, 90
1, 17157, Control_c, 0, 64, 65
1, 17172, Control_c, 0, 64, 0
1, 17173, Note_off_c, 0, 74, 63
1, 17186, Note_on_c, 0, 59, 67
1, 17194, Note_on_c, 0, 68, 75
1, 17202, Control_c, 0, 64, 60
1, 17216, Control_c, 0, 64, 71
1, 17219, Note_off_c, 0, 79, 60
1, 17230, Note_off_c, 0, 67, 60
1, 17231, Control_c, 0, 64, 84
1, 17246, Control_c, 0, 64, 102
1, 17253, Note_off_c, 0, 68, 61
1, 17257, Note_on_c, 0, 62, 25
1, 17261, Control_c, 0, 64, 127
1, 17290, Note_off_c, 0, 59, 52
1, 17369, Note_off_c, 0, 62, 29
1, 17403, Note_on_c, 0, 63, 74
1, 17408, Note_on_c, 0, 56, 60
1, 17414, Note_on_c, 0, 59, 48
1, 17414, Note_on_c, 0, 65, 70
1, 17414, Note_on_c, 0, 77, 74
1, 17428, Note_off_c, 0, 63, 67
1, 17434, Note_off_c, 0, 59, 64
1, 17442, Note_off_c, 0, 56, 64
1, 17485, Note_off_c, 0, 65, 50
1, 17499, Note_on_c, 0, 75, 72
1, 17506, Note_off_c, 0, 77, 63
1, 17576, Note_on_c, 0, 51, 67
1, 17596, Note_on_c, 0, 71, 72
1, 17599, Note_off_c, 0, 75, 61
1, 17609, Note_on_c, 0, 59, 38
1, 17620, Note_on_c, 0, 56, 56
1, 17653, Note_off_c, 0, 51, 36
1, 17653, Note_off_c, 0, 59, 46
1, 17683, Note_off_c, 0, 71, 64
1, 17688, Note_on_c, 0, 63, 70
1, 17735, Note_off_c, 0, 63, 60
1, 17759, Control_c, 0, 64, 102
1, 17773, Note_on_c, 0, 59, 64
1, 17773, Control_c, 0, 64, 76
1, 17776, Note_on_c, 0, 50, 51
1, 17781, Note_on_c, 0, 53, 51
1, 17788, Control_c, 0, 64, 0
1, 17818, Control_c, 0, 64, 38
1, 17821, Note_off_c, 0, 56, 33
1, 17833, Control_c, 0, 64, 65
1, 17847, Control_c, 0, 64, 72
1, 17853, Note_on_c, 0, 70, 69
1, 17860, Note_on_c, 0, 58, 58
1, 17862, Control_c, 0, 64, 84
1, 17877, Control_c, 0, 64, 96
1, 17891, Note_off_c, 0, 59, 61
1, 17892, Control_c, 0, 64, 110
1, 17894, Note_off_c, 0, 58, 61
1, 17901, Note_off_c, 0, 70, 55
1, 17907, Control_c, 0, 64, 122
1, 17922, Control_c, 0, 64, 127
1, 17928, Note_off_c, 0, 53, 61
1, 17934, Note_off_c, 0, 50, 60
1, 17974, Note_on_c, 0, 58, 62
1, 17977, Note_on_c, 0, 70, 60
1, 18005, Note_off_c, 0, 70, 66
1, 18011, Note_off_c, 0, 58, 61
1, 18077, Note_on_c, 0, 70, 75
1, 18094, Note_on_c, 0, 58, 60
1, 18106, Control_c, 0, 64, 110
1, 18121, Control_c, 0, 64, 85
1, 18136, Control_c, 0, 64, 67
1, 18151, Control_c, 0, 64, 0
1, 18240, Control_c, 0, 64, 42
1, 18255, Control_c, 0, 64, 64
1, 18270, Control_c, 0, 64, 72
1, 18270, Note_on_c, 0, 38, 64
1, 18275, Poly_aftertouch_c, 0, 68, 127
1, 18276, Note_on_c, 0, 65, 60
1, 18285, Control_c, 0, 64, 82
1, 18299, Control_c, 0, 64, 92
1, 18303, Note_off_c, 0, 70, 57
1, 18313, Note_off_c, 0, 58, 62
1, 18313, Poly_aftertouch_c, 0, 68, 0
1, 18314, Control_c, 0, 64, 104
1, 18315, Note_off_c, 0, 38, 63
1, 18315, Note_off_c, 0, 65, 63
1, 18329, Control_c, 0, 64, 127
1, 18418, Control_c, 0, 64, 116
1, 18432, Control_c, 0, 64, 84
1, 18447, Control_c, 0, 64, 65
1, 18462, Control_c, 0, 64, 45
1, 18464, Note_on_c, 0, 68, 70
1, 18465, Note_on_c, 0, 51, 58
1, 18474, Note_on_c, 0, 56, 54
1, 18477, Control_c, 0, 64, 64
1, 18492, Control_c, 0, 64, 72
1, 18494, Note_on_c, 0, 59, 9
1, 18505, Note_off_c, 0, 68, 57
1, 18508, Control_c, 0, 64, 86
1, 18509, Note_off_c, 0, 56, 61
1, 18522, Control_c, 0, 64, 107
1, 18536, Note_off_c, 0, 59, 36
1, 18537, Control_c, 0, 64, 127
1, 18542, Note_off_c, 0, 51, 62
1, 18575, Note_on_c, 0, 68, 68
1, 18585, Note_on_c, 0, 56, 60
1, 18606, Note_off_c, 0, 56, 61
1, 18613, Note_off_c, 0, 68, 60
1, 18655, Control_c, 0, 64, 104
1, 18670, Control_c, 0, 64, 83
1, 18676, Note_on_c, 0, 68, 71
1, 18685, Note_on_c, 0, 56, 53
1, 18685, Control_c, 0, 64, 65
1, 18700, Control_c, 0, 64, 0
1, 18796, Control_c, 0, 64, 35
1, 18811, Control_c, 0, 64, 57
1, 18826, Control_c, 0, 64, 66
1, 18841, Control_c, 0, 64, 73
1, 18855, Control_c, 0, 64, 81
1, 18861, Note_on_c, 0, 38, 58
1, 18869, Control_c, 0, 64, 89
1, 18877, Note_on_c, 0, 63, 58
1, 18880, Note_off_c, 0, 56, 60
1, 18884, Control_c, 0, 64, 100
1, 18896, Note_off_c, 0, 38, 64
1, 18899, Control_c, 0, 64, 120
1, 18913, Note_off_c, 0, 68, 60
1, 18914, Control_c, 0, 64, 127
1, 18916, Note_off_c, 0, 63, 61
1, 19002, Control_c, 0, 64, 92
1, 19017, Control_c, 0, 64, 71
1, 19032, Control_c, 0, 64, 0
1, 19054, Note_on_c, 0, 50, 56
1, 19061, Control_c, 0, 64, 41
1, 19062, Note_on_c, 0, 70, 66
1, 19065, Note_on_c, 0, 58, 61
1, 19076, Control_c, 0, 64, 67
1, 19091, Control_c, 0, 64, 81
1, 19092, Note_off_c, 0, 58, 64
1, 19093, Note_off_c, 0, 70, 65
1, 19096, Note_on_c, 0, 53, 18
1, 19106, Control_c, 0, 64, 100
1, 19120, Control_c, 0, 64, 127
1, 19126, Note_off_c, 0, 50, 57
1, 19136, Note_off_c, 0, 53, 45
1, 19163, Note_on_c, 0, 58, 63
1, 19165, Note_on_c, 0, 70, 66
1, 19190, Note_off_c, 0, 58, 66
1, 19196, Note_off_c, 0, 70, 64
1, 19224, Control_c, 0, 64, 109
1, 19239, Control_c, 0, 64, 81
1, 19251, Note_on_c, 0, 58, 63
1, 19254, Control_c, 0, 64, 64
1, 19256, Note_on_c, 0, 70, 73
1, 19269, Control_c, 0, 64, 0
1, 19358, Control_c, 0, 64, 15
1, 19373, Control_c, 0, 64, 41
1, 19388, Control_c, 0, 64, 58
1, 19403, Control_c, 0, 64, 64
1, 19418, Control_c, 0, 64, 68
1, 19433, Control_c, 0, 64, 75
1, 19448, Note_on_c, 0, 65, 57
1, 19448, Control_c, 0, 64, 83
1, 19452, Note_on_c, 0, 38, 58
1, 19463, Control_c, 0, 64, 92
1, 19464, Note_off_c, 0, 70, 59
1, 19469, Note_off_c, 0, 58, 61
1, 19477, Control_c, 0, 64, 102
1, 19478, Note_off_c, 0, 65, 66
1, 19488, Note_off_c, 0, 38, 65
1, 19492, Control_c, 0, 64, 118
1, 19507, Control_c, 0, 64, 127
1, 19603, Control_c, 0, 64, 120
1, 19618, Control_c, 0, 64, 88
1, 19633, Control_c, 0, 64, 69
1, 19648, Control_c, 0, 64, 0
1, 19651, Note_on_c, 0, 68, 70
1, 19656, Note_on_c, 0, 56, 59
1, 19660, Note_on_c, 0, 51, 51
1, 19662, Control_c, 0, 64, 51
1, 19674, Note_on_c, 0, 59, 24
1, 19677, Control_c, 0, 64, 68
1, 19685, Note_off_c, 0, 68, 61
1, 19689, Note_off_c, 0, 56, 65
1, 19692, Control_c, 0, 64, 81
1, 19704, Note_off_c, 0, 59, 43
1, 19707, Control_c, 0, 64, 102
1, 19722, Note_off_c, 0, 51, 57
1, 19722, Control_c, 0, 64, 127
1, 19770, Note_on_c, 0, 56, 48
1, 19770, Note_on_c, 0, 68, 47
1, 19791, Note_off_c, 0, 68, 61
1, 19793, Note_off_c, 0, 56, 59
1, 19825, Control_c, 0, 64, 97
1, 19840, Control_c, 0, 64, 77
1, 19855, Control_c, 0, 64, 62
1, 19859, Note_on_c, 0, 68, 68
1, 19866, Note_on_c, 0, 56, 46
1, 19869, Control_c, 0, 64, 0
1, 19929, Control_c, 0, 64, 12
1, 19943, Control_c, 0, 64, 32
1, 19958, Control_c, 0, 64, 42
1, 19973, Control_c, 0, 64, 49
1, 19987, Control_c, 0, 64, 57
1, 20002, Control_c, 0, 64, 62
1, 20017, Control_c, 0, 64, 66
1, 20032, Control_c, 0, 64, 71
1, 20041, Note_on_c, 0, 38, 44
1, 20047, Control_c, 0, 64, 77
1, 20059, Note_off_c, 0, 56, 51
1, 20062, Control_c, 0, 64, 84
1, 20074, Note_off_c, 0, 68, 64
1, 20075, Note_off_c, 0, 38, 61
1, 20077, Control_c, 0, 64, 91
1, 20092, Control_c, 0, 64, 99
1, 20094, Note_on_c, 0, 63, 50
1, 20107, Control_c, 0, 64, 110
1, 20122, Control_c, 0, 64, 127
1, 20249, Note_on_c, 0, 50, 50
1, 20277, Note_on_c, 0, 59, 19
1, 20294, Note_on_c, 0, 53, 45
1, 20322, Control_c, 0, 64, 106
1, 20329, Note_on_c, 0, 70, 71
1, 20337, Control_c, 0, 64, 87
1, 20352, Poly_aftertouch_c, 0, 58, 127
1, 20352, Control_c, 0, 64, 71
1, 20368, Control_c, 0, 64, 45
1, 20382, Control_c, 0, 64, 0
1, 20459, Note_off_c, 0, 63, 36
1, 20471, Control_c, 0, 64, 15
1, 20478, Note_on_c, 0, 65, 67
1, 20486, Control_c, 0, 64, 46
1, 20500, Note_off_c, 0, 70, 64
1, 20500, Control_c, 0, 64, 58
1, 20515, Control_c, 0, 64, 64
1, 20530, Control_c, 0, 64, 67
1, 20545, Control_c, 0, 64, 70
1, 20560, Control_c, 0, 64, 74
1, 20575, Control_c, 0, 64, 76
1, 20590, Control_c, 0, 64, 79
1, 20604, Control_c, 0, 64, 83
1, 20605, Note_on_c, 0, 57, 56
1, 20610, Note_off_c, 0, 50, 35
1, 20619, Control_c, 0, 64, 88
1, 20620, Note_on_c, 0, 51, 45
1, 20634, Control_c, 0, 64, 93
1, 20639, Note_off_c, 0, 59, 40
1, 20649, Control_c, 0, 64, 97
1, 20664, Control_c, 0, 64, 102
1, 20677, Note_off_c, 0, 57, 62
1, 20679, Control_c, 0, 64, 107
1, 20682, Note_off_c, 0, 53, 56
1, 20693, Control_c, 0, 64, 114
1, 20708, Control_c, 0, 64, 127
1, 20721, Note_off_c, 0, 51, 63
1, 20724, Note_on_c, 0, 68, 80
1, 20803, Note_off_c, 0, 65, 60
1, 20888, Note_on_c, 0, 38, 56
1, 20937, Note_off_c, 0, 38, 61
1, 20993, Note_on_c, 0, 63, 70
1, 21041, Note_off_c, 0, 68, 59
1, 21102, Control_c, 0, 64, 103
1, 21117, Control_c, 0, 64, 85
1, 21123, Note_on_c, 0, 53, 52
1, 21126, Note_on_c, 0, 59, 50
1, 21131, Control_c, 0, 64, 68
1, 21136, Note_on_c, 0, 70, 59
1, 21137, Note_on_c, 0, 50, 43
1, 21146, Control_c, 0, 64, 0
1, 21169, Poly_aftertouch_c, 0, 58, 0
1, 21217, Note_off_c, 0, 63, 38
1, 21249, Control_c, 0, 64, 45
1, 21262, Note_on_c, 0, 65, 64
1, 21264, Control_c, 0, 64, 60
1, 21279, Control_c, 0, 64, 66
1, 21294, Control_c, 0, 64, 70
1, 21296, Note_off_c, 0, 70, 58
1, 21309, Control_c, 0, 64, 74
1, 21323, Control_c, 0, 64, 77
1, 21334, Note_off_c, 0, 50, 49
1, 21338, Control_c, 0, 64, 80
1, 21353, Control_c, 0, 64, 83
1, 21361, Note_off_c, 0, 59, 52
1, 21368, Control_c, 0, 64, 86
1, 21374, Note_on_c, 0, 57, 48
1, 21382, Control_c, 0, 64, 91
1, 21385, Note_on_c, 0, 51, 55
1, 21397, Control_c, 0, 64, 95
1, 21409, Note_off_c, 0, 57, 63
1, 21412, Control_c, 0, 64, 100
1, 21415, Note_off_c, 0, 53, 48
1, 21427, Note_on_c, 0, 68, 65
1, 21427, Control_c, 0, 64, 106
1, 21442, Control_c, 0, 64, 112
1, 21456, Note_off_c, 0, 65, 63
1, 21457, Control_c, 0, 64, 119
1, 21467, Note_off_c, 0, 51, 63
1, 21472, Control_c, 0, 64, 127
1, 21593, Note_on_c, 0, 38, 62
1, 21631, Note_off_c, 0, 38, 63
1, 21682, Note_off_c, 0, 68, 57
1, 21698, Note_on_c, 0, 63, 57
1, 21806, Note_on_c, 0, 70, 70
1, 21806, Control_c, 0, 64, 117
1, 21813, Note_on_c, 0, 59, 59
1, 21816, Note_on_c, 0, 53, 53
1, 21821, Control_c, 0, 64, 88
1, 21824, Note_on_c, 0, 50, 46
1, 21829, Note_off_c, 0, 63, 54
1, 21836, Control_c, 0, 64, 69
1, 21850, Control_c, 0, 64, 0
1, 21879, Control_c, 0, 64, 40
1, 21894, Control_c, 0, 64, 63
1, 21907, Note_off_c, 0, 59, 59
1, 21909, Control_c, 0, 64, 69
1, 21918, Note_on_c, 0, 65, 66
1, 21924, Control_c, 0, 64, 78
1, 21938, Control_c, 0, 64, 88
1, 21953, Control_c, 0, 64, 96
1, 21964, Note_off_c, 0, 70, 56
1, 21968, Control_c, 0, 64, 104
1, 21983, Control_c, 0, 64, 127
1, 22003, Note_off_c, 0, 53, 60
1, 22008, Note_on_c, 0, 60, 64
1, 22015, Note_on_c, 0, 68, 81
1, 22019, Note_off_c, 0, 50, 62
1, 22026, Note_on_c, 0, 54, 57
1, 22056, Note_off_c, 0, 54, 65
1, 22058, Note_off_c, 0, 65, 57
1, 22065, Note_off_c, 0, 60, 54
1, 22113, Note_on_c, 0, 63, 80
1, 22144, Note_off_c, 0, 68, 62
1, 22146, Control_c, 0, 64, 121
1, 22160, Control_c, 0, 64, 93
1, 22175, Control_c, 0, 64, 71
1, 22180, Note_on_c, 0, 62, 65
1, 22190, Control_c, 0, 64, 0
1, 22193, Note_on_c, 0, 52, 56
1, 22204, Note_on_c, 0, 56, 59
1, 22211, Note_on_c, 0, 70, 86
1, 22211, Note_off_c, 0, 63, 66
1, 22323, Note_on_c, 0, 65, 68
1, 22360, Note_off_c, 0, 56, 64
1, 22374, Note_off_c, 0, 70, 59
1, 22415, Note_on_c, 0, 53, 43
1, 22423, Note_on_c, 0, 57, 54
1, 22426, Note_on_c, 0, 68, 68
1, 22427, Control_c, 0, 64, 35
1, 22438, Note_off_c, 0, 65, 62
1, 22442, Control_c, 0, 64, 59
1, 22450, Note_off_c, 0, 52, 26
1, 22457, Control_c, 0, 64, 65
1, 22462, Note_off_c, 0, 62, 35
1, 22471, Control_c, 0, 64, 70
1, 22487, Control_c, 0, 64, 74
1, 22501, Note_off_c, 0, 53, 61
1, 22502, Control_c, 0, 64, 80
1, 22518, Note_off_c, 0, 57, 60
1, 22524, Control_c, 0, 64, 86
1, 22539, Control_c, 0, 64, 92
1, 22554, Control_c, 0, 64, 99
1, 22561, Note_off_c, 0, 68, 61
1, 22566, Note_on_c, 0, 63, 59
1, 22569, Control_c, 0, 64, 107
1, 22584, Control_c, 0, 64, 127
1, 22658, Control_c, 0, 64, 102
1, 22673, Control_c, 0, 64, 80
1, 22687, Control_c, 0, 64, 54
1, 22701, Note_on_c, 0, 64, 52
1, 22702, Control_c, 0, 64, 0
1, 22703, Note_off_c, 0, 63, 54
1, 22709, Note_on_c, 0, 70, 60
1, 22713, Note_on_c, 0, 54, 43
1, 22722, Note_on_c, 0, 58, 30
1, 22747, Control_c, 0, 64, 62
1, 22761, Control_c, 0, 64, 69
1, 22775, Note_off_c, 0, 58, 58
1, 22775, Note_off_c, 0, 64, 64
1, 22776, Control_c, 0, 64, 77
1, 22791, Control_c, 0, 64, 83
1, 22806, Control_c, 0, 64, 88
1, 22813, Note_off_c, 0, 54, 59
1, 22820, Control_c, 0, 64, 92
1, 22835, Control_c, 0, 64, 97
1, 22850, Control_c, 0, 64, 101
1, 22865, Control_c, 0, 64, 106
1, 22867, Note_on_c, 0, 65, 55
1, 22880, Control_c, 0, 64, 112
1, 22894, Control_c, 0, 64, 119
1, 22909, Control_c, 0, 64, 127
1, 22998, Control_c, 0, 64, 110
1, 23013, Control_c, 0, 64, 89
1, 23015, Note_off_c, 0, 65, 59
1, 23028, Control_c, 0, 64, 71
1, 23033, Note_on_c, 0, 68, 56
1, 23041, Note_on_c, 0, 57, 39
1, 23043, Control_c, 0, 64, 39
1, 23047, Note_on_c, 0, 47, 38
1, 23049, Note_off_c, 0, 70, 42
1, 23058, Control_c, 0, 64, 0
1, 23073, Control_c, 0, 64, 28
1, 23087, Control_c, 0, 64, 59
1, 23102, Control_c, 0, 64, 65
1, 23117, Control_c, 0, 64, 71
1, 23132, Control_c, 0, 64, 78
1, 23141, Note_off_c, 0, 57, 59
1, 23146, Control_c, 0, 64, 84
1, 23161, Control_c, 0, 64, 87
1, 23175, Note_off_c, 0, 47, 52
1, 23176, Control_c, 0, 64, 90
1, 23191, Control_c, 0, 64, 93
1, 23206, Control_c, 0, 64, 96
1, 23220, Control_c, 0, 64, 100
1, 23235, Control_c, 0, 64, 104
1, 23250, Control_c, 0, 64, 107
1, 23267, Note_on_c, 0, 63, 44
1, 23272, Control_c, 0, 64, 110
1, 23288, Control_c, 0, 64, 113
1, 23303, Control_c, 0, 64, 115
1, 23317, Control_c, 0, 64, 117
1, 23332, Control_c, 0, 64, 120
1, 23347, Control_c, 0, 64, 126
1, 23362, Control_c, 0, 64, 127
1, 23407, Control_c, 0, 64, 119
1, 23422, Control_c, 0, 64, 103
1, 23431, Note_on_c, 0, 40, 43
1, 23436, Control_c, 0, 64, 86
1, 23451, Control_c, 0, 64, 68
1, 23466, Control_c, 0, 64, 0
1, 23498, Note_on_c, 0, 66, 58
1, 23541, Control_c, 0, 64, 41
1, 23541, Note_off_c, 0, 68, 41
1, 23549, Note_off_c, 0, 63, 37
1, 23556, Control_c, 0, 64, 63
1, 23570, Control_c, 0, 64, 68
1, 23585, Control_c, 0, 64, 75
1, 23600, Control_c, 0, 64, 81
1, 23602, Note_off_c, 0, 40, 38
1, 23615, Control_c, 0, 64, 88
1, 23630, Control_c, 0, 64, 94
1, 23644, Control_c, 0, 64, 100
1, 23659, Control_c, 0, 64, 108
1, 23674, Control_c, 0, 64, 126
1, 23689, Control_c, 0, 64, 127
1, 23708, Note_on_c, 0, 60, 59
1, 23724, Note_off_c, 0, 66, 55
1, 23911, Note_on_c, 0, 61, 46
1, 23913, Note_on_c, 0, 56, 54
1, 23955, Control_c, 0, 64, 92
1, 23970, Control_c, 0, 64, 68
1, 23985, Control_c, 0, 64, 0
1, 24032, Note_on_c, 0, 64, 66
1, 24080, Note_off_c, 0, 60, 56
1, 24081, Control_c, 0, 64, 52
1, 24097, Control_c, 0, 64, 62
1, 24112, Control_c, 0, 64, 67
1, 24127, Control_c, 0, 64, 71
1, 24141, Control_c, 0, 64, 74
1, 24156, Control_c, 0, 64, 78
1, 24158, Note_off_c, 0, 56, 63
1, 24171, Control_c, 0, 64, 82
1, 24178, Note_off_c, 0, 61, 61
1, 24186, Control_c, 0, 64, 87
1, 24200, Control_c, 0, 64, 91
1, 24215, Control_c, 0, 64, 96
1, 24230, Control_c, 0, 64, 102
1, 24245, Control_c, 0, 64, 107
1, 24259, Control_c, 0, 64, 114
1, 24274, Control_c, 0, 64, 127
1, 24292, Note_on_c, 0, 55, 35
1, 24305, Note_on_c, 0, 47, 54
1, 24327, Note_off_c, 0, 55, 52
1, 24351, Note_off_c, 0, 47, 64
1, 24428, Note_on_c, 0, 59, 54
1, 24523, Note_off_c, 0, 64, 30
1, 24541, Control_c, 0, 64, 101
1, 24550, Note_on_c, 0, 35, 58
1, 24554, Note_on_c, 0, 65, 10
1, 24556, Control_c, 0, 64, 79
1, 24571, Control_c, 0, 64, 47
1, 24585, Control_c, 0, 64, 0
1, 24588, Note_on_c, 0, 63, 57
1, 24609, Note_off_c, 0, 65, 49
1, 24630, Control_c, 0, 64, 22
1, 24645, Control_c, 0, 64, 61
1, 24656, Note_off_c, 0, 35, 63
1, 24659, Control_c, 0, 64, 67
1, 24674, Control_c, 0, 64, 73
1, 24681, Note_off_c, 0, 59, 48
1, 24689, Control_c, 0, 64, 78
1, 24703, Control_c, 0, 64, 83
1, 24718, Control_c, 0, 64, 87
1, 24727, Note_off_c, 0, 63, 63
1, 24732, Note_on_c, 0, 58, 62
1, 24733, Control_c, 0, 64, 92
1, 24748, Control_c, 0, 64, 97
1, 24771, Control_c, 0, 64, 103
1, 24785, Control_c, 0, 64, 108
1, 24800, Control_c, 0, 64, 114
1, 24815, Control_c, 0, 64, 126
1, 24827, Note_on_c, 0, 62, 63
1, 24830, Control_c, 0, 64, 127
1, 24859, Note_off_c, 0, 58, 50
1, 24867, Note_on_c, 0, 54, 50
1, 24918, Note_off_c, 0, 62, 58
1, 24926, Note_on_c, 0, 57, 68
1, 24996, Note_off_c, 0, 54, 61
1, 25008, Note_off_c, 0, 57, 62
1, 25016, Note_on_c, 0, 58, 65
1, 25022, Note_on_c, 0, 55, 63
1, 25036, Note_on_c, 0, 47, 10
1, 25052, Note_off_c, 0, 55, 64
1, 25085, Note_off_c, 0, 47, 35
1, 25106, Note_on_c, 0, 59, 72
1, 25107, Note_off_c, 0, 58, 62
1, 25156, Control_c, 0, 64, 116
1, 25171, Control_c, 0, 64, 83
1, 25174, Note_on_c, 0, 40, 67
1, 25186, Control_c, 0, 64, 62
1, 25201, Control_c, 0, 64, 0
1, 25228, Note_on_c, 0, 66, 74
1, 25237, Note_off_c, 0, 59, 60
1, 25246, Control_c, 0, 64, 41
1, 25256, Note_off_c, 0, 40, 63
1, 25261, Control_c, 0, 64, 64
1, 25276, Control_c, 0, 64, 70
1, 25290, Control_c, 0, 64, 76
1, 25305, Control_c, 0, 64, 83
1, 25320, Control_c, 0, 64, 89
1, 25334, Control_c, 0, 64, 98
1, 25349, Control_c, 0, 64, 110
1, 25364, Control_c, 0, 64, 127
1, 25382, Note_on_c, 0, 60, 73
1, 25521, Note_on_c, 0, 61, 59
1, 25521, Note_off_c, 0, 66, 55
1, 25534, Control_c, 0, 64, 96
1, 25538, Note_on_c, 0, 56, 64
1, 25549, Control_c, 0, 64, 78
1, 25564, Control_c, 0, 64, 64
1, 25579, Control_c, 0, 64, 38
1, 25594, Control_c, 0, 64, 52
1, 25597, Note_on_c, 0, 64, 65
1, 25609, Control_c, 0, 64, 63
1, 25618, Note_off_c, 0, 60, 56
1, 25623, Control_c, 0, 64, 68
1, 25638, Control_c, 0, 64, 74
1, 25651, Note_off_c, 0, 61, 60
1, 25653, Control_c, 0, 64, 84
1, 25667, Control_c, 0, 64, 94
1, 25673, Note_off_c, 0, 56, 62
1, 25684, Control_c, 0, 64, 100
1, 25699, Control_c, 0, 64, 108
1, 25713, Control_c, 0, 64, 119
1, 25728, Control_c, 0, 64, 127
1, 25777, Note_on_c, 0, 55, 53
1, 25789, Note_on_c, 0, 47, 64
1, 25809, Note_off_c, 0, 55, 64
1, 25830, Note_off_c, 0, 47, 63
1, 25889, Note_on_c, 0, 59, 59
1, 25940, Note_off_c, 0, 64, 55
1, 25964, Control_c, 0, 64, 89
1, 25979, Control_c, 0, 64, 68
1, 25991, Note_on_c, 0, 35, 55
1, 25994, Control_c, 0, 64, 0
1, 25999, Note_off_c, 0, 59, 60
1, 26000, Note_on_c, 0, 63, 61
1, 26039, Control_c, 0, 64, 49
1, 26054, Control_c, 0, 64, 65
1, 26059, Note_off_c, 0, 35, 62
1, 26068, Control_c, 0, 64, 74
1, 26083, Control_c, 0, 64, 80
1, 26098, Control_c, 0, 64, 85
1, 26100, Note_off_c, 0, 63, 62
1, 26110, Note_on_c, 0, 58, 63
1, 26113, Control_c, 0, 64, 89
1, 26128, Control_c, 0, 64, 94
1, 26143, Control_c, 0, 64, 99
1, 26157, Control_c, 0, 64, 103
1, 26172, Control_c, 0, 64, 108
1, 26187, Control_c, 0, 64, 112
1, 26202, Control_c, 0, 64, 117
1, 26206, Note_off_c, 0, 58, 54
1, 26207, Note_on_c, 0, 62, 59
1, 26217, Control_c, 0, 64, 127
1, 26231, Note_on_c, 0, 54, 50
1, 26292, Note_off_c, 0, 62, 61
1, 26326, Note_on_c, 0, 57, 59
1, 26385, Note_off_c, 0, 54, 60
1, 26397, Note_off_c, 0, 57, 61
1, 26412, Note_on_c, 0, 55, 64
1, 26416, Note_on_c, 0, 58, 64
1, 26442, Note_off_c, 0, 55, 65
1, 26466, Poly_aftertouch_c, 0, 47, 0
1, 26490, Note_off_c, 0, 58, 63
1, 26504, Poly_aftertouch_c, 0, 47, 127
1, 26517, Note_on_c, 0, 59, 64
1, 26550, Control_c, 0, 64, 96
1, 26565, Control_c, 0, 64, 68
1, 26579, Control_c, 0, 64, 0
1, 26587, Note_on_c, 0, 40, 63
1, 26602, Note_off_c, 0, 59, 59
1, 26621, Note_on_c, 0, 66, 70
1, 26624, Control_c, 0, 64, 55
1, 26625, Note_off_c, 0, 40, 64
1, 26639, Control_c, 0, 64, 67
1, 26646, Poly_aftertouch_c, 0, 47, 0
1, 26653, Control_c, 0, 64, 75
1, 26668, Control_c, 0, 64, 84
1, 26683, Control_c, 0, 64, 89
1, 26698, Control_c, 0, 64, 93
1, 26700, Note_off_c, 0, 66, 63
1, 26712, Control_c, 0, 64, 97
1, 26727, Note_on_c, 0, 60, 66
1, 26727, Control_c, 0, 64, 103
1, 26742, Control_c, 0, 64, 108
1, 26757, Control_c, 0, 64, 112
1, 26772, Control_c, 0, 64, 121
1, 26787, Control_c, 0, 64, 127
1, 26804, Note_on_c, 0, 56, 58
1, 26817, Note_on_c, 0, 64, 73
1, 26820, Note_off_c, 0, 60, 54
1, 26840, Note_on_c, 0, 61, 40
1, 26915, Note_off_c, 0, 64, 62
1, 26918, Note_on_c, 0, 68, 73
1, 26927, Note_off_c, 0, 56, 52
1, 26990, Note_off_c, 0, 61, 46
1, 27015, Note_off_c, 0, 68, 66
1, 27034, Note_on_c, 0, 71, 62
1, 27039, Note_on_c, 0, 67, 44
1, 27059, Note_off_c, 0, 71, 67
1, 27075, Note_on_c, 0, 65, 8
1, 27088, Note_off_c, 0, 67, 63
1, 27122, Note_on_c, 0, 72, 81
1, 27136, Note_off_c, 0, 65, 51
1, 27221, Note_on_c, 0, 68, 49
1, 27230, Note_off_c, 0, 72, 58
1, 27239, Control_c, 0, 64, 90
1, 27243, Note_on_c, 0, 78, 64
1, 27254, Control_c, 0, 64, 67
1, 27269, Control_c, 0, 64, 0
1, 27325, Note_off_c, 0, 78, 63
1, 27344, Control_c, 0, 64, 60
1, 27352, Note_on_c, 0, 72, 60
1, 27359, Control_c, 0, 64, 67
1, 27374, Control_c, 0, 64, 75
1, 27389, Control_c, 0, 64, 83
1, 27403, Control_c, 0, 64, 93
1, 27418, Control_c, 0, 64, 104
1, 27433, Control_c, 0, 64, 127
1, 27445, Note_off_c, 0, 68, 47
1, 27449, Note_on_c, 0, 73, 47
1, 27455, Note_on_c, 0, 76, 54
1, 27484, Note_off_c, 0, 72, 33
1, 27487, Note_off_c, 0, 73, 58
1, 27564, Note_off_c, 0, 76, 62
1, 27594, Note_on_c, 0, 80, 59
1, 27683, Note_on_c, 0, 79, 58
1, 27725, Note_off_c, 0, 80, 63
1, 27729, Note_off_c, 0, 79, 61
1, 27737, Note_on_c, 0, 83, 57
1, 27929, Note_off_c, 0, 83, 68
1, 27943, Note_on_c, 0, 84, 68
1, 28131, Note_on_c, 0, 37, 50
1, 28167, Control_c, 0, 64, 99
1, 28176, Note_on_c, 0, 87, 58
1, 28182, Control_c, 0, 64, 79
1, 28187, Note_on_c, 0, 80, 41
1, 28197, Control_c, 0, 64, 63
1, 28202, Note_off_c, 0, 84, 38
1, 28212, Control_c, 0, 64, 0
1, 28271, Control_c, 0, 64, 62
1, 28285, Control_c, 0, 64, 69
1, 28295, Note_off_c, 0, 37, 60
1, 28300, Control_c, 0, 64, 78
1, 28315, Control_c, 0, 64, 88
1, 28330, Control_c, 0, 64, 101
1, 28345, Control_c, 0, 64, 127
1, 28420, Note_on_c, 0, 83, 65
1, 28422, Note_off_c, 0, 87, 63
1, 28462, Note_off_c, 0, 80, 43
1, 28644, Note_on_c, 0, 62, 25
1, 28677, Note_on_c, 0, 59, 36
1, 28677, Note_on_c, 0, 67, 39
1, 28730, Note_on_c, 0, 86, 62
1, 28738, Note_off_c, 0, 83, 64
1, 28748, Note_on_c, 0, 79, 48
1, 28940, Note_off_c, 0, 67, 63
1, 28946, Note_on_c, 0, 66, 62
1, 28953, Note_off_c, 0, 62, 49
1, 28974, Note_off_c, 0, 66, 66
1, 28982, Note_off_c, 0, 79, 45
1, 28989, Note_off_c, 0, 59, 56
1, 29034, Note_off_c, 0, 86, 46
1, 29042, Note_on_c, 0, 78, 47
1, 29100, Note_off_c, 0, 78, 54
1, 29103, Note_on_c, 0, 82, 64
1, 29168, Control_c, 0, 64, 105
1, 29182, Control_c, 0, 64, 81
1, 29192, Note_on_c, 0, 33, 58
1, 29197, Control_c, 0, 64, 63
1, 29212, Control_c, 0, 64, 0
1, 29223, Note_on_c, 0, 43, 54
1, 29241, Control_c, 0, 64, 15
1, 29244, Note_off_c, 0, 82, 64
1, 29263, Note_on_c, 0, 85, 66
1, 29264, Control_c, 0, 64, 64
1, 29279, Control_c, 0, 64, 72
1, 29280, Note_on_c, 0, 77, 46
1, 29287, Note_off_c, 0, 33, 63
1, 29294, Control_c, 0, 64, 83
1, 29303, Note_off_c, 0, 43, 63
1, 29308, Control_c, 0, 64, 93
1, 29323, Control_c, 0, 64, 102
1, 29338, Control_c, 0, 64, 112
1, 29342, Note_off_c, 0, 77, 55
1, 29353, Control_c, 0, 64, 127
1, 29384, Note_on_c, 0, 82, 61
1, 29398, Note_off_c, 0, 85, 51
1, 29460, Note_off_c, 0, 82, 62
1, 29476, Note_on_c, 0, 65, 58
1, 29493, Note_on_c, 0, 76, 64
1, 29508, Note_on_c, 0, 59, 25
1, 29545, Note_off_c, 0, 59, 41
1, 29571, Note_off_c, 0, 76, 63
1, 29586, Note_on_c, 0, 77, 67
1, 29631, Note_off_c, 0, 65, 48
1, 29643, Note_off_c, 0, 77, 62
1, 29681, Note_on_c, 0, 66, 66
1, 29693, Note_on_c, 0, 78, 69
1, 29707, Note_off_c, 0, 66, 67
1, 29784, Note_off_c, 0, 78, 63
1, 29786, Note_on_c, 0, 81, 84
1, 29827, Control_c, 0, 64, 86
1, 29842, Control_c, 0, 64, 61
1, 29851, Note_on_c, 0, 37, 72
1, 29857, Control_c, 0, 64, 0
1, 29887, Control_c, 0, 64, 62
1, 29890, Note_off_c, 0, 37, 62
1, 29902, Note_on_c, 0, 87, 73
1, 29902, Control_c, 0, 64, 70
1, 29908, Note_off_c, 0, 81, 65
1, 29917, Note_on_c, 0, 80, 54
1, 29917, Control_c, 0, 64, 81
1, 29931, Control_c, 0, 64, 96
1, 29946, Control_c, 0, 64, 114
1, 29961, Control_c, 0, 64, 127
1, 30036, Note_off_c, 0, 80, 54
1, 30045, Note_on_c, 0, 83, 73
1, 30081, Note_off_c, 0, 87, 66
1, 30144, Note_on_c, 0, 67, 66
1, 30152, Note_on_c, 0, 62, 48
1, 30164, Note_on_c, 0, 59, 47
1, 30170, Note_on_c, 0, 86, 78
1, 30173, Note_off_c, 0, 83, 67
1, 30181, Note_on_c, 0, 79, 66
1, 30313, Note_off_c, 0, 86, 55
1, 30320, Note_off_c, 0, 79, 61
1, 30334, Note_off_c, 0, 62, 58
1, 30334, Note_off_c, 0, 67, 62
1, 30343, Note_on_c, 0, 66, 67
1, 30345, Note_on_c, 0, 78, 56
1, 30364, Note_off_c, 0, 66, 64
1, 30366, Note_off_c, 0, 59, 62
1, 30424, Note_off_c, 0, 78, 62
1, 30433, Note_on_c, 0, 82, 65
1, 30444, Poly_aftertouch_c, 0, 60, 0
1, 30471, Control_c, 0, 64, 117
1, 30487, Control_c, 0, 64, 81
1, 30502, Control_c, 0, 64, 34
1, 30517, Control_c, 0, 64, 0
1, 30519, Note_on_c, 0, 31, 79
1, 30526, Note_off_c, 0, 82, 66
1, 30529, Note_on_c, 0, 43, 67
1, 30542, Note_on_c, 0, 85, 75
1, 30547, Control_c, 0, 64, 62
1, 30548, Note_off_c, 0, 31, 65
1, 30558, Note_on_c, 0, 77, 60
1, 30561, Control_c, 0, 64, 77
1, 30568, Note_off_c, 0, 43, 64
1, 30576, Control_c, 0, 64, 96
1, 30591, Control_c, 0, 64, 127
1, 30599, Note_off_c, 0, 77, 57
1, 30642, Note_on_c, 0, 82, 70
1, 30659, Note_off_c, 0, 85, 56
1, 30719, Note_off_c, 0, 82, 65
1, 30743, Note_on_c, 0, 76, 73
1, 30751, Note_on_c, 0, 65, 72
1, 30773, Note_on_c, 0, 59, 47
1, 30818, Note_off_c, 0, 59, 57
1, 30825, Note_off_c, 0, 76, 63
1, 30836, Note_on_c, 0, 77, 74
1, 30890, Note_off_c, 0, 77, 63
1, 30924, Note_off_c, 0, 65, 63
1, 30930, Note_on_c, 0, 66, 70
1, 30940, Note_on_c, 0, 78, 75
1, 30955, Note_off_c, 0, 66, 67
1, 31038, Note_on_c, 0, 81, 84
1, 31038, Note_off_c, 0, 78, 63
1, 31102, Control_c, 0, 64, 103
1, 31117, Control_c, 0, 64, 73
1, 31122, Note_on_c, 0, 37, 73
1, 31132, Control_c, 0, 64, 0
1, 31139, Note_off_c, 0, 81, 65
1, 31144, Note_on_c, 0, 87, 75
1, 31145, Note_on_c, 0, 80, 76
1, 31154, Note_off_c, 0, 37, 65
1, 31176, Control_c, 0, 64, 50
1, 31191, Control_c, 0, 64, 68
1, 31205, Control_c, 0, 64, 80
1, 31220, Control_c, 0, 64, 97
1, 31235, Control_c, 0, 64, 127
1, 31246, Note_on_c, 0, 83, 78
1, 31246, Note_off_c, 0, 80, 65
1, 31296, Control_c, 0, 67, 124
1, 31310, Control_c, 0, 67, 104
1, 31325, Control_c, 0, 67, 82
1, 31337, Note_off_c, 0, 87, 0
1, 31340, Control_c, 0, 67, 58
1, 31342, Note_off_c, 0, 83, 66
1, 31342, Note_on_c, 0, 79, 80
1, 31351, Note_on_c, 0, 67, 69
1, 31354, Note_on_c, 0, 59, 58
1, 31355, Control_c, 0, 67, 37
1, 31366, Note_on_c, 0, 62, 53
1, 31367, Note_on_c, 0, 87, 7
1, 31370, Control_c, 0, 67, 18
1, 31384, Control_c, 0, 67, 0
1, 31425, Note_off_c, 0, 87, 48
1, 31433, Note_on_c, 0, 80, 82
1, 31454, Note_off_c, 0, 79, 61
1, 31511, Note_off_c, 0, 62, 60
1, 31538, Note_on_c, 0, 82, 81
1, 31538, Note_off_c, 0, 67, 59
1, 31544, Note_on_c, 0, 66, 69
1, 31547, Note_off_c, 0, 59, 62
1, 31557, Note_off_c, 0, 80, 63
1, 31612, Note_off_c, 0, 82, 67
1, 31626, Note_on_c, 0, 83, 88
1, 31688, Note_off_c, 0, 83, 66
1, 31717, Note_off_c, 0, 66, 62
1, 31719, Note_on_c, 0, 71, 69
1, 31724, Note_on_c, 0, 65, 67
1, 31725, Note_on_c, 0, 88, 88
1, 31826, Note_on_c, 0, 86, 82
1, 31857, Note_off_c, 0, 88, 62
1, 31923, Note_on_c, 0, 82, 83
1, 31926, Note_off_c, 0, 65, 64
1, 31930, Note_off_c, 0, 86, 60
1, 31933, Note_on_c, 0, 64, 69
1, 32016, Note_off_c, 0, 82, 66
1, 32024, Note_on_c, 0, 83, 84
1, 32126, Note_off_c, 0, 71, 30
1, 32128, Note_on_c, 0, 63, 67
1, 32141, Note_on_c, 0, 87, 82
1, 32153, Note_off_c, 0, 64, 63
1, 32167, Note_off_c, 0, 83, 62
1, 32182, Note_off_c, 0, 63, 65
1, 32259, Note_off_c, 0, 87, 67
1, 32272, Note_on_c, 0, 92, 83
1, 32316, Note_off_c, 0, 92, 64
1, 32471, Note_on_c, 0, 41, 87
1, 32474, Note_on_c, 0, 29, 82
1, 32481, Control_c, 0, 64, 110
1, 32483, Note_on_c, 0, 91, 94
1, 32486, Note_on_c, 0, 79, 93
1, 32488, Note_on_c, 0, 81, 98
1, 32496, Control_c, 0, 64, 81
1, 32505, Note_on_c, 0, 89, 65
1, 32506, Note_off_c, 0, 89, 127
1, 32506, Note_off_c, 0, 81, 75
1, 32507, Note_on_c, 0, 87, 46
1, 32508, Note_off_c, 0, 87, 127
1, 32510, Note_off_c, 0, 79, 66
1, 32511, Control_c, 0, 64, 0
1, 32514, Note_off_c, 0, 29, 64
1, 32525, Note_off_c, 0, 91, 64
1, 32528, Note_on_c, 0, 86, 19
1, 32529, Note_off_c, 0, 86, 127
1, 32529, Note_off_c, 0, 41, 62
1, 32576, Note_on_c, 0, 41, 71
1, 32578, Note_on_c, 0, 91, 86
1, 32582, Note_on_c, 0, 29, 82
1, 32583, Note_on_c, 0, 81, 86
1, 32584, Note_on_c, 0, 87, 88
1, 32585, Note_on_c, 0, 79, 81
1, 32604, Note_off_c, 0, 87, 72
1, 32607, Note_off_c, 0, 81, 59
1, 32609, Note_off_c, 0, 79, 67
1, 32614, Note_off_c, 0, 91, 63
1, 32619, Note_off_c, 0, 29, 66
1, 32628, Note_off_c, 0, 41, 61
1, 32644, Control_c, 0, 64, 70
1, 32659, Control_c, 0, 64, 90
1, 32664, Note_on_c, 0, 89, 89
1, 32666, Note_on_c, 0, 41, 70
1, 32668, Note_on_c, 0, 81, 90
1, 32671, Note_on_c, 0, 29, 81
1, 32674, Control_c, 0, 64, 127
1, 32676, Note_on_c, 0, 79, 72
1, 32689, Note_off_c, 0, 81, 62
1, 32692, Note_on_c, 0, 87, 39
1, 32698, Note_off_c, 0, 79, 66
1, 32700, Note_off_c, 0, 29, 64
1, 32703, Note_off_c, 0, 89, 61
1, 32720, Note_off_c, 0, 41, 65
1, 32722, Note_off_c, 0, 87, 56
1, 32960, Note_on_c, 0, 59, 80
1, 32961, Note_on_c, 0, 66, 82
1, 32966, Note_on_c, 0, 78, 91
1, 32967, Note_on_c, 0, 69, 89
1, 32983, Note_off_c, 0, 66, 68
1, 32987, Note_off_c, 0, 69, 72
1, 33013, Note_off_c, 0, 59, 67
1, 33015, Note_off_c, 0, 78, 60
1, 33102, Poly_aftertouch_c, 0, 66, 127
1, 33126, Poly_aftertouch_c, 0, 66, 0
1, 33186, Control_c, 0, 64, 103
1, 33200, Control_c, 0, 64, 75
1, 33207, Note_on_c, 0, 27, 85
1, 33208, Note_on_c, 0, 39, 83
1, 33214, Note_on_c, 0, 89, 93
1, 33215, Control_c, 0, 64, 0
1, 33218, Note_on_c, 0, 79, 94
1, 33220, Note_on_c, 0, 77, 82
1, 33226, Note_on_c, 0, 85, 71
1, 33239, Note_on_c, 0, 32, 32
1, 33240, Note_off_c, 0, 32, 127
1, 33240, Note_off_c, 0, 79, 65
1, 33241, Note_off_c, 0, 77, 70
1, 33252, Note_off_c, 0, 85, 66
1, 33255, Note_off_c, 0, 27, 61
1, 33257, Note_off_c, 0, 89, 62
1, 33263, Note_off_c, 0, 39, 61
1, 33288, Poly_aftertouch_c, 0, 32, 0
1, 33298, Note_on_c, 0, 89, 85
1, 33299, Note_on_c, 0, 79, 88
1, 33300, Note_on_c, 0, 85, 90
1, 33302, Note_on_c, 0, 39, 63
1, 33306, Note_on_c, 0, 27, 71
1, 33307, Note_on_c, 0, 77, 74
1, 33319, Control_c, 0, 64, 67
1, 33328, Note_off_c, 0, 79, 65
1, 33331, Note_off_c, 0, 77, 67
1, 33334, Control_c, 0, 64, 79
1, 33336, Note_off_c, 0, 39, 65
1, 33336, Note_off_c, 0, 27, 66
1, 33341, Note_off_c, 0, 89, 67
1, 33343, Note_off_c, 0, 85, 66
1, 33348, Control_c, 0, 64, 93
1, 33363, Control_c, 0, 64, 109
1, 33378, Control_c, 0, 64, 127
1, 33386, Note_on_c, 0, 89, 84
1, 33391, Note_on_c, 0, 85, 77
1, 33393, Note_on_c, 0, 79, 84
1, 33396, Note_on_c, 0, 77, 61
1, 33397, Note_on_c, 0, 27, 75
1, 33405, Note_off_c, 0, 79, 67
1, 33406, Note_on_c, 0, 39, 74
1, 33410, Note_off_c, 0, 89, 63
1, 33414, Note_off_c, 0, 85, 66
1, 33425, Note_off_c, 0, 27, 65
1, 33425, Note_off_c, 0, 77, 64
1, 33435, Note_off_c, 0, 39, 64
1, 33538, Poly_aftertouch_c, 0, 79, 0
1, 33601, Note_on_c, 0, 57, 87
1, 33607, Note_on_c, 0, 76, 94
1, 33607, Note_on_c, 0, 64, 77
1, 33617, Note_on_c, 0, 67, 73
1, 33619, Note_on_c, 0, 69, 68
1, 33628, Note_off_c, 0, 76, 68
1, 33633, Note_off_c, 0, 64, 69
1, 33634, Note_off_c, 0, 67, 65
1, 33636, Note_off_c, 0, 69, 66
1, 33640, Note_off_c, 0, 57, 64
1, 33801, Control_c, 0, 64, 94
1, 33816, Control_c, 0, 64, 66
1, 33828, Note_on_c, 0, 41, 92
1, 33830, Note_on_c, 0, 91, 95
1, 33831, Control_c, 0, 64, 0
1, 33831, Note_on_c, 0, 81, 101
1, 33834, Note_on_c, 0, 79, 85
1, 33836, Note_on_c, 0, 87, 82
1, 33843, Note_on_c, 0, 29, 68
1, 33843, Note_on_c, 0, 35, 67
1, 33844, Note_off_c, 0, 35, 127
1, 33850, Note_on_c, 0, 33, 52
1, 33851, Note_off_c, 0, 33, 127
1, 33855, Note_off_c, 0, 79, 68
1, 33856, Note_off_c, 0, 81, 62
1, 33857, Note_off_c, 0, 87, 73
1, 33863, Note_on_c, 0, 31, 33
1, 33875, Note_off_c, 0, 91, 65
1, 33876, Note_off_c, 0, 29, 62
1, 33888, Poly_aftertouch_c, 0, 33, 0
1, 33889, Note_off_c, 0, 41, 62
1, 33905, Note_off_c, 0, 31, 42
1, 33914, Note_on_c, 0, 91, 83
1, 33917, Note_on_c, 0, 81, 92
1, 33924, Note_on_c, 0, 41, 67
1, 33924, Note_on_c, 0, 87, 72
1, 33929, Note_on_c, 0, 79, 59
1, 33935, Control_c, 0, 64, 67
1, 33936, Poly_aftertouch_c, 0, 40, 0
1, 33939, Note_on_c, 0, 29, 71
1, 33941, Note_off_c, 0, 81, 63
1, 33946, Note_off_c, 0, 79, 62
1, 33948, Note_off_c, 0, 87, 69
1, 33950, Control_c, 0, 64, 82
1, 33960, Note_off_c, 0, 41, 64
1, 33960, Note_off_c, 0, 91, 65
1, 33965, Control_c, 0, 64, 104
1, 33980, Control_c, 0, 64, 127
1, 33999, Note_on_c, 0, 91, 78
1, 34002, Note_on_c, 0, 87, 80
1, 34009, Note_on_c, 0, 81, 82
1, 34012, Note_on_c, 0, 79, 68
1, 34018, Note_on_c, 0, 41, 81
1, 34021, Note_off_c, 0, 29, 68
1, 34021, Note_off_c, 0, 81, 70
1, 34022, Note_off_c, 0, 87, 72
1, 34023, Note_off_c, 0, 91, 70
1, 34046, Note_off_c, 0, 79, 68
1, 34048, Note_off_c, 0, 41, 65
1, 34179, Note_on_c, 0, 75, 27
1, 34215, Note_on_c, 0, 78, 92
1, 34217, Note_off_c, 0, 75, 45
1, 34221, Note_on_c, 0, 69, 79
1, 34223, Note_on_c, 0, 59, 74
1, 34223, Note_on_c, 0, 66, 80
1, 34242, Note_off_c, 0, 69, 68
1, 34244, Note_off_c, 0, 66, 69
1, 34250, Note_on_c, 0, 79, 49
1, 34257, Note_off_c, 0, 78, 60
1, 34265, Note_off_c, 0, 59, 66
1, 34271, Note_off_c, 0, 79, 60
1, 34283, Poly_aftertouch_c, 0, 62, 0
1, 34409, Control_c, 0, 64, 112
1, 34424, Control_c, 0, 64, 76
1, 34436, Note_on_c, 0, 39, 85
1, 34439, Note_on_c, 0, 89, 99
1, 34439, Control_c, 0, 64, 0
1, 34441, Note_on_c, 0, 27, 75
1, 34441, Note_on_c, 0, 79, 91
1, 34445, Note_on_c, 0, 32, 68
1, 34446, Note_off_c, 0, 32, 127
1, 34448, Note_on_c, 0, 30, 61
1, 34449, Note_off_c, 0, 30, 127
1, 34450, Note_on_c, 0, 85, 77
1, 34451, Note_on_c, 0, 77, 77
1, 34465, Note_off_c, 0, 79, 61
1, 34475, Note_off_c, 0, 85, 69
1, 34476, Note_off_c, 0, 77, 69
1, 34481, Note_off_c, 0, 27, 63
1, 34487, Note_off_c, 0, 39, 60
1, 34496, Note_off_c, 0, 89, 65
1, 34507, Control_c, 0, 64, 64
1, 34521, Control_c, 0, 64, 77
1, 34531, Note_on_c, 0, 89, 78
1, 34536, Control_c, 0, 64, 95
1, 34542, Note_on_c, 0, 79, 64
1, 34546, Note_on_c, 0, 85, 72
1, 34547, Note_on_c, 0, 77, 71
1, 34551, Control_c, 0, 64, 127
1, 34552, Note_on_c, 0, 39, 54
1, 34558, Note_on_c, 0, 27, 71
1, 34562, Note_off_c, 0, 79, 59
1, 34565, Note_off_c, 0, 77, 64
1, 34570, Note_off_c, 0, 85, 69
1, 34585, Note_off_c, 0, 39, 62
1, 34585, Note_off_c, 0, 89, 63
1, 34586, Note_off_c, 0, 27, 63
1, 34613, Note_on_c, 0, 89, 68
1, 34617, Note_on_c, 0, 85, 86
1, 34628, Note_on_c, 0, 79, 63
1, 34633, Note_on_c, 0, 77, 65
1, 34640, Note_on_c, 0, 27, 64
1, 34641, Note_on_c, 0, 39, 73
1, 34644, Note_off_c, 0, 89, 68
1, 34644, Note_off_c, 0, 79, 63
1, 34648, Note_off_c, 0, 85, 62
1, 34651, Note_off_c, 0, 77, 61
1, 34668, Note_off_c, 0, 39, 64
1, 34669, Note_off_c, 0, 27, 56
1, 34853, Note_on_c, 0, 57, 81
1, 34856, Note_on_c, 0, 76, 80
1, 34859, Note_on_c, 0, 69, 45
1, 34861, Note_on_c, 0, 67, 76
1, 34861, Note_on_c, 0, 72, 75
1, 34862, Note_on_c, 0, 64, 64
1, 34880, Note_off_c, 0, 64, 64
1, 34886, Note_off_c, 0, 69, 55
1, 34886, Note_off_c, 0, 67, 68
1, 34889, Note_off_c, 0, 72, 67
1, 34892, Note_off_c, 0, 57, 63
1, 34894, Note_off_c, 0, 76, 62
1, 35008, Control_c, 0, 64, 96
1, 35023, Control_c, 0, 64, 74
1, 35038, Control_c, 0, 64, 26
1, 35053, Control_c, 0, 64, 0
1, 35112, Control_c, 0, 64, 47
1, 35127, Control_c, 0, 64, 64
1, 35130, Note_on_c, 0, 79, 53
1, 35140, Note_on_c, 0, 41, 52
1, 35142, Control_c, 0, 64, 70
1, 35142, Note_on_c, 0, 53, 59
1, 35142, Note_on_c, 0, 75, 45
1, 35157, Control_c, 0, 64, 78
1, 35164, Note_on_c, 0, 67, 23
1, 35171, Note_off_c, 0, 41, 59
1, 35171, Control_c, 0, 64, 87
1, 35178, Note_off_c, 0, 53, 62
1, 35186, Poly_aftertouch_c, 0, 69, 127
1, 35186, Poly_aftertouch_c, 0, 72, 127
1, 35186, Control_c, 0, 64, 98
1, 35201, Control_c, 0, 64, 127
1, 35203, Note_off_c, 0, 67, 50
1, 35205, Note_off_c, 0, 79, 61
1, 35217, Poly_aftertouch_c, 0, 72, 0
1, 35230, Poly_aftertouch_c, 0, 69, 0
1, 35313, Control_c, 0, 64, 91
1, 35327, Note_on_c, 0, 78, 3
1, 35327, Control_c, 0, 64, 68
1, 35335, Note_off_c, 0, 75, 52
1, 35342, Control_c, 0, 64, 0
1, 35349, Note_on_c, 0, 68, 76
1, 35350, Note_on_c, 0, 80, 77
1, 35352, Note_on_c, 0, 59, 75
1, 35356, Note_on_c, 0, 47, 65
1, 35357, Control_c, 0, 64, 57
1, 35367, Note_off_c, 0, 78, 46
1, 35372, Control_c, 0, 64, 71
1, 35378, Note_off_c, 0, 59, 66
1, 35387, Control_c, 0, 64, 90
1, 35396, Note_off_c, 0, 68, 62
1, 35402, Note_off_c, 0, 47, 61
1, 35402, Control_c, 0, 64, 127
1, 35406, Note_off_c, 0, 80, 64
1, 35491, Control_c, 0, 64, 100
1, 35498, Note_on_c, 0, 73, 13
1, 35506, Control_c, 0, 64, 76
1, 35520, Control_c, 0, 64, 56
1, 35530, Note_on_c, 0, 81, 92
1, 35532, Note_on_c, 0, 69, 80
1, 35535, Control_c, 0, 64, 41
1, 35540, Note_on_c, 0, 43, 69
1, 35541, Note_off_c, 0, 73, 53
1, 35542, Note_on_c, 0, 55, 78
1, 35550, Control_c, 0, 64, 66
1, 35565, Control_c, 0, 64, 78
1, 35567, Note_off_c, 0, 43, 63
1, 35578, Note_off_c, 0, 55, 64
1, 35580, Control_c, 0, 64, 102
1, 35584, Note_off_c, 0, 69, 57
1, 35589, Note_off_c, 0, 81, 64
1, 35594, Control_c, 0, 64, 127
1, 35628, Poly_aftertouch_c, 0, 79, 127
1, 35658, Note_on_c, 0, 73, 25
1, 35683, Control_c, 0, 64, 113
1, 35688, Poly_aftertouch_c, 0, 79, 0
1, 35698, Control_c, 0, 64, 85
1, 35699, Note_off_c, 0, 73, 57
1, 35712, Control_c, 0, 64, 66
1, 35725, Note_on_c, 0, 70, 92
1, 35727, Note_on_c, 0, 82, 77
1, 35727, Control_c, 0, 64, 46
1, 35733, Note_on_c, 0, 61, 83
1, 35738, Note_on_c, 0, 49, 71
1, 35742, Control_c, 0, 64, 64
1, 35751, Note_on_c, 0, 80, 52
1, 35757, Control_c, 0, 64, 76
1, 35772, Control_c, 0, 64, 99
1, 35775, Note_off_c, 0, 70, 63
1, 35776, Note_off_c, 0, 80, 38
1, 35781, Note_off_c, 0, 61, 61
1, 35783, Note_off_c, 0, 49, 60
1, 35786, Control_c, 0, 64, 127
1, 35809, Note_off_c, 0, 82, 66
1, 35861, Control_c, 0, 64, 99
1, 35876, Control_c, 0, 64, 76
1, 35891, Control_c, 0, 64, 52
1, 35905, Control_c, 0, 64, 38
1, 35907, Note_on_c, 0, 71, 84
1, 35911, Note_on_c, 0, 83, 71
1, 35914, Note_on_c, 0, 45, 76
1, 35918, Note_on_c, 0, 57, 82
1, 35920, Control_c, 0, 64, 66
1, 35935, Control_c, 0, 64, 80
1, 35942, Note_off_c, 0, 45, 65
1, 35950, Control_c, 0, 64, 127
1, 35957, Note_off_c, 0, 71, 62
1, 35959, Note_off_c, 0, 83, 58
1, 35964, Note_off_c, 0, 57, 62
1, 36061, Control_c, 0, 64, 109
1, 36077, Control_c, 0, 64, 81
1, 36092, Control_c, 0, 64, 60
1, 36106, Control_c, 0, 64, 0
1, 36111, Note_on_c, 0, 63, 87
1, 36111, Note_on_c, 0, 72, 105
1, 36111, Note_on_c, 0, 75, 23
1, 36116, Note_on_c, 0, 51, 83
1, 36117, Note_on_c, 0, 82, 64
1, 36117, Note_on_c, 0, 79, 54
1, 36119, Note_on_c, 0, 84, 86
1, 36121, Control_c, 0, 64, 63
1, 36130, Note_off_c, 0, 63, 70
1, 36135, Note_off_c, 0, 72, 66
1, 36136, Control_c, 0, 64, 76
1, 36138, Note_off_c, 0, 79, 62
1, 36141, Note_off_c, 0, 51, 64
1, 36143, Note_off_c, 0, 75, 60
1, 36150, Control_c, 0, 64, 104
1, 36153, Note_off_c, 0, 82, 66
1, 36162, Note_off_c, 0, 84, 66
1, 36165, Control_c, 0, 64, 127
1, 36168, Note_on_c, 0, 50, 27
1, 36206, Note_off_c, 0, 50, 47
1, 36329, Control_c, 0, 64, 90
1, 36343, Control_c, 0, 64, 66
1, 36345, Note_on_c, 0, 36, 78
1, 36348, Note_on_c, 0, 48, 86
1, 36353, Note_on_c, 0, 84, 91
1, 36354, Note_on_c, 0, 76, 93
1, 36358, Control_c, 0, 64, 0
1, 36361, Note_on_c, 0, 82, 70
1, 36361, Note_on_c, 0, 88, 76
1, 36376, Note_off_c, 0, 76, 67
1, 36382, Note_off_c, 0, 84, 61
1, 36384, Note_off_c, 0, 36, 65
1, 36385, Note_off_c, 0, 82, 70
1, 36392, Note_off_c, 0, 88, 66
1, 36397, Note_off_c, 0, 48, 57
1, 36437, Note_on_c, 0, 48, 67
1, 36446, Note_on_c, 0, 76, 76
1, 36448, Note_on_c, 0, 36, 79
1, 36448, Note_on_c, 0, 84, 78
1, 36449, Note_on_c, 0, 88, 72
1, 36472, Note_off_c, 0, 76, 62
1, 36472, Note_off_c, 0, 84, 69
1, 36476, Control_c, 0, 64, 47
1, 36478, Note_off_c, 0, 48, 61
1, 36480, Note_off_c, 0, 36, 68
1, 36485, Note_off_c, 0, 88, 60
1, 36491, Control_c, 0, 64, 72
1, 36506, Control_c, 0, 64, 84
1, 36517, Note_on_c, 0, 88, 70
1, 36521, Control_c, 0, 64, 104
1, 36524, Note_on_c, 0, 76, 83
1, 36533, Note_on_c, 0, 48, 75
1, 36534, Note_on_c, 0, 36, 80
1, 36535, Control_c, 0, 64, 127
1, 36553, Note_off_c, 0, 76, 57
1, 36553, Note_off_c, 0, 88, 64
1, 36564, Note_off_c, 0, 36, 65
1, 36578, Note_off_c, 0, 48, 64
1, 36722, Note_on_c, 0, 63, 86
1, 36725, Note_on_c, 0, 54, 76
1, 36731, Note_on_c, 0, 75, 93
1, 36733, Note_on_c, 0, 66, 90
1, 36749, Note_off_c, 0, 63, 70
1, 36750, Note_on_c, 0, 58, 55
1, 36755, Note_off_c, 0, 54, 66
1, 36758, Note_off_c, 0, 66, 73
1, 36761, Note_off_c, 0, 75, 61
1, 36774, Note_off_c, 0, 58, 58
1, 36847, Poly_aftertouch_c, 0, 76, 0
1, 36915, Control_c, 0, 64, 116
1, 36929, Control_c, 0, 64, 79
1, 36944, Control_c, 0, 64, 0
1, 36950, Note_on_c, 0, 46, 95
1, 36953, Note_on_c, 0, 74, 95
1, 36953, Note_on_c, 0, 86, 84
1, 36961, Note_on_c, 0, 37, 69
1, 36962, Note_off_c, 0, 37, 127
1, 36965, Note_on_c, 0, 39, 63
1, 36966, Note_off_c, 0, 39, 127
1, 36968, Note_on_c, 0, 34, 62
1, 36973, Control_c, 0, 64, 40
1, 36976, Note_on_c, 0, 84, 53
1, 36988, Control_c, 0, 64, 73
1, 36989, Note_off_c, 0, 74, 61
1, 36993, Note_off_c, 0, 84, 41
1, 36993, Note_off_c, 0, 86, 63
1, 36995, Note_off_c, 0, 46, 59
1, 36999, Note_off_c, 0, 34, 63
1, 37003, Control_c, 0, 64, 96
1, 37018, Control_c, 0, 64, 127
1, 37036, Note_on_c, 0, 74, 74
1, 37038, Note_on_c, 0, 86, 79
1, 37046, Note_on_c, 0, 46, 76
1, 37047, Control_c, 0, 64, 104
1, 37057, Note_on_c, 0, 34, 74
1, 37062, Control_c, 0, 64, 69
1, 37065, Note_off_c, 0, 74, 62
1, 37069, Note_off_c, 0, 46, 70
1, 37077, Control_c, 0, 64, 0
1, 37080, Note_off_c, 0, 86, 61
1, 37107, Control_c, 0, 64, 30
1, 37114, Note_on_c, 0, 86, 75
1, 37118, Note_off_c, 0, 34, 0
1, 37122, Control_c, 0, 64, 73
1, 37128, Note_on_c, 0, 74, 62
1, 37129, Note_on_c, 0, 34, 59
1, 37130, Note_on_c, 0, 46, 88
1, 37137, Control_c, 0, 64, 99
1, 37140, Note_on_c, 0, 76, 47
1, 37146, Note_off_c, 0, 86, 64
1, 37151, Control_c, 0, 64, 127
1, 37154, Note_off_c, 0, 34, 66
1, 37157, Note_off_c, 0, 74, 66
1, 37165, Note_off_c, 0, 76, 56
1, 37172, Note_off_c, 0, 46, 62
1, 37314, Control_c, 0, 64, 105
1, 37329, Control_c, 0, 64, 76
1, 37344, Control_c, 0, 64, 0
1, 37353, Note_on_c, 0, 52, 72
1, 37354, Note_on_c, 0, 56, 50
1, 37357, Note_on_c, 0, 61, 77
1, 37360, Note_on_c, 0, 59, 35
1, 37362, Note_on_c, 0, 73, 82
1, 37367, Note_on_c, 0, 64, 78
1, 37373, Control_c, 0, 64, 67
1, 37384, Note_off_c, 0, 61, 67
1, 37387, Poly_aftertouch_c, 0, 70, 0
1, 37388, Note_off_c, 0, 64, 69
1, 37388, Control_c, 0, 64, 89
1, 37390, Note_off_c, 0, 59, 65
1, 37399, Note_off_c, 0, 73, 62
1, 37403, Control_c, 0, 64, 127
1, 37403, Control_c, 0, 67, 15
1, 37416, Note_off_c, 0, 56, 65
1, 37418, Control_c, 0, 67, 39
1, 37419, Note_off_c, 0, 52, 63
1, 37433, Control_c, 0, 67, 81
1, 37447, Control_c, 0, 67, 127
1, 37477, Control_c, 0, 64, 121
1, 37499, Control_c, 0, 64, 87
1, 37514, Control_c, 0, 64, 68
1, 37529, Control_c, 0, 64, 0
1, 37845, Note_on_c, 0, 64, 49
1, 37852, Note_on_c, 0, 58, 25
1, 37855, Note_on_c, 0, 36, 24
1, 37861, Note_on_c, 0, 62, 36
1, 37870, Note_on_c, 0, 48, 21
1, 37870, Control_c, 0, 64, 38
1, 37885, Control_c, 0, 64, 51
1, 37900, Control_c, 0, 64, 60
1, 37915, Control_c, 0, 64, 64
1, 37929, Note_off_c, 0, 48, 55
1, 37929, Control_c, 0, 64, 67
1, 37944, Control_c, 0, 64, 71
1, 37959, Control_c, 0, 64, 73
1, 37974, Control_c, 0, 64, 76
1, 37978, Note_off_c, 0, 62, 50
1, 37986, Note_off_c, 0, 36, 32
1, 37989, Control_c, 0, 64, 79
1, 38004, Control_c, 0, 64, 82
1, 38019, Control_c, 0, 64, 85
1, 38034, Control_c, 0, 64, 89
1, 38048, Control_c, 0, 64, 94
1, 38055, Note_off_c, 0, 58, 44
1, 38063, Control_c, 0, 64, 101
1, 38078, Control_c, 0, 64, 109
1, 38093, Control_c, 0, 64, 127
1, 38152, Control_c, 0, 64, 117
1, 38165, Note_off_c, 0, 64, 60
1, 38167, Control_c, 0, 64, 95
1, 38180, Note_on_c, 0, 42, 42
1, 38180, Note_on_c, 0, 65, 60
1, 38182, Control_c, 0, 64, 80
1, 38188, Note_on_c, 0, 58, 45
1, 38189, Note_on_c, 0, 49, 43
1, 38195, Note_on_c, 0, 61, 40
1, 38196, Control_c, 0, 64, 67
1, 38211, Control_c, 0, 64, 62
1, 38226, Control_c, 0, 64, 65
1, 38240, Note_off_c, 0, 61, 61
1, 38248, Control_c, 0, 64, 72
1, 38254, Note_off_c, 0, 58, 61
1, 38263, Control_c, 0, 64, 82
1, 38278, Control_c, 0, 64, 97
1, 38293, Control_c, 0, 64, 127
1, 38303, Note_off_c, 0, 65, 61
1, 38346, Note_off_c, 0, 49, 47
1, 38382, Control_c, 0, 64, 93
1, 38396, Control_c, 0, 64, 73
1, 38411, Control_c, 0, 64, 56
1, 38417, Note_on_c, 0, 38, 53
1, 38418, Note_on_c, 0, 66, 72
1, 38418, Note_off_c, 0, 42, 48
1, 38426, Control_c, 0, 64, 58
1, 38433, Note_on_c, 0, 60, 48
1, 38436, Note_on_c, 0, 50, 44
1, 38440, Control_c, 0, 64, 68
1, 38451, Note_off_c, 0, 38, 65
1, 38453, Note_off_c, 0, 66, 64
1, 38455, Control_c, 0, 64, 78
1, 38457, Note_off_c, 0, 60, 55
1, 38471, Control_c, 0, 64, 93
1, 38482, Note_off_c, 0, 50, 61
1, 38486, Control_c, 0, 64, 114
1, 38501, Control_c, 0, 64, 127
1, 38575, Control_c, 0, 64, 113
1, 38590, Control_c, 0, 64, 92
1, 38605, Control_c, 0, 64, 74
1, 38615, Note_on_c, 0, 69, 72
1, 38617, Note_on_c, 0, 60, 62
1, 38619, Control_c, 0, 64, 44
1, 38630, Note_on_c, 0, 54, 68
1, 38634, Note_on_c, 0, 63, 40
1, 38634, Control_c, 0, 64, 0
1, 38643, Note_on_c, 0, 44, 41
1, 38646, Note_off_c, 0, 69, 60
1, 38648, Note_off_c, 0, 60, 64
1, 38659, Note_off_c, 0, 54, 63
1, 38664, Note_off_c, 0, 63, 52
1, 38673, Note_off_c, 0, 44, 50
1, 38712, Note_on_c, 0, 60, 64
1, 38716, Note_on_c, 0, 54, 73
1, 38716, Note_on_c, 0, 69, 66
1, 38738, Note_off_c, 0, 60, 62
1, 38745, Note_off_c, 0, 69, 65
1, 38746, Note_off_c, 0, 54, 64
1, 38752, Note_on_c, 0, 44, 39
1, 38782, Control_c, 0, 64, 53
1, 38797, Control_c, 0, 64, 65
1, 38803, Note_on_c, 0, 60, 64
1, 38812, Control_c, 0, 64, 71
1, 38816, Note_on_c, 0, 69, 58
1, 38817, Note_off_c, 0, 44, 0
1, 38827, Control_c, 0, 64, 78
1, 38834, Note_on_c, 0, 44, 29
1, 38841, Note_off_c, 0, 60, 57
1, 38842, Control_c, 0, 64, 89
1, 38857, Control_c, 0, 64, 98
1, 38871, Control_c, 0, 64, 111
1, 38877, Poly_aftertouch_c, 0, 54, 127
1, 38882, Note_off_c, 0, 69, 47
1, 38886, Control_c, 0, 64, 127
1, 38924, Poly_aftertouch_c, 0, 54, 0
1, 38925, Note_off_c, 0, 44, 0
1, 38975, Control_c, 0, 64, 91
1, 38997, Control_c, 0, 64, 71
1, 39007, Note_on_c, 0, 68, 64
1, 39012, Control_c, 0, 64, 46
1, 39017, Note_on_c, 0, 49, 63
1, 39024, Poly_aftertouch_c, 0, 44, 0
1, 39026, Control_c, 0, 64, 56
1, 39041, Control_c, 0, 64, 68
1, 39056, Control_c, 0, 64, 79
1, 39071, Control_c, 0, 64, 98
1, 39071, Control_c, 0, 67, 122
1, 39086, Control_c, 0, 64, 127
1, 39086, Control_c, 0, 67, 102
1, 39096, Note_off_c, 0, 49, 60
1, 39101, Control_c, 0, 67, 83
1, 39116, Control_c, 0, 67, 68
1, 39131, Control_c, 0, 67, 58
1, 39145, Control_c, 0, 67, 54
1, 39160, Control_c, 0, 67, 52
1, 39175, Control_c, 0, 64, 105
1, 39175, Control_c, 0, 67, 50
1, 39176, Note_off_c, 0, 68, 35
1, 39189, Control_c, 0, 64, 79
1, 39189, Control_c, 0, 67, 42
1, 39204, Control_c, 0, 64, 53
1, 39204, Control_c, 0, 67, 29
1, 39208, Note_on_c, 0, 67, 75
1, 39211, Note_on_c, 0, 40, 57
1, 39211, Note_on_c, 0, 47, 56
1, 39211, Note_on_c, 0, 56, 68
1, 39219, Control_c, 0, 64, 0
1, 39219, Control_c, 0, 67, 12
1, 39234, Control_c, 0, 64, 32
1, 39234, Control_c, 0, 67, 0
1, 39249, Control_c, 0, 64, 67
1, 39262, Note_off_c, 0, 56, 59
1, 39265, Control_c, 0, 64, 79
1, 39280, Control_c, 0, 64, 97
1, 39294, Control_c, 0, 64, 127
1, 39304, Note_off_c, 0, 67, 58
1, 39383, Control_c, 0, 64, 91
1, 39384, Note_off_c, 0, 40, 36
1, 39396, Note_on_c, 0, 57, 78
1, 39398, Note_off_c, 0, 47, 57
1, 39398, Control_c, 0, 64, 65
1, 39399, Note_on_c, 0, 68, 77
1, 39399, Note_on_c, 0, 45, 63
1, 39412, Control_c, 0, 64, 0
1, 39421, Note_on_c, 0, 52, 49
1, 39442, Control_c, 0, 64, 62
1, 39453, Note_off_c, 0, 57, 62
1, 39457, Control_c, 0, 64, 75
1, 39472, Control_c, 0, 64, 95
1, 39486, Control_c, 0, 64, 127
1, 39530, Note_off_c, 0, 52, 54
1, 39546, Control_c, 0, 64, 81
1, 39560, Control_c, 0, 64, 15
1, 39564, Note_off_c, 0, 68, 62
1, 39568, Note_off_c, 0, 45, 58
1, 39575, Control_c, 0, 64, 0
1, 39580, Note_on_c, 0, 69, 79
1, 39584, Note_on_c, 0, 42, 65
1, 39584, Note_on_c, 0, 58, 85
1, 39584, Note_on_c, 0, 49, 69
1, 39590, Control_c, 0, 64, 51
1, 39603, Note_on_c, 0, 64, 49
1, 39605, Control_c, 0, 64, 72
1, 39611, Note_off_c, 0, 58, 66
1, 39619, Note_off_c, 0, 49, 63
1, 39620, Control_c, 0, 64, 87
1, 39622, Note_off_c, 0, 42, 62
1, 39628, Note_off_c, 0, 64, 56
1, 39633, Note_off_c, 0, 69, 63
1, 39635, Control_c, 0, 64, 127
1, 39760, Control_c, 0, 64, 107
1, 39775, Control_c, 0, 64, 82
1, 39778, Note_on_c, 0, 57, 79
1, 39779, Note_on_c, 0, 61, 89
1, 39782, Note_on_c, 0, 72, 89
1, 39789, Note_on_c, 0, 47, 59
1, 39790, Control_c, 0, 64, 57
1, 39805, Note_off_c, 0, 61, 64
1, 39805, Control_c, 0, 64, 0
1, 39807, Note_off_c, 0, 57, 63
1, 39821, Note_off_c, 0, 72, 49
1, 39824, Note_off_c, 0, 47, 65
1, 39867, Note_on_c, 0, 61, 83
1, 39872, Note_on_c, 0, 72, 85
1, 39879, Note_on_c, 0, 57, 71
1, 39879, Control_c, 0, 64, 37
1, 39891, Note_off_c, 0, 61, 66
1, 39894, Control_c, 0, 64, 57
1, 39894, Note_on_c, 0, 47, 50
1, 39899, Note_off_c, 0, 72, 63
1, 39907, Note_off_c, 0, 57, 67
1, 39909, Control_c, 0, 64, 65
1, 39924, Control_c, 0, 64, 70
1, 39925, Note_off_c, 0, 47, 54
1, 39939, Control_c, 0, 64, 77
1, 39953, Control_c, 0, 64, 85
1, 39959, Note_on_c, 0, 61, 80
1, 39967, Note_on_c, 0, 72, 78
1, 39968, Control_c, 0, 64, 95
1, 39977, Note_on_c, 0, 57, 54
1, 39978, Note_on_c, 0, 47, 47
1, 39983, Control_c, 0, 64, 112
1, 39998, Control_c, 0, 64, 127
1, 40011, Note_off_c, 0, 61, 54
1, 40013, Note_off_c, 0, 72, 57
1, 40013, Note_off_c, 0, 57, 60
1, 40051, Note_off_c, 0, 47, 55
1, 40162, Control_c, 0, 64, 104
1, 40177, Control_c, 0, 64, 81
1, 40190, Note_on_c, 0, 71, 71
1, 40191, Control_c, 0, 64, 65
1, 40203, Note_on_c, 0, 60, 54
1, 40206, Control_c, 0, 64, 57
1, 40208, Note_on_c, 0, 44, 57
1, 40210, Note_on_c, 0, 66, 52
1, 40210, Note_on_c, 0, 56, 49
1, 40221, Control_c, 0, 64, 64
1, 40235, Control_c, 0, 64, 69
1, 40250, Control_c, 0, 64, 78
1, 40260, Note_off_c, 0, 60, 56
1, 40265, Control_c, 0, 64, 91
1, 40269, Note_off_c, 0, 71, 61
1, 40272, Note_off_c, 0, 66, 58
1, 40280, Control_c, 0, 64, 111
1, 40295, Control_c, 0, 64, 127
1, 40354, Control_c, 0, 64, 104
1, 40359, Note_off_c, 0, 56, 34
1, 40369, Control_c, 0, 64, 83
1, 40383, Note_on_c, 0, 60, 65
1, 40383, Note_on_c, 0, 69, 63
1, 40383, Control_c, 0, 64, 67
1, 40387, Note_on_c, 0, 50, 58
1, 40390, Note_on_c, 0, 66, 62
1, 40398, Control_c, 0, 64, 63
1, 40413, Note_off_c, 0, 44, 34
1, 40413, Control_c, 0, 64, 68
1, 40427, Note_off_c, 0, 60, 53
1, 40427, Control_c, 0, 64, 78
1, 40442, Control_c, 0, 64, 100
1, 40457, Control_c, 0, 64, 127
1, 40459, Note_off_c, 0, 69, 60
1, 40469, Note_off_c, 0, 66, 54
1, 40539, Control_c, 0, 64, 122
1, 40554, Control_c, 0, 64, 88
1, 40569, Control_c, 0, 64, 69
1, 40582, Note_on_c, 0, 59, 70
1, 40584, Control_c, 0, 64, 60
1, 40585, Note_on_c, 0, 70, 72
1, 40598, Control_c, 0, 64, 66
1, 40601, Note_on_c, 0, 55, 59
1, 40613, Control_c, 0, 64, 75
1, 40628, Note_off_c, 0, 59, 60
1, 40628, Control_c, 0, 64, 94
1, 40642, Control_c, 0, 64, 127
1, 40717, Control_c, 0, 64, 106
1, 40731, Control_c, 0, 64, 80
1, 40739, Note_off_c, 0, 70, 63
1, 40746, Control_c, 0, 64, 49
1, 40761, Control_c, 0, 64, 24
1, 40772, Note_on_c, 0, 71, 73
1, 40776, Control_c, 0, 64, 64
1, 40779, Note_on_c, 0, 58, 67
1, 40779, Note_on_c, 0, 48, 65
1, 40780, Note_on_c, 0, 64, 52
1, 40784, Note_off_c, 0, 55, 61
1, 40785, Note_off_c, 0, 50, 37
1, 40791, Control_c, 0, 64, 74
1, 40802, Note_off_c, 0, 64, 61
1, 40806, Control_c, 0, 64, 93
1, 40808, Note_off_c, 0, 58, 69
1, 40818, Note_off_c, 0, 48, 64
1, 40821, Control_c, 0, 64, 127
1, 40850, Note_off_c, 0, 71, 62
1, 40936, Note_on_c, 0, 63, 78
1, 40942, Note_on_c, 0, 72, 79
1, 40953, Note_on_c, 0, 68, 64
1, 40954, Note_on_c, 0, 41, 68
1, 40994, Note_off_c, 0, 63, 62
1, 41021, Note_off_c, 0, 68, 55
1, 41027, Note_off_c, 0, 72, 63
1, 41126, Note_on_c, 0, 73, 81
1, 41132, Note_on_c, 0, 62, 77
1, 41134, Note_on_c, 0, 46, 77
1, 41137, Note_off_c, 0, 41, 62
1, 41140, Note_on_c, 0, 34, 69
1, 41167, Note_on_c, 0, 67, 30
1, 41194, Note_off_c, 0, 62, 59
1, 41201, Note_off_c, 0, 67, 47
1, 41295, Note_off_c, 0, 73, 63
1, 41315, Note_on_c, 0, 74, 79
1, 41319, Note_on_c, 0, 61, 83
1, 41320, Note_on_c, 0, 67, 63
1, 41331, Note_on_c, 0, 39, 76
1, 41337, Note_off_c, 0, 34, 59
1, 41342, Note_off_c, 0, 46, 61
1, 41346, Note_off_c, 0, 67, 64
1, 41365, Note_off_c, 0, 61, 59
1, 41393, Note_off_c, 0, 74, 64
1, 41480, Control_c, 0, 64, 90
1, 41495, Control_c, 0, 64, 63
1, 41500, Note_on_c, 0, 75, 78
1, 41504, Note_on_c, 0, 70, 58
1, 41506, Note_on_c, 0, 66, 83
1, 41510, Control_c, 0, 64, 0
1, 41511, Note_on_c, 0, 32, 75
1, 41515, Note_on_c, 0, 44, 80
1, 41536, Note_off_c, 0, 39, 61
1, 41536, Note_off_c, 0, 70, 48
1, 41539, Note_on_c, 0, 71, 47
1, 41539, Control_c, 0, 64, 59
1, 41554, Control_c, 0, 64, 72
1, 41569, Control_c, 0, 64, 89
1, 41581, Note_off_c, 0, 32, 63
1, 41584, Control_c, 0, 64, 127
1, 41593, Note_off_c, 0, 66, 63
1, 41602, Note_off_c, 0, 44, 60
1, 41670, Note_off_c, 0, 75, 57
1, 41696, Note_on_c, 0, 76, 74
1, 41708, Note_on_c, 0, 49, 77
1, 41709, Note_on_c, 0, 65, 70
1, 41715, Note_on_c, 0, 37, 67
1, 41715, Note_on_c, 0, 64, 49
1, 41739, Note_off_c, 0, 64, 58
1, 41756, Note_off_c, 0, 37, 61
1, 41770, Note_off_c, 0, 65, 63
1, 41775, Note_off_c, 0, 76, 63
1, 41779, Note_off_c, 0, 49, 62
1, 41808, Note_off_c, 0, 71, 29
1, 41881, Note_on_c, 0, 77, 92
1, 41884, Note_on_c, 0, 54, 80
1, 41886, Note_on_c, 0, 65, 74
1, 41891, Note_on_c, 0, 64, 59
1, 41906, Note_off_c, 0, 65, 63
1, 41919, Note_off_c, 0, 64, 65
1, 41941, Note_off_c, 0, 77, 58
1, 41960, Note_off_c, 0, 54, 60
1, 42022, Control_c, 0, 64, 122
1, 42037, Control_c, 0, 64, 77
1, 42052, Control_c, 0, 64, 0
1, 42067, Note_on_c, 0, 47, 73
1, 42071, Note_on_c, 0, 59, 77
1, 42074, Note_on_c, 0, 54, 71
1, 42078, Note_on_c, 0, 78, 90
1, 42079, Note_on_c, 0, 69, 85
1, 42095, Poly_aftertouch_c, 0, 74, 127
1, 42096, Control_c, 0, 64, 60
1, 42106, Note_off_c, 0, 47, 61
1, 42111, Control_c, 0, 64, 73
1, 42117, Poly_aftertouch_c, 0, 74, 0
1, 42126, Control_c, 0, 64, 90
1, 42129, Note_off_c, 0, 59, 63
1, 42134, Note_off_c, 0, 54, 62
1, 42136, Note_off_c, 0, 69, 58
1, 42141, Control_c, 0, 64, 127
1, 42244, Control_c, 0, 64, 103
1, 42246, Note_off_c, 0, 78, 59
1, 42259, Control_c, 0, 64, 74
1, 42274, Control_c, 0, 64, 0
1, 42279, Note_on_c, 0, 79, 88
1, 42280, Note_on_c, 0, 68, 88
1, 42280, Note_on_c, 0, 52, 80
1, 42291, Note_on_c, 0, 62, 66
1, 42291, Note_on_c, 0, 64, 72
1, 42303, Note_off_c, 0, 68, 64
1, 42303, Control_c, 0, 64, 60
1, 42315, Note_off_c, 0, 52, 59
1, 42318, Control_c, 0, 64, 77
1, 42327, Note_off_c, 0, 62, 58
1, 42328, Note_off_c, 0, 64, 59
1, 42328, Note_off_c, 0, 79, 64
1, 42332, Control_c, 0, 64, 115
1, 42347, Control_c, 0, 64, 127
1, 42467, Control_c, 0, 64, 95
1, 42482, Control_c, 0, 64, 71
1, 42497, Control_c, 0, 64, 0
1, 42504, Note_on_c, 0, 84, 92
1, 42505, Note_on_c, 0, 73, 95
1, 42511, Note_on_c, 0, 67, 88
1, 42512, Note_on_c, 0, 79, 79
1, 42517, Note_on_c, 0, 57, 76
1, 42521, Note_on_c, 0, 63, 77
1, 42526, Control_c, 0, 64, 63
1, 42536, Note_off_c, 0, 79, 68
1, 42541, Control_c, 0, 64, 84
1, 42545, Note_off_c, 0, 73, 64
1, 42552, Note_off_c, 0, 84, 66
1, 42556, Note_off_c, 0, 57, 60
1, 42556, Control_c, 0, 64, 127
1, 42563, Note_off_c, 0, 63, 61
1, 42570, Note_off_c, 0, 67, 59
1, 42620, Poly_aftertouch_c, 0, 75, 0
1, 42780, Note_on_c, 0, 69, 80
1, 42782, Note_on_c, 0, 62, 69
1, 42785, Note_on_c, 0, 65, 74
1, 42790, Note_on_c, 0, 83, 95
1, 42792, Note_on_c, 0, 74, 83
1, 42794, Note_on_c, 0, 72, 89
1, 42800, Control_c, 0, 64, 112
1, 42814, Note_off_c, 0, 74, 69
1, 42815, Note_off_c, 0, 69, 61
1, 42815, Note_off_c, 0, 72, 72
1, 42815, Note_off_c, 0, 65, 68
1, 42815, Control_c, 0, 64, 78
1, 42823, Note_off_c, 0, 62, 61
1, 42824, Note_on_c, 0, 80, 31
1, 42825, Note_off_c, 0, 80, 127
1, 42830, Control_c, 0, 64, 0
1, 42834, Note_off_c, 0, 83, 65
1, 42859, Note_on_c, 0, 69, 77
1, 42869, Note_on_c, 0, 65, 79
1, 42870, Note_on_c, 0, 62, 66
1, 42875, Note_on_c, 0, 83, 86
1, 42881, Note_on_c, 0, 74, 80
1, 42888, Note_on_c, 0, 72, 80
1, 42899, Note_off_c, 0, 65, 70
1, 42904, Note_off_c, 0, 62, 65
1, 42904, Note_off_c, 0, 74, 70
1, 42905, Control_c, 0, 64, 61
1, 42909, Note_off_c, 0, 69, 63
1, 42914, Note_off_c, 0, 72, 69
1, 42917, Note_off_c, 0, 83, 67
1, 42919, Control_c, 0, 64, 69
1, 42934, Control_c, 0, 64, 80
1, 42949, Control_c, 0, 64, 94
1, 42951, Note_on_c, 0, 65, 73
1, 42956, Note_on_c, 0, 62, 78
1, 42956, Note_on_c, 0, 83, 78
1, 42963, Control_c, 0, 64, 117
1, 42964, Note_on_c, 0, 74, 70
1, 42978, Note_off_c, 0, 74, 70
1, 42978, Control_c, 0, 64, 127
1, 42980, Note_off_c, 0, 65, 69
1, 42982, Note_off_c, 0, 83, 69
1, 42985, Note_on_c, 0, 72, 58
1, 43002, Note_off_c, 0, 62, 59
1, 43004, Note_off_c, 0, 72, 66
1, 43244, Note_on_c, 0, 66, 96
1, 43244, Note_on_c, 0, 58, 96
1, 43255, Note_on_c, 0, 50, 74
1, 43273, Note_off_c, 0, 58, 60
1, 43288, Note_off_c, 0, 66, 57
1, 43297, Note_off_c, 0, 50, 55
1, 43474, Note_on_c, 0, 59, 85
1, 43474, Note_on_c, 0, 69, 88
1, 43486, Note_on_c, 0, 50, 72
1, 43490, Control_c, 0, 64, 110
1, 43494, Note_on_c, 0, 64, 72
1, 43496, Note_on_c, 0, 43, 69
1, 43505, Control_c, 0, 64, 81
1, 43516, Note_off_c, 0, 59, 60
1, 43520, Control_c, 0, 64, 0
1, 43522, Note_off_c, 0, 64, 68
1, 43531, Note_off_c, 0, 43, 63
1, 43532, Note_off_c, 0, 69, 62
1, 43562, Note_on_c, 0, 59, 82
1, 43566, Note_on_c, 0, 69, 71
1, 43569, Note_off_c, 0, 50, 0
1, 43590, Note_on_c, 0, 64, 51
1, 43591, Note_on_c, 0, 43, 80
1, 43597, Note_off_c, 0, 59, 62
1, 43604, Note_off_c, 0, 69, 60
1, 43607, Poly_aftertouch_c, 0, 50, 127
1, 43614, Note_off_c, 0, 64, 39
1, 43639, Control_c, 0, 64, 45
1, 43644, Note_on_c, 0, 69, 71
1, 43654, Note_on_c, 0, 59, 53
1, 43654, Control_c, 0, 64, 70
1, 43655, Note_off_c, 0, 43, 64
1, 43668, Control_c, 0, 64, 78
1, 43673, Note_on_c, 0, 57, 78
1, 43674, Note_off_c, 0, 59, 61
1, 43682, Poly_aftertouch_c, 0, 50, 0
1, 43683, Control_c, 0, 64, 88
1, 43688, Note_off_c, 0, 69, 63
1, 43697, Note_off_c, 0, 57, 68
1, 43698, Control_c, 0, 64, 96
1, 43703, Note_on_c, 0, 64, 3
1, 43713, Control_c, 0, 64, 108
1, 43728, Control_c, 0, 64, 127
1, 43737, Note_off_c, 0, 64, 44
1, 43868, Note_on_c, 0, 88, 97
1, 43872, Note_on_c, 0, 62, 77
1, 43873, Note_on_c, 0, 76, 87
1, 43873, Note_on_c, 0, 73, 80
1, 43879, Note_on_c, 0, 70, 78
1, 43879, Note_on_c, 0, 74, 72
1, 43891, Note_off_c, 0, 76, 73
1, 43898, Note_off_c, 0, 73, 69
1, 43900, Note_off_c, 0, 88, 65
1, 43904, Note_off_c, 0, 74, 66
1, 43914, Note_off_c, 0, 70, 63
1, 43918, Note_off_c, 0, 62, 62
1, 44094, Note_on_c, 0, 69, 84
1, 44099, Note_on_c, 0, 83, 95
1, 44099, Control_c, 0, 64, 101
1, 44100, Note_on_c, 0, 62, 71
1, 44101, Note_on_c, 0, 72, 92
1, 44103, Note_on_c, 0, 65, 71
1, 44114, Control_c, 0, 64, 72
1, 44123, Note_on_c, 0, 74, 53
1, 44126, Note_on_c, 0, 77, 44
1, 44126, Note_off_c, 0, 69, 61
1, 44128, Control_c, 0, 64, 0
1, 44129, Note_off_c, 0, 72, 65
1, 44130, Note_off_c, 0, 65, 68
1, 44131, Note_off_c, 0, 62, 62
1, 44142, Note_off_c, 0, 83, 63
1, 44144, Note_off_c, 0, 77, 40
1, 44145, Note_off_c, 0, 74, 38
1, 44185, Note_on_c, 0, 69, 72
1, 44185, Note_on_c, 0, 72, 95
1, 44185, Note_on_c, 0, 83, 83
1, 44188, Note_on_c, 0, 65, 70
1, 44188, Control_c, 0, 64, 38
1, 44190, Note_on_c, 0, 67, 70
1, 44195, Note_on_c, 0, 62, 53
1, 44202, Control_c, 0, 64, 67
1, 44214, Note_off_c, 0, 83, 69
1, 44215, Note_off_c, 0, 72, 65
1, 44216, Note_off_c, 0, 65, 67
1, 44217, Control_c, 0, 64, 74
1, 44219, Note_off_c, 0, 69, 65
1, 44222, Note_off_c, 0, 67, 60
1, 44238, Note_off_c, 0, 62, 60
1, 44240, Control_c, 0, 64, 84
1, 44255, Control_c, 0, 64, 93
1, 44270, Control_c, 0, 64, 108
1, 44271, Note_on_c, 0, 72, 95
1, 44272, Note_on_c, 0, 83, 86
1, 44280, Note_on_c, 0, 65, 67
1, 44283, Note_on_c, 0, 62, 56
1, 44284, Control_c, 0, 64, 127
1, 44290, Note_on_c, 0, 67, 31
1, 44293, Note_off_c, 0, 72, 70
1, 44293, Note_off_c, 0, 83, 68
1, 44308, Note_off_c, 0, 65, 67
1, 44313, Note_off_c, 0, 67, 59
1, 44315, Note_off_c, 0, 62, 65
1, 44496, Note_on_c, 0, 58, 101
1, 44498, Note_on_c, 0, 66, 96
1, 44507, Note_on_c, 0, 50, 76
1, 44520, Note_off_c, 0, 66, 66
1, 44525, Note_off_c, 0, 58, 60
1, 44539, Note_off_c, 0, 50, 65
1, 44710, Note_on_c, 0, 50, 80
1, 44710, Note_on_c, 0, 59, 90
1, 44712, Note_on_c, 0, 69, 87
1, 44714, Control_c, 0, 64, 93
1, 44716, Note_on_c, 0, 43, 72
1, 44719, Note_on_c, 0, 64, 80
1, 44728, Control_c, 0, 64, 63
1, 44741, Note_off_c, 0, 64, 71
1, 44743, Control_c, 0, 64, 0
1, 44744, Note_off_c, 0, 59, 60
1, 44744, Note_off_c, 0, 43, 66
1, 44759, Note_off_c, 0, 69, 62
1, 44768, Note_off_c, 0, 50, 61
1, 44792, Note_on_c, 0, 59, 84
1, 44793, Poly_aftertouch_c, 0, 69, 0
1, 44798, Note_on_c, 0, 69, 76
1, 44805, Note_on_c, 0, 43, 79
1, 44809, Note_on_c, 0, 64, 70
1, 44824, Note_off_c, 0, 64, 68
1, 44830, Note_off_c, 0, 69, 64
1, 44832, Note_off_c, 0, 59, 64
1, 44832, Control_c, 0, 64, 63
1, 44843, Note_on_c, 0, 50, 40
1, 44847, Control_c, 0, 64, 71
1, 44863, Control_c, 0, 64, 78
1, 44874, Note_on_c, 0, 69, 79
1, 44875, Note_on_c, 0, 59, 71
1, 44878, Control_c, 0, 64, 85
1, 44879, Note_off_c, 0, 43, 64
1, 44881, Note_on_c, 0, 64, 75
1, 44893, Control_c, 0, 64, 92
1, 44895, Note_off_c, 0, 59, 73
1, 44903, Note_on_c, 0, 57, 70
1, 44906, Note_off_c, 0, 50, 63
1, 44907, Control_c, 0, 64, 103
1, 44908, Note_off_c, 0, 64, 68
1, 44922, Control_c, 0, 64, 127
1, 44926, Note_off_c, 0, 69, 64
1, 44929, Note_off_c, 0, 57, 65
1, 45134, Note_on_c, 0, 88, 94
1, 45140, Note_on_c, 0, 82, 81
1, 45143, Note_on_c, 0, 76, 72
1, 45147, Note_on_c, 0, 70, 78
1, 45147, Note_on_c, 0, 73, 74
1, 45156, Note_off_c, 0, 76, 68
1, 45157, Note_on_c, 0, 63, 28
1, 45159, Note_on_c, 0, 74, 50
1, 45161, Note_on_c, 0, 62, 75
1, 45165, Note_off_c, 0, 82, 64
1, 45169, Note_off_c, 0, 73, 68
1, 45177, Note_off_c, 0, 70, 64
1, 45178, Note_off_c, 0, 88, 67
1, 45182, Note_off_c, 0, 74, 58
1, 45196, Note_off_c, 0, 63, 46
1, 45199, Note_off_c, 0, 62, 61
1, 45394, Note_on_c, 0, 50, 65
1, 45396, Note_on_c, 0, 43, 72
1, 45403, Control_c, 0, 67, 18
1, 45417, Control_c, 0, 64, 88
1, 45417, Control_c, 0, 67, 36
1, 45432, Control_c, 0, 64, 56
1, 45432, Control_c, 0, 67, 64
1, 45447, Control_c, 0, 64, 0
1, 45447, Control_c, 0, 67, 102
1, 45462, Control_c, 0, 67, 127
1, 45487, Note_off_c, 0, 43, 60
1, 45491, Control_c, 0, 64, 62
1, 45506, Control_c, 0, 64, 71
1, 45512, Note_on_c, 0, 74, 68
1, 45519, Note_off_c, 0, 50, 62
1, 45521, Control_c, 0, 64, 83
1, 45522, Note_on_c, 0, 62, 52
1, 45536, Control_c, 0, 64, 95
1, 45544, Note_off_c, 0, 62, 57
1, 45550, Control_c, 0, 64, 106
1, 45565, Control_c, 0, 64, 127
1, 45623, Note_on_c, 0, 64, 63
1, 45635, Note_on_c, 0, 50, 64
1, 45647, Note_on_c, 0, 59, 55
1, 45680, Note_off_c, 0, 50, 58
1, 45686, Note_off_c, 0, 59, 61
1, 45740, Note_off_c, 0, 74, 63
1, 45741, Note_off_c, 0, 64, 61
1, 45746, Note_on_c, 0, 66, 75
1, 45838, Note_on_c, 0, 74, 65
1, 45838, Note_off_c, 0, 66, 64
1, 45839, Note_on_c, 0, 67, 77
1, 45931, Note_on_c, 0, 71, 80
1, 45938, Note_off_c, 0, 67, 63
1, 45960, Note_off_c, 0, 74, 64
1, 45973, Control_c, 0, 67, 126
1, 45977, Note_off_c, 0, 71, 66
1, 45988, Control_c, 0, 67, 103
1, 46003, Control_c, 0, 67, 76
1, 46018, Control_c, 0, 67, 50
1, 46023, Note_on_c, 0, 62, 69
1, 46023, Note_on_c, 0, 69, 82
1, 46033, Control_c, 0, 67, 31
1, 46047, Control_c, 0, 64, 101
1, 46047, Control_c, 0, 67, 21
1, 46062, Control_c, 0, 64, 80
1, 46062, Control_c, 0, 67, 13
1, 46077, Control_c, 0, 64, 63
1, 46077, Control_c, 0, 67, 0
1, 46092, Control_c, 0, 64, 0
1, 46108, Note_on_c, 0, 74, 82
1, 46136, Control_c, 0, 64, 46
1, 46151, Control_c, 0, 64, 64
1, 46166, Control_c, 0, 64, 70
1, 46181, Control_c, 0, 64, 79
1, 46195, Note_on_c, 0, 59, 68
1, 46195, Control_c, 0, 64, 92
1, 46203, Note_off_c, 0, 62, 52
1, 46210, Control_c, 0, 64, 106
1, 46213, Note_off_c, 0, 74, 65
1, 46216, Note_on_c, 0, 76, 78
1, 46220, Note_on_c, 0, 66, 66
1, 46225, Control_c, 0, 64, 127
1, 46238, Note_off_c, 0, 59, 58
1, 46251, Note_off_c, 0, 66, 65
1, 46253, Note_off_c, 0, 69, 59
1, 46324, Note_on_c, 0, 78, 84
1, 46327, Note_off_c, 0, 76, 64
1, 46395, Note_off_c, 0, 78, 67
1, 46410, Note_on_c, 0, 74, 64
1, 46416, Note_on_c, 0, 71, 64
1, 46417, Note_on_c, 0, 79, 85
1, 46441, Note_off_c, 0, 74, 65
1, 46449, Note_off_c, 0, 71, 66
1, 46568, Note_off_c, 0, 79, 58
1, 46574, Note_on_c, 0, 83, 82
1, 46664, Control_c, 0, 64, 101
1, 46678, Control_c, 0, 64, 78
1, 46693, Control_c, 0, 64, 52
1, 46705, Note_on_c, 0, 62, 49
1, 46705, Note_on_c, 0, 53, 45
1, 46708, Control_c, 0, 64, 0
1, 46710, Note_on_c, 0, 57, 45
1, 46718, Note_off_c, 0, 83, 66
1, 46732, Note_on_c, 0, 88, 67
1, 46747, Note_on_c, 0, 81, 54
1, 46748, Note_on_c, 0, 76, 44
1, 46753, Control_c, 0, 64, 58
1, 46768, Control_c, 0, 64, 66
1, 46779, Note_off_c, 0, 62, 61
1, 46783, Control_c, 0, 64, 71
1, 46786, Note_off_c, 0, 81, 62
1, 46792, Note_off_c, 0, 76, 47
1, 46796, Note_off_c, 0, 57, 54
1, 46797, Control_c, 0, 64, 77
1, 46810, Note_off_c, 0, 53, 59
1, 46812, Control_c, 0, 64, 83
1, 46817, Note_off_c, 0, 88, 58
1, 46827, Control_c, 0, 64, 90
1, 46842, Control_c, 0, 64, 96
1, 46857, Control_c, 0, 64, 103
1, 46871, Control_c, 0, 64, 115
1, 46885, Note_on_c, 0, 88, 56
1, 46886, Control_c, 0, 64, 127
1, 46892, Note_on_c, 0, 76, 56
1, 46916, Note_on_c, 0, 81, 48
1, 46947, Note_off_c, 0, 76, 56
1, 46949, Note_off_c, 0, 81, 54
1, 46974, Note_off_c, 0, 88, 62
1, 47070, Note_on_c, 0, 43, 58
1, 47077, Note_on_c, 0, 88, 59
1, 47085, Note_on_c, 0, 76, 46
1, 47086, Note_on_c, 0, 50, 43
1, 47097, Note_on_c, 0, 81, 54
1, 47134, Note_off_c, 0, 43, 58
1, 47155, Note_off_c, 0, 50, 60
1, 47196, Note_off_c, 0, 88, 58
1, 47253, Note_off_c, 0, 76, 61
1, 47287, Note_off_c, 0, 81, 42
1, 47374, Note_on_c, 0, 86, 72
1, 47380, Note_on_c, 0, 74, 57
1, 47382, Note_on_c, 0, 55, 49
1, 47388, Note_on_c, 0, 64, 46
1, 47393, Note_on_c, 0, 59, 53
1, 47418, Note_on_c, 0, 79, 30
1, 47462, Note_off_c, 0, 79, 46
1, 47502, Note_on_c, 0, 83, 68
1, 47502, Note_off_c, 0, 74, 63
1, 47508, Note_off_c, 0, 86, 55
1, 47535, Note_off_c, 0, 83, 69
1, 47537, Note_off_c, 0, 64, 60
1, 47547, Note_off_c, 0, 59, 59
1, 47549, Note_off_c, 0, 55, 53
1, 47617, Note_on_c, 0, 88, 79
1, 47625, Note_on_c, 0, 76, 62
1, 47639, Note_on_c, 0, 81, 51
1, 47647, Note_off_c, 0, 76, 60
1, 47666, Note_off_c, 0, 81, 54
1, 47671, Note_off_c, 0, 88, 60
1, 47715, Note_on_c, 0, 88, 63
1, 47718, Note_on_c, 0, 76, 65
1, 47733, Note_on_c, 0, 81, 66
1, 47750, Note_off_c, 0, 76, 66
1, 47752, Note_off_c, 0, 81, 64
1, 47761, Note_off_c, 0, 88, 60
1, 47799, Note_on_c, 0, 88, 67
1, 47808, Note_on_c, 0, 69, 68
1, 47811, Note_on_c, 0, 76, 68
1, 47813, Note_on_c, 0, 81, 76
1, 47814, Note_on_c, 0, 59, 58
1, 47817, Note_on_c, 0, 65, 59
1, 47835, Note_off_c, 0, 76, 66
1, 47837, Note_off_c, 0, 81, 68
1, 47858, Note_off_c, 0, 88, 64
1, 47910, Note_off_c, 0, 69, 49
1, 47915, Note_off_c, 0, 65, 59
1, 47966, Note_off_c, 0, 59, 61
1, 48041, Note_on_c, 0, 86, 75
1, 48044, Note_on_c, 0, 74, 75
1, 48062, Note_on_c, 0, 79, 43
1, 48088, Note_off_c, 0, 79, 55
1, 48106, Note_on_c, 0, 83, 70
1, 48108, Note_off_c, 0, 74, 63
1, 48134, Note_off_c, 0, 86, 59
1, 48158, Note_off_c, 0, 83, 66
1, 48176, Control_c, 0, 64, 114
1, 48191, Control_c, 0, 64, 81
1, 48206, Control_c, 0, 64, 54
1, 48217, Note_on_c, 0, 62, 53
1, 48219, Note_on_c, 0, 53, 61
1, 48221, Control_c, 0, 64, 0
1, 48226, Note_on_c, 0, 57, 54
1, 48234, Note_on_c, 0, 88, 85
1, 48236, Control_c, 0, 64, 33
1, 48240, Note_on_c, 0, 76, 76
1, 48240, Note_off_c, 0, 62, 58
1, 48249, Note_on_c, 0, 81, 70
1, 48250, Note_off_c, 0, 53, 64
1, 48250, Control_c, 0, 64, 67
1, 48253, Note_off_c, 0, 57, 62
1, 48265, Control_c, 0, 64, 79
1, 48267, Note_off_c, 0, 76, 65
1, 48267, Note_off_c, 0, 81, 65
1, 48280, Control_c, 0, 64, 99
1, 48283, Note_off_c, 0, 88, 60
1, 48295, Control_c, 0, 64, 127
1, 48327, Note_on_c, 0, 88, 74
1, 48345, Note_on_c, 0, 76, 56
1, 48352, Note_on_c, 0, 81, 44
1, 48360, Note_off_c, 0, 76, 67
1, 48385, Note_off_c, 0, 81, 52
1, 48399, Note_off_c, 0, 88, 0
1, 48409, Note_on_c, 0, 88, 68
1, 48410, Note_on_c, 0, 50, 54
1, 48417, Note_on_c, 0, 76, 71
1, 48419, Note_on_c, 0, 43, 71
1, 48426, Note_on_c, 0, 81, 73
1, 48443, Note_off_c, 0, 76, 68
1, 48451, Note_off_c, 0, 81, 68
1, 48453, Note_off_c, 0, 43, 62
1, 48458, Note_off_c, 0, 88, 65
1, 48475, Note_off_c, 0, 50, 62
1, 48639, Note_on_c, 0, 64, 72
1, 48641, Note_on_c, 0, 55, 68
1, 48646, Note_on_c, 0, 74, 81
1, 48646, Note_on_c, 0, 86, 75
1, 48651, Note_on_c, 0, 59, 55
1, 48657, Note_on_c, 0, 88, 56
1, 48661, Note_on_c, 0, 79, 53
1, 48683, Note_off_c, 0, 79, 59
1, 48685, Note_off_c, 0, 88, 51
1, 48705, Note_on_c, 0, 83, 67
1, 48705, Note_off_c, 0, 74, 64
1, 48738, Note_off_c, 0, 86, 62
1, 48755, Note_off_c, 0, 64, 62
1, 48755, Note_off_c, 0, 83, 65
1, 48766, Note_off_c, 0, 59, 60
1, 48770, Note_off_c, 0, 55, 60
1, 48854, Note_on_c, 0, 88, 90
1, 48865, Note_on_c, 0, 76, 63
1, 48869, Note_on_c, 0, 81, 68
1, 48881, Note_on_c, 0, 77, 56
1, 48887, Note_off_c, 0, 81, 64
1, 48888, Note_off_c, 0, 76, 62
1, 48896, Note_off_c, 0, 88, 61
1, 48902, Note_off_c, 0, 77, 59
1, 48952, Note_on_c, 0, 88, 88
1, 48953, Note_on_c, 0, 76, 84
1, 48959, Note_on_c, 0, 81, 78
1, 48983, Note_off_c, 0, 81, 69
1, 48986, Note_off_c, 0, 76, 61
1, 48993, Note_on_c, 0, 77, 24
1, 48993, Note_off_c, 0, 88, 67
1, 49030, Note_on_c, 0, 59, 73
1, 49033, Note_on_c, 0, 88, 84
1, 49036, Note_on_c, 0, 69, 65
1, 49038, Note_off_c, 0, 77, 48
1, 49039, Note_on_c, 0, 76, 77
1, 49039, Note_on_c, 0, 81, 79
1, 49039, Note_on_c, 0, 65, 63
1, 49061, Note_off_c, 0, 69, 64
1, 49062, Note_off_c, 0, 76, 67
1, 49065, Note_off_c, 0, 81, 68
1, 49067, Note_off_c, 0, 65, 67
1, 49078, Note_off_c, 0, 88, 64
1, 49087, Note_off_c, 0, 59, 61
1, 49249, Note_on_c, 0, 86, 99
1, 49252, Note_on_c, 0, 74, 85
1, 49260, Note_on_c, 0, 79, 73
1, 49281, Note_off_c, 0, 79, 65
1, 49333, Note_on_c, 0, 83, 78
1, 49343, Note_off_c, 0, 74, 60
1, 49362, Poly_aftertouch_c, 0, 76, 0
1, 49368, Note_off_c, 0, 86, 59
1, 49369, Control_c, 0, 64, 102
1, 49383, Note_off_c, 0, 83, 67
1, 49384, Control_c, 0, 64, 71
1, 49398, Control_c, 0, 64, 0
1, 49431, Note_on_c, 0, 47, 65
1, 49433, Note_on_c, 0, 40, 76
1, 49447, Note_on_c, 0, 88, 99
1, 49449, Note_on_c, 0, 76, 87
1, 49457, Note_on_c, 0, 80, 83
1, 49457, Control_c, 0, 64, 72
1, 49475, Note_off_c, 0, 47, 64
1, 49476, Note_off_c, 0, 40, 64
1, 49480, Control_c, 0, 64, 96
1, 49486, Note_off_c, 0, 80, 70
1, 49491, Note_off_c, 0, 76, 61
1, 49495, Control_c, 0, 64, 127
1, 49503, Note_off_c, 0, 88, 65
1, 49552, Note_on_c, 0, 88, 86
1, 49558, Note_on_c, 0, 76, 76
1, 49564, Note_on_c, 0, 80, 70
1, 49588, Note_off_c, 0, 80, 68
1, 49591, Note_off_c, 0, 76, 59
1, 49603, Note_off_c, 0, 88, 63
1, 49640, Note_on_c, 0, 88, 77
1, 49647, Note_on_c, 0, 80, 77
1, 49648, Note_on_c, 0, 76, 76
1, 49652, Note_on_c, 0, 54, 62
1, 49656, Note_on_c, 0, 62, 57
1, 49659, Note_on_c, 0, 59, 61
1, 49669, Note_off_c, 0, 76, 68
1, 49681, Note_off_c, 0, 80, 65
1, 49694, Note_off_c, 0, 88, 65
1, 49707, Note_off_c, 0, 59, 62
1, 49717, Note_off_c, 0, 54, 61
1, 49723, Note_off_c, 0, 62, 61
1, 49925, Control_c, 0, 64, 107
1, 49931, Note_on_c, 0, 56, 74
1, 49933, Note_on_c, 0, 86, 93
1, 49934, Note_on_c, 0, 62, 53
1, 49937, Note_on_c, 0, 64, 51
1, 49940, Note_on_c, 0, 74, 89
1, 49940, Control_c, 0, 64, 77
1, 49954, Note_off_c, 0, 62, 61
1, 49954, Note_on_c, 0, 78, 61
1, 49954, Control_c, 0, 64, 0
1, 49961, Note_off_c, 0, 64, 57
1, 49975, Note_off_c, 0, 78, 59
1, 49984, Note_off_c, 0, 56, 64
1, 49987, Note_off_c, 0, 74, 55
1, 50032, Note_on_c, 0, 83, 74
1, 50044, Note_off_c, 0, 86, 57
1, 50069, Note_off_c, 0, 83, 68
1, 50118, Control_c, 0, 64, 51
1, 50122, Note_on_c, 0, 45, 77
1, 50124, Note_on_c, 0, 38, 55
1, 50133, Control_c, 0, 64, 94
1, 50135, Note_on_c, 0, 88, 94
1, 50136, Note_on_c, 0, 40, 58
1, 50138, Note_on_c, 0, 76, 85
1, 50142, Note_on_c, 0, 80, 80
1, 50147, Control_c, 0, 64, 127
1, 50151, Note_off_c, 0, 38, 57
1, 50160, Note_off_c, 0, 76, 67
1, 50163, Note_off_c, 0, 40, 56
1, 50166, Note_off_c, 0, 80, 69
1, 50167, Note_off_c, 0, 45, 60
1, 50179, Note_off_c, 0, 88, 64
1, 50239, Note_on_c, 0, 88, 86
1, 50244, Note_on_c, 0, 80, 70
1, 50244, Note_on_c, 0, 76, 76
1, 50258, Note_off_c, 0, 76, 67
1, 50269, Note_off_c, 0, 80, 69
1, 50284, Note_off_c, 0, 88, 64
1, 50327, Note_on_c, 0, 76, 71
1, 50327, Note_on_c, 0, 88, 83
1, 50330, Note_on_c, 0, 54, 77
1, 50333, Note_on_c, 0, 80, 82
1, 50336, Note_on_c, 0, 62, 72
1, 50359, Note_off_c, 0, 80, 67
1, 50361, Note_off_c, 0, 76, 62
1, 50375, Note_off_c, 0, 62, 56
1, 50378, Note_off_c, 0, 88, 64
1, 50382, Note_off_c, 0, 54, 56
1, 50527, Control_c, 0, 64, 84
1, 50530, Note_on_c, 0, 56, 77
1, 50532, Note_on_c, 0, 64, 67
1, 50539, Note_on_c, 0, 62, 51
1, 50542, Control_c, 0, 64, 0
1, 50545, Note_on_c, 0, 86, 89
1, 50549, Note_off_c, 0, 64, 64
1, 50552, Note_on_c, 0, 74, 72
1, 50557, Note_on_c, 0, 78, 69
1, 50558, Note_off_c, 0, 62, 60
1, 50581, Note_off_c, 0, 56, 65
1, 50582, Note_off_c, 0, 74, 61
1, 50611, Note_off_c, 0, 78, 52
1, 50646, Note_on_c, 0, 83, 74
1, 50666, Note_off_c, 0, 86, 58
1, 50688, Note_off_c, 0, 83, 65
1, 50732, Note_on_c, 0, 40, 80
1, 50734, Control_c, 0, 64, 62
1, 50741, Note_on_c, 0, 47, 78
1, 50749, Control_c, 0, 64, 96
1, 50758, Note_on_c, 0, 41, 41
1, 50763, Note_on_c, 0, 48, 20
1, 50763, Control_c, 0, 64, 127
1, 50767, Note_off_c, 0, 40, 66
1, 50783, Note_off_c, 0, 47, 61
1, 50793, Note_off_c, 0, 41, 56
1, 50803, Note_off_c, 0, 48, 45
1, 50814, Note_on_c, 0, 88, 87
1, 50824, Note_on_c, 0, 80, 72
1, 50828, Note_on_c, 0, 76, 62
1, 50853, Note_off_c, 0, 76, 66
1, 50864, Note_off_c, 0, 80, 53
1, 50873, Note_off_c, 0, 88, 60
1, 50929, Note_on_c, 0, 54, 74
1, 50929, Note_on_c, 0, 83, 82
1, 50932, Note_on_c, 0, 62, 72
1, 50941, Control_c, 0, 67, 8
1, 50956, Control_c, 0, 67, 13
1, 50963, Note_off_c, 0, 54, 60
1, 50965, Note_off_c, 0, 83, 66
1, 50974, Note_off_c, 0, 62, 56
1, 50978, Control_c, 0, 64, 86
1, 50978, Control_c, 0, 67, 20
1, 50993, Control_c, 0, 64, 64
1, 50993, Control_c, 0, 67, 31
1, 51008, Control_c, 0, 64, 0
1, 51008, Control_c, 0, 67, 55
1, 51022, Control_c, 0, 67, 81
1, 51037, Note_on_c, 0, 85, 83
1, 51037, Control_c, 0, 67, 110
1, 51045, Note_on_c, 0, 78, 68
1, 51052, Control_c, 0, 67, 127
1, 51086, Note_off_c, 0, 78, 57
1, 51125, Note_on_c, 0, 64, 62
1, 51127, Note_on_c, 0, 56, 74
1, 51132, Note_on_c, 0, 80, 77
1, 51133, Note_on_c, 0, 62, 43
1, 51146, Note_off_c, 0, 64, 65
1, 51160, Note_off_c, 0, 62, 53
1, 51165, Note_off_c, 0, 85, 61
1, 51179, Note_off_c, 0, 56, 65
1, 51215, Note_off_c, 0, 80, 62
1, 51219, Note_on_c, 0, 78, 66
1, 51224, Note_on_c, 0, 74, 65
1, 51248, Note_off_c, 0, 78, 67
1, 51271, Note_off_c, 0, 74, 60
1, 51274, Control_c, 0, 64, 20
1, 51289, Control_c, 0, 64, 63
1, 51304, Control_c, 0, 64, 71
1, 51318, Control_c, 0, 64, 84
1, 51321, Note_on_c, 0, 38, 45
1, 51322, Note_on_c, 0, 47, 52
1, 51324, Note_on_c, 0, 40, 50
1, 51327, Note_on_c, 0, 73, 81
1, 51333, Control_c, 0, 64, 100
1, 51348, Control_c, 0, 64, 127
1, 51355, Note_off_c, 0, 38, 54
1, 51355, Note_off_c, 0, 40, 54
1, 51355, Note_off_c, 0, 47, 64
1, 51399, Note_off_c, 0, 73, 64
1, 51412, Note_on_c, 0, 76, 68
1, 51436, Note_on_c, 0, 68, 77
1, 51477, Note_off_c, 0, 76, 54
1, 51483, Note_off_c, 0, 68, 61
1, 51504, Note_on_c, 0, 71, 76
1, 51524, Note_on_c, 0, 62, 72
1, 51525, Control_c, 0, 64, 94
1, 51535, Note_on_c, 0, 54, 52
1, 51537, Note_off_c, 0, 71, 65
1, 51540, Control_c, 0, 64, 70
1, 51555, Control_c, 0, 64, 0
1, 51559, Note_off_c, 0, 62, 57
1, 51561, Note_off_c, 0, 54, 57
1, 51615, Note_on_c, 0, 73, 71
1, 51643, Note_on_c, 0, 66, 58
1, 51659, Control_c, 0, 64, 36
1, 51674, Control_c, 0, 64, 61
1, 51689, Control_c, 0, 64, 66
1, 51695, Note_off_c, 0, 66, 62
1, 51704, Control_c, 0, 64, 71
1, 51722, Note_on_c, 0, 56, 71
1, 51723, Note_on_c, 0, 64, 44
1, 51725, Control_c, 0, 64, 78
1, 51729, Note_on_c, 0, 68, 73
1, 51740, Control_c, 0, 64, 85
1, 51749, Note_off_c, 0, 56, 68
1, 51749, Note_off_c, 0, 64, 56
1, 51751, Note_off_c, 0, 73, 56
1, 51753, Note_on_c, 0, 62, 3
1, 51755, Control_c, 0, 64, 93
1, 51770, Control_c, 0, 64, 101
1, 51785, Control_c, 0, 64, 112
1, 51791, Note_off_c, 0, 62, 31
1, 51800, Control_c, 0, 64, 127
1, 51836, Note_off_c, 0, 68, 61
1, 51854, Note_on_c, 0, 66, 65
1, 51882, Note_off_c, 0, 66, 67
1, 51992, Note_on_c, 0, 33, 65
1, 51992, Control_c, 0, 64, 100
1, 52007, Control_c, 0, 64, 76
1, 52008, Note_on_c, 0, 64, 68
1, 52017, Note_on_c, 0, 45, 56
1, 52020, Note_on_c, 0, 55, 58
1, 52022, Control_c, 0, 64, 0
1, 52067, Control_c, 0, 64, 46
1, 52082, Control_c, 0, 64, 65
1, 52083, Note_off_c, 0, 33, 63
1, 52097, Control_c, 0, 64, 72
1, 52112, Control_c, 0, 64, 81
1, 52127, Control_c, 0, 64, 91
1, 52129, Note_off_c, 0, 45, 61
1, 52141, Control_c, 0, 64, 96
1, 52156, Control_c, 0, 64, 104
1, 52171, Control_c, 0, 64, 116
1, 52184, Note_off_c, 0, 55, 56
1, 52186, Control_c, 0, 64, 127
1, 52304, Control_c, 0, 64, 126
1, 52308, Note_on_c, 0, 45, 57
1, 52312, Note_on_c, 0, 52, 58
1, 52319, Control_c, 0, 64, 87
1, 52326, Note_on_c, 0, 55, 62
1, 52331, Note_off_c, 0, 64, 49
1, 52333, Control_c, 0, 64, 69
1, 52348, Control_c, 0, 64, 0
1, 52408, Control_c, 0, 64, 59
1, 52414, Note_off_c, 0, 55, 63
1, 52415, Note_on_c, 0, 57, 67
1, 52423, Control_c, 0, 64, 67
1, 52438, Control_c, 0, 64, 74
1, 52452, Control_c, 0, 64, 82
1, 52474, Control_c, 0, 64, 89
1, 52489, Control_c, 0, 64, 94
1, 52494, Note_on_c, 0, 48, 57
1, 52504, Control_c, 0, 64, 101
1, 52506, Note_off_c, 0, 52, 38
1, 52507, Note_on_c, 0, 60, 70
1, 52509, Note_off_c, 0, 57, 57
1, 52515, Note_on_c, 0, 55, 61
1, 52519, Control_c, 0, 64, 109
1, 52520, Note_off_c, 0, 45, 34
1, 52534, Control_c, 0, 64, 127
1, 52535, Note_off_c, 0, 48, 59
1, 52548, Control_c, 0, 67, 123
1, 52563, Control_c, 0, 67, 107
1, 52569, Note_off_c, 0, 55, 60
1, 52578, Control_c, 0, 67, 88
1, 52593, Control_c, 0, 67, 71
1, 52601, Note_on_c, 0, 64, 74
1, 52605, Note_off_c, 0, 60, 59
1, 52607, Control_c, 0, 67, 57
1, 52622, Control_c, 0, 67, 42
1, 52637, Control_c, 0, 67, 31
1, 52652, Control_c, 0, 67, 17
1, 52667, Control_c, 0, 67, 0
1, 52679, Note_on_c, 0, 52, 70
1, 52682, Note_on_c, 0, 59, 68
1, 52694, Note_on_c, 0, 67, 84
1, 52700, Note_off_c, 0, 64, 66
1, 52715, Note_off_c, 0, 52, 61
1, 52735, Note_off_c, 0, 59, 61
1, 52738, Note_off_c, 0, 67, 63
1, 52880, Note_on_c, 0, 60, 74
1, 52886, Note_on_c, 0, 69, 82
1, 52889, Note_on_c, 0, 67, 71
1, 52957, Note_off_c, 0, 69, 61
1, 52962, Note_on_c, 0, 72, 87
1, 53023, Note_off_c, 0, 60, 53
1, 53046, Note_off_c, 0, 67, 57
1, 53049, Note_on_c, 0, 64, 71
1, 53051, Note_on_c, 0, 76, 82
1, 53066, Note_on_c, 0, 71, 76
1, 53071, Note_off_c, 0, 72, 62
1, 53108, Note_off_c, 0, 64, 59
1, 53132, Note_off_c, 0, 71, 62
1, 53135, Note_on_c, 0, 79, 81
1, 53139, Note_off_c, 0, 76, 67
1, 53233, Note_on_c, 0, 76, 87
1, 53237, Note_on_c, 0, 83, 95
1, 53240, Note_on_c, 0, 72, 87
1, 53242, Note_off_c, 0, 79, 65
1, 53262, Note_off_c, 0, 83, 68
1, 53270, Note_off_c, 0, 72, 66
1, 53270, Note_off_c, 0, 76, 64
1, 53469, Note_on_c, 0, 86, 89
1, 53472, Note_on_c, 0, 57, 65
1, 53472, Note_on_c, 0, 64, 65
1, 53475, Note_on_c, 0, 76, 98
1, 53476, Note_on_c, 0, 79, 84
1, 53479, Note_on_c, 0, 71, 81
1, 53481, Note_on_c, 0, 59, 63
1, 53487, Note_on_c, 0, 67, 62
1, 53487, Note_on_c, 0, 84, 72
1, 53488, Note_on_c, 0, 83, 75
1, 53497, Note_off_c, 0, 79, 70
1, 53503, Note_off_c, 0, 71, 70
1, 53506, Note_off_c, 0, 76, 63
1, 53510, Note_on_c, 0, 63, 23
1, 53510, Note_off_c, 0, 83, 72
1, 53514, Note_off_c, 0, 86, 68
1, 53517, Note_off_c, 0, 84, 60
1, 53517, Note_off_c, 0, 67, 65
1, 53531, Note_off_c, 0, 57, 60
1, 53535, Note_off_c, 0, 64, 63
1, 53538, Note_off_c, 0, 59, 38
1, 53554, Note_off_c, 0, 63, 28
1, 53654, Control_c, 0, 64, 105
1, 53669, Control_c, 0, 64, 77
1, 53684, Control_c, 0, 64, 0
1, 53883, Note_on_c, 0, 76, 98
1, 53883, Note_on_c, 0, 86, 89
1, 53886, Note_on_c, 0, 57, 70
1, 53890, Note_on_c, 0, 79, 84
1, 53891, Note_on_c, 0, 83, 83
1, 53892, Note_on_c, 0, 64, 57
1, 53892, Control_c, 0, 64, 44
1, 53892, Note_on_c, 0, 71, 78
1, 53899, Note_on_c, 0, 67, 63
1, 53907, Control_c, 0, 64, 76
1, 53919, Note_off_c, 0, 79, 65
1, 53920, Note_off_c, 0, 76, 67
1, 53921, Control_c, 0, 64, 116
1, 53924, Note_off_c, 0, 83, 68
1, 53932, Note_off_c, 0, 67, 64
1, 53936, Control_c, 0, 64, 127
1, 53937, Note_off_c, 0, 71, 65
1, 53939, Note_off_c, 0, 86, 65
1, 53946, Note_off_c, 0, 64, 64
1, 54008, Note_off_c, 0, 57, 41
1, 54121, Control_c, 0, 64, 115
1, 54136, Control_c, 0, 64, 81
1, 54151, Control_c, 0, 64, 44
1, 54165, Control_c, 0, 64, 0
1, 54318, Poly_aftertouch_c, 0, 80, 0
1, 54358, Control_c, 0, 64, 51
1, 54359, Note_on_c, 0, 64, 63
1, 54360, Note_on_c, 0, 71, 83
1, 54361, Note_on_c, 0, 57, 76
1, 54363, Note_on_c, 0, 86, 93
1, 54363, Note_on_c, 0, 76, 100
1, 54367, Note_on_c, 0, 83, 90
1, 54368, Note_on_c, 0, 67, 71
1, 54368, Note_on_c, 0, 79, 89
1, 54372, Control_c, 0, 64, 77
1, 54387, Control_c, 0, 64, 127
1, 54394, Note_off_c, 0, 71, 67
1, 54398, Note_off_c, 0, 67, 66
1, 54399, Note_off_c, 0, 76, 68
1, 54400, Note_off_c, 0, 79, 63
1, 54403, Note_off_c, 0, 83, 67
1, 54408, Note_off_c, 0, 86, 67
1, 54417, Note_off_c, 0, 64, 66
1, 54441, Note_off_c, 0, 57, 64
1, 54451, Poly_aftertouch_c, 0, 84, 127
1, 54473, Poly_aftertouch_c, 0, 84, 0
1, 54885, Control_c, 0, 64, 106
1, 54892, Note_on_c, 0, 50, 83
1, 54897, Note_on_c, 0, 67, 85
1, 54898, Note_on_c, 0, 64, 87
1, 54899, Note_on_c, 0, 60, 91
1, 54900, Control_c, 0, 64, 81
1, 54903, Note_on_c, 0, 59, 83
1, 54914, Control_c, 0, 64, 43
1, 54924, Note_off_c, 0, 59, 68
1, 54929, Control_c, 0, 64, 0
1, 54945, Note_off_c, 0, 60, 59
1, 54946, Note_off_c, 0, 64, 64
1, 54949, Note_off_c, 0, 50, 60
1, 54965, Note_off_c, 0, 67, 63
1, 55016, Note_on_c, 0, 69, 91
1, 55065, Note_off_c, 0, 69, 65
1, 55151, Note_on_c, 0, 64, 91
1, 55157, Note_on_c, 0, 38, 69
1, 55159, Note_on_c, 0, 55, 86
1, 55166, Note_on_c, 0, 57, 76
1, 55178, Note_on_c, 0, 60, 69
1, 55191, Note_off_c, 0, 38, 67
1, 55195, Note_off_c, 0, 55, 59
1, 55198, Note_off_c, 0, 57, 63
1, 55207, Note_off_c, 0, 60, 62
1, 55220, Note_off_c, 0, 64, 64
1, 55312, Note_on_c, 0, 62, 84
1, 55386, Note_off_c, 0, 62, 52
1, 55529, Note_on_c, 0, 67, 95
1, 55530, Note_on_c, 0, 55, 99
1, 55530, Control_c, 0, 64, 20
1, 55533, Note_on_c, 0, 62, 80
1, 55536, Note_on_c, 0, 59, 79
1, 55540, Note_on_c, 0, 31, 89
1, 55544, Control_c, 0, 64, 80
1, 55549, Note_off_c, 0, 55, 73
1, 55559, Control_c, 0, 64, 109
1, 55573, Control_c, 0, 64, 127
1, 55577, Note_off_c, 0, 59, 62
1, 55578, Note_off_c, 0, 62, 63
1, 55578, Note_off_c, 0, 67, 68
1, 55586, Note_off_c, 0, 31, 64
1, 56471, Control_c, 0, 67, 15
1, 56485, Control_c, 0, 67, 35
1, 56500, Control_c, 0, 67, 67
1, 56515, Control_c, 0, 67, 104
1, 56530, Control_c, 0, 64, 92
1, 56530, Control_c, 0, 67, 127
1, 56545, Control_c, 0, 64, 71
1, 56559, Control_c, 0, 64, 0
1, 58644, Control_c, 0, 64, 20
1, 58659, Control_c, 0, 64, 24
1, 58674, Control_c, 0, 64, 30
1, 58686, Note_on_c, 0, 78, 67
1, 58688, Control_c, 0, 64, 38
1, 58688, Note_on_c, 0, 67, 50
1, 58702, Note_on_c, 0, 70, 59
1, 58702, Note_on_c, 0, 74, 52
1, 58703, Control_c, 0, 64, 47
1, 58718, Control_c, 0, 64, 55
1, 58733, Control_c, 0, 64, 60
1, 58748, Control_c, 0, 64, 63
1, 58762, Control_c, 0, 64, 65
1, 58777, Control_c, 0, 64, 67
1, 58792, Control_c, 0, 64, 70
1, 58807, Control_c, 0, 64, 73
1, 58822, Control_c, 0, 64, 76
1, 58836, Control_c, 0, 64, 78
1, 58851, Control_c, 0, 64, 81
1, 58866, Control_c, 0, 64, 85
1, 58880, Control_c, 0, 64, 89
1, 58895, Control_c, 0, 64, 94
1, 58910, Control_c, 0, 64, 102
1, 58925, Control_c, 0, 64, 110
1, 58940, Control_c, 0, 64, 126
1, 58954, Control_c, 0, 64, 127
1, 59171, Note_on_c, 0, 79, 62
1, 59225, Note_off_c, 0, 70, 25
1, 59258, Note_off_c, 0, 74, 56
1, 59273, Note_off_c, 0, 79, 57
1, 59902, Note_on_c, 0, 75, 52
1, 59917, Note_on_c, 0, 71, 41
1, 60045, Note_off_c, 0, 78, 35
1, 60051, Note_off_c, 0, 71, 62
1, 60394, Note_on_c, 0, 65, 45
1, 60394, Control_c, 0, 64, 103
1, 60394, Note_on_c, 0, 76, 49
1, 60404, Note_on_c, 0, 72, 44
1, 60408, Control_c, 0, 64, 87
1, 60412, Note_on_c, 0, 68, 29
1, 60418, Note_off_c, 0, 67, 32
1, 60423, Control_c, 0, 64, 72
1, 60438, Control_c, 0, 64, 53
1, 60452, Control_c, 0, 64, 0
1, 60477, Note_off_c, 0, 75, 35
1, 60630, Control_c, 0, 64, 44
1, 60645, Control_c, 0, 64, 58
1, 60659, Control_c, 0, 64, 63
1, 60674, Control_c, 0, 64, 64
1, 60689, Control_c, 0, 64, 65
1, 60712, Control_c, 0, 64, 68
1, 60727, Note_off_c, 0, 72, 40
1, 60727, Control_c, 0, 64, 71
1, 60741, Control_c, 0, 64, 75
1, 60756, Control_c, 0, 64, 78
1, 60771, Control_c, 0, 64, 79
1, 60785, Control_c, 0, 64, 81
1, 60800, Control_c, 0, 64, 85
1, 60815, Control_c, 0, 64, 89
1, 60831, Control_c, 0, 64, 92
1, 60846, Control_c, 0, 64, 95
1, 60856, Note_on_c, 0, 77, 47
1, 60861, Control_c, 0, 64, 98
1, 60875, Control_c, 0, 64, 102
1, 60890, Control_c, 0, 64, 106
1, 60905, Control_c, 0, 64, 113
1, 60920, Control_c, 0, 64, 126
1, 60935, Control_c, 0, 64, 127
1, 60949, Note_off_c, 0, 68, 28
1, 61151, Note_off_c, 0, 76, 38
1, 61247, Note_off_c, 0, 77, 30
1, 61378, Note_off_c, 0, 65, 40
1, 61466, Note_on_c, 0, 73, 40
1, 61467, Note_on_c, 0, 69, 34
1, 62045, Note_on_c, 0, 67, 44
1, 62054, Control_c, 0, 64, 103
1, 62069, Control_c, 0, 64, 88
1, 62084, Control_c, 0, 64, 76
1, 62098, Control_c, 0, 64, 63
1, 62113, Control_c, 0, 64, 0
1, 62157, Control_c, 0, 64, 44
1, 62172, Control_c, 0, 64, 59
1, 62187, Control_c, 0, 64, 64
1, 62209, Control_c, 0, 64, 69
1, 62224, Control_c, 0, 64, 76
1, 62239, Control_c, 0, 64, 85
1, 62254, Control_c, 0, 64, 92
1, 62260, Note_off_c, 0, 69, 38
1, 62269, Control_c, 0, 64, 96
1, 62283, Control_c, 0, 64, 101
1, 62298, Control_c, 0, 64, 109
1, 62313, Control_c, 0, 64, 119
1, 62328, Control_c, 0, 64, 127
1, 62337, Note_off_c, 0, 73, 29
1, 62489, Note_on_c, 0, 79, 40
1, 62497, Note_on_c, 0, 78, 66
1, 62510, Note_on_c, 0, 70, 60
1, 62523, Note_on_c, 0, 74, 37
1, 62576, Note_off_c, 0, 79, 38
1, 62717, Note_off_c, 0, 70, 39
1, 62911, Note_on_c, 0, 75, 72
1, 62921, Note_on_c, 0, 71, 54
1, 62954, Note_off_c, 0, 74, 54
1, 62996, Note_off_c, 0, 78, 56
1, 63046, Note_off_c, 0, 71, 64
1, 63332, Note_off_c, 0, 67, 59
1, 63352, Note_on_c, 0, 72, 35
1, 63371, Note_on_c, 0, 65, 53
1, 63380, Note_on_c, 0, 68, 48
1, 63380, Note_on_c, 0, 76, 70
1, 63403, Control_c, 0, 64, 113
1, 63418, Control_c, 0, 64, 94
1, 63423, Note_off_c, 0, 75, 58
1, 63433, Control_c, 0, 64, 78
1, 63448, Control_c, 0, 64, 63
1, 63463, Control_c, 0, 64, 0
1, 63581, Control_c, 0, 64, 42
1, 63595, Control_c, 0, 64, 63
1, 63610, Control_c, 0, 64, 66
1, 63625, Control_c, 0, 64, 70
1, 63640, Control_c, 0, 64, 76
1, 63655, Control_c, 0, 64, 81
1, 63670, Control_c, 0, 64, 86
1, 63684, Control_c, 0, 64, 91
1, 63707, Control_c, 0, 64, 96
1, 63722, Control_c, 0, 64, 101
1, 63737, Control_c, 0, 64, 108
1, 63751, Control_c, 0, 64, 118
1, 63766, Control_c, 0, 64, 127
1, 63849, Note_on_c, 0, 77, 45
1, 63955, Note_off_c, 0, 72, 41
1, 64013, Note_off_c, 0, 76, 42
1, 64021, Note_off_c, 0, 77, 35
1, 64024, Note_off_c, 0, 68, 40
1, 64448, Note_on_c, 0, 73, 50
1, 64457, Note_on_c, 0, 69, 45
1, 64566, Note_off_c, 0, 69, 59
1, 64632, Note_off_c, 0, 65, 35
1, 64919, Note_on_c, 0, 74, 59
1, 64925, Note_on_c, 0, 66, 46
1, 64929, Note_on_c, 0, 70, 50
1, 64930, Control_c, 0, 64, 111
1, 64945, Control_c, 0, 64, 85
1, 64960, Control_c, 0, 64, 65
1, 64975, Control_c, 0, 64, 0
1, 64983, Note_off_c, 0, 73, 51
1, 65035, Control_c, 0, 64, 47
1, 65049, Control_c, 0, 64, 64
1, 65064, Control_c, 0, 64, 70
1, 65079, Control_c, 0, 64, 79
1, 65094, Control_c, 0, 64, 92
1, 65109, Control_c, 0, 64, 103
1, 65123, Control_c, 0, 64, 118
1, 65138, Control_c, 0, 64, 127
1, 65373, Note_on_c, 0, 61, 53
1, 65840, Note_on_c, 0, 73, 65
1, 66892, Note_off_c, 0, 61, 33
1, 67344, Note_on_c, 0, 61, 52
1, 67472, Note_off_c, 0, 70, 24
1, 67479, Note_off_c, 0, 73, 40
1, 67795, Note_off_c, 0, 74, 37
1, 67801, Note_on_c, 0, 73, 50
1, 67843, Note_off_c, 0, 66, 43
1, 68300, Note_on_c, 0, 74, 42
1, 68301, Note_on_c, 0, 66, 43
1, 68397, Note_off_c, 0, 73, 34
1, 68699, Note_off_c, 0, 61, 43
1, 68879, Note_on_c, 0, 60, 40
1, 68926, Control_c, 0, 64, 101
1, 68948, Control_c, 0, 64, 84
1, 68963, Control_c, 0, 64, 69
1, 68978, Control_c, 0, 64, 44
1, 68993, Control_c, 0, 64, 0
1, 69081, Control_c, 0, 64, 34
1, 69096, Control_c, 0, 64, 56
1, 69111, Control_c, 0, 64, 64
1, 69126, Control_c, 0, 64, 69
1, 69140, Control_c, 0, 64, 77
1, 69155, Control_c, 0, 64, 86
1, 69170, Control_c, 0, 64, 93
1, 69185, Control_c, 0, 64, 99
1, 69200, Control_c, 0, 64, 107
1, 69214, Control_c, 0, 64, 119
1, 69229, Control_c, 0, 64, 127
1, 69500, Note_on_c, 0, 70, 53
1, 69890, Note_off_c, 0, 66, 44
1, 69947, Note_off_c, 0, 74, 39
1, 70166, Note_on_c, 0, 50, 38
1, 70215, Control_c, 0, 64, 117
1, 70230, Control_c, 0, 64, 100
1, 70245, Control_c, 0, 64, 86
1, 70260, Control_c, 0, 64, 69
1, 70275, Control_c, 0, 64, 0
1, 70363, Control_c, 0, 64, 49
1, 70378, Control_c, 0, 64, 66
1, 70393, Control_c, 0, 64, 72
1, 70409, Control_c, 0, 64, 76
1, 70424, Control_c, 0, 64, 80
1, 70446, Control_c, 0, 64, 83
1, 70461, Control_c, 0, 64, 86
1, 70475, Control_c, 0, 64, 90
1, 70490, Control_c, 0, 64, 95
1, 70505, Control_c, 0, 64, 100
1, 70520, Control_c, 0, 64, 105
1, 70535, Control_c, 0, 64, 111
1, 70549, Control_c, 0, 64, 120
1, 70564, Control_c, 0, 64, 127
1, 70961, Note_on_c, 0, 69, 43
1, 70978, Note_on_c, 0, 74, 37
1, 70979, Control_c, 0, 64, 105
1, 70994, Control_c, 0, 64, 89
1, 71009, Control_c, 0, 64, 75
1, 71023, Control_c, 0, 64, 61
1, 71032, Note_off_c, 0, 70, 48
1, 71038, Control_c, 0, 64, 0
1, 71098, Control_c, 0, 64, 24
1, 71112, Control_c, 0, 64, 49
1, 71127, Control_c, 0, 64, 60
1, 71142, Control_c, 0, 64, 65
1, 71156, Control_c, 0, 64, 70
1, 71171, Control_c, 0, 64, 78
1, 71193, Control_c, 0, 64, 85
1, 71209, Control_c, 0, 64, 90
1, 71224, Control_c, 0, 64, 95
1, 71239, Control_c, 0, 64, 100
1, 71254, Control_c, 0, 64, 107
1, 71268, Control_c, 0, 64, 116
1, 71283, Control_c, 0, 64, 127
1, 71983, Note_on_c, 0, 65, 37
1, 72100, Note_off_c, 0, 69, 33
1, 72169, Note_off_c, 0, 65, 42
1, 72357, Note_off_c, 0, 50, 35
1, 72446, Note_off_c, 0, 60, 33
1, 72565, Note_off_c, 0, 74, 38
1, 73532, Note_on_c, 0, 62, 38
1, 73534, Note_on_c, 0, 43, 32
1, 73574, Control_c, 0, 64, 102
1, 73589, Control_c, 0, 64, 86
1, 73604, Control_c, 0, 64, 71
1, 73620, Control_c, 0, 64, 49
1, 73635, Control_c, 0, 64, 0
1, 73679, Control_c, 0, 64, 27
1, 73694, Control_c, 0, 64, 54
1, 73709, Control_c, 0, 64, 64
1, 73724, Control_c, 0, 64, 69
1, 73738, Control_c, 0, 64, 76
1, 73753, Control_c, 0, 64, 84
1, 73768, Control_c, 0, 64, 91
1, 73782, Control_c, 0, 64, 98
1, 73797, Control_c, 0, 64, 105
1, 73812, Note_off_c, 0, 43, 42
1, 73812, Control_c, 0, 64, 115
1, 73827, Control_c, 0, 64, 127
1, 74189, Note_on_c, 0, 58, 32
1, 74194, Note_on_c, 0, 65, 51
1, 74201, Note_on_c, 0, 50, 37
1, 74410, Note_off_c, 0, 62, 39
1, 74451, Note_off_c, 0, 50, 32
1, 74621, Note_on_c, 0, 67, 58
1, 74638, Note_on_c, 0, 62, 39
1, 74643, Note_on_c, 0, 53, 46
1, 74696, Note_off_c, 0, 58, 37
1, 74714, Note_off_c, 0, 62, 58
1, 74741, Note_off_c, 0, 53, 60
1, 74868, Note_off_c, 0, 65, 41
1, 75041, Note_on_c, 0, 38, 44
1, 75086, Control_c, 0, 64, 111
1, 75101, Control_c, 0, 64, 90
1, 75116, Control_c, 0, 64, 71
1, 75128, Note_on_c, 0, 69, 51
1, 75131, Control_c, 0, 64, 0
1, 75170, Note_off_c, 0, 67, 58
1, 75250, Control_c, 0, 64, 57
1, 75265, Control_c, 0, 64, 67
1, 75280, Control_c, 0, 64, 76
1, 75295, Control_c, 0, 64, 85
1, 75309, Control_c, 0, 64, 94
1, 75316, Note_off_c, 0, 38, 61
1, 75324, Control_c, 0, 64, 106
1, 75339, Control_c, 0, 64, 127
1, 75666, Note_on_c, 0, 60, 36
1, 75697, Note_on_c, 0, 52, 19
1, 76158, Note_on_c, 0, 64, 54
1, 76164, Note_on_c, 0, 55, 42
1, 76183, Note_off_c, 0, 60, 32
1, 76240, Note_off_c, 0, 52, 28
1, 76254, Note_off_c, 0, 69, 36
1, 76256, Note_off_c, 0, 55, 60
1, 76622, Note_on_c, 0, 69, 64
1, 76623, Note_on_c, 0, 43, 44
1, 76629, Control_c, 0, 64, 115
1, 76644, Control_c, 0, 64, 90
1, 76658, Control_c, 0, 64, 70
1, 76673, Control_c, 0, 64, 0
1, 76685, Note_off_c, 0, 64, 64
1, 76747, Control_c, 0, 64, 43
1, 76762, Control_c, 0, 64, 61
1, 76777, Control_c, 0, 64, 65
1, 76791, Control_c, 0, 64, 69
1, 76807, Control_c, 0, 64, 74
1, 76822, Control_c, 0, 64, 80
1, 76837, Control_c, 0, 64, 86
1, 76852, Control_c, 0, 64, 91
1, 76867, Control_c, 0, 64, 99
1, 76881, Control_c, 0, 64, 107
1, 76894, Note_off_c, 0, 43, 62
1, 76896, Control_c, 0, 64, 119
1, 76911, Control_c, 0, 64, 127
1, 77221, Note_on_c, 0, 58, 43
1, 77230, Note_on_c, 0, 50, 42
1, 77345, Note_off_c, 0, 50, 50
1, 77620, Note_on_c, 0, 53, 42
1, 77632, Note_on_c, 0, 62, 40
1, 77641, Note_off_c, 0, 58, 31
1, 77654, Note_on_c, 0, 65, 65
1, 77681, Note_off_c, 0, 62, 61
1, 77700, Note_off_c, 0, 53, 61
1, 77862, Note_on_c, 0, 67, 66
1, 77873, Note_off_c, 0, 69, 59
1, 77976, Note_off_c, 0, 65, 57
1, 78043, Note_on_c, 0, 38, 54
1, 78052, Control_c, 0, 64, 114
1, 78067, Control_c, 0, 64, 92
1, 78081, Control_c, 0, 64, 72
1, 78096, Control_c, 0, 64, 15
1, 78111, Control_c, 0, 64, 0
1, 78136, Note_on_c, 0, 69, 66
1, 78178, Note_off_c, 0, 67, 60
1, 78229, Control_c, 0, 64, 53
1, 78244, Control_c, 0, 64, 64
1, 78259, Control_c, 0, 64, 68
1, 78273, Control_c, 0, 64, 74
1, 78288, Control_c, 0, 64, 80
1, 78303, Control_c, 0, 64, 86
1, 78318, Control_c, 0, 64, 91
1, 78321, Note_off_c, 0, 38, 64
1, 78333, Control_c, 0, 64, 97
1, 78348, Control_c, 0, 64, 104
1, 78362, Control_c, 0, 64, 118
1, 78377, Control_c, 0, 64, 127
1, 78565, Note_on_c, 0, 67, 66
1, 78566, Note_on_c, 0, 60, 42
1, 78571, Note_on_c, 0, 52, 41
1, 78831, Note_off_c, 0, 69, 26
1, 78921, Note_on_c, 0, 55, 41
1, 78923, Note_off_c, 0, 67, 37
1, 78979, Note_on_c, 0, 62, 69
1, 79000, Note_off_c, 0, 60, 36
1, 79030, Note_off_c, 0, 55, 61
1, 79031, Note_off_c, 0, 52, 36
1, 79277, Note_on_c, 0, 74, 49
1, 79284, Note_off_c, 0, 62, 50
1, 79358, Note_on_c, 0, 43, 46
1, 79379, Control_c, 0, 64, 98
1, 79394, Control_c, 0, 64, 80
1, 79409, Control_c, 0, 64, 65
1, 79431, Control_c, 0, 64, 0
1, 79450, Note_on_c, 0, 65, 24
1, 79479, Note_on_c, 0, 62, 64
1, 79501, Note_off_c, 0, 65, 47
1, 79520, Control_c, 0, 64, 53
1, 79534, Control_c, 0, 64, 64
1, 79549, Control_c, 0, 64, 68
1, 79564, Control_c, 0, 64, 74
1, 79579, Control_c, 0, 64, 78
1, 79588, Note_off_c, 0, 43, 63
1, 79594, Control_c, 0, 64, 82
1, 79608, Control_c, 0, 64, 89
1, 79623, Control_c, 0, 64, 98
1, 79638, Control_c, 0, 64, 112
1, 79653, Control_c, 0, 64, 127
1, 79681, Note_off_c, 0, 74, 35
1, 79877, Note_on_c, 0, 58, 46
1, 79880, Note_on_c, 0, 50, 44
1, 79897, Note_on_c, 0, 65, 72
1, 79969, Note_off_c, 0, 62, 58
1, 80091, Note_off_c, 0, 50, 35
1, 80274, Note_on_c, 0, 53, 48
1, 80274, Note_on_c, 0, 74, 57
1, 80280, Note_off_c, 0, 65, 65
1, 80286, Note_on_c, 0, 67, 72
1, 80296, Note_on_c, 0, 62, 42
1, 80303, Note_off_c, 0, 58, 38
1, 80339, Note_off_c, 0, 62, 57
1, 80392, Note_off_c, 0, 53, 60
1, 80670, Note_on_c, 0, 38, 57
1, 80699, Control_c, 0, 64, 106
1, 80711, Note_on_c, 0, 69, 73
1, 80714, Control_c, 0, 64, 86
1, 80729, Control_c, 0, 64, 66
1, 80732, Note_off_c, 0, 74, 52
1, 80744, Control_c, 0, 64, 0
1, 80759, Note_off_c, 0, 67, 56
1, 80863, Control_c, 0, 64, 49
1, 80878, Control_c, 0, 64, 66
1, 80892, Control_c, 0, 64, 74
1, 80907, Control_c, 0, 64, 84
1, 80929, Control_c, 0, 64, 96
1, 80944, Control_c, 0, 64, 112
1, 80950, Note_off_c, 0, 38, 63
1, 80959, Control_c, 0, 64, 127
1, 81151, Note_on_c, 0, 74, 39
1, 81235, Note_on_c, 0, 60, 44
1, 81237, Note_on_c, 0, 52, 43
1, 81319, Note_off_c, 0, 52, 59
1, 81322, Note_off_c, 0, 60, 57
1, 81605, Note_on_c, 0, 64, 59
1, 81709, Note_off_c, 0, 69, 58
1, 81779, Note_off_c, 0, 74, 42
1, 81945, Note_on_c, 0, 74, 53
1, 81990, Control_c, 0, 64, 121
1, 82004, Control_c, 0, 64, 94
1, 82009, Note_on_c, 0, 69, 68
1, 82018, Note_on_c, 0, 43, 53
1, 82019, Control_c, 0, 64, 76
1, 82034, Control_c, 0, 64, 57
1, 82048, Control_c, 0, 64, 0
1, 82059, Note_off_c, 0, 64, 57
1, 82068, Note_off_c, 0, 74, 48
1, 82108, Control_c, 0, 64, 37
1, 82122, Control_c, 0, 64, 59
1, 82137, Control_c, 0, 64, 66
1, 82152, Control_c, 0, 64, 73
1, 82166, Control_c, 0, 64, 79
1, 82181, Control_c, 0, 64, 83
1, 82194, Note_off_c, 0, 43, 62
1, 82196, Control_c, 0, 64, 88
1, 82211, Control_c, 0, 64, 95
1, 82226, Control_c, 0, 64, 102
1, 82241, Control_c, 0, 64, 113
1, 82255, Control_c, 0, 64, 127
1, 82473, Note_on_c, 0, 58, 52
1, 82477, Note_on_c, 0, 50, 50
1, 82817, Note_off_c, 0, 50, 34
1, 82824, Note_on_c, 0, 74, 52
1, 82843, Note_on_c, 0, 53, 51
1, 82866, Note_on_c, 0, 62, 41
1, 82884, Note_on_c, 0, 65, 65
1, 82885, Note_off_c, 0, 53, 62
1, 82889, Note_off_c, 0, 69, 60
1, 82908, Note_off_c, 0, 58, 54
1, 82922, Note_off_c, 0, 62, 57
1, 83089, Note_on_c, 0, 67, 74
1, 83129, Note_off_c, 0, 74, 61
1, 83258, Note_on_c, 0, 70, 63
1, 83260, Note_on_c, 0, 62, 53
1, 83266, Note_off_c, 0, 65, 48
1, 83293, Control_c, 0, 64, 113
1, 83308, Note_off_c, 0, 67, 63
1, 83308, Control_c, 0, 64, 88
1, 83312, Note_on_c, 0, 69, 73
1, 83323, Control_c, 0, 64, 70
1, 83338, Control_c, 0, 64, 0
1, 83382, Control_c, 0, 64, 58
1, 83397, Control_c, 0, 64, 67
1, 83412, Control_c, 0, 64, 75
1, 83427, Control_c, 0, 64, 85
1, 83442, Control_c, 0, 64, 96
1, 83442, Control_c, 0, 67, 111
1, 83457, Control_c, 0, 64, 112
1, 83457, Control_c, 0, 67, 87
1, 83472, Control_c, 0, 64, 127
1, 83472, Control_c, 0, 67, 61
1, 83487, Control_c, 0, 67, 35
1, 83501, Control_c, 0, 67, 11
1, 83516, Control_c, 0, 67, 0
1, 83692, Note_off_c, 0, 62, 55
1, 83697, Note_on_c, 0, 74, 68
1, 83706, Note_on_c, 0, 65, 58
1, 83770, Note_off_c, 0, 70, 38
1, 83996, Note_off_c, 0, 69, 36
1, 84097, Note_off_c, 0, 74, 62
1, 84113, Note_on_c, 0, 62, 54
1, 84128, Note_off_c, 0, 65, 56
1, 84161, Note_off_c, 0, 62, 57
1, 84178, Note_on_c, 0, 77, 82
1, 84572, Note_off_c, 0, 77, 46
1, 84748, Note_on_c, 0, 81, 88
1, 84751, Note_on_c, 0, 70, 61
1, 84756, Note_on_c, 0, 77, 51
1, 84783, Note_on_c, 0, 73, 52
1, 84790, Control_c, 0, 64, 114
1, 84805, Control_c, 0, 64, 86
1, 84820, Control_c, 0, 64, 65
1, 84835, Control_c, 0, 64, 0
1, 84894, Control_c, 0, 64, 31
1, 84909, Control_c, 0, 64, 63
1, 84924, Control_c, 0, 64, 69
1, 84938, Control_c, 0, 64, 75
1, 84953, Control_c, 0, 64, 84
1, 84968, Control_c, 0, 64, 93
1, 84983, Control_c, 0, 64, 103
1, 84998, Control_c, 0, 64, 124
1, 85013, Control_c, 0, 64, 127
1, 85171, Note_on_c, 0, 82, 70
1, 85204, Note_off_c, 0, 77, 47
1, 85205, Control_c, 0, 67, 8
1, 85220, Control_c, 0, 67, 16
1, 85235, Control_c, 0, 67, 34
1, 85250, Control_c, 0, 67, 62
1, 85256, Note_off_c, 0, 82, 59
1, 85264, Control_c, 0, 67, 95
1, 85279, Control_c, 0, 67, 127
1, 85289, Note_off_c, 0, 73, 40
1, 85837, Note_on_c, 0, 78, 59
1, 85849, Note_on_c, 0, 74, 40
1, 85910, Note_off_c, 0, 81, 57
1, 85959, Note_off_c, 0, 74, 49
1, 86298, Note_off_c, 0, 70, 37
1, 86298, Note_on_c, 0, 68, 41
1, 86298, Note_on_c, 0, 79, 63
1, 86312, Note_on_c, 0, 71, 38
1, 86315, Note_on_c, 0, 75, 47
1, 86318, Control_c, 0, 64, 103
1, 86328, Note_off_c, 0, 78, 56
1, 86333, Control_c, 0, 64, 87
1, 86347, Control_c, 0, 64, 72
1, 86362, Control_c, 0, 64, 43
1, 86377, Control_c, 0, 64, 0
1, 86452, Control_c, 0, 64, 24
1, 86467, Control_c, 0, 64, 46
1, 86482, Control_c, 0, 64, 59
1, 86497, Control_c, 0, 64, 64
1, 86511, Control_c, 0, 64, 67
1, 86526, Control_c, 0, 64, 71
1, 86541, Control_c, 0, 64, 77
1, 86556, Control_c, 0, 64, 81
1, 86570, Control_c, 0, 64, 85
1, 86585, Control_c, 0, 64, 88
1, 86600, Control_c, 0, 64, 91
1, 86615, Control_c, 0, 64, 95
1, 86630, Control_c, 0, 64, 101
1, 86644, Control_c, 0, 64, 109
1, 86659, Control_c, 0, 64, 119
1, 86674, Control_c, 0, 64, 127
1, 86687, Note_off_c, 0, 75, 39
1, 86704, Note_on_c, 0, 80, 41
1, 86813, Note_off_c, 0, 71, 34
1, 87235, Note_on_c, 0, 76, 45
1, 87240, Note_on_c, 0, 72, 47
1, 87308, Note_off_c, 0, 68, 43
1, 87579, Note_off_c, 0, 80, 14
1, 87645, Control_c, 0, 67, 124
1, 87667, Control_c, 0, 67, 115
1, 87682, Control_c, 0, 67, 107
1, 87697, Control_c, 0, 67, 98
1, 87699, Note_off_c, 0, 79, 38
1, 87711, Control_c, 0, 67, 90
1, 87726, Control_c, 0, 67, 82
1, 87741, Control_c, 0, 67, 73
1, 87749, Note_on_c, 0, 70, 59
1, 87756, Control_c, 0, 64, 103
1, 87756, Control_c, 0, 67, 63
1, 87771, Control_c, 0, 64, 86
1, 87771, Control_c, 0, 67, 54
1, 87785, Control_c, 0, 64, 71
1, 87785, Control_c, 0, 67, 44
1, 87800, Control_c, 0, 64, 58
1, 87800, Control_c, 0, 67, 35
1, 87815, Control_c, 0, 64, 52
1, 87815, Control_c, 0, 67, 24
1, 87830, Control_c, 0, 64, 60
1, 87830, Control_c, 0, 67, 12
1, 87845, Control_c, 0, 64, 64
1, 87845, Control_c, 0, 67, 0
1, 87850, Note_off_c, 0, 76, 59
1, 87860, Control_c, 0, 64, 66
1, 87874, Control_c, 0, 64, 69
1, 87889, Control_c, 0, 64, 74
1, 87904, Control_c, 0, 64, 83
1, 87919, Control_c, 0, 64, 91
1, 87934, Control_c, 0, 64, 96
1, 87949, Control_c, 0, 64, 99
1, 87964, Control_c, 0, 64, 105
1, 87979, Control_c, 0, 64, 113
1, 87991, Note_off_c, 0, 72, 56
1, 87994, Control_c, 0, 64, 127
1, 88152, Note_on_c, 0, 77, 39
1, 88158, Note_on_c, 0, 81, 83
1, 88172, Note_on_c, 0, 73, 50
1, 88190, Note_on_c, 0, 82, 44
1, 88250, Note_off_c, 0, 82, 52
1, 88337, Note_off_c, 0, 77, 53
1, 88396, Note_off_c, 0, 73, 60
1, 88572, Note_on_c, 0, 78, 75
1, 88589, Note_on_c, 0, 74, 60
1, 88656, Note_off_c, 0, 81, 56
1, 88784, Note_off_c, 0, 74, 61
1, 88987, Note_on_c, 0, 68, 51
1, 88992, Note_on_c, 0, 79, 75
1, 88994, Control_c, 0, 64, 109
1, 89004, Note_on_c, 0, 71, 45
1, 89009, Note_on_c, 0, 75, 53
1, 89009, Control_c, 0, 64, 88
1, 89016, Note_off_c, 0, 70, 37
1, 89024, Control_c, 0, 64, 71
1, 89025, Note_off_c, 0, 78, 63
1, 89038, Control_c, 0, 64, 28
1, 89053, Control_c, 0, 64, 0
1, 89127, Control_c, 0, 64, 53
1, 89142, Control_c, 0, 64, 67
1, 89164, Control_c, 0, 64, 78
1, 89179, Control_c, 0, 64, 90
1, 89194, Control_c, 0, 64, 104
1, 89209, Control_c, 0, 64, 127
1, 89307, Note_off_c, 0, 75, 32
1, 89384, Note_off_c, 0, 71, 38
1, 89407, Note_on_c, 0, 80, 65
1, 89578, Note_off_c, 0, 80, 38
1, 89767, Note_off_c, 0, 68, 41
1, 89891, Note_on_c, 0, 76, 59
1, 89907, Note_on_c, 0, 72, 53
1, 89959, Note_off_c, 0, 79, 55
1, 90142, Note_off_c, 0, 72, 63
1, 90328, Note_on_c, 0, 69, 40
1, 90328, Note_on_c, 0, 77, 70
1, 90341, Note_on_c, 0, 73, 55
1, 90380, Note_off_c, 0, 76, 61
1, 90722, Control_c, 0, 64, 122
1, 90735, Note_on_c, 0, 64, 57
1, 90736, Control_c, 0, 64, 99
1, 90751, Control_c, 0, 64, 85
1, 90766, Control_c, 0, 64, 70
1, 90781, Control_c, 0, 64, 18
1, 90796, Control_c, 0, 64, 0
1, 90885, Control_c, 0, 64, 38
1, 90900, Control_c, 0, 64, 62
1, 90915, Control_c, 0, 64, 68
1, 90929, Control_c, 0, 64, 75
1, 90944, Control_c, 0, 64, 84
1, 90959, Control_c, 0, 64, 93
1, 90974, Control_c, 0, 64, 104
1, 90989, Control_c, 0, 64, 127
1, 91203, Note_on_c, 0, 76, 60
1, 91455, Note_off_c, 0, 77, 27
1, 91548, Note_off_c, 0, 73, 40
1, 91899, Note_off_c, 0, 64, 41
1, 91945, Control_c, 0, 67, 8
1, 91959, Control_c, 0, 67, 12
1, 91975, Control_c, 0, 67, 22
1, 91990, Control_c, 0, 67, 38
1, 92005, Control_c, 0, 67, 62
1, 92020, Control_c, 0, 67, 90
1, 92034, Control_c, 0, 67, 126
1, 92049, Control_c, 0, 67, 127
1, 92416, Note_off_c, 0, 76, 30
1, 92519, Note_on_c, 0, 64, 50
1, 92921, Note_on_c, 0, 76, 50
1, 92931, Note_off_c, 0, 69, 39
1, 93365, Note_on_c, 0, 77, 56
1, 93373, Note_on_c, 0, 69, 43
1, 93383, Control_c, 0, 64, 95
1, 93398, Control_c, 0, 64, 76
1, 93413, Control_c, 0, 64, 58
1, 93428, Control_c, 0, 64, 0
1, 93446, Note_off_c, 0, 76, 36
1, 93472, Control_c, 0, 64, 28
1, 93487, Control_c, 0, 64, 54
1, 93502, Control_c, 0, 64, 63
1, 93517, Control_c, 0, 64, 67
1, 93531, Control_c, 0, 64, 72
1, 93546, Control_c, 0, 64, 78
1, 93561, Control_c, 0, 64, 84
1, 93577, Control_c, 0, 64, 88
1, 93592, Control_c, 0, 64, 92
1, 93606, Control_c, 0, 64, 97
1, 93621, Control_c, 0, 64, 102
1, 93636, Control_c, 0, 64, 109
1, 93658, Control_c, 0, 64, 117
1, 93673, Control_c, 0, 64, 127
1, 93905, Note_on_c, 0, 63, 48
1, 93925, Control_c, 0, 64, 104
1, 93940, Control_c, 0, 64, 86
1, 93954, Control_c, 0, 64, 72
1, 93969, Control_c, 0, 64, 60
1, 93980, Note_off_c, 0, 64, 38
1, 93984, Control_c, 0, 64, 0
1, 94013, Control_c, 0, 64, 15
1, 94028, Control_c, 0, 64, 36
1, 94043, Control_c, 0, 64, 46
1, 94058, Control_c, 0, 64, 55
1, 94072, Control_c, 0, 64, 61
1, 94087, Control_c, 0, 64, 65
1, 94102, Control_c, 0, 64, 69
1, 94117, Control_c, 0, 64, 77
1, 94132, Control_c, 0, 64, 86
1, 94146, Control_c, 0, 64, 91
1, 94161, Control_c, 0, 64, 95
1, 94176, Control_c, 0, 64, 101
1, 94191, Control_c, 0, 64, 107
1, 94206, Control_c, 0, 64, 116
1, 94221, Control_c, 0, 64, 127
1, 94525, Note_on_c, 0, 73, 55
1, 94821, Note_off_c, 0, 69, 41
1, 94839, Note_off_c, 0, 77, 34
1, 95198, Note_on_c, 0, 53, 39
1, 95274, Control_c, 0, 64, 103
1, 95289, Control_c, 0, 64, 89
1, 95304, Control_c, 0, 64, 74
1, 95319, Control_c, 0, 64, 61
1, 95333, Control_c, 0, 64, 0
1, 95377, Control_c, 0, 64, 46
1, 95392, Control_c, 0, 64, 60
1, 95407, Control_c, 0, 64, 64
1, 95422, Control_c, 0, 64, 68
1, 95437, Control_c, 0, 64, 74
1, 95452, Control_c, 0, 64, 82
1, 95467, Control_c, 0, 64, 87
1, 95482, Control_c, 0, 64, 91
1, 95497, Control_c, 0, 64, 96
1, 95512, Control_c, 0, 64, 101
1, 95526, Control_c, 0, 64, 109
1, 95541, Control_c, 0, 64, 122
1, 95556, Control_c, 0, 64, 127
1, 95976, Note_on_c, 0, 77, 42
1, 95980, Note_on_c, 0, 72, 48
1, 96008, Control_c, 0, 64, 111
1, 96023, Control_c, 0, 64, 99
1, 96038, Control_c, 0, 64, 88
1, 96053, Control_c, 0, 64, 76
1, 96068, Control_c, 0, 64, 63
1, 96082, Control_c, 0, 64, 0
1, 96085, Note_off_c, 0, 73, 39
1, 96156, Control_c, 0, 64, 47
1, 96171, Control_c, 0, 64, 62
1, 96186, Control_c, 0, 64, 66
1, 96200, Control_c, 0, 64, 70
1, 96215, Control_c, 0, 64, 76
1, 96230, Control_c, 0, 64, 82
1, 96245, Control_c, 0, 64, 86
1, 96260, Control_c, 0, 64, 91
1, 96275, Control_c, 0, 64, 96
1, 96290, Control_c, 0, 64, 102
1, 96304, Control_c, 0, 64, 110
1, 96319, Control_c, 0, 64, 127
1, 96763, Note_off_c, 0, 53, 36
1, 96815, Note_off_c, 0, 63, 45
1, 96849, Note_on_c, 0, 68, 33
1, 97831, Note_off_c, 0, 72, 27
1, 97920, Control_c, 0, 64, 102
1, 97935, Control_c, 0, 64, 87
1, 97947, Note_on_c, 0, 46, 46
1, 97950, Control_c, 0, 64, 73
1, 97965, Control_c, 0, 64, 62
1, 97980, Control_c, 0, 64, 49
1, 97995, Control_c, 0, 64, 56
1, 98010, Control_c, 0, 64, 63
1, 98019, Note_off_c, 0, 77, 37
1, 98024, Control_c, 0, 64, 67
1, 98039, Control_c, 0, 64, 72
1, 98054, Control_c, 0, 64, 81
1, 98069, Control_c, 0, 64, 94
1, 98084, Control_c, 0, 64, 105
1, 98098, Control_c, 0, 64, 117
1, 98113, Control_c, 0, 64, 127
1, 98129, Note_off_c, 0, 46, 57
1, 98259, Note_off_c, 0, 68, 45
1, 98685, Note_on_c, 0, 61, 28
1, 98686, Note_on_c, 0, 56, 37
1, 98695, Note_on_c, 0, 65, 36
1, 98756, Note_on_c, 0, 84, 57
1, 98823, Note_on_c, 0, 72, 28
1, 98918, Note_off_c, 0, 65, 52
1, 98921, Note_off_c, 0, 84, 57
1, 98976, Note_off_c, 0, 61, 43
1, 99041, Note_on_c, 0, 84, 71
1, 99105, Note_off_c, 0, 72, 45
1, 99128, Note_off_c, 0, 84, 63
1, 99147, Note_on_c, 0, 57, 47
1, 99162, Note_on_c, 0, 62, 37
1, 99172, Note_on_c, 0, 66, 46
1, 99207, Note_off_c, 0, 56, 38
1, 99240, Note_on_c, 0, 84, 69
1, 99266, Note_off_c, 0, 62, 56
1, 99273, Note_off_c, 0, 66, 63
1, 99283, Note_on_c, 0, 72, 70
1, 99316, Note_off_c, 0, 57, 56
1, 99378, Note_off_c, 0, 84, 63
1, 99466, Note_on_c, 0, 78, 5
1, 99476, Note_on_c, 0, 84, 78
1, 99520, Note_off_c, 0, 78, 33
1, 99593, Note_off_c, 0, 84, 62
1, 99620, Note_on_c, 0, 39, 58
1, 99676, Control_c, 0, 64, 91
1, 99691, Control_c, 0, 64, 69
1, 99706, Control_c, 0, 64, 0
1, 99742, Note_on_c, 0, 84, 65
1, 99765, Control_c, 0, 64, 26
1, 99780, Control_c, 0, 64, 62
1, 99795, Control_c, 0, 64, 68
1, 99810, Control_c, 0, 64, 75
1, 99825, Control_c, 0, 64, 83
1, 99837, Note_off_c, 0, 39, 63
1, 99840, Control_c, 0, 64, 88
1, 99855, Control_c, 0, 64, 94
1, 99869, Control_c, 0, 64, 104
1, 99884, Control_c, 0, 64, 127
1, 99888, Note_off_c, 0, 72, 60
1, 100251, Note_on_c, 0, 63, 26
1, 100266, Note_on_c, 0, 58, 42
1, 100275, Note_on_c, 0, 67, 37
1, 100313, Note_on_c, 0, 82, 57
1, 100341, Note_off_c, 0, 84, 45
1, 100362, Note_off_c, 0, 58, 62
1, 100403, Note_on_c, 0, 72, 59
1, 100412, Note_off_c, 0, 63, 42
1, 100429, Note_off_c, 0, 67, 45
1, 100484, Note_off_c, 0, 82, 55
1, 100522, Note_off_c, 0, 72, 62
1, 100689, Note_on_c, 0, 79, 63
1, 100716, Note_on_c, 0, 70, 42
1, 100741, Note_on_c, 0, 74, 35
1, 100742, Note_on_c, 0, 67, 43
1, 100824, Note_off_c, 0, 74, 59
1, 100828, Note_off_c, 0, 70, 61
1, 100844, Note_off_c, 0, 67, 62
1, 100880, Note_on_c, 0, 77, 64
1, 100900, Note_off_c, 0, 79, 56
1, 101095, Note_on_c, 0, 79, 65
1, 101151, Note_off_c, 0, 77, 57
1, 101278, Control_c, 0, 64, 93
1, 101293, Control_c, 0, 64, 72
1, 101308, Control_c, 0, 64, 0
1, 101312, Note_on_c, 0, 46, 43
1, 101367, Control_c, 0, 64, 44
1, 101382, Control_c, 0, 64, 64
1, 101396, Control_c, 0, 64, 70
1, 101411, Control_c, 0, 64, 76
1, 101426, Control_c, 0, 64, 84
1, 101431, Note_off_c, 0, 46, 59
1, 101441, Control_c, 0, 64, 89
1, 101455, Control_c, 0, 64, 95
1, 101470, Control_c, 0, 64, 105
1, 101485, Control_c, 0, 64, 127
1, 101516, Note_off_c, 0, 79, 60
1, 101965, Note_on_c, 0, 61, 16
1, 101990, Note_on_c, 0, 65, 33
1, 101997, Note_on_c, 0, 56, 35
1, 102049, Note_on_c, 0, 84, 51
1, 102150, Note_on_c, 0, 72, 28
1, 102201, Note_off_c, 0, 65, 43
1, 102230, Note_off_c, 0, 84, 51
1, 102239, Note_off_c, 0, 61, 43
1, 102362, Note_on_c, 0, 84, 45
1, 102389, Note_off_c, 0, 72, 41
1, 102399, Note_off_c, 0, 84, 53
1, 102472, Note_off_c, 0, 56, 36
1, 102567, Note_on_c, 0, 57, 32
1, 102570, Note_on_c, 0, 84, 51
1, 102570, Note_on_c, 0, 62, 32
1, 102572, Note_on_c, 0, 66, 44
1, 102606, Note_on_c, 0, 72, 44
1, 102682, Note_off_c, 0, 84, 54
1, 102696, Note_off_c, 0, 66, 44
1, 102697, Note_off_c, 0, 62, 48
1, 102740, Note_off_c, 0, 57, 38
1, 102871, Note_on_c, 0, 84, 51
1, 102970, Note_off_c, 0, 84, 59
1, 103256, Note_on_c, 0, 39, 44
1, 103265, Control_c, 0, 64, 116
1, 103274, Note_on_c, 0, 84, 48
1, 103280, Control_c, 0, 64, 94
1, 103295, Control_c, 0, 64, 78
1, 103310, Control_c, 0, 64, 62
1, 103325, Control_c, 0, 64, 40
1, 103339, Control_c, 0, 64, 57
1, 103354, Control_c, 0, 64, 64
1, 103369, Control_c, 0, 64, 68
1, 103391, Control_c, 0, 64, 75
1, 103406, Control_c, 0, 64, 85
1, 103421, Control_c, 0, 64, 96
1, 103435, Control_c, 0, 64, 101
1, 103447, Note_off_c, 0, 39, 44
1, 103450, Control_c, 0, 64, 108
1, 103465, Control_c, 0, 64, 124
1, 103480, Control_c, 0, 64, 127
1, 103506, Note_off_c, 0, 72, 42
1, 103932, Note_on_c, 0, 63, 13
1, 103938, Note_on_c, 0, 58, 41
1, 103961, Note_on_c, 0, 67, 22
1, 103971, Note_on_c, 0, 82, 44
1, 104038, Note_on_c, 0, 72, 44
1, 104044, Note_off_c, 0, 58, 60
1, 104076, Note_off_c, 0, 84, 33
1, 104094, Note_off_c, 0, 63, 43
1, 104120, Note_off_c, 0, 67, 42
1, 104145, Note_off_c, 0, 82, 37
1, 104197, Note_off_c, 0, 72, 33
1, 104371, Note_on_c, 0, 79, 51
1, 104584, Note_on_c, 0, 70, 35
1, 104595, Note_off_c, 0, 79, 53
1, 104605, Note_on_c, 0, 67, 33
1, 104607, Note_on_c, 0, 74, 28
1, 104609, Note_on_c, 0, 77, 55
1, 104682, Note_off_c, 0, 74, 57
1, 104695, Note_off_c, 0, 70, 49
1, 104705, Note_off_c, 0, 67, 58
1, 104875, Note_on_c, 0, 79, 54
1, 104938, Note_off_c, 0, 77, 36
1, 105111, Control_c, 0, 64, 111
1, 105126, Control_c, 0, 64, 90
1, 105129, Note_on_c, 0, 45, 48
1, 105140, Control_c, 0, 64, 74
1, 105155, Control_c, 0, 64, 63
1, 105170, Control_c, 0, 64, 54
1, 105185, Control_c, 0, 64, 61
1, 105200, Control_c, 0, 64, 65
1, 105214, Control_c, 0, 64, 69
1, 105229, Control_c, 0, 64, 76
1, 105244, Control_c, 0, 64, 87
1, 105259, Control_c, 0, 64, 100
1, 105274, Control_c, 0, 64, 116
1, 105279, Note_off_c, 0, 45, 60
1, 105289, Control_c, 0, 64, 127
1, 105308, Note_off_c, 0, 79, 62
1, 105643, Note_on_c, 0, 81, 68
1, 105656, Note_on_c, 0, 60, 35
1, 105656, Note_on_c, 0, 64, 36
1, 105659, Note_on_c, 0, 55, 40
1, 105802, Note_off_c, 0, 60, 53
1, 105873, Note_off_c, 0, 64, 37
1, 106106, Note_on_c, 0, 61, 32
1, 106124, Note_on_c, 0, 57, 37
1, 106132, Note_on_c, 0, 77, 58
1, 106152, Note_off_c, 0, 55, 30
1, 106196, Poly_aftertouch_c, 0, 65, 127
1, 106228, Poly_aftertouch_c, 0, 65, 0
1, 106265, Note_off_c, 0, 57, 55
1, 106288, Note_off_c, 0, 61, 42
1, 106591, Note_on_c, 0, 76, 61
1, 106663, Note_off_c, 0, 77, 61
1, 106697, Note_off_c, 0, 81, 40
1, 106905, Control_c, 0, 64, 92
1, 106920, Control_c, 0, 64, 75
1, 106923, Note_on_c, 0, 64, 44
1, 106929, Note_on_c, 0, 55, 37
1, 106933, Note_on_c, 0, 60, 35
1, 106935, Control_c, 0, 64, 64
1, 106950, Control_c, 0, 64, 62
1, 106965, Control_c, 0, 64, 65
1, 106979, Control_c, 0, 64, 69
1, 106994, Control_c, 0, 64, 75
1, 107009, Control_c, 0, 64, 89
1, 107024, Control_c, 0, 64, 100
1, 107039, Control_c, 0, 64, 111
1, 107054, Control_c, 0, 64, 127
1, 107101, Note_off_c, 0, 60, 50
1, 107120, Note_off_c, 0, 64, 54
1, 107193, Note_on_c, 0, 77, 63
1, 107221, Note_off_c, 0, 76, 64
1, 107387, Control_c, 0, 64, 99
1, 107399, Note_on_c, 0, 61, 43
1, 107402, Control_c, 0, 64, 78
1, 107413, Note_on_c, 0, 65, 46
1, 107417, Control_c, 0, 64, 65
1, 107429, Note_off_c, 0, 77, 61
1, 107430, Note_on_c, 0, 69, 48
1, 107432, Control_c, 0, 64, 56
1, 107441, Note_off_c, 0, 55, 43
1, 107447, Control_c, 0, 64, 62
1, 107462, Control_c, 0, 64, 66
1, 107476, Control_c, 0, 64, 71
1, 107491, Control_c, 0, 64, 80
1, 107506, Control_c, 0, 64, 93
1, 107521, Control_c, 0, 64, 102
1, 107535, Control_c, 0, 64, 109
1, 107550, Control_c, 0, 64, 119
1, 107559, Note_off_c, 0, 65, 57
1, 107565, Control_c, 0, 64, 127
1, 107608, Note_off_c, 0, 61, 36
1, 107880, Note_on_c, 0, 76, 59
1, 107958, Control_c, 0, 64, 101
1, 107973, Control_c, 0, 64, 83
1, 107988, Control_c, 0, 64, 69
1, 108003, Control_c, 0, 64, 64
1, 108015, Note_off_c, 0, 69, 35
1, 108018, Control_c, 0, 64, 66
1, 108032, Control_c, 0, 64, 69
1, 108047, Control_c, 0, 64, 75
1, 108062, Control_c, 0, 64, 87
1, 108077, Control_c, 0, 64, 101
1, 108092, Control_c, 0, 64, 117
1, 108106, Control_c, 0, 64, 127
1, 108294, Note_on_c, 0, 38, 42
1, 108367, Note_off_c, 0, 38, 58
1, 108710, Note_on_c, 0, 57, 50
1, 108899, Note_off_c, 0, 57, 47
1, 109126, Note_on_c, 0, 66, 60
1, 109235, Note_off_c, 0, 76, 53
1, 109241, Control_c, 0, 67, 122
1, 109255, Control_c, 0, 67, 105
1, 109270, Control_c, 0, 67, 81
1, 109285, Control_c, 0, 67, 58
1, 109299, Control_c, 0, 67, 38
1, 109314, Control_c, 0, 67, 19
1, 109329, Control_c, 0, 67, 0
1, 109570, Note_off_c, 0, 66, 59
1, 109605, Note_on_c, 0, 74, 58
1, 109759, Note_off_c, 0, 74, 65
1, 110166, Note_on_c, 0, 81, 77
1, 110593, Note_off_c, 0, 81, 63
1, 110837, Note_on_c, 0, 72, 75
1, 110844, Note_on_c, 0, 86, 80
1, 110851, Note_on_c, 0, 82, 70
1, 110852, Note_on_c, 0, 78, 66
1, 110879, Control_c, 0, 64, 91
1, 110894, Control_c, 0, 64, 70
1, 110909, Control_c, 0, 64, 0
1, 110968, Control_c, 0, 64, 42
1, 110983, Control_c, 0, 64, 64
1, 110997, Control_c, 0, 64, 73
1, 111012, Control_c, 0, 64, 81
1, 111027, Control_c, 0, 64, 92
1, 111042, Control_c, 0, 64, 104
1, 111057, Control_c, 0, 64, 127
1, 111267, Note_on_c, 0, 84, 76
1, 111367, Note_off_c, 0, 84, 63
1, 111912, Note_on_c, 0, 87, 72
1, 111918, Note_off_c, 0, 86, 60
1, 111955, Note_off_c, 0, 82, 64
1, 111966, Note_off_c, 0, 78, 59
1, 111987, Note_off_c, 0, 72, 31
1, 112010, Note_off_c, 0, 87, 65
1, 112304, Note_on_c, 0, 78, 56
1, 112315, Note_on_c, 0, 72, 50
1, 112321, Note_on_c, 0, 75, 54
1, 112323, Note_on_c, 0, 71, 42
1, 112354, Control_c, 0, 64, 108
1, 112377, Control_c, 0, 64, 93
1, 112392, Control_c, 0, 64, 80
1, 112406, Control_c, 0, 64, 66
1, 112421, Control_c, 0, 64, 46
1, 112436, Control_c, 0, 64, 18
1, 112450, Control_c, 0, 64, 24
1, 112465, Control_c, 0, 64, 45
1, 112480, Control_c, 0, 64, 59
1, 112495, Control_c, 0, 64, 65
1, 112510, Control_c, 0, 64, 71
1, 112524, Control_c, 0, 64, 80
1, 112539, Control_c, 0, 64, 90
1, 112554, Control_c, 0, 64, 97
1, 112568, Control_c, 0, 64, 103
1, 112583, Control_c, 0, 64, 112
1, 112598, Control_c, 0, 64, 127
1, 112690, Note_off_c, 0, 71, 38
1, 112723, Note_on_c, 0, 84, 54
1, 112798, Note_off_c, 0, 84, 62
1, 112802, Note_off_c, 0, 75, 34
1, 112820, Note_off_c, 0, 72, 55
1, 113239, Note_on_c, 0, 79, 50
1, 113246, Note_on_c, 0, 72, 39
1, 113261, Note_on_c, 0, 75, 38
1, 113295, Note_off_c, 0, 78, 43
1, 113390, Note_off_c, 0, 75, 34
1, 113433, Note_off_c, 0, 72, 54
1, 113553, Note_off_c, 0, 79, 57
1, 113661, Note_on_c, 0, 69, 47
1, 113689, Control_c, 0, 64, 107
1, 113704, Control_c, 0, 64, 93
1, 113719, Control_c, 0, 64, 84
1, 113734, Control_c, 0, 64, 75
1, 113749, Control_c, 0, 64, 68
1, 113764, Control_c, 0, 64, 65
1, 113779, Control_c, 0, 64, 66
1, 113793, Control_c, 0, 64, 68
1, 113808, Control_c, 0, 64, 72
1, 113823, Control_c, 0, 64, 78
1, 113838, Control_c, 0, 64, 89
1, 113853, Control_c, 0, 64, 99
1, 113875, Control_c, 0, 64, 107
1, 113890, Control_c, 0, 64, 117
1, 113904, Control_c, 0, 64, 127
1, 114072, Note_on_c, 0, 86, 73
1, 114075, Note_on_c, 0, 82, 64
1, 114076, Note_on_c, 0, 81, 64
1, 114082, Note_on_c, 0, 78, 53
1, 114347, Note_off_c, 0, 81, 34
1, 114348, Note_off_c, 0, 69, 54
1, 114434, Note_off_c, 0, 86, 56
1, 114439, Note_on_c, 0, 87, 78
1, 114450, Note_on_c, 0, 83, 62
1, 114452, Note_off_c, 0, 82, 37
1, 114500, Note_off_c, 0, 78, 61
1, 114515, Note_off_c, 0, 83, 67
1, 114548, Note_off_c, 0, 87, 67
1, 114809, Note_on_c, 0, 78, 67
1, 114821, Note_on_c, 0, 75, 58
1, 114822, Note_on_c, 0, 71, 53
1, 114824, Note_on_c, 0, 69, 50
1, 114977, Note_off_c, 0, 71, 34
1, 115178, Note_on_c, 0, 79, 73
1, 115181, Note_on_c, 0, 81, 57
1, 115193, Note_off_c, 0, 75, 44
1, 115212, Note_off_c, 0, 78, 63
1, 115241, Note_off_c, 0, 81, 64
1, 115243, Note_off_c, 0, 79, 65
1, 115357, Note_off_c, 0, 69, 61
1, 115540, Note_on_c, 0, 84, 83
1, 115552, Note_on_c, 0, 78, 63
1, 115559, Note_on_c, 0, 74, 53
1, 115878, Note_on_c, 0, 58, 53
1, 115904, Control_c, 0, 64, 107
1, 115919, Control_c, 0, 64, 88
1, 115935, Control_c, 0, 64, 71
1, 115950, Control_c, 0, 64, 44
1, 115964, Control_c, 0, 64, 0
1, 115994, Control_c, 0, 64, 22
1, 116009, Control_c, 0, 64, 62
1, 116023, Control_c, 0, 64, 69
1, 116038, Control_c, 0, 64, 76
1, 116053, Control_c, 0, 64, 84
1, 116068, Control_c, 0, 64, 91
1, 116083, Control_c, 0, 64, 99
1, 116098, Control_c, 0, 64, 107
1, 116120, Control_c, 0, 64, 117
1, 116135, Control_c, 0, 64, 127
1, 116245, Note_on_c, 0, 66, 59
1, 116247, Note_on_c, 0, 82, 74
1, 116259, Note_on_c, 0, 70, 49
1, 116309, Note_off_c, 0, 84, 56
1, 116615, Note_on_c, 0, 81, 79
1, 116637, Note_off_c, 0, 58, 41
1, 116658, Note_off_c, 0, 78, 34
1, 116671, Note_off_c, 0, 82, 51
1, 116929, Control_c, 0, 64, 109
1, 116944, Control_c, 0, 64, 88
1, 116959, Control_c, 0, 64, 72
1, 116967, Note_on_c, 0, 79, 64
1, 116970, Note_on_c, 0, 58, 41
1, 116973, Control_c, 0, 64, 55
1, 116988, Control_c, 0, 64, 0
1, 117021, Note_off_c, 0, 81, 58
1, 117033, Control_c, 0, 64, 49
1, 117047, Control_c, 0, 64, 62
1, 117061, Note_off_c, 0, 66, 38
1, 117062, Control_c, 0, 64, 67
1, 117077, Control_c, 0, 64, 74
1, 117092, Control_c, 0, 64, 85
1, 117107, Control_c, 0, 64, 95
1, 117121, Control_c, 0, 64, 101
1, 117136, Control_c, 0, 64, 109
1, 117151, Control_c, 0, 64, 127
1, 117153, Note_off_c, 0, 70, 31
1, 117313, Note_on_c, 0, 81, 71
1, 117317, Note_on_c, 0, 70, 43
1, 117323, Note_on_c, 0, 67, 43
1, 117356, Note_off_c, 0, 79, 59
1, 117383, Note_off_c, 0, 74, 35
1, 117552, Note_off_c, 0, 58, 40
1, 117694, Note_on_c, 0, 74, 44
1, 117704, Note_off_c, 0, 81, 62
1, 117778, Note_off_c, 0, 74, 59
1, 118039, Note_off_c, 0, 67, 46
1, 118040, Note_on_c, 0, 58, 40
1, 118143, Note_off_c, 0, 70, 40
1, 118424, Note_on_c, 0, 77, 58
1, 118429, Note_on_c, 0, 68, 51
1, 118430, Note_on_c, 0, 70, 51
1, 118448, Note_on_c, 0, 72, 50
1, 118456, Control_c, 0, 64, 98
1, 118470, Control_c, 0, 64, 80
1, 118485, Control_c, 0, 64, 63
1, 118500, Control_c, 0, 64, 0
1, 118559, Control_c, 0, 64, 27
1, 118574, Control_c, 0, 64, 52
1, 118589, Control_c, 0, 64, 64
1, 118604, Control_c, 0, 64, 70
1, 118618, Control_c, 0, 64, 79
1, 118633, Control_c, 0, 64, 89
1, 118648, Control_c, 0, 64, 97
1, 118663, Control_c, 0, 64, 106
1, 118678, Control_c, 0, 64, 122
1, 118692, Control_c, 0, 64, 127
1, 118766, Control_c, 0, 67, 15
1, 118781, Control_c, 0, 67, 31
1, 118796, Control_c, 0, 67, 56
1, 118810, Control_c, 0, 67, 88
1, 118825, Control_c, 0, 67, 121
1, 118840, Note_off_c, 0, 58, 40
1, 118840, Control_c, 0, 67, 127
1, 118939, Note_off_c, 0, 72, 29
1, 119063, Note_off_c, 0, 77, 27
1, 119146, Note_off_c, 0, 70, 32
1, 119519, Note_on_c, 0, 58, 39
1, 119552, Note_off_c, 0, 68, 40
1, 120028, Control_c, 0, 64, 103
1, 120029, Note_on_c, 0, 70, 56
1, 120035, Note_on_c, 0, 68, 45
1, 120039, Note_on_c, 0, 74, 42
1, 120043, Control_c, 0, 64, 85
1, 120047, Note_on_c, 0, 72, 49
1, 120057, Control_c, 0, 64, 70
1, 120072, Control_c, 0, 64, 44
1, 120087, Control_c, 0, 64, 0
1, 120102, Control_c, 0, 64, 35
1, 120116, Control_c, 0, 64, 59
1, 120131, Control_c, 0, 64, 66
1, 120146, Control_c, 0, 64, 72
1, 120161, Control_c, 0, 64, 80
1, 120176, Control_c, 0, 64, 89
1, 120190, Control_c, 0, 64, 95
1, 120205, Control_c, 0, 64, 100
1, 120220, Control_c, 0, 64, 106
1, 120235, Control_c, 0, 64, 115
1, 120250, Control_c, 0, 64, 127
1, 120305, Note_off_c, 0, 70, 34
1, 120351, Note_off_c, 0, 68, 34
1, 120384, Note_off_c, 0, 58, 35
1, 120848, Note_on_c, 0, 60, 39
1, 121008, Note_off_c, 0, 60, 44
1, 121053, Note_off_c, 0, 74, 29
1, 121338, Note_off_c, 0, 72, 19
1, 121621, Poly_aftertouch_c, 0, 68, 127
1, 121708, Note_on_c, 0, 43, 37
1, 121711, Note_on_c, 0, 62, 47
1, 121733, Control_c, 0, 64, 104
1, 121748, Control_c, 0, 64, 87
1, 121762, Control_c, 0, 64, 72
1, 121777, Control_c, 0, 64, 46
1, 121792, Control_c, 0, 64, 0
1, 121830, Poly_aftertouch_c, 0, 68, 0
1, 121836, Control_c, 0, 64, 45
1, 121851, Control_c, 0, 64, 58
1, 121866, Control_c, 0, 64, 64
1, 121881, Control_c, 0, 64, 70
1, 121896, Control_c, 0, 64, 78
1, 121910, Control_c, 0, 64, 86
1, 121925, Control_c, 0, 64, 93
1, 121940, Control_c, 0, 64, 98
1, 121955, Control_c, 0, 64, 104
1, 121967, Note_off_c, 0, 43, 42
1, 121970, Control_c, 0, 64, 116
1, 121985, Control_c, 0, 64, 127
1, 122304, Note_on_c, 0, 57, 34
1, 122307, Note_on_c, 0, 65, 47
1, 122311, Note_on_c, 0, 50, 32
1, 122316, Note_on_c, 0, 71, 27
1, 122325, Note_on_c, 0, 59, 24
1, 122325, Note_on_c, 0, 74, 36
1, 122384, Note_off_c, 0, 62, 34
1, 122706, Note_on_c, 0, 67, 60
1, 122741, Note_off_c, 0, 57, 56
1, 122761, Note_off_c, 0, 65, 59
1, 122810, Note_off_c, 0, 50, 42
1, 122810, Note_off_c, 0, 59, 52
1, 122817, Note_off_c, 0, 71, 40
1, 123092, Note_on_c, 0, 43, 44
1, 123099, Note_on_c, 0, 69, 63
1, 123111, Control_c, 0, 64, 109
1, 123127, Control_c, 0, 64, 87
1, 123133, Note_off_c, 0, 74, 40
1, 123142, Control_c, 0, 64, 68
1, 123156, Control_c, 0, 64, 0
1, 123171, Note_off_c, 0, 67, 55
1, 123231, Control_c, 0, 64, 59
1, 123246, Control_c, 0, 64, 68
1, 123260, Control_c, 0, 64, 77
1, 123275, Control_c, 0, 64, 90
1, 123290, Control_c, 0, 64, 102
1, 123304, Note_off_c, 0, 43, 61
1, 123305, Control_c, 0, 64, 127
1, 123602, Note_on_c, 0, 75, 51
1, 123605, Note_on_c, 0, 55, 43
1, 123614, Note_on_c, 0, 73, 48
1, 123617, Note_on_c, 0, 63, 45
1, 123625, Note_on_c, 0, 61, 43
1, 123839, Note_off_c, 0, 63, 33
1, 123848, Note_off_c, 0, 55, 37
1, 123869, Note_off_c, 0, 61, 32
1, 124089, Note_on_c, 0, 65, 62
1, 124155, Note_off_c, 0, 69, 61
1, 124247, Note_off_c, 0, 75, 45
1, 124313, Note_off_c, 0, 73, 25
1, 124471, Note_on_c, 0, 43, 47
1, 124485, Note_on_c, 0, 69, 68
1, 124505, Control_c, 0, 64, 103
1, 124520, Control_c, 0, 64, 83
1, 124535, Control_c, 0, 64, 67
1, 124550, Control_c, 0, 64, 22
1, 124558, Note_off_c, 0, 65, 58
1, 124564, Control_c, 0, 64, 0
1, 124608, Control_c, 0, 64, 42
1, 124623, Control_c, 0, 64, 65
1, 124638, Control_c, 0, 64, 75
1, 124653, Control_c, 0, 64, 91
1, 124668, Control_c, 0, 64, 127
1, 124698, Note_off_c, 0, 43, 61
1, 124883, Note_on_c, 0, 74, 54
1, 124886, Note_on_c, 0, 50, 51
1, 124894, Note_on_c, 0, 59, 54
1, 124895, Note_on_c, 0, 71, 39
1, 124896, Note_on_c, 0, 57, 47
1, 125148, Note_off_c, 0, 57, 59
1, 125183, Note_off_c, 0, 59, 62
1, 125199, Note_off_c, 0, 50, 61
1, 125271, Note_on_c, 0, 65, 67
1, 125277, Note_off_c, 0, 69, 60
1, 125461, Note_on_c, 0, 67, 79
1, 125470, Note_off_c, 0, 65, 64
1, 125470, Note_off_c, 0, 71, 22
1, 125574, Note_off_c, 0, 74, 53
1, 125610, Control_c, 0, 64, 106
1, 125619, Note_on_c, 0, 43, 53
1, 125625, Control_c, 0, 64, 82
1, 125640, Control_c, 0, 64, 64
1, 125654, Control_c, 0, 64, 0
1, 125659, Note_on_c, 0, 69, 78
1, 125661, Note_off_c, 0, 67, 64
1, 125699, Control_c, 0, 64, 50
1, 125714, Control_c, 0, 64, 67
1, 125729, Control_c, 0, 64, 76
1, 125744, Control_c, 0, 64, 86
1, 125759, Control_c, 0, 64, 94
1, 125762, Note_off_c, 0, 43, 61
1, 125773, Control_c, 0, 64, 103
1, 125788, Control_c, 0, 64, 114
1, 125803, Control_c, 0, 64, 127
1, 126029, Note_on_c, 0, 67, 67
1, 126030, Note_on_c, 0, 75, 63
1, 126030, Note_off_c, 0, 69, 56
1, 126033, Note_on_c, 0, 73, 60
1, 126047, Note_on_c, 0, 61, 54
1, 126048, Note_on_c, 0, 63, 51
1, 126102, Note_on_c, 0, 55, 34
1, 126118, Poly_aftertouch_c, 0, 54, 0
1, 126158, Note_off_c, 0, 63, 60
1, 126178, Note_off_c, 0, 75, 56
1, 126188, Note_off_c, 0, 61, 61
1, 126194, Note_off_c, 0, 55, 60
1, 126394, Note_on_c, 0, 62, 68
1, 126434, Note_off_c, 0, 73, 33
1, 126728, Note_on_c, 0, 43, 58
1, 126737, Control_c, 0, 64, 94
1, 126751, Control_c, 0, 64, 74
1, 126766, Control_c, 0, 64, 44
1, 126781, Control_c, 0, 64, 0
1, 126800, Note_on_c, 0, 74, 76
1, 126811, Control_c, 0, 64, 58
1, 126826, Control_c, 0, 64, 69
1, 126830, Note_off_c, 0, 62, 60
1, 126831, Note_off_c, 0, 67, 22
1, 126841, Control_c, 0, 64, 83
1, 126856, Control_c, 0, 64, 104
1, 126870, Control_c, 0, 64, 127
1, 126893, Note_off_c, 0, 74, 65
1, 126896, Note_off_c, 0, 43, 62
1, 127138, Control_c, 0, 67, 126
1, 127152, Control_c, 0, 67, 109
1, 127167, Control_c, 0, 67, 86
1, 127171, Note_on_c, 0, 59, 51
1, 127172, Note_on_c, 0, 77, 83
1, 127174, Note_on_c, 0, 65, 60
1, 127175, Note_on_c, 0, 57, 47
1, 127182, Control_c, 0, 67, 61
1, 127187, Note_on_c, 0, 83, 47
1, 127197, Control_c, 0, 67, 35
1, 127212, Control_c, 0, 67, 10
1, 127226, Control_c, 0, 67, 0
1, 127260, Note_off_c, 0, 83, 54
1, 127530, Note_on_c, 0, 67, 56
1, 127535, Note_on_c, 0, 79, 80
1, 127535, Note_off_c, 0, 65, 65
1, 127559, Note_off_c, 0, 67, 65
1, 127586, Note_off_c, 0, 59, 62
1, 127586, Note_off_c, 0, 57, 61
1, 127612, Note_off_c, 0, 77, 53
1, 127831, Note_on_c, 0, 43, 64
1, 127856, Control_c, 0, 64, 112
1, 127870, Control_c, 0, 64, 81
1, 127885, Control_c, 0, 64, 51
1, 127900, Control_c, 0, 64, 0
1, 127904, Note_on_c, 0, 81, 87
1, 127912, Note_on_c, 0, 69, 66
1, 127926, Note_off_c, 0, 79, 61
1, 127961, Control_c, 0, 64, 64
1, 127975, Control_c, 0, 64, 75
1, 127990, Control_c, 0, 64, 87
1, 128005, Control_c, 0, 64, 100
1, 128006, Note_off_c, 0, 43, 62
1, 128009, Note_off_c, 0, 69, 63
1, 128020, Control_c, 0, 64, 127
1, 128051, Note_off_c, 0, 81, 67
1, 128321, Note_on_c, 0, 85, 25
1, 128322, Note_on_c, 0, 73, 63
1, 128329, Note_on_c, 0, 63, 61
1, 128329, Note_on_c, 0, 87, 81
1, 128332, Note_on_c, 0, 61, 57
1, 128339, Note_on_c, 0, 75, 68
1, 128433, Note_off_c, 0, 87, 59
1, 128463, Note_off_c, 0, 85, 36
1, 128678, Note_off_c, 0, 73, 62
1, 128781, Note_on_c, 0, 65, 63
1, 128784, Note_off_c, 0, 63, 0
1, 128790, Note_on_c, 0, 77, 82
1, 128811, Note_off_c, 0, 65, 66
1, 128820, Note_off_c, 0, 75, 36
1, 128821, Poly_aftertouch_c, 0, 63, 127
1, 128823, Note_off_c, 0, 61, 55
1, 128875, Poly_aftertouch_c, 0, 63, 0
1, 129083, Note_off_c, 0, 77, 49
1, 129131, Control_c, 0, 64, 94
1, 129132, Note_on_c, 0, 43, 64
1, 129143, Note_on_c, 0, 81, 92
1, 129146, Control_c, 0, 64, 72
1, 129148, Note_on_c, 0, 69, 83
1, 129161, Control_c, 0, 64, 0
1, 129205, Control_c, 0, 64, 12
1, 129220, Control_c, 0, 64, 65
1, 129235, Control_c, 0, 64, 76
1, 129250, Control_c, 0, 64, 90
1, 129265, Control_c, 0, 64, 115
1, 129267, Note_off_c, 0, 43, 62
1, 129279, Control_c, 0, 64, 127
1, 129387, Note_off_c, 0, 69, 59
1, 129497, Note_on_c, 0, 59, 61
1, 129503, Note_on_c, 0, 83, 82
1, 129505, Note_on_c, 0, 69, 66
1, 129505, Note_on_c, 0, 71, 77
1, 129512, Note_on_c, 0, 57, 58
1, 129530, Note_off_c, 0, 81, 65
1, 129741, Note_off_c, 0, 71, 61
1, 129762, Note_off_c, 0, 83, 0
1, 129799, Poly_aftertouch_c, 0, 83, 127
1, 129832, Note_off_c, 0, 69, 35
1, 129860, Note_on_c, 0, 65, 70
1, 129861, Note_on_c, 0, 77, 88
1, 129887, Poly_aftertouch_c, 0, 83, 0
1, 130031, Note_off_c, 0, 65, 65
1, 130042, Note_on_c, 0, 79, 84
1, 130047, Note_on_c, 0, 67, 74
1, 130059, Note_off_c, 0, 59, 51
1, 130069, Note_off_c, 0, 67, 67
1, 130071, Note_off_c, 0, 77, 61
1, 130096, Note_off_c, 0, 57, 18
1, 130257, Note_on_c, 0, 46, 11
1, 130264, Control_c, 0, 64, 111
1, 130272, Note_off_c, 0, 79, 61
1, 130275, Note_on_c, 0, 81, 92
1, 130277, Note_on_c, 0, 69, 84
1, 130279, Note_on_c, 0, 43, 71
1, 130279, Control_c, 0, 64, 81
1, 130294, Control_c, 0, 64, 56
1, 130310, Control_c, 0, 64, 0
1, 130311, Note_off_c, 0, 46, 53
1, 130347, Control_c, 0, 64, 35
1, 130362, Control_c, 0, 64, 70
1, 130376, Control_c, 0, 64, 85
1, 130386, Note_off_c, 0, 69, 63
1, 130391, Control_c, 0, 64, 115
1, 130392, Note_off_c, 0, 43, 63
1, 130406, Control_c, 0, 64, 127
1, 130417, Note_off_c, 0, 81, 66
1, 130686, Note_on_c, 0, 86, 89
1, 130692, Note_on_c, 0, 74, 86
1, 130698, Note_on_c, 0, 62, 63
1, 130700, Note_on_c, 0, 69, 61
1, 130703, Note_on_c, 0, 71, 71
1, 130740, Note_off_c, 0, 74, 64
1, 130777, Note_off_c, 0, 86, 65
1, 131095, Note_on_c, 0, 65, 64
1, 131109, Note_off_c, 0, 69, 52
1, 131154, Note_off_c, 0, 62, 52
1, 131164, Note_on_c, 0, 89, 93
1, 131166, Note_off_c, 0, 71, 58
1, 131169, Note_on_c, 0, 77, 90
1, 131176, Note_off_c, 0, 65, 65
1, 131348, Control_c, 0, 64, 89
1, 131363, Control_c, 0, 64, 69
1, 131374, Note_on_c, 0, 55, 70
1, 131378, Control_c, 0, 64, 61
1, 131392, Control_c, 0, 64, 66
1, 131407, Control_c, 0, 64, 75
1, 131422, Control_c, 0, 64, 93
1, 131434, Note_off_c, 0, 77, 60
1, 131436, Control_c, 0, 64, 127
1, 131464, Note_off_c, 0, 89, 63
1, 131472, Note_on_c, 0, 61, 63
1, 131522, Note_off_c, 0, 55, 54
1, 131557, Note_on_c, 0, 64, 65
1, 131643, Note_off_c, 0, 61, 56
1, 131673, Note_off_c, 0, 64, 65
1, 131674, Note_on_c, 0, 93, 92
1, 131676, Note_on_c, 0, 70, 88
1, 131676, Note_on_c, 0, 81, 104
1, 131681, Note_on_c, 0, 89, 76
1, 131682, Note_on_c, 0, 85, 82
1, 131719, Note_off_c, 0, 70, 62
1, 132087, Note_on_c, 0, 70, 75
1, 132088, Note_off_c, 0, 93, 51
1, 132092, Note_on_c, 0, 82, 90
1, 132129, Note_off_c, 0, 81, 51
1, 132145, Note_off_c, 0, 82, 65
1, 132177, Note_off_c, 0, 70, 57
1, 132180, Note_off_c, 0, 89, 62
1, 132504, Note_off_c, 0, 85, 63
1, 132607, Note_on_c, 0, 86, 17
1, 132630, Note_on_c, 0, 90, 85
1, 132635, Note_on_c, 0, 78, 77
1, 132645, Note_off_c, 0, 86, 49
1, 132830, Note_off_c, 0, 90, 55
1, 132833, Note_on_c, 0, 53, 58
1, 132851, Note_off_c, 0, 78, 63
1, 132871, Note_on_c, 0, 56, 53
1, 132911, Note_on_c, 0, 59, 52
1, 132979, Control_c, 0, 64, 91
1, 132981, Note_off_c, 0, 53, 59
1, 132993, Control_c, 0, 64, 70
1, 133008, Control_c, 0, 64, 0
1, 133020, Note_on_c, 0, 91, 79
1, 133025, Note_on_c, 0, 79, 71
1, 133027, Note_on_c, 0, 87, 71
1, 133030, Note_on_c, 0, 83, 66
1, 133038, Control_c, 0, 64, 22
1, 133048, Note_on_c, 0, 68, 63
1, 133053, Control_c, 0, 64, 65
1, 133068, Control_c, 0, 64, 76
1, 133082, Control_c, 0, 64, 96
1, 133088, Note_off_c, 0, 59, 61
1, 133097, Control_c, 0, 64, 127
1, 133101, Note_off_c, 0, 56, 63
1, 133150, Note_off_c, 0, 68, 63
1, 133415, Note_on_c, 0, 80, 58
1, 133416, Note_on_c, 0, 68, 59
1, 133422, Note_off_c, 0, 83, 60
1, 133430, Note_off_c, 0, 87, 54
1, 133446, Note_off_c, 0, 91, 54
1, 133474, Note_off_c, 0, 80, 57
1, 133503, Note_off_c, 0, 68, 59
1, 133749, Note_off_c, 0, 79, 57
1, 133924, Note_on_c, 0, 88, 62
1, 133926, Note_on_c, 0, 84, 53
1, 133932, Note_on_c, 0, 76, 53
1, 134164, Control_c, 0, 64, 105
1, 134168, Note_on_c, 0, 55, 63
1, 134179, Control_c, 0, 64, 83
1, 134194, Control_c, 0, 64, 66
1, 134209, Control_c, 0, 64, 0
1, 134236, Note_on_c, 0, 61, 54
1, 134238, Control_c, 0, 64, 34
1, 134253, Control_c, 0, 64, 64
1, 134268, Control_c, 0, 64, 72
1, 134271, Note_off_c, 0, 55, 63
1, 134277, Note_on_c, 0, 64, 59
1, 134283, Control_c, 0, 64, 86
1, 134298, Control_c, 0, 64, 107
1, 134314, Control_c, 0, 64, 127
1, 134322, Note_off_c, 0, 76, 62
1, 134332, Note_off_c, 0, 84, 61
1, 134349, Note_off_c, 0, 61, 61
1, 134353, Note_on_c, 0, 70, 82
1, 134361, Note_off_c, 0, 64, 62
1, 134361, Note_off_c, 0, 88, 65
1, 134407, Note_off_c, 0, 70, 62
1, 134685, Note_on_c, 0, 93, 85
1, 134689, Note_on_c, 0, 81, 89
1, 134692, Note_on_c, 0, 89, 81
1, 134694, Note_on_c, 0, 85, 77
1, 134696, Note_on_c, 0, 82, 73
1, 134703, Note_on_c, 0, 70, 73
1, 134744, Note_off_c, 0, 82, 66
1, 134765, Note_off_c, 0, 85, 64
1, 134773, Note_off_c, 0, 89, 64
1, 134788, Note_off_c, 0, 70, 63
1, 134799, Note_off_c, 0, 93, 63
1, 134890, Note_off_c, 0, 81, 61
1, 135062, Note_on_c, 0, 90, 90
1, 135065, Note_on_c, 0, 78, 87
1, 135228, Note_off_c, 0, 90, 60
1, 135246, Note_on_c, 0, 53, 59
1, 135248, Note_off_c, 0, 78, 62
1, 135284, Note_on_c, 0, 56, 53
1, 135317, Note_on_c, 0, 59, 50
1, 135361, Note_off_c, 0, 53, 57
1, 135388, Control_c, 0, 64, 93
1, 135402, Control_c, 0, 64, 75
1, 135417, Note_on_c, 0, 91, 87
1, 135417, Control_c, 0, 64, 62
1, 135421, Note_on_c, 0, 83, 75
1, 135423, Note_on_c, 0, 79, 77
1, 135425, Note_on_c, 0, 87, 77
1, 135432, Control_c, 0, 64, 41
1, 135439, Note_on_c, 0, 68, 66
1, 135442, Note_off_c, 0, 59, 64
1, 135447, Control_c, 0, 64, 62
1, 135457, Note_off_c, 0, 56, 62
1, 135462, Control_c, 0, 64, 69
1, 135477, Control_c, 0, 64, 82
1, 135491, Control_c, 0, 64, 108
1, 135506, Control_c, 0, 64, 127
1, 135521, Note_off_c, 0, 68, 63
1, 135778, Note_on_c, 0, 80, 73
1, 135780, Note_on_c, 0, 68, 71
1, 135792, Note_off_c, 0, 83, 67
1, 135801, Note_off_c, 0, 91, 58
1, 135803, Note_off_c, 0, 87, 63
1, 135886, Note_off_c, 0, 80, 55
1, 135972, Note_off_c, 0, 79, 59
1, 136123, Note_on_c, 0, 88, 82
1, 136135, Note_on_c, 0, 76, 72
1, 136300, Note_off_c, 0, 76, 62
1, 136319, Note_off_c, 0, 88, 62
1, 136462, Note_on_c, 0, 69, 58
1, 136463, Note_on_c, 0, 73, 62
1, 136485, Control_c, 0, 64, 93
1, 136496, Note_off_c, 0, 68, 52
1, 136500, Control_c, 0, 64, 70
1, 136514, Control_c, 0, 64, 0
1, 136529, Note_on_c, 0, 77, 81
1, 136529, Note_on_c, 0, 89, 85
1, 136535, Note_on_c, 0, 81, 75
1, 136540, Note_on_c, 0, 85, 70
1, 136574, Control_c, 0, 64, 64
1, 136588, Control_c, 0, 64, 75
1, 136603, Control_c, 0, 64, 90
1, 136618, Control_c, 0, 64, 111
1, 136633, Control_c, 0, 64, 127
1, 136639, Note_off_c, 0, 73, 66
1, 136668, Note_off_c, 0, 69, 63
1, 136900, Note_on_c, 0, 64, 70
1, 136973, Note_off_c, 0, 77, 59
1, 137043, Note_off_c, 0, 89, 35
1, 137298, Note_on_c, 0, 76, 64
1, 137314, Note_off_c, 0, 64, 56
1, 137546, Control_c, 0, 67, 8
1, 137560, Control_c, 0, 67, 14
1, 137572, Note_off_c, 0, 81, 27
1, 137575, Control_c, 0, 67, 22
1, 137590, Control_c, 0, 67, 38
1, 137605, Control_c, 0, 67, 61
1, 137620, Control_c, 0, 67, 89
1, 137635, Control_c, 0, 67, 123
1, 137650, Control_c, 0, 67, 127
1, 137787, Note_off_c, 0, 85, 33
1, 138200, Note_off_c, 0, 76, 32
1, 138385, Note_on_c, 0, 64, 51
1, 138775, Note_on_c, 0, 76, 59
1, 139163, Note_on_c, 0, 77, 62
1, 139176, Note_off_c, 0, 76, 57
1, 139179, Note_on_c, 0, 69, 38
1, 139651, Note_on_c, 0, 63, 47
1, 139659, Control_c, 0, 64, 109
1, 139674, Control_c, 0, 64, 93
1, 139689, Control_c, 0, 64, 78
1, 139698, Note_off_c, 0, 64, 55
1, 139703, Control_c, 0, 64, 65
1, 139718, Control_c, 0, 64, 0
1, 139777, Control_c, 0, 64, 41
1, 139792, Control_c, 0, 64, 56
1, 139807, Control_c, 0, 64, 64
1, 139822, Control_c, 0, 64, 69
1, 139837, Control_c, 0, 64, 76
1, 139851, Control_c, 0, 64, 83
1, 139866, Control_c, 0, 64, 87
1, 139881, Control_c, 0, 64, 90
1, 139897, Control_c, 0, 64, 93
1, 139912, Control_c, 0, 64, 97
1, 139926, Control_c, 0, 64, 101
1, 139941, Control_c, 0, 64, 107
1, 139956, Control_c, 0, 64, 112
1, 139971, Control_c, 0, 64, 126
1, 139986, Control_c, 0, 64, 127
1, 140192, Note_on_c, 0, 73, 59
1, 140323, Note_off_c, 0, 77, 35
1, 140674, Control_c, 0, 64, 117
1, 140689, Control_c, 0, 64, 106
1, 140705, Control_c, 0, 64, 97
1, 140720, Control_c, 0, 64, 87
1, 140723, Note_on_c, 0, 53, 43
1, 140735, Control_c, 0, 64, 72
1, 140749, Control_c, 0, 64, 48
1, 140764, Control_c, 0, 64, 0
1, 140818, Note_off_c, 0, 69, 39
1, 140875, Control_c, 0, 64, 51
1, 140890, Control_c, 0, 64, 65
1, 140905, Control_c, 0, 64, 70
1, 140919, Control_c, 0, 64, 75
1, 140934, Control_c, 0, 64, 80
1, 140948, Control_c, 0, 64, 85
1, 140963, Control_c, 0, 64, 89
1, 140978, Control_c, 0, 64, 93
1, 140993, Control_c, 0, 64, 98
1, 141008, Control_c, 0, 64, 104
1, 141022, Control_c, 0, 64, 114
1, 141037, Control_c, 0, 64, 127
1, 141414, Note_on_c, 0, 77, 46
1, 141438, Note_on_c, 0, 72, 51
1, 141465, Note_off_c, 0, 73, 52
1, 141498, Note_off_c, 0, 63, 52
1, 141542, Note_off_c, 0, 53, 32
1, 141586, Note_off_c, 0, 72, 59
1, 141598, Note_off_c, 0, 77, 49
1, 142297, Note_on_c, 0, 68, 42
1, 142305, Note_on_c, 0, 62, 33
1, 142308, Note_on_c, 0, 46, 35
1, 142312, Note_on_c, 0, 53, 38
1, 142342, Control_c, 0, 64, 124
1, 142357, Control_c, 0, 64, 94
1, 142372, Control_c, 0, 64, 76
1, 142387, Control_c, 0, 64, 54
1, 142401, Control_c, 0, 64, 0
1, 142431, Control_c, 0, 64, 18
1, 142446, Control_c, 0, 64, 56
1, 142461, Control_c, 0, 64, 64
1, 142476, Control_c, 0, 64, 67
1, 142491, Control_c, 0, 64, 72
1, 142506, Control_c, 0, 64, 78
1, 142520, Control_c, 0, 64, 83
1, 142535, Control_c, 0, 64, 86
1, 142550, Control_c, 0, 64, 89
1, 142565, Control_c, 0, 64, 92
1, 142579, Note_off_c, 0, 53, 31
1, 142580, Control_c, 0, 64, 95
1, 142594, Control_c, 0, 64, 99
1, 142609, Control_c, 0, 64, 103
1, 142620, Note_off_c, 0, 46, 25
1, 142624, Control_c, 0, 64, 107
1, 142639, Control_c, 0, 64, 112
1, 142653, Control_c, 0, 64, 121
1, 142668, Control_c, 0, 64, 127
1, 143407, Note_off_c, 0, 62, 22
1, 143490, Note_off_c, 0, 68, 42
1, 143549, Note_on_c, 0, 39, 41
1, 143595, Control_c, 0, 64, 103
1, 143610, Control_c, 0, 64, 82
1, 143625, Control_c, 0, 64, 65
1, 143640, Control_c, 0, 64, 0
1, 143669, Control_c, 0, 64, 40
1, 143684, Control_c, 0, 64, 62
1, 143699, Control_c, 0, 64, 68
1, 143714, Control_c, 0, 64, 75
1, 143729, Control_c, 0, 64, 85
1, 143743, Control_c, 0, 64, 93
1, 143758, Control_c, 0, 64, 99
1, 143773, Control_c, 0, 64, 108
1, 143787, Control_c, 0, 64, 127
1, 143816, Note_off_c, 0, 39, 41
1, 144278, Note_on_c, 0, 49, 39
1, 144290, Note_on_c, 0, 58, 34
1, 144303, Note_on_c, 0, 54, 33
1, 144338, Note_on_c, 0, 65, 51
1, 144545, Note_on_c, 0, 77, 7
1, 144576, Note_off_c, 0, 54, 43
1, 144610, Note_off_c, 0, 65, 44
1, 144739, Note_on_c, 0, 65, 57
1, 144782, Note_off_c, 0, 58, 42
1, 144831, Note_off_c, 0, 77, 44
1, 144847, Note_off_c, 0, 65, 62
1, 144941, Note_on_c, 0, 55, 31
1, 144947, Note_on_c, 0, 59, 37
1, 144954, Note_on_c, 0, 50, 42
1, 144968, Note_on_c, 0, 77, 9
1, 144972, Note_on_c, 0, 65, 62
1, 145057, Note_off_c, 0, 49, 34
1, 145074, Note_off_c, 0, 65, 62
1, 145106, Note_off_c, 0, 77, 0
1, 145123, Note_off_c, 0, 55, 50
1, 145156, Note_off_c, 0, 59, 56
1, 145167, Poly_aftertouch_c, 0, 77, 0
1, 145185, Note_off_c, 0, 50, 36
1, 145191, Note_on_c, 0, 65, 69
1, 145335, Note_off_c, 0, 65, 60
1, 145402, Note_on_c, 0, 44, 51
1, 145470, Control_c, 0, 64, 118
1, 145485, Control_c, 0, 64, 88
1, 145490, Note_on_c, 0, 77, 72
1, 145492, Note_on_c, 0, 65, 63
1, 145501, Control_c, 0, 64, 68
1, 145516, Control_c, 0, 64, 0
1, 145589, Control_c, 0, 64, 62
1, 145604, Control_c, 0, 64, 69
1, 145619, Control_c, 0, 64, 77
1, 145634, Control_c, 0, 64, 85
1, 145649, Control_c, 0, 64, 92
1, 145664, Control_c, 0, 64, 99
1, 145676, Note_off_c, 0, 44, 55
1, 145678, Control_c, 0, 64, 109
1, 145693, Control_c, 0, 64, 127
1, 145778, Note_off_c, 0, 65, 54
1, 145990, Note_on_c, 0, 51, 46
1, 145992, Note_on_c, 0, 56, 43
1, 146011, Note_on_c, 0, 60, 46
1, 146086, Note_off_c, 0, 77, 53
1, 146105, Note_on_c, 0, 75, 56
1, 146110, Note_off_c, 0, 56, 61
1, 146118, Note_off_c, 0, 51, 61
1, 146142, Note_off_c, 0, 60, 51
1, 146142, Note_on_c, 0, 65, 40
1, 146213, Note_off_c, 0, 65, 0
1, 146250, Poly_aftertouch_c, 0, 65, 127
1, 146293, Poly_aftertouch_c, 0, 65, 0
1, 146329, Note_off_c, 0, 75, 23
1, 146371, Note_on_c, 0, 72, 71
1, 146493, Note_on_c, 0, 63, 26
1, 146509, Note_on_c, 0, 60, 48
1, 146526, Note_on_c, 0, 67, 49
1, 146563, Note_on_c, 0, 70, 69
1, 146564, Note_off_c, 0, 67, 59
1, 146594, Note_off_c, 0, 72, 52
1, 146595, Note_off_c, 0, 63, 43
1, 146600, Note_off_c, 0, 60, 60
1, 146772, Note_on_c, 0, 72, 70
1, 146818, Note_off_c, 0, 70, 52
1, 146908, Control_c, 0, 64, 108
1, 146923, Control_c, 0, 64, 90
1, 146938, Control_c, 0, 64, 70
1, 146952, Control_c, 0, 64, 0
1, 147015, Note_on_c, 0, 39, 39
1, 147041, Control_c, 0, 64, 44
1, 147056, Control_c, 0, 64, 65
1, 147071, Control_c, 0, 64, 72
1, 147086, Control_c, 0, 64, 78
1, 147091, Note_off_c, 0, 39, 56
1, 147102, Control_c, 0, 64, 84
1, 147116, Control_c, 0, 64, 89
1, 147131, Control_c, 0, 64, 98
1, 147146, Control_c, 0, 64, 110
1, 147160, Control_c, 0, 64, 127
1, 147195, Note_off_c, 0, 72, 59
1, 147609, Note_on_c, 0, 49, 33
1, 147626, Note_on_c, 0, 58, 27
1, 147645, Note_on_c, 0, 54, 22
1, 147680, Note_on_c, 0, 65, 44
1, 147800, Note_on_c, 0, 77, 32
1, 147836, Note_off_c, 0, 65, 34
1, 147879, Note_off_c, 0, 54, 41
1, 147954, Note_on_c, 0, 65, 50
1, 147986, Note_off_c, 0, 77, 38
1, 148016, Note_off_c, 0, 65, 55
1, 148066, Note_off_c, 0, 58, 44
1, 148181, Note_on_c, 0, 65, 47
1, 148203, Note_on_c, 0, 50, 33
1, 148209, Note_on_c, 0, 59, 31
1, 148217, Note_off_c, 0, 49, 42
1, 148220, Note_on_c, 0, 55, 23
1, 148247, Note_off_c, 0, 65, 56
1, 148297, Note_on_c, 0, 77, 13
1, 148405, Note_off_c, 0, 55, 41
1, 148457, Note_off_c, 0, 50, 33
1, 148463, Note_off_c, 0, 59, 42
1, 148480, Note_on_c, 0, 65, 51
1, 148512, Note_off_c, 0, 77, 33
1, 148557, Note_off_c, 0, 65, 53
1, 148860, Note_on_c, 0, 44, 39
1, 148900, Note_on_c, 0, 77, 49
1, 148910, Control_c, 0, 64, 104
1, 148917, Note_on_c, 0, 65, 41
1, 148925, Control_c, 0, 64, 85
1, 148939, Control_c, 0, 64, 70
1, 148954, Control_c, 0, 64, 46
1, 148969, Control_c, 0, 64, 0
1, 149013, Control_c, 0, 64, 51
1, 149028, Control_c, 0, 64, 64
1, 149043, Control_c, 0, 64, 69
1, 149066, Control_c, 0, 64, 77
1, 149081, Note_off_c, 0, 44, 41
1, 149081, Control_c, 0, 64, 85
1, 149095, Control_c, 0, 64, 91
1, 149110, Control_c, 0, 64, 96
1, 149125, Control_c, 0, 64, 104
1, 149139, Control_c, 0, 64, 113
1, 149155, Control_c, 0, 64, 127
1, 149237, Note_off_c, 0, 65, 45
1, 149341, Note_off_c, 0, 77, 19
1, 149502, Note_on_c, 0, 51, 39
1, 149513, Note_on_c, 0, 56, 25
1, 149528, Note_on_c, 0, 60, 12
1, 149528, Note_on_c, 0, 75, 49
1, 149638, Note_on_c, 0, 65, 30
1, 149661, Note_off_c, 0, 56, 39
1, 149664, Note_off_c, 0, 51, 35
1, 149704, Note_off_c, 0, 60, 42
1, 149734, Note_off_c, 0, 75, 28
1, 149792, Note_off_c, 0, 65, 46
1, 149830, Note_on_c, 0, 72, 63
1, 150029, Note_on_c, 0, 60, 43
1, 150029, Note_on_c, 0, 63, 38
1, 150035, Note_on_c, 0, 67, 43
1, 150037, Note_off_c, 0, 72, 57
1, 150047, Note_on_c, 0, 70, 57
1, 150092, Note_off_c, 0, 67, 60
1, 150107, Note_off_c, 0, 63, 52
1, 150115, Note_off_c, 0, 60, 58
1, 150260, Note_on_c, 0, 72, 57
1, 150324, Note_off_c, 0, 70, 34
1, 150453, Control_c, 0, 64, 124
1, 150468, Control_c, 0, 64, 91
1, 150482, Control_c, 0, 64, 71
1, 150494, Note_on_c, 0, 38, 38
1, 150497, Control_c, 0, 64, 0
1, 150564, Control_c, 0, 64, 58
1, 150579, Control_c, 0, 64, 68
1, 150593, Control_c, 0, 64, 76
1, 150608, Control_c, 0, 64, 84
1, 150623, Control_c, 0, 64, 93
1, 150638, Control_c, 0, 64, 104
1, 150653, Control_c, 0, 64, 127
1, 150662, Note_off_c, 0, 72, 62
1, 150667, Note_off_c, 0, 38, 53
1, 150983, Note_on_c, 0, 60, 36
1, 150989, Note_on_c, 0, 74, 50
1, 150989, Note_on_c, 0, 55, 38
1, 151001, Note_on_c, 0, 64, 38
1, 151111, Note_off_c, 0, 55, 59
1, 151113, Note_off_c, 0, 60, 56
1, 151162, Note_off_c, 0, 64, 54
1, 151441, Note_on_c, 0, 62, 26
1, 151450, Note_on_c, 0, 70, 63
1, 151451, Note_on_c, 0, 57, 48
1, 151456, Note_on_c, 0, 66, 45
1, 151635, Note_off_c, 0, 62, 39
1, 151731, Note_off_c, 0, 74, 31
1, 151844, Note_off_c, 0, 66, 47
1, 151852, Note_off_c, 0, 57, 32
1, 151872, Note_on_c, 0, 69, 64
1, 151966, Note_off_c, 0, 70, 38
1, 152209, Control_c, 0, 64, 113
1, 152224, Control_c, 0, 64, 86
1, 152238, Control_c, 0, 64, 68
1, 152253, Control_c, 0, 64, 0
1, 152267, Note_on_c, 0, 55, 41
1, 152273, Note_on_c, 0, 64, 42
1, 152282, Note_on_c, 0, 60, 38
1, 152313, Control_c, 0, 64, 60
1, 152328, Control_c, 0, 64, 68
1, 152342, Control_c, 0, 64, 75
1, 152357, Control_c, 0, 64, 82
1, 152372, Control_c, 0, 64, 87
1, 152387, Control_c, 0, 64, 92
1, 152402, Control_c, 0, 64, 98
1, 152409, Note_off_c, 0, 60, 59
1, 152417, Control_c, 0, 64, 107
1, 152427, Note_off_c, 0, 55, 45
1, 152431, Control_c, 0, 64, 127
1, 152433, Note_off_c, 0, 64, 53
1, 152483, Note_on_c, 0, 70, 64
1, 152506, Note_off_c, 0, 69, 56
1, 152699, Control_c, 0, 64, 112
1, 152713, Control_c, 0, 64, 84
1, 152719, Note_on_c, 0, 62, 45
1, 152725, Note_on_c, 0, 57, 41
1, 152728, Control_c, 0, 64, 66
1, 152730, Note_on_c, 0, 66, 44
1, 152743, Control_c, 0, 64, 0
1, 152760, Note_off_c, 0, 70, 60
1, 152772, Control_c, 0, 64, 46
1, 152787, Control_c, 0, 64, 65
1, 152810, Control_c, 0, 64, 72
1, 152825, Control_c, 0, 64, 79
1, 152840, Control_c, 0, 64, 84
1, 152854, Control_c, 0, 64, 88
1, 152869, Control_c, 0, 64, 92
1, 152884, Control_c, 0, 64, 96
1, 152900, Control_c, 0, 64, 101
1, 152914, Control_c, 0, 64, 113
1, 152929, Control_c, 0, 64, 127
1, 152940, Note_off_c, 0, 66, 35
1, 152971, Note_off_c, 0, 57, 37
1, 153247, Note_on_c, 0, 69, 56
1, 153308, Note_off_c, 0, 62, 52
1, 153681, Note_on_c, 0, 43, 43
1, 153767, Control_c, 0, 64, 104
1, 153782, Control_c, 0, 64, 93
1, 153797, Control_c, 0, 64, 83
1, 153811, Control_c, 0, 64, 70
1, 153826, Control_c, 0, 64, 45
1, 153841, Control_c, 0, 64, 0
1, 154018, Control_c, 0, 64, 42
1, 154033, Control_c, 0, 64, 60
1, 154048, Control_c, 0, 64, 65
1, 154062, Control_c, 0, 64, 67
1, 154077, Control_c, 0, 64, 70
1, 154092, Control_c, 0, 64, 74
1, 154107, Control_c, 0, 64, 77
1, 154122, Control_c, 0, 64, 80
1, 154137, Control_c, 0, 64, 82
1, 154152, Control_c, 0, 64, 84
1, 154167, Control_c, 0, 64, 86
1, 154178, Note_on_c, 0, 50, 42
1, 154181, Control_c, 0, 64, 89
1, 154196, Control_c, 0, 64, 91
1, 154211, Control_c, 0, 64, 94
1, 154226, Control_c, 0, 64, 98
1, 154241, Control_c, 0, 64, 103
1, 154255, Control_c, 0, 64, 109
1, 154270, Control_c, 0, 64, 121
1, 154286, Control_c, 0, 64, 127
1, 154735, Note_on_c, 0, 59, 42
1, 154829, Note_off_c, 0, 59, 49
1, 155446, Note_on_c, 0, 67, 40
1, 155455, Note_off_c, 0, 69, 37
1, 155548, Note_off_c, 0, 67, 62
1, 156587, Note_on_c, 0, 71, 35
1, 156590, Note_on_c, 0, 79, 42
1, 156847, Note_off_c, 0, 71, 41
1, 156886, Note_off_c, 0, 43, 28
1, 156957, Note_off_c, 0, 79, 42
1, 157007, Note_off_c, 0, 50, 25
1, 158319, Control_c, 0, 64, 126
1, 158334, Control_c, 0, 64, 119
1, 158349, Control_c, 0, 64, 116
1, 158364, Control_c, 0, 64, 114
1, 158378, Control_c, 0, 64, 113
1, 158393, Control_c, 0, 64, 112
1, 158408, Control_c, 0, 64, 111
1, 158423, Control_c, 0, 64, 109
1, 158438, Control_c, 0, 64, 106
1, 158452, Control_c, 0, 64, 101
1, 158467, Control_c, 0, 64, 95
1, 158482, Control_c, 0, 64, 88
1, 158497, Control_c, 0, 64, 78
1, 158512, Control_c, 0, 64, 69
1, 158526, Control_c, 0, 64, 61
1, 158541, Control_c, 0, 64, 42
1, 158556, Control_c, 0, 64, 36
1, 159142, Note_on_c, 0, 64, 34
1, 159149, Note_on_c, 0, 83, 54
1, 159290, Control_c, 0, 64, 35
1, 159334, Note_on_c, 0, 66, 45
1, 159334, Control_c, 0, 64, 34
1, 159349, Control_c, 0, 64, 33
1, 159364, Control_c, 0, 64, 28
1, 159379, Control_c, 0, 64, 0
1, 159389, Note_off_c, 0, 64, 43
1, 159517, Note_on_c, 0, 74, 40
1, 159519, Note_on_c, 0, 72, 54
1, 159522, Note_on_c, 0, 81, 64
1, 159524, Note_off_c, 0, 83, 61
1, 159557, Note_off_c, 0, 66, 37
1, 159569, Note_off_c, 0, 81, 61
1, 159577, Note_off_c, 0, 74, 59
1, 159581, Note_off_c, 0, 72, 59
1, 159941, Note_on_c, 0, 74, 51
1, 159947, Note_on_c, 0, 72, 47
1, 160247, Note_on_c, 0, 64, 39
1, 160252, Note_off_c, 0, 72, 34
1, 160264, Note_on_c, 0, 76, 57
1, 160298, Control_c, 0, 64, 53
1, 160313, Control_c, 0, 64, 65
1, 160325, Note_off_c, 0, 74, 47
1, 160328, Control_c, 0, 64, 69
1, 160342, Control_c, 0, 64, 72
1, 160357, Control_c, 0, 64, 77
1, 160372, Control_c, 0, 64, 81
1, 160383, Note_off_c, 0, 64, 61
1, 160387, Control_c, 0, 64, 85
1, 160402, Control_c, 0, 64, 91
1, 160406, Note_on_c, 0, 67, 39
1, 160416, Control_c, 0, 64, 96
1, 160431, Control_c, 0, 64, 102
1, 160446, Control_c, 0, 64, 109
1, 160461, Control_c, 0, 64, 121
1, 160475, Control_c, 0, 64, 127
1, 160533, Note_off_c, 0, 67, 58
1, 160552, Note_off_c, 0, 76, 60
1, 160553, Note_on_c, 0, 74, 52
1, 160555, Note_on_c, 0, 79, 66
1, 160564, Note_on_c, 0, 71, 50
1, 160564, Control_c, 0, 64, 108
1, 160579, Control_c, 0, 64, 93
1, 160594, Control_c, 0, 64, 79
1, 160607, Note_off_c, 0, 71, 64
1, 160609, Control_c, 0, 64, 62
1, 160612, Note_off_c, 0, 74, 49
1, 160623, Control_c, 0, 64, 0
1, 160625, Note_off_c, 0, 79, 61
1, 160820, Note_on_c, 0, 83, 69
1, 160835, Note_on_c, 0, 74, 44
1, 160850, Note_off_c, 0, 83, 68
1, 160865, Note_off_c, 0, 74, 54
1, 161077, Note_on_c, 0, 64, 45
1, 161094, Note_on_c, 0, 83, 62
1, 161106, Control_c, 0, 64, 27
1, 161121, Control_c, 0, 64, 62
1, 161136, Control_c, 0, 64, 68
1, 161151, Control_c, 0, 64, 73
1, 161151, Poly_aftertouch_c, 0, 76, 127
1, 161166, Control_c, 0, 64, 78
1, 161180, Control_c, 0, 64, 82
1, 161195, Control_c, 0, 64, 89
1, 161207, Note_on_c, 0, 66, 45
1, 161208, Note_off_c, 0, 64, 37
1, 161210, Control_c, 0, 64, 96
1, 161225, Control_c, 0, 64, 102
1, 161240, Control_c, 0, 64, 107
1, 161254, Control_c, 0, 64, 114
1, 161269, Control_c, 0, 64, 126
1, 161284, Control_c, 0, 64, 127
1, 161309, Note_off_c, 0, 66, 47
1, 161314, Note_on_c, 0, 81, 71
1, 161317, Poly_aftertouch_c, 0, 76, 0
1, 161327, Note_on_c, 0, 72, 48
1, 161330, Note_off_c, 0, 83, 65
1, 161333, Note_on_c, 0, 74, 27
1, 161343, Control_c, 0, 64, 115
1, 161345, Note_off_c, 0, 81, 67
1, 161358, Control_c, 0, 64, 100
1, 161370, Note_off_c, 0, 74, 50
1, 161372, Control_c, 0, 64, 86
1, 161386, Note_off_c, 0, 72, 51
1, 161387, Control_c, 0, 64, 71
1, 161402, Control_c, 0, 64, 0
1, 161565, Note_on_c, 0, 74, 57
1, 161578, Note_on_c, 0, 72, 56
1, 161616, Note_off_c, 0, 72, 62
1, 161642, Note_off_c, 0, 74, 53
1, 161796, Note_on_c, 0, 64, 41
1, 161810, Control_c, 0, 64, 20
1, 161814, Note_on_c, 0, 76, 64
1, 161825, Control_c, 0, 64, 60
1, 161840, Control_c, 0, 64, 67
1, 161855, Control_c, 0, 64, 73
1, 161869, Control_c, 0, 64, 79
1, 161884, Control_c, 0, 64, 85
1, 161898, Control_c, 0, 64, 91
1, 161913, Control_c, 0, 64, 98
1, 161915, Note_off_c, 0, 64, 42
1, 161916, Note_on_c, 0, 67, 42
1, 161927, Control_c, 0, 64, 106
1, 161942, Control_c, 0, 64, 120
1, 161957, Control_c, 0, 64, 127
1, 162039, Note_off_c, 0, 76, 63
1, 162045, Note_on_c, 0, 79, 68
1, 162058, Note_on_c, 0, 74, 32
1, 162060, Control_c, 0, 64, 108
1, 162063, Note_off_c, 0, 67, 56
1, 162075, Control_c, 0, 64, 90
1, 162088, Note_off_c, 0, 79, 60
1, 162090, Control_c, 0, 64, 73
1, 162105, Control_c, 0, 64, 55
1, 162111, Poly_aftertouch_c, 0, 71, 0
1, 162120, Control_c, 0, 64, 0
1, 162120, Note_off_c, 0, 74, 37
1, 162297, Note_on_c, 0, 83, 67
1, 162310, Note_on_c, 0, 74, 38
1, 162331, Note_off_c, 0, 83, 70
1, 162338, Note_off_c, 0, 74, 51
1, 162447, Control_c, 0, 64, 12
1, 162461, Control_c, 0, 64, 27
1, 162476, Control_c, 0, 64, 35
1, 162491, Control_c, 0, 64, 45
1, 162506, Control_c, 0, 64, 53
1, 162521, Control_c, 0, 64, 59
1, 162523, Note_on_c, 0, 64, 44
1, 162543, Control_c, 0, 64, 61
1, 162558, Control_c, 0, 64, 63
1, 162573, Control_c, 0, 64, 64
1, 162588, Control_c, 0, 64, 65
1, 162598, Note_on_c, 0, 88, 61
1, 162603, Control_c, 0, 64, 68
1, 162617, Control_c, 0, 64, 72
1, 162632, Control_c, 0, 64, 75
1, 162647, Control_c, 0, 64, 77
1, 162662, Control_c, 0, 64, 78
1, 162677, Control_c, 0, 64, 81
1, 162692, Control_c, 0, 64, 86
1, 162707, Control_c, 0, 64, 92
1, 162722, Control_c, 0, 64, 97
1, 162737, Control_c, 0, 64, 102
1, 162751, Control_c, 0, 64, 108
1, 162766, Control_c, 0, 64, 116
1, 162781, Control_c, 0, 64, 127
1, 162834, Note_off_c, 0, 64, 51
1, 162836, Note_on_c, 0, 68, 47
1, 162934, Note_on_c, 0, 86, 68
1, 162934, Note_off_c, 0, 68, 57
1, 162935, Note_on_c, 0, 77, 48
1, 162937, Note_off_c, 0, 88, 65
1, 162963, Note_on_c, 0, 76, 43
1, 162966, Note_on_c, 0, 74, 39
1, 162974, Note_off_c, 0, 77, 63
1, 162996, Note_off_c, 0, 86, 61
1, 163122, Control_c, 0, 64, 102
1, 163137, Control_c, 0, 64, 83
1, 163152, Control_c, 0, 64, 67
1, 163159, Note_on_c, 0, 88, 72
1, 163166, Control_c, 0, 64, 0
1, 163184, Note_off_c, 0, 76, 37
1, 163190, Note_off_c, 0, 74, 36
1, 163196, Control_c, 0, 64, 36
1, 163197, Note_on_c, 0, 64, 34
1, 163211, Control_c, 0, 64, 62
1, 163226, Control_c, 0, 64, 68
1, 163241, Control_c, 0, 64, 75
1, 163256, Control_c, 0, 64, 83
1, 163270, Control_c, 0, 64, 89
1, 163292, Control_c, 0, 64, 93
1, 163294, Note_on_c, 0, 69, 59
1, 163307, Control_c, 0, 64, 98
1, 163322, Control_c, 0, 64, 105
1, 163337, Control_c, 0, 64, 114
1, 163352, Control_c, 0, 64, 127
1, 163366, Note_off_c, 0, 64, 37
1, 163383, Note_on_c, 0, 86, 71
1, 163387, Note_on_c, 0, 78, 71
1, 163395, Note_off_c, 0, 88, 62
1, 163402, Note_off_c, 0, 69, 57
1, 163414, Note_off_c, 0, 78, 67
1, 163420, Note_off_c, 0, 86, 61
1, 163434, Note_on_c, 0, 74, 33
1, 163437, Note_on_c, 0, 76, 38
1, 163483, Note_off_c, 0, 76, 44
1, 163574, Control_c, 0, 64, 104
1, 163589, Control_c, 0, 64, 83
1, 163601, Note_on_c, 0, 64, 60
1, 163604, Control_c, 0, 64, 64
1, 163605, Note_on_c, 0, 84, 71
1, 163618, Control_c, 0, 64, 0
1, 163624, Note_off_c, 0, 74, 26
1, 163663, Control_c, 0, 64, 58
1, 163678, Control_c, 0, 64, 65
1, 163692, Control_c, 0, 64, 69
1, 163707, Control_c, 0, 64, 74
1, 163712, Note_on_c, 0, 70, 55
1, 163722, Control_c, 0, 64, 79
1, 163737, Control_c, 0, 64, 83
1, 163745, Note_off_c, 0, 64, 38
1, 163752, Control_c, 0, 64, 87
1, 163766, Control_c, 0, 64, 91
1, 163781, Control_c, 0, 64, 96
1, 163796, Control_c, 0, 64, 103
1, 163807, Note_off_c, 0, 70, 61
1, 163807, Poly_aftertouch_c, 0, 79, 127
1, 163810, Control_c, 0, 64, 112
1, 163815, Note_on_c, 0, 72, 62
1, 163822, Note_on_c, 0, 76, 75
1, 163825, Control_c, 0, 64, 127
1, 163843, Note_off_c, 0, 84, 64
1, 163845, Note_off_c, 0, 72, 65
1, 163845, Poly_aftertouch_c, 0, 79, 0
1, 163847, Note_off_c, 0, 76, 69
1, 164004, Control_c, 0, 64, 94
1, 164019, Control_c, 0, 64, 73
1, 164027, Note_on_c, 0, 64, 52
1, 164041, Control_c, 0, 64, 40
1, 164044, Note_on_c, 0, 81, 82
1, 164056, Control_c, 0, 64, 0
1, 164086, Control_c, 0, 64, 22
1, 164101, Control_c, 0, 64, 63
1, 164115, Control_c, 0, 64, 69
1, 164130, Control_c, 0, 64, 74
1, 164143, Note_on_c, 0, 66, 56
1, 164145, Control_c, 0, 64, 79
1, 164160, Control_c, 0, 64, 83
1, 164175, Control_c, 0, 64, 88
1, 164189, Control_c, 0, 64, 91
1, 164204, Control_c, 0, 64, 91
1, 164233, Control_c, 0, 64, 90
1, 164237, Note_off_c, 0, 66, 57
1, 164243, Note_on_c, 0, 72, 61
1, 164248, Control_c, 0, 64, 85
1, 164254, Note_off_c, 0, 64, 22
1, 164263, Note_on_c, 0, 83, 77
1, 164263, Control_c, 0, 64, 78
1, 164265, Note_off_c, 0, 81, 66
1, 164278, Control_c, 0, 64, 68
1, 164283, Note_on_c, 0, 74, 4
1, 164288, Note_off_c, 0, 83, 68
1, 164291, Note_off_c, 0, 72, 58
1, 164293, Control_c, 0, 64, 0
1, 164314, Note_off_c, 0, 74, 47
1, 164493, Note_on_c, 0, 72, 63
1, 164496, Note_on_c, 0, 74, 47
1, 164525, Note_off_c, 0, 72, 62
1, 164558, Note_off_c, 0, 74, 56
1, 164664, Control_c, 0, 64, 31
1, 164679, Control_c, 0, 64, 54
1, 164691, Note_on_c, 0, 64, 33
1, 164694, Control_c, 0, 64, 64
1, 164709, Control_c, 0, 64, 68
1, 164713, Note_on_c, 0, 76, 68
1, 164724, Control_c, 0, 64, 73
1, 164738, Control_c, 0, 64, 79
1, 164739, Note_off_c, 0, 76, 68
1, 164753, Control_c, 0, 64, 85
1, 164768, Control_c, 0, 64, 92
1, 164791, Control_c, 0, 64, 104
1, 164806, Control_c, 0, 64, 127
1, 164838, Note_on_c, 0, 67, 40
1, 164885, Note_off_c, 0, 64, 34
1, 164996, Note_on_c, 0, 71, 45
1, 165010, Note_on_c, 0, 74, 40
1, 165031, Note_off_c, 0, 67, 32
1, 165072, Note_off_c, 0, 74, 58
1, 165079, Note_off_c, 0, 71, 61
1, 165294, Control_c, 0, 67, 126
1, 165309, Control_c, 0, 67, 112
1, 165324, Control_c, 0, 67, 99
1, 165331, Note_on_c, 0, 74, 51
1, 165338, Control_c, 0, 67, 87
1, 165353, Control_c, 0, 67, 73
1, 165354, Note_on_c, 0, 71, 37
1, 165365, Note_on_c, 0, 67, 41
1, 165368, Control_c, 0, 67, 57
1, 165382, Control_c, 0, 67, 40
1, 165397, Control_c, 0, 67, 24
1, 165401, Note_off_c, 0, 71, 62
1, 165412, Control_c, 0, 67, 0
1, 165417, Note_off_c, 0, 74, 64
1, 165482, Note_off_c, 0, 67, 64
1, 165637, Note_on_c, 0, 52, 54
1, 165657, Control_c, 0, 64, 116
1, 165672, Control_c, 0, 64, 91
1, 165686, Control_c, 0, 64, 72
1, 165701, Control_c, 0, 64, 55
1, 165709, Note_on_c, 0, 83, 73
1, 165716, Control_c, 0, 64, 27
1, 165731, Control_c, 0, 64, 52
1, 165746, Control_c, 0, 64, 63
1, 165760, Control_c, 0, 64, 67
1, 165775, Control_c, 0, 64, 72
1, 165790, Control_c, 0, 64, 82
1, 165805, Control_c, 0, 64, 92
1, 165819, Control_c, 0, 64, 101
1, 165834, Control_c, 0, 64, 112
1, 165849, Control_c, 0, 64, 127
1, 165897, Note_off_c, 0, 52, 61
1, 165924, Note_on_c, 0, 60, 47
1, 166075, Note_on_c, 0, 66, 61
1, 166076, Note_on_c, 0, 81, 76
1, 166081, Note_off_c, 0, 60, 56
1, 166105, Note_off_c, 0, 83, 62
1, 166139, Note_off_c, 0, 81, 66
1, 166142, Note_off_c, 0, 66, 63
1, 166314, Note_on_c, 0, 62, 54
1, 166346, Note_on_c, 0, 66, 63
1, 166359, Note_on_c, 0, 74, 70
1, 166367, Note_off_c, 0, 62, 60
1, 166386, Note_off_c, 0, 66, 65
1, 166415, Note_off_c, 0, 74, 64
1, 166584, Control_c, 0, 64, 100
1, 166592, Note_on_c, 0, 76, 69
1, 166597, Note_on_c, 0, 52, 56
1, 166599, Control_c, 0, 64, 76
1, 166614, Control_c, 0, 64, 52
1, 166629, Control_c, 0, 64, 0
1, 166658, Control_c, 0, 64, 43
1, 166673, Control_c, 0, 64, 63
1, 166673, Control_c, 0, 67, 9
1, 166688, Control_c, 0, 64, 69
1, 166688, Control_c, 0, 67, 20
1, 166703, Control_c, 0, 64, 74
1, 166703, Control_c, 0, 67, 39
1, 166717, Control_c, 0, 64, 81
1, 166717, Control_c, 0, 67, 75
1, 166719, Note_off_c, 0, 52, 56
1, 166730, Note_on_c, 0, 59, 50
1, 166732, Control_c, 0, 64, 85
1, 166732, Control_c, 0, 67, 109
1, 166747, Control_c, 0, 64, 88
1, 166747, Control_c, 0, 67, 127
1, 166761, Control_c, 0, 64, 91
1, 166776, Control_c, 0, 64, 94
1, 166791, Control_c, 0, 64, 99
1, 166806, Control_c, 0, 64, 103
1, 166821, Control_c, 0, 64, 109
1, 166825, Note_off_c, 0, 59, 62
1, 166833, Note_on_c, 0, 79, 72
1, 166836, Control_c, 0, 64, 120
1, 166844, Note_off_c, 0, 76, 59
1, 166851, Note_on_c, 0, 67, 53
1, 166851, Control_c, 0, 64, 127
1, 166928, Note_off_c, 0, 67, 55
1, 166960, Note_on_c, 0, 71, 49
1, 167016, Note_on_c, 0, 78, 54
1, 167022, Note_on_c, 0, 74, 52
1, 167072, Note_off_c, 0, 71, 62
1, 167078, Note_on_c, 0, 83, 79
1, 167081, Note_off_c, 0, 79, 48
1, 167093, Note_off_c, 0, 74, 65
1, 167106, Note_off_c, 0, 78, 64
1, 167131, Note_off_c, 0, 83, 67
1, 167304, Control_c, 0, 64, 118
1, 167318, Note_on_c, 0, 52, 58
1, 167319, Note_on_c, 0, 83, 82
1, 167319, Control_c, 0, 64, 87
1, 167333, Control_c, 0, 64, 68
1, 167348, Control_c, 0, 64, 0
1, 167378, Control_c, 0, 64, 52
1, 167392, Control_c, 0, 64, 69
1, 167407, Control_c, 0, 64, 81
1, 167417, Note_off_c, 0, 52, 60
1, 167422, Control_c, 0, 64, 97
1, 167437, Control_c, 0, 64, 116
1, 167441, Note_on_c, 0, 60, 56
1, 167452, Control_c, 0, 64, 127
1, 167553, Note_on_c, 0, 81, 83
1, 167557, Note_off_c, 0, 60, 58
1, 167566, Note_on_c, 0, 66, 65
1, 167584, Note_off_c, 0, 83, 66
1, 167604, Note_off_c, 0, 81, 64
1, 167607, Note_off_c, 0, 66, 59
1, 167763, Note_on_c, 0, 62, 46
1, 167789, Note_on_c, 0, 66, 62
1, 167793, Note_on_c, 0, 74, 67
1, 167795, Note_off_c, 0, 62, 54
1, 167817, Note_off_c, 0, 66, 67
1, 167846, Note_off_c, 0, 74, 65
1, 168007, Note_on_c, 0, 52, 58
1, 168007, Control_c, 0, 64, 90
1, 168016, Note_on_c, 0, 76, 75
1, 168022, Control_c, 0, 64, 69
1, 168037, Control_c, 0, 64, 0
1, 168082, Control_c, 0, 64, 63
1, 168097, Control_c, 0, 64, 70
1, 168100, Note_off_c, 0, 52, 59
1, 168111, Control_c, 0, 64, 77
1, 168122, Note_on_c, 0, 59, 47
1, 168126, Control_c, 0, 64, 83
1, 168141, Control_c, 0, 64, 87
1, 168156, Control_c, 0, 64, 92
1, 168171, Control_c, 0, 64, 99
1, 168186, Control_c, 0, 64, 109
1, 168201, Control_c, 0, 64, 127
1, 168204, Note_off_c, 0, 59, 62
1, 168234, Note_on_c, 0, 67, 55
1, 168238, Note_on_c, 0, 79, 71
1, 168258, Note_off_c, 0, 76, 60
1, 168317, Note_off_c, 0, 67, 57
1, 168375, Note_on_c, 0, 71, 49
1, 168429, Note_on_c, 0, 74, 57
1, 168433, Note_on_c, 0, 78, 49
1, 168464, Note_on_c, 0, 83, 79
1, 168467, Note_off_c, 0, 71, 64
1, 168469, Note_off_c, 0, 79, 56
1, 168481, Note_off_c, 0, 78, 57
1, 168487, Note_off_c, 0, 74, 65
1, 168518, Note_off_c, 0, 83, 67
1, 168637, Control_c, 0, 64, 97
1, 168653, Control_c, 0, 64, 75
1, 168668, Control_c, 0, 64, 60
1, 168676, Note_on_c, 0, 52, 59
1, 168683, Control_c, 0, 64, 62
1, 168690, Note_on_c, 0, 86, 71
1, 168698, Control_c, 0, 64, 69
1, 168712, Control_c, 0, 64, 81
1, 168727, Control_c, 0, 64, 102
1, 168735, Note_off_c, 0, 86, 62
1, 168742, Control_c, 0, 64, 127
1, 168761, Note_off_c, 0, 52, 59
1, 168791, Note_on_c, 0, 59, 58
1, 168831, Note_on_c, 0, 71, 52
1, 168853, Note_off_c, 0, 71, 59
1, 168861, Note_off_c, 0, 59, 64
1, 168866, Note_on_c, 0, 77, 60
1, 168882, Note_on_c, 0, 80, 59
1, 168910, Note_on_c, 0, 86, 80
1, 168910, Note_off_c, 0, 80, 68
1, 168913, Note_on_c, 0, 68, 72
1, 168921, Note_off_c, 0, 77, 59
1, 168952, Note_on_c, 0, 84, 9
1, 168953, Note_off_c, 0, 84, 127
1, 168959, Note_off_c, 0, 86, 64
1, 168970, Note_off_c, 0, 68, 63
1, 169038, Control_c, 0, 64, 104
1, 169053, Control_c, 0, 64, 81
1, 169068, Control_c, 0, 64, 64
1, 169083, Control_c, 0, 64, 12
1, 169091, Note_on_c, 0, 88, 84
1, 169098, Control_c, 0, 64, 56
1, 169106, Note_on_c, 0, 52, 66
1, 169112, Control_c, 0, 64, 68
1, 169119, Note_off_c, 0, 88, 65
1, 169127, Control_c, 0, 64, 79
1, 169142, Control_c, 0, 64, 97
1, 169156, Control_c, 0, 64, 127
1, 169166, Note_off_c, 0, 52, 60
1, 169214, Note_on_c, 0, 72, 59
1, 169225, Note_on_c, 0, 60, 43
1, 169251, Note_off_c, 0, 72, 60
1, 169253, Note_off_c, 0, 60, 51
1, 169265, Note_on_c, 0, 78, 59
1, 169288, Note_on_c, 0, 81, 67
1, 169298, Note_on_c, 0, 69, 53
1, 169321, Note_on_c, 0, 86, 80
1, 169325, Note_off_c, 0, 69, 53
1, 169334, Note_off_c, 0, 81, 54
1, 169343, Note_off_c, 0, 78, 58
1, 169379, Note_off_c, 0, 86, 61
1, 169477, Control_c, 0, 64, 95
1, 169492, Control_c, 0, 64, 71
1, 169507, Control_c, 0, 64, 56
1, 169520, Note_on_c, 0, 52, 59
1, 169521, Control_c, 0, 64, 61
1, 169525, Note_on_c, 0, 84, 73
1, 169536, Control_c, 0, 64, 68
1, 169551, Control_c, 0, 64, 80
1, 169551, Note_off_c, 0, 84, 68
1, 169566, Control_c, 0, 64, 104
1, 169580, Control_c, 0, 64, 127
1, 169643, Note_on_c, 0, 60, 48
1, 169678, Note_off_c, 0, 52, 47
1, 169698, Note_on_c, 0, 67, 57
1, 169732, Note_on_c, 0, 70, 49
1, 169732, Note_off_c, 0, 67, 63
1, 169742, Note_on_c, 0, 72, 41
1, 169743, Note_on_c, 0, 76, 74
1, 169757, Note_off_c, 0, 70, 62
1, 169775, Note_off_c, 0, 72, 54
1, 169787, Note_off_c, 0, 76, 62
1, 169998, Note_on_c, 0, 52, 51
1, 170032, Control_c, 0, 64, 99
1, 170046, Note_on_c, 0, 81, 73
1, 170047, Control_c, 0, 64, 78
1, 170060, Note_off_c, 0, 60, 8
1, 170061, Control_c, 0, 64, 64
1, 170076, Control_c, 0, 64, 26
1, 170091, Control_c, 0, 64, 44
1, 170106, Control_c, 0, 64, 63
1, 170121, Control_c, 0, 64, 69
1, 170121, Note_off_c, 0, 52, 62
1, 170135, Control_c, 0, 64, 79
1, 170149, Note_on_c, 0, 60, 53
1, 170150, Control_c, 0, 64, 93
1, 170165, Control_c, 0, 64, 111
1, 170179, Control_c, 0, 64, 127
1, 170260, Note_on_c, 0, 66, 65
1, 170262, Note_on_c, 0, 83, 72
1, 170262, Note_off_c, 0, 60, 59
1, 170279, Note_off_c, 0, 81, 62
1, 170300, Note_off_c, 0, 66, 60
1, 170310, Note_off_c, 0, 83, 67
1, 170462, Note_on_c, 0, 62, 50
1, 170475, Note_on_c, 0, 74, 64
1, 170488, Note_off_c, 0, 62, 61
1, 170490, Note_on_c, 0, 66, 50
1, 170520, Note_off_c, 0, 66, 55
1, 170534, Note_off_c, 0, 74, 63
1, 170707, Note_on_c, 0, 52, 54
1, 170714, Control_c, 0, 64, 94
1, 170716, Note_on_c, 0, 76, 72
1, 170728, Control_c, 0, 64, 73
1, 170743, Control_c, 0, 64, 15
1, 170758, Control_c, 0, 64, 0
1, 170839, Control_c, 0, 64, 12
1, 170854, Control_c, 0, 64, 63
1, 170865, Note_off_c, 0, 52, 57
1, 170869, Control_c, 0, 64, 70
1, 170869, Control_c, 0, 67, 124
1, 170878, Note_on_c, 0, 59, 45
1, 170884, Control_c, 0, 64, 78
1, 170884, Control_c, 0, 67, 107
1, 170899, Control_c, 0, 64, 85
1, 170899, Control_c, 0, 67, 89
1, 170914, Control_c, 0, 64, 91
1, 170914, Control_c, 0, 67, 70
1, 170928, Control_c, 0, 64, 96
1, 170928, Control_c, 0, 67, 52
1, 170943, Control_c, 0, 64, 103
1, 170943, Control_c, 0, 67, 36
1, 170958, Control_c, 0, 64, 112
1, 170958, Control_c, 0, 67, 17
1, 170964, Note_off_c, 0, 59, 62
1, 170973, Control_c, 0, 64, 127
1, 170973, Control_c, 0, 67, 0
1, 171013, Note_on_c, 0, 67, 56
1, 171077, Note_off_c, 0, 67, 61
1, 171229, Note_on_c, 0, 67, 52
1, 171289, Note_on_c, 0, 71, 54
1, 171316, Note_off_c, 0, 76, 58
1, 171320, Note_on_c, 0, 74, 65
1, 171322, Note_off_c, 0, 67, 62
1, 171334, Note_off_c, 0, 71, 64
1, 171370, Note_off_c, 0, 74, 64
1, 171686, Note_on_c, 0, 45, 73
1, 171686, Note_on_c, 0, 52, 47
1, 171736, Control_c, 0, 64, 111
1, 171744, Note_on_c, 0, 76, 81
1, 171751, Control_c, 0, 64, 88
1, 171762, Note_on_c, 0, 67, 70
1, 171762, Note_on_c, 0, 74, 64
1, 171766, Control_c, 0, 64, 70
1, 171781, Control_c, 0, 64, 0
1, 171811, Control_c, 0, 64, 49
1, 171825, Control_c, 0, 64, 64
1, 171840, Control_c, 0, 64, 70
1, 171855, Control_c, 0, 64, 79
1, 171870, Control_c, 0, 64, 90
1, 171885, Control_c, 0, 64, 102
1, 171900, Control_c, 0, 64, 127
1, 171963, Note_off_c, 0, 45, 60
1, 171981, Note_on_c, 0, 59, 68
1, 171990, Note_off_c, 0, 52, 61
1, 172036, Note_off_c, 0, 59, 60
1, 172052, Note_off_c, 0, 67, 58
1, 172146, Note_on_c, 0, 71, 80
1, 172149, Note_on_c, 0, 64, 71
1, 172155, Note_on_c, 0, 67, 71
1, 172160, Note_on_c, 0, 62, 59
1, 172179, Note_off_c, 0, 74, 59
1, 172227, Note_off_c, 0, 64, 63
1, 172228, Note_off_c, 0, 62, 59
1, 172237, Note_off_c, 0, 76, 51
1, 172423, Note_on_c, 0, 74, 71
1, 172423, Note_on_c, 0, 76, 78
1, 172434, Note_off_c, 0, 71, 62
1, 172478, Note_off_c, 0, 67, 60
1, 172514, Note_off_c, 0, 74, 58
1, 172517, Note_off_c, 0, 76, 63
1, 172625, Note_on_c, 0, 38, 70
1, 172634, Control_c, 0, 64, 99
1, 172639, Note_on_c, 0, 71, 74
1, 172646, Note_on_c, 0, 62, 65
1, 172650, Control_c, 0, 64, 79
1, 172662, Note_on_c, 0, 66, 62
1, 172665, Control_c, 0, 64, 65
1, 172668, Note_on_c, 0, 45, 38
1, 172679, Control_c, 0, 64, 56
1, 172694, Control_c, 0, 64, 65
1, 172709, Control_c, 0, 64, 71
1, 172723, Control_c, 0, 64, 82
1, 172736, Note_off_c, 0, 38, 63
1, 172738, Control_c, 0, 64, 99
1, 172746, Note_off_c, 0, 66, 64
1, 172747, Note_off_c, 0, 62, 52
1, 172753, Control_c, 0, 64, 127
1, 172769, Note_off_c, 0, 45, 60
1, 172857, Note_on_c, 0, 62, 72
1, 172866, Note_on_c, 0, 66, 76
1, 172881, Note_off_c, 0, 71, 63
1, 172884, Note_on_c, 0, 57, 65
1, 172895, Note_off_c, 0, 62, 57
1, 172965, Note_off_c, 0, 57, 62
1, 173064, Note_off_c, 0, 66, 65
1, 173078, Note_on_c, 0, 69, 76
1, 173101, Note_on_c, 0, 61, 69
1, 173124, Note_off_c, 0, 69, 62
1, 173126, Note_off_c, 0, 61, 66
1, 173291, Poly_aftertouch_c, 0, 63, 0
1, 173303, Note_on_c, 0, 38, 68
1, 173309, Control_c, 0, 64, 108
1, 173315, Note_on_c, 0, 66, 78
1, 173319, Note_on_c, 0, 62, 55
1, 173323, Control_c, 0, 64, 82
1, 173326, Note_on_c, 0, 59, 50
1, 173327, Note_on_c, 0, 57, 59
1, 173338, Control_c, 0, 64, 62
1, 173353, Control_c, 0, 64, 0
1, 173383, Control_c, 0, 64, 54
1, 173397, Control_c, 0, 64, 67
1, 173412, Control_c, 0, 64, 75
1, 173427, Control_c, 0, 64, 83
1, 173429, Note_on_c, 0, 45, 71
1, 173443, Control_c, 0, 64, 89
1, 173447, Note_off_c, 0, 59, 38
1, 173450, Note_off_c, 0, 57, 62
1, 173458, Control_c, 0, 64, 92
1, 173472, Control_c, 0, 64, 97
1, 173487, Control_c, 0, 64, 103
1, 173498, Note_off_c, 0, 62, 54
1, 173502, Control_c, 0, 64, 112
1, 173507, Note_off_c, 0, 66, 64
1, 173517, Control_c, 0, 64, 127
1, 173533, Note_on_c, 0, 59, 76
1, 173534, Note_on_c, 0, 50, 47
1, 173539, Note_on_c, 0, 55, 72
1, 173540, Note_on_c, 0, 52, 64
1, 173623, Note_off_c, 0, 55, 61
1, 173649, Note_off_c, 0, 59, 61
1, 173680, Note_off_c, 0, 38, 36
1, 173739, Note_on_c, 0, 64, 81
1, 173748, Note_on_c, 0, 55, 69
1, 173783, Note_off_c, 0, 55, 64
1, 173784, Note_off_c, 0, 52, 49
1, 173799, Note_off_c, 0, 64, 63
1, 173823, Note_off_c, 0, 50, 36
1, 173909, Control_c, 0, 64, 88
1, 173918, Note_on_c, 0, 63, 32
1, 173924, Control_c, 0, 64, 68
1, 173932, Note_off_c, 0, 45, 55
1, 173939, Control_c, 0, 64, 0
1, 173945, Note_on_c, 0, 38, 60
1, 173959, Note_off_c, 0, 63, 51
1, 173960, Note_on_c, 0, 66, 77
1, 173961, Note_on_c, 0, 57, 66
1, 173968, Control_c, 0, 64, 65
1, 173983, Control_c, 0, 64, 78
1, 173989, Note_off_c, 0, 57, 63
1, 173998, Control_c, 0, 64, 101
1, 174013, Control_c, 0, 64, 127
1, 174017, Note_off_c, 0, 66, 64
1, 174026, Note_off_c, 0, 38, 62
1, 174047, Note_on_c, 0, 45, 65
1, 174080, Note_off_c, 0, 45, 64
1, 174177, Note_on_c, 0, 68, 78
1, 174195, Note_on_c, 0, 62, 70
1, 174201, Note_on_c, 0, 61, 68
1, 174210, Note_on_c, 0, 69, 77
1, 174244, Note_off_c, 0, 68, 44
1, 174262, Note_off_c, 0, 62, 60
1, 174324, Note_off_c, 0, 61, 58
1, 174398, Control_c, 0, 67, 11
1, 174413, Control_c, 0, 67, 18
1, 174428, Control_c, 0, 67, 31
1, 174434, Note_on_c, 0, 73, 82
1, 174434, Note_on_c, 0, 66, 78
1, 174443, Control_c, 0, 67, 49
1, 174443, Note_on_c, 0, 64, 59
1, 174443, Note_off_c, 0, 69, 46
1, 174458, Control_c, 0, 67, 72
1, 174469, Note_off_c, 0, 66, 64
1, 174473, Control_c, 0, 67, 96
1, 174488, Control_c, 0, 67, 120
1, 174502, Control_c, 0, 67, 127
1, 174529, Note_off_c, 0, 64, 58
1, 174539, Note_off_c, 0, 73, 60
1, 174674, Note_on_c, 0, 50, 51
1, 174791, Control_c, 0, 64, 114
1, 174796, Note_on_c, 0, 76, 63
1, 174806, Control_c, 0, 64, 88
1, 174808, Note_on_c, 0, 67, 53
1, 174820, Control_c, 0, 64, 68
1, 174823, Note_on_c, 0, 74, 33
1, 174835, Control_c, 0, 64, 0
1, 174909, Control_c, 0, 64, 58
1, 174924, Control_c, 0, 64, 65
1, 174939, Control_c, 0, 64, 70
1, 174954, Control_c, 0, 64, 76
1, 174968, Control_c, 0, 64, 83
1, 174983, Control_c, 0, 64, 88
1, 174998, Control_c, 0, 64, 94
1, 175013, Control_c, 0, 64, 103
1, 175021, Note_on_c, 0, 57, 49
1, 175027, Control_c, 0, 64, 118
1, 175043, Control_c, 0, 64, 127
1, 175059, Note_off_c, 0, 50, 33
1, 175193, Note_off_c, 0, 57, 61
1, 175217, Note_on_c, 0, 71, 56
1, 175217, Note_off_c, 0, 74, 41
1, 175225, Note_on_c, 0, 62, 39
1, 175229, Note_on_c, 0, 64, 42
1, 175243, Note_off_c, 0, 76, 39
1, 175278, Note_off_c, 0, 64, 61
1, 175296, Note_off_c, 0, 62, 58
1, 175459, Note_off_c, 0, 67, 0
1, 175459, Note_on_c, 0, 67, 21
1, 175468, Note_off_c, 0, 71, 62
1, 175476, Note_on_c, 0, 76, 63
1, 175518, Note_off_c, 0, 67, 62
1, 175536, Note_off_c, 0, 76, 61
1, 175549, Poly_aftertouch_c, 0, 74, 127
1, 175576, Poly_aftertouch_c, 0, 74, 0
1, 175658, Control_c, 0, 64, 101
1, 175665, Note_on_c, 0, 38, 55
1, 175673, Control_c, 0, 64, 78
1, 175688, Control_c, 0, 64, 65
1, 175689, Note_on_c, 0, 71, 56
1, 175695, Note_on_c, 0, 45, 45
1, 175695, Note_on_c, 0, 62, 47
1, 175703, Control_c, 0, 64, 62
1, 175717, Control_c, 0, 64, 67
1, 175730, Note_off_c, 0, 38, 63
1, 175732, Control_c, 0, 64, 73
1, 175747, Control_c, 0, 64, 83
1, 175760, Note_off_c, 0, 62, 49
1, 175762, Note_off_c, 0, 45, 61
1, 175762, Control_c, 0, 64, 98
1, 175766, Note_on_c, 0, 52, 54
1, 175776, Control_c, 0, 64, 110
1, 175791, Control_c, 0, 64, 127
1, 175796, Note_off_c, 0, 52, 62
1, 175900, Note_on_c, 0, 62, 48
1, 175911, Note_off_c, 0, 71, 63
1, 175915, Note_on_c, 0, 59, 45
1, 175918, Note_on_c, 0, 66, 65
1, 175927, Note_on_c, 0, 57, 41
1, 175930, Note_off_c, 0, 62, 60
1, 175957, Note_off_c, 0, 59, 59
1, 175966, Note_off_c, 0, 57, 61
1, 176115, Note_off_c, 0, 66, 64
1, 176124, Note_on_c, 0, 69, 66
1, 176142, Note_on_c, 0, 61, 63
1, 176175, Note_off_c, 0, 61, 64
1, 176179, Note_off_c, 0, 69, 62
1, 176319, Control_c, 0, 64, 122
1, 176334, Control_c, 0, 64, 94
1, 176335, Note_on_c, 0, 38, 54
1, 176338, Note_on_c, 0, 66, 66
1, 176341, Note_on_c, 0, 57, 50
1, 176348, Control_c, 0, 64, 78
1, 176363, Control_c, 0, 64, 65
1, 176378, Control_c, 0, 64, 64
1, 176392, Control_c, 0, 64, 67
1, 176407, Control_c, 0, 64, 71
1, 176422, Control_c, 0, 64, 77
1, 176437, Control_c, 0, 64, 87
1, 176443, Poly_aftertouch_c, 0, 62, 127
1, 176452, Control_c, 0, 64, 93
1, 176455, Note_off_c, 0, 57, 58
1, 176456, Note_on_c, 0, 45, 60
1, 176467, Control_c, 0, 64, 96
1, 176482, Control_c, 0, 64, 98
1, 176493, Note_off_c, 0, 38, 35
1, 176497, Control_c, 0, 64, 101
1, 176512, Control_c, 0, 64, 106
1, 176513, Note_off_c, 0, 66, 64
1, 176527, Control_c, 0, 64, 111
1, 176541, Control_c, 0, 64, 118
1, 176556, Control_c, 0, 64, 126
1, 176559, Poly_aftertouch_c, 0, 62, 0
1, 176560, Note_on_c, 0, 59, 54
1, 176571, Note_on_c, 0, 55, 48
1, 176571, Control_c, 0, 64, 127
1, 176593, Note_on_c, 0, 50, 31
1, 176595, Note_on_c, 0, 52, 38
1, 176610, Note_off_c, 0, 55, 61
1, 176633, Note_off_c, 0, 59, 60
1, 176775, Note_on_c, 0, 64, 64
1, 176791, Note_on_c, 0, 55, 51
1, 176815, Note_on_c, 0, 61, 34
1, 176821, Note_off_c, 0, 55, 63
1, 176872, Note_off_c, 0, 64, 59
1, 176879, Note_off_c, 0, 61, 40
1, 176890, Note_off_c, 0, 52, 37
1, 176950, Control_c, 0, 64, 112
1, 176965, Control_c, 0, 64, 89
1, 176969, Note_off_c, 0, 45, 37
1, 176973, Note_on_c, 0, 38, 55
1, 176979, Control_c, 0, 64, 70
1, 176993, Note_off_c, 0, 50, 44
1, 176994, Control_c, 0, 64, 22
1, 177001, Note_on_c, 0, 62, 60
1, 177005, Note_on_c, 0, 54, 56
1, 177009, Control_c, 0, 64, 0
1, 177023, Control_c, 0, 64, 31
1, 177038, Control_c, 0, 64, 59
1, 177053, Control_c, 0, 64, 66
1, 177068, Control_c, 0, 64, 74
1, 177083, Control_c, 0, 64, 85
1, 177097, Control_c, 0, 64, 94
1, 177112, Control_c, 0, 64, 99
1, 177120, Note_on_c, 0, 45, 61
1, 177121, Note_off_c, 0, 38, 60
1, 177127, Control_c, 0, 64, 104
1, 177132, Note_off_c, 0, 54, 54
1, 177141, Control_c, 0, 64, 113
1, 177156, Control_c, 0, 64, 127
1, 177162, Note_off_c, 0, 45, 62
1, 177209, Note_on_c, 0, 66, 70
1, 177215, Note_off_c, 0, 62, 44
1, 177222, Poly_aftertouch_c, 0, 61, 127
1, 177239, Note_off_c, 0, 66, 68
1, 177268, Poly_aftertouch_c, 0, 61, 0
1, 177367, Note_on_c, 0, 69, 64
1, 177499, Note_off_c, 0, 69, 63
1, 177517, Note_on_c, 0, 66, 57
1, 177530, Note_on_c, 0, 74, 56
1, 177533, Note_on_c, 0, 71, 34
1, 177698, Note_off_c, 0, 74, 64
1, 177701, Note_on_c, 0, 81, 75
1, 177739, Note_off_c, 0, 81, 64
1, 177790, Note_off_c, 0, 71, 37
1, 177913, Note_on_c, 0, 62, 42
1, 177963, Control_c, 0, 64, 97
1, 177975, Note_on_c, 0, 88, 73
1, 177978, Control_c, 0, 64, 80
1, 177993, Control_c, 0, 64, 66
1, 177994, Note_on_c, 0, 86, 55
1, 177996, Note_on_c, 0, 79, 52
1, 178004, Note_on_c, 0, 83, 48
1, 178008, Control_c, 0, 64, 28
1, 178023, Control_c, 0, 64, 0
1, 178029, Note_off_c, 0, 66, 41
1, 178037, Control_c, 0, 64, 41
1, 178052, Control_c, 0, 64, 60
1, 178067, Control_c, 0, 64, 66
1, 178072, Note_off_c, 0, 83, 65
1, 178082, Control_c, 0, 64, 71
1, 178097, Control_c, 0, 64, 76
1, 178111, Control_c, 0, 64, 82
1, 178126, Control_c, 0, 64, 87
1, 178141, Control_c, 0, 64, 91
1, 178155, Control_c, 0, 64, 96
1, 178170, Control_c, 0, 64, 101
1, 178185, Note_off_c, 0, 79, 59
1, 178185, Control_c, 0, 64, 106
1, 178200, Control_c, 0, 64, 111
1, 178202, Note_on_c, 0, 69, 42
1, 178215, Control_c, 0, 64, 117
1, 178230, Control_c, 0, 64, 127
1, 178333, Note_on_c, 0, 83, 71
1, 178336, Note_off_c, 0, 88, 41
1, 178345, Note_on_c, 0, 74, 52
1, 178350, Note_off_c, 0, 62, 29
1, 178350, Note_off_c, 0, 86, 38
1, 178359, Note_off_c, 0, 83, 70
1, 178362, Note_on_c, 0, 76, 20
1, 178390, Note_off_c, 0, 69, 35
1, 178390, Note_off_c, 0, 74, 56
1, 178400, Note_off_c, 0, 76, 42
1, 178490, Control_c, 0, 64, 120
1, 178505, Control_c, 0, 64, 93
1, 178520, Note_on_c, 0, 88, 73
1, 178520, Control_c, 0, 64, 76
1, 178534, Note_on_c, 0, 62, 53
1, 178534, Note_on_c, 0, 86, 56
1, 178535, Note_on_c, 0, 79, 60
1, 178535, Control_c, 0, 64, 63
1, 178549, Control_c, 0, 64, 49
1, 178564, Control_c, 0, 64, 63
1, 178571, Note_off_c, 0, 86, 64
1, 178579, Control_c, 0, 64, 68
1, 178593, Control_c, 0, 64, 74
1, 178601, Note_off_c, 0, 88, 62
1, 178608, Control_c, 0, 64, 84
1, 178623, Control_c, 0, 64, 91
1, 178638, Control_c, 0, 64, 94
1, 178641, Note_on_c, 0, 69, 57
1, 178653, Control_c, 0, 64, 97
1, 178667, Control_c, 0, 64, 103
1, 178682, Control_c, 0, 64, 109
1, 178697, Control_c, 0, 64, 124
1, 178712, Control_c, 0, 64, 127
1, 178735, Note_off_c, 0, 79, 64
1, 178738, Note_on_c, 0, 83, 65
1, 178759, Note_on_c, 0, 74, 46
1, 178759, Note_on_c, 0, 78, 44
1, 178771, Note_off_c, 0, 69, 48
1, 178771, Note_off_c, 0, 83, 69
1, 178784, Note_off_c, 0, 78, 56
1, 178787, Note_off_c, 0, 62, 35
1, 178789, Note_off_c, 0, 74, 57
1, 178890, Control_c, 0, 64, 96
1, 178905, Control_c, 0, 64, 77
1, 178919, Control_c, 0, 64, 62
1, 178934, Control_c, 0, 64, 28
1, 178944, Note_on_c, 0, 62, 42
1, 178948, Note_on_c, 0, 78, 62
1, 178949, Control_c, 0, 64, 58
1, 178962, Note_on_c, 0, 71, 36
1, 178964, Control_c, 0, 64, 69
1, 178968, Note_on_c, 0, 74, 29
1, 178978, Control_c, 0, 64, 78
1, 178993, Control_c, 0, 64, 93
1, 178995, Note_off_c, 0, 71, 53
1, 179007, Note_off_c, 0, 74, 51
1, 179016, Control_c, 0, 64, 108
1, 179025, Note_off_c, 0, 62, 61
1, 179028, Note_off_c, 0, 78, 57
1, 179031, Control_c, 0, 64, 127
1, 179066, Note_on_c, 0, 69, 49
1, 179145, Note_off_c, 0, 69, 39
1, 179162, Note_on_c, 0, 81, 76
1, 179163, Note_on_c, 0, 73, 61
1, 179180, Note_on_c, 0, 74, 48
1, 179184, Note_off_c, 0, 73, 66
1, 179299, Control_c, 0, 64, 94
1, 179314, Control_c, 0, 64, 73
1, 179329, Control_c, 0, 64, 49
1, 179333, Note_off_c, 0, 74, 0
1, 179343, Control_c, 0, 64, 0
1, 179346, Note_on_c, 0, 50, 51
1, 179347, Note_on_c, 0, 74, 34
1, 179356, Note_on_c, 0, 78, 67
1, 179358, Note_off_c, 0, 81, 38
1, 179358, Control_c, 0, 64, 51
1, 179361, Note_on_c, 0, 71, 59
1, 179373, Control_c, 0, 64, 66
1, 179388, Control_c, 0, 64, 73
1, 179388, Note_off_c, 0, 74, 63
1, 179388, Note_off_c, 0, 78, 66
1, 179394, Note_off_c, 0, 71, 66
1, 179403, Control_c, 0, 64, 81
1, 179417, Control_c, 0, 64, 87
1, 179432, Control_c, 0, 64, 90
1, 179447, Control_c, 0, 64, 93
1, 179462, Control_c, 0, 64, 99
1, 179463, Note_on_c, 0, 57, 52
1, 179477, Control_c, 0, 64, 105
1, 179488, Note_off_c, 0, 50, 32
1, 179491, Control_c, 0, 64, 114
1, 179506, Control_c, 0, 64, 127
1, 179557, Note_off_c, 0, 57, 51
1, 179563, Note_on_c, 0, 71, 67
1, 179564, Note_on_c, 0, 64, 65
1, 179571, Note_on_c, 0, 67, 53
1, 179575, Note_on_c, 0, 62, 45
1, 179587, Note_off_c, 0, 64, 64
1, 179596, Note_off_c, 0, 67, 63
1, 179600, Note_off_c, 0, 71, 63
1, 179657, Note_off_c, 0, 62, 42
1, 179713, Control_c, 0, 64, 107
1, 179728, Control_c, 0, 64, 86
1, 179743, Control_c, 0, 64, 71
1, 179752, Note_on_c, 0, 50, 56
1, 179753, Note_on_c, 0, 76, 65
1, 179765, Control_c, 0, 64, 56
1, 179777, Note_on_c, 0, 73, 45
1, 179780, Control_c, 0, 64, 63
1, 179795, Control_c, 0, 64, 69
1, 179805, Note_off_c, 0, 73, 55
1, 179810, Control_c, 0, 64, 81
1, 179823, Note_off_c, 0, 76, 64
1, 179824, Control_c, 0, 64, 98
1, 179839, Control_c, 0, 64, 127
1, 179841, Note_off_c, 0, 50, 55
1, 179847, Note_on_c, 0, 57, 63
1, 179883, Note_off_c, 0, 57, 61
1, 179944, Note_on_c, 0, 67, 68
1, 179948, Note_on_c, 0, 78, 72
1, 179971, Note_off_c, 0, 78, 65
1, 179974, Note_off_c, 0, 67, 67
1, 180107, Control_c, 0, 64, 111
1, 180122, Control_c, 0, 64, 85
1, 180136, Control_c, 0, 64, 66
1, 180140, Note_on_c, 0, 81, 80
1, 180145, Note_on_c, 0, 74, 66
1, 180150, Note_on_c, 0, 62, 60
1, 180151, Control_c, 0, 64, 0
1, 180196, Control_c, 0, 64, 60
1, 180211, Control_c, 0, 64, 68
1, 180223, Note_off_c, 0, 74, 50
1, 180226, Control_c, 0, 64, 75
1, 180240, Control_c, 0, 64, 82
1, 180255, Control_c, 0, 64, 88
1, 180270, Control_c, 0, 64, 94
1, 180284, Control_c, 0, 64, 103
1, 180286, Note_on_c, 0, 69, 56
1, 180299, Control_c, 0, 64, 127
1, 180303, Note_off_c, 0, 62, 49
1, 180362, Note_off_c, 0, 69, 59
1, 180366, Note_on_c, 0, 85, 83
1, 180367, Note_off_c, 0, 81, 66
1, 180378, Note_on_c, 0, 78, 59
1, 180381, Note_on_c, 0, 76, 62
1, 180397, Note_off_c, 0, 78, 65
1, 180419, Note_off_c, 0, 85, 62
1, 180430, Note_off_c, 0, 76, 47
1, 180618, Note_on_c, 0, 62, 44
1, 180721, Note_on_c, 0, 88, 60
1, 180721, Control_c, 0, 64, 101
1, 180724, Note_on_c, 0, 79, 47
1, 180736, Control_c, 0, 64, 84
1, 180743, Note_on_c, 0, 86, 38
1, 180751, Control_c, 0, 64, 70
1, 180766, Control_c, 0, 64, 48
1, 180781, Control_c, 0, 64, 15
1, 180795, Control_c, 0, 64, 42
1, 180796, Note_off_c, 0, 86, 46
1, 180810, Control_c, 0, 64, 60
1, 180825, Control_c, 0, 64, 65
1, 180840, Control_c, 0, 64, 69
1, 180855, Control_c, 0, 64, 76
1, 180870, Control_c, 0, 64, 84
1, 180885, Control_c, 0, 64, 89
1, 180900, Control_c, 0, 64, 94
1, 180914, Control_c, 0, 64, 99
1, 180929, Control_c, 0, 64, 105
1, 180936, Note_off_c, 0, 79, 58
1, 180938, Note_on_c, 0, 69, 37
1, 180944, Control_c, 0, 64, 113
1, 180959, Control_c, 0, 64, 127
1, 181014, Note_off_c, 0, 88, 30
1, 181055, Note_on_c, 0, 83, 67
1, 181063, Note_on_c, 0, 76, 55
1, 181086, Note_on_c, 0, 74, 34
1, 181094, Note_off_c, 0, 76, 63
1, 181100, Note_off_c, 0, 62, 38
1, 181101, Note_off_c, 0, 83, 60
1, 181132, Note_off_c, 0, 69, 37
1, 181225, Control_c, 0, 64, 103
1, 181240, Control_c, 0, 64, 84
1, 181242, Note_on_c, 0, 88, 65
1, 181248, Note_on_c, 0, 62, 37
1, 181262, Control_c, 0, 64, 68
1, 181277, Control_c, 0, 64, 62
1, 181278, Note_on_c, 0, 86, 45
1, 181285, Note_off_c, 0, 74, 30
1, 181292, Control_c, 0, 64, 65
1, 181299, Note_on_c, 0, 79, 23
1, 181307, Control_c, 0, 64, 71
1, 181320, Note_off_c, 0, 86, 60
1, 181321, Control_c, 0, 64, 80
1, 181336, Control_c, 0, 64, 92
1, 181337, Note_off_c, 0, 88, 62
1, 181351, Control_c, 0, 64, 102
1, 181366, Control_c, 0, 64, 113
1, 181371, Note_on_c, 0, 69, 47
1, 181381, Control_c, 0, 64, 127
1, 181460, Note_on_c, 0, 83, 64
1, 181470, Note_off_c, 0, 79, 51
1, 181472, Note_off_c, 0, 69, 57
1, 181477, Note_off_c, 0, 62, 35
1, 181487, Note_on_c, 0, 74, 42
1, 181494, Note_on_c, 0, 78, 39
1, 181509, Note_off_c, 0, 83, 61
1, 181521, Note_off_c, 0, 74, 57
1, 181523, Note_off_c, 0, 78, 51
1, 181604, Control_c, 0, 64, 112
1, 181618, Control_c, 0, 64, 87
1, 181633, Control_c, 0, 64, 69
1, 181648, Control_c, 0, 64, 40
1, 181663, Control_c, 0, 64, 51
1, 181670, Note_on_c, 0, 78, 51
1, 181671, Note_on_c, 0, 62, 41
1, 181677, Note_on_c, 0, 74, 38
1, 181678, Control_c, 0, 64, 65
1, 181678, Note_on_c, 0, 71, 41
1, 181692, Control_c, 0, 64, 72
1, 181706, Note_off_c, 0, 71, 53
1, 181707, Control_c, 0, 64, 84
1, 181709, Note_off_c, 0, 62, 63
1, 181709, Note_off_c, 0, 74, 54
1, 181722, Control_c, 0, 64, 101
1, 181737, Control_c, 0, 64, 127
1, 181742, Note_off_c, 0, 78, 53
1, 181786, Note_on_c, 0, 69, 32
1, 181842, Note_off_c, 0, 69, 63
1, 181871, Note_on_c, 0, 73, 58
1, 181876, Note_on_c, 0, 81, 70
1, 181893, Note_off_c, 0, 73, 65
1, 181901, Note_on_c, 0, 74, 38
1, 182041, Control_c, 0, 64, 117
1, 182047, Note_off_c, 0, 74, 0
1, 182056, Control_c, 0, 64, 85
1, 182065, Note_on_c, 0, 50, 50
1, 182070, Control_c, 0, 64, 68
1, 182075, Note_on_c, 0, 74, 11
1, 182085, Control_c, 0, 64, 57
1, 182089, Note_off_c, 0, 81, 53
1, 182090, Note_on_c, 0, 78, 59
1, 182094, Note_on_c, 0, 71, 61
1, 182100, Control_c, 0, 64, 63
1, 182115, Control_c, 0, 64, 68
1, 182130, Control_c, 0, 64, 76
1, 182140, Note_off_c, 0, 71, 59
1, 182144, Control_c, 0, 64, 91
1, 182145, Note_off_c, 0, 74, 58
1, 182149, Note_off_c, 0, 78, 63
1, 182159, Control_c, 0, 64, 111
1, 182174, Control_c, 0, 64, 127
1, 182204, Note_on_c, 0, 57, 51
1, 182292, Note_off_c, 0, 50, 26
1, 182303, Note_on_c, 0, 62, 35
1, 182304, Note_on_c, 0, 64, 52
1, 182304, Note_on_c, 0, 71, 59
1, 182314, Note_on_c, 0, 67, 42
1, 182326, Note_off_c, 0, 64, 60
1, 182340, Note_off_c, 0, 67, 58
1, 182345, Note_off_c, 0, 71, 62
1, 182354, Note_off_c, 0, 57, 30
1, 182381, Note_off_c, 0, 62, 43
1, 182500, Control_c, 0, 64, 103
1, 182515, Control_c, 0, 64, 83
1, 182521, Note_on_c, 0, 50, 49
1, 182523, Note_on_c, 0, 76, 64
1, 182530, Control_c, 0, 64, 65
1, 182539, Note_on_c, 0, 73, 47
1, 182545, Control_c, 0, 64, 0
1, 182548, Note_on_c, 0, 69, 37
1, 182568, Note_on_c, 0, 67, 27
1, 182649, Control_c, 0, 64, 59
1, 182664, Control_c, 0, 64, 66
1, 182664, Control_c, 0, 67, 116
1, 182678, Control_c, 0, 64, 70
1, 182678, Control_c, 0, 67, 96
1, 182691, Note_on_c, 0, 57, 51
1, 182693, Control_c, 0, 64, 72
1, 182693, Control_c, 0, 67, 77
1, 182708, Control_c, 0, 64, 75
1, 182708, Control_c, 0, 67, 57
1, 182723, Control_c, 0, 64, 79
1, 182723, Control_c, 0, 67, 37
1, 182738, Control_c, 0, 64, 86
1, 182738, Control_c, 0, 67, 19
1, 182747, Note_off_c, 0, 50, 37
1, 182760, Control_c, 0, 64, 94
1, 182760, Control_c, 0, 67, 0
1, 182775, Control_c, 0, 64, 101
1, 182789, Control_c, 0, 64, 108
1, 182804, Control_c, 0, 64, 119
1, 182810, Note_off_c, 0, 57, 61
1, 182819, Control_c, 0, 64, 127
1, 182845, Note_on_c, 0, 62, 52
1, 182860, Note_on_c, 0, 74, 57
1, 182871, Note_off_c, 0, 67, 36
1, 182883, Note_off_c, 0, 69, 43
1, 182900, Note_off_c, 0, 76, 55
1, 182909, Note_off_c, 0, 62, 47
1, 182921, Note_off_c, 0, 73, 34
1, 182973, Note_off_c, 0, 74, 62
1, 183046, Note_on_c, 0, 66, 63
1, 183167, Note_on_c, 0, 69, 67
1, 183171, Note_off_c, 0, 66, 57
1, 183252, Note_off_c, 0, 69, 60
1, 183309, Note_on_c, 0, 71, 77
1, 183444, Note_on_c, 0, 74, 74
1, 183532, Note_off_c, 0, 71, 57
1, 183624, Note_on_c, 0, 76, 74
1, 183647, Note_off_c, 0, 74, 62
1, 183743, Note_off_c, 0, 76, 59
1, 183773, Note_on_c, 0, 54, 66
1, 183851, Note_on_c, 0, 78, 78
1, 183851, Control_c, 0, 64, 110
1, 183857, Note_on_c, 0, 70, 70
1, 183858, Note_on_c, 0, 76, 69
1, 183866, Control_c, 0, 64, 85
1, 183880, Control_c, 0, 64, 66
1, 183895, Control_c, 0, 64, 0
1, 183897, Note_on_c, 0, 73, 34
1, 183940, Control_c, 0, 64, 58
1, 183955, Control_c, 0, 64, 69
1, 183970, Control_c, 0, 64, 77
1, 183985, Control_c, 0, 64, 86
1, 184000, Control_c, 0, 64, 93
1, 184014, Control_c, 0, 64, 104
1, 184029, Control_c, 0, 64, 127
1, 184060, Note_off_c, 0, 70, 59
1, 184079, Note_on_c, 0, 61, 37
1, 184095, Note_off_c, 0, 76, 64
1, 184101, Note_off_c, 0, 54, 62
1, 184108, Note_on_c, 0, 66, 78
1, 184114, Note_off_c, 0, 73, 49
1, 184122, Note_off_c, 0, 78, 61
1, 184128, Note_off_c, 0, 61, 57
1, 184148, Note_off_c, 0, 66, 61
1, 184308, Note_on_c, 0, 79, 82
1, 184331, Note_on_c, 0, 71, 66
1, 184337, Note_on_c, 0, 78, 58
1, 184363, Note_off_c, 0, 78, 66
1, 184416, Poly_aftertouch_c, 0, 77, 0
1, 184575, Note_off_c, 0, 71, 60
1, 184592, Note_on_c, 0, 81, 94
1, 184604, Note_on_c, 0, 76, 69
1, 184611, Note_on_c, 0, 66, 53
1, 184613, Note_on_c, 0, 73, 64
1, 184617, Note_off_c, 0, 79, 60
1, 184691, Note_off_c, 0, 76, 61
1, 184751, Note_off_c, 0, 73, 37
1, 184813, Note_off_c, 0, 81, 65
1, 184822, Note_on_c, 0, 79, 77
1, 184822, Control_c, 0, 64, 96
1, 184822, Note_on_c, 0, 54, 61
1, 184836, Control_c, 0, 64, 76
1, 184844, Note_on_c, 0, 71, 60
1, 184844, Note_on_c, 0, 74, 49
1, 184848, Note_off_c, 0, 66, 48
1, 184851, Control_c, 0, 64, 62
1, 184866, Control_c, 0, 64, 63
1, 184880, Control_c, 0, 64, 69
1, 184888, Note_off_c, 0, 74, 64
1, 184895, Control_c, 0, 64, 78
1, 184896, Note_on_c, 0, 77, 14
1, 184907, Note_off_c, 0, 54, 62
1, 184910, Control_c, 0, 64, 95
1, 184925, Control_c, 0, 64, 127
1, 185029, Note_off_c, 0, 77, 26
1, 185049, Note_on_c, 0, 81, 87
1, 185057, Note_on_c, 0, 73, 69
1, 185057, Note_on_c, 0, 78, 70
1, 185061, Note_off_c, 0, 79, 62
1, 185082, Note_off_c, 0, 78, 66
1, 185129, Note_off_c, 0, 81, 58
1, 185141, Note_off_c, 0, 71, 33
1, 185143, Note_off_c, 0, 73, 59
1, 185255, Note_on_c, 0, 74, 69
1, 185266, Note_on_c, 0, 66, 68
1, 185268, Note_on_c, 0, 69, 65
1, 185344, Note_off_c, 0, 69, 61
1, 185406, Control_c, 0, 64, 102
1, 185421, Control_c, 0, 64, 82
1, 185436, Control_c, 0, 64, 67
1, 185441, Note_on_c, 0, 54, 57
1, 185442, Note_off_c, 0, 66, 57
1, 185443, Note_off_c, 0, 74, 63
1, 185451, Control_c, 0, 64, 51
1, 185463, Note_on_c, 0, 76, 63
1, 185466, Control_c, 0, 64, 63
1, 185468, Note_on_c, 0, 68, 70
1, 185481, Control_c, 0, 64, 69
1, 185496, Control_c, 0, 64, 82
1, 185511, Control_c, 0, 64, 105
1, 185526, Note_off_c, 0, 68, 60
1, 185526, Control_c, 0, 64, 127
1, 185568, Note_on_c, 0, 66, 69
1, 185648, Note_off_c, 0, 66, 55
1, 185658, Note_off_c, 0, 76, 64
1, 185667, Note_on_c, 0, 78, 74
1, 185672, Note_on_c, 0, 70, 78
1, 185692, Note_off_c, 0, 78, 70
1, 185696, Note_off_c, 0, 70, 70
1, 185787, Note_off_c, 0, 54, 50
1, 185860, Note_on_c, 0, 69, 73
1, 185863, Note_on_c, 0, 61, 69
1, 185948, Note_off_c, 0, 69, 62
1, 185949, Note_off_c, 0, 61, 58
1, 186037, Control_c, 0, 64, 104
1, 186052, Control_c, 0, 64, 76
1, 186067, Control_c, 0, 64, 59
1, 186071, Note_on_c, 0, 73, 79
1, 186077, Note_on_c, 0, 54, 70
1, 186079, Note_on_c, 0, 64, 68
1, 186082, Control_c, 0, 64, 53
1, 186097, Control_c, 0, 64, 65
1, 186107, Note_off_c, 0, 64, 66
1, 186111, Control_c, 0, 64, 73
1, 186111, Control_c, 0, 67, 14
1, 186126, Control_c, 0, 64, 88
1, 186126, Control_c, 0, 67, 28
1, 186141, Control_c, 0, 64, 120
1, 186141, Control_c, 0, 67, 52
1, 186155, Control_c, 0, 64, 127
1, 186155, Control_c, 0, 67, 79
1, 186159, Note_off_c, 0, 73, 66
1, 186170, Control_c, 0, 67, 106
1, 186185, Control_c, 0, 67, 127
1, 186198, Note_on_c, 0, 66, 64
1, 186266, Note_on_c, 0, 78, 55
1, 186274, Note_off_c, 0, 66, 54
1, 186286, Note_off_c, 0, 78, 61
1, 186459, Note_off_c, 0, 54, 61
1, 186465, Note_on_c, 0, 66, 70
1, 186491, Note_off_c, 0, 66, 69
1, 186638, Control_c, 0, 64, 112
1, 186653, Control_c, 0, 64, 83
1, 186668, Control_c, 0, 64, 67
1, 186679, Note_on_c, 0, 88, 58
1, 186683, Control_c, 0, 64, 51
1, 186685, Note_on_c, 0, 80, 55
1, 186689, Note_on_c, 0, 66, 50
1, 186697, Control_c, 0, 64, 60
1, 186712, Control_c, 0, 64, 68
1, 186727, Control_c, 0, 64, 76
1, 186742, Control_c, 0, 64, 92
1, 186754, Note_off_c, 0, 80, 59
1, 186757, Control_c, 0, 64, 111
1, 186772, Control_c, 0, 64, 127
1, 186775, Note_on_c, 0, 78, 62
1, 186859, Note_off_c, 0, 88, 63
1, 186868, Note_on_c, 0, 90, 69
1, 186875, Note_on_c, 0, 82, 56
1, 186888, Note_off_c, 0, 78, 58
1, 186897, Note_off_c, 0, 90, 68
1, 186900, Note_off_c, 0, 82, 65
1, 187052, Note_on_c, 0, 78, 54
1, 187055, Note_off_c, 0, 66, 57
1, 187058, Note_on_c, 0, 81, 77
1, 187070, Note_on_c, 0, 73, 53
1, 187072, Note_off_c, 0, 78, 61
1, 187127, Note_off_c, 0, 81, 65
1, 187201, Control_c, 0, 64, 104
1, 187216, Control_c, 0, 64, 82
1, 187231, Control_c, 0, 64, 66
1, 187254, Control_c, 0, 64, 64
1, 187258, Note_off_c, 0, 73, 63
1, 187259, Note_on_c, 0, 85, 67
1, 187262, Note_on_c, 0, 66, 58
1, 187269, Control_c, 0, 64, 68
1, 187283, Control_c, 0, 64, 77
1, 187298, Control_c, 0, 64, 93
1, 187313, Control_c, 0, 64, 127
1, 187330, Note_off_c, 0, 85, 64
1, 187389, Note_on_c, 0, 78, 56
1, 187425, Note_off_c, 0, 78, 65
1, 187443, Note_on_c, 0, 90, 71
1, 187469, Note_off_c, 0, 90, 68
1, 187478, Note_off_c, 0, 66, 63
1, 187683, Control_c, 0, 67, 126
1, 187698, Control_c, 0, 67, 119
1, 187713, Control_c, 0, 67, 111
1, 187718, Note_on_c, 0, 76, 79
1, 187727, Control_c, 0, 67, 102
1, 187730, Note_on_c, 0, 67, 77
1, 187734, Note_on_c, 0, 72, 79
1, 187738, Note_on_c, 0, 70, 70
1, 187741, Note_on_c, 0, 66, 72
1, 187742, Control_c, 0, 67, 93
1, 187757, Control_c, 0, 67, 82
1, 187772, Control_c, 0, 67, 69
1, 187787, Control_c, 0, 67, 54
1, 187801, Control_c, 0, 67, 39
1, 187816, Control_c, 0, 67, 25
1, 187832, Control_c, 0, 64, 98
1, 187832, Control_c, 0, 67, 10
1, 187847, Control_c, 0, 64, 72
1, 187847, Control_c, 0, 67, 0
1, 187860, Note_off_c, 0, 72, 63
1, 187862, Control_c, 0, 64, 45
1, 187869, Note_off_c, 0, 70, 47
1, 187877, Control_c, 0, 64, 0
1, 187892, Control_c, 0, 64, 44
1, 187906, Control_c, 0, 64, 65
1, 187921, Control_c, 0, 64, 74
1, 187936, Control_c, 0, 64, 93
1, 187937, Note_on_c, 0, 54, 72
1, 187941, Note_off_c, 0, 66, 64
1, 187951, Control_c, 0, 64, 127
1, 188007, Note_off_c, 0, 76, 63
1, 188020, Note_off_c, 0, 67, 61
1, 188039, Note_on_c, 0, 66, 71
1, 188120, Note_on_c, 0, 69, 76
1, 188121, Note_on_c, 0, 78, 77
1, 188126, Note_on_c, 0, 74, 63
1, 188134, Note_off_c, 0, 66, 60
1, 188172, Note_off_c, 0, 74, 62
1, 188178, Note_off_c, 0, 78, 64
1, 188179, Note_off_c, 0, 69, 62
1, 188316, Note_on_c, 0, 67, 72
1, 188320, Note_on_c, 0, 59, 65
1, 188326, Note_on_c, 0, 65, 63
1, 188349, Note_off_c, 0, 59, 66
1, 188355, Note_off_c, 0, 65, 67
1, 188357, Note_on_c, 0, 66, 74
1, 188382, Note_off_c, 0, 67, 63
1, 188412, Note_off_c, 0, 54, 59
1, 188492, Control_c, 0, 64, 109
1, 188496, Note_off_c, 0, 66, 57
1, 188506, Control_c, 0, 64, 84
1, 188516, Note_on_c, 0, 73, 76
1, 188519, Note_on_c, 0, 68, 66
1, 188521, Control_c, 0, 64, 68
1, 188528, Note_on_c, 0, 64, 52
1, 188532, Note_on_c, 0, 54, 66
1, 188536, Control_c, 0, 64, 58
1, 188547, Note_off_c, 0, 68, 67
1, 188550, Control_c, 0, 64, 66
1, 188551, Note_off_c, 0, 64, 59
1, 188565, Control_c, 0, 64, 75
1, 188567, Note_off_c, 0, 73, 66
1, 188580, Control_c, 0, 64, 94
1, 188595, Control_c, 0, 64, 127
1, 188642, Note_on_c, 0, 66, 62
1, 188715, Note_on_c, 0, 78, 83
1, 188737, Note_off_c, 0, 66, 55
1, 188768, Note_off_c, 0, 78, 62
1, 188975, Note_on_c, 0, 83, 87
1, 188984, Note_on_c, 0, 66, 72
1, 188987, Note_on_c, 0, 75, 86
1, 188987, Note_on_c, 0, 78, 75
1, 189011, Note_off_c, 0, 66, 67
1, 189050, Note_off_c, 0, 54, 61
1, 189097, Poly_aftertouch_c, 0, 81, 0
1, 189228, Note_on_c, 0, 47, 83
1, 189255, Control_c, 0, 64, 90
1, 189270, Control_c, 0, 64, 70
1, 189285, Control_c, 0, 64, 38
1, 189299, Control_c, 0, 64, 0
1, 189314, Control_c, 0, 64, 60
1, 189329, Control_c, 0, 64, 71
1, 189344, Control_c, 0, 64, 95
1, 189359, Control_c, 0, 64, 127
1, 189394, Note_off_c, 0, 75, 57
1, 189395, Note_off_c, 0, 83, 59
1, 189423, Note_on_c, 0, 59, 71
1, 189425, Note_off_c, 0, 47, 63
1, 189445, Note_off_c, 0, 78, 54
1, 189458, Note_off_c, 0, 59, 64
1, 189573, Note_on_c, 0, 71, 75
1, 189577, Note_on_c, 0, 84, 84
1, 189583, Note_on_c, 0, 76, 82
1, 189598, Note_off_c, 0, 71, 68
1, 189632, Note_off_c, 0, 76, 63
1, 189646, Note_off_c, 0, 84, 60
1, 189791, Note_on_c, 0, 78, 85
1, 189791, Note_on_c, 0, 86, 80
1, 189801, Note_on_c, 0, 59, 64
1, 189852, Note_off_c, 0, 78, 58
1, 189853, Note_off_c, 0, 86, 54
1, 189901, Note_on_c, 0, 71, 65
1, 189934, Note_off_c, 0, 71, 67
1, 189941, Note_on_c, 0, 82, 7
1, 189978, Note_on_c, 0, 84, 84
1, 189980, Note_on_c, 0, 76, 83
1, 189981, Note_off_c, 0, 59, 63
1, 189982, Note_off_c, 0, 82, 55
1, 190022, Note_off_c, 0, 84, 64
1, 190024, Note_off_c, 0, 76, 64
1, 190173, Note_on_c, 0, 47, 67
1, 190179, Note_on_c, 0, 79, 79
1, 190186, Note_on_c, 0, 70, 86
1, 190225, Note_off_c, 0, 47, 63
1, 190227, Note_on_c, 0, 59, 60
1, 190233, Note_off_c, 0, 79, 59
1, 190235, Note_off_c, 0, 70, 61
1, 190239, Poly_aftertouch_c, 0, 73, 0
1, 190269, Note_off_c, 0, 59, 62
1, 190394, Note_on_c, 0, 76, 77
1, 190459, Poly_aftertouch_c, 0, 67, 127
1, 190493, Poly_aftertouch_c, 0, 67, 0
1, 190532, Note_off_c, 0, 76, 58
1, 190545, Control_c, 0, 64, 82
1, 190560, Control_c, 0, 64, 61
1, 190575, Control_c, 0, 64, 15
1, 190576, Note_on_c, 0, 59, 71
1, 190583, Note_on_c, 0, 74, 77
1, 190590, Control_c, 0, 64, 62
1, 190605, Control_c, 0, 64, 71
1, 190608, Note_on_c, 0, 71, 48
1, 190619, Control_c, 0, 64, 87
1, 190631, Note_off_c, 0, 59, 61
1, 190633, Note_on_c, 0, 69, 13
1, 190634, Control_c, 0, 64, 127
1, 190647, Note_off_c, 0, 74, 67
1, 190657, Note_off_c, 0, 71, 64
1, 190679, Note_off_c, 0, 69, 37
1, 190779, Note_on_c, 0, 76, 80
1, 190787, Note_on_c, 0, 68, 79
1, 190791, Note_on_c, 0, 83, 72
1, 190805, Note_on_c, 0, 71, 44
1, 190805, Note_off_c, 0, 76, 66
1, 190808, Note_off_c, 0, 83, 67
1, 190818, Note_on_c, 0, 70, 54
1, 190835, Note_off_c, 0, 71, 57
1, 190839, Note_off_c, 0, 68, 66
1, 190841, Note_off_c, 0, 70, 59
1, 190987, Note_on_c, 0, 69, 70
1, 190997, Control_c, 0, 67, 14
1, 190998, Note_on_c, 0, 47, 69
1, 191008, Note_on_c, 0, 61, 60
1, 191012, Control_c, 0, 67, 29
1, 191028, Control_c, 0, 64, 93
1, 191028, Control_c, 0, 67, 53
1, 191043, Control_c, 0, 64, 68
1, 191043, Control_c, 0, 67, 82
1, 191057, Control_c, 0, 64, 0
1, 191057, Control_c, 0, 67, 122
1, 191072, Control_c, 0, 67, 127
1, 191080, Note_off_c, 0, 61, 60
1, 191175, Control_c, 0, 64, 63
1, 191190, Control_c, 0, 64, 72
1, 191191, Note_on_c, 0, 59, 63
1, 191201, Note_off_c, 0, 47, 64
1, 191205, Control_c, 0, 64, 85
1, 191220, Control_c, 0, 64, 105
1, 191221, Note_on_c, 0, 71, 76
1, 191223, Note_on_c, 0, 63, 75
1, 191229, Note_off_c, 0, 69, 62
1, 191235, Control_c, 0, 64, 127
1, 191246, Note_off_c, 0, 59, 63
1, 191247, Note_off_c, 0, 63, 68
1, 191285, Note_off_c, 0, 71, 65
1, 191392, Note_on_c, 0, 59, 53
1, 191456, Note_off_c, 0, 59, 63
1, 191467, Note_on_c, 0, 71, 59
1, 191497, Note_off_c, 0, 71, 66
1, 191590, Note_on_c, 0, 83, 65
1, 191723, Control_c, 0, 64, 103
1, 191746, Control_c, 0, 64, 75
1, 191761, Control_c, 0, 64, 64
1, 191766, Note_on_c, 0, 71, 66
1, 191775, Control_c, 0, 64, 65
1, 191777, Note_on_c, 0, 86, 65
1, 191790, Control_c, 0, 64, 71
1, 191804, Note_off_c, 0, 71, 64
1, 191805, Control_c, 0, 64, 82
1, 191821, Control_c, 0, 64, 95
1, 191828, Note_off_c, 0, 83, 0
1, 191828, Note_on_c, 0, 83, 7
1, 191831, Note_off_c, 0, 86, 63
1, 191836, Control_c, 0, 64, 115
1, 191847, Note_off_c, 0, 83, 57
1, 191851, Control_c, 0, 64, 127
1, 191964, Note_on_c, 0, 88, 72
1, 191965, Note_on_c, 0, 83, 57
1, 191971, Note_on_c, 0, 80, 65
1, 191987, Note_off_c, 0, 88, 68
1, 191992, Note_on_c, 0, 96, 37
1, 192013, Note_off_c, 0, 83, 67
1, 192024, Note_off_c, 0, 96, 56
1, 192029, Note_off_c, 0, 80, 65
1, 192177, Note_on_c, 0, 81, 74
1, 192185, Note_on_c, 0, 73, 49
1, 192191, Control_c, 0, 64, 107
1, 192194, Note_on_c, 0, 59, 38
1, 192206, Control_c, 0, 64, 82
1, 192218, Note_on_c, 0, 60, 27
1, 192221, Control_c, 0, 64, 65
1, 192236, Control_c, 0, 64, 0
1, 192253, Note_off_c, 0, 60, 44
1, 192265, Control_c, 0, 64, 26
1, 192280, Control_c, 0, 64, 57
1, 192293, Note_off_c, 0, 73, 51
1, 192295, Control_c, 0, 64, 65
1, 192310, Control_c, 0, 64, 72
1, 192319, Poly_aftertouch_c, 0, 66, 127
1, 192324, Control_c, 0, 64, 81
1, 192339, Control_c, 0, 64, 96
1, 192354, Control_c, 0, 64, 113
1, 192358, Note_on_c, 0, 71, 59
1, 192369, Control_c, 0, 64, 127
1, 192374, Poly_aftertouch_c, 0, 66, 0
1, 192385, Note_off_c, 0, 71, 64
1, 192400, Note_on_c, 0, 83, 76
1, 192403, Note_off_c, 0, 81, 63
1, 192413, Note_on_c, 0, 75, 66
1, 192418, Note_off_c, 0, 59, 63
1, 192437, Note_off_c, 0, 83, 65
1, 192439, Note_off_c, 0, 75, 68
1, 192574, Note_on_c, 0, 47, 67
1, 192643, Note_off_c, 0, 47, 62
1, 192659, Control_c, 0, 67, 126
1, 192661, Note_on_c, 0, 59, 56
1, 192674, Control_c, 0, 67, 113
1, 192689, Control_c, 0, 67, 103
1, 192691, Note_off_c, 0, 59, 65
1, 192703, Control_c, 0, 67, 92
1, 192718, Control_c, 0, 67, 81
1, 192733, Control_c, 0, 67, 70
1, 192747, Control_c, 0, 67, 57
1, 192761, Note_on_c, 0, 74, 71
1, 192762, Control_c, 0, 67, 44
1, 192770, Note_on_c, 0, 67, 47
1, 192775, Note_on_c, 0, 65, 68
1, 192777, Control_c, 0, 67, 30
1, 192792, Control_c, 0, 67, 19
1, 192806, Note_off_c, 0, 67, 60
1, 192807, Control_c, 0, 67, 10
1, 192821, Control_c, 0, 64, 97
1, 192821, Control_c, 0, 67, 0
1, 192836, Control_c, 0, 64, 76
1, 192851, Control_c, 0, 64, 64
1, 192865, Control_c, 0, 64, 63
1, 192880, Control_c, 0, 64, 69
1, 192895, Control_c, 0, 64, 79
1, 192910, Control_c, 0, 64, 98
1, 192925, Control_c, 0, 64, 127
1, 192958, Note_off_c, 0, 65, 58
1, 192958, Note_off_c, 0, 74, 63
1, 192965, Note_on_c, 0, 59, 50
1, 192972, Note_on_c, 0, 58, 35
1, 192991, Note_off_c, 0, 59, 59
1, 193007, Note_off_c, 0, 58, 54
1, 193142, Note_on_c, 0, 83, 63
1, 193146, Note_on_c, 0, 77, 74
1, 193148, Note_on_c, 0, 69, 71
1, 193148, Note_on_c, 0, 74, 33
1, 193160, Note_off_c, 0, 83, 66
1, 193171, Note_on_c, 0, 71, 33
1, 193178, Note_off_c, 0, 69, 65
1, 193183, Note_off_c, 0, 74, 62
1, 193199, Note_off_c, 0, 77, 61
1, 193202, Note_off_c, 0, 71, 54
1, 193364, Note_on_c, 0, 67, 71
1, 193374, Note_on_c, 0, 47, 59
1, 193383, Note_on_c, 0, 59, 60
1, 193410, Note_off_c, 0, 59, 68
1, 193437, Note_off_c, 0, 67, 64
1, 193565, Note_on_c, 0, 59, 16
1, 193599, Control_c, 0, 64, 121
1, 193613, Note_off_c, 0, 47, 57
1, 193614, Control_c, 0, 64, 86
1, 193628, Note_on_c, 0, 71, 76
1, 193629, Control_c, 0, 64, 64
1, 193638, Note_on_c, 0, 63, 71
1, 193643, Control_c, 0, 64, 0
1, 193649, Note_on_c, 0, 69, 59
1, 193652, Note_on_c, 0, 66, 65
1, 193670, Note_off_c, 0, 59, 59
1, 193673, Control_c, 0, 64, 56
1, 193688, Control_c, 0, 64, 68
1, 193695, Note_off_c, 0, 66, 60
1, 193703, Control_c, 0, 64, 80
1, 193717, Control_c, 0, 64, 96
1, 193732, Control_c, 0, 64, 122
1, 193747, Control_c, 0, 64, 127
1, 193755, Note_off_c, 0, 63, 59
1, 193818, Note_off_c, 0, 71, 60
1, 193834, Note_off_c, 0, 69, 52
1, 193875, Note_on_c, 0, 59, 67
1, 193970, Note_on_c, 0, 69, 70
1, 193973, Note_on_c, 0, 61, 71
1, 194011, Note_off_c, 0, 61, 62
1, 194060, Note_off_c, 0, 59, 46
1, 194078, Note_off_c, 0, 69, 0
1, 194093, Note_on_c, 0, 71, 68
1, 194101, Note_on_c, 0, 63, 67
1, 194101, Note_on_c, 0, 66, 65
1, 194115, Poly_aftertouch_c, 0, 69, 127
1, 194123, Note_off_c, 0, 71, 68
1, 194123, Note_off_c, 0, 66, 67
1, 194159, Note_off_c, 0, 63, 62
1, 194185, Poly_aftertouch_c, 0, 69, 0
1, 194290, Note_on_c, 0, 83, 78
1, 194333, Note_off_c, 0, 83, 65
1, 194373, Note_on_c, 0, 67, 74
1, 194388, Note_on_c, 0, 62, 66
1, 194475, Note_off_c, 0, 62, 60
1, 194477, Note_on_c, 0, 69, 84
1, 194484, Note_off_c, 0, 67, 61
1, 194488, Note_on_c, 0, 71, 79
1, 194595, Note_off_c, 0, 71, 57
1, 194597, Note_off_c, 0, 69, 31
1, 194633, Note_on_c, 0, 59, 66
1, 194700, Note_off_c, 0, 59, 64
1, 194728, Note_on_c, 0, 69, 72
1, 194748, Note_on_c, 0, 66, 57
1, 194762, Note_off_c, 0, 69, 67
1, 194764, Note_on_c, 0, 63, 17
1, 194770, Note_off_c, 0, 66, 61
1, 194809, Note_off_c, 0, 63, 43
1, 194871, Note_on_c, 0, 78, 77
1, 194873, Control_c, 0, 64, 91
1, 194874, Note_on_c, 0, 75, 78
1, 194880, Note_on_c, 0, 83, 77
1, 194888, Control_c, 0, 64, 70
1, 194903, Control_c, 0, 64, 0
1, 194917, Control_c, 0, 64, 22
1, 194929, Note_off_c, 0, 78, 57
1, 194932, Control_c, 0, 64, 64
1, 194947, Control_c, 0, 64, 72
1, 194961, Control_c, 0, 64, 86
1, 194976, Control_c, 0, 64, 106
1, 194991, Control_c, 0, 64, 127
1, 195018, Note_off_c, 0, 83, 59
1, 195056, Note_on_c, 0, 71, 72
1, 195080, Note_off_c, 0, 75, 35
1, 195142, Note_on_c, 0, 73, 69
1, 195145, Note_on_c, 0, 81, 62
1, 195162, Note_off_c, 0, 73, 60
1, 195192, Note_off_c, 0, 71, 59
1, 195234, Note_off_c, 0, 81, 0
1, 195248, Note_on_c, 0, 81, 59
1, 195254, Note_on_c, 0, 83, 73
1, 195270, Note_on_c, 0, 75, 50
1, 195279, Note_off_c, 0, 83, 72
1, 195312, Note_off_c, 0, 75, 60
1, 195357, Note_off_c, 0, 81, 60
1, 195442, Note_on_c, 0, 95, 74
1, 195474, Note_off_c, 0, 95, 60
1, 195545, Note_on_c, 0, 79, 61
1, 195552, Note_on_c, 0, 74, 57
1, 195637, Note_off_c, 0, 74, 63
1, 195647, Note_off_c, 0, 79, 63
1, 195654, Note_on_c, 0, 81, 74
1, 195673, Note_on_c, 0, 83, 67
1, 195768, Note_off_c, 0, 83, 56
1, 195816, Note_off_c, 0, 81, 31
1, 195851, Note_on_c, 0, 71, 57
1, 195892, Note_off_c, 0, 71, 63
1, 195951, Note_on_c, 0, 81, 59
1, 195962, Note_on_c, 0, 75, 53
1, 195968, Note_on_c, 0, 78, 49
1, 196120, Note_on_c, 0, 59, 57
1, 196126, Note_off_c, 0, 75, 41
1, 196156, Control_c, 0, 64, 108
1, 196171, Control_c, 0, 64, 85
1, 196183, Note_on_c, 0, 83, 63
1, 196186, Control_c, 0, 64, 68
1, 196187, Note_off_c, 0, 81, 58
1, 196201, Control_c, 0, 64, 22
1, 196215, Control_c, 0, 64, 0
1, 196236, Note_off_c, 0, 78, 56
1, 196268, Control_c, 0, 64, 46
1, 196283, Control_c, 0, 64, 63
1, 196297, Control_c, 0, 64, 68
1, 196312, Control_c, 0, 64, 74
1, 196327, Control_c, 0, 64, 83
1, 196342, Control_c, 0, 64, 91
1, 196357, Control_c, 0, 64, 96
1, 196371, Control_c, 0, 64, 103
1, 196386, Control_c, 0, 64, 115
1, 196396, Note_off_c, 0, 83, 67
1, 196401, Control_c, 0, 64, 127
1, 196463, Note_on_c, 0, 71, 57
1, 196674, Note_on_c, 0, 83, 69
1, 196873, Note_on_c, 0, 95, 65
1, 196944, Note_off_c, 0, 83, 38
1, 197060, Note_off_c, 0, 71, 56
1, 197071, Note_off_c, 0, 95, 59
1, 197081, Note_on_c, 0, 83, 72
1, 197135, Poly_aftertouch_c, 0, 88, 0
1, 197189, Note_off_c, 0, 83, 66
1, 197269, Note_on_c, 0, 71, 75
1, 197448, Note_off_c, 0, 59, 53
1, 197453, Note_on_c, 0, 72, 94
1, 197461, Note_on_c, 0, 83, 82
1, 197467, Note_on_c, 0, 76, 60
1, 197467, Note_on_c, 0, 81, 78
1, 197476, Note_on_c, 0, 79, 66
1, 197580, Control_c, 0, 64, 116
1, 197595, Control_c, 0, 64, 91
1, 197610, Control_c, 0, 64, 74
1, 197625, Control_c, 0, 64, 42
1, 197640, Control_c, 0, 64, 0
1, 197651, Note_on_c, 0, 59, 73
1, 197669, Control_c, 0, 64, 52
1, 197684, Control_c, 0, 64, 65
1, 197689, Note_off_c, 0, 71, 62
1, 197699, Control_c, 0, 64, 71
1, 197703, Note_off_c, 0, 79, 63
1, 197714, Control_c, 0, 64, 79
1, 197736, Control_c, 0, 64, 88
1, 197751, Control_c, 0, 64, 93
1, 197766, Control_c, 0, 64, 100
1, 197773, Note_off_c, 0, 76, 62
1, 197780, Control_c, 0, 64, 112
1, 197794, Note_off_c, 0, 81, 58
1, 197795, Control_c, 0, 64, 127
1, 197841, Note_on_c, 0, 71, 87
1, 197856, Note_off_c, 0, 83, 60
1, 197887, Note_off_c, 0, 72, 60
1, 198031, Note_on_c, 0, 73, 81
1, 198032, Control_c, 0, 64, 106
1, 198044, Note_on_c, 0, 83, 67
1, 198047, Control_c, 0, 64, 82
1, 198061, Control_c, 0, 64, 64
1, 198064, Note_on_c, 0, 81, 45
1, 198076, Note_on_c, 0, 80, 20
1, 198076, Control_c, 0, 64, 0
1, 198091, Control_c, 0, 64, 28
1, 198101, Note_off_c, 0, 59, 54
1, 198106, Control_c, 0, 64, 64
1, 198121, Control_c, 0, 64, 73
1, 198131, Poly_aftertouch_c, 0, 77, 0
1, 198135, Control_c, 0, 64, 86
1, 198150, Control_c, 0, 64, 99
1, 198165, Control_c, 0, 64, 109
1, 198180, Control_c, 0, 64, 127
1, 198245, Note_off_c, 0, 83, 53
1, 198273, Note_on_c, 0, 59, 39
1, 198302, Note_off_c, 0, 73, 63
1, 198412, Note_off_c, 0, 71, 50
1, 198439, Note_off_c, 0, 80, 41
1, 198442, Note_on_c, 0, 83, 66
1, 198448, Control_c, 0, 64, 111
1, 198449, Note_on_c, 0, 74, 54
1, 198463, Control_c, 0, 64, 87
1, 198470, Note_on_c, 0, 78, 42
1, 198484, Control_c, 0, 64, 69
1, 198499, Note_off_c, 0, 81, 36
1, 198499, Control_c, 0, 64, 0
1, 198558, Control_c, 0, 64, 56
1, 198573, Control_c, 0, 64, 64
1, 198588, Control_c, 0, 64, 67
1, 198603, Control_c, 0, 64, 71
1, 198618, Control_c, 0, 64, 77
1, 198633, Control_c, 0, 64, 86
1, 198648, Control_c, 0, 64, 93
1, 198663, Control_c, 0, 64, 99
1, 198678, Control_c, 0, 64, 108
1, 198692, Control_c, 0, 64, 127
1, 198710, Note_off_c, 0, 83, 36
1, 198722, Note_on_c, 0, 71, 46
1, 198732, Note_off_c, 0, 74, 56
1, 198812, Note_off_c, 0, 78, 40
1, 198994, Note_off_c, 0, 59, 29
1, 199030, Note_on_c, 0, 75, 45
1, 199038, Note_on_c, 0, 83, 51
1, 199043, Note_on_c, 0, 80, 43
1, 199089, Note_on_c, 0, 81, 30
1, 199241, Note_off_c, 0, 71, 33
1, 199504, Note_off_c, 0, 81, 5
1, 199548, Note_on_c, 0, 59, 38
1, 199604, Control_c, 0, 67, 12
1, 199605, Note_off_c, 0, 83, 39
1, 199619, Control_c, 0, 67, 18
1, 199630, Note_off_c, 0, 75, 43
1, 199633, Control_c, 0, 67, 27
1, 199644, Note_off_c, 0, 59, 55
1, 199645, Note_off_c, 0, 80, 42
1, 199648, Control_c, 0, 67, 44
1, 199663, Control_c, 0, 67, 60
1, 199677, Control_c, 0, 67, 75
1, 199692, Control_c, 0, 67, 90
1, 199707, Control_c, 0, 67, 104
1, 199722, Control_c, 0, 67, 117
1, 199737, Control_c, 0, 67, 127
1, 200263, Control_c, 0, 64, 124
1, 200278, Control_c, 0, 64, 93
1, 200286, Note_on_c, 0, 43, 49
1, 200290, Note_on_c, 0, 83, 60
1, 200291, Note_on_c, 0, 72, 62
1, 200293, Control_c, 0, 64, 75
1, 200299, Note_on_c, 0, 76, 50
1, 200308, Control_c, 0, 64, 57
1, 200323, Control_c, 0, 64, 0
1, 200338, Control_c, 0, 64, 50
1, 200353, Control_c, 0, 64, 65
1, 200368, Control_c, 0, 64, 75
1, 200382, Control_c, 0, 64, 89
1, 200397, Control_c, 0, 64, 105
1, 200412, Control_c, 0, 64, 127
1, 200429, Note_off_c, 0, 43, 60
1, 200435, Note_on_c, 0, 50, 59
1, 200448, Note_off_c, 0, 72, 52
1, 200471, Note_off_c, 0, 50, 64
1, 200628, Note_on_c, 0, 81, 72
1, 200630, Note_on_c, 0, 72, 65
1, 200632, Note_on_c, 0, 60, 56
1, 200636, Note_off_c, 0, 76, 57
1, 200638, Note_off_c, 0, 83, 62
1, 200639, Note_on_c, 0, 62, 50
1, 200650, Control_c, 0, 64, 98
1, 200655, Note_off_c, 0, 72, 64
1, 200659, Note_off_c, 0, 81, 66
1, 200665, Control_c, 0, 64, 80
1, 200669, Note_off_c, 0, 60, 57
1, 200674, Note_off_c, 0, 62, 58
1, 200679, Control_c, 0, 64, 64
1, 200694, Control_c, 0, 64, 0
1, 200955, Note_on_c, 0, 64, 58
1, 200962, Note_on_c, 0, 74, 59
1, 200969, Note_on_c, 0, 69, 55
1, 200985, Note_off_c, 0, 64, 66
1, 201011, Note_off_c, 0, 69, 60
1, 201191, Note_off_c, 0, 74, 61
1, 201193, Note_on_c, 0, 43, 66
1, 201205, Control_c, 0, 64, 66
1, 201208, Note_on_c, 0, 76, 68
1, 201220, Control_c, 0, 64, 77
1, 201235, Control_c, 0, 64, 87
1, 201235, Note_on_c, 0, 67, 29
1, 201236, Note_on_c, 0, 50, 66
1, 201236, Note_on_c, 0, 71, 44
1, 201241, Note_off_c, 0, 43, 61
1, 201249, Control_c, 0, 64, 97
1, 201264, Control_c, 0, 64, 109
1, 201267, Note_off_c, 0, 50, 65
1, 201274, Note_off_c, 0, 67, 49
1, 201279, Control_c, 0, 64, 127
1, 201404, Note_off_c, 0, 76, 62
1, 201414, Control_c, 0, 64, 115
1, 201419, Note_on_c, 0, 79, 72
1, 201426, Note_off_c, 0, 71, 43
1, 201427, Note_on_c, 0, 74, 42
1, 201428, Control_c, 0, 64, 86
1, 201431, Note_on_c, 0, 62, 60
1, 201435, Note_on_c, 0, 64, 60
1, 201443, Control_c, 0, 64, 64
1, 201449, Note_off_c, 0, 79, 65
1, 201455, Note_off_c, 0, 74, 50
1, 201458, Control_c, 0, 64, 0
1, 201461, Note_off_c, 0, 64, 55
1, 201462, Note_off_c, 0, 62, 54
1, 201637, Note_on_c, 0, 83, 75
1, 201638, Note_on_c, 0, 66, 70
1, 201647, Note_on_c, 0, 78, 65
1, 201656, Note_off_c, 0, 66, 66
1, 201672, Note_off_c, 0, 83, 66
1, 201673, Note_off_c, 0, 78, 66
1, 201823, Note_on_c, 0, 43, 68
1, 201835, Control_c, 0, 64, 66
1, 201837, Note_on_c, 0, 83, 86
1, 201847, Note_on_c, 0, 50, 58
1, 201850, Control_c, 0, 64, 74
1, 201853, Note_on_c, 0, 72, 64
1, 201865, Control_c, 0, 64, 83
1, 201875, Note_on_c, 0, 76, 39
1, 201877, Note_off_c, 0, 43, 61
1, 201879, Control_c, 0, 64, 92
1, 201894, Control_c, 0, 64, 102
1, 201899, Note_off_c, 0, 50, 64
1, 201909, Control_c, 0, 64, 127
1, 201935, Note_off_c, 0, 76, 0
1, 201935, Note_on_c, 0, 76, 19
1, 201951, Note_off_c, 0, 72, 47
1, 202019, Note_off_c, 0, 76, 54
1, 202037, Note_on_c, 0, 81, 90
1, 202043, Control_c, 0, 64, 93
1, 202052, Note_off_c, 0, 83, 68
1, 202052, Note_on_c, 0, 60, 59
1, 202054, Note_on_c, 0, 72, 68
1, 202058, Control_c, 0, 64, 72
1, 202060, Note_on_c, 0, 62, 57
1, 202065, Note_off_c, 0, 81, 65
1, 202072, Control_c, 0, 64, 0
1, 202073, Note_off_c, 0, 72, 62
1, 202089, Note_off_c, 0, 60, 59
1, 202103, Note_off_c, 0, 62, 56
1, 202268, Note_on_c, 0, 74, 68
1, 202269, Note_on_c, 0, 69, 67
1, 202282, Note_on_c, 0, 62, 35
1, 202285, Note_on_c, 0, 64, 19
1, 202297, Note_off_c, 0, 69, 66
1, 202307, Note_off_c, 0, 74, 49
1, 202312, Note_off_c, 0, 62, 45
1, 202323, Note_off_c, 0, 64, 42
1, 202426, Note_on_c, 0, 43, 66
1, 202437, Control_c, 0, 64, 64
1, 202452, Control_c, 0, 64, 74
1, 202453, Note_on_c, 0, 76, 71
1, 202456, Note_on_c, 0, 50, 60
1, 202462, Note_on_c, 0, 67, 61
1, 202467, Control_c, 0, 64, 86
1, 202471, Note_on_c, 0, 71, 64
1, 202471, Note_off_c, 0, 43, 58
1, 202482, Control_c, 0, 64, 99
1, 202497, Control_c, 0, 64, 112
1, 202499, Note_off_c, 0, 50, 63
1, 202511, Control_c, 0, 64, 127
1, 202597, Note_off_c, 0, 67, 34
1, 202645, Note_off_c, 0, 71, 62
1, 202653, Note_on_c, 0, 74, 63
1, 202655, Note_off_c, 0, 76, 56
1, 202663, Note_on_c, 0, 79, 79
1, 202678, Note_off_c, 0, 74, 68
1, 202689, Note_on_c, 0, 65, 56
1, 202690, Note_on_c, 0, 64, 46
1, 202701, Note_off_c, 0, 79, 62
1, 202725, Note_off_c, 0, 65, 56
1, 202735, Note_off_c, 0, 64, 45
1, 202867, Note_on_c, 0, 66, 73
1, 202869, Note_on_c, 0, 83, 86
1, 202880, Note_on_c, 0, 78, 73
1, 202882, Control_c, 0, 67, 120
1, 202892, Note_off_c, 0, 66, 67
1, 202896, Control_c, 0, 67, 109
1, 202905, Note_off_c, 0, 78, 68
1, 202911, Note_off_c, 0, 83, 67
1, 202911, Control_c, 0, 67, 96
1, 202926, Control_c, 0, 67, 80
1, 202941, Control_c, 0, 67, 62
1, 202956, Control_c, 0, 67, 43
1, 202978, Control_c, 0, 67, 25
1, 202993, Control_c, 0, 67, 12
1, 203009, Control_c, 0, 67, 0
1, 203086, Note_on_c, 0, 43, 67
1, 203112, Control_c, 0, 64, 109
1, 203126, Control_c, 0, 64, 78
1, 203136, Poly_aftertouch_c, 0, 80, 0
1, 203139, Note_on_c, 0, 88, 85
1, 203141, Control_c, 0, 64, 49
1, 203147, Note_on_c, 0, 79, 78
1, 203150, Note_on_c, 0, 81, 79
1, 203156, Control_c, 0, 64, 0
1, 203200, Control_c, 0, 64, 52
1, 203215, Control_c, 0, 64, 72
1, 203230, Control_c, 0, 64, 88
1, 203245, Control_c, 0, 64, 127
1, 203288, Note_off_c, 0, 43, 63
1, 203314, Note_on_c, 0, 55, 69
1, 203323, Note_off_c, 0, 81, 61
1, 203344, Note_off_c, 0, 55, 65
1, 203382, Note_off_c, 0, 79, 59
1, 203397, Note_off_c, 0, 88, 49
1, 203480, Note_on_c, 0, 86, 93
1, 203487, Note_on_c, 0, 79, 76
1, 203488, Note_on_c, 0, 59, 66
1, 203491, Note_on_c, 0, 77, 79
1, 203495, Note_on_c, 0, 67, 71
1, 203497, Note_on_c, 0, 65, 59
1, 203557, Note_off_c, 0, 65, 51
1, 203602, Note_off_c, 0, 67, 61
1, 203602, Note_off_c, 0, 79, 63
1, 203696, Note_off_c, 0, 86, 59
1, 203703, Note_off_c, 0, 77, 61
1, 203814, Note_on_c, 0, 68, 67
1, 203822, Note_on_c, 0, 66, 71
1, 203844, Note_off_c, 0, 68, 68
1, 203855, Note_on_c, 0, 80, 76
1, 203858, Note_on_c, 0, 88, 87
1, 203863, Note_on_c, 0, 78, 80
1, 203870, Note_off_c, 0, 66, 65
1, 203882, Note_off_c, 0, 59, 60
1, 203944, Note_off_c, 0, 80, 63
1, 203982, Note_off_c, 0, 88, 60
1, 203996, Note_off_c, 0, 78, 62
1, 204031, Note_on_c, 0, 48, 64
1, 204053, Control_c, 0, 64, 106
1, 204068, Control_c, 0, 64, 80
1, 204069, Note_on_c, 0, 86, 80
1, 204077, Note_on_c, 0, 77, 72
1, 204080, Note_on_c, 0, 79, 51
1, 204082, Control_c, 0, 64, 64
1, 204097, Control_c, 0, 64, 60
1, 204112, Control_c, 0, 64, 69
1, 204127, Control_c, 0, 64, 81
1, 204133, Note_on_c, 0, 55, 69
1, 204142, Control_c, 0, 64, 101
1, 204142, Note_off_c, 0, 48, 62
1, 204157, Control_c, 0, 64, 127
1, 204163, Note_off_c, 0, 77, 61
1, 204189, Note_off_c, 0, 55, 60
1, 204240, Note_off_c, 0, 79, 59
1, 204261, Note_on_c, 0, 84, 79
1, 204262, Note_on_c, 0, 76, 80
1, 204275, Note_on_c, 0, 69, 68
1, 204282, Note_off_c, 0, 86, 31
1, 204285, Note_off_c, 0, 76, 69
1, 204290, Note_off_c, 0, 84, 63
1, 204296, Note_on_c, 0, 67, 50
1, 204303, Note_off_c, 0, 69, 65
1, 204319, Note_off_c, 0, 67, 58
1, 204462, Note_on_c, 0, 40, 62
1, 204478, Note_on_c, 0, 68, 87
1, 204485, Note_on_c, 0, 76, 64
1, 204522, Note_off_c, 0, 68, 57
1, 204534, Note_off_c, 0, 76, 58
1, 204575, Note_on_c, 0, 52, 64
1, 204654, Control_c, 0, 64, 101
1, 204669, Control_c, 0, 64, 75
1, 204684, Control_c, 0, 64, 12
1, 204687, Note_off_c, 0, 52, 60
1, 204693, Note_off_c, 0, 40, 51
1, 204695, Note_on_c, 0, 67, 67
1, 204695, Note_on_c, 0, 69, 70
1, 204696, Note_on_c, 0, 45, 63
1, 204696, Note_on_c, 0, 75, 56
1, 204697, Note_on_c, 0, 81, 74
1, 204698, Control_c, 0, 64, 0
1, 204708, Note_on_c, 0, 79, 63
1, 204728, Control_c, 0, 64, 65
1, 204743, Control_c, 0, 64, 78
1, 204758, Control_c, 0, 64, 96
1, 204761, Note_off_c, 0, 75, 61
1, 204772, Control_c, 0, 64, 127
1, 204795, Note_off_c, 0, 79, 59
1, 204801, Note_off_c, 0, 81, 66
1, 204851, Note_off_c, 0, 67, 62
1, 204883, Note_off_c, 0, 69, 55
1, 204884, Note_off_c, 0, 45, 62
1, 204885, Note_on_c, 0, 38, 66
1, 204896, Note_on_c, 0, 83, 73
1, 204903, Note_on_c, 0, 74, 6
1, 204905, Control_c, 0, 67, 13
1, 204906, Note_on_c, 0, 78, 50
1, 204908, Note_on_c, 0, 50, 46
1, 204916, Note_off_c, 0, 38, 64
1, 204920, Control_c, 0, 67, 27
1, 204929, Note_off_c, 0, 78, 57
1, 204935, Note_off_c, 0, 83, 67
1, 204935, Control_c, 0, 67, 54
1, 204938, Note_off_c, 0, 50, 60
1, 204941, Note_on_c, 0, 81, 32
1, 204942, Note_off_c, 0, 81, 127
1, 204950, Control_c, 0, 67, 94
1, 204954, Note_off_c, 0, 74, 50
1, 204965, Control_c, 0, 67, 127
1, 205089, Note_on_c, 0, 60, 60
1, 205093, Note_on_c, 0, 74, 79
1, 205102, Note_on_c, 0, 64, 67
1, 205110, Note_off_c, 0, 60, 60
1, 205113, Note_on_c, 0, 72, 61
1, 205125, Note_off_c, 0, 64, 64
1, 205143, Note_off_c, 0, 72, 66
1, 205147, Note_off_c, 0, 74, 62
1, 205283, Control_c, 0, 64, 91
1, 205298, Control_c, 0, 64, 69
1, 205298, Note_on_c, 0, 43, 63
1, 205311, Note_on_c, 0, 76, 78
1, 205313, Control_c, 0, 64, 0
1, 205322, Note_on_c, 0, 50, 54
1, 205322, Note_on_c, 0, 74, 67
1, 205331, Note_on_c, 0, 67, 53
1, 205343, Control_c, 0, 64, 49
1, 205357, Note_off_c, 0, 43, 61
1, 205358, Control_c, 0, 64, 69
1, 205373, Control_c, 0, 64, 84
1, 205385, Note_off_c, 0, 50, 61
1, 205387, Control_c, 0, 64, 113
1, 205403, Control_c, 0, 64, 127
1, 205462, Note_off_c, 0, 67, 62
1, 205465, Note_off_c, 0, 76, 59
1, 205471, Note_off_c, 0, 74, 54
1, 205506, Note_on_c, 0, 64, 54
1, 205512, Note_on_c, 0, 62, 57
1, 205537, Note_off_c, 0, 64, 65
1, 205543, Note_off_c, 0, 62, 64
1, 205699, Note_on_c, 0, 64, 64
1, 205724, Note_off_c, 0, 64, 67
1, 205726, Note_on_c, 0, 62, 32
1, 205752, Note_off_c, 0, 62, 51
1, 205877, Control_c, 0, 64, 104
1, 205891, Control_c, 0, 64, 79
1, 205906, Control_c, 0, 64, 46
1, 205912, Note_on_c, 0, 38, 64
1, 205915, Note_on_c, 0, 81, 87
1, 205921, Control_c, 0, 64, 0
1, 205927, Note_on_c, 0, 76, 63
1, 205936, Control_c, 0, 64, 31
1, 205939, Note_on_c, 0, 74, 45
1, 205939, Note_on_c, 0, 72, 66
1, 205951, Control_c, 0, 64, 65
1, 205961, Note_off_c, 0, 38, 65
1, 205972, Control_c, 0, 64, 76
1, 205987, Control_c, 0, 64, 93
1, 206002, Control_c, 0, 64, 127
1, 206003, Note_off_c, 0, 76, 64
1, 206061, Note_off_c, 0, 81, 65
1, 206130, Note_on_c, 0, 60, 61
1, 206131, Note_off_c, 0, 74, 0
1, 206133, Note_on_c, 0, 62, 52
1, 206140, Note_on_c, 0, 83, 84
1, 206157, Note_off_c, 0, 72, 64
1, 206159, Note_off_c, 0, 62, 61
1, 206166, Note_on_c, 0, 78, 44
1, 206167, Note_off_c, 0, 60, 62
1, 206168, Poly_aftertouch_c, 0, 74, 127
1, 206185, Note_off_c, 0, 83, 65
1, 206193, Note_off_c, 0, 78, 56
1, 206219, Poly_aftertouch_c, 0, 74, 0
1, 206339, Note_on_c, 0, 74, 68
1, 206342, Note_on_c, 0, 64, 72
1, 206351, Note_on_c, 0, 72, 73
1, 206359, Note_on_c, 0, 71, 56
1, 206359, Note_off_c, 0, 64, 64
1, 206364, Note_on_c, 0, 62, 41
1, 206391, Note_off_c, 0, 71, 54
1, 206392, Note_off_c, 0, 62, 52
1, 206395, Note_off_c, 0, 72, 52
1, 206401, Note_off_c, 0, 74, 59
1, 206523, Control_c, 0, 64, 94
1, 206535, Note_on_c, 0, 76, 72
1, 206538, Control_c, 0, 64, 71
1, 206541, Note_on_c, 0, 43, 61
1, 206552, Control_c, 0, 64, 0
1, 206556, Note_on_c, 0, 74, 50
1, 206561, Note_on_c, 0, 65, 33
1, 206566, Note_on_c, 0, 67, 47
1, 206577, Note_on_c, 0, 50, 43
1, 206582, Control_c, 0, 64, 55
1, 206596, Control_c, 0, 64, 70
1, 206603, Note_off_c, 0, 43, 59
1, 206611, Control_c, 0, 64, 84
1, 206624, Note_off_c, 0, 65, 50
1, 206625, Note_off_c, 0, 50, 63
1, 206626, Control_c, 0, 64, 103
1, 206641, Control_c, 0, 64, 127
1, 206732, Note_off_c, 0, 67, 51
1, 206737, Note_off_c, 0, 76, 59
1, 206752, Note_off_c, 0, 74, 35
1, 206780, Note_on_c, 0, 64, 48
1, 206783, Note_on_c, 0, 62, 50
1, 206821, Note_off_c, 0, 64, 64
1, 206832, Note_off_c, 0, 62, 54
1, 207009, Note_on_c, 0, 64, 45
1, 207010, Note_on_c, 0, 62, 34
1, 207035, Note_off_c, 0, 64, 60
1, 207050, Note_off_c, 0, 62, 47
1, 207227, Control_c, 0, 64, 107
1, 207237, Note_on_c, 0, 38, 49
1, 207242, Control_c, 0, 64, 85
1, 207248, Note_on_c, 0, 69, 65
1, 207257, Control_c, 0, 64, 69
1, 207264, Note_on_c, 0, 60, 50
1, 207272, Control_c, 0, 64, 62
1, 207274, Note_on_c, 0, 62, 40
1, 207275, Note_on_c, 0, 64, 19
1, 207287, Control_c, 0, 64, 65
1, 207301, Control_c, 0, 64, 71
1, 207310, Note_off_c, 0, 38, 64
1, 207313, Note_off_c, 0, 64, 50
1, 207316, Control_c, 0, 64, 82
1, 207331, Control_c, 0, 64, 100
1, 207346, Control_c, 0, 64, 127
1, 207380, Note_off_c, 0, 69, 59
1, 207450, Note_off_c, 0, 62, 29
1, 207527, Note_on_c, 0, 62, 39
1, 207540, Note_on_c, 0, 71, 63
1, 207558, Note_on_c, 0, 66, 58
1, 207562, Note_off_c, 0, 62, 59
1, 207588, Note_off_c, 0, 66, 65
1, 207591, Note_off_c, 0, 60, 51
1, 207602, Note_off_c, 0, 71, 62
1, 207838, Note_on_c, 0, 62, 53
1, 207844, Note_on_c, 0, 57, 45
1, 207850, Note_on_c, 0, 52, 42
1, 207924, Note_off_c, 0, 57, 58
1, 207987, Note_off_c, 0, 52, 36
1, 207993, Note_off_c, 0, 62, 54
1, 208124, Note_on_c, 0, 43, 44
1, 208191, Note_on_c, 0, 59, 44
1, 208192, Note_on_c, 0, 64, 58
1, 208197, Control_c, 0, 64, 104
1, 208220, Control_c, 0, 64, 80
1, 208234, Control_c, 0, 64, 59
1, 208249, Control_c, 0, 64, 0
1, 208309, Control_c, 0, 64, 28
1, 208323, Control_c, 0, 64, 64
1, 208338, Control_c, 0, 64, 70
1, 208353, Control_c, 0, 64, 76
1, 208367, Control_c, 0, 64, 83
1, 208382, Control_c, 0, 64, 87
1, 208397, Control_c, 0, 64, 92
1, 208412, Control_c, 0, 64, 98
1, 208422, Note_on_c, 0, 50, 51
1, 208427, Control_c, 0, 64, 104
1, 208441, Control_c, 0, 64, 111
1, 208456, Control_c, 0, 64, 124
1, 208471, Control_c, 0, 64, 127
1, 208473, Note_off_c, 0, 59, 37
1, 208480, Note_off_c, 0, 43, 31
1, 208481, Note_off_c, 0, 50, 59
1, 208619, Note_on_c, 0, 52, 46
1, 208624, Note_on_c, 0, 57, 49
1, 208664, Note_off_c, 0, 52, 61
1, 208713, Note_off_c, 0, 57, 53
1, 208756, Note_on_c, 0, 62, 48
1, 208756, Note_off_c, 0, 64, 50
1, 208917, Control_c, 0, 64, 120
1, 208925, Note_on_c, 0, 59, 53
1, 208932, Control_c, 0, 64, 96
1, 208946, Control_c, 0, 64, 81
1, 208968, Control_c, 0, 64, 70
1, 208983, Control_c, 0, 64, 65
1, 208998, Control_c, 0, 64, 67
1, 209004, Note_on_c, 0, 64, 59
1, 209009, Note_off_c, 0, 62, 54
1, 209012, Control_c, 0, 64, 71
1, 209027, Control_c, 0, 64, 77
1, 209042, Control_c, 0, 64, 86
1, 209057, Control_c, 0, 64, 94
1, 209072, Control_c, 0, 64, 98
1, 209087, Control_c, 0, 64, 102
1, 209102, Control_c, 0, 64, 107
1, 209117, Control_c, 0, 64, 114
1, 209131, Control_c, 0, 64, 127
1, 209215, Note_on_c, 0, 50, 54
1, 209397, Note_on_c, 0, 38, 55
1, 209435, Note_off_c, 0, 38, 63
1, 209457, Note_off_c, 0, 59, 57
1, 209459, Note_off_c, 0, 50, 37
1, 209471, Note_off_c, 0, 64, 56
1, 209492, Note_on_c, 0, 57, 45
1, 209504, Note_on_c, 0, 62, 45
1, 209576, Control_c, 0, 64, 99
1, 209591, Control_c, 0, 64, 81
1, 209603, Note_on_c, 0, 43, 51
1, 209606, Control_c, 0, 64, 64
1, 209612, Note_on_c, 0, 64, 57
1, 209621, Control_c, 0, 64, 30
1, 209625, Note_off_c, 0, 62, 59
1, 209629, Note_off_c, 0, 57, 58
1, 209635, Control_c, 0, 64, 58
1, 209644, Note_on_c, 0, 59, 50
1, 209650, Control_c, 0, 64, 66
1, 209665, Control_c, 0, 64, 74
1, 209679, Note_off_c, 0, 59, 65
1, 209680, Control_c, 0, 64, 87
1, 209695, Control_c, 0, 64, 104
1, 209717, Control_c, 0, 64, 122
1, 209723, Note_off_c, 0, 64, 64
1, 209732, Control_c, 0, 64, 127
1, 209732, Control_c, 0, 67, 127
1, 209746, Control_c, 0, 67, 107
1, 209761, Control_c, 0, 67, 87
1, 209776, Control_c, 0, 67, 65
1, 209791, Control_c, 0, 67, 43
1, 209806, Control_c, 0, 67, 21
1, 209820, Control_c, 0, 67, 0
1, 209831, Note_on_c, 0, 50, 56
1, 209865, Note_off_c, 0, 43, 35
1, 209873, Note_off_c, 0, 50, 62
1, 210007, Note_on_c, 0, 52, 58
1, 210012, Note_on_c, 0, 57, 50
1, 210060, Note_off_c, 0, 57, 58
1, 210088, Note_on_c, 0, 62, 63
1, 210095, Note_off_c, 0, 52, 58
1, 210148, Note_off_c, 0, 62, 60
1, 210194, Note_on_c, 0, 43, 58
1, 210197, Note_on_c, 0, 76, 66
1, 210206, Note_on_c, 0, 71, 65
1, 210206, Control_c, 0, 64, 88
1, 210221, Control_c, 0, 64, 70
1, 210235, Control_c, 0, 64, 53
1, 210250, Control_c, 0, 64, 52
1, 210265, Control_c, 0, 64, 63
1, 210280, Control_c, 0, 64, 67
1, 210295, Control_c, 0, 64, 75
1, 210309, Control_c, 0, 64, 87
1, 210324, Control_c, 0, 64, 99
1, 210338, Note_off_c, 0, 71, 58
1, 210339, Control_c, 0, 64, 112
1, 210354, Control_c, 0, 64, 127
1, 210405, Note_off_c, 0, 43, 61
1, 210410, Note_on_c, 0, 50, 66
1, 210423, Note_off_c, 0, 76, 54
1, 210439, Note_off_c, 0, 50, 65
1, 210531, Note_on_c, 0, 74, 63
1, 210550, Note_on_c, 0, 69, 65
1, 210667, Note_on_c, 0, 76, 72
1, 210670, Note_on_c, 0, 71, 63
1, 210691, Note_off_c, 0, 74, 61
1, 210717, Control_c, 0, 64, 117
1, 210732, Control_c, 0, 64, 96
1, 210747, Control_c, 0, 64, 81
1, 210761, Control_c, 0, 64, 67
1, 210776, Control_c, 0, 64, 18
1, 210791, Control_c, 0, 64, 0
1, 210903, Note_off_c, 0, 69, 11
1, 210906, Note_on_c, 0, 62, 50
1, 211030, Note_off_c, 0, 71, 55
1, 211043, Note_off_c, 0, 76, 59
1, 211075, Note_on_c, 0, 74, 41
1, 211078, Note_on_c, 0, 69, 25
1, 211266, Note_off_c, 0, 69, 45
1, 211272, Note_on_c, 0, 76, 50
1, 211273, Note_off_c, 0, 74, 54
1, 211288, Control_c, 0, 64, 30
1, 211292, Note_on_c, 0, 71, 35
1, 211303, Control_c, 0, 64, 49
1, 211317, Control_c, 0, 64, 60
1, 211332, Control_c, 0, 64, 65
1, 211347, Control_c, 0, 64, 69
1, 211354, Note_off_c, 0, 71, 49
1, 211362, Control_c, 0, 64, 75
1, 211377, Control_c, 0, 64, 81
1, 211391, Control_c, 0, 64, 87
1, 211406, Control_c, 0, 64, 92
1, 211421, Note_off_c, 0, 76, 59
1, 211421, Control_c, 0, 64, 98
1, 211436, Control_c, 0, 64, 106
1, 211451, Control_c, 0, 64, 116
1, 211466, Control_c, 0, 64, 127
1, 211681, Note_off_c, 0, 62, 29
1, 211721, Note_on_c, 0, 69, 36
1, 211735, Note_on_c, 0, 64, 41
1, 211829, Note_off_c, 0, 64, 59
1, 211830, Note_off_c, 0, 69, 52
1, 212041, Note_on_c, 0, 74, 42
1, 212265, Note_off_c, 0, 74, 43
1, 212521, Note_on_c, 0, 49, 60
1, 212540, Control_c, 0, 64, 104
1, 212555, Control_c, 0, 64, 85
1, 212561, Note_on_c, 0, 88, 78
1, 212570, Control_c, 0, 64, 70
1, 212576, Note_on_c, 0, 83, 71
1, 212586, Control_c, 0, 64, 41
1, 212601, Control_c, 0, 64, 0
1, 212616, Control_c, 0, 64, 27
1, 212630, Control_c, 0, 64, 58
1, 212645, Control_c, 0, 64, 65
1, 212660, Control_c, 0, 64, 69
1, 212675, Control_c, 0, 64, 75
1, 212689, Control_c, 0, 64, 86
1, 212712, Control_c, 0, 64, 95
1, 212727, Control_c, 0, 64, 106
1, 212742, Control_c, 0, 64, 127
1, 212809, Note_on_c, 0, 56, 72
1, 212813, Note_off_c, 0, 49, 63
1, 212873, Note_off_c, 0, 83, 66
1, 212887, Note_on_c, 0, 80, 66
1, 212898, Note_on_c, 0, 77, 64
1, 212900, Note_off_c, 0, 88, 60
1, 212956, Note_on_c, 0, 88, 74
1, 212963, Note_on_c, 0, 65, 71
1, 212969, Note_on_c, 0, 83, 84
1, 212973, Note_off_c, 0, 56, 63
1, 212980, Note_off_c, 0, 80, 60
1, 212999, Note_off_c, 0, 77, 60
1, 213019, Note_off_c, 0, 65, 64
1, 213156, Note_on_c, 0, 74, 71
1, 213162, Note_on_c, 0, 71, 63
1, 213168, Note_off_c, 0, 88, 54
1, 213204, Note_off_c, 0, 83, 66
1, 213218, Note_off_c, 0, 74, 61
1, 213221, Note_off_c, 0, 71, 63
1, 213237, Note_on_c, 0, 76, 73
1, 213245, Note_on_c, 0, 79, 61
1, 213330, Note_on_c, 0, 82, 76
1, 213331, Note_on_c, 0, 85, 82
1, 213333, Note_off_c, 0, 79, 64
1, 213344, Note_off_c, 0, 76, 59
1, 213621, Note_off_c, 0, 85, 54
1, 213657, Note_off_c, 0, 82, 62
1, 213676, Note_on_c, 0, 77, 52
1, 213688, Note_on_c, 0, 74, 53
1, 213757, Note_on_c, 0, 83, 72
1, 213763, Note_on_c, 0, 46, 54
1, 213766, Note_off_c, 0, 77, 59
1, 213772, Control_c, 0, 64, 95
1, 213776, Note_on_c, 0, 79, 62
1, 213786, Control_c, 0, 64, 75
1, 213801, Control_c, 0, 64, 0
1, 213823, Note_off_c, 0, 74, 32
1, 213875, Control_c, 0, 64, 51
1, 213890, Control_c, 0, 64, 66
1, 213904, Control_c, 0, 64, 75
1, 213919, Control_c, 0, 64, 84
1, 213934, Control_c, 0, 64, 95
1, 213949, Control_c, 0, 64, 104
1, 213963, Note_on_c, 0, 56, 55
1, 213964, Control_c, 0, 64, 127
1, 213967, Note_off_c, 0, 46, 59
1, 214011, Note_off_c, 0, 83, 55
1, 214018, Note_off_c, 0, 79, 64
1, 214029, Note_on_c, 0, 74, 50
1, 214046, Note_on_c, 0, 76, 59
1, 214103, Note_off_c, 0, 56, 60
1, 214110, Note_off_c, 0, 76, 64
1, 214118, Note_on_c, 0, 83, 71
1, 214127, Note_on_c, 0, 62, 48
1, 214128, Note_on_c, 0, 79, 68
1, 214136, Note_off_c, 0, 74, 38
1, 214295, Note_off_c, 0, 83, 34
1, 214316, Note_on_c, 0, 68, 62
1, 214346, Note_off_c, 0, 62, 34
1, 214357, Note_off_c, 0, 68, 58
1, 214369, Note_off_c, 0, 79, 58
1, 214402, Note_on_c, 0, 74, 44
1, 214405, Note_on_c, 0, 71, 60
1, 214488, Note_off_c, 0, 71, 59
1, 214494, Note_on_c, 0, 79, 62
1, 214502, Note_off_c, 0, 74, 60
1, 214512, Note_on_c, 0, 76, 56
1, 214742, Control_c, 0, 67, 9
1, 214757, Control_c, 0, 67, 18
1, 214768, Note_off_c, 0, 76, 63
1, 214772, Control_c, 0, 67, 31
1, 214787, Control_c, 0, 67, 54
1, 214793, Note_on_c, 0, 70, 58
1, 214795, Note_on_c, 0, 75, 58
1, 214801, Control_c, 0, 67, 81
1, 214816, Control_c, 0, 67, 110
1, 214831, Control_c, 0, 67, 127
1, 214840, Note_off_c, 0, 79, 36
1, 214863, Note_off_c, 0, 75, 59
1, 214870, Note_off_c, 0, 70, 58
1, 214966, Note_on_c, 0, 39, 51
1, 215023, Note_on_c, 0, 77, 63
1, 215032, Control_c, 0, 64, 96
1, 215037, Note_on_c, 0, 69, 45
1, 215043, Note_on_c, 0, 73, 52
1, 215047, Control_c, 0, 64, 74
1, 215062, Control_c, 0, 64, 0
1, 215136, Control_c, 0, 64, 36
1, 215151, Control_c, 0, 64, 59
1, 215165, Control_c, 0, 64, 66
1, 215180, Control_c, 0, 64, 71
1, 215195, Control_c, 0, 64, 76
1, 215210, Control_c, 0, 64, 81
1, 215225, Control_c, 0, 64, 86
1, 215240, Control_c, 0, 64, 92
1, 215254, Control_c, 0, 64, 99
1, 215269, Control_c, 0, 64, 108
1, 215284, Control_c, 0, 64, 127
1, 215289, Note_off_c, 0, 69, 54
1, 215385, Note_off_c, 0, 39, 60
1, 215402, Note_on_c, 0, 51, 60
1, 215439, Note_off_c, 0, 51, 64
1, 215455, Note_off_c, 0, 73, 59
1, 215484, Note_off_c, 0, 77, 22
1, 215504, Note_on_c, 0, 72, 58
1, 215514, Note_on_c, 0, 68, 45
1, 215587, Note_off_c, 0, 72, 62
1, 215596, Note_off_c, 0, 68, 54
1, 215597, Note_on_c, 0, 73, 60
1, 215598, Note_on_c, 0, 77, 66
1, 215625, Note_on_c, 0, 71, 53
1, 215646, Note_off_c, 0, 71, 61
1, 215651, Note_on_c, 0, 67, 21
1, 215689, Note_off_c, 0, 67, 44
1, 215809, Note_on_c, 0, 61, 61
1, 215856, Note_off_c, 0, 77, 49
1, 215877, Note_off_c, 0, 73, 63
1, 215890, Note_off_c, 0, 61, 58
1, 215901, Note_on_c, 0, 66, 57
1, 215913, Note_on_c, 0, 70, 52
1, 215988, Note_on_c, 0, 51, 46
1, 215997, Note_on_c, 0, 77, 61
1, 216001, Note_off_c, 0, 66, 58
1, 216006, Note_off_c, 0, 70, 60
1, 216015, Note_on_c, 0, 73, 53
1, 216049, Note_off_c, 0, 51, 59
1, 216207, Note_on_c, 0, 39, 61
1, 216221, Note_off_c, 0, 77, 30
1, 216280, Note_off_c, 0, 39, 60
1, 216332, Note_off_c, 0, 73, 61
1, 216376, Note_on_c, 0, 67, 55
1, 216387, Note_on_c, 0, 71, 45
1, 216500, Control_c, 0, 64, 119
1, 216515, Control_c, 0, 64, 89
1, 216530, Control_c, 0, 64, 69
1, 216530, Note_on_c, 0, 32, 51
1, 216545, Control_c, 0, 64, 0
1, 216556, Note_off_c, 0, 67, 59
1, 216560, Note_off_c, 0, 71, 51
1, 216590, Control_c, 0, 64, 64
1, 216597, Note_on_c, 0, 72, 54
1, 216598, Note_on_c, 0, 77, 61
1, 216605, Control_c, 0, 64, 72
1, 216620, Control_c, 0, 64, 82
1, 216635, Control_c, 0, 64, 92
1, 216635, Note_off_c, 0, 72, 66
1, 216644, Note_off_c, 0, 32, 58
1, 216648, Note_off_c, 0, 77, 59
1, 216650, Control_c, 0, 64, 98
1, 216664, Control_c, 0, 64, 103
1, 216679, Control_c, 0, 64, 108
1, 216694, Control_c, 0, 64, 124
1, 216709, Control_c, 0, 64, 127
1, 216925, Note_on_c, 0, 50, 55
1, 216929, Note_on_c, 0, 44, 43
1, 216964, Note_off_c, 0, 50, 64
1, 216966, Note_on_c, 0, 56, 63
1, 217016, Note_off_c, 0, 56, 65
1, 217025, Note_on_c, 0, 60, 63
1, 217054, Note_off_c, 0, 60, 65
1, 217119, Note_on_c, 0, 65, 78
1, 217146, Note_on_c, 0, 51, 50
1, 217174, Note_off_c, 0, 65, 61
1, 217180, Note_on_c, 0, 68, 67
1, 217234, Control_c, 0, 67, 112
1, 217243, Note_on_c, 0, 72, 71
1, 217249, Control_c, 0, 67, 81
1, 217264, Control_c, 0, 67, 45
1, 217269, Note_off_c, 0, 68, 62
1, 217278, Control_c, 0, 67, 0
1, 217315, Note_on_c, 0, 65, 73
1, 217316, Note_off_c, 0, 44, 47
1, 217327, Note_on_c, 0, 56, 62
1, 217333, Note_off_c, 0, 51, 60
1, 217335, Note_off_c, 0, 72, 62
1, 217357, Note_off_c, 0, 56, 66
1, 217360, Note_off_c, 0, 65, 64
1, 217389, Note_on_c, 0, 62, 61
1, 217454, Note_on_c, 0, 68, 78
1, 217466, Note_off_c, 0, 62, 59
1, 217526, Note_off_c, 0, 68, 64
1, 217527, Note_on_c, 0, 72, 77
1, 217537, Note_on_c, 0, 63, 50
1, 217583, Note_on_c, 0, 77, 71
1, 217583, Note_off_c, 0, 72, 65
1, 217625, Note_off_c, 0, 77, 62
1, 217660, Note_on_c, 0, 74, 74
1, 217729, Note_on_c, 0, 75, 66
1, 217734, Note_off_c, 0, 74, 62
1, 217741, Note_on_c, 0, 80, 79
1, 217752, Note_off_c, 0, 75, 67
1, 217789, Note_off_c, 0, 63, 60
1, 217809, Note_on_c, 0, 84, 74
1, 217850, Note_off_c, 0, 80, 64
1, 217903, Note_on_c, 0, 89, 84
1, 217911, Note_off_c, 0, 84, 64
1, 218054, Note_on_c, 0, 49, 64
1, 218057, Control_c, 0, 64, 113
1, 218063, Note_on_c, 0, 88, 82
1, 218067, Note_on_c, 0, 83, 78
1, 218071, Control_c, 0, 64, 81
1, 218086, Control_c, 0, 64, 28
1, 218101, Control_c, 0, 64, 0
1, 218121, Note_off_c, 0, 89, 63
1, 218160, Control_c, 0, 64, 53
1, 218176, Control_c, 0, 64, 67
1, 218191, Control_c, 0, 64, 80
1, 218206, Note_off_c, 0, 83, 65
1, 218206, Control_c, 0, 64, 99
1, 218220, Control_c, 0, 64, 127
1, 218316, Note_on_c, 0, 56, 65
1, 218337, Note_off_c, 0, 49, 62
1, 218391, Note_on_c, 0, 77, 71
1, 218392, Note_off_c, 0, 88, 64
1, 218399, Note_on_c, 0, 80, 70
1, 218465, Note_on_c, 0, 88, 81
1, 218468, Note_on_c, 0, 65, 70
1, 218468, Note_off_c, 0, 77, 56
1, 218471, Note_on_c, 0, 83, 76
1, 218477, Note_off_c, 0, 80, 62
1, 218479, Note_off_c, 0, 56, 64
1, 218525, Note_off_c, 0, 65, 64
1, 218652, Note_off_c, 0, 88, 62
1, 218657, Note_on_c, 0, 74, 68
1, 218659, Note_on_c, 0, 71, 62
1, 218712, Note_off_c, 0, 74, 61
1, 218712, Note_off_c, 0, 83, 66
1, 218724, Note_off_c, 0, 71, 62
1, 218742, Note_on_c, 0, 79, 69
1, 218746, Note_on_c, 0, 76, 73
1, 218839, Note_on_c, 0, 85, 76
1, 218840, Note_on_c, 0, 82, 69
1, 218840, Note_off_c, 0, 79, 64
1, 218852, Note_off_c, 0, 76, 62
1, 219091, Note_off_c, 0, 85, 60
1, 219114, Note_off_c, 0, 82, 64
1, 219133, Note_on_c, 0, 74, 60
1, 219137, Note_on_c, 0, 77, 55
1, 219203, Note_on_c, 0, 46, 54
1, 219206, Note_on_c, 0, 83, 78
1, 219207, Control_c, 0, 64, 109
1, 219222, Control_c, 0, 64, 85
1, 219222, Note_off_c, 0, 77, 58
1, 219223, Note_off_c, 0, 74, 35
1, 219228, Note_on_c, 0, 79, 66
1, 219237, Control_c, 0, 64, 66
1, 219251, Control_c, 0, 64, 0
1, 219325, Control_c, 0, 64, 53
1, 219340, Control_c, 0, 64, 64
1, 219355, Control_c, 0, 64, 69
1, 219370, Control_c, 0, 64, 78
1, 219384, Control_c, 0, 64, 86
1, 219395, Note_on_c, 0, 56, 55
1, 219399, Control_c, 0, 64, 92
1, 219403, Note_off_c, 0, 46, 62
1, 219414, Control_c, 0, 64, 98
1, 219429, Control_c, 0, 64, 107
1, 219451, Control_c, 0, 64, 127
1, 219456, Note_off_c, 0, 83, 57
1, 219466, Note_off_c, 0, 79, 62
1, 219480, Note_on_c, 0, 74, 54
1, 219498, Note_on_c, 0, 76, 57
1, 219540, Note_off_c, 0, 74, 61
1, 219541, Note_off_c, 0, 56, 61
1, 219561, Note_off_c, 0, 76, 65
1, 219565, Note_on_c, 0, 62, 45
1, 219573, Note_on_c, 0, 83, 65
1, 219580, Note_on_c, 0, 79, 67
1, 219725, Note_off_c, 0, 83, 37
1, 219760, Note_on_c, 0, 68, 50
1, 219770, Note_off_c, 0, 62, 38
1, 219790, Note_off_c, 0, 68, 63
1, 219803, Note_off_c, 0, 79, 63
1, 219839, Note_on_c, 0, 74, 36
1, 219854, Note_on_c, 0, 71, 51
1, 219937, Note_off_c, 0, 71, 58
1, 219959, Note_on_c, 0, 79, 58
1, 219960, Note_off_c, 0, 74, 49
1, 219964, Note_on_c, 0, 76, 51
1, 220274, Note_off_c, 0, 76, 60
1, 220295, Note_on_c, 0, 70, 53
1, 220313, Note_on_c, 0, 75, 49
1, 220369, Note_off_c, 0, 75, 54
1, 220378, Note_off_c, 0, 79, 29
1, 220390, Note_off_c, 0, 70, 57
1, 220461, Note_on_c, 0, 39, 48
1, 220531, Note_on_c, 0, 77, 56
1, 220537, Note_on_c, 0, 69, 43
1, 220554, Note_on_c, 0, 73, 55
1, 220555, Control_c, 0, 64, 105
1, 220571, Control_c, 0, 64, 86
1, 220586, Control_c, 0, 64, 68
1, 220601, Control_c, 0, 64, 0
1, 220645, Control_c, 0, 64, 50
1, 220660, Control_c, 0, 64, 64
1, 220675, Control_c, 0, 64, 70
1, 220690, Control_c, 0, 64, 78
1, 220704, Control_c, 0, 64, 89
1, 220719, Control_c, 0, 64, 97
1, 220734, Control_c, 0, 64, 104
1, 220748, Control_c, 0, 64, 115
1, 220763, Control_c, 0, 64, 127
1, 220769, Note_off_c, 0, 69, 56
1, 220862, Note_off_c, 0, 39, 60
1, 220886, Note_on_c, 0, 51, 57
1, 220920, Note_off_c, 0, 51, 64
1, 220960, Note_off_c, 0, 73, 60
1, 220973, Note_off_c, 0, 77, 25
1, 220978, Control_c, 0, 67, 8
1, 220993, Control_c, 0, 67, 13
1, 221008, Control_c, 0, 67, 20
1, 221012, Note_on_c, 0, 72, 58
1, 221023, Note_on_c, 0, 68, 41
1, 221023, Control_c, 0, 67, 32
1, 221037, Control_c, 0, 67, 49
1, 221052, Control_c, 0, 67, 73
1, 221067, Control_c, 0, 67, 95
1, 221082, Note_off_c, 0, 68, 54
1, 221082, Control_c, 0, 67, 118
1, 221097, Note_off_c, 0, 72, 63
1, 221097, Control_c, 0, 67, 127
1, 221105, Note_on_c, 0, 73, 54
1, 221105, Note_on_c, 0, 77, 54
1, 221109, Note_on_c, 0, 71, 58
1, 221127, Note_on_c, 0, 67, 38
1, 221131, Note_off_c, 0, 71, 65
1, 221155, Note_off_c, 0, 67, 53
1, 221313, Note_on_c, 0, 61, 53
1, 221362, Note_off_c, 0, 73, 60
1, 221380, Note_off_c, 0, 77, 33
1, 221387, Note_on_c, 0, 66, 57
1, 221390, Note_on_c, 0, 70, 53
1, 221407, Note_off_c, 0, 61, 61
1, 221453, Note_off_c, 0, 66, 58
1, 221473, Note_on_c, 0, 51, 50
1, 221478, Note_off_c, 0, 70, 60
1, 221482, Note_on_c, 0, 77, 64
1, 221493, Note_on_c, 0, 73, 52
1, 221524, Note_off_c, 0, 51, 58
1, 221672, Note_on_c, 0, 39, 56
1, 221673, Note_off_c, 0, 77, 38
1, 221740, Note_off_c, 0, 39, 56
1, 221745, Note_off_c, 0, 73, 55
1, 221815, Note_on_c, 0, 71, 44
1, 221815, Control_c, 0, 64, 116
1, 221825, Note_on_c, 0, 67, 45
1, 221830, Control_c, 0, 64, 89
1, 221845, Control_c, 0, 64, 69
1, 221860, Control_c, 0, 64, 0
1, 221871, Note_off_c, 0, 67, 58
1, 221890, Control_c, 0, 64, 53
1, 221891, Note_on_c, 0, 36, 61
1, 221894, Note_off_c, 0, 71, 54
1, 221903, Note_on_c, 0, 72, 53
1, 221904, Control_c, 0, 64, 67
1, 221905, Note_on_c, 0, 77, 63
1, 221919, Control_c, 0, 64, 76
1, 221928, Note_off_c, 0, 72, 59
1, 221929, Note_off_c, 0, 36, 65
1, 221934, Control_c, 0, 64, 87
1, 221939, Note_off_c, 0, 77, 63
1, 221949, Control_c, 0, 64, 94
1, 221964, Control_c, 0, 64, 98
1, 221978, Control_c, 0, 64, 103
1, 221993, Control_c, 0, 64, 109
1, 222008, Control_c, 0, 64, 121
1, 222023, Control_c, 0, 64, 127
1, 222152, Note_on_c, 0, 55, 61
1, 222192, Note_on_c, 0, 75, 19
1, 222201, Control_c, 0, 64, 118
1, 222215, Note_on_c, 0, 76, 55
1, 222216, Control_c, 0, 64, 96
1, 222231, Control_c, 0, 64, 81
1, 222233, Note_off_c, 0, 75, 43
1, 222246, Control_c, 0, 64, 67
1, 222261, Control_c, 0, 64, 28
1, 222275, Control_c, 0, 64, 0
1, 222277, Note_on_c, 0, 66, 68
1, 222292, Note_off_c, 0, 76, 63
1, 222324, Note_off_c, 0, 55, 59
1, 222327, Note_off_c, 0, 66, 58
1, 222347, Note_on_c, 0, 72, 71
1, 222355, Note_on_c, 0, 67, 56
1, 222383, Note_off_c, 0, 67, 65
1, 222404, Note_off_c, 0, 72, 63
1, 222416, Note_on_c, 0, 75, 67
1, 222510, Note_off_c, 0, 75, 63
1, 222513, Note_on_c, 0, 78, 59
1, 222608, Note_on_c, 0, 76, 44
1, 222609, Control_c, 0, 64, 48
1, 222612, Note_off_c, 0, 78, 58
1, 222620, Note_on_c, 0, 79, 52
1, 222624, Control_c, 0, 64, 63
1, 222629, Note_on_c, 0, 84, 51
1, 222639, Control_c, 0, 64, 68
1, 222653, Control_c, 0, 64, 75
1, 222668, Control_c, 0, 64, 84
1, 222671, Note_off_c, 0, 84, 66
1, 222683, Control_c, 0, 64, 95
1, 222684, Note_off_c, 0, 79, 55
1, 222698, Note_off_c, 0, 76, 61
1, 222698, Control_c, 0, 64, 108
1, 222713, Control_c, 0, 64, 127
1, 223040, Control_c, 0, 64, 108
1, 223055, Control_c, 0, 64, 100
1, 223070, Control_c, 0, 64, 94
1, 223085, Control_c, 0, 64, 87
1, 223099, Control_c, 0, 64, 79
1, 223114, Control_c, 0, 64, 70
1, 223129, Control_c, 0, 64, 63
1, 223143, Control_c, 0, 64, 56
1, 223158, Control_c, 0, 64, 56
1, 223173, Control_c, 0, 64, 56
1, 223299, Control_c, 0, 64, 57
1, 223343, Control_c, 0, 64, 57
1, 223358, Control_c, 0, 64, 58
1, 223373, Control_c, 0, 64, 58
1, 223388, Control_c, 0, 64, 59
1, 223432, Control_c, 0, 64, 59
1, 223447, Control_c, 0, 64, 60
1, 223462, Control_c, 0, 64, 61
1, 223476, Control_c, 0, 64, 62
1, 223491, Control_c, 0, 64, 62
1, 223506, Control_c, 0, 64, 63
1, 223521, Control_c, 0, 64, 63
1, 223550, Control_c, 0, 64, 64
1, 223565, Control_c, 0, 64, 64
1, 223580, Control_c, 0, 64, 65
1, 223595, Control_c, 0, 64, 66
1, 223610, Control_c, 0, 64, 66
1, 223625, Control_c, 0, 64, 67
1, 223640, Control_c, 0, 64, 68
1, 223655, Control_c, 0, 64, 69
1, 223658, Note_on_c, 0, 64, 44
1, 223669, Control_c, 0, 64, 73
1, 223672, Note_on_c, 0, 60, 30
1, 223684, Control_c, 0, 64, 77
1, 223699, Control_c, 0, 64, 81
1, 223714, Control_c, 0, 64, 84
1, 223729, Control_c, 0, 64, 87
1, 223743, Control_c, 0, 64, 90
1, 223758, Control_c, 0, 64, 94
1, 223774, Control_c, 0, 64, 100
1, 223789, Control_c, 0, 64, 109
1, 223804, Control_c, 0, 64, 127
1, 223922, Control_c, 0, 67, 121
1, 223937, Control_c, 0, 67, 114
1, 223959, Control_c, 0, 67, 106
1, 223974, Control_c, 0, 67, 94
1, 223989, Control_c, 0, 67, 76
1, 224003, Control_c, 0, 67, 61
1, 224012, Note_on_c, 0, 55, 44
1, 224018, Control_c, 0, 67, 49
1, 224033, Control_c, 0, 67, 41
1, 224048, Control_c, 0, 67, 35
1, 224063, Control_c, 0, 67, 27
1, 224072, Note_off_c, 0, 60, 38
1, 224078, Control_c, 0, 67, 17
1, 224087, Note_off_c, 0, 64, 29
1, 224092, Control_c, 0, 67, 0
1, 224119, Note_on_c, 0, 52, 46
1, 224123, Note_on_c, 0, 59, 41
1, 224215, Note_off_c, 0, 52, 57
1, 224216, Note_on_c, 0, 64, 56
1, 224227, Note_on_c, 0, 60, 47
1, 224262, Note_off_c, 0, 59, 60
1, 224319, Note_off_c, 0, 55, 50
1, 224423, Note_on_c, 0, 48, 59
1, 224497, Note_on_c, 0, 58, 67
1, 224509, Note_off_c, 0, 60, 56
1, 224512, Note_on_c, 0, 52, 54
1, 224517, Note_off_c, 0, 64, 60
1, 224598, Note_on_c, 0, 64, 69
1, 224600, Note_on_c, 0, 60, 71
1, 224629, Note_off_c, 0, 58, 45
1, 224713, Note_off_c, 0, 52, 29
1, 224773, Note_on_c, 0, 42, 70
1, 224773, Note_off_c, 0, 48, 62
1, 224824, Note_off_c, 0, 60, 60
1, 224849, Note_on_c, 0, 57, 70
1, 224853, Note_on_c, 0, 52, 61
1, 224868, Note_off_c, 0, 64, 55
1, 224973, Control_c, 0, 64, 103
1, 224978, Note_on_c, 0, 37, 75
1, 224984, Note_off_c, 0, 42, 61
1, 224988, Note_on_c, 0, 64, 67
1, 224988, Control_c, 0, 64, 79
1, 224992, Note_off_c, 0, 52, 52
1, 225002, Control_c, 0, 64, 55
1, 225004, Note_on_c, 0, 63, 72
1, 225009, Note_off_c, 0, 57, 62
1, 225017, Control_c, 0, 64, 0
1, 225091, Control_c, 0, 64, 51
1, 225106, Control_c, 0, 64, 64
1, 225121, Control_c, 0, 64, 69
1, 225136, Control_c, 0, 64, 73
1, 225151, Control_c, 0, 64, 78
1, 225166, Control_c, 0, 64, 85
1, 225181, Control_c, 0, 64, 91
1, 225189, Note_off_c, 0, 64, 61
1, 225195, Control_c, 0, 64, 98
1, 225196, Note_on_c, 0, 61, 72
1, 225205, Note_on_c, 0, 44, 69
1, 225208, Note_off_c, 0, 37, 61
1, 225210, Control_c, 0, 64, 108
1, 225225, Control_c, 0, 64, 127
1, 225270, Note_off_c, 0, 44, 62
1, 225331, Note_off_c, 0, 61, 62
1, 225336, Note_off_c, 0, 63, 37
1, 225350, Note_on_c, 0, 55, 59
1, 225354, Note_on_c, 0, 59, 70
1, 225389, Note_off_c, 0, 55, 62
1, 225408, Note_on_c, 0, 61, 69
1, 225422, Note_off_c, 0, 59, 60
1, 225477, Note_on_c, 0, 63, 70
1, 225488, Note_off_c, 0, 61, 63
1, 225517, Note_off_c, 0, 63, 64
1, 225562, Note_on_c, 0, 54, 65
1, 225572, Note_on_c, 0, 63, 83
1, 225578, Note_on_c, 0, 58, 60
1, 225589, Control_c, 0, 64, 97
1, 225604, Control_c, 0, 64, 77
1, 225607, Note_on_c, 0, 64, 31
1, 225619, Control_c, 0, 64, 55
1, 225634, Control_c, 0, 64, 0
1, 225678, Control_c, 0, 64, 45
1, 225681, Note_off_c, 0, 58, 63
1, 225693, Control_c, 0, 64, 64
1, 225708, Control_c, 0, 64, 69
1, 225723, Control_c, 0, 64, 74
1, 225738, Control_c, 0, 64, 81
1, 225752, Note_off_c, 0, 64, 39
1, 225752, Control_c, 0, 64, 89
1, 225759, Note_off_c, 0, 54, 60
1, 225767, Control_c, 0, 64, 99
1, 225769, Note_on_c, 0, 61, 75
1, 225780, Note_on_c, 0, 53, 62
1, 225782, Control_c, 0, 64, 109
1, 225790, Note_on_c, 0, 57, 53
1, 225797, Control_c, 0, 64, 127
1, 225804, Note_off_c, 0, 63, 56
1, 225817, Note_off_c, 0, 53, 64
1, 225831, Note_off_c, 0, 57, 61
1, 225949, Note_off_c, 0, 61, 60
1, 225952, Note_on_c, 0, 56, 76
1, 225977, Note_off_c, 0, 56, 71
1, 226172, Note_on_c, 0, 76, 79
1, 226188, Note_on_c, 0, 72, 71
1, 226235, Control_c, 0, 64, 117
1, 226249, Control_c, 0, 64, 85
1, 226264, Control_c, 0, 64, 65
1, 226279, Control_c, 0, 64, 0
1, 226323, Control_c, 0, 64, 32
1, 226338, Control_c, 0, 64, 65
1, 226353, Control_c, 0, 64, 73
1, 226364, Note_on_c, 0, 67, 66
1, 226367, Control_c, 0, 64, 84
1, 226382, Control_c, 0, 64, 92
1, 226397, Control_c, 0, 64, 101
1, 226412, Control_c, 0, 64, 122
1, 226425, Note_off_c, 0, 72, 58
1, 226427, Control_c, 0, 64, 127
1, 226450, Note_on_c, 0, 71, 68
1, 226458, Note_on_c, 0, 64, 61
1, 226468, Note_off_c, 0, 76, 60
1, 226535, Note_off_c, 0, 67, 54
1, 226548, Note_on_c, 0, 72, 79
1, 226550, Note_on_c, 0, 76, 84
1, 226565, Note_off_c, 0, 71, 59
1, 226589, Note_off_c, 0, 64, 40
1, 226690, Note_on_c, 0, 60, 63
1, 226782, Note_on_c, 0, 70, 73
1, 226794, Note_off_c, 0, 72, 61
1, 226796, Note_on_c, 0, 64, 68
1, 226805, Note_off_c, 0, 76, 62
1, 226886, Note_on_c, 0, 76, 82
1, 226889, Note_on_c, 0, 72, 87
1, 226905, Note_off_c, 0, 70, 51
1, 227007, Note_off_c, 0, 64, 58
1, 227034, Note_on_c, 0, 54, 70
1, 227036, Note_off_c, 0, 60, 59
1, 227126, Note_off_c, 0, 72, 61
1, 227127, Note_on_c, 0, 69, 78
1, 227128, Note_on_c, 0, 64, 72
1, 227165, Note_off_c, 0, 76, 61
1, 227253, Note_on_c, 0, 47, 73
1, 227291, Note_off_c, 0, 54, 57
1, 227324, Control_c, 0, 64, 98
1, 227336, Note_on_c, 0, 76, 86
1, 227339, Control_c, 0, 64, 76
1, 227342, Note_on_c, 0, 72, 88
1, 227344, Note_off_c, 0, 69, 62
1, 227354, Control_c, 0, 64, 0
1, 227369, Note_off_c, 0, 64, 54
1, 227442, Control_c, 0, 64, 54
1, 227457, Control_c, 0, 64, 68
1, 227472, Control_c, 0, 64, 74
1, 227487, Control_c, 0, 64, 81
1, 227502, Control_c, 0, 64, 86
1, 227516, Control_c, 0, 64, 91
1, 227531, Control_c, 0, 64, 99
1, 227546, Control_c, 0, 64, 109
1, 227560, Control_c, 0, 64, 127
1, 227561, Note_on_c, 0, 71, 79
1, 227572, Note_on_c, 0, 64, 66
1, 227575, Note_on_c, 0, 56, 72
1, 227583, Note_off_c, 0, 72, 62
1, 227609, Note_off_c, 0, 64, 60
1, 227629, Note_off_c, 0, 71, 64
1, 227733, Note_on_c, 0, 64, 65
1, 227754, Note_on_c, 0, 68, 77
1, 227804, Note_off_c, 0, 76, 30
1, 227810, Note_on_c, 0, 71, 71
1, 227819, Note_off_c, 0, 64, 39
1, 227849, Note_off_c, 0, 68, 62
1, 227873, Note_on_c, 0, 72, 77
1, 227891, Note_off_c, 0, 71, 64
1, 227915, Note_off_c, 0, 72, 62
1, 227960, Note_on_c, 0, 72, 75
1, 227968, Note_on_c, 0, 76, 75
1, 228166, Note_on_c, 0, 71, 79
1, 228326, Note_off_c, 0, 72, 0
1, 228352, Note_off_c, 0, 56, 39
1, 228353, Note_off_c, 0, 47, 36
1, 228362, Note_off_c, 0, 76, 45
1, 228382, Poly_aftertouch_c, 0, 72, 0
1, 228383, Note_on_c, 0, 68, 78
1, 228384, Note_on_c, 0, 64, 66
1, 228385, Note_off_c, 0, 71, 64
1, 228414, Note_off_c, 0, 64, 66
1, 228440, Note_off_c, 0, 68, 65
1, 228655, Note_on_c, 0, 47, 56
1, 228673, Control_c, 0, 64, 109
1, 228687, Control_c, 0, 64, 87
1, 228702, Control_c, 0, 64, 69
1, 228717, Control_c, 0, 64, 0
1, 228723, Note_on_c, 0, 80, 60
1, 228730, Note_on_c, 0, 77, 50
1, 228761, Control_c, 0, 64, 54
1, 228776, Control_c, 0, 64, 65
1, 228791, Control_c, 0, 64, 71
1, 228806, Control_c, 0, 64, 79
1, 228819, Note_off_c, 0, 47, 62
1, 228821, Control_c, 0, 64, 86
1, 228835, Control_c, 0, 64, 91
1, 228850, Control_c, 0, 64, 97
1, 228865, Control_c, 0, 64, 104
1, 228880, Control_c, 0, 64, 114
1, 228895, Control_c, 0, 64, 127
1, 229011, Note_on_c, 0, 65, 66
1, 229012, Note_on_c, 0, 60, 46
1, 229031, Note_on_c, 0, 57, 50
1, 229092, Note_off_c, 0, 77, 62
1, 229093, Note_on_c, 0, 68, 60
1, 229094, Note_off_c, 0, 80, 51
1, 229098, Note_on_c, 0, 72, 67
1, 229193, Note_on_c, 0, 80, 76
1, 229199, Note_on_c, 0, 77, 73
1, 229201, Note_off_c, 0, 72, 63
1, 229237, Note_off_c, 0, 68, 53
1, 229265, Note_off_c, 0, 65, 61
1, 229341, Note_on_c, 0, 65, 61
1, 229345, Note_on_c, 0, 61, 61
1, 229420, Note_on_c, 0, 73, 69
1, 229423, Note_off_c, 0, 77, 59
1, 229426, Note_off_c, 0, 80, 60
1, 229431, Note_on_c, 0, 69, 71
1, 229460, Note_off_c, 0, 65, 56
1, 229469, Note_off_c, 0, 61, 39
1, 229511, Note_on_c, 0, 80, 80
1, 229512, Note_on_c, 0, 77, 70
1, 229530, Note_off_c, 0, 73, 57
1, 229550, Note_off_c, 0, 69, 55
1, 229613, Note_off_c, 0, 57, 58
1, 229618, Note_on_c, 0, 65, 62
1, 229629, Note_on_c, 0, 62, 61
1, 229650, Note_off_c, 0, 60, 22
1, 229653, Note_off_c, 0, 65, 62
1, 229664, Note_off_c, 0, 62, 62
1, 229717, Note_on_c, 0, 69, 79
1, 229717, Note_on_c, 0, 76, 75
1, 229743, Note_off_c, 0, 80, 54
1, 229751, Note_off_c, 0, 77, 56
1, 229803, Note_on_c, 0, 51, 62
1, 229822, Control_c, 0, 64, 91
1, 229837, Control_c, 0, 64, 68
1, 229852, Control_c, 0, 64, 0
1, 229859, Note_on_c, 0, 80, 76
1, 229863, Note_off_c, 0, 76, 64
1, 229897, Control_c, 0, 64, 62
1, 229911, Control_c, 0, 64, 73
1, 229933, Control_c, 0, 64, 85
1, 229948, Control_c, 0, 64, 99
1, 229962, Control_c, 0, 64, 118
1, 229973, Note_off_c, 0, 69, 45
1, 229977, Control_c, 0, 64, 127
1, 229977, Control_c, 0, 67, 9
1, 229992, Control_c, 0, 67, 12
1, 230007, Control_c, 0, 67, 17
1, 230022, Control_c, 0, 67, 23
1, 230037, Control_c, 0, 67, 38
1, 230052, Control_c, 0, 67, 58
1, 230055, Note_on_c, 0, 78, 76
1, 230061, Note_on_c, 0, 75, 64
1, 230063, Note_on_c, 0, 63, 60
1, 230067, Note_off_c, 0, 80, 60
1, 230067, Control_c, 0, 67, 83
1, 230067, Note_on_c, 0, 58, 59
1, 230081, Control_c, 0, 67, 110
1, 230087, Note_off_c, 0, 75, 67
1, 230096, Control_c, 0, 67, 127
1, 230106, Note_off_c, 0, 78, 63
1, 230145, Note_off_c, 0, 63, 60
1, 230162, Note_off_c, 0, 58, 60
1, 230195, Note_off_c, 0, 51, 60
1, 230243, Note_on_c, 0, 73, 73
1, 230249, Note_on_c, 0, 66, 66
1, 230284, Note_off_c, 0, 73, 57
1, 230302, Note_off_c, 0, 66, 46
1, 230497, Control_c, 0, 64, 102
1, 230499, Note_on_c, 0, 47, 44
1, 230512, Control_c, 0, 64, 83
1, 230527, Control_c, 0, 64, 66
1, 230541, Control_c, 0, 64, 0
1, 230568, Note_on_c, 0, 77, 45
1, 230569, Note_on_c, 0, 80, 61
1, 230615, Control_c, 0, 64, 58
1, 230630, Control_c, 0, 64, 67
1, 230645, Control_c, 0, 64, 75
1, 230654, Note_off_c, 0, 47, 62
1, 230660, Control_c, 0, 64, 84
1, 230682, Control_c, 0, 64, 90
1, 230697, Control_c, 0, 64, 96
1, 230711, Control_c, 0, 64, 102
1, 230726, Control_c, 0, 64, 113
1, 230741, Control_c, 0, 64, 127
1, 230968, Note_on_c, 0, 60, 40
1, 230979, Note_on_c, 0, 57, 41
1, 230987, Note_on_c, 0, 65, 40
1, 231050, Note_off_c, 0, 80, 44
1, 231053, Note_on_c, 0, 68, 47
1, 231062, Note_on_c, 0, 72, 56
1, 231062, Note_off_c, 0, 77, 42
1, 231125, Note_off_c, 0, 72, 60
1, 231146, Note_on_c, 0, 80, 55
1, 231168, Note_on_c, 0, 77, 53
1, 231170, Note_off_c, 0, 68, 36
1, 231190, Note_off_c, 0, 65, 38
1, 231321, Note_on_c, 0, 65, 50
1, 231322, Note_on_c, 0, 61, 52
1, 231370, Note_off_c, 0, 80, 56
1, 231381, Note_off_c, 0, 77, 59
1, 231398, Note_on_c, 0, 73, 50
1, 231405, Note_on_c, 0, 69, 44
1, 231478, Note_off_c, 0, 65, 53
1, 231480, Note_off_c, 0, 61, 57
1, 231505, Note_on_c, 0, 80, 56
1, 231508, Note_on_c, 0, 77, 61
1, 231514, Note_off_c, 0, 69, 57
1, 231544, Note_off_c, 0, 73, 38
1, 231593, Note_off_c, 0, 57, 62
1, 231634, Note_on_c, 0, 62, 46
1, 231636, Note_on_c, 0, 65, 43
1, 231638, Note_off_c, 0, 60, 12
1, 231663, Note_off_c, 0, 62, 61
1, 231665, Note_off_c, 0, 65, 54
1, 231690, Note_off_c, 0, 77, 58
1, 231700, Note_off_c, 0, 80, 53
1, 231709, Note_on_c, 0, 76, 56
1, 231722, Note_on_c, 0, 69, 55
1, 231802, Control_c, 0, 64, 116
1, 231816, Note_on_c, 0, 51, 57
1, 231817, Control_c, 0, 64, 89
1, 231831, Control_c, 0, 64, 71
1, 231846, Control_c, 0, 64, 0
1, 231855, Note_off_c, 0, 76, 59
1, 231864, Note_on_c, 0, 80, 58
1, 231891, Control_c, 0, 64, 52
1, 231906, Control_c, 0, 64, 66
1, 231921, Control_c, 0, 64, 74
1, 231936, Control_c, 0, 64, 83
1, 231950, Control_c, 0, 64, 89
1, 231965, Control_c, 0, 64, 94
1, 231980, Control_c, 0, 64, 99
1, 231995, Control_c, 0, 64, 104
1, 232010, Control_c, 0, 64, 110
1, 232024, Control_c, 0, 64, 116
1, 232039, Control_c, 0, 64, 119
1, 232054, Control_c, 0, 64, 119
1, 232063, Note_off_c, 0, 80, 55
1, 232066, Note_on_c, 0, 63, 47
1, 232068, Note_off_c, 0, 69, 49
1, 232069, Control_c, 0, 64, 120
1, 232070, Note_on_c, 0, 75, 52
1, 232071, Note_on_c, 0, 58, 46
1, 232071, Note_on_c, 0, 78, 60
1, 232083, Control_c, 0, 64, 122
1, 232097, Note_off_c, 0, 75, 62
1, 232098, Control_c, 0, 64, 127
1, 232106, Note_off_c, 0, 78, 64
1, 232219, Note_off_c, 0, 63, 54
1, 232278, Note_off_c, 0, 58, 45
1, 232281, Note_off_c, 0, 51, 44
1, 232314, Note_on_c, 0, 73, 60
1, 232337, Note_on_c, 0, 66, 27
1, 232354, Note_off_c, 0, 73, 59
1, 232375, Note_off_c, 0, 66, 56
1, 232386, Poly_aftertouch_c, 0, 70, 0
1, 232402, Poly_aftertouch_c, 0, 70, 0
1, 232431, Control_c, 0, 67, 121
1, 232446, Control_c, 0, 67, 110
1, 232461, Control_c, 0, 67, 93
1, 232476, Control_c, 0, 67, 77
1, 232490, Control_c, 0, 67, 61
1, 232505, Control_c, 0, 67, 47
1, 232520, Control_c, 0, 67, 37
1, 232535, Control_c, 0, 67, 28
1, 232551, Control_c, 0, 67, 21
1, 232566, Control_c, 0, 67, 10
1, 232580, Control_c, 0, 67, 0
1, 232587, Note_on_c, 0, 42, 51
1, 232669, Control_c, 0, 64, 100
1, 232680, Note_on_c, 0, 85, 68
1, 232684, Control_c, 0, 64, 81
1, 232694, Note_on_c, 0, 81, 60
1, 232699, Note_on_c, 0, 76, 40
1, 232699, Control_c, 0, 64, 66
1, 232714, Control_c, 0, 64, 15
1, 232729, Control_c, 0, 64, 24
1, 232743, Control_c, 0, 64, 57
1, 232758, Control_c, 0, 64, 66
1, 232773, Control_c, 0, 64, 72
1, 232788, Control_c, 0, 64, 81
1, 232802, Note_off_c, 0, 81, 62
1, 232803, Control_c, 0, 64, 90
1, 232818, Control_c, 0, 64, 97
1, 232833, Control_c, 0, 64, 105
1, 232847, Control_c, 0, 64, 121
1, 232862, Control_c, 0, 64, 127
1, 232872, Note_off_c, 0, 76, 64
1, 232952, Note_on_c, 0, 49, 58
1, 232968, Note_off_c, 0, 85, 53
1, 232981, Note_off_c, 0, 42, 55
1, 233062, Note_on_c, 0, 78, 48
1, 233064, Note_on_c, 0, 73, 40
1, 233093, Note_off_c, 0, 73, 56
1, 233146, Note_off_c, 0, 49, 56
1, 233152, Note_off_c, 0, 78, 63
1, 233157, Note_on_c, 0, 83, 69
1, 233160, Note_on_c, 0, 80, 61
1, 233165, Note_on_c, 0, 57, 49
1, 233167, Note_on_c, 0, 75, 55
1, 233247, Note_off_c, 0, 57, 63
1, 233292, Note_off_c, 0, 75, 59
1, 233337, Note_on_c, 0, 64, 65
1, 233345, Note_off_c, 0, 83, 58
1, 233371, Note_off_c, 0, 64, 62
1, 233387, Note_off_c, 0, 80, 64
1, 233426, Note_on_c, 0, 72, 61
1, 233432, Note_on_c, 0, 76, 59
1, 233456, Note_off_c, 0, 72, 64
1, 233517, Note_off_c, 0, 76, 64
1, 233525, Note_on_c, 0, 78, 58
1, 233527, Note_on_c, 0, 81, 90
1, 233538, Note_on_c, 0, 73, 69
1, 233555, Note_off_c, 0, 78, 65
1, 233595, Note_off_c, 0, 73, 62
1, 233663, Note_off_c, 0, 81, 47
1, 233692, Note_on_c, 0, 78, 33
1, 233746, Note_off_c, 0, 78, 52
1, 233799, Note_on_c, 0, 68, 60
1, 233808, Note_on_c, 0, 72, 63
1, 233899, Note_on_c, 0, 78, 70
1, 233900, Control_c, 0, 64, 106
1, 233906, Note_on_c, 0, 39, 61
1, 233906, Note_on_c, 0, 80, 77
1, 233915, Control_c, 0, 64, 82
1, 233929, Control_c, 0, 64, 64
1, 233936, Note_off_c, 0, 72, 53
1, 233944, Control_c, 0, 64, 0
1, 233989, Control_c, 0, 64, 52
1, 233996, Note_off_c, 0, 68, 44
1, 234003, Control_c, 0, 64, 67
1, 234018, Control_c, 0, 64, 75
1, 234033, Control_c, 0, 64, 86
1, 234048, Control_c, 0, 64, 97
1, 234062, Control_c, 0, 64, 108
1, 234076, Note_off_c, 0, 39, 62
1, 234077, Control_c, 0, 64, 127
1, 234093, Note_on_c, 0, 51, 69
1, 234118, Note_off_c, 0, 51, 66
1, 234157, Note_off_c, 0, 78, 62
1, 234162, Note_off_c, 0, 80, 62
1, 234162, Note_on_c, 0, 69, 52
1, 234165, Note_on_c, 0, 72, 64
1, 234233, Note_off_c, 0, 69, 63
1, 234251, Note_off_c, 0, 72, 64
1, 234258, Note_on_c, 0, 57, 59
1, 234259, Note_on_c, 0, 75, 61
1, 234264, Note_on_c, 0, 78, 69
1, 234325, Note_off_c, 0, 75, 61
1, 234375, Note_off_c, 0, 78, 63
1, 234453, Note_on_c, 0, 63, 52
1, 234460, Note_on_c, 0, 67, 52
1, 234499, Note_off_c, 0, 67, 61
1, 234514, Note_off_c, 0, 57, 54
1, 234534, Note_off_c, 0, 63, 59
1, 234543, Note_on_c, 0, 66, 58
1, 234562, Note_on_c, 0, 68, 59
1, 234656, Note_on_c, 0, 76, 60
1, 234665, Note_on_c, 0, 72, 61
1, 234677, Note_off_c, 0, 68, 57
1, 234695, Note_off_c, 0, 66, 35
1, 234978, Note_off_c, 0, 72, 56
1, 234987, Note_on_c, 0, 69, 53
1, 235135, Note_on_c, 0, 35, 53
1, 235205, Control_c, 0, 64, 104
1, 235219, Note_off_c, 0, 76, 37
1, 235220, Control_c, 0, 64, 87
1, 235221, Note_on_c, 0, 65, 49
1, 235221, Note_on_c, 0, 73, 57
1, 235234, Control_c, 0, 64, 69
1, 235235, Note_off_c, 0, 69, 54
1, 235249, Control_c, 0, 64, 0
1, 235353, Control_c, 0, 64, 64
1, 235368, Control_c, 0, 64, 71
1, 235382, Control_c, 0, 64, 79
1, 235396, Note_off_c, 0, 73, 62
1, 235397, Control_c, 0, 64, 88
1, 235412, Control_c, 0, 64, 99
1, 235426, Control_c, 0, 64, 119
1, 235441, Control_c, 0, 64, 127
1, 235544, Note_off_c, 0, 35, 50
1, 235564, Note_on_c, 0, 47, 50
1, 235573, Note_off_c, 0, 65, 52
1, 235604, Note_off_c, 0, 47, 61
1, 235683, Note_on_c, 0, 68, 54
1, 235790, Note_off_c, 0, 68, 62
1, 235811, Note_on_c, 0, 63, 55
1, 235813, Note_on_c, 0, 73, 53
1, 235815, Note_on_c, 0, 69, 54
1, 235831, Note_on_c, 0, 67, 23
1, 235842, Note_off_c, 0, 63, 64
1, 235868, Note_off_c, 0, 67, 48
1, 235924, Control_c, 0, 67, 12
1, 235939, Control_c, 0, 67, 21
1, 235954, Control_c, 0, 67, 35
1, 235969, Control_c, 0, 67, 55
1, 235984, Control_c, 0, 67, 79
1, 235999, Control_c, 0, 67, 106
1, 236013, Control_c, 0, 67, 126
1, 236026, Note_on_c, 0, 57, 51
1, 236028, Control_c, 0, 67, 127
1, 236051, Note_off_c, 0, 73, 32
1, 236061, Note_off_c, 0, 69, 60
1, 236105, Note_on_c, 0, 66, 54
1, 236126, Note_on_c, 0, 62, 45
1, 236148, Note_off_c, 0, 57, 53
1, 236210, Note_off_c, 0, 62, 47
1, 236213, Note_off_c, 0, 66, 60
1, 236236, Note_on_c, 0, 47, 44
1, 236240, Note_on_c, 0, 73, 54
1, 236246, Note_on_c, 0, 69, 53
1, 236270, Note_off_c, 0, 47, 62
1, 236495, Note_on_c, 0, 35, 50
1, 236526, Note_off_c, 0, 73, 30
1, 236545, Note_off_c, 0, 35, 57
1, 236571, Note_off_c, 0, 69, 62
1, 236614, Note_on_c, 0, 67, 50
1, 236616, Note_on_c, 0, 63, 48
1, 236791, Control_c, 0, 64, 96
1, 236806, Control_c, 0, 64, 77
1, 236815, Note_off_c, 0, 63, 49
1, 236821, Control_c, 0, 64, 62
1, 236836, Control_c, 0, 64, 0
1, 236839, Note_off_c, 0, 67, 61
1, 236848, Note_on_c, 0, 40, 44
1, 236855, Note_on_c, 0, 68, 53
1, 236859, Note_on_c, 0, 73, 44
1, 236866, Control_c, 0, 64, 61
1, 236880, Control_c, 0, 64, 69
1, 236893, Note_off_c, 0, 68, 64
1, 236895, Control_c, 0, 64, 79
1, 236903, Note_off_c, 0, 73, 61
1, 236910, Control_c, 0, 64, 93
1, 236925, Control_c, 0, 64, 104
1, 236940, Control_c, 0, 64, 111
1, 236954, Control_c, 0, 64, 127
1, 237107, Note_off_c, 0, 40, 38
1, 237135, Note_on_c, 0, 55, 52
1, 237143, Note_on_c, 0, 47, 51
1, 237179, Note_off_c, 0, 55, 59
1, 237189, Note_on_c, 0, 58, 52
1, 237227, Note_off_c, 0, 58, 64
1, 237229, Note_on_c, 0, 63, 63
1, 237283, Note_off_c, 0, 63, 62
1, 237304, Note_off_c, 0, 47, 61
1, 237331, Note_on_c, 0, 56, 59
1, 237373, Note_off_c, 0, 56, 60
1, 237391, Note_on_c, 0, 64, 48
1, 237394, Note_on_c, 0, 62, 48
1, 237406, Poly_aftertouch_c, 0, 59, 0
1, 237432, Note_off_c, 0, 62, 63
1, 237435, Note_off_c, 0, 64, 66
1, 237448, Note_on_c, 0, 68, 68
1, 237466, Control_c, 0, 67, 114
1, 237481, Control_c, 0, 67, 98
1, 237495, Control_c, 0, 67, 81
1, 237502, Note_off_c, 0, 68, 65
1, 237510, Control_c, 0, 67, 63
1, 237525, Control_c, 0, 67, 48
1, 237534, Note_on_c, 0, 59, 36
1, 237540, Control_c, 0, 67, 35
1, 237545, Note_on_c, 0, 67, 76
1, 237555, Control_c, 0, 67, 21
1, 237570, Control_c, 0, 67, 8
1, 237584, Control_c, 0, 67, 0
1, 237614, Note_off_c, 0, 67, 60
1, 237623, Note_on_c, 0, 70, 72
1, 237678, Note_on_c, 0, 75, 70
1, 237681, Note_off_c, 0, 70, 62
1, 237738, Note_off_c, 0, 75, 65
1, 237766, Note_on_c, 0, 71, 72
1, 237768, Note_on_c, 0, 64, 50
1, 237770, Note_off_c, 0, 59, 51
1, 237827, Note_off_c, 0, 71, 62
1, 237842, Note_on_c, 0, 76, 61
1, 237891, Note_on_c, 0, 79, 73
1, 237896, Note_off_c, 0, 76, 65
1, 237939, Poly_aftertouch_c, 0, 74, 0
1, 237942, Note_off_c, 0, 79, 62
1, 237945, Note_off_c, 0, 64, 63
1, 237960, Note_on_c, 0, 68, 61
1, 237982, Note_on_c, 0, 76, 76
1, 237993, Note_off_c, 0, 68, 66
1, 238084, Note_on_c, 0, 83, 72
1, 238090, Note_off_c, 0, 76, 63
1, 238188, Note_on_c, 0, 85, 76
1, 238206, Note_off_c, 0, 83, 61
1, 238300, Note_on_c, 0, 49, 61
1, 238363, Control_c, 0, 64, 97
1, 238378, Control_c, 0, 64, 75
1, 238384, Note_on_c, 0, 87, 81
1, 238392, Control_c, 0, 64, 38
1, 238407, Control_c, 0, 64, 0
1, 238410, Note_off_c, 0, 85, 61
1, 238467, Control_c, 0, 64, 42
1, 238482, Control_c, 0, 64, 66
1, 238497, Control_c, 0, 64, 77
1, 238511, Control_c, 0, 64, 93
1, 238526, Control_c, 0, 64, 127
1, 238614, Note_on_c, 0, 56, 61
1, 238634, Note_off_c, 0, 87, 60
1, 238636, Note_off_c, 0, 49, 62
1, 238678, Note_on_c, 0, 77, 65
1, 238694, Note_on_c, 0, 80, 50
1, 238761, Note_off_c, 0, 80, 63
1, 238764, Note_on_c, 0, 83, 69
1, 238764, Note_on_c, 0, 86, 81
1, 238765, Note_on_c, 0, 65, 66
1, 238777, Note_off_c, 0, 56, 64
1, 238791, Note_off_c, 0, 77, 59
1, 238823, Note_off_c, 0, 65, 62
1, 238977, Note_on_c, 0, 74, 68
1, 238985, Note_on_c, 0, 71, 58
1, 239021, Note_off_c, 0, 83, 60
1, 239025, Note_off_c, 0, 86, 64
1, 239032, Note_off_c, 0, 74, 63
1, 239045, Note_off_c, 0, 71, 64
1, 239048, Note_on_c, 0, 79, 64
1, 239054, Note_on_c, 0, 76, 63
1, 239144, Note_off_c, 0, 79, 63
1, 239149, Note_on_c, 0, 82, 69
1, 239149, Note_on_c, 0, 85, 79
1, 239162, Note_off_c, 0, 76, 65
1, 239373, Note_off_c, 0, 85, 62
1, 239406, Note_off_c, 0, 82, 62
1, 239427, Note_on_c, 0, 77, 51
1, 239442, Note_on_c, 0, 74, 57
1, 239513, Note_on_c, 0, 83, 75
1, 239517, Note_on_c, 0, 46, 50
1, 239523, Note_off_c, 0, 77, 60
1, 239527, Note_on_c, 0, 79, 64
1, 239527, Control_c, 0, 64, 96
1, 239531, Note_off_c, 0, 74, 61
1, 239542, Control_c, 0, 64, 77
1, 239557, Control_c, 0, 64, 58
1, 239572, Control_c, 0, 64, 0
1, 239631, Control_c, 0, 64, 20
1, 239646, Control_c, 0, 64, 61
1, 239661, Control_c, 0, 64, 68
1, 239683, Control_c, 0, 64, 76
1, 239698, Control_c, 0, 64, 85
1, 239710, Note_off_c, 0, 46, 61
1, 239713, Control_c, 0, 64, 92
1, 239713, Note_on_c, 0, 56, 54
1, 239727, Control_c, 0, 64, 96
1, 239742, Control_c, 0, 64, 102
1, 239758, Control_c, 0, 64, 108
1, 239772, Control_c, 0, 64, 118
1, 239778, Note_off_c, 0, 79, 63
1, 239787, Control_c, 0, 64, 127
1, 239797, Note_off_c, 0, 83, 63
1, 239802, Note_on_c, 0, 74, 47
1, 239802, Note_on_c, 0, 76, 57
1, 239850, Note_off_c, 0, 56, 60
1, 239874, Note_off_c, 0, 76, 65
1, 239884, Note_off_c, 0, 74, 39
1, 239887, Note_on_c, 0, 62, 36
1, 239888, Note_on_c, 0, 83, 58
1, 239899, Note_on_c, 0, 79, 61
1, 239998, Note_off_c, 0, 83, 38
1, 240076, Note_on_c, 0, 68, 61
1, 240091, Note_off_c, 0, 62, 39
1, 240118, Note_off_c, 0, 68, 60
1, 240121, Note_off_c, 0, 79, 63
1, 240166, Note_on_c, 0, 74, 39
1, 240173, Note_on_c, 0, 71, 53
1, 240260, Note_off_c, 0, 71, 60
1, 240262, Note_on_c, 0, 79, 54
1, 240282, Note_on_c, 0, 76, 48
1, 240312, Note_off_c, 0, 74, 35
1, 240617, Note_off_c, 0, 76, 58
1, 240642, Note_on_c, 0, 70, 48
1, 240656, Note_on_c, 0, 75, 44
1, 240716, Note_off_c, 0, 75, 56
1, 240724, Note_off_c, 0, 79, 26
1, 240728, Note_off_c, 0, 70, 59
1, 240822, Note_on_c, 0, 39, 46
1, 240891, Control_c, 0, 64, 113
1, 240894, Note_on_c, 0, 77, 50
1, 240901, Note_on_c, 0, 73, 50
1, 240902, Note_on_c, 0, 69, 38
1, 240906, Control_c, 0, 64, 91
1, 240920, Control_c, 0, 64, 73
1, 240935, Control_c, 0, 64, 20
1, 240950, Control_c, 0, 64, 0
1, 240995, Control_c, 0, 64, 46
1, 241009, Control_c, 0, 64, 63
1, 241024, Control_c, 0, 64, 67
1, 241039, Control_c, 0, 64, 75
1, 241054, Control_c, 0, 64, 84
1, 241069, Control_c, 0, 64, 94
1, 241084, Control_c, 0, 64, 103
1, 241099, Control_c, 0, 64, 116
1, 241113, Control_c, 0, 64, 127
1, 241171, Note_off_c, 0, 69, 41
1, 241275, Note_off_c, 0, 39, 58
1, 241285, Note_on_c, 0, 51, 57
1, 241317, Note_off_c, 0, 77, 31
1, 241324, Note_off_c, 0, 51, 63
1, 241383, Note_on_c, 0, 68, 45
1, 241389, Note_on_c, 0, 72, 50
1, 241402, Control_c, 0, 67, 9
1, 241417, Control_c, 0, 67, 15
1, 241432, Control_c, 0, 67, 24
1, 241445, Note_off_c, 0, 73, 0
1, 241447, Control_c, 0, 67, 42
1, 241449, Note_off_c, 0, 68, 52
1, 241461, Control_c, 0, 67, 66
1, 241467, Note_on_c, 0, 73, 28
1, 241475, Note_off_c, 0, 72, 63
1, 241476, Control_c, 0, 67, 94
1, 241486, Note_on_c, 0, 77, 55
1, 241491, Control_c, 0, 67, 121
1, 241496, Note_on_c, 0, 71, 58
1, 241506, Control_c, 0, 67, 127
1, 241516, Note_off_c, 0, 71, 64
1, 241696, Note_on_c, 0, 61, 54
1, 241725, Note_off_c, 0, 77, 37
1, 241730, Note_off_c, 0, 73, 51
1, 241749, Note_on_c, 0, 66, 59
1, 241773, Note_on_c, 0, 70, 52
1, 241811, Note_off_c, 0, 61, 61
1, 241855, Note_off_c, 0, 70, 63
1, 241858, Note_on_c, 0, 77, 61
1, 241860, Note_on_c, 0, 73, 55
1, 241862, Note_off_c, 0, 66, 60
1, 241885, Note_on_c, 0, 51, 49
1, 241896, Note_off_c, 0, 77, 61
1, 241902, Note_off_c, 0, 73, 62
1, 241928, Note_off_c, 0, 51, 64
1, 242102, Note_on_c, 0, 39, 52
1, 242169, Note_off_c, 0, 39, 60
1, 242240, Note_on_c, 0, 64, 39
1, 242241, Note_on_c, 0, 59, 41
1, 242250, Note_on_c, 0, 67, 51
1, 242330, Control_c, 0, 64, 102
1, 242344, Control_c, 0, 64, 81
1, 242359, Control_c, 0, 64, 64
1, 242374, Control_c, 0, 64, 0
1, 242391, Note_off_c, 0, 67, 61
1, 242404, Control_c, 0, 64, 36
1, 242406, Note_on_c, 0, 32, 55
1, 242408, Note_on_c, 0, 70, 62
1, 242418, Control_c, 0, 64, 62
1, 242430, Note_off_c, 0, 64, 32
1, 242433, Control_c, 0, 64, 70
1, 242435, Note_off_c, 0, 59, 28
1, 242448, Control_c, 0, 64, 80
1, 242449, Note_off_c, 0, 70, 60
1, 242457, Note_off_c, 0, 32, 60
1, 242463, Control_c, 0, 64, 89
1, 242478, Control_c, 0, 64, 94
1, 242492, Control_c, 0, 64, 98
1, 242507, Control_c, 0, 64, 103
1, 242522, Control_c, 0, 64, 109
1, 242536, Control_c, 0, 64, 124
1, 242551, Control_c, 0, 64, 127
1, 242744, Note_on_c, 0, 51, 54
1, 242744, Note_on_c, 0, 68, 55
1, 242751, Control_c, 0, 64, 97
1, 242765, Control_c, 0, 64, 78
1, 242780, Control_c, 0, 64, 64
1, 242795, Control_c, 0, 64, 36
1, 242810, Control_c, 0, 64, 56
1, 242813, Note_on_c, 0, 60, 58
1, 242813, Note_off_c, 0, 68, 54
1, 242825, Control_c, 0, 64, 65
1, 242840, Control_c, 0, 64, 72
1, 242855, Control_c, 0, 64, 81
1, 242858, Note_on_c, 0, 65, 50
1, 242869, Control_c, 0, 64, 91
1, 242873, Note_off_c, 0, 60, 56
1, 242884, Control_c, 0, 64, 99
1, 242899, Control_c, 0, 64, 105
1, 242910, Note_off_c, 0, 65, 65
1, 242914, Control_c, 0, 64, 114
1, 242922, Note_off_c, 0, 51, 61
1, 242925, Note_on_c, 0, 68, 69
1, 242929, Control_c, 0, 64, 127
1, 242938, Note_on_c, 0, 63, 54
1, 242956, Note_off_c, 0, 68, 69
1, 242973, Note_off_c, 0, 63, 62
1, 243020, Note_on_c, 0, 71, 65
1, 243108, Note_off_c, 0, 71, 55
1, 243115, Note_on_c, 0, 74, 55
1, 243166, Control_c, 0, 64, 117
1, 243181, Control_c, 0, 64, 88
1, 243194, Note_off_c, 0, 74, 60
1, 243196, Control_c, 0, 64, 68
1, 243211, Control_c, 0, 64, 0
1, 243236, Note_on_c, 0, 72, 42
1, 243242, Note_on_c, 0, 80, 61
1, 243245, Note_on_c, 0, 75, 50
1, 243255, Control_c, 0, 64, 58
1, 243270, Control_c, 0, 64, 69
1, 243276, Note_off_c, 0, 80, 69
1, 243284, Control_c, 0, 64, 78
1, 243299, Control_c, 0, 64, 88
1, 243305, Note_off_c, 0, 75, 61
1, 243314, Control_c, 0, 64, 97
1, 243318, Note_off_c, 0, 72, 62
1, 243329, Control_c, 0, 64, 109
1, 243344, Control_c, 0, 64, 127
1, 243707, Control_c, 0, 64, 119
1, 243722, Control_c, 0, 64, 107
1, 243737, Control_c, 0, 64, 99
1, 243752, Control_c, 0, 64, 93
1, 243767, Control_c, 0, 64, 88
1, 243782, Control_c, 0, 64, 83
1, 243797, Control_c, 0, 64, 76
1, 243812, Control_c, 0, 64, 69
1, 243826, Control_c, 0, 64, 59
1, 243841, Control_c, 0, 64, 44
1, 243856, Control_c, 0, 64, 42
1, 243871, Control_c, 0, 64, 44
1, 243886, Control_c, 0, 64, 46
1, 243901, Control_c, 0, 64, 47
1, 243915, Control_c, 0, 64, 48
1, 244034, Control_c, 0, 64, 49
1, 244049, Control_c, 0, 64, 49
1, 244063, Control_c, 0, 64, 50
1, 244078, Control_c, 0, 64, 50
1, 244107, Control_c, 0, 64, 51
1, 244122, Control_c, 0, 64, 51
1, 244137, Control_c, 0, 64, 52
1, 244160, Control_c, 0, 64, 52
1, 244175, Control_c, 0, 64, 53
1, 244219, Control_c, 0, 64, 53
1, 244234, Control_c, 0, 64, 54
1, 244248, Control_c, 0, 64, 54
1, 244263, Control_c, 0, 64, 55
1, 244337, Control_c, 0, 64, 55
1, 244367, Control_c, 0, 64, 56
1, 244396, Control_c, 0, 64, 56
1, 244426, Control_c, 0, 64, 57
1, 244440, Control_c, 0, 64, 57
1, 244545, Control_c, 0, 64, 58
1, 244679, Control_c, 0, 64, 58
1, 244798, Control_c, 0, 64, 59
1, 244908, Control_c, 0, 64, 59
1, 245125, Note_on_c, 0, 80, 56
1, 245190, Control_c, 0, 64, 60
1, 245219, Control_c, 0, 64, 60
1, 245278, Control_c, 0, 64, 61
1, 245308, Control_c, 0, 64, 61
1, 245354, Control_c, 0, 64, 62
1, 245368, Control_c, 0, 64, 62
1, 245413, Control_c, 0, 64, 63
1, 245428, Control_c, 0, 64, 63
1, 245457, Control_c, 0, 64, 64
1, 245487, Control_c, 0, 64, 64
1, 245502, Control_c, 0, 64, 65
1, 245517, Control_c, 0, 64, 66
1, 245531, Control_c, 0, 64, 68
1, 245546, Control_c, 0, 64, 71
1, 245561, Control_c, 0, 64, 75
1, 245576, Control_c, 0, 64, 79
1, 245591, Control_c, 0, 64, 80
1, 245606, Control_c, 0, 64, 81
1, 245621, Control_c, 0, 64, 84
1, 245635, Control_c, 0, 64, 88
1, 245650, Control_c, 0, 64, 92
1, 245672, Control_c, 0, 64, 95
1, 245687, Control_c, 0, 64, 99
1, 245701, Control_c, 0, 64, 104
1, 245716, Control_c, 0, 64, 112
1, 245731, Control_c, 0, 64, 127
1, 246062, Note_on_c, 0, 69, 46
1, 246585, Note_on_c, 0, 81, 55
1, 246587, Note_off_c, 0, 80, 39
1, 246810, Note_off_c, 0, 81, 53
1, 246840, Note_on_c, 0, 77, 47
1, 246846, Note_on_c, 0, 72, 44
1, 246849, Note_on_c, 0, 74, 32
1, 247068, Note_on_c, 0, 80, 61
1, 247089, Note_off_c, 0, 74, 40
1, 247103, Note_off_c, 0, 72, 38
1, 247113, Note_off_c, 0, 77, 60
1, 247321, Note_on_c, 0, 72, 46
1, 247337, Note_on_c, 0, 74, 25
1, 247510, Note_off_c, 0, 72, 42
1, 247520, Note_off_c, 0, 74, 33
1, 247763, Control_c, 0, 67, 124
1, 247778, Control_c, 0, 67, 119
1, 247793, Control_c, 0, 67, 114
1, 247807, Control_c, 0, 67, 108
1, 247822, Control_c, 0, 67, 103
1, 247837, Control_c, 0, 67, 98
1, 247852, Control_c, 0, 67, 93
1, 247867, Control_c, 0, 67, 89
1, 247881, Control_c, 0, 67, 86
1, 247904, Control_c, 0, 67, 83
1, 247919, Control_c, 0, 67, 79
1, 247924, Note_on_c, 0, 66, 49
1, 247934, Control_c, 0, 67, 75
1, 247949, Control_c, 0, 67, 72
1, 247963, Control_c, 0, 67, 68
1, 247978, Control_c, 0, 67, 64
1, 247993, Control_c, 0, 67, 58
1, 248007, Control_c, 0, 67, 51
1, 248022, Control_c, 0, 67, 43
1, 248037, Control_c, 0, 67, 35
1, 248052, Control_c, 0, 67, 27
1, 248067, Control_c, 0, 67, 20
1, 248081, Control_c, 0, 67, 13
1, 248096, Control_c, 0, 67, 0
1, 248288, Note_on_c, 0, 81, 56
1, 248492, Note_off_c, 0, 80, 15
1, 248503, Note_on_c, 0, 77, 53
1, 248510, Note_on_c, 0, 74, 34
1, 248521, Note_on_c, 0, 72, 40
1, 248533, Note_off_c, 0, 81, 34
1, 248724, Note_on_c, 0, 80, 66
1, 248796, Note_off_c, 0, 74, 40
1, 248810, Note_off_c, 0, 72, 31
1, 248881, Note_off_c, 0, 77, 23
1, 248945, Note_on_c, 0, 72, 56
1, 248965, Note_on_c, 0, 74, 40
1, 249260, Note_off_c, 0, 74, 41
1, 249351, Note_on_c, 0, 62, 51
1, 249550, Note_on_c, 0, 81, 77
1, 249554, Note_off_c, 0, 72, 40
1, 249584, Note_off_c, 0, 80, 56
1, 249742, Note_on_c, 0, 77, 65
1, 249750, Note_off_c, 0, 81, 61
1, 249751, Note_on_c, 0, 72, 62
1, 249754, Note_on_c, 0, 74, 46
1, 249904, Note_off_c, 0, 72, 62
1, 249933, Note_off_c, 0, 74, 63
1, 249938, Note_on_c, 0, 80, 76
1, 249955, Note_off_c, 0, 77, 62
1, 250034, Note_off_c, 0, 69, 59
1, 250039, Control_c, 0, 67, 10
1, 250054, Control_c, 0, 67, 17
1, 250068, Control_c, 0, 67, 28
1, 250083, Control_c, 0, 67, 46
1, 250098, Control_c, 0, 67, 70
1, 250113, Control_c, 0, 64, 96
1, 250113, Control_c, 0, 67, 97
1, 250129, Control_c, 0, 64, 77
1, 250129, Control_c, 0, 67, 127
1, 250131, Note_on_c, 0, 75, 56
1, 250133, Note_on_c, 0, 73, 50
1, 250135, Note_on_c, 0, 69, 46
1, 250137, Note_on_c, 0, 59, 44
1, 250144, Control_c, 0, 64, 64
1, 250166, Control_c, 0, 64, 48
1, 250181, Control_c, 0, 64, 61
1, 250196, Control_c, 0, 64, 68
1, 250197, Note_off_c, 0, 80, 59
1, 250210, Control_c, 0, 64, 77
1, 250214, Note_off_c, 0, 66, 45
1, 250225, Control_c, 0, 64, 95
1, 250228, Note_off_c, 0, 62, 27
1, 250240, Control_c, 0, 64, 111
1, 250255, Control_c, 0, 64, 127
1, 250270, Note_off_c, 0, 75, 63
1, 250296, Note_off_c, 0, 69, 62
1, 250301, Note_off_c, 0, 59, 62
1, 250372, Note_on_c, 0, 85, 68
1, 250425, Note_off_c, 0, 73, 39
1, 250564, Note_on_c, 0, 52, 51
1, 250566, Control_c, 0, 64, 108
1, 250581, Control_c, 0, 64, 83
1, 250595, Control_c, 0, 64, 66
1, 250602, Note_on_c, 0, 75, 51
1, 250608, Note_on_c, 0, 79, 57
1, 250610, Control_c, 0, 64, 0
1, 250616, Note_off_c, 0, 85, 59
1, 250640, Control_c, 0, 64, 60
1, 250655, Control_c, 0, 64, 69
1, 250669, Control_c, 0, 64, 81
1, 250684, Control_c, 0, 64, 94
1, 250699, Control_c, 0, 64, 105
1, 250714, Control_c, 0, 64, 120
1, 250728, Control_c, 0, 64, 127
1, 250740, Note_off_c, 0, 52, 58
1, 250787, Note_off_c, 0, 75, 58
1, 250832, Note_on_c, 0, 83, 59
1, 250838, Note_off_c, 0, 79, 55
1, 250900, Poly_aftertouch_c, 0, 80, 127
1, 251007, Note_off_c, 0, 83, 64
1, 251021, Poly_aftertouch_c, 0, 80, 0
1, 251025, Note_on_c, 0, 68, 59
1, 251043, Note_on_c, 0, 72, 56
1, 251249, Note_off_c, 0, 72, 62
1, 251265, Note_on_c, 0, 75, 57
1, 251275, Note_off_c, 0, 68, 41
1, 251282, Note_on_c, 0, 71, 36
1, 251508, Note_off_c, 0, 75, 54
1, 251511, Note_on_c, 0, 59, 45
1, 251517, Note_on_c, 0, 73, 54
1, 251532, Note_on_c, 0, 68, 41
1, 251561, Note_off_c, 0, 71, 39
1, 251608, Note_off_c, 0, 59, 60
1, 251651, Note_off_c, 0, 73, 62
1, 251840, Note_on_c, 0, 80, 53
1, 252099, Note_off_c, 0, 68, 42
1, 252107, Control_c, 0, 64, 104
1, 252122, Control_c, 0, 64, 82
1, 252137, Control_c, 0, 64, 63
1, 252152, Control_c, 0, 64, 0
1, 252162, Note_on_c, 0, 45, 39
1, 252226, Control_c, 0, 64, 32
1, 252241, Control_c, 0, 64, 64
1, 252255, Control_c, 0, 64, 71
1, 252270, Control_c, 0, 64, 79
1, 252285, Control_c, 0, 64, 87
1, 252299, Control_c, 0, 64, 95
1, 252306, Note_off_c, 0, 45, 53
1, 252314, Control_c, 0, 64, 111
1, 252329, Control_c, 0, 64, 127
1, 252602, Note_on_c, 0, 81, 58
1, 252800, Note_on_c, 0, 56, 34
1, 252808, Note_on_c, 0, 60, 46
1, 252816, Note_on_c, 0, 51, 47
1, 252838, Note_on_c, 0, 72, 56
1, 252843, Note_on_c, 0, 77, 49
1, 252847, Note_off_c, 0, 80, 41
1, 253015, Note_off_c, 0, 56, 40
1, 253081, Note_on_c, 0, 80, 55
1, 253107, Note_off_c, 0, 60, 59
1, 253109, Note_off_c, 0, 72, 60
1, 253192, Note_off_c, 0, 81, 29
1, 253237, Note_on_c, 0, 57, 21
1, 253291, Note_on_c, 0, 61, 58
1, 253298, Note_on_c, 0, 52, 55
1, 253314, Note_on_c, 0, 73, 59
1, 253353, Note_off_c, 0, 51, 37
1, 253392, Note_off_c, 0, 77, 34
1, 253419, Note_off_c, 0, 57, 47
1, 253449, Note_off_c, 0, 61, 63
1, 253456, Note_off_c, 0, 52, 61
1, 253827, Control_c, 0, 64, 111
1, 253840, Note_on_c, 0, 41, 49
1, 253842, Control_c, 0, 64, 89
1, 253857, Control_c, 0, 64, 72
1, 253872, Control_c, 0, 64, 56
1, 253887, Control_c, 0, 64, 0
1, 253909, Control_c, 0, 64, 38
1, 253924, Control_c, 0, 64, 57
1, 253939, Control_c, 0, 64, 65
1, 253953, Control_c, 0, 64, 73
1, 253968, Control_c, 0, 64, 86
1, 253983, Control_c, 0, 64, 106
1, 253998, Control_c, 0, 64, 127
1, 254003, Note_off_c, 0, 41, 63
1, 254108, Note_on_c, 0, 81, 62
1, 254248, Note_off_c, 0, 73, 61
1, 254294, Note_on_c, 0, 56, 43
1, 254297, Note_on_c, 0, 60, 52
1, 254302, Note_on_c, 0, 72, 64
1, 254307, Note_on_c, 0, 51, 46
1, 254310, Note_on_c, 0, 77, 60
1, 254320, Note_off_c, 0, 80, 39
1, 254447, Note_off_c, 0, 60, 56
1, 254465, Note_off_c, 0, 56, 60
1, 254512, Note_off_c, 0, 72, 63
1, 254513, Note_on_c, 0, 80, 70
1, 254545, Note_off_c, 0, 81, 36
1, 254734, Note_on_c, 0, 52, 49
1, 254744, Note_on_c, 0, 61, 48
1, 254756, Note_off_c, 0, 77, 54
1, 254764, Note_on_c, 0, 73, 57
1, 254829, Note_off_c, 0, 61, 61
1, 254839, Note_off_c, 0, 52, 61
1, 254868, Note_off_c, 0, 51, 20
1, 255281, Control_c, 0, 64, 106
1, 255296, Control_c, 0, 64, 88
1, 255310, Control_c, 0, 64, 71
1, 255321, Note_on_c, 0, 35, 47
1, 255325, Control_c, 0, 64, 60
1, 255340, Control_c, 0, 64, 42
1, 255355, Control_c, 0, 64, 52
1, 255370, Control_c, 0, 64, 63
1, 255392, Control_c, 0, 64, 70
1, 255407, Control_c, 0, 64, 83
1, 255422, Control_c, 0, 64, 100
1, 255437, Control_c, 0, 64, 127
1, 255514, Note_off_c, 0, 35, 42
1, 255734, Control_c, 0, 67, 116
1, 255748, Control_c, 0, 67, 103
1, 255763, Control_c, 0, 67, 88
1, 255778, Control_c, 0, 67, 71
1, 255793, Control_c, 0, 67, 55
1, 255801, Note_on_c, 0, 81, 55
1, 255808, Control_c, 0, 67, 39
1, 255822, Control_c, 0, 67, 24
1, 255837, Control_c, 0, 67, 9
1, 255852, Control_c, 0, 67, 0
1, 255913, Note_off_c, 0, 73, 37
1, 255947, Note_on_c, 0, 56, 27
1, 255997, Note_on_c, 0, 51, 45
1, 256000, Note_on_c, 0, 60, 40
1, 256039, Note_off_c, 0, 80, 12
1, 256045, Note_on_c, 0, 72, 66
1, 256057, Note_on_c, 0, 77, 49
1, 256206, Note_off_c, 0, 81, 41
1, 256212, Note_off_c, 0, 60, 58
1, 256214, Note_off_c, 0, 56, 54
1, 256269, Note_on_c, 0, 80, 60
1, 256284, Note_off_c, 0, 72, 63
1, 256446, Note_on_c, 0, 57, 36
1, 256450, Note_on_c, 0, 52, 48
1, 256451, Note_on_c, 0, 61, 57
1, 256467, Note_on_c, 0, 73, 73
1, 256490, Note_off_c, 0, 57, 61
1, 256507, Note_off_c, 0, 77, 58
1, 256513, Note_off_c, 0, 61, 62
1, 256543, Note_off_c, 0, 52, 61
1, 256558, Note_off_c, 0, 51, 20
1, 256620, Note_off_c, 0, 80, 55
1, 256674, Note_on_c, 0, 85, 73
1, 256744, Note_off_c, 0, 73, 60
1, 256764, Note_off_c, 0, 85, 64
1, 256823, Note_on_c, 0, 40, 60
1, 256825, Note_on_c, 0, 47, 47
1, 256868, Control_c, 0, 64, 110
1, 256883, Note_on_c, 0, 70, 72
1, 256883, Control_c, 0, 64, 87
1, 256904, Control_c, 0, 64, 68
1, 256918, Note_on_c, 0, 79, 48
1, 256919, Control_c, 0, 64, 38
1, 256923, Note_on_c, 0, 75, 54
1, 256934, Control_c, 0, 64, 31
1, 256949, Control_c, 0, 64, 59
1, 256963, Control_c, 0, 64, 67
1, 256978, Control_c, 0, 64, 76
1, 256984, Note_off_c, 0, 40, 62
1, 256993, Control_c, 0, 64, 90
1, 257005, Note_off_c, 0, 47, 62
1, 257008, Control_c, 0, 64, 105
1, 257022, Control_c, 0, 64, 118
1, 257037, Control_c, 0, 64, 127
1, 257053, Note_off_c, 0, 70, 64
1, 257109, Note_off_c, 0, 79, 62
1, 257118, Note_off_c, 0, 75, 61
1, 257122, Note_on_c, 0, 85, 70
1, 257239, Note_off_c, 0, 85, 64
1, 257346, Note_on_c, 0, 56, 54
1, 257357, Note_on_c, 0, 71, 63
1, 257364, Control_c, 0, 64, 109
1, 257372, Note_on_c, 0, 76, 44
1, 257372, Note_on_c, 0, 80, 56
1, 257379, Control_c, 0, 64, 86
1, 257393, Control_c, 0, 64, 68
1, 257408, Control_c, 0, 64, 0
1, 257452, Control_c, 0, 64, 15
1, 257467, Control_c, 0, 64, 57
1, 257482, Control_c, 0, 64, 66
1, 257497, Control_c, 0, 64, 74
1, 257512, Control_c, 0, 64, 84
1, 257527, Control_c, 0, 64, 94
1, 257542, Control_c, 0, 64, 100
1, 257556, Control_c, 0, 64, 107
1, 257571, Control_c, 0, 64, 120
1, 257586, Control_c, 0, 64, 127
1, 257632, Note_off_c, 0, 80, 60
1, 257643, Note_on_c, 0, 83, 66
1, 257643, Note_off_c, 0, 76, 56
1, 257690, Note_off_c, 0, 83, 66
1, 257712, Control_c, 0, 67, 11
1, 257726, Control_c, 0, 67, 19
1, 257741, Control_c, 0, 67, 31
1, 257756, Control_c, 0, 67, 47
1, 257771, Control_c, 0, 67, 63
1, 257786, Control_c, 0, 67, 80
1, 257800, Control_c, 0, 67, 101
1, 257815, Control_c, 0, 67, 120
1, 257830, Control_c, 0, 67, 127
1, 257904, Note_off_c, 0, 71, 60
1, 257909, Note_on_c, 0, 68, 53
1, 257914, Note_on_c, 0, 73, 64
1, 257917, Note_on_c, 0, 76, 56
1, 257933, Control_c, 0, 64, 98
1, 257948, Control_c, 0, 64, 78
1, 257962, Control_c, 0, 64, 58
1, 257977, Control_c, 0, 64, 0
1, 258022, Control_c, 0, 64, 53
1, 258036, Control_c, 0, 64, 65
1, 258051, Control_c, 0, 64, 69
1, 258066, Control_c, 0, 64, 75
1, 258081, Control_c, 0, 64, 81
1, 258096, Control_c, 0, 64, 86
1, 258112, Control_c, 0, 64, 92
1, 258127, Control_c, 0, 64, 98
1, 258141, Control_c, 0, 64, 106
1, 258156, Control_c, 0, 64, 117
1, 258171, Control_c, 0, 64, 127
1, 258235, Note_off_c, 0, 76, 59
1, 258248, Note_off_c, 0, 56, 41
1, 258263, Note_on_c, 0, 72, 72
1, 258272, Note_off_c, 0, 73, 62
1, 258632, Note_on_c, 0, 61, 42
1, 258713, Control_c, 0, 64, 110
1, 258717, Note_on_c, 0, 71, 56
1, 258728, Control_c, 0, 64, 90
1, 258731, Note_off_c, 0, 72, 55
1, 258742, Control_c, 0, 64, 74
1, 258752, Note_off_c, 0, 68, 36
1, 258757, Control_c, 0, 64, 59
1, 258772, Control_c, 0, 64, 0
1, 258816, Control_c, 0, 64, 26
1, 258831, Control_c, 0, 64, 47
1, 258846, Control_c, 0, 64, 59
1, 258860, Control_c, 0, 64, 65
1, 258875, Control_c, 0, 64, 70
1, 258890, Control_c, 0, 64, 78
1, 258906, Control_c, 0, 64, 88
1, 258921, Control_c, 0, 64, 94
1, 258936, Control_c, 0, 64, 100
1, 258951, Control_c, 0, 64, 108
1, 258965, Control_c, 0, 64, 127
1, 259179, Note_on_c, 0, 78, 45
1, 259194, Note_off_c, 0, 71, 53
1, 259232, Note_off_c, 0, 78, 55
1, 259456, Note_on_c, 0, 72, 58
1, 259464, Note_on_c, 0, 67, 38
1, 259735, Note_off_c, 0, 67, 39
1, 259779, Note_on_c, 0, 76, 33
1, 260020, Note_off_c, 0, 72, 46
1, 260034, Note_on_c, 0, 71, 56
1, 260040, Note_on_c, 0, 67, 43
1, 260121, Control_c, 0, 67, 122
1, 260136, Control_c, 0, 67, 108
1, 260151, Control_c, 0, 67, 92
1, 260165, Control_c, 0, 67, 76
1, 260180, Control_c, 0, 67, 61
1, 260195, Control_c, 0, 67, 47
1, 260210, Control_c, 0, 67, 35
1, 260225, Control_c, 0, 67, 19
1, 260239, Control_c, 0, 67, 0
1, 260432, Note_on_c, 0, 54, 48
1, 260545, Note_off_c, 0, 61, 55
1, 260603, Note_off_c, 0, 76, 59
1, 260633, Note_off_c, 0, 71, 64
1, 260646, Note_on_c, 0, 78, 57
1, 260661, Note_off_c, 0, 67, 60
1, 260703, Note_off_c, 0, 78, 51
1, 260855, Note_on_c, 0, 70, 73
1, 260863, Note_on_c, 0, 66, 52
1, 260901, Note_on_c, 0, 72, 31
1, 261089, Note_on_c, 0, 76, 50
1, 261203, Note_off_c, 0, 70, 39
1, 261214, Note_off_c, 0, 66, 63
1, 261355, Note_on_c, 0, 47, 52
1, 261363, Note_on_c, 0, 69, 66
1, 261386, Note_on_c, 0, 65, 50
1, 261397, Control_c, 0, 64, 121
1, 261411, Control_c, 0, 64, 98
1, 261426, Control_c, 0, 64, 82
1, 261441, Control_c, 0, 64, 68
1, 261456, Control_c, 0, 64, 42
1, 261471, Control_c, 0, 64, 0
1, 261480, Note_off_c, 0, 72, 28
1, 261485, Note_off_c, 0, 54, 54
1, 261515, Control_c, 0, 64, 43
1, 261530, Control_c, 0, 64, 60
1, 261544, Control_c, 0, 64, 66
1, 261559, Control_c, 0, 64, 73
1, 261574, Control_c, 0, 64, 81
1, 261589, Control_c, 0, 64, 89
1, 261603, Control_c, 0, 64, 94
1, 261618, Control_c, 0, 64, 101
1, 261626, Note_off_c, 0, 76, 27
1, 261633, Control_c, 0, 64, 114
1, 261648, Control_c, 0, 64, 127
1, 261828, Note_on_c, 0, 43, 63
1, 261870, Control_c, 0, 64, 109
1, 261885, Control_c, 0, 64, 93
1, 261900, Control_c, 0, 64, 80
1, 261915, Control_c, 0, 64, 71
1, 261929, Control_c, 0, 64, 65
1, 261944, Control_c, 0, 64, 63
1, 261947, Note_off_c, 0, 47, 55
1, 261959, Control_c, 0, 64, 64
1, 261974, Control_c, 0, 64, 65
1, 261989, Control_c, 0, 64, 67
1, 262003, Control_c, 0, 64, 70
1, 262018, Control_c, 0, 64, 75
1, 262033, Control_c, 0, 64, 86
1, 262048, Control_c, 0, 64, 97
1, 262061, Note_on_c, 0, 74, 56
1, 262063, Control_c, 0, 64, 105
1, 262077, Control_c, 0, 64, 112
1, 262082, Note_off_c, 0, 69, 58
1, 262092, Control_c, 0, 64, 127
1, 262123, Note_off_c, 0, 65, 63
1, 262278, Note_on_c, 0, 76, 71
1, 262281, Note_off_c, 0, 74, 63
1, 262282, Note_on_c, 0, 64, 59
1, 262284, Note_on_c, 0, 68, 69
1, 262294, Control_c, 0, 64, 97
1, 262308, Control_c, 0, 64, 85
1, 262323, Control_c, 0, 64, 75
1, 262338, Control_c, 0, 64, 69
1, 262353, Control_c, 0, 64, 66
1, 262368, Control_c, 0, 64, 66
1, 262383, Control_c, 0, 64, 69
1, 262397, Control_c, 0, 64, 73
1, 262412, Control_c, 0, 64, 79
1, 262427, Control_c, 0, 64, 87
1, 262442, Control_c, 0, 64, 94
1, 262457, Control_c, 0, 64, 101
1, 262472, Control_c, 0, 64, 112
1, 262487, Control_c, 0, 64, 127
1, 262506, Note_off_c, 0, 76, 44
1, 262520, Note_on_c, 0, 71, 61
1, 262538, Note_off_c, 0, 68, 60
1, 262552, Note_off_c, 0, 64, 63
1, 262723, Control_c, 0, 64, 104
1, 262723, Control_c, 0, 67, 9
1, 262734, Note_on_c, 0, 67, 71
1, 262738, Control_c, 0, 64, 84
1, 262738, Control_c, 0, 67, 11
1, 262752, Control_c, 0, 64, 68
1, 262752, Control_c, 0, 67, 14
1, 262754, Note_on_c, 0, 63, 60
1, 262767, Control_c, 0, 64, 55
1, 262767, Control_c, 0, 67, 17
1, 262782, Control_c, 0, 64, 57
1, 262782, Control_c, 0, 67, 20
1, 262797, Control_c, 0, 64, 65
1, 262797, Control_c, 0, 67, 23
1, 262812, Control_c, 0, 64, 72
1, 262812, Control_c, 0, 67, 29
1, 262827, Control_c, 0, 64, 83
1, 262827, Control_c, 0, 67, 37
1, 262842, Control_c, 0, 64, 100
1, 262842, Control_c, 0, 67, 47
1, 262857, Control_c, 0, 64, 127
1, 262857, Control_c, 0, 67, 57
1, 262871, Control_c, 0, 67, 69
1, 262893, Control_c, 0, 67, 82
1, 262910, Control_c, 0, 67, 96
1, 262925, Control_c, 0, 67, 109
1, 262939, Control_c, 0, 67, 122
1, 262954, Control_c, 0, 67, 127
1, 263001, Note_off_c, 0, 71, 40
1, 263008, Note_on_c, 0, 72, 75
1, 263012, Note_off_c, 0, 67, 62
1, 263035, Note_off_c, 0, 63, 59
1, 263065, Note_off_c, 0, 72, 65
1, 263250, Control_c, 0, 64, 102
1, 263257, Note_on_c, 0, 63, 65
1, 263259, Note_on_c, 0, 68, 68
1, 263262, Note_on_c, 0, 66, 63
1, 263265, Control_c, 0, 64, 81
1, 263268, Note_on_c, 0, 60, 52
1, 263279, Note_on_c, 0, 36, 44
1, 263280, Control_c, 0, 64, 65
1, 263295, Control_c, 0, 64, 0
1, 263324, Control_c, 0, 64, 49
1, 263339, Control_c, 0, 64, 64
1, 263354, Control_c, 0, 64, 70
1, 263369, Control_c, 0, 64, 79
1, 263383, Control_c, 0, 64, 90
1, 263398, Control_c, 0, 64, 100
1, 263413, Control_c, 0, 64, 109
1, 263424, Note_off_c, 0, 63, 55
1, 263428, Control_c, 0, 64, 127
1, 263500, Note_off_c, 0, 43, 32
1, 263516, Control_c, 0, 64, 119
1, 263527, Note_off_c, 0, 66, 61
1, 263531, Control_c, 0, 64, 91
1, 263539, Note_on_c, 0, 69, 68
1, 263539, Note_on_c, 0, 64, 62
1, 263546, Control_c, 0, 64, 74
1, 263551, Note_off_c, 0, 68, 58
1, 263561, Control_c, 0, 64, 65
1, 263575, Control_c, 0, 64, 68
1, 263590, Note_off_c, 0, 60, 56
1, 263590, Control_c, 0, 64, 76
1, 263605, Control_c, 0, 64, 90
1, 263617, Note_off_c, 0, 64, 64
1, 263628, Control_c, 0, 64, 107
1, 263643, Control_c, 0, 64, 127
1, 263685, Note_off_c, 0, 69, 57
1, 263816, Note_on_c, 0, 63, 62
1, 263821, Control_c, 0, 64, 101
1, 263823, Note_on_c, 0, 31, 53
1, 263825, Note_on_c, 0, 61, 58
1, 263831, Note_on_c, 0, 58, 49
1, 263836, Control_c, 0, 64, 80
1, 263851, Control_c, 0, 64, 63
1, 263866, Control_c, 0, 64, 0
1, 263881, Note_off_c, 0, 36, 35
1, 263910, Control_c, 0, 64, 54
1, 263925, Control_c, 0, 64, 66
1, 263939, Control_c, 0, 64, 71
1, 263954, Control_c, 0, 64, 76
1, 263969, Control_c, 0, 64, 81
1, 263984, Control_c, 0, 64, 86
1, 263999, Control_c, 0, 64, 96
1, 264010, Note_off_c, 0, 58, 52
1, 264013, Control_c, 0, 64, 106
1, 264028, Control_c, 0, 64, 126
1, 264043, Control_c, 0, 64, 127
1, 264053, Note_off_c, 0, 61, 36
1, 264056, Note_off_c, 0, 63, 58
1, 264132, Control_c, 0, 64, 107
1, 264132, Note_on_c, 0, 64, 59
1, 264135, Note_on_c, 0, 59, 51
1, 264147, Note_on_c, 0, 62, 49
1, 264147, Control_c, 0, 64, 83
1, 264162, Control_c, 0, 64, 64
1, 264177, Control_c, 0, 64, 0
1, 264206, Control_c, 0, 64, 56
1, 264221, Control_c, 0, 64, 67
1, 264236, Control_c, 0, 64, 76
1, 264250, Control_c, 0, 64, 88
1, 264265, Control_c, 0, 64, 97
1, 264271, Note_off_c, 0, 62, 58
1, 264280, Control_c, 0, 64, 101
1, 264295, Control_c, 0, 64, 107
1, 264296, Note_off_c, 0, 64, 59
1, 264310, Control_c, 0, 64, 116
1, 264324, Control_c, 0, 64, 127
1, 264570, Note_on_c, 0, 64, 39
1, 264574, Note_on_c, 0, 67, 37
1, 264585, Note_on_c, 0, 69, 56
1, 264590, Note_on_c, 0, 36, 51
1, 264600, Control_c, 0, 64, 99
1, 264606, Note_off_c, 0, 59, 31
1, 264615, Control_c, 0, 64, 80
1, 264629, Control_c, 0, 64, 63
1, 264634, Note_off_c, 0, 31, 38
1, 264644, Control_c, 0, 64, 0
1, 264703, Control_c, 0, 64, 61
1, 264718, Control_c, 0, 64, 69
1, 264733, Control_c, 0, 64, 78
1, 264748, Control_c, 0, 64, 86
1, 264762, Control_c, 0, 64, 92
1, 264777, Control_c, 0, 64, 98
1, 264792, Control_c, 0, 64, 107
1, 264806, Note_off_c, 0, 36, 60
1, 264807, Control_c, 0, 64, 127
1, 264843, Note_off_c, 0, 64, 54
1, 264891, Note_off_c, 0, 69, 60
1, 264895, Note_off_c, 0, 67, 53
1, 265734, Control_c, 0, 64, 126
1, 265749, Control_c, 0, 64, 120
1, 265764, Control_c, 0, 64, 116
1, 265778, Control_c, 0, 64, 112
1, 265793, Control_c, 0, 64, 108
1, 265808, Control_c, 0, 64, 104
1, 265823, Control_c, 0, 64, 101
1, 265837, Control_c, 0, 64, 98
1, 265852, Control_c, 0, 64, 94
1, 265867, Control_c, 0, 64, 90
1, 265890, Control_c, 0, 64, 84
1, 265904, Control_c, 0, 64, 78
1, 265919, Control_c, 0, 64, 71
1, 265934, Control_c, 0, 64, 66
1, 265949, Control_c, 0, 64, 63
1, 265964, Control_c, 0, 64, 62
1, 265992, Control_c, 0, 64, 62
1, 266364, Control_c, 0, 64, 63
1, 266393, Control_c, 0, 64, 63
1, 266399, Note_on_c, 0, 64, 34
1, 266423, Control_c, 0, 64, 64
1, 266427, Note_on_c, 0, 79, 36
1, 266438, Control_c, 0, 64, 64
1, 266452, Control_c, 0, 64, 65
1, 266467, Control_c, 0, 64, 66
1, 266482, Control_c, 0, 64, 68
1, 266497, Control_c, 0, 64, 70
1, 266512, Control_c, 0, 64, 74
1, 266526, Control_c, 0, 64, 81
1, 266541, Control_c, 0, 64, 90
1, 266556, Control_c, 0, 64, 98
1, 266571, Control_c, 0, 64, 104
1, 266586, Control_c, 0, 64, 114
1, 266601, Control_c, 0, 64, 127
1, 266835, Note_on_c, 0, 81, 54
1, 266837, Note_off_c, 0, 79, 42
1, 266872, Note_off_c, 0, 81, 64
1, 267079, Note_on_c, 0, 75, 44
1, 267092, Note_on_c, 0, 70, 30
1, 267113, Note_on_c, 0, 74, 17
1, 267305, Note_off_c, 0, 70, 46
1, 267316, Note_off_c, 0, 74, 39
1, 267316, Note_on_c, 0, 79, 53
1, 267331, Note_off_c, 0, 75, 56
1, 267575, Note_on_c, 0, 70, 28
1, 267599, Note_on_c, 0, 74, 26
1, 268192, Note_on_c, 0, 57, 34
1, 268279, Note_off_c, 0, 70, 40
1, 268358, Note_off_c, 0, 64, 42
1, 268431, Note_off_c, 0, 79, 51
1, 268452, Note_on_c, 0, 81, 68
1, 268464, Note_off_c, 0, 74, 42
1, 268500, Note_off_c, 0, 81, 57
1, 268661, Note_on_c, 0, 75, 57
1, 268674, Note_on_c, 0, 73, 51
1, 268682, Note_on_c, 0, 70, 50
1, 268882, Note_off_c, 0, 73, 60
1, 268884, Note_on_c, 0, 79, 72
1, 268894, Note_off_c, 0, 70, 61
1, 269091, Note_on_c, 0, 72, 52
1, 269107, Note_on_c, 0, 50, 55
1, 269107, Note_on_c, 0, 68, 52
1, 269392, Note_off_c, 0, 68, 36
1, 269523, Control_c, 0, 64, 97
1, 269538, Control_c, 0, 64, 78
1, 269543, Note_on_c, 0, 47, 63
1, 269552, Control_c, 0, 64, 64
1, 269560, Note_off_c, 0, 75, 21
1, 269567, Control_c, 0, 64, 46
1, 269582, Control_c, 0, 64, 59
1, 269592, Note_off_c, 0, 50, 53
1, 269596, Control_c, 0, 64, 66
1, 269611, Control_c, 0, 64, 74
1, 269634, Control_c, 0, 64, 89
1, 269635, Note_off_c, 0, 57, 59
1, 269649, Control_c, 0, 64, 113
1, 269664, Control_c, 0, 64, 127
1, 269721, Note_off_c, 0, 47, 60
1, 269861, Note_off_c, 0, 79, 34
1, 269871, Note_on_c, 0, 77, 66
1, 269918, Note_off_c, 0, 72, 61
1, 270064, Note_on_c, 0, 62, 49
1, 270071, Note_on_c, 0, 79, 75
1, 270074, Note_off_c, 0, 77, 64
1, 270092, Note_on_c, 0, 67, 52
1, 270094, Note_on_c, 0, 71, 55
1, 270124, Note_off_c, 0, 62, 53
1, 270247, Note_off_c, 0, 79, 52
1, 270295, Note_on_c, 0, 75, 71
1, 270298, Note_off_c, 0, 71, 60
1, 270304, Note_on_c, 0, 61, 52
1, 270313, Note_on_c, 0, 70, 67
1, 270315, Control_c, 0, 64, 92
1, 270330, Control_c, 0, 64, 68
1, 270336, Note_on_c, 0, 66, 42
1, 270345, Control_c, 0, 64, 0
1, 270356, Note_off_c, 0, 67, 49
1, 270382, Control_c, 0, 64, 49
1, 270397, Control_c, 0, 64, 66
1, 270412, Control_c, 0, 64, 76
1, 270426, Control_c, 0, 64, 88
1, 270441, Control_c, 0, 64, 101
1, 270456, Control_c, 0, 64, 119
1, 270471, Control_c, 0, 64, 127
1, 270473, Note_off_c, 0, 61, 61
1, 270484, Note_off_c, 0, 66, 52
1, 270509, Note_off_c, 0, 70, 64
1, 270515, Control_c, 0, 64, 101
1, 270530, Control_c, 0, 64, 77
1, 270534, Note_on_c, 0, 69, 61
1, 270541, Note_on_c, 0, 65, 54
1, 270544, Note_on_c, 0, 60, 49
1, 270544, Control_c, 0, 64, 56
1, 270559, Control_c, 0, 64, 46
1, 270574, Control_c, 0, 64, 67
1, 270589, Control_c, 0, 64, 78
1, 270604, Control_c, 0, 64, 99
1, 270619, Control_c, 0, 64, 127
1, 270750, Note_off_c, 0, 65, 63
1, 270750, Note_off_c, 0, 75, 61
1, 270757, Note_on_c, 0, 59, 54
1, 270758, Note_off_c, 0, 60, 38
1, 270760, Note_on_c, 0, 76, 66
1, 270761, Note_off_c, 0, 69, 61
1, 270765, Note_on_c, 0, 64, 43
1, 270774, Note_on_c, 0, 68, 56
1, 270792, Note_off_c, 0, 64, 55
1, 270797, Note_off_c, 0, 59, 64
1, 271005, Control_c, 0, 64, 110
1, 271012, Note_off_c, 0, 76, 41
1, 271020, Control_c, 0, 64, 86
1, 271023, Note_on_c, 0, 72, 65
1, 271025, Note_on_c, 0, 40, 50
1, 271027, Note_on_c, 0, 70, 46
1, 271029, Note_off_c, 0, 68, 44
1, 271034, Note_on_c, 0, 67, 50
1, 271034, Control_c, 0, 64, 67
1, 271049, Control_c, 0, 64, 0
1, 271094, Control_c, 0, 64, 56
1, 271116, Control_c, 0, 64, 65
1, 271131, Control_c, 0, 64, 71
1, 271146, Control_c, 0, 64, 78
1, 271161, Control_c, 0, 64, 84
1, 271175, Control_c, 0, 64, 87
1, 271190, Control_c, 0, 64, 90
1, 271205, Control_c, 0, 64, 92
1, 271220, Control_c, 0, 64, 96
1, 271235, Control_c, 0, 64, 100
1, 271249, Control_c, 0, 64, 104
1, 271264, Control_c, 0, 64, 108
1, 271271, Note_off_c, 0, 72, 61
1, 271279, Control_c, 0, 64, 114
1, 271286, Note_off_c, 0, 67, 51
1, 271287, Note_off_c, 0, 70, 42
1, 271294, Control_c, 0, 64, 122
1, 271296, Note_on_c, 0, 74, 54
1, 271300, Note_on_c, 0, 66, 58
1, 271309, Control_c, 0, 64, 127
1, 271329, Note_off_c, 0, 74, 63
1, 271347, Note_off_c, 0, 66, 55
1, 271531, Control_c, 0, 64, 109
1, 271546, Control_c, 0, 64, 89
1, 271561, Control_c, 0, 64, 72
1, 271573, Note_on_c, 0, 65, 48
1, 271575, Control_c, 0, 64, 42
1, 271576, Note_on_c, 0, 62, 47
1, 271578, Note_on_c, 0, 67, 53
1, 271589, Note_on_c, 0, 35, 43
1, 271590, Control_c, 0, 64, 0
1, 271605, Control_c, 0, 64, 39
1, 271613, Note_off_c, 0, 40, 40
1, 271620, Control_c, 0, 64, 60
1, 271635, Control_c, 0, 64, 66
1, 271649, Control_c, 0, 64, 71
1, 271664, Control_c, 0, 64, 78
1, 271679, Control_c, 0, 64, 85
1, 271687, Note_off_c, 0, 67, 61
1, 271695, Control_c, 0, 64, 88
1, 271698, Note_off_c, 0, 65, 55
1, 271710, Control_c, 0, 64, 91
1, 271725, Control_c, 0, 64, 94
1, 271739, Control_c, 0, 64, 99
1, 271754, Control_c, 0, 64, 105
1, 271769, Control_c, 0, 64, 112
1, 271784, Control_c, 0, 64, 118
1, 271798, Control_c, 0, 64, 127
1, 271865, Control_c, 0, 64, 121
1, 271880, Control_c, 0, 64, 99
1, 271895, Control_c, 0, 64, 84
1, 271910, Control_c, 0, 64, 70
1, 271913, Note_on_c, 0, 68, 47
1, 271922, Note_on_c, 0, 70, 55
1, 271924, Control_c, 0, 64, 59
1, 271939, Control_c, 0, 64, 53
1, 271954, Control_c, 0, 64, 62
1, 271969, Control_c, 0, 64, 66
1, 271984, Control_c, 0, 64, 74
1, 271999, Control_c, 0, 64, 84
1, 272014, Control_c, 0, 64, 93
1, 272029, Control_c, 0, 64, 96
1, 272029, Note_off_c, 0, 62, 39
1, 272044, Control_c, 0, 64, 97
1, 272059, Control_c, 0, 64, 99
1, 272062, Note_off_c, 0, 68, 37
1, 272073, Control_c, 0, 64, 103
1, 272088, Control_c, 0, 64, 108
1, 272103, Control_c, 0, 64, 114
1, 272106, Note_off_c, 0, 70, 32
1, 272117, Control_c, 0, 64, 127
1, 272191, Control_c, 0, 67, 122
1, 272206, Control_c, 0, 67, 114
1, 272221, Control_c, 0, 67, 107
1, 272236, Control_c, 0, 67, 100
1, 272251, Control_c, 0, 67, 95
1, 272265, Control_c, 0, 67, 90
1, 272280, Control_c, 0, 67, 85
1, 272295, Control_c, 0, 67, 80
1, 272310, Control_c, 0, 67, 75
1, 272324, Control_c, 0, 67, 71
1, 272339, Control_c, 0, 67, 66
1, 272354, Control_c, 0, 67, 62
1, 272369, Control_c, 0, 67, 58
1, 272384, Control_c, 0, 67, 55
1, 272398, Control_c, 0, 67, 51
1, 272413, Control_c, 0, 67, 47
1, 272428, Control_c, 0, 67, 43
1, 272443, Control_c, 0, 67, 38
1, 272457, Note_on_c, 0, 67, 43
1, 272458, Note_on_c, 0, 71, 48
1, 272458, Control_c, 0, 67, 34
1, 272459, Note_on_c, 0, 64, 31
1, 272473, Control_c, 0, 64, 111
1, 272473, Control_c, 0, 67, 31
1, 272474, Note_on_c, 0, 40, 35
1, 272488, Control_c, 0, 64, 93
1, 272488, Control_c, 0, 67, 28
1, 272503, Control_c, 0, 64, 78
1, 272503, Control_c, 0, 67, 25
1, 272518, Control_c, 0, 64, 64
1, 272518, Control_c, 0, 67, 21
1, 272526, Note_off_c, 0, 35, 30
1, 272533, Control_c, 0, 64, 0
1, 272533, Control_c, 0, 67, 15
1, 272547, Control_c, 0, 67, 9
1, 272562, Control_c, 0, 67, 0
1, 272607, Control_c, 0, 64, 49
1, 272629, Control_c, 0, 64, 63
1, 272644, Control_c, 0, 64, 68
1, 272659, Control_c, 0, 64, 73
1, 272674, Control_c, 0, 64, 79
1, 272689, Control_c, 0, 64, 83
1, 272703, Control_c, 0, 64, 87
1, 272717, Control_c, 0, 64, 91
1, 272731, Note_off_c, 0, 40, 41
1, 272732, Control_c, 0, 64, 95
1, 272746, Control_c, 0, 64, 99
1, 272748, Note_off_c, 0, 64, 39
1, 272758, Note_off_c, 0, 67, 37
1, 272761, Control_c, 0, 64, 102
1, 272776, Control_c, 0, 64, 105
1, 272791, Control_c, 0, 64, 108
1, 272806, Control_c, 0, 64, 113
1, 272820, Control_c, 0, 64, 120
1, 272822, Note_off_c, 0, 71, 33
1, 272835, Control_c, 0, 64, 127
1, 273310, Control_c, 0, 67, 8
1, 273325, Control_c, 0, 67, 14
1, 273340, Control_c, 0, 67, 23
1, 273355, Control_c, 0, 67, 39
1, 273376, Control_c, 0, 67, 57
1, 273391, Control_c, 0, 67, 78
1, 273406, Control_c, 0, 67, 102
1, 273421, Control_c, 0, 67, 125
1, 273436, Control_c, 0, 67, 127
1, 273717, Control_c, 0, 64, 120
1, 273732, Control_c, 0, 64, 115
1, 273747, Control_c, 0, 64, 112
1, 273761, Control_c, 0, 64, 109
1, 273776, Control_c, 0, 64, 107
1, 273791, Control_c, 0, 64, 104
1, 273806, Control_c, 0, 64, 102
1, 273821, Control_c, 0, 64, 98
1, 273835, Control_c, 0, 64, 94
1, 273850, Control_c, 0, 64, 90
1, 273865, Control_c, 0, 64, 85
1, 273880, Control_c, 0, 64, 81
1, 273895, Control_c, 0, 64, 75
1, 273910, Control_c, 0, 64, 70
1, 273925, Control_c, 0, 64, 66
1, 273940, Control_c, 0, 64, 65
1, 273954, Control_c, 0, 64, 64
1, 274014, Control_c, 0, 64, 64
1, 274029, Control_c, 0, 64, 63
1, 274043, Control_c, 0, 64, 62
1, 274058, Control_c, 0, 64, 61
1, 274073, Control_c, 0, 64, 60
1, 274089, Control_c, 0, 64, 60
1, 274103, Control_c, 0, 64, 59
1, 274125, Control_c, 0, 64, 59
1, 274140, Control_c, 0, 64, 58
1, 274155, Control_c, 0, 64, 58
1, 274288, Control_c, 0, 64, 58
1, 274318, Control_c, 0, 64, 59
1, 274333, Control_c, 0, 64, 59
1, 274341, Note_on_c, 0, 44, 32
1, 274348, Control_c, 0, 64, 60
1, 274363, Control_c, 0, 64, 61
1, 274369, Note_on_c, 0, 83, 39
1, 274378, Control_c, 0, 64, 61
1, 274384, Note_on_c, 0, 82, 11
1, 274392, Control_c, 0, 64, 62
1, 274407, Control_c, 0, 64, 63
1, 274422, Control_c, 0, 64, 64
1, 274437, Control_c, 0, 64, 65
1, 274452, Control_c, 0, 64, 67
1, 274466, Control_c, 0, 64, 70
1, 274481, Control_c, 0, 64, 75
1, 274496, Control_c, 0, 64, 82
1, 274510, Control_c, 0, 64, 87
1, 274525, Control_c, 0, 64, 90
1, 274540, Control_c, 0, 64, 93
1, 274555, Control_c, 0, 64, 98
1, 274570, Control_c, 0, 64, 105
1, 274584, Control_c, 0, 64, 112
1, 274599, Control_c, 0, 64, 127
1, 274801, Note_off_c, 0, 82, 44
1, 274822, Note_on_c, 0, 80, 43
1, 274823, Note_off_c, 0, 83, 39
1, 274825, Note_on_c, 0, 85, 49
1, 274982, Note_off_c, 0, 44, 32
1, 275070, Note_on_c, 0, 83, 45
1, 275072, Note_off_c, 0, 80, 46
1, 275076, Note_on_c, 0, 56, 39
1, 275084, Note_on_c, 0, 79, 41
1, 275085, Note_off_c, 0, 85, 0
1, 275123, Poly_aftertouch_c, 0, 85, 127
1, 275155, Note_off_c, 0, 56, 55
1, 275197, Poly_aftertouch_c, 0, 85, 0
1, 275285, Note_on_c, 0, 80, 47
1, 275287, Note_off_c, 0, 79, 59
1, 275296, Note_off_c, 0, 83, 36
1, 275305, Note_on_c, 0, 78, 47
1, 275326, Note_off_c, 0, 80, 62
1, 275332, Note_off_c, 0, 78, 57
1, 275486, Note_on_c, 0, 63, 36
1, 275487, Note_on_c, 0, 75, 41
1, 275493, Note_on_c, 0, 71, 21
1, 275532, Note_off_c, 0, 71, 53
1, 275671, Note_off_c, 0, 75, 34
1, 275696, Note_on_c, 0, 77, 50
1, 275728, Note_off_c, 0, 77, 65
1, 275737, Poly_aftertouch_c, 0, 74, 127
1, 275770, Poly_aftertouch_c, 0, 74, 0
1, 275817, Note_off_c, 0, 63, 32
1, 275859, Note_on_c, 0, 75, 52
1, 275865, Note_on_c, 0, 83, 54
1, 275877, Note_on_c, 0, 82, 34
1, 276038, Note_off_c, 0, 82, 59
1, 276043, Note_off_c, 0, 83, 65
1, 276063, Note_on_c, 0, 85, 59
1, 276064, Note_on_c, 0, 80, 52
1, 276071, Note_off_c, 0, 75, 38
1, 276197, Note_off_c, 0, 80, 63
1, 276209, Note_off_c, 0, 85, 51
1, 276232, Note_on_c, 0, 68, 55
1, 276234, Note_on_c, 0, 79, 41
1, 276274, Note_on_c, 0, 83, 24
1, 276399, Note_on_c, 0, 80, 66
1, 276399, Note_off_c, 0, 79, 58
1, 276426, Note_off_c, 0, 83, 51
1, 276437, Note_off_c, 0, 80, 59
1, 276447, Note_on_c, 0, 78, 8
1, 276500, Note_off_c, 0, 78, 35
1, 276566, Note_on_c, 0, 61, 50
1, 276595, Note_on_c, 0, 71, 53
1, 276599, Note_on_c, 0, 75, 46
1, 276628, Note_off_c, 0, 71, 51
1, 276634, Note_off_c, 0, 61, 57
1, 276640, Note_off_c, 0, 68, 35
1, 276777, Note_off_c, 0, 75, 57
1, 276798, Note_on_c, 0, 74, 49
1, 276804, Note_on_c, 0, 77, 51
1, 276905, Control_c, 0, 64, 109
1, 276920, Control_c, 0, 64, 84
1, 276935, Control_c, 0, 64, 66
1, 276939, Note_on_c, 0, 42, 43
1, 276944, Note_off_c, 0, 74, 47
1, 276950, Control_c, 0, 64, 12
1, 276965, Control_c, 0, 64, 56
1, 276979, Control_c, 0, 64, 65
1, 276994, Note_off_c, 0, 77, 64
1, 276994, Control_c, 0, 64, 72
1, 277007, Note_on_c, 0, 80, 69
1, 277009, Control_c, 0, 64, 85
1, 277024, Control_c, 0, 64, 101
1, 277038, Control_c, 0, 64, 119
1, 277042, Note_off_c, 0, 80, 62
1, 277053, Control_c, 0, 64, 127
1, 277207, Note_on_c, 0, 70, 52
1, 277239, Note_off_c, 0, 70, 49
1, 277245, Note_on_c, 0, 69, 46
1, 277246, Note_on_c, 0, 60, 32
1, 277287, Note_off_c, 0, 60, 47
1, 277351, Note_off_c, 0, 69, 57
1, 277372, Note_on_c, 0, 49, 55
1, 277381, Note_on_c, 0, 70, 57
1, 277391, Note_off_c, 0, 42, 49
1, 277406, Note_off_c, 0, 49, 63
1, 277469, Note_off_c, 0, 70, 54
1, 277571, Note_on_c, 0, 78, 70
1, 277600, Note_off_c, 0, 78, 67
1, 277746, Note_on_c, 0, 69, 55
1, 277764, Note_on_c, 0, 60, 41
1, 277899, Note_off_c, 0, 69, 58
1, 277900, Note_off_c, 0, 60, 31
1, 277916, Note_on_c, 0, 70, 62
1, 277956, Note_off_c, 0, 70, 63
1, 278088, Note_on_c, 0, 61, 56
1, 278091, Note_on_c, 0, 75, 67
1, 278130, Note_off_c, 0, 75, 57
1, 278156, Note_off_c, 0, 61, 51
1, 278283, Note_on_c, 0, 60, 55
1, 278294, Note_on_c, 0, 69, 40
1, 278384, Note_off_c, 0, 60, 51
1, 278396, Note_off_c, 0, 69, 54
1, 278442, Note_on_c, 0, 70, 57
1, 278465, Note_on_c, 0, 49, 43
1, 278490, Note_on_c, 0, 65, 17
1, 278507, Note_off_c, 0, 70, 58
1, 278536, Note_off_c, 0, 65, 44
1, 278632, Control_c, 0, 64, 105
1, 278647, Control_c, 0, 64, 80
1, 278649, Note_on_c, 0, 70, 70
1, 278662, Control_c, 0, 64, 59
1, 278677, Control_c, 0, 64, 52
1, 278691, Control_c, 0, 64, 63
1, 278707, Control_c, 0, 64, 67
1, 278716, Poly_aftertouch_c, 0, 61, 127
1, 278722, Control_c, 0, 64, 75
1, 278737, Control_c, 0, 64, 88
1, 278752, Control_c, 0, 64, 103
1, 278762, Poly_aftertouch_c, 0, 61, 0
1, 278766, Control_c, 0, 64, 122
1, 278781, Control_c, 0, 64, 127
1, 278792, Note_off_c, 0, 70, 53
1, 278850, Note_on_c, 0, 69, 54
1, 278857, Note_on_c, 0, 60, 48
1, 278865, Poly_aftertouch_c, 0, 65, 127
1, 278898, Note_off_c, 0, 60, 60
1, 278917, Poly_aftertouch_c, 0, 65, 0
1, 279000, Note_off_c, 0, 69, 60
1, 279034, Note_on_c, 0, 70, 61
1, 279063, Note_off_c, 0, 70, 66
1, 279089, Poly_aftertouch_c, 0, 61, 127
1, 279126, Poly_aftertouch_c, 0, 61, 0
1, 279314, Note_off_c, 0, 49, 37
1, 279323, Note_on_c, 0, 46, 42
1, 279367, Control_c, 0, 64, 107
1, 279382, Control_c, 0, 64, 87
1, 279396, Note_on_c, 0, 85, 54
1, 279397, Control_c, 0, 64, 72
1, 279404, Note_on_c, 0, 84, 44
1, 279412, Control_c, 0, 64, 58
1, 279426, Control_c, 0, 64, 0
1, 279471, Control_c, 0, 64, 39
1, 279486, Control_c, 0, 64, 59
1, 279501, Control_c, 0, 64, 66
1, 279515, Control_c, 0, 64, 73
1, 279530, Control_c, 0, 64, 83
1, 279545, Control_c, 0, 64, 93
1, 279559, Control_c, 0, 64, 100
1, 279574, Control_c, 0, 64, 107
1, 279589, Control_c, 0, 64, 122
1, 279604, Control_c, 0, 64, 127
1, 279701, Note_off_c, 0, 84, 55
1, 279711, Note_off_c, 0, 85, 46
1, 279735, Note_on_c, 0, 82, 40
1, 279743, Note_on_c, 0, 87, 40
1, 279889, Note_off_c, 0, 82, 61
1, 279927, Note_on_c, 0, 85, 49
1, 279934, Note_off_c, 0, 46, 50
1, 279935, Note_on_c, 0, 58, 43
1, 279938, Note_on_c, 0, 81, 53
1, 279984, Note_off_c, 0, 58, 61
1, 280011, Note_off_c, 0, 87, 32
1, 280118, Note_off_c, 0, 81, 61
1, 280119, Note_off_c, 0, 85, 55
1, 280140, Note_on_c, 0, 80, 49
1, 280140, Note_on_c, 0, 82, 42
1, 280167, Note_off_c, 0, 82, 61
1, 280173, Note_off_c, 0, 80, 61
1, 280309, Note_on_c, 0, 65, 41
1, 280325, Note_on_c, 0, 73, 50
1, 280328, Note_on_c, 0, 77, 49
1, 280357, Note_off_c, 0, 73, 64
1, 280373, Note_off_c, 0, 65, 57
1, 280499, Note_off_c, 0, 77, 31
1, 280512, Note_on_c, 0, 79, 51
1, 280516, Note_on_c, 0, 76, 26
1, 280542, Note_off_c, 0, 79, 66
1, 280550, Note_off_c, 0, 76, 45
1, 280679, Note_on_c, 0, 77, 50
1, 280685, Note_on_c, 0, 85, 48
1, 280748, Poly_aftertouch_c, 0, 83, 127
1, 280754, Poly_aftertouch_c, 0, 84, 127
1, 280787, Note_off_c, 0, 77, 51
1, 280820, Poly_aftertouch_c, 0, 83, 0
1, 280828, Poly_aftertouch_c, 0, 84, 0
1, 280856, Note_off_c, 0, 85, 63
1, 280871, Note_on_c, 0, 87, 61
1, 280876, Note_on_c, 0, 82, 49
1, 281001, Note_off_c, 0, 82, 59
1, 281048, Note_on_c, 0, 70, 51
1, 281052, Note_on_c, 0, 85, 52
1, 281056, Note_on_c, 0, 81, 51
1, 281088, Note_off_c, 0, 87, 0
1, 281192, Note_off_c, 0, 81, 65
1, 281193, Poly_aftertouch_c, 0, 87, 0
1, 281203, Note_off_c, 0, 85, 56
1, 281205, Note_on_c, 0, 82, 56
1, 281220, Note_on_c, 0, 80, 45
1, 281240, Note_off_c, 0, 82, 63
1, 281249, Note_off_c, 0, 80, 54
1, 281335, Note_on_c, 0, 63, 49
1, 281376, Note_off_c, 0, 70, 53
1, 281383, Note_on_c, 0, 73, 47
1, 281387, Note_on_c, 0, 77, 55
1, 281411, Note_off_c, 0, 63, 61
1, 281428, Note_off_c, 0, 73, 58
1, 281553, Note_off_c, 0, 77, 57
1, 281566, Note_on_c, 0, 79, 58
1, 281576, Note_on_c, 0, 76, 49
1, 281657, Control_c, 0, 64, 121
1, 281672, Control_c, 0, 64, 87
1, 281687, Control_c, 0, 64, 67
1, 281700, Note_on_c, 0, 44, 55
1, 281700, Note_off_c, 0, 76, 56
1, 281702, Control_c, 0, 64, 0
1, 281717, Control_c, 0, 64, 51
1, 281732, Control_c, 0, 64, 65
1, 281741, Note_off_c, 0, 79, 64
1, 281747, Control_c, 0, 64, 73
1, 281751, Note_on_c, 0, 82, 67
1, 281761, Control_c, 0, 64, 89
1, 281776, Control_c, 0, 64, 110
1, 281782, Note_off_c, 0, 82, 64
1, 281791, Control_c, 0, 64, 127
1, 281961, Note_on_c, 0, 70, 46
1, 281962, Note_on_c, 0, 74, 35
1, 281965, Note_on_c, 0, 65, 38
1, 282002, Note_off_c, 0, 65, 52
1, 282068, Note_off_c, 0, 44, 50
1, 282081, Note_on_c, 0, 56, 63
1, 282091, Note_off_c, 0, 74, 41
1, 282105, Note_on_c, 0, 75, 56
1, 282111, Note_off_c, 0, 56, 66
1, 282135, Note_on_c, 0, 66, 37
1, 282174, Note_off_c, 0, 70, 36
1, 282246, Note_off_c, 0, 75, 34
1, 282253, Note_off_c, 0, 66, 36
1, 282272, Note_on_c, 0, 80, 71
1, 282305, Note_off_c, 0, 80, 62
1, 282464, Note_on_c, 0, 65, 43
1, 282492, Note_off_c, 0, 65, 56
1, 282495, Note_on_c, 0, 74, 17
1, 282495, Note_on_c, 0, 75, 37
1, 282502, Note_on_c, 0, 70, 8
1, 282550, Note_off_c, 0, 74, 43
1, 282560, Note_off_c, 0, 70, 45
1, 282575, Note_off_c, 0, 75, 0
1, 282600, Note_on_c, 0, 75, 20
1, 282628, Note_on_c, 0, 66, 41
1, 282646, Note_off_c, 0, 75, 61
1, 282659, Note_off_c, 0, 66, 55
1, 282761, Note_on_c, 0, 66, 59
1, 282784, Note_on_c, 0, 78, 55
1, 282819, Note_off_c, 0, 66, 64
1, 282823, Note_off_c, 0, 78, 63
1, 282981, Note_on_c, 0, 62, 49
1, 282989, Note_on_c, 0, 70, 44
1, 283113, Note_off_c, 0, 70, 57
1, 283137, Note_on_c, 0, 71, 52
1, 283146, Note_on_c, 0, 56, 45
1, 283159, Note_off_c, 0, 62, 37
1, 283228, Poly_aftertouch_c, 0, 63, 127
1, 283236, Note_off_c, 0, 71, 48
1, 283265, Poly_aftertouch_c, 0, 63, 0
1, 283338, Note_on_c, 0, 68, 63
1, 283344, Note_off_c, 0, 56, 21
1, 283467, Control_c, 0, 64, 95
1, 283481, Control_c, 0, 64, 76
1, 283496, Control_c, 0, 64, 62
1, 283511, Control_c, 0, 64, 26
1, 283523, Note_on_c, 0, 62, 40
1, 283526, Control_c, 0, 64, 46
1, 283531, Note_on_c, 0, 58, 38
1, 283532, Note_on_c, 0, 44, 39
1, 283541, Control_c, 0, 64, 64
1, 283556, Control_c, 0, 64, 72
1, 283571, Control_c, 0, 64, 86
1, 283586, Control_c, 0, 64, 102
1, 283600, Control_c, 0, 64, 117
1, 283615, Control_c, 0, 64, 127
1, 283659, Note_off_c, 0, 58, 57
1, 283765, Note_on_c, 0, 63, 43
1, 283785, Note_on_c, 0, 59, 26
1, 283823, Control_c, 0, 67, 115
1, 283838, Control_c, 0, 67, 100
1, 283860, Control_c, 0, 67, 82
1, 283875, Control_c, 0, 67, 66
1, 283890, Control_c, 0, 67, 50
1, 283905, Control_c, 0, 67, 34
1, 283920, Control_c, 0, 67, 20
1, 283934, Control_c, 0, 67, 0
1, 284009, Control_c, 0, 64, 103
1, 284023, Control_c, 0, 64, 86
1, 284026, Note_on_c, 0, 37, 48
1, 284038, Control_c, 0, 64, 73
1, 284053, Control_c, 0, 64, 61
1, 284066, Note_off_c, 0, 44, 38
1, 284068, Control_c, 0, 64, 59
1, 284083, Control_c, 0, 64, 62
1, 284097, Control_c, 0, 64, 64
1, 284112, Control_c, 0, 64, 66
1, 284127, Control_c, 0, 64, 69
1, 284142, Control_c, 0, 64, 74
1, 284156, Control_c, 0, 64, 85
1, 284171, Control_c, 0, 64, 96
1, 284186, Control_c, 0, 64, 104
1, 284201, Control_c, 0, 64, 111
1, 284216, Control_c, 0, 64, 127
1, 284278, Note_off_c, 0, 62, 0
1, 284290, Note_off_c, 0, 63, 59
1, 284304, Note_off_c, 0, 59, 41
1, 284316, Poly_aftertouch_c, 0, 62, 127
1, 284322, Note_on_c, 0, 70, 49
1, 284513, Poly_aftertouch_c, 0, 62, 0
1, 284527, Note_on_c, 0, 62, 38
1, 284531, Note_off_c, 0, 70, 48
1, 284549, Note_off_c, 0, 68, 44
1, 284549, Note_on_c, 0, 58, 62
1, 284551, Note_on_c, 0, 65, 62
1, 284801, Note_on_c, 0, 68, 53
1, 284852, Note_off_c, 0, 62, 52
1, 284918, Note_off_c, 0, 58, 57
1, 285031, Note_on_c, 0, 59, 62
1, 285034, Note_on_c, 0, 63, 68
1, 285362, Note_off_c, 0, 65, 8
1, 285401, Control_c, 0, 64, 113
1, 285416, Control_c, 0, 64, 87
1, 285423, Note_on_c, 0, 49, 75
1, 285431, Control_c, 0, 64, 67
1, 285447, Control_c, 0, 64, 0
1, 285520, Control_c, 0, 64, 51
1, 285535, Control_c, 0, 64, 65
1, 285550, Control_c, 0, 64, 72
1, 285565, Control_c, 0, 64, 77
1, 285580, Control_c, 0, 64, 80
1, 285595, Control_c, 0, 64, 83
1, 285602, Note_off_c, 0, 63, 63
1, 285606, Note_on_c, 0, 70, 66
1, 285610, Control_c, 0, 64, 88
1, 285612, Note_off_c, 0, 59, 41
1, 285625, Control_c, 0, 64, 94
1, 285640, Control_c, 0, 64, 103
1, 285654, Control_c, 0, 64, 127
1, 285783, Note_off_c, 0, 70, 60
1, 285784, Note_off_c, 0, 68, 45
1, 285789, Note_on_c, 0, 62, 68
1, 285792, Note_on_c, 0, 58, 75
1, 285800, Note_on_c, 0, 65, 68
1, 285802, Control_c, 0, 64, 97
1, 285817, Control_c, 0, 64, 79
1, 285832, Control_c, 0, 64, 65
1, 285846, Control_c, 0, 64, 41
1, 285861, Control_c, 0, 64, 51
1, 285876, Control_c, 0, 64, 62
1, 285891, Control_c, 0, 64, 65
1, 285906, Control_c, 0, 64, 70
1, 285920, Control_c, 0, 64, 78
1, 285935, Control_c, 0, 64, 87
1, 285950, Control_c, 0, 64, 96
1, 285965, Control_c, 0, 64, 101
1, 285980, Control_c, 0, 64, 111
1, 285994, Control_c, 0, 64, 127
1, 286011, Note_on_c, 0, 68, 59
1, 286038, Note_off_c, 0, 62, 57
1, 286154, Note_off_c, 0, 58, 61
1, 286225, Control_c, 0, 64, 113
1, 286240, Control_c, 0, 64, 89
1, 286245, Note_on_c, 0, 59, 58
1, 286253, Note_on_c, 0, 63, 61
1, 286255, Control_c, 0, 64, 68
1, 286269, Control_c, 0, 64, 0
1, 286269, Control_c, 0, 67, 13
1, 286284, Control_c, 0, 67, 23
1, 286299, Control_c, 0, 67, 35
1, 286314, Control_c, 0, 67, 48
1, 286329, Control_c, 0, 64, 55
1, 286329, Control_c, 0, 67, 63
1, 286343, Note_off_c, 0, 37, 59
1, 286343, Control_c, 0, 64, 67
1, 286343, Control_c, 0, 67, 80
1, 286358, Control_c, 0, 64, 74
1, 286358, Control_c, 0, 67, 99
1, 286373, Control_c, 0, 64, 79
1, 286373, Control_c, 0, 67, 119
1, 286388, Control_c, 0, 64, 81
1, 286388, Control_c, 0, 67, 127
1, 286403, Control_c, 0, 64, 83
1, 286418, Control_c, 0, 64, 85
1, 286429, Note_off_c, 0, 49, 52
1, 286432, Control_c, 0, 64, 88
1, 286447, Control_c, 0, 64, 90
1, 286462, Control_c, 0, 64, 91
1, 286477, Control_c, 0, 64, 93
1, 286492, Control_c, 0, 64, 94
1, 286507, Control_c, 0, 64, 96
1, 286522, Control_c, 0, 64, 96
1, 286537, Control_c, 0, 64, 97
1, 286551, Control_c, 0, 64, 97
1, 286566, Control_c, 0, 64, 98
1, 286581, Control_c, 0, 64, 99
1, 286596, Control_c, 0, 64, 99
1, 286611, Control_c, 0, 64, 100
1, 286625, Control_c, 0, 64, 100
1, 286640, Control_c, 0, 64, 101
1, 286669, Control_c, 0, 64, 101
1, 286773, Control_c, 0, 64, 101
1, 286788, Control_c, 0, 64, 95
1, 286803, Control_c, 0, 64, 86
1, 286811, Note_on_c, 0, 47, 43
1, 286817, Control_c, 0, 64, 77
1, 286832, Control_c, 0, 64, 66
1, 286855, Control_c, 0, 64, 41
1, 286871, Control_c, 0, 64, 37
1, 286886, Control_c, 0, 64, 52
1, 286892, Note_off_c, 0, 65, 1
1, 286900, Control_c, 0, 64, 61
1, 286915, Control_c, 0, 64, 65
1, 286930, Control_c, 0, 64, 68
1, 286945, Control_c, 0, 64, 74
1, 286960, Control_c, 0, 64, 81
1, 286974, Control_c, 0, 64, 87
1, 286989, Control_c, 0, 64, 91
1, 287004, Control_c, 0, 64, 95
1, 287019, Control_c, 0, 64, 99
1, 287034, Control_c, 0, 64, 103
1, 287048, Control_c, 0, 64, 109
1, 287063, Control_c, 0, 64, 114
1, 287078, Control_c, 0, 64, 121
1, 287092, Control_c, 0, 64, 127
1, 287172, Note_off_c, 0, 59, 32
1, 287193, Note_off_c, 0, 63, 53
1, 287206, Note_on_c, 0, 69, 49
1, 287291, Note_off_c, 0, 68, 26
1, 287463, Control_c, 0, 64, 99
1, 287478, Control_c, 0, 64, 84
1, 287482, Note_off_c, 0, 69, 47
1, 287492, Control_c, 0, 64, 71
1, 287498, Note_on_c, 0, 57, 38
1, 287503, Note_on_c, 0, 62, 36
1, 287504, Note_on_c, 0, 60, 48
1, 287507, Control_c, 0, 64, 64
1, 287512, Note_on_c, 0, 65, 37
1, 287522, Control_c, 0, 64, 65
1, 287537, Control_c, 0, 64, 68
1, 287552, Control_c, 0, 64, 71
1, 287566, Control_c, 0, 64, 76
1, 287581, Control_c, 0, 64, 84
1, 287604, Control_c, 0, 64, 91
1, 287618, Control_c, 0, 64, 96
1, 287633, Control_c, 0, 64, 102
1, 287648, Control_c, 0, 64, 110
1, 287663, Control_c, 0, 64, 126
1, 287678, Control_c, 0, 64, 127
1, 287708, Control_c, 0, 67, 122
1, 287723, Control_c, 0, 67, 107
1, 287738, Control_c, 0, 67, 91
1, 287749, Note_off_c, 0, 65, 45
1, 287753, Control_c, 0, 67, 74
1, 287756, Note_off_c, 0, 60, 54
1, 287768, Control_c, 0, 67, 56
1, 287771, Note_off_c, 0, 62, 40
1, 287777, Note_on_c, 0, 68, 46
1, 287783, Control_c, 0, 67, 36
1, 287797, Control_c, 0, 67, 12
1, 287804, Note_off_c, 0, 57, 58
1, 287812, Control_c, 0, 67, 0
1, 287846, Note_off_c, 0, 47, 56
1, 287929, Note_off_c, 0, 68, 58
1, 287975, Note_on_c, 0, 61, 48
1, 287990, Note_on_c, 0, 63, 41
1, 288046, Note_off_c, 0, 63, 59
1, 288197, Note_on_c, 0, 73, 59
1, 288208, Note_off_c, 0, 61, 57
1, 288370, Note_off_c, 0, 73, 60
1, 288382, Control_c, 0, 64, 103
1, 288397, Control_c, 0, 64, 78
1, 288397, Note_on_c, 0, 40, 48
1, 288412, Note_on_c, 0, 47, 37
1, 288412, Control_c, 0, 64, 61
1, 288416, Note_on_c, 0, 63, 51
1, 288416, Note_on_c, 0, 67, 49
1, 288427, Control_c, 0, 64, 18
1, 288440, Control_c, 0, 64, 57
1, 288455, Control_c, 0, 64, 65
1, 288471, Control_c, 0, 64, 73
1, 288477, Note_off_c, 0, 40, 60
1, 288486, Control_c, 0, 64, 86
1, 288497, Note_off_c, 0, 47, 59
1, 288501, Control_c, 0, 64, 105
1, 288516, Control_c, 0, 64, 127
1, 288563, Note_off_c, 0, 63, 61
1, 288617, Note_off_c, 0, 67, 59
1, 288623, Note_on_c, 0, 71, 56
1, 288660, Note_off_c, 0, 71, 63
1, 288827, Note_on_c, 0, 56, 43
1, 288843, Note_on_c, 0, 72, 57
1, 289017, Note_off_c, 0, 72, 60
1, 289036, Note_on_c, 0, 75, 52
1, 289040, Note_on_c, 0, 71, 46
1, 289283, Note_on_c, 0, 68, 45
1, 289285, Note_on_c, 0, 73, 53
1, 289290, Note_off_c, 0, 75, 56
1, 289303, Note_off_c, 0, 71, 56
1, 289356, Note_off_c, 0, 68, 58
1, 289422, Note_off_c, 0, 56, 51
1, 289592, Note_on_c, 0, 80, 47
1, 289611, Note_off_c, 0, 73, 58
1, 289849, Control_c, 0, 64, 99
1, 289864, Control_c, 0, 64, 81
1, 289865, Note_on_c, 0, 45, 44
1, 289879, Control_c, 0, 64, 67
1, 289893, Control_c, 0, 64, 55
1, 289908, Control_c, 0, 64, 49
1, 289923, Control_c, 0, 64, 54
1, 289938, Control_c, 0, 64, 63
1, 289953, Control_c, 0, 64, 68
1, 289968, Control_c, 0, 64, 77
1, 289983, Control_c, 0, 64, 94
1, 289998, Control_c, 0, 64, 127
1, 290010, Note_off_c, 0, 45, 53
1, 290272, Note_on_c, 0, 81, 52
1, 290402, Note_off_c, 0, 80, 32
1, 290472, Note_on_c, 0, 60, 42
1, 290476, Note_on_c, 0, 56, 40
1, 290484, Note_on_c, 0, 51, 42
1, 290495, Note_on_c, 0, 77, 47
1, 290510, Note_on_c, 0, 72, 50
1, 290668, Note_off_c, 0, 56, 54
1, 290729, Note_on_c, 0, 80, 57
1, 290742, Note_off_c, 0, 72, 61
1, 290764, Note_off_c, 0, 60, 59
1, 290818, Note_off_c, 0, 81, 39
1, 290934, Note_on_c, 0, 52, 53
1, 290934, Note_on_c, 0, 73, 59
1, 290940, Note_on_c, 0, 61, 53
1, 290945, Note_on_c, 0, 57, 27
1, 290981, Note_off_c, 0, 51, 35
1, 290995, Note_off_c, 0, 57, 59
1, 291000, Note_off_c, 0, 77, 37
1, 291038, Note_off_c, 0, 52, 62
1, 291044, Note_off_c, 0, 61, 60
1, 291336, Note_on_c, 0, 41, 57
1, 291346, Control_c, 0, 64, 96
1, 291361, Control_c, 0, 64, 77
1, 291376, Control_c, 0, 64, 61
1, 291390, Control_c, 0, 64, 0
1, 291420, Control_c, 0, 64, 57
1, 291435, Control_c, 0, 64, 69
1, 291450, Control_c, 0, 64, 79
1, 291464, Control_c, 0, 64, 92
1, 291479, Control_c, 0, 64, 104
1, 291484, Note_off_c, 0, 41, 64
1, 291494, Control_c, 0, 64, 121
1, 291509, Control_c, 0, 64, 127
1, 291545, Note_on_c, 0, 81, 71
1, 291667, Note_off_c, 0, 73, 57
1, 291715, Note_off_c, 0, 80, 45
1, 291724, Note_on_c, 0, 72, 69
1, 291735, Note_on_c, 0, 77, 57
1, 291736, Note_on_c, 0, 56, 44
1, 291736, Note_on_c, 0, 60, 52
1, 291738, Note_on_c, 0, 51, 49
1, 291747, Control_c, 0, 64, 89
1, 291762, Control_c, 0, 64, 68
1, 291762, Control_c, 0, 67, 12
1, 291777, Control_c, 0, 64, 0
1, 291777, Control_c, 0, 67, 21
1, 291792, Control_c, 0, 67, 35
1, 291806, Control_c, 0, 67, 53
1, 291821, Control_c, 0, 64, 56
1, 291821, Control_c, 0, 67, 75
1, 291834, Note_off_c, 0, 81, 38
1, 291836, Control_c, 0, 64, 66
1, 291836, Control_c, 0, 67, 101
1, 291851, Control_c, 0, 64, 72
1, 291851, Control_c, 0, 67, 120
1, 291866, Control_c, 0, 64, 80
1, 291866, Control_c, 0, 67, 127
1, 291880, Control_c, 0, 64, 88
1, 291895, Control_c, 0, 64, 92
1, 291910, Control_c, 0, 64, 96
1, 291918, Note_off_c, 0, 56, 61
1, 291925, Control_c, 0, 64, 101
1, 291929, Note_off_c, 0, 60, 56
1, 291936, Note_off_c, 0, 72, 60
1, 291939, Control_c, 0, 64, 107
1, 291946, Note_on_c, 0, 80, 64
1, 291954, Control_c, 0, 64, 116
1, 291969, Control_c, 0, 64, 127
1, 292139, Control_c, 0, 64, 112
1, 292154, Control_c, 0, 64, 94
1, 292169, Control_c, 0, 64, 80
1, 292185, Control_c, 0, 64, 68
1, 292190, Note_on_c, 0, 52, 45
1, 292200, Control_c, 0, 64, 55
1, 292201, Note_on_c, 0, 61, 45
1, 292201, Note_off_c, 0, 51, 37
1, 292204, Note_on_c, 0, 57, 29
1, 292209, Note_on_c, 0, 73, 35
1, 292214, Control_c, 0, 64, 56
1, 292229, Control_c, 0, 64, 63
1, 292244, Control_c, 0, 64, 66
1, 292259, Control_c, 0, 64, 70
1, 292264, Note_off_c, 0, 77, 37
1, 292274, Control_c, 0, 64, 78
1, 292288, Control_c, 0, 64, 88
1, 292290, Note_off_c, 0, 57, 51
1, 292303, Control_c, 0, 64, 96
1, 292317, Note_off_c, 0, 52, 50
1, 292318, Control_c, 0, 64, 102
1, 292332, Control_c, 0, 64, 111
1, 292346, Note_off_c, 0, 61, 37
1, 292347, Control_c, 0, 64, 127
1, 292859, Control_c, 0, 64, 111
1, 292874, Control_c, 0, 64, 92
1, 292889, Note_on_c, 0, 35, 46
1, 292889, Control_c, 0, 64, 77
1, 292904, Control_c, 0, 64, 64
1, 292919, Control_c, 0, 64, 40
1, 292934, Control_c, 0, 64, 43
1, 292949, Control_c, 0, 64, 57
1, 292963, Control_c, 0, 64, 63
1, 292978, Control_c, 0, 64, 67
1, 292993, Control_c, 0, 64, 72
1, 293008, Control_c, 0, 64, 82
1, 293023, Control_c, 0, 64, 93
1, 293036, Note_off_c, 0, 35, 0
1, 293037, Control_c, 0, 64, 106
1, 293052, Control_c, 0, 64, 120
1, 293067, Control_c, 0, 64, 127
1, 293074, Poly_aftertouch_c, 0, 35, 0
1, 293296, Note_on_c, 0, 81, 53
1, 293448, Note_off_c, 0, 73, 43
1, 293522, Note_off_c, 0, 80, 36
1, 293547, Note_on_c, 0, 56, 33
1, 293547, Note_on_c, 0, 72, 47
1, 293547, Note_on_c, 0, 77, 48
1, 293555, Note_on_c, 0, 51, 40
1, 293559, Note_on_c, 0, 60, 36
1, 293686, Note_off_c, 0, 81, 36
1, 293706, Note_off_c, 0, 60, 55
1, 293739, Note_off_c, 0, 72, 60
1, 293760, Note_off_c, 0, 56, 40
1, 293783, Note_on_c, 0, 80, 58
1, 293986, Note_on_c, 0, 52, 39
1, 293989, Note_off_c, 0, 51, 39
1, 293995, Note_off_c, 0, 80, 55
1, 293998, Note_on_c, 0, 57, 31
1, 294004, Note_on_c, 0, 61, 39
1, 294013, Note_on_c, 0, 73, 49
1, 294074, Note_off_c, 0, 57, 55
1, 294117, Note_off_c, 0, 77, 30
1, 294126, Note_off_c, 0, 61, 60
1, 294145, Note_off_c, 0, 52, 51
1, 294201, Note_off_c, 0, 73, 55
1, 294263, Note_on_c, 0, 85, 58
1, 294344, Note_off_c, 0, 85, 60
1, 294535, Control_c, 0, 64, 110
1, 294548, Note_on_c, 0, 75, 47
1, 294549, Control_c, 0, 64, 88
1, 294551, Note_on_c, 0, 79, 51
1, 294557, Note_on_c, 0, 47, 35
1, 294561, Note_on_c, 0, 40, 40
1, 294561, Note_on_c, 0, 70, 36
1, 294564, Control_c, 0, 64, 71
1, 294579, Control_c, 0, 64, 56
1, 294594, Control_c, 0, 64, 38
1, 294609, Control_c, 0, 64, 58
1, 294624, Control_c, 0, 64, 67
1, 294639, Control_c, 0, 64, 74
1, 294653, Control_c, 0, 64, 86
1, 294668, Control_c, 0, 64, 98
1, 294683, Control_c, 0, 64, 110
1, 294693, Note_off_c, 0, 70, 53
1, 294698, Control_c, 0, 64, 127
1, 294722, Note_off_c, 0, 40, 41
1, 294737, Note_off_c, 0, 47, 50
1, 294827, Note_off_c, 0, 75, 57
1, 294857, Note_off_c, 0, 79, 62
1, 294866, Note_on_c, 0, 85, 59
1, 294935, Note_off_c, 0, 85, 62
1, 295239, Control_c, 0, 64, 99
1, 295248, Note_on_c, 0, 80, 46
1, 295254, Control_c, 0, 64, 81
1, 295256, Note_on_c, 0, 56, 42
1, 295256, Note_on_c, 0, 76, 41
1, 295257, Note_on_c, 0, 71, 27
1, 295263, Note_on_c, 0, 64, 36
1, 295269, Control_c, 0, 64, 68
1, 295283, Control_c, 0, 64, 63
1, 295298, Control_c, 0, 64, 65
1, 295313, Control_c, 0, 64, 70
1, 295328, Control_c, 0, 64, 79
1, 295343, Control_c, 0, 64, 90
1, 295357, Control_c, 0, 64, 101
1, 295372, Control_c, 0, 64, 108
1, 295373, Note_off_c, 0, 71, 44
1, 295380, Note_off_c, 0, 80, 59
1, 295387, Note_off_c, 0, 76, 61
1, 295387, Control_c, 0, 64, 120
1, 295402, Control_c, 0, 64, 127
1, 295604, Note_off_c, 0, 56, 42
1, 295638, Note_off_c, 0, 64, 40
1, 295726, Note_on_c, 0, 83, 44
1, 295745, Note_on_c, 0, 73, 42
1, 295789, Note_off_c, 0, 73, 61
1, 295813, Note_off_c, 0, 83, 62
1, 296538, Note_on_c, 0, 80, 44
1, 296550, Note_on_c, 0, 88, 49
1, 296559, Note_on_c, 0, 76, 37
1, 296568, Note_on_c, 0, 68, 40
1, 296579, Note_on_c, 0, 71, 33
1, 296679, Note_off_c, 0, 76, 46
1, 296687, Note_off_c, 0, 88, 58
1, 296695, Note_off_c, 0, 80, 37
1, 296701, Note_off_c, 0, 68, 35
1, 296717, Note_off_c, 0, 71, 41
1, 297077, Control_c, 0, 67, 126
1, 297092, Control_c, 0, 67, 123
1, 297107, Control_c, 0, 67, 120
1, 297122, Control_c, 0, 67, 117
1, 297137, Control_c, 0, 67, 114
1, 297152, Control_c, 0, 67, 109
1, 297167, Control_c, 0, 67, 105
1, 297182, Control_c, 0, 67, 101
1, 297196, Control_c, 0, 67, 99
1, 297211, Control_c, 0, 67, 96
1, 297226, Control_c, 0, 67, 93
1, 297241, Control_c, 0, 67, 90
1, 297256, Control_c, 0, 67, 86
1, 297271, Control_c, 0, 67, 83
1, 297286, Control_c, 0, 67, 80
1, 297301, Control_c, 0, 67, 77
1, 297316, Control_c, 0, 67, 74
1, 297338, Control_c, 0, 67, 70
1, 297352, Control_c, 0, 67, 66
1, 297367, Control_c, 0, 67, 61
1, 297382, Control_c, 0, 67, 57
1, 297397, Control_c, 0, 67, 53
1, 297412, Control_c, 0, 67, 49
1, 297426, Control_c, 0, 67, 44
1, 297441, Control_c, 0, 67, 40
1, 297456, Control_c, 0, 67, 35
1, 297471, Control_c, 0, 67, 31
1, 297486, Control_c, 0, 67, 26
1, 297501, Control_c, 0, 67, 22
1, 297515, Control_c, 0, 67, 16
1, 297530, Control_c, 0, 67, 12
1, 297545, Control_c, 0, 67, 8
1, 297560, Control_c, 0, 67, 0
1, 298064, Control_c, 0, 64, 121
1, 298087, Control_c, 0, 64, 114
1, 298101, Control_c, 0, 64, 110
1, 298116, Control_c, 0, 64, 103
1, 298131, Control_c, 0, 64, 96
1, 298146, Control_c, 0, 64, 88
1, 298161, Control_c, 0, 64, 79
1, 298175, Control_c, 0, 64, 69
1, 298175, Control_c, 0, 67, 12
1, 298190, Control_c, 0, 64, 57
1, 298190, Control_c, 0, 67, 25
1, 298205, Control_c, 0, 64, 0
1, 298205, Control_c, 0, 67, 48
1, 298220, Control_c, 0, 67, 78
1, 298234, Control_c, 0, 67, 107
1, 298249, Control_c, 0, 67, 127
1, 299012, Note_on_c, 0, 49, 38
1, 299018, Note_on_c, 0, 56, 46
1, 299331, Note_off_c, 0, 56, 60
1, 299340, Note_on_c, 0, 57, 51
1, 299557, Note_off_c, 0, 57, 55
1, 299572, Note_on_c, 0, 67, 46
1, 299572, Note_on_c, 0, 65, 48
1, 299594, Note_off_c, 0, 49, 52
1, 299612, Note_on_c, 0, 53, 30
1, 299614, Note_on_c, 0, 55, 35
1, 299617, Note_off_c, 0, 65, 63
1, 299647, Note_off_c, 0, 67, 53
1, 299780, Note_on_c, 0, 58, 59
1, 299910, Control_c, 0, 64, 56
1, 299925, Control_c, 0, 64, 66
1, 299939, Control_c, 0, 64, 70
1, 299942, Note_off_c, 0, 58, 63
1, 299954, Control_c, 0, 64, 75
1, 299963, Note_on_c, 0, 59, 62
1, 299968, Note_on_c, 0, 43, 50
1, 299969, Control_c, 0, 64, 80
1, 299969, Control_c, 0, 67, 114
1, 299979, Note_off_c, 0, 53, 59
1, 299981, Note_off_c, 0, 55, 53
1, 299984, Control_c, 0, 64, 85
1, 299984, Control_c, 0, 67, 96
1, 299999, Control_c, 0, 64, 90
1, 299999, Control_c, 0, 67, 79
1, 300013, Control_c, 0, 64, 95
1, 300013, Control_c, 0, 67, 61
1, 300018, Note_off_c, 0, 43, 60
1, 300028, Control_c, 0, 64, 99
1, 300028, Control_c, 0, 67, 47
1, 300043, Control_c, 0, 64, 104
1, 300043, Control_c, 0, 67, 37
1, 300058, Control_c, 0, 64, 111
1, 300058, Control_c, 0, 67, 29
1, 300073, Control_c, 0, 64, 127
1, 300073, Control_c, 0, 67, 23
1, 300088, Control_c, 0, 67, 19
1, 300091, Note_off_c, 0, 59, 57
1, 300103, Control_c, 0, 67, 16
1, 300118, Control_c, 0, 67, 12
1, 300129, Note_on_c, 0, 65, 46
1, 300133, Control_c, 0, 67, 0
1, 300136, Note_on_c, 0, 69, 63
1, 300139, Note_on_c, 0, 67, 57
1, 300155, Note_off_c, 0, 65, 59
1, 300170, Note_off_c, 0, 67, 65
1, 300183, Note_off_c, 0, 69, 54
1, 300221, Control_c, 0, 64, 110
1, 300236, Control_c, 0, 64, 88
1, 300251, Control_c, 0, 64, 70
1, 300265, Control_c, 0, 64, 0
1, 300320, Note_on_c, 0, 63, 63
1, 300331, Note_on_c, 0, 36, 61
1, 300347, Control_c, 0, 64, 60
1, 300362, Control_c, 0, 64, 71
1, 300370, Note_off_c, 0, 36, 65
1, 300377, Control_c, 0, 64, 82
1, 300392, Control_c, 0, 64, 93
1, 300406, Control_c, 0, 64, 101
1, 300421, Control_c, 0, 64, 112
1, 300436, Control_c, 0, 64, 127
1, 300458, Note_off_c, 0, 63, 63
1, 300486, Note_on_c, 0, 64, 72
1, 300624, Note_off_c, 0, 64, 62
1, 300652, Note_on_c, 0, 74, 74
1, 300665, Note_on_c, 0, 55, 63
1, 300669, Note_on_c, 0, 57, 59
1, 300693, Note_off_c, 0, 57, 61
1, 300694, Note_off_c, 0, 55, 65
1, 300706, Poly_aftertouch_c, 0, 69, 0
1, 300707, Note_off_c, 0, 74, 62
1, 300733, Control_c, 0, 64, 106
1, 300748, Control_c, 0, 64, 81
1, 300763, Control_c, 0, 64, 58
1, 300777, Control_c, 0, 64, 0
1, 300826, Note_on_c, 0, 31, 74
1, 300834, Note_on_c, 0, 66, 78
1, 300851, Control_c, 0, 64, 64
1, 300857, Note_off_c, 0, 31, 67
1, 300866, Control_c, 0, 64, 77
1, 300881, Control_c, 0, 64, 92
1, 300896, Control_c, 0, 64, 115
1, 300911, Control_c, 0, 64, 127
1, 300970, Note_off_c, 0, 66, 64
1, 301001, Note_on_c, 0, 67, 71
1, 301125, Note_off_c, 0, 67, 60
1, 301161, Note_on_c, 0, 76, 72
1, 301164, Note_on_c, 0, 64, 67
1, 301168, Note_on_c, 0, 60, 57
1, 301184, Note_off_c, 0, 64, 65
1, 301191, Note_off_c, 0, 60, 57
1, 301226, Note_off_c, 0, 76, 57
1, 301259, Control_c, 0, 64, 108
1, 301274, Control_c, 0, 64, 79
1, 301289, Control_c, 0, 64, 27
1, 301304, Control_c, 0, 64, 0
1, 301325, Note_on_c, 0, 37, 73
1, 301340, Note_on_c, 0, 70, 76
1, 301364, Control_c, 0, 64, 53
1, 301378, Control_c, 0, 64, 70
1, 301393, Control_c, 0, 64, 85
1, 301396, Note_off_c, 0, 37, 62
1, 301408, Control_c, 0, 64, 121
1, 301423, Control_c, 0, 64, 127
1, 301479, Note_off_c, 0, 70, 62
1, 301496, Note_on_c, 0, 71, 82
1, 301649, Note_on_c, 0, 65, 70
1, 301652, Note_on_c, 0, 76, 69
1, 301652, Note_on_c, 0, 79, 81
1, 301677, Note_off_c, 0, 65, 67
1, 301678, Note_on_c, 0, 59, 58
1, 301702, Note_off_c, 0, 71, 55
1, 301710, Note_off_c, 0, 59, 66
1, 301808, Note_on_c, 0, 73, 82
1, 301828, Note_off_c, 0, 76, 63
1, 301831, Note_off_c, 0, 79, 59
1, 301969, Note_on_c, 0, 74, 85
1, 301972, Note_on_c, 0, 43, 69
1, 301973, Note_off_c, 0, 73, 64
1, 302015, Note_off_c, 0, 43, 59
1, 302121, Note_on_c, 0, 82, 81
1, 302146, Note_off_c, 0, 74, 63
1, 302216, Control_c, 0, 67, 10
1, 302231, Control_c, 0, 64, 91
1, 302231, Control_c, 0, 67, 20
1, 302246, Control_c, 0, 64, 71
1, 302246, Control_c, 0, 67, 36
1, 302252, Note_on_c, 0, 48, 62
1, 302261, Control_c, 0, 64, 0
1, 302261, Control_c, 0, 67, 63
1, 302276, Control_c, 0, 67, 100
1, 302276, Note_on_c, 0, 75, 76
1, 302278, Note_on_c, 0, 78, 77
1, 302282, Note_off_c, 0, 82, 57
1, 302291, Control_c, 0, 67, 127
1, 302321, Control_c, 0, 64, 33
1, 302336, Control_c, 0, 64, 64
1, 302350, Control_c, 0, 64, 71
1, 302365, Control_c, 0, 64, 80
1, 302380, Control_c, 0, 64, 89
1, 302394, Control_c, 0, 64, 95
1, 302395, Note_off_c, 0, 75, 62
1, 302409, Control_c, 0, 64, 103
1, 302417, Note_off_c, 0, 48, 36
1, 302424, Control_c, 0, 64, 114
1, 302428, Note_off_c, 0, 78, 61
1, 302439, Control_c, 0, 64, 127
1, 302447, Note_on_c, 0, 86, 82
1, 302449, Note_on_c, 0, 55, 63
1, 302459, Note_on_c, 0, 81, 59
1, 302554, Note_off_c, 0, 81, 60
1, 302593, Note_on_c, 0, 79, 76
1, 302595, Note_off_c, 0, 86, 61
1, 302600, Note_on_c, 0, 64, 56
1, 302611, Note_on_c, 0, 76, 70
1, 302628, Note_off_c, 0, 79, 60
1, 302649, Note_off_c, 0, 76, 61
1, 302651, Note_off_c, 0, 64, 59
1, 302727, Control_c, 0, 64, 98
1, 302742, Control_c, 0, 64, 77
1, 302757, Control_c, 0, 64, 56
1, 302771, Note_on_c, 0, 48, 58
1, 302772, Control_c, 0, 64, 0
1, 302774, Note_on_c, 0, 72, 71
1, 302801, Control_c, 0, 64, 61
1, 302816, Control_c, 0, 64, 70
1, 302817, Note_off_c, 0, 55, 42
1, 302831, Control_c, 0, 64, 81
1, 302847, Control_c, 0, 64, 91
1, 302859, Note_off_c, 0, 48, 50
1, 302862, Control_c, 0, 64, 98
1, 302877, Control_c, 0, 64, 104
1, 302891, Control_c, 0, 64, 111
1, 302906, Control_c, 0, 64, 127
1, 302917, Note_off_c, 0, 72, 52
1, 302962, Note_on_c, 0, 63, 39
1, 303114, Control_c, 0, 64, 115
1, 303129, Control_c, 0, 64, 90
1, 303143, Control_c, 0, 64, 73
1, 303158, Control_c, 0, 64, 53
1, 303161, Note_on_c, 0, 71, 52
1, 303162, Note_on_c, 0, 66, 48
1, 303170, Note_on_c, 0, 43, 34
1, 303173, Control_c, 0, 64, 40
1, 303183, Note_off_c, 0, 63, 37
1, 303188, Control_c, 0, 64, 62
1, 303196, Note_off_c, 0, 66, 64
1, 303203, Control_c, 0, 64, 69
1, 303204, Note_off_c, 0, 71, 63
1, 303217, Control_c, 0, 64, 79
1, 303232, Control_c, 0, 64, 92
1, 303247, Control_c, 0, 64, 103
1, 303262, Control_c, 0, 64, 110
1, 303277, Control_c, 0, 64, 119
1, 303291, Control_c, 0, 64, 127
1, 303416, Control_c, 0, 64, 111
1, 303431, Control_c, 0, 64, 96
1, 303439, Note_on_c, 0, 56, 54
1, 303445, Note_on_c, 0, 49, 47
1, 303446, Control_c, 0, 64, 81
1, 303461, Control_c, 0, 64, 66
1, 303469, Note_off_c, 0, 43, 36
1, 303476, Control_c, 0, 64, 0
1, 303709, Note_off_c, 0, 56, 61
1, 303710, Note_on_c, 0, 57, 49
1, 303915, Note_off_c, 0, 57, 52
1, 303915, Note_on_c, 0, 67, 49
1, 303918, Note_on_c, 0, 65, 59
1, 303936, Note_off_c, 0, 49, 59
1, 303941, Note_on_c, 0, 53, 39
1, 303948, Note_on_c, 0, 55, 45
1, 303958, Note_off_c, 0, 65, 64
1, 303963, Note_off_c, 0, 67, 60
1, 304110, Note_on_c, 0, 58, 59
1, 304224, Control_c, 0, 64, 30
1, 304238, Control_c, 0, 64, 59
1, 304238, Control_c, 0, 67, 127
1, 304253, Control_c, 0, 64, 66
1, 304253, Control_c, 0, 67, 103
1, 304255, Note_off_c, 0, 58, 63
1, 304263, Note_off_c, 0, 55, 57
1, 304268, Control_c, 0, 64, 73
1, 304268, Control_c, 0, 67, 79
1, 304276, Note_on_c, 0, 43, 52
1, 304283, Control_c, 0, 64, 80
1, 304283, Control_c, 0, 67, 52
1, 304284, Note_on_c, 0, 59, 61
1, 304294, Note_off_c, 0, 53, 62
1, 304297, Control_c, 0, 64, 84
1, 304297, Control_c, 0, 67, 27
1, 304312, Control_c, 0, 64, 88
1, 304312, Control_c, 0, 67, 0
1, 304327, Control_c, 0, 64, 93
1, 304331, Note_off_c, 0, 43, 60
1, 304342, Control_c, 0, 64, 100
1, 304357, Control_c, 0, 64, 109
1, 304372, Control_c, 0, 64, 127
1, 304418, Note_off_c, 0, 59, 57
1, 304441, Note_on_c, 0, 65, 53
1, 304447, Note_on_c, 0, 69, 65
1, 304457, Note_on_c, 0, 67, 54
1, 304471, Note_off_c, 0, 65, 65
1, 304476, Control_c, 0, 64, 111
1, 304488, Note_off_c, 0, 67, 63
1, 304490, Note_off_c, 0, 69, 58
1, 304491, Control_c, 0, 64, 85
1, 304506, Control_c, 0, 64, 49
1, 304521, Control_c, 0, 64, 0
1, 304614, Note_on_c, 0, 63, 64
1, 304625, Note_on_c, 0, 36, 54
1, 304655, Control_c, 0, 64, 66
1, 304659, Note_off_c, 0, 36, 64
1, 304669, Control_c, 0, 64, 76
1, 304684, Control_c, 0, 64, 91
1, 304699, Control_c, 0, 64, 116
1, 304713, Control_c, 0, 64, 127
1, 304759, Note_off_c, 0, 63, 61
1, 304782, Note_on_c, 0, 64, 69
1, 304919, Note_off_c, 0, 64, 59
1, 304947, Note_on_c, 0, 74, 66
1, 304947, Note_on_c, 0, 72, 64
1, 304954, Note_on_c, 0, 55, 62
1, 304966, Note_on_c, 0, 57, 46
1, 304973, Control_c, 0, 64, 92
1, 304976, Note_off_c, 0, 72, 65
1, 304983, Note_off_c, 0, 74, 61
1, 304984, Note_off_c, 0, 55, 64
1, 304987, Control_c, 0, 64, 65
1, 304991, Note_off_c, 0, 57, 51
1, 305002, Control_c, 0, 64, 0
1, 305116, Note_on_c, 0, 31, 70
1, 305116, Note_on_c, 0, 66, 74
1, 305147, Note_off_c, 0, 31, 64
1, 305150, Control_c, 0, 64, 69
1, 305165, Control_c, 0, 64, 83
1, 305180, Control_c, 0, 64, 110
1, 305194, Control_c, 0, 64, 127
1, 305253, Note_off_c, 0, 66, 64
1, 305286, Note_on_c, 0, 67, 76
1, 305406, Note_off_c, 0, 67, 61
1, 305426, Note_on_c, 0, 72, 53
1, 305438, Note_on_c, 0, 76, 73
1, 305442, Note_on_c, 0, 60, 65
1, 305442, Note_on_c, 0, 64, 71
1, 305452, Note_off_c, 0, 72, 57
1, 305469, Note_off_c, 0, 64, 69
1, 305472, Note_off_c, 0, 60, 66
1, 305477, Control_c, 0, 64, 109
1, 305482, Note_off_c, 0, 76, 50
1, 305492, Control_c, 0, 64, 78
1, 305507, Control_c, 0, 64, 0
1, 305613, Note_on_c, 0, 37, 75
1, 305618, Note_on_c, 0, 70, 79
1, 305632, Control_c, 0, 64, 65
1, 305647, Control_c, 0, 64, 74
1, 305662, Control_c, 0, 64, 92
1, 305671, Note_off_c, 0, 37, 60
1, 305677, Control_c, 0, 64, 127
1, 305764, Note_off_c, 0, 70, 63
1, 305779, Note_on_c, 0, 71, 81
1, 305930, Note_on_c, 0, 65, 72
1, 305933, Note_on_c, 0, 76, 73
1, 305934, Note_on_c, 0, 79, 82
1, 305942, Note_on_c, 0, 59, 63
1, 305954, Note_off_c, 0, 65, 68
1, 305984, Note_off_c, 0, 59, 61
1, 305991, Note_off_c, 0, 71, 59
1, 306089, Note_on_c, 0, 73, 86
1, 306097, Note_off_c, 0, 79, 60
1, 306103, Note_off_c, 0, 76, 63
1, 306225, Note_off_c, 0, 73, 66
1, 306235, Note_on_c, 0, 43, 68
1, 306235, Note_on_c, 0, 74, 83
1, 306279, Note_off_c, 0, 43, 58
1, 306322, Control_c, 0, 67, 10
1, 306337, Control_c, 0, 67, 17
1, 306352, Control_c, 0, 67, 30
1, 306366, Control_c, 0, 67, 52
1, 306381, Control_c, 0, 67, 88
1, 306389, Note_off_c, 0, 74, 64
1, 306396, Control_c, 0, 67, 123
1, 306399, Note_on_c, 0, 82, 77
1, 306411, Control_c, 0, 64, 112
1, 306411, Control_c, 0, 67, 127
1, 306415, Note_on_c, 0, 77, 31
1, 306426, Control_c, 0, 64, 88
1, 306440, Control_c, 0, 64, 71
1, 306446, Note_off_c, 0, 77, 50
1, 306455, Control_c, 0, 64, 20
1, 306470, Control_c, 0, 64, 0
1, 306540, Note_on_c, 0, 48, 46
1, 306544, Note_off_c, 0, 82, 65
1, 306568, Note_on_c, 0, 78, 54
1, 306592, Note_on_c, 0, 75, 43
1, 306619, Control_c, 0, 64, 22
1, 306633, Control_c, 0, 64, 53
1, 306648, Control_c, 0, 64, 62
1, 306663, Control_c, 0, 64, 65
1, 306678, Control_c, 0, 64, 68
1, 306692, Control_c, 0, 64, 72
1, 306701, Note_off_c, 0, 48, 52
1, 306707, Control_c, 0, 64, 77
1, 306719, Note_off_c, 0, 78, 61
1, 306722, Control_c, 0, 64, 81
1, 306729, Note_off_c, 0, 75, 59
1, 306737, Control_c, 0, 64, 85
1, 306749, Note_on_c, 0, 81, 50
1, 306752, Note_on_c, 0, 55, 50
1, 306752, Note_on_c, 0, 86, 57
1, 306752, Control_c, 0, 64, 90
1, 306766, Control_c, 0, 64, 97
1, 306781, Control_c, 0, 64, 105
1, 306796, Control_c, 0, 64, 122
1, 306810, Control_c, 0, 64, 127
1, 306876, Note_off_c, 0, 55, 50
1, 306922, Note_on_c, 0, 64, 52
1, 306938, Note_off_c, 0, 86, 38
1, 306946, Note_on_c, 0, 79, 57
1, 306959, Note_off_c, 0, 64, 65
1, 306979, Note_off_c, 0, 81, 41
1, 307145, Control_c, 0, 64, 115
1, 307160, Control_c, 0, 64, 99
1, 307174, Note_off_c, 0, 79, 61
1, 307175, Control_c, 0, 64, 85
1, 307187, Note_on_c, 0, 64, 41
1, 307189, Control_c, 0, 64, 70
1, 307196, Note_on_c, 0, 72, 50
1, 307197, Note_on_c, 0, 67, 35
1, 307204, Control_c, 0, 64, 0
1, 307561, Note_off_c, 0, 64, 34
1, 307671, Note_off_c, 0, 67, 43
1, 307710, Note_off_c, 0, 72, 50
1, 308050, Note_on_c, 0, 75, 43
1, 308056, Note_on_c, 0, 68, 38
1, 308264, Control_c, 0, 64, 56
1, 308279, Control_c, 0, 64, 66
1, 308294, Control_c, 0, 64, 71
1, 308309, Control_c, 0, 64, 76
1, 308324, Control_c, 0, 64, 79
1, 308338, Control_c, 0, 64, 85
1, 308353, Control_c, 0, 64, 90
1, 308368, Control_c, 0, 64, 96
1, 308370, Note_on_c, 0, 72, 44
1, 308375, Note_off_c, 0, 75, 57
1, 308382, Control_c, 0, 64, 102
1, 308390, Note_on_c, 0, 76, 47
1, 308397, Control_c, 0, 64, 114
1, 308411, Note_on_c, 0, 74, 29
1, 308412, Control_c, 0, 64, 127
1, 308416, Note_off_c, 0, 68, 36
1, 308470, Note_off_c, 0, 72, 60
1, 308575, Note_off_c, 0, 76, 54
1, 308578, Note_on_c, 0, 84, 66
1, 308584, Note_on_c, 0, 83, 66
1, 308584, Note_off_c, 0, 74, 39
1, 308696, Note_off_c, 0, 83, 64
1, 308703, Control_c, 0, 64, 98
1, 308718, Control_c, 0, 64, 73
1, 308728, Note_on_c, 0, 77, 62
1, 308733, Control_c, 0, 64, 15
1, 308744, Note_on_c, 0, 62, 30
1, 308748, Control_c, 0, 64, 26
1, 308750, Note_off_c, 0, 84, 60
1, 308762, Control_c, 0, 64, 63
1, 308774, Note_off_c, 0, 62, 48
1, 308777, Control_c, 0, 64, 70
1, 308792, Control_c, 0, 64, 80
1, 308806, Control_c, 0, 64, 98
1, 308821, Control_c, 0, 64, 113
1, 308836, Control_c, 0, 64, 127
1, 308852, Note_off_c, 0, 77, 57
1, 308886, Note_on_c, 0, 84, 61
1, 308888, Note_on_c, 0, 72, 66
1, 308894, Note_on_c, 0, 82, 60
1, 308895, Note_on_c, 0, 74, 51
1, 308918, Note_off_c, 0, 74, 63
1, 308920, Note_off_c, 0, 72, 66
1, 308994, Note_off_c, 0, 84, 56
1, 309046, Note_off_c, 0, 82, 65
1, 309059, Note_on_c, 0, 78, 65
1, 309207, Note_on_c, 0, 43, 64
1, 309221, Control_c, 0, 64, 106
1, 309236, Control_c, 0, 64, 83
1, 309251, Control_c, 0, 64, 64
1, 309266, Control_c, 0, 64, 0
1, 309275, Note_on_c, 0, 81, 76
1, 309278, Note_off_c, 0, 78, 63
1, 309296, Control_c, 0, 64, 28
1, 309318, Control_c, 0, 64, 65
1, 309323, Note_off_c, 0, 43, 63
1, 309333, Control_c, 0, 64, 74
1, 309348, Control_c, 0, 64, 83
1, 309363, Control_c, 0, 64, 93
1, 309378, Control_c, 0, 64, 100
1, 309392, Control_c, 0, 64, 112
1, 309406, Control_c, 0, 64, 127
1, 309422, Note_on_c, 0, 70, 55
1, 309464, Note_off_c, 0, 81, 57
1, 309469, Note_off_c, 0, 70, 60
1, 309472, Note_on_c, 0, 79, 66
1, 309488, Note_on_c, 0, 74, 58
1, 309591, Note_off_c, 0, 74, 58
1, 309611, Note_on_c, 0, 62, 56
1, 309618, Note_on_c, 0, 69, 59
1, 309618, Note_on_c, 0, 58, 65
1, 309630, Note_on_c, 0, 77, 78
1, 309643, Note_off_c, 0, 69, 64
1, 309654, Note_off_c, 0, 62, 58
1, 309661, Note_off_c, 0, 79, 63
1, 309683, Note_off_c, 0, 77, 63
1, 309687, Note_off_c, 0, 58, 63
1, 309777, Note_on_c, 0, 74, 70
1, 309791, Note_on_c, 0, 70, 70
1, 309899, Note_off_c, 0, 70, 57
1, 309924, Note_off_c, 0, 74, 59
1, 309934, Note_on_c, 0, 72, 81
1, 309940, Note_on_c, 0, 50, 55
1, 309945, Note_on_c, 0, 57, 46
1, 309949, Note_on_c, 0, 65, 64
1, 309973, Note_off_c, 0, 57, 51
1, 309980, Note_off_c, 0, 50, 63
1, 309984, Note_off_c, 0, 65, 63
1, 310083, Note_off_c, 0, 72, 59
1, 310104, Note_on_c, 0, 74, 71
1, 310107, Note_on_c, 0, 69, 65
1, 310110, Note_on_c, 0, 64, 57
1, 310129, Note_off_c, 0, 64, 62
1, 310137, Note_off_c, 0, 69, 65
1, 310163, Note_off_c, 0, 74, 63
1, 310199, Control_c, 0, 64, 117
1, 310214, Control_c, 0, 64, 87
1, 310229, Control_c, 0, 64, 68
1, 310244, Control_c, 0, 64, 0
1, 310252, Note_on_c, 0, 43, 61
1, 310271, Note_on_c, 0, 81, 67
1, 310274, Control_c, 0, 64, 38
1, 310289, Control_c, 0, 64, 67
1, 310304, Control_c, 0, 64, 81
1, 310318, Control_c, 0, 64, 98
1, 310320, Note_off_c, 0, 43, 57
1, 310324, Note_on_c, 0, 70, 46
1, 310333, Control_c, 0, 64, 127
1, 310395, Note_off_c, 0, 70, 56
1, 310412, Note_off_c, 0, 81, 62
1, 310445, Note_on_c, 0, 74, 67
1, 310455, Note_on_c, 0, 79, 70
1, 310486, Note_off_c, 0, 74, 60
1, 310585, Note_on_c, 0, 50, 59
1, 310595, Note_on_c, 0, 57, 55
1, 310600, Note_off_c, 0, 79, 61
1, 310601, Note_on_c, 0, 74, 70
1, 310624, Note_off_c, 0, 74, 70
1, 310703, Control_c, 0, 64, 126
1, 310718, Control_c, 0, 64, 91
1, 310733, Control_c, 0, 64, 70
1, 310748, Control_c, 0, 64, 0
1, 310758, Note_on_c, 0, 72, 79
1, 310761, Note_on_c, 0, 64, 65
1, 310774, Note_on_c, 0, 69, 54
1, 310793, Note_off_c, 0, 64, 63
1, 310860, Control_c, 0, 64, 33
1, 310875, Control_c, 0, 64, 63
1, 310889, Control_c, 0, 64, 72
1, 310904, Control_c, 0, 64, 80
1, 310915, Note_off_c, 0, 69, 50
1, 310918, Note_off_c, 0, 50, 36
1, 310919, Control_c, 0, 64, 91
1, 310923, Note_off_c, 0, 57, 56
1, 310934, Control_c, 0, 64, 105
1, 310935, Note_off_c, 0, 72, 60
1, 310936, Note_on_c, 0, 55, 59
1, 310939, Note_on_c, 0, 74, 74
1, 310949, Note_on_c, 0, 62, 47
1, 310949, Control_c, 0, 64, 127
1, 310965, Note_off_c, 0, 74, 67
1, 310967, Note_off_c, 0, 55, 65
1, 310980, Note_off_c, 0, 62, 60
1, 311020, Poly_aftertouch_c, 0, 70, 0
1, 311111, Control_c, 0, 64, 112
1, 311126, Control_c, 0, 64, 97
1, 311141, Control_c, 0, 64, 85
1, 311156, Control_c, 0, 64, 73
1, 311171, Control_c, 0, 64, 64
1, 311186, Control_c, 0, 64, 42
1, 311200, Control_c, 0, 64, 24
1, 311215, Control_c, 0, 64, 26
1, 311230, Control_c, 0, 64, 30
1, 311245, Control_c, 0, 64, 31
1, 311274, Control_c, 0, 64, 36
1, 311289, Control_c, 0, 64, 45
1, 311304, Control_c, 0, 64, 50
1, 311319, Control_c, 0, 64, 53
1, 311334, Control_c, 0, 64, 55
1, 311349, Control_c, 0, 64, 58
1, 311362, Note_on_c, 0, 70, 50
1, 311363, Control_c, 0, 64, 61
1, 311378, Control_c, 0, 64, 64
1, 311393, Control_c, 0, 64, 66
1, 311393, Control_c, 0, 67, 106
1, 311407, Control_c, 0, 64, 69
1, 311407, Control_c, 0, 67, 80
1, 311415, Note_on_c, 0, 77, 67
1, 311422, Control_c, 0, 64, 72
1, 311422, Control_c, 0, 67, 50
1, 311437, Control_c, 0, 64, 77
1, 311437, Control_c, 0, 67, 25
1, 311452, Control_c, 0, 64, 81
1, 311452, Control_c, 0, 67, 0
1, 311467, Control_c, 0, 64, 84
1, 311481, Control_c, 0, 64, 88
1, 311496, Control_c, 0, 64, 93
1, 311511, Control_c, 0, 64, 102
1, 311526, Control_c, 0, 64, 122
1, 311541, Control_c, 0, 64, 127
1, 311603, Note_on_c, 0, 78, 73
1, 311610, Note_off_c, 0, 70, 59
1, 311631, Note_on_c, 0, 74, 42
1, 311633, Note_on_c, 0, 76, 45
1, 311666, Note_off_c, 0, 77, 48
1, 311672, Note_off_c, 0, 74, 48
1, 311673, Note_off_c, 0, 76, 59
1, 311767, Note_on_c, 0, 85, 75
1, 311768, Note_on_c, 0, 86, 69
1, 311782, Note_off_c, 0, 78, 62
1, 311831, Control_c, 0, 64, 98
1, 311842, Note_on_c, 0, 64, 57
1, 311846, Control_c, 0, 64, 74
1, 311861, Control_c, 0, 64, 27
1, 311876, Control_c, 0, 64, 0
1, 311905, Note_off_c, 0, 85, 57
1, 311905, Control_c, 0, 64, 41
1, 311920, Control_c, 0, 64, 65
1, 311925, Note_off_c, 0, 86, 60
1, 311925, Note_on_c, 0, 79, 70
1, 311935, Control_c, 0, 64, 75
1, 311949, Note_off_c, 0, 64, 57
1, 311949, Control_c, 0, 64, 88
1, 311964, Control_c, 0, 64, 104
1, 311979, Control_c, 0, 64, 127
1, 312045, Note_on_c, 0, 86, 67
1, 312050, Note_off_c, 0, 79, 53
1, 312054, Note_on_c, 0, 74, 57
1, 312057, Note_on_c, 0, 84, 71
1, 312069, Note_on_c, 0, 76, 44
1, 312075, Note_off_c, 0, 74, 65
1, 312096, Note_off_c, 0, 76, 54
1, 312218, Note_off_c, 0, 86, 37
1, 312223, Note_off_c, 0, 84, 63
1, 312228, Note_on_c, 0, 80, 70
1, 312341, Note_on_c, 0, 45, 61
1, 312342, Control_c, 0, 64, 94
1, 312357, Control_c, 0, 64, 74
1, 312372, Note_on_c, 0, 83, 71
1, 312372, Control_c, 0, 64, 52
1, 312373, Note_off_c, 0, 80, 60
1, 312387, Control_c, 0, 64, 32
1, 312402, Control_c, 0, 64, 62
1, 312417, Control_c, 0, 64, 68
1, 312423, Note_off_c, 0, 45, 60
1, 312432, Control_c, 0, 64, 78
1, 312447, Control_c, 0, 64, 94
1, 312462, Control_c, 0, 64, 127
1, 312510, Note_on_c, 0, 72, 62
1, 312531, Note_off_c, 0, 83, 62
1, 312533, Note_on_c, 0, 81, 80
1, 312536, Note_off_c, 0, 72, 64
1, 312541, Note_on_c, 0, 76, 63
1, 312609, Note_off_c, 0, 76, 57
1, 312687, Note_on_c, 0, 79, 77
1, 312695, Note_on_c, 0, 71, 55
1, 312702, Note_off_c, 0, 81, 61
1, 312703, Note_on_c, 0, 60, 54
1, 312705, Note_on_c, 0, 64, 50
1, 312717, Note_off_c, 0, 71, 63
1, 312723, Note_off_c, 0, 79, 60
1, 312745, Note_off_c, 0, 64, 63
1, 312771, Note_off_c, 0, 60, 61
1, 312846, Note_on_c, 0, 76, 71
1, 312852, Note_on_c, 0, 72, 75
1, 312932, Poly_aftertouch_c, 0, 67, 127
1, 312941, Note_off_c, 0, 72, 63
1, 312960, Poly_aftertouch_c, 0, 67, 0
1, 312974, Note_off_c, 0, 76, 60
1, 313001, Note_on_c, 0, 74, 70
1, 313008, Note_on_c, 0, 52, 58
1, 313019, Note_on_c, 0, 59, 29
1, 313039, Note_off_c, 0, 52, 64
1, 313059, Note_off_c, 0, 59, 45
1, 313074, Poly_aftertouch_c, 0, 67, 127
1, 313109, Poly_aftertouch_c, 0, 67, 0
1, 313112, Note_off_c, 0, 74, 64
1, 313166, Note_on_c, 0, 71, 52
1, 313168, Note_on_c, 0, 76, 72
1, 313189, Note_off_c, 0, 71, 60
1, 313220, Poly_aftertouch_c, 0, 66, 127
1, 313229, Note_off_c, 0, 76, 63
1, 313256, Poly_aftertouch_c, 0, 66, 0
1, 313299, Control_c, 0, 64, 91
1, 313314, Note_on_c, 0, 45, 67
1, 313314, Control_c, 0, 64, 68
1, 313329, Control_c, 0, 64, 0
1, 313345, Note_on_c, 0, 83, 81
1, 313374, Control_c, 0, 64, 65
1, 313389, Control_c, 0, 64, 76
1, 313396, Note_off_c, 0, 45, 61
1, 313403, Control_c, 0, 64, 94
1, 313418, Control_c, 0, 64, 115
1, 313431, Poly_aftertouch_c, 0, 72, 127
1, 313433, Control_c, 0, 64, 127
1, 313459, Poly_aftertouch_c, 0, 72, 0
1, 313501, Note_on_c, 0, 72, 53
1, 313516, Note_off_c, 0, 83, 66
1, 313517, Note_on_c, 0, 76, 66
1, 313535, Note_on_c, 0, 81, 74
1, 313545, Note_off_c, 0, 72, 55
1, 313562, Note_off_c, 0, 76, 54
1, 313617, Note_off_c, 0, 81, 66
1, 313657, Note_on_c, 0, 52, 63
1, 313670, Note_on_c, 0, 59, 61
1, 313681, Note_on_c, 0, 74, 68
1, 313703, Note_off_c, 0, 74, 65
1, 313848, Note_on_c, 0, 71, 52
1, 313852, Note_on_c, 0, 66, 70
1, 313922, Note_off_c, 0, 71, 62
1, 313936, Note_off_c, 0, 66, 64
1, 314006, Note_on_c, 0, 74, 73
1, 314011, Note_off_c, 0, 52, 36
1, 314016, Note_on_c, 0, 57, 64
1, 314018, Note_on_c, 0, 64, 53
1, 314026, Note_off_c, 0, 59, 61
1, 314027, Note_on_c, 0, 76, 79
1, 314039, Note_off_c, 0, 64, 60
1, 314044, Note_off_c, 0, 74, 64
1, 314051, Note_off_c, 0, 76, 70
1, 314056, Note_off_c, 0, 57, 63
1, 314438, Note_on_c, 0, 37, 77
1, 314444, Note_on_c, 0, 49, 72
1, 314447, Control_c, 0, 64, 93
1, 314462, Control_c, 0, 64, 67
1, 314477, Control_c, 0, 64, 0
1, 314504, Note_on_c, 0, 79, 91
1, 314522, Control_c, 0, 64, 63
1, 314536, Control_c, 0, 64, 74
1, 314558, Note_off_c, 0, 37, 63
1, 314558, Control_c, 0, 64, 92
1, 314573, Control_c, 0, 64, 127
1, 314600, Note_off_c, 0, 49, 63
1, 314759, Note_on_c, 0, 80, 87
1, 314903, Poly_aftertouch_c, 0, 61, 127
1, 314915, Note_on_c, 0, 56, 81
1, 314915, Note_off_c, 0, 79, 0
1, 314916, Note_on_c, 0, 64, 72
1, 314918, Note_on_c, 0, 68, 82
1, 314926, Note_on_c, 0, 88, 85
1, 314930, Note_on_c, 0, 85, 76
1, 314947, Note_off_c, 0, 80, 56
1, 314948, Poly_aftertouch_c, 0, 61, 0
1, 314952, Poly_aftertouch_c, 0, 79, 127
1, 315039, Poly_aftertouch_c, 0, 79, 0
1, 315099, Note_on_c, 0, 80, 88
1, 315108, Note_off_c, 0, 85, 62
1, 315121, Note_off_c, 0, 68, 62
1, 315129, Note_off_c, 0, 56, 61
1, 315244, Note_on_c, 0, 69, 75
1, 315249, Note_on_c, 0, 57, 73
1, 315253, Note_on_c, 0, 81, 96
1, 315271, Note_off_c, 0, 69, 68
1, 315279, Note_off_c, 0, 80, 51
1, 315300, Note_off_c, 0, 64, 60
1, 315328, Note_off_c, 0, 57, 65
1, 315334, Note_off_c, 0, 88, 56
1, 315417, Note_on_c, 0, 88, 89
1, 315427, Note_on_c, 0, 85, 79
1, 315445, Note_off_c, 0, 81, 63
1, 315560, Control_c, 0, 64, 113
1, 315574, Control_c, 0, 64, 79
1, 315575, Note_off_c, 0, 85, 58
1, 315578, Note_on_c, 0, 30, 80
1, 315580, Note_on_c, 0, 81, 96
1, 315589, Control_c, 0, 64, 60
1, 315604, Control_c, 0, 64, 0
1, 315624, Note_off_c, 0, 88, 57
1, 315635, Control_c, 0, 64, 47
1, 315650, Control_c, 0, 64, 67
1, 315665, Control_c, 0, 64, 78
1, 315679, Control_c, 0, 64, 95
1, 315694, Control_c, 0, 64, 127
1, 315732, Note_off_c, 0, 30, 62
1, 315734, Note_on_c, 0, 88, 78
1, 315736, Note_on_c, 0, 42, 78
1, 315738, Note_on_c, 0, 85, 77
1, 315757, Note_off_c, 0, 81, 59
1, 315768, Note_off_c, 0, 42, 65
1, 315876, Note_on_c, 0, 86, 74
1, 315890, Note_off_c, 0, 85, 51
1, 315893, Note_on_c, 0, 82, 63
1, 315901, Note_on_c, 0, 54, 63
1, 315908, Note_off_c, 0, 88, 64
1, 315921, Note_off_c, 0, 82, 68
1, 315927, Note_off_c, 0, 86, 64
1, 315991, Note_on_c, 0, 61, 25
1, 316005, Control_c, 0, 64, 94
1, 316020, Control_c, 0, 64, 72
1, 316035, Control_c, 0, 64, 0
1, 316062, Note_on_c, 0, 84, 74
1, 316065, Note_on_c, 0, 64, 63
1, 316071, Note_on_c, 0, 58, 63
1, 316075, Note_on_c, 0, 79, 65
1, 316086, Note_off_c, 0, 61, 35
1, 316087, Control_c, 0, 64, 60
1, 316087, Control_c, 0, 67, 8
1, 316099, Note_off_c, 0, 54, 56
1, 316101, Control_c, 0, 64, 71
1, 316101, Control_c, 0, 67, 11
1, 316116, Control_c, 0, 64, 87
1, 316116, Control_c, 0, 67, 16
1, 316128, Note_off_c, 0, 79, 57
1, 316131, Control_c, 0, 64, 112
1, 316131, Control_c, 0, 67, 23
1, 316146, Control_c, 0, 64, 127
1, 316146, Control_c, 0, 67, 36
1, 316161, Control_c, 0, 67, 53
1, 316176, Control_c, 0, 67, 75
1, 316186, Note_off_c, 0, 64, 61
1, 316191, Control_c, 0, 67, 97
1, 316205, Control_c, 0, 67, 120
1, 316213, Note_off_c, 0, 58, 60
1, 316220, Control_c, 0, 67, 127
1, 316227, Note_on_c, 0, 79, 72
1, 316233, Note_on_c, 0, 74, 66
1, 316233, Note_off_c, 0, 84, 48
1, 316307, Note_off_c, 0, 74, 63
1, 316362, Note_off_c, 0, 79, 57
1, 316398, Note_on_c, 0, 72, 75
1, 316402, Note_on_c, 0, 76, 62
1, 316433, Note_off_c, 0, 76, 67
1, 316458, Note_off_c, 0, 72, 60
1, 316576, Control_c, 0, 64, 98
1, 316577, Note_on_c, 0, 49, 53
1, 316591, Control_c, 0, 64, 78
1, 316606, Control_c, 0, 64, 62
1, 316620, Control_c, 0, 64, 0
1, 316634, Note_on_c, 0, 67, 54
1, 316665, Control_c, 0, 64, 56
1, 316680, Control_c, 0, 64, 68
1, 316695, Control_c, 0, 64, 75
1, 316710, Control_c, 0, 64, 84
1, 316724, Control_c, 0, 64, 91
1, 316739, Control_c, 0, 64, 97
1, 316754, Control_c, 0, 64, 104
1, 316760, Note_off_c, 0, 49, 57
1, 316769, Control_c, 0, 64, 113
1, 316784, Control_c, 0, 64, 127
1, 316866, Note_on_c, 0, 68, 61
1, 317017, Note_off_c, 0, 67, 39
1, 317031, Note_on_c, 0, 56, 46
1, 317033, Note_off_c, 0, 68, 54
1, 317036, Note_on_c, 0, 73, 54
1, 317041, Note_on_c, 0, 76, 58
1, 317048, Note_on_c, 0, 64, 50
1, 317183, Note_off_c, 0, 73, 56
1, 317198, Note_on_c, 0, 68, 56
1, 317219, Note_off_c, 0, 64, 53
1, 317260, Note_off_c, 0, 76, 37
1, 317320, Note_off_c, 0, 56, 37
1, 317341, Note_off_c, 0, 68, 60
1, 317356, Note_on_c, 0, 69, 62
1, 317363, Note_on_c, 0, 57, 59
1, 317363, Note_on_c, 0, 64, 44
1, 317392, Note_off_c, 0, 64, 54
1, 317401, Note_off_c, 0, 57, 64
1, 317507, Note_off_c, 0, 69, 62
1, 317514, Note_on_c, 0, 76, 56
1, 317523, Note_on_c, 0, 73, 55
1, 317643, Control_c, 0, 64, 98
1, 317652, Note_off_c, 0, 76, 49
1, 317657, Control_c, 0, 64, 76
1, 317659, Note_off_c, 0, 73, 60
1, 317672, Control_c, 0, 64, 57
1, 317675, Note_on_c, 0, 69, 60
1, 317685, Note_on_c, 0, 30, 57
1, 317687, Control_c, 0, 64, 32
1, 317702, Control_c, 0, 64, 59
1, 317717, Control_c, 0, 64, 65
1, 317732, Control_c, 0, 64, 71
1, 317747, Control_c, 0, 64, 81
1, 317762, Control_c, 0, 64, 93
1, 317776, Control_c, 0, 64, 103
1, 317791, Control_c, 0, 64, 114
1, 317806, Control_c, 0, 64, 127
1, 317834, Note_off_c, 0, 30, 58
1, 317840, Note_off_c, 0, 69, 57
1, 317853, Note_on_c, 0, 42, 60
1, 317854, Note_on_c, 0, 76, 55
1, 317855, Note_on_c, 0, 73, 52
1, 317884, Note_off_c, 0, 42, 64
1, 317992, Note_off_c, 0, 73, 55
1, 318024, Note_on_c, 0, 74, 57
1, 318046, Note_on_c, 0, 54, 53
1, 318049, Note_on_c, 0, 70, 31
1, 318055, Note_off_c, 0, 76, 37
1, 318064, Note_off_c, 0, 74, 61
1, 318082, Note_off_c, 0, 70, 53
1, 318147, Control_c, 0, 64, 117
1, 318162, Control_c, 0, 64, 90
1, 318177, Control_c, 0, 64, 69
1, 318191, Control_c, 0, 64, 46
1, 318200, Note_off_c, 0, 54, 54
1, 318202, Note_on_c, 0, 58, 49
1, 318206, Control_c, 0, 64, 56
1, 318209, Note_on_c, 0, 72, 67
1, 318211, Note_on_c, 0, 64, 41
1, 318221, Control_c, 0, 64, 65
1, 318236, Control_c, 0, 64, 71
1, 318249, Note_on_c, 0, 67, 39
1, 318251, Control_c, 0, 64, 82
1, 318266, Control_c, 0, 64, 97
1, 318280, Control_c, 0, 64, 117
1, 318281, Note_off_c, 0, 64, 63
1, 318302, Note_off_c, 0, 67, 49
1, 318303, Control_c, 0, 64, 127
1, 318351, Note_off_c, 0, 58, 60
1, 318412, Note_on_c, 0, 67, 54
1, 318420, Note_on_c, 0, 62, 56
1, 318486, Note_off_c, 0, 72, 32
1, 318512, Note_off_c, 0, 62, 56
1, 318586, Note_off_c, 0, 67, 47
1, 318636, Note_on_c, 0, 60, 55
1, 318650, Note_on_c, 0, 64, 50
1, 318682, Note_off_c, 0, 64, 65
1, 318695, Note_off_c, 0, 60, 52
1, 318763, Control_c, 0, 67, 123
1, 318777, Control_c, 0, 67, 115
1, 318792, Control_c, 0, 67, 104
1, 318807, Control_c, 0, 67, 95
1, 318823, Control_c, 0, 67, 86
1, 318837, Note_on_c, 0, 42, 55
1, 318838, Control_c, 0, 67, 78
1, 318853, Control_c, 0, 67, 73
1, 318867, Control_c, 0, 64, 108
1, 318867, Control_c, 0, 67, 69
1, 318882, Control_c, 0, 64, 86
1, 318882, Control_c, 0, 67, 65
1, 318897, Control_c, 0, 64, 70
1, 318897, Control_c, 0, 67, 61
1, 318912, Control_c, 0, 64, 48
1, 318912, Control_c, 0, 67, 56
1, 318927, Control_c, 0, 64, 0
1, 318927, Control_c, 0, 67, 50
1, 318927, Note_on_c, 0, 47, 61
1, 318941, Control_c, 0, 64, 38
1, 318941, Control_c, 0, 67, 43
1, 318956, Control_c, 0, 64, 58
1, 318956, Control_c, 0, 67, 35
1, 318971, Control_c, 0, 64, 66
1, 318971, Control_c, 0, 67, 24
1, 318986, Control_c, 0, 64, 71
1, 318986, Control_c, 0, 67, 10
1, 319001, Control_c, 0, 64, 81
1, 319001, Control_c, 0, 67, 0
1, 319015, Control_c, 0, 64, 91
1, 319030, Control_c, 0, 64, 97
1, 319043, Note_off_c, 0, 47, 59
1, 319053, Control_c, 0, 64, 100
1, 319067, Control_c, 0, 64, 104
1, 319082, Control_c, 0, 64, 111
1, 319097, Control_c, 0, 64, 122
1, 319112, Control_c, 0, 64, 127
1, 319169, Note_on_c, 0, 48, 58
1, 319305, Note_off_c, 0, 48, 59
1, 319334, Control_c, 0, 64, 98
1, 319336, Note_on_c, 0, 60, 60
1, 319339, Note_on_c, 0, 58, 48
1, 319345, Note_on_c, 0, 52, 68
1, 319348, Control_c, 0, 64, 80
1, 319363, Control_c, 0, 64, 65
1, 319378, Control_c, 0, 64, 0
1, 319407, Control_c, 0, 64, 53
1, 319422, Control_c, 0, 64, 64
1, 319437, Control_c, 0, 64, 70
1, 319452, Control_c, 0, 64, 78
1, 319467, Control_c, 0, 64, 88
1, 319482, Control_c, 0, 64, 99
1, 319497, Control_c, 0, 64, 110
1, 319505, Note_off_c, 0, 58, 60
1, 319512, Control_c, 0, 64, 127
1, 319517, Note_off_c, 0, 52, 60
1, 319521, Note_off_c, 0, 60, 41
1, 319526, Note_on_c, 0, 49, 68
1, 319596, Note_off_c, 0, 49, 58
1, 319687, Note_on_c, 0, 50, 68
1, 319764, Note_off_c, 0, 50, 56
1, 319854, Note_on_c, 0, 62, 67
1, 319860, Note_on_c, 0, 54, 70
1, 319879, Note_off_c, 0, 42, 39
1, 319912, Note_off_c, 0, 54, 62
1, 319994, Control_c, 0, 64, 88
1, 320009, Control_c, 0, 64, 68
1, 320023, Control_c, 0, 64, 12
1, 320026, Note_on_c, 0, 51, 75
1, 320027, Note_on_c, 0, 42, 63
1, 320038, Control_c, 0, 64, 45
1, 320053, Control_c, 0, 64, 65
1, 320068, Control_c, 0, 64, 73
1, 320083, Control_c, 0, 64, 92
1, 320097, Control_c, 0, 64, 127
1, 320101, Note_off_c, 0, 62, 24
1, 320127, Note_off_c, 0, 51, 61
1, 320197, Note_on_c, 0, 52, 68
1, 320267, Note_off_c, 0, 42, 36
1, 320292, Note_off_c, 0, 52, 59
1, 320349, Control_c, 0, 64, 91
1, 320362, Note_on_c, 0, 56, 80
1, 320364, Control_c, 0, 64, 67
1, 320371, Note_on_c, 0, 64, 54
1, 320373, Note_on_c, 0, 65, 62
1, 320379, Control_c, 0, 64, 0
1, 320424, Control_c, 0, 64, 63
1, 320439, Control_c, 0, 64, 72
1, 320454, Control_c, 0, 64, 85
1, 320468, Control_c, 0, 64, 106
1, 320483, Control_c, 0, 64, 127
1, 320515, Note_off_c, 0, 64, 60
1, 320537, Note_off_c, 0, 65, 33
1, 320542, Note_on_c, 0, 53, 72
1, 320579, Note_off_c, 0, 56, 55
1, 320581, Note_off_c, 0, 53, 60
1, 320700, Note_on_c, 0, 54, 75
1, 320787, Note_off_c, 0, 54, 60
1, 320870, Note_on_c, 0, 58, 68
1, 320877, Note_on_c, 0, 66, 83
1, 320889, Note_off_c, 0, 58, 65
1, 320905, Note_on_c, 0, 46, 47
1, 320908, Note_on_c, 0, 64, 50
1, 320933, Note_off_c, 0, 46, 57
1, 321037, Control_c, 0, 64, 105
1, 321047, Note_on_c, 0, 30, 72
1, 321052, Control_c, 0, 64, 78
1, 321062, Note_on_c, 0, 53, 75
1, 321067, Control_c, 0, 64, 0
1, 321068, Note_off_c, 0, 64, 63
1, 321071, Note_off_c, 0, 66, 57
1, 321111, Control_c, 0, 67, 8
1, 321126, Control_c, 0, 64, 45
1, 321126, Control_c, 0, 67, 15
1, 321141, Control_c, 0, 64, 65
1, 321141, Control_c, 0, 67, 27
1, 321145, Note_off_c, 0, 53, 59
1, 321155, Control_c, 0, 64, 73
1, 321155, Control_c, 0, 67, 45
1, 321170, Control_c, 0, 64, 81
1, 321170, Control_c, 0, 67, 71
1, 321185, Control_c, 0, 64, 88
1, 321185, Control_c, 0, 67, 103
1, 321200, Control_c, 0, 64, 93
1, 321200, Control_c, 0, 67, 127
1, 321216, Control_c, 0, 64, 101
1, 321231, Control_c, 0, 64, 110
1, 321239, Note_on_c, 0, 54, 77
1, 321246, Control_c, 0, 64, 127
1, 321380, Note_off_c, 0, 54, 57
1, 321389, Note_off_c, 0, 30, 61
1, 321393, Note_on_c, 0, 66, 76
1, 321395, Note_on_c, 0, 42, 71
1, 321408, Note_on_c, 0, 64, 53
1, 321431, Note_off_c, 0, 42, 64
1, 321520, Control_c, 0, 64, 105
1, 321535, Control_c, 0, 64, 81
1, 321549, Control_c, 0, 64, 62
1, 321564, Control_c, 0, 64, 0
1, 321566, Note_off_c, 0, 64, 57
1, 321571, Note_on_c, 0, 52, 61
1, 321577, Note_on_c, 0, 54, 69
1, 321582, Note_off_c, 0, 66, 54
1, 321593, Control_c, 0, 64, 62
1, 321608, Control_c, 0, 64, 70
1, 321623, Control_c, 0, 64, 80
1, 321638, Control_c, 0, 64, 91
1, 321646, Note_off_c, 0, 54, 53
1, 321651, Note_off_c, 0, 52, 55
1, 321653, Control_c, 0, 64, 98
1, 321667, Control_c, 0, 64, 103
1, 321682, Control_c, 0, 64, 109
1, 321697, Control_c, 0, 64, 121
1, 321712, Control_c, 0, 64, 127
1, 321749, Note_on_c, 0, 55, 63
1, 321891, Note_off_c, 0, 55, 57
1, 321919, Note_on_c, 0, 59, 25
1, 321920, Note_on_c, 0, 66, 64
1, 321921, Note_on_c, 0, 64, 56
1, 321955, Note_off_c, 0, 59, 43
1, 322076, Control_c, 0, 64, 107
1, 322090, Control_c, 0, 64, 82
1, 322093, Note_off_c, 0, 64, 59
1, 322105, Control_c, 0, 64, 63
1, 322111, Note_on_c, 0, 30, 54
1, 322112, Note_off_c, 0, 66, 53
1, 322120, Control_c, 0, 64, 0
1, 322123, Note_on_c, 0, 55, 61
1, 322151, Control_c, 0, 64, 44
1, 322165, Control_c, 0, 64, 65
1, 322180, Control_c, 0, 64, 74
1, 322195, Control_c, 0, 64, 81
1, 322199, Note_off_c, 0, 55, 60
1, 322209, Control_c, 0, 64, 86
1, 322224, Control_c, 0, 64, 89
1, 322239, Control_c, 0, 64, 93
1, 322254, Control_c, 0, 64, 98
1, 322269, Control_c, 0, 64, 107
1, 322284, Control_c, 0, 64, 120
1, 322299, Control_c, 0, 64, 127
1, 322337, Note_on_c, 0, 56, 56
1, 322433, Note_off_c, 0, 56, 55
1, 322498, Note_on_c, 0, 66, 68
1, 322501, Note_on_c, 0, 42, 60
1, 322504, Note_off_c, 0, 30, 57
1, 322538, Note_off_c, 0, 42, 62
1, 322683, Control_c, 0, 64, 116
1, 322698, Control_c, 0, 64, 90
1, 322712, Note_on_c, 0, 56, 59
1, 322713, Control_c, 0, 64, 72
1, 322715, Note_on_c, 0, 50, 55
1, 322728, Control_c, 0, 64, 50
1, 322743, Control_c, 0, 64, 47
1, 322746, Note_off_c, 0, 66, 27
1, 322758, Control_c, 0, 64, 63
1, 322773, Control_c, 0, 64, 70
1, 322795, Control_c, 0, 64, 79
1, 322811, Control_c, 0, 64, 93
1, 322826, Control_c, 0, 64, 106
1, 322833, Note_off_c, 0, 50, 57
1, 322840, Control_c, 0, 64, 116
1, 322855, Control_c, 0, 64, 127
1, 322868, Note_off_c, 0, 56, 31
1, 322975, Note_on_c, 0, 57, 45
1, 323151, Note_off_c, 0, 57, 32
1, 323229, Note_on_c, 0, 66, 53
1, 323230, Note_on_c, 0, 60, 54
1, 323284, Note_off_c, 0, 60, 55
1, 323521, Note_on_c, 0, 56, 52
1, 323521, Control_c, 0, 64, 107
1, 323542, Note_on_c, 0, 49, 51
1, 323544, Control_c, 0, 64, 83
1, 323559, Control_c, 0, 64, 66
1, 323573, Control_c, 0, 64, 0
1, 323600, Note_off_c, 0, 66, 40
1, 323603, Control_c, 0, 64, 50
1, 323619, Control_c, 0, 64, 65
1, 323634, Control_c, 0, 64, 71
1, 323649, Control_c, 0, 64, 80
1, 323663, Control_c, 0, 64, 89
1, 323678, Control_c, 0, 64, 93
1, 323693, Control_c, 0, 64, 98
1, 323708, Control_c, 0, 64, 104
1, 323723, Control_c, 0, 64, 113
1, 323737, Control_c, 0, 64, 127
1, 323748, Note_off_c, 0, 56, 37
1, 323821, Note_on_c, 0, 57, 49
1, 323929, Control_c, 0, 64, 112
1, 323944, Control_c, 0, 64, 100
1, 323959, Control_c, 0, 64, 90
1, 323974, Control_c, 0, 64, 76
1, 323989, Control_c, 0, 64, 63
1, 324004, Control_c, 0, 64, 0
1, 324020, Note_off_c, 0, 57, 52
1, 324030, Note_on_c, 0, 65, 50
1, 324034, Note_on_c, 0, 67, 56
1, 324054, Note_off_c, 0, 49, 59
1, 324059, Note_on_c, 0, 53, 44
1, 324062, Note_on_c, 0, 55, 47
1, 324096, Note_off_c, 0, 65, 58
1, 324100, Note_off_c, 0, 67, 52
1, 324217, Note_on_c, 0, 58, 58
1, 324367, Control_c, 0, 64, 56
1, 324369, Note_off_c, 0, 58, 61
1, 324381, Control_c, 0, 64, 66
1, 324385, Note_off_c, 0, 55, 61
1, 324394, Note_on_c, 0, 59, 59
1, 324395, Control_c, 0, 64, 71
1, 324397, Note_on_c, 0, 43, 49
1, 324411, Note_off_c, 0, 53, 62
1, 324411, Control_c, 0, 64, 76
1, 324426, Control_c, 0, 64, 82
1, 324441, Control_c, 0, 64, 88
1, 324441, Control_c, 0, 67, 118
1, 324451, Note_off_c, 0, 43, 61
1, 324456, Control_c, 0, 64, 98
1, 324456, Control_c, 0, 67, 101
1, 324471, Control_c, 0, 64, 114
1, 324471, Control_c, 0, 67, 86
1, 324485, Control_c, 0, 64, 127
1, 324485, Control_c, 0, 67, 73
1, 324500, Control_c, 0, 67, 58
1, 324515, Control_c, 0, 67, 44
1, 324519, Note_off_c, 0, 59, 54
1, 324529, Control_c, 0, 67, 29
1, 324544, Control_c, 0, 67, 12
1, 324557, Note_on_c, 0, 65, 37
1, 324559, Control_c, 0, 67, 0
1, 324565, Note_on_c, 0, 67, 45
1, 324565, Note_on_c, 0, 69, 62
1, 324590, Note_off_c, 0, 65, 50
1, 324591, Note_off_c, 0, 67, 61
1, 324601, Note_off_c, 0, 69, 61
1, 324648, Control_c, 0, 64, 118
1, 324663, Control_c, 0, 64, 85
1, 324677, Control_c, 0, 64, 63
1, 324692, Control_c, 0, 64, 0
1, 324730, Note_on_c, 0, 63, 65
1, 324736, Note_on_c, 0, 36, 59
1, 324767, Control_c, 0, 64, 33
1, 324774, Note_off_c, 0, 36, 64
1, 324782, Control_c, 0, 64, 67
1, 324797, Control_c, 0, 64, 75
1, 324811, Control_c, 0, 64, 83
1, 324826, Control_c, 0, 64, 94
1, 324841, Control_c, 0, 64, 107
1, 324856, Control_c, 0, 64, 127
1, 324871, Note_off_c, 0, 63, 63
1, 324898, Note_on_c, 0, 64, 68
1, 325014, Note_off_c, 0, 64, 61
1, 325052, Note_on_c, 0, 69, 25
1, 325056, Note_on_c, 0, 74, 64
1, 325063, Note_on_c, 0, 55, 65
1, 325065, Note_on_c, 0, 72, 50
1, 325071, Note_on_c, 0, 57, 54
1, 325087, Note_off_c, 0, 69, 46
1, 325092, Note_off_c, 0, 57, 57
1, 325092, Note_off_c, 0, 72, 55
1, 325093, Note_off_c, 0, 55, 65
1, 325095, Note_off_c, 0, 74, 59
1, 325100, Control_c, 0, 64, 99
1, 325115, Control_c, 0, 64, 72
1, 325130, Control_c, 0, 64, 0
1, 325226, Note_on_c, 0, 31, 75
1, 325229, Note_on_c, 0, 66, 72
1, 325260, Note_off_c, 0, 31, 65
1, 325265, Control_c, 0, 64, 67
1, 325280, Control_c, 0, 64, 78
1, 325294, Control_c, 0, 64, 97
1, 325309, Control_c, 0, 64, 127
1, 325364, Note_off_c, 0, 66, 63
1, 325385, Note_on_c, 0, 67, 75
1, 325506, Note_off_c, 0, 67, 60
1, 325512, Note_on_c, 0, 72, 39
1, 325537, Note_on_c, 0, 76, 73
1, 325543, Note_on_c, 0, 60, 65
1, 325545, Note_off_c, 0, 72, 60
1, 325547, Note_on_c, 0, 64, 69
1, 325572, Note_off_c, 0, 60, 65
1, 325575, Note_off_c, 0, 64, 67
1, 325605, Control_c, 0, 64, 106
1, 325616, Note_off_c, 0, 76, 48
1, 325620, Control_c, 0, 64, 78
1, 325634, Control_c, 0, 64, 0
1, 325710, Note_on_c, 0, 70, 79
1, 325716, Note_on_c, 0, 37, 74
1, 325768, Control_c, 0, 64, 51
1, 325790, Control_c, 0, 64, 67
1, 325805, Control_c, 0, 64, 79
1, 325811, Note_off_c, 0, 37, 61
1, 325820, Control_c, 0, 64, 99
1, 325834, Control_c, 0, 64, 127
1, 325873, Note_off_c, 0, 70, 64
1, 325881, Note_on_c, 0, 71, 87
1, 326036, Note_on_c, 0, 79, 80
1, 326043, Note_on_c, 0, 65, 71
1, 326043, Note_on_c, 0, 76, 69
1, 326046, Note_on_c, 0, 59, 69
1, 326069, Note_off_c, 0, 65, 68
1, 326092, Note_off_c, 0, 71, 59
1, 326096, Note_off_c, 0, 59, 63
1, 326187, Note_on_c, 0, 73, 84
1, 326192, Note_off_c, 0, 76, 65
1, 326198, Note_off_c, 0, 79, 60
1, 326334, Note_off_c, 0, 73, 63
1, 326336, Note_on_c, 0, 74, 84
1, 326348, Note_on_c, 0, 43, 64
1, 326412, Note_off_c, 0, 43, 54
1, 326487, Note_on_c, 0, 82, 83
1, 326489, Note_on_c, 0, 77, 63
1, 326490, Note_off_c, 0, 74, 59
1, 326519, Note_off_c, 0, 77, 64
1, 326638, Note_on_c, 0, 48, 60
1, 326642, Control_c, 0, 64, 96
1, 326651, Note_on_c, 0, 78, 73
1, 326654, Note_off_c, 0, 82, 64
1, 326657, Control_c, 0, 64, 71
1, 326666, Note_on_c, 0, 75, 68
1, 326672, Control_c, 0, 64, 0
1, 326716, Control_c, 0, 64, 58
1, 326731, Control_c, 0, 64, 69
1, 326746, Control_c, 0, 64, 80
1, 326761, Control_c, 0, 64, 98
1, 326776, Control_c, 0, 64, 126
1, 326776, Note_off_c, 0, 75, 64
1, 326791, Control_c, 0, 64, 127
1, 326804, Note_off_c, 0, 48, 36
1, 326815, Note_off_c, 0, 78, 63
1, 326821, Note_on_c, 0, 86, 80
1, 326822, Note_on_c, 0, 81, 73
1, 326833, Note_on_c, 0, 55, 63
1, 326880, Control_c, 0, 67, 9
1, 326895, Control_c, 0, 67, 15
1, 326910, Control_c, 0, 67, 21
1, 326925, Control_c, 0, 67, 31
1, 326940, Control_c, 0, 67, 44
1, 326955, Control_c, 0, 67, 62
1, 326961, Note_off_c, 0, 86, 63
1, 326967, Note_off_c, 0, 81, 35
1, 326968, Note_on_c, 0, 79, 79
1, 326970, Control_c, 0, 67, 85
1, 326974, Note_on_c, 0, 64, 63
1, 326985, Control_c, 0, 67, 105
1, 326988, Note_on_c, 0, 76, 70
1, 327000, Control_c, 0, 67, 124
1, 327012, Note_off_c, 0, 79, 61
1, 327014, Control_c, 0, 67, 127
1, 327026, Note_off_c, 0, 76, 62
1, 327037, Note_off_c, 0, 64, 63
1, 327132, Control_c, 0, 64, 99
1, 327147, Control_c, 0, 64, 74
1, 327154, Note_on_c, 0, 72, 63
1, 327157, Note_on_c, 0, 48, 57
1, 327162, Control_c, 0, 64, 0
1, 327172, Note_off_c, 0, 55, 51
1, 327206, Control_c, 0, 64, 59
1, 327221, Control_c, 0, 64, 68
1, 327236, Control_c, 0, 64, 76
1, 327250, Control_c, 0, 64, 83
1, 327265, Note_off_c, 0, 48, 53
1, 327265, Control_c, 0, 64, 89
1, 327288, Control_c, 0, 64, 94
1, 327303, Control_c, 0, 64, 100
1, 327318, Control_c, 0, 64, 108
1, 327332, Control_c, 0, 64, 127
1, 327340, Note_off_c, 0, 72, 51
1, 327352, Note_on_c, 0, 63, 42
1, 327600, Control_c, 0, 64, 113
1, 327602, Note_on_c, 0, 71, 53
1, 327606, Note_on_c, 0, 66, 46
1, 327614, Note_on_c, 0, 43, 43
1, 327615, Control_c, 0, 64, 90
1, 327629, Control_c, 0, 64, 74
1, 327644, Control_c, 0, 64, 55
1, 327659, Control_c, 0, 64, 0
1, 327673, Control_c, 0, 64, 55
1, 327688, Control_c, 0, 64, 65
1, 327691, Note_off_c, 0, 63, 41
1, 327703, Control_c, 0, 64, 70
1, 327718, Control_c, 0, 64, 77
1, 327719, Note_off_c, 0, 71, 59
1, 327733, Control_c, 0, 64, 85
1, 327748, Control_c, 0, 64, 89
1, 327763, Control_c, 0, 64, 90
1, 327769, Note_off_c, 0, 66, 45
1, 327778, Control_c, 0, 64, 91
1, 327793, Control_c, 0, 64, 92
1, 327807, Control_c, 0, 64, 93
1, 327822, Control_c, 0, 64, 94
1, 327837, Control_c, 0, 64, 94
1, 327852, Control_c, 0, 64, 95
1, 327911, Control_c, 0, 64, 93
1, 327912, Note_on_c, 0, 49, 39
1, 327915, Note_off_c, 0, 43, 35
1, 327924, Note_on_c, 0, 56, 47
1, 327926, Control_c, 0, 64, 89
1, 327941, Control_c, 0, 64, 83
1, 327955, Control_c, 0, 64, 74
1, 327970, Control_c, 0, 64, 63
1, 327985, Control_c, 0, 64, 0
1, 328215, Note_on_c, 0, 57, 39
1, 328218, Note_off_c, 0, 56, 58
1, 328448, Note_on_c, 0, 65, 53
1, 328449, Note_on_c, 0, 67, 46
1, 328455, Note_off_c, 0, 57, 52
1, 328465, Note_on_c, 0, 53, 39
1, 328469, Note_on_c, 0, 55, 42
1, 328513, Note_off_c, 0, 49, 42
1, 328513, Note_off_c, 0, 67, 53
1, 328528, Note_off_c, 0, 65, 50
1, 328648, Note_on_c, 0, 58, 50
1, 328704, Control_c, 0, 67, 118
1, 328719, Control_c, 0, 67, 95
1, 328734, Control_c, 0, 67, 69
1, 328749, Control_c, 0, 67, 41
1, 328764, Control_c, 0, 67, 15
1, 328785, Control_c, 0, 64, 60
1, 328785, Control_c, 0, 67, 0
1, 328800, Control_c, 0, 64, 67
1, 328804, Note_off_c, 0, 55, 42
1, 328815, Note_off_c, 0, 58, 63
1, 328815, Control_c, 0, 64, 72
1, 328823, Note_on_c, 0, 59, 62
1, 328830, Control_c, 0, 64, 78
1, 328845, Control_c, 0, 64, 84
1, 328854, Note_on_c, 0, 43, 47
1, 328860, Control_c, 0, 64, 93
1, 328864, Note_off_c, 0, 53, 61
1, 328875, Control_c, 0, 64, 105
1, 328889, Control_c, 0, 64, 127
1, 328909, Note_off_c, 0, 43, 60
1, 328969, Note_off_c, 0, 59, 60
1, 328982, Note_on_c, 0, 65, 54
1, 328989, Note_on_c, 0, 69, 68
1, 329008, Note_on_c, 0, 67, 45
1, 329012, Note_off_c, 0, 65, 66
1, 329035, Note_off_c, 0, 67, 55
1, 329037, Control_c, 0, 64, 93
1, 329048, Note_off_c, 0, 69, 56
1, 329052, Control_c, 0, 64, 67
1, 329067, Control_c, 0, 64, 0
1, 329159, Note_on_c, 0, 63, 69
1, 329169, Note_on_c, 0, 36, 66
1, 329185, Control_c, 0, 64, 63
1, 329201, Control_c, 0, 64, 73
1, 329204, Note_off_c, 0, 36, 63
1, 329216, Control_c, 0, 64, 85
1, 329231, Control_c, 0, 64, 96
1, 329245, Control_c, 0, 64, 106
1, 329260, Control_c, 0, 64, 127
1, 329297, Note_off_c, 0, 63, 62
1, 329321, Note_on_c, 0, 64, 73
1, 329452, Note_off_c, 0, 64, 61
1, 329480, Note_on_c, 0, 74, 68
1, 329487, Note_on_c, 0, 55, 61
1, 329490, Note_on_c, 0, 57, 62
1, 329498, Control_c, 0, 64, 108
1, 329512, Control_c, 0, 64, 76
1, 329524, Note_off_c, 0, 55, 64
1, 329524, Note_off_c, 0, 57, 63
1, 329524, Note_off_c, 0, 74, 59
1, 329534, Control_c, 0, 64, 0
1, 329542, Poly_aftertouch_c, 0, 72, 0
1, 329647, Note_on_c, 0, 31, 75
1, 329662, Note_on_c, 0, 66, 74
1, 329682, Control_c, 0, 64, 56
1, 329688, Note_off_c, 0, 31, 64
1, 329697, Control_c, 0, 64, 77
1, 329712, Control_c, 0, 64, 97
1, 329727, Control_c, 0, 64, 127
1, 329798, Note_off_c, 0, 66, 65
1, 329814, Note_on_c, 0, 67, 77
1, 329945, Note_off_c, 0, 67, 59
1, 329957, Note_on_c, 0, 72, 58
1, 329966, Note_on_c, 0, 76, 79
1, 329973, Note_on_c, 0, 64, 75
1, 329975, Note_on_c, 0, 60, 66
1, 329980, Note_off_c, 0, 72, 60
1, 329995, Control_c, 0, 64, 119
1, 329998, Note_off_c, 0, 64, 69
1, 330007, Note_off_c, 0, 60, 63
1, 330010, Control_c, 0, 64, 80
1, 330022, Note_off_c, 0, 76, 55
1, 330024, Control_c, 0, 64, 0
1, 330141, Note_on_c, 0, 70, 80
1, 330143, Note_on_c, 0, 37, 75
1, 330172, Control_c, 0, 64, 63
1, 330187, Control_c, 0, 64, 76
1, 330192, Note_off_c, 0, 37, 59
1, 330201, Control_c, 0, 64, 100
1, 330216, Control_c, 0, 64, 127
1, 330292, Note_off_c, 0, 70, 62
1, 330309, Note_on_c, 0, 71, 84
1, 330467, Note_on_c, 0, 79, 83
1, 330468, Note_on_c, 0, 65, 72
1, 330468, Note_on_c, 0, 76, 75
1, 330476, Note_on_c, 0, 59, 64
1, 330493, Note_off_c, 0, 71, 60
1, 330495, Note_off_c, 0, 65, 68
1, 330525, Note_off_c, 0, 59, 62
1, 330619, Note_on_c, 0, 73, 83
1, 330627, Note_off_c, 0, 76, 62
1, 330637, Note_off_c, 0, 79, 59
1, 330761, Note_off_c, 0, 73, 63
1, 330769, Note_on_c, 0, 74, 86
1, 330776, Note_on_c, 0, 43, 69
1, 330818, Note_off_c, 0, 43, 62
1, 330892, Control_c, 0, 67, 12
1, 330906, Control_c, 0, 67, 31
1, 330913, Note_off_c, 0, 74, 63
1, 330918, Note_on_c, 0, 82, 75
1, 330921, Control_c, 0, 67, 61
1, 330936, Control_c, 0, 67, 98
1, 330951, Control_c, 0, 67, 127
1, 330980, Control_c, 0, 64, 122
1, 330995, Control_c, 0, 64, 94
1, 331000, Poly_aftertouch_c, 0, 77, 0
1, 331010, Control_c, 0, 64, 76
1, 331032, Control_c, 0, 64, 49
1, 331047, Control_c, 0, 64, 0
1, 331094, Note_off_c, 0, 82, 60
1, 331101, Note_on_c, 0, 48, 45
1, 331112, Note_on_c, 0, 78, 49
1, 331122, Note_on_c, 0, 75, 50
1, 331224, Control_c, 0, 64, 45
1, 331239, Control_c, 0, 64, 60
1, 331254, Control_c, 0, 64, 66
1, 331266, Note_off_c, 0, 78, 57
1, 331269, Control_c, 0, 64, 70
1, 331275, Note_off_c, 0, 75, 57
1, 331284, Control_c, 0, 64, 73
1, 331285, Note_off_c, 0, 48, 29
1, 331298, Control_c, 0, 64, 77
1, 331305, Note_on_c, 0, 86, 54
1, 331310, Note_on_c, 0, 81, 46
1, 331313, Control_c, 0, 64, 82
1, 331314, Note_on_c, 0, 55, 48
1, 331328, Control_c, 0, 64, 89
1, 331343, Control_c, 0, 64, 100
1, 331358, Control_c, 0, 64, 127
1, 331454, Note_off_c, 0, 55, 36
1, 331495, Note_off_c, 0, 86, 31
1, 331511, Note_on_c, 0, 64, 48
1, 331520, Note_on_c, 0, 79, 55
1, 331526, Note_off_c, 0, 81, 41
1, 331555, Note_off_c, 0, 64, 61
1, 331795, Note_off_c, 0, 79, 48
1, 331796, Control_c, 0, 64, 114
1, 331804, Note_on_c, 0, 72, 52
1, 331808, Note_on_c, 0, 64, 42
1, 331811, Note_on_c, 0, 67, 39
1, 331811, Control_c, 0, 64, 92
1, 331826, Control_c, 0, 64, 73
1, 331841, Control_c, 0, 64, 0
1, 332493, Note_off_c, 0, 72, 61
1, 332508, Note_off_c, 0, 64, 41
1, 332554, Note_off_c, 0, 67, 44
1, 333649, Control_c, 0, 67, 123
1, 333664, Control_c, 0, 67, 103
1, 333679, Control_c, 0, 67, 82
1, 333693, Control_c, 0, 67, 59
1, 333708, Control_c, 0, 67, 35
1, 333723, Control_c, 0, 67, 10
1, 333738, Control_c, 0, 67, 0
1, 333766, Note_on_c, 0, 70, 52
1, 333777, Note_on_c, 0, 72, 53
1, 333787, Note_on_c, 0, 78, 73
1, 333793, Note_on_c, 0, 74, 64
1, 333797, Control_c, 0, 64, 55
1, 333812, Control_c, 0, 64, 68
1, 333826, Control_c, 0, 64, 77
1, 333834, Note_off_c, 0, 72, 58
1, 333841, Control_c, 0, 64, 92
1, 333843, Note_off_c, 0, 70, 61
1, 333856, Control_c, 0, 64, 116
1, 333871, Control_c, 0, 64, 127
1, 333949, Note_off_c, 0, 74, 64
1, 333964, Note_off_c, 0, 78, 61
1, 333972, Note_on_c, 0, 86, 75
1, 334027, Note_on_c, 0, 81, 39
1, 334137, Note_off_c, 0, 86, 57
1, 334145, Note_on_c, 0, 79, 73
1, 334148, Note_on_c, 0, 75, 72
1, 334158, Note_on_c, 0, 60, 55
1, 334168, Note_off_c, 0, 81, 47
1, 334173, Note_off_c, 0, 79, 66
1, 334179, Note_off_c, 0, 75, 60
1, 334389, Note_on_c, 0, 72, 84
1, 334401, Note_on_c, 0, 64, 64
1, 334406, Note_on_c, 0, 68, 65
1, 334853, Note_off_c, 0, 60, 46
1, 335065, Note_on_c, 0, 60, 67
1, 335162, Control_c, 0, 64, 122
1, 335177, Control_c, 0, 64, 96
1, 335191, Control_c, 0, 64, 79
1, 335206, Control_c, 0, 64, 62
1, 335221, Control_c, 0, 64, 0
1, 335310, Control_c, 0, 64, 49
1, 335325, Control_c, 0, 64, 65
1, 335340, Control_c, 0, 64, 73
1, 335355, Control_c, 0, 64, 81
1, 335370, Control_c, 0, 64, 90
1, 335385, Control_c, 0, 64, 101
1, 335399, Control_c, 0, 64, 127
1, 336093, Note_off_c, 0, 60, 34
1, 336296, Note_on_c, 0, 60, 54
1, 336466, Control_c, 0, 64, 112
1, 336481, Control_c, 0, 64, 92
1, 336495, Control_c, 0, 64, 77
1, 336510, Control_c, 0, 64, 63
1, 336525, Control_c, 0, 64, 0
1, 336584, Control_c, 0, 64, 30
1, 336599, Control_c, 0, 64, 62
1, 336614, Control_c, 0, 64, 69
1, 336629, Control_c, 0, 64, 79
1, 336643, Control_c, 0, 64, 92
1, 336658, Control_c, 0, 64, 103
1, 336673, Control_c, 0, 64, 122
1, 336688, Control_c, 0, 64, 127
1, 336736, Note_off_c, 0, 64, 42
1, 336789, Note_off_c, 0, 68, 41
1, 336803, Note_off_c, 0, 72, 45
1, 336866, Control_c, 0, 67, 11
1, 336880, Control_c, 0, 67, 16
1, 336895, Control_c, 0, 67, 25
1, 336910, Control_c, 0, 67, 39
1, 336925, Control_c, 0, 67, 56
1, 336940, Control_c, 0, 67, 75
1, 336954, Control_c, 0, 67, 92
1, 336969, Control_c, 0, 67, 112
1, 336984, Control_c, 0, 67, 127
1, 336999, Control_c, 0, 67, 127
1, 337086, Note_off_c, 0, 60, 55
1, 337703, Control_c, 0, 64, 126
1, 337718, Control_c, 0, 64, 116
1, 337733, Control_c, 0, 64, 113
1, 337748, Control_c, 0, 64, 110
1, 337770, Control_c, 0, 64, 108
1, 337785, Control_c, 0, 64, 105
1, 337799, Control_c, 0, 64, 102
1, 337814, Control_c, 0, 64, 99
1, 337829, Control_c, 0, 64, 96
1, 337844, Control_c, 0, 64, 92
1, 337859, Control_c, 0, 64, 88
1, 337874, Control_c, 0, 64, 82
1, 337889, Control_c, 0, 64, 75
1, 337904, Control_c, 0, 64, 67
1, 337918, Control_c, 0, 64, 61
1, 337933, Control_c, 0, 64, 55
1, 337948, Control_c, 0, 64, 54
1, 338127, Control_c, 0, 64, 55
1, 338141, Control_c, 0, 64, 55
1, 338156, Control_c, 0, 64, 56
1, 338171, Control_c, 0, 64, 56
1, 338186, Control_c, 0, 64, 57
1, 338201, Control_c, 0, 64, 58
1, 338215, Control_c, 0, 64, 59
1, 338230, Control_c, 0, 64, 60
1, 338245, Control_c, 0, 64, 61
1, 338259, Control_c, 0, 64, 61
1, 338274, Control_c, 0, 64, 62
1, 338289, Control_c, 0, 64, 62
1, 338304, Control_c, 0, 64, 63
1, 338319, Control_c, 0, 64, 64
1, 338333, Control_c, 0, 64, 65
1, 338348, Control_c, 0, 64, 68
1, 338363, Control_c, 0, 64, 73
1, 338365, Note_on_c, 0, 76, 50
1, 338369, Note_on_c, 0, 68, 40
1, 338370, Note_on_c, 0, 72, 56
1, 338378, Control_c, 0, 64, 81
1, 338379, Note_on_c, 0, 71, 43
1, 338393, Control_c, 0, 64, 90
1, 338408, Control_c, 0, 64, 96
1, 338422, Control_c, 0, 64, 102
1, 338437, Control_c, 0, 64, 115
1, 338452, Note_off_c, 0, 71, 55
1, 338452, Control_c, 0, 64, 127
1, 338474, Note_off_c, 0, 68, 46
1, 338548, Note_off_c, 0, 76, 60
1, 338572, Note_on_c, 0, 79, 55
1, 338583, Note_on_c, 0, 84, 64
1, 338583, Note_off_c, 0, 72, 45
1, 338742, Note_off_c, 0, 84, 54
1, 338760, Note_on_c, 0, 77, 65
1, 338768, Note_off_c, 0, 79, 60
1, 338771, Note_on_c, 0, 73, 57
1, 338784, Note_on_c, 0, 60, 44
1, 338798, Note_off_c, 0, 77, 63
1, 338810, Note_off_c, 0, 73, 62
1, 339009, Control_c, 0, 64, 119
1, 339024, Control_c, 0, 64, 97
1, 339028, Note_on_c, 0, 71, 48
1, 339032, Note_on_c, 0, 69, 45
1, 339038, Control_c, 0, 64, 79
1, 339053, Control_c, 0, 64, 65
1, 339068, Control_c, 0, 64, 0
1, 339097, Poly_aftertouch_c, 0, 62, 127
1, 339099, Poly_aftertouch_c, 0, 65, 127
1, 339107, Poly_aftertouch_c, 0, 64, 127
1, 339127, Control_c, 0, 64, 53
1, 339129, Poly_aftertouch_c, 0, 64, 0
1, 339142, Control_c, 0, 64, 65
1, 339156, Control_c, 0, 64, 72
1, 339171, Control_c, 0, 64, 80
1, 339186, Control_c, 0, 64, 87
1, 339201, Control_c, 0, 64, 93
1, 339215, Control_c, 0, 64, 99
1, 339230, Control_c, 0, 64, 109
1, 339245, Control_c, 0, 64, 121
1, 339263, Note_off_c, 0, 71, 56
1, 339268, Control_c, 0, 64, 127
1, 339313, Note_off_c, 0, 60, 55
1, 339533, Note_on_c, 0, 60, 55
1, 339624, Control_c, 0, 64, 109
1, 339639, Control_c, 0, 64, 88
1, 339654, Control_c, 0, 64, 73
1, 339668, Control_c, 0, 64, 59
1, 339683, Control_c, 0, 64, 0
1, 339728, Control_c, 0, 64, 18
1, 339743, Control_c, 0, 64, 49
1, 339758, Control_c, 0, 64, 61
1, 339773, Control_c, 0, 64, 65
1, 339787, Control_c, 0, 64, 70
1, 339802, Control_c, 0, 64, 77
1, 339817, Control_c, 0, 64, 85
1, 339831, Control_c, 0, 64, 92
1, 339846, Control_c, 0, 64, 97
1, 339861, Control_c, 0, 64, 102
1, 339876, Control_c, 0, 64, 110
1, 339891, Control_c, 0, 64, 127
1, 340322, Note_off_c, 0, 60, 30
1, 340631, Note_on_c, 0, 60, 44
1, 340714, Control_c, 0, 64, 103
1, 340728, Control_c, 0, 64, 83
1, 340743, Control_c, 0, 64, 69
1, 340765, Control_c, 0, 64, 46
1, 340780, Control_c, 0, 64, 0
1, 340810, Control_c, 0, 64, 30
1, 340825, Control_c, 0, 64, 49
1, 340840, Control_c, 0, 64, 61
1, 340854, Control_c, 0, 64, 65
1, 340869, Control_c, 0, 64, 70
1, 340884, Control_c, 0, 64, 76
1, 340899, Control_c, 0, 64, 84
1, 340914, Control_c, 0, 64, 88
1, 340928, Control_c, 0, 64, 91
1, 340943, Control_c, 0, 64, 96
1, 340958, Control_c, 0, 64, 101
1, 340973, Control_c, 0, 64, 109
1, 340987, Control_c, 0, 64, 121
1, 341002, Control_c, 0, 64, 127
1, 341029, Poly_aftertouch_c, 0, 65, 0
1, 341055, Poly_aftertouch_c, 0, 62, 0
1, 341236, Note_off_c, 0, 69, 29
1, 341331, Note_off_c, 0, 60, 40
1, 341915, Control_c, 0, 64, 119
1, 341929, Control_c, 0, 64, 111
1, 341944, Control_c, 0, 64, 105
1, 341959, Control_c, 0, 64, 100
1, 341974, Control_c, 0, 64, 94
1, 341990, Control_c, 0, 64, 89
1, 342005, Control_c, 0, 64, 82
1, 342020, Control_c, 0, 64, 74
1, 342034, Control_c, 0, 64, 65
1, 342049, Control_c, 0, 64, 54
1, 342064, Control_c, 0, 64, 47
1, 342108, Control_c, 0, 64, 48
1, 342123, Control_c, 0, 64, 49
1, 342138, Control_c, 0, 64, 49
1, 342168, Control_c, 0, 64, 50
1, 342182, Control_c, 0, 64, 51
1, 342197, Control_c, 0, 64, 52
1, 342212, Control_c, 0, 64, 53
1, 342226, Control_c, 0, 64, 54
1, 342241, Control_c, 0, 64, 55
1, 342264, Control_c, 0, 64, 55
1, 342279, Control_c, 0, 64, 56
1, 342294, Control_c, 0, 64, 57
1, 342308, Control_c, 0, 64, 58
1, 342323, Control_c, 0, 64, 59
1, 342338, Control_c, 0, 64, 60
1, 342352, Control_c, 0, 64, 61
1, 342367, Control_c, 0, 64, 62
1, 342382, Control_c, 0, 64, 63
1, 342386, Note_on_c, 0, 66, 42
1, 342391, Note_on_c, 0, 68, 40
1, 342396, Note_on_c, 0, 72, 45
1, 342397, Control_c, 0, 64, 64
1, 342412, Control_c, 0, 64, 64
1, 342426, Control_c, 0, 64, 66
1, 342441, Control_c, 0, 64, 68
1, 342456, Control_c, 0, 64, 71
1, 342471, Control_c, 0, 64, 76
1, 342486, Control_c, 0, 64, 83
1, 342500, Control_c, 0, 64, 87
1, 342515, Control_c, 0, 64, 91
1, 342526, Note_off_c, 0, 66, 31
1, 342530, Control_c, 0, 64, 97
1, 342545, Control_c, 0, 64, 104
1, 342560, Control_c, 0, 64, 114
1, 342575, Control_c, 0, 64, 127
1, 342600, Note_on_c, 0, 75, 38
1, 342603, Note_on_c, 0, 78, 43
1, 342667, Note_off_c, 0, 68, 40
1, 342775, Note_off_c, 0, 72, 30
1, 342789, Note_off_c, 0, 78, 28
1, 342828, Note_off_c, 0, 75, 30
1, 342830, Note_on_c, 0, 74, 38
1, 342832, Note_on_c, 0, 60, 38
1, 342837, Note_on_c, 0, 69, 39
1, 342866, Note_off_c, 0, 74, 64
1, 342868, Note_off_c, 0, 69, 62
1, 343198, Note_on_c, 0, 62, 32
1, 343212, Note_on_c, 0, 66, 55
1, 343220, Note_on_c, 0, 58, 34
1, 343234, Control_c, 0, 64, 97
1, 343249, Control_c, 0, 64, 82
1, 343263, Control_c, 0, 64, 68
1, 343278, Control_c, 0, 64, 55
1, 343293, Control_c, 0, 64, 58
1, 343308, Control_c, 0, 64, 64
1, 343323, Control_c, 0, 64, 67
1, 343326, Note_off_c, 0, 60, 30
1, 343338, Control_c, 0, 64, 71
1, 343353, Control_c, 0, 64, 76
1, 343368, Control_c, 0, 64, 85
1, 343382, Control_c, 0, 64, 93
1, 343397, Control_c, 0, 64, 97
1, 343412, Control_c, 0, 64, 103
1, 343427, Control_c, 0, 64, 112
1, 343442, Control_c, 0, 64, 127
1, 343786, Note_on_c, 0, 60, 45
1, 343909, Control_c, 0, 64, 101
1, 343924, Control_c, 0, 64, 84
1, 343938, Control_c, 0, 64, 72
1, 343953, Control_c, 0, 64, 63
1, 343968, Control_c, 0, 64, 60
1, 343983, Control_c, 0, 64, 62
1, 343998, Control_c, 0, 64, 65
1, 344012, Control_c, 0, 64, 68
1, 344027, Control_c, 0, 64, 73
1, 344042, Control_c, 0, 64, 80
1, 344057, Control_c, 0, 64, 91
1, 344072, Control_c, 0, 64, 101
1, 344086, Control_c, 0, 64, 110
1, 344101, Control_c, 0, 64, 127
1, 344547, Note_off_c, 0, 60, 30
1, 344853, Note_on_c, 0, 60, 60
1, 345058, Control_c, 0, 64, 119
1, 345072, Control_c, 0, 64, 98
1, 345087, Control_c, 0, 64, 85
1, 345102, Control_c, 0, 64, 73
1, 345117, Control_c, 0, 64, 62
1, 345132, Control_c, 0, 64, 57
1, 345161, Control_c, 0, 64, 58
1, 345177, Control_c, 0, 64, 61
1, 345192, Control_c, 0, 64, 64
1, 345207, Control_c, 0, 64, 67
1, 345222, Control_c, 0, 64, 73
1, 345237, Control_c, 0, 64, 83
1, 345258, Control_c, 0, 64, 95
1, 345273, Control_c, 0, 64, 104
1, 345288, Control_c, 0, 64, 111
1, 345303, Control_c, 0, 64, 127
1, 345481, Control_c, 0, 67, 122
1, 345496, Control_c, 0, 67, 113
1, 345511, Control_c, 0, 67, 103
1, 345526, Control_c, 0, 67, 94
1, 345541, Control_c, 0, 67, 85
1, 345556, Control_c, 0, 67, 73
1, 345570, Control_c, 0, 67, 64
1, 345585, Control_c, 0, 67, 54
1, 345600, Control_c, 0, 67, 44
1, 345615, Control_c, 0, 67, 34
1, 345630, Control_c, 0, 67, 22
1, 345644, Control_c, 0, 67, 11
1, 345659, Control_c, 0, 67, 0
1, 345885, Note_off_c, 0, 62, 33
1, 346013, Note_off_c, 0, 66, 44
1, 346176, Note_off_c, 0, 58, 43
1, 346314, Note_on_c, 0, 67, 51
1, 346319, Note_on_c, 0, 63, 48
1, 346325, Note_on_c, 0, 59, 40
1, 346378, Control_c, 0, 64, 113
1, 346393, Control_c, 0, 64, 90
1, 346408, Control_c, 0, 64, 73
1, 346423, Control_c, 0, 64, 56
1, 346438, Control_c, 0, 64, 22
1, 346444, Note_off_c, 0, 60, 59
1, 346453, Control_c, 0, 64, 37
1, 346467, Control_c, 0, 64, 61
1, 346482, Control_c, 0, 64, 69
1, 346497, Control_c, 0, 64, 83
1, 346512, Control_c, 0, 64, 105
1, 346526, Control_c, 0, 64, 127
1, 346644, Note_off_c, 0, 63, 58
1, 346670, Note_off_c, 0, 67, 61
1, 346774, Note_off_c, 0, 59, 42
1, 346831, Control_c, 0, 67, 9
1, 346845, Control_c, 0, 67, 15
1, 346860, Control_c, 0, 67, 24
1, 346875, Control_c, 0, 67, 42
1, 346890, Control_c, 0, 67, 64
1, 346904, Control_c, 0, 67, 86
1, 346919, Control_c, 0, 67, 107
1, 346934, Control_c, 0, 67, 126
1, 346948, Control_c, 0, 67, 127
1, 347066, Note_on_c, 0, 60, 42
1, 347068, Note_on_c, 0, 64, 41
1, 347068, Note_on_c, 0, 68, 50
1, 347112, Control_c, 0, 64, 114
1, 347127, Control_c, 0, 64, 95
1, 347141, Control_c, 0, 64, 82
1, 347156, Control_c, 0, 64, 69
1, 347171, Control_c, 0, 64, 53
1, 347186, Control_c, 0, 64, 0
1, 347274, Control_c, 0, 64, 35
1, 347289, Control_c, 0, 64, 56
1, 347304, Control_c, 0, 64, 64
1, 347319, Control_c, 0, 64, 68
1, 347334, Control_c, 0, 64, 73
1, 347348, Control_c, 0, 64, 78
1, 347363, Control_c, 0, 64, 83
1, 347378, Control_c, 0, 64, 87
1, 347393, Control_c, 0, 64, 91
1, 347408, Control_c, 0, 64, 96
1, 347422, Control_c, 0, 64, 103
1, 347437, Control_c, 0, 64, 111
1, 347452, Control_c, 0, 64, 127
1, 347483, Note_off_c, 0, 64, 41
1, 347558, Note_off_c, 0, 60, 36
1, 347583, Note_off_c, 0, 68, 40
1, 347964, Control_c, 0, 64, 120
1, 347979, Control_c, 0, 64, 112
1, 347994, Control_c, 0, 64, 108
1, 348009, Control_c, 0, 64, 105
1, 348023, Control_c, 0, 64, 101
1, 348038, Control_c, 0, 64, 98
1, 348053, Control_c, 0, 64, 93
1, 348068, Control_c, 0, 64, 88
1, 348083, Control_c, 0, 64, 84
1, 348097, Control_c, 0, 64, 79
1, 348112, Control_c, 0, 64, 73
1, 348127, Control_c, 0, 64, 69
1, 348142, Control_c, 0, 64, 66
1, 348157, Control_c, 0, 64, 64
1, 348171, Control_c, 0, 64, 64
1, 348283, Control_c, 0, 64, 63
1, 348417, Control_c, 0, 64, 64
1, 348669, Control_c, 0, 64, 64
1, 348773, Control_c, 0, 64, 65
1, 348847, Control_c, 0, 64, 65
1, 348858, Note_on_c, 0, 58, 34
1, 348861, Note_on_c, 0, 66, 47
1, 348864, Note_on_c, 0, 62, 36
1, 348876, Control_c, 0, 64, 66
1, 348891, Control_c, 0, 64, 66
1, 348906, Control_c, 0, 64, 67
1, 348921, Control_c, 0, 64, 67
1, 348936, Control_c, 0, 64, 69
1, 348951, Control_c, 0, 64, 70
1, 348966, Control_c, 0, 64, 74
1, 348981, Control_c, 0, 64, 81
1, 349002, Control_c, 0, 64, 88
1, 349017, Control_c, 0, 64, 93
1, 349032, Control_c, 0, 64, 98
1, 349046, Control_c, 0, 64, 108
1, 349059, Note_off_c, 0, 62, 51
1, 349061, Control_c, 0, 64, 127
1, 349086, Note_off_c, 0, 66, 63
1, 349163, Note_off_c, 0, 58, 50
1, 349303, Note_on_c, 0, 67, 62
1, 349309, Note_on_c, 0, 59, 52
1, 349317, Note_on_c, 0, 63, 53
1, 349374, Control_c, 0, 64, 97
1, 349389, Control_c, 0, 64, 81
1, 349404, Control_c, 0, 64, 67
1, 349418, Control_c, 0, 64, 0
1, 349492, Control_c, 0, 64, 58
1, 349507, Control_c, 0, 64, 69
1, 349522, Control_c, 0, 64, 81
1, 349537, Control_c, 0, 64, 93
1, 349551, Control_c, 0, 64, 101
1, 349554, Note_off_c, 0, 59, 52
1, 349566, Control_c, 0, 64, 111
1, 349571, Note_off_c, 0, 67, 60
1, 349581, Control_c, 0, 64, 127
1, 349605, Note_off_c, 0, 63, 34
1, 350046, Note_on_c, 0, 64, 39
1, 350051, Note_on_c, 0, 60, 36
1, 350053, Note_on_c, 0, 68, 48
1, 350093, Control_c, 0, 64, 109
1, 350108, Control_c, 0, 64, 95
1, 350122, Control_c, 0, 64, 82
1, 350137, Control_c, 0, 64, 70
1, 350152, Control_c, 0, 64, 59
1, 350167, Control_c, 0, 64, 32
1, 350182, Control_c, 0, 64, 18
1, 350271, Control_c, 0, 64, 26
1, 350285, Control_c, 0, 64, 32
1, 350300, Control_c, 0, 64, 37
1, 350315, Control_c, 0, 64, 41
1, 350330, Control_c, 0, 64, 45
1, 350345, Control_c, 0, 64, 49
1, 350360, Control_c, 0, 64, 54
1, 350374, Control_c, 0, 64, 57
1, 350389, Control_c, 0, 64, 60
1, 350404, Control_c, 0, 64, 62
1, 350418, Control_c, 0, 64, 64
1, 350433, Control_c, 0, 64, 65
1, 350448, Control_c, 0, 64, 67
1, 350463, Control_c, 0, 64, 69
1, 350478, Control_c, 0, 64, 72
1, 350500, Control_c, 0, 64, 76
1, 350515, Control_c, 0, 64, 79
1, 350530, Control_c, 0, 64, 81
1, 350545, Control_c, 0, 64, 83
1, 350560, Control_c, 0, 64, 86
1, 350567, Note_off_c, 0, 64, 28
1, 350574, Control_c, 0, 64, 89
1, 350589, Control_c, 0, 64, 93
1, 350604, Control_c, 0, 64, 97
1, 350618, Control_c, 0, 64, 102
1, 350633, Control_c, 0, 64, 106
1, 350648, Control_c, 0, 64, 111
1, 350663, Control_c, 0, 64, 116
1, 350678, Control_c, 0, 64, 127
1, 350689, Note_off_c, 0, 60, 34
1, 350725, Note_off_c, 0, 68, 41
1, 351452, Note_on_c, 0, 45, 40
1, 351497, Note_on_c, 0, 65, 46
1, 351499, Note_on_c, 0, 71, 49
1, 351511, Note_on_c, 0, 61, 36
1, 351515, Control_c, 0, 64, 93
1, 351530, Control_c, 0, 64, 77
1, 351545, Control_c, 0, 64, 64
1, 351560, Control_c, 0, 64, 27
1, 351576, Control_c, 0, 64, 49
1, 351589, Note_off_c, 0, 65, 62
1, 351591, Control_c, 0, 64, 64
1, 351606, Control_c, 0, 64, 71
1, 351620, Control_c, 0, 64, 83
1, 351622, Note_off_c, 0, 61, 53
1, 351635, Control_c, 0, 64, 97
1, 351650, Control_c, 0, 64, 111
1, 351664, Control_c, 0, 64, 127
1, 351723, Note_off_c, 0, 45, 53
1, 351728, Note_on_c, 0, 52, 51
1, 351775, Note_off_c, 0, 52, 60
1, 351789, Note_off_c, 0, 71, 61
1, 351813, Note_on_c, 0, 69, 56
1, 351912, Note_off_c, 0, 69, 62
1, 351928, Note_on_c, 0, 78, 56
1, 351939, Note_on_c, 0, 63, 51
1, 351944, Note_on_c, 0, 68, 41
1, 351978, Note_off_c, 0, 68, 53
1, 351994, Note_off_c, 0, 63, 60
1, 352189, Control_c, 0, 64, 111
1, 352204, Control_c, 0, 64, 85
1, 352219, Control_c, 0, 64, 68
1, 352234, Control_c, 0, 64, 45
1, 352249, Control_c, 0, 64, 42
1, 352254, Note_on_c, 0, 76, 46
1, 352263, Control_c, 0, 64, 61
1, 352278, Control_c, 0, 64, 68
1, 352293, Control_c, 0, 64, 77
1, 352308, Control_c, 0, 64, 97
1, 352323, Control_c, 0, 64, 127
1, 352355, Note_off_c, 0, 76, 63
1, 352365, Note_off_c, 0, 78, 30
1, 352598, Note_on_c, 0, 78, 61
1, 352612, Note_on_c, 0, 68, 48
1, 352616, Note_on_c, 0, 72, 51
1, 352779, Note_off_c, 0, 78, 60
1, 352782, Note_off_c, 0, 72, 52
1, 352814, Note_on_c, 0, 64, 50
1, 352814, Note_off_c, 0, 68, 63
1, 352894, Note_off_c, 0, 64, 63
1, 352993, Note_on_c, 0, 52, 50
1, 353175, Note_on_c, 0, 61, 55
1, 353181, Note_on_c, 0, 71, 62
1, 353237, Poly_aftertouch_c, 0, 65, 127
1, 353267, Note_off_c, 0, 61, 61
1, 353278, Poly_aftertouch_c, 0, 65, 0
1, 353336, Note_off_c, 0, 71, 62
1, 353347, Note_on_c, 0, 73, 67
1, 353350, Note_on_c, 0, 40, 52
1, 353361, Note_on_c, 0, 62, 46
1, 353366, Note_on_c, 0, 66, 54
1, 353383, Note_off_c, 0, 40, 62
1, 353386, Note_off_c, 0, 62, 56
1, 353390, Note_off_c, 0, 52, 38
1, 353398, Note_off_c, 0, 66, 65
1, 353515, Note_off_c, 0, 73, 56
1, 353524, Control_c, 0, 64, 98
1, 353539, Control_c, 0, 64, 75
1, 353545, Note_on_c, 0, 71, 65
1, 353546, Note_on_c, 0, 45, 59
1, 353552, Note_on_c, 0, 61, 60
1, 353554, Control_c, 0, 64, 0
1, 353598, Control_c, 0, 64, 47
1, 353612, Note_off_c, 0, 61, 62
1, 353613, Control_c, 0, 64, 67
1, 353628, Control_c, 0, 64, 75
1, 353642, Control_c, 0, 64, 85
1, 353657, Control_c, 0, 64, 92
1, 353672, Control_c, 0, 64, 98
1, 353678, Note_off_c, 0, 45, 59
1, 353687, Control_c, 0, 64, 108
1, 353699, Note_on_c, 0, 52, 58
1, 353702, Control_c, 0, 64, 127
1, 353728, Note_off_c, 0, 52, 62
1, 353751, Note_off_c, 0, 71, 63
1, 353780, Note_on_c, 0, 69, 64
1, 353866, Note_off_c, 0, 69, 62
1, 353866, Note_on_c, 0, 78, 76
1, 353938, Control_c, 0, 64, 114
1, 353954, Control_c, 0, 64, 85
1, 353969, Control_c, 0, 64, 66
1, 353983, Control_c, 0, 64, 44
1, 353998, Control_c, 0, 64, 61
1, 354013, Control_c, 0, 64, 69
1, 354028, Control_c, 0, 64, 80
1, 354043, Control_c, 0, 64, 102
1, 354057, Control_c, 0, 64, 127
1, 354060, Note_on_c, 0, 76, 66
1, 354098, Note_off_c, 0, 78, 55
1, 354119, Note_off_c, 0, 76, 65
1, 354274, Note_on_c, 0, 78, 72
1, 354281, Note_on_c, 0, 72, 58
1, 354288, Note_on_c, 0, 68, 50
1, 354416, Note_off_c, 0, 72, 63
1, 354446, Note_on_c, 0, 64, 63
1, 354451, Note_off_c, 0, 78, 59
1, 354512, Note_off_c, 0, 64, 62
1, 354580, Note_off_c, 0, 68, 31
1, 354606, Note_on_c, 0, 52, 59
1, 354743, Note_off_c, 0, 52, 62
1, 354781, Note_on_c, 0, 52, 55
1, 354788, Note_on_c, 0, 67, 61
1, 354791, Note_on_c, 0, 75, 69
1, 354823, Poly_aftertouch_c, 0, 71, 127
1, 354832, Note_off_c, 0, 67, 53
1, 354865, Poly_aftertouch_c, 0, 71, 0
1, 354946, Note_on_c, 0, 40, 60
1, 355004, Note_off_c, 0, 40, 61
1, 355005, Note_on_c, 0, 76, 75
1, 355007, Note_off_c, 0, 75, 56
1, 355013, Note_off_c, 0, 52, 29
1, 355023, Note_on_c, 0, 68, 58
1, 355047, Note_off_c, 0, 68, 63
1, 355056, Note_off_c, 0, 76, 65
1, 355140, Control_c, 0, 67, 120
1, 355155, Control_c, 0, 67, 108
1, 355170, Control_c, 0, 67, 94
1, 355185, Control_c, 0, 67, 78
1, 355200, Poly_aftertouch_c, 0, 80, 127
1, 355200, Control_c, 0, 67, 61
1, 355214, Control_c, 0, 67, 44
1, 355229, Control_c, 0, 67, 27
1, 355232, Note_on_c, 0, 45, 63
1, 355244, Control_c, 0, 67, 10
1, 355248, Poly_aftertouch_c, 0, 80, 0
1, 355259, Control_c, 0, 64, 119
1, 355259, Control_c, 0, 67, 0
1, 355263, Note_on_c, 0, 83, 80
1, 355274, Control_c, 0, 64, 89
1, 355276, Note_on_c, 0, 73, 60
1, 355281, Note_on_c, 0, 77, 51
1, 355288, Control_c, 0, 64, 69
1, 355303, Control_c, 0, 64, 0
1, 355348, Note_off_c, 0, 77, 62
1, 355348, Control_c, 0, 64, 18
1, 355363, Control_c, 0, 64, 63
1, 355378, Control_c, 0, 64, 70
1, 355393, Control_c, 0, 64, 79
1, 355406, Note_off_c, 0, 73, 55
1, 355407, Control_c, 0, 64, 91
1, 355422, Control_c, 0, 64, 104
1, 355437, Control_c, 0, 64, 127
1, 355461, Note_on_c, 0, 52, 57
1, 355466, Note_off_c, 0, 45, 36
1, 355494, Note_off_c, 0, 52, 64
1, 355564, Note_on_c, 0, 81, 82
1, 355570, Note_on_c, 0, 73, 53
1, 355581, Note_off_c, 0, 83, 63
1, 355596, Note_off_c, 0, 73, 65
1, 355626, Note_off_c, 0, 81, 68
1, 355646, Note_on_c, 0, 63, 60
1, 355697, Note_off_c, 0, 63, 57
1, 355816, Note_on_c, 0, 76, 69
1, 355857, Note_off_c, 0, 76, 62
1, 355983, Note_on_c, 0, 78, 72
1, 355992, Note_on_c, 0, 73, 55
1, 356046, Note_off_c, 0, 73, 53
1, 356077, Note_on_c, 0, 64, 68
1, 356128, Note_off_c, 0, 64, 61
1, 356165, Note_on_c, 0, 73, 73
1, 356176, Note_off_c, 0, 78, 59
1, 356179, Note_on_c, 0, 68, 64
1, 356211, Note_off_c, 0, 68, 66
1, 356215, Note_off_c, 0, 73, 63
1, 356382, Note_on_c, 0, 70, 66
1, 356389, Note_on_c, 0, 45, 51
1, 356397, Note_on_c, 0, 66, 58
1, 356406, Note_on_c, 0, 61, 35
1, 356424, Control_c, 0, 64, 92
1, 356429, Note_on_c, 0, 71, 63
1, 356439, Control_c, 0, 64, 73
1, 356453, Control_c, 0, 64, 27
1, 356468, Note_off_c, 0, 70, 62
1, 356468, Control_c, 0, 64, 0
1, 356549, Control_c, 0, 64, 62
1, 356560, Note_off_c, 0, 61, 47
1, 356564, Control_c, 0, 64, 71
1, 356579, Control_c, 0, 64, 79
1, 356594, Control_c, 0, 64, 86
1, 356609, Control_c, 0, 64, 92
1, 356618, Note_on_c, 0, 52, 51
1, 356621, Note_off_c, 0, 45, 58
1, 356624, Control_c, 0, 64, 99
1, 356639, Control_c, 0, 64, 108
1, 356653, Control_c, 0, 64, 127
1, 356657, Note_off_c, 0, 66, 30
1, 356664, Note_off_c, 0, 52, 60
1, 356693, Note_off_c, 0, 71, 63
1, 356719, Note_on_c, 0, 69, 62
1, 356724, Note_on_c, 0, 61, 59
1, 356771, Note_off_c, 0, 61, 58
1, 356775, Note_off_c, 0, 69, 60
1, 356863, Note_on_c, 0, 64, 49
1, 356895, Note_off_c, 0, 64, 63
1, 357020, Note_on_c, 0, 64, 56
1, 357035, Note_on_c, 0, 56, 45
1, 357157, Note_off_c, 0, 56, 38
1, 357254, Note_on_c, 0, 52, 45
1, 357346, Note_off_c, 0, 64, 62
1, 357365, Note_on_c, 0, 61, 56
1, 357376, Note_on_c, 0, 56, 42
1, 357434, Note_off_c, 0, 56, 61
1, 357476, Note_off_c, 0, 61, 59
1, 357494, Note_off_c, 0, 52, 40
1, 357503, Note_on_c, 0, 45, 48
1, 357533, Note_off_c, 0, 45, 60
1, 357697, Note_on_c, 0, 42, 61
1, 357742, Control_c, 0, 64, 117
1, 357757, Control_c, 0, 64, 86
1, 357768, Note_on_c, 0, 68, 78
1, 357771, Control_c, 0, 64, 65
1, 357786, Note_on_c, 0, 64, 54
1, 357786, Note_on_c, 0, 60, 53
1, 357786, Control_c, 0, 64, 0
1, 357831, Control_c, 0, 64, 36
1, 357846, Control_c, 0, 64, 62
1, 357860, Control_c, 0, 64, 67
1, 357875, Control_c, 0, 64, 73
1, 357890, Control_c, 0, 64, 80
1, 357900, Note_off_c, 0, 64, 51
1, 357905, Control_c, 0, 64, 89
1, 357920, Control_c, 0, 64, 95
1, 357921, Note_off_c, 0, 60, 53
1, 357934, Control_c, 0, 64, 101
1, 357950, Control_c, 0, 64, 108
1, 357953, Note_on_c, 0, 49, 56
1, 357956, Note_off_c, 0, 42, 61
1, 357965, Control_c, 0, 64, 116
1, 357987, Control_c, 0, 64, 127
1, 358002, Control_c, 0, 67, 8
1, 358016, Note_off_c, 0, 49, 59
1, 358017, Control_c, 0, 67, 17
1, 358031, Control_c, 0, 67, 34
1, 358046, Control_c, 0, 67, 60
1, 358061, Control_c, 0, 67, 87
1, 358076, Control_c, 0, 67, 118
1, 358091, Control_c, 0, 67, 127
1, 358207, Note_on_c, 0, 69, 65
1, 358210, Control_c, 0, 64, 111
1, 358225, Note_off_c, 0, 68, 53
1, 358225, Control_c, 0, 64, 93
1, 358226, Note_on_c, 0, 61, 44
1, 358229, Note_on_c, 0, 64, 48
1, 358234, Note_on_c, 0, 59, 46
1, 358239, Control_c, 0, 64, 76
1, 358254, Control_c, 0, 64, 54
1, 358269, Control_c, 0, 64, 0
1, 358344, Control_c, 0, 64, 47
1, 358358, Control_c, 0, 64, 63
1, 358373, Control_c, 0, 64, 68
1, 358388, Control_c, 0, 64, 74
1, 358403, Control_c, 0, 64, 79
1, 358418, Control_c, 0, 64, 84
1, 358424, Note_off_c, 0, 64, 62
1, 358432, Control_c, 0, 64, 89
1, 358447, Control_c, 0, 64, 95
1, 358462, Control_c, 0, 64, 102
1, 358476, Control_c, 0, 64, 109
1, 358491, Control_c, 0, 64, 127
1, 358550, Note_off_c, 0, 69, 56
1, 358615, Note_off_c, 0, 61, 43
1, 358809, Note_on_c, 0, 70, 51
1, 358818, Note_on_c, 0, 62, 35
1, 358818, Note_on_c, 0, 65, 45
1, 358827, Note_on_c, 0, 58, 36
1, 358841, Control_c, 0, 64, 109
1, 358855, Control_c, 0, 64, 93
1, 358860, Note_off_c, 0, 59, 35
1, 358870, Control_c, 0, 64, 81
1, 358885, Control_c, 0, 64, 68
1, 358900, Control_c, 0, 64, 20
1, 358914, Control_c, 0, 64, 0
1, 358974, Control_c, 0, 64, 38
1, 358988, Control_c, 0, 64, 55
1, 359003, Control_c, 0, 64, 63
1, 359018, Control_c, 0, 64, 67
1, 359032, Control_c, 0, 64, 72
1, 359047, Control_c, 0, 64, 79
1, 359062, Control_c, 0, 64, 84
1, 359077, Control_c, 0, 64, 88
1, 359092, Control_c, 0, 64, 92
1, 359107, Control_c, 0, 64, 96
1, 359122, Control_c, 0, 64, 101
1, 359137, Control_c, 0, 64, 106
1, 359152, Control_c, 0, 64, 115
1, 359167, Control_c, 0, 64, 127
1, 359183, Note_off_c, 0, 65, 43
1, 359265, Note_off_c, 0, 58, 42
1, 359414, Note_off_c, 0, 62, 33
1, 359429, Note_off_c, 0, 70, 43
1, 359661, Note_on_c, 0, 47, 36
1, 359718, Note_on_c, 0, 73, 53
1, 359723, Control_c, 0, 64, 117
1, 359737, Note_on_c, 0, 69, 34
1, 359737, Control_c, 0, 64, 93
1, 359743, Note_on_c, 0, 62, 40
1, 359752, Control_c, 0, 64, 76
1, 359767, Control_c, 0, 64, 61
1, 359782, Control_c, 0, 64, 0
1, 359797, Control_c, 0, 64, 18
1, 359811, Control_c, 0, 64, 56
1, 359826, Control_c, 0, 64, 64
1, 359841, Control_c, 0, 64, 70
1, 359855, Control_c, 0, 64, 78
1, 359870, Control_c, 0, 64, 88
1, 359885, Control_c, 0, 64, 93
1, 359900, Control_c, 0, 64, 99
1, 359915, Control_c, 0, 64, 104
1, 359926, Note_off_c, 0, 73, 61
1, 359930, Control_c, 0, 64, 113
1, 359945, Control_c, 0, 64, 127
1, 359967, Note_on_c, 0, 54, 46
1, 359995, Note_off_c, 0, 47, 40
1, 360026, Note_off_c, 0, 54, 57
1, 360044, Note_off_c, 0, 62, 37
1, 360055, Note_off_c, 0, 69, 41
1, 360064, Note_on_c, 0, 66, 52
1, 360071, Note_on_c, 0, 71, 52
1, 360090, Note_off_c, 0, 66, 60
1, 360106, Note_off_c, 0, 71, 65
1, 360244, Note_on_c, 0, 81, 74
1, 360274, Note_on_c, 0, 78, 44
1, 360281, Note_on_c, 0, 73, 42
1, 360306, Note_off_c, 0, 73, 56
1, 360307, Note_off_c, 0, 78, 53
1, 360314, Note_off_c, 0, 81, 63
1, 360512, Note_on_c, 0, 66, 53
1, 360774, Note_on_c, 0, 81, 81
1, 360785, Note_on_c, 0, 78, 39
1, 360787, Note_off_c, 0, 66, 58
1, 360795, Note_on_c, 0, 74, 41
1, 360796, Note_on_c, 0, 73, 53
1, 360956, Note_on_c, 0, 66, 55
1, 360956, Note_off_c, 0, 74, 36
1, 360974, Note_off_c, 0, 81, 62
1, 360986, Note_off_c, 0, 73, 62
1, 360993, Note_off_c, 0, 78, 58
1, 360999, Note_off_c, 0, 66, 67
1, 361122, Note_on_c, 0, 54, 63
1, 361288, Note_on_c, 0, 73, 69
1, 361302, Note_on_c, 0, 68, 50
1, 361320, Note_on_c, 0, 64, 40
1, 361343, Note_off_c, 0, 68, 61
1, 361348, Note_off_c, 0, 64, 56
1, 361378, Note_off_c, 0, 73, 61
1, 361456, Note_on_c, 0, 42, 55
1, 361461, Note_on_c, 0, 74, 63
1, 361466, Note_on_c, 0, 66, 62
1, 361497, Note_off_c, 0, 66, 66
1, 361500, Note_off_c, 0, 42, 63
1, 361509, Note_off_c, 0, 54, 56
1, 361560, Note_off_c, 0, 74, 58
1, 361620, Control_c, 0, 64, 122
1, 361635, Control_c, 0, 64, 91
1, 361643, Note_on_c, 0, 73, 72
1, 361644, Note_on_c, 0, 47, 59
1, 361650, Control_c, 0, 64, 72
1, 361659, Note_on_c, 0, 64, 56
1, 361665, Control_c, 0, 64, 33
1, 361668, Note_on_c, 0, 68, 47
1, 361679, Control_c, 0, 64, 0
1, 361709, Control_c, 0, 64, 61
1, 361731, Control_c, 0, 64, 68
1, 361746, Control_c, 0, 64, 75
1, 361748, Note_off_c, 0, 64, 62
1, 361760, Control_c, 0, 64, 85
1, 361760, Control_c, 0, 67, 114
1, 361775, Control_c, 0, 64, 94
1, 361775, Control_c, 0, 67, 94
1, 361790, Control_c, 0, 64, 106
1, 361790, Control_c, 0, 67, 70
1, 361805, Control_c, 0, 64, 127
1, 361805, Control_c, 0, 67, 42
1, 361820, Note_on_c, 0, 54, 63
1, 361820, Control_c, 0, 67, 21
1, 361823, Note_off_c, 0, 47, 58
1, 361834, Control_c, 0, 67, 0
1, 361840, Note_off_c, 0, 73, 61
1, 361857, Note_off_c, 0, 54, 63
1, 361896, Note_on_c, 0, 62, 49
1, 361900, Note_on_c, 0, 71, 68
1, 361900, Note_off_c, 0, 68, 25
1, 361920, Note_off_c, 0, 62, 55
1, 361930, Note_off_c, 0, 71, 67
1, 362016, Note_on_c, 0, 81, 84
1, 362031, Note_on_c, 0, 78, 58
1, 362041, Note_on_c, 0, 73, 51
1, 362101, Note_off_c, 0, 73, 46
1, 362145, Note_off_c, 0, 78, 58
1, 362172, Note_off_c, 0, 81, 62
1, 362178, Note_on_c, 0, 66, 72
1, 362350, Note_on_c, 0, 81, 88
1, 362363, Note_on_c, 0, 78, 58
1, 362364, Note_on_c, 0, 73, 61
1, 362370, Note_off_c, 0, 66, 61
1, 362372, Note_on_c, 0, 74, 51
1, 362457, Note_off_c, 0, 73, 63
1, 362462, Note_off_c, 0, 78, 50
1, 362476, Note_off_c, 0, 74, 57
1, 362526, Note_on_c, 0, 66, 67
1, 362556, Note_off_c, 0, 66, 68
1, 362685, Note_on_c, 0, 54, 64
1, 362702, Note_off_c, 0, 81, 56
1, 362824, Note_on_c, 0, 80, 68
1, 362827, Note_on_c, 0, 71, 63
1, 362827, Note_on_c, 0, 76, 60
1, 362863, Note_off_c, 0, 76, 64
1, 362871, Note_off_c, 0, 71, 60
1, 362891, Note_off_c, 0, 80, 64
1, 362948, Note_off_c, 0, 54, 57
1, 362994, Note_on_c, 0, 78, 73
1, 363012, Note_on_c, 0, 69, 62
1, 363016, Note_on_c, 0, 47, 55
1, 363077, Note_off_c, 0, 69, 54
1, 363143, Note_off_c, 0, 78, 58
1, 363147, Control_c, 0, 64, 107
1, 363162, Control_c, 0, 64, 81
1, 363173, Note_on_c, 0, 40, 64
1, 363177, Control_c, 0, 64, 59
1, 363185, Note_on_c, 0, 80, 73
1, 363190, Note_on_c, 0, 71, 62
1, 363191, Control_c, 0, 64, 0
1, 363192, Note_on_c, 0, 76, 53
1, 363210, Note_off_c, 0, 47, 51
1, 363244, Control_c, 0, 64, 61
1, 363259, Control_c, 0, 64, 70
1, 363261, Note_off_c, 0, 71, 55
1, 363273, Control_c, 0, 64, 80
1, 363288, Control_c, 0, 64, 93
1, 363303, Control_c, 0, 64, 109
1, 363318, Control_c, 0, 64, 127
1, 363374, Note_off_c, 0, 76, 41
1, 363375, Note_off_c, 0, 80, 64
1, 363390, Note_on_c, 0, 78, 65
1, 363411, Note_on_c, 0, 47, 57
1, 363411, Note_on_c, 0, 69, 51
1, 363421, Note_on_c, 0, 74, 24
1, 363435, Note_off_c, 0, 69, 58
1, 363436, Note_off_c, 0, 78, 58
1, 363446, Note_off_c, 0, 40, 36
1, 363462, Note_off_c, 0, 74, 53
1, 363595, Note_off_c, 0, 47, 61
1, 363597, Note_on_c, 0, 54, 58
1, 363612, Note_on_c, 0, 69, 71
1, 363629, Note_on_c, 0, 62, 50
1, 363650, Note_off_c, 0, 54, 60
1, 363753, Note_off_c, 0, 62, 55
1, 363832, Note_on_c, 0, 61, 73
1, 363852, Control_c, 0, 64, 96
1, 363867, Control_c, 0, 64, 75
1, 363882, Control_c, 0, 64, 0
1, 363955, Control_c, 0, 64, 60
1, 363978, Control_c, 0, 64, 67
1, 363993, Control_c, 0, 64, 76
1, 364008, Control_c, 0, 64, 86
1, 364022, Control_c, 0, 64, 96
1, 364037, Control_c, 0, 64, 107
1, 364052, Control_c, 0, 64, 127
1, 364100, Note_on_c, 0, 71, 67
1, 364122, Note_on_c, 0, 68, 59
1, 364127, Note_on_c, 0, 64, 49
1, 364154, Note_off_c, 0, 69, 53
1, 364185, Control_c, 0, 67, 11
1, 364200, Control_c, 0, 67, 19
1, 364215, Control_c, 0, 67, 33
1, 364229, Control_c, 0, 67, 60
1, 364244, Control_c, 0, 67, 87
1, 364259, Control_c, 0, 67, 113
1, 364274, Control_c, 0, 67, 127
1, 364338, Note_on_c, 0, 62, 54
1, 364339, Note_off_c, 0, 61, 61
1, 364370, Note_off_c, 0, 62, 64
1, 364535, Note_off_c, 0, 68, 40
1, 364582, Note_off_c, 0, 64, 56
1, 364601, Control_c, 0, 64, 93
1, 364616, Control_c, 0, 64, 74
1, 364631, Control_c, 0, 64, 53
1, 364631, Note_on_c, 0, 45, 48
1, 364645, Control_c, 0, 64, 0
1, 364660, Control_c, 0, 64, 48
1, 364675, Control_c, 0, 64, 67
1, 364690, Control_c, 0, 64, 81
1, 364705, Control_c, 0, 64, 103
1, 364726, Control_c, 0, 64, 127
1, 364732, Note_off_c, 0, 45, 62
1, 364733, Note_off_c, 0, 71, 63
1, 365104, Note_on_c, 0, 92, 57
1, 365116, Note_on_c, 0, 63, 41
1, 365120, Note_on_c, 0, 54, 38
1, 365120, Note_on_c, 0, 59, 39
1, 365277, Note_off_c, 0, 92, 57
1, 365277, Note_on_c, 0, 90, 61
1, 365292, Note_off_c, 0, 59, 59
1, 365368, Note_off_c, 0, 54, 43
1, 365373, Note_off_c, 0, 63, 55
1, 365385, Note_off_c, 0, 90, 62
1, 365394, Note_on_c, 0, 85, 63
1, 365497, Note_off_c, 0, 85, 63
1, 365516, Note_on_c, 0, 64, 58
1, 365527, Note_on_c, 0, 56, 46
1, 365529, Note_on_c, 0, 80, 56
1, 365534, Note_on_c, 0, 61, 39
1, 365555, Note_off_c, 0, 64, 61
1, 365565, Note_off_c, 0, 56, 62
1, 365584, Note_off_c, 0, 61, 53
1, 365623, Control_c, 0, 64, 96
1, 365638, Control_c, 0, 64, 78
1, 365653, Control_c, 0, 64, 64
1, 365656, Note_off_c, 0, 80, 40
1, 365661, Note_on_c, 0, 64, 50
1, 365665, Note_on_c, 0, 56, 48
1, 365668, Control_c, 0, 64, 54
1, 365670, Note_on_c, 0, 83, 56
1, 365678, Note_on_c, 0, 61, 38
1, 365683, Control_c, 0, 64, 63
1, 365698, Control_c, 0, 64, 68
1, 365713, Control_c, 0, 64, 77
1, 365726, Note_off_c, 0, 61, 57
1, 365727, Control_c, 0, 64, 91
1, 365729, Note_off_c, 0, 64, 61
1, 365742, Control_c, 0, 64, 105
1, 365757, Control_c, 0, 64, 127
1, 365776, Note_off_c, 0, 83, 67
1, 365784, Note_on_c, 0, 85, 66
1, 365882, Note_on_c, 0, 63, 55
1, 365885, Note_on_c, 0, 59, 59
1, 365888, Note_on_c, 0, 66, 51
1, 365896, Note_on_c, 0, 80, 68
1, 365898, Note_off_c, 0, 85, 56
1, 365912, Note_off_c, 0, 63, 65
1, 365916, Note_off_c, 0, 66, 58
1, 365927, Note_off_c, 0, 59, 60
1, 365945, Note_off_c, 0, 56, 23
1, 365979, Note_off_c, 0, 80, 63
1, 365994, Note_on_c, 0, 78, 55
1, 366016, Note_off_c, 0, 78, 64
1, 366114, Note_on_c, 0, 52, 62
1, 366120, Note_on_c, 0, 73, 68
1, 366135, Note_on_c, 0, 68, 48
1, 366161, Note_off_c, 0, 68, 56
1, 366178, Note_off_c, 0, 73, 63
1, 366185, Poly_aftertouch_c, 0, 64, 127
1, 366210, Poly_aftertouch_c, 0, 64, 0
1, 366277, Note_on_c, 0, 45, 68
1, 366284, Note_off_c, 0, 52, 62
1, 366306, Note_off_c, 0, 45, 65
1, 366476, Note_on_c, 0, 63, 66
1, 366476, Control_c, 0, 64, 90
1, 366485, Note_on_c, 0, 92, 66
1, 366487, Note_on_c, 0, 54, 50
1, 366491, Control_c, 0, 64, 71
1, 366494, Note_on_c, 0, 59, 45
1, 366506, Control_c, 0, 64, 45
1, 366520, Control_c, 0, 64, 24
1, 366535, Control_c, 0, 64, 57
1, 366550, Control_c, 0, 64, 66
1, 366565, Control_c, 0, 64, 74
1, 366576, Note_off_c, 0, 92, 61
1, 366580, Note_on_c, 0, 90, 66
1, 366580, Control_c, 0, 64, 90
1, 366595, Control_c, 0, 64, 109
1, 366610, Control_c, 0, 64, 127
1, 366614, Note_off_c, 0, 59, 54
1, 366652, Note_off_c, 0, 54, 61
1, 366660, Note_on_c, 0, 85, 71
1, 366660, Note_off_c, 0, 90, 63
1, 366666, Note_off_c, 0, 63, 62
1, 366731, Note_off_c, 0, 85, 64
1, 366741, Note_on_c, 0, 64, 67
1, 366745, Note_on_c, 0, 80, 58
1, 366750, Note_on_c, 0, 61, 55
1, 366757, Note_on_c, 0, 56, 46
1, 366770, Note_off_c, 0, 64, 66
1, 366783, Note_off_c, 0, 56, 60
1, 366783, Note_off_c, 0, 80, 62
1, 366786, Note_off_c, 0, 61, 60
1, 366788, Control_c, 0, 64, 116
1, 366803, Control_c, 0, 64, 88
1, 366818, Control_c, 0, 64, 70
1, 366827, Note_on_c, 0, 83, 69
1, 366832, Control_c, 0, 64, 50
1, 366842, Note_on_c, 0, 64, 71
1, 366847, Control_c, 0, 64, 44
1, 366860, Note_on_c, 0, 56, 65
1, 366862, Control_c, 0, 64, 63
1, 366872, Note_on_c, 0, 61, 53
1, 366877, Control_c, 0, 64, 72
1, 366891, Control_c, 0, 64, 87
1, 366902, Note_off_c, 0, 64, 62
1, 366906, Control_c, 0, 64, 118
1, 366908, Note_off_c, 0, 61, 62
1, 366921, Control_c, 0, 64, 127
1, 366932, Note_off_c, 0, 83, 68
1, 366938, Note_on_c, 0, 85, 73
1, 367025, Note_on_c, 0, 66, 75
1, 367035, Note_on_c, 0, 59, 61
1, 367035, Note_on_c, 0, 63, 60
1, 367049, Note_on_c, 0, 80, 76
1, 367051, Note_off_c, 0, 66, 67
1, 367064, Note_off_c, 0, 63, 66
1, 367074, Note_off_c, 0, 85, 51
1, 367081, Note_off_c, 0, 59, 59
1, 367127, Note_on_c, 0, 78, 77
1, 367127, Note_off_c, 0, 56, 42
1, 367137, Note_off_c, 0, 80, 63
1, 367171, Note_off_c, 0, 78, 60
1, 367242, Note_on_c, 0, 52, 58
1, 367266, Note_on_c, 0, 73, 77
1, 367269, Control_c, 0, 64, 106
1, 367283, Note_on_c, 0, 68, 67
1, 367284, Note_on_c, 0, 64, 61
1, 367284, Control_c, 0, 64, 77
1, 367298, Control_c, 0, 64, 20
1, 367304, Note_off_c, 0, 64, 57
1, 367313, Control_c, 0, 64, 0
1, 367395, Note_off_c, 0, 68, 38
1, 367403, Control_c, 0, 64, 61
1, 367418, Control_c, 0, 64, 70
1, 367424, Note_on_c, 0, 45, 66
1, 367433, Control_c, 0, 64, 79
1, 367444, Note_off_c, 0, 73, 62
1, 367447, Control_c, 0, 64, 91
1, 367456, Note_off_c, 0, 52, 60
1, 367462, Note_off_c, 0, 45, 62
1, 367462, Control_c, 0, 64, 105
1, 367477, Control_c, 0, 64, 127
1, 367800, Note_on_c, 0, 67, 51
1, 367808, Note_on_c, 0, 64, 44
1, 367815, Note_on_c, 0, 91, 50
1, 367818, Note_on_c, 0, 59, 33
1, 367869, Control_c, 0, 64, 108
1, 367884, Control_c, 0, 64, 88
1, 367899, Control_c, 0, 64, 76
1, 367913, Control_c, 0, 64, 66
1, 367928, Control_c, 0, 64, 60
1, 367943, Control_c, 0, 64, 61
1, 367958, Control_c, 0, 64, 65
1, 367959, Note_on_c, 0, 90, 54
1, 367973, Control_c, 0, 64, 69
1, 367987, Control_c, 0, 64, 74
1, 368002, Control_c, 0, 64, 82
1, 368014, Note_off_c, 0, 64, 35
1, 368017, Note_off_c, 0, 59, 42
1, 368017, Control_c, 0, 64, 89
1, 368021, Note_off_c, 0, 91, 32
1, 368032, Control_c, 0, 64, 93
1, 368036, Note_off_c, 0, 67, 52
1, 368047, Control_c, 0, 64, 98
1, 368053, Note_on_c, 0, 88, 60
1, 368062, Control_c, 0, 64, 106
1, 368076, Control_c, 0, 64, 127
1, 368113, Note_off_c, 0, 90, 45
1, 368116, Note_off_c, 0, 88, 65
1, 368148, Note_on_c, 0, 83, 62
1, 368150, Note_on_c, 0, 69, 59
1, 368151, Note_on_c, 0, 61, 53
1, 368171, Note_on_c, 0, 66, 39
1, 368181, Note_off_c, 0, 69, 62
1, 368185, Note_off_c, 0, 61, 59
1, 368195, Control_c, 0, 64, 94
1, 368204, Note_off_c, 0, 66, 55
1, 368210, Control_c, 0, 64, 78
1, 368225, Control_c, 0, 64, 68
1, 368237, Note_off_c, 0, 83, 58
1, 368239, Note_on_c, 0, 85, 65
1, 368239, Control_c, 0, 64, 69
1, 368254, Note_on_c, 0, 69, 60
1, 368254, Control_c, 0, 64, 74
1, 368259, Note_on_c, 0, 61, 53
1, 368269, Control_c, 0, 64, 85
1, 368284, Control_c, 0, 64, 103
1, 368297, Note_off_c, 0, 61, 60
1, 368299, Control_c, 0, 64, 127
1, 368300, Note_on_c, 0, 66, 8
1, 368320, Note_off_c, 0, 69, 59
1, 368335, Note_off_c, 0, 85, 65
1, 368340, Note_on_c, 0, 88, 73
1, 368362, Note_off_c, 0, 66, 51
1, 368433, Note_on_c, 0, 62, 60
1, 368434, Note_on_c, 0, 71, 47
1, 368439, Note_on_c, 0, 83, 68
1, 368446, Note_on_c, 0, 67, 39
1, 368466, Note_off_c, 0, 71, 57
1, 368476, Note_off_c, 0, 88, 62
1, 368483, Note_off_c, 0, 67, 51
1, 368485, Note_off_c, 0, 62, 61
1, 368521, Note_on_c, 0, 78, 73
1, 368530, Note_off_c, 0, 83, 67
1, 368555, Note_off_c, 0, 78, 62
1, 368640, Note_on_c, 0, 52, 53
1, 368643, Note_on_c, 0, 76, 63
1, 368649, Note_on_c, 0, 69, 56
1, 368667, Note_off_c, 0, 69, 63
1, 368688, Note_off_c, 0, 76, 65
1, 368781, Note_on_c, 0, 45, 74
1, 368807, Note_off_c, 0, 52, 61
1, 368813, Note_off_c, 0, 45, 65
1, 368968, Note_on_c, 0, 95, 76
1, 368968, Note_on_c, 0, 64, 63
1, 368971, Note_on_c, 0, 67, 66
1, 368974, Control_c, 0, 64, 107
1, 368975, Note_on_c, 0, 91, 59
1, 368976, Note_on_c, 0, 59, 61
1, 368988, Control_c, 0, 64, 83
1, 369003, Control_c, 0, 64, 66
1, 369018, Control_c, 0, 64, 58
1, 369033, Control_c, 0, 64, 64
1, 369048, Control_c, 0, 64, 70
1, 369051, Note_on_c, 0, 90, 77
1, 369062, Control_c, 0, 64, 80
1, 369077, Control_c, 0, 64, 103
1, 369085, Note_off_c, 0, 95, 60
1, 369092, Control_c, 0, 64, 127
1, 369094, Note_off_c, 0, 64, 58
1, 369111, Note_off_c, 0, 59, 62
1, 369114, Note_off_c, 0, 67, 61
1, 369128, Note_off_c, 0, 91, 63
1, 369143, Note_on_c, 0, 88, 77
1, 369155, Note_off_c, 0, 90, 61
1, 369228, Note_off_c, 0, 88, 64
1, 369230, Note_on_c, 0, 69, 71
1, 369236, Note_on_c, 0, 61, 62
1, 369237, Note_on_c, 0, 83, 74
1, 369250, Note_on_c, 0, 66, 59
1, 369261, Note_off_c, 0, 69, 62
1, 369268, Note_off_c, 0, 61, 63
1, 369272, Note_off_c, 0, 66, 63
1, 369278, Control_c, 0, 64, 114
1, 369293, Control_c, 0, 64, 86
1, 369308, Control_c, 0, 64, 67
1, 369322, Control_c, 0, 64, 18
1, 369326, Note_off_c, 0, 83, 64
1, 369329, Note_on_c, 0, 85, 77
1, 369331, Note_on_c, 0, 61, 69
1, 369337, Control_c, 0, 64, 0
1, 369347, Note_on_c, 0, 66, 67
1, 369349, Note_on_c, 0, 69, 63
1, 369352, Control_c, 0, 64, 61
1, 369367, Control_c, 0, 64, 70
1, 369382, Control_c, 0, 64, 89
1, 369397, Control_c, 0, 64, 127
1, 369403, Note_off_c, 0, 66, 56
1, 369409, Note_off_c, 0, 61, 60
1, 369420, Note_off_c, 0, 69, 47
1, 369433, Note_off_c, 0, 85, 64
1, 369445, Note_on_c, 0, 88, 72
1, 369446, Note_on_c, 0, 90, 73
1, 369551, Note_on_c, 0, 83, 70
1, 369568, Note_on_c, 0, 71, 54
1, 369570, Note_on_c, 0, 67, 52
1, 369570, Note_on_c, 0, 62, 61
1, 369580, Note_off_c, 0, 88, 64
1, 369589, Note_off_c, 0, 71, 60
1, 369594, Note_off_c, 0, 67, 62
1, 369606, Note_off_c, 0, 62, 64
1, 369626, Note_off_c, 0, 90, 36
1, 369645, Note_off_c, 0, 83, 68
1, 369658, Note_on_c, 0, 78, 79
1, 369692, Note_off_c, 0, 78, 59
1, 369849, Note_on_c, 0, 52, 61
1, 369862, Note_on_c, 0, 76, 76
1, 369877, Note_on_c, 0, 71, 59
1, 369879, Note_off_c, 0, 52, 64
1, 369883, Note_on_c, 0, 67, 61
1, 370071, Control_c, 0, 64, 121
1, 370086, Control_c, 0, 64, 88
1, 370101, Control_c, 0, 64, 67
1, 370101, Control_c, 0, 67, 124
1, 370115, Control_c, 0, 64, 0
1, 370115, Control_c, 0, 67, 105
1, 370116, Note_on_c, 0, 38, 71
1, 370130, Control_c, 0, 64, 30
1, 370130, Control_c, 0, 67, 80
1, 370145, Control_c, 0, 64, 65
1, 370145, Control_c, 0, 67, 55
1, 370153, Note_off_c, 0, 71, 63
1, 370160, Control_c, 0, 64, 76
1, 370160, Control_c, 0, 67, 35
1, 370169, Note_off_c, 0, 38, 62
1, 370175, Control_c, 0, 64, 97
1, 370175, Control_c, 0, 67, 20
1, 370181, Note_off_c, 0, 76, 61
1, 370190, Control_c, 0, 64, 127
1, 370190, Control_c, 0, 67, 0
1, 370205, Note_off_c, 0, 67, 58
1, 370413, Note_on_c, 0, 78, 79
1, 370425, Note_on_c, 0, 73, 67
1, 370427, Note_on_c, 0, 69, 65
1, 370428, Note_on_c, 0, 74, 62
1, 370524, Note_off_c, 0, 74, 62
1, 370548, Note_off_c, 0, 69, 62
1, 370551, Note_on_c, 0, 71, 60
1, 370557, Note_off_c, 0, 73, 59
1, 370560, Note_off_c, 0, 78, 62
1, 370625, Note_off_c, 0, 71, 64
1, 370638, Note_on_c, 0, 66, 64
1, 370724, Note_on_c, 0, 61, 66
1, 370734, Note_on_c, 0, 80, 70
1, 370738, Note_off_c, 0, 66, 63
1, 370750, Note_on_c, 0, 76, 27
1, 370760, Note_off_c, 0, 61, 63
1, 370762, Note_off_c, 0, 80, 66
1, 370766, Note_on_c, 0, 71, 23
1, 370786, Note_off_c, 0, 76, 44
1, 370810, Note_off_c, 0, 71, 0
1, 370810, Note_on_c, 0, 71, 10
1, 370825, Note_on_c, 0, 64, 72
1, 370831, Poly_aftertouch_c, 0, 80, 127
1, 370903, Note_off_c, 0, 64, 58
1, 370914, Note_on_c, 0, 61, 66
1, 370992, Poly_aftertouch_c, 0, 78, 127
1, 370993, Note_on_c, 0, 81, 93
1, 371001, Poly_aftertouch_c, 0, 80, 0
1, 371005, Note_off_c, 0, 71, 41
1, 371021, Note_on_c, 0, 56, 66
1, 371025, Poly_aftertouch_c, 0, 78, 0
1, 371036, Note_off_c, 0, 81, 66
1, 371055, Note_off_c, 0, 61, 60
1, 371120, Note_on_c, 0, 54, 65
1, 371129, Note_off_c, 0, 56, 64
1, 371156, Note_on_c, 0, 85, 42
1, 371179, Note_off_c, 0, 54, 63
1, 371191, Note_off_c, 0, 85, 52
1, 371268, Note_on_c, 0, 88, 87
1, 371278, Note_on_c, 0, 45, 76
1, 371278, Note_on_c, 0, 80, 69
1, 371305, Note_off_c, 0, 80, 66
1, 371311, Note_off_c, 0, 45, 66
1, 371315, Note_off_c, 0, 88, 66
1, 371412, Control_c, 0, 64, 102
1, 371427, Control_c, 0, 64, 72
1, 371442, Control_c, 0, 64, 0
1, 371446, Note_on_c, 0, 38, 64
1, 371466, Note_on_c, 0, 40, 60
1, 371479, Control_c, 0, 64, 60
1, 371487, Note_off_c, 0, 38, 64
1, 371493, Note_off_c, 0, 40, 58
1, 371494, Control_c, 0, 64, 74
1, 371509, Control_c, 0, 64, 95
1, 371524, Control_c, 0, 64, 127
1, 371645, Note_on_c, 0, 81, 96
1, 371651, Note_on_c, 0, 69, 80
1, 371661, Note_on_c, 0, 78, 69
1, 371666, Note_on_c, 0, 73, 77
1, 371673, Note_on_c, 0, 74, 34
1, 371675, Note_off_c, 0, 69, 68
1, 371692, Note_off_c, 0, 78, 62
1, 371708, Note_off_c, 0, 74, 49
1, 371718, Note_off_c, 0, 81, 66
1, 371763, Note_on_c, 0, 71, 72
1, 371784, Note_off_c, 0, 73, 61
1, 371830, Note_on_c, 0, 66, 66
1, 371838, Note_off_c, 0, 71, 65
1, 371898, Note_on_c, 0, 61, 73
1, 371911, Note_on_c, 0, 83, 79
1, 371920, Note_off_c, 0, 66, 63
1, 371921, Note_on_c, 0, 71, 70
1, 371946, Note_off_c, 0, 71, 70
1, 371955, Note_off_c, 0, 61, 62
1, 371958, Note_off_c, 0, 83, 66
1, 371997, Note_on_c, 0, 83, 81
1, 372006, Note_on_c, 0, 71, 75
1, 372013, Note_on_c, 0, 64, 74
1, 372029, Note_off_c, 0, 71, 71
1, 372053, Note_off_c, 0, 83, 68
1, 372109, Note_off_c, 0, 64, 57
1, 372121, Note_on_c, 0, 61, 70
1, 372208, Note_on_c, 0, 73, 84
1, 372210, Note_on_c, 0, 85, 91
1, 372240, Note_off_c, 0, 73, 63
1, 372247, Note_on_c, 0, 56, 64
1, 372259, Note_off_c, 0, 85, 64
1, 372300, Note_off_c, 0, 61, 61
1, 372357, Note_off_c, 0, 56, 64
1, 372363, Note_on_c, 0, 55, 43
1, 372395, Note_off_c, 0, 55, 52
1, 372491, Note_on_c, 0, 93, 88
1, 372494, Note_on_c, 0, 45, 81
1, 372494, Note_on_c, 0, 81, 94
1, 372500, Note_on_c, 0, 85, 77
1, 372503, Note_on_c, 0, 90, 76
1, 372525, Note_off_c, 0, 45, 66
1, 372762, Control_c, 0, 64, 94
1, 372777, Control_c, 0, 64, 68
1, 372792, Control_c, 0, 64, 0
1, 372797, Note_on_c, 0, 35, 86
1, 372798, Note_on_c, 0, 47, 92
1, 372815, Note_off_c, 0, 90, 60
1, 372822, Control_c, 0, 64, 24
1, 372823, Note_off_c, 0, 85, 60
1, 372836, Control_c, 0, 64, 72
1, 372840, Note_off_c, 0, 35, 62
1, 372851, Control_c, 0, 64, 98
1, 372864, Note_off_c, 0, 47, 63
1, 372866, Control_c, 0, 64, 127
1, 372923, Note_off_c, 0, 81, 43
1, 373113, Note_off_c, 0, 93, 35
1, 373217, Note_on_c, 0, 66, 97
1, 373217, Note_on_c, 0, 93, 91
1, 373219, Note_on_c, 0, 83, 94
1, 373221, Note_on_c, 0, 86, 85
1, 373223, Note_on_c, 0, 62, 72
1, 373224, Note_on_c, 0, 90, 88
1, 373227, Note_on_c, 0, 57, 80
1, 373279, Note_off_c, 0, 83, 59
1, 373290, Note_off_c, 0, 86, 64
1, 373321, Note_off_c, 0, 62, 60
1, 373322, Note_off_c, 0, 90, 64
1, 373346, Note_off_c, 0, 93, 58
1, 373373, Note_off_c, 0, 66, 56
1, 373478, Note_off_c, 0, 57, 39
1, 373508, Note_on_c, 0, 68, 87
1, 373516, Note_on_c, 0, 64, 67
1, 373526, Note_on_c, 0, 59, 65
1, 373540, Note_off_c, 0, 64, 67
1, 373549, Note_off_c, 0, 68, 64
1, 373591, Note_off_c, 0, 59, 64
1, 373630, Note_on_c, 0, 85, 82
1, 373630, Note_on_c, 0, 95, 82
1, 373675, Note_off_c, 0, 85, 61
1, 373686, Note_off_c, 0, 95, 55
1, 373711, Control_c, 0, 64, 83
1, 373726, Control_c, 0, 64, 54
1, 373732, Note_on_c, 0, 47, 80
1, 373734, Note_on_c, 0, 85, 86
1, 373734, Note_on_c, 0, 95, 83
1, 373740, Control_c, 0, 64, 0
1, 373755, Control_c, 0, 64, 63
1, 373770, Control_c, 0, 64, 86
1, 373779, Note_off_c, 0, 47, 61
1, 373785, Control_c, 0, 64, 127
1, 373788, Note_off_c, 0, 85, 60
1, 373789, Note_off_c, 0, 95, 59
1, 373930, Note_on_c, 0, 93, 82
1, 373931, Note_on_c, 0, 62, 58
1, 373932, Note_on_c, 0, 83, 89
1, 373949, Note_on_c, 0, 66, 82
1, 373953, Note_on_c, 0, 57, 69
1, 373953, Note_off_c, 0, 93, 68
1, 373973, Note_off_c, 0, 83, 68
1, 373975, Note_off_c, 0, 62, 62
1, 373981, Note_off_c, 0, 57, 64
1, 374002, Note_off_c, 0, 66, 63
1, 374111, Note_on_c, 0, 85, 90
1, 374114, Note_on_c, 0, 73, 77
1, 374116, Note_on_c, 0, 74, 79
1, 374119, Note_on_c, 0, 62, 74
1, 374122, Note_on_c, 0, 66, 75
1, 374129, Note_off_c, 0, 73, 70
1, 374137, Note_off_c, 0, 74, 71
1, 374146, Note_off_c, 0, 66, 69
1, 374166, Note_off_c, 0, 62, 60
1, 374171, Note_off_c, 0, 85, 62
1, 374260, Control_c, 0, 64, 98
1, 374274, Control_c, 0, 64, 66
1, 374289, Control_c, 0, 64, 0
1, 374290, Note_on_c, 0, 47, 80
1, 374291, Note_on_c, 0, 35, 80
1, 374295, Note_on_c, 0, 48, 74
1, 374318, Control_c, 0, 64, 61
1, 374320, Note_off_c, 0, 35, 64
1, 374323, Note_off_c, 0, 47, 65
1, 374324, Note_on_c, 0, 36, 38
1, 374325, Note_off_c, 0, 36, 127
1, 374329, Note_off_c, 0, 48, 63
1, 374333, Control_c, 0, 64, 79
1, 374348, Control_c, 0, 64, 127
1, 374369, Poly_aftertouch_c, 0, 36, 0
1, 374504, Note_on_c, 0, 93, 88
1, 374506, Note_on_c, 0, 83, 92
1, 374509, Note_on_c, 0, 57, 71
1, 374509, Note_on_c, 0, 66, 87
1, 374553, Note_off_c, 0, 57, 60
1, 374553, Note_off_c, 0, 83, 68
1, 374560, Note_off_c, 0, 66, 62
1, 374587, Note_off_c, 0, 93, 59
1, 374640, Note_on_c, 0, 68, 84
1, 374648, Note_on_c, 0, 59, 71
1, 374672, Note_off_c, 0, 68, 64
1, 374697, Note_off_c, 0, 59, 65
1, 374736, Poly_aftertouch_c, 0, 87, 127
1, 374757, Note_on_c, 0, 85, 90
1, 374758, Poly_aftertouch_c, 0, 87, 0
1, 374761, Note_on_c, 0, 95, 82
1, 374801, Note_off_c, 0, 85, 59
1, 374803, Note_off_c, 0, 95, 61
1, 374817, Control_c, 0, 64, 105
1, 374831, Control_c, 0, 64, 75
1, 374846, Control_c, 0, 64, 0
1, 374853, Note_on_c, 0, 40, 83
1, 374855, Note_on_c, 0, 52, 87
1, 374857, Note_on_c, 0, 85, 96
1, 374857, Note_on_c, 0, 95, 90
1, 374876, Control_c, 0, 64, 30
1, 374891, Control_c, 0, 64, 72
1, 374894, Note_off_c, 0, 40, 63
1, 374906, Note_off_c, 0, 85, 63
1, 374906, Control_c, 0, 64, 107
1, 374906, Note_off_c, 0, 95, 61
1, 374909, Note_off_c, 0, 52, 65
1, 374921, Control_c, 0, 64, 127
1, 375096, Note_on_c, 0, 61, 56
1, 375096, Note_on_c, 0, 93, 84
1, 375096, Note_on_c, 0, 83, 96
1, 375102, Note_on_c, 0, 57, 72
1, 375105, Note_on_c, 0, 66, 85
1, 375125, Note_off_c, 0, 93, 63
1, 375127, Note_off_c, 0, 57, 65
1, 375136, Note_off_c, 0, 83, 69
1, 375153, Note_off_c, 0, 61, 62
1, 375155, Note_off_c, 0, 66, 63
1, 375332, Note_on_c, 0, 64, 81
1, 375336, Note_on_c, 0, 73, 77
1, 375345, Note_on_c, 0, 85, 88
1, 375346, Note_on_c, 0, 76, 88
1, 375355, Note_off_c, 0, 73, 69
1, 375377, Note_off_c, 0, 85, 64
1, 375383, Note_off_c, 0, 76, 64
1, 375385, Note_off_c, 0, 64, 65
1, 375408, Poly_aftertouch_c, 0, 69, 0
1, 375551, Control_c, 0, 64, 103
1, 375566, Control_c, 0, 64, 70
1, 375580, Control_c, 0, 64, 0
1, 375584, Note_on_c, 0, 40, 82
1, 375585, Note_on_c, 0, 52, 86
1, 375610, Control_c, 0, 64, 47
1, 375618, Note_on_c, 0, 41, 29
1, 375625, Control_c, 0, 64, 73
1, 375626, Note_off_c, 0, 40, 64
1, 375636, Note_on_c, 0, 67, 78
1, 375640, Control_c, 0, 64, 98
1, 375643, Note_off_c, 0, 52, 63
1, 375654, Control_c, 0, 64, 127
1, 375671, Note_off_c, 0, 41, 51
1, 375696, Note_on_c, 0, 70, 71
1, 375710, Note_off_c, 0, 67, 61
1, 375746, Note_on_c, 0, 73, 80
1, 375755, Note_off_c, 0, 70, 63
1, 375791, Note_off_c, 0, 73, 62
1, 375836, Note_on_c, 0, 79, 78
1, 375894, Note_on_c, 0, 82, 76
1, 375904, Note_off_c, 0, 79, 60
1, 375925, Note_on_c, 0, 85, 72
1, 375976, Note_on_c, 0, 64, 82
1, 375976, Note_on_c, 0, 90, 95
1, 375979, Note_on_c, 0, 55, 79
1, 375981, Note_on_c, 0, 79, 92
1, 375985, Note_on_c, 0, 58, 73
1, 375997, Note_off_c, 0, 64, 71
1, 375999, Note_off_c, 0, 82, 62
1, 376000, Note_off_c, 0, 85, 66
1, 376017, Note_off_c, 0, 79, 63
1, 376024, Note_off_c, 0, 58, 63
1, 376030, Note_off_c, 0, 55, 64
1, 376041, Note_off_c, 0, 90, 63
1, 376210, Control_c, 0, 64, 126
1, 376211, Note_on_c, 0, 90, 83
1, 376212, Note_on_c, 0, 79, 79
1, 376214, Note_on_c, 0, 85, 75
1, 376220, Note_on_c, 0, 82, 58
1, 376225, Control_c, 0, 64, 82
1, 376232, Note_off_c, 0, 90, 69
1, 376235, Note_off_c, 0, 79, 65
1, 376238, Note_off_c, 0, 85, 69
1, 376240, Note_off_c, 0, 82, 65
1, 376240, Control_c, 0, 64, 37
1, 376254, Control_c, 0, 64, 0
1, 376271, Note_on_c, 0, 40, 76
1, 376274, Note_on_c, 0, 52, 86
1, 376275, Note_on_c, 0, 79, 85
1, 376283, Note_on_c, 0, 90, 89
1, 376284, Control_c, 0, 64, 57
1, 376296, Note_on_c, 0, 82, 74
1, 376296, Note_off_c, 0, 40, 66
1, 376298, Control_c, 0, 64, 78
1, 376300, Note_on_c, 0, 85, 52
1, 376301, Note_off_c, 0, 85, 127
1, 376313, Control_c, 0, 64, 127
1, 376324, Note_off_c, 0, 52, 64
1, 376357, Note_off_c, 0, 79, 56
1, 376372, Note_off_c, 0, 82, 62
1, 376394, Note_off_c, 0, 90, 56
1, 376426, Note_on_c, 0, 64, 87
1, 376433, Note_on_c, 0, 55, 74
1, 376451, Note_off_c, 0, 64, 66
1, 376459, Note_on_c, 0, 59, 52
1, 376486, Note_off_c, 0, 55, 64
1, 376486, Note_off_c, 0, 59, 63
1, 376519, Poly_aftertouch_c, 0, 86, 127
1, 376566, Poly_aftertouch_c, 0, 86, 0
1, 376570, Note_on_c, 0, 90, 88
1, 376573, Note_on_c, 0, 79, 98
1, 376605, Note_off_c, 0, 79, 65
1, 376608, Note_off_c, 0, 90, 67
1, 376722, Control_c, 0, 64, 88
1, 376727, Note_on_c, 0, 40, 78
1, 376733, Note_on_c, 0, 52, 87
1, 376736, Control_c, 0, 64, 64
1, 376751, Control_c, 0, 64, 0
1, 376770, Note_off_c, 0, 40, 63
1, 376773, Note_on_c, 0, 68, 74
1, 376781, Control_c, 0, 64, 65
1, 376796, Control_c, 0, 64, 82
1, 376801, Note_off_c, 0, 52, 63
1, 376810, Control_c, 0, 64, 127
1, 376812, Note_on_c, 0, 72, 73
1, 376822, Note_off_c, 0, 68, 65
1, 376861, Note_on_c, 0, 75, 79
1, 376867, Note_off_c, 0, 72, 66
1, 376895, Note_off_c, 0, 75, 65
1, 376958, Note_on_c, 0, 80, 66
1, 376984, Note_on_c, 0, 84, 82
1, 376995, Note_off_c, 0, 80, 62
1, 377010, Note_on_c, 0, 87, 74
1, 377065, Note_on_c, 0, 80, 103
1, 377066, Note_on_c, 0, 56, 83
1, 377067, Note_on_c, 0, 90, 97
1, 377069, Note_on_c, 0, 64, 76
1, 377075, Note_off_c, 0, 84, 58
1, 377088, Note_on_c, 0, 60, 55
1, 377091, Note_off_c, 0, 64, 70
1, 377091, Note_off_c, 0, 87, 66
1, 377103, Note_off_c, 0, 80, 63
1, 377112, Note_off_c, 0, 60, 57
1, 377112, Note_off_c, 0, 56, 66
1, 377118, Note_off_c, 0, 90, 64
1, 377271, Control_c, 0, 64, 107
1, 377281, Note_on_c, 0, 80, 85
1, 377281, Note_on_c, 0, 90, 88
1, 377286, Control_c, 0, 64, 75
1, 377299, Note_off_c, 0, 80, 69
1, 377300, Control_c, 0, 64, 0
1, 377306, Note_off_c, 0, 90, 64
1, 377329, Note_on_c, 0, 40, 76
1, 377332, Note_on_c, 0, 52, 85
1, 377344, Control_c, 0, 64, 65
1, 377347, Note_on_c, 0, 80, 99
1, 377353, Note_on_c, 0, 90, 86
1, 377359, Control_c, 0, 64, 97
1, 377360, Note_off_c, 0, 40, 63
1, 377374, Control_c, 0, 64, 127
1, 377392, Note_off_c, 0, 52, 63
1, 377484, Note_off_c, 0, 80, 58
1, 377514, Note_on_c, 0, 57, 81
1, 377515, Note_on_c, 0, 64, 70
1, 377524, Note_on_c, 0, 61, 65
1, 377527, Note_on_c, 0, 62, 63
1, 377542, Note_off_c, 0, 64, 67
1, 377547, Note_off_c, 0, 62, 63
1, 377550, Note_off_c, 0, 61, 65
1, 377561, Note_off_c, 0, 90, 0
1, 377563, Note_off_c, 0, 57, 65
1, 377616, Poly_aftertouch_c, 0, 90, 0
1, 377687, Note_on_c, 0, 90, 101
1, 377689, Note_on_c, 0, 81, 104
1, 377706, Note_on_c, 0, 85, 68
1, 377787, Poly_aftertouch_c, 0, 42, 127
1, 377812, Control_c, 0, 64, 112
1, 377825, Poly_aftertouch_c, 0, 42, 0
1, 377826, Control_c, 0, 64, 76
1, 377841, Control_c, 0, 64, 0
1, 377855, Note_off_c, 0, 85, 58
1, 377864, Note_on_c, 0, 42, 96
1, 377865, Note_on_c, 0, 30, 84
1, 377875, Note_off_c, 0, 81, 58
1, 377884, Note_off_c, 0, 90, 63
1, 377900, Control_c, 0, 64, 83
1, 377903, Note_off_c, 0, 30, 64
1, 377916, Control_c, 0, 64, 127
1, 377928, Note_off_c, 0, 42, 63
1, 378329, Note_on_c, 0, 93, 93
1, 378331, Note_on_c, 0, 81, 108
1, 378334, Note_on_c, 0, 68, 107
1, 378334, Note_on_c, 0, 61, 82
1, 378336, Note_on_c, 0, 92, 90
1, 378338, Note_on_c, 0, 57, 87
1, 378460, Note_off_c, 0, 81, 54
1, 378574, Note_off_c, 0, 93, 47
1, 378667, Note_off_c, 0, 57, 26
1, 379014, Note_on_c, 0, 66, 91
1, 379021, Note_off_c, 0, 68, 63
1, 379034, Note_off_c, 0, 61, 61
1, 379057, Note_off_c, 0, 66, 67
1, 379181, Note_off_c, 0, 92, 63
1, 379210, Note_on_c, 0, 83, 94
1, 379212, Note_on_c, 0, 90, 88
1, 379213, Note_on_c, 0, 95, 90
1, 379303, Note_off_c, 0, 83, 55
1, 379325, Note_off_c, 0, 95, 64
1, 379330, Note_off_c, 0, 90, 59
1, 379335, Poly_aftertouch_c, 0, 47, 0
1, 379354, Control_c, 0, 64, 93
1, 379369, Control_c, 0, 64, 67
1, 379384, Note_on_c, 0, 35, 86
1, 379384, Note_on_c, 0, 47, 92
1, 379384, Control_c, 0, 64, 0
1, 379388, Note_on_c, 0, 95, 89
1, 379389, Note_on_c, 0, 90, 80
1, 379390, Note_on_c, 0, 83, 92
1, 379413, Control_c, 0, 64, 66
1, 379415, Note_off_c, 0, 35, 66
1, 379428, Control_c, 0, 64, 90
1, 379434, Note_off_c, 0, 90, 63
1, 379440, Note_off_c, 0, 47, 64
1, 379443, Control_c, 0, 64, 127
1, 379452, Note_off_c, 0, 95, 66
1, 379478, Note_off_c, 0, 83, 50
1, 379657, Note_on_c, 0, 93, 87
1, 379657, Note_on_c, 0, 57, 75
1, 379657, Note_on_c, 0, 65, 83
1, 379658, Note_on_c, 0, 61, 51
1, 379659, Note_on_c, 0, 81, 102
1, 379701, Note_off_c, 0, 81, 69
1, 379706, Note_off_c, 0, 93, 63
1, 379742, Note_off_c, 0, 65, 58
1, 379840, Note_off_c, 0, 57, 0
1, 379848, Note_on_c, 0, 69, 86
1, 379855, Note_on_c, 0, 64, 69
1, 379855, Note_on_c, 0, 85, 95
1, 379856, Note_on_c, 0, 73, 91
1, 379867, Note_on_c, 0, 57, 28
1, 379868, Note_off_c, 0, 69, 72
1, 379878, Note_off_c, 0, 64, 67
1, 379884, Note_off_c, 0, 73, 63
1, 379908, Note_off_c, 0, 57, 63
1, 379908, Note_off_c, 0, 61, 24
1, 379911, Note_off_c, 0, 85, 60
1, 379970, Control_c, 0, 64, 101
1, 379985, Control_c, 0, 64, 70
1, 380000, Control_c, 0, 64, 0
1, 380010, Note_on_c, 0, 35, 84
1, 380011, Note_on_c, 0, 47, 79
1, 380017, Note_on_c, 0, 45, 75
1, 380029, Control_c, 0, 64, 51
1, 380034, Note_off_c, 0, 35, 65
1, 380042, Note_off_c, 0, 47, 66
1, 380044, Control_c, 0, 64, 75
1, 380048, Note_off_c, 0, 45, 62
1, 380059, Control_c, 0, 64, 127
1, 380182, Note_on_c, 0, 93, 95
1, 380182, Note_on_c, 0, 81, 104
1, 380187, Note_on_c, 0, 68, 82
1, 380188, Note_on_c, 0, 92, 80
1, 380192, Note_on_c, 0, 57, 72
1, 380203, Note_on_c, 0, 63, 61
1, 380245, Note_off_c, 0, 68, 60
1, 380271, Note_off_c, 0, 81, 58
1, 380296, Note_off_c, 0, 57, 46
1, 380325, Note_on_c, 0, 66, 87
1, 380326, Note_off_c, 0, 93, 54
1, 380335, Note_off_c, 0, 63, 58
1, 380338, Note_on_c, 0, 61, 75
1, 380348, Note_off_c, 0, 66, 71
1, 380365, Note_off_c, 0, 61, 67
1, 380381, Note_off_c, 0, 92, 62
1, 380445, Note_on_c, 0, 83, 82
1, 380447, Note_on_c, 0, 90, 85
1, 380450, Note_on_c, 0, 95, 85
1, 380474, Note_off_c, 0, 83, 63
1, 380483, Note_off_c, 0, 90, 59
1, 380488, Note_off_c, 0, 95, 61
1, 380496, Control_c, 0, 64, 103
1, 380511, Control_c, 0, 64, 72
1, 380526, Control_c, 0, 64, 0
1, 380531, Note_on_c, 0, 40, 81
1, 380532, Note_on_c, 0, 95, 88
1, 380535, Note_on_c, 0, 83, 88
1, 380540, Note_on_c, 0, 52, 84
1, 380543, Note_on_c, 0, 90, 65
1, 380555, Control_c, 0, 64, 47
1, 380564, Note_off_c, 0, 40, 67
1, 380569, Note_off_c, 0, 90, 67
1, 380569, Control_c, 0, 64, 74
1, 380583, Note_off_c, 0, 95, 64
1, 380584, Note_off_c, 0, 52, 65
1, 380584, Control_c, 0, 64, 101
1, 380591, Note_off_c, 0, 83, 60
1, 380599, Control_c, 0, 64, 127
1, 380744, Note_on_c, 0, 81, 97
1, 380751, Note_on_c, 0, 93, 84
1, 380751, Note_on_c, 0, 57, 79
1, 380751, Note_on_c, 0, 61, 61
1, 380752, Note_on_c, 0, 65, 82
1, 380781, Note_off_c, 0, 81, 68
1, 380796, Note_off_c, 0, 93, 64
1, 380849, Note_off_c, 0, 65, 61
1, 380949, Note_on_c, 0, 69, 83
1, 380953, Note_on_c, 0, 73, 94
1, 380953, Note_on_c, 0, 85, 96
1, 380966, Note_on_c, 0, 64, 53
1, 380968, Note_off_c, 0, 61, 32
1, 380977, Note_off_c, 0, 69, 64
1, 380986, Note_off_c, 0, 73, 63
1, 380987, Note_off_c, 0, 64, 60
1, 380996, Note_off_c, 0, 85, 64
1, 381016, Note_off_c, 0, 57, 20
1, 381148, Control_c, 0, 64, 115
1, 381163, Control_c, 0, 64, 82
1, 381176, Note_on_c, 0, 76, 93
1, 381178, Control_c, 0, 64, 49
1, 381180, Note_on_c, 0, 64, 84
1, 381180, Note_on_c, 0, 84, 86
1, 381181, Note_on_c, 0, 88, 81
1, 381189, Note_on_c, 0, 55, 70
1, 381198, Note_on_c, 0, 58, 64
1, 381200, Control_c, 0, 64, 0
1, 381202, Note_on_c, 0, 60, 55
1, 381205, Note_off_c, 0, 76, 68
1, 381207, Note_off_c, 0, 84, 71
1, 381215, Note_off_c, 0, 64, 63
1, 381217, Note_off_c, 0, 88, 67
1, 381222, Note_off_c, 0, 55, 66
1, 381225, Note_off_c, 0, 58, 67
1, 381234, Note_off_c, 0, 60, 63
1, 381259, Control_c, 0, 64, 64
1, 381268, Note_on_c, 0, 64, 80
1, 381269, Note_on_c, 0, 76, 84
1, 381269, Note_on_c, 0, 84, 82
1, 381273, Note_on_c, 0, 88, 69
1, 381274, Control_c, 0, 64, 75
1, 381279, Note_on_c, 0, 58, 79
1, 381284, Note_on_c, 0, 55, 52
1, 381290, Control_c, 0, 64, 89
1, 381298, Note_off_c, 0, 84, 65
1, 381299, Note_off_c, 0, 76, 61
1, 381304, Note_off_c, 0, 88, 67
1, 381305, Control_c, 0, 64, 106
1, 381312, Note_off_c, 0, 58, 64
1, 381312, Note_off_c, 0, 55, 60
1, 381316, Note_off_c, 0, 64, 62
1, 381319, Control_c, 0, 64, 127
1, 381352, Note_on_c, 0, 76, 87
1, 381354, Note_on_c, 0, 88, 73
1, 381356, Note_on_c, 0, 84, 79
1, 381359, Note_on_c, 0, 64, 79
1, 381374, Note_on_c, 0, 58, 70
1, 381380, Note_on_c, 0, 55, 71
1, 381385, Note_off_c, 0, 84, 63
1, 381396, Note_off_c, 0, 76, 63
1, 381402, Note_off_c, 0, 88, 62
1, 381408, Note_off_c, 0, 55, 62
1, 381431, Note_off_c, 0, 64, 61
1, 381496, Note_off_c, 0, 58, 27
1, 381529, Note_on_c, 0, 65, 86
1, 381532, Note_on_c, 0, 86, 82
1, 381533, Note_on_c, 0, 55, 72
1, 381538, Note_on_c, 0, 74, 85
1, 381539, Note_on_c, 0, 58, 59
1, 381550, Note_off_c, 0, 65, 70
1, 381557, Note_off_c, 0, 86, 64
1, 381560, Note_off_c, 0, 74, 68
1, 381568, Note_on_c, 0, 57, 29
1, 381582, Note_off_c, 0, 58, 65
1, 381585, Note_off_c, 0, 55, 65
1, 381603, Note_off_c, 0, 57, 41
1, 381705, Control_c, 0, 64, 87
1, 381719, Control_c, 0, 64, 61
1, 381734, Control_c, 0, 64, 0
1, 381735, Note_on_c, 0, 36, 78
1, 381738, Note_on_c, 0, 69, 86
1, 381740, Note_on_c, 0, 48, 75
1, 381741, Note_on_c, 0, 58, 87
1, 381749, Control_c, 0, 64, 60
1, 381759, Note_off_c, 0, 69, 70
1, 381761, Note_off_c, 0, 58, 72
1, 381763, Control_c, 0, 64, 75
1, 381769, Note_off_c, 0, 48, 66
1, 381778, Control_c, 0, 64, 96
1, 381789, Note_off_c, 0, 36, 62
1, 381793, Control_c, 0, 64, 127
1, 381840, Poly_aftertouch_c, 0, 47, 0
1, 381913, Control_c, 0, 64, 97
1, 381928, Control_c, 0, 64, 69
1, 381950, Control_c, 0, 64, 0
1, 381957, Note_on_c, 0, 52, 98
1, 381959, Note_on_c, 0, 28, 79
1, 381961, Note_on_c, 0, 40, 84
1, 381979, Note_off_c, 0, 52, 71
1, 381979, Control_c, 0, 64, 64
1, 381988, Note_off_c, 0, 28, 62
1, 381994, Control_c, 0, 64, 79
1, 382009, Control_c, 0, 64, 114
1, 382015, Note_off_c, 0, 40, 64
1, 382024, Control_c, 0, 64, 127
1, 382320, Control_c, 0, 64, 97
1, 382335, Control_c, 0, 64, 69
1, 382338, Note_on_c, 0, 62, 51
1, 382339, Note_on_c, 0, 73, 104
1, 382340, Note_on_c, 0, 66, 103
1, 382340, Note_on_c, 0, 85, 94
1, 382342, Note_on_c, 0, 56, 85
1, 382346, Note_on_c, 0, 58, 71
1, 382349, Control_c, 0, 64, 0
1, 382409, Control_c, 0, 64, 62
1, 382424, Control_c, 0, 64, 75
1, 382438, Control_c, 0, 64, 94
1, 382453, Control_c, 0, 64, 127
1, 383025, Note_off_c, 0, 85, 57
1, 383033, Note_off_c, 0, 73, 57
1, 383057, Note_off_c, 0, 56, 52
1, 383078, Note_off_c, 0, 66, 57
1, 383094, Note_off_c, 0, 58, 59
1, 383141, Note_off_c, 0, 62, 34
1, 383188, Note_on_c, 0, 66, 78
1, 383193, Note_on_c, 0, 80, 82
1, 383200, Note_on_c, 0, 56, 50
1, 383206, Note_on_c, 0, 58, 58
1, 383228, Note_off_c, 0, 56, 64
1, 383229, Note_off_c, 0, 66, 59
1, 383240, Note_off_c, 0, 58, 63
1, 383248, Note_off_c, 0, 80, 62
1, 383298, Note_on_c, 0, 73, 83
1, 383302, Note_on_c, 0, 85, 86
1, 383306, Note_on_c, 0, 66, 77
1, 383323, Note_on_c, 0, 56, 39
1, 383333, Note_on_c, 0, 58, 44
1, 383333, Note_off_c, 0, 66, 68
1, 383342, Note_off_c, 0, 73, 60
1, 383342, Note_on_c, 0, 62, 13
1, 383352, Note_off_c, 0, 56, 51
1, 383358, Note_off_c, 0, 58, 58
1, 383385, Note_off_c, 0, 62, 38
1, 383386, Note_on_c, 0, 80, 81
1, 383390, Note_on_c, 0, 66, 87
1, 383395, Note_on_c, 0, 56, 77
1, 383403, Note_off_c, 0, 85, 63
1, 383414, Note_off_c, 0, 80, 67
1, 383453, Note_off_c, 0, 66, 64
1, 383468, Note_off_c, 0, 56, 62
1, 383491, Control_c, 0, 64, 79
1, 383496, Note_on_c, 0, 69, 98
1, 383496, Note_on_c, 0, 81, 103
1, 383503, Note_on_c, 0, 64, 86
1, 383506, Control_c, 0, 64, 0
1, 383506, Note_on_c, 0, 57, 70
1, 383506, Note_on_c, 0, 73, 79
1, 383515, Note_on_c, 0, 61, 75
1, 383519, Note_off_c, 0, 69, 66
1, 383528, Note_off_c, 0, 64, 66
1, 383529, Note_off_c, 0, 73, 69
1, 383535, Control_c, 0, 64, 66
1, 383537, Note_off_c, 0, 61, 69
1, 383540, Note_off_c, 0, 81, 62
1, 383550, Control_c, 0, 64, 83
1, 383559, Note_off_c, 0, 57, 67
1, 383564, Control_c, 0, 64, 115
1, 383579, Control_c, 0, 64, 127
1, 383742, Control_c, 0, 64, 82
1, 383757, Control_c, 0, 64, 0
1, 383771, Note_on_c, 0, 33, 84
1, 383771, Control_c, 0, 67, 15
1, 383777, Note_on_c, 0, 45, 92
1, 383777, Note_on_c, 0, 47, 88
1, 383786, Control_c, 0, 64, 61
1, 383786, Control_c, 0, 67, 32
1, 383795, Note_on_c, 0, 35, 61
1, 383801, Control_c, 0, 64, 74
1, 383801, Control_c, 0, 67, 69
1, 383813, Note_off_c, 0, 47, 60
1, 383816, Control_c, 0, 64, 95
1, 383816, Control_c, 0, 67, 127
1, 383822, Note_off_c, 0, 33, 63
1, 383831, Note_off_c, 0, 35, 37
1, 383831, Control_c, 0, 64, 127
1, 383834, Note_off_c, 0, 45, 63
1, 383964, Control_c, 0, 64, 104
1, 383979, Control_c, 0, 64, 76
1, 383994, Control_c, 0, 64, 50
1, 384009, Control_c, 0, 64, 0
1, 384205, Note_on_c, 0, 81, 59
1, 384238, Control_c, 0, 64, 34
1, 384253, Control_c, 0, 64, 48
1, 384268, Control_c, 0, 64, 56
1, 384283, Control_c, 0, 64, 61
1, 384297, Control_c, 0, 64, 63
1, 384306, Note_on_c, 0, 77, 38
1, 384313, Control_c, 0, 64, 64
1, 384328, Control_c, 0, 64, 65
1, 384343, Control_c, 0, 64, 67
1, 384358, Control_c, 0, 64, 69
1, 384373, Control_c, 0, 64, 72
1, 384387, Control_c, 0, 64, 73
1, 384398, Note_on_c, 0, 69, 33
1, 384402, Control_c, 0, 64, 74
1, 384415, Note_off_c, 0, 81, 28
1, 384417, Control_c, 0, 64, 75
1, 384432, Control_c, 0, 64, 77
1, 384447, Control_c, 0, 64, 80
1, 384460, Note_off_c, 0, 77, 27
1, 384461, Control_c, 0, 64, 84
1, 384475, Note_on_c, 0, 72, 63
1, 384476, Control_c, 0, 64, 87
1, 384489, Note_off_c, 0, 69, 58
1, 384491, Control_c, 0, 64, 90
1, 384506, Control_c, 0, 64, 93
1, 384521, Control_c, 0, 64, 99
1, 384535, Control_c, 0, 64, 108
1, 384549, Note_on_c, 0, 79, 57
1, 384550, Control_c, 0, 64, 127
1, 384640, Note_off_c, 0, 72, 34
1, 384646, Note_on_c, 0, 67, 36
1, 384686, Note_off_c, 0, 79, 51
1, 384706, Note_off_c, 0, 67, 62
1, 384739, Note_on_c, 0, 65, 47
1, 384767, Note_on_c, 0, 81, 64
1, 384851, Note_off_c, 0, 81, 64
1, 384875, Note_on_c, 0, 60, 50
1, 384878, Note_off_c, 0, 65, 55
1, 384886, Note_on_c, 0, 69, 51
1, 384913, Note_off_c, 0, 60, 62
1, 384918, Note_off_c, 0, 69, 65
1, 384983, Note_on_c, 0, 73, 66
1, 385008, Note_on_c, 0, 60, 61
1, 385101, Note_on_c, 0, 68, 45
1, 385127, Note_on_c, 0, 61, 60
1, 385168, Note_off_c, 0, 61, 62
1, 385172, Note_off_c, 0, 60, 50
1, 385184, Note_on_c, 0, 53, 48
1, 385190, Note_off_c, 0, 73, 38
1, 385233, Note_on_c, 0, 76, 71
1, 385243, Note_off_c, 0, 68, 0
1, 385243, Note_on_c, 0, 68, 13
1, 385267, Note_off_c, 0, 53, 60
1, 385278, Note_on_c, 0, 48, 48
1, 385304, Note_off_c, 0, 68, 50
1, 385304, Note_off_c, 0, 76, 61
1, 385313, Note_off_c, 0, 48, 62
1, 385336, Note_on_c, 0, 64, 51
1, 385397, Note_off_c, 0, 64, 61
1, 385431, Note_on_c, 0, 41, 54
1, 385433, Control_c, 0, 64, 110
1, 385448, Control_c, 0, 64, 81
1, 385452, Note_on_c, 0, 68, 68
1, 385463, Control_c, 0, 64, 63
1, 385477, Control_c, 0, 64, 0
1, 385507, Control_c, 0, 64, 57
1, 385522, Control_c, 0, 64, 68
1, 385536, Control_c, 0, 64, 78
1, 385548, Note_on_c, 0, 64, 33
1, 385551, Control_c, 0, 64, 93
1, 385566, Control_c, 0, 64, 107
1, 385581, Control_c, 0, 64, 124
1, 385589, Note_on_c, 0, 48, 51
1, 385596, Control_c, 0, 64, 127
1, 385604, Note_on_c, 0, 56, 48
1, 385608, Note_off_c, 0, 68, 54
1, 385625, Note_off_c, 0, 64, 52
1, 385632, Note_off_c, 0, 56, 55
1, 385639, Note_off_c, 0, 48, 60
1, 385655, Note_off_c, 0, 41, 60
1, 385691, Note_on_c, 0, 71, 75
1, 385767, Note_off_c, 0, 71, 61
1, 385803, Note_on_c, 0, 59, 38
1, 385870, Note_off_c, 0, 59, 41
1, 385974, Note_on_c, 0, 36, 50
1, 385974, Control_c, 0, 64, 99
1, 385989, Control_c, 0, 64, 79
1, 386004, Control_c, 0, 64, 64
1, 386019, Control_c, 0, 64, 18
1, 386023, Note_on_c, 0, 76, 56
1, 386033, Control_c, 0, 64, 48
1, 386048, Control_c, 0, 64, 64
1, 386063, Control_c, 0, 64, 71
1, 386078, Control_c, 0, 64, 84
1, 386085, Note_off_c, 0, 36, 63
1, 386093, Control_c, 0, 64, 103
1, 386108, Control_c, 0, 64, 127
1, 386118, Note_off_c, 0, 76, 65
1, 386276, Note_on_c, 0, 61, 47
1, 386287, Note_on_c, 0, 64, 19
1, 386322, Note_on_c, 0, 59, 54
1, 386326, Note_off_c, 0, 64, 53
1, 386334, Note_off_c, 0, 61, 61
1, 386384, Note_on_c, 0, 56, 66
1, 386391, Note_off_c, 0, 59, 61
1, 386398, Note_on_c, 0, 64, 48
1, 386437, Note_off_c, 0, 56, 60
1, 386445, Note_off_c, 0, 64, 64
1, 386462, Note_on_c, 0, 68, 61
1, 386525, Note_off_c, 0, 68, 62
1, 386540, Note_on_c, 0, 41, 63
1, 386546, Note_on_c, 0, 56, 67
1, 386558, Control_c, 0, 64, 113
1, 386573, Control_c, 0, 64, 86
1, 386588, Control_c, 0, 64, 68
1, 386603, Control_c, 0, 64, 15
1, 386618, Control_c, 0, 64, 0
1, 386629, Note_on_c, 0, 59, 54
1, 386633, Control_c, 0, 64, 52
1, 386647, Control_c, 0, 64, 66
1, 386656, Note_off_c, 0, 56, 55
1, 386662, Control_c, 0, 64, 73
1, 386677, Control_c, 0, 64, 84
1, 386683, Note_on_c, 0, 64, 50
1, 386686, Note_off_c, 0, 59, 53
1, 386692, Control_c, 0, 64, 97
1, 386708, Control_c, 0, 64, 110
1, 386723, Control_c, 0, 64, 127
1, 386769, Note_on_c, 0, 48, 52
1, 386776, Note_on_c, 0, 68, 74
1, 386795, Note_off_c, 0, 64, 61
1, 386813, Note_on_c, 0, 66, 42
1, 386850, Note_off_c, 0, 66, 50
1, 386863, Note_on_c, 0, 56, 55
1, 386889, Note_off_c, 0, 68, 61
1, 386920, Note_off_c, 0, 56, 65
1, 386984, Note_on_c, 0, 71, 76
1, 387014, Note_off_c, 0, 48, 52
1, 387018, Note_on_c, 0, 53, 52
1, 387095, Note_on_c, 0, 59, 56
1, 387117, Note_off_c, 0, 71, 62
1, 387131, Note_off_c, 0, 59, 57
1, 387136, Note_on_c, 0, 68, 52
1, 387186, Note_off_c, 0, 68, 60
1, 387207, Note_on_c, 0, 64, 13
1, 387211, Note_off_c, 0, 53, 57
1, 387219, Note_on_c, 0, 73, 80
1, 387225, Note_on_c, 0, 48, 51
1, 387244, Note_off_c, 0, 41, 38
1, 387250, Note_off_c, 0, 64, 40
1, 387305, Note_on_c, 0, 61, 64
1, 387324, Note_off_c, 0, 73, 63
1, 387396, Control_c, 0, 64, 101
1, 387399, Note_off_c, 0, 61, 63
1, 387408, Note_on_c, 0, 41, 62
1, 387411, Control_c, 0, 64, 71
1, 387419, Note_off_c, 0, 48, 56
1, 387420, Note_on_c, 0, 68, 73
1, 387426, Control_c, 0, 64, 0
1, 387455, Control_c, 0, 64, 38
1, 387470, Control_c, 0, 64, 65
1, 387485, Control_c, 0, 64, 75
1, 387500, Control_c, 0, 64, 90
1, 387516, Control_c, 0, 64, 117
1, 387523, Note_on_c, 0, 64, 59
1, 387530, Control_c, 0, 64, 127
1, 387554, Note_on_c, 0, 56, 63
1, 387566, Note_on_c, 0, 48, 56
1, 387567, Note_off_c, 0, 64, 60
1, 387590, Note_off_c, 0, 56, 65
1, 387592, Note_off_c, 0, 68, 52
1, 387611, Note_off_c, 0, 48, 63
1, 387620, Note_off_c, 0, 41, 60
1, 387648, Note_on_c, 0, 71, 81
1, 387673, Poly_aftertouch_c, 0, 63, 127
1, 387703, Poly_aftertouch_c, 0, 63, 0
1, 387747, Note_off_c, 0, 71, 64
1, 387770, Note_on_c, 0, 59, 40
1, 387822, Note_off_c, 0, 59, 60
1, 387996, Note_on_c, 0, 36, 29
1, 388057, Control_c, 0, 64, 100
1, 388072, Control_c, 0, 64, 75
1, 388079, Note_on_c, 0, 76, 66
1, 388087, Control_c, 0, 64, 0
1, 388131, Control_c, 0, 64, 20
1, 388146, Control_c, 0, 64, 66
1, 388161, Control_c, 0, 64, 77
1, 388176, Control_c, 0, 64, 92
1, 388191, Control_c, 0, 64, 111
1, 388201, Note_off_c, 0, 36, 53
1, 388205, Control_c, 0, 64, 127
1, 388226, Note_off_c, 0, 76, 63
1, 388397, Note_on_c, 0, 64, 39
1, 388464, Note_off_c, 0, 64, 53
1, 388482, Note_on_c, 0, 61, 48
1, 388495, Note_on_c, 0, 59, 45
1, 388594, Note_on_c, 0, 64, 50
1, 388609, Note_off_c, 0, 61, 60
1, 388620, Note_off_c, 0, 59, 52
1, 388686, Note_on_c, 0, 56, 53
1, 388738, Note_off_c, 0, 56, 63
1, 388745, Note_off_c, 0, 64, 63
1, 388753, Note_on_c, 0, 68, 58
1, 388842, Note_off_c, 0, 68, 62
1, 388880, Note_on_c, 0, 56, 63
1, 388890, Note_on_c, 0, 41, 51
1, 388940, Control_c, 0, 64, 94
1, 388954, Control_c, 0, 64, 75
1, 388969, Control_c, 0, 64, 54
1, 388984, Control_c, 0, 64, 0
1, 388998, Note_on_c, 0, 59, 15
1, 388999, Control_c, 0, 64, 12
1, 389005, Note_off_c, 0, 56, 44
1, 389013, Control_c, 0, 64, 61
1, 389014, Note_on_c, 0, 64, 53
1, 389028, Control_c, 0, 64, 68
1, 389034, Note_off_c, 0, 59, 44
1, 389043, Control_c, 0, 64, 78
1, 389058, Control_c, 0, 64, 88
1, 389073, Control_c, 0, 64, 96
1, 389087, Control_c, 0, 64, 100
1, 389089, Note_off_c, 0, 41, 57
1, 389098, Note_on_c, 0, 48, 53
1, 389102, Note_off_c, 0, 64, 64
1, 389103, Control_c, 0, 64, 107
1, 389109, Note_on_c, 0, 68, 73
1, 389118, Control_c, 0, 64, 124
1, 389132, Note_off_c, 0, 48, 61
1, 389133, Control_c, 0, 64, 127
1, 389237, Note_on_c, 0, 56, 58
1, 389242, Note_off_c, 0, 68, 55
1, 389269, Note_off_c, 0, 56, 66
1, 389296, Note_on_c, 0, 60, 57
1, 389358, Note_on_c, 0, 72, 58
1, 389360, Note_on_c, 0, 71, 59
1, 389393, Note_off_c, 0, 60, 54
1, 389414, Note_off_c, 0, 72, 58
1, 389467, Note_off_c, 0, 71, 40
1, 389473, Note_on_c, 0, 59, 44
1, 389500, Note_off_c, 0, 59, 52
1, 389510, Note_on_c, 0, 48, 49
1, 389542, Note_off_c, 0, 48, 63
1, 389584, Note_on_c, 0, 76, 75
1, 389672, Note_off_c, 0, 76, 56
1, 389682, Note_on_c, 0, 68, 50
1, 389741, Note_off_c, 0, 68, 56
1, 389764, Note_on_c, 0, 64, 49
1, 389814, Note_off_c, 0, 64, 58
1, 389854, Note_on_c, 0, 38, 60
1, 389881, Control_c, 0, 64, 114
1, 389896, Control_c, 0, 64, 87
1, 389912, Control_c, 0, 64, 69
1, 389915, Note_on_c, 0, 68, 61
1, 389926, Control_c, 0, 64, 0
1, 389941, Control_c, 0, 64, 39
1, 389956, Control_c, 0, 64, 62
1, 389971, Control_c, 0, 64, 68
1, 389986, Control_c, 0, 64, 77
1, 390000, Control_c, 0, 64, 91
1, 390015, Control_c, 0, 64, 107
1, 390030, Control_c, 0, 64, 127
1, 390053, Note_on_c, 0, 56, 51
1, 390059, Note_off_c, 0, 38, 30
1, 390084, Note_on_c, 0, 48, 54
1, 390095, Note_off_c, 0, 56, 65
1, 390170, Note_on_c, 0, 69, 75
1, 390198, Note_off_c, 0, 68, 58
1, 390213, Note_on_c, 0, 65, 43
1, 390238, Note_off_c, 0, 48, 58
1, 390243, Note_on_c, 0, 53, 60
1, 390264, Note_off_c, 0, 65, 60
1, 390278, Note_off_c, 0, 53, 64
1, 390299, Note_off_c, 0, 69, 63
1, 390382, Note_on_c, 0, 69, 70
1, 390389, Note_on_c, 0, 60, 48
1, 390419, Note_off_c, 0, 60, 61
1, 390448, Note_on_c, 0, 72, 72
1, 390454, Note_off_c, 0, 69, 59
1, 390513, Note_off_c, 0, 72, 64
1, 390515, Note_on_c, 0, 77, 66
1, 390562, Note_off_c, 0, 77, 62
1, 390628, Note_on_c, 0, 84, 85
1, 390743, Note_off_c, 0, 84, 58
1, 390775, Note_on_c, 0, 72, 65
1, 390828, Note_off_c, 0, 72, 55
1, 390868, Control_c, 0, 64, 109
1, 390881, Note_on_c, 0, 72, 69
1, 390882, Control_c, 0, 64, 84
1, 390897, Control_c, 0, 64, 66
1, 390912, Control_c, 0, 64, 40
1, 390917, Note_on_c, 0, 83, 80
1, 390934, Control_c, 0, 64, 60
1, 390949, Control_c, 0, 64, 67
1, 390964, Control_c, 0, 64, 76
1, 390973, Note_off_c, 0, 72, 49
1, 390979, Control_c, 0, 64, 91
1, 390994, Control_c, 0, 64, 116
1, 391008, Control_c, 0, 64, 127
1, 391017, Note_on_c, 0, 80, 47
1, 391017, Note_off_c, 0, 83, 56
1, 391057, Note_off_c, 0, 80, 63
1, 391079, Note_on_c, 0, 69, 35
1, 391086, Note_on_c, 0, 65, 55
1, 391112, Note_off_c, 0, 69, 47
1, 391128, Poly_aftertouch_c, 0, 71, 127
1, 391148, Note_on_c, 0, 84, 79
1, 391161, Poly_aftertouch_c, 0, 71, 0
1, 391262, Note_off_c, 0, 65, 64
1, 391262, Note_off_c, 0, 84, 61
1, 391265, Note_on_c, 0, 60, 56
1, 391300, Note_off_c, 0, 60, 63
1, 391304, Note_on_c, 0, 72, 55
1, 391333, Note_off_c, 0, 72, 61
1, 391388, Note_on_c, 0, 80, 79
1, 391393, Note_on_c, 0, 60, 62
1, 391509, Note_on_c, 0, 68, 62
1, 391521, Note_off_c, 0, 80, 56
1, 391544, Note_on_c, 0, 53, 55
1, 391544, Note_off_c, 0, 60, 34
1, 391563, Note_off_c, 0, 68, 65
1, 391604, Poly_aftertouch_c, 0, 75, 127
1, 391615, Note_on_c, 0, 83, 81
1, 391649, Poly_aftertouch_c, 0, 75, 0
1, 391675, Note_off_c, 0, 53, 60
1, 391689, Note_on_c, 0, 50, 58
1, 391702, Note_off_c, 0, 83, 64
1, 391721, Note_off_c, 0, 50, 65
1, 391727, Note_on_c, 0, 75, 49
1, 391734, Note_on_c, 0, 71, 62
1, 391756, Note_off_c, 0, 75, 64
1, 391784, Note_off_c, 0, 71, 62
1, 391823, Note_on_c, 0, 43, 64
1, 391831, Control_c, 0, 64, 96
1, 391846, Control_c, 0, 64, 73
1, 391849, Note_on_c, 0, 70, 83
1, 391861, Control_c, 0, 64, 40
1, 391876, Control_c, 0, 64, 0
1, 391905, Control_c, 0, 64, 63
1, 391920, Control_c, 0, 64, 72
1, 391935, Control_c, 0, 64, 89
1, 391948, Note_on_c, 0, 66, 65
1, 391950, Control_c, 0, 64, 111
1, 391965, Control_c, 0, 64, 127
1, 391996, Note_on_c, 0, 58, 55
1, 391997, Note_on_c, 0, 50, 62
1, 392008, Note_off_c, 0, 70, 60
1, 392031, Note_off_c, 0, 50, 64
1, 392033, Note_off_c, 0, 66, 58
1, 392034, Note_off_c, 0, 58, 64
1, 392051, Note_off_c, 0, 43, 61
1, 392075, Note_on_c, 0, 73, 85
1, 392195, Note_on_c, 0, 61, 66
1, 392195, Note_off_c, 0, 73, 64
1, 392233, Note_off_c, 0, 61, 63
1, 392253, Poly_aftertouch_c, 0, 65, 0
1, 392286, Note_on_c, 0, 38, 59
1, 392290, Control_c, 0, 64, 91
1, 392306, Control_c, 0, 64, 70
1, 392320, Control_c, 0, 64, 0
1, 392350, Control_c, 0, 64, 58
1, 392362, Note_off_c, 0, 38, 64
1, 392365, Control_c, 0, 64, 67
1, 392376, Note_on_c, 0, 78, 64
1, 392380, Control_c, 0, 64, 77
1, 392395, Control_c, 0, 64, 93
1, 392410, Control_c, 0, 64, 118
1, 392432, Control_c, 0, 64, 127
1, 392457, Note_off_c, 0, 78, 64
1, 392529, Note_on_c, 0, 70, 64
1, 392601, Note_off_c, 0, 70, 61
1, 392611, Note_on_c, 0, 66, 60
1, 392632, Poly_aftertouch_c, 0, 61, 127
1, 392642, Note_off_c, 0, 66, 66
1, 392691, Note_on_c, 0, 58, 66
1, 392724, Note_off_c, 0, 58, 65
1, 392725, Note_on_c, 0, 66, 67
1, 392761, Poly_aftertouch_c, 0, 61, 0
1, 392786, Note_off_c, 0, 66, 64
1, 392788, Note_on_c, 0, 70, 72
1, 392832, Control_c, 0, 64, 113
1, 392839, Note_off_c, 0, 70, 63
1, 392846, Control_c, 0, 64, 85
1, 392861, Control_c, 0, 64, 64
1, 392863, Note_on_c, 0, 58, 64
1, 392875, Note_on_c, 0, 43, 42
1, 392876, Control_c, 0, 64, 0
1, 392920, Control_c, 0, 64, 61
1, 392935, Control_c, 0, 64, 69
1, 392942, Note_on_c, 0, 61, 54
1, 392950, Control_c, 0, 64, 77
1, 392963, Note_on_c, 0, 66, 62
1, 392965, Control_c, 0, 64, 85
1, 392979, Control_c, 0, 64, 91
1, 392984, Note_off_c, 0, 58, 52
1, 392994, Control_c, 0, 64, 97
1, 393009, Control_c, 0, 64, 105
1, 393024, Control_c, 0, 64, 127
1, 393036, Note_off_c, 0, 61, 57
1, 393045, Note_off_c, 0, 66, 65
1, 393051, Note_on_c, 0, 70, 72
1, 393069, Note_on_c, 0, 50, 59
1, 393129, Note_on_c, 0, 66, 59
1, 393144, Poly_aftertouch_c, 0, 68, 127
1, 393188, Note_on_c, 0, 58, 66
1, 393190, Note_off_c, 0, 70, 58
1, 393202, Poly_aftertouch_c, 0, 68, 0
1, 393214, Note_off_c, 0, 66, 62
1, 393245, Note_off_c, 0, 58, 63
1, 393284, Note_on_c, 0, 73, 74
1, 393287, Note_on_c, 0, 55, 59
1, 393297, Note_off_c, 0, 50, 56
1, 393361, Note_on_c, 0, 70, 59
1, 393390, Note_on_c, 0, 61, 64
1, 393399, Note_off_c, 0, 73, 61
1, 393462, Note_off_c, 0, 61, 63
1, 393478, Note_on_c, 0, 50, 58
1, 393483, Note_off_c, 0, 55, 59
1, 393485, Note_off_c, 0, 70, 55
1, 393499, Note_on_c, 0, 75, 80
1, 393504, Note_off_c, 0, 43, 56
1, 393561, Note_off_c, 0, 50, 48
1, 393584, Note_on_c, 0, 70, 69
1, 393612, Note_off_c, 0, 75, 58
1, 393630, Note_on_c, 0, 63, 68
1, 393647, Note_off_c, 0, 70, 61
1, 393691, Note_off_c, 0, 63, 57
1, 393699, Control_c, 0, 64, 101
1, 393700, Note_on_c, 0, 43, 65
1, 393714, Control_c, 0, 64, 74
1, 393719, Note_on_c, 0, 70, 80
1, 393728, Control_c, 0, 64, 0
1, 393758, Control_c, 0, 64, 42
1, 393773, Control_c, 0, 64, 66
1, 393787, Note_on_c, 0, 66, 73
1, 393788, Control_c, 0, 64, 77
1, 393802, Control_c, 0, 64, 94
1, 393817, Control_c, 0, 64, 127
1, 393852, Note_on_c, 0, 58, 61
1, 393869, Note_off_c, 0, 66, 58
1, 393873, Note_on_c, 0, 50, 66
1, 393878, Note_off_c, 0, 70, 60
1, 393886, Note_off_c, 0, 58, 67
1, 393905, Note_off_c, 0, 50, 65
1, 393927, Note_off_c, 0, 43, 60
1, 393942, Note_on_c, 0, 73, 85
1, 394023, Note_on_c, 0, 65, 63
1, 394064, Note_off_c, 0, 65, 62
1, 394072, Note_off_c, 0, 73, 64
1, 394088, Note_on_c, 0, 61, 51
1, 394121, Note_off_c, 0, 61, 62
1, 394295, Note_on_c, 0, 38, 54
1, 394314, Control_c, 0, 64, 101
1, 394329, Control_c, 0, 64, 75
1, 394344, Control_c, 0, 64, 44
1, 394359, Control_c, 0, 64, 0
1, 394367, Note_on_c, 0, 78, 69
1, 394404, Control_c, 0, 64, 57
1, 394418, Control_c, 0, 64, 71
1, 394433, Control_c, 0, 64, 81
1, 394448, Control_c, 0, 64, 95
1, 394463, Control_c, 0, 64, 111
1, 394478, Note_off_c, 0, 38, 63
1, 394478, Control_c, 0, 64, 127
1, 394504, Note_off_c, 0, 78, 62
1, 394618, Note_on_c, 0, 70, 47
1, 394734, Note_off_c, 0, 70, 54
1, 394738, Note_on_c, 0, 66, 58
1, 394807, Note_on_c, 0, 63, 49
1, 394820, Note_off_c, 0, 66, 62
1, 394840, Note_on_c, 0, 61, 56
1, 394887, Note_off_c, 0, 63, 59
1, 394960, Note_on_c, 0, 66, 55
1, 394970, Note_on_c, 0, 58, 56
1, 395002, Note_off_c, 0, 58, 65
1, 395006, Note_off_c, 0, 61, 59
1, 395062, Note_off_c, 0, 66, 61
1, 395068, Note_on_c, 0, 70, 60
1, 395101, Note_off_c, 0, 70, 63
1, 395128, Note_on_c, 0, 43, 56
1, 395166, Note_on_c, 0, 58, 53
1, 395167, Control_c, 0, 64, 97
1, 395182, Control_c, 0, 64, 76
1, 395197, Control_c, 0, 64, 48
1, 395212, Control_c, 0, 64, 0
1, 395241, Control_c, 0, 64, 58
1, 395256, Control_c, 0, 64, 67
1, 395256, Note_off_c, 0, 58, 57
1, 395271, Control_c, 0, 64, 76
1, 395277, Note_on_c, 0, 66, 50
1, 395286, Control_c, 0, 64, 88
1, 395300, Control_c, 0, 64, 97
1, 395315, Control_c, 0, 64, 104
1, 395329, Note_off_c, 0, 43, 58
1, 395330, Control_c, 0, 64, 111
1, 395331, Note_on_c, 0, 50, 59
1, 395345, Control_c, 0, 64, 126
1, 395353, Note_off_c, 0, 66, 65
1, 395360, Note_on_c, 0, 70, 72
1, 395360, Control_c, 0, 64, 127
1, 395364, Note_off_c, 0, 50, 65
1, 395447, Note_on_c, 0, 66, 56
1, 395491, Note_off_c, 0, 70, 62
1, 395501, Note_on_c, 0, 58, 54
1, 395502, Note_off_c, 0, 66, 62
1, 395537, Note_off_c, 0, 58, 64
1, 395571, Note_on_c, 0, 62, 51
1, 395582, Note_on_c, 0, 73, 73
1, 395645, Note_off_c, 0, 62, 54
1, 395648, Note_on_c, 0, 70, 60
1, 395687, Note_off_c, 0, 73, 61
1, 395714, Note_off_c, 0, 70, 63
1, 395730, Note_on_c, 0, 63, 61
1, 395750, Note_on_c, 0, 50, 57
1, 395757, Note_off_c, 0, 63, 66
1, 395790, Note_off_c, 0, 50, 62
1, 395833, Note_on_c, 0, 78, 79
1, 395939, Note_on_c, 0, 70, 62
1, 395958, Note_off_c, 0, 78, 58
1, 396020, Note_off_c, 0, 70, 60
1, 396035, Note_on_c, 0, 66, 61
1, 396076, Note_off_c, 0, 66, 60
1, 396118, Note_on_c, 0, 40, 66
1, 396175, Control_c, 0, 64, 93
1, 396187, Note_on_c, 0, 70, 78
1, 396190, Control_c, 0, 64, 70
1, 396204, Control_c, 0, 64, 0
1, 396249, Control_c, 0, 64, 32
1, 396264, Control_c, 0, 64, 65
1, 396279, Control_c, 0, 64, 74
1, 396294, Control_c, 0, 64, 85
1, 396309, Control_c, 0, 64, 102
1, 396324, Control_c, 0, 64, 127
1, 396327, Note_on_c, 0, 58, 52
1, 396342, Note_on_c, 0, 66, 50
1, 396356, Note_off_c, 0, 58, 54
1, 396371, Note_off_c, 0, 40, 33
1, 396381, Note_on_c, 0, 50, 57
1, 396432, Note_off_c, 0, 70, 56
1, 396453, Note_on_c, 0, 71, 78
1, 396487, Control_c, 0, 67, 117
1, 396502, Note_off_c, 0, 66, 64
1, 396502, Control_c, 0, 67, 102
1, 396517, Control_c, 0, 67, 86
1, 396518, Note_off_c, 0, 50, 62
1, 396531, Note_on_c, 0, 55, 64
1, 396532, Control_c, 0, 67, 71
1, 396546, Control_c, 0, 67, 56
1, 396560, Note_off_c, 0, 55, 65
1, 396561, Control_c, 0, 67, 44
1, 396576, Control_c, 0, 67, 33
1, 396580, Note_off_c, 0, 71, 65
1, 396591, Control_c, 0, 67, 23
1, 396606, Control_c, 0, 67, 12
1, 396620, Control_c, 0, 67, 0
1, 396664, Note_on_c, 0, 71, 73
1, 396694, Note_on_c, 0, 62, 26
1, 396729, Note_off_c, 0, 71, 63
1, 396732, Note_on_c, 0, 74, 70
1, 396733, Note_off_c, 0, 62, 41
1, 396792, Note_off_c, 0, 74, 65
1, 396799, Note_on_c, 0, 79, 71
1, 396830, Note_off_c, 0, 79, 65
1, 396899, Note_on_c, 0, 86, 87
1, 397006, Note_on_c, 0, 83, 23
1, 397038, Note_off_c, 0, 86, 55
1, 397043, Note_on_c, 0, 74, 59
1, 397046, Note_off_c, 0, 83, 42
1, 397082, Note_off_c, 0, 74, 61
1, 397164, Note_on_c, 0, 76, 74
1, 397176, Control_c, 0, 64, 94
1, 397191, Control_c, 0, 64, 77
1, 397206, Control_c, 0, 64, 64
1, 397221, Control_c, 0, 64, 62
1, 397224, Note_on_c, 0, 85, 82
1, 397236, Control_c, 0, 64, 67
1, 397251, Control_c, 0, 64, 74
1, 397265, Control_c, 0, 64, 87
1, 397280, Note_on_c, 0, 82, 52
1, 397280, Control_c, 0, 64, 109
1, 397295, Control_c, 0, 64, 127
1, 397322, Note_on_c, 0, 73, 66
1, 397332, Note_off_c, 0, 85, 63
1, 397370, Note_on_c, 0, 68, 61
1, 397374, Note_off_c, 0, 82, 62
1, 397376, Note_off_c, 0, 73, 65
1, 397384, Note_off_c, 0, 76, 56
1, 397432, Note_on_c, 0, 86, 83
1, 397492, Note_on_c, 0, 64, 59
1, 397516, Note_off_c, 0, 86, 61
1, 397522, Note_off_c, 0, 68, 62
1, 397525, Note_off_c, 0, 64, 64
1, 397527, Note_on_c, 0, 74, 68
1, 397584, Note_off_c, 0, 74, 63
1, 397641, Note_on_c, 0, 78, 80
1, 397647, Note_on_c, 0, 62, 43
1, 397707, Poly_aftertouch_c, 0, 64, 127
1, 397739, Poly_aftertouch_c, 0, 64, 0
1, 397763, Note_on_c, 0, 66, 77
1, 397772, Note_off_c, 0, 78, 61
1, 397807, Poly_aftertouch_c, 0, 74, 127
1, 397814, Note_on_c, 0, 56, 63
1, 397832, Note_off_c, 0, 66, 64
1, 397851, Note_off_c, 0, 62, 34
1, 397862, Note_on_c, 0, 80, 79
1, 397900, Note_on_c, 0, 52, 63
1, 397901, Note_off_c, 0, 56, 64
1, 397915, Poly_aftertouch_c, 0, 74, 0
1, 397934, Note_off_c, 0, 52, 64
1, 397939, Note_on_c, 0, 77, 63
1, 397971, Note_off_c, 0, 80, 58
1, 397991, Note_off_c, 0, 77, 63
1, 397993, Note_on_c, 0, 70, 67
1, 398023, Note_off_c, 0, 70, 68
1, 398045, Control_c, 0, 64, 106
1, 398052, Note_on_c, 0, 36, 69
1, 398060, Control_c, 0, 64, 79
1, 398074, Control_c, 0, 64, 58
1, 398083, Note_on_c, 0, 38, 49
1, 398089, Note_on_c, 0, 86, 85
1, 398089, Control_c, 0, 64, 0
1, 398118, Control_c, 0, 64, 61
1, 398124, Note_off_c, 0, 38, 32
1, 398133, Control_c, 0, 64, 69
1, 398148, Control_c, 0, 64, 80
1, 398163, Control_c, 0, 64, 95
1, 398178, Control_c, 0, 64, 113
1, 398183, Note_on_c, 0, 82, 71
1, 398193, Control_c, 0, 64, 127
1, 398213, Note_off_c, 0, 86, 64
1, 398226, Note_on_c, 0, 43, 68
1, 398247, Note_on_c, 0, 76, 77
1, 398260, Note_off_c, 0, 36, 59
1, 398285, Note_off_c, 0, 82, 65
1, 398292, Note_on_c, 0, 48, 70
1, 398293, Note_off_c, 0, 43, 61
1, 398314, Note_off_c, 0, 76, 66
1, 398317, Note_on_c, 0, 74, 69
1, 398329, Note_off_c, 0, 48, 65
1, 398343, Note_off_c, 0, 74, 68
1, 398419, Note_on_c, 0, 69, 72
1, 398423, Note_on_c, 0, 52, 65
1, 398447, Note_on_c, 0, 68, 37
1, 398480, Note_off_c, 0, 68, 55
1, 398483, Note_on_c, 0, 64, 67
1, 398494, Note_off_c, 0, 69, 59
1, 398529, Note_off_c, 0, 64, 64
1, 398532, Note_on_c, 0, 62, 76
1, 398557, Note_on_c, 0, 58, 72
1, 398578, Note_off_c, 0, 52, 61
1, 398584, Note_off_c, 0, 62, 61
1, 398604, Note_on_c, 0, 64, 76
1, 398661, Note_off_c, 0, 64, 65
1, 398666, Note_on_c, 0, 70, 78
1, 398695, Note_off_c, 0, 70, 67
1, 398740, Note_off_c, 0, 58, 60
1, 398744, Note_on_c, 0, 64, 73
1, 398768, Note_on_c, 0, 74, 80
1, 398791, Note_off_c, 0, 64, 62
1, 398830, Note_off_c, 0, 74, 64
1, 398831, Note_on_c, 0, 76, 74
1, 398911, Note_on_c, 0, 82, 76
1, 398925, Note_off_c, 0, 76, 62
1, 398937, Note_on_c, 0, 70, 69
1, 398960, Note_on_c, 0, 86, 79
1, 398978, Note_off_c, 0, 70, 59
1, 398983, Note_off_c, 0, 82, 65
1, 399039, Note_on_c, 0, 82, 67
1, 399069, Note_off_c, 0, 86, 62
1, 399087, Note_on_c, 0, 76, 62
1, 399100, Note_off_c, 0, 82, 65
1, 399120, Control_c, 0, 64, 99
1, 399126, Note_off_c, 0, 76, 62
1, 399134, Control_c, 0, 64, 74
1, 399149, Control_c, 0, 64, 0
1, 399149, Note_on_c, 0, 76, 71
1, 399197, Note_on_c, 0, 85, 86
1, 399201, Control_c, 0, 64, 62
1, 399215, Control_c, 0, 64, 74
1, 399230, Control_c, 0, 64, 89
1, 399245, Control_c, 0, 64, 119
1, 399259, Control_c, 0, 64, 127
1, 399262, Note_on_c, 0, 82, 67
1, 399303, Note_on_c, 0, 73, 68
1, 399315, Note_off_c, 0, 85, 64
1, 399340, Note_on_c, 0, 68, 61
1, 399349, Note_off_c, 0, 82, 62
1, 399351, Note_off_c, 0, 73, 66
1, 399368, Note_off_c, 0, 76, 59
1, 399400, Note_on_c, 0, 86, 88
1, 399458, Note_on_c, 0, 64, 57
1, 399469, Note_off_c, 0, 68, 65
1, 399477, Note_off_c, 0, 86, 61
1, 399481, Note_on_c, 0, 77, 69
1, 399489, Note_off_c, 0, 64, 66
1, 399499, Note_on_c, 0, 74, 66
1, 399524, Poly_aftertouch_c, 0, 66, 127
1, 399526, Note_off_c, 0, 77, 61
1, 399542, Note_off_c, 0, 74, 62
1, 399551, Poly_aftertouch_c, 0, 66, 0
1, 399596, Note_on_c, 0, 78, 87
1, 399605, Note_on_c, 0, 62, 50
1, 399610, Note_on_c, 0, 64, 44
1, 399635, Note_off_c, 0, 64, 58
1, 399696, Note_on_c, 0, 66, 80
1, 399708, Note_off_c, 0, 78, 62
1, 399715, Note_on_c, 0, 74, 18
1, 399735, Note_on_c, 0, 56, 60
1, 399758, Note_off_c, 0, 66, 65
1, 399780, Note_off_c, 0, 62, 36
1, 399793, Note_on_c, 0, 80, 87
1, 399814, Note_off_c, 0, 74, 54
1, 399820, Note_on_c, 0, 52, 67
1, 399824, Note_off_c, 0, 56, 64
1, 399848, Note_off_c, 0, 52, 64
1, 399865, Note_on_c, 0, 77, 69
1, 399889, Note_off_c, 0, 80, 64
1, 399928, Note_off_c, 0, 77, 63
1, 399961, Note_on_c, 0, 72, 57
1, 399975, Note_on_c, 0, 36, 54
1, 399984, Note_on_c, 0, 71, 18
1, 399986, Note_off_c, 0, 72, 58
1, 399993, Control_c, 0, 64, 87
1, 400000, Note_on_c, 0, 38, 52
1, 400008, Control_c, 0, 64, 66
1, 400020, Note_off_c, 0, 71, 44
1, 400022, Note_on_c, 0, 86, 79
1, 400022, Control_c, 0, 64, 0
1, 400047, Note_off_c, 0, 38, 43
1, 400064, Poly_aftertouch_c, 0, 44, 0
1, 400067, Control_c, 0, 64, 62
1, 400082, Control_c, 0, 64, 71
1, 400096, Control_c, 0, 64, 83
1, 400111, Control_c, 0, 64, 107
1, 400121, Note_on_c, 0, 82, 72
1, 400126, Control_c, 0, 64, 127
1, 400140, Note_off_c, 0, 86, 57
1, 400163, Note_on_c, 0, 80, 44
1, 400169, Note_on_c, 0, 43, 57
1, 400189, Note_on_c, 0, 76, 70
1, 400191, Note_off_c, 0, 80, 54
1, 400211, Note_off_c, 0, 82, 65
1, 400214, Note_off_c, 0, 36, 62
1, 400243, Note_off_c, 0, 43, 60
1, 400245, Note_off_c, 0, 76, 66
1, 400247, Note_on_c, 0, 48, 70
1, 400247, Note_on_c, 0, 74, 71
1, 400276, Note_off_c, 0, 74, 65
1, 400297, Note_off_c, 0, 48, 61
1, 400333, Note_on_c, 0, 70, 78
1, 400383, Note_on_c, 0, 52, 52
1, 400418, Note_on_c, 0, 64, 63
1, 400431, Note_off_c, 0, 70, 56
1, 400470, Note_on_c, 0, 62, 75
1, 400470, Note_off_c, 0, 64, 64
1, 400481, Note_on_c, 0, 58, 67
1, 400494, Note_off_c, 0, 52, 53
1, 400542, Note_off_c, 0, 62, 58
1, 400547, Note_on_c, 0, 64, 63
1, 400592, Note_off_c, 0, 64, 62
1, 400601, Note_on_c, 0, 70, 74
1, 400633, Note_off_c, 0, 70, 66
1, 400645, Control_c, 0, 64, 115
1, 400667, Control_c, 0, 64, 86
1, 400682, Control_c, 0, 64, 68
1, 400684, Note_off_c, 0, 58, 62
1, 400697, Note_on_c, 0, 62, 62
1, 400697, Control_c, 0, 64, 49
1, 400711, Control_c, 0, 64, 62
1, 400720, Note_on_c, 0, 78, 78
1, 400726, Control_c, 0, 64, 68
1, 400741, Control_c, 0, 64, 78
1, 400756, Control_c, 0, 64, 94
1, 400771, Control_c, 0, 64, 118
1, 400786, Control_c, 0, 64, 127
1, 400796, Note_on_c, 0, 74, 63
1, 400859, Note_off_c, 0, 74, 63
1, 400860, Note_off_c, 0, 78, 59
1, 400863, Note_on_c, 0, 66, 75
1, 400898, Note_on_c, 0, 56, 62
1, 400908, Note_off_c, 0, 62, 49
1, 400916, Note_off_c, 0, 66, 65
1, 400953, Note_on_c, 0, 80, 82
1, 400975, Note_on_c, 0, 52, 62
1, 400975, Note_off_c, 0, 56, 64
1, 401004, Note_off_c, 0, 52, 64
1, 401025, Note_on_c, 0, 77, 67
1, 401063, Note_off_c, 0, 80, 64
1, 401073, Note_off_c, 0, 77, 62
1, 401084, Note_on_c, 0, 70, 69
1, 401127, Note_off_c, 0, 70, 63
1, 401134, Note_on_c, 0, 36, 66
1, 401187, Control_c, 0, 64, 91
1, 401198, Note_on_c, 0, 86, 76
1, 401202, Poly_aftertouch_c, 0, 44, 0
1, 401202, Control_c, 0, 64, 67
1, 401216, Control_c, 0, 64, 0
1, 401260, Control_c, 0, 64, 56
1, 401275, Control_c, 0, 64, 68
1, 401290, Control_c, 0, 64, 78
1, 401305, Control_c, 0, 64, 95
1, 401314, Note_on_c, 0, 82, 68
1, 401320, Control_c, 0, 64, 127
1, 401337, Note_off_c, 0, 86, 59
1, 401355, Note_on_c, 0, 43, 61
1, 401376, Note_on_c, 0, 76, 79
1, 401379, Control_c, 0, 67, 9
1, 401385, Note_off_c, 0, 36, 61
1, 401394, Control_c, 0, 67, 18
1, 401412, Note_off_c, 0, 82, 65
1, 401416, Control_c, 0, 67, 35
1, 401431, Control_c, 0, 67, 62
1, 401433, Note_off_c, 0, 43, 60
1, 401436, Note_on_c, 0, 48, 66
1, 401445, Note_off_c, 0, 76, 66
1, 401446, Control_c, 0, 67, 95
1, 401449, Note_on_c, 0, 74, 67
1, 401460, Control_c, 0, 67, 127
1, 401479, Note_off_c, 0, 74, 66
1, 401480, Note_off_c, 0, 48, 62
1, 401537, Note_on_c, 0, 70, 84
1, 401596, Note_on_c, 0, 52, 52
1, 401617, Note_on_c, 0, 64, 72
1, 401622, Note_off_c, 0, 70, 59
1, 401658, Note_off_c, 0, 64, 62
1, 401718, Note_on_c, 0, 58, 68
1, 401719, Note_off_c, 0, 52, 61
1, 401802, Note_off_c, 0, 58, 61
1, 401818, Note_on_c, 0, 62, 58
1, 401822, Note_on_c, 0, 52, 53
1, 401969, Note_off_c, 0, 52, 56
1, 401987, Note_off_c, 0, 62, 57
1, 401995, Control_c, 0, 64, 90
1, 402002, Note_on_c, 0, 66, 65
1, 402007, Note_on_c, 0, 59, 50
1, 402009, Control_c, 0, 64, 67
1, 402024, Control_c, 0, 64, 0
1, 402054, Control_c, 0, 64, 58
1, 402069, Control_c, 0, 64, 66
1, 402083, Control_c, 0, 64, 73
1, 402098, Control_c, 0, 64, 85
1, 402113, Control_c, 0, 64, 96
1, 402128, Control_c, 0, 64, 104
1, 402141, Note_on_c, 0, 62, 47
1, 402143, Control_c, 0, 64, 113
1, 402165, Control_c, 0, 64, 127
1, 402200, Note_off_c, 0, 59, 36
1, 402237, Note_off_c, 0, 66, 54
1, 402244, Note_on_c, 0, 54, 55
1, 402266, Note_on_c, 0, 52, 58
1, 402293, Note_off_c, 0, 54, 59
1, 402317, Note_off_c, 0, 52, 60
1, 402330, Note_on_c, 0, 68, 71
1, 402399, Note_off_c, 0, 62, 38
1, 402425, Note_on_c, 0, 65, 59
1, 402452, Note_off_c, 0, 68, 60
1, 402474, Note_off_c, 0, 65, 62
1, 402512, Note_on_c, 0, 58, 60
1, 402547, Note_off_c, 0, 58, 65
1, 402664, Note_on_c, 0, 36, 51
1, 402669, Control_c, 0, 64, 103
1, 402685, Control_c, 0, 64, 82
1, 402694, Note_on_c, 0, 74, 61
1, 402700, Control_c, 0, 64, 65
1, 402714, Control_c, 0, 64, 0
1, 402744, Control_c, 0, 64, 40
1, 402759, Control_c, 0, 64, 62
1, 402774, Control_c, 0, 64, 68
1, 402788, Control_c, 0, 64, 77
1, 402803, Control_c, 0, 64, 88
1, 402818, Control_c, 0, 64, 100
1, 402827, Note_off_c, 0, 74, 57
1, 402832, Control_c, 0, 64, 108
1, 402847, Control_c, 0, 64, 126
1, 402849, Note_on_c, 0, 70, 66
1, 402862, Control_c, 0, 64, 127
1, 402949, Note_on_c, 0, 64, 70
1, 402951, Note_on_c, 0, 43, 56
1, 402953, Note_off_c, 0, 70, 62
1, 402956, Note_off_c, 0, 36, 61
1, 402985, Note_off_c, 0, 43, 63
1, 403009, Note_off_c, 0, 64, 63
1, 403025, Note_on_c, 0, 62, 65
1, 403082, Note_off_c, 0, 62, 0
1, 403115, Note_on_c, 0, 58, 75
1, 403120, Poly_aftertouch_c, 0, 62, 0
1, 403168, Note_off_c, 0, 58, 60
1, 403211, Note_on_c, 0, 52, 59
1, 403268, Note_off_c, 0, 52, 59
1, 403314, Control_c, 0, 64, 101
1, 403317, Note_on_c, 0, 66, 70
1, 403329, Control_c, 0, 64, 79
1, 403329, Control_c, 0, 67, 116
1, 403340, Note_on_c, 0, 62, 44
1, 403344, Control_c, 0, 64, 61
1, 403344, Control_c, 0, 67, 99
1, 403358, Control_c, 0, 64, 0
1, 403358, Control_c, 0, 67, 77
1, 403361, Note_on_c, 0, 58, 38
1, 403373, Control_c, 0, 67, 54
1, 403388, Control_c, 0, 64, 28
1, 403388, Control_c, 0, 67, 32
1, 403403, Control_c, 0, 64, 63
1, 403403, Control_c, 0, 67, 10
1, 403417, Note_off_c, 0, 62, 56
1, 403418, Control_c, 0, 64, 69
1, 403418, Control_c, 0, 67, 0
1, 403428, Note_off_c, 0, 58, 57
1, 403432, Control_c, 0, 64, 76
1, 403447, Control_c, 0, 64, 83
1, 403462, Control_c, 0, 64, 89
1, 403478, Control_c, 0, 64, 93
1, 403490, Note_on_c, 0, 48, 65
1, 403493, Control_c, 0, 64, 98
1, 403507, Control_c, 0, 64, 107
1, 403522, Control_c, 0, 64, 127
1, 403524, Note_off_c, 0, 66, 60
1, 403633, Note_on_c, 0, 67, 78
1, 403643, Note_on_c, 0, 63, 65
1, 403658, Note_on_c, 0, 59, 60
1, 403662, Control_c, 0, 64, 93
1, 403677, Control_c, 0, 64, 72
1, 403692, Control_c, 0, 64, 0
1, 403737, Control_c, 0, 64, 15
1, 403737, Note_off_c, 0, 59, 62
1, 403752, Control_c, 0, 64, 64
1, 403752, Note_off_c, 0, 63, 62
1, 403767, Control_c, 0, 64, 74
1, 403778, Note_off_c, 0, 67, 62
1, 403781, Control_c, 0, 64, 85
1, 403796, Control_c, 0, 64, 97
1, 403811, Control_c, 0, 64, 109
1, 403813, Note_on_c, 0, 60, 67
1, 403826, Control_c, 0, 64, 127
1, 403907, Note_off_c, 0, 60, 52
1, 403967, Note_on_c, 0, 68, 74
1, 403970, Note_on_c, 0, 60, 57
1, 403973, Note_on_c, 0, 64, 64
1, 403996, Note_off_c, 0, 60, 67
1, 404000, Note_off_c, 0, 64, 66
1, 404033, Note_off_c, 0, 68, 62
1, 404179, Poly_aftertouch_c, 0, 70, 127
1, 404196, Control_c, 0, 64, 87
1, 404208, Note_on_c, 0, 74, 74
1, 404211, Control_c, 0, 64, 64
1, 404216, Note_on_c, 0, 66, 64
1, 404225, Note_on_c, 0, 70, 3
1, 404226, Control_c, 0, 64, 0
1, 404270, Control_c, 0, 64, 62
1, 404285, Control_c, 0, 64, 72
1, 404300, Control_c, 0, 64, 85
1, 404300, Control_c, 0, 67, 15
1, 404312, Note_off_c, 0, 66, 62
1, 404315, Control_c, 0, 64, 96
1, 404315, Control_c, 0, 67, 34
1, 404328, Note_off_c, 0, 74, 61
1, 404330, Control_c, 0, 64, 106
1, 404330, Control_c, 0, 67, 63
1, 404343, Note_off_c, 0, 70, 55
1, 404345, Control_c, 0, 64, 127
1, 404345, Control_c, 0, 67, 95
1, 404360, Control_c, 0, 67, 123
1, 404375, Control_c, 0, 67, 127
1, 404380, Note_on_c, 0, 60, 57
1, 404560, Note_on_c, 0, 66, 63
1, 404560, Control_c, 0, 64, 120
1, 404572, Note_on_c, 0, 62, 43
1, 404575, Note_on_c, 0, 58, 44
1, 404575, Control_c, 0, 64, 89
1, 404590, Control_c, 0, 64, 69
1, 404604, Control_c, 0, 64, 0
1, 404709, Control_c, 0, 64, 64
1, 404724, Control_c, 0, 64, 71
1, 404739, Control_c, 0, 64, 78
1, 404742, Note_off_c, 0, 62, 60
1, 404751, Note_off_c, 0, 60, 53
1, 404753, Control_c, 0, 64, 85
1, 404768, Control_c, 0, 64, 93
1, 404783, Control_c, 0, 64, 108
1, 404798, Control_c, 0, 64, 127
1, 404828, Note_off_c, 0, 66, 53
1, 404831, Note_off_c, 0, 58, 44
1, 404989, Note_on_c, 0, 67, 46
1, 405013, Note_on_c, 0, 59, 36
1, 405016, Note_on_c, 0, 63, 36
1, 405034, Control_c, 0, 64, 96
1, 405049, Control_c, 0, 64, 77
1, 405064, Control_c, 0, 64, 64
1, 405080, Control_c, 0, 64, 45
1, 405095, Control_c, 0, 64, 60
1, 405109, Control_c, 0, 64, 68
1, 405124, Control_c, 0, 64, 77
1, 405139, Control_c, 0, 64, 90
1, 405161, Control_c, 0, 64, 103
1, 405176, Control_c, 0, 64, 115
1, 405191, Control_c, 0, 64, 127
1, 405215, Note_off_c, 0, 63, 43
1, 405260, Note_off_c, 0, 67, 60
1, 405263, Note_off_c, 0, 59, 37
1, 405481, Note_on_c, 0, 72, 70
1, 405487, Control_c, 0, 64, 104
1, 405491, Note_on_c, 0, 64, 46
1, 405491, Note_on_c, 0, 68, 53
1, 405501, Control_c, 0, 64, 77
1, 405516, Control_c, 0, 64, 58
1, 405531, Control_c, 0, 64, 0
1, 405546, Control_c, 0, 64, 22
1, 405560, Control_c, 0, 64, 63
1, 405575, Control_c, 0, 64, 72
1, 405590, Control_c, 0, 64, 85
1, 405605, Control_c, 0, 64, 104
1, 405615, Note_off_c, 0, 64, 60
1, 405620, Control_c, 0, 64, 126
1, 405623, Note_off_c, 0, 72, 62
1, 405628, Note_off_c, 0, 68, 58
1, 405634, Control_c, 0, 64, 127
1, 405652, Note_on_c, 0, 60, 45
1, 405982, Note_on_c, 0, 66, 57
1, 405983, Note_on_c, 0, 62, 41
1, 405983, Control_c, 0, 64, 96
1, 405985, Note_on_c, 0, 58, 37
1, 405998, Control_c, 0, 64, 75
1, 406013, Control_c, 0, 64, 62
1, 406028, Control_c, 0, 64, 18
1, 406043, Control_c, 0, 64, 0
1, 406057, Control_c, 0, 64, 40
1, 406072, Control_c, 0, 64, 56
1, 406087, Control_c, 0, 64, 63
1, 406102, Control_c, 0, 64, 66
1, 406110, Note_off_c, 0, 60, 47
1, 406117, Control_c, 0, 64, 69
1, 406131, Control_c, 0, 64, 72
1, 406146, Control_c, 0, 64, 75
1, 406161, Control_c, 0, 64, 79
1, 406175, Control_c, 0, 64, 81
1, 406190, Control_c, 0, 64, 81
1, 406205, Control_c, 0, 64, 82
1, 406220, Control_c, 0, 64, 83
1, 406235, Control_c, 0, 64, 85
1, 406250, Control_c, 0, 64, 87
1, 406265, Control_c, 0, 64, 90
1, 406280, Control_c, 0, 64, 93
1, 406295, Control_c, 0, 64, 96
1, 406309, Control_c, 0, 64, 101
1, 406324, Control_c, 0, 64, 108
1, 406327, Note_off_c, 0, 62, 32
1, 406339, Control_c, 0, 64, 119
1, 406354, Control_c, 0, 64, 127
1, 406528, Note_off_c, 0, 58, 31
1, 406605, Note_off_c, 0, 66, 45
1, 406760, Note_on_c, 0, 67, 43
1, 406776, Note_on_c, 0, 59, 35
1, 406788, Note_on_c, 0, 63, 31
1, 406836, Control_c, 0, 64, 101
1, 406851, Control_c, 0, 64, 87
1, 406866, Control_c, 0, 64, 74
1, 406880, Control_c, 0, 64, 62
1, 406895, Control_c, 0, 64, 0
1, 406969, Control_c, 0, 64, 48
1, 406984, Control_c, 0, 64, 65
1, 406999, Control_c, 0, 64, 75
1, 407013, Control_c, 0, 64, 85
1, 407028, Control_c, 0, 64, 94
1, 407043, Control_c, 0, 64, 101
1, 407058, Control_c, 0, 64, 110
1, 407073, Control_c, 0, 64, 127
1, 407087, Note_off_c, 0, 59, 41
1, 407116, Note_off_c, 0, 67, 33
1, 407144, Note_off_c, 0, 63, 41
1, 407795, Note_on_c, 0, 60, 36
1, 407800, Note_on_c, 0, 68, 45
1, 407804, Note_on_c, 0, 64, 38
1, 407851, Control_c, 0, 64, 113
1, 407866, Control_c, 0, 64, 96
1, 407880, Control_c, 0, 64, 83
1, 407895, Control_c, 0, 64, 70
1, 407910, Control_c, 0, 64, 62
1, 407925, Control_c, 0, 64, 46
1, 407940, Control_c, 0, 64, 44
1, 407955, Control_c, 0, 64, 46
1, 407970, Control_c, 0, 64, 55
1, 407985, Control_c, 0, 64, 61
1, 408000, Control_c, 0, 64, 65
1, 408015, Control_c, 0, 64, 68
1, 408029, Control_c, 0, 64, 73
1, 408044, Control_c, 0, 64, 81
1, 408059, Control_c, 0, 64, 89
1, 408073, Control_c, 0, 64, 94
1, 408088, Control_c, 0, 64, 98
1, 408103, Control_c, 0, 64, 103
1, 408118, Control_c, 0, 64, 110
1, 408133, Control_c, 0, 64, 124
1, 408155, Control_c, 0, 64, 127
1, 408231, Note_off_c, 0, 64, 29
1, 408438, Note_off_c, 0, 60, 26
1, 408512, Note_off_c, 0, 68, 39
1, 408694, Note_off_c, 0, 48, 16
1, 409127, Note_on_c, 0, 45, 43
1, 409140, Note_on_c, 0, 71, 47
1, 409148, Note_on_c, 0, 61, 36
1, 409152, Note_on_c, 0, 65, 43
1, 409157, Control_c, 0, 64, 117
1, 409172, Control_c, 0, 64, 92
1, 409187, Control_c, 0, 64, 75
1, 409201, Control_c, 0, 64, 56
1, 409216, Control_c, 0, 64, 0
1, 409246, Note_off_c, 0, 65, 62
1, 409246, Control_c, 0, 64, 59
1, 409261, Control_c, 0, 64, 68
1, 409272, Note_off_c, 0, 61, 58
1, 409276, Control_c, 0, 64, 77
1, 409290, Control_c, 0, 64, 92
1, 409305, Control_c, 0, 64, 104
1, 409320, Control_c, 0, 64, 115
1, 409335, Control_c, 0, 64, 127
1, 409380, Note_on_c, 0, 52, 50
1, 409383, Note_off_c, 0, 45, 56
1, 409431, Note_off_c, 0, 52, 60
1, 409443, Note_off_c, 0, 71, 64
1, 409486, Note_on_c, 0, 69, 50
1, 409550, Note_off_c, 0, 69, 60
1, 409558, Note_on_c, 0, 78, 63
1, 409570, Note_on_c, 0, 68, 48
1, 409604, Note_off_c, 0, 68, 53
1, 409830, Control_c, 0, 64, 104
1, 409845, Control_c, 0, 64, 81
1, 409852, Note_on_c, 0, 76, 57
1, 409860, Control_c, 0, 64, 65
1, 409875, Control_c, 0, 64, 0
1, 409890, Control_c, 0, 64, 33
1, 409905, Control_c, 0, 64, 62
1, 409920, Control_c, 0, 64, 69
1, 409935, Control_c, 0, 64, 81
1, 409949, Control_c, 0, 64, 97
1, 409964, Control_c, 0, 64, 127
1, 409979, Note_off_c, 0, 78, 35
1, 410003, Note_off_c, 0, 76, 61
1, 410210, Note_on_c, 0, 78, 59
1, 410227, Note_on_c, 0, 68, 45
1, 410233, Note_on_c, 0, 72, 56
1, 410425, Note_off_c, 0, 78, 60
1, 410426, Note_off_c, 0, 72, 56
1, 410441, Note_on_c, 0, 64, 52
1, 410488, Note_off_c, 0, 68, 61
1, 410541, Note_off_c, 0, 64, 62
1, 410617, Note_on_c, 0, 52, 54
1, 410778, Note_on_c, 0, 65, 48
1, 410782, Note_on_c, 0, 61, 58
1, 410789, Note_on_c, 0, 71, 60
1, 410814, Note_off_c, 0, 65, 61
1, 410870, Note_off_c, 0, 61, 61
1, 410946, Note_off_c, 0, 71, 62
1, 410954, Note_on_c, 0, 73, 70
1, 410955, Note_on_c, 0, 40, 62
1, 410965, Note_on_c, 0, 66, 66
1, 410965, Control_c, 0, 67, 112
1, 410967, Note_on_c, 0, 62, 50
1, 410980, Control_c, 0, 67, 89
1, 410992, Note_off_c, 0, 62, 58
1, 410995, Control_c, 0, 67, 68
1, 411001, Note_off_c, 0, 52, 37
1, 411004, Note_off_c, 0, 40, 62
1, 411010, Control_c, 0, 67, 51
1, 411023, Note_off_c, 0, 66, 59
1, 411024, Control_c, 0, 67, 35
1, 411039, Control_c, 0, 67, 22
1, 411054, Control_c, 0, 67, 8
1, 411069, Control_c, 0, 67, 0
1, 411093, Note_off_c, 0, 73, 53
1, 411113, Control_c, 0, 64, 95
1, 411128, Note_on_c, 0, 65, 51
1, 411128, Control_c, 0, 64, 71
1, 411137, Note_on_c, 0, 71, 66
1, 411147, Note_on_c, 0, 45, 58
1, 411151, Control_c, 0, 64, 0
1, 411156, Note_on_c, 0, 61, 54
1, 411162, Note_off_c, 0, 65, 57
1, 411223, Note_off_c, 0, 61, 63
1, 411224, Control_c, 0, 64, 63
1, 411240, Control_c, 0, 64, 71
1, 411255, Control_c, 0, 64, 79
1, 411270, Control_c, 0, 64, 89
1, 411271, Note_off_c, 0, 45, 56
1, 411285, Control_c, 0, 64, 96
1, 411299, Control_c, 0, 64, 110
1, 411303, Note_on_c, 0, 52, 59
1, 411314, Control_c, 0, 64, 127
1, 411332, Note_off_c, 0, 52, 62
1, 411346, Note_off_c, 0, 71, 63
1, 411386, Note_on_c, 0, 69, 62
1, 411463, Note_off_c, 0, 69, 63
1, 411463, Note_on_c, 0, 78, 70
1, 411473, Note_on_c, 0, 63, 62
1, 411516, Note_off_c, 0, 63, 55
1, 411640, Control_c, 0, 64, 87
1, 411655, Control_c, 0, 64, 66
1, 411670, Control_c, 0, 64, 0
1, 411681, Note_on_c, 0, 76, 63
1, 411700, Control_c, 0, 64, 51
1, 411714, Control_c, 0, 64, 67
1, 411729, Control_c, 0, 64, 79
1, 411739, Note_off_c, 0, 78, 61
1, 411744, Control_c, 0, 64, 97
1, 411759, Control_c, 0, 64, 127
1, 411792, Note_off_c, 0, 76, 64
1, 411883, Note_on_c, 0, 78, 69
1, 411902, Note_on_c, 0, 72, 66
1, 411914, Note_on_c, 0, 68, 57
1, 412051, Note_on_c, 0, 64, 53
1, 412081, Note_off_c, 0, 72, 61
1, 412096, Note_off_c, 0, 78, 58
1, 412155, Note_off_c, 0, 64, 62
1, 412218, Note_on_c, 0, 52, 62
1, 412278, Note_off_c, 0, 68, 28
1, 412385, Note_on_c, 0, 75, 69
1, 412387, Note_on_c, 0, 67, 64
1, 412420, Poly_aftertouch_c, 0, 71, 127
1, 412459, Note_off_c, 0, 67, 59
1, 412463, Poly_aftertouch_c, 0, 71, 0
1, 412533, Note_on_c, 0, 40, 60
1, 412548, Note_off_c, 0, 52, 53
1, 412599, Note_on_c, 0, 76, 73
1, 412605, Note_off_c, 0, 75, 53
1, 412613, Note_on_c, 0, 68, 53
1, 412625, Note_off_c, 0, 40, 61
1, 412645, Note_off_c, 0, 68, 62
1, 412662, Note_off_c, 0, 76, 65
1, 412856, Note_on_c, 0, 45, 64
1, 412894, Note_on_c, 0, 83, 79
1, 412900, Control_c, 0, 64, 94
1, 412912, Note_on_c, 0, 73, 59
1, 412912, Note_on_c, 0, 77, 57
1, 412915, Control_c, 0, 64, 74
1, 412930, Control_c, 0, 64, 49
1, 412945, Control_c, 0, 64, 0
1, 412966, Note_off_c, 0, 77, 61
1, 412975, Control_c, 0, 64, 62
1, 412989, Control_c, 0, 64, 72
1, 413004, Control_c, 0, 64, 84
1, 413019, Control_c, 0, 64, 101
1, 413034, Control_c, 0, 64, 127
1, 413072, Note_off_c, 0, 73, 48
1, 413113, Note_off_c, 0, 45, 61
1, 413124, Note_on_c, 0, 52, 55
1, 413159, Note_off_c, 0, 52, 62
1, 413220, Note_on_c, 0, 81, 82
1, 413228, Note_on_c, 0, 78, 65
1, 413246, Note_off_c, 0, 83, 66
1, 413260, Note_off_c, 0, 78, 63
1, 413284, Note_off_c, 0, 81, 66
1, 413324, Note_on_c, 0, 63, 52
1, 413368, Note_off_c, 0, 63, 61
1, 413456, Note_on_c, 0, 76, 66
1, 413520, Note_off_c, 0, 76, 61
1, 413618, Note_on_c, 0, 78, 69
1, 413631, Note_on_c, 0, 73, 62
1, 413700, Note_on_c, 0, 64, 69
1, 413729, Note_off_c, 0, 73, 58
1, 413752, Note_off_c, 0, 64, 63
1, 413825, Note_on_c, 0, 73, 71
1, 413827, Note_off_c, 0, 78, 62
1, 413834, Note_on_c, 0, 68, 58
1, 413855, Note_off_c, 0, 73, 67
1, 413865, Note_off_c, 0, 68, 66
1, 414043, Note_on_c, 0, 45, 51
1, 414047, Note_on_c, 0, 71, 60
1, 414050, Note_on_c, 0, 66, 56
1, 414057, Note_on_c, 0, 61, 31
1, 414079, Control_c, 0, 64, 99
1, 414094, Control_c, 0, 64, 77
1, 414108, Control_c, 0, 64, 55
1, 414123, Control_c, 0, 64, 0
1, 414190, Control_c, 0, 64, 44
1, 414205, Control_c, 0, 64, 66
1, 414220, Control_c, 0, 64, 75
1, 414235, Control_c, 0, 64, 86
1, 414250, Control_c, 0, 64, 98
1, 414257, Note_off_c, 0, 61, 42
1, 414265, Control_c, 0, 64, 109
1, 414272, Note_on_c, 0, 52, 50
1, 414280, Control_c, 0, 64, 127
1, 414290, Note_off_c, 0, 45, 53
1, 414349, Note_off_c, 0, 66, 60
1, 414349, Note_off_c, 0, 52, 61
1, 414364, Note_on_c, 0, 61, 53
1, 414364, Note_off_c, 0, 71, 62
1, 414368, Note_on_c, 0, 69, 60
1, 414418, Note_off_c, 0, 61, 58
1, 414432, Note_off_c, 0, 69, 62
1, 414536, Note_on_c, 0, 64, 49
1, 414576, Note_off_c, 0, 64, 55
1, 414686, Note_on_c, 0, 64, 53
1, 414706, Note_on_c, 0, 56, 36
1, 414883, Note_off_c, 0, 56, 43
1, 414931, Note_on_c, 0, 52, 45
1, 415031, Note_off_c, 0, 64, 60
1, 415053, Note_on_c, 0, 61, 51
1, 415054, Note_on_c, 0, 56, 29
1, 415111, Note_off_c, 0, 56, 51
1, 415137, Note_off_c, 0, 52, 24
1, 415173, Note_on_c, 0, 45, 47
1, 415193, Note_off_c, 0, 61, 36
1, 415241, Note_off_c, 0, 45, 59
1, 415547, Control_c, 0, 64, 122
1, 415559, Note_on_c, 0, 42, 41
1, 415562, Control_c, 0, 64, 93
1, 415577, Control_c, 0, 64, 71
1, 415580, Note_on_c, 0, 68, 61
1, 415592, Control_c, 0, 64, 27
1, 415606, Control_c, 0, 64, 0
1, 415615, Note_on_c, 0, 64, 34
1, 415619, Note_on_c, 0, 60, 29
1, 415643, Control_c, 0, 64, 12
1, 415658, Control_c, 0, 64, 58
1, 415673, Control_c, 0, 64, 66
1, 415687, Control_c, 0, 64, 72
1, 415702, Control_c, 0, 64, 78
1, 415717, Control_c, 0, 64, 83
1, 415732, Control_c, 0, 64, 87
1, 415746, Control_c, 0, 64, 91
1, 415761, Control_c, 0, 64, 96
1, 415763, Note_off_c, 0, 64, 29
1, 415776, Control_c, 0, 64, 104
1, 415786, Note_on_c, 0, 49, 45
1, 415791, Control_c, 0, 64, 116
1, 415792, Note_off_c, 0, 60, 33
1, 415806, Control_c, 0, 64, 127
1, 415836, Note_off_c, 0, 42, 37
1, 415845, Note_off_c, 0, 49, 54
1, 416060, Note_on_c, 0, 69, 55
1, 416069, Note_on_c, 0, 59, 46
1, 416081, Note_on_c, 0, 64, 41
1, 416085, Note_on_c, 0, 61, 33
1, 416087, Control_c, 0, 64, 109
1, 416102, Control_c, 0, 64, 93
1, 416108, Note_off_c, 0, 68, 36
1, 416117, Control_c, 0, 64, 80
1, 416131, Control_c, 0, 64, 67
1, 416146, Control_c, 0, 64, 38
1, 416161, Control_c, 0, 64, 0
1, 416191, Control_c, 0, 64, 26
1, 416205, Control_c, 0, 64, 46
1, 416220, Control_c, 0, 64, 59
1, 416235, Control_c, 0, 64, 65
1, 416250, Control_c, 0, 64, 69
1, 416266, Control_c, 0, 64, 76
1, 416281, Control_c, 0, 64, 85
1, 416294, Note_off_c, 0, 64, 44
1, 416296, Control_c, 0, 64, 91
1, 416310, Control_c, 0, 64, 94
1, 416325, Control_c, 0, 64, 99
1, 416340, Control_c, 0, 64, 106
1, 416354, Control_c, 0, 64, 116
1, 416358, Note_off_c, 0, 69, 33
1, 416369, Control_c, 0, 64, 127
1, 416522, Note_off_c, 0, 61, 40
1, 416569, Control_c, 0, 67, 12
1, 416584, Control_c, 0, 67, 22
1, 416599, Control_c, 0, 67, 42
1, 416614, Control_c, 0, 67, 69
1, 416629, Control_c, 0, 67, 97
1, 416643, Control_c, 0, 67, 126
1, 416658, Control_c, 0, 67, 127
1, 416808, Note_on_c, 0, 70, 51
1, 416820, Note_on_c, 0, 58, 38
1, 416821, Note_on_c, 0, 62, 30
1, 416833, Note_on_c, 0, 65, 41
1, 416835, Control_c, 0, 64, 105
1, 416850, Control_c, 0, 64, 89
1, 416862, Note_off_c, 0, 59, 34
1, 416865, Control_c, 0, 64, 74
1, 416880, Control_c, 0, 64, 57
1, 416895, Control_c, 0, 64, 0
1, 416954, Control_c, 0, 64, 38
1, 416969, Control_c, 0, 64, 53
1, 416984, Control_c, 0, 64, 62
1, 416999, Control_c, 0, 64, 65
1, 417014, Control_c, 0, 64, 70
1, 417028, Control_c, 0, 64, 76
1, 417043, Control_c, 0, 64, 82
1, 417059, Control_c, 0, 64, 87
1, 417074, Control_c, 0, 64, 92
1, 417088, Control_c, 0, 64, 96
1, 417103, Control_c, 0, 64, 101
1, 417118, Control_c, 0, 64, 107
1, 417140, Control_c, 0, 64, 115
1, 417155, Control_c, 0, 64, 127
1, 417280, Note_off_c, 0, 65, 42
1, 417336, Note_off_c, 0, 58, 32
1, 417624, Note_off_c, 0, 62, 32
1, 417694, Note_off_c, 0, 70, 37
1, 417840, Note_on_c, 0, 47, 36
1, 417881, Note_on_c, 0, 73, 50
1, 417898, Note_on_c, 0, 62, 38
1, 417902, Note_on_c, 0, 69, 39
1, 417904, Control_c, 0, 64, 99
1, 417919, Control_c, 0, 64, 82
1, 417933, Control_c, 0, 64, 68
1, 417948, Control_c, 0, 64, 47
1, 417963, Control_c, 0, 64, 45
1, 417979, Control_c, 0, 64, 59
1, 417994, Control_c, 0, 64, 64
1, 418008, Control_c, 0, 64, 67
1, 418023, Control_c, 0, 64, 73
1, 418038, Control_c, 0, 64, 83
1, 418053, Control_c, 0, 64, 92
1, 418068, Control_c, 0, 64, 99
1, 418082, Control_c, 0, 64, 107
1, 418097, Control_c, 0, 64, 120
1, 418112, Control_c, 0, 64, 127
1, 418114, Note_off_c, 0, 73, 53
1, 418214, Note_on_c, 0, 54, 42
1, 418239, Note_off_c, 0, 47, 40
1, 418252, Note_off_c, 0, 62, 40
1, 418290, Note_on_c, 0, 71, 47
1, 418292, Note_on_c, 0, 66, 51
1, 418292, Note_off_c, 0, 54, 54
1, 418314, Note_off_c, 0, 69, 37
1, 418324, Note_off_c, 0, 66, 66
1, 418337, Note_off_c, 0, 71, 63
1, 418470, Note_on_c, 0, 81, 75
1, 418509, Note_on_c, 0, 73, 43
1, 418611, Note_off_c, 0, 73, 52
1, 418677, Note_off_c, 0, 81, 55
1, 418722, Note_on_c, 0, 66, 54
1, 419026, Note_on_c, 0, 81, 68
1, 419039, Note_off_c, 0, 66, 50
1, 419044, Note_on_c, 0, 78, 48
1, 419051, Note_on_c, 0, 73, 44
1, 419059, Note_on_c, 0, 74, 40
1, 419186, Note_off_c, 0, 74, 52
1, 419215, Note_on_c, 0, 66, 59
1, 419217, Note_off_c, 0, 81, 57
1, 419256, Note_off_c, 0, 78, 41
1, 419262, Note_off_c, 0, 66, 65
1, 419269, Note_off_c, 0, 73, 43
1, 419393, Note_on_c, 0, 54, 64
1, 419560, Note_on_c, 0, 73, 65
1, 419578, Note_on_c, 0, 68, 51
1, 419581, Note_on_c, 0, 64, 48
1, 419606, Note_off_c, 0, 64, 57
1, 419615, Note_off_c, 0, 68, 62
1, 419640, Note_off_c, 0, 73, 60
1, 419724, Note_on_c, 0, 42, 55
1, 419733, Note_on_c, 0, 74, 64
1, 419738, Note_on_c, 0, 68, 50
1, 419768, Note_off_c, 0, 42, 63
1, 419777, Note_off_c, 0, 54, 52
1, 419778, Note_off_c, 0, 68, 60
1, 419821, Note_off_c, 0, 74, 57
1, 419891, Control_c, 0, 64, 105
1, 419905, Control_c, 0, 64, 83
1, 419914, Note_on_c, 0, 47, 58
1, 419914, Note_on_c, 0, 73, 66
1, 419920, Control_c, 0, 64, 66
1, 419923, Note_on_c, 0, 64, 52
1, 419935, Control_c, 0, 64, 0
1, 419941, Note_on_c, 0, 68, 37
1, 419965, Control_c, 0, 64, 58
1, 419980, Control_c, 0, 64, 68
1, 419995, Control_c, 0, 64, 76
1, 420003, Note_off_c, 0, 64, 59
1, 420010, Control_c, 0, 64, 87
1, 420024, Control_c, 0, 64, 97
1, 420024, Control_c, 0, 67, 122
1, 420039, Control_c, 0, 64, 108
1, 420039, Control_c, 0, 67, 105
1, 420054, Control_c, 0, 64, 127
1, 420054, Control_c, 0, 67, 86
1, 420067, Note_off_c, 0, 47, 53
1, 420069, Control_c, 0, 67, 64
1, 420073, Note_on_c, 0, 54, 67
1, 420084, Control_c, 0, 67, 48
1, 420099, Control_c, 0, 67, 33
1, 420101, Note_off_c, 0, 73, 59
1, 420111, Note_off_c, 0, 54, 61
1, 420113, Control_c, 0, 67, 21
1, 420135, Control_c, 0, 67, 11
1, 420143, Note_off_c, 0, 68, 17
1, 420150, Control_c, 0, 67, 0
1, 420164, Note_on_c, 0, 71, 65
1, 420179, Note_on_c, 0, 62, 23
1, 420196, Note_off_c, 0, 71, 66
1, 420215, Note_off_c, 0, 62, 41
1, 420281, Note_on_c, 0, 81, 82
1, 420284, Note_on_c, 0, 78, 67
1, 420310, Note_on_c, 0, 73, 48
1, 420400, Note_off_c, 0, 73, 51
1, 420403, Note_off_c, 0, 78, 47
1, 420432, Note_off_c, 0, 81, 60
1, 420445, Note_on_c, 0, 66, 69
1, 420625, Note_on_c, 0, 81, 84
1, 420639, Note_on_c, 0, 74, 62
1, 420645, Note_on_c, 0, 73, 59
1, 420648, Note_off_c, 0, 66, 57
1, 420653, Note_on_c, 0, 78, 51
1, 420745, Note_off_c, 0, 78, 43
1, 420758, Note_off_c, 0, 73, 60
1, 420763, Note_off_c, 0, 74, 57
1, 420798, Note_on_c, 0, 66, 65
1, 420832, Note_off_c, 0, 66, 67
1, 420965, Note_on_c, 0, 54, 73
1, 421030, Note_off_c, 0, 81, 59
1, 421113, Note_on_c, 0, 80, 69
1, 421116, Note_on_c, 0, 76, 60
1, 421123, Note_on_c, 0, 71, 57
1, 421148, Note_off_c, 0, 76, 64
1, 421164, Note_off_c, 0, 71, 62
1, 421188, Note_off_c, 0, 80, 63
1, 421228, Note_off_c, 0, 54, 61
1, 421289, Note_on_c, 0, 78, 75
1, 421296, Note_on_c, 0, 47, 59
1, 421303, Note_on_c, 0, 69, 64
1, 421363, Note_off_c, 0, 69, 53
1, 421433, Control_c, 0, 64, 102
1, 421434, Note_off_c, 0, 78, 61
1, 421448, Control_c, 0, 64, 77
1, 421463, Control_c, 0, 64, 0
1, 421464, Note_on_c, 0, 40, 60
1, 421465, Note_on_c, 0, 80, 69
1, 421471, Note_on_c, 0, 71, 57
1, 421473, Note_on_c, 0, 76, 44
1, 421505, Note_off_c, 0, 47, 55
1, 421522, Control_c, 0, 64, 44
1, 421537, Control_c, 0, 64, 66
1, 421551, Note_off_c, 0, 71, 57
1, 421551, Control_c, 0, 64, 75
1, 421566, Control_c, 0, 64, 85
1, 421581, Control_c, 0, 64, 93
1, 421587, Note_off_c, 0, 76, 49
1, 421596, Control_c, 0, 64, 99
1, 421610, Control_c, 0, 64, 110
1, 421633, Control_c, 0, 64, 127
1, 421668, Note_on_c, 0, 78, 66
1, 421685, Note_on_c, 0, 47, 50
1, 421690, Note_off_c, 0, 80, 34
1, 421691, Note_on_c, 0, 69, 46
1, 421711, Note_off_c, 0, 78, 55
1, 421716, Note_off_c, 0, 40, 35
1, 421724, Note_off_c, 0, 69, 60
1, 421761, Poly_aftertouch_c, 0, 74, 0
1, 421874, Note_off_c, 0, 47, 59
1, 421875, Note_on_c, 0, 54, 51
1, 421899, Note_on_c, 0, 69, 64
1, 421915, Note_on_c, 0, 62, 44
1, 421945, Note_off_c, 0, 54, 59
1, 422108, Note_off_c, 0, 62, 32
1, 422123, Control_c, 0, 64, 104
1, 422129, Note_on_c, 0, 61, 53
1, 422138, Control_c, 0, 64, 85
1, 422153, Control_c, 0, 64, 70
1, 422168, Control_c, 0, 64, 0
1, 422226, Control_c, 0, 64, 33
1, 422241, Control_c, 0, 64, 53
1, 422256, Control_c, 0, 64, 62
1, 422271, Control_c, 0, 64, 66
1, 422286, Control_c, 0, 64, 69
1, 422300, Control_c, 0, 64, 72
1, 422315, Control_c, 0, 64, 77
1, 422330, Control_c, 0, 64, 79
1, 422345, Control_c, 0, 64, 81
1, 422360, Control_c, 0, 64, 84
1, 422382, Control_c, 0, 64, 88
1, 422397, Control_c, 0, 64, 93
1, 422412, Control_c, 0, 64, 97
1, 422426, Control_c, 0, 64, 100
1, 422427, Note_on_c, 0, 71, 54
1, 422441, Control_c, 0, 64, 101
1, 422445, Note_on_c, 0, 64, 36
1, 422446, Note_on_c, 0, 68, 42
1, 422461, Note_off_c, 0, 69, 48
1, 422486, Control_c, 0, 64, 100
1, 422500, Control_c, 0, 64, 92
1, 422515, Control_c, 0, 64, 81
1, 422530, Control_c, 0, 64, 67
1, 422530, Control_c, 0, 67, 12
1, 422545, Control_c, 0, 64, 0
1, 422545, Control_c, 0, 67, 19
1, 422560, Control_c, 0, 67, 29
1, 422574, Control_c, 0, 67, 45
1, 422589, Control_c, 0, 64, 51
1, 422589, Control_c, 0, 67, 69
1, 422604, Control_c, 0, 64, 64
1, 422604, Control_c, 0, 67, 93
1, 422619, Control_c, 0, 64, 69
1, 422619, Control_c, 0, 67, 119
1, 422633, Control_c, 0, 64, 74
1, 422633, Control_c, 0, 67, 127
1, 422649, Control_c, 0, 64, 80
1, 422664, Control_c, 0, 64, 84
1, 422679, Control_c, 0, 64, 86
1, 422694, Control_c, 0, 64, 88
1, 422709, Control_c, 0, 64, 89
1, 422716, Note_on_c, 0, 62, 45
1, 422723, Control_c, 0, 64, 90
1, 422731, Note_off_c, 0, 61, 53
1, 422738, Control_c, 0, 64, 92
1, 422753, Control_c, 0, 64, 93
1, 422768, Control_c, 0, 64, 96
1, 422771, Note_off_c, 0, 62, 59
1, 422783, Control_c, 0, 64, 99
1, 422798, Control_c, 0, 64, 102
1, 422812, Control_c, 0, 64, 105
1, 422827, Control_c, 0, 64, 107
1, 422842, Control_c, 0, 64, 109
1, 422857, Control_c, 0, 64, 113
1, 422871, Control_c, 0, 64, 127
1, 422903, Note_off_c, 0, 68, 41
1, 423064, Control_c, 0, 64, 103
1, 423079, Control_c, 0, 64, 85
1, 423094, Control_c, 0, 64, 69
1, 423109, Control_c, 0, 64, 49
1, 423131, Control_c, 0, 64, 53
1, 423132, Note_on_c, 0, 45, 47
1, 423146, Control_c, 0, 64, 64
1, 423151, Note_off_c, 0, 64, 43
1, 423161, Control_c, 0, 64, 71
1, 423175, Control_c, 0, 64, 85
1, 423190, Control_c, 0, 64, 103
1, 423205, Control_c, 0, 64, 127
1, 423212, Note_off_c, 0, 71, 61
1, 423232, Note_off_c, 0, 45, 60
1, 423695, Note_on_c, 0, 59, 24
1, 423715, Note_on_c, 0, 63, 43
1, 423728, Note_on_c, 0, 54, 29
1, 423746, Note_on_c, 0, 92, 56
1, 423909, Note_on_c, 0, 90, 58
1, 423909, Note_off_c, 0, 59, 48
1, 423910, Note_off_c, 0, 92, 55
1, 424007, Note_off_c, 0, 54, 42
1, 424009, Note_off_c, 0, 90, 59
1, 424019, Note_off_c, 0, 63, 50
1, 424029, Note_on_c, 0, 85, 58
1, 424114, Note_off_c, 0, 85, 61
1, 424133, Note_on_c, 0, 64, 52
1, 424143, Note_on_c, 0, 80, 57
1, 424146, Note_on_c, 0, 61, 43
1, 424148, Note_on_c, 0, 56, 31
1, 424178, Note_off_c, 0, 64, 59
1, 424187, Note_off_c, 0, 56, 50
1, 424204, Note_off_c, 0, 61, 49
1, 424254, Note_off_c, 0, 80, 61
1, 424265, Control_c, 0, 64, 97
1, 424267, Note_on_c, 0, 83, 57
1, 424280, Control_c, 0, 64, 80
1, 424282, Note_on_c, 0, 64, 51
1, 424289, Note_on_c, 0, 56, 50
1, 424293, Note_on_c, 0, 61, 37
1, 424294, Control_c, 0, 64, 68
1, 424309, Control_c, 0, 64, 64
1, 424324, Control_c, 0, 64, 66
1, 424339, Control_c, 0, 64, 72
1, 424354, Control_c, 0, 64, 81
1, 424355, Note_off_c, 0, 64, 62
1, 424368, Control_c, 0, 64, 97
1, 424380, Note_off_c, 0, 83, 65
1, 424383, Control_c, 0, 64, 111
1, 424388, Note_off_c, 0, 61, 53
1, 424395, Note_on_c, 0, 85, 65
1, 424398, Control_c, 0, 64, 127
1, 424483, Note_off_c, 0, 56, 37
1, 424505, Note_on_c, 0, 66, 52
1, 424508, Note_on_c, 0, 59, 50
1, 424508, Note_off_c, 0, 85, 57
1, 424515, Note_on_c, 0, 80, 57
1, 424522, Note_on_c, 0, 63, 37
1, 424531, Note_off_c, 0, 66, 57
1, 424551, Note_off_c, 0, 59, 61
1, 424556, Note_off_c, 0, 63, 51
1, 424594, Note_off_c, 0, 80, 62
1, 424600, Note_on_c, 0, 78, 63
1, 424639, Note_off_c, 0, 78, 66
1, 424747, Control_c, 0, 64, 113
1, 424749, Note_on_c, 0, 52, 56
1, 424762, Control_c, 0, 64, 84
1, 424769, Note_on_c, 0, 73, 61
1, 424777, Control_c, 0, 64, 66
1, 424792, Note_on_c, 0, 68, 40
1, 424792, Control_c, 0, 64, 0
1, 424810, Note_on_c, 0, 64, 14
1, 424822, Control_c, 0, 64, 56
1, 424836, Control_c, 0, 64, 67
1, 424851, Control_c, 0, 64, 75
1, 424855, Note_off_c, 0, 64, 47
1, 424866, Control_c, 0, 64, 89
1, 424881, Control_c, 0, 64, 99
1, 424894, Note_off_c, 0, 68, 58
1, 424895, Control_c, 0, 64, 107
1, 424901, Note_off_c, 0, 73, 65
1, 424910, Control_c, 0, 64, 120
1, 424916, Note_off_c, 0, 52, 61
1, 424922, Note_on_c, 0, 45, 64
1, 424925, Control_c, 0, 64, 127
1, 424947, Note_off_c, 0, 45, 61
1, 425116, Note_on_c, 0, 63, 56
1, 425117, Note_on_c, 0, 59, 39
1, 425119, Control_c, 0, 64, 112
1, 425119, Note_on_c, 0, 54, 55
1, 425129, Note_on_c, 0, 92, 58
1, 425134, Control_c, 0, 64, 88
1, 425149, Control_c, 0, 64, 73
1, 425164, Control_c, 0, 64, 64
1, 425178, Control_c, 0, 64, 65
1, 425193, Control_c, 0, 64, 69
1, 425208, Control_c, 0, 64, 76
1, 425223, Control_c, 0, 64, 90
1, 425237, Note_on_c, 0, 90, 67
1, 425238, Control_c, 0, 64, 107
1, 425239, Note_off_c, 0, 92, 57
1, 425244, Note_off_c, 0, 59, 61
1, 425252, Control_c, 0, 64, 127
1, 425267, Note_off_c, 0, 54, 58
1, 425290, Note_off_c, 0, 63, 60
1, 425309, Note_off_c, 0, 90, 61
1, 425316, Note_on_c, 0, 85, 65
1, 425381, Note_on_c, 0, 64, 56
1, 425382, Note_off_c, 0, 85, 62
1, 425385, Note_on_c, 0, 61, 51
1, 425391, Note_on_c, 0, 56, 43
1, 425405, Note_on_c, 0, 80, 56
1, 425412, Note_off_c, 0, 64, 66
1, 425420, Note_off_c, 0, 56, 55
1, 425423, Control_c, 0, 64, 110
1, 425431, Note_off_c, 0, 61, 51
1, 425438, Control_c, 0, 64, 87
1, 425439, Note_off_c, 0, 80, 59
1, 425452, Control_c, 0, 64, 70
1, 425467, Control_c, 0, 64, 51
1, 425481, Note_on_c, 0, 64, 63
1, 425482, Control_c, 0, 64, 49
1, 425491, Note_on_c, 0, 83, 63
1, 425495, Note_on_c, 0, 56, 61
1, 425497, Control_c, 0, 64, 62
1, 425512, Control_c, 0, 64, 69
1, 425526, Control_c, 0, 64, 80
1, 425535, Note_off_c, 0, 64, 61
1, 425541, Control_c, 0, 64, 99
1, 425556, Control_c, 0, 64, 127
1, 425578, Note_off_c, 0, 83, 68
1, 425583, Note_on_c, 0, 85, 68
1, 425671, Note_on_c, 0, 66, 64
1, 425676, Note_on_c, 0, 59, 60
1, 425679, Note_on_c, 0, 80, 64
1, 425680, Note_on_c, 0, 63, 53
1, 425693, Note_off_c, 0, 66, 66
1, 425697, Note_off_c, 0, 56, 0
1, 425709, Note_off_c, 0, 63, 65
1, 425717, Note_off_c, 0, 85, 43
1, 425727, Note_off_c, 0, 59, 60
1, 425734, Poly_aftertouch_c, 0, 56, 127
1, 425747, Note_on_c, 0, 78, 70
1, 425752, Note_off_c, 0, 80, 62
1, 425766, Poly_aftertouch_c, 0, 56, 0
1, 425773, Note_off_c, 0, 78, 68
1, 425867, Control_c, 0, 64, 126
1, 425882, Control_c, 0, 64, 90
1, 425885, Note_on_c, 0, 52, 62
1, 425897, Note_on_c, 0, 73, 63
1, 425897, Control_c, 0, 64, 70
1, 425912, Control_c, 0, 64, 0
1, 425915, Note_on_c, 0, 64, 40
1, 425918, Note_on_c, 0, 68, 51
1, 425941, Note_off_c, 0, 64, 56
1, 425942, Control_c, 0, 64, 33
1, 425957, Control_c, 0, 64, 63
1, 425971, Note_off_c, 0, 68, 58
1, 425972, Control_c, 0, 64, 69
1, 425986, Control_c, 0, 64, 77
1, 426001, Control_c, 0, 64, 89
1, 426007, Note_off_c, 0, 73, 63
1, 426016, Control_c, 0, 64, 99
1, 426031, Control_c, 0, 64, 110
1, 426041, Note_on_c, 0, 45, 65
1, 426046, Control_c, 0, 64, 127
1, 426067, Note_off_c, 0, 52, 60
1, 426082, Note_off_c, 0, 45, 63
1, 426404, Note_on_c, 0, 91, 54
1, 426405, Note_on_c, 0, 59, 44
1, 426423, Note_on_c, 0, 67, 20
1, 426427, Note_on_c, 0, 64, 45
1, 426438, Control_c, 0, 64, 102
1, 426453, Control_c, 0, 64, 85
1, 426467, Control_c, 0, 64, 68
1, 426482, Control_c, 0, 64, 58
1, 426497, Control_c, 0, 64, 52
1, 426512, Control_c, 0, 64, 58
1, 426526, Control_c, 0, 64, 63
1, 426529, Note_off_c, 0, 91, 56
1, 426541, Note_on_c, 0, 90, 56
1, 426541, Control_c, 0, 64, 67
1, 426556, Control_c, 0, 64, 75
1, 426562, Note_off_c, 0, 59, 57
1, 426571, Control_c, 0, 64, 85
1, 426586, Control_c, 0, 64, 95
1, 426601, Control_c, 0, 64, 104
1, 426614, Note_off_c, 0, 64, 57
1, 426615, Control_c, 0, 64, 112
1, 426624, Note_off_c, 0, 67, 42
1, 426630, Control_c, 0, 64, 127
1, 426640, Note_on_c, 0, 88, 63
1, 426694, Note_off_c, 0, 90, 40
1, 426696, Note_off_c, 0, 88, 64
1, 426711, Note_on_c, 0, 69, 57
1, 426725, Note_on_c, 0, 83, 63
1, 426726, Note_on_c, 0, 61, 39
1, 426740, Note_off_c, 0, 69, 63
1, 426756, Note_on_c, 0, 66, 6
1, 426756, Note_off_c, 0, 61, 54
1, 426764, Control_c, 0, 64, 117
1, 426779, Control_c, 0, 64, 92
1, 426794, Control_c, 0, 64, 76
1, 426806, Note_off_c, 0, 83, 61
1, 426809, Control_c, 0, 64, 67
1, 426815, Note_on_c, 0, 85, 58
1, 426817, Note_on_c, 0, 69, 61
1, 426824, Control_c, 0, 64, 67
1, 426839, Control_c, 0, 64, 71
1, 426839, Note_on_c, 0, 61, 51
1, 426854, Control_c, 0, 64, 81
1, 426876, Control_c, 0, 64, 95
1, 426879, Note_off_c, 0, 61, 63
1, 426891, Control_c, 0, 64, 119
1, 426894, Note_off_c, 0, 69, 47
1, 426903, Note_off_c, 0, 85, 64
1, 426905, Control_c, 0, 64, 127
1, 426906, Note_off_c, 0, 66, 48
1, 426911, Note_on_c, 0, 88, 66
1, 427008, Note_on_c, 0, 83, 66
1, 427015, Note_on_c, 0, 62, 53
1, 427024, Note_off_c, 0, 88, 55
1, 427025, Note_on_c, 0, 71, 24
1, 427038, Note_on_c, 0, 67, 16
1, 427053, Note_off_c, 0, 62, 61
1, 427060, Note_off_c, 0, 71, 47
1, 427071, Note_on_c, 0, 78, 73
1, 427074, Note_off_c, 0, 83, 67
1, 427080, Note_off_c, 0, 67, 53
1, 427096, Note_off_c, 0, 78, 69
1, 427142, Control_c, 0, 67, 121
1, 427157, Control_c, 0, 67, 111
1, 427172, Control_c, 0, 67, 100
1, 427187, Control_c, 0, 67, 85
1, 427198, Note_on_c, 0, 76, 74
1, 427202, Control_c, 0, 67, 67
1, 427212, Note_on_c, 0, 52, 58
1, 427216, Control_c, 0, 67, 50
1, 427222, Note_on_c, 0, 67, 38
1, 427231, Control_c, 0, 67, 33
1, 427246, Control_c, 0, 67, 16
1, 427252, Note_off_c, 0, 67, 54
1, 427254, Note_off_c, 0, 76, 64
1, 427261, Control_c, 0, 67, 0
1, 427351, Note_on_c, 0, 45, 74
1, 427374, Note_off_c, 0, 52, 62
1, 427385, Note_off_c, 0, 45, 65
1, 427404, Note_on_c, 0, 90, 15
1, 427465, Note_off_c, 0, 90, 49
1, 427514, Control_c, 0, 64, 96
1, 427522, Note_on_c, 0, 95, 73
1, 427528, Control_c, 0, 64, 76
1, 427540, Note_on_c, 0, 67, 62
1, 427541, Note_on_c, 0, 64, 47
1, 427542, Note_on_c, 0, 91, 51
1, 427543, Control_c, 0, 64, 62
1, 427547, Note_on_c, 0, 59, 37
1, 427558, Control_c, 0, 64, 56
1, 427572, Control_c, 0, 64, 64
1, 427587, Control_c, 0, 64, 71
1, 427602, Control_c, 0, 64, 82
1, 427625, Control_c, 0, 64, 99
1, 427630, Note_on_c, 0, 90, 73
1, 427638, Note_off_c, 0, 64, 60
1, 427640, Control_c, 0, 64, 120
1, 427654, Note_off_c, 0, 59, 60
1, 427654, Control_c, 0, 64, 127
1, 427657, Note_off_c, 0, 95, 51
1, 427661, Note_off_c, 0, 67, 55
1, 427674, Note_off_c, 0, 91, 61
1, 427709, Note_on_c, 0, 88, 72
1, 427724, Note_off_c, 0, 90, 58
1, 427767, Note_off_c, 0, 88, 65
1, 427785, Note_on_c, 0, 69, 71
1, 427790, Note_on_c, 0, 83, 67
1, 427797, Note_on_c, 0, 61, 55
1, 427798, Note_on_c, 0, 66, 65
1, 427817, Note_off_c, 0, 69, 62
1, 427823, Note_off_c, 0, 61, 62
1, 427826, Note_off_c, 0, 66, 67
1, 427847, Control_c, 0, 64, 99
1, 427862, Control_c, 0, 64, 74
1, 427877, Control_c, 0, 64, 54
1, 427878, Note_off_c, 0, 83, 65
1, 427884, Note_on_c, 0, 85, 70
1, 427891, Control_c, 0, 64, 0
1, 427894, Note_on_c, 0, 61, 65
1, 427905, Note_on_c, 0, 66, 59
1, 427905, Note_on_c, 0, 69, 62
1, 427906, Control_c, 0, 64, 40
1, 427921, Control_c, 0, 64, 64
1, 427936, Control_c, 0, 64, 75
1, 427951, Control_c, 0, 64, 98
1, 427956, Note_off_c, 0, 61, 62
1, 427958, Note_off_c, 0, 66, 58
1, 427966, Control_c, 0, 64, 127
1, 427978, Note_off_c, 0, 69, 56
1, 427990, Note_off_c, 0, 85, 65
1, 428001, Note_on_c, 0, 90, 71
1, 428005, Note_on_c, 0, 88, 71
1, 428105, Note_on_c, 0, 62, 61
1, 428112, Note_on_c, 0, 83, 73
1, 428117, Note_on_c, 0, 67, 39
1, 428136, Note_off_c, 0, 88, 63
1, 428147, Note_off_c, 0, 67, 52
1, 428151, Note_off_c, 0, 62, 61
1, 428151, Note_off_c, 0, 90, 54
1, 428163, Poly_aftertouch_c, 0, 71, 0
1, 428194, Poly_aftertouch_c, 0, 71, 0
1, 428203, Note_off_c, 0, 83, 67
1, 428218, Note_on_c, 0, 78, 78
1, 428246, Note_off_c, 0, 78, 65
1, 428407, Note_on_c, 0, 52, 67
1, 428425, Note_on_c, 0, 76, 67
1, 428427, Note_on_c, 0, 71, 60
1, 428440, Note_off_c, 0, 52, 64
1, 428445, Note_on_c, 0, 67, 57
1, 428464, Note_on_c, 0, 74, 45
1, 428610, Control_c, 0, 64, 105
1, 428625, Control_c, 0, 64, 80
1, 428640, Control_c, 0, 64, 57
1, 428655, Control_c, 0, 64, 0
1, 428661, Note_on_c, 0, 38, 73
1, 428684, Control_c, 0, 64, 18
1, 428699, Control_c, 0, 64, 65
1, 428714, Control_c, 0, 64, 75
1, 428723, Note_off_c, 0, 38, 64
1, 428723, Note_off_c, 0, 71, 63
1, 428729, Control_c, 0, 64, 88
1, 428744, Control_c, 0, 64, 103
1, 428745, Note_off_c, 0, 76, 61
1, 428759, Control_c, 0, 64, 127
1, 428762, Note_off_c, 0, 74, 38
1, 428771, Note_off_c, 0, 67, 60
1, 428972, Note_on_c, 0, 78, 79
1, 428980, Note_on_c, 0, 74, 68
1, 428981, Note_on_c, 0, 73, 73
1, 428986, Note_on_c, 0, 69, 68
1, 429075, Note_off_c, 0, 74, 50
1, 429115, Note_off_c, 0, 69, 59
1, 429131, Note_on_c, 0, 71, 69
1, 429158, Note_off_c, 0, 73, 62
1, 429164, Note_off_c, 0, 78, 60
1, 429215, Note_off_c, 0, 71, 64
1, 429231, Note_on_c, 0, 66, 68
1, 429292, Note_on_c, 0, 61, 60
1, 429303, Note_on_c, 0, 80, 73
1, 429311, Note_on_c, 0, 76, 51
1, 429319, Note_off_c, 0, 66, 64
1, 429329, Note_off_c, 0, 80, 67
1, 429332, Note_off_c, 0, 76, 63
1, 429344, Note_on_c, 0, 71, 15
1, 429346, Note_off_c, 0, 61, 60
1, 429381, Note_off_c, 0, 71, 0
1, 429381, Note_on_c, 0, 71, 9
1, 429382, Note_on_c, 0, 80, 79
1, 429387, Note_on_c, 0, 64, 75
1, 429480, Note_on_c, 0, 61, 69
1, 429483, Note_off_c, 0, 64, 47
1, 429568, Note_on_c, 0, 81, 93
1, 429578, Note_off_c, 0, 71, 41
1, 429580, Note_off_c, 0, 80, 63
1, 429581, Note_on_c, 0, 56, 69
1, 429590, Poly_aftertouch_c, 0, 78, 0
1, 429611, Poly_aftertouch_c, 0, 78, 0
1, 429611, Note_off_c, 0, 81, 68
1, 429613, Note_off_c, 0, 61, 61
1, 429676, Note_on_c, 0, 54, 64
1, 429683, Note_off_c, 0, 56, 63
1, 429729, Note_off_c, 0, 54, 63
1, 429754, Note_on_c, 0, 85, 15
1, 429804, Note_off_c, 0, 85, 36
1, 429830, Note_on_c, 0, 88, 89
1, 429838, Note_on_c, 0, 45, 79
1, 429844, Note_on_c, 0, 80, 75
1, 429851, Note_on_c, 0, 85, 58
1, 429886, Note_off_c, 0, 45, 62
1, 429951, Note_off_c, 0, 88, 60
1, 429952, Note_off_c, 0, 80, 64
1, 429957, Note_off_c, 0, 85, 65
1, 429975, Control_c, 0, 64, 115
1, 429990, Control_c, 0, 64, 82
1, 430005, Control_c, 0, 64, 60
1, 430011, Note_on_c, 0, 38, 81
1, 430020, Control_c, 0, 64, 0
1, 430035, Control_c, 0, 64, 59
1, 430047, Note_off_c, 0, 38, 66
1, 430049, Control_c, 0, 64, 72
1, 430064, Control_c, 0, 64, 97
1, 430079, Control_c, 0, 64, 127
1, 430202, Note_on_c, 0, 81, 93
1, 430210, Note_on_c, 0, 69, 79
1, 430212, Note_on_c, 0, 74, 57
1, 430224, Note_on_c, 0, 78, 60
1, 430225, Note_on_c, 0, 73, 79
1, 430234, Note_off_c, 0, 74, 61
1, 430251, Note_off_c, 0, 78, 66
1, 430275, Note_off_c, 0, 69, 60
1, 430327, Note_off_c, 0, 81, 54
1, 430327, Note_on_c, 0, 71, 67
1, 430328, Note_off_c, 0, 73, 62
1, 430378, Note_on_c, 0, 66, 68
1, 430386, Note_off_c, 0, 71, 65
1, 430452, Note_on_c, 0, 61, 72
1, 430464, Note_on_c, 0, 83, 86
1, 430471, Note_on_c, 0, 71, 80
1, 430473, Note_off_c, 0, 66, 64
1, 430497, Note_off_c, 0, 71, 68
1, 430508, Note_off_c, 0, 61, 60
1, 430508, Note_off_c, 0, 83, 66
1, 430555, Note_on_c, 0, 64, 79
1, 430555, Note_on_c, 0, 71, 80
1, 430555, Note_on_c, 0, 83, 82
1, 430593, Note_off_c, 0, 71, 64
1, 430615, Note_off_c, 0, 83, 66
1, 430642, Note_off_c, 0, 64, 50
1, 430669, Note_on_c, 0, 61, 71
1, 430777, Note_on_c, 0, 73, 79
1, 430777, Note_on_c, 0, 85, 91
1, 430801, Note_off_c, 0, 73, 69
1, 430804, Note_on_c, 0, 56, 69
1, 430821, Note_off_c, 0, 85, 65
1, 430846, Note_off_c, 0, 61, 61
1, 430912, Note_on_c, 0, 54, 66
1, 430920, Note_off_c, 0, 56, 63
1, 430973, Note_off_c, 0, 54, 63
1, 431059, Note_on_c, 0, 45, 83
1, 431066, Note_on_c, 0, 93, 93
1, 431069, Note_on_c, 0, 81, 94
1, 431073, Note_on_c, 0, 85, 78
1, 431075, Note_on_c, 0, 90, 74
1, 431098, Note_off_c, 0, 45, 62
1, 431331, Control_c, 0, 64, 100
1, 431346, Control_c, 0, 64, 67
1, 431352, Note_on_c, 0, 35, 82
1, 431354, Note_on_c, 0, 47, 94
1, 431368, Control_c, 0, 64, 0
1, 431397, Control_c, 0, 64, 51
1, 431411, Note_off_c, 0, 35, 62
1, 431412, Control_c, 0, 64, 74
1, 431427, Control_c, 0, 64, 102
1, 431443, Control_c, 0, 64, 127
1, 431458, Note_off_c, 0, 47, 61
1, 431488, Note_off_c, 0, 90, 30
1, 431516, Note_off_c, 0, 85, 60
1, 431672, Note_off_c, 0, 81, 55
1, 431722, Note_off_c, 0, 93, 57
1, 431787, Note_on_c, 0, 66, 88
1, 431790, Note_on_c, 0, 62, 69
1, 431791, Note_on_c, 0, 93, 92
1, 431793, Note_on_c, 0, 57, 71
1, 431796, Note_on_c, 0, 83, 88
1, 431797, Note_on_c, 0, 86, 82
1, 431800, Note_on_c, 0, 90, 82
1, 431911, Note_off_c, 0, 62, 61
1, 431927, Note_off_c, 0, 86, 64
1, 431930, Note_off_c, 0, 90, 64
1, 431996, Note_off_c, 0, 66, 53
1, 432056, Note_off_c, 0, 83, 65
1, 432075, Note_off_c, 0, 57, 55
1, 432086, Note_off_c, 0, 93, 60
1, 432100, Note_on_c, 0, 68, 88
1, 432112, Note_on_c, 0, 64, 68
1, 432130, Note_on_c, 0, 59, 62
1, 432142, Note_off_c, 0, 64, 67
1, 432156, Note_off_c, 0, 68, 66
1, 432200, Note_off_c, 0, 59, 60
1, 432249, Note_on_c, 0, 95, 88
1, 432252, Note_on_c, 0, 85, 94
1, 432312, Note_off_c, 0, 85, 62
1, 432315, Note_off_c, 0, 95, 63
1, 432354, Control_c, 0, 64, 89
1, 432369, Control_c, 0, 64, 65
1, 432373, Note_on_c, 0, 45, 72
1, 432375, Note_on_c, 0, 85, 88
1, 432375, Note_on_c, 0, 95, 86
1, 432383, Control_c, 0, 64, 0
1, 432391, Note_on_c, 0, 47, 65
1, 432413, Control_c, 0, 64, 62
1, 432417, Note_off_c, 0, 45, 63
1, 432422, Note_off_c, 0, 47, 54
1, 432428, Control_c, 0, 64, 78
1, 432436, Note_off_c, 0, 95, 63
1, 432438, Note_off_c, 0, 85, 57
1, 432443, Control_c, 0, 64, 127
1, 432586, Note_on_c, 0, 83, 92
1, 432589, Note_on_c, 0, 93, 84
1, 432592, Note_on_c, 0, 62, 57
1, 432601, Note_on_c, 0, 66, 78
1, 432604, Note_on_c, 0, 57, 68
1, 432609, Poly_aftertouch_c, 0, 90, 0
1, 432610, Note_off_c, 0, 93, 67
1, 432627, Note_off_c, 0, 62, 62
1, 432629, Note_off_c, 0, 83, 69
1, 432634, Note_off_c, 0, 57, 64
1, 432657, Note_off_c, 0, 66, 63
1, 432778, Note_on_c, 0, 73, 74
1, 432783, Note_on_c, 0, 66, 73
1, 432789, Note_on_c, 0, 85, 94
1, 432795, Note_on_c, 0, 63, 36
1, 432797, Note_on_c, 0, 62, 72
1, 432801, Note_off_c, 0, 73, 68
1, 432801, Note_on_c, 0, 74, 61
1, 432808, Note_on_c, 0, 72, 57
1, 432819, Note_off_c, 0, 74, 65
1, 432822, Note_off_c, 0, 62, 68
1, 432828, Note_off_c, 0, 66, 64
1, 432831, Note_off_c, 0, 63, 48
1, 432832, Note_off_c, 0, 72, 61
1, 432847, Note_off_c, 0, 85, 64
1, 432924, Control_c, 0, 64, 82
1, 432939, Control_c, 0, 64, 50
1, 432954, Control_c, 0, 64, 0
1, 432956, Note_on_c, 0, 47, 93
1, 432960, Note_on_c, 0, 35, 86
1, 432981, Note_off_c, 0, 35, 66
1, 432983, Control_c, 0, 64, 65
1, 432998, Control_c, 0, 64, 79
1, 433004, Note_off_c, 0, 47, 63
1, 433012, Control_c, 0, 64, 106
1, 433027, Control_c, 0, 64, 127
1, 433143, Note_on_c, 0, 93, 87
1, 433144, Note_on_c, 0, 83, 93
1, 433148, Note_on_c, 0, 66, 84
1, 433160, Note_on_c, 0, 57, 66
1, 433188, Note_off_c, 0, 57, 65
1, 433198, Note_off_c, 0, 66, 58
1, 433203, Note_off_c, 0, 83, 64
1, 433250, Note_off_c, 0, 93, 61
1, 433280, Note_on_c, 0, 68, 81
1, 433287, Note_on_c, 0, 59, 70
1, 433302, Note_off_c, 0, 68, 72
1, 433329, Note_off_c, 0, 59, 65
1, 433386, Note_on_c, 0, 85, 90
1, 433391, Note_on_c, 0, 95, 82
1, 433421, Note_off_c, 0, 85, 54
1, 433423, Note_off_c, 0, 95, 63
1, 433443, Control_c, 0, 64, 80
1, 433450, Note_on_c, 0, 47, 38
1, 433458, Control_c, 0, 64, 37
1, 433470, Note_on_c, 0, 52, 87
1, 433471, Note_on_c, 0, 40, 82
1, 433472, Note_off_c, 0, 47, 51
1, 433473, Control_c, 0, 64, 0
1, 433476, Note_on_c, 0, 85, 98
1, 433477, Note_on_c, 0, 95, 95
1, 433502, Control_c, 0, 64, 63
1, 433504, Note_off_c, 0, 40, 66
1, 433517, Control_c, 0, 64, 80
1, 433523, Note_off_c, 0, 85, 63
1, 433525, Note_off_c, 0, 52, 65
1, 433527, Note_off_c, 0, 95, 63
1, 433532, Control_c, 0, 64, 127
1, 433674, Poly_aftertouch_c, 0, 86, 127
1, 433705, Note_on_c, 0, 93, 85
1, 433706, Note_on_c, 0, 83, 97
1, 433708, Note_on_c, 0, 57, 74
1, 433711, Note_on_c, 0, 66, 86
1, 433717, Note_on_c, 0, 61, 69
1, 433719, Poly_aftertouch_c, 0, 90, 0
1, 433722, Poly_aftertouch_c, 0, 86, 0
1, 433735, Note_off_c, 0, 57, 67
1, 433741, Note_off_c, 0, 93, 66
1, 433746, Note_off_c, 0, 83, 69
1, 433749, Note_off_c, 0, 61, 63
1, 433767, Note_off_c, 0, 66, 65
1, 433913, Note_on_c, 0, 63, 84
1, 433919, Note_on_c, 0, 73, 76
1, 433928, Note_on_c, 0, 85, 90
1, 433934, Note_on_c, 0, 76, 83
1, 433940, Note_off_c, 0, 73, 69
1, 433954, Poly_aftertouch_c, 0, 69, 127
1, 433969, Note_off_c, 0, 63, 66
1, 433969, Note_off_c, 0, 76, 64
1, 433972, Note_off_c, 0, 85, 66
1, 433992, Poly_aftertouch_c, 0, 69, 0
1, 434103, Control_c, 0, 64, 104
1, 434118, Control_c, 0, 64, 75
1, 434122, Note_on_c, 0, 40, 82
1, 434127, Note_on_c, 0, 52, 79
1, 434133, Control_c, 0, 64, 0
1, 434178, Control_c, 0, 64, 54
1, 434181, Note_on_c, 0, 67, 73
1, 434185, Note_off_c, 0, 40, 63
1, 434192, Control_c, 0, 64, 73
1, 434207, Control_c, 0, 64, 93
1, 434222, Control_c, 0, 64, 127
1, 434223, Note_off_c, 0, 52, 63
1, 434247, Note_on_c, 0, 70, 71
1, 434262, Note_off_c, 0, 67, 62
1, 434302, Note_on_c, 0, 73, 77
1, 434312, Note_off_c, 0, 70, 64
1, 434347, Note_off_c, 0, 73, 64
1, 434393, Note_on_c, 0, 79, 82
1, 434452, Note_on_c, 0, 82, 76
1, 434465, Note_off_c, 0, 79, 62
1, 434476, Note_on_c, 0, 85, 65
1, 434518, Note_on_c, 0, 90, 88
1, 434521, Note_on_c, 0, 55, 78
1, 434521, Note_on_c, 0, 64, 82
1, 434525, Note_on_c, 0, 79, 89
1, 434531, Note_on_c, 0, 58, 70
1, 434531, Note_off_c, 0, 82, 45
1, 434541, Note_off_c, 0, 85, 64
1, 434545, Note_off_c, 0, 64, 70
1, 434561, Note_off_c, 0, 79, 61
1, 434564, Note_off_c, 0, 58, 66
1, 434571, Note_off_c, 0, 55, 64
1, 434578, Note_off_c, 0, 90, 64
1, 434583, Poly_aftertouch_c, 0, 61, 127
1, 434584, Note_on_c, 0, 61, 2
1, 434595, Note_off_c, 0, 61, 0
1, 434626, Poly_aftertouch_c, 0, 61, 0
1, 434731, Note_on_c, 0, 90, 83
1, 434732, Note_on_c, 0, 79, 84
1, 434735, Note_on_c, 0, 85, 73
1, 434741, Note_on_c, 0, 82, 56
1, 434751, Note_off_c, 0, 79, 68
1, 434756, Note_off_c, 0, 90, 60
1, 434759, Note_off_c, 0, 85, 69
1, 434763, Control_c, 0, 64, 97
1, 434765, Note_off_c, 0, 82, 67
1, 434778, Control_c, 0, 64, 69
1, 434793, Control_c, 0, 64, 0
1, 434798, Note_on_c, 0, 79, 82
1, 434799, Note_on_c, 0, 90, 84
1, 434804, Note_on_c, 0, 85, 86
1, 434804, Note_on_c, 0, 40, 79
1, 434807, Note_on_c, 0, 52, 89
1, 434812, Note_on_c, 0, 82, 75
1, 434834, Note_off_c, 0, 40, 64
1, 434837, Control_c, 0, 64, 70
1, 434852, Control_c, 0, 64, 93
1, 434860, Note_off_c, 0, 52, 63
1, 434867, Control_c, 0, 64, 127
1, 434893, Note_off_c, 0, 82, 62
1, 434905, Note_off_c, 0, 79, 59
1, 434906, Note_off_c, 0, 85, 63
1, 434931, Note_off_c, 0, 90, 62
1, 434961, Note_on_c, 0, 64, 89
1, 434968, Note_on_c, 0, 55, 76
1, 434977, Note_on_c, 0, 58, 70
1, 435001, Note_off_c, 0, 64, 66
1, 435028, Note_off_c, 0, 58, 64
1, 435032, Note_off_c, 0, 55, 64
1, 435113, Note_on_c, 0, 90, 91
1, 435116, Note_on_c, 0, 79, 92
1, 435150, Note_off_c, 0, 79, 67
1, 435154, Note_off_c, 0, 90, 66
1, 435245, Control_c, 0, 64, 79
1, 435248, Note_on_c, 0, 40, 80
1, 435256, Note_on_c, 0, 52, 89
1, 435260, Control_c, 0, 64, 22
1, 435275, Control_c, 0, 64, 0
1, 435293, Note_off_c, 0, 40, 62
1, 435297, Note_on_c, 0, 68, 78
1, 435304, Control_c, 0, 64, 57
1, 435319, Control_c, 0, 64, 74
1, 435325, Note_off_c, 0, 52, 63
1, 435333, Control_c, 0, 64, 100
1, 435346, Note_on_c, 0, 72, 73
1, 435348, Control_c, 0, 64, 127
1, 435352, Note_off_c, 0, 68, 66
1, 435381, Note_on_c, 0, 75, 73
1, 435382, Note_off_c, 0, 72, 66
1, 435406, Note_off_c, 0, 75, 69
1, 435466, Note_on_c, 0, 78, 58
1, 435493, Note_off_c, 0, 78, 52
1, 435504, Note_on_c, 0, 84, 66
1, 435523, Note_on_c, 0, 83, 54
1, 435525, Note_on_c, 0, 87, 76
1, 435548, Note_off_c, 0, 83, 61
1, 435561, Note_off_c, 0, 84, 63
1, 435579, Note_on_c, 0, 80, 97
1, 435582, Note_on_c, 0, 90, 98
1, 435585, Note_on_c, 0, 56, 81
1, 435591, Note_on_c, 0, 64, 74
1, 435597, Note_off_c, 0, 87, 67
1, 435603, Note_on_c, 0, 60, 53
1, 435615, Note_off_c, 0, 80, 65
1, 435616, Note_off_c, 0, 64, 68
1, 435627, Note_off_c, 0, 60, 57
1, 435629, Note_off_c, 0, 90, 62
1, 435636, Note_off_c, 0, 56, 66
1, 435787, Note_on_c, 0, 80, 92
1, 435789, Note_on_c, 0, 90, 85
1, 435794, Control_c, 0, 64, 103
1, 435804, Note_off_c, 0, 80, 73
1, 435809, Control_c, 0, 64, 72
1, 435811, Note_off_c, 0, 90, 67
1, 435823, Control_c, 0, 64, 0
1, 435844, Note_on_c, 0, 52, 92
1, 435855, Note_on_c, 0, 40, 80
1, 435856, Note_on_c, 0, 80, 100
1, 435859, Note_on_c, 0, 90, 96
1, 435875, Control_c, 0, 64, 67
1, 435880, Note_off_c, 0, 40, 66
1, 435890, Control_c, 0, 64, 89
1, 435901, Note_off_c, 0, 52, 65
1, 435905, Control_c, 0, 64, 127
1, 435976, Note_off_c, 0, 80, 58
1, 435992, Note_off_c, 0, 90, 57
1, 436008, Note_on_c, 0, 64, 87
1, 436012, Note_on_c, 0, 57, 81
1, 436017, Note_on_c, 0, 61, 69
1, 436026, Note_off_c, 0, 64, 73
1, 436042, Note_off_c, 0, 61, 66
1, 436061, Note_off_c, 0, 57, 64
1, 436180, Note_on_c, 0, 90, 106
1, 436181, Note_on_c, 0, 81, 104
1, 436186, Note_on_c, 0, 85, 86
1, 436335, Control_c, 0, 64, 75
1, 436350, Control_c, 0, 64, 0
1, 436364, Note_off_c, 0, 85, 62
1, 436366, Note_on_c, 0, 42, 102
1, 436366, Note_on_c, 0, 30, 85
1, 436378, Note_off_c, 0, 81, 59
1, 436387, Note_off_c, 0, 90, 63
1, 436408, Note_off_c, 0, 30, 63
1, 436409, Control_c, 0, 64, 75
1, 436424, Control_c, 0, 64, 127
1, 436433, Note_off_c, 0, 42, 63
1, 436822, Note_on_c, 0, 93, 97
1, 436824, Note_on_c, 0, 81, 114
1, 436826, Note_on_c, 0, 68, 102
1, 436831, Note_on_c, 0, 57, 84
1, 436831, Note_on_c, 0, 61, 86
1, 436831, Note_on_c, 0, 92, 89
1, 436908, Note_off_c, 0, 81, 60
1, 437036, Note_off_c, 0, 93, 44
1, 437371, Note_off_c, 0, 57, 30
1, 437545, Note_on_c, 0, 66, 91
1, 437562, Note_off_c, 0, 68, 62
1, 437567, Note_off_c, 0, 61, 60
1, 437608, Note_off_c, 0, 66, 64
1, 437741, Note_off_c, 0, 92, 63
1, 437749, Note_on_c, 0, 95, 85
1, 437749, Note_on_c, 0, 83, 92
1, 437754, Note_on_c, 0, 90, 82
1, 437868, Note_off_c, 0, 83, 63
1, 437868, Note_off_c, 0, 90, 57
1, 437878, Note_off_c, 0, 95, 63
1, 437880, Note_on_c, 0, 92, 35
1, 437907, Control_c, 0, 64, 89
1, 437913, Note_off_c, 0, 92, 43
1, 437922, Control_c, 0, 64, 66
1, 437926, Note_on_c, 0, 35, 76
1, 437931, Note_on_c, 0, 47, 89
1, 437937, Note_on_c, 0, 95, 92
1, 437937, Control_c, 0, 64, 0
1, 437940, Note_on_c, 0, 83, 87
1, 437946, Note_on_c, 0, 90, 81
1, 437952, Control_c, 0, 64, 20
1, 437964, Note_off_c, 0, 35, 64
1, 437967, Control_c, 0, 64, 72
1, 437973, Note_off_c, 0, 90, 63
1, 437982, Control_c, 0, 64, 104
1, 437985, Note_off_c, 0, 47, 64
1, 437997, Control_c, 0, 64, 127
1, 437998, Note_off_c, 0, 95, 64
1, 438038, Note_off_c, 0, 83, 56
1, 438210, Note_on_c, 0, 65, 83
1, 438211, Note_on_c, 0, 81, 103
1, 438211, Note_on_c, 0, 93, 89
1, 438213, Note_on_c, 0, 57, 69
1, 438223, Note_on_c, 0, 61, 66
1, 438246, Note_off_c, 0, 81, 70
1, 438253, Note_off_c, 0, 93, 65
1, 438283, Note_off_c, 0, 65, 63
1, 438368, Note_off_c, 0, 61, 54
1, 438396, Note_on_c, 0, 69, 85
1, 438398, Note_on_c, 0, 64, 78
1, 438399, Note_off_c, 0, 57, 0
1, 438414, Note_on_c, 0, 57, 41
1, 438414, Note_off_c, 0, 69, 69
1, 438415, Note_on_c, 0, 73, 78
1, 438426, Note_on_c, 0, 84, 60
1, 438426, Note_on_c, 0, 82, 47
1, 438434, Note_off_c, 0, 64, 62
1, 438435, Note_off_c, 0, 73, 60
1, 438436, Note_on_c, 0, 83, 56
1, 438450, Note_on_c, 0, 72, 38
1, 438450, Note_off_c, 0, 82, 39
1, 438452, Note_off_c, 0, 84, 60
1, 438458, Note_off_c, 0, 83, 65
1, 438462, Note_off_c, 0, 57, 65
1, 438485, Note_off_c, 0, 72, 48
1, 438487, Note_on_c, 0, 69, 4
1, 438537, Control_c, 0, 64, 77
1, 438544, Note_off_c, 0, 69, 34
1, 438551, Control_c, 0, 64, 0
1, 438557, Note_on_c, 0, 47, 87
1, 438560, Note_on_c, 0, 35, 87
1, 438572, Note_on_c, 0, 45, 73
1, 438582, Note_off_c, 0, 35, 66
1, 438596, Control_c, 0, 64, 65
1, 438597, Note_off_c, 0, 45, 41
1, 438600, Note_off_c, 0, 47, 61
1, 438611, Control_c, 0, 64, 83
1, 438627, Control_c, 0, 64, 127
1, 438730, Note_on_c, 0, 58, 77
1, 438731, Note_on_c, 0, 68, 89
1, 438733, Note_on_c, 0, 81, 100
1, 438733, Note_on_c, 0, 93, 89
1, 438740, Note_on_c, 0, 92, 80
1, 438778, Note_on_c, 0, 57, 26
1, 438780, Note_on_c, 0, 64, 49
1, 438793, Note_off_c, 0, 68, 58
1, 438810, Note_off_c, 0, 81, 60
1, 438817, Note_off_c, 0, 57, 43
1, 438824, Note_off_c, 0, 58, 48
1, 438840, Note_off_c, 0, 93, 58
1, 438853, Note_off_c, 0, 64, 55
1, 438885, Note_on_c, 0, 66, 86
1, 438894, Note_on_c, 0, 61, 70
1, 438905, Note_off_c, 0, 92, 52
1, 438910, Note_off_c, 0, 66, 69
1, 438925, Note_off_c, 0, 61, 65
1, 438988, Note_on_c, 0, 83, 81
1, 438989, Note_on_c, 0, 95, 88
1, 438995, Note_on_c, 0, 90, 76
1, 439021, Note_off_c, 0, 83, 63
1, 439026, Note_off_c, 0, 90, 63
1, 439036, Note_off_c, 0, 95, 63
1, 439048, Control_c, 0, 64, 92
1, 439063, Control_c, 0, 64, 66
1, 439076, Note_on_c, 0, 47, 4
1, 439077, Note_on_c, 0, 95, 80
1, 439078, Control_c, 0, 64, 0
1, 439084, Note_on_c, 0, 40, 83
1, 439084, Note_on_c, 0, 83, 82
1, 439085, Note_on_c, 0, 52, 87
1, 439091, Note_on_c, 0, 90, 67
1, 439106, Note_off_c, 0, 47, 42
1, 439107, Control_c, 0, 64, 24
1, 439108, Note_off_c, 0, 90, 65
1, 439114, Note_off_c, 0, 40, 66
1, 439122, Control_c, 0, 64, 69
1, 439126, Note_off_c, 0, 95, 65
1, 439134, Note_off_c, 0, 52, 65
1, 439137, Control_c, 0, 64, 95
1, 439152, Control_c, 0, 64, 127
1, 439153, Note_off_c, 0, 83, 54
1, 439296, Note_on_c, 0, 81, 103
1, 439297, Note_on_c, 0, 93, 92
1, 439299, Note_on_c, 0, 61, 55
1, 439299, Note_on_c, 0, 65, 84
1, 439302, Note_on_c, 0, 57, 76
1, 439332, Note_off_c, 0, 81, 68
1, 439335, Note_off_c, 0, 93, 65
1, 439392, Note_off_c, 0, 65, 62
1, 439496, Note_off_c, 0, 61, 0
1, 439499, Note_on_c, 0, 69, 81
1, 439505, Note_on_c, 0, 85, 99
1, 439508, Note_on_c, 0, 64, 46
1, 439508, Note_on_c, 0, 73, 98
1, 439525, Note_off_c, 0, 69, 69
1, 439532, Note_off_c, 0, 64, 58
1, 439532, Poly_aftertouch_c, 0, 61, 127
1, 439541, Note_off_c, 0, 73, 63
1, 439552, Note_off_c, 0, 85, 63
1, 439577, Poly_aftertouch_c, 0, 61, 0
1, 439585, Note_off_c, 0, 57, 17
1, 439708, Control_c, 0, 64, 94
1, 439723, Control_c, 0, 64, 69
1, 439734, Note_on_c, 0, 76, 95
1, 439736, Note_on_c, 0, 64, 86
1, 439737, Control_c, 0, 64, 0
1, 439738, Note_on_c, 0, 84, 83
1, 439743, Note_on_c, 0, 88, 72
1, 439745, Note_on_c, 0, 58, 65
1, 439746, Note_on_c, 0, 55, 68
1, 439750, Note_on_c, 0, 60, 63
1, 439757, Note_off_c, 0, 76, 67
1, 439761, Note_off_c, 0, 84, 69
1, 439770, Note_off_c, 0, 88, 69
1, 439775, Note_off_c, 0, 58, 67
1, 439780, Note_off_c, 0, 55, 65
1, 439780, Note_off_c, 0, 60, 64
1, 439782, Note_off_c, 0, 64, 63
1, 439797, Control_c, 0, 64, 64
1, 439812, Control_c, 0, 64, 75
1, 439818, Note_on_c, 0, 76, 84
1, 439821, Note_on_c, 0, 88, 72
1, 439823, Note_on_c, 0, 64, 76
1, 439823, Note_on_c, 0, 84, 81
1, 439827, Control_c, 0, 64, 91
1, 439836, Note_on_c, 0, 58, 77
1, 439838, Note_off_c, 0, 76, 69
1, 439842, Control_c, 0, 64, 127
1, 439844, Note_on_c, 0, 55, 51
1, 439845, Note_off_c, 0, 84, 71
1, 439857, Note_off_c, 0, 88, 64
1, 439867, Note_off_c, 0, 58, 65
1, 439874, Note_off_c, 0, 64, 62
1, 439876, Note_off_c, 0, 55, 61
1, 439895, Note_on_c, 0, 76, 85
1, 439895, Note_on_c, 0, 88, 66
1, 439896, Note_on_c, 0, 84, 83
1, 439899, Note_on_c, 0, 64, 67
1, 439913, Note_on_c, 0, 55, 62
1, 439920, Note_on_c, 0, 58, 72
1, 439929, Note_off_c, 0, 84, 64
1, 439931, Poly_aftertouch_c, 0, 60, 0
1, 439941, Note_off_c, 0, 76, 58
1, 439943, Note_off_c, 0, 88, 63
1, 439944, Note_off_c, 0, 55, 64
1, 439959, Note_off_c, 0, 58, 57
1, 439961, Note_off_c, 0, 64, 62
1, 440061, Note_on_c, 0, 62, 47
1, 440069, Note_on_c, 0, 55, 75
1, 440071, Note_on_c, 0, 65, 82
1, 440074, Note_on_c, 0, 86, 82
1, 440079, Note_on_c, 0, 74, 84
1, 440092, Note_off_c, 0, 62, 62
1, 440094, Note_off_c, 0, 65, 71
1, 440095, Note_off_c, 0, 86, 71
1, 440112, Note_on_c, 0, 58, 41
1, 440115, Note_off_c, 0, 74, 61
1, 440120, Note_off_c, 0, 55, 65
1, 440132, Note_off_c, 0, 58, 62
1, 440242, Control_c, 0, 64, 92
1, 440257, Control_c, 0, 64, 68
1, 440271, Control_c, 0, 64, 0
1, 440280, Note_on_c, 0, 58, 90
1, 440280, Note_on_c, 0, 69, 89
1, 440281, Note_on_c, 0, 36, 80
1, 440282, Note_on_c, 0, 48, 73
1, 440294, Note_on_c, 0, 47, 68
1, 440301, Control_c, 0, 64, 64
1, 440302, Note_off_c, 0, 69, 69
1, 440304, Note_off_c, 0, 58, 67
1, 440316, Note_off_c, 0, 48, 67
1, 440316, Control_c, 0, 64, 77
1, 440319, Note_off_c, 0, 47, 59
1, 440331, Control_c, 0, 64, 104
1, 440336, Note_off_c, 0, 36, 60
1, 440353, Control_c, 0, 64, 127
1, 440472, Control_c, 0, 64, 97
1, 440486, Control_c, 0, 64, 71
1, 440501, Control_c, 0, 64, 0
1, 440509, Note_on_c, 0, 28, 80
1, 440513, Note_on_c, 0, 40, 84
1, 440516, Note_on_c, 0, 52, 90
1, 440526, Note_on_c, 0, 50, 75
1, 440531, Control_c, 0, 64, 63
1, 440537, Note_off_c, 0, 28, 63
1, 440538, Note_off_c, 0, 52, 69
1, 440546, Control_c, 0, 64, 79
1, 440554, Note_off_c, 0, 50, 68
1, 440560, Control_c, 0, 64, 127
1, 440566, Note_off_c, 0, 40, 64
1, 440620, Poly_aftertouch_c, 0, 30, 0
1, 440857, Control_c, 0, 64, 82
1, 440864, Note_on_c, 0, 56, 87
1, 440864, Note_on_c, 0, 66, 105
1, 440864, Note_on_c, 0, 73, 105
1, 440868, Note_on_c, 0, 85, 96
1, 440871, Control_c, 0, 64, 0
1, 440872, Note_on_c, 0, 58, 72
1, 440875, Note_on_c, 0, 62, 69
1, 440885, Note_on_c, 0, 82, 58
1, 440886, Note_off_c, 0, 82, 127
1, 440975, Control_c, 0, 64, 61
1, 440989, Control_c, 0, 64, 75
1, 441004, Control_c, 0, 64, 98
1, 441021, Control_c, 0, 64, 127
1, 441488, Note_off_c, 0, 85, 54
1, 441503, Note_off_c, 0, 73, 55
1, 441520, Note_off_c, 0, 56, 36
1, 441526, Note_off_c, 0, 66, 56
1, 441549, Note_off_c, 0, 58, 56
1, 441570, Note_off_c, 0, 62, 36
1, 441624, Note_on_c, 0, 66, 87
1, 441628, Note_on_c, 0, 56, 66
1, 441637, Note_on_c, 0, 80, 85
1, 441657, Note_off_c, 0, 56, 66
1, 441659, Note_off_c, 0, 66, 60
1, 441666, Note_on_c, 0, 62, 19
1, 441713, Note_off_c, 0, 62, 37
1, 441717, Note_on_c, 0, 66, 89
1, 441717, Note_on_c, 0, 56, 80
1, 441723, Note_on_c, 0, 73, 89
1, 441725, Note_on_c, 0, 85, 89
1, 441725, Note_off_c, 0, 80, 33
1, 441764, Note_off_c, 0, 66, 65
1, 441767, Note_off_c, 0, 73, 63
1, 441806, Note_on_c, 0, 80, 86
1, 441817, Note_off_c, 0, 85, 65
1, 441819, Note_on_c, 0, 66, 88
1, 441853, Note_off_c, 0, 80, 67
1, 441881, Note_off_c, 0, 66, 64
1, 441887, Poly_aftertouch_c, 0, 73, 0
1, 441893, Note_off_c, 0, 56, 63
1, 441896, Control_c, 0, 64, 93
1, 441911, Control_c, 0, 64, 63
1, 441919, Note_on_c, 0, 64, 93
1, 441919, Note_on_c, 0, 69, 98
1, 441921, Note_on_c, 0, 57, 77
1, 441922, Note_on_c, 0, 81, 106
1, 441925, Control_c, 0, 64, 0
1, 441927, Note_on_c, 0, 73, 77
1, 441940, Control_c, 0, 64, 55
1, 441941, Note_on_c, 0, 58, 53
1, 441955, Control_c, 0, 64, 74
1, 441956, Note_on_c, 0, 60, 55
1, 441959, Note_off_c, 0, 64, 64
1, 441964, Note_off_c, 0, 58, 60
1, 441970, Control_c, 0, 64, 100
1, 441981, Note_off_c, 0, 60, 56
1, 441985, Control_c, 0, 64, 127
1, 441992, Note_off_c, 0, 57, 65
1, 441998, Note_off_c, 0, 73, 64
1, 442001, Note_off_c, 0, 81, 63
1, 442003, Note_off_c, 0, 69, 59
1, 442192, Control_c, 0, 64, 118
1, 442207, Control_c, 0, 64, 77
1, 442222, Control_c, 0, 64, 0
1, 442226, Note_on_c, 0, 45, 106
1, 442227, Note_on_c, 0, 33, 90
1, 442237, Control_c, 0, 64, 48
1, 442251, Control_c, 0, 64, 81
1, 442262, Note_on_c, 0, 43, 42
1, 442263, Note_off_c, 0, 43, 127
1, 442266, Control_c, 0, 64, 127
1, 442277, Note_off_c, 0, 33, 64
1, 442277, Note_off_c, 0, 45, 64
1, 442577, Control_c, 0, 67, 13
1, 442599, Control_c, 0, 67, 31
1, 442614, Control_c, 0, 67, 59
1, 442630, Control_c, 0, 67, 93
1, 442645, Control_c, 0, 64, 100
1, 442645, Control_c, 0, 67, 127
1, 442660, Control_c, 0, 64, 81
1, 442674, Control_c, 0, 64, 65
1, 442688, Control_c, 0, 64, 0
1, 444876, Control_c, 0, 64, 27
1, 444891, Control_c, 0, 64, 56
1, 444906, Control_c, 0, 64, 64
1, 444920, Control_c, 0, 64, 66
1, 444935, Control_c, 0, 64, 68
1, 444950, Control_c, 0, 64, 70
1, 444964, Control_c, 0, 64, 72
1, 444979, Control_c, 0, 64, 74
1, 444994, Control_c, 0, 64, 77
1, 445009, Control_c, 0, 64, 80
1, 445025, Control_c, 0, 64, 84
1, 445040, Control_c, 0, 64, 87
1, 445055, Control_c, 0, 64, 90
1, 445069, Control_c, 0, 64, 93
1, 445084, Control_c, 0, 64, 97
1, 445099, Control_c, 0, 64, 102
1, 445114, Control_c, 0, 64, 110
1, 445129, Control_c, 0, 64, 127
1, 445276, Note_on_c, 0, 45, 41
1, 445370, Note_off_c, 0, 45, 61
1, 445780, Note_on_c, 0, 83, 39
1, 445818, Note_on_c, 0, 71, 30
1, 445914, Note_on_c, 0, 67, 49
1, 445917, Note_on_c, 0, 60, 39
1, 445917, Note_on_c, 0, 64, 37
1, 446094, Note_off_c, 0, 64, 57
1, 446159, Note_off_c, 0, 60, 55
1, 446279, Note_off_c, 0, 67, 63
1, 446388, Note_on_c, 0, 63, 36
1, 446394, Note_on_c, 0, 66, 74
1, 446427, Note_on_c, 0, 59, 44
1, 446635, Note_off_c, 0, 71, 40
1, 446690, Note_off_c, 0, 83, 64
1, 446795, Note_off_c, 0, 66, 66
1, 446874, Note_on_c, 0, 64, 64
1, 446879, Note_on_c, 0, 57, 50
1, 446886, Note_off_c, 0, 59, 36
1, 446893, Control_c, 0, 64, 109
1, 446895, Note_on_c, 0, 60, 50
1, 446907, Control_c, 0, 64, 85
1, 446922, Control_c, 0, 64, 64
1, 446937, Note_off_c, 0, 63, 42
1, 446937, Control_c, 0, 64, 0
1, 447093, Control_c, 0, 64, 37
1, 447108, Control_c, 0, 64, 64
1, 447122, Control_c, 0, 64, 72
1, 447137, Control_c, 0, 64, 79
1, 447152, Control_c, 0, 64, 84
1, 447166, Control_c, 0, 64, 89
1, 447180, Control_c, 0, 64, 96
1, 447195, Control_c, 0, 64, 109
1, 447210, Control_c, 0, 64, 127
1, 447360, Note_on_c, 0, 95, 41
1, 447374, Note_off_c, 0, 57, 59
1, 447393, Note_on_c, 0, 83, 49
1, 447405, Note_off_c, 0, 64, 60
1, 447432, Note_off_c, 0, 60, 31
1, 447475, Note_off_c, 0, 95, 54
1, 447559, Note_off_c, 0, 83, 44
1, 447944, Control_c, 0, 64, 108
1, 447949, Note_on_c, 0, 66, 56
1, 447954, Note_on_c, 0, 59, 35
1, 447958, Note_on_c, 0, 63, 38
1, 447959, Control_c, 0, 64, 85
1, 447974, Control_c, 0, 64, 69
1, 447989, Control_c, 0, 64, 45
1, 448003, Control_c, 0, 64, 32
1, 448018, Control_c, 0, 64, 56
1, 448033, Control_c, 0, 64, 64
1, 448048, Control_c, 0, 64, 69
1, 448063, Control_c, 0, 64, 76
1, 448078, Control_c, 0, 64, 86
1, 448093, Control_c, 0, 64, 95
1, 448108, Control_c, 0, 64, 106
1, 448122, Control_c, 0, 64, 127
1, 448155, Note_off_c, 0, 59, 57
1, 448191, Note_off_c, 0, 63, 42
1, 448215, Note_off_c, 0, 66, 63
1, 448641, Note_on_c, 0, 45, 40
1, 448649, Control_c, 0, 64, 112
1, 448664, Control_c, 0, 64, 92
1, 448679, Control_c, 0, 64, 77
1, 448693, Control_c, 0, 64, 65
1, 448708, Control_c, 0, 64, 56
1, 448723, Control_c, 0, 64, 62
1, 448737, Control_c, 0, 64, 66
1, 448752, Control_c, 0, 64, 70
1, 448767, Control_c, 0, 64, 77
1, 448782, Control_c, 0, 64, 88
1, 448797, Control_c, 0, 64, 99
1, 448811, Control_c, 0, 64, 117
1, 448826, Control_c, 0, 64, 127
1, 448865, Note_off_c, 0, 45, 59
1, 449029, Note_on_c, 0, 83, 45
1, 449075, Note_on_c, 0, 71, 43
1, 449152, Note_on_c, 0, 67, 54
1, 449168, Note_on_c, 0, 64, 40
1, 449174, Note_on_c, 0, 60, 38
1, 449261, Note_off_c, 0, 64, 54
1, 449276, Note_off_c, 0, 71, 58
1, 449360, Note_off_c, 0, 60, 60
1, 449441, Note_off_c, 0, 83, 61
1, 449479, Note_off_c, 0, 67, 63
1, 449590, Note_on_c, 0, 66, 35
1, 449618, Note_on_c, 0, 71, 69
1, 449627, Note_on_c, 0, 63, 60
1, 449646, Note_off_c, 0, 66, 44
1, 449828, Note_off_c, 0, 63, 57
1, 449840, Note_off_c, 0, 71, 55
1, 450099, Note_on_c, 0, 60, 42
1, 450108, Note_on_c, 0, 64, 56
1, 450122, Note_on_c, 0, 57, 54
1, 450131, Control_c, 0, 64, 99
1, 450146, Control_c, 0, 64, 78
1, 450161, Control_c, 0, 64, 62
1, 450176, Control_c, 0, 64, 0
1, 450220, Control_c, 0, 64, 61
1, 450235, Control_c, 0, 64, 70
1, 450250, Control_c, 0, 64, 83
1, 450264, Control_c, 0, 64, 103
1, 450279, Control_c, 0, 64, 127
1, 450282, Note_off_c, 0, 64, 64
1, 450303, Note_off_c, 0, 60, 61
1, 450325, Note_off_c, 0, 57, 62
1, 450502, Note_on_c, 0, 95, 39
1, 450561, Note_on_c, 0, 83, 43
1, 450624, Note_off_c, 0, 95, 43
1, 450627, Note_on_c, 0, 38, 38
1, 450665, Note_off_c, 0, 83, 58
1, 451279, Note_on_c, 0, 61, 35
1, 451281, Note_on_c, 0, 66, 48
1, 451291, Note_on_c, 0, 58, 30
1, 451369, Control_c, 0, 64, 115
1, 451384, Control_c, 0, 64, 97
1, 451400, Control_c, 0, 64, 83
1, 451415, Control_c, 0, 64, 68
1, 451429, Control_c, 0, 64, 42
1, 451444, Control_c, 0, 64, 0
1, 451615, Control_c, 0, 64, 26
1, 451630, Control_c, 0, 64, 41
1, 451644, Control_c, 0, 64, 50
1, 451659, Control_c, 0, 64, 56
1, 451674, Control_c, 0, 64, 60
1, 451688, Control_c, 0, 64, 61
1, 451703, Control_c, 0, 64, 62
1, 451718, Control_c, 0, 64, 63
1, 451733, Control_c, 0, 64, 64
1, 451748, Control_c, 0, 64, 65
1, 451762, Control_c, 0, 64, 66
1, 451777, Control_c, 0, 64, 66
1, 451792, Control_c, 0, 64, 67
1, 451807, Control_c, 0, 64, 68
1, 451822, Control_c, 0, 64, 70
1, 451837, Control_c, 0, 64, 72
1, 451852, Control_c, 0, 64, 74
1, 451867, Control_c, 0, 64, 75
1, 451881, Control_c, 0, 64, 75
1, 451896, Control_c, 0, 64, 76
1, 451926, Control_c, 0, 64, 76
1, 451941, Control_c, 0, 64, 77
1, 451955, Control_c, 0, 64, 77
1, 451970, Control_c, 0, 64, 78
1, 451985, Control_c, 0, 64, 78
1, 451989, Note_on_c, 0, 31, 35
1, 451999, Control_c, 0, 64, 79
1, 452014, Control_c, 0, 64, 80
1, 452029, Control_c, 0, 64, 81
1, 452040, Note_off_c, 0, 38, 40
1, 452044, Control_c, 0, 64, 82
1, 452059, Control_c, 0, 64, 83
1, 452074, Control_c, 0, 64, 84
1, 452088, Control_c, 0, 64, 85
1, 452094, Note_off_c, 0, 61, 40
1, 452103, Control_c, 0, 64, 87
1, 452108, Note_off_c, 0, 58, 43
1, 452118, Control_c, 0, 64, 88
1, 452133, Control_c, 0, 64, 91
1, 452147, Control_c, 0, 64, 95
1, 452162, Control_c, 0, 64, 100
1, 452177, Control_c, 0, 64, 107
1, 452191, Note_off_c, 0, 66, 49
1, 452192, Control_c, 0, 64, 116
1, 452208, Control_c, 0, 64, 127
1, 452651, Note_on_c, 0, 78, 52
1, 452658, Note_on_c, 0, 70, 40
1, 452672, Note_on_c, 0, 75, 36
1, 453038, Note_off_c, 0, 70, 36
1, 453047, Note_off_c, 0, 75, 41
1, 453095, Note_off_c, 0, 78, 55
1, 453158, Note_on_c, 0, 75, 55
1, 453178, Note_on_c, 0, 38, 43
1, 453181, Note_on_c, 0, 70, 40
1, 453196, Note_on_c, 0, 66, 51
1, 453268, Note_off_c, 0, 31, 35
1, 453295, Note_off_c, 0, 38, 55
1, 453493, Note_off_c, 0, 70, 35
1, 453569, Note_off_c, 0, 75, 59
1, 453572, Note_off_c, 0, 66, 62
1, 453658, Note_on_c, 0, 50, 50
1, 453659, Control_c, 0, 64, 98
1, 453674, Control_c, 0, 64, 78
1, 453676, Note_on_c, 0, 78, 55
1, 453683, Note_on_c, 0, 75, 52
1, 453689, Control_c, 0, 64, 63
1, 453693, Note_on_c, 0, 70, 47
1, 453704, Control_c, 0, 64, 0
1, 453719, Control_c, 0, 64, 42
1, 453733, Control_c, 0, 64, 63
1, 453748, Control_c, 0, 64, 69
1, 453763, Control_c, 0, 64, 79
1, 453777, Control_c, 0, 64, 93
1, 453792, Control_c, 0, 64, 111
1, 453809, Control_c, 0, 64, 127
1, 453863, Note_off_c, 0, 70, 56
1, 453906, Note_off_c, 0, 78, 64
1, 454025, Poly_aftertouch_c, 0, 74, 127
1, 454153, Note_on_c, 0, 76, 64
1, 454159, Poly_aftertouch_c, 0, 74, 0
1, 454165, Note_on_c, 0, 67, 51
1, 454172, Note_on_c, 0, 71, 51
1, 454192, Note_off_c, 0, 75, 51
1, 454317, Note_off_c, 0, 71, 62
1, 454335, Note_off_c, 0, 76, 64
1, 454447, Note_off_c, 0, 67, 65
1, 454645, Note_on_c, 0, 71, 63
1, 454648, Note_on_c, 0, 55, 48
1, 454660, Note_on_c, 0, 66, 47
1, 454663, Note_on_c, 0, 63, 51
1, 454733, Note_off_c, 0, 50, 0
1, 454906, Control_c, 0, 64, 94
1, 454921, Control_c, 0, 64, 76
1, 454936, Control_c, 0, 64, 57
1, 454951, Control_c, 0, 64, 0
1, 454980, Control_c, 0, 64, 49
1, 454995, Control_c, 0, 64, 64
1, 455010, Control_c, 0, 64, 71
1, 455024, Control_c, 0, 64, 78
1, 455039, Control_c, 0, 64, 86
1, 455054, Poly_aftertouch_c, 0, 50, 0
1, 455054, Control_c, 0, 64, 91
1, 455069, Control_c, 0, 64, 95
1, 455073, Note_off_c, 0, 71, 55
1, 455074, Note_on_c, 0, 48, 50
1, 455079, Note_off_c, 0, 63, 31
1, 455084, Control_c, 0, 64, 100
1, 455098, Control_c, 0, 64, 109
1, 455113, Control_c, 0, 64, 127
1, 455158, Note_off_c, 0, 55, 37
1, 455284, Note_off_c, 0, 66, 55
1, 455291, Note_on_c, 0, 63, 57
1, 455292, Note_on_c, 0, 54, 56
1, 455328, Note_off_c, 0, 54, 65
1, 455551, Note_on_c, 0, 71, 67
1, 455551, Control_c, 0, 64, 98
1, 455566, Control_c, 0, 64, 78
1, 455568, Note_on_c, 0, 66, 55
1, 455581, Control_c, 0, 64, 63
1, 455596, Control_c, 0, 64, 22
1, 455611, Control_c, 0, 64, 44
1, 455626, Control_c, 0, 64, 61
1, 455640, Control_c, 0, 64, 66
1, 455655, Control_c, 0, 64, 71
1, 455670, Control_c, 0, 64, 80
1, 455677, Note_off_c, 0, 63, 37
1, 455685, Control_c, 0, 64, 90
1, 455700, Control_c, 0, 64, 101
1, 455715, Control_c, 0, 64, 110
1, 455729, Control_c, 0, 64, 127
1, 455757, Note_off_c, 0, 71, 58
1, 456111, Note_on_c, 0, 43, 40
1, 456318, Note_off_c, 0, 66, 46
1, 456349, Note_on_c, 0, 54, 44
1, 456364, Note_on_c, 0, 63, 41
1, 456380, Note_off_c, 0, 54, 61
1, 456381, Note_off_c, 0, 48, 31
1, 456624, Note_on_c, 0, 71, 50
1, 456626, Control_c, 0, 64, 100
1, 456630, Note_on_c, 0, 66, 39
1, 456641, Control_c, 0, 64, 84
1, 456656, Control_c, 0, 64, 72
1, 456670, Control_c, 0, 64, 66
1, 456685, Control_c, 0, 64, 68
1, 456693, Note_off_c, 0, 63, 39
1, 456700, Control_c, 0, 64, 71
1, 456715, Control_c, 0, 64, 76
1, 456729, Control_c, 0, 64, 84
1, 456744, Control_c, 0, 64, 92
1, 456759, Control_c, 0, 64, 99
1, 456774, Control_c, 0, 64, 105
1, 456788, Control_c, 0, 64, 114
1, 456799, Note_off_c, 0, 71, 52
1, 456803, Control_c, 0, 64, 127
1, 457143, Note_on_c, 0, 69, 49
1, 457152, Control_c, 0, 64, 97
1, 457161, Note_on_c, 0, 64, 35
1, 457167, Control_c, 0, 64, 82
1, 457173, Note_on_c, 0, 55, 36
1, 457182, Control_c, 0, 64, 71
1, 457194, Note_off_c, 0, 66, 46
1, 457197, Control_c, 0, 64, 63
1, 457212, Control_c, 0, 64, 61
1, 457226, Control_c, 0, 64, 63
1, 457241, Control_c, 0, 64, 65
1, 457256, Control_c, 0, 64, 68
1, 457271, Control_c, 0, 64, 71
1, 457286, Control_c, 0, 64, 77
1, 457301, Control_c, 0, 64, 87
1, 457316, Control_c, 0, 64, 93
1, 457328, Note_off_c, 0, 43, 20
1, 457331, Control_c, 0, 64, 98
1, 457332, Note_off_c, 0, 64, 62
1, 457345, Control_c, 0, 64, 104
1, 457360, Control_c, 0, 64, 116
1, 457375, Control_c, 0, 64, 127
1, 457378, Note_off_c, 0, 69, 55
1, 457484, Note_off_c, 0, 55, 37
1, 457728, Note_on_c, 0, 64, 41
1, 457735, Note_on_c, 0, 60, 35
1, 457736, Note_on_c, 0, 48, 38
1, 457738, Note_on_c, 0, 57, 29
1, 457767, Control_c, 0, 64, 112
1, 457782, Control_c, 0, 64, 94
1, 457798, Control_c, 0, 64, 79
1, 457813, Control_c, 0, 64, 67
1, 457828, Control_c, 0, 64, 55
1, 457843, Control_c, 0, 64, 42
1, 457857, Control_c, 0, 64, 42
1, 457887, Control_c, 0, 64, 44
1, 457902, Control_c, 0, 64, 46
1, 457916, Control_c, 0, 64, 47
1, 457931, Control_c, 0, 64, 49
1, 457946, Control_c, 0, 64, 51
1, 457961, Control_c, 0, 64, 53
1, 457975, Control_c, 0, 64, 55
1, 457990, Control_c, 0, 64, 56
1, 458005, Control_c, 0, 64, 56
1, 458020, Control_c, 0, 64, 57
1, 458035, Control_c, 0, 64, 58
1, 458049, Control_c, 0, 64, 59
1, 458064, Control_c, 0, 64, 60
1, 458079, Control_c, 0, 64, 60
1, 458109, Control_c, 0, 64, 61
1, 458124, Control_c, 0, 64, 61
1, 458138, Control_c, 0, 64, 62
1, 458168, Control_c, 0, 64, 62
1, 458183, Control_c, 0, 64, 63
1, 458198, Control_c, 0, 64, 63
1, 458228, Control_c, 0, 64, 64
1, 458257, Control_c, 0, 64, 64
1, 458272, Control_c, 0, 64, 65
1, 458287, Control_c, 0, 64, 66
1, 458323, Control_c, 0, 64, 66
1, 458338, Control_c, 0, 64, 67
1, 458353, Control_c, 0, 64, 67
1, 458368, Control_c, 0, 64, 68
1, 458377, Note_off_c, 0, 57, 41
1, 458383, Control_c, 0, 64, 69
1, 458398, Control_c, 0, 64, 71
1, 458413, Control_c, 0, 64, 74
1, 458428, Control_c, 0, 64, 77
1, 458434, Note_on_c, 0, 45, 40
1, 458443, Control_c, 0, 64, 80
1, 458445, Note_off_c, 0, 60, 33
1, 458448, Note_off_c, 0, 64, 54
1, 458457, Control_c, 0, 64, 83
1, 458472, Control_c, 0, 64, 85
1, 458477, Note_off_c, 0, 48, 34
1, 458487, Control_c, 0, 64, 88
1, 458501, Control_c, 0, 64, 92
1, 458516, Control_c, 0, 64, 97
1, 458531, Control_c, 0, 64, 102
1, 458546, Control_c, 0, 64, 109
1, 458561, Control_c, 0, 64, 121
1, 458575, Control_c, 0, 64, 127
1, 458586, Note_off_c, 0, 45, 57
1, 458885, Note_on_c, 0, 83, 26
1, 458899, Note_on_c, 0, 71, 31
1, 458959, Poly_aftertouch_c, 0, 81, 127
1, 458997, Poly_aftertouch_c, 0, 81, 0
1, 459047, Note_on_c, 0, 59, 22
1, 459054, Note_on_c, 0, 67, 42
1, 459066, Note_on_c, 0, 64, 27
1, 459101, Note_on_c, 0, 61, 21
1, 459110, Note_on_c, 0, 79, 57
1, 459125, Note_on_c, 0, 73, 48
1, 459154, Note_off_c, 0, 83, 44
1, 459162, Note_off_c, 0, 71, 40
1, 459238, Note_off_c, 0, 64, 45
1, 459298, Note_off_c, 0, 59, 55
1, 459319, Note_off_c, 0, 61, 42
1, 459322, Note_off_c, 0, 79, 63
1, 459330, Note_off_c, 0, 73, 30
1, 459344, Note_off_c, 0, 67, 60
1, 459540, Note_on_c, 0, 63, 46
1, 459555, Note_on_c, 0, 58, 47
1, 459560, Note_on_c, 0, 78, 66
1, 459565, Note_on_c, 0, 66, 54
1, 459566, Note_on_c, 0, 70, 62
1, 459572, Note_on_c, 0, 60, 32
1, 459671, Note_off_c, 0, 63, 60
1, 459724, Note_off_c, 0, 60, 32
1, 459747, Note_off_c, 0, 58, 58
1, 459796, Note_off_c, 0, 66, 64
1, 459829, Note_off_c, 0, 70, 52
1, 459970, Note_on_c, 0, 64, 51
1, 459972, Note_on_c, 0, 61, 29
1, 459984, Note_on_c, 0, 55, 47
1, 459991, Note_on_c, 0, 59, 38
1, 459996, Note_off_c, 0, 78, 64
1, 460014, Control_c, 0, 64, 95
1, 460028, Control_c, 0, 64, 75
1, 460036, Note_on_c, 0, 76, 63
1, 460043, Note_on_c, 0, 67, 53
1, 460043, Control_c, 0, 64, 57
1, 460051, Note_on_c, 0, 71, 29
1, 460058, Control_c, 0, 64, 0
1, 460079, Note_off_c, 0, 71, 51
1, 460088, Control_c, 0, 64, 56
1, 460103, Control_c, 0, 64, 69
1, 460107, Note_off_c, 0, 67, 64
1, 460118, Control_c, 0, 64, 83
1, 460133, Control_c, 0, 64, 109
1, 460147, Control_c, 0, 64, 127
1, 460153, Note_off_c, 0, 76, 67
1, 460175, Note_off_c, 0, 64, 61
1, 460198, Note_off_c, 0, 59, 60
1, 460216, Note_off_c, 0, 55, 60
1, 460247, Note_off_c, 0, 61, 51
1, 460535, Poly_aftertouch_c, 0, 95, 127
1, 460577, Poly_aftertouch_c, 0, 95, 0
1, 460613, Poly_aftertouch_c, 0, 71, 127
1, 460648, Poly_aftertouch_c, 0, 71, 0
1, 461031, Poly_aftertouch_c, 0, 63, 127
1, 461033, Note_on_c, 0, 66, 49
1, 461039, Note_on_c, 0, 70, 32
1, 461039, Note_on_c, 0, 72, 48
1, 461041, Note_on_c, 0, 78, 55
1, 461046, Note_on_c, 0, 58, 37
1, 461053, Note_on_c, 0, 60, 36
1, 461110, Note_off_c, 0, 60, 55
1, 461136, Note_off_c, 0, 66, 60
1, 461150, Poly_aftertouch_c, 0, 63, 0
1, 461167, Note_off_c, 0, 58, 51
1, 461644, Control_c, 0, 64, 109
1, 461655, Note_on_c, 0, 33, 44
1, 461659, Control_c, 0, 64, 89
1, 461674, Control_c, 0, 64, 75
1, 461689, Control_c, 0, 64, 65
1, 461704, Control_c, 0, 64, 66
1, 461719, Control_c, 0, 64, 70
1, 461733, Control_c, 0, 64, 75
1, 461748, Control_c, 0, 64, 86
1, 461763, Control_c, 0, 64, 100
1, 461778, Control_c, 0, 64, 127
1, 461813, Note_off_c, 0, 72, 35
1, 461820, Note_off_c, 0, 78, 60
1, 461823, Control_c, 0, 67, 119
1, 461826, Note_off_c, 0, 33, 61
1, 461838, Control_c, 0, 67, 107
1, 461853, Note_off_c, 0, 70, 42
1, 461853, Control_c, 0, 67, 92
1, 461868, Control_c, 0, 67, 70
1, 461883, Control_c, 0, 67, 49
1, 461897, Control_c, 0, 67, 27
1, 461912, Control_c, 0, 67, 0
1, 462020, Note_on_c, 0, 83, 60
1, 462024, Note_on_c, 0, 71, 48
1, 462172, Note_on_c, 0, 64, 48
1, 462175, Note_on_c, 0, 67, 47
1, 462176, Note_on_c, 0, 59, 40
1, 462215, Note_on_c, 0, 61, 37
1, 462237, Note_on_c, 0, 79, 63
1, 462247, Note_on_c, 0, 73, 56
1, 462302, Note_off_c, 0, 83, 36
1, 462318, Note_off_c, 0, 73, 62
1, 462358, Note_off_c, 0, 64, 60
1, 462437, Note_off_c, 0, 59, 57
1, 462443, Note_off_c, 0, 61, 45
1, 462443, Note_off_c, 0, 67, 58
1, 462538, Note_off_c, 0, 71, 51
1, 462680, Note_on_c, 0, 63, 49
1, 462683, Note_on_c, 0, 59, 43
1, 462684, Note_on_c, 0, 83, 75
1, 462687, Note_on_c, 0, 75, 62
1, 462690, Note_on_c, 0, 66, 56
1, 462690, Control_c, 0, 64, 106
1, 462693, Note_on_c, 0, 71, 53
1, 462694, Note_off_c, 0, 79, 59
1, 462698, Note_on_c, 0, 57, 49
1, 462703, Note_on_c, 0, 69, 55
1, 462705, Control_c, 0, 64, 85
1, 462720, Control_c, 0, 64, 69
1, 462735, Control_c, 0, 64, 49
1, 462750, Control_c, 0, 64, 34
1, 462765, Control_c, 0, 64, 46
1, 462777, Note_off_c, 0, 75, 55
1, 462780, Control_c, 0, 64, 59
1, 462795, Control_c, 0, 64, 66
1, 462817, Control_c, 0, 64, 72
1, 462832, Control_c, 0, 64, 83
1, 462846, Control_c, 0, 64, 101
1, 462854, Note_off_c, 0, 59, 45
1, 462856, Note_off_c, 0, 66, 65
1, 462861, Control_c, 0, 64, 127
1, 462869, Note_off_c, 0, 83, 59
1, 462869, Note_off_c, 0, 63, 59
1, 462877, Note_off_c, 0, 57, 58
1, 462920, Note_off_c, 0, 71, 63
1, 462974, Note_off_c, 0, 69, 57
1, 463104, Note_on_c, 0, 59, 47
1, 463106, Note_on_c, 0, 64, 56
1, 463108, Note_on_c, 0, 55, 57
1, 463127, Control_c, 0, 64, 93
1, 463142, Control_c, 0, 64, 71
1, 463157, Control_c, 0, 64, 0
1, 463173, Note_on_c, 0, 76, 70
1, 463173, Note_on_c, 0, 71, 38
1, 463186, Note_on_c, 0, 67, 61
1, 463201, Control_c, 0, 64, 56
1, 463206, Note_off_c, 0, 71, 63
1, 463215, Control_c, 0, 64, 70
1, 463223, Note_off_c, 0, 67, 66
1, 463230, Control_c, 0, 64, 87
1, 463245, Control_c, 0, 64, 127
1, 463269, Note_off_c, 0, 76, 67
1, 463275, Note_off_c, 0, 64, 61
1, 463275, Control_c, 0, 67, 15
1, 463289, Control_c, 0, 67, 30
1, 463304, Note_off_c, 0, 59, 60
1, 463304, Control_c, 0, 67, 51
1, 463317, Note_off_c, 0, 55, 59
1, 463319, Control_c, 0, 67, 79
1, 463334, Control_c, 0, 67, 112
1, 463349, Control_c, 0, 67, 127
1, 463613, Note_on_c, 0, 95, 58
1, 463640, Note_on_c, 0, 71, 36
1, 463644, Note_on_c, 0, 83, 51
1, 463673, Note_off_c, 0, 95, 65
1, 463689, Note_off_c, 0, 83, 66
1, 463713, Note_off_c, 0, 71, 62
1, 464165, Note_on_c, 0, 70, 47
1, 464168, Note_on_c, 0, 66, 49
1, 464169, Note_on_c, 0, 78, 52
1, 464181, Note_on_c, 0, 58, 42
1, 464280, Note_off_c, 0, 66, 62
1, 464320, Note_off_c, 0, 58, 60
1, 464876, Control_c, 0, 64, 115
1, 464891, Control_c, 0, 64, 91
1, 464906, Control_c, 0, 64, 74
1, 464910, Note_on_c, 0, 42, 39
1, 464920, Note_on_c, 0, 30, 35
1, 464921, Control_c, 0, 64, 60
1, 464935, Control_c, 0, 64, 0
1, 464956, Note_off_c, 0, 70, 34
1, 464981, Control_c, 0, 64, 58
1, 464996, Control_c, 0, 64, 68
1, 465010, Control_c, 0, 64, 81
1, 465025, Control_c, 0, 64, 104
1, 465040, Control_c, 0, 64, 127
1, 465041, Note_off_c, 0, 30, 52
1, 465070, Note_off_c, 0, 78, 57
1, 465079, Note_off_c, 0, 42, 37
1, 465639, Note_on_c, 0, 60, 27
1, 465659, Note_on_c, 0, 67, 41
1, 465665, Note_on_c, 0, 91, 53
1, 465671, Note_on_c, 0, 58, 38
1, 465676, Note_on_c, 0, 64, 34
1, 465686, Note_on_c, 0, 79, 33
1, 465830, Note_off_c, 0, 91, 54
1, 466080, Note_off_c, 0, 79, 57
1, 466264, Note_on_c, 0, 84, 55
1, 466275, Note_on_c, 0, 72, 52
1, 466319, Poly_aftertouch_c, 0, 79, 127
1, 466339, Note_off_c, 0, 58, 57
1, 466344, Note_off_c, 0, 64, 42
1, 466344, Poly_aftertouch_c, 0, 79, 0
1, 466348, Note_off_c, 0, 60, 40
1, 466359, Note_off_c, 0, 72, 59
1, 466402, Note_off_c, 0, 67, 60
1, 466407, Note_off_c, 0, 84, 64
1, 466731, Note_on_c, 0, 69, 26
1, 466744, Note_on_c, 0, 90, 61
1, 466745, Note_on_c, 0, 66, 53
1, 466747, Note_on_c, 0, 74, 37
1, 466769, Note_on_c, 0, 78, 49
1, 466873, Note_off_c, 0, 90, 63
1, 466936, Note_off_c, 0, 74, 41
1, 466954, Note_off_c, 0, 78, 59
1, 467168, Note_off_c, 0, 66, 43
1, 467196, Note_on_c, 0, 72, 49
1, 467206, Note_on_c, 0, 88, 63
1, 467210, Note_on_c, 0, 64, 43
1, 467221, Note_off_c, 0, 69, 39
1, 467223, Note_on_c, 0, 76, 40
1, 467224, Note_on_c, 0, 67, 30
1, 467241, Note_off_c, 0, 72, 63
1, 467261, Note_off_c, 0, 67, 62
1, 467269, Note_off_c, 0, 88, 61
1, 467281, Note_off_c, 0, 64, 62
1, 467412, Note_off_c, 0, 76, 66
1, 467642, Note_on_c, 0, 79, 64
1, 467642, Note_on_c, 0, 72, 55
1, 467649, Note_on_c, 0, 64, 29
1, 467657, Note_on_c, 0, 76, 45
1, 467663, Note_on_c, 0, 58, 46
1, 467674, Note_on_c, 0, 67, 50
1, 467693, Note_off_c, 0, 64, 50
1, 467741, Note_off_c, 0, 58, 63
1, 468117, Control_c, 0, 64, 124
1, 468119, Note_on_c, 0, 33, 48
1, 468131, Control_c, 0, 64, 99
1, 468145, Control_c, 0, 64, 87
1, 468160, Control_c, 0, 64, 77
1, 468176, Control_c, 0, 64, 64
1, 468191, Control_c, 0, 64, 0
1, 468250, Control_c, 0, 64, 20
1, 468262, Note_off_c, 0, 76, 53
1, 468265, Control_c, 0, 64, 65
1, 468268, Note_off_c, 0, 72, 64
1, 468280, Control_c, 0, 64, 82
1, 468295, Control_c, 0, 64, 117
1, 468301, Note_off_c, 0, 79, 58
1, 468309, Poly_aftertouch_c, 0, 77, 127
1, 468309, Control_c, 0, 64, 127
1, 468345, Poly_aftertouch_c, 0, 77, 0
1, 468385, Note_off_c, 0, 67, 61
1, 468503, Note_off_c, 0, 33, 62
1, 468570, Note_on_c, 0, 72, 67
1, 468595, Note_on_c, 0, 64, 29
1, 468611, Note_on_c, 0, 60, 39
1, 468618, Note_on_c, 0, 67, 9
1, 468630, Note_off_c, 0, 64, 51
1, 468658, Note_off_c, 0, 60, 61
1, 468666, Note_off_c, 0, 67, 52
1, 468691, Note_off_c, 0, 72, 64
1, 468986, Note_on_c, 0, 57, 47
1, 468996, Note_on_c, 0, 62, 41
1, 469007, Note_on_c, 0, 78, 60
1, 469029, Note_on_c, 0, 66, 53
1, 469097, Note_off_c, 0, 78, 63
1, 469181, Note_off_c, 0, 66, 57
1, 469375, Note_off_c, 0, 57, 34
1, 469398, Note_on_c, 0, 55, 46
1, 469414, Note_on_c, 0, 60, 37
1, 469454, Note_off_c, 0, 60, 58
1, 469457, Note_off_c, 0, 62, 33
1, 469466, Note_on_c, 0, 76, 62
1, 469490, Note_on_c, 0, 64, 44
1, 469491, Note_off_c, 0, 55, 61
1, 469550, Note_off_c, 0, 76, 59
1, 469660, Note_off_c, 0, 64, 64
1, 469935, Note_on_c, 0, 46, 40
1, 469952, Note_on_c, 0, 52, 40
1, 470004, Note_on_c, 0, 67, 52
1, 470005, Note_off_c, 0, 52, 60
1, 470017, Note_on_c, 0, 60, 33
1, 470019, Note_on_c, 0, 55, 34
1, 470035, Note_on_c, 0, 64, 34
1, 470056, Note_off_c, 0, 46, 60
1, 470477, Note_on_c, 0, 42, 59
1, 470570, Control_c, 0, 67, 125
1, 470586, Control_c, 0, 67, 121
1, 470601, Control_c, 0, 67, 115
1, 470616, Control_c, 0, 67, 110
1, 470630, Control_c, 0, 67, 103
1, 470645, Control_c, 0, 67, 96
1, 470660, Control_c, 0, 67, 86
1, 470675, Control_c, 0, 67, 76
1, 470690, Control_c, 0, 67, 65
1, 470704, Control_c, 0, 67, 54
1, 470719, Control_c, 0, 67, 42
1, 470734, Control_c, 0, 67, 32
1, 470748, Control_c, 0, 67, 21
1, 470763, Control_c, 0, 67, 9
1, 470778, Control_c, 0, 67, 0
1, 470792, Note_off_c, 0, 60, 38
1, 470855, Note_off_c, 0, 64, 41
1, 470912, Control_c, 0, 64, 109
1, 470927, Control_c, 0, 64, 92
1, 470941, Control_c, 0, 64, 75
1, 470956, Control_c, 0, 64, 53
1, 470971, Control_c, 0, 64, 0
1, 471016, Note_on_c, 0, 30, 48
1, 471067, Control_c, 0, 64, 30
1, 471082, Control_c, 0, 64, 64
1, 471096, Control_c, 0, 64, 70
1, 471111, Control_c, 0, 64, 77
1, 471118, Note_off_c, 0, 67, 55
1, 471120, Note_off_c, 0, 42, 57
1, 471126, Control_c, 0, 64, 83
1, 471132, Note_off_c, 0, 55, 53
1, 471142, Control_c, 0, 64, 88
1, 471156, Control_c, 0, 64, 96
1, 471171, Control_c, 0, 64, 108
1, 471186, Control_c, 0, 64, 127
1, 471324, Note_on_c, 0, 60, 61
1, 471338, Note_on_c, 0, 52, 45
1, 471482, Note_off_c, 0, 52, 37
1, 471724, Note_on_c, 0, 64, 40
1, 471731, Note_on_c, 0, 67, 62
1, 471785, Note_off_c, 0, 60, 56
1, 472196, Note_on_c, 0, 42, 60
1, 472261, Note_off_c, 0, 67, 53
1, 472313, Note_off_c, 0, 30, 53
1, 472357, Note_off_c, 0, 42, 62
1, 472419, Note_off_c, 0, 64, 62
1, 472434, Note_on_c, 0, 59, 64
1, 472441, Note_on_c, 0, 52, 45
1, 472495, Note_off_c, 0, 52, 58
1, 472608, Note_on_c, 0, 54, 50
1, 472696, Note_off_c, 0, 59, 62
1, 472702, Note_on_c, 0, 67, 65
1, 472705, Note_on_c, 0, 64, 52
1, 472886, Note_off_c, 0, 67, 56
1, 472962, Note_on_c, 0, 58, 71
1, 472962, Note_off_c, 0, 64, 64
1, 473250, Note_off_c, 0, 58, 59
1, 473337, Note_on_c, 0, 63, 69
1, 473342, Note_on_c, 0, 64, 50
1, 473356, Note_on_c, 0, 67, 53
1, 473405, Note_off_c, 0, 54, 60
1, 473639, Control_c, 0, 67, 11
1, 473654, Control_c, 0, 67, 18
1, 473669, Control_c, 0, 67, 27
1, 473684, Control_c, 0, 67, 42
1, 473699, Control_c, 0, 67, 57
1, 473714, Control_c, 0, 67, 73
1, 473729, Control_c, 0, 67, 91
1, 473743, Control_c, 0, 67, 110
1, 473758, Control_c, 0, 67, 127
1, 473892, Note_on_c, 0, 42, 52
1, 473907, Control_c, 0, 64, 98
1, 473922, Control_c, 0, 64, 83
1, 473937, Control_c, 0, 64, 70
1, 473952, Control_c, 0, 64, 50
1, 473966, Control_c, 0, 64, 0
1, 474152, Control_c, 0, 64, 22
1, 474167, Control_c, 0, 64, 46
1, 474182, Control_c, 0, 64, 54
1, 474197, Control_c, 0, 64, 58
1, 474212, Control_c, 0, 64, 59
1, 474226, Control_c, 0, 64, 60
1, 474241, Control_c, 0, 64, 61
1, 474256, Control_c, 0, 64, 62
1, 474271, Control_c, 0, 64, 63
1, 474286, Control_c, 0, 64, 64
1, 474315, Control_c, 0, 64, 64
1, 474360, Control_c, 0, 64, 65
1, 474374, Control_c, 0, 64, 65
1, 474389, Control_c, 0, 64, 66
1, 474404, Control_c, 0, 64, 66
1, 474418, Control_c, 0, 64, 67
1, 474448, Control_c, 0, 64, 67
1, 474463, Control_c, 0, 64, 68
1, 474474, Note_on_c, 0, 30, 41
1, 474478, Control_c, 0, 64, 68
1, 474492, Control_c, 0, 64, 70
1, 474507, Control_c, 0, 64, 71
1, 474522, Control_c, 0, 64, 71
1, 474537, Control_c, 0, 64, 72
1, 474552, Control_c, 0, 64, 73
1, 474568, Control_c, 0, 64, 74
1, 474574, Note_off_c, 0, 42, 37
1, 474583, Control_c, 0, 64, 75
1, 474597, Control_c, 0, 64, 75
1, 474612, Control_c, 0, 64, 76
1, 474627, Control_c, 0, 64, 77
1, 474641, Control_c, 0, 64, 78
1, 474656, Control_c, 0, 64, 80
1, 474671, Control_c, 0, 64, 81
1, 474686, Control_c, 0, 64, 82
1, 474701, Control_c, 0, 64, 84
1, 474715, Control_c, 0, 64, 86
1, 474730, Control_c, 0, 64, 88
1, 474745, Control_c, 0, 64, 91
1, 474760, Control_c, 0, 64, 95
1, 474775, Control_c, 0, 64, 98
1, 474790, Note_off_c, 0, 67, 18
1, 474797, Control_c, 0, 64, 103
1, 474812, Control_c, 0, 64, 111
1, 474827, Control_c, 0, 64, 127
1, 474929, Note_off_c, 0, 64, 54
1, 474932, Note_off_c, 0, 63, 59
1, 475028, Note_on_c, 0, 42, 41
1, 475079, Note_off_c, 0, 30, 40
1, 475139, Note_off_c, 0, 42, 57
1, 475337, Note_on_c, 0, 52, 38
1, 475341, Note_on_c, 0, 58, 42
1, 475402, Note_off_c, 0, 52, 53
1, 475495, Note_off_c, 0, 58, 38
1, 475699, Note_on_c, 0, 62, 48
1, 475702, Note_on_c, 0, 54, 39
1, 475713, Note_on_c, 0, 67, 35
1, 475743, Note_on_c, 0, 64, 27
1, 475777, Note_off_c, 0, 67, 42
1, 475797, Note_off_c, 0, 64, 50
1, 475806, Note_off_c, 0, 62, 59
1, 475827, Note_off_c, 0, 54, 51
1, 476074, Note_on_c, 0, 58, 54
1, 476087, Note_on_c, 0, 52, 35
1, 476129, Note_off_c, 0, 52, 51
1, 476233, Note_off_c, 0, 58, 51
1, 476588, Note_on_c, 0, 61, 48
1, 476590, Control_c, 0, 64, 112
1, 476596, Note_on_c, 0, 66, 49
1, 476602, Note_on_c, 0, 35, 40
1, 476602, Note_on_c, 0, 63, 43
1, 476605, Control_c, 0, 64, 92
1, 476620, Control_c, 0, 64, 76
1, 476635, Control_c, 0, 64, 60
1, 476650, Control_c, 0, 64, 0
1, 476738, Control_c, 0, 64, 47
1, 476753, Control_c, 0, 64, 65
1, 476768, Control_c, 0, 64, 70
1, 476783, Control_c, 0, 64, 76
1, 476798, Control_c, 0, 64, 81
1, 476812, Control_c, 0, 64, 84
1, 476821, Note_off_c, 0, 66, 37
1, 476827, Control_c, 0, 64, 89
1, 476842, Control_c, 0, 64, 95
1, 476857, Control_c, 0, 64, 103
1, 476872, Control_c, 0, 64, 112
1, 476886, Control_c, 0, 64, 127
1, 476897, Note_off_c, 0, 63, 25
1, 476927, Note_off_c, 0, 61, 54
1, 477321, Note_on_c, 0, 59, 40
1, 477340, Note_on_c, 0, 51, 40
1, 477348, Note_on_c, 0, 42, 31
1, 477549, Note_off_c, 0, 51, 37
1, 477607, Note_off_c, 0, 59, 43
1, 477677, Note_off_c, 0, 35, 31
1, 477962, Note_off_c, 0, 42, 37
1, 478131, Note_on_c, 0, 59, 21
1, 478166, Note_on_c, 0, 51, 30
1, 478688, Control_c, 0, 67, 126
1, 478703, Control_c, 0, 67, 119
1, 478718, Control_c, 0, 67, 109
1, 478733, Control_c, 0, 67, 95
1, 478747, Control_c, 0, 67, 82
1, 478762, Control_c, 0, 67, 70
1, 478777, Control_c, 0, 67, 60
1, 478792, Control_c, 0, 67, 50
1, 478807, Control_c, 0, 67, 41
1, 478821, Control_c, 0, 67, 31
1, 478836, Control_c, 0, 67, 18
1, 478851, Control_c, 0, 67, 9
1, 478866, Control_c, 0, 67, 0
1, 479009, Note_off_c, 0, 51, 44
1, 479070, Note_on_c, 0, 35, 40
1, 479073, Control_c, 0, 64, 99
1, 479088, Control_c, 0, 64, 82
1, 479103, Control_c, 0, 64, 68
1, 479113, Note_off_c, 0, 59, 42
1, 479118, Control_c, 0, 64, 51
1, 479132, Control_c, 0, 64, 44
1, 479147, Control_c, 0, 64, 59
1, 479162, Control_c, 0, 64, 66
1, 479177, Control_c, 0, 64, 75
1, 479192, Control_c, 0, 64, 91
1, 479206, Control_c, 0, 64, 127
1, 479291, Note_off_c, 0, 35, 47
1, 479704, Note_on_c, 0, 77, 34
1, 479708, Note_on_c, 0, 65, 41
1, 479708, Note_on_c, 0, 81, 63
1, 479715, Note_on_c, 0, 69, 41
1, 479724, Note_on_c, 0, 62, 32
1, 479732, Note_on_c, 0, 57, 26
1, 479793, Poly_aftertouch_c, 0, 74, 127
1, 479819, Note_off_c, 0, 77, 51
1, 479827, Poly_aftertouch_c, 0, 74, 0
1, 479920, Note_off_c, 0, 81, 50
1, 479932, Note_off_c, 0, 62, 40
1, 480039, Note_off_c, 0, 69, 62
1, 480210, Note_on_c, 0, 61, 39
1, 480211, Note_on_c, 0, 80, 64
1, 480216, Note_on_c, 0, 68, 58
1, 480227, Note_on_c, 0, 76, 46
1, 480236, Note_on_c, 0, 64, 37
1, 480311, Note_off_c, 0, 76, 61
1, 480436, Note_off_c, 0, 64, 62
1, 480505, Note_off_c, 0, 65, 40
1, 480518, Note_off_c, 0, 57, 37
1, 480587, Note_off_c, 0, 80, 62
1, 480588, Note_off_c, 0, 68, 64
1, 480602, Note_off_c, 0, 61, 50
1, 480629, Note_on_c, 0, 63, 45
1, 480630, Note_on_c, 0, 57, 41
1, 480643, Note_on_c, 0, 60, 42
1, 480674, Control_c, 0, 64, 117
1, 480689, Control_c, 0, 64, 89
1, 480694, Note_on_c, 0, 75, 33
1, 480695, Note_on_c, 0, 79, 67
1, 480701, Note_on_c, 0, 67, 58
1, 480704, Control_c, 0, 64, 69
1, 480719, Control_c, 0, 64, 0
1, 480737, Note_off_c, 0, 75, 48
1, 480749, Control_c, 0, 64, 45
1, 480764, Control_c, 0, 64, 65
1, 480785, Control_c, 0, 64, 75
1, 480800, Control_c, 0, 64, 92
1, 480804, Note_off_c, 0, 67, 64
1, 480815, Control_c, 0, 64, 127
1, 480844, Note_off_c, 0, 79, 65
1, 480893, Note_off_c, 0, 60, 56
1, 480939, Note_off_c, 0, 63, 63
1, 481102, Note_on_c, 0, 95, 52
1, 481131, Note_on_c, 0, 83, 58
1, 481148, Note_on_c, 0, 71, 32
1, 481173, Note_off_c, 0, 95, 65
1, 481201, Note_off_c, 0, 83, 66
1, 481398, Note_off_c, 0, 71, 42
1, 481628, Note_on_c, 0, 68, 50
1, 481634, Note_on_c, 0, 64, 37
1, 481635, Note_on_c, 0, 80, 54
1, 481637, Note_off_c, 0, 57, 37
1, 481638, Note_on_c, 0, 61, 44
1, 481640, Note_on_c, 0, 73, 41
1, 481641, Note_on_c, 0, 76, 43
1, 481700, Note_off_c, 0, 64, 55
1, 481738, Note_off_c, 0, 61, 54
1, 482253, Note_on_c, 0, 35, 49
1, 482262, Control_c, 0, 64, 108
1, 482284, Control_c, 0, 64, 88
1, 482299, Control_c, 0, 64, 74
1, 482314, Control_c, 0, 64, 63
1, 482329, Control_c, 0, 64, 46
1, 482343, Control_c, 0, 64, 45
1, 482358, Control_c, 0, 64, 54
1, 482372, Control_c, 0, 64, 63
1, 482387, Control_c, 0, 64, 69
1, 482402, Control_c, 0, 64, 83
1, 482416, Control_c, 0, 64, 127
1, 482460, Note_off_c, 0, 35, 62
1, 482485, Note_off_c, 0, 76, 58
1, 482510, Note_off_c, 0, 73, 37
1, 482514, Note_off_c, 0, 80, 60
1, 482528, Note_off_c, 0, 68, 63
1, 482729, Note_on_c, 0, 81, 88
1, 482732, Note_on_c, 0, 77, 20
1, 482736, Note_on_c, 0, 57, 57
1, 482737, Note_on_c, 0, 65, 62
1, 482737, Note_on_c, 0, 69, 71
1, 482738, Note_on_c, 0, 62, 42
1, 482774, Note_off_c, 0, 77, 46
1, 482850, Note_off_c, 0, 62, 61
1, 482939, Note_off_c, 0, 69, 60
1, 482956, Note_off_c, 0, 65, 63
1, 482981, Note_off_c, 0, 81, 67
1, 483185, Note_on_c, 0, 61, 39
1, 483201, Note_on_c, 0, 64, 38
1, 483214, Note_on_c, 0, 68, 63
1, 483215, Note_on_c, 0, 85, 80
1, 483225, Note_on_c, 0, 73, 73
1, 483284, Note_off_c, 0, 64, 60
1, 483341, Note_off_c, 0, 85, 64
1, 483359, Note_off_c, 0, 57, 60
1, 483390, Note_off_c, 0, 68, 60
1, 483484, Note_off_c, 0, 73, 64
1, 483486, Note_off_c, 0, 61, 30
1, 483608, Note_on_c, 0, 63, 59
1, 483617, Note_on_c, 0, 57, 45
1, 483621, Note_on_c, 0, 60, 43
1, 483670, Control_c, 0, 64, 88
1, 483675, Note_on_c, 0, 67, 73
1, 483675, Note_on_c, 0, 72, 48
1, 483677, Note_on_c, 0, 79, 75
1, 483685, Control_c, 0, 64, 68
1, 483686, Note_on_c, 0, 75, 22
1, 483700, Control_c, 0, 64, 0
1, 483711, Note_off_c, 0, 72, 52
1, 483721, Note_off_c, 0, 75, 56
1, 483729, Control_c, 0, 64, 57
1, 483744, Control_c, 0, 64, 70
1, 483759, Control_c, 0, 64, 86
1, 483779, Note_off_c, 0, 67, 64
1, 483781, Control_c, 0, 64, 127
1, 483812, Note_off_c, 0, 79, 65
1, 483884, Note_off_c, 0, 63, 62
1, 483989, Control_c, 0, 67, 15
1, 484004, Control_c, 0, 67, 26
1, 484015, Note_off_c, 0, 60, 31
1, 484019, Control_c, 0, 67, 41
1, 484034, Control_c, 0, 67, 60
1, 484048, Control_c, 0, 67, 82
1, 484063, Control_c, 0, 67, 106
1, 484078, Control_c, 0, 67, 127
1, 484117, Note_on_c, 0, 95, 57
1, 484147, Note_on_c, 0, 71, 47
1, 484157, Note_on_c, 0, 83, 40
1, 484168, Note_off_c, 0, 95, 62
1, 484203, Note_off_c, 0, 83, 65
1, 484382, Note_off_c, 0, 71, 37
1, 484706, Note_on_c, 0, 64, 38
1, 484710, Note_on_c, 0, 68, 48
1, 484712, Note_on_c, 0, 80, 56
1, 484713, Note_on_c, 0, 61, 45
1, 484725, Note_on_c, 0, 73, 39
1, 484729, Note_on_c, 0, 76, 40
1, 484746, Note_off_c, 0, 57, 39
1, 484793, Note_off_c, 0, 64, 53
1, 484839, Note_off_c, 0, 61, 47
1, 485339, Control_c, 0, 64, 106
1, 485342, Note_on_c, 0, 31, 42
1, 485354, Control_c, 0, 64, 85
1, 485369, Control_c, 0, 64, 68
1, 485383, Control_c, 0, 64, 0
1, 485472, Control_c, 0, 64, 20
1, 485487, Control_c, 0, 64, 58
1, 485501, Control_c, 0, 64, 66
1, 485516, Control_c, 0, 64, 72
1, 485531, Control_c, 0, 64, 80
1, 485546, Control_c, 0, 64, 89
1, 485561, Control_c, 0, 64, 94
1, 485566, Note_off_c, 0, 80, 37
1, 485575, Control_c, 0, 64, 100
1, 485590, Control_c, 0, 64, 108
1, 485605, Control_c, 0, 64, 121
1, 485620, Control_c, 0, 64, 127
1, 485622, Note_off_c, 0, 76, 33
1, 485661, Note_off_c, 0, 73, 42
1, 485758, Note_off_c, 0, 68, 50
1, 486035, Note_on_c, 0, 43, 34
1, 486416, Note_on_c, 0, 56, 37
1, 486463, Note_off_c, 0, 31, 38
1, 486567, Note_off_c, 0, 43, 40
1, 486760, Note_on_c, 0, 57, 35
1, 486794, Note_off_c, 0, 56, 36
1, 487036, Note_on_c, 0, 65, 45
1, 487042, Note_on_c, 0, 67, 41
1, 487075, Note_on_c, 0, 55, 33
1, 487076, Note_on_c, 0, 53, 25
1, 487140, Note_off_c, 0, 57, 31
1, 487310, Note_on_c, 0, 58, 50
1, 487417, Note_off_c, 0, 65, 45
1, 487524, Note_off_c, 0, 67, 41
1, 487542, Note_off_c, 0, 58, 63
1, 487560, Note_on_c, 0, 59, 57
1, 487588, Note_off_c, 0, 55, 41
1, 487763, Control_c, 0, 64, 108
1, 487768, Note_on_c, 0, 55, 41
1, 487771, Note_on_c, 0, 65, 44
1, 487772, Note_on_c, 0, 67, 44
1, 487773, Note_on_c, 0, 69, 57
1, 487778, Control_c, 0, 64, 87
1, 487781, Note_on_c, 0, 57, 45
1, 487793, Control_c, 0, 64, 72
1, 487807, Control_c, 0, 64, 61
1, 487822, Control_c, 0, 64, 54
1, 487825, Note_off_c, 0, 59, 33
1, 487837, Control_c, 0, 64, 62
1, 487852, Control_c, 0, 64, 66
1, 487867, Control_c, 0, 64, 71
1, 487882, Control_c, 0, 64, 81
1, 487896, Control_c, 0, 64, 92
1, 487911, Control_c, 0, 64, 100
1, 487926, Control_c, 0, 64, 109
1, 487941, Control_c, 0, 64, 127
1, 487997, Note_off_c, 0, 53, 15
1, 488001, Note_on_c, 0, 61, 59
1, 488019, Note_off_c, 0, 57, 59
1, 488040, Note_off_c, 0, 55, 58
1, 488075, Note_off_c, 0, 65, 44
1, 488076, Note_off_c, 0, 67, 34
1, 488164, Note_off_c, 0, 69, 22
1, 488187, Note_off_c, 0, 61, 60
1, 488219, Note_on_c, 0, 62, 64
1, 488399, Note_on_c, 0, 56, 58
1, 488410, Note_on_c, 0, 58, 49
1, 488412, Note_on_c, 0, 68, 60
1, 488416, Note_off_c, 0, 62, 61
1, 488416, Note_on_c, 0, 70, 68
1, 488425, Note_on_c, 0, 65, 40
1, 488433, Note_off_c, 0, 56, 64
1, 488437, Note_off_c, 0, 58, 64
1, 488459, Note_off_c, 0, 65, 51
1, 488636, Note_off_c, 0, 68, 63
1, 488641, Note_on_c, 0, 31, 55
1, 488645, Control_c, 0, 64, 126
1, 488659, Note_on_c, 0, 66, 66
1, 488660, Control_c, 0, 64, 89
1, 488663, Note_off_c, 0, 70, 63
1, 488666, Note_on_c, 0, 63, 60
1, 488675, Control_c, 0, 64, 67
1, 488689, Control_c, 0, 64, 0
1, 488749, Control_c, 0, 64, 59
1, 488764, Control_c, 0, 64, 68
1, 488778, Control_c, 0, 64, 77
1, 488793, Control_c, 0, 64, 85
1, 488808, Control_c, 0, 64, 91
1, 488823, Control_c, 0, 64, 96
1, 488838, Control_c, 0, 64, 104
1, 488849, Note_off_c, 0, 63, 63
1, 488852, Control_c, 0, 64, 114
1, 488867, Control_c, 0, 64, 127
1, 488875, Note_on_c, 0, 69, 46
1, 488881, Note_off_c, 0, 66, 52
1, 488884, Note_on_c, 0, 74, 64
1, 489075, Note_off_c, 0, 69, 59
1, 489077, Note_off_c, 0, 74, 39
1, 489106, Note_on_c, 0, 67, 51
1, 489122, Note_on_c, 0, 64, 43
1, 489133, Note_off_c, 0, 67, 64
1, 489162, Note_off_c, 0, 64, 65
1, 489322, Note_on_c, 0, 60, 59
1, 489339, Note_on_c, 0, 43, 48
1, 489349, Control_c, 0, 64, 96
1, 489364, Control_c, 0, 64, 78
1, 489379, Control_c, 0, 64, 62
1, 489393, Control_c, 0, 64, 0
1, 489453, Control_c, 0, 64, 22
1, 489468, Control_c, 0, 64, 26
1, 489548, Note_off_c, 0, 60, 58
1, 489557, Control_c, 0, 64, 27
1, 489560, Note_on_c, 0, 51, 48
1, 489572, Control_c, 0, 64, 34
1, 489586, Control_c, 0, 64, 41
1, 489601, Control_c, 0, 64, 47
1, 489616, Control_c, 0, 64, 52
1, 489631, Control_c, 0, 64, 58
1, 489646, Control_c, 0, 64, 60
1, 489660, Control_c, 0, 64, 62
1, 489675, Control_c, 0, 64, 63
1, 489690, Control_c, 0, 64, 63
1, 489705, Control_c, 0, 64, 64
1, 489719, Control_c, 0, 64, 64
1, 489734, Control_c, 0, 64, 65
1, 489772, Control_c, 0, 64, 65
1, 489787, Control_c, 0, 64, 66
1, 489802, Control_c, 0, 64, 67
1, 489817, Control_c, 0, 64, 70
1, 489829, Note_on_c, 0, 59, 44
1, 489831, Control_c, 0, 64, 74
1, 489835, Note_on_c, 0, 54, 38
1, 489846, Control_c, 0, 64, 77
1, 489861, Control_c, 0, 64, 79
1, 489876, Control_c, 0, 64, 81
1, 489885, Note_off_c, 0, 51, 38
1, 489891, Control_c, 0, 64, 83
1, 489906, Control_c, 0, 64, 85
1, 489921, Control_c, 0, 64, 87
1, 489926, Note_off_c, 0, 54, 37
1, 489936, Control_c, 0, 64, 89
1, 489950, Control_c, 0, 64, 91
1, 489965, Control_c, 0, 64, 93
1, 489980, Control_c, 0, 64, 95
1, 489995, Control_c, 0, 64, 97
1, 490010, Control_c, 0, 64, 99
1, 490024, Control_c, 0, 64, 101
1, 490039, Control_c, 0, 64, 104
1, 490054, Control_c, 0, 64, 106
1, 490069, Control_c, 0, 64, 107
1, 490084, Control_c, 0, 64, 107
1, 490098, Control_c, 0, 64, 108
1, 490098, Control_c, 0, 67, 125
1, 490113, Control_c, 0, 67, 121
1, 490128, Control_c, 0, 64, 107
1, 490128, Control_c, 0, 67, 118
1, 490134, Note_on_c, 0, 55, 45
1, 490142, Control_c, 0, 64, 99
1, 490142, Control_c, 0, 67, 115
1, 490157, Control_c, 0, 64, 88
1, 490157, Control_c, 0, 67, 113
1, 490172, Control_c, 0, 64, 76
1, 490172, Control_c, 0, 67, 111
1, 490187, Control_c, 0, 64, 64
1, 490187, Control_c, 0, 67, 108
1, 490201, Note_off_c, 0, 59, 29
1, 490202, Control_c, 0, 64, 38
1, 490202, Control_c, 0, 67, 106
1, 490216, Control_c, 0, 64, 45
1, 490216, Control_c, 0, 67, 102
1, 490231, Control_c, 0, 64, 59
1, 490231, Control_c, 0, 67, 96
1, 490246, Control_c, 0, 64, 64
1, 490246, Control_c, 0, 67, 88
1, 490261, Control_c, 0, 64, 67
1, 490261, Control_c, 0, 67, 80
1, 490276, Control_c, 0, 64, 71
1, 490276, Control_c, 0, 67, 71
1, 490291, Control_c, 0, 64, 77
1, 490291, Control_c, 0, 67, 59
1, 490305, Control_c, 0, 64, 83
1, 490305, Control_c, 0, 67, 45
1, 490320, Control_c, 0, 64, 88
1, 490320, Control_c, 0, 67, 31
1, 490335, Control_c, 0, 64, 90
1, 490335, Control_c, 0, 67, 17
1, 490350, Control_c, 0, 64, 92
1, 490350, Control_c, 0, 67, 0
1, 490365, Control_c, 0, 64, 94
1, 490368, Note_off_c, 0, 31, 38
1, 490380, Control_c, 0, 64, 96
1, 490392, Note_off_c, 0, 43, 48
1, 490395, Control_c, 0, 64, 99
1, 490410, Control_c, 0, 64, 101
1, 490424, Control_c, 0, 64, 104
1, 490439, Control_c, 0, 64, 107
1, 490454, Control_c, 0, 64, 112
1, 490468, Control_c, 0, 64, 116
1, 490483, Control_c, 0, 64, 122
1, 490498, Control_c, 0, 64, 127
1, 490738, Note_on_c, 0, 43, 37
1, 490908, Note_off_c, 0, 43, 29
1, 491039, Control_c, 0, 67, 9
1, 491054, Control_c, 0, 67, 18
1, 491069, Control_c, 0, 67, 32
1, 491084, Control_c, 0, 67, 51
1, 491098, Control_c, 0, 67, 71
1, 491113, Control_c, 0, 67, 90
1, 491128, Control_c, 0, 67, 107
1, 491143, Control_c, 0, 67, 123
1, 491158, Control_c, 0, 67, 127
1, 491448, Control_c, 0, 64, 109
1, 491449, Note_on_c, 0, 31, 41
1, 491463, Control_c, 0, 64, 93
1, 491477, Control_c, 0, 64, 79
1, 491492, Control_c, 0, 64, 67
1, 491507, Control_c, 0, 64, 55
1, 491522, Control_c, 0, 64, 57
1, 491537, Control_c, 0, 64, 63
1, 491551, Control_c, 0, 64, 65
1, 491566, Control_c, 0, 64, 69
1, 491581, Control_c, 0, 64, 76
1, 491596, Control_c, 0, 64, 86
1, 491611, Control_c, 0, 64, 95
1, 491626, Control_c, 0, 64, 100
1, 491641, Control_c, 0, 64, 106
1, 491656, Control_c, 0, 64, 114
1, 491670, Control_c, 0, 64, 127
1, 491760, Note_off_c, 0, 31, 37
1, 492256, Control_c, 0, 64, 120
1, 492270, Control_c, 0, 64, 94
1, 492273, Note_on_c, 0, 28, 43
1, 492285, Control_c, 0, 64, 77
1, 492300, Control_c, 0, 64, 63
1, 492315, Control_c, 0, 64, 0
1, 492336, Note_off_c, 0, 55, 57
1, 492344, Control_c, 0, 64, 52
1, 492359, Control_c, 0, 64, 64
1, 492374, Control_c, 0, 64, 70
1, 492389, Control_c, 0, 64, 78
1, 492404, Control_c, 0, 64, 89
1, 492419, Control_c, 0, 64, 99
1, 492434, Control_c, 0, 64, 117
1, 492446, Note_off_c, 0, 28, 54
1, 492449, Control_c, 0, 64, 127
1, 492881, Note_on_c, 0, 86, 57
1, 492884, Note_on_c, 0, 82, 46
1, 492893, Note_on_c, 0, 52, 39
1, 492893, Note_on_c, 0, 62, 37
1, 492908, Note_on_c, 0, 74, 22
1, 492911, Note_on_c, 0, 58, 28
1, 492917, Note_on_c, 0, 55, 28
1, 492961, Poly_aftertouch_c, 0, 79, 127
1, 492986, Poly_aftertouch_c, 0, 79, 0
1, 492994, Note_off_c, 0, 82, 53
1, 493104, Note_off_c, 0, 58, 41
1, 493137, Note_off_c, 0, 86, 57
1, 493219, Note_off_c, 0, 62, 60
1, 493223, Note_off_c, 0, 52, 53
1, 493232, Note_off_c, 0, 74, 56
1, 493257, Note_off_c, 0, 55, 46
1, 493363, Note_on_c, 0, 73, 66
1, 493367, Note_on_c, 0, 85, 72
1, 493370, Note_on_c, 0, 54, 52
1, 493394, Note_on_c, 0, 61, 39
1, 493423, Note_on_c, 0, 57, 26
1, 493587, Note_off_c, 0, 54, 33
1, 493608, Note_off_c, 0, 57, 43
1, 493683, Note_off_c, 0, 61, 59
1, 493709, Note_off_c, 0, 85, 38
1, 493773, Note_off_c, 0, 73, 59
1, 493791, Note_on_c, 0, 60, 46
1, 493800, Note_on_c, 0, 53, 47
1, 493802, Note_on_c, 0, 52, 38
1, 493809, Note_on_c, 0, 57, 31
1, 493842, Control_c, 0, 64, 112
1, 493844, Note_on_c, 0, 81, 50
1, 493857, Control_c, 0, 64, 84
1, 493866, Note_on_c, 0, 72, 75
1, 493870, Note_on_c, 0, 84, 71
1, 493872, Control_c, 0, 64, 66
1, 493883, Note_off_c, 0, 81, 55
1, 493887, Control_c, 0, 64, 0
1, 493916, Control_c, 0, 64, 63
1, 493931, Control_c, 0, 64, 73
1, 493944, Note_off_c, 0, 72, 65
1, 493946, Control_c, 0, 64, 90
1, 493961, Control_c, 0, 64, 124
1, 493972, Note_off_c, 0, 57, 58
1, 493976, Control_c, 0, 64, 127
1, 493980, Note_off_c, 0, 60, 60
1, 493984, Note_off_c, 0, 53, 56
1, 493984, Note_off_c, 0, 84, 65
1, 494005, Note_off_c, 0, 52, 61
1, 494310, Note_on_c, 0, 76, 51
1, 494317, Note_on_c, 0, 100, 58
1, 494330, Note_on_c, 0, 88, 56
1, 494345, Note_off_c, 0, 100, 67
1, 494364, Note_off_c, 0, 76, 65
1, 494380, Note_off_c, 0, 88, 64
1, 494825, Note_on_c, 0, 73, 51
1, 494827, Note_on_c, 0, 85, 59
1, 494833, Note_on_c, 0, 61, 45
1, 494837, Note_on_c, 0, 81, 48
1, 494842, Note_on_c, 0, 54, 42
1, 494842, Note_on_c, 0, 78, 40
1, 494846, Note_on_c, 0, 57, 27
1, 494906, Note_off_c, 0, 57, 45
1, 494917, Control_c, 0, 67, 122
1, 494931, Control_c, 0, 67, 111
1, 494946, Control_c, 0, 67, 97
1, 494961, Control_c, 0, 67, 83
1, 494971, Note_off_c, 0, 61, 60
1, 494976, Control_c, 0, 67, 71
1, 494990, Control_c, 0, 67, 58
1, 494994, Note_off_c, 0, 54, 60
1, 495012, Control_c, 0, 67, 46
1, 495027, Control_c, 0, 67, 31
1, 495042, Control_c, 0, 67, 14
1, 495057, Control_c, 0, 67, 0
1, 495415, Note_on_c, 0, 40, 63
1, 495443, Control_c, 0, 64, 96
1, 495458, Control_c, 0, 64, 76
1, 495473, Control_c, 0, 64, 60
1, 495487, Control_c, 0, 64, 0
1, 495517, Control_c, 0, 64, 62
1, 495532, Control_c, 0, 64, 73
1, 495547, Control_c, 0, 64, 96
1, 495561, Control_c, 0, 64, 127
1, 495580, Note_off_c, 0, 78, 38
1, 495612, Note_off_c, 0, 81, 57
1, 495614, Note_off_c, 0, 40, 62
1, 495648, Note_off_c, 0, 85, 61
1, 495671, Note_off_c, 0, 73, 64
1, 495904, Note_on_c, 0, 86, 81
1, 495904, Note_on_c, 0, 82, 74
1, 495907, Note_on_c, 0, 74, 77
1, 495910, Note_on_c, 0, 55, 55
1, 495912, Note_on_c, 0, 79, 64
1, 495913, Note_on_c, 0, 62, 56
1, 495914, Note_on_c, 0, 52, 47
1, 495919, Note_on_c, 0, 58, 52
1, 495989, Note_off_c, 0, 79, 59
1, 496015, Note_off_c, 0, 82, 66
1, 496020, Note_off_c, 0, 55, 63
1, 496047, Note_off_c, 0, 58, 63
1, 496048, Note_off_c, 0, 74, 62
1, 496073, Note_off_c, 0, 52, 63
1, 496079, Note_off_c, 0, 86, 66
1, 496138, Note_off_c, 0, 62, 61
1, 496338, Note_on_c, 0, 61, 51
1, 496353, Note_on_c, 0, 90, 89
1, 496354, Note_on_c, 0, 58, 55
1, 496354, Note_on_c, 0, 78, 83
1, 496363, Note_on_c, 0, 66, 71
1, 496372, Note_on_c, 0, 54, 53
1, 496429, Note_off_c, 0, 61, 58
1, 496506, Note_off_c, 0, 90, 63
1, 496518, Note_off_c, 0, 58, 61
1, 496546, Note_off_c, 0, 66, 66
1, 496558, Note_off_c, 0, 54, 58
1, 496739, Note_off_c, 0, 78, 50
1, 496781, Note_on_c, 0, 60, 49
1, 496782, Note_on_c, 0, 53, 52
1, 496792, Note_on_c, 0, 57, 49
1, 496794, Note_on_c, 0, 52, 52
1, 496822, Control_c, 0, 64, 112
1, 496822, Note_on_c, 0, 81, 38
1, 496833, Note_on_c, 0, 77, 45
1, 496836, Control_c, 0, 64, 82
1, 496847, Note_on_c, 0, 84, 80
1, 496850, Note_on_c, 0, 72, 80
1, 496851, Control_c, 0, 64, 60
1, 496866, Control_c, 0, 64, 0
1, 496880, Note_off_c, 0, 77, 62
1, 496890, Note_off_c, 0, 81, 56
1, 496926, Control_c, 0, 64, 65
1, 496941, Control_c, 0, 64, 79
1, 496956, Control_c, 0, 64, 104
1, 496969, Note_off_c, 0, 72, 65
1, 496970, Note_off_c, 0, 60, 60
1, 496971, Control_c, 0, 64, 127
1, 497004, Note_off_c, 0, 84, 65
1, 497007, Note_off_c, 0, 53, 55
1, 497014, Note_off_c, 0, 57, 60
1, 497037, Note_off_c, 0, 52, 61
1, 497074, Control_c, 0, 67, 12
1, 497089, Control_c, 0, 67, 24
1, 497104, Control_c, 0, 67, 46
1, 497119, Control_c, 0, 67, 84
1, 497133, Control_c, 0, 67, 118
1, 497148, Control_c, 0, 67, 127
1, 497336, Note_on_c, 0, 100, 57
1, 497339, Note_on_c, 0, 76, 56
1, 497362, Note_on_c, 0, 88, 61
1, 497383, Note_off_c, 0, 100, 62
1, 497410, Note_off_c, 0, 88, 59
1, 497412, Note_off_c, 0, 76, 64
1, 497917, Note_on_c, 0, 58, 44
1, 497919, Note_on_c, 0, 61, 50
1, 497924, Note_on_c, 0, 85, 58
1, 497927, Note_on_c, 0, 73, 52
1, 497927, Control_c, 0, 64, 105
1, 497928, Note_on_c, 0, 54, 43
1, 497942, Control_c, 0, 64, 85
1, 497945, Note_on_c, 0, 78, 39
1, 497945, Note_on_c, 0, 82, 19
1, 497956, Control_c, 0, 64, 70
1, 497971, Control_c, 0, 64, 56
1, 497986, Control_c, 0, 64, 45
1, 498008, Control_c, 0, 64, 59
1, 498023, Control_c, 0, 64, 66
1, 498038, Control_c, 0, 64, 74
1, 498053, Control_c, 0, 64, 85
1, 498068, Control_c, 0, 64, 98
1, 498082, Control_c, 0, 64, 109
1, 498089, Note_off_c, 0, 58, 49
1, 498096, Note_off_c, 0, 61, 55
1, 498097, Control_c, 0, 64, 127
1, 498129, Note_off_c, 0, 54, 46
1, 498601, Control_c, 0, 64, 108
1, 498615, Note_on_c, 0, 27, 42
1, 498616, Control_c, 0, 64, 85
1, 498627, Note_on_c, 0, 39, 34
1, 498631, Control_c, 0, 64, 67
1, 498646, Control_c, 0, 64, 0
1, 498705, Control_c, 0, 64, 63
1, 498717, Note_off_c, 0, 73, 47
1, 498720, Control_c, 0, 64, 74
1, 498722, Note_off_c, 0, 78, 40
1, 498722, Note_off_c, 0, 82, 41
1, 498735, Control_c, 0, 64, 88
1, 498736, Note_off_c, 0, 27, 56
1, 498756, Control_c, 0, 64, 108
1, 498771, Control_c, 0, 64, 127
1, 498799, Note_off_c, 0, 39, 36
1, 498809, Note_off_c, 0, 85, 55
1, 499375, Note_on_c, 0, 62, 23
1, 499409, Note_on_c, 0, 59, 23
1, 499415, Note_on_c, 0, 98, 50
1, 499435, Note_on_c, 0, 53, 30
1, 499442, Note_on_c, 0, 86, 45
1, 499452, Note_on_c, 0, 55, 27
1, 499625, Note_off_c, 0, 98, 35
1, 499856, Note_off_c, 0, 86, 65
1, 499874, Note_off_c, 0, 59, 33
1, 499901, Note_off_c, 0, 53, 38
1, 499923, Note_off_c, 0, 55, 42
1, 499984, Note_off_c, 0, 62, 41
1, 500028, Note_on_c, 0, 86, 35
1, 500031, Note_on_c, 0, 91, 59
1, 500035, Note_on_c, 0, 79, 53
1, 500045, Note_on_c, 0, 83, 17
1, 500107, Note_off_c, 0, 83, 44
1, 500116, Note_off_c, 0, 86, 61
1, 500142, Note_off_c, 0, 79, 53
1, 500202, Note_off_c, 0, 91, 66
1, 500502, Note_on_c, 0, 97, 60
1, 500512, Note_on_c, 0, 69, 40
1, 500513, Note_on_c, 0, 85, 51
1, 500521, Note_on_c, 0, 61, 37
1, 500527, Note_on_c, 0, 64, 24
1, 500540, Note_on_c, 0, 67, 9
1, 500596, Note_off_c, 0, 64, 54
1, 500598, Note_off_c, 0, 67, 47
1, 500620, Note_off_c, 0, 97, 64
1, 500656, Note_off_c, 0, 61, 58
1, 500692, Note_off_c, 0, 85, 61
1, 500758, Note_off_c, 0, 69, 37
1, 500986, Note_on_c, 0, 67, 42
1, 500991, Note_on_c, 0, 95, 50
1, 501001, Note_on_c, 0, 83, 54
1, 501008, Note_on_c, 0, 65, 25
1, 501013, Note_on_c, 0, 59, 36
1, 501028, Note_on_c, 0, 62, 25
1, 501054, Note_off_c, 0, 65, 56
1, 501068, Note_off_c, 0, 67, 61
1, 501072, Note_off_c, 0, 95, 36
1, 501073, Note_off_c, 0, 62, 56
1, 501103, Note_off_c, 0, 59, 57
1, 501150, Note_off_c, 0, 83, 65
1, 501449, Note_on_c, 0, 86, 57
1, 501456, Note_on_c, 0, 74, 43
1, 501468, Note_on_c, 0, 83, 37
1, 501472, Note_on_c, 0, 62, 35
1, 501472, Note_on_c, 0, 79, 40
1, 501475, Note_on_c, 0, 55, 33
1, 501479, Note_on_c, 0, 53, 35
1, 501487, Note_on_c, 0, 59, 22
1, 501528, Note_off_c, 0, 62, 59
1, 501530, Note_off_c, 0, 59, 50
1, 501552, Note_off_c, 0, 55, 60
1, 501562, Note_off_c, 0, 53, 58
1, 501930, Control_c, 0, 64, 104
1, 501939, Note_on_c, 0, 37, 48
1, 501945, Control_c, 0, 64, 82
1, 501960, Control_c, 0, 64, 66
1, 501974, Control_c, 0, 64, 0
1, 502004, Control_c, 0, 64, 41
1, 502019, Control_c, 0, 64, 61
1, 502034, Control_c, 0, 64, 67
1, 502048, Control_c, 0, 64, 74
1, 502063, Control_c, 0, 64, 85
1, 502065, Note_off_c, 0, 79, 54
1, 502078, Control_c, 0, 64, 102
1, 502093, Control_c, 0, 64, 127
1, 502111, Note_off_c, 0, 83, 45
1, 502126, Note_off_c, 0, 86, 59
1, 502204, Note_off_c, 0, 37, 59
1, 502226, Note_off_c, 0, 74, 64
1, 502406, Note_on_c, 0, 79, 53
1, 502420, Note_on_c, 0, 71, 32
1, 502422, Note_on_c, 0, 74, 31
1, 502432, Note_on_c, 0, 67, 41
1, 502459, Note_off_c, 0, 71, 49
1, 502461, Note_off_c, 0, 74, 61
1, 502472, Note_off_c, 0, 67, 60
1, 502531, Note_off_c, 0, 79, 63
1, 502858, Note_on_c, 0, 85, 61
1, 502864, Note_on_c, 0, 73, 53
1, 502871, Note_on_c, 0, 67, 9
1, 502878, Note_on_c, 0, 61, 36
1, 502882, Note_on_c, 0, 69, 37
1, 502936, Poly_aftertouch_c, 0, 64, 127
1, 502944, Note_off_c, 0, 67, 52
1, 502950, Note_off_c, 0, 85, 62
1, 502977, Poly_aftertouch_c, 0, 64, 0
1, 503041, Note_off_c, 0, 61, 35
1, 503042, Note_off_c, 0, 73, 60
1, 503117, Note_off_c, 0, 69, 40
1, 503315, Note_on_c, 0, 65, 31
1, 503327, Note_on_c, 0, 67, 36
1, 503329, Note_on_c, 0, 62, 30
1, 503338, Note_on_c, 0, 59, 32
1, 503351, Note_on_c, 0, 83, 61
1, 503368, Note_on_c, 0, 71, 47
1, 503398, Note_off_c, 0, 65, 56
1, 503412, Note_off_c, 0, 67, 63
1, 503427, Note_off_c, 0, 83, 63
1, 503428, Note_off_c, 0, 62, 54
1, 503457, Note_off_c, 0, 59, 60
1, 503526, Note_off_c, 0, 71, 64
1, 503836, Note_on_c, 0, 53, 38
1, 503866, Note_on_c, 0, 74, 48
1, 503867, Note_on_c, 0, 59, 29
1, 503872, Note_on_c, 0, 62, 32
1, 503889, Note_on_c, 0, 67, 31
1, 503902, Note_on_c, 0, 71, 30
1, 503907, Note_off_c, 0, 59, 61
1, 503943, Note_off_c, 0, 53, 59
1, 504408, Note_on_c, 0, 37, 35
1, 504792, Control_c, 0, 64, 103
1, 504807, Control_c, 0, 64, 83
1, 504821, Control_c, 0, 64, 69
1, 504822, Note_off_c, 0, 67, 39
1, 504836, Control_c, 0, 64, 59
1, 504851, Control_c, 0, 64, 61
1, 504854, Note_off_c, 0, 71, 44
1, 504866, Control_c, 0, 64, 66
1, 504881, Control_c, 0, 64, 71
1, 504886, Note_on_c, 0, 30, 44
1, 504895, Control_c, 0, 64, 84
1, 504910, Control_c, 0, 64, 98
1, 504926, Control_c, 0, 64, 111
1, 504941, Control_c, 0, 64, 127
1, 504977, Note_off_c, 0, 62, 49
1, 504983, Note_off_c, 0, 74, 43
1, 505002, Note_off_c, 0, 30, 46
1, 505016, Note_off_c, 0, 37, 38
1, 505190, Note_on_c, 0, 67, 37
1, 505213, Note_on_c, 0, 59, 31
1, 505359, Note_off_c, 0, 59, 44
1, 505523, Note_on_c, 0, 53, 42
1, 505575, Note_on_c, 0, 74, 58
1, 505586, Note_on_c, 0, 71, 52
1, 505608, Note_off_c, 0, 67, 51
1, 505990, Note_off_c, 0, 74, 34
1, 506022, Note_on_c, 0, 54, 58
1, 506182, Note_off_c, 0, 53, 38
1, 506231, Note_on_c, 0, 59, 58
1, 506232, Note_off_c, 0, 71, 59
1, 506233, Note_on_c, 0, 66, 69
1, 506326, Note_off_c, 0, 59, 60
1, 506353, Note_off_c, 0, 54, 61
1, 506402, Note_on_c, 0, 55, 68
1, 506422, Control_c, 0, 64, 104
1, 506437, Control_c, 0, 64, 84
1, 506448, Poly_aftertouch_c, 0, 71, 127
1, 506452, Control_c, 0, 64, 71
1, 506466, Control_c, 0, 64, 66
1, 506481, Control_c, 0, 64, 68
1, 506492, Note_on_c, 0, 74, 72
1, 506496, Control_c, 0, 64, 73
1, 506504, Note_on_c, 0, 71, 8
1, 506511, Control_c, 0, 64, 84
1, 506527, Control_c, 0, 64, 102
1, 506532, Note_off_c, 0, 66, 52
1, 506542, Control_c, 0, 64, 127
1, 506686, Note_off_c, 0, 55, 55
1, 506688, Note_on_c, 0, 65, 80
1, 506781, Note_off_c, 0, 71, 42
1, 506815, Note_on_c, 0, 56, 69
1, 506882, Control_c, 0, 64, 100
1, 506897, Control_c, 0, 64, 80
1, 506912, Control_c, 0, 64, 64
1, 506927, Control_c, 0, 64, 0
1, 506994, Note_on_c, 0, 60, 74
1, 507122, Note_on_c, 0, 64, 76
1, 507125, Note_off_c, 0, 65, 65
1, 507246, Control_c, 0, 64, 35
1, 507261, Control_c, 0, 64, 47
1, 507262, Note_off_c, 0, 74, 14
1, 507273, Note_on_c, 0, 71, 67
1, 507276, Control_c, 0, 64, 52
1, 507290, Control_c, 0, 64, 54
1, 507305, Control_c, 0, 64, 57
1, 507320, Control_c, 0, 64, 61
1, 507335, Control_c, 0, 64, 63
1, 507350, Control_c, 0, 64, 64
1, 507365, Control_c, 0, 64, 65
1, 507380, Control_c, 0, 64, 66
1, 507395, Control_c, 0, 64, 68
1, 507410, Control_c, 0, 64, 70
1, 507425, Control_c, 0, 64, 71
1, 507439, Control_c, 0, 64, 73
1, 507449, Note_off_c, 0, 60, 54
1, 507454, Control_c, 0, 64, 75
1, 507469, Control_c, 0, 64, 77
1, 507483, Note_on_c, 0, 74, 67
1, 507484, Control_c, 0, 64, 79
1, 507499, Control_c, 0, 64, 83
1, 507502, Note_off_c, 0, 56, 63
1, 507513, Control_c, 0, 64, 87
1, 507528, Control_c, 0, 64, 93
1, 507543, Control_c, 0, 64, 101
1, 507557, Note_off_c, 0, 71, 56
1, 507558, Control_c, 0, 64, 116
1, 507572, Control_c, 0, 64, 127
1, 507964, Control_c, 0, 64, 96
1, 507979, Control_c, 0, 64, 78
1, 507994, Control_c, 0, 64, 64
1, 508009, Control_c, 0, 64, 59
1, 508024, Note_on_c, 0, 38, 38
1, 508024, Control_c, 0, 64, 63
1, 508039, Control_c, 0, 64, 65
1, 508054, Control_c, 0, 64, 69
1, 508069, Control_c, 0, 64, 75
1, 508084, Control_c, 0, 64, 86
1, 508098, Control_c, 0, 64, 98
1, 508114, Control_c, 0, 64, 108
1, 508129, Control_c, 0, 64, 127
1, 508335, Note_off_c, 0, 64, 37
1, 508335, Note_off_c, 0, 74, 50
1, 508562, Note_on_c, 0, 26, 40
1, 508613, Note_off_c, 0, 38, 36
1, 509147, Note_on_c, 0, 38, 40
1, 509161, Note_off_c, 0, 26, 38
1, 509300, Note_off_c, 0, 38, 35
1, 509440, Note_on_c, 0, 65, 59
1, 509451, Note_on_c, 0, 56, 42
1, 509453, Note_on_c, 0, 60, 45
1, 509485, Note_off_c, 0, 56, 65
1, 509491, Note_off_c, 0, 60, 63
1, 509539, Note_off_c, 0, 65, 64
1, 509793, Note_on_c, 0, 50, 45
1, 509798, Note_on_c, 0, 74, 41
1, 509859, Note_on_c, 0, 71, 15
1, 509871, Note_off_c, 0, 74, 55
1, 509887, Note_off_c, 0, 71, 0
1, 509902, Poly_aftertouch_c, 0, 71, 0
1, 510161, Note_on_c, 0, 66, 59
1, 510169, Note_on_c, 0, 58, 46
1, 510170, Note_on_c, 0, 61, 50
1, 510176, Note_off_c, 0, 50, 58
1, 510256, Note_off_c, 0, 61, 51
1, 510261, Note_off_c, 0, 58, 42
1, 510359, Note_off_c, 0, 66, 51
1, 510679, Note_on_c, 0, 69, 47
1, 510680, Note_on_c, 0, 62, 34
1, 510686, Control_c, 0, 64, 117
1, 510692, Note_on_c, 0, 58, 35
1, 510695, Note_on_c, 0, 31, 44
1, 510701, Control_c, 0, 64, 93
1, 510715, Control_c, 0, 64, 75
1, 510737, Control_c, 0, 64, 60
1, 510752, Control_c, 0, 64, 0
1, 510796, Control_c, 0, 64, 38
1, 510811, Control_c, 0, 64, 57
1, 510826, Control_c, 0, 64, 64
1, 510841, Control_c, 0, 64, 69
1, 510856, Control_c, 0, 64, 76
1, 510871, Control_c, 0, 64, 86
1, 510886, Control_c, 0, 64, 96
1, 510900, Control_c, 0, 64, 104
1, 510903, Note_off_c, 0, 31, 37
1, 510915, Control_c, 0, 64, 116
1, 510930, Control_c, 0, 64, 127
1, 510957, Note_off_c, 0, 62, 28
1, 510978, Note_off_c, 0, 69, 36
1, 510996, Note_off_c, 0, 58, 41
1, 511497, Note_on_c, 0, 67, 39
1, 511504, Note_on_c, 0, 62, 23
1, 511507, Note_on_c, 0, 59, 31
1, 511521, Note_on_c, 0, 50, 39
1, 511605, Note_off_c, 0, 59, 46
1, 511673, Note_off_c, 0, 50, 35
1, 511677, Note_off_c, 0, 62, 39
1, 511701, Note_off_c, 0, 67, 53
1, 512545, Note_on_c, 0, 67, 34
1, 512549, Note_on_c, 0, 59, 34
1, 512675, Note_off_c, 0, 59, 0
1, 512737, Poly_aftertouch_c, 0, 59, 0
1, 512866, Note_off_c, 0, 67, 46
1, 514056, Note_on_c, 0, 31, 42
1, 514058, Control_c, 0, 64, 119
1, 514073, Control_c, 0, 64, 90
1, 514088, Control_c, 0, 64, 74
1, 514103, Control_c, 0, 64, 63
1, 514118, Control_c, 0, 64, 60
1, 514126, Note_on_c, 0, 87, 50
1, 514132, Control_c, 0, 64, 65
1, 514138, Note_on_c, 0, 91, 53
1, 514147, Note_off_c, 0, 31, 62
1, 514147, Control_c, 0, 64, 73
1, 514162, Control_c, 0, 64, 89
1, 514177, Control_c, 0, 64, 127
1, 514337, Note_on_c, 0, 51, 50
1, 514342, Note_off_c, 0, 91, 38
1, 514361, Note_off_c, 0, 87, 63
1, 514415, Note_on_c, 0, 79, 53
1, 514468, Note_off_c, 0, 79, 51
1, 514489, Note_off_c, 0, 51, 62
1, 514501, Note_on_c, 0, 63, 51
1, 514505, Note_on_c, 0, 86, 54
1, 514515, Note_on_c, 0, 91, 48
1, 514533, Note_off_c, 0, 63, 65
1, 514669, Note_on_c, 0, 75, 64
1, 514689, Note_off_c, 0, 91, 39
1, 514695, Note_off_c, 0, 75, 68
1, 514730, Note_off_c, 0, 86, 54
1, 514735, Note_on_c, 0, 79, 60
1, 514805, Note_off_c, 0, 79, 63
1, 514811, Note_on_c, 0, 85, 73
1, 514811, Note_on_c, 0, 91, 55
1, 514832, Note_off_c, 0, 91, 60
1, 514835, Note_off_c, 0, 85, 69
1, 515038, Note_on_c, 0, 79, 55
1, 515089, Control_c, 0, 64, 100
1, 515101, Note_off_c, 0, 79, 63
1, 515104, Control_c, 0, 64, 76
1, 515116, Note_on_c, 0, 77, 62
1, 515118, Control_c, 0, 64, 50
1, 515121, Note_on_c, 0, 82, 56
1, 515133, Control_c, 0, 64, 0
1, 515163, Control_c, 0, 64, 28
1, 515178, Control_c, 0, 64, 63
1, 515193, Control_c, 0, 64, 68
1, 515207, Control_c, 0, 64, 73
1, 515216, Note_on_c, 0, 43, 47
1, 515229, Control_c, 0, 64, 79
1, 515244, Control_c, 0, 64, 86
1, 515252, Note_off_c, 0, 82, 60
1, 515259, Control_c, 0, 64, 95
1, 515274, Control_c, 0, 64, 110
1, 515279, Note_off_c, 0, 77, 63
1, 515288, Control_c, 0, 64, 127
1, 515310, Note_off_c, 0, 43, 61
1, 515331, Note_on_c, 0, 70, 56
1, 515375, Note_on_c, 0, 55, 39
1, 515382, Note_on_c, 0, 82, 60
1, 515392, Note_on_c, 0, 75, 61
1, 515392, Note_off_c, 0, 70, 59
1, 515406, Note_off_c, 0, 55, 53
1, 515515, Note_off_c, 0, 82, 54
1, 515524, Note_on_c, 0, 67, 61
1, 515557, Note_off_c, 0, 75, 59
1, 515558, Note_off_c, 0, 67, 62
1, 515601, Note_on_c, 0, 70, 59
1, 515654, Note_off_c, 0, 70, 49
1, 515688, Note_on_c, 0, 82, 57
1, 515697, Note_on_c, 0, 74, 57
1, 515722, Note_off_c, 0, 82, 67
1, 515730, Note_off_c, 0, 74, 65
1, 515996, Note_on_c, 0, 70, 51
1, 516081, Control_c, 0, 64, 99
1, 516096, Control_c, 0, 64, 80
1, 516112, Note_on_c, 0, 73, 52
1, 516112, Control_c, 0, 64, 66
1, 516126, Control_c, 0, 64, 36
1, 516129, Note_off_c, 0, 70, 51
1, 516141, Control_c, 0, 64, 15
1, 516156, Control_c, 0, 64, 42
1, 516171, Control_c, 0, 64, 60
1, 516186, Control_c, 0, 64, 68
1, 516201, Control_c, 0, 64, 75
1, 516215, Control_c, 0, 64, 87
1, 516230, Control_c, 0, 64, 98
1, 516245, Control_c, 0, 64, 109
1, 516260, Control_c, 0, 64, 127
1, 516295, Note_on_c, 0, 34, 38
1, 516317, Note_off_c, 0, 73, 37
1, 516364, Note_on_c, 0, 61, 40
1, 516458, Note_off_c, 0, 61, 55
1, 516467, Note_on_c, 0, 73, 31
1, 516487, Note_on_c, 0, 69, 45
1, 516487, Note_off_c, 0, 34, 39
1, 516493, Note_on_c, 0, 46, 45
1, 516537, Note_off_c, 0, 46, 63
1, 516633, Note_off_c, 0, 73, 43
1, 516692, Note_on_c, 0, 58, 51
1, 516734, Note_off_c, 0, 58, 64
1, 516799, Note_on_c, 0, 61, 44
1, 516892, Note_off_c, 0, 69, 25
1, 516923, Note_on_c, 0, 73, 46
1, 516934, Note_on_c, 0, 68, 48
1, 516976, Note_off_c, 0, 73, 60
1, 516977, Note_off_c, 0, 61, 32
1, 516979, Note_off_c, 0, 68, 61
1, 517321, Note_on_c, 0, 61, 40
1, 517408, Control_c, 0, 64, 100
1, 517423, Control_c, 0, 64, 88
1, 517438, Control_c, 0, 64, 78
1, 517453, Control_c, 0, 64, 73
1, 517475, Control_c, 0, 64, 74
1, 517477, Note_on_c, 0, 31, 43
1, 517484, Note_off_c, 0, 61, 51
1, 517490, Control_c, 0, 64, 79
1, 517504, Note_on_c, 0, 65, 47
1, 517505, Control_c, 0, 64, 86
1, 517506, Note_on_c, 0, 57, 39
1, 517520, Control_c, 0, 64, 92
1, 517535, Control_c, 0, 64, 98
1, 517542, Note_off_c, 0, 57, 50
1, 517545, Note_off_c, 0, 65, 63
1, 517549, Control_c, 0, 64, 105
1, 517565, Control_c, 0, 64, 113
1, 517580, Control_c, 0, 64, 127
1, 517599, Note_off_c, 0, 31, 36
1, 517658, Note_on_c, 0, 65, 32
1, 517660, Note_on_c, 0, 57, 14
1, 517694, Note_off_c, 0, 65, 46
1, 517730, Note_off_c, 0, 57, 0
1, 517742, Note_on_c, 0, 65, 52
1, 517746, Note_on_c, 0, 57, 27
1, 517911, Note_off_c, 0, 57, 47
1, 517921, Control_c, 0, 64, 112
1, 517928, Note_off_c, 0, 65, 55
1, 517936, Control_c, 0, 64, 96
1, 517941, Note_on_c, 0, 56, 53
1, 517946, Note_on_c, 0, 61, 49
1, 517951, Control_c, 0, 64, 83
1, 517965, Control_c, 0, 64, 68
1, 517980, Control_c, 0, 64, 57
1, 517995, Control_c, 0, 64, 41
1, 518010, Control_c, 0, 64, 42
1, 518025, Control_c, 0, 64, 49
1, 518040, Control_c, 0, 64, 55
1, 518055, Control_c, 0, 64, 59
1, 518070, Control_c, 0, 64, 62
1, 518084, Control_c, 0, 64, 64
1, 518099, Control_c, 0, 64, 67
1, 518105, Note_off_c, 0, 61, 57
1, 518114, Control_c, 0, 64, 72
1, 518114, Note_off_c, 0, 56, 57
1, 518129, Control_c, 0, 64, 79
1, 518134, Note_on_c, 0, 53, 51
1, 518141, Note_on_c, 0, 64, 54
1, 518143, Control_c, 0, 64, 89
1, 518150, Note_on_c, 0, 55, 48
1, 518158, Control_c, 0, 64, 98
1, 518169, Note_off_c, 0, 53, 64
1, 518173, Control_c, 0, 64, 109
1, 518180, Note_off_c, 0, 64, 61
1, 518188, Control_c, 0, 64, 127
1, 518190, Note_off_c, 0, 55, 57
1, 518270, Note_on_c, 0, 55, 45
1, 518283, Note_on_c, 0, 64, 36
1, 518307, Note_off_c, 0, 55, 48
1, 518319, Note_off_c, 0, 64, 46
1, 518362, Note_on_c, 0, 64, 47
1, 518371, Note_on_c, 0, 55, 43
1, 518432, Control_c, 0, 64, 108
1, 518447, Control_c, 0, 64, 92
1, 518462, Control_c, 0, 64, 79
1, 518477, Control_c, 0, 64, 64
1, 518492, Control_c, 0, 64, 31
1, 518508, Control_c, 0, 64, 0
1, 518533, Note_off_c, 0, 55, 60
1, 518554, Note_off_c, 0, 64, 59
1, 518573, Note_on_c, 0, 56, 54
1, 518576, Note_on_c, 0, 61, 39
1, 518596, Control_c, 0, 64, 12
1, 518611, Control_c, 0, 64, 32
1, 518626, Control_c, 0, 64, 41
1, 518641, Control_c, 0, 64, 49
1, 518647, Note_on_c, 0, 71, 38
1, 518655, Control_c, 0, 64, 55
1, 518670, Control_c, 0, 64, 61
1, 518685, Control_c, 0, 64, 64
1, 518700, Control_c, 0, 64, 66
1, 518715, Control_c, 0, 64, 69
1, 518729, Control_c, 0, 64, 72
1, 518744, Control_c, 0, 64, 76
1, 518759, Control_c, 0, 64, 81
1, 518773, Control_c, 0, 64, 85
1, 518785, Note_off_c, 0, 61, 36
1, 518787, Note_off_c, 0, 56, 37
1, 518788, Control_c, 0, 64, 89
1, 518803, Control_c, 0, 64, 93
1, 518805, Note_on_c, 0, 57, 48
1, 518813, Note_on_c, 0, 83, 57
1, 518818, Control_c, 0, 64, 99
1, 518819, Note_on_c, 0, 65, 27
1, 518833, Control_c, 0, 64, 106
1, 518845, Note_off_c, 0, 57, 58
1, 518848, Control_c, 0, 64, 114
1, 518857, Note_off_c, 0, 65, 51
1, 518862, Control_c, 0, 64, 127
1, 518933, Note_off_c, 0, 83, 60
1, 518938, Note_on_c, 0, 57, 12
1, 518939, Note_on_c, 0, 65, 10
1, 518959, Note_off_c, 0, 57, 0
1, 519000, Note_off_c, 0, 65, 0
1, 519000, Note_on_c, 0, 65, 8
1, 519003, Note_on_c, 0, 57, 5
1, 519055, Note_off_c, 0, 71, 43
1, 519185, Note_off_c, 0, 65, 44
1, 519210, Note_off_c, 0, 57, 38
1, 519220, Note_on_c, 0, 56, 46
1, 519228, Note_on_c, 0, 61, 48
1, 519405, Note_off_c, 0, 61, 55
1, 519427, Note_on_c, 0, 64, 57
1, 519434, Note_on_c, 0, 55, 49
1, 519457, Note_off_c, 0, 56, 33
1, 519470, Note_off_c, 0, 64, 58
1, 519476, Note_off_c, 0, 55, 58
1, 519553, Note_on_c, 0, 55, 40
1, 519557, Note_on_c, 0, 64, 42
1, 519580, Note_off_c, 0, 55, 56
1, 519582, Control_c, 0, 64, 115
1, 519596, Control_c, 0, 64, 97
1, 519602, Note_off_c, 0, 64, 44
1, 519611, Control_c, 0, 64, 83
1, 519626, Control_c, 0, 64, 69
1, 519641, Control_c, 0, 64, 49
1, 519652, Note_on_c, 0, 64, 37
1, 519656, Control_c, 0, 64, 0
1, 519662, Note_on_c, 0, 55, 42
1, 519865, Note_off_c, 0, 64, 49
1, 519867, Note_off_c, 0, 55, 37
1, 519870, Note_on_c, 0, 61, 44
1, 519876, Note_on_c, 0, 56, 38
1, 520086, Note_off_c, 0, 61, 36
1, 520093, Control_c, 0, 64, 20
1, 520108, Control_c, 0, 64, 30
1, 520123, Control_c, 0, 64, 37
1, 520138, Control_c, 0, 64, 44
1, 520147, Note_on_c, 0, 31, 38
1, 520152, Control_c, 0, 64, 50
1, 520156, Note_off_c, 0, 56, 52
1, 520167, Control_c, 0, 64, 55
1, 520182, Control_c, 0, 64, 59
1, 520197, Control_c, 0, 64, 61
1, 520212, Control_c, 0, 64, 64
1, 520226, Control_c, 0, 64, 65
1, 520241, Control_c, 0, 64, 67
1, 520256, Control_c, 0, 64, 70
1, 520271, Control_c, 0, 64, 73
1, 520286, Control_c, 0, 64, 76
1, 520300, Control_c, 0, 64, 78
1, 520315, Control_c, 0, 64, 80
1, 520330, Control_c, 0, 64, 83
1, 520344, Control_c, 0, 64, 87
1, 520359, Control_c, 0, 64, 92
1, 520374, Control_c, 0, 64, 97
1, 520389, Control_c, 0, 64, 103
1, 520404, Control_c, 0, 64, 112
1, 520419, Control_c, 0, 64, 127
1, 520897, Note_on_c, 0, 53, 34
1, 520985, Note_off_c, 0, 53, 60
1, 521820, Note_on_c, 0, 71, 38
1, 521924, Note_off_c, 0, 71, 58
1, 521945, Note_on_c, 0, 83, 47
1, 522508, Note_off_c, 0, 31, 23
1, 523263, Note_on_c, 0, 31, 35
1, 523453, Note_off_c, 0, 31, 39
1, 523772, Note_off_c, 0, 83, 44
1, 523838, Note_on_c, 0, 53, 36
1, 523924, Note_off_c, 0, 53, 61
1, 524090, Note_on_c, 0, 83, 46
1, 524174, Note_on_c, 0, 71, 34
1, 524311, Note_on_c, 0, 73, 36
1, 524318, Note_on_c, 0, 69, 36
1, 524331, Note_on_c, 0, 65, 39
1, 524353, Note_on_c, 0, 77, 60
1, 524436, Note_off_c, 0, 71, 41
1, 524520, Note_off_c, 0, 83, 36
1, 524708, Note_off_c, 0, 73, 61
1, 524735, Note_off_c, 0, 77, 63
1, 524813, Note_on_c, 0, 72, 51
1, 524820, Note_on_c, 0, 76, 69
1, 524905, Note_off_c, 0, 69, 40
1, 524935, Note_off_c, 0, 65, 51
1, 525040, Note_off_c, 0, 72, 62
1, 525116, Note_off_c, 0, 76, 63
1, 525282, Note_on_c, 0, 75, 59
1, 525292, Note_on_c, 0, 68, 53
1, 525301, Note_on_c, 0, 65, 50
1, 525312, Note_on_c, 0, 71, 35
1, 525725, Note_off_c, 0, 75, 58
1, 525787, Note_on_c, 0, 95, 43
1, 525836, Note_on_c, 0, 83, 46
1, 525854, Note_off_c, 0, 95, 58
1, 525910, Note_off_c, 0, 71, 41
1, 525975, Note_off_c, 0, 83, 63
1, 526315, Note_on_c, 0, 76, 45
1, 526326, Note_on_c, 0, 72, 51
1, 526383, Note_off_c, 0, 72, 61
1, 526407, Note_off_c, 0, 68, 43
1, 526408, Note_off_c, 0, 65, 33
1, 526890, Control_c, 0, 64, 112
1, 526903, Note_on_c, 0, 31, 46
1, 526905, Control_c, 0, 64, 88
1, 526920, Control_c, 0, 64, 72
1, 526935, Control_c, 0, 64, 62
1, 526950, Control_c, 0, 64, 61
1, 526965, Control_c, 0, 64, 65
1, 526979, Control_c, 0, 64, 69
1, 526994, Control_c, 0, 64, 76
1, 527009, Control_c, 0, 64, 88
1, 527024, Control_c, 0, 64, 105
1, 527038, Control_c, 0, 64, 127
1, 527076, Note_off_c, 0, 31, 56
1, 527179, Note_off_c, 0, 76, 34
1, 527394, Note_on_c, 0, 65, 47
1, 527394, Note_on_c, 0, 61, 42
1, 527396, Note_on_c, 0, 89, 77
1, 527406, Note_on_c, 0, 77, 62
1, 527409, Note_on_c, 0, 57, 43
1, 527412, Note_on_c, 0, 81, 59
1, 527414, Note_on_c, 0, 85, 65
1, 527425, Note_on_c, 0, 53, 52
1, 527457, Note_off_c, 0, 81, 63
1, 527495, Note_off_c, 0, 85, 62
1, 527645, Note_off_c, 0, 61, 51
1, 527653, Note_off_c, 0, 77, 62
1, 527674, Note_off_c, 0, 89, 63
1, 527703, Note_off_c, 0, 65, 63
1, 527859, Note_off_c, 0, 57, 23
1, 527860, Note_on_c, 0, 81, 79
1, 527861, Note_on_c, 0, 93, 71
1, 527868, Note_on_c, 0, 60, 42
1, 527883, Note_on_c, 0, 64, 39
1, 528013, Note_off_c, 0, 60, 57
1, 528017, Note_off_c, 0, 93, 61
1, 528029, Note_off_c, 0, 53, 50
1, 528030, Note_off_c, 0, 64, 62
1, 528126, Note_off_c, 0, 81, 65
1, 528285, Note_on_c, 0, 56, 48
1, 528301, Note_on_c, 0, 59, 38
1, 528303, Note_on_c, 0, 63, 59
1, 528305, Note_on_c, 0, 53, 49
1, 528345, Control_c, 0, 64, 103
1, 528359, Control_c, 0, 64, 75
1, 528366, Note_on_c, 0, 87, 62
1, 528368, Note_on_c, 0, 75, 64
1, 528374, Control_c, 0, 64, 51
1, 528389, Control_c, 0, 64, 0
1, 528418, Control_c, 0, 64, 49
1, 528433, Control_c, 0, 64, 66
1, 528448, Control_c, 0, 64, 81
1, 528463, Control_c, 0, 64, 102
1, 528477, Control_c, 0, 64, 127
1, 528481, Note_off_c, 0, 75, 64
1, 528484, Note_off_c, 0, 87, 67
1, 528487, Note_off_c, 0, 59, 59
1, 528503, Note_off_c, 0, 56, 57
1, 528507, Note_off_c, 0, 53, 58
1, 528523, Note_off_c, 0, 63, 62
1, 528853, Note_on_c, 0, 95, 47
1, 528875, Note_on_c, 0, 83, 50
1, 528896, Note_off_c, 0, 95, 59
1, 528938, Poly_aftertouch_c, 0, 71, 127
1, 528963, Note_off_c, 0, 83, 59
1, 529069, Poly_aftertouch_c, 0, 71, 0
1, 529502, Note_on_c, 0, 64, 33
1, 529510, Note_on_c, 0, 76, 39
1, 529511, Note_on_c, 0, 88, 49
1, 529514, Note_on_c, 0, 60, 38
1, 529515, Control_c, 0, 64, 109
1, 529519, Note_on_c, 0, 84, 41
1, 529530, Control_c, 0, 64, 89
1, 529545, Control_c, 0, 64, 71
1, 529559, Control_c, 0, 64, 60
1, 529574, Control_c, 0, 64, 56
1, 529589, Control_c, 0, 64, 63
1, 529604, Control_c, 0, 64, 67
1, 529619, Control_c, 0, 64, 73
1, 529633, Control_c, 0, 64, 84
1, 529648, Control_c, 0, 64, 96
1, 529663, Control_c, 0, 64, 103
1, 529679, Control_c, 0, 64, 110
1, 529694, Control_c, 0, 64, 127
1, 529701, Note_off_c, 0, 60, 42
1, 529719, Note_off_c, 0, 64, 46
1, 530236, Note_off_c, 0, 88, 33
1, 530497, Note_off_c, 0, 84, 39
1, 530543, Note_off_c, 0, 76, 40
1, 530593, Note_on_c, 0, 31, 27
1, 531048, Note_off_c, 0, 31, 41
1, 531338, Note_on_c, 0, 52, 34
1, 531346, Note_on_c, 0, 48, 37
1, 531746, Note_on_c, 0, 53, 40
1, 531755, Note_on_c, 0, 49, 40
1, 531818, Note_off_c, 0, 48, 27
1, 531868, Note_off_c, 0, 52, 31
1, 531967, Note_off_c, 0, 49, 47
1, 532026, Note_off_c, 0, 53, 61
1, 532059, Note_on_c, 0, 61, 49
1, 532072, Note_on_c, 0, 58, 41
1, 532251, Control_c, 0, 64, 115
1, 532266, Control_c, 0, 64, 92
1, 532281, Control_c, 0, 64, 76
1, 532293, Note_on_c, 0, 50, 42
1, 532295, Control_c, 0, 64, 65
1, 532298, Note_off_c, 0, 58, 50
1, 532308, Note_on_c, 0, 54, 48
1, 532310, Control_c, 0, 64, 63
1, 532314, Note_off_c, 0, 61, 37
1, 532325, Control_c, 0, 64, 65
1, 532340, Control_c, 0, 64, 68
1, 532355, Control_c, 0, 64, 72
1, 532369, Control_c, 0, 64, 79
1, 532384, Control_c, 0, 64, 89
1, 532399, Control_c, 0, 64, 98
1, 532414, Control_c, 0, 64, 104
1, 532429, Control_c, 0, 64, 110
1, 532451, Control_c, 0, 64, 124
1, 532466, Control_c, 0, 64, 127
1, 532521, Note_off_c, 0, 54, 61
1, 532551, Note_on_c, 0, 55, 51
1, 532551, Note_off_c, 0, 50, 52
1, 532559, Note_on_c, 0, 51, 47
1, 532715, Note_off_c, 0, 51, 36
1, 532746, Note_on_c, 0, 63, 57
1, 532762, Note_on_c, 0, 61, 49
1, 532907, Note_off_c, 0, 55, 36
1, 532926, Control_c, 0, 64, 104
1, 532941, Control_c, 0, 64, 80
1, 532956, Control_c, 0, 64, 66
1, 532959, Note_on_c, 0, 52, 43
1, 532968, Note_on_c, 0, 56, 54
1, 532971, Control_c, 0, 64, 54
1, 532986, Control_c, 0, 64, 57
1, 533000, Control_c, 0, 64, 62
1, 533015, Control_c, 0, 64, 66
1, 533030, Control_c, 0, 64, 70
1, 533045, Control_c, 0, 64, 81
1, 533060, Control_c, 0, 64, 95
1, 533074, Control_c, 0, 64, 109
1, 533084, Note_off_c, 0, 63, 23
1, 533089, Control_c, 0, 64, 127
1, 533115, Note_off_c, 0, 61, 25
1, 533144, Note_off_c, 0, 56, 63
1, 533152, Note_off_c, 0, 52, 60
1, 533168, Note_on_c, 0, 57, 62
1, 533183, Note_on_c, 0, 53, 46
1, 533281, Note_off_c, 0, 53, 41
1, 533361, Note_on_c, 0, 62, 42
1, 533371, Note_on_c, 0, 65, 59
1, 533497, Note_off_c, 0, 57, 35
1, 533545, Note_on_c, 0, 54, 43
1, 533558, Note_off_c, 0, 65, 60
1, 533585, Note_off_c, 0, 62, 52
1, 533586, Note_on_c, 0, 58, 53
1, 533738, Note_off_c, 0, 54, 62
1, 533761, Note_on_c, 0, 55, 47
1, 533768, Note_off_c, 0, 58, 64
1, 533790, Note_off_c, 0, 55, 56
1, 533804, Note_on_c, 0, 59, 54
1, 533973, Poly_aftertouch_c, 0, 66, 127
1, 534008, Control_c, 0, 64, 101
1, 534017, Poly_aftertouch_c, 0, 66, 0
1, 534023, Control_c, 0, 64, 81
1, 534038, Note_on_c, 0, 31, 49
1, 534038, Control_c, 0, 64, 63
1, 534053, Control_c, 0, 64, 0
1, 534072, Note_on_c, 0, 68, 56
1, 534072, Note_off_c, 0, 59, 34
1, 534083, Control_c, 0, 64, 30
1, 534098, Control_c, 0, 64, 54
1, 534100, Note_on_c, 0, 65, 36
1, 534113, Control_c, 0, 64, 64
1, 534128, Control_c, 0, 64, 68
1, 534143, Control_c, 0, 64, 77
1, 534157, Control_c, 0, 64, 87
1, 534172, Control_c, 0, 64, 96
1, 534187, Control_c, 0, 64, 103
1, 534202, Control_c, 0, 64, 109
1, 534217, Control_c, 0, 64, 118
1, 534231, Control_c, 0, 64, 127
1, 534232, Note_off_c, 0, 65, 54
1, 534256, Note_off_c, 0, 68, 64
1, 534268, Note_off_c, 0, 31, 52
1, 534286, Note_on_c, 0, 59, 49
1, 534342, Note_off_c, 0, 59, 49
1, 534390, Note_on_c, 0, 64, 52
1, 534479, Note_off_c, 0, 64, 64
1, 534488, Note_on_c, 0, 68, 69
1, 534535, Note_off_c, 0, 68, 65
1, 534589, Note_on_c, 0, 71, 66
1, 534719, Note_on_c, 0, 76, 50
1, 534767, Note_on_c, 0, 56, 48
1, 534781, Note_on_c, 0, 64, 51
1, 534805, Poly_aftertouch_c, 0, 74, 0
1, 534816, Control_c, 0, 64, 92
1, 534831, Control_c, 0, 64, 72
1, 534846, Control_c, 0, 64, 26
1, 534861, Control_c, 0, 64, 0
1, 534872, Note_on_c, 0, 83, 69
1, 534912, Note_off_c, 0, 76, 62
1, 534920, Control_c, 0, 64, 46
1, 534935, Control_c, 0, 64, 64
1, 534950, Control_c, 0, 64, 69
1, 534965, Control_c, 0, 64, 78
1, 534979, Control_c, 0, 64, 87
1, 534994, Control_c, 0, 64, 96
1, 535009, Control_c, 0, 64, 104
1, 535023, Note_off_c, 0, 71, 41
1, 535023, Control_c, 0, 64, 120
1, 535038, Control_c, 0, 64, 127
1, 535322, Note_off_c, 0, 83, 62
1, 535399, Note_on_c, 0, 62, 39
1, 535407, Note_on_c, 0, 66, 42
1, 535505, Note_off_c, 0, 64, 24
1, 535669, Note_off_c, 0, 56, 28
1, 535743, Note_on_c, 0, 85, 50
1, 535753, Note_on_c, 0, 78, 43
1, 535791, Note_off_c, 0, 78, 60
1, 535815, Note_off_c, 0, 85, 61
1, 535928, Note_on_c, 0, 85, 64
1, 535966, Note_on_c, 0, 78, 25
1, 536014, Note_off_c, 0, 78, 46
1, 536059, Note_off_c, 0, 85, 57
1, 536393, Note_on_c, 0, 64, 6
1, 536451, Note_on_c, 0, 56, 34
1, 536494, Note_off_c, 0, 62, 35
1, 536521, Note_on_c, 0, 83, 55
1, 536545, Note_on_c, 0, 76, 36
1, 536606, Note_off_c, 0, 76, 63
1, 536617, Note_off_c, 0, 83, 62
1, 536630, Note_off_c, 0, 66, 31
1, 536853, Note_off_c, 0, 56, 39
1, 536890, Note_on_c, 0, 62, 41
1, 536896, Note_on_c, 0, 66, 49
1, 536909, Note_off_c, 0, 64, 40
1, 536953, Note_off_c, 0, 62, 57
1, 536955, Note_off_c, 0, 66, 62
1, 536983, Note_on_c, 0, 76, 53
1, 536986, Note_on_c, 0, 71, 36
1, 537035, Note_off_c, 0, 71, 61
1, 537256, Control_c, 0, 64, 98
1, 537271, Control_c, 0, 64, 79
1, 537286, Control_c, 0, 64, 65
1, 537300, Control_c, 0, 64, 55
1, 537305, Note_on_c, 0, 31, 52
1, 537315, Control_c, 0, 64, 62
1, 537330, Control_c, 0, 64, 68
1, 537345, Control_c, 0, 64, 77
1, 537360, Control_c, 0, 64, 91
1, 537374, Control_c, 0, 64, 110
1, 537389, Control_c, 0, 64, 127
1, 537397, Note_off_c, 0, 31, 61
1, 537397, Note_off_c, 0, 76, 63
1, 537472, Note_on_c, 0, 76, 64
1, 537609, Note_on_c, 0, 83, 73
1, 537725, Note_on_c, 0, 56, 53
1, 537738, Note_on_c, 0, 64, 50
1, 537783, Control_c, 0, 64, 104
1, 537797, Control_c, 0, 64, 81
1, 537812, Control_c, 0, 64, 62
1, 537827, Control_c, 0, 64, 0
1, 537859, Note_on_c, 0, 88, 74
1, 537902, Control_c, 0, 64, 54
1, 537916, Control_c, 0, 64, 64
1, 537931, Control_c, 0, 64, 68
1, 537946, Control_c, 0, 64, 73
1, 537961, Control_c, 0, 64, 77
1, 537975, Control_c, 0, 64, 80
1, 537990, Control_c, 0, 64, 85
1, 538005, Control_c, 0, 64, 92
1, 538020, Control_c, 0, 64, 103
1, 538035, Control_c, 0, 64, 127
1, 538450, Note_on_c, 0, 62, 33
1, 538453, Note_on_c, 0, 66, 40
1, 538671, Note_on_c, 0, 85, 47
1, 538696, Note_off_c, 0, 83, 35
1, 538709, Note_off_c, 0, 88, 30
1, 538781, Note_off_c, 0, 85, 56
1, 538850, Note_off_c, 0, 56, 25
1, 538907, Note_on_c, 0, 78, 39
1, 538990, Note_on_c, 0, 85, 47
1, 539000, Note_off_c, 0, 64, 19
1, 539024, Note_off_c, 0, 78, 38
1, 539027, Note_off_c, 0, 76, 34
1, 539103, Note_on_c, 0, 88, 56
1, 539103, Note_off_c, 0, 85, 58
1, 539207, Note_off_c, 0, 88, 57
1, 539578, Poly_aftertouch_c, 0, 64, 127
1, 539581, Note_on_c, 0, 64, 3
1, 539591, Note_on_c, 0, 56, 27
1, 539637, Note_off_c, 0, 62, 26
1, 539639, Note_on_c, 0, 83, 45
1, 539642, Note_on_c, 0, 76, 34
1, 539739, Note_off_c, 0, 66, 38
1, 539772, Note_off_c, 0, 83, 64
1, 539882, Note_off_c, 0, 76, 37
1, 540285, Note_off_c, 0, 64, 40
1, 540309, Note_on_c, 0, 62, 33
1, 540311, Note_on_c, 0, 76, 44
1, 540314, Note_off_c, 0, 56, 37
1, 540320, Note_on_c, 0, 71, 30
1, 540325, Note_on_c, 0, 66, 34
1, 540444, Note_off_c, 0, 62, 49
1, 540463, Note_off_c, 0, 66, 45
1, 540936, Note_off_c, 0, 76, 45
1, 540987, Note_off_c, 0, 71, 43
1, 541311, Note_on_c, 0, 31, 35
1, 541415, Control_c, 0, 64, 99
1, 541437, Control_c, 0, 64, 85
1, 541452, Control_c, 0, 64, 71
1, 541467, Control_c, 0, 64, 59
1, 541482, Control_c, 0, 64, 0
1, 541541, Control_c, 0, 64, 22
1, 541556, Control_c, 0, 64, 35
1, 541571, Control_c, 0, 64, 44
1, 541585, Control_c, 0, 64, 50
1, 541600, Control_c, 0, 64, 55
1, 541615, Control_c, 0, 64, 58
1, 541630, Control_c, 0, 64, 61
1, 541645, Control_c, 0, 64, 63
1, 541660, Control_c, 0, 64, 64
1, 541675, Control_c, 0, 64, 65
1, 541690, Control_c, 0, 64, 66
1, 541705, Control_c, 0, 64, 67
1, 541720, Control_c, 0, 64, 69
1, 541734, Control_c, 0, 64, 71
1, 541749, Control_c, 0, 64, 73
1, 541764, Control_c, 0, 64, 76
1, 541779, Control_c, 0, 64, 78
1, 541794, Control_c, 0, 64, 79
1, 541823, Control_c, 0, 64, 80
1, 541838, Control_c, 0, 64, 80
1, 541853, Control_c, 0, 64, 81
1, 541868, Control_c, 0, 64, 83
1, 541883, Control_c, 0, 64, 84
1, 541897, Control_c, 0, 64, 86
1, 541898, Note_on_c, 0, 64, 41
1, 541912, Control_c, 0, 64, 88
1, 541913, Note_on_c, 0, 59, 34
1, 541915, Note_on_c, 0, 56, 24
1, 541927, Control_c, 0, 64, 90
1, 541941, Control_c, 0, 64, 92
1, 541956, Control_c, 0, 64, 94
1, 541971, Control_c, 0, 64, 96
1, 541986, Control_c, 0, 64, 99
1, 542001, Control_c, 0, 64, 103
1, 542015, Control_c, 0, 64, 109
1, 542030, Control_c, 0, 64, 116
1, 542045, Control_c, 0, 64, 127
1, 542088, Note_off_c, 0, 59, 59
1, 542231, Note_off_c, 0, 56, 53
1, 542346, Note_on_c, 0, 65, 51
1, 542359, Note_on_c, 0, 43, 35
1, 542359, Note_on_c, 0, 60, 40
1, 542396, Note_off_c, 0, 64, 33
1, 542519, Note_off_c, 0, 65, 62
1, 542533, Note_off_c, 0, 60, 0
1, 542533, Note_on_c, 0, 60, 4
1, 542760, Note_on_c, 0, 72, 55
1, 542766, Note_on_c, 0, 68, 49
1, 542863, Note_off_c, 0, 68, 58
1, 542907, Note_off_c, 0, 72, 54
1, 542981, Note_off_c, 0, 60, 38
1, 543107, Note_on_c, 0, 64, 35
1, 543113, Note_on_c, 0, 67, 42
1, 543115, Note_on_c, 0, 60, 43
1, 543178, Note_off_c, 0, 64, 62
1, 543371, Note_off_c, 0, 60, 51
1, 543375, Note_off_c, 0, 67, 52
1, 543394, Note_on_c, 0, 68, 54
1, 543407, Note_off_c, 0, 31, 37
1, 543415, Note_on_c, 0, 65, 59
1, 543446, Note_off_c, 0, 65, 67
1, 543461, Note_off_c, 0, 68, 64
1, 543645, Note_on_c, 0, 31, 48
1, 543646, Control_c, 0, 64, 107
1, 543655, Note_on_c, 0, 77, 63
1, 543660, Control_c, 0, 64, 84
1, 543664, Note_on_c, 0, 72, 53
1, 543675, Control_c, 0, 64, 68
1, 543697, Control_c, 0, 64, 62
1, 543711, Control_c, 0, 64, 65
1, 543726, Control_c, 0, 64, 69
1, 543741, Control_c, 0, 64, 76
1, 543756, Control_c, 0, 64, 88
1, 543772, Control_c, 0, 64, 103
1, 543786, Control_c, 0, 64, 127
1, 543792, Note_off_c, 0, 77, 54
1, 543796, Note_off_c, 0, 72, 59
1, 543906, Note_off_c, 0, 43, 39
1, 543929, Note_on_c, 0, 71, 53
1, 543937, Note_on_c, 0, 65, 52
1, 544111, Note_off_c, 0, 65, 47
1, 544127, Note_off_c, 0, 71, 57
1, 544152, Note_on_c, 0, 72, 59
1, 544163, Note_on_c, 0, 43, 45
1, 544167, Note_on_c, 0, 68, 54
1, 544192, Note_off_c, 0, 68, 64
1, 544196, Note_off_c, 0, 72, 65
1, 544382, Note_on_c, 0, 80, 62
1, 544390, Note_on_c, 0, 68, 54
1, 544397, Note_on_c, 0, 77, 44
1, 544454, Note_off_c, 0, 77, 63
1, 544488, Note_off_c, 0, 80, 58
1, 544545, Note_off_c, 0, 68, 58
1, 544626, Note_on_c, 0, 76, 60
1, 544637, Note_on_c, 0, 71, 52
1, 544780, Note_off_c, 0, 31, 39
1, 544849, Note_off_c, 0, 76, 55
1, 544864, Note_off_c, 0, 71, 55
1, 544870, Note_on_c, 0, 77, 60
1, 544880, Note_on_c, 0, 72, 62
1, 544933, Note_off_c, 0, 77, 63
1, 545114, Control_c, 0, 64, 122
1, 545129, Control_c, 0, 64, 93
1, 545142, Note_on_c, 0, 84, 56
1, 545144, Control_c, 0, 64, 75
1, 545147, Note_on_c, 0, 31, 40
1, 545149, Note_on_c, 0, 80, 49
1, 545158, Control_c, 0, 64, 60
1, 545181, Control_c, 0, 64, 26
1, 545196, Control_c, 0, 64, 45
1, 545211, Control_c, 0, 64, 61
1, 545217, Note_off_c, 0, 43, 32
1, 545226, Control_c, 0, 64, 66
1, 545240, Control_c, 0, 64, 71
1, 545255, Control_c, 0, 64, 79
1, 545269, Control_c, 0, 64, 90
1, 545283, Control_c, 0, 64, 98
1, 545295, Note_off_c, 0, 80, 37
1, 545298, Control_c, 0, 64, 106
1, 545309, Note_off_c, 0, 72, 40
1, 545313, Control_c, 0, 64, 127
1, 545366, Note_off_c, 0, 84, 33
1, 545473, Note_on_c, 0, 72, 43
1, 545474, Note_on_c, 0, 79, 50
1, 545476, Note_on_c, 0, 76, 35
1, 545512, Note_off_c, 0, 76, 49
1, 545746, Note_off_c, 0, 79, 57
1, 545754, Note_off_c, 0, 72, 52
1, 545769, Note_on_c, 0, 80, 55
1, 545791, Note_on_c, 0, 43, 39
1, 545792, Note_on_c, 0, 77, 44
1, 545824, Note_off_c, 0, 77, 63
1, 545831, Note_off_c, 0, 80, 64
1, 545955, Note_off_c, 0, 31, 33
1, 545998, Note_off_c, 0, 43, 40
1, 546258, Note_on_c, 0, 91, 60
1, 546259, Note_on_c, 0, 87, 54
1, 546323, Note_off_c, 0, 87, 58
1, 547107, Note_on_c, 0, 72, 46
1, 547311, Note_on_c, 0, 74, 40
1, 547391, Note_off_c, 0, 72, 32
1, 547405, Control_c, 0, 64, 113
1, 547427, Control_c, 0, 64, 103
1, 547442, Control_c, 0, 64, 93
1, 547457, Control_c, 0, 64, 81
1, 547472, Control_c, 0, 64, 68
1, 547476, Note_off_c, 0, 74, 57
1, 547486, Control_c, 0, 64, 42
1, 547488, Note_on_c, 0, 89, 51
1, 547500, Note_on_c, 0, 80, 51
1, 547501, Control_c, 0, 64, 0
1, 547506, Note_on_c, 0, 82, 26
1, 547507, Note_off_c, 0, 91, 51
1, 547548, Note_off_c, 0, 82, 54
1, 547552, Note_off_c, 0, 89, 58
1, 547553, Note_off_c, 0, 80, 58
1, 547849, Note_on_c, 0, 82, 54
1, 548105, Note_off_c, 0, 82, 62
1, 548119, Note_on_c, 0, 84, 65
1, 548120, Note_on_c, 0, 72, 52
1, 548124, Control_c, 0, 64, 58
1, 548139, Control_c, 0, 64, 67
1, 548154, Control_c, 0, 64, 73
1, 548176, Control_c, 0, 64, 80
1, 548191, Control_c, 0, 64, 86
1, 548201, Note_off_c, 0, 72, 45
1, 548206, Control_c, 0, 64, 93
1, 548218, Note_off_c, 0, 84, 61
1, 548221, Control_c, 0, 64, 104
1, 548235, Control_c, 0, 64, 117
1, 548250, Control_c, 0, 64, 127
1, 548251, Note_on_c, 0, 75, 51
1, 548309, Control_c, 0, 64, 115
1, 548324, Control_c, 0, 64, 95
1, 548339, Control_c, 0, 64, 79
1, 548350, Note_off_c, 0, 75, 61
1, 548354, Control_c, 0, 64, 64
1, 548364, Note_on_c, 0, 87, 55
1, 548369, Control_c, 0, 64, 0
1, 548373, Note_on_c, 0, 84, 53
1, 548374, Note_on_c, 0, 82, 46
1, 548395, Note_off_c, 0, 82, 64
1, 548396, Note_off_c, 0, 87, 62
1, 548397, Note_off_c, 0, 84, 62
1, 548591, Note_on_c, 0, 91, 64
1, 548603, Note_on_c, 0, 82, 50
1, 548618, Note_off_c, 0, 91, 68
1, 548632, Note_off_c, 0, 82, 54
1, 548783, Control_c, 0, 64, 26
1, 548798, Control_c, 0, 64, 60
1, 548813, Control_c, 0, 64, 67
1, 548817, Note_on_c, 0, 91, 60
1, 548819, Note_on_c, 0, 72, 49
1, 548827, Control_c, 0, 64, 73
1, 548843, Control_c, 0, 64, 78
1, 548858, Control_c, 0, 64, 82
1, 548873, Control_c, 0, 64, 86
1, 548888, Control_c, 0, 64, 92
1, 548903, Control_c, 0, 64, 99
1, 548925, Control_c, 0, 64, 106
1, 548928, Note_on_c, 0, 74, 43
1, 548940, Control_c, 0, 64, 116
1, 548955, Control_c, 0, 64, 127
1, 549011, Note_off_c, 0, 74, 61
1, 549013, Control_c, 0, 64, 102
1, 549016, Note_off_c, 0, 91, 65
1, 549028, Control_c, 0, 64, 86
1, 549032, Note_on_c, 0, 89, 57
1, 549034, Note_on_c, 0, 80, 59
1, 549036, Note_off_c, 0, 72, 27
1, 549037, Note_on_c, 0, 82, 55
1, 549043, Control_c, 0, 64, 72
1, 549054, Note_off_c, 0, 89, 58
1, 549057, Control_c, 0, 64, 54
1, 549064, Note_off_c, 0, 80, 65
1, 549065, Note_off_c, 0, 82, 54
1, 549072, Control_c, 0, 64, 0
1, 549249, Note_on_c, 0, 82, 55
1, 549250, Note_on_c, 0, 80, 58
1, 549277, Note_off_c, 0, 80, 65
1, 549295, Note_off_c, 0, 82, 56
1, 549413, Control_c, 0, 64, 12
1, 549428, Control_c, 0, 64, 41
1, 549443, Control_c, 0, 64, 56
1, 549450, Note_on_c, 0, 72, 53
1, 549457, Control_c, 0, 64, 64
1, 549461, Note_on_c, 0, 84, 58
1, 549472, Control_c, 0, 64, 69
1, 549487, Control_c, 0, 64, 77
1, 549502, Control_c, 0, 64, 85
1, 549505, Note_off_c, 0, 84, 58
1, 549517, Control_c, 0, 64, 92
1, 549531, Control_c, 0, 64, 98
1, 549542, Note_off_c, 0, 72, 55
1, 549546, Control_c, 0, 64, 109
1, 549561, Control_c, 0, 64, 127
1, 549587, Note_on_c, 0, 75, 43
1, 549715, Note_off_c, 0, 75, 48
1, 549739, Note_on_c, 0, 87, 61
1, 549745, Note_on_c, 0, 84, 52
1, 549749, Note_on_c, 0, 82, 47
1, 549774, Note_off_c, 0, 87, 63
1, 549788, Note_off_c, 0, 84, 61
1, 549807, Note_off_c, 0, 82, 55
1, 550125, Note_on_c, 0, 91, 56
1, 550132, Note_on_c, 0, 84, 44
1, 550136, Note_on_c, 0, 82, 33
1, 550222, Note_off_c, 0, 84, 56
1, 550442, Note_off_c, 0, 82, 52
1, 550448, Note_on_c, 0, 31, 48
1, 550496, Control_c, 0, 64, 97
1, 550511, Control_c, 0, 64, 75
1, 550526, Control_c, 0, 64, 61
1, 550541, Control_c, 0, 64, 47
1, 550555, Control_c, 0, 64, 57
1, 550570, Control_c, 0, 64, 64
1, 550585, Control_c, 0, 64, 70
1, 550600, Control_c, 0, 64, 79
1, 550615, Control_c, 0, 64, 94
1, 550630, Control_c, 0, 64, 108
1, 550645, Control_c, 0, 64, 127
1, 550681, Note_off_c, 0, 31, 52
1, 550684, Note_on_c, 0, 43, 66
1, 550715, Note_off_c, 0, 43, 64
1, 550737, Note_off_c, 0, 91, 65
1, 550979, Note_on_c, 0, 61, 47
1, 550983, Note_on_c, 0, 52, 56
1, 550994, Note_on_c, 0, 58, 39
1, 551029, Note_on_c, 0, 88, 43
1, 551033, Note_on_c, 0, 96, 68
1, 551045, Note_on_c, 0, 84, 49
1, 551232, Note_off_c, 0, 84, 63
1, 551232, Note_off_c, 0, 96, 61
1, 551429, Note_on_c, 0, 94, 69
1, 551436, Note_on_c, 0, 82, 54
1, 551498, Note_off_c, 0, 82, 66
1, 551515, Note_off_c, 0, 94, 62
1, 551638, Note_on_c, 0, 96, 76
1, 551640, Note_off_c, 0, 52, 54
1, 551645, Note_on_c, 0, 84, 61
1, 551650, Note_off_c, 0, 58, 34
1, 551686, Note_off_c, 0, 88, 41
1, 551694, Note_off_c, 0, 61, 62
1, 551706, Note_off_c, 0, 84, 64
1, 551713, Note_off_c, 0, 96, 62
1, 551783, Note_on_c, 0, 88, 31
1, 551791, Note_on_c, 0, 58, 15
1, 551812, Note_on_c, 0, 53, 50
1, 551824, Note_on_c, 0, 62, 46
1, 551840, Note_on_c, 0, 94, 71
1, 551846, Note_off_c, 0, 88, 64
1, 551849, Note_on_c, 0, 82, 61
1, 551902, Note_off_c, 0, 53, 59
1, 551902, Note_off_c, 0, 82, 66
1, 551911, Note_off_c, 0, 94, 63
1, 551929, Note_off_c, 0, 58, 49
1, 551933, Note_off_c, 0, 62, 54
1, 552020, Note_on_c, 0, 92, 71
1, 552034, Note_on_c, 0, 80, 62
1, 552053, Note_off_c, 0, 92, 60
1, 552065, Note_off_c, 0, 80, 66
1, 552191, Note_on_c, 0, 65, 49
1, 552197, Note_on_c, 0, 56, 38
1, 552200, Note_on_c, 0, 84, 70
1, 552204, Note_on_c, 0, 72, 73
1, 552219, Note_off_c, 0, 65, 60
1, 552227, Note_off_c, 0, 72, 65
1, 552228, Note_off_c, 0, 56, 51
1, 552256, Note_off_c, 0, 84, 65
1, 552400, Note_on_c, 0, 65, 31
1, 552416, Note_on_c, 0, 68, 54
1, 552434, Note_on_c, 0, 59, 53
1, 552454, Control_c, 0, 64, 124
1, 552468, Control_c, 0, 64, 88
1, 552483, Control_c, 0, 64, 69
1, 552484, Note_on_c, 0, 88, 51
1, 552493, Note_on_c, 0, 91, 60
1, 552496, Note_on_c, 0, 79, 42
1, 552498, Control_c, 0, 64, 27
1, 552512, Control_c, 0, 64, 0
1, 552527, Control_c, 0, 64, 31
1, 552542, Control_c, 0, 64, 54
1, 552557, Control_c, 0, 64, 64
1, 552570, Note_off_c, 0, 88, 64
1, 552572, Control_c, 0, 64, 69
1, 552586, Control_c, 0, 64, 80
1, 552601, Control_c, 0, 64, 103
1, 552616, Control_c, 0, 64, 127
1, 552643, Note_off_c, 0, 91, 64
1, 552677, Note_off_c, 0, 79, 63
1, 552785, Note_on_c, 0, 89, 63
1, 552796, Note_on_c, 0, 77, 45
1, 552826, Note_off_c, 0, 77, 51
1, 552860, Note_off_c, 0, 89, 64
1, 552946, Note_off_c, 0, 59, 51
1, 552964, Note_on_c, 0, 91, 70
1, 552998, Note_off_c, 0, 65, 33
1, 553002, Note_off_c, 0, 68, 53
1, 553022, Note_off_c, 0, 91, 60
1, 553029, Poly_aftertouch_c, 0, 79, 127
1, 553067, Poly_aftertouch_c, 0, 79, 0
1, 553146, Note_on_c, 0, 65, 20
1, 553152, Note_on_c, 0, 89, 70
1, 553154, Note_on_c, 0, 60, 51
1, 553165, Note_on_c, 0, 77, 50
1, 553166, Note_on_c, 0, 68, 44
1, 553188, Note_off_c, 0, 89, 61
1, 553201, Note_off_c, 0, 65, 53
1, 553201, Note_off_c, 0, 77, 50
1, 553232, Note_off_c, 0, 60, 56
1, 553233, Note_off_c, 0, 68, 60
1, 553384, Note_on_c, 0, 87, 58
1, 553397, Note_on_c, 0, 75, 47
1, 553445, Note_off_c, 0, 87, 64
1, 553463, Poly_aftertouch_c, 0, 79, 0
1, 553465, Note_off_c, 0, 75, 57
1, 553484, Poly_aftertouch_c, 0, 79, 0
1, 553649, Note_on_c, 0, 67, 43
1, 553650, Note_on_c, 0, 63, 46
1, 553689, Note_on_c, 0, 79, 63
1, 553704, Note_on_c, 0, 75, 37
1, 553721, Note_off_c, 0, 63, 63
1, 553749, Note_off_c, 0, 75, 58
1, 553797, Note_off_c, 0, 79, 61
1, 554045, Note_on_c, 0, 31, 51
1, 554055, Control_c, 0, 64, 95
1, 554070, Control_c, 0, 64, 71
1, 554085, Control_c, 0, 64, 0
1, 554087, Note_on_c, 0, 77, 55
1, 554091, Note_on_c, 0, 73, 52
1, 554114, Control_c, 0, 64, 49
1, 554129, Control_c, 0, 64, 65
1, 554136, Note_off_c, 0, 31, 62
1, 554144, Note_off_c, 0, 67, 55
1, 554144, Control_c, 0, 64, 74
1, 554159, Control_c, 0, 64, 87
1, 554180, Control_c, 0, 64, 103
1, 554195, Control_c, 0, 64, 127
1, 554391, Note_on_c, 0, 51, 52
1, 554392, Note_off_c, 0, 77, 49
1, 554442, Note_off_c, 0, 51, 60
1, 554462, Note_off_c, 0, 73, 49
1, 554496, Note_on_c, 0, 72, 65
1, 554505, Note_on_c, 0, 68, 39
1, 554557, Note_off_c, 0, 68, 47
1, 554601, Note_on_c, 0, 77, 63
1, 554606, Note_off_c, 0, 72, 63
1, 554609, Note_on_c, 0, 71, 51
1, 554618, Note_on_c, 0, 73, 51
1, 554632, Note_off_c, 0, 71, 59
1, 554779, Note_on_c, 0, 61, 55
1, 554855, Note_off_c, 0, 73, 59
1, 554886, Note_on_c, 0, 66, 57
1, 554893, Note_on_c, 0, 70, 53
1, 554900, Note_off_c, 0, 77, 33
1, 554924, Note_off_c, 0, 61, 62
1, 554988, Note_on_c, 0, 51, 52
1, 554990, Note_off_c, 0, 70, 60
1, 555000, Note_on_c, 0, 73, 47
1, 555000, Note_on_c, 0, 77, 59
1, 555028, Note_off_c, 0, 66, 36
1, 555104, Note_off_c, 0, 51, 50
1, 555253, Note_on_c, 0, 43, 46
1, 555310, Note_off_c, 0, 43, 62
1, 555346, Note_off_c, 0, 77, 27
1, 555352, Note_off_c, 0, 73, 56
1, 555395, Note_on_c, 0, 71, 41
1, 555402, Note_on_c, 0, 67, 42
1, 555626, Control_c, 0, 64, 116
1, 555637, Note_on_c, 0, 31, 46
1, 555641, Control_c, 0, 64, 100
1, 555663, Control_c, 0, 64, 85
1, 555678, Control_c, 0, 64, 67
1, 555685, Note_on_c, 0, 72, 41
1, 555685, Note_off_c, 0, 71, 49
1, 555693, Control_c, 0, 64, 0
1, 555707, Note_on_c, 0, 77, 55
1, 555731, Note_off_c, 0, 72, 59
1, 555775, Note_off_c, 0, 67, 25
1, 555797, Control_c, 0, 64, 64
1, 555812, Control_c, 0, 64, 71
1, 555826, Control_c, 0, 64, 78
1, 555841, Control_c, 0, 64, 85
1, 555855, Note_off_c, 0, 31, 51
1, 555856, Control_c, 0, 64, 93
1, 555870, Control_c, 0, 64, 104
1, 555885, Control_c, 0, 64, 127
1, 556371, Note_on_c, 0, 75, 43
1, 556419, Note_off_c, 0, 77, 29
1, 556441, Note_off_c, 0, 75, 53
1, 556450, Note_on_c, 0, 72, 57
1, 556501, Note_on_c, 0, 67, 53
1, 556501, Note_off_c, 0, 72, 59
1, 556543, Note_off_c, 0, 67, 62
1, 556570, Note_on_c, 0, 68, 46
1, 556629, Note_on_c, 0, 63, 51
1, 556672, Note_off_c, 0, 68, 61
1, 556725, Note_on_c, 0, 60, 48
1, 556741, Note_off_c, 0, 63, 52
1, 556821, Note_off_c, 0, 60, 54
1, 557381, Note_on_c, 0, 60, 47
1, 557382, Note_on_c, 0, 52, 45
1, 557435, Note_off_c, 0, 52, 59
1, 557452, Note_off_c, 0, 60, 53
1, 557557, Note_on_c, 0, 60, 29
1, 557561, Note_on_c, 0, 52, 35
1, 557596, Note_off_c, 0, 52, 46
1, 557602, Note_off_c, 0, 60, 47
1, 557695, Note_on_c, 0, 60, 41
1, 557698, Note_on_c, 0, 52, 41
1, 557740, Note_off_c, 0, 60, 59
1, 557749, Note_off_c, 0, 52, 55
1, 557986, Note_on_c, 0, 55, 42
1, 557993, Note_on_c, 0, 51, 37
1, 558161, Control_c, 0, 64, 112
1, 558176, Control_c, 0, 64, 91
1, 558190, Control_c, 0, 64, 72
1, 558198, Note_off_c, 0, 55, 62
1, 558205, Control_c, 0, 64, 63
1, 558220, Control_c, 0, 64, 64
1, 558228, Note_on_c, 0, 43, 41
1, 558235, Control_c, 0, 64, 66
1, 558237, Note_on_c, 0, 58, 44
1, 558246, Note_on_c, 0, 50, 21
1, 558250, Control_c, 0, 64, 69
1, 558264, Control_c, 0, 64, 75
1, 558279, Control_c, 0, 64, 85
1, 558283, Note_off_c, 0, 58, 59
1, 558285, Note_off_c, 0, 50, 50
1, 558290, Note_off_c, 0, 51, 43
1, 558294, Control_c, 0, 64, 97
1, 558309, Control_c, 0, 64, 103
1, 558324, Control_c, 0, 64, 107
1, 558339, Control_c, 0, 64, 112
1, 558353, Control_c, 0, 64, 120
1, 558368, Control_c, 0, 64, 127
1, 558383, Note_on_c, 0, 58, 53
1, 558390, Note_on_c, 0, 50, 40
1, 558424, Note_off_c, 0, 50, 53
1, 558425, Note_off_c, 0, 58, 59
1, 558517, Control_c, 0, 64, 111
1, 558532, Control_c, 0, 64, 101
1, 558535, Note_on_c, 0, 58, 49
1, 558539, Note_on_c, 0, 50, 37
1, 558547, Control_c, 0, 64, 91
1, 558562, Control_c, 0, 64, 79
1, 558577, Control_c, 0, 64, 67
1, 558592, Control_c, 0, 64, 40
1, 558606, Control_c, 0, 64, 24
1, 558702, Control_c, 0, 64, 22
1, 558771, Note_off_c, 0, 58, 47
1, 558791, Note_on_c, 0, 51, 28
1, 558792, Note_on_c, 0, 55, 38
1, 558797, Note_off_c, 0, 50, 40
1, 558955, Control_c, 0, 64, 24
1, 558969, Control_c, 0, 64, 28
1, 558984, Control_c, 0, 64, 33
1, 558999, Control_c, 0, 64, 38
1, 559013, Control_c, 0, 64, 45
1, 559028, Control_c, 0, 64, 54
1, 559043, Control_c, 0, 64, 61
1, 559058, Control_c, 0, 64, 65
1, 559066, Note_on_c, 0, 31, 38
1, 559073, Control_c, 0, 64, 69
1, 559087, Control_c, 0, 64, 76
1, 559093, Note_off_c, 0, 55, 53
1, 559102, Control_c, 0, 64, 82
1, 559117, Control_c, 0, 64, 87
1, 559122, Note_off_c, 0, 51, 42
1, 559131, Control_c, 0, 64, 91
1, 559146, Control_c, 0, 64, 97
1, 559161, Control_c, 0, 64, 104
1, 559176, Control_c, 0, 64, 111
1, 559191, Control_c, 0, 64, 127
1, 559279, Note_off_c, 0, 43, 29
1, 559310, Control_c, 0, 64, 110
1, 559319, Note_on_c, 0, 52, 41
1, 559319, Note_on_c, 0, 60, 47
1, 559325, Control_c, 0, 64, 93
1, 559340, Control_c, 0, 64, 81
1, 559355, Control_c, 0, 64, 70
1, 559370, Control_c, 0, 64, 67
1, 559385, Control_c, 0, 64, 71
1, 559407, Control_c, 0, 64, 76
1, 559422, Control_c, 0, 64, 83
1, 559436, Control_c, 0, 64, 88
1, 559451, Control_c, 0, 64, 91
1, 559454, Note_off_c, 0, 60, 55
1, 559466, Control_c, 0, 64, 94
1, 559467, Note_off_c, 0, 52, 51
1, 559481, Control_c, 0, 64, 98
1, 559495, Control_c, 0, 64, 101
1, 559510, Control_c, 0, 64, 103
1, 559525, Control_c, 0, 64, 105
1, 559540, Control_c, 0, 64, 107
1, 559555, Control_c, 0, 64, 109
1, 559569, Control_c, 0, 64, 110
1, 559584, Control_c, 0, 64, 110
1, 559599, Control_c, 0, 64, 110
1, 559614, Control_c, 0, 64, 107
1, 559629, Note_on_c, 0, 55, 44
1, 559629, Control_c, 0, 64, 98
1, 559637, Note_on_c, 0, 51, 37
1, 559643, Control_c, 0, 64, 89
1, 559658, Control_c, 0, 64, 79
1, 559673, Control_c, 0, 64, 69
1, 559688, Control_c, 0, 64, 57
1, 559703, Control_c, 0, 64, 51
1, 559747, Control_c, 0, 64, 52
1, 559761, Control_c, 0, 64, 54
1, 559776, Control_c, 0, 64, 55
1, 559791, Control_c, 0, 64, 57
1, 559806, Control_c, 0, 64, 58
1, 559821, Control_c, 0, 64, 60
1, 559835, Control_c, 0, 64, 63
1, 559850, Control_c, 0, 64, 66
1, 559865, Control_c, 0, 64, 71
1, 559880, Control_c, 0, 64, 81
1, 559895, Control_c, 0, 64, 88
1, 559900, Note_off_c, 0, 55, 54
1, 559910, Control_c, 0, 64, 92
1, 559924, Control_c, 0, 64, 95
1, 559930, Note_off_c, 0, 51, 42
1, 559939, Control_c, 0, 64, 99
1, 559954, Control_c, 0, 64, 104
1, 559969, Control_c, 0, 64, 108
1, 559984, Control_c, 0, 64, 113
1, 559999, Control_c, 0, 64, 119
1, 560014, Control_c, 0, 64, 127
1, 560199, Control_c, 0, 64, 121
1, 560200, Note_on_c, 0, 58, 43
1, 560207, Note_on_c, 0, 50, 34
1, 560214, Control_c, 0, 64, 99
1, 560229, Control_c, 0, 64, 87
1, 560245, Control_c, 0, 64, 76
1, 560259, Control_c, 0, 64, 67
1, 560274, Control_c, 0, 64, 64
1, 560289, Control_c, 0, 64, 67
1, 560304, Control_c, 0, 64, 70
1, 560319, Control_c, 0, 64, 76
1, 560333, Control_c, 0, 64, 83
1, 560348, Control_c, 0, 64, 89
1, 560363, Control_c, 0, 64, 93
1, 560367, Note_off_c, 0, 58, 38
1, 560378, Control_c, 0, 64, 95
1, 560388, Note_off_c, 0, 50, 34
1, 560392, Control_c, 0, 64, 98
1, 560407, Control_c, 0, 64, 101
1, 560422, Control_c, 0, 64, 104
1, 560437, Control_c, 0, 64, 106
1, 560452, Control_c, 0, 64, 108
1, 560467, Control_c, 0, 64, 109
1, 560482, Control_c, 0, 64, 109
1, 560512, Control_c, 0, 64, 107
1, 560517, Note_on_c, 0, 55, 42
1, 560521, Note_on_c, 0, 51, 37
1, 560527, Control_c, 0, 64, 98
1, 560541, Control_c, 0, 64, 88
1, 560556, Control_c, 0, 64, 78
1, 560571, Control_c, 0, 64, 70
1, 560585, Control_c, 0, 64, 66
1, 560600, Control_c, 0, 64, 68
1, 560615, Control_c, 0, 64, 71
1, 560630, Control_c, 0, 64, 74
1, 560645, Control_c, 0, 64, 80
1, 560659, Control_c, 0, 64, 88
1, 560674, Control_c, 0, 64, 92
1, 560689, Control_c, 0, 64, 95
1, 560703, Control_c, 0, 64, 98
1, 560716, Note_off_c, 0, 31, 36
1, 560718, Control_c, 0, 64, 101
1, 560733, Control_c, 0, 64, 105
1, 560748, Control_c, 0, 64, 109
1, 560763, Control_c, 0, 64, 112
1, 560777, Control_c, 0, 64, 118
1, 560792, Control_c, 0, 64, 127
1, 560950, Note_on_c, 0, 43, 37
1, 560979, Control_c, 0, 64, 109
1, 560994, Control_c, 0, 64, 99
1, 561008, Control_c, 0, 64, 92
1, 561023, Control_c, 0, 64, 83
1, 561038, Control_c, 0, 64, 73
1, 561053, Control_c, 0, 64, 65
1, 561068, Control_c, 0, 64, 57
1, 561082, Control_c, 0, 64, 56
1, 561097, Control_c, 0, 64, 56
1, 561112, Control_c, 0, 64, 59
1, 561126, Control_c, 0, 64, 62
1, 561141, Control_c, 0, 64, 64
1, 561156, Control_c, 0, 64, 66
1, 561171, Control_c, 0, 64, 70
1, 561186, Control_c, 0, 64, 75
1, 561200, Control_c, 0, 64, 82
1, 561215, Control_c, 0, 64, 88
1, 561230, Control_c, 0, 64, 92
1, 561245, Control_c, 0, 64, 95
1, 561260, Control_c, 0, 64, 100
1, 561275, Control_c, 0, 64, 106
1, 561290, Control_c, 0, 64, 114
1, 561305, Control_c, 0, 64, 124
1, 561319, Control_c, 0, 64, 127
1, 561352, Note_off_c, 0, 51, 32
1, 561413, Note_off_c, 0, 55, 38
1, 561477, Note_off_c, 0, 43, 30
1, 562220, Note_on_c, 0, 31, 43
1, 562231, Control_c, 0, 64, 96
1, 562246, Control_c, 0, 64, 80
1, 562261, Control_c, 0, 64, 66
1, 562275, Control_c, 0, 64, 51
1, 562290, Control_c, 0, 64, 60
1, 562305, Control_c, 0, 64, 64
1, 562320, Control_c, 0, 64, 67
1, 562335, Control_c, 0, 64, 71
1, 562349, Control_c, 0, 64, 78
1, 562364, Control_c, 0, 64, 88
1, 562379, Control_c, 0, 64, 99
1, 562394, Control_c, 0, 64, 107
1, 562416, Control_c, 0, 64, 122
1, 562432, Control_c, 0, 64, 127
1, 562442, Note_off_c, 0, 31, 39
1, 562849, Note_on_c, 0, 79, 52
1, 562856, Note_on_c, 0, 64, 7
1, 562857, Note_on_c, 0, 67, 42
1, 562858, Note_on_c, 0, 72, 43
1, 562860, Note_on_c, 0, 60, 43
1, 562864, Note_on_c, 0, 76, 32
1, 562949, Note_off_c, 0, 76, 59
1, 563045, Note_off_c, 0, 64, 42
1, 563122, Note_off_c, 0, 60, 50
1, 563180, Note_off_c, 0, 67, 59
1, 563227, Note_off_c, 0, 72, 64
1, 563340, Note_on_c, 0, 78, 64
1, 563347, Note_on_c, 0, 59, 47
1, 563348, Note_on_c, 0, 63, 48
1, 563360, Note_on_c, 0, 71, 47
1, 563365, Note_on_c, 0, 66, 48
1, 563414, Poly_aftertouch_c, 0, 75, 127
1, 563433, Note_off_c, 0, 79, 34
1, 563450, Poly_aftertouch_c, 0, 75, 0
1, 563588, Note_off_c, 0, 66, 49
1, 563625, Note_off_c, 0, 71, 63
1, 563761, Note_on_c, 0, 57, 41
1, 563766, Note_on_c, 0, 60, 40
1, 563766, Note_off_c, 0, 63, 56
1, 563773, Note_on_c, 0, 64, 43
1, 563803, Control_c, 0, 64, 105
1, 563817, Control_c, 0, 64, 80
1, 563832, Control_c, 0, 64, 63
1, 563834, Note_off_c, 0, 59, 30
1, 563838, Note_on_c, 0, 76, 67
1, 563838, Note_on_c, 0, 69, 53
1, 563847, Control_c, 0, 64, 0
1, 563870, Note_off_c, 0, 78, 50
1, 563899, Control_c, 0, 64, 60
1, 563914, Control_c, 0, 64, 70
1, 563928, Control_c, 0, 64, 82
1, 563934, Note_off_c, 0, 69, 62
1, 563943, Control_c, 0, 64, 101
1, 563958, Control_c, 0, 64, 127
1, 563972, Note_off_c, 0, 76, 67
1, 564021, Note_off_c, 0, 60, 58
1, 564044, Note_off_c, 0, 64, 63
1, 564046, Note_off_c, 0, 57, 57
1, 564302, Note_on_c, 0, 95, 51
1, 564334, Note_on_c, 0, 83, 49
1, 564351, Note_off_c, 0, 95, 61
1, 564381, Note_off_c, 0, 83, 62
1, 564800, Note_on_c, 0, 59, 40
1, 564808, Note_on_c, 0, 66, 45
1, 564815, Note_on_c, 0, 63, 35
1, 564831, Note_on_c, 0, 75, 42
1, 564831, Note_on_c, 0, 78, 48
1, 564846, Note_on_c, 0, 71, 26
1, 564900, Note_off_c, 0, 63, 49
1, 564906, Note_off_c, 0, 66, 60
1, 564914, Note_off_c, 0, 59, 60
1, 565329, Note_on_c, 0, 31, 48
1, 565330, Control_c, 0, 64, 99
1, 565345, Control_c, 0, 64, 82
1, 565360, Control_c, 0, 64, 68
1, 565374, Control_c, 0, 64, 44
1, 565389, Control_c, 0, 64, 52
1, 565412, Control_c, 0, 64, 63
1, 565426, Control_c, 0, 64, 68
1, 565441, Control_c, 0, 64, 75
1, 565456, Control_c, 0, 64, 87
1, 565471, Control_c, 0, 64, 100
1, 565486, Control_c, 0, 64, 126
1, 565488, Note_off_c, 0, 31, 63
1, 565493, Note_off_c, 0, 75, 36
1, 565500, Control_c, 0, 64, 127
1, 565537, Note_off_c, 0, 78, 62
1, 565585, Note_off_c, 0, 71, 44
1, 565777, Note_on_c, 0, 60, 48
1, 565779, Note_on_c, 0, 64, 20
1, 565787, Note_on_c, 0, 79, 76
1, 565797, Note_on_c, 0, 67, 38
1, 565818, Note_on_c, 0, 72, 56
1, 565819, Note_on_c, 0, 76, 46
1, 565934, Note_off_c, 0, 76, 64
1, 565949, Note_off_c, 0, 64, 54
1, 565965, Note_off_c, 0, 60, 59
1, 566018, Note_off_c, 0, 67, 61
1, 566099, Note_off_c, 0, 72, 57
1, 566199, Note_on_c, 0, 63, 43
1, 566211, Note_on_c, 0, 59, 47
1, 566228, Note_on_c, 0, 66, 44
1, 566264, Note_on_c, 0, 83, 77
1, 566274, Note_on_c, 0, 71, 62
1, 566298, Note_off_c, 0, 79, 58
1, 566311, Poly_aftertouch_c, 0, 78, 0
1, 566396, Note_off_c, 0, 66, 59
1, 566487, Note_off_c, 0, 83, 55
1, 566547, Note_off_c, 0, 71, 62
1, 566612, Note_off_c, 0, 63, 54
1, 566626, Note_on_c, 0, 60, 32
1, 566640, Note_on_c, 0, 64, 50
1, 566651, Note_on_c, 0, 57, 46
1, 566709, Control_c, 0, 64, 112
1, 566724, Control_c, 0, 64, 83
1, 566726, Note_off_c, 0, 59, 25
1, 566737, Note_on_c, 0, 76, 64
1, 566739, Note_on_c, 0, 69, 61
1, 566739, Control_c, 0, 64, 64
1, 566754, Control_c, 0, 64, 0
1, 566783, Control_c, 0, 64, 63
1, 566798, Control_c, 0, 64, 73
1, 566810, Note_off_c, 0, 69, 63
1, 566813, Control_c, 0, 64, 89
1, 566828, Control_c, 0, 64, 127
1, 566863, Note_off_c, 0, 76, 67
1, 566899, Note_off_c, 0, 60, 46
1, 566906, Note_off_c, 0, 57, 59
1, 566919, Note_off_c, 0, 64, 63
1, 567314, Note_on_c, 0, 95, 49
1, 567317, Note_on_c, 0, 71, 39
1, 567339, Note_on_c, 0, 83, 36
1, 567389, Note_off_c, 0, 95, 62
1, 567404, Note_off_c, 0, 83, 61
1, 567405, Note_off_c, 0, 71, 62
1, 567952, Note_on_c, 0, 66, 47
1, 567958, Note_on_c, 0, 61, 38
1, 567968, Note_on_c, 0, 58, 38
1, 567969, Control_c, 0, 64, 110
1, 567971, Note_on_c, 0, 78, 51
1, 567975, Note_on_c, 0, 70, 40
1, 567984, Control_c, 0, 64, 88
1, 567997, Note_on_c, 0, 75, 17
1, 567999, Control_c, 0, 64, 73
1, 568014, Control_c, 0, 64, 64
1, 568029, Control_c, 0, 64, 63
1, 568044, Control_c, 0, 64, 66
1, 568050, Note_off_c, 0, 75, 43
1, 568059, Control_c, 0, 64, 70
1, 568074, Control_c, 0, 64, 80
1, 568089, Control_c, 0, 64, 91
1, 568104, Control_c, 0, 64, 104
1, 568118, Control_c, 0, 64, 126
1, 568129, Note_off_c, 0, 66, 50
1, 568133, Control_c, 0, 64, 127
1, 568150, Note_off_c, 0, 58, 48
1, 568171, Note_off_c, 0, 61, 32
1, 568629, Control_c, 0, 64, 116
1, 568644, Control_c, 0, 64, 92
1, 568658, Control_c, 0, 64, 76
1, 568671, Note_on_c, 0, 31, 39
1, 568673, Control_c, 0, 64, 63
1, 568688, Control_c, 0, 64, 60
1, 568703, Control_c, 0, 64, 65
1, 568718, Control_c, 0, 64, 73
1, 568727, Note_off_c, 0, 70, 50
1, 568733, Control_c, 0, 64, 87
1, 568748, Control_c, 0, 64, 113
1, 568763, Control_c, 0, 64, 127
1, 568784, Note_off_c, 0, 78, 62
1, 568819, Note_off_c, 0, 31, 32
1, 569198, Note_on_c, 0, 95, 42
1, 569216, Note_on_c, 0, 83, 46
1, 569247, Note_off_c, 0, 95, 60
1, 569274, Note_on_c, 0, 71, 41
1, 569285, Note_off_c, 0, 83, 66
1, 569353, Note_off_c, 0, 71, 59
1, 569903, Note_on_c, 0, 50, 36
1, 570087, Note_off_c, 0, 50, 44
1, 570489, Note_on_c, 0, 31, 39
1, 570499, Control_c, 0, 64, 108
1, 570513, Control_c, 0, 64, 85
1, 570528, Control_c, 0, 64, 67
1, 570543, Control_c, 0, 64, 0
1, 570587, Control_c, 0, 64, 44
1, 570602, Control_c, 0, 64, 62
1, 570617, Control_c, 0, 64, 68
1, 570632, Control_c, 0, 64, 75
1, 570654, Control_c, 0, 64, 87
1, 570669, Control_c, 0, 64, 102
1, 570683, Note_off_c, 0, 31, 54
1, 570684, Control_c, 0, 64, 115
1, 570699, Control_c, 0, 64, 127
1, 570936, Note_on_c, 0, 83, 43
1, 570988, Note_on_c, 0, 71, 35
1, 571021, Note_off_c, 0, 83, 58
1, 571058, Note_on_c, 0, 59, 40
1, 571073, Note_off_c, 0, 71, 63
1, 571195, Note_off_c, 0, 59, 50
1, 571708, Note_on_c, 0, 50, 42
1, 572299, Control_c, 0, 64, 105
1, 572311, Note_on_c, 0, 31, 48
1, 572314, Control_c, 0, 64, 89
1, 572329, Control_c, 0, 64, 74
1, 572343, Control_c, 0, 64, 62
1, 572358, Control_c, 0, 64, 0
1, 572376, Note_off_c, 0, 50, 58
1, 572417, Control_c, 0, 64, 33
1, 572432, Control_c, 0, 64, 58
1, 572447, Control_c, 0, 64, 66
1, 572462, Control_c, 0, 64, 73
1, 572477, Control_c, 0, 64, 82
1, 572492, Control_c, 0, 64, 91
1, 572507, Control_c, 0, 64, 100
1, 572522, Control_c, 0, 64, 118
1, 572536, Control_c, 0, 64, 127
1, 572580, Note_off_c, 0, 31, 54
1, 572760, Note_on_c, 0, 71, 35
1, 572763, Note_on_c, 0, 69, 36
1, 572785, Poly_aftertouch_c, 0, 59, 127
1, 572804, Poly_aftertouch_c, 0, 57, 127
1, 572988, Note_on_c, 0, 53, 45
1, 573180, Note_off_c, 0, 69, 39
1, 573180, Note_off_c, 0, 71, 43
1, 573312, Poly_aftertouch_c, 0, 59, 0
1, 573339, Poly_aftertouch_c, 0, 57, 0
1, 573512, Note_on_c, 0, 55, 51
1, 573526, Note_off_c, 0, 53, 60
1, 573949, Note_on_c, 0, 31, 46
1, 573989, Control_c, 0, 64, 115
1, 574004, Control_c, 0, 64, 92
1, 574019, Control_c, 0, 64, 75
1, 574031, Note_on_c, 0, 57, 54
1, 574034, Control_c, 0, 64, 62
1, 574049, Control_c, 0, 64, 0
1, 574069, Note_off_c, 0, 55, 54
1, 574093, Control_c, 0, 64, 45
1, 574108, Control_c, 0, 64, 65
1, 574122, Control_c, 0, 64, 76
1, 574134, Note_off_c, 0, 31, 56
1, 574137, Control_c, 0, 64, 91
1, 574152, Control_c, 0, 64, 118
1, 574156, Note_off_c, 0, 57, 63
1, 574167, Control_c, 0, 64, 127
1, 574489, Note_on_c, 0, 75, 44
1, 574501, Note_on_c, 0, 73, 41
1, 574552, Note_off_c, 0, 73, 55
1, 574585, Note_on_c, 0, 63, 42
1, 574590, Note_off_c, 0, 75, 55
1, 574598, Note_on_c, 0, 61, 39
1, 574740, Note_off_c, 0, 61, 37
1, 574742, Note_off_c, 0, 63, 35
1, 575230, Note_on_c, 0, 53, 57
1, 575692, Note_on_c, 0, 31, 48
1, 575708, Control_c, 0, 64, 111
1, 575723, Control_c, 0, 64, 90
1, 575738, Control_c, 0, 64, 72
1, 575753, Control_c, 0, 64, 0
1, 575774, Note_off_c, 0, 53, 59
1, 575775, Note_on_c, 0, 57, 62
1, 575827, Control_c, 0, 64, 59
1, 575842, Control_c, 0, 64, 68
1, 575857, Control_c, 0, 64, 80
1, 575878, Control_c, 0, 64, 90
1, 575893, Note_off_c, 0, 57, 64
1, 575893, Control_c, 0, 64, 100
1, 575908, Control_c, 0, 64, 115
1, 575912, Note_off_c, 0, 31, 54
1, 575923, Control_c, 0, 64, 127
1, 576233, Note_on_c, 0, 83, 39
1, 576234, Note_on_c, 0, 71, 28
1, 576245, Note_on_c, 0, 81, 43
1, 576307, Note_off_c, 0, 83, 60
1, 576316, Note_off_c, 0, 81, 56
1, 576331, Note_off_c, 0, 71, 43
1, 576332, Note_on_c, 0, 69, 33
1, 576383, Note_on_c, 0, 59, 25
1, 576560, Note_off_c, 0, 69, 39
1, 576612, Note_off_c, 0, 59, 42
1, 577036, Note_on_c, 0, 53, 50
1, 577295, Note_on_c, 0, 55, 61
1, 577351, Note_off_c, 0, 53, 55
1, 577452, Note_on_c, 0, 31, 50
1, 577481, Control_c, 0, 64, 100
1, 577496, Control_c, 0, 64, 80
1, 577511, Control_c, 0, 64, 63
1, 577526, Control_c, 0, 64, 0
1, 577570, Control_c, 0, 64, 42
1, 577579, Note_on_c, 0, 57, 59
1, 577579, Note_off_c, 0, 55, 59
1, 577584, Control_c, 0, 64, 65
1, 577601, Control_c, 0, 64, 74
1, 577616, Control_c, 0, 64, 85
1, 577630, Control_c, 0, 64, 99
1, 577645, Control_c, 0, 64, 127
1, 577647, Note_off_c, 0, 31, 54
1, 577648, Note_off_c, 0, 57, 63
1, 577992, Note_on_c, 0, 85, 49
1, 578004, Note_on_c, 0, 73, 37
1, 578013, Note_on_c, 0, 75, 45
1, 578036, Note_on_c, 0, 61, 34
1, 578054, Note_off_c, 0, 75, 57
1, 578071, Poly_aftertouch_c, 0, 63, 127
1, 578086, Note_off_c, 0, 85, 61
1, 578112, Note_off_c, 0, 73, 41
1, 578228, Poly_aftertouch_c, 0, 63, 0
1, 578293, Note_on_c, 0, 55, 52
1, 578419, Note_off_c, 0, 61, 33
1, 578659, Note_off_c, 0, 55, 32
1, 579019, Note_on_c, 0, 50, 42
1, 579756, Control_c, 0, 64, 96
1, 579771, Control_c, 0, 64, 76
1, 579773, Note_on_c, 0, 31, 46
1, 579786, Control_c, 0, 64, 55
1, 579801, Control_c, 0, 64, 0
1, 579845, Note_off_c, 0, 50, 62
1, 579860, Control_c, 0, 64, 61
1, 579875, Control_c, 0, 64, 71
1, 579890, Control_c, 0, 64, 83
1, 579905, Control_c, 0, 64, 99
1, 579920, Control_c, 0, 64, 127
1, 579960, Note_off_c, 0, 31, 51
1, 580331, Note_on_c, 0, 81, 41
1, 580331, Note_on_c, 0, 83, 36
1, 580332, Note_on_c, 0, 95, 37
1, 580333, Note_on_c, 0, 93, 32
1, 580395, Note_off_c, 0, 83, 46
1, 580397, Note_off_c, 0, 81, 44
1, 580408, Note_off_c, 0, 95, 57
1, 580438, Note_off_c, 0, 93, 47
1, 580486, Note_on_c, 0, 71, 30
1, 580496, Note_on_c, 0, 69, 33
1, 580575, Note_off_c, 0, 69, 61
1, 580582, Note_off_c, 0, 71, 57
1, 581244, Note_on_c, 0, 50, 36
1, 581405, Note_off_c, 0, 50, 35
1, 582134, Note_on_c, 0, 31, 41
1, 582152, Control_c, 0, 64, 99
1, 582167, Control_c, 0, 64, 81
1, 582181, Control_c, 0, 64, 66
1, 582196, Control_c, 0, 64, 33
1, 582211, Control_c, 0, 64, 41
1, 582226, Control_c, 0, 64, 59
1, 582241, Control_c, 0, 64, 65
1, 582255, Control_c, 0, 64, 70
1, 582270, Control_c, 0, 64, 79
1, 582285, Control_c, 0, 64, 92
1, 582299, Control_c, 0, 64, 106
1, 582314, Control_c, 0, 64, 127
1, 582349, Note_off_c, 0, 31, 40
1, 582821, Note_on_c, 0, 83, 35
1, 582821, Note_on_c, 0, 95, 45
1, 582826, Note_on_c, 0, 81, 41
1, 582826, Note_on_c, 0, 93, 37
1, 582932, Note_off_c, 0, 95, 56
1, 582953, Note_off_c, 0, 81, 40
1, 582958, Note_off_c, 0, 83, 42
1, 582984, Note_off_c, 0, 93, 34
1, 583093, Note_on_c, 0, 71, 37
1, 583102, Note_on_c, 0, 69, 30
1, 583211, Note_off_c, 0, 71, 53
1, 583222, Note_off_c, 0, 69, 52
1, 584186, Note_on_c, 0, 50, 39
1, 584360, Note_off_c, 0, 50, 30
1, 585680, Note_on_c, 0, 31, 38
1, 587438, Control_c, 0, 67, 122
1, 587453, Control_c, 0, 67, 117
1, 587468, Control_c, 0, 67, 112
1, 587483, Control_c, 0, 67, 107
1, 587498, Control_c, 0, 67, 101
1, 587512, Control_c, 0, 67, 96
1, 587527, Control_c, 0, 67, 92
1, 587542, Control_c, 0, 67, 87
1, 587557, Control_c, 0, 67, 82
1, 587572, Control_c, 0, 67, 77
1, 587586, Control_c, 0, 67, 72
1, 587601, Control_c, 0, 67, 69
1, 587616, Control_c, 0, 67, 66
1, 587631, Control_c, 0, 67, 65
1, 587645, Control_c, 0, 67, 63
1, 587660, Control_c, 0, 67, 61
1, 587675, Control_c, 0, 67, 59
1, 587690, Control_c, 0, 67, 56
1, 587705, Control_c, 0, 67, 54
1, 587719, Control_c, 0, 67, 51
1, 587734, Control_c, 0, 67, 48
1, 587749, Control_c, 0, 67, 45
1, 587764, Control_c, 0, 67, 42
1, 587779, Control_c, 0, 67, 39
1, 587793, Control_c, 0, 67, 35
1, 587808, Control_c, 0, 67, 31
1, 587823, Control_c, 0, 67, 28
1, 587838, Control_c, 0, 67, 26
1, 587853, Control_c, 0, 67, 24
1, 587875, Control_c, 0, 67, 22
1, 587890, Control_c, 0, 67, 20
1, 587905, Control_c, 0, 67, 18
1, 587919, Control_c, 0, 67, 15
1, 587934, Control_c, 0, 67, 13
1, 587949, Control_c, 0, 67, 12
1, 587963, Control_c, 0, 67, 10
1, 587978, Control_c, 0, 67, 8
1, 587995, Control_c, 0, 67, 0
1, 589101, Note_off_c, 0, 31, 20
1, 589336, Control_c, 0, 64, 126
1, 589351, Control_c, 0, 64, 124
1, 589373, Control_c, 0, 64, 122
1, 589388, Control_c, 0, 64, 120
1, 589403, Control_c, 0, 64, 119
1, 589417, Control_c, 0, 64, 118
1, 589432, Control_c, 0, 64, 117
1, 589445, Control_c, 0, 64, 116
1, 589460, Control_c, 0, 64, 115
1, 589475, Control_c, 0, 64, 114
1, 589489, Control_c, 0, 64, 112
1, 589504, Control_c, 0, 64, 111
1, 589519, Control_c, 0, 64, 111
1, 589534, Control_c, 0, 64, 110
1, 589549, Control_c, 0, 64, 109
1, 589564, Control_c, 0, 64, 109
1, 589578, Control_c, 0, 64, 108
1, 589594, Control_c, 0, 64, 107
1, 589609, Control_c, 0, 64, 107
1, 589624, Control_c, 0, 64, 106
1, 589638, Control_c, 0, 64, 106
1, 589653, Control_c, 0, 64, 105
1, 589668, Control_c, 0, 64, 105
1, 589683, Control_c, 0, 64, 104
1, 589698, Control_c, 0, 64, 104
1, 589713, Control_c, 0, 64, 103
1, 589727, Control_c, 0, 64, 103
1, 589742, Control_c, 0, 64, 102
1, 589757, Control_c, 0, 64, 102
1, 589787, Control_c, 0, 64, 101
1, 589802, Control_c, 0, 64, 101
1, 589817, Control_c, 0, 64, 100
1, 589831, Control_c, 0, 64, 99
1, 589846, Control_c, 0, 64, 98
1, 589861, Control_c, 0, 64, 97
1, 589876, Control_c, 0, 64, 97
1, 589891, Control_c, 0, 64, 95
1, 589905, Control_c, 0, 64, 94
1, 589920, Control_c, 0, 64, 93
1, 589935, Control_c, 0, 64, 92
1, 589949, Control_c, 0, 64, 91
1, 589964, Control_c, 0, 64, 90
1, 589979, Control_c, 0, 64, 89
1, 589994, Control_c, 0, 64, 87
1, 590009, Control_c, 0, 64, 86
1, 590024, Control_c, 0, 64, 84
1, 590038, Control_c, 0, 64, 83
1, 590053, Control_c, 0, 64, 81
1, 590068, Control_c, 0, 64, 79
1, 590083, Control_c, 0, 64, 78
1, 590098, Control_c, 0, 64, 76
1, 590120, Control_c, 0, 64, 75
1, 590225, Control_c, 0, 64, 74
1, 590299, Control_c, 0, 64, 74
1, 590313, Control_c, 0, 64, 73
1, 590328, Control_c, 0, 64, 73
1, 590357, Control_c, 0, 64, 72
1, 590372, Control_c, 0, 64, 72
1, 590388, Control_c, 0, 64, 71
1, 590403, Control_c, 0, 64, 71
1, 590433, Control_c, 0, 64, 70
1, 590462, Control_c, 0, 64, 70
1, 590477, Control_c, 0, 64, 69
1, 590507, Control_c, 0, 64, 69
1, 590551, Control_c, 0, 64, 68
1, 590610, Control_c, 0, 64, 68
1, 590640, Control_c, 0, 64, 67
1, 590669, Control_c, 0, 64, 67
1, 590714, Control_c, 0, 64, 66
1, 590759, Control_c, 0, 64, 66
1, 590803, Control_c, 0, 64, 65
1, 590854, Control_c, 0, 64, 65
1, 590914, Control_c, 0, 64, 64
1, 590974, Control_c, 0, 64, 64
1, 591033, Control_c, 0, 64, 63
1, 591092, Control_c, 0, 64, 63
1, 591121, Control_c, 0, 64, 62
1, 593501, Control_c, 0, 64, 62
1, 593680, Control_c, 0, 64, 61
1, 593865, Control_c, 0, 64, 61
1, 593910, Control_c, 0, 64, 60
1, 593939, Control_c, 0, 64, 60
1, 593969, Control_c, 0, 64, 59
1, 594013, Control_c, 0, 64, 59
1, 594043, Control_c, 0, 64, 58
1, 594073, Control_c, 0, 64, 57
1, 594102, Control_c, 0, 64, 57
1, 594117, Control_c, 0, 64, 56
1, 594131, Control_c, 0, 64, 56
1, 594146, Control_c, 0, 64, 55
1, 594161, Control_c, 0, 64, 54
1, 594176, Control_c, 0, 64, 53
1, 594191, Control_c, 0, 64, 52
1, 594205, Control_c, 0, 64, 50
1, 594220, Control_c, 0, 64, 47
1, 594235, Control_c, 0, 64, 44
1, 594250, Control_c, 0, 64, 41
1, 594264, Control_c, 0, 64, 39
1, 594279, Control_c, 0, 64, 37
1, 594294, Control_c, 0, 64, 35
1, 594309, Control_c, 0, 64, 31
1, 594324, Control_c, 0, 64, 24
1, 594339, Control_c, 0, 64, 12
1, 594354, Control_c, 0, 64, 0
1, 594354, End_track
0, 0, End_of_file
