0, 0, Header, 0, 1, 384
1, 0, Start_track
1, 0, Title_t, "Barcarolle, Op.60--Rozanski     "
1, 0, Text_t, "2009 International Piano-e-Competition finals"
1, 0, Text_t, "captured June-July 2009"
1, 0, Text_t, "http://www.piano-e-competition.com/"
1, 0, Text_t, "standard-resolution version"
1, 0, Text_t, "File processed for distribution by software from Zenph Studios, Inc., http://www.zenph.com"
1, 0, Instrument_name_t, "Yamaha Disklavier Pro Mark IV concert grand piano, model DCFIIISM4PRO"
1, 0, Sequencer_specific, 39, 67, 113, 0, 1, 0, 1, 0, 66, 97, 114, 99, 97, 114, 111, 108, 108, 101, 79, 112, 46, 54, 48, 32, 80, 105, 111, 116, 114, 32, 82, 111, 122, 97, 110, 115, 107, 105, 32, 32
1, 0, Sequencer_specific, 6, 67, 113, 0, 0, 0, 69
1, 0, System_exclusive, 21, 67, 113, 126, 21, 0, 2, 2, 2, 3, 12, 8, 4, 10, 4, 13, 6, 6, 12, 3, 5, 247
1, 0, Sequencer_specific, 5, 67, 123, 12, 2, 1
1, 0, Tempo, 512820
1, 0, Time_signature, 4, 2, 24, 8
1, 0, System_exclusive, 5, 126, 127, 9, 1, 247
1, 1, System_exclusive, 8, 67, 16, 76, 0, 0, 126, 0, 247
1, 2, System_exclusive, 8, 67, 16, 76, 8, 9, 7, 1, 247
1, 3, Control_c, 0, 0, 0
1, 3, Control_c, 1, 0, 0
1, 3, Control_c, 2, 0, 0
1, 3, Control_c, 3, 0, 0
1, 3, Control_c, 4, 0, 0
1, 3, Control_c, 5, 0, 0
1, 3, Control_c, 6, 0, 0
1, 3, Control_c, 7, 0, 0
1, 3, Control_c, 8, 0, 0
1, 3, Control_c, 9, 0, 127
1, 3, Control_c, 10, 0, 0
1, 3, Control_c, 11, 0, 0
1, 3, Control_c, 12, 0, 0
1, 3, Control_c, 13, 0, 0
1, 3, Control_c, 14, 0, 0
1, 3, Control_c, 15, 0, 0
1, 4, Control_c, 0, 32, 0
1, 4, Control_c, 1, 32, 0
1, 4, Control_c, 2, 32, 0
1, 4, Control_c, 3, 32, 0
1, 4, Control_c, 4, 32, 0
1, 4, Control_c, 5, 32, 0
1, 4, Control_c, 6, 32, 0
1, 4, Control_c, 7, 32, 0
1, 4, Control_c, 8, 32, 0
1, 4, Control_c, 9, 32, 0
1, 4, Control_c, 10, 32, 0
1, 4, Control_c, 11, 32, 0
1, 4, Control_c, 12, 32, 0
1, 4, Control_c, 13, 32, 0
1, 4, Control_c, 14, 32, 0
1, 4, Control_c, 15, 32, 0
1, 5, Program_c, 0, 0
1, 5, Program_c, 1, 0
1, 5, Program_c, 2, 0
1, 5, Program_c, 3, 0
1, 5, Program_c, 4, 0
1, 5, Program_c, 5, 0
1, 5, Program_c, 6, 0
1, 5, Program_c, 7, 0
1, 5, Program_c, 8, 0
1, 5, Program_c, 9, 0
1, 5, Program_c, 10, 0
1, 5, Program_c, 11, 0
1, 5, Program_c, 12, 0
1, 5, Program_c, 13, 0
1, 5, Program_c, 14, 0
1, 5, Program_c, 15, 0
1, 6, Control_c, 0, 7, 100
1, 6, Control_c, 1, 7, 100
1, 6, Control_c, 2, 7, 100
1, 6, Control_c, 3, 7, 100
1, 6, Control_c, 4, 7, 100
1, 6, Control_c, 5, 7, 100
1, 6, Control_c, 6, 7, 100
1, 6, Control_c, 7, 7, 100
1, 6, Control_c, 8, 7, 100
1, 6, Control_c, 9, 7, 100
1, 6, Control_c, 10, 7, 100
1, 6, Control_c, 11, 7, 100
1, 6, Control_c, 12, 7, 100
1, 6, Control_c, 13, 7, 100
1, 6, Control_c, 14, 7, 100
1, 6, Control_c, 15, 7, 100
1, 117, Control_c, 0, 64, 15
1, 229, Control_c, 0, 64, 31
1, 341, Control_c, 0, 64, 46
1, 452, Control_c, 0, 64, 63
1, 564, Control_c, 0, 64, 77
1, 676, Control_c, 0, 64, 94
1, 787, Control_c, 0, 64, 108
1, 899, Control_c, 0, 64, 127
1, 1130, Note_on_c, 0, 37, 84
1, 1133, Note_on_c, 0, 25, 78
1, 1297, Note_off_c, 0, 25, 56
1, 1404, Note_off_c, 0, 37, 60
1, 2286, Note_on_c, 0, 80, 93
1, 2298, Note_on_c, 0, 75, 65
1, 2303, Note_on_c, 0, 71, 70
1, 3756, Note_on_c, 0, 68, 55
1, 3858, Note_off_c, 0, 71, 42
1, 4099, Note_off_c, 0, 68, 23
1, 4352, Note_on_c, 0, 61, 38
1, 4392, Note_on_c, 0, 77, 62
1, 4498, Note_off_c, 0, 75, 37
1, 4752, Note_on_c, 0, 73, 62
1, 4776, Note_on_c, 0, 70, 45
1, 5049, Note_on_c, 0, 78, 73
1, 5068, Note_on_c, 0, 75, 47
1, 5099, Note_on_c, 0, 66, 43
1, 5125, Note_off_c, 0, 70, 35
1, 5125, Note_off_c, 0, 73, 29
1, 5137, Note_off_c, 0, 77, 34
1, 5153, Note_off_c, 0, 61, 35
1, 5158, Note_off_c, 0, 80, 50
1, 5304, Note_off_c, 0, 66, 38
1, 5345, Note_off_c, 0, 75, 31
1, 5387, Note_on_c, 0, 80, 79
1, 5411, Note_on_c, 0, 70, 52
1, 5428, Note_on_c, 0, 61, 39
1, 5438, Note_off_c, 0, 78, 53
1, 5529, Note_off_c, 0, 70, 58
1, 5658, Note_on_c, 0, 78, 78
1, 5673, Note_on_c, 0, 71, 58
1, 5680, Note_on_c, 0, 68, 51
1, 5682, Note_off_c, 0, 80, 62
1, 5724, Control_c, 0, 64, 112
1, 5739, Control_c, 0, 64, 102
1, 5754, Control_c, 0, 64, 99
1, 5772, Note_off_c, 0, 71, 58
1, 5828, Control_c, 0, 64, 101
1, 5849, Control_c, 0, 64, 103
1, 5864, Control_c, 0, 64, 105
1, 5879, Control_c, 0, 64, 109
1, 5894, Control_c, 0, 64, 112
1, 5895, Note_on_c, 0, 77, 73
1, 5901, Note_off_c, 0, 61, 48
1, 5908, Note_on_c, 0, 73, 75
1, 5909, Control_c, 0, 64, 115
1, 5911, Note_off_c, 0, 68, 46
1, 5915, Note_on_c, 0, 65, 55
1, 5923, Control_c, 0, 64, 119
1, 5938, Control_c, 0, 64, 127
1, 5941, Note_off_c, 0, 65, 64
1, 5956, Note_off_c, 0, 78, 53
1, 6054, Note_off_c, 0, 73, 38
1, 6117, Note_on_c, 0, 78, 76
1, 6133, Note_on_c, 0, 49, 55
1, 6140, Note_off_c, 0, 77, 62
1, 6143, Note_on_c, 0, 68, 65
1, 6171, Note_off_c, 0, 49, 60
1, 6254, Note_off_c, 0, 78, 60
1, 6256, Note_off_c, 0, 68, 59
1, 6356, Note_on_c, 0, 75, 74
1, 6380, Note_on_c, 0, 70, 54
1, 6405, Note_on_c, 0, 66, 49
1, 6413, Control_c, 0, 64, 109
1, 6428, Control_c, 0, 64, 100
1, 6443, Control_c, 0, 64, 90
1, 6458, Control_c, 0, 64, 83
1, 6472, Control_c, 0, 64, 78
1, 6487, Control_c, 0, 64, 75
1, 6498, Note_off_c, 0, 70, 62
1, 6502, Control_c, 0, 64, 75
1, 6517, Control_c, 0, 64, 75
1, 6532, Control_c, 0, 64, 76
1, 6546, Control_c, 0, 64, 78
1, 6561, Control_c, 0, 64, 80
1, 6576, Note_on_c, 0, 71, 69
1, 6576, Note_off_c, 0, 66, 51
1, 6576, Control_c, 0, 64, 83
1, 6598, Control_c, 0, 64, 86
1, 6605, Note_on_c, 0, 63, 53
1, 6613, Control_c, 0, 64, 88
1, 6628, Control_c, 0, 64, 90
1, 6635, Note_off_c, 0, 63, 65
1, 6643, Control_c, 0, 64, 94
1, 6658, Control_c, 0, 64, 98
1, 6672, Control_c, 0, 64, 102
1, 6687, Control_c, 0, 64, 104
1, 6702, Control_c, 0, 64, 106
1, 6717, Control_c, 0, 64, 108
1, 6732, Control_c, 0, 64, 112
1, 6746, Control_c, 0, 64, 115
1, 6761, Control_c, 0, 64, 118
1, 6776, Control_c, 0, 64, 119
1, 6804, Note_on_c, 0, 77, 75
1, 6806, Control_c, 0, 64, 119
1, 6817, Note_on_c, 0, 66, 53
1, 6820, Note_on_c, 0, 49, 49
1, 6840, Note_off_c, 0, 71, 60
1, 6851, Control_c, 0, 64, 120
1, 6871, Note_off_c, 0, 49, 61
1, 6886, Note_off_c, 0, 75, 38
1, 6887, Note_off_c, 0, 66, 54
1, 6930, Note_off_c, 0, 77, 58
1, 7028, Control_c, 0, 64, 119
1, 7043, Control_c, 0, 64, 118
1, 7058, Control_c, 0, 64, 113
1, 7072, Note_on_c, 0, 75, 68
1, 7073, Control_c, 0, 64, 109
1, 7087, Control_c, 0, 64, 103
1, 7095, Note_on_c, 0, 68, 45
1, 7096, Note_on_c, 0, 65, 46
1, 7102, Control_c, 0, 64, 98
1, 7117, Control_c, 0, 64, 94
1, 7132, Control_c, 0, 64, 92
1, 7147, Control_c, 0, 64, 89
1, 7161, Control_c, 0, 64, 87
1, 7176, Control_c, 0, 64, 84
1, 7191, Control_c, 0, 64, 80
1, 7206, Control_c, 0, 64, 76
1, 7220, Control_c, 0, 64, 72
1, 7235, Control_c, 0, 64, 66
1, 7250, Control_c, 0, 64, 63
1, 7265, Control_c, 0, 64, 61
1, 7273, Note_off_c, 0, 68, 0
1, 7280, Control_c, 0, 64, 61
1, 7295, Control_c, 0, 64, 65
1, 7310, Note_on_c, 0, 73, 69
1, 7310, Poly_aftertouch_c, 0, 68, 127
1, 7310, Control_c, 0, 64, 69
1, 7318, Note_off_c, 0, 65, 56
1, 7319, Note_on_c, 0, 70, 59
1, 7324, Control_c, 0, 64, 73
1, 7342, Note_on_c, 0, 61, 48
1, 7347, Control_c, 0, 64, 77
1, 7362, Control_c, 0, 64, 80
1, 7364, Poly_aftertouch_c, 0, 68, 0
1, 7367, Note_off_c, 0, 75, 55
1, 7376, Control_c, 0, 64, 82
1, 7384, Note_off_c, 0, 61, 59
1, 7391, Control_c, 0, 64, 83
1, 7406, Control_c, 0, 64, 85
1, 7420, Control_c, 0, 64, 87
1, 7435, Control_c, 0, 64, 89
1, 7450, Control_c, 0, 64, 91
1, 7463, Note_off_c, 0, 70, 45
1, 7465, Control_c, 0, 64, 92
1, 7480, Control_c, 0, 64, 92
1, 7494, Control_c, 0, 64, 94
1, 7509, Control_c, 0, 64, 94
1, 7524, Control_c, 0, 64, 95
1, 7543, Note_on_c, 0, 75, 64
1, 7554, Note_on_c, 0, 65, 58
1, 7554, Control_c, 0, 64, 95
1, 7556, Note_off_c, 0, 73, 61
1, 7563, Note_on_c, 0, 49, 45
1, 7569, Control_c, 0, 64, 96
1, 7613, Control_c, 0, 64, 96
1, 7628, Control_c, 0, 64, 97
1, 7658, Control_c, 0, 67, 8
1, 7673, Control_c, 0, 67, 8
1, 7688, Control_c, 0, 67, 9
1, 7703, Control_c, 0, 67, 10
1, 7718, Control_c, 0, 67, 10
1, 7722, Note_off_c, 0, 49, 31
1, 7722, Note_off_c, 0, 65, 39
1, 7733, Control_c, 0, 67, 11
1, 7748, Control_c, 0, 67, 11
1, 7778, Control_c, 0, 67, 12
1, 7782, Note_on_c, 0, 71, 65
1, 7792, Control_c, 0, 64, 94
1, 7792, Control_c, 0, 67, 12
1, 7801, Note_on_c, 0, 66, 52
1, 7807, Control_c, 0, 64, 90
1, 7807, Control_c, 0, 67, 13
1, 7815, Note_on_c, 0, 63, 38
1, 7822, Control_c, 0, 64, 84
1, 7822, Control_c, 0, 67, 13
1, 7828, Note_off_c, 0, 75, 36
1, 7837, Control_c, 0, 64, 77
1, 7851, Control_c, 0, 64, 71
1, 7851, Control_c, 0, 67, 14
1, 7866, Control_c, 0, 64, 67
1, 7881, Control_c, 0, 67, 14
1, 7888, Note_off_c, 0, 66, 58
1, 7896, Control_c, 0, 64, 68
1, 7896, Control_c, 0, 67, 15
1, 7910, Control_c, 0, 64, 70
1, 7910, Control_c, 0, 67, 15
1, 7925, Control_c, 0, 64, 71
1, 7925, Control_c, 0, 67, 16
1, 7940, Control_c, 0, 64, 73
1, 7940, Control_c, 0, 67, 18
1, 7955, Control_c, 0, 64, 74
1, 7955, Control_c, 0, 67, 19
1, 7970, Control_c, 0, 64, 76
1, 7970, Control_c, 0, 67, 21
1, 7984, Control_c, 0, 64, 78
1, 7984, Control_c, 0, 67, 22
1, 7999, Control_c, 0, 64, 79
1, 7999, Control_c, 0, 67, 23
1, 8014, Control_c, 0, 64, 81
1, 8014, Control_c, 0, 67, 23
1, 8028, Note_on_c, 0, 75, 58
1, 8029, Control_c, 0, 64, 82
1, 8029, Control_c, 0, 67, 24
1, 8043, Control_c, 0, 64, 84
1, 8043, Control_c, 0, 67, 25
1, 8049, Note_off_c, 0, 63, 37
1, 8055, Note_on_c, 0, 68, 45
1, 8058, Control_c, 0, 64, 87
1, 8058, Control_c, 0, 67, 26
1, 8067, Note_on_c, 0, 59, 37
1, 8073, Control_c, 0, 64, 90
1, 8073, Control_c, 0, 67, 27
1, 8096, Control_c, 0, 64, 92
1, 8096, Control_c, 0, 67, 29
1, 8110, Note_off_c, 0, 71, 40
1, 8111, Control_c, 0, 64, 94
1, 8111, Control_c, 0, 67, 30
1, 8125, Control_c, 0, 64, 95
1, 8125, Control_c, 0, 67, 31
1, 8130, Note_off_c, 0, 59, 45
1, 8140, Control_c, 0, 64, 97
1, 8140, Control_c, 0, 67, 32
1, 8155, Control_c, 0, 64, 99
1, 8155, Control_c, 0, 67, 33
1, 8170, Control_c, 0, 64, 101
1, 8170, Control_c, 0, 67, 34
1, 8185, Control_c, 0, 64, 102
1, 8185, Control_c, 0, 67, 35
1, 8190, Note_off_c, 0, 68, 51
1, 8195, Note_off_c, 0, 75, 55
1, 8199, Control_c, 0, 64, 103
1, 8199, Control_c, 0, 67, 36
1, 8214, Control_c, 0, 64, 104
1, 8214, Control_c, 0, 67, 36
1, 8229, Control_c, 0, 64, 106
1, 8229, Control_c, 0, 67, 37
1, 8243, Control_c, 0, 64, 108
1, 8243, Control_c, 0, 67, 38
1, 8258, Control_c, 0, 64, 110
1, 8258, Control_c, 0, 67, 40
1, 8273, Control_c, 0, 64, 110
1, 8273, Control_c, 0, 67, 41
1, 8288, Control_c, 0, 64, 111
1, 8288, Control_c, 0, 67, 42
1, 8290, Note_on_c, 0, 73, 64
1, 8303, Control_c, 0, 67, 44
1, 8307, Note_on_c, 0, 63, 42
1, 8317, Control_c, 0, 67, 45
1, 8332, Note_on_c, 0, 49, 37
1, 8332, Control_c, 0, 67, 46
1, 8347, Control_c, 0, 67, 47
1, 8362, Control_c, 0, 67, 48
1, 8368, Note_off_c, 0, 63, 58
1, 8377, Control_c, 0, 67, 49
1, 8392, Control_c, 0, 67, 50
1, 8407, Control_c, 0, 67, 52
1, 8412, Note_off_c, 0, 73, 62
1, 8422, Control_c, 0, 67, 53
1, 8436, Control_c, 0, 67, 54
1, 8451, Control_c, 0, 67, 56
1, 8467, Control_c, 0, 67, 57
1, 8482, Control_c, 0, 67, 58
1, 8497, Control_c, 0, 67, 59
1, 8512, Control_c, 0, 67, 60
1, 8527, Control_c, 0, 67, 61
1, 8541, Control_c, 0, 64, 110
1, 8541, Control_c, 0, 67, 62
1, 8556, Control_c, 0, 64, 109
1, 8556, Control_c, 0, 67, 62
1, 8562, Note_on_c, 0, 71, 59
1, 8571, Control_c, 0, 64, 106
1, 8571, Control_c, 0, 67, 63
1, 8586, Control_c, 0, 64, 103
1, 8586, Control_c, 0, 67, 64
1, 8590, Note_on_c, 0, 65, 44
1, 8601, Control_c, 0, 64, 97
1, 8601, Control_c, 0, 67, 64
1, 8605, Note_on_c, 0, 61, 39
1, 8615, Control_c, 0, 64, 89
1, 8615, Control_c, 0, 67, 65
1, 8630, Control_c, 0, 64, 79
1, 8630, Control_c, 0, 67, 66
1, 8645, Control_c, 0, 64, 71
1, 8645, Control_c, 0, 67, 67
1, 8660, Control_c, 0, 64, 65
1, 8660, Control_c, 0, 67, 68
1, 8675, Control_c, 0, 64, 63
1, 8675, Control_c, 0, 67, 68
1, 8690, Control_c, 0, 64, 63
1, 8690, Control_c, 0, 67, 69
1, 8705, Control_c, 0, 64, 64
1, 8705, Control_c, 0, 67, 69
1, 8720, Control_c, 0, 64, 65
1, 8720, Control_c, 0, 67, 70
1, 8732, Note_off_c, 0, 65, 60
1, 8734, Control_c, 0, 64, 66
1, 8734, Control_c, 0, 67, 70
1, 8749, Control_c, 0, 64, 67
1, 8749, Control_c, 0, 67, 72
1, 8764, Control_c, 0, 64, 69
1, 8764, Control_c, 0, 67, 72
1, 8779, Control_c, 0, 64, 72
1, 8779, Control_c, 0, 67, 73
1, 8793, Control_c, 0, 64, 74
1, 8793, Control_c, 0, 67, 74
1, 8808, Control_c, 0, 64, 75
1, 8808, Control_c, 0, 67, 75
1, 8823, Control_c, 0, 64, 77
1, 8823, Control_c, 0, 67, 76
1, 8845, Note_on_c, 0, 70, 53
1, 8845, Control_c, 0, 64, 79
1, 8845, Control_c, 0, 67, 78
1, 8853, Note_on_c, 0, 66, 41
1, 8860, Control_c, 0, 64, 81
1, 8860, Control_c, 0, 67, 79
1, 8862, Note_on_c, 0, 58, 47
1, 8862, Note_off_c, 0, 61, 48
1, 8863, Note_off_c, 0, 49, 42
1, 8875, Control_c, 0, 64, 84
1, 8875, Control_c, 0, 67, 80
1, 8889, Note_off_c, 0, 58, 59
1, 8889, Control_c, 0, 64, 86
1, 8889, Control_c, 0, 67, 81
1, 8904, Control_c, 0, 64, 88
1, 8904, Control_c, 0, 67, 82
1, 8919, Control_c, 0, 64, 91
1, 8919, Control_c, 0, 67, 84
1, 8925, Note_off_c, 0, 71, 39
1, 8934, Control_c, 0, 64, 93
1, 8934, Control_c, 0, 67, 85
1, 8949, Control_c, 0, 64, 95
1, 8949, Control_c, 0, 67, 86
1, 8964, Control_c, 0, 64, 97
1, 8964, Control_c, 0, 67, 87
1, 8979, Control_c, 0, 64, 98
1, 8979, Control_c, 0, 67, 89
1, 8993, Control_c, 0, 64, 100
1, 8993, Control_c, 0, 67, 90
1, 9008, Control_c, 0, 64, 101
1, 9008, Control_c, 0, 67, 93
1, 9023, Control_c, 0, 64, 101
1, 9023, Control_c, 0, 67, 94
1, 9038, Control_c, 0, 67, 96
1, 9053, Control_c, 0, 67, 98
1, 9067, Control_c, 0, 67, 100
1, 9082, Control_c, 0, 67, 101
1, 9097, Control_c, 0, 67, 102
1, 9112, Control_c, 0, 67, 103
1, 9127, Control_c, 0, 67, 105
1, 9141, Control_c, 0, 67, 106
1, 9145, Note_on_c, 0, 71, 54
1, 9156, Control_c, 0, 67, 108
1, 9171, Note_on_c, 0, 61, 44
1, 9171, Control_c, 0, 67, 110
1, 9174, Note_on_c, 0, 37, 33
1, 9185, Control_c, 0, 67, 111
1, 9198, Note_off_c, 0, 66, 41
1, 9200, Control_c, 0, 67, 113
1, 9215, Control_c, 0, 67, 115
1, 9220, Note_off_c, 0, 37, 56
1, 9228, Note_off_c, 0, 70, 32
1, 9230, Control_c, 0, 67, 117
1, 9245, Control_c, 0, 67, 118
1, 9261, Control_c, 0, 67, 120
1, 9276, Control_c, 0, 67, 122
1, 9290, Control_c, 0, 67, 125
1, 9305, Control_c, 0, 67, 127
1, 9357, Note_off_c, 0, 71, 53
1, 9372, Note_off_c, 0, 61, 42
1, 9494, Note_on_c, 0, 68, 52
1, 9511, Note_on_c, 0, 63, 51
1, 9527, Note_on_c, 0, 59, 41
1, 9527, Control_c, 0, 64, 99
1, 9542, Control_c, 0, 64, 94
1, 9557, Control_c, 0, 64, 87
1, 9572, Control_c, 0, 64, 77
1, 9594, Control_c, 0, 64, 68
1, 9609, Control_c, 0, 64, 66
1, 9623, Control_c, 0, 64, 66
1, 9638, Control_c, 0, 64, 68
1, 9653, Control_c, 0, 64, 70
1, 9659, Note_off_c, 0, 63, 46
1, 9668, Control_c, 0, 64, 72
1, 9683, Control_c, 0, 64, 75
1, 9697, Control_c, 0, 64, 77
1, 9712, Control_c, 0, 64, 79
1, 9727, Control_c, 0, 64, 80
1, 9742, Control_c, 0, 64, 81
1, 9757, Control_c, 0, 64, 83
1, 9772, Control_c, 0, 64, 85
1, 9787, Control_c, 0, 64, 87
1, 9802, Control_c, 0, 64, 88
1, 9816, Control_c, 0, 64, 89
1, 9831, Control_c, 0, 64, 90
1, 9846, Control_c, 0, 64, 91
1, 9861, Control_c, 0, 64, 92
1, 9876, Control_c, 0, 64, 93
1, 9890, Control_c, 0, 64, 95
1, 9897, Note_on_c, 0, 71, 52
1, 9904, Note_on_c, 0, 65, 36
1, 9905, Control_c, 0, 64, 96
1, 9920, Control_c, 0, 64, 97
1, 9935, Control_c, 0, 64, 98
1, 9939, Note_on_c, 0, 56, 37
1, 9950, Control_c, 0, 64, 99
1, 9959, Note_off_c, 0, 59, 31
1, 9964, Control_c, 0, 64, 101
1, 9979, Control_c, 0, 64, 102
1, 9980, Note_off_c, 0, 56, 48
1, 10008, Control_c, 0, 64, 102
1, 10023, Control_c, 0, 64, 103
1, 10038, Control_c, 0, 64, 103
1, 10053, Control_c, 0, 64, 104
1, 10069, Control_c, 0, 64, 105
1, 10084, Control_c, 0, 64, 106
1, 10099, Control_c, 0, 64, 106
1, 10128, Control_c, 0, 64, 107
1, 10187, Control_c, 0, 64, 107
1, 10424, Note_off_c, 0, 68, 0
1, 10460, Poly_aftertouch_c, 0, 68, 127
1, 10559, Poly_aftertouch_c, 0, 68, 0
1, 10581, Note_off_c, 0, 65, 0
1, 10618, Poly_aftertouch_c, 0, 65, 127
1, 10650, Note_on_c, 0, 70, 43
1, 10679, Poly_aftertouch_c, 0, 68, 127
1, 10687, Note_on_c, 0, 37, 24
1, 10691, Note_on_c, 0, 59, 19
1, 10699, Control_c, 0, 64, 107
1, 10772, Control_c, 0, 64, 106
1, 10787, Control_c, 0, 64, 105
1, 10802, Control_c, 0, 64, 105
1, 10817, Control_c, 0, 64, 104
1, 10831, Control_c, 0, 64, 103
1, 10832, Poly_aftertouch_c, 0, 65, 0
1, 10833, Note_off_c, 0, 71, 34
1, 10846, Control_c, 0, 64, 103
1, 10862, Control_c, 0, 64, 102
1, 10871, Poly_aftertouch_c, 0, 68, 0
1, 10877, Control_c, 0, 64, 101
1, 10891, Note_off_c, 0, 59, 39
1, 10892, Control_c, 0, 64, 100
1, 10907, Control_c, 0, 64, 100
1, 10922, Control_c, 0, 64, 99
1, 10936, Control_c, 0, 64, 99
1, 10946, Note_off_c, 0, 37, 32
1, 10951, Control_c, 0, 64, 98
1, 10966, Control_c, 0, 64, 98
1, 10981, Control_c, 0, 64, 97
1, 10996, Control_c, 0, 64, 97
1, 11025, Control_c, 0, 64, 96
1, 11054, Control_c, 0, 64, 96
1, 11092, Control_c, 0, 64, 95
1, 11122, Control_c, 0, 64, 95
1, 11125, Note_off_c, 0, 70, 17
1, 11136, Control_c, 0, 64, 94
1, 11151, Control_c, 0, 64, 93
1, 11166, Control_c, 0, 64, 92
1, 11181, Control_c, 0, 64, 92
1, 11195, Control_c, 0, 64, 91
1, 11210, Control_c, 0, 64, 91
1, 11225, Control_c, 0, 64, 90
1, 11255, Control_c, 0, 64, 89
1, 11284, Control_c, 0, 64, 88
1, 11299, Control_c, 0, 64, 88
1, 11314, Control_c, 0, 64, 87
1, 11329, Control_c, 0, 64, 87
1, 11343, Control_c, 0, 64, 86
1, 11358, Control_c, 0, 64, 86
1, 11373, Control_c, 0, 64, 85
1, 11402, Control_c, 0, 64, 85
1, 11417, Control_c, 0, 64, 84
1, 11432, Control_c, 0, 64, 84
1, 11447, Control_c, 0, 64, 83
1, 11462, Control_c, 0, 64, 83
1, 11492, Control_c, 0, 64, 82
1, 11507, Control_c, 0, 64, 82
1, 11522, Control_c, 0, 64, 81
1, 11536, Control_c, 0, 64, 80
1, 11581, Control_c, 0, 64, 80
1, 11610, Control_c, 0, 64, 79
1, 11625, Control_c, 0, 64, 79
1, 11640, Control_c, 0, 64, 78
1, 11656, Control_c, 0, 64, 78
1, 11700, Control_c, 0, 64, 77
1, 11730, Control_c, 0, 64, 77
1, 11745, Control_c, 0, 64, 76
1, 11774, Control_c, 0, 64, 76
1, 11841, Control_c, 0, 64, 75
1, 11855, Control_c, 0, 64, 75
1, 11885, Control_c, 0, 64, 74
1, 11930, Control_c, 0, 64, 73
1, 11945, Control_c, 0, 64, 73
1, 11959, Control_c, 0, 64, 72
1, 11974, Control_c, 0, 64, 71
1, 11989, Control_c, 0, 64, 71
1, 12048, Control_c, 0, 64, 70
1, 12063, Control_c, 0, 64, 70
1, 12107, Control_c, 0, 64, 69
1, 12122, Control_c, 0, 64, 69
1, 12137, Control_c, 0, 64, 68
1, 12152, Control_c, 0, 64, 68
1, 12196, Control_c, 0, 64, 67
1, 12210, Control_c, 0, 64, 67
1, 12225, Control_c, 0, 64, 66
1, 12255, Control_c, 0, 64, 66
1, 12300, Control_c, 0, 64, 65
1, 12329, Control_c, 0, 64, 65
1, 12344, Control_c, 0, 64, 64
1, 12389, Control_c, 0, 64, 64
1, 12418, Control_c, 0, 64, 63
1, 12433, Control_c, 0, 64, 63
1, 12448, Control_c, 0, 64, 62
1, 12493, Control_c, 0, 64, 62
1, 12508, Control_c, 0, 64, 61
1, 12523, Control_c, 0, 64, 61
1, 12538, Control_c, 0, 64, 60
1, 12553, Control_c, 0, 64, 60
1, 12568, Control_c, 0, 64, 59
1, 12589, Control_c, 0, 64, 59
1, 12604, Control_c, 0, 64, 57
1, 12619, Control_c, 0, 64, 56
1, 12633, Control_c, 0, 64, 55
1, 12648, Control_c, 0, 64, 55
1, 12663, Control_c, 0, 64, 54
1, 12678, Control_c, 0, 64, 53
1, 12693, Control_c, 0, 64, 52
1, 12708, Control_c, 0, 64, 51
1, 12723, Control_c, 0, 64, 49
1, 12738, Control_c, 0, 64, 47
1, 12753, Control_c, 0, 64, 45
1, 12768, Control_c, 0, 64, 44
1, 12782, Control_c, 0, 64, 44
1, 12797, Control_c, 0, 64, 43
1, 12812, Control_c, 0, 64, 42
1, 12827, Control_c, 0, 64, 40
1, 12841, Control_c, 0, 64, 40
1, 12856, Control_c, 0, 64, 39
1, 12871, Control_c, 0, 64, 38
1, 12974, Control_c, 0, 64, 39
1, 12989, Control_c, 0, 64, 40
1, 13004, Control_c, 0, 64, 42
1, 13019, Control_c, 0, 64, 43
1, 13033, Control_c, 0, 64, 45
1, 13048, Control_c, 0, 64, 47
1, 13063, Control_c, 0, 64, 50
1, 13078, Control_c, 0, 64, 53
1, 13093, Control_c, 0, 64, 56
1, 13107, Control_c, 0, 64, 58
1, 13122, Control_c, 0, 64, 60
1, 13137, Control_c, 0, 64, 61
1, 13152, Control_c, 0, 64, 62
1, 13167, Control_c, 0, 64, 63
1, 13182, Control_c, 0, 64, 64
1, 13197, Control_c, 0, 64, 65
1, 13212, Control_c, 0, 64, 66
1, 13226, Control_c, 0, 64, 67
1, 13241, Control_c, 0, 64, 68
1, 13256, Control_c, 0, 64, 69
1, 13271, Control_c, 0, 64, 71
1, 13286, Control_c, 0, 64, 74
1, 13301, Control_c, 0, 64, 77
1, 13316, Control_c, 0, 64, 78
1, 13338, Control_c, 0, 64, 80
1, 13353, Control_c, 0, 64, 82
1, 13368, Control_c, 0, 64, 84
1, 13383, Control_c, 0, 64, 86
1, 13398, Control_c, 0, 64, 89
1, 13412, Control_c, 0, 64, 92
1, 13427, Control_c, 0, 64, 93
1, 13442, Control_c, 0, 64, 94
1, 13457, Control_c, 0, 64, 95
1, 13471, Control_c, 0, 64, 96
1, 13486, Control_c, 0, 64, 97
1, 13501, Control_c, 0, 64, 99
1, 13516, Control_c, 0, 64, 102
1, 13531, Control_c, 0, 64, 104
1, 13546, Control_c, 0, 64, 106
1, 13561, Control_c, 0, 64, 107
1, 13575, Control_c, 0, 64, 109
1, 13590, Control_c, 0, 64, 112
1, 13605, Control_c, 0, 64, 115
1, 13614, Note_on_c, 0, 42, 33
1, 13620, Control_c, 0, 64, 119
1, 13635, Control_c, 0, 64, 124
1, 13650, Control_c, 0, 64, 127
1, 14022, Note_on_c, 0, 49, 43
1, 14058, Note_off_c, 0, 42, 41
1, 14109, Note_off_c, 0, 49, 50
1, 14273, Note_on_c, 0, 56, 41
1, 14463, Note_off_c, 0, 56, 34
1, 14514, Note_on_c, 0, 54, 38
1, 14576, Control_c, 0, 64, 123
1, 14591, Control_c, 0, 64, 116
1, 14605, Note_off_c, 0, 54, 46
1, 14605, Control_c, 0, 64, 111
1, 14620, Control_c, 0, 64, 106
1, 14623, Note_on_c, 0, 56, 34
1, 14635, Control_c, 0, 64, 103
1, 14650, Control_c, 0, 64, 100
1, 14665, Control_c, 0, 64, 98
1, 14679, Control_c, 0, 64, 96
1, 14694, Control_c, 0, 64, 94
1, 14709, Control_c, 0, 64, 91
1, 14717, Note_off_c, 0, 56, 55
1, 14723, Control_c, 0, 64, 88
1, 14738, Control_c, 0, 64, 86
1, 14753, Control_c, 0, 64, 85
1, 14768, Control_c, 0, 64, 84
1, 14782, Note_on_c, 0, 58, 34
1, 14783, Control_c, 0, 64, 83
1, 14798, Control_c, 0, 64, 82
1, 14813, Control_c, 0, 64, 80
1, 14835, Control_c, 0, 64, 78
1, 14850, Control_c, 0, 64, 76
1, 14866, Control_c, 0, 64, 75
1, 14881, Control_c, 0, 64, 74
1, 14940, Control_c, 0, 64, 75
1, 14955, Control_c, 0, 64, 76
1, 14970, Control_c, 0, 64, 77
1, 14984, Control_c, 0, 64, 78
1, 14999, Control_c, 0, 64, 79
1, 15014, Control_c, 0, 64, 80
1, 15028, Control_c, 0, 64, 81
1, 15043, Control_c, 0, 64, 82
1, 15058, Control_c, 0, 64, 83
1, 15073, Control_c, 0, 64, 84
1, 15083, Note_off_c, 0, 58, 43
1, 15088, Control_c, 0, 64, 85
1, 15102, Control_c, 0, 64, 86
1, 15117, Control_c, 0, 64, 86
1, 15126, Note_on_c, 0, 49, 34
1, 15132, Control_c, 0, 64, 87
1, 15147, Control_c, 0, 64, 87
1, 15162, Control_c, 0, 64, 88
1, 15177, Control_c, 0, 64, 89
1, 15191, Control_c, 0, 64, 89
1, 15316, Note_off_c, 0, 49, 28
1, 15354, Control_c, 0, 64, 88
1, 15364, Note_on_c, 0, 42, 39
1, 15369, Control_c, 0, 64, 87
1, 15384, Control_c, 0, 64, 84
1, 15399, Control_c, 0, 64, 80
1, 15414, Control_c, 0, 64, 78
1, 15428, Control_c, 0, 64, 76
1, 15443, Control_c, 0, 64, 76
1, 15488, Control_c, 0, 64, 76
1, 15502, Control_c, 0, 64, 77
1, 15517, Control_c, 0, 64, 77
1, 15532, Control_c, 0, 64, 78
1, 15547, Control_c, 0, 64, 79
1, 15561, Control_c, 0, 64, 79
1, 15584, Control_c, 0, 64, 80
1, 15598, Note_on_c, 0, 49, 49
1, 15599, Control_c, 0, 64, 82
1, 15604, Note_off_c, 0, 42, 42
1, 15614, Control_c, 0, 64, 83
1, 15628, Control_c, 0, 64, 84
1, 15643, Control_c, 0, 64, 85
1, 15659, Control_c, 0, 64, 86
1, 15674, Control_c, 0, 64, 87
1, 15674, Note_off_c, 0, 49, 56
1, 15689, Control_c, 0, 64, 88
1, 15704, Control_c, 0, 64, 88
1, 15719, Control_c, 0, 64, 89
1, 15733, Control_c, 0, 64, 89
1, 15820, Note_on_c, 0, 56, 46
1, 15881, Control_c, 0, 64, 89
1, 15911, Control_c, 0, 64, 88
1, 15925, Control_c, 0, 64, 88
1, 15940, Control_c, 0, 64, 87
1, 15955, Control_c, 0, 64, 87
1, 15970, Control_c, 0, 64, 86
1, 15984, Control_c, 0, 64, 85
1, 15999, Control_c, 0, 64, 84
1, 16014, Control_c, 0, 64, 83
1, 16027, Note_off_c, 0, 56, 37
1, 16029, Control_c, 0, 64, 82
1, 16044, Control_c, 0, 64, 81
1, 16059, Control_c, 0, 64, 80
1, 16059, Note_on_c, 0, 54, 42
1, 16073, Control_c, 0, 64, 78
1, 16088, Control_c, 0, 64, 77
1, 16103, Control_c, 0, 64, 77
1, 16118, Control_c, 0, 64, 76
1, 16133, Control_c, 0, 64, 75
1, 16148, Control_c, 0, 64, 74
1, 16151, Note_on_c, 0, 56, 42
1, 16163, Control_c, 0, 64, 73
1, 16164, Note_off_c, 0, 54, 37
1, 16177, Control_c, 0, 64, 73
1, 16192, Control_c, 0, 64, 72
1, 16207, Control_c, 0, 64, 72
1, 16222, Control_c, 0, 64, 71
1, 16237, Control_c, 0, 64, 70
1, 16251, Control_c, 0, 64, 70
1, 16266, Control_c, 0, 64, 69
1, 16281, Control_c, 0, 64, 68
1, 16294, Note_off_c, 0, 56, 55
1, 16296, Control_c, 0, 64, 66
1, 16303, Note_on_c, 0, 58, 45
1, 16311, Control_c, 0, 64, 65
1, 16392, Control_c, 0, 64, 66
1, 16407, Control_c, 0, 64, 67
1, 16422, Control_c, 0, 64, 68
1, 16437, Control_c, 0, 64, 70
1, 16452, Control_c, 0, 64, 72
1, 16467, Control_c, 0, 64, 73
1, 16482, Control_c, 0, 64, 74
1, 16497, Control_c, 0, 64, 76
1, 16512, Control_c, 0, 64, 77
1, 16527, Control_c, 0, 64, 79
1, 16541, Control_c, 0, 64, 81
1, 16547, Note_off_c, 0, 58, 34
1, 16556, Control_c, 0, 64, 83
1, 16571, Control_c, 0, 64, 84
1, 16586, Control_c, 0, 64, 85
1, 16600, Control_c, 0, 64, 87
1, 16606, Note_on_c, 0, 61, 39
1, 16615, Control_c, 0, 64, 89
1, 16630, Control_c, 0, 64, 91
1, 16645, Control_c, 0, 64, 93
1, 16652, Note_off_c, 0, 61, 49
1, 16660, Control_c, 0, 64, 94
1, 16674, Control_c, 0, 64, 95
1, 16689, Control_c, 0, 64, 96
1, 16704, Control_c, 0, 64, 96
1, 16719, Control_c, 0, 64, 97
1, 16734, Control_c, 0, 64, 98
1, 16748, Control_c, 0, 64, 98
1, 16763, Control_c, 0, 64, 99
1, 16941, Note_on_c, 0, 42, 38
1, 17194, Note_on_c, 0, 49, 47
1, 17194, Note_off_c, 0, 42, 39
1, 17329, Note_off_c, 0, 49, 35
1, 17423, Note_on_c, 0, 56, 45
1, 17495, Control_c, 0, 64, 98
1, 17525, Control_c, 0, 64, 98
1, 17540, Control_c, 0, 64, 97
1, 17555, Control_c, 0, 64, 97
1, 17570, Control_c, 0, 64, 96
1, 17585, Control_c, 0, 64, 96
1, 17600, Control_c, 0, 64, 95
1, 17604, Note_off_c, 0, 56, 34
1, 17615, Control_c, 0, 64, 93
1, 17629, Control_c, 0, 64, 92
1, 17644, Control_c, 0, 64, 91
1, 17659, Note_on_c, 0, 54, 43
1, 17659, Control_c, 0, 64, 90
1, 17674, Control_c, 0, 64, 89
1, 17689, Control_c, 0, 64, 88
1, 17703, Control_c, 0, 64, 86
1, 17718, Control_c, 0, 64, 84
1, 17733, Control_c, 0, 64, 82
1, 17738, Note_off_c, 0, 54, 56
1, 17747, Control_c, 0, 64, 81
1, 17762, Control_c, 0, 64, 80
1, 17764, Note_on_c, 0, 56, 40
1, 17777, Control_c, 0, 64, 79
1, 17792, Control_c, 0, 64, 79
1, 17807, Control_c, 0, 64, 78
1, 17829, Control_c, 0, 64, 77
1, 17844, Control_c, 0, 64, 76
1, 17859, Control_c, 0, 64, 75
1, 17859, Note_off_c, 0, 56, 54
1, 17874, Control_c, 0, 64, 74
1, 17889, Control_c, 0, 64, 73
1, 17903, Control_c, 0, 64, 72
1, 17918, Control_c, 0, 64, 71
1, 17923, Note_on_c, 0, 58, 43
1, 17933, Control_c, 0, 64, 69
1, 17947, Control_c, 0, 64, 68
1, 17962, Control_c, 0, 64, 67
1, 18067, Control_c, 0, 64, 68
1, 18082, Control_c, 0, 64, 69
1, 18097, Control_c, 0, 64, 69
1, 18112, Control_c, 0, 64, 70
1, 18126, Control_c, 0, 64, 71
1, 18142, Control_c, 0, 64, 72
1, 18157, Control_c, 0, 64, 73
1, 18171, Control_c, 0, 64, 74
1, 18186, Control_c, 0, 64, 75
1, 18198, Note_off_c, 0, 58, 37
1, 18201, Control_c, 0, 64, 76
1, 18216, Control_c, 0, 64, 77
1, 18222, Note_on_c, 0, 49, 40
1, 18231, Control_c, 0, 64, 78
1, 18245, Control_c, 0, 64, 80
1, 18260, Control_c, 0, 64, 81
1, 18275, Control_c, 0, 64, 82
1, 18290, Control_c, 0, 64, 83
1, 18305, Control_c, 0, 64, 84
1, 18319, Control_c, 0, 64, 85
1, 18334, Control_c, 0, 64, 86
1, 18349, Control_c, 0, 64, 86
1, 18364, Control_c, 0, 64, 87
1, 18378, Control_c, 0, 64, 88
1, 18393, Control_c, 0, 64, 89
1, 18408, Control_c, 0, 64, 90
1, 18423, Control_c, 0, 64, 91
1, 18437, Note_off_c, 0, 49, 22
1, 18438, Control_c, 0, 64, 92
1, 18452, Control_c, 0, 64, 92
1, 18467, Note_on_c, 0, 42, 39
1, 18482, Control_c, 0, 64, 93
1, 18512, Control_c, 0, 64, 93
1, 18527, Control_c, 0, 64, 94
1, 18593, Control_c, 0, 64, 94
1, 18690, Note_off_c, 0, 42, 39
1, 18706, Note_on_c, 0, 49, 49
1, 18782, Note_off_c, 0, 49, 49
1, 18937, Note_on_c, 0, 56, 38
1, 19054, Control_c, 0, 64, 94
1, 19098, Control_c, 0, 64, 93
1, 19113, Control_c, 0, 64, 93
1, 19128, Control_c, 0, 64, 92
1, 19157, Control_c, 0, 64, 92
1, 19162, Note_off_c, 0, 56, 40
1, 19172, Control_c, 0, 64, 91
1, 19187, Control_c, 0, 64, 90
1, 19191, Note_on_c, 0, 54, 37
1, 19201, Control_c, 0, 64, 89
1, 19216, Control_c, 0, 64, 88
1, 19231, Control_c, 0, 64, 87
1, 19246, Control_c, 0, 64, 86
1, 19261, Control_c, 0, 64, 85
1, 19271, Note_off_c, 0, 54, 41
1, 19275, Control_c, 0, 64, 83
1, 19286, Note_on_c, 0, 56, 36
1, 19290, Control_c, 0, 64, 81
1, 19305, Control_c, 0, 64, 81
1, 19327, Control_c, 0, 64, 80
1, 19342, Control_c, 0, 64, 80
1, 19357, Control_c, 0, 64, 79
1, 19372, Control_c, 0, 64, 79
1, 19387, Control_c, 0, 64, 78
1, 19401, Control_c, 0, 64, 77
1, 19446, Control_c, 0, 64, 77
1, 19450, Note_on_c, 0, 58, 37
1, 19452, Note_off_c, 0, 56, 42
1, 19475, Control_c, 0, 64, 76
1, 19490, Control_c, 0, 64, 75
1, 19505, Control_c, 0, 64, 73
1, 19519, Control_c, 0, 64, 71
1, 19534, Control_c, 0, 64, 70
1, 19564, Control_c, 0, 64, 71
1, 19579, Control_c, 0, 64, 72
1, 19594, Control_c, 0, 64, 73
1, 19609, Control_c, 0, 64, 74
1, 19624, Control_c, 0, 64, 75
1, 19639, Control_c, 0, 64, 76
1, 19654, Control_c, 0, 64, 77
1, 19669, Control_c, 0, 64, 79
1, 19684, Control_c, 0, 64, 80
1, 19698, Control_c, 0, 64, 81
1, 19701, Note_off_c, 0, 58, 41
1, 19713, Control_c, 0, 64, 83
1, 19728, Control_c, 0, 64, 84
1, 19743, Control_c, 0, 64, 84
1, 19758, Control_c, 0, 64, 86
1, 19773, Control_c, 0, 64, 87
1, 19779, Note_on_c, 0, 61, 19
1, 19788, Control_c, 0, 64, 88
1, 19803, Control_c, 0, 64, 89
1, 19817, Control_c, 0, 64, 91
1, 19832, Control_c, 0, 64, 92
1, 19847, Control_c, 0, 64, 93
1, 19862, Control_c, 0, 64, 94
1, 19868, Note_off_c, 0, 61, 37
1, 19877, Control_c, 0, 64, 95
1, 19892, Control_c, 0, 64, 96
1, 19906, Control_c, 0, 64, 97
1, 19921, Control_c, 0, 64, 97
1, 19936, Control_c, 0, 64, 98
1, 19950, Control_c, 0, 64, 99
1, 19965, Control_c, 0, 64, 99
1, 19980, Control_c, 0, 64, 100
1, 20010, Control_c, 0, 64, 100
1, 20039, Control_c, 0, 64, 101
1, 20092, Control_c, 0, 64, 101
1, 20165, Control_c, 0, 64, 102
1, 20186, Note_on_c, 0, 42, 22
1, 20210, Control_c, 0, 64, 102
1, 20254, Control_c, 0, 64, 103
1, 20313, Control_c, 0, 64, 103
1, 20372, Control_c, 0, 64, 104
1, 20445, Note_on_c, 0, 49, 34
1, 20447, Control_c, 0, 64, 104
1, 20453, Note_off_c, 0, 42, 38
1, 20575, Note_off_c, 0, 49, 29
1, 20696, Note_on_c, 0, 56, 36
1, 20968, Note_off_c, 0, 56, 36
1, 20994, Note_on_c, 0, 54, 33
1, 21092, Control_c, 0, 64, 104
1, 21106, Control_c, 0, 64, 103
1, 21121, Control_c, 0, 64, 103
1, 21131, Note_on_c, 0, 73, 62
1, 21137, Control_c, 0, 64, 102
1, 21142, Note_on_c, 0, 70, 42
1, 21152, Control_c, 0, 64, 102
1, 21167, Control_c, 0, 64, 101
1, 21181, Control_c, 0, 64, 101
1, 21196, Control_c, 0, 64, 100
1, 21211, Control_c, 0, 64, 99
1, 21226, Control_c, 0, 64, 98
1, 21228, Note_off_c, 0, 54, 45
1, 21242, Control_c, 0, 64, 97
1, 21257, Control_c, 0, 64, 96
1, 21271, Control_c, 0, 64, 94
1, 21272, Note_on_c, 0, 56, 33
1, 21286, Control_c, 0, 64, 92
1, 21301, Control_c, 0, 64, 91
1, 21316, Control_c, 0, 64, 89
1, 21331, Control_c, 0, 64, 86
1, 21345, Control_c, 0, 64, 83
1, 21360, Control_c, 0, 64, 80
1, 21375, Control_c, 0, 64, 77
1, 21376, Note_off_c, 0, 56, 34
1, 21389, Control_c, 0, 64, 76
1, 21437, Note_on_c, 0, 58, 34
1, 21463, Control_c, 0, 64, 77
1, 21478, Control_c, 0, 64, 78
1, 21493, Control_c, 0, 64, 78
1, 21508, Control_c, 0, 64, 79
1, 21523, Control_c, 0, 64, 81
1, 21537, Control_c, 0, 64, 82
1, 21552, Control_c, 0, 64, 83
1, 21575, Control_c, 0, 64, 85
1, 21590, Control_c, 0, 64, 87
1, 21604, Control_c, 0, 64, 88
1, 21619, Control_c, 0, 64, 90
1, 21634, Control_c, 0, 64, 91
1, 21649, Control_c, 0, 64, 92
1, 21664, Control_c, 0, 64, 94
1, 21678, Control_c, 0, 64, 95
1, 21693, Control_c, 0, 64, 95
1, 21708, Control_c, 0, 64, 96
1, 21722, Control_c, 0, 64, 97
1, 21737, Control_c, 0, 64, 98
1, 21746, Note_off_c, 0, 58, 39
1, 21750, Note_off_c, 0, 73, 24
1, 21752, Control_c, 0, 64, 99
1, 21767, Control_c, 0, 64, 99
1, 21797, Control_c, 0, 64, 100
1, 21797, Note_on_c, 0, 49, 37
1, 21827, Control_c, 0, 64, 100
1, 21841, Control_c, 0, 64, 101
1, 21856, Control_c, 0, 64, 101
1, 21900, Control_c, 0, 64, 102
1, 22003, Control_c, 0, 64, 102
1, 22008, Note_off_c, 0, 49, 41
1, 22056, Note_on_c, 0, 42, 37
1, 22137, Control_c, 0, 64, 103
1, 22188, Note_off_c, 0, 70, 0
1, 22225, Poly_aftertouch_c, 0, 70, 127
1, 22265, Note_on_c, 0, 72, 52
1, 22284, Note_on_c, 0, 69, 27
1, 22287, Note_on_c, 0, 49, 42
1, 22302, Note_off_c, 0, 42, 37
1, 22323, Control_c, 0, 64, 103
1, 22328, Poly_aftertouch_c, 0, 70, 0
1, 22398, Note_off_c, 0, 72, 61
1, 22479, Note_off_c, 0, 49, 45
1, 22495, Note_on_c, 0, 73, 45
1, 22514, Note_on_c, 0, 70, 49
1, 22529, Note_off_c, 0, 69, 22
1, 22533, Note_on_c, 0, 56, 47
1, 22632, Note_off_c, 0, 73, 60
1, 22634, Control_c, 0, 64, 102
1, 22649, Control_c, 0, 64, 102
1, 22664, Control_c, 0, 64, 101
1, 22666, Note_off_c, 0, 70, 39
1, 22670, Note_on_c, 0, 77, 53
1, 22679, Control_c, 0, 64, 100
1, 22693, Control_c, 0, 64, 99
1, 22708, Control_c, 0, 64, 98
1, 22723, Control_c, 0, 64, 96
1, 22738, Control_c, 0, 64, 94
1, 22739, Note_off_c, 0, 56, 38
1, 22749, Note_on_c, 0, 75, 59
1, 22752, Control_c, 0, 64, 89
1, 22767, Control_c, 0, 64, 81
1, 22774, Note_on_c, 0, 54, 45
1, 22782, Control_c, 0, 64, 74
1, 22786, Note_off_c, 0, 77, 38
1, 22789, Note_on_c, 0, 71, 42
1, 22797, Control_c, 0, 64, 68
1, 22812, Control_c, 0, 64, 66
1, 22842, Control_c, 0, 64, 66
1, 22851, Note_off_c, 0, 71, 62
1, 22857, Control_c, 0, 64, 68
1, 22869, Note_off_c, 0, 54, 57
1, 22872, Control_c, 0, 64, 69
1, 22883, Note_on_c, 0, 56, 46
1, 22887, Control_c, 0, 64, 71
1, 22902, Control_c, 0, 64, 72
1, 22916, Control_c, 0, 64, 74
1, 22931, Control_c, 0, 64, 75
1, 22946, Control_c, 0, 64, 76
1, 22960, Control_c, 0, 64, 77
1, 22961, Note_on_c, 0, 73, 68
1, 22975, Control_c, 0, 64, 79
1, 22976, Note_off_c, 0, 56, 59
1, 22990, Note_on_c, 0, 70, 52
1, 22990, Control_c, 0, 64, 81
1, 23002, Note_off_c, 0, 75, 57
1, 23003, Note_on_c, 0, 58, 39
1, 23005, Control_c, 0, 64, 83
1, 23020, Control_c, 0, 64, 84
1, 23034, Control_c, 0, 64, 86
1, 23049, Control_c, 0, 64, 88
1, 23060, Note_off_c, 0, 70, 53
1, 23072, Control_c, 0, 64, 90
1, 23087, Control_c, 0, 64, 93
1, 23102, Control_c, 0, 64, 94
1, 23116, Control_c, 0, 64, 95
1, 23131, Control_c, 0, 64, 97
1, 23146, Control_c, 0, 64, 98
1, 23161, Control_c, 0, 64, 100
1, 23175, Control_c, 0, 64, 101
1, 23190, Control_c, 0, 64, 102
1, 23200, Note_off_c, 0, 58, 24
1, 23205, Control_c, 0, 64, 102
1, 23220, Control_c, 0, 64, 103
1, 23249, Control_c, 0, 64, 103
1, 23269, Note_on_c, 0, 61, 38
1, 23284, Note_off_c, 0, 73, 27
1, 23301, Note_on_c, 0, 70, 61
1, 23309, Control_c, 0, 64, 104
1, 23314, Note_off_c, 0, 61, 47
1, 23331, Note_on_c, 0, 66, 45
1, 23516, Control_c, 0, 64, 103
1, 23590, Control_c, 0, 64, 102
1, 23605, Control_c, 0, 64, 101
1, 23620, Control_c, 0, 64, 100
1, 23629, Note_on_c, 0, 78, 65
1, 23635, Control_c, 0, 64, 99
1, 23651, Control_c, 0, 64, 95
1, 23663, Note_on_c, 0, 75, 55
1, 23665, Control_c, 0, 64, 90
1, 23680, Control_c, 0, 64, 85
1, 23685, Note_on_c, 0, 42, 31
1, 23695, Control_c, 0, 64, 79
1, 23710, Control_c, 0, 64, 75
1, 23713, Note_off_c, 0, 70, 37
1, 23720, Note_off_c, 0, 66, 37
1, 23725, Control_c, 0, 64, 73
1, 23739, Control_c, 0, 64, 72
1, 23754, Control_c, 0, 64, 72
1, 23769, Control_c, 0, 64, 73
1, 23783, Control_c, 0, 64, 75
1, 23798, Control_c, 0, 64, 76
1, 23821, Control_c, 0, 64, 78
1, 23836, Control_c, 0, 64, 79
1, 23851, Control_c, 0, 64, 81
1, 23865, Control_c, 0, 64, 82
1, 23874, Note_off_c, 0, 75, 57
1, 23880, Control_c, 0, 64, 84
1, 23895, Control_c, 0, 64, 85
1, 23910, Control_c, 0, 64, 87
1, 23924, Note_off_c, 0, 78, 37
1, 23924, Control_c, 0, 64, 88
1, 23939, Control_c, 0, 64, 89
1, 23954, Control_c, 0, 64, 90
1, 23969, Control_c, 0, 64, 91
1, 23984, Control_c, 0, 64, 92
1, 23998, Control_c, 0, 64, 93
1, 24013, Control_c, 0, 64, 94
1, 24027, Note_on_c, 0, 70, 50
1, 24028, Control_c, 0, 64, 95
1, 24043, Control_c, 0, 64, 95
1, 24044, Note_on_c, 0, 49, 44
1, 24055, Note_on_c, 0, 66, 44
1, 24058, Control_c, 0, 64, 96
1, 24068, Note_off_c, 0, 42, 33
1, 24072, Control_c, 0, 64, 97
1, 24087, Control_c, 0, 64, 97
1, 24102, Control_c, 0, 64, 98
1, 24146, Note_off_c, 0, 70, 60
1, 24175, Note_off_c, 0, 66, 35
1, 24207, Note_off_c, 0, 49, 33
1, 24253, Note_on_c, 0, 75, 59
1, 24271, Note_on_c, 0, 71, 42
1, 24286, Note_on_c, 0, 53, 45
1, 24384, Note_off_c, 0, 71, 48
1, 24405, Note_off_c, 0, 53, 53
1, 24422, Note_off_c, 0, 75, 37
1, 24444, Control_c, 0, 64, 97
1, 24459, Control_c, 0, 64, 94
1, 24474, Control_c, 0, 64, 90
1, 24486, Note_on_c, 0, 73, 58
1, 24489, Control_c, 0, 64, 84
1, 24492, Note_on_c, 0, 70, 45
1, 24503, Control_c, 0, 64, 78
1, 24505, Note_on_c, 0, 54, 40
1, 24518, Control_c, 0, 64, 74
1, 24533, Control_c, 0, 64, 73
1, 24548, Control_c, 0, 64, 74
1, 24570, Control_c, 0, 64, 76
1, 24577, Note_off_c, 0, 70, 59
1, 24585, Control_c, 0, 64, 77
1, 24600, Control_c, 0, 64, 79
1, 24602, Note_off_c, 0, 54, 53
1, 24614, Note_off_c, 0, 73, 61
1, 24615, Control_c, 0, 64, 81
1, 24629, Control_c, 0, 64, 83
1, 24644, Control_c, 0, 64, 86
1, 24651, Note_on_c, 0, 56, 29
1, 24659, Control_c, 0, 64, 88
1, 24674, Control_c, 0, 64, 89
1, 24689, Control_c, 0, 64, 91
1, 24703, Control_c, 0, 64, 92
1, 24718, Control_c, 0, 64, 92
1, 24733, Control_c, 0, 64, 93
1, 24736, Note_off_c, 0, 56, 34
1, 24748, Control_c, 0, 64, 94
1, 24763, Control_c, 0, 64, 95
1, 24778, Control_c, 0, 64, 95
1, 24796, Note_on_c, 0, 66, 47
1, 24807, Control_c, 0, 64, 96
1, 24816, Note_on_c, 0, 58, 39
1, 24837, Control_c, 0, 64, 96
1, 24921, Note_off_c, 0, 66, 58
1, 25008, Note_off_c, 0, 58, 33
1, 25012, Note_on_c, 0, 71, 61
1, 25052, Note_on_c, 0, 68, 12
1, 25058, Note_on_c, 0, 49, 42
1, 25142, Note_off_c, 0, 68, 33
1, 25210, Note_off_c, 0, 71, 61
1, 25252, Control_c, 0, 64, 96
1, 25273, Note_off_c, 0, 49, 43
1, 25282, Control_c, 0, 64, 95
1, 25297, Control_c, 0, 64, 95
1, 25319, Control_c, 0, 64, 94
1, 25334, Control_c, 0, 64, 94
1, 25349, Control_c, 0, 64, 93
1, 25353, Note_on_c, 0, 70, 58
1, 25364, Note_on_c, 0, 42, 12
1, 25364, Control_c, 0, 64, 92
1, 25378, Control_c, 0, 64, 91
1, 25393, Control_c, 0, 64, 90
1, 25398, Note_on_c, 0, 66, 31
1, 25408, Control_c, 0, 64, 89
1, 25423, Control_c, 0, 64, 88
1, 25438, Control_c, 0, 64, 87
1, 25452, Control_c, 0, 64, 85
1, 25467, Control_c, 0, 64, 83
1, 25482, Control_c, 0, 64, 80
1, 25497, Control_c, 0, 64, 76
1, 25512, Control_c, 0, 64, 72
1, 25526, Control_c, 0, 64, 69
1, 25541, Control_c, 0, 64, 66
1, 25556, Control_c, 0, 64, 66
1, 25615, Control_c, 0, 64, 66
1, 25630, Control_c, 0, 64, 67
1, 25644, Control_c, 0, 64, 68
1, 25659, Control_c, 0, 64, 69
1, 25674, Control_c, 0, 64, 71
1, 25679, Note_off_c, 0, 42, 44
1, 25689, Note_on_c, 0, 49, 51
1, 25689, Control_c, 0, 64, 72
1, 25704, Control_c, 0, 64, 74
1, 25718, Control_c, 0, 64, 76
1, 25733, Control_c, 0, 64, 77
1, 25748, Control_c, 0, 64, 78
1, 25762, Control_c, 0, 64, 80
1, 25777, Control_c, 0, 64, 81
1, 25792, Control_c, 0, 64, 83
1, 25803, Note_off_c, 0, 49, 36
1, 25807, Control_c, 0, 64, 85
1, 25822, Control_c, 0, 64, 86
1, 25837, Control_c, 0, 64, 87
1, 25851, Control_c, 0, 64, 88
1, 25866, Control_c, 0, 64, 89
1, 25881, Control_c, 0, 64, 90
1, 25896, Control_c, 0, 64, 90
1, 25896, Note_on_c, 0, 56, 44
1, 25910, Control_c, 0, 64, 91
1, 25970, Control_c, 0, 67, 126
1, 25985, Control_c, 0, 67, 125
1, 26000, Control_c, 0, 67, 124
1, 26030, Control_c, 0, 67, 123
1, 26045, Control_c, 0, 67, 123
1, 26067, Control_c, 0, 67, 122
1, 26105, Note_off_c, 0, 56, 36
1, 26112, Control_c, 0, 67, 122
1, 26135, Note_off_c, 0, 66, 40
1, 26139, Note_on_c, 0, 54, 40
1, 26141, Control_c, 0, 64, 90
1, 26156, Control_c, 0, 64, 90
1, 26171, Control_c, 0, 64, 89
1, 26185, Control_c, 0, 64, 88
1, 26199, Note_on_c, 0, 64, 59
1, 26200, Control_c, 0, 64, 87
1, 26215, Control_c, 0, 64, 87
1, 26230, Control_c, 0, 64, 86
1, 26245, Control_c, 0, 64, 84
1, 26259, Control_c, 0, 64, 81
1, 26274, Control_c, 0, 64, 78
1, 26289, Control_c, 0, 64, 73
1, 26304, Control_c, 0, 64, 70
1, 26311, Note_off_c, 0, 54, 44
1, 26319, Control_c, 0, 64, 68
1, 26319, Control_c, 0, 67, 121
1, 26322, Note_on_c, 0, 56, 44
1, 26334, Control_c, 0, 64, 69
1, 26349, Control_c, 0, 64, 69
1, 26378, Control_c, 0, 64, 70
1, 26378, Control_c, 0, 67, 121
1, 26393, Control_c, 0, 64, 71
1, 26408, Control_c, 0, 64, 74
1, 26423, Control_c, 0, 64, 75
1, 26432, Note_off_c, 0, 56, 56
1, 26438, Control_c, 0, 64, 76
1, 26453, Control_c, 0, 64, 77
1, 26467, Note_on_c, 0, 58, 39
1, 26467, Control_c, 0, 64, 78
1, 26478, Note_off_c, 0, 64, 39
1, 26482, Control_c, 0, 64, 80
1, 26482, Control_c, 0, 67, 120
1, 26483, Note_off_c, 0, 70, 56
1, 26497, Control_c, 0, 64, 82
1, 26511, Control_c, 0, 64, 83
1, 26526, Control_c, 0, 64, 84
1, 26541, Control_c, 0, 64, 85
1, 26541, Control_c, 0, 67, 119
1, 26556, Control_c, 0, 64, 86
1, 26556, Control_c, 0, 67, 117
1, 26571, Control_c, 0, 64, 88
1, 26571, Control_c, 0, 67, 115
1, 26585, Control_c, 0, 64, 90
1, 26585, Control_c, 0, 67, 113
1, 26600, Control_c, 0, 64, 91
1, 26600, Control_c, 0, 67, 112
1, 26615, Control_c, 0, 64, 92
1, 26615, Control_c, 0, 67, 110
1, 26630, Control_c, 0, 67, 108
1, 26645, Control_c, 0, 64, 93
1, 26645, Control_c, 0, 67, 107
1, 26659, Control_c, 0, 64, 93
1, 26659, Control_c, 0, 67, 105
1, 26674, Control_c, 0, 64, 94
1, 26674, Control_c, 0, 67, 104
1, 26689, Control_c, 0, 64, 94
1, 26689, Control_c, 0, 67, 102
1, 26704, Control_c, 0, 64, 95
1, 26704, Control_c, 0, 67, 101
1, 26718, Control_c, 0, 67, 101
1, 26733, Note_off_c, 0, 58, 37
1, 26733, Control_c, 0, 67, 100
1, 26748, Control_c, 0, 67, 99
1, 26763, Control_c, 0, 67, 98
1, 26778, Control_c, 0, 67, 96
1, 26793, Control_c, 0, 67, 95
1, 26815, Control_c, 0, 67, 94
1, 26817, Note_on_c, 0, 61, 40
1, 26830, Control_c, 0, 67, 94
1, 26846, Control_c, 0, 67, 93
1, 26861, Control_c, 0, 67, 92
1, 26863, Note_off_c, 0, 61, 54
1, 26876, Control_c, 0, 67, 91
1, 26890, Control_c, 0, 67, 90
1, 26893, Note_on_c, 0, 63, 45
1, 26905, Control_c, 0, 67, 89
1, 26920, Control_c, 0, 67, 88
1, 26934, Control_c, 0, 67, 88
1, 26949, Control_c, 0, 67, 87
1, 26964, Control_c, 0, 64, 94
1, 26964, Control_c, 0, 67, 86
1, 26979, Control_c, 0, 64, 94
1, 26979, Control_c, 0, 67, 86
1, 26981, Note_on_c, 0, 71, 55
1, 26994, Control_c, 0, 64, 93
1, 26994, Control_c, 0, 67, 85
1, 27008, Control_c, 0, 64, 93
1, 27008, Control_c, 0, 67, 85
1, 27023, Control_c, 0, 64, 92
1, 27023, Control_c, 0, 67, 84
1, 27038, Control_c, 0, 64, 92
1, 27038, Control_c, 0, 67, 84
1, 27053, Control_c, 0, 67, 83
1, 27068, Control_c, 0, 64, 91
1, 27082, Control_c, 0, 64, 90
1, 27082, Control_c, 0, 67, 82
1, 27097, Control_c, 0, 64, 89
1, 27097, Control_c, 0, 67, 82
1, 27112, Control_c, 0, 64, 88
1, 27127, Control_c, 0, 64, 87
1, 27142, Control_c, 0, 64, 86
1, 27142, Control_c, 0, 67, 81
1, 27156, Control_c, 0, 64, 85
1, 27171, Control_c, 0, 64, 84
1, 27186, Control_c, 0, 64, 83
1, 27201, Control_c, 0, 64, 82
1, 27216, Control_c, 0, 64, 81
1, 27231, Control_c, 0, 64, 80
1, 27245, Note_on_c, 0, 42, 22
1, 27246, Control_c, 0, 64, 79
1, 27261, Control_c, 0, 64, 78
1, 27276, Control_c, 0, 64, 77
1, 27290, Control_c, 0, 64, 76
1, 27305, Control_c, 0, 64, 75
1, 27313, Note_on_c, 0, 78, 61
1, 27320, Control_c, 0, 64, 73
1, 27334, Control_c, 0, 64, 71
1, 27349, Control_c, 0, 64, 68
1, 27364, Control_c, 0, 64, 66
1, 27379, Control_c, 0, 64, 66
1, 27423, Control_c, 0, 64, 67
1, 27438, Control_c, 0, 64, 68
1, 27453, Control_c, 0, 64, 70
1, 27468, Control_c, 0, 64, 72
1, 27482, Control_c, 0, 64, 74
1, 27497, Control_c, 0, 64, 75
1, 27512, Control_c, 0, 64, 76
1, 27527, Control_c, 0, 64, 78
1, 27527, Control_c, 0, 67, 81
1, 27541, Control_c, 0, 64, 79
1, 27564, Control_c, 0, 64, 82
1, 27564, Control_c, 0, 67, 80
1, 27579, Control_c, 0, 64, 84
1, 27581, Note_off_c, 0, 63, 43
1, 27594, Control_c, 0, 64, 86
1, 27608, Note_off_c, 0, 71, 39
1, 27609, Control_c, 0, 64, 87
1, 27623, Control_c, 0, 64, 89
1, 27639, Control_c, 0, 64, 91
1, 27648, Note_off_c, 0, 42, 42
1, 27654, Control_c, 0, 64, 93
1, 27669, Control_c, 0, 64, 95
1, 27684, Control_c, 0, 64, 97
1, 27687, Note_on_c, 0, 54, 41
1, 27694, Note_off_c, 0, 78, 33
1, 27699, Control_c, 0, 64, 99
1, 27713, Control_c, 0, 64, 101
1, 27713, Control_c, 0, 67, 80
1, 27728, Control_c, 0, 64, 103
1, 27728, Control_c, 0, 67, 78
1, 27743, Control_c, 0, 64, 105
1, 27743, Control_c, 0, 67, 77
1, 27757, Control_c, 0, 64, 106
1, 27757, Control_c, 0, 67, 77
1, 27772, Control_c, 0, 64, 107
1, 27772, Control_c, 0, 67, 76
1, 27787, Control_c, 0, 64, 108
1, 27787, Control_c, 0, 67, 75
1, 27788, Note_off_c, 0, 54, 51
1, 27802, Control_c, 0, 64, 109
1, 27802, Control_c, 0, 67, 75
1, 27817, Control_c, 0, 64, 109
1, 27817, Control_c, 0, 67, 74
1, 27831, Control_c, 0, 64, 110
1, 27831, Control_c, 0, 67, 74
1, 27861, Control_c, 0, 64, 110
1, 27877, Control_c, 0, 67, 73
1, 27965, Control_c, 0, 67, 73
1, 28010, Note_on_c, 0, 61, 42
1, 28098, Note_on_c, 0, 66, 57
1, 28120, Note_off_c, 0, 61, 34
1, 28158, Control_c, 0, 67, 73
1, 28188, Control_c, 0, 64, 109
1, 28203, Control_c, 0, 64, 108
1, 28214, Note_on_c, 0, 78, 71
1, 28218, Control_c, 0, 64, 106
1, 28231, Note_on_c, 0, 75, 49
1, 28232, Control_c, 0, 64, 104
1, 28244, Note_on_c, 0, 59, 46
1, 28247, Control_c, 0, 64, 103
1, 28247, Control_c, 0, 67, 74
1, 28262, Control_c, 0, 64, 101
1, 28277, Control_c, 0, 64, 98
1, 28291, Control_c, 0, 64, 93
1, 28313, Control_c, 0, 64, 87
1, 28328, Control_c, 0, 64, 76
1, 28343, Control_c, 0, 64, 67
1, 28349, Note_off_c, 0, 59, 52
1, 28352, Note_on_c, 0, 61, 47
1, 28358, Control_c, 0, 64, 60
1, 28373, Control_c, 0, 64, 56
1, 28388, Control_c, 0, 64, 58
1, 28402, Control_c, 0, 64, 63
1, 28402, Control_c, 0, 67, 74
1, 28417, Control_c, 0, 64, 68
1, 28433, Control_c, 0, 64, 73
1, 28448, Control_c, 0, 64, 78
1, 28448, Control_c, 0, 67, 75
1, 28451, Note_off_c, 0, 61, 59
1, 28462, Control_c, 0, 64, 83
1, 28462, Control_c, 0, 67, 75
1, 28471, Note_on_c, 0, 63, 55
1, 28477, Control_c, 0, 64, 87
1, 28477, Control_c, 0, 67, 76
1, 28492, Control_c, 0, 64, 90
1, 28507, Control_c, 0, 64, 94
1, 28507, Control_c, 0, 67, 76
1, 28516, Note_off_c, 0, 63, 59
1, 28522, Control_c, 0, 64, 98
1, 28537, Control_c, 0, 64, 103
1, 28537, Control_c, 0, 67, 77
1, 28552, Control_c, 0, 64, 107
1, 28552, Control_c, 0, 67, 77
1, 28566, Control_c, 0, 64, 112
1, 28581, Control_c, 0, 64, 117
1, 28581, Control_c, 0, 67, 78
1, 28596, Control_c, 0, 64, 127
1, 28611, Control_c, 0, 67, 78
1, 28641, Control_c, 0, 67, 79
1, 28665, Note_off_c, 0, 66, 37
1, 28670, Control_c, 0, 67, 79
1, 28700, Control_c, 0, 67, 80
1, 28786, Note_on_c, 0, 54, 50
1, 28867, Note_off_c, 0, 78, 32
1, 28892, Control_c, 0, 67, 79
1, 28951, Control_c, 0, 67, 79
1, 28981, Control_c, 0, 67, 78
1, 29024, Note_off_c, 0, 54, 52
1, 29039, Note_on_c, 0, 42, 53
1, 29062, Control_c, 0, 67, 78
1, 29092, Control_c, 0, 67, 77
1, 29121, Control_c, 0, 67, 77
1, 29151, Control_c, 0, 67, 76
1, 29195, Control_c, 0, 67, 76
1, 29210, Note_off_c, 0, 42, 56
1, 29225, Control_c, 0, 67, 75
1, 29241, Control_c, 0, 67, 75
1, 29274, Note_on_c, 0, 54, 48
1, 29280, Note_on_c, 0, 77, 65
1, 29297, Note_on_c, 0, 74, 56
1, 29330, Control_c, 0, 67, 74
1, 29343, Note_off_c, 0, 75, 37
1, 29352, Note_off_c, 0, 54, 62
1, 29374, Note_off_c, 0, 77, 61
1, 29490, Note_on_c, 0, 78, 66
1, 29493, Note_on_c, 0, 75, 60
1, 29505, Note_on_c, 0, 61, 53
1, 29535, Note_off_c, 0, 74, 38
1, 29632, Note_off_c, 0, 78, 60
1, 29633, Note_off_c, 0, 61, 35
1, 29643, Note_off_c, 0, 75, 31
1, 29657, Note_on_c, 0, 82, 66
1, 29728, Note_on_c, 0, 80, 69
1, 29738, Note_on_c, 0, 59, 49
1, 29744, Control_c, 0, 64, 112
1, 29747, Note_on_c, 0, 77, 49
1, 29759, Control_c, 0, 64, 97
1, 29774, Control_c, 0, 64, 87
1, 29776, Note_off_c, 0, 82, 57
1, 29780, Note_off_c, 0, 77, 0
1, 29780, Note_on_c, 0, 77, 28
1, 29789, Control_c, 0, 64, 80
1, 29811, Control_c, 0, 64, 76
1, 29826, Control_c, 0, 64, 73
1, 29841, Control_c, 0, 64, 73
1, 29852, Note_on_c, 0, 61, 58
1, 29852, Note_off_c, 0, 59, 51
1, 29855, Control_c, 0, 64, 74
1, 29862, Note_off_c, 0, 77, 62
1, 29870, Control_c, 0, 64, 76
1, 29885, Control_c, 0, 64, 78
1, 29900, Control_c, 0, 64, 80
1, 29915, Control_c, 0, 64, 81
1, 29929, Control_c, 0, 64, 84
1, 29944, Control_c, 0, 64, 87
1, 29947, Note_on_c, 0, 78, 65
1, 29959, Control_c, 0, 64, 90
1, 29961, Note_on_c, 0, 75, 60
1, 29963, Note_on_c, 0, 63, 57
1, 29974, Control_c, 0, 64, 93
1, 29983, Note_off_c, 0, 61, 48
1, 29989, Control_c, 0, 64, 96
1, 30003, Control_c, 0, 64, 99
1, 30018, Control_c, 0, 64, 102
1, 30034, Control_c, 0, 64, 106
1, 30039, Note_off_c, 0, 80, 37
1, 30049, Control_c, 0, 64, 110
1, 30064, Control_c, 0, 64, 114
1, 30068, Note_off_c, 0, 75, 48
1, 30079, Control_c, 0, 64, 122
1, 30094, Control_c, 0, 64, 127
1, 30169, Note_off_c, 0, 63, 38
1, 30194, Note_on_c, 0, 66, 50
1, 30221, Note_on_c, 0, 75, 66
1, 30224, Note_off_c, 0, 66, 56
1, 30225, Note_on_c, 0, 71, 68
1, 30255, Control_c, 0, 67, 74
1, 30270, Control_c, 0, 67, 73
1, 30313, Note_off_c, 0, 78, 43
1, 30432, Control_c, 0, 67, 74
1, 30447, Control_c, 0, 67, 74
1, 30477, Control_c, 0, 67, 75
1, 30522, Control_c, 0, 67, 76
1, 30537, Note_off_c, 0, 75, 0
1, 30546, Note_on_c, 0, 83, 69
1, 30558, Control_c, 0, 67, 76
1, 30567, Note_on_c, 0, 80, 66
1, 30573, Control_c, 0, 64, 114
1, 30581, Poly_aftertouch_c, 0, 75, 127
1, 30588, Control_c, 0, 64, 104
1, 30588, Control_c, 0, 67, 77
1, 30603, Control_c, 0, 64, 95
1, 30614, Note_on_c, 0, 42, 48
1, 30618, Control_c, 0, 64, 87
1, 30632, Control_c, 0, 64, 81
1, 30647, Control_c, 0, 64, 77
1, 30662, Control_c, 0, 64, 75
1, 30676, Poly_aftertouch_c, 0, 75, 0
1, 30692, Control_c, 0, 64, 77
1, 30707, Control_c, 0, 64, 78
1, 30722, Control_c, 0, 64, 80
1, 30724, Note_off_c, 0, 71, 43
1, 30737, Control_c, 0, 64, 83
1, 30751, Control_c, 0, 64, 86
1, 30766, Control_c, 0, 64, 88
1, 30781, Control_c, 0, 64, 91
1, 30796, Control_c, 0, 64, 93
1, 30811, Control_c, 0, 64, 95
1, 30819, Note_off_c, 0, 42, 57
1, 30826, Control_c, 0, 64, 96
1, 30841, Control_c, 0, 64, 99
1, 30849, Note_off_c, 0, 80, 0
1, 30856, Control_c, 0, 64, 101
1, 30865, Note_on_c, 0, 75, 66
1, 30871, Control_c, 0, 64, 103
1, 30878, Note_on_c, 0, 54, 56
1, 30879, Note_on_c, 0, 71, 66
1, 30886, Control_c, 0, 64, 106
1, 30888, Poly_aftertouch_c, 0, 80, 127
1, 30900, Control_c, 0, 64, 109
1, 30906, Note_off_c, 0, 83, 23
1, 30915, Control_c, 0, 64, 113
1, 30930, Control_c, 0, 64, 117
1, 30945, Control_c, 0, 64, 123
1, 30948, Poly_aftertouch_c, 0, 80, 0
1, 30951, Note_off_c, 0, 54, 62
1, 30957, Note_off_c, 0, 75, 62
1, 30960, Control_c, 0, 64, 127
1, 30975, Note_off_c, 0, 71, 60
1, 31097, Note_on_c, 0, 73, 73
1, 31097, Note_on_c, 0, 77, 72
1, 31110, Note_on_c, 0, 61, 57
1, 31123, Control_c, 0, 67, 77
1, 31153, Control_c, 0, 67, 78
1, 31186, Note_off_c, 0, 77, 59
1, 31197, Control_c, 0, 67, 78
1, 31199, Note_off_c, 0, 61, 52
1, 31202, Note_off_c, 0, 73, 62
1, 31256, Control_c, 0, 67, 79
1, 31286, Control_c, 0, 67, 79
1, 31308, Control_c, 0, 67, 80
1, 31337, Note_on_c, 0, 78, 62
1, 31340, Note_on_c, 0, 75, 65
1, 31352, Note_on_c, 0, 59, 52
1, 31353, Control_c, 0, 64, 118
1, 31353, Control_c, 0, 67, 80
1, 31368, Control_c, 0, 64, 106
1, 31382, Control_c, 0, 64, 96
1, 31397, Control_c, 0, 64, 87
1, 31412, Control_c, 0, 64, 79
1, 31427, Control_c, 0, 64, 74
1, 31442, Control_c, 0, 64, 71
1, 31445, Note_on_c, 0, 61, 53
1, 31452, Note_off_c, 0, 75, 62
1, 31456, Control_c, 0, 64, 71
1, 31471, Control_c, 0, 64, 72
1, 31471, Control_c, 0, 67, 81
1, 31485, Note_off_c, 0, 59, 47
1, 31486, Control_c, 0, 64, 72
1, 31500, Control_c, 0, 64, 73
1, 31515, Control_c, 0, 64, 75
1, 31530, Control_c, 0, 64, 77
1, 31530, Control_c, 0, 67, 81
1, 31533, Note_off_c, 0, 78, 58
1, 31537, Note_off_c, 0, 61, 58
1, 31545, Control_c, 0, 64, 80
1, 31553, Note_on_c, 0, 71, 60
1, 31554, Note_on_c, 0, 63, 52
1, 31560, Control_c, 0, 64, 83
1, 31560, Control_c, 0, 67, 82
1, 31562, Note_on_c, 0, 66, 58
1, 31574, Control_c, 0, 64, 85
1, 31589, Control_c, 0, 64, 88
1, 31589, Control_c, 0, 67, 82
1, 31591, Note_off_c, 0, 63, 61
1, 31604, Control_c, 0, 64, 91
1, 31619, Control_c, 0, 64, 94
1, 31619, Control_c, 0, 67, 83
1, 31635, Control_c, 0, 64, 96
1, 31642, Note_off_c, 0, 66, 59
1, 31650, Control_c, 0, 64, 98
1, 31665, Control_c, 0, 64, 99
1, 31679, Control_c, 0, 64, 100
1, 31694, Control_c, 0, 64, 101
1, 31709, Control_c, 0, 64, 102
1, 31723, Control_c, 0, 64, 102
1, 31738, Control_c, 0, 64, 103
1, 31753, Control_c, 0, 67, 83
1, 31798, Control_c, 0, 67, 84
1, 31811, Note_on_c, 0, 72, 60
1, 31830, Note_on_c, 0, 69, 58
1, 31853, Note_on_c, 0, 54, 41
1, 31869, Note_off_c, 0, 71, 47
1, 31886, Note_off_c, 0, 69, 49
1, 31887, Control_c, 0, 67, 84
1, 31902, Control_c, 0, 67, 85
1, 31931, Control_c, 0, 67, 85
1, 31976, Control_c, 0, 67, 86
1, 32026, Note_off_c, 0, 72, 0
1, 32057, Control_c, 0, 67, 86
1, 32071, Poly_aftertouch_c, 0, 72, 127
1, 32087, Control_c, 0, 64, 101
1, 32096, Note_on_c, 0, 75, 58
1, 32102, Control_c, 0, 64, 100
1, 32102, Control_c, 0, 67, 87
1, 32105, Note_on_c, 0, 71, 51
1, 32108, Note_off_c, 0, 54, 42
1, 32117, Control_c, 0, 64, 98
1, 32117, Control_c, 0, 67, 87
1, 32131, Control_c, 0, 64, 96
1, 32131, Control_c, 0, 67, 88
1, 32143, Note_on_c, 0, 42, 34
1, 32146, Control_c, 0, 64, 95
1, 32146, Control_c, 0, 67, 89
1, 32161, Control_c, 0, 64, 93
1, 32161, Control_c, 0, 67, 90
1, 32161, Poly_aftertouch_c, 0, 72, 0
1, 32176, Control_c, 0, 64, 90
1, 32176, Control_c, 0, 67, 92
1, 32191, Control_c, 0, 64, 87
1, 32191, Control_c, 0, 67, 93
1, 32205, Control_c, 0, 64, 82
1, 32205, Control_c, 0, 67, 93
1, 32220, Control_c, 0, 64, 76
1, 32235, Control_c, 0, 64, 72
1, 32235, Control_c, 0, 67, 94
1, 32250, Control_c, 0, 64, 69
1, 32264, Control_c, 0, 64, 68
1, 32309, Control_c, 0, 67, 94
1, 32324, Control_c, 0, 64, 67
1, 32338, Control_c, 0, 64, 66
1, 32338, Control_c, 0, 67, 95
1, 32353, Control_c, 0, 64, 64
1, 32367, Control_c, 0, 64, 62
1, 32370, Note_off_c, 0, 71, 44
1, 32395, Note_on_c, 0, 73, 52
1, 32397, Control_c, 0, 64, 63
1, 32403, Note_on_c, 0, 70, 43
1, 32412, Control_c, 0, 64, 64
1, 32427, Control_c, 0, 64, 66
1, 32430, Note_on_c, 0, 49, 43
1, 32442, Control_c, 0, 64, 67
1, 32457, Control_c, 0, 64, 69
1, 32457, Control_c, 0, 67, 94
1, 32472, Control_c, 0, 64, 71
1, 32487, Control_c, 0, 64, 74
1, 32488, Note_off_c, 0, 75, 44
1, 32501, Control_c, 0, 64, 77
1, 32502, Note_off_c, 0, 42, 44
1, 32516, Control_c, 0, 64, 79
1, 32516, Control_c, 0, 67, 94
1, 32531, Control_c, 0, 64, 82
1, 32546, Control_c, 0, 64, 84
1, 32561, Control_c, 0, 64, 87
1, 32576, Control_c, 0, 64, 89
1, 32576, Control_c, 0, 67, 93
1, 32591, Control_c, 0, 64, 92
1, 32600, Note_off_c, 0, 73, 47
1, 32604, Note_off_c, 0, 70, 49
1, 32606, Control_c, 0, 64, 95
1, 32620, Control_c, 0, 64, 98
1, 32635, Control_c, 0, 64, 102
1, 32635, Control_c, 0, 67, 93
1, 32650, Control_c, 0, 64, 106
1, 32650, Control_c, 0, 67, 92
1, 32665, Control_c, 0, 64, 109
1, 32671, Note_off_c, 0, 49, 36
1, 32679, Control_c, 0, 64, 111
1, 32694, Control_c, 0, 64, 112
1, 32709, Control_c, 0, 64, 112
1, 32709, Control_c, 0, 67, 92
1, 32724, Control_c, 0, 64, 113
1, 32739, Control_c, 0, 64, 114
1, 32753, Control_c, 0, 64, 114
1, 32804, Note_on_c, 0, 56, 40
1, 32805, Control_c, 0, 67, 91
1, 32835, Control_c, 0, 67, 91
1, 32902, Note_on_c, 0, 61, 41
1, 32924, Control_c, 0, 67, 90
1, 32953, Control_c, 0, 67, 90
1, 32983, Control_c, 0, 67, 89
1, 33072, Control_c, 0, 64, 114
1, 33086, Control_c, 0, 64, 112
1, 33101, Control_c, 0, 64, 111
1, 33116, Control_c, 0, 64, 110
1, 33127, Note_off_c, 0, 56, 44
1, 33131, Control_c, 0, 64, 109
1, 33138, Note_off_c, 0, 61, 0
1, 33143, Note_on_c, 0, 66, 41
1, 33143, Note_on_c, 0, 70, 52
1, 33146, Control_c, 0, 64, 108
1, 33160, Control_c, 0, 64, 106
1, 33161, Note_on_c, 0, 54, 43
1, 33175, Poly_aftertouch_c, 0, 61, 127
1, 33175, Control_c, 0, 64, 103
1, 33190, Control_c, 0, 64, 101
1, 33205, Control_c, 0, 64, 98
1, 33205, Control_c, 0, 67, 89
1, 33221, Control_c, 0, 64, 94
1, 33236, Control_c, 0, 64, 90
1, 33250, Control_c, 0, 64, 84
1, 33262, Note_on_c, 0, 56, 45
1, 33265, Control_c, 0, 64, 78
1, 33280, Control_c, 0, 64, 73
1, 33294, Control_c, 0, 64, 70
1, 33294, Control_c, 0, 67, 88
1, 33296, Note_off_c, 0, 54, 37
1, 33309, Control_c, 0, 64, 69
1, 33324, Control_c, 0, 67, 88
1, 33339, Control_c, 0, 64, 69
1, 33354, Control_c, 0, 64, 71
1, 33369, Control_c, 0, 64, 74
1, 33369, Control_c, 0, 67, 87
1, 33370, Note_off_c, 0, 66, 43
1, 33375, Note_off_c, 0, 56, 61
1, 33384, Control_c, 0, 64, 76
1, 33384, Control_c, 0, 67, 87
1, 33392, Note_on_c, 0, 58, 58
1, 33398, Control_c, 0, 64, 77
1, 33413, Control_c, 0, 64, 78
1, 33413, Control_c, 0, 67, 86
1, 33428, Control_c, 0, 64, 80
1, 33443, Poly_aftertouch_c, 0, 61, 0
1, 33443, Control_c, 0, 64, 82
1, 33443, Control_c, 0, 67, 86
1, 33458, Control_c, 0, 64, 84
1, 33458, Control_c, 0, 67, 85
1, 33473, Control_c, 0, 64, 87
1, 33488, Control_c, 0, 64, 89
1, 33488, Control_c, 0, 67, 85
1, 33502, Control_c, 0, 64, 91
1, 33502, Control_c, 0, 67, 84
1, 33512, Note_off_c, 0, 58, 54
1, 33517, Control_c, 0, 64, 93
1, 33532, Control_c, 0, 64, 95
1, 33532, Control_c, 0, 67, 84
1, 33554, Control_c, 0, 64, 96
1, 33569, Control_c, 0, 64, 97
1, 33583, Control_c, 0, 64, 98
1, 33598, Control_c, 0, 64, 99
1, 33598, Control_c, 0, 67, 83
1, 33613, Control_c, 0, 64, 99
1, 33628, Control_c, 0, 64, 100
1, 33776, Control_c, 0, 64, 99
1, 33791, Control_c, 0, 64, 99
1, 33794, Note_on_c, 0, 41, 60
1, 33806, Control_c, 0, 64, 97
1, 33821, Control_c, 0, 64, 95
1, 33836, Control_c, 0, 64, 91
1, 33844, Note_on_c, 0, 68, 68
1, 33850, Control_c, 0, 64, 85
1, 33866, Control_c, 0, 64, 80
1, 33866, Control_c, 0, 67, 83
1, 33879, Note_on_c, 0, 62, 45
1, 33881, Control_c, 0, 64, 75
1, 33896, Control_c, 0, 64, 71
1, 33896, Control_c, 0, 67, 82
1, 33910, Control_c, 0, 64, 69
1, 33910, Control_c, 0, 67, 82
1, 33925, Control_c, 0, 64, 70
1, 33925, Control_c, 0, 67, 80
1, 33940, Control_c, 0, 64, 71
1, 33940, Control_c, 0, 67, 77
1, 33955, Control_c, 0, 64, 73
1, 33955, Control_c, 0, 67, 74
1, 33970, Control_c, 0, 64, 75
1, 33970, Control_c, 0, 67, 72
1, 33984, Control_c, 0, 64, 77
1, 33984, Control_c, 0, 67, 70
1, 33999, Note_off_c, 0, 41, 61
1, 33999, Control_c, 0, 64, 79
1, 33999, Control_c, 0, 67, 68
1, 34014, Control_c, 0, 64, 82
1, 34014, Control_c, 0, 67, 65
1, 34030, Control_c, 0, 64, 84
1, 34030, Control_c, 0, 67, 61
1, 34045, Control_c, 0, 64, 87
1, 34045, Control_c, 0, 67, 56
1, 34053, Note_off_c, 0, 62, 50
1, 34057, Note_off_c, 0, 68, 59
1, 34060, Control_c, 0, 64, 89
1, 34060, Control_c, 0, 67, 51
1, 34074, Control_c, 0, 64, 92
1, 34074, Control_c, 0, 67, 46
1, 34089, Control_c, 0, 64, 95
1, 34089, Control_c, 0, 67, 42
1, 34104, Control_c, 0, 64, 98
1, 34104, Control_c, 0, 67, 38
1, 34118, Control_c, 0, 64, 101
1, 34118, Control_c, 0, 67, 32
1, 34133, Control_c, 0, 64, 104
1, 34133, Control_c, 0, 67, 24
1, 34148, Control_c, 0, 64, 106
1, 34148, Control_c, 0, 67, 17
1, 34157, Note_off_c, 0, 70, 31
1, 34163, Control_c, 0, 64, 107
1, 34163, Control_c, 0, 67, 11
1, 34178, Control_c, 0, 64, 107
1, 34178, Control_c, 0, 67, 0
1, 34281, Control_c, 0, 64, 107
1, 34288, Note_on_c, 0, 39, 59
1, 34319, Control_c, 0, 64, 104
1, 34333, Control_c, 0, 64, 98
1, 34348, Control_c, 0, 64, 90
1, 34358, Note_on_c, 0, 70, 69
1, 34363, Control_c, 0, 64, 80
1, 34370, Note_on_c, 0, 66, 48
1, 34378, Control_c, 0, 64, 71
1, 34393, Note_on_c, 0, 63, 44
1, 34393, Control_c, 0, 64, 65
1, 34407, Control_c, 0, 64, 65
1, 34422, Control_c, 0, 64, 66
1, 34437, Control_c, 0, 64, 69
1, 34449, Note_off_c, 0, 66, 48
1, 34451, Control_c, 0, 64, 72
1, 34466, Control_c, 0, 64, 75
1, 34481, Control_c, 0, 64, 78
1, 34486, Note_off_c, 0, 70, 58
1, 34496, Control_c, 0, 64, 81
1, 34511, Control_c, 0, 64, 85
1, 34525, Control_c, 0, 64, 90
1, 34540, Control_c, 0, 64, 95
1, 34555, Control_c, 0, 64, 100
1, 34570, Control_c, 0, 64, 103
1, 34585, Control_c, 0, 64, 106
1, 34597, Note_off_c, 0, 63, 35
1, 34600, Control_c, 0, 64, 110
1, 34615, Control_c, 0, 64, 115
1, 34630, Control_c, 0, 64, 127
1, 34743, Note_on_c, 0, 78, 75
1, 34993, Note_off_c, 0, 39, 35
1, 34993, Note_off_c, 0, 78, 37
1, 35040, Note_on_c, 0, 46, 61
1, 35206, Note_off_c, 0, 46, 57
1, 35292, Note_on_c, 0, 56, 64
1, 35600, Note_on_c, 0, 54, 53
1, 35643, Note_off_c, 0, 56, 35
1, 35649, Note_on_c, 0, 78, 78
1, 35680, Note_on_c, 0, 70, 57
1, 35720, Control_c, 0, 64, 118
1, 35735, Control_c, 0, 64, 110
1, 35742, Note_off_c, 0, 54, 59
1, 35743, Note_on_c, 0, 56, 62
1, 35750, Control_c, 0, 64, 104
1, 35765, Control_c, 0, 64, 98
1, 35779, Control_c, 0, 64, 91
1, 35801, Control_c, 0, 64, 84
1, 35816, Control_c, 0, 64, 78
1, 35831, Control_c, 0, 64, 73
1, 35846, Control_c, 0, 64, 70
1, 35860, Note_off_c, 0, 56, 62
1, 35861, Control_c, 0, 64, 70
1, 35874, Note_on_c, 0, 58, 67
1, 35876, Control_c, 0, 64, 70
1, 35890, Control_c, 0, 64, 72
1, 35905, Control_c, 0, 64, 73
1, 35920, Control_c, 0, 64, 75
1, 35935, Control_c, 0, 64, 77
1, 35950, Control_c, 0, 64, 79
1, 35965, Control_c, 0, 64, 81
1, 35979, Control_c, 0, 64, 83
1, 35994, Control_c, 0, 64, 86
1, 36009, Control_c, 0, 64, 88
1, 36024, Control_c, 0, 64, 91
1, 36039, Control_c, 0, 64, 93
1, 36053, Control_c, 0, 64, 95
1, 36061, Note_off_c, 0, 58, 55
1, 36068, Control_c, 0, 64, 98
1, 36083, Control_c, 0, 64, 100
1, 36097, Control_c, 0, 64, 102
1, 36111, Control_c, 0, 64, 104
1, 36113, Note_on_c, 0, 46, 66
1, 36126, Control_c, 0, 64, 105
1, 36128, Note_off_c, 0, 70, 38
1, 36139, Note_off_c, 0, 78, 30
1, 36141, Control_c, 0, 64, 106
1, 36156, Control_c, 0, 64, 107
1, 36171, Control_c, 0, 64, 108
1, 36186, Control_c, 0, 64, 109
1, 36201, Control_c, 0, 64, 110
1, 36215, Control_c, 0, 64, 110
1, 36300, Note_on_c, 0, 78, 70
1, 36302, Note_off_c, 0, 46, 58
1, 36313, Note_on_c, 0, 70, 56
1, 36324, Note_on_c, 0, 39, 55
1, 36373, Note_off_c, 0, 70, 51
1, 36393, Control_c, 0, 64, 110
1, 36424, Control_c, 0, 64, 108
1, 36434, Note_off_c, 0, 78, 60
1, 36439, Control_c, 0, 64, 105
1, 36454, Control_c, 0, 64, 99
1, 36455, Note_on_c, 0, 80, 67
1, 36468, Control_c, 0, 64, 91
1, 36483, Control_c, 0, 64, 80
1, 36498, Control_c, 0, 64, 72
1, 36505, Note_on_c, 0, 71, 28
1, 36512, Control_c, 0, 64, 68
1, 36527, Control_c, 0, 64, 67
1, 36529, Note_on_c, 0, 78, 81
1, 36549, Control_c, 0, 64, 67
1, 36562, Note_on_c, 0, 70, 51
1, 36564, Control_c, 0, 64, 69
1, 36569, Note_off_c, 0, 71, 52
1, 36579, Control_c, 0, 64, 71
1, 36591, Note_on_c, 0, 46, 62
1, 36591, Note_off_c, 0, 80, 58
1, 36594, Control_c, 0, 64, 74
1, 36606, Note_off_c, 0, 39, 59
1, 36609, Control_c, 0, 64, 77
1, 36624, Control_c, 0, 64, 80
1, 36639, Control_c, 0, 64, 84
1, 36653, Control_c, 0, 64, 88
1, 36668, Control_c, 0, 64, 93
1, 36683, Control_c, 0, 64, 98
1, 36698, Control_c, 0, 64, 102
1, 36713, Control_c, 0, 64, 107
1, 36727, Control_c, 0, 64, 113
1, 36742, Control_c, 0, 64, 124
1, 36757, Control_c, 0, 64, 127
1, 36764, Note_off_c, 0, 78, 54
1, 36773, Note_off_c, 0, 70, 37
1, 36806, Note_off_c, 0, 46, 53
1, 36878, Note_on_c, 0, 56, 57
1, 36899, Note_on_c, 0, 77, 81
1, 36919, Note_on_c, 0, 68, 62
1, 36979, Note_off_c, 0, 68, 60
1, 36996, Note_off_c, 0, 77, 64
1, 37082, Note_on_c, 0, 77, 72
1, 37098, Note_on_c, 0, 68, 55
1, 37099, Note_off_c, 0, 56, 37
1, 37107, Note_on_c, 0, 50, 52
1, 37172, Control_c, 0, 64, 119
1, 37187, Control_c, 0, 64, 113
1, 37202, Control_c, 0, 64, 107
1, 37217, Control_c, 0, 64, 99
1, 37220, Note_off_c, 0, 68, 48
1, 37232, Control_c, 0, 64, 91
1, 37247, Control_c, 0, 64, 82
1, 37262, Control_c, 0, 64, 76
1, 37271, Note_off_c, 0, 77, 61
1, 37277, Note_on_c, 0, 78, 69
1, 37277, Control_c, 0, 64, 71
1, 37299, Control_c, 0, 64, 68
1, 37305, Note_on_c, 0, 59, 44
1, 37329, Control_c, 0, 64, 70
1, 37343, Control_c, 0, 64, 72
1, 37358, Control_c, 0, 64, 75
1, 37363, Note_off_c, 0, 50, 57
1, 37364, Note_on_c, 0, 77, 75
1, 37373, Control_c, 0, 64, 77
1, 37375, Note_on_c, 0, 58, 48
1, 37388, Control_c, 0, 64, 79
1, 37403, Control_c, 0, 64, 81
1, 37406, Note_on_c, 0, 68, 16
1, 37418, Control_c, 0, 64, 84
1, 37432, Control_c, 0, 64, 87
1, 37447, Note_off_c, 0, 78, 36
1, 37447, Control_c, 0, 64, 91
1, 37462, Control_c, 0, 64, 94
1, 37476, Control_c, 0, 64, 96
1, 37482, Note_off_c, 0, 68, 39
1, 37491, Control_c, 0, 64, 98
1, 37498, Note_off_c, 0, 58, 38
1, 37506, Control_c, 0, 64, 101
1, 37521, Control_c, 0, 64, 104
1, 37536, Control_c, 0, 64, 108
1, 37551, Control_c, 0, 64, 110
1, 37566, Control_c, 0, 64, 113
1, 37581, Control_c, 0, 64, 115
1, 37596, Control_c, 0, 64, 117
1, 37610, Control_c, 0, 64, 122
1, 37625, Control_c, 0, 64, 127
1, 37633, Note_off_c, 0, 59, 40
1, 37689, Note_on_c, 0, 46, 49
1, 37708, Note_on_c, 0, 75, 70
1, 37725, Note_off_c, 0, 46, 59
1, 37743, Note_off_c, 0, 77, 57
1, 37747, Note_on_c, 0, 66, 41
1, 37861, Note_off_c, 0, 75, 60
1, 37873, Note_off_c, 0, 66, 42
1, 37981, Note_on_c, 0, 75, 67
1, 37995, Control_c, 0, 64, 119
1, 38011, Control_c, 0, 64, 112
1, 38013, Note_on_c, 0, 66, 46
1, 38019, Note_on_c, 0, 39, 37
1, 38026, Control_c, 0, 64, 107
1, 38048, Control_c, 0, 64, 101
1, 38063, Control_c, 0, 64, 92
1, 38078, Control_c, 0, 64, 82
1, 38092, Control_c, 0, 64, 74
1, 38097, Note_off_c, 0, 66, 0
1, 38097, Note_on_c, 0, 66, 10
1, 38107, Control_c, 0, 64, 66
1, 38122, Control_c, 0, 64, 65
1, 38137, Control_c, 0, 64, 66
1, 38152, Control_c, 0, 64, 69
1, 38166, Control_c, 0, 64, 71
1, 38181, Control_c, 0, 64, 73
1, 38196, Control_c, 0, 64, 76
1, 38211, Control_c, 0, 64, 79
1, 38226, Control_c, 0, 64, 82
1, 38239, Note_off_c, 0, 39, 49
1, 38241, Control_c, 0, 64, 85
1, 38255, Control_c, 0, 64, 89
1, 38270, Control_c, 0, 64, 92
1, 38285, Control_c, 0, 64, 96
1, 38299, Control_c, 0, 64, 99
1, 38314, Control_c, 0, 64, 102
1, 38329, Control_c, 0, 64, 104
1, 38344, Control_c, 0, 64, 107
1, 38359, Control_c, 0, 64, 110
1, 38366, Note_off_c, 0, 66, 44
1, 38374, Control_c, 0, 64, 113
1, 38388, Control_c, 0, 64, 119
1, 38403, Control_c, 0, 64, 126
1, 38409, Note_on_c, 0, 46, 44
1, 38418, Control_c, 0, 64, 127
1, 38457, Note_off_c, 0, 75, 60
1, 38470, Note_on_c, 0, 65, 67
1, 38564, Note_off_c, 0, 46, 39
1, 38669, Note_off_c, 0, 65, 46
1, 38690, Note_on_c, 0, 56, 54
1, 38797, Note_on_c, 0, 63, 72
1, 38859, Note_off_c, 0, 63, 61
1, 38969, Note_on_c, 0, 70, 71
1, 38982, Note_on_c, 0, 63, 44
1, 38987, Note_off_c, 0, 56, 35
1, 39010, Note_on_c, 0, 54, 45
1, 39019, Control_c, 0, 64, 118
1, 39034, Control_c, 0, 64, 113
1, 39049, Control_c, 0, 64, 106
1, 39063, Control_c, 0, 64, 98
1, 39078, Control_c, 0, 64, 90
1, 39092, Note_off_c, 0, 54, 54
1, 39093, Note_on_c, 0, 56, 53
1, 39093, Control_c, 0, 64, 82
1, 39108, Control_c, 0, 64, 74
1, 39122, Control_c, 0, 64, 67
1, 39137, Control_c, 0, 64, 64
1, 39152, Control_c, 0, 64, 64
1, 39167, Control_c, 0, 64, 65
1, 39182, Control_c, 0, 64, 67
1, 39187, Note_off_c, 0, 56, 61
1, 39196, Control_c, 0, 64, 68
1, 39206, Note_on_c, 0, 58, 59
1, 39211, Control_c, 0, 64, 70
1, 39226, Control_c, 0, 64, 72
1, 39241, Control_c, 0, 64, 74
1, 39256, Control_c, 0, 64, 77
1, 39271, Control_c, 0, 64, 79
1, 39286, Control_c, 0, 64, 81
1, 39301, Control_c, 0, 64, 83
1, 39315, Control_c, 0, 64, 85
1, 39330, Control_c, 0, 64, 87
1, 39345, Control_c, 0, 64, 89
1, 39360, Control_c, 0, 64, 90
1, 39373, Note_off_c, 0, 58, 38
1, 39375, Control_c, 0, 64, 91
1, 39389, Control_c, 0, 64, 91
1, 39404, Control_c, 0, 64, 92
1, 39414, Note_on_c, 0, 59, 65
1, 39434, Control_c, 0, 67, 8
1, 39442, Note_on_c, 0, 46, 48
1, 39463, Control_c, 0, 67, 8
1, 39478, Control_c, 0, 67, 9
1, 39493, Control_c, 0, 67, 9
1, 39508, Control_c, 0, 67, 10
1, 39522, Control_c, 0, 67, 11
1, 39545, Control_c, 0, 67, 12
1, 39550, Note_off_c, 0, 59, 48
1, 39560, Control_c, 0, 67, 13
1, 39575, Control_c, 0, 67, 14
1, 39590, Control_c, 0, 67, 15
1, 39604, Control_c, 0, 67, 16
1, 39611, Note_off_c, 0, 46, 29
1, 39620, Control_c, 0, 67, 17
1, 39635, Control_c, 0, 67, 18
1, 39649, Control_c, 0, 67, 19
1, 39664, Control_c, 0, 67, 19
1, 39694, Control_c, 0, 64, 91
1, 39694, Control_c, 0, 67, 20
1, 39708, Note_off_c, 0, 63, 12
1, 39709, Control_c, 0, 64, 90
1, 39709, Control_c, 0, 67, 20
1, 39717, Note_on_c, 0, 39, 39
1, 39724, Control_c, 0, 64, 90
1, 39739, Control_c, 0, 64, 89
1, 39739, Control_c, 0, 67, 21
1, 39753, Control_c, 0, 64, 88
1, 39753, Control_c, 0, 67, 22
1, 39768, Control_c, 0, 64, 87
1, 39768, Control_c, 0, 67, 22
1, 39783, Control_c, 0, 64, 84
1, 39783, Control_c, 0, 67, 23
1, 39798, Control_c, 0, 64, 80
1, 39804, Note_on_c, 0, 58, 57
1, 39812, Control_c, 0, 64, 75
1, 39812, Control_c, 0, 67, 23
1, 39827, Control_c, 0, 64, 71
1, 39842, Control_c, 0, 64, 68
1, 39842, Control_c, 0, 67, 24
1, 39857, Control_c, 0, 64, 67
1, 39857, Control_c, 0, 67, 24
1, 39871, Control_c, 0, 64, 66
1, 39886, Control_c, 0, 64, 65
1, 39886, Control_c, 0, 67, 25
1, 39901, Control_c, 0, 64, 65
1, 39901, Control_c, 0, 67, 26
1, 39916, Control_c, 0, 67, 27
1, 39931, Control_c, 0, 64, 65
1, 39931, Control_c, 0, 67, 28
1, 39945, Control_c, 0, 64, 66
1, 39945, Control_c, 0, 67, 30
1, 39960, Control_c, 0, 64, 68
1, 39960, Control_c, 0, 67, 32
1, 39975, Control_c, 0, 64, 70
1, 39975, Control_c, 0, 67, 33
1, 39990, Control_c, 0, 64, 72
1, 39990, Control_c, 0, 67, 34
1, 40005, Control_c, 0, 64, 75
1, 40005, Control_c, 0, 67, 36
1, 40019, Control_c, 0, 64, 77
1, 40019, Control_c, 0, 67, 37
1, 40034, Note_on_c, 0, 46, 49
1, 40034, Control_c, 0, 64, 79
1, 40034, Control_c, 0, 67, 39
1, 40049, Control_c, 0, 64, 82
1, 40049, Control_c, 0, 67, 40
1, 40064, Control_c, 0, 64, 84
1, 40064, Control_c, 0, 67, 41
1, 40073, Note_off_c, 0, 39, 38
1, 40079, Control_c, 0, 64, 87
1, 40079, Control_c, 0, 67, 42
1, 40094, Control_c, 0, 64, 89
1, 40094, Control_c, 0, 67, 44
1, 40108, Control_c, 0, 64, 91
1, 40108, Control_c, 0, 67, 45
1, 40123, Control_c, 0, 64, 94
1, 40123, Control_c, 0, 67, 46
1, 40138, Control_c, 0, 64, 96
1, 40138, Control_c, 0, 67, 47
1, 40153, Control_c, 0, 64, 98
1, 40153, Control_c, 0, 67, 48
1, 40157, Note_off_c, 0, 58, 61
1, 40168, Control_c, 0, 64, 99
1, 40168, Control_c, 0, 67, 49
1, 40183, Control_c, 0, 64, 100
1, 40183, Control_c, 0, 67, 50
1, 40198, Control_c, 0, 64, 102
1, 40198, Control_c, 0, 67, 52
1, 40212, Control_c, 0, 64, 103
1, 40212, Control_c, 0, 67, 53
1, 40227, Control_c, 0, 64, 104
1, 40227, Control_c, 0, 67, 55
1, 40242, Control_c, 0, 67, 56
1, 40256, Control_c, 0, 64, 105
1, 40256, Control_c, 0, 67, 58
1, 40271, Control_c, 0, 67, 59
1, 40293, Control_c, 0, 64, 105
1, 40293, Control_c, 0, 67, 60
1, 40308, Control_c, 0, 67, 61
1, 40314, Note_on_c, 0, 54, 51
1, 40317, Note_off_c, 0, 70, 35
1, 40323, Control_c, 0, 67, 61
1, 40338, Control_c, 0, 67, 62
1, 40353, Control_c, 0, 67, 63
1, 40368, Control_c, 0, 67, 65
1, 40383, Control_c, 0, 67, 66
1, 40397, Control_c, 0, 67, 67
1, 40412, Control_c, 0, 67, 68
1, 40428, Control_c, 0, 67, 68
1, 40442, Control_c, 0, 67, 69
1, 40457, Control_c, 0, 67, 70
1, 40459, Note_off_c, 0, 46, 37
1, 40472, Control_c, 0, 67, 70
1, 40487, Control_c, 0, 67, 71
1, 40508, Note_off_c, 0, 54, 32
1, 40532, Control_c, 0, 67, 71
1, 40557, Note_on_c, 0, 39, 39
1, 40557, Note_on_c, 0, 68, 44
1, 40563, Note_on_c, 0, 60, 50
1, 40584, Note_off_c, 0, 68, 55
1, 40591, Control_c, 0, 64, 104
1, 40591, Note_on_c, 0, 70, 63
1, 40606, Control_c, 0, 64, 103
1, 40606, Control_c, 0, 67, 72
1, 40621, Control_c, 0, 64, 102
1, 40635, Control_c, 0, 64, 100
1, 40650, Control_c, 0, 64, 99
1, 40650, Control_c, 0, 67, 72
1, 40651, Note_on_c, 0, 68, 55
1, 40665, Control_c, 0, 64, 97
1, 40680, Control_c, 0, 64, 93
1, 40687, Note_off_c, 0, 70, 62
1, 40694, Control_c, 0, 64, 88
1, 40709, Control_c, 0, 64, 82
1, 40724, Control_c, 0, 64, 74
1, 40724, Control_c, 0, 67, 73
1, 40739, Control_c, 0, 64, 67
1, 40754, Control_c, 0, 64, 62
1, 40768, Control_c, 0, 64, 58
1, 40783, Control_c, 0, 64, 60
1, 40798, Control_c, 0, 64, 63
1, 40798, Control_c, 0, 67, 73
1, 40809, Note_off_c, 0, 60, 57
1, 40812, Control_c, 0, 64, 65
1, 40827, Control_c, 0, 64, 67
1, 40842, Control_c, 0, 64, 69
1, 40842, Control_c, 0, 67, 74
1, 40857, Control_c, 0, 64, 71
1, 40857, Control_c, 0, 67, 74
1, 40872, Control_c, 0, 64, 75
1, 40872, Control_c, 0, 67, 76
1, 40886, Control_c, 0, 64, 78
1, 40886, Control_c, 0, 67, 76
1, 40901, Control_c, 0, 64, 81
1, 40901, Control_c, 0, 67, 77
1, 40916, Control_c, 0, 64, 83
1, 40916, Control_c, 0, 67, 78
1, 40931, Control_c, 0, 64, 85
1, 40931, Control_c, 0, 67, 78
1, 40946, Control_c, 0, 64, 88
1, 40961, Control_c, 0, 64, 92
1, 40961, Control_c, 0, 67, 79
1, 40976, Control_c, 0, 64, 95
1, 40991, Control_c, 0, 64, 97
1, 41005, Control_c, 0, 64, 98
1, 41020, Control_c, 0, 64, 100
1, 41042, Control_c, 0, 64, 103
1, 41055, Note_on_c, 0, 44, 44
1, 41057, Control_c, 0, 64, 106
1, 41072, Control_c, 0, 64, 107
1, 41086, Control_c, 0, 64, 108
1, 41096, Note_off_c, 0, 39, 38
1, 41101, Control_c, 0, 64, 108
1, 41139, Note_on_c, 0, 67, 61
1, 41146, Control_c, 0, 64, 109
1, 41161, Note_off_c, 0, 68, 37
1, 41161, Control_c, 0, 64, 110
1, 41176, Control_c, 0, 67, 78
1, 41191, Control_c, 0, 64, 110
1, 41205, Control_c, 0, 67, 78
1, 41236, Control_c, 0, 64, 111
1, 41265, Control_c, 0, 64, 111
1, 41271, Note_on_c, 0, 68, 59
1, 41304, Note_off_c, 0, 67, 35
1, 41310, Control_c, 0, 67, 77
1, 41340, Control_c, 0, 67, 77
1, 41399, Control_c, 0, 64, 112
1, 41399, Control_c, 0, 67, 76
1, 41409, Note_on_c, 0, 72, 63
1, 41426, Note_on_c, 0, 54, 39
1, 41435, Note_off_c, 0, 68, 58
1, 41443, Control_c, 0, 67, 76
1, 41473, Control_c, 0, 67, 75
1, 41488, Control_c, 0, 67, 75
1, 41532, Control_c, 0, 67, 74
1, 41544, Note_on_c, 0, 70, 61
1, 41547, Control_c, 0, 67, 74
1, 41577, Control_c, 0, 67, 73
1, 41606, Control_c, 0, 67, 73
1, 41612, Note_off_c, 0, 72, 39
1, 41680, Control_c, 0, 67, 73
1, 41724, Control_c, 0, 67, 74
1, 41735, Note_off_c, 0, 54, 34
1, 41739, Control_c, 0, 64, 111
1, 41769, Control_c, 0, 64, 110
1, 41769, Control_c, 0, 67, 74
1, 41773, Note_off_c, 0, 44, 40
1, 41791, Control_c, 0, 64, 109
1, 41806, Control_c, 0, 64, 108
1, 41812, Note_on_c, 0, 41, 36
1, 41821, Control_c, 0, 64, 106
1, 41835, Control_c, 0, 64, 104
1, 41850, Control_c, 0, 64, 101
1, 41855, Note_on_c, 0, 68, 58
1, 41865, Control_c, 0, 64, 99
1, 41880, Control_c, 0, 64, 95
1, 41882, Note_on_c, 0, 61, 46
1, 41895, Control_c, 0, 64, 92
1, 41895, Control_c, 0, 67, 75
1, 41908, Note_off_c, 0, 70, 54
1, 41909, Control_c, 0, 64, 89
1, 41924, Control_c, 0, 64, 86
1, 41939, Control_c, 0, 64, 82
1, 41954, Control_c, 0, 64, 78
1, 41954, Control_c, 0, 67, 75
1, 41969, Control_c, 0, 64, 73
1, 41983, Control_c, 0, 64, 68
1, 41983, Control_c, 0, 67, 76
1, 41998, Control_c, 0, 64, 64
1, 42014, Control_c, 0, 64, 60
1, 42029, Control_c, 0, 67, 76
1, 42044, Control_c, 0, 64, 62
1, 42058, Control_c, 0, 64, 63
1, 42073, Control_c, 0, 64, 64
1, 42088, Control_c, 0, 64, 65
1, 42103, Control_c, 0, 64, 68
1, 42118, Control_c, 0, 64, 70
1, 42133, Control_c, 0, 64, 72
1, 42147, Control_c, 0, 64, 75
1, 42162, Control_c, 0, 64, 77
1, 42177, Control_c, 0, 64, 80
1, 42192, Control_c, 0, 64, 83
1, 42207, Control_c, 0, 64, 85
1, 42207, Control_c, 0, 67, 76
1, 42221, Note_off_c, 0, 41, 40
1, 42222, Control_c, 0, 64, 88
1, 42225, Note_on_c, 0, 49, 47
1, 42237, Control_c, 0, 64, 91
1, 42252, Control_c, 0, 64, 94
1, 42266, Control_c, 0, 64, 97
1, 42281, Control_c, 0, 64, 100
1, 42296, Control_c, 0, 64, 103
1, 42296, Control_c, 0, 67, 75
1, 42310, Note_off_c, 0, 49, 45
1, 42311, Control_c, 0, 64, 105
1, 42326, Control_c, 0, 64, 109
1, 42326, Control_c, 0, 67, 75
1, 42340, Control_c, 0, 64, 114
1, 42355, Control_c, 0, 64, 123
1, 42355, Control_c, 0, 67, 74
1, 42370, Control_c, 0, 64, 127
1, 42400, Control_c, 0, 67, 74
1, 42404, Note_off_c, 0, 61, 34
1, 42429, Control_c, 0, 67, 73
1, 42503, Control_c, 0, 67, 73
1, 42599, Control_c, 0, 67, 72
1, 42650, Note_on_c, 0, 73, 62
1, 42688, Control_c, 0, 67, 72
1, 42735, Note_on_c, 0, 61, 25
1, 42747, Control_c, 0, 67, 71
1, 42762, Control_c, 0, 67, 71
1, 42788, Note_off_c, 0, 61, 46
1, 42808, Control_c, 0, 67, 70
1, 42837, Control_c, 0, 67, 70
1, 42842, Note_off_c, 0, 73, 37
1, 42880, Control_c, 0, 67, 69
1, 42910, Control_c, 0, 67, 69
1, 43086, Note_on_c, 0, 73, 61
1, 43113, Note_on_c, 0, 70, 41
1, 43147, Control_c, 0, 64, 122
1, 43152, Note_on_c, 0, 42, 41
1, 43161, Control_c, 0, 64, 113
1, 43176, Control_c, 0, 64, 105
1, 43191, Control_c, 0, 64, 97
1, 43206, Control_c, 0, 64, 89
1, 43221, Control_c, 0, 64, 81
1, 43235, Control_c, 0, 64, 72
1, 43250, Control_c, 0, 64, 66
1, 43265, Control_c, 0, 64, 65
1, 43287, Control_c, 0, 67, 68
1, 43302, Control_c, 0, 64, 66
1, 43317, Control_c, 0, 64, 67
1, 43332, Control_c, 0, 64, 68
1, 43347, Control_c, 0, 64, 69
1, 43361, Control_c, 0, 64, 72
1, 43376, Control_c, 0, 64, 75
1, 43376, Control_c, 0, 67, 68
1, 43391, Control_c, 0, 64, 77
1, 43406, Control_c, 0, 64, 80
1, 43420, Control_c, 0, 64, 82
1, 43420, Control_c, 0, 67, 67
1, 43435, Control_c, 0, 64, 85
1, 43450, Control_c, 0, 64, 88
1, 43462, Note_off_c, 0, 42, 42
1, 43465, Control_c, 0, 64, 91
1, 43465, Control_c, 0, 67, 67
1, 43480, Control_c, 0, 64, 93
1, 43480, Control_c, 0, 67, 66
1, 43483, Note_on_c, 0, 49, 57
1, 43495, Control_c, 0, 64, 95
1, 43510, Control_c, 0, 64, 98
1, 43510, Control_c, 0, 67, 66
1, 43514, Note_off_c, 0, 73, 33
1, 43525, Control_c, 0, 64, 101
1, 43525, Control_c, 0, 67, 65
1, 43539, Control_c, 0, 64, 103
1, 43539, Control_c, 0, 67, 64
1, 43554, Control_c, 0, 64, 106
1, 43554, Control_c, 0, 67, 64
1, 43569, Control_c, 0, 64, 108
1, 43569, Control_c, 0, 67, 63
1, 43584, Control_c, 0, 64, 111
1, 43584, Control_c, 0, 67, 63
1, 43599, Control_c, 0, 64, 115
1, 43599, Control_c, 0, 67, 62
1, 43615, Control_c, 0, 64, 119
1, 43615, Control_c, 0, 67, 61
1, 43629, Control_c, 0, 64, 127
1, 43629, Control_c, 0, 67, 61
1, 43644, Control_c, 0, 67, 60
1, 43659, Control_c, 0, 67, 60
1, 43674, Control_c, 0, 67, 59
1, 43689, Note_off_c, 0, 68, 9
1, 43689, Control_c, 0, 67, 58
1, 43703, Control_c, 0, 67, 57
1, 43718, Note_on_c, 0, 73, 73
1, 43718, Control_c, 0, 67, 57
1, 43733, Control_c, 0, 67, 56
1, 43739, Note_on_c, 0, 61, 54
1, 43748, Control_c, 0, 67, 56
1, 43763, Control_c, 0, 67, 55
1, 43790, Note_off_c, 0, 61, 55
1, 43793, Control_c, 0, 67, 55
1, 43823, Control_c, 0, 67, 54
1, 43837, Control_c, 0, 67, 55
1, 43852, Control_c, 0, 67, 55
1, 43867, Control_c, 0, 67, 56
1, 43871, Note_off_c, 0, 73, 50
1, 43882, Control_c, 0, 67, 57
1, 43897, Control_c, 0, 67, 57
1, 43911, Control_c, 0, 67, 58
1, 43926, Control_c, 0, 67, 59
1, 43941, Control_c, 0, 67, 60
1, 43971, Control_c, 0, 64, 122
1, 43971, Control_c, 0, 67, 60
1, 43980, Note_off_c, 0, 49, 43
1, 43985, Control_c, 0, 64, 117
1, 44000, Control_c, 0, 64, 112
1, 44000, Control_c, 0, 67, 61
1, 44012, Note_on_c, 0, 44, 52
1, 44015, Control_c, 0, 64, 108
1, 44015, Control_c, 0, 67, 61
1, 44037, Control_c, 0, 64, 105
1, 44050, Note_on_c, 0, 73, 74
1, 44052, Control_c, 0, 64, 101
1, 44067, Note_on_c, 0, 65, 55
1, 44067, Control_c, 0, 64, 98
1, 44067, Control_c, 0, 67, 62
1, 44082, Control_c, 0, 64, 95
1, 44097, Control_c, 0, 64, 89
1, 44111, Control_c, 0, 64, 83
1, 44111, Control_c, 0, 67, 61
1, 44126, Control_c, 0, 64, 76
1, 44141, Control_c, 0, 64, 69
1, 44156, Control_c, 0, 64, 64
1, 44156, Control_c, 0, 67, 61
1, 44157, Note_off_c, 0, 70, 35
1, 44171, Control_c, 0, 64, 63
1, 44185, Control_c, 0, 64, 63
1, 44200, Control_c, 0, 64, 64
1, 44215, Control_c, 0, 64, 66
1, 44230, Control_c, 0, 64, 67
1, 44244, Control_c, 0, 64, 70
1, 44244, Control_c, 0, 67, 61
1, 44259, Control_c, 0, 64, 72
1, 44274, Control_c, 0, 64, 75
1, 44274, Control_c, 0, 67, 62
1, 44289, Control_c, 0, 64, 78
1, 44289, Control_c, 0, 67, 62
1, 44304, Note_off_c, 0, 44, 56
1, 44304, Control_c, 0, 64, 81
1, 44310, Note_on_c, 0, 49, 62
1, 44318, Control_c, 0, 64, 83
1, 44318, Control_c, 0, 67, 63
1, 44333, Control_c, 0, 64, 85
1, 44333, Control_c, 0, 67, 63
1, 44348, Control_c, 0, 64, 87
1, 44348, Control_c, 0, 67, 64
1, 44363, Control_c, 0, 64, 90
1, 44363, Control_c, 0, 67, 64
1, 44364, Note_off_c, 0, 73, 51
1, 44378, Control_c, 0, 64, 93
1, 44378, Control_c, 0, 67, 65
1, 44392, Control_c, 0, 64, 96
1, 44408, Control_c, 0, 64, 99
1, 44408, Control_c, 0, 67, 65
1, 44423, Control_c, 0, 64, 101
1, 44438, Control_c, 0, 64, 103
1, 44452, Control_c, 0, 64, 106
1, 44452, Control_c, 0, 67, 66
1, 44467, Control_c, 0, 64, 108
1, 44482, Control_c, 0, 64, 111
1, 44497, Control_c, 0, 64, 113
1, 44512, Control_c, 0, 64, 116
1, 44526, Control_c, 0, 64, 121
1, 44541, Note_off_c, 0, 65, 55
1, 44541, Control_c, 0, 64, 127
1, 44557, Note_on_c, 0, 73, 72
1, 44563, Note_on_c, 0, 61, 51
1, 44586, Control_c, 0, 67, 65
1, 44660, Note_off_c, 0, 73, 61
1, 44679, Note_off_c, 0, 61, 35
1, 44705, Control_c, 0, 67, 65
1, 44734, Control_c, 0, 67, 64
1, 44789, Note_on_c, 0, 73, 66
1, 44796, Note_on_c, 0, 66, 58
1, 44801, Control_c, 0, 67, 64
1, 44815, Note_on_c, 0, 46, 50
1, 44815, Control_c, 0, 67, 63
1, 44830, Note_off_c, 0, 66, 62
1, 44833, Note_off_c, 0, 49, 37
1, 44851, Note_off_c, 0, 73, 62
1, 44859, Note_on_c, 0, 75, 71
1, 44890, Note_off_c, 0, 75, 62
1, 44890, Control_c, 0, 67, 63
1, 44896, Note_on_c, 0, 73, 56
1, 44905, Control_c, 0, 64, 123
1, 44920, Control_c, 0, 64, 105
1, 44920, Control_c, 0, 67, 62
1, 44934, Control_c, 0, 64, 92
1, 44943, Note_off_c, 0, 73, 57
1, 44949, Control_c, 0, 64, 82
1, 44952, Note_on_c, 0, 75, 63
1, 44964, Control_c, 0, 64, 78
1, 44979, Control_c, 0, 64, 78
1, 44993, Control_c, 0, 67, 62
1, 44998, Note_on_c, 0, 73, 60
1, 45001, Note_off_c, 0, 75, 61
1, 45023, Control_c, 0, 64, 78
1, 45038, Control_c, 0, 64, 81
1, 45038, Control_c, 0, 67, 61
1, 45053, Control_c, 0, 64, 86
1, 45053, Control_c, 0, 67, 61
1, 45067, Control_c, 0, 64, 91
1, 45067, Control_c, 0, 67, 60
1, 45082, Control_c, 0, 64, 96
1, 45097, Control_c, 0, 64, 99
1, 45097, Control_c, 0, 67, 60
1, 45112, Control_c, 0, 64, 103
1, 45127, Control_c, 0, 64, 107
1, 45127, Control_c, 0, 67, 59
1, 45134, Note_on_c, 0, 49, 61
1, 45141, Control_c, 0, 64, 117
1, 45141, Control_c, 0, 67, 59
1, 45156, Control_c, 0, 64, 127
1, 45156, Control_c, 0, 67, 58
1, 45164, Note_off_c, 0, 73, 61
1, 45171, Control_c, 0, 67, 58
1, 45177, Note_on_c, 0, 72, 65
1, 45185, Control_c, 0, 67, 57
1, 45200, Control_c, 0, 67, 57
1, 45231, Control_c, 0, 67, 56
1, 45245, Note_off_c, 0, 46, 40
1, 45246, Control_c, 0, 67, 56
1, 45290, Control_c, 0, 67, 55
1, 45292, Note_on_c, 0, 73, 73
1, 45314, Note_off_c, 0, 72, 52
1, 45320, Control_c, 0, 67, 55
1, 45335, Control_c, 0, 67, 54
1, 45364, Control_c, 0, 67, 54
1, 45379, Control_c, 0, 67, 53
1, 45394, Control_c, 0, 67, 53
1, 45409, Control_c, 0, 67, 51
1, 45420, Note_on_c, 0, 61, 56
1, 45423, Note_on_c, 0, 80, 73
1, 45423, Control_c, 0, 67, 49
1, 45431, Note_off_c, 0, 73, 55
1, 45438, Control_c, 0, 67, 47
1, 45453, Control_c, 0, 67, 45
1, 45468, Control_c, 0, 67, 44
1, 45483, Control_c, 0, 67, 42
1, 45487, Note_off_c, 0, 61, 56
1, 45498, Control_c, 0, 67, 40
1, 45513, Control_c, 0, 67, 38
1, 45520, Note_on_c, 0, 78, 73
1, 45524, Note_off_c, 0, 80, 61
1, 45535, Control_c, 0, 67, 37
1, 45550, Control_c, 0, 67, 36
1, 45564, Control_c, 0, 67, 36
1, 45579, Control_c, 0, 67, 35
1, 45594, Note_off_c, 0, 78, 61
1, 45594, Control_c, 0, 67, 35
1, 45608, Control_c, 0, 67, 34
1, 45623, Control_c, 0, 67, 33
1, 45638, Control_c, 0, 67, 32
1, 45652, Note_off_c, 0, 49, 53
1, 45653, Control_c, 0, 67, 30
1, 45668, Control_c, 0, 67, 30
1, 45673, Note_on_c, 0, 44, 55
1, 45683, Control_c, 0, 67, 29
1, 45694, Note_on_c, 0, 78, 68
1, 45698, Control_c, 0, 67, 29
1, 45711, Note_on_c, 0, 68, 41
1, 45713, Control_c, 0, 67, 28
1, 45727, Control_c, 0, 67, 27
1, 45742, Control_c, 0, 67, 26
1, 45757, Control_c, 0, 67, 25
1, 45772, Control_c, 0, 67, 25
1, 45787, Control_c, 0, 64, 118
1, 45787, Control_c, 0, 67, 24
1, 45801, Control_c, 0, 64, 109
1, 45801, Control_c, 0, 67, 24
1, 45816, Control_c, 0, 64, 101
1, 45816, Control_c, 0, 67, 23
1, 45831, Control_c, 0, 64, 95
1, 45831, Control_c, 0, 67, 20
1, 45846, Control_c, 0, 64, 89
1, 45846, Control_c, 0, 67, 16
1, 45861, Control_c, 0, 64, 83
1, 45861, Control_c, 0, 67, 13
1, 45875, Control_c, 0, 64, 78
1, 45875, Control_c, 0, 67, 9
1, 45890, Control_c, 0, 64, 73
1, 45890, Control_c, 0, 67, 0
1, 45905, Control_c, 0, 64, 69
1, 45920, Control_c, 0, 64, 67
1, 45935, Control_c, 0, 64, 68
1, 45950, Control_c, 0, 64, 71
1, 45964, Control_c, 0, 64, 73
1, 45979, Control_c, 0, 64, 76
1, 45984, Note_on_c, 0, 77, 73
1, 45994, Control_c, 0, 64, 78
1, 46001, Note_on_c, 0, 49, 62
1, 46010, Control_c, 0, 64, 81
1, 46014, Note_off_c, 0, 78, 60
1, 46025, Control_c, 0, 64, 84
1, 46026, Note_off_c, 0, 44, 54
1, 46039, Control_c, 0, 64, 87
1, 46054, Control_c, 0, 64, 91
1, 46069, Control_c, 0, 64, 95
1, 46084, Control_c, 0, 64, 99
1, 46099, Control_c, 0, 64, 102
1, 46111, Note_off_c, 0, 68, 57
1, 46113, Control_c, 0, 64, 106
1, 46128, Control_c, 0, 64, 112
1, 46143, Control_c, 0, 64, 127
1, 46197, Note_on_c, 0, 75, 76
1, 46214, Note_on_c, 0, 61, 63
1, 46240, Note_off_c, 0, 61, 65
1, 46243, Note_off_c, 0, 77, 56
1, 46420, Note_off_c, 0, 49, 53
1, 46437, Note_on_c, 0, 77, 73
1, 46437, Note_on_c, 0, 70, 64
1, 46452, Note_on_c, 0, 42, 59
1, 46467, Note_off_c, 0, 75, 60
1, 46550, Control_c, 0, 64, 123
1, 46565, Control_c, 0, 64, 110
1, 46580, Control_c, 0, 64, 104
1, 46595, Control_c, 0, 64, 98
1, 46610, Control_c, 0, 64, 90
1, 46624, Control_c, 0, 64, 82
1, 46634, Note_off_c, 0, 70, 0
1, 46639, Control_c, 0, 64, 74
1, 46654, Control_c, 0, 64, 67
1, 46663, Note_on_c, 0, 70, 21
1, 46665, Note_on_c, 0, 75, 79
1, 46669, Control_c, 0, 64, 64
1, 46681, Note_off_c, 0, 42, 59
1, 46684, Control_c, 0, 64, 65
1, 46687, Note_on_c, 0, 49, 67
1, 46698, Control_c, 0, 64, 67
1, 46713, Control_c, 0, 64, 69
1, 46728, Control_c, 0, 64, 72
1, 46732, Note_off_c, 0, 77, 52
1, 46743, Control_c, 0, 64, 74
1, 46757, Control_c, 0, 64, 79
1, 46772, Note_off_c, 0, 70, 36
1, 46772, Control_c, 0, 64, 83
1, 46787, Control_c, 0, 64, 89
1, 46803, Control_c, 0, 64, 95
1, 46818, Control_c, 0, 64, 101
1, 46833, Control_c, 0, 64, 108
1, 46848, Control_c, 0, 64, 127
1, 46965, Note_on_c, 0, 61, 68
1, 47066, Note_off_c, 0, 61, 57
1, 47082, Note_on_c, 0, 77, 79
1, 47109, Note_off_c, 0, 75, 61
1, 47227, Note_on_c, 0, 73, 76
1, 47242, Note_on_c, 0, 65, 64
1, 47251, Note_on_c, 0, 44, 60
1, 47289, Note_off_c, 0, 49, 49
1, 47299, Control_c, 0, 64, 123
1, 47314, Control_c, 0, 64, 95
1, 47328, Control_c, 0, 64, 78
1, 47343, Control_c, 0, 64, 68
1, 47358, Control_c, 0, 64, 63
1, 47373, Control_c, 0, 64, 63
1, 47388, Control_c, 0, 64, 66
1, 47403, Control_c, 0, 64, 70
1, 47418, Control_c, 0, 64, 75
1, 47433, Control_c, 0, 64, 81
1, 47447, Control_c, 0, 64, 87
1, 47462, Control_c, 0, 64, 95
1, 47477, Note_off_c, 0, 77, 54
1, 47477, Control_c, 0, 64, 103
1, 47492, Control_c, 0, 64, 112
1, 47492, Note_on_c, 0, 49, 76
1, 47494, Note_off_c, 0, 65, 54
1, 47507, Control_c, 0, 64, 127
1, 47526, Note_off_c, 0, 44, 56
1, 47537, Note_off_c, 0, 73, 61
1, 47681, Note_on_c, 0, 73, 75
1, 47695, Note_on_c, 0, 61, 64
1, 47704, Note_off_c, 0, 73, 68
1, 47784, Note_on_c, 0, 73, 67
1, 47808, Note_off_c, 0, 61, 48
1, 47819, Note_off_c, 0, 73, 59
1, 47856, Note_on_c, 0, 75, 76
1, 47918, Note_on_c, 0, 73, 83
1, 47936, Note_on_c, 0, 66, 66
1, 47940, Note_on_c, 0, 46, 61
1, 47968, Note_off_c, 0, 49, 45
1, 47989, Control_c, 0, 64, 113
1, 47999, Note_off_c, 0, 75, 50
1, 48003, Control_c, 0, 64, 98
1, 48018, Control_c, 0, 64, 86
1, 48033, Control_c, 0, 64, 76
1, 48048, Control_c, 0, 64, 67
1, 48063, Control_c, 0, 64, 64
1, 48077, Control_c, 0, 64, 64
1, 48087, Note_off_c, 0, 73, 60
1, 48092, Control_c, 0, 64, 66
1, 48095, Note_on_c, 0, 72, 73
1, 48107, Control_c, 0, 64, 69
1, 48122, Control_c, 0, 64, 74
1, 48137, Note_off_c, 0, 66, 58
1, 48137, Control_c, 0, 64, 79
1, 48151, Control_c, 0, 64, 84
1, 48166, Control_c, 0, 64, 90
1, 48181, Control_c, 0, 64, 97
1, 48196, Control_c, 0, 64, 103
1, 48211, Control_c, 0, 64, 111
1, 48213, Note_on_c, 0, 73, 82
1, 48219, Note_on_c, 0, 49, 69
1, 48220, Note_off_c, 0, 72, 57
1, 48225, Control_c, 0, 64, 127
1, 48274, Note_off_c, 0, 46, 35
1, 48322, Note_on_c, 0, 75, 80
1, 48324, Note_off_c, 0, 73, 59
1, 48421, Note_on_c, 0, 61, 66
1, 48424, Note_off_c, 0, 75, 64
1, 48426, Note_on_c, 0, 77, 80
1, 48528, Note_off_c, 0, 77, 59
1, 48535, Note_on_c, 0, 78, 80
1, 48545, Note_off_c, 0, 61, 55
1, 48609, Note_off_c, 0, 78, 62
1, 48628, Note_on_c, 0, 65, 77
1, 48710, Note_on_c, 0, 73, 82
1, 48715, Note_off_c, 0, 65, 54
1, 48841, Control_c, 0, 64, 109
1, 48856, Control_c, 0, 64, 94
1, 48871, Control_c, 0, 64, 81
1, 48886, Note_on_c, 0, 44, 73
1, 48886, Control_c, 0, 64, 69
1, 48900, Control_c, 0, 64, 61
1, 48908, Note_off_c, 0, 49, 61
1, 48915, Control_c, 0, 64, 57
1, 48930, Control_c, 0, 64, 61
1, 48945, Control_c, 0, 64, 65
1, 48960, Control_c, 0, 64, 69
1, 48974, Control_c, 0, 64, 72
1, 48977, Note_on_c, 0, 80, 89
1, 48989, Control_c, 0, 64, 74
1, 49004, Control_c, 0, 64, 78
1, 49005, Note_off_c, 0, 73, 58
1, 49019, Control_c, 0, 64, 84
1, 49033, Control_c, 0, 64, 91
1, 49048, Note_off_c, 0, 44, 63
1, 49048, Control_c, 0, 64, 98
1, 49063, Control_c, 0, 64, 104
1, 49078, Control_c, 0, 64, 110
1, 49093, Control_c, 0, 64, 123
1, 49108, Control_c, 0, 64, 127
1, 49445, Note_off_c, 0, 80, 60
1, 49457, Note_on_c, 0, 56, 75
1, 49697, Note_on_c, 0, 61, 81
1, 49966, Note_on_c, 0, 68, 64
1, 49998, Note_on_c, 0, 85, 95
1, 50026, Note_on_c, 0, 77, 70
1, 50029, Note_off_c, 0, 61, 56
1, 50147, Note_off_c, 0, 77, 47
1, 50279, Note_on_c, 0, 61, 71
1, 50338, Note_off_c, 0, 85, 61
1, 50372, Note_off_c, 0, 56, 36
1, 50384, Note_off_c, 0, 68, 36
1, 50628, Note_on_c, 0, 56, 59
1, 50638, Note_off_c, 0, 61, 60
1, 50667, Note_off_c, 0, 56, 64
1, 51129, Note_on_c, 0, 84, 74
1, 51132, Control_c, 0, 64, 102
1, 51147, Control_c, 0, 64, 88
1, 51153, Note_on_c, 0, 32, 49
1, 51156, Note_on_c, 0, 75, 57
1, 51162, Control_c, 0, 64, 77
1, 51177, Control_c, 0, 64, 69
1, 51191, Control_c, 0, 64, 67
1, 51206, Control_c, 0, 64, 69
1, 51221, Control_c, 0, 64, 72
1, 51236, Control_c, 0, 64, 77
1, 51251, Control_c, 0, 64, 82
1, 51252, Note_off_c, 0, 32, 62
1, 51266, Control_c, 0, 64, 87
1, 51281, Control_c, 0, 64, 92
1, 51287, Note_off_c, 0, 84, 61
1, 51295, Control_c, 0, 64, 98
1, 51310, Control_c, 0, 64, 104
1, 51321, Note_off_c, 0, 75, 62
1, 51325, Control_c, 0, 64, 114
1, 51339, Control_c, 0, 64, 127
1, 51441, Note_on_c, 0, 80, 73
1, 51469, Note_on_c, 0, 72, 38
1, 51490, Note_off_c, 0, 80, 63
1, 51498, Note_off_c, 0, 72, 55
1, 51595, Note_on_c, 0, 82, 70
1, 51602, Note_on_c, 0, 73, 72
1, 51606, Note_on_c, 0, 44, 61
1, 51636, Note_off_c, 0, 73, 60
1, 51645, Note_off_c, 0, 82, 61
1, 51719, Note_on_c, 0, 78, 74
1, 51725, Note_on_c, 0, 70, 63
1, 51767, Note_off_c, 0, 70, 53
1, 51770, Note_off_c, 0, 78, 58
1, 51837, Note_on_c, 0, 54, 56
1, 51837, Note_on_c, 0, 80, 73
1, 51847, Note_on_c, 0, 72, 59
1, 51876, Note_off_c, 0, 44, 34
1, 51877, Note_off_c, 0, 72, 64
1, 51911, Note_off_c, 0, 80, 61
1, 51956, Note_on_c, 0, 77, 65
1, 51976, Note_on_c, 0, 68, 54
1, 51990, Note_off_c, 0, 77, 62
1, 51998, Note_off_c, 0, 68, 61
1, 52077, Note_off_c, 0, 54, 37
1, 52086, Note_on_c, 0, 78, 65
1, 52088, Note_on_c, 0, 60, 45
1, 52107, Note_on_c, 0, 70, 42
1, 52131, Note_off_c, 0, 70, 58
1, 52148, Note_off_c, 0, 78, 58
1, 52210, Note_on_c, 0, 75, 62
1, 52218, Note_on_c, 0, 66, 63
1, 52249, Note_off_c, 0, 66, 62
1, 52268, Note_off_c, 0, 75, 53
1, 52343, Note_off_c, 0, 60, 35
1, 52348, Control_c, 0, 64, 103
1, 52349, Note_on_c, 0, 77, 64
1, 52363, Control_c, 0, 64, 89
1, 52371, Note_on_c, 0, 68, 51
1, 52377, Control_c, 0, 64, 82
1, 52381, Note_on_c, 0, 54, 48
1, 52392, Control_c, 0, 64, 82
1, 52395, Note_off_c, 0, 77, 61
1, 52396, Note_off_c, 0, 68, 58
1, 52408, Control_c, 0, 64, 82
1, 52423, Control_c, 0, 64, 83
1, 52437, Control_c, 0, 64, 85
1, 52452, Control_c, 0, 64, 86
1, 52467, Control_c, 0, 64, 88
1, 52482, Control_c, 0, 64, 90
1, 52485, Note_on_c, 0, 73, 68
1, 52497, Control_c, 0, 64, 92
1, 52505, Note_on_c, 0, 65, 52
1, 52512, Control_c, 0, 64, 94
1, 52527, Control_c, 0, 64, 95
1, 52535, Note_off_c, 0, 65, 62
1, 52542, Control_c, 0, 64, 95
1, 52554, Note_off_c, 0, 73, 61
1, 52556, Control_c, 0, 64, 96
1, 52571, Control_c, 0, 64, 99
1, 52586, Control_c, 0, 64, 104
1, 52600, Control_c, 0, 64, 106
1, 52624, Note_off_c, 0, 54, 30
1, 52630, Control_c, 0, 64, 105
1, 52645, Control_c, 0, 64, 102
1, 52652, Note_on_c, 0, 75, 63
1, 52658, Note_on_c, 0, 66, 56
1, 52660, Control_c, 0, 64, 96
1, 52674, Control_c, 0, 64, 89
1, 52686, Note_on_c, 0, 44, 48
1, 52689, Control_c, 0, 64, 82
1, 52697, Note_off_c, 0, 66, 62
1, 52704, Control_c, 0, 64, 75
1, 52719, Control_c, 0, 64, 71
1, 52734, Control_c, 0, 64, 70
1, 52748, Control_c, 0, 64, 70
1, 52763, Control_c, 0, 64, 71
1, 52778, Control_c, 0, 64, 73
1, 52792, Control_c, 0, 64, 76
1, 52807, Control_c, 0, 64, 80
1, 52810, Note_on_c, 0, 68, 54
1, 52822, Control_c, 0, 64, 83
1, 52837, Note_on_c, 0, 56, 51
1, 52837, Control_c, 0, 64, 87
1, 52839, Note_off_c, 0, 44, 55
1, 52852, Control_c, 0, 64, 90
1, 52867, Control_c, 0, 64, 92
1, 52875, Note_off_c, 0, 56, 62
1, 52882, Control_c, 0, 64, 95
1, 52890, Note_off_c, 0, 75, 45
1, 52897, Control_c, 0, 64, 98
1, 52911, Control_c, 0, 64, 101
1, 52926, Control_c, 0, 64, 104
1, 52941, Control_c, 0, 64, 105
1, 52971, Control_c, 0, 64, 106
1, 53095, Note_off_c, 0, 68, 0
1, 53113, Note_on_c, 0, 68, 37
1, 53126, Control_c, 0, 64, 105
1, 53144, Note_on_c, 0, 73, 60
1, 53156, Control_c, 0, 64, 104
1, 53171, Note_on_c, 0, 65, 42
1, 53171, Control_c, 0, 64, 102
1, 53186, Control_c, 0, 64, 101
1, 53195, Note_on_c, 0, 37, 42
1, 53201, Control_c, 0, 64, 100
1, 53215, Control_c, 0, 64, 97
1, 53230, Control_c, 0, 64, 94
1, 53245, Control_c, 0, 64, 90
1, 53260, Control_c, 0, 64, 84
1, 53275, Control_c, 0, 64, 77
1, 53290, Control_c, 0, 64, 69
1, 53305, Control_c, 0, 64, 64
1, 53306, Note_off_c, 0, 68, 31
1, 53320, Control_c, 0, 64, 63
1, 53335, Control_c, 0, 64, 63
1, 53350, Control_c, 0, 64, 64
1, 53365, Control_c, 0, 64, 66
1, 53379, Control_c, 0, 64, 68
1, 53394, Control_c, 0, 64, 71
1, 53409, Control_c, 0, 64, 75
1, 53424, Control_c, 0, 64, 79
1, 53439, Control_c, 0, 64, 82
1, 53454, Control_c, 0, 64, 86
1, 53469, Control_c, 0, 64, 89
1, 53484, Control_c, 0, 64, 94
1, 53484, Control_c, 0, 67, 8
1, 53498, Control_c, 0, 64, 98
1, 53498, Control_c, 0, 67, 8
1, 53499, Note_off_c, 0, 37, 41
1, 53513, Control_c, 0, 64, 103
1, 53513, Control_c, 0, 67, 9
1, 53528, Control_c, 0, 64, 106
1, 53543, Control_c, 0, 64, 109
1, 53544, Note_off_c, 0, 65, 38
1, 53558, Control_c, 0, 64, 115
1, 53558, Control_c, 0, 67, 9
1, 53572, Control_c, 0, 64, 127
1, 53587, Control_c, 0, 67, 10
1, 53603, Note_off_c, 0, 73, 31
1, 53631, Control_c, 0, 67, 10
1, 53645, Note_on_c, 0, 44, 51
1, 53661, Control_c, 0, 67, 11
1, 53690, Control_c, 0, 67, 11
1, 53735, Control_c, 0, 67, 12
1, 53802, Control_c, 0, 67, 12
1, 53891, Control_c, 0, 67, 13
1, 53927, Note_on_c, 0, 56, 63
1, 54039, Control_c, 0, 67, 13
1, 54069, Note_off_c, 0, 56, 38
1, 54158, Control_c, 0, 67, 14
1, 54247, Note_on_c, 0, 75, 71
1, 54275, Note_on_c, 0, 66, 52
1, 54333, Note_on_c, 0, 56, 49
1, 54336, Control_c, 0, 64, 118
1, 54351, Control_c, 0, 64, 113
1, 54365, Control_c, 0, 64, 109
1, 54380, Control_c, 0, 64, 104
1, 54386, Note_off_c, 0, 66, 38
1, 54395, Control_c, 0, 64, 98
1, 54410, Control_c, 0, 64, 90
1, 54425, Control_c, 0, 64, 82
1, 54439, Control_c, 0, 64, 74
1, 54440, Note_on_c, 0, 72, 67
1, 54454, Control_c, 0, 64, 67
1, 54454, Control_c, 0, 67, 13
1, 54456, Note_on_c, 0, 63, 52
1, 54469, Control_c, 0, 64, 66
1, 54473, Note_off_c, 0, 75, 57
1, 54484, Control_c, 0, 64, 68
1, 54499, Control_c, 0, 64, 70
1, 54521, Control_c, 0, 64, 73
1, 54536, Control_c, 0, 64, 75
1, 54550, Note_off_c, 0, 63, 47
1, 54551, Control_c, 0, 64, 78
1, 54566, Control_c, 0, 64, 80
1, 54580, Control_c, 0, 64, 82
1, 54584, Note_on_c, 0, 75, 77
1, 54586, Note_on_c, 0, 66, 57
1, 54595, Control_c, 0, 64, 85
1, 54602, Note_off_c, 0, 72, 45
1, 54610, Control_c, 0, 64, 88
1, 54622, Note_off_c, 0, 66, 62
1, 54625, Control_c, 0, 64, 90
1, 54640, Control_c, 0, 64, 93
1, 54654, Control_c, 0, 64, 95
1, 54669, Control_c, 0, 64, 97
1, 54669, Control_c, 0, 67, 14
1, 54684, Control_c, 0, 64, 99
1, 54699, Control_c, 0, 64, 101
1, 54709, Note_on_c, 0, 70, 69
1, 54710, Note_on_c, 0, 61, 67
1, 54714, Control_c, 0, 64, 103
1, 54715, Note_off_c, 0, 75, 57
1, 54728, Control_c, 0, 64, 106
1, 54731, Note_off_c, 0, 44, 43
1, 54743, Control_c, 0, 64, 107
1, 54758, Control_c, 0, 64, 108
1, 54772, Note_off_c, 0, 61, 60
1, 54772, Control_c, 0, 64, 109
1, 54788, Control_c, 0, 64, 110
1, 54803, Control_c, 0, 64, 112
1, 54818, Control_c, 0, 64, 113
1, 54821, Note_off_c, 0, 56, 41
1, 54823, Note_off_c, 0, 70, 54
1, 54830, Note_on_c, 0, 75, 75
1, 54832, Control_c, 0, 64, 115
1, 54847, Control_c, 0, 64, 116
1, 54853, Note_on_c, 0, 44, 48
1, 54861, Control_c, 0, 64, 117
1, 54876, Control_c, 0, 64, 117
1, 54886, Note_off_c, 0, 75, 62
1, 54891, Control_c, 0, 64, 118
1, 54906, Control_c, 0, 67, 13
1, 54950, Control_c, 0, 67, 13
1, 54965, Control_c, 0, 67, 12
1, 54967, Note_on_c, 0, 68, 67
1, 54988, Note_on_c, 0, 56, 52
1, 55010, Control_c, 0, 67, 12
1, 55012, Note_off_c, 0, 56, 60
1, 55025, Control_c, 0, 67, 11
1, 55040, Control_c, 0, 64, 117
1, 55040, Control_c, 0, 67, 11
1, 55043, Note_off_c, 0, 44, 24
1, 55069, Control_c, 0, 67, 10
1, 55114, Control_c, 0, 64, 116
1, 55114, Control_c, 0, 67, 10
1, 55129, Control_c, 0, 64, 114
1, 55143, Control_c, 0, 64, 112
1, 55158, Control_c, 0, 64, 110
1, 55173, Control_c, 0, 64, 107
1, 55187, Control_c, 0, 64, 103
1, 55192, Note_on_c, 0, 73, 66
1, 55202, Control_c, 0, 64, 100
1, 55213, Note_on_c, 0, 65, 50
1, 55217, Control_c, 0, 64, 96
1, 55232, Control_c, 0, 64, 93
1, 55247, Control_c, 0, 64, 89
1, 55247, Control_c, 0, 67, 10
1, 55265, Note_on_c, 0, 37, 43
1, 55269, Control_c, 0, 64, 84
1, 55284, Control_c, 0, 64, 78
1, 55299, Control_c, 0, 64, 71
1, 55314, Control_c, 0, 64, 65
1, 55329, Control_c, 0, 64, 64
1, 55358, Control_c, 0, 64, 64
1, 55373, Control_c, 0, 64, 65
1, 55373, Control_c, 0, 67, 11
1, 55383, Note_off_c, 0, 68, 34
1, 55388, Control_c, 0, 64, 66
1, 55402, Control_c, 0, 64, 68
1, 55402, Control_c, 0, 67, 11
1, 55417, Control_c, 0, 64, 71
1, 55432, Control_c, 0, 64, 74
1, 55432, Control_c, 0, 67, 12
1, 55447, Control_c, 0, 64, 77
1, 55462, Control_c, 0, 64, 79
1, 55476, Control_c, 0, 64, 81
1, 55491, Control_c, 0, 64, 83
1, 55491, Control_c, 0, 67, 12
1, 55501, Note_off_c, 0, 37, 52
1, 55506, Control_c, 0, 64, 86
1, 55516, Note_on_c, 0, 44, 53
1, 55520, Control_c, 0, 64, 89
1, 55531, Note_off_c, 0, 65, 35
1, 55535, Control_c, 0, 64, 92
1, 55535, Control_c, 0, 67, 13
1, 55550, Control_c, 0, 64, 95
1, 55565, Control_c, 0, 64, 97
1, 55579, Control_c, 0, 64, 99
1, 55579, Control_c, 0, 67, 13
1, 55595, Control_c, 0, 64, 101
1, 55610, Control_c, 0, 64, 104
1, 55624, Control_c, 0, 64, 107
1, 55639, Control_c, 0, 64, 110
1, 55639, Control_c, 0, 67, 14
1, 55654, Control_c, 0, 64, 111
1, 55667, Note_off_c, 0, 73, 35
1, 55669, Control_c, 0, 64, 112
1, 55684, Control_c, 0, 64, 114
1, 55699, Control_c, 0, 64, 116
1, 55699, Control_c, 0, 67, 14
1, 55713, Control_c, 0, 64, 119
1, 55728, Control_c, 0, 64, 122
1, 55728, Control_c, 0, 67, 15
1, 55788, Control_c, 0, 67, 15
1, 55824, Note_on_c, 0, 56, 56
1, 55832, Control_c, 0, 67, 16
1, 55847, Control_c, 0, 67, 18
1, 55862, Control_c, 0, 67, 22
1, 55877, Control_c, 0, 67, 25
1, 55891, Control_c, 0, 67, 30
1, 55906, Control_c, 0, 67, 34
1, 55921, Control_c, 0, 67, 37
1, 55935, Control_c, 0, 67, 40
1, 55950, Control_c, 0, 67, 43
1, 55953, Note_off_c, 0, 56, 36
1, 55965, Control_c, 0, 67, 45
1, 55980, Control_c, 0, 67, 48
1, 55995, Control_c, 0, 67, 50
1, 56017, Control_c, 0, 67, 53
1, 56032, Control_c, 0, 67, 55
1, 56047, Control_c, 0, 67, 57
1, 56062, Control_c, 0, 67, 60
1, 56077, Control_c, 0, 64, 121
1, 56077, Control_c, 0, 67, 62
1, 56091, Control_c, 0, 67, 65
1, 56106, Control_c, 0, 64, 120
1, 56106, Control_c, 0, 67, 67
1, 56121, Control_c, 0, 64, 119
1, 56121, Control_c, 0, 67, 70
1, 56136, Control_c, 0, 64, 118
1, 56136, Control_c, 0, 67, 73
1, 56150, Control_c, 0, 64, 117
1, 56150, Control_c, 0, 67, 76
1, 56165, Control_c, 0, 64, 116
1, 56165, Control_c, 0, 67, 79
1, 56180, Control_c, 0, 64, 115
1, 56180, Control_c, 0, 67, 83
1, 56195, Control_c, 0, 64, 115
1, 56195, Control_c, 0, 67, 86
1, 56210, Control_c, 0, 64, 114
1, 56210, Control_c, 0, 67, 89
1, 56224, Control_c, 0, 64, 113
1, 56224, Control_c, 0, 67, 92
1, 56239, Control_c, 0, 64, 113
1, 56239, Control_c, 0, 67, 95
1, 56254, Control_c, 0, 64, 112
1, 56254, Control_c, 0, 67, 99
1, 56269, Control_c, 0, 64, 111
1, 56269, Control_c, 0, 67, 102
1, 56284, Control_c, 0, 64, 110
1, 56284, Control_c, 0, 67, 106
1, 56298, Control_c, 0, 64, 109
1, 56298, Control_c, 0, 67, 109
1, 56313, Control_c, 0, 64, 107
1, 56313, Control_c, 0, 67, 111
1, 56329, Control_c, 0, 64, 105
1, 56329, Control_c, 0, 67, 113
1, 56343, Control_c, 0, 64, 104
1, 56343, Control_c, 0, 67, 115
1, 56354, Note_on_c, 0, 56, 49
1, 56358, Control_c, 0, 64, 103
1, 56358, Control_c, 0, 67, 117
1, 56373, Control_c, 0, 64, 101
1, 56373, Control_c, 0, 67, 119
1, 56389, Control_c, 0, 64, 99
1, 56389, Control_c, 0, 67, 121
1, 56404, Control_c, 0, 64, 97
1, 56404, Control_c, 0, 67, 122
1, 56419, Control_c, 0, 64, 95
1, 56419, Control_c, 0, 67, 123
1, 56421, Note_on_c, 0, 75, 55
1, 56432, Note_on_c, 0, 66, 50
1, 56434, Control_c, 0, 64, 93
1, 56434, Control_c, 0, 67, 124
1, 56448, Control_c, 0, 64, 91
1, 56448, Control_c, 0, 67, 125
1, 56463, Control_c, 0, 64, 89
1, 56463, Control_c, 0, 67, 126
1, 56478, Control_c, 0, 64, 87
1, 56478, Control_c, 0, 67, 127
1, 56493, Control_c, 0, 64, 85
1, 56493, Control_c, 0, 67, 127
1, 56508, Control_c, 0, 64, 83
1, 56522, Control_c, 0, 64, 81
1, 56537, Control_c, 0, 64, 79
1, 56552, Control_c, 0, 64, 76
1, 56566, Control_c, 0, 64, 73
1, 56581, Control_c, 0, 64, 70
1, 56596, Control_c, 0, 64, 68
1, 56611, Control_c, 0, 64, 67
1, 56635, Note_off_c, 0, 66, 37
1, 56641, Control_c, 0, 64, 68
1, 56655, Control_c, 0, 64, 68
1, 56661, Note_off_c, 0, 44, 21
1, 56670, Control_c, 0, 64, 69
1, 56685, Control_c, 0, 64, 70
1, 56686, Note_on_c, 0, 72, 58
1, 56700, Control_c, 0, 64, 71
1, 56704, Note_on_c, 0, 63, 33
1, 56715, Control_c, 0, 64, 74
1, 56727, Note_off_c, 0, 75, 41
1, 56730, Control_c, 0, 64, 76
1, 56745, Control_c, 0, 64, 79
1, 56766, Control_c, 0, 64, 81
1, 56781, Note_off_c, 0, 63, 43
1, 56781, Control_c, 0, 64, 83
1, 56796, Control_c, 0, 64, 84
1, 56811, Control_c, 0, 64, 87
1, 56826, Control_c, 0, 64, 89
1, 56840, Note_on_c, 0, 75, 62
1, 56840, Control_c, 0, 64, 91
1, 56850, Note_on_c, 0, 66, 49
1, 56855, Control_c, 0, 64, 93
1, 56858, Note_off_c, 0, 72, 35
1, 56870, Control_c, 0, 64, 95
1, 56885, Control_c, 0, 64, 97
1, 56886, Note_off_c, 0, 66, 49
1, 56900, Control_c, 0, 64, 99
1, 56915, Control_c, 0, 64, 102
1, 56930, Control_c, 0, 64, 105
1, 56945, Control_c, 0, 64, 109
1, 56959, Control_c, 0, 64, 112
1, 56974, Control_c, 0, 64, 114
1, 56976, Note_on_c, 0, 70, 60
1, 56989, Control_c, 0, 64, 116
1, 56989, Note_off_c, 0, 75, 36
1, 57001, Note_on_c, 0, 61, 45
1, 57004, Control_c, 0, 64, 119
1, 57019, Control_c, 0, 64, 127
1, 57070, Note_off_c, 0, 61, 49
1, 57109, Note_off_c, 0, 56, 41
1, 57118, Note_off_c, 0, 70, 37
1, 57138, Note_on_c, 0, 75, 55
1, 57157, Note_on_c, 0, 44, 38
1, 57172, Note_off_c, 0, 75, 63
1, 57294, Note_on_c, 0, 68, 46
1, 57304, Note_on_c, 0, 56, 46
1, 57317, Note_off_c, 0, 44, 34
1, 57346, Note_off_c, 0, 56, 59
1, 57603, Control_c, 0, 64, 123
1, 57618, Control_c, 0, 64, 119
1, 57633, Control_c, 0, 64, 116
1, 57635, Note_on_c, 0, 73, 54
1, 57648, Control_c, 0, 64, 113
1, 57659, Note_on_c, 0, 65, 40
1, 57663, Control_c, 0, 64, 109
1, 57678, Control_c, 0, 64, 105
1, 57691, Note_on_c, 0, 37, 37
1, 57693, Control_c, 0, 64, 100
1, 57707, Control_c, 0, 64, 96
1, 57722, Control_c, 0, 64, 92
1, 57737, Control_c, 0, 64, 87
1, 57752, Control_c, 0, 64, 83
1, 57767, Control_c, 0, 64, 77
1, 57782, Control_c, 0, 64, 71
1, 57796, Control_c, 0, 64, 66
1, 57806, Note_off_c, 0, 68, 28
1, 57811, Control_c, 0, 64, 64
1, 57826, Control_c, 0, 64, 64
1, 57855, Control_c, 0, 64, 64
1, 57870, Control_c, 0, 64, 65
1, 57885, Control_c, 0, 64, 67
1, 57900, Control_c, 0, 64, 69
1, 57914, Control_c, 0, 64, 71
1, 57929, Control_c, 0, 64, 73
1, 57944, Control_c, 0, 64, 76
1, 57959, Control_c, 0, 64, 78
1, 57974, Control_c, 0, 64, 80
1, 57990, Control_c, 0, 64, 82
1, 58005, Control_c, 0, 64, 85
1, 58019, Control_c, 0, 64, 88
1, 58034, Control_c, 0, 64, 92
1, 58049, Control_c, 0, 64, 95
1, 58056, Note_off_c, 0, 37, 41
1, 58064, Control_c, 0, 64, 98
1, 58079, Control_c, 0, 64, 100
1, 58093, Control_c, 0, 64, 103
1, 58108, Control_c, 0, 64, 107
1, 58123, Control_c, 0, 64, 111
1, 58138, Control_c, 0, 64, 116
1, 58153, Control_c, 0, 64, 122
1, 58167, Control_c, 0, 64, 127
1, 58173, Note_on_c, 0, 44, 42
1, 58199, Note_off_c, 0, 65, 38
1, 58364, Note_off_c, 0, 73, 27
1, 58475, Note_off_c, 0, 44, 36
1, 58516, Note_on_c, 0, 56, 39
1, 58679, Note_on_c, 0, 66, 51
1, 58747, Note_off_c, 0, 66, 41
1, 58837, Note_on_c, 0, 73, 55
1, 58854, Note_on_c, 0, 68, 40
1, 58860, Note_on_c, 0, 65, 52
1, 58887, Control_c, 0, 64, 124
1, 58902, Control_c, 0, 64, 117
1, 58916, Control_c, 0, 64, 110
1, 58931, Control_c, 0, 64, 104
1, 58946, Control_c, 0, 64, 98
1, 58960, Control_c, 0, 64, 92
1, 58975, Control_c, 0, 64, 85
1, 58990, Control_c, 0, 64, 79
1, 59013, Control_c, 0, 64, 73
1, 59028, Control_c, 0, 64, 67
1, 59042, Control_c, 0, 64, 66
1, 59072, Control_c, 0, 64, 67
1, 59087, Control_c, 0, 64, 69
1, 59102, Control_c, 0, 64, 70
1, 59116, Control_c, 0, 64, 72
1, 59131, Control_c, 0, 64, 74
1, 59146, Control_c, 0, 64, 76
1, 59160, Control_c, 0, 64, 78
1, 59175, Control_c, 0, 64, 80
1, 59190, Control_c, 0, 64, 83
1, 59197, Note_off_c, 0, 56, 44
1, 59205, Control_c, 0, 64, 85
1, 59214, Note_on_c, 0, 44, 46
1, 59220, Control_c, 0, 64, 88
1, 59234, Control_c, 0, 64, 91
1, 59249, Control_c, 0, 64, 94
1, 59264, Control_c, 0, 64, 97
1, 59264, Control_c, 0, 67, 126
1, 59279, Control_c, 0, 64, 99
1, 59279, Control_c, 0, 67, 124
1, 59294, Control_c, 0, 64, 102
1, 59294, Control_c, 0, 67, 122
1, 59308, Control_c, 0, 64, 106
1, 59308, Control_c, 0, 67, 121
1, 59324, Control_c, 0, 64, 111
1, 59324, Control_c, 0, 67, 120
1, 59334, Note_off_c, 0, 73, 29
1, 59339, Control_c, 0, 64, 117
1, 59339, Control_c, 0, 67, 119
1, 59354, Control_c, 0, 64, 122
1, 59354, Control_c, 0, 67, 118
1, 59368, Control_c, 0, 64, 126
1, 59368, Control_c, 0, 67, 117
1, 59383, Control_c, 0, 67, 116
1, 59398, Control_c, 0, 67, 115
1, 59407, Note_off_c, 0, 68, 21
1, 59411, Note_off_c, 0, 65, 51
1, 59413, Control_c, 0, 67, 114
1, 59428, Control_c, 0, 64, 127
1, 59428, Control_c, 0, 67, 114
1, 59443, Control_c, 0, 67, 113
1, 59458, Control_c, 0, 67, 113
1, 59472, Control_c, 0, 67, 112
1, 59487, Control_c, 0, 64, 126
1, 59490, Note_on_c, 0, 37, 47
1, 59490, Note_off_c, 0, 44, 37
1, 59502, Control_c, 0, 67, 111
1, 59517, Control_c, 0, 67, 111
1, 59532, Control_c, 0, 67, 110
1, 59547, Control_c, 0, 67, 110
1, 59577, Control_c, 0, 67, 109
1, 59589, Note_on_c, 0, 66, 60
1, 59621, Control_c, 0, 64, 123
1, 59636, Control_c, 0, 64, 119
1, 59638, Note_off_c, 0, 66, 0
1, 59651, Control_c, 0, 64, 117
1, 59651, Control_c, 0, 67, 109
1, 59666, Control_c, 0, 64, 114
1, 59677, Poly_aftertouch_c, 0, 66, 0
1, 59681, Control_c, 0, 64, 110
1, 59690, Note_on_c, 0, 65, 61
1, 59693, Note_on_c, 0, 73, 63
1, 59696, Control_c, 0, 64, 107
1, 59701, Note_on_c, 0, 68, 48
1, 59711, Control_c, 0, 64, 104
1, 59711, Control_c, 0, 67, 108
1, 59725, Control_c, 0, 64, 101
1, 59740, Control_c, 0, 64, 97
1, 59762, Control_c, 0, 64, 92
1, 59762, Control_c, 0, 67, 108
1, 59777, Control_c, 0, 64, 84
1, 59777, Control_c, 0, 67, 107
1, 59791, Control_c, 0, 64, 75
1, 59806, Control_c, 0, 64, 68
1, 59806, Control_c, 0, 67, 107
1, 59821, Control_c, 0, 64, 64
1, 59821, Control_c, 0, 67, 106
1, 59836, Control_c, 0, 64, 64
1, 59836, Control_c, 0, 67, 105
1, 59851, Control_c, 0, 64, 65
1, 59851, Control_c, 0, 67, 104
1, 59866, Control_c, 0, 64, 68
1, 59866, Control_c, 0, 67, 102
1, 59881, Control_c, 0, 64, 71
1, 59881, Control_c, 0, 67, 102
1, 59896, Control_c, 0, 64, 73
1, 59896, Control_c, 0, 67, 101
1, 59911, Control_c, 0, 64, 75
1, 59911, Control_c, 0, 67, 101
1, 59926, Control_c, 0, 64, 77
1, 59926, Control_c, 0, 67, 100
1, 59940, Control_c, 0, 64, 80
1, 59940, Control_c, 0, 67, 99
1, 59951, Note_off_c, 0, 37, 54
1, 59955, Control_c, 0, 64, 83
1, 59955, Control_c, 0, 67, 98
1, 59963, Note_on_c, 0, 44, 58
1, 59970, Control_c, 0, 64, 87
1, 59970, Control_c, 0, 67, 97
1, 59984, Control_c, 0, 64, 91
1, 59984, Control_c, 0, 67, 96
1, 59999, Control_c, 0, 64, 94
1, 59999, Control_c, 0, 67, 95
1, 60014, Control_c, 0, 64, 98
1, 60014, Control_c, 0, 67, 95
1, 60029, Control_c, 0, 64, 102
1, 60029, Control_c, 0, 67, 94
1, 60044, Control_c, 0, 64, 106
1, 60044, Control_c, 0, 67, 94
1, 60058, Control_c, 0, 64, 110
1, 60058, Control_c, 0, 67, 93
1, 60073, Control_c, 0, 64, 114
1, 60073, Control_c, 0, 67, 92
1, 60088, Control_c, 0, 64, 119
1, 60088, Control_c, 0, 67, 91
1, 60103, Control_c, 0, 64, 124
1, 60103, Control_c, 0, 67, 90
1, 60117, Control_c, 0, 64, 127
1, 60117, Control_c, 0, 67, 90
1, 60132, Control_c, 0, 67, 89
1, 60147, Control_c, 0, 67, 88
1, 60149, Note_off_c, 0, 73, 31
1, 60162, Control_c, 0, 67, 87
1, 60167, Note_off_c, 0, 65, 56
1, 60177, Control_c, 0, 67, 86
1, 60182, Note_off_c, 0, 68, 37
1, 60191, Control_c, 0, 67, 85
1, 60206, Control_c, 0, 67, 84
1, 60221, Control_c, 0, 67, 83
1, 60230, Note_on_c, 0, 56, 58
1, 60236, Control_c, 0, 67, 82
1, 60251, Control_c, 0, 67, 81
1, 60265, Control_c, 0, 67, 81
1, 60280, Control_c, 0, 67, 80
1, 60295, Control_c, 0, 67, 80
1, 60322, Note_off_c, 0, 44, 34
1, 60325, Control_c, 0, 64, 126
1, 60325, Note_on_c, 0, 66, 67
1, 60340, Control_c, 0, 64, 122
1, 60355, Control_c, 0, 64, 119
1, 60370, Control_c, 0, 64, 117
1, 60382, Note_off_c, 0, 66, 43
1, 60385, Control_c, 0, 64, 115
1, 60399, Control_c, 0, 64, 113
1, 60414, Control_c, 0, 64, 110
1, 60429, Control_c, 0, 64, 107
1, 60444, Control_c, 0, 64, 103
1, 60448, Note_on_c, 0, 73, 60
1, 60455, Note_on_c, 0, 68, 52
1, 60458, Note_on_c, 0, 65, 55
1, 60459, Control_c, 0, 64, 99
1, 60474, Control_c, 0, 64, 97
1, 60489, Control_c, 0, 64, 95
1, 60489, Control_c, 0, 67, 80
1, 60511, Control_c, 0, 64, 92
1, 60526, Control_c, 0, 64, 90
1, 60526, Control_c, 0, 67, 81
1, 60540, Control_c, 0, 64, 86
1, 60540, Control_c, 0, 67, 81
1, 60555, Control_c, 0, 64, 80
1, 60570, Control_c, 0, 64, 74
1, 60570, Control_c, 0, 67, 82
1, 60585, Control_c, 0, 64, 68
1, 60600, Control_c, 0, 64, 64
1, 60600, Control_c, 0, 67, 82
1, 60614, Control_c, 0, 64, 64
1, 60629, Control_c, 0, 64, 65
1, 60629, Control_c, 0, 67, 83
1, 60644, Control_c, 0, 64, 66
1, 60644, Control_c, 0, 67, 83
1, 60659, Control_c, 0, 64, 67
1, 60659, Control_c, 0, 67, 84
1, 60674, Control_c, 0, 64, 68
1, 60689, Control_c, 0, 64, 70
1, 60689, Control_c, 0, 67, 84
1, 60704, Control_c, 0, 64, 72
1, 60718, Control_c, 0, 64, 75
1, 60718, Control_c, 0, 67, 85
1, 60733, Control_c, 0, 64, 77
1, 60733, Control_c, 0, 67, 85
1, 60739, Note_off_c, 0, 56, 50
1, 60748, Control_c, 0, 64, 79
1, 60752, Note_on_c, 0, 44, 46
1, 60763, Control_c, 0, 64, 81
1, 60763, Control_c, 0, 67, 86
1, 60778, Control_c, 0, 64, 83
1, 60793, Control_c, 0, 64, 85
1, 60793, Control_c, 0, 67, 86
1, 60807, Control_c, 0, 64, 88
1, 60807, Control_c, 0, 67, 87
1, 60822, Control_c, 0, 64, 92
1, 60822, Control_c, 0, 67, 88
1, 60837, Control_c, 0, 64, 94
1, 60837, Control_c, 0, 67, 88
1, 60852, Control_c, 0, 64, 96
1, 60867, Control_c, 0, 64, 97
1, 60867, Control_c, 0, 67, 89
1, 60881, Control_c, 0, 64, 98
1, 60881, Control_c, 0, 67, 89
1, 60896, Control_c, 0, 64, 99
1, 60896, Control_c, 0, 67, 90
1, 60911, Control_c, 0, 67, 90
1, 60926, Control_c, 0, 67, 91
1, 60940, Control_c, 0, 67, 92
1, 60955, Control_c, 0, 67, 92
1, 60970, Control_c, 0, 67, 93
1, 60985, Control_c, 0, 67, 95
1, 61000, Control_c, 0, 67, 96
1, 61014, Control_c, 0, 67, 98
1, 61029, Control_c, 0, 67, 99
1, 61044, Control_c, 0, 67, 101
1, 61059, Control_c, 0, 67, 103
1, 61066, Note_off_c, 0, 68, 17
1, 61074, Control_c, 0, 67, 105
1, 61088, Control_c, 0, 67, 107
1, 61103, Control_c, 0, 67, 109
1, 61106, Note_off_c, 0, 73, 29
1, 61118, Control_c, 0, 67, 110
1, 61133, Control_c, 0, 67, 112
1, 61148, Control_c, 0, 67, 114
1, 61163, Control_c, 0, 67, 115
1, 61177, Control_c, 0, 67, 117
1, 61186, Note_off_c, 0, 65, 40
1, 61188, Note_on_c, 0, 37, 34
1, 61193, Control_c, 0, 67, 118
1, 61208, Control_c, 0, 67, 120
1, 61223, Control_c, 0, 67, 122
1, 61237, Control_c, 0, 67, 123
1, 61260, Control_c, 0, 67, 125
1, 61275, Control_c, 0, 67, 126
1, 61290, Control_c, 0, 67, 127
1, 61347, Note_on_c, 0, 66, 46
1, 61733, Note_off_c, 0, 66, 61
1, 61822, Control_c, 0, 64, 98
1, 61836, Control_c, 0, 64, 98
1, 61851, Control_c, 0, 64, 97
1, 61853, Note_on_c, 0, 73, 42
1, 61865, Note_on_c, 0, 68, 37
1, 61866, Control_c, 0, 64, 97
1, 61867, Note_on_c, 0, 64, 38
1, 61881, Control_c, 0, 64, 96
1, 61896, Control_c, 0, 64, 95
1, 61901, Note_off_c, 0, 44, 23
1, 61911, Control_c, 0, 64, 93
1, 61926, Control_c, 0, 64, 91
1, 61941, Control_c, 0, 64, 89
1, 61955, Control_c, 0, 64, 86
1, 61970, Control_c, 0, 64, 83
1, 61985, Control_c, 0, 64, 80
1, 62008, Control_c, 0, 64, 77
1, 62023, Control_c, 0, 64, 74
1, 62038, Control_c, 0, 64, 72
1, 62053, Control_c, 0, 64, 70
1, 62067, Control_c, 0, 64, 69
1, 62082, Control_c, 0, 64, 68
1, 62097, Control_c, 0, 64, 67
1, 62156, Control_c, 0, 64, 68
1, 62171, Control_c, 0, 64, 69
1, 62185, Control_c, 0, 64, 70
1, 62200, Control_c, 0, 64, 72
1, 62215, Control_c, 0, 64, 74
1, 62230, Control_c, 0, 64, 76
1, 62245, Control_c, 0, 64, 78
1, 62260, Control_c, 0, 64, 80
1, 62274, Control_c, 0, 64, 82
1, 62289, Control_c, 0, 64, 85
1, 62304, Control_c, 0, 64, 87
1, 62316, Note_off_c, 0, 68, 40
1, 62318, Note_off_c, 0, 37, 43
1, 62319, Control_c, 0, 64, 90
1, 62334, Control_c, 0, 64, 92
1, 62349, Control_c, 0, 64, 95
1, 62364, Control_c, 0, 64, 98
1, 62379, Control_c, 0, 64, 102
1, 62394, Control_c, 0, 64, 105
1, 62409, Control_c, 0, 64, 109
1, 62424, Control_c, 0, 64, 114
1, 62438, Control_c, 0, 64, 127
1, 62450, Note_off_c, 0, 73, 42
1, 62453, Note_on_c, 0, 44, 43
1, 62591, Note_off_c, 0, 64, 35
1, 62842, Note_off_c, 0, 44, 30
1, 62908, Note_on_c, 0, 56, 36
1, 62995, Control_c, 0, 67, 126
1, 63009, Control_c, 0, 67, 125
1, 63024, Control_c, 0, 67, 124
1, 63039, Control_c, 0, 67, 123
1, 63054, Control_c, 0, 67, 122
1, 63069, Control_c, 0, 67, 121
1, 63083, Control_c, 0, 67, 119
1, 63098, Control_c, 0, 67, 119
1, 63113, Control_c, 0, 67, 118
1, 63127, Control_c, 0, 67, 118
1, 63142, Control_c, 0, 67, 117
1, 63153, Note_on_c, 0, 73, 62
1, 63157, Note_off_c, 0, 56, 43
1, 63157, Control_c, 0, 67, 117
1, 63172, Control_c, 0, 67, 116
1, 63175, Note_on_c, 0, 68, 36
1, 63185, Note_on_c, 0, 64, 41
1, 63187, Control_c, 0, 67, 116
1, 63202, Control_c, 0, 67, 115
1, 63216, Control_c, 0, 67, 115
1, 63231, Control_c, 0, 67, 114
1, 63246, Control_c, 0, 67, 113
1, 63261, Control_c, 0, 67, 111
1, 63276, Control_c, 0, 67, 110
1, 63291, Control_c, 0, 67, 109
1, 63306, Control_c, 0, 67, 107
1, 63320, Control_c, 0, 67, 106
1, 63335, Control_c, 0, 67, 104
1, 63338, Note_off_c, 0, 64, 41
1, 63350, Control_c, 0, 67, 103
1, 63365, Control_c, 0, 67, 101
1, 63380, Control_c, 0, 67, 99
1, 63394, Control_c, 0, 67, 98
1, 63398, Note_off_c, 0, 73, 55
1, 63409, Control_c, 0, 67, 97
1, 63424, Control_c, 0, 67, 95
1, 63439, Control_c, 0, 67, 94
1, 63454, Control_c, 0, 67, 93
1, 63468, Control_c, 0, 67, 91
1, 63470, Note_on_c, 0, 44, 47
1, 63483, Control_c, 0, 67, 90
1, 63506, Control_c, 0, 67, 89
1, 63520, Control_c, 0, 67, 88
1, 63535, Control_c, 0, 67, 87
1, 63545, Note_off_c, 0, 68, 37
1, 63550, Control_c, 0, 67, 86
1, 63565, Control_c, 0, 67, 85
1, 63568, Note_on_c, 0, 75, 61
1, 63571, Note_on_c, 0, 66, 58
1, 63580, Control_c, 0, 67, 84
1, 63595, Control_c, 0, 67, 83
1, 63610, Control_c, 0, 67, 82
1, 63617, Note_off_c, 0, 66, 54
1, 63625, Control_c, 0, 67, 81
1, 63640, Control_c, 0, 67, 80
1, 63655, Control_c, 0, 67, 80
1, 63660, Note_off_c, 0, 44, 35
1, 63670, Control_c, 0, 67, 79
1, 63684, Control_c, 0, 67, 78
1, 63699, Control_c, 0, 67, 77
1, 63714, Note_on_c, 0, 37, 52
1, 63714, Control_c, 0, 67, 77
1, 63716, Note_on_c, 0, 76, 69
1, 63720, Note_on_c, 0, 68, 61
1, 63729, Control_c, 0, 67, 76
1, 63744, Control_c, 0, 67, 75
1, 63758, Control_c, 0, 67, 74
1, 63766, Note_off_c, 0, 75, 19
1, 63773, Control_c, 0, 67, 73
1, 63777, Note_off_c, 0, 68, 60
1, 63786, Note_off_c, 0, 76, 60
1, 63788, Control_c, 0, 67, 72
1, 63803, Control_c, 0, 67, 72
1, 63818, Control_c, 0, 67, 70
1, 63832, Control_c, 0, 67, 69
1, 63847, Control_c, 0, 67, 68
1, 63862, Control_c, 0, 67, 67
1, 63877, Control_c, 0, 67, 67
1, 63892, Control_c, 0, 67, 66
1, 63906, Control_c, 0, 67, 66
1, 64054, Control_c, 0, 67, 66
1, 64093, Note_on_c, 0, 68, 69
1, 64109, Note_on_c, 0, 64, 53
1, 64114, Control_c, 0, 67, 67
1, 64127, Note_on_c, 0, 59, 47
1, 64158, Control_c, 0, 64, 114
1, 64173, Control_c, 0, 64, 107
1, 64188, Control_c, 0, 64, 101
1, 64203, Control_c, 0, 64, 94
1, 64217, Control_c, 0, 64, 87
1, 64232, Control_c, 0, 64, 81
1, 64254, Control_c, 0, 64, 74
1, 64269, Control_c, 0, 64, 71
1, 64284, Control_c, 0, 64, 72
1, 64298, Control_c, 0, 64, 73
1, 64313, Control_c, 0, 64, 73
1, 64328, Control_c, 0, 64, 75
1, 64343, Control_c, 0, 64, 78
1, 64358, Control_c, 0, 64, 81
1, 64373, Control_c, 0, 64, 85
1, 64373, Control_c, 0, 67, 66
1, 64374, Note_on_c, 0, 44, 67
1, 64388, Control_c, 0, 64, 89
1, 64398, Note_off_c, 0, 37, 41
1, 64403, Control_c, 0, 64, 92
1, 64418, Control_c, 0, 64, 94
1, 64433, Control_c, 0, 64, 97
1, 64433, Control_c, 0, 67, 66
1, 64448, Control_c, 0, 64, 102
1, 64462, Control_c, 0, 64, 107
1, 64477, Control_c, 0, 64, 113
1, 64492, Control_c, 0, 64, 123
1, 64507, Control_c, 0, 64, 127
1, 64507, Control_c, 0, 67, 65
1, 64520, Note_off_c, 0, 64, 35
1, 64540, Note_off_c, 0, 44, 61
1, 64588, Note_off_c, 0, 59, 39
1, 64630, Note_on_c, 0, 56, 67
1, 64685, Note_off_c, 0, 68, 51
1, 64714, Control_c, 0, 67, 66
1, 64744, Control_c, 0, 67, 66
1, 64788, Control_c, 0, 67, 67
1, 64803, Control_c, 0, 67, 67
1, 64877, Control_c, 0, 67, 68
1, 64892, Note_on_c, 0, 54, 72
1, 64922, Control_c, 0, 64, 126
1, 64936, Control_c, 0, 64, 105
1, 64951, Control_c, 0, 64, 94
1, 64966, Note_on_c, 0, 68, 51
1, 64966, Control_c, 0, 64, 84
1, 64981, Control_c, 0, 64, 77
1, 65002, Note_off_c, 0, 56, 39
1, 65003, Control_c, 0, 64, 72
1, 65014, Note_on_c, 0, 64, 5
1, 65018, Control_c, 0, 64, 71
1, 65033, Control_c, 0, 64, 73
1, 65048, Control_c, 0, 64, 76
1, 65062, Control_c, 0, 64, 80
1, 65070, Note_off_c, 0, 64, 45
1, 65076, Note_on_c, 0, 70, 56
1, 65077, Control_c, 0, 64, 84
1, 65092, Control_c, 0, 64, 87
1, 65092, Control_c, 0, 67, 67
1, 65106, Control_c, 0, 64, 91
1, 65108, Note_off_c, 0, 68, 38
1, 65121, Control_c, 0, 64, 95
1, 65136, Note_off_c, 0, 54, 64
1, 65136, Control_c, 0, 64, 98
1, 65151, Note_off_c, 0, 70, 63
1, 65151, Control_c, 0, 64, 103
1, 65151, Control_c, 0, 67, 67
1, 65166, Control_c, 0, 64, 107
1, 65166, Control_c, 0, 67, 66
1, 65170, Note_on_c, 0, 71, 58
1, 65182, Control_c, 0, 64, 113
1, 65196, Control_c, 0, 64, 121
1, 65211, Control_c, 0, 64, 127
1, 65235, Note_off_c, 0, 71, 63
1, 65239, Note_on_c, 0, 70, 60
1, 65305, Note_off_c, 0, 70, 64
1, 65318, Note_on_c, 0, 71, 67
1, 65324, Note_on_c, 0, 42, 75
1, 65370, Note_off_c, 0, 71, 64
1, 65375, Note_on_c, 0, 70, 64
1, 65418, Note_off_c, 0, 70, 59
1, 65430, Note_on_c, 0, 71, 67
1, 65481, Note_off_c, 0, 71, 66
1, 65490, Note_on_c, 0, 70, 68
1, 65542, Note_off_c, 0, 70, 60
1, 65542, Note_on_c, 0, 71, 73
1, 65577, Note_on_c, 0, 30, 77
1, 65581, Control_c, 0, 67, 66
1, 65617, Note_on_c, 0, 70, 68
1, 65617, Note_off_c, 0, 71, 63
1, 65640, Control_c, 0, 67, 65
1, 65664, Note_off_c, 0, 30, 61
1, 65666, Note_off_c, 0, 70, 65
1, 65688, Note_on_c, 0, 68, 77
1, 65747, Note_off_c, 0, 68, 54
1, 65751, Control_c, 0, 67, 65
1, 65768, Note_on_c, 0, 70, 73
1, 65796, Control_c, 0, 67, 64
1, 65825, Control_c, 0, 67, 64
1, 65855, Control_c, 0, 67, 61
1, 65870, Control_c, 0, 67, 58
1, 65884, Control_c, 0, 67, 56
1, 65899, Control_c, 0, 67, 54
1, 65914, Control_c, 0, 67, 53
1, 65929, Control_c, 0, 67, 52
1, 65944, Control_c, 0, 67, 52
1, 65959, Control_c, 0, 67, 51
1, 65974, Control_c, 0, 67, 51
1, 65982, Note_on_c, 0, 35, 56
1, 65989, Control_c, 0, 67, 50
1, 66015, Note_on_c, 0, 71, 70
1, 66018, Control_c, 0, 67, 50
1, 66033, Control_c, 0, 64, 121
1, 66041, Note_on_c, 0, 63, 52
1, 66048, Control_c, 0, 64, 111
1, 66064, Control_c, 0, 64, 104
1, 66064, Control_c, 0, 67, 49
1, 66077, Note_off_c, 0, 70, 53
1, 66079, Control_c, 0, 64, 100
1, 66093, Control_c, 0, 64, 96
1, 66108, Note_off_c, 0, 42, 35
1, 66108, Control_c, 0, 64, 92
1, 66123, Control_c, 0, 64, 86
1, 66123, Control_c, 0, 67, 49
1, 66138, Control_c, 0, 64, 80
1, 66138, Control_c, 0, 67, 48
1, 66153, Control_c, 0, 64, 72
1, 66153, Control_c, 0, 67, 48
1, 66168, Control_c, 0, 64, 67
1, 66168, Control_c, 0, 67, 46
1, 66182, Control_c, 0, 64, 65
1, 66182, Control_c, 0, 67, 45
1, 66197, Control_c, 0, 64, 66
1, 66197, Control_c, 0, 67, 45
1, 66212, Control_c, 0, 64, 68
1, 66212, Control_c, 0, 67, 44
1, 66227, Control_c, 0, 64, 70
1, 66227, Control_c, 0, 67, 43
1, 66242, Control_c, 0, 64, 72
1, 66242, Control_c, 0, 67, 42
1, 66257, Control_c, 0, 64, 74
1, 66257, Control_c, 0, 67, 42
1, 66272, Control_c, 0, 64, 77
1, 66272, Control_c, 0, 67, 41
1, 66287, Control_c, 0, 64, 80
1, 66287, Control_c, 0, 67, 40
1, 66301, Control_c, 0, 64, 84
1, 66301, Control_c, 0, 67, 38
1, 66316, Control_c, 0, 64, 88
1, 66316, Control_c, 0, 67, 38
1, 66331, Control_c, 0, 64, 91
1, 66331, Control_c, 0, 67, 37
1, 66345, Control_c, 0, 64, 96
1, 66345, Control_c, 0, 67, 36
1, 66360, Control_c, 0, 64, 99
1, 66360, Control_c, 0, 67, 35
1, 66375, Control_c, 0, 64, 101
1, 66375, Control_c, 0, 67, 34
1, 66390, Control_c, 0, 64, 104
1, 66390, Control_c, 0, 67, 34
1, 66401, Note_off_c, 0, 35, 34
1, 66402, Note_on_c, 0, 42, 71
1, 66405, Control_c, 0, 64, 109
1, 66405, Control_c, 0, 67, 33
1, 66419, Control_c, 0, 64, 118
1, 66419, Control_c, 0, 67, 32
1, 66430, Note_off_c, 0, 71, 59
1, 66434, Control_c, 0, 64, 127
1, 66434, Control_c, 0, 67, 32
1, 66449, Control_c, 0, 67, 31
1, 66464, Control_c, 0, 67, 30
1, 66501, Control_c, 0, 67, 30
1, 66546, Control_c, 0, 67, 29
1, 66590, Control_c, 0, 67, 29
1, 66620, Control_c, 0, 67, 28
1, 66649, Control_c, 0, 67, 28
1, 66665, Note_on_c, 0, 54, 75
1, 66767, Control_c, 0, 67, 28
1, 66769, Note_off_c, 0, 54, 61
1, 66798, Control_c, 0, 67, 29
1, 66804, Note_off_c, 0, 63, 22
1, 66813, Control_c, 0, 67, 29
1, 66828, Control_c, 0, 67, 30
1, 66857, Control_c, 0, 67, 30
1, 66887, Control_c, 0, 67, 31
1, 66901, Control_c, 0, 67, 31
1, 66937, Note_on_c, 0, 73, 70
1, 66946, Control_c, 0, 67, 32
1, 66960, Note_on_c, 0, 64, 39
1, 66975, Note_on_c, 0, 54, 56
1, 67005, Control_c, 0, 64, 114
1, 67020, Control_c, 0, 64, 103
1, 67035, Control_c, 0, 64, 93
1, 67050, Control_c, 0, 64, 84
1, 67064, Note_off_c, 0, 64, 28
1, 67065, Control_c, 0, 64, 78
1, 67072, Note_on_c, 0, 70, 68
1, 67077, Note_on_c, 0, 61, 58
1, 67080, Control_c, 0, 64, 76
1, 67094, Control_c, 0, 64, 75
1, 67096, Note_off_c, 0, 73, 58
1, 67109, Control_c, 0, 64, 76
1, 67124, Control_c, 0, 64, 77
1, 67131, Note_off_c, 0, 61, 54
1, 67139, Control_c, 0, 64, 79
1, 67154, Control_c, 0, 64, 82
1, 67168, Control_c, 0, 64, 86
1, 67175, Note_off_c, 0, 70, 62
1, 67183, Control_c, 0, 64, 91
1, 67189, Note_on_c, 0, 73, 82
1, 67196, Note_on_c, 0, 64, 18
1, 67198, Control_c, 0, 64, 95
1, 67213, Control_c, 0, 64, 97
1, 67228, Control_c, 0, 64, 99
1, 67247, Note_off_c, 0, 64, 49
1, 67250, Control_c, 0, 64, 103
1, 67264, Control_c, 0, 64, 108
1, 67279, Control_c, 0, 64, 114
1, 67282, Note_off_c, 0, 73, 61
1, 67294, Control_c, 0, 64, 127
1, 67303, Note_on_c, 0, 59, 62
1, 67306, Note_on_c, 0, 68, 71
1, 67330, Note_off_c, 0, 42, 39
1, 67361, Note_off_c, 0, 59, 58
1, 67387, Note_off_c, 0, 54, 38
1, 67422, Note_off_c, 0, 68, 60
1, 67428, Note_on_c, 0, 73, 68
1, 67443, Note_on_c, 0, 42, 63
1, 67458, Note_off_c, 0, 73, 63
1, 67537, Note_on_c, 0, 66, 68
1, 67539, Note_off_c, 0, 42, 59
1, 67546, Control_c, 0, 67, 31
1, 67560, Note_on_c, 0, 54, 52
1, 67587, Note_off_c, 0, 54, 65
1, 67651, Control_c, 0, 67, 31
1, 67739, Note_on_c, 0, 71, 71
1, 67739, Control_c, 0, 67, 30
1, 67754, Control_c, 0, 64, 121
1, 67756, Note_on_c, 0, 63, 52
1, 67769, Control_c, 0, 64, 109
1, 67784, Control_c, 0, 64, 101
1, 67798, Note_on_c, 0, 35, 55
1, 67798, Control_c, 0, 64, 94
1, 67813, Control_c, 0, 64, 86
1, 67828, Control_c, 0, 64, 78
1, 67836, Note_off_c, 0, 66, 42
1, 67843, Control_c, 0, 64, 70
1, 67858, Control_c, 0, 64, 64
1, 67873, Control_c, 0, 64, 62
1, 67888, Control_c, 0, 64, 63
1, 67902, Control_c, 0, 64, 65
1, 67902, Control_c, 0, 67, 30
1, 67917, Control_c, 0, 64, 68
1, 67932, Control_c, 0, 64, 70
1, 67947, Control_c, 0, 64, 73
1, 67962, Control_c, 0, 64, 76
1, 67977, Control_c, 0, 64, 79
1, 67977, Control_c, 0, 67, 29
1, 67998, Control_c, 0, 64, 82
1, 68013, Control_c, 0, 64, 86
1, 68028, Control_c, 0, 64, 91
1, 68028, Control_c, 0, 67, 29
1, 68043, Control_c, 0, 64, 95
1, 68058, Control_c, 0, 64, 98
1, 68058, Control_c, 0, 67, 28
1, 68072, Note_off_c, 0, 35, 42
1, 68072, Control_c, 0, 64, 101
1, 68083, Note_on_c, 0, 42, 73
1, 68084, Note_off_c, 0, 71, 50
1, 68087, Control_c, 0, 64, 104
1, 68099, Note_off_c, 0, 63, 26
1, 68102, Control_c, 0, 64, 109
1, 68117, Control_c, 0, 64, 118
1, 68117, Control_c, 0, 67, 28
1, 68132, Control_c, 0, 64, 127
1, 68206, Control_c, 0, 67, 27
1, 68315, Note_on_c, 0, 54, 76
1, 68398, Control_c, 0, 67, 28
1, 68399, Note_off_c, 0, 54, 59
1, 68413, Control_c, 0, 67, 28
1, 68427, Control_c, 0, 67, 29
1, 68442, Control_c, 0, 67, 29
1, 68457, Control_c, 0, 67, 30
1, 68487, Control_c, 0, 67, 30
1, 68531, Control_c, 0, 67, 31
1, 68558, Note_on_c, 0, 54, 65
1, 68620, Control_c, 0, 64, 111
1, 68623, Note_on_c, 0, 73, 74
1, 68630, Note_on_c, 0, 64, 59
1, 68635, Control_c, 0, 64, 101
1, 68650, Control_c, 0, 64, 91
1, 68665, Control_c, 0, 64, 82
1, 68680, Control_c, 0, 64, 74
1, 68694, Control_c, 0, 64, 69
1, 68707, Note_off_c, 0, 64, 62
1, 68709, Control_c, 0, 64, 69
1, 68724, Control_c, 0, 64, 72
1, 68746, Control_c, 0, 64, 77
1, 68761, Control_c, 0, 64, 81
1, 68764, Note_on_c, 0, 61, 65
1, 68764, Note_on_c, 0, 70, 71
1, 68776, Control_c, 0, 64, 85
1, 68776, Note_off_c, 0, 73, 57
1, 68791, Control_c, 0, 64, 88
1, 68806, Control_c, 0, 64, 92
1, 68820, Control_c, 0, 64, 97
1, 68832, Note_off_c, 0, 61, 57
1, 68835, Control_c, 0, 64, 102
1, 68850, Control_c, 0, 64, 107
1, 68850, Note_off_c, 0, 70, 56
1, 68864, Control_c, 0, 64, 111
1, 68874, Note_on_c, 0, 73, 80
1, 68879, Control_c, 0, 64, 115
1, 68894, Control_c, 0, 64, 121
1, 68899, Note_on_c, 0, 64, 34
1, 68909, Control_c, 0, 64, 127
1, 68938, Note_off_c, 0, 64, 51
1, 68957, Note_off_c, 0, 73, 61
1, 68978, Note_on_c, 0, 59, 68
1, 68980, Note_on_c, 0, 68, 72
1, 69010, Note_off_c, 0, 42, 47
1, 69037, Note_off_c, 0, 59, 56
1, 69039, Note_off_c, 0, 54, 39
1, 69099, Note_on_c, 0, 73, 71
1, 69099, Note_off_c, 0, 68, 60
1, 69110, Note_on_c, 0, 64, 7
1, 69120, Note_on_c, 0, 42, 65
1, 69137, Note_off_c, 0, 64, 0
1, 69148, Note_off_c, 0, 73, 59
1, 69169, Poly_aftertouch_c, 0, 64, 0
1, 69204, Note_on_c, 0, 66, 65
1, 69214, Note_off_c, 0, 42, 60
1, 69220, Note_on_c, 0, 54, 68
1, 69251, Note_off_c, 0, 54, 68
1, 69355, Control_c, 0, 67, 30
1, 69400, Note_on_c, 0, 71, 70
1, 69408, Note_on_c, 0, 63, 56
1, 69429, Control_c, 0, 64, 119
1, 69444, Control_c, 0, 64, 109
1, 69457, Note_on_c, 0, 35, 44
1, 69458, Control_c, 0, 64, 102
1, 69473, Control_c, 0, 64, 96
1, 69495, Control_c, 0, 64, 91
1, 69495, Control_c, 0, 67, 30
1, 69510, Control_c, 0, 64, 85
1, 69525, Control_c, 0, 64, 78
1, 69540, Control_c, 0, 64, 72
1, 69549, Note_off_c, 0, 66, 31
1, 69555, Control_c, 0, 64, 66
1, 69555, Control_c, 0, 67, 29
1, 69569, Control_c, 0, 64, 64
1, 69599, Control_c, 0, 64, 66
1, 69599, Control_c, 0, 67, 29
1, 69614, Control_c, 0, 64, 68
1, 69629, Control_c, 0, 64, 70
1, 69643, Control_c, 0, 64, 72
1, 69658, Control_c, 0, 64, 76
1, 69673, Control_c, 0, 64, 80
1, 69673, Control_c, 0, 67, 28
1, 69688, Control_c, 0, 64, 84
1, 69703, Control_c, 0, 64, 88
1, 69718, Control_c, 0, 64, 93
1, 69718, Control_c, 0, 67, 28
1, 69733, Control_c, 0, 64, 98
1, 69748, Control_c, 0, 64, 104
1, 69748, Control_c, 0, 67, 27
1, 69762, Control_c, 0, 64, 114
1, 69768, Note_on_c, 0, 42, 70
1, 69769, Note_off_c, 0, 35, 42
1, 69777, Control_c, 0, 64, 127
1, 69787, Note_off_c, 0, 71, 50
1, 69792, Control_c, 0, 67, 27
1, 69844, Note_off_c, 0, 63, 30
1, 69852, Control_c, 0, 67, 26
1, 69867, Control_c, 0, 67, 26
1, 69911, Control_c, 0, 67, 25
1, 69926, Control_c, 0, 67, 25
1, 69941, Control_c, 0, 67, 21
1, 69956, Control_c, 0, 67, 18
1, 69971, Control_c, 0, 67, 15
1, 69986, Control_c, 0, 67, 12
1, 70001, Control_c, 0, 67, 10
1, 70009, Note_on_c, 0, 54, 79
1, 70016, Control_c, 0, 67, 0
1, 70063, Note_off_c, 0, 42, 39
1, 70194, Note_off_c, 0, 54, 58
1, 70222, Note_on_c, 0, 70, 78
1, 70251, Note_on_c, 0, 63, 61
1, 70463, Note_on_c, 0, 42, 72
1, 70503, Note_off_c, 0, 63, 36
1, 70548, Note_on_c, 0, 71, 80
1, 70565, Note_off_c, 0, 70, 57
1, 70618, Note_off_c, 0, 71, 58
1, 70678, Note_on_c, 0, 66, 85
1, 70681, Note_on_c, 0, 35, 65
1, 70698, Note_on_c, 0, 63, 67
1, 70737, Note_off_c, 0, 42, 32
1, 70785, Note_off_c, 0, 63, 53
1, 70794, Note_off_c, 0, 35, 59
1, 70794, Note_off_c, 0, 66, 62
1, 70899, Note_on_c, 0, 35, 74
1, 70946, Note_on_c, 0, 66, 75
1, 70957, Note_on_c, 0, 63, 63
1, 70957, Control_c, 0, 64, 99
1, 70972, Control_c, 0, 64, 83
1, 70994, Control_c, 0, 64, 71
1, 71009, Control_c, 0, 64, 62
1, 71023, Control_c, 0, 64, 60
1, 71038, Control_c, 0, 64, 64
1, 71053, Control_c, 0, 64, 68
1, 71062, Note_off_c, 0, 63, 35
1, 71068, Control_c, 0, 64, 72
1, 71076, Note_off_c, 0, 66, 59
1, 71077, Note_on_c, 0, 68, 68
1, 71083, Control_c, 0, 64, 78
1, 71098, Control_c, 0, 64, 85
1, 71113, Control_c, 0, 64, 91
1, 71118, Note_off_c, 0, 68, 60
1, 71128, Control_c, 0, 64, 96
1, 71142, Control_c, 0, 64, 101
1, 71152, Note_on_c, 0, 70, 57
1, 71157, Control_c, 0, 64, 106
1, 71172, Control_c, 0, 64, 113
1, 71187, Control_c, 0, 64, 127
1, 71194, Note_off_c, 0, 70, 61
1, 71207, Note_on_c, 0, 68, 60
1, 71232, Note_on_c, 0, 42, 78
1, 71262, Note_off_c, 0, 68, 62
1, 71266, Note_on_c, 0, 70, 66
1, 71297, Note_off_c, 0, 35, 51
1, 71320, Note_off_c, 0, 70, 64
1, 71333, Note_on_c, 0, 68, 69
1, 71373, Note_off_c, 0, 68, 55
1, 71387, Note_on_c, 0, 70, 69
1, 71423, Note_on_c, 0, 41, 75
1, 71437, Note_off_c, 0, 70, 64
1, 71447, Note_on_c, 0, 68, 66
1, 71463, Note_off_c, 0, 42, 28
1, 71479, Note_off_c, 0, 41, 62
1, 71479, Note_off_c, 0, 68, 64
1, 71492, Note_on_c, 0, 70, 70
1, 71543, Note_off_c, 0, 70, 64
1, 71553, Note_on_c, 0, 68, 75
1, 71592, Note_off_c, 0, 68, 49
1, 71608, Note_on_c, 0, 70, 74
1, 71655, Note_on_c, 0, 53, 82
1, 71658, Note_off_c, 0, 70, 64
1, 71667, Note_on_c, 0, 68, 69
1, 71705, Note_off_c, 0, 68, 58
1, 71715, Note_on_c, 0, 70, 70
1, 71717, Note_off_c, 0, 53, 64
1, 71777, Note_on_c, 0, 68, 69
1, 71778, Note_off_c, 0, 70, 63
1, 71810, Note_off_c, 0, 68, 59
1, 71816, Note_on_c, 0, 70, 63
1, 71861, Note_on_c, 0, 68, 67
1, 71861, Note_off_c, 0, 70, 65
1, 71885, Note_on_c, 0, 41, 87
1, 71905, Note_off_c, 0, 68, 58
1, 71906, Note_on_c, 0, 70, 69
1, 71971, Note_off_c, 0, 70, 63
1, 71974, Note_on_c, 0, 68, 77
1, 72105, Note_off_c, 0, 68, 62
1, 72109, Note_on_c, 0, 66, 80
1, 72121, Note_on_c, 0, 35, 69
1, 72190, Note_off_c, 0, 35, 62
1, 72223, Note_on_c, 0, 68, 83
1, 72228, Note_off_c, 0, 66, 58
1, 72507, Control_c, 0, 64, 94
1, 72511, Note_on_c, 0, 46, 83
1, 72513, Note_on_c, 0, 34, 79
1, 72514, Note_off_c, 0, 68, 55
1, 72521, Control_c, 0, 64, 68
1, 72522, Note_off_c, 0, 41, 58
1, 72536, Control_c, 0, 64, 0
1, 72547, Note_on_c, 0, 70, 87
1, 72565, Note_on_c, 0, 62, 68
1, 72610, Control_c, 0, 64, 52
1, 72625, Control_c, 0, 64, 67
1, 72640, Control_c, 0, 64, 77
1, 72655, Control_c, 0, 64, 89
1, 72669, Control_c, 0, 64, 109
1, 72677, Note_off_c, 0, 34, 61
1, 72684, Control_c, 0, 64, 127
1, 72691, Note_off_c, 0, 62, 55
1, 72735, Note_off_c, 0, 46, 60
1, 72764, Note_off_c, 0, 70, 61
1, 73176, Note_on_c, 0, 82, 101
1, 73184, Note_on_c, 0, 70, 90
1, 73191, Note_on_c, 0, 65, 74
1, 73196, Note_on_c, 0, 58, 58
1, 73200, Note_on_c, 0, 56, 64
1, 73289, Note_off_c, 0, 58, 38
1, 73329, Note_off_c, 0, 65, 50
1, 73405, Note_off_c, 0, 70, 40
1, 73620, Note_off_c, 0, 56, 62
1, 73626, Control_c, 0, 64, 108
1, 73640, Note_on_c, 0, 58, 63
1, 73641, Control_c, 0, 64, 89
1, 73642, Note_on_c, 0, 65, 66
1, 73650, Note_on_c, 0, 54, 60
1, 73652, Note_on_c, 0, 75, 68
1, 73656, Control_c, 0, 64, 75
1, 73670, Control_c, 0, 64, 69
1, 73685, Control_c, 0, 64, 68
1, 73697, Note_off_c, 0, 82, 52
1, 73700, Control_c, 0, 64, 71
1, 73715, Control_c, 0, 64, 76
1, 73729, Control_c, 0, 64, 83
1, 73744, Control_c, 0, 64, 91
1, 73759, Control_c, 0, 64, 101
1, 73774, Control_c, 0, 64, 111
1, 73787, Note_off_c, 0, 75, 62
1, 73787, Note_on_c, 0, 84, 74
1, 73789, Control_c, 0, 64, 127
1, 73830, Note_off_c, 0, 84, 61
1, 73851, Note_off_c, 0, 65, 60
1, 73903, Note_off_c, 0, 54, 63
1, 73907, Note_off_c, 0, 58, 54
1, 73909, Note_on_c, 0, 77, 70
1, 73910, Note_on_c, 0, 85, 78
1, 73956, Note_off_c, 0, 77, 61
1, 74038, Note_on_c, 0, 87, 81
1, 74041, Note_off_c, 0, 85, 60
1, 74071, Note_off_c, 0, 87, 63
1, 74133, Note_on_c, 0, 54, 60
1, 74135, Note_on_c, 0, 63, 52
1, 74153, Note_on_c, 0, 80, 82
1, 74153, Note_on_c, 0, 58, 30
1, 74159, Note_on_c, 0, 89, 78
1, 74164, Note_off_c, 0, 54, 64
1, 74167, Note_off_c, 0, 63, 64
1, 74189, Note_off_c, 0, 58, 53
1, 74222, Note_off_c, 0, 80, 56
1, 74279, Note_on_c, 0, 90, 86
1, 74279, Note_on_c, 0, 82, 73
1, 74279, Note_off_c, 0, 89, 62
1, 74300, Note_off_c, 0, 82, 70
1, 74328, Note_off_c, 0, 90, 65
1, 74351, Note_on_c, 0, 46, 52
1, 74401, Note_on_c, 0, 53, 60
1, 74461, Note_on_c, 0, 89, 80
1, 74467, Note_on_c, 0, 85, 76
1, 74493, Control_c, 0, 64, 97
1, 74508, Control_c, 0, 64, 81
1, 74515, Note_on_c, 0, 61, 53
1, 74523, Control_c, 0, 64, 68
1, 74538, Control_c, 0, 64, 64
1, 74552, Control_c, 0, 64, 65
1, 74567, Control_c, 0, 64, 69
1, 74569, Note_on_c, 0, 82, 76
1, 74582, Control_c, 0, 64, 75
1, 74587, Note_off_c, 0, 89, 61
1, 74592, Note_off_c, 0, 46, 34
1, 74597, Control_c, 0, 64, 83
1, 74609, Note_off_c, 0, 85, 64
1, 74611, Control_c, 0, 64, 93
1, 74626, Control_c, 0, 64, 103
1, 74641, Control_c, 0, 64, 115
1, 74656, Control_c, 0, 64, 127
1, 74659, Note_off_c, 0, 82, 64
1, 74662, Note_off_c, 0, 53, 42
1, 74667, Note_off_c, 0, 61, 37
1, 74687, Note_on_c, 0, 77, 74
1, 74706, Note_on_c, 0, 46, 65
1, 74713, Note_off_c, 0, 77, 66
1, 74761, Note_off_c, 0, 46, 60
1, 74791, Note_on_c, 0, 53, 44
1, 74812, Note_on_c, 0, 73, 80
1, 74818, Note_off_c, 0, 53, 62
1, 74825, Note_on_c, 0, 61, 30
1, 74863, Note_off_c, 0, 61, 51
1, 74875, Note_on_c, 0, 46, 65
1, 74901, Note_off_c, 0, 73, 62
1, 74926, Note_on_c, 0, 71, 71
1, 74927, Note_on_c, 0, 77, 70
1, 74958, Note_on_c, 0, 51, 67
1, 74972, Note_off_c, 0, 71, 58
1, 75030, Note_on_c, 0, 70, 70
1, 75038, Note_on_c, 0, 54, 70
1, 75044, Note_off_c, 0, 77, 55
1, 75079, Control_c, 0, 64, 103
1, 75094, Control_c, 0, 64, 83
1, 75108, Control_c, 0, 64, 71
1, 75123, Control_c, 0, 64, 65
1, 75131, Note_off_c, 0, 70, 62
1, 75137, Note_off_c, 0, 46, 52
1, 75138, Control_c, 0, 64, 66
1, 75153, Control_c, 0, 64, 70
1, 75156, Note_on_c, 0, 61, 77
1, 75159, Note_off_c, 0, 51, 63
1, 75168, Control_c, 0, 64, 78
1, 75176, Note_off_c, 0, 54, 64
1, 75182, Note_on_c, 0, 68, 54
1, 75182, Control_c, 0, 64, 89
1, 75194, Note_on_c, 0, 77, 41
1, 75197, Control_c, 0, 64, 101
1, 75212, Control_c, 0, 64, 114
1, 75222, Note_off_c, 0, 68, 59
1, 75227, Control_c, 0, 64, 127
1, 75238, Note_off_c, 0, 77, 55
1, 75262, Note_on_c, 0, 75, 63
1, 75295, Note_off_c, 0, 61, 60
1, 75329, Note_off_c, 0, 75, 63
1, 75332, Note_on_c, 0, 77, 66
1, 75366, Poly_aftertouch_c, 0, 75, 0
1, 75373, Note_off_c, 0, 77, 61
1, 75376, Note_on_c, 0, 75, 64
1, 75386, Note_on_c, 0, 66, 66
1, 75411, Note_off_c, 0, 66, 66
1, 75416, Note_on_c, 0, 77, 62
1, 75424, Note_off_c, 0, 75, 57
1, 75452, Note_on_c, 0, 75, 51
1, 75453, Note_off_c, 0, 77, 61
1, 75510, Note_off_c, 0, 75, 63
1, 75513, Note_on_c, 0, 77, 57
1, 75554, Note_on_c, 0, 75, 48
1, 75604, Note_off_c, 0, 75, 55
1, 75612, Note_off_c, 0, 77, 55
1, 75624, Note_on_c, 0, 68, 76
1, 75627, Note_on_c, 0, 54, 37
1, 75629, Note_on_c, 0, 59, 58
1, 75630, Note_on_c, 0, 46, 43
1, 75653, Note_off_c, 0, 59, 63
1, 75660, Note_off_c, 0, 54, 61
1, 75666, Note_off_c, 0, 46, 61
1, 75677, Note_off_c, 0, 68, 61
1, 75678, Note_on_c, 0, 75, 46
1, 75742, Note_off_c, 0, 75, 63
1, 75749, Note_on_c, 0, 77, 62
1, 75805, Note_on_c, 0, 75, 70
1, 75808, Note_off_c, 0, 77, 62
1, 75861, Note_off_c, 0, 75, 63
1, 75938, Note_on_c, 0, 34, 58
1, 76035, Control_c, 0, 64, 109
1, 76046, Note_on_c, 0, 46, 62
1, 76050, Control_c, 0, 64, 88
1, 76057, Note_on_c, 0, 74, 81
1, 76064, Control_c, 0, 64, 73
1, 76079, Control_c, 0, 64, 61
1, 76085, Note_on_c, 0, 65, 50
1, 76091, Note_on_c, 0, 70, 50
1, 76094, Control_c, 0, 64, 50
1, 76109, Control_c, 0, 64, 56
1, 76124, Control_c, 0, 64, 64
1, 76139, Control_c, 0, 64, 68
1, 76154, Control_c, 0, 64, 72
1, 76159, Note_off_c, 0, 34, 62
1, 76168, Control_c, 0, 64, 76
1, 76183, Control_c, 0, 64, 81
1, 76198, Control_c, 0, 64, 87
1, 76213, Control_c, 0, 64, 93
1, 76222, Note_off_c, 0, 46, 60
1, 76235, Control_c, 0, 64, 101
1, 76250, Control_c, 0, 64, 110
1, 76264, Control_c, 0, 64, 127
1, 76315, Note_off_c, 0, 65, 48
1, 76323, Note_off_c, 0, 70, 53
1, 76343, Note_off_c, 0, 74, 63
1, 76732, Note_on_c, 0, 65, 73
1, 76755, Note_on_c, 0, 56, 57
1, 76761, Note_on_c, 0, 58, 42
1, 76801, Note_off_c, 0, 58, 48
1, 76803, Note_on_c, 0, 82, 75
1, 76823, Note_on_c, 0, 70, 52
1, 76948, Note_off_c, 0, 65, 39
1, 77044, Note_off_c, 0, 56, 59
1, 77132, Note_off_c, 0, 70, 34
1, 77163, Control_c, 0, 67, 8
1, 77168, Note_on_c, 0, 65, 61
1, 77177, Control_c, 0, 64, 115
1, 77177, Control_c, 0, 67, 9
1, 77178, Note_on_c, 0, 54, 54
1, 77179, Note_on_c, 0, 58, 57
1, 77192, Control_c, 0, 64, 92
1, 77192, Control_c, 0, 67, 10
1, 77207, Control_c, 0, 64, 78
1, 77207, Control_c, 0, 67, 11
1, 77222, Control_c, 0, 64, 69
1, 77222, Control_c, 0, 67, 11
1, 77237, Control_c, 0, 64, 66
1, 77251, Control_c, 0, 64, 67
1, 77251, Control_c, 0, 67, 12
1, 77259, Note_on_c, 0, 75, 59
1, 77266, Control_c, 0, 64, 71
1, 77266, Control_c, 0, 67, 12
1, 77281, Control_c, 0, 64, 78
1, 77281, Control_c, 0, 67, 13
1, 77296, Control_c, 0, 64, 84
1, 77296, Control_c, 0, 67, 15
1, 77310, Control_c, 0, 64, 90
1, 77310, Control_c, 0, 67, 17
1, 77317, Note_off_c, 0, 82, 39
1, 77322, Note_off_c, 0, 65, 60
1, 77325, Control_c, 0, 64, 93
1, 77325, Control_c, 0, 67, 18
1, 77340, Control_c, 0, 64, 95
1, 77340, Control_c, 0, 67, 20
1, 77355, Control_c, 0, 64, 97
1, 77355, Control_c, 0, 67, 21
1, 77363, Note_off_c, 0, 75, 61
1, 77370, Control_c, 0, 64, 101
1, 77370, Control_c, 0, 67, 21
1, 77382, Note_on_c, 0, 84, 65
1, 77385, Control_c, 0, 64, 106
1, 77385, Control_c, 0, 67, 22
1, 77400, Control_c, 0, 64, 111
1, 77400, Control_c, 0, 67, 22
1, 77411, Note_off_c, 0, 84, 66
1, 77414, Control_c, 0, 64, 116
1, 77414, Control_c, 0, 67, 23
1, 77429, Control_c, 0, 64, 122
1, 77444, Control_c, 0, 64, 127
1, 77459, Control_c, 0, 67, 23
1, 77474, Control_c, 0, 67, 24
1, 77489, Control_c, 0, 67, 24
1, 77503, Control_c, 0, 67, 26
1, 77507, Note_on_c, 0, 77, 67
1, 77513, Note_on_c, 0, 85, 68
1, 77516, Note_on_c, 0, 66, 68
1, 77518, Control_c, 0, 67, 27
1, 77533, Control_c, 0, 67, 28
1, 77548, Control_c, 0, 67, 28
1, 77558, Note_off_c, 0, 77, 58
1, 77563, Control_c, 0, 67, 29
1, 77577, Control_c, 0, 67, 30
1, 77592, Control_c, 0, 67, 31
1, 77599, Note_off_c, 0, 66, 60
1, 77607, Control_c, 0, 67, 32
1, 77611, Note_off_c, 0, 54, 39
1, 77621, Note_off_c, 0, 58, 41
1, 77622, Control_c, 0, 67, 32
1, 77636, Control_c, 0, 67, 33
1, 77638, Note_on_c, 0, 78, 44
1, 77638, Note_on_c, 0, 87, 69
1, 77647, Note_off_c, 0, 85, 39
1, 77651, Control_c, 0, 67, 33
1, 77663, Note_off_c, 0, 78, 57
1, 77666, Control_c, 0, 67, 34
1, 77674, Note_off_c, 0, 87, 65
1, 77696, Control_c, 0, 67, 34
1, 77733, Control_c, 0, 67, 35
1, 77763, Control_c, 0, 67, 36
1, 77772, Note_on_c, 0, 63, 61
1, 77778, Control_c, 0, 67, 37
1, 77779, Note_on_c, 0, 80, 58
1, 77782, Note_on_c, 0, 58, 38
1, 77791, Note_on_c, 0, 54, 34
1, 77792, Control_c, 0, 67, 38
1, 77807, Control_c, 0, 67, 38
1, 77813, Note_on_c, 0, 89, 40
1, 77819, Note_on_c, 0, 88, 43
1, 77819, Note_off_c, 0, 58, 51
1, 77822, Control_c, 0, 67, 39
1, 77826, Note_off_c, 0, 54, 55
1, 77828, Note_off_c, 0, 63, 53
1, 77836, Control_c, 0, 67, 40
1, 77851, Control_c, 0, 67, 41
1, 77856, Note_off_c, 0, 80, 0
1, 77856, Note_on_c, 0, 80, 20
1, 77866, Control_c, 0, 67, 42
1, 77881, Control_c, 0, 67, 42
1, 77896, Control_c, 0, 67, 44
1, 77904, Note_off_c, 0, 80, 49
1, 77910, Control_c, 0, 67, 45
1, 77925, Control_c, 0, 67, 46
1, 77932, Note_off_c, 0, 88, 42
1, 77934, Note_on_c, 0, 90, 63
1, 77940, Control_c, 0, 67, 46
1, 77956, Control_c, 0, 67, 47
1, 77960, Note_off_c, 0, 89, 35
1, 77971, Control_c, 0, 67, 48
1, 77972, Note_off_c, 0, 90, 59
1, 77986, Control_c, 0, 67, 49
1, 78001, Control_c, 0, 67, 50
1, 78015, Control_c, 0, 67, 51
1, 78021, Note_on_c, 0, 46, 49
1, 78030, Control_c, 0, 67, 53
1, 78045, Control_c, 0, 67, 53
1, 78059, Control_c, 0, 67, 54
1, 78074, Control_c, 0, 67, 54
1, 78089, Control_c, 0, 67, 55
1, 78104, Control_c, 0, 67, 56
1, 78112, Note_on_c, 0, 53, 46
1, 78119, Control_c, 0, 67, 58
1, 78133, Control_c, 0, 67, 60
1, 78148, Control_c, 0, 67, 60
1, 78163, Note_on_c, 0, 89, 62
1, 78163, Control_c, 0, 67, 61
1, 78177, Note_on_c, 0, 85, 49
1, 78178, Control_c, 0, 67, 61
1, 78193, Control_c, 0, 67, 62
1, 78207, Control_c, 0, 67, 63
1, 78222, Control_c, 0, 67, 64
1, 78237, Control_c, 0, 64, 122
1, 78237, Control_c, 0, 67, 65
1, 78252, Control_c, 0, 64, 109
1, 78252, Control_c, 0, 67, 66
1, 78267, Control_c, 0, 64, 99
1, 78267, Control_c, 0, 67, 67
1, 78282, Control_c, 0, 64, 89
1, 78282, Control_c, 0, 67, 68
1, 78297, Note_on_c, 0, 61, 61
1, 78297, Control_c, 0, 64, 80
1, 78297, Control_c, 0, 67, 68
1, 78312, Control_c, 0, 64, 72
1, 78312, Control_c, 0, 67, 69
1, 78326, Control_c, 0, 64, 67
1, 78326, Control_c, 0, 67, 70
1, 78341, Control_c, 0, 64, 66
1, 78341, Control_c, 0, 67, 70
1, 78356, Control_c, 0, 64, 67
1, 78359, Note_off_c, 0, 89, 32
1, 78371, Control_c, 0, 64, 69
1, 78371, Control_c, 0, 67, 71
1, 78374, Note_on_c, 0, 82, 57
1, 78386, Control_c, 0, 64, 72
1, 78386, Control_c, 0, 67, 71
1, 78400, Control_c, 0, 64, 75
1, 78400, Control_c, 0, 67, 72
1, 78413, Note_off_c, 0, 85, 59
1, 78415, Control_c, 0, 64, 81
1, 78415, Control_c, 0, 67, 73
1, 78430, Control_c, 0, 64, 85
1, 78430, Control_c, 0, 67, 73
1, 78445, Control_c, 0, 64, 88
1, 78445, Control_c, 0, 67, 74
1, 78459, Control_c, 0, 64, 91
1, 78459, Control_c, 0, 67, 75
1, 78460, Note_off_c, 0, 82, 63
1, 78482, Control_c, 0, 64, 94
1, 78482, Control_c, 0, 67, 76
1, 78497, Control_c, 0, 64, 99
1, 78497, Control_c, 0, 67, 77
1, 78511, Control_c, 0, 64, 106
1, 78511, Control_c, 0, 67, 79
1, 78521, Note_off_c, 0, 46, 41
1, 78522, Note_on_c, 0, 77, 54
1, 78526, Control_c, 0, 64, 113
1, 78526, Control_c, 0, 67, 81
1, 78541, Control_c, 0, 64, 120
1, 78541, Control_c, 0, 67, 82
1, 78543, Note_off_c, 0, 77, 61
1, 78556, Control_c, 0, 64, 127
1, 78556, Control_c, 0, 67, 83
1, 78571, Control_c, 0, 67, 85
1, 78580, Note_off_c, 0, 61, 38
1, 78586, Control_c, 0, 67, 85
1, 78601, Control_c, 0, 67, 86
1, 78615, Control_c, 0, 67, 87
1, 78630, Control_c, 0, 67, 88
1, 78635, Note_on_c, 0, 73, 63
1, 78645, Control_c, 0, 67, 88
1, 78659, Control_c, 0, 67, 89
1, 78674, Control_c, 0, 67, 90
1, 78689, Control_c, 0, 67, 91
1, 78703, Note_on_c, 0, 46, 42
1, 78704, Control_c, 0, 67, 92
1, 78709, Note_off_c, 0, 53, 46
1, 78719, Control_c, 0, 67, 93
1, 78733, Control_c, 0, 67, 94
1, 78740, Note_off_c, 0, 73, 56
1, 78741, Note_off_c, 0, 46, 56
1, 78748, Control_c, 0, 67, 95
1, 78764, Control_c, 0, 67, 96
1, 78779, Control_c, 0, 67, 97
1, 78783, Note_on_c, 0, 71, 46
1, 78794, Note_on_c, 0, 77, 44
1, 78795, Control_c, 0, 67, 99
1, 78810, Control_c, 0, 67, 100
1, 78824, Control_c, 0, 67, 102
1, 78839, Control_c, 0, 67, 104
1, 78845, Note_off_c, 0, 71, 56
1, 78854, Control_c, 0, 67, 107
1, 78869, Control_c, 0, 67, 109
1, 78883, Control_c, 0, 67, 111
1, 78898, Control_c, 0, 67, 113
1, 78913, Control_c, 0, 67, 115
1, 78917, Note_on_c, 0, 70, 54
1, 78921, Note_off_c, 0, 77, 36
1, 78928, Control_c, 0, 67, 118
1, 78943, Control_c, 0, 67, 120
1, 78957, Control_c, 0, 67, 122
1, 78971, Note_on_c, 0, 51, 49
1, 78972, Control_c, 0, 67, 124
1, 78987, Control_c, 0, 67, 126
1, 79002, Control_c, 0, 67, 127
1, 79012, Note_on_c, 0, 54, 50
1, 79078, Note_off_c, 0, 70, 37
1, 79108, Note_on_c, 0, 61, 66
1, 79120, Control_c, 0, 64, 103
1, 79131, Note_on_c, 0, 77, 38
1, 79135, Control_c, 0, 64, 88
1, 79149, Note_on_c, 0, 68, 37
1, 79149, Control_c, 0, 64, 78
1, 79164, Control_c, 0, 64, 71
1, 79179, Control_c, 0, 64, 68
1, 79194, Control_c, 0, 64, 69
1, 79209, Control_c, 0, 64, 71
1, 79211, Note_off_c, 0, 68, 51
1, 79231, Control_c, 0, 64, 75
1, 79246, Control_c, 0, 64, 79
1, 79261, Control_c, 0, 64, 84
1, 79262, Note_off_c, 0, 77, 44
1, 79275, Control_c, 0, 64, 88
1, 79280, Note_off_c, 0, 54, 36
1, 79290, Control_c, 0, 64, 91
1, 79298, Note_on_c, 0, 75, 53
1, 79302, Note_off_c, 0, 61, 55
1, 79305, Control_c, 0, 64, 94
1, 79320, Control_c, 0, 64, 98
1, 79335, Control_c, 0, 64, 102
1, 79349, Control_c, 0, 64, 106
1, 79361, Note_off_c, 0, 75, 60
1, 79364, Control_c, 0, 64, 110
1, 79376, Note_on_c, 0, 77, 54
1, 79379, Control_c, 0, 64, 115
1, 79394, Control_c, 0, 64, 121
1, 79409, Control_c, 0, 64, 127
1, 79421, Note_off_c, 0, 77, 56
1, 79436, Note_on_c, 0, 75, 41
1, 79465, Note_on_c, 0, 63, 65
1, 79466, Note_on_c, 0, 77, 39
1, 79495, Note_off_c, 0, 75, 0
1, 79505, Note_off_c, 0, 77, 0
1, 79509, Note_on_c, 0, 75, 44
1, 79525, Note_off_c, 0, 63, 59
1, 79530, Note_on_c, 0, 77, 41
1, 79534, Note_off_c, 0, 75, 58
1, 79575, Note_off_c, 0, 77, 63
1, 79577, Note_off_c, 0, 51, 49
1, 79594, Note_on_c, 0, 75, 55
1, 79617, Note_off_c, 0, 75, 62
1, 79623, Note_on_c, 0, 77, 53
1, 79630, Note_on_c, 0, 66, 63
1, 79655, Note_off_c, 0, 77, 64
1, 79666, Note_on_c, 0, 75, 54
1, 79687, Note_off_c, 0, 75, 63
1, 79708, Note_on_c, 0, 77, 47
1, 79743, Note_off_c, 0, 66, 38
1, 79758, Note_on_c, 0, 75, 61
1, 79759, Note_on_c, 0, 51, 41
1, 79781, Note_on_c, 0, 54, 55
1, 79802, Note_off_c, 0, 77, 30
1, 79872, Note_on_c, 0, 59, 61
1, 79878, Note_off_c, 0, 75, 28
1, 79924, Note_on_c, 0, 68, 48
1, 79961, Note_off_c, 0, 59, 57
1, 79986, Note_off_c, 0, 68, 52
1, 79999, Note_on_c, 0, 75, 52
1, 80014, Note_off_c, 0, 54, 26
1, 80047, Note_off_c, 0, 51, 45
1, 80056, Note_off_c, 0, 75, 61
1, 80082, Note_on_c, 0, 77, 51
1, 80106, Note_off_c, 0, 77, 61
1, 80129, Note_on_c, 0, 75, 40
1, 80160, Note_off_c, 0, 75, 54
1, 80175, Note_on_c, 0, 77, 52
1, 80197, Note_off_c, 0, 77, 63
1, 80217, Note_on_c, 0, 75, 51
1, 80240, Note_off_c, 0, 75, 60
1, 80314, Note_on_c, 0, 75, 64
1, 80633, Note_on_c, 0, 34, 38
1, 80646, Control_c, 0, 64, 119
1, 80661, Control_c, 0, 64, 115
1, 80676, Control_c, 0, 64, 111
1, 80691, Control_c, 0, 64, 107
1, 80706, Control_c, 0, 64, 103
1, 80728, Control_c, 0, 64, 101
1, 80743, Control_c, 0, 64, 98
1, 80747, Note_off_c, 0, 75, 28
1, 80758, Control_c, 0, 64, 95
1, 80760, Note_on_c, 0, 74, 65
1, 80773, Control_c, 0, 64, 93
1, 80788, Control_c, 0, 64, 91
1, 80801, Note_on_c, 0, 65, 44
1, 80802, Control_c, 0, 64, 88
1, 80817, Control_c, 0, 64, 86
1, 80832, Control_c, 0, 64, 82
1, 80847, Control_c, 0, 64, 78
1, 80861, Control_c, 0, 64, 72
1, 80876, Control_c, 0, 64, 67
1, 80891, Control_c, 0, 64, 64
1, 80906, Control_c, 0, 64, 63
1, 80920, Control_c, 0, 64, 64
1, 80923, Note_on_c, 0, 46, 38
1, 80935, Control_c, 0, 64, 65
1, 80950, Control_c, 0, 64, 67
1, 80965, Control_c, 0, 64, 69
1, 80980, Control_c, 0, 64, 72
1, 80995, Control_c, 0, 64, 75
1, 81009, Control_c, 0, 64, 78
1, 81013, Note_off_c, 0, 34, 54
1, 81024, Control_c, 0, 64, 80
1, 81039, Control_c, 0, 64, 83
1, 81053, Control_c, 0, 64, 86
1, 81068, Control_c, 0, 64, 89
1, 81083, Control_c, 0, 64, 92
1, 81089, Note_off_c, 0, 46, 48
1, 81098, Control_c, 0, 64, 95
1, 81113, Control_c, 0, 64, 98
1, 81127, Control_c, 0, 64, 102
1, 81142, Control_c, 0, 64, 108
1, 81158, Control_c, 0, 64, 115
1, 81173, Control_c, 0, 64, 127
1, 81313, Note_off_c, 0, 65, 37
1, 81439, Control_c, 0, 67, 126
1, 81454, Control_c, 0, 67, 124
1, 81476, Control_c, 0, 67, 122
1, 81491, Control_c, 0, 67, 120
1, 81506, Control_c, 0, 67, 119
1, 81521, Control_c, 0, 67, 117
1, 81536, Control_c, 0, 67, 115
1, 81550, Control_c, 0, 67, 113
1, 81565, Control_c, 0, 67, 111
1, 81580, Control_c, 0, 67, 110
1, 81595, Control_c, 0, 67, 109
1, 81609, Control_c, 0, 67, 107
1, 81624, Control_c, 0, 67, 105
1, 81639, Control_c, 0, 67, 104
1, 81654, Control_c, 0, 67, 102
1, 81669, Control_c, 0, 67, 101
1, 81683, Control_c, 0, 67, 99
1, 81698, Control_c, 0, 67, 98
1, 81713, Control_c, 0, 67, 96
1, 81728, Control_c, 0, 67, 95
1, 81743, Control_c, 0, 67, 93
1, 81758, Control_c, 0, 67, 92
1, 81773, Control_c, 0, 67, 90
1, 81788, Control_c, 0, 67, 88
1, 81802, Control_c, 0, 67, 86
1, 81817, Control_c, 0, 67, 83
1, 81832, Control_c, 0, 67, 81
1, 81847, Control_c, 0, 67, 80
1, 81862, Control_c, 0, 67, 77
1, 81877, Control_c, 0, 67, 76
1, 81892, Control_c, 0, 67, 74
1, 81907, Control_c, 0, 67, 72
1, 81908, Note_on_c, 0, 62, 25
1, 81922, Control_c, 0, 67, 71
1, 81923, Note_on_c, 0, 56, 34
1, 81937, Control_c, 0, 67, 69
1, 81952, Control_c, 0, 67, 68
1, 81967, Control_c, 0, 67, 67
1, 81972, Note_on_c, 0, 70, 70
1, 81981, Control_c, 0, 67, 65
1, 81996, Control_c, 0, 67, 64
1, 82011, Control_c, 0, 67, 62
1, 82012, Note_on_c, 0, 65, 33
1, 82026, Control_c, 0, 67, 60
1, 82041, Control_c, 0, 67, 58
1, 82056, Control_c, 0, 67, 56
1, 82066, Note_off_c, 0, 74, 58
1, 82071, Control_c, 0, 67, 54
1, 82074, Note_off_c, 0, 62, 39
1, 82086, Control_c, 0, 67, 51
1, 82100, Control_c, 0, 67, 48
1, 82115, Control_c, 0, 67, 45
1, 82130, Control_c, 0, 67, 41
1, 82145, Control_c, 0, 67, 38
1, 82160, Control_c, 0, 67, 34
1, 82174, Control_c, 0, 67, 31
1, 82189, Control_c, 0, 67, 28
1, 82196, Note_off_c, 0, 65, 41
1, 82204, Control_c, 0, 67, 25
1, 82226, Control_c, 0, 67, 21
1, 82241, Control_c, 0, 67, 16
1, 82255, Control_c, 0, 67, 13
1, 82270, Control_c, 0, 67, 10
1, 82285, Control_c, 0, 67, 9
1, 82315, Control_c, 0, 67, 8
1, 82404, Note_off_c, 0, 56, 37
1, 82438, Note_on_c, 0, 75, 64
1, 82476, Note_on_c, 0, 66, 37
1, 82493, Control_c, 0, 64, 119
1, 82507, Control_c, 0, 64, 108
1, 82512, Note_on_c, 0, 54, 40
1, 82519, Note_on_c, 0, 63, 22
1, 82522, Control_c, 0, 64, 99
1, 82536, Control_c, 0, 64, 91
1, 82551, Control_c, 0, 64, 84
1, 82566, Control_c, 0, 64, 78
1, 82580, Control_c, 0, 64, 74
1, 82587, Note_off_c, 0, 70, 35
1, 82595, Control_c, 0, 64, 72
1, 82610, Control_c, 0, 64, 72
1, 82625, Control_c, 0, 64, 74
1, 82640, Control_c, 0, 64, 76
1, 82645, Note_off_c, 0, 63, 48
1, 82655, Control_c, 0, 64, 80
1, 82664, Note_off_c, 0, 66, 41
1, 82670, Control_c, 0, 64, 83
1, 82683, Note_off_c, 0, 54, 48
1, 82685, Control_c, 0, 64, 86
1, 82699, Control_c, 0, 64, 88
1, 82714, Note_on_c, 0, 71, 68
1, 82714, Control_c, 0, 64, 91
1, 82729, Control_c, 0, 64, 94
1, 82744, Control_c, 0, 64, 98
1, 82753, Note_off_c, 0, 75, 60
1, 82759, Note_on_c, 0, 63, 39
1, 82759, Control_c, 0, 64, 101
1, 82774, Control_c, 0, 64, 104
1, 82789, Control_c, 0, 64, 109
1, 82804, Control_c, 0, 64, 113
1, 82804, Control_c, 0, 67, 8
1, 82819, Control_c, 0, 64, 118
1, 82834, Control_c, 0, 64, 127
1, 82849, Note_off_c, 0, 63, 37
1, 82870, Note_on_c, 0, 75, 75
1, 82878, Control_c, 0, 67, 0
1, 82882, Note_on_c, 0, 66, 57
1, 82882, Note_off_c, 0, 71, 60
1, 82923, Note_off_c, 0, 66, 58
1, 83017, Note_on_c, 0, 70, 75
1, 83042, Note_on_c, 0, 61, 48
1, 83047, Note_off_c, 0, 75, 61
1, 83081, Note_on_c, 0, 66, 11
1, 83084, Note_off_c, 0, 61, 59
1, 83146, Note_on_c, 0, 75, 77
1, 83160, Note_off_c, 0, 70, 60
1, 83163, Note_on_c, 0, 34, 51
1, 83191, Note_off_c, 0, 75, 61
1, 83199, Note_off_c, 0, 66, 40
1, 83277, Note_on_c, 0, 68, 76
1, 83309, Note_on_c, 0, 59, 45
1, 83338, Note_off_c, 0, 59, 54
1, 83463, Control_c, 0, 64, 116
1, 83478, Control_c, 0, 64, 107
1, 83493, Control_c, 0, 64, 98
1, 83494, Note_on_c, 0, 70, 68
1, 83507, Control_c, 0, 64, 88
1, 83522, Control_c, 0, 64, 78
1, 83533, Note_on_c, 0, 58, 41
1, 83537, Control_c, 0, 64, 69
1, 83550, Note_on_c, 0, 46, 36
1, 83552, Control_c, 0, 64, 61
1, 83567, Control_c, 0, 64, 58
1, 83582, Control_c, 0, 64, 61
1, 83585, Note_off_c, 0, 68, 32
1, 83597, Control_c, 0, 64, 63
1, 83612, Control_c, 0, 64, 65
1, 83627, Control_c, 0, 64, 66
1, 83642, Control_c, 0, 64, 69
1, 83642, Control_c, 0, 67, 8
1, 83656, Control_c, 0, 64, 72
1, 83656, Control_c, 0, 67, 8
1, 83669, Note_off_c, 0, 34, 46
1, 83671, Control_c, 0, 64, 75
1, 83671, Control_c, 0, 67, 9
1, 83686, Control_c, 0, 64, 78
1, 83686, Control_c, 0, 67, 9
1, 83701, Control_c, 0, 64, 80
1, 83701, Control_c, 0, 67, 10
1, 83723, Control_c, 0, 64, 82
1, 83723, Control_c, 0, 67, 10
1, 83738, Control_c, 0, 64, 86
1, 83738, Control_c, 0, 67, 11
1, 83752, Control_c, 0, 64, 90
1, 83752, Control_c, 0, 67, 13
1, 83758, Note_off_c, 0, 46, 42
1, 83767, Control_c, 0, 64, 94
1, 83767, Control_c, 0, 67, 14
1, 83782, Control_c, 0, 64, 98
1, 83782, Control_c, 0, 67, 16
1, 83797, Control_c, 0, 64, 100
1, 83797, Control_c, 0, 67, 18
1, 83811, Control_c, 0, 64, 103
1, 83811, Control_c, 0, 67, 21
1, 83826, Control_c, 0, 64, 106
1, 83826, Control_c, 0, 67, 25
1, 83841, Control_c, 0, 64, 110
1, 83841, Control_c, 0, 67, 28
1, 83856, Control_c, 0, 64, 116
1, 83856, Control_c, 0, 67, 31
1, 83864, Note_off_c, 0, 70, 37
1, 83871, Control_c, 0, 64, 127
1, 83871, Control_c, 0, 67, 34
1, 83886, Control_c, 0, 67, 37
1, 83887, Note_off_c, 0, 58, 41
1, 83901, Control_c, 0, 67, 41
1, 83916, Control_c, 0, 67, 45
1, 83931, Control_c, 0, 67, 49
1, 83945, Control_c, 0, 67, 54
1, 83960, Control_c, 0, 67, 57
1, 83975, Control_c, 0, 67, 60
1, 83990, Control_c, 0, 67, 62
1, 84004, Control_c, 0, 67, 65
1, 84019, Control_c, 0, 67, 68
1, 84034, Control_c, 0, 67, 70
1, 84049, Control_c, 0, 67, 73
1, 84064, Control_c, 0, 67, 76
1, 84078, Control_c, 0, 67, 78
1, 84093, Control_c, 0, 67, 81
1, 84108, Control_c, 0, 67, 84
1, 84123, Control_c, 0, 67, 87
1, 84138, Control_c, 0, 67, 90
1, 84152, Control_c, 0, 67, 92
1, 84167, Control_c, 0, 67, 95
1, 84182, Control_c, 0, 67, 98
1, 84196, Control_c, 0, 67, 101
1, 84211, Control_c, 0, 67, 105
1, 84226, Control_c, 0, 67, 107
1, 84241, Control_c, 0, 67, 110
1, 84256, Control_c, 0, 67, 112
1, 84271, Control_c, 0, 67, 115
1, 84285, Control_c, 0, 67, 118
1, 84300, Control_c, 0, 67, 120
1, 84315, Control_c, 0, 67, 123
1, 84330, Control_c, 0, 67, 126
1, 84346, Control_c, 0, 67, 127
1, 84561, Control_c, 0, 64, 124
1, 84575, Control_c, 0, 64, 123
1, 84590, Control_c, 0, 64, 122
1, 84605, Control_c, 0, 64, 119
1, 84619, Control_c, 0, 64, 118
1, 84634, Control_c, 0, 64, 116
1, 84649, Control_c, 0, 64, 115
1, 84664, Control_c, 0, 64, 113
1, 84679, Control_c, 0, 64, 111
1, 84694, Control_c, 0, 64, 109
1, 84709, Control_c, 0, 64, 106
1, 84724, Control_c, 0, 64, 103
1, 84728, Note_on_c, 0, 61, 39
1, 84739, Control_c, 0, 64, 100
1, 84743, Note_on_c, 0, 53, 34
1, 84753, Control_c, 0, 64, 95
1, 84768, Control_c, 0, 64, 89
1, 84783, Control_c, 0, 64, 81
1, 84797, Note_on_c, 0, 70, 52
1, 84798, Control_c, 0, 64, 74
1, 84813, Control_c, 0, 64, 69
1, 84828, Control_c, 0, 64, 66
1, 84836, Note_on_c, 0, 65, 19
1, 84858, Control_c, 0, 64, 67
1, 84873, Control_c, 0, 64, 68
1, 84887, Control_c, 0, 64, 71
1, 84902, Control_c, 0, 64, 74
1, 84917, Control_c, 0, 64, 77
1, 84932, Control_c, 0, 64, 79
1, 84947, Control_c, 0, 64, 81
1, 84962, Control_c, 0, 64, 81
1, 84976, Control_c, 0, 64, 84
1, 84991, Control_c, 0, 64, 86
1, 84998, Note_off_c, 0, 61, 40
1, 85006, Control_c, 0, 64, 89
1, 85020, Control_c, 0, 64, 91
1, 85035, Control_c, 0, 64, 92
1, 85050, Control_c, 0, 64, 93
1, 85065, Control_c, 0, 64, 93
1, 85080, Control_c, 0, 64, 94
1, 85109, Control_c, 0, 64, 94
1, 85247, Note_off_c, 0, 65, 42
1, 85251, Control_c, 0, 64, 94
1, 85259, Note_on_c, 0, 75, 49
1, 85266, Control_c, 0, 64, 93
1, 85281, Control_c, 0, 64, 92
1, 85284, Note_off_c, 0, 53, 43
1, 85296, Control_c, 0, 64, 90
1, 85298, Note_on_c, 0, 66, 27
1, 85308, Note_on_c, 0, 51, 39
1, 85311, Control_c, 0, 64, 89
1, 85325, Control_c, 0, 64, 87
1, 85326, Note_on_c, 0, 59, 23
1, 85340, Control_c, 0, 64, 86
1, 85355, Control_c, 0, 64, 83
1, 85370, Control_c, 0, 64, 81
1, 85385, Control_c, 0, 64, 76
1, 85399, Control_c, 0, 64, 71
1, 85414, Control_c, 0, 64, 67
1, 85418, Note_off_c, 0, 70, 31
1, 85429, Control_c, 0, 64, 66
1, 85443, Control_c, 0, 64, 67
1, 85458, Control_c, 0, 64, 67
1, 85473, Control_c, 0, 64, 68
1, 85488, Control_c, 0, 64, 69
1, 85503, Control_c, 0, 64, 71
1, 85517, Control_c, 0, 64, 74
1, 85532, Control_c, 0, 64, 77
1, 85547, Control_c, 0, 64, 80
1, 85562, Control_c, 0, 64, 81
1, 85573, Note_on_c, 0, 71, 57
1, 85576, Control_c, 0, 64, 83
1, 85591, Control_c, 0, 64, 85
1, 85599, Note_on_c, 0, 63, 40
1, 85606, Control_c, 0, 64, 88
1, 85609, Note_off_c, 0, 66, 40
1, 85612, Note_off_c, 0, 75, 45
1, 85621, Control_c, 0, 64, 91
1, 85627, Note_off_c, 0, 59, 41
1, 85636, Control_c, 0, 64, 93
1, 85641, Note_off_c, 0, 51, 46
1, 85651, Control_c, 0, 64, 95
1, 85666, Control_c, 0, 64, 96
1, 85681, Control_c, 0, 64, 98
1, 85695, Control_c, 0, 64, 100
1, 85710, Control_c, 0, 64, 101
1, 85725, Control_c, 0, 64, 103
1, 85728, Note_off_c, 0, 71, 58
1, 85734, Note_off_c, 0, 63, 35
1, 85737, Note_on_c, 0, 75, 55
1, 85738, Note_on_c, 0, 66, 50
1, 85740, Control_c, 0, 64, 103
1, 85755, Control_c, 0, 64, 104
1, 85769, Control_c, 0, 64, 105
1, 85784, Control_c, 0, 64, 106
1, 85788, Note_off_c, 0, 66, 53
1, 85799, Control_c, 0, 64, 107
1, 85814, Control_c, 0, 64, 108
1, 85829, Control_c, 0, 64, 108
1, 85843, Control_c, 0, 64, 109
1, 85853, Note_off_c, 0, 75, 36
1, 85858, Control_c, 0, 64, 110
1, 85873, Control_c, 0, 64, 110
1, 85888, Control_c, 0, 64, 111
1, 85891, Note_on_c, 0, 70, 50
1, 85907, Note_on_c, 0, 61, 43
1, 85917, Control_c, 0, 64, 112
1, 85932, Control_c, 0, 64, 113
1, 85970, Control_c, 0, 64, 114
1, 85985, Control_c, 0, 64, 114
1, 85990, Note_off_c, 0, 61, 38
1, 86015, Control_c, 0, 64, 115
1, 86074, Note_on_c, 0, 75, 41
1, 86101, Note_on_c, 0, 34, 40
1, 86105, Note_on_c, 0, 66, 24
1, 86114, Note_off_c, 0, 70, 37
1, 86118, Note_off_c, 0, 75, 49
1, 86141, Note_off_c, 0, 66, 47
1, 86283, Note_on_c, 0, 68, 51
1, 86301, Note_on_c, 0, 59, 37
1, 86352, Note_off_c, 0, 59, 47
1, 86414, Control_c, 0, 64, 114
1, 86444, Control_c, 0, 64, 114
1, 86459, Control_c, 0, 64, 113
1, 86473, Control_c, 0, 64, 112
1, 86488, Control_c, 0, 64, 110
1, 86503, Control_c, 0, 64, 110
1, 86518, Control_c, 0, 64, 109
1, 86533, Control_c, 0, 64, 109
1, 86547, Control_c, 0, 64, 108
1, 86562, Control_c, 0, 64, 107
1, 86577, Control_c, 0, 64, 106
1, 86578, Note_off_c, 0, 68, 37
1, 86591, Control_c, 0, 64, 104
1, 86606, Control_c, 0, 64, 102
1, 86621, Control_c, 0, 64, 100
1, 86636, Control_c, 0, 64, 98
1, 86651, Control_c, 0, 64, 94
1, 86665, Control_c, 0, 64, 89
1, 86668, Note_on_c, 0, 46, 48
1, 86680, Control_c, 0, 64, 81
1, 86695, Control_c, 0, 64, 75
1, 86718, Control_c, 0, 64, 69
1, 86732, Note_on_c, 0, 58, 53
1, 86733, Control_c, 0, 64, 66
1, 86748, Control_c, 0, 64, 65
1, 86763, Control_c, 0, 64, 66
1, 86777, Control_c, 0, 64, 68
1, 86792, Control_c, 0, 64, 69
1, 86807, Control_c, 0, 64, 71
1, 86822, Control_c, 0, 64, 74
1, 86837, Control_c, 0, 64, 77
1, 86842, Note_off_c, 0, 34, 50
1, 86852, Control_c, 0, 64, 79
1, 86867, Control_c, 0, 64, 81
1, 86882, Control_c, 0, 64, 83
1, 86896, Control_c, 0, 64, 85
1, 86911, Control_c, 0, 64, 88
1, 86916, Note_on_c, 0, 70, 43
1, 86922, Note_off_c, 0, 46, 48
1, 86926, Control_c, 0, 64, 91
1, 86941, Control_c, 0, 64, 95
1, 86956, Control_c, 0, 64, 99
1, 86970, Control_c, 0, 64, 103
1, 86984, Note_off_c, 0, 58, 38
1, 86985, Control_c, 0, 64, 106
1, 87000, Control_c, 0, 64, 110
1, 87014, Control_c, 0, 64, 115
1, 87029, Control_c, 0, 64, 127
1, 87091, Note_off_c, 0, 70, 37
1, 87121, Note_on_c, 0, 71, 28
1, 87174, Note_off_c, 0, 71, 46
1, 87221, Note_on_c, 0, 70, 41
1, 87275, Note_off_c, 0, 70, 58
1, 87309, Note_on_c, 0, 71, 31
1, 87355, Note_off_c, 0, 71, 49
1, 87390, Note_on_c, 0, 70, 40
1, 87431, Note_off_c, 0, 70, 49
1, 87471, Note_on_c, 0, 71, 39
1, 87498, Note_off_c, 0, 71, 57
1, 87526, Note_on_c, 0, 70, 40
1, 87570, Note_off_c, 0, 70, 53
1, 87600, Note_on_c, 0, 71, 36
1, 87629, Note_on_c, 0, 50, 41
1, 87633, Note_on_c, 0, 58, 41
1, 87640, Note_on_c, 0, 53, 37
1, 87644, Note_off_c, 0, 71, 51
1, 87648, Note_on_c, 0, 62, 32
1, 87678, Note_on_c, 0, 70, 41
1, 87713, Note_off_c, 0, 70, 54
1, 87750, Note_on_c, 0, 71, 41
1, 87778, Note_off_c, 0, 58, 34
1, 87778, Note_off_c, 0, 71, 56
1, 87783, Note_off_c, 0, 62, 32
1, 87790, Note_off_c, 0, 50, 36
1, 87794, Note_off_c, 0, 53, 36
1, 87812, Note_on_c, 0, 70, 44
1, 87842, Note_off_c, 0, 70, 56
1, 87868, Note_on_c, 0, 71, 41
1, 87902, Note_off_c, 0, 71, 52
1, 87913, Note_on_c, 0, 53, 47
1, 87915, Note_on_c, 0, 50, 47
1, 87918, Note_on_c, 0, 58, 48
1, 87932, Note_on_c, 0, 62, 43
1, 87936, Note_on_c, 0, 70, 49
1, 87968, Note_off_c, 0, 70, 58
1, 88006, Note_on_c, 0, 71, 39
1, 88034, Note_off_c, 0, 71, 56
1, 88037, Note_off_c, 0, 53, 61
1, 88038, Note_off_c, 0, 62, 53
1, 88057, Note_on_c, 0, 70, 47
1, 88059, Note_off_c, 0, 58, 44
1, 88072, Note_off_c, 0, 50, 63
1, 88093, Note_off_c, 0, 70, 60
1, 88110, Note_on_c, 0, 71, 60
1, 88161, Note_off_c, 0, 71, 57
1, 88179, Note_on_c, 0, 70, 57
1, 88227, Note_off_c, 0, 70, 56
1, 88265, Note_on_c, 0, 71, 44
1, 88292, Note_off_c, 0, 71, 57
1, 88312, Note_on_c, 0, 70, 48
1, 88349, Note_off_c, 0, 70, 62
1, 88382, Note_on_c, 0, 71, 47
1, 88411, Note_off_c, 0, 71, 54
1, 88434, Note_on_c, 0, 70, 54
1, 88468, Note_off_c, 0, 70, 62
1, 88510, Note_on_c, 0, 71, 40
1, 88535, Note_on_c, 0, 34, 56
1, 88537, Note_off_c, 0, 71, 58
1, 88543, Note_on_c, 0, 46, 52
1, 88555, Note_on_c, 0, 70, 50
1, 88584, Note_off_c, 0, 70, 59
1, 88620, Note_on_c, 0, 71, 55
1, 88654, Note_off_c, 0, 34, 53
1, 88661, Note_off_c, 0, 71, 61
1, 88667, Note_off_c, 0, 46, 52
1, 88678, Note_on_c, 0, 70, 50
1, 88781, Note_on_c, 0, 34, 55
1, 88808, Note_on_c, 0, 46, 58
1, 88823, Note_on_c, 0, 75, 53
1, 88849, Note_off_c, 0, 70, 57
1, 88894, Note_on_c, 0, 71, 28
1, 88908, Note_off_c, 0, 75, 46
1, 88924, Note_off_c, 0, 34, 49
1, 88926, Note_on_c, 0, 70, 32
1, 88927, Note_on_c, 0, 74, 60
1, 88935, Note_off_c, 0, 71, 48
1, 88977, Note_off_c, 0, 46, 57
1, 89008, Note_off_c, 0, 74, 63
1, 89029, Note_on_c, 0, 75, 57
1, 89071, Note_off_c, 0, 75, 60
1, 89082, Note_off_c, 0, 70, 0
1, 89091, Note_on_c, 0, 74, 61
1, 89120, Poly_aftertouch_c, 0, 70, 127
1, 89137, Note_off_c, 0, 74, 64
1, 89158, Poly_aftertouch_c, 0, 70, 0
1, 89160, Note_on_c, 0, 75, 43
1, 89196, Note_off_c, 0, 75, 53
1, 89213, Note_on_c, 0, 74, 53
1, 89245, Note_off_c, 0, 74, 67
1, 89270, Note_on_c, 0, 75, 41
1, 89299, Note_off_c, 0, 75, 57
1, 89325, Note_on_c, 0, 74, 71
1, 89362, Note_off_c, 0, 74, 60
1, 89378, Note_on_c, 0, 75, 65
1, 89422, Note_off_c, 0, 75, 57
1, 89436, Poly_aftertouch_c, 0, 70, 0
1, 89438, Note_on_c, 0, 74, 72
1, 89454, Note_on_c, 0, 70, 30
1, 89469, Note_on_c, 0, 58, 56
1, 89475, Note_on_c, 0, 65, 54
1, 89478, Note_on_c, 0, 53, 57
1, 89487, Note_off_c, 0, 70, 51
1, 89487, Note_off_c, 0, 74, 65
1, 89506, Note_on_c, 0, 75, 48
1, 89540, Note_off_c, 0, 75, 53
1, 89558, Note_on_c, 0, 74, 62
1, 89559, Control_c, 0, 67, 125
1, 89559, Note_on_c, 0, 70, 62
1, 89573, Control_c, 0, 67, 123
1, 89588, Note_off_c, 0, 70, 67
1, 89588, Control_c, 0, 67, 122
1, 89593, Note_off_c, 0, 74, 64
1, 89603, Control_c, 0, 67, 119
1, 89617, Control_c, 0, 67, 117
1, 89618, Note_on_c, 0, 75, 50
1, 89632, Control_c, 0, 67, 115
1, 89647, Control_c, 0, 67, 114
1, 89648, Note_off_c, 0, 75, 56
1, 89654, Note_off_c, 0, 53, 57
1, 89661, Note_on_c, 0, 70, 70
1, 89662, Control_c, 0, 67, 113
1, 89666, Note_off_c, 0, 65, 37
1, 89676, Note_on_c, 0, 74, 70
1, 89677, Control_c, 0, 67, 111
1, 89690, Note_off_c, 0, 58, 37
1, 89691, Control_c, 0, 67, 110
1, 89696, Note_off_c, 0, 70, 63
1, 89714, Control_c, 0, 67, 109
1, 89715, Note_off_c, 0, 74, 64
1, 89729, Control_c, 0, 67, 108
1, 89740, Note_on_c, 0, 75, 39
1, 89743, Control_c, 0, 67, 107
1, 89758, Control_c, 0, 67, 106
1, 89770, Note_off_c, 0, 75, 55
1, 89773, Control_c, 0, 67, 106
1, 89779, Note_on_c, 0, 74, 67
1, 89787, Note_on_c, 0, 70, 55
1, 89788, Control_c, 0, 67, 105
1, 89803, Control_c, 0, 67, 104
1, 89808, Note_on_c, 0, 65, 63
1, 89809, Note_on_c, 0, 58, 66
1, 89812, Note_on_c, 0, 53, 60
1, 89817, Control_c, 0, 67, 103
1, 89818, Note_off_c, 0, 70, 61
1, 89832, Control_c, 0, 67, 102
1, 89833, Note_off_c, 0, 74, 65
1, 89847, Control_c, 0, 67, 101
1, 89849, Note_on_c, 0, 75, 49
1, 89862, Control_c, 0, 67, 101
1, 89877, Control_c, 0, 67, 100
1, 89880, Note_off_c, 0, 75, 52
1, 89891, Control_c, 0, 67, 99
1, 89901, Note_on_c, 0, 70, 59
1, 89905, Note_on_c, 0, 74, 61
1, 89906, Control_c, 0, 67, 98
1, 89921, Control_c, 0, 67, 97
1, 89937, Note_off_c, 0, 70, 65
1, 89937, Control_c, 0, 67, 96
1, 89944, Note_off_c, 0, 74, 63
1, 89952, Control_c, 0, 67, 96
1, 89959, Note_on_c, 0, 75, 56
1, 89967, Control_c, 0, 67, 95
1, 89982, Control_c, 0, 67, 94
1, 89986, Note_off_c, 0, 75, 52
1, 89994, Note_off_c, 0, 65, 56
1, 89996, Control_c, 0, 67, 94
1, 90011, Control_c, 0, 67, 93
1, 90016, Note_on_c, 0, 70, 67
1, 90025, Note_on_c, 0, 74, 63
1, 90026, Control_c, 0, 67, 92
1, 90036, Note_off_c, 0, 58, 57
1, 90040, Control_c, 0, 67, 92
1, 90048, Note_off_c, 0, 70, 65
1, 90062, Note_off_c, 0, 74, 65
1, 90069, Note_on_c, 0, 75, 60
1, 90070, Control_c, 0, 67, 91
1, 90082, Note_off_c, 0, 53, 64
1, 90085, Control_c, 0, 67, 90
1, 90100, Control_c, 0, 67, 89
1, 90114, Control_c, 0, 67, 89
1, 90125, Note_off_c, 0, 75, 56
1, 90129, Control_c, 0, 67, 88
1, 90135, Note_on_c, 0, 70, 68
1, 90137, Note_on_c, 0, 74, 68
1, 90144, Control_c, 0, 67, 87
1, 90158, Control_c, 0, 67, 86
1, 90170, Note_off_c, 0, 70, 60
1, 90173, Control_c, 0, 67, 85
1, 90185, Note_on_c, 0, 75, 38
1, 90185, Note_off_c, 0, 74, 63
1, 90188, Control_c, 0, 67, 85
1, 90203, Control_c, 0, 67, 84
1, 90218, Control_c, 0, 67, 84
1, 90232, Control_c, 0, 67, 83
1, 90233, Note_off_c, 0, 75, 59
1, 90247, Note_on_c, 0, 74, 63
1, 90247, Control_c, 0, 67, 82
1, 90251, Note_on_c, 0, 70, 65
1, 90262, Control_c, 0, 67, 82
1, 90277, Control_c, 0, 67, 81
1, 90291, Note_off_c, 0, 70, 57
1, 90292, Control_c, 0, 67, 80
1, 90303, Note_off_c, 0, 74, 66
1, 90307, Note_on_c, 0, 75, 52
1, 90307, Control_c, 0, 67, 79
1, 90322, Control_c, 0, 67, 78
1, 90337, Control_c, 0, 67, 78
1, 90352, Control_c, 0, 67, 77
1, 90364, Note_off_c, 0, 75, 58
1, 90367, Control_c, 0, 67, 77
1, 90373, Note_on_c, 0, 74, 69
1, 90381, Control_c, 0, 67, 76
1, 90382, Note_on_c, 0, 70, 65
1, 90396, Control_c, 0, 67, 75
1, 90411, Note_off_c, 0, 70, 60
1, 90411, Control_c, 0, 67, 75
1, 90426, Control_c, 0, 67, 74
1, 90426, Note_off_c, 0, 74, 66
1, 90444, Note_on_c, 0, 75, 55
1, 90463, Control_c, 0, 67, 74
1, 90493, Control_c, 0, 67, 73
1, 90501, Note_off_c, 0, 75, 62
1, 90508, Note_on_c, 0, 70, 64
1, 90509, Note_on_c, 0, 74, 71
1, 90537, Control_c, 0, 67, 73
1, 90549, Note_off_c, 0, 70, 54
1, 90563, Note_off_c, 0, 74, 66
1, 90569, Note_on_c, 0, 75, 64
1, 90581, Control_c, 0, 67, 72
1, 90596, Note_on_c, 0, 44, 82
1, 90596, Control_c, 0, 67, 72
1, 90599, Note_on_c, 0, 32, 77
1, 90611, Control_c, 0, 67, 70
1, 90626, Control_c, 0, 67, 69
1, 90629, Note_off_c, 0, 75, 63
1, 90641, Control_c, 0, 67, 67
1, 90644, Note_on_c, 0, 74, 65
1, 90654, Note_on_c, 0, 70, 51
1, 90656, Control_c, 0, 67, 65
1, 90671, Control_c, 0, 67, 64
1, 90678, Note_off_c, 0, 70, 57
1, 90685, Control_c, 0, 67, 62
1, 90693, Note_off_c, 0, 74, 63
1, 90699, Note_on_c, 0, 75, 60
1, 90700, Control_c, 0, 67, 61
1, 90715, Control_c, 0, 67, 59
1, 90730, Control_c, 0, 67, 58
1, 90745, Control_c, 0, 67, 57
1, 90756, Note_off_c, 0, 75, 60
1, 90760, Control_c, 0, 67, 56
1, 90765, Note_on_c, 0, 74, 64
1, 90767, Note_on_c, 0, 70, 58
1, 90775, Control_c, 0, 67, 55
1, 90789, Control_c, 0, 67, 54
1, 90801, Note_off_c, 0, 70, 64
1, 90804, Control_c, 0, 67, 53
1, 90817, Note_off_c, 0, 74, 66
1, 90819, Note_on_c, 0, 75, 57
1, 90819, Control_c, 0, 67, 52
1, 90834, Control_c, 0, 67, 50
1, 90849, Control_c, 0, 67, 49
1, 90863, Control_c, 0, 67, 48
1, 90872, Note_on_c, 0, 74, 65
1, 90873, Note_on_c, 0, 70, 63
1, 90873, Note_off_c, 0, 75, 59
1, 90878, Control_c, 0, 67, 46
1, 90893, Control_c, 0, 67, 45
1, 90901, Note_off_c, 0, 70, 66
1, 90906, Note_on_c, 0, 75, 43
1, 90908, Control_c, 0, 67, 44
1, 90923, Control_c, 0, 67, 43
1, 90925, Note_off_c, 0, 74, 65
1, 90937, Control_c, 0, 67, 42
1, 90952, Control_c, 0, 67, 42
1, 90965, Note_on_c, 0, 70, 70
1, 90967, Control_c, 0, 67, 41
1, 90973, Note_on_c, 0, 74, 70
1, 90981, Control_c, 0, 67, 39
1, 90983, Note_off_c, 0, 75, 60
1, 90996, Control_c, 0, 67, 37
1, 91011, Control_c, 0, 67, 34
1, 91012, Note_off_c, 0, 44, 60
1, 91026, Control_c, 0, 67, 33
1, 91037, Note_off_c, 0, 70, 0
1, 91041, Control_c, 0, 67, 33
1, 91060, Note_on_c, 0, 70, 14
1, 91106, Note_on_c, 0, 42, 80
1, 91109, Note_on_c, 0, 30, 78
1, 91112, Note_off_c, 0, 32, 60
1, 91145, Control_c, 0, 64, 103
1, 91159, Control_c, 0, 64, 89
1, 91162, Note_on_c, 0, 75, 67
1, 91169, Note_off_c, 0, 74, 59
1, 91174, Note_on_c, 0, 71, 60
1, 91174, Control_c, 0, 64, 79
1, 91189, Control_c, 0, 64, 72
1, 91211, Control_c, 0, 64, 69
1, 91218, Note_off_c, 0, 70, 48
1, 91241, Control_c, 0, 64, 72
1, 91256, Control_c, 0, 64, 77
1, 91270, Control_c, 0, 64, 81
1, 91285, Control_c, 0, 64, 85
1, 91300, Control_c, 0, 64, 87
1, 91315, Control_c, 0, 64, 90
1, 91329, Note_off_c, 0, 30, 60
1, 91330, Control_c, 0, 64, 94
1, 91343, Note_on_c, 0, 73, 60
1, 91344, Note_on_c, 0, 70, 33
1, 91344, Control_c, 0, 64, 101
1, 91348, Note_off_c, 0, 75, 48
1, 91359, Control_c, 0, 64, 107
1, 91374, Control_c, 0, 64, 114
1, 91389, Control_c, 0, 64, 127
1, 91412, Note_off_c, 0, 71, 38
1, 91418, Note_off_c, 0, 73, 61
1, 91428, Note_off_c, 0, 42, 61
1, 91430, Note_off_c, 0, 70, 56
1, 91449, Control_c, 0, 67, 32
1, 91461, Note_on_c, 0, 75, 57
1, 91499, Note_off_c, 0, 75, 59
1, 91507, Control_c, 0, 67, 32
1, 91528, Note_on_c, 0, 73, 63
1, 91536, Note_on_c, 0, 70, 50
1, 91562, Note_off_c, 0, 73, 65
1, 91566, Note_off_c, 0, 70, 66
1, 91634, Note_on_c, 0, 75, 41
1, 91647, Note_on_c, 0, 70, 56
1, 91648, Note_on_c, 0, 73, 67
1, 91672, Poly_aftertouch_c, 0, 71, 127
1, 91687, Note_off_c, 0, 70, 60
1, 91693, Note_off_c, 0, 73, 54
1, 91712, Note_on_c, 0, 71, 28
1, 91748, Note_on_c, 0, 70, 46
1, 91756, Note_on_c, 0, 73, 48
1, 91762, Note_off_c, 0, 71, 44
1, 91794, Note_off_c, 0, 70, 58
1, 91796, Note_off_c, 0, 73, 62
1, 91819, Note_on_c, 0, 49, 68
1, 91848, Note_on_c, 0, 70, 57
1, 91851, Note_off_c, 0, 75, 0
1, 91863, Note_on_c, 0, 73, 57
1, 91872, Note_on_c, 0, 75, 28
1, 91887, Note_off_c, 0, 70, 58
1, 91890, Poly_aftertouch_c, 0, 71, 0
1, 91897, Note_off_c, 0, 73, 63
1, 91908, Note_on_c, 0, 71, 48
1, 91959, Note_off_c, 0, 71, 55
1, 91964, Note_on_c, 0, 70, 57
1, 91979, Note_off_c, 0, 75, 0
1, 91994, Note_off_c, 0, 70, 65
1, 92003, Note_on_c, 0, 73, 31
1, 92015, Poly_aftertouch_c, 0, 75, 127
1, 92022, Note_on_c, 0, 71, 52
1, 92047, Note_off_c, 0, 71, 59
1, 92061, Note_on_c, 0, 70, 67
1, 92070, Note_off_c, 0, 73, 0
1, 92070, Note_on_c, 0, 73, 27
1, 92095, Note_off_c, 0, 70, 61
1, 92110, Note_off_c, 0, 73, 50
1, 92115, Note_on_c, 0, 71, 69
1, 92141, Note_off_c, 0, 71, 62
1, 92161, Note_on_c, 0, 70, 65
1, 92176, Note_on_c, 0, 73, 50
1, 92183, Control_c, 0, 67, 32
1, 92190, Note_off_c, 0, 70, 59
1, 92198, Control_c, 0, 67, 33
1, 92206, Note_on_c, 0, 56, 73
1, 92209, Note_off_c, 0, 49, 61
1, 92210, Note_off_c, 0, 73, 61
1, 92231, Note_on_c, 0, 71, 53
1, 92242, Control_c, 0, 67, 33
1, 92250, Note_off_c, 0, 71, 65
1, 92269, Note_on_c, 0, 70, 59
1, 92272, Control_c, 0, 67, 34
1, 92280, Note_on_c, 0, 73, 44
1, 92286, Control_c, 0, 67, 35
1, 92297, Note_off_c, 0, 70, 65
1, 92301, Control_c, 0, 67, 35
1, 92308, Note_off_c, 0, 73, 57
1, 92322, Note_on_c, 0, 71, 60
1, 92332, Control_c, 0, 67, 36
1, 92344, Note_off_c, 0, 71, 60
1, 92347, Control_c, 0, 67, 36
1, 92361, Control_c, 0, 67, 37
1, 92363, Note_on_c, 0, 70, 70
1, 92376, Control_c, 0, 67, 37
1, 92391, Note_off_c, 0, 70, 58
1, 92406, Control_c, 0, 67, 38
1, 92432, Note_on_c, 0, 71, 48
1, 92435, Control_c, 0, 67, 38
1, 92441, Poly_aftertouch_c, 0, 73, 127
1, 92450, Control_c, 0, 67, 39
1, 92454, Note_off_c, 0, 71, 60
1, 92476, Note_on_c, 0, 70, 58
1, 92479, Note_off_c, 0, 56, 60
1, 92480, Note_on_c, 0, 54, 61
1, 92501, Note_off_c, 0, 70, 63
1, 92510, Control_c, 0, 67, 40
1, 92525, Control_c, 0, 67, 40
1, 92531, Note_on_c, 0, 71, 58
1, 92540, Control_c, 0, 67, 41
1, 92552, Note_off_c, 0, 71, 60
1, 92553, Poly_aftertouch_c, 0, 73, 0
1, 92569, Control_c, 0, 67, 41
1, 92572, Note_on_c, 0, 70, 65
1, 92574, Note_on_c, 0, 73, 34
1, 92599, Note_on_c, 0, 56, 59
1, 92599, Control_c, 0, 67, 42
1, 92599, Note_off_c, 0, 70, 66
1, 92625, Note_off_c, 0, 73, 47
1, 92628, Control_c, 0, 67, 42
1, 92646, Note_on_c, 0, 71, 38
1, 92656, Note_off_c, 0, 54, 37
1, 92671, Note_off_c, 0, 71, 59
1, 92683, Note_on_c, 0, 70, 57
1, 92711, Note_on_c, 0, 73, 27
1, 92714, Note_off_c, 0, 70, 65
1, 92718, Note_off_c, 0, 56, 60
1, 92738, Note_on_c, 0, 58, 56
1, 92759, Note_on_c, 0, 71, 45
1, 92784, Note_off_c, 0, 73, 0
1, 92784, Control_c, 0, 67, 42
1, 92785, Note_off_c, 0, 71, 59
1, 92786, Note_on_c, 0, 70, 55
1, 92798, Note_on_c, 0, 73, 46
1, 92817, Note_off_c, 0, 70, 59
1, 92829, Control_c, 0, 67, 41
1, 92839, Note_off_c, 0, 73, 60
1, 92887, Note_on_c, 0, 71, 25
1, 92896, Note_on_c, 0, 70, 59
1, 92915, Note_on_c, 0, 73, 50
1, 92923, Note_off_c, 0, 70, 60
1, 92945, Note_off_c, 0, 73, 57
1, 92947, Note_off_c, 0, 71, 0
1, 92969, Note_on_c, 0, 71, 16
1, 92993, Note_on_c, 0, 70, 53
1, 93011, Note_off_c, 0, 71, 50
1, 93020, Note_on_c, 0, 73, 47
1, 93021, Control_c, 0, 67, 41
1, 93022, Note_off_c, 0, 70, 60
1, 93043, Note_on_c, 0, 49, 46
1, 93060, Note_off_c, 0, 73, 45
1, 93064, Note_on_c, 0, 71, 42
1, 93065, Control_c, 0, 67, 40
1, 93091, Note_off_c, 0, 71, 56
1, 93104, Note_on_c, 0, 70, 47
1, 93114, Note_on_c, 0, 73, 44
1, 93115, Note_off_c, 0, 58, 36
1, 93125, Control_c, 0, 67, 40
1, 93149, Note_off_c, 0, 70, 44
1, 93169, Note_off_c, 0, 73, 53
1, 93180, Note_on_c, 0, 71, 51
1, 93231, Note_on_c, 0, 73, 53
1, 93234, Note_off_c, 0, 71, 59
1, 93251, Poly_aftertouch_c, 0, 75, 0
1, 93262, Note_off_c, 0, 49, 51
1, 93269, Note_on_c, 0, 70, 62
1, 93273, Control_c, 0, 64, 121
1, 93288, Control_c, 0, 64, 114
1, 93296, Note_on_c, 0, 42, 48
1, 93303, Control_c, 0, 64, 109
1, 93318, Control_c, 0, 64, 104
1, 93333, Control_c, 0, 64, 98
1, 93347, Control_c, 0, 64, 90
1, 93362, Control_c, 0, 64, 83
1, 93377, Control_c, 0, 64, 76
1, 93392, Control_c, 0, 64, 71
1, 93407, Control_c, 0, 64, 68
1, 93437, Control_c, 0, 64, 69
1, 93458, Control_c, 0, 64, 70
1, 93473, Control_c, 0, 64, 72
1, 93488, Control_c, 0, 64, 74
1, 93503, Control_c, 0, 64, 77
1, 93503, Control_c, 0, 67, 39
1, 93518, Control_c, 0, 64, 79
1, 93532, Control_c, 0, 64, 80
1, 93547, Control_c, 0, 64, 81
1, 93547, Control_c, 0, 67, 39
1, 93562, Control_c, 0, 64, 83
1, 93562, Control_c, 0, 67, 38
1, 93577, Control_c, 0, 64, 86
1, 93577, Control_c, 0, 67, 38
1, 93592, Control_c, 0, 64, 88
1, 93595, Note_on_c, 0, 72, 64
1, 93607, Control_c, 0, 64, 90
1, 93607, Control_c, 0, 67, 37
1, 93611, Note_on_c, 0, 69, 60
1, 93616, Note_on_c, 0, 49, 56
1, 93622, Control_c, 0, 64, 92
1, 93637, Control_c, 0, 64, 94
1, 93637, Control_c, 0, 67, 37
1, 93651, Control_c, 0, 64, 95
1, 93654, Note_off_c, 0, 42, 37
1, 93657, Note_off_c, 0, 70, 31
1, 93666, Control_c, 0, 64, 98
1, 93668, Note_off_c, 0, 73, 36
1, 93681, Control_c, 0, 64, 100
1, 93696, Control_c, 0, 64, 102
1, 93696, Control_c, 0, 67, 36
1, 93710, Control_c, 0, 64, 103
1, 93718, Note_off_c, 0, 72, 60
1, 93725, Control_c, 0, 64, 103
1, 93725, Control_c, 0, 67, 36
1, 93755, Control_c, 0, 64, 104
1, 93761, Note_off_c, 0, 49, 54
1, 93768, Control_c, 0, 64, 105
1, 93768, Control_c, 0, 67, 35
1, 93783, Control_c, 0, 64, 106
1, 93798, Control_c, 0, 64, 106
1, 93798, Control_c, 0, 67, 34
1, 93809, Note_on_c, 0, 73, 56
1, 93826, Note_on_c, 0, 70, 63
1, 93827, Note_on_c, 0, 56, 57
1, 93827, Control_c, 0, 67, 34
1, 93842, Control_c, 0, 67, 33
1, 93860, Note_off_c, 0, 69, 59
1, 93872, Control_c, 0, 67, 33
1, 93892, Note_off_c, 0, 73, 63
1, 93935, Note_off_c, 0, 70, 57
1, 93938, Note_on_c, 0, 77, 67
1, 93976, Control_c, 0, 64, 106
1, 93991, Control_c, 0, 64, 104
1, 94006, Control_c, 0, 64, 103
1, 94021, Control_c, 0, 64, 101
1, 94036, Control_c, 0, 64, 100
1, 94051, Control_c, 0, 64, 98
1, 94051, Control_c, 0, 67, 33
1, 94054, Note_on_c, 0, 75, 73
1, 94057, Note_off_c, 0, 56, 36
1, 94066, Control_c, 0, 64, 95
1, 94066, Control_c, 0, 67, 34
1, 94073, Note_on_c, 0, 54, 55
1, 94080, Control_c, 0, 64, 89
1, 94082, Note_on_c, 0, 71, 50
1, 94086, Note_off_c, 0, 77, 60
1, 94095, Control_c, 0, 64, 79
1, 94110, Control_c, 0, 64, 70
1, 94110, Control_c, 0, 67, 34
1, 94125, Control_c, 0, 64, 64
1, 94140, Control_c, 0, 64, 62
1, 94140, Control_c, 0, 67, 35
1, 94154, Control_c, 0, 64, 63
1, 94154, Control_c, 0, 67, 36
1, 94165, Note_off_c, 0, 71, 60
1, 94169, Control_c, 0, 64, 64
1, 94169, Control_c, 0, 67, 36
1, 94179, Note_on_c, 0, 56, 55
1, 94184, Control_c, 0, 64, 66
1, 94206, Control_c, 0, 64, 68
1, 94221, Control_c, 0, 64, 70
1, 94221, Control_c, 0, 67, 37
1, 94236, Control_c, 0, 64, 72
1, 94236, Control_c, 0, 67, 37
1, 94251, Control_c, 0, 64, 73
1, 94266, Control_c, 0, 64, 76
1, 94280, Control_c, 0, 64, 78
1, 94285, Note_on_c, 0, 73, 79
1, 94289, Note_on_c, 0, 70, 64
1, 94295, Note_off_c, 0, 54, 31
1, 94295, Control_c, 0, 64, 81
1, 94301, Note_on_c, 0, 58, 55
1, 94310, Control_c, 0, 64, 83
1, 94325, Control_c, 0, 64, 85
1, 94336, Note_off_c, 0, 75, 60
1, 94339, Control_c, 0, 64, 86
1, 94343, Note_off_c, 0, 56, 51
1, 94354, Control_c, 0, 64, 88
1, 94369, Control_c, 0, 64, 91
1, 94384, Control_c, 0, 64, 94
1, 94399, Control_c, 0, 64, 96
1, 94404, Note_off_c, 0, 70, 37
1, 94413, Control_c, 0, 64, 99
1, 94413, Control_c, 0, 67, 37
1, 94428, Control_c, 0, 64, 102
1, 94443, Control_c, 0, 64, 105
1, 94458, Control_c, 0, 64, 108
1, 94473, Control_c, 0, 64, 110
1, 94487, Control_c, 0, 64, 112
1, 94502, Control_c, 0, 64, 113
1, 94518, Control_c, 0, 64, 115
1, 94532, Control_c, 0, 64, 118
1, 94547, Control_c, 0, 64, 122
1, 94551, Note_off_c, 0, 58, 36
1, 94562, Control_c, 0, 64, 127
1, 94608, Note_on_c, 0, 61, 43
1, 94608, Note_on_c, 0, 70, 75
1, 94621, Control_c, 0, 67, 37
1, 94630, Note_on_c, 0, 66, 62
1, 94636, Control_c, 0, 67, 38
1, 94644, Note_off_c, 0, 61, 52
1, 94649, Note_off_c, 0, 73, 61
1, 94666, Control_c, 0, 67, 38
1, 94695, Control_c, 0, 67, 39
1, 94710, Control_c, 0, 67, 39
1, 94726, Control_c, 0, 67, 40
1, 94741, Control_c, 0, 67, 40
1, 94770, Control_c, 0, 67, 41
1, 94781, Note_off_c, 0, 66, 28
1, 94785, Control_c, 0, 67, 42
1, 94800, Control_c, 0, 67, 42
1, 94815, Control_c, 0, 67, 43
1, 94829, Control_c, 0, 67, 43
1, 94859, Control_c, 0, 67, 44
1, 94889, Control_c, 0, 67, 44
1, 94903, Control_c, 0, 67, 45
1, 94933, Control_c, 0, 67, 45
1, 94970, Control_c, 0, 64, 126
1, 94985, Control_c, 0, 64, 120
1, 94985, Control_c, 0, 67, 46
1, 95000, Control_c, 0, 64, 118
1, 95007, Note_on_c, 0, 42, 44
1, 95015, Control_c, 0, 64, 116
1, 95029, Control_c, 0, 64, 114
1, 95044, Note_on_c, 0, 78, 75
1, 95044, Control_c, 0, 64, 112
1, 95059, Control_c, 0, 64, 109
1, 95063, Note_on_c, 0, 75, 57
1, 95074, Control_c, 0, 64, 106
1, 95089, Control_c, 0, 64, 101
1, 95103, Control_c, 0, 64, 94
1, 95118, Control_c, 0, 64, 85
1, 95133, Control_c, 0, 64, 77
1, 95148, Control_c, 0, 64, 69
1, 95163, Control_c, 0, 64, 67
1, 95178, Control_c, 0, 64, 67
1, 95189, Note_off_c, 0, 70, 28
1, 95193, Control_c, 0, 64, 69
1, 95193, Control_c, 0, 67, 45
1, 95207, Control_c, 0, 64, 72
1, 95222, Control_c, 0, 64, 75
1, 95237, Control_c, 0, 64, 79
1, 95252, Control_c, 0, 64, 82
1, 95267, Control_c, 0, 64, 84
1, 95282, Control_c, 0, 64, 86
1, 95282, Control_c, 0, 67, 45
1, 95297, Control_c, 0, 64, 88
1, 95311, Control_c, 0, 64, 91
1, 95326, Control_c, 0, 64, 94
1, 95341, Control_c, 0, 64, 97
1, 95341, Control_c, 0, 67, 44
1, 95355, Control_c, 0, 64, 99
1, 95370, Control_c, 0, 64, 102
1, 95385, Control_c, 0, 64, 105
1, 95386, Note_on_c, 0, 49, 61
1, 95400, Control_c, 0, 64, 108
1, 95400, Control_c, 0, 67, 44
1, 95415, Control_c, 0, 64, 110
1, 95429, Control_c, 0, 64, 111
1, 95429, Control_c, 0, 67, 43
1, 95430, Note_off_c, 0, 78, 31
1, 95444, Control_c, 0, 64, 112
1, 95444, Control_c, 0, 67, 43
1, 95459, Control_c, 0, 64, 114
1, 95474, Control_c, 0, 64, 118
1, 95480, Note_on_c, 0, 77, 70
1, 95489, Control_c, 0, 64, 126
1, 95489, Control_c, 0, 67, 42
1, 95494, Note_on_c, 0, 73, 57
1, 95494, Note_off_c, 0, 75, 59
1, 95500, Note_off_c, 0, 42, 40
1, 95503, Control_c, 0, 64, 127
1, 95520, Note_off_c, 0, 73, 63
1, 95534, Control_c, 0, 67, 42
1, 95572, Note_off_c, 0, 49, 58
1, 95593, Control_c, 0, 67, 41
1, 95602, Note_on_c, 0, 75, 64
1, 95617, Note_on_c, 0, 56, 59
1, 95625, Note_off_c, 0, 77, 51
1, 95632, Note_on_c, 0, 71, 61
1, 95663, Note_off_c, 0, 75, 58
1, 95667, Note_off_c, 0, 71, 60
1, 95667, Control_c, 0, 67, 41
1, 95731, Note_on_c, 0, 77, 73
1, 95743, Note_on_c, 0, 73, 42
1, 95762, Note_off_c, 0, 77, 62
1, 95773, Note_off_c, 0, 73, 54
1, 95813, Note_off_c, 0, 56, 39
1, 95853, Note_on_c, 0, 77, 64
1, 95856, Note_on_c, 0, 73, 61
1, 95869, Note_on_c, 0, 54, 55
1, 95882, Control_c, 0, 64, 123
1, 95889, Note_off_c, 0, 73, 64
1, 95897, Control_c, 0, 64, 118
1, 95912, Control_c, 0, 64, 110
1, 95912, Control_c, 0, 67, 41
1, 95925, Note_off_c, 0, 77, 56
1, 95926, Control_c, 0, 64, 102
1, 95941, Control_c, 0, 64, 93
1, 95956, Control_c, 0, 64, 85
1, 95971, Note_on_c, 0, 75, 68
1, 95971, Control_c, 0, 64, 77
1, 95973, Note_off_c, 0, 54, 59
1, 95978, Note_on_c, 0, 71, 56
1, 95980, Note_on_c, 0, 56, 58
1, 95986, Control_c, 0, 64, 72
1, 96000, Control_c, 0, 64, 69
1, 96009, Note_off_c, 0, 71, 67
1, 96030, Control_c, 0, 64, 70
1, 96045, Control_c, 0, 64, 72
1, 96046, Note_off_c, 0, 75, 56
1, 96060, Control_c, 0, 64, 75
1, 96066, Note_off_c, 0, 56, 61
1, 96075, Control_c, 0, 64, 78
1, 96090, Note_on_c, 0, 73, 64
1, 96090, Control_c, 0, 64, 81
1, 96097, Note_on_c, 0, 58, 62
1, 96104, Control_c, 0, 64, 83
1, 96108, Note_on_c, 0, 70, 53
1, 96118, Note_off_c, 0, 73, 65
1, 96119, Control_c, 0, 64, 84
1, 96131, Note_off_c, 0, 70, 58
1, 96134, Control_c, 0, 64, 85
1, 96149, Control_c, 0, 64, 86
1, 96164, Control_c, 0, 64, 87
1, 96178, Control_c, 0, 64, 88
1, 96193, Control_c, 0, 64, 89
1, 96204, Note_on_c, 0, 71, 59
1, 96217, Note_on_c, 0, 75, 66
1, 96223, Control_c, 0, 64, 89
1, 96238, Control_c, 0, 64, 90
1, 96243, Note_off_c, 0, 75, 64
1, 96250, Note_off_c, 0, 71, 64
1, 96252, Control_c, 0, 64, 93
1, 96267, Control_c, 0, 64, 96
1, 96282, Control_c, 0, 64, 98
1, 96331, Note_on_c, 0, 75, 66
1, 96343, Control_c, 0, 64, 97
1, 96346, Note_on_c, 0, 71, 57
1, 96355, Note_on_c, 0, 49, 52
1, 96357, Control_c, 0, 64, 94
1, 96371, Note_off_c, 0, 58, 30
1, 96372, Control_c, 0, 64, 91
1, 96373, Note_off_c, 0, 71, 58
1, 96387, Control_c, 0, 64, 84
1, 96401, Control_c, 0, 64, 77
1, 96416, Control_c, 0, 64, 71
1, 96431, Control_c, 0, 64, 67
1, 96431, Control_c, 0, 67, 41
1, 96468, Control_c, 0, 64, 68
1, 96468, Control_c, 0, 67, 40
1, 96470, Note_on_c, 0, 73, 58
1, 96473, Note_on_c, 0, 70, 46
1, 96483, Control_c, 0, 64, 69
1, 96483, Control_c, 0, 67, 40
1, 96498, Control_c, 0, 64, 71
1, 96513, Control_c, 0, 64, 73
1, 96528, Control_c, 0, 64, 78
1, 96528, Note_off_c, 0, 75, 38
1, 96530, Note_off_c, 0, 70, 60
1, 96543, Control_c, 0, 64, 82
1, 96543, Control_c, 0, 67, 39
1, 96557, Control_c, 0, 64, 86
1, 96572, Control_c, 0, 64, 88
1, 96587, Control_c, 0, 64, 89
1, 96587, Control_c, 0, 67, 39
1, 96601, Control_c, 0, 64, 90
1, 96616, Control_c, 0, 64, 90
1, 96631, Control_c, 0, 64, 91
1, 96689, Note_on_c, 0, 42, 39
1, 96695, Note_off_c, 0, 49, 27
1, 96720, Control_c, 0, 64, 90
1, 96721, Note_on_c, 0, 70, 66
1, 96734, Control_c, 0, 64, 90
1, 96734, Control_c, 0, 67, 38
1, 96749, Control_c, 0, 64, 89
1, 96754, Note_on_c, 0, 66, 52
1, 96764, Control_c, 0, 64, 88
1, 96778, Control_c, 0, 64, 88
1, 96793, Control_c, 0, 64, 87
1, 96808, Control_c, 0, 64, 86
1, 96810, Note_off_c, 0, 73, 57
1, 96823, Control_c, 0, 64, 85
1, 96838, Control_c, 0, 64, 84
1, 96838, Control_c, 0, 67, 38
1, 96853, Control_c, 0, 64, 82
1, 96868, Control_c, 0, 64, 79
1, 96882, Control_c, 0, 64, 75
1, 96897, Control_c, 0, 64, 70
1, 96897, Control_c, 0, 67, 37
1, 96912, Control_c, 0, 64, 67
1, 96926, Control_c, 0, 64, 65
1, 96956, Control_c, 0, 64, 66
1, 96971, Control_c, 0, 64, 67
1, 96986, Control_c, 0, 64, 69
1, 97000, Control_c, 0, 64, 70
1, 97000, Control_c, 0, 67, 37
1, 97005, Note_on_c, 0, 49, 64
1, 97015, Control_c, 0, 64, 73
1, 97030, Control_c, 0, 64, 75
1, 97045, Control_c, 0, 64, 79
1, 97060, Control_c, 0, 64, 81
1, 97074, Control_c, 0, 64, 84
1, 97079, Note_off_c, 0, 42, 43
1, 97089, Control_c, 0, 64, 86
1, 97104, Control_c, 0, 64, 89
1, 97120, Control_c, 0, 64, 92
1, 97120, Control_c, 0, 67, 36
1, 97135, Control_c, 0, 64, 95
1, 97149, Control_c, 0, 64, 98
1, 97164, Control_c, 0, 64, 100
1, 97179, Control_c, 0, 64, 103
1, 97202, Control_c, 0, 64, 106
1, 97217, Control_c, 0, 64, 110
1, 97219, Note_off_c, 0, 49, 58
1, 97231, Control_c, 0, 64, 115
1, 97246, Control_c, 0, 64, 118
1, 97246, Control_c, 0, 67, 36
1, 97252, Note_on_c, 0, 56, 69
1, 97261, Control_c, 0, 64, 119
1, 97291, Control_c, 0, 64, 120
1, 97305, Control_c, 0, 64, 122
1, 97320, Control_c, 0, 64, 123
1, 97320, Control_c, 0, 67, 35
1, 97401, Note_off_c, 0, 66, 56
1, 97423, Control_c, 0, 64, 122
1, 97453, Control_c, 0, 67, 35
1, 97468, Control_c, 0, 67, 34
1, 97487, Note_on_c, 0, 63, 66
1, 97490, Note_on_c, 0, 54, 68
1, 97513, Control_c, 0, 64, 120
1, 97528, Note_off_c, 0, 56, 41
1, 97528, Control_c, 0, 64, 117
1, 97543, Control_c, 0, 64, 114
1, 97557, Control_c, 0, 64, 111
1, 97572, Control_c, 0, 64, 109
1, 97587, Control_c, 0, 64, 108
1, 97602, Control_c, 0, 64, 106
1, 97607, Note_off_c, 0, 63, 54
1, 97610, Note_on_c, 0, 64, 79
1, 97617, Control_c, 0, 64, 103
1, 97631, Control_c, 0, 64, 101
1, 97646, Note_on_c, 0, 56, 71
1, 97646, Control_c, 0, 64, 99
1, 97661, Control_c, 0, 64, 98
1, 97676, Control_c, 0, 64, 97
1, 97691, Control_c, 0, 64, 95
1, 97705, Control_c, 0, 64, 92
1, 97720, Control_c, 0, 64, 86
1, 97735, Control_c, 0, 64, 78
1, 97744, Note_on_c, 0, 66, 72
1, 97746, Note_off_c, 0, 64, 58
1, 97750, Control_c, 0, 64, 71
1, 97765, Control_c, 0, 64, 65
1, 97771, Note_on_c, 0, 58, 81
1, 97780, Control_c, 0, 64, 62
1, 97780, Control_c, 0, 67, 34
1, 97810, Control_c, 0, 64, 64
1, 97810, Control_c, 0, 67, 33
1, 97824, Control_c, 0, 64, 66
1, 97839, Control_c, 0, 64, 67
1, 97854, Control_c, 0, 64, 69
1, 97868, Control_c, 0, 64, 72
1, 97871, Note_on_c, 0, 64, 74
1, 97873, Note_off_c, 0, 66, 59
1, 97883, Control_c, 0, 64, 76
1, 97883, Control_c, 0, 67, 33
1, 97898, Control_c, 0, 64, 81
1, 97913, Control_c, 0, 64, 86
1, 97913, Control_c, 0, 67, 31
1, 97929, Control_c, 0, 64, 90
1, 97929, Control_c, 0, 67, 29
1, 97951, Control_c, 0, 64, 93
1, 97951, Control_c, 0, 67, 27
1, 97966, Control_c, 0, 64, 96
1, 97966, Control_c, 0, 67, 25
1, 97980, Control_c, 0, 64, 98
1, 97980, Control_c, 0, 67, 22
1, 97994, Note_off_c, 0, 64, 53
1, 97995, Control_c, 0, 64, 102
1, 97995, Control_c, 0, 67, 20
1, 98003, Note_on_c, 0, 61, 83
1, 98008, Note_on_c, 0, 68, 79
1, 98010, Control_c, 0, 64, 106
1, 98010, Control_c, 0, 67, 16
1, 98013, Note_off_c, 0, 56, 63
1, 98016, Note_off_c, 0, 58, 60
1, 98025, Control_c, 0, 64, 110
1, 98025, Control_c, 0, 67, 12
1, 98033, Note_off_c, 0, 54, 44
1, 98040, Control_c, 0, 64, 117
1, 98040, Control_c, 0, 67, 8
1, 98045, Note_off_c, 0, 61, 64
1, 98054, Control_c, 0, 64, 127
1, 98054, Control_c, 0, 67, 0
1, 98093, Note_off_c, 0, 70, 49
1, 98108, Note_on_c, 0, 66, 77
1, 98135, Note_off_c, 0, 68, 62
1, 98156, Note_off_c, 0, 66, 60
1, 98316, Note_on_c, 0, 30, 90
1, 98321, Control_c, 0, 64, 102
1, 98336, Control_c, 0, 64, 82
1, 98351, Control_c, 0, 64, 68
1, 98366, Control_c, 0, 64, 59
1, 98376, Note_on_c, 0, 71, 70
1, 98380, Control_c, 0, 64, 61
1, 98388, Note_on_c, 0, 63, 75
1, 98395, Control_c, 0, 64, 66
1, 98410, Control_c, 0, 64, 71
1, 98425, Control_c, 0, 64, 77
1, 98440, Note_off_c, 0, 63, 59
1, 98440, Control_c, 0, 64, 83
1, 98447, Note_off_c, 0, 30, 61
1, 98454, Control_c, 0, 64, 88
1, 98460, Note_on_c, 0, 78, 85
1, 98469, Control_c, 0, 64, 94
1, 98479, Note_off_c, 0, 71, 58
1, 98484, Control_c, 0, 64, 99
1, 98498, Control_c, 0, 64, 104
1, 98513, Control_c, 0, 64, 112
1, 98528, Control_c, 0, 64, 127
1, 98603, Control_c, 0, 67, 8
1, 98618, Control_c, 0, 67, 8
1, 98633, Control_c, 0, 67, 9
1, 98647, Control_c, 0, 67, 9
1, 98698, Control_c, 0, 67, 10
1, 98713, Control_c, 0, 67, 10
1, 98730, Control_c, 0, 67, 11
1, 98759, Control_c, 0, 67, 11
1, 98774, Control_c, 0, 67, 12
1, 98803, Control_c, 0, 67, 12
1, 98866, Note_on_c, 0, 54, 68
1, 98877, Control_c, 0, 67, 13
1, 98952, Control_c, 0, 67, 13
1, 99011, Control_c, 0, 67, 14
1, 99013, Note_off_c, 0, 78, 49
1, 99026, Control_c, 0, 67, 14
1, 99041, Control_c, 0, 67, 15
1, 99106, Note_on_c, 0, 61, 68
1, 99280, Note_off_c, 0, 54, 37
1, 99287, Note_on_c, 0, 80, 63
1, 99302, Note_on_c, 0, 59, 61
1, 99318, Note_off_c, 0, 61, 59
1, 99330, Note_on_c, 0, 77, 47
1, 99381, Note_off_c, 0, 77, 61
1, 99398, Note_on_c, 0, 75, 53
1, 99405, Note_on_c, 0, 78, 52
1, 99411, Control_c, 0, 67, 14
1, 99446, Note_off_c, 0, 75, 61
1, 99449, Note_off_c, 0, 78, 62
1, 99452, Note_on_c, 0, 61, 58
1, 99479, Note_off_c, 0, 80, 43
1, 99487, Note_on_c, 0, 77, 57
1, 99507, Note_off_c, 0, 59, 37
1, 99509, Note_off_c, 0, 77, 61
1, 99539, Note_on_c, 0, 78, 53
1, 99545, Note_on_c, 0, 75, 52
1, 99563, Note_off_c, 0, 61, 56
1, 99565, Note_off_c, 0, 78, 58
1, 99567, Note_off_c, 0, 75, 61
1, 99591, Note_on_c, 0, 77, 60
1, 99592, Note_on_c, 0, 63, 56
1, 99620, Poly_aftertouch_c, 0, 80, 127
1, 99623, Note_off_c, 0, 77, 58
1, 99626, Note_off_c, 0, 63, 61
1, 99640, Note_on_c, 0, 75, 60
1, 99649, Note_on_c, 0, 78, 57
1, 99671, Note_off_c, 0, 75, 63
1, 99679, Note_off_c, 0, 78, 59
1, 99700, Control_c, 0, 67, 15
1, 99703, Note_on_c, 0, 77, 55
1, 99725, Note_off_c, 0, 77, 61
1, 99744, Control_c, 0, 67, 15
1, 99745, Note_on_c, 0, 75, 63
1, 99764, Note_on_c, 0, 78, 55
1, 99774, Note_off_c, 0, 75, 61
1, 99789, Note_off_c, 0, 78, 60
1, 99804, Control_c, 0, 67, 16
1, 99805, Note_on_c, 0, 77, 62
1, 99837, Note_off_c, 0, 77, 61
1, 99843, Note_on_c, 0, 54, 60
1, 99846, Poly_aftertouch_c, 0, 80, 0
1, 99864, Control_c, 0, 67, 16
1, 99866, Note_on_c, 0, 75, 56
1, 99874, Note_on_c, 0, 78, 48
1, 99884, Poly_aftertouch_c, 0, 80, 127
1, 99886, Note_off_c, 0, 75, 64
1, 99893, Control_c, 0, 67, 17
1, 99896, Note_off_c, 0, 78, 60
1, 99908, Note_on_c, 0, 77, 63
1, 99908, Control_c, 0, 67, 17
1, 99923, Control_c, 0, 67, 19
1, 99938, Note_off_c, 0, 77, 59
1, 99938, Control_c, 0, 67, 20
1, 99941, Poly_aftertouch_c, 0, 80, 0
1, 99952, Control_c, 0, 67, 21
1, 99958, Note_on_c, 0, 75, 58
1, 99974, Note_on_c, 0, 78, 48
1, 99978, Poly_aftertouch_c, 0, 80, 127
1, 99980, Note_off_c, 0, 75, 61
1, 99982, Control_c, 0, 67, 21
1, 100000, Note_off_c, 0, 78, 56
1, 100012, Control_c, 0, 67, 22
1, 100014, Note_on_c, 0, 77, 56
1, 100035, Note_off_c, 0, 77, 62
1, 100041, Control_c, 0, 67, 22
1, 100046, Note_on_c, 0, 75, 72
1, 100058, Note_off_c, 0, 54, 36
1, 100071, Control_c, 0, 67, 23
1, 100074, Note_on_c, 0, 42, 66
1, 100077, Note_off_c, 0, 75, 59
1, 100096, Note_on_c, 0, 78, 23
1, 100110, Note_on_c, 0, 77, 66
1, 100130, Control_c, 0, 67, 23
1, 100135, Note_off_c, 0, 77, 56
1, 100151, Note_off_c, 0, 78, 0
1, 100151, Note_on_c, 0, 78, 26
1, 100161, Note_on_c, 0, 75, 55
1, 100192, Note_off_c, 0, 75, 61
1, 100206, Note_off_c, 0, 78, 55
1, 100215, Note_on_c, 0, 77, 73
1, 100242, Poly_aftertouch_c, 0, 80, 0
1, 100242, Note_off_c, 0, 77, 54
1, 100263, Note_on_c, 0, 75, 69
1, 100263, Note_on_c, 0, 80, 17
1, 100271, Note_off_c, 0, 42, 60
1, 100275, Note_on_c, 0, 78, 47
1, 100290, Note_off_c, 0, 75, 65
1, 100305, Note_on_c, 0, 54, 65
1, 100311, Note_off_c, 0, 78, 49
1, 100335, Poly_aftertouch_c, 0, 77, 0
1, 100369, Note_on_c, 0, 75, 68
1, 100375, Control_c, 0, 67, 23
1, 100379, Note_on_c, 0, 78, 51
1, 100396, Note_off_c, 0, 75, 64
1, 100400, Note_off_c, 0, 54, 60
1, 100418, Note_off_c, 0, 78, 52
1, 100421, Note_on_c, 0, 77, 67
1, 100457, Note_off_c, 0, 77, 55
1, 100475, Note_on_c, 0, 78, 54
1, 100479, Control_c, 0, 67, 22
1, 100481, Note_on_c, 0, 75, 60
1, 100502, Note_off_c, 0, 75, 65
1, 100521, Note_off_c, 0, 78, 55
1, 100528, Note_on_c, 0, 77, 60
1, 100538, Note_on_c, 0, 61, 63
1, 100570, Note_on_c, 0, 75, 72
1, 100573, Note_off_c, 0, 77, 48
1, 100579, Note_on_c, 0, 78, 48
1, 100597, Control_c, 0, 67, 23
1, 100600, Note_off_c, 0, 75, 59
1, 100632, Note_off_c, 0, 78, 54
1, 100667, Poly_aftertouch_c, 0, 77, 0
1, 100678, Note_on_c, 0, 78, 44
1, 100694, Note_off_c, 0, 61, 37
1, 100714, Note_on_c, 0, 75, 24
1, 100718, Note_on_c, 0, 59, 64
1, 100722, Note_on_c, 0, 77, 60
1, 100733, Note_off_c, 0, 78, 52
1, 100746, Control_c, 0, 67, 23
1, 100748, Note_off_c, 0, 75, 0
1, 100771, Note_on_c, 0, 78, 45
1, 100773, Note_off_c, 0, 77, 51
1, 100784, Note_on_c, 0, 75, 24
1, 100806, Note_on_c, 0, 61, 69
1, 100818, Note_off_c, 0, 59, 56
1, 100823, Note_on_c, 0, 77, 20
1, 100855, Note_off_c, 0, 77, 0
1, 100856, Note_off_c, 0, 80, 55
1, 100874, Note_on_c, 0, 77, 57
1, 100882, Note_off_c, 0, 78, 62
1, 100891, Note_off_c, 0, 75, 0
1, 100915, Note_on_c, 0, 75, 40
1, 100917, Note_on_c, 0, 78, 50
1, 100924, Note_off_c, 0, 77, 63
1, 100927, Note_on_c, 0, 63, 64
1, 100929, Note_off_c, 0, 61, 59
1, 101020, Control_c, 0, 67, 23
1, 101124, Control_c, 0, 67, 22
1, 101136, Note_off_c, 0, 75, 37
1, 101139, Control_c, 0, 67, 22
1, 101156, Note_off_c, 0, 63, 53
1, 101184, Control_c, 0, 67, 21
1, 101187, Note_on_c, 0, 77, 71
1, 101197, Note_on_c, 0, 66, 53
1, 101203, Note_on_c, 0, 74, 66
1, 101226, Note_off_c, 0, 66, 65
1, 101226, Note_off_c, 0, 78, 37
1, 101228, Control_c, 0, 67, 21
1, 101272, Control_c, 0, 67, 20
1, 101322, Note_on_c, 0, 78, 85
1, 101324, Note_on_c, 0, 75, 80
1, 101326, Note_off_c, 0, 77, 57
1, 101346, Control_c, 0, 67, 20
1, 101414, Note_off_c, 0, 78, 62
1, 101554, Control_c, 0, 67, 20
1, 101564, Note_off_c, 0, 75, 61
1, 101633, Note_on_c, 0, 42, 39
1, 101655, Note_on_c, 0, 83, 84
1, 101712, Note_on_c, 0, 80, 39
1, 101724, Control_c, 0, 64, 104
1, 101739, Control_c, 0, 64, 92
1, 101754, Control_c, 0, 64, 83
1, 101762, Note_off_c, 0, 80, 0
1, 101762, Note_on_c, 0, 80, 16
1, 101768, Control_c, 0, 64, 77
1, 101783, Control_c, 0, 64, 74
1, 101813, Control_c, 0, 64, 74
1, 101828, Control_c, 0, 64, 76
1, 101843, Control_c, 0, 64, 79
1, 101852, Note_off_c, 0, 74, 48
1, 101858, Control_c, 0, 64, 84
1, 101872, Control_c, 0, 64, 88
1, 101887, Control_c, 0, 64, 91
1, 101902, Control_c, 0, 64, 94
1, 101907, Note_off_c, 0, 42, 51
1, 101918, Control_c, 0, 64, 96
1, 101932, Control_c, 0, 64, 100
1, 101947, Control_c, 0, 64, 106
1, 101959, Note_on_c, 0, 54, 59
1, 101962, Control_c, 0, 64, 114
1, 101977, Control_c, 0, 64, 127
1, 101977, Control_c, 0, 67, 21
1, 102028, Note_off_c, 0, 54, 61
1, 102045, Note_on_c, 0, 82, 77
1, 102046, Note_on_c, 0, 78, 62
1, 102057, Note_off_c, 0, 80, 54
1, 102066, Control_c, 0, 67, 21
1, 102070, Note_off_c, 0, 83, 41
1, 102117, Note_off_c, 0, 78, 56
1, 102147, Note_off_c, 0, 82, 55
1, 102168, Note_on_c, 0, 77, 70
1, 102175, Note_on_c, 0, 61, 62
1, 102186, Note_on_c, 0, 80, 17
1, 102219, Note_off_c, 0, 77, 64
1, 102227, Note_off_c, 0, 80, 53
1, 102260, Note_off_c, 0, 61, 49
1, 102260, Note_on_c, 0, 82, 64
1, 102285, Note_off_c, 0, 82, 65
1, 102390, Note_on_c, 0, 82, 70
1, 102406, Note_on_c, 0, 78, 55
1, 102417, Note_on_c, 0, 59, 55
1, 102427, Note_off_c, 0, 78, 61
1, 102443, Control_c, 0, 64, 123
1, 102458, Control_c, 0, 64, 97
1, 102472, Control_c, 0, 64, 83
1, 102476, Note_off_c, 0, 82, 62
1, 102487, Control_c, 0, 64, 75
1, 102502, Control_c, 0, 64, 73
1, 102517, Control_c, 0, 64, 74
1, 102520, Note_on_c, 0, 61, 55
1, 102522, Note_on_c, 0, 70, 51
1, 102522, Note_on_c, 0, 73, 52
1, 102532, Control_c, 0, 64, 76
1, 102546, Control_c, 0, 64, 79
1, 102560, Note_off_c, 0, 59, 50
1, 102561, Control_c, 0, 64, 83
1, 102566, Note_off_c, 0, 73, 48
1, 102576, Note_off_c, 0, 70, 60
1, 102576, Control_c, 0, 64, 86
1, 102591, Control_c, 0, 64, 89
1, 102606, Control_c, 0, 64, 93
1, 102620, Note_on_c, 0, 80, 66
1, 102621, Control_c, 0, 64, 96
1, 102621, Control_c, 0, 67, 22
1, 102625, Note_off_c, 0, 61, 61
1, 102636, Control_c, 0, 64, 97
1, 102636, Note_on_c, 0, 77, 62
1, 102644, Note_on_c, 0, 63, 57
1, 102651, Control_c, 0, 64, 98
1, 102665, Control_c, 0, 64, 101
1, 102675, Note_off_c, 0, 63, 65
1, 102680, Control_c, 0, 64, 105
1, 102695, Control_c, 0, 64, 111
1, 102710, Control_c, 0, 64, 118
1, 102710, Control_c, 0, 67, 22
1, 102715, Note_off_c, 0, 80, 62
1, 102717, Note_off_c, 0, 77, 61
1, 102725, Control_c, 0, 64, 120
1, 102731, Note_on_c, 0, 71, 67
1, 102747, Note_on_c, 0, 68, 73
1, 102787, Note_off_c, 0, 71, 58
1, 102844, Control_c, 0, 64, 118
1, 102857, Note_on_c, 0, 78, 67
1, 102859, Control_c, 0, 64, 110
1, 102874, Control_c, 0, 64, 101
1, 102874, Control_c, 0, 67, 22
1, 102879, Note_on_c, 0, 75, 66
1, 102888, Control_c, 0, 64, 91
1, 102898, Note_off_c, 0, 68, 55
1, 102903, Control_c, 0, 64, 82
1, 102904, Note_on_c, 0, 54, 54
1, 102918, Control_c, 0, 64, 75
1, 102918, Control_c, 0, 67, 21
1, 102933, Control_c, 0, 64, 70
1, 102933, Control_c, 0, 67, 21
1, 102948, Control_c, 0, 64, 69
1, 102948, Control_c, 0, 67, 20
1, 102962, Control_c, 0, 64, 70
1, 102977, Control_c, 0, 64, 71
1, 102981, Note_on_c, 0, 72, 69
1, 102992, Control_c, 0, 64, 73
1, 102995, Note_on_c, 0, 69, 57
1, 103007, Control_c, 0, 64, 76
1, 103007, Control_c, 0, 67, 20
1, 103022, Control_c, 0, 64, 79
1, 103022, Control_c, 0, 67, 19
1, 103023, Note_off_c, 0, 75, 36
1, 103036, Control_c, 0, 64, 84
1, 103036, Control_c, 0, 67, 18
1, 103041, Note_off_c, 0, 69, 54
1, 103051, Note_off_c, 0, 78, 52
1, 103051, Control_c, 0, 64, 87
1, 103051, Control_c, 0, 67, 17
1, 103066, Control_c, 0, 64, 89
1, 103066, Control_c, 0, 67, 16
1, 103081, Control_c, 0, 64, 92
1, 103081, Control_c, 0, 67, 16
1, 103095, Control_c, 0, 64, 93
1, 103095, Control_c, 0, 67, 15
1, 103110, Control_c, 0, 64, 94
1, 103110, Control_c, 0, 67, 15
1, 103155, Control_c, 0, 67, 14
1, 103189, Note_off_c, 0, 54, 40
1, 103207, Control_c, 0, 64, 93
1, 103208, Note_on_c, 0, 75, 70
1, 103220, Note_on_c, 0, 71, 57
1, 103222, Control_c, 0, 64, 92
1, 103222, Control_c, 0, 67, 15
1, 103237, Control_c, 0, 64, 91
1, 103242, Note_off_c, 0, 72, 51
1, 103251, Control_c, 0, 64, 90
1, 103258, Note_on_c, 0, 42, 39
1, 103266, Control_c, 0, 64, 85
1, 103281, Control_c, 0, 64, 78
1, 103295, Control_c, 0, 64, 70
1, 103310, Control_c, 0, 64, 64
1, 103325, Control_c, 0, 64, 62
1, 103340, Control_c, 0, 64, 63
1, 103355, Control_c, 0, 64, 64
1, 103363, Note_off_c, 0, 71, 65
1, 103369, Control_c, 0, 64, 66
1, 103384, Control_c, 0, 64, 67
1, 103399, Control_c, 0, 64, 68
1, 103414, Control_c, 0, 64, 70
1, 103429, Control_c, 0, 64, 72
1, 103444, Control_c, 0, 64, 74
1, 103459, Control_c, 0, 64, 77
1, 103468, Note_on_c, 0, 70, 57
1, 103468, Note_on_c, 0, 73, 69
1, 103474, Control_c, 0, 64, 79
1, 103486, Note_on_c, 0, 49, 49
1, 103488, Control_c, 0, 64, 80
1, 103503, Control_c, 0, 64, 82
1, 103516, Note_off_c, 0, 75, 54
1, 103518, Control_c, 0, 64, 86
1, 103533, Control_c, 0, 64, 89
1, 103548, Note_off_c, 0, 42, 42
1, 103548, Control_c, 0, 64, 93
1, 103563, Control_c, 0, 64, 96
1, 103563, Control_c, 0, 67, 14
1, 103578, Control_c, 0, 64, 100
1, 103578, Control_c, 0, 67, 14
1, 103593, Control_c, 0, 64, 103
1, 103593, Note_off_c, 0, 73, 62
1, 103608, Control_c, 0, 64, 108
1, 103608, Control_c, 0, 67, 13
1, 103619, Note_off_c, 0, 70, 56
1, 103623, Control_c, 0, 64, 113
1, 103637, Control_c, 0, 64, 127
1, 103652, Control_c, 0, 67, 13
1, 103658, Note_off_c, 0, 49, 32
1, 103682, Control_c, 0, 67, 12
1, 103726, Control_c, 0, 67, 12
1, 103756, Control_c, 0, 67, 11
1, 103771, Control_c, 0, 67, 11
1, 103785, Control_c, 0, 67, 9
1, 103794, Note_on_c, 0, 56, 34
1, 103800, Control_c, 0, 67, 8
1, 103815, Control_c, 0, 67, 0
1, 103873, Note_on_c, 0, 68, 64
1, 103913, Note_on_c, 0, 61, 35
1, 104118, Control_c, 0, 64, 122
1, 104121, Note_off_c, 0, 56, 42
1, 104133, Control_c, 0, 64, 117
1, 104148, Control_c, 0, 64, 113
1, 104163, Control_c, 0, 64, 110
1, 104171, Note_on_c, 0, 54, 35
1, 104178, Control_c, 0, 64, 107
1, 104192, Control_c, 0, 64, 105
1, 104207, Control_c, 0, 64, 102
1, 104216, Note_on_c, 0, 70, 59
1, 104222, Control_c, 0, 64, 99
1, 104230, Note_on_c, 0, 66, 44
1, 104237, Control_c, 0, 64, 97
1, 104252, Control_c, 0, 64, 95
1, 104267, Control_c, 0, 64, 94
1, 104282, Control_c, 0, 64, 92
1, 104297, Control_c, 0, 64, 91
1, 104313, Control_c, 0, 64, 89
1, 104328, Control_c, 0, 64, 87
1, 104341, Note_on_c, 0, 56, 39
1, 104342, Control_c, 0, 64, 85
1, 104342, Control_c, 0, 67, 8
1, 104357, Control_c, 0, 64, 83
1, 104372, Control_c, 0, 64, 82
1, 104372, Control_c, 0, 67, 8
1, 104387, Control_c, 0, 64, 81
1, 104387, Control_c, 0, 67, 9
1, 104402, Control_c, 0, 64, 80
1, 104402, Control_c, 0, 67, 10
1, 104416, Control_c, 0, 64, 79
1, 104416, Control_c, 0, 67, 10
1, 104427, Note_off_c, 0, 61, 27
1, 104431, Control_c, 0, 64, 78
1, 104431, Control_c, 0, 67, 11
1, 104446, Control_c, 0, 64, 77
1, 104461, Control_c, 0, 64, 76
1, 104461, Control_c, 0, 67, 11
1, 104476, Control_c, 0, 64, 75
1, 104476, Control_c, 0, 67, 12
1, 104490, Control_c, 0, 64, 73
1, 104490, Control_c, 0, 67, 12
1, 104505, Note_on_c, 0, 58, 38
1, 104505, Control_c, 0, 64, 72
1, 104505, Control_c, 0, 67, 13
1, 104520, Control_c, 0, 64, 70
1, 104520, Control_c, 0, 67, 13
1, 104524, Note_off_c, 0, 56, 30
1, 104530, Note_off_c, 0, 68, 25
1, 104535, Control_c, 0, 64, 68
1, 104535, Control_c, 0, 67, 14
1, 104540, Note_off_c, 0, 54, 22
1, 104550, Control_c, 0, 64, 68
1, 104550, Control_c, 0, 67, 15
1, 104565, Control_c, 0, 67, 16
1, 104579, Control_c, 0, 67, 18
1, 104594, Control_c, 0, 64, 68
1, 104594, Control_c, 0, 67, 19
1, 104609, Control_c, 0, 67, 20
1, 104624, Control_c, 0, 64, 69
1, 104624, Control_c, 0, 67, 21
1, 104639, Control_c, 0, 64, 70
1, 104639, Control_c, 0, 67, 23
1, 104654, Control_c, 0, 64, 71
1, 104654, Control_c, 0, 67, 24
1, 104669, Control_c, 0, 64, 73
1, 104669, Control_c, 0, 67, 25
1, 104690, Control_c, 0, 64, 74
1, 104690, Control_c, 0, 67, 27
1, 104705, Control_c, 0, 64, 76
1, 104705, Control_c, 0, 67, 29
1, 104720, Control_c, 0, 64, 78
1, 104720, Control_c, 0, 67, 32
1, 104735, Control_c, 0, 64, 80
1, 104735, Control_c, 0, 67, 34
1, 104749, Control_c, 0, 64, 82
1, 104749, Control_c, 0, 67, 35
1, 104764, Control_c, 0, 64, 84
1, 104764, Control_c, 0, 67, 37
1, 104779, Control_c, 0, 64, 86
1, 104779, Control_c, 0, 67, 39
1, 104794, Control_c, 0, 64, 89
1, 104794, Control_c, 0, 67, 41
1, 104809, Control_c, 0, 64, 91
1, 104809, Control_c, 0, 67, 44
1, 104824, Control_c, 0, 64, 94
1, 104824, Control_c, 0, 67, 48
1, 104839, Control_c, 0, 64, 97
1, 104839, Control_c, 0, 67, 51
1, 104854, Control_c, 0, 64, 98
1, 104854, Control_c, 0, 67, 54
1, 104868, Control_c, 0, 64, 100
1, 104868, Control_c, 0, 67, 57
1, 104883, Control_c, 0, 64, 102
1, 104883, Control_c, 0, 67, 59
1, 104898, Control_c, 0, 64, 104
1, 104898, Control_c, 0, 67, 62
1, 104913, Control_c, 0, 64, 106
1, 104913, Control_c, 0, 67, 65
1, 104928, Control_c, 0, 64, 108
1, 104928, Control_c, 0, 67, 67
1, 104940, Note_on_c, 0, 49, 42
1, 104942, Control_c, 0, 64, 111
1, 104942, Control_c, 0, 67, 70
1, 104957, Control_c, 0, 64, 112
1, 104957, Control_c, 0, 67, 73
1, 104972, Control_c, 0, 64, 113
1, 104972, Control_c, 0, 67, 76
1, 104987, Control_c, 0, 64, 114
1, 104987, Control_c, 0, 67, 78
1, 104990, Note_off_c, 0, 70, 31
1, 104995, Note_off_c, 0, 49, 59
1, 105001, Control_c, 0, 64, 115
1, 105001, Control_c, 0, 67, 81
1, 105005, Note_off_c, 0, 58, 39
1, 105015, Control_c, 0, 64, 116
1, 105015, Control_c, 0, 67, 83
1, 105030, Control_c, 0, 64, 117
1, 105030, Control_c, 0, 67, 86
1, 105045, Control_c, 0, 64, 117
1, 105045, Control_c, 0, 67, 89
1, 105059, Control_c, 0, 67, 92
1, 105074, Control_c, 0, 67, 95
1, 105089, Control_c, 0, 67, 97
1, 105104, Control_c, 0, 67, 101
1, 105120, Control_c, 0, 67, 104
1, 105135, Control_c, 0, 67, 107
1, 105150, Control_c, 0, 67, 110
1, 105164, Control_c, 0, 67, 113
1, 105179, Control_c, 0, 67, 116
1, 105194, Control_c, 0, 67, 119
1, 105209, Control_c, 0, 67, 122
1, 105224, Control_c, 0, 67, 125
1, 105238, Control_c, 0, 67, 127
1, 105343, Control_c, 0, 64, 117
1, 105402, Control_c, 0, 64, 116
1, 105417, Control_c, 0, 64, 116
1, 105432, Control_c, 0, 64, 115
1, 105453, Control_c, 0, 64, 114
1, 105468, Control_c, 0, 64, 113
1, 105483, Control_c, 0, 64, 113
1, 105498, Control_c, 0, 64, 112
1, 105512, Control_c, 0, 64, 112
1, 105527, Control_c, 0, 64, 111
1, 105542, Control_c, 0, 64, 110
1, 105557, Control_c, 0, 64, 109
1, 105587, Control_c, 0, 64, 109
1, 105602, Control_c, 0, 64, 108
1, 105617, Control_c, 0, 64, 107
1, 105632, Control_c, 0, 64, 106
1, 105646, Control_c, 0, 64, 105
1, 105661, Control_c, 0, 64, 104
1, 105664, Note_on_c, 0, 30, 29
1, 105676, Control_c, 0, 64, 103
1, 105690, Control_c, 0, 64, 101
1, 105705, Control_c, 0, 64, 97
1, 105720, Control_c, 0, 64, 92
1, 105735, Control_c, 0, 64, 85
1, 105750, Control_c, 0, 64, 78
1, 105764, Control_c, 0, 64, 71
1, 105779, Control_c, 0, 64, 66
1, 105794, Control_c, 0, 64, 64
1, 105795, Note_on_c, 0, 70, 53
1, 105809, Control_c, 0, 64, 65
1, 105824, Control_c, 0, 64, 67
1, 105834, Note_on_c, 0, 64, 41
1, 105838, Control_c, 0, 64, 70
1, 105853, Control_c, 0, 64, 72
1, 105868, Control_c, 0, 64, 74
1, 105876, Note_off_c, 0, 64, 50
1, 105882, Note_off_c, 0, 66, 39
1, 105882, Control_c, 0, 64, 77
1, 105897, Control_c, 0, 64, 79
1, 105900, Note_off_c, 0, 70, 61
1, 105903, Note_off_c, 0, 30, 48
1, 105913, Control_c, 0, 64, 81
1, 105928, Control_c, 0, 64, 83
1, 105943, Control_c, 0, 64, 86
1, 105958, Control_c, 0, 64, 89
1, 105973, Control_c, 0, 64, 92
1, 105987, Control_c, 0, 64, 95
1, 106002, Control_c, 0, 64, 99
1, 106017, Control_c, 0, 64, 104
1, 106032, Control_c, 0, 64, 110
1, 106047, Control_c, 0, 64, 117
1, 106061, Control_c, 0, 64, 127
1, 106234, Note_on_c, 0, 80, 57
1, 106308, Note_off_c, 0, 80, 57
1, 106527, Control_c, 0, 67, 127
1, 106542, Control_c, 0, 67, 126
1, 106557, Control_c, 0, 67, 125
1, 106572, Control_c, 0, 67, 124
1, 106586, Control_c, 0, 67, 123
1, 106600, Note_on_c, 0, 49, 45
1, 106601, Control_c, 0, 67, 122
1, 106616, Control_c, 0, 67, 122
1, 106630, Control_c, 0, 67, 121
1, 106645, Control_c, 0, 67, 121
1, 106660, Control_c, 0, 67, 120
1, 106675, Control_c, 0, 67, 118
1, 106690, Control_c, 0, 67, 117
1, 106706, Control_c, 0, 67, 115
1, 106721, Control_c, 0, 67, 114
1, 106735, Control_c, 0, 67, 111
1, 106750, Control_c, 0, 67, 110
1, 106765, Control_c, 0, 67, 108
1, 106780, Control_c, 0, 67, 106
1, 106795, Control_c, 0, 67, 105
1, 106809, Control_c, 0, 67, 103
1, 106824, Control_c, 0, 67, 102
1, 106839, Control_c, 0, 67, 101
1, 106854, Control_c, 0, 67, 99
1, 106869, Control_c, 0, 67, 98
1, 106870, Note_on_c, 0, 56, 37
1, 106884, Control_c, 0, 67, 97
1, 106899, Control_c, 0, 67, 96
1, 106913, Control_c, 0, 67, 95
1, 106935, Control_c, 0, 67, 94
1, 106950, Control_c, 0, 67, 93
1, 106965, Control_c, 0, 67, 92
1, 106973, Note_off_c, 0, 49, 30
1, 106980, Control_c, 0, 67, 90
1, 106995, Control_c, 0, 67, 89
1, 107009, Control_c, 0, 67, 88
1, 107024, Control_c, 0, 67, 88
1, 107039, Control_c, 0, 67, 86
1, 107054, Control_c, 0, 67, 85
1, 107055, Note_off_c, 0, 56, 36
1, 107069, Control_c, 0, 67, 84
1, 107083, Control_c, 0, 67, 83
1, 107098, Control_c, 0, 67, 82
1, 107113, Control_c, 0, 67, 81
1, 107128, Control_c, 0, 67, 80
1, 107143, Control_c, 0, 67, 79
1, 107158, Control_c, 0, 67, 78
1, 107173, Control_c, 0, 67, 77
1, 107202, Control_c, 0, 67, 77
1, 107217, Control_c, 0, 67, 76
1, 107232, Control_c, 0, 67, 76
1, 107259, Note_on_c, 0, 54, 24
1, 107276, Control_c, 0, 67, 75
1, 107291, Control_c, 0, 67, 75
1, 107334, Note_on_c, 0, 80, 77
1, 107350, Control_c, 0, 67, 74
1, 107362, Note_on_c, 0, 76, 43
1, 107368, Note_on_c, 0, 70, 49
1, 107380, Control_c, 0, 67, 74
1, 107395, Control_c, 0, 67, 73
1, 107419, Note_off_c, 0, 54, 46
1, 107439, Control_c, 0, 64, 117
1, 107453, Control_c, 0, 64, 111
1, 107453, Control_c, 0, 67, 73
1, 107468, Control_c, 0, 64, 106
1, 107475, Note_on_c, 0, 56, 32
1, 107483, Control_c, 0, 64, 102
1, 107498, Control_c, 0, 64, 96
1, 107514, Control_c, 0, 64, 90
1, 107526, Poly_aftertouch_c, 0, 49, 127
1, 107529, Control_c, 0, 64, 84
1, 107544, Control_c, 0, 64, 79
1, 107558, Control_c, 0, 64, 76
1, 107561, Note_off_c, 0, 56, 38
1, 107603, Control_c, 0, 64, 77
1, 107616, Note_on_c, 0, 58, 43
1, 107618, Control_c, 0, 64, 78
1, 107632, Control_c, 0, 64, 80
1, 107647, Control_c, 0, 64, 84
1, 107659, Poly_aftertouch_c, 0, 49, 0
1, 107662, Control_c, 0, 64, 88
1, 107684, Control_c, 0, 64, 92
1, 107699, Control_c, 0, 64, 95
1, 107714, Control_c, 0, 64, 98
1, 107729, Control_c, 0, 64, 102
1, 107744, Control_c, 0, 64, 106
1, 107758, Control_c, 0, 64, 112
1, 107773, Control_c, 0, 64, 120
1, 107788, Control_c, 0, 64, 127
1, 107803, Control_c, 0, 67, 72
1, 107862, Control_c, 0, 67, 72
1, 107870, Note_on_c, 0, 49, 59
1, 107897, Note_off_c, 0, 76, 44
1, 107906, Control_c, 0, 67, 71
1, 107919, Note_off_c, 0, 80, 58
1, 107936, Control_c, 0, 67, 70
1, 107938, Note_off_c, 0, 58, 40
1, 107951, Control_c, 0, 67, 68
1, 107966, Control_c, 0, 67, 67
1, 107981, Control_c, 0, 67, 66
1, 107996, Control_c, 0, 67, 65
1, 108010, Control_c, 0, 67, 64
1, 108025, Control_c, 0, 67, 63
1, 108040, Control_c, 0, 67, 62
1, 108055, Control_c, 0, 67, 62
1, 108070, Control_c, 0, 67, 61
1, 108084, Control_c, 0, 67, 61
1, 108107, Note_on_c, 0, 42, 59
1, 108112, Note_off_c, 0, 49, 58
1, 108114, Control_c, 0, 67, 60
1, 108173, Control_c, 0, 67, 60
1, 108185, Note_off_c, 0, 70, 53
1, 108307, Control_c, 0, 67, 59
1, 108338, Note_on_c, 0, 78, 72
1, 108350, Note_on_c, 0, 75, 57
1, 108362, Note_on_c, 0, 70, 55
1, 108363, Note_on_c, 0, 49, 56
1, 108365, Note_off_c, 0, 42, 58
1, 108396, Control_c, 0, 67, 59
1, 108398, Note_off_c, 0, 70, 53
1, 108419, Note_off_c, 0, 75, 55
1, 108449, Control_c, 0, 67, 58
1, 108493, Note_off_c, 0, 78, 51
1, 108507, Control_c, 0, 67, 58
1, 108522, Control_c, 0, 67, 57
1, 108523, Note_off_c, 0, 49, 61
1, 108537, Control_c, 0, 67, 57
1, 108552, Control_c, 0, 67, 56
1, 108566, Note_on_c, 0, 76, 69
1, 108567, Control_c, 0, 67, 55
1, 108579, Note_on_c, 0, 68, 66
1, 108581, Control_c, 0, 67, 55
1, 108583, Note_on_c, 0, 61, 62
1, 108589, Note_on_c, 0, 54, 52
1, 108594, Note_off_c, 0, 76, 65
1, 108596, Control_c, 0, 67, 54
1, 108610, Note_off_c, 0, 61, 64
1, 108611, Control_c, 0, 67, 54
1, 108619, Note_off_c, 0, 54, 65
1, 108633, Note_off_c, 0, 68, 52
1, 108809, Note_on_c, 0, 75, 70
1, 108822, Note_on_c, 0, 66, 58
1, 108848, Control_c, 0, 64, 98
1, 108848, Note_on_c, 0, 35, 51
1, 108857, Note_off_c, 0, 66, 58
1, 108863, Control_c, 0, 64, 84
1, 108878, Control_c, 0, 64, 74
1, 108893, Control_c, 0, 64, 69
1, 108899, Poly_aftertouch_c, 0, 71, 0
1, 108907, Control_c, 0, 64, 69
1, 108922, Control_c, 0, 64, 73
1, 108928, Note_on_c, 0, 73, 75
1, 108935, Note_off_c, 0, 75, 61
1, 108937, Control_c, 0, 64, 78
1, 108952, Control_c, 0, 64, 81
1, 108957, Note_on_c, 0, 64, 28
1, 108964, Note_on_c, 0, 66, 30
1, 108967, Control_c, 0, 64, 83
1, 108981, Control_c, 0, 64, 86
1, 108991, Note_off_c, 0, 64, 51
1, 108994, Note_off_c, 0, 66, 53
1, 108996, Control_c, 0, 64, 90
1, 109011, Control_c, 0, 64, 94
1, 109025, Control_c, 0, 64, 96
1, 109057, Note_off_c, 0, 73, 36
1, 109070, Control_c, 0, 64, 95
1, 109071, Note_on_c, 0, 71, 68
1, 109080, Note_on_c, 0, 66, 44
1, 109085, Control_c, 0, 64, 91
1, 109097, Note_on_c, 0, 63, 53
1, 109100, Control_c, 0, 64, 83
1, 109110, Note_on_c, 0, 42, 54
1, 109116, Control_c, 0, 64, 71
1, 109130, Control_c, 0, 64, 57
1, 109145, Control_c, 0, 64, 35
1, 109160, Control_c, 0, 64, 46
1, 109161, Note_off_c, 0, 35, 38
1, 109182, Control_c, 0, 64, 58
1, 109197, Control_c, 0, 64, 64
1, 109212, Control_c, 0, 64, 68
1, 109218, Note_off_c, 0, 66, 48
1, 109227, Control_c, 0, 64, 73
1, 109235, Note_off_c, 0, 63, 61
1, 109240, Note_off_c, 0, 71, 64
1, 109242, Control_c, 0, 64, 80
1, 109256, Control_c, 0, 64, 90
1, 109271, Control_c, 0, 64, 100
1, 109286, Control_c, 0, 64, 109
1, 109301, Control_c, 0, 64, 114
1, 109301, Control_c, 0, 67, 53
1, 109316, Control_c, 0, 64, 119
1, 109330, Control_c, 0, 64, 127
1, 109330, Control_c, 0, 67, 53
1, 109360, Control_c, 0, 67, 52
1, 109403, Note_on_c, 0, 54, 64
1, 109413, Note_off_c, 0, 42, 62
1, 109427, Note_off_c, 0, 54, 67
1, 109434, Control_c, 0, 67, 52
1, 109449, Control_c, 0, 67, 50
1, 109463, Control_c, 0, 67, 46
1, 109478, Control_c, 0, 67, 39
1, 109483, Note_on_c, 0, 72, 69
1, 109491, Note_on_c, 0, 66, 57
1, 109493, Control_c, 0, 67, 31
1, 109508, Control_c, 0, 67, 23
1, 109523, Control_c, 0, 67, 14
1, 109537, Control_c, 0, 67, 0
1, 109545, Note_off_c, 0, 66, 51
1, 109716, Control_c, 0, 64, 111
1, 109717, Note_on_c, 0, 32, 56
1, 109717, Note_on_c, 0, 44, 58
1, 109730, Control_c, 0, 64, 94
1, 109745, Control_c, 0, 64, 80
1, 109760, Control_c, 0, 64, 69
1, 109775, Control_c, 0, 64, 64
1, 109790, Control_c, 0, 64, 65
1, 109796, Note_on_c, 0, 82, 81
1, 109804, Control_c, 0, 64, 68
1, 109819, Control_c, 0, 64, 71
1, 109834, Control_c, 0, 64, 74
1, 109848, Control_c, 0, 64, 78
1, 109856, Note_off_c, 0, 72, 36
1, 109857, Note_off_c, 0, 32, 61
1, 109863, Control_c, 0, 64, 83
1, 109878, Control_c, 0, 64, 90
1, 109894, Control_c, 0, 64, 97
1, 109909, Control_c, 0, 64, 103
1, 109931, Control_c, 0, 64, 108
1, 109942, Note_off_c, 0, 44, 63
1, 109946, Control_c, 0, 64, 116
1, 109960, Control_c, 0, 64, 127
1, 110244, Note_off_c, 0, 82, 54
1, 110246, Note_on_c, 0, 51, 65
1, 110464, Note_off_c, 0, 51, 62
1, 110485, Note_on_c, 0, 58, 70
1, 110723, Note_off_c, 0, 58, 38
1, 110783, Note_on_c, 0, 56, 60
1, 110817, Note_on_c, 0, 82, 92
1, 110850, Note_on_c, 0, 78, 54
1, 110851, Note_on_c, 0, 72, 54
1, 110927, Note_on_c, 0, 58, 70
1, 110932, Control_c, 0, 64, 102
1, 110947, Control_c, 0, 64, 88
1, 110962, Control_c, 0, 64, 77
1, 110968, Note_off_c, 0, 56, 56
1, 110976, Control_c, 0, 64, 69
1, 110991, Control_c, 0, 64, 67
1, 111006, Control_c, 0, 64, 69
1, 111021, Control_c, 0, 64, 73
1, 111036, Control_c, 0, 64, 78
1, 111051, Control_c, 0, 64, 83
1, 111055, Note_off_c, 0, 58, 59
1, 111057, Note_on_c, 0, 60, 70
1, 111066, Control_c, 0, 64, 87
1, 111081, Control_c, 0, 64, 93
1, 111096, Control_c, 0, 64, 102
1, 111110, Control_c, 0, 64, 124
1, 111125, Control_c, 0, 64, 127
1, 111274, Note_off_c, 0, 78, 55
1, 111290, Note_on_c, 0, 51, 73
1, 111298, Note_off_c, 0, 82, 62
1, 111316, Note_off_c, 0, 60, 40
1, 111540, Note_on_c, 0, 44, 74
1, 111548, Note_off_c, 0, 51, 59
1, 111579, Note_off_c, 0, 72, 35
1, 111754, Note_on_c, 0, 80, 84
1, 111761, Note_on_c, 0, 72, 69
1, 111762, Note_on_c, 0, 51, 71
1, 111762, Note_on_c, 0, 77, 52
1, 111763, Note_off_c, 0, 44, 63
1, 111792, Note_off_c, 0, 77, 53
1, 111807, Note_off_c, 0, 72, 59
1, 111913, Note_off_c, 0, 80, 60
1, 111946, Note_off_c, 0, 51, 63
1, 111962, Note_on_c, 0, 56, 73
1, 111963, Note_on_c, 0, 78, 79
1, 111972, Note_on_c, 0, 63, 74
1, 111975, Note_on_c, 0, 70, 77
1, 111993, Note_off_c, 0, 63, 69
1, 112006, Note_off_c, 0, 56, 61
1, 112014, Note_off_c, 0, 78, 60
1, 112023, Note_off_c, 0, 70, 62
1, 112215, Note_on_c, 0, 37, 80
1, 112220, Note_on_c, 0, 77, 80
1, 112221, Control_c, 0, 64, 110
1, 112231, Note_on_c, 0, 68, 78
1, 112236, Control_c, 0, 64, 88
1, 112242, Note_on_c, 0, 73, 62
1, 112250, Control_c, 0, 64, 74
1, 112261, Note_off_c, 0, 73, 63
1, 112261, Note_off_c, 0, 68, 60
1, 112265, Control_c, 0, 64, 67
1, 112280, Control_c, 0, 64, 68
1, 112295, Control_c, 0, 64, 73
1, 112297, Note_off_c, 0, 77, 62
1, 112311, Control_c, 0, 64, 79
1, 112313, Note_on_c, 0, 75, 71
1, 112326, Control_c, 0, 64, 87
1, 112341, Note_on_c, 0, 66, 72
1, 112341, Control_c, 0, 64, 97
1, 112355, Control_c, 0, 64, 118
1, 112370, Control_c, 0, 64, 127
1, 112386, Note_off_c, 0, 66, 57
1, 112429, Control_c, 0, 64, 94
1, 112440, Note_on_c, 0, 44, 80
1, 112442, Note_on_c, 0, 65, 75
1, 112442, Note_on_c, 0, 73, 74
1, 112444, Control_c, 0, 64, 70
1, 112449, Note_on_c, 0, 68, 71
1, 112459, Control_c, 0, 64, 56
1, 112471, Note_off_c, 0, 37, 61
1, 112473, Control_c, 0, 64, 57
1, 112488, Control_c, 0, 64, 65
1, 112503, Control_c, 0, 64, 72
1, 112517, Note_off_c, 0, 75, 45
1, 112518, Control_c, 0, 64, 82
1, 112533, Control_c, 0, 64, 95
1, 112547, Control_c, 0, 64, 115
1, 112562, Control_c, 0, 64, 127
1, 112564, Note_off_c, 0, 68, 56
1, 112578, Note_off_c, 0, 73, 60
1, 112605, Note_off_c, 0, 65, 57
1, 112671, Note_on_c, 0, 77, 87
1, 112674, Note_on_c, 0, 56, 77
1, 112676, Note_on_c, 0, 73, 79
1, 112715, Note_off_c, 0, 73, 60
1, 112721, Note_off_c, 0, 56, 65
1, 112723, Note_off_c, 0, 77, 64
1, 112763, Poly_aftertouch_c, 0, 68, 0
1, 112780, Poly_aftertouch_c, 0, 68, 0
1, 112944, Note_on_c, 0, 37, 78
1, 112950, Note_off_c, 0, 44, 62
1, 112993, Note_on_c, 0, 77, 88
1, 112998, Note_on_c, 0, 68, 78
1, 113036, Note_off_c, 0, 68, 61
1, 113059, Control_c, 0, 64, 107
1, 113072, Note_on_c, 0, 83, 91
1, 113073, Control_c, 0, 64, 85
1, 113088, Control_c, 0, 64, 70
1, 113104, Control_c, 0, 64, 54
1, 113119, Control_c, 0, 64, 30
1, 113134, Control_c, 0, 64, 45
1, 113149, Control_c, 0, 64, 62
1, 113164, Control_c, 0, 64, 66
1, 113178, Control_c, 0, 64, 70
1, 113193, Control_c, 0, 64, 75
1, 113208, Control_c, 0, 64, 83
1, 113223, Control_c, 0, 64, 92
1, 113238, Control_c, 0, 64, 102
1, 113252, Control_c, 0, 64, 114
1, 113267, Control_c, 0, 64, 127
1, 113403, Note_off_c, 0, 83, 57
1, 113439, Note_on_c, 0, 44, 76
1, 113444, Note_off_c, 0, 37, 56
1, 113523, Note_off_c, 0, 77, 58
1, 113691, Note_on_c, 0, 56, 78
1, 113749, Note_off_c, 0, 56, 65
1, 113877, Note_on_c, 0, 38, 83
1, 113877, Note_off_c, 0, 44, 63
1, 113918, Note_on_c, 0, 76, 86
1, 113923, Note_on_c, 0, 68, 80
1, 113957, Note_off_c, 0, 68, 61
1, 113957, Control_c, 0, 64, 96
1, 113972, Control_c, 0, 64, 78
1, 113987, Control_c, 0, 64, 67
1, 113996, Note_on_c, 0, 83, 92
1, 114002, Control_c, 0, 64, 60
1, 114017, Control_c, 0, 64, 57
1, 114032, Control_c, 0, 64, 60
1, 114046, Control_c, 0, 64, 65
1, 114061, Control_c, 0, 64, 70
1, 114076, Control_c, 0, 64, 75
1, 114091, Control_c, 0, 64, 81
1, 114106, Control_c, 0, 64, 89
1, 114120, Control_c, 0, 64, 100
1, 114135, Control_c, 0, 64, 113
1, 114150, Control_c, 0, 64, 127
1, 114164, Note_on_c, 0, 44, 77
1, 114167, Note_off_c, 0, 38, 60
1, 114233, Note_off_c, 0, 83, 59
1, 114291, Note_off_c, 0, 76, 60
1, 114427, Note_on_c, 0, 56, 83
1, 114485, Note_off_c, 0, 56, 64
1, 114601, Control_c, 0, 64, 100
1, 114616, Control_c, 0, 64, 80
1, 114619, Note_on_c, 0, 75, 87
1, 114622, Note_on_c, 0, 39, 81
1, 114623, Note_on_c, 0, 68, 74
1, 114627, Note_off_c, 0, 44, 64
1, 114631, Control_c, 0, 64, 66
1, 114646, Control_c, 0, 64, 65
1, 114652, Note_off_c, 0, 68, 64
1, 114661, Control_c, 0, 64, 70
1, 114676, Control_c, 0, 64, 81
1, 114681, Note_off_c, 0, 39, 62
1, 114691, Control_c, 0, 64, 99
1, 114698, Note_on_c, 0, 83, 86
1, 114706, Note_off_c, 0, 75, 66
1, 114706, Control_c, 0, 64, 127
1, 114751, Note_off_c, 0, 83, 65
1, 114868, Note_on_c, 0, 85, 81
1, 114873, Note_on_c, 0, 76, 65
1, 114918, Note_on_c, 0, 83, 74
1, 114918, Note_off_c, 0, 85, 66
1, 114926, Note_on_c, 0, 75, 80
1, 114938, Note_on_c, 0, 82, 59
1, 114958, Note_on_c, 0, 51, 71
1, 114963, Note_off_c, 0, 76, 63
1, 114965, Note_off_c, 0, 82, 37
1, 115068, Note_off_c, 0, 75, 39
1, 115110, Note_off_c, 0, 83, 59
1, 115153, Note_off_c, 0, 51, 62
1, 115156, Note_on_c, 0, 56, 75
1, 115160, Note_on_c, 0, 63, 69
1, 115191, Note_off_c, 0, 63, 68
1, 115207, Note_off_c, 0, 56, 61
1, 115245, Note_on_c, 0, 82, 83
1, 115257, Note_on_c, 0, 73, 80
1, 115266, Note_on_c, 0, 75, 59
1, 115277, Note_off_c, 0, 73, 69
1, 115284, Note_off_c, 0, 75, 65
1, 115294, Note_off_c, 0, 82, 66
1, 115321, Control_c, 0, 64, 93
1, 115336, Control_c, 0, 64, 70
1, 115349, Note_on_c, 0, 82, 79
1, 115350, Note_on_c, 0, 75, 79
1, 115350, Control_c, 0, 64, 21
1, 115351, Note_on_c, 0, 73, 85
1, 115365, Control_c, 0, 64, 0
1, 115366, Note_on_c, 0, 39, 78
1, 115380, Control_c, 0, 64, 48
1, 115394, Control_c, 0, 64, 70
1, 115409, Control_c, 0, 64, 84
1, 115424, Control_c, 0, 64, 112
1, 115428, Note_off_c, 0, 39, 58
1, 115439, Control_c, 0, 64, 127
1, 115467, Note_off_c, 0, 82, 62
1, 115518, Note_off_c, 0, 73, 54
1, 115534, Note_on_c, 0, 83, 79
1, 115535, Note_off_c, 0, 75, 56
1, 115595, Note_on_c, 0, 82, 87
1, 115611, Note_on_c, 0, 73, 86
1, 115617, Note_off_c, 0, 83, 67
1, 115632, Note_on_c, 0, 51, 73
1, 115643, Note_off_c, 0, 73, 56
1, 115651, Note_off_c, 0, 82, 64
1, 115838, Note_off_c, 0, 51, 58
1, 115852, Note_on_c, 0, 75, 83
1, 115859, Note_on_c, 0, 70, 78
1, 115862, Note_on_c, 0, 63, 65
1, 115865, Note_on_c, 0, 55, 57
1, 115865, Note_on_c, 0, 73, 73
1, 115875, Note_on_c, 0, 61, 54
1, 115904, Note_off_c, 0, 61, 64
1, 115919, Note_off_c, 0, 55, 63
1, 115920, Note_off_c, 0, 63, 57
1, 115958, Note_off_c, 0, 70, 52
1, 116029, Note_off_c, 0, 75, 51
1, 116037, Note_off_c, 0, 73, 49
1, 116202, Note_on_c, 0, 80, 79
1, 116215, Note_on_c, 0, 75, 71
1, 116220, Note_on_c, 0, 68, 76
1, 116221, Note_on_c, 0, 73, 74
1, 116233, Note_on_c, 0, 44, 67
1, 116247, Control_c, 0, 64, 105
1, 116262, Control_c, 0, 64, 85
1, 116277, Control_c, 0, 64, 72
1, 116292, Control_c, 0, 64, 63
1, 116307, Control_c, 0, 64, 61
1, 116321, Control_c, 0, 64, 65
1, 116336, Control_c, 0, 64, 70
1, 116351, Control_c, 0, 64, 77
1, 116366, Control_c, 0, 64, 84
1, 116372, Note_off_c, 0, 68, 56
1, 116378, Note_off_c, 0, 80, 53
1, 116381, Control_c, 0, 64, 92
1, 116390, Note_off_c, 0, 75, 60
1, 116396, Control_c, 0, 64, 100
1, 116403, Note_off_c, 0, 73, 60
1, 116411, Control_c, 0, 64, 109
1, 116426, Control_c, 0, 64, 127
1, 116489, Note_off_c, 0, 44, 49
1, 116527, Note_on_c, 0, 75, 77
1, 116549, Note_on_c, 0, 73, 84
1, 116555, Note_on_c, 0, 51, 66
1, 116759, Note_off_c, 0, 75, 57
1, 116765, Note_on_c, 0, 71, 85
1, 116771, Note_off_c, 0, 51, 63
1, 116780, Note_on_c, 0, 56, 68
1, 116783, Note_on_c, 0, 63, 65
1, 116789, Note_off_c, 0, 73, 61
1, 116807, Note_off_c, 0, 71, 65
1, 116818, Note_off_c, 0, 63, 60
1, 116980, Note_on_c, 0, 75, 78
1, 116986, Note_on_c, 0, 71, 73
1, 116993, Note_on_c, 0, 67, 76
1, 116996, Note_on_c, 0, 46, 74
1, 116996, Control_c, 0, 64, 114
1, 117011, Control_c, 0, 64, 86
1, 117026, Control_c, 0, 64, 71
1, 117037, Note_off_c, 0, 56, 48
1, 117040, Control_c, 0, 64, 59
1, 117055, Control_c, 0, 64, 51
1, 117070, Control_c, 0, 64, 58
1, 117085, Control_c, 0, 64, 64
1, 117101, Control_c, 0, 64, 69
1, 117115, Note_off_c, 0, 67, 54
1, 117116, Control_c, 0, 64, 74
1, 117117, Note_off_c, 0, 71, 65
1, 117131, Control_c, 0, 64, 78
1, 117145, Control_c, 0, 64, 83
1, 117160, Control_c, 0, 64, 90
1, 117175, Control_c, 0, 64, 98
1, 117185, Note_on_c, 0, 73, 75
1, 117190, Control_c, 0, 64, 108
1, 117205, Control_c, 0, 64, 120
1, 117207, Note_on_c, 0, 71, 81
1, 117215, Note_on_c, 0, 51, 69
1, 117219, Control_c, 0, 64, 127
1, 117226, Note_off_c, 0, 46, 61
1, 117246, Note_off_c, 0, 75, 53
1, 117260, Note_off_c, 0, 73, 63
1, 117284, Note_off_c, 0, 51, 60
1, 117432, Note_off_c, 0, 71, 66
1, 117436, Note_on_c, 0, 70, 86
1, 117444, Note_on_c, 0, 63, 68
1, 117478, Note_off_c, 0, 70, 62
1, 117495, Note_off_c, 0, 63, 58
1, 117508, Poly_aftertouch_c, 0, 61, 127
1, 117543, Poly_aftertouch_c, 0, 61, 0
1, 117654, Note_on_c, 0, 47, 58
1, 117689, Note_on_c, 0, 70, 71
1, 117690, Note_on_c, 0, 75, 72
1, 117703, Note_on_c, 0, 63, 70
1, 117731, Control_c, 0, 64, 111
1, 117745, Control_c, 0, 64, 92
1, 117760, Control_c, 0, 64, 77
1, 117775, Control_c, 0, 64, 65
1, 117789, Control_c, 0, 64, 60
1, 117804, Control_c, 0, 64, 61
1, 117816, Note_off_c, 0, 75, 58
1, 117819, Control_c, 0, 64, 63
1, 117834, Control_c, 0, 64, 66
1, 117849, Control_c, 0, 64, 71
1, 117863, Control_c, 0, 64, 77
1, 117865, Note_off_c, 0, 63, 53
1, 117878, Control_c, 0, 64, 84
1, 117894, Control_c, 0, 64, 92
1, 117909, Control_c, 0, 64, 100
1, 117924, Control_c, 0, 64, 108
1, 117927, Note_on_c, 0, 68, 80
1, 117938, Note_on_c, 0, 51, 69
1, 117939, Control_c, 0, 64, 120
1, 117954, Control_c, 0, 64, 127
1, 117961, Note_off_c, 0, 70, 63
1, 117973, Note_off_c, 0, 47, 36
1, 118134, Note_off_c, 0, 68, 61
1, 118157, Note_on_c, 0, 77, 83
1, 118178, Note_on_c, 0, 56, 65
1, 118179, Note_on_c, 0, 63, 64
1, 118225, Note_off_c, 0, 77, 63
1, 118253, Note_off_c, 0, 51, 54
1, 118292, Note_off_c, 0, 63, 56
1, 118358, Note_on_c, 0, 78, 74
1, 118409, Note_off_c, 0, 78, 61
1, 118417, Note_on_c, 0, 80, 73
1, 118473, Note_on_c, 0, 78, 81
1, 118485, Note_on_c, 0, 68, 66
1, 118487, Note_on_c, 0, 75, 64
1, 118494, Control_c, 0, 64, 101
1, 118497, Note_on_c, 0, 48, 74
1, 118509, Control_c, 0, 64, 81
1, 118518, Note_off_c, 0, 80, 59
1, 118524, Control_c, 0, 64, 66
1, 118528, Note_off_c, 0, 56, 57
1, 118539, Control_c, 0, 64, 49
1, 118554, Control_c, 0, 64, 50
1, 118568, Control_c, 0, 64, 61
1, 118583, Control_c, 0, 64, 66
1, 118598, Control_c, 0, 64, 71
1, 118613, Control_c, 0, 64, 76
1, 118627, Control_c, 0, 64, 82
1, 118642, Control_c, 0, 64, 88
1, 118657, Control_c, 0, 64, 96
1, 118672, Control_c, 0, 64, 108
1, 118688, Control_c, 0, 64, 127
1, 118728, Note_off_c, 0, 68, 0
1, 118733, Note_on_c, 0, 56, 71
1, 118733, Note_on_c, 0, 77, 83
1, 118748, Note_off_c, 0, 48, 58
1, 118766, Poly_aftertouch_c, 0, 68, 127
1, 118795, Note_off_c, 0, 56, 61
1, 118806, Note_off_c, 0, 78, 38
1, 118810, Note_off_c, 0, 75, 43
1, 118815, Poly_aftertouch_c, 0, 68, 0
1, 118853, Note_off_c, 0, 77, 62
1, 118919, Note_on_c, 0, 78, 88
1, 118992, Note_off_c, 0, 78, 62
1, 119013, Note_on_c, 0, 63, 61
1, 119070, Note_off_c, 0, 63, 60
1, 119079, Note_on_c, 0, 66, 55
1, 119081, Note_on_c, 0, 75, 82
1, 119101, Note_on_c, 0, 68, 66
1, 119109, Note_off_c, 0, 66, 64
1, 119236, Note_on_c, 0, 80, 81
1, 119263, Note_off_c, 0, 75, 61
1, 119271, Note_off_c, 0, 68, 50
1, 119287, Note_off_c, 0, 80, 63
1, 119509, Note_on_c, 0, 37, 79
1, 119524, Control_c, 0, 64, 109
1, 119538, Control_c, 0, 64, 87
1, 119545, Note_on_c, 0, 68, 84
1, 119553, Control_c, 0, 64, 74
1, 119556, Note_on_c, 0, 66, 70
1, 119561, Note_on_c, 0, 61, 67
1, 119568, Control_c, 0, 64, 65
1, 119583, Control_c, 0, 64, 65
1, 119598, Control_c, 0, 64, 68
1, 119612, Control_c, 0, 64, 75
1, 119627, Control_c, 0, 64, 85
1, 119642, Control_c, 0, 64, 97
1, 119662, Note_off_c, 0, 37, 62
1, 119664, Control_c, 0, 64, 113
1, 119679, Control_c, 0, 64, 127
1, 119810, Note_off_c, 0, 61, 61
1, 119812, Note_off_c, 0, 66, 58
1, 119815, Note_off_c, 0, 68, 59
1, 119955, Note_on_c, 0, 71, 78
1, 119956, Note_on_c, 0, 68, 59
1, 119976, Note_on_c, 0, 66, 60
1, 119980, Note_on_c, 0, 59, 59
1, 119990, Note_on_c, 0, 56, 49
1, 119991, Note_on_c, 0, 49, 40
1, 120015, Note_off_c, 0, 66, 54
1, 120034, Note_off_c, 0, 49, 52
1, 120043, Note_off_c, 0, 56, 59
1, 120046, Note_off_c, 0, 68, 58
1, 120060, Note_off_c, 0, 71, 62
1, 120169, Note_off_c, 0, 59, 36
1, 120282, Note_on_c, 0, 73, 85
1, 120290, Note_on_c, 0, 66, 71
1, 120295, Note_on_c, 0, 61, 52
1, 120296, Note_on_c, 0, 56, 48
1, 120304, Note_on_c, 0, 59, 51
1, 120358, Poly_aftertouch_c, 0, 68, 127
1, 120379, Note_off_c, 0, 59, 52
1, 120387, Note_off_c, 0, 66, 55
1, 120393, Note_off_c, 0, 61, 61
1, 120396, Note_off_c, 0, 73, 59
1, 120410, Poly_aftertouch_c, 0, 68, 0
1, 120417, Note_off_c, 0, 56, 51
1, 120518, Note_on_c, 0, 75, 80
1, 120525, Note_on_c, 0, 66, 71
1, 120533, Note_on_c, 0, 56, 60
1, 120533, Note_on_c, 0, 59, 51
1, 120546, Note_on_c, 0, 63, 62
1, 120564, Note_off_c, 0, 66, 55
1, 120590, Note_off_c, 0, 75, 64
1, 120629, Note_off_c, 0, 59, 55
1, 120641, Note_off_c, 0, 63, 57
1, 120649, Note_off_c, 0, 56, 52
1, 120725, Control_c, 0, 64, 95
1, 120739, Note_on_c, 0, 77, 78
1, 120740, Control_c, 0, 64, 88
1, 120751, Note_on_c, 0, 75, 53
1, 120752, Note_on_c, 0, 65, 52
1, 120755, Control_c, 0, 64, 89
1, 120759, Note_on_c, 0, 56, 55
1, 120762, Note_on_c, 0, 68, 63
1, 120766, Note_on_c, 0, 63, 52
1, 120766, Note_on_c, 0, 59, 46
1, 120769, Control_c, 0, 64, 98
1, 120775, Note_on_c, 0, 71, 47
1, 120784, Control_c, 0, 64, 127
1, 120796, Note_off_c, 0, 65, 61
1, 120811, Note_off_c, 0, 68, 53
1, 120814, Note_off_c, 0, 77, 62
1, 120818, Note_off_c, 0, 59, 48
1, 120835, Note_off_c, 0, 75, 62
1, 120849, Note_off_c, 0, 63, 56
1, 120864, Note_off_c, 0, 71, 39
1, 120875, Note_off_c, 0, 56, 38
1, 120962, Note_on_c, 0, 78, 79
1, 120971, Note_on_c, 0, 56, 47
1, 120974, Note_on_c, 0, 75, 55
1, 120978, Note_on_c, 0, 68, 66
1, 120983, Note_on_c, 0, 66, 57
1, 120988, Note_on_c, 0, 63, 33
1, 121004, Note_off_c, 0, 56, 62
1, 121010, Note_off_c, 0, 68, 58
1, 121010, Note_off_c, 0, 75, 59
1, 121017, Note_off_c, 0, 63, 56
1, 121043, Note_off_c, 0, 78, 62
1, 121058, Note_off_c, 0, 66, 57
1, 121192, Control_c, 0, 64, 117
1, 121196, Note_on_c, 0, 80, 67
1, 121211, Note_on_c, 0, 63, 39
1, 121211, Note_on_c, 0, 71, 61
1, 121215, Note_on_c, 0, 66, 46
1, 121215, Note_on_c, 0, 68, 53
1, 121222, Control_c, 0, 64, 117
1, 121229, Note_on_c, 0, 78, 53
1, 121232, Note_on_c, 0, 75, 45
1, 121236, Note_on_c, 0, 59, 35
1, 121237, Control_c, 0, 64, 126
1, 121252, Control_c, 0, 64, 127
1, 121266, Note_off_c, 0, 71, 52
1, 121273, Note_off_c, 0, 68, 54
1, 121276, Note_off_c, 0, 63, 55
1, 121287, Note_off_c, 0, 66, 54
1, 121287, Note_off_c, 0, 75, 52
1, 121300, Note_off_c, 0, 78, 53
1, 121304, Note_off_c, 0, 80, 60
1, 121326, Note_off_c, 0, 59, 31
1, 121356, Control_c, 0, 64, 108
1, 121371, Control_c, 0, 64, 86
1, 121385, Control_c, 0, 64, 73
1, 121400, Control_c, 0, 64, 69
1, 121415, Control_c, 0, 64, 70
1, 121425, Note_on_c, 0, 82, 71
1, 121430, Control_c, 0, 64, 76
1, 121441, Note_on_c, 0, 59, 39
1, 121441, Note_on_c, 0, 70, 49
1, 121442, Note_on_c, 0, 78, 48
1, 121444, Control_c, 0, 64, 88
1, 121449, Note_on_c, 0, 71, 53
1, 121451, Note_on_c, 0, 66, 36
1, 121451, Note_on_c, 0, 63, 34
1, 121453, Note_on_c, 0, 75, 40
1, 121459, Control_c, 0, 64, 106
1, 121474, Control_c, 0, 64, 127
1, 121481, Note_off_c, 0, 59, 57
1, 121485, Note_off_c, 0, 71, 53
1, 121493, Note_off_c, 0, 63, 52
1, 121496, Note_off_c, 0, 66, 58
1, 121497, Note_off_c, 0, 78, 55
1, 121505, Note_off_c, 0, 75, 49
1, 121529, Note_off_c, 0, 82, 62
1, 121559, Note_off_c, 0, 70, 41
1, 121666, Control_c, 0, 64, 123
1, 121681, Note_on_c, 0, 83, 62
1, 121681, Control_c, 0, 64, 95
1, 121693, Note_on_c, 0, 80, 46
1, 121694, Note_on_c, 0, 75, 52
1, 121696, Note_on_c, 0, 71, 44
1, 121696, Control_c, 0, 64, 82
1, 121696, Control_c, 0, 67, 8
1, 121708, Note_on_c, 0, 78, 42
1, 121711, Control_c, 0, 64, 75
1, 121711, Control_c, 0, 67, 10
1, 121711, Note_on_c, 0, 63, 32
1, 121714, Note_on_c, 0, 68, 43
1, 121718, Note_on_c, 0, 66, 30
1, 121726, Control_c, 0, 67, 12
1, 121734, Note_off_c, 0, 71, 53
1, 121741, Control_c, 0, 64, 79
1, 121741, Control_c, 0, 67, 15
1, 121742, Note_off_c, 0, 68, 58
1, 121749, Note_off_c, 0, 78, 47
1, 121752, Note_off_c, 0, 66, 54
1, 121754, Note_off_c, 0, 80, 55
1, 121755, Control_c, 0, 64, 85
1, 121755, Control_c, 0, 67, 17
1, 121770, Control_c, 0, 64, 91
1, 121770, Control_c, 0, 67, 20
1, 121779, Note_off_c, 0, 75, 38
1, 121785, Control_c, 0, 64, 95
1, 121785, Control_c, 0, 67, 23
1, 121790, Note_off_c, 0, 83, 60
1, 121800, Control_c, 0, 64, 100
1, 121800, Control_c, 0, 67, 27
1, 121815, Control_c, 0, 64, 107
1, 121815, Control_c, 0, 67, 31
1, 121829, Control_c, 0, 64, 117
1, 121829, Control_c, 0, 67, 35
1, 121844, Control_c, 0, 64, 127
1, 121844, Control_c, 0, 67, 38
1, 121859, Control_c, 0, 67, 42
1, 121874, Control_c, 0, 67, 45
1, 121890, Control_c, 0, 67, 47
1, 121912, Control_c, 0, 67, 49
1, 121927, Control_c, 0, 67, 51
1, 121941, Control_c, 0, 67, 53
1, 121956, Control_c, 0, 67, 55
1, 121971, Control_c, 0, 64, 111
1, 121971, Control_c, 0, 67, 57
1, 121983, Note_on_c, 0, 85, 69
1, 121986, Control_c, 0, 64, 98
1, 121986, Control_c, 0, 67, 59
1, 122001, Control_c, 0, 64, 86
1, 122001, Control_c, 0, 67, 60
1, 122005, Note_on_c, 0, 68, 34
1, 122009, Note_on_c, 0, 73, 48
1, 122012, Note_on_c, 0, 80, 42
1, 122014, Note_on_c, 0, 78, 39
1, 122015, Control_c, 0, 64, 76
1, 122015, Control_c, 0, 67, 61
1, 122020, Note_on_c, 0, 71, 39
1, 122030, Control_c, 0, 64, 70
1, 122038, Note_on_c, 0, 66, 16
1, 122045, Control_c, 0, 64, 68
1, 122045, Control_c, 0, 67, 61
1, 122059, Control_c, 0, 64, 69
1, 122059, Control_c, 0, 67, 62
1, 122062, Note_off_c, 0, 78, 42
1, 122063, Note_off_c, 0, 80, 40
1, 122074, Control_c, 0, 64, 70
1, 122074, Control_c, 0, 67, 64
1, 122089, Control_c, 0, 64, 72
1, 122089, Control_c, 0, 67, 65
1, 122090, Note_off_c, 0, 73, 45
1, 122091, Note_off_c, 0, 66, 45
1, 122095, Note_off_c, 0, 68, 34
1, 122096, Note_off_c, 0, 71, 52
1, 122104, Control_c, 0, 64, 75
1, 122104, Control_c, 0, 67, 66
1, 122119, Control_c, 0, 64, 78
1, 122119, Control_c, 0, 67, 67
1, 122128, Note_off_c, 0, 63, 37
1, 122134, Control_c, 0, 64, 82
1, 122134, Control_c, 0, 67, 68
1, 122149, Control_c, 0, 64, 88
1, 122149, Control_c, 0, 67, 70
1, 122164, Control_c, 0, 64, 92
1, 122164, Control_c, 0, 67, 71
1, 122179, Control_c, 0, 64, 96
1, 122179, Control_c, 0, 67, 72
1, 122193, Control_c, 0, 64, 99
1, 122193, Control_c, 0, 67, 73
1, 122208, Control_c, 0, 64, 102
1, 122208, Control_c, 0, 67, 74
1, 122222, Control_c, 0, 64, 105
1, 122222, Control_c, 0, 67, 76
1, 122237, Control_c, 0, 64, 109
1, 122237, Control_c, 0, 67, 77
1, 122252, Control_c, 0, 64, 113
1, 122252, Control_c, 0, 67, 77
1, 122266, Control_c, 0, 64, 115
1, 122266, Control_c, 0, 67, 78
1, 122311, Control_c, 0, 67, 78
1, 122326, Control_c, 0, 64, 114
1, 122384, Control_c, 0, 64, 113
1, 122399, Control_c, 0, 64, 110
1, 122404, Note_on_c, 0, 87, 61
1, 122407, Note_on_c, 0, 80, 38
1, 122414, Control_c, 0, 64, 107
1, 122421, Note_on_c, 0, 78, 46
1, 122429, Control_c, 0, 64, 101
1, 122438, Note_on_c, 0, 75, 39
1, 122443, Note_on_c, 0, 68, 28
1, 122444, Note_on_c, 0, 71, 41
1, 122444, Control_c, 0, 64, 94
1, 122459, Control_c, 0, 64, 86
1, 122459, Note_on_c, 0, 66, 13
1, 122474, Control_c, 0, 64, 79
1, 122489, Control_c, 0, 64, 72
1, 122504, Control_c, 0, 64, 67
1, 122519, Control_c, 0, 64, 66
1, 122533, Control_c, 0, 64, 69
1, 122548, Control_c, 0, 64, 72
1, 122548, Control_c, 0, 67, 78
1, 122563, Control_c, 0, 64, 76
1, 122563, Control_c, 0, 67, 77
1, 122576, Note_off_c, 0, 68, 27
1, 122577, Control_c, 0, 64, 79
1, 122577, Control_c, 0, 67, 77
1, 122583, Note_off_c, 0, 85, 23
1, 122592, Control_c, 0, 64, 81
1, 122592, Control_c, 0, 67, 76
1, 122607, Control_c, 0, 64, 84
1, 122607, Control_c, 0, 67, 74
1, 122622, Control_c, 0, 64, 90
1, 122622, Control_c, 0, 67, 74
1, 122626, Note_off_c, 0, 71, 28
1, 122626, Note_off_c, 0, 75, 43
1, 122633, Note_off_c, 0, 66, 20
1, 122637, Control_c, 0, 64, 98
1, 122637, Control_c, 0, 67, 73
1, 122656, Note_off_c, 0, 80, 39
1, 122659, Control_c, 0, 64, 106
1, 122659, Control_c, 0, 67, 73
1, 122665, Note_off_c, 0, 87, 39
1, 122668, Note_off_c, 0, 78, 41
1, 122674, Control_c, 0, 64, 114
1, 122674, Control_c, 0, 67, 72
1, 122689, Control_c, 0, 64, 119
1, 122689, Control_c, 0, 67, 72
1, 122704, Control_c, 0, 64, 127
1, 122704, Control_c, 0, 67, 70
1, 122719, Control_c, 0, 67, 70
1, 122734, Control_c, 0, 67, 69
1, 122749, Control_c, 0, 67, 68
1, 122763, Control_c, 0, 67, 67
1, 122778, Control_c, 0, 67, 66
1, 122793, Control_c, 0, 67, 66
1, 122808, Control_c, 0, 67, 65
1, 122823, Control_c, 0, 67, 64
1, 122837, Control_c, 0, 67, 62
1, 122852, Control_c, 0, 67, 60
1, 122867, Control_c, 0, 67, 57
1, 122882, Control_c, 0, 67, 54
1, 122897, Control_c, 0, 67, 51
1, 122912, Control_c, 0, 67, 46
1, 122927, Control_c, 0, 67, 40
1, 122942, Control_c, 0, 67, 35
1, 122956, Control_c, 0, 67, 32
1, 122971, Control_c, 0, 67, 29
1, 122986, Control_c, 0, 67, 27
1, 123001, Control_c, 0, 64, 110
1, 123001, Control_c, 0, 67, 24
1, 123015, Control_c, 0, 64, 101
1, 123015, Control_c, 0, 67, 18
1, 123030, Control_c, 0, 64, 95
1, 123030, Control_c, 0, 67, 14
1, 123045, Control_c, 0, 64, 89
1, 123045, Control_c, 0, 67, 12
1, 123060, Control_c, 0, 64, 84
1, 123060, Control_c, 0, 67, 9
1, 123075, Control_c, 0, 64, 80
1, 123075, Control_c, 0, 67, 0
1, 123089, Control_c, 0, 64, 75
1, 123104, Control_c, 0, 64, 71
1, 123119, Control_c, 0, 64, 68
1, 123134, Control_c, 0, 64, 67
1, 123149, Control_c, 0, 64, 66
1, 123163, Control_c, 0, 64, 65
1, 123178, Control_c, 0, 64, 63
1, 123193, Control_c, 0, 64, 59
1, 123207, Control_c, 0, 64, 53
1, 123222, Control_c, 0, 64, 47
1, 123237, Control_c, 0, 64, 40
1, 123252, Control_c, 0, 64, 0
1, 123401, Control_c, 0, 64, 49
1, 123422, Control_c, 0, 64, 60
1, 123437, Control_c, 0, 64, 63
1, 123452, Control_c, 0, 64, 65
1, 123467, Control_c, 0, 64, 67
1, 123482, Control_c, 0, 64, 71
1, 123498, Control_c, 0, 64, 76
1, 123512, Control_c, 0, 64, 81
1, 123527, Control_c, 0, 64, 85
1, 123542, Control_c, 0, 64, 88
1, 123557, Control_c, 0, 64, 91
1, 123572, Control_c, 0, 64, 98
1, 123586, Control_c, 0, 64, 107
1, 123601, Control_c, 0, 64, 127
1, 123656, Note_on_c, 0, 77, 89
1, 123666, Note_on_c, 0, 73, 74
1, 123669, Note_on_c, 0, 65, 75
1, 123671, Note_on_c, 0, 71, 64
1, 123687, Note_on_c, 0, 49, 65
1, 123693, Note_on_c, 0, 37, 57
1, 123698, Note_on_c, 0, 70, 29
1, 123819, Note_off_c, 0, 49, 56
1, 123851, Note_off_c, 0, 77, 60
1, 123854, Note_off_c, 0, 70, 16
1, 123866, Note_off_c, 0, 65, 58
1, 123879, Note_off_c, 0, 71, 63
1, 123880, Note_off_c, 0, 73, 61
1, 123982, Note_on_c, 0, 71, 80
1, 123983, Note_on_c, 0, 73, 84
1, 124044, Note_off_c, 0, 71, 64
1, 124071, Note_off_c, 0, 73, 63
1, 124158, Note_on_c, 0, 78, 86
1, 124173, Note_on_c, 0, 70, 67
1, 124175, Note_on_c, 0, 66, 69
1, 124191, Note_on_c, 0, 42, 66
1, 124193, Note_on_c, 0, 30, 66
1, 124194, Note_off_c, 0, 37, 43
1, 124202, Control_c, 0, 64, 107
1, 124217, Control_c, 0, 64, 86
1, 124232, Control_c, 0, 64, 71
1, 124246, Control_c, 0, 64, 51
1, 124261, Control_c, 0, 64, 37
1, 124276, Control_c, 0, 64, 47
1, 124292, Control_c, 0, 64, 62
1, 124307, Control_c, 0, 64, 67
1, 124322, Control_c, 0, 64, 71
1, 124336, Control_c, 0, 64, 79
1, 124341, Note_off_c, 0, 30, 61
1, 124351, Control_c, 0, 64, 86
1, 124366, Control_c, 0, 64, 96
1, 124380, Control_c, 0, 64, 107
1, 124395, Control_c, 0, 64, 127
1, 124402, Note_off_c, 0, 42, 62
1, 124612, Note_off_c, 0, 70, 37
1, 124675, Note_on_c, 0, 49, 74
1, 124745, Note_off_c, 0, 66, 30
1, 124746, Note_off_c, 0, 78, 50
1, 124948, Note_on_c, 0, 61, 75
1, 125058, Note_off_c, 0, 61, 57
1, 125255, Note_on_c, 0, 80, 77
1, 125286, Note_on_c, 0, 71, 44
1, 125294, Note_on_c, 0, 61, 55
1, 125338, Note_off_c, 0, 71, 64
1, 125366, Control_c, 0, 64, 123
1, 125381, Control_c, 0, 64, 98
1, 125396, Control_c, 0, 64, 86
1, 125410, Control_c, 0, 64, 77
1, 125425, Control_c, 0, 64, 70
1, 125431, Note_on_c, 0, 68, 69
1, 125440, Note_on_c, 0, 77, 68
1, 125440, Control_c, 0, 64, 68
1, 125455, Control_c, 0, 64, 70
1, 125470, Control_c, 0, 64, 75
1, 125475, Note_off_c, 0, 80, 62
1, 125485, Control_c, 0, 64, 80
1, 125496, Note_off_c, 0, 68, 59
1, 125499, Control_c, 0, 64, 85
1, 125514, Control_c, 0, 64, 90
1, 125529, Control_c, 0, 64, 97
1, 125544, Control_c, 0, 64, 107
1, 125555, Note_on_c, 0, 80, 79
1, 125559, Control_c, 0, 64, 127
1, 125586, Note_off_c, 0, 77, 37
1, 125590, Note_on_c, 0, 71, 46
1, 125669, Note_off_c, 0, 71, 44
1, 125672, Note_on_c, 0, 66, 72
1, 125673, Note_on_c, 0, 75, 67
1, 125675, Note_off_c, 0, 80, 61
1, 125681, Note_off_c, 0, 61, 32
1, 125729, Note_off_c, 0, 66, 58
1, 125784, Note_on_c, 0, 71, 59
1, 125785, Note_on_c, 0, 80, 73
1, 125801, Note_off_c, 0, 75, 61
1, 125810, Note_off_c, 0, 71, 69
1, 125831, Note_off_c, 0, 80, 60
1, 125887, Note_on_c, 0, 73, 76
1, 125896, Note_on_c, 0, 61, 57
1, 125918, Note_off_c, 0, 61, 63
1, 125963, Note_off_c, 0, 49, 33
1, 126036, Note_on_c, 0, 70, 68
1, 126039, Note_on_c, 0, 78, 76
1, 126072, Note_on_c, 0, 42, 57
1, 126100, Control_c, 0, 64, 106
1, 126114, Control_c, 0, 64, 87
1, 126129, Control_c, 0, 64, 73
1, 126132, Note_off_c, 0, 73, 43
1, 126144, Control_c, 0, 64, 62
1, 126159, Control_c, 0, 64, 59
1, 126173, Control_c, 0, 64, 64
1, 126188, Control_c, 0, 64, 68
1, 126203, Control_c, 0, 64, 72
1, 126218, Control_c, 0, 64, 76
1, 126233, Control_c, 0, 64, 80
1, 126248, Control_c, 0, 64, 84
1, 126263, Control_c, 0, 64, 89
1, 126277, Control_c, 0, 64, 96
1, 126292, Control_c, 0, 64, 104
1, 126296, Note_off_c, 0, 42, 60
1, 126307, Control_c, 0, 64, 112
1, 126314, Note_on_c, 0, 49, 72
1, 126320, Note_off_c, 0, 70, 38
1, 126322, Control_c, 0, 64, 127
1, 126403, Note_off_c, 0, 78, 35
1, 126462, Control_c, 0, 67, 8
1, 126477, Control_c, 0, 67, 8
1, 126492, Control_c, 0, 67, 9
1, 126507, Control_c, 0, 67, 10
1, 126551, Control_c, 0, 67, 11
1, 126560, Note_on_c, 0, 61, 74
1, 126566, Control_c, 0, 67, 11
1, 126581, Control_c, 0, 67, 12
1, 126596, Control_c, 0, 67, 13
1, 126611, Control_c, 0, 67, 14
1, 126625, Control_c, 0, 67, 14
1, 126640, Control_c, 0, 67, 15
1, 126655, Control_c, 0, 67, 16
1, 126670, Control_c, 0, 67, 18
1, 126672, Note_off_c, 0, 61, 53
1, 126686, Control_c, 0, 67, 21
1, 126701, Control_c, 0, 67, 23
1, 126716, Control_c, 0, 67, 25
1, 126731, Control_c, 0, 67, 25
1, 126745, Control_c, 0, 67, 26
1, 126760, Control_c, 0, 67, 27
1, 126775, Control_c, 0, 67, 28
1, 126790, Control_c, 0, 67, 28
1, 126805, Control_c, 0, 67, 29
1, 126826, Note_on_c, 0, 80, 69
1, 126843, Note_on_c, 0, 71, 54
1, 126850, Control_c, 0, 67, 29
1, 126856, Note_on_c, 0, 61, 54
1, 126879, Control_c, 0, 67, 30
1, 126909, Control_c, 0, 64, 100
1, 126914, Note_off_c, 0, 71, 63
1, 126924, Control_c, 0, 64, 86
1, 126938, Control_c, 0, 64, 75
1, 126953, Control_c, 0, 64, 68
1, 126953, Control_c, 0, 67, 30
1, 126968, Control_c, 0, 64, 66
1, 126981, Note_on_c, 0, 77, 67
1, 126982, Control_c, 0, 64, 69
1, 126988, Note_on_c, 0, 68, 57
1, 126997, Control_c, 0, 64, 73
1, 126999, Note_off_c, 0, 80, 57
1, 127012, Control_c, 0, 64, 78
1, 127027, Control_c, 0, 64, 83
1, 127042, Control_c, 0, 64, 86
1, 127049, Note_off_c, 0, 68, 56
1, 127056, Control_c, 0, 64, 88
1, 127071, Control_c, 0, 64, 90
1, 127071, Control_c, 0, 67, 31
1, 127080, Note_off_c, 0, 77, 60
1, 127086, Control_c, 0, 64, 94
1, 127101, Control_c, 0, 64, 97
1, 127101, Control_c, 0, 67, 31
1, 127102, Note_on_c, 0, 80, 71
1, 127116, Control_c, 0, 64, 101
1, 127122, Note_off_c, 0, 49, 35
1, 127130, Control_c, 0, 64, 104
1, 127130, Control_c, 0, 67, 32
1, 127133, Note_on_c, 0, 71, 37
1, 127153, Control_c, 0, 64, 107
1, 127153, Control_c, 0, 67, 33
1, 127168, Control_c, 0, 64, 109
1, 127168, Control_c, 0, 67, 34
1, 127170, Note_off_c, 0, 71, 56
1, 127182, Control_c, 0, 64, 113
1, 127182, Control_c, 0, 67, 35
1, 127196, Note_off_c, 0, 80, 59
1, 127197, Control_c, 0, 64, 119
1, 127197, Control_c, 0, 67, 35
1, 127212, Control_c, 0, 64, 127
1, 127212, Control_c, 0, 67, 36
1, 127225, Note_on_c, 0, 75, 61
1, 127227, Control_c, 0, 67, 37
1, 127232, Note_on_c, 0, 66, 60
1, 127242, Control_c, 0, 67, 38
1, 127256, Control_c, 0, 67, 40
1, 127271, Control_c, 0, 67, 41
1, 127279, Note_off_c, 0, 61, 32
1, 127286, Control_c, 0, 67, 43
1, 127295, Note_off_c, 0, 66, 59
1, 127301, Control_c, 0, 67, 45
1, 127316, Control_c, 0, 67, 48
1, 127330, Control_c, 0, 67, 49
1, 127334, Note_off_c, 0, 75, 55
1, 127345, Control_c, 0, 67, 50
1, 127360, Control_c, 0, 67, 50
1, 127364, Note_on_c, 0, 80, 66
1, 127372, Note_on_c, 0, 49, 42
1, 127374, Control_c, 0, 67, 51
1, 127386, Note_on_c, 0, 71, 41
1, 127389, Control_c, 0, 67, 51
1, 127404, Note_off_c, 0, 80, 57
1, 127414, Note_off_c, 0, 71, 57
1, 127419, Control_c, 0, 67, 52
1, 127509, Control_c, 0, 67, 51
1, 127529, Note_on_c, 0, 73, 68
1, 127539, Control_c, 0, 67, 50
1, 127540, Note_on_c, 0, 61, 48
1, 127544, Note_off_c, 0, 49, 44
1, 127553, Control_c, 0, 67, 50
1, 127567, Note_off_c, 0, 61, 60
1, 127583, Control_c, 0, 67, 49
1, 127598, Control_c, 0, 67, 48
1, 127613, Control_c, 0, 67, 48
1, 127628, Control_c, 0, 67, 47
1, 127643, Control_c, 0, 67, 47
1, 127643, Note_off_c, 0, 73, 61
1, 127658, Control_c, 0, 67, 46
1, 127687, Control_c, 0, 67, 46
1, 127702, Control_c, 0, 67, 45
1, 127769, Note_on_c, 0, 71, 60
1, 127803, Note_off_c, 0, 71, 56
1, 127867, Note_on_c, 0, 78, 69
1, 127869, Note_on_c, 0, 73, 54
1, 127889, Note_on_c, 0, 70, 42
1, 127929, Note_on_c, 0, 30, 54
1, 127932, Control_c, 0, 64, 96
1, 127947, Control_c, 0, 64, 77
1, 127961, Control_c, 0, 64, 65
1, 127976, Control_c, 0, 64, 46
1, 127991, Control_c, 0, 64, 43
1, 128005, Control_c, 0, 64, 57
1, 128020, Control_c, 0, 64, 64
1, 128035, Control_c, 0, 64, 69
1, 128050, Control_c, 0, 64, 74
1, 128065, Control_c, 0, 64, 80
1, 128079, Control_c, 0, 64, 88
1, 128086, Note_off_c, 0, 30, 53
1, 128094, Control_c, 0, 64, 95
1, 128094, Control_c, 0, 67, 45
1, 128109, Control_c, 0, 64, 102
1, 128123, Control_c, 0, 64, 110
1, 128123, Control_c, 0, 67, 44
1, 128138, Control_c, 0, 64, 127
1, 128153, Control_c, 0, 67, 44
1, 128183, Control_c, 0, 67, 43
1, 128197, Control_c, 0, 67, 43
1, 128212, Control_c, 0, 67, 42
1, 128242, Control_c, 0, 67, 42
1, 128257, Control_c, 0, 67, 41
1, 128273, Control_c, 0, 67, 41
1, 128288, Control_c, 0, 67, 40
1, 128362, Control_c, 0, 67, 40
1, 128391, Control_c, 0, 67, 39
1, 128403, Note_off_c, 0, 70, 36
1, 128480, Note_off_c, 0, 73, 36
1, 128510, Control_c, 0, 67, 39
1, 128519, Note_on_c, 0, 49, 53
1, 128525, Control_c, 0, 67, 38
1, 128554, Control_c, 0, 67, 37
1, 128569, Control_c, 0, 67, 36
1, 128584, Control_c, 0, 67, 36
1, 128585, Note_off_c, 0, 78, 34
1, 128614, Control_c, 0, 67, 35
1, 128784, Control_c, 0, 67, 36
1, 128829, Note_on_c, 0, 61, 56
1, 128922, Note_on_c, 0, 71, 61
1, 128953, Note_off_c, 0, 49, 34
1, 129006, Control_c, 0, 67, 36
1, 129008, Note_on_c, 0, 78, 68
1, 129010, Note_on_c, 0, 70, 54
1, 129022, Note_on_c, 0, 73, 57
1, 129050, Control_c, 0, 67, 37
1, 129061, Note_off_c, 0, 71, 31
1, 129065, Control_c, 0, 67, 37
1, 129096, Control_c, 0, 67, 38
1, 129111, Control_c, 0, 67, 38
1, 129155, Control_c, 0, 64, 118
1, 129155, Control_c, 0, 67, 39
1, 129169, Control_c, 0, 64, 110
1, 129169, Control_c, 0, 67, 39
1, 129184, Control_c, 0, 64, 104
1, 129184, Control_c, 0, 67, 40
1, 129199, Control_c, 0, 64, 101
1, 129199, Control_c, 0, 67, 40
1, 129214, Control_c, 0, 64, 99
1, 129229, Control_c, 0, 64, 97
1, 129229, Control_c, 0, 67, 41
1, 129243, Control_c, 0, 64, 94
1, 129258, Control_c, 0, 64, 90
1, 129273, Control_c, 0, 64, 85
1, 129273, Control_c, 0, 67, 41
1, 129288, Note_on_c, 0, 49, 51
1, 129288, Control_c, 0, 64, 82
1, 129297, Note_off_c, 0, 61, 39
1, 129303, Control_c, 0, 64, 79
1, 129303, Control_c, 0, 67, 42
1, 129318, Control_c, 0, 64, 78
1, 129333, Control_c, 0, 64, 79
1, 129333, Control_c, 0, 67, 42
1, 129348, Control_c, 0, 64, 82
1, 129363, Control_c, 0, 64, 85
1, 129363, Control_c, 0, 67, 43
1, 129377, Control_c, 0, 64, 87
1, 129377, Control_c, 0, 67, 43
1, 129399, Control_c, 0, 64, 88
1, 129414, Control_c, 0, 64, 90
1, 129414, Control_c, 0, 67, 44
1, 129429, Control_c, 0, 64, 92
1, 129444, Control_c, 0, 64, 94
1, 129444, Control_c, 0, 67, 45
1, 129458, Control_c, 0, 64, 97
1, 129458, Control_c, 0, 67, 45
1, 129473, Control_c, 0, 64, 100
1, 129488, Control_c, 0, 64, 102
1, 129488, Control_c, 0, 67, 46
1, 129503, Control_c, 0, 64, 103
1, 129518, Control_c, 0, 64, 104
1, 129518, Control_c, 0, 67, 46
1, 129533, Control_c, 0, 64, 104
1, 129547, Note_off_c, 0, 73, 37
1, 129547, Control_c, 0, 64, 105
1, 129547, Control_c, 0, 67, 47
1, 129553, Note_off_c, 0, 70, 34
1, 129556, Note_off_c, 0, 78, 33
1, 129562, Control_c, 0, 64, 106
1, 129577, Control_c, 0, 64, 107
1, 129592, Control_c, 0, 67, 48
1, 129607, Control_c, 0, 67, 48
1, 129614, Note_on_c, 0, 61, 46
1, 129622, Control_c, 0, 64, 108
1, 129637, Control_c, 0, 67, 49
1, 129705, Note_on_c, 0, 71, 54
1, 129711, Control_c, 0, 67, 49
1, 129726, Control_c, 0, 64, 107
1, 129756, Control_c, 0, 67, 50
1, 129786, Note_on_c, 0, 70, 41
1, 129786, Note_on_c, 0, 78, 59
1, 129798, Note_on_c, 0, 73, 54
1, 129806, Note_off_c, 0, 49, 34
1, 129815, Control_c, 0, 67, 50
1, 129838, Note_off_c, 0, 70, 0
1, 129838, Note_on_c, 0, 70, 9
1, 129845, Control_c, 0, 64, 106
1, 129845, Control_c, 0, 67, 51
1, 129852, Note_off_c, 0, 71, 27
1, 129859, Control_c, 0, 64, 106
1, 129859, Control_c, 0, 67, 52
1, 129875, Control_c, 0, 64, 105
1, 129875, Control_c, 0, 67, 53
1, 129890, Control_c, 0, 64, 105
1, 129890, Control_c, 0, 67, 54
1, 129905, Control_c, 0, 64, 104
1, 129905, Control_c, 0, 67, 55
1, 129920, Control_c, 0, 64, 104
1, 129920, Control_c, 0, 67, 56
1, 129935, Control_c, 0, 64, 103
1, 129935, Control_c, 0, 67, 56
1, 129949, Control_c, 0, 64, 102
1, 129949, Control_c, 0, 67, 57
1, 129964, Control_c, 0, 64, 101
1, 129964, Control_c, 0, 67, 57
1, 129979, Control_c, 0, 64, 100
1, 129993, Control_c, 0, 64, 99
1, 129993, Control_c, 0, 67, 58
1, 130008, Control_c, 0, 64, 98
1, 130008, Control_c, 0, 67, 58
1, 130023, Control_c, 0, 64, 97
1, 130038, Control_c, 0, 64, 95
1, 130038, Control_c, 0, 67, 59
1, 130053, Note_on_c, 0, 51, 46
1, 130053, Control_c, 0, 64, 94
1, 130053, Control_c, 0, 67, 60
1, 130067, Control_c, 0, 64, 93
1, 130067, Control_c, 0, 67, 60
1, 130075, Note_off_c, 0, 61, 35
1, 130082, Control_c, 0, 64, 92
1, 130082, Control_c, 0, 67, 61
1, 130097, Control_c, 0, 64, 91
1, 130097, Control_c, 0, 67, 62
1, 130112, Control_c, 0, 64, 89
1, 130112, Control_c, 0, 67, 62
1, 130127, Control_c, 0, 64, 88
1, 130127, Control_c, 0, 67, 63
1, 130149, Control_c, 0, 64, 86
1, 130149, Control_c, 0, 67, 63
1, 130159, Note_on_c, 0, 49, 45
1, 130164, Control_c, 0, 64, 85
1, 130164, Control_c, 0, 67, 64
1, 130179, Control_c, 0, 64, 85
1, 130194, Control_c, 0, 64, 83
1, 130194, Control_c, 0, 67, 64
1, 130201, Note_off_c, 0, 51, 31
1, 130208, Control_c, 0, 64, 82
1, 130208, Control_c, 0, 67, 65
1, 130223, Control_c, 0, 64, 79
1, 130223, Control_c, 0, 67, 65
1, 130238, Control_c, 0, 64, 75
1, 130238, Control_c, 0, 67, 66
1, 130253, Control_c, 0, 64, 71
1, 130253, Control_c, 0, 67, 66
1, 130268, Control_c, 0, 64, 68
1, 130268, Control_c, 0, 67, 67
1, 130282, Control_c, 0, 64, 66
1, 130282, Control_c, 0, 67, 68
1, 130297, Control_c, 0, 67, 69
1, 130312, Control_c, 0, 67, 69
1, 130326, Control_c, 0, 67, 70
1, 130341, Control_c, 0, 64, 67
1, 130341, Control_c, 0, 67, 71
1, 130356, Control_c, 0, 64, 68
1, 130356, Control_c, 0, 67, 72
1, 130371, Control_c, 0, 64, 69
1, 130371, Control_c, 0, 67, 73
1, 130386, Control_c, 0, 64, 71
1, 130386, Control_c, 0, 67, 74
1, 130400, Control_c, 0, 64, 72
1, 130400, Control_c, 0, 67, 75
1, 130415, Control_c, 0, 64, 74
1, 130415, Control_c, 0, 67, 76
1, 130430, Control_c, 0, 64, 76
1, 130430, Control_c, 0, 67, 78
1, 130445, Control_c, 0, 64, 78
1, 130445, Control_c, 0, 67, 79
1, 130460, Control_c, 0, 64, 80
1, 130460, Control_c, 0, 67, 81
1, 130474, Note_off_c, 0, 73, 55
1, 130474, Control_c, 0, 64, 81
1, 130474, Control_c, 0, 67, 81
1, 130481, Note_off_c, 0, 70, 53
1, 130489, Control_c, 0, 64, 82
1, 130489, Control_c, 0, 67, 82
1, 130497, Note_off_c, 0, 78, 44
1, 130504, Control_c, 0, 64, 84
1, 130504, Control_c, 0, 67, 83
1, 130504, Note_on_c, 0, 61, 44
1, 130518, Control_c, 0, 64, 86
1, 130518, Control_c, 0, 67, 85
1, 130533, Control_c, 0, 64, 87
1, 130533, Control_c, 0, 67, 85
1, 130548, Control_c, 0, 64, 89
1, 130548, Control_c, 0, 67, 86
1, 130563, Control_c, 0, 64, 90
1, 130563, Control_c, 0, 67, 86
1, 130578, Control_c, 0, 64, 90
1, 130578, Control_c, 0, 67, 87
1, 130583, Note_on_c, 0, 71, 58
1, 130592, Control_c, 0, 64, 91
1, 130592, Control_c, 0, 67, 88
1, 130607, Control_c, 0, 64, 92
1, 130607, Control_c, 0, 67, 89
1, 130622, Control_c, 0, 64, 93
1, 130622, Control_c, 0, 67, 90
1, 130637, Control_c, 0, 64, 93
1, 130637, Control_c, 0, 67, 91
1, 130642, Note_off_c, 0, 49, 30
1, 130652, Control_c, 0, 67, 92
1, 130655, Note_off_c, 0, 71, 52
1, 130668, Control_c, 0, 67, 92
1, 130683, Control_c, 0, 67, 93
1, 130686, Note_on_c, 0, 78, 57
1, 130697, Control_c, 0, 67, 94
1, 130700, Note_on_c, 0, 70, 42
1, 130701, Note_on_c, 0, 73, 44
1, 130712, Control_c, 0, 67, 95
1, 130727, Control_c, 0, 67, 96
1, 130742, Control_c, 0, 67, 96
1, 130757, Control_c, 0, 67, 97
1, 130771, Control_c, 0, 67, 99
1, 130786, Control_c, 0, 67, 100
1, 130801, Control_c, 0, 67, 102
1, 130815, Control_c, 0, 67, 103
1, 130830, Control_c, 0, 67, 105
1, 130845, Control_c, 0, 64, 93
1, 130845, Control_c, 0, 67, 106
1, 130860, Control_c, 0, 64, 92
1, 130860, Control_c, 0, 67, 108
1, 130875, Control_c, 0, 67, 110
1, 130897, Control_c, 0, 64, 92
1, 130897, Control_c, 0, 67, 112
1, 130912, Control_c, 0, 64, 91
1, 130912, Control_c, 0, 67, 114
1, 130927, Control_c, 0, 64, 91
1, 130927, Control_c, 0, 67, 115
1, 130942, Control_c, 0, 64, 90
1, 130942, Control_c, 0, 67, 116
1, 130956, Control_c, 0, 64, 89
1, 130956, Control_c, 0, 67, 118
1, 130971, Control_c, 0, 64, 88
1, 130971, Control_c, 0, 67, 120
1, 130981, Note_on_c, 0, 51, 39
1, 130986, Control_c, 0, 64, 88
1, 130986, Control_c, 0, 67, 121
1, 131001, Control_c, 0, 64, 87
1, 131001, Control_c, 0, 67, 123
1, 131016, Control_c, 0, 64, 86
1, 131016, Control_c, 0, 67, 124
1, 131030, Control_c, 0, 64, 85
1, 131030, Control_c, 0, 67, 126
1, 131045, Control_c, 0, 64, 84
1, 131045, Control_c, 0, 67, 127
1, 131051, Note_off_c, 0, 61, 24
1, 131060, Control_c, 0, 64, 82
1, 131075, Control_c, 0, 64, 81
1, 131090, Control_c, 0, 64, 80
1, 131104, Control_c, 0, 64, 79
1, 131105, Note_on_c, 0, 49, 36
1, 131119, Control_c, 0, 64, 78
1, 131134, Control_c, 0, 64, 76
1, 131135, Note_off_c, 0, 51, 42
1, 131148, Control_c, 0, 64, 75
1, 131163, Control_c, 0, 64, 73
1, 131178, Control_c, 0, 64, 71
1, 131193, Control_c, 0, 64, 70
1, 131208, Control_c, 0, 64, 69
1, 131222, Control_c, 0, 64, 68
1, 131237, Control_c, 0, 64, 67
1, 131252, Control_c, 0, 64, 66
1, 131267, Control_c, 0, 64, 66
1, 131282, Control_c, 0, 64, 65
1, 131296, Control_c, 0, 64, 65
1, 131326, Control_c, 0, 64, 66
1, 131340, Control_c, 0, 64, 67
1, 131355, Control_c, 0, 64, 69
1, 131370, Control_c, 0, 64, 72
1, 131385, Control_c, 0, 64, 74
1, 131400, Control_c, 0, 64, 77
1, 131414, Control_c, 0, 64, 79
1, 131429, Control_c, 0, 64, 82
1, 131444, Control_c, 0, 64, 84
1, 131457, Note_off_c, 0, 73, 43
1, 131459, Control_c, 0, 64, 87
1, 131475, Control_c, 0, 64, 89
1, 131482, Note_off_c, 0, 70, 38
1, 131490, Control_c, 0, 64, 92
1, 131505, Control_c, 0, 64, 94
1, 131519, Control_c, 0, 64, 95
1, 131534, Control_c, 0, 64, 97
1, 131549, Note_off_c, 0, 78, 41
1, 131549, Control_c, 0, 64, 100
1, 131564, Control_c, 0, 64, 102
1, 131578, Control_c, 0, 64, 105
1, 131593, Control_c, 0, 64, 107
1, 131608, Control_c, 0, 64, 110
1, 131623, Control_c, 0, 64, 112
1, 131645, Control_c, 0, 64, 116
1, 131660, Control_c, 0, 64, 120
1, 131675, Control_c, 0, 64, 126
1, 131690, Control_c, 0, 64, 127
1, 131732, Note_on_c, 0, 61, 36
1, 131809, Note_off_c, 0, 49, 42
1, 131868, Note_off_c, 0, 61, 41
1, 132378, Note_on_c, 0, 71, 33
1, 132910, Note_off_c, 0, 71, 23
1, 133116, Note_on_c, 0, 69, 26
1, 133277, Note_on_c, 0, 78, 46
1, 133289, Note_on_c, 0, 73, 38
1, 133336, Control_c, 0, 64, 117
1, 133350, Control_c, 0, 64, 108
1, 133365, Control_c, 0, 64, 99
1, 133380, Control_c, 0, 64, 92
1, 133395, Control_c, 0, 64, 86
1, 133410, Control_c, 0, 64, 81
1, 133424, Control_c, 0, 64, 76
1, 133439, Control_c, 0, 64, 72
1, 133454, Control_c, 0, 64, 69
1, 133469, Control_c, 0, 64, 69
1, 133484, Control_c, 0, 64, 72
1, 133498, Control_c, 0, 64, 75
1, 133513, Control_c, 0, 64, 78
1, 133528, Control_c, 0, 64, 79
1, 133542, Control_c, 0, 64, 81
1, 133557, Control_c, 0, 64, 84
1, 133572, Control_c, 0, 64, 87
1, 133587, Control_c, 0, 64, 89
1, 133602, Control_c, 0, 64, 91
1, 133616, Control_c, 0, 64, 91
1, 133631, Control_c, 0, 64, 92
1, 133652, Note_off_c, 0, 69, 0
1, 133661, Control_c, 0, 64, 93
1, 133676, Control_c, 0, 64, 96
1, 133688, Poly_aftertouch_c, 0, 69, 127
1, 133691, Control_c, 0, 64, 97
1, 133706, Control_c, 0, 64, 98
1, 133721, Control_c, 0, 64, 99
1, 133735, Control_c, 0, 64, 99
1, 133750, Control_c, 0, 64, 100
1, 133765, Control_c, 0, 64, 101
1, 133780, Control_c, 0, 64, 102
1, 133795, Control_c, 0, 64, 102
1, 133809, Control_c, 0, 64, 103
1, 134025, Control_c, 0, 64, 102
1, 134040, Control_c, 0, 64, 101
1, 134055, Control_c, 0, 64, 99
1, 134070, Control_c, 0, 64, 98
1, 134114, Control_c, 0, 64, 98
1, 134129, Control_c, 0, 64, 97
1, 134144, Control_c, 0, 64, 97
1, 134159, Control_c, 0, 64, 96
1, 134188, Control_c, 0, 64, 95
1, 134203, Control_c, 0, 64, 95
1, 134233, Control_c, 0, 64, 94
1, 134247, Control_c, 0, 64, 93
1, 134262, Control_c, 0, 64, 92
1, 134277, Control_c, 0, 64, 91
1, 134292, Control_c, 0, 64, 90
1, 134307, Control_c, 0, 64, 89
1, 134321, Control_c, 0, 64, 88
1, 134336, Control_c, 0, 64, 87
1, 134351, Control_c, 0, 64, 86
1, 134365, Control_c, 0, 64, 85
1, 134380, Control_c, 0, 64, 84
1, 134395, Control_c, 0, 64, 84
1, 134408, Note_on_c, 0, 49, 34
1, 134410, Control_c, 0, 64, 83
1, 134425, Control_c, 0, 64, 83
1, 134439, Control_c, 0, 64, 82
1, 134454, Control_c, 0, 64, 81
1, 134469, Control_c, 0, 64, 81
1, 134484, Control_c, 0, 64, 80
1, 134499, Control_c, 0, 64, 80
1, 134514, Control_c, 0, 64, 79
1, 134529, Control_c, 0, 64, 78
1, 134543, Control_c, 0, 64, 78
1, 134558, Control_c, 0, 64, 77
1, 134573, Control_c, 0, 64, 76
1, 134588, Control_c, 0, 64, 75
1, 134603, Control_c, 0, 64, 73
1, 134618, Control_c, 0, 64, 72
1, 134639, Control_c, 0, 64, 71
1, 134654, Control_c, 0, 64, 71
1, 134730, Control_c, 0, 64, 70
1, 134759, Control_c, 0, 64, 71
1, 134788, Control_c, 0, 64, 71
1, 134803, Control_c, 0, 64, 72
1, 134818, Control_c, 0, 64, 72
1, 134833, Control_c, 0, 64, 73
1, 134848, Control_c, 0, 64, 73
1, 134862, Control_c, 0, 64, 74
1, 134871, Note_on_c, 0, 54, 40
1, 134877, Control_c, 0, 64, 75
1, 134892, Control_c, 0, 64, 76
1, 134907, Control_c, 0, 64, 77
1, 134922, Control_c, 0, 64, 78
1, 134937, Control_c, 0, 64, 78
1, 134967, Control_c, 0, 64, 79
1, 134982, Control_c, 0, 64, 80
1, 135011, Control_c, 0, 64, 80
1, 135038, Poly_aftertouch_c, 0, 69, 0
1, 135049, Note_off_c, 0, 78, 41
1, 135100, Control_c, 0, 64, 80
1, 135103, Note_off_c, 0, 73, 42
1, 135174, Control_c, 0, 64, 79
1, 135190, Note_on_c, 0, 56, 46
1, 135218, Control_c, 0, 64, 79
1, 135248, Control_c, 0, 64, 78
1, 135264, Note_off_c, 0, 54, 31
1, 135277, Control_c, 0, 64, 78
1, 135292, Control_c, 0, 64, 77
1, 135322, Control_c, 0, 64, 77
1, 135336, Control_c, 0, 64, 76
1, 135351, Control_c, 0, 64, 75
1, 135366, Control_c, 0, 64, 75
1, 135381, Control_c, 0, 64, 74
1, 135403, Control_c, 0, 64, 74
1, 135418, Control_c, 0, 64, 73
1, 135433, Control_c, 0, 64, 72
1, 135438, Note_on_c, 0, 57, 49
1, 135448, Control_c, 0, 64, 72
1, 135464, Control_c, 0, 64, 71
1, 135479, Control_c, 0, 64, 71
1, 135494, Control_c, 0, 64, 70
1, 135495, Note_off_c, 0, 56, 32
1, 135508, Control_c, 0, 64, 70
1, 135523, Control_c, 0, 64, 69
1, 135552, Control_c, 0, 64, 69
1, 135582, Control_c, 0, 64, 68
1, 135597, Control_c, 0, 64, 68
1, 135606, Note_off_c, 0, 49, 15
1, 135611, Control_c, 0, 64, 67
1, 135656, Control_c, 0, 64, 67
1, 135669, Note_on_c, 0, 59, 51
1, 135671, Control_c, 0, 64, 66
1, 135685, Control_c, 0, 64, 66
1, 135700, Note_off_c, 0, 57, 37
1, 135700, Control_c, 0, 64, 65
1, 135715, Control_c, 0, 64, 65
1, 135745, Control_c, 0, 64, 64
1, 135760, Control_c, 0, 64, 64
1, 135775, Control_c, 0, 64, 63
1, 135931, Note_on_c, 0, 61, 52
1, 136126, Note_off_c, 0, 59, 36
1, 136280, Note_on_c, 0, 66, 44
1, 136356, Note_off_c, 0, 61, 52
1, 136509, Note_on_c, 0, 62, 49
1, 136733, Note_off_c, 0, 66, 28
1, 136743, Note_on_c, 0, 61, 53
1, 136812, Note_off_c, 0, 62, 16
1, 136970, Note_on_c, 0, 59, 51
1, 136992, Note_off_c, 0, 61, 39
1, 137191, Note_on_c, 0, 62, 50
1, 137241, Note_off_c, 0, 59, 42
1, 137444, Note_on_c, 0, 61, 58
1, 137488, Note_off_c, 0, 62, 43
1, 137691, Note_on_c, 0, 66, 50
1, 137713, Note_off_c, 0, 61, 54
1, 137876, Note_on_c, 0, 62, 51
1, 137989, Note_off_c, 0, 66, 32
1, 138051, Control_c, 0, 64, 64
1, 138087, Note_on_c, 0, 61, 54
1, 138132, Note_off_c, 0, 62, 46
1, 138302, Note_off_c, 0, 61, 47
1, 138305, Note_on_c, 0, 59, 47
1, 138529, Note_on_c, 0, 62, 54
1, 138564, Note_off_c, 0, 59, 43
1, 138757, Note_on_c, 0, 61, 63
1, 138791, Note_off_c, 0, 62, 44
1, 138964, Note_on_c, 0, 66, 54
1, 139007, Control_c, 0, 64, 64
1, 139008, Note_off_c, 0, 61, 33
1, 139197, Note_on_c, 0, 62, 63
1, 139252, Note_off_c, 0, 66, 55
1, 139370, Control_c, 0, 64, 65
1, 139449, Note_off_c, 0, 62, 60
1, 139468, Note_on_c, 0, 61, 65
1, 139505, Control_c, 0, 64, 65
1, 139564, Control_c, 0, 64, 66
1, 139578, Control_c, 0, 64, 66
1, 139593, Control_c, 0, 64, 67
1, 139608, Control_c, 0, 64, 68
1, 139623, Control_c, 0, 64, 69
1, 139638, Control_c, 0, 64, 70
1, 139653, Control_c, 0, 64, 71
1, 139668, Control_c, 0, 64, 73
1, 139668, Control_c, 0, 67, 127
1, 139683, Control_c, 0, 64, 75
1, 139683, Control_c, 0, 67, 126
1, 139697, Control_c, 0, 64, 76
1, 139712, Control_c, 0, 64, 77
1, 139712, Control_c, 0, 67, 126
1, 139727, Control_c, 0, 64, 79
1, 139727, Control_c, 0, 67, 125
1, 139742, Control_c, 0, 64, 80
1, 139757, Control_c, 0, 64, 82
1, 139757, Control_c, 0, 67, 125
1, 139772, Control_c, 0, 64, 83
1, 139772, Control_c, 0, 67, 124
1, 139786, Control_c, 0, 64, 84
1, 139801, Control_c, 0, 64, 84
1, 139801, Control_c, 0, 67, 124
1, 139816, Control_c, 0, 64, 85
1, 139816, Control_c, 0, 67, 123
1, 139831, Control_c, 0, 64, 86
1, 139831, Control_c, 0, 67, 122
1, 139846, Control_c, 0, 64, 87
1, 139846, Control_c, 0, 67, 122
1, 139847, Note_on_c, 0, 73, 63
1, 139860, Control_c, 0, 64, 88
1, 139860, Control_c, 0, 67, 121
1, 139875, Control_c, 0, 64, 89
1, 139875, Control_c, 0, 67, 121
1, 139897, Control_c, 0, 64, 90
1, 139897, Control_c, 0, 67, 120
1, 139912, Control_c, 0, 64, 91
1, 139912, Control_c, 0, 67, 119
1, 139923, Note_off_c, 0, 61, 28
1, 139927, Control_c, 0, 64, 93
1, 139927, Control_c, 0, 67, 118
1, 139942, Control_c, 0, 64, 94
1, 139942, Control_c, 0, 67, 117
1, 139957, Control_c, 0, 64, 95
1, 139957, Control_c, 0, 67, 117
1, 139972, Control_c, 0, 64, 96
1, 139972, Control_c, 0, 67, 116
1, 139986, Control_c, 0, 64, 97
1, 139986, Control_c, 0, 67, 115
1, 140001, Control_c, 0, 64, 98
1, 140001, Control_c, 0, 67, 114
1, 140016, Control_c, 0, 64, 99
1, 140016, Control_c, 0, 67, 113
1, 140031, Control_c, 0, 64, 99
1, 140031, Control_c, 0, 67, 112
1, 140046, Control_c, 0, 67, 112
1, 140075, Control_c, 0, 67, 111
1, 140090, Control_c, 0, 67, 111
1, 140107, Note_off_c, 0, 73, 56
1, 140189, Note_on_c, 0, 66, 66
1, 140208, Control_c, 0, 64, 98
1, 140223, Control_c, 0, 64, 98
1, 140238, Control_c, 0, 64, 97
1, 140254, Control_c, 0, 64, 97
1, 140269, Control_c, 0, 64, 96
1, 140283, Control_c, 0, 64, 95
1, 140283, Control_c, 0, 67, 111
1, 140298, Control_c, 0, 64, 95
1, 140298, Control_c, 0, 67, 112
1, 140313, Control_c, 0, 64, 93
1, 140313, Control_c, 0, 67, 113
1, 140327, Control_c, 0, 64, 92
1, 140342, Control_c, 0, 64, 91
1, 140342, Control_c, 0, 67, 114
1, 140357, Control_c, 0, 64, 90
1, 140372, Control_c, 0, 64, 89
1, 140372, Control_c, 0, 67, 114
1, 140387, Control_c, 0, 64, 88
1, 140387, Control_c, 0, 67, 115
1, 140401, Control_c, 0, 64, 87
1, 140401, Control_c, 0, 67, 115
1, 140416, Control_c, 0, 64, 86
1, 140431, Control_c, 0, 64, 85
1, 140446, Control_c, 0, 64, 84
1, 140446, Control_c, 0, 67, 116
1, 140461, Control_c, 0, 64, 84
1, 140461, Control_c, 0, 67, 116
1, 140473, Note_on_c, 0, 68, 64
1, 140475, Control_c, 0, 64, 83
1, 140475, Control_c, 0, 67, 117
1, 140490, Control_c, 0, 64, 83
1, 140505, Control_c, 0, 64, 82
1, 140520, Control_c, 0, 64, 82
1, 140520, Control_c, 0, 67, 117
1, 140535, Control_c, 0, 64, 81
1, 140546, Note_off_c, 0, 66, 38
1, 140550, Control_c, 0, 64, 80
1, 140565, Control_c, 0, 64, 79
1, 140565, Control_c, 0, 67, 118
1, 140580, Control_c, 0, 64, 78
1, 140595, Control_c, 0, 64, 77
1, 140609, Control_c, 0, 64, 77
1, 140631, Control_c, 0, 64, 76
1, 140646, Control_c, 0, 64, 76
1, 140646, Control_c, 0, 67, 118
1, 140661, Control_c, 0, 64, 75
1, 140676, Control_c, 0, 64, 74
1, 140690, Control_c, 0, 64, 73
1, 140719, Note_off_c, 0, 68, 0
1, 140720, Control_c, 0, 64, 72
1, 140745, Note_on_c, 0, 66, 67
1, 140750, Control_c, 0, 64, 72
1, 140750, Control_c, 0, 67, 119
1, 140756, Poly_aftertouch_c, 0, 68, 127
1, 140780, Control_c, 0, 64, 71
1, 140785, Poly_aftertouch_c, 0, 68, 0
1, 140794, Control_c, 0, 64, 71
1, 140809, Control_c, 0, 64, 70
1, 140824, Control_c, 0, 64, 70
1, 140854, Control_c, 0, 64, 69
1, 140854, Control_c, 0, 67, 119
1, 140883, Control_c, 0, 64, 69
1, 140913, Control_c, 0, 64, 68
1, 140941, Control_c, 0, 64, 68
1, 140958, Note_on_c, 0, 64, 65
1, 140966, Note_off_c, 0, 66, 55
1, 140971, Control_c, 0, 64, 67
1, 140986, Control_c, 0, 64, 67
1, 141015, Control_c, 0, 64, 66
1, 141061, Control_c, 0, 64, 66
1, 141091, Control_c, 0, 67, 119
1, 141120, Control_c, 0, 64, 65
1, 141167, Note_on_c, 0, 66, 62
1, 141208, Note_off_c, 0, 64, 36
1, 141239, Control_c, 0, 67, 118
1, 141313, Control_c, 0, 67, 118
1, 141379, Control_c, 0, 67, 117
1, 141386, Note_on_c, 0, 64, 67
1, 141409, Control_c, 0, 67, 117
1, 141410, Note_off_c, 0, 66, 61
1, 141483, Control_c, 0, 67, 116
1, 141513, Control_c, 0, 67, 116
1, 141543, Control_c, 0, 67, 115
1, 141557, Control_c, 0, 67, 115
1, 141566, Note_off_c, 0, 64, 64
1, 141572, Note_on_c, 0, 62, 60
1, 141572, Control_c, 0, 67, 114
1, 141602, Control_c, 0, 67, 114
1, 141631, Control_c, 0, 67, 113
1, 141661, Control_c, 0, 67, 113
1, 141720, Control_c, 0, 67, 112
1, 141735, Control_c, 0, 67, 112
1, 141779, Control_c, 0, 67, 111
1, 141787, Note_on_c, 0, 64, 66
1, 141792, Note_off_c, 0, 62, 54
1, 141809, Control_c, 0, 67, 111
1, 141838, Control_c, 0, 67, 110
1, 141899, Control_c, 0, 67, 110
1, 141958, Control_c, 0, 67, 109
1, 141984, Note_on_c, 0, 62, 70
1, 141987, Control_c, 0, 67, 109
1, 142002, Control_c, 0, 67, 108
1, 142017, Control_c, 0, 67, 105
1, 142024, Note_off_c, 0, 64, 60
1, 142032, Control_c, 0, 67, 102
1, 142046, Control_c, 0, 67, 100
1, 142061, Control_c, 0, 67, 98
1, 142076, Control_c, 0, 67, 96
1, 142091, Control_c, 0, 67, 95
1, 142106, Control_c, 0, 67, 95
1, 142128, Control_c, 0, 67, 94
1, 142143, Control_c, 0, 67, 92
1, 142158, Control_c, 0, 67, 91
1, 142173, Control_c, 0, 67, 90
1, 142187, Control_c, 0, 67, 90
1, 142188, Note_on_c, 0, 61, 71
1, 142202, Control_c, 0, 67, 89
1, 142207, Note_off_c, 0, 62, 61
1, 142217, Control_c, 0, 67, 87
1, 142232, Control_c, 0, 67, 86
1, 142247, Control_c, 0, 67, 85
1, 142276, Control_c, 0, 67, 85
1, 142306, Control_c, 0, 67, 84
1, 142321, Control_c, 0, 67, 84
1, 142336, Control_c, 0, 67, 83
1, 142350, Control_c, 0, 67, 83
1, 142380, Control_c, 0, 67, 82
1, 142408, Note_on_c, 0, 62, 62
1, 142425, Control_c, 0, 67, 82
1, 142445, Note_off_c, 0, 61, 61
1, 142455, Control_c, 0, 67, 81
1, 142470, Control_c, 0, 67, 81
1, 142485, Control_c, 0, 67, 80
1, 142499, Control_c, 0, 67, 79
1, 142514, Control_c, 0, 67, 78
1, 142529, Control_c, 0, 67, 78
1, 142544, Control_c, 0, 67, 77
1, 142573, Control_c, 0, 67, 76
1, 142588, Control_c, 0, 67, 76
1, 142603, Control_c, 0, 67, 75
1, 142604, Note_on_c, 0, 61, 68
1, 142618, Control_c, 0, 67, 74
1, 142632, Control_c, 0, 67, 74
1, 142649, Control_c, 0, 67, 73
1, 142658, Note_off_c, 0, 62, 49
1, 142663, Control_c, 0, 67, 73
1, 142678, Control_c, 0, 67, 72
1, 142693, Control_c, 0, 67, 72
1, 142708, Control_c, 0, 67, 71
1, 142737, Control_c, 0, 67, 71
1, 142797, Control_c, 0, 67, 70
1, 142821, Note_on_c, 0, 59, 60
1, 142826, Control_c, 0, 64, 65
1, 142848, Note_off_c, 0, 61, 54
1, 142871, Control_c, 0, 67, 70
1, 142923, Control_c, 0, 67, 69
1, 143105, Note_on_c, 0, 61, 58
1, 143135, Note_off_c, 0, 59, 52
1, 143159, Control_c, 0, 64, 65
1, 143174, Control_c, 0, 64, 66
1, 143189, Control_c, 0, 64, 66
1, 143189, Control_c, 0, 67, 70
1, 143203, Control_c, 0, 64, 67
1, 143218, Control_c, 0, 64, 68
1, 143233, Control_c, 0, 64, 69
1, 143233, Control_c, 0, 67, 70
1, 143248, Control_c, 0, 64, 70
1, 143263, Control_c, 0, 64, 71
1, 143278, Control_c, 0, 64, 74
1, 143278, Control_c, 0, 67, 71
1, 143292, Control_c, 0, 64, 76
1, 143307, Control_c, 0, 64, 78
1, 143307, Control_c, 0, 67, 71
1, 143322, Control_c, 0, 64, 79
1, 143322, Control_c, 0, 67, 72
1, 143337, Control_c, 0, 64, 81
1, 143337, Control_c, 0, 67, 72
1, 143352, Control_c, 0, 64, 84
1, 143352, Control_c, 0, 67, 73
1, 143362, Note_on_c, 0, 66, 53
1, 143367, Control_c, 0, 64, 88
1, 143367, Control_c, 0, 67, 73
1, 143382, Control_c, 0, 64, 93
1, 143382, Control_c, 0, 67, 74
1, 143396, Control_c, 0, 64, 98
1, 143396, Control_c, 0, 67, 74
1, 143411, Control_c, 0, 64, 104
1, 143411, Control_c, 0, 67, 75
1, 143426, Control_c, 0, 64, 108
1, 143426, Control_c, 0, 67, 75
1, 143431, Note_off_c, 0, 61, 37
1, 143441, Control_c, 0, 64, 114
1, 143441, Control_c, 0, 67, 76
1, 143456, Control_c, 0, 64, 127
1, 143471, Control_c, 0, 67, 76
1, 143501, Control_c, 0, 67, 77
1, 143560, Control_c, 0, 67, 77
1, 143573, Note_on_c, 0, 49, 46
1, 143602, Note_on_c, 0, 61, 62
1, 143605, Control_c, 0, 67, 78
1, 143656, Control_c, 0, 67, 78
1, 143701, Control_c, 0, 67, 79
1, 143715, Note_off_c, 0, 66, 48
1, 143760, Control_c, 0, 67, 79
1, 143849, Control_c, 0, 67, 80
1, 143908, Control_c, 0, 64, 122
1, 143908, Control_c, 0, 67, 80
1, 143923, Control_c, 0, 64, 116
1, 143933, Note_on_c, 0, 50, 36
1, 143938, Control_c, 0, 64, 114
1, 143951, Control_c, 0, 64, 111
1, 143962, Note_off_c, 0, 49, 32
1, 143966, Control_c, 0, 64, 108
1, 143978, Note_on_c, 0, 62, 57
1, 143981, Control_c, 0, 64, 105
1, 143996, Control_c, 0, 64, 101
1, 144011, Control_c, 0, 64, 95
1, 144025, Control_c, 0, 64, 91
1, 144040, Control_c, 0, 64, 87
1, 144053, Note_off_c, 0, 61, 47
1, 144055, Control_c, 0, 64, 84
1, 144069, Control_c, 0, 64, 81
1, 144084, Control_c, 0, 64, 77
1, 144099, Control_c, 0, 64, 73
1, 144114, Control_c, 0, 64, 68
1, 144129, Control_c, 0, 64, 65
1, 144143, Control_c, 0, 64, 64
1, 144173, Control_c, 0, 64, 65
1, 144203, Control_c, 0, 64, 65
1, 144217, Control_c, 0, 64, 66
1, 144232, Control_c, 0, 64, 68
1, 144248, Control_c, 0, 64, 69
1, 144263, Control_c, 0, 64, 70
1, 144278, Control_c, 0, 64, 71
1, 144293, Control_c, 0, 64, 73
1, 144297, Note_on_c, 0, 66, 50
1, 144308, Control_c, 0, 64, 75
1, 144323, Control_c, 0, 64, 76
1, 144325, Note_on_c, 0, 54, 33
1, 144338, Control_c, 0, 64, 78
1, 144353, Control_c, 0, 64, 79
1, 144353, Control_c, 0, 67, 80
1, 144375, Control_c, 0, 64, 81
1, 144389, Control_c, 0, 64, 84
1, 144404, Control_c, 0, 64, 86
1, 144419, Control_c, 0, 64, 87
1, 144419, Control_c, 0, 67, 79
1, 144434, Control_c, 0, 64, 89
1, 144449, Control_c, 0, 64, 91
1, 144464, Control_c, 0, 64, 92
1, 144464, Control_c, 0, 67, 79
1, 144479, Control_c, 0, 64, 94
1, 144494, Control_c, 0, 64, 94
1, 144508, Control_c, 0, 64, 95
1, 144512, Note_on_c, 0, 59, 68
1, 144523, Control_c, 0, 64, 95
1, 144541, Note_on_c, 0, 47, 42
1, 144573, Note_off_c, 0, 50, 41
1, 144658, Note_off_c, 0, 54, 38
1, 144700, Control_c, 0, 67, 79
1, 144730, Control_c, 0, 67, 80
1, 144732, Note_off_c, 0, 66, 35
1, 144745, Control_c, 0, 64, 95
1, 144760, Control_c, 0, 64, 94
1, 144774, Control_c, 0, 64, 93
1, 144789, Control_c, 0, 64, 93
1, 144804, Note_on_c, 0, 61, 67
1, 144804, Control_c, 0, 64, 91
1, 144819, Control_c, 0, 64, 90
1, 144824, Note_off_c, 0, 47, 43
1, 144831, Note_on_c, 0, 49, 45
1, 144834, Control_c, 0, 64, 88
1, 144837, Note_off_c, 0, 59, 28
1, 144848, Control_c, 0, 64, 86
1, 144848, Control_c, 0, 67, 80
1, 144863, Control_c, 0, 64, 84
1, 144878, Control_c, 0, 64, 82
1, 144890, Note_off_c, 0, 62, 36
1, 144893, Control_c, 0, 64, 78
1, 144908, Control_c, 0, 64, 74
1, 144923, Control_c, 0, 64, 69
1, 144938, Control_c, 0, 64, 65
1, 144953, Control_c, 0, 64, 64
1, 145012, Control_c, 0, 64, 65
1, 145026, Control_c, 0, 64, 65
1, 145042, Control_c, 0, 64, 67
1, 145042, Control_c, 0, 67, 80
1, 145057, Control_c, 0, 64, 69
1, 145072, Control_c, 0, 64, 71
1, 145087, Control_c, 0, 64, 73
1, 145087, Control_c, 0, 67, 79
1, 145090, Note_on_c, 0, 66, 49
1, 145102, Control_c, 0, 64, 75
1, 145102, Control_c, 0, 67, 79
1, 145105, Note_on_c, 0, 54, 33
1, 145123, Control_c, 0, 64, 76
1, 145138, Control_c, 0, 64, 78
1, 145153, Control_c, 0, 64, 80
1, 145168, Control_c, 0, 64, 81
1, 145183, Control_c, 0, 64, 83
1, 145197, Control_c, 0, 64, 84
1, 145212, Control_c, 0, 64, 86
1, 145227, Control_c, 0, 64, 88
1, 145242, Control_c, 0, 64, 89
1, 145257, Control_c, 0, 64, 91
1, 145272, Control_c, 0, 64, 92
1, 145302, Note_on_c, 0, 57, 64
1, 145349, Note_on_c, 0, 45, 33
1, 145354, Note_off_c, 0, 49, 39
1, 145531, Note_off_c, 0, 61, 8
1, 145539, Control_c, 0, 64, 91
1, 145554, Control_c, 0, 67, 79
1, 145569, Control_c, 0, 64, 91
1, 145584, Control_c, 0, 64, 90
1, 145598, Control_c, 0, 64, 90
1, 145600, Note_on_c, 0, 59, 62
1, 145613, Note_off_c, 0, 54, 13
1, 145613, Control_c, 0, 64, 89
1, 145628, Control_c, 0, 64, 87
1, 145638, Note_on_c, 0, 47, 34
1, 145643, Control_c, 0, 64, 84
1, 145643, Control_c, 0, 67, 80
1, 145657, Control_c, 0, 64, 81
1, 145672, Control_c, 0, 64, 78
1, 145674, Note_off_c, 0, 57, 28
1, 145687, Control_c, 0, 64, 75
1, 145688, Note_off_c, 0, 66, 38
1, 145702, Control_c, 0, 64, 70
1, 145717, Control_c, 0, 64, 65
1, 145731, Control_c, 0, 64, 63
1, 145746, Control_c, 0, 64, 61
1, 145756, Note_off_c, 0, 45, 33
1, 145761, Control_c, 0, 64, 61
1, 145776, Control_c, 0, 64, 60
1, 145790, Control_c, 0, 64, 60
1, 145820, Control_c, 0, 64, 60
1, 145835, Control_c, 0, 64, 62
1, 145851, Control_c, 0, 64, 64
1, 145873, Control_c, 0, 64, 65
1, 145888, Control_c, 0, 64, 67
1, 145903, Control_c, 0, 64, 69
1, 145903, Control_c, 0, 67, 80
1, 145918, Control_c, 0, 64, 71
1, 145929, Note_on_c, 0, 66, 47
1, 145933, Control_c, 0, 64, 73
1, 145947, Control_c, 0, 64, 75
1, 145956, Note_on_c, 0, 54, 28
1, 145960, Note_off_c, 0, 59, 53
1, 145962, Control_c, 0, 64, 77
1, 145977, Control_c, 0, 64, 78
1, 145977, Control_c, 0, 67, 81
1, 145992, Control_c, 0, 64, 80
1, 146007, Control_c, 0, 64, 82
1, 146021, Control_c, 0, 64, 84
1, 146021, Control_c, 0, 67, 81
1, 146036, Control_c, 0, 64, 87
1, 146051, Control_c, 0, 64, 90
1, 146051, Control_c, 0, 67, 82
1, 146066, Control_c, 0, 64, 93
1, 146080, Control_c, 0, 64, 95
1, 146080, Control_c, 0, 67, 82
1, 146095, Control_c, 0, 64, 98
1, 146095, Control_c, 0, 67, 83
1, 146110, Control_c, 0, 64, 100
1, 146110, Control_c, 0, 67, 84
1, 146125, Control_c, 0, 64, 102
1, 146125, Control_c, 0, 67, 87
1, 146140, Control_c, 0, 64, 104
1, 146140, Control_c, 0, 67, 89
1, 146154, Control_c, 0, 64, 107
1, 146154, Control_c, 0, 67, 92
1, 146169, Control_c, 0, 64, 110
1, 146169, Control_c, 0, 67, 94
1, 146184, Control_c, 0, 64, 111
1, 146184, Control_c, 0, 67, 96
1, 146199, Control_c, 0, 64, 113
1, 146199, Control_c, 0, 67, 98
1, 146214, Control_c, 0, 64, 115
1, 146214, Control_c, 0, 67, 100
1, 146229, Control_c, 0, 64, 117
1, 146229, Control_c, 0, 67, 102
1, 146244, Control_c, 0, 64, 118
1, 146244, Control_c, 0, 67, 104
1, 146258, Control_c, 0, 64, 119
1, 146258, Control_c, 0, 67, 106
1, 146273, Control_c, 0, 64, 119
1, 146273, Control_c, 0, 67, 107
1, 146288, Control_c, 0, 67, 108
1, 146303, Control_c, 0, 67, 109
1, 146318, Control_c, 0, 67, 109
1, 146333, Control_c, 0, 67, 110
1, 146347, Control_c, 0, 67, 110
1, 146362, Control_c, 0, 67, 111
1, 146399, Note_on_c, 0, 61, 53
1, 146414, Note_off_c, 0, 54, 44
1, 146430, Note_on_c, 0, 49, 45
1, 146442, Note_off_c, 0, 47, 43
1, 146476, Note_off_c, 0, 49, 56
1, 146480, Note_off_c, 0, 66, 36
1, 146480, Control_c, 0, 67, 110
1, 146510, Control_c, 0, 67, 110
1, 146525, Control_c, 0, 64, 120
1, 146525, Control_c, 0, 67, 109
1, 146540, Control_c, 0, 67, 109
1, 146554, Control_c, 0, 67, 108
1, 146569, Control_c, 0, 67, 108
1, 146584, Control_c, 0, 67, 107
1, 146614, Control_c, 0, 64, 121
1, 147081, Control_c, 0, 64, 120
1, 147095, Control_c, 0, 64, 119
1, 147110, Control_c, 0, 64, 116
1, 147117, Note_on_c, 0, 69, 55
1, 147125, Control_c, 0, 64, 114
1, 147125, Control_c, 0, 67, 108
1, 147140, Control_c, 0, 64, 113
1, 147152, Note_on_c, 0, 57, 38
1, 147155, Control_c, 0, 64, 111
1, 147169, Control_c, 0, 64, 109
1, 147184, Control_c, 0, 64, 105
1, 147184, Control_c, 0, 67, 108
1, 147186, Note_on_c, 0, 45, 29
1, 147189, Note_on_c, 0, 33, 31
1, 147199, Control_c, 0, 64, 102
1, 147213, Control_c, 0, 64, 98
1, 147228, Control_c, 0, 64, 93
1, 147243, Control_c, 0, 64, 87
1, 147258, Control_c, 0, 64, 81
1, 147273, Control_c, 0, 64, 74
1, 147287, Control_c, 0, 64, 67
1, 147287, Control_c, 0, 67, 109
1, 147302, Control_c, 0, 64, 61
1, 147317, Control_c, 0, 64, 50
1, 147332, Control_c, 0, 64, 48
1, 147347, Control_c, 0, 64, 48
1, 147358, Note_off_c, 0, 61, 30
1, 147362, Control_c, 0, 64, 49
1, 147384, Control_c, 0, 64, 53
1, 147384, Control_c, 0, 67, 109
1, 147399, Control_c, 0, 64, 60
1, 147414, Control_c, 0, 64, 64
1, 147428, Control_c, 0, 64, 67
1, 147428, Control_c, 0, 67, 110
1, 147443, Control_c, 0, 64, 69
1, 147443, Control_c, 0, 67, 110
1, 147460, Control_c, 0, 64, 72
1, 147474, Control_c, 0, 64, 75
1, 147474, Control_c, 0, 67, 111
1, 147489, Control_c, 0, 64, 78
1, 147489, Control_c, 0, 67, 111
1, 147504, Control_c, 0, 64, 82
1, 147518, Control_c, 0, 64, 86
1, 147518, Control_c, 0, 67, 112
1, 147533, Control_c, 0, 64, 90
1, 147533, Control_c, 0, 67, 112
1, 147548, Control_c, 0, 64, 94
1, 147548, Control_c, 0, 67, 113
1, 147563, Control_c, 0, 64, 97
1, 147563, Control_c, 0, 67, 117
1, 147578, Control_c, 0, 64, 100
1, 147578, Control_c, 0, 67, 120
1, 147592, Control_c, 0, 64, 104
1, 147592, Control_c, 0, 67, 123
1, 147607, Control_c, 0, 64, 107
1, 147607, Control_c, 0, 67, 125
1, 147622, Control_c, 0, 64, 111
1, 147622, Control_c, 0, 67, 127
1, 147637, Control_c, 0, 64, 114
1, 147652, Control_c, 0, 64, 118
1, 147666, Control_c, 0, 64, 123
1, 147681, Control_c, 0, 64, 127
1, 147788, Note_off_c, 0, 45, 34
1, 147810, Note_off_c, 0, 33, 24
1, 147819, Note_on_c, 0, 40, 39
1, 148056, Note_off_c, 0, 40, 21
1, 148105, Note_on_c, 0, 33, 35
1, 148122, Note_on_c, 0, 45, 32
1, 148212, Note_off_c, 0, 57, 34
1, 148384, Note_off_c, 0, 45, 34
1, 148467, Note_off_c, 0, 33, 29
1, 148579, Note_on_c, 0, 40, 37
1, 148831, Note_on_c, 0, 45, 44
1, 148865, Note_off_c, 0, 40, 33
1, 148919, Note_off_c, 0, 45, 59
1, 149322, Note_on_c, 0, 52, 36
1, 149340, Note_on_c, 0, 40, 23
1, 149582, Note_on_c, 0, 45, 39
1, 149603, Note_off_c, 0, 52, 37
1, 149730, Note_off_c, 0, 40, 36
1, 150003, Note_off_c, 0, 45, 33
1, 150046, Note_on_c, 0, 52, 27
1, 150074, Note_on_c, 0, 40, 20
1, 150360, Note_on_c, 0, 45, 31
1, 150460, Note_on_c, 0, 61, 42
1, 150464, Note_off_c, 0, 52, 35
1, 150466, Note_off_c, 0, 40, 32
1, 150745, Note_on_c, 0, 64, 30
1, 150835, Note_off_c, 0, 45, 35
1, 150861, Note_off_c, 0, 64, 42
1, 150872, Note_off_c, 0, 61, 36
1, 150963, Note_on_c, 0, 59, 33
1, 150976, Note_on_c, 0, 52, 36
1, 150984, Note_on_c, 0, 40, 29
1, 151196, Note_on_c, 0, 61, 38
1, 151233, Note_on_c, 0, 45, 34
1, 151245, Note_off_c, 0, 59, 19
1, 151246, Note_off_c, 0, 52, 40
1, 151261, Note_off_c, 0, 40, 36
1, 151417, Note_on_c, 0, 64, 37
1, 151503, Note_off_c, 0, 64, 38
1, 151515, Note_off_c, 0, 61, 38
1, 151525, Note_off_c, 0, 45, 41
1, 151630, Note_on_c, 0, 59, 38
1, 151663, Note_off_c, 0, 59, 52
1, 151669, Note_on_c, 0, 52, 32
1, 151683, Note_on_c, 0, 40, 23
1, 151913, Note_on_c, 0, 61, 31
1, 151919, Note_off_c, 0, 40, 40
1, 151936, Note_on_c, 0, 45, 28
1, 151940, Note_off_c, 0, 52, 38
1, 152149, Note_on_c, 0, 66, 42
1, 152149, Note_off_c, 0, 61, 35
1, 152158, Note_off_c, 0, 45, 38
1, 152183, Note_on_c, 0, 64, 39
1, 152197, Note_off_c, 0, 66, 0
1, 152197, Note_on_c, 0, 66, 22
1, 152318, Note_off_c, 0, 69, 49
1, 152375, Note_on_c, 0, 68, 52
1, 152376, Note_on_c, 0, 59, 45
1, 152415, Note_on_c, 0, 40, 29
1, 152423, Note_off_c, 0, 59, 56
1, 152428, Note_on_c, 0, 52, 24
1, 152459, Note_off_c, 0, 64, 19
1, 152472, Note_off_c, 0, 66, 41
1, 152615, Note_on_c, 0, 69, 55
1, 152618, Note_off_c, 0, 68, 38
1, 152635, Note_on_c, 0, 45, 39
1, 152636, Note_off_c, 0, 40, 39
1, 152655, Note_on_c, 0, 61, 29
1, 152658, Note_off_c, 0, 52, 38
1, 152700, Note_off_c, 0, 61, 49
1, 152816, Note_on_c, 0, 66, 47
1, 152826, Note_off_c, 0, 45, 39
1, 152840, Note_on_c, 0, 64, 46
1, 152889, Note_off_c, 0, 69, 55
1, 153013, Note_on_c, 0, 68, 51
1, 153033, Note_on_c, 0, 40, 32
1, 153033, Note_on_c, 0, 52, 35
1, 153039, Note_off_c, 0, 64, 19
1, 153073, Note_off_c, 0, 66, 41
1, 153086, Poly_aftertouch_c, 0, 59, 127
1, 153131, Poly_aftertouch_c, 0, 59, 0
1, 153132, Note_off_c, 0, 68, 52
1, 153133, Note_on_c, 0, 71, 58
1, 153279, Control_c, 0, 64, 112
1, 153293, Note_on_c, 0, 69, 61
1, 153294, Control_c, 0, 64, 103
1, 153309, Control_c, 0, 64, 95
1, 153318, Note_off_c, 0, 71, 62
1, 153321, Note_on_c, 0, 45, 39
1, 153324, Control_c, 0, 64, 87
1, 153329, Note_on_c, 0, 61, 34
1, 153338, Control_c, 0, 64, 81
1, 153361, Control_c, 0, 64, 76
1, 153376, Control_c, 0, 64, 73
1, 153378, Note_off_c, 0, 40, 37
1, 153391, Control_c, 0, 64, 71
1, 153398, Note_off_c, 0, 52, 35
1, 153406, Control_c, 0, 64, 70
1, 153435, Control_c, 0, 64, 71
1, 153450, Control_c, 0, 64, 72
1, 153464, Control_c, 0, 64, 74
1, 153479, Control_c, 0, 64, 76
1, 153494, Control_c, 0, 64, 77
1, 153509, Control_c, 0, 64, 78
1, 153524, Control_c, 0, 64, 80
1, 153528, Note_on_c, 0, 64, 50
1, 153538, Control_c, 0, 64, 81
1, 153553, Control_c, 0, 64, 83
1, 153568, Control_c, 0, 64, 86
1, 153583, Note_off_c, 0, 61, 40
1, 153583, Control_c, 0, 64, 88
1, 153598, Control_c, 0, 64, 90
1, 153612, Control_c, 0, 64, 90
1, 153627, Control_c, 0, 64, 91
1, 153636, Note_off_c, 0, 45, 32
1, 153642, Control_c, 0, 64, 91
1, 153657, Control_c, 0, 64, 92
1, 153672, Control_c, 0, 64, 93
1, 153687, Control_c, 0, 64, 93
1, 153711, Note_on_c, 0, 68, 64
1, 153731, Control_c, 0, 67, 127
1, 153746, Control_c, 0, 64, 94
1, 153746, Control_c, 0, 67, 126
1, 153747, Note_on_c, 0, 59, 49
1, 153754, Note_on_c, 0, 40, 38
1, 153754, Note_on_c, 0, 52, 42
1, 153761, Control_c, 0, 67, 126
1, 153776, Control_c, 0, 67, 125
1, 153788, Note_off_c, 0, 59, 48
1, 153805, Control_c, 0, 67, 125
1, 153815, Note_off_c, 0, 64, 15
1, 153847, Note_off_c, 0, 69, 24
1, 153851, Control_c, 0, 67, 124
1, 153895, Control_c, 0, 64, 93
1, 153910, Control_c, 0, 64, 93
1, 153925, Control_c, 0, 64, 92
1, 153925, Control_c, 0, 67, 125
1, 153940, Control_c, 0, 64, 90
1, 153941, Note_on_c, 0, 69, 72
1, 153955, Control_c, 0, 64, 88
1, 153969, Note_on_c, 0, 61, 42
1, 153969, Control_c, 0, 64, 85
1, 153972, Note_on_c, 0, 45, 45
1, 153984, Control_c, 0, 64, 82
1, 153999, Control_c, 0, 64, 77
1, 154008, Note_off_c, 0, 68, 31
1, 154014, Control_c, 0, 64, 73
1, 154029, Control_c, 0, 64, 70
1, 154035, Note_off_c, 0, 40, 32
1, 154043, Control_c, 0, 64, 68
1, 154058, Control_c, 0, 64, 67
1, 154058, Control_c, 0, 67, 124
1, 154073, Control_c, 0, 64, 67
1, 154080, Note_off_c, 0, 52, 32
1, 154087, Control_c, 0, 64, 67
1, 154110, Control_c, 0, 64, 68
1, 154125, Control_c, 0, 64, 69
1, 154140, Control_c, 0, 64, 71
1, 154155, Control_c, 0, 64, 75
1, 154155, Control_c, 0, 67, 124
1, 154169, Control_c, 0, 64, 79
1, 154169, Control_c, 0, 67, 123
1, 154175, Note_on_c, 0, 68, 54
1, 154184, Control_c, 0, 64, 84
1, 154199, Control_c, 0, 64, 87
1, 154213, Control_c, 0, 64, 89
1, 154228, Control_c, 0, 64, 92
1, 154228, Control_c, 0, 67, 123
1, 154243, Control_c, 0, 64, 96
1, 154258, Control_c, 0, 64, 99
1, 154266, Note_off_c, 0, 61, 39
1, 154273, Control_c, 0, 64, 102
1, 154273, Control_c, 0, 67, 122
1, 154280, Note_off_c, 0, 69, 59
1, 154287, Control_c, 0, 64, 105
1, 154287, Control_c, 0, 67, 121
1, 154302, Control_c, 0, 64, 107
1, 154302, Control_c, 0, 67, 119
1, 154312, Note_off_c, 0, 45, 36
1, 154315, Note_off_c, 0, 68, 0
1, 154317, Control_c, 0, 64, 108
1, 154317, Control_c, 0, 67, 118
1, 154332, Control_c, 0, 64, 109
1, 154332, Control_c, 0, 67, 117
1, 154340, Note_on_c, 0, 68, 21
1, 154347, Control_c, 0, 64, 110
1, 154347, Control_c, 0, 67, 117
1, 154361, Control_c, 0, 64, 111
1, 154361, Control_c, 0, 67, 116
1, 154367, Note_on_c, 0, 71, 67
1, 154376, Control_c, 0, 64, 112
1, 154376, Control_c, 0, 67, 116
1, 154384, Note_on_c, 0, 66, 58
1, 154391, Control_c, 0, 67, 115
1, 154405, Control_c, 0, 67, 114
1, 154408, Note_on_c, 0, 40, 41
1, 154411, Note_off_c, 0, 66, 57
1, 154413, Note_on_c, 0, 52, 40
1, 154420, Control_c, 0, 67, 114
1, 154435, Control_c, 0, 64, 112
1, 154435, Control_c, 0, 67, 113
1, 154450, Control_c, 0, 67, 112
1, 154465, Control_c, 0, 64, 113
1, 154465, Control_c, 0, 67, 111
1, 154480, Control_c, 0, 67, 110
1, 154494, Note_off_c, 0, 71, 41
1, 154495, Control_c, 0, 67, 110
1, 154510, Control_c, 0, 67, 109
1, 154524, Control_c, 0, 67, 108
1, 154539, Control_c, 0, 67, 107
1, 154554, Control_c, 0, 67, 107
1, 154584, Control_c, 0, 64, 112
1, 154629, Control_c, 0, 64, 112
1, 154629, Control_c, 0, 67, 106
1, 154644, Control_c, 0, 64, 109
1, 154659, Control_c, 0, 64, 106
1, 154674, Control_c, 0, 64, 103
1, 154675, Note_on_c, 0, 45, 42
1, 154685, Note_on_c, 0, 73, 68
1, 154688, Control_c, 0, 64, 101
1, 154703, Control_c, 0, 64, 99
1, 154716, Note_on_c, 0, 64, 50
1, 154718, Control_c, 0, 64, 96
1, 154733, Control_c, 0, 64, 93
1, 154748, Control_c, 0, 64, 90
1, 154763, Control_c, 0, 64, 88
1, 154778, Control_c, 0, 64, 85
1, 154778, Control_c, 0, 67, 106
1, 154792, Control_c, 0, 64, 83
1, 154799, Note_off_c, 0, 52, 35
1, 154807, Control_c, 0, 64, 80
1, 154808, Note_off_c, 0, 68, 54
1, 154814, Note_off_c, 0, 40, 31
1, 154822, Control_c, 0, 64, 78
1, 154836, Control_c, 0, 64, 76
1, 154851, Control_c, 0, 64, 73
1, 154873, Control_c, 0, 64, 70
1, 154873, Control_c, 0, 67, 105
1, 154888, Control_c, 0, 64, 68
1, 154903, Control_c, 0, 64, 68
1, 154918, Control_c, 0, 64, 68
1, 154918, Control_c, 0, 67, 105
1, 154933, Control_c, 0, 64, 69
1, 154948, Control_c, 0, 64, 69
1, 154948, Control_c, 0, 67, 103
1, 154963, Control_c, 0, 64, 71
1, 154963, Control_c, 0, 67, 100
1, 154968, Note_on_c, 0, 69, 54
1, 154978, Control_c, 0, 64, 73
1, 154978, Control_c, 0, 67, 98
1, 154992, Control_c, 0, 64, 77
1, 154992, Control_c, 0, 67, 95
1, 155007, Control_c, 0, 64, 80
1, 155007, Control_c, 0, 67, 93
1, 155022, Control_c, 0, 64, 82
1, 155022, Control_c, 0, 67, 90
1, 155036, Control_c, 0, 64, 84
1, 155036, Control_c, 0, 67, 89
1, 155049, Note_off_c, 0, 73, 48
1, 155051, Control_c, 0, 64, 86
1, 155051, Control_c, 0, 67, 87
1, 155066, Control_c, 0, 64, 88
1, 155066, Control_c, 0, 67, 85
1, 155079, Note_off_c, 0, 45, 30
1, 155081, Control_c, 0, 64, 91
1, 155081, Control_c, 0, 67, 84
1, 155096, Control_c, 0, 64, 94
1, 155096, Control_c, 0, 67, 82
1, 155110, Control_c, 0, 64, 97
1, 155110, Control_c, 0, 67, 81
1, 155125, Control_c, 0, 64, 99
1, 155125, Control_c, 0, 67, 80
1, 155140, Control_c, 0, 64, 102
1, 155140, Control_c, 0, 67, 79
1, 155155, Control_c, 0, 64, 103
1, 155155, Control_c, 0, 67, 78
1, 155157, Note_on_c, 0, 61, 55
1, 155163, Note_off_c, 0, 64, 57
1, 155166, Note_on_c, 0, 52, 43
1, 155170, Control_c, 0, 64, 105
1, 155170, Control_c, 0, 67, 78
1, 155175, Note_on_c, 0, 40, 37
1, 155184, Control_c, 0, 64, 107
1, 155184, Control_c, 0, 67, 77
1, 155199, Control_c, 0, 64, 109
1, 155199, Control_c, 0, 67, 77
1, 155214, Control_c, 0, 64, 111
1, 155228, Control_c, 0, 64, 112
1, 155243, Control_c, 0, 64, 112
1, 155303, Control_c, 0, 67, 78
1, 155317, Control_c, 0, 67, 78
1, 155332, Control_c, 0, 67, 79
1, 155338, Note_off_c, 0, 52, 39
1, 155342, Note_off_c, 0, 40, 41
1, 155347, Control_c, 0, 67, 79
1, 155362, Control_c, 0, 67, 80
1, 155377, Control_c, 0, 64, 112
1, 155382, Note_on_c, 0, 45, 47
1, 155392, Control_c, 0, 64, 111
1, 155392, Control_c, 0, 67, 80
1, 155407, Control_c, 0, 64, 110
1, 155407, Control_c, 0, 67, 81
1, 155422, Control_c, 0, 64, 109
1, 155422, Control_c, 0, 67, 81
1, 155430, Note_on_c, 0, 73, 70
1, 155437, Control_c, 0, 64, 107
1, 155440, Note_on_c, 0, 63, 54
1, 155452, Control_c, 0, 64, 106
1, 155452, Control_c, 0, 67, 82
1, 155466, Control_c, 0, 64, 103
1, 155481, Control_c, 0, 64, 101
1, 155481, Control_c, 0, 67, 82
1, 155496, Control_c, 0, 64, 99
1, 155496, Control_c, 0, 67, 83
1, 155511, Control_c, 0, 64, 97
1, 155526, Control_c, 0, 64, 95
1, 155541, Control_c, 0, 64, 92
1, 155550, Note_off_c, 0, 61, 40
1, 155556, Control_c, 0, 64, 89
1, 155556, Control_c, 0, 67, 83
1, 155571, Control_c, 0, 64, 86
1, 155571, Control_c, 0, 67, 84
1, 155586, Control_c, 0, 64, 83
1, 155607, Control_c, 0, 64, 80
1, 155622, Control_c, 0, 64, 77
1, 155637, Control_c, 0, 64, 74
1, 155652, Control_c, 0, 64, 71
1, 155666, Control_c, 0, 64, 69
1, 155666, Control_c, 0, 67, 84
1, 155681, Control_c, 0, 64, 68
1, 155689, Note_on_c, 0, 67, 52
1, 155756, Control_c, 0, 64, 68
1, 155771, Control_c, 0, 64, 69
1, 155785, Control_c, 0, 64, 70
1, 155800, Control_c, 0, 64, 72
1, 155815, Control_c, 0, 64, 74
1, 155815, Note_off_c, 0, 69, 37
1, 155830, Control_c, 0, 64, 75
1, 155845, Control_c, 0, 64, 77
1, 155845, Control_c, 0, 67, 85
1, 155859, Control_c, 0, 64, 78
1, 155872, Note_off_c, 0, 45, 42
1, 155874, Control_c, 0, 64, 80
1, 155889, Control_c, 0, 64, 82
1, 155904, Control_c, 0, 64, 84
1, 155919, Control_c, 0, 64, 86
1, 155923, Note_on_c, 0, 61, 54
1, 155933, Control_c, 0, 64, 88
1, 155933, Control_c, 0, 67, 85
1, 155939, Note_on_c, 0, 51, 37
1, 155940, Note_on_c, 0, 39, 33
1, 155948, Control_c, 0, 64, 90
1, 155963, Control_c, 0, 64, 93
1, 155963, Control_c, 0, 67, 86
1, 155978, Control_c, 0, 64, 95
1, 155986, Note_off_c, 0, 63, 35
1, 155992, Control_c, 0, 64, 98
1, 156007, Control_c, 0, 64, 100
1, 156007, Control_c, 0, 67, 86
1, 156022, Control_c, 0, 64, 101
1, 156022, Control_c, 0, 67, 87
1, 156037, Control_c, 0, 64, 102
1, 156051, Control_c, 0, 64, 103
1, 156051, Control_c, 0, 67, 87
1, 156066, Control_c, 0, 64, 103
1, 156066, Control_c, 0, 67, 88
1, 156081, Control_c, 0, 64, 104
1, 156111, Control_c, 0, 67, 88
1, 156140, Control_c, 0, 67, 89
1, 156185, Control_c, 0, 67, 89
1, 156229, Note_on_c, 0, 63, 54
1, 156245, Control_c, 0, 64, 104
1, 156245, Control_c, 0, 67, 90
1, 156250, Note_on_c, 0, 44, 42
1, 156260, Control_c, 0, 64, 103
1, 156274, Control_c, 0, 64, 101
1, 156274, Control_c, 0, 67, 91
1, 156282, Note_off_c, 0, 67, 56
1, 156289, Control_c, 0, 64, 100
1, 156289, Control_c, 0, 67, 92
1, 156304, Control_c, 0, 64, 99
1, 156304, Control_c, 0, 67, 92
1, 156319, Control_c, 0, 64, 97
1, 156319, Control_c, 0, 67, 93
1, 156334, Control_c, 0, 64, 95
1, 156334, Control_c, 0, 67, 94
1, 156356, Control_c, 0, 64, 93
1, 156356, Control_c, 0, 67, 95
1, 156371, Control_c, 0, 64, 90
1, 156371, Control_c, 0, 67, 96
1, 156386, Control_c, 0, 64, 87
1, 156386, Control_c, 0, 67, 96
1, 156401, Control_c, 0, 64, 84
1, 156401, Control_c, 0, 67, 97
1, 156406, Note_off_c, 0, 51, 36
1, 156415, Control_c, 0, 64, 82
1, 156415, Control_c, 0, 67, 98
1, 156424, Note_off_c, 0, 39, 27
1, 156430, Control_c, 0, 64, 80
1, 156430, Control_c, 0, 67, 98
1, 156445, Control_c, 0, 64, 78
1, 156445, Control_c, 0, 67, 99
1, 156460, Control_c, 0, 64, 76
1, 156468, Note_off_c, 0, 61, 22
1, 156475, Control_c, 0, 64, 75
1, 156475, Control_c, 0, 67, 99
1, 156489, Control_c, 0, 64, 73
1, 156489, Control_c, 0, 67, 100
1, 156504, Control_c, 0, 64, 72
1, 156504, Control_c, 0, 67, 100
1, 156519, Control_c, 0, 64, 72
1, 156519, Control_c, 0, 67, 101
1, 156534, Control_c, 0, 64, 71
1, 156534, Control_c, 0, 67, 102
1, 156549, Control_c, 0, 64, 70
1, 156549, Control_c, 0, 67, 103
1, 156563, Control_c, 0, 64, 70
1, 156563, Control_c, 0, 67, 104
1, 156578, Control_c, 0, 64, 69
1, 156578, Control_c, 0, 67, 105
1, 156593, Control_c, 0, 64, 68
1, 156593, Control_c, 0, 67, 106
1, 156608, Control_c, 0, 67, 107
1, 156623, Control_c, 0, 67, 109
1, 156638, Control_c, 0, 67, 110
1, 156653, Control_c, 0, 67, 111
1, 156668, Control_c, 0, 64, 69
1, 156668, Control_c, 0, 67, 112
1, 156681, Control_c, 0, 64, 70
1, 156681, Control_c, 0, 67, 113
1, 156693, Note_on_c, 0, 68, 48
1, 156696, Control_c, 0, 64, 71
1, 156696, Control_c, 0, 67, 114
1, 156711, Control_c, 0, 64, 73
1, 156711, Control_c, 0, 67, 116
1, 156726, Control_c, 0, 64, 75
1, 156726, Control_c, 0, 67, 117
1, 156741, Control_c, 0, 64, 77
1, 156741, Control_c, 0, 67, 118
1, 156755, Control_c, 0, 64, 79
1, 156755, Control_c, 0, 67, 119
1, 156770, Control_c, 0, 64, 81
1, 156770, Control_c, 0, 67, 121
1, 156785, Control_c, 0, 64, 82
1, 156785, Control_c, 0, 67, 122
1, 156800, Control_c, 0, 64, 84
1, 156800, Control_c, 0, 67, 122
1, 156814, Control_c, 0, 64, 86
1, 156814, Control_c, 0, 67, 123
1, 156827, Note_off_c, 0, 63, 51
1, 156829, Control_c, 0, 64, 88
1, 156829, Control_c, 0, 67, 124
1, 156844, Control_c, 0, 64, 90
1, 156844, Control_c, 0, 67, 125
1, 156859, Control_c, 0, 64, 92
1, 156859, Control_c, 0, 67, 126
1, 156861, Note_off_c, 0, 44, 38
1, 156874, Control_c, 0, 64, 94
1, 156874, Control_c, 0, 67, 127
1, 156888, Control_c, 0, 64, 95
1, 156903, Control_c, 0, 64, 97
1, 156918, Note_on_c, 0, 61, 50
1, 156918, Control_c, 0, 64, 99
1, 156933, Control_c, 0, 64, 102
1, 156941, Note_on_c, 0, 39, 32
1, 156945, Note_on_c, 0, 51, 33
1, 156948, Control_c, 0, 64, 105
1, 156963, Control_c, 0, 64, 109
1, 156978, Control_c, 0, 64, 112
1, 156993, Control_c, 0, 64, 117
1, 157007, Control_c, 0, 64, 126
1, 157022, Note_off_c, 0, 61, 37
1, 157022, Control_c, 0, 64, 127
1, 157133, Note_on_c, 0, 63, 47
1, 157165, Note_on_c, 0, 44, 45
1, 157174, Note_off_c, 0, 73, 58
1, 157199, Note_off_c, 0, 68, 38
1, 157225, Note_off_c, 0, 39, 37
1, 157263, Note_off_c, 0, 51, 37
1, 157325, Note_on_c, 0, 72, 62
1, 157331, Note_on_c, 0, 68, 47
1, 157386, Control_c, 0, 67, 127
1, 157416, Control_c, 0, 67, 126
1, 157420, Note_off_c, 0, 68, 58
1, 157429, Control_c, 0, 67, 126
1, 157459, Control_c, 0, 67, 125
1, 157466, Note_off_c, 0, 72, 55
1, 157474, Control_c, 0, 67, 125
1, 157502, Note_off_c, 0, 44, 41
1, 157533, Control_c, 0, 67, 124
1, 157590, Note_on_c, 0, 39, 31
1, 157594, Note_on_c, 0, 51, 38
1, 157622, Control_c, 0, 67, 124
1, 157637, Control_c, 0, 67, 123
1, 157642, Note_on_c, 0, 61, 46
1, 157711, Control_c, 0, 67, 123
1, 157726, Control_c, 0, 67, 122
1, 157743, Note_on_c, 0, 68, 66
1, 157785, Control_c, 0, 67, 122
1, 157789, Note_off_c, 0, 61, 32
1, 157789, Note_off_c, 0, 68, 57
1, 157802, Note_off_c, 0, 63, 45
1, 157830, Control_c, 0, 67, 121
1, 157881, Note_on_c, 0, 68, 61
1, 157917, Note_on_c, 0, 44, 44
1, 157920, Note_on_c, 0, 61, 33
1, 158000, Control_c, 0, 67, 122
1, 158015, Control_c, 0, 64, 124
1, 158030, Control_c, 0, 64, 115
1, 158033, Note_off_c, 0, 39, 36
1, 158045, Control_c, 0, 64, 110
1, 158045, Control_c, 0, 67, 122
1, 158059, Note_off_c, 0, 51, 38
1, 158060, Control_c, 0, 64, 107
1, 158075, Control_c, 0, 64, 104
1, 158090, Control_c, 0, 64, 100
1, 158090, Control_c, 0, 67, 123
1, 158105, Control_c, 0, 64, 97
1, 158119, Control_c, 0, 64, 95
1, 158119, Control_c, 0, 67, 123
1, 158134, Control_c, 0, 64, 92
1, 158149, Control_c, 0, 64, 90
1, 158164, Control_c, 0, 64, 88
1, 158164, Control_c, 0, 67, 124
1, 158179, Control_c, 0, 64, 86
1, 158194, Control_c, 0, 64, 85
1, 158194, Control_c, 0, 67, 124
1, 158209, Control_c, 0, 64, 83
1, 158224, Control_c, 0, 64, 82
1, 158239, Control_c, 0, 64, 81
1, 158239, Control_c, 0, 67, 125
1, 158253, Control_c, 0, 64, 80
1, 158261, Note_on_c, 0, 60, 61
1, 158268, Control_c, 0, 64, 79
1, 158283, Control_c, 0, 64, 78
1, 158298, Control_c, 0, 64, 78
1, 158313, Control_c, 0, 64, 77
1, 158327, Control_c, 0, 64, 76
1, 158337, Note_off_c, 0, 61, 40
1, 158342, Control_c, 0, 67, 125
1, 158357, Control_c, 0, 64, 76
1, 158371, Control_c, 0, 64, 75
1, 158386, Control_c, 0, 64, 74
1, 158401, Control_c, 0, 64, 72
1, 158401, Control_c, 0, 67, 126
1, 158416, Control_c, 0, 64, 70
1, 158431, Control_c, 0, 64, 69
1, 158445, Control_c, 0, 64, 68
1, 158456, Note_off_c, 0, 44, 35
1, 158513, Note_on_c, 0, 51, 33
1, 158517, Note_on_c, 0, 39, 36
1, 158534, Control_c, 0, 64, 69
1, 158534, Control_c, 0, 67, 125
1, 158549, Control_c, 0, 64, 71
1, 158564, Control_c, 0, 64, 73
1, 158564, Control_c, 0, 67, 125
1, 158579, Control_c, 0, 64, 75
1, 158579, Control_c, 0, 67, 124
1, 158593, Control_c, 0, 64, 77
1, 158615, Note_on_c, 0, 56, 69
1, 158616, Control_c, 0, 64, 79
1, 158616, Control_c, 0, 67, 124
1, 158632, Control_c, 0, 64, 81
1, 158632, Control_c, 0, 67, 123
1, 158647, Control_c, 0, 64, 83
1, 158662, Control_c, 0, 64, 87
1, 158662, Control_c, 0, 67, 123
1, 158666, Note_off_c, 0, 60, 54
1, 158670, Note_off_c, 0, 56, 64
1, 158677, Control_c, 0, 64, 89
1, 158691, Control_c, 0, 64, 92
1, 158706, Control_c, 0, 64, 94
1, 158721, Control_c, 0, 64, 96
1, 158736, Control_c, 0, 64, 98
1, 158748, Note_on_c, 0, 56, 57
1, 158750, Control_c, 0, 64, 101
1, 158765, Control_c, 0, 64, 105
1, 158765, Control_c, 0, 67, 122
1, 158771, Note_on_c, 0, 60, 12
1, 158780, Control_c, 0, 64, 109
1, 158781, Note_on_c, 0, 44, 44
1, 158795, Control_c, 0, 64, 114
1, 158809, Control_c, 0, 64, 123
1, 158824, Control_c, 0, 64, 127
1, 158913, Control_c, 0, 67, 123
1, 158931, Note_off_c, 0, 39, 34
1, 158949, Note_off_c, 0, 51, 37
1, 158984, Note_on_c, 0, 63, 43
1, 158987, Control_c, 0, 67, 123
1, 159017, Control_c, 0, 67, 124
1, 159032, Control_c, 0, 67, 124
1, 159041, Note_off_c, 0, 60, 43
1, 159047, Control_c, 0, 67, 125
1, 159055, Note_off_c, 0, 56, 45
1, 159061, Control_c, 0, 67, 125
1, 159076, Control_c, 0, 67, 126
1, 159106, Control_c, 0, 67, 126
1, 159121, Control_c, 0, 67, 127
1, 159150, Control_c, 0, 67, 127
1, 159157, Note_off_c, 0, 44, 42
1, 159181, Note_on_c, 0, 39, 36
1, 159185, Note_on_c, 0, 51, 35
1, 159205, Note_off_c, 0, 63, 0
1, 159205, Note_on_c, 0, 63, 5
1, 159216, Note_on_c, 0, 58, 65
1, 159231, Note_off_c, 0, 51, 49
1, 159249, Note_off_c, 0, 39, 42
1, 159583, Note_on_c, 0, 60, 61
1, 159588, Control_c, 0, 64, 124
1, 159589, Note_off_c, 0, 58, 36
1, 159603, Control_c, 0, 64, 95
1, 159618, Control_c, 0, 64, 80
1, 159620, Note_off_c, 0, 63, 44
1, 159632, Control_c, 0, 64, 70
1, 159647, Control_c, 0, 64, 64
1, 159662, Control_c, 0, 64, 65
1, 159673, Note_on_c, 0, 44, 36
1, 159677, Control_c, 0, 64, 67
1, 159678, Note_on_c, 0, 32, 29
1, 159684, Note_off_c, 0, 68, 52
1, 159692, Control_c, 0, 64, 72
1, 159706, Control_c, 0, 64, 76
1, 159721, Control_c, 0, 64, 80
1, 159735, Note_off_c, 0, 60, 61
1, 159736, Control_c, 0, 64, 85
1, 159741, Note_on_c, 0, 63, 37
1, 159751, Control_c, 0, 64, 90
1, 159766, Control_c, 0, 64, 95
1, 159780, Control_c, 0, 64, 100
1, 159792, Note_off_c, 0, 32, 36
1, 159795, Control_c, 0, 64, 103
1, 159798, Note_off_c, 0, 63, 60
1, 159810, Control_c, 0, 64, 107
1, 159825, Control_c, 0, 64, 112
1, 159839, Control_c, 0, 64, 121
1, 159854, Control_c, 0, 64, 127
1, 159881, Note_off_c, 0, 44, 37
1, 159944, Note_on_c, 0, 68, 60
1, 159997, Note_off_c, 0, 68, 54
1, 160022, Note_on_c, 0, 72, 55
1, 160132, Note_on_c, 0, 75, 65
1, 160143, Note_off_c, 0, 72, 53
1, 160192, Note_off_c, 0, 75, 62
1, 160233, Note_on_c, 0, 80, 16
1, 160281, Note_on_c, 0, 39, 39
1, 160287, Note_on_c, 0, 51, 36
1, 160295, Note_off_c, 0, 80, 0
1, 160307, Note_on_c, 0, 80, 51
1, 160516, Note_on_c, 0, 92, 70
1, 160527, Note_off_c, 0, 80, 60
1, 160562, Note_on_c, 0, 44, 42
1, 160562, Note_off_c, 0, 92, 65
1, 160668, Note_off_c, 0, 39, 39
1, 160671, Note_off_c, 0, 51, 38
1, 161004, Note_on_c, 0, 63, 42
1, 161011, Control_c, 0, 67, 126
1, 161026, Control_c, 0, 67, 125
1, 161041, Control_c, 0, 67, 125
1, 161056, Control_c, 0, 67, 124
1, 161071, Control_c, 0, 67, 123
1, 161085, Note_off_c, 0, 44, 36
1, 161085, Control_c, 0, 67, 122
1, 161100, Control_c, 0, 67, 121
1, 161115, Control_c, 0, 67, 120
1, 161130, Control_c, 0, 67, 119
1, 161145, Control_c, 0, 67, 118
1, 161160, Control_c, 0, 67, 117
1, 161175, Control_c, 0, 67, 116
1, 161190, Control_c, 0, 67, 115
1, 161204, Control_c, 0, 67, 114
1, 161218, Note_off_c, 0, 63, 37
1, 161219, Control_c, 0, 67, 114
1, 161234, Control_c, 0, 67, 113
1, 161249, Control_c, 0, 67, 113
1, 161264, Control_c, 0, 67, 112
1, 161278, Control_c, 0, 67, 111
1, 161293, Control_c, 0, 67, 110
1, 161308, Control_c, 0, 67, 109
1, 161316, Note_on_c, 0, 58, 46
1, 161323, Control_c, 0, 67, 107
1, 161338, Control_c, 0, 67, 107
1, 161352, Control_c, 0, 67, 106
1, 161354, Note_on_c, 0, 39, 26
1, 161365, Note_on_c, 0, 51, 20
1, 161367, Control_c, 0, 67, 105
1, 161382, Control_c, 0, 67, 104
1, 161396, Control_c, 0, 67, 104
1, 161426, Control_c, 0, 67, 103
1, 161441, Control_c, 0, 67, 103
1, 161513, Note_off_c, 0, 58, 0
1, 161550, Poly_aftertouch_c, 0, 58, 127
1, 161556, Note_on_c, 0, 60, 52
1, 161574, Control_c, 0, 64, 118
1, 161580, Note_on_c, 0, 44, 46
1, 161589, Control_c, 0, 64, 113
1, 161589, Control_c, 0, 67, 103
1, 161611, Control_c, 0, 64, 110
1, 161626, Control_c, 0, 64, 108
1, 161641, Control_c, 0, 64, 106
1, 161648, Poly_aftertouch_c, 0, 58, 0
1, 161656, Control_c, 0, 64, 104
1, 161670, Note_off_c, 0, 39, 36
1, 161671, Control_c, 0, 64, 101
1, 161672, Note_off_c, 0, 51, 36
1, 161685, Control_c, 0, 64, 100
1, 161700, Control_c, 0, 64, 99
1, 161715, Control_c, 0, 64, 99
1, 161730, Control_c, 0, 64, 98
1, 161745, Control_c, 0, 64, 98
1, 161759, Control_c, 0, 64, 97
1, 161770, Note_on_c, 0, 63, 60
1, 161774, Control_c, 0, 64, 96
1, 161789, Control_c, 0, 64, 95
1, 161804, Control_c, 0, 64, 94
1, 161819, Control_c, 0, 64, 94
1, 161849, Control_c, 0, 64, 93
1, 161859, Note_off_c, 0, 60, 37
1, 161893, Control_c, 0, 64, 93
1, 161908, Control_c, 0, 64, 92
1, 161953, Control_c, 0, 64, 92
1, 161960, Note_off_c, 0, 63, 29
1, 161968, Control_c, 0, 64, 91
1, 161979, Note_on_c, 0, 58, 55
1, 161983, Note_off_c, 0, 44, 40
1, 161983, Control_c, 0, 64, 91
1, 161983, Control_c, 0, 67, 103
1, 161998, Control_c, 0, 64, 90
1, 162011, Note_on_c, 0, 51, 36
1, 162013, Control_c, 0, 64, 90
1, 162015, Note_on_c, 0, 39, 35
1, 162027, Control_c, 0, 64, 89
1, 162057, Control_c, 0, 64, 89
1, 162072, Control_c, 0, 64, 88
1, 162087, Control_c, 0, 64, 88
1, 162101, Control_c, 0, 64, 87
1, 162116, Control_c, 0, 64, 87
1, 162131, Control_c, 0, 64, 85
1, 162146, Control_c, 0, 64, 83
1, 162161, Control_c, 0, 64, 81
1, 162175, Control_c, 0, 64, 80
1, 162190, Control_c, 0, 64, 79
1, 162190, Control_c, 0, 67, 102
1, 162200, Note_on_c, 0, 60, 47
1, 162223, Note_on_c, 0, 44, 34
1, 162249, Control_c, 0, 64, 80
1, 162263, Note_off_c, 0, 39, 34
1, 162264, Control_c, 0, 64, 81
1, 162267, Note_off_c, 0, 58, 21
1, 162279, Control_c, 0, 64, 82
1, 162279, Control_c, 0, 67, 102
1, 162293, Control_c, 0, 64, 84
1, 162308, Control_c, 0, 64, 85
1, 162317, Note_off_c, 0, 51, 33
1, 162323, Control_c, 0, 64, 87
1, 162338, Control_c, 0, 64, 89
1, 162338, Control_c, 0, 67, 101
1, 162360, Control_c, 0, 64, 92
1, 162375, Control_c, 0, 64, 95
1, 162390, Control_c, 0, 64, 98
1, 162390, Control_c, 0, 67, 101
1, 162405, Control_c, 0, 64, 102
1, 162417, Note_on_c, 0, 63, 45
1, 162420, Control_c, 0, 64, 105
1, 162420, Control_c, 0, 67, 97
1, 162434, Control_c, 0, 64, 110
1, 162434, Control_c, 0, 67, 94
1, 162449, Control_c, 0, 64, 115
1, 162449, Control_c, 0, 67, 92
1, 162463, Note_off_c, 0, 60, 19
1, 162464, Control_c, 0, 64, 127
1, 162464, Control_c, 0, 67, 90
1, 162479, Control_c, 0, 67, 89
1, 162494, Control_c, 0, 67, 88
1, 162508, Control_c, 0, 67, 86
1, 162523, Control_c, 0, 67, 85
1, 162538, Control_c, 0, 67, 85
1, 162543, Note_off_c, 0, 63, 36
1, 162552, Control_c, 0, 67, 84
1, 162567, Control_c, 0, 67, 83
1, 162582, Control_c, 0, 67, 83
1, 162588, Note_off_c, 0, 44, 41
1, 162597, Control_c, 0, 67, 82
1, 162612, Control_c, 0, 67, 81
1, 162627, Note_on_c, 0, 39, 33
1, 162628, Control_c, 0, 67, 81
1, 162641, Note_on_c, 0, 51, 20
1, 162642, Control_c, 0, 67, 80
1, 162657, Control_c, 0, 67, 80
1, 162671, Note_on_c, 0, 58, 42
1, 162672, Control_c, 0, 67, 79
1, 162687, Control_c, 0, 67, 78
1, 162689, Note_off_c, 0, 51, 53
1, 162702, Control_c, 0, 67, 77
1, 162716, Control_c, 0, 67, 77
1, 162726, Note_off_c, 0, 39, 36
1, 162731, Control_c, 0, 67, 76
1, 162746, Control_c, 0, 67, 76
1, 162820, Control_c, 0, 67, 76
1, 162835, Control_c, 0, 67, 77
1, 162850, Control_c, 0, 67, 78
1, 162880, Control_c, 0, 67, 78
1, 162895, Control_c, 0, 67, 79
1, 162910, Control_c, 0, 67, 80
1, 162924, Control_c, 0, 67, 81
1, 162939, Control_c, 0, 67, 81
1, 162968, Control_c, 0, 67, 82
1, 162997, Note_on_c, 0, 68, 66
1, 162998, Control_c, 0, 67, 82
1, 163013, Control_c, 0, 67, 83
1, 163028, Control_c, 0, 67, 84
1, 163040, Note_on_c, 0, 60, 37
1, 163057, Control_c, 0, 67, 84
1, 163107, Note_on_c, 0, 32, 36
1, 163109, Control_c, 0, 64, 113
1, 163109, Control_c, 0, 67, 85
1, 163114, Note_on_c, 0, 44, 38
1, 163124, Control_c, 0, 64, 102
1, 163139, Control_c, 0, 64, 92
1, 163154, Control_c, 0, 64, 85
1, 163168, Control_c, 0, 64, 80
1, 163172, Note_off_c, 0, 58, 15
1, 163183, Control_c, 0, 64, 76
1, 163198, Control_c, 0, 64, 74
1, 163213, Control_c, 0, 67, 84
1, 163228, Control_c, 0, 64, 75
1, 163243, Control_c, 0, 64, 76
1, 163257, Control_c, 0, 64, 77
1, 163272, Control_c, 0, 64, 78
1, 163272, Control_c, 0, 67, 84
1, 163282, Note_off_c, 0, 32, 48
1, 163287, Control_c, 0, 64, 80
1, 163302, Control_c, 0, 64, 82
1, 163317, Control_c, 0, 64, 84
1, 163331, Control_c, 0, 64, 86
1, 163346, Note_on_c, 0, 63, 50
1, 163346, Control_c, 0, 64, 88
1, 163357, Note_off_c, 0, 44, 41
1, 163361, Control_c, 0, 64, 90
1, 163375, Control_c, 0, 64, 93
1, 163390, Control_c, 0, 64, 95
1, 163405, Control_c, 0, 64, 97
1, 163409, Note_off_c, 0, 60, 61
1, 163421, Control_c, 0, 64, 98
1, 163436, Control_c, 0, 64, 100
1, 163451, Control_c, 0, 64, 101
1, 163465, Control_c, 0, 64, 103
1, 163480, Control_c, 0, 64, 105
1, 163495, Control_c, 0, 64, 107
1, 163506, Note_off_c, 0, 63, 27
1, 163510, Control_c, 0, 64, 109
1, 163525, Control_c, 0, 64, 109
1, 163539, Control_c, 0, 64, 110
1, 163554, Control_c, 0, 64, 110
1, 163559, Note_on_c, 0, 58, 49
1, 163569, Control_c, 0, 64, 111
1, 163579, Note_on_c, 0, 51, 40
1, 163584, Control_c, 0, 64, 112
1, 163598, Control_c, 0, 64, 113
1, 163604, Note_on_c, 0, 39, 29
1, 163613, Control_c, 0, 64, 114
1, 163617, Note_off_c, 0, 58, 56
1, 163628, Control_c, 0, 64, 115
1, 163643, Control_c, 0, 64, 116
1, 163658, Control_c, 0, 64, 117
1, 163673, Control_c, 0, 64, 118
1, 163673, Control_c, 0, 67, 83
1, 163688, Control_c, 0, 67, 83
1, 163718, Control_c, 0, 64, 118
1, 163733, Control_c, 0, 64, 119
1, 163733, Control_c, 0, 67, 82
1, 163747, Control_c, 0, 64, 119
1, 163762, Control_c, 0, 67, 82
1, 163791, Control_c, 0, 64, 120
1, 163800, Note_on_c, 0, 60, 42
1, 163806, Control_c, 0, 67, 81
1, 163807, Note_on_c, 0, 44, 44
1, 163843, Control_c, 0, 64, 121
1, 163843, Control_c, 0, 67, 81
1, 163850, Note_off_c, 0, 39, 39
1, 163858, Control_c, 0, 64, 122
1, 163873, Control_c, 0, 67, 80
1, 163892, Note_off_c, 0, 60, 57
1, 163896, Note_off_c, 0, 51, 42
1, 163902, Control_c, 0, 64, 123
1, 163932, Control_c, 0, 67, 80
1, 163991, Control_c, 0, 67, 79
1, 164005, Note_on_c, 0, 65, 52
1, 164006, Control_c, 0, 67, 79
1, 164023, Note_on_c, 0, 63, 42
1, 164051, Control_c, 0, 67, 78
1, 164072, Note_off_c, 0, 68, 55
1, 164083, Note_off_c, 0, 44, 41
1, 164139, Control_c, 0, 67, 78
1, 164161, Note_off_c, 0, 63, 0
1, 164198, Poly_aftertouch_c, 0, 63, 127
1, 164213, Note_on_c, 0, 67, 64
1, 164229, Control_c, 0, 64, 122
1, 164236, Note_on_c, 0, 58, 43
1, 164259, Note_on_c, 0, 39, 34
1, 164263, Note_on_c, 0, 51, 35
1, 164274, Control_c, 0, 64, 121
1, 164279, Note_off_c, 0, 58, 54
1, 164281, Poly_aftertouch_c, 0, 63, 0
1, 164289, Control_c, 0, 64, 118
1, 164303, Control_c, 0, 64, 115
1, 164310, Note_off_c, 0, 65, 33
1, 164318, Control_c, 0, 64, 113
1, 164333, Control_c, 0, 64, 112
1, 164348, Control_c, 0, 64, 111
1, 164362, Control_c, 0, 64, 109
1, 164377, Control_c, 0, 64, 107
1, 164392, Control_c, 0, 64, 104
1, 164407, Control_c, 0, 64, 103
1, 164421, Control_c, 0, 64, 101
1, 164436, Control_c, 0, 64, 99
1, 164451, Control_c, 0, 64, 97
1, 164457, Note_on_c, 0, 68, 67
1, 164466, Control_c, 0, 64, 96
1, 164481, Control_c, 0, 64, 95
1, 164485, Note_on_c, 0, 60, 40
1, 164493, Note_on_c, 0, 44, 44
1, 164496, Control_c, 0, 64, 93
1, 164511, Control_c, 0, 64, 92
1, 164525, Control_c, 0, 64, 90
1, 164537, Note_off_c, 0, 67, 38
1, 164540, Control_c, 0, 64, 89
1, 164555, Control_c, 0, 64, 87
1, 164556, Note_off_c, 0, 60, 55
1, 164570, Control_c, 0, 64, 85
1, 164592, Control_c, 0, 64, 83
1, 164607, Control_c, 0, 64, 81
1, 164610, Note_off_c, 0, 39, 27
1, 164621, Control_c, 0, 64, 78
1, 164636, Control_c, 0, 64, 77
1, 164646, Note_off_c, 0, 51, 40
1, 164651, Control_c, 0, 64, 76
1, 164663, Note_on_c, 0, 65, 69
1, 164677, Note_on_c, 0, 63, 54
1, 164681, Control_c, 0, 64, 77
1, 164695, Control_c, 0, 64, 78
1, 164695, Control_c, 0, 67, 77
1, 164710, Control_c, 0, 64, 79
1, 164720, Note_off_c, 0, 68, 56
1, 164725, Control_c, 0, 64, 80
1, 164740, Control_c, 0, 64, 81
1, 164755, Control_c, 0, 64, 83
1, 164770, Control_c, 0, 64, 85
1, 164770, Control_c, 0, 67, 77
1, 164785, Control_c, 0, 64, 86
1, 164800, Control_c, 0, 64, 88
1, 164807, Note_off_c, 0, 44, 39
1, 164814, Control_c, 0, 64, 89
1, 164814, Control_c, 0, 67, 76
1, 164829, Control_c, 0, 64, 91
1, 164844, Control_c, 0, 64, 93
1, 164849, Note_on_c, 0, 67, 74
1, 164859, Control_c, 0, 64, 95
1, 164866, Note_on_c, 0, 58, 51
1, 164874, Control_c, 0, 64, 96
1, 164889, Control_c, 0, 64, 97
1, 164898, Note_off_c, 0, 63, 19
1, 164900, Note_on_c, 0, 51, 36
1, 164904, Control_c, 0, 64, 97
1, 164908, Note_on_c, 0, 39, 33
1, 164916, Note_off_c, 0, 65, 51
1, 164919, Control_c, 0, 64, 98
1, 164922, Note_off_c, 0, 58, 51
1, 164934, Control_c, 0, 64, 98
1, 164948, Control_c, 0, 67, 76
1, 165038, Control_c, 0, 64, 98
1, 165072, Note_on_c, 0, 68, 73
1, 165083, Control_c, 0, 64, 97
1, 165090, Note_on_c, 0, 60, 51
1, 165098, Control_c, 0, 64, 96
1, 165104, Note_on_c, 0, 44, 50
1, 165113, Control_c, 0, 64, 96
1, 165127, Control_c, 0, 64, 95
1, 165139, Note_off_c, 0, 67, 52
1, 165142, Control_c, 0, 64, 93
1, 165157, Control_c, 0, 64, 91
1, 165163, Note_off_c, 0, 60, 59
1, 165171, Control_c, 0, 64, 88
1, 165186, Control_c, 0, 64, 84
1, 165201, Control_c, 0, 64, 81
1, 165216, Control_c, 0, 64, 77
1, 165218, Note_off_c, 0, 39, 28
1, 165231, Control_c, 0, 64, 75
1, 165231, Control_c, 0, 67, 75
1, 165245, Control_c, 0, 64, 74
1, 165248, Note_on_c, 0, 65, 68
1, 165259, Note_off_c, 0, 51, 44
1, 165260, Control_c, 0, 67, 75
1, 165271, Note_on_c, 0, 63, 50
1, 165275, Control_c, 0, 64, 75
1, 165290, Control_c, 0, 64, 76
1, 165300, Note_off_c, 0, 68, 60
1, 165305, Control_c, 0, 64, 78
1, 165319, Control_c, 0, 64, 80
1, 165342, Control_c, 0, 64, 83
1, 165357, Control_c, 0, 64, 85
1, 165371, Control_c, 0, 64, 88
1, 165371, Control_c, 0, 67, 74
1, 165386, Control_c, 0, 64, 90
1, 165401, Control_c, 0, 64, 92
1, 165416, Control_c, 0, 64, 93
1, 165431, Control_c, 0, 64, 95
1, 165432, Note_off_c, 0, 44, 32
1, 165444, Note_on_c, 0, 67, 70
1, 165445, Control_c, 0, 64, 96
1, 165445, Control_c, 0, 67, 74
1, 165458, Note_on_c, 0, 58, 54
1, 165460, Control_c, 0, 64, 98
1, 165460, Control_c, 0, 67, 73
1, 165470, Note_on_c, 0, 51, 45
1, 165475, Control_c, 0, 64, 99
1, 165475, Control_c, 0, 67, 71
1, 165477, Note_off_c, 0, 65, 45
1, 165478, Note_on_c, 0, 39, 37
1, 165490, Control_c, 0, 64, 100
1, 165490, Control_c, 0, 67, 68
1, 165492, Note_off_c, 0, 63, 44
1, 165499, Note_off_c, 0, 58, 57
1, 165505, Control_c, 0, 67, 66
1, 165519, Control_c, 0, 64, 100
1, 165519, Control_c, 0, 67, 64
1, 165534, Control_c, 0, 67, 62
1, 165548, Note_off_c, 0, 67, 61
1, 165549, Control_c, 0, 67, 61
1, 165551, Note_on_c, 0, 70, 75
1, 165563, Control_c, 0, 67, 60
1, 165578, Control_c, 0, 67, 58
1, 165593, Control_c, 0, 67, 57
1, 165608, Control_c, 0, 64, 100
1, 165608, Control_c, 0, 67, 56
1, 165623, Control_c, 0, 67, 55
1, 165637, Control_c, 0, 67, 54
1, 165652, Control_c, 0, 64, 99
1, 165652, Control_c, 0, 67, 54
1, 165667, Control_c, 0, 64, 98
1, 165667, Control_c, 0, 67, 53
1, 165682, Control_c, 0, 64, 97
1, 165682, Control_c, 0, 67, 53
1, 165693, Note_on_c, 0, 68, 73
1, 165697, Control_c, 0, 64, 95
1, 165697, Control_c, 0, 67, 52
1, 165709, Note_on_c, 0, 60, 52
1, 165711, Note_on_c, 0, 44, 49
1, 165712, Control_c, 0, 64, 93
1, 165712, Control_c, 0, 67, 51
1, 165727, Control_c, 0, 64, 91
1, 165727, Control_c, 0, 67, 50
1, 165736, Note_off_c, 0, 70, 60
1, 165742, Control_c, 0, 64, 89
1, 165742, Control_c, 0, 67, 50
1, 165757, Control_c, 0, 64, 86
1, 165757, Control_c, 0, 67, 49
1, 165771, Control_c, 0, 64, 82
1, 165771, Control_c, 0, 67, 48
1, 165786, Control_c, 0, 64, 78
1, 165786, Control_c, 0, 67, 47
1, 165801, Control_c, 0, 64, 73
1, 165801, Control_c, 0, 67, 46
1, 165807, Note_off_c, 0, 60, 61
1, 165814, Note_off_c, 0, 39, 31
1, 165816, Control_c, 0, 64, 70
1, 165816, Control_c, 0, 67, 45
1, 165831, Control_c, 0, 64, 69
1, 165831, Control_c, 0, 67, 43
1, 165846, Control_c, 0, 67, 42
1, 165861, Control_c, 0, 64, 70
1, 165861, Control_c, 0, 67, 41
1, 165876, Control_c, 0, 64, 71
1, 165876, Control_c, 0, 67, 40
1, 165881, Note_off_c, 0, 51, 43
1, 165891, Control_c, 0, 64, 73
1, 165891, Control_c, 0, 67, 39
1, 165903, Note_on_c, 0, 63, 70
1, 165906, Control_c, 0, 64, 76
1, 165906, Control_c, 0, 67, 37
1, 165920, Control_c, 0, 64, 80
1, 165920, Control_c, 0, 67, 36
1, 165935, Control_c, 0, 64, 82
1, 165935, Control_c, 0, 67, 35
1, 165950, Control_c, 0, 64, 84
1, 165950, Control_c, 0, 67, 33
1, 165965, Control_c, 0, 64, 85
1, 165965, Control_c, 0, 67, 31
1, 165980, Control_c, 0, 64, 87
1, 165980, Control_c, 0, 67, 30
1, 165994, Control_c, 0, 64, 89
1, 165994, Control_c, 0, 67, 28
1, 166009, Control_c, 0, 64, 91
1, 166009, Control_c, 0, 67, 27
1, 166024, Control_c, 0, 64, 93
1, 166024, Control_c, 0, 67, 25
1, 166039, Control_c, 0, 64, 94
1, 166039, Control_c, 0, 67, 24
1, 166054, Control_c, 0, 64, 95
1, 166054, Control_c, 0, 67, 22
1, 166068, Control_c, 0, 64, 96
1, 166068, Control_c, 0, 67, 20
1, 166083, Control_c, 0, 64, 97
1, 166083, Control_c, 0, 67, 18
1, 166095, Note_on_c, 0, 67, 74
1, 166095, Note_off_c, 0, 44, 54
1, 166105, Control_c, 0, 64, 99
1, 166105, Control_c, 0, 67, 17
1, 166115, Note_off_c, 0, 63, 58
1, 166120, Note_on_c, 0, 51, 49
1, 166120, Note_on_c, 0, 58, 49
1, 166120, Control_c, 0, 64, 100
1, 166120, Control_c, 0, 67, 15
1, 166126, Note_off_c, 0, 68, 48
1, 166134, Note_on_c, 0, 39, 41
1, 166135, Control_c, 0, 64, 102
1, 166135, Control_c, 0, 67, 13
1, 166150, Control_c, 0, 64, 103
1, 166150, Control_c, 0, 67, 11
1, 166165, Control_c, 0, 64, 104
1, 166165, Control_c, 0, 67, 9
1, 166179, Note_off_c, 0, 58, 49
1, 166180, Control_c, 0, 67, 8
1, 166194, Control_c, 0, 64, 105
1, 166194, Control_c, 0, 67, 0
1, 166231, Note_off_c, 0, 67, 57
1, 166283, Control_c, 0, 64, 104
1, 166298, Control_c, 0, 64, 104
1, 166308, Note_on_c, 0, 68, 74
1, 166313, Control_c, 0, 64, 101
1, 166328, Control_c, 0, 64, 98
1, 166329, Note_on_c, 0, 44, 58
1, 166334, Note_on_c, 0, 59, 59
1, 166342, Control_c, 0, 64, 94
1, 166357, Control_c, 0, 64, 89
1, 166372, Control_c, 0, 64, 82
1, 166387, Control_c, 0, 64, 76
1, 166401, Control_c, 0, 64, 72
1, 166416, Note_off_c, 0, 39, 40
1, 166416, Control_c, 0, 64, 69
1, 166446, Control_c, 0, 64, 70
1, 166460, Control_c, 0, 64, 71
1, 166469, Note_off_c, 0, 51, 43
1, 166475, Control_c, 0, 64, 72
1, 166490, Control_c, 0, 64, 75
1, 166505, Note_on_c, 0, 66, 65
1, 166505, Control_c, 0, 64, 79
1, 166520, Control_c, 0, 64, 83
1, 166535, Control_c, 0, 64, 86
1, 166549, Control_c, 0, 64, 90
1, 166564, Control_c, 0, 64, 92
1, 166579, Control_c, 0, 64, 94
1, 166592, Note_off_c, 0, 68, 58
1, 166594, Control_c, 0, 64, 96
1, 166609, Control_c, 0, 64, 98
1, 166624, Control_c, 0, 64, 101
1, 166639, Control_c, 0, 64, 106
1, 166654, Control_c, 0, 64, 110
1, 166669, Note_off_c, 0, 44, 32
1, 166669, Control_c, 0, 64, 115
1, 166682, Note_on_c, 0, 70, 76
1, 166684, Control_c, 0, 64, 121
1, 166687, Note_off_c, 0, 59, 26
1, 166698, Control_c, 0, 64, 127
1, 166701, Note_on_c, 0, 64, 52
1, 166725, Note_on_c, 0, 39, 41
1, 166726, Note_on_c, 0, 51, 42
1, 166743, Note_off_c, 0, 64, 63
1, 166759, Note_off_c, 0, 66, 37
1, 166841, Note_off_c, 0, 70, 62
1, 166938, Note_on_c, 0, 44, 54
1, 166985, Note_on_c, 0, 71, 79
1, 167008, Note_on_c, 0, 63, 57
1, 167032, Control_c, 0, 64, 119
1, 167047, Control_c, 0, 64, 113
1, 167062, Control_c, 0, 64, 109
1, 167077, Control_c, 0, 64, 106
1, 167091, Control_c, 0, 64, 103
1, 167106, Control_c, 0, 64, 100
1, 167121, Control_c, 0, 64, 95
1, 167136, Control_c, 0, 64, 91
1, 167150, Control_c, 0, 64, 85
1, 167165, Control_c, 0, 64, 79
1, 167169, Note_off_c, 0, 51, 42
1, 167180, Control_c, 0, 64, 74
1, 167182, Note_off_c, 0, 39, 39
1, 167195, Control_c, 0, 64, 70
1, 167210, Control_c, 0, 64, 68
1, 167224, Control_c, 0, 64, 69
1, 167235, Note_on_c, 0, 66, 66
1, 167239, Control_c, 0, 64, 70
1, 167254, Control_c, 0, 64, 71
1, 167269, Control_c, 0, 64, 74
1, 167284, Control_c, 0, 64, 77
1, 167298, Control_c, 0, 64, 80
1, 167313, Control_c, 0, 64, 83
1, 167328, Control_c, 0, 64, 85
1, 167338, Note_off_c, 0, 63, 48
1, 167342, Control_c, 0, 64, 89
1, 167357, Control_c, 0, 64, 94
1, 167372, Control_c, 0, 64, 99
1, 167381, Note_off_c, 0, 71, 53
1, 167387, Control_c, 0, 64, 102
1, 167400, Note_off_c, 0, 44, 51
1, 167402, Control_c, 0, 64, 105
1, 167412, Note_on_c, 0, 39, 48
1, 167415, Note_on_c, 0, 51, 53
1, 167418, Note_on_c, 0, 59, 63
1, 167418, Control_c, 0, 64, 108
1, 167432, Control_c, 0, 64, 113
1, 167447, Control_c, 0, 64, 120
1, 167462, Control_c, 0, 64, 127
1, 167624, Note_on_c, 0, 44, 61
1, 167680, Note_on_c, 0, 71, 84
1, 167692, Control_c, 0, 64, 123
1, 167705, Note_on_c, 0, 61, 61
1, 167707, Control_c, 0, 64, 115
1, 167716, Note_off_c, 0, 66, 62
1, 167721, Control_c, 0, 64, 109
1, 167736, Control_c, 0, 64, 104
1, 167751, Control_c, 0, 64, 98
1, 167766, Control_c, 0, 64, 93
1, 167781, Control_c, 0, 64, 89
1, 167795, Note_off_c, 0, 39, 39
1, 167795, Control_c, 0, 64, 86
1, 167810, Control_c, 0, 64, 83
1, 167825, Control_c, 0, 64, 81
1, 167840, Control_c, 0, 64, 79
1, 167855, Control_c, 0, 64, 76
1, 167870, Control_c, 0, 64, 72
1, 167875, Note_off_c, 0, 51, 38
1, 167885, Control_c, 0, 64, 67
1, 167900, Control_c, 0, 64, 64
1, 167915, Control_c, 0, 64, 64
1, 167959, Control_c, 0, 64, 64
1, 167974, Note_on_c, 0, 65, 68
1, 167974, Control_c, 0, 64, 66
1, 167985, Note_off_c, 0, 59, 38
1, 167989, Control_c, 0, 64, 68
1, 168004, Control_c, 0, 64, 71
1, 168019, Control_c, 0, 64, 74
1, 168034, Control_c, 0, 64, 77
1, 168048, Control_c, 0, 64, 80
1, 168063, Control_c, 0, 64, 82
1, 168078, Control_c, 0, 64, 84
1, 168089, Note_off_c, 0, 61, 34
1, 168093, Control_c, 0, 64, 87
1, 168108, Control_c, 0, 64, 89
1, 168122, Control_c, 0, 64, 92
1, 168137, Control_c, 0, 64, 94
1, 168152, Control_c, 0, 64, 95
1, 168166, Control_c, 0, 64, 96
1, 168181, Control_c, 0, 64, 97
1, 168191, Note_on_c, 0, 56, 65
1, 168195, Note_on_c, 0, 49, 60
1, 168195, Note_off_c, 0, 44, 60
1, 168196, Control_c, 0, 64, 98
1, 168204, Note_on_c, 0, 37, 56
1, 168212, Control_c, 0, 64, 99
1, 168227, Control_c, 0, 64, 101
1, 168238, Note_off_c, 0, 49, 58
1, 168242, Control_c, 0, 64, 102
1, 168251, Note_off_c, 0, 37, 62
1, 168256, Control_c, 0, 64, 103
1, 168271, Control_c, 0, 64, 103
1, 168501, Control_c, 0, 64, 102
1, 168514, Note_off_c, 0, 56, 33
1, 168516, Control_c, 0, 64, 101
1, 168529, Note_on_c, 0, 61, 62
1, 168531, Control_c, 0, 64, 99
1, 168545, Control_c, 0, 64, 96
1, 168554, Note_on_c, 0, 30, 64
1, 168555, Note_on_c, 0, 42, 64
1, 168560, Control_c, 0, 64, 92
1, 168575, Control_c, 0, 64, 85
1, 168589, Control_c, 0, 64, 78
1, 168604, Control_c, 0, 64, 70
1, 168609, Note_off_c, 0, 65, 57
1, 168619, Control_c, 0, 64, 65
1, 168634, Control_c, 0, 64, 64
1, 168649, Control_c, 0, 64, 64
1, 168663, Control_c, 0, 64, 65
1, 168678, Control_c, 0, 64, 66
1, 168693, Control_c, 0, 64, 67
1, 168708, Control_c, 0, 64, 70
1, 168723, Control_c, 0, 64, 72
1, 168737, Control_c, 0, 64, 76
1, 168752, Control_c, 0, 64, 78
1, 168760, Note_off_c, 0, 30, 52
1, 168767, Control_c, 0, 64, 80
1, 168782, Control_c, 0, 64, 81
1, 168797, Control_c, 0, 64, 83
1, 168812, Control_c, 0, 64, 85
1, 168827, Control_c, 0, 64, 88
1, 168842, Control_c, 0, 64, 91
1, 168857, Control_c, 0, 64, 93
1, 168871, Control_c, 0, 64, 96
1, 168886, Control_c, 0, 64, 98
1, 168901, Control_c, 0, 64, 102
1, 168908, Note_off_c, 0, 42, 53
1, 168915, Control_c, 0, 64, 106
1, 168930, Control_c, 0, 64, 114
1, 168945, Control_c, 0, 64, 127
1, 168952, Note_on_c, 0, 66, 58
1, 169044, Note_off_c, 0, 61, 51
1, 169158, Note_on_c, 0, 49, 55
1, 169159, Note_on_c, 0, 59, 54
1, 169162, Note_on_c, 0, 37, 51
1, 169361, Note_on_c, 0, 61, 61
1, 169364, Note_on_c, 0, 42, 61
1, 169369, Note_off_c, 0, 71, 63
1, 169376, Note_off_c, 0, 66, 32
1, 169438, Note_off_c, 0, 37, 42
1, 169476, Note_off_c, 0, 49, 33
1, 169551, Note_on_c, 0, 70, 69
1, 169568, Note_on_c, 0, 66, 58
1, 169623, Note_off_c, 0, 66, 47
1, 169654, Note_off_c, 0, 59, 41
1, 169755, Note_off_c, 0, 42, 41
1, 169828, Note_off_c, 0, 70, 38
1, 169870, Note_on_c, 0, 49, 54
1, 169877, Note_on_c, 0, 37, 49
1, 169936, Note_on_c, 0, 59, 57
1, 170037, Note_on_c, 0, 66, 67
1, 170049, Note_off_c, 0, 59, 46
1, 170073, Note_off_c, 0, 66, 58
1, 170105, Note_off_c, 0, 61, 39
1, 170157, Note_on_c, 0, 66, 71
1, 170183, Note_on_c, 0, 42, 48
1, 170209, Note_on_c, 0, 59, 24
1, 170249, Control_c, 0, 64, 124
1, 170264, Control_c, 0, 64, 111
1, 170279, Control_c, 0, 64, 106
1, 170293, Control_c, 0, 64, 101
1, 170308, Control_c, 0, 64, 98
1, 170323, Control_c, 0, 64, 94
1, 170326, Note_off_c, 0, 37, 38
1, 170338, Control_c, 0, 64, 92
1, 170352, Control_c, 0, 64, 89
1, 170367, Control_c, 0, 64, 87
1, 170382, Control_c, 0, 64, 86
1, 170395, Note_off_c, 0, 49, 39
1, 170397, Control_c, 0, 64, 84
1, 170412, Control_c, 0, 64, 83
1, 170426, Control_c, 0, 64, 81
1, 170441, Control_c, 0, 64, 80
1, 170456, Control_c, 0, 64, 79
1, 170471, Control_c, 0, 64, 78
1, 170485, Control_c, 0, 64, 78
1, 170500, Control_c, 0, 64, 77
1, 170515, Control_c, 0, 64, 77
1, 170530, Control_c, 0, 64, 76
1, 170545, Control_c, 0, 64, 74
1, 170545, Control_c, 0, 67, 8
1, 170559, Control_c, 0, 64, 73
1, 170562, Note_on_c, 0, 58, 64
1, 170582, Control_c, 0, 64, 72
1, 170597, Control_c, 0, 64, 69
1, 170597, Control_c, 0, 67, 8
1, 170612, Control_c, 0, 64, 68
1, 170627, Control_c, 0, 64, 67
1, 170642, Control_c, 0, 64, 67
1, 170648, Note_off_c, 0, 59, 43
1, 170657, Control_c, 0, 64, 67
1, 170672, Control_c, 0, 64, 68
1, 170687, Control_c, 0, 64, 69
1, 170702, Control_c, 0, 64, 70
1, 170717, Control_c, 0, 64, 72
1, 170717, Control_c, 0, 67, 9
1, 170732, Control_c, 0, 64, 75
1, 170746, Control_c, 0, 64, 79
1, 170761, Control_c, 0, 64, 80
1, 170776, Control_c, 0, 64, 81
1, 170790, Control_c, 0, 64, 83
1, 170790, Control_c, 0, 67, 9
1, 170805, Control_c, 0, 64, 84
1, 170820, Control_c, 0, 64, 87
1, 170820, Control_c, 0, 67, 10
1, 170835, Control_c, 0, 64, 89
1, 170850, Control_c, 0, 64, 91
1, 170850, Control_c, 0, 67, 11
1, 170864, Control_c, 0, 64, 92
1, 170864, Control_c, 0, 67, 12
1, 170879, Control_c, 0, 64, 92
1, 170879, Control_c, 0, 67, 12
1, 170894, Control_c, 0, 64, 93
1, 170894, Control_c, 0, 67, 13
1, 170895, Note_on_c, 0, 49, 41
1, 170898, Note_on_c, 0, 37, 34
1, 170907, Note_off_c, 0, 42, 40
1, 170909, Control_c, 0, 64, 95
1, 170909, Control_c, 0, 67, 15
1, 170924, Control_c, 0, 64, 98
1, 170924, Control_c, 0, 67, 15
1, 170938, Control_c, 0, 64, 99
1, 170938, Control_c, 0, 67, 17
1, 170953, Control_c, 0, 64, 100
1, 170953, Control_c, 0, 67, 18
1, 170968, Control_c, 0, 64, 101
1, 170968, Control_c, 0, 67, 19
1, 170979, Note_on_c, 0, 54, 65
1, 170982, Control_c, 0, 64, 102
1, 170982, Control_c, 0, 67, 19
1, 170997, Control_c, 0, 64, 103
1, 170997, Control_c, 0, 67, 20
1, 171012, Control_c, 0, 64, 103
1, 171012, Control_c, 0, 67, 21
1, 171022, Note_off_c, 0, 54, 62
1, 171027, Control_c, 0, 64, 104
1, 171027, Control_c, 0, 67, 23
1, 171042, Control_c, 0, 64, 105
1, 171042, Control_c, 0, 67, 24
1, 171057, Control_c, 0, 64, 106
1, 171057, Control_c, 0, 67, 26
1, 171071, Control_c, 0, 64, 107
1, 171071, Control_c, 0, 67, 27
1, 171086, Control_c, 0, 64, 107
1, 171086, Control_c, 0, 67, 28
1, 171101, Control_c, 0, 64, 108
1, 171101, Control_c, 0, 67, 30
1, 171116, Control_c, 0, 64, 109
1, 171116, Control_c, 0, 67, 31
1, 171118, Note_on_c, 0, 54, 58
1, 171131, Control_c, 0, 64, 110
1, 171131, Control_c, 0, 67, 32
1, 171134, Note_on_c, 0, 42, 44
1, 171146, Control_c, 0, 64, 112
1, 171146, Control_c, 0, 67, 34
1, 171161, Control_c, 0, 64, 113
1, 171161, Control_c, 0, 67, 35
1, 171175, Control_c, 0, 64, 114
1, 171175, Control_c, 0, 67, 36
1, 171190, Control_c, 0, 64, 115
1, 171190, Control_c, 0, 67, 37
1, 171205, Control_c, 0, 64, 116
1, 171205, Control_c, 0, 67, 38
1, 171220, Control_c, 0, 64, 117
1, 171220, Control_c, 0, 67, 40
1, 171235, Control_c, 0, 64, 119
1, 171235, Control_c, 0, 67, 41
1, 171249, Control_c, 0, 64, 121
1, 171249, Control_c, 0, 67, 43
1, 171264, Control_c, 0, 64, 124
1, 171264, Control_c, 0, 67, 45
1, 171279, Control_c, 0, 64, 127
1, 171279, Control_c, 0, 67, 46
1, 171294, Control_c, 0, 67, 48
1, 171308, Control_c, 0, 67, 49
1, 171331, Control_c, 0, 67, 50
1, 171343, Note_on_c, 0, 61, 48
1, 171343, Note_off_c, 0, 49, 41
1, 171346, Control_c, 0, 67, 52
1, 171361, Control_c, 0, 67, 54
1, 171366, Note_off_c, 0, 54, 57
1, 171369, Note_off_c, 0, 37, 39
1, 171376, Control_c, 0, 67, 56
1, 171390, Control_c, 0, 67, 58
1, 171401, Note_off_c, 0, 58, 45
1, 171405, Control_c, 0, 67, 60
1, 171420, Control_c, 0, 67, 62
1, 171435, Control_c, 0, 67, 64
1, 171450, Control_c, 0, 67, 65
1, 171465, Control_c, 0, 67, 66
1, 171480, Control_c, 0, 67, 68
1, 171495, Control_c, 0, 67, 70
1, 171510, Control_c, 0, 67, 72
1, 171515, Note_off_c, 0, 42, 37
1, 171525, Control_c, 0, 67, 74
1, 171525, Note_on_c, 0, 49, 36
1, 171537, Note_on_c, 0, 37, 28
1, 171539, Control_c, 0, 67, 76
1, 171554, Control_c, 0, 67, 77
1, 171569, Control_c, 0, 67, 79
1, 171577, Note_off_c, 0, 49, 48
1, 171579, Note_on_c, 0, 56, 63
1, 171583, Note_off_c, 0, 37, 48
1, 171584, Control_c, 0, 67, 81
1, 171599, Control_c, 0, 67, 84
1, 171602, Note_off_c, 0, 61, 32
1, 171613, Control_c, 0, 67, 86
1, 171628, Control_c, 0, 67, 88
1, 171643, Control_c, 0, 67, 91
1, 171659, Control_c, 0, 67, 93
1, 171674, Control_c, 0, 67, 96
1, 171688, Control_c, 0, 67, 99
1, 171703, Control_c, 0, 67, 102
1, 171718, Control_c, 0, 67, 105
1, 171732, Control_c, 0, 67, 108
1, 171747, Control_c, 0, 67, 111
1, 171762, Control_c, 0, 67, 114
1, 171777, Control_c, 0, 67, 117
1, 171792, Control_c, 0, 67, 121
1, 171806, Control_c, 0, 67, 124
1, 171821, Control_c, 0, 67, 126
1, 171836, Control_c, 0, 67, 127
1, 171925, Control_c, 0, 64, 110
1, 171930, Note_on_c, 0, 58, 64
1, 171939, Control_c, 0, 64, 96
1, 171954, Control_c, 0, 64, 84
1, 171969, Control_c, 0, 64, 71
1, 171974, Note_off_c, 0, 56, 34
1, 171984, Control_c, 0, 64, 65
1, 171996, Note_on_c, 0, 42, 34
1, 171999, Control_c, 0, 64, 62
1, 172002, Note_on_c, 0, 30, 29
1, 172013, Control_c, 0, 64, 63
1, 172028, Control_c, 0, 64, 65
1, 172043, Control_c, 0, 64, 68
1, 172058, Control_c, 0, 64, 71
1, 172067, Note_off_c, 0, 66, 56
1, 172080, Control_c, 0, 64, 75
1, 172091, Note_off_c, 0, 30, 54
1, 172095, Control_c, 0, 64, 80
1, 172109, Note_off_c, 0, 58, 58
1, 172110, Control_c, 0, 64, 84
1, 172125, Control_c, 0, 64, 88
1, 172130, Note_on_c, 0, 61, 42
1, 172139, Control_c, 0, 64, 93
1, 172154, Control_c, 0, 64, 97
1, 172159, Note_off_c, 0, 61, 57
1, 172169, Control_c, 0, 64, 102
1, 172184, Control_c, 0, 64, 107
1, 172199, Control_c, 0, 64, 112
1, 172215, Control_c, 0, 64, 122
1, 172229, Control_c, 0, 64, 127
1, 172241, Note_off_c, 0, 42, 41
1, 172291, Note_on_c, 0, 66, 54
1, 172334, Note_off_c, 0, 66, 58
1, 172376, Note_on_c, 0, 70, 54
1, 172440, Note_off_c, 0, 70, 62
1, 172457, Note_on_c, 0, 73, 67
1, 172536, Note_off_c, 0, 73, 62
1, 172546, Note_on_c, 0, 78, 50
1, 172579, Note_on_c, 0, 49, 33
1, 172593, Note_on_c, 0, 37, 34
1, 172595, Note_off_c, 0, 78, 60
1, 172672, Note_on_c, 0, 78, 47
1, 172867, Note_on_c, 0, 90, 70
1, 172885, Note_off_c, 0, 78, 54
1, 172917, Note_off_c, 0, 90, 65
1, 172918, Note_on_c, 0, 42, 33
1, 172994, Note_off_c, 0, 49, 36
1, 173011, Note_off_c, 0, 37, 41
1, 173409, Note_on_c, 0, 61, 45
1, 173593, Note_off_c, 0, 42, 29
1, 173785, Note_on_c, 0, 56, 46
1, 173838, Note_on_c, 0, 49, 27
1, 173839, Note_on_c, 0, 37, 23
1, 173882, Note_off_c, 0, 61, 33
1, 174008, Control_c, 0, 64, 123
1, 174023, Control_c, 0, 64, 114
1, 174037, Note_off_c, 0, 56, 36
1, 174037, Control_c, 0, 64, 110
1, 174047, Note_on_c, 0, 57, 47
1, 174052, Control_c, 0, 64, 106
1, 174067, Control_c, 0, 64, 102
1, 174068, Note_on_c, 0, 42, 37
1, 174082, Control_c, 0, 64, 99
1, 174097, Control_c, 0, 64, 97
1, 174112, Control_c, 0, 64, 95
1, 174126, Control_c, 0, 64, 93
1, 174141, Control_c, 0, 64, 91
1, 174156, Control_c, 0, 64, 89
1, 174163, Note_off_c, 0, 49, 28
1, 174171, Control_c, 0, 64, 88
1, 174186, Control_c, 0, 64, 87
1, 174200, Control_c, 0, 64, 85
1, 174215, Control_c, 0, 64, 84
1, 174219, Note_off_c, 0, 37, 32
1, 174230, Control_c, 0, 64, 83
1, 174245, Control_c, 0, 64, 82
1, 174260, Control_c, 0, 64, 82
1, 174274, Control_c, 0, 64, 81
1, 174356, Note_off_c, 0, 57, 37
1, 174356, Control_c, 0, 64, 82
1, 174368, Note_on_c, 0, 61, 49
1, 174371, Control_c, 0, 64, 83
1, 174386, Control_c, 0, 64, 84
1, 174401, Control_c, 0, 64, 85
1, 174415, Control_c, 0, 64, 87
1, 174430, Control_c, 0, 64, 89
1, 174445, Control_c, 0, 64, 92
1, 174460, Control_c, 0, 64, 95
1, 174475, Control_c, 0, 64, 97
1, 174489, Control_c, 0, 64, 99
1, 174504, Control_c, 0, 64, 100
1, 174519, Control_c, 0, 64, 102
1, 174533, Control_c, 0, 64, 104
1, 174548, Control_c, 0, 64, 106
1, 174563, Control_c, 0, 64, 108
1, 174568, Note_off_c, 0, 42, 37
1, 174578, Control_c, 0, 64, 109
1, 174588, Note_on_c, 0, 66, 68
1, 174593, Control_c, 0, 64, 110
1, 174613, Note_on_c, 0, 56, 43
1, 174623, Control_c, 0, 64, 110
1, 174638, Control_c, 0, 64, 111
1, 174640, Note_on_c, 0, 37, 35
1, 174641, Note_on_c, 0, 49, 31
1, 174654, Control_c, 0, 64, 111
1, 174669, Control_c, 0, 64, 112
1, 174684, Control_c, 0, 67, 126
1, 174699, Control_c, 0, 67, 124
1, 174713, Control_c, 0, 67, 123
1, 174717, Note_off_c, 0, 56, 41
1, 174728, Control_c, 0, 67, 121
1, 174743, Control_c, 0, 67, 120
1, 174757, Control_c, 0, 67, 119
1, 174772, Control_c, 0, 67, 118
1, 174787, Control_c, 0, 67, 117
1, 174794, Note_off_c, 0, 61, 34
1, 174802, Control_c, 0, 67, 117
1, 174817, Control_c, 0, 67, 116
1, 174820, Note_on_c, 0, 64, 76
1, 174831, Control_c, 0, 64, 110
1, 174831, Control_c, 0, 67, 115
1, 174846, Control_c, 0, 64, 108
1, 174846, Control_c, 0, 67, 114
1, 174861, Note_on_c, 0, 57, 47
1, 174861, Control_c, 0, 64, 106
1, 174861, Control_c, 0, 67, 114
1, 174869, Note_on_c, 0, 42, 45
1, 174876, Control_c, 0, 64, 103
1, 174876, Control_c, 0, 67, 113
1, 174891, Control_c, 0, 64, 100
1, 174891, Control_c, 0, 67, 112
1, 174905, Control_c, 0, 64, 96
1, 174905, Control_c, 0, 67, 111
1, 174920, Control_c, 0, 64, 92
1, 174920, Control_c, 0, 67, 111
1, 174935, Note_off_c, 0, 66, 34
1, 174935, Control_c, 0, 64, 88
1, 174935, Control_c, 0, 67, 110
1, 174950, Control_c, 0, 64, 84
1, 174950, Control_c, 0, 67, 109
1, 174965, Control_c, 0, 64, 80
1, 174965, Control_c, 0, 67, 107
1, 174979, Control_c, 0, 64, 77
1, 174979, Control_c, 0, 67, 105
1, 174982, Note_off_c, 0, 57, 37
1, 174994, Control_c, 0, 64, 76
1, 174994, Control_c, 0, 67, 104
1, 174999, Note_off_c, 0, 49, 37
1, 175009, Control_c, 0, 67, 103
1, 175010, Note_off_c, 0, 37, 38
1, 175024, Control_c, 0, 67, 102
1, 175034, Note_on_c, 0, 61, 57
1, 175039, Control_c, 0, 64, 77
1, 175039, Control_c, 0, 67, 100
1, 175054, Control_c, 0, 64, 78
1, 175054, Control_c, 0, 67, 99
1, 175076, Control_c, 0, 64, 80
1, 175076, Control_c, 0, 67, 97
1, 175091, Control_c, 0, 64, 82
1, 175091, Control_c, 0, 67, 96
1, 175105, Control_c, 0, 64, 84
1, 175105, Control_c, 0, 67, 95
1, 175120, Control_c, 0, 64, 87
1, 175120, Control_c, 0, 67, 93
1, 175135, Control_c, 0, 64, 90
1, 175135, Control_c, 0, 67, 92
1, 175149, Control_c, 0, 64, 92
1, 175149, Control_c, 0, 67, 91
1, 175164, Control_c, 0, 64, 94
1, 175164, Control_c, 0, 67, 90
1, 175179, Control_c, 0, 64, 96
1, 175179, Control_c, 0, 67, 88
1, 175194, Control_c, 0, 64, 97
1, 175194, Control_c, 0, 67, 87
1, 175209, Control_c, 0, 64, 99
1, 175209, Control_c, 0, 67, 85
1, 175224, Control_c, 0, 64, 101
1, 175224, Control_c, 0, 67, 84
1, 175239, Control_c, 0, 64, 102
1, 175239, Control_c, 0, 67, 83
1, 175240, Note_on_c, 0, 66, 75
1, 175254, Control_c, 0, 64, 103
1, 175254, Control_c, 0, 67, 81
1, 175263, Note_off_c, 0, 42, 42
1, 175263, Note_on_c, 0, 56, 43
1, 175269, Control_c, 0, 64, 104
1, 175269, Control_c, 0, 67, 80
1, 175269, Note_on_c, 0, 37, 38
1, 175274, Note_on_c, 0, 49, 37
1, 175283, Control_c, 0, 64, 105
1, 175283, Control_c, 0, 67, 78
1, 175298, Control_c, 0, 64, 106
1, 175298, Control_c, 0, 67, 78
1, 175313, Control_c, 0, 64, 106
1, 175313, Control_c, 0, 67, 77
1, 175328, Control_c, 0, 64, 107
1, 175328, Control_c, 0, 67, 76
1, 175343, Control_c, 0, 64, 107
1, 175343, Control_c, 0, 67, 74
1, 175357, Control_c, 0, 64, 108
1, 175357, Control_c, 0, 67, 73
1, 175372, Control_c, 0, 67, 72
1, 175387, Control_c, 0, 67, 71
1, 175403, Control_c, 0, 67, 70
1, 175418, Control_c, 0, 67, 70
1, 175433, Control_c, 0, 67, 69
1, 175447, Control_c, 0, 67, 69
1, 175462, Control_c, 0, 67, 68
1, 175477, Control_c, 0, 67, 68
1, 175489, Note_off_c, 0, 56, 44
1, 175492, Control_c, 0, 67, 67
1, 175507, Control_c, 0, 67, 66
1, 175522, Control_c, 0, 67, 66
1, 175536, Control_c, 0, 67, 65
1, 175551, Control_c, 0, 67, 65
1, 175552, Note_on_c, 0, 42, 39
1, 175580, Control_c, 0, 64, 107
1, 175580, Control_c, 0, 67, 64
1, 175595, Control_c, 0, 64, 107
1, 175610, Control_c, 0, 64, 106
1, 175610, Control_c, 0, 67, 64
1, 175620, Note_on_c, 0, 62, 78
1, 175625, Control_c, 0, 64, 105
1, 175640, Control_c, 0, 64, 104
1, 175654, Control_c, 0, 64, 103
1, 175669, Control_c, 0, 64, 102
1, 175684, Control_c, 0, 64, 100
1, 175684, Control_c, 0, 67, 63
1, 175694, Note_on_c, 0, 57, 34
1, 175698, Control_c, 0, 64, 99
1, 175713, Control_c, 0, 64, 98
1, 175722, Note_off_c, 0, 66, 35
1, 175728, Control_c, 0, 64, 97
1, 175733, Note_off_c, 0, 61, 36
1, 175743, Control_c, 0, 64, 96
1, 175758, Control_c, 0, 64, 94
1, 175772, Control_c, 0, 64, 93
1, 175787, Control_c, 0, 64, 92
1, 175799, Note_off_c, 0, 37, 35
1, 175802, Control_c, 0, 64, 91
1, 175825, Control_c, 0, 64, 90
1, 175840, Control_c, 0, 64, 89
1, 175845, Note_off_c, 0, 49, 35
1, 175854, Control_c, 0, 64, 87
1, 175869, Control_c, 0, 64, 84
1, 175884, Control_c, 0, 64, 81
1, 175898, Control_c, 0, 64, 79
1, 175913, Control_c, 0, 64, 79
1, 175928, Control_c, 0, 67, 64
1, 175961, Note_on_c, 0, 60, 51
1, 175963, Note_off_c, 0, 57, 22
1, 175972, Control_c, 0, 64, 79
1, 176002, Control_c, 0, 64, 80
1, 176002, Control_c, 0, 67, 64
1, 176017, Control_c, 0, 64, 81
1, 176032, Control_c, 0, 64, 82
1, 176032, Control_c, 0, 67, 65
1, 176047, Control_c, 0, 64, 83
1, 176062, Control_c, 0, 64, 85
1, 176076, Control_c, 0, 64, 86
1, 176091, Control_c, 0, 64, 87
1, 176091, Control_c, 0, 67, 65
1, 176106, Control_c, 0, 64, 88
1, 176121, Control_c, 0, 64, 90
1, 176136, Control_c, 0, 64, 91
1, 176143, Note_off_c, 0, 42, 42
1, 176150, Control_c, 0, 64, 92
1, 176150, Control_c, 0, 67, 66
1, 176163, Note_on_c, 0, 56, 48
1, 176165, Control_c, 0, 64, 92
1, 176177, Note_on_c, 0, 49, 37
1, 176184, Note_on_c, 0, 37, 30
1, 176194, Control_c, 0, 64, 93
1, 176194, Control_c, 0, 67, 66
1, 176225, Control_c, 0, 67, 67
1, 176238, Note_off_c, 0, 64, 15
1, 176240, Control_c, 0, 67, 67
1, 176255, Note_off_c, 0, 56, 39
1, 176270, Control_c, 0, 67, 68
1, 176284, Control_c, 0, 67, 68
1, 176314, Control_c, 0, 67, 69
1, 176343, Control_c, 0, 64, 92
1, 176358, Control_c, 0, 64, 91
1, 176358, Control_c, 0, 67, 69
1, 176373, Control_c, 0, 64, 90
1, 176383, Note_on_c, 0, 42, 42
1, 176387, Note_on_c, 0, 57, 49
1, 176388, Control_c, 0, 64, 88
1, 176402, Control_c, 0, 64, 85
1, 176417, Control_c, 0, 64, 81
1, 176417, Control_c, 0, 67, 70
1, 176432, Control_c, 0, 64, 76
1, 176435, Note_off_c, 0, 60, 28
1, 176447, Control_c, 0, 64, 72
1, 176462, Control_c, 0, 64, 69
1, 176476, Control_c, 0, 64, 68
1, 176506, Control_c, 0, 64, 69
1, 176506, Control_c, 0, 67, 69
1, 176521, Control_c, 0, 64, 70
1, 176532, Note_off_c, 0, 37, 33
1, 176535, Control_c, 0, 64, 73
1, 176541, Note_off_c, 0, 49, 37
1, 176550, Control_c, 0, 64, 76
1, 176573, Control_c, 0, 64, 80
1, 176573, Control_c, 0, 67, 69
1, 176588, Control_c, 0, 64, 83
1, 176602, Control_c, 0, 64, 85
1, 176603, Note_on_c, 0, 69, 56
1, 176611, Note_off_c, 0, 57, 60
1, 176617, Control_c, 0, 64, 86
1, 176632, Control_c, 0, 64, 88
1, 176647, Control_c, 0, 64, 91
1, 176647, Control_c, 0, 67, 68
1, 176652, Note_off_c, 0, 69, 54
1, 176662, Control_c, 0, 64, 93
1, 176676, Control_c, 0, 64, 96
1, 176691, Control_c, 0, 64, 98
1, 176706, Control_c, 0, 64, 100
1, 176720, Control_c, 0, 64, 102
1, 176735, Control_c, 0, 64, 103
1, 176750, Control_c, 0, 64, 104
1, 176765, Control_c, 0, 64, 105
1, 176780, Control_c, 0, 64, 107
1, 176795, Control_c, 0, 64, 108
1, 176795, Control_c, 0, 67, 68
1, 176795, Note_off_c, 0, 62, 54
1, 176810, Control_c, 0, 64, 109
1, 176837, Note_on_c, 0, 54, 47
1, 176840, Note_on_c, 0, 49, 41
1, 176840, Control_c, 0, 64, 109
1, 176850, Note_on_c, 0, 37, 36
1, 176861, Note_off_c, 0, 42, 37
1, 176869, Control_c, 0, 67, 67
1, 176899, Control_c, 0, 67, 67
1, 176911, Note_off_c, 0, 54, 56
1, 176973, Control_c, 0, 67, 66
1, 177018, Control_c, 0, 64, 109
1, 177033, Control_c, 0, 64, 107
1, 177048, Control_c, 0, 64, 105
1, 177063, Control_c, 0, 64, 103
1, 177078, Control_c, 0, 64, 101
1, 177091, Note_on_c, 0, 61, 64
1, 177093, Control_c, 0, 64, 97
1, 177107, Control_c, 0, 64, 93
1, 177120, Note_on_c, 0, 53, 46
1, 177122, Control_c, 0, 64, 88
1, 177132, Note_on_c, 0, 44, 43
1, 177137, Control_c, 0, 64, 83
1, 177151, Control_c, 0, 64, 77
1, 177166, Control_c, 0, 64, 73
1, 177181, Control_c, 0, 64, 70
1, 177196, Control_c, 0, 64, 69
1, 177196, Control_c, 0, 67, 66
1, 177211, Control_c, 0, 64, 70
1, 177225, Control_c, 0, 64, 71
1, 177225, Control_c, 0, 67, 65
1, 177228, Note_off_c, 0, 49, 35
1, 177240, Control_c, 0, 64, 72
1, 177255, Control_c, 0, 64, 74
1, 177270, Control_c, 0, 64, 77
1, 177270, Control_c, 0, 67, 65
1, 177275, Note_off_c, 0, 53, 38
1, 177285, Control_c, 0, 64, 81
1, 177299, Note_off_c, 0, 37, 43
1, 177299, Control_c, 0, 64, 84
1, 177299, Control_c, 0, 67, 64
1, 177311, Note_on_c, 0, 56, 51
1, 177314, Control_c, 0, 64, 87
1, 177337, Control_c, 0, 64, 90
1, 177337, Control_c, 0, 67, 64
1, 177351, Control_c, 0, 64, 92
1, 177361, Note_off_c, 0, 56, 63
1, 177366, Control_c, 0, 64, 94
1, 177366, Control_c, 0, 67, 63
1, 177381, Control_c, 0, 64, 96
1, 177396, Control_c, 0, 64, 99
1, 177402, Note_off_c, 0, 61, 59
1, 177411, Control_c, 0, 64, 102
1, 177425, Control_c, 0, 64, 104
1, 177425, Control_c, 0, 67, 63
1, 177440, Control_c, 0, 64, 105
1, 177440, Control_c, 0, 67, 62
1, 177455, Control_c, 0, 64, 105
1, 177470, Control_c, 0, 64, 106
1, 177484, Control_c, 0, 67, 62
1, 177499, Control_c, 0, 64, 106
1, 177514, Control_c, 0, 67, 61
1, 177543, Control_c, 0, 64, 107
1, 177543, Control_c, 0, 67, 58
1, 177546, Note_on_c, 0, 37, 36
1, 177553, Note_on_c, 0, 49, 40
1, 177558, Control_c, 0, 67, 55
1, 177573, Control_c, 0, 67, 53
1, 177588, Control_c, 0, 67, 51
1, 177591, Note_on_c, 0, 61, 70
1, 177603, Control_c, 0, 67, 50
1, 177618, Control_c, 0, 67, 49
1, 177632, Control_c, 0, 64, 106
1, 177632, Control_c, 0, 67, 48
1, 177648, Control_c, 0, 67, 47
1, 177663, Control_c, 0, 67, 46
1, 177677, Control_c, 0, 67, 45
1, 177692, Control_c, 0, 67, 44
1, 177698, Note_off_c, 0, 44, 19
1, 177707, Control_c, 0, 67, 44
1, 177722, Control_c, 0, 64, 106
1, 177737, Control_c, 0, 64, 105
1, 177752, Control_c, 0, 64, 104
1, 177752, Control_c, 0, 67, 43
1, 177767, Control_c, 0, 64, 102
1, 177781, Control_c, 0, 64, 99
1, 177797, Control_c, 0, 64, 97
1, 177812, Control_c, 0, 64, 93
1, 177827, Control_c, 0, 64, 90
1, 177840, Note_on_c, 0, 42, 42
1, 177842, Control_c, 0, 64, 86
1, 177847, Note_on_c, 0, 64, 68
1, 177856, Control_c, 0, 64, 83
1, 177871, Control_c, 0, 64, 78
1, 177886, Control_c, 0, 64, 74
1, 177889, Note_off_c, 0, 61, 58
1, 177901, Control_c, 0, 64, 69
1, 177902, Note_on_c, 0, 57, 36
1, 177916, Control_c, 0, 64, 67
1, 177928, Note_off_c, 0, 37, 37
1, 177931, Control_c, 0, 64, 66
1, 177942, Note_off_c, 0, 49, 37
1, 177945, Control_c, 0, 64, 67
1, 177960, Control_c, 0, 64, 68
1, 177960, Control_c, 0, 67, 43
1, 177975, Control_c, 0, 64, 69
1, 177975, Control_c, 0, 67, 42
1, 177990, Control_c, 0, 64, 71
1, 178005, Control_c, 0, 64, 74
1, 178020, Control_c, 0, 64, 78
1, 178020, Control_c, 0, 67, 42
1, 178035, Control_c, 0, 64, 81
1, 178049, Control_c, 0, 64, 83
1, 178049, Control_c, 0, 67, 41
1, 178053, Note_off_c, 0, 57, 30
1, 178057, Note_on_c, 0, 61, 60
1, 178064, Control_c, 0, 64, 84
1, 178064, Control_c, 0, 67, 38
1, 178086, Control_c, 0, 64, 86
1, 178086, Control_c, 0, 67, 36
1, 178100, Control_c, 0, 64, 90
1, 178100, Control_c, 0, 67, 34
1, 178115, Control_c, 0, 64, 93
1, 178115, Control_c, 0, 67, 32
1, 178130, Control_c, 0, 64, 95
1, 178130, Control_c, 0, 67, 30
1, 178145, Control_c, 0, 64, 97
1, 178145, Control_c, 0, 67, 28
1, 178160, Control_c, 0, 64, 99
1, 178160, Control_c, 0, 67, 25
1, 178175, Control_c, 0, 64, 102
1, 178175, Control_c, 0, 67, 23
1, 178190, Control_c, 0, 64, 104
1, 178190, Control_c, 0, 67, 21
1, 178205, Control_c, 0, 64, 107
1, 178205, Control_c, 0, 67, 19
1, 178220, Control_c, 0, 64, 109
1, 178220, Control_c, 0, 67, 17
1, 178235, Control_c, 0, 64, 110
1, 178235, Control_c, 0, 67, 15
1, 178249, Control_c, 0, 64, 110
1, 178249, Control_c, 0, 67, 13
1, 178264, Control_c, 0, 64, 111
1, 178264, Control_c, 0, 67, 11
1, 178279, Control_c, 0, 64, 111
1, 178279, Control_c, 0, 67, 9
1, 178294, Control_c, 0, 64, 112
1, 178294, Control_c, 0, 67, 0
1, 178317, Note_off_c, 0, 42, 42
1, 178372, Note_on_c, 0, 37, 32
1, 178378, Note_on_c, 0, 49, 37
1, 178400, Note_on_c, 0, 66, 71
1, 178436, Note_on_c, 0, 54, 40
1, 178491, Note_off_c, 0, 54, 50
1, 178694, Control_c, 0, 64, 111
1, 178709, Control_c, 0, 64, 110
1, 178723, Control_c, 0, 64, 109
1, 178738, Control_c, 0, 64, 108
1, 178753, Control_c, 0, 64, 107
1, 178768, Control_c, 0, 64, 106
1, 178773, Note_on_c, 0, 42, 32
1, 178783, Control_c, 0, 64, 104
1, 178798, Control_c, 0, 64, 103
1, 178820, Control_c, 0, 64, 101
1, 178828, Note_on_c, 0, 62, 71
1, 178835, Control_c, 0, 64, 99
1, 178850, Control_c, 0, 64, 97
1, 178865, Control_c, 0, 64, 95
1, 178879, Control_c, 0, 64, 94
1, 178881, Note_on_c, 0, 57, 37
1, 178894, Control_c, 0, 64, 92
1, 178909, Control_c, 0, 64, 90
1, 178923, Control_c, 0, 64, 88
1, 178923, Control_c, 0, 67, 8
1, 178932, Note_off_c, 0, 49, 32
1, 178938, Control_c, 0, 64, 86
1, 178938, Control_c, 0, 67, 9
1, 178953, Control_c, 0, 64, 84
1, 178953, Control_c, 0, 67, 9
1, 178962, Note_off_c, 0, 61, 44
1, 178968, Control_c, 0, 64, 83
1, 178968, Control_c, 0, 67, 10
1, 178983, Control_c, 0, 64, 81
1, 178983, Control_c, 0, 67, 10
1, 178988, Note_off_c, 0, 66, 24
1, 178989, Note_off_c, 0, 37, 29
1, 178998, Control_c, 0, 64, 80
1, 178998, Control_c, 0, 67, 11
1, 179013, Control_c, 0, 64, 79
1, 179013, Control_c, 0, 67, 11
1, 179028, Control_c, 0, 64, 79
1, 179028, Control_c, 0, 67, 12
1, 179042, Control_c, 0, 64, 78
1, 179042, Control_c, 0, 67, 13
1, 179057, Control_c, 0, 64, 78
1, 179057, Control_c, 0, 67, 14
1, 179072, Control_c, 0, 64, 77
1, 179072, Control_c, 0, 67, 15
1, 179087, Control_c, 0, 64, 77
1, 179087, Control_c, 0, 67, 16
1, 179102, Control_c, 0, 64, 76
1, 179102, Control_c, 0, 67, 18
1, 179117, Control_c, 0, 64, 74
1, 179117, Control_c, 0, 67, 19
1, 179131, Control_c, 0, 64, 72
1, 179131, Control_c, 0, 67, 21
1, 179146, Control_c, 0, 64, 70
1, 179146, Control_c, 0, 67, 22
1, 179161, Control_c, 0, 67, 23
1, 179176, Control_c, 0, 67, 24
1, 179191, Control_c, 0, 67, 25
1, 179205, Control_c, 0, 64, 71
1, 179205, Control_c, 0, 67, 26
1, 179220, Control_c, 0, 64, 71
1, 179220, Control_c, 0, 67, 27
1, 179235, Control_c, 0, 64, 73
1, 179235, Control_c, 0, 67, 29
1, 179249, Control_c, 0, 64, 75
1, 179249, Control_c, 0, 67, 30
1, 179250, Note_on_c, 0, 60, 45
1, 179250, Note_off_c, 0, 57, 28
1, 179264, Control_c, 0, 64, 77
1, 179264, Control_c, 0, 67, 31
1, 179279, Control_c, 0, 64, 78
1, 179279, Control_c, 0, 67, 33
1, 179294, Control_c, 0, 64, 80
1, 179294, Control_c, 0, 67, 34
1, 179309, Control_c, 0, 64, 81
1, 179309, Control_c, 0, 67, 36
1, 179323, Control_c, 0, 64, 82
1, 179323, Control_c, 0, 67, 38
1, 179338, Control_c, 0, 64, 84
1, 179338, Control_c, 0, 67, 39
1, 179353, Control_c, 0, 64, 86
1, 179353, Control_c, 0, 67, 41
1, 179368, Control_c, 0, 64, 87
1, 179368, Control_c, 0, 67, 42
1, 179383, Control_c, 0, 64, 88
1, 179383, Control_c, 0, 67, 44
1, 179399, Control_c, 0, 64, 89
1, 179399, Control_c, 0, 67, 45
1, 179403, Note_off_c, 0, 42, 36
1, 179413, Control_c, 0, 64, 90
1, 179413, Control_c, 0, 67, 46
1, 179428, Control_c, 0, 64, 92
1, 179428, Control_c, 0, 67, 47
1, 179443, Control_c, 0, 64, 93
1, 179443, Control_c, 0, 67, 48
1, 179458, Control_c, 0, 64, 93
1, 179458, Control_c, 0, 67, 49
1, 179473, Control_c, 0, 64, 94
1, 179473, Control_c, 0, 67, 50
1, 179478, Note_on_c, 0, 56, 51
1, 179487, Control_c, 0, 64, 95
1, 179487, Control_c, 0, 67, 51
1, 179502, Control_c, 0, 64, 96
1, 179502, Control_c, 0, 67, 52
1, 179504, Note_on_c, 0, 37, 27
1, 179505, Note_on_c, 0, 49, 34
1, 179517, Control_c, 0, 64, 97
1, 179517, Control_c, 0, 67, 53
1, 179519, Note_off_c, 0, 64, 0
1, 179532, Control_c, 0, 67, 55
1, 179546, Control_c, 0, 67, 56
1, 179556, Poly_aftertouch_c, 0, 64, 127
1, 179559, Note_off_c, 0, 56, 53
1, 179569, Control_c, 0, 67, 57
1, 179584, Control_c, 0, 67, 58
1, 179599, Control_c, 0, 67, 60
1, 179614, Control_c, 0, 67, 61
1, 179619, Note_off_c, 0, 60, 31
1, 179628, Control_c, 0, 67, 62
1, 179643, Control_c, 0, 67, 64
1, 179658, Control_c, 0, 64, 96
1, 179658, Control_c, 0, 67, 65
1, 179672, Control_c, 0, 64, 95
1, 179672, Control_c, 0, 67, 66
1, 179687, Control_c, 0, 64, 94
1, 179687, Control_c, 0, 67, 67
1, 179702, Control_c, 0, 64, 92
1, 179702, Control_c, 0, 67, 68
1, 179703, Note_on_c, 0, 57, 50
1, 179717, Control_c, 0, 64, 89
1, 179717, Control_c, 0, 67, 69
1, 179724, Note_on_c, 0, 42, 38
1, 179732, Control_c, 0, 64, 85
1, 179732, Control_c, 0, 67, 70
1, 179746, Control_c, 0, 64, 81
1, 179746, Control_c, 0, 67, 71
1, 179761, Control_c, 0, 64, 76
1, 179761, Control_c, 0, 67, 72
1, 179776, Control_c, 0, 64, 71
1, 179776, Control_c, 0, 67, 72
1, 179786, Note_off_c, 0, 49, 38
1, 179791, Control_c, 0, 64, 69
1, 179791, Control_c, 0, 67, 73
1, 179806, Control_c, 0, 67, 74
1, 179820, Control_c, 0, 64, 69
1, 179820, Control_c, 0, 67, 75
1, 179826, Note_off_c, 0, 37, 33
1, 179835, Control_c, 0, 64, 70
1, 179835, Control_c, 0, 67, 76
1, 179850, Control_c, 0, 64, 71
1, 179850, Control_c, 0, 67, 76
1, 179865, Control_c, 0, 64, 72
1, 179865, Control_c, 0, 67, 77
1, 179871, Note_off_c, 0, 57, 48
1, 179880, Control_c, 0, 64, 73
1, 179880, Control_c, 0, 67, 78
1, 179895, Control_c, 0, 64, 76
1, 179895, Control_c, 0, 67, 78
1, 179896, Note_on_c, 0, 60, 47
1, 179910, Control_c, 0, 64, 78
1, 179925, Control_c, 0, 64, 79
1, 179925, Control_c, 0, 67, 79
1, 179940, Control_c, 0, 64, 80
1, 179954, Control_c, 0, 64, 81
1, 179954, Control_c, 0, 67, 79
1, 179969, Control_c, 0, 64, 83
1, 179969, Control_c, 0, 67, 80
1, 179984, Control_c, 0, 64, 85
1, 179984, Control_c, 0, 67, 81
1, 179999, Control_c, 0, 64, 86
1, 179999, Control_c, 0, 67, 81
1, 180014, Control_c, 0, 64, 88
1, 180028, Control_c, 0, 64, 89
1, 180028, Control_c, 0, 67, 82
1, 180043, Control_c, 0, 64, 90
1, 180043, Control_c, 0, 67, 82
1, 180058, Control_c, 0, 64, 91
1, 180058, Control_c, 0, 67, 83
1, 180072, Control_c, 0, 64, 92
1, 180072, Control_c, 0, 67, 84
1, 180087, Control_c, 0, 67, 84
1, 180091, Note_off_c, 0, 42, 43
1, 180102, Control_c, 0, 64, 92
1, 180102, Control_c, 0, 67, 85
1, 180104, Note_on_c, 0, 54, 55
1, 180117, Control_c, 0, 67, 86
1, 180132, Control_c, 0, 64, 93
1, 180132, Control_c, 0, 67, 86
1, 180136, Note_on_c, 0, 37, 31
1, 180138, Note_on_c, 0, 49, 33
1, 180146, Control_c, 0, 64, 93
1, 180146, Control_c, 0, 67, 87
1, 180153, Note_off_c, 0, 54, 59
1, 180176, Control_c, 0, 67, 88
1, 180183, Note_off_c, 0, 60, 27
1, 180281, Control_c, 0, 64, 93
1, 180295, Control_c, 0, 64, 92
1, 180310, Control_c, 0, 64, 91
1, 180333, Control_c, 0, 64, 90
1, 180343, Note_on_c, 0, 57, 49
1, 180348, Control_c, 0, 64, 86
1, 180354, Note_on_c, 0, 42, 39
1, 180363, Control_c, 0, 64, 82
1, 180377, Control_c, 0, 64, 77
1, 180392, Control_c, 0, 64, 72
1, 180407, Control_c, 0, 64, 68
1, 180408, Note_off_c, 0, 37, 37
1, 180422, Control_c, 0, 64, 67
1, 180426, Note_off_c, 0, 49, 40
1, 180437, Control_c, 0, 64, 68
1, 180451, Control_c, 0, 64, 68
1, 180466, Control_c, 0, 64, 69
1, 180481, Control_c, 0, 64, 70
1, 180495, Control_c, 0, 64, 72
1, 180495, Control_c, 0, 67, 87
1, 180510, Control_c, 0, 64, 74
1, 180510, Control_c, 0, 67, 87
1, 180525, Control_c, 0, 64, 78
1, 180540, Control_c, 0, 64, 80
1, 180540, Control_c, 0, 67, 86
1, 180550, Note_off_c, 0, 57, 28
1, 180555, Control_c, 0, 64, 81
1, 180561, Note_on_c, 0, 60, 42
1, 180569, Control_c, 0, 64, 83
1, 180569, Control_c, 0, 67, 86
1, 180584, Control_c, 0, 64, 85
1, 180584, Control_c, 0, 67, 85
1, 180599, Control_c, 0, 64, 88
1, 180614, Control_c, 0, 64, 90
1, 180614, Control_c, 0, 67, 85
1, 180629, Control_c, 0, 64, 92
1, 180643, Control_c, 0, 64, 93
1, 180658, Control_c, 0, 64, 94
1, 180658, Control_c, 0, 67, 84
1, 180673, Control_c, 0, 64, 95
1, 180673, Control_c, 0, 67, 84
1, 180688, Control_c, 0, 64, 95
1, 180703, Control_c, 0, 64, 96
1, 180718, Control_c, 0, 64, 96
1, 180765, Note_off_c, 0, 42, 46
1, 180771, Note_on_c, 0, 56, 55
1, 180788, Note_on_c, 0, 37, 33
1, 180792, Note_on_c, 0, 49, 37
1, 180854, Note_off_c, 0, 56, 45
1, 180925, Control_c, 0, 64, 96
1, 180940, Control_c, 0, 64, 95
1, 180955, Control_c, 0, 64, 95
1, 180968, Poly_aftertouch_c, 0, 64, 0
1, 180984, Control_c, 0, 64, 94
1, 180997, Note_off_c, 0, 60, 35
1, 181000, Control_c, 0, 64, 93
1, 181007, Note_on_c, 0, 57, 50
1, 181015, Control_c, 0, 64, 91
1, 181018, Note_on_c, 0, 42, 43
1, 181030, Control_c, 0, 64, 88
1, 181045, Control_c, 0, 64, 84
1, 181060, Control_c, 0, 64, 79
1, 181081, Control_c, 0, 64, 74
1, 181096, Control_c, 0, 64, 69
1, 181111, Control_c, 0, 64, 67
1, 181114, Note_off_c, 0, 37, 32
1, 181126, Control_c, 0, 67, 83
1, 181141, Control_c, 0, 64, 67
1, 181156, Control_c, 0, 64, 68
1, 181156, Control_c, 0, 67, 83
1, 181171, Control_c, 0, 64, 69
1, 181171, Control_c, 0, 67, 82
1, 181181, Note_off_c, 0, 49, 33
1, 181186, Control_c, 0, 64, 71
1, 181200, Control_c, 0, 64, 73
1, 181215, Control_c, 0, 64, 76
1, 181215, Control_c, 0, 67, 82
1, 181230, Control_c, 0, 64, 78
1, 181234, Note_on_c, 0, 69, 49
1, 181245, Control_c, 0, 64, 80
1, 181245, Control_c, 0, 67, 81
1, 181251, Note_off_c, 0, 57, 51
1, 181260, Control_c, 0, 64, 82
1, 181260, Control_c, 0, 67, 81
1, 181274, Control_c, 0, 64, 83
1, 181285, Note_off_c, 0, 69, 44
1, 181289, Control_c, 0, 64, 85
1, 181289, Control_c, 0, 67, 80
1, 181304, Control_c, 0, 64, 88
1, 181318, Control_c, 0, 64, 91
1, 181318, Control_c, 0, 67, 80
1, 181333, Control_c, 0, 64, 93
1, 181348, Control_c, 0, 64, 95
1, 181363, Control_c, 0, 64, 97
1, 181378, Control_c, 0, 64, 99
1, 181392, Control_c, 0, 64, 101
1, 181392, Control_c, 0, 67, 79
1, 181407, Control_c, 0, 64, 102
1, 181407, Control_c, 0, 67, 79
1, 181422, Control_c, 0, 64, 103
1, 181437, Control_c, 0, 64, 103
1, 181452, Control_c, 0, 64, 104
1, 181466, Control_c, 0, 64, 105
1, 181466, Control_c, 0, 67, 78
1, 181481, Control_c, 0, 64, 106
1, 181496, Control_c, 0, 67, 78
1, 181498, Note_off_c, 0, 62, 59
1, 181526, Note_on_c, 0, 54, 50
1, 181526, Control_c, 0, 67, 77
1, 181528, Note_off_c, 0, 42, 38
1, 181540, Control_c, 0, 67, 77
1, 181542, Note_on_c, 0, 37, 31
1, 181543, Note_on_c, 0, 49, 36
1, 181555, Control_c, 0, 67, 76
1, 181570, Control_c, 0, 64, 106
1, 181570, Control_c, 0, 67, 76
1, 181585, Control_c, 0, 67, 75
1, 181600, Control_c, 0, 67, 74
1, 181615, Control_c, 0, 67, 73
1, 181630, Control_c, 0, 67, 71
1, 181644, Control_c, 0, 67, 69
1, 181659, Control_c, 0, 67, 67
1, 181674, Control_c, 0, 67, 66
1, 181689, Control_c, 0, 67, 65
1, 181704, Control_c, 0, 67, 63
1, 181718, Control_c, 0, 67, 62
1, 181733, Control_c, 0, 67, 60
1, 181737, Note_off_c, 0, 54, 34
1, 181748, Control_c, 0, 64, 106
1, 181794, Control_c, 0, 67, 60
1, 181830, Control_c, 0, 64, 105
1, 181845, Control_c, 0, 64, 104
1, 181860, Control_c, 0, 64, 103
1, 181875, Control_c, 0, 64, 103
1, 181890, Control_c, 0, 64, 102
1, 181904, Control_c, 0, 64, 101
1, 181919, Control_c, 0, 64, 100
1, 181934, Control_c, 0, 64, 99
1, 181949, Control_c, 0, 64, 97
1, 181960, Note_on_c, 0, 61, 54
1, 181964, Control_c, 0, 64, 95
1, 181969, Note_on_c, 0, 53, 43
1, 181970, Note_on_c, 0, 44, 49
1, 181979, Control_c, 0, 64, 93
1, 181994, Control_c, 0, 64, 91
1, 182008, Control_c, 0, 64, 89
1, 182023, Control_c, 0, 64, 87
1, 182038, Control_c, 0, 64, 85
1, 182053, Control_c, 0, 64, 83
1, 182067, Control_c, 0, 64, 80
1, 182082, Control_c, 0, 64, 77
1, 182097, Control_c, 0, 64, 73
1, 182112, Control_c, 0, 64, 68
1, 182126, Note_off_c, 0, 49, 36
1, 182127, Control_c, 0, 64, 65
1, 182127, Control_c, 0, 67, 59
1, 182140, Control_c, 0, 64, 64
1, 182155, Control_c, 0, 64, 65
1, 182170, Control_c, 0, 64, 65
1, 182185, Control_c, 0, 64, 66
1, 182200, Control_c, 0, 64, 67
1, 182200, Control_c, 0, 67, 59
1, 182211, Note_off_c, 0, 37, 27
1, 182214, Control_c, 0, 64, 69
1, 182229, Control_c, 0, 64, 73
1, 182229, Control_c, 0, 67, 58
1, 182244, Control_c, 0, 64, 76
1, 182259, Control_c, 0, 64, 78
1, 182274, Control_c, 0, 64, 80
1, 182274, Control_c, 0, 67, 58
1, 182289, Control_c, 0, 64, 81
1, 182289, Control_c, 0, 67, 57
1, 182304, Control_c, 0, 64, 83
1, 182304, Control_c, 0, 67, 55
1, 182318, Control_c, 0, 64, 85
1, 182318, Control_c, 0, 67, 52
1, 182333, Control_c, 0, 64, 88
1, 182333, Control_c, 0, 67, 50
1, 182348, Control_c, 0, 64, 91
1, 182348, Control_c, 0, 67, 48
1, 182363, Control_c, 0, 64, 94
1, 182363, Control_c, 0, 67, 46
1, 182364, Note_on_c, 0, 56, 60
1, 182378, Control_c, 0, 64, 97
1, 182378, Control_c, 0, 67, 45
1, 182393, Control_c, 0, 64, 99
1, 182393, Control_c, 0, 67, 45
1, 182407, Control_c, 0, 64, 101
1, 182407, Control_c, 0, 67, 44
1, 182417, Note_off_c, 0, 61, 37
1, 182422, Control_c, 0, 64, 104
1, 182422, Control_c, 0, 67, 44
1, 182437, Control_c, 0, 64, 107
1, 182437, Control_c, 0, 67, 43
1, 182452, Control_c, 0, 64, 110
1, 182452, Control_c, 0, 67, 42
1, 182466, Control_c, 0, 64, 115
1, 182466, Control_c, 0, 67, 42
1, 182481, Control_c, 0, 64, 123
1, 182481, Control_c, 0, 67, 41
1, 182484, Note_off_c, 0, 53, 36
1, 182496, Control_c, 0, 64, 127
1, 182496, Control_c, 0, 67, 40
1, 182511, Control_c, 0, 67, 40
1, 182526, Control_c, 0, 67, 39
1, 182551, Note_on_c, 0, 49, 51
1, 182555, Control_c, 0, 67, 38
1, 182578, Control_c, 0, 67, 38
1, 182584, Note_on_c, 0, 37, 41
1, 182593, Control_c, 0, 67, 37
1, 182608, Control_c, 0, 67, 37
1, 182620, Note_on_c, 0, 61, 64
1, 182623, Note_off_c, 0, 44, 27
1, 182623, Control_c, 0, 67, 36
1, 182637, Control_c, 0, 67, 36
1, 182638, Note_off_c, 0, 56, 39
1, 182652, Control_c, 0, 67, 35
1, 182667, Control_c, 0, 67, 35
1, 182682, Control_c, 0, 67, 34
1, 182697, Control_c, 0, 67, 33
1, 182712, Control_c, 0, 67, 33
1, 182727, Control_c, 0, 67, 32
1, 182731, Note_off_c, 0, 61, 60
1, 182742, Control_c, 0, 67, 32
1, 182757, Control_c, 0, 67, 31
1, 182771, Control_c, 0, 67, 30
1, 182786, Control_c, 0, 67, 30
1, 182801, Control_c, 0, 67, 29
1, 182811, Note_off_c, 0, 49, 54
1, 182816, Control_c, 0, 67, 28
1, 182831, Control_c, 0, 67, 28
1, 182837, Note_on_c, 0, 44, 60
1, 182845, Control_c, 0, 67, 27
1, 182860, Control_c, 0, 67, 27
1, 182867, Note_off_c, 0, 37, 42
1, 182875, Control_c, 0, 67, 26
1, 182886, Note_on_c, 0, 65, 66
1, 182888, Control_c, 0, 67, 26
1, 182903, Control_c, 0, 67, 25
1, 182918, Control_c, 0, 67, 25
1, 182948, Control_c, 0, 67, 24
1, 182962, Control_c, 0, 67, 24
1, 182992, Control_c, 0, 67, 23
1, 183007, Control_c, 0, 67, 23
1, 183022, Control_c, 0, 67, 22
1, 183037, Control_c, 0, 67, 22
1, 183052, Control_c, 0, 67, 21
1, 183067, Control_c, 0, 67, 21
1, 183082, Control_c, 0, 67, 20
1, 183095, Note_on_c, 0, 53, 63
1, 183096, Control_c, 0, 67, 20
1, 183097, Note_on_c, 0, 68, 69
1, 183111, Control_c, 0, 67, 19
1, 183126, Control_c, 0, 67, 18
1, 183141, Control_c, 0, 67, 17
1, 183143, Note_off_c, 0, 53, 59
1, 183155, Control_c, 0, 67, 17
1, 183170, Note_off_c, 0, 65, 53
1, 183170, Control_c, 0, 67, 16
1, 183185, Control_c, 0, 67, 16
1, 183200, Control_c, 0, 67, 15
1, 183215, Control_c, 0, 67, 15
1, 183216, Note_off_c, 0, 68, 47
1, 183229, Note_off_c, 0, 44, 37
1, 183230, Control_c, 0, 67, 14
1, 183243, Note_on_c, 0, 73, 71
1, 183244, Control_c, 0, 67, 14
1, 183257, Note_on_c, 0, 37, 62
1, 183274, Control_c, 0, 67, 13
1, 183289, Note_off_c, 0, 73, 59
1, 183326, Control_c, 0, 67, 13
1, 183351, Note_on_c, 0, 74, 52
1, 183374, Note_off_c, 0, 74, 60
1, 183436, Note_on_c, 0, 74, 59
1, 183441, Poly_aftertouch_c, 0, 68, 127
1, 183454, Note_on_c, 0, 44, 67
1, 183454, Note_on_c, 0, 73, 86
1, 183466, Note_on_c, 0, 64, 61
1, 183471, Note_on_c, 0, 68, 15
1, 183486, Note_off_c, 0, 74, 64
1, 183490, Control_c, 0, 64, 101
1, 183505, Control_c, 0, 64, 86
1, 183519, Control_c, 0, 64, 75
1, 183534, Control_c, 0, 64, 67
1, 183549, Control_c, 0, 64, 67
1, 183564, Control_c, 0, 64, 69
1, 183579, Control_c, 0, 64, 72
1, 183587, Note_off_c, 0, 64, 57
1, 183593, Control_c, 0, 64, 76
1, 183608, Control_c, 0, 64, 80
1, 183608, Control_c, 0, 67, 12
1, 183623, Control_c, 0, 64, 85
1, 183637, Control_c, 0, 64, 90
1, 183638, Note_off_c, 0, 37, 37
1, 183652, Control_c, 0, 64, 95
1, 183665, Note_off_c, 0, 68, 57
1, 183667, Control_c, 0, 64, 102
1, 183682, Control_c, 0, 64, 109
1, 183697, Control_c, 0, 64, 119
1, 183711, Control_c, 0, 64, 127
1, 183711, Control_c, 0, 67, 11
1, 183720, Note_on_c, 0, 72, 76
1, 183734, Note_on_c, 0, 52, 68
1, 183740, Note_on_c, 0, 63, 66
1, 183741, Control_c, 0, 67, 10
1, 183752, Note_off_c, 0, 73, 57
1, 183756, Control_c, 0, 67, 9
1, 183771, Control_c, 0, 67, 0
1, 183833, Note_off_c, 0, 52, 51
1, 183852, Note_off_c, 0, 63, 39
1, 183919, Note_on_c, 0, 73, 84
1, 183924, Note_on_c, 0, 37, 70
1, 183934, Note_on_c, 0, 64, 72
1, 183940, Note_off_c, 0, 72, 57
1, 183985, Note_off_c, 0, 37, 61
1, 183999, Note_off_c, 0, 64, 59
1, 184006, Note_off_c, 0, 73, 60
1, 184129, Note_on_c, 0, 76, 88
1, 184133, Note_on_c, 0, 40, 75
1, 184141, Note_on_c, 0, 68, 78
1, 184145, Note_off_c, 0, 44, 57
1, 184149, Note_on_c, 0, 73, 78
1, 184164, Control_c, 0, 64, 100
1, 184179, Control_c, 0, 64, 83
1, 184194, Control_c, 0, 64, 70
1, 184208, Control_c, 0, 64, 63
1, 184214, Note_off_c, 0, 76, 63
1, 184223, Control_c, 0, 64, 63
1, 184238, Control_c, 0, 64, 66
1, 184253, Control_c, 0, 64, 70
1, 184268, Control_c, 0, 64, 75
1, 184283, Control_c, 0, 64, 81
1, 184298, Control_c, 0, 64, 88
1, 184313, Control_c, 0, 64, 96
1, 184328, Control_c, 0, 64, 105
1, 184342, Control_c, 0, 64, 113
1, 184357, Control_c, 0, 64, 127
1, 184357, Note_on_c, 0, 74, 85
1, 184360, Note_on_c, 0, 66, 78
1, 184363, Note_on_c, 0, 47, 76
1, 184387, Note_off_c, 0, 73, 55
1, 184392, Note_off_c, 0, 40, 58
1, 184399, Note_off_c, 0, 68, 37
1, 184475, Note_off_c, 0, 66, 57
1, 184475, Note_off_c, 0, 74, 55
1, 184626, Note_on_c, 0, 56, 77
1, 184644, Note_off_c, 0, 47, 57
1, 184653, Note_off_c, 0, 56, 67
1, 184667, Note_on_c, 0, 71, 87
1, 184685, Note_on_c, 0, 62, 72
1, 184687, Note_on_c, 0, 68, 60
1, 184736, Note_off_c, 0, 68, 53
1, 184792, Note_off_c, 0, 62, 58
1, 184851, Note_off_c, 0, 71, 61
1, 184942, Control_c, 0, 64, 111
1, 184947, Note_on_c, 0, 45, 86
1, 184948, Note_on_c, 0, 33, 82
1, 184957, Control_c, 0, 64, 82
1, 184972, Control_c, 0, 64, 65
1, 184988, Control_c, 0, 64, 53
1, 185003, Control_c, 0, 64, 61
1, 185018, Control_c, 0, 64, 66
1, 185032, Control_c, 0, 64, 72
1, 185034, Note_on_c, 0, 73, 93
1, 185041, Note_on_c, 0, 61, 79
1, 185047, Control_c, 0, 64, 84
1, 185055, Note_on_c, 0, 69, 37
1, 185062, Control_c, 0, 64, 107
1, 185070, Note_off_c, 0, 61, 64
1, 185076, Note_off_c, 0, 33, 56
1, 185077, Control_c, 0, 64, 127
1, 185087, Note_off_c, 0, 69, 55
1, 185118, Note_off_c, 0, 45, 61
1, 185123, Note_off_c, 0, 73, 63
1, 185261, Note_on_c, 0, 81, 89
1, 185329, Note_off_c, 0, 81, 62
1, 185491, Note_on_c, 0, 52, 68
1, 185578, Note_on_c, 0, 78, 57
1, 185612, Note_off_c, 0, 78, 62
1, 185654, Note_on_c, 0, 76, 68
1, 185684, Note_off_c, 0, 76, 62
1, 185702, Note_on_c, 0, 78, 69
1, 185736, Note_off_c, 0, 52, 47
1, 185745, Note_off_c, 0, 78, 50
1, 185746, Note_on_c, 0, 40, 73
1, 185774, Note_on_c, 0, 76, 66
1, 185797, Note_off_c, 0, 76, 61
1, 185813, Note_on_c, 0, 78, 71
1, 185860, Note_off_c, 0, 78, 58
1, 185871, Note_on_c, 0, 76, 71
1, 185911, Note_off_c, 0, 76, 59
1, 185916, Note_on_c, 0, 78, 72
1, 185932, Note_on_c, 0, 45, 73
1, 185966, Note_off_c, 0, 78, 61
1, 185977, Note_on_c, 0, 76, 69
1, 185997, Note_off_c, 0, 40, 37
1, 186009, Note_on_c, 0, 78, 63
1, 186024, Note_off_c, 0, 76, 0
1, 186068, Poly_aftertouch_c, 0, 76, 0
1, 186076, Note_off_c, 0, 78, 0
1, 186076, Note_on_c, 0, 78, 35
1, 186113, Note_on_c, 0, 52, 63
1, 186121, Note_off_c, 0, 45, 62
1, 186125, Note_off_c, 0, 78, 60
1, 186128, Note_on_c, 0, 76, 64
1, 186271, Note_on_c, 0, 75, 70
1, 186285, Note_on_c, 0, 40, 63
1, 186319, Note_off_c, 0, 76, 24
1, 186361, Note_on_c, 0, 76, 72
1, 186374, Note_off_c, 0, 75, 59
1, 186482, Note_off_c, 0, 76, 57
1, 186506, Note_off_c, 0, 52, 29
1, 186530, Note_on_c, 0, 45, 59
1, 186555, Note_on_c, 0, 81, 73
1, 186570, Note_on_c, 0, 73, 55
1, 186572, Note_on_c, 0, 69, 50
1, 186574, Control_c, 0, 64, 107
1, 186590, Control_c, 0, 64, 90
1, 186605, Control_c, 0, 64, 76
1, 186619, Control_c, 0, 64, 68
1, 186633, Control_c, 0, 64, 66
1, 186648, Control_c, 0, 64, 67
1, 186656, Note_off_c, 0, 69, 54
1, 186662, Control_c, 0, 64, 69
1, 186677, Control_c, 0, 64, 73
1, 186692, Control_c, 0, 64, 80
1, 186694, Note_off_c, 0, 81, 62
1, 186701, Note_off_c, 0, 73, 57
1, 186707, Control_c, 0, 64, 91
1, 186722, Control_c, 0, 64, 102
1, 186736, Control_c, 0, 64, 120
1, 186751, Control_c, 0, 64, 127
1, 186802, Note_on_c, 0, 78, 77
1, 186808, Note_on_c, 0, 76, 61
1, 186811, Note_on_c, 0, 52, 67
1, 186812, Note_on_c, 0, 66, 69
1, 186827, Note_off_c, 0, 40, 41
1, 186847, Note_off_c, 0, 45, 56
1, 186855, Note_off_c, 0, 76, 61
1, 186867, Note_off_c, 0, 66, 60
1, 186881, Note_off_c, 0, 78, 62
1, 186992, Note_on_c, 0, 80, 81
1, 186994, Note_on_c, 0, 68, 76
1, 187001, Note_on_c, 0, 40, 70
1, 187016, Note_on_c, 0, 71, 37
1, 187046, Note_off_c, 0, 71, 56
1, 187065, Note_off_c, 0, 68, 62
1, 187065, Note_off_c, 0, 80, 64
1, 187113, Note_off_c, 0, 52, 51
1, 187183, Note_on_c, 0, 81, 89
1, 187190, Note_on_c, 0, 73, 77
1, 187192, Note_on_c, 0, 45, 67
1, 187195, Note_on_c, 0, 69, 69
1, 187227, Note_off_c, 0, 69, 59
1, 187264, Note_off_c, 0, 73, 60
1, 187273, Note_off_c, 0, 81, 61
1, 187328, Note_off_c, 0, 40, 30
1, 187370, Note_on_c, 0, 78, 76
1, 187381, Note_on_c, 0, 52, 68
1, 187381, Note_on_c, 0, 66, 72
1, 187386, Note_on_c, 0, 76, 64
1, 187409, Note_on_c, 0, 75, 37
1, 187434, Note_off_c, 0, 66, 58
1, 187435, Note_off_c, 0, 76, 62
1, 187440, Note_off_c, 0, 75, 32
1, 187449, Note_off_c, 0, 78, 62
1, 187531, Note_off_c, 0, 45, 30
1, 187561, Note_off_c, 0, 52, 37
1, 187565, Note_on_c, 0, 80, 82
1, 187573, Note_on_c, 0, 68, 69
1, 187574, Note_on_c, 0, 71, 49
1, 187574, Note_on_c, 0, 40, 68
1, 187598, Note_off_c, 0, 71, 61
1, 187609, Note_off_c, 0, 40, 63
1, 187642, Note_off_c, 0, 68, 59
1, 187658, Note_off_c, 0, 80, 62
1, 187782, Control_c, 0, 64, 93
1, 187792, Note_on_c, 0, 81, 81
1, 187805, Control_c, 0, 64, 78
1, 187807, Note_on_c, 0, 73, 59
1, 187812, Note_on_c, 0, 33, 63
1, 187818, Note_on_c, 0, 69, 66
1, 187820, Control_c, 0, 64, 68
1, 187822, Note_on_c, 0, 45, 54
1, 187834, Control_c, 0, 64, 66
1, 187849, Control_c, 0, 64, 68
1, 187864, Control_c, 0, 64, 73
1, 187877, Note_off_c, 0, 33, 61
1, 187879, Control_c, 0, 64, 79
1, 187881, Note_off_c, 0, 45, 61
1, 187887, Note_off_c, 0, 73, 57
1, 187893, Control_c, 0, 64, 87
1, 187908, Control_c, 0, 64, 96
1, 187923, Control_c, 0, 64, 106
1, 187931, Note_off_c, 0, 69, 59
1, 187938, Control_c, 0, 64, 127
1, 187950, Note_off_c, 0, 81, 63
1, 187994, Note_on_c, 0, 76, 71
1, 188010, Note_on_c, 0, 52, 71
1, 188080, Note_off_c, 0, 76, 63
1, 188173, Note_on_c, 0, 80, 85
1, 188178, Note_on_c, 0, 40, 83
1, 188180, Note_on_c, 0, 68, 78
1, 188182, Note_on_c, 0, 71, 72
1, 188239, Note_off_c, 0, 71, 61
1, 188241, Note_off_c, 0, 52, 50
1, 188260, Note_off_c, 0, 68, 62
1, 188288, Note_off_c, 0, 80, 63
1, 188372, Note_on_c, 0, 45, 82
1, 188374, Note_on_c, 0, 81, 90
1, 188381, Note_on_c, 0, 69, 81
1, 188385, Note_on_c, 0, 73, 74
1, 188435, Note_off_c, 0, 73, 59
1, 188533, Note_off_c, 0, 69, 54
1, 188575, Note_off_c, 0, 40, 59
1, 188575, Note_on_c, 0, 80, 85
1, 188578, Note_on_c, 0, 52, 85
1, 188581, Note_off_c, 0, 81, 59
1, 188684, Note_off_c, 0, 80, 65
1, 188738, Note_off_c, 0, 52, 60
1, 188765, Note_off_c, 0, 45, 64
1, 188766, Note_on_c, 0, 83, 99
1, 188767, Note_on_c, 0, 40, 79
1, 188769, Note_on_c, 0, 71, 96
1, 188778, Note_on_c, 0, 78, 85
1, 188802, Note_off_c, 0, 40, 66
1, 188861, Note_off_c, 0, 83, 64
1, 188862, Note_off_c, 0, 78, 62
1, 188870, Note_off_c, 0, 71, 53
1, 189043, Control_c, 0, 64, 105
1, 189046, Note_on_c, 0, 85, 98
1, 189049, Note_on_c, 0, 73, 89
1, 189054, Note_on_c, 0, 76, 69
1, 189058, Note_on_c, 0, 33, 69
1, 189058, Note_on_c, 0, 45, 70
1, 189058, Control_c, 0, 64, 83
1, 189073, Control_c, 0, 64, 70
1, 189088, Control_c, 0, 64, 64
1, 189103, Control_c, 0, 64, 66
1, 189118, Control_c, 0, 64, 71
1, 189133, Control_c, 0, 64, 80
1, 189136, Note_off_c, 0, 33, 60
1, 189144, Note_off_c, 0, 45, 52
1, 189148, Control_c, 0, 64, 95
1, 189163, Control_c, 0, 64, 127
1, 189214, Note_off_c, 0, 85, 61
1, 189294, Note_off_c, 0, 73, 61
1, 189329, Note_on_c, 0, 81, 85
1, 189334, Note_off_c, 0, 76, 60
1, 189337, Note_on_c, 0, 52, 75
1, 189486, Note_off_c, 0, 52, 61
1, 189507, Note_on_c, 0, 40, 86
1, 189512, Note_on_c, 0, 69, 83
1, 189539, Note_off_c, 0, 81, 0
1, 189555, Note_off_c, 0, 69, 63
1, 189616, Poly_aftertouch_c, 0, 81, 0
1, 189700, Note_on_c, 0, 73, 96
1, 189700, Note_on_c, 0, 85, 97
1, 189703, Note_on_c, 0, 75, 87
1, 189703, Control_c, 0, 64, 100
1, 189704, Note_on_c, 0, 45, 92
1, 189718, Control_c, 0, 64, 76
1, 189732, Control_c, 0, 64, 64
1, 189733, Note_off_c, 0, 40, 64
1, 189747, Control_c, 0, 64, 61
1, 189762, Control_c, 0, 64, 66
1, 189778, Control_c, 0, 64, 74
1, 189793, Control_c, 0, 64, 89
1, 189801, Note_off_c, 0, 85, 64
1, 189808, Control_c, 0, 64, 127
1, 189900, Note_off_c, 0, 73, 59
1, 189921, Note_on_c, 0, 79, 88
1, 189923, Note_on_c, 0, 51, 86
1, 189953, Note_off_c, 0, 75, 58
1, 190108, Note_off_c, 0, 51, 63
1, 190122, Note_off_c, 0, 45, 64
1, 190125, Note_on_c, 0, 67, 77
1, 190130, Note_off_c, 0, 79, 37
1, 190131, Note_on_c, 0, 39, 86
1, 190161, Note_off_c, 0, 39, 65
1, 190161, Note_off_c, 0, 67, 60
1, 190319, Poly_aftertouch_c, 0, 75, 127
1, 190367, Poly_aftertouch_c, 0, 75, 0
1, 190436, Note_on_c, 0, 75, 89
1, 190436, Note_on_c, 0, 85, 97
1, 190437, Note_on_c, 0, 73, 98
1, 190453, Control_c, 0, 64, 107
1, 190468, Control_c, 0, 64, 81
1, 190480, Note_on_c, 0, 44, 80
1, 190482, Control_c, 0, 64, 65
1, 190492, Note_on_c, 0, 32, 59
1, 190497, Control_c, 0, 64, 47
1, 190512, Control_c, 0, 64, 56
1, 190527, Control_c, 0, 64, 66
1, 190542, Control_c, 0, 64, 73
1, 190556, Control_c, 0, 64, 84
1, 190571, Control_c, 0, 64, 99
1, 190587, Control_c, 0, 64, 127
1, 190608, Note_off_c, 0, 85, 63
1, 190628, Note_off_c, 0, 32, 57
1, 190683, Note_off_c, 0, 44, 60
1, 190775, Note_off_c, 0, 73, 57
1, 190829, Note_on_c, 0, 80, 79
1, 190854, Note_on_c, 0, 51, 70
1, 190872, Note_off_c, 0, 75, 61
1, 191000, Note_off_c, 0, 80, 60
1, 191019, Note_on_c, 0, 68, 80
1, 191021, Note_on_c, 0, 39, 82
1, 191044, Note_off_c, 0, 51, 57
1, 191118, Note_off_c, 0, 68, 58
1, 191202, Note_on_c, 0, 75, 79
1, 191202, Note_on_c, 0, 44, 84
1, 191206, Note_on_c, 0, 73, 73
1, 191250, Note_off_c, 0, 73, 60
1, 191253, Note_off_c, 0, 75, 64
1, 191371, Note_off_c, 0, 39, 32
1, 191377, Note_on_c, 0, 84, 93
1, 191379, Note_on_c, 0, 80, 87
1, 191380, Note_on_c, 0, 72, 89
1, 191390, Note_on_c, 0, 51, 77
1, 191410, Note_off_c, 0, 72, 62
1, 191415, Note_off_c, 0, 80, 59
1, 191426, Note_off_c, 0, 84, 63
1, 191429, Note_off_c, 0, 44, 56
1, 191594, Note_off_c, 0, 51, 61
1, 191614, Note_on_c, 0, 39, 84
1, 191691, Note_on_c, 0, 80, 81
1, 191693, Note_on_c, 0, 68, 86
1, 191693, Note_on_c, 0, 73, 83
1, 191730, Note_off_c, 0, 68, 65
1, 191730, Note_off_c, 0, 73, 60
1, 191730, Note_off_c, 0, 80, 65
1, 191772, Control_c, 0, 64, 91
1, 191777, Note_on_c, 0, 80, 81
1, 191783, Note_on_c, 0, 44, 86
1, 191783, Note_on_c, 0, 68, 87
1, 191785, Note_on_c, 0, 75, 87
1, 191787, Control_c, 0, 64, 63
1, 191793, Note_on_c, 0, 73, 64
1, 191801, Control_c, 0, 64, 0
1, 191822, Note_off_c, 0, 73, 62
1, 191845, Control_c, 0, 64, 55
1, 191860, Control_c, 0, 64, 70
1, 191875, Control_c, 0, 64, 88
1, 191890, Control_c, 0, 64, 127
1, 191929, Note_off_c, 0, 68, 57
1, 191971, Note_off_c, 0, 80, 39
1, 191994, Note_off_c, 0, 39, 38
1, 192000, Note_on_c, 0, 72, 85
1, 192014, Note_on_c, 0, 51, 79
1, 192016, Note_off_c, 0, 75, 50
1, 192048, Note_off_c, 0, 44, 61
1, 192163, Note_off_c, 0, 51, 61
1, 192177, Note_on_c, 0, 39, 86
1, 192201, Note_off_c, 0, 72, 63
1, 192219, Note_on_c, 0, 68, 80
1, 192250, Note_off_c, 0, 68, 61
1, 192335, Note_on_c, 0, 44, 83
1, 192342, Note_on_c, 0, 61, 78
1, 192348, Note_on_c, 0, 63, 80
1, 192349, Note_on_c, 0, 68, 67
1, 192399, Note_off_c, 0, 68, 43
1, 192425, Note_off_c, 0, 61, 60
1, 192543, Note_on_c, 0, 51, 73
1, 192553, Note_off_c, 0, 39, 37
1, 192573, Note_on_c, 0, 60, 80
1, 192578, Note_off_c, 0, 63, 61
1, 192658, Note_off_c, 0, 51, 56
1, 192735, Note_off_c, 0, 44, 63
1, 192738, Note_on_c, 0, 39, 69
1, 192775, Note_off_c, 0, 39, 61
1, 192851, Note_on_c, 0, 56, 92
1, 192851, Note_off_c, 0, 60, 59
1, 192973, Note_off_c, 0, 56, 63
1, 193005, Note_on_c, 0, 44, 86
1, 193008, Note_on_c, 0, 32, 78
1, 193011, Control_c, 0, 64, 109
1, 193025, Control_c, 0, 64, 81
1, 193040, Control_c, 0, 64, 64
1, 193059, Note_on_c, 0, 56, 78
1, 193062, Control_c, 0, 64, 23
1, 193077, Control_c, 0, 64, 47
1, 193092, Control_c, 0, 64, 65
1, 193106, Control_c, 0, 64, 74
1, 193113, Note_off_c, 0, 32, 62
1, 193121, Control_c, 0, 64, 86
1, 193126, Note_off_c, 0, 56, 61
1, 193135, Note_on_c, 0, 68, 77
1, 193136, Control_c, 0, 64, 106
1, 193151, Control_c, 0, 64, 127
1, 193159, Note_off_c, 0, 44, 63
1, 193220, Note_on_c, 0, 60, 82
1, 193220, Note_off_c, 0, 68, 60
1, 193300, Note_on_c, 0, 63, 76
1, 193302, Note_off_c, 0, 60, 65
1, 193372, Note_on_c, 0, 51, 81
1, 193391, Note_off_c, 0, 63, 61
1, 193395, Note_on_c, 0, 68, 70
1, 193416, Note_off_c, 0, 68, 69
1, 193497, Note_on_c, 0, 68, 76
1, 193551, Note_on_c, 0, 39, 64
1, 193553, Note_off_c, 0, 68, 62
1, 193579, Note_on_c, 0, 80, 70
1, 193612, Note_off_c, 0, 80, 61
1, 193684, Note_on_c, 0, 80, 74
1, 193742, Note_off_c, 0, 80, 64
1, 193761, Note_on_c, 0, 92, 80
1, 193780, Note_off_c, 0, 92, 69
1, 193782, Note_on_c, 0, 44, 70
1, 193829, Note_off_c, 0, 51, 44
1, 193938, Note_off_c, 0, 39, 33
1, 194199, Note_on_c, 0, 63, 62
1, 194226, Note_on_c, 0, 51, 46
1, 194227, Note_off_c, 0, 44, 35
1, 194463, Note_on_c, 0, 58, 62
1, 194479, Note_on_c, 0, 39, 48
1, 194557, Note_off_c, 0, 51, 38
1, 194570, Note_off_c, 0, 63, 26
1, 194650, Control_c, 0, 64, 121
1, 194665, Control_c, 0, 64, 103
1, 194671, Note_on_c, 0, 60, 65
1, 194679, Control_c, 0, 64, 91
1, 194680, Note_on_c, 0, 44, 54
1, 194694, Control_c, 0, 64, 79
1, 194701, Note_off_c, 0, 58, 35
1, 194709, Control_c, 0, 64, 72
1, 194724, Control_c, 0, 64, 69
1, 194753, Control_c, 0, 64, 72
1, 194768, Control_c, 0, 64, 75
1, 194783, Control_c, 0, 64, 80
1, 194797, Control_c, 0, 64, 86
1, 194812, Control_c, 0, 64, 91
1, 194827, Control_c, 0, 64, 96
1, 194842, Control_c, 0, 64, 100
1, 194853, Note_off_c, 0, 44, 54
1, 194857, Control_c, 0, 64, 104
1, 194861, Note_off_c, 0, 60, 63
1, 194865, Note_on_c, 0, 63, 60
1, 194865, Note_off_c, 0, 39, 41
1, 194870, Control_c, 0, 64, 107
1, 194879, Note_on_c, 0, 51, 48
1, 194885, Control_c, 0, 64, 111
1, 194900, Note_off_c, 0, 63, 64
1, 194900, Control_c, 0, 64, 115
1, 194915, Control_c, 0, 64, 122
1, 194930, Control_c, 0, 64, 127
1, 195066, Note_on_c, 0, 39, 43
1, 195133, Note_on_c, 0, 70, 70
1, 195159, Note_on_c, 0, 58, 31
1, 195201, Note_off_c, 0, 58, 50
1, 195317, Note_off_c, 0, 51, 39
1, 195324, Note_on_c, 0, 44, 69
1, 195330, Note_on_c, 0, 72, 77
1, 195348, Note_on_c, 0, 60, 59
1, 195369, Note_off_c, 0, 70, 63
1, 195378, Note_off_c, 0, 60, 66
1, 195400, Note_off_c, 0, 72, 64
1, 195527, Note_on_c, 0, 75, 89
1, 195531, Note_on_c, 0, 51, 70
1, 195545, Note_on_c, 0, 63, 65
1, 195554, Note_off_c, 0, 39, 40
1, 195628, Note_off_c, 0, 63, 37
1, 195691, Note_off_c, 0, 51, 61
1, 195723, Note_on_c, 0, 70, 77
1, 195728, Note_on_c, 0, 39, 67
1, 195734, Note_off_c, 0, 44, 62
1, 195747, Note_off_c, 0, 75, 60
1, 195765, Note_off_c, 0, 39, 63
1, 195781, Note_off_c, 0, 70, 61
1, 195989, Control_c, 0, 64, 100
1, 195991, Note_on_c, 0, 72, 71
1, 195991, Note_on_c, 0, 80, 91
1, 195999, Note_on_c, 0, 68, 81
1, 196004, Control_c, 0, 64, 79
1, 196019, Control_c, 0, 64, 65
1, 196019, Note_on_c, 0, 44, 75
1, 196022, Note_on_c, 0, 32, 65
1, 196034, Control_c, 0, 64, 64
1, 196050, Note_off_c, 0, 72, 62
1, 196056, Control_c, 0, 64, 69
1, 196071, Control_c, 0, 64, 77
1, 196086, Control_c, 0, 64, 88
1, 196100, Control_c, 0, 64, 104
1, 196115, Control_c, 0, 64, 127
1, 196135, Note_off_c, 0, 68, 59
1, 196143, Note_off_c, 0, 32, 61
1, 196161, Note_off_c, 0, 44, 62
1, 196183, Note_off_c, 0, 80, 62
1, 196227, Note_on_c, 0, 77, 46
1, 196279, Note_off_c, 0, 77, 60
1, 196311, Note_on_c, 0, 75, 54
1, 196347, Note_off_c, 0, 75, 62
1, 196351, Note_on_c, 0, 51, 50
1, 196370, Note_on_c, 0, 77, 57
1, 196415, Note_off_c, 0, 77, 61
1, 196423, Note_on_c, 0, 75, 66
1, 196468, Note_off_c, 0, 75, 59
1, 196476, Note_on_c, 0, 77, 69
1, 196505, Note_on_c, 0, 39, 58
1, 196519, Note_off_c, 0, 51, 36
1, 196528, Note_off_c, 0, 77, 64
1, 196541, Note_on_c, 0, 75, 59
1, 196569, Note_off_c, 0, 75, 64
1, 196582, Note_on_c, 0, 77, 68
1, 196634, Note_off_c, 0, 77, 64
1, 196644, Note_on_c, 0, 75, 70
1, 196681, Note_off_c, 0, 75, 58
1, 196689, Note_on_c, 0, 77, 72
1, 196713, Note_off_c, 0, 39, 53
1, 196716, Note_on_c, 0, 44, 66
1, 196739, Note_on_c, 0, 75, 65
1, 196740, Note_off_c, 0, 77, 65
1, 196773, Note_off_c, 0, 75, 61
1, 196774, Note_on_c, 0, 77, 61
1, 196823, Note_on_c, 0, 75, 67
1, 196829, Note_off_c, 0, 77, 64
1, 196874, Note_off_c, 0, 75, 63
1, 196881, Note_on_c, 0, 77, 67
1, 196883, Note_off_c, 0, 44, 59
1, 196888, Note_on_c, 0, 51, 58
1, 196941, Note_on_c, 0, 75, 59
1, 196952, Note_off_c, 0, 77, 62
1, 197045, Note_off_c, 0, 75, 63
1, 197066, Note_on_c, 0, 39, 50
1, 197066, Note_off_c, 0, 51, 37
1, 197068, Note_on_c, 0, 74, 86
1, 197125, Note_off_c, 0, 74, 62
1, 197158, Note_on_c, 0, 75, 76
1, 197283, Note_off_c, 0, 75, 58
1, 197357, Note_on_c, 0, 80, 73
1, 197367, Note_on_c, 0, 44, 49
1, 197377, Note_on_c, 0, 68, 58
1, 197379, Note_on_c, 0, 72, 52
1, 197398, Control_c, 0, 64, 104
1, 197413, Control_c, 0, 64, 89
1, 197428, Control_c, 0, 64, 78
1, 197443, Control_c, 0, 64, 70
1, 197457, Control_c, 0, 64, 67
1, 197472, Control_c, 0, 64, 68
1, 197487, Control_c, 0, 64, 72
1, 197494, Note_off_c, 0, 68, 61
1, 197494, Note_off_c, 0, 72, 63
1, 197502, Note_off_c, 0, 80, 64
1, 197502, Control_c, 0, 64, 79
1, 197517, Control_c, 0, 64, 86
1, 197532, Control_c, 0, 64, 95
1, 197554, Control_c, 0, 64, 104
1, 197569, Control_c, 0, 64, 112
1, 197584, Control_c, 0, 64, 127
1, 197610, Note_on_c, 0, 65, 68
1, 197611, Note_on_c, 0, 77, 79
1, 197617, Note_on_c, 0, 75, 57
1, 197618, Note_on_c, 0, 51, 61
1, 197641, Note_off_c, 0, 44, 43
1, 197666, Note_off_c, 0, 65, 62
1, 197671, Note_off_c, 0, 39, 36
1, 197681, Note_off_c, 0, 75, 62
1, 197700, Note_off_c, 0, 77, 60
1, 197795, Note_on_c, 0, 79, 87
1, 197805, Note_on_c, 0, 70, 65
1, 197806, Note_on_c, 0, 67, 74
1, 197810, Note_on_c, 0, 39, 60
1, 197834, Note_off_c, 0, 70, 67
1, 197844, Note_off_c, 0, 67, 56
1, 197860, Note_off_c, 0, 51, 37
1, 197872, Note_off_c, 0, 79, 62
1, 197984, Note_on_c, 0, 80, 91
1, 197990, Note_on_c, 0, 44, 76
1, 197995, Note_on_c, 0, 72, 66
1, 197996, Note_on_c, 0, 68, 78
1, 197999, Control_c, 0, 64, 98
1, 198013, Control_c, 0, 64, 83
1, 198028, Control_c, 0, 64, 74
1, 198043, Control_c, 0, 64, 71
1, 198057, Note_off_c, 0, 72, 62
1, 198058, Control_c, 0, 64, 73
1, 198073, Control_c, 0, 64, 79
1, 198087, Control_c, 0, 64, 86
1, 198090, Note_off_c, 0, 68, 62
1, 198090, Note_off_c, 0, 80, 64
1, 198102, Control_c, 0, 64, 95
1, 198117, Control_c, 0, 64, 106
1, 198132, Control_c, 0, 64, 115
1, 198147, Control_c, 0, 64, 127
1, 198177, Note_on_c, 0, 51, 77
1, 198179, Note_off_c, 0, 39, 45
1, 198180, Note_on_c, 0, 75, 79
1, 198180, Note_on_c, 0, 77, 86
1, 198183, Note_on_c, 0, 65, 81
1, 198236, Note_off_c, 0, 65, 61
1, 198249, Note_off_c, 0, 75, 63
1, 198263, Note_off_c, 0, 77, 62
1, 198329, Note_off_c, 0, 51, 57
1, 198365, Note_on_c, 0, 79, 90
1, 198374, Note_on_c, 0, 67, 79
1, 198377, Note_on_c, 0, 39, 68
1, 198379, Note_off_c, 0, 44, 62
1, 198383, Note_on_c, 0, 70, 67
1, 198411, Note_off_c, 0, 70, 66
1, 198413, Note_off_c, 0, 39, 63
1, 198424, Note_off_c, 0, 67, 59
1, 198444, Note_off_c, 0, 79, 62
1, 198585, Note_on_c, 0, 80, 82
1, 198597, Note_on_c, 0, 72, 64
1, 198600, Control_c, 0, 64, 111
1, 198603, Note_on_c, 0, 68, 73
1, 198603, Note_on_c, 0, 44, 66
1, 198609, Note_on_c, 0, 32, 57
1, 198615, Control_c, 0, 64, 91
1, 198630, Control_c, 0, 64, 77
1, 198644, Control_c, 0, 64, 68
1, 198659, Control_c, 0, 64, 66
1, 198673, Note_off_c, 0, 32, 61
1, 198674, Note_off_c, 0, 44, 62
1, 198674, Control_c, 0, 64, 68
1, 198675, Note_off_c, 0, 72, 61
1, 198689, Control_c, 0, 64, 74
1, 198704, Control_c, 0, 64, 81
1, 198718, Control_c, 0, 64, 90
1, 198733, Control_c, 0, 64, 101
1, 198748, Control_c, 0, 64, 122
1, 198763, Control_c, 0, 64, 127
1, 198782, Note_on_c, 0, 75, 72
1, 198803, Note_on_c, 0, 51, 73
1, 198824, Note_off_c, 0, 80, 57
1, 198833, Note_off_c, 0, 68, 61
1, 198879, Note_off_c, 0, 75, 60
1, 198965, Note_on_c, 0, 39, 79
1, 198965, Note_on_c, 0, 79, 95
1, 198973, Note_on_c, 0, 67, 84
1, 198976, Note_on_c, 0, 70, 74
1, 199019, Note_off_c, 0, 51, 56
1, 199021, Note_off_c, 0, 67, 61
1, 199053, Note_off_c, 0, 79, 64
1, 199058, Note_off_c, 0, 70, 59
1, 199165, Note_on_c, 0, 44, 84
1, 199169, Note_on_c, 0, 80, 92
1, 199175, Note_on_c, 0, 71, 71
1, 199175, Note_on_c, 0, 68, 78
1, 199187, Note_on_c, 0, 72, 64
1, 199205, Note_off_c, 0, 72, 63
1, 199219, Note_off_c, 0, 71, 60
1, 199304, Note_off_c, 0, 68, 54
1, 199327, Note_off_c, 0, 39, 50
1, 199349, Note_on_c, 0, 51, 84
1, 199352, Note_on_c, 0, 78, 69
1, 199362, Note_off_c, 0, 80, 55
1, 199386, Note_off_c, 0, 78, 55
1, 199515, Note_off_c, 0, 51, 62
1, 199533, Note_on_c, 0, 70, 92
1, 199533, Note_on_c, 0, 82, 84
1, 199537, Note_on_c, 0, 39, 81
1, 199539, Note_on_c, 0, 76, 69
1, 199546, Note_off_c, 0, 44, 63
1, 199548, Note_on_c, 0, 81, 86
1, 199549, Note_on_c, 0, 80, 75
1, 199560, Note_off_c, 0, 82, 50
1, 199573, Note_off_c, 0, 39, 61
1, 199593, Note_off_c, 0, 76, 60
1, 199603, Note_off_c, 0, 80, 55
1, 199628, Note_off_c, 0, 81, 57
1, 199666, Note_off_c, 0, 70, 48
1, 199754, Note_on_c, 0, 75, 82
1, 199757, Note_on_c, 0, 83, 100
1, 199760, Note_on_c, 0, 71, 99
1, 199773, Note_on_c, 0, 44, 88
1, 199778, Control_c, 0, 64, 101
1, 199781, Note_on_c, 0, 32, 76
1, 199800, Control_c, 0, 64, 78
1, 199815, Control_c, 0, 64, 65
1, 199830, Control_c, 0, 64, 54
1, 199845, Control_c, 0, 64, 58
1, 199860, Control_c, 0, 64, 66
1, 199864, Note_off_c, 0, 32, 62
1, 199874, Control_c, 0, 64, 74
1, 199889, Control_c, 0, 64, 86
1, 199891, Note_off_c, 0, 44, 63
1, 199904, Control_c, 0, 64, 103
1, 199919, Control_c, 0, 64, 127
1, 199959, Note_off_c, 0, 71, 60
1, 200004, Note_on_c, 0, 78, 80
1, 200013, Note_on_c, 0, 51, 78
1, 200025, Note_off_c, 0, 83, 59
1, 200028, Note_off_c, 0, 75, 49
1, 200178, Note_on_c, 0, 68, 83
1, 200178, Note_off_c, 0, 78, 58
1, 200183, Note_on_c, 0, 39, 81
1, 200210, Note_off_c, 0, 51, 54
1, 200241, Note_off_c, 0, 68, 62
1, 200365, Note_on_c, 0, 44, 88
1, 200375, Note_on_c, 0, 83, 99
1, 200377, Note_on_c, 0, 71, 103
1, 200380, Note_on_c, 0, 73, 89
1, 200380, Control_c, 0, 64, 86
1, 200395, Control_c, 0, 64, 59
1, 200409, Control_c, 0, 64, 0
1, 200454, Control_c, 0, 64, 61
1, 200469, Control_c, 0, 64, 70
1, 200483, Control_c, 0, 64, 81
1, 200498, Control_c, 0, 64, 100
1, 200505, Note_off_c, 0, 39, 56
1, 200513, Control_c, 0, 64, 127
1, 200553, Note_off_c, 0, 73, 60
1, 200585, Note_on_c, 0, 49, 85
1, 200593, Note_on_c, 0, 77, 89
1, 200594, Note_off_c, 0, 71, 63
1, 200620, Note_off_c, 0, 83, 63
1, 200767, Note_off_c, 0, 49, 59
1, 200803, Note_off_c, 0, 44, 63
1, 200805, Note_on_c, 0, 37, 83
1, 200807, Note_on_c, 0, 68, 91
1, 200848, Note_off_c, 0, 37, 64
1, 200914, Note_off_c, 0, 68, 61
1, 201077, Note_off_c, 0, 77, 52
1, 201140, Note_on_c, 0, 71, 104
1, 201140, Note_on_c, 0, 83, 103
1, 201140, Note_on_c, 0, 73, 96
1, 201143, Control_c, 0, 64, 123
1, 201158, Control_c, 0, 64, 77
1, 201166, Note_on_c, 0, 42, 81
1, 201172, Note_on_c, 0, 30, 73
1, 201173, Control_c, 0, 64, 0
1, 201232, Control_c, 0, 64, 63
1, 201247, Control_c, 0, 64, 74
1, 201262, Control_c, 0, 64, 89
1, 201277, Control_c, 0, 64, 127
1, 201311, Note_off_c, 0, 30, 59
1, 201351, Note_off_c, 0, 83, 59
1, 201363, Note_off_c, 0, 42, 61
1, 201489, Note_off_c, 0, 71, 57
1, 201551, Note_on_c, 0, 78, 85
1, 201557, Note_on_c, 0, 49, 70
1, 201587, Note_off_c, 0, 73, 61
1, 201727, Note_off_c, 0, 78, 63
1, 201735, Note_on_c, 0, 37, 78
1, 201745, Note_on_c, 0, 66, 81
1, 201769, Note_off_c, 0, 49, 52
1, 201868, Note_off_c, 0, 66, 56
1, 201915, Note_on_c, 0, 42, 81
1, 201925, Note_on_c, 0, 73, 82
1, 201927, Note_on_c, 0, 71, 63
1, 201953, Note_off_c, 0, 71, 69
1, 201954, Note_off_c, 0, 37, 55
1, 201972, Note_off_c, 0, 73, 64
1, 202082, Note_on_c, 0, 82, 95
1, 202086, Note_on_c, 0, 70, 90
1, 202089, Note_on_c, 0, 49, 80
1, 202091, Note_on_c, 0, 78, 75
1, 202113, Note_off_c, 0, 78, 68
1, 202118, Note_off_c, 0, 42, 55
1, 202133, Note_off_c, 0, 70, 63
1, 202134, Note_off_c, 0, 82, 65
1, 202270, Note_off_c, 0, 49, 59
1, 202289, Note_on_c, 0, 37, 84
1, 202365, Note_on_c, 0, 71, 70
1, 202365, Note_on_c, 0, 78, 77
1, 202368, Note_on_c, 0, 66, 82
1, 202403, Note_off_c, 0, 66, 60
1, 202407, Note_off_c, 0, 78, 62
1, 202408, Note_off_c, 0, 71, 64
1, 202443, Note_on_c, 0, 78, 72
1, 202446, Note_on_c, 0, 42, 84
1, 202447, Control_c, 0, 64, 84
1, 202448, Note_on_c, 0, 66, 77
1, 202450, Note_on_c, 0, 71, 68
1, 202451, Note_on_c, 0, 73, 84
1, 202461, Control_c, 0, 64, 65
1, 202476, Control_c, 0, 64, 0
1, 202491, Control_c, 0, 64, 30
1, 202505, Control_c, 0, 64, 63
1, 202520, Control_c, 0, 64, 74
1, 202534, Note_off_c, 0, 71, 59
1, 202535, Control_c, 0, 64, 89
1, 202550, Control_c, 0, 64, 127
1, 202585, Note_off_c, 0, 78, 60
1, 202637, Note_off_c, 0, 37, 36
1, 202670, Note_off_c, 0, 66, 57
1, 202698, Note_on_c, 0, 49, 73
1, 202699, Note_on_c, 0, 70, 85
1, 202710, Note_off_c, 0, 42, 57
1, 202744, Note_off_c, 0, 73, 57
1, 202848, Note_off_c, 0, 49, 61
1, 202872, Note_on_c, 0, 37, 88
1, 202895, Note_off_c, 0, 70, 63
1, 202912, Note_on_c, 0, 66, 82
1, 202934, Note_off_c, 0, 66, 68
1, 203016, Note_on_c, 0, 59, 84
1, 203017, Note_on_c, 0, 42, 82
1, 203021, Note_on_c, 0, 66, 73
1, 203024, Note_on_c, 0, 61, 79
1, 203113, Note_off_c, 0, 66, 61
1, 203125, Note_off_c, 0, 37, 39
1, 203167, Note_off_c, 0, 61, 55
1, 203295, Note_on_c, 0, 58, 96
1, 203299, Note_off_c, 0, 59, 61
1, 203304, Note_on_c, 0, 49, 70
1, 203343, Note_off_c, 0, 58, 64
1, 203438, Note_off_c, 0, 49, 57
1, 203496, Note_on_c, 0, 37, 68
1, 203498, Note_off_c, 0, 42, 62
1, 203554, Note_off_c, 0, 37, 62
1, 203652, Note_on_c, 0, 54, 94
1, 203795, Note_off_c, 0, 54, 59
1, 203816, Note_on_c, 0, 42, 78
1, 203819, Note_on_c, 0, 30, 75
1, 203856, Control_c, 0, 64, 89
1, 203871, Control_c, 0, 64, 71
1, 203886, Note_on_c, 0, 54, 84
1, 203886, Control_c, 0, 64, 55
1, 203900, Control_c, 0, 64, 42
1, 203911, Note_off_c, 0, 30, 62
1, 203915, Control_c, 0, 64, 60
1, 203930, Control_c, 0, 64, 68
1, 203945, Control_c, 0, 64, 75
1, 203960, Control_c, 0, 64, 85
1, 203962, Note_off_c, 0, 54, 61
1, 203963, Note_off_c, 0, 42, 63
1, 203975, Control_c, 0, 64, 98
1, 203978, Note_on_c, 0, 66, 73
1, 203990, Control_c, 0, 64, 120
1, 204005, Control_c, 0, 64, 127
1, 204052, Note_off_c, 0, 66, 60
1, 204055, Note_on_c, 0, 58, 77
1, 204128, Note_on_c, 0, 61, 79
1, 204130, Note_off_c, 0, 58, 61
1, 204209, Note_on_c, 0, 49, 73
1, 204219, Note_off_c, 0, 61, 62
1, 204227, Note_on_c, 0, 66, 66
1, 204253, Note_off_c, 0, 66, 65
1, 204332, Note_on_c, 0, 66, 71
1, 204374, Note_on_c, 0, 37, 59
1, 204397, Note_off_c, 0, 66, 60
1, 204436, Note_on_c, 0, 78, 65
1, 204467, Note_off_c, 0, 78, 63
1, 204543, Note_on_c, 0, 78, 68
1, 204595, Note_off_c, 0, 49, 26
1, 204614, Note_off_c, 0, 78, 62
1, 204628, Note_on_c, 0, 90, 83
1, 204648, Note_on_c, 0, 42, 60
1, 204656, Note_off_c, 0, 90, 64
1, 204741, Note_off_c, 0, 37, 37
1, 205113, Note_on_c, 0, 49, 34
1, 205152, Note_on_c, 0, 61, 59
1, 205169, Note_off_c, 0, 42, 32
1, 205465, Note_off_c, 0, 61, 61
1, 205474, Note_off_c, 0, 49, 34
1, 205502, Note_on_c, 0, 37, 34
1, 205531, Note_on_c, 0, 56, 63
1, 205709, Control_c, 0, 64, 117
1, 205723, Control_c, 0, 64, 113
1, 205726, Note_off_c, 0, 56, 49
1, 205738, Control_c, 0, 64, 110
1, 205754, Control_c, 0, 64, 108
1, 205776, Control_c, 0, 64, 105
1, 205791, Control_c, 0, 64, 102
1, 205799, Note_on_c, 0, 42, 42
1, 205806, Control_c, 0, 64, 99
1, 205816, Note_on_c, 0, 57, 57
1, 205821, Control_c, 0, 64, 96
1, 205835, Control_c, 0, 64, 93
1, 205850, Control_c, 0, 64, 90
1, 205865, Control_c, 0, 64, 86
1, 205880, Control_c, 0, 64, 82
1, 205895, Control_c, 0, 64, 76
1, 205909, Control_c, 0, 64, 70
1, 205924, Control_c, 0, 64, 67
1, 205945, Note_off_c, 0, 37, 33
1, 205954, Control_c, 0, 64, 68
1, 205969, Control_c, 0, 64, 69
1, 205984, Control_c, 0, 64, 70
1, 205999, Control_c, 0, 64, 72
1, 206014, Control_c, 0, 64, 74
1, 206028, Control_c, 0, 64, 76
1, 206043, Control_c, 0, 64, 78
1, 206058, Control_c, 0, 64, 80
1, 206073, Control_c, 0, 64, 82
1, 206088, Control_c, 0, 64, 84
1, 206103, Control_c, 0, 64, 87
1, 206112, Note_off_c, 0, 57, 51
1, 206118, Control_c, 0, 64, 89
1, 206121, Note_on_c, 0, 61, 49
1, 206133, Control_c, 0, 64, 91
1, 206148, Control_c, 0, 64, 94
1, 206162, Control_c, 0, 64, 97
1, 206172, Note_off_c, 0, 42, 38
1, 206176, Note_on_c, 0, 49, 27
1, 206177, Control_c, 0, 64, 101
1, 206192, Control_c, 0, 64, 105
1, 206207, Control_c, 0, 64, 108
1, 206222, Control_c, 0, 64, 111
1, 206236, Control_c, 0, 64, 115
1, 206251, Control_c, 0, 64, 119
1, 206266, Control_c, 0, 64, 121
1, 206281, Control_c, 0, 64, 123
1, 206296, Control_c, 0, 64, 124
1, 206325, Control_c, 0, 64, 126
1, 206327, Note_on_c, 0, 66, 67
1, 206355, Note_on_c, 0, 56, 44
1, 206369, Note_on_c, 0, 37, 35
1, 206377, Note_off_c, 0, 49, 31
1, 206428, Control_c, 0, 64, 124
1, 206482, Note_off_c, 0, 56, 47
1, 206503, Note_off_c, 0, 61, 37
1, 206517, Control_c, 0, 64, 123
1, 206540, Control_c, 0, 64, 120
1, 206556, Control_c, 0, 64, 116
1, 206562, Note_on_c, 0, 64, 75
1, 206571, Control_c, 0, 64, 114
1, 206585, Control_c, 0, 64, 112
1, 206600, Note_on_c, 0, 42, 42
1, 206600, Control_c, 0, 64, 108
1, 206606, Note_on_c, 0, 57, 36
1, 206615, Control_c, 0, 64, 104
1, 206630, Control_c, 0, 64, 99
1, 206645, Control_c, 0, 64, 94
1, 206659, Control_c, 0, 64, 89
1, 206671, Note_off_c, 0, 66, 52
1, 206674, Control_c, 0, 64, 82
1, 206689, Control_c, 0, 64, 77
1, 206697, Note_off_c, 0, 37, 38
1, 206704, Control_c, 0, 64, 73
1, 206719, Control_c, 0, 64, 71
1, 206723, Note_off_c, 0, 57, 35
1, 206733, Control_c, 0, 64, 73
1, 206748, Control_c, 0, 64, 75
1, 206763, Control_c, 0, 64, 78
1, 206773, Note_on_c, 0, 61, 62
1, 206777, Control_c, 0, 64, 80
1, 206792, Control_c, 0, 64, 82
1, 206800, Note_on_c, 0, 49, 47
1, 206807, Control_c, 0, 64, 85
1, 206810, Note_off_c, 0, 42, 43
1, 206822, Control_c, 0, 64, 88
1, 206837, Control_c, 0, 64, 92
1, 206851, Control_c, 0, 64, 94
1, 206866, Control_c, 0, 64, 96
1, 206881, Control_c, 0, 64, 99
1, 206896, Control_c, 0, 64, 101
1, 206911, Control_c, 0, 64, 103
1, 206926, Control_c, 0, 64, 104
1, 206941, Control_c, 0, 64, 105
1, 206956, Control_c, 0, 64, 106
1, 206971, Control_c, 0, 64, 107
1, 206971, Note_on_c, 0, 66, 73
1, 206972, Note_on_c, 0, 37, 44
1, 206985, Note_on_c, 0, 56, 48
1, 206985, Control_c, 0, 64, 108
1, 207000, Control_c, 0, 64, 108
1, 207015, Control_c, 0, 64, 109
1, 207030, Control_c, 0, 64, 110
1, 207134, Note_off_c, 0, 56, 34
1, 207136, Note_off_c, 0, 49, 23
1, 207222, Control_c, 0, 64, 109
1, 207230, Note_on_c, 0, 42, 45
1, 207237, Control_c, 0, 64, 108
1, 207251, Control_c, 0, 64, 107
1, 207266, Control_c, 0, 64, 106
1, 207289, Control_c, 0, 64, 104
1, 207303, Control_c, 0, 64, 103
1, 207304, Note_on_c, 0, 62, 71
1, 207318, Control_c, 0, 64, 103
1, 207333, Control_c, 0, 64, 101
1, 207348, Note_on_c, 0, 57, 47
1, 207349, Control_c, 0, 64, 99
1, 207364, Control_c, 0, 64, 96
1, 207365, Note_off_c, 0, 61, 36
1, 207379, Control_c, 0, 64, 90
1, 207394, Control_c, 0, 64, 84
1, 207408, Control_c, 0, 64, 79
1, 207423, Control_c, 0, 64, 75
1, 207438, Control_c, 0, 64, 73
1, 207468, Control_c, 0, 64, 74
1, 207477, Note_off_c, 0, 57, 36
1, 207482, Control_c, 0, 64, 75
1, 207497, Control_c, 0, 64, 78
1, 207501, Note_off_c, 0, 66, 24
1, 207512, Control_c, 0, 64, 81
1, 207526, Control_c, 0, 64, 84
1, 207528, Note_on_c, 0, 60, 62
1, 207538, Note_off_c, 0, 37, 41
1, 207541, Control_c, 0, 64, 86
1, 207548, Note_on_c, 0, 49, 49
1, 207556, Control_c, 0, 64, 88
1, 207571, Control_c, 0, 64, 91
1, 207577, Note_off_c, 0, 42, 37
1, 207586, Control_c, 0, 64, 94
1, 207599, Control_c, 0, 64, 99
1, 207614, Control_c, 0, 64, 106
1, 207629, Control_c, 0, 64, 117
1, 207644, Control_c, 0, 64, 127
1, 207651, Note_off_c, 0, 64, 0
1, 207688, Poly_aftertouch_c, 0, 64, 127
1, 207696, Note_on_c, 0, 56, 65
1, 207716, Note_on_c, 0, 37, 61
1, 207747, Control_c, 0, 64, 110
1, 207762, Control_c, 0, 64, 99
1, 207777, Control_c, 0, 64, 88
1, 207792, Control_c, 0, 64, 80
1, 207806, Control_c, 0, 64, 74
1, 207811, Note_off_c, 0, 56, 40
1, 207814, Note_off_c, 0, 49, 31
1, 207821, Control_c, 0, 64, 73
1, 207826, Poly_aftertouch_c, 0, 64, 0
1, 207836, Control_c, 0, 64, 76
1, 207851, Control_c, 0, 64, 82
1, 207866, Control_c, 0, 64, 89
1, 207872, Note_on_c, 0, 42, 63
1, 207880, Control_c, 0, 64, 96
1, 207883, Note_on_c, 0, 57, 63
1, 207895, Control_c, 0, 64, 104
1, 207910, Control_c, 0, 64, 118
1, 207924, Control_c, 0, 64, 127
1, 207944, Note_off_c, 0, 60, 29
1, 208067, Note_on_c, 0, 69, 71
1, 208075, Note_off_c, 0, 57, 61
1, 208078, Note_off_c, 0, 42, 59
1, 208088, Note_on_c, 0, 49, 56
1, 208119, Note_off_c, 0, 69, 61
1, 208174, Note_off_c, 0, 37, 37
1, 208217, Note_off_c, 0, 49, 48
1, 208220, Note_off_c, 0, 62, 57
1, 208254, Note_on_c, 0, 54, 69
1, 208267, Note_on_c, 0, 37, 65
1, 208353, Note_off_c, 0, 54, 56
1, 208437, Control_c, 0, 64, 102
1, 208450, Note_on_c, 0, 44, 73
1, 208450, Note_on_c, 0, 61, 76
1, 208452, Control_c, 0, 64, 86
1, 208467, Control_c, 0, 64, 74
1, 208471, Note_on_c, 0, 53, 49
1, 208481, Note_off_c, 0, 37, 59
1, 208482, Control_c, 0, 64, 65
1, 208496, Control_c, 0, 64, 64
1, 208503, Note_off_c, 0, 53, 64
1, 208511, Control_c, 0, 64, 67
1, 208526, Control_c, 0, 64, 71
1, 208540, Control_c, 0, 64, 76
1, 208555, Control_c, 0, 64, 81
1, 208570, Control_c, 0, 64, 89
1, 208585, Control_c, 0, 64, 98
1, 208600, Control_c, 0, 64, 110
1, 208614, Control_c, 0, 64, 127
1, 208630, Note_on_c, 0, 53, 68
1, 208632, Note_on_c, 0, 56, 61
1, 208652, Note_off_c, 0, 61, 61
1, 208660, Note_off_c, 0, 56, 65
1, 208690, Note_off_c, 0, 53, 55
1, 208859, Note_on_c, 0, 37, 74
1, 208862, Note_off_c, 0, 44, 61
1, 208902, Note_on_c, 0, 73, 90
1, 208917, Note_on_c, 0, 61, 70
1, 208975, Note_off_c, 0, 61, 57
1, 209025, Note_off_c, 0, 73, 59
1, 209103, Note_on_c, 0, 42, 77
1, 209112, Control_c, 0, 64, 109
1, 209117, Note_on_c, 0, 76, 93
1, 209126, Control_c, 0, 64, 84
1, 209134, Note_on_c, 0, 64, 72
1, 209141, Note_on_c, 0, 69, 59
1, 209141, Control_c, 0, 64, 65
1, 209156, Control_c, 0, 64, 21
1, 209170, Control_c, 0, 64, 0
1, 209185, Control_c, 0, 64, 32
1, 209200, Control_c, 0, 64, 57
1, 209208, Note_off_c, 0, 37, 60
1, 209215, Control_c, 0, 64, 64
1, 209230, Control_c, 0, 64, 70
1, 209245, Control_c, 0, 64, 79
1, 209260, Control_c, 0, 64, 90
1, 209275, Control_c, 0, 64, 110
1, 209279, Note_off_c, 0, 69, 53
1, 209289, Control_c, 0, 64, 127
1, 209305, Note_on_c, 0, 73, 87
1, 209313, Note_off_c, 0, 64, 62
1, 209322, Note_on_c, 0, 54, 79
1, 209334, Note_off_c, 0, 76, 63
1, 209391, Note_off_c, 0, 54, 63
1, 209445, Note_off_c, 0, 73, 61
1, 209506, Note_on_c, 0, 78, 100
1, 209526, Note_on_c, 0, 37, 75
1, 209526, Note_on_c, 0, 66, 83
1, 209526, Note_off_c, 0, 42, 62
1, 209540, Note_on_c, 0, 69, 56
1, 209591, Note_off_c, 0, 69, 43
1, 209615, Note_off_c, 0, 66, 59
1, 209625, Note_off_c, 0, 78, 59
1, 209808, Note_on_c, 0, 42, 78
1, 209820, Note_on_c, 0, 74, 98
1, 209837, Note_on_c, 0, 62, 79
1, 209853, Note_on_c, 0, 69, 44
1, 209876, Control_c, 0, 64, 96
1, 209891, Control_c, 0, 64, 67
1, 209906, Control_c, 0, 64, 0
1, 209916, Note_off_c, 0, 69, 0
1, 209932, Note_off_c, 0, 37, 49
1, 209953, Poly_aftertouch_c, 0, 69, 127
1, 209965, Control_c, 0, 64, 29
1, 209980, Control_c, 0, 64, 54
1, 209994, Control_c, 0, 64, 68
1, 210009, Control_c, 0, 64, 78
1, 210024, Control_c, 0, 64, 94
1, 210039, Control_c, 0, 64, 127
1, 210082, Poly_aftertouch_c, 0, 69, 0
1, 210146, Note_on_c, 0, 54, 67
1, 210148, Note_on_c, 0, 72, 69
1, 210220, Note_off_c, 0, 54, 64
1, 210343, Note_on_c, 0, 68, 76
1, 210348, Note_on_c, 0, 37, 73
1, 210359, Note_off_c, 0, 42, 58
1, 210524, Note_on_c, 0, 69, 82
1, 210537, Note_on_c, 0, 42, 79
1, 210560, Note_off_c, 0, 74, 59
1, 210565, Note_off_c, 0, 72, 58
1, 210604, Note_off_c, 0, 37, 58
1, 210712, Note_on_c, 0, 72, 85
1, 210715, Note_off_c, 0, 68, 17
1, 210723, Note_on_c, 0, 54, 71
1, 210737, Note_off_c, 0, 69, 64
1, 210765, Note_off_c, 0, 62, 59
1, 210807, Note_off_c, 0, 54, 62
1, 210883, Note_on_c, 0, 66, 85
1, 210902, Note_off_c, 0, 72, 59
1, 210908, Note_on_c, 0, 37, 74
1, 210931, Note_off_c, 0, 42, 55
1, 211068, Note_on_c, 0, 42, 81
1, 211081, Note_off_c, 0, 66, 60
1, 211105, Note_on_c, 0, 60, 81
1, 211176, Note_off_c, 0, 37, 37
1, 211227, Note_on_c, 0, 62, 77
1, 211232, Note_off_c, 0, 60, 61
1, 211296, Note_off_c, 0, 62, 62
1, 211324, Note_on_c, 0, 69, 76
1, 211337, Note_on_c, 0, 54, 73
1, 211365, Note_off_c, 0, 69, 62
1, 211401, Note_off_c, 0, 54, 61
1, 211428, Note_on_c, 0, 72, 82
1, 211509, Note_off_c, 0, 72, 60
1, 211511, Note_on_c, 0, 74, 87
1, 211555, Note_off_c, 0, 42, 61
1, 211555, Note_on_c, 0, 37, 71
1, 211576, Note_off_c, 0, 74, 62
1, 211592, Note_on_c, 0, 81, 78
1, 211627, Note_off_c, 0, 81, 62
1, 211682, Note_on_c, 0, 81, 82
1, 211776, Note_off_c, 0, 37, 59
1, 211786, Note_on_c, 0, 42, 69
1, 211844, Note_on_c, 0, 93, 91
1, 211857, Note_off_c, 0, 81, 64
1, 211890, Note_off_c, 0, 93, 67
1, 211984, Note_off_c, 0, 42, 61
1, 212123, Note_on_c, 0, 57, 68
1, 212156, Note_off_c, 0, 57, 61
1, 212636, Note_on_c, 0, 37, 56
1, 212658, Note_on_c, 0, 72, 78
1, 212672, Note_on_c, 0, 66, 60
1, 212682, Note_on_c, 0, 60, 60
1, 212792, Note_off_c, 0, 66, 37
1, 212843, Note_off_c, 0, 72, 57
1, 212843, Note_off_c, 0, 60, 46
1, 213096, Note_on_c, 0, 73, 77
1, 213120, Note_on_c, 0, 65, 48
1, 213136, Note_on_c, 0, 44, 47
1, 213138, Note_on_c, 0, 61, 41
1, 213138, Note_off_c, 0, 37, 36
1, 213183, Control_c, 0, 64, 118
1, 213198, Control_c, 0, 64, 110
1, 213212, Control_c, 0, 64, 104
1, 213227, Control_c, 0, 64, 98
1, 213242, Control_c, 0, 64, 94
1, 213264, Control_c, 0, 64, 90
1, 213279, Control_c, 0, 64, 86
1, 213293, Control_c, 0, 64, 80
1, 213308, Control_c, 0, 64, 75
1, 213323, Control_c, 0, 64, 68
1, 213338, Control_c, 0, 64, 64
1, 213353, Control_c, 0, 64, 63
1, 213427, Control_c, 0, 64, 63
1, 213442, Control_c, 0, 64, 65
1, 213457, Control_c, 0, 64, 66
1, 213471, Control_c, 0, 64, 68
1, 213486, Control_c, 0, 64, 71
1, 213501, Control_c, 0, 64, 73
1, 213516, Control_c, 0, 64, 77
1, 213531, Control_c, 0, 64, 79
1, 213538, Note_on_c, 0, 68, 60
1, 213540, Note_on_c, 0, 53, 47
1, 213545, Control_c, 0, 64, 82
1, 213560, Control_c, 0, 64, 85
1, 213575, Control_c, 0, 64, 87
1, 213590, Control_c, 0, 64, 90
1, 213595, Note_off_c, 0, 53, 60
1, 213605, Control_c, 0, 64, 93
1, 213613, Note_off_c, 0, 65, 38
1, 213619, Control_c, 0, 64, 97
1, 213626, Note_off_c, 0, 61, 41
1, 213634, Control_c, 0, 64, 101
1, 213649, Control_c, 0, 64, 104
1, 213663, Control_c, 0, 64, 108
1, 213678, Control_c, 0, 64, 111
1, 213693, Control_c, 0, 64, 118
1, 213708, Control_c, 0, 64, 127
1, 213722, Note_off_c, 0, 73, 46
1, 213738, Note_off_c, 0, 44, 42
1, 213769, Note_on_c, 0, 61, 55
1, 213773, Note_on_c, 0, 37, 57
1, 213901, Note_off_c, 0, 61, 38
1, 213902, Control_c, 0, 67, 8
1, 213916, Control_c, 0, 67, 8
1, 213926, Note_off_c, 0, 68, 52
1, 213931, Control_c, 0, 67, 9
1, 213961, Control_c, 0, 67, 9
1, 213997, Note_on_c, 0, 44, 59
1, 214028, Control_c, 0, 67, 10
1, 214042, Control_c, 0, 64, 120
1, 214050, Note_on_c, 0, 73, 81
1, 214057, Control_c, 0, 64, 113
1, 214072, Note_on_c, 0, 64, 65
1, 214072, Control_c, 0, 64, 107
1, 214086, Note_off_c, 0, 37, 32
1, 214086, Control_c, 0, 64, 101
1, 214101, Control_c, 0, 64, 97
1, 214116, Control_c, 0, 64, 93
1, 214116, Control_c, 0, 67, 10
1, 214131, Control_c, 0, 64, 91
1, 214146, Control_c, 0, 64, 88
1, 214160, Control_c, 0, 64, 85
1, 214175, Control_c, 0, 64, 83
1, 214190, Control_c, 0, 64, 81
1, 214205, Control_c, 0, 64, 80
1, 214220, Control_c, 0, 64, 78
1, 214220, Control_c, 0, 67, 11
1, 214235, Control_c, 0, 64, 75
1, 214250, Control_c, 0, 64, 70
1, 214265, Control_c, 0, 64, 65
1, 214280, Control_c, 0, 64, 62
1, 214308, Note_on_c, 0, 68, 59
1, 214309, Control_c, 0, 64, 63
1, 214312, Note_on_c, 0, 52, 57
1, 214324, Control_c, 0, 64, 64
1, 214339, Control_c, 0, 64, 65
1, 214354, Control_c, 0, 64, 67
1, 214368, Control_c, 0, 64, 70
1, 214383, Control_c, 0, 64, 73
1, 214398, Control_c, 0, 64, 75
1, 214398, Control_c, 0, 67, 11
1, 214413, Control_c, 0, 64, 77
1, 214426, Note_off_c, 0, 52, 36
1, 214428, Control_c, 0, 64, 79
1, 214442, Control_c, 0, 64, 80
1, 214457, Control_c, 0, 64, 82
1, 214472, Control_c, 0, 64, 85
1, 214486, Control_c, 0, 64, 88
1, 214486, Control_c, 0, 67, 12
1, 214501, Control_c, 0, 64, 92
1, 214516, Control_c, 0, 64, 95
1, 214516, Control_c, 0, 67, 12
1, 214521, Note_on_c, 0, 37, 61
1, 214521, Note_on_c, 0, 61, 60
1, 214531, Control_c, 0, 64, 98
1, 214531, Control_c, 0, 67, 13
1, 214545, Note_off_c, 0, 64, 20
1, 214547, Control_c, 0, 64, 100
1, 214547, Control_c, 0, 67, 15
1, 214562, Control_c, 0, 64, 103
1, 214562, Control_c, 0, 67, 16
1, 214567, Note_off_c, 0, 68, 53
1, 214573, Note_off_c, 0, 37, 60
1, 214577, Control_c, 0, 64, 105
1, 214577, Control_c, 0, 67, 17
1, 214581, Note_off_c, 0, 61, 57
1, 214591, Control_c, 0, 64, 107
1, 214591, Control_c, 0, 67, 19
1, 214606, Control_c, 0, 64, 109
1, 214606, Control_c, 0, 67, 19
1, 214621, Control_c, 0, 64, 110
1, 214621, Control_c, 0, 67, 20
1, 214636, Control_c, 0, 64, 111
1, 214680, Control_c, 0, 67, 20
1, 214754, Control_c, 0, 64, 110
1, 214777, Control_c, 0, 64, 108
1, 214791, Note_on_c, 0, 40, 62
1, 214791, Note_off_c, 0, 44, 42
1, 214791, Control_c, 0, 64, 103
1, 214799, Note_on_c, 0, 64, 50
1, 214806, Control_c, 0, 64, 97
1, 214821, Control_c, 0, 64, 89
1, 214836, Control_c, 0, 64, 80
1, 214836, Control_c, 0, 67, 21
1, 214851, Control_c, 0, 64, 71
1, 214865, Control_c, 0, 64, 66
1, 214880, Control_c, 0, 64, 66
1, 214895, Control_c, 0, 64, 66
1, 214910, Control_c, 0, 64, 67
1, 214915, Note_off_c, 0, 64, 60
1, 214924, Control_c, 0, 64, 68
1, 214924, Control_c, 0, 67, 21
1, 214939, Control_c, 0, 64, 69
1, 214954, Control_c, 0, 64, 70
1, 214954, Control_c, 0, 67, 22
1, 214969, Control_c, 0, 64, 72
1, 214969, Control_c, 0, 67, 23
1, 214984, Control_c, 0, 64, 74
1, 214984, Control_c, 0, 67, 25
1, 214998, Control_c, 0, 64, 75
1, 214998, Control_c, 0, 67, 26
1, 215013, Control_c, 0, 64, 77
1, 215013, Control_c, 0, 67, 27
1, 215028, Control_c, 0, 64, 79
1, 215028, Control_c, 0, 67, 28
1, 215043, Control_c, 0, 64, 81
1, 215043, Control_c, 0, 67, 28
1, 215046, Note_on_c, 0, 71, 66
1, 215048, Note_on_c, 0, 68, 51
1, 215055, Note_on_c, 0, 62, 53
1, 215058, Control_c, 0, 64, 84
1, 215058, Control_c, 0, 67, 29
1, 215069, Note_on_c, 0, 47, 53
1, 215073, Control_c, 0, 64, 86
1, 215073, Control_c, 0, 67, 29
1, 215088, Note_off_c, 0, 40, 37
1, 215088, Control_c, 0, 64, 89
1, 215088, Control_c, 0, 67, 31
1, 215102, Control_c, 0, 64, 91
1, 215102, Control_c, 0, 67, 32
1, 215117, Control_c, 0, 64, 93
1, 215117, Control_c, 0, 67, 33
1, 215129, Note_off_c, 0, 73, 50
1, 215132, Control_c, 0, 64, 96
1, 215132, Control_c, 0, 67, 34
1, 215136, Note_off_c, 0, 68, 49
1, 215147, Control_c, 0, 64, 98
1, 215147, Control_c, 0, 67, 36
1, 215162, Control_c, 0, 64, 100
1, 215162, Control_c, 0, 67, 36
1, 215177, Control_c, 0, 64, 102
1, 215177, Control_c, 0, 67, 37
1, 215184, Note_off_c, 0, 62, 56
1, 215191, Control_c, 0, 64, 104
1, 215206, Control_c, 0, 64, 107
1, 215221, Control_c, 0, 64, 112
1, 215221, Control_c, 0, 67, 38
1, 215235, Control_c, 0, 64, 117
1, 215235, Control_c, 0, 67, 38
1, 215250, Control_c, 0, 64, 127
1, 215250, Control_c, 0, 67, 39
1, 215265, Control_c, 0, 67, 40
1, 215280, Control_c, 0, 67, 41
1, 215302, Note_off_c, 0, 47, 54
1, 215319, Note_on_c, 0, 73, 75
1, 215324, Note_on_c, 0, 66, 56
1, 215324, Control_c, 0, 67, 41
1, 215335, Note_on_c, 0, 56, 56
1, 215338, Note_on_c, 0, 62, 58
1, 215365, Note_off_c, 0, 56, 65
1, 215368, Note_off_c, 0, 66, 57
1, 215369, Note_off_c, 0, 71, 60
1, 215385, Control_c, 0, 67, 41
1, 215436, Note_off_c, 0, 62, 37
1, 215444, Control_c, 0, 67, 40
1, 215452, Note_off_c, 0, 73, 54
1, 215488, Control_c, 0, 67, 40
1, 215570, Control_c, 0, 67, 39
1, 215629, Control_c, 0, 67, 40
1, 215659, Control_c, 0, 67, 39
1, 215669, Note_on_c, 0, 74, 76
1, 215674, Control_c, 0, 64, 103
1, 215678, Note_on_c, 0, 71, 50
1, 215681, Note_on_c, 0, 68, 49
1, 215688, Control_c, 0, 64, 88
1, 215702, Note_on_c, 0, 59, 41
1, 215702, Note_on_c, 0, 64, 44
1, 215703, Control_c, 0, 64, 76
1, 215703, Control_c, 0, 67, 39
1, 215705, Note_on_c, 0, 62, 35
1, 215718, Control_c, 0, 64, 72
1, 215718, Control_c, 0, 67, 38
1, 215722, Note_off_c, 0, 71, 60
1, 215733, Control_c, 0, 64, 73
1, 215733, Control_c, 0, 67, 38
1, 215740, Note_off_c, 0, 62, 52
1, 215743, Note_off_c, 0, 64, 48
1, 215747, Control_c, 0, 64, 77
1, 215747, Control_c, 0, 67, 37
1, 215762, Control_c, 0, 64, 80
1, 215762, Control_c, 0, 67, 37
1, 215773, Note_off_c, 0, 74, 65
1, 215777, Control_c, 0, 64, 82
1, 215777, Control_c, 0, 67, 36
1, 215792, Control_c, 0, 64, 84
1, 215807, Control_c, 0, 64, 88
1, 215820, Note_off_c, 0, 68, 53
1, 215821, Control_c, 0, 64, 93
1, 215821, Control_c, 0, 67, 36
1, 215836, Control_c, 0, 64, 99
1, 215851, Control_c, 0, 64, 106
1, 215851, Control_c, 0, 67, 35
1, 215866, Control_c, 0, 64, 109
1, 215880, Control_c, 0, 64, 110
1, 215895, Control_c, 0, 64, 111
1, 215910, Control_c, 0, 64, 112
1, 215925, Control_c, 0, 64, 113
1, 215940, Control_c, 0, 64, 113
1, 216029, Control_c, 0, 64, 113
1, 216035, Note_on_c, 0, 80, 72
1, 216038, Note_on_c, 0, 76, 57
1, 216044, Control_c, 0, 64, 110
1, 216058, Control_c, 0, 64, 106
1, 216063, Note_on_c, 0, 68, 56
1, 216073, Control_c, 0, 64, 96
1, 216088, Control_c, 0, 64, 85
1, 216103, Control_c, 0, 64, 75
1, 216103, Control_c, 0, 67, 36
1, 216118, Control_c, 0, 64, 69
1, 216133, Note_off_c, 0, 59, 35
1, 216134, Control_c, 0, 64, 68
1, 216149, Control_c, 0, 64, 70
1, 216163, Control_c, 0, 64, 72
1, 216178, Control_c, 0, 64, 74
1, 216193, Control_c, 0, 64, 76
1, 216193, Control_c, 0, 67, 36
1, 216208, Control_c, 0, 64, 79
1, 216208, Control_c, 0, 67, 37
1, 216223, Control_c, 0, 64, 83
1, 216223, Control_c, 0, 67, 37
1, 216226, Note_off_c, 0, 68, 39
1, 216237, Control_c, 0, 64, 87
1, 216237, Control_c, 0, 67, 38
1, 216252, Control_c, 0, 64, 92
1, 216274, Control_c, 0, 64, 96
1, 216289, Control_c, 0, 64, 97
1, 216289, Control_c, 0, 67, 38
1, 216294, Note_off_c, 0, 80, 50
1, 216304, Control_c, 0, 64, 98
1, 216319, Control_c, 0, 64, 100
1, 216319, Control_c, 0, 67, 39
1, 216334, Control_c, 0, 64, 103
1, 216348, Control_c, 0, 64, 107
1, 216363, Control_c, 0, 64, 111
1, 216378, Control_c, 0, 64, 112
1, 216378, Control_c, 0, 67, 40
1, 216380, Note_off_c, 0, 76, 60
1, 216423, Control_c, 0, 67, 40
1, 216471, Note_on_c, 0, 78, 64
1, 216482, Control_c, 0, 64, 112
1, 216490, Note_on_c, 0, 74, 54
1, 216496, Control_c, 0, 64, 109
1, 216496, Control_c, 0, 67, 41
1, 216499, Note_on_c, 0, 66, 43
1, 216511, Control_c, 0, 64, 103
1, 216526, Control_c, 0, 64, 94
1, 216526, Control_c, 0, 67, 41
1, 216541, Control_c, 0, 64, 84
1, 216556, Control_c, 0, 64, 74
1, 216570, Control_c, 0, 64, 69
1, 216585, Control_c, 0, 64, 68
1, 216600, Control_c, 0, 64, 69
1, 216615, Control_c, 0, 64, 71
1, 216630, Control_c, 0, 64, 74
1, 216630, Control_c, 0, 67, 42
1, 216644, Control_c, 0, 64, 77
1, 216644, Control_c, 0, 67, 42
1, 216659, Control_c, 0, 64, 81
1, 216661, Note_off_c, 0, 74, 52
1, 216673, Note_off_c, 0, 78, 57
1, 216674, Control_c, 0, 64, 85
1, 216674, Control_c, 0, 67, 43
1, 216688, Control_c, 0, 64, 87
1, 216688, Control_c, 0, 67, 45
1, 216703, Control_c, 0, 64, 90
1, 216703, Control_c, 0, 67, 46
1, 216718, Control_c, 0, 64, 93
1, 216718, Control_c, 0, 67, 48
1, 216733, Control_c, 0, 64, 97
1, 216733, Control_c, 0, 67, 49
1, 216748, Control_c, 0, 64, 100
1, 216748, Control_c, 0, 67, 50
1, 216763, Control_c, 0, 64, 102
1, 216763, Control_c, 0, 67, 51
1, 216769, Note_off_c, 0, 66, 43
1, 216778, Control_c, 0, 64, 104
1, 216778, Control_c, 0, 67, 53
1, 216793, Control_c, 0, 64, 107
1, 216793, Control_c, 0, 67, 54
1, 216807, Control_c, 0, 64, 111
1, 216807, Control_c, 0, 67, 56
1, 216822, Control_c, 0, 64, 115
1, 216822, Control_c, 0, 67, 58
1, 216837, Control_c, 0, 64, 119
1, 216837, Control_c, 0, 67, 60
1, 216852, Control_c, 0, 64, 123
1, 216852, Control_c, 0, 67, 62
1, 216867, Control_c, 0, 64, 127
1, 216867, Control_c, 0, 67, 63
1, 216881, Control_c, 0, 67, 65
1, 216896, Control_c, 0, 67, 67
1, 216911, Control_c, 0, 67, 69
1, 216927, Control_c, 0, 67, 71
1, 216942, Control_c, 0, 67, 73
1, 216957, Control_c, 0, 67, 76
1, 216971, Control_c, 0, 67, 78
1, 216986, Control_c, 0, 67, 81
1, 217001, Control_c, 0, 67, 84
1, 217023, Control_c, 0, 67, 87
1, 217038, Control_c, 0, 67, 90
1, 217053, Control_c, 0, 67, 94
1, 217067, Control_c, 0, 67, 97
1, 217082, Control_c, 0, 67, 101
1, 217097, Control_c, 0, 67, 104
1, 217112, Control_c, 0, 67, 108
1, 217126, Control_c, 0, 67, 111
1, 217141, Control_c, 0, 67, 114
1, 217156, Control_c, 0, 67, 116
1, 217171, Control_c, 0, 67, 118
1, 217186, Control_c, 0, 67, 121
1, 217201, Note_on_c, 0, 76, 64
1, 217201, Control_c, 0, 64, 121
1, 217201, Control_c, 0, 67, 124
1, 217216, Control_c, 0, 64, 115
1, 217216, Control_c, 0, 67, 127
1, 217216, Note_on_c, 0, 64, 45
1, 217217, Note_on_c, 0, 73, 43
1, 217231, Control_c, 0, 64, 111
1, 217246, Control_c, 0, 64, 107
1, 217260, Control_c, 0, 64, 100
1, 217272, Note_on_c, 0, 33, 38
1, 217275, Control_c, 0, 64, 92
1, 217276, Note_on_c, 0, 45, 39
1, 217290, Control_c, 0, 64, 83
1, 217293, Note_off_c, 0, 73, 0
1, 217293, Note_on_c, 0, 73, 7
1, 217305, Control_c, 0, 64, 73
1, 217319, Control_c, 0, 64, 65
1, 217334, Control_c, 0, 64, 62
1, 217349, Control_c, 0, 64, 62
1, 217364, Control_c, 0, 64, 65
1, 217379, Control_c, 0, 64, 67
1, 217393, Control_c, 0, 64, 69
1, 217408, Control_c, 0, 64, 72
1, 217410, Note_off_c, 0, 33, 50
1, 217423, Control_c, 0, 64, 75
1, 217438, Control_c, 0, 64, 77
1, 217453, Control_c, 0, 64, 80
1, 217467, Control_c, 0, 64, 83
1, 217482, Control_c, 0, 64, 87
1, 217495, Note_off_c, 0, 45, 44
1, 217497, Control_c, 0, 64, 90
1, 217511, Control_c, 0, 64, 93
1, 217526, Control_c, 0, 64, 95
1, 217541, Control_c, 0, 64, 96
1, 217556, Control_c, 0, 64, 98
1, 217571, Control_c, 0, 64, 101
1, 217586, Control_c, 0, 64, 104
1, 217600, Control_c, 0, 64, 109
1, 217606, Note_off_c, 0, 64, 33
1, 217615, Control_c, 0, 64, 112
1, 217630, Control_c, 0, 64, 115
1, 217645, Control_c, 0, 64, 119
1, 217660, Control_c, 0, 64, 127
1, 217854, Note_on_c, 0, 52, 43
1, 217972, Note_off_c, 0, 73, 45
1, 218033, Note_off_c, 0, 76, 33
1, 218083, Note_on_c, 0, 75, 59
1, 218096, Note_on_c, 0, 54, 43
1, 218101, Note_on_c, 0, 63, 55
1, 218104, Note_off_c, 0, 52, 35
1, 218120, Note_on_c, 0, 72, 16
1, 218161, Note_off_c, 0, 72, 50
1, 218177, Note_off_c, 0, 63, 56
1, 218218, Note_off_c, 0, 75, 59
1, 218354, Note_on_c, 0, 74, 62
1, 218364, Control_c, 0, 64, 111
1, 218365, Note_on_c, 0, 71, 50
1, 218367, Note_off_c, 0, 54, 46
1, 218370, Note_on_c, 0, 56, 42
1, 218378, Note_on_c, 0, 62, 39
1, 218379, Control_c, 0, 64, 98
1, 218394, Control_c, 0, 64, 88
1, 218408, Control_c, 0, 64, 78
1, 218423, Control_c, 0, 64, 70
1, 218438, Control_c, 0, 64, 65
1, 218468, Control_c, 0, 64, 67
1, 218483, Control_c, 0, 64, 68
1, 218498, Control_c, 0, 64, 70
1, 218519, Note_off_c, 0, 56, 38
1, 218520, Control_c, 0, 64, 74
1, 218531, Note_off_c, 0, 62, 60
1, 218536, Control_c, 0, 64, 78
1, 218551, Control_c, 0, 64, 82
1, 218552, Note_off_c, 0, 71, 39
1, 218556, Note_off_c, 0, 74, 58
1, 218560, Note_on_c, 0, 52, 47
1, 218565, Control_c, 0, 64, 86
1, 218580, Control_c, 0, 64, 88
1, 218595, Control_c, 0, 64, 90
1, 218610, Control_c, 0, 64, 93
1, 218625, Control_c, 0, 64, 96
1, 218638, Note_off_c, 0, 52, 59
1, 218639, Control_c, 0, 64, 99
1, 218654, Control_c, 0, 64, 101
1, 218669, Control_c, 0, 64, 102
1, 218683, Control_c, 0, 64, 103
1, 218698, Control_c, 0, 64, 104
1, 218713, Control_c, 0, 64, 107
1, 218727, Note_on_c, 0, 72, 59
1, 218728, Control_c, 0, 64, 110
1, 218743, Control_c, 0, 64, 112
1, 218747, Note_on_c, 0, 68, 50
1, 218757, Control_c, 0, 64, 113
1, 218762, Note_on_c, 0, 62, 35
1, 218772, Control_c, 0, 64, 114
1, 218787, Control_c, 0, 64, 116
1, 218799, Note_off_c, 0, 68, 57
1, 218800, Note_off_c, 0, 62, 49
1, 218802, Note_off_c, 0, 72, 59
1, 218802, Control_c, 0, 64, 117
1, 218817, Control_c, 0, 64, 118
1, 218832, Control_c, 0, 64, 119
1, 218876, Control_c, 0, 64, 118
1, 218936, Control_c, 0, 64, 115
1, 218951, Control_c, 0, 64, 108
1, 218958, Note_on_c, 0, 73, 60
1, 218965, Control_c, 0, 64, 100
1, 218972, Note_on_c, 0, 45, 44
1, 218979, Note_on_c, 0, 69, 38
1, 218980, Control_c, 0, 64, 90
1, 218995, Control_c, 0, 64, 79
1, 219006, Note_on_c, 0, 61, 47
1, 219010, Control_c, 0, 64, 70
1, 219025, Control_c, 0, 64, 62
1, 219039, Control_c, 0, 64, 59
1, 219054, Control_c, 0, 64, 63
1, 219069, Control_c, 0, 64, 66
1, 219083, Control_c, 0, 64, 69
1, 219098, Control_c, 0, 64, 73
1, 219102, Note_off_c, 0, 61, 58
1, 219113, Control_c, 0, 64, 77
1, 219128, Control_c, 0, 64, 83
1, 219143, Control_c, 0, 64, 89
1, 219152, Note_off_c, 0, 45, 58
1, 219156, Note_on_c, 0, 52, 55
1, 219157, Control_c, 0, 64, 95
1, 219172, Control_c, 0, 64, 100
1, 219180, Note_off_c, 0, 73, 39
1, 219187, Control_c, 0, 64, 106
1, 219187, Control_c, 0, 67, 127
1, 219202, Control_c, 0, 64, 111
1, 219202, Control_c, 0, 67, 125
1, 219217, Control_c, 0, 64, 118
1, 219217, Control_c, 0, 67, 123
1, 219231, Control_c, 0, 64, 127
1, 219231, Control_c, 0, 67, 122
1, 219246, Control_c, 0, 67, 120
1, 219269, Control_c, 0, 67, 118
1, 219283, Control_c, 0, 67, 117
1, 219298, Control_c, 0, 67, 116
1, 219313, Control_c, 0, 67, 114
1, 219323, Note_off_c, 0, 52, 57
1, 219328, Control_c, 0, 67, 114
1, 219335, Note_on_c, 0, 76, 78
1, 219344, Control_c, 0, 67, 113
1, 219359, Control_c, 0, 67, 111
1, 219365, Note_on_c, 0, 45, 49
1, 219365, Note_on_c, 0, 64, 48
1, 219365, Note_on_c, 0, 73, 57
1, 219374, Control_c, 0, 67, 110
1, 219388, Control_c, 0, 67, 108
1, 219390, Note_off_c, 0, 69, 39
1, 219398, Note_off_c, 0, 64, 52
1, 219403, Control_c, 0, 67, 107
1, 219418, Control_c, 0, 67, 106
1, 219422, Note_off_c, 0, 73, 48
1, 219433, Control_c, 0, 67, 106
1, 219444, Note_off_c, 0, 76, 58
1, 219448, Control_c, 0, 67, 105
1, 219462, Control_c, 0, 67, 104
1, 219477, Control_c, 0, 67, 103
1, 219492, Control_c, 0, 67, 101
1, 219506, Control_c, 0, 67, 100
1, 219521, Control_c, 0, 67, 100
1, 219536, Control_c, 0, 67, 99
1, 219551, Control_c, 0, 67, 98
1, 219566, Control_c, 0, 67, 98
1, 219581, Control_c, 0, 67, 97
1, 219596, Control_c, 0, 67, 96
1, 219600, Note_on_c, 0, 52, 47
1, 219611, Control_c, 0, 67, 95
1, 219618, Note_on_c, 0, 81, 75
1, 219626, Control_c, 0, 67, 95
1, 219639, Note_on_c, 0, 73, 53
1, 219641, Control_c, 0, 67, 94
1, 219655, Note_off_c, 0, 45, 43
1, 219655, Control_c, 0, 67, 93
1, 219665, Note_on_c, 0, 69, 41
1, 219670, Control_c, 0, 67, 92
1, 219685, Control_c, 0, 67, 90
1, 219699, Control_c, 0, 67, 89
1, 219711, Note_off_c, 0, 52, 54
1, 219714, Control_c, 0, 67, 88
1, 219744, Control_c, 0, 67, 88
1, 219771, Note_off_c, 0, 69, 29
1, 219773, Note_off_c, 0, 81, 61
1, 219774, Control_c, 0, 67, 89
1, 219788, Control_c, 0, 67, 89
1, 219803, Control_c, 0, 67, 90
1, 219818, Control_c, 0, 67, 90
1, 219820, Note_off_c, 0, 73, 57
1, 219826, Note_on_c, 0, 57, 52
1, 219833, Control_c, 0, 67, 91
1, 219848, Control_c, 0, 67, 92
1, 219878, Control_c, 0, 67, 92
1, 219907, Control_c, 0, 67, 93
1, 219922, Control_c, 0, 67, 93
1, 219937, Control_c, 0, 67, 94
1, 219952, Control_c, 0, 67, 94
1, 219978, Note_on_c, 0, 80, 70
1, 219998, Note_on_c, 0, 68, 56
1, 219998, Note_on_c, 0, 76, 61
1, 220015, Note_on_c, 0, 61, 40
1, 220018, Control_c, 0, 67, 95
1, 220046, Note_off_c, 0, 68, 58
1, 220048, Note_off_c, 0, 61, 51
1, 220066, Note_off_c, 0, 76, 60
1, 220078, Control_c, 0, 67, 95
1, 220081, Note_off_c, 0, 80, 61
1, 220092, Control_c, 0, 67, 96
1, 220122, Control_c, 0, 67, 96
1, 220137, Control_c, 0, 67, 97
1, 220152, Control_c, 0, 64, 113
1, 220167, Control_c, 0, 64, 91
1, 220182, Control_c, 0, 64, 80
1, 220182, Control_c, 0, 67, 97
1, 220188, Note_on_c, 0, 78, 65
1, 220197, Control_c, 0, 64, 72
1, 220207, Note_on_c, 0, 45, 57
1, 220209, Note_on_c, 0, 66, 51
1, 220212, Control_c, 0, 64, 69
1, 220213, Note_off_c, 0, 57, 41
1, 220218, Note_on_c, 0, 74, 39
1, 220227, Control_c, 0, 64, 70
1, 220241, Control_c, 0, 64, 74
1, 220250, Note_off_c, 0, 74, 54
1, 220251, Note_off_c, 0, 78, 62
1, 220253, Note_off_c, 0, 66, 61
1, 220256, Control_c, 0, 64, 79
1, 220271, Control_c, 0, 64, 84
1, 220286, Control_c, 0, 64, 86
1, 220301, Control_c, 0, 64, 88
1, 220301, Control_c, 0, 67, 97
1, 220316, Control_c, 0, 64, 91
1, 220328, Control_c, 0, 64, 93
1, 220328, Control_c, 0, 67, 96
1, 220343, Control_c, 0, 64, 96
1, 220355, Note_on_c, 0, 76, 75
1, 220358, Control_c, 0, 64, 99
1, 220360, Note_on_c, 0, 73, 62
1, 220367, Note_on_c, 0, 52, 53
1, 220367, Note_off_c, 0, 45, 53
1, 220371, Note_on_c, 0, 64, 52
1, 220373, Control_c, 0, 64, 101
1, 220388, Control_c, 0, 64, 103
1, 220402, Control_c, 0, 64, 106
1, 220407, Note_off_c, 0, 64, 65
1, 220417, Control_c, 0, 64, 109
1, 220419, Note_off_c, 0, 73, 60
1, 220430, Note_off_c, 0, 76, 59
1, 220432, Control_c, 0, 64, 111
1, 220447, Control_c, 0, 64, 113
1, 220454, Note_off_c, 0, 52, 51
1, 220462, Control_c, 0, 64, 114
1, 220462, Control_c, 0, 67, 96
1, 220477, Control_c, 0, 64, 114
1, 220528, Note_on_c, 0, 74, 80
1, 220537, Note_on_c, 0, 45, 57
1, 220542, Note_on_c, 0, 62, 62
1, 220563, Note_off_c, 0, 62, 61
1, 220563, Note_on_c, 0, 71, 46
1, 220586, Note_off_c, 0, 74, 64
1, 220587, Note_off_c, 0, 71, 59
1, 220714, Control_c, 0, 64, 113
1, 220728, Control_c, 0, 64, 106
1, 220728, Control_c, 0, 67, 96
1, 220734, Note_on_c, 0, 78, 77
1, 220735, Note_on_c, 0, 74, 51
1, 220751, Control_c, 0, 64, 96
1, 220766, Control_c, 0, 64, 85
1, 220769, Note_on_c, 0, 66, 52
1, 220780, Note_on_c, 0, 52, 47
1, 220781, Control_c, 0, 64, 74
1, 220796, Control_c, 0, 64, 64
1, 220796, Control_c, 0, 67, 96
1, 220810, Control_c, 0, 64, 57
1, 220811, Note_off_c, 0, 45, 60
1, 220825, Control_c, 0, 64, 61
1, 220840, Control_c, 0, 64, 65
1, 220842, Note_off_c, 0, 74, 61
1, 220854, Control_c, 0, 64, 68
1, 220856, Note_off_c, 0, 52, 58
1, 220869, Control_c, 0, 64, 71
1, 220874, Note_off_c, 0, 78, 63
1, 220884, Control_c, 0, 64, 75
1, 220899, Control_c, 0, 64, 81
1, 220914, Control_c, 0, 64, 87
1, 220930, Control_c, 0, 64, 95
1, 220938, Note_off_c, 0, 66, 59
1, 220942, Note_on_c, 0, 56, 60
1, 220945, Control_c, 0, 64, 101
1, 220959, Control_c, 0, 64, 105
1, 220974, Control_c, 0, 64, 108
1, 220974, Control_c, 0, 67, 95
1, 220989, Control_c, 0, 64, 112
1, 221004, Control_c, 0, 64, 116
1, 221004, Control_c, 0, 67, 95
1, 221019, Control_c, 0, 64, 126
1, 221033, Control_c, 0, 64, 127
1, 221067, Note_off_c, 0, 56, 58
1, 221115, Note_on_c, 0, 71, 68
1, 221121, Note_on_c, 0, 68, 63
1, 221133, Note_on_c, 0, 62, 52
1, 221176, Note_off_c, 0, 62, 58
1, 221181, Control_c, 0, 67, 95
1, 221188, Note_off_c, 0, 68, 57
1, 221196, Control_c, 0, 67, 96
1, 221227, Note_off_c, 0, 71, 60
1, 221300, Control_c, 0, 67, 96
1, 221315, Control_c, 0, 67, 97
1, 221343, Note_on_c, 0, 73, 67
1, 221358, Note_on_c, 0, 69, 45
1, 221359, Control_c, 0, 64, 120
1, 221368, Note_on_c, 0, 61, 50
1, 221374, Control_c, 0, 64, 106
1, 221389, Control_c, 0, 64, 94
1, 221395, Note_on_c, 0, 45, 43
1, 221404, Control_c, 0, 64, 79
1, 221404, Control_c, 0, 67, 97
1, 221419, Control_c, 0, 64, 69
1, 221433, Control_c, 0, 64, 61
1, 221448, Control_c, 0, 64, 57
1, 221448, Control_c, 0, 67, 97
1, 221463, Control_c, 0, 64, 60
1, 221477, Control_c, 0, 64, 64
1, 221492, Control_c, 0, 64, 68
1, 221492, Control_c, 0, 67, 96
1, 221514, Control_c, 0, 64, 70
1, 221514, Control_c, 0, 67, 96
1, 221529, Control_c, 0, 64, 74
1, 221529, Control_c, 0, 67, 95
1, 221544, Control_c, 0, 64, 78
1, 221544, Control_c, 0, 67, 95
1, 221559, Control_c, 0, 64, 83
1, 221559, Control_c, 0, 67, 94
1, 221565, Note_on_c, 0, 52, 52
1, 221567, Note_off_c, 0, 61, 50
1, 221571, Note_off_c, 0, 69, 57
1, 221574, Control_c, 0, 64, 88
1, 221574, Control_c, 0, 67, 93
1, 221583, Note_off_c, 0, 45, 40
1, 221589, Control_c, 0, 64, 94
1, 221589, Control_c, 0, 67, 93
1, 221604, Control_c, 0, 64, 99
1, 221604, Control_c, 0, 67, 92
1, 221619, Control_c, 0, 64, 104
1, 221619, Control_c, 0, 67, 91
1, 221630, Note_off_c, 0, 73, 58
1, 221633, Control_c, 0, 64, 108
1, 221633, Control_c, 0, 67, 90
1, 221648, Control_c, 0, 64, 114
1, 221663, Control_c, 0, 64, 127
1, 221663, Control_c, 0, 67, 90
1, 221677, Control_c, 0, 67, 89
1, 221692, Control_c, 0, 67, 89
1, 221707, Control_c, 0, 67, 88
1, 221720, Note_off_c, 0, 52, 34
1, 221722, Control_c, 0, 67, 88
1, 221750, Note_on_c, 0, 45, 47
1, 221768, Control_c, 0, 67, 87
1, 221782, Control_c, 0, 67, 87
1, 221997, Note_on_c, 0, 52, 37
1, 222020, Note_on_c, 0, 76, 75
1, 222041, Note_on_c, 0, 73, 51
1, 222057, Note_on_c, 0, 64, 44
1, 222063, Control_c, 0, 67, 87
1, 222065, Note_off_c, 0, 45, 34
1, 222093, Control_c, 0, 67, 88
1, 222108, Control_c, 0, 67, 88
1, 222137, Control_c, 0, 67, 89
1, 222165, Note_off_c, 0, 52, 44
1, 222167, Control_c, 0, 67, 89
1, 222197, Control_c, 0, 67, 90
1, 222212, Control_c, 0, 67, 90
1, 222218, Note_on_c, 0, 57, 45
1, 222226, Control_c, 0, 67, 91
1, 222278, Control_c, 0, 67, 91
1, 222307, Control_c, 0, 67, 92
1, 222322, Control_c, 0, 67, 92
1, 222352, Control_c, 0, 67, 93
1, 222397, Control_c, 0, 67, 93
1, 222406, Note_on_c, 0, 61, 45
1, 222426, Control_c, 0, 67, 94
1, 222448, Note_off_c, 0, 61, 62
1, 222456, Control_c, 0, 67, 94
1, 222486, Control_c, 0, 67, 95
1, 222515, Control_c, 0, 67, 95
1, 222531, Control_c, 0, 67, 96
1, 222561, Control_c, 0, 67, 96
1, 222576, Control_c, 0, 67, 97
1, 222590, Control_c, 0, 67, 97
1, 222635, Control_c, 0, 67, 98
1, 222649, Control_c, 0, 67, 98
1, 222664, Control_c, 0, 64, 124
1, 222679, Control_c, 0, 64, 116
1, 222694, Control_c, 0, 64, 113
1, 222704, Note_on_c, 0, 45, 44
1, 222709, Control_c, 0, 64, 110
1, 222723, Control_c, 0, 64, 107
1, 222723, Control_c, 0, 67, 99
1, 222738, Control_c, 0, 64, 101
1, 222753, Control_c, 0, 64, 95
1, 222768, Control_c, 0, 64, 87
1, 222783, Control_c, 0, 64, 79
1, 222793, Note_off_c, 0, 64, 41
1, 222797, Control_c, 0, 64, 72
1, 222812, Control_c, 0, 64, 68
1, 222813, Note_off_c, 0, 57, 22
1, 222842, Control_c, 0, 64, 69
1, 222842, Control_c, 0, 67, 98
1, 222856, Control_c, 0, 64, 70
1, 222871, Control_c, 0, 64, 72
1, 222886, Control_c, 0, 64, 76
1, 222886, Control_c, 0, 67, 98
1, 222901, Control_c, 0, 64, 81
1, 222906, Note_on_c, 0, 52, 44
1, 222916, Control_c, 0, 64, 86
1, 222930, Control_c, 0, 64, 89
1, 222930, Control_c, 0, 67, 97
1, 222945, Control_c, 0, 64, 90
1, 222960, Control_c, 0, 64, 91
1, 222963, Note_off_c, 0, 45, 33
1, 222970, Note_off_c, 0, 73, 55
1, 222975, Control_c, 0, 64, 92
1, 222990, Control_c, 0, 64, 94
1, 223012, Control_c, 0, 64, 98
1, 223012, Control_c, 0, 67, 97
1, 223027, Control_c, 0, 64, 102
1, 223042, Control_c, 0, 64, 106
1, 223056, Control_c, 0, 64, 108
1, 223071, Control_c, 0, 64, 111
1, 223083, Note_off_c, 0, 52, 43
1, 223086, Control_c, 0, 64, 114
1, 223087, Note_on_c, 0, 75, 59
1, 223088, Note_on_c, 0, 72, 32
1, 223101, Note_on_c, 0, 45, 38
1, 223101, Control_c, 0, 64, 122
1, 223101, Control_c, 0, 67, 96
1, 223112, Note_on_c, 0, 63, 45
1, 223116, Control_c, 0, 64, 127
1, 223170, Note_off_c, 0, 72, 39
1, 223216, Note_off_c, 0, 75, 60
1, 223224, Note_off_c, 0, 63, 58
1, 223225, Note_off_c, 0, 76, 42
1, 223271, Note_off_c, 0, 45, 41
1, 223273, Note_on_c, 0, 52, 57
1, 223294, Control_c, 0, 67, 96
1, 223360, Note_off_c, 0, 52, 58
1, 223442, Note_on_c, 0, 74, 60
1, 223461, Note_on_c, 0, 56, 45
1, 223464, Note_on_c, 0, 71, 44
1, 223491, Note_off_c, 0, 71, 57
1, 223502, Control_c, 0, 67, 96
1, 223513, Note_off_c, 0, 74, 64
1, 223534, Note_off_c, 0, 56, 55
1, 223561, Control_c, 0, 67, 96
1, 223614, Note_on_c, 0, 72, 70
1, 223637, Note_on_c, 0, 68, 43
1, 223645, Note_on_c, 0, 62, 42
1, 223652, Note_off_c, 0, 72, 59
1, 223665, Control_c, 0, 67, 96
1, 223666, Note_off_c, 0, 68, 55
1, 223675, Note_off_c, 0, 62, 53
1, 223792, Note_on_c, 0, 73, 69
1, 223805, Note_on_c, 0, 61, 52
1, 223813, Note_on_c, 0, 69, 59
1, 223822, Note_on_c, 0, 45, 56
1, 223835, Control_c, 0, 64, 112
1, 223848, Note_off_c, 0, 61, 61
1, 223850, Control_c, 0, 64, 92
1, 223862, Note_off_c, 0, 73, 61
1, 223865, Control_c, 0, 64, 77
1, 223865, Control_c, 0, 67, 96
1, 223879, Control_c, 0, 64, 66
1, 223894, Control_c, 0, 64, 64
1, 223909, Control_c, 0, 64, 65
1, 223909, Control_c, 0, 67, 95
1, 223924, Control_c, 0, 64, 68
1, 223939, Control_c, 0, 64, 71
1, 223954, Control_c, 0, 64, 75
1, 223954, Control_c, 0, 67, 95
1, 223965, Note_on_c, 0, 76, 71
1, 223968, Control_c, 0, 64, 81
1, 223968, Control_c, 0, 67, 94
1, 223973, Note_on_c, 0, 73, 71
1, 223974, Note_off_c, 0, 45, 58
1, 223975, Note_on_c, 0, 52, 57
1, 223976, Note_off_c, 0, 69, 44
1, 223981, Note_on_c, 0, 64, 47
1, 223983, Control_c, 0, 64, 87
1, 223983, Control_c, 0, 67, 94
1, 223997, Control_c, 0, 64, 93
1, 223997, Control_c, 0, 67, 93
1, 224006, Note_off_c, 0, 64, 59
1, 224012, Control_c, 0, 64, 98
1, 224022, Note_off_c, 0, 76, 63
1, 224027, Note_off_c, 0, 73, 61
1, 224027, Control_c, 0, 64, 103
1, 224027, Control_c, 0, 67, 93
1, 224042, Control_c, 0, 64, 109
1, 224042, Control_c, 0, 67, 92
1, 224057, Control_c, 0, 64, 124
1, 224057, Control_c, 0, 67, 91
1, 224072, Control_c, 0, 64, 127
1, 224072, Control_c, 0, 67, 91
1, 224098, Note_off_c, 0, 52, 51
1, 224102, Control_c, 0, 67, 90
1, 224117, Control_c, 0, 67, 90
1, 224143, Note_on_c, 0, 81, 84
1, 224147, Control_c, 0, 67, 89
1, 224148, Note_on_c, 0, 45, 52
1, 224150, Note_on_c, 0, 73, 64
1, 224159, Note_on_c, 0, 69, 54
1, 224176, Control_c, 0, 67, 89
1, 224215, Note_off_c, 0, 69, 56
1, 224236, Note_off_c, 0, 81, 64
1, 224253, Note_off_c, 0, 73, 35
1, 224266, Control_c, 0, 67, 88
1, 224340, Note_on_c, 0, 81, 76
1, 224340, Control_c, 0, 67, 88
1, 224355, Control_c, 0, 67, 87
1, 224358, Note_off_c, 0, 45, 53
1, 224359, Note_on_c, 0, 78, 67
1, 224361, Note_on_c, 0, 52, 51
1, 224364, Note_on_c, 0, 69, 55
1, 224384, Control_c, 0, 67, 87
1, 224428, Control_c, 0, 67, 86
1, 224443, Control_c, 0, 67, 86
1, 224459, Note_off_c, 0, 52, 57
1, 224466, Note_off_c, 0, 81, 59
1, 224476, Note_off_c, 0, 69, 54
1, 224517, Note_off_c, 0, 78, 55
1, 224540, Control_c, 0, 67, 86
1, 224544, Note_on_c, 0, 57, 54
1, 224555, Control_c, 0, 67, 87
1, 224570, Control_c, 0, 67, 88
1, 224599, Control_c, 0, 67, 88
1, 224643, Control_c, 0, 67, 89
1, 224658, Control_c, 0, 67, 89
1, 224688, Control_c, 0, 67, 90
1, 224713, Note_on_c, 0, 76, 66
1, 224716, Note_on_c, 0, 80, 69
1, 224723, Note_on_c, 0, 68, 62
1, 224728, Note_on_c, 0, 61, 47
1, 224732, Control_c, 0, 67, 90
1, 224756, Note_off_c, 0, 61, 55
1, 224776, Control_c, 0, 67, 91
1, 224785, Note_off_c, 0, 68, 54
1, 224802, Note_off_c, 0, 80, 63
1, 224805, Note_off_c, 0, 76, 59
1, 224820, Control_c, 0, 67, 91
1, 224835, Note_off_c, 0, 57, 42
1, 224835, Control_c, 0, 67, 92
1, 224865, Control_c, 0, 67, 92
1, 224925, Control_c, 0, 67, 93
1, 224927, Note_on_c, 0, 80, 67
1, 224936, Note_on_c, 0, 76, 59
1, 224955, Control_c, 0, 64, 98
1, 224957, Note_on_c, 0, 68, 50
1, 224959, Note_on_c, 0, 40, 52
1, 224970, Control_c, 0, 64, 84
1, 224985, Control_c, 0, 64, 74
1, 224999, Control_c, 0, 64, 66
1, 225004, Note_off_c, 0, 68, 56
1, 225014, Control_c, 0, 64, 63
1, 225024, Note_off_c, 0, 76, 61
1, 225029, Control_c, 0, 64, 64
1, 225042, Note_off_c, 0, 80, 61
1, 225044, Control_c, 0, 64, 68
1, 225059, Control_c, 0, 64, 72
1, 225074, Control_c, 0, 64, 77
1, 225088, Control_c, 0, 64, 82
1, 225100, Note_off_c, 0, 40, 58
1, 225103, Control_c, 0, 64, 86
1, 225118, Control_c, 0, 64, 91
1, 225118, Note_on_c, 0, 78, 65
1, 225124, Note_on_c, 0, 47, 52
1, 225133, Control_c, 0, 64, 97
1, 225133, Control_c, 0, 67, 92
1, 225136, Note_on_c, 0, 74, 51
1, 225137, Note_on_c, 0, 66, 59
1, 225148, Control_c, 0, 64, 104
1, 225159, Note_off_c, 0, 74, 61
1, 225163, Control_c, 0, 64, 112
1, 225165, Note_off_c, 0, 66, 58
1, 225178, Control_c, 0, 64, 121
1, 225178, Control_c, 0, 67, 92
1, 225180, Note_off_c, 0, 47, 61
1, 225187, Note_off_c, 0, 78, 63
1, 225192, Control_c, 0, 64, 127
1, 225309, Note_on_c, 0, 76, 68
1, 225312, Note_on_c, 0, 56, 54
1, 225321, Note_on_c, 0, 73, 66
1, 225324, Note_on_c, 0, 64, 50
1, 225333, Control_c, 0, 67, 92
1, 225349, Note_off_c, 0, 64, 59
1, 225362, Note_off_c, 0, 73, 55
1, 225363, Note_off_c, 0, 76, 61
1, 225392, Control_c, 0, 67, 93
1, 225461, Note_off_c, 0, 56, 38
1, 225500, Note_on_c, 0, 78, 65
1, 225506, Note_on_c, 0, 74, 53
1, 225525, Control_c, 0, 67, 93
1, 225533, Note_on_c, 0, 52, 47
1, 225533, Note_on_c, 0, 66, 42
1, 225571, Control_c, 0, 64, 101
1, 225586, Control_c, 0, 64, 84
1, 225600, Control_c, 0, 64, 74
1, 225615, Control_c, 0, 64, 67
1, 225630, Control_c, 0, 64, 65
1, 225641, Note_off_c, 0, 74, 62
1, 225644, Control_c, 0, 64, 66
1, 225657, Note_off_c, 0, 78, 61
1, 225659, Control_c, 0, 64, 70
1, 225674, Control_c, 0, 64, 75
1, 225689, Control_c, 0, 64, 81
1, 225693, Note_on_c, 0, 56, 55
1, 225704, Control_c, 0, 64, 85
1, 225720, Control_c, 0, 64, 89
1, 225720, Control_c, 0, 67, 93
1, 225735, Control_c, 0, 64, 94
1, 225735, Note_off_c, 0, 66, 60
1, 225749, Control_c, 0, 64, 99
1, 225764, Control_c, 0, 64, 105
1, 225779, Control_c, 0, 64, 114
1, 225794, Control_c, 0, 64, 127
1, 225809, Control_c, 0, 67, 92
1, 225819, Note_off_c, 0, 52, 40
1, 225867, Note_off_c, 0, 56, 53
1, 225867, Control_c, 0, 67, 92
1, 225873, Note_on_c, 0, 71, 62
1, 225894, Note_on_c, 0, 68, 47
1, 225912, Control_c, 0, 67, 91
1, 225914, Note_on_c, 0, 62, 47
1, 225948, Note_off_c, 0, 68, 60
1, 225952, Note_off_c, 0, 62, 56
1, 225986, Control_c, 0, 67, 92
1, 226001, Note_off_c, 0, 71, 61
1, 226127, Control_c, 0, 67, 92
1, 226130, Note_on_c, 0, 73, 63
1, 226155, Note_on_c, 0, 69, 39
1, 226168, Note_on_c, 0, 61, 39
1, 226184, Note_on_c, 0, 45, 41
1, 226230, Control_c, 0, 64, 116
1, 226245, Control_c, 0, 64, 100
1, 226260, Control_c, 0, 64, 86
1, 226275, Control_c, 0, 64, 75
1, 226275, Control_c, 0, 67, 92
1, 226290, Control_c, 0, 64, 68
1, 226305, Control_c, 0, 64, 65
1, 226319, Control_c, 0, 67, 91
1, 226334, Control_c, 0, 64, 66
1, 226334, Control_c, 0, 67, 90
1, 226343, Note_on_c, 0, 52, 48
1, 226348, Control_c, 0, 64, 69
1, 226348, Control_c, 0, 67, 89
1, 226360, Note_off_c, 0, 45, 44
1, 226363, Control_c, 0, 64, 73
1, 226378, Control_c, 0, 64, 76
1, 226378, Control_c, 0, 67, 89
1, 226392, Control_c, 0, 64, 79
1, 226407, Control_c, 0, 64, 81
1, 226407, Control_c, 0, 67, 88
1, 226422, Control_c, 0, 64, 83
1, 226422, Control_c, 0, 67, 87
1, 226436, Note_off_c, 0, 73, 34
1, 226437, Control_c, 0, 64, 85
1, 226437, Control_c, 0, 67, 86
1, 226452, Control_c, 0, 64, 88
1, 226452, Control_c, 0, 67, 85
1, 226466, Control_c, 0, 64, 92
1, 226466, Control_c, 0, 67, 84
1, 226481, Control_c, 0, 64, 94
1, 226481, Control_c, 0, 67, 80
1, 226488, Note_off_c, 0, 61, 38
1, 226496, Control_c, 0, 64, 96
1, 226496, Control_c, 0, 67, 76
1, 226504, Note_off_c, 0, 52, 35
1, 226509, Note_on_c, 0, 45, 40
1, 226511, Control_c, 0, 64, 97
1, 226511, Control_c, 0, 67, 71
1, 226527, Control_c, 0, 64, 100
1, 226527, Control_c, 0, 67, 68
1, 226542, Control_c, 0, 64, 104
1, 226542, Control_c, 0, 67, 64
1, 226557, Control_c, 0, 64, 107
1, 226557, Control_c, 0, 67, 61
1, 226571, Control_c, 0, 64, 109
1, 226571, Control_c, 0, 67, 61
1, 226586, Control_c, 0, 64, 110
1, 226631, Control_c, 0, 67, 61
1, 226645, Control_c, 0, 67, 62
1, 226660, Control_c, 0, 67, 64
1, 226675, Control_c, 0, 67, 64
1, 226704, Control_c, 0, 67, 65
1, 226719, Control_c, 0, 67, 66
1, 226729, Note_on_c, 0, 52, 48
1, 226757, Control_c, 0, 64, 109
1, 226757, Control_c, 0, 67, 66
1, 226769, Note_on_c, 0, 73, 70
1, 226771, Control_c, 0, 64, 105
1, 226783, Note_on_c, 0, 64, 46
1, 226786, Control_c, 0, 64, 100
1, 226786, Control_c, 0, 67, 67
1, 226801, Control_c, 0, 64, 91
1, 226801, Control_c, 0, 67, 67
1, 226802, Note_on_c, 0, 61, 53
1, 226816, Control_c, 0, 64, 82
1, 226830, Control_c, 0, 64, 71
1, 226830, Control_c, 0, 67, 68
1, 226845, Control_c, 0, 64, 65
1, 226845, Control_c, 0, 67, 68
1, 226875, Control_c, 0, 64, 68
1, 226875, Control_c, 0, 67, 69
1, 226890, Control_c, 0, 64, 70
1, 226890, Control_c, 0, 67, 69
1, 226904, Control_c, 0, 64, 72
1, 226919, Control_c, 0, 64, 74
1, 226919, Control_c, 0, 67, 70
1, 226934, Control_c, 0, 64, 77
1, 226949, Control_c, 0, 64, 80
1, 226949, Control_c, 0, 67, 70
1, 226957, Note_off_c, 0, 52, 24
1, 226964, Control_c, 0, 64, 83
1, 226964, Control_c, 0, 67, 71
1, 226978, Control_c, 0, 64, 87
1, 226978, Control_c, 0, 67, 72
1, 226988, Note_off_c, 0, 61, 30
1, 226993, Control_c, 0, 64, 90
1, 226993, Control_c, 0, 67, 72
1, 227002, Note_on_c, 0, 55, 44
1, 227008, Control_c, 0, 64, 93
1, 227008, Control_c, 0, 67, 73
1, 227023, Control_c, 0, 64, 95
1, 227023, Control_c, 0, 67, 74
1, 227038, Control_c, 0, 64, 97
1, 227038, Control_c, 0, 67, 75
1, 227053, Note_off_c, 0, 45, 42
1, 227053, Control_c, 0, 64, 100
1, 227053, Control_c, 0, 67, 77
1, 227065, Note_off_c, 0, 55, 53
1, 227068, Control_c, 0, 64, 103
1, 227068, Control_c, 0, 67, 79
1, 227083, Control_c, 0, 64, 106
1, 227083, Control_c, 0, 67, 81
1, 227097, Control_c, 0, 64, 108
1, 227097, Control_c, 0, 67, 83
1, 227112, Control_c, 0, 64, 111
1, 227112, Control_c, 0, 67, 85
1, 227127, Control_c, 0, 64, 114
1, 227127, Control_c, 0, 67, 87
1, 227142, Control_c, 0, 64, 117
1, 227142, Control_c, 0, 67, 89
1, 227157, Control_c, 0, 64, 120
1, 227157, Control_c, 0, 67, 91
1, 227157, Note_off_c, 0, 64, 51
1, 227171, Control_c, 0, 64, 126
1, 227171, Control_c, 0, 67, 93
1, 227186, Control_c, 0, 64, 127
1, 227186, Control_c, 0, 67, 94
1, 227201, Control_c, 0, 67, 96
1, 227215, Control_c, 0, 67, 97
1, 227230, Control_c, 0, 67, 99
1, 227245, Control_c, 0, 67, 102
1, 227260, Control_c, 0, 67, 105
1, 227275, Control_c, 0, 67, 107
1, 227289, Control_c, 0, 67, 109
1, 227304, Control_c, 0, 67, 110
1, 227320, Note_on_c, 0, 61, 46
1, 227320, Control_c, 0, 67, 113
1, 227335, Control_c, 0, 67, 115
1, 227336, Note_on_c, 0, 64, 15
1, 227350, Control_c, 0, 67, 119
1, 227365, Control_c, 0, 67, 122
1, 227380, Control_c, 0, 67, 125
1, 227394, Control_c, 0, 67, 127
1, 227429, Note_off_c, 0, 64, 0
1, 227509, Poly_aftertouch_c, 0, 64, 0
1, 227639, Note_off_c, 0, 69, 4
1, 227683, Control_c, 0, 64, 122
1, 227698, Control_c, 0, 64, 118
1, 227713, Control_c, 0, 64, 115
1, 227727, Control_c, 0, 64, 113
1, 227742, Control_c, 0, 64, 110
1, 227757, Control_c, 0, 64, 109
1, 227772, Control_c, 0, 64, 107
1, 227787, Control_c, 0, 64, 106
1, 227801, Control_c, 0, 64, 104
1, 227816, Control_c, 0, 64, 102
1, 227831, Control_c, 0, 64, 100
1, 227846, Control_c, 0, 64, 97
1, 227861, Control_c, 0, 64, 93
1, 227865, Note_on_c, 0, 32, 45
1, 227876, Control_c, 0, 64, 88
1, 227890, Control_c, 0, 64, 83
1, 227905, Control_c, 0, 64, 77
1, 227920, Control_c, 0, 64, 72
1, 227935, Control_c, 0, 64, 70
1, 227950, Control_c, 0, 64, 69
1, 227980, Control_c, 0, 64, 70
1, 227994, Control_c, 0, 64, 71
1, 228009, Control_c, 0, 64, 73
1, 228024, Control_c, 0, 64, 75
1, 228038, Control_c, 0, 64, 78
1, 228053, Control_c, 0, 64, 81
1, 228062, Note_off_c, 0, 61, 41
1, 228068, Control_c, 0, 64, 83
1, 228083, Control_c, 0, 64, 85
1, 228084, Note_off_c, 0, 73, 38
1, 228098, Control_c, 0, 64, 88
1, 228114, Control_c, 0, 64, 92
1, 228129, Control_c, 0, 64, 96
1, 228143, Control_c, 0, 64, 100
1, 228158, Control_c, 0, 64, 104
1, 228173, Control_c, 0, 64, 107
1, 228188, Control_c, 0, 64, 111
1, 228203, Control_c, 0, 64, 119
1, 228217, Control_c, 0, 64, 127
1, 228243, Note_off_c, 0, 32, 39
1, 228394, Note_on_c, 0, 44, 40
1, 228445, Note_off_c, 0, 44, 56
1, 228463, Note_on_c, 0, 72, 49
1, 228464, Note_on_c, 0, 63, 37
1, 228493, Note_on_c, 0, 60, 19
1, 228533, Note_off_c, 0, 63, 50
1, 228558, Note_off_c, 0, 60, 44
1, 228583, Note_off_c, 0, 72, 52
1, 228873, Note_on_c, 0, 54, 37
1, 228923, Note_on_c, 0, 76, 61
1, 228949, Note_on_c, 0, 68, 35
1, 228964, Note_on_c, 0, 64, 38
1, 229051, Note_off_c, 0, 54, 45
1, 229131, Note_on_c, 0, 56, 35
1, 229152, Control_c, 0, 67, 127
1, 229160, Note_off_c, 0, 76, 52
1, 229166, Control_c, 0, 67, 126
1, 229181, Control_c, 0, 67, 126
1, 229196, Control_c, 0, 67, 125
1, 229197, Note_off_c, 0, 56, 40
1, 229211, Control_c, 0, 67, 124
1, 229226, Note_off_c, 0, 68, 39
1, 229226, Control_c, 0, 67, 122
1, 229241, Control_c, 0, 67, 122
1, 229256, Control_c, 0, 67, 121
1, 229271, Control_c, 0, 67, 121
1, 229279, Note_off_c, 0, 64, 36
1, 229286, Control_c, 0, 67, 120
1, 229300, Control_c, 0, 67, 119
1, 229315, Control_c, 0, 67, 118
1, 229330, Control_c, 0, 67, 117
1, 229335, Note_on_c, 0, 60, 29
1, 229360, Control_c, 0, 67, 116
1, 229374, Control_c, 0, 67, 115
1, 229380, Note_off_c, 0, 60, 52
1, 229389, Control_c, 0, 67, 114
1, 229404, Control_c, 0, 67, 112
1, 229418, Control_c, 0, 67, 112
1, 229433, Control_c, 0, 67, 111
1, 229448, Control_c, 0, 67, 110
1, 229463, Control_c, 0, 67, 110
1, 229478, Control_c, 0, 67, 109
1, 229492, Control_c, 0, 67, 109
1, 229522, Control_c, 0, 67, 108
1, 229552, Control_c, 0, 67, 107
1, 229581, Control_c, 0, 67, 107
1, 229610, Control_c, 0, 67, 106
1, 229640, Control_c, 0, 67, 106
1, 229655, Control_c, 0, 67, 105
1, 229664, Note_on_c, 0, 44, 39
1, 229670, Control_c, 0, 67, 105
1, 229685, Control_c, 0, 67, 104
1, 229700, Control_c, 0, 67, 104
1, 229709, Note_off_c, 0, 44, 59
1, 229715, Control_c, 0, 67, 102
1, 229718, Note_on_c, 0, 75, 60
1, 229730, Control_c, 0, 67, 101
1, 229745, Note_on_c, 0, 66, 41
1, 229747, Note_on_c, 0, 63, 48
1, 229753, Control_c, 0, 67, 100
1, 229768, Control_c, 0, 67, 99
1, 229783, Control_c, 0, 67, 98
1, 229797, Control_c, 0, 67, 97
1, 229810, Note_off_c, 0, 66, 50
1, 229812, Control_c, 0, 67, 96
1, 229827, Note_off_c, 0, 75, 60
1, 229827, Control_c, 0, 67, 96
1, 229837, Note_off_c, 0, 63, 47
1, 229856, Control_c, 0, 67, 95
1, 229945, Control_c, 0, 67, 96
1, 229989, Control_c, 0, 67, 96
1, 230031, Note_on_c, 0, 37, 54
1, 230061, Note_on_c, 0, 73, 65
1, 230064, Control_c, 0, 64, 115
1, 230078, Control_c, 0, 64, 101
1, 230091, Note_on_c, 0, 64, 45
1, 230093, Control_c, 0, 64, 89
1, 230094, Note_on_c, 0, 61, 38
1, 230108, Control_c, 0, 64, 78
1, 230123, Control_c, 0, 64, 69
1, 230138, Control_c, 0, 64, 64
1, 230138, Control_c, 0, 67, 96
1, 230153, Control_c, 0, 64, 64
1, 230168, Control_c, 0, 64, 66
1, 230168, Control_c, 0, 67, 95
1, 230183, Control_c, 0, 64, 69
1, 230197, Control_c, 0, 64, 72
1, 230197, Control_c, 0, 67, 95
1, 230212, Control_c, 0, 64, 75
1, 230219, Note_off_c, 0, 64, 44
1, 230225, Note_off_c, 0, 61, 51
1, 230227, Control_c, 0, 64, 78
1, 230239, Note_off_c, 0, 73, 60
1, 230241, Control_c, 0, 64, 81
1, 230256, Control_c, 0, 64, 84
1, 230256, Control_c, 0, 67, 94
1, 230271, Control_c, 0, 64, 88
1, 230286, Control_c, 0, 64, 92
1, 230301, Control_c, 0, 64, 96
1, 230315, Control_c, 0, 64, 100
1, 230330, Control_c, 0, 64, 104
1, 230330, Control_c, 0, 67, 94
1, 230335, Note_off_c, 0, 37, 53
1, 230345, Control_c, 0, 64, 108
1, 230359, Control_c, 0, 64, 113
1, 230364, Note_on_c, 0, 44, 60
1, 230368, Note_on_c, 0, 75, 71
1, 230374, Control_c, 0, 64, 127
1, 230383, Note_on_c, 0, 63, 54
1, 230386, Note_on_c, 0, 66, 57
1, 230404, Control_c, 0, 67, 93
1, 230419, Control_c, 0, 67, 92
1, 230433, Control_c, 0, 67, 90
1, 230443, Note_off_c, 0, 63, 55
1, 230448, Control_c, 0, 67, 88
1, 230451, Note_off_c, 0, 66, 59
1, 230463, Control_c, 0, 67, 86
1, 230478, Control_c, 0, 67, 84
1, 230493, Note_off_c, 0, 75, 57
1, 230501, Control_c, 0, 67, 82
1, 230517, Control_c, 0, 67, 80
1, 230522, Note_off_c, 0, 44, 60
1, 230532, Control_c, 0, 67, 77
1, 230546, Control_c, 0, 67, 73
1, 230561, Control_c, 0, 67, 71
1, 230576, Control_c, 0, 67, 70
1, 230582, Note_on_c, 0, 56, 63
1, 230583, Note_on_c, 0, 76, 79
1, 230591, Control_c, 0, 67, 69
1, 230597, Note_on_c, 0, 68, 60
1, 230598, Note_on_c, 0, 64, 64
1, 230606, Control_c, 0, 67, 68
1, 230611, Note_off_c, 0, 56, 66
1, 230620, Control_c, 0, 67, 68
1, 230650, Control_c, 0, 67, 67
1, 230653, Note_off_c, 0, 68, 48
1, 230663, Note_off_c, 0, 64, 57
1, 230681, Note_off_c, 0, 76, 60
1, 230800, Note_on_c, 0, 36, 70
1, 230819, Note_on_c, 0, 76, 77
1, 230836, Note_on_c, 0, 64, 61
1, 230840, Note_on_c, 0, 70, 57
1, 230856, Control_c, 0, 64, 126
1, 230871, Control_c, 0, 64, 104
1, 230886, Control_c, 0, 64, 91
1, 230901, Control_c, 0, 64, 80
1, 230916, Control_c, 0, 64, 70
1, 230930, Control_c, 0, 64, 64
1, 230945, Control_c, 0, 64, 63
1, 230960, Control_c, 0, 64, 65
1, 230960, Control_c, 0, 67, 67
1, 230975, Control_c, 0, 64, 68
1, 230975, Control_c, 0, 67, 66
1, 230989, Control_c, 0, 64, 71
1, 231004, Control_c, 0, 64, 75
1, 231004, Control_c, 0, 67, 66
1, 231017, Note_on_c, 0, 42, 72
1, 231019, Control_c, 0, 64, 78
1, 231026, Note_off_c, 0, 36, 57
1, 231034, Control_c, 0, 64, 81
1, 231034, Control_c, 0, 67, 65
1, 231049, Control_c, 0, 64, 85
1, 231049, Control_c, 0, 67, 64
1, 231063, Control_c, 0, 64, 89
1, 231063, Control_c, 0, 67, 61
1, 231078, Control_c, 0, 64, 95
1, 231078, Control_c, 0, 67, 58
1, 231093, Control_c, 0, 64, 100
1, 231093, Control_c, 0, 67, 56
1, 231108, Control_c, 0, 64, 105
1, 231108, Control_c, 0, 67, 55
1, 231123, Control_c, 0, 64, 108
1, 231123, Control_c, 0, 67, 54
1, 231137, Control_c, 0, 64, 111
1, 231137, Control_c, 0, 67, 52
1, 231152, Control_c, 0, 64, 117
1, 231152, Control_c, 0, 67, 50
1, 231162, Note_off_c, 0, 70, 34
1, 231167, Control_c, 0, 64, 127
1, 231167, Control_c, 0, 67, 49
1, 231181, Control_c, 0, 67, 49
1, 231200, Note_off_c, 0, 42, 61
1, 231207, Note_on_c, 0, 54, 74
1, 231244, Note_off_c, 0, 54, 69
1, 231408, Note_on_c, 0, 35, 74
1, 231427, Control_c, 0, 64, 104
1, 231442, Control_c, 0, 64, 88
1, 231448, Note_off_c, 0, 64, 50
1, 231457, Note_on_c, 0, 71, 67
1, 231457, Control_c, 0, 64, 76
1, 231472, Control_c, 0, 64, 67
1, 231486, Control_c, 0, 64, 64
1, 231501, Control_c, 0, 64, 65
1, 231516, Control_c, 0, 64, 69
1, 231531, Control_c, 0, 64, 74
1, 231546, Control_c, 0, 64, 78
1, 231560, Note_off_c, 0, 76, 55
1, 231560, Control_c, 0, 64, 82
1, 231575, Control_c, 0, 64, 87
1, 231590, Control_c, 0, 64, 94
1, 231599, Note_off_c, 0, 71, 64
1, 231605, Control_c, 0, 64, 103
1, 231610, Note_off_c, 0, 35, 59
1, 231620, Control_c, 0, 64, 111
1, 231635, Note_on_c, 0, 75, 74
1, 231635, Control_c, 0, 64, 127
1, 231649, Note_on_c, 0, 63, 63
1, 231655, Note_on_c, 0, 47, 56
1, 231698, Note_off_c, 0, 47, 64
1, 231712, Note_off_c, 0, 63, 60
1, 231735, Note_off_c, 0, 75, 61
1, 231768, Control_c, 0, 67, 48
1, 231783, Control_c, 0, 67, 48
1, 231830, Note_on_c, 0, 76, 84
1, 231842, Control_c, 0, 67, 47
1, 231843, Note_on_c, 0, 64, 69
1, 231846, Note_on_c, 0, 54, 57
1, 231855, Note_on_c, 0, 68, 39
1, 231878, Note_off_c, 0, 64, 61
1, 231885, Note_off_c, 0, 68, 53
1, 231899, Note_off_c, 0, 76, 62
1, 231901, Control_c, 0, 67, 47
1, 231916, Control_c, 0, 67, 46
1, 231931, Control_c, 0, 67, 46
1, 231946, Control_c, 0, 67, 45
1, 231960, Control_c, 0, 67, 44
1, 232010, Note_off_c, 0, 54, 55
1, 232013, Control_c, 0, 67, 43
1, 232027, Control_c, 0, 67, 43
1, 232040, Note_on_c, 0, 78, 82
1, 232042, Control_c, 0, 67, 42
1, 232051, Note_on_c, 0, 66, 67
1, 232055, Note_on_c, 0, 69, 28
1, 232057, Control_c, 0, 67, 41
1, 232061, Note_on_c, 0, 57, 60
1, 232072, Control_c, 0, 67, 40
1, 232087, Control_c, 0, 67, 39
1, 232091, Note_off_c, 0, 69, 52
1, 232099, Note_off_c, 0, 66, 58
1, 232101, Control_c, 0, 67, 38
1, 232117, Control_c, 0, 67, 36
1, 232127, Note_off_c, 0, 78, 62
1, 232132, Control_c, 0, 67, 34
1, 232147, Control_c, 0, 67, 32
1, 232162, Control_c, 0, 67, 31
1, 232177, Control_c, 0, 67, 30
1, 232191, Control_c, 0, 67, 29
1, 232206, Control_c, 0, 67, 28
1, 232221, Control_c, 0, 67, 27
1, 232235, Control_c, 0, 67, 26
1, 232250, Control_c, 0, 67, 24
1, 232260, Note_on_c, 0, 80, 88
1, 232265, Control_c, 0, 67, 23
1, 232266, Note_on_c, 0, 71, 60
1, 232268, Note_off_c, 0, 57, 37
1, 232277, Note_on_c, 0, 68, 70
1, 232280, Control_c, 0, 67, 20
1, 232282, Note_on_c, 0, 63, 60
1, 232295, Control_c, 0, 67, 16
1, 232306, Note_off_c, 0, 71, 59
1, 232310, Control_c, 0, 67, 12
1, 232325, Control_c, 0, 67, 8
1, 232340, Control_c, 0, 67, 0
1, 232353, Note_off_c, 0, 63, 59
1, 232374, Note_off_c, 0, 68, 59
1, 232410, Note_off_c, 0, 80, 60
1, 232571, Note_on_c, 0, 47, 52
1, 232577, Note_on_c, 0, 81, 88
1, 232594, Note_on_c, 0, 69, 68
1, 232605, Note_on_c, 0, 73, 62
1, 232622, Note_off_c, 0, 47, 62
1, 232723, Note_off_c, 0, 73, 39
1, 232955, Note_on_c, 0, 40, 66
1, 232978, Note_on_c, 0, 78, 75
1, 233015, Control_c, 0, 64, 110
1, 233030, Control_c, 0, 64, 96
1, 233044, Control_c, 0, 64, 84
1, 233057, Control_c, 0, 64, 73
1, 233072, Control_c, 0, 64, 64
1, 233087, Control_c, 0, 64, 61
1, 233102, Control_c, 0, 64, 63
1, 233117, Control_c, 0, 64, 66
1, 233131, Control_c, 0, 64, 69
1, 233146, Control_c, 0, 64, 72
1, 233159, Note_off_c, 0, 69, 53
1, 233161, Control_c, 0, 64, 75
1, 233176, Control_c, 0, 64, 79
1, 233191, Control_c, 0, 64, 83
1, 233205, Control_c, 0, 64, 87
1, 233217, Note_off_c, 0, 81, 57
1, 233220, Control_c, 0, 64, 92
1, 233235, Control_c, 0, 64, 97
1, 233250, Control_c, 0, 64, 102
1, 233265, Control_c, 0, 64, 106
1, 233280, Control_c, 0, 64, 110
1, 233295, Control_c, 0, 64, 114
1, 233310, Control_c, 0, 64, 119
1, 233325, Control_c, 0, 64, 127
1, 233341, Note_on_c, 0, 80, 77
1, 233349, Note_on_c, 0, 47, 56
1, 233349, Note_on_c, 0, 68, 71
1, 233351, Note_on_c, 0, 76, 68
1, 233361, Note_off_c, 0, 40, 35
1, 233379, Note_off_c, 0, 78, 59
1, 233446, Note_off_c, 0, 47, 60
1, 233452, Note_off_c, 0, 76, 50
1, 233454, Note_off_c, 0, 68, 57
1, 233502, Note_off_c, 0, 80, 62
1, 233611, Note_on_c, 0, 81, 80
1, 233626, Note_on_c, 0, 69, 66
1, 233629, Note_on_c, 0, 78, 73
1, 233635, Note_on_c, 0, 59, 56
1, 233667, Note_off_c, 0, 59, 63
1, 233669, Note_off_c, 0, 69, 60
1, 233681, Note_off_c, 0, 81, 63
1, 233724, Note_off_c, 0, 78, 62
1, 233836, Control_c, 0, 64, 101
1, 233843, Note_on_c, 0, 80, 77
1, 233850, Note_on_c, 0, 76, 58
1, 233851, Control_c, 0, 64, 84
1, 233852, Note_on_c, 0, 42, 59
1, 233857, Note_on_c, 0, 68, 64
1, 233866, Control_c, 0, 64, 74
1, 233873, Note_off_c, 0, 76, 63
1, 233880, Control_c, 0, 64, 68
1, 233910, Control_c, 0, 64, 71
1, 233925, Control_c, 0, 64, 75
1, 233927, Note_off_c, 0, 68, 61
1, 233940, Control_c, 0, 64, 79
1, 233954, Control_c, 0, 64, 82
1, 233969, Control_c, 0, 64, 84
1, 233984, Control_c, 0, 64, 87
1, 233985, Note_off_c, 0, 80, 58
1, 233999, Control_c, 0, 64, 91
1, 234013, Control_c, 0, 64, 95
1, 234028, Control_c, 0, 64, 98
1, 234041, Note_on_c, 0, 50, 56
1, 234043, Control_c, 0, 64, 99
1, 234051, Note_on_c, 0, 78, 73
1, 234058, Control_c, 0, 64, 100
1, 234062, Note_on_c, 0, 66, 66
1, 234064, Note_off_c, 0, 42, 38
1, 234073, Control_c, 0, 64, 101
1, 234081, Note_on_c, 0, 74, 51
1, 234088, Control_c, 0, 64, 103
1, 234103, Control_c, 0, 64, 107
1, 234114, Note_off_c, 0, 74, 64
1, 234118, Control_c, 0, 64, 112
1, 234120, Note_off_c, 0, 66, 61
1, 234133, Control_c, 0, 64, 117
1, 234147, Control_c, 0, 64, 124
1, 234149, Note_off_c, 0, 50, 53
1, 234150, Note_off_c, 0, 78, 63
1, 234162, Control_c, 0, 64, 127
1, 234192, Control_c, 0, 67, 8
1, 234243, Control_c, 0, 67, 8
1, 234257, Note_on_c, 0, 80, 64
1, 234267, Note_on_c, 0, 76, 60
1, 234272, Note_on_c, 0, 68, 54
1, 234273, Control_c, 0, 67, 9
1, 234276, Note_on_c, 0, 57, 52
1, 234288, Control_c, 0, 67, 9
1, 234315, Note_off_c, 0, 68, 58
1, 234317, Control_c, 0, 67, 10
1, 234341, Note_off_c, 0, 76, 59
1, 234344, Note_off_c, 0, 80, 57
1, 234347, Control_c, 0, 67, 10
1, 234362, Control_c, 0, 67, 11
1, 234377, Control_c, 0, 67, 11
1, 234392, Control_c, 0, 67, 12
1, 234406, Control_c, 0, 67, 12
1, 234409, Note_off_c, 0, 57, 33
1, 234436, Control_c, 0, 67, 13
1, 234451, Control_c, 0, 64, 113
1, 234466, Control_c, 0, 64, 101
1, 234466, Control_c, 0, 67, 13
1, 234475, Note_on_c, 0, 78, 63
1, 234479, Note_on_c, 0, 74, 56
1, 234480, Control_c, 0, 64, 90
1, 234489, Note_on_c, 0, 66, 44
1, 234495, Control_c, 0, 64, 79
1, 234495, Control_c, 0, 67, 14
1, 234498, Note_on_c, 0, 44, 49
1, 234511, Control_c, 0, 64, 70
1, 234511, Control_c, 0, 67, 14
1, 234526, Control_c, 0, 64, 65
1, 234526, Control_c, 0, 67, 15
1, 234541, Control_c, 0, 64, 64
1, 234541, Control_c, 0, 67, 17
1, 234556, Control_c, 0, 64, 65
1, 234556, Control_c, 0, 67, 20
1, 234568, Note_off_c, 0, 74, 52
1, 234571, Control_c, 0, 64, 67
1, 234571, Control_c, 0, 67, 22
1, 234585, Control_c, 0, 64, 70
1, 234585, Control_c, 0, 67, 23
1, 234600, Control_c, 0, 64, 72
1, 234600, Control_c, 0, 67, 24
1, 234610, Note_off_c, 0, 78, 60
1, 234613, Note_off_c, 0, 66, 61
1, 234615, Control_c, 0, 64, 75
1, 234615, Control_c, 0, 67, 25
1, 234629, Control_c, 0, 64, 77
1, 234629, Control_c, 0, 67, 27
1, 234644, Control_c, 0, 64, 79
1, 234644, Control_c, 0, 67, 28
1, 234659, Control_c, 0, 64, 81
1, 234659, Control_c, 0, 67, 29
1, 234674, Control_c, 0, 64, 82
1, 234674, Control_c, 0, 67, 29
1, 234689, Control_c, 0, 64, 84
1, 234689, Control_c, 0, 67, 30
1, 234703, Control_c, 0, 64, 86
1, 234703, Control_c, 0, 67, 32
1, 234718, Control_c, 0, 64, 89
1, 234718, Control_c, 0, 67, 34
1, 234733, Control_c, 0, 64, 91
1, 234733, Control_c, 0, 67, 36
1, 234747, Note_on_c, 0, 76, 65
1, 234748, Control_c, 0, 64, 92
1, 234748, Control_c, 0, 67, 37
1, 234762, Note_on_c, 0, 52, 47
1, 234763, Control_c, 0, 64, 93
1, 234763, Control_c, 0, 67, 38
1, 234767, Note_off_c, 0, 44, 36
1, 234769, Note_on_c, 0, 64, 46
1, 234777, Control_c, 0, 64, 93
1, 234777, Control_c, 0, 67, 38
1, 234792, Control_c, 0, 64, 96
1, 234792, Control_c, 0, 67, 39
1, 234795, Note_off_c, 0, 64, 58
1, 234807, Control_c, 0, 64, 101
1, 234807, Control_c, 0, 67, 39
1, 234819, Poly_aftertouch_c, 0, 73, 127
1, 234822, Control_c, 0, 64, 107
1, 234822, Control_c, 0, 67, 40
1, 234834, Note_off_c, 0, 52, 50
1, 234836, Control_c, 0, 64, 113
1, 234842, Note_off_c, 0, 76, 61
1, 234851, Control_c, 0, 64, 121
1, 234851, Control_c, 0, 67, 40
1, 234866, Control_c, 0, 64, 127
1, 234866, Control_c, 0, 67, 41
1, 234871, Poly_aftertouch_c, 0, 73, 0
1, 234896, Control_c, 0, 67, 41
1, 234911, Control_c, 0, 67, 42
1, 234925, Control_c, 0, 64, 122
1, 234940, Control_c, 0, 64, 108
1, 234940, Control_c, 0, 67, 42
1, 234951, Note_on_c, 0, 75, 65
1, 234955, Control_c, 0, 64, 96
1, 234955, Control_c, 0, 67, 43
1, 234958, Note_on_c, 0, 63, 54
1, 234967, Note_on_c, 0, 72, 36
1, 234967, Note_on_c, 0, 44, 45
1, 234970, Control_c, 0, 64, 86
1, 234970, Control_c, 0, 67, 44
1, 234992, Control_c, 0, 64, 77
1, 234992, Control_c, 0, 67, 45
1, 235007, Control_c, 0, 64, 71
1, 235007, Control_c, 0, 67, 47
1, 235008, Note_off_c, 0, 72, 51
1, 235022, Control_c, 0, 67, 49
1, 235036, Control_c, 0, 64, 75
1, 235036, Control_c, 0, 67, 50
1, 235037, Note_off_c, 0, 63, 60
1, 235051, Control_c, 0, 64, 79
1, 235051, Control_c, 0, 67, 52
1, 235066, Control_c, 0, 64, 83
1, 235066, Control_c, 0, 67, 54
1, 235081, Control_c, 0, 64, 85
1, 235081, Control_c, 0, 67, 54
1, 235088, Note_off_c, 0, 75, 61
1, 235096, Control_c, 0, 64, 87
1, 235096, Control_c, 0, 67, 55
1, 235110, Control_c, 0, 64, 90
1, 235110, Control_c, 0, 67, 56
1, 235125, Control_c, 0, 64, 94
1, 235125, Control_c, 0, 67, 56
1, 235140, Control_c, 0, 64, 95
1, 235140, Control_c, 0, 67, 57
1, 235155, Control_c, 0, 64, 95
1, 235155, Control_c, 0, 67, 58
1, 235170, Control_c, 0, 64, 90
1, 235170, Control_c, 0, 67, 59
1, 235173, Note_on_c, 0, 52, 50
1, 235185, Control_c, 0, 64, 82
1, 235185, Control_c, 0, 67, 60
1, 235200, Control_c, 0, 64, 74
1, 235200, Control_c, 0, 67, 61
1, 235212, Note_on_c, 0, 74, 61
1, 235215, Control_c, 0, 64, 66
1, 235215, Control_c, 0, 67, 62
1, 235220, Note_off_c, 0, 44, 41
1, 235229, Control_c, 0, 64, 64
1, 235229, Control_c, 0, 67, 64
1, 235232, Note_on_c, 0, 62, 39
1, 235240, Note_on_c, 0, 71, 48
1, 235244, Control_c, 0, 64, 65
1, 235244, Control_c, 0, 67, 65
1, 235259, Control_c, 0, 64, 68
1, 235259, Control_c, 0, 67, 65
1, 235274, Control_c, 0, 64, 71
1, 235274, Control_c, 0, 67, 66
1, 235289, Control_c, 0, 64, 75
1, 235289, Control_c, 0, 67, 67
1, 235305, Control_c, 0, 64, 77
1, 235305, Control_c, 0, 67, 68
1, 235307, Note_off_c, 0, 52, 47
1, 235320, Control_c, 0, 64, 81
1, 235320, Control_c, 0, 67, 69
1, 235334, Control_c, 0, 64, 85
1, 235334, Control_c, 0, 67, 70
1, 235349, Control_c, 0, 64, 89
1, 235364, Control_c, 0, 64, 92
1, 235364, Control_c, 0, 67, 70
1, 235379, Control_c, 0, 64, 96
1, 235381, Note_off_c, 0, 62, 36
1, 235394, Control_c, 0, 64, 99
1, 235394, Control_c, 0, 67, 71
1, 235408, Control_c, 0, 64, 102
1, 235423, Control_c, 0, 64, 106
1, 235423, Control_c, 0, 67, 72
1, 235438, Control_c, 0, 64, 109
1, 235438, Control_c, 0, 67, 72
1, 235450, Note_off_c, 0, 71, 40
1, 235453, Control_c, 0, 64, 113
1, 235453, Control_c, 0, 67, 73
1, 235465, Note_off_c, 0, 74, 38
1, 235468, Control_c, 0, 64, 118
1, 235468, Control_c, 0, 67, 74
1, 235483, Control_c, 0, 64, 127
1, 235483, Control_c, 0, 67, 76
1, 235498, Control_c, 0, 67, 76
1, 235501, Note_on_c, 0, 64, 43
1, 235513, Control_c, 0, 67, 77
1, 235527, Control_c, 0, 67, 78
1, 235542, Control_c, 0, 67, 80
1, 235554, Note_off_c, 0, 64, 42
1, 235557, Control_c, 0, 67, 82
1, 235571, Control_c, 0, 67, 83
1, 235586, Control_c, 0, 67, 85
1, 235601, Control_c, 0, 67, 86
1, 235616, Control_c, 0, 67, 88
1, 235631, Control_c, 0, 67, 90
1, 235646, Control_c, 0, 67, 93
1, 235660, Control_c, 0, 67, 96
1, 235675, Control_c, 0, 67, 98
1, 235690, Control_c, 0, 67, 100
1, 235705, Control_c, 0, 67, 103
1, 235720, Control_c, 0, 67, 105
1, 235742, Control_c, 0, 67, 108
1, 235757, Control_c, 0, 67, 110
1, 235772, Control_c, 0, 67, 112
1, 235786, Control_c, 0, 67, 113
1, 235801, Control_c, 0, 67, 114
1, 235816, Control_c, 0, 67, 116
1, 235831, Control_c, 0, 67, 118
1, 235835, Note_on_c, 0, 72, 61
1, 235846, Control_c, 0, 67, 119
1, 235858, Note_on_c, 0, 68, 51
1, 235860, Control_c, 0, 67, 121
1, 235875, Control_c, 0, 67, 122
1, 235881, Note_on_c, 0, 52, 39
1, 235890, Control_c, 0, 67, 124
1, 235905, Control_c, 0, 67, 126
1, 235920, Control_c, 0, 67, 127
1, 235964, Note_off_c, 0, 72, 50
1, 235974, Note_off_c, 0, 68, 28
1, 236001, Note_off_c, 0, 52, 36
1, 236145, Note_on_c, 0, 73, 60
1, 236157, Note_on_c, 0, 69, 47
1, 236157, Control_c, 0, 64, 103
1, 236172, Control_c, 0, 64, 90
1, 236177, Note_on_c, 0, 45, 33
1, 236177, Note_on_c, 0, 61, 36
1, 236187, Control_c, 0, 64, 79
1, 236201, Control_c, 0, 64, 70
1, 236216, Control_c, 0, 64, 64
1, 236231, Control_c, 0, 64, 63
1, 236246, Control_c, 0, 64, 64
1, 236261, Control_c, 0, 64, 66
1, 236276, Control_c, 0, 64, 69
1, 236291, Control_c, 0, 64, 74
1, 236306, Control_c, 0, 64, 79
1, 236315, Note_off_c, 0, 61, 47
1, 236320, Control_c, 0, 64, 84
1, 236335, Control_c, 0, 64, 88
1, 236350, Control_c, 0, 64, 92
1, 236361, Note_on_c, 0, 52, 49
1, 236365, Control_c, 0, 64, 96
1, 236373, Note_off_c, 0, 45, 43
1, 236380, Control_c, 0, 64, 100
1, 236395, Control_c, 0, 64, 103
1, 236409, Control_c, 0, 64, 106
1, 236424, Control_c, 0, 64, 109
1, 236425, Note_off_c, 0, 73, 33
1, 236439, Control_c, 0, 64, 115
1, 236454, Control_c, 0, 64, 127
1, 236515, Note_off_c, 0, 52, 37
1, 236552, Note_on_c, 0, 76, 65
1, 236567, Note_on_c, 0, 73, 58
1, 236573, Note_on_c, 0, 45, 41
1, 236585, Note_off_c, 0, 69, 50
1, 236600, Note_on_c, 0, 64, 13
1, 236635, Note_off_c, 0, 73, 59
1, 236642, Note_off_c, 0, 64, 54
1, 236647, Note_off_c, 0, 76, 61
1, 236845, Note_on_c, 0, 52, 38
1, 236865, Note_on_c, 0, 81, 63
1, 236877, Note_on_c, 0, 73, 54
1, 236892, Note_on_c, 0, 69, 46
1, 236951, Note_off_c, 0, 45, 41
1, 236994, Note_off_c, 0, 52, 35
1, 237009, Note_off_c, 0, 81, 57
1, 237039, Note_off_c, 0, 69, 36
1, 237098, Note_on_c, 0, 57, 45
1, 237110, Note_off_c, 0, 73, 32
1, 237277, Note_on_c, 0, 80, 64
1, 237287, Note_on_c, 0, 76, 53
1, 237293, Note_on_c, 0, 68, 51
1, 237303, Note_on_c, 0, 61, 43
1, 237334, Note_off_c, 0, 61, 56
1, 237338, Note_off_c, 0, 68, 54
1, 237353, Note_off_c, 0, 76, 61
1, 237361, Note_off_c, 0, 80, 61
1, 237489, Note_on_c, 0, 80, 55
1, 237501, Note_on_c, 0, 76, 57
1, 237505, Control_c, 0, 64, 101
1, 237511, Note_on_c, 0, 68, 41
1, 237520, Control_c, 0, 64, 86
1, 237522, Note_on_c, 0, 45, 44
1, 237535, Control_c, 0, 64, 75
1, 237549, Control_c, 0, 64, 67
1, 237553, Note_off_c, 0, 68, 61
1, 237564, Control_c, 0, 64, 64
1, 237574, Note_off_c, 0, 76, 62
1, 237579, Note_off_c, 0, 57, 36
1, 237579, Control_c, 0, 64, 66
1, 237580, Note_off_c, 0, 80, 58
1, 237594, Control_c, 0, 64, 69
1, 237609, Control_c, 0, 64, 72
1, 237623, Control_c, 0, 64, 76
1, 237638, Control_c, 0, 64, 80
1, 237653, Control_c, 0, 64, 84
1, 237668, Control_c, 0, 64, 89
1, 237677, Note_on_c, 0, 78, 69
1, 237683, Control_c, 0, 64, 94
1, 237689, Note_on_c, 0, 52, 47
1, 237697, Note_on_c, 0, 66, 59
1, 237699, Control_c, 0, 64, 99
1, 237714, Note_off_c, 0, 45, 31
1, 237714, Control_c, 0, 64, 104
1, 237718, Note_on_c, 0, 74, 25
1, 237728, Note_off_c, 0, 66, 62
1, 237728, Control_c, 0, 64, 110
1, 237738, Note_off_c, 0, 78, 62
1, 237743, Control_c, 0, 64, 117
1, 237757, Note_off_c, 0, 74, 52
1, 237758, Control_c, 0, 64, 127
1, 237810, Note_off_c, 0, 52, 37
1, 237873, Note_on_c, 0, 76, 69
1, 237876, Note_on_c, 0, 45, 51
1, 237902, Note_on_c, 0, 73, 44
1, 237910, Note_on_c, 0, 64, 15
1, 237929, Note_off_c, 0, 76, 60
1, 237936, Note_off_c, 0, 73, 55
1, 237953, Note_off_c, 0, 64, 54
1, 238076, Control_c, 0, 64, 126
1, 238088, Note_on_c, 0, 78, 63
1, 238090, Note_on_c, 0, 74, 51
1, 238091, Control_c, 0, 64, 107
1, 238106, Control_c, 0, 64, 93
1, 238121, Control_c, 0, 64, 81
1, 238124, Note_on_c, 0, 52, 44
1, 238131, Note_on_c, 0, 66, 33
1, 238136, Control_c, 0, 64, 70
1, 238142, Note_off_c, 0, 45, 44
1, 238151, Control_c, 0, 64, 64
1, 238166, Control_c, 0, 64, 64
1, 238180, Control_c, 0, 64, 66
1, 238195, Control_c, 0, 64, 69
1, 238201, Note_off_c, 0, 52, 50
1, 238205, Note_off_c, 0, 74, 62
1, 238210, Control_c, 0, 64, 73
1, 238225, Control_c, 0, 64, 76
1, 238229, Note_off_c, 0, 78, 60
1, 238240, Control_c, 0, 64, 80
1, 238254, Control_c, 0, 64, 84
1, 238269, Control_c, 0, 64, 88
1, 238284, Control_c, 0, 64, 92
1, 238300, Control_c, 0, 64, 97
1, 238315, Control_c, 0, 64, 102
1, 238315, Note_on_c, 0, 56, 50
1, 238329, Control_c, 0, 64, 107
1, 238343, Note_off_c, 0, 66, 38
1, 238344, Control_c, 0, 64, 111
1, 238359, Control_c, 0, 64, 115
1, 238373, Control_c, 0, 64, 121
1, 238388, Control_c, 0, 64, 127
1, 238431, Note_off_c, 0, 56, 50
1, 238498, Note_on_c, 0, 71, 56
1, 238504, Note_on_c, 0, 68, 45
1, 238517, Note_on_c, 0, 62, 45
1, 238554, Note_off_c, 0, 62, 59
1, 238586, Note_off_c, 0, 68, 48
1, 238613, Note_off_c, 0, 71, 63
1, 238758, Note_on_c, 0, 73, 61
1, 238771, Note_on_c, 0, 69, 38
1, 238791, Note_on_c, 0, 45, 38
1, 238797, Control_c, 0, 64, 108
1, 238801, Note_on_c, 0, 61, 33
1, 238811, Control_c, 0, 64, 88
1, 238826, Control_c, 0, 64, 75
1, 238841, Control_c, 0, 64, 65
1, 238856, Control_c, 0, 64, 58
1, 238871, Control_c, 0, 64, 61
1, 238885, Control_c, 0, 64, 65
1, 238900, Control_c, 0, 64, 69
1, 238915, Control_c, 0, 64, 73
1, 238921, Note_off_c, 0, 61, 40
1, 238928, Note_off_c, 0, 69, 60
1, 238930, Control_c, 0, 64, 77
1, 238945, Control_c, 0, 64, 82
1, 238959, Control_c, 0, 64, 89
1, 238974, Control_c, 0, 64, 96
1, 238981, Note_off_c, 0, 73, 59
1, 238989, Control_c, 0, 64, 101
1, 238999, Note_on_c, 0, 52, 52
1, 239003, Control_c, 0, 64, 105
1, 239018, Control_c, 0, 64, 108
1, 239033, Control_c, 0, 64, 111
1, 239048, Control_c, 0, 64, 117
1, 239056, Note_off_c, 0, 45, 39
1, 239063, Control_c, 0, 64, 127
1, 239092, Note_on_c, 0, 64, 55
1, 239166, Note_off_c, 0, 64, 62
1, 239193, Note_on_c, 0, 76, 48
1, 239204, Note_on_c, 0, 73, 21
1, 239217, Note_off_c, 0, 52, 37
1, 239233, Note_on_c, 0, 45, 47
1, 239233, Note_off_c, 0, 76, 62
1, 239245, Note_off_c, 0, 73, 53
1, 239325, Note_on_c, 0, 76, 65
1, 239611, Note_on_c, 0, 52, 36
1, 239642, Note_on_c, 0, 88, 79
1, 239665, Note_on_c, 0, 85, 60
1, 239707, Note_off_c, 0, 45, 43
1, 239790, Note_off_c, 0, 52, 30
1, 239853, Note_off_c, 0, 76, 41
1, 239871, Control_c, 0, 67, 126
1, 239886, Control_c, 0, 67, 125
1, 239901, Control_c, 0, 67, 122
1, 239904, Note_on_c, 0, 57, 45
1, 239915, Control_c, 0, 67, 120
1, 239930, Control_c, 0, 67, 119
1, 239945, Control_c, 0, 67, 118
1, 239960, Control_c, 0, 67, 116
1, 239975, Control_c, 0, 67, 113
1, 239990, Control_c, 0, 67, 110
1, 240005, Control_c, 0, 67, 107
1, 240019, Control_c, 0, 67, 105
1, 240034, Control_c, 0, 67, 103
1, 240049, Control_c, 0, 67, 101
1, 240064, Control_c, 0, 67, 100
1, 240079, Control_c, 0, 67, 98
1, 240088, Note_on_c, 0, 61, 50
1, 240094, Control_c, 0, 67, 97
1, 240099, Note_off_c, 0, 57, 0
1, 240109, Control_c, 0, 67, 96
1, 240124, Control_c, 0, 67, 97
1, 240125, Note_off_c, 0, 61, 62
1, 240132, Note_on_c, 0, 57, 4
1, 240139, Control_c, 0, 67, 98
1, 240154, Control_c, 0, 67, 100
1, 240168, Control_c, 0, 67, 100
1, 240183, Control_c, 0, 67, 101
1, 240198, Control_c, 0, 67, 102
1, 240220, Control_c, 0, 67, 104
1, 240235, Control_c, 0, 67, 104
1, 240249, Control_c, 0, 67, 105
1, 240264, Control_c, 0, 67, 106
1, 240279, Control_c, 0, 67, 106
1, 240294, Control_c, 0, 67, 107
1, 240309, Control_c, 0, 67, 109
1, 240324, Control_c, 0, 67, 111
1, 240339, Control_c, 0, 67, 113
1, 240354, Control_c, 0, 67, 115
1, 240354, Note_on_c, 0, 45, 41
1, 240369, Control_c, 0, 67, 117
1, 240383, Control_c, 0, 67, 119
1, 240398, Control_c, 0, 67, 121
1, 240413, Control_c, 0, 64, 123
1, 240413, Control_c, 0, 67, 123
1, 240428, Control_c, 0, 64, 121
1, 240428, Control_c, 0, 67, 124
1, 240434, Note_off_c, 0, 57, 24
1, 240443, Control_c, 0, 67, 125
1, 240457, Control_c, 0, 67, 126
1, 240472, Control_c, 0, 64, 118
1, 240472, Control_c, 0, 67, 127
1, 240487, Control_c, 0, 64, 109
1, 240487, Control_c, 0, 67, 127
1, 240502, Control_c, 0, 64, 98
1, 240517, Control_c, 0, 64, 88
1, 240524, Note_on_c, 0, 87, 77
1, 240531, Control_c, 0, 64, 81
1, 240535, Note_on_c, 0, 84, 53
1, 240538, Note_on_c, 0, 75, 52
1, 240546, Control_c, 0, 64, 75
1, 240550, Note_on_c, 0, 52, 41
1, 240551, Note_off_c, 0, 85, 19
1, 240561, Control_c, 0, 64, 71
1, 240575, Control_c, 0, 64, 69
1, 240590, Control_c, 0, 64, 71
1, 240605, Control_c, 0, 64, 75
1, 240611, Note_off_c, 0, 45, 44
1, 240620, Control_c, 0, 64, 80
1, 240625, Note_off_c, 0, 84, 52
1, 240631, Note_off_c, 0, 88, 35
1, 240635, Control_c, 0, 64, 85
1, 240649, Control_c, 0, 64, 89
1, 240664, Control_c, 0, 64, 94
1, 240679, Control_c, 0, 64, 101
1, 240690, Note_off_c, 0, 75, 45
1, 240694, Control_c, 0, 64, 109
1, 240709, Control_c, 0, 64, 127
1, 240711, Note_off_c, 0, 87, 60
1, 240738, Control_c, 0, 67, 127
1, 240768, Control_c, 0, 67, 126
1, 240784, Note_off_c, 0, 52, 34
1, 240813, Control_c, 0, 67, 126
1, 240842, Control_c, 0, 67, 125
1, 240870, Note_on_c, 0, 45, 39
1, 240917, Control_c, 0, 67, 125
1, 240998, Control_c, 0, 67, 124
1, 241001, Note_on_c, 0, 83, 60
1, 241002, Note_on_c, 0, 86, 68
1, 241018, Note_on_c, 0, 74, 47
1, 241021, Note_off_c, 0, 83, 62
1, 241028, Control_c, 0, 67, 124
1, 241032, Note_off_c, 0, 86, 62
1, 241043, Note_off_c, 0, 74, 60
1, 241087, Control_c, 0, 67, 123
1, 241102, Control_c, 0, 67, 123
1, 241115, Note_on_c, 0, 86, 60
1, 241118, Note_on_c, 0, 83, 42
1, 241120, Note_on_c, 0, 74, 62
1, 241132, Control_c, 0, 67, 122
1, 241138, Note_on_c, 0, 52, 46
1, 241147, Control_c, 0, 67, 122
1, 241161, Control_c, 0, 67, 121
1, 241176, Note_off_c, 0, 45, 44
1, 241176, Control_c, 0, 67, 121
1, 241191, Control_c, 0, 67, 120
1, 241200, Note_off_c, 0, 74, 41
1, 241230, Note_off_c, 0, 86, 49
1, 241233, Note_off_c, 0, 83, 51
1, 241251, Control_c, 0, 67, 120
1, 241264, Note_off_c, 0, 52, 45
1, 241340, Control_c, 0, 67, 119
1, 241413, Control_c, 0, 67, 119
1, 241427, Note_on_c, 0, 85, 70
1, 241430, Note_on_c, 0, 56, 46
1, 241444, Note_on_c, 0, 73, 58
1, 241457, Note_on_c, 0, 81, 22
1, 241458, Control_c, 0, 67, 118
1, 241487, Control_c, 0, 67, 118
1, 241488, Note_off_c, 0, 73, 58
1, 241492, Note_off_c, 0, 81, 45
1, 241502, Control_c, 0, 67, 117
1, 241516, Control_c, 0, 67, 117
1, 241529, Note_off_c, 0, 85, 58
1, 241533, Note_off_c, 0, 56, 50
1, 241546, Control_c, 0, 67, 116
1, 241576, Control_c, 0, 67, 116
1, 241591, Control_c, 0, 67, 115
1, 241606, Control_c, 0, 67, 114
1, 241645, Note_on_c, 0, 84, 69
1, 241657, Note_on_c, 0, 62, 41
1, 241663, Note_on_c, 0, 72, 56
1, 241665, Control_c, 0, 67, 115
1, 241668, Note_on_c, 0, 80, 51
1, 241686, Note_off_c, 0, 62, 59
1, 241695, Control_c, 0, 67, 115
1, 241697, Note_off_c, 0, 72, 63
1, 241703, Note_off_c, 0, 80, 48
1, 241710, Control_c, 0, 67, 116
1, 241730, Note_off_c, 0, 84, 60
1, 241748, Control_c, 0, 67, 117
1, 241792, Control_c, 0, 67, 117
1, 241807, Control_c, 0, 67, 118
1, 241821, Control_c, 0, 67, 118
1, 241836, Control_c, 0, 67, 119
1, 241880, Note_on_c, 0, 85, 66
1, 241895, Control_c, 0, 64, 119
1, 241902, Note_on_c, 0, 73, 51
1, 241907, Note_on_c, 0, 81, 43
1, 241910, Control_c, 0, 64, 91
1, 241914, Note_on_c, 0, 45, 45
1, 241925, Control_c, 0, 64, 75
1, 241940, Control_c, 0, 64, 63
1, 241954, Control_c, 0, 64, 57
1, 241954, Control_c, 0, 67, 118
1, 241961, Note_off_c, 0, 81, 0
1, 241961, Note_on_c, 0, 81, 12
1, 241969, Control_c, 0, 64, 58
1, 241984, Control_c, 0, 64, 63
1, 241984, Control_c, 0, 67, 118
1, 241997, Note_off_c, 0, 73, 60
1, 241999, Control_c, 0, 64, 67
1, 242014, Control_c, 0, 64, 70
1, 242029, Control_c, 0, 64, 73
1, 242029, Control_c, 0, 67, 117
1, 242038, Note_off_c, 0, 85, 62
1, 242044, Control_c, 0, 64, 77
1, 242059, Control_c, 0, 64, 80
1, 242074, Control_c, 0, 64, 84
1, 242074, Control_c, 0, 67, 117
1, 242089, Control_c, 0, 64, 88
1, 242103, Control_c, 0, 64, 92
1, 242118, Control_c, 0, 64, 96
1, 242133, Control_c, 0, 64, 100
1, 242147, Control_c, 0, 64, 104
1, 242162, Control_c, 0, 64, 109
1, 242162, Control_c, 0, 67, 116
1, 242177, Control_c, 0, 64, 117
1, 242187, Note_on_c, 0, 88, 64
1, 242191, Note_on_c, 0, 85, 51
1, 242192, Control_c, 0, 64, 127
1, 242192, Control_c, 0, 67, 116
1, 242207, Control_c, 0, 67, 115
1, 242220, Note_on_c, 0, 76, 43
1, 242221, Control_c, 0, 67, 115
1, 242222, Note_on_c, 0, 52, 43
1, 242230, Note_off_c, 0, 45, 41
1, 242236, Control_c, 0, 67, 114
1, 242251, Control_c, 0, 67, 114
1, 242270, Note_off_c, 0, 81, 44
1, 242281, Control_c, 0, 67, 113
1, 242310, Control_c, 0, 67, 113
1, 242325, Control_c, 0, 67, 112
1, 242338, Note_off_c, 0, 76, 39
1, 242340, Control_c, 0, 67, 111
1, 242354, Control_c, 0, 67, 109
1, 242360, Note_off_c, 0, 85, 56
1, 242369, Note_off_c, 0, 88, 56
1, 242369, Control_c, 0, 67, 106
1, 242384, Control_c, 0, 67, 104
1, 242399, Control_c, 0, 67, 102
1, 242413, Control_c, 0, 67, 100
1, 242428, Control_c, 0, 67, 98
1, 242443, Control_c, 0, 67, 97
1, 242458, Control_c, 0, 67, 96
1, 242481, Control_c, 0, 67, 95
1, 242497, Control_c, 0, 67, 95
1, 242512, Control_c, 0, 67, 94
1, 242526, Control_c, 0, 67, 93
1, 242541, Control_c, 0, 67, 92
1, 242556, Control_c, 0, 67, 91
1, 242570, Control_c, 0, 67, 90
1, 242581, Note_off_c, 0, 52, 40
1, 242585, Control_c, 0, 67, 89
1, 242612, Note_on_c, 0, 61, 42
1, 242615, Control_c, 0, 67, 89
1, 242630, Control_c, 0, 67, 88
1, 242644, Control_c, 0, 67, 88
1, 242659, Control_c, 0, 67, 86
1, 242671, Note_off_c, 0, 61, 53
1, 242674, Control_c, 0, 67, 86
1, 242704, Control_c, 0, 67, 85
1, 242777, Control_c, 0, 67, 86
1, 242867, Control_c, 0, 67, 86
1, 243162, Control_c, 0, 67, 86
1, 243263, Note_on_c, 0, 93, 54
1, 243275, Note_on_c, 0, 85, 52
1, 243287, Note_on_c, 0, 81, 39
1, 243322, Note_off_c, 0, 85, 58
1, 243330, Note_off_c, 0, 81, 56
1, 243339, Note_off_c, 0, 93, 57
1, 243408, Control_c, 0, 67, 85
1, 243457, Note_on_c, 0, 93, 50
1, 243461, Note_on_c, 0, 85, 40
1, 243466, Note_on_c, 0, 81, 28
1, 243490, Note_on_c, 0, 64, 25
1, 243501, Note_on_c, 0, 73, 25
1, 243527, Control_c, 0, 67, 85
1, 243606, Note_off_c, 0, 81, 38
1, 243614, Note_off_c, 0, 85, 34
1, 243638, Note_off_c, 0, 93, 40
1, 243674, Control_c, 0, 67, 84
1, 243793, Control_c, 0, 67, 84
1, 243897, Control_c, 0, 67, 83
1, 243900, Note_off_c, 0, 73, 37
1, 243911, Control_c, 0, 67, 80
1, 243926, Control_c, 0, 67, 77
1, 243941, Control_c, 0, 67, 76
1, 243956, Control_c, 0, 67, 74
1, 243978, Control_c, 0, 67, 73
1, 243993, Control_c, 0, 67, 73
1, 244008, Control_c, 0, 67, 72
1, 244023, Control_c, 0, 67, 71
1, 244038, Control_c, 0, 64, 118
1, 244038, Control_c, 0, 67, 69
1, 244053, Control_c, 0, 64, 113
1, 244053, Control_c, 0, 67, 68
1, 244059, Note_off_c, 0, 64, 30
1, 244067, Control_c, 0, 64, 109
1, 244067, Control_c, 0, 67, 66
1, 244082, Control_c, 0, 64, 106
1, 244082, Control_c, 0, 67, 64
1, 244098, Control_c, 0, 64, 103
1, 244098, Control_c, 0, 67, 63
1, 244113, Control_c, 0, 64, 102
1, 244113, Control_c, 0, 67, 62
1, 244127, Control_c, 0, 64, 100
1, 244127, Control_c, 0, 67, 61
1, 244142, Control_c, 0, 64, 98
1, 244142, Control_c, 0, 67, 60
1, 244157, Control_c, 0, 64, 96
1, 244157, Control_c, 0, 67, 57
1, 244172, Control_c, 0, 64, 94
1, 244172, Control_c, 0, 67, 56
1, 244187, Control_c, 0, 64, 93
1, 244187, Control_c, 0, 67, 54
1, 244202, Control_c, 0, 64, 91
1, 244202, Control_c, 0, 67, 53
1, 244216, Control_c, 0, 64, 91
1, 244216, Control_c, 0, 67, 52
1, 244231, Control_c, 0, 64, 90
1, 244231, Control_c, 0, 67, 50
1, 244246, Control_c, 0, 64, 89
1, 244246, Control_c, 0, 67, 49
1, 244261, Control_c, 0, 64, 89
1, 244261, Control_c, 0, 67, 47
1, 244276, Control_c, 0, 64, 88
1, 244276, Control_c, 0, 67, 45
1, 244290, Control_c, 0, 64, 87
1, 244290, Control_c, 0, 67, 44
1, 244305, Control_c, 0, 64, 86
1, 244305, Control_c, 0, 67, 42
1, 244320, Control_c, 0, 64, 86
1, 244320, Control_c, 0, 67, 40
1, 244335, Control_c, 0, 64, 85
1, 244335, Control_c, 0, 67, 37
1, 244349, Control_c, 0, 64, 85
1, 244349, Control_c, 0, 67, 35
1, 244364, Control_c, 0, 64, 84
1, 244364, Control_c, 0, 67, 33
1, 244379, Control_c, 0, 64, 83
1, 244379, Control_c, 0, 67, 31
1, 244394, Control_c, 0, 64, 83
1, 244394, Control_c, 0, 67, 29
1, 244409, Control_c, 0, 64, 82
1, 244409, Control_c, 0, 67, 28
1, 244423, Control_c, 0, 64, 81
1, 244423, Control_c, 0, 67, 25
1, 244438, Control_c, 0, 64, 81
1, 244438, Control_c, 0, 67, 23
1, 244453, Control_c, 0, 64, 80
1, 244453, Control_c, 0, 67, 21
1, 244468, Control_c, 0, 64, 79
1, 244468, Control_c, 0, 67, 20
1, 244483, Control_c, 0, 67, 19
1, 244497, Control_c, 0, 64, 79
1, 244497, Control_c, 0, 67, 18
1, 244512, Control_c, 0, 64, 78
1, 244512, Control_c, 0, 67, 17
1, 244527, Control_c, 0, 64, 77
1, 244527, Control_c, 0, 67, 17
1, 244542, Control_c, 0, 64, 76
1, 244557, Control_c, 0, 64, 75
1, 244572, Control_c, 0, 64, 74
1, 244587, Control_c, 0, 64, 73
1, 244601, Control_c, 0, 64, 72
1, 244616, Control_c, 0, 64, 71
1, 244631, Control_c, 0, 64, 70
1, 244646, Control_c, 0, 64, 70
1, 244661, Control_c, 0, 64, 69
1, 244676, Control_c, 0, 67, 18
1, 244690, Control_c, 0, 64, 69
1, 244690, Control_c, 0, 67, 18
1, 244705, Control_c, 0, 64, 68
1, 244705, Control_c, 0, 67, 19
1, 244727, Control_c, 0, 64, 68
1, 244727, Control_c, 0, 67, 19
1, 244742, Control_c, 0, 64, 67
1, 244742, Control_c, 0, 67, 20
1, 244756, Control_c, 0, 64, 66
1, 244756, Control_c, 0, 67, 21
1, 244771, Control_c, 0, 67, 22
1, 244786, Control_c, 0, 64, 66
1, 244786, Control_c, 0, 67, 23
1, 244801, Control_c, 0, 67, 24
1, 244816, Control_c, 0, 64, 65
1, 244816, Control_c, 0, 67, 25
1, 244831, Control_c, 0, 64, 65
1, 244831, Control_c, 0, 67, 25
1, 244846, Control_c, 0, 64, 64
1, 244846, Control_c, 0, 67, 27
1, 244861, Control_c, 0, 64, 64
1, 244861, Control_c, 0, 67, 28
1, 244875, Control_c, 0, 67, 29
1, 244891, Control_c, 0, 64, 63
1, 244891, Control_c, 0, 67, 30
1, 244906, Control_c, 0, 67, 32
1, 244920, Control_c, 0, 64, 63
1, 244920, Control_c, 0, 67, 35
1, 244935, Control_c, 0, 64, 62
1, 244935, Control_c, 0, 67, 38
1, 244950, Control_c, 0, 64, 62
1, 244950, Control_c, 0, 67, 41
1, 244965, Control_c, 0, 67, 43
1, 244980, Control_c, 0, 67, 45
1, 244995, Control_c, 0, 67, 46
1, 245010, Control_c, 0, 67, 48
1, 245013, Note_on_c, 0, 64, 67
1, 245025, Control_c, 0, 64, 62
1, 245025, Control_c, 0, 67, 49
1, 245038, Control_c, 0, 64, 63
1, 245038, Control_c, 0, 67, 50
1, 245053, Control_c, 0, 64, 64
1, 245053, Control_c, 0, 67, 52
1, 245068, Control_c, 0, 64, 65
1, 245068, Control_c, 0, 67, 53
1, 245083, Control_c, 0, 64, 66
1, 245083, Control_c, 0, 67, 55
1, 245098, Control_c, 0, 64, 67
1, 245098, Control_c, 0, 67, 57
1, 245112, Control_c, 0, 64, 69
1, 245112, Control_c, 0, 67, 58
1, 245127, Control_c, 0, 64, 70
1, 245127, Control_c, 0, 67, 59
1, 245142, Control_c, 0, 64, 73
1, 245142, Control_c, 0, 67, 59
1, 245157, Control_c, 0, 64, 75
1, 245157, Control_c, 0, 67, 60
1, 245171, Control_c, 0, 64, 78
1, 245186, Control_c, 0, 64, 80
1, 245186, Control_c, 0, 67, 59
1, 245201, Control_c, 0, 64, 82
1, 245201, Control_c, 0, 67, 59
1, 245216, Control_c, 0, 64, 84
1, 245216, Control_c, 0, 67, 58
1, 245231, Control_c, 0, 64, 87
1, 245245, Control_c, 0, 64, 92
1, 245245, Control_c, 0, 67, 58
1, 245260, Control_c, 0, 64, 97
1, 245260, Control_c, 0, 67, 57
1, 245275, Control_c, 0, 64, 102
1, 245275, Control_c, 0, 67, 57
1, 245290, Control_c, 0, 64, 107
1, 245305, Control_c, 0, 64, 113
1, 245305, Control_c, 0, 67, 56
1, 245320, Control_c, 0, 64, 127
1, 245320, Control_c, 0, 67, 56
1, 245350, Control_c, 0, 67, 55
1, 245366, Note_off_c, 0, 64, 32
1, 245513, Note_on_c, 0, 64, 70
1, 245705, Note_on_c, 0, 66, 44
1, 245713, Control_c, 0, 67, 55
1, 245746, Note_off_c, 0, 64, 61
1, 245758, Control_c, 0, 67, 54
1, 245784, Note_off_c, 0, 66, 55
1, 245854, Note_on_c, 0, 64, 39
1, 245884, Note_off_c, 0, 64, 61
1, 245916, Note_on_c, 0, 66, 38
1, 245949, Note_off_c, 0, 66, 52
1, 245979, Note_on_c, 0, 64, 52
1, 246016, Note_off_c, 0, 64, 62
1, 246035, Note_on_c, 0, 66, 45
1, 246065, Note_off_c, 0, 66, 54
1, 246106, Note_on_c, 0, 64, 42
1, 246133, Note_on_c, 0, 66, 53
1, 246136, Note_off_c, 0, 64, 53
1, 246172, Note_off_c, 0, 66, 62
1, 246172, Control_c, 0, 67, 55
1, 246201, Note_on_c, 0, 64, 48
1, 246234, Note_off_c, 0, 64, 63
1, 246239, Control_c, 0, 67, 55
1, 246242, Note_on_c, 0, 66, 51
1, 246282, Note_off_c, 0, 66, 59
1, 246327, Note_on_c, 0, 64, 40
1, 246339, Note_on_c, 0, 66, 49
1, 246364, Note_off_c, 0, 64, 47
1, 246381, Note_off_c, 0, 66, 62
1, 246404, Note_on_c, 0, 64, 47
1, 246435, Note_on_c, 0, 66, 51
1, 246435, Note_off_c, 0, 64, 62
1, 246491, Note_off_c, 0, 66, 60
1, 246512, Note_on_c, 0, 64, 56
1, 246539, Note_off_c, 0, 64, 59
1, 246542, Note_on_c, 0, 66, 49
1, 246587, Note_off_c, 0, 66, 61
1, 246622, Note_on_c, 0, 64, 44
1, 246625, Control_c, 0, 67, 54
1, 246643, Note_on_c, 0, 66, 54
1, 246651, Note_off_c, 0, 64, 56
1, 246670, Control_c, 0, 67, 54
1, 246694, Note_off_c, 0, 66, 61
1, 246699, Control_c, 0, 67, 53
1, 246714, Control_c, 0, 67, 53
1, 246728, Control_c, 0, 67, 52
1, 246729, Note_on_c, 0, 64, 48
1, 246747, Note_on_c, 0, 66, 47
1, 246755, Note_off_c, 0, 64, 58
1, 246758, Control_c, 0, 67, 52
1, 246773, Control_c, 0, 67, 51
1, 246788, Control_c, 0, 67, 50
1, 246803, Control_c, 0, 67, 50
1, 246804, Note_off_c, 0, 66, 60
1, 246822, Note_on_c, 0, 64, 66
1, 246832, Control_c, 0, 67, 49
1, 246847, Control_c, 0, 67, 48
1, 246852, Note_off_c, 0, 64, 67
1, 246858, Note_on_c, 0, 66, 54
1, 246862, Control_c, 0, 67, 48
1, 246891, Control_c, 0, 67, 47
1, 246906, Control_c, 0, 67, 46
1, 246915, Note_off_c, 0, 66, 62
1, 246921, Control_c, 0, 67, 44
1, 246928, Note_on_c, 0, 64, 63
1, 246935, Control_c, 0, 67, 42
1, 246950, Control_c, 0, 67, 40
1, 246968, Note_off_c, 0, 64, 62
1, 246973, Control_c, 0, 67, 39
1, 246975, Note_on_c, 0, 66, 60
1, 246988, Control_c, 0, 67, 38
1, 247003, Control_c, 0, 67, 36
1, 247017, Control_c, 0, 67, 35
1, 247032, Control_c, 0, 67, 33
1, 247037, Note_off_c, 0, 66, 60
1, 247047, Control_c, 0, 67, 32
1, 247062, Note_on_c, 0, 64, 69
1, 247062, Control_c, 0, 67, 30
1, 247077, Control_c, 0, 67, 28
1, 247090, Note_off_c, 0, 64, 66
1, 247091, Control_c, 0, 67, 27
1, 247103, Note_on_c, 0, 66, 47
1, 247106, Control_c, 0, 67, 25
1, 247121, Control_c, 0, 67, 24
1, 247135, Control_c, 0, 67, 23
1, 247150, Control_c, 0, 67, 22
1, 247158, Note_off_c, 0, 66, 61
1, 247165, Control_c, 0, 67, 20
1, 247172, Note_on_c, 0, 64, 69
1, 247180, Control_c, 0, 67, 19
1, 247195, Control_c, 0, 67, 17
1, 247204, Note_off_c, 0, 64, 63
1, 247210, Control_c, 0, 67, 16
1, 247213, Note_on_c, 0, 66, 59
1, 247225, Control_c, 0, 67, 14
1, 247240, Control_c, 0, 67, 12
1, 247254, Control_c, 0, 67, 10
1, 247269, Control_c, 0, 67, 8
1, 247272, Note_off_c, 0, 66, 62
1, 247284, Control_c, 0, 67, 0
1, 247291, Note_on_c, 0, 64, 70
1, 247324, Note_off_c, 0, 64, 66
1, 247325, Note_on_c, 0, 66, 63
1, 247384, Note_off_c, 0, 66, 61
1, 247400, Note_on_c, 0, 64, 73
1, 247450, Note_off_c, 0, 64, 64
1, 247454, Note_on_c, 0, 66, 55
1, 247511, Note_off_c, 0, 66, 62
1, 247531, Note_on_c, 0, 64, 67
1, 247568, Note_on_c, 0, 66, 52
1, 247568, Note_off_c, 0, 64, 60
1, 247595, Control_c, 0, 67, 8
1, 247610, Control_c, 0, 67, 9
1, 247625, Control_c, 0, 67, 10
1, 247633, Note_off_c, 0, 66, 61
1, 247639, Control_c, 0, 67, 11
1, 247647, Note_on_c, 0, 64, 60
1, 247654, Control_c, 0, 67, 11
1, 247669, Control_c, 0, 67, 12
1, 247681, Note_off_c, 0, 64, 62
1, 247684, Control_c, 0, 67, 12
1, 247687, Note_on_c, 0, 66, 46
1, 247699, Control_c, 0, 67, 13
1, 247721, Control_c, 0, 67, 14
1, 247736, Control_c, 0, 67, 15
1, 247751, Note_off_c, 0, 66, 61
1, 247751, Control_c, 0, 67, 15
1, 247765, Control_c, 0, 67, 16
1, 247769, Note_on_c, 0, 64, 54
1, 247780, Control_c, 0, 67, 17
1, 247795, Control_c, 0, 67, 18
1, 247810, Note_off_c, 0, 64, 59
1, 247810, Control_c, 0, 67, 19
1, 247819, Note_on_c, 0, 66, 43
1, 247825, Control_c, 0, 67, 21
1, 247839, Control_c, 0, 67, 22
1, 247854, Control_c, 0, 67, 24
1, 247866, Note_off_c, 0, 66, 59
1, 247869, Control_c, 0, 67, 25
1, 247884, Control_c, 0, 67, 26
1, 247889, Note_on_c, 0, 64, 48
1, 247898, Control_c, 0, 67, 27
1, 247913, Control_c, 0, 67, 28
1, 247928, Control_c, 0, 67, 29
1, 247933, Note_off_c, 0, 64, 58
1, 247943, Control_c, 0, 67, 30
1, 247952, Note_on_c, 0, 66, 33
1, 247958, Control_c, 0, 67, 32
1, 247973, Control_c, 0, 67, 33
1, 247988, Control_c, 0, 67, 34
1, 247998, Note_off_c, 0, 66, 47
1, 248003, Control_c, 0, 67, 35
1, 248018, Note_on_c, 0, 64, 44
1, 248018, Control_c, 0, 67, 36
1, 248032, Control_c, 0, 67, 37
1, 248047, Control_c, 0, 67, 38
1, 248059, Note_off_c, 0, 64, 62
1, 248062, Control_c, 0, 67, 39
1, 248077, Note_on_c, 0, 66, 41
1, 248077, Control_c, 0, 67, 40
1, 248093, Control_c, 0, 67, 41
1, 248108, Control_c, 0, 67, 43
1, 248123, Control_c, 0, 67, 45
1, 248125, Note_off_c, 0, 66, 56
1, 248137, Control_c, 0, 67, 46
1, 248152, Control_c, 0, 67, 47
1, 248158, Note_on_c, 0, 64, 49
1, 248167, Control_c, 0, 67, 48
1, 248181, Control_c, 0, 67, 50
1, 248188, Note_off_c, 0, 64, 62
1, 248196, Control_c, 0, 67, 51
1, 248200, Note_on_c, 0, 66, 47
1, 248211, Control_c, 0, 67, 52
1, 248241, Control_c, 0, 67, 52
1, 248247, Note_off_c, 0, 66, 60
1, 248256, Control_c, 0, 67, 53
1, 248271, Control_c, 0, 67, 55
1, 248286, Control_c, 0, 67, 56
1, 248292, Note_on_c, 0, 64, 49
1, 248301, Control_c, 0, 67, 56
1, 248315, Control_c, 0, 67, 57
1, 248326, Note_off_c, 0, 64, 61
1, 248330, Control_c, 0, 67, 57
1, 248345, Control_c, 0, 67, 58
1, 248350, Note_on_c, 0, 66, 49
1, 248360, Control_c, 0, 67, 58
1, 248375, Control_c, 0, 67, 59
1, 248389, Note_off_c, 0, 66, 54
1, 248389, Control_c, 0, 64, 122
1, 248389, Control_c, 0, 67, 60
1, 248404, Control_c, 0, 64, 117
1, 248404, Control_c, 0, 67, 61
1, 248419, Control_c, 0, 64, 113
1, 248419, Control_c, 0, 67, 61
1, 248431, Note_on_c, 0, 64, 44
1, 248434, Control_c, 0, 64, 109
1, 248434, Control_c, 0, 67, 62
1, 248449, Control_c, 0, 64, 106
1, 248449, Control_c, 0, 67, 63
1, 248471, Control_c, 0, 64, 102
1, 248471, Control_c, 0, 67, 64
1, 248486, Control_c, 0, 64, 99
1, 248486, Control_c, 0, 67, 66
1, 248500, Control_c, 0, 64, 96
1, 248500, Control_c, 0, 67, 66
1, 248515, Control_c, 0, 64, 95
1, 248515, Control_c, 0, 67, 68
1, 248530, Control_c, 0, 64, 93
1, 248530, Control_c, 0, 67, 68
1, 248545, Control_c, 0, 64, 92
1, 248545, Control_c, 0, 67, 69
1, 248560, Control_c, 0, 64, 92
1, 248560, Control_c, 0, 67, 70
1, 248575, Control_c, 0, 64, 91
1, 248575, Control_c, 0, 67, 71
1, 248589, Control_c, 0, 64, 89
1, 248589, Control_c, 0, 67, 73
1, 248604, Control_c, 0, 64, 88
1, 248604, Control_c, 0, 67, 74
1, 248612, Note_off_c, 0, 64, 0
1, 248619, Control_c, 0, 64, 87
1, 248619, Control_c, 0, 67, 74
1, 248634, Control_c, 0, 64, 87
1, 248634, Control_c, 0, 67, 75
1, 248649, Control_c, 0, 64, 86
1, 248649, Control_c, 0, 67, 76
1, 248650, Poly_aftertouch_c, 0, 64, 127
1, 248661, Note_on_c, 0, 63, 51
1, 248663, Control_c, 0, 64, 85
1, 248663, Control_c, 0, 67, 77
1, 248678, Control_c, 0, 64, 84
1, 248678, Control_c, 0, 67, 78
1, 248693, Control_c, 0, 64, 83
1, 248693, Control_c, 0, 67, 78
1, 248702, Poly_aftertouch_c, 0, 64, 0
1, 248707, Control_c, 0, 64, 82
1, 248707, Control_c, 0, 67, 79
1, 248722, Control_c, 0, 64, 81
1, 248722, Control_c, 0, 67, 80
1, 248737, Control_c, 0, 64, 80
1, 248752, Control_c, 0, 64, 79
1, 248752, Control_c, 0, 67, 80
1, 248767, Control_c, 0, 64, 78
1, 248767, Control_c, 0, 67, 81
1, 248781, Control_c, 0, 64, 77
1, 248781, Control_c, 0, 67, 81
1, 248796, Control_c, 0, 64, 76
1, 248796, Control_c, 0, 67, 82
1, 248811, Control_c, 0, 64, 75
1, 248811, Control_c, 0, 67, 83
1, 248826, Control_c, 0, 64, 73
1, 248826, Control_c, 0, 67, 83
1, 248841, Control_c, 0, 64, 72
1, 248841, Control_c, 0, 67, 84
1, 248845, Note_on_c, 0, 64, 50
1, 248856, Control_c, 0, 64, 71
1, 248856, Control_c, 0, 67, 84
1, 248870, Control_c, 0, 64, 70
1, 248870, Control_c, 0, 67, 85
1, 248886, Control_c, 0, 64, 70
1, 248886, Control_c, 0, 67, 85
1, 248901, Control_c, 0, 67, 86
1, 248916, Control_c, 0, 64, 69
1, 248916, Control_c, 0, 67, 87
1, 248919, Note_off_c, 0, 63, 37
1, 248930, Control_c, 0, 67, 88
1, 248945, Control_c, 0, 64, 69
1, 248945, Control_c, 0, 67, 89
1, 248960, Control_c, 0, 64, 68
1, 248960, Control_c, 0, 67, 89
1, 248975, Control_c, 0, 64, 68
1, 248975, Control_c, 0, 67, 90
1, 248990, Control_c, 0, 67, 91
1, 249004, Control_c, 0, 67, 92
1, 249019, Control_c, 0, 64, 67
1, 249019, Control_c, 0, 67, 92
1, 249034, Control_c, 0, 64, 67
1, 249034, Control_c, 0, 67, 93
1, 249037, Note_on_c, 0, 68, 55
1, 249049, Control_c, 0, 67, 94
1, 249064, Control_c, 0, 64, 66
1, 249064, Control_c, 0, 67, 94
1, 249079, Control_c, 0, 64, 66
1, 249079, Control_c, 0, 67, 95
1, 249094, Note_off_c, 0, 64, 44
1, 249094, Control_c, 0, 67, 96
1, 249109, Control_c, 0, 64, 65
1, 249109, Control_c, 0, 67, 97
1, 249123, Control_c, 0, 67, 98
1, 249138, Control_c, 0, 64, 65
1, 249138, Control_c, 0, 67, 99
1, 249153, Control_c, 0, 67, 100
1, 249168, Control_c, 0, 64, 64
1, 249168, Control_c, 0, 67, 101
1, 249183, Control_c, 0, 67, 102
1, 249198, Control_c, 0, 67, 104
1, 249219, Control_c, 0, 67, 104
1, 249234, Control_c, 0, 64, 64
1, 249234, Control_c, 0, 67, 105
1, 249249, Control_c, 0, 67, 106
1, 249264, Control_c, 0, 67, 107
1, 249273, Note_on_c, 0, 67, 59
1, 249279, Control_c, 0, 67, 109
1, 249293, Note_off_c, 0, 68, 37
1, 249293, Control_c, 0, 67, 110
1, 249308, Control_c, 0, 67, 111
1, 249323, Control_c, 0, 67, 112
1, 249338, Control_c, 0, 67, 114
1, 249353, Control_c, 0, 67, 115
1, 249368, Control_c, 0, 67, 116
1, 249383, Control_c, 0, 67, 117
1, 249398, Control_c, 0, 67, 118
1, 249412, Control_c, 0, 67, 119
1, 249427, Control_c, 0, 64, 63
1, 249427, Control_c, 0, 67, 120
1, 249442, Control_c, 0, 67, 121
1, 249457, Control_c, 0, 67, 121
1, 249472, Control_c, 0, 67, 122
1, 249486, Control_c, 0, 67, 123
1, 249501, Control_c, 0, 67, 125
1, 249516, Control_c, 0, 67, 127
1, 249530, Control_c, 0, 67, 127
1, 249759, Note_on_c, 0, 66, 61
1, 249808, Note_off_c, 0, 67, 56
1, 249998, Control_c, 0, 64, 64
1, 250042, Control_c, 0, 64, 64
1, 250072, Control_c, 0, 64, 65
1, 250101, Control_c, 0, 64, 65
1, 250116, Control_c, 0, 64, 66
1, 250131, Control_c, 0, 64, 66
1, 250146, Control_c, 0, 64, 67
1, 250161, Control_c, 0, 64, 68
1, 250176, Control_c, 0, 64, 69
1, 250191, Control_c, 0, 64, 70
1, 250206, Control_c, 0, 64, 71
1, 250220, Control_c, 0, 64, 73
1, 250235, Control_c, 0, 64, 74
1, 250250, Control_c, 0, 64, 76
1, 250265, Control_c, 0, 64, 77
1, 250279, Control_c, 0, 64, 79
1, 250294, Control_c, 0, 64, 81
1, 250309, Control_c, 0, 64, 83
1, 250324, Control_c, 0, 64, 86
1, 250339, Control_c, 0, 64, 89
1, 250353, Control_c, 0, 64, 92
1, 250368, Control_c, 0, 64, 95
1, 250383, Control_c, 0, 64, 99
1, 250398, Control_c, 0, 64, 103
1, 250413, Control_c, 0, 64, 108
1, 250427, Control_c, 0, 64, 114
1, 250442, Control_c, 0, 64, 127
1, 251717, Note_on_c, 0, 61, 53
1, 251733, Control_c, 0, 64, 116
1, 251748, Note_on_c, 0, 58, 26
1, 251748, Control_c, 0, 64, 101
1, 251763, Control_c, 0, 64, 90
1, 251768, Note_on_c, 0, 40, 32
1, 251777, Control_c, 0, 64, 80
1, 251779, Note_on_c, 0, 52, 25
1, 251792, Control_c, 0, 64, 73
1, 251806, Control_c, 0, 64, 68
1, 251821, Control_c, 0, 64, 66
1, 251836, Control_c, 0, 64, 68
1, 251851, Control_c, 0, 64, 71
1, 251866, Control_c, 0, 64, 76
1, 251881, Control_c, 0, 64, 80
1, 251896, Control_c, 0, 64, 82
1, 251911, Control_c, 0, 64, 83
1, 251919, Note_off_c, 0, 40, 41
1, 251925, Control_c, 0, 64, 84
1, 251932, Note_off_c, 0, 52, 41
1, 251940, Control_c, 0, 64, 86
1, 251955, Control_c, 0, 64, 89
1, 251958, Note_off_c, 0, 58, 43
1, 251970, Control_c, 0, 64, 92
1, 251985, Control_c, 0, 64, 94
1, 251999, Control_c, 0, 64, 95
1, 252014, Control_c, 0, 64, 95
1, 252089, Control_c, 0, 64, 95
1, 252104, Control_c, 0, 64, 93
1, 252119, Control_c, 0, 64, 92
1, 252125, Note_on_c, 0, 62, 52
1, 252134, Control_c, 0, 64, 89
1, 252148, Control_c, 0, 64, 86
1, 252163, Control_c, 0, 64, 81
1, 252177, Note_on_c, 0, 59, 31
1, 252178, Control_c, 0, 64, 75
1, 252179, Note_on_c, 0, 40, 30
1, 252193, Note_on_c, 0, 52, 24
1, 252193, Control_c, 0, 64, 68
1, 252214, Note_off_c, 0, 61, 40
1, 252215, Control_c, 0, 64, 62
1, 252230, Control_c, 0, 64, 59
1, 252244, Control_c, 0, 64, 60
1, 252259, Control_c, 0, 64, 62
1, 252274, Control_c, 0, 64, 64
1, 252289, Control_c, 0, 64, 66
1, 252304, Control_c, 0, 64, 70
1, 252319, Control_c, 0, 64, 75
1, 252334, Control_c, 0, 64, 79
1, 252349, Control_c, 0, 64, 84
1, 252363, Control_c, 0, 64, 87
1, 252369, Note_off_c, 0, 40, 38
1, 252378, Control_c, 0, 64, 90
1, 252387, Note_off_c, 0, 52, 37
1, 252393, Control_c, 0, 64, 94
1, 252408, Control_c, 0, 64, 98
1, 252423, Control_c, 0, 64, 103
1, 252437, Control_c, 0, 64, 109
1, 252440, Note_off_c, 0, 62, 36
1, 252452, Control_c, 0, 64, 114
1, 252467, Control_c, 0, 64, 117
1, 252481, Control_c, 0, 64, 118
1, 252496, Control_c, 0, 64, 119
1, 252615, Control_c, 0, 64, 118
1, 252674, Control_c, 0, 64, 118
1, 252689, Control_c, 0, 64, 116
1, 252704, Control_c, 0, 64, 113
1, 252718, Control_c, 0, 64, 110
1, 252733, Control_c, 0, 64, 104
1, 252748, Control_c, 0, 64, 94
1, 252754, Note_on_c, 0, 62, 48
1, 252763, Control_c, 0, 64, 82
1, 252778, Control_c, 0, 64, 71
1, 252787, Note_on_c, 0, 57, 43
1, 252793, Control_c, 0, 64, 64
1, 252805, Note_on_c, 0, 52, 28
1, 252808, Control_c, 0, 64, 62
1, 252809, Note_on_c, 0, 40, 25
1, 252822, Control_c, 0, 64, 65
1, 252837, Control_c, 0, 64, 68
1, 252841, Note_off_c, 0, 57, 57
1, 252852, Control_c, 0, 64, 70
1, 252864, Note_off_c, 0, 59, 39
1, 252867, Control_c, 0, 64, 72
1, 252882, Control_c, 0, 64, 74
1, 252897, Control_c, 0, 64, 76
1, 252912, Control_c, 0, 64, 80
1, 252916, Note_off_c, 0, 40, 34
1, 252918, Note_off_c, 0, 52, 36
1, 252927, Control_c, 0, 64, 83
1, 252942, Control_c, 0, 64, 86
1, 252944, Note_off_c, 0, 62, 26
1, 252964, Control_c, 0, 64, 88
1, 252978, Control_c, 0, 64, 89
1, 252993, Control_c, 0, 64, 90
1, 253008, Control_c, 0, 64, 91
1, 253023, Control_c, 0, 64, 92
1, 253038, Control_c, 0, 64, 93
1, 253052, Control_c, 0, 64, 94
1, 253067, Control_c, 0, 64, 94
1, 253172, Control_c, 0, 64, 94
1, 253186, Control_c, 0, 64, 93
1, 253201, Control_c, 0, 64, 91
1, 253216, Control_c, 0, 64, 90
1, 253219, Note_on_c, 0, 62, 41
1, 253231, Control_c, 0, 64, 88
1, 253242, Note_on_c, 0, 56, 37
1, 253246, Control_c, 0, 64, 85
1, 253260, Control_c, 0, 64, 82
1, 253270, Note_on_c, 0, 40, 31
1, 253275, Control_c, 0, 64, 77
1, 253282, Note_on_c, 0, 52, 24
1, 253290, Control_c, 0, 64, 71
1, 253304, Control_c, 0, 64, 65
1, 253319, Control_c, 0, 64, 60
1, 253334, Control_c, 0, 64, 55
1, 253349, Control_c, 0, 64, 54
1, 253378, Control_c, 0, 64, 56
1, 253393, Control_c, 0, 64, 61
1, 253408, Control_c, 0, 64, 65
1, 253423, Control_c, 0, 64, 68
1, 253438, Control_c, 0, 64, 71
1, 253452, Control_c, 0, 64, 73
1, 253464, Note_off_c, 0, 52, 36
1, 253467, Control_c, 0, 64, 75
1, 253482, Control_c, 0, 64, 77
1, 253491, Note_off_c, 0, 40, 30
1, 253497, Control_c, 0, 64, 80
1, 253511, Note_off_c, 0, 62, 39
1, 253511, Control_c, 0, 64, 83
1, 253526, Control_c, 0, 64, 87
1, 253541, Control_c, 0, 64, 91
1, 253556, Control_c, 0, 64, 95
1, 253571, Control_c, 0, 64, 99
1, 253586, Control_c, 0, 64, 102
1, 253601, Control_c, 0, 64, 106
1, 253616, Control_c, 0, 64, 110
1, 253619, Note_off_c, 0, 56, 19
1, 253631, Control_c, 0, 64, 124
1, 253645, Control_c, 0, 64, 127
1, 253778, Note_off_c, 0, 66, 32
1, 253979, Control_c, 0, 67, 127
1, 253994, Control_c, 0, 67, 126
1, 254009, Control_c, 0, 67, 125
1, 254024, Control_c, 0, 67, 124
1, 254039, Control_c, 0, 67, 123
1, 254054, Control_c, 0, 67, 122
1, 254069, Control_c, 0, 67, 121
1, 254084, Control_c, 0, 67, 119
1, 254099, Control_c, 0, 67, 117
1, 254113, Control_c, 0, 67, 117
1, 254128, Control_c, 0, 67, 116
1, 254143, Control_c, 0, 67, 115
1, 254158, Control_c, 0, 67, 114
1, 254173, Control_c, 0, 67, 113
1, 254188, Control_c, 0, 67, 112
1, 254202, Control_c, 0, 67, 111
1, 254217, Control_c, 0, 67, 110
1, 254232, Control_c, 0, 67, 109
1, 254246, Control_c, 0, 67, 109
1, 254261, Control_c, 0, 67, 108
1, 254276, Control_c, 0, 67, 107
1, 254291, Control_c, 0, 67, 106
1, 254306, Control_c, 0, 67, 106
1, 254320, Control_c, 0, 67, 105
1, 254335, Control_c, 0, 67, 104
1, 254350, Control_c, 0, 67, 104
1, 254364, Note_on_c, 0, 65, 64
1, 254365, Control_c, 0, 67, 103
1, 254380, Control_c, 0, 67, 102
1, 254387, Note_on_c, 0, 62, 29
1, 254391, Note_on_c, 0, 56, 47
1, 254395, Control_c, 0, 67, 101
1, 254409, Control_c, 0, 67, 100
1, 254424, Control_c, 0, 67, 99
1, 254426, Note_on_c, 0, 40, 35
1, 254437, Note_on_c, 0, 28, 34
1, 254439, Control_c, 0, 67, 99
1, 254461, Control_c, 0, 67, 98
1, 254477, Control_c, 0, 67, 97
1, 254492, Control_c, 0, 67, 96
1, 254507, Control_c, 0, 67, 95
1, 254522, Control_c, 0, 67, 93
1, 254537, Control_c, 0, 67, 93
1, 254551, Control_c, 0, 67, 92
1, 254562, Note_off_c, 0, 56, 33
1, 254566, Control_c, 0, 67, 91
1, 254581, Control_c, 0, 67, 90
1, 254584, Note_off_c, 0, 40, 41
1, 254584, Note_off_c, 0, 62, 26
1, 254590, Note_off_c, 0, 28, 32
1, 254596, Control_c, 0, 67, 89
1, 254611, Control_c, 0, 67, 88
1, 254625, Control_c, 0, 67, 88
1, 254640, Control_c, 0, 67, 87
1, 254655, Control_c, 0, 67, 86
1, 254670, Control_c, 0, 67, 86
1, 254684, Control_c, 0, 67, 85
1, 254714, Control_c, 0, 67, 85
1, 254901, Note_on_c, 0, 62, 44
1, 254906, Control_c, 0, 67, 85
1, 254923, Note_on_c, 0, 57, 42
1, 254945, Note_on_c, 0, 40, 37
1, 254951, Control_c, 0, 64, 110
1, 254953, Note_on_c, 0, 28, 37
1, 254966, Control_c, 0, 64, 96
1, 254981, Control_c, 0, 64, 85
1, 254981, Control_c, 0, 67, 85
1, 254996, Control_c, 0, 64, 76
1, 255011, Control_c, 0, 64, 70
1, 255025, Control_c, 0, 64, 67
1, 255025, Control_c, 0, 67, 84
1, 255040, Control_c, 0, 64, 68
1, 255055, Control_c, 0, 64, 70
1, 255069, Control_c, 0, 64, 72
1, 255069, Control_c, 0, 67, 84
1, 255084, Control_c, 0, 64, 76
1, 255099, Control_c, 0, 64, 79
1, 255114, Control_c, 0, 64, 81
1, 255114, Control_c, 0, 67, 83
1, 255129, Control_c, 0, 64, 83
1, 255143, Control_c, 0, 64, 84
1, 255154, Note_off_c, 0, 65, 61
1, 255158, Control_c, 0, 64, 85
1, 255158, Control_c, 0, 67, 83
1, 255173, Control_c, 0, 64, 87
1, 255183, Note_on_c, 0, 67, 57
1, 255188, Control_c, 0, 64, 89
1, 255188, Control_c, 0, 67, 82
1, 255210, Control_c, 0, 64, 91
1, 255210, Control_c, 0, 67, 79
1, 255225, Control_c, 0, 64, 92
1, 255225, Control_c, 0, 67, 77
1, 255230, Note_off_c, 0, 28, 34
1, 255240, Control_c, 0, 64, 94
1, 255240, Control_c, 0, 67, 76
1, 255245, Note_off_c, 0, 62, 21
1, 255255, Control_c, 0, 64, 95
1, 255255, Control_c, 0, 67, 74
1, 255269, Note_off_c, 0, 40, 26
1, 255270, Control_c, 0, 64, 95
1, 255270, Control_c, 0, 67, 73
1, 255276, Note_on_c, 0, 65, 68
1, 255285, Control_c, 0, 64, 96
1, 255285, Control_c, 0, 67, 73
1, 255288, Note_off_c, 0, 67, 60
1, 255300, Control_c, 0, 64, 97
1, 255300, Control_c, 0, 67, 72
1, 255315, Control_c, 0, 64, 99
1, 255315, Control_c, 0, 67, 72
1, 255330, Control_c, 0, 64, 101
1, 255337, Note_off_c, 0, 57, 39
1, 255345, Control_c, 0, 64, 103
1, 255345, Control_c, 0, 67, 71
1, 255360, Control_c, 0, 64, 104
1, 255374, Control_c, 0, 67, 70
1, 255389, Control_c, 0, 67, 70
1, 255404, Control_c, 0, 64, 104
1, 255404, Control_c, 0, 67, 69
1, 255419, Control_c, 0, 64, 106
1, 255434, Control_c, 0, 64, 107
1, 255448, Control_c, 0, 64, 107
1, 255463, Control_c, 0, 64, 107
1, 255478, Control_c, 0, 64, 103
1, 255478, Control_c, 0, 67, 69
1, 255493, Control_c, 0, 64, 96
1, 255507, Control_c, 0, 64, 86
1, 255509, Note_on_c, 0, 62, 54
1, 255509, Note_on_c, 0, 64, 69
1, 255521, Control_c, 0, 64, 77
1, 255521, Control_c, 0, 67, 68
1, 255530, Note_on_c, 0, 40, 44
1, 255536, Control_c, 0, 64, 68
1, 255536, Control_c, 0, 67, 68
1, 255537, Note_on_c, 0, 28, 40
1, 255547, Note_on_c, 0, 59, 34
1, 255551, Control_c, 0, 64, 66
1, 255551, Control_c, 0, 67, 66
1, 255566, Control_c, 0, 64, 68
1, 255566, Control_c, 0, 67, 64
1, 255568, Note_off_c, 0, 65, 50
1, 255580, Control_c, 0, 64, 72
1, 255580, Control_c, 0, 67, 61
1, 255587, Note_off_c, 0, 62, 61
1, 255595, Note_off_c, 0, 59, 48
1, 255595, Control_c, 0, 64, 75
1, 255595, Control_c, 0, 67, 60
1, 255610, Control_c, 0, 64, 78
1, 255610, Control_c, 0, 67, 59
1, 255625, Control_c, 0, 64, 82
1, 255625, Control_c, 0, 67, 58
1, 255640, Control_c, 0, 64, 85
1, 255640, Control_c, 0, 67, 57
1, 255646, Note_off_c, 0, 40, 36
1, 255655, Control_c, 0, 64, 89
1, 255655, Control_c, 0, 67, 56
1, 255660, Note_off_c, 0, 28, 34
1, 255670, Control_c, 0, 64, 93
1, 255670, Control_c, 0, 67, 55
1, 255684, Control_c, 0, 64, 96
1, 255684, Control_c, 0, 67, 54
1, 255699, Control_c, 0, 64, 97
1, 255699, Control_c, 0, 67, 53
1, 255714, Control_c, 0, 64, 98
1, 255714, Control_c, 0, 67, 52
1, 255729, Control_c, 0, 67, 51
1, 255744, Control_c, 0, 67, 50
1, 255759, Control_c, 0, 64, 98
1, 255759, Control_c, 0, 67, 49
1, 255773, Control_c, 0, 67, 48
1, 255788, Control_c, 0, 67, 46
1, 255803, Control_c, 0, 67, 45
1, 255818, Control_c, 0, 64, 98
1, 255818, Control_c, 0, 67, 44
1, 255833, Control_c, 0, 67, 43
1, 255847, Control_c, 0, 67, 43
1, 255862, Control_c, 0, 67, 42
1, 255877, Control_c, 0, 64, 97
1, 255891, Control_c, 0, 64, 96
1, 255891, Control_c, 0, 67, 42
1, 255906, Control_c, 0, 64, 95
1, 255921, Control_c, 0, 64, 93
1, 255936, Control_c, 0, 64, 90
1, 255936, Control_c, 0, 67, 41
1, 255941, Note_on_c, 0, 40, 36
1, 255942, Note_on_c, 0, 28, 38
1, 255959, Control_c, 0, 64, 87
1, 255973, Control_c, 0, 64, 83
1, 255986, Note_on_c, 0, 67, 72
1, 255988, Control_c, 0, 64, 77
1, 256003, Control_c, 0, 64, 71
1, 256003, Control_c, 0, 67, 41
1, 256005, Note_on_c, 0, 61, 40
1, 256018, Control_c, 0, 64, 65
1, 256024, Note_on_c, 0, 58, 50
1, 256032, Control_c, 0, 64, 63
1, 256032, Control_c, 0, 67, 40
1, 256047, Control_c, 0, 67, 39
1, 256062, Control_c, 0, 64, 64
1, 256062, Control_c, 0, 67, 38
1, 256078, Control_c, 0, 64, 65
1, 256078, Control_c, 0, 67, 37
1, 256093, Control_c, 0, 64, 66
1, 256093, Control_c, 0, 67, 36
1, 256108, Control_c, 0, 64, 68
1, 256108, Control_c, 0, 67, 34
1, 256122, Control_c, 0, 64, 71
1, 256122, Control_c, 0, 67, 33
1, 256137, Control_c, 0, 64, 74
1, 256137, Control_c, 0, 67, 31
1, 256138, Note_off_c, 0, 28, 41
1, 256152, Control_c, 0, 64, 77
1, 256152, Control_c, 0, 67, 29
1, 256167, Control_c, 0, 64, 79
1, 256167, Control_c, 0, 67, 27
1, 256182, Control_c, 0, 64, 81
1, 256182, Control_c, 0, 67, 25
1, 256196, Control_c, 0, 64, 83
1, 256196, Control_c, 0, 67, 23
1, 256211, Control_c, 0, 64, 85
1, 256211, Control_c, 0, 67, 22
1, 256226, Control_c, 0, 64, 88
1, 256226, Control_c, 0, 67, 20
1, 256234, Note_off_c, 0, 40, 41
1, 256241, Control_c, 0, 64, 91
1, 256241, Control_c, 0, 67, 18
1, 256256, Control_c, 0, 64, 94
1, 256256, Control_c, 0, 67, 17
1, 256271, Control_c, 0, 64, 96
1, 256271, Control_c, 0, 67, 15
1, 256285, Control_c, 0, 64, 99
1, 256285, Control_c, 0, 67, 14
1, 256300, Control_c, 0, 64, 101
1, 256300, Control_c, 0, 67, 13
1, 256315, Control_c, 0, 64, 104
1, 256315, Control_c, 0, 67, 13
1, 256329, Control_c, 0, 64, 106
1, 256329, Control_c, 0, 67, 12
1, 256343, Note_off_c, 0, 61, 35
1, 256344, Control_c, 0, 64, 108
1, 256344, Control_c, 0, 67, 11
1, 256359, Control_c, 0, 64, 110
1, 256359, Control_c, 0, 67, 10
1, 256374, Control_c, 0, 64, 113
1, 256374, Control_c, 0, 67, 10
1, 256389, Control_c, 0, 64, 116
1, 256389, Control_c, 0, 67, 9
1, 256403, Control_c, 0, 64, 117
1, 256403, Control_c, 0, 67, 8
1, 256405, Note_off_c, 0, 58, 38
1, 256418, Control_c, 0, 67, 8
1, 256433, Control_c, 0, 67, 0
1, 256448, Control_c, 0, 64, 118
1, 256462, Control_c, 0, 64, 118
1, 256477, Control_c, 0, 64, 119
1, 256492, Control_c, 0, 64, 119
1, 256582, Control_c, 0, 67, 8
1, 256596, Control_c, 0, 67, 8
1, 256611, Control_c, 0, 67, 9
1, 256626, Control_c, 0, 67, 9
1, 256640, Control_c, 0, 64, 119
1, 256655, Control_c, 0, 67, 10
1, 256707, Control_c, 0, 67, 10
1, 256722, Control_c, 0, 67, 11
1, 256737, Control_c, 0, 67, 12
1, 256752, Control_c, 0, 67, 12
1, 256767, Control_c, 0, 64, 110
1, 256767, Control_c, 0, 67, 13
1, 256773, Note_on_c, 0, 66, 71
1, 256780, Note_on_c, 0, 61, 55
1, 256781, Control_c, 0, 64, 101
1, 256796, Control_c, 0, 64, 91
1, 256796, Control_c, 0, 67, 13
1, 256802, Note_on_c, 0, 58, 48
1, 256811, Control_c, 0, 64, 80
1, 256819, Note_on_c, 0, 52, 43
1, 256826, Note_on_c, 0, 40, 34
1, 256826, Control_c, 0, 64, 71
1, 256826, Control_c, 0, 67, 14
1, 256832, Note_off_c, 0, 64, 19
1, 256841, Control_c, 0, 64, 66
1, 256841, Control_c, 0, 67, 15
1, 256855, Control_c, 0, 64, 65
1, 256855, Control_c, 0, 67, 15
1, 256871, Control_c, 0, 64, 69
1, 256886, Control_c, 0, 64, 73
1, 256886, Control_c, 0, 67, 16
1, 256901, Control_c, 0, 64, 77
1, 256901, Control_c, 0, 67, 16
1, 256916, Control_c, 0, 64, 80
1, 256916, Control_c, 0, 67, 17
1, 256925, Note_off_c, 0, 61, 29
1, 256926, Note_off_c, 0, 58, 38
1, 256930, Control_c, 0, 64, 82
1, 256930, Control_c, 0, 67, 17
1, 256936, Note_off_c, 0, 40, 35
1, 256938, Note_off_c, 0, 52, 36
1, 256945, Control_c, 0, 64, 83
1, 256960, Control_c, 0, 64, 85
1, 256975, Control_c, 0, 64, 87
1, 256990, Control_c, 0, 64, 89
1, 257005, Control_c, 0, 64, 91
1, 257042, Note_off_c, 0, 67, 0
1, 257049, Control_c, 0, 67, 18
1, 257078, Control_c, 0, 64, 89
1, 257079, Poly_aftertouch_c, 0, 67, 127
1, 257090, Note_on_c, 0, 62, 51
1, 257093, Control_c, 0, 64, 86
1, 257093, Control_c, 0, 67, 19
1, 257100, Note_on_c, 0, 59, 52
1, 257108, Control_c, 0, 64, 81
1, 257118, Note_on_c, 0, 52, 42
1, 257121, Note_on_c, 0, 40, 37
1, 257123, Control_c, 0, 64, 75
1, 257138, Control_c, 0, 64, 69
1, 257152, Control_c, 0, 64, 66
1, 257152, Control_c, 0, 67, 19
1, 257167, Control_c, 0, 64, 66
1, 257182, Control_c, 0, 64, 68
1, 257197, Control_c, 0, 64, 70
1, 257197, Control_c, 0, 67, 20
1, 257212, Control_c, 0, 64, 72
1, 257226, Control_c, 0, 64, 75
1, 257226, Control_c, 0, 67, 20
1, 257241, Control_c, 0, 64, 78
1, 257241, Control_c, 0, 67, 21
1, 257256, Control_c, 0, 64, 82
1, 257256, Control_c, 0, 67, 22
1, 257270, Control_c, 0, 64, 84
1, 257270, Control_c, 0, 67, 23
1, 257284, Note_off_c, 0, 59, 36
1, 257285, Control_c, 0, 64, 86
1, 257285, Control_c, 0, 67, 23
1, 257286, Note_off_c, 0, 40, 39
1, 257294, Note_off_c, 0, 62, 36
1, 257300, Control_c, 0, 64, 87
1, 257315, Control_c, 0, 64, 88
1, 257321, Note_off_c, 0, 52, 25
1, 257330, Control_c, 0, 64, 91
1, 257330, Control_c, 0, 67, 24
1, 257345, Control_c, 0, 64, 94
1, 257345, Control_c, 0, 67, 25
1, 257360, Control_c, 0, 64, 97
1, 257360, Control_c, 0, 67, 27
1, 257375, Control_c, 0, 64, 99
1, 257375, Control_c, 0, 67, 28
1, 257390, Control_c, 0, 64, 100
1, 257392, Poly_aftertouch_c, 0, 67, 0
1, 257404, Control_c, 0, 67, 29
1, 257419, Control_c, 0, 67, 30
1, 257434, Control_c, 0, 67, 32
1, 257456, Control_c, 0, 67, 33
1, 257470, Control_c, 0, 67, 34
1, 257485, Control_c, 0, 67, 34
1, 257500, Control_c, 0, 67, 36
1, 257515, Control_c, 0, 67, 37
1, 257530, Control_c, 0, 67, 39
1, 257545, Control_c, 0, 67, 40
1, 257559, Control_c, 0, 67, 40
1, 257574, Control_c, 0, 67, 41
1, 257589, Control_c, 0, 67, 41
1, 257604, Control_c, 0, 67, 42
1, 257619, Control_c, 0, 67, 43
1, 257664, Control_c, 0, 67, 44
1, 257679, Control_c, 0, 67, 45
1, 257694, Control_c, 0, 67, 45
1, 257708, Control_c, 0, 67, 46
1, 257753, Control_c, 0, 67, 46
1, 257797, Control_c, 0, 64, 99
1, 257812, Control_c, 0, 64, 98
1, 257827, Control_c, 0, 64, 97
1, 257827, Control_c, 0, 67, 47
1, 257841, Control_c, 0, 64, 96
1, 257856, Control_c, 0, 64, 94
1, 257871, Control_c, 0, 64, 91
1, 257886, Control_c, 0, 64, 87
1, 257886, Control_c, 0, 67, 47
1, 257900, Control_c, 0, 64, 82
1, 257915, Control_c, 0, 64, 76
1, 257930, Control_c, 0, 64, 73
1, 257945, Control_c, 0, 64, 70
1, 257952, Note_on_c, 0, 52, 10
1, 257957, Note_on_c, 0, 40, 26
1, 257960, Control_c, 0, 64, 69
1, 257974, Control_c, 0, 64, 68
1, 258015, Note_on_c, 0, 62, 51
1, 258034, Control_c, 0, 64, 69
1, 258037, Note_on_c, 0, 57, 41
1, 258048, Control_c, 0, 64, 70
1, 258063, Control_c, 0, 64, 71
1, 258078, Control_c, 0, 64, 74
1, 258078, Control_c, 0, 67, 48
1, 258092, Note_off_c, 0, 57, 45
1, 258093, Control_c, 0, 64, 77
1, 258108, Control_c, 0, 64, 80
1, 258122, Note_off_c, 0, 40, 38
1, 258123, Control_c, 0, 64, 82
1, 258126, Note_off_c, 0, 52, 39
1, 258138, Control_c, 0, 64, 84
1, 258153, Control_c, 0, 64, 86
1, 258167, Control_c, 0, 64, 89
1, 258174, Note_off_c, 0, 62, 32
1, 258182, Control_c, 0, 64, 91
1, 258204, Control_c, 0, 64, 93
1, 258219, Control_c, 0, 67, 48
1, 258323, Control_c, 0, 64, 92
1, 258337, Control_c, 0, 64, 91
1, 258352, Control_c, 0, 64, 89
1, 258367, Control_c, 0, 64, 87
1, 258382, Control_c, 0, 64, 83
1, 258382, Note_on_c, 0, 40, 28
1, 258394, Note_on_c, 0, 52, 27
1, 258397, Control_c, 0, 64, 78
1, 258412, Control_c, 0, 64, 73
1, 258421, Note_on_c, 0, 62, 33
1, 258426, Control_c, 0, 64, 68
1, 258441, Control_c, 0, 64, 66
1, 258450, Note_on_c, 0, 57, 24
1, 258456, Control_c, 0, 64, 66
1, 258472, Control_c, 0, 64, 67
1, 258486, Control_c, 0, 64, 69
1, 258501, Control_c, 0, 64, 70
1, 258516, Control_c, 0, 64, 71
1, 258531, Control_c, 0, 64, 74
1, 258546, Control_c, 0, 64, 77
1, 258561, Control_c, 0, 64, 80
1, 258561, Control_c, 0, 67, 48
1, 258576, Control_c, 0, 64, 82
1, 258590, Control_c, 0, 64, 84
1, 258594, Note_off_c, 0, 52, 35
1, 258605, Control_c, 0, 64, 86
1, 258620, Control_c, 0, 64, 88
1, 258635, Control_c, 0, 64, 91
1, 258650, Control_c, 0, 64, 94
1, 258650, Control_c, 0, 67, 47
1, 258664, Control_c, 0, 64, 97
1, 258666, Note_off_c, 0, 40, 32
1, 258679, Control_c, 0, 64, 98
1, 258694, Control_c, 0, 64, 100
1, 258709, Control_c, 0, 64, 101
1, 258723, Control_c, 0, 64, 103
1, 258723, Control_c, 0, 67, 47
1, 258738, Control_c, 0, 64, 105
1, 258738, Control_c, 0, 67, 46
1, 258753, Control_c, 0, 64, 107
1, 258768, Control_c, 0, 64, 109
1, 258783, Control_c, 0, 64, 110
1, 258797, Control_c, 0, 64, 111
1, 258812, Control_c, 0, 64, 111
1, 258812, Control_c, 0, 67, 46
1, 258817, Note_on_c, 0, 71, 53
1, 258827, Control_c, 0, 64, 112
1, 258841, Control_c, 0, 64, 113
1, 258856, Control_c, 0, 64, 114
1, 258871, Control_c, 0, 64, 114
1, 258871, Control_c, 0, 67, 45
1, 258886, Control_c, 0, 64, 115
1, 258901, Control_c, 0, 64, 116
1, 258901, Control_c, 0, 67, 45
1, 258916, Control_c, 0, 64, 117
1, 258931, Control_c, 0, 64, 119
1, 258953, Control_c, 0, 64, 120
1, 258957, Note_off_c, 0, 57, 36
1, 258968, Control_c, 0, 64, 122
1, 258971, Note_off_c, 0, 71, 39
1, 258973, Note_off_c, 0, 66, 30
1, 258983, Control_c, 0, 64, 124
1, 258997, Control_c, 0, 64, 127
1, 258997, Control_c, 0, 67, 44
1, 259027, Control_c, 0, 67, 44
1, 259071, Control_c, 0, 67, 43
1, 259085, Note_off_c, 0, 62, 34
1, 259101, Control_c, 0, 67, 42
1, 259116, Control_c, 0, 67, 42
1, 259264, Control_c, 0, 67, 41
1, 259294, Control_c, 0, 67, 41
1, 259309, Control_c, 0, 67, 40
1, 259354, Control_c, 0, 67, 40
1, 259384, Control_c, 0, 67, 39
1, 259443, Control_c, 0, 67, 39
1, 259546, Control_c, 0, 67, 38
1, 259554, Note_on_c, 0, 65, 64
1, 259564, Note_on_c, 0, 62, 48
1, 259585, Note_on_c, 0, 56, 45
1, 259606, Control_c, 0, 67, 38
1, 259608, Note_on_c, 0, 28, 33
1, 259611, Note_on_c, 0, 40, 35
1, 259620, Control_c, 0, 67, 37
1, 259635, Control_c, 0, 67, 37
1, 259664, Control_c, 0, 67, 36
1, 259679, Control_c, 0, 67, 36
1, 259702, Control_c, 0, 67, 35
1, 259717, Control_c, 0, 67, 34
1, 259732, Control_c, 0, 67, 34
1, 259738, Note_off_c, 0, 62, 22
1, 259746, Control_c, 0, 67, 33
1, 259761, Control_c, 0, 67, 32
1, 259766, Note_off_c, 0, 40, 35
1, 259774, Note_off_c, 0, 28, 30
1, 259776, Control_c, 0, 67, 32
1, 259778, Note_off_c, 0, 56, 37
1, 259791, Control_c, 0, 67, 30
1, 259806, Control_c, 0, 67, 29
1, 259820, Control_c, 0, 67, 29
1, 259835, Control_c, 0, 67, 28
1, 259850, Control_c, 0, 67, 28
1, 259879, Control_c, 0, 67, 27
1, 259894, Control_c, 0, 67, 27
1, 260018, Note_on_c, 0, 62, 46
1, 260028, Control_c, 0, 64, 113
1, 260035, Note_on_c, 0, 57, 49
1, 260043, Control_c, 0, 64, 101
1, 260051, Note_on_c, 0, 40, 42
1, 260052, Note_on_c, 0, 28, 44
1, 260057, Control_c, 0, 64, 89
1, 260073, Control_c, 0, 64, 80
1, 260087, Control_c, 0, 64, 71
1, 260087, Control_c, 0, 67, 26
1, 260102, Control_c, 0, 64, 66
1, 260102, Control_c, 0, 67, 26
1, 260117, Control_c, 0, 67, 25
1, 260132, Control_c, 0, 64, 68
1, 260147, Control_c, 0, 64, 71
1, 260147, Control_c, 0, 67, 24
1, 260162, Control_c, 0, 64, 74
1, 260162, Control_c, 0, 67, 23
1, 260177, Control_c, 0, 64, 77
1, 260177, Control_c, 0, 67, 22
1, 260186, Note_off_c, 0, 65, 62
1, 260192, Control_c, 0, 64, 79
1, 260192, Control_c, 0, 67, 21
1, 260201, Note_on_c, 0, 67, 65
1, 260206, Control_c, 0, 64, 80
1, 260206, Control_c, 0, 67, 21
1, 260221, Control_c, 0, 64, 81
1, 260221, Control_c, 0, 67, 20
1, 260223, Note_off_c, 0, 62, 37
1, 260236, Control_c, 0, 64, 82
1, 260236, Control_c, 0, 67, 19
1, 260251, Control_c, 0, 64, 84
1, 260251, Control_c, 0, 67, 17
1, 260266, Control_c, 0, 64, 86
1, 260266, Control_c, 0, 67, 16
1, 260276, Note_off_c, 0, 40, 39
1, 260277, Note_off_c, 0, 28, 36
1, 260281, Note_on_c, 0, 65, 75
1, 260281, Control_c, 0, 64, 88
1, 260281, Control_c, 0, 67, 15
1, 260284, Note_off_c, 0, 67, 59
1, 260295, Control_c, 0, 64, 90
1, 260295, Control_c, 0, 67, 15
1, 260301, Note_off_c, 0, 57, 29
1, 260310, Control_c, 0, 64, 92
1, 260325, Control_c, 0, 64, 92
1, 260325, Control_c, 0, 67, 14
1, 260355, Control_c, 0, 64, 93
1, 260355, Control_c, 0, 67, 13
1, 260369, Control_c, 0, 64, 93
1, 260384, Control_c, 0, 64, 94
1, 260399, Control_c, 0, 64, 94
1, 260481, Control_c, 0, 64, 93
1, 260495, Control_c, 0, 64, 89
1, 260508, Note_on_c, 0, 64, 77
1, 260510, Control_c, 0, 64, 83
1, 260522, Note_on_c, 0, 62, 59
1, 260525, Control_c, 0, 64, 74
1, 260532, Note_on_c, 0, 59, 55
1, 260534, Note_on_c, 0, 40, 47
1, 260537, Note_on_c, 0, 28, 46
1, 260540, Control_c, 0, 64, 67
1, 260555, Control_c, 0, 64, 64
1, 260555, Control_c, 0, 67, 13
1, 260565, Note_off_c, 0, 65, 54
1, 260569, Control_c, 0, 64, 64
1, 260569, Control_c, 0, 67, 12
1, 260584, Control_c, 0, 64, 66
1, 260584, Control_c, 0, 67, 11
1, 260585, Note_off_c, 0, 62, 59
1, 260586, Note_off_c, 0, 59, 41
1, 260599, Control_c, 0, 64, 69
1, 260599, Control_c, 0, 67, 11
1, 260613, Control_c, 0, 64, 72
1, 260613, Control_c, 0, 67, 10
1, 260628, Control_c, 0, 64, 76
1, 260643, Control_c, 0, 64, 81
1, 260658, Control_c, 0, 64, 87
1, 260662, Note_off_c, 0, 28, 33
1, 260673, Control_c, 0, 64, 91
1, 260675, Note_off_c, 0, 40, 35
1, 260687, Control_c, 0, 64, 93
1, 260702, Control_c, 0, 64, 95
1, 260717, Control_c, 0, 64, 96
1, 260717, Control_c, 0, 67, 10
1, 260732, Control_c, 0, 64, 97
1, 260747, Control_c, 0, 64, 98
1, 260821, Control_c, 0, 64, 97
1, 260836, Control_c, 0, 64, 96
1, 260838, Note_on_c, 0, 61, 53
1, 260838, Note_on_c, 0, 67, 74
1, 260850, Note_on_c, 0, 58, 62
1, 260851, Control_c, 0, 64, 94
1, 260867, Control_c, 0, 64, 91
1, 260868, Note_off_c, 0, 64, 59
1, 260880, Note_on_c, 0, 40, 43
1, 260882, Control_c, 0, 64, 84
1, 260885, Note_on_c, 0, 28, 42
1, 260897, Control_c, 0, 64, 76
1, 260912, Control_c, 0, 64, 69
1, 260926, Control_c, 0, 64, 64
1, 260941, Control_c, 0, 64, 62
1, 260956, Control_c, 0, 64, 63
1, 260971, Control_c, 0, 64, 64
1, 260985, Control_c, 0, 64, 66
1, 261000, Control_c, 0, 64, 68
1, 261015, Control_c, 0, 64, 70
1, 261021, Note_off_c, 0, 28, 35
1, 261030, Control_c, 0, 64, 74
1, 261044, Control_c, 0, 64, 78
1, 261059, Control_c, 0, 64, 81
1, 261071, Note_off_c, 0, 40, 39
1, 261074, Control_c, 0, 64, 83
1, 261089, Control_c, 0, 64, 86
1, 261104, Control_c, 0, 64, 89
1, 261119, Control_c, 0, 64, 93
1, 261134, Control_c, 0, 64, 97
1, 261137, Note_off_c, 0, 61, 32
1, 261148, Control_c, 0, 64, 100
1, 261163, Control_c, 0, 64, 102
1, 261178, Control_c, 0, 64, 105
1, 261200, Control_c, 0, 64, 109
1, 261210, Note_off_c, 0, 58, 33
1, 261215, Control_c, 0, 64, 113
1, 261230, Control_c, 0, 64, 117
1, 261244, Control_c, 0, 64, 121
1, 261259, Control_c, 0, 64, 127
1, 261259, Control_c, 0, 67, 11
1, 261274, Control_c, 0, 67, 12
1, 261304, Control_c, 0, 67, 13
1, 261318, Control_c, 0, 67, 13
1, 261348, Control_c, 0, 67, 14
1, 261393, Control_c, 0, 67, 14
1, 261408, Control_c, 0, 67, 15
1, 261437, Control_c, 0, 67, 15
1, 261482, Control_c, 0, 67, 16
1, 261497, Control_c, 0, 67, 16
1, 261511, Control_c, 0, 67, 17
1, 261520, Note_on_c, 0, 66, 70
1, 261542, Note_on_c, 0, 61, 48
1, 261545, Note_on_c, 0, 58, 50
1, 261556, Control_c, 0, 67, 17
1, 261570, Note_on_c, 0, 52, 43
1, 261575, Note_on_c, 0, 40, 35
1, 261585, Control_c, 0, 67, 18
1, 261600, Control_c, 0, 67, 19
1, 261615, Control_c, 0, 67, 19
1, 261630, Control_c, 0, 67, 20
1, 261644, Control_c, 0, 67, 20
1, 261656, Note_off_c, 0, 40, 38
1, 261671, Note_off_c, 0, 52, 38
1, 261673, Note_off_c, 0, 67, 50
1, 261690, Control_c, 0, 67, 21
1, 261710, Note_off_c, 0, 61, 37
1, 261711, Note_off_c, 0, 58, 37
1, 261720, Control_c, 0, 67, 21
1, 261734, Control_c, 0, 67, 22
1, 261794, Control_c, 0, 64, 118
1, 261794, Control_c, 0, 67, 22
1, 261802, Note_on_c, 0, 62, 60
1, 261808, Control_c, 0, 64, 109
1, 261808, Control_c, 0, 67, 23
1, 261823, Control_c, 0, 64, 101
1, 261834, Note_on_c, 0, 59, 50
1, 261838, Note_on_c, 0, 52, 43
1, 261838, Control_c, 0, 64, 92
1, 261846, Note_on_c, 0, 40, 40
1, 261853, Control_c, 0, 64, 82
1, 261853, Control_c, 0, 67, 23
1, 261867, Control_c, 0, 64, 72
1, 261882, Control_c, 0, 64, 64
1, 261897, Control_c, 0, 64, 59
1, 261912, Control_c, 0, 64, 60
1, 261912, Control_c, 0, 67, 24
1, 261927, Control_c, 0, 64, 63
1, 261949, Control_c, 0, 64, 65
1, 261964, Control_c, 0, 64, 67
1, 261964, Control_c, 0, 67, 24
1, 261979, Control_c, 0, 64, 70
1, 261994, Control_c, 0, 64, 73
1, 261994, Control_c, 0, 67, 25
1, 262009, Control_c, 0, 64, 77
1, 262009, Control_c, 0, 67, 27
1, 262023, Control_c, 0, 64, 79
1, 262023, Control_c, 0, 67, 29
1, 262024, Note_off_c, 0, 40, 40
1, 262038, Control_c, 0, 64, 81
1, 262038, Control_c, 0, 67, 30
1, 262053, Control_c, 0, 64, 83
1, 262053, Control_c, 0, 67, 31
1, 262057, Note_off_c, 0, 59, 38
1, 262067, Control_c, 0, 64, 84
1, 262067, Control_c, 0, 67, 33
1, 262068, Note_off_c, 0, 52, 28
1, 262069, Note_off_c, 0, 62, 31
1, 262082, Control_c, 0, 64, 86
1, 262082, Control_c, 0, 67, 35
1, 262097, Control_c, 0, 64, 89
1, 262097, Control_c, 0, 67, 37
1, 262112, Control_c, 0, 64, 92
1, 262112, Control_c, 0, 67, 38
1, 262127, Control_c, 0, 64, 94
1, 262127, Control_c, 0, 67, 38
1, 262141, Control_c, 0, 64, 95
1, 262141, Control_c, 0, 67, 39
1, 262156, Control_c, 0, 64, 96
1, 262156, Control_c, 0, 67, 39
1, 262171, Control_c, 0, 64, 97
1, 262171, Control_c, 0, 67, 40
1, 262186, Control_c, 0, 64, 97
1, 262186, Control_c, 0, 67, 40
1, 262201, Control_c, 0, 64, 98
1, 262216, Control_c, 0, 67, 41
1, 262245, Control_c, 0, 67, 41
1, 262274, Control_c, 0, 64, 97
1, 262274, Control_c, 0, 67, 42
1, 262289, Control_c, 0, 64, 95
1, 262304, Control_c, 0, 64, 89
1, 262304, Control_c, 0, 67, 42
1, 262319, Control_c, 0, 64, 81
1, 262333, Control_c, 0, 64, 73
1, 262335, Note_on_c, 0, 62, 42
1, 262347, Note_on_c, 0, 57, 37
1, 262348, Control_c, 0, 64, 67
1, 262356, Note_on_c, 0, 52, 36
1, 262363, Control_c, 0, 64, 65
1, 262364, Note_on_c, 0, 40, 33
1, 262378, Control_c, 0, 64, 66
1, 262392, Control_c, 0, 64, 68
1, 262407, Control_c, 0, 64, 71
1, 262416, Note_off_c, 0, 57, 49
1, 262422, Control_c, 0, 64, 73
1, 262437, Control_c, 0, 64, 76
1, 262452, Control_c, 0, 64, 79
1, 262467, Note_off_c, 0, 40, 37
1, 262468, Control_c, 0, 64, 82
1, 262468, Control_c, 0, 67, 43
1, 262482, Control_c, 0, 64, 84
1, 262490, Note_off_c, 0, 52, 36
1, 262497, Control_c, 0, 64, 86
1, 262497, Control_c, 0, 67, 43
1, 262512, Control_c, 0, 64, 88
1, 262523, Note_off_c, 0, 62, 26
1, 262527, Control_c, 0, 64, 90
1, 262542, Control_c, 0, 64, 92
1, 262556, Control_c, 0, 64, 93
1, 262556, Control_c, 0, 67, 44
1, 262571, Control_c, 0, 64, 94
1, 262571, Control_c, 0, 67, 44
1, 262586, Control_c, 0, 67, 46
1, 262601, Control_c, 0, 67, 48
1, 262616, Control_c, 0, 67, 48
1, 262645, Control_c, 0, 67, 49
1, 262660, Control_c, 0, 64, 94
1, 262660, Control_c, 0, 67, 49
1, 262675, Control_c, 0, 64, 93
1, 262675, Control_c, 0, 67, 50
1, 262697, Control_c, 0, 64, 92
1, 262699, Note_on_c, 0, 62, 45
1, 262712, Control_c, 0, 64, 91
1, 262720, Note_on_c, 0, 56, 45
1, 262727, Control_c, 0, 64, 90
1, 262727, Control_c, 0, 67, 50
1, 262742, Control_c, 0, 64, 86
1, 262742, Control_c, 0, 67, 51
1, 262757, Control_c, 0, 64, 80
1, 262757, Control_c, 0, 67, 51
1, 262758, Note_on_c, 0, 52, 30
1, 262768, Note_on_c, 0, 40, 24
1, 262771, Control_c, 0, 64, 74
1, 262771, Control_c, 0, 67, 52
1, 262786, Control_c, 0, 64, 68
1, 262801, Control_c, 0, 64, 64
1, 262830, Control_c, 0, 64, 65
1, 262845, Control_c, 0, 64, 67
1, 262845, Control_c, 0, 67, 52
1, 262860, Control_c, 0, 64, 68
1, 262875, Control_c, 0, 64, 70
1, 262889, Control_c, 0, 64, 73
1, 262904, Control_c, 0, 64, 76
1, 262919, Control_c, 0, 64, 80
1, 262919, Control_c, 0, 67, 53
1, 262934, Control_c, 0, 64, 83
1, 262949, Control_c, 0, 64, 85
1, 262958, Note_off_c, 0, 40, 35
1, 262964, Control_c, 0, 64, 87
1, 262979, Control_c, 0, 64, 89
1, 262994, Control_c, 0, 64, 93
1, 262994, Control_c, 0, 67, 53
1, 263007, Note_off_c, 0, 52, 32
1, 263008, Control_c, 0, 64, 97
1, 263023, Control_c, 0, 64, 101
1, 263023, Control_c, 0, 67, 55
1, 263038, Control_c, 0, 64, 104
1, 263038, Control_c, 0, 67, 56
1, 263041, Note_off_c, 0, 56, 33
1, 263053, Control_c, 0, 64, 107
1, 263053, Control_c, 0, 67, 57
1, 263068, Control_c, 0, 64, 111
1, 263068, Control_c, 0, 67, 57
1, 263082, Control_c, 0, 64, 117
1, 263082, Control_c, 0, 67, 58
1, 263097, Control_c, 0, 64, 127
1, 263097, Control_c, 0, 67, 58
1, 263112, Control_c, 0, 67, 59
1, 263142, Control_c, 0, 67, 60
1, 263156, Control_c, 0, 67, 60
1, 263261, Control_c, 0, 67, 61
1, 263299, Note_off_c, 0, 62, 17
1, 263355, Note_off_c, 0, 66, 33
1, 263409, Note_on_c, 0, 65, 56
1, 263423, Note_on_c, 0, 62, 33
1, 263446, Note_on_c, 0, 56, 44
1, 263446, Control_c, 0, 67, 60
1, 263450, Note_on_c, 0, 52, 35
1, 263464, Note_on_c, 0, 40, 31
1, 263507, Note_off_c, 0, 56, 50
1, 263520, Control_c, 0, 67, 60
1, 263550, Control_c, 0, 67, 59
1, 263560, Note_off_c, 0, 40, 37
1, 263572, Note_off_c, 0, 52, 36
1, 263572, Note_off_c, 0, 65, 38
1, 263590, Note_off_c, 0, 62, 38
1, 263594, Control_c, 0, 67, 59
1, 263624, Control_c, 0, 67, 58
1, 263668, Control_c, 0, 67, 58
1, 263683, Control_c, 0, 67, 57
1, 263697, Note_on_c, 0, 65, 63
1, 263708, Note_on_c, 0, 62, 50
1, 263721, Note_on_c, 0, 56, 52
1, 263738, Note_on_c, 0, 40, 33
1, 263739, Note_on_c, 0, 52, 36
1, 263742, Control_c, 0, 67, 57
1, 263758, Control_c, 0, 67, 56
1, 263817, Control_c, 0, 67, 56
1, 263846, Control_c, 0, 67, 55
1, 263891, Control_c, 0, 67, 54
1, 263906, Control_c, 0, 67, 54
1, 263918, Note_off_c, 0, 40, 37
1, 263921, Note_off_c, 0, 52, 35
1, 263959, Note_off_c, 0, 56, 38
1, 263970, Note_off_c, 0, 62, 25
1, 263995, Control_c, 0, 67, 53
1, 263995, Note_off_c, 0, 65, 33
1, 264070, Control_c, 0, 67, 53
1, 264100, Control_c, 0, 67, 52
1, 264144, Control_c, 0, 67, 52
1, 264159, Control_c, 0, 67, 51
1, 264174, Control_c, 0, 67, 51
1, 264195, Note_on_c, 0, 65, 76
1, 264217, Note_on_c, 0, 62, 38
1, 264222, Note_on_c, 0, 56, 55
1, 264223, Note_on_c, 0, 40, 45
1, 264228, Note_on_c, 0, 52, 46
1, 264255, Control_c, 0, 67, 50
1, 264328, Note_off_c, 0, 56, 37
1, 264341, Note_off_c, 0, 52, 37
1, 264349, Note_off_c, 0, 40, 34
1, 264376, Note_off_c, 0, 65, 49
1, 264389, Control_c, 0, 67, 50
1, 264436, Note_off_c, 0, 62, 38
1, 264448, Control_c, 0, 67, 50
1, 264484, Note_on_c, 0, 65, 72
1, 264512, Note_on_c, 0, 62, 23
1, 264515, Note_on_c, 0, 40, 45
1, 264520, Note_on_c, 0, 56, 48
1, 264522, Control_c, 0, 64, 119
1, 264524, Note_on_c, 0, 52, 40
1, 264536, Control_c, 0, 64, 97
1, 264536, Control_c, 0, 67, 51
1, 264551, Control_c, 0, 64, 85
1, 264566, Control_c, 0, 64, 74
1, 264581, Control_c, 0, 64, 68
1, 264595, Control_c, 0, 64, 65
1, 264610, Control_c, 0, 64, 65
1, 264625, Control_c, 0, 67, 50
1, 264640, Control_c, 0, 64, 66
1, 264654, Control_c, 0, 64, 69
1, 264669, Control_c, 0, 64, 72
1, 264684, Note_off_c, 0, 62, 42
1, 264684, Control_c, 0, 64, 75
1, 264699, Control_c, 0, 64, 79
1, 264714, Control_c, 0, 64, 82
1, 264714, Control_c, 0, 67, 50
1, 264729, Control_c, 0, 64, 85
1, 264729, Control_c, 0, 67, 49
1, 264743, Control_c, 0, 64, 88
1, 264758, Control_c, 0, 64, 93
1, 264773, Control_c, 0, 64, 97
1, 264788, Control_c, 0, 64, 101
1, 264788, Control_c, 0, 67, 49
1, 264803, Control_c, 0, 64, 104
1, 264818, Control_c, 0, 64, 106
1, 264833, Control_c, 0, 64, 108
1, 264848, Control_c, 0, 64, 112
1, 264863, Control_c, 0, 64, 115
1, 264870, Note_off_c, 0, 56, 37
1, 264878, Control_c, 0, 64, 118
1, 264887, Note_off_c, 0, 40, 30
1, 264892, Note_off_c, 0, 52, 38
1, 264892, Control_c, 0, 64, 118
1, 264907, Control_c, 0, 64, 119
1, 264922, Control_c, 0, 64, 120
1, 264945, Control_c, 0, 64, 123
1, 264959, Control_c, 0, 64, 126
1, 265004, Control_c, 0, 64, 119
1, 265019, Control_c, 0, 64, 109
1, 265033, Note_on_c, 0, 60, 51
1, 265033, Control_c, 0, 64, 98
1, 265035, Note_on_c, 0, 40, 59
1, 265036, Note_on_c, 0, 57, 54
1, 265044, Note_on_c, 0, 52, 50
1, 265048, Control_c, 0, 64, 87
1, 265048, Control_c, 0, 67, 48
1, 265063, Control_c, 0, 64, 77
1, 265078, Control_c, 0, 64, 70
1, 265092, Control_c, 0, 64, 67
1, 265107, Control_c, 0, 64, 68
1, 265122, Control_c, 0, 64, 72
1, 265137, Control_c, 0, 64, 77
1, 265152, Control_c, 0, 64, 80
1, 265156, Note_off_c, 0, 60, 37
1, 265167, Control_c, 0, 64, 81
1, 265173, Note_off_c, 0, 57, 36
1, 265175, Note_off_c, 0, 52, 37
1, 265176, Note_off_c, 0, 40, 51
1, 265182, Control_c, 0, 64, 82
1, 265196, Control_c, 0, 64, 83
1, 265211, Control_c, 0, 64, 85
1, 265226, Control_c, 0, 64, 87
1, 265241, Control_c, 0, 64, 88
1, 265281, Note_on_c, 0, 60, 43
1, 265285, Control_c, 0, 64, 87
1, 265285, Control_c, 0, 67, 49
1, 265286, Note_on_c, 0, 57, 48
1, 265292, Note_on_c, 0, 40, 57
1, 265295, Note_on_c, 0, 52, 57
1, 265300, Control_c, 0, 64, 84
1, 265315, Control_c, 0, 64, 79
1, 265330, Control_c, 0, 64, 72
1, 265345, Control_c, 0, 64, 66
1, 265359, Control_c, 0, 64, 64
1, 265374, Control_c, 0, 64, 64
1, 265389, Control_c, 0, 64, 64
1, 265403, Control_c, 0, 64, 66
1, 265418, Control_c, 0, 64, 68
1, 265433, Control_c, 0, 64, 70
1, 265433, Control_c, 0, 67, 49
1, 265445, Note_off_c, 0, 52, 38
1, 265448, Control_c, 0, 64, 74
1, 265463, Control_c, 0, 64, 77
1, 265477, Control_c, 0, 64, 81
1, 265477, Control_c, 0, 67, 50
1, 265492, Control_c, 0, 64, 84
1, 265500, Note_off_c, 0, 60, 42
1, 265501, Note_off_c, 0, 57, 33
1, 265507, Control_c, 0, 64, 86
1, 265522, Control_c, 0, 64, 88
1, 265537, Control_c, 0, 64, 90
1, 265552, Control_c, 0, 64, 94
1, 265566, Control_c, 0, 64, 97
1, 265581, Control_c, 0, 64, 99
1, 265581, Control_c, 0, 67, 50
1, 265596, Control_c, 0, 64, 100
1, 265694, Control_c, 0, 67, 51
1, 265718, Note_off_c, 0, 40, 40
1, 265723, Control_c, 0, 64, 99
1, 265738, Control_c, 0, 64, 96
1, 265753, Control_c, 0, 64, 91
1, 265768, Control_c, 0, 64, 82
1, 265773, Note_on_c, 0, 50, 63
1, 265779, Note_on_c, 0, 38, 58
1, 265782, Control_c, 0, 64, 73
1, 265789, Note_on_c, 0, 60, 32
1, 265797, Control_c, 0, 64, 65
1, 265797, Control_c, 0, 67, 50
1, 265798, Note_on_c, 0, 57, 38
1, 265812, Control_c, 0, 64, 62
1, 265827, Control_c, 0, 64, 63
1, 265827, Control_c, 0, 67, 50
1, 265841, Control_c, 0, 64, 65
1, 265856, Control_c, 0, 64, 68
1, 265871, Control_c, 0, 64, 72
1, 265886, Control_c, 0, 64, 76
1, 265887, Note_off_c, 0, 60, 37
1, 265901, Control_c, 0, 64, 80
1, 265910, Note_off_c, 0, 57, 32
1, 265915, Control_c, 0, 64, 83
1, 265915, Control_c, 0, 67, 49
1, 265928, Note_off_c, 0, 38, 33
1, 265930, Control_c, 0, 64, 85
1, 265945, Note_off_c, 0, 50, 36
1, 265945, Control_c, 0, 64, 87
1, 265960, Control_c, 0, 64, 90
1, 265975, Control_c, 0, 64, 91
1, 265989, Control_c, 0, 64, 92
1, 266019, Control_c, 0, 67, 50
1, 266033, Control_c, 0, 64, 91
1, 266048, Control_c, 0, 64, 88
1, 266055, Note_on_c, 0, 60, 30
1, 266057, Note_on_c, 0, 38, 54
1, 266059, Note_on_c, 0, 50, 61
1, 266063, Note_on_c, 0, 57, 40
1, 266063, Control_c, 0, 64, 84
1, 266078, Control_c, 0, 64, 78
1, 266093, Control_c, 0, 64, 70
1, 266107, Control_c, 0, 64, 65
1, 266122, Control_c, 0, 64, 63
1, 266137, Control_c, 0, 64, 64
1, 266152, Control_c, 0, 64, 66
1, 266167, Control_c, 0, 64, 69
1, 266181, Control_c, 0, 64, 72
1, 266181, Control_c, 0, 67, 50
1, 266196, Control_c, 0, 64, 74
1, 266196, Control_c, 0, 67, 51
1, 266211, Note_off_c, 0, 57, 40
1, 266211, Control_c, 0, 64, 77
1, 266211, Control_c, 0, 67, 51
1, 266225, Control_c, 0, 64, 80
1, 266240, Control_c, 0, 64, 83
1, 266249, Note_off_c, 0, 60, 36
1, 266255, Control_c, 0, 64, 85
1, 266270, Control_c, 0, 64, 88
1, 266285, Control_c, 0, 64, 91
1, 266285, Control_c, 0, 67, 52
1, 266299, Control_c, 0, 64, 93
1, 266299, Control_c, 0, 67, 52
1, 266314, Control_c, 0, 64, 96
1, 266329, Control_c, 0, 64, 98
1, 266329, Control_c, 0, 67, 53
1, 266344, Control_c, 0, 64, 101
1, 266344, Control_c, 0, 67, 53
1, 266356, Note_off_c, 0, 38, 22
1, 266359, Control_c, 0, 64, 104
1, 266359, Control_c, 0, 67, 54
1, 266367, Note_off_c, 0, 50, 34
1, 266374, Note_off_c, 0, 65, 27
1, 266374, Control_c, 0, 64, 106
1, 266389, Control_c, 0, 64, 107
1, 266404, Control_c, 0, 64, 108
1, 266419, Control_c, 0, 64, 109
1, 266440, Control_c, 0, 64, 110
1, 266456, Control_c, 0, 67, 54
1, 266531, Control_c, 0, 67, 55
1, 266560, Control_c, 0, 64, 108
1, 266568, Note_on_c, 0, 65, 69
1, 266575, Control_c, 0, 64, 102
1, 266590, Control_c, 0, 64, 93
1, 266593, Note_on_c, 0, 56, 57
1, 266601, Note_on_c, 0, 60, 40
1, 266604, Control_c, 0, 64, 83
1, 266608, Note_on_c, 0, 50, 45
1, 266612, Note_on_c, 0, 38, 43
1, 266619, Control_c, 0, 64, 75
1, 266634, Control_c, 0, 64, 68
1, 266649, Control_c, 0, 64, 66
1, 266663, Control_c, 0, 64, 69
1, 266663, Control_c, 0, 67, 54
1, 266678, Control_c, 0, 64, 73
1, 266693, Control_c, 0, 64, 77
1, 266708, Control_c, 0, 64, 80
1, 266709, Note_off_c, 0, 60, 27
1, 266714, Note_off_c, 0, 38, 37
1, 266717, Note_off_c, 0, 56, 38
1, 266718, Note_off_c, 0, 50, 37
1, 266723, Control_c, 0, 64, 83
1, 266738, Control_c, 0, 64, 85
1, 266738, Control_c, 0, 67, 55
1, 266753, Control_c, 0, 64, 89
1, 266768, Control_c, 0, 64, 93
1, 266783, Control_c, 0, 64, 96
1, 266798, Control_c, 0, 64, 97
1, 266812, Control_c, 0, 67, 55
1, 266848, Note_on_c, 0, 60, 47
1, 266857, Control_c, 0, 64, 95
1, 266857, Control_c, 0, 67, 56
1, 266858, Note_on_c, 0, 56, 47
1, 266872, Control_c, 0, 64, 90
1, 266887, Control_c, 0, 64, 84
1, 266889, Note_on_c, 0, 38, 34
1, 266892, Note_on_c, 0, 50, 32
1, 266902, Control_c, 0, 64, 76
1, 266902, Control_c, 0, 67, 56
1, 266916, Control_c, 0, 64, 70
1, 266931, Control_c, 0, 64, 67
1, 266961, Control_c, 0, 64, 69
1, 266975, Control_c, 0, 64, 71
1, 266975, Control_c, 0, 67, 57
1, 266990, Control_c, 0, 64, 74
1, 267005, Control_c, 0, 64, 76
1, 267020, Control_c, 0, 64, 79
1, 267020, Control_c, 0, 67, 57
1, 267022, Note_off_c, 0, 60, 49
1, 267035, Control_c, 0, 64, 82
1, 267035, Control_c, 0, 67, 58
1, 267049, Control_c, 0, 64, 85
1, 267049, Control_c, 0, 67, 58
1, 267057, Note_off_c, 0, 38, 36
1, 267064, Control_c, 0, 64, 87
1, 267079, Control_c, 0, 64, 89
1, 267094, Control_c, 0, 64, 91
1, 267094, Control_c, 0, 67, 59
1, 267102, Note_off_c, 0, 50, 32
1, 267109, Control_c, 0, 64, 92
1, 267123, Control_c, 0, 64, 94
1, 267123, Control_c, 0, 67, 59
1, 267138, Control_c, 0, 64, 96
1, 267153, Control_c, 0, 64, 98
1, 267153, Control_c, 0, 67, 60
1, 267166, Note_off_c, 0, 56, 30
1, 267168, Control_c, 0, 64, 101
1, 267168, Control_c, 0, 67, 60
1, 267190, Control_c, 0, 64, 103
1, 267196, Note_off_c, 0, 65, 31
1, 267205, Control_c, 0, 64, 104
1, 267220, Control_c, 0, 64, 104
1, 267295, Control_c, 0, 67, 61
1, 267340, Control_c, 0, 64, 100
1, 267340, Control_c, 0, 67, 61
1, 267354, Control_c, 0, 64, 93
1, 267357, Note_on_c, 0, 65, 58
1, 267369, Control_c, 0, 64, 84
1, 267376, Note_on_c, 0, 56, 54
1, 267384, Control_c, 0, 64, 75
1, 267391, Note_on_c, 0, 59, 37
1, 267394, Note_on_c, 0, 50, 40
1, 267399, Control_c, 0, 64, 68
1, 267411, Note_on_c, 0, 38, 35
1, 267413, Control_c, 0, 64, 66
1, 267428, Control_c, 0, 64, 68
1, 267443, Control_c, 0, 64, 71
1, 267458, Control_c, 0, 64, 75
1, 267473, Control_c, 0, 64, 78
1, 267487, Control_c, 0, 64, 81
1, 267496, Note_off_c, 0, 56, 38
1, 267502, Control_c, 0, 64, 84
1, 267510, Note_off_c, 0, 38, 37
1, 267513, Note_off_c, 0, 50, 38
1, 267516, Note_off_c, 0, 59, 42
1, 267517, Control_c, 0, 64, 87
1, 267532, Control_c, 0, 64, 90
1, 267547, Control_c, 0, 64, 93
1, 267561, Control_c, 0, 64, 96
1, 267576, Control_c, 0, 64, 97
1, 267620, Control_c, 0, 64, 96
1, 267635, Control_c, 0, 64, 93
1, 267640, Note_on_c, 0, 59, 38
1, 267650, Control_c, 0, 64, 88
1, 267659, Note_on_c, 0, 50, 36
1, 267663, Note_on_c, 0, 56, 34
1, 267665, Control_c, 0, 64, 82
1, 267672, Note_on_c, 0, 38, 26
1, 267680, Control_c, 0, 64, 75
1, 267680, Control_c, 0, 67, 61
1, 267694, Control_c, 0, 64, 68
1, 267709, Control_c, 0, 64, 66
1, 267724, Control_c, 0, 64, 68
1, 267739, Control_c, 0, 64, 71
1, 267754, Control_c, 0, 64, 74
1, 267769, Control_c, 0, 64, 77
1, 267784, Control_c, 0, 64, 79
1, 267790, Note_off_c, 0, 65, 51
1, 267798, Control_c, 0, 64, 82
1, 267808, Note_off_c, 0, 38, 39
1, 267813, Control_c, 0, 64, 86
1, 267813, Control_c, 0, 67, 61
1, 267828, Control_c, 0, 64, 89
1, 267843, Control_c, 0, 64, 93
1, 267858, Note_off_c, 0, 56, 39
1, 267858, Control_c, 0, 64, 95
1, 267863, Note_off_c, 0, 50, 42
1, 267872, Control_c, 0, 64, 95
1, 267887, Control_c, 0, 64, 97
1, 267894, Note_off_c, 0, 59, 28
1, 267902, Control_c, 0, 64, 99
1, 267902, Control_c, 0, 67, 62
1, 267917, Control_c, 0, 64, 102
1, 267939, Control_c, 0, 64, 105
1, 267954, Control_c, 0, 64, 107
1, 267969, Control_c, 0, 64, 107
1, 268013, Control_c, 0, 64, 108
1, 268013, Control_c, 0, 67, 62
1, 268162, Control_c, 0, 64, 107
1, 268177, Control_c, 0, 67, 64
1, 268192, Control_c, 0, 64, 103
1, 268192, Control_c, 0, 67, 66
1, 268207, Control_c, 0, 64, 95
1, 268207, Control_c, 0, 67, 67
1, 268216, Note_on_c, 0, 65, 59
1, 268222, Control_c, 0, 64, 83
1, 268222, Control_c, 0, 67, 67
1, 268232, Note_on_c, 0, 59, 36
1, 268236, Note_on_c, 0, 37, 42
1, 268236, Note_on_c, 0, 49, 40
1, 268237, Control_c, 0, 64, 72
1, 268237, Control_c, 0, 67, 68
1, 268239, Note_on_c, 0, 56, 43
1, 268252, Control_c, 0, 64, 65
1, 268252, Control_c, 0, 67, 69
1, 268267, Control_c, 0, 64, 62
1, 268282, Control_c, 0, 64, 64
1, 268282, Control_c, 0, 67, 69
1, 268297, Control_c, 0, 64, 67
1, 268311, Control_c, 0, 64, 71
1, 268311, Control_c, 0, 67, 70
1, 268326, Control_c, 0, 64, 76
1, 268341, Control_c, 0, 64, 80
1, 268341, Control_c, 0, 67, 70
1, 268347, Note_off_c, 0, 49, 36
1, 268356, Control_c, 0, 64, 84
1, 268369, Note_off_c, 0, 56, 35
1, 268371, Control_c, 0, 64, 88
1, 268371, Control_c, 0, 67, 71
1, 268385, Control_c, 0, 64, 91
1, 268400, Control_c, 0, 64, 92
1, 268415, Control_c, 0, 64, 93
1, 268429, Control_c, 0, 64, 94
1, 268474, Control_c, 0, 67, 71
1, 268489, Control_c, 0, 67, 72
1, 268503, Control_c, 0, 64, 93
1, 268512, Note_off_c, 0, 59, 0
1, 268513, Note_on_c, 0, 66, 63
1, 268518, Control_c, 0, 64, 92
1, 268533, Control_c, 0, 64, 89
1, 268537, Note_on_c, 0, 57, 39
1, 268547, Note_on_c, 0, 42, 45
1, 268548, Control_c, 0, 64, 85
1, 268550, Poly_aftertouch_c, 0, 59, 127
1, 268553, Note_off_c, 0, 37, 36
1, 268557, Note_on_c, 0, 49, 39
1, 268563, Control_c, 0, 64, 78
1, 268569, Note_off_c, 0, 65, 37
1, 268577, Control_c, 0, 64, 70
1, 268592, Control_c, 0, 64, 64
1, 268607, Control_c, 0, 64, 58
1, 268610, Poly_aftertouch_c, 0, 59, 0
1, 268622, Control_c, 0, 64, 54
1, 268636, Control_c, 0, 64, 54
1, 268651, Control_c, 0, 64, 54
1, 268666, Control_c, 0, 64, 57
1, 268689, Control_c, 0, 64, 63
1, 268703, Control_c, 0, 64, 66
1, 268718, Control_c, 0, 64, 69
1, 268733, Control_c, 0, 64, 72
1, 268748, Control_c, 0, 64, 75
1, 268762, Control_c, 0, 64, 78
1, 268764, Note_off_c, 0, 57, 53
1, 268777, Control_c, 0, 64, 81
1, 268792, Control_c, 0, 64, 84
1, 268807, Control_c, 0, 64, 88
1, 268822, Control_c, 0, 64, 91
1, 268836, Control_c, 0, 64, 92
1, 268852, Control_c, 0, 64, 94
1, 268867, Control_c, 0, 64, 96
1, 268882, Control_c, 0, 64, 98
1, 268897, Control_c, 0, 64, 100
1, 268912, Control_c, 0, 64, 102
1, 268926, Control_c, 0, 64, 103
1, 268933, Note_off_c, 0, 66, 35
1, 268938, Note_off_c, 0, 49, 37
1, 268941, Control_c, 0, 64, 104
1, 268986, Control_c, 0, 64, 105
1, 269000, Control_c, 0, 64, 105
1, 269030, Control_c, 0, 64, 106
1, 269164, Control_c, 0, 64, 105
1, 269179, Control_c, 0, 64, 103
1, 269194, Control_c, 0, 64, 98
1, 269196, Note_on_c, 0, 60, 55
1, 269208, Control_c, 0, 64, 90
1, 269213, Note_on_c, 0, 44, 51
1, 269221, Note_on_c, 0, 54, 43
1, 269223, Control_c, 0, 64, 78
1, 269238, Control_c, 0, 64, 69
1, 269238, Control_c, 0, 67, 71
1, 269249, Note_off_c, 0, 42, 42
1, 269252, Control_c, 0, 64, 62
1, 269252, Control_c, 0, 67, 70
1, 269267, Control_c, 0, 64, 60
1, 269267, Control_c, 0, 67, 70
1, 269282, Control_c, 0, 64, 62
1, 269297, Control_c, 0, 64, 65
1, 269312, Control_c, 0, 64, 68
1, 269326, Control_c, 0, 64, 71
1, 269326, Control_c, 0, 67, 69
1, 269341, Control_c, 0, 64, 74
1, 269341, Control_c, 0, 67, 69
1, 269356, Control_c, 0, 64, 77
1, 269356, Control_c, 0, 67, 68
1, 269364, Note_off_c, 0, 54, 40
1, 269371, Control_c, 0, 64, 81
1, 269385, Control_c, 0, 64, 83
1, 269385, Control_c, 0, 67, 68
1, 269400, Control_c, 0, 64, 86
1, 269400, Control_c, 0, 67, 67
1, 269415, Control_c, 0, 64, 89
1, 269415, Control_c, 0, 67, 66
1, 269438, Control_c, 0, 64, 91
1, 269438, Control_c, 0, 67, 66
1, 269453, Control_c, 0, 64, 93
1, 269467, Control_c, 0, 64, 96
1, 269482, Control_c, 0, 64, 97
1, 269497, Control_c, 0, 64, 99
1, 269497, Control_c, 0, 67, 65
1, 269512, Control_c, 0, 64, 100
1, 269526, Control_c, 0, 64, 101
1, 269630, Control_c, 0, 64, 101
1, 269645, Control_c, 0, 64, 99
1, 269661, Control_c, 0, 64, 97
1, 269675, Control_c, 0, 64, 94
1, 269685, Note_on_c, 0, 61, 55
1, 269690, Control_c, 0, 64, 90
1, 269695, Note_off_c, 0, 44, 42
1, 269705, Control_c, 0, 64, 84
1, 269712, Note_on_c, 0, 53, 36
1, 269718, Note_on_c, 0, 37, 43
1, 269720, Control_c, 0, 64, 77
1, 269735, Control_c, 0, 64, 69
1, 269735, Control_c, 0, 67, 66
1, 269749, Control_c, 0, 64, 62
1, 269764, Control_c, 0, 64, 51
1, 269779, Control_c, 0, 64, 46
1, 269781, Note_off_c, 0, 60, 38
1, 269794, Control_c, 0, 64, 46
1, 269808, Control_c, 0, 67, 65
1, 269823, Control_c, 0, 64, 48
1, 269838, Control_c, 0, 64, 54
1, 269838, Control_c, 0, 67, 65
1, 269853, Control_c, 0, 64, 61
1, 269853, Control_c, 0, 67, 64
1, 269868, Control_c, 0, 64, 65
1, 269868, Control_c, 0, 67, 64
1, 269882, Control_c, 0, 64, 68
1, 269897, Control_c, 0, 64, 71
1, 269897, Control_c, 0, 67, 63
1, 269912, Control_c, 0, 64, 74
1, 269912, Control_c, 0, 67, 63
1, 269927, Control_c, 0, 64, 78
1, 269927, Control_c, 0, 67, 62
1, 269942, Control_c, 0, 64, 82
1, 269942, Control_c, 0, 67, 61
1, 269957, Control_c, 0, 64, 86
1, 269957, Control_c, 0, 67, 61
1, 269972, Control_c, 0, 64, 89
1, 269972, Control_c, 0, 67, 60
1, 269987, Control_c, 0, 64, 93
1, 269996, Note_off_c, 0, 53, 40
1, 270001, Control_c, 0, 64, 97
1, 270001, Control_c, 0, 67, 60
1, 270016, Control_c, 0, 64, 102
1, 270016, Control_c, 0, 67, 59
1, 270031, Control_c, 0, 64, 107
1, 270031, Control_c, 0, 67, 58
1, 270046, Note_off_c, 0, 61, 46
1, 270046, Control_c, 0, 64, 114
1, 270046, Control_c, 0, 67, 57
1, 270061, Control_c, 0, 64, 126
1, 270061, Control_c, 0, 67, 56
1, 270075, Control_c, 0, 64, 127
1, 270075, Control_c, 0, 67, 55
1, 270090, Control_c, 0, 67, 54
1, 270105, Control_c, 0, 67, 53
1, 270120, Control_c, 0, 67, 51
1, 270135, Control_c, 0, 67, 49
1, 270147, Note_off_c, 0, 37, 40
1, 270149, Control_c, 0, 67, 48
1, 270164, Control_c, 0, 67, 47
1, 270187, Control_c, 0, 67, 46
1, 270201, Control_c, 0, 67, 44
1, 270216, Control_c, 0, 67, 42
1, 270231, Control_c, 0, 67, 41
1, 270246, Control_c, 0, 67, 40
1, 270261, Control_c, 0, 67, 39
1, 270276, Control_c, 0, 67, 38
1, 270290, Control_c, 0, 67, 36
1, 270305, Control_c, 0, 67, 34
1, 270320, Control_c, 0, 67, 33
1, 270335, Control_c, 0, 67, 32
1, 270350, Control_c, 0, 67, 30
1, 270364, Control_c, 0, 67, 29
1, 270379, Control_c, 0, 67, 27
1, 270394, Control_c, 0, 67, 25
1, 270408, Control_c, 0, 67, 24
1, 270423, Control_c, 0, 67, 23
1, 270438, Control_c, 0, 67, 21
1, 270454, Control_c, 0, 67, 19
1, 270469, Control_c, 0, 67, 17
1, 270484, Control_c, 0, 67, 16
1, 270497, Control_c, 0, 67, 15
1, 270512, Control_c, 0, 67, 13
1, 270527, Control_c, 0, 67, 11
1, 270542, Control_c, 0, 67, 9
1, 270557, Control_c, 0, 67, 8
1, 270571, Control_c, 0, 67, 0
1, 270688, Note_on_c, 0, 68, 70
1, 270710, Note_on_c, 0, 61, 47
1, 270719, Note_on_c, 0, 56, 54
1, 270720, Note_on_c, 0, 53, 48
1, 270884, Note_off_c, 0, 56, 54
1, 270908, Note_off_c, 0, 68, 59
1, 270916, Note_off_c, 0, 61, 31
1, 271064, Note_on_c, 0, 67, 73
1, 271075, Note_on_c, 0, 61, 45
1, 271090, Note_on_c, 0, 58, 54
1, 271098, Note_on_c, 0, 52, 56
1, 271127, Control_c, 0, 64, 116
1, 271137, Note_off_c, 0, 53, 58
1, 271142, Control_c, 0, 64, 95
1, 271156, Control_c, 0, 64, 80
1, 271171, Control_c, 0, 64, 68
1, 271186, Control_c, 0, 64, 57
1, 271201, Control_c, 0, 64, 49
1, 271216, Control_c, 0, 64, 52
1, 271218, Note_off_c, 0, 61, 40
1, 271230, Control_c, 0, 64, 58
1, 271246, Control_c, 0, 64, 63
1, 271261, Control_c, 0, 64, 67
1, 271276, Control_c, 0, 64, 71
1, 271291, Control_c, 0, 64, 75
1, 271306, Control_c, 0, 64, 78
1, 271320, Control_c, 0, 64, 81
1, 271335, Control_c, 0, 64, 84
1, 271350, Control_c, 0, 64, 88
1, 271358, Note_off_c, 0, 67, 59
1, 271365, Control_c, 0, 64, 93
1, 271380, Control_c, 0, 64, 97
1, 271394, Control_c, 0, 64, 101
1, 271409, Control_c, 0, 64, 105
1, 271424, Control_c, 0, 64, 109
1, 271425, Note_off_c, 0, 58, 44
1, 271439, Control_c, 0, 64, 113
1, 271453, Control_c, 0, 64, 118
1, 271468, Control_c, 0, 64, 124
1, 271483, Control_c, 0, 64, 127
1, 271602, Control_c, 0, 64, 112
1, 271602, Note_on_c, 0, 66, 66
1, 271613, Note_on_c, 0, 60, 46
1, 271617, Control_c, 0, 64, 99
1, 271621, Note_on_c, 0, 51, 57
1, 271625, Note_off_c, 0, 52, 36
1, 271629, Note_on_c, 0, 56, 50
1, 271632, Control_c, 0, 64, 86
1, 271646, Control_c, 0, 64, 75
1, 271661, Control_c, 0, 64, 66
1, 271683, Control_c, 0, 64, 62
1, 271689, Note_off_c, 0, 60, 53
1, 271698, Control_c, 0, 64, 64
1, 271713, Control_c, 0, 64, 67
1, 271728, Control_c, 0, 64, 71
1, 271743, Control_c, 0, 64, 74
1, 271757, Control_c, 0, 64, 78
1, 271772, Control_c, 0, 64, 82
1, 271783, Note_off_c, 0, 66, 56
1, 271787, Control_c, 0, 64, 87
1, 271802, Control_c, 0, 64, 91
1, 271817, Control_c, 0, 64, 95
1, 271821, Note_off_c, 0, 56, 36
1, 271832, Control_c, 0, 64, 99
1, 271846, Control_c, 0, 64, 101
1, 271861, Control_c, 0, 64, 103
1, 271876, Control_c, 0, 64, 104
1, 271891, Control_c, 0, 64, 105
1, 271976, Note_off_c, 0, 51, 36
1, 271979, Control_c, 0, 64, 103
1, 271993, Note_on_c, 0, 65, 59
1, 271994, Control_c, 0, 64, 99
1, 272006, Note_on_c, 0, 61, 44
1, 272009, Control_c, 0, 64, 95
1, 272020, Note_on_c, 0, 56, 38
1, 272023, Note_on_c, 0, 49, 43
1, 272024, Control_c, 0, 64, 89
1, 272039, Control_c, 0, 64, 83
1, 272055, Control_c, 0, 64, 75
1, 272069, Control_c, 0, 64, 65
1, 272084, Control_c, 0, 64, 56
1, 272099, Control_c, 0, 64, 45
1, 272114, Control_c, 0, 64, 44
1, 272144, Control_c, 0, 64, 47
1, 272144, Control_c, 0, 67, 8
1, 272158, Control_c, 0, 64, 52
1, 272173, Control_c, 0, 64, 60
1, 272173, Control_c, 0, 67, 9
1, 272188, Control_c, 0, 64, 64
1, 272188, Control_c, 0, 67, 10
1, 272202, Control_c, 0, 64, 67
1, 272202, Control_c, 0, 67, 11
1, 272217, Control_c, 0, 64, 70
1, 272217, Control_c, 0, 67, 12
1, 272232, Control_c, 0, 64, 72
1, 272232, Control_c, 0, 67, 13
1, 272247, Control_c, 0, 64, 75
1, 272247, Control_c, 0, 67, 14
1, 272262, Note_off_c, 0, 56, 39
1, 272262, Control_c, 0, 64, 79
1, 272262, Control_c, 0, 67, 15
1, 272276, Control_c, 0, 64, 81
1, 272276, Control_c, 0, 67, 17
1, 272285, Note_off_c, 0, 65, 37
1, 272291, Control_c, 0, 64, 83
1, 272291, Control_c, 0, 67, 20
1, 272306, Control_c, 0, 64, 85
1, 272306, Control_c, 0, 67, 23
1, 272321, Control_c, 0, 64, 87
1, 272321, Control_c, 0, 67, 25
1, 272330, Note_off_c, 0, 49, 37
1, 272336, Control_c, 0, 64, 90
1, 272336, Control_c, 0, 67, 27
1, 272351, Control_c, 0, 64, 92
1, 272351, Control_c, 0, 67, 29
1, 272366, Control_c, 0, 64, 95
1, 272366, Control_c, 0, 67, 32
1, 272372, Note_off_c, 0, 61, 30
1, 272380, Control_c, 0, 64, 95
1, 272380, Control_c, 0, 67, 34
1, 272395, Control_c, 0, 67, 37
1, 272410, Control_c, 0, 67, 39
1, 272432, Control_c, 0, 67, 42
1, 272447, Control_c, 0, 67, 44
1, 272462, Control_c, 0, 67, 46
1, 272476, Control_c, 0, 67, 49
1, 272491, Control_c, 0, 67, 51
1, 272506, Control_c, 0, 67, 53
1, 272521, Control_c, 0, 67, 55
1, 272536, Control_c, 0, 67, 57
1, 272550, Control_c, 0, 67, 60
1, 272565, Control_c, 0, 67, 63
1, 272580, Control_c, 0, 64, 95
1, 272580, Control_c, 0, 67, 65
1, 272595, Control_c, 0, 64, 94
1, 272595, Control_c, 0, 67, 67
1, 272610, Control_c, 0, 64, 93
1, 272610, Control_c, 0, 67, 69
1, 272625, Control_c, 0, 64, 92
1, 272625, Control_c, 0, 67, 71
1, 272640, Control_c, 0, 64, 91
1, 272640, Control_c, 0, 67, 74
1, 272655, Control_c, 0, 64, 90
1, 272655, Control_c, 0, 67, 77
1, 272669, Control_c, 0, 64, 90
1, 272669, Control_c, 0, 67, 80
1, 272684, Control_c, 0, 64, 89
1, 272684, Control_c, 0, 67, 83
1, 272699, Control_c, 0, 64, 87
1, 272699, Control_c, 0, 67, 86
1, 272714, Control_c, 0, 64, 84
1, 272714, Control_c, 0, 67, 89
1, 272729, Control_c, 0, 64, 82
1, 272729, Control_c, 0, 67, 92
1, 272742, Control_c, 0, 64, 80
1, 272742, Control_c, 0, 67, 95
1, 272757, Control_c, 0, 64, 79
1, 272757, Control_c, 0, 67, 98
1, 272772, Control_c, 0, 67, 100
1, 272787, Control_c, 0, 64, 79
1, 272787, Control_c, 0, 67, 102
1, 272801, Control_c, 0, 64, 78
1, 272801, Control_c, 0, 67, 104
1, 272816, Control_c, 0, 64, 77
1, 272816, Control_c, 0, 67, 107
1, 272831, Control_c, 0, 64, 75
1, 272831, Control_c, 0, 67, 109
1, 272847, Control_c, 0, 64, 73
1, 272847, Control_c, 0, 67, 112
1, 272862, Control_c, 0, 64, 72
1, 272862, Control_c, 0, 67, 115
1, 272877, Control_c, 0, 64, 72
1, 272877, Control_c, 0, 67, 117
1, 272891, Control_c, 0, 67, 119
1, 272906, Control_c, 0, 67, 121
1, 272921, Control_c, 0, 64, 71
1, 272921, Control_c, 0, 67, 123
1, 272936, Control_c, 0, 64, 71
1, 272936, Control_c, 0, 67, 125
1, 272951, Control_c, 0, 64, 70
1, 272951, Control_c, 0, 67, 127
1, 272966, Control_c, 0, 64, 70
1, 272980, Control_c, 0, 64, 69
1, 272995, Control_c, 0, 64, 69
1, 273010, Control_c, 0, 64, 68
1, 273054, Control_c, 0, 64, 68
1, 273069, Control_c, 0, 64, 67
1, 273084, Control_c, 0, 64, 66
1, 273099, Control_c, 0, 64, 66
1, 273129, Control_c, 0, 64, 65
1, 273144, Control_c, 0, 64, 65
1, 273158, Control_c, 0, 64, 64
1, 273180, Control_c, 0, 64, 64
1, 273210, Control_c, 0, 64, 63
1, 273224, Control_c, 0, 64, 63
1, 273239, Control_c, 0, 64, 62
1, 273254, Control_c, 0, 64, 61
1, 273284, Control_c, 0, 64, 61
1, 273432, Control_c, 0, 64, 61
1, 273447, Control_c, 0, 64, 62
1, 273457, Note_on_c, 0, 68, 47
1, 273462, Control_c, 0, 64, 62
1, 273477, Control_c, 0, 64, 63
1, 273486, Note_on_c, 0, 61, 28
1, 273492, Control_c, 0, 64, 64
1, 273495, Note_on_c, 0, 56, 35
1, 273497, Note_on_c, 0, 53, 36
1, 273507, Control_c, 0, 64, 65
1, 273522, Control_c, 0, 64, 66
1, 273537, Control_c, 0, 64, 68
1, 273551, Control_c, 0, 64, 69
1, 273566, Control_c, 0, 64, 71
1, 273581, Control_c, 0, 64, 72
1, 273596, Control_c, 0, 64, 74
1, 273611, Control_c, 0, 64, 76
1, 273625, Control_c, 0, 64, 78
1, 273641, Control_c, 0, 64, 80
1, 273656, Control_c, 0, 64, 82
1, 273671, Control_c, 0, 64, 84
1, 273686, Control_c, 0, 64, 86
1, 273699, Note_off_c, 0, 56, 42
1, 273701, Control_c, 0, 64, 88
1, 273715, Control_c, 0, 64, 89
1, 273728, Note_off_c, 0, 68, 31
1, 273730, Control_c, 0, 64, 91
1, 273745, Control_c, 0, 64, 93
1, 273760, Control_c, 0, 64, 95
1, 273774, Control_c, 0, 64, 96
1, 273789, Control_c, 0, 64, 96
1, 273790, Note_off_c, 0, 61, 18
1, 273804, Control_c, 0, 64, 97
1, 273885, Note_on_c, 0, 67, 52
1, 273901, Note_on_c, 0, 61, 6
1, 273908, Control_c, 0, 64, 96
1, 273918, Note_on_c, 0, 52, 51
1, 273929, Note_on_c, 0, 57, 43
1, 273930, Control_c, 0, 64, 96
1, 273945, Control_c, 0, 64, 95
1, 273960, Control_c, 0, 64, 94
1, 273974, Control_c, 0, 64, 92
1, 273979, Note_off_c, 0, 53, 43
1, 273989, Control_c, 0, 64, 90
1, 274004, Control_c, 0, 64, 85
1, 274019, Control_c, 0, 64, 79
1, 274034, Control_c, 0, 64, 72
1, 274048, Control_c, 0, 64, 66
1, 274063, Control_c, 0, 64, 63
1, 274078, Control_c, 0, 64, 62
1, 274093, Control_c, 0, 64, 63
1, 274108, Control_c, 0, 64, 64
1, 274122, Control_c, 0, 64, 65
1, 274137, Control_c, 0, 64, 68
1, 274152, Control_c, 0, 64, 72
1, 274166, Control_c, 0, 64, 77
1, 274181, Control_c, 0, 64, 80
1, 274196, Control_c, 0, 64, 82
1, 274209, Note_off_c, 0, 61, 40
1, 274211, Control_c, 0, 64, 85
1, 274226, Control_c, 0, 64, 88
1, 274241, Control_c, 0, 64, 92
1, 274255, Control_c, 0, 64, 96
1, 274270, Control_c, 0, 64, 100
1, 274285, Control_c, 0, 64, 102
1, 274297, Note_off_c, 0, 67, 48
1, 274300, Control_c, 0, 64, 105
1, 274315, Control_c, 0, 64, 110
1, 274330, Control_c, 0, 64, 115
1, 274342, Note_off_c, 0, 57, 31
1, 274345, Control_c, 0, 64, 121
1, 274360, Control_c, 0, 64, 123
1, 274389, Control_c, 0, 64, 124
1, 274479, Control_c, 0, 64, 123
1, 274484, Note_off_c, 0, 52, 57
1, 274509, Control_c, 0, 64, 122
1, 274524, Control_c, 0, 64, 114
1, 274530, Note_on_c, 0, 50, 55
1, 274532, Note_on_c, 0, 66, 46
1, 274533, Note_on_c, 0, 62, 46
1, 274538, Control_c, 0, 64, 106
1, 274551, Note_on_c, 0, 57, 39
1, 274553, Control_c, 0, 64, 95
1, 274568, Control_c, 0, 64, 83
1, 274583, Control_c, 0, 64, 73
1, 274597, Control_c, 0, 64, 65
1, 274612, Control_c, 0, 64, 63
1, 274627, Control_c, 0, 64, 64
1, 274642, Control_c, 0, 64, 67
1, 274657, Control_c, 0, 64, 71
1, 274679, Control_c, 0, 64, 74
1, 274694, Control_c, 0, 64, 78
1, 274700, Note_off_c, 0, 66, 37
1, 274709, Control_c, 0, 64, 82
1, 274723, Control_c, 0, 64, 85
1, 274738, Control_c, 0, 64, 88
1, 274746, Note_off_c, 0, 57, 34
1, 274753, Control_c, 0, 64, 91
1, 274765, Note_off_c, 0, 62, 20
1, 274768, Control_c, 0, 64, 94
1, 274783, Control_c, 0, 64, 96
1, 274797, Control_c, 0, 64, 98
1, 274812, Control_c, 0, 64, 99
1, 274871, Control_c, 0, 64, 98
1, 274878, Note_on_c, 0, 65, 54
1, 274884, Note_on_c, 0, 63, 47
1, 274886, Control_c, 0, 64, 97
1, 274887, Note_on_c, 0, 57, 39
1, 274901, Note_on_c, 0, 48, 56
1, 274901, Control_c, 0, 64, 95
1, 274916, Control_c, 0, 64, 91
1, 274931, Control_c, 0, 64, 86
1, 274945, Control_c, 0, 64, 79
1, 274952, Note_off_c, 0, 50, 37
1, 274960, Control_c, 0, 64, 70
1, 274975, Control_c, 0, 64, 63
1, 274990, Control_c, 0, 64, 51
1, 275004, Control_c, 0, 64, 47
1, 275019, Control_c, 0, 64, 50
1, 275034, Control_c, 0, 64, 55
1, 275049, Control_c, 0, 64, 61
1, 275064, Control_c, 0, 64, 64
1, 275078, Control_c, 0, 64, 67
1, 275093, Control_c, 0, 64, 70
1, 275108, Control_c, 0, 64, 74
1, 275123, Control_c, 0, 64, 77
1, 275138, Control_c, 0, 64, 79
1, 275153, Control_c, 0, 64, 82
1, 275168, Control_c, 0, 64, 84
1, 275179, Note_off_c, 0, 57, 36
1, 275183, Control_c, 0, 64, 86
1, 275197, Control_c, 0, 64, 89
1, 275212, Control_c, 0, 64, 92
1, 275227, Control_c, 0, 64, 94
1, 275242, Control_c, 0, 64, 97
1, 275248, Note_off_c, 0, 65, 27
1, 275257, Control_c, 0, 64, 99
1, 275272, Control_c, 0, 64, 102
1, 275287, Control_c, 0, 64, 104
1, 275302, Control_c, 0, 64, 107
1, 275317, Control_c, 0, 64, 109
1, 275332, Control_c, 0, 64, 110
1, 275346, Control_c, 0, 64, 110
1, 275376, Control_c, 0, 64, 111
1, 275391, Control_c, 0, 64, 111
1, 275406, Control_c, 0, 64, 112
1, 275425, Note_off_c, 0, 63, 41
1, 275487, Control_c, 0, 64, 112
1, 275546, Control_c, 0, 64, 112
1, 275569, Note_off_c, 0, 48, 38
1, 275620, Control_c, 0, 64, 110
1, 275635, Control_c, 0, 64, 105
1, 275637, Note_on_c, 0, 47, 50
1, 275640, Note_on_c, 0, 65, 46
1, 275648, Note_on_c, 0, 56, 45
1, 275649, Note_on_c, 0, 62, 45
1, 275650, Control_c, 0, 64, 97
1, 275665, Control_c, 0, 64, 87
1, 275680, Control_c, 0, 64, 76
1, 275694, Control_c, 0, 64, 66
1, 275709, Control_c, 0, 64, 61
1, 275738, Control_c, 0, 64, 64
1, 275753, Control_c, 0, 64, 67
1, 275768, Control_c, 0, 64, 69
1, 275783, Control_c, 0, 64, 72
1, 275798, Control_c, 0, 64, 75
1, 275806, Note_off_c, 0, 62, 35
1, 275813, Control_c, 0, 64, 79
1, 275827, Control_c, 0, 64, 83
1, 275842, Control_c, 0, 64, 85
1, 275857, Control_c, 0, 64, 88
1, 275872, Control_c, 0, 64, 90
1, 275887, Control_c, 0, 64, 92
1, 275892, Note_off_c, 0, 56, 40
1, 275901, Control_c, 0, 64, 95
1, 275916, Control_c, 0, 64, 97
1, 275931, Control_c, 0, 64, 100
1, 275946, Control_c, 0, 64, 102
1, 275961, Control_c, 0, 64, 103
1, 275975, Control_c, 0, 64, 105
1, 275996, Note_off_c, 0, 65, 62
1, 276113, Note_on_c, 0, 66, 48
1, 276124, Note_on_c, 0, 61, 41
1, 276124, Control_c, 0, 64, 103
1, 276136, Note_on_c, 0, 45, 54
1, 276139, Control_c, 0, 64, 101
1, 276148, Note_on_c, 0, 54, 39
1, 276154, Control_c, 0, 64, 98
1, 276176, Control_c, 0, 64, 95
1, 276191, Control_c, 0, 64, 91
1, 276206, Control_c, 0, 64, 84
1, 276221, Control_c, 0, 64, 75
1, 276222, Note_off_c, 0, 47, 37
1, 276236, Control_c, 0, 64, 67
1, 276250, Control_c, 0, 64, 60
1, 276265, Control_c, 0, 64, 53
1, 276295, Control_c, 0, 64, 53
1, 276310, Control_c, 0, 64, 55
1, 276324, Control_c, 0, 64, 60
1, 276339, Control_c, 0, 64, 64
1, 276354, Control_c, 0, 64, 67
1, 276369, Control_c, 0, 64, 69
1, 276384, Control_c, 0, 64, 71
1, 276399, Control_c, 0, 64, 73
1, 276414, Control_c, 0, 64, 75
1, 276429, Control_c, 0, 64, 78
1, 276443, Control_c, 0, 64, 80
1, 276458, Control_c, 0, 64, 82
1, 276473, Control_c, 0, 64, 84
1, 276488, Control_c, 0, 64, 86
1, 276503, Control_c, 0, 64, 88
1, 276514, Note_off_c, 0, 54, 36
1, 276517, Control_c, 0, 64, 91
1, 276532, Control_c, 0, 64, 93
1, 276547, Control_c, 0, 64, 96
1, 276561, Control_c, 0, 64, 99
1, 276576, Control_c, 0, 64, 101
1, 276591, Control_c, 0, 64, 104
1, 276606, Control_c, 0, 64, 106
1, 276621, Control_c, 0, 64, 109
1, 276635, Control_c, 0, 64, 112
1, 276650, Control_c, 0, 64, 117
1, 276665, Control_c, 0, 64, 127
1, 276836, Note_off_c, 0, 45, 25
1, 277631, Note_on_c, 0, 44, 34
1, 277769, Note_on_c, 0, 60, 43
1, 277778, Control_c, 0, 64, 112
1, 277793, Control_c, 0, 64, 105
1, 277794, Note_on_c, 0, 54, 35
1, 277808, Control_c, 0, 64, 98
1, 277822, Control_c, 0, 64, 89
1, 277837, Control_c, 0, 64, 80
1, 277852, Control_c, 0, 64, 71
1, 277860, Note_off_c, 0, 61, 42
1, 277867, Control_c, 0, 64, 65
1, 277882, Control_c, 0, 64, 63
1, 277896, Control_c, 0, 64, 64
1, 277911, Control_c, 0, 64, 65
1, 277926, Control_c, 0, 64, 66
1, 277940, Control_c, 0, 64, 68
1, 277955, Control_c, 0, 64, 69
1, 277970, Control_c, 0, 64, 72
1, 277985, Control_c, 0, 64, 74
1, 278000, Control_c, 0, 64, 77
1, 278014, Control_c, 0, 64, 79
1, 278029, Control_c, 0, 64, 80
1, 278044, Control_c, 0, 64, 81
1, 278047, Note_off_c, 0, 54, 32
1, 278059, Control_c, 0, 64, 84
1, 278074, Control_c, 0, 64, 86
1, 278089, Control_c, 0, 64, 88
1, 278104, Control_c, 0, 64, 91
1, 278119, Control_c, 0, 64, 94
1, 278134, Control_c, 0, 64, 96
1, 278148, Control_c, 0, 64, 98
1, 278163, Control_c, 0, 64, 101
1, 278178, Control_c, 0, 64, 103
1, 278193, Control_c, 0, 64, 108
1, 278195, Note_off_c, 0, 44, 28
1, 278208, Control_c, 0, 64, 113
1, 278222, Control_c, 0, 64, 120
1, 278237, Control_c, 0, 64, 127
1, 279178, Note_on_c, 0, 37, 35
1, 279322, Note_on_c, 0, 61, 47
1, 279335, Control_c, 0, 64, 112
1, 279348, Note_on_c, 0, 53, 44
1, 279350, Control_c, 0, 64, 104
1, 279365, Control_c, 0, 64, 97
1, 279367, Note_off_c, 0, 60, 36
1, 279380, Control_c, 0, 64, 89
1, 279394, Control_c, 0, 64, 78
1, 279409, Control_c, 0, 64, 68
1, 279424, Control_c, 0, 64, 59
1, 279439, Control_c, 0, 64, 53
1, 279454, Control_c, 0, 64, 56
1, 279468, Control_c, 0, 64, 62
1, 279483, Control_c, 0, 64, 64
1, 279498, Control_c, 0, 64, 66
1, 279513, Control_c, 0, 64, 68
1, 279528, Control_c, 0, 64, 70
1, 279541, Note_off_c, 0, 66, 25
1, 279542, Control_c, 0, 64, 73
1, 279557, Control_c, 0, 64, 76
1, 279572, Control_c, 0, 64, 79
1, 279586, Control_c, 0, 64, 81
1, 279601, Control_c, 0, 64, 83
1, 279605, Note_off_c, 0, 53, 38
1, 279616, Control_c, 0, 64, 85
1, 279631, Control_c, 0, 64, 88
1, 279646, Control_c, 0, 64, 91
1, 279660, Control_c, 0, 64, 94
1, 279675, Control_c, 0, 64, 98
1, 279690, Control_c, 0, 64, 101
1, 279705, Control_c, 0, 64, 104
1, 279719, Control_c, 0, 64, 108
1, 279734, Control_c, 0, 64, 113
1, 279749, Control_c, 0, 64, 120
1, 279764, Control_c, 0, 64, 127
1, 279773, Note_off_c, 0, 37, 23
1, 279821, Note_off_c, 0, 61, 33
1, 279986, Note_on_c, 0, 44, 39
1, 280280, Note_off_c, 0, 44, 38
1, 280292, Note_on_c, 0, 49, 41
1, 280307, Control_c, 0, 67, 126
1, 280322, Control_c, 0, 67, 125
1, 280336, Control_c, 0, 67, 123
1, 280351, Control_c, 0, 67, 122
1, 280366, Control_c, 0, 67, 120
1, 280381, Control_c, 0, 67, 119
1, 280396, Control_c, 0, 67, 118
1, 280410, Control_c, 0, 67, 117
1, 280425, Control_c, 0, 67, 116
1, 280440, Control_c, 0, 67, 114
1, 280455, Control_c, 0, 67, 113
1, 280470, Control_c, 0, 67, 112
1, 280484, Control_c, 0, 67, 112
1, 280499, Control_c, 0, 67, 111
1, 280514, Control_c, 0, 67, 110
1, 280529, Control_c, 0, 67, 108
1, 280543, Control_c, 0, 67, 106
1, 280558, Control_c, 0, 67, 106
1, 280573, Control_c, 0, 67, 105
1, 280588, Control_c, 0, 67, 105
1, 280603, Control_c, 0, 67, 104
1, 280617, Control_c, 0, 67, 104
1, 280632, Control_c, 0, 67, 103
1, 280666, Note_off_c, 0, 49, 30
1, 280685, Control_c, 0, 67, 103
1, 280729, Control_c, 0, 67, 102
1, 280794, Note_on_c, 0, 80, 68
1, 280833, Control_c, 0, 67, 102
1, 280849, Note_on_c, 0, 53, 29
1, 280907, Control_c, 0, 67, 101
1, 280922, Control_c, 0, 67, 101
1, 280937, Control_c, 0, 67, 99
1, 280952, Control_c, 0, 67, 99
1, 280966, Control_c, 0, 67, 98
1, 280980, Control_c, 0, 67, 97
1, 280995, Control_c, 0, 67, 96
1, 281010, Control_c, 0, 67, 94
1, 281025, Control_c, 0, 67, 93
1, 281040, Control_c, 0, 67, 93
1, 281055, Control_c, 0, 67, 92
1, 281070, Control_c, 0, 67, 92
1, 281085, Control_c, 0, 67, 90
1, 281100, Control_c, 0, 67, 90
1, 281114, Note_off_c, 0, 53, 40
1, 281114, Control_c, 0, 67, 89
1, 281129, Control_c, 0, 67, 89
1, 281158, Control_c, 0, 67, 88
1, 281173, Control_c, 0, 67, 87
1, 281188, Control_c, 0, 67, 87
1, 281203, Control_c, 0, 67, 86
1, 281218, Control_c, 0, 67, 86
1, 281225, Note_on_c, 0, 56, 50
1, 281262, Control_c, 0, 67, 85
1, 281292, Control_c, 0, 67, 85
1, 281365, Control_c, 0, 67, 85
1, 281399, Note_off_c, 0, 56, 61
1, 281433, Control_c, 0, 67, 86
1, 281434, Note_on_c, 0, 61, 41
1, 281462, Control_c, 0, 67, 86
1, 281536, Control_c, 0, 67, 87
1, 281565, Control_c, 0, 67, 87
1, 281610, Control_c, 0, 67, 88
1, 281616, Note_on_c, 0, 56, 50
1, 281625, Control_c, 0, 67, 88
1, 281641, Control_c, 0, 67, 89
1, 281655, Control_c, 0, 67, 89
1, 281670, Control_c, 0, 67, 90
1, 281685, Control_c, 0, 67, 90
1, 281715, Control_c, 0, 67, 91
1, 281729, Control_c, 0, 67, 91
1, 281744, Control_c, 0, 67, 92
1, 281759, Control_c, 0, 67, 93
1, 281833, Control_c, 0, 67, 93
1, 281894, Note_on_c, 0, 79, 61
1, 281922, Control_c, 0, 67, 94
1, 281974, Note_off_c, 0, 80, 42
1, 282055, Control_c, 0, 67, 93
1, 282085, Control_c, 0, 67, 93
1, 282134, Note_on_c, 0, 68, 42
1, 282203, Note_off_c, 0, 79, 37
1, 282255, Control_c, 0, 67, 92
1, 282297, Note_on_c, 0, 80, 59
1, 282418, Control_c, 0, 67, 92
1, 282464, Control_c, 0, 67, 92
1, 282513, Note_off_c, 0, 68, 35
1, 282566, Note_on_c, 0, 89, 68
1, 282589, Note_off_c, 0, 80, 46
1, 282602, Note_off_c, 0, 56, 38
1, 282715, Control_c, 0, 67, 92
1, 282743, Note_off_c, 0, 61, 34
1, 282745, Note_off_c, 0, 89, 56
1, 282751, Note_on_c, 0, 87, 70
1, 282951, Note_on_c, 0, 85, 62
1, 283045, Note_off_c, 0, 87, 38
1, 283081, Note_off_c, 0, 85, 55
1, 283137, Control_c, 0, 67, 91
1, 283157, Note_on_c, 0, 77, 58
1, 283226, Control_c, 0, 67, 91
1, 283326, Note_on_c, 0, 78, 65
1, 283383, Note_off_c, 0, 77, 38
1, 283389, Control_c, 0, 67, 90
1, 283460, Note_on_c, 0, 80, 69
1, 283519, Note_off_c, 0, 78, 52
1, 283604, Note_on_c, 0, 84, 72
1, 283634, Note_off_c, 0, 80, 58
1, 283678, Control_c, 0, 67, 91
1, 283738, Control_c, 0, 67, 91
1, 283752, Control_c, 0, 67, 92
1, 283763, Note_on_c, 0, 82, 73
1, 283782, Control_c, 0, 67, 92
1, 283814, Note_off_c, 0, 84, 58
1, 283841, Control_c, 0, 67, 93
1, 283856, Control_c, 0, 67, 93
1, 283871, Control_c, 0, 67, 94
1, 283915, Control_c, 0, 67, 94
1, 283930, Control_c, 0, 67, 95
1, 283945, Control_c, 0, 67, 96
1, 283959, Control_c, 0, 67, 96
1, 283989, Control_c, 0, 67, 97
1, 284019, Control_c, 0, 67, 97
1, 284049, Note_on_c, 0, 37, 37
1, 284079, Control_c, 0, 67, 98
1, 284112, Note_on_c, 0, 80, 68
1, 284153, Control_c, 0, 64, 116
1, 284168, Control_c, 0, 64, 103
1, 284182, Control_c, 0, 64, 93
1, 284197, Control_c, 0, 64, 84
1, 284212, Control_c, 0, 64, 77
1, 284227, Control_c, 0, 64, 73
1, 284230, Note_off_c, 0, 82, 36
1, 284242, Control_c, 0, 64, 75
1, 284242, Control_c, 0, 67, 97
1, 284256, Control_c, 0, 64, 77
1, 284271, Control_c, 0, 64, 80
1, 284271, Control_c, 0, 67, 97
1, 284286, Control_c, 0, 64, 82
1, 284301, Control_c, 0, 64, 84
1, 284301, Control_c, 0, 67, 96
1, 284316, Control_c, 0, 64, 87
1, 284316, Control_c, 0, 67, 96
1, 284331, Control_c, 0, 64, 92
1, 284331, Control_c, 0, 67, 95
1, 284346, Control_c, 0, 64, 96
1, 284361, Control_c, 0, 64, 100
1, 284361, Control_c, 0, 67, 95
1, 284375, Control_c, 0, 64, 103
1, 284390, Control_c, 0, 64, 106
1, 284390, Control_c, 0, 67, 94
1, 284412, Control_c, 0, 64, 110
1, 284427, Control_c, 0, 64, 119
1, 284427, Control_c, 0, 67, 94
1, 284442, Control_c, 0, 64, 127
1, 284449, Note_off_c, 0, 37, 37
1, 284486, Control_c, 0, 67, 93
1, 284554, Note_on_c, 0, 44, 37
1, 284694, Control_c, 0, 67, 94
1, 284707, Note_on_c, 0, 78, 67
1, 284742, Note_off_c, 0, 44, 42
1, 284783, Note_off_c, 0, 80, 56
1, 284871, Note_on_c, 0, 54, 39
1, 285052, Note_off_c, 0, 54, 39
1, 285074, Note_on_c, 0, 56, 45
1, 285136, Note_on_c, 0, 77, 68
1, 285180, Note_off_c, 0, 78, 57
1, 285219, Note_off_c, 0, 77, 59
1, 285339, Note_on_c, 0, 77, 68
1, 285342, Note_off_c, 0, 56, 49
1, 285368, Note_on_c, 0, 60, 38
1, 285368, Control_c, 0, 67, 93
1, 285517, Control_c, 0, 67, 93
1, 285546, Control_c, 0, 67, 92
1, 285571, Note_on_c, 0, 56, 44
1, 285577, Note_off_c, 0, 60, 38
1, 285605, Control_c, 0, 67, 92
1, 285613, Note_on_c, 0, 75, 69
1, 285657, Note_off_c, 0, 77, 59
1, 285666, Control_c, 0, 67, 91
1, 285681, Control_c, 0, 67, 91
1, 285710, Control_c, 0, 67, 90
1, 285740, Control_c, 0, 67, 90
1, 285769, Control_c, 0, 67, 89
1, 285774, Note_off_c, 0, 56, 37
1, 285792, Note_on_c, 0, 60, 41
1, 285799, Control_c, 0, 67, 89
1, 285828, Control_c, 0, 67, 88
1, 285831, Note_on_c, 0, 77, 77
1, 285843, Control_c, 0, 67, 88
1, 285866, Note_off_c, 0, 75, 59
1, 285888, Control_c, 0, 67, 87
1, 285925, Control_c, 0, 67, 87
1, 286087, Control_c, 0, 67, 86
1, 286091, Note_on_c, 0, 75, 65
1, 286118, Note_off_c, 0, 77, 40
1, 286222, Control_c, 0, 67, 86
1, 286310, Control_c, 0, 67, 85
1, 286400, Control_c, 0, 67, 86
1, 286411, Note_on_c, 0, 66, 41
1, 286459, Control_c, 0, 67, 86
1, 286489, Control_c, 0, 67, 87
1, 286495, Note_off_c, 0, 60, 38
1, 286499, Note_off_c, 0, 75, 58
1, 286504, Control_c, 0, 67, 87
1, 286510, Note_on_c, 0, 73, 67
1, 286564, Control_c, 0, 67, 88
1, 286578, Control_c, 0, 67, 88
1, 286608, Control_c, 0, 67, 89
1, 286674, Control_c, 0, 67, 89
1, 286700, Note_off_c, 0, 66, 31
1, 286763, Control_c, 0, 67, 90
1, 286903, Note_off_c, 0, 73, 59
1, 286908, Note_on_c, 0, 72, 57
1, 286937, Note_off_c, 0, 72, 66
1, 286970, Control_c, 0, 67, 90
1, 287046, Note_on_c, 0, 72, 55
1, 287163, Control_c, 0, 67, 91
1, 287306, Note_off_c, 0, 72, 62
1, 287327, Note_on_c, 0, 70, 61
1, 287497, Control_c, 0, 67, 91
1, 287512, Control_c, 0, 67, 92
1, 287600, Control_c, 0, 67, 92
1, 287606, Note_on_c, 0, 72, 57
1, 287645, Control_c, 0, 67, 93
1, 287674, Control_c, 0, 67, 93
1, 287692, Note_off_c, 0, 70, 54
1, 287704, Control_c, 0, 67, 94
1, 287733, Control_c, 0, 67, 94
1, 287763, Control_c, 0, 67, 95
1, 287778, Control_c, 0, 67, 96
1, 287792, Control_c, 0, 67, 96
1, 287837, Control_c, 0, 67, 97
1, 287851, Control_c, 0, 67, 97
1, 287866, Control_c, 0, 67, 98
1, 287896, Control_c, 0, 67, 98
1, 287926, Control_c, 0, 67, 99
1, 287941, Control_c, 0, 67, 99
1, 287956, Control_c, 0, 67, 100
1, 287971, Control_c, 0, 67, 101
1, 287986, Control_c, 0, 67, 103
1, 288000, Control_c, 0, 67, 104
1, 288003, Note_on_c, 0, 37, 41
1, 288015, Control_c, 0, 67, 105
1, 288030, Control_c, 0, 67, 105
1, 288045, Control_c, 0, 67, 106
1, 288060, Control_c, 0, 67, 106
1, 288062, Note_on_c, 0, 70, 64
1, 288075, Control_c, 0, 67, 107
1, 288090, Control_c, 0, 67, 107
1, 288120, Control_c, 0, 67, 108
1, 288135, Control_c, 0, 67, 108
1, 288156, Control_c, 0, 64, 114
1, 288171, Control_c, 0, 64, 99
1, 288173, Note_off_c, 0, 72, 43
1, 288186, Control_c, 0, 64, 87
1, 288186, Control_c, 0, 67, 109
1, 288201, Control_c, 0, 64, 78
1, 288201, Control_c, 0, 67, 109
1, 288216, Control_c, 0, 64, 71
1, 288216, Control_c, 0, 67, 110
1, 288230, Control_c, 0, 64, 69
1, 288245, Control_c, 0, 64, 72
1, 288245, Control_c, 0, 67, 110
1, 288260, Control_c, 0, 64, 75
1, 288275, Control_c, 0, 64, 78
1, 288290, Control_c, 0, 64, 79
1, 288304, Control_c, 0, 64, 81
1, 288319, Control_c, 0, 64, 83
1, 288329, Note_on_c, 0, 44, 45
1, 288334, Control_c, 0, 64, 88
1, 288339, Note_off_c, 0, 37, 51
1, 288349, Control_c, 0, 64, 92
1, 288364, Control_c, 0, 64, 96
1, 288379, Control_c, 0, 64, 99
1, 288379, Control_c, 0, 67, 111
1, 288394, Control_c, 0, 64, 101
1, 288394, Control_c, 0, 67, 111
1, 288409, Control_c, 0, 64, 104
1, 288423, Control_c, 0, 64, 110
1, 288423, Control_c, 0, 67, 113
1, 288438, Control_c, 0, 64, 120
1, 288438, Control_c, 0, 67, 114
1, 288453, Control_c, 0, 64, 127
1, 288453, Control_c, 0, 67, 115
1, 288467, Control_c, 0, 67, 117
1, 288482, Control_c, 0, 67, 118
1, 288497, Control_c, 0, 67, 120
1, 288512, Control_c, 0, 67, 120
1, 288519, Note_off_c, 0, 44, 43
1, 288527, Control_c, 0, 67, 121
1, 288541, Control_c, 0, 67, 122
1, 288556, Control_c, 0, 67, 123
1, 288571, Control_c, 0, 67, 124
1, 288586, Control_c, 0, 67, 125
1, 288601, Control_c, 0, 67, 125
1, 288615, Control_c, 0, 67, 126
1, 288618, Note_on_c, 0, 53, 43
1, 288630, Control_c, 0, 67, 127
1, 288723, Note_on_c, 0, 68, 50
1, 288772, Note_off_c, 0, 70, 53
1, 288838, Note_off_c, 0, 53, 38
1, 288926, Note_on_c, 0, 56, 42
1, 289005, Note_off_c, 0, 68, 58
1, 289026, Note_on_c, 0, 67, 51
1, 289156, Note_off_c, 0, 67, 57
1, 289170, Note_on_c, 0, 68, 50
1, 289189, Note_off_c, 0, 56, 57
1, 289210, Note_on_c, 0, 61, 46
1, 289274, Note_off_c, 0, 68, 58
1, 289288, Note_on_c, 0, 70, 61
1, 289326, Note_off_c, 0, 70, 62
1, 289341, Note_off_c, 0, 61, 58
1, 289374, Note_on_c, 0, 65, 47
1, 289409, Note_on_c, 0, 72, 57
1, 289458, Note_off_c, 0, 65, 57
1, 289480, Note_off_c, 0, 72, 58
1, 289490, Note_on_c, 0, 61, 45
1, 289494, Note_on_c, 0, 73, 68
1, 289572, Control_c, 0, 67, 127
1, 289575, Note_off_c, 0, 73, 63
1, 289587, Control_c, 0, 67, 126
1, 289592, Note_on_c, 0, 75, 67
1, 289604, Note_on_c, 0, 56, 43
1, 289633, Control_c, 0, 67, 126
1, 289650, Note_off_c, 0, 75, 63
1, 289655, Control_c, 0, 67, 125
1, 289670, Control_c, 0, 67, 124
1, 289685, Control_c, 0, 67, 124
1, 289700, Control_c, 0, 67, 123
1, 289705, Note_on_c, 0, 77, 70
1, 289714, Control_c, 0, 67, 122
1, 289729, Control_c, 0, 67, 122
1, 289744, Control_c, 0, 67, 121
1, 289759, Control_c, 0, 67, 120
1, 289774, Control_c, 0, 67, 119
1, 289787, Note_on_c, 0, 78, 70
1, 289789, Control_c, 0, 67, 119
1, 289791, Note_off_c, 0, 77, 51
1, 289803, Control_c, 0, 67, 118
1, 289816, Note_on_c, 0, 68, 45
1, 289818, Control_c, 0, 67, 117
1, 289833, Control_c, 0, 67, 116
1, 289848, Control_c, 0, 67, 115
1, 289863, Control_c, 0, 67, 114
1, 289877, Control_c, 0, 67, 113
1, 289884, Note_on_c, 0, 80, 77
1, 289885, Note_off_c, 0, 78, 61
1, 289892, Control_c, 0, 67, 111
1, 289907, Control_c, 0, 67, 110
1, 289921, Control_c, 0, 67, 109
1, 289936, Control_c, 0, 67, 108
1, 289951, Control_c, 0, 67, 107
1, 289966, Control_c, 0, 67, 107
1, 289972, Note_on_c, 0, 82, 80
1, 289978, Note_off_c, 0, 80, 63
1, 289981, Control_c, 0, 67, 106
1, 289995, Control_c, 0, 67, 104
1, 290010, Control_c, 0, 67, 104
1, 290034, Note_off_c, 0, 82, 66
1, 290040, Control_c, 0, 67, 103
1, 290055, Control_c, 0, 67, 103
1, 290069, Control_c, 0, 67, 102
1, 290080, Note_on_c, 0, 84, 77
1, 290084, Control_c, 0, 67, 102
1, 290114, Control_c, 0, 67, 101
1, 290144, Control_c, 0, 67, 101
1, 290159, Control_c, 0, 67, 100
1, 290173, Control_c, 0, 67, 99
1, 290176, Note_on_c, 0, 85, 74
1, 290200, Note_off_c, 0, 84, 58
1, 290203, Control_c, 0, 67, 98
1, 290218, Control_c, 0, 67, 98
1, 290247, Control_c, 0, 67, 97
1, 290277, Control_c, 0, 67, 97
1, 290288, Note_on_c, 0, 87, 79
1, 290289, Note_off_c, 0, 85, 63
1, 290292, Control_c, 0, 67, 96
1, 290307, Control_c, 0, 67, 96
1, 290313, Note_off_c, 0, 56, 29
1, 290336, Control_c, 0, 67, 95
1, 290351, Control_c, 0, 67, 95
1, 290367, Note_off_c, 0, 68, 34
1, 290375, Note_off_c, 0, 87, 64
1, 290381, Control_c, 0, 67, 94
1, 290403, Control_c, 0, 67, 93
1, 290404, Note_on_c, 0, 89, 83
1, 290418, Control_c, 0, 67, 92
1, 290433, Control_c, 0, 67, 91
1, 290448, Control_c, 0, 67, 90
1, 290463, Control_c, 0, 67, 89
1, 290478, Control_c, 0, 67, 88
1, 290492, Control_c, 0, 67, 87
1, 290507, Control_c, 0, 67, 86
1, 290516, Note_off_c, 0, 89, 61
1, 290522, Control_c, 0, 67, 86
1, 290531, Note_on_c, 0, 90, 77
1, 290537, Control_c, 0, 67, 85
1, 290567, Control_c, 0, 67, 85
1, 290596, Note_off_c, 0, 90, 62
1, 290597, Control_c, 0, 67, 84
1, 290626, Control_c, 0, 67, 84
1, 290639, Note_off_c, 0, 61, 39
1, 290666, Note_on_c, 0, 92, 74
1, 290670, Control_c, 0, 67, 83
1, 290685, Control_c, 0, 67, 83
1, 290715, Control_c, 0, 67, 82
1, 290730, Control_c, 0, 67, 82
1, 290744, Control_c, 0, 67, 81
1, 290759, Control_c, 0, 67, 81
1, 290774, Control_c, 0, 67, 80
1, 290789, Control_c, 0, 67, 78
1, 290804, Control_c, 0, 67, 77
1, 290818, Control_c, 0, 67, 76
1, 290833, Control_c, 0, 67, 75
1, 290848, Control_c, 0, 67, 73
1, 290863, Control_c, 0, 67, 72
1, 290865, Note_on_c, 0, 101, 75
1, 290877, Control_c, 0, 67, 71
1, 290892, Control_c, 0, 67, 70
1, 290907, Control_c, 0, 67, 69
1, 290915, Note_off_c, 0, 92, 60
1, 290922, Control_c, 0, 67, 68
1, 290937, Control_c, 0, 67, 67
1, 290952, Control_c, 0, 67, 66
1, 291026, Note_on_c, 0, 99, 78
1, 291056, Control_c, 0, 67, 67
1, 291056, Note_off_c, 0, 101, 62
1, 291070, Control_c, 0, 67, 68
1, 291085, Control_c, 0, 67, 68
1, 291100, Control_c, 0, 67, 69
1, 291115, Control_c, 0, 67, 70
1, 291130, Control_c, 0, 67, 70
1, 291151, Control_c, 0, 67, 71
1, 291166, Control_c, 0, 67, 72
1, 291181, Control_c, 0, 67, 72
1, 291196, Control_c, 0, 67, 73
1, 291211, Control_c, 0, 67, 73
1, 291226, Note_on_c, 0, 97, 69
1, 291227, Control_c, 0, 67, 74
1, 291241, Control_c, 0, 67, 74
1, 291265, Note_on_c, 0, 37, 47
1, 291271, Control_c, 0, 67, 75
1, 291296, Note_off_c, 0, 99, 60
1, 291315, Control_c, 0, 64, 121
1, 291330, Control_c, 0, 64, 96
1, 291345, Control_c, 0, 64, 84
1, 291360, Control_c, 0, 64, 78
1, 291375, Control_c, 0, 64, 76
1, 291386, Note_on_c, 0, 94, 71
1, 291405, Control_c, 0, 64, 77
1, 291405, Control_c, 0, 67, 74
1, 291405, Note_off_c, 0, 97, 64
1, 291420, Control_c, 0, 64, 79
1, 291434, Control_c, 0, 64, 83
1, 291449, Control_c, 0, 64, 90
1, 291463, Control_c, 0, 64, 101
1, 291478, Control_c, 0, 64, 111
1, 291492, Control_c, 0, 64, 119
1, 291500, Note_off_c, 0, 94, 64
1, 291507, Control_c, 0, 64, 127
1, 291508, Note_on_c, 0, 90, 70
1, 291515, Note_on_c, 0, 44, 58
1, 291549, Note_off_c, 0, 37, 44
1, 291625, Note_on_c, 0, 92, 71
1, 291685, Control_c, 0, 67, 74
1, 291692, Note_off_c, 0, 90, 39
1, 291695, Note_off_c, 0, 44, 60
1, 291732, Note_on_c, 0, 96, 76
1, 291733, Note_on_c, 0, 54, 51
1, 291743, Note_off_c, 0, 92, 66
1, 291774, Control_c, 0, 67, 74
1, 291834, Note_on_c, 0, 94, 81
1, 291844, Note_off_c, 0, 96, 54
1, 291848, Control_c, 0, 67, 75
1, 291863, Control_c, 0, 67, 76
1, 291935, Note_off_c, 0, 54, 35
1, 291944, Control_c, 0, 67, 76
1, 291945, Note_on_c, 0, 56, 54
1, 291953, Note_on_c, 0, 90, 82
1, 291974, Control_c, 0, 67, 77
1, 291977, Note_off_c, 0, 94, 64
1, 292004, Control_c, 0, 67, 77
1, 292019, Control_c, 0, 67, 78
1, 292048, Note_on_c, 0, 87, 85
1, 292049, Control_c, 0, 67, 78
1, 292060, Note_off_c, 0, 90, 64
1, 292093, Control_c, 0, 67, 79
1, 292108, Control_c, 0, 67, 80
1, 292119, Note_off_c, 0, 56, 58
1, 292123, Control_c, 0, 67, 80
1, 292135, Note_off_c, 0, 87, 64
1, 292138, Control_c, 0, 67, 81
1, 292142, Note_on_c, 0, 60, 60
1, 292153, Control_c, 0, 67, 81
1, 292153, Note_on_c, 0, 82, 80
1, 292168, Control_c, 0, 67, 82
1, 292183, Control_c, 0, 67, 84
1, 292197, Control_c, 0, 67, 86
1, 292257, Control_c, 0, 67, 86
1, 292260, Note_on_c, 0, 85, 76
1, 292271, Note_off_c, 0, 60, 58
1, 292302, Note_off_c, 0, 82, 56
1, 292377, Note_on_c, 0, 56, 52
1, 292377, Note_on_c, 0, 89, 82
1, 292395, Note_off_c, 0, 85, 63
1, 292490, Note_on_c, 0, 87, 88
1, 292493, Control_c, 0, 67, 87
1, 292513, Note_off_c, 0, 89, 61
1, 292522, Control_c, 0, 67, 87
1, 292582, Control_c, 0, 67, 88
1, 292613, Note_on_c, 0, 85, 85
1, 292648, Control_c, 0, 67, 88
1, 292663, Control_c, 0, 67, 89
1, 292670, Note_off_c, 0, 87, 62
1, 292678, Control_c, 0, 67, 90
1, 292693, Control_c, 0, 67, 90
1, 292708, Control_c, 0, 67, 91
1, 292722, Control_c, 0, 67, 91
1, 292732, Note_on_c, 0, 66, 40
1, 292737, Note_on_c, 0, 82, 83
1, 292737, Control_c, 0, 67, 92
1, 292752, Note_off_c, 0, 85, 64
1, 292752, Control_c, 0, 67, 94
1, 292767, Control_c, 0, 67, 96
1, 292782, Control_c, 0, 67, 97
1, 292797, Control_c, 0, 67, 97
1, 292832, Note_off_c, 0, 82, 62
1, 292842, Control_c, 0, 67, 98
1, 292853, Note_on_c, 0, 78, 76
1, 292916, Control_c, 0, 67, 98
1, 292975, Note_on_c, 0, 80, 72
1, 293020, Control_c, 0, 67, 99
1, 293023, Note_off_c, 0, 78, 55
1, 293035, Note_off_c, 0, 66, 40
1, 293050, Control_c, 0, 67, 98
1, 293119, Note_on_c, 0, 84, 74
1, 293139, Control_c, 0, 67, 98
1, 293139, Note_off_c, 0, 80, 59
1, 293184, Control_c, 0, 67, 98
1, 293257, Control_c, 0, 67, 99
1, 293259, Note_off_c, 0, 84, 59
1, 293261, Note_on_c, 0, 82, 76
1, 293331, Control_c, 0, 67, 99
1, 293346, Control_c, 0, 67, 100
1, 293408, Note_on_c, 0, 78, 71
1, 293428, Control_c, 0, 67, 101
1, 293432, Note_off_c, 0, 82, 64
1, 293443, Control_c, 0, 67, 102
1, 293458, Control_c, 0, 67, 103
1, 293472, Control_c, 0, 67, 104
1, 293487, Control_c, 0, 67, 105
1, 293502, Control_c, 0, 67, 106
1, 293517, Control_c, 0, 67, 107
1, 293555, Note_on_c, 0, 75, 65
1, 293561, Control_c, 0, 67, 108
1, 293576, Control_c, 0, 67, 108
1, 293578, Note_off_c, 0, 78, 58
1, 293591, Control_c, 0, 67, 109
1, 293606, Control_c, 0, 67, 109
1, 293637, Control_c, 0, 67, 110
1, 293666, Control_c, 0, 67, 110
1, 293667, Note_off_c, 0, 56, 28
1, 293681, Control_c, 0, 67, 111
1, 293703, Note_off_c, 0, 75, 61
1, 293710, Control_c, 0, 67, 111
1, 293722, Note_on_c, 0, 70, 61
1, 293725, Control_c, 0, 67, 112
1, 293740, Control_c, 0, 67, 113
1, 293755, Control_c, 0, 67, 114
1, 293799, Control_c, 0, 67, 114
1, 293889, Note_on_c, 0, 72, 58
1, 293903, Control_c, 0, 67, 115
1, 293992, Control_c, 0, 67, 115
1, 294033, Note_off_c, 0, 70, 38
1, 294108, Note_on_c, 0, 77, 57
1, 294155, Note_off_c, 0, 72, 59
1, 294177, Control_c, 0, 67, 116
1, 294236, Control_c, 0, 67, 116
1, 294310, Control_c, 0, 67, 117
1, 294325, Control_c, 0, 67, 117
1, 294329, Note_on_c, 0, 75, 62
1, 294340, Control_c, 0, 67, 118
1, 294355, Control_c, 0, 67, 119
1, 294369, Control_c, 0, 67, 120
1, 294384, Control_c, 0, 67, 122
1, 294391, Note_off_c, 0, 77, 28
1, 294399, Control_c, 0, 67, 122
1, 294415, Control_c, 0, 67, 123
1, 294445, Control_c, 0, 67, 124
1, 294460, Control_c, 0, 67, 125
1, 294474, Control_c, 0, 67, 126
1, 294489, Control_c, 0, 67, 127
1, 294504, Control_c, 0, 67, 127
1, 294646, Note_on_c, 0, 37, 45
1, 294757, Note_on_c, 0, 72, 58
1, 294782, Note_off_c, 0, 75, 38
1, 294829, Control_c, 0, 64, 120
1, 294844, Control_c, 0, 64, 116
1, 294859, Control_c, 0, 64, 112
1, 294874, Control_c, 0, 64, 107
1, 294896, Control_c, 0, 64, 101
1, 294910, Control_c, 0, 64, 94
1, 294925, Control_c, 0, 64, 88
1, 294940, Control_c, 0, 64, 83
1, 294955, Control_c, 0, 64, 81
1, 294970, Control_c, 0, 64, 81
1, 295000, Control_c, 0, 64, 81
1, 295010, Note_on_c, 0, 73, 40
1, 295029, Control_c, 0, 64, 82
1, 295035, Note_off_c, 0, 72, 38
1, 295044, Control_c, 0, 64, 84
1, 295056, Note_off_c, 0, 73, 0
1, 295056, Note_on_c, 0, 73, 15
1, 295059, Control_c, 0, 64, 86
1, 295074, Control_c, 0, 64, 88
1, 295089, Control_c, 0, 64, 90
1, 295104, Control_c, 0, 64, 92
1, 295112, Note_off_c, 0, 73, 56
1, 295118, Control_c, 0, 64, 94
1, 295130, Note_on_c, 0, 75, 40
1, 295133, Control_c, 0, 64, 96
1, 295148, Control_c, 0, 64, 100
1, 295163, Control_c, 0, 64, 104
1, 295178, Control_c, 0, 64, 109
1, 295184, Note_off_c, 0, 75, 57
1, 295192, Control_c, 0, 64, 114
1, 295207, Control_c, 0, 64, 124
1, 295222, Note_on_c, 0, 73, 47
1, 295222, Control_c, 0, 64, 127
1, 295276, Note_off_c, 0, 73, 62
1, 295304, Note_on_c, 0, 75, 46
1, 295349, Note_off_c, 0, 75, 50
1, 295375, Note_on_c, 0, 73, 39
1, 295407, Note_off_c, 0, 73, 54
1, 295434, Note_on_c, 0, 75, 47
1, 295463, Note_off_c, 0, 75, 57
1, 295479, Note_on_c, 0, 44, 49
1, 295508, Note_on_c, 0, 73, 28
1, 295508, Note_off_c, 0, 37, 41
1, 295539, Note_on_c, 0, 75, 63
1, 295542, Note_off_c, 0, 73, 53
1, 295579, Note_off_c, 0, 75, 60
1, 295608, Note_on_c, 0, 73, 56
1, 295637, Note_off_c, 0, 73, 59
1, 295668, Note_on_c, 0, 75, 48
1, 295691, Note_off_c, 0, 75, 60
1, 295713, Note_on_c, 0, 73, 51
1, 295735, Note_off_c, 0, 73, 61
1, 295812, Note_on_c, 0, 75, 9
1, 295814, Note_on_c, 0, 73, 7
1, 295865, Note_off_c, 0, 44, 36
1, 295881, Note_on_c, 0, 53, 57
1, 295881, Note_off_c, 0, 75, 0
1, 295891, Note_off_c, 0, 73, 55
1, 295898, Note_on_c, 0, 75, 38
1, 295936, Note_off_c, 0, 75, 59
1, 295941, Note_on_c, 0, 73, 58
1, 295980, Note_off_c, 0, 73, 63
1, 296021, Note_on_c, 0, 75, 38
1, 296047, Note_on_c, 0, 73, 53
1, 296073, Note_off_c, 0, 75, 0
1, 296100, Note_on_c, 0, 75, 12
1, 296104, Note_off_c, 0, 73, 0
1, 296120, Note_on_c, 0, 73, 46
1, 296145, Note_off_c, 0, 73, 59
1, 296161, Note_off_c, 0, 75, 0
1, 296161, Note_on_c, 0, 75, 3
1, 296198, Note_off_c, 0, 75, 57
1, 296213, Note_on_c, 0, 73, 62
1, 296231, Note_off_c, 0, 73, 63
1, 296252, Note_on_c, 0, 75, 44
1, 296300, Note_on_c, 0, 73, 42
1, 296301, Note_off_c, 0, 53, 35
1, 296303, Note_off_c, 0, 75, 0
1, 296317, Note_on_c, 0, 75, 50
1, 296329, Note_off_c, 0, 73, 56
1, 296331, Note_on_c, 0, 56, 60
1, 296359, Note_off_c, 0, 75, 63
1, 296383, Note_on_c, 0, 73, 44
1, 296413, Note_on_c, 0, 75, 50
1, 296436, Note_off_c, 0, 73, 0
1, 296470, Note_off_c, 0, 75, 0
1, 296474, Poly_aftertouch_c, 0, 73, 127
1, 296506, Note_on_c, 0, 73, 3
1, 296528, Poly_aftertouch_c, 0, 75, 0
1, 296548, Note_off_c, 0, 73, 58
1, 296565, Poly_aftertouch_c, 0, 75, 127
1, 296583, Poly_aftertouch_c, 0, 75, 0
1, 296603, Note_on_c, 0, 73, 59
1, 296615, Control_c, 0, 67, 127
1, 296630, Control_c, 0, 67, 125
1, 296637, Note_off_c, 0, 73, 63
1, 296645, Control_c, 0, 67, 124
1, 296645, Note_on_c, 0, 75, 63
1, 296660, Control_c, 0, 67, 123
1, 296675, Control_c, 0, 67, 121
1, 296686, Note_off_c, 0, 75, 55
1, 296689, Control_c, 0, 67, 120
1, 296702, Note_on_c, 0, 73, 62
1, 296704, Control_c, 0, 67, 119
1, 296719, Control_c, 0, 67, 117
1, 296734, Control_c, 0, 67, 116
1, 296749, Control_c, 0, 67, 115
1, 296763, Control_c, 0, 67, 113
1, 296778, Control_c, 0, 67, 111
1, 296793, Control_c, 0, 67, 109
1, 296809, Control_c, 0, 67, 107
1, 296824, Control_c, 0, 67, 104
1, 296839, Control_c, 0, 67, 101
1, 296853, Control_c, 0, 67, 98
1, 296868, Control_c, 0, 67, 95
1, 296883, Control_c, 0, 67, 93
1, 296898, Control_c, 0, 67, 92
1, 296912, Note_on_c, 0, 65, 47
1, 296912, Control_c, 0, 67, 90
1, 296927, Control_c, 0, 67, 88
1, 296942, Control_c, 0, 67, 86
1, 296947, Note_on_c, 0, 72, 56
1, 296949, Note_off_c, 0, 73, 54
1, 296957, Control_c, 0, 67, 85
1, 296972, Control_c, 0, 67, 84
1, 296986, Control_c, 0, 67, 82
1, 297001, Control_c, 0, 67, 80
1, 297016, Control_c, 0, 67, 79
1, 297031, Control_c, 0, 67, 77
1, 297046, Control_c, 0, 67, 76
1, 297060, Control_c, 0, 67, 74
1, 297075, Control_c, 0, 67, 73
1, 297090, Control_c, 0, 67, 71
1, 297097, Note_off_c, 0, 56, 0
1, 297104, Control_c, 0, 67, 70
1, 297119, Control_c, 0, 67, 68
1, 297134, Note_off_c, 0, 65, 32
1, 297142, Control_c, 0, 67, 67
1, 297157, Control_c, 0, 67, 66
1, 297172, Control_c, 0, 67, 64
1, 297173, Poly_aftertouch_c, 0, 56, 0
1, 297186, Control_c, 0, 67, 63
1, 297195, Note_on_c, 0, 73, 73
1, 297201, Control_c, 0, 67, 62
1, 297213, Note_off_c, 0, 72, 36
1, 297216, Control_c, 0, 67, 61
1, 297231, Control_c, 0, 67, 59
1, 297245, Control_c, 0, 67, 58
1, 297260, Control_c, 0, 67, 57
1, 297275, Control_c, 0, 67, 56
1, 297290, Control_c, 0, 67, 54
1, 297305, Control_c, 0, 67, 53
1, 297319, Control_c, 0, 67, 52
1, 297334, Control_c, 0, 67, 50
1, 297349, Control_c, 0, 67, 49
1, 297364, Control_c, 0, 67, 48
1, 297374, Note_on_c, 0, 77, 74
1, 297379, Control_c, 0, 67, 46
1, 297393, Control_c, 0, 67, 45
1, 297396, Note_off_c, 0, 73, 59
1, 297408, Control_c, 0, 67, 44
1, 297423, Control_c, 0, 67, 42
1, 297438, Control_c, 0, 67, 41
1, 297452, Control_c, 0, 67, 40
1, 297467, Control_c, 0, 67, 39
1, 297482, Control_c, 0, 67, 37
1, 297497, Control_c, 0, 67, 36
1, 297511, Control_c, 0, 67, 35
1, 297526, Control_c, 0, 67, 34
1, 297541, Note_on_c, 0, 75, 72
1, 297541, Control_c, 0, 67, 33
1, 297556, Control_c, 0, 67, 32
1, 297571, Control_c, 0, 67, 30
1, 297585, Control_c, 0, 67, 29
1, 297601, Control_c, 0, 67, 28
1, 297604, Note_off_c, 0, 77, 54
1, 297616, Control_c, 0, 67, 27
1, 297631, Control_c, 0, 67, 26
1, 297646, Control_c, 0, 67, 25
1, 297660, Control_c, 0, 67, 24
1, 297675, Control_c, 0, 67, 23
1, 297690, Control_c, 0, 67, 22
1, 297705, Control_c, 0, 67, 21
1, 297720, Control_c, 0, 67, 20
1, 297734, Control_c, 0, 67, 19
1, 297749, Control_c, 0, 67, 18
1, 297757, Note_on_c, 0, 39, 52
1, 297764, Control_c, 0, 67, 17
1, 297779, Control_c, 0, 67, 17
1, 297794, Control_c, 0, 67, 16
1, 297808, Control_c, 0, 67, 15
1, 297823, Control_c, 0, 67, 14
1, 297834, Note_on_c, 0, 72, 66
1, 297838, Control_c, 0, 67, 13
1, 297852, Control_c, 0, 64, 117
1, 297852, Control_c, 0, 67, 13
1, 297867, Control_c, 0, 64, 111
1, 297867, Control_c, 0, 67, 12
1, 297890, Control_c, 0, 64, 106
1, 297890, Control_c, 0, 67, 12
1, 297895, Note_off_c, 0, 75, 61
1, 297905, Control_c, 0, 64, 103
1, 297905, Control_c, 0, 67, 11
1, 297920, Control_c, 0, 64, 101
1, 297920, Control_c, 0, 67, 11
1, 297934, Control_c, 0, 64, 98
1, 297934, Control_c, 0, 67, 10
1, 297949, Control_c, 0, 64, 95
1, 297949, Control_c, 0, 67, 9
1, 297964, Control_c, 0, 64, 91
1, 297964, Control_c, 0, 67, 9
1, 297979, Control_c, 0, 64, 85
1, 297979, Control_c, 0, 67, 8
1, 297994, Control_c, 0, 64, 80
1, 297994, Control_c, 0, 67, 0
1, 298008, Control_c, 0, 64, 75
1, 298023, Control_c, 0, 64, 72
1, 298038, Control_c, 0, 64, 71
1, 298082, Control_c, 0, 64, 71
1, 298097, Control_c, 0, 64, 73
1, 298112, Control_c, 0, 64, 76
1, 298121, Note_on_c, 0, 73, 70
1, 298127, Control_c, 0, 64, 80
1, 298141, Control_c, 0, 64, 84
1, 298153, Note_off_c, 0, 72, 63
1, 298156, Control_c, 0, 64, 87
1, 298171, Control_c, 0, 64, 88
1, 298186, Control_c, 0, 64, 91
1, 298201, Control_c, 0, 64, 95
1, 298216, Control_c, 0, 64, 101
1, 298217, Note_on_c, 0, 42, 63
1, 298231, Control_c, 0, 64, 107
1, 298246, Control_c, 0, 64, 114
1, 298260, Note_off_c, 0, 73, 60
1, 298260, Control_c, 0, 64, 127
1, 298311, Note_on_c, 0, 65, 68
1, 298344, Note_off_c, 0, 39, 33
1, 298424, Note_off_c, 0, 65, 60
1, 298466, Note_on_c, 0, 66, 68
1, 298550, Note_off_c, 0, 42, 60
1, 298577, Note_on_c, 0, 54, 64
1, 298603, Note_off_c, 0, 66, 61
1, 298605, Note_on_c, 0, 60, 70
1, 298737, Note_on_c, 0, 61, 75
1, 298782, Note_off_c, 0, 54, 58
1, 298791, Note_off_c, 0, 60, 53
1, 298872, Note_on_c, 0, 51, 68
1, 298883, Note_on_c, 0, 65, 69
1, 298922, Note_off_c, 0, 61, 59
1, 299031, Note_on_c, 0, 66, 77
1, 299040, Note_off_c, 0, 65, 63
1, 299091, Note_off_c, 0, 66, 63
1, 299115, Note_on_c, 0, 54, 68
1, 299133, Note_off_c, 0, 51, 63
1, 299224, Note_on_c, 0, 66, 60
1, 299224, Note_on_c, 0, 72, 71
1, 299271, Note_off_c, 0, 54, 60
1, 299284, Note_off_c, 0, 66, 62
1, 299378, Note_on_c, 0, 73, 80
1, 299421, Note_off_c, 0, 72, 56
1, 299508, Note_on_c, 0, 77, 83
1, 299531, Note_off_c, 0, 73, 61
1, 299638, Note_on_c, 0, 75, 85
1, 299674, Note_off_c, 0, 77, 60
1, 299777, Note_on_c, 0, 40, 79
1, 299803, Control_c, 0, 64, 126
1, 299818, Control_c, 0, 64, 104
1, 299825, Note_on_c, 0, 72, 78
1, 299832, Control_c, 0, 64, 90
1, 299844, Note_off_c, 0, 75, 64
1, 299847, Control_c, 0, 64, 78
1, 299862, Control_c, 0, 64, 68
1, 299877, Control_c, 0, 64, 55
1, 299892, Control_c, 0, 64, 17
1, 299906, Control_c, 0, 64, 0
1, 299936, Control_c, 0, 64, 33
1, 299951, Control_c, 0, 64, 58
1, 299966, Control_c, 0, 64, 66
1, 299981, Note_on_c, 0, 73, 85
1, 299981, Control_c, 0, 64, 70
1, 299996, Control_c, 0, 64, 75
1, 300004, Note_off_c, 0, 72, 65
1, 300011, Control_c, 0, 64, 79
1, 300026, Control_c, 0, 64, 86
1, 300041, Control_c, 0, 64, 93
1, 300055, Control_c, 0, 64, 102
1, 300070, Control_c, 0, 64, 110
1, 300085, Control_c, 0, 64, 122
1, 300100, Control_c, 0, 64, 127
1, 300108, Note_off_c, 0, 73, 63
1, 300111, Note_on_c, 0, 49, 82
1, 300118, Note_on_c, 0, 66, 79
1, 300158, Note_off_c, 0, 66, 60
1, 300171, Note_off_c, 0, 40, 39
1, 300237, Note_on_c, 0, 67, 83
1, 300344, Note_off_c, 0, 49, 62
1, 300357, Note_on_c, 0, 55, 80
1, 300360, Note_on_c, 0, 60, 89
1, 300363, Note_off_c, 0, 67, 59
1, 300471, Note_on_c, 0, 61, 89
1, 300523, Note_off_c, 0, 60, 60
1, 300539, Note_off_c, 0, 55, 57
1, 300596, Note_on_c, 0, 52, 79
1, 300596, Control_c, 0, 64, 104
1, 300602, Note_on_c, 0, 66, 89
1, 300611, Control_c, 0, 64, 87
1, 300626, Control_c, 0, 64, 74
1, 300634, Note_off_c, 0, 61, 62
1, 300641, Control_c, 0, 64, 64
1, 300655, Control_c, 0, 64, 58
1, 300670, Control_c, 0, 64, 60
1, 300685, Control_c, 0, 64, 65
1, 300700, Control_c, 0, 64, 70
1, 300715, Control_c, 0, 64, 74
1, 300729, Control_c, 0, 64, 78
1, 300738, Note_on_c, 0, 67, 90
1, 300744, Control_c, 0, 64, 84
1, 300759, Control_c, 0, 64, 91
1, 300766, Note_off_c, 0, 66, 62
1, 300774, Control_c, 0, 64, 101
1, 300788, Control_c, 0, 64, 112
1, 300798, Note_off_c, 0, 67, 65
1, 300804, Note_off_c, 0, 52, 55
1, 300805, Control_c, 0, 64, 127
1, 300809, Note_on_c, 0, 61, 75
1, 300897, Note_on_c, 0, 67, 84
1, 300903, Note_on_c, 0, 72, 93
1, 300906, Note_off_c, 0, 61, 63
1, 300925, Note_off_c, 0, 67, 64
1, 301031, Note_on_c, 0, 73, 90
1, 301074, Note_off_c, 0, 72, 57
1, 301187, Note_on_c, 0, 77, 92
1, 301208, Note_off_c, 0, 73, 62
1, 301331, Note_on_c, 0, 75, 90
1, 301370, Note_off_c, 0, 77, 57
1, 301473, Note_on_c, 0, 41, 85
1, 301535, Note_on_c, 0, 72, 86
1, 301542, Note_off_c, 0, 75, 61
1, 301552, Control_c, 0, 64, 117
1, 301567, Control_c, 0, 64, 107
1, 301582, Control_c, 0, 64, 101
1, 301598, Control_c, 0, 64, 96
1, 301613, Control_c, 0, 64, 93
1, 301635, Control_c, 0, 64, 89
1, 301650, Control_c, 0, 64, 82
1, 301665, Control_c, 0, 64, 76
1, 301671, Note_on_c, 0, 73, 81
1, 301680, Control_c, 0, 64, 70
1, 301695, Control_c, 0, 64, 67
1, 301709, Control_c, 0, 64, 68
1, 301724, Control_c, 0, 64, 70
1, 301724, Note_off_c, 0, 72, 59
1, 301739, Control_c, 0, 64, 75
1, 301754, Control_c, 0, 64, 79
1, 301769, Control_c, 0, 64, 83
1, 301772, Note_on_c, 0, 77, 82
1, 301778, Note_off_c, 0, 73, 63
1, 301783, Control_c, 0, 64, 86
1, 301798, Control_c, 0, 64, 88
1, 301813, Control_c, 0, 64, 92
1, 301827, Control_c, 0, 64, 96
1, 301842, Control_c, 0, 64, 100
1, 301855, Note_on_c, 0, 75, 80
1, 301857, Control_c, 0, 64, 105
1, 301872, Control_c, 0, 64, 110
1, 301883, Note_off_c, 0, 77, 61
1, 301887, Control_c, 0, 64, 123
1, 301901, Control_c, 0, 64, 127
1, 301959, Note_on_c, 0, 49, 84
1, 301963, Note_off_c, 0, 75, 64
1, 301965, Note_on_c, 0, 72, 79
1, 301984, Note_off_c, 0, 41, 55
1, 302037, Note_on_c, 0, 73, 80
1, 302049, Note_off_c, 0, 72, 59
1, 302102, Note_off_c, 0, 73, 62
1, 302103, Note_on_c, 0, 75, 72
1, 302146, Note_on_c, 0, 73, 62
1, 302150, Note_off_c, 0, 75, 64
1, 302191, Note_off_c, 0, 73, 59
1, 302198, Note_on_c, 0, 75, 63
1, 302231, Note_on_c, 0, 73, 59
1, 302249, Note_off_c, 0, 75, 0
1, 302250, Note_on_c, 0, 59, 71
1, 302267, Note_on_c, 0, 75, 50
1, 302327, Note_off_c, 0, 75, 0
1, 302342, Note_on_c, 0, 75, 56
1, 302377, Note_off_c, 0, 73, 0
1, 302398, Note_on_c, 0, 73, 45
1, 302500, Note_off_c, 0, 73, 53
1, 302504, Note_off_c, 0, 59, 51
1, 302505, Note_on_c, 0, 71, 81
1, 302515, Note_off_c, 0, 75, 54
1, 302520, Note_on_c, 0, 56, 72
1, 302594, Note_off_c, 0, 71, 65
1, 302606, Note_on_c, 0, 73, 66
1, 302635, Note_on_c, 0, 75, 75
1, 302770, Note_off_c, 0, 73, 62
1, 302812, Note_on_c, 0, 73, 64
1, 302813, Note_off_c, 0, 75, 62
1, 302852, Note_on_c, 0, 61, 76
1, 302852, Note_off_c, 0, 73, 62
1, 302876, Note_on_c, 0, 66, 89
1, 302967, Note_on_c, 0, 73, 72
1, 302978, Note_off_c, 0, 66, 58
1, 303019, Note_off_c, 0, 73, 63
1, 303024, Note_on_c, 0, 75, 71
1, 303069, Note_off_c, 0, 75, 60
1, 303078, Note_on_c, 0, 73, 61
1, 303078, Note_off_c, 0, 61, 54
1, 303120, Note_on_c, 0, 75, 66
1, 303128, Note_off_c, 0, 73, 0
1, 303155, Note_off_c, 0, 75, 60
1, 303166, Poly_aftertouch_c, 0, 73, 127
1, 303182, Poly_aftertouch_c, 0, 73, 0
1, 303185, Poly_aftertouch_c, 0, 75, 0
1, 303197, Note_on_c, 0, 75, 62
1, 303201, Note_off_c, 0, 49, 32
1, 303255, Note_on_c, 0, 73, 74
1, 303264, Note_off_c, 0, 75, 62
1, 303268, Note_on_c, 0, 49, 76
1, 303298, Note_off_c, 0, 56, 65
1, 303322, Note_on_c, 0, 68, 88
1, 303334, Note_off_c, 0, 49, 66
1, 303337, Note_off_c, 0, 73, 62
1, 303431, Note_on_c, 0, 73, 72
1, 303440, Note_off_c, 0, 68, 60
1, 303487, Note_off_c, 0, 73, 64
1, 303492, Note_on_c, 0, 75, 76
1, 303545, Note_off_c, 0, 75, 63
1, 303555, Note_on_c, 0, 73, 68
1, 303582, Note_off_c, 0, 73, 66
1, 303585, Note_on_c, 0, 75, 66
1, 303628, Note_off_c, 0, 75, 66
1, 303644, Note_on_c, 0, 73, 75
1, 303677, Note_off_c, 0, 73, 62
1, 303677, Note_on_c, 0, 75, 69
1, 303741, Note_on_c, 0, 73, 75
1, 303747, Note_off_c, 0, 75, 62
1, 303801, Note_off_c, 0, 73, 66
1, 303806, Note_on_c, 0, 30, 85
1, 303829, Note_on_c, 0, 75, 72
1, 303841, Note_on_c, 0, 71, 82
1, 303841, Note_on_c, 0, 42, 87
1, 303844, Control_c, 0, 64, 114
1, 303859, Control_c, 0, 64, 87
1, 303880, Control_c, 0, 64, 71
1, 303895, Control_c, 0, 64, 60
1, 303903, Note_off_c, 0, 75, 62
1, 303910, Control_c, 0, 64, 58
1, 303925, Control_c, 0, 64, 65
1, 303940, Control_c, 0, 64, 70
1, 303954, Control_c, 0, 64, 75
1, 303969, Control_c, 0, 64, 81
1, 303970, Note_off_c, 0, 71, 64
1, 303984, Note_on_c, 0, 73, 62
1, 303984, Control_c, 0, 64, 86
1, 303989, Note_on_c, 0, 70, 49
1, 304000, Control_c, 0, 64, 93
1, 304008, Note_off_c, 0, 30, 60
1, 304015, Control_c, 0, 64, 106
1, 304026, Poly_aftertouch_c, 0, 75, 127
1, 304029, Control_c, 0, 64, 127
1, 304031, Note_off_c, 0, 70, 63
1, 304038, Note_off_c, 0, 73, 57
1, 304072, Note_on_c, 0, 71, 67
1, 304072, Poly_aftertouch_c, 0, 75, 0
1, 304097, Note_off_c, 0, 71, 68
1, 304117, Note_on_c, 0, 73, 51
1, 304126, Note_on_c, 0, 70, 55
1, 304127, Note_off_c, 0, 42, 60
1, 304152, Note_off_c, 0, 73, 62
1, 304153, Note_off_c, 0, 70, 62
1, 304175, Note_on_c, 0, 71, 64
1, 304202, Note_off_c, 0, 71, 64
1, 304235, Note_on_c, 0, 70, 49
1, 304240, Note_on_c, 0, 73, 53
1, 304256, Note_off_c, 0, 70, 62
1, 304267, Note_off_c, 0, 73, 53
1, 304289, Note_on_c, 0, 71, 56
1, 304312, Note_off_c, 0, 71, 61
1, 304338, Note_on_c, 0, 70, 25
1, 304342, Note_on_c, 0, 73, 29
1, 304368, Note_on_c, 0, 71, 60
1, 304386, Note_off_c, 0, 70, 0
1, 304387, Note_off_c, 0, 71, 60
1, 304401, Note_on_c, 0, 70, 45
1, 304401, Note_off_c, 0, 73, 0
1, 304401, Note_on_c, 0, 73, 25
1, 304410, Note_on_c, 0, 49, 86
1, 304419, Note_on_c, 0, 37, 72
1, 304434, Note_off_c, 0, 70, 61
1, 304465, Note_on_c, 0, 71, 58
1, 304467, Note_off_c, 0, 73, 39
1, 304484, Note_off_c, 0, 71, 67
1, 304491, Note_off_c, 0, 37, 62
1, 304512, Note_on_c, 0, 70, 53
1, 304512, Note_on_c, 0, 73, 41
1, 304532, Note_off_c, 0, 70, 64
1, 304548, Note_off_c, 0, 73, 49
1, 304553, Note_on_c, 0, 71, 61
1, 304559, Note_off_c, 0, 49, 63
1, 304571, Note_off_c, 0, 71, 65
1, 304605, Note_on_c, 0, 70, 52
1, 304623, Note_on_c, 0, 73, 40
1, 304635, Note_off_c, 0, 70, 60
1, 304664, Note_off_c, 0, 73, 46
1, 304667, Note_on_c, 0, 71, 47
1, 304690, Note_off_c, 0, 71, 64
1, 304709, Note_on_c, 0, 56, 85
1, 304714, Note_on_c, 0, 70, 52
1, 304716, Note_on_c, 0, 73, 36
1, 304717, Poly_aftertouch_c, 0, 75, 127
1, 304720, Note_on_c, 0, 44, 74
1, 304733, Note_off_c, 0, 70, 64
1, 304753, Note_on_c, 0, 71, 57
1, 304756, Note_off_c, 0, 73, 46
1, 304760, Note_off_c, 0, 56, 65
1, 304772, Note_off_c, 0, 44, 60
1, 304777, Note_off_c, 0, 71, 61
1, 304791, Poly_aftertouch_c, 0, 75, 0
1, 304807, Note_on_c, 0, 73, 42
1, 304824, Note_on_c, 0, 70, 39
1, 304829, Poly_aftertouch_c, 0, 75, 127
1, 304837, Note_off_c, 0, 73, 55
1, 304849, Note_on_c, 0, 71, 67
1, 304852, Note_off_c, 0, 70, 56
1, 304884, Poly_aftertouch_c, 0, 75, 0
1, 304887, Note_off_c, 0, 71, 58
1, 304909, Note_on_c, 0, 70, 53
1, 304921, Poly_aftertouch_c, 0, 75, 127
1, 304925, Note_on_c, 0, 54, 80
1, 304926, Note_on_c, 0, 73, 31
1, 304926, Control_c, 0, 64, 103
1, 304938, Note_off_c, 0, 70, 58
1, 304941, Control_c, 0, 64, 97
1, 304950, Note_on_c, 0, 42, 47
1, 304951, Note_off_c, 0, 54, 69
1, 304954, Note_on_c, 0, 71, 65
1, 304956, Control_c, 0, 64, 95
1, 304981, Note_off_c, 0, 42, 56
1, 304986, Note_off_c, 0, 71, 65
1, 304986, Control_c, 0, 64, 96
1, 304989, Note_off_c, 0, 73, 0
1, 305001, Control_c, 0, 64, 101
1, 305004, Note_on_c, 0, 73, 44
1, 305015, Control_c, 0, 64, 118
1, 305019, Note_on_c, 0, 56, 86
1, 305021, Note_on_c, 0, 70, 49
1, 305030, Control_c, 0, 64, 127
1, 305036, Note_off_c, 0, 73, 55
1, 305042, Note_off_c, 0, 70, 61
1, 305056, Note_off_c, 0, 56, 62
1, 305057, Note_on_c, 0, 44, 29
1, 305057, Note_on_c, 0, 71, 65
1, 305063, Poly_aftertouch_c, 0, 75, 0
1, 305075, Control_c, 0, 64, 117
1, 305078, Note_off_c, 0, 71, 62
1, 305090, Control_c, 0, 64, 90
1, 305093, Note_off_c, 0, 44, 53
1, 305105, Control_c, 0, 64, 76
1, 305116, Note_on_c, 0, 70, 54
1, 305119, Control_c, 0, 64, 68
1, 305124, Note_on_c, 0, 58, 84
1, 305131, Note_on_c, 0, 46, 75
1, 305133, Note_on_c, 0, 73, 48
1, 305134, Control_c, 0, 64, 68
1, 305144, Note_off_c, 0, 70, 62
1, 305149, Control_c, 0, 64, 70
1, 305156, Poly_aftertouch_c, 0, 75, 127
1, 305157, Note_on_c, 0, 71, 68
1, 305162, Note_off_c, 0, 73, 55
1, 305164, Control_c, 0, 64, 75
1, 305179, Control_c, 0, 64, 82
1, 305182, Note_off_c, 0, 58, 63
1, 305193, Control_c, 0, 64, 89
1, 305194, Note_off_c, 0, 71, 62
1, 305207, Note_on_c, 0, 70, 62
1, 305207, Note_off_c, 0, 46, 61
1, 305208, Control_c, 0, 64, 94
1, 305223, Control_c, 0, 64, 98
1, 305224, Note_on_c, 0, 73, 53
1, 305229, Note_off_c, 0, 70, 62
1, 305237, Control_c, 0, 64, 104
1, 305249, Note_off_c, 0, 73, 58
1, 305252, Control_c, 0, 64, 127
1, 305266, Note_on_c, 0, 71, 71
1, 305292, Note_off_c, 0, 71, 66
1, 305293, Note_on_c, 0, 70, 72
1, 305319, Note_on_c, 0, 73, 55
1, 305327, Note_off_c, 0, 70, 57
1, 305337, Note_on_c, 0, 49, 81
1, 305346, Note_on_c, 0, 37, 59
1, 305359, Note_on_c, 0, 71, 57
1, 305363, Note_off_c, 0, 49, 66
1, 305382, Note_off_c, 0, 71, 70
1, 305388, Note_off_c, 0, 37, 52
1, 305406, Note_on_c, 0, 70, 49
1, 305425, Note_off_c, 0, 70, 66
1, 305430, Note_on_c, 0, 71, 86
1, 305439, Poly_aftertouch_c, 0, 75, 0
1, 305471, Note_off_c, 0, 73, 58
1, 305497, Control_c, 0, 64, 106
1, 305501, Note_on_c, 0, 70, 70
1, 305507, Note_on_c, 0, 73, 47
1, 305512, Control_c, 0, 64, 80
1, 305526, Note_off_c, 0, 71, 61
1, 305526, Control_c, 0, 64, 63
1, 305534, Note_on_c, 0, 42, 81
1, 305541, Control_c, 0, 64, 0
1, 305545, Note_on_c, 0, 30, 65
1, 305570, Control_c, 0, 64, 41
1, 305585, Control_c, 0, 64, 64
1, 305595, Note_off_c, 0, 30, 60
1, 305602, Control_c, 0, 64, 69
1, 305617, Control_c, 0, 64, 74
1, 305618, Note_off_c, 0, 42, 63
1, 305631, Control_c, 0, 64, 81
1, 305646, Control_c, 0, 64, 89
1, 305661, Control_c, 0, 64, 97
1, 305675, Control_c, 0, 64, 105
1, 305690, Control_c, 0, 64, 114
1, 305705, Control_c, 0, 64, 127
1, 305753, Note_on_c, 0, 72, 76
1, 305764, Note_on_c, 0, 69, 78
1, 305779, Note_on_c, 0, 49, 81
1, 305785, Note_off_c, 0, 73, 55
1, 305787, Note_off_c, 0, 70, 38
1, 305824, Note_off_c, 0, 49, 58
1, 305856, Poly_aftertouch_c, 0, 37, 127
1, 305871, Note_off_c, 0, 72, 64
1, 305903, Poly_aftertouch_c, 0, 37, 0
1, 305954, Note_on_c, 0, 73, 78
1, 305957, Note_on_c, 0, 56, 79
1, 305959, Note_on_c, 0, 70, 74
1, 305969, Note_on_c, 0, 44, 68
1, 305989, Note_off_c, 0, 69, 61
1, 306011, Note_off_c, 0, 44, 62
1, 306014, Note_off_c, 0, 56, 62
1, 306032, Note_off_c, 0, 73, 63
1, 306048, Note_on_c, 0, 77, 81
1, 306051, Note_off_c, 0, 70, 62
1, 306105, Control_c, 0, 64, 98
1, 306127, Control_c, 0, 64, 81
1, 306142, Control_c, 0, 64, 69
1, 306148, Note_on_c, 0, 75, 77
1, 306154, Note_on_c, 0, 54, 77
1, 306157, Control_c, 0, 64, 64
1, 306161, Note_on_c, 0, 71, 75
1, 306172, Control_c, 0, 64, 66
1, 306178, Note_on_c, 0, 42, 42
1, 306179, Note_off_c, 0, 54, 70
1, 306180, Note_off_c, 0, 77, 60
1, 306187, Control_c, 0, 64, 72
1, 306201, Control_c, 0, 64, 81
1, 306211, Note_off_c, 0, 42, 57
1, 306216, Control_c, 0, 64, 90
1, 306231, Control_c, 0, 64, 98
1, 306246, Control_c, 0, 64, 108
1, 306250, Note_off_c, 0, 71, 62
1, 306252, Note_on_c, 0, 56, 89
1, 306261, Control_c, 0, 64, 127
1, 306276, Note_on_c, 0, 44, 52
1, 306294, Note_off_c, 0, 56, 65
1, 306303, Note_off_c, 0, 44, 59
1, 306335, Control_c, 0, 64, 115
1, 306349, Control_c, 0, 64, 87
1, 306364, Control_c, 0, 64, 70
1, 306365, Note_on_c, 0, 73, 89
1, 306370, Note_on_c, 0, 70, 77
1, 306373, Note_on_c, 0, 58, 88
1, 306379, Control_c, 0, 64, 60
1, 306395, Control_c, 0, 64, 62
1, 306396, Note_on_c, 0, 46, 57
1, 306410, Control_c, 0, 64, 68
1, 306411, Note_off_c, 0, 75, 53
1, 306424, Control_c, 0, 64, 76
1, 306439, Control_c, 0, 64, 85
1, 306454, Control_c, 0, 64, 93
1, 306468, Note_off_c, 0, 46, 60
1, 306469, Control_c, 0, 64, 99
1, 306474, Note_off_c, 0, 70, 54
1, 306478, Note_off_c, 0, 58, 60
1, 306484, Control_c, 0, 64, 105
1, 306498, Control_c, 0, 64, 114
1, 306513, Control_c, 0, 64, 127
1, 306619, Note_on_c, 0, 61, 79
1, 306619, Note_on_c, 0, 70, 82
1, 306623, Note_on_c, 0, 66, 89
1, 306634, Note_on_c, 0, 49, 66
1, 306649, Note_off_c, 0, 61, 62
1, 306649, Note_off_c, 0, 73, 58
1, 306673, Note_off_c, 0, 49, 64
1, 306927, Note_on_c, 0, 78, 87
1, 306933, Note_on_c, 0, 75, 81
1, 306950, Control_c, 0, 64, 99
1, 306965, Control_c, 0, 64, 78
1, 306969, Note_on_c, 0, 42, 59
1, 306976, Note_off_c, 0, 70, 51
1, 306980, Control_c, 0, 64, 65
1, 306995, Control_c, 0, 64, 55
1, 307002, Note_on_c, 0, 30, 22
1, 307010, Control_c, 0, 64, 57
1, 307024, Control_c, 0, 64, 63
1, 307035, Note_off_c, 0, 30, 48
1, 307039, Note_off_c, 0, 66, 36
1, 307039, Control_c, 0, 64, 66
1, 307054, Control_c, 0, 64, 70
1, 307057, Note_off_c, 0, 42, 60
1, 307069, Control_c, 0, 64, 75
1, 307084, Control_c, 0, 64, 81
1, 307098, Control_c, 0, 64, 89
1, 307113, Control_c, 0, 64, 97
1, 307128, Control_c, 0, 64, 103
1, 307142, Control_c, 0, 64, 108
1, 307157, Control_c, 0, 64, 113
1, 307172, Control_c, 0, 64, 119
1, 307188, Control_c, 0, 64, 127
1, 307209, Note_off_c, 0, 78, 61
1, 307228, Note_on_c, 0, 70, 76
1, 307230, Note_on_c, 0, 66, 83
1, 307237, Note_on_c, 0, 49, 79
1, 307239, Note_off_c, 0, 75, 60
1, 307255, Note_on_c, 0, 37, 52
1, 307290, Note_off_c, 0, 37, 60
1, 307294, Note_off_c, 0, 49, 59
1, 307372, Note_off_c, 0, 70, 51
1, 307402, Note_off_c, 0, 66, 61
1, 307410, Control_c, 0, 64, 106
1, 307425, Control_c, 0, 64, 92
1, 307439, Control_c, 0, 64, 83
1, 307441, Note_on_c, 0, 53, 71
1, 307443, Note_on_c, 0, 75, 83
1, 307446, Note_on_c, 0, 71, 80
1, 307448, Note_on_c, 0, 41, 62
1, 307454, Control_c, 0, 64, 81
1, 307469, Control_c, 0, 64, 82
1, 307484, Note_off_c, 0, 53, 61
1, 307484, Control_c, 0, 64, 86
1, 307487, Note_off_c, 0, 41, 62
1, 307499, Control_c, 0, 64, 93
1, 307513, Control_c, 0, 64, 106
1, 307528, Control_c, 0, 64, 127
1, 307588, Control_c, 0, 64, 106
1, 307603, Control_c, 0, 64, 87
1, 307624, Note_off_c, 0, 75, 39
1, 307625, Control_c, 0, 64, 75
1, 307633, Note_off_c, 0, 71, 34
1, 307640, Control_c, 0, 64, 72
1, 307642, Note_on_c, 0, 73, 73
1, 307645, Note_on_c, 0, 70, 72
1, 307654, Note_on_c, 0, 54, 75
1, 307654, Control_c, 0, 64, 75
1, 307669, Control_c, 0, 64, 82
1, 307676, Note_off_c, 0, 54, 69
1, 307678, Note_on_c, 0, 42, 40
1, 307684, Control_c, 0, 64, 94
1, 307699, Control_c, 0, 64, 110
1, 307713, Note_off_c, 0, 42, 55
1, 307714, Control_c, 0, 64, 127
1, 307744, Note_on_c, 0, 56, 85
1, 307767, Note_off_c, 0, 56, 69
1, 307788, Control_c, 0, 64, 104
1, 307803, Control_c, 0, 64, 75
1, 307803, Note_off_c, 0, 70, 54
1, 307817, Control_c, 0, 64, 17
1, 307826, Note_off_c, 0, 73, 63
1, 307832, Control_c, 0, 64, 0
1, 307841, Poly_aftertouch_c, 0, 44, 0
1, 307842, Note_on_c, 0, 58, 78
1, 307847, Control_c, 0, 64, 43
1, 307851, Note_on_c, 0, 61, 81
1, 307859, Note_on_c, 0, 46, 59
1, 307862, Control_c, 0, 64, 63
1, 307877, Control_c, 0, 64, 71
1, 307891, Note_off_c, 0, 58, 62
1, 307892, Control_c, 0, 64, 82
1, 307907, Control_c, 0, 64, 97
1, 307907, Note_off_c, 0, 46, 62
1, 307921, Control_c, 0, 64, 109
1, 307936, Control_c, 0, 64, 117
1, 307951, Control_c, 0, 64, 127
1, 307995, Note_off_c, 0, 61, 58
1, 308060, Note_on_c, 0, 71, 79
1, 308063, Note_on_c, 0, 68, 65
1, 308074, Note_on_c, 0, 49, 70
1, 308080, Note_on_c, 0, 37, 66
1, 308104, Note_off_c, 0, 49, 65
1, 308116, Note_off_c, 0, 37, 63
1, 308229, Note_off_c, 0, 68, 57
1, 308307, Control_c, 0, 64, 101
1, 308317, Note_on_c, 0, 70, 79
1, 308322, Control_c, 0, 64, 83
1, 308326, Note_on_c, 0, 66, 67
1, 308330, Note_on_c, 0, 42, 62
1, 308336, Control_c, 0, 64, 68
1, 308339, Note_on_c, 0, 30, 54
1, 308351, Control_c, 0, 64, 50
1, 308369, Poly_aftertouch_c, 0, 68, 127
1, 308374, Control_c, 0, 64, 37
1, 308389, Control_c, 0, 64, 55
1, 308399, Note_off_c, 0, 30, 60
1, 308400, Poly_aftertouch_c, 0, 68, 0
1, 308403, Control_c, 0, 64, 63
1, 308410, Note_off_c, 0, 71, 39
1, 308418, Control_c, 0, 64, 66
1, 308423, Note_off_c, 0, 42, 60
1, 308433, Control_c, 0, 64, 69
1, 308448, Control_c, 0, 64, 73
1, 308463, Control_c, 0, 64, 78
1, 308477, Control_c, 0, 64, 85
1, 308492, Control_c, 0, 64, 92
1, 308507, Control_c, 0, 64, 97
1, 308522, Control_c, 0, 64, 99
1, 308537, Control_c, 0, 64, 101
1, 308551, Control_c, 0, 64, 104
1, 308566, Control_c, 0, 64, 111
1, 308576, Note_on_c, 0, 49, 82
1, 308581, Control_c, 0, 64, 127
1, 308610, Note_on_c, 0, 37, 31
1, 308621, Note_off_c, 0, 49, 60
1, 308652, Note_off_c, 0, 37, 49
1, 308762, Note_on_c, 0, 56, 85
1, 308773, Note_on_c, 0, 44, 73
1, 308815, Note_off_c, 0, 56, 63
1, 308824, Note_off_c, 0, 44, 60
1, 308922, Control_c, 0, 64, 103
1, 308937, Control_c, 0, 64, 85
1, 308952, Control_c, 0, 64, 71
1, 308966, Control_c, 0, 64, 67
1, 308973, Note_on_c, 0, 54, 78
1, 308978, Note_on_c, 0, 64, 77
1, 308981, Control_c, 0, 64, 69
1, 308986, Note_off_c, 0, 66, 55
1, 308996, Control_c, 0, 64, 74
1, 308997, Note_on_c, 0, 42, 47
1, 308998, Note_off_c, 0, 54, 68
1, 309010, Control_c, 0, 64, 81
1, 309025, Control_c, 0, 64, 86
1, 309031, Note_off_c, 0, 42, 56
1, 309040, Control_c, 0, 64, 90
1, 309055, Control_c, 0, 64, 97
1, 309069, Note_on_c, 0, 56, 91
1, 309070, Control_c, 0, 64, 109
1, 309084, Control_c, 0, 64, 127
1, 309087, Note_on_c, 0, 44, 60
1, 309097, Note_off_c, 0, 56, 65
1, 309123, Note_off_c, 0, 44, 64
1, 309152, Control_c, 0, 64, 124
1, 309166, Control_c, 0, 64, 89
1, 309181, Control_c, 0, 64, 72
1, 309188, Note_on_c, 0, 58, 88
1, 309196, Control_c, 0, 64, 62
1, 309197, Note_on_c, 0, 46, 74
1, 309211, Control_c, 0, 64, 60
1, 309225, Control_c, 0, 64, 66
1, 309240, Control_c, 0, 64, 75
1, 309241, Note_off_c, 0, 64, 63
1, 309255, Control_c, 0, 64, 84
1, 309270, Control_c, 0, 64, 95
1, 309276, Note_off_c, 0, 70, 64
1, 309285, Control_c, 0, 64, 111
1, 309299, Control_c, 0, 64, 127
1, 309314, Note_off_c, 0, 46, 60
1, 309337, Note_off_c, 0, 58, 60
1, 309442, Note_on_c, 0, 61, 80
1, 309450, Note_on_c, 0, 49, 75
1, 309465, Note_off_c, 0, 61, 68
1, 309481, Note_off_c, 0, 49, 66
1, 309509, Note_on_c, 0, 63, 83
1, 309585, Note_off_c, 0, 63, 52
1, 309593, Note_on_c, 0, 71, 87
1, 309723, Note_on_c, 0, 42, 87
1, 309728, Note_on_c, 0, 30, 84
1, 309760, Control_c, 0, 64, 98
1, 309775, Control_c, 0, 64, 77
1, 309788, Note_on_c, 0, 78, 92
1, 309789, Control_c, 0, 64, 62
1, 309804, Control_c, 0, 64, 0
1, 309833, Control_c, 0, 64, 41
1, 309848, Control_c, 0, 64, 62
1, 309871, Control_c, 0, 64, 68
1, 309871, Note_off_c, 0, 30, 61
1, 309886, Control_c, 0, 64, 73
1, 309901, Control_c, 0, 64, 80
1, 309915, Control_c, 0, 64, 92
1, 309920, Note_off_c, 0, 42, 61
1, 309930, Control_c, 0, 64, 103
1, 309945, Control_c, 0, 64, 124
1, 309959, Control_c, 0, 64, 127
1, 310168, Note_on_c, 0, 54, 81
1, 310179, Note_off_c, 0, 71, 44
1, 310187, Note_on_c, 0, 42, 53
1, 310215, Note_off_c, 0, 42, 64
1, 310220, Note_off_c, 0, 54, 61
1, 310262, Note_off_c, 0, 78, 40
1, 310396, Note_on_c, 0, 61, 82
1, 310405, Note_on_c, 0, 49, 74
1, 310442, Note_off_c, 0, 61, 61
1, 310453, Note_off_c, 0, 49, 58
1, 310538, Control_c, 0, 64, 126
1, 310553, Control_c, 0, 64, 90
1, 310568, Control_c, 0, 64, 71
1, 310582, Control_c, 0, 64, 64
1, 310594, Note_on_c, 0, 78, 89
1, 310597, Control_c, 0, 64, 66
1, 310602, Note_on_c, 0, 66, 83
1, 310612, Note_on_c, 0, 59, 69
1, 310612, Note_on_c, 0, 75, 72
1, 310620, Control_c, 0, 64, 74
1, 310622, Note_on_c, 0, 47, 57
1, 310633, Note_off_c, 0, 59, 65
1, 310634, Control_c, 0, 64, 86
1, 310649, Note_off_c, 0, 47, 58
1, 310649, Control_c, 0, 64, 107
1, 310664, Control_c, 0, 64, 127
1, 310717, Note_on_c, 0, 61, 86
1, 310730, Note_on_c, 0, 49, 61
1, 310737, Note_off_c, 0, 61, 69
1, 310754, Note_off_c, 0, 49, 63
1, 310768, Control_c, 0, 64, 115
1, 310782, Control_c, 0, 64, 83
1, 310797, Control_c, 0, 64, 66
1, 310812, Control_c, 0, 64, 56
1, 310824, Note_on_c, 0, 63, 88
1, 310827, Control_c, 0, 64, 62
1, 310837, Note_on_c, 0, 51, 77
1, 310842, Control_c, 0, 64, 68
1, 310856, Control_c, 0, 64, 78
1, 310869, Note_off_c, 0, 63, 59
1, 310871, Control_c, 0, 64, 90
1, 310881, Note_off_c, 0, 51, 62
1, 310886, Control_c, 0, 64, 104
1, 310901, Control_c, 0, 64, 127
1, 311044, Note_on_c, 0, 54, 86
1, 311054, Note_on_c, 0, 42, 75
1, 311071, Note_off_c, 0, 54, 65
1, 311091, Note_off_c, 0, 42, 63
1, 311274, Note_off_c, 0, 78, 57
1, 311282, Note_off_c, 0, 66, 54
1, 311305, Note_on_c, 0, 42, 80
1, 311314, Note_on_c, 0, 30, 67
1, 311343, Note_off_c, 0, 42, 60
1, 311346, Note_off_c, 0, 30, 61
1, 311439, Note_off_c, 0, 75, 59
1, 311513, Note_on_c, 0, 54, 80
1, 311516, Note_on_c, 0, 77, 88
1, 311527, Note_on_c, 0, 65, 74
1, 311553, Note_off_c, 0, 54, 63
1, 311564, Note_off_c, 0, 65, 60
1, 311588, Note_off_c, 0, 77, 60
1, 311691, Note_on_c, 0, 78, 79
1, 311705, Note_on_c, 0, 61, 80
1, 311712, Note_on_c, 0, 66, 55
1, 311728, Note_on_c, 0, 49, 53
1, 311731, Note_off_c, 0, 66, 63
1, 311741, Note_off_c, 0, 78, 61
1, 311746, Note_off_c, 0, 61, 56
1, 311758, Note_off_c, 0, 49, 63
1, 311790, Note_on_c, 0, 82, 91
1, 311828, Control_c, 0, 64, 89
1, 311842, Note_off_c, 0, 82, 65
1, 311843, Control_c, 0, 64, 73
1, 311858, Control_c, 0, 64, 64
1, 311873, Control_c, 0, 64, 62
1, 311880, Note_on_c, 0, 59, 74
1, 311887, Control_c, 0, 64, 65
1, 311888, Note_on_c, 0, 47, 61
1, 311888, Note_on_c, 0, 80, 80
1, 311902, Control_c, 0, 64, 74
1, 311904, Note_off_c, 0, 59, 68
1, 311907, Note_on_c, 0, 68, 75
1, 311909, Note_on_c, 0, 77, 58
1, 311911, Note_off_c, 0, 47, 60
1, 311917, Control_c, 0, 64, 82
1, 311931, Control_c, 0, 64, 92
1, 311940, Note_on_c, 0, 76, 38
1, 311946, Control_c, 0, 64, 104
1, 311961, Control_c, 0, 64, 119
1, 311970, Note_off_c, 0, 68, 60
1, 311974, Note_off_c, 0, 76, 32
1, 311976, Control_c, 0, 64, 127
1, 311988, Note_on_c, 0, 61, 94
1, 311996, Note_on_c, 0, 49, 69
1, 312004, Note_off_c, 0, 77, 41
1, 312010, Note_off_c, 0, 80, 64
1, 312029, Note_off_c, 0, 61, 64
1, 312030, Note_off_c, 0, 49, 64
1, 312051, Control_c, 0, 64, 88
1, 312066, Control_c, 0, 64, 65
1, 312081, Control_c, 0, 64, 0
1, 312098, Note_on_c, 0, 78, 91
1, 312109, Note_on_c, 0, 63, 85
1, 312111, Note_on_c, 0, 66, 78
1, 312111, Control_c, 0, 64, 38
1, 312125, Note_on_c, 0, 75, 65
1, 312126, Note_on_c, 0, 51, 64
1, 312133, Control_c, 0, 64, 67
1, 312148, Control_c, 0, 64, 79
1, 312163, Control_c, 0, 64, 101
1, 312170, Note_off_c, 0, 66, 62
1, 312178, Control_c, 0, 64, 127
1, 312199, Note_off_c, 0, 75, 59
1, 312219, Note_off_c, 0, 51, 62
1, 312228, Note_off_c, 0, 63, 59
1, 312336, Note_on_c, 0, 66, 90
1, 312339, Note_on_c, 0, 75, 85
1, 312339, Note_on_c, 0, 71, 85
1, 312344, Note_on_c, 0, 54, 82
1, 312357, Note_off_c, 0, 78, 60
1, 312357, Note_off_c, 0, 66, 70
1, 312365, Note_off_c, 0, 71, 64
1, 312370, Note_off_c, 0, 54, 68
1, 312374, Note_off_c, 0, 75, 59
1, 312614, Note_on_c, 0, 83, 87
1, 312615, Note_on_c, 0, 87, 101
1, 312618, Note_on_c, 0, 75, 94
1, 312636, Note_on_c, 0, 42, 81
1, 312650, Note_on_c, 0, 30, 69
1, 312685, Note_off_c, 0, 30, 61
1, 312693, Note_off_c, 0, 42, 56
1, 312799, Note_off_c, 0, 87, 62
1, 312808, Note_off_c, 0, 75, 60
1, 312924, Note_off_c, 0, 83, 61
1, 312965, Note_on_c, 0, 85, 90
1, 312968, Note_on_c, 0, 73, 95
1, 312986, Note_on_c, 0, 82, 47
1, 313001, Note_on_c, 0, 54, 80
1, 313010, Note_off_c, 0, 85, 65
1, 313011, Note_off_c, 0, 82, 57
1, 313023, Note_off_c, 0, 73, 58
1, 313024, Note_on_c, 0, 42, 50
1, 313050, Note_off_c, 0, 42, 59
1, 313063, Note_off_c, 0, 54, 57
1, 313198, Note_on_c, 0, 78, 88
1, 313206, Note_on_c, 0, 66, 85
1, 313208, Note_on_c, 0, 75, 86
1, 313216, Note_on_c, 0, 61, 77
1, 313234, Note_on_c, 0, 49, 63
1, 313255, Note_off_c, 0, 66, 61
1, 313269, Note_off_c, 0, 49, 60
1, 313277, Note_off_c, 0, 61, 60
1, 313296, Note_off_c, 0, 78, 62
1, 313321, Note_off_c, 0, 75, 63
1, 313395, Note_on_c, 0, 83, 90
1, 313400, Note_on_c, 0, 80, 81
1, 313401, Note_on_c, 0, 71, 86
1, 313406, Note_on_c, 0, 59, 63
1, 313421, Note_on_c, 0, 47, 44
1, 313426, Note_off_c, 0, 59, 63
1, 313449, Note_off_c, 0, 47, 58
1, 313499, Note_on_c, 0, 61, 88
1, 313502, Note_off_c, 0, 71, 60
1, 313513, Note_on_c, 0, 49, 64
1, 313517, Control_c, 0, 64, 86
1, 313526, Note_off_c, 0, 61, 62
1, 313532, Control_c, 0, 64, 67
1, 313538, Note_off_c, 0, 49, 63
1, 313547, Control_c, 0, 64, 58
1, 313562, Control_c, 0, 64, 61
1, 313578, Control_c, 0, 64, 64
1, 313593, Control_c, 0, 64, 69
1, 313615, Control_c, 0, 64, 77
1, 313615, Note_on_c, 0, 75, 86
1, 313617, Note_on_c, 0, 71, 82
1, 313619, Note_on_c, 0, 63, 85
1, 313627, Note_on_c, 0, 51, 78
1, 313628, Note_off_c, 0, 83, 58
1, 313630, Control_c, 0, 64, 87
1, 313645, Control_c, 0, 64, 103
1, 313657, Note_off_c, 0, 63, 58
1, 313660, Control_c, 0, 64, 127
1, 313660, Note_off_c, 0, 80, 60
1, 313675, Note_off_c, 0, 51, 64
1, 313675, Note_off_c, 0, 71, 63
1, 313737, Note_off_c, 0, 75, 64
1, 313810, Note_on_c, 0, 82, 92
1, 313814, Note_on_c, 0, 70, 90
1, 313815, Note_on_c, 0, 54, 81
1, 313815, Note_on_c, 0, 78, 79
1, 313827, Note_on_c, 0, 42, 75
1, 313844, Note_off_c, 0, 54, 68
1, 313862, Note_off_c, 0, 42, 64
1, 313863, Note_off_c, 0, 78, 61
1, 313884, Note_off_c, 0, 82, 62
1, 313898, Note_off_c, 0, 70, 55
1, 314015, Control_c, 0, 64, 96
1, 314030, Control_c, 0, 64, 77
1, 314040, Note_on_c, 0, 80, 86
1, 314042, Note_on_c, 0, 77, 78
1, 314044, Note_on_c, 0, 68, 89
1, 314045, Control_c, 0, 64, 65
1, 314058, Note_on_c, 0, 42, 74
1, 314059, Control_c, 0, 64, 57
1, 314063, Note_on_c, 0, 30, 70
1, 314074, Control_c, 0, 64, 58
1, 314089, Control_c, 0, 64, 66
1, 314104, Control_c, 0, 64, 72
1, 314116, Note_off_c, 0, 30, 59
1, 314116, Note_off_c, 0, 42, 63
1, 314119, Control_c, 0, 64, 78
1, 314133, Control_c, 0, 64, 84
1, 314148, Control_c, 0, 64, 89
1, 314150, Note_off_c, 0, 68, 61
1, 314163, Control_c, 0, 64, 96
1, 314176, Note_off_c, 0, 77, 63
1, 314178, Control_c, 0, 64, 106
1, 314185, Note_off_c, 0, 80, 61
1, 314193, Control_c, 0, 64, 127
1, 314233, Note_on_c, 0, 78, 85
1, 314241, Note_on_c, 0, 66, 83
1, 314250, Note_on_c, 0, 49, 83
1, 314258, Note_on_c, 0, 75, 46
1, 314267, Note_on_c, 0, 37, 63
1, 314279, Note_off_c, 0, 78, 64
1, 314283, Note_off_c, 0, 49, 59
1, 314283, Note_off_c, 0, 75, 58
1, 314299, Note_off_c, 0, 37, 64
1, 314304, Note_off_c, 0, 66, 60
1, 314445, Note_on_c, 0, 75, 85
1, 314447, Note_on_c, 0, 71, 81
1, 314452, Note_on_c, 0, 63, 83
1, 314458, Note_on_c, 0, 53, 73
1, 314460, Note_on_c, 0, 41, 71
1, 314483, Note_off_c, 0, 53, 68
1, 314493, Note_off_c, 0, 41, 62
1, 314549, Note_off_c, 0, 75, 62
1, 314555, Note_off_c, 0, 63, 59
1, 314645, Control_c, 0, 64, 93
1, 314660, Control_c, 0, 64, 75
1, 314676, Control_c, 0, 64, 65
1, 314683, Note_on_c, 0, 54, 65
1, 314683, Note_off_c, 0, 71, 56
1, 314691, Control_c, 0, 64, 63
1, 314694, Note_on_c, 0, 70, 72
1, 314694, Note_on_c, 0, 73, 88
1, 314699, Note_on_c, 0, 42, 39
1, 314700, Note_on_c, 0, 61, 73
1, 314705, Control_c, 0, 64, 66
1, 314709, Note_off_c, 0, 54, 66
1, 314720, Control_c, 0, 64, 72
1, 314735, Control_c, 0, 64, 78
1, 314738, Note_off_c, 0, 42, 47
1, 314749, Control_c, 0, 64, 85
1, 314764, Control_c, 0, 64, 97
1, 314779, Control_c, 0, 64, 119
1, 314794, Note_on_c, 0, 56, 86
1, 314794, Control_c, 0, 64, 127
1, 314824, Note_off_c, 0, 56, 65
1, 314838, Control_c, 0, 64, 118
1, 314853, Control_c, 0, 64, 83
1, 314864, Note_off_c, 0, 61, 53
1, 314868, Control_c, 0, 64, 67
1, 314872, Poly_aftertouch_c, 0, 46, 0
1, 314883, Control_c, 0, 64, 59
1, 314898, Control_c, 0, 64, 62
1, 314900, Note_on_c, 0, 58, 82
1, 314908, Note_on_c, 0, 46, 9
1, 314912, Control_c, 0, 64, 67
1, 314927, Control_c, 0, 64, 76
1, 314942, Control_c, 0, 64, 89
1, 314948, Note_off_c, 0, 58, 62
1, 314957, Control_c, 0, 64, 102
1, 314961, Note_off_c, 0, 46, 57
1, 314972, Control_c, 0, 64, 113
1, 314987, Control_c, 0, 64, 127
1, 315010, Note_off_c, 0, 70, 37
1, 315128, Note_on_c, 0, 49, 71
1, 315128, Note_on_c, 0, 63, 80
1, 315139, Note_on_c, 0, 37, 64
1, 315160, Note_off_c, 0, 49, 62
1, 315178, Note_off_c, 0, 37, 63
1, 315225, Note_off_c, 0, 63, 56
1, 315243, Note_off_c, 0, 73, 58
1, 315273, Note_on_c, 0, 64, 77
1, 315345, Note_on_c, 0, 70, 79
1, 315350, Note_off_c, 0, 64, 60
1, 315502, Note_on_c, 0, 30, 62
1, 315502, Note_on_c, 0, 42, 64
1, 315558, Control_c, 0, 64, 120
1, 315572, Control_c, 0, 64, 90
1, 315580, Note_on_c, 0, 80, 85
1, 315587, Control_c, 0, 64, 73
1, 315602, Control_c, 0, 64, 61
1, 315617, Control_c, 0, 64, 51
1, 315632, Control_c, 0, 64, 52
1, 315646, Control_c, 0, 64, 61
1, 315661, Control_c, 0, 64, 66
1, 315676, Control_c, 0, 64, 71
1, 315681, Note_off_c, 0, 30, 58
1, 315691, Control_c, 0, 64, 76
1, 315705, Control_c, 0, 64, 82
1, 315720, Control_c, 0, 64, 88
1, 315729, Note_off_c, 0, 42, 56
1, 315735, Control_c, 0, 64, 96
1, 315750, Control_c, 0, 64, 108
1, 315765, Control_c, 0, 64, 127
1, 315877, Note_off_c, 0, 70, 42
1, 315933, Note_on_c, 0, 49, 77
1, 315961, Note_on_c, 0, 37, 41
1, 315984, Note_off_c, 0, 49, 58
1, 315986, Note_off_c, 0, 80, 54
1, 315999, Note_off_c, 0, 37, 51
1, 316151, Note_on_c, 0, 56, 83
1, 316164, Note_on_c, 0, 44, 69
1, 316210, Note_off_c, 0, 56, 62
1, 316211, Note_off_c, 0, 44, 58
1, 316269, Poly_aftertouch_c, 0, 76, 127
1, 316306, Control_c, 0, 64, 116
1, 316320, Control_c, 0, 64, 90
1, 316335, Control_c, 0, 64, 76
1, 316340, Poly_aftertouch_c, 0, 76, 0
1, 316350, Note_on_c, 0, 76, 62
1, 316350, Control_c, 0, 64, 70
1, 316351, Note_on_c, 0, 80, 84
1, 316361, Note_on_c, 0, 70, 76
1, 316364, Note_on_c, 0, 54, 66
1, 316365, Control_c, 0, 64, 71
1, 316380, Control_c, 0, 64, 78
1, 316385, Note_on_c, 0, 42, 37
1, 316390, Note_off_c, 0, 54, 65
1, 316394, Control_c, 0, 64, 88
1, 316409, Control_c, 0, 64, 102
1, 316424, Control_c, 0, 64, 127
1, 316425, Note_off_c, 0, 42, 55
1, 316456, Note_on_c, 0, 56, 89
1, 316484, Note_on_c, 0, 44, 43
1, 316486, Note_off_c, 0, 56, 64
1, 316498, Control_c, 0, 64, 103
1, 316513, Control_c, 0, 64, 80
1, 316522, Note_off_c, 0, 44, 49
1, 316528, Control_c, 0, 64, 68
1, 316543, Control_c, 0, 64, 65
1, 316557, Control_c, 0, 64, 69
1, 316563, Note_on_c, 0, 58, 88
1, 316572, Control_c, 0, 64, 75
1, 316574, Note_on_c, 0, 46, 73
1, 316587, Control_c, 0, 64, 83
1, 316609, Control_c, 0, 64, 93
1, 316611, Note_off_c, 0, 58, 60
1, 316615, Note_off_c, 0, 46, 64
1, 316624, Control_c, 0, 64, 101
1, 316639, Control_c, 0, 64, 108
1, 316654, Control_c, 0, 64, 122
1, 316669, Control_c, 0, 64, 127
1, 316790, Note_on_c, 0, 49, 82
1, 316803, Note_on_c, 0, 37, 74
1, 316809, Note_off_c, 0, 76, 58
1, 316821, Note_off_c, 0, 49, 64
1, 316838, Note_off_c, 0, 80, 61
1, 316840, Note_off_c, 0, 37, 64
1, 316966, Control_c, 0, 64, 119
1, 316981, Control_c, 0, 64, 92
1, 316996, Control_c, 0, 64, 77
1, 317011, Control_c, 0, 64, 69
1, 317011, Note_on_c, 0, 42, 80
1, 317017, Note_on_c, 0, 30, 72
1, 317025, Control_c, 0, 64, 68
1, 317040, Control_c, 0, 64, 74
1, 317053, Note_off_c, 0, 30, 63
1, 317055, Control_c, 0, 64, 85
1, 317070, Control_c, 0, 64, 99
1, 317076, Note_on_c, 0, 32, 6
1, 317084, Note_off_c, 0, 42, 62
1, 317085, Control_c, 0, 64, 114
1, 317099, Control_c, 0, 64, 127
1, 317106, Note_off_c, 0, 70, 57
1, 317133, Note_off_c, 0, 32, 48
1, 317215, Note_on_c, 0, 78, 80
1, 317216, Note_on_c, 0, 49, 81
1, 317217, Note_on_c, 0, 70, 75
1, 317217, Note_on_c, 0, 75, 74
1, 317244, Note_on_c, 0, 37, 44
1, 317246, Note_off_c, 0, 49, 60
1, 317276, Note_off_c, 0, 37, 55
1, 317289, Note_off_c, 0, 70, 55
1, 317310, Note_off_c, 0, 75, 54
1, 317350, Note_off_c, 0, 78, 61
1, 317415, Note_on_c, 0, 68, 84
1, 317419, Note_on_c, 0, 54, 65
1, 317421, Note_on_c, 0, 76, 68
1, 317423, Note_on_c, 0, 42, 77
1, 317438, Note_off_c, 0, 76, 66
1, 317443, Note_off_c, 0, 54, 67
1, 317453, Note_off_c, 0, 42, 66
1, 317463, Note_off_c, 0, 68, 61
1, 317596, Control_c, 0, 64, 90
1, 317611, Control_c, 0, 64, 72
1, 317624, Note_on_c, 0, 47, 68
1, 317626, Control_c, 0, 64, 65
1, 317629, Note_on_c, 0, 75, 83
1, 317633, Note_on_c, 0, 66, 73
1, 317641, Control_c, 0, 64, 66
1, 317643, Note_on_c, 0, 33, 52
1, 317644, Note_on_c, 0, 35, 61
1, 317655, Control_c, 0, 64, 70
1, 317664, Note_off_c, 0, 66, 62
1, 317670, Control_c, 0, 64, 76
1, 317673, Note_off_c, 0, 33, 58
1, 317677, Note_off_c, 0, 47, 62
1, 317684, Note_off_c, 0, 35, 66
1, 317685, Control_c, 0, 64, 85
1, 317700, Control_c, 0, 64, 99
1, 317715, Control_c, 0, 64, 127
1, 317730, Note_on_c, 0, 73, 86
1, 317740, Note_on_c, 0, 64, 73
1, 317744, Note_on_c, 0, 66, 67
1, 317753, Note_off_c, 0, 75, 64
1, 317765, Note_off_c, 0, 64, 70
1, 317775, Note_off_c, 0, 66, 60
1, 317789, Control_c, 0, 64, 97
1, 317803, Control_c, 0, 64, 67
1, 317810, Note_off_c, 0, 73, 60
1, 317818, Control_c, 0, 64, 0
1, 317842, Note_on_c, 0, 71, 86
1, 317851, Note_on_c, 0, 54, 79
1, 317852, Note_on_c, 0, 63, 83
1, 317853, Note_on_c, 0, 42, 70
1, 317863, Control_c, 0, 64, 60
1, 317872, Note_on_c, 0, 66, 52
1, 317878, Control_c, 0, 64, 69
1, 317892, Note_off_c, 0, 42, 65
1, 317893, Control_c, 0, 64, 80
1, 317895, Note_off_c, 0, 66, 60
1, 317897, Note_on_c, 0, 73, 10
1, 317900, Note_off_c, 0, 54, 63
1, 317905, Note_off_c, 0, 63, 62
1, 317908, Control_c, 0, 64, 96
1, 317918, Note_off_c, 0, 71, 64
1, 317922, Control_c, 0, 64, 127
1, 317944, Note_off_c, 0, 73, 52
1, 318065, Note_on_c, 0, 59, 79
1, 318074, Note_on_c, 0, 47, 75
1, 318096, Note_off_c, 0, 59, 66
1, 318116, Note_off_c, 0, 47, 66
1, 318137, Note_on_c, 0, 66, 83
1, 318226, Note_on_c, 0, 72, 91
1, 318234, Note_off_c, 0, 66, 58
1, 318375, Control_c, 0, 64, 86
1, 318390, Control_c, 0, 64, 65
1, 318391, Note_on_c, 0, 44, 81
1, 318396, Note_on_c, 0, 32, 72
1, 318404, Control_c, 0, 64, 0
1, 318465, Control_c, 0, 64, 43
1, 318467, Note_on_c, 0, 82, 100
1, 318474, Note_off_c, 0, 72, 58
1, 318479, Control_c, 0, 64, 65
1, 318494, Control_c, 0, 64, 74
1, 318509, Control_c, 0, 64, 85
1, 318523, Control_c, 0, 64, 102
1, 318528, Note_off_c, 0, 32, 61
1, 318538, Control_c, 0, 64, 127
1, 318577, Note_off_c, 0, 82, 59
1, 318591, Note_off_c, 0, 44, 62
1, 318821, Note_on_c, 0, 51, 82
1, 318837, Note_on_c, 0, 39, 60
1, 318877, Note_off_c, 0, 39, 62
1, 318880, Note_off_c, 0, 51, 63
1, 319050, Note_on_c, 0, 58, 84
1, 319061, Note_on_c, 0, 46, 74
1, 319099, Note_off_c, 0, 58, 61
1, 319106, Note_off_c, 0, 46, 56
1, 319199, Control_c, 0, 64, 89
1, 319213, Control_c, 0, 64, 72
1, 319228, Control_c, 0, 64, 67
1, 319235, Note_on_c, 0, 82, 83
1, 319243, Control_c, 0, 64, 70
1, 319246, Note_on_c, 0, 72, 81
1, 319246, Note_on_c, 0, 78, 73
1, 319249, Note_on_c, 0, 56, 66
1, 319258, Control_c, 0, 64, 76
1, 319270, Note_off_c, 0, 56, 64
1, 319273, Control_c, 0, 64, 88
1, 319288, Control_c, 0, 64, 114
1, 319302, Control_c, 0, 64, 127
1, 319313, Poly_aftertouch_c, 0, 44, 127
1, 319339, Note_on_c, 0, 58, 86
1, 319349, Poly_aftertouch_c, 0, 44, 0
1, 319370, Note_on_c, 0, 46, 48
1, 319373, Note_off_c, 0, 58, 60
1, 319376, Control_c, 0, 64, 88
1, 319391, Control_c, 0, 64, 70
1, 319393, Note_off_c, 0, 46, 56
1, 319406, Control_c, 0, 64, 58
1, 319420, Control_c, 0, 64, 63
1, 319435, Control_c, 0, 64, 74
1, 319437, Note_on_c, 0, 60, 87
1, 319450, Note_on_c, 0, 48, 75
1, 319450, Control_c, 0, 64, 100
1, 319465, Control_c, 0, 64, 127
1, 319466, Note_off_c, 0, 60, 62
1, 319482, Note_off_c, 0, 48, 67
1, 319576, Note_off_c, 0, 78, 55
1, 319608, Note_off_c, 0, 82, 63
1, 319666, Note_on_c, 0, 51, 84
1, 319675, Note_on_c, 0, 39, 78
1, 319691, Note_off_c, 0, 51, 69
1, 319715, Note_off_c, 0, 39, 60
1, 319879, Note_on_c, 0, 44, 91
1, 319891, Note_on_c, 0, 32, 74
1, 319896, Note_off_c, 0, 72, 30
1, 319923, Note_off_c, 0, 32, 64
1, 319924, Note_off_c, 0, 44, 62
1, 320072, Note_on_c, 0, 80, 86
1, 320079, Note_on_c, 0, 51, 80
1, 320080, Note_on_c, 0, 72, 76
1, 320080, Note_on_c, 0, 77, 63
1, 320103, Note_on_c, 0, 39, 47
1, 320109, Note_off_c, 0, 51, 61
1, 320118, Note_off_c, 0, 72, 61
1, 320148, Note_off_c, 0, 77, 56
1, 320152, Note_off_c, 0, 39, 46
1, 320228, Note_off_c, 0, 80, 61
1, 320270, Note_on_c, 0, 78, 81
1, 320273, Note_on_c, 0, 44, 84
1, 320275, Note_on_c, 0, 70, 88
1, 320276, Note_on_c, 0, 56, 72
1, 320301, Note_off_c, 0, 56, 67
1, 320313, Note_off_c, 0, 44, 66
1, 320321, Note_off_c, 0, 78, 62
1, 320329, Note_off_c, 0, 70, 60
1, 320458, Control_c, 0, 64, 82
1, 320473, Control_c, 0, 64, 65
1, 320484, Note_on_c, 0, 49, 83
1, 320488, Control_c, 0, 64, 52
1, 320489, Note_on_c, 0, 77, 88
1, 320494, Note_on_c, 0, 37, 69
1, 320502, Control_c, 0, 64, 60
1, 320503, Note_on_c, 0, 68, 78
1, 320517, Control_c, 0, 64, 67
1, 320520, Note_off_c, 0, 37, 64
1, 320522, Note_on_c, 0, 73, 42
1, 320525, Note_off_c, 0, 68, 69
1, 320531, Note_off_c, 0, 49, 64
1, 320532, Control_c, 0, 64, 74
1, 320547, Control_c, 0, 64, 83
1, 320549, Note_off_c, 0, 77, 62
1, 320551, Note_off_c, 0, 73, 57
1, 320562, Control_c, 0, 64, 95
1, 320576, Control_c, 0, 64, 106
1, 320588, Note_on_c, 0, 75, 85
1, 320591, Control_c, 0, 64, 127
1, 320608, Note_on_c, 0, 66, 72
1, 320609, Note_on_c, 0, 68, 67
1, 320623, Note_off_c, 0, 68, 71
1, 320632, Note_off_c, 0, 66, 67
1, 320665, Control_c, 0, 64, 96
1, 320680, Control_c, 0, 64, 72
1, 320694, Control_c, 0, 64, 36
1, 320695, Note_on_c, 0, 56, 82
1, 320700, Note_on_c, 0, 73, 81
1, 320701, Note_on_c, 0, 68, 60
1, 320702, Note_on_c, 0, 65, 89
1, 320707, Note_on_c, 0, 44, 57
1, 320709, Control_c, 0, 64, 0
1, 320710, Note_off_c, 0, 75, 0
1, 320724, Control_c, 0, 64, 46
1, 320731, Note_on_c, 0, 75, 28
1, 320739, Control_c, 0, 64, 69
1, 320740, Note_off_c, 0, 44, 62
1, 320754, Control_c, 0, 64, 85
1, 320766, Note_off_c, 0, 56, 61
1, 320769, Control_c, 0, 64, 107
1, 320770, Note_off_c, 0, 75, 46
1, 320784, Control_c, 0, 64, 127
1, 320817, Note_off_c, 0, 73, 62
1, 320831, Note_off_c, 0, 68, 61
1, 320861, Note_off_c, 0, 65, 62
1, 320913, Note_on_c, 0, 77, 83
1, 320917, Note_on_c, 0, 49, 85
1, 320917, Note_on_c, 0, 61, 76
1, 320917, Note_on_c, 0, 73, 87
1, 320940, Note_off_c, 0, 61, 66
1, 320958, Note_off_c, 0, 49, 63
1, 320961, Note_off_c, 0, 73, 62
1, 320964, Note_off_c, 0, 77, 65
1, 321001, Poly_aftertouch_c, 0, 75, 127
1, 321029, Poly_aftertouch_c, 0, 75, 0
1, 321098, Note_on_c, 0, 68, 71
1, 321145, Note_off_c, 0, 68, 61
1, 321162, Control_c, 0, 64, 111
1, 321163, Note_on_c, 0, 77, 87
1, 321177, Control_c, 0, 64, 74
1, 321191, Control_c, 0, 64, 0
1, 321205, Note_on_c, 0, 83, 99
1, 321207, Note_on_c, 0, 49, 93
1, 321216, Note_on_c, 0, 37, 69
1, 321236, Control_c, 0, 64, 56
1, 321243, Note_off_c, 0, 37, 65
1, 321251, Control_c, 0, 64, 69
1, 321257, Note_off_c, 0, 49, 66
1, 321266, Control_c, 0, 64, 79
1, 321280, Control_c, 0, 64, 96
1, 321295, Control_c, 0, 64, 127
1, 321461, Note_off_c, 0, 83, 63
1, 321491, Note_on_c, 0, 56, 90
1, 321492, Note_on_c, 0, 49, 75
1, 321506, Note_off_c, 0, 77, 63
1, 321553, Note_off_c, 0, 49, 63
1, 321589, Note_off_c, 0, 56, 58
1, 321677, Note_on_c, 0, 65, 77
1, 321685, Note_on_c, 0, 56, 79
1, 321698, Note_off_c, 0, 65, 70
1, 321723, Note_off_c, 0, 56, 64
1, 321753, Note_on_c, 0, 68, 76
1, 321810, Note_off_c, 0, 68, 53
1, 321816, Note_on_c, 0, 76, 89
1, 321866, Control_c, 0, 64, 84
1, 321879, Note_off_c, 0, 76, 0
1, 321881, Control_c, 0, 64, 0
1, 321893, Note_on_c, 0, 83, 103
1, 321900, Note_on_c, 0, 50, 96
1, 321909, Note_on_c, 0, 38, 77
1, 321916, Poly_aftertouch_c, 0, 76, 127
1, 321934, Note_off_c, 0, 38, 66
1, 321940, Control_c, 0, 64, 64
1, 321955, Control_c, 0, 64, 73
1, 321970, Control_c, 0, 64, 88
1, 321972, Note_off_c, 0, 50, 67
1, 321985, Control_c, 0, 64, 127
1, 322112, Note_off_c, 0, 83, 61
1, 322144, Note_on_c, 0, 50, 83
1, 322146, Note_on_c, 0, 56, 84
1, 322168, Poly_aftertouch_c, 0, 76, 0
1, 322240, Note_off_c, 0, 50, 63
1, 322290, Note_off_c, 0, 56, 61
1, 322371, Note_on_c, 0, 64, 79
1, 322379, Note_on_c, 0, 56, 82
1, 322394, Note_off_c, 0, 64, 68
1, 322412, Note_off_c, 0, 56, 65
1, 322430, Note_on_c, 0, 68, 77
1, 322504, Note_off_c, 0, 68, 58
1, 322508, Note_on_c, 0, 75, 91
1, 322534, Control_c, 0, 64, 87
1, 322549, Control_c, 0, 64, 0
1, 322600, Note_on_c, 0, 83, 96
1, 322600, Control_c, 0, 64, 63
1, 322605, Note_on_c, 0, 51, 96
1, 322615, Control_c, 0, 64, 79
1, 322618, Note_on_c, 0, 39, 77
1, 322626, Note_off_c, 0, 75, 62
1, 322630, Control_c, 0, 64, 123
1, 322643, Note_off_c, 0, 83, 68
1, 322644, Control_c, 0, 64, 127
1, 322645, Note_off_c, 0, 39, 63
1, 322653, Note_off_c, 0, 51, 67
1, 322775, Note_on_c, 0, 85, 81
1, 322781, Note_on_c, 0, 76, 82
1, 322806, Note_off_c, 0, 76, 66
1, 322820, Note_off_c, 0, 85, 62
1, 322830, Note_on_c, 0, 56, 77
1, 322835, Note_on_c, 0, 83, 88
1, 322838, Note_on_c, 0, 51, 67
1, 322842, Note_on_c, 0, 59, 80
1, 322842, Note_on_c, 0, 75, 96
1, 322872, Note_on_c, 0, 76, 34
1, 322907, Note_off_c, 0, 76, 54
1, 322954, Note_off_c, 0, 51, 52
1, 323002, Note_off_c, 0, 75, 54
1, 323027, Note_off_c, 0, 59, 58
1, 323037, Note_off_c, 0, 83, 61
1, 323060, Note_on_c, 0, 63, 82
1, 323062, Note_off_c, 0, 56, 26
1, 323062, Note_on_c, 0, 51, 84
1, 323083, Note_off_c, 0, 63, 69
1, 323106, Note_off_c, 0, 51, 65
1, 323169, Note_on_c, 0, 82, 92
1, 323175, Note_on_c, 0, 73, 91
1, 323181, Note_on_c, 0, 75, 75
1, 323201, Note_off_c, 0, 75, 70
1, 323208, Note_off_c, 0, 73, 61
1, 323215, Note_off_c, 0, 82, 66
1, 323223, Control_c, 0, 64, 106
1, 323238, Control_c, 0, 64, 67
1, 323253, Control_c, 0, 64, 0
1, 323269, Note_on_c, 0, 75, 88
1, 323271, Note_on_c, 0, 73, 96
1, 323274, Note_on_c, 0, 82, 85
1, 323281, Note_on_c, 0, 51, 102
1, 323291, Note_on_c, 0, 39, 71
1, 323297, Control_c, 0, 64, 66
1, 323311, Control_c, 0, 64, 85
1, 323314, Note_off_c, 0, 51, 55
1, 323318, Note_off_c, 0, 39, 62
1, 323326, Control_c, 0, 64, 127
1, 323408, Note_off_c, 0, 82, 64
1, 323456, Note_off_c, 0, 75, 59
1, 323458, Note_off_c, 0, 73, 60
1, 323460, Note_on_c, 0, 83, 77
1, 323520, Note_on_c, 0, 82, 94
1, 323525, Note_on_c, 0, 61, 84
1, 323529, Note_on_c, 0, 73, 95
1, 323532, Note_on_c, 0, 55, 63
1, 323537, Note_on_c, 0, 51, 79
1, 323541, Note_off_c, 0, 83, 66
1, 323564, Note_off_c, 0, 82, 66
1, 323568, Note_off_c, 0, 73, 63
1, 323572, Note_off_c, 0, 55, 65
1, 323576, Note_off_c, 0, 61, 63
1, 323800, Note_on_c, 0, 63, 81
1, 323804, Note_on_c, 0, 55, 74
1, 323805, Note_on_c, 0, 61, 75
1, 323821, Note_on_c, 0, 67, 92
1, 323822, Note_on_c, 0, 75, 90
1, 323828, Note_on_c, 0, 73, 86
1, 323828, Note_off_c, 0, 63, 64
1, 323831, Note_off_c, 0, 61, 65
1, 323834, Note_off_c, 0, 51, 62
1, 323838, Note_off_c, 0, 55, 67
1, 323917, Note_off_c, 0, 67, 58
1, 323948, Note_off_c, 0, 75, 57
1, 323950, Note_off_c, 0, 73, 56
1, 324201, Control_c, 0, 64, 99
1, 324209, Note_on_c, 0, 80, 89
1, 324210, Note_on_c, 0, 68, 88
1, 324211, Note_on_c, 0, 73, 86
1, 324212, Note_on_c, 0, 75, 80
1, 324215, Control_c, 0, 64, 61
1, 324221, Note_on_c, 0, 44, 92
1, 324227, Note_on_c, 0, 32, 79
1, 324230, Control_c, 0, 64, 0
1, 324275, Control_c, 0, 64, 65
1, 324290, Control_c, 0, 64, 77
1, 324292, Note_off_c, 0, 32, 63
1, 324305, Control_c, 0, 64, 95
1, 324320, Control_c, 0, 64, 127
1, 324337, Note_off_c, 0, 44, 64
1, 324416, Note_off_c, 0, 68, 57
1, 324442, Note_off_c, 0, 73, 48
1, 324472, Note_off_c, 0, 75, 31
1, 324495, Note_off_c, 0, 80, 61
1, 324625, Note_on_c, 0, 75, 85
1, 324639, Note_on_c, 0, 51, 73
1, 324642, Note_on_c, 0, 59, 78
1, 324642, Note_on_c, 0, 56, 68
1, 324645, Note_on_c, 0, 73, 93
1, 324792, Note_off_c, 0, 56, 56
1, 324845, Note_off_c, 0, 51, 61
1, 324870, Note_off_c, 0, 59, 57
1, 324895, Note_off_c, 0, 75, 60
1, 324913, Note_on_c, 0, 71, 90
1, 324921, Note_off_c, 0, 73, 58
1, 324922, Note_on_c, 0, 63, 74
1, 324928, Note_on_c, 0, 56, 83
1, 324946, Note_off_c, 0, 63, 66
1, 324952, Note_off_c, 0, 71, 64
1, 324965, Note_off_c, 0, 56, 65
1, 325084, Control_c, 0, 64, 93
1, 325098, Control_c, 0, 64, 59
1, 325113, Control_c, 0, 64, 0
1, 325128, Note_on_c, 0, 71, 86
1, 325128, Note_on_c, 0, 67, 89
1, 325128, Note_on_c, 0, 75, 92
1, 325130, Note_on_c, 0, 46, 91
1, 325139, Note_on_c, 0, 34, 73
1, 325143, Control_c, 0, 64, 47
1, 325158, Control_c, 0, 64, 68
1, 325166, Note_off_c, 0, 34, 63
1, 325172, Note_off_c, 0, 46, 64
1, 325172, Control_c, 0, 64, 82
1, 325187, Control_c, 0, 64, 114
1, 325202, Control_c, 0, 64, 127
1, 325230, Note_off_c, 0, 71, 63
1, 325235, Note_off_c, 0, 67, 59
1, 325320, Note_on_c, 0, 73, 83
1, 325347, Note_on_c, 0, 71, 90
1, 325349, Note_on_c, 0, 55, 78
1, 325349, Note_on_c, 0, 61, 80
1, 325351, Note_off_c, 0, 75, 63
1, 325386, Note_off_c, 0, 73, 62
1, 325435, Note_off_c, 0, 61, 62
1, 325436, Note_off_c, 0, 55, 62
1, 325553, Note_on_c, 0, 70, 92
1, 325555, Note_on_c, 0, 63, 83
1, 325557, Note_off_c, 0, 71, 66
1, 325559, Note_on_c, 0, 55, 82
1, 325563, Note_on_c, 0, 61, 73
1, 325588, Note_off_c, 0, 63, 65
1, 325592, Note_off_c, 0, 61, 68
1, 325604, Note_off_c, 0, 70, 63
1, 325610, Note_off_c, 0, 55, 66
1, 325744, Control_c, 0, 64, 101
1, 325759, Control_c, 0, 64, 67
1, 325774, Control_c, 0, 64, 0
1, 325774, Note_on_c, 0, 75, 87
1, 325775, Note_on_c, 0, 70, 85
1, 325777, Note_on_c, 0, 63, 96
1, 325777, Note_on_c, 0, 47, 93
1, 325786, Note_on_c, 0, 35, 79
1, 325803, Control_c, 0, 64, 29
1, 325816, Note_off_c, 0, 35, 67
1, 325818, Control_c, 0, 64, 69
1, 325833, Control_c, 0, 64, 83
1, 325848, Control_c, 0, 64, 127
1, 325857, Note_off_c, 0, 47, 66
1, 325887, Note_off_c, 0, 75, 59
1, 325891, Note_off_c, 0, 63, 59
1, 326015, Note_on_c, 0, 68, 94
1, 326025, Note_on_c, 0, 51, 75
1, 326027, Note_on_c, 0, 56, 75
1, 326034, Note_off_c, 0, 70, 60
1, 326135, Note_off_c, 0, 51, 50
1, 326139, Note_off_c, 0, 56, 61
1, 326219, Note_off_c, 0, 68, 59
1, 326247, Note_on_c, 0, 77, 93
1, 326252, Note_on_c, 0, 51, 83
1, 326254, Note_on_c, 0, 56, 68
1, 326254, Note_on_c, 0, 63, 72
1, 326274, Note_off_c, 0, 63, 65
1, 326279, Note_off_c, 0, 56, 66
1, 326299, Note_off_c, 0, 51, 66
1, 326299, Note_off_c, 0, 77, 65
1, 326450, Note_on_c, 0, 78, 80
1, 326498, Note_off_c, 0, 78, 64
1, 326505, Note_on_c, 0, 80, 77
1, 326537, Control_c, 0, 64, 73
1, 326541, Note_on_c, 0, 78, 79
1, 326543, Note_on_c, 0, 68, 77
1, 326544, Note_on_c, 0, 75, 55
1, 326548, Note_on_c, 0, 48, 96
1, 326552, Control_c, 0, 64, 0
1, 326553, Note_on_c, 0, 36, 90
1, 326586, Note_off_c, 0, 80, 65
1, 326603, Note_off_c, 0, 36, 62
1, 326611, Control_c, 0, 64, 55
1, 326626, Control_c, 0, 64, 79
1, 326641, Control_c, 0, 64, 127
1, 326642, Note_off_c, 0, 48, 65
1, 326740, Note_off_c, 0, 68, 59
1, 326755, Note_off_c, 0, 75, 63
1, 326773, Note_off_c, 0, 78, 62
1, 326824, Note_on_c, 0, 77, 77
1, 326824, Note_on_c, 0, 54, 84
1, 326825, Note_on_c, 0, 56, 88
1, 326826, Note_on_c, 0, 48, 85
1, 326834, Note_on_c, 0, 68, 84
1, 326853, Note_on_c, 0, 75, 54
1, 326872, Note_off_c, 0, 75, 63
1, 326876, Note_off_c, 0, 68, 63
1, 326895, Note_off_c, 0, 77, 63
1, 326954, Note_off_c, 0, 48, 56
1, 326980, Note_on_c, 0, 78, 86
1, 326983, Note_on_c, 0, 68, 82
1, 326983, Note_on_c, 0, 75, 73
1, 326994, Note_off_c, 0, 54, 62
1, 327028, Note_off_c, 0, 68, 62
1, 327031, Note_off_c, 0, 75, 64
1, 327044, Note_off_c, 0, 56, 64
1, 327062, Note_off_c, 0, 78, 63
1, 327062, Note_on_c, 0, 54, 71
1, 327123, Note_on_c, 0, 56, 79
1, 327142, Note_off_c, 0, 54, 66
1, 327152, Note_on_c, 0, 75, 93
1, 327153, Note_on_c, 0, 68, 89
1, 327165, Note_on_c, 0, 63, 94
1, 327179, Note_off_c, 0, 56, 67
1, 327199, Note_off_c, 0, 63, 66
1, 327257, Note_off_c, 0, 68, 60
1, 327259, Note_off_c, 0, 75, 59
1, 327333, Note_on_c, 0, 80, 94
1, 327339, Note_on_c, 0, 68, 92
1, 327351, Note_on_c, 0, 75, 69
1, 327366, Note_off_c, 0, 75, 71
1, 327371, Note_off_c, 0, 80, 67
1, 327372, Note_off_c, 0, 68, 65
1, 327685, Note_on_c, 0, 68, 90
1, 327688, Note_on_c, 0, 61, 93
1, 327688, Note_on_c, 0, 66, 87
1, 327700, Control_c, 0, 64, 93
1, 327704, Note_on_c, 0, 37, 105
1, 327706, Note_on_c, 0, 25, 92
1, 327715, Control_c, 0, 64, 65
1, 327730, Control_c, 0, 64, 0
1, 327775, Control_c, 0, 64, 64
1, 327790, Control_c, 0, 64, 77
1, 327804, Control_c, 0, 64, 95
1, 327819, Control_c, 0, 64, 127
1, 327841, Note_off_c, 0, 25, 60
1, 327918, Note_off_c, 0, 37, 60
1, 328085, Note_off_c, 0, 61, 52
1, 328128, Note_off_c, 0, 66, 53
1, 328134, Note_off_c, 0, 68, 47
1, 328250, Note_on_c, 0, 68, 66
1, 328252, Note_on_c, 0, 66, 64
1, 328252, Note_on_c, 0, 71, 91
1, 328256, Note_on_c, 0, 61, 76
1, 328285, Note_on_c, 0, 59, 69
1, 328293, Note_on_c, 0, 49, 56
1, 328300, Note_on_c, 0, 56, 53
1, 328342, Note_off_c, 0, 68, 55
1, 328382, Note_off_c, 0, 61, 54
1, 328406, Note_off_c, 0, 66, 40
1, 328432, Note_off_c, 0, 59, 56
1, 328452, Note_off_c, 0, 71, 59
1, 328510, Note_off_c, 0, 56, 62
1, 328538, Note_off_c, 0, 49, 37
1, 328612, Note_on_c, 0, 73, 93
1, 328614, Note_on_c, 0, 66, 90
1, 328620, Note_on_c, 0, 61, 78
1, 328627, Note_on_c, 0, 49, 75
1, 328633, Note_on_c, 0, 56, 67
1, 328719, Note_off_c, 0, 66, 58
1, 328723, Note_off_c, 0, 49, 58
1, 328734, Note_off_c, 0, 56, 63
1, 328740, Note_off_c, 0, 61, 58
1, 328746, Note_off_c, 0, 73, 59
1, 328838, Note_on_c, 0, 75, 90
1, 328839, Note_on_c, 0, 66, 86
1, 328844, Note_on_c, 0, 63, 83
1, 328845, Note_on_c, 0, 49, 71
1, 328847, Note_on_c, 0, 56, 77
1, 328848, Note_on_c, 0, 71, 47
1, 328848, Note_on_c, 0, 68, 49
1, 328870, Note_off_c, 0, 68, 60
1, 328872, Note_off_c, 0, 71, 60
1, 328872, Note_off_c, 0, 49, 67
1, 328874, Note_off_c, 0, 56, 69
1, 328881, Note_off_c, 0, 66, 65
1, 328895, Note_off_c, 0, 63, 63
1, 328907, Note_off_c, 0, 75, 64
1, 328949, Poly_aftertouch_c, 0, 73, 0
1, 329047, Note_on_c, 0, 77, 87
1, 329050, Note_on_c, 0, 65, 86
1, 329053, Note_on_c, 0, 63, 77
1, 329053, Note_on_c, 0, 75, 75
1, 329053, Note_on_c, 0, 56, 81
1, 329053, Note_on_c, 0, 68, 91
1, 329053, Note_on_c, 0, 71, 72
1, 329058, Note_on_c, 0, 59, 74
1, 329100, Note_off_c, 0, 65, 63
1, 329122, Note_off_c, 0, 77, 63
1, 329137, Note_off_c, 0, 75, 61
1, 329144, Note_off_c, 0, 68, 50
1, 329149, Note_off_c, 0, 59, 61
1, 329153, Note_off_c, 0, 71, 60
1, 329169, Note_off_c, 0, 63, 56
1, 329173, Note_off_c, 0, 56, 60
1, 329252, Note_on_c, 0, 78, 94
1, 329253, Note_on_c, 0, 68, 90
1, 329253, Note_on_c, 0, 75, 77
1, 329256, Note_on_c, 0, 66, 91
1, 329258, Note_on_c, 0, 59, 79
1, 329263, Note_on_c, 0, 56, 80
1, 329272, Note_on_c, 0, 71, 61
1, 329290, Note_off_c, 0, 71, 66
1, 329296, Note_on_c, 0, 63, 24
1, 329301, Note_off_c, 0, 68, 61
1, 329301, Note_off_c, 0, 75, 64
1, 329334, Note_off_c, 0, 78, 65
1, 329336, Note_off_c, 0, 63, 49
1, 329354, Note_off_c, 0, 59, 55
1, 329388, Note_off_c, 0, 66, 58
1, 329414, Note_off_c, 0, 56, 58
1, 329465, Note_on_c, 0, 56, 67
1, 329467, Note_on_c, 0, 80, 92
1, 329468, Note_on_c, 0, 63, 81
1, 329472, Note_on_c, 0, 71, 93
1, 329474, Note_on_c, 0, 66, 88
1, 329476, Note_on_c, 0, 75, 79
1, 329477, Note_on_c, 0, 68, 89
1, 329480, Note_on_c, 0, 78, 77
1, 329580, Note_off_c, 0, 71, 58
1, 329580, Note_off_c, 0, 75, 59
1, 329581, Note_off_c, 0, 68, 58
1, 329590, Note_off_c, 0, 80, 61
1, 329596, Note_off_c, 0, 66, 57
1, 329601, Note_off_c, 0, 63, 53
1, 329608, Note_off_c, 0, 78, 60
1, 329620, Note_off_c, 0, 56, 49
1, 329691, Note_on_c, 0, 71, 95
1, 329691, Note_on_c, 0, 82, 100
1, 329695, Note_on_c, 0, 66, 84
1, 329695, Note_on_c, 0, 70, 93
1, 329696, Note_on_c, 0, 63, 82
1, 329697, Note_on_c, 0, 75, 74
1, 329700, Note_on_c, 0, 56, 69
1, 329705, Note_on_c, 0, 78, 69
1, 329715, Note_off_c, 0, 75, 72
1, 329726, Note_on_c, 0, 80, 53
1, 329727, Note_off_c, 0, 56, 66
1, 329729, Note_off_c, 0, 78, 66
1, 329731, Note_off_c, 0, 71, 64
1, 329746, Note_off_c, 0, 66, 59
1, 329746, Note_off_c, 0, 80, 61
1, 329747, Note_off_c, 0, 63, 59
1, 329773, Note_off_c, 0, 82, 64
1, 329797, Note_off_c, 0, 70, 58
1, 329933, Note_on_c, 0, 71, 94
1, 329935, Note_on_c, 0, 83, 99
1, 329936, Note_on_c, 0, 75, 99
1, 329937, Note_on_c, 0, 78, 84
1, 329939, Note_on_c, 0, 63, 86
1, 329939, Note_on_c, 0, 66, 82
1, 329940, Note_on_c, 0, 68, 84
1, 329940, Note_on_c, 0, 80, 76
1, 329983, Note_on_c, 0, 82, 46
1, 329986, Note_off_c, 0, 71, 64
1, 329987, Note_off_c, 0, 78, 44
1, 329998, Note_off_c, 0, 80, 60
1, 330001, Note_off_c, 0, 83, 64
1, 330009, Note_off_c, 0, 75, 60
1, 330010, Note_off_c, 0, 82, 57
1, 330016, Note_off_c, 0, 68, 59
1, 330018, Note_off_c, 0, 66, 61
1, 330133, Note_on_c, 0, 78, 15
1, 330179, Note_off_c, 0, 78, 51
1, 330240, Note_on_c, 0, 73, 102
1, 330241, Note_on_c, 0, 85, 100
1, 330243, Note_on_c, 0, 66, 88
1, 330244, Note_on_c, 0, 75, 98
1, 330245, Note_on_c, 0, 80, 83
1, 330246, Note_on_c, 0, 78, 90
1, 330246, Note_on_c, 0, 68, 86
1, 330291, Note_off_c, 0, 73, 64
1, 330306, Note_off_c, 0, 68, 64
1, 330306, Note_off_c, 0, 75, 64
1, 330306, Note_off_c, 0, 78, 61
1, 330311, Note_off_c, 0, 80, 63
1, 330323, Note_off_c, 0, 85, 63
1, 330326, Note_off_c, 0, 66, 60
1, 330654, Note_on_c, 0, 87, 98
1, 330656, Note_on_c, 0, 75, 98
1, 330656, Note_on_c, 0, 78, 100
1, 330656, Note_on_c, 0, 80, 87
1, 330657, Note_on_c, 0, 83, 91
1, 330657, Note_on_c, 0, 66, 89
1, 330658, Note_on_c, 0, 68, 91
1, 330660, Note_on_c, 0, 71, 90
1, 330681, Note_off_c, 0, 63, 66
1, 330691, Note_off_c, 0, 75, 68
1, 330693, Note_off_c, 0, 71, 70
1, 330696, Note_off_c, 0, 66, 68
1, 330699, Note_off_c, 0, 68, 65
1, 330753, Poly_aftertouch_c, 0, 86, 127
1, 330786, Poly_aftertouch_c, 0, 86, 0
1, 330960, Note_off_c, 0, 80, 53
1, 331009, Note_off_c, 0, 83, 59
1, 331066, Note_off_c, 0, 87, 56
1, 331170, Note_off_c, 0, 78, 46
1, 331519, Control_c, 0, 64, 79
1, 331534, Control_c, 0, 64, 0
1, 332016, Control_c, 0, 64, 49
1, 332031, Control_c, 0, 64, 127
1, 332045, Note_on_c, 0, 89, 100
1, 332046, Note_on_c, 0, 77, 102
1, 332046, Note_on_c, 0, 83, 89
1, 332046, Note_on_c, 0, 85, 95
1, 332055, Note_on_c, 0, 49, 95
1, 332062, Note_on_c, 0, 37, 92
1, 332079, Note_on_c, 0, 82, 40
1, 332080, Note_off_c, 0, 82, 127
1, 332130, Note_off_c, 0, 83, 65
1, 332133, Note_off_c, 0, 89, 63
1, 332137, Note_off_c, 0, 49, 60
1, 332151, Poly_aftertouch_c, 0, 87, 0
1, 332156, Note_off_c, 0, 77, 57
1, 332238, Control_c, 0, 64, 113
1, 332253, Control_c, 0, 64, 61
1, 332267, Control_c, 0, 64, 0
1, 332283, Note_off_c, 0, 37, 66
1, 332289, Note_on_c, 0, 90, 96
1, 332291, Note_on_c, 0, 82, 97
1, 332292, Note_on_c, 0, 78, 101
1, 332297, Control_c, 0, 64, 61
1, 332300, Note_on_c, 0, 42, 104
1, 332309, Note_on_c, 0, 30, 88
1, 332311, Note_off_c, 0, 85, 63
1, 332312, Control_c, 0, 64, 99
1, 332335, Control_c, 0, 64, 127
1, 332338, Note_off_c, 0, 90, 69
1, 332338, Note_off_c, 0, 78, 68
1, 332340, Note_off_c, 0, 30, 65
1, 332340, Note_off_c, 0, 82, 68
1, 332350, Note_off_c, 0, 42, 62
1, 332664, Note_on_c, 0, 61, 87
1, 332669, Note_on_c, 0, 49, 82
1, 332774, Note_off_c, 0, 61, 59
1, 332782, Note_off_c, 0, 49, 50
1, 332896, Note_on_c, 0, 84, 94
1, 332896, Note_on_c, 0, 63, 87
1, 332899, Note_on_c, 0, 72, 96
1, 332902, Note_on_c, 0, 81, 86
1, 332905, Note_on_c, 0, 51, 72
1, 332927, Note_off_c, 0, 51, 67
1, 332962, Note_off_c, 0, 81, 52
1, 332972, Note_off_c, 0, 63, 58
1, 332985, Note_off_c, 0, 72, 58
1, 332988, Note_off_c, 0, 84, 63
1, 333084, Control_c, 0, 64, 84
1, 333098, Control_c, 0, 64, 63
1, 333100, Note_on_c, 0, 83, 93
1, 333101, Note_on_c, 0, 71, 94
1, 333104, Note_on_c, 0, 80, 83
1, 333107, Note_on_c, 0, 65, 83
1, 333113, Control_c, 0, 64, 0
1, 333114, Note_on_c, 0, 61, 67
1, 333115, Note_on_c, 0, 56, 82
1, 333143, Control_c, 0, 64, 39
1, 333148, Note_off_c, 0, 61, 62
1, 333155, Note_off_c, 0, 65, 64
1, 333158, Control_c, 0, 64, 66
1, 333172, Control_c, 0, 64, 78
1, 333184, Note_off_c, 0, 56, 63
1, 333187, Control_c, 0, 64, 96
1, 333202, Control_c, 0, 64, 127
1, 333241, Note_off_c, 0, 71, 61
1, 333245, Note_off_c, 0, 83, 58
1, 333275, Note_on_c, 0, 61, 83
1, 333277, Note_on_c, 0, 49, 65
1, 333304, Note_off_c, 0, 49, 66
1, 333315, Note_off_c, 0, 61, 60
1, 333319, Note_off_c, 0, 80, 56
1, 333425, Note_on_c, 0, 80, 90
1, 333430, Note_on_c, 0, 68, 91
1, 333431, Note_on_c, 0, 65, 79
1, 333435, Note_on_c, 0, 77, 77
1, 333438, Note_on_c, 0, 59, 65
1, 333452, Note_on_c, 0, 61, 40
1, 333461, Note_off_c, 0, 77, 64
1, 333462, Note_off_c, 0, 65, 63
1, 333475, Note_off_c, 0, 61, 61
1, 333477, Note_off_c, 0, 59, 62
1, 333500, Note_off_c, 0, 68, 60
1, 333518, Note_off_c, 0, 80, 65
1, 333552, Poly_aftertouch_c, 0, 60, 0
1, 333602, Control_c, 0, 64, 104
1, 333617, Control_c, 0, 64, 77
1, 333626, Note_on_c, 0, 82, 84
1, 333628, Note_on_c, 0, 78, 69
1, 333632, Control_c, 0, 64, 59
1, 333635, Note_on_c, 0, 70, 74
1, 333644, Note_on_c, 0, 54, 76
1, 333647, Note_on_c, 0, 42, 70
1, 333647, Control_c, 0, 64, 32
1, 333662, Control_c, 0, 64, 50
1, 333677, Control_c, 0, 64, 66
1, 333689, Note_off_c, 0, 42, 64
1, 333692, Control_c, 0, 64, 76
1, 333699, Note_off_c, 0, 54, 66
1, 333707, Control_c, 0, 64, 89
1, 333707, Note_off_c, 0, 78, 61
1, 333716, Note_off_c, 0, 70, 59
1, 333721, Control_c, 0, 64, 122
1, 333736, Control_c, 0, 64, 127
1, 333739, Note_off_c, 0, 82, 64
1, 333805, Note_on_c, 0, 61, 81
1, 333811, Note_on_c, 0, 54, 72
1, 333826, Note_on_c, 0, 58, 74
1, 333888, Note_off_c, 0, 61, 60
1, 333906, Note_off_c, 0, 54, 62
1, 333907, Note_off_c, 0, 58, 63
1, 333965, Note_on_c, 0, 85, 96
1, 333966, Note_on_c, 0, 73, 100
1, 333970, Note_on_c, 0, 49, 74
1, 333977, Note_on_c, 0, 58, 74
1, 333983, Note_on_c, 0, 82, 78
1, 333989, Note_on_c, 0, 54, 69
1, 334015, Note_off_c, 0, 49, 61
1, 334040, Note_off_c, 0, 73, 55
1, 334057, Note_off_c, 0, 82, 59
1, 334081, Note_off_c, 0, 54, 61
1, 334092, Note_off_c, 0, 85, 62
1, 334096, Note_off_c, 0, 58, 48
1, 334166, Note_on_c, 0, 90, 96
1, 334169, Note_on_c, 0, 82, 87
1, 334171, Note_on_c, 0, 78, 94
1, 334183, Note_on_c, 0, 66, 61
1, 334184, Note_on_c, 0, 54, 65
1, 334195, Note_on_c, 0, 58, 45
1, 334204, Note_off_c, 0, 66, 64
1, 334239, Note_off_c, 0, 58, 55
1, 334256, Note_off_c, 0, 54, 63
1, 334321, Note_on_c, 0, 54, 68
1, 334324, Note_on_c, 0, 61, 82
1, 334328, Note_off_c, 0, 78, 60
1, 334333, Note_off_c, 0, 82, 38
1, 334341, Note_on_c, 0, 58, 64
1, 334350, Note_off_c, 0, 90, 63
1, 334378, Note_off_c, 0, 58, 60
1, 334409, Note_off_c, 0, 61, 56
1, 334410, Note_off_c, 0, 54, 58
1, 334468, Note_on_c, 0, 58, 67
1, 334472, Note_on_c, 0, 54, 54
1, 334473, Note_on_c, 0, 89, 93
1, 334477, Note_on_c, 0, 77, 92
1, 334477, Note_on_c, 0, 85, 89
1, 334491, Note_on_c, 0, 49, 86
1, 334502, Note_off_c, 0, 58, 64
1, 334512, Note_off_c, 0, 54, 63
1, 334520, Note_off_c, 0, 49, 68
1, 334520, Note_off_c, 0, 77, 65
1, 334554, Note_off_c, 0, 89, 62
1, 334580, Note_off_c, 0, 85, 63
1, 334610, Control_c, 0, 64, 91
1, 334625, Control_c, 0, 64, 66
1, 334640, Control_c, 0, 64, 19
1, 334655, Control_c, 0, 64, 45
1, 334663, Note_on_c, 0, 83, 69
1, 334664, Note_on_c, 0, 87, 86
1, 334666, Note_on_c, 0, 49, 89
1, 334669, Note_on_c, 0, 37, 85
1, 334669, Control_c, 0, 64, 65
1, 334672, Note_on_c, 0, 75, 90
1, 334684, Control_c, 0, 64, 75
1, 334693, Note_off_c, 0, 83, 65
1, 334698, Note_off_c, 0, 37, 68
1, 334699, Control_c, 0, 64, 92
1, 334708, Note_off_c, 0, 49, 59
1, 334714, Control_c, 0, 64, 127
1, 334735, Note_off_c, 0, 87, 64
1, 334738, Note_off_c, 0, 75, 63
1, 334834, Note_on_c, 0, 85, 85
1, 334836, Note_on_c, 0, 59, 78
1, 334839, Note_on_c, 0, 82, 84
1, 334839, Note_on_c, 0, 73, 88
1, 334871, Note_off_c, 0, 59, 62
1, 334872, Note_off_c, 0, 82, 59
1, 334887, Note_off_c, 0, 73, 60
1, 334893, Note_off_c, 0, 85, 66
1, 334987, Note_on_c, 0, 83, 82
1, 334992, Note_on_c, 0, 65, 78
1, 334993, Note_on_c, 0, 71, 71
1, 335016, Note_off_c, 0, 71, 57
1, 335017, Note_on_c, 0, 72, 57
1, 335024, Note_off_c, 0, 65, 59
1, 335039, Note_off_c, 0, 72, 62
1, 335039, Note_off_c, 0, 83, 63
1, 335151, Note_on_c, 0, 87, 91
1, 335152, Note_on_c, 0, 83, 51
1, 335155, Note_on_c, 0, 68, 73
1, 335160, Note_on_c, 0, 75, 85
1, 335179, Note_on_c, 0, 61, 51
1, 335184, Note_on_c, 0, 59, 45
1, 335188, Note_off_c, 0, 83, 65
1, 335212, Note_off_c, 0, 68, 60
1, 335217, Note_off_c, 0, 87, 64
1, 335228, Note_off_c, 0, 75, 53
1, 335248, Note_off_c, 0, 61, 42
1, 335266, Note_off_c, 0, 59, 34
1, 335314, Note_on_c, 0, 56, 73
1, 335350, Note_off_c, 0, 56, 66
1, 335477, Note_on_c, 0, 80, 81
1, 335486, Note_on_c, 0, 68, 74
1, 335493, Note_on_c, 0, 77, 62
1, 335506, Note_on_c, 0, 59, 20
1, 335524, Note_off_c, 0, 77, 65
1, 335535, Note_off_c, 0, 68, 60
1, 335545, Note_off_c, 0, 59, 45
1, 335558, Poly_aftertouch_c, 0, 57, 127
1, 335558, Note_off_c, 0, 80, 63
1, 335589, Poly_aftertouch_c, 0, 57, 0
1, 335625, Control_c, 0, 64, 88
1, 335640, Control_c, 0, 64, 67
1, 335645, Note_on_c, 0, 82, 79
1, 335653, Note_on_c, 0, 54, 73
1, 335653, Note_on_c, 0, 70, 70
1, 335655, Control_c, 0, 64, 0
1, 335656, Note_on_c, 0, 78, 72
1, 335672, Note_on_c, 0, 42, 45
1, 335685, Control_c, 0, 64, 41
1, 335699, Control_c, 0, 64, 67
1, 335703, Note_off_c, 0, 42, 55
1, 335710, Note_off_c, 0, 54, 65
1, 335714, Control_c, 0, 64, 78
1, 335729, Control_c, 0, 64, 94
1, 335744, Control_c, 0, 64, 127
1, 335796, Note_off_c, 0, 70, 61
1, 335817, Note_on_c, 0, 58, 83
1, 335821, Note_on_c, 0, 49, 74
1, 335823, Note_off_c, 0, 82, 63
1, 335827, Note_off_c, 0, 78, 61
1, 335871, Note_off_c, 0, 58, 61
1, 335898, Note_off_c, 0, 49, 59
1, 335972, Note_on_c, 0, 61, 76
1, 335976, Note_on_c, 0, 54, 81
1, 335983, Note_on_c, 0, 58, 62
1, 336000, Note_off_c, 0, 61, 66
1, 336012, Note_off_c, 0, 58, 62
1, 336020, Note_off_c, 0, 54, 67
1, 336137, Control_c, 0, 64, 90
1, 336148, Note_on_c, 0, 85, 102
1, 336150, Note_on_c, 0, 79, 88
1, 336151, Note_on_c, 0, 73, 100
1, 336152, Control_c, 0, 64, 0
1, 336157, Note_on_c, 0, 51, 96
1, 336166, Note_on_c, 0, 39, 82
1, 336193, Note_off_c, 0, 39, 68
1, 336197, Control_c, 0, 64, 63
1, 336211, Control_c, 0, 64, 77
1, 336220, Note_off_c, 0, 51, 59
1, 336226, Control_c, 0, 64, 100
1, 336241, Control_c, 0, 64, 127
1, 336352, Note_on_c, 0, 61, 90
1, 336392, Note_off_c, 0, 61, 64
1, 336503, Note_on_c, 0, 67, 87
1, 336535, Note_off_c, 0, 67, 61
1, 336546, Note_on_c, 0, 65, 36
1, 336580, Note_off_c, 0, 65, 51
1, 336596, Control_c, 0, 64, 119
1, 336611, Control_c, 0, 64, 80
1, 336626, Control_c, 0, 64, 59
1, 336640, Control_c, 0, 64, 60
1, 336655, Note_on_c, 0, 80, 88
1, 336655, Control_c, 0, 64, 69
1, 336658, Note_on_c, 0, 56, 97
1, 336664, Note_on_c, 0, 44, 83
1, 336670, Control_c, 0, 64, 83
1, 336685, Note_off_c, 0, 79, 53
1, 336685, Control_c, 0, 64, 127
1, 336698, Note_off_c, 0, 44, 64
1, 336704, Note_off_c, 0, 56, 62
1, 336711, Note_off_c, 0, 73, 59
1, 336716, Note_off_c, 0, 85, 57
1, 336837, Note_on_c, 0, 63, 83
1, 336837, Note_on_c, 0, 84, 90
1, 336844, Note_on_c, 0, 72, 85
1, 336866, Note_off_c, 0, 80, 59
1, 336884, Note_off_c, 0, 63, 60
1, 336914, Note_off_c, 0, 84, 60
1, 336917, Note_off_c, 0, 72, 55
1, 337001, Note_on_c, 0, 68, 56
1, 337006, Note_on_c, 0, 59, 56
1, 337021, Note_off_c, 0, 68, 63
1, 337024, Note_on_c, 0, 60, 28
1, 337027, Note_off_c, 0, 59, 62
1, 337059, Note_on_c, 0, 83, 88
1, 337060, Note_off_c, 0, 60, 54
1, 337061, Note_on_c, 0, 71, 79
1, 337079, Note_off_c, 0, 71, 73
1, 337087, Note_off_c, 0, 83, 58
1, 337108, Control_c, 0, 64, 91
1, 337123, Control_c, 0, 64, 68
1, 337138, Control_c, 0, 64, 0
1, 337141, Note_on_c, 0, 83, 74
1, 337149, Note_on_c, 0, 80, 75
1, 337150, Note_on_c, 0, 71, 80
1, 337164, Note_on_c, 0, 39, 70
1, 337164, Note_on_c, 0, 51, 71
1, 337167, Control_c, 0, 64, 50
1, 337176, Note_off_c, 0, 71, 64
1, 337182, Control_c, 0, 64, 70
1, 337184, Note_on_c, 0, 49, 42
1, 337189, Note_off_c, 0, 51, 65
1, 337190, Note_off_c, 0, 39, 59
1, 337197, Note_off_c, 0, 83, 64
1, 337197, Control_c, 0, 64, 86
1, 337212, Control_c, 0, 64, 111
1, 337213, Note_off_c, 0, 80, 64
1, 337221, Note_off_c, 0, 49, 57
1, 337227, Control_c, 0, 64, 127
1, 337303, Note_on_c, 0, 82, 83
1, 337313, Note_on_c, 0, 70, 80
1, 337318, Note_on_c, 0, 78, 60
1, 337327, Note_on_c, 0, 59, 55
1, 337340, Note_on_c, 0, 57, 37
1, 337344, Note_off_c, 0, 78, 65
1, 337348, Note_off_c, 0, 59, 60
1, 337363, Note_off_c, 0, 70, 63
1, 337373, Note_off_c, 0, 57, 53
1, 337379, Note_off_c, 0, 82, 60
1, 337448, Note_on_c, 0, 65, 72
1, 337458, Note_on_c, 0, 81, 85
1, 337460, Note_on_c, 0, 69, 85
1, 337466, Note_on_c, 0, 77, 70
1, 337474, Note_off_c, 0, 65, 67
1, 337480, Note_on_c, 0, 60, 37
1, 337489, Note_off_c, 0, 77, 69
1, 337507, Note_off_c, 0, 69, 65
1, 337513, Note_off_c, 0, 60, 54
1, 337516, Note_off_c, 0, 81, 65
1, 337591, Control_c, 0, 64, 84
1, 337606, Control_c, 0, 64, 58
1, 337621, Control_c, 0, 64, 0
1, 337630, Note_on_c, 0, 82, 87
1, 337632, Note_on_c, 0, 54, 85
1, 337639, Note_on_c, 0, 70, 74
1, 337646, Note_on_c, 0, 78, 77
1, 337650, Note_on_c, 0, 42, 44
1, 337650, Control_c, 0, 64, 36
1, 337665, Control_c, 0, 64, 66
1, 337677, Note_off_c, 0, 54, 66
1, 337680, Control_c, 0, 64, 79
1, 337683, Note_off_c, 0, 42, 55
1, 337693, Note_off_c, 0, 70, 64
1, 337695, Control_c, 0, 64, 96
1, 337702, Note_off_c, 0, 78, 64
1, 337707, Note_off_c, 0, 82, 65
1, 337710, Control_c, 0, 64, 127
1, 337714, Poly_aftertouch_c, 0, 44, 127
1, 337752, Poly_aftertouch_c, 0, 44, 0
1, 337796, Note_on_c, 0, 85, 90
1, 337803, Note_on_c, 0, 73, 89
1, 337805, Note_on_c, 0, 82, 90
1, 337808, Note_on_c, 0, 58, 70
1, 337813, Note_on_c, 0, 61, 63
1, 337838, Note_on_c, 0, 65, 36
1, 337844, Note_off_c, 0, 73, 61
1, 337856, Note_off_c, 0, 82, 63
1, 337859, Note_off_c, 0, 85, 64
1, 337872, Note_off_c, 0, 65, 52
1, 337877, Note_off_c, 0, 58, 55
1, 337883, Note_off_c, 0, 61, 58
1, 337948, Note_on_c, 0, 78, 99
1, 337951, Note_on_c, 0, 90, 96
1, 337951, Note_on_c, 0, 54, 75
1, 337953, Note_on_c, 0, 61, 76
1, 337954, Note_on_c, 0, 82, 90
1, 337957, Note_on_c, 0, 58, 76
1, 338012, Note_off_c, 0, 54, 64
1, 338024, Note_off_c, 0, 78, 60
1, 338024, Note_off_c, 0, 82, 62
1, 338039, Note_off_c, 0, 58, 61
1, 338040, Note_off_c, 0, 90, 65
1, 338053, Note_off_c, 0, 61, 61
1, 338120, Note_on_c, 0, 70, 82
1, 338123, Note_on_c, 0, 78, 98
1, 338124, Note_on_c, 0, 90, 101
1, 338125, Note_on_c, 0, 82, 97
1, 338137, Note_on_c, 0, 61, 56
1, 338141, Note_on_c, 0, 58, 71
1, 338149, Note_off_c, 0, 70, 61
1, 338202, Note_off_c, 0, 61, 47
1, 338203, Note_off_c, 0, 58, 58
1, 338235, Note_off_c, 0, 78, 60
1, 338244, Note_off_c, 0, 90, 62
1, 338255, Note_off_c, 0, 82, 62
1, 338270, Note_on_c, 0, 58, 65
1, 338273, Note_on_c, 0, 66, 87
1, 338289, Note_on_c, 0, 61, 57
1, 338326, Note_off_c, 0, 61, 62
1, 338363, Note_off_c, 0, 58, 50
1, 338366, Note_off_c, 0, 66, 49
1, 338440, Note_on_c, 0, 61, 65
1, 338446, Note_on_c, 0, 58, 58
1, 338452, Note_on_c, 0, 54, 84
1, 338465, Note_off_c, 0, 61, 65
1, 338471, Note_off_c, 0, 58, 66
1, 338485, Note_off_c, 0, 54, 66
1, 338491, Note_on_c, 0, 89, 100
1, 338492, Note_on_c, 0, 77, 98
1, 338494, Note_on_c, 0, 85, 89
1, 338583, Note_off_c, 0, 77, 62
1, 338589, Note_off_c, 0, 85, 64
1, 338598, Note_off_c, 0, 89, 61
1, 338636, Control_c, 0, 64, 84
1, 338651, Control_c, 0, 64, 63
1, 338654, Note_on_c, 0, 49, 92
1, 338657, Note_on_c, 0, 37, 82
1, 338666, Note_on_c, 0, 77, 98
1, 338666, Note_on_c, 0, 85, 96
1, 338666, Control_c, 0, 64, 0
1, 338667, Note_on_c, 0, 89, 95
1, 338696, Control_c, 0, 64, 56
1, 338711, Control_c, 0, 64, 72
1, 338715, Note_off_c, 0, 37, 64
1, 338719, Note_off_c, 0, 77, 63
1, 338725, Control_c, 0, 64, 85
1, 338729, Note_off_c, 0, 49, 62
1, 338730, Note_off_c, 0, 89, 62
1, 338740, Control_c, 0, 64, 109
1, 338755, Control_c, 0, 64, 127
1, 338761, Note_off_c, 0, 85, 64
1, 338849, Note_on_c, 0, 59, 81
1, 338852, Note_on_c, 0, 75, 91
1, 338852, Note_on_c, 0, 87, 94
1, 338864, Note_on_c, 0, 83, 68
1, 338876, Note_on_c, 0, 82, 35
1, 338889, Note_off_c, 0, 83, 66
1, 338890, Note_off_c, 0, 59, 58
1, 338907, Note_off_c, 0, 75, 62
1, 338908, Note_off_c, 0, 82, 46
1, 338930, Note_off_c, 0, 87, 65
1, 339005, Note_on_c, 0, 59, 74
1, 339005, Note_on_c, 0, 82, 74
1, 339006, Note_on_c, 0, 85, 95
1, 339007, Note_on_c, 0, 73, 95
1, 339016, Note_on_c, 0, 65, 65
1, 339028, Note_on_c, 0, 61, 59
1, 339075, Note_off_c, 0, 61, 56
1, 339079, Note_off_c, 0, 73, 60
1, 339087, Note_off_c, 0, 59, 51
1, 339102, Note_off_c, 0, 82, 31
1, 339102, Note_off_c, 0, 65, 60
1, 339109, Note_off_c, 0, 85, 63
1, 339166, Note_on_c, 0, 71, 83
1, 339168, Note_on_c, 0, 87, 93
1, 339175, Note_on_c, 0, 61, 64
1, 339175, Note_on_c, 0, 83, 73
1, 339176, Note_on_c, 0, 75, 91
1, 339197, Note_off_c, 0, 83, 70
1, 339203, Note_on_c, 0, 59, 58
1, 339209, Note_off_c, 0, 71, 62
1, 339220, Note_on_c, 0, 65, 6
1, 339231, Note_off_c, 0, 87, 66
1, 339232, Note_off_c, 0, 75, 64
1, 339276, Note_off_c, 0, 61, 0
1, 339281, Poly_aftertouch_c, 0, 85, 0
1, 339301, Note_on_c, 0, 61, 22
1, 339319, Note_on_c, 0, 56, 82
1, 339320, Note_off_c, 0, 65, 0
1, 339340, Note_off_c, 0, 61, 45
1, 339341, Note_off_c, 0, 59, 25
1, 339346, Note_off_c, 0, 56, 67
1, 339374, Poly_aftertouch_c, 0, 65, 0
1, 339460, Note_on_c, 0, 61, 82
1, 339462, Note_on_c, 0, 80, 94
1, 339464, Note_on_c, 0, 68, 96
1, 339469, Note_on_c, 0, 49, 74
1, 339475, Note_on_c, 0, 77, 80
1, 339484, Note_off_c, 0, 61, 65
1, 339496, Note_off_c, 0, 49, 63
1, 339504, Note_off_c, 0, 77, 61
1, 339525, Note_off_c, 0, 68, 57
1, 339553, Note_off_c, 0, 80, 63
1, 339592, Control_c, 0, 64, 112
1, 339607, Control_c, 0, 64, 78
1, 339622, Control_c, 0, 64, 36
1, 339627, Note_on_c, 0, 82, 89
1, 339630, Note_on_c, 0, 70, 89
1, 339633, Note_on_c, 0, 78, 82
1, 339633, Note_on_c, 0, 54, 81
1, 339637, Control_c, 0, 64, 0
1, 339646, Note_on_c, 0, 42, 66
1, 339666, Control_c, 0, 64, 31
1, 339681, Control_c, 0, 64, 66
1, 339683, Note_off_c, 0, 42, 64
1, 339686, Note_off_c, 0, 54, 65
1, 339696, Control_c, 0, 64, 78
1, 339711, Control_c, 0, 64, 98
1, 339726, Control_c, 0, 64, 127
1, 339784, Note_off_c, 0, 82, 62
1, 339791, Note_off_c, 0, 70, 55
1, 339801, Note_on_c, 0, 61, 82
1, 339836, Note_on_c, 0, 51, 39
1, 339838, Note_off_c, 0, 61, 60
1, 339868, Note_off_c, 0, 51, 54
1, 339907, Note_off_c, 0, 78, 37
1, 339981, Note_on_c, 0, 54, 75
1, 339983, Note_on_c, 0, 66, 59
1, 340002, Note_on_c, 0, 58, 38
1, 340005, Note_off_c, 0, 66, 62
1, 340020, Note_off_c, 0, 54, 65
1, 340038, Note_off_c, 0, 58, 54
1, 340202, Note_on_c, 0, 82, 95
1, 340208, Control_c, 0, 64, 107
1, 340211, Note_on_c, 0, 70, 75
1, 340213, Note_on_c, 0, 76, 65
1, 340223, Control_c, 0, 64, 81
1, 340225, Note_on_c, 0, 48, 68
1, 340231, Note_on_c, 0, 36, 60
1, 340238, Control_c, 0, 64, 61
1, 340253, Control_c, 0, 64, 0
1, 340282, Control_c, 0, 64, 57
1, 340287, Note_off_c, 0, 36, 59
1, 340297, Control_c, 0, 64, 68
1, 340312, Control_c, 0, 64, 75
1, 340327, Note_off_c, 0, 48, 62
1, 340327, Control_c, 0, 64, 85
1, 340342, Control_c, 0, 64, 95
1, 340357, Control_c, 0, 64, 109
1, 340371, Control_c, 0, 64, 127
1, 340485, Note_on_c, 0, 60, 58
1, 340502, Note_on_c, 0, 55, 35
1, 340509, Note_on_c, 0, 58, 53
1, 340539, Note_off_c, 0, 55, 54
1, 340548, Note_off_c, 0, 58, 60
1, 340572, Note_off_c, 0, 60, 57
1, 340594, Note_off_c, 0, 76, 59
1, 340605, Note_off_c, 0, 70, 36
1, 340609, Note_off_c, 0, 82, 38
1, 340694, Note_on_c, 0, 67, 55
1, 340703, Note_on_c, 0, 58, 55
1, 340709, Note_on_c, 0, 60, 44
1, 340717, Note_off_c, 0, 67, 60
1, 340738, Note_off_c, 0, 60, 65
1, 340738, Note_off_c, 0, 58, 64
1, 340928, Note_on_c, 0, 82, 70
1, 340928, Control_c, 0, 64, 93
1, 340941, Note_on_c, 0, 75, 50
1, 340943, Control_c, 0, 64, 74
1, 340955, Note_on_c, 0, 70, 40
1, 340958, Control_c, 0, 64, 57
1, 340959, Note_on_c, 0, 41, 43
1, 340960, Note_on_c, 0, 53, 50
1, 340973, Control_c, 0, 64, 0
1, 340987, Control_c, 0, 64, 36
1, 341002, Control_c, 0, 64, 64
1, 341008, Note_off_c, 0, 41, 62
1, 341017, Control_c, 0, 64, 70
1, 341032, Control_c, 0, 64, 77
1, 341046, Note_off_c, 0, 70, 58
1, 341046, Control_c, 0, 64, 85
1, 341052, Note_off_c, 0, 53, 66
1, 341061, Control_c, 0, 64, 94
1, 341076, Control_c, 0, 64, 106
1, 341081, Note_off_c, 0, 82, 63
1, 341091, Control_c, 0, 64, 127
1, 341163, Note_off_c, 0, 75, 52
1, 341181, Note_on_c, 0, 81, 74
1, 341198, Note_on_c, 0, 63, 69
1, 341204, Note_on_c, 0, 69, 46
1, 341205, Note_on_c, 0, 53, 60
1, 341224, Note_off_c, 0, 81, 64
1, 341230, Note_off_c, 0, 69, 56
1, 341263, Note_off_c, 0, 63, 56
1, 341267, Note_off_c, 0, 53, 48
1, 341366, Note_on_c, 0, 85, 82
1, 341373, Note_on_c, 0, 73, 81
1, 341383, Note_on_c, 0, 57, 60
1, 341385, Note_on_c, 0, 65, 61
1, 341387, Note_on_c, 0, 63, 62
1, 341413, Note_off_c, 0, 65, 65
1, 341445, Note_off_c, 0, 63, 49
1, 341447, Note_off_c, 0, 73, 60
1, 341457, Note_off_c, 0, 85, 63
1, 341475, Note_off_c, 0, 57, 35
1, 341531, Note_on_c, 0, 69, 69
1, 341533, Note_on_c, 0, 85, 93
1, 341536, Note_on_c, 0, 73, 96
1, 341539, Note_on_c, 0, 77, 75
1, 341540, Note_on_c, 0, 57, 56
1, 341549, Note_on_c, 0, 63, 54
1, 341561, Note_off_c, 0, 69, 62
1, 341589, Note_off_c, 0, 63, 54
1, 341604, Note_off_c, 0, 57, 59
1, 341617, Note_off_c, 0, 77, 60
1, 341684, Note_off_c, 0, 85, 56
1, 341690, Note_on_c, 0, 63, 69
1, 341694, Note_on_c, 0, 57, 69
1, 341696, Note_on_c, 0, 65, 71
1, 341700, Note_off_c, 0, 73, 61
1, 341726, Note_off_c, 0, 65, 64
1, 341743, Note_off_c, 0, 63, 57
1, 341745, Note_off_c, 0, 57, 60
1, 341850, Note_on_c, 0, 65, 68
1, 341850, Note_on_c, 0, 84, 92
1, 341853, Note_on_c, 0, 53, 75
1, 341853, Note_on_c, 0, 57, 72
1, 341853, Note_on_c, 0, 72, 93
1, 341856, Note_on_c, 0, 75, 84
1, 341875, Note_on_c, 0, 63, 21
1, 341875, Note_off_c, 0, 65, 69
1, 341882, Note_off_c, 0, 57, 66
1, 341894, Note_off_c, 0, 53, 66
1, 341907, Note_off_c, 0, 63, 55
1, 341917, Note_off_c, 0, 84, 62
1, 341922, Note_off_c, 0, 72, 59
1, 341937, Note_off_c, 0, 75, 64
1, 341973, Control_c, 0, 64, 96
1, 341988, Control_c, 0, 64, 68
1, 342002, Control_c, 0, 64, 0
1, 342017, Control_c, 0, 64, 11
1, 342032, Control_c, 0, 64, 65
1, 342035, Note_on_c, 0, 70, 84
1, 342036, Note_on_c, 0, 82, 89
1, 342037, Note_on_c, 0, 46, 92
1, 342041, Note_on_c, 0, 73, 80
1, 342047, Note_on_c, 0, 34, 78
1, 342047, Control_c, 0, 64, 76
1, 342069, Control_c, 0, 64, 94
1, 342080, Note_off_c, 0, 34, 63
1, 342084, Control_c, 0, 64, 127
1, 342089, Note_on_c, 0, 44, 28
1, 342095, Note_off_c, 0, 46, 60
1, 342113, Note_off_c, 0, 70, 64
1, 342114, Note_off_c, 0, 73, 62
1, 342128, Note_off_c, 0, 44, 52
1, 342140, Note_off_c, 0, 82, 64
1, 342220, Note_on_c, 0, 84, 94
1, 342222, Note_on_c, 0, 72, 90
1, 342225, Note_on_c, 0, 75, 79
1, 342227, Note_on_c, 0, 61, 80
1, 342235, Note_on_c, 0, 53, 67
1, 342262, Note_on_c, 0, 82, 41
1, 342279, Note_off_c, 0, 75, 63
1, 342285, Note_off_c, 0, 53, 60
1, 342288, Note_off_c, 0, 72, 56
1, 342289, Note_off_c, 0, 84, 60
1, 342292, Note_off_c, 0, 82, 55
1, 342310, Note_off_c, 0, 61, 58
1, 342386, Note_on_c, 0, 65, 67
1, 342388, Note_on_c, 0, 58, 77
1, 342394, Note_on_c, 0, 73, 98
1, 342394, Note_on_c, 0, 85, 99
1, 342402, Note_on_c, 0, 77, 57
1, 342405, Note_off_c, 0, 65, 66
1, 342423, Note_off_c, 0, 77, 62
1, 342425, Note_off_c, 0, 58, 63
1, 342472, Note_off_c, 0, 73, 55
1, 342479, Poly_aftertouch_c, 0, 82, 127
1, 342491, Note_off_c, 0, 85, 61
1, 342508, Poly_aftertouch_c, 0, 82, 0
1, 342545, Control_c, 0, 64, 103
1, 342559, Control_c, 0, 64, 68
1, 342572, Note_on_c, 0, 45, 97
1, 342574, Note_on_c, 0, 73, 101
1, 342574, Control_c, 0, 64, 0
1, 342575, Note_on_c, 0, 79, 93
1, 342576, Note_on_c, 0, 85, 100
1, 342578, Note_on_c, 0, 33, 88
1, 342608, Note_off_c, 0, 33, 64
1, 342618, Control_c, 0, 64, 63
1, 342633, Control_c, 0, 64, 71
1, 342646, Note_off_c, 0, 45, 66
1, 342648, Control_c, 0, 64, 82
1, 342663, Control_c, 0, 64, 103
1, 342678, Control_c, 0, 64, 127
1, 342766, Note_on_c, 0, 55, 78
1, 342777, Note_on_c, 0, 61, 81
1, 342831, Note_off_c, 0, 55, 60
1, 342858, Note_off_c, 0, 61, 61
1, 342912, Note_off_c, 0, 79, 50
1, 342918, Note_on_c, 0, 55, 61
1, 342932, Note_on_c, 0, 61, 80
1, 342934, Note_off_c, 0, 85, 54
1, 342959, Note_off_c, 0, 73, 32
1, 342978, Note_on_c, 0, 67, 92
1, 343013, Note_off_c, 0, 61, 64
1, 343016, Note_off_c, 0, 67, 64
1, 343020, Note_off_c, 0, 55, 52
1, 343189, Control_c, 0, 64, 80
1, 343203, Note_on_c, 0, 85, 92
1, 343204, Note_on_c, 0, 73, 97
1, 343204, Control_c, 0, 64, 46
1, 343207, Note_on_c, 0, 78, 89
1, 343207, Note_on_c, 0, 80, 85
1, 343214, Note_on_c, 0, 44, 102
1, 343219, Control_c, 0, 64, 0
1, 343223, Note_on_c, 0, 32, 87
1, 343234, Control_c, 0, 64, 21
1, 343248, Control_c, 0, 64, 70
1, 343263, Control_c, 0, 64, 90
1, 343271, Note_off_c, 0, 32, 63
1, 343278, Control_c, 0, 64, 127
1, 343296, Note_off_c, 0, 44, 66
1, 343361, Note_off_c, 0, 73, 59
1, 343362, Note_off_c, 0, 78, 58
1, 343371, Note_off_c, 0, 85, 55
1, 343381, Note_off_c, 0, 80, 59
1, 343457, Note_on_c, 0, 84, 88
1, 343460, Note_on_c, 0, 72, 88
1, 343478, Note_on_c, 0, 61, 59
1, 343479, Note_on_c, 0, 63, 48
1, 343500, Note_off_c, 0, 61, 59
1, 343505, Note_off_c, 0, 72, 65
1, 343521, Note_off_c, 0, 84, 63
1, 343542, Note_off_c, 0, 63, 37
1, 343633, Note_on_c, 0, 56, 75
1, 343634, Note_on_c, 0, 66, 82
1, 343634, Note_on_c, 0, 85, 96
1, 343635, Note_on_c, 0, 73, 96
1, 343669, Note_on_c, 0, 63, 33
1, 343686, Note_off_c, 0, 56, 63
1, 343696, Note_off_c, 0, 73, 60
1, 343707, Note_off_c, 0, 63, 57
1, 343716, Note_off_c, 0, 85, 65
1, 343717, Note_off_c, 0, 66, 56
1, 343800, Note_on_c, 0, 63, 79
1, 343807, Note_on_c, 0, 75, 95
1, 343807, Note_on_c, 0, 87, 101
1, 343810, Note_on_c, 0, 72, 73
1, 343840, Note_off_c, 0, 72, 60
1, 343860, Note_off_c, 0, 75, 58
1, 343907, Note_off_c, 0, 87, 64
1, 343950, Note_off_c, 0, 63, 37
1, 343988, Note_on_c, 0, 66, 71
1, 343988, Note_on_c, 0, 89, 98
1, 343992, Note_on_c, 0, 77, 98
1, 343993, Note_on_c, 0, 80, 89
1, 344003, Note_on_c, 0, 56, 84
1, 344012, Note_off_c, 0, 66, 66
1, 344025, Note_on_c, 0, 87, 50
1, 344029, Note_off_c, 0, 56, 70
1, 344034, Note_off_c, 0, 80, 61
1, 344051, Note_off_c, 0, 87, 60
1, 344059, Note_off_c, 0, 77, 53
1, 344062, Note_off_c, 0, 89, 61
1, 344223, Note_on_c, 0, 56, 71
1, 344223, Note_on_c, 0, 60, 81
1, 344229, Note_on_c, 0, 51, 82
1, 344250, Note_off_c, 0, 60, 67
1, 344253, Note_off_c, 0, 56, 68
1, 344259, Note_on_c, 0, 90, 99
1, 344262, Note_on_c, 0, 78, 98
1, 344266, Note_off_c, 0, 51, 67
1, 344268, Note_on_c, 0, 82, 94
1, 344378, Note_off_c, 0, 82, 58
1, 344542, Note_off_c, 0, 78, 61
1, 344583, Control_c, 0, 64, 97
1, 344596, Note_on_c, 0, 78, 82
1, 344598, Note_on_c, 0, 87, 93
1, 344598, Control_c, 0, 64, 69
1, 344609, Note_on_c, 0, 49, 101
1, 344613, Control_c, 0, 64, 0
1, 344616, Note_on_c, 0, 37, 84
1, 344643, Control_c, 0, 64, 36
1, 344650, Note_off_c, 0, 37, 65
1, 344657, Control_c, 0, 64, 68
1, 344672, Control_c, 0, 64, 81
1, 344687, Control_c, 0, 64, 108
1, 344699, Note_off_c, 0, 49, 59
1, 344702, Control_c, 0, 64, 127
1, 344852, Note_off_c, 0, 90, 54
1, 344853, Note_off_c, 0, 78, 54
1, 344920, Note_off_c, 0, 87, 62
1, 344970, Note_on_c, 0, 89, 89
1, 344972, Note_on_c, 0, 77, 85
1, 344976, Note_on_c, 0, 85, 74
1, 344977, Note_on_c, 0, 61, 71
1, 344977, Note_on_c, 0, 53, 65
1, 344987, Note_on_c, 0, 56, 61
1, 345057, Note_off_c, 0, 77, 60
1, 345064, Note_off_c, 0, 89, 63
1, 345073, Note_off_c, 0, 53, 62
1, 345083, Note_off_c, 0, 85, 64
1, 345087, Note_off_c, 0, 56, 55
1, 345168, Note_off_c, 0, 61, 31
1, 345178, Note_on_c, 0, 65, 66
1, 345180, Note_on_c, 0, 56, 81
1, 345183, Note_on_c, 0, 90, 93
1, 345184, Note_on_c, 0, 78, 90
1, 345186, Note_on_c, 0, 87, 85
1, 345204, Note_off_c, 0, 65, 67
1, 345224, Note_off_c, 0, 56, 65
1, 345255, Note_off_c, 0, 87, 64
1, 345279, Note_off_c, 0, 78, 59
1, 345287, Note_off_c, 0, 90, 63
1, 345302, Control_c, 0, 64, 108
1, 345317, Control_c, 0, 64, 79
1, 345332, Control_c, 0, 64, 66
1, 345347, Control_c, 0, 64, 64
1, 345359, Note_on_c, 0, 51, 94
1, 345361, Note_on_c, 0, 89, 95
1, 345362, Note_on_c, 0, 77, 91
1, 345362, Control_c, 0, 64, 68
1, 345369, Note_on_c, 0, 39, 79
1, 345371, Note_on_c, 0, 85, 70
1, 345376, Control_c, 0, 64, 76
1, 345391, Control_c, 0, 64, 90
1, 345393, Note_off_c, 0, 39, 64
1, 345395, Note_off_c, 0, 85, 69
1, 345405, Control_c, 0, 64, 127
1, 345411, Note_off_c, 0, 51, 64
1, 345421, Note_off_c, 0, 77, 56
1, 345439, Note_off_c, 0, 89, 62
1, 345537, Note_on_c, 0, 58, 71
1, 345549, Note_on_c, 0, 87, 95
1, 345553, Note_on_c, 0, 54, 71
1, 345554, Note_on_c, 0, 75, 85
1, 345556, Note_on_c, 0, 83, 69
1, 345575, Note_off_c, 0, 58, 51
1, 345577, Note_on_c, 0, 59, 66
1, 345583, Note_off_c, 0, 83, 65
1, 345617, Note_off_c, 0, 54, 64
1, 345621, Note_off_c, 0, 75, 60
1, 345631, Note_off_c, 0, 87, 64
1, 345675, Note_off_c, 0, 59, 48
1, 345720, Note_on_c, 0, 89, 89
1, 345723, Note_on_c, 0, 85, 86
1, 345723, Note_on_c, 0, 54, 80
1, 345725, Note_on_c, 0, 77, 84
1, 345727, Note_on_c, 0, 66, 62
1, 345747, Note_off_c, 0, 66, 63
1, 345763, Note_off_c, 0, 54, 62
1, 345768, Note_off_c, 0, 77, 60
1, 345791, Note_off_c, 0, 89, 61
1, 345815, Note_off_c, 0, 85, 62
1, 345903, Control_c, 0, 64, 88
1, 345917, Control_c, 0, 64, 66
1, 345924, Note_on_c, 0, 53, 82
1, 345925, Note_on_c, 0, 87, 76
1, 345931, Note_on_c, 0, 41, 74
1, 345932, Note_on_c, 0, 75, 78
1, 345932, Control_c, 0, 64, 0
1, 345934, Note_on_c, 0, 83, 62
1, 345961, Control_c, 0, 64, 62
1, 345976, Control_c, 0, 64, 75
1, 345980, Note_off_c, 0, 83, 65
1, 345991, Note_off_c, 0, 41, 61
1, 345991, Control_c, 0, 64, 93
1, 346000, Note_off_c, 0, 53, 62
1, 346006, Note_off_c, 0, 75, 63
1, 346006, Control_c, 0, 64, 127
1, 346009, Note_off_c, 0, 87, 66
1, 346107, Note_on_c, 0, 73, 87
1, 346107, Note_on_c, 0, 85, 83
1, 346110, Note_on_c, 0, 82, 63
1, 346116, Note_on_c, 0, 59, 74
1, 346130, Note_off_c, 0, 82, 64
1, 346144, Note_off_c, 0, 59, 65
1, 346174, Note_off_c, 0, 85, 63
1, 346176, Note_off_c, 0, 73, 58
1, 346224, Note_on_c, 0, 82, 38
1, 346254, Note_off_c, 0, 82, 58
1, 346266, Note_on_c, 0, 65, 80
1, 346268, Note_on_c, 0, 84, 85
1, 346268, Note_on_c, 0, 81, 81
1, 346273, Note_on_c, 0, 72, 87
1, 346303, Note_off_c, 0, 65, 56
1, 346319, Note_off_c, 0, 81, 64
1, 346323, Note_off_c, 0, 72, 59
1, 346338, Note_off_c, 0, 84, 65
1, 346426, Note_on_c, 0, 80, 83
1, 346426, Note_on_c, 0, 68, 86
1, 346427, Note_on_c, 0, 83, 93
1, 346429, Note_on_c, 0, 71, 88
1, 346446, Note_on_c, 0, 61, 58
1, 346477, Note_off_c, 0, 61, 64
1, 346477, Note_on_c, 0, 56, 17
1, 346481, Note_off_c, 0, 68, 54
1, 346521, Note_off_c, 0, 56, 55
1, 346522, Note_off_c, 0, 71, 61
1, 346530, Note_off_c, 0, 83, 62
1, 346542, Note_off_c, 0, 80, 62
1, 346578, Note_on_c, 0, 65, 71
1, 346578, Note_on_c, 0, 59, 47
1, 346584, Note_on_c, 0, 56, 91
1, 346587, Note_on_c, 0, 61, 38
1, 346599, Note_off_c, 0, 65, 68
1, 346601, Note_off_c, 0, 59, 64
1, 346616, Note_off_c, 0, 61, 54
1, 346626, Note_off_c, 0, 56, 67
1, 346738, Note_on_c, 0, 80, 90
1, 346742, Note_on_c, 0, 68, 91
1, 346745, Note_on_c, 0, 49, 97
1, 346754, Note_on_c, 0, 37, 82
1, 346755, Note_on_c, 0, 77, 75
1, 346777, Note_off_c, 0, 37, 66
1, 346779, Note_off_c, 0, 77, 67
1, 346780, Note_off_c, 0, 49, 58
1, 346806, Note_off_c, 0, 68, 60
1, 346823, Note_off_c, 0, 80, 64
1, 346843, Control_c, 0, 64, 81
1, 346858, Control_c, 0, 64, 53
1, 346873, Control_c, 0, 64, 0
1, 346888, Control_c, 0, 64, 52
1, 346897, Note_on_c, 0, 70, 96
1, 346897, Note_on_c, 0, 82, 101
1, 346901, Note_on_c, 0, 78, 82
1, 346903, Control_c, 0, 64, 68
1, 346915, Note_on_c, 0, 42, 74
1, 346915, Note_on_c, 0, 53, 79
1, 346918, Control_c, 0, 64, 83
1, 346925, Note_on_c, 0, 52, 62
1, 346933, Control_c, 0, 64, 127
1, 346936, Note_off_c, 0, 53, 69
1, 346947, Note_off_c, 0, 42, 63
1, 346951, Note_off_c, 0, 52, 59
1, 346965, Note_off_c, 0, 70, 60
1, 346968, Note_off_c, 0, 78, 61
1, 346989, Poly_aftertouch_c, 0, 54, 127
1, 346992, Note_off_c, 0, 82, 66
1, 347003, Poly_aftertouch_c, 0, 54, 0
1, 347055, Note_on_c, 0, 61, 95
1, 347076, Note_on_c, 0, 49, 56
1, 347097, Note_off_c, 0, 61, 63
1, 347103, Note_off_c, 0, 49, 58
1, 347111, Note_on_c, 0, 73, 33
1, 347147, Note_off_c, 0, 73, 53
1, 347205, Note_on_c, 0, 73, 98
1, 347206, Note_on_c, 0, 66, 91
1, 347207, Note_on_c, 0, 85, 93
1, 347211, Note_on_c, 0, 54, 83
1, 347213, Note_on_c, 0, 58, 59
1, 347219, Note_on_c, 0, 82, 81
1, 347237, Note_off_c, 0, 66, 62
1, 347239, Note_off_c, 0, 58, 66
1, 347251, Note_off_c, 0, 73, 64
1, 347264, Note_off_c, 0, 54, 66
1, 347272, Note_off_c, 0, 82, 59
1, 347294, Note_off_c, 0, 85, 65
1, 347326, Control_c, 0, 64, 102
1, 347341, Control_c, 0, 64, 71
1, 347356, Control_c, 0, 64, 0
1, 347375, Note_on_c, 0, 78, 101
1, 347376, Note_on_c, 0, 82, 94
1, 347377, Note_on_c, 0, 51, 100
1, 347377, Note_on_c, 0, 90, 102
1, 347386, Control_c, 0, 64, 56
1, 347392, Note_on_c, 0, 39, 74
1, 347401, Control_c, 0, 64, 76
1, 347415, Control_c, 0, 64, 108
1, 347416, Note_off_c, 0, 39, 64
1, 347420, Note_off_c, 0, 51, 63
1, 347430, Control_c, 0, 64, 127
1, 347494, Note_off_c, 0, 82, 60
1, 347505, Note_off_c, 0, 78, 58
1, 347513, Note_off_c, 0, 90, 64
1, 347531, Note_on_c, 0, 63, 82
1, 347538, Note_on_c, 0, 54, 81
1, 347606, Note_off_c, 0, 63, 58
1, 347609, Note_off_c, 0, 54, 58
1, 347681, Note_on_c, 0, 85, 98
1, 347684, Note_on_c, 0, 66, 87
1, 347684, Note_on_c, 0, 89, 94
1, 347685, Note_on_c, 0, 77, 94
1, 347686, Note_on_c, 0, 58, 84
1, 347721, Note_off_c, 0, 66, 62
1, 347734, Note_off_c, 0, 58, 64
1, 347741, Poly_aftertouch_c, 0, 63, 127
1, 347759, Note_off_c, 0, 77, 55
1, 347761, Note_off_c, 0, 85, 62
1, 347775, Note_off_c, 0, 89, 62
1, 347776, Poly_aftertouch_c, 0, 63, 0
1, 347799, Control_c, 0, 64, 117
1, 347814, Control_c, 0, 64, 78
1, 347829, Control_c, 0, 64, 51
1, 347844, Control_c, 0, 64, 17
1, 347851, Note_on_c, 0, 77, 95
1, 347851, Note_on_c, 0, 85, 97
1, 347851, Note_on_c, 0, 89, 93
1, 347852, Note_on_c, 0, 56, 103
1, 347859, Control_c, 0, 64, 62
1, 347862, Note_on_c, 0, 44, 84
1, 347873, Control_c, 0, 64, 74
1, 347883, Note_off_c, 0, 44, 68
1, 347888, Control_c, 0, 64, 92
1, 347889, Note_off_c, 0, 77, 63
1, 347890, Note_off_c, 0, 56, 67
1, 347894, Note_off_c, 0, 89, 63
1, 347903, Control_c, 0, 64, 127
1, 347931, Note_off_c, 0, 85, 63
1, 348008, Note_on_c, 0, 51, 75
1, 348009, Note_on_c, 0, 59, 77
1, 348014, Note_on_c, 0, 75, 94
1, 348014, Note_on_c, 0, 87, 95
1, 348015, Note_on_c, 0, 83, 79
1, 348072, Note_off_c, 0, 83, 65
1, 348084, Note_off_c, 0, 51, 63
1, 348093, Note_off_c, 0, 75, 63
1, 348111, Note_off_c, 0, 87, 63
1, 348131, Note_off_c, 0, 59, 38
1, 348182, Note_on_c, 0, 66, 81
1, 348185, Note_on_c, 0, 56, 92
1, 348187, Note_on_c, 0, 73, 98
1, 348187, Note_on_c, 0, 85, 94
1, 348188, Note_on_c, 0, 82, 85
1, 348203, Note_off_c, 0, 66, 71
1, 348233, Note_off_c, 0, 56, 66
1, 348269, Note_off_c, 0, 73, 61
1, 348269, Note_off_c, 0, 82, 40
1, 348301, Note_off_c, 0, 85, 62
1, 348326, Control_c, 0, 64, 81
1, 348341, Control_c, 0, 64, 0
1, 348367, Note_on_c, 0, 87, 101
1, 348368, Note_on_c, 0, 75, 101
1, 348369, Note_on_c, 0, 49, 99
1, 348370, Note_on_c, 0, 83, 90
1, 348370, Control_c, 0, 64, 36
1, 348382, Note_on_c, 0, 37, 81
1, 348385, Control_c, 0, 64, 70
1, 348400, Control_c, 0, 64, 91
1, 348405, Note_off_c, 0, 37, 66
1, 348410, Note_off_c, 0, 49, 66
1, 348415, Control_c, 0, 64, 127
1, 348419, Note_off_c, 0, 83, 61
1, 348424, Note_on_c, 0, 85, 17
1, 348437, Note_off_c, 0, 87, 66
1, 348450, Note_off_c, 0, 75, 61
1, 348465, Note_off_c, 0, 85, 43
1, 348556, Note_on_c, 0, 59, 75
1, 348562, Note_on_c, 0, 60, 68
1, 348590, Note_off_c, 0, 60, 64
1, 348638, Note_off_c, 0, 59, 56
1, 348721, Note_on_c, 0, 65, 76
1, 348721, Note_on_c, 0, 80, 94
1, 348724, Note_on_c, 0, 68, 96
1, 348727, Note_on_c, 0, 56, 86
1, 348727, Note_on_c, 0, 77, 85
1, 348744, Note_off_c, 0, 65, 70
1, 348770, Note_off_c, 0, 56, 67
1, 348831, Note_off_c, 0, 68, 57
1, 348867, Note_off_c, 0, 77, 58
1, 348886, Note_off_c, 0, 80, 63
1, 348957, Control_c, 0, 64, 113
1, 348969, Note_on_c, 0, 82, 102
1, 348971, Control_c, 0, 64, 79
1, 348972, Note_on_c, 0, 70, 97
1, 348974, Note_on_c, 0, 78, 88
1, 348984, Note_on_c, 0, 52, 89
1, 348986, Control_c, 0, 64, 0
1, 348992, Note_on_c, 0, 40, 81
1, 349031, Control_c, 0, 64, 54
1, 349045, Control_c, 0, 64, 67
1, 349049, Note_off_c, 0, 40, 60
1, 349060, Control_c, 0, 64, 76
1, 349075, Control_c, 0, 64, 96
1, 349090, Control_c, 0, 64, 127
1, 349103, Note_off_c, 0, 52, 58
1, 349227, Note_off_c, 0, 70, 61
1, 349257, Note_on_c, 0, 61, 81
1, 349264, Note_on_c, 0, 52, 67
1, 349264, Note_off_c, 0, 82, 60
1, 349269, Note_on_c, 0, 50, 61
1, 349295, Note_off_c, 0, 78, 61
1, 349306, Note_off_c, 0, 50, 59
1, 349331, Note_off_c, 0, 52, 57
1, 349331, Note_off_c, 0, 61, 59
1, 349425, Note_on_c, 0, 66, 89
1, 349428, Note_on_c, 0, 54, 77
1, 349430, Note_on_c, 0, 61, 83
1, 349489, Note_off_c, 0, 66, 59
1, 349514, Note_off_c, 0, 61, 58
1, 349514, Note_off_c, 0, 54, 64
1, 349557, Control_c, 0, 64, 85
1, 349572, Control_c, 0, 64, 63
1, 349582, Note_on_c, 0, 79, 79
1, 349586, Note_on_c, 0, 85, 98
1, 349587, Control_c, 0, 64, 0
1, 349588, Note_on_c, 0, 73, 103
1, 349594, Note_on_c, 0, 52, 85
1, 349596, Note_on_c, 0, 61, 82
1, 349616, Control_c, 0, 64, 41
1, 349631, Control_c, 0, 64, 68
1, 349646, Control_c, 0, 64, 84
1, 349656, Note_off_c, 0, 52, 61
1, 349661, Control_c, 0, 64, 116
1, 349675, Control_c, 0, 64, 127
1, 349700, Note_off_c, 0, 61, 57
1, 349753, Note_on_c, 0, 57, 84
1, 349754, Note_on_c, 0, 67, 89
1, 349802, Note_off_c, 0, 67, 59
1, 349836, Note_off_c, 0, 57, 52
1, 349899, Control_c, 0, 64, 123
1, 349914, Control_c, 0, 64, 75
1, 349921, Note_on_c, 0, 57, 69
1, 349922, Note_on_c, 0, 61, 68
1, 349924, Note_on_c, 0, 52, 90
1, 349929, Control_c, 0, 64, 0
1, 349941, Note_off_c, 0, 61, 66
1, 349948, Note_off_c, 0, 57, 66
1, 349958, Control_c, 0, 64, 11
1, 349962, Note_off_c, 0, 52, 66
1, 349973, Control_c, 0, 64, 68
1, 349988, Control_c, 0, 64, 87
1, 350002, Control_c, 0, 64, 127
1, 350054, Note_off_c, 0, 85, 52
1, 350071, Note_off_c, 0, 73, 58
1, 350078, Note_on_c, 0, 51, 97
1, 350086, Note_on_c, 0, 39, 93
1, 350112, Note_off_c, 0, 39, 68
1, 350116, Note_off_c, 0, 51, 67
1, 350256, Note_on_c, 0, 61, 97
1, 350257, Note_on_c, 0, 84, 89
1, 350261, Note_on_c, 0, 72, 94
1, 350277, Note_off_c, 0, 79, 62
1, 350301, Note_off_c, 0, 61, 65
1, 350318, Note_on_c, 0, 51, 8
1, 350322, Note_off_c, 0, 84, 60
1, 350353, Note_off_c, 0, 72, 54
1, 350373, Note_off_c, 0, 51, 53
1, 350457, Note_on_c, 0, 67, 87
1, 350459, Note_on_c, 0, 55, 92
1, 350463, Note_on_c, 0, 61, 64
1, 350476, Note_off_c, 0, 67, 70
1, 350487, Note_off_c, 0, 61, 63
1, 350497, Note_off_c, 0, 55, 67
1, 350563, Poly_aftertouch_c, 0, 58, 0
1, 350593, Note_on_c, 0, 79, 91
1, 350596, Note_on_c, 0, 83, 91
1, 350597, Note_on_c, 0, 71, 91
1, 350628, Note_off_c, 0, 71, 64
1, 350630, Note_off_c, 0, 79, 65
1, 350632, Control_c, 0, 64, 93
1, 350636, Note_off_c, 0, 83, 64
1, 350647, Control_c, 0, 64, 53
1, 350662, Control_c, 0, 64, 0
1, 350678, Note_on_c, 0, 83, 86
1, 350680, Note_on_c, 0, 71, 98
1, 350683, Note_on_c, 0, 79, 91
1, 350686, Note_on_c, 0, 50, 95
1, 350692, Control_c, 0, 64, 58
1, 350695, Note_on_c, 0, 38, 80
1, 350707, Control_c, 0, 64, 74
1, 350715, Note_off_c, 0, 38, 64
1, 350722, Control_c, 0, 64, 97
1, 350727, Note_off_c, 0, 50, 68
1, 350737, Control_c, 0, 64, 127
1, 350741, Note_off_c, 0, 83, 65
1, 350758, Note_off_c, 0, 71, 62
1, 350783, Note_on_c, 0, 74, 46
1, 350817, Note_off_c, 0, 79, 58
1, 350870, Note_off_c, 0, 74, 0
1, 350870, Note_on_c, 0, 74, 22
1, 350887, Note_on_c, 0, 82, 93
1, 350889, Note_on_c, 0, 70, 91
1, 350893, Note_on_c, 0, 62, 83
1, 350898, Note_on_c, 0, 55, 74
1, 350903, Note_on_c, 0, 50, 69
1, 350930, Note_on_c, 0, 52, 52
1, 350942, Note_off_c, 0, 62, 61
1, 350960, Note_off_c, 0, 52, 59
1, 350974, Note_off_c, 0, 50, 65
1, 350982, Note_off_c, 0, 70, 62
1, 350996, Note_off_c, 0, 55, 64
1, 350999, Note_off_c, 0, 74, 54
1, 351003, Note_off_c, 0, 82, 62
1, 351083, Note_on_c, 0, 81, 88
1, 351085, Note_on_c, 0, 69, 97
1, 351085, Note_on_c, 0, 60, 81
1, 351088, Note_on_c, 0, 50, 81
1, 351090, Note_on_c, 0, 78, 95
1, 351091, Note_on_c, 0, 54, 82
1, 351107, Note_off_c, 0, 60, 71
1, 351130, Note_off_c, 0, 54, 64
1, 351139, Note_off_c, 0, 50, 66
1, 351153, Note_off_c, 0, 81, 61
1, 351175, Note_off_c, 0, 69, 59
1, 351227, Note_off_c, 0, 78, 64
1, 351234, Control_c, 0, 64, 77
1, 351248, Control_c, 0, 64, 0
1, 351278, Control_c, 0, 64, 58
1, 351283, Note_on_c, 0, 49, 102
1, 351284, Note_on_c, 0, 82, 90
1, 351285, Note_on_c, 0, 70, 93
1, 351287, Note_on_c, 0, 73, 85
1, 351293, Control_c, 0, 64, 81
1, 351295, Note_on_c, 0, 37, 81
1, 351308, Control_c, 0, 64, 127
1, 351309, Note_off_c, 0, 73, 69
1, 351317, Note_off_c, 0, 37, 67
1, 351321, Note_off_c, 0, 49, 58
1, 351325, Note_off_c, 0, 70, 66
1, 351344, Note_off_c, 0, 82, 65
1, 351446, Note_on_c, 0, 78, 13
1, 351482, Poly_aftertouch_c, 0, 73, 127
1, 351494, Poly_aftertouch_c, 0, 73, 0
1, 351497, Note_off_c, 0, 78, 0
1, 351497, Note_on_c, 0, 78, 48
1, 351506, Note_on_c, 0, 61, 94
1, 351506, Note_on_c, 0, 73, 72
1, 351506, Note_on_c, 0, 49, 87
1, 351506, Note_on_c, 0, 85, 95
1, 351513, Note_on_c, 0, 58, 86
1, 351554, Note_off_c, 0, 73, 63
1, 351554, Note_off_c, 0, 78, 62
1, 351559, Note_on_c, 0, 51, 17
1, 351569, Note_off_c, 0, 85, 64
1, 351583, Note_off_c, 0, 49, 59
1, 351605, Note_off_c, 0, 51, 50
1, 351613, Note_off_c, 0, 61, 59
1, 351670, Note_off_c, 0, 58, 63
1, 351713, Note_on_c, 0, 54, 59
1, 351728, Note_on_c, 0, 58, 75
1, 351757, Note_on_c, 0, 66, 95
1, 351778, Note_on_c, 0, 82, 98
1, 351782, Note_on_c, 0, 78, 100
1, 351782, Note_on_c, 0, 90, 96
1, 351785, Note_off_c, 0, 66, 65
1, 351801, Note_off_c, 0, 54, 65
1, 351801, Note_off_c, 0, 58, 63
1, 351891, Note_off_c, 0, 82, 60
1, 351979, Note_off_c, 0, 90, 53
1, 352026, Note_off_c, 0, 78, 52
1, 352101, Control_c, 0, 64, 74
1, 352115, Control_c, 0, 64, 0
1, 352132, Note_on_c, 0, 82, 92
1, 352133, Note_on_c, 0, 78, 98
1, 352136, Note_on_c, 0, 90, 98
1, 352143, Note_on_c, 0, 48, 98
1, 352148, Note_on_c, 0, 36, 91
1, 352159, Control_c, 0, 64, 69
1, 352174, Control_c, 0, 64, 95
1, 352189, Note_off_c, 0, 78, 64
1, 352189, Note_off_c, 0, 90, 65
1, 352189, Control_c, 0, 64, 127
1, 352190, Note_off_c, 0, 36, 62
1, 352200, Note_off_c, 0, 82, 63
1, 352217, Note_off_c, 0, 48, 62
1, 353010, Note_on_c, 0, 68, 98
1, 353109, Note_off_c, 0, 68, 62
1, 353182, Note_on_c, 0, 63, 88
1, 353184, Note_on_c, 0, 56, 88
1, 353184, Note_on_c, 0, 66, 91
1, 353187, Note_on_c, 0, 68, 92
1, 353219, Control_c, 0, 64, 96
1, 353234, Control_c, 0, 64, 76
1, 353249, Control_c, 0, 64, 63
1, 353264, Control_c, 0, 64, 56
1, 353279, Control_c, 0, 64, 65
1, 353300, Control_c, 0, 64, 76
1, 353315, Control_c, 0, 64, 91
1, 353330, Control_c, 0, 64, 127
1, 353340, Note_off_c, 0, 68, 59
1, 353344, Note_on_c, 0, 70, 57
1, 353418, Note_off_c, 0, 70, 62
1, 353442, Note_on_c, 0, 68, 67
1, 353463, Note_off_c, 0, 56, 56
1, 353467, Note_off_c, 0, 66, 56
1, 353474, Note_off_c, 0, 68, 57
1, 353485, Note_on_c, 0, 70, 66
1, 353485, Note_off_c, 0, 63, 37
1, 353547, Note_off_c, 0, 70, 62
1, 353562, Note_on_c, 0, 68, 75
1, 353606, Note_on_c, 0, 70, 68
1, 353607, Note_off_c, 0, 68, 61
1, 353658, Note_off_c, 0, 70, 62
1, 353678, Note_on_c, 0, 68, 74
1, 353712, Note_off_c, 0, 68, 60
1, 353715, Note_on_c, 0, 70, 74
1, 353767, Note_off_c, 0, 70, 62
1, 353770, Note_on_c, 0, 68, 74
1, 353795, Note_on_c, 0, 70, 55
1, 353799, Note_off_c, 0, 68, 62
1, 353846, Note_on_c, 0, 68, 74
1, 353852, Note_off_c, 0, 70, 63
1, 353902, Note_on_c, 0, 67, 76
1, 353905, Note_off_c, 0, 68, 59
1, 353926, Note_off_c, 0, 67, 67
1, 353954, Control_c, 0, 64, 72
1, 353968, Control_c, 0, 64, 0
1, 353979, Note_on_c, 0, 68, 94
1, 353980, Note_on_c, 0, 44, 106
1, 353982, Note_on_c, 0, 60, 93
1, 353986, Note_on_c, 0, 66, 77
1, 353989, Note_on_c, 0, 32, 85
1, 353992, Note_on_c, 0, 62, 76
1, 353998, Control_c, 0, 64, 47
1, 354008, Note_off_c, 0, 60, 67
1, 354009, Note_off_c, 0, 62, 67
1, 354011, Note_off_c, 0, 32, 67
1, 354011, Note_off_c, 0, 66, 67
1, 354013, Control_c, 0, 64, 84
1, 354016, Note_off_c, 0, 44, 62
1, 354022, Note_off_c, 0, 68, 66
1, 354028, Control_c, 0, 64, 127
1, 354178, Poly_aftertouch_c, 0, 32, 0
1, 354287, Note_on_c, 0, 72, 79
1, 354288, Note_on_c, 0, 66, 91
1, 354288, Note_on_c, 0, 77, 94
1, 354290, Note_on_c, 0, 65, 85
1, 354291, Note_on_c, 0, 56, 79
1, 354297, Note_on_c, 0, 54, 73
1, 354300, Note_on_c, 0, 60, 69
1, 354487, Note_off_c, 0, 77, 60
1, 354489, Note_off_c, 0, 65, 59
1, 354496, Note_off_c, 0, 66, 52
1, 354513, Note_off_c, 0, 72, 59
1, 354541, Note_off_c, 0, 56, 59
1, 354598, Note_on_c, 0, 63, 88
1, 354600, Note_on_c, 0, 56, 77
1, 354600, Note_on_c, 0, 66, 96
1, 354600, Note_on_c, 0, 78, 101
1, 354612, Note_on_c, 0, 72, 73
1, 354619, Note_off_c, 0, 63, 69
1, 354622, Note_off_c, 0, 60, 65
1, 354632, Note_off_c, 0, 72, 71
1, 354636, Note_off_c, 0, 54, 64
1, 354638, Note_off_c, 0, 56, 67
1, 354734, Note_off_c, 0, 66, 56
1, 354739, Note_off_c, 0, 78, 50
1, 354918, Control_c, 0, 64, 103
1, 354933, Control_c, 0, 64, 62
1, 354948, Control_c, 0, 64, 0
1, 354953, Note_on_c, 0, 68, 98
1, 354956, Note_on_c, 0, 78, 88
1, 354956, Note_on_c, 0, 80, 93
1, 354958, Note_on_c, 0, 75, 81
1, 354960, Note_on_c, 0, 49, 103
1, 354961, Note_on_c, 0, 71, 81
1, 354968, Note_on_c, 0, 37, 87
1, 354993, Control_c, 0, 64, 75
1, 354996, Note_off_c, 0, 37, 68
1, 355002, Note_off_c, 0, 71, 63
1, 355007, Control_c, 0, 64, 111
1, 355014, Note_off_c, 0, 49, 65
1, 355022, Note_off_c, 0, 75, 61
1, 355022, Control_c, 0, 64, 127
1, 355025, Note_off_c, 0, 68, 63
1, 355047, Note_off_c, 0, 78, 62
1, 355060, Note_off_c, 0, 80, 62
1, 355329, Note_on_c, 0, 78, 88
1, 355330, Note_on_c, 0, 87, 97
1, 355335, Note_on_c, 0, 70, 91
1, 355335, Note_on_c, 0, 75, 93
1, 355337, Note_on_c, 0, 63, 82
1, 355338, Note_on_c, 0, 59, 76
1, 355338, Note_on_c, 0, 66, 83
1, 355359, Note_off_c, 0, 59, 68
1, 355365, Note_off_c, 0, 66, 65
1, 355366, Note_off_c, 0, 70, 64
1, 355375, Note_off_c, 0, 63, 64
1, 355377, Note_off_c, 0, 87, 68
1, 355381, Note_off_c, 0, 78, 65
1, 355393, Note_off_c, 0, 75, 63
1, 355786, Control_c, 0, 64, 83
1, 355795, Note_on_c, 0, 49, 83
1, 355795, Note_on_c, 0, 77, 93
1, 355796, Note_on_c, 0, 65, 94
1, 355797, Note_on_c, 0, 73, 82
1, 355798, Note_on_c, 0, 61, 88
1, 355798, Note_on_c, 0, 71, 77
1, 355799, Note_on_c, 0, 56, 77
1, 355801, Control_c, 0, 64, 49
1, 355815, Control_c, 0, 64, 0
1, 355840, Note_off_c, 0, 61, 66
1, 355843, Note_off_c, 0, 49, 67
1, 355845, Control_c, 0, 64, 66
1, 355846, Note_off_c, 0, 56, 66
1, 355859, Control_c, 0, 64, 87
1, 355874, Control_c, 0, 64, 127
1, 355933, Note_off_c, 0, 77, 60
1, 355983, Note_off_c, 0, 71, 63
1, 355998, Note_off_c, 0, 65, 58
1, 356353, Note_off_c, 0, 73, 60
1, 356419, Note_on_c, 0, 70, 88
1, 356420, Note_on_c, 0, 78, 92
1, 356422, Note_on_c, 0, 66, 95
1, 356441, Note_on_c, 0, 30, 83
1, 356442, Note_on_c, 0, 42, 87
1, 356460, Control_c, 0, 64, 119
1, 356475, Control_c, 0, 64, 84
1, 356489, Control_c, 0, 64, 59
1, 356504, Control_c, 0, 64, 0
1, 356534, Control_c, 0, 64, 58
1, 356549, Control_c, 0, 64, 71
1, 356563, Control_c, 0, 64, 82
1, 356573, Note_off_c, 0, 30, 60
1, 356578, Control_c, 0, 64, 95
1, 356593, Control_c, 0, 64, 110
1, 356609, Control_c, 0, 64, 127
1, 356660, Note_off_c, 0, 42, 60
1, 357010, Note_off_c, 0, 70, 23
1, 357078, Note_on_c, 0, 49, 83
1, 357144, Note_off_c, 0, 78, 33
1, 357151, Note_off_c, 0, 66, 25
1, 357339, Note_on_c, 0, 54, 73
1, 357342, Note_on_c, 0, 61, 77
1, 357460, Note_off_c, 0, 61, 59
1, 357465, Note_off_c, 0, 54, 61
1, 357546, Note_on_c, 0, 54, 63
1, 357547, Note_on_c, 0, 61, 65
1, 357566, Note_on_c, 0, 78, 92
1, 357580, Note_on_c, 0, 66, 76
1, 357593, Note_on_c, 0, 70, 52
1, 357676, Note_off_c, 0, 70, 58
1, 357700, Note_off_c, 0, 49, 50
1, 357765, Note_off_c, 0, 66, 53
1, 357777, Note_off_c, 0, 61, 55
1, 357817, Note_on_c, 0, 49, 82
1, 357818, Note_on_c, 0, 71, 84
1, 357827, Note_off_c, 0, 54, 64
1, 357872, Note_off_c, 0, 49, 64
1, 357889, Note_off_c, 0, 78, 60
1, 358070, Note_on_c, 0, 72, 83
1, 358096, Note_on_c, 0, 42, 78
1, 358096, Note_off_c, 0, 71, 63
1, 358177, Note_off_c, 0, 72, 63
1, 358231, Note_off_c, 0, 42, 52
1, 358391, Note_on_c, 0, 30, 78
1, 358391, Note_on_c, 0, 42, 77
1, 358403, Control_c, 0, 64, 94
1, 358418, Control_c, 0, 64, 77
1, 358430, Note_on_c, 0, 78, 91
1, 358433, Control_c, 0, 64, 64
1, 358445, Note_on_c, 0, 68, 69
1, 358448, Control_c, 0, 64, 43
1, 358463, Control_c, 0, 64, 50
1, 358475, Note_on_c, 0, 73, 28
1, 358478, Control_c, 0, 64, 63
1, 358493, Control_c, 0, 64, 69
1, 358507, Control_c, 0, 64, 73
1, 358515, Note_off_c, 0, 30, 61
1, 358517, Note_off_c, 0, 73, 48
1, 358522, Control_c, 0, 64, 78
1, 358544, Control_c, 0, 64, 84
1, 358559, Control_c, 0, 64, 92
1, 358573, Control_c, 0, 64, 102
1, 358588, Control_c, 0, 64, 127
1, 358589, Note_off_c, 0, 42, 61
1, 358745, Note_off_c, 0, 78, 58
1, 358765, Note_off_c, 0, 68, 58
1, 358782, Note_on_c, 0, 77, 90
1, 358794, Note_on_c, 0, 73, 78
1, 358801, Note_on_c, 0, 49, 65
1, 358943, Note_off_c, 0, 77, 58
1, 358993, Note_off_c, 0, 73, 57
1, 359008, Note_on_c, 0, 56, 68
1, 359009, Note_on_c, 0, 61, 72
1, 359017, Note_on_c, 0, 66, 76
1, 359085, Note_off_c, 0, 66, 58
1, 359101, Note_on_c, 0, 73, 85
1, 359107, Note_off_c, 0, 56, 58
1, 359119, Note_off_c, 0, 61, 57
1, 359149, Note_off_c, 0, 73, 62
1, 359221, Note_on_c, 0, 73, 85
1, 359226, Note_on_c, 0, 56, 59
1, 359235, Note_on_c, 0, 61, 60
1, 359244, Note_on_c, 0, 68, 63
1, 359247, Note_on_c, 0, 66, 64
1, 359269, Control_c, 0, 64, 103
1, 359292, Control_c, 0, 64, 86
1, 359306, Control_c, 0, 64, 73
1, 359321, Control_c, 0, 64, 63
1, 359336, Control_c, 0, 64, 55
1, 359351, Control_c, 0, 64, 62
1, 359366, Control_c, 0, 64, 67
1, 359381, Control_c, 0, 64, 71
1, 359395, Control_c, 0, 64, 75
1, 359408, Note_off_c, 0, 49, 36
1, 359410, Control_c, 0, 64, 79
1, 359425, Control_c, 0, 64, 82
1, 359440, Control_c, 0, 64, 87
1, 359455, Control_c, 0, 64, 91
1, 359469, Note_off_c, 0, 61, 32
1, 359469, Control_c, 0, 64, 97
1, 359484, Control_c, 0, 64, 103
1, 359499, Control_c, 0, 64, 109
1, 359513, Control_c, 0, 64, 115
1, 359528, Control_c, 0, 64, 127
1, 359570, Note_off_c, 0, 56, 61
1, 359576, Note_off_c, 0, 66, 21
1, 359588, Note_on_c, 0, 49, 64
1, 359646, Note_off_c, 0, 49, 61
1, 359656, Note_on_c, 0, 65, 79
1, 359694, Note_off_c, 0, 73, 57
1, 359739, Note_off_c, 0, 68, 52
1, 359881, Note_on_c, 0, 42, 72
1, 359987, Note_off_c, 0, 65, 62
1, 359989, Note_on_c, 0, 61, 82
1, 360009, Note_off_c, 0, 42, 35
1, 360085, Note_off_c, 0, 61, 61
1, 360238, Note_on_c, 0, 76, 87
1, 360260, Note_on_c, 0, 68, 61
1, 360263, Note_on_c, 0, 64, 64
1, 360263, Control_c, 0, 64, 98
1, 360269, Note_on_c, 0, 30, 57
1, 360271, Note_on_c, 0, 42, 56
1, 360278, Control_c, 0, 64, 80
1, 360293, Control_c, 0, 64, 65
1, 360308, Control_c, 0, 64, 40
1, 360323, Control_c, 0, 64, 38
1, 360328, Note_off_c, 0, 30, 60
1, 360337, Control_c, 0, 64, 59
1, 360352, Control_c, 0, 64, 66
1, 360367, Control_c, 0, 64, 70
1, 360382, Control_c, 0, 64, 74
1, 360397, Note_off_c, 0, 42, 62
1, 360397, Control_c, 0, 64, 79
1, 360411, Control_c, 0, 64, 84
1, 360426, Control_c, 0, 64, 90
1, 360441, Control_c, 0, 64, 99
1, 360456, Control_c, 0, 64, 110
1, 360466, Note_off_c, 0, 68, 39
1, 360470, Control_c, 0, 64, 127
1, 360634, Note_on_c, 0, 70, 83
1, 360655, Note_on_c, 0, 49, 61
1, 360701, Note_off_c, 0, 64, 56
1, 360712, Note_off_c, 0, 76, 56
1, 360855, Note_on_c, 0, 71, 89
1, 360859, Note_on_c, 0, 56, 62
1, 360869, Note_on_c, 0, 61, 62
1, 360882, Note_on_c, 0, 64, 55
1, 360884, Note_off_c, 0, 70, 63
1, 360920, Note_off_c, 0, 64, 48
1, 360931, Note_off_c, 0, 61, 55
1, 361021, Note_off_c, 0, 56, 34
1, 361048, Note_on_c, 0, 54, 68
1, 361050, Note_on_c, 0, 61, 63
1, 361084, Note_on_c, 0, 76, 92
1, 361093, Note_on_c, 0, 70, 65
1, 361101, Control_c, 0, 64, 121
1, 361110, Note_on_c, 0, 64, 62
1, 361113, Note_off_c, 0, 71, 59
1, 361116, Control_c, 0, 64, 96
1, 361131, Control_c, 0, 64, 82
1, 361132, Note_off_c, 0, 49, 49
1, 361146, Control_c, 0, 64, 70
1, 361160, Control_c, 0, 64, 63
1, 361172, Note_off_c, 0, 70, 52
1, 361175, Control_c, 0, 64, 62
1, 361190, Control_c, 0, 64, 65
1, 361205, Control_c, 0, 64, 70
1, 361220, Control_c, 0, 64, 75
1, 361234, Control_c, 0, 64, 78
1, 361241, Note_off_c, 0, 61, 56
1, 361249, Control_c, 0, 64, 82
1, 361264, Control_c, 0, 64, 85
1, 361278, Control_c, 0, 64, 90
1, 361293, Control_c, 0, 64, 97
1, 361296, Note_off_c, 0, 54, 64
1, 361301, Note_on_c, 0, 49, 71
1, 361301, Note_on_c, 0, 75, 91
1, 361308, Control_c, 0, 64, 105
1, 361323, Control_c, 0, 64, 112
1, 361333, Note_off_c, 0, 76, 62
1, 361338, Note_off_c, 0, 49, 66
1, 361338, Control_c, 0, 64, 122
1, 361352, Control_c, 0, 64, 127
1, 361396, Note_off_c, 0, 64, 50
1, 361494, Note_on_c, 0, 73, 87
1, 361517, Note_on_c, 0, 68, 75
1, 361519, Note_on_c, 0, 42, 76
1, 361555, Note_off_c, 0, 75, 63
1, 361587, Note_off_c, 0, 68, 59
1, 361610, Note_off_c, 0, 42, 59
1, 361625, Note_off_c, 0, 73, 64
1, 361687, Control_c, 0, 64, 93
1, 361701, Note_on_c, 0, 42, 81
1, 361702, Control_c, 0, 64, 75
1, 361706, Note_on_c, 0, 30, 71
1, 361717, Control_c, 0, 64, 62
1, 361721, Note_on_c, 0, 76, 88
1, 361729, Note_on_c, 0, 66, 78
1, 361732, Control_c, 0, 64, 54
1, 361735, Note_on_c, 0, 73, 74
1, 361745, Note_off_c, 0, 30, 65
1, 361747, Control_c, 0, 64, 62
1, 361762, Control_c, 0, 64, 70
1, 361777, Note_off_c, 0, 42, 64
1, 361777, Control_c, 0, 64, 78
1, 361791, Control_c, 0, 64, 88
1, 361806, Control_c, 0, 64, 99
1, 361821, Control_c, 0, 64, 112
1, 361836, Control_c, 0, 64, 127
1, 361841, Note_off_c, 0, 73, 62
1, 361849, Note_off_c, 0, 66, 54
1, 361879, Note_off_c, 0, 76, 62
1, 361929, Note_on_c, 0, 75, 83
1, 361933, Note_on_c, 0, 51, 73
1, 361933, Note_on_c, 0, 71, 86
1, 362058, Note_off_c, 0, 71, 60
1, 362087, Note_off_c, 0, 75, 60
1, 362118, Note_on_c, 0, 54, 72
1, 362119, Note_on_c, 0, 59, 74
1, 362128, Note_on_c, 0, 64, 83
1, 362205, Note_off_c, 0, 54, 60
1, 362208, Note_off_c, 0, 59, 50
1, 362221, Note_on_c, 0, 71, 78
1, 362236, Note_off_c, 0, 64, 64
1, 362256, Note_off_c, 0, 71, 61
1, 362331, Note_on_c, 0, 54, 67
1, 362334, Note_on_c, 0, 59, 65
1, 362341, Note_on_c, 0, 71, 79
1, 362351, Note_on_c, 0, 64, 78
1, 362360, Note_on_c, 0, 66, 74
1, 362362, Control_c, 0, 64, 106
1, 362377, Control_c, 0, 64, 84
1, 362392, Control_c, 0, 64, 67
1, 362407, Control_c, 0, 64, 48
1, 362422, Control_c, 0, 64, 24
1, 362437, Control_c, 0, 64, 45
1, 362451, Control_c, 0, 64, 64
1, 362466, Control_c, 0, 64, 70
1, 362481, Note_off_c, 0, 51, 53
1, 362481, Control_c, 0, 64, 77
1, 362496, Control_c, 0, 64, 82
1, 362511, Control_c, 0, 64, 85
1, 362526, Control_c, 0, 64, 88
1, 362540, Control_c, 0, 64, 93
1, 362555, Control_c, 0, 64, 100
1, 362570, Control_c, 0, 64, 106
1, 362578, Note_off_c, 0, 64, 54
1, 362585, Control_c, 0, 64, 109
1, 362598, Note_off_c, 0, 59, 38
1, 362600, Control_c, 0, 64, 109
1, 362603, Note_on_c, 0, 51, 79
1, 362611, Note_off_c, 0, 54, 63
1, 362614, Control_c, 0, 64, 111
1, 362625, Note_on_c, 0, 63, 90
1, 362629, Control_c, 0, 64, 115
1, 362644, Control_c, 0, 64, 127
1, 362667, Note_off_c, 0, 51, 64
1, 362705, Note_off_c, 0, 66, 40
1, 362848, Note_on_c, 0, 42, 82
1, 362895, Note_off_c, 0, 63, 59
1, 362952, Note_on_c, 0, 59, 87
1, 363012, Note_off_c, 0, 42, 54
1, 363055, Note_on_c, 0, 30, 85
1, 363066, Control_c, 0, 64, 87
1, 363080, Control_c, 0, 64, 66
1, 363083, Note_off_c, 0, 59, 61
1, 363095, Control_c, 0, 64, 0
1, 363126, Control_c, 0, 64, 17
1, 363133, Note_on_c, 0, 42, 89
1, 363141, Control_c, 0, 64, 65
1, 363154, Note_off_c, 0, 71, 61
1, 363156, Control_c, 0, 64, 78
1, 363170, Control_c, 0, 64, 93
1, 363176, Note_on_c, 0, 59, 84
1, 363185, Control_c, 0, 64, 127
1, 363248, Note_off_c, 0, 59, 60
1, 363252, Note_off_c, 0, 30, 60
1, 363264, Note_on_c, 0, 67, 84
1, 363316, Note_off_c, 0, 42, 60
1, 363338, Note_off_c, 0, 67, 59
1, 363352, Note_on_c, 0, 74, 87
1, 363727, Note_on_c, 0, 61, 92
1, 363748, Note_on_c, 0, 50, 63
1, 363855, Note_off_c, 0, 61, 59
1, 363955, Note_on_c, 0, 62, 88
1, 363966, Note_on_c, 0, 55, 65
1, 363967, Note_on_c, 0, 59, 69
1, 364010, Note_off_c, 0, 74, 58
1, 364034, Note_off_c, 0, 59, 58
1, 364035, Note_off_c, 0, 55, 60
1, 364064, Note_off_c, 0, 62, 60
1, 364177, Note_on_c, 0, 74, 84
1, 364177, Note_on_c, 0, 62, 82
1, 364178, Note_on_c, 0, 71, 77
1, 364181, Note_on_c, 0, 55, 60
1, 364181, Note_on_c, 0, 59, 64
1, 364186, Control_c, 0, 64, 98
1, 364201, Control_c, 0, 64, 80
1, 364216, Control_c, 0, 64, 68
1, 364231, Control_c, 0, 64, 63
1, 364246, Control_c, 0, 64, 65
1, 364260, Control_c, 0, 64, 72
1, 364267, Note_off_c, 0, 50, 60
1, 364275, Control_c, 0, 64, 82
1, 364290, Control_c, 0, 64, 94
1, 364304, Control_c, 0, 64, 102
1, 364319, Control_c, 0, 64, 106
1, 364334, Control_c, 0, 64, 110
1, 364340, Note_off_c, 0, 62, 55
1, 364349, Control_c, 0, 64, 119
1, 364364, Control_c, 0, 64, 127
1, 364375, Note_off_c, 0, 59, 58
1, 364392, Note_on_c, 0, 67, 81
1, 364398, Note_on_c, 0, 50, 64
1, 364398, Note_off_c, 0, 55, 64
1, 364428, Note_off_c, 0, 74, 54
1, 364451, Note_off_c, 0, 50, 63
1, 364622, Note_on_c, 0, 59, 78
1, 364641, Note_on_c, 0, 42, 72
1, 364700, Note_off_c, 0, 67, 25
1, 364717, Note_off_c, 0, 59, 50
1, 364726, Note_off_c, 0, 42, 57
1, 364782, Note_off_c, 0, 71, 60
1, 364858, Note_on_c, 0, 42, 64
1, 364866, Note_on_c, 0, 30, 68
1, 364890, Control_c, 0, 64, 107
1, 364905, Control_c, 0, 64, 86
1, 364914, Note_on_c, 0, 74, 64
1, 364918, Note_on_c, 0, 71, 71
1, 364920, Control_c, 0, 64, 71
1, 364934, Note_on_c, 0, 62, 65
1, 364935, Control_c, 0, 64, 62
1, 364949, Control_c, 0, 64, 63
1, 364961, Note_off_c, 0, 30, 61
1, 364961, Note_off_c, 0, 74, 57
1, 364964, Control_c, 0, 64, 69
1, 364979, Control_c, 0, 64, 77
1, 364994, Control_c, 0, 64, 86
1, 365009, Control_c, 0, 64, 95
1, 365024, Control_c, 0, 64, 102
1, 365030, Note_off_c, 0, 42, 63
1, 365039, Control_c, 0, 64, 110
1, 365052, Note_off_c, 0, 62, 54
1, 365053, Control_c, 0, 64, 127
1, 365261, Note_on_c, 0, 70, 77
1, 365281, Note_on_c, 0, 61, 59
1, 365298, Note_off_c, 0, 71, 62
1, 365318, Note_on_c, 0, 50, 49
1, 365342, Control_c, 0, 67, 8
1, 365357, Note_off_c, 0, 61, 57
1, 365357, Control_c, 0, 67, 8
1, 365387, Control_c, 0, 67, 9
1, 365416, Control_c, 0, 67, 9
1, 365431, Control_c, 0, 67, 10
1, 365446, Control_c, 0, 67, 10
1, 365460, Control_c, 0, 67, 11
1, 365475, Control_c, 0, 67, 12
1, 365490, Control_c, 0, 67, 12
1, 365499, Note_on_c, 0, 71, 75
1, 365506, Control_c, 0, 67, 13
1, 365513, Note_on_c, 0, 55, 52
1, 365515, Note_on_c, 0, 62, 54
1, 365521, Control_c, 0, 67, 13
1, 365529, Note_off_c, 0, 70, 62
1, 365536, Control_c, 0, 67, 14
1, 365565, Control_c, 0, 67, 14
1, 365567, Note_off_c, 0, 62, 50
1, 365575, Note_off_c, 0, 71, 59
1, 365580, Control_c, 0, 67, 15
1, 365583, Note_off_c, 0, 55, 55
1, 365595, Control_c, 0, 67, 15
1, 365610, Control_c, 0, 67, 16
1, 365624, Control_c, 0, 67, 17
1, 365654, Control_c, 0, 67, 17
1, 365713, Control_c, 0, 67, 18
1, 365721, Note_on_c, 0, 55, 53
1, 365728, Control_c, 0, 64, 113
1, 365731, Note_on_c, 0, 67, 69
1, 365733, Note_on_c, 0, 62, 39
1, 365742, Control_c, 0, 64, 98
1, 365757, Control_c, 0, 64, 89
1, 365757, Control_c, 0, 67, 18
1, 365762, Note_on_c, 0, 59, 56
1, 365772, Control_c, 0, 64, 81
1, 365772, Control_c, 0, 67, 19
1, 365787, Control_c, 0, 64, 75
1, 365802, Control_c, 0, 64, 70
1, 365817, Control_c, 0, 64, 69
1, 365817, Control_c, 0, 67, 19
1, 365829, Note_off_c, 0, 59, 59
1, 365832, Control_c, 0, 64, 69
1, 365832, Control_c, 0, 67, 20
1, 365840, Note_off_c, 0, 50, 37
1, 365847, Control_c, 0, 64, 70
1, 365847, Control_c, 0, 67, 20
1, 365862, Control_c, 0, 64, 72
1, 365862, Control_c, 0, 67, 22
1, 365876, Control_c, 0, 64, 74
1, 365876, Control_c, 0, 67, 24
1, 365884, Note_off_c, 0, 62, 41
1, 365891, Control_c, 0, 64, 77
1, 365891, Control_c, 0, 67, 25
1, 365906, Control_c, 0, 64, 82
1, 365906, Control_c, 0, 67, 28
1, 365921, Control_c, 0, 64, 85
1, 365921, Control_c, 0, 67, 29
1, 365936, Control_c, 0, 64, 87
1, 365936, Control_c, 0, 67, 31
1, 365950, Control_c, 0, 64, 88
1, 365950, Control_c, 0, 67, 32
1, 365961, Note_on_c, 0, 66, 70
1, 365965, Control_c, 0, 64, 89
1, 365965, Control_c, 0, 67, 33
1, 365972, Note_on_c, 0, 50, 43
1, 365980, Control_c, 0, 64, 90
1, 365980, Control_c, 0, 67, 34
1, 365981, Note_off_c, 0, 67, 57
1, 365993, Note_on_c, 0, 57, 46
1, 365995, Control_c, 0, 64, 92
1, 365995, Control_c, 0, 67, 35
1, 366010, Control_c, 0, 64, 96
1, 366010, Control_c, 0, 67, 37
1, 366032, Control_c, 0, 64, 100
1, 366032, Control_c, 0, 67, 39
1, 366046, Control_c, 0, 64, 106
1, 366046, Control_c, 0, 67, 40
1, 366061, Note_off_c, 0, 55, 41
1, 366061, Control_c, 0, 64, 113
1, 366061, Control_c, 0, 67, 41
1, 366076, Control_c, 0, 64, 122
1, 366076, Control_c, 0, 67, 42
1, 366091, Control_c, 0, 64, 127
1, 366091, Control_c, 0, 67, 42
1, 366106, Control_c, 0, 67, 43
1, 366109, Note_off_c, 0, 57, 37
1, 366121, Control_c, 0, 67, 43
1, 366136, Control_c, 0, 67, 44
1, 366150, Control_c, 0, 67, 44
1, 366165, Control_c, 0, 67, 45
1, 366180, Control_c, 0, 67, 45
1, 366195, Control_c, 0, 67, 46
1, 366210, Control_c, 0, 67, 46
1, 366224, Control_c, 0, 64, 113
1, 366224, Control_c, 0, 67, 47
1, 366228, Note_off_c, 0, 66, 62
1, 366239, Control_c, 0, 64, 105
1, 366239, Control_c, 0, 67, 48
1, 366254, Control_c, 0, 64, 97
1, 366254, Control_c, 0, 67, 48
1, 366267, Note_on_c, 0, 59, 49
1, 366269, Control_c, 0, 64, 90
1, 366269, Control_c, 0, 67, 49
1, 366283, Control_c, 0, 64, 82
1, 366283, Control_c, 0, 67, 49
1, 366299, Control_c, 0, 64, 78
1, 366299, Control_c, 0, 67, 50
1, 366314, Control_c, 0, 64, 78
1, 366314, Control_c, 0, 67, 51
1, 366325, Note_on_c, 0, 65, 60
1, 366329, Control_c, 0, 64, 79
1, 366329, Control_c, 0, 67, 52
1, 366344, Note_off_c, 0, 59, 60
1, 366344, Control_c, 0, 64, 82
1, 366344, Control_c, 0, 67, 53
1, 366348, Note_on_c, 0, 55, 50
1, 366359, Control_c, 0, 64, 86
1, 366359, Control_c, 0, 67, 54
1, 366363, Note_off_c, 0, 50, 59
1, 366373, Control_c, 0, 64, 89
1, 366373, Control_c, 0, 67, 54
1, 366388, Control_c, 0, 64, 92
1, 366388, Control_c, 0, 67, 55
1, 366403, Control_c, 0, 64, 95
1, 366403, Control_c, 0, 67, 55
1, 366418, Control_c, 0, 64, 99
1, 366433, Control_c, 0, 64, 103
1, 366433, Control_c, 0, 67, 56
1, 366447, Control_c, 0, 64, 108
1, 366447, Control_c, 0, 67, 56
1, 366462, Control_c, 0, 64, 114
1, 366462, Control_c, 0, 67, 57
1, 366477, Control_c, 0, 64, 127
1, 366477, Control_c, 0, 67, 58
1, 366483, Note_off_c, 0, 65, 57
1, 366485, Note_off_c, 0, 55, 35
1, 366492, Control_c, 0, 67, 59
1, 366506, Control_c, 0, 67, 60
1, 366536, Control_c, 0, 67, 60
1, 366551, Control_c, 0, 67, 61
1, 366566, Control_c, 0, 67, 62
1, 366580, Control_c, 0, 67, 62
1, 366595, Control_c, 0, 67, 63
1, 366610, Control_c, 0, 67, 64
1, 366625, Control_c, 0, 67, 64
1, 366640, Control_c, 0, 67, 65
1, 366655, Control_c, 0, 67, 65
1, 366669, Control_c, 0, 67, 66
1, 366684, Control_c, 0, 67, 66
1, 366699, Control_c, 0, 67, 67
1, 366714, Control_c, 0, 64, 112
1, 366714, Control_c, 0, 67, 68
1, 366720, Note_on_c, 0, 42, 62
1, 366723, Note_on_c, 0, 30, 63
1, 366729, Control_c, 0, 64, 99
1, 366729, Control_c, 0, 67, 69
1, 366744, Control_c, 0, 64, 88
1, 366744, Control_c, 0, 67, 69
1, 366759, Control_c, 0, 64, 76
1, 366774, Note_on_c, 0, 54, 45
1, 366780, Control_c, 0, 64, 69
1, 366795, Control_c, 0, 64, 66
1, 366810, Control_c, 0, 64, 67
1, 366822, Note_off_c, 0, 54, 58
1, 366825, Control_c, 0, 64, 71
1, 366827, Note_off_c, 0, 30, 60
1, 366840, Control_c, 0, 64, 76
1, 366854, Control_c, 0, 64, 83
1, 366869, Control_c, 0, 64, 89
1, 366872, Note_on_c, 0, 66, 40
1, 366884, Control_c, 0, 64, 94
1, 366899, Control_c, 0, 64, 99
1, 366905, Note_off_c, 0, 42, 61
1, 366914, Control_c, 0, 64, 106
1, 366915, Note_off_c, 0, 66, 59
1, 366929, Control_c, 0, 64, 113
1, 366944, Control_c, 0, 64, 127
1, 366945, Note_on_c, 0, 68, 55
1, 366982, Note_off_c, 0, 68, 62
1, 366988, Control_c, 0, 67, 69
1, 367018, Control_c, 0, 67, 68
1, 367042, Note_on_c, 0, 66, 29
1, 367062, Control_c, 0, 67, 68
1, 367063, Note_on_c, 0, 68, 47
1, 367077, Control_c, 0, 67, 67
1, 367110, Note_off_c, 0, 66, 0
1, 367122, Control_c, 0, 67, 67
1, 367126, Note_on_c, 0, 66, 52
1, 367137, Control_c, 0, 67, 66
1, 367143, Note_off_c, 0, 68, 0
1, 367164, Note_on_c, 0, 50, 42
1, 367164, Note_on_c, 0, 68, 42
1, 367167, Control_c, 0, 67, 66
1, 367171, Note_off_c, 0, 66, 63
1, 367196, Control_c, 0, 67, 65
1, 367225, Note_on_c, 0, 66, 67
1, 367256, Control_c, 0, 67, 65
1, 367266, Note_off_c, 0, 66, 59
1, 367269, Note_off_c, 0, 50, 60
1, 367300, Note_on_c, 0, 58, 51
1, 367322, Note_on_c, 0, 65, 70
1, 367333, Note_off_c, 0, 68, 34
1, 367344, Control_c, 0, 67, 64
1, 367374, Control_c, 0, 67, 64
1, 367375, Note_off_c, 0, 65, 63
1, 367379, Note_on_c, 0, 66, 63
1, 367380, Note_off_c, 0, 58, 54
1, 367424, Note_off_c, 0, 66, 56
1, 367454, Note_on_c, 0, 51, 63
1, 367462, Control_c, 0, 67, 63
1, 367477, Control_c, 0, 67, 63
1, 367492, Control_c, 0, 67, 62
1, 367498, Note_on_c, 0, 67, 63
1, 367507, Control_c, 0, 64, 100
1, 367510, Note_on_c, 0, 60, 61
1, 367529, Control_c, 0, 64, 84
1, 367529, Control_c, 0, 67, 62
1, 367536, Note_off_c, 0, 67, 64
1, 367544, Control_c, 0, 64, 75
1, 367555, Note_on_c, 0, 68, 68
1, 367559, Control_c, 0, 64, 70
1, 367574, Control_c, 0, 64, 70
1, 367589, Control_c, 0, 64, 74
1, 367589, Control_c, 0, 67, 61
1, 367592, Note_off_c, 0, 60, 61
1, 367600, Note_off_c, 0, 68, 59
1, 367603, Control_c, 0, 64, 79
1, 367605, Note_on_c, 0, 70, 49
1, 367618, Control_c, 0, 64, 87
1, 367618, Control_c, 0, 67, 61
1, 367633, Control_c, 0, 64, 95
1, 367647, Control_c, 0, 64, 102
1, 367662, Control_c, 0, 64, 108
1, 367674, Note_off_c, 0, 70, 58
1, 367677, Control_c, 0, 64, 118
1, 367677, Control_c, 0, 67, 60
1, 367690, Note_on_c, 0, 68, 67
1, 367692, Control_c, 0, 64, 127
1, 367692, Control_c, 0, 67, 60
1, 367707, Control_c, 0, 67, 59
1, 367708, Note_off_c, 0, 51, 62
1, 367714, Note_on_c, 0, 70, 51
1, 367738, Note_on_c, 0, 56, 77
1, 367752, Control_c, 0, 67, 59
1, 367761, Note_off_c, 0, 68, 57
1, 367766, Control_c, 0, 67, 58
1, 367817, Note_off_c, 0, 70, 0
1, 367819, Note_on_c, 0, 68, 63
1, 367826, Control_c, 0, 67, 58
1, 367835, Note_off_c, 0, 56, 61
1, 367839, Note_on_c, 0, 70, 43
1, 367841, Note_off_c, 0, 68, 57
1, 367841, Control_c, 0, 67, 57
1, 367855, Control_c, 0, 67, 56
1, 367870, Control_c, 0, 67, 55
1, 367871, Note_off_c, 0, 70, 59
1, 367879, Note_on_c, 0, 42, 65
1, 367885, Control_c, 0, 67, 54
1, 367901, Control_c, 0, 67, 53
1, 367901, Poly_aftertouch_c, 0, 68, 0
1, 367909, Note_off_c, 0, 42, 64
1, 367915, Control_c, 0, 67, 53
1, 367919, Note_on_c, 0, 67, 62
1, 367930, Control_c, 0, 67, 50
1, 367945, Control_c, 0, 67, 48
1, 367960, Control_c, 0, 67, 45
1, 367975, Control_c, 0, 67, 43
1, 367986, Note_off_c, 0, 67, 64
1, 367989, Note_on_c, 0, 68, 70
1, 367990, Control_c, 0, 67, 41
1, 368005, Control_c, 0, 67, 40
1, 368019, Control_c, 0, 67, 40
1, 368034, Control_c, 0, 67, 38
1, 368042, Note_off_c, 0, 68, 65
1, 368049, Control_c, 0, 67, 37
1, 368064, Control_c, 0, 67, 35
1, 368078, Control_c, 0, 67, 34
1, 368093, Control_c, 0, 67, 34
1, 368108, Control_c, 0, 67, 33
1, 368109, Note_on_c, 0, 60, 72
1, 368112, Note_on_c, 0, 50, 73
1, 368123, Control_c, 0, 67, 32
1, 368137, Note_on_c, 0, 69, 71
1, 368138, Control_c, 0, 67, 31
1, 368152, Control_c, 0, 64, 108
1, 368152, Control_c, 0, 67, 29
1, 368167, Control_c, 0, 64, 88
1, 368167, Control_c, 0, 67, 28
1, 368178, Note_off_c, 0, 69, 53
1, 368182, Note_on_c, 0, 71, 68
1, 368182, Control_c, 0, 64, 74
1, 368182, Control_c, 0, 67, 27
1, 368197, Control_c, 0, 64, 67
1, 368197, Control_c, 0, 67, 26
1, 368212, Control_c, 0, 64, 66
1, 368212, Control_c, 0, 67, 26
1, 368226, Control_c, 0, 64, 70
1, 368226, Control_c, 0, 67, 24
1, 368241, Control_c, 0, 64, 77
1, 368241, Control_c, 0, 67, 21
1, 368244, Note_off_c, 0, 71, 61
1, 368256, Control_c, 0, 64, 88
1, 368256, Control_c, 0, 67, 16
1, 368272, Note_on_c, 0, 69, 34
1, 368278, Control_c, 0, 64, 101
1, 368278, Control_c, 0, 67, 9
1, 368285, Note_on_c, 0, 71, 65
1, 368293, Control_c, 0, 64, 112
1, 368293, Control_c, 0, 67, 0
1, 368302, Note_on_c, 0, 54, 79
1, 368306, Note_off_c, 0, 69, 55
1, 368308, Control_c, 0, 64, 127
1, 368327, Note_off_c, 0, 50, 61
1, 368336, Note_on_c, 0, 69, 76
1, 368336, Note_off_c, 0, 60, 40
1, 368336, Note_off_c, 0, 71, 62
1, 368386, Note_off_c, 0, 69, 55
1, 368389, Note_on_c, 0, 71, 37
1, 368454, Note_on_c, 0, 50, 51
1, 368464, Note_off_c, 0, 71, 64
1, 368467, Note_on_c, 0, 69, 83
1, 368477, Note_on_c, 0, 60, 65
1, 368517, Note_off_c, 0, 50, 63
1, 368521, Note_on_c, 0, 68, 78
1, 368541, Note_off_c, 0, 69, 49
1, 368556, Note_off_c, 0, 60, 55
1, 368603, Note_on_c, 0, 69, 81
1, 368654, Note_off_c, 0, 68, 53
1, 368699, Note_off_c, 0, 54, 57
1, 368711, Note_on_c, 0, 70, 88
1, 368722, Note_on_c, 0, 65, 71
1, 368729, Note_off_c, 0, 69, 58
1, 368731, Note_on_c, 0, 61, 83
1, 368733, Note_on_c, 0, 49, 81
1, 368738, Control_c, 0, 64, 109
1, 368753, Control_c, 0, 64, 81
1, 368768, Control_c, 0, 64, 68
1, 368779, Note_off_c, 0, 65, 63
1, 368783, Control_c, 0, 64, 58
1, 368792, Note_off_c, 0, 70, 64
1, 368798, Control_c, 0, 64, 59
1, 368813, Note_on_c, 0, 72, 69
1, 368813, Control_c, 0, 64, 65
1, 368828, Control_c, 0, 64, 72
1, 368840, Note_off_c, 0, 72, 63
1, 368842, Control_c, 0, 64, 82
1, 368851, Note_on_c, 0, 70, 65
1, 368857, Control_c, 0, 64, 96
1, 368872, Control_c, 0, 64, 109
1, 368887, Control_c, 0, 64, 127
1, 368901, Note_on_c, 0, 71, 59
1, 368905, Note_off_c, 0, 70, 0
1, 368905, Note_on_c, 0, 72, 59
1, 368915, Note_off_c, 0, 61, 59
1, 368924, Note_on_c, 0, 70, 40
1, 368946, Note_on_c, 0, 53, 72
1, 368951, Note_on_c, 0, 58, 78
1, 368951, Note_off_c, 0, 49, 62
1, 368969, Note_off_c, 0, 70, 0
1, 368987, Note_off_c, 0, 72, 56
1, 369006, Poly_aftertouch_c, 0, 70, 127
1, 369009, Note_off_c, 0, 71, 25
1, 369031, Poly_aftertouch_c, 0, 70, 0
1, 369033, Note_on_c, 0, 72, 59
1, 369081, Note_on_c, 0, 70, 77
1, 369089, Note_on_c, 0, 49, 71
1, 369119, Note_off_c, 0, 72, 63
1, 369121, Note_off_c, 0, 53, 64
1, 369134, Note_off_c, 0, 58, 63
1, 369140, Note_on_c, 0, 61, 73
1, 369168, Note_off_c, 0, 61, 65
1, 369168, Note_off_c, 0, 70, 64
1, 369175, Note_on_c, 0, 69, 86
1, 369175, Note_off_c, 0, 49, 63
1, 369239, Note_off_c, 0, 69, 65
1, 369296, Note_on_c, 0, 70, 91
1, 369442, Control_c, 0, 64, 84
1, 369454, Note_on_c, 0, 42, 87
1, 369454, Note_on_c, 0, 30, 84
1, 369457, Control_c, 0, 64, 63
1, 369472, Control_c, 0, 64, 0
1, 369503, Control_c, 0, 64, 24
1, 369517, Control_c, 0, 64, 65
1, 369528, Note_on_c, 0, 63, 70
1, 369531, Note_off_c, 0, 70, 64
1, 369532, Control_c, 0, 64, 73
1, 369547, Control_c, 0, 64, 83
1, 369562, Control_c, 0, 64, 98
1, 369577, Control_c, 0, 64, 123
1, 369591, Control_c, 0, 64, 127
1, 369595, Note_on_c, 0, 68, 75
1, 369603, Note_off_c, 0, 63, 60
1, 369639, Note_off_c, 0, 30, 54
1, 369677, Note_on_c, 0, 72, 85
1, 369677, Note_off_c, 0, 42, 57
1, 369688, Note_off_c, 0, 68, 64
1, 369717, Note_off_c, 0, 72, 66
1, 369934, Note_on_c, 0, 80, 97
1, 370097, Note_off_c, 0, 80, 40
1, 370330, Note_on_c, 0, 75, 87
1, 370343, Note_on_c, 0, 51, 69
1, 370539, Note_on_c, 0, 68, 85
1, 370545, Note_on_c, 0, 63, 76
1, 370548, Note_on_c, 0, 56, 67
1, 370550, Note_on_c, 0, 60, 67
1, 370598, Note_off_c, 0, 51, 30
1, 370610, Note_off_c, 0, 75, 31
1, 370661, Note_off_c, 0, 63, 54
1, 370664, Note_off_c, 0, 68, 55
1, 370685, Note_off_c, 0, 60, 59
1, 370689, Note_off_c, 0, 56, 59
1, 370747, Note_on_c, 0, 80, 94
1, 370755, Note_on_c, 0, 63, 81
1, 370757, Note_on_c, 0, 75, 77
1, 370759, Note_on_c, 0, 56, 73
1, 370759, Note_on_c, 0, 68, 89
1, 370762, Note_on_c, 0, 72, 76
1, 370762, Control_c, 0, 64, 88
1, 370763, Note_on_c, 0, 60, 74
1, 370777, Control_c, 0, 64, 69
1, 370792, Control_c, 0, 64, 46
1, 370807, Control_c, 0, 64, 44
1, 370813, Note_off_c, 0, 72, 51
1, 370822, Control_c, 0, 64, 63
1, 370836, Control_c, 0, 64, 72
1, 370851, Control_c, 0, 64, 82
1, 370853, Note_off_c, 0, 75, 55
1, 370865, Control_c, 0, 64, 93
1, 370880, Control_c, 0, 64, 103
1, 370895, Control_c, 0, 64, 127
1, 370913, Note_off_c, 0, 68, 56
1, 370924, Note_off_c, 0, 63, 57
1, 370950, Note_off_c, 0, 80, 58
1, 370963, Note_off_c, 0, 60, 63
1, 370965, Note_on_c, 0, 76, 85
1, 370966, Note_on_c, 0, 51, 87
1, 370975, Note_off_c, 0, 56, 64
1, 370977, Note_on_c, 0, 73, 74
1, 371007, Note_off_c, 0, 51, 67
1, 371036, Note_off_c, 0, 73, 61
1, 371177, Note_off_c, 0, 76, 58
1, 371224, Note_on_c, 0, 78, 96
1, 371227, Note_on_c, 0, 68, 91
1, 371233, Note_on_c, 0, 42, 74
1, 371240, Note_on_c, 0, 75, 44
1, 371275, Note_off_c, 0, 75, 57
1, 371353, Note_off_c, 0, 68, 56
1, 371361, Note_off_c, 0, 42, 38
1, 371399, Note_off_c, 0, 78, 58
1, 371525, Control_c, 0, 64, 108
1, 371532, Note_on_c, 0, 42, 84
1, 371537, Note_on_c, 0, 30, 80
1, 371538, Note_on_c, 0, 81, 101
1, 371539, Note_on_c, 0, 78, 80
1, 371540, Control_c, 0, 64, 81
1, 371542, Note_on_c, 0, 69, 94
1, 371550, Note_on_c, 0, 75, 66
1, 371555, Control_c, 0, 64, 64
1, 371570, Control_c, 0, 64, 0
1, 371570, Note_on_c, 0, 72, 41
1, 371584, Note_off_c, 0, 75, 52
1, 371597, Note_off_c, 0, 72, 57
1, 371599, Note_off_c, 0, 30, 62
1, 371599, Control_c, 0, 64, 64
1, 371613, Control_c, 0, 64, 72
1, 371628, Control_c, 0, 64, 79
1, 371643, Note_off_c, 0, 42, 63
1, 371643, Control_c, 0, 64, 86
1, 371658, Control_c, 0, 64, 93
1, 371673, Control_c, 0, 64, 103
1, 371688, Control_c, 0, 64, 127
1, 371740, Note_off_c, 0, 81, 62
1, 371752, Note_off_c, 0, 78, 60
1, 371846, Note_off_c, 0, 69, 60
1, 371890, Note_on_c, 0, 80, 87
1, 371895, Note_on_c, 0, 76, 79
1, 371907, Note_on_c, 0, 52, 74
1, 372067, Note_off_c, 0, 80, 61
1, 372074, Note_off_c, 0, 52, 54
1, 372099, Note_off_c, 0, 76, 61
1, 372101, Note_on_c, 0, 68, 83
1, 372101, Note_on_c, 0, 73, 80
1, 372102, Note_on_c, 0, 64, 75
1, 372104, Note_on_c, 0, 56, 74
1, 372105, Note_on_c, 0, 61, 71
1, 372162, Note_off_c, 0, 68, 62
1, 372163, Note_off_c, 0, 73, 61
1, 372163, Note_off_c, 0, 56, 61
1, 372165, Note_off_c, 0, 61, 57
1, 372181, Note_off_c, 0, 64, 56
1, 372208, Note_on_c, 0, 76, 89
1, 372250, Note_off_c, 0, 76, 63
1, 372330, Note_on_c, 0, 76, 82
1, 372337, Note_on_c, 0, 69, 78
1, 372346, Note_on_c, 0, 73, 79
1, 372347, Note_on_c, 0, 64, 61
1, 372350, Note_on_c, 0, 61, 61
1, 372358, Note_on_c, 0, 56, 60
1, 372393, Control_c, 0, 64, 106
1, 372408, Control_c, 0, 64, 87
1, 372423, Control_c, 0, 64, 72
1, 372437, Control_c, 0, 64, 60
1, 372452, Control_c, 0, 64, 14
1, 372467, Control_c, 0, 64, 21
1, 372482, Control_c, 0, 64, 53
1, 372497, Control_c, 0, 64, 64
1, 372511, Control_c, 0, 64, 67
1, 372526, Control_c, 0, 64, 70
1, 372541, Control_c, 0, 64, 73
1, 372556, Control_c, 0, 64, 77
1, 372571, Control_c, 0, 64, 82
1, 372585, Control_c, 0, 64, 88
1, 372600, Control_c, 0, 64, 93
1, 372615, Control_c, 0, 64, 98
1, 372630, Control_c, 0, 64, 101
1, 372644, Control_c, 0, 64, 106
1, 372649, Note_off_c, 0, 64, 37
1, 372659, Control_c, 0, 64, 114
1, 372668, Note_off_c, 0, 61, 59
1, 372674, Control_c, 0, 64, 127
1, 372675, Note_off_c, 0, 56, 57
1, 372684, Note_on_c, 0, 52, 62
1, 372735, Note_off_c, 0, 52, 62
1, 372747, Note_on_c, 0, 68, 80
1, 372782, Note_off_c, 0, 69, 58
1, 372991, Note_off_c, 0, 73, 39
1, 373010, Note_on_c, 0, 42, 65
1, 373070, Note_off_c, 0, 68, 54
1, 373117, Note_on_c, 0, 64, 72
1, 373139, Note_off_c, 0, 42, 37
1, 373164, Note_off_c, 0, 76, 59
1, 373203, Note_off_c, 0, 64, 58
1, 373499, Note_on_c, 0, 30, 57
1, 373502, Note_on_c, 0, 42, 56
1, 373520, Control_c, 0, 64, 100
1, 373534, Control_c, 0, 64, 84
1, 373537, Note_on_c, 0, 79, 74
1, 373549, Control_c, 0, 64, 71
1, 373551, Note_on_c, 0, 76, 58
1, 373561, Note_on_c, 0, 67, 56
1, 373564, Control_c, 0, 64, 61
1, 373564, Note_on_c, 0, 71, 47
1, 373579, Control_c, 0, 64, 52
1, 373594, Control_c, 0, 64, 57
1, 373606, Note_off_c, 0, 30, 61
1, 373609, Control_c, 0, 64, 64
1, 373624, Control_c, 0, 64, 67
1, 373638, Control_c, 0, 64, 71
1, 373653, Control_c, 0, 64, 75
1, 373657, Note_off_c, 0, 42, 62
1, 373668, Control_c, 0, 64, 80
1, 373683, Control_c, 0, 64, 85
1, 373697, Control_c, 0, 64, 91
1, 373712, Control_c, 0, 64, 96
1, 373727, Control_c, 0, 64, 100
1, 373742, Control_c, 0, 64, 104
1, 373757, Control_c, 0, 64, 108
1, 373767, Note_off_c, 0, 71, 62
1, 373771, Control_c, 0, 64, 114
1, 373776, Note_off_c, 0, 67, 56
1, 373786, Control_c, 0, 64, 127
1, 373913, Note_on_c, 0, 73, 74
1, 373924, Note_on_c, 0, 52, 62
1, 373952, Note_on_c, 0, 70, 48
1, 373990, Note_off_c, 0, 70, 48
1, 374116, Note_on_c, 0, 55, 64
1, 374116, Note_on_c, 0, 74, 77
1, 374118, Note_on_c, 0, 64, 69
1, 374123, Note_on_c, 0, 59, 63
1, 374130, Note_off_c, 0, 79, 55
1, 374131, Note_on_c, 0, 71, 68
1, 374145, Note_off_c, 0, 73, 37
1, 374159, Note_off_c, 0, 71, 63
1, 374175, Note_off_c, 0, 52, 35
1, 374192, Note_off_c, 0, 64, 57
1, 374193, Note_off_c, 0, 59, 56
1, 374205, Note_off_c, 0, 55, 59
1, 374208, Note_off_c, 0, 74, 63
1, 374212, Note_off_c, 0, 76, 38
1, 374330, Note_on_c, 0, 79, 91
1, 374330, Note_on_c, 0, 76, 86
1, 374334, Note_on_c, 0, 55, 68
1, 374337, Note_on_c, 0, 64, 71
1, 374337, Note_on_c, 0, 70, 67
1, 374339, Note_on_c, 0, 67, 85
1, 374342, Note_on_c, 0, 60, 68
1, 374342, Control_c, 0, 64, 99
1, 374357, Control_c, 0, 64, 79
1, 374366, Note_off_c, 0, 70, 67
1, 374372, Control_c, 0, 64, 64
1, 374387, Control_c, 0, 64, 57
1, 374402, Control_c, 0, 64, 64
1, 374417, Control_c, 0, 64, 71
1, 374432, Control_c, 0, 64, 79
1, 374444, Note_off_c, 0, 67, 56
1, 374446, Control_c, 0, 64, 86
1, 374461, Control_c, 0, 64, 90
1, 374476, Control_c, 0, 64, 93
1, 374491, Control_c, 0, 64, 97
1, 374503, Note_off_c, 0, 64, 61
1, 374506, Control_c, 0, 64, 105
1, 374520, Control_c, 0, 64, 124
1, 374533, Note_off_c, 0, 55, 61
1, 374533, Note_off_c, 0, 60, 63
1, 374535, Control_c, 0, 64, 127
1, 374539, Note_on_c, 0, 72, 85
1, 374540, Note_on_c, 0, 52, 77
1, 374552, Note_on_c, 0, 69, 76
1, 374560, Note_off_c, 0, 79, 61
1, 374573, Note_off_c, 0, 52, 65
1, 374576, Note_off_c, 0, 76, 57
1, 374592, Note_off_c, 0, 69, 54
1, 374732, Note_on_c, 0, 74, 84
1, 374736, Note_on_c, 0, 70, 84
1, 374745, Note_on_c, 0, 42, 77
1, 374761, Note_off_c, 0, 72, 40
1, 374817, Note_off_c, 0, 42, 59
1, 374818, Note_off_c, 0, 70, 62
1, 374852, Note_off_c, 0, 74, 60
1, 374935, Control_c, 0, 64, 106
1, 374941, Note_on_c, 0, 42, 80
1, 374944, Note_on_c, 0, 30, 75
1, 374950, Control_c, 0, 64, 84
1, 374963, Note_on_c, 0, 79, 96
1, 374965, Control_c, 0, 64, 69
1, 374978, Note_on_c, 0, 67, 82
1, 374980, Control_c, 0, 64, 58
1, 374989, Note_on_c, 0, 70, 60
1, 374992, Note_on_c, 0, 74, 62
1, 374994, Control_c, 0, 64, 61
1, 374998, Note_off_c, 0, 30, 62
1, 375016, Control_c, 0, 64, 67
1, 375025, Note_off_c, 0, 70, 53
1, 375031, Control_c, 0, 64, 76
1, 375038, Note_off_c, 0, 42, 63
1, 375046, Control_c, 0, 64, 82
1, 375061, Control_c, 0, 64, 86
1, 375076, Control_c, 0, 64, 90
1, 375091, Control_c, 0, 64, 96
1, 375106, Control_c, 0, 64, 106
1, 375109, Note_off_c, 0, 79, 63
1, 375121, Control_c, 0, 64, 127
1, 375129, Note_off_c, 0, 74, 64
1, 375185, Note_off_c, 0, 67, 62
1, 375210, Note_on_c, 0, 78, 88
1, 375216, Note_on_c, 0, 50, 71
1, 375222, Note_on_c, 0, 74, 78
1, 375352, Note_off_c, 0, 50, 55
1, 375373, Note_off_c, 0, 78, 59
1, 375403, Note_off_c, 0, 74, 61
1, 375415, Note_on_c, 0, 66, 81
1, 375418, Note_on_c, 0, 62, 74
1, 375421, Note_on_c, 0, 58, 65
1, 375422, Note_on_c, 0, 54, 67
1, 375424, Note_on_c, 0, 70, 70
1, 375459, Note_off_c, 0, 58, 56
1, 375472, Note_off_c, 0, 66, 62
1, 375490, Note_off_c, 0, 54, 61
1, 375499, Note_off_c, 0, 62, 48
1, 375519, Note_on_c, 0, 74, 84
1, 375528, Note_off_c, 0, 70, 60
1, 375564, Note_off_c, 0, 74, 65
1, 375652, Note_on_c, 0, 67, 68
1, 375652, Note_on_c, 0, 74, 73
1, 375655, Note_on_c, 0, 71, 71
1, 375671, Note_on_c, 0, 62, 52
1, 375675, Note_on_c, 0, 59, 58
1, 375679, Note_on_c, 0, 54, 46
1, 375713, Control_c, 0, 64, 108
1, 375728, Control_c, 0, 64, 90
1, 375743, Control_c, 0, 64, 76
1, 375765, Control_c, 0, 64, 65
1, 375780, Control_c, 0, 64, 56
1, 375794, Control_c, 0, 64, 55
1, 375809, Control_c, 0, 64, 58
1, 375824, Control_c, 0, 64, 61
1, 375839, Control_c, 0, 64, 64
1, 375854, Control_c, 0, 64, 66
1, 375869, Control_c, 0, 64, 68
1, 375884, Control_c, 0, 64, 72
1, 375899, Control_c, 0, 64, 76
1, 375913, Note_off_c, 0, 62, 37
1, 375914, Control_c, 0, 64, 79
1, 375929, Control_c, 0, 64, 82
1, 375944, Control_c, 0, 64, 85
1, 375958, Control_c, 0, 64, 87
1, 375973, Control_c, 0, 64, 90
1, 375979, Note_off_c, 0, 59, 59
1, 375988, Control_c, 0, 64, 93
1, 376000, Note_on_c, 0, 50, 66
1, 376003, Control_c, 0, 64, 95
1, 376009, Note_off_c, 0, 54, 62
1, 376018, Control_c, 0, 64, 98
1, 376032, Control_c, 0, 64, 100
1, 376047, Control_c, 0, 64, 103
1, 376055, Note_on_c, 0, 66, 78
1, 376062, Control_c, 0, 64, 106
1, 376064, Note_off_c, 0, 50, 64
1, 376077, Note_off_c, 0, 67, 47
1, 376077, Control_c, 0, 64, 110
1, 376092, Control_c, 0, 64, 114
1, 376107, Control_c, 0, 64, 119
1, 376122, Control_c, 0, 64, 126
1, 376137, Control_c, 0, 64, 127
1, 376237, Note_off_c, 0, 71, 54
1, 376289, Note_on_c, 0, 42, 67
1, 376324, Note_off_c, 0, 66, 55
1, 376381, Note_on_c, 0, 62, 83
1, 376414, Note_off_c, 0, 42, 37
1, 376463, Control_c, 0, 64, 119
1, 376467, Note_on_c, 0, 30, 70
1, 376477, Control_c, 0, 64, 96
1, 376492, Control_c, 0, 64, 81
1, 376515, Control_c, 0, 64, 70
1, 376529, Note_off_c, 0, 62, 60
1, 376530, Control_c, 0, 64, 64
1, 376543, Note_on_c, 0, 42, 75
1, 376545, Control_c, 0, 64, 64
1, 376559, Control_c, 0, 64, 69
1, 376572, Note_off_c, 0, 74, 62
1, 376574, Control_c, 0, 64, 75
1, 376589, Control_c, 0, 64, 80
1, 376596, Note_on_c, 0, 62, 69
1, 376604, Control_c, 0, 64, 85
1, 376618, Control_c, 0, 64, 91
1, 376623, Note_off_c, 0, 30, 60
1, 376633, Control_c, 0, 64, 99
1, 376648, Control_c, 0, 64, 114
1, 376663, Control_c, 0, 64, 127
1, 376679, Note_off_c, 0, 42, 62
1, 376682, Note_on_c, 0, 70, 83
1, 376697, Note_off_c, 0, 62, 60
1, 376775, Note_on_c, 0, 77, 89
1, 376790, Note_off_c, 0, 70, 61
1, 377039, Note_on_c, 0, 50, 62
1, 377039, Note_on_c, 0, 64, 88
1, 377142, Note_off_c, 0, 64, 62
1, 377189, Note_off_c, 0, 50, 52
1, 377261, Note_on_c, 0, 58, 64
1, 377261, Note_on_c, 0, 65, 84
1, 377264, Note_on_c, 0, 53, 64
1, 377266, Note_on_c, 0, 62, 64
1, 377307, Note_off_c, 0, 58, 55
1, 377348, Note_off_c, 0, 62, 49
1, 377357, Note_off_c, 0, 53, 58
1, 377360, Note_off_c, 0, 77, 54
1, 377382, Note_off_c, 0, 65, 61
1, 377467, Note_on_c, 0, 59, 67
1, 377469, Note_on_c, 0, 53, 65
1, 377469, Note_on_c, 0, 62, 67
1, 377470, Control_c, 0, 64, 102
1, 377486, Control_c, 0, 64, 75
1, 377496, Note_on_c, 0, 77, 82
1, 377501, Control_c, 0, 64, 0
1, 377505, Note_on_c, 0, 65, 74
1, 377519, Note_on_c, 0, 68, 68
1, 377545, Control_c, 0, 64, 49
1, 377560, Control_c, 0, 64, 64
1, 377575, Control_c, 0, 64, 70
1, 377590, Control_c, 0, 64, 79
1, 377604, Control_c, 0, 64, 88
1, 377619, Control_c, 0, 64, 98
1, 377621, Note_off_c, 0, 77, 56
1, 377633, Note_off_c, 0, 65, 57
1, 377634, Control_c, 0, 64, 109
1, 377649, Control_c, 0, 64, 127
1, 377664, Note_off_c, 0, 62, 53
1, 377705, Note_off_c, 0, 59, 60
1, 377708, Note_on_c, 0, 50, 78
1, 377714, Note_on_c, 0, 64, 85
1, 377727, Note_off_c, 0, 53, 65
1, 377756, Note_off_c, 0, 50, 65
1, 377800, Note_off_c, 0, 64, 63
1, 377949, Note_on_c, 0, 63, 84
1, 377952, Note_on_c, 0, 42, 79
1, 378007, Note_on_c, 0, 64, 43
1, 378032, Note_off_c, 0, 42, 55
1, 378046, Note_off_c, 0, 64, 54
1, 378056, Note_off_c, 0, 63, 50
1, 378217, Note_on_c, 0, 42, 80
1, 378218, Note_on_c, 0, 30, 75
1, 378219, Control_c, 0, 64, 103
1, 378234, Control_c, 0, 64, 80
1, 378249, Control_c, 0, 64, 65
1, 378263, Control_c, 0, 64, 0
1, 378274, Note_on_c, 0, 71, 85
1, 378277, Note_on_c, 0, 65, 66
1, 378279, Control_c, 0, 64, 36
1, 378285, Note_on_c, 0, 62, 70
1, 378294, Control_c, 0, 64, 63
1, 378307, Note_off_c, 0, 68, 56
1, 378308, Note_off_c, 0, 30, 62
1, 378309, Control_c, 0, 64, 70
1, 378324, Control_c, 0, 64, 77
1, 378339, Control_c, 0, 64, 86
1, 378353, Control_c, 0, 64, 97
1, 378368, Control_c, 0, 64, 108
1, 378372, Note_off_c, 0, 42, 64
1, 378383, Control_c, 0, 64, 127
1, 378421, Note_off_c, 0, 62, 56
1, 378463, Note_off_c, 0, 71, 62
1, 378592, Note_on_c, 0, 69, 84
1, 378599, Note_on_c, 0, 50, 67
1, 378603, Note_on_c, 0, 61, 70
1, 378617, Note_off_c, 0, 65, 60
1, 378700, Note_off_c, 0, 61, 60
1, 378874, Note_off_c, 0, 69, 39
1, 379000, Note_on_c, 0, 62, 74
1, 379098, Note_on_c, 0, 67, 90
1, 379108, Note_on_c, 0, 59, 76
1, 379121, Note_off_c, 0, 62, 38
1, 379137, Note_off_c, 0, 59, 63
1, 379146, Note_off_c, 0, 67, 64
1, 379207, Control_c, 0, 64, 101
1, 379211, Note_on_c, 0, 62, 74
1, 379211, Note_on_c, 0, 67, 84
1, 379222, Control_c, 0, 64, 84
1, 379226, Note_on_c, 0, 59, 70
1, 379236, Control_c, 0, 64, 77
1, 379251, Control_c, 0, 64, 74
1, 379266, Control_c, 0, 64, 76
1, 379281, Control_c, 0, 64, 82
1, 379296, Control_c, 0, 64, 92
1, 379310, Control_c, 0, 64, 107
1, 379325, Control_c, 0, 64, 118
1, 379340, Control_c, 0, 64, 126
1, 379353, Note_off_c, 0, 59, 57
1, 379355, Control_c, 0, 64, 127
1, 379377, Note_off_c, 0, 50, 37
1, 379451, Note_off_c, 0, 62, 37
1, 379478, Note_on_c, 0, 50, 72
1, 379480, Note_on_c, 0, 66, 85
1, 379489, Note_on_c, 0, 57, 75
1, 379510, Control_c, 0, 64, 99
1, 379525, Control_c, 0, 64, 77
1, 379537, Note_off_c, 0, 67, 60
1, 379540, Control_c, 0, 64, 57
1, 379555, Control_c, 0, 64, 0
1, 379584, Control_c, 0, 64, 44
1, 379599, Control_c, 0, 64, 62
1, 379614, Control_c, 0, 64, 66
1, 379628, Control_c, 0, 64, 71
1, 379643, Control_c, 0, 64, 78
1, 379658, Control_c, 0, 64, 88
1, 379669, Note_off_c, 0, 57, 48
1, 379673, Control_c, 0, 64, 101
1, 379688, Control_c, 0, 64, 127
1, 379822, Note_off_c, 0, 66, 63
1, 379845, Note_on_c, 0, 65, 86
1, 379846, Note_on_c, 0, 59, 77
1, 379856, Note_on_c, 0, 55, 78
1, 379884, Note_off_c, 0, 50, 63
1, 379895, Note_off_c, 0, 59, 63
1, 380109, Note_off_c, 0, 55, 51
1, 380143, Note_off_c, 0, 65, 55
1, 380312, Note_on_c, 0, 65, 83
1, 380315, Note_on_c, 0, 55, 80
1, 380328, Note_on_c, 0, 42, 81
1, 380330, Note_on_c, 0, 30, 80
1, 380348, Control_c, 0, 64, 126
1, 380363, Control_c, 0, 64, 92
1, 380377, Control_c, 0, 64, 78
1, 380392, Control_c, 0, 64, 67
1, 380407, Control_c, 0, 64, 63
1, 380422, Control_c, 0, 64, 65
1, 380437, Control_c, 0, 64, 70
1, 380451, Control_c, 0, 64, 79
1, 380466, Control_c, 0, 64, 88
1, 380469, Note_off_c, 0, 30, 61
1, 380481, Control_c, 0, 64, 94
1, 380489, Note_off_c, 0, 65, 54
1, 380496, Control_c, 0, 64, 99
1, 380511, Control_c, 0, 64, 106
1, 380522, Note_off_c, 0, 55, 61
1, 380525, Control_c, 0, 64, 122
1, 380537, Note_off_c, 0, 42, 63
1, 380540, Control_c, 0, 64, 127
1, 380548, Note_on_c, 0, 58, 69
1, 380618, Note_off_c, 0, 58, 61
1, 380635, Note_on_c, 0, 60, 69
1, 380663, Note_off_c, 0, 60, 67
1, 380724, Note_on_c, 0, 59, 73
1, 380783, Note_off_c, 0, 59, 58
1, 380790, Note_on_c, 0, 50, 80
1, 380793, Note_on_c, 0, 61, 78
1, 380853, Note_off_c, 0, 61, 61
1, 380870, Note_on_c, 0, 64, 73
1, 380906, Note_off_c, 0, 64, 63
1, 380945, Note_on_c, 0, 62, 74
1, 381008, Note_on_c, 0, 64, 80
1, 381013, Note_off_c, 0, 62, 58
1, 381058, Note_off_c, 0, 64, 64
1, 381064, Note_off_c, 0, 50, 64
1, 381066, Note_on_c, 0, 55, 80
1, 381074, Note_on_c, 0, 67, 71
1, 381100, Note_off_c, 0, 67, 64
1, 381110, Note_off_c, 0, 55, 64
1, 381159, Note_on_c, 0, 65, 64
1, 381166, Note_on_c, 0, 67, 72
1, 381210, Note_off_c, 0, 65, 61
1, 381213, Note_off_c, 0, 67, 56
1, 381218, Note_on_c, 0, 70, 78
1, 381270, Note_off_c, 0, 70, 64
1, 381285, Note_on_c, 0, 72, 71
1, 381311, Note_on_c, 0, 55, 73
1, 381329, Note_off_c, 0, 72, 60
1, 381360, Note_on_c, 0, 71, 80
1, 381362, Note_on_c, 0, 65, 80
1, 381419, Note_on_c, 0, 73, 82
1, 381421, Note_off_c, 0, 71, 59
1, 381487, Note_off_c, 0, 73, 62
1, 381496, Note_on_c, 0, 76, 70
1, 381496, Control_c, 0, 64, 96
1, 381511, Control_c, 0, 64, 81
1, 381525, Note_off_c, 0, 76, 67
1, 381526, Control_c, 0, 64, 71
1, 381541, Control_c, 0, 64, 67
1, 381554, Note_on_c, 0, 74, 84
1, 381571, Control_c, 0, 64, 69
1, 381586, Control_c, 0, 64, 72
1, 381601, Control_c, 0, 64, 77
1, 381616, Note_on_c, 0, 76, 78
1, 381616, Control_c, 0, 64, 83
1, 381630, Control_c, 0, 64, 92
1, 381634, Note_off_c, 0, 74, 60
1, 381645, Control_c, 0, 64, 102
1, 381660, Control_c, 0, 64, 111
1, 381667, Note_off_c, 0, 76, 64
1, 381675, Control_c, 0, 64, 118
1, 381683, Note_on_c, 0, 79, 55
1, 381689, Control_c, 0, 64, 127
1, 381702, Note_off_c, 0, 79, 62
1, 381737, Note_on_c, 0, 77, 84
1, 381780, Note_off_c, 0, 55, 55
1, 381820, Note_on_c, 0, 82, 83
1, 381821, Note_off_c, 0, 77, 61
1, 381883, Note_off_c, 0, 82, 64
1, 381887, Note_on_c, 0, 84, 66
1, 381922, Note_off_c, 0, 65, 52
1, 381941, Note_off_c, 0, 84, 62
1, 381964, Note_on_c, 0, 83, 84
1, 382030, Note_off_c, 0, 83, 59
1, 382031, Note_on_c, 0, 85, 76
1, 382072, Note_on_c, 0, 62, 57
1, 382107, Note_off_c, 0, 85, 64
1, 382111, Note_on_c, 0, 88, 78
1, 382116, Note_on_c, 0, 65, 62
1, 382172, Note_off_c, 0, 88, 64
1, 382194, Note_on_c, 0, 86, 83
1, 382216, Note_on_c, 0, 71, 67
1, 382269, Note_on_c, 0, 88, 84
1, 382276, Control_c, 0, 64, 99
1, 382291, Note_off_c, 0, 86, 64
1, 382291, Control_c, 0, 64, 84
1, 382306, Control_c, 0, 64, 74
1, 382320, Control_c, 0, 64, 68
1, 382345, Note_off_c, 0, 88, 64
1, 382350, Control_c, 0, 64, 70
1, 382352, Note_on_c, 0, 91, 80
1, 382365, Control_c, 0, 64, 74
1, 382380, Control_c, 0, 64, 78
1, 382394, Control_c, 0, 64, 82
1, 382408, Note_off_c, 0, 91, 65
1, 382409, Control_c, 0, 64, 86
1, 382424, Control_c, 0, 64, 89
1, 382435, Note_on_c, 0, 89, 88
1, 382439, Control_c, 0, 64, 92
1, 382453, Control_c, 0, 64, 95
1, 382468, Control_c, 0, 64, 98
1, 382483, Control_c, 0, 64, 100
1, 382506, Control_c, 0, 64, 104
1, 382521, Control_c, 0, 64, 108
1, 382534, Note_off_c, 0, 89, 63
1, 382535, Note_on_c, 0, 94, 82
1, 382535, Control_c, 0, 64, 113
1, 382550, Control_c, 0, 64, 117
1, 382565, Control_c, 0, 64, 120
1, 382579, Control_c, 0, 64, 124
1, 382594, Control_c, 0, 64, 127
1, 382609, Control_c, 0, 67, 8
1, 382624, Control_c, 0, 67, 8
1, 382625, Note_on_c, 0, 96, 83
1, 382636, Note_off_c, 0, 94, 63
1, 382639, Control_c, 0, 67, 9
1, 382653, Control_c, 0, 67, 11
1, 382668, Control_c, 0, 67, 13
1, 382683, Control_c, 0, 67, 14
1, 382698, Control_c, 0, 67, 16
1, 382704, Note_off_c, 0, 96, 66
1, 382713, Control_c, 0, 67, 18
1, 382728, Control_c, 0, 67, 21
1, 382734, Note_on_c, 0, 95, 82
1, 382742, Control_c, 0, 67, 23
1, 382757, Control_c, 0, 67, 25
1, 382772, Control_c, 0, 67, 27
1, 382787, Control_c, 0, 67, 30
1, 382802, Control_c, 0, 67, 33
1, 382817, Control_c, 0, 67, 37
1, 382832, Control_c, 0, 67, 40
1, 382837, Note_on_c, 0, 97, 89
1, 382847, Control_c, 0, 67, 42
1, 382861, Control_c, 0, 67, 44
1, 382876, Control_c, 0, 67, 44
1, 382887, Note_off_c, 0, 95, 57
1, 382906, Control_c, 0, 67, 45
1, 382921, Control_c, 0, 67, 46
1, 382935, Control_c, 0, 67, 47
1, 382950, Control_c, 0, 67, 47
1, 382965, Control_c, 0, 67, 48
1, 382979, Control_c, 0, 67, 48
1, 383009, Control_c, 0, 67, 49
1, 383039, Control_c, 0, 64, 113
1, 383047, Note_on_c, 0, 100, 76
1, 383053, Control_c, 0, 64, 101
1, 383053, Control_c, 0, 67, 49
1, 383069, Control_c, 0, 64, 92
1, 383069, Control_c, 0, 67, 50
1, 383082, Note_off_c, 0, 97, 65
1, 383084, Control_c, 0, 64, 84
1, 383084, Control_c, 0, 67, 51
1, 383099, Control_c, 0, 64, 77
1, 383099, Control_c, 0, 67, 52
1, 383114, Control_c, 0, 64, 73
1, 383129, Control_c, 0, 64, 74
1, 383129, Control_c, 0, 67, 52
1, 383143, Control_c, 0, 64, 76
1, 383158, Control_c, 0, 64, 79
1, 383158, Control_c, 0, 67, 53
1, 383173, Control_c, 0, 64, 83
1, 383173, Control_c, 0, 67, 54
1, 383188, Control_c, 0, 64, 87
1, 383188, Control_c, 0, 67, 54
1, 383197, Note_on_c, 0, 98, 84
1, 383202, Control_c, 0, 64, 94
1, 383202, Control_c, 0, 67, 55
1, 383217, Control_c, 0, 64, 101
1, 383232, Control_c, 0, 64, 106
1, 383232, Control_c, 0, 67, 56
1, 383240, Note_off_c, 0, 100, 60
1, 383255, Control_c, 0, 64, 111
1, 383270, Control_c, 0, 64, 117
1, 383284, Control_c, 0, 64, 127
1, 383309, Note_on_c, 0, 95, 72
1, 383324, Note_off_c, 0, 98, 66
1, 383344, Control_c, 0, 67, 55
1, 383373, Control_c, 0, 67, 54
1, 383381, Note_off_c, 0, 95, 64
1, 383402, Control_c, 0, 67, 54
1, 383417, Note_on_c, 0, 91, 74
1, 383417, Control_c, 0, 67, 53
1, 383432, Control_c, 0, 67, 53
1, 383450, Note_off_c, 0, 91, 64
1, 383462, Control_c, 0, 67, 52
1, 383476, Control_c, 0, 67, 52
1, 383491, Control_c, 0, 67, 51
1, 383503, Note_on_c, 0, 89, 85
1, 383536, Control_c, 0, 67, 50
1, 383550, Control_c, 0, 67, 50
1, 383580, Control_c, 0, 67, 49
1, 383596, Note_on_c, 0, 86, 83
1, 383625, Control_c, 0, 67, 49
1, 383628, Note_off_c, 0, 89, 58
1, 383640, Control_c, 0, 67, 48
1, 383660, Note_off_c, 0, 71, 37
1, 383669, Control_c, 0, 67, 48
1, 383677, Note_on_c, 0, 83, 79
1, 383682, Note_off_c, 0, 86, 65
1, 383699, Control_c, 0, 67, 47
1, 383729, Control_c, 0, 67, 46
1, 383735, Note_off_c, 0, 83, 65
1, 383758, Control_c, 0, 67, 46
1, 383774, Note_on_c, 0, 79, 76
1, 383817, Control_c, 0, 67, 45
1, 383833, Note_off_c, 0, 79, 62
1, 383862, Control_c, 0, 67, 45
1, 383875, Note_on_c, 0, 77, 78
1, 383922, Control_c, 0, 67, 44
1, 383937, Control_c, 0, 67, 44
1, 383952, Control_c, 0, 67, 43
1, 383966, Control_c, 0, 67, 43
1, 383974, Note_on_c, 0, 74, 76
1, 383981, Control_c, 0, 67, 42
1, 384003, Control_c, 0, 67, 41
1, 384008, Note_off_c, 0, 65, 38
1, 384018, Control_c, 0, 67, 41
1, 384033, Control_c, 0, 67, 40
1, 384040, Note_off_c, 0, 77, 59
1, 384048, Control_c, 0, 67, 39
1, 384051, Note_off_c, 0, 62, 37
1, 384063, Control_c, 0, 67, 38
1, 384078, Control_c, 0, 67, 37
1, 384093, Control_c, 0, 67, 36
1, 384093, Note_on_c, 0, 71, 76
1, 384107, Control_c, 0, 67, 34
1, 384114, Note_off_c, 0, 74, 61
1, 384122, Control_c, 0, 67, 33
1, 384137, Control_c, 0, 67, 32
1, 384152, Control_c, 0, 67, 31
1, 384167, Control_c, 0, 67, 30
1, 384181, Control_c, 0, 67, 30
1, 384191, Note_off_c, 0, 71, 62
1, 384211, Control_c, 0, 67, 29
1, 384215, Note_on_c, 0, 67, 72
1, 384240, Control_c, 0, 67, 29
1, 384255, Control_c, 0, 67, 28
1, 384285, Control_c, 0, 67, 28
1, 384294, Note_off_c, 0, 67, 51
1, 384313, Control_c, 0, 67, 27
1, 384328, Control_c, 0, 67, 27
1, 384342, Control_c, 0, 67, 26
1, 384346, Note_on_c, 0, 65, 68
1, 384357, Control_c, 0, 67, 25
1, 384372, Control_c, 0, 67, 23
1, 384387, Control_c, 0, 67, 21
1, 384402, Control_c, 0, 67, 21
1, 384416, Control_c, 0, 67, 20
1, 384431, Control_c, 0, 67, 19
1, 384446, Control_c, 0, 67, 18
1, 384461, Control_c, 0, 67, 16
1, 384474, Note_on_c, 0, 62, 69
1, 384476, Control_c, 0, 67, 14
1, 384490, Control_c, 0, 67, 13
1, 384505, Control_c, 0, 67, 12
1, 384520, Control_c, 0, 67, 11
1, 384535, Control_c, 0, 67, 9
1, 384549, Control_c, 0, 67, 0
1, 384630, Note_on_c, 0, 59, 71
1, 384834, Note_on_c, 0, 55, 70
1, 384921, Note_off_c, 0, 55, 56
1, 385711, Note_on_c, 0, 42, 30
1, 385712, Note_on_c, 0, 30, 48
1, 385748, Note_on_c, 0, 66, 69
1, 385752, Control_c, 0, 64, 122
1, 385767, Control_c, 0, 64, 111
1, 385768, Note_on_c, 0, 54, 48
1, 385782, Control_c, 0, 64, 101
1, 385796, Control_c, 0, 64, 93
1, 385811, Control_c, 0, 64, 83
1, 385826, Control_c, 0, 64, 72
1, 385841, Control_c, 0, 64, 59
1, 385848, Note_off_c, 0, 59, 37
1, 385856, Control_c, 0, 64, 0
1, 385912, Note_off_c, 0, 65, 31
1, 385930, Control_c, 0, 64, 36
1, 385944, Control_c, 0, 64, 60
1, 385947, Note_off_c, 0, 62, 23
1, 385959, Control_c, 0, 64, 67
1, 385974, Control_c, 0, 64, 72
1, 385989, Control_c, 0, 64, 77
1, 386004, Control_c, 0, 64, 81
1, 386018, Control_c, 0, 64, 85
1, 386033, Control_c, 0, 64, 91
1, 386048, Note_off_c, 0, 30, 35
1, 386048, Control_c, 0, 64, 98
1, 386063, Control_c, 0, 64, 109
1, 386078, Control_c, 0, 64, 127
1, 386080, Note_off_c, 0, 54, 36
1, 386168, Note_off_c, 0, 42, 42
1, 386182, Control_c, 0, 67, 9
1, 386196, Control_c, 0, 67, 11
1, 386211, Control_c, 0, 67, 13
1, 386226, Control_c, 0, 67, 15
1, 386248, Control_c, 0, 67, 16
1, 386263, Control_c, 0, 67, 19
1, 386279, Control_c, 0, 67, 21
1, 386293, Control_c, 0, 67, 24
1, 386308, Control_c, 0, 67, 26
1, 386323, Control_c, 0, 67, 27
1, 386334, Note_off_c, 0, 66, 34
1, 386338, Control_c, 0, 67, 28
1, 386353, Control_c, 0, 67, 29
1, 386367, Control_c, 0, 67, 30
1, 386382, Control_c, 0, 67, 32
1, 386397, Control_c, 0, 67, 33
1, 386412, Control_c, 0, 67, 34
1, 386427, Control_c, 0, 67, 36
1, 386442, Control_c, 0, 67, 36
1, 386457, Control_c, 0, 67, 37
1, 386472, Control_c, 0, 67, 38
1, 386486, Control_c, 0, 67, 39
1, 386501, Control_c, 0, 67, 40
1, 386516, Control_c, 0, 67, 41
1, 386531, Control_c, 0, 67, 42
1, 386546, Control_c, 0, 67, 42
1, 386561, Control_c, 0, 67, 43
1, 386575, Control_c, 0, 67, 44
1, 386589, Note_on_c, 0, 49, 54
1, 386590, Control_c, 0, 67, 45
1, 386605, Control_c, 0, 67, 45
1, 386619, Control_c, 0, 67, 46
1, 386634, Control_c, 0, 67, 46
1, 386649, Control_c, 0, 67, 48
1, 386664, Control_c, 0, 67, 49
1, 386679, Control_c, 0, 67, 50
1, 386693, Control_c, 0, 67, 51
1, 386708, Control_c, 0, 67, 52
1, 386723, Control_c, 0, 67, 53
1, 386737, Control_c, 0, 67, 55
1, 386752, Control_c, 0, 67, 56
1, 386767, Control_c, 0, 67, 57
1, 386782, Control_c, 0, 67, 57
1, 386797, Control_c, 0, 67, 58
1, 386807, Note_off_c, 0, 49, 35
1, 386826, Control_c, 0, 67, 58
1, 386901, Control_c, 0, 67, 59
1, 386926, Note_on_c, 0, 61, 44
1, 386960, Control_c, 0, 67, 59
1, 387012, Control_c, 0, 67, 60
1, 387041, Control_c, 0, 67, 60
1, 387056, Control_c, 0, 67, 61
1, 387072, Control_c, 0, 67, 62
1, 387087, Control_c, 0, 67, 64
1, 387102, Control_c, 0, 67, 65
1, 387116, Control_c, 0, 67, 66
1, 387131, Control_c, 0, 67, 67
1, 387146, Control_c, 0, 67, 68
1, 387156, Note_off_c, 0, 61, 34
1, 387161, Control_c, 0, 67, 69
1, 387175, Control_c, 0, 67, 70
1, 387187, Note_on_c, 0, 60, 39
1, 387190, Control_c, 0, 67, 72
1, 387205, Control_c, 0, 67, 73
1, 387220, Control_c, 0, 67, 74
1, 387235, Control_c, 0, 67, 74
1, 387250, Control_c, 0, 67, 76
1, 387264, Control_c, 0, 67, 77
1, 387279, Control_c, 0, 67, 78
1, 387294, Control_c, 0, 67, 79
1, 387298, Note_on_c, 0, 63, 42
1, 387308, Control_c, 0, 67, 80
1, 387323, Control_c, 0, 67, 81
1, 387338, Control_c, 0, 67, 83
1, 387353, Control_c, 0, 67, 86
1, 387355, Note_off_c, 0, 60, 30
1, 387367, Control_c, 0, 67, 88
1, 387382, Control_c, 0, 67, 90
1, 387397, Control_c, 0, 67, 92
1, 387412, Control_c, 0, 67, 94
1, 387427, Control_c, 0, 67, 97
1, 387441, Control_c, 0, 67, 100
1, 387456, Control_c, 0, 67, 104
1, 387471, Control_c, 0, 67, 107
1, 387486, Control_c, 0, 67, 110
1, 387501, Control_c, 0, 67, 113
1, 387515, Control_c, 0, 67, 116
1, 387530, Control_c, 0, 67, 119
1, 387545, Control_c, 0, 67, 123
1, 387560, Control_c, 0, 67, 127
1, 387619, Control_c, 0, 64, 120
1, 387634, Control_c, 0, 64, 117
1, 387649, Control_c, 0, 64, 114
1, 387664, Control_c, 0, 64, 111
1, 387679, Control_c, 0, 64, 109
1, 387694, Control_c, 0, 64, 108
1, 387708, Control_c, 0, 64, 107
1, 387723, Control_c, 0, 64, 106
1, 387733, Note_on_c, 0, 61, 38
1, 387745, Control_c, 0, 64, 105
1, 387760, Control_c, 0, 64, 103
1, 387774, Control_c, 0, 64, 101
1, 387789, Control_c, 0, 64, 99
1, 387804, Control_c, 0, 64, 96
1, 387807, Note_on_c, 0, 80, 55
1, 387819, Control_c, 0, 64, 94
1, 387831, Note_off_c, 0, 63, 40
1, 387834, Control_c, 0, 64, 92
1, 387838, Note_on_c, 0, 71, 30
1, 387849, Control_c, 0, 64, 89
1, 387864, Control_c, 0, 64, 87
1, 387879, Control_c, 0, 64, 85
1, 387894, Control_c, 0, 64, 83
1, 387909, Control_c, 0, 64, 81
1, 387924, Control_c, 0, 64, 79
1, 387938, Control_c, 0, 64, 78
1, 387953, Control_c, 0, 64, 76
1, 387968, Control_c, 0, 64, 75
1, 387983, Control_c, 0, 64, 74
1, 387998, Control_c, 0, 64, 72
1, 388013, Control_c, 0, 64, 70
1, 388028, Control_c, 0, 64, 68
1, 388043, Control_c, 0, 64, 67
1, 388057, Control_c, 0, 64, 66
1, 388092, Note_off_c, 0, 80, 48
1, 388093, Note_off_c, 0, 71, 57
1, 388098, Note_on_c, 0, 77, 58
1, 388102, Control_c, 0, 64, 66
1, 388103, Note_on_c, 0, 68, 45
1, 388117, Control_c, 0, 64, 67
1, 388132, Control_c, 0, 64, 68
1, 388146, Control_c, 0, 64, 70
1, 388161, Control_c, 0, 64, 73
1, 388176, Control_c, 0, 64, 77
1, 388182, Note_off_c, 0, 68, 46
1, 388190, Control_c, 0, 64, 80
1, 388205, Control_c, 0, 64, 82
1, 388220, Control_c, 0, 64, 84
1, 388235, Control_c, 0, 64, 86
1, 388242, Note_off_c, 0, 77, 57
1, 388248, Note_on_c, 0, 71, 44
1, 388250, Control_c, 0, 64, 89
1, 388252, Note_on_c, 0, 80, 59
1, 388264, Control_c, 0, 64, 94
1, 388279, Control_c, 0, 64, 100
1, 388294, Control_c, 0, 64, 104
1, 388296, Note_off_c, 0, 71, 59
1, 388309, Control_c, 0, 64, 109
1, 388324, Control_c, 0, 64, 114
1, 388338, Control_c, 0, 64, 127
1, 388377, Note_on_c, 0, 75, 58
1, 388388, Note_off_c, 0, 80, 38
1, 388394, Note_on_c, 0, 66, 51
1, 388467, Note_off_c, 0, 66, 56
1, 388505, Note_off_c, 0, 61, 40
1, 388537, Note_on_c, 0, 80, 50
1, 388543, Note_on_c, 0, 49, 40
1, 388546, Note_off_c, 0, 75, 37
1, 388564, Note_off_c, 0, 80, 61
1, 388621, Poly_aftertouch_c, 0, 71, 0
1, 388636, Note_off_c, 0, 49, 55
1, 388679, Note_on_c, 0, 73, 62
1, 388684, Note_on_c, 0, 61, 46
1, 388720, Note_off_c, 0, 61, 61
1, 388958, Note_on_c, 0, 78, 59
1, 388999, Note_on_c, 0, 70, 29
1, 388999, Control_c, 0, 64, 123
1, 389014, Control_c, 0, 64, 103
1, 389015, Note_on_c, 0, 42, 37
1, 389029, Control_c, 0, 64, 90
1, 389044, Control_c, 0, 64, 79
1, 389059, Control_c, 0, 64, 70
1, 389074, Control_c, 0, 64, 64
1, 389088, Control_c, 0, 64, 63
1, 389103, Control_c, 0, 64, 63
1, 389118, Control_c, 0, 64, 64
1, 389132, Control_c, 0, 64, 65
1, 389147, Control_c, 0, 64, 66
1, 389150, Note_off_c, 0, 73, 33
1, 389162, Control_c, 0, 64, 68
1, 389177, Control_c, 0, 64, 71
1, 389192, Control_c, 0, 64, 75
1, 389206, Control_c, 0, 64, 78
1, 389221, Control_c, 0, 64, 80
1, 389244, Control_c, 0, 64, 82
1, 389251, Note_off_c, 0, 42, 43
1, 389259, Control_c, 0, 64, 85
1, 389274, Control_c, 0, 64, 89
1, 389289, Control_c, 0, 64, 95
1, 389303, Control_c, 0, 64, 101
1, 389308, Note_on_c, 0, 49, 52
1, 389318, Control_c, 0, 64, 107
1, 389333, Control_c, 0, 64, 113
1, 389347, Control_c, 0, 64, 126
1, 389362, Control_c, 0, 64, 127
1, 389377, Note_off_c, 0, 70, 38
1, 389383, Note_off_c, 0, 49, 59
1, 389399, Note_off_c, 0, 78, 35
1, 389558, Note_on_c, 0, 61, 52
1, 389664, Note_off_c, 0, 61, 58
1, 389707, Note_on_c, 0, 60, 48
1, 389783, Note_on_c, 0, 63, 62
1, 389786, Note_off_c, 0, 60, 53
1, 389855, Note_on_c, 0, 80, 64
1, 389867, Note_on_c, 0, 71, 55
1, 389873, Note_on_c, 0, 61, 60
1, 389882, Control_c, 0, 64, 114
1, 389897, Control_c, 0, 64, 109
1, 389911, Control_c, 0, 64, 105
1, 389919, Note_off_c, 0, 63, 34
1, 389926, Control_c, 0, 64, 102
1, 389941, Control_c, 0, 64, 100
1, 389955, Control_c, 0, 64, 97
1, 389970, Control_c, 0, 64, 94
1, 389992, Control_c, 0, 64, 91
1, 390007, Control_c, 0, 64, 88
1, 390016, Note_on_c, 0, 77, 64
1, 390018, Note_off_c, 0, 71, 44
1, 390022, Control_c, 0, 64, 84
1, 390025, Note_on_c, 0, 68, 55
1, 390037, Control_c, 0, 64, 80
1, 390037, Note_off_c, 0, 80, 55
1, 390052, Control_c, 0, 64, 74
1, 390067, Control_c, 0, 64, 69
1, 390081, Control_c, 0, 64, 66
1, 390085, Note_off_c, 0, 68, 54
1, 390096, Control_c, 0, 64, 66
1, 390111, Control_c, 0, 64, 66
1, 390126, Control_c, 0, 64, 67
1, 390141, Control_c, 0, 64, 68
1, 390147, Note_off_c, 0, 77, 57
1, 390149, Note_on_c, 0, 80, 68
1, 390151, Note_on_c, 0, 71, 49
1, 390156, Control_c, 0, 64, 69
1, 390170, Control_c, 0, 64, 71
1, 390185, Control_c, 0, 64, 74
1, 390190, Note_off_c, 0, 71, 61
1, 390200, Control_c, 0, 64, 77
1, 390215, Control_c, 0, 64, 79
1, 390230, Control_c, 0, 64, 82
1, 390244, Control_c, 0, 64, 86
1, 390250, Note_off_c, 0, 80, 55
1, 390259, Control_c, 0, 64, 89
1, 390275, Control_c, 0, 64, 93
1, 390275, Note_on_c, 0, 75, 59
1, 390290, Control_c, 0, 64, 97
1, 390298, Note_on_c, 0, 66, 49
1, 390305, Control_c, 0, 64, 101
1, 390320, Control_c, 0, 64, 105
1, 390334, Control_c, 0, 64, 110
1, 390349, Control_c, 0, 64, 115
1, 390355, Note_off_c, 0, 66, 52
1, 390364, Control_c, 0, 64, 127
1, 390430, Note_off_c, 0, 75, 32
1, 390435, Note_on_c, 0, 80, 56
1, 390459, Note_off_c, 0, 61, 42
1, 390463, Note_on_c, 0, 49, 42
1, 390465, Note_off_c, 0, 80, 58
1, 390552, Note_off_c, 0, 49, 56
1, 390598, Note_on_c, 0, 73, 52
1, 390606, Note_on_c, 0, 61, 41
1, 390635, Note_off_c, 0, 61, 55
1, 390877, Note_on_c, 0, 78, 57
1, 390880, Note_on_c, 0, 70, 43
1, 390904, Control_c, 0, 64, 117
1, 390919, Control_c, 0, 64, 96
1, 390932, Note_on_c, 0, 30, 44
1, 390934, Control_c, 0, 64, 82
1, 390949, Control_c, 0, 64, 72
1, 390964, Control_c, 0, 64, 66
1, 390979, Control_c, 0, 64, 65
1, 390993, Control_c, 0, 64, 68
1, 391008, Control_c, 0, 64, 72
1, 391023, Control_c, 0, 64, 75
1, 391024, Note_off_c, 0, 30, 55
1, 391038, Control_c, 0, 64, 78
1, 391053, Control_c, 0, 64, 81
1, 391068, Control_c, 0, 64, 85
1, 391083, Control_c, 0, 64, 91
1, 391098, Control_c, 0, 64, 98
1, 391113, Control_c, 0, 64, 103
1, 391128, Control_c, 0, 64, 108
1, 391139, Note_off_c, 0, 78, 35
1, 391140, Note_off_c, 0, 73, 22
1, 391143, Control_c, 0, 64, 114
1, 391157, Control_c, 0, 64, 127
1, 391227, Note_off_c, 0, 70, 48
1, 391420, Note_on_c, 0, 49, 48
1, 391549, Control_c, 0, 67, 127
1, 391564, Control_c, 0, 67, 126
1, 391579, Control_c, 0, 67, 125
1, 391608, Control_c, 0, 67, 124
1, 391623, Control_c, 0, 67, 123
1, 391638, Control_c, 0, 67, 123
1, 391653, Control_c, 0, 67, 122
1, 391668, Control_c, 0, 67, 122
1, 391682, Control_c, 0, 67, 121
1, 391697, Control_c, 0, 67, 121
1, 391727, Control_c, 0, 67, 120
1, 391742, Control_c, 0, 67, 119
1, 391757, Control_c, 0, 67, 119
1, 391772, Control_c, 0, 67, 118
1, 391774, Note_on_c, 0, 58, 59
1, 391787, Control_c, 0, 67, 118
1, 391801, Control_c, 0, 67, 117
1, 391816, Control_c, 0, 67, 117
1, 391831, Control_c, 0, 67, 116
1, 391843, Note_off_c, 0, 49, 40
1, 391846, Control_c, 0, 67, 114
1, 391861, Control_c, 0, 67, 113
1, 391876, Control_c, 0, 67, 111
1, 391891, Control_c, 0, 67, 108
1, 391906, Control_c, 0, 67, 106
1, 391921, Control_c, 0, 67, 105
1, 391936, Control_c, 0, 67, 104
1, 391950, Control_c, 0, 67, 103
1, 391965, Control_c, 0, 67, 102
1, 391980, Control_c, 0, 67, 102
1, 392113, Control_c, 0, 67, 102
1, 392128, Control_c, 0, 67, 103
1, 392143, Control_c, 0, 67, 103
1, 392154, Note_off_c, 0, 58, 41
1, 392157, Control_c, 0, 67, 104
1, 392187, Control_c, 0, 67, 104
1, 392217, Control_c, 0, 67, 105
1, 392239, Control_c, 0, 67, 105
1, 392252, Note_on_c, 0, 68, 35
1, 392254, Control_c, 0, 67, 106
1, 392269, Control_c, 0, 67, 106
1, 392275, Note_on_c, 0, 59, 52
1, 392284, Control_c, 0, 67, 107
1, 392313, Control_c, 0, 67, 107
1, 392343, Control_c, 0, 67, 108
1, 392372, Control_c, 0, 64, 121
1, 392372, Control_c, 0, 67, 109
1, 392387, Control_c, 0, 64, 110
1, 392402, Control_c, 0, 64, 103
1, 392417, Control_c, 0, 64, 98
1, 392431, Control_c, 0, 64, 93
1, 392431, Control_c, 0, 67, 109
1, 392446, Control_c, 0, 64, 89
1, 392461, Control_c, 0, 64, 86
1, 392461, Control_c, 0, 67, 110
1, 392476, Control_c, 0, 64, 83
1, 392490, Control_c, 0, 64, 80
1, 392505, Control_c, 0, 64, 77
1, 392520, Control_c, 0, 64, 74
1, 392535, Control_c, 0, 64, 71
1, 392535, Control_c, 0, 67, 110
1, 392550, Control_c, 0, 64, 69
1, 392565, Control_c, 0, 64, 67
1, 392565, Control_c, 0, 67, 111
1, 392579, Control_c, 0, 64, 65
1, 392594, Control_c, 0, 64, 64
1, 392621, Note_on_c, 0, 65, 49
1, 392636, Note_on_c, 0, 56, 33
1, 392654, Control_c, 0, 64, 65
1, 392654, Control_c, 0, 67, 110
1, 392659, Note_off_c, 0, 68, 43
1, 392669, Control_c, 0, 64, 66
1, 392684, Control_c, 0, 64, 68
1, 392699, Control_c, 0, 64, 70
1, 392699, Control_c, 0, 67, 110
1, 392714, Control_c, 0, 64, 73
1, 392728, Control_c, 0, 64, 75
1, 392728, Control_c, 0, 67, 109
1, 392743, Control_c, 0, 64, 77
1, 392758, Control_c, 0, 64, 79
1, 392758, Control_c, 0, 67, 109
1, 392773, Control_c, 0, 64, 81
1, 392782, Note_off_c, 0, 56, 36
1, 392788, Control_c, 0, 64, 83
1, 392788, Control_c, 0, 67, 108
1, 392790, Note_off_c, 0, 65, 61
1, 392799, Note_on_c, 0, 68, 50
1, 392803, Control_c, 0, 64, 85
1, 392818, Control_c, 0, 64, 87
1, 392818, Control_c, 0, 67, 108
1, 392833, Control_c, 0, 64, 88
1, 392833, Control_c, 0, 67, 107
1, 392848, Control_c, 0, 64, 91
1, 392862, Control_c, 0, 64, 93
1, 392877, Control_c, 0, 64, 94
1, 392892, Control_c, 0, 64, 96
1, 392892, Control_c, 0, 67, 107
1, 392901, Note_off_c, 0, 59, 39
1, 392907, Control_c, 0, 64, 99
1, 392916, Note_on_c, 0, 63, 48
1, 392922, Control_c, 0, 64, 101
1, 392936, Control_c, 0, 64, 103
1, 392938, Note_on_c, 0, 54, 40
1, 392938, Note_off_c, 0, 68, 38
1, 392951, Control_c, 0, 64, 105
1, 392966, Control_c, 0, 64, 107
1, 392966, Control_c, 0, 67, 106
1, 392988, Control_c, 0, 64, 108
1, 393003, Control_c, 0, 64, 110
1, 393018, Control_c, 0, 64, 111
1, 393033, Control_c, 0, 64, 112
1, 393047, Control_c, 0, 64, 113
1, 393062, Note_off_c, 0, 54, 32
1, 393062, Control_c, 0, 64, 113
1, 393068, Note_on_c, 0, 68, 59
1, 393077, Note_on_c, 0, 49, 46
1, 393091, Note_off_c, 0, 63, 38
1, 393101, Note_off_c, 0, 68, 63
1, 393107, Control_c, 0, 64, 114
1, 393121, Control_c, 0, 64, 114
1, 393136, Control_c, 0, 64, 115
1, 393217, Note_on_c, 0, 61, 50
1, 393226, Note_on_c, 0, 53, 40
1, 393255, Control_c, 0, 67, 107
1, 393284, Control_c, 0, 67, 107
1, 393299, Control_c, 0, 67, 108
1, 393313, Control_c, 0, 67, 108
1, 393318, Note_off_c, 0, 49, 41
1, 393328, Control_c, 0, 67, 109
1, 393358, Control_c, 0, 64, 114
1, 393358, Control_c, 0, 67, 109
1, 393373, Control_c, 0, 64, 114
1, 393387, Control_c, 0, 64, 111
1, 393387, Control_c, 0, 67, 110
1, 393402, Control_c, 0, 64, 108
1, 393417, Control_c, 0, 64, 105
1, 393425, Note_on_c, 0, 42, 46
1, 393432, Control_c, 0, 64, 101
1, 393432, Control_c, 0, 67, 110
1, 393435, Note_on_c, 0, 66, 55
1, 393439, Note_off_c, 0, 53, 43
1, 393441, Note_on_c, 0, 58, 48
1, 393447, Control_c, 0, 64, 98
1, 393463, Control_c, 0, 64, 95
1, 393477, Control_c, 0, 64, 90
1, 393477, Control_c, 0, 67, 111
1, 393492, Control_c, 0, 64, 85
1, 393507, Control_c, 0, 64, 77
1, 393522, Control_c, 0, 64, 70
1, 393525, Note_off_c, 0, 61, 35
1, 393536, Control_c, 0, 64, 64
1, 393551, Control_c, 0, 64, 61
1, 393566, Control_c, 0, 67, 110
1, 393581, Control_c, 0, 64, 62
1, 393596, Control_c, 0, 64, 63
1, 393611, Control_c, 0, 64, 64
1, 393626, Control_c, 0, 64, 65
1, 393626, Control_c, 0, 67, 110
1, 393641, Control_c, 0, 64, 68
1, 393656, Control_c, 0, 64, 72
1, 393670, Control_c, 0, 64, 75
1, 393670, Control_c, 0, 67, 109
1, 393685, Control_c, 0, 64, 77
1, 393700, Control_c, 0, 64, 78
1, 393715, Control_c, 0, 64, 80
1, 393736, Control_c, 0, 64, 82
1, 393736, Control_c, 0, 67, 109
1, 393751, Control_c, 0, 64, 85
1, 393766, Control_c, 0, 64, 90
1, 393769, Note_off_c, 0, 42, 41
1, 393773, Note_on_c, 0, 49, 51
1, 393781, Control_c, 0, 64, 95
1, 393781, Control_c, 0, 67, 108
1, 393790, Note_off_c, 0, 58, 32
1, 393796, Control_c, 0, 64, 99
1, 393811, Control_c, 0, 64, 103
1, 393825, Control_c, 0, 64, 106
1, 393840, Control_c, 0, 64, 111
1, 393840, Control_c, 0, 67, 108
1, 393855, Control_c, 0, 64, 123
1, 393855, Control_c, 0, 67, 107
1, 393870, Control_c, 0, 64, 127
1, 393900, Control_c, 0, 67, 107
1, 393959, Control_c, 0, 67, 106
1, 394004, Control_c, 0, 67, 106
1, 394032, Note_off_c, 0, 66, 40
1, 394063, Control_c, 0, 67, 105
1, 394179, Note_on_c, 0, 58, 58
1, 394196, Control_c, 0, 67, 105
1, 394300, Control_c, 0, 67, 104
1, 394501, Control_c, 0, 67, 105
1, 394515, Control_c, 0, 67, 105
1, 394545, Control_c, 0, 67, 106
1, 394549, Note_off_c, 0, 58, 30
1, 394574, Control_c, 0, 67, 106
1, 394589, Control_c, 0, 67, 107
1, 394604, Control_c, 0, 67, 107
1, 394619, Control_c, 0, 67, 108
1, 394633, Control_c, 0, 67, 108
1, 394648, Control_c, 0, 67, 109
1, 394678, Note_on_c, 0, 68, 47
1, 394678, Control_c, 0, 67, 109
1, 394693, Note_on_c, 0, 59, 59
1, 394693, Control_c, 0, 67, 110
1, 394708, Control_c, 0, 67, 110
1, 394723, Control_c, 0, 67, 111
1, 394738, Control_c, 0, 67, 111
1, 394752, Note_off_c, 0, 49, 34
1, 394752, Control_c, 0, 67, 112
1, 394767, Control_c, 0, 64, 119
1, 394767, Control_c, 0, 67, 112
1, 394782, Control_c, 0, 64, 110
1, 394782, Control_c, 0, 67, 113
1, 394797, Control_c, 0, 64, 104
1, 394797, Control_c, 0, 67, 113
1, 394812, Control_c, 0, 64, 97
1, 394812, Control_c, 0, 67, 114
1, 394827, Control_c, 0, 64, 93
1, 394827, Control_c, 0, 67, 114
1, 394842, Control_c, 0, 64, 89
1, 394842, Control_c, 0, 67, 115
1, 394857, Control_c, 0, 64, 85
1, 394857, Control_c, 0, 67, 115
1, 394872, Control_c, 0, 64, 82
1, 394872, Control_c, 0, 67, 116
1, 394886, Control_c, 0, 64, 79
1, 394886, Control_c, 0, 67, 117
1, 394901, Control_c, 0, 64, 77
1, 394901, Control_c, 0, 67, 118
1, 394916, Control_c, 0, 64, 75
1, 394916, Control_c, 0, 67, 119
1, 394931, Control_c, 0, 64, 74
1, 394931, Control_c, 0, 67, 120
1, 394946, Control_c, 0, 64, 73
1, 394946, Control_c, 0, 67, 121
1, 394960, Control_c, 0, 64, 72
1, 394960, Control_c, 0, 67, 122
1, 394975, Control_c, 0, 64, 71
1, 394975, Control_c, 0, 67, 123
1, 394990, Control_c, 0, 64, 69
1, 394990, Control_c, 0, 67, 123
1, 395005, Control_c, 0, 64, 67
1, 395005, Control_c, 0, 67, 124
1, 395020, Control_c, 0, 64, 67
1, 395020, Control_c, 0, 67, 125
1, 395034, Control_c, 0, 67, 125
1, 395046, Note_on_c, 0, 65, 51
1, 395050, Control_c, 0, 64, 67
1, 395054, Note_on_c, 0, 56, 38
1, 395065, Control_c, 0, 67, 126
1, 395079, Note_off_c, 0, 68, 39
1, 395080, Control_c, 0, 64, 68
1, 395095, Control_c, 0, 64, 69
1, 395110, Control_c, 0, 64, 70
1, 395110, Control_c, 0, 67, 126
1, 395124, Control_c, 0, 64, 72
1, 395137, Note_off_c, 0, 56, 52
1, 395139, Control_c, 0, 64, 75
1, 395154, Control_c, 0, 64, 78
1, 395169, Control_c, 0, 64, 80
1, 395183, Control_c, 0, 64, 83
1, 395198, Control_c, 0, 64, 85
1, 395213, Control_c, 0, 64, 87
1, 395220, Note_on_c, 0, 68, 48
1, 395235, Control_c, 0, 64, 90
1, 395244, Note_off_c, 0, 65, 52
1, 395250, Control_c, 0, 64, 94
1, 395265, Control_c, 0, 64, 97
1, 395280, Control_c, 0, 64, 99
1, 395295, Control_c, 0, 64, 101
1, 395309, Control_c, 0, 64, 103
1, 395324, Control_c, 0, 64, 106
1, 395339, Control_c, 0, 64, 109
1, 395339, Control_c, 0, 67, 127
1, 395354, Control_c, 0, 64, 114
1, 395369, Control_c, 0, 64, 127
1, 395380, Note_on_c, 0, 63, 50
1, 395398, Control_c, 0, 67, 127
1, 395408, Note_off_c, 0, 68, 31
1, 395419, Note_on_c, 0, 54, 34
1, 395492, Note_off_c, 0, 59, 34
1, 395561, Note_off_c, 0, 54, 31
1, 395566, Note_on_c, 0, 49, 46
1, 395572, Note_on_c, 0, 68, 31
1, 395586, Note_off_c, 0, 63, 35
1, 395628, Note_off_c, 0, 49, 57
1, 395634, Note_off_c, 0, 68, 48
1, 395784, Note_on_c, 0, 61, 49
1, 395822, Note_on_c, 0, 53, 26
1, 396289, Note_on_c, 0, 58, 46
1, 396289, Note_on_c, 0, 66, 49
1, 396294, Control_c, 0, 64, 123
1, 396309, Control_c, 0, 64, 113
1, 396323, Control_c, 0, 64, 106
1, 396338, Note_on_c, 0, 30, 44
1, 396338, Control_c, 0, 64, 99
1, 396341, Note_on_c, 0, 42, 43
1, 396353, Control_c, 0, 64, 92
1, 396368, Control_c, 0, 64, 84
1, 396383, Control_c, 0, 64, 75
1, 396387, Note_off_c, 0, 61, 31
1, 396398, Control_c, 0, 64, 65
1, 396413, Control_c, 0, 64, 32
1, 396428, Control_c, 0, 64, 0
1, 396435, Note_off_c, 0, 53, 36
1, 396472, Control_c, 0, 64, 24
1, 396487, Control_c, 0, 64, 51
1, 396502, Control_c, 0, 64, 63
1, 396517, Control_c, 0, 64, 67
1, 396531, Control_c, 0, 64, 71
1, 396546, Control_c, 0, 64, 75
1, 396561, Control_c, 0, 64, 78
1, 396576, Control_c, 0, 64, 82
1, 396591, Control_c, 0, 64, 87
1, 396593, Note_off_c, 0, 30, 51
1, 396605, Control_c, 0, 64, 94
1, 396620, Control_c, 0, 64, 100
1, 396635, Control_c, 0, 64, 107
1, 396651, Control_c, 0, 64, 115
1, 396666, Control_c, 0, 64, 127
1, 396676, Note_off_c, 0, 42, 42
1, 396834, Note_off_c, 0, 58, 29
1, 396973, Note_off_c, 0, 66, 27
1, 397399, Note_on_c, 0, 58, 57
1, 397413, Note_on_c, 0, 49, 47
1, 397416, Note_on_c, 0, 54, 39
1, 397525, Note_off_c, 0, 54, 36
1, 397726, Note_off_c, 0, 58, 29
1, 398011, Note_off_c, 0, 49, 54
1, 398014, Control_c, 0, 64, 123
1, 398017, Note_on_c, 0, 59, 50
1, 398020, Note_on_c, 0, 54, 54
1, 398029, Control_c, 0, 64, 115
1, 398029, Note_on_c, 0, 51, 50
1, 398043, Control_c, 0, 64, 111
1, 398058, Control_c, 0, 64, 107
1, 398073, Control_c, 0, 64, 102
1, 398088, Control_c, 0, 64, 95
1, 398102, Control_c, 0, 64, 86
1, 398117, Control_c, 0, 64, 78
1, 398132, Control_c, 0, 64, 69
1, 398147, Control_c, 0, 64, 65
1, 398176, Control_c, 0, 64, 67
1, 398191, Control_c, 0, 64, 68
1, 398206, Control_c, 0, 64, 69
1, 398228, Control_c, 0, 64, 70
1, 398243, Control_c, 0, 64, 72
1, 398259, Control_c, 0, 64, 75
1, 398273, Control_c, 0, 64, 78
1, 398288, Control_c, 0, 64, 80
1, 398303, Control_c, 0, 64, 81
1, 398318, Control_c, 0, 64, 83
1, 398333, Control_c, 0, 64, 85
1, 398344, Note_on_c, 0, 63, 44
1, 398347, Control_c, 0, 64, 88
1, 398362, Control_c, 0, 64, 91
1, 398377, Control_c, 0, 64, 94
1, 398392, Note_off_c, 0, 63, 56
1, 398392, Control_c, 0, 64, 97
1, 398407, Control_c, 0, 64, 99
1, 398422, Control_c, 0, 64, 101
1, 398437, Control_c, 0, 64, 103
1, 398452, Control_c, 0, 64, 106
1, 398467, Control_c, 0, 64, 109
1, 398476, Note_on_c, 0, 65, 49
1, 398481, Control_c, 0, 64, 111
1, 398496, Control_c, 0, 64, 113
1, 398511, Control_c, 0, 64, 115
1, 398524, Note_off_c, 0, 65, 52
1, 398525, Control_c, 0, 64, 116
1, 398540, Control_c, 0, 64, 118
1, 398555, Control_c, 0, 64, 119
1, 398567, Note_on_c, 0, 66, 57
1, 398570, Control_c, 0, 64, 121
1, 398585, Control_c, 0, 64, 123
1, 398599, Control_c, 0, 64, 127
1, 398610, Note_off_c, 0, 59, 36
1, 398620, Note_on_c, 0, 68, 57
1, 398631, Note_off_c, 0, 66, 61
1, 398674, Note_off_c, 0, 68, 59
1, 398696, Note_on_c, 0, 70, 48
1, 398719, Note_off_c, 0, 70, 61
1, 398733, Note_off_c, 0, 54, 36
1, 398770, Note_on_c, 0, 71, 66
1, 398792, Note_off_c, 0, 51, 47
1, 398831, Note_off_c, 0, 71, 62
1, 398836, Control_c, 0, 64, 118
1, 398848, Note_on_c, 0, 72, 59
1, 398851, Control_c, 0, 64, 105
1, 398857, Note_on_c, 0, 49, 65
1, 398860, Note_on_c, 0, 54, 56
1, 398866, Note_on_c, 0, 58, 59
1, 398866, Control_c, 0, 64, 92
1, 398881, Control_c, 0, 64, 80
1, 398896, Control_c, 0, 64, 69
1, 398910, Note_off_c, 0, 72, 60
1, 398911, Control_c, 0, 64, 65
1, 398923, Note_on_c, 0, 73, 62
1, 398925, Control_c, 0, 64, 66
1, 398940, Control_c, 0, 64, 69
1, 398955, Control_c, 0, 64, 72
1, 398975, Note_off_c, 0, 73, 62
1, 398977, Control_c, 0, 64, 76
1, 398992, Control_c, 0, 64, 80
1, 399006, Control_c, 0, 64, 84
1, 399021, Control_c, 0, 64, 89
1, 399034, Note_on_c, 0, 78, 58
1, 399036, Control_c, 0, 64, 92
1, 399045, Note_off_c, 0, 58, 38
1, 399046, Note_off_c, 0, 54, 55
1, 399052, Control_c, 0, 64, 95
1, 399067, Control_c, 0, 64, 96
1, 399082, Control_c, 0, 64, 96
1, 399087, Note_off_c, 0, 78, 54
1, 399094, Note_on_c, 0, 75, 53
1, 399096, Control_c, 0, 64, 97
1, 399111, Control_c, 0, 64, 98
1, 399126, Control_c, 0, 64, 98
1, 399150, Note_off_c, 0, 49, 37
1, 399153, Note_on_c, 0, 47, 49
1, 399173, Note_on_c, 0, 54, 59
1, 399197, Note_on_c, 0, 73, 53
1, 399200, Control_c, 0, 64, 98
1, 399202, Note_off_c, 0, 75, 37
1, 399215, Control_c, 0, 64, 96
1, 399230, Control_c, 0, 64, 92
1, 399245, Control_c, 0, 64, 84
1, 399246, Note_off_c, 0, 73, 61
1, 399248, Note_on_c, 0, 56, 59
1, 399260, Control_c, 0, 64, 74
1, 399270, Note_on_c, 0, 75, 46
1, 399275, Control_c, 0, 64, 65
1, 399289, Control_c, 0, 64, 64
1, 399304, Control_c, 0, 64, 66
1, 399316, Note_off_c, 0, 75, 62
1, 399319, Control_c, 0, 64, 70
1, 399334, Control_c, 0, 64, 73
1, 399341, Note_on_c, 0, 73, 52
1, 399348, Control_c, 0, 64, 77
1, 399363, Control_c, 0, 64, 81
1, 399364, Note_off_c, 0, 73, 63
1, 399378, Control_c, 0, 64, 87
1, 399393, Control_c, 0, 64, 93
1, 399408, Control_c, 0, 64, 99
1, 399420, Note_on_c, 0, 70, 62
1, 399422, Control_c, 0, 64, 104
1, 399437, Control_c, 0, 64, 108
1, 399444, Note_off_c, 0, 70, 62
1, 399452, Control_c, 0, 64, 111
1, 399466, Control_c, 0, 64, 116
1, 399481, Control_c, 0, 64, 122
1, 399483, Note_on_c, 0, 68, 64
1, 399496, Control_c, 0, 64, 127
1, 399501, Note_off_c, 0, 47, 62
1, 399537, Note_off_c, 0, 54, 49
1, 399538, Note_off_c, 0, 68, 48
1, 399572, Note_on_c, 0, 70, 54
1, 399599, Note_off_c, 0, 56, 33
1, 399635, Note_off_c, 0, 70, 56
1, 399643, Note_on_c, 0, 68, 63
1, 399704, Note_off_c, 0, 68, 60
1, 399725, Note_on_c, 0, 66, 54
1, 399767, Note_off_c, 0, 66, 55
1, 399814, Note_on_c, 0, 54, 62
1, 399815, Note_on_c, 0, 58, 62
1, 399815, Control_c, 0, 64, 123
1, 399817, Note_on_c, 0, 49, 62
1, 399822, Note_on_c, 0, 63, 61
1, 399829, Control_c, 0, 64, 109
1, 399845, Control_c, 0, 64, 96
1, 399860, Note_off_c, 0, 63, 56
1, 399860, Control_c, 0, 64, 84
1, 399875, Control_c, 0, 64, 74
1, 399890, Control_c, 0, 64, 67
1, 399905, Control_c, 0, 64, 64
1, 399917, Note_on_c, 0, 66, 52
1, 399919, Control_c, 0, 64, 65
1, 399934, Control_c, 0, 64, 67
1, 399949, Control_c, 0, 64, 70
1, 399956, Note_off_c, 0, 66, 61
1, 399964, Control_c, 0, 64, 73
1, 399978, Control_c, 0, 64, 76
1, 399993, Control_c, 0, 64, 78
1, 400001, Note_on_c, 0, 63, 57
1, 400008, Control_c, 0, 64, 81
1, 400023, Control_c, 0, 64, 84
1, 400038, Control_c, 0, 64, 88
1, 400053, Control_c, 0, 64, 91
1, 400067, Control_c, 0, 64, 93
1, 400069, Note_off_c, 0, 54, 33
1, 400071, Note_off_c, 0, 58, 37
1, 400080, Note_off_c, 0, 63, 60
1, 400082, Control_c, 0, 64, 95
1, 400088, Note_on_c, 0, 61, 57
1, 400097, Control_c, 0, 64, 98
1, 400112, Control_c, 0, 64, 101
1, 400127, Control_c, 0, 64, 102
1, 400142, Control_c, 0, 64, 101
1, 400169, Note_off_c, 0, 49, 58
1, 400171, Control_c, 0, 64, 100
1, 400178, Note_on_c, 0, 54, 62
1, 400185, Note_on_c, 0, 51, 65
1, 400186, Control_c, 0, 64, 96
1, 400201, Control_c, 0, 64, 89
1, 400216, Control_c, 0, 64, 79
1, 400221, Note_off_c, 0, 61, 57
1, 400231, Control_c, 0, 64, 72
1, 400245, Control_c, 0, 64, 67
1, 400260, Control_c, 0, 64, 67
1, 400275, Control_c, 0, 64, 69
1, 400276, Note_on_c, 0, 59, 59
1, 400289, Control_c, 0, 64, 72
1, 400304, Control_c, 0, 64, 76
1, 400318, Note_off_c, 0, 59, 54
1, 400319, Control_c, 0, 64, 82
1, 400334, Control_c, 0, 64, 88
1, 400349, Note_on_c, 0, 63, 57
1, 400349, Control_c, 0, 64, 93
1, 400363, Control_c, 0, 64, 98
1, 400373, Note_off_c, 0, 63, 65
1, 400378, Control_c, 0, 64, 101
1, 400393, Control_c, 0, 64, 104
1, 400408, Control_c, 0, 64, 110
1, 400423, Control_c, 0, 64, 118
1, 400437, Control_c, 0, 64, 127
1, 400460, Note_on_c, 0, 65, 60
1, 400506, Note_off_c, 0, 65, 60
1, 400525, Note_off_c, 0, 54, 58
1, 400535, Note_on_c, 0, 66, 58
1, 400598, Note_on_c, 0, 68, 67
1, 400612, Note_off_c, 0, 66, 60
1, 400655, Note_off_c, 0, 68, 62
1, 400685, Note_on_c, 0, 70, 44
1, 400709, Note_off_c, 0, 70, 59
1, 400755, Note_on_c, 0, 71, 60
1, 400806, Note_off_c, 0, 71, 63
1, 400810, Note_on_c, 0, 73, 70
1, 400878, Note_off_c, 0, 73, 62
1, 400887, Note_on_c, 0, 75, 50
1, 400887, Note_on_c, 0, 63, 71
1, 400889, Note_on_c, 0, 54, 69
1, 400890, Control_c, 0, 64, 113
1, 400896, Note_on_c, 0, 59, 62
1, 400905, Control_c, 0, 64, 95
1, 400910, Note_off_c, 0, 75, 59
1, 400915, Note_off_c, 0, 51, 56
1, 400920, Control_c, 0, 64, 82
1, 400935, Control_c, 0, 64, 71
1, 400950, Control_c, 0, 64, 66
1, 400975, Note_on_c, 0, 77, 70
1, 400980, Control_c, 0, 64, 70
1, 400994, Control_c, 0, 64, 76
1, 401009, Control_c, 0, 64, 82
1, 401016, Note_off_c, 0, 59, 59
1, 401024, Control_c, 0, 64, 88
1, 401025, Note_off_c, 0, 63, 49
1, 401039, Control_c, 0, 64, 92
1, 401053, Note_on_c, 0, 78, 43
1, 401054, Control_c, 0, 64, 97
1, 401068, Control_c, 0, 64, 103
1, 401083, Control_c, 0, 64, 108
1, 401093, Note_off_c, 0, 54, 39
1, 401098, Control_c, 0, 64, 112
1, 401100, Note_off_c, 0, 77, 35
1, 401120, Note_off_c, 0, 78, 58
1, 401135, Note_on_c, 0, 83, 56
1, 401203, Note_off_c, 0, 83, 63
1, 401224, Control_c, 0, 64, 110
1, 401234, Note_on_c, 0, 82, 61
1, 401239, Control_c, 0, 64, 107
1, 401253, Note_on_c, 0, 58, 60
1, 401253, Control_c, 0, 64, 100
1, 401257, Note_on_c, 0, 61, 55
1, 401266, Note_on_c, 0, 54, 54
1, 401268, Control_c, 0, 64, 89
1, 401283, Control_c, 0, 64, 78
1, 401298, Control_c, 0, 64, 69
1, 401305, Note_off_c, 0, 82, 63
1, 401313, Control_c, 0, 64, 64
1, 401314, Note_on_c, 0, 78, 49
1, 401327, Control_c, 0, 64, 64
1, 401337, Note_off_c, 0, 78, 58
1, 401342, Control_c, 0, 64, 67
1, 401357, Control_c, 0, 64, 70
1, 401372, Control_c, 0, 64, 76
1, 401387, Control_c, 0, 64, 81
1, 401394, Note_on_c, 0, 77, 59
1, 401401, Control_c, 0, 64, 87
1, 401416, Note_off_c, 0, 77, 63
1, 401416, Control_c, 0, 64, 92
1, 401431, Control_c, 0, 64, 97
1, 401447, Note_on_c, 0, 75, 70
1, 401447, Control_c, 0, 64, 101
1, 401462, Control_c, 0, 64, 106
1, 401477, Control_c, 0, 64, 112
1, 401492, Control_c, 0, 64, 121
1, 401498, Note_off_c, 0, 75, 60
1, 401504, Note_off_c, 0, 58, 38
1, 401506, Control_c, 0, 64, 127
1, 401538, Note_on_c, 0, 78, 61
1, 401555, Note_off_c, 0, 61, 29
1, 401591, Note_on_c, 0, 75, 60
1, 401594, Note_off_c, 0, 78, 59
1, 401659, Note_off_c, 0, 75, 63
1, 401672, Note_on_c, 0, 73, 57
1, 401692, Note_off_c, 0, 73, 62
1, 401700, Note_off_c, 0, 54, 56
1, 401739, Note_on_c, 0, 49, 54
1, 401742, Note_on_c, 0, 71, 61
1, 401766, Note_off_c, 0, 71, 57
1, 401811, Note_on_c, 0, 70, 55
1, 401820, Note_on_c, 0, 61, 70
1, 401872, Note_off_c, 0, 70, 62
1, 401882, Note_on_c, 0, 68, 56
1, 401951, Note_off_c, 0, 68, 59
1, 401955, Note_on_c, 0, 66, 69
1, 401970, Note_off_c, 0, 61, 51
1, 402016, Note_on_c, 0, 70, 52
1, 402023, Note_off_c, 0, 66, 60
1, 402084, Note_off_c, 0, 70, 62
1, 402091, Note_on_c, 0, 54, 64
1, 402129, Note_on_c, 0, 63, 73
1, 402163, Note_on_c, 0, 71, 63
1, 402166, Control_c, 0, 64, 122
1, 402181, Control_c, 0, 64, 102
1, 402196, Control_c, 0, 64, 88
1, 402208, Note_off_c, 0, 49, 36
1, 402211, Control_c, 0, 64, 76
1, 402223, Note_off_c, 0, 71, 62
1, 402225, Control_c, 0, 64, 67
1, 402241, Control_c, 0, 64, 65
1, 402248, Note_on_c, 0, 73, 66
1, 402255, Control_c, 0, 64, 66
1, 402270, Control_c, 0, 64, 69
1, 402285, Control_c, 0, 64, 74
1, 402299, Control_c, 0, 64, 79
1, 402305, Note_off_c, 0, 73, 63
1, 402314, Control_c, 0, 64, 87
1, 402314, Control_c, 0, 67, 126
1, 402315, Note_on_c, 0, 75, 45
1, 402329, Control_c, 0, 64, 92
1, 402329, Control_c, 0, 67, 125
1, 402343, Note_off_c, 0, 75, 65
1, 402344, Control_c, 0, 64, 96
1, 402344, Control_c, 0, 67, 124
1, 402359, Control_c, 0, 64, 99
1, 402359, Control_c, 0, 67, 123
1, 402373, Control_c, 0, 64, 102
1, 402373, Control_c, 0, 67, 123
1, 402388, Control_c, 0, 64, 106
1, 402388, Control_c, 0, 67, 122
1, 402403, Control_c, 0, 64, 111
1, 402403, Control_c, 0, 67, 121
1, 402410, Note_on_c, 0, 77, 61
1, 402418, Control_c, 0, 64, 115
1, 402418, Control_c, 0, 67, 121
1, 402422, Note_on_c, 0, 79, 52
1, 402433, Control_c, 0, 64, 119
1, 402433, Control_c, 0, 67, 120
1, 402445, Note_off_c, 0, 79, 55
1, 402447, Control_c, 0, 64, 127
1, 402447, Control_c, 0, 67, 120
1, 402459, Note_off_c, 0, 77, 60
1, 402462, Control_c, 0, 67, 119
1, 402467, Note_on_c, 0, 78, 67
1, 402477, Control_c, 0, 67, 119
1, 402491, Control_c, 0, 67, 118
1, 402506, Control_c, 0, 67, 117
1, 402521, Control_c, 0, 67, 116
1, 402536, Control_c, 0, 67, 115
1, 402539, Note_on_c, 0, 80, 70
1, 402542, Note_off_c, 0, 78, 62
1, 402551, Control_c, 0, 67, 114
1, 402565, Control_c, 0, 67, 113
1, 402580, Note_off_c, 0, 63, 47
1, 402580, Control_c, 0, 67, 111
1, 402595, Control_c, 0, 67, 110
1, 402601, Note_off_c, 0, 80, 63
1, 402610, Control_c, 0, 67, 108
1, 402618, Note_on_c, 0, 82, 71
1, 402625, Control_c, 0, 67, 106
1, 402640, Control_c, 0, 67, 105
1, 402655, Control_c, 0, 67, 104
1, 402670, Control_c, 0, 67, 104
1, 402671, Note_off_c, 0, 82, 65
1, 402676, Note_off_c, 0, 54, 56
1, 402684, Control_c, 0, 67, 103
1, 402699, Control_c, 0, 67, 102
1, 402706, Note_on_c, 0, 83, 74
1, 402735, Note_on_c, 0, 49, 43
1, 402795, Control_c, 0, 67, 102
1, 402806, Note_on_c, 0, 58, 58
1, 402807, Note_off_c, 0, 83, 57
1, 402810, Note_on_c, 0, 84, 67
1, 402810, Control_c, 0, 64, 107
1, 402825, Control_c, 0, 64, 89
1, 402840, Control_c, 0, 64, 76
1, 402855, Control_c, 0, 64, 67
1, 402870, Control_c, 0, 64, 64
1, 402884, Control_c, 0, 64, 64
1, 402884, Control_c, 0, 67, 102
1, 402899, Control_c, 0, 64, 68
1, 402912, Note_on_c, 0, 85, 55
1, 402914, Control_c, 0, 64, 72
1, 402914, Control_c, 0, 67, 101
1, 402917, Note_on_c, 0, 61, 64
1, 402927, Note_off_c, 0, 84, 56
1, 402929, Control_c, 0, 64, 76
1, 402944, Control_c, 0, 64, 80
1, 402944, Control_c, 0, 67, 101
1, 402959, Control_c, 0, 64, 86
1, 402960, Note_off_c, 0, 49, 36
1, 402967, Note_off_c, 0, 58, 61
1, 402973, Control_c, 0, 64, 92
1, 402988, Control_c, 0, 64, 100
1, 402988, Control_c, 0, 67, 100
1, 403003, Control_c, 0, 64, 108
1, 403009, Note_off_c, 0, 85, 63
1, 403017, Control_c, 0, 64, 114
1, 403017, Control_c, 0, 67, 99
1, 403022, Note_off_c, 0, 61, 57
1, 403029, Note_on_c, 0, 90, 73
1, 403032, Control_c, 0, 64, 123
1, 403032, Control_c, 0, 67, 97
1, 403048, Control_c, 0, 64, 127
1, 403048, Control_c, 0, 67, 95
1, 403063, Control_c, 0, 67, 93
1, 403078, Control_c, 0, 67, 92
1, 403093, Control_c, 0, 67, 91
1, 403108, Control_c, 0, 67, 89
1, 403122, Control_c, 0, 67, 87
1, 403129, Note_on_c, 0, 87, 59
1, 403137, Control_c, 0, 67, 85
1, 403152, Control_c, 0, 67, 84
1, 403157, Note_off_c, 0, 90, 61
1, 403167, Control_c, 0, 67, 83
1, 403182, Control_c, 0, 67, 82
1, 403196, Control_c, 0, 67, 81
1, 403211, Control_c, 0, 67, 81
1, 403226, Control_c, 0, 67, 80
1, 403294, Note_on_c, 0, 70, 69
1, 403317, Note_on_c, 0, 58, 54
1, 403319, Note_on_c, 0, 61, 58
1, 403333, Note_off_c, 0, 87, 38
1, 403335, Note_on_c, 0, 85, 54
1, 403374, Control_c, 0, 67, 81
1, 403400, Note_off_c, 0, 85, 63
1, 403403, Control_c, 0, 67, 81
1, 403418, Control_c, 0, 67, 82
1, 403433, Note_on_c, 0, 87, 53
1, 403448, Control_c, 0, 67, 82
1, 403470, Control_c, 0, 67, 83
1, 403485, Control_c, 0, 67, 84
1, 403510, Note_off_c, 0, 87, 52
1, 403515, Control_c, 0, 67, 84
1, 403519, Note_on_c, 0, 85, 59
1, 403529, Control_c, 0, 67, 85
1, 403544, Control_c, 0, 67, 85
1, 403548, Note_off_c, 0, 85, 66
1, 403559, Control_c, 0, 67, 86
1, 403574, Control_c, 0, 67, 87
1, 403588, Control_c, 0, 67, 87
1, 403606, Note_on_c, 0, 82, 62
1, 403618, Control_c, 0, 67, 88
1, 403648, Control_c, 0, 67, 89
1, 403651, Note_off_c, 0, 82, 0
1, 403651, Note_on_c, 0, 82, 34
1, 403662, Control_c, 0, 67, 89
1, 403665, Note_off_c, 0, 58, 33
1, 403668, Note_off_c, 0, 61, 36
1, 403677, Control_c, 0, 67, 90
1, 403689, Note_off_c, 0, 82, 60
1, 403692, Control_c, 0, 67, 90
1, 403707, Control_c, 0, 67, 91
1, 403708, Note_on_c, 0, 80, 61
1, 403722, Control_c, 0, 67, 92
1, 403752, Control_c, 0, 67, 93
1, 403755, Note_off_c, 0, 80, 57
1, 403767, Control_c, 0, 67, 94
1, 403782, Control_c, 0, 67, 95
1, 403788, Note_on_c, 0, 82, 64
1, 403796, Control_c, 0, 67, 96
1, 403811, Control_c, 0, 67, 97
1, 403826, Control_c, 0, 67, 98
1, 403841, Control_c, 0, 67, 99
1, 403856, Control_c, 0, 67, 100
1, 403871, Control_c, 0, 67, 101
1, 403880, Note_on_c, 0, 80, 58
1, 403886, Control_c, 0, 67, 102
1, 403892, Note_off_c, 0, 82, 52
1, 403901, Control_c, 0, 67, 104
1, 403916, Control_c, 0, 67, 105
1, 403931, Control_c, 0, 67, 106
1, 403945, Control_c, 0, 67, 106
1, 403960, Control_c, 0, 67, 107
1, 403969, Note_off_c, 0, 80, 60
1, 403975, Control_c, 0, 67, 109
1, 403990, Note_on_c, 0, 78, 56
1, 403990, Control_c, 0, 67, 110
1, 404005, Control_c, 0, 67, 111
1, 404019, Control_c, 0, 67, 111
1, 404034, Control_c, 0, 67, 112
1, 404049, Control_c, 0, 67, 113
1, 404063, Control_c, 0, 67, 114
1, 404065, Note_off_c, 0, 78, 51
1, 404078, Control_c, 0, 67, 115
1, 404093, Control_c, 0, 67, 116
1, 404107, Note_on_c, 0, 66, 63
1, 404108, Control_c, 0, 67, 117
1, 404123, Control_c, 0, 67, 118
1, 404124, Note_on_c, 0, 75, 47
1, 404136, Note_on_c, 0, 61, 37
1, 404137, Control_c, 0, 67, 118
1, 404152, Control_c, 0, 67, 119
1, 404166, Poly_aftertouch_c, 0, 58, 127
1, 404167, Control_c, 0, 67, 120
1, 404182, Control_c, 0, 67, 121
1, 404183, Note_off_c, 0, 70, 37
1, 404197, Control_c, 0, 67, 122
1, 404219, Control_c, 0, 67, 123
1, 404220, Poly_aftertouch_c, 0, 58, 0
1, 404228, Note_off_c, 0, 75, 42
1, 404234, Control_c, 0, 67, 124
1, 404249, Control_c, 0, 67, 125
1, 404262, Note_on_c, 0, 78, 49
1, 404264, Control_c, 0, 67, 126
1, 404270, Note_off_c, 0, 66, 48
1, 404278, Control_c, 0, 67, 127
1, 404293, Control_c, 0, 67, 127
1, 404372, Note_off_c, 0, 61, 16
1, 404398, Note_on_c, 0, 75, 43
1, 404420, Note_off_c, 0, 78, 47
1, 404537, Note_on_c, 0, 73, 47
1, 404551, Note_off_c, 0, 75, 55
1, 404862, Note_on_c, 0, 63, 49
1, 404864, Note_on_c, 0, 66, 43
1, 404870, Note_on_c, 0, 56, 49
1, 404898, Note_off_c, 0, 73, 56
1, 404902, Control_c, 0, 64, 120
1, 404917, Control_c, 0, 64, 115
1, 404932, Control_c, 0, 64, 111
1, 404940, Note_on_c, 0, 71, 50
1, 404947, Control_c, 0, 64, 107
1, 404968, Control_c, 0, 64, 104
1, 404983, Control_c, 0, 64, 100
1, 404998, Control_c, 0, 64, 98
1, 405013, Control_c, 0, 64, 95
1, 405028, Control_c, 0, 64, 93
1, 405043, Control_c, 0, 64, 91
1, 405058, Control_c, 0, 64, 88
1, 405072, Control_c, 0, 64, 84
1, 405087, Control_c, 0, 64, 80
1, 405102, Control_c, 0, 64, 74
1, 405117, Control_c, 0, 64, 69
1, 405129, Note_on_c, 0, 75, 50
1, 405129, Note_off_c, 0, 71, 55
1, 405132, Control_c, 0, 64, 65
1, 405147, Control_c, 0, 64, 65
1, 405176, Control_c, 0, 64, 65
1, 405191, Control_c, 0, 64, 66
1, 405206, Control_c, 0, 64, 68
1, 405220, Control_c, 0, 64, 72
1, 405235, Control_c, 0, 64, 76
1, 405250, Control_c, 0, 64, 81
1, 405251, Note_off_c, 0, 75, 49
1, 405252, Note_on_c, 0, 78, 64
1, 405265, Control_c, 0, 64, 85
1, 405280, Control_c, 0, 64, 88
1, 405294, Control_c, 0, 64, 92
1, 405309, Control_c, 0, 64, 96
1, 405324, Control_c, 0, 64, 102
1, 405337, Note_off_c, 0, 78, 61
1, 405339, Control_c, 0, 64, 109
1, 405348, Note_on_c, 0, 82, 60
1, 405354, Control_c, 0, 64, 120
1, 405368, Control_c, 0, 64, 127
1, 405410, Note_off_c, 0, 82, 64
1, 405476, Note_on_c, 0, 83, 62
1, 405514, Note_off_c, 0, 63, 36
1, 405596, Note_on_c, 0, 85, 61
1, 405613, Note_off_c, 0, 83, 40
1, 405674, Note_off_c, 0, 56, 27
1, 405724, Note_on_c, 0, 87, 68
1, 405726, Note_off_c, 0, 85, 63
1, 405741, Note_off_c, 0, 66, 34
1, 405818, Note_off_c, 0, 87, 64
1, 405859, Note_on_c, 0, 89, 61
1, 405994, Note_on_c, 0, 90, 61
1, 406006, Note_on_c, 0, 71, 47
1, 406019, Note_on_c, 0, 61, 43
1, 406020, Note_on_c, 0, 65, 46
1, 406026, Note_off_c, 0, 89, 40
1, 406028, Control_c, 0, 64, 110
1, 406042, Control_c, 0, 64, 98
1, 406057, Control_c, 0, 64, 89
1, 406072, Control_c, 0, 64, 80
1, 406087, Control_c, 0, 64, 72
1, 406102, Control_c, 0, 64, 67
1, 406130, Note_on_c, 0, 92, 59
1, 406131, Control_c, 0, 64, 69
1, 406146, Control_c, 0, 64, 73
1, 406161, Control_c, 0, 64, 76
1, 406171, Note_off_c, 0, 90, 59
1, 406176, Control_c, 0, 64, 79
1, 406180, Note_off_c, 0, 65, 56
1, 406190, Control_c, 0, 64, 81
1, 406192, Note_off_c, 0, 71, 51
1, 406205, Control_c, 0, 64, 85
1, 406220, Control_c, 0, 64, 89
1, 406236, Control_c, 0, 64, 95
1, 406251, Control_c, 0, 64, 100
1, 406266, Control_c, 0, 64, 105
1, 406280, Control_c, 0, 64, 108
1, 406289, Note_on_c, 0, 94, 64
1, 406295, Control_c, 0, 64, 109
1, 406310, Control_c, 0, 64, 111
1, 406321, Note_off_c, 0, 92, 61
1, 406325, Control_c, 0, 64, 115
1, 406339, Control_c, 0, 64, 119
1, 406354, Control_c, 0, 64, 121
1, 406369, Control_c, 0, 64, 122
1, 406446, Note_off_c, 0, 94, 63
1, 406453, Note_on_c, 0, 95, 70
1, 406542, Note_off_c, 0, 61, 39
1, 406599, Control_c, 0, 64, 119
1, 406603, Note_on_c, 0, 54, 39
1, 406614, Control_c, 0, 64, 116
1, 406628, Control_c, 0, 64, 113
1, 406643, Control_c, 0, 64, 110
1, 406658, Control_c, 0, 64, 107
1, 406673, Control_c, 0, 64, 103
1, 406676, Note_on_c, 0, 96, 61
1, 406688, Control_c, 0, 64, 96
1, 406703, Control_c, 0, 64, 88
1, 406716, Note_off_c, 0, 95, 52
1, 406718, Control_c, 0, 64, 79
1, 406732, Control_c, 0, 64, 71
1, 406747, Control_c, 0, 64, 66
1, 406762, Control_c, 0, 64, 65
1, 406777, Control_c, 0, 64, 66
1, 406792, Control_c, 0, 64, 66
1, 406806, Control_c, 0, 64, 67
1, 406821, Control_c, 0, 64, 68
1, 406836, Control_c, 0, 64, 70
1, 406851, Control_c, 0, 64, 73
1, 406865, Control_c, 0, 64, 77
1, 406871, Note_on_c, 0, 61, 49
1, 406880, Control_c, 0, 64, 81
1, 406895, Control_c, 0, 64, 84
1, 406905, Note_on_c, 0, 97, 70
1, 406910, Control_c, 0, 64, 86
1, 406925, Control_c, 0, 64, 88
1, 406939, Control_c, 0, 64, 91
1, 406945, Note_off_c, 0, 54, 37
1, 406953, Note_off_c, 0, 96, 62
1, 406954, Control_c, 0, 64, 95
1, 406969, Control_c, 0, 64, 101
1, 406984, Control_c, 0, 64, 106
1, 406999, Control_c, 0, 64, 108
1, 407013, Control_c, 0, 64, 110
1, 407028, Control_c, 0, 64, 113
1, 407044, Control_c, 0, 64, 119
1, 407059, Control_c, 0, 64, 127
1, 407339, Note_on_c, 0, 102, 62
1, 407396, Note_on_c, 0, 70, 43
1, 407410, Note_off_c, 0, 97, 52
1, 407723, Note_on_c, 0, 99, 58
1, 407765, Note_off_c, 0, 102, 39
1, 407915, Note_on_c, 0, 97, 56
1, 407941, Note_off_c, 0, 99, 40
1, 408025, Note_off_c, 0, 97, 64
1, 408075, Note_on_c, 0, 95, 59
1, 408156, Note_off_c, 0, 95, 56
1, 408181, Note_on_c, 0, 94, 61
1, 408275, Note_on_c, 0, 92, 57
1, 408314, Note_off_c, 0, 94, 44
1, 408342, Note_on_c, 0, 90, 61
1, 408342, Note_off_c, 0, 92, 58
1, 408399, Note_off_c, 0, 90, 62
1, 408417, Note_on_c, 0, 94, 67
1, 408498, Note_on_c, 0, 90, 57
1, 408498, Note_off_c, 0, 94, 63
1, 408537, Note_off_c, 0, 90, 62
1, 408599, Note_on_c, 0, 89, 55
1, 408679, Note_off_c, 0, 89, 59
1, 408697, Note_on_c, 0, 87, 54
1, 408754, Note_off_c, 0, 87, 63
1, 408787, Note_on_c, 0, 90, 62
1, 408854, Note_off_c, 0, 90, 63
1, 408863, Note_on_c, 0, 87, 72
1, 408934, Note_off_c, 0, 87, 64
1, 408938, Note_on_c, 0, 85, 70
1, 408962, Note_off_c, 0, 85, 69
1, 409021, Note_on_c, 0, 83, 67
1, 409036, Note_off_c, 0, 70, 36
1, 409045, Note_off_c, 0, 83, 69
1, 409085, Note_on_c, 0, 82, 70
1, 409151, Note_on_c, 0, 80, 67
1, 409156, Note_off_c, 0, 82, 58
1, 409206, Note_off_c, 0, 80, 61
1, 409217, Note_on_c, 0, 78, 44
1, 409254, Note_on_c, 0, 82, 74
1, 409279, Note_off_c, 0, 78, 38
1, 409315, Note_on_c, 0, 78, 64
1, 409323, Note_off_c, 0, 82, 64
1, 409345, Note_off_c, 0, 78, 63
1, 409404, Note_on_c, 0, 77, 71
1, 409465, Note_off_c, 0, 77, 39
1, 409477, Note_on_c, 0, 75, 74
1, 409535, Note_off_c, 0, 75, 60
1, 409560, Note_on_c, 0, 78, 70
1, 409611, Note_on_c, 0, 75, 67
1, 409624, Note_off_c, 0, 78, 57
1, 409678, Note_off_c, 0, 75, 63
1, 409681, Note_on_c, 0, 73, 70
1, 409710, Note_off_c, 0, 73, 65
1, 409755, Note_on_c, 0, 71, 68
1, 409779, Note_off_c, 0, 71, 70
1, 409815, Note_on_c, 0, 70, 74
1, 409851, Note_on_c, 0, 68, 73
1, 409884, Note_off_c, 0, 70, 63
1, 409904, Note_on_c, 0, 66, 58
1, 409919, Note_off_c, 0, 68, 50
1, 409932, Note_off_c, 0, 66, 55
1, 409946, Note_on_c, 0, 70, 69
1, 410001, Note_off_c, 0, 61, 57
1, 410013, Note_on_c, 0, 66, 55
1, 410015, Note_off_c, 0, 70, 63
1, 410040, Note_off_c, 0, 66, 63
1, 410074, Note_on_c, 0, 65, 65
1, 410105, Note_off_c, 0, 65, 56
1, 410128, Note_on_c, 0, 63, 70
1, 410171, Control_c, 0, 67, 127
1, 410186, Control_c, 0, 67, 126
1, 410189, Note_off_c, 0, 63, 60
1, 410208, Control_c, 0, 67, 126
1, 410209, Note_on_c, 0, 66, 77
1, 410223, Control_c, 0, 67, 125
1, 410239, Control_c, 0, 67, 123
1, 410253, Control_c, 0, 67, 122
1, 410268, Note_on_c, 0, 63, 77
1, 410268, Control_c, 0, 67, 121
1, 410272, Note_off_c, 0, 66, 62
1, 410283, Control_c, 0, 67, 120
1, 410298, Control_c, 0, 67, 116
1, 410313, Control_c, 0, 67, 111
1, 410327, Note_off_c, 0, 63, 62
1, 410328, Control_c, 0, 67, 107
1, 410331, Note_on_c, 0, 61, 69
1, 410343, Control_c, 0, 67, 103
1, 410358, Control_c, 0, 67, 101
1, 410358, Note_off_c, 0, 61, 65
1, 410400, Note_on_c, 0, 59, 67
1, 410425, Note_off_c, 0, 59, 66
1, 410456, Note_on_c, 0, 58, 75
1, 410497, Note_on_c, 0, 56, 73
1, 410529, Note_off_c, 0, 58, 63
1, 410546, Note_on_c, 0, 54, 72
1, 410546, Note_off_c, 0, 56, 65
1, 410582, Note_off_c, 0, 54, 60
1, 410592, Note_on_c, 0, 58, 69
1, 410595, Control_c, 0, 67, 101
1, 410639, Control_c, 0, 67, 100
1, 410650, Note_on_c, 0, 54, 66
1, 410654, Control_c, 0, 67, 100
1, 410660, Note_off_c, 0, 58, 61
1, 410669, Control_c, 0, 67, 99
1, 410679, Note_off_c, 0, 54, 68
1, 410684, Control_c, 0, 67, 98
1, 410699, Control_c, 0, 67, 97
1, 410713, Control_c, 0, 67, 96
1, 410718, Note_on_c, 0, 53, 62
1, 410728, Control_c, 0, 67, 95
1, 410742, Note_off_c, 0, 53, 65
1, 410743, Control_c, 0, 67, 93
1, 410758, Control_c, 0, 67, 91
1, 410773, Control_c, 0, 67, 89
1, 410775, Note_on_c, 0, 51, 76
1, 410787, Control_c, 0, 64, 110
1, 410787, Control_c, 0, 67, 88
1, 410802, Control_c, 0, 64, 91
1, 410802, Control_c, 0, 67, 86
1, 410817, Control_c, 0, 64, 82
1, 410817, Control_c, 0, 67, 84
1, 410832, Control_c, 0, 64, 79
1, 410832, Control_c, 0, 67, 80
1, 410840, Note_on_c, 0, 49, 66
1, 410845, Note_off_c, 0, 51, 65
1, 410846, Control_c, 0, 67, 73
1, 410861, Control_c, 0, 64, 82
1, 410861, Control_c, 0, 67, 66
1, 410870, Note_off_c, 0, 49, 66
1, 410876, Control_c, 0, 64, 92
1, 410876, Control_c, 0, 67, 60
1, 410886, Note_on_c, 0, 47, 76
1, 410891, Control_c, 0, 64, 127
1, 410891, Control_c, 0, 67, 54
1, 410906, Control_c, 0, 67, 51
1, 410915, Note_off_c, 0, 47, 65
1, 410921, Control_c, 0, 67, 46
1, 410936, Control_c, 0, 67, 41
1, 410958, Control_c, 0, 64, 96
1, 410958, Control_c, 0, 67, 33
1, 410973, Control_c, 0, 64, 77
1, 410973, Control_c, 0, 67, 25
1, 410987, Control_c, 0, 64, 68
1, 410987, Control_c, 0, 67, 17
1, 411002, Control_c, 0, 64, 67
1, 411002, Control_c, 0, 67, 12
1, 411004, Note_on_c, 0, 48, 54
1, 411010, Note_on_c, 0, 47, 53
1, 411017, Control_c, 0, 64, 71
1, 411017, Control_c, 0, 67, 9
1, 411033, Control_c, 0, 64, 82
1, 411033, Control_c, 0, 67, 0
1, 411037, Note_off_c, 0, 47, 66
1, 411040, Poly_aftertouch_c, 0, 46, 127
1, 411043, Note_off_c, 0, 48, 64
1, 411048, Control_c, 0, 64, 110
1, 411061, Poly_aftertouch_c, 0, 46, 0
1, 411062, Control_c, 0, 64, 127
1, 411143, Note_on_c, 0, 44, 75
1, 411179, Note_off_c, 0, 44, 66
1, 411185, Note_on_c, 0, 43, 43
1, 411205, Note_on_c, 0, 41, 78
1, 411223, Note_off_c, 0, 43, 49
1, 411267, Note_off_c, 0, 41, 37
1, 411297, Note_on_c, 0, 40, 58
1, 411329, Note_on_c, 0, 39, 68
1, 411337, Poly_aftertouch_c, 0, 41, 0
1, 411345, Note_off_c, 0, 40, 57
1, 411374, Note_on_c, 0, 37, 82
1, 411379, Poly_aftertouch_c, 0, 27, 127
1, 411392, Poly_aftertouch_c, 0, 42, 0
1, 411392, Note_off_c, 0, 39, 61
1, 411413, Note_off_c, 0, 37, 65
1, 411457, Note_on_c, 0, 33, 68
1, 411463, Note_on_c, 0, 35, 64
1, 411474, Poly_aftertouch_c, 0, 27, 0
1, 411486, Note_on_c, 0, 34, 74
1, 411488, Note_off_c, 0, 33, 61
1, 411493, Note_off_c, 0, 35, 64
1, 411507, Control_c, 0, 64, 98
1, 411514, Note_off_c, 0, 34, 63
1, 411521, Control_c, 0, 64, 74
1, 411534, Note_on_c, 0, 30, 93
1, 411536, Control_c, 0, 64, 0
1, 411610, Control_c, 0, 64, 62
1, 411625, Control_c, 0, 64, 72
1, 411640, Control_c, 0, 64, 89
1, 411654, Control_c, 0, 64, 127
1, 411675, Note_off_c, 0, 30, 66
1, 412241, Control_c, 0, 64, 92
1, 412256, Control_c, 0, 64, 73
1, 412270, Control_c, 0, 64, 62
1, 412285, Note_on_c, 0, 85, 94
1, 412285, Control_c, 0, 64, 62
1, 412288, Note_on_c, 0, 73, 97
1, 412300, Control_c, 0, 64, 65
1, 412307, Note_on_c, 0, 61, 83
1, 412315, Control_c, 0, 64, 72
1, 412323, Note_on_c, 0, 49, 56
1, 412330, Control_c, 0, 64, 81
1, 412344, Control_c, 0, 64, 93
1, 412352, Note_off_c, 0, 49, 64
1, 412357, Note_off_c, 0, 73, 59
1, 412359, Control_c, 0, 64, 107
1, 412374, Control_c, 0, 64, 127
1, 412459, Note_off_c, 0, 61, 59
1, 412560, Note_on_c, 0, 90, 101
1, 412564, Note_on_c, 0, 78, 98
1, 412566, Note_on_c, 0, 66, 92
1, 412567, Note_off_c, 0, 85, 64
1, 412572, Note_on_c, 0, 54, 82
1, 412596, Note_off_c, 0, 54, 71
1, 412596, Note_off_c, 0, 66, 62
1, 412600, Note_off_c, 0, 78, 66
1, 412601, Note_off_c, 0, 90, 69
1, 412608, Poly_aftertouch_c, 0, 58, 0
1, 412989, Control_c, 0, 64, 122
1, 413004, Control_c, 0, 64, 113
1, 413018, Control_c, 0, 64, 108
1, 413033, Control_c, 0, 64, 105
1, 413048, Control_c, 0, 64, 102
1, 413063, Control_c, 0, 64, 100
1, 413078, Control_c, 0, 64, 97
1, 413092, Control_c, 0, 64, 95
1, 413107, Control_c, 0, 64, 94
1, 413122, Control_c, 0, 64, 92
1, 413137, Control_c, 0, 64, 91
1, 413152, Control_c, 0, 64, 89
1, 413166, Control_c, 0, 64, 87
1, 413181, Control_c, 0, 64, 85
1, 413204, Control_c, 0, 64, 84
1, 413219, Control_c, 0, 64, 83
1, 413233, Control_c, 0, 64, 82
1, 413248, Control_c, 0, 64, 81
1, 413263, Control_c, 0, 64, 80
1, 413278, Control_c, 0, 64, 78
1, 413293, Control_c, 0, 64, 77
1, 413307, Control_c, 0, 64, 76
1, 413322, Control_c, 0, 64, 76
1, 413337, Control_c, 0, 64, 74
1, 413352, Control_c, 0, 64, 73
1, 413367, Control_c, 0, 64, 72
1, 413381, Control_c, 0, 64, 70
1, 413396, Control_c, 0, 64, 70
1, 413411, Control_c, 0, 64, 69
1, 413427, Control_c, 0, 64, 68
1, 413442, Control_c, 0, 64, 67
1, 413456, Control_c, 0, 64, 66
1, 413471, Control_c, 0, 64, 64
1, 413486, Control_c, 0, 64, 60
1, 413501, Control_c, 0, 64, 39
1, 413516, Control_c, 0, 64, 0
1, 413567, Note_on_c, 0, 73, 102
1, 413568, Note_on_c, 0, 61, 99
1, 413583, Note_on_c, 0, 49, 80
1, 413585, Note_on_c, 0, 37, 73
1, 413604, Control_c, 0, 64, 62
1, 413619, Control_c, 0, 64, 69
1, 413634, Control_c, 0, 64, 77
1, 413648, Control_c, 0, 64, 85
1, 413654, Note_off_c, 0, 61, 60
1, 413663, Control_c, 0, 64, 98
1, 413678, Control_c, 0, 64, 127
1, 413699, Note_off_c, 0, 49, 55
1, 414060, Note_on_c, 0, 78, 96
1, 414063, Note_on_c, 0, 66, 96
1, 414063, Note_on_c, 0, 42, 84
1, 414069, Note_off_c, 0, 73, 0
1, 414070, Note_on_c, 0, 30, 79
1, 414093, Poly_aftertouch_c, 0, 73, 0
1, 414101, Note_off_c, 0, 30, 65
1, 414105, Note_off_c, 0, 42, 64
1, 414113, Note_off_c, 0, 37, 41
1, 414760, Note_off_c, 0, 66, 21
1, 414898, Note_off_c, 0, 78, 22
1, 415221, Control_c, 0, 64, 126
1, 415236, Control_c, 0, 64, 121
1, 415251, Control_c, 0, 64, 118
1, 415266, Control_c, 0, 64, 116
1, 415281, Control_c, 0, 64, 114
1, 415295, Control_c, 0, 64, 114
1, 415310, Control_c, 0, 64, 113
1, 415325, Control_c, 0, 64, 112
1, 415340, Control_c, 0, 64, 111
1, 415355, Control_c, 0, 64, 110
1, 415369, Control_c, 0, 64, 110
1, 415384, Control_c, 0, 64, 109
1, 415399, Control_c, 0, 64, 108
1, 415414, Control_c, 0, 64, 106
1, 415428, Control_c, 0, 64, 105
1, 415451, Control_c, 0, 64, 105
1, 415466, Control_c, 0, 64, 104
1, 415481, Control_c, 0, 64, 103
1, 415496, Control_c, 0, 64, 103
1, 415510, Control_c, 0, 64, 102
1, 415525, Control_c, 0, 64, 101
1, 415540, Control_c, 0, 64, 100
1, 415555, Control_c, 0, 64, 99
1, 415570, Control_c, 0, 64, 99
1, 415584, Control_c, 0, 64, 98
1, 415599, Control_c, 0, 64, 98
1, 415614, Control_c, 0, 64, 97
1, 415628, Control_c, 0, 64, 96
1, 415643, Control_c, 0, 64, 96
1, 415658, Control_c, 0, 64, 95
1, 415673, Control_c, 0, 64, 95
1, 415688, Control_c, 0, 64, 94
1, 415702, Control_c, 0, 64, 94
1, 415717, Control_c, 0, 64, 93
1, 415732, Control_c, 0, 64, 93
1, 415747, Control_c, 0, 64, 92
1, 415777, Control_c, 0, 64, 91
1, 415792, Control_c, 0, 64, 91
1, 415822, Control_c, 0, 64, 90
1, 415837, Control_c, 0, 64, 90
1, 415866, Control_c, 0, 64, 89
1, 415881, Control_c, 0, 64, 89
1, 415896, Control_c, 0, 64, 88
1, 415911, Control_c, 0, 64, 88
1, 415941, Control_c, 0, 64, 87
1, 415971, Control_c, 0, 64, 87
1, 416000, Control_c, 0, 64, 86
1, 416015, Control_c, 0, 64, 86
1, 416044, Control_c, 0, 64, 85
1, 416089, Control_c, 0, 64, 85
1, 416104, Control_c, 0, 64, 84
1, 416118, Control_c, 0, 64, 84
1, 416148, Control_c, 0, 64, 83
1, 416162, Control_c, 0, 64, 83
1, 416177, Control_c, 0, 64, 82
1, 416200, Control_c, 0, 64, 81
1, 416215, Control_c, 0, 64, 80
1, 416230, Control_c, 0, 64, 80
1, 416259, Control_c, 0, 64, 79
1, 416274, Control_c, 0, 64, 79
1, 416304, Control_c, 0, 64, 78
1, 416333, Control_c, 0, 64, 78
1, 416348, Control_c, 0, 64, 77
1, 416363, Control_c, 0, 64, 76
1, 416377, Control_c, 0, 64, 76
1, 416422, Control_c, 0, 64, 75
1, 416437, Control_c, 0, 64, 75
1, 416451, Control_c, 0, 64, 74
1, 416466, Control_c, 0, 64, 73
1, 416481, Control_c, 0, 64, 73
1, 416525, Control_c, 0, 64, 72
1, 416540, Control_c, 0, 64, 72
1, 416555, Control_c, 0, 64, 71
1, 416569, Control_c, 0, 64, 71
1, 416584, Control_c, 0, 64, 70
1, 416599, Control_c, 0, 64, 70
1, 416644, Control_c, 0, 64, 69
1, 416659, Control_c, 0, 64, 69
1, 416704, Control_c, 0, 64, 68
1, 416734, Control_c, 0, 64, 68
1, 416748, Control_c, 0, 64, 67
1, 416763, Control_c, 0, 64, 67
1, 416792, Control_c, 0, 64, 66
1, 416822, Control_c, 0, 64, 66
1, 416837, Control_c, 0, 64, 65
1, 416866, Control_c, 0, 64, 65
1, 416896, Control_c, 0, 64, 64
1, 416911, Control_c, 0, 64, 64
1, 416926, Control_c, 0, 64, 63
1, 416948, Control_c, 0, 64, 63
1, 416963, Control_c, 0, 64, 62
1, 416978, Control_c, 0, 64, 61
1, 416992, Control_c, 0, 64, 60
1, 417007, Control_c, 0, 64, 60
1, 417022, Control_c, 0, 64, 59
1, 417037, Control_c, 0, 64, 59
1, 417052, Control_c, 0, 64, 58
1, 417066, Control_c, 0, 64, 57
1, 417081, Control_c, 0, 64, 56
1, 417096, Control_c, 0, 64, 55
1, 417111, Control_c, 0, 64, 54
1, 417126, Control_c, 0, 64, 53
1, 417140, Control_c, 0, 64, 52
1, 417155, Control_c, 0, 64, 51
1, 417170, Control_c, 0, 64, 51
1, 417185, Control_c, 0, 64, 50
1, 417199, Control_c, 0, 64, 50
1, 417214, Control_c, 0, 64, 49
1, 417244, Control_c, 0, 64, 48
1, 417260, Control_c, 0, 64, 48
1, 417274, Control_c, 0, 64, 47
1, 417289, Control_c, 0, 64, 47
1, 417319, Control_c, 0, 64, 46
1, 417334, Control_c, 0, 64, 46
1, 417348, Control_c, 0, 64, 45
1, 417363, Control_c, 0, 64, 45
1, 417378, Control_c, 0, 64, 44
1, 417392, Control_c, 0, 64, 43
1, 417407, Control_c, 0, 64, 43
1, 417423, Control_c, 0, 64, 41
1, 417438, Control_c, 0, 64, 40
1, 417453, Control_c, 0, 64, 39
1, 417468, Control_c, 0, 64, 38
1, 417483, Control_c, 0, 64, 37
1, 417512, Control_c, 0, 64, 35
1, 417527, Control_c, 0, 64, 33
1, 417542, Control_c, 0, 64, 31
1, 417571, Control_c, 0, 64, 30
1, 417586, Control_c, 0, 64, 29
1, 417616, Control_c, 0, 64, 28
1, 417905, Control_c, 0, 64, 27
1, 417920, Control_c, 0, 64, 26
1, 417950, Control_c, 0, 64, 24
1, 417979, Control_c, 0, 64, 23
1, 417994, Control_c, 0, 64, 19
1, 418023, Control_c, 0, 64, 17
1, 418068, Control_c, 0, 64, 14
1, 418083, Control_c, 0, 64, 11
1, 418112, Control_c, 0, 64, 0
1, 418187, End_track
0, 0, End_of_file
