0, 0, Header, 0, 1, 384
1, 0, Start_track
1, 0, Title_t, "Etude Op. 10/5--Piotr Rozanski  "
1, 0, Text_t, "2009 Piano-e-Competition audition round"
1, 0, Text_t, "captured January 2009"
1, 0, Text_t, "http://www.piano-e-competition.com/"
1, 0, Text_t, "File processed for distribution by software from Zenph Studios, Inc., http://www.zenph.com"
1, 0, Instrument_name_t, "Yamaha Disklavier Pro Mark IV concert grand piano, model DCFIIISM4PRO"
1, 0, Sequencer_specific, 39, 67, 113, 0, 1, 0, 1, 0, 69, 116, 117, 100, 101, 32, 79, 112, 46, 32, 49, 48, 47, 53, 32, 32, 80, 105, 111, 116, 114, 32, 82, 111, 122, 97, 110, 115, 107, 105, 32, 32
1, 0, Sequencer_specific, 6, 67, 113, 0, 0, 0, 69
1, 0, System_exclusive, 21, 67, 113, 126, 21, 0, 2, 2, 0, 3, 14, 1, 4, 1, 13, 13, 10, 11, 9, 2, 7, 247
1, 0, Sequencer_specific, 5, 67, 123, 12, 2, 1
1, 0, Tempo, 512820
1, 0, Time_signature, 4, 2, 24, 8
1, 0, System_exclusive, 5, 126, 127, 9, 1, 247
1, 1, System_exclusive, 8, 67, 16, 76, 0, 0, 126, 0, 247
1, 2, System_exclusive, 8, 67, 16, 76, 8, 9, 7, 1, 247
1, 3, Control_c, 0, 0, 0
1, 3, Control_c, 1, 0, 0
1, 3, Control_c, 2, 0, 0
1, 3, Control_c, 3, 0, 0
1, 3, Control_c, 4, 0, 0
1, 3, Control_c, 5, 0, 0
1, 3, Control_c, 6, 0, 0
1, 3, Control_c, 7, 0, 0
1, 3, Control_c, 8, 0, 0
1, 3, Control_c, 9, 0, 127
1, 3, Control_c, 10, 0, 0
1, 3, Control_c, 11, 0, 0
1, 3, Control_c, 12, 0, 0
1, 3, Control_c, 13, 0, 0
1, 3, Control_c, 14, 0, 0
1, 3, Control_c, 15, 0, 0
1, 4, Control_c, 0, 32, 0
1, 4, Control_c, 1, 32, 0
1, 4, Control_c, 2, 32, 0
1, 4, Control_c, 3, 32, 0
1, 4, Control_c, 4, 32, 0
1, 4, Control_c, 5, 32, 0
1, 4, Control_c, 6, 32, 0
1, 4, Control_c, 7, 32, 0
1, 4, Control_c, 8, 32, 0
1, 4, Control_c, 9, 32, 0
1, 4, Control_c, 10, 32, 0
1, 4, Control_c, 11, 32, 0
1, 4, Control_c, 12, 32, 0
1, 4, Control_c, 13, 32, 0
1, 4, Control_c, 14, 32, 0
1, 4, Control_c, 15, 32, 0
1, 5, Program_c, 0, 0
1, 5, Program_c, 1, 0
1, 5, Program_c, 2, 0
1, 5, Program_c, 3, 0
1, 5, Program_c, 4, 0
1, 5, Program_c, 5, 0
1, 5, Program_c, 6, 0
1, 5, Program_c, 7, 0
1, 5, Program_c, 8, 0
1, 5, Program_c, 9, 0
1, 5, Program_c, 10, 0
1, 5, Program_c, 11, 0
1, 5, Program_c, 12, 0
1, 5, Program_c, 13, 0
1, 5, Program_c, 14, 0
1, 5, Program_c, 15, 0
1, 6, Control_c, 0, 7, 100
1, 6, Control_c, 1, 7, 100
1, 6, Control_c, 2, 7, 100
1, 6, Control_c, 3, 7, 100
1, 6, Control_c, 4, 7, 100
1, 6, Control_c, 5, 7, 100
1, 6, Control_c, 6, 7, 100
1, 6, Control_c, 7, 7, 100
1, 6, Control_c, 8, 7, 100
1, 6, Control_c, 9, 7, 100
1, 6, Control_c, 10, 7, 100
1, 6, Control_c, 11, 7, 100
1, 6, Control_c, 12, 7, 100
1, 6, Control_c, 13, 7, 100
1, 6, Control_c, 14, 7, 100
1, 6, Control_c, 15, 7, 100
1, 117, Control_c, 0, 64, 7
1, 229, Control_c, 0, 64, 15
1, 341, Control_c, 0, 64, 22
1, 452, Control_c, 0, 64, 30
1, 564, Control_c, 0, 64, 37
1, 676, Control_c, 0, 64, 45
1, 787, Control_c, 0, 64, 52
1, 899, Control_c, 0, 64, 61
1, 1130, Note_on_c, 0, 54, 71
1, 1131, Note_on_c, 0, 90, 97
1, 1132, Note_on_c, 0, 61, 73
1, 1132, Note_on_c, 0, 66, 77
1, 1134, Control_c, 0, 64, 63
1, 1143, Note_on_c, 0, 58, 58
1, 1149, Control_c, 0, 64, 65
1, 1164, Control_c, 0, 64, 68
1, 1173, Note_off_c, 0, 58, 67
1, 1179, Control_c, 0, 64, 71
1, 1179, Note_off_c, 0, 61, 58
1, 1194, Control_c, 0, 64, 73
1, 1208, Note_off_c, 0, 54, 62
1, 1209, Control_c, 0, 64, 74
1, 1218, Note_off_c, 0, 90, 64
1, 1223, Note_on_c, 0, 94, 71
1, 1224, Control_c, 0, 64, 75
1, 1230, Note_off_c, 0, 66, 51
1, 1239, Control_c, 0, 64, 78
1, 1250, Note_off_c, 0, 94, 65
1, 1253, Control_c, 0, 64, 82
1, 1268, Control_c, 0, 64, 89
1, 1283, Control_c, 0, 64, 95
1, 1285, Note_on_c, 0, 85, 77
1, 1297, Control_c, 0, 64, 98
1, 1324, Note_on_c, 0, 59, 65
1, 1327, Control_c, 0, 64, 97
1, 1329, Note_on_c, 0, 63, 63
1, 1332, Note_on_c, 0, 66, 71
1, 1334, Note_on_c, 0, 54, 59
1, 1335, Note_on_c, 0, 90, 81
1, 1340, Note_off_c, 0, 85, 64
1, 1342, Control_c, 0, 64, 93
1, 1357, Control_c, 0, 64, 82
1, 1367, Note_off_c, 0, 66, 57
1, 1379, Control_c, 0, 64, 73
1, 1393, Note_off_c, 0, 59, 64
1, 1393, Note_off_c, 0, 63, 61
1, 1394, Control_c, 0, 64, 64
1, 1405, Note_off_c, 0, 54, 57
1, 1408, Control_c, 0, 64, 56
1, 1411, Note_on_c, 0, 87, 73
1, 1415, Note_off_c, 0, 90, 66
1, 1423, Control_c, 0, 64, 48
1, 1438, Control_c, 0, 64, 43
1, 1453, Control_c, 0, 64, 39
1, 1468, Control_c, 0, 64, 33
1, 1470, Note_off_c, 0, 87, 64
1, 1471, Note_on_c, 0, 90, 83
1, 1483, Control_c, 0, 64, 26
1, 1498, Control_c, 0, 64, 21
1, 1512, Control_c, 0, 64, 19
1, 1532, Note_off_c, 0, 90, 65
1, 1542, Control_c, 0, 64, 21
1, 1545, Note_on_c, 0, 85, 75
1, 1547, Note_on_c, 0, 58, 63
1, 1551, Note_on_c, 0, 66, 63
1, 1553, Note_on_c, 0, 54, 55
1, 1557, Control_c, 0, 64, 28
1, 1559, Note_on_c, 0, 61, 55
1, 1572, Control_c, 0, 64, 44
1, 1582, Note_off_c, 0, 85, 59
1, 1586, Control_c, 0, 64, 56
1, 1588, Note_off_c, 0, 66, 65
1, 1590, Note_off_c, 0, 61, 64
1, 1601, Control_c, 0, 64, 62
1, 1612, Note_off_c, 0, 58, 64
1, 1616, Control_c, 0, 64, 64
1, 1626, Note_off_c, 0, 54, 64
1, 1630, Note_on_c, 0, 90, 80
1, 1630, Control_c, 0, 64, 63
1, 1645, Control_c, 0, 64, 62
1, 1662, Control_c, 0, 64, 59
1, 1676, Control_c, 0, 64, 54
1, 1682, Note_on_c, 0, 82, 77
1, 1689, Control_c, 0, 64, 48
1, 1693, Note_off_c, 0, 90, 64
1, 1704, Control_c, 0, 64, 41
1, 1719, Control_c, 0, 64, 33
1, 1733, Control_c, 0, 64, 24
1, 1748, Control_c, 0, 64, 11
1, 1754, Note_off_c, 0, 82, 64
1, 1757, Note_on_c, 0, 85, 79
1, 1763, Control_c, 0, 64, 0
1, 1808, Note_off_c, 0, 85, 63
1, 1823, Control_c, 0, 67, 8
1, 1830, Note_on_c, 0, 78, 78
1, 1838, Control_c, 0, 67, 9
1, 1853, Control_c, 0, 67, 9
1, 1858, Note_off_c, 0, 78, 63
1, 1868, Control_c, 0, 67, 11
1, 1882, Control_c, 0, 67, 14
1, 1893, Note_on_c, 0, 82, 75
1, 1897, Control_c, 0, 67, 18
1, 1912, Control_c, 0, 67, 21
1, 1926, Control_c, 0, 67, 25
1, 1935, Note_on_c, 0, 42, 52
1, 1940, Note_on_c, 0, 54, 66
1, 1941, Control_c, 0, 64, 40
1, 1941, Control_c, 0, 67, 29
1, 1954, Note_on_c, 0, 78, 75
1, 1956, Control_c, 0, 64, 55
1, 1956, Control_c, 0, 67, 31
1, 1958, Note_off_c, 0, 82, 65
1, 1965, Note_off_c, 0, 42, 57
1, 1971, Control_c, 0, 64, 60
1, 1971, Control_c, 0, 67, 33
1, 1972, Note_off_c, 0, 54, 66
1, 1986, Control_c, 0, 64, 62
1, 1986, Control_c, 0, 67, 34
1, 2000, Control_c, 0, 64, 63
1, 2000, Control_c, 0, 67, 35
1, 2015, Control_c, 0, 64, 65
1, 2023, Note_off_c, 0, 78, 61
1, 2030, Control_c, 0, 64, 68
1, 2030, Control_c, 0, 67, 35
1, 2031, Note_on_c, 0, 82, 72
1, 2044, Control_c, 0, 64, 71
1, 2058, Note_off_c, 0, 82, 65
1, 2059, Control_c, 0, 64, 75
1, 2074, Control_c, 0, 64, 79
1, 2089, Control_c, 0, 64, 82
1, 2089, Control_c, 0, 67, 36
1, 2093, Note_on_c, 0, 73, 74
1, 2104, Control_c, 0, 64, 85
1, 2126, Control_c, 0, 64, 87
1, 2157, Note_off_c, 0, 73, 60
1, 2161, Note_on_c, 0, 78, 77
1, 2169, Note_on_c, 0, 59, 63
1, 2170, Note_on_c, 0, 66, 57
1, 2171, Note_on_c, 0, 63, 55
1, 2171, Control_c, 0, 64, 86
1, 2186, Control_c, 0, 64, 84
1, 2200, Control_c, 0, 64, 80
1, 2210, Note_off_c, 0, 66, 58
1, 2215, Control_c, 0, 64, 74
1, 2217, Note_on_c, 0, 75, 71
1, 2217, Note_off_c, 0, 63, 60
1, 2223, Note_off_c, 0, 78, 63
1, 2223, Note_off_c, 0, 59, 60
1, 2230, Control_c, 0, 64, 68
1, 2230, Control_c, 0, 67, 36
1, 2245, Control_c, 0, 64, 62
1, 2259, Control_c, 0, 64, 56
1, 2274, Control_c, 0, 64, 49
1, 2289, Note_off_c, 0, 75, 63
1, 2289, Control_c, 0, 64, 44
1, 2289, Control_c, 0, 67, 36
1, 2297, Note_on_c, 0, 78, 68
1, 2304, Control_c, 0, 64, 39
1, 2319, Control_c, 0, 64, 33
1, 2333, Control_c, 0, 64, 25
1, 2348, Control_c, 0, 64, 20
1, 2351, Note_off_c, 0, 78, 64
1, 2363, Control_c, 0, 64, 21
1, 2366, Note_on_c, 0, 61, 47
1, 2366, Note_on_c, 0, 73, 78
1, 2374, Note_on_c, 0, 58, 51
1, 2378, Note_on_c, 0, 66, 42
1, 2378, Control_c, 0, 64, 29
1, 2378, Control_c, 0, 67, 35
1, 2393, Control_c, 0, 64, 44
1, 2405, Note_off_c, 0, 66, 57
1, 2407, Note_off_c, 0, 73, 61
1, 2407, Control_c, 0, 64, 56
1, 2407, Control_c, 0, 67, 35
1, 2408, Note_off_c, 0, 61, 65
1, 2413, Note_off_c, 0, 58, 63
1, 2422, Control_c, 0, 64, 61
1, 2437, Control_c, 0, 64, 61
1, 2449, Note_on_c, 0, 78, 70
1, 2453, Control_c, 0, 64, 61
1, 2468, Control_c, 0, 64, 60
1, 2483, Control_c, 0, 64, 59
1, 2493, Note_off_c, 0, 78, 62
1, 2498, Control_c, 0, 64, 58
1, 2505, Note_on_c, 0, 70, 71
1, 2512, Control_c, 0, 64, 56
1, 2527, Control_c, 0, 64, 52
1, 2542, Control_c, 0, 64, 48
1, 2556, Control_c, 0, 64, 44
1, 2567, Note_off_c, 0, 70, 63
1, 2571, Control_c, 0, 64, 40
1, 2577, Note_on_c, 0, 73, 70
1, 2586, Control_c, 0, 64, 36
1, 2601, Control_c, 0, 64, 30
1, 2616, Control_c, 0, 64, 21
1, 2631, Note_off_c, 0, 73, 62
1, 2631, Control_c, 0, 64, 0
1, 2646, Note_on_c, 0, 66, 65
1, 2690, Note_off_c, 0, 66, 60
1, 2699, Note_on_c, 0, 70, 56
1, 2705, Control_c, 0, 67, 34
1, 2720, Control_c, 0, 64, 8
1, 2720, Control_c, 0, 67, 34
1, 2735, Control_c, 0, 64, 39
1, 2735, Control_c, 0, 67, 33
1, 2742, Note_off_c, 0, 70, 65
1, 2749, Control_c, 0, 64, 53
1, 2749, Control_c, 0, 67, 33
1, 2764, Control_c, 0, 64, 60
1, 2765, Note_on_c, 0, 37, 55
1, 2773, Note_on_c, 0, 49, 56
1, 2779, Control_c, 0, 64, 63
1, 2779, Control_c, 0, 67, 32
1, 2787, Note_on_c, 0, 61, 72
1, 2794, Control_c, 0, 64, 64
1, 2794, Control_c, 0, 67, 32
1, 2795, Note_off_c, 0, 37, 62
1, 2805, Note_off_c, 0, 49, 65
1, 2809, Control_c, 0, 64, 67
1, 2809, Control_c, 0, 67, 31
1, 2820, Note_off_c, 0, 61, 65
1, 2823, Control_c, 0, 64, 69
1, 2823, Control_c, 0, 67, 30
1, 2838, Control_c, 0, 64, 72
1, 2853, Control_c, 0, 64, 74
1, 2853, Control_c, 0, 67, 30
1, 2865, Note_on_c, 0, 73, 59
1, 2868, Control_c, 0, 64, 76
1, 2890, Control_c, 0, 64, 78
1, 2905, Control_c, 0, 64, 80
1, 2905, Control_c, 0, 67, 29
1, 2912, Note_off_c, 0, 73, 64
1, 2920, Control_c, 0, 64, 82
1, 2929, Note_on_c, 0, 68, 60
1, 2935, Control_c, 0, 64, 85
1, 2950, Control_c, 0, 64, 88
1, 2964, Control_c, 0, 64, 90
1, 2967, Note_off_c, 0, 68, 66
1, 2979, Control_c, 0, 64, 93
1, 2994, Control_c, 0, 64, 95
1, 2998, Note_on_c, 0, 73, 59
1, 3009, Control_c, 0, 64, 96
1, 3009, Control_c, 0, 67, 29
1, 3018, Note_off_c, 0, 73, 66
1, 3021, Note_on_c, 0, 65, 33
1, 3023, Control_c, 0, 64, 97
1, 3038, Control_c, 0, 64, 97
1, 3048, Note_on_c, 0, 68, 73
1, 3056, Note_off_c, 0, 65, 47
1, 3068, Control_c, 0, 64, 98
1, 3082, Control_c, 0, 64, 98
1, 3097, Control_c, 0, 64, 99
1, 3099, Note_off_c, 0, 68, 56
1, 3112, Control_c, 0, 64, 100
1, 3115, Note_on_c, 0, 80, 79
1, 3142, Control_c, 0, 64, 88
1, 3148, Note_off_c, 0, 80, 63
1, 3156, Control_c, 0, 64, 71
1, 3171, Control_c, 0, 64, 54
1, 3187, Note_on_c, 0, 63, 67
1, 3187, Control_c, 0, 64, 40
1, 3191, Note_on_c, 0, 56, 67
1, 3193, Note_on_c, 0, 59, 54
1, 3193, Note_on_c, 0, 68, 58
1, 3202, Control_c, 0, 64, 39
1, 3217, Control_c, 0, 64, 45
1, 3221, Note_off_c, 0, 59, 67
1, 3231, Control_c, 0, 64, 54
1, 3234, Note_off_c, 0, 63, 64
1, 3234, Note_off_c, 0, 68, 64
1, 3242, Note_off_c, 0, 56, 62
1, 3247, Control_c, 0, 64, 61
1, 3247, Control_c, 0, 67, 28
1, 3249, Note_on_c, 0, 80, 75
1, 3262, Control_c, 0, 64, 65
1, 3277, Control_c, 0, 64, 70
1, 3292, Control_c, 0, 64, 75
1, 3302, Note_on_c, 0, 75, 72
1, 3304, Note_off_c, 0, 80, 63
1, 3306, Control_c, 0, 64, 81
1, 3306, Control_c, 0, 67, 28
1, 3321, Control_c, 0, 64, 85
1, 3321, Control_c, 0, 67, 27
1, 3336, Control_c, 0, 64, 88
1, 3336, Control_c, 0, 67, 27
1, 3351, Control_c, 0, 64, 90
1, 3358, Note_off_c, 0, 75, 63
1, 3366, Control_c, 0, 64, 94
1, 3366, Control_c, 0, 67, 26
1, 3375, Note_on_c, 0, 44, 77
1, 3375, Note_on_c, 0, 80, 64
1, 3380, Control_c, 0, 64, 97
1, 3395, Control_c, 0, 64, 101
1, 3403, Note_off_c, 0, 80, 66
1, 3409, Note_off_c, 0, 44, 64
1, 3410, Control_c, 0, 64, 102
1, 3410, Control_c, 0, 67, 26
1, 3425, Control_c, 0, 64, 103
1, 3440, Control_c, 0, 64, 104
1, 3444, Note_on_c, 0, 75, 70
1, 3454, Control_c, 0, 64, 104
1, 3469, Control_c, 0, 67, 25
1, 3491, Note_off_c, 0, 75, 56
1, 3505, Note_on_c, 0, 87, 79
1, 3528, Control_c, 0, 64, 104
1, 3543, Control_c, 0, 64, 95
1, 3558, Note_off_c, 0, 87, 67
1, 3558, Control_c, 0, 64, 79
1, 3573, Control_c, 0, 64, 63
1, 3573, Note_on_c, 0, 49, 78
1, 3582, Note_on_c, 0, 75, 83
1, 3588, Control_c, 0, 64, 49
1, 3602, Control_c, 0, 64, 39
1, 3625, Control_c, 0, 67, 25
1, 3632, Note_off_c, 0, 75, 62
1, 3640, Control_c, 0, 64, 49
1, 3640, Control_c, 0, 67, 24
1, 3650, Note_on_c, 0, 87, 88
1, 3654, Control_c, 0, 64, 60
1, 3654, Control_c, 0, 67, 23
1, 3669, Control_c, 0, 64, 65
1, 3669, Control_c, 0, 67, 22
1, 3684, Control_c, 0, 64, 68
1, 3684, Control_c, 0, 67, 21
1, 3698, Control_c, 0, 64, 71
1, 3698, Control_c, 0, 67, 19
1, 3708, Note_on_c, 0, 80, 82
1, 3713, Control_c, 0, 64, 75
1, 3713, Control_c, 0, 67, 14
1, 3714, Note_off_c, 0, 87, 66
1, 3728, Control_c, 0, 64, 80
1, 3728, Control_c, 0, 67, 0
1, 3743, Control_c, 0, 64, 84
1, 3758, Control_c, 0, 64, 86
1, 3773, Note_off_c, 0, 80, 60
1, 3773, Control_c, 0, 64, 87
1, 3777, Note_on_c, 0, 63, 75
1, 3778, Note_on_c, 0, 87, 79
1, 3778, Note_on_c, 0, 59, 68
1, 3781, Note_on_c, 0, 56, 63
1, 3788, Control_c, 0, 64, 88
1, 3803, Control_c, 0, 64, 89
1, 3808, Note_off_c, 0, 63, 65
1, 3818, Control_c, 0, 64, 90
1, 3819, Note_off_c, 0, 56, 61
1, 3820, Note_off_c, 0, 59, 63
1, 3820, Note_off_c, 0, 87, 67
1, 3861, Note_on_c, 0, 80, 70
1, 3862, Control_c, 0, 64, 90
1, 3898, Note_off_c, 0, 80, 57
1, 3906, Control_c, 0, 64, 89
1, 3911, Note_on_c, 0, 92, 79
1, 3921, Control_c, 0, 64, 81
1, 3936, Control_c, 0, 64, 70
1, 3951, Control_c, 0, 64, 59
1, 3956, Note_on_c, 0, 61, 56
1, 3957, Note_on_c, 0, 59, 55
1, 3957, Note_off_c, 0, 92, 67
1, 3958, Note_on_c, 0, 56, 51
1, 3966, Control_c, 0, 64, 45
1, 3981, Control_c, 0, 64, 38
1, 3984, Note_on_c, 0, 80, 73
1, 3996, Control_c, 0, 64, 43
1, 4011, Control_c, 0, 64, 54
1, 4016, Note_off_c, 0, 80, 62
1, 4025, Control_c, 0, 64, 62
1, 4040, Control_c, 0, 64, 65
1, 4041, Note_on_c, 0, 92, 92
1, 4049, Note_off_c, 0, 49, 63
1, 4056, Control_c, 0, 64, 68
1, 4061, Note_off_c, 0, 59, 66
1, 4062, Note_off_c, 0, 61, 63
1, 4070, Control_c, 0, 64, 73
1, 4075, Note_off_c, 0, 56, 63
1, 4085, Control_c, 0, 64, 77
1, 4100, Control_c, 0, 64, 82
1, 4108, Note_on_c, 0, 87, 83
1, 4115, Control_c, 0, 64, 88
1, 4118, Note_off_c, 0, 92, 64
1, 4130, Control_c, 0, 64, 94
1, 4145, Control_c, 0, 64, 101
1, 4160, Control_c, 0, 64, 107
1, 4163, Note_off_c, 0, 87, 62
1, 4175, Control_c, 0, 64, 112
1, 4178, Note_on_c, 0, 92, 83
1, 4190, Control_c, 0, 64, 113
1, 4204, Control_c, 0, 64, 114
1, 4219, Note_off_c, 0, 92, 67
1, 4243, Note_on_c, 0, 85, 80
1, 4270, Note_off_c, 0, 85, 66
1, 4278, Control_c, 0, 64, 113
1, 4293, Control_c, 0, 64, 94
1, 4304, Note_on_c, 0, 97, 90
1, 4308, Control_c, 0, 64, 72
1, 4322, Control_c, 0, 64, 55
1, 4337, Control_c, 0, 64, 25
1, 4352, Control_c, 0, 64, 31
1, 4374, Control_c, 0, 64, 56
1, 4383, Note_off_c, 0, 97, 65
1, 4383, Note_on_c, 0, 90, 98
1, 4386, Note_on_c, 0, 66, 93
1, 4387, Note_on_c, 0, 54, 84
1, 4387, Note_on_c, 0, 61, 83
1, 4389, Control_c, 0, 64, 79
1, 4393, Note_on_c, 0, 58, 75
1, 4404, Control_c, 0, 64, 127
1, 4423, Note_off_c, 0, 58, 67
1, 4430, Note_off_c, 0, 66, 63
1, 4432, Note_off_c, 0, 61, 65
1, 4446, Note_off_c, 0, 54, 64
1, 4447, Note_on_c, 0, 94, 90
1, 4463, Note_off_c, 0, 90, 65
1, 4506, Note_off_c, 0, 94, 65
1, 4523, Note_on_c, 0, 85, 86
1, 4569, Note_off_c, 0, 85, 59
1, 4574, Note_on_c, 0, 59, 66
1, 4578, Note_on_c, 0, 63, 77
1, 4579, Note_on_c, 0, 90, 99
1, 4580, Note_on_c, 0, 66, 88
1, 4581, Note_on_c, 0, 54, 75
1, 4582, Control_c, 0, 64, 92
1, 4596, Control_c, 0, 64, 64
1, 4611, Control_c, 0, 64, 37
1, 4619, Note_off_c, 0, 59, 65
1, 4623, Note_off_c, 0, 66, 60
1, 4626, Control_c, 0, 64, 0
1, 4627, Note_off_c, 0, 63, 62
1, 4641, Note_on_c, 0, 87, 81
1, 4643, Note_off_c, 0, 54, 63
1, 4652, Note_off_c, 0, 90, 66
1, 4670, Control_c, 0, 64, 8
1, 4684, Control_c, 0, 64, 13
1, 4699, Control_c, 0, 64, 15
1, 4705, Note_off_c, 0, 87, 61
1, 4711, Note_on_c, 0, 90, 90
1, 4714, Control_c, 0, 64, 16
1, 4729, Control_c, 0, 64, 17
1, 4744, Control_c, 0, 64, 17
1, 4759, Control_c, 0, 64, 18
1, 4765, Note_off_c, 0, 90, 66
1, 4774, Control_c, 0, 64, 22
1, 4779, Note_on_c, 0, 58, 66
1, 4780, Note_on_c, 0, 66, 68
1, 4782, Note_on_c, 0, 61, 63
1, 4783, Note_on_c, 0, 85, 81
1, 4786, Note_on_c, 0, 54, 57
1, 4789, Control_c, 0, 64, 24
1, 4803, Control_c, 0, 64, 25
1, 4820, Note_off_c, 0, 85, 60
1, 4833, Control_c, 0, 64, 26
1, 4843, Note_off_c, 0, 66, 64
1, 4848, Control_c, 0, 64, 29
1, 4849, Note_off_c, 0, 61, 63
1, 4852, Note_on_c, 0, 90, 84
1, 4863, Note_off_c, 0, 58, 64
1, 4863, Control_c, 0, 64, 36
1, 4875, Note_off_c, 0, 54, 64
1, 4878, Control_c, 0, 64, 42
1, 4893, Control_c, 0, 64, 43
1, 4914, Note_on_c, 0, 82, 84
1, 4918, Note_off_c, 0, 90, 66
1, 4923, Control_c, 0, 64, 42
1, 4938, Control_c, 0, 64, 41
1, 4938, Control_c, 0, 67, 9
1, 4952, Control_c, 0, 64, 40
1, 4952, Control_c, 0, 67, 9
1, 4967, Control_c, 0, 67, 11
1, 4982, Control_c, 0, 64, 39
1, 4982, Control_c, 0, 67, 12
1, 4983, Note_off_c, 0, 82, 63
1, 4984, Note_on_c, 0, 85, 85
1, 4997, Control_c, 0, 64, 38
1, 4997, Control_c, 0, 67, 14
1, 5012, Control_c, 0, 64, 35
1, 5012, Control_c, 0, 67, 15
1, 5026, Control_c, 0, 64, 30
1, 5026, Control_c, 0, 67, 16
1, 5029, Note_off_c, 0, 85, 65
1, 5040, Note_on_c, 0, 78, 80
1, 5041, Control_c, 0, 64, 24
1, 5041, Control_c, 0, 67, 18
1, 5056, Control_c, 0, 64, 17
1, 5056, Control_c, 0, 67, 21
1, 5069, Note_off_c, 0, 78, 64
1, 5070, Control_c, 0, 64, 10
1, 5070, Control_c, 0, 67, 25
1, 5085, Control_c, 0, 64, 9
1, 5085, Control_c, 0, 67, 30
1, 5100, Control_c, 0, 67, 34
1, 5107, Note_on_c, 0, 82, 79
1, 5123, Control_c, 0, 64, 17
1, 5123, Control_c, 0, 67, 37
1, 5138, Control_c, 0, 64, 35
1, 5138, Control_c, 0, 67, 40
1, 5152, Control_c, 0, 64, 51
1, 5152, Control_c, 0, 67, 42
1, 5167, Control_c, 0, 64, 59
1, 5167, Control_c, 0, 67, 45
1, 5177, Note_on_c, 0, 42, 46
1, 5178, Note_on_c, 0, 78, 75
1, 5179, Note_off_c, 0, 82, 65
1, 5182, Control_c, 0, 64, 63
1, 5182, Control_c, 0, 67, 47
1, 5187, Note_on_c, 0, 54, 59
1, 5197, Control_c, 0, 64, 65
1, 5197, Control_c, 0, 67, 48
1, 5209, Note_off_c, 0, 42, 60
1, 5212, Control_c, 0, 64, 67
1, 5212, Control_c, 0, 67, 50
1, 5217, Note_off_c, 0, 54, 66
1, 5226, Control_c, 0, 64, 70
1, 5226, Control_c, 0, 67, 51
1, 5241, Control_c, 0, 64, 74
1, 5241, Control_c, 0, 67, 52
1, 5245, Note_off_c, 0, 78, 58
1, 5256, Control_c, 0, 64, 78
1, 5256, Control_c, 0, 67, 53
1, 5267, Note_on_c, 0, 82, 68
1, 5270, Control_c, 0, 64, 81
1, 5285, Control_c, 0, 64, 85
1, 5294, Note_off_c, 0, 82, 67
1, 5300, Control_c, 0, 64, 90
1, 5315, Control_c, 0, 64, 96
1, 5315, Control_c, 0, 67, 54
1, 5321, Note_on_c, 0, 73, 72
1, 5330, Control_c, 0, 64, 100
1, 5330, Control_c, 0, 67, 55
1, 5344, Control_c, 0, 64, 100
1, 5344, Control_c, 0, 67, 59
1, 5359, Control_c, 0, 67, 61
1, 5371, Note_off_c, 0, 73, 56
1, 5374, Control_c, 0, 67, 61
1, 5376, Note_on_c, 0, 78, 79
1, 5386, Note_on_c, 0, 59, 45
1, 5389, Note_on_c, 0, 63, 57
1, 5391, Note_on_c, 0, 66, 52
1, 5404, Control_c, 0, 64, 100
1, 5404, Control_c, 0, 67, 62
1, 5418, Control_c, 0, 64, 99
1, 5418, Control_c, 0, 67, 63
1, 5420, Note_off_c, 0, 66, 55
1, 5433, Note_off_c, 0, 78, 63
1, 5433, Control_c, 0, 64, 98
1, 5433, Control_c, 0, 67, 64
1, 5436, Note_on_c, 0, 75, 68
1, 5437, Note_off_c, 0, 63, 57
1, 5445, Note_off_c, 0, 59, 62
1, 5448, Control_c, 0, 64, 94
1, 5448, Control_c, 0, 67, 66
1, 5463, Control_c, 0, 64, 89
1, 5463, Control_c, 0, 67, 67
1, 5477, Control_c, 0, 64, 82
1, 5477, Control_c, 0, 67, 68
1, 5492, Control_c, 0, 64, 75
1, 5496, Note_off_c, 0, 75, 63
1, 5503, Note_on_c, 0, 78, 70
1, 5507, Control_c, 0, 64, 68
1, 5507, Control_c, 0, 67, 68
1, 5522, Control_c, 0, 64, 60
1, 5522, Control_c, 0, 67, 69
1, 5537, Control_c, 0, 64, 52
1, 5537, Control_c, 0, 67, 69
1, 5551, Note_off_c, 0, 78, 64
1, 5552, Control_c, 0, 64, 45
1, 5552, Control_c, 0, 67, 70
1, 5567, Control_c, 0, 64, 40
1, 5567, Control_c, 0, 67, 71
1, 5582, Note_on_c, 0, 73, 75
1, 5582, Control_c, 0, 64, 39
1, 5594, Note_on_c, 0, 66, 49
1, 5597, Note_on_c, 0, 58, 48
1, 5597, Note_on_c, 0, 61, 46
1, 5597, Control_c, 0, 67, 72
1, 5609, Note_off_c, 0, 73, 66
1, 5612, Control_c, 0, 67, 74
1, 5626, Control_c, 0, 64, 39
1, 5626, Control_c, 0, 67, 76
1, 5635, Note_off_c, 0, 66, 65
1, 5640, Note_off_c, 0, 61, 63
1, 5641, Control_c, 0, 67, 79
1, 5647, Note_off_c, 0, 58, 65
1, 5656, Control_c, 0, 67, 81
1, 5660, Note_on_c, 0, 78, 65
1, 5671, Control_c, 0, 67, 83
1, 5686, Control_c, 0, 67, 85
1, 5701, Control_c, 0, 67, 87
1, 5703, Note_off_c, 0, 78, 62
1, 5716, Control_c, 0, 64, 38
1, 5716, Control_c, 0, 67, 90
1, 5719, Note_on_c, 0, 70, 66
1, 5731, Control_c, 0, 64, 37
1, 5731, Control_c, 0, 67, 93
1, 5746, Control_c, 0, 64, 36
1, 5746, Control_c, 0, 67, 96
1, 5761, Control_c, 0, 64, 35
1, 5761, Control_c, 0, 67, 98
1, 5762, Note_off_c, 0, 70, 59
1, 5775, Control_c, 0, 64, 35
1, 5775, Control_c, 0, 67, 99
1, 5790, Control_c, 0, 64, 34
1, 5790, Control_c, 0, 67, 100
1, 5793, Note_on_c, 0, 73, 57
1, 5805, Control_c, 0, 67, 101
1, 5820, Control_c, 0, 64, 34
1, 5820, Control_c, 0, 67, 103
1, 5835, Control_c, 0, 64, 32
1, 5835, Control_c, 0, 67, 104
1, 5836, Note_off_c, 0, 73, 58
1, 5847, Note_on_c, 0, 66, 67
1, 5849, Control_c, 0, 64, 31
1, 5849, Control_c, 0, 67, 105
1, 5871, Control_c, 0, 64, 29
1, 5871, Control_c, 0, 67, 107
1, 5886, Control_c, 0, 64, 28
1, 5886, Control_c, 0, 67, 107
1, 5901, Control_c, 0, 64, 29
1, 5916, Control_c, 0, 64, 33
1, 5916, Note_off_c, 0, 66, 59
1, 5919, Note_on_c, 0, 70, 55
1, 5931, Control_c, 0, 64, 42
1, 5945, Control_c, 0, 64, 50
1, 5960, Control_c, 0, 64, 56
1, 5960, Control_c, 0, 67, 107
1, 5972, Note_off_c, 0, 70, 61
1, 5975, Control_c, 0, 64, 60
1, 5977, Note_on_c, 0, 47, 47
1, 5990, Control_c, 0, 64, 62
1, 5990, Control_c, 0, 67, 106
1, 6005, Control_c, 0, 64, 63
1, 6017, Note_on_c, 0, 63, 65
1, 6020, Control_c, 0, 64, 65
1, 6035, Control_c, 0, 64, 68
1, 6035, Control_c, 0, 67, 106
1, 6047, Note_off_c, 0, 63, 62
1, 6049, Control_c, 0, 64, 71
1, 6059, Note_off_c, 0, 47, 50
1, 6064, Control_c, 0, 64, 74
1, 6079, Control_c, 0, 64, 76
1, 6085, Note_on_c, 0, 75, 63
1, 6093, Control_c, 0, 64, 79
1, 6093, Control_c, 0, 67, 105
1, 6108, Control_c, 0, 64, 81
1, 6121, Note_off_c, 0, 75, 64
1, 6123, Control_c, 0, 64, 83
1, 6132, Note_on_c, 0, 68, 69
1, 6138, Control_c, 0, 64, 85
1, 6153, Control_c, 0, 64, 87
1, 6167, Control_c, 0, 64, 90
1, 6172, Note_off_c, 0, 68, 61
1, 6183, Control_c, 0, 64, 92
1, 6198, Control_c, 0, 64, 94
1, 6211, Note_on_c, 0, 75, 57
1, 6213, Control_c, 0, 64, 96
1, 6228, Control_c, 0, 64, 97
1, 6236, Note_on_c, 0, 56, 56
1, 6236, Note_on_c, 0, 63, 67
1, 6241, Note_off_c, 0, 75, 64
1, 6242, Control_c, 0, 64, 99
1, 6257, Control_c, 0, 64, 100
1, 6270, Note_on_c, 0, 68, 78
1, 6272, Control_c, 0, 64, 101
1, 6287, Control_c, 0, 64, 103
1, 6298, Note_off_c, 0, 63, 63
1, 6301, Control_c, 0, 64, 103
1, 6307, Note_off_c, 0, 68, 61
1, 6331, Control_c, 0, 64, 104
1, 6336, Note_off_c, 0, 56, 55
1, 6351, Note_on_c, 0, 80, 64
1, 6375, Control_c, 0, 67, 105
1, 6390, Control_c, 0, 67, 104
1, 6391, Note_off_c, 0, 80, 59
1, 6394, Note_on_c, 0, 75, 63
1, 6422, Note_on_c, 0, 47, 58
1, 6436, Control_c, 0, 67, 104
1, 6460, Note_off_c, 0, 75, 64
1, 6464, Note_off_c, 0, 47, 59
1, 6480, Control_c, 0, 67, 103
1, 6490, Note_on_c, 0, 80, 36
1, 6522, Note_off_c, 0, 80, 47
1, 6549, Note_on_c, 0, 75, 44
1, 6569, Control_c, 0, 67, 103
1, 6577, Note_off_c, 0, 75, 55
1, 6584, Control_c, 0, 64, 104
1, 6589, Note_on_c, 0, 46, 54
1, 6598, Control_c, 0, 64, 105
1, 6598, Control_c, 0, 67, 102
1, 6613, Control_c, 0, 64, 107
1, 6624, Note_on_c, 0, 87, 40
1, 6636, Control_c, 0, 64, 107
1, 6636, Control_c, 0, 67, 103
1, 6651, Control_c, 0, 64, 106
1, 6655, Note_off_c, 0, 87, 51
1, 6666, Control_c, 0, 64, 91
1, 6680, Control_c, 0, 64, 75
1, 6682, Note_off_c, 0, 46, 63
1, 6688, Note_on_c, 0, 53, 56
1, 6695, Control_c, 0, 64, 63
1, 6698, Note_on_c, 0, 80, 44
1, 6710, Control_c, 0, 64, 54
1, 6724, Control_c, 0, 64, 51
1, 6739, Control_c, 0, 64, 53
1, 6739, Control_c, 0, 67, 102
1, 6746, Note_off_c, 0, 80, 49
1, 6750, Note_on_c, 0, 92, 60
1, 6754, Control_c, 0, 64, 58
1, 6765, Note_off_c, 0, 53, 62
1, 6769, Control_c, 0, 64, 64
1, 6769, Control_c, 0, 67, 102
1, 6784, Control_c, 0, 64, 68
1, 6784, Control_c, 0, 67, 101
1, 6798, Control_c, 0, 64, 72
1, 6798, Control_c, 0, 67, 101
1, 6813, Control_c, 0, 64, 77
1, 6816, Note_on_c, 0, 62, 56
1, 6828, Control_c, 0, 64, 83
1, 6828, Control_c, 0, 67, 100
1, 6842, Note_off_c, 0, 92, 62
1, 6843, Control_c, 0, 64, 87
1, 6858, Control_c, 0, 64, 90
1, 6858, Control_c, 0, 67, 99
1, 6860, Note_off_c, 0, 62, 65
1, 6872, Control_c, 0, 64, 92
1, 6872, Control_c, 0, 67, 98
1, 6887, Control_c, 0, 64, 97
1, 6892, Note_on_c, 0, 82, 55
1, 6902, Control_c, 0, 64, 104
1, 6917, Control_c, 0, 64, 115
1, 6926, Note_off_c, 0, 82, 58
1, 6932, Control_c, 0, 64, 127
1, 6932, Control_c, 0, 67, 98
1, 6962, Control_c, 0, 67, 97
1, 6977, Control_c, 0, 67, 97
1, 6979, Note_on_c, 0, 94, 53
1, 6989, Note_on_c, 0, 58, 31
1, 6991, Control_c, 0, 67, 96
1, 7010, Note_on_c, 0, 66, 59
1, 7028, Note_off_c, 0, 94, 64
1, 7029, Note_off_c, 0, 58, 50
1, 7050, Control_c, 0, 67, 95
1, 7051, Note_on_c, 0, 82, 61
1, 7072, Note_off_c, 0, 66, 62
1, 7078, Note_on_c, 0, 65, 45
1, 7078, Note_off_c, 0, 82, 66
1, 7080, Control_c, 0, 67, 95
1, 7095, Control_c, 0, 67, 94
1, 7103, Note_on_c, 0, 94, 82
1, 7120, Note_off_c, 0, 65, 56
1, 7124, Control_c, 0, 67, 94
1, 7139, Control_c, 0, 67, 93
1, 7147, Note_off_c, 0, 94, 64
1, 7162, Note_on_c, 0, 82, 72
1, 7169, Control_c, 0, 67, 93
1, 7184, Control_c, 0, 67, 92
1, 7194, Note_on_c, 0, 74, 55
1, 7194, Note_off_c, 0, 82, 63
1, 7198, Control_c, 0, 67, 92
1, 7227, Note_off_c, 0, 74, 66
1, 7228, Control_c, 0, 67, 91
1, 7233, Note_on_c, 0, 94, 77
1, 7244, Control_c, 0, 67, 90
1, 7259, Control_c, 0, 67, 89
1, 7272, Note_off_c, 0, 94, 63
1, 7273, Control_c, 0, 67, 89
1, 7288, Control_c, 0, 67, 88
1, 7295, Note_on_c, 0, 82, 70
1, 7303, Control_c, 0, 67, 86
1, 7318, Control_c, 0, 67, 85
1, 7329, Note_off_c, 0, 82, 61
1, 7333, Control_c, 0, 67, 85
1, 7347, Control_c, 0, 67, 84
1, 7375, Note_on_c, 0, 94, 76
1, 7385, Control_c, 0, 67, 83
1, 7400, Control_c, 0, 67, 80
1, 7413, Note_off_c, 0, 94, 62
1, 7415, Control_c, 0, 67, 77
1, 7429, Control_c, 0, 67, 73
1, 7437, Note_on_c, 0, 82, 62
1, 7444, Control_c, 0, 67, 68
1, 7459, Control_c, 0, 67, 64
1, 7473, Control_c, 0, 67, 59
1, 7479, Note_off_c, 0, 82, 55
1, 7488, Control_c, 0, 67, 54
1, 7503, Control_c, 0, 67, 44
1, 7508, Note_on_c, 0, 94, 69
1, 7518, Control_c, 0, 67, 25
1, 7533, Control_c, 0, 67, 0
1, 7553, Note_off_c, 0, 94, 63
1, 7579, Note_on_c, 0, 82, 61
1, 7644, Note_off_c, 0, 82, 58
1, 7667, Note_on_c, 0, 94, 63
1, 7685, Note_off_c, 0, 94, 65
1, 7800, Control_c, 0, 64, 97
1, 7814, Control_c, 0, 64, 71
1, 7829, Control_c, 0, 64, 54
1, 7844, Control_c, 0, 64, 43
1, 7859, Control_c, 0, 64, 51
1, 7873, Control_c, 0, 64, 63
1, 7880, Note_on_c, 0, 66, 89
1, 7883, Note_on_c, 0, 54, 80
1, 7883, Note_on_c, 0, 61, 85
1, 7883, Note_on_c, 0, 90, 106
1, 7886, Note_on_c, 0, 58, 76
1, 7888, Control_c, 0, 64, 76
1, 7903, Control_c, 0, 64, 97
1, 7913, Note_off_c, 0, 54, 67
1, 7916, Note_off_c, 0, 58, 69
1, 7918, Control_c, 0, 64, 127
1, 7924, Note_off_c, 0, 66, 64
1, 7934, Note_off_c, 0, 61, 64
1, 7962, Note_off_c, 0, 90, 66
1, 7964, Note_on_c, 0, 94, 90
1, 8012, Note_off_c, 0, 94, 65
1, 8041, Note_on_c, 0, 85, 90
1, 8080, Note_on_c, 0, 63, 85
1, 8083, Note_on_c, 0, 66, 85
1, 8086, Note_on_c, 0, 59, 75
1, 8090, Note_on_c, 0, 54, 66
1, 8090, Note_on_c, 0, 90, 94
1, 8096, Note_off_c, 0, 85, 63
1, 8118, Control_c, 0, 64, 81
1, 8126, Note_off_c, 0, 66, 61
1, 8131, Note_off_c, 0, 63, 65
1, 8132, Note_off_c, 0, 59, 60
1, 8133, Control_c, 0, 64, 63
1, 8148, Control_c, 0, 64, 46
1, 8152, Note_off_c, 0, 54, 56
1, 8161, Note_on_c, 0, 87, 84
1, 8163, Control_c, 0, 64, 32
1, 8169, Note_off_c, 0, 90, 66
1, 8178, Control_c, 0, 64, 30
1, 8208, Control_c, 0, 64, 31
1, 8221, Note_off_c, 0, 87, 64
1, 8223, Control_c, 0, 64, 31
1, 8228, Note_on_c, 0, 90, 85
1, 8282, Note_off_c, 0, 90, 66
1, 8300, Note_on_c, 0, 66, 74
1, 8301, Note_on_c, 0, 58, 62
1, 8303, Note_on_c, 0, 85, 82
1, 8309, Note_on_c, 0, 54, 61
1, 8311, Control_c, 0, 64, 31
1, 8312, Note_on_c, 0, 61, 64
1, 8336, Note_off_c, 0, 85, 65
1, 8363, Note_off_c, 0, 66, 64
1, 8370, Note_on_c, 0, 90, 80
1, 8371, Note_off_c, 0, 61, 63
1, 8378, Note_off_c, 0, 58, 65
1, 8387, Note_off_c, 0, 54, 64
1, 8400, Control_c, 0, 64, 21
1, 8415, Control_c, 0, 64, 0
1, 8432, Note_on_c, 0, 82, 82
1, 8432, Note_off_c, 0, 90, 65
1, 8473, Control_c, 0, 67, 11
1, 8488, Control_c, 0, 67, 16
1, 8491, Note_off_c, 0, 82, 63
1, 8498, Note_on_c, 0, 85, 80
1, 8503, Control_c, 0, 67, 23
1, 8518, Control_c, 0, 67, 32
1, 8533, Control_c, 0, 67, 42
1, 8541, Note_off_c, 0, 85, 61
1, 8548, Control_c, 0, 67, 53
1, 8560, Note_on_c, 0, 78, 81
1, 8563, Control_c, 0, 67, 61
1, 8577, Control_c, 0, 67, 69
1, 8586, Note_off_c, 0, 78, 64
1, 8592, Control_c, 0, 67, 77
1, 8607, Control_c, 0, 67, 85
1, 8622, Control_c, 0, 67, 93
1, 8631, Note_on_c, 0, 82, 74
1, 8636, Control_c, 0, 67, 100
1, 8651, Control_c, 0, 67, 103
1, 8666, Control_c, 0, 67, 104
1, 8681, Control_c, 0, 64, 37
1, 8681, Control_c, 0, 67, 106
1, 8694, Note_on_c, 0, 54, 61
1, 8694, Note_on_c, 0, 78, 70
1, 8695, Note_on_c, 0, 42, 45
1, 8695, Control_c, 0, 64, 54
1, 8695, Control_c, 0, 67, 107
1, 8697, Note_off_c, 0, 82, 65
1, 8710, Control_c, 0, 64, 58
1, 8710, Control_c, 0, 67, 107
1, 8724, Note_off_c, 0, 42, 58
1, 8725, Control_c, 0, 64, 60
1, 8727, Note_off_c, 0, 54, 65
1, 8740, Control_c, 0, 64, 63
1, 8755, Control_c, 0, 64, 65
1, 8765, Note_off_c, 0, 78, 61
1, 8766, Note_on_c, 0, 82, 69
1, 8769, Control_c, 0, 64, 68
1, 8769, Control_c, 0, 67, 106
1, 8784, Control_c, 0, 64, 72
1, 8799, Control_c, 0, 64, 78
1, 8799, Control_c, 0, 67, 106
1, 8802, Note_off_c, 0, 82, 65
1, 8813, Control_c, 0, 64, 85
1, 8813, Control_c, 0, 67, 105
1, 8828, Control_c, 0, 64, 96
1, 8837, Note_on_c, 0, 73, 71
1, 8845, Control_c, 0, 64, 127
1, 8845, Control_c, 0, 67, 105
1, 8882, Control_c, 0, 67, 106
1, 8893, Note_off_c, 0, 73, 58
1, 8894, Note_on_c, 0, 58, 62
1, 8897, Control_c, 0, 67, 106
1, 8897, Note_on_c, 0, 78, 78
1, 8911, Control_c, 0, 67, 107
1, 8912, Note_on_c, 0, 66, 60
1, 8918, Note_on_c, 0, 63, 60
1, 8926, Control_c, 0, 67, 108
1, 8941, Control_c, 0, 64, 113
1, 8941, Control_c, 0, 67, 110
1, 8945, Note_off_c, 0, 66, 64
1, 8953, Note_off_c, 0, 58, 64
1, 8956, Control_c, 0, 64, 87
1, 8956, Control_c, 0, 67, 112
1, 8959, Note_off_c, 0, 63, 64
1, 8962, Note_off_c, 0, 78, 63
1, 8966, Note_on_c, 0, 75, 68
1, 8971, Control_c, 0, 64, 72
1, 8971, Control_c, 0, 67, 114
1, 8986, Control_c, 0, 64, 61
1, 8986, Control_c, 0, 67, 116
1, 9000, Control_c, 0, 64, 49
1, 9000, Control_c, 0, 67, 118
1, 9013, Note_off_c, 0, 75, 58
1, 9015, Control_c, 0, 64, 45
1, 9015, Control_c, 0, 67, 120
1, 9030, Control_c, 0, 67, 122
1, 9038, Note_on_c, 0, 78, 62
1, 9045, Control_c, 0, 64, 46
1, 9045, Control_c, 0, 67, 123
1, 9060, Control_c, 0, 64, 46
1, 9060, Control_c, 0, 67, 125
1, 9074, Control_c, 0, 64, 43
1, 9074, Control_c, 0, 67, 126
1, 9089, Note_off_c, 0, 78, 64
1, 9089, Control_c, 0, 64, 40
1, 9089, Control_c, 0, 67, 127
1, 9104, Control_c, 0, 64, 37
1, 9104, Control_c, 0, 67, 127
1, 9117, Note_on_c, 0, 73, 73
1, 9118, Control_c, 0, 64, 36
1, 9123, Note_on_c, 0, 58, 45
1, 9129, Note_on_c, 0, 61, 49
1, 9130, Note_on_c, 0, 66, 56
1, 9133, Control_c, 0, 64, 32
1, 9148, Control_c, 0, 64, 25
1, 9155, Note_off_c, 0, 73, 64
1, 9159, Note_off_c, 0, 66, 66
1, 9160, Note_off_c, 0, 61, 65
1, 9163, Control_c, 0, 64, 0
1, 9168, Note_off_c, 0, 58, 66
1, 9195, Note_on_c, 0, 78, 69
1, 9240, Note_off_c, 0, 78, 62
1, 9256, Note_on_c, 0, 70, 66
1, 9299, Note_off_c, 0, 70, 59
1, 9329, Note_on_c, 0, 73, 51
1, 9367, Note_off_c, 0, 73, 61
1, 9388, Note_on_c, 0, 66, 59
1, 9448, Note_on_c, 0, 70, 55
1, 9460, Note_off_c, 0, 66, 63
1, 9474, Control_c, 0, 64, 36
1, 9489, Control_c, 0, 64, 52
1, 9500, Note_off_c, 0, 70, 61
1, 9504, Control_c, 0, 64, 59
1, 9514, Note_on_c, 0, 37, 50
1, 9517, Note_on_c, 0, 49, 47
1, 9518, Control_c, 0, 64, 61
1, 9533, Control_c, 0, 64, 62
1, 9548, Control_c, 0, 64, 64
1, 9548, Control_c, 0, 67, 127
1, 9550, Note_off_c, 0, 37, 65
1, 9561, Note_on_c, 0, 61, 60
1, 9563, Control_c, 0, 64, 65
1, 9563, Control_c, 0, 67, 126
1, 9570, Note_off_c, 0, 49, 64
1, 9578, Control_c, 0, 64, 67
1, 9578, Control_c, 0, 67, 124
1, 9582, Note_off_c, 0, 61, 61
1, 9592, Control_c, 0, 64, 70
1, 9592, Control_c, 0, 67, 123
1, 9615, Control_c, 0, 64, 72
1, 9615, Control_c, 0, 67, 122
1, 9624, Note_on_c, 0, 73, 61
1, 9630, Control_c, 0, 64, 74
1, 9645, Control_c, 0, 64, 76
1, 9660, Control_c, 0, 64, 77
1, 9660, Control_c, 0, 67, 122
1, 9664, Note_off_c, 0, 73, 63
1, 9675, Control_c, 0, 64, 78
1, 9675, Control_c, 0, 67, 121
1, 9689, Control_c, 0, 64, 79
1, 9689, Control_c, 0, 67, 120
1, 9690, Note_on_c, 0, 68, 56
1, 9704, Control_c, 0, 64, 81
1, 9704, Control_c, 0, 67, 119
1, 9719, Control_c, 0, 64, 82
1, 9724, Note_off_c, 0, 68, 62
1, 9734, Control_c, 0, 64, 83
1, 9749, Control_c, 0, 64, 84
1, 9757, Note_on_c, 0, 73, 52
1, 9760, Note_on_c, 0, 65, 64
1, 9764, Control_c, 0, 64, 86
1, 9764, Control_c, 0, 67, 119
1, 9777, Note_on_c, 0, 61, 53
1, 9779, Control_c, 0, 64, 87
1, 9779, Control_c, 0, 67, 118
1, 9782, Note_off_c, 0, 73, 66
1, 9794, Control_c, 0, 64, 89
1, 9799, Note_off_c, 0, 65, 61
1, 9809, Control_c, 0, 64, 90
1, 9816, Note_off_c, 0, 61, 61
1, 9819, Note_on_c, 0, 68, 71
1, 9823, Control_c, 0, 64, 91
1, 9838, Control_c, 0, 64, 93
1, 9853, Control_c, 0, 64, 95
1, 9867, Control_c, 0, 64, 98
1, 9870, Note_off_c, 0, 68, 57
1, 9882, Control_c, 0, 64, 98
1, 9882, Control_c, 0, 67, 119
1, 9894, Note_on_c, 0, 80, 68
1, 9897, Control_c, 0, 64, 96
1, 9897, Control_c, 0, 67, 119
1, 9912, Control_c, 0, 64, 80
1, 9927, Note_off_c, 0, 80, 62
1, 9928, Control_c, 0, 64, 66
1, 9942, Control_c, 0, 64, 54
1, 9955, Note_on_c, 0, 63, 69
1, 9956, Note_on_c, 0, 56, 65
1, 9957, Control_c, 0, 64, 46
1, 9957, Control_c, 0, 67, 119
1, 9958, Note_on_c, 0, 59, 56
1, 9972, Control_c, 0, 64, 48
1, 9974, Note_on_c, 0, 68, 64
1, 9987, Note_off_c, 0, 59, 66
1, 9987, Control_c, 0, 64, 55
1, 9987, Control_c, 0, 67, 118
1, 9992, Note_off_c, 0, 63, 65
1, 10002, Control_c, 0, 64, 62
1, 10002, Note_off_c, 0, 68, 65
1, 10003, Note_off_c, 0, 56, 62
1, 10016, Control_c, 0, 64, 66
1, 10016, Control_c, 0, 67, 117
1, 10031, Note_on_c, 0, 80, 71
1, 10031, Control_c, 0, 64, 69
1, 10031, Control_c, 0, 67, 116
1, 10046, Control_c, 0, 64, 73
1, 10046, Control_c, 0, 67, 115
1, 10060, Control_c, 0, 64, 78
1, 10060, Control_c, 0, 67, 114
1, 10075, Control_c, 0, 64, 82
1, 10075, Control_c, 0, 67, 112
1, 10089, Note_on_c, 0, 75, 75
1, 10090, Control_c, 0, 64, 84
1, 10090, Control_c, 0, 67, 111
1, 10098, Note_off_c, 0, 80, 63
1, 10105, Control_c, 0, 64, 86
1, 10105, Control_c, 0, 67, 109
1, 10120, Control_c, 0, 64, 88
1, 10120, Control_c, 0, 67, 107
1, 10131, Note_off_c, 0, 75, 58
1, 10134, Control_c, 0, 64, 91
1, 10134, Control_c, 0, 67, 105
1, 10149, Control_c, 0, 64, 95
1, 10149, Control_c, 0, 67, 103
1, 10151, Note_on_c, 0, 44, 74
1, 10160, Note_on_c, 0, 80, 64
1, 10164, Control_c, 0, 64, 100
1, 10164, Control_c, 0, 67, 102
1, 10179, Control_c, 0, 64, 106
1, 10179, Control_c, 0, 67, 101
1, 10186, Note_off_c, 0, 80, 66
1, 10188, Note_off_c, 0, 44, 65
1, 10194, Control_c, 0, 64, 110
1, 10194, Control_c, 0, 67, 100
1, 10208, Control_c, 0, 64, 111
1, 10208, Control_c, 0, 67, 99
1, 10223, Control_c, 0, 64, 112
1, 10223, Control_c, 0, 67, 98
1, 10227, Note_on_c, 0, 75, 73
1, 10238, Control_c, 0, 64, 114
1, 10238, Control_c, 0, 67, 97
1, 10253, Control_c, 0, 64, 120
1, 10253, Control_c, 0, 67, 97
1, 10268, Control_c, 0, 64, 127
1, 10273, Note_off_c, 0, 75, 61
1, 10289, Note_on_c, 0, 87, 81
1, 10327, Control_c, 0, 64, 114
1, 10336, Note_off_c, 0, 87, 66
1, 10342, Control_c, 0, 64, 93
1, 10352, Note_on_c, 0, 49, 76
1, 10364, Control_c, 0, 64, 77
1, 10364, Control_c, 0, 67, 96
1, 10375, Note_on_c, 0, 75, 80
1, 10379, Control_c, 0, 64, 64
1, 10379, Control_c, 0, 67, 95
1, 10394, Control_c, 0, 64, 53
1, 10394, Control_c, 0, 67, 93
1, 10407, Note_off_c, 0, 75, 65
1, 10409, Control_c, 0, 64, 44
1, 10409, Control_c, 0, 67, 91
1, 10423, Control_c, 0, 64, 46
1, 10423, Control_c, 0, 67, 90
1, 10433, Note_on_c, 0, 87, 83
1, 10439, Control_c, 0, 64, 54
1, 10439, Control_c, 0, 67, 90
1, 10454, Control_c, 0, 64, 60
1, 10454, Control_c, 0, 67, 88
1, 10469, Control_c, 0, 64, 63
1, 10469, Control_c, 0, 67, 87
1, 10484, Control_c, 0, 64, 65
1, 10484, Control_c, 0, 67, 86
1, 10491, Note_on_c, 0, 80, 77
1, 10496, Note_off_c, 0, 87, 66
1, 10498, Control_c, 0, 64, 68
1, 10498, Control_c, 0, 67, 84
1, 10513, Control_c, 0, 64, 72
1, 10513, Control_c, 0, 67, 82
1, 10528, Control_c, 0, 64, 76
1, 10528, Control_c, 0, 67, 77
1, 10532, Note_off_c, 0, 80, 59
1, 10543, Control_c, 0, 64, 79
1, 10543, Control_c, 0, 67, 71
1, 10558, Control_c, 0, 64, 81
1, 10558, Control_c, 0, 67, 64
1, 10561, Note_on_c, 0, 87, 74
1, 10566, Note_on_c, 0, 63, 80
1, 10569, Note_on_c, 0, 56, 69
1, 10570, Note_on_c, 0, 59, 70
1, 10572, Control_c, 0, 64, 83
1, 10572, Control_c, 0, 67, 60
1, 10587, Control_c, 0, 64, 86
1, 10587, Control_c, 0, 67, 56
1, 10600, Note_off_c, 0, 87, 66
1, 10602, Control_c, 0, 64, 88
1, 10602, Control_c, 0, 67, 54
1, 10603, Note_off_c, 0, 63, 58
1, 10610, Note_off_c, 0, 56, 58
1, 10610, Note_off_c, 0, 59, 63
1, 10617, Control_c, 0, 64, 91
1, 10617, Control_c, 0, 67, 53
1, 10632, Control_c, 0, 64, 93
1, 10636, Note_on_c, 0, 80, 73
1, 10646, Control_c, 0, 64, 95
1, 10646, Control_c, 0, 67, 53
1, 10661, Control_c, 0, 64, 97
1, 10670, Note_off_c, 0, 80, 62
1, 10676, Control_c, 0, 64, 97
1, 10691, Control_c, 0, 67, 52
1, 10703, Note_on_c, 0, 92, 73
1, 10706, Control_c, 0, 64, 97
1, 10721, Control_c, 0, 64, 95
1, 10736, Control_c, 0, 64, 87
1, 10736, Control_c, 0, 67, 52
1, 10739, Note_off_c, 0, 92, 65
1, 10751, Control_c, 0, 64, 76
1, 10751, Control_c, 0, 67, 51
1, 10757, Note_on_c, 0, 61, 64
1, 10763, Note_on_c, 0, 59, 58
1, 10765, Note_on_c, 0, 56, 61
1, 10766, Control_c, 0, 64, 66
1, 10766, Control_c, 0, 67, 50
1, 10774, Note_on_c, 0, 80, 68
1, 10780, Control_c, 0, 64, 56
1, 10780, Control_c, 0, 67, 48
1, 10795, Control_c, 0, 64, 47
1, 10795, Control_c, 0, 67, 45
1, 10803, Note_off_c, 0, 80, 66
1, 10810, Control_c, 0, 67, 40
1, 10825, Control_c, 0, 64, 51
1, 10825, Control_c, 0, 67, 35
1, 10831, Note_on_c, 0, 92, 85
1, 10839, Control_c, 0, 64, 56
1, 10839, Control_c, 0, 67, 30
1, 10854, Control_c, 0, 64, 60
1, 10854, Control_c, 0, 67, 25
1, 10867, Note_off_c, 0, 49, 63
1, 10869, Control_c, 0, 64, 64
1, 10869, Control_c, 0, 67, 18
1, 10870, Note_off_c, 0, 61, 64
1, 10875, Note_off_c, 0, 59, 66
1, 10882, Note_off_c, 0, 56, 62
1, 10883, Control_c, 0, 64, 69
1, 10883, Control_c, 0, 67, 0
1, 10894, Note_on_c, 0, 87, 79
1, 10898, Control_c, 0, 64, 76
1, 10900, Note_off_c, 0, 92, 66
1, 10913, Control_c, 0, 64, 87
1, 10928, Control_c, 0, 64, 93
1, 10938, Note_off_c, 0, 87, 62
1, 10943, Control_c, 0, 64, 96
1, 10957, Control_c, 0, 64, 98
1, 10966, Note_on_c, 0, 92, 84
1, 10972, Control_c, 0, 64, 102
1, 10987, Control_c, 0, 64, 106
1, 11002, Control_c, 0, 64, 107
1, 11003, Note_off_c, 0, 92, 65
1, 11019, Note_on_c, 0, 85, 86
1, 11059, Note_off_c, 0, 85, 62
1, 11076, Control_c, 0, 64, 106
1, 11090, Control_c, 0, 64, 88
1, 11095, Note_on_c, 0, 97, 90
1, 11113, Control_c, 0, 64, 63
1, 11128, Control_c, 0, 64, 32
1, 11143, Control_c, 0, 64, 0
1, 11158, Control_c, 0, 64, 28
1, 11168, Note_on_c, 0, 90, 99
1, 11168, Note_off_c, 0, 97, 66
1, 11171, Note_on_c, 0, 66, 96
1, 11172, Control_c, 0, 64, 60
1, 11173, Note_on_c, 0, 54, 82
1, 11174, Note_on_c, 0, 58, 78
1, 11174, Note_on_c, 0, 61, 83
1, 11187, Control_c, 0, 64, 77
1, 11202, Control_c, 0, 64, 97
1, 11216, Control_c, 0, 64, 127
1, 11219, Note_off_c, 0, 58, 63
1, 11229, Note_off_c, 0, 61, 63
1, 11239, Note_off_c, 0, 54, 65
1, 11240, Note_on_c, 0, 94, 89
1, 11260, Note_off_c, 0, 90, 66
1, 11273, Note_off_c, 0, 66, 31
1, 11288, Note_off_c, 0, 94, 66
1, 11314, Note_on_c, 0, 85, 83
1, 11357, Note_on_c, 0, 59, 71
1, 11363, Note_on_c, 0, 63, 76
1, 11366, Note_on_c, 0, 66, 84
1, 11369, Note_on_c, 0, 90, 92
1, 11374, Note_on_c, 0, 54, 67
1, 11380, Note_off_c, 0, 85, 60
1, 11381, Control_c, 0, 64, 100
1, 11395, Control_c, 0, 64, 79
1, 11410, Control_c, 0, 64, 66
1, 11411, Note_off_c, 0, 59, 65
1, 11412, Note_off_c, 0, 66, 57
1, 11418, Note_off_c, 0, 54, 60
1, 11424, Note_off_c, 0, 63, 64
1, 11425, Control_c, 0, 64, 57
1, 11433, Note_on_c, 0, 87, 76
1, 11438, Note_off_c, 0, 90, 66
1, 11440, Control_c, 0, 64, 52
1, 11455, Control_c, 0, 64, 50
1, 11469, Control_c, 0, 64, 49
1, 11484, Control_c, 0, 64, 48
1, 11487, Note_off_c, 0, 87, 64
1, 11499, Control_c, 0, 64, 46
1, 11505, Note_on_c, 0, 90, 73
1, 11514, Control_c, 0, 64, 42
1, 11529, Control_c, 0, 64, 38
1, 11544, Control_c, 0, 64, 36
1, 11555, Note_off_c, 0, 90, 64
1, 11558, Control_c, 0, 64, 35
1, 11571, Note_on_c, 0, 85, 72
1, 11581, Note_on_c, 0, 58, 57
1, 11588, Control_c, 0, 64, 36
1, 11588, Note_on_c, 0, 66, 65
1, 11594, Note_on_c, 0, 61, 58
1, 11598, Note_on_c, 0, 54, 60
1, 11608, Note_off_c, 0, 85, 63
1, 11633, Control_c, 0, 64, 36
1, 11646, Note_off_c, 0, 61, 61
1, 11647, Note_off_c, 0, 66, 64
1, 11648, Control_c, 0, 64, 37
1, 11656, Note_off_c, 0, 58, 65
1, 11660, Note_on_c, 0, 90, 65
1, 11662, Control_c, 0, 64, 40
1, 11672, Note_off_c, 0, 54, 64
1, 11677, Control_c, 0, 64, 42
1, 11692, Control_c, 0, 64, 43
1, 11699, Note_on_c, 0, 82, 74
1, 11703, Note_off_c, 0, 90, 64
1, 11706, Control_c, 0, 67, 8
1, 11721, Control_c, 0, 67, 9
1, 11736, Control_c, 0, 64, 42
1, 11736, Control_c, 0, 67, 11
1, 11751, Control_c, 0, 64, 42
1, 11751, Control_c, 0, 67, 14
1, 11763, Note_off_c, 0, 82, 64
1, 11766, Control_c, 0, 67, 16
1, 11770, Note_on_c, 0, 85, 76
1, 11780, Control_c, 0, 64, 41
1, 11780, Control_c, 0, 67, 20
1, 11795, Control_c, 0, 64, 41
1, 11795, Control_c, 0, 67, 24
1, 11802, Note_off_c, 0, 85, 63
1, 11810, Control_c, 0, 64, 40
1, 11810, Control_c, 0, 67, 30
1, 11825, Control_c, 0, 64, 38
1, 11825, Control_c, 0, 67, 35
1, 11832, Note_on_c, 0, 78, 78
1, 11839, Control_c, 0, 64, 36
1, 11839, Control_c, 0, 67, 39
1, 11862, Control_c, 0, 64, 31
1, 11862, Control_c, 0, 67, 43
1, 11865, Note_off_c, 0, 78, 63
1, 11877, Control_c, 0, 64, 21
1, 11877, Control_c, 0, 67, 47
1, 11892, Control_c, 0, 64, 0
1, 11892, Control_c, 0, 67, 52
1, 11904, Note_on_c, 0, 82, 75
1, 11907, Control_c, 0, 67, 58
1, 11921, Control_c, 0, 64, 12
1, 11921, Control_c, 0, 67, 63
1, 11936, Control_c, 0, 64, 36
1, 11936, Control_c, 0, 67, 68
1, 11951, Control_c, 0, 64, 54
1, 11951, Control_c, 0, 67, 71
1, 11962, Note_on_c, 0, 78, 74
1, 11964, Note_off_c, 0, 82, 64
1, 11966, Control_c, 0, 64, 62
1, 11966, Control_c, 0, 67, 74
1, 11973, Note_on_c, 0, 54, 67
1, 11977, Note_on_c, 0, 42, 42
1, 11981, Control_c, 0, 64, 65
1, 11981, Control_c, 0, 67, 75
1, 11995, Control_c, 0, 64, 67
1, 11995, Control_c, 0, 67, 77
1, 12006, Note_off_c, 0, 54, 66
1, 12009, Note_off_c, 0, 42, 53
1, 12010, Control_c, 0, 64, 69
1, 12010, Control_c, 0, 67, 78
1, 12025, Control_c, 0, 64, 72
1, 12025, Control_c, 0, 67, 79
1, 12030, Note_off_c, 0, 78, 59
1, 12040, Note_on_c, 0, 82, 57
1, 12041, Control_c, 0, 64, 75
1, 12056, Control_c, 0, 64, 79
1, 12061, Note_off_c, 0, 82, 65
1, 12071, Control_c, 0, 64, 85
1, 12086, Control_c, 0, 64, 92
1, 12089, Note_on_c, 0, 73, 74
1, 12100, Control_c, 0, 64, 104
1, 12100, Control_c, 0, 67, 80
1, 12115, Control_c, 0, 64, 127
1, 12115, Control_c, 0, 67, 80
1, 12130, Control_c, 0, 67, 82
1, 12144, Control_c, 0, 67, 84
1, 12149, Note_off_c, 0, 73, 61
1, 12157, Note_on_c, 0, 78, 82
1, 12158, Note_on_c, 0, 63, 56
1, 12159, Control_c, 0, 67, 87
1, 12166, Note_on_c, 0, 66, 60
1, 12174, Control_c, 0, 67, 90
1, 12180, Note_on_c, 0, 59, 43
1, 12189, Control_c, 0, 67, 93
1, 12196, Note_off_c, 0, 66, 62
1, 12204, Control_c, 0, 64, 107
1, 12204, Control_c, 0, 67, 95
1, 12207, Note_off_c, 0, 63, 60
1, 12213, Note_off_c, 0, 59, 55
1, 12218, Control_c, 0, 64, 94
1, 12218, Control_c, 0, 67, 97
1, 12222, Note_off_c, 0, 78, 63
1, 12223, Note_on_c, 0, 75, 65
1, 12233, Control_c, 0, 64, 85
1, 12233, Control_c, 0, 67, 99
1, 12248, Control_c, 0, 64, 77
1, 12248, Control_c, 0, 67, 101
1, 12262, Control_c, 0, 64, 70
1, 12262, Control_c, 0, 67, 104
1, 12277, Control_c, 0, 64, 65
1, 12277, Control_c, 0, 67, 106
1, 12283, Note_off_c, 0, 75, 59
1, 12283, Note_on_c, 0, 78, 67
1, 12292, Control_c, 0, 64, 61
1, 12292, Control_c, 0, 67, 109
1, 12307, Control_c, 0, 64, 59
1, 12307, Control_c, 0, 67, 110
1, 12322, Control_c, 0, 64, 58
1, 12322, Control_c, 0, 67, 111
1, 12334, Note_off_c, 0, 78, 64
1, 12336, Control_c, 0, 64, 57
1, 12336, Control_c, 0, 67, 112
1, 12351, Control_c, 0, 64, 56
1, 12351, Control_c, 0, 67, 113
1, 12361, Note_on_c, 0, 73, 69
1, 12366, Control_c, 0, 64, 53
1, 12366, Control_c, 0, 67, 115
1, 12375, Note_on_c, 0, 58, 54
1, 12378, Note_on_c, 0, 66, 54
1, 12381, Control_c, 0, 64, 50
1, 12381, Control_c, 0, 67, 117
1, 12391, Note_on_c, 0, 61, 43
1, 12393, Note_off_c, 0, 73, 65
1, 12396, Control_c, 0, 64, 46
1, 12396, Control_c, 0, 67, 118
1, 12411, Control_c, 0, 64, 44
1, 12411, Control_c, 0, 67, 120
1, 12417, Note_off_c, 0, 61, 59
1, 12419, Note_off_c, 0, 66, 63
1, 12424, Note_off_c, 0, 58, 64
1, 12426, Control_c, 0, 64, 42
1, 12426, Control_c, 0, 67, 121
1, 12434, Note_on_c, 0, 78, 74
1, 12441, Control_c, 0, 64, 41
1, 12441, Control_c, 0, 67, 122
1, 12455, Control_c, 0, 64, 40
1, 12455, Control_c, 0, 67, 123
1, 12470, Control_c, 0, 64, 37
1, 12470, Control_c, 0, 67, 124
1, 12485, Control_c, 0, 64, 34
1, 12485, Control_c, 0, 67, 124
1, 12497, Note_off_c, 0, 78, 62
1, 12500, Control_c, 0, 64, 30
1, 12500, Control_c, 0, 67, 125
1, 12505, Note_on_c, 0, 70, 62
1, 12515, Control_c, 0, 64, 28
1, 12529, Control_c, 0, 64, 27
1, 12529, Control_c, 0, 67, 125
1, 12545, Note_off_c, 0, 70, 61
1, 12559, Control_c, 0, 64, 26
1, 12559, Control_c, 0, 67, 126
1, 12562, Note_on_c, 0, 73, 56
1, 12574, Control_c, 0, 64, 22
1, 12574, Control_c, 0, 67, 126
1, 12589, Control_c, 0, 64, 17
1, 12611, Note_off_c, 0, 73, 58
1, 12611, Control_c, 0, 64, 9
1, 12626, Control_c, 0, 64, 0
1, 12626, Note_on_c, 0, 66, 63
1, 12694, Note_off_c, 0, 66, 54
1, 12700, Note_on_c, 0, 70, 51
1, 12715, Control_c, 0, 64, 25
1, 12715, Control_c, 0, 67, 125
1, 12730, Control_c, 0, 64, 45
1, 12730, Control_c, 0, 67, 124
1, 12744, Note_on_c, 0, 48, 58
1, 12744, Control_c, 0, 64, 54
1, 12744, Control_c, 0, 67, 124
1, 12756, Note_off_c, 0, 70, 59
1, 12759, Control_c, 0, 64, 58
1, 12759, Control_c, 0, 67, 123
1, 12774, Control_c, 0, 64, 59
1, 12774, Control_c, 0, 67, 123
1, 12789, Control_c, 0, 64, 61
1, 12789, Control_c, 0, 67, 122
1, 12804, Control_c, 0, 64, 63
1, 12804, Control_c, 0, 67, 121
1, 12804, Note_on_c, 0, 63, 68
1, 12818, Control_c, 0, 64, 65
1, 12834, Control_c, 0, 64, 68
1, 12834, Control_c, 0, 67, 120
1, 12842, Note_off_c, 0, 48, 57
1, 12846, Note_off_c, 0, 63, 60
1, 12849, Control_c, 0, 64, 70
1, 12864, Control_c, 0, 64, 72
1, 12864, Control_c, 0, 67, 119
1, 12879, Control_c, 0, 64, 74
1, 12879, Control_c, 0, 67, 118
1, 12886, Note_on_c, 0, 75, 63
1, 12893, Control_c, 0, 64, 76
1, 12908, Control_c, 0, 64, 78
1, 12908, Control_c, 0, 67, 118
1, 12922, Control_c, 0, 64, 80
1, 12927, Note_off_c, 0, 75, 62
1, 12937, Control_c, 0, 64, 82
1, 12945, Note_on_c, 0, 68, 56
1, 12951, Control_c, 0, 64, 84
1, 12966, Control_c, 0, 64, 87
1, 12981, Note_off_c, 0, 68, 50
1, 12981, Control_c, 0, 64, 90
1, 12996, Control_c, 0, 64, 93
1, 12996, Control_c, 0, 67, 117
1, 13011, Control_c, 0, 64, 96
1, 13024, Note_on_c, 0, 66, 76
1, 13024, Note_on_c, 0, 75, 64
1, 13026, Control_c, 0, 64, 99
1, 13029, Note_on_c, 0, 56, 60
1, 13040, Control_c, 0, 64, 104
1, 13040, Control_c, 0, 67, 117
1, 13052, Note_off_c, 0, 75, 68
1, 13055, Control_c, 0, 64, 111
1, 13055, Control_c, 0, 67, 116
1, 13070, Control_c, 0, 64, 127
1, 13070, Control_c, 0, 67, 116
1, 13079, Note_on_c, 0, 68, 72
1, 13082, Note_off_c, 0, 66, 63
1, 13091, Note_off_c, 0, 56, 60
1, 13120, Note_off_c, 0, 68, 60
1, 13129, Control_c, 0, 67, 115
1, 13144, Control_c, 0, 67, 115
1, 13153, Note_on_c, 0, 80, 68
1, 13159, Control_c, 0, 67, 114
1, 13204, Control_c, 0, 67, 114
1, 13213, Note_on_c, 0, 75, 68
1, 13215, Note_off_c, 0, 80, 63
1, 13219, Control_c, 0, 67, 113
1, 13233, Control_c, 0, 67, 113
1, 13248, Control_c, 0, 67, 112
1, 13255, Note_off_c, 0, 75, 60
1, 13269, Note_on_c, 0, 80, 65
1, 13307, Note_off_c, 0, 80, 63
1, 13307, Control_c, 0, 67, 112
1, 13350, Note_on_c, 0, 75, 71
1, 13393, Note_off_c, 0, 75, 63
1, 13407, Note_on_c, 0, 44, 51
1, 13412, Note_on_c, 0, 87, 80
1, 13444, Note_off_c, 0, 44, 61
1, 13448, Control_c, 0, 67, 112
1, 13469, Note_off_c, 0, 87, 63
1, 13475, Note_on_c, 0, 80, 68
1, 13529, Note_off_c, 0, 80, 55
1, 13545, Note_on_c, 0, 87, 71
1, 13566, Control_c, 0, 67, 113
1, 13585, Note_off_c, 0, 87, 63
1, 13596, Control_c, 0, 64, 109
1, 13597, Note_on_c, 0, 75, 70
1, 13610, Control_c, 0, 64, 94
1, 13625, Control_c, 0, 64, 77
1, 13627, Note_on_c, 0, 49, 61
1, 13642, Control_c, 0, 64, 64
1, 13642, Control_c, 0, 67, 113
1, 13651, Note_off_c, 0, 75, 58
1, 13657, Control_c, 0, 64, 50
1, 13671, Control_c, 0, 64, 37
1, 13673, Note_on_c, 0, 87, 75
1, 13686, Control_c, 0, 64, 36
1, 13701, Control_c, 0, 64, 44
1, 13701, Control_c, 0, 67, 113
1, 13715, Control_c, 0, 64, 56
1, 13717, Note_off_c, 0, 87, 64
1, 13730, Control_c, 0, 64, 64
1, 13733, Note_on_c, 0, 80, 60
1, 13745, Control_c, 0, 64, 67
1, 13745, Control_c, 0, 67, 112
1, 13759, Note_off_c, 0, 49, 62
1, 13760, Control_c, 0, 64, 72
1, 13760, Control_c, 0, 67, 113
1, 13775, Control_c, 0, 64, 78
1, 13775, Control_c, 0, 67, 112
1, 13789, Control_c, 0, 64, 83
1, 13796, Note_off_c, 0, 80, 61
1, 13802, Note_on_c, 0, 87, 72
1, 13804, Control_c, 0, 64, 87
1, 13804, Control_c, 0, 67, 111
1, 13819, Control_c, 0, 64, 91
1, 13819, Control_c, 0, 67, 111
1, 13833, Note_off_c, 0, 87, 67
1, 13834, Control_c, 0, 64, 95
1, 13849, Control_c, 0, 64, 100
1, 13849, Control_c, 0, 67, 110
1, 13862, Note_on_c, 0, 73, 68
1, 13863, Control_c, 0, 64, 106
1, 13878, Control_c, 0, 64, 114
1, 13878, Control_c, 0, 67, 110
1, 13893, Control_c, 0, 64, 122
1, 13893, Control_c, 0, 67, 109
1, 13898, Note_off_c, 0, 73, 58
1, 13907, Control_c, 0, 64, 127
1, 13907, Control_c, 0, 67, 108
1, 13930, Note_on_c, 0, 85, 66
1, 13937, Control_c, 0, 67, 108
1, 13956, Note_on_c, 0, 65, 36
1, 13958, Note_on_c, 0, 56, 45
1, 13967, Control_c, 0, 67, 107
1, 13982, Control_c, 0, 67, 107
1, 13991, Note_on_c, 0, 80, 66
1, 13991, Note_off_c, 0, 85, 63
1, 13997, Control_c, 0, 67, 106
1, 14012, Control_c, 0, 67, 105
1, 14021, Note_off_c, 0, 80, 62
1, 14042, Control_c, 0, 67, 105
1, 14056, Control_c, 0, 67, 104
1, 14059, Note_on_c, 0, 85, 58
1, 14071, Control_c, 0, 67, 103
1, 14086, Control_c, 0, 67, 102
1, 14089, Note_off_c, 0, 85, 66
1, 14107, Control_c, 0, 67, 101
1, 14122, Control_c, 0, 67, 100
1, 14132, Note_on_c, 0, 80, 53
1, 14165, Note_off_c, 0, 80, 59
1, 14182, Control_c, 0, 67, 100
1, 14197, Control_c, 0, 67, 99
1, 14211, Control_c, 0, 67, 99
1, 14214, Note_on_c, 0, 92, 51
1, 14226, Control_c, 0, 67, 97
1, 14241, Control_c, 0, 67, 96
1, 14249, Note_off_c, 0, 92, 67
1, 14256, Control_c, 0, 67, 95
1, 14259, Note_off_c, 0, 65, 59
1, 14264, Note_off_c, 0, 56, 56
1, 14271, Control_c, 0, 67, 93
1, 14286, Control_c, 0, 67, 92
1, 14300, Note_on_c, 0, 85, 59
1, 14301, Control_c, 0, 67, 91
1, 14371, Note_on_c, 0, 97, 75
1, 14375, Control_c, 0, 67, 92
1, 14378, Note_off_c, 0, 85, 63
1, 14389, Control_c, 0, 67, 93
1, 14396, Note_off_c, 0, 97, 67
1, 14404, Control_c, 0, 67, 94
1, 14419, Control_c, 0, 67, 95
1, 14435, Control_c, 0, 67, 96
1, 14450, Control_c, 0, 67, 97
1, 14479, Control_c, 0, 67, 97
1, 14509, Control_c, 0, 67, 98
1, 14524, Control_c, 0, 67, 98
1, 14538, Control_c, 0, 67, 99
1, 14553, Control_c, 0, 67, 100
1, 14568, Control_c, 0, 67, 100
1, 14583, Control_c, 0, 67, 101
1, 14598, Control_c, 0, 64, 115
1, 14598, Control_c, 0, 67, 102
1, 14612, Control_c, 0, 64, 86
1, 14612, Control_c, 0, 67, 103
1, 14627, Control_c, 0, 64, 69
1, 14642, Control_c, 0, 64, 62
1, 14656, Control_c, 0, 64, 59
1, 14656, Control_c, 0, 67, 103
1, 14671, Control_c, 0, 64, 59
1, 14677, Note_on_c, 0, 92, 79
1, 14686, Control_c, 0, 64, 62
1, 14688, Note_on_c, 0, 60, 46
1, 14695, Note_on_c, 0, 66, 44
1, 14697, Note_on_c, 0, 68, 41
1, 14701, Control_c, 0, 64, 65
1, 14701, Control_c, 0, 67, 104
1, 14716, Control_c, 0, 64, 68
1, 14727, Note_off_c, 0, 92, 65
1, 14730, Control_c, 0, 64, 71
1, 14730, Control_c, 0, 67, 104
1, 14739, Note_on_c, 0, 94, 79
1, 14739, Note_off_c, 0, 68, 63
1, 14745, Note_off_c, 0, 66, 64
1, 14745, Control_c, 0, 64, 74
1, 14754, Note_off_c, 0, 60, 60
1, 14760, Control_c, 0, 64, 81
1, 14775, Control_c, 0, 64, 91
1, 14790, Control_c, 0, 64, 106
1, 14804, Note_off_c, 0, 94, 63
1, 14805, Control_c, 0, 64, 127
1, 14805, Control_c, 0, 67, 105
1, 14814, Note_on_c, 0, 92, 73
1, 14820, Control_c, 0, 67, 106
1, 14834, Control_c, 0, 67, 108
1, 14839, Note_off_c, 0, 92, 66
1, 14856, Control_c, 0, 64, 115
1, 14856, Control_c, 0, 67, 109
1, 14871, Control_c, 0, 64, 94
1, 14871, Control_c, 0, 67, 110
1, 14873, Note_on_c, 0, 87, 68
1, 14875, Note_on_c, 0, 68, 57
1, 14884, Note_on_c, 0, 56, 60
1, 14886, Control_c, 0, 64, 79
1, 14886, Control_c, 0, 67, 112
1, 14901, Note_off_c, 0, 68, 58
1, 14901, Control_c, 0, 64, 67
1, 14901, Control_c, 0, 67, 114
1, 14912, Note_off_c, 0, 87, 61
1, 14913, Note_off_c, 0, 56, 61
1, 14916, Control_c, 0, 64, 59
1, 14916, Control_c, 0, 67, 116
1, 14930, Control_c, 0, 64, 50
1, 14930, Control_c, 0, 67, 118
1, 14943, Note_on_c, 0, 99, 60
1, 14945, Control_c, 0, 64, 45
1, 14945, Control_c, 0, 67, 119
1, 14960, Control_c, 0, 64, 40
1, 14961, Note_off_c, 0, 99, 65
1, 14975, Control_c, 0, 64, 34
1, 14975, Control_c, 0, 67, 119
1, 14990, Control_c, 0, 64, 26
1, 15005, Control_c, 0, 64, 22
1, 15007, Note_on_c, 0, 87, 74
1, 15019, Control_c, 0, 64, 25
1, 15034, Control_c, 0, 64, 40
1, 15034, Control_c, 0, 67, 119
1, 15049, Control_c, 0, 64, 50
1, 15049, Control_c, 0, 67, 118
1, 15064, Control_c, 0, 64, 58
1, 15064, Control_c, 0, 67, 117
1, 15066, Note_on_c, 0, 61, 54
1, 15070, Note_on_c, 0, 70, 56
1, 15072, Note_off_c, 0, 87, 59
1, 15079, Control_c, 0, 64, 62
1, 15079, Control_c, 0, 67, 116
1, 15091, Note_on_c, 0, 65, 55
1, 15094, Control_c, 0, 64, 64
1, 15094, Control_c, 0, 67, 116
1, 15106, Note_off_c, 0, 61, 60
1, 15109, Control_c, 0, 64, 66
1, 15115, Note_off_c, 0, 70, 60
1, 15124, Control_c, 0, 64, 69
1, 15138, Control_c, 0, 64, 74
1, 15138, Control_c, 0, 67, 115
1, 15153, Control_c, 0, 64, 83
1, 15153, Control_c, 0, 67, 114
1, 15167, Control_c, 0, 64, 95
1, 15175, Note_on_c, 0, 88, 38
1, 15181, Note_on_c, 0, 85, 62
1, 15182, Note_on_c, 0, 87, 34
1, 15182, Control_c, 0, 64, 127
1, 15182, Control_c, 0, 67, 114
1, 15205, Note_off_c, 0, 65, 50
1, 15206, Note_off_c, 0, 88, 57
1, 15214, Note_off_c, 0, 87, 49
1, 15227, Control_c, 0, 67, 114
1, 15231, Note_off_c, 0, 85, 59
1, 15262, Note_on_c, 0, 68, 59
1, 15264, Note_on_c, 0, 80, 67
1, 15264, Note_on_c, 0, 56, 60
1, 15272, Control_c, 0, 64, 122
1, 15272, Control_c, 0, 67, 115
1, 15286, Control_c, 0, 64, 94
1, 15286, Control_c, 0, 67, 115
1, 15301, Control_c, 0, 64, 81
1, 15301, Control_c, 0, 67, 116
1, 15303, Note_off_c, 0, 56, 60
1, 15304, Note_off_c, 0, 68, 53
1, 15316, Control_c, 0, 64, 72
1, 15316, Control_c, 0, 67, 117
1, 15322, Note_off_c, 0, 80, 51
1, 15323, Note_on_c, 0, 92, 76
1, 15331, Control_c, 0, 64, 66
1, 15346, Control_c, 0, 64, 60
1, 15350, Note_off_c, 0, 92, 67
1, 15360, Control_c, 0, 64, 47
1, 15360, Control_c, 0, 67, 117
1, 15375, Control_c, 0, 64, 21
1, 15375, Control_c, 0, 67, 118
1, 15390, Control_c, 0, 64, 0
1, 15392, Note_on_c, 0, 80, 59
1, 15413, Note_off_c, 0, 80, 61
1, 15420, Control_c, 0, 67, 117
1, 15434, Control_c, 0, 64, 27
1, 15434, Control_c, 0, 67, 117
1, 15438, Note_on_c, 0, 60, 50
1, 15439, Note_on_c, 0, 70, 62
1, 15443, Note_on_c, 0, 80, 78
1, 15446, Note_on_c, 0, 66, 56
1, 15449, Control_c, 0, 64, 45
1, 15464, Control_c, 0, 64, 57
1, 15464, Control_c, 0, 67, 116
1, 15474, Note_off_c, 0, 70, 63
1, 15478, Control_c, 0, 64, 63
1, 15489, Note_off_c, 0, 60, 60
1, 15490, Note_off_c, 0, 66, 59
1, 15493, Control_c, 0, 64, 65
1, 15496, Note_off_c, 0, 80, 62
1, 15507, Note_on_c, 0, 82, 78
1, 15508, Control_c, 0, 64, 66
1, 15508, Control_c, 0, 67, 117
1, 15523, Control_c, 0, 64, 68
1, 15538, Control_c, 0, 64, 76
1, 15553, Control_c, 0, 64, 87
1, 15562, Note_on_c, 0, 80, 66
1, 15568, Control_c, 0, 64, 99
1, 15575, Note_off_c, 0, 82, 64
1, 15583, Control_c, 0, 64, 103
1, 15605, Control_c, 0, 67, 117
1, 15621, Note_off_c, 0, 80, 64
1, 15634, Control_c, 0, 64, 101
1, 15634, Control_c, 0, 67, 118
1, 15636, Note_on_c, 0, 75, 78
1, 15642, Note_on_c, 0, 68, 50
1, 15643, Note_on_c, 0, 56, 63
1, 15646, Note_on_c, 0, 66, 48
1, 15649, Control_c, 0, 64, 92
1, 15649, Control_c, 0, 67, 118
1, 15664, Control_c, 0, 64, 81
1, 15664, Control_c, 0, 67, 119
1, 15667, Note_off_c, 0, 68, 59
1, 15671, Note_off_c, 0, 66, 62
1, 15671, Note_off_c, 0, 75, 63
1, 15678, Control_c, 0, 64, 70
1, 15678, Control_c, 0, 67, 120
1, 15690, Note_off_c, 0, 56, 57
1, 15693, Control_c, 0, 64, 61
1, 15693, Control_c, 0, 67, 120
1, 15706, Note_on_c, 0, 87, 57
1, 15708, Control_c, 0, 64, 52
1, 15723, Control_c, 0, 64, 45
1, 15726, Note_off_c, 0, 87, 64
1, 15738, Control_c, 0, 64, 35
1, 15753, Control_c, 0, 64, 24
1, 15756, Note_on_c, 0, 75, 77
1, 15767, Control_c, 0, 64, 14
1, 15782, Control_c, 0, 64, 22
1, 15797, Control_c, 0, 64, 44
1, 15797, Control_c, 0, 67, 120
1, 15812, Note_off_c, 0, 75, 63
1, 15812, Control_c, 0, 64, 60
1, 15812, Control_c, 0, 67, 119
1, 15816, Note_on_c, 0, 73, 69
1, 15827, Control_c, 0, 64, 66
1, 15833, Note_on_c, 0, 61, 45
1, 15839, Note_on_c, 0, 65, 46
1, 15842, Control_c, 0, 64, 65
1, 15842, Control_c, 0, 67, 120
1, 15854, Note_off_c, 0, 73, 61
1, 15857, Control_c, 0, 64, 58
1, 15857, Control_c, 0, 67, 120
1, 15866, Note_on_c, 0, 75, 52
1, 15872, Control_c, 0, 64, 43
1, 15872, Control_c, 0, 67, 121
1, 15886, Control_c, 0, 64, 16
1, 15886, Control_c, 0, 67, 121
1, 15901, Control_c, 0, 64, 0
1, 15916, Control_c, 0, 67, 122
1, 15924, Note_off_c, 0, 75, 64
1, 15931, Control_c, 0, 67, 123
1, 15946, Control_c, 0, 67, 125
1, 15947, Note_on_c, 0, 73, 55
1, 15957, Note_off_c, 0, 61, 51
1, 15960, Control_c, 0, 67, 126
1, 15970, Note_off_c, 0, 65, 35
1, 15975, Control_c, 0, 67, 127
1, 15990, Control_c, 0, 67, 127
1, 15991, Note_off_c, 0, 73, 64
1, 16000, Note_on_c, 0, 56, 57
1, 16002, Note_on_c, 0, 68, 59
1, 16038, Note_off_c, 0, 56, 63
1, 16065, Control_c, 0, 67, 127
1, 16080, Control_c, 0, 67, 126
1, 16095, Control_c, 0, 67, 125
1, 16109, Control_c, 0, 67, 124
1, 16124, Control_c, 0, 64, 12
1, 16124, Control_c, 0, 67, 123
1, 16139, Control_c, 0, 64, 30
1, 16139, Control_c, 0, 67, 122
1, 16154, Control_c, 0, 64, 40
1, 16154, Control_c, 0, 67, 121
1, 16169, Control_c, 0, 64, 46
1, 16169, Control_c, 0, 67, 120
1, 16183, Control_c, 0, 64, 51
1, 16183, Control_c, 0, 67, 119
1, 16198, Control_c, 0, 64, 55
1, 16198, Control_c, 0, 67, 118
1, 16206, Note_off_c, 0, 68, 58
1, 16213, Control_c, 0, 64, 59
1, 16215, Note_on_c, 0, 48, 43
1, 16228, Control_c, 0, 64, 62
1, 16228, Control_c, 0, 67, 118
1, 16243, Note_off_c, 0, 48, 54
1, 16243, Control_c, 0, 64, 63
1, 16243, Control_c, 0, 67, 117
1, 16257, Control_c, 0, 64, 65
1, 16257, Control_c, 0, 67, 117
1, 16272, Control_c, 0, 64, 67
1, 16272, Control_c, 0, 67, 116
1, 16287, Control_c, 0, 64, 71
1, 16292, Note_on_c, 0, 75, 31
1, 16302, Control_c, 0, 64, 78
1, 16316, Control_c, 0, 64, 84
1, 16316, Control_c, 0, 67, 116
1, 16331, Control_c, 0, 64, 88
1, 16331, Control_c, 0, 67, 117
1, 16354, Control_c, 0, 64, 89
1, 16354, Control_c, 0, 67, 117
1, 16365, Note_on_c, 0, 80, 57
1, 16369, Control_c, 0, 64, 88
1, 16369, Control_c, 0, 67, 118
1, 16370, Note_off_c, 0, 75, 63
1, 16383, Control_c, 0, 64, 86
1, 16383, Control_c, 0, 67, 118
1, 16398, Control_c, 0, 64, 77
1, 16398, Control_c, 0, 67, 119
1, 16406, Note_off_c, 0, 80, 62
1, 16413, Control_c, 0, 64, 66
1, 16413, Control_c, 0, 67, 119
1, 16428, Control_c, 0, 64, 55
1, 16428, Control_c, 0, 67, 120
1, 16430, Note_on_c, 0, 66, 65
1, 16435, Note_on_c, 0, 63, 56
1, 16438, Note_on_c, 0, 82, 66
1, 16443, Control_c, 0, 64, 37
1, 16457, Control_c, 0, 64, 24
1, 16472, Control_c, 0, 64, 23
1, 16472, Control_c, 0, 67, 119
1, 16474, Note_off_c, 0, 63, 60
1, 16474, Note_off_c, 0, 66, 58
1, 16484, Note_off_c, 0, 82, 62
1, 16487, Control_c, 0, 64, 25
1, 16489, Note_on_c, 0, 80, 76
1, 16501, Control_c, 0, 64, 32
1, 16501, Control_c, 0, 67, 120
1, 16516, Control_c, 0, 64, 44
1, 16531, Control_c, 0, 64, 55
1, 16546, Control_c, 0, 64, 63
1, 16546, Control_c, 0, 67, 119
1, 16551, Note_on_c, 0, 75, 66
1, 16561, Control_c, 0, 64, 64
1, 16561, Control_c, 0, 67, 119
1, 16569, Note_off_c, 0, 80, 61
1, 16575, Control_c, 0, 64, 62
1, 16575, Control_c, 0, 67, 118
1, 16581, Note_off_c, 0, 75, 66
1, 16590, Control_c, 0, 64, 56
1, 16590, Control_c, 0, 67, 117
1, 16605, Control_c, 0, 64, 43
1, 16605, Control_c, 0, 67, 117
1, 16608, Note_on_c, 0, 65, 56
1, 16617, Note_on_c, 0, 73, 64
1, 16620, Note_on_c, 0, 56, 57
1, 16620, Control_c, 0, 64, 0
1, 16620, Control_c, 0, 67, 116
1, 16630, Note_off_c, 0, 65, 62
1, 16647, Note_off_c, 0, 73, 65
1, 16649, Note_off_c, 0, 56, 64
1, 16665, Control_c, 0, 67, 116
1, 16702, Note_on_c, 0, 80, 64
1, 16724, Control_c, 0, 67, 115
1, 16744, Note_on_c, 0, 85, 69
1, 16754, Control_c, 0, 67, 114
1, 16769, Control_c, 0, 67, 114
1, 16778, Note_off_c, 0, 80, 63
1, 16783, Control_c, 0, 67, 113
1, 16792, Note_on_c, 0, 49, 54
1, 16798, Control_c, 0, 67, 112
1, 16813, Control_c, 0, 67, 111
1, 16814, Note_off_c, 0, 85, 64
1, 16824, Note_off_c, 0, 49, 65
1, 16829, Control_c, 0, 67, 110
1, 16831, Note_on_c, 0, 87, 71
1, 16844, Control_c, 0, 67, 110
1, 16858, Control_c, 0, 67, 109
1, 16873, Control_c, 0, 67, 109
1, 16888, Note_on_c, 0, 85, 60
1, 16888, Control_c, 0, 67, 108
1, 16892, Note_off_c, 0, 87, 60
1, 16903, Control_c, 0, 67, 108
1, 16918, Control_c, 0, 67, 107
1, 16932, Control_c, 0, 67, 106
1, 16936, Note_on_c, 0, 82, 53
1, 16947, Control_c, 0, 67, 105
1, 16959, Note_off_c, 0, 82, 59
1, 16962, Control_c, 0, 67, 104
1, 16972, Note_on_c, 0, 44, 60
1, 16972, Note_off_c, 0, 85, 63
1, 16977, Control_c, 0, 64, 36
1, 16977, Control_c, 0, 67, 102
1, 16992, Control_c, 0, 64, 58
1, 16992, Control_c, 0, 67, 101
1, 17002, Note_off_c, 0, 44, 64
1, 17006, Control_c, 0, 64, 63
1, 17006, Control_c, 0, 67, 100
1, 17017, Note_on_c, 0, 80, 66
1, 17021, Control_c, 0, 64, 65
1, 17021, Control_c, 0, 67, 98
1, 17036, Control_c, 0, 64, 68
1, 17036, Control_c, 0, 67, 97
1, 17051, Control_c, 0, 64, 73
1, 17051, Control_c, 0, 67, 95
1, 17066, Control_c, 0, 64, 81
1, 17066, Control_c, 0, 67, 92
1, 17080, Control_c, 0, 64, 88
1, 17080, Control_c, 0, 67, 88
1, 17082, Note_off_c, 0, 80, 59
1, 17101, Note_on_c, 0, 87, 81
1, 17103, Control_c, 0, 64, 95
1, 17103, Control_c, 0, 67, 85
1, 17118, Control_c, 0, 64, 103
1, 17118, Control_c, 0, 67, 83
1, 17132, Control_c, 0, 64, 120
1, 17132, Control_c, 0, 67, 81
1, 17147, Note_on_c, 0, 92, 77
1, 17147, Control_c, 0, 64, 127
1, 17147, Control_c, 0, 67, 80
1, 17162, Control_c, 0, 67, 77
1, 17177, Control_c, 0, 67, 68
1, 17192, Control_c, 0, 67, 51
1, 17195, Note_off_c, 0, 87, 52
1, 17198, Note_on_c, 0, 60, 50
1, 17198, Note_on_c, 0, 56, 72
1, 17198, Note_on_c, 0, 66, 79
1, 17206, Control_c, 0, 67, 25
1, 17218, Note_off_c, 0, 92, 63
1, 17221, Control_c, 0, 67, 0
1, 17223, Note_off_c, 0, 66, 67
1, 17227, Note_on_c, 0, 94, 84
1, 17227, Note_off_c, 0, 60, 64
1, 17247, Note_off_c, 0, 56, 60
1, 17287, Note_on_c, 0, 92, 75
1, 17299, Note_off_c, 0, 94, 59
1, 17332, Note_on_c, 0, 87, 78
1, 17339, Control_c, 0, 64, 98
1, 17354, Control_c, 0, 64, 69
1, 17360, Note_off_c, 0, 92, 66
1, 17369, Control_c, 0, 64, 51
1, 17377, Note_off_c, 0, 87, 64
1, 17384, Control_c, 0, 64, 36
1, 17395, Note_on_c, 0, 37, 73
1, 17398, Control_c, 0, 64, 43
1, 17413, Note_on_c, 0, 85, 77
1, 17414, Control_c, 0, 64, 56
1, 17422, Note_off_c, 0, 37, 66
1, 17429, Control_c, 0, 64, 65
1, 17444, Control_c, 0, 64, 73
1, 17458, Control_c, 0, 64, 81
1, 17473, Control_c, 0, 64, 88
1, 17481, Note_off_c, 0, 85, 62
1, 17482, Note_on_c, 0, 92, 83
1, 17488, Control_c, 0, 64, 93
1, 17503, Control_c, 0, 64, 99
1, 17518, Control_c, 0, 64, 109
1, 17532, Control_c, 0, 64, 127
1, 17533, Note_on_c, 0, 97, 73
1, 17572, Note_off_c, 0, 92, 64
1, 17595, Note_on_c, 0, 65, 69
1, 17597, Note_on_c, 0, 56, 61
1, 17604, Note_off_c, 0, 97, 66
1, 17605, Note_on_c, 0, 99, 80
1, 17610, Note_on_c, 0, 61, 47
1, 17622, Note_off_c, 0, 65, 65
1, 17636, Note_off_c, 0, 61, 57
1, 17639, Note_off_c, 0, 56, 64
1, 17673, Note_on_c, 0, 97, 80
1, 17696, Note_off_c, 0, 99, 66
1, 17711, Control_c, 0, 64, 99
1, 17726, Control_c, 0, 64, 71
1, 17730, Note_on_c, 0, 94, 85
1, 17741, Control_c, 0, 64, 54
1, 17756, Control_c, 0, 64, 37
1, 17768, Note_off_c, 0, 97, 66
1, 17771, Control_c, 0, 64, 43
1, 17782, Note_on_c, 0, 44, 87
1, 17786, Control_c, 0, 64, 57
1, 17796, Note_off_c, 0, 94, 64
1, 17798, Note_on_c, 0, 92, 84
1, 17800, Control_c, 0, 64, 67
1, 17811, Note_off_c, 0, 44, 67
1, 17815, Control_c, 0, 64, 74
1, 17830, Control_c, 0, 64, 83
1, 17842, Note_off_c, 0, 92, 59
1, 17845, Control_c, 0, 64, 89
1, 17867, Control_c, 0, 64, 92
1, 17868, Note_on_c, 0, 94, 85
1, 17881, Control_c, 0, 64, 96
1, 17896, Control_c, 0, 64, 99
1, 17911, Control_c, 0, 64, 103
1, 17926, Control_c, 0, 64, 109
1, 17932, Note_on_c, 0, 92, 69
1, 17939, Note_off_c, 0, 94, 63
1, 17941, Control_c, 0, 64, 117
1, 17955, Control_c, 0, 64, 127
1, 17968, Note_off_c, 0, 92, 57
1, 17979, Note_on_c, 0, 68, 70
1, 17979, Note_on_c, 0, 87, 75
1, 17987, Note_on_c, 0, 60, 62
1, 17992, Note_on_c, 0, 66, 63
1, 18024, Note_off_c, 0, 66, 64
1, 18036, Note_off_c, 0, 87, 65
1, 18038, Note_off_c, 0, 68, 64
1, 18084, Note_on_c, 0, 98, 33
1, 18119, Note_off_c, 0, 98, 33
1, 18123, Note_on_c, 0, 87, 75
1, 18134, Control_c, 0, 64, 103
1, 18148, Note_off_c, 0, 60, 61
1, 18148, Control_c, 0, 64, 70
1, 18155, Note_off_c, 0, 87, 58
1, 18158, Note_on_c, 0, 61, 74
1, 18163, Control_c, 0, 64, 55
1, 18170, Note_on_c, 0, 70, 82
1, 18177, Note_on_c, 0, 65, 79
1, 18178, Control_c, 0, 64, 40
1, 18180, Note_on_c, 0, 85, 75
1, 18193, Control_c, 0, 64, 43
1, 18208, Control_c, 0, 64, 53
1, 18222, Control_c, 0, 64, 62
1, 18230, Note_off_c, 0, 85, 63
1, 18230, Note_on_c, 0, 87, 75
1, 18237, Control_c, 0, 64, 67
1, 18242, Note_off_c, 0, 61, 64
1, 18252, Control_c, 0, 64, 71
1, 18261, Note_off_c, 0, 70, 61
1, 18267, Control_c, 0, 64, 75
1, 18281, Control_c, 0, 64, 80
1, 18296, Note_on_c, 0, 85, 74
1, 18296, Control_c, 0, 64, 87
1, 18304, Note_off_c, 0, 87, 66
1, 18311, Control_c, 0, 64, 93
1, 18326, Control_c, 0, 64, 98
1, 18339, Note_off_c, 0, 85, 63
1, 18341, Control_c, 0, 64, 102
1, 18353, Note_on_c, 0, 80, 92
1, 18355, Control_c, 0, 64, 109
1, 18361, Note_on_c, 0, 68, 86
1, 18364, Note_on_c, 0, 56, 86
1, 18366, Note_off_c, 0, 65, 62
1, 18370, Control_c, 0, 64, 122
1, 18385, Control_c, 0, 64, 127
1, 18397, Note_off_c, 0, 80, 63
1, 18428, Note_on_c, 0, 92, 79
1, 18435, Note_off_c, 0, 68, 58
1, 18459, Note_off_c, 0, 56, 60
1, 18462, Note_off_c, 0, 92, 64
1, 18494, Note_on_c, 0, 80, 82
1, 18518, Note_off_c, 0, 80, 64
1, 18534, Control_c, 0, 64, 84
1, 18549, Control_c, 0, 64, 57
1, 18552, Note_on_c, 0, 70, 86
1, 18554, Note_on_c, 0, 60, 76
1, 18554, Note_on_c, 0, 66, 79
1, 18564, Control_c, 0, 64, 8
1, 18578, Poly_aftertouch_c, 0, 80, 127
1, 18578, Control_c, 0, 64, 0
1, 18604, Poly_aftertouch_c, 0, 80, 0
1, 18616, Control_c, 0, 64, 27
1, 18628, Note_on_c, 0, 82, 72
1, 18631, Control_c, 0, 64, 47
1, 18635, Note_off_c, 0, 70, 62
1, 18646, Control_c, 0, 64, 57
1, 18646, Control_c, 0, 67, 9
1, 18658, Note_off_c, 0, 66, 61
1, 18660, Control_c, 0, 64, 62
1, 18660, Control_c, 0, 67, 11
1, 18671, Note_off_c, 0, 60, 61
1, 18675, Control_c, 0, 64, 64
1, 18675, Control_c, 0, 67, 12
1, 18690, Control_c, 0, 64, 66
1, 18692, Note_on_c, 0, 80, 72
1, 18697, Note_off_c, 0, 82, 65
1, 18704, Control_c, 0, 64, 70
1, 18719, Control_c, 0, 64, 74
1, 18734, Control_c, 0, 64, 78
1, 18735, Note_off_c, 0, 80, 63
1, 18749, Control_c, 0, 64, 79
1, 18749, Control_c, 0, 67, 13
1, 18762, Note_on_c, 0, 75, 77
1, 18764, Note_on_c, 0, 68, 72
1, 18764, Control_c, 0, 64, 81
1, 18764, Control_c, 0, 67, 13
1, 18766, Note_on_c, 0, 56, 73
1, 18767, Note_on_c, 0, 66, 82
1, 18778, Control_c, 0, 64, 83
1, 18778, Control_c, 0, 67, 14
1, 18793, Control_c, 0, 64, 85
1, 18793, Control_c, 0, 67, 15
1, 18805, Note_off_c, 0, 75, 63
1, 18808, Control_c, 0, 64, 87
1, 18808, Control_c, 0, 67, 17
1, 18813, Note_off_c, 0, 68, 60
1, 18823, Control_c, 0, 64, 89
1, 18823, Control_c, 0, 67, 19
1, 18837, Note_on_c, 0, 87, 48
1, 18838, Control_c, 0, 64, 89
1, 18838, Control_c, 0, 67, 21
1, 18853, Control_c, 0, 67, 22
1, 18863, Note_off_c, 0, 87, 56
1, 18897, Note_on_c, 0, 75, 71
1, 18911, Control_c, 0, 64, 90
1, 18926, Control_c, 0, 67, 23
1, 18939, Note_off_c, 0, 75, 49
1, 18941, Control_c, 0, 64, 89
1, 18941, Control_c, 0, 67, 23
1, 18961, Note_on_c, 0, 73, 69
1, 18967, Note_off_c, 0, 66, 31
1, 18969, Note_on_c, 0, 65, 69
1, 18970, Note_on_c, 0, 61, 67
1, 18971, Control_c, 0, 64, 87
1, 18985, Control_c, 0, 64, 80
1, 19000, Control_c, 0, 64, 71
1, 19015, Note_off_c, 0, 56, 36
1, 19015, Control_c, 0, 64, 62
1, 19016, Note_off_c, 0, 73, 63
1, 19029, Control_c, 0, 64, 52
1, 19029, Control_c, 0, 67, 24
1, 19033, Note_on_c, 0, 75, 64
1, 19044, Control_c, 0, 64, 40
1, 19059, Control_c, 0, 64, 27
1, 19089, Control_c, 0, 64, 33
1, 19089, Control_c, 0, 67, 24
1, 19103, Control_c, 0, 64, 42
1, 19107, Note_off_c, 0, 75, 62
1, 19118, Control_c, 0, 64, 48
1, 19124, Note_on_c, 0, 73, 55
1, 19133, Control_c, 0, 64, 53
1, 19148, Control_c, 0, 64, 56
1, 19163, Control_c, 0, 64, 58
1, 19178, Control_c, 0, 64, 60
1, 19193, Control_c, 0, 64, 63
1, 19207, Control_c, 0, 64, 64
1, 19218, Note_off_c, 0, 73, 63
1, 19223, Control_c, 0, 64, 66
1, 19235, Note_on_c, 0, 56, 50
1, 19238, Control_c, 0, 64, 67
1, 19253, Control_c, 0, 64, 68
1, 19262, Note_off_c, 0, 61, 53
1, 19267, Control_c, 0, 64, 70
1, 19267, Control_c, 0, 67, 25
1, 19282, Control_c, 0, 64, 72
1, 19297, Control_c, 0, 64, 74
1, 19311, Note_on_c, 0, 68, 73
1, 19312, Control_c, 0, 64, 75
1, 19317, Note_off_c, 0, 65, 34
1, 19326, Note_off_c, 0, 56, 52
1, 19327, Control_c, 0, 64, 77
1, 19349, Control_c, 0, 64, 78
1, 19364, Control_c, 0, 64, 80
1, 19364, Control_c, 0, 67, 25
1, 19379, Control_c, 0, 64, 82
1, 19379, Control_c, 0, 67, 27
1, 19394, Control_c, 0, 64, 83
1, 19394, Control_c, 0, 67, 29
1, 19408, Control_c, 0, 64, 85
1, 19408, Control_c, 0, 67, 30
1, 19423, Control_c, 0, 64, 86
1, 19423, Control_c, 0, 67, 30
1, 19438, Control_c, 0, 64, 86
1, 19438, Control_c, 0, 67, 31
1, 19452, Control_c, 0, 64, 87
1, 19452, Control_c, 0, 67, 33
1, 19467, Control_c, 0, 64, 89
1, 19467, Control_c, 0, 67, 34
1, 19482, Control_c, 0, 64, 89
1, 19482, Control_c, 0, 67, 35
1, 19497, Control_c, 0, 64, 90
1, 19497, Control_c, 0, 67, 36
1, 19512, Control_c, 0, 67, 37
1, 19526, Control_c, 0, 67, 40
1, 19541, Control_c, 0, 67, 42
1, 19556, Control_c, 0, 64, 90
1, 19556, Control_c, 0, 67, 43
1, 19586, Control_c, 0, 67, 44
1, 19601, Control_c, 0, 67, 45
1, 19616, Control_c, 0, 64, 90
1, 19616, Control_c, 0, 67, 46
1, 19631, Control_c, 0, 67, 49
1, 19645, Control_c, 0, 64, 86
1, 19645, Control_c, 0, 67, 51
1, 19660, Control_c, 0, 64, 81
1, 19660, Control_c, 0, 67, 53
1, 19675, Control_c, 0, 64, 75
1, 19675, Control_c, 0, 67, 53
1, 19690, Control_c, 0, 64, 67
1, 19690, Control_c, 0, 67, 54
1, 19705, Control_c, 0, 64, 61
1, 19705, Control_c, 0, 67, 57
1, 19720, Control_c, 0, 64, 54
1, 19720, Control_c, 0, 67, 61
1, 19724, Note_on_c, 0, 48, 47
1, 19734, Control_c, 0, 67, 64
1, 19749, Control_c, 0, 64, 58
1, 19749, Control_c, 0, 67, 66
1, 19764, Control_c, 0, 64, 63
1, 19764, Control_c, 0, 67, 68
1, 19779, Control_c, 0, 64, 65
1, 19779, Control_c, 0, 67, 70
1, 19782, Note_off_c, 0, 68, 55
1, 19794, Control_c, 0, 64, 67
1, 19794, Control_c, 0, 67, 72
1, 19795, Note_off_c, 0, 48, 63
1, 19796, Note_on_c, 0, 80, 49
1, 19808, Control_c, 0, 64, 70
1, 19808, Control_c, 0, 67, 74
1, 19823, Control_c, 0, 64, 75
1, 19823, Control_c, 0, 67, 76
1, 19838, Control_c, 0, 64, 81
1, 19838, Control_c, 0, 67, 78
1, 19840, Note_off_c, 0, 80, 56
1, 19852, Control_c, 0, 64, 85
1, 19852, Control_c, 0, 67, 81
1, 19867, Control_c, 0, 64, 87
1, 19867, Control_c, 0, 67, 85
1, 19873, Note_on_c, 0, 78, 49
1, 19882, Control_c, 0, 64, 89
1, 19882, Control_c, 0, 67, 90
1, 19897, Control_c, 0, 64, 93
1, 19897, Control_c, 0, 67, 93
1, 19912, Control_c, 0, 64, 97
1, 19912, Control_c, 0, 67, 96
1, 19926, Control_c, 0, 64, 102
1, 19926, Control_c, 0, 67, 99
1, 19928, Note_off_c, 0, 78, 57
1, 19941, Control_c, 0, 64, 106
1, 19941, Control_c, 0, 67, 102
1, 19956, Control_c, 0, 64, 111
1, 19956, Control_c, 0, 67, 105
1, 19971, Note_on_c, 0, 80, 36
1, 19971, Control_c, 0, 64, 116
1, 19971, Control_c, 0, 67, 106
1, 19981, Note_on_c, 0, 66, 57
1, 19985, Note_on_c, 0, 56, 56
1, 19986, Control_c, 0, 64, 124
1, 19986, Control_c, 0, 67, 107
1, 19991, Note_on_c, 0, 63, 53
1, 20000, Note_off_c, 0, 80, 48
1, 20000, Control_c, 0, 64, 127
1, 20000, Control_c, 0, 67, 108
1, 20014, Note_off_c, 0, 66, 64
1, 20016, Control_c, 0, 67, 109
1, 20018, Note_off_c, 0, 63, 65
1, 20025, Note_off_c, 0, 56, 63
1, 20046, Control_c, 0, 67, 109
1, 20060, Note_on_c, 0, 78, 43
1, 20061, Control_c, 0, 67, 110
1, 20075, Control_c, 0, 67, 111
1, 20098, Control_c, 0, 67, 112
1, 20113, Control_c, 0, 67, 112
1, 20123, Note_off_c, 0, 78, 58
1, 20123, Note_on_c, 0, 80, 52
1, 20187, Control_c, 0, 67, 113
1, 20188, Note_off_c, 0, 80, 60
1, 20217, Note_on_c, 0, 90, 72
1, 20281, Note_off_c, 0, 90, 65
1, 20314, Note_on_c, 0, 80, 44
1, 20320, Control_c, 0, 67, 112
1, 20339, Note_off_c, 0, 80, 56
1, 20373, Note_on_c, 0, 78, 57
1, 20394, Note_off_c, 0, 78, 61
1, 20394, Control_c, 0, 67, 112
1, 20410, Control_c, 0, 67, 111
1, 20413, Note_on_c, 0, 80, 66
1, 20422, Note_on_c, 0, 36, 65
1, 20464, Note_on_c, 0, 78, 67
1, 20467, Note_off_c, 0, 80, 63
1, 20513, Control_c, 0, 67, 111
1, 20546, Note_off_c, 0, 78, 62
1, 20549, Note_on_c, 0, 80, 70
1, 20558, Control_c, 0, 67, 111
1, 20564, Note_off_c, 0, 36, 58
1, 20587, Note_off_c, 0, 80, 63
1, 20588, Control_c, 0, 67, 111
1, 20604, Note_on_c, 0, 48, 62
1, 20626, Note_on_c, 0, 68, 68
1, 20640, Note_off_c, 0, 48, 65
1, 20686, Note_off_c, 0, 68, 64
1, 20691, Note_on_c, 0, 80, 71
1, 20726, Poly_aftertouch_c, 0, 70, 0
1, 20728, Note_off_c, 0, 80, 60
1, 20736, Control_c, 0, 67, 110
1, 20752, Note_on_c, 0, 78, 55
1, 20765, Control_c, 0, 67, 110
1, 20792, Note_off_c, 0, 78, 62
1, 20810, Control_c, 0, 67, 109
1, 20818, Note_on_c, 0, 66, 66
1, 20826, Note_on_c, 0, 56, 60
1, 20826, Control_c, 0, 67, 109
1, 20847, Control_c, 0, 67, 108
1, 20850, Note_off_c, 0, 66, 62
1, 20856, Note_on_c, 0, 80, 19
1, 20874, Note_off_c, 0, 56, 64
1, 20897, Note_off_c, 0, 80, 40
1, 20899, Note_on_c, 0, 78, 68
1, 20921, Control_c, 0, 67, 108
1, 20969, Note_off_c, 0, 78, 63
1, 20980, Note_on_c, 0, 80, 60
1, 20996, Control_c, 0, 67, 107
1, 21019, Note_off_c, 0, 80, 59
1, 21026, Control_c, 0, 67, 107
1, 21036, Note_on_c, 0, 90, 76
1, 21041, Control_c, 0, 67, 106
1, 21085, Control_c, 0, 67, 106
1, 21099, Control_c, 0, 67, 105
1, 21104, Note_off_c, 0, 90, 65
1, 21114, Note_on_c, 0, 80, 56
1, 21114, Control_c, 0, 67, 105
1, 21143, Note_off_c, 0, 80, 63
1, 21144, Control_c, 0, 67, 104
1, 21159, Control_c, 0, 67, 104
1, 21173, Note_on_c, 0, 78, 71
1, 21173, Control_c, 0, 67, 103
1, 21188, Control_c, 0, 67, 102
1, 21203, Control_c, 0, 67, 102
1, 21206, Note_off_c, 0, 78, 59
1, 21228, Note_on_c, 0, 80, 51
1, 21232, Note_on_c, 0, 36, 57
1, 21233, Control_c, 0, 67, 102
1, 21237, Note_on_c, 0, 48, 54
1, 21270, Note_off_c, 0, 80, 59
1, 21279, Note_off_c, 0, 48, 64
1, 21286, Note_off_c, 0, 36, 62
1, 21307, Poly_aftertouch_c, 0, 78, 0
1, 21339, Poly_aftertouch_c, 0, 78, 0
1, 21374, Note_on_c, 0, 80, 54
1, 21381, Control_c, 0, 67, 103
1, 21395, Control_c, 0, 67, 103
1, 21432, Note_off_c, 0, 80, 51
1, 21440, Control_c, 0, 64, 102
1, 21455, Control_c, 0, 64, 83
1, 21470, Control_c, 0, 64, 66
1, 21480, Note_on_c, 0, 37, 51
1, 21482, Note_on_c, 0, 49, 61
1, 21485, Control_c, 0, 64, 55
1, 21499, Control_c, 0, 64, 46
1, 21499, Control_c, 0, 67, 103
1, 21509, Note_on_c, 0, 70, 67
1, 21529, Control_c, 0, 64, 53
1, 21529, Control_c, 0, 67, 102
1, 21544, Control_c, 0, 64, 60
1, 21559, Control_c, 0, 64, 64
1, 21559, Control_c, 0, 67, 101
1, 21566, Note_off_c, 0, 37, 63
1, 21573, Control_c, 0, 64, 66
1, 21573, Control_c, 0, 67, 101
1, 21580, Note_off_c, 0, 70, 61
1, 21587, Note_on_c, 0, 82, 57
1, 21587, Note_off_c, 0, 49, 63
1, 21588, Control_c, 0, 64, 68
1, 21588, Control_c, 0, 67, 100
1, 21610, Control_c, 0, 64, 72
1, 21626, Control_c, 0, 64, 77
1, 21626, Control_c, 0, 67, 100
1, 21640, Note_off_c, 0, 82, 61
1, 21641, Control_c, 0, 64, 80
1, 21641, Control_c, 0, 67, 98
1, 21656, Control_c, 0, 64, 82
1, 21656, Control_c, 0, 67, 98
1, 21670, Control_c, 0, 64, 84
1, 21670, Control_c, 0, 67, 96
1, 21673, Note_on_c, 0, 78, 56
1, 21685, Control_c, 0, 64, 87
1, 21685, Control_c, 0, 67, 94
1, 21700, Control_c, 0, 64, 91
1, 21710, Note_off_c, 0, 78, 63
1, 21715, Control_c, 0, 64, 97
1, 21729, Control_c, 0, 64, 103
1, 21729, Control_c, 0, 67, 95
1, 21744, Control_c, 0, 64, 108
1, 21756, Note_on_c, 0, 58, 57
1, 21759, Control_c, 0, 64, 113
1, 21759, Control_c, 0, 67, 94
1, 21763, Note_on_c, 0, 66, 45
1, 21764, Note_on_c, 0, 82, 34
1, 21774, Control_c, 0, 64, 119
1, 21786, Note_off_c, 0, 58, 67
1, 21789, Control_c, 0, 64, 127
1, 21791, Note_off_c, 0, 66, 55
1, 21798, Note_off_c, 0, 82, 44
1, 21804, Control_c, 0, 67, 94
1, 21831, Note_on_c, 0, 78, 56
1, 21891, Note_on_c, 0, 82, 60
1, 21901, Note_off_c, 0, 78, 61
1, 21908, Control_c, 0, 67, 93
1, 21936, Note_off_c, 0, 82, 62
1, 21937, Control_c, 0, 64, 99
1, 21952, Control_c, 0, 64, 81
1, 21959, Note_on_c, 0, 90, 75
1, 21967, Control_c, 0, 64, 67
1, 21974, Note_on_c, 0, 48, 69
1, 21982, Control_c, 0, 64, 59
1, 21985, Note_on_c, 0, 36, 58
1, 21996, Control_c, 0, 64, 56
1, 22011, Control_c, 0, 64, 59
1, 22020, Note_off_c, 0, 48, 59
1, 22024, Note_off_c, 0, 90, 65
1, 22026, Control_c, 0, 64, 63
1, 22029, Note_on_c, 0, 82, 57
1, 22040, Control_c, 0, 64, 67
1, 22054, Note_off_c, 0, 82, 65
1, 22055, Control_c, 0, 64, 71
1, 22070, Control_c, 0, 64, 76
1, 22072, Note_off_c, 0, 36, 63
1, 22085, Control_c, 0, 64, 79
1, 22090, Note_on_c, 0, 78, 72
1, 22100, Control_c, 0, 64, 82
1, 22114, Control_c, 0, 64, 84
1, 22123, Note_off_c, 0, 78, 63
1, 22129, Control_c, 0, 64, 86
1, 22143, Note_on_c, 0, 82, 75
1, 22144, Control_c, 0, 64, 87
1, 22154, Note_on_c, 0, 37, 71
1, 22156, Note_on_c, 0, 49, 75
1, 22159, Control_c, 0, 64, 88
1, 22174, Control_c, 0, 64, 90
1, 22188, Control_c, 0, 64, 93
1, 22203, Control_c, 0, 64, 97
1, 22212, Note_off_c, 0, 82, 65
1, 22213, Note_on_c, 0, 78, 71
1, 22218, Control_c, 0, 64, 102
1, 22218, Control_c, 0, 67, 94
1, 22233, Control_c, 0, 64, 104
1, 22233, Control_c, 0, 67, 94
1, 22248, Control_c, 0, 67, 95
1, 22263, Control_c, 0, 64, 103
1, 22274, Note_off_c, 0, 78, 59
1, 22276, Note_off_c, 0, 49, 61
1, 22278, Control_c, 0, 64, 88
1, 22284, Note_off_c, 0, 37, 60
1, 22287, Note_on_c, 0, 82, 67
1, 22293, Control_c, 0, 64, 72
1, 22308, Control_c, 0, 64, 60
1, 22320, Note_off_c, 0, 82, 64
1, 22322, Control_c, 0, 64, 46
1, 22344, Control_c, 0, 64, 42
1, 22355, Note_on_c, 0, 50, 79
1, 22358, Note_on_c, 0, 38, 72
1, 22359, Control_c, 0, 64, 45
1, 22364, Note_on_c, 0, 70, 78
1, 22374, Control_c, 0, 64, 55
1, 22374, Control_c, 0, 67, 94
1, 22389, Control_c, 0, 64, 61
1, 22393, Note_off_c, 0, 38, 67
1, 22403, Control_c, 0, 64, 63
1, 22403, Control_c, 0, 67, 94
1, 22407, Note_off_c, 0, 50, 65
1, 22417, Note_off_c, 0, 70, 62
1, 22418, Control_c, 0, 64, 65
1, 22434, Control_c, 0, 64, 68
1, 22434, Control_c, 0, 67, 94
1, 22442, Note_on_c, 0, 82, 65
1, 22449, Control_c, 0, 64, 71
1, 22464, Control_c, 0, 64, 74
1, 22464, Control_c, 0, 67, 94
1, 22478, Control_c, 0, 64, 77
1, 22478, Control_c, 0, 67, 93
1, 22492, Note_on_c, 0, 78, 70
1, 22493, Control_c, 0, 64, 79
1, 22493, Control_c, 0, 67, 93
1, 22498, Note_off_c, 0, 82, 60
1, 22508, Control_c, 0, 64, 82
1, 22508, Control_c, 0, 67, 92
1, 22523, Control_c, 0, 64, 86
1, 22523, Control_c, 0, 67, 92
1, 22528, Note_off_c, 0, 78, 58
1, 22538, Control_c, 0, 64, 89
1, 22538, Control_c, 0, 67, 91
1, 22552, Control_c, 0, 64, 92
1, 22552, Control_c, 0, 67, 89
1, 22567, Control_c, 0, 64, 94
1, 22569, Note_on_c, 0, 66, 79
1, 22574, Note_on_c, 0, 58, 68
1, 22582, Control_c, 0, 64, 99
1, 22582, Control_c, 0, 67, 88
1, 22587, Note_on_c, 0, 82, 59
1, 22596, Note_off_c, 0, 66, 67
1, 22597, Control_c, 0, 64, 106
1, 22607, Note_off_c, 0, 58, 66
1, 22612, Control_c, 0, 64, 127
1, 22624, Note_off_c, 0, 82, 65
1, 22652, Note_on_c, 0, 78, 71
1, 22656, Control_c, 0, 67, 89
1, 22671, Control_c, 0, 67, 89
1, 22701, Control_c, 0, 64, 119
1, 22713, Note_off_c, 0, 78, 62
1, 22714, Note_on_c, 0, 82, 83
1, 22716, Control_c, 0, 64, 80
1, 22731, Control_c, 0, 64, 66
1, 22745, Control_c, 0, 64, 62
1, 22745, Control_c, 0, 67, 90
1, 22760, Control_c, 0, 64, 65
1, 22766, Note_off_c, 0, 82, 63
1, 22775, Control_c, 0, 64, 71
1, 22776, Note_on_c, 0, 90, 86
1, 22776, Note_on_c, 0, 37, 81
1, 22778, Note_on_c, 0, 49, 83
1, 22790, Control_c, 0, 64, 78
1, 22790, Control_c, 0, 67, 91
1, 22805, Control_c, 0, 64, 81
1, 22805, Control_c, 0, 67, 91
1, 22819, Control_c, 0, 64, 74
1, 22819, Control_c, 0, 67, 92
1, 22833, Note_on_c, 0, 39, 23
1, 22834, Control_c, 0, 64, 62
1, 22834, Control_c, 0, 67, 92
1, 22849, Control_c, 0, 64, 43
1, 22850, Note_on_c, 0, 82, 71
1, 22853, Note_off_c, 0, 90, 66
1, 22863, Control_c, 0, 64, 29
1, 22865, Note_off_c, 0, 49, 59
1, 22874, Note_off_c, 0, 82, 68
1, 22875, Note_off_c, 0, 39, 40
1, 22878, Control_c, 0, 64, 38
1, 22878, Control_c, 0, 67, 92
1, 22886, Note_off_c, 0, 37, 63
1, 22893, Control_c, 0, 64, 55
1, 22903, Note_on_c, 0, 78, 77
1, 22908, Control_c, 0, 64, 65
1, 22908, Control_c, 0, 67, 91
1, 22923, Control_c, 0, 64, 71
1, 22934, Note_off_c, 0, 78, 64
1, 22937, Control_c, 0, 64, 76
1, 22948, Note_on_c, 0, 82, 68
1, 22952, Control_c, 0, 64, 78
1, 22954, Note_on_c, 0, 50, 79
1, 22958, Note_on_c, 0, 38, 80
1, 22967, Control_c, 0, 64, 79
1, 22967, Control_c, 0, 67, 91
1, 22982, Control_c, 0, 64, 81
1, 22997, Control_c, 0, 64, 84
1, 22997, Control_c, 0, 67, 90
1, 23008, Note_off_c, 0, 50, 64
1, 23011, Control_c, 0, 64, 88
1, 23016, Note_off_c, 0, 82, 65
1, 23023, Note_on_c, 0, 78, 64
1, 23026, Control_c, 0, 64, 93
1, 23041, Control_c, 0, 64, 94
1, 23056, Note_off_c, 0, 78, 62
1, 23071, Control_c, 0, 64, 81
1, 23071, Control_c, 0, 67, 91
1, 23092, Note_on_c, 0, 82, 67
1, 23093, Control_c, 0, 64, 63
1, 23108, Control_c, 0, 64, 34
1, 23118, Note_off_c, 0, 38, 51
1, 23122, Note_off_c, 0, 82, 66
1, 23123, Control_c, 0, 64, 0
1, 23138, Control_c, 0, 67, 90
1, 23152, Control_c, 0, 67, 90
1, 23167, Control_c, 0, 64, 37
1, 23172, Note_on_c, 0, 51, 74
1, 23176, Note_on_c, 0, 39, 64
1, 23181, Note_on_c, 0, 78, 69
1, 23182, Control_c, 0, 64, 56
1, 23182, Control_c, 0, 67, 89
1, 23196, Control_c, 0, 64, 63
1, 23196, Control_c, 0, 67, 89
1, 23202, Note_off_c, 0, 39, 65
1, 23211, Control_c, 0, 64, 66
1, 23211, Control_c, 0, 67, 88
1, 23217, Note_off_c, 0, 51, 63
1, 23228, Control_c, 0, 64, 69
1, 23242, Control_c, 0, 64, 73
1, 23242, Control_c, 0, 67, 88
1, 23243, Note_off_c, 0, 78, 57
1, 23255, Note_on_c, 0, 82, 62
1, 23257, Control_c, 0, 64, 77
1, 23272, Control_c, 0, 64, 81
1, 23272, Control_c, 0, 67, 87
1, 23287, Control_c, 0, 64, 86
1, 23287, Control_c, 0, 67, 87
1, 23290, Note_off_c, 0, 82, 65
1, 23301, Control_c, 0, 64, 90
1, 23301, Control_c, 0, 67, 85
1, 23316, Control_c, 0, 64, 94
1, 23316, Control_c, 0, 67, 82
1, 23331, Control_c, 0, 64, 97
1, 23331, Control_c, 0, 67, 79
1, 23337, Note_on_c, 0, 78, 29
1, 23346, Control_c, 0, 64, 102
1, 23346, Control_c, 0, 67, 79
1, 23361, Control_c, 0, 64, 107
1, 23361, Control_c, 0, 67, 78
1, 23374, Note_off_c, 0, 78, 43
1, 23375, Control_c, 0, 64, 117
1, 23375, Control_c, 0, 67, 78
1, 23390, Control_c, 0, 64, 127
1, 23403, Note_on_c, 0, 94, 68
1, 23405, Control_c, 0, 67, 77
1, 23409, Note_on_c, 0, 66, 69
1, 23412, Note_on_c, 0, 58, 57
1, 23419, Note_off_c, 0, 94, 67
1, 23419, Control_c, 0, 67, 74
1, 23434, Control_c, 0, 67, 71
1, 23445, Note_off_c, 0, 66, 63
1, 23449, Control_c, 0, 67, 68
1, 23458, Note_off_c, 0, 58, 64
1, 23464, Control_c, 0, 67, 66
1, 23479, Control_c, 0, 67, 64
1, 23489, Note_on_c, 0, 82, 66
1, 23493, Control_c, 0, 67, 63
1, 23522, Note_off_c, 0, 82, 61
1, 23523, Control_c, 0, 67, 63
1, 23538, Control_c, 0, 67, 62
1, 23547, Note_on_c, 0, 78, 65
1, 23553, Control_c, 0, 67, 61
1, 23567, Control_c, 0, 67, 59
1, 23576, Note_off_c, 0, 78, 66
1, 23582, Control_c, 0, 67, 56
1, 23597, Control_c, 0, 67, 54
1, 23604, Note_on_c, 0, 92, 84
1, 23612, Control_c, 0, 67, 52
1, 23627, Control_c, 0, 67, 50
1, 23641, Control_c, 0, 67, 47
1, 23656, Control_c, 0, 67, 44
1, 23670, Note_off_c, 0, 92, 65
1, 23671, Control_c, 0, 67, 41
1, 23673, Note_on_c, 0, 82, 72
1, 23685, Control_c, 0, 67, 36
1, 23700, Control_c, 0, 67, 33
1, 23715, Control_c, 0, 67, 29
1, 23724, Note_off_c, 0, 82, 62
1, 23724, Note_on_c, 0, 78, 75
1, 23730, Control_c, 0, 67, 24
1, 23745, Control_c, 0, 67, 19
1, 23752, Note_off_c, 0, 78, 64
1, 23759, Control_c, 0, 67, 14
1, 23774, Control_c, 0, 67, 9
1, 23786, Note_on_c, 0, 90, 88
1, 23789, Control_c, 0, 67, 0
1, 23794, Note_on_c, 0, 51, 80
1, 23798, Note_on_c, 0, 39, 77
1, 23843, Note_on_c, 0, 82, 83
1, 23895, Note_off_c, 0, 90, 66
1, 23901, Note_off_c, 0, 82, 64
1, 23917, Note_off_c, 0, 51, 64
1, 23921, Note_off_c, 0, 39, 63
1, 23922, Note_on_c, 0, 78, 69
1, 23930, Control_c, 0, 64, 86
1, 23940, Note_off_c, 0, 78, 67
1, 23945, Control_c, 0, 64, 63
1, 23960, Control_c, 0, 64, 38
1, 23974, Control_c, 0, 64, 14
1, 23982, Note_on_c, 0, 85, 89
1, 23985, Note_on_c, 0, 52, 87
1, 23988, Note_on_c, 0, 40, 81
1, 23989, Control_c, 0, 64, 30
1, 24004, Control_c, 0, 64, 52
1, 24020, Note_off_c, 0, 40, 67
1, 24020, Control_c, 0, 64, 65
1, 24035, Control_c, 0, 64, 72
1, 24042, Note_off_c, 0, 52, 66
1, 24047, Note_on_c, 0, 82, 79
1, 24050, Control_c, 0, 64, 80
1, 24064, Control_c, 0, 64, 86
1, 24069, Note_off_c, 0, 85, 65
1, 24079, Control_c, 0, 64, 92
1, 24094, Control_c, 0, 64, 99
1, 24109, Control_c, 0, 64, 117
1, 24114, Note_off_c, 0, 82, 65
1, 24123, Control_c, 0, 64, 127
1, 24156, Note_on_c, 0, 78, 49
1, 24179, Note_off_c, 0, 78, 58
1, 24212, Note_on_c, 0, 66, 83
1, 24216, Note_on_c, 0, 94, 77
1, 24222, Note_on_c, 0, 58, 65
1, 24244, Note_off_c, 0, 94, 65
1, 24245, Note_off_c, 0, 66, 58
1, 24257, Note_off_c, 0, 58, 68
1, 24371, Note_on_c, 0, 78, 45
1, 24396, Note_off_c, 0, 78, 57
1, 24420, Note_on_c, 0, 92, 86
1, 24481, Note_off_c, 0, 92, 57
1, 24481, Note_on_c, 0, 82, 80
1, 24536, Note_off_c, 0, 82, 63
1, 24539, Note_on_c, 0, 78, 64
1, 24573, Note_off_c, 0, 78, 65
1, 24603, Note_on_c, 0, 52, 83
1, 24604, Note_on_c, 0, 40, 78
1, 24611, Note_on_c, 0, 90, 90
1, 24676, Note_on_c, 0, 82, 76
1, 24692, Note_off_c, 0, 40, 53
1, 24704, Note_off_c, 0, 52, 61
1, 24713, Note_off_c, 0, 90, 66
1, 24739, Note_on_c, 0, 78, 72
1, 24767, Note_off_c, 0, 78, 66
1, 24798, Control_c, 0, 64, 80
1, 24814, Control_c, 0, 64, 58
1, 24825, Note_off_c, 0, 82, 59
1, 24829, Control_c, 0, 64, 25
1, 24830, Note_on_c, 0, 53, 85
1, 24835, Note_on_c, 0, 41, 83
1, 24844, Control_c, 0, 64, 16
1, 24859, Control_c, 0, 64, 29
1, 24873, Control_c, 0, 64, 48
1, 24880, Note_on_c, 0, 73, 77
1, 24881, Note_off_c, 0, 41, 62
1, 24888, Control_c, 0, 64, 61
1, 24903, Control_c, 0, 64, 67
1, 24918, Control_c, 0, 64, 71
1, 24921, Note_off_c, 0, 53, 63
1, 24931, Note_off_c, 0, 73, 57
1, 24933, Control_c, 0, 64, 75
1, 24947, Control_c, 0, 64, 78
1, 24953, Note_on_c, 0, 85, 69
1, 24962, Control_c, 0, 64, 81
1, 24977, Control_c, 0, 64, 84
1, 24992, Control_c, 0, 64, 87
1, 25007, Control_c, 0, 64, 92
1, 25013, Note_off_c, 0, 85, 62
1, 25014, Note_on_c, 0, 82, 77
1, 25021, Control_c, 0, 64, 99
1, 25036, Control_c, 0, 64, 111
1, 25051, Control_c, 0, 64, 127
1, 25074, Note_off_c, 0, 82, 61
1, 25080, Note_on_c, 0, 65, 65
1, 25086, Note_on_c, 0, 85, 55
1, 25088, Note_on_c, 0, 58, 67
1, 25108, Note_off_c, 0, 65, 65
1, 25114, Note_off_c, 0, 85, 66
1, 25122, Note_off_c, 0, 58, 65
1, 25179, Poly_aftertouch_c, 0, 61, 0
1, 25184, Note_on_c, 0, 85, 59
1, 25204, Note_off_c, 0, 85, 65
1, 25233, Note_on_c, 0, 97, 76
1, 25259, Control_c, 0, 64, 99
1, 25273, Note_on_c, 0, 94, 80
1, 25273, Control_c, 0, 64, 75
1, 25287, Note_on_c, 0, 52, 84
1, 25288, Note_off_c, 0, 97, 65
1, 25288, Control_c, 0, 64, 60
1, 25291, Note_on_c, 0, 40, 82
1, 25303, Control_c, 0, 64, 52
1, 25318, Control_c, 0, 64, 55
1, 25333, Control_c, 0, 64, 65
1, 25351, Note_on_c, 0, 97, 68
1, 25351, Note_off_c, 0, 94, 64
1, 25354, Control_c, 0, 64, 77
1, 25369, Control_c, 0, 64, 97
1, 25379, Note_off_c, 0, 97, 67
1, 25381, Note_off_c, 0, 40, 59
1, 25383, Note_off_c, 0, 52, 63
1, 25384, Control_c, 0, 64, 127
1, 25430, Note_on_c, 0, 85, 71
1, 25453, Note_off_c, 0, 85, 65
1, 25477, Note_on_c, 0, 53, 90
1, 25480, Note_on_c, 0, 41, 88
1, 25498, Note_on_c, 0, 85, 89
1, 25547, Note_off_c, 0, 85, 64
1, 25548, Note_on_c, 0, 82, 67
1, 25565, Note_off_c, 0, 53, 63
1, 25607, Control_c, 0, 64, 109
1, 25607, Note_on_c, 0, 85, 65
1, 25613, Note_off_c, 0, 82, 61
1, 25617, Note_off_c, 0, 41, 61
1, 25622, Control_c, 0, 64, 73
1, 25637, Control_c, 0, 64, 54
1, 25641, Note_off_c, 0, 85, 66
1, 25650, Control_c, 0, 64, 30
1, 25665, Control_c, 0, 64, 30
1, 25680, Control_c, 0, 64, 44
1, 25687, Note_on_c, 0, 54, 95
1, 25690, Note_on_c, 0, 73, 77
1, 25694, Control_c, 0, 64, 60
1, 25697, Note_on_c, 0, 42, 72
1, 25709, Control_c, 0, 64, 67
1, 25724, Control_c, 0, 64, 72
1, 25729, Note_off_c, 0, 42, 65
1, 25736, Note_off_c, 0, 54, 65
1, 25737, Note_off_c, 0, 73, 63
1, 25739, Control_c, 0, 64, 79
1, 25754, Control_c, 0, 64, 82
1, 25756, Note_on_c, 0, 85, 69
1, 25768, Control_c, 0, 64, 85
1, 25783, Control_c, 0, 64, 87
1, 25798, Control_c, 0, 64, 89
1, 25813, Control_c, 0, 64, 92
1, 25828, Control_c, 0, 64, 97
1, 25829, Note_on_c, 0, 82, 75
1, 25833, Note_off_c, 0, 85, 64
1, 25843, Control_c, 0, 64, 104
1, 25858, Control_c, 0, 64, 113
1, 25873, Control_c, 0, 64, 127
1, 25882, Note_off_c, 0, 82, 64
1, 25902, Note_on_c, 0, 64, 71
1, 25905, Note_on_c, 0, 85, 72
1, 25906, Note_on_c, 0, 58, 68
1, 25920, Note_on_c, 0, 61, 58
1, 25929, Note_off_c, 0, 85, 67
1, 25929, Note_off_c, 0, 64, 67
1, 25938, Note_off_c, 0, 58, 68
1, 25941, Note_off_c, 0, 61, 63
1, 25978, Note_on_c, 0, 85, 79
1, 26034, Note_off_c, 0, 85, 59
1, 26045, Note_on_c, 0, 97, 93
1, 26065, Control_c, 0, 64, 103
1, 26087, Control_c, 0, 64, 73
1, 26098, Note_on_c, 0, 53, 87
1, 26102, Control_c, 0, 64, 59
1, 26102, Note_on_c, 0, 41, 87
1, 26109, Note_on_c, 0, 94, 83
1, 26110, Note_off_c, 0, 97, 67
1, 26117, Control_c, 0, 64, 43
1, 26132, Control_c, 0, 64, 38
1, 26147, Control_c, 0, 64, 49
1, 26159, Note_off_c, 0, 53, 53
1, 26162, Control_c, 0, 64, 64
1, 26163, Note_off_c, 0, 94, 63
1, 26172, Note_on_c, 0, 97, 72
1, 26176, Control_c, 0, 64, 75
1, 26191, Control_c, 0, 64, 92
1, 26197, Note_off_c, 0, 97, 69
1, 26204, Note_off_c, 0, 41, 60
1, 26206, Control_c, 0, 64, 109
1, 26220, Control_c, 0, 64, 118
1, 26235, Control_c, 0, 64, 127
1, 26297, Note_on_c, 0, 42, 90
1, 26298, Note_on_c, 0, 54, 94
1, 26301, Note_on_c, 0, 85, 78
1, 26359, Note_on_c, 0, 82, 64
1, 26364, Note_off_c, 0, 85, 63
1, 26414, Control_c, 0, 64, 88
1, 26422, Note_off_c, 0, 82, 59
1, 26426, Note_off_c, 0, 42, 61
1, 26427, Note_off_c, 0, 54, 62
1, 26429, Control_c, 0, 64, 62
1, 26439, Note_on_c, 0, 85, 42
1, 26444, Control_c, 0, 64, 31
1, 26458, Control_c, 0, 64, 0
1, 26470, Note_off_c, 0, 85, 66
1, 26473, Control_c, 0, 64, 31
1, 26488, Control_c, 0, 64, 56
1, 26493, Note_on_c, 0, 55, 91
1, 26493, Note_on_c, 0, 73, 81
1, 26496, Note_on_c, 0, 43, 87
1, 26503, Control_c, 0, 64, 68
1, 26517, Control_c, 0, 64, 77
1, 26532, Note_off_c, 0, 43, 59
1, 26532, Control_c, 0, 64, 86
1, 26546, Note_off_c, 0, 73, 64
1, 26547, Control_c, 0, 64, 90
1, 26559, Note_on_c, 0, 85, 76
1, 26562, Note_off_c, 0, 55, 65
1, 26562, Control_c, 0, 64, 92
1, 26577, Control_c, 0, 64, 94
1, 26591, Control_c, 0, 64, 97
1, 26606, Control_c, 0, 64, 102
1, 26619, Note_on_c, 0, 82, 75
1, 26621, Control_c, 0, 64, 109
1, 26624, Note_off_c, 0, 85, 64
1, 26636, Control_c, 0, 64, 124
1, 26651, Control_c, 0, 64, 127
1, 26669, Note_off_c, 0, 82, 62
1, 26695, Note_on_c, 0, 64, 79
1, 26695, Note_on_c, 0, 85, 47
1, 26707, Note_on_c, 0, 61, 57
1, 26716, Note_off_c, 0, 64, 68
1, 26719, Note_off_c, 0, 85, 59
1, 26721, Note_on_c, 0, 53, 38
1, 26725, Note_on_c, 0, 55, 38
1, 26728, Note_off_c, 0, 61, 60
1, 26752, Note_off_c, 0, 55, 57
1, 26753, Note_off_c, 0, 53, 47
1, 26773, Note_on_c, 0, 85, 62
1, 26794, Note_on_c, 0, 64, 20
1, 26799, Control_c, 0, 64, 120
1, 26800, Note_off_c, 0, 85, 64
1, 26814, Control_c, 0, 64, 72
1, 26818, Note_on_c, 0, 97, 90
1, 26836, Control_c, 0, 64, 47
1, 26839, Note_off_c, 0, 64, 58
1, 26850, Control_c, 0, 64, 0
1, 26880, Note_on_c, 0, 92, 83
1, 26880, Control_c, 0, 64, 32
1, 26886, Note_off_c, 0, 97, 65
1, 26895, Note_on_c, 0, 44, 92
1, 26895, Note_on_c, 0, 56, 94
1, 26895, Control_c, 0, 64, 63
1, 26910, Control_c, 0, 64, 79
1, 26917, Note_off_c, 0, 44, 66
1, 26925, Control_c, 0, 64, 102
1, 26940, Note_off_c, 0, 56, 64
1, 26940, Control_c, 0, 64, 127
1, 26954, Note_on_c, 0, 97, 79
1, 26954, Note_off_c, 0, 92, 65
1, 26974, Note_off_c, 0, 97, 71
1, 27011, Note_on_c, 0, 85, 73
1, 27037, Note_off_c, 0, 85, 68
1, 27083, Note_on_c, 0, 85, 96
1, 27089, Note_on_c, 0, 65, 72
1, 27098, Note_on_c, 0, 56, 52
1, 27099, Note_off_c, 0, 56, 127
1, 27107, Note_off_c, 0, 65, 66
1, 27142, Note_off_c, 0, 85, 64
1, 27147, Note_on_c, 0, 80, 77
1, 27218, Note_off_c, 0, 80, 63
1, 27226, Note_on_c, 0, 85, 84
1, 27237, Control_c, 0, 64, 92
1, 27252, Control_c, 0, 64, 47
1, 27266, Control_c, 0, 64, 0
1, 27272, Note_off_c, 0, 85, 64
1, 27283, Note_on_c, 0, 57, 98
1, 27286, Note_on_c, 0, 73, 86
1, 27287, Note_on_c, 0, 45, 83
1, 27313, Note_off_c, 0, 45, 69
1, 27326, Control_c, 0, 64, 57
1, 27329, Note_off_c, 0, 57, 67
1, 27333, Note_off_c, 0, 73, 65
1, 27340, Control_c, 0, 64, 93
1, 27355, Control_c, 0, 64, 127
1, 27364, Note_on_c, 0, 85, 91
1, 27414, Note_on_c, 0, 78, 82
1, 27420, Note_off_c, 0, 85, 64
1, 27491, Note_on_c, 0, 85, 78
1, 27493, Note_on_c, 0, 63, 76
1, 27493, Note_on_c, 0, 66, 94
1, 27494, Note_off_c, 0, 78, 64
1, 27496, Note_on_c, 0, 57, 80
1, 27513, Note_off_c, 0, 85, 68
1, 27530, Note_off_c, 0, 66, 67
1, 27539, Note_off_c, 0, 57, 64
1, 27541, Note_off_c, 0, 63, 64
1, 27556, Note_on_c, 0, 75, 51
1, 27586, Note_off_c, 0, 75, 63
1, 27646, Note_on_c, 0, 73, 83
1, 27658, Poly_aftertouch_c, 0, 85, 0
1, 27697, Note_on_c, 0, 66, 80
1, 27703, Note_off_c, 0, 73, 58
1, 27767, Note_on_c, 0, 73, 70
1, 27796, Note_off_c, 0, 66, 64
1, 27809, Note_off_c, 0, 73, 67
1, 27837, Note_on_c, 0, 61, 87
1, 27860, Note_off_c, 0, 61, 68
1, 27910, Note_on_c, 0, 45, 95
1, 27913, Note_on_c, 0, 33, 90
1, 27921, Note_on_c, 0, 61, 86
1, 27975, Note_off_c, 0, 45, 52
1, 28007, Note_on_c, 0, 54, 83
1, 28008, Note_off_c, 0, 61, 65
1, 28082, Note_off_c, 0, 54, 63
1, 28094, Note_on_c, 0, 61, 75
1, 28180, Note_off_c, 0, 33, 62
1, 28217, Note_off_c, 0, 61, 65
1, 28231, Note_on_c, 0, 44, 107
1, 28233, Note_on_c, 0, 32, 92
1, 28239, Note_on_c, 0, 51, 88
1, 28253, Control_c, 0, 64, 72
1, 28268, Control_c, 0, 64, 41
1, 28282, Control_c, 0, 64, 0
1, 28336, Note_off_c, 0, 51, 63
1, 28350, Control_c, 0, 64, 48
1, 28356, Note_on_c, 0, 54, 62
1, 28364, Control_c, 0, 64, 62
1, 28379, Control_c, 0, 64, 66
1, 28394, Control_c, 0, 64, 71
1, 28409, Control_c, 0, 64, 77
1, 28416, Note_on_c, 0, 61, 72
1, 28424, Control_c, 0, 64, 82
1, 28425, Note_off_c, 0, 54, 63
1, 28438, Control_c, 0, 64, 86
1, 28453, Control_c, 0, 64, 90
1, 28468, Control_c, 0, 64, 93
1, 28482, Control_c, 0, 64, 98
1, 28489, Note_off_c, 0, 61, 63
1, 28493, Note_on_c, 0, 63, 65
1, 28497, Control_c, 0, 64, 108
1, 28512, Control_c, 0, 64, 127
1, 28518, Note_off_c, 0, 63, 66
1, 28541, Note_on_c, 0, 54, 73
1, 28575, Note_off_c, 0, 54, 63
1, 28611, Note_on_c, 0, 61, 77
1, 28665, Note_on_c, 0, 63, 69
1, 28691, Note_off_c, 0, 61, 63
1, 28719, Note_on_c, 0, 66, 73
1, 28725, Note_off_c, 0, 63, 64
1, 28761, Note_off_c, 0, 66, 63
1, 28795, Note_on_c, 0, 61, 83
1, 28855, Note_on_c, 0, 63, 79
1, 28860, Note_off_c, 0, 61, 61
1, 28905, Note_on_c, 0, 66, 76
1, 28911, Note_off_c, 0, 32, 60
1, 28924, Note_off_c, 0, 63, 62
1, 28939, Note_off_c, 0, 44, 55
1, 28965, Note_on_c, 0, 73, 76
1, 28967, Note_off_c, 0, 66, 64
1, 29011, Note_off_c, 0, 73, 65
1, 29033, Note_on_c, 0, 63, 84
1, 29091, Note_on_c, 0, 66, 80
1, 29104, Note_off_c, 0, 63, 65
1, 29153, Note_on_c, 0, 73, 69
1, 29169, Note_off_c, 0, 66, 64
1, 29217, Note_on_c, 0, 75, 71
1, 29226, Note_off_c, 0, 73, 64
1, 29242, Note_off_c, 0, 75, 68
1, 29265, Note_on_c, 0, 66, 79
1, 29312, Note_off_c, 0, 66, 62
1, 29330, Note_on_c, 0, 73, 81
1, 29358, Note_on_c, 0, 66, 91
1, 29363, Note_on_c, 0, 56, 85
1, 29363, Note_on_c, 0, 61, 86
1, 29378, Note_on_c, 0, 75, 67
1, 29387, Note_off_c, 0, 56, 68
1, 29390, Note_off_c, 0, 66, 66
1, 29399, Note_off_c, 0, 61, 65
1, 29415, Note_off_c, 0, 73, 64
1, 29443, Note_on_c, 0, 78, 71
1, 29450, Note_off_c, 0, 75, 65
1, 29483, Note_off_c, 0, 78, 63
1, 29515, Note_on_c, 0, 73, 80
1, 29579, Note_on_c, 0, 75, 75
1, 29585, Note_off_c, 0, 73, 62
1, 29634, Note_off_c, 0, 75, 64
1, 29641, Note_on_c, 0, 85, 84
1, 29678, Note_on_c, 0, 66, 97
1, 29679, Note_on_c, 0, 56, 89
1, 29682, Note_on_c, 0, 61, 82
1, 29700, Note_on_c, 0, 78, 68
1, 29709, Note_off_c, 0, 61, 67
1, 29717, Note_off_c, 0, 66, 62
1, 29726, Note_off_c, 0, 56, 60
1, 29731, Note_off_c, 0, 85, 63
1, 29749, Note_off_c, 0, 78, 64
1, 29760, Note_on_c, 0, 56, 77
1, 29760, Note_on_c, 0, 66, 88
1, 29763, Note_on_c, 0, 61, 92
1, 29784, Note_on_c, 0, 75, 82
1, 29865, Note_on_c, 0, 78, 72
1, 29875, Note_off_c, 0, 75, 63
1, 29920, Note_off_c, 0, 78, 61
1, 29940, Note_on_c, 0, 87, 75
1, 29998, Note_on_c, 0, 85, 76
1, 30018, Note_off_c, 0, 87, 62
1, 30052, Note_on_c, 0, 78, 74
1, 30080, Note_off_c, 0, 85, 64
1, 30109, Note_off_c, 0, 78, 59
1, 30118, Note_on_c, 0, 75, 79
1, 30155, Note_off_c, 0, 75, 61
1, 30185, Note_on_c, 0, 85, 78
1, 30206, Note_off_c, 0, 66, 58
1, 30235, Note_on_c, 0, 78, 82
1, 30257, Note_off_c, 0, 85, 65
1, 30271, Note_off_c, 0, 56, 53
1, 30299, Note_on_c, 0, 75, 77
1, 30317, Note_off_c, 0, 61, 53
1, 30323, Note_off_c, 0, 78, 64
1, 30362, Note_on_c, 0, 73, 76
1, 30362, Note_off_c, 0, 75, 64
1, 30398, Note_off_c, 0, 73, 61
1, 30422, Note_on_c, 0, 78, 84
1, 30475, Note_on_c, 0, 75, 79
1, 30518, Note_off_c, 0, 78, 62
1, 30535, Note_on_c, 0, 73, 78
1, 30571, Note_off_c, 0, 75, 65
1, 30601, Note_off_c, 0, 73, 65
1, 30615, Note_on_c, 0, 66, 79
1, 30672, Note_off_c, 0, 66, 54
1, 30679, Note_on_c, 0, 75, 76
1, 30723, Note_on_c, 0, 73, 64
1, 30751, Note_off_c, 0, 73, 66
1, 30755, Note_off_c, 0, 75, 66
1, 30794, Note_on_c, 0, 66, 72
1, 30843, Note_off_c, 0, 66, 62
1, 30846, Note_on_c, 0, 63, 77
1, 30916, Note_off_c, 0, 63, 62
1, 30925, Note_on_c, 0, 73, 70
1, 30982, Note_on_c, 0, 66, 68
1, 30994, Note_off_c, 0, 73, 63
1, 31055, Note_on_c, 0, 63, 69
1, 31061, Note_off_c, 0, 66, 63
1, 31118, Note_off_c, 0, 63, 64
1, 31128, Note_on_c, 0, 61, 69
1, 31179, Note_off_c, 0, 61, 55
1, 31203, Note_on_c, 0, 66, 61
1, 31274, Note_off_c, 0, 66, 64
1, 31276, Note_on_c, 0, 63, 62
1, 31307, Control_c, 0, 67, 8
1, 31330, Control_c, 0, 67, 8
1, 31345, Control_c, 0, 67, 9
1, 31360, Control_c, 0, 67, 10
1, 31375, Control_c, 0, 67, 11
1, 31389, Control_c, 0, 67, 12
1, 31402, Note_off_c, 0, 63, 58
1, 31404, Control_c, 0, 67, 12
1, 31419, Control_c, 0, 67, 13
1, 31420, Note_on_c, 0, 44, 45
1, 31434, Control_c, 0, 67, 14
1, 31437, Note_on_c, 0, 32, 47
1, 31449, Control_c, 0, 67, 15
1, 31463, Control_c, 0, 67, 15
1, 31478, Control_c, 0, 67, 16
1, 31493, Control_c, 0, 67, 17
1, 31507, Control_c, 0, 67, 19
1, 31510, Note_on_c, 0, 56, 49
1, 31522, Control_c, 0, 67, 21
1, 31537, Control_c, 0, 67, 24
1, 31552, Control_c, 0, 67, 25
1, 31567, Control_c, 0, 67, 26
1, 31581, Control_c, 0, 67, 27
1, 31596, Control_c, 0, 64, 119
1, 31596, Control_c, 0, 67, 30
1, 31602, Note_off_c, 0, 56, 55
1, 31611, Control_c, 0, 64, 110
1, 31611, Control_c, 0, 67, 32
1, 31626, Control_c, 0, 64, 104
1, 31626, Control_c, 0, 67, 34
1, 31641, Control_c, 0, 64, 100
1, 31641, Control_c, 0, 67, 37
1, 31656, Control_c, 0, 64, 96
1, 31656, Control_c, 0, 67, 40
1, 31659, Note_on_c, 0, 63, 56
1, 31671, Control_c, 0, 64, 93
1, 31671, Control_c, 0, 67, 43
1, 31686, Control_c, 0, 64, 89
1, 31686, Control_c, 0, 67, 46
1, 31700, Control_c, 0, 64, 86
1, 31700, Control_c, 0, 67, 47
1, 31715, Control_c, 0, 64, 84
1, 31715, Control_c, 0, 67, 48
1, 31730, Control_c, 0, 64, 82
1, 31730, Control_c, 0, 67, 49
1, 31731, Note_on_c, 0, 66, 61
1, 31731, Note_off_c, 0, 63, 61
1, 31745, Control_c, 0, 64, 81
1, 31745, Control_c, 0, 67, 51
1, 31760, Control_c, 0, 64, 81
1, 31760, Control_c, 0, 67, 54
1, 31775, Control_c, 0, 64, 80
1, 31775, Control_c, 0, 67, 58
1, 31789, Control_c, 0, 64, 78
1, 31789, Control_c, 0, 67, 62
1, 31790, Note_off_c, 0, 66, 60
1, 31796, Note_on_c, 0, 68, 65
1, 31804, Control_c, 0, 64, 76
1, 31804, Control_c, 0, 67, 64
1, 31819, Control_c, 0, 64, 75
1, 31819, Control_c, 0, 67, 66
1, 31826, Note_off_c, 0, 68, 67
1, 31833, Control_c, 0, 64, 73
1, 31833, Control_c, 0, 67, 68
1, 31848, Control_c, 0, 64, 72
1, 31848, Control_c, 0, 67, 70
1, 31861, Note_on_c, 0, 63, 74
1, 31863, Control_c, 0, 64, 71
1, 31863, Control_c, 0, 67, 73
1, 31878, Control_c, 0, 64, 70
1, 31878, Control_c, 0, 67, 75
1, 31893, Control_c, 0, 64, 69
1, 31893, Control_c, 0, 67, 77
1, 31907, Control_c, 0, 64, 67
1, 31907, Control_c, 0, 67, 79
1, 31922, Control_c, 0, 64, 66
1, 31922, Control_c, 0, 67, 81
1, 31931, Note_on_c, 0, 66, 68
1, 31934, Note_off_c, 0, 63, 61
1, 31937, Control_c, 0, 64, 64
1, 31937, Control_c, 0, 67, 84
1, 31952, Control_c, 0, 64, 62
1, 31952, Control_c, 0, 67, 87
1, 31967, Control_c, 0, 64, 58
1, 31967, Control_c, 0, 67, 89
1, 31976, Note_on_c, 0, 68, 71
1, 31981, Control_c, 0, 64, 53
1, 31981, Control_c, 0, 67, 90
1, 31997, Control_c, 0, 64, 45
1, 31997, Control_c, 0, 67, 92
1, 31998, Note_off_c, 0, 66, 60
1, 32012, Control_c, 0, 64, 34
1, 32012, Control_c, 0, 67, 95
1, 32027, Control_c, 0, 64, 27
1, 32027, Control_c, 0, 67, 97
1, 32042, Control_c, 0, 64, 29
1, 32042, Control_c, 0, 67, 97
1, 32043, Note_off_c, 0, 68, 65
1, 32052, Note_on_c, 0, 75, 64
1, 32057, Control_c, 0, 64, 43
1, 32079, Control_c, 0, 64, 57
1, 32079, Control_c, 0, 67, 98
1, 32094, Control_c, 0, 64, 64
1, 32102, Note_off_c, 0, 75, 64
1, 32109, Control_c, 0, 64, 67
1, 32109, Control_c, 0, 67, 98
1, 32121, Note_on_c, 0, 66, 73
1, 32124, Control_c, 0, 64, 70
1, 32138, Control_c, 0, 64, 73
1, 32153, Control_c, 0, 64, 77
1, 32168, Control_c, 0, 64, 82
1, 32175, Note_on_c, 0, 68, 74
1, 32183, Control_c, 0, 64, 86
1, 32184, Note_off_c, 0, 66, 63
1, 32197, Note_off_c, 0, 32, 50
1, 32198, Control_c, 0, 64, 90
1, 32212, Control_c, 0, 64, 93
1, 32227, Control_c, 0, 64, 98
1, 32228, Note_on_c, 0, 75, 67
1, 32234, Note_off_c, 0, 44, 62
1, 32242, Control_c, 0, 64, 101
1, 32249, Note_off_c, 0, 68, 64
1, 32256, Control_c, 0, 64, 106
1, 32271, Control_c, 0, 64, 115
1, 32271, Control_c, 0, 67, 99
1, 32286, Control_c, 0, 64, 127
1, 32286, Control_c, 0, 67, 99
1, 32288, Note_on_c, 0, 78, 67
1, 32310, Note_off_c, 0, 75, 64
1, 32316, Control_c, 0, 67, 100
1, 32322, Note_off_c, 0, 78, 65
1, 32330, Control_c, 0, 67, 100
1, 32345, Control_c, 0, 67, 101
1, 32356, Note_on_c, 0, 68, 72
1, 32360, Control_c, 0, 67, 103
1, 32375, Control_c, 0, 67, 105
1, 32385, Note_off_c, 0, 68, 64
1, 32390, Control_c, 0, 67, 106
1, 32404, Control_c, 0, 67, 107
1, 32419, Note_on_c, 0, 75, 81
1, 32419, Control_c, 0, 67, 108
1, 32434, Control_c, 0, 67, 109
1, 32449, Control_c, 0, 67, 110
1, 32464, Control_c, 0, 67, 111
1, 32477, Note_on_c, 0, 78, 74
1, 32478, Control_c, 0, 67, 112
1, 32505, Note_off_c, 0, 75, 63
1, 32508, Control_c, 0, 67, 112
1, 32541, Note_off_c, 0, 78, 62
1, 32545, Note_on_c, 0, 80, 63
1, 32570, Note_off_c, 0, 80, 66
1, 32612, Note_on_c, 0, 75, 75
1, 32669, Note_on_c, 0, 78, 68
1, 32671, Control_c, 0, 67, 113
1, 32676, Note_off_c, 0, 75, 56
1, 32701, Control_c, 0, 67, 113
1, 32713, Note_on_c, 0, 80, 56
1, 32732, Note_on_c, 0, 68, 59
1, 32744, Note_off_c, 0, 78, 62
1, 32748, Note_on_c, 0, 60, 47
1, 32750, Note_on_c, 0, 56, 40
1, 32751, Note_on_c, 0, 66, 58
1, 32785, Note_off_c, 0, 80, 64
1, 32796, Note_off_c, 0, 66, 56
1, 32802, Note_off_c, 0, 68, 58
1, 32805, Note_off_c, 0, 56, 50
1, 32809, Note_off_c, 0, 60, 54
1, 32815, Note_on_c, 0, 87, 57
1, 32844, Note_off_c, 0, 87, 64
1, 32875, Note_on_c, 0, 78, 68
1, 32937, Note_on_c, 0, 80, 53
1, 32977, Note_off_c, 0, 78, 35
1, 32998, Note_off_c, 0, 80, 59
1, 33019, Note_on_c, 0, 90, 61
1, 33028, Note_on_c, 0, 68, 50
1, 33029, Note_on_c, 0, 56, 45
1, 33031, Note_on_c, 0, 60, 49
1, 33033, Note_on_c, 0, 66, 47
1, 33063, Note_off_c, 0, 68, 52
1, 33070, Note_off_c, 0, 56, 51
1, 33070, Note_off_c, 0, 66, 63
1, 33074, Note_off_c, 0, 60, 58
1, 33077, Note_off_c, 0, 90, 63
1, 33088, Note_on_c, 0, 87, 57
1, 33130, Note_on_c, 0, 80, 65
1, 33150, Note_off_c, 0, 87, 63
1, 33153, Control_c, 0, 67, 113
1, 33173, Note_on_c, 0, 68, 46
1, 33176, Note_on_c, 0, 66, 51
1, 33182, Note_on_c, 0, 60, 47
1, 33183, Note_on_c, 0, 56, 47
1, 33191, Note_off_c, 0, 80, 62
1, 33199, Note_on_c, 0, 78, 70
1, 33246, Note_off_c, 0, 78, 59
1, 33271, Control_c, 0, 67, 113
1, 33275, Note_on_c, 0, 87, 71
1, 33322, Note_on_c, 0, 80, 67
1, 33341, Note_off_c, 0, 87, 66
1, 33361, Control_c, 0, 67, 114
1, 33376, Control_c, 0, 67, 114
1, 33385, Note_on_c, 0, 78, 65
1, 33388, Note_off_c, 0, 68, 34
1, 33405, Note_off_c, 0, 80, 62
1, 33405, Control_c, 0, 67, 115
1, 33420, Control_c, 0, 67, 115
1, 33435, Control_c, 0, 67, 116
1, 33444, Note_off_c, 0, 78, 63
1, 33450, Note_on_c, 0, 75, 76
1, 33450, Control_c, 0, 67, 116
1, 33465, Control_c, 0, 67, 117
1, 33479, Control_c, 0, 67, 118
1, 33495, Note_off_c, 0, 75, 56
1, 33509, Control_c, 0, 67, 119
1, 33519, Note_on_c, 0, 80, 74
1, 33524, Control_c, 0, 67, 119
1, 33539, Control_c, 0, 67, 120
1, 33552, Note_off_c, 0, 56, 41
1, 33553, Control_c, 0, 67, 120
1, 33568, Note_on_c, 0, 78, 74
1, 33568, Control_c, 0, 67, 121
1, 33581, Note_off_c, 0, 60, 42
1, 33590, Note_off_c, 0, 66, 41
1, 33590, Control_c, 0, 67, 122
1, 33606, Control_c, 0, 67, 123
1, 33611, Note_off_c, 0, 80, 60
1, 33621, Control_c, 0, 67, 123
1, 33641, Note_on_c, 0, 75, 72
1, 33651, Control_c, 0, 67, 124
1, 33665, Control_c, 0, 67, 125
1, 33667, Note_off_c, 0, 78, 63
1, 33680, Control_c, 0, 67, 125
1, 33693, Note_off_c, 0, 75, 63
1, 33710, Control_c, 0, 67, 126
1, 33722, Note_on_c, 0, 68, 70
1, 33739, Control_c, 0, 67, 126
1, 33765, Note_off_c, 0, 68, 55
1, 33769, Control_c, 0, 67, 127
1, 33783, Note_on_c, 0, 78, 62
1, 33784, Control_c, 0, 67, 127
1, 33825, Note_on_c, 0, 75, 56
1, 33841, Note_off_c, 0, 78, 62
1, 33865, Note_off_c, 0, 75, 63
1, 33911, Note_on_c, 0, 68, 63
1, 33960, Note_off_c, 0, 68, 64
1, 33971, Note_on_c, 0, 66, 65
1, 34027, Note_off_c, 0, 66, 62
1, 34051, Note_on_c, 0, 75, 63
1, 34092, Note_off_c, 0, 75, 61
1, 34103, Note_on_c, 0, 68, 57
1, 34164, Note_off_c, 0, 68, 61
1, 34169, Note_on_c, 0, 66, 59
1, 34206, Note_off_c, 0, 66, 63
1, 34234, Note_on_c, 0, 63, 64
1, 34282, Note_off_c, 0, 63, 59
1, 34312, Note_on_c, 0, 68, 51
1, 34368, Note_off_c, 0, 68, 58
1, 34398, Note_on_c, 0, 66, 52
1, 34457, Note_off_c, 0, 66, 60
1, 34506, Note_on_c, 0, 63, 27
1, 34517, Control_c, 0, 67, 127
1, 34541, Note_off_c, 0, 63, 55
1, 34583, Note_on_c, 0, 56, 45
1, 34620, Note_off_c, 0, 56, 52
1, 34663, Note_on_c, 0, 66, 41
1, 34725, Control_c, 0, 67, 127
1, 34735, Note_off_c, 0, 66, 62
1, 34740, Note_on_c, 0, 63, 42
1, 34922, Note_off_c, 0, 63, 48
1, 34925, Note_on_c, 0, 37, 65
1, 34932, Control_c, 0, 64, 109
1, 34947, Control_c, 0, 64, 92
1, 34962, Control_c, 0, 64, 79
1, 34977, Control_c, 0, 64, 69
1, 34991, Control_c, 0, 64, 61
1, 35004, Note_on_c, 0, 61, 57
1, 35006, Control_c, 0, 64, 53
1, 35021, Control_c, 0, 64, 47
1, 35036, Control_c, 0, 64, 45
1, 35051, Control_c, 0, 64, 47
1, 35073, Control_c, 0, 64, 51
1, 35088, Control_c, 0, 64, 56
1, 35103, Control_c, 0, 64, 60
1, 35118, Control_c, 0, 64, 64
1, 35132, Control_c, 0, 64, 66
1, 35147, Control_c, 0, 64, 69
1, 35162, Control_c, 0, 64, 72
1, 35163, Note_off_c, 0, 61, 58
1, 35177, Control_c, 0, 64, 74
1, 35182, Note_off_c, 0, 37, 62
1, 35192, Control_c, 0, 64, 77
1, 35206, Note_on_c, 0, 73, 56
1, 35208, Control_c, 0, 64, 81
1, 35222, Control_c, 0, 64, 85
1, 35237, Control_c, 0, 64, 89
1, 35252, Control_c, 0, 64, 92
1, 35259, Note_off_c, 0, 73, 58
1, 35267, Control_c, 0, 64, 95
1, 35281, Control_c, 0, 64, 99
1, 35296, Control_c, 0, 64, 103
1, 35304, Note_on_c, 0, 68, 55
1, 35311, Control_c, 0, 64, 108
1, 35311, Control_c, 0, 67, 127
1, 35326, Control_c, 0, 64, 115
1, 35326, Control_c, 0, 67, 126
1, 35341, Control_c, 0, 64, 127
1, 35352, Note_off_c, 0, 68, 63
1, 35385, Control_c, 0, 67, 126
1, 35397, Note_on_c, 0, 73, 47
1, 35400, Control_c, 0, 67, 125
1, 35415, Control_c, 0, 67, 125
1, 35420, Note_off_c, 0, 73, 60
1, 35430, Control_c, 0, 67, 124
1, 35458, Note_on_c, 0, 68, 59
1, 35489, Control_c, 0, 67, 124
1, 35501, Note_off_c, 0, 68, 56
1, 35519, Control_c, 0, 67, 123
1, 35534, Control_c, 0, 67, 124
1, 35546, Note_on_c, 0, 80, 51
1, 35598, Note_off_c, 0, 80, 59
1, 35608, Control_c, 0, 67, 123
1, 35639, Note_on_c, 0, 73, 51
1, 35650, Note_on_c, 0, 65, 66
1, 35653, Note_on_c, 0, 56, 64
1, 35698, Note_off_c, 0, 73, 55
1, 35731, Note_on_c, 0, 80, 45
1, 35758, Note_off_c, 0, 80, 56
1, 35815, Control_c, 0, 67, 124
1, 35827, Note_on_c, 0, 68, 59
1, 35858, Note_off_c, 0, 68, 56
1, 35905, Note_on_c, 0, 73, 57
1, 35945, Note_off_c, 0, 73, 63
1, 35960, Note_on_c, 0, 68, 58
1, 36000, Note_off_c, 0, 65, 34
1, 36014, Note_off_c, 0, 68, 59
1, 36043, Note_on_c, 0, 73, 54
1, 36060, Control_c, 0, 67, 123
1, 36070, Note_off_c, 0, 73, 68
1, 36090, Control_c, 0, 67, 124
1, 36106, Note_on_c, 0, 61, 65
1, 36149, Note_off_c, 0, 61, 60
1, 36167, Note_on_c, 0, 73, 48
1, 36225, Note_off_c, 0, 73, 61
1, 36227, Note_on_c, 0, 68, 60
1, 36252, Control_c, 0, 67, 123
1, 36261, Note_off_c, 0, 68, 63
1, 36267, Control_c, 0, 67, 124
1, 36289, Note_on_c, 0, 73, 41
1, 36327, Control_c, 0, 67, 123
1, 36332, Note_off_c, 0, 73, 67
1, 36356, Note_on_c, 0, 68, 73
1, 36376, Note_off_c, 0, 56, 51
1, 36413, Note_off_c, 0, 68, 59
1, 36416, Control_c, 0, 67, 123
1, 36435, Note_on_c, 0, 80, 71
1, 36460, Control_c, 0, 67, 123
1, 36481, Note_on_c, 0, 64, 76
1, 36482, Note_on_c, 0, 55, 73
1, 36484, Note_off_c, 0, 80, 60
1, 36485, Note_on_c, 0, 73, 58
1, 36490, Control_c, 0, 67, 123
1, 36504, Control_c, 0, 64, 97
1, 36519, Control_c, 0, 64, 78
1, 36534, Control_c, 0, 64, 66
1, 36549, Control_c, 0, 64, 56
1, 36549, Control_c, 0, 67, 123
1, 36552, Note_off_c, 0, 73, 63
1, 36564, Control_c, 0, 64, 52
1, 36582, Note_on_c, 0, 80, 40
1, 36586, Control_c, 0, 64, 55
1, 36601, Control_c, 0, 64, 62
1, 36601, Control_c, 0, 67, 123
1, 36608, Note_off_c, 0, 80, 54
1, 36616, Control_c, 0, 64, 66
1, 36625, Note_on_c, 0, 68, 72
1, 36630, Control_c, 0, 64, 70
1, 36645, Control_c, 0, 64, 73
1, 36657, Note_off_c, 0, 64, 58
1, 36660, Control_c, 0, 64, 76
1, 36664, Note_off_c, 0, 68, 58
1, 36675, Control_c, 0, 64, 78
1, 36675, Control_c, 0, 67, 122
1, 36690, Control_c, 0, 64, 81
1, 36694, Note_off_c, 0, 55, 58
1, 36704, Control_c, 0, 64, 83
1, 36704, Control_c, 0, 67, 122
1, 36705, Note_on_c, 0, 73, 62
1, 36719, Control_c, 0, 64, 85
1, 36734, Control_c, 0, 64, 87
1, 36749, Control_c, 0, 64, 91
1, 36753, Note_off_c, 0, 73, 62
1, 36764, Control_c, 0, 64, 93
1, 36771, Note_on_c, 0, 68, 58
1, 36778, Control_c, 0, 64, 95
1, 36794, Control_c, 0, 64, 96
1, 36809, Control_c, 0, 64, 98
1, 36810, Note_on_c, 0, 65, 61
1, 36824, Control_c, 0, 64, 100
1, 36825, Note_on_c, 0, 56, 46
1, 36831, Note_off_c, 0, 68, 57
1, 36839, Control_c, 0, 64, 105
1, 36853, Control_c, 0, 64, 110
1, 36856, Note_off_c, 0, 65, 58
1, 36867, Note_on_c, 0, 73, 59
1, 36868, Control_c, 0, 64, 110
1, 36881, Control_c, 0, 67, 123
1, 36892, Note_off_c, 0, 73, 67
1, 36911, Control_c, 0, 64, 110
1, 36911, Control_c, 0, 67, 123
1, 36926, Control_c, 0, 64, 109
1, 36941, Control_c, 0, 64, 96
1, 36948, Note_off_c, 0, 56, 61
1, 36949, Note_on_c, 0, 61, 66
1, 36953, Note_on_c, 0, 49, 67
1, 36956, Control_c, 0, 64, 78
1, 36971, Control_c, 0, 64, 64
1, 36971, Control_c, 0, 67, 124
1, 36986, Control_c, 0, 64, 49
1, 36989, Note_off_c, 0, 61, 60
1, 37000, Control_c, 0, 64, 30
1, 37013, Note_on_c, 0, 73, 51
1, 37015, Control_c, 0, 64, 26
1, 37030, Control_c, 0, 64, 38
1, 37044, Control_c, 0, 64, 57
1, 37059, Control_c, 0, 64, 64
1, 37074, Control_c, 0, 64, 67
1, 37081, Note_off_c, 0, 73, 64
1, 37084, Note_on_c, 0, 68, 63
1, 37089, Control_c, 0, 64, 71
1, 37104, Control_c, 0, 64, 76
1, 37104, Control_c, 0, 67, 123
1, 37118, Control_c, 0, 64, 80
1, 37120, Note_off_c, 0, 68, 63
1, 37133, Control_c, 0, 64, 85
1, 37133, Control_c, 0, 67, 123
1, 37148, Control_c, 0, 64, 90
1, 37153, Note_off_c, 0, 49, 54
1, 37163, Control_c, 0, 64, 94
1, 37164, Note_on_c, 0, 73, 48
1, 37178, Control_c, 0, 64, 98
1, 37178, Control_c, 0, 67, 122
1, 37185, Note_off_c, 0, 73, 61
1, 37192, Control_c, 0, 64, 102
1, 37192, Control_c, 0, 67, 122
1, 37207, Control_c, 0, 64, 108
1, 37222, Control_c, 0, 64, 114
1, 37222, Control_c, 0, 67, 121
1, 37236, Control_c, 0, 64, 127
1, 37253, Note_on_c, 0, 73, 61
1, 37276, Note_off_c, 0, 73, 66
1, 37281, Control_c, 0, 67, 121
1, 37296, Control_c, 0, 67, 120
1, 37307, Note_on_c, 0, 85, 76
1, 37358, Note_off_c, 0, 85, 62
1, 37371, Note_on_c, 0, 80, 59
1, 37375, Note_on_c, 0, 65, 72
1, 37377, Note_on_c, 0, 56, 71
1, 37437, Note_off_c, 0, 80, 61
1, 37437, Control_c, 0, 67, 121
1, 37457, Note_on_c, 0, 85, 60
1, 37475, Note_off_c, 0, 85, 65
1, 37508, Note_on_c, 0, 73, 68
1, 37511, Control_c, 0, 67, 121
1, 37531, Note_off_c, 0, 73, 68
1, 37588, Note_on_c, 0, 73, 75
1, 37615, Control_c, 0, 67, 122
1, 37624, Note_off_c, 0, 73, 61
1, 37641, Note_on_c, 0, 68, 70
1, 37686, Note_off_c, 0, 68, 59
1, 37689, Control_c, 0, 67, 122
1, 37704, Control_c, 0, 67, 123
1, 37725, Note_on_c, 0, 73, 61
1, 37749, Note_off_c, 0, 73, 68
1, 37793, Note_on_c, 0, 68, 63
1, 37829, Note_off_c, 0, 68, 63
1, 37862, Note_on_c, 0, 80, 65
1, 37882, Control_c, 0, 67, 123
1, 37912, Control_c, 0, 67, 123
1, 37919, Note_off_c, 0, 80, 58
1, 37922, Note_on_c, 0, 73, 75
1, 37966, Note_off_c, 0, 73, 61
1, 37990, Note_on_c, 0, 80, 57
1, 37992, Note_off_c, 0, 65, 50
1, 38014, Note_off_c, 0, 80, 65
1, 38091, Note_on_c, 0, 80, 64
1, 38115, Note_off_c, 0, 56, 60
1, 38115, Note_off_c, 0, 80, 61
1, 38142, Control_c, 0, 67, 123
1, 38142, Note_on_c, 0, 92, 78
1, 38171, Control_c, 0, 67, 124
1, 38198, Note_off_c, 0, 92, 65
1, 38208, Note_on_c, 0, 85, 71
1, 38219, Note_on_c, 0, 64, 68
1, 38220, Note_on_c, 0, 55, 69
1, 38230, Control_c, 0, 64, 103
1, 38245, Control_c, 0, 64, 82
1, 38260, Control_c, 0, 64, 67
1, 38260, Control_c, 0, 67, 124
1, 38270, Note_on_c, 0, 92, 66
1, 38274, Control_c, 0, 64, 60
1, 38280, Note_off_c, 0, 85, 64
1, 38289, Control_c, 0, 64, 59
1, 38298, Note_off_c, 0, 92, 67
1, 38304, Control_c, 0, 64, 64
1, 38319, Control_c, 0, 64, 71
1, 38334, Control_c, 0, 64, 79
1, 38344, Note_on_c, 0, 80, 45
1, 38344, Note_off_c, 0, 64, 61
1, 38348, Control_c, 0, 64, 87
1, 38363, Control_c, 0, 64, 89
1, 38363, Control_c, 0, 67, 124
1, 38369, Note_off_c, 0, 80, 57
1, 38379, Control_c, 0, 64, 92
1, 38395, Note_off_c, 0, 55, 54
1, 38395, Control_c, 0, 64, 95
1, 38408, Note_on_c, 0, 80, 58
1, 38410, Control_c, 0, 64, 99
1, 38425, Control_c, 0, 64, 105
1, 38425, Control_c, 0, 67, 123
1, 38437, Note_off_c, 0, 80, 66
1, 38439, Control_c, 0, 64, 109
1, 38439, Control_c, 0, 67, 123
1, 38454, Control_c, 0, 64, 113
1, 38469, Control_c, 0, 64, 118
1, 38469, Control_c, 0, 67, 122
1, 38476, Note_on_c, 0, 73, 74
1, 38481, Note_on_c, 0, 65, 55
1, 38484, Control_c, 0, 64, 127
1, 38505, Note_on_c, 0, 56, 44
1, 38509, Note_off_c, 0, 65, 65
1, 38524, Note_on_c, 0, 80, 41
1, 38528, Control_c, 0, 67, 122
1, 38536, Note_off_c, 0, 73, 43
1, 38551, Note_off_c, 0, 56, 61
1, 38558, Control_c, 0, 67, 121
1, 38587, Control_c, 0, 64, 89
1, 38602, Control_c, 0, 64, 72
1, 38604, Note_off_c, 0, 80, 62
1, 38617, Control_c, 0, 64, 60
1, 38632, Control_c, 0, 64, 50
1, 38632, Control_c, 0, 67, 120
1, 38642, Note_on_c, 0, 73, 65
1, 38644, Note_on_c, 0, 49, 64
1, 38646, Control_c, 0, 64, 48
1, 38646, Control_c, 0, 67, 120
1, 38661, Control_c, 0, 64, 53
1, 38676, Control_c, 0, 64, 62
1, 38679, Note_off_c, 0, 73, 60
1, 38691, Control_c, 0, 64, 67
1, 38691, Control_c, 0, 67, 119
1, 38700, Note_on_c, 0, 75, 65
1, 38700, Note_off_c, 0, 49, 63
1, 38706, Control_c, 0, 64, 73
1, 38706, Control_c, 0, 67, 119
1, 38720, Control_c, 0, 64, 82
1, 38720, Control_c, 0, 67, 118
1, 38730, Note_off_c, 0, 75, 67
1, 38735, Control_c, 0, 64, 92
1, 38735, Control_c, 0, 67, 117
1, 38750, Control_c, 0, 64, 98
1, 38765, Control_c, 0, 64, 101
1, 38765, Control_c, 0, 67, 116
1, 38776, Note_on_c, 0, 73, 59
1, 38780, Control_c, 0, 64, 103
1, 38795, Control_c, 0, 64, 106
1, 38795, Control_c, 0, 67, 116
1, 38816, Control_c, 0, 64, 111
1, 38816, Control_c, 0, 67, 114
1, 38829, Note_off_c, 0, 73, 60
1, 38831, Control_c, 0, 64, 118
1, 38831, Control_c, 0, 67, 112
1, 38846, Control_c, 0, 64, 127
1, 38846, Control_c, 0, 67, 110
1, 38861, Control_c, 0, 67, 109
1, 38884, Note_on_c, 0, 87, 48
1, 38890, Control_c, 0, 67, 109
1, 38905, Control_c, 0, 67, 108
1, 38913, Note_off_c, 0, 87, 55
1, 38917, Note_on_c, 0, 65, 61
1, 38920, Control_c, 0, 67, 107
1, 38922, Note_on_c, 0, 56, 58
1, 38922, Note_on_c, 0, 61, 56
1, 38935, Control_c, 0, 67, 105
1, 38950, Control_c, 0, 67, 103
1, 38965, Control_c, 0, 67, 102
1, 38978, Note_off_c, 0, 65, 64
1, 38980, Control_c, 0, 67, 101
1, 38982, Note_off_c, 0, 56, 62
1, 38995, Control_c, 0, 67, 100
1, 39010, Note_on_c, 0, 85, 54
1, 39010, Control_c, 0, 67, 98
1, 39024, Control_c, 0, 67, 97
1, 39039, Control_c, 0, 67, 94
1, 39041, Note_off_c, 0, 61, 61
1, 39042, Note_off_c, 0, 85, 59
1, 39054, Control_c, 0, 67, 92
1, 39069, Control_c, 0, 67, 92
1, 39076, Note_on_c, 0, 99, 67
1, 39084, Control_c, 0, 67, 91
1, 39098, Control_c, 0, 67, 90
1, 39113, Control_c, 0, 67, 88
1, 39127, Note_off_c, 0, 99, 67
1, 39128, Control_c, 0, 67, 85
1, 39135, Note_on_c, 0, 97, 71
1, 39143, Control_c, 0, 67, 81
1, 39150, Note_on_c, 0, 66, 86
1, 39155, Note_on_c, 0, 57, 75
1, 39158, Control_c, 0, 67, 78
1, 39159, Note_on_c, 0, 61, 79
1, 39167, Note_off_c, 0, 97, 60
1, 39172, Control_c, 0, 67, 76
1, 39187, Control_c, 0, 67, 74
1, 39203, Control_c, 0, 67, 71
1, 39218, Control_c, 0, 67, 68
1, 39233, Control_c, 0, 67, 67
1, 39237, Note_on_c, 0, 99, 41
1, 39260, Note_off_c, 0, 61, 63
1, 39260, Note_off_c, 0, 99, 60
1, 39263, Note_off_c, 0, 66, 63
1, 39264, Note_on_c, 0, 97, 72
1, 39287, Note_off_c, 0, 57, 62
1, 39297, Note_off_c, 0, 97, 64
1, 39335, Note_on_c, 0, 85, 69
1, 39344, Note_on_c, 0, 67, 85
1, 39349, Note_on_c, 0, 58, 79
1, 39354, Note_on_c, 0, 61, 80
1, 39362, Note_off_c, 0, 85, 67
1, 39366, Control_c, 0, 67, 67
1, 39381, Control_c, 0, 67, 68
1, 39410, Control_c, 0, 67, 69
1, 39417, Note_off_c, 0, 67, 62
1, 39435, Note_on_c, 0, 87, 69
1, 39454, Note_off_c, 0, 87, 67
1, 39461, Note_off_c, 0, 58, 62
1, 39465, Note_off_c, 0, 61, 59
1, 39511, Note_on_c, 0, 84, 44
1, 39536, Note_off_c, 0, 84, 59
1, 39580, Note_on_c, 0, 68, 82
1, 39583, Note_on_c, 0, 59, 73
1, 39585, Note_on_c, 0, 61, 75
1, 39594, Note_on_c, 0, 73, 72
1, 39595, Control_c, 0, 67, 69
1, 39610, Control_c, 0, 64, 104
1, 39625, Control_c, 0, 64, 79
1, 39639, Control_c, 0, 64, 65
1, 39639, Control_c, 0, 67, 69
1, 39643, Note_off_c, 0, 73, 64
1, 39646, Note_on_c, 0, 75, 73
1, 39654, Control_c, 0, 64, 53
1, 39669, Control_c, 0, 64, 48
1, 39673, Note_off_c, 0, 75, 68
1, 39684, Control_c, 0, 64, 51
1, 39699, Control_c, 0, 64, 60
1, 39699, Control_c, 0, 67, 68
1, 39713, Control_c, 0, 64, 66
1, 39728, Control_c, 0, 64, 70
1, 39728, Control_c, 0, 67, 68
1, 39738, Note_on_c, 0, 75, 42
1, 39742, Note_on_c, 0, 73, 53
1, 39743, Control_c, 0, 64, 73
1, 39743, Control_c, 0, 67, 67
1, 39758, Control_c, 0, 64, 78
1, 39758, Control_c, 0, 67, 66
1, 39762, Note_off_c, 0, 75, 60
1, 39763, Note_off_c, 0, 73, 62
1, 39773, Control_c, 0, 64, 83
1, 39773, Control_c, 0, 67, 66
1, 39788, Control_c, 0, 64, 90
1, 39788, Control_c, 0, 67, 65
1, 39803, Control_c, 0, 64, 98
1, 39803, Control_c, 0, 67, 64
1, 39811, Note_off_c, 0, 68, 59
1, 39817, Control_c, 0, 64, 105
1, 39817, Control_c, 0, 67, 62
1, 39832, Control_c, 0, 64, 115
1, 39832, Control_c, 0, 67, 59
1, 39847, Control_c, 0, 64, 127
1, 39847, Control_c, 0, 67, 58
1, 39871, Note_on_c, 0, 85, 65
1, 39900, Note_off_c, 0, 85, 65
1, 39907, Note_off_c, 0, 61, 36
1, 39928, Note_off_c, 0, 59, 61
1, 39941, Note_on_c, 0, 99, 71
1, 39974, Note_on_c, 0, 67, 67
1, 39978, Note_on_c, 0, 58, 63
1, 39989, Note_on_c, 0, 61, 54
1, 39989, Note_off_c, 0, 99, 66
1, 39997, Note_on_c, 0, 97, 67
1, 40014, Note_off_c, 0, 67, 64
1, 40021, Note_off_c, 0, 58, 66
1, 40033, Note_off_c, 0, 97, 62
1, 40040, Control_c, 0, 67, 58
1, 40064, Note_off_c, 0, 61, 62
1, 40084, Control_c, 0, 67, 59
1, 40085, Note_on_c, 0, 99, 26
1, 40099, Control_c, 0, 67, 59
1, 40106, Note_off_c, 0, 99, 55
1, 40114, Note_on_c, 0, 97, 64
1, 40114, Control_c, 0, 67, 60
1, 40143, Control_c, 0, 64, 103
1, 40148, Note_off_c, 0, 97, 66
1, 40158, Control_c, 0, 64, 83
1, 40173, Control_c, 0, 64, 75
1, 40179, Note_on_c, 0, 57, 67
1, 40184, Note_on_c, 0, 66, 66
1, 40188, Control_c, 0, 64, 70
1, 40190, Note_on_c, 0, 85, 69
1, 40193, Note_on_c, 0, 61, 63
1, 40203, Control_c, 0, 64, 69
1, 40203, Control_c, 0, 67, 59
1, 40232, Control_c, 0, 64, 71
1, 40232, Control_c, 0, 67, 59
1, 40244, Note_off_c, 0, 85, 62
1, 40247, Control_c, 0, 64, 74
1, 40256, Note_off_c, 0, 61, 49
1, 40257, Note_on_c, 0, 87, 65
1, 40262, Control_c, 0, 64, 79
1, 40271, Note_off_c, 0, 66, 51
1, 40276, Control_c, 0, 64, 85
1, 40280, Note_off_c, 0, 87, 66
1, 40291, Control_c, 0, 64, 92
1, 40306, Control_c, 0, 64, 99
1, 40329, Control_c, 0, 64, 104
1, 40341, Note_on_c, 0, 85, 61
1, 40343, Control_c, 0, 64, 105
1, 40346, Note_off_c, 0, 57, 59
1, 40373, Control_c, 0, 64, 105
1, 40388, Control_c, 0, 64, 103
1, 40394, Note_off_c, 0, 85, 53
1, 40403, Control_c, 0, 64, 96
1, 40409, Note_on_c, 0, 65, 63
1, 40412, Note_on_c, 0, 61, 55
1, 40417, Control_c, 0, 64, 84
1, 40423, Note_on_c, 0, 56, 57
1, 40432, Control_c, 0, 64, 73
1, 40447, Control_c, 0, 64, 64
1, 40460, Note_on_c, 0, 97, 58
1, 40461, Control_c, 0, 64, 56
1, 40476, Control_c, 0, 64, 53
1, 40491, Note_off_c, 0, 56, 62
1, 40491, Control_c, 0, 64, 54
1, 40492, Note_off_c, 0, 97, 66
1, 40497, Note_off_c, 0, 65, 62
1, 40506, Control_c, 0, 64, 60
1, 40506, Control_c, 0, 67, 58
1, 40509, Note_off_c, 0, 61, 63
1, 40520, Note_on_c, 0, 99, 55
1, 40521, Control_c, 0, 64, 65
1, 40536, Control_c, 0, 64, 68
1, 40551, Control_c, 0, 64, 71
1, 40560, Note_off_c, 0, 99, 62
1, 40566, Control_c, 0, 64, 75
1, 40578, Note_on_c, 0, 97, 68
1, 40581, Control_c, 0, 64, 81
1, 40595, Control_c, 0, 64, 89
1, 40595, Control_c, 0, 67, 58
1, 40610, Control_c, 0, 64, 97
1, 40610, Control_c, 0, 67, 57
1, 40613, Note_off_c, 0, 97, 65
1, 40625, Control_c, 0, 64, 106
1, 40625, Control_c, 0, 67, 57
1, 40640, Note_on_c, 0, 49, 66
1, 40640, Control_c, 0, 64, 117
1, 40640, Control_c, 0, 67, 56
1, 40655, Control_c, 0, 64, 127
1, 40655, Control_c, 0, 67, 53
1, 40658, Note_on_c, 0, 85, 76
1, 40666, Note_off_c, 0, 49, 65
1, 40669, Control_c, 0, 67, 48
1, 40684, Control_c, 0, 67, 42
1, 40694, Note_off_c, 0, 85, 58
1, 40699, Control_c, 0, 67, 35
1, 40714, Control_c, 0, 67, 30
1, 40724, Note_on_c, 0, 87, 68
1, 40729, Control_c, 0, 67, 24
1, 40743, Control_c, 0, 67, 20
1, 40750, Note_off_c, 0, 87, 69
1, 40758, Control_c, 0, 67, 16
1, 40773, Control_c, 0, 67, 12
1, 40788, Note_on_c, 0, 85, 76
1, 40789, Control_c, 0, 67, 8
1, 40804, Control_c, 0, 67, 0
1, 40864, Note_off_c, 0, 85, 0
1, 40867, Note_on_c, 0, 68, 78
1, 40874, Note_on_c, 0, 97, 71
1, 40876, Note_on_c, 0, 65, 70
1, 40877, Note_on_c, 0, 59, 65
1, 40882, Note_on_c, 0, 61, 69
1, 40892, Control_c, 0, 64, 119
1, 40907, Control_c, 0, 64, 86
1, 40922, Control_c, 0, 64, 70
1, 40926, Poly_aftertouch_c, 0, 85, 0
1, 40935, Note_off_c, 0, 97, 65
1, 40937, Control_c, 0, 64, 60
1, 40949, Note_on_c, 0, 99, 67
1, 40952, Control_c, 0, 64, 54
1, 40966, Control_c, 0, 64, 56
1, 40981, Control_c, 0, 64, 62
1, 40982, Note_off_c, 0, 68, 57
1, 40996, Control_c, 0, 64, 67
1, 41011, Control_c, 0, 64, 71
1, 41012, Note_off_c, 0, 99, 66
1, 41026, Control_c, 0, 64, 76
1, 41035, Note_on_c, 0, 96, 66
1, 41040, Control_c, 0, 64, 82
1, 41055, Control_c, 0, 64, 89
1, 41075, Note_off_c, 0, 96, 65
1, 41078, Control_c, 0, 64, 98
1, 41092, Control_c, 0, 64, 105
1, 41107, Control_c, 0, 64, 115
1, 41122, Control_c, 0, 64, 127
1, 41123, Note_on_c, 0, 70, 91
1, 41126, Note_on_c, 0, 85, 69
1, 41171, Note_off_c, 0, 65, 52
1, 41181, Note_off_c, 0, 61, 58
1, 41192, Note_off_c, 0, 59, 62
1, 41194, Note_on_c, 0, 87, 71
1, 41200, Note_off_c, 0, 85, 62
1, 41240, Note_off_c, 0, 87, 66
1, 41252, Note_off_c, 0, 70, 51
1, 41277, Note_on_c, 0, 85, 72
1, 41370, Note_on_c, 0, 71, 85
1, 41374, Note_on_c, 0, 65, 78
1, 41380, Note_off_c, 0, 85, 52
1, 41382, Note_on_c, 0, 61, 73
1, 41383, Note_on_c, 0, 59, 71
1, 41418, Note_on_c, 0, 97, 76
1, 41463, Control_c, 0, 64, 107
1, 41478, Control_c, 0, 64, 88
1, 41492, Control_c, 0, 64, 75
1, 41507, Control_c, 0, 64, 65
1, 41517, Note_off_c, 0, 97, 65
1, 41519, Note_on_c, 0, 99, 80
1, 41522, Control_c, 0, 64, 58
1, 41537, Control_c, 0, 64, 55
1, 41552, Control_c, 0, 64, 57
1, 41566, Control_c, 0, 64, 61
1, 41582, Control_c, 0, 64, 64
1, 41595, Note_off_c, 0, 99, 65
1, 41597, Control_c, 0, 64, 67
1, 41597, Note_on_c, 0, 97, 82
1, 41612, Control_c, 0, 64, 70
1, 41615, Note_off_c, 0, 71, 58
1, 41627, Control_c, 0, 64, 75
1, 41642, Control_c, 0, 64, 81
1, 41653, Note_off_c, 0, 97, 65
1, 41656, Control_c, 0, 64, 87
1, 41671, Control_c, 0, 64, 92
1, 41686, Note_on_c, 0, 85, 87
1, 41686, Control_c, 0, 64, 95
1, 41701, Control_c, 0, 64, 98
1, 41715, Control_c, 0, 64, 105
1, 41730, Control_c, 0, 64, 115
1, 41745, Control_c, 0, 64, 127
1, 41768, Note_on_c, 0, 87, 85
1, 41777, Note_off_c, 0, 85, 61
1, 41833, Note_off_c, 0, 87, 66
1, 41861, Note_on_c, 0, 85, 84
1, 41940, Note_off_c, 0, 85, 60
1, 41945, Control_c, 0, 64, 97
1, 41957, Note_on_c, 0, 70, 88
1, 41958, Note_on_c, 0, 97, 82
1, 41960, Control_c, 0, 64, 78
1, 41975, Control_c, 0, 64, 64
1, 41989, Control_c, 0, 64, 57
1, 42019, Control_c, 0, 64, 62
1, 42034, Control_c, 0, 64, 67
1, 42048, Control_c, 0, 64, 72
1, 42062, Note_on_c, 0, 99, 87
1, 42063, Control_c, 0, 64, 77
1, 42072, Note_off_c, 0, 97, 66
1, 42078, Control_c, 0, 64, 82
1, 42093, Control_c, 0, 64, 86
1, 42108, Control_c, 0, 64, 92
1, 42116, Note_off_c, 0, 70, 62
1, 42123, Control_c, 0, 64, 100
1, 42138, Control_c, 0, 64, 118
1, 42153, Control_c, 0, 64, 127
1, 42157, Note_on_c, 0, 97, 91
1, 42165, Note_off_c, 0, 99, 64
1, 42212, Control_c, 0, 64, 100
1, 42227, Control_c, 0, 64, 80
1, 42241, Control_c, 0, 64, 68
1, 42256, Control_c, 0, 64, 60
1, 42257, Note_off_c, 0, 97, 65
1, 42261, Note_on_c, 0, 68, 86
1, 42265, Note_on_c, 0, 85, 91
1, 42271, Control_c, 0, 64, 60
1, 42282, Note_off_c, 0, 65, 61
1, 42286, Control_c, 0, 64, 64
1, 42301, Control_c, 0, 64, 70
1, 42315, Control_c, 0, 64, 78
1, 42319, Note_off_c, 0, 68, 65
1, 42320, Note_off_c, 0, 59, 66
1, 42330, Note_off_c, 0, 61, 63
1, 42330, Control_c, 0, 64, 87
1, 42345, Control_c, 0, 64, 91
1, 42360, Control_c, 0, 64, 94
1, 42375, Note_on_c, 0, 87, 86
1, 42375, Control_c, 0, 64, 99
1, 42391, Control_c, 0, 64, 109
1, 42401, Note_off_c, 0, 85, 64
1, 42406, Control_c, 0, 64, 127
1, 42488, Note_off_c, 0, 87, 66
1, 42494, Note_on_c, 0, 85, 90
1, 42524, Note_off_c, 0, 85, 63
1, 42576, Control_c, 0, 64, 98
1, 42591, Control_c, 0, 64, 72
1, 42606, Control_c, 0, 64, 58
1, 42620, Control_c, 0, 64, 50
1, 42623, Note_on_c, 0, 66, 89
1, 42628, Note_on_c, 0, 61, 78
1, 42629, Note_on_c, 0, 54, 80
1, 42631, Note_on_c, 0, 58, 74
1, 42635, Control_c, 0, 64, 57
1, 42650, Control_c, 0, 64, 66
1, 42664, Control_c, 0, 64, 77
1, 42670, Note_off_c, 0, 66, 66
1, 42673, Note_off_c, 0, 58, 64
1, 42676, Note_off_c, 0, 61, 65
1, 42679, Control_c, 0, 64, 96
1, 42682, Note_on_c, 0, 90, 104
1, 42691, Note_off_c, 0, 54, 61
1, 42694, Control_c, 0, 64, 107
1, 42709, Control_c, 0, 64, 108
1, 42724, Control_c, 0, 64, 109
1, 42739, Control_c, 0, 64, 111
1, 42754, Control_c, 0, 64, 113
1, 42769, Control_c, 0, 64, 116
1, 42772, Note_on_c, 0, 94, 87
1, 42780, Note_off_c, 0, 90, 63
1, 42783, Control_c, 0, 64, 127
1, 42813, Note_off_c, 0, 94, 64
1, 42842, Note_on_c, 0, 85, 86
1, 42885, Note_on_c, 0, 63, 75
1, 42885, Note_on_c, 0, 66, 80
1, 42890, Note_on_c, 0, 90, 85
1, 42891, Note_on_c, 0, 59, 66
1, 42891, Note_off_c, 0, 85, 65
1, 42895, Note_on_c, 0, 54, 67
1, 42917, Control_c, 0, 64, 116
1, 42932, Control_c, 0, 64, 91
1, 42933, Note_off_c, 0, 66, 61
1, 42935, Note_off_c, 0, 63, 62
1, 42941, Note_off_c, 0, 54, 55
1, 42942, Note_off_c, 0, 59, 62
1, 42946, Control_c, 0, 64, 78
1, 42952, Note_on_c, 0, 87, 87
1, 42956, Note_off_c, 0, 90, 66
1, 42961, Control_c, 0, 64, 69
1, 42976, Control_c, 0, 64, 62
1, 42976, Control_c, 0, 67, 8
1, 42991, Control_c, 0, 64, 58
1, 42991, Control_c, 0, 67, 9
1, 42999, Note_off_c, 0, 87, 62
1, 43006, Control_c, 0, 64, 54
1, 43006, Control_c, 0, 67, 10
1, 43020, Control_c, 0, 64, 49
1, 43020, Control_c, 0, 67, 11
1, 43029, Note_on_c, 0, 90, 86
1, 43035, Control_c, 0, 64, 44
1, 43035, Control_c, 0, 67, 12
1, 43050, Control_c, 0, 64, 40
1, 43064, Control_c, 0, 64, 40
1, 43079, Control_c, 0, 64, 49
1, 43079, Control_c, 0, 67, 13
1, 43080, Note_off_c, 0, 90, 66
1, 43094, Control_c, 0, 64, 59
1, 43094, Control_c, 0, 67, 13
1, 43100, Note_on_c, 0, 85, 82
1, 43103, Note_on_c, 0, 58, 65
1, 43105, Note_on_c, 0, 54, 62
1, 43106, Note_on_c, 0, 66, 70
1, 43107, Note_on_c, 0, 61, 62
1, 43109, Control_c, 0, 64, 65
1, 43124, Control_c, 0, 64, 69
1, 43124, Control_c, 0, 67, 14
1, 43137, Note_off_c, 0, 85, 61
1, 43138, Control_c, 0, 64, 72
1, 43153, Control_c, 0, 64, 76
1, 43153, Control_c, 0, 67, 14
1, 43158, Note_off_c, 0, 66, 64
1, 43162, Note_off_c, 0, 61, 62
1, 43168, Control_c, 0, 64, 81
1, 43173, Note_on_c, 0, 90, 79
1, 43173, Note_off_c, 0, 58, 63
1, 43184, Control_c, 0, 64, 90
1, 43184, Control_c, 0, 67, 15
1, 43192, Note_off_c, 0, 54, 64
1, 43199, Control_c, 0, 64, 101
1, 43214, Control_c, 0, 64, 127
1, 43233, Note_on_c, 0, 82, 81
1, 43235, Note_off_c, 0, 90, 65
1, 43243, Control_c, 0, 67, 16
1, 43258, Control_c, 0, 67, 19
1, 43273, Control_c, 0, 67, 23
1, 43287, Control_c, 0, 67, 26
1, 43300, Note_off_c, 0, 82, 63
1, 43310, Note_on_c, 0, 85, 80
1, 43310, Control_c, 0, 67, 28
1, 43325, Control_c, 0, 67, 28
1, 43340, Control_c, 0, 67, 29
1, 43355, Control_c, 0, 64, 105
1, 43355, Control_c, 0, 67, 31
1, 43360, Note_off_c, 0, 85, 64
1, 43369, Control_c, 0, 64, 89
1, 43369, Control_c, 0, 67, 34
1, 43379, Note_on_c, 0, 78, 78
1, 43384, Control_c, 0, 64, 75
1, 43384, Control_c, 0, 67, 38
1, 43399, Control_c, 0, 64, 65
1, 43399, Control_c, 0, 67, 41
1, 43404, Note_off_c, 0, 78, 65
1, 43414, Control_c, 0, 64, 54
1, 43414, Control_c, 0, 67, 44
1, 43429, Control_c, 0, 64, 40
1, 43429, Control_c, 0, 67, 45
1, 43443, Control_c, 0, 64, 28
1, 43443, Control_c, 0, 67, 46
1, 43444, Note_on_c, 0, 82, 76
1, 43458, Control_c, 0, 64, 26
1, 43458, Control_c, 0, 67, 48
1, 43473, Control_c, 0, 64, 27
1, 43473, Control_c, 0, 67, 48
1, 43487, Control_c, 0, 64, 37
1, 43502, Control_c, 0, 64, 52
1, 43505, Note_on_c, 0, 78, 74
1, 43511, Note_off_c, 0, 82, 65
1, 43517, Control_c, 0, 64, 62
1, 43517, Control_c, 0, 67, 49
1, 43521, Note_on_c, 0, 42, 49
1, 43522, Note_on_c, 0, 54, 63
1, 43532, Control_c, 0, 64, 67
1, 43532, Control_c, 0, 67, 49
1, 43547, Control_c, 0, 64, 70
1, 43547, Control_c, 0, 67, 50
1, 43550, Note_off_c, 0, 42, 56
1, 43556, Note_off_c, 0, 54, 65
1, 43561, Control_c, 0, 64, 73
1, 43561, Control_c, 0, 67, 50
1, 43576, Control_c, 0, 64, 75
1, 43576, Control_c, 0, 67, 51
1, 43577, Note_on_c, 0, 82, 63
1, 43581, Note_off_c, 0, 78, 61
1, 43591, Control_c, 0, 64, 79
1, 43591, Control_c, 0, 67, 50
1, 43606, Control_c, 0, 64, 86
1, 43609, Note_off_c, 0, 82, 67
1, 43621, Control_c, 0, 64, 93
1, 43636, Control_c, 0, 64, 104
1, 43643, Note_on_c, 0, 73, 78
1, 43651, Control_c, 0, 64, 117
1, 43666, Control_c, 0, 64, 127
1, 43695, Control_c, 0, 67, 51
1, 43697, Note_on_c, 0, 58, 61
1, 43699, Note_off_c, 0, 73, 57
1, 43702, Note_on_c, 0, 78, 79
1, 43716, Note_on_c, 0, 66, 66
1, 43725, Control_c, 0, 64, 110
1, 43725, Note_on_c, 0, 63, 54
1, 43740, Control_c, 0, 64, 98
1, 43740, Control_c, 0, 67, 51
1, 43743, Note_off_c, 0, 58, 57
1, 43749, Note_on_c, 0, 59, 48
1, 43755, Control_c, 0, 64, 86
1, 43761, Note_on_c, 0, 75, 74
1, 43761, Note_off_c, 0, 78, 64
1, 43764, Note_off_c, 0, 66, 62
1, 43769, Control_c, 0, 64, 74
1, 43774, Note_off_c, 0, 59, 55
1, 43775, Note_off_c, 0, 63, 62
1, 43784, Control_c, 0, 64, 62
1, 43784, Control_c, 0, 67, 52
1, 43799, Control_c, 0, 64, 52
1, 43809, Note_off_c, 0, 75, 49
1, 43813, Control_c, 0, 64, 46
1, 43828, Control_c, 0, 64, 44
1, 43844, Note_on_c, 0, 78, 76
1, 43873, Control_c, 0, 64, 43
1, 43887, Control_c, 0, 64, 41
1, 43887, Control_c, 0, 67, 52
1, 43896, Note_off_c, 0, 78, 64
1, 43902, Control_c, 0, 64, 39
1, 43902, Control_c, 0, 67, 53
1, 43917, Control_c, 0, 64, 38
1, 43917, Control_c, 0, 67, 54
1, 43919, Note_on_c, 0, 73, 74
1, 43928, Note_on_c, 0, 66, 52
1, 43931, Note_on_c, 0, 61, 51
1, 43932, Control_c, 0, 67, 56
1, 43933, Note_on_c, 0, 58, 58
1, 43947, Control_c, 0, 64, 37
1, 43947, Control_c, 0, 67, 58
1, 43959, Note_off_c, 0, 73, 62
1, 43961, Control_c, 0, 67, 58
1, 43976, Control_c, 0, 67, 59
1, 43983, Note_off_c, 0, 61, 63
1, 43985, Note_off_c, 0, 66, 63
1, 43992, Control_c, 0, 67, 61
1, 43996, Note_on_c, 0, 78, 75
1, 43998, Note_off_c, 0, 58, 66
1, 44007, Control_c, 0, 67, 64
1, 44022, Control_c, 0, 67, 67
1, 44037, Control_c, 0, 67, 70
1, 44059, Control_c, 0, 67, 72
1, 44062, Note_off_c, 0, 78, 63
1, 44070, Note_on_c, 0, 70, 67
1, 44074, Control_c, 0, 67, 73
1, 44089, Control_c, 0, 67, 75
1, 44104, Control_c, 0, 67, 77
1, 44118, Control_c, 0, 67, 79
1, 44128, Note_off_c, 0, 70, 61
1, 44133, Control_c, 0, 67, 81
1, 44136, Note_on_c, 0, 73, 69
1, 44148, Control_c, 0, 67, 82
1, 44163, Control_c, 0, 64, 37
1, 44178, Control_c, 0, 64, 36
1, 44179, Note_off_c, 0, 73, 62
1, 44192, Control_c, 0, 64, 34
1, 44202, Note_on_c, 0, 66, 71
1, 44207, Control_c, 0, 64, 32
1, 44207, Control_c, 0, 67, 83
1, 44222, Control_c, 0, 64, 31
1, 44222, Control_c, 0, 67, 83
1, 44251, Control_c, 0, 64, 34
1, 44251, Control_c, 0, 67, 83
1, 44258, Note_off_c, 0, 66, 57
1, 44264, Note_on_c, 0, 70, 53
1, 44266, Control_c, 0, 64, 44
1, 44266, Control_c, 0, 67, 82
1, 44281, Control_c, 0, 64, 54
1, 44281, Control_c, 0, 67, 82
1, 44296, Control_c, 0, 64, 60
1, 44296, Control_c, 0, 67, 81
1, 44310, Note_off_c, 0, 70, 64
1, 44310, Control_c, 0, 64, 63
1, 44310, Control_c, 0, 67, 81
1, 44319, Note_on_c, 0, 37, 59
1, 44325, Note_on_c, 0, 49, 58
1, 44325, Control_c, 0, 64, 64
1, 44325, Control_c, 0, 67, 80
1, 44340, Control_c, 0, 64, 66
1, 44340, Control_c, 0, 67, 80
1, 44355, Note_on_c, 0, 61, 70
1, 44355, Note_off_c, 0, 37, 64
1, 44355, Control_c, 0, 64, 68
1, 44355, Control_c, 0, 67, 79
1, 44369, Control_c, 0, 64, 72
1, 44369, Control_c, 0, 67, 77
1, 44372, Note_off_c, 0, 49, 62
1, 44384, Control_c, 0, 64, 76
1, 44384, Control_c, 0, 67, 77
1, 44388, Note_off_c, 0, 61, 63
1, 44399, Control_c, 0, 64, 78
1, 44414, Control_c, 0, 64, 79
1, 44414, Control_c, 0, 67, 76
1, 44422, Note_on_c, 0, 73, 59
1, 44428, Control_c, 0, 64, 80
1, 44443, Control_c, 0, 64, 81
1, 44443, Control_c, 0, 67, 75
1, 44458, Control_c, 0, 64, 83
1, 44467, Note_off_c, 0, 73, 61
1, 44473, Control_c, 0, 64, 85
1, 44473, Control_c, 0, 67, 75
1, 44482, Note_on_c, 0, 68, 64
1, 44488, Control_c, 0, 64, 87
1, 44488, Control_c, 0, 67, 74
1, 44502, Control_c, 0, 64, 89
1, 44517, Control_c, 0, 64, 89
1, 44520, Note_off_c, 0, 68, 64
1, 44532, Control_c, 0, 64, 90
1, 44532, Control_c, 0, 67, 74
1, 44547, Control_c, 0, 64, 92
1, 44547, Control_c, 0, 67, 73
1, 44551, Note_on_c, 0, 73, 53
1, 44562, Control_c, 0, 64, 94
1, 44563, Note_on_c, 0, 65, 65
1, 44570, Note_on_c, 0, 61, 68
1, 44576, Control_c, 0, 64, 97
1, 44580, Note_off_c, 0, 73, 67
1, 44591, Control_c, 0, 64, 99
1, 44599, Note_off_c, 0, 65, 61
1, 44606, Control_c, 0, 64, 100
1, 44614, Note_on_c, 0, 68, 74
1, 44615, Note_off_c, 0, 61, 57
1, 44621, Control_c, 0, 64, 101
1, 44635, Control_c, 0, 64, 105
1, 44650, Control_c, 0, 64, 109
1, 44665, Control_c, 0, 64, 111
1, 44665, Control_c, 0, 67, 74
1, 44673, Note_off_c, 0, 68, 60
1, 44680, Control_c, 0, 67, 74
1, 44685, Note_on_c, 0, 80, 77
1, 44695, Control_c, 0, 64, 106
1, 44709, Control_c, 0, 64, 86
1, 44724, Control_c, 0, 64, 71
1, 44733, Note_off_c, 0, 80, 64
1, 44739, Control_c, 0, 64, 60
1, 44744, Note_on_c, 0, 63, 74
1, 44751, Note_on_c, 0, 59, 65
1, 44752, Note_on_c, 0, 56, 72
1, 44754, Control_c, 0, 64, 50
1, 44768, Note_on_c, 0, 68, 67
1, 44769, Control_c, 0, 64, 51
1, 44785, Control_c, 0, 64, 60
1, 44789, Note_off_c, 0, 59, 67
1, 44797, Note_off_c, 0, 68, 67
1, 44799, Note_off_c, 0, 63, 65
1, 44800, Control_c, 0, 64, 66
1, 44812, Note_off_c, 0, 56, 62
1, 44822, Control_c, 0, 64, 71
1, 44822, Control_c, 0, 67, 74
1, 44834, Note_on_c, 0, 80, 78
1, 44837, Control_c, 0, 64, 75
1, 44852, Control_c, 0, 64, 80
1, 44866, Control_c, 0, 64, 85
1, 44881, Control_c, 0, 64, 90
1, 44881, Control_c, 0, 67, 73
1, 44893, Note_on_c, 0, 75, 78
1, 44896, Control_c, 0, 64, 93
1, 44896, Control_c, 0, 67, 72
1, 44898, Note_off_c, 0, 80, 62
1, 44911, Control_c, 0, 64, 96
1, 44911, Control_c, 0, 67, 71
1, 44926, Control_c, 0, 64, 102
1, 44926, Control_c, 0, 67, 70
1, 44940, Control_c, 0, 64, 109
1, 44940, Control_c, 0, 67, 70
1, 44951, Note_off_c, 0, 75, 62
1, 44955, Control_c, 0, 64, 119
1, 44962, Note_on_c, 0, 44, 78
1, 44962, Note_on_c, 0, 80, 74
1, 44970, Control_c, 0, 64, 127
1, 44970, Control_c, 0, 67, 69
1, 44989, Note_off_c, 0, 80, 67
1, 44996, Note_off_c, 0, 44, 65
1, 45034, Note_on_c, 0, 75, 80
1, 45076, Note_off_c, 0, 75, 63
1, 45098, Note_on_c, 0, 87, 81
1, 45133, Control_c, 0, 64, 95
1, 45144, Note_off_c, 0, 87, 66
1, 45148, Control_c, 0, 64, 76
1, 45148, Control_c, 0, 67, 69
1, 45160, Note_on_c, 0, 49, 81
1, 45163, Control_c, 0, 64, 63
1, 45167, Note_on_c, 0, 75, 85
1, 45178, Control_c, 0, 64, 52
1, 45178, Control_c, 0, 67, 68
1, 45193, Control_c, 0, 64, 43
1, 45193, Control_c, 0, 67, 67
1, 45203, Note_off_c, 0, 75, 63
1, 45207, Control_c, 0, 64, 47
1, 45207, Control_c, 0, 67, 66
1, 45222, Control_c, 0, 64, 56
1, 45222, Control_c, 0, 67, 66
1, 45233, Note_on_c, 0, 87, 85
1, 45237, Control_c, 0, 64, 62
1, 45252, Control_c, 0, 64, 64
1, 45267, Control_c, 0, 64, 65
1, 45281, Control_c, 0, 64, 68
1, 45290, Note_on_c, 0, 80, 80
1, 45295, Note_off_c, 0, 87, 66
1, 45296, Control_c, 0, 64, 73
1, 45311, Control_c, 0, 64, 79
1, 45311, Control_c, 0, 67, 64
1, 45326, Control_c, 0, 64, 85
1, 45326, Control_c, 0, 67, 61
1, 45341, Note_off_c, 0, 80, 60
1, 45341, Control_c, 0, 64, 89
1, 45341, Control_c, 0, 67, 57
1, 45356, Control_c, 0, 64, 91
1, 45356, Control_c, 0, 67, 55
1, 45357, Note_on_c, 0, 56, 75
1, 45358, Note_on_c, 0, 87, 76
1, 45363, Note_on_c, 0, 59, 70
1, 45365, Note_on_c, 0, 63, 78
1, 45371, Control_c, 0, 64, 94
1, 45371, Control_c, 0, 67, 54
1, 45386, Control_c, 0, 64, 99
1, 45386, Control_c, 0, 67, 53
1, 45393, Note_off_c, 0, 87, 66
1, 45395, Note_off_c, 0, 63, 63
1, 45400, Control_c, 0, 64, 103
1, 45400, Control_c, 0, 67, 51
1, 45405, Note_off_c, 0, 56, 56
1, 45406, Note_off_c, 0, 59, 63
1, 45415, Control_c, 0, 64, 105
1, 45415, Control_c, 0, 67, 50
1, 45425, Note_on_c, 0, 80, 81
1, 45430, Control_c, 0, 64, 105
1, 45445, Control_c, 0, 64, 108
1, 45445, Control_c, 0, 67, 50
1, 45459, Control_c, 0, 64, 113
1, 45463, Note_off_c, 0, 80, 61
1, 45474, Control_c, 0, 64, 117
1, 45489, Control_c, 0, 64, 118
1, 45494, Note_on_c, 0, 92, 81
1, 45504, Control_c, 0, 64, 113
1, 45519, Control_c, 0, 64, 94
1, 45533, Control_c, 0, 64, 78
1, 45538, Note_off_c, 0, 92, 66
1, 45556, Control_c, 0, 64, 66
1, 45571, Control_c, 0, 64, 56
1, 45571, Control_c, 0, 67, 49
1, 45574, Note_on_c, 0, 61, 68
1, 45575, Note_on_c, 0, 59, 62
1, 45576, Note_on_c, 0, 56, 60
1, 45577, Note_on_c, 0, 80, 70
1, 45586, Control_c, 0, 64, 47
1, 45586, Control_c, 0, 67, 49
1, 45601, Control_c, 0, 64, 45
1, 45601, Control_c, 0, 67, 47
1, 45611, Note_off_c, 0, 80, 63
1, 45616, Control_c, 0, 64, 52
1, 45616, Control_c, 0, 67, 45
1, 45631, Control_c, 0, 64, 60
1, 45631, Control_c, 0, 67, 43
1, 45639, Note_on_c, 0, 92, 85
1, 45645, Control_c, 0, 64, 65
1, 45660, Control_c, 0, 64, 69
1, 45666, Note_off_c, 0, 59, 66
1, 45666, Note_off_c, 0, 61, 64
1, 45672, Note_off_c, 0, 49, 64
1, 45672, Note_off_c, 0, 56, 63
1, 45675, Control_c, 0, 64, 72
1, 45675, Control_c, 0, 67, 43
1, 45690, Control_c, 0, 64, 77
1, 45690, Control_c, 0, 67, 40
1, 45705, Control_c, 0, 64, 85
1, 45705, Control_c, 0, 67, 30
1, 45715, Note_on_c, 0, 87, 78
1, 45717, Note_off_c, 0, 92, 66
1, 45720, Control_c, 0, 64, 94
1, 45720, Control_c, 0, 67, 12
1, 45735, Control_c, 0, 64, 103
1, 45735, Control_c, 0, 67, 0
1, 45749, Control_c, 0, 64, 110
1, 45764, Control_c, 0, 64, 116
1, 45779, Note_off_c, 0, 87, 64
1, 45779, Control_c, 0, 64, 127
1, 45785, Note_on_c, 0, 92, 78
1, 45823, Note_off_c, 0, 92, 65
1, 45846, Note_on_c, 0, 85, 79
1, 45881, Note_off_c, 0, 85, 63
1, 45897, Control_c, 0, 64, 119
1, 45912, Control_c, 0, 64, 88
1, 45919, Note_on_c, 0, 97, 89
1, 45927, Control_c, 0, 64, 68
1, 45942, Control_c, 0, 64, 50
1, 45956, Control_c, 0, 64, 32
1, 45971, Control_c, 0, 64, 43
1, 45979, Note_on_c, 0, 54, 86
1, 45979, Note_on_c, 0, 66, 90
1, 45981, Note_on_c, 0, 61, 82
1, 45982, Note_on_c, 0, 90, 97
1, 45984, Note_off_c, 0, 97, 67
1, 45985, Note_on_c, 0, 58, 80
1, 45986, Control_c, 0, 64, 60
1, 46001, Control_c, 0, 64, 74
1, 46016, Control_c, 0, 64, 89
1, 46030, Control_c, 0, 64, 108
1, 46033, Note_off_c, 0, 58, 64
1, 46045, Control_c, 0, 64, 114
1, 46050, Note_off_c, 0, 61, 64
1, 46059, Note_on_c, 0, 94, 89
1, 46060, Control_c, 0, 64, 119
1, 46062, Note_off_c, 0, 54, 63
1, 46075, Control_c, 0, 64, 127
1, 46077, Note_off_c, 0, 90, 66
1, 46081, Note_off_c, 0, 66, 63
1, 46104, Note_off_c, 0, 94, 65
1, 46135, Note_on_c, 0, 85, 80
1, 46170, Note_off_c, 0, 85, 62
1, 46182, Note_on_c, 0, 59, 69
1, 46182, Note_on_c, 0, 63, 81
1, 46183, Note_on_c, 0, 66, 88
1, 46187, Note_on_c, 0, 90, 95
1, 46188, Note_on_c, 0, 54, 71
1, 46208, Control_c, 0, 64, 91
1, 46223, Control_c, 0, 64, 72
1, 46228, Note_off_c, 0, 66, 62
1, 46235, Note_off_c, 0, 63, 64
1, 46237, Note_off_c, 0, 59, 65
1, 46238, Control_c, 0, 64, 61
1, 46249, Note_on_c, 0, 87, 84
1, 46253, Control_c, 0, 64, 52
1, 46253, Note_off_c, 0, 54, 63
1, 46256, Note_off_c, 0, 90, 65
1, 46268, Control_c, 0, 64, 48
1, 46282, Control_c, 0, 64, 45
1, 46294, Note_off_c, 0, 87, 60
1, 46297, Control_c, 0, 64, 43
1, 46319, Control_c, 0, 64, 40
1, 46329, Note_on_c, 0, 90, 81
1, 46334, Control_c, 0, 64, 37
1, 46349, Control_c, 0, 64, 36
1, 46373, Note_off_c, 0, 90, 66
1, 46394, Note_on_c, 0, 85, 76
1, 46400, Note_on_c, 0, 58, 67
1, 46405, Note_on_c, 0, 66, 68
1, 46405, Note_on_c, 0, 61, 66
1, 46409, Control_c, 0, 64, 35
1, 46409, Control_c, 0, 67, 8
1, 46410, Note_on_c, 0, 54, 58
1, 46424, Control_c, 0, 67, 9
1, 46431, Note_off_c, 0, 85, 62
1, 46439, Control_c, 0, 67, 10
1, 46453, Control_c, 0, 64, 36
1, 46453, Control_c, 0, 67, 11
1, 46468, Control_c, 0, 64, 37
1, 46468, Control_c, 0, 67, 12
1, 46471, Note_on_c, 0, 90, 76
1, 46483, Control_c, 0, 64, 38
1, 46483, Control_c, 0, 67, 12
1, 46486, Note_off_c, 0, 66, 63
1, 46493, Note_off_c, 0, 61, 64
1, 46498, Control_c, 0, 64, 38
1, 46498, Control_c, 0, 67, 14
1, 46506, Note_off_c, 0, 58, 64
1, 46513, Control_c, 0, 64, 39
1, 46513, Control_c, 0, 67, 16
1, 46524, Note_off_c, 0, 54, 65
1, 46527, Control_c, 0, 64, 39
1, 46527, Control_c, 0, 67, 18
1, 46530, Note_on_c, 0, 82, 78
1, 46536, Note_off_c, 0, 90, 65
1, 46542, Control_c, 0, 67, 20
1, 46557, Control_c, 0, 67, 23
1, 46572, Control_c, 0, 67, 26
1, 46587, Control_c, 0, 67, 28
1, 46597, Note_on_c, 0, 85, 76
1, 46597, Note_off_c, 0, 82, 63
1, 46602, Control_c, 0, 67, 32
1, 46617, Control_c, 0, 67, 37
1, 46631, Control_c, 0, 67, 42
1, 46643, Note_off_c, 0, 85, 62
1, 46646, Control_c, 0, 64, 38
1, 46646, Control_c, 0, 67, 46
1, 46661, Control_c, 0, 64, 35
1, 46661, Control_c, 0, 67, 47
1, 46669, Note_on_c, 0, 78, 74
1, 46676, Control_c, 0, 64, 31
1, 46676, Control_c, 0, 67, 48
1, 46691, Control_c, 0, 64, 26
1, 46691, Control_c, 0, 67, 50
1, 46694, Note_off_c, 0, 78, 68
1, 46705, Control_c, 0, 64, 21
1, 46705, Control_c, 0, 67, 53
1, 46720, Control_c, 0, 67, 58
1, 46727, Note_on_c, 0, 82, 77
1, 46735, Control_c, 0, 64, 23
1, 46735, Control_c, 0, 67, 63
1, 46750, Control_c, 0, 64, 34
1, 46750, Control_c, 0, 67, 67
1, 46765, Control_c, 0, 64, 47
1, 46765, Control_c, 0, 67, 69
1, 46779, Control_c, 0, 64, 57
1, 46779, Control_c, 0, 67, 71
1, 46784, Note_on_c, 0, 78, 69
1, 46784, Note_off_c, 0, 82, 65
1, 46793, Note_on_c, 0, 54, 66
1, 46794, Control_c, 0, 64, 62
1, 46794, Control_c, 0, 67, 71
1, 46796, Note_on_c, 0, 42, 51
1, 46809, Control_c, 0, 64, 65
1, 46824, Control_c, 0, 64, 66
1, 46825, Note_off_c, 0, 42, 58
1, 46825, Note_off_c, 0, 54, 65
1, 46838, Control_c, 0, 64, 69
1, 46838, Control_c, 0, 67, 71
1, 46853, Control_c, 0, 64, 72
1, 46855, Note_off_c, 0, 78, 63
1, 46861, Note_on_c, 0, 82, 67
1, 46868, Control_c, 0, 64, 76
1, 46883, Control_c, 0, 64, 80
1, 46888, Note_off_c, 0, 82, 67
1, 46898, Control_c, 0, 64, 86
1, 46912, Control_c, 0, 64, 93
1, 46921, Note_on_c, 0, 73, 75
1, 46927, Control_c, 0, 64, 101
1, 46942, Control_c, 0, 64, 107
1, 46942, Control_c, 0, 67, 71
1, 46957, Control_c, 0, 64, 109
1, 46957, Control_c, 0, 67, 72
1, 46973, Note_off_c, 0, 73, 54
1, 46978, Note_on_c, 0, 78, 76
1, 46982, Note_on_c, 0, 59, 54
1, 46986, Note_on_c, 0, 66, 60
1, 46986, Control_c, 0, 67, 71
1, 46989, Note_on_c, 0, 63, 53
1, 47001, Control_c, 0, 64, 108
1, 47016, Control_c, 0, 64, 106
1, 47016, Control_c, 0, 67, 72
1, 47022, Note_off_c, 0, 66, 63
1, 47031, Control_c, 0, 64, 104
1, 47031, Control_c, 0, 67, 72
1, 47036, Note_off_c, 0, 59, 63
1, 47036, Note_off_c, 0, 63, 63
1, 47037, Note_off_c, 0, 78, 63
1, 47042, Note_on_c, 0, 75, 63
1, 47053, Control_c, 0, 64, 101
1, 47053, Control_c, 0, 67, 73
1, 47068, Control_c, 0, 64, 97
1, 47068, Control_c, 0, 67, 75
1, 47083, Control_c, 0, 64, 93
1, 47083, Control_c, 0, 67, 77
1, 47098, Control_c, 0, 64, 87
1, 47099, Note_off_c, 0, 75, 60
1, 47107, Note_on_c, 0, 78, 68
1, 47112, Control_c, 0, 64, 81
1, 47112, Control_c, 0, 67, 78
1, 47127, Control_c, 0, 64, 74
1, 47127, Control_c, 0, 67, 79
1, 47142, Control_c, 0, 64, 67
1, 47142, Control_c, 0, 67, 82
1, 47157, Control_c, 0, 64, 59
1, 47157, Control_c, 0, 67, 84
1, 47162, Note_off_c, 0, 78, 64
1, 47172, Control_c, 0, 64, 51
1, 47172, Control_c, 0, 67, 85
1, 47188, Control_c, 0, 64, 46
1, 47190, Note_on_c, 0, 73, 71
1, 47202, Control_c, 0, 64, 45
1, 47213, Note_on_c, 0, 61, 48
1, 47216, Note_on_c, 0, 66, 60
1, 47217, Control_c, 0, 67, 85
1, 47221, Note_on_c, 0, 58, 54
1, 47227, Note_off_c, 0, 73, 60
1, 47247, Control_c, 0, 64, 46
1, 47247, Control_c, 0, 67, 86
1, 47260, Note_off_c, 0, 66, 63
1, 47261, Note_off_c, 0, 61, 63
1, 47261, Control_c, 0, 64, 50
1, 47274, Note_on_c, 0, 78, 64
1, 47276, Control_c, 0, 64, 55
1, 47284, Note_off_c, 0, 58, 64
1, 47291, Control_c, 0, 64, 59
1, 47306, Control_c, 0, 64, 62
1, 47321, Control_c, 0, 64, 64
1, 47325, Note_off_c, 0, 78, 61
1, 47326, Note_on_c, 0, 70, 64
1, 47335, Control_c, 0, 64, 65
1, 47335, Control_c, 0, 67, 85
1, 47350, Control_c, 0, 64, 68
1, 47365, Control_c, 0, 64, 70
1, 47365, Control_c, 0, 67, 85
1, 47380, Control_c, 0, 64, 72
1, 47380, Control_c, 0, 67, 85
1, 47381, Note_off_c, 0, 70, 61
1, 47395, Control_c, 0, 64, 73
1, 47399, Note_on_c, 0, 73, 54
1, 47410, Control_c, 0, 67, 85
1, 47429, Note_off_c, 0, 73, 67
1, 47440, Control_c, 0, 64, 73
1, 47440, Control_c, 0, 67, 84
1, 47454, Control_c, 0, 64, 74
1, 47455, Note_on_c, 0, 66, 71
1, 47469, Control_c, 0, 67, 85
1, 47499, Control_c, 0, 64, 69
1, 47514, Note_on_c, 0, 70, 57
1, 47514, Control_c, 0, 64, 63
1, 47523, Note_off_c, 0, 66, 52
1, 47528, Control_c, 0, 64, 54
1, 47528, Control_c, 0, 67, 84
1, 47543, Control_c, 0, 64, 43
1, 47558, Control_c, 0, 64, 38
1, 47573, Control_c, 0, 64, 42
1, 47584, Note_off_c, 0, 70, 63
1, 47588, Control_c, 0, 64, 53
1, 47588, Control_c, 0, 67, 84
1, 47590, Note_on_c, 0, 47, 53
1, 47602, Control_c, 0, 64, 61
1, 47602, Control_c, 0, 67, 83
1, 47617, Control_c, 0, 64, 65
1, 47617, Control_c, 0, 67, 82
1, 47632, Control_c, 0, 64, 66
1, 47634, Note_on_c, 0, 63, 66
1, 47647, Control_c, 0, 64, 69
1, 47661, Control_c, 0, 64, 73
1, 47671, Note_off_c, 0, 47, 63
1, 47674, Note_off_c, 0, 63, 59
1, 47676, Control_c, 0, 64, 78
1, 47676, Control_c, 0, 67, 82
1, 47691, Control_c, 0, 64, 81
1, 47691, Control_c, 0, 67, 81
1, 47706, Control_c, 0, 64, 84
1, 47706, Control_c, 0, 67, 80
1, 47714, Note_on_c, 0, 75, 63
1, 47721, Control_c, 0, 64, 85
1, 47721, Control_c, 0, 67, 79
1, 47735, Control_c, 0, 64, 86
1, 47750, Control_c, 0, 64, 88
1, 47762, Note_off_c, 0, 75, 59
1, 47765, Control_c, 0, 64, 90
1, 47773, Note_on_c, 0, 68, 64
1, 47780, Control_c, 0, 64, 92
1, 47780, Control_c, 0, 67, 79
1, 47795, Control_c, 0, 64, 93
1, 47795, Control_c, 0, 67, 78
1, 47810, Note_off_c, 0, 68, 65
1, 47817, Control_c, 0, 64, 95
1, 47817, Control_c, 0, 67, 77
1, 47832, Control_c, 0, 64, 96
1, 47832, Control_c, 0, 67, 76
1, 47846, Note_on_c, 0, 56, 65
1, 47847, Control_c, 0, 64, 98
1, 47847, Control_c, 0, 67, 76
1, 47852, Note_on_c, 0, 75, 74
1, 47854, Note_on_c, 0, 63, 58
1, 47861, Control_c, 0, 64, 98
1, 47861, Control_c, 0, 67, 75
1, 47876, Control_c, 0, 64, 99
1, 47876, Control_c, 0, 67, 75
1, 47889, Note_off_c, 0, 75, 64
1, 47891, Control_c, 0, 64, 101
1, 47891, Control_c, 0, 67, 74
1, 47906, Control_c, 0, 64, 105
1, 47906, Control_c, 0, 67, 74
1, 47921, Control_c, 0, 64, 111
1, 47921, Control_c, 0, 67, 73
1, 47925, Note_on_c, 0, 68, 69
1, 47929, Note_off_c, 0, 63, 60
1, 47935, Control_c, 0, 64, 122
1, 47950, Control_c, 0, 64, 127
1, 47950, Control_c, 0, 67, 73
1, 47965, Control_c, 0, 67, 72
1, 47980, Note_off_c, 0, 68, 62
1, 47988, Note_on_c, 0, 80, 68
1, 47995, Note_off_c, 0, 56, 58
1, 47996, Control_c, 0, 64, 109
1, 47996, Control_c, 0, 67, 72
1, 48011, Control_c, 0, 64, 87
1, 48011, Control_c, 0, 67, 71
1, 48025, Control_c, 0, 64, 72
1, 48036, Note_off_c, 0, 80, 64
1, 48040, Control_c, 0, 64, 62
1, 48047, Note_on_c, 0, 62, 61
1, 48051, Note_on_c, 0, 53, 62
1, 48055, Control_c, 0, 64, 52
1, 48055, Control_c, 0, 67, 71
1, 48057, Note_on_c, 0, 70, 85
1, 48067, Note_on_c, 0, 58, 34
1, 48070, Control_c, 0, 64, 50
1, 48070, Control_c, 0, 67, 70
1, 48079, Note_off_c, 0, 62, 66
1, 48084, Control_c, 0, 64, 55
1, 48084, Control_c, 0, 67, 68
1, 48091, Note_off_c, 0, 53, 64
1, 48094, Note_off_c, 0, 58, 55
1, 48097, Note_off_c, 0, 70, 62
1, 48099, Control_c, 0, 64, 62
1, 48099, Control_c, 0, 67, 65
1, 48113, Control_c, 0, 64, 68
1, 48113, Control_c, 0, 67, 63
1, 48122, Note_on_c, 0, 82, 88
1, 48128, Control_c, 0, 64, 72
1, 48128, Control_c, 0, 67, 62
1, 48143, Control_c, 0, 64, 77
1, 48143, Control_c, 0, 67, 60
1, 48158, Control_c, 0, 64, 81
1, 48158, Control_c, 0, 67, 58
1, 48167, Note_off_c, 0, 82, 65
1, 48173, Control_c, 0, 64, 85
1, 48173, Control_c, 0, 67, 56
1, 48188, Control_c, 0, 64, 89
1, 48188, Control_c, 0, 67, 54
1, 48190, Note_on_c, 0, 70, 74
1, 48203, Control_c, 0, 64, 92
1, 48203, Control_c, 0, 67, 53
1, 48214, Note_off_c, 0, 70, 66
1, 48218, Control_c, 0, 64, 97
1, 48218, Control_c, 0, 67, 50
1, 48232, Control_c, 0, 64, 100
1, 48232, Control_c, 0, 67, 49
1, 48243, Note_on_c, 0, 82, 81
1, 48247, Control_c, 0, 64, 104
1, 48247, Control_c, 0, 67, 48
1, 48258, Note_on_c, 0, 46, 62
1, 48262, Control_c, 0, 64, 106
1, 48262, Control_c, 0, 67, 47
1, 48276, Control_c, 0, 64, 109
1, 48276, Control_c, 0, 67, 46
1, 48281, Note_off_c, 0, 82, 62
1, 48291, Control_c, 0, 64, 113
1, 48291, Control_c, 0, 67, 45
1, 48300, Note_on_c, 0, 70, 72
1, 48305, Note_off_c, 0, 46, 59
1, 48306, Control_c, 0, 64, 124
1, 48306, Control_c, 0, 67, 42
1, 48321, Control_c, 0, 64, 127
1, 48321, Control_c, 0, 67, 39
1, 48336, Control_c, 0, 67, 36
1, 48338, Note_off_c, 0, 70, 60
1, 48350, Control_c, 0, 67, 33
1, 48365, Control_c, 0, 67, 31
1, 48372, Note_on_c, 0, 82, 74
1, 48380, Control_c, 0, 67, 29
1, 48395, Control_c, 0, 67, 27
1, 48396, Note_off_c, 0, 82, 67
1, 48410, Control_c, 0, 67, 25
1, 48424, Control_c, 0, 64, 106
1, 48424, Control_c, 0, 67, 24
1, 48435, Note_on_c, 0, 47, 66
1, 48439, Control_c, 0, 64, 85
1, 48439, Control_c, 0, 67, 22
1, 48454, Control_c, 0, 64, 71
1, 48454, Control_c, 0, 67, 20
1, 48469, Control_c, 0, 64, 62
1, 48469, Control_c, 0, 67, 20
1, 48483, Control_c, 0, 64, 55
1, 48483, Control_c, 0, 67, 19
1, 48489, Note_on_c, 0, 75, 65
1, 48498, Control_c, 0, 64, 54
1, 48498, Control_c, 0, 67, 17
1, 48513, Control_c, 0, 64, 59
1, 48513, Control_c, 0, 67, 15
1, 48528, Control_c, 0, 64, 65
1, 48528, Control_c, 0, 67, 14
1, 48531, Note_off_c, 0, 75, 64
1, 48534, Note_off_c, 0, 47, 64
1, 48543, Control_c, 0, 64, 68
1, 48543, Control_c, 0, 67, 13
1, 48565, Control_c, 0, 64, 71
1, 48565, Control_c, 0, 67, 13
1, 48567, Note_on_c, 0, 87, 72
1, 48580, Control_c, 0, 64, 73
1, 48580, Control_c, 0, 67, 12
1, 48595, Control_c, 0, 64, 76
1, 48595, Control_c, 0, 67, 11
1, 48609, Control_c, 0, 64, 80
1, 48609, Control_c, 0, 67, 9
1, 48620, Note_off_c, 0, 87, 66
1, 48624, Note_on_c, 0, 80, 74
1, 48624, Control_c, 0, 64, 84
1, 48624, Control_c, 0, 67, 0
1, 48639, Control_c, 0, 64, 87
1, 48654, Control_c, 0, 64, 89
1, 48669, Control_c, 0, 64, 92
1, 48674, Note_off_c, 0, 80, 58
1, 48683, Control_c, 0, 64, 96
1, 48684, Note_on_c, 0, 63, 73
1, 48689, Note_on_c, 0, 87, 72
1, 48691, Note_on_c, 0, 56, 74
1, 48698, Control_c, 0, 64, 101
1, 48713, Control_c, 0, 64, 106
1, 48728, Control_c, 0, 64, 109
1, 48735, Note_off_c, 0, 87, 67
1, 48743, Control_c, 0, 64, 111
1, 48757, Control_c, 0, 64, 124
1, 48760, Note_on_c, 0, 80, 83
1, 48771, Note_off_c, 0, 63, 58
1, 48773, Control_c, 0, 64, 127
1, 48799, Note_off_c, 0, 80, 61
1, 48815, Note_on_c, 0, 92, 81
1, 48847, Control_c, 0, 64, 110
1, 48863, Control_c, 0, 64, 82
1, 48878, Control_c, 0, 64, 67
1, 48879, Note_on_c, 0, 62, 66
1, 48881, Note_off_c, 0, 92, 67
1, 48885, Note_on_c, 0, 53, 63
1, 48893, Control_c, 0, 64, 57
1, 48897, Note_on_c, 0, 58, 46
1, 48903, Note_on_c, 0, 82, 85
1, 48907, Control_c, 0, 64, 50
1, 48908, Note_off_c, 0, 56, 51
1, 48912, Note_off_c, 0, 62, 66
1, 48922, Control_c, 0, 64, 52
1, 48924, Note_off_c, 0, 53, 65
1, 48926, Note_off_c, 0, 58, 63
1, 48937, Control_c, 0, 64, 60
1, 48952, Control_c, 0, 64, 66
1, 48953, Note_off_c, 0, 82, 65
1, 48967, Control_c, 0, 64, 69
1, 48973, Note_on_c, 0, 94, 94
1, 48981, Control_c, 0, 64, 73
1, 48996, Control_c, 0, 64, 78
1, 49011, Control_c, 0, 64, 84
1, 49025, Control_c, 0, 64, 89
1, 49032, Note_off_c, 0, 94, 64
1, 49040, Control_c, 0, 64, 92
1, 49040, Control_c, 0, 67, 8
1, 49049, Note_on_c, 0, 82, 90
1, 49055, Control_c, 0, 64, 95
1, 49070, Control_c, 0, 64, 98
1, 49070, Control_c, 0, 67, 8
1, 49085, Control_c, 0, 64, 101
1, 49085, Control_c, 0, 67, 9
1, 49094, Note_off_c, 0, 82, 64
1, 49100, Control_c, 0, 64, 103
1, 49100, Control_c, 0, 67, 11
1, 49115, Control_c, 0, 64, 104
1, 49115, Control_c, 0, 67, 13
1, 49121, Note_on_c, 0, 94, 91
1, 49130, Control_c, 0, 64, 105
1, 49130, Control_c, 0, 67, 15
1, 49142, Note_on_c, 0, 46, 58
1, 49145, Control_c, 0, 64, 109
1, 49145, Control_c, 0, 67, 17
1, 49160, Control_c, 0, 64, 115
1, 49160, Control_c, 0, 67, 18
1, 49174, Control_c, 0, 64, 120
1, 49177, Note_off_c, 0, 94, 64
1, 49189, Control_c, 0, 67, 19
1, 49191, Note_on_c, 0, 82, 82
1, 49204, Control_c, 0, 67, 19
1, 49218, Control_c, 0, 67, 20
1, 49233, Control_c, 0, 64, 124
1, 49233, Control_c, 0, 67, 20
1, 49243, Note_off_c, 0, 82, 62
1, 49248, Control_c, 0, 64, 127
1, 49263, Control_c, 0, 67, 21
1, 49273, Note_on_c, 0, 94, 81
1, 49278, Control_c, 0, 67, 21
1, 49290, Note_off_c, 0, 46, 0
1, 49315, Control_c, 0, 64, 98
1, 49329, Control_c, 0, 64, 78
1, 49344, Control_c, 0, 64, 64
1, 49349, Poly_aftertouch_c, 0, 46, 0
1, 49359, Control_c, 0, 64, 51
1, 49374, Control_c, 0, 64, 42
1, 49376, Note_off_c, 0, 94, 62
1, 49386, Note_on_c, 0, 47, 68
1, 49389, Control_c, 0, 64, 45
1, 49389, Control_c, 0, 67, 20
1, 49404, Control_c, 0, 64, 56
1, 49414, Note_on_c, 0, 82, 82
1, 49419, Control_c, 0, 64, 65
1, 49419, Control_c, 0, 67, 20
1, 49419, Note_off_c, 0, 47, 68
1, 49433, Control_c, 0, 64, 68
1, 49448, Control_c, 0, 64, 71
1, 49463, Control_c, 0, 64, 74
1, 49463, Control_c, 0, 67, 19
1, 49473, Note_off_c, 0, 82, 64
1, 49478, Control_c, 0, 64, 78
1, 49478, Control_c, 0, 67, 18
1, 49487, Note_on_c, 0, 94, 83
1, 49493, Control_c, 0, 64, 82
1, 49493, Control_c, 0, 67, 18
1, 49507, Control_c, 0, 64, 87
1, 49507, Control_c, 0, 67, 17
1, 49522, Control_c, 0, 64, 93
1, 49537, Control_c, 0, 64, 105
1, 49548, Note_off_c, 0, 94, 63
1, 49552, Control_c, 0, 64, 127
1, 49556, Note_on_c, 0, 87, 74
1, 49614, Note_on_c, 0, 59, 63
1, 49618, Note_on_c, 0, 68, 72
1, 49619, Note_off_c, 0, 87, 65
1, 49625, Note_on_c, 0, 94, 85
1, 49634, Note_on_c, 0, 63, 65
1, 49641, Control_c, 0, 64, 109
1, 49641, Control_c, 0, 67, 18
1, 49648, Note_off_c, 0, 68, 67
1, 49654, Note_off_c, 0, 59, 67
1, 49656, Control_c, 0, 64, 83
1, 49660, Note_off_c, 0, 63, 67
1, 49670, Control_c, 0, 64, 70
1, 49670, Control_c, 0, 67, 18
1, 49672, Note_off_c, 0, 94, 64
1, 49685, Control_c, 0, 64, 61
1, 49698, Note_on_c, 0, 80, 69
1, 49700, Control_c, 0, 64, 53
1, 49700, Control_c, 0, 67, 19
1, 49715, Control_c, 0, 64, 39
1, 49715, Control_c, 0, 67, 19
1, 49727, Note_off_c, 0, 80, 65
1, 49729, Control_c, 0, 64, 25
1, 49744, Control_c, 0, 64, 10
1, 49759, Control_c, 0, 64, 0
1, 49766, Note_on_c, 0, 92, 76
1, 49789, Control_c, 0, 64, 24
1, 49803, Control_c, 0, 64, 43
1, 49809, Note_off_c, 0, 92, 63
1, 49818, Control_c, 0, 64, 55
1, 49830, Note_on_c, 0, 80, 74
1, 49833, Control_c, 0, 64, 62
1, 49833, Control_c, 0, 67, 19
1, 49834, Note_on_c, 0, 49, 62
1, 49848, Control_c, 0, 64, 65
1, 49848, Control_c, 0, 67, 18
1, 49863, Control_c, 0, 64, 67
1, 49863, Control_c, 0, 67, 18
1, 49866, Note_off_c, 0, 80, 62
1, 49878, Control_c, 0, 64, 69
1, 49878, Control_c, 0, 67, 17
1, 49886, Note_off_c, 0, 49, 63
1, 49893, Control_c, 0, 64, 72
1, 49893, Control_c, 0, 67, 17
1, 49902, Note_on_c, 0, 92, 84
1, 49908, Control_c, 0, 64, 78
1, 49908, Control_c, 0, 67, 16
1, 49922, Control_c, 0, 64, 85
1, 49922, Control_c, 0, 67, 16
1, 49937, Control_c, 0, 64, 96
1, 49937, Control_c, 0, 67, 15
1, 49945, Note_off_c, 0, 92, 66
1, 49952, Control_c, 0, 64, 127
1, 49952, Note_on_c, 0, 85, 77
1, 50023, Note_on_c, 0, 92, 84
1, 50027, Note_on_c, 0, 66, 72
1, 50029, Note_on_c, 0, 58, 60
1, 50032, Note_on_c, 0, 61, 67
1, 50048, Control_c, 0, 67, 16
1, 50051, Note_off_c, 0, 85, 52
1, 50063, Note_off_c, 0, 58, 67
1, 50063, Control_c, 0, 67, 16
1, 50063, Note_off_c, 0, 66, 65
1, 50071, Note_off_c, 0, 61, 64
1, 50075, Note_off_c, 0, 92, 59
1, 50078, Control_c, 0, 67, 17
1, 50081, Note_on_c, 0, 78, 74
1, 50093, Control_c, 0, 67, 19
1, 50107, Control_c, 0, 67, 20
1, 50122, Control_c, 0, 64, 109
1, 50122, Control_c, 0, 67, 21
1, 50124, Note_off_c, 0, 78, 54
1, 50137, Control_c, 0, 64, 74
1, 50149, Note_on_c, 0, 90, 75
1, 50152, Control_c, 0, 64, 54
1, 50152, Control_c, 0, 67, 21
1, 50167, Control_c, 0, 64, 0
1, 50171, Note_off_c, 0, 90, 69
1, 50226, Control_c, 0, 64, 42
1, 50226, Control_c, 0, 67, 21
1, 50227, Note_on_c, 0, 47, 71
1, 50239, Note_on_c, 0, 73, 79
1, 50241, Control_c, 0, 64, 58
1, 50241, Control_c, 0, 67, 20
1, 50249, Note_off_c, 0, 47, 68
1, 50255, Control_c, 0, 64, 64
1, 50255, Control_c, 0, 67, 20
1, 50270, Control_c, 0, 64, 65
1, 50285, Control_c, 0, 64, 66
1, 50285, Control_c, 0, 67, 19
1, 50295, Note_off_c, 0, 73, 60
1, 50300, Control_c, 0, 64, 67
1, 50300, Control_c, 0, 67, 19
1, 50311, Note_on_c, 0, 85, 76
1, 50315, Control_c, 0, 64, 69
1, 50329, Control_c, 0, 64, 71
1, 50329, Control_c, 0, 67, 18
1, 50344, Control_c, 0, 64, 75
1, 50358, Control_c, 0, 64, 78
1, 50358, Control_c, 0, 67, 17
1, 50372, Note_on_c, 0, 80, 72
1, 50372, Note_off_c, 0, 85, 64
1, 50374, Control_c, 0, 64, 83
1, 50389, Control_c, 0, 64, 93
1, 50404, Control_c, 0, 64, 127
1, 50425, Note_off_c, 0, 80, 61
1, 50426, Note_on_c, 0, 85, 71
1, 50440, Note_on_c, 0, 61, 64
1, 50444, Note_on_c, 0, 68, 62
1, 50463, Note_off_c, 0, 85, 64
1, 50465, Note_off_c, 0, 68, 64
1, 50465, Note_off_c, 0, 61, 67
1, 50492, Control_c, 0, 67, 18
1, 50501, Note_on_c, 0, 80, 77
1, 50507, Control_c, 0, 64, 85
1, 50507, Control_c, 0, 67, 19
1, 50522, Control_c, 0, 64, 63
1, 50522, Control_c, 0, 67, 20
1, 50537, Control_c, 0, 64, 41
1, 50537, Control_c, 0, 67, 20
1, 50544, Note_off_c, 0, 80, 62
1, 50552, Control_c, 0, 64, 0
1, 50552, Control_c, 0, 67, 21
1, 50567, Control_c, 0, 67, 22
1, 50568, Note_on_c, 0, 92, 70
1, 50602, Note_off_c, 0, 92, 64
1, 50626, Control_c, 0, 67, 22
1, 50638, Note_on_c, 0, 78, 73
1, 50641, Control_c, 0, 64, 31
1, 50641, Control_c, 0, 67, 23
1, 50656, Control_c, 0, 64, 51
1, 50656, Control_c, 0, 67, 24
1, 50658, Note_on_c, 0, 46, 60
1, 50670, Control_c, 0, 64, 60
1, 50670, Control_c, 0, 67, 26
1, 50680, Note_off_c, 0, 78, 59
1, 50681, Note_off_c, 0, 46, 62
1, 50685, Control_c, 0, 64, 63
1, 50685, Control_c, 0, 67, 27
1, 50700, Control_c, 0, 64, 64
1, 50700, Control_c, 0, 67, 28
1, 50711, Note_on_c, 0, 90, 74
1, 50715, Control_c, 0, 64, 65
1, 50730, Control_c, 0, 64, 66
1, 50744, Control_c, 0, 64, 69
1, 50759, Control_c, 0, 64, 72
1, 50772, Note_off_c, 0, 90, 64
1, 50774, Control_c, 0, 64, 74
1, 50774, Control_c, 0, 67, 28
1, 50780, Note_on_c, 0, 85, 68
1, 50796, Control_c, 0, 64, 77
1, 50811, Control_c, 0, 64, 81
1, 50811, Control_c, 0, 67, 29
1, 50823, Note_off_c, 0, 85, 62
1, 50826, Control_c, 0, 64, 86
1, 50826, Control_c, 0, 67, 30
1, 50841, Control_c, 0, 64, 92
1, 50841, Control_c, 0, 67, 34
1, 50853, Note_on_c, 0, 90, 71
1, 50856, Control_c, 0, 64, 99
1, 50856, Control_c, 0, 67, 39
1, 50862, Note_on_c, 0, 70, 66
1, 50870, Control_c, 0, 64, 109
1, 50870, Control_c, 0, 67, 42
1, 50876, Note_on_c, 0, 66, 48
1, 50877, Note_on_c, 0, 58, 53
1, 50877, Note_on_c, 0, 61, 49
1, 50880, Note_off_c, 0, 90, 69
1, 50885, Control_c, 0, 64, 127
1, 50885, Control_c, 0, 67, 43
1, 50888, Note_off_c, 0, 70, 67
1, 50900, Note_off_c, 0, 58, 62
1, 50902, Note_off_c, 0, 61, 59
1, 50902, Note_off_c, 0, 66, 56
1, 50915, Control_c, 0, 67, 44
1, 50930, Note_on_c, 0, 85, 65
1, 50930, Control_c, 0, 67, 44
1, 50944, Control_c, 0, 67, 45
1, 50959, Control_c, 0, 67, 45
1, 50969, Note_off_c, 0, 85, 60
1, 50974, Control_c, 0, 67, 46
1, 50993, Note_on_c, 0, 97, 59
1, 51003, Control_c, 0, 67, 46
1, 51017, Note_off_c, 0, 97, 56
1, 51018, Control_c, 0, 67, 47
1, 51033, Control_c, 0, 67, 48
1, 51048, Control_c, 0, 67, 50
1, 51063, Control_c, 0, 67, 51
1, 51077, Control_c, 0, 67, 52
1, 51092, Control_c, 0, 67, 54
1, 51095, Note_on_c, 0, 47, 68
1, 51107, Control_c, 0, 64, 86
1, 51107, Control_c, 0, 67, 56
1, 51115, Note_on_c, 0, 82, 68
1, 51122, Control_c, 0, 64, 65
1, 51122, Control_c, 0, 67, 60
1, 51123, Note_off_c, 0, 47, 66
1, 51137, Control_c, 0, 64, 51
1, 51137, Control_c, 0, 67, 64
1, 51148, Note_off_c, 0, 82, 63
1, 51151, Control_c, 0, 64, 37
1, 51151, Control_c, 0, 67, 66
1, 51166, Control_c, 0, 64, 33
1, 51166, Control_c, 0, 67, 70
1, 51182, Control_c, 0, 64, 35
1, 51182, Control_c, 0, 67, 75
1, 51187, Note_on_c, 0, 94, 70
1, 51197, Control_c, 0, 64, 40
1, 51197, Control_c, 0, 67, 80
1, 51212, Control_c, 0, 64, 42
1, 51212, Control_c, 0, 67, 84
1, 51219, Note_off_c, 0, 94, 65
1, 51227, Control_c, 0, 64, 43
1, 51227, Control_c, 0, 67, 87
1, 51235, Note_on_c, 0, 87, 62
1, 51242, Control_c, 0, 64, 44
1, 51242, Control_c, 0, 67, 89
1, 51256, Control_c, 0, 64, 44
1, 51256, Control_c, 0, 67, 91
1, 51271, Control_c, 0, 64, 45
1, 51271, Control_c, 0, 67, 94
1, 51286, Control_c, 0, 64, 46
1, 51286, Control_c, 0, 67, 97
1, 51289, Note_off_c, 0, 87, 52
1, 51300, Control_c, 0, 64, 46
1, 51300, Control_c, 0, 67, 100
1, 51309, Note_on_c, 0, 94, 70
1, 51310, Note_on_c, 0, 68, 66
1, 51315, Note_on_c, 0, 59, 50
1, 51315, Control_c, 0, 67, 102
1, 51330, Control_c, 0, 64, 46
1, 51331, Note_on_c, 0, 63, 47
1, 51337, Note_off_c, 0, 68, 67
1, 51340, Note_off_c, 0, 94, 64
1, 51345, Note_off_c, 0, 59, 66
1, 51345, Control_c, 0, 67, 103
1, 51358, Note_off_c, 0, 63, 58
1, 51360, Control_c, 0, 64, 46
1, 51360, Control_c, 0, 67, 103
1, 51374, Control_c, 0, 64, 47
1, 51374, Control_c, 0, 67, 104
1, 51382, Note_on_c, 0, 80, 49
1, 51389, Control_c, 0, 64, 48
1, 51389, Control_c, 0, 67, 105
1, 51404, Control_c, 0, 64, 49
1, 51404, Control_c, 0, 67, 105
1, 51405, Note_off_c, 0, 80, 58
1, 51434, Control_c, 0, 64, 48
1, 51444, Note_on_c, 0, 92, 57
1, 51465, Note_off_c, 0, 92, 64
1, 51489, Note_on_c, 0, 49, 63
1, 51493, Note_on_c, 0, 80, 61
1, 51493, Control_c, 0, 64, 48
1, 51508, Control_c, 0, 64, 47
1, 51531, Note_off_c, 0, 49, 63
1, 51532, Note_off_c, 0, 80, 62
1, 51538, Control_c, 0, 64, 47
1, 51560, Control_c, 0, 64, 47
1, 51572, Note_on_c, 0, 92, 66
1, 51574, Control_c, 0, 64, 48
1, 51589, Control_c, 0, 64, 48
1, 51589, Control_c, 0, 67, 105
1, 51622, Note_off_c, 0, 92, 65
1, 51634, Control_c, 0, 64, 49
1, 51634, Control_c, 0, 67, 105
1, 51636, Note_on_c, 0, 85, 62
1, 51649, Control_c, 0, 64, 50
1, 51664, Control_c, 0, 67, 106
1, 51688, Note_off_c, 0, 85, 51
1, 51702, Note_on_c, 0, 66, 68
1, 51708, Control_c, 0, 67, 106
1, 51708, Note_on_c, 0, 58, 55
1, 51708, Note_on_c, 0, 92, 78
1, 51713, Note_on_c, 0, 61, 59
1, 51734, Note_off_c, 0, 66, 65
1, 51738, Note_off_c, 0, 58, 67
1, 51738, Control_c, 0, 64, 50
1, 51741, Note_off_c, 0, 61, 66
1, 51744, Note_off_c, 0, 92, 61
1, 51753, Control_c, 0, 64, 51
1, 51757, Note_on_c, 0, 78, 68
1, 51767, Control_c, 0, 64, 52
1, 51782, Control_c, 0, 67, 107
1, 51808, Note_off_c, 0, 78, 60
1, 51823, Note_on_c, 0, 90, 61
1, 51841, Note_off_c, 0, 90, 66
1, 51841, Control_c, 0, 67, 106
1, 51871, Control_c, 0, 64, 52
1, 51886, Control_c, 0, 64, 51
1, 51900, Control_c, 0, 64, 50
1, 51905, Note_on_c, 0, 47, 63
1, 51914, Note_on_c, 0, 73, 70
1, 51915, Control_c, 0, 64, 49
1, 51930, Note_off_c, 0, 47, 37
1, 51930, Control_c, 0, 64, 48
1, 51945, Control_c, 0, 64, 48
1, 51945, Control_c, 0, 67, 106
1, 51954, Note_off_c, 0, 73, 57
1, 51960, Control_c, 0, 64, 47
1, 51976, Note_on_c, 0, 85, 64
1, 51976, Control_c, 0, 64, 47
1, 51976, Control_c, 0, 67, 106
1, 52005, Control_c, 0, 64, 47
1, 52018, Note_off_c, 0, 85, 62
1, 52020, Control_c, 0, 64, 49
1, 52028, Note_on_c, 0, 80, 66
1, 52035, Control_c, 0, 64, 53
1, 52035, Control_c, 0, 67, 107
1, 52049, Control_c, 0, 64, 56
1, 52049, Control_c, 0, 67, 107
1, 52055, Note_off_c, 0, 80, 64
1, 52079, Control_c, 0, 64, 51
1, 52079, Control_c, 0, 67, 108
1, 52090, Note_on_c, 0, 61, 59
1, 52094, Control_c, 0, 64, 34
1, 52094, Control_c, 0, 67, 108
1, 52099, Note_on_c, 0, 85, 64
1, 52102, Note_on_c, 0, 68, 59
1, 52109, Control_c, 0, 64, 0
1, 52120, Note_off_c, 0, 68, 65
1, 52123, Note_off_c, 0, 61, 63
1, 52127, Note_off_c, 0, 85, 66
1, 52138, Control_c, 0, 67, 109
1, 52161, Note_on_c, 0, 80, 67
1, 52168, Control_c, 0, 67, 110
1, 52183, Control_c, 0, 67, 110
1, 52203, Note_off_c, 0, 80, 60
1, 52212, Control_c, 0, 67, 111
1, 52226, Note_on_c, 0, 92, 68
1, 52227, Control_c, 0, 67, 112
1, 52242, Control_c, 0, 67, 112
1, 52260, Note_off_c, 0, 92, 64
1, 52287, Control_c, 0, 67, 112
1, 52301, Note_on_c, 0, 46, 36
1, 52311, Note_on_c, 0, 78, 69
1, 52326, Note_off_c, 0, 46, 48
1, 52338, Control_c, 0, 67, 111
1, 52341, Note_off_c, 0, 78, 63
1, 52353, Control_c, 0, 64, 15
1, 52368, Control_c, 0, 64, 34
1, 52368, Control_c, 0, 67, 111
1, 52373, Note_on_c, 0, 90, 67
1, 52383, Control_c, 0, 64, 41
1, 52383, Control_c, 0, 67, 110
1, 52397, Control_c, 0, 64, 42
1, 52412, Control_c, 0, 64, 44
1, 52427, Control_c, 0, 64, 49
1, 52427, Control_c, 0, 67, 110
1, 52436, Note_off_c, 0, 90, 65
1, 52442, Control_c, 0, 64, 56
1, 52442, Control_c, 0, 67, 109
1, 52443, Note_on_c, 0, 85, 57
1, 52456, Control_c, 0, 64, 60
1, 52456, Control_c, 0, 67, 108
1, 52471, Control_c, 0, 64, 62
1, 52471, Control_c, 0, 67, 108
1, 52482, Note_off_c, 0, 85, 64
1, 52486, Control_c, 0, 64, 63
1, 52486, Control_c, 0, 67, 107
1, 52501, Control_c, 0, 64, 65
1, 52501, Control_c, 0, 67, 106
1, 52513, Note_on_c, 0, 70, 62
1, 52516, Control_c, 0, 64, 67
1, 52516, Control_c, 0, 67, 105
1, 52517, Note_on_c, 0, 90, 66
1, 52531, Control_c, 0, 64, 71
1, 52531, Control_c, 0, 67, 104
1, 52536, Note_on_c, 0, 66, 40
1, 52539, Note_on_c, 0, 58, 46
1, 52544, Note_off_c, 0, 70, 64
1, 52544, Note_off_c, 0, 90, 68
1, 52546, Control_c, 0, 64, 74
1, 52546, Control_c, 0, 67, 104
1, 52549, Note_on_c, 0, 61, 28
1, 52561, Control_c, 0, 64, 77
1, 52561, Control_c, 0, 67, 103
1, 52565, Note_off_c, 0, 58, 57
1, 52566, Note_off_c, 0, 66, 53
1, 52576, Control_c, 0, 64, 79
1, 52585, Note_off_c, 0, 61, 43
1, 52589, Note_on_c, 0, 85, 71
1, 52590, Control_c, 0, 64, 82
1, 52590, Control_c, 0, 67, 102
1, 52605, Control_c, 0, 64, 85
1, 52605, Control_c, 0, 67, 101
1, 52620, Control_c, 0, 64, 89
1, 52620, Control_c, 0, 67, 101
1, 52635, Control_c, 0, 64, 94
1, 52644, Note_off_c, 0, 85, 59
1, 52650, Control_c, 0, 64, 96
1, 52665, Control_c, 0, 64, 98
1, 52671, Note_on_c, 0, 97, 72
1, 52680, Control_c, 0, 64, 100
1, 52680, Control_c, 0, 67, 100
1, 52687, Note_off_c, 0, 97, 69
1, 52695, Control_c, 0, 64, 102
1, 52695, Control_c, 0, 67, 100
1, 52710, Control_c, 0, 64, 105
1, 52724, Control_c, 0, 64, 114
1, 52739, Control_c, 0, 64, 127
1, 52739, Control_c, 0, 67, 100
1, 52754, Control_c, 0, 67, 101
1, 52799, Control_c, 0, 64, 106
1, 52814, Control_c, 0, 64, 90
1, 52829, Control_c, 0, 64, 75
1, 52829, Note_on_c, 0, 47, 59
1, 52844, Control_c, 0, 64, 65
1, 52859, Control_c, 0, 64, 58
1, 52859, Control_c, 0, 67, 100
1, 52873, Control_c, 0, 64, 54
1, 52883, Note_on_c, 0, 82, 56
1, 52888, Control_c, 0, 64, 56
1, 52895, Note_off_c, 0, 47, 65
1, 52903, Control_c, 0, 64, 62
1, 52918, Control_c, 0, 64, 66
1, 52933, Control_c, 0, 64, 69
1, 52933, Control_c, 0, 67, 100
1, 52944, Note_off_c, 0, 82, 49
1, 52947, Control_c, 0, 64, 72
1, 52947, Control_c, 0, 67, 99
1, 52962, Control_c, 0, 64, 76
1, 52977, Control_c, 0, 64, 81
1, 52981, Note_on_c, 0, 94, 44
1, 52992, Control_c, 0, 64, 87
1, 53005, Note_off_c, 0, 94, 56
1, 53007, Control_c, 0, 64, 90
1, 53007, Control_c, 0, 67, 99
1, 53021, Control_c, 0, 64, 93
1, 53021, Control_c, 0, 67, 98
1, 53023, Note_on_c, 0, 87, 57
1, 53036, Control_c, 0, 64, 97
1, 53036, Control_c, 0, 67, 98
1, 53059, Control_c, 0, 64, 103
1, 53073, Control_c, 0, 64, 111
1, 53086, Note_off_c, 0, 87, 54
1, 53088, Control_c, 0, 64, 127
1, 53102, Note_on_c, 0, 94, 62
1, 53103, Control_c, 0, 67, 97
1, 53118, Control_c, 0, 67, 97
1, 53126, Note_on_c, 0, 68, 61
1, 53140, Note_on_c, 0, 63, 51
1, 53144, Note_on_c, 0, 56, 53
1, 53163, Note_off_c, 0, 94, 62
1, 53177, Control_c, 0, 67, 96
1, 53187, Note_off_c, 0, 68, 59
1, 53192, Control_c, 0, 67, 95
1, 53193, Note_off_c, 0, 63, 52
1, 53198, Note_off_c, 0, 56, 57
1, 53199, Note_on_c, 0, 80, 54
1, 53206, Control_c, 0, 67, 94
1, 53220, Note_off_c, 0, 80, 61
1, 53252, Note_on_c, 0, 92, 63
1, 53266, Control_c, 0, 67, 94
1, 53280, Control_c, 0, 67, 93
1, 53298, Note_off_c, 0, 92, 64
1, 53320, Note_on_c, 0, 82, 70
1, 53325, Control_c, 0, 67, 93
1, 53340, Control_c, 0, 67, 92
1, 53349, Note_off_c, 0, 82, 63
1, 53354, Control_c, 0, 67, 91
1, 53369, Control_c, 0, 67, 88
1, 53373, Note_on_c, 0, 94, 74
1, 53384, Control_c, 0, 67, 87
1, 53398, Note_off_c, 0, 94, 66
1, 53398, Control_c, 0, 67, 85
1, 53413, Control_c, 0, 67, 85
1, 53422, Note_on_c, 0, 87, 63
1, 53428, Control_c, 0, 67, 83
1, 53443, Control_c, 0, 67, 81
1, 53458, Control_c, 0, 67, 78
1, 53473, Control_c, 0, 67, 74
1, 53475, Note_off_c, 0, 87, 59
1, 53483, Note_on_c, 0, 94, 69
1, 53488, Control_c, 0, 67, 70
1, 53503, Control_c, 0, 67, 64
1, 53515, Note_on_c, 0, 47, 63
1, 53518, Control_c, 0, 67, 58
1, 53530, Note_on_c, 0, 48, 65
1, 53533, Control_c, 0, 67, 51
1, 53547, Control_c, 0, 67, 44
1, 53547, Note_off_c, 0, 94, 64
1, 53562, Control_c, 0, 67, 36
1, 53572, Note_on_c, 0, 80, 66
1, 53577, Control_c, 0, 67, 30
1, 53592, Control_c, 0, 67, 25
1, 53599, Note_off_c, 0, 80, 66
1, 53607, Control_c, 0, 67, 21
1, 53622, Control_c, 0, 67, 17
1, 53631, Note_on_c, 0, 92, 71
1, 53637, Control_c, 0, 64, 80
1, 53637, Control_c, 0, 67, 15
1, 53643, Note_off_c, 0, 47, 60
1, 53652, Control_c, 0, 64, 58
1, 53652, Control_c, 0, 67, 12
1, 53667, Control_c, 0, 64, 18
1, 53667, Control_c, 0, 67, 8
1, 53668, Note_off_c, 0, 48, 0
1, 53681, Note_on_c, 0, 48, 63
1, 53682, Note_off_c, 0, 92, 65
1, 53682, Control_c, 0, 64, 12
1, 53682, Control_c, 0, 67, 0
1, 53696, Control_c, 0, 64, 37
1, 53699, Note_on_c, 0, 82, 78
1, 53711, Control_c, 0, 64, 57
1, 53726, Control_c, 0, 64, 68
1, 53726, Note_off_c, 0, 48, 64
1, 53731, Note_off_c, 0, 82, 61
1, 53741, Control_c, 0, 64, 79
1, 53756, Control_c, 0, 64, 89
1, 53767, Note_on_c, 0, 94, 78
1, 53770, Control_c, 0, 64, 99
1, 53792, Control_c, 0, 64, 107
1, 53807, Control_c, 0, 64, 127
1, 53813, Note_off_c, 0, 94, 59
1, 53830, Note_on_c, 0, 87, 67
1, 53893, Note_on_c, 0, 68, 77
1, 53897, Note_on_c, 0, 63, 71
1, 53902, Note_off_c, 0, 87, 64
1, 53906, Note_on_c, 0, 56, 69
1, 53908, Note_on_c, 0, 94, 80
1, 53909, Note_on_c, 0, 66, 55
1, 53925, Note_off_c, 0, 68, 65
1, 53931, Note_off_c, 0, 63, 67
1, 53931, Note_off_c, 0, 66, 60
1, 53950, Note_off_c, 0, 56, 62
1, 53950, Note_off_c, 0, 94, 61
1, 53971, Note_on_c, 0, 80, 75
1, 53995, Note_off_c, 0, 80, 67
1, 54024, Note_on_c, 0, 92, 77
1, 54077, Note_off_c, 0, 92, 66
1, 54090, Note_on_c, 0, 82, 86
1, 54132, Note_off_c, 0, 82, 61
1, 54147, Note_on_c, 0, 94, 85
1, 54189, Note_off_c, 0, 94, 64
1, 54209, Note_on_c, 0, 87, 70
1, 54254, Note_on_c, 0, 48, 89
1, 54275, Note_off_c, 0, 87, 64
1, 54277, Note_on_c, 0, 94, 85
1, 54314, Note_off_c, 0, 94, 62
1, 54334, Note_on_c, 0, 80, 80
1, 54375, Note_off_c, 0, 80, 60
1, 54402, Note_on_c, 0, 92, 83
1, 54445, Control_c, 0, 64, 109
1, 54460, Control_c, 0, 64, 81
1, 54463, Note_on_c, 0, 49, 81
1, 54475, Control_c, 0, 64, 63
1, 54489, Control_c, 0, 64, 39
1, 54491, Note_off_c, 0, 48, 64
1, 54504, Control_c, 0, 64, 0
1, 54513, Note_off_c, 0, 92, 64
1, 54521, Note_on_c, 0, 85, 79
1, 54556, Control_c, 0, 64, 27
1, 54571, Control_c, 0, 64, 50
1, 54586, Control_c, 0, 64, 65
1, 54594, Note_off_c, 0, 85, 60
1, 54600, Control_c, 0, 64, 76
1, 54609, Note_on_c, 0, 94, 86
1, 54615, Note_off_c, 0, 49, 65
1, 54615, Control_c, 0, 64, 92
1, 54630, Control_c, 0, 64, 127
1, 54665, Note_off_c, 0, 94, 64
1, 54700, Note_on_c, 0, 80, 62
1, 54719, Note_off_c, 0, 80, 63
1, 54740, Note_on_c, 0, 92, 81
1, 54792, Note_on_c, 0, 85, 77
1, 54793, Note_off_c, 0, 92, 66
1, 54850, Note_on_c, 0, 94, 88
1, 54862, Note_off_c, 0, 85, 63
1, 54892, Note_on_c, 0, 68, 89
1, 54893, Note_on_c, 0, 61, 73
1, 54897, Note_on_c, 0, 56, 81
1, 54897, Note_on_c, 0, 66, 86
1, 54909, Note_off_c, 0, 94, 64
1, 54924, Note_on_c, 0, 80, 79
1, 54960, Note_off_c, 0, 80, 61
1, 54975, Note_on_c, 0, 92, 85
1, 55000, Note_off_c, 0, 61, 64
1, 55010, Note_off_c, 0, 56, 61
1, 55023, Note_off_c, 0, 66, 65
1, 55027, Note_on_c, 0, 85, 75
1, 55039, Note_off_c, 0, 92, 64
1, 55063, Note_off_c, 0, 68, 64
1, 55080, Note_on_c, 0, 94, 90
1, 55092, Note_off_c, 0, 85, 62
1, 55130, Note_off_c, 0, 94, 64
1, 55142, Note_on_c, 0, 80, 82
1, 55174, Note_off_c, 0, 80, 63
1, 55193, Note_on_c, 0, 92, 81
1, 55217, Note_on_c, 0, 73, 85
1, 55222, Note_on_c, 0, 68, 77
1, 55225, Note_on_c, 0, 66, 84
1, 55240, Note_on_c, 0, 85, 76
1, 55252, Note_off_c, 0, 73, 68
1, 55262, Note_off_c, 0, 68, 66
1, 55272, Note_off_c, 0, 66, 65
1, 55304, Note_on_c, 0, 94, 92
1, 55310, Note_off_c, 0, 85, 62
1, 55320, Note_off_c, 0, 92, 31
1, 55357, Note_off_c, 0, 94, 61
1, 55361, Note_on_c, 0, 80, 86
1, 55414, Note_on_c, 0, 92, 84
1, 55460, Note_on_c, 0, 85, 76
1, 55465, Note_off_c, 0, 80, 57
1, 55519, Note_on_c, 0, 94, 87
1, 55527, Note_off_c, 0, 92, 56
1, 55542, Note_off_c, 0, 85, 63
1, 55597, Note_on_c, 0, 80, 84
1, 55604, Note_off_c, 0, 94, 43
1, 55625, Note_on_c, 0, 37, 57
1, 55653, Note_on_c, 0, 92, 78
1, 55666, Note_off_c, 0, 80, 62
1, 55670, Note_off_c, 0, 37, 64
1, 55691, Note_on_c, 0, 49, 63
1, 55724, Note_on_c, 0, 85, 71
1, 55735, Note_off_c, 0, 49, 65
1, 55793, Note_on_c, 0, 94, 81
1, 55814, Note_off_c, 0, 92, 60
1, 55837, Note_off_c, 0, 85, 50
1, 55858, Note_on_c, 0, 80, 70
1, 55903, Note_on_c, 0, 56, 49
1, 55914, Note_off_c, 0, 80, 62
1, 55929, Note_on_c, 0, 92, 76
1, 55942, Note_off_c, 0, 94, 43
1, 55977, Note_off_c, 0, 92, 66
1, 56046, Note_on_c, 0, 61, 57
1, 56157, Control_c, 0, 67, 8
1, 56171, Control_c, 0, 67, 8
1, 56186, Control_c, 0, 67, 9
1, 56201, Control_c, 0, 67, 10
1, 56260, Control_c, 0, 67, 10
1, 56275, Control_c, 0, 67, 11
1, 56305, Control_c, 0, 67, 11
1, 56315, Note_on_c, 0, 99, 66
1, 56335, Control_c, 0, 67, 12
1, 56348, Note_on_c, 0, 66, 43
1, 56350, Control_c, 0, 67, 14
1, 56364, Control_c, 0, 67, 15
1, 56379, Control_c, 0, 67, 16
1, 56385, Note_off_c, 0, 99, 67
1, 56394, Control_c, 0, 67, 19
1, 56409, Control_c, 0, 67, 22
1, 56424, Control_c, 0, 67, 26
1, 56439, Control_c, 0, 67, 30
1, 56454, Control_c, 0, 67, 32
1, 56469, Control_c, 0, 67, 33
1, 56483, Control_c, 0, 67, 35
1, 56498, Control_c, 0, 67, 38
1, 56513, Control_c, 0, 67, 43
1, 56528, Control_c, 0, 67, 47
1, 56543, Control_c, 0, 67, 51
1, 56557, Control_c, 0, 67, 52
1, 56572, Control_c, 0, 67, 54
1, 56587, Control_c, 0, 67, 56
1, 56602, Control_c, 0, 67, 58
1, 56616, Control_c, 0, 67, 60
1, 56631, Control_c, 0, 67, 61
1, 56646, Control_c, 0, 67, 62
1, 56661, Control_c, 0, 67, 64
1, 56676, Control_c, 0, 67, 67
1, 56690, Control_c, 0, 67, 69
1, 56695, Note_on_c, 0, 97, 57
1, 56705, Control_c, 0, 67, 71
1, 56720, Control_c, 0, 67, 73
1, 56735, Control_c, 0, 67, 74
1, 56750, Control_c, 0, 67, 76
1, 56764, Note_on_c, 0, 94, 65
1, 56766, Control_c, 0, 67, 78
1, 56781, Control_c, 0, 67, 81
1, 56803, Control_c, 0, 67, 82
1, 56818, Control_c, 0, 67, 84
1, 56832, Control_c, 0, 67, 85
1, 56843, Note_off_c, 0, 97, 43
1, 56847, Control_c, 0, 67, 86
1, 56862, Control_c, 0, 67, 87
1, 56877, Control_c, 0, 67, 89
1, 56884, Note_on_c, 0, 92, 60
1, 56892, Control_c, 0, 67, 90
1, 56907, Control_c, 0, 67, 91
1, 56912, Note_off_c, 0, 94, 55
1, 56921, Control_c, 0, 67, 93
1, 56936, Control_c, 0, 67, 95
1, 56951, Control_c, 0, 67, 97
1, 56966, Control_c, 0, 67, 98
1, 56981, Control_c, 0, 67, 99
1, 56995, Control_c, 0, 67, 100
1, 56996, Note_on_c, 0, 90, 68
1, 56996, Note_off_c, 0, 92, 64
1, 57010, Control_c, 0, 67, 101
1, 57025, Control_c, 0, 67, 101
1, 57027, Note_off_c, 0, 90, 67
1, 57039, Control_c, 0, 67, 102
1, 57054, Control_c, 0, 67, 103
1, 57056, Note_off_c, 0, 66, 35
1, 57069, Control_c, 0, 67, 103
1, 57076, Note_on_c, 0, 87, 74
1, 57084, Control_c, 0, 67, 104
1, 57099, Control_c, 0, 67, 104
1, 57107, Note_off_c, 0, 87, 62
1, 57113, Control_c, 0, 67, 105
1, 57153, Note_on_c, 0, 85, 75
1, 57187, Control_c, 0, 67, 105
1, 57232, Note_on_c, 0, 82, 74
1, 57244, Note_off_c, 0, 85, 65
1, 57262, Control_c, 0, 67, 105
1, 57284, Note_off_c, 0, 82, 64
1, 57306, Note_on_c, 0, 80, 78
1, 57345, Note_off_c, 0, 61, 40
1, 57351, Control_c, 0, 67, 104
1, 57356, Note_off_c, 0, 80, 57
1, 57366, Control_c, 0, 67, 104
1, 57390, Note_on_c, 0, 78, 76
1, 57415, Note_off_c, 0, 56, 62
1, 57439, Control_c, 0, 67, 103
1, 57468, Note_on_c, 0, 75, 75
1, 57469, Control_c, 0, 67, 103
1, 57484, Control_c, 0, 67, 102
1, 57512, Note_off_c, 0, 78, 64
1, 57551, Control_c, 0, 67, 102
1, 57580, Note_on_c, 0, 73, 75
1, 57594, Note_off_c, 0, 75, 66
1, 57610, Control_c, 0, 67, 102
1, 57613, Note_off_c, 0, 73, 64
1, 57658, Note_on_c, 0, 49, 51
1, 57685, Control_c, 0, 67, 103
1, 57715, Control_c, 0, 67, 103
1, 57764, Note_on_c, 0, 56, 41
1, 57789, Control_c, 0, 67, 104
1, 57804, Control_c, 0, 67, 104
1, 57848, Control_c, 0, 67, 104
1, 57892, Control_c, 0, 67, 104
1, 57907, Control_c, 0, 67, 105
1, 57911, Note_off_c, 0, 56, 0
1, 57947, Poly_aftertouch_c, 0, 56, 127
1, 57966, Control_c, 0, 67, 105
1, 57981, Control_c, 0, 67, 106
1, 58030, Note_on_c, 0, 68, 77
1, 58040, Control_c, 0, 67, 106
1, 58055, Note_on_c, 0, 63, 53
1, 58055, Control_c, 0, 67, 107
1, 58064, Note_on_c, 0, 66, 59
1, 58069, Control_c, 0, 67, 107
1, 58087, Note_on_c, 0, 59, 33
1, 58099, Control_c, 0, 67, 108
1, 58113, Poly_aftertouch_c, 0, 56, 0
1, 58129, Control_c, 0, 67, 108
1, 58144, Control_c, 0, 64, 119
1, 58150, Poly_aftertouch_c, 0, 56, 127
1, 58159, Control_c, 0, 64, 84
1, 58159, Control_c, 0, 67, 109
1, 58174, Control_c, 0, 64, 71
1, 58188, Control_c, 0, 64, 62
1, 58188, Control_c, 0, 67, 109
1, 58203, Control_c, 0, 64, 55
1, 58218, Control_c, 0, 64, 52
1, 58218, Control_c, 0, 67, 109
1, 58233, Control_c, 0, 64, 55
1, 58248, Control_c, 0, 64, 61
1, 58262, Control_c, 0, 64, 66
1, 58277, Control_c, 0, 64, 68
1, 58299, Control_c, 0, 64, 70
1, 58314, Control_c, 0, 64, 71
1, 58320, Note_off_c, 0, 66, 59
1, 58329, Control_c, 0, 64, 74
1, 58329, Control_c, 0, 67, 108
1, 58344, Control_c, 0, 64, 78
1, 58359, Control_c, 0, 64, 83
1, 58374, Control_c, 0, 64, 87
1, 58374, Control_c, 0, 67, 108
1, 58389, Control_c, 0, 64, 89
1, 58389, Control_c, 0, 67, 107
1, 58404, Control_c, 0, 64, 91
1, 58404, Control_c, 0, 67, 107
1, 58411, Note_off_c, 0, 63, 36
1, 58419, Control_c, 0, 64, 94
1, 58419, Control_c, 0, 67, 106
1, 58433, Control_c, 0, 64, 97
1, 58448, Control_c, 0, 64, 100
1, 58463, Control_c, 0, 64, 102
1, 58463, Control_c, 0, 67, 105
1, 58478, Control_c, 0, 64, 104
1, 58478, Control_c, 0, 67, 105
1, 58493, Control_c, 0, 64, 105
1, 58493, Control_c, 0, 67, 104
1, 58508, Control_c, 0, 64, 107
1, 58523, Control_c, 0, 64, 107
1, 58523, Control_c, 0, 67, 104
1, 58552, Control_c, 0, 64, 108
1, 58552, Control_c, 0, 67, 104
1, 58567, Control_c, 0, 64, 108
1, 58582, Control_c, 0, 64, 109
1, 58582, Control_c, 0, 67, 103
1, 58626, Control_c, 0, 67, 104
1, 58670, Control_c, 0, 67, 104
1, 58684, Control_c, 0, 67, 105
1, 58714, Control_c, 0, 67, 105
1, 58758, Control_c, 0, 67, 106
1, 58773, Control_c, 0, 64, 108
1, 58773, Control_c, 0, 67, 107
1, 58787, Note_on_c, 0, 70, 66
1, 58788, Control_c, 0, 67, 107
1, 58803, Control_c, 0, 64, 107
1, 58812, Note_on_c, 0, 61, 29
1, 58818, Control_c, 0, 64, 105
1, 58818, Control_c, 0, 67, 108
1, 58824, Note_on_c, 0, 65, 29
1, 58833, Control_c, 0, 64, 104
1, 58848, Control_c, 0, 64, 102
1, 58848, Control_c, 0, 67, 108
1, 58862, Control_c, 0, 64, 99
1, 58877, Control_c, 0, 64, 95
1, 58892, Control_c, 0, 64, 91
1, 58907, Control_c, 0, 64, 87
1, 58907, Control_c, 0, 67, 109
1, 58922, Control_c, 0, 64, 84
1, 58937, Control_c, 0, 64, 81
1, 58937, Control_c, 0, 67, 109
1, 58952, Control_c, 0, 64, 79
1, 58966, Control_c, 0, 64, 76
1, 58966, Control_c, 0, 67, 110
1, 58981, Control_c, 0, 64, 73
1, 58991, Note_off_c, 0, 68, 37
1, 58996, Control_c, 0, 64, 70
1, 58996, Control_c, 0, 67, 111
1, 59010, Control_c, 0, 64, 67
1, 59010, Control_c, 0, 67, 112
1, 59025, Control_c, 0, 64, 65
1, 59047, Control_c, 0, 64, 63
1, 59062, Control_c, 0, 64, 60
1, 59062, Control_c, 0, 67, 113
1, 59077, Control_c, 0, 64, 57
1, 59092, Control_c, 0, 64, 54
1, 59107, Control_c, 0, 64, 52
1, 59122, Control_c, 0, 64, 51
1, 59137, Control_c, 0, 64, 50
1, 59152, Control_c, 0, 64, 50
1, 59167, Control_c, 0, 64, 52
1, 59181, Control_c, 0, 64, 55
1, 59196, Control_c, 0, 64, 57
1, 59211, Control_c, 0, 64, 59
1, 59226, Control_c, 0, 64, 61
1, 59241, Control_c, 0, 64, 62
1, 59256, Control_c, 0, 64, 63
1, 59271, Control_c, 0, 64, 65
1, 59286, Control_c, 0, 64, 66
1, 59286, Control_c, 0, 67, 112
1, 59301, Control_c, 0, 64, 67
1, 59315, Control_c, 0, 64, 68
1, 59319, Note_off_c, 0, 49, 38
1, 59320, Poly_aftertouch_c, 0, 56, 0
1, 59330, Control_c, 0, 64, 70
1, 59345, Control_c, 0, 64, 71
1, 59360, Control_c, 0, 64, 72
1, 59375, Control_c, 0, 64, 74
1, 59390, Control_c, 0, 64, 75
1, 59405, Control_c, 0, 64, 76
1, 59420, Control_c, 0, 64, 77
1, 59434, Control_c, 0, 64, 78
1, 59464, Control_c, 0, 64, 78
1, 59479, Control_c, 0, 64, 79
1, 59489, Note_off_c, 0, 59, 38
1, 59502, Note_on_c, 0, 68, 56
1, 59509, Note_off_c, 0, 61, 41
1, 59523, Control_c, 0, 67, 113
1, 59531, Note_off_c, 0, 65, 39
1, 59572, Note_off_c, 0, 70, 36
1, 59599, Note_on_c, 0, 66, 58
1, 59612, Control_c, 0, 67, 113
1, 59627, Control_c, 0, 64, 79
1, 59641, Control_c, 0, 64, 78
1, 59641, Control_c, 0, 67, 114
1, 59643, Note_on_c, 0, 58, 41
1, 59649, Note_on_c, 0, 54, 40
1, 59656, Note_off_c, 0, 68, 58
1, 59656, Control_c, 0, 64, 76
1, 59656, Control_c, 0, 67, 114
1, 59671, Control_c, 0, 64, 74
1, 59671, Control_c, 0, 67, 116
1, 59686, Control_c, 0, 64, 69
1, 59686, Control_c, 0, 67, 116
1, 59701, Control_c, 0, 64, 62
1, 59701, Control_c, 0, 67, 118
1, 59715, Control_c, 0, 64, 52
1, 59715, Control_c, 0, 67, 118
1, 59730, Control_c, 0, 64, 38
1, 59730, Control_c, 0, 67, 119
1, 59745, Control_c, 0, 64, 26
1, 59745, Control_c, 0, 67, 119
1, 59760, Control_c, 0, 64, 25
1, 59775, Control_c, 0, 64, 36
1, 59775, Control_c, 0, 67, 120
1, 59797, Control_c, 0, 64, 50
1, 59797, Control_c, 0, 67, 120
1, 59812, Control_c, 0, 64, 58
1, 59827, Control_c, 0, 64, 62
1, 59841, Control_c, 0, 64, 65
1, 59856, Control_c, 0, 64, 67
1, 59871, Control_c, 0, 64, 71
1, 59876, Note_off_c, 0, 66, 64
1, 59886, Control_c, 0, 64, 75
1, 59901, Control_c, 0, 64, 79
1, 59915, Control_c, 0, 64, 82
1, 59930, Control_c, 0, 64, 84
1, 59945, Control_c, 0, 64, 87
1, 59961, Control_c, 0, 64, 90
1, 59976, Control_c, 0, 64, 93
1, 59991, Control_c, 0, 64, 94
1, 60006, Control_c, 0, 64, 96
1, 60020, Control_c, 0, 64, 97
1, 60022, Note_off_c, 0, 58, 49
1, 60035, Control_c, 0, 64, 100
1, 60050, Control_c, 0, 64, 103
1, 60050, Control_c, 0, 67, 121
1, 60056, Note_on_c, 0, 61, 48
1, 60064, Control_c, 0, 64, 108
1, 60079, Control_c, 0, 64, 111
1, 60079, Control_c, 0, 67, 122
1, 60094, Control_c, 0, 64, 116
1, 60094, Control_c, 0, 67, 122
1, 60104, Note_off_c, 0, 61, 49
1, 60109, Control_c, 0, 64, 122
1, 60124, Control_c, 0, 64, 127
1, 60183, Control_c, 0, 67, 122
1, 60198, Control_c, 0, 67, 121
1, 60302, Control_c, 0, 64, 109
1, 60317, Control_c, 0, 64, 95
1, 60331, Note_on_c, 0, 92, 74
1, 60331, Control_c, 0, 64, 84
1, 60335, Note_on_c, 0, 68, 59
1, 60344, Note_on_c, 0, 59, 41
1, 60346, Control_c, 0, 64, 75
1, 60361, Control_c, 0, 64, 69
1, 60365, Note_off_c, 0, 68, 52
1, 60376, Control_c, 0, 64, 66
1, 60380, Note_off_c, 0, 92, 64
1, 60391, Control_c, 0, 64, 67
1, 60393, Note_on_c, 0, 94, 79
1, 60405, Control_c, 0, 64, 69
1, 60420, Control_c, 0, 64, 71
1, 60435, Control_c, 0, 64, 74
1, 60450, Control_c, 0, 64, 77
1, 60450, Control_c, 0, 67, 121
1, 60459, Note_on_c, 0, 92, 76
1, 60464, Control_c, 0, 64, 81
1, 60466, Note_off_c, 0, 94, 63
1, 60468, Note_off_c, 0, 59, 33
1, 60479, Control_c, 0, 64, 84
1, 60494, Control_c, 0, 64, 88
1, 60509, Control_c, 0, 64, 92
1, 60509, Control_c, 0, 67, 120
1, 60511, Note_off_c, 0, 92, 67
1, 60512, Note_on_c, 0, 56, 52
1, 60521, Note_on_c, 0, 65, 57
1, 60524, Control_c, 0, 64, 94
1, 60524, Control_c, 0, 67, 119
1, 60545, Note_on_c, 0, 85, 69
1, 60546, Control_c, 0, 64, 98
1, 60546, Control_c, 0, 67, 119
1, 60561, Control_c, 0, 64, 104
1, 60561, Control_c, 0, 67, 118
1, 60567, Note_off_c, 0, 65, 63
1, 60576, Control_c, 0, 64, 110
1, 60576, Note_off_c, 0, 85, 65
1, 60579, Note_off_c, 0, 56, 55
1, 60590, Control_c, 0, 64, 115
1, 60603, Note_on_c, 0, 97, 71
1, 60605, Control_c, 0, 64, 119
1, 60620, Control_c, 0, 64, 127
1, 60632, Note_off_c, 0, 97, 68
1, 60635, Control_c, 0, 67, 118
1, 60642, Note_off_c, 0, 54, 41
1, 60650, Control_c, 0, 67, 117
1, 60675, Note_on_c, 0, 85, 72
1, 60694, Control_c, 0, 67, 118
1, 60701, Note_off_c, 0, 85, 67
1, 60737, Note_on_c, 0, 66, 57
1, 60738, Control_c, 0, 67, 118
1, 60744, Note_on_c, 0, 54, 57
1, 60744, Note_on_c, 0, 58, 52
1, 60753, Control_c, 0, 64, 103
1, 60753, Control_c, 0, 67, 119
1, 60759, Poly_aftertouch_c, 0, 85, 127
1, 60769, Control_c, 0, 64, 89
1, 60773, Poly_aftertouch_c, 0, 85, 0
1, 60784, Control_c, 0, 64, 79
1, 60796, Note_on_c, 0, 87, 65
1, 60799, Control_c, 0, 64, 73
1, 60814, Control_c, 0, 64, 69
1, 60814, Control_c, 0, 67, 119
1, 60826, Note_off_c, 0, 66, 53
1, 60829, Control_c, 0, 64, 68
1, 60829, Control_c, 0, 67, 120
1, 60842, Control_c, 0, 67, 121
1, 60853, Note_on_c, 0, 85, 71
1, 60859, Note_off_c, 0, 87, 65
1, 60886, Control_c, 0, 64, 67
1, 60886, Control_c, 0, 67, 121
1, 60892, Note_off_c, 0, 58, 64
1, 60901, Control_c, 0, 64, 65
1, 60903, Note_off_c, 0, 85, 64
1, 60916, Control_c, 0, 64, 62
1, 60916, Control_c, 0, 67, 122
1, 60929, Note_on_c, 0, 61, 51
1, 60931, Control_c, 0, 64, 59
1, 60931, Control_c, 0, 67, 123
1, 60934, Note_on_c, 0, 78, 67
1, 60946, Control_c, 0, 64, 57
1, 60960, Control_c, 0, 64, 56
1, 60960, Control_c, 0, 67, 123
1, 60963, Note_off_c, 0, 78, 64
1, 60975, Control_c, 0, 64, 55
1, 60990, Control_c, 0, 64, 53
1, 60994, Note_on_c, 0, 90, 68
1, 61005, Control_c, 0, 64, 51
1, 61005, Control_c, 0, 67, 124
1, 61020, Control_c, 0, 67, 124
1, 61023, Note_off_c, 0, 90, 67
1, 61034, Control_c, 0, 64, 55
1, 61049, Control_c, 0, 64, 60
1, 61059, Note_on_c, 0, 78, 68
1, 61064, Control_c, 0, 64, 63
1, 61079, Control_c, 0, 64, 61
1, 61093, Control_c, 0, 64, 55
1, 61093, Control_c, 0, 67, 125
1, 61108, Control_c, 0, 64, 46
1, 61108, Control_c, 0, 67, 125
1, 61111, Note_off_c, 0, 61, 55
1, 61112, Note_on_c, 0, 80, 66
1, 61115, Note_off_c, 0, 78, 61
1, 61123, Note_on_c, 0, 68, 51
1, 61123, Control_c, 0, 64, 33
1, 61123, Control_c, 0, 67, 126
1, 61134, Note_on_c, 0, 59, 45
1, 61138, Control_c, 0, 64, 21
1, 61152, Control_c, 0, 64, 15
1, 61152, Control_c, 0, 67, 126
1, 61161, Note_off_c, 0, 80, 59
1, 61167, Control_c, 0, 64, 14
1, 61167, Control_c, 0, 67, 127
1, 61180, Note_on_c, 0, 82, 66
1, 61181, Note_off_c, 0, 68, 63
1, 61211, Control_c, 0, 64, 13
1, 61226, Control_c, 0, 64, 8
1, 61229, Note_off_c, 0, 82, 65
1, 61241, Control_c, 0, 64, 0
1, 61249, Note_on_c, 0, 80, 66
1, 61278, Control_c, 0, 64, 13
1, 61280, Note_off_c, 0, 59, 61
1, 61293, Control_c, 0, 64, 24
1, 61298, Note_off_c, 0, 80, 57
1, 61308, Control_c, 0, 64, 34
1, 61308, Control_c, 0, 67, 127
1, 61323, Note_on_c, 0, 73, 58
1, 61323, Control_c, 0, 64, 41
1, 61323, Control_c, 0, 67, 126
1, 61327, Note_on_c, 0, 56, 51
1, 61327, Note_on_c, 0, 65, 46
1, 61338, Control_c, 0, 64, 46
1, 61338, Control_c, 0, 67, 126
1, 61353, Control_c, 0, 64, 52
1, 61353, Control_c, 0, 67, 125
1, 61360, Note_off_c, 0, 65, 60
1, 61367, Control_c, 0, 64, 56
1, 61367, Control_c, 0, 67, 124
1, 61379, Note_off_c, 0, 56, 59
1, 61382, Control_c, 0, 64, 59
1, 61382, Control_c, 0, 67, 124
1, 61393, Note_off_c, 0, 54, 48
1, 61397, Control_c, 0, 64, 61
1, 61397, Control_c, 0, 67, 123
1, 61411, Control_c, 0, 64, 63
1, 61426, Control_c, 0, 64, 65
1, 61426, Control_c, 0, 67, 123
1, 61441, Control_c, 0, 64, 68
1, 61456, Control_c, 0, 64, 71
1, 61456, Control_c, 0, 67, 122
1, 61471, Control_c, 0, 64, 72
1, 61471, Control_c, 0, 67, 121
1, 61501, Control_c, 0, 64, 71
1, 61515, Control_c, 0, 64, 67
1, 61515, Control_c, 0, 67, 121
1, 61521, Note_off_c, 0, 73, 52
1, 61530, Control_c, 0, 64, 62
1, 61545, Control_c, 0, 64, 55
1, 61545, Control_c, 0, 67, 120
1, 61548, Note_on_c, 0, 58, 47
1, 61549, Note_on_c, 0, 54, 44
1, 61551, Note_on_c, 0, 66, 48
1, 61561, Control_c, 0, 64, 51
1, 61561, Control_c, 0, 67, 120
1, 61576, Control_c, 0, 64, 50
1, 61590, Control_c, 0, 64, 52
1, 61590, Control_c, 0, 67, 119
1, 61605, Control_c, 0, 64, 56
1, 61605, Control_c, 0, 67, 119
1, 61614, Note_on_c, 0, 78, 61
1, 61620, Control_c, 0, 64, 62
1, 61620, Control_c, 0, 67, 118
1, 61635, Control_c, 0, 64, 69
1, 61635, Control_c, 0, 67, 116
1, 61641, Note_off_c, 0, 66, 60
1, 61650, Control_c, 0, 64, 79
1, 61650, Control_c, 0, 67, 115
1, 61652, Note_off_c, 0, 58, 62
1, 61661, Note_on_c, 0, 80, 66
1, 61664, Control_c, 0, 64, 90
1, 61679, Note_off_c, 0, 54, 63
1, 61679, Control_c, 0, 64, 93
1, 61687, Note_off_c, 0, 78, 63
1, 61694, Control_c, 0, 67, 115
1, 61709, Control_c, 0, 67, 114
1, 61724, Control_c, 0, 67, 114
1, 61727, Note_off_c, 0, 80, 63
1, 61739, Control_c, 0, 64, 91
1, 61739, Note_on_c, 0, 82, 68
1, 61754, Control_c, 0, 64, 85
1, 61754, Control_c, 0, 67, 114
1, 61769, Control_c, 0, 64, 77
1, 61769, Control_c, 0, 67, 115
1, 61783, Control_c, 0, 64, 70
1, 61783, Control_c, 0, 67, 115
1, 61796, Note_off_c, 0, 82, 63
1, 61796, Note_on_c, 0, 80, 66
1, 61798, Control_c, 0, 64, 66
1, 61813, Control_c, 0, 64, 62
1, 61813, Control_c, 0, 67, 115
1, 61827, Control_c, 0, 64, 58
1, 61842, Control_c, 0, 64, 53
1, 61842, Control_c, 0, 67, 115
1, 61854, Note_off_c, 0, 80, 62
1, 61857, Control_c, 0, 64, 44
1, 61857, Control_c, 0, 67, 116
1, 61862, Note_on_c, 0, 78, 64
1, 61872, Control_c, 0, 64, 32
1, 61887, Control_c, 0, 64, 27
1, 61887, Control_c, 0, 67, 115
1, 61901, Control_c, 0, 64, 28
1, 61901, Control_c, 0, 67, 115
1, 61905, Note_off_c, 0, 78, 63
1, 61916, Control_c, 0, 64, 36
1, 61916, Control_c, 0, 67, 114
1, 61931, Control_c, 0, 64, 47
1, 61931, Control_c, 0, 67, 113
1, 61939, Note_on_c, 0, 63, 55
1, 61940, Note_on_c, 0, 73, 64
1, 61941, Note_on_c, 0, 53, 49
1, 61946, Control_c, 0, 64, 55
1, 61946, Control_c, 0, 67, 110
1, 61950, Note_on_c, 0, 59, 40
1, 61961, Control_c, 0, 64, 59
1, 61961, Control_c, 0, 67, 106
1, 61975, Control_c, 0, 64, 61
1, 61975, Control_c, 0, 67, 105
1, 61981, Note_off_c, 0, 73, 60
1, 61986, Note_off_c, 0, 63, 63
1, 61990, Control_c, 0, 64, 62
1, 61990, Control_c, 0, 67, 104
1, 61999, Note_off_c, 0, 53, 59
1, 62005, Control_c, 0, 64, 64
1, 62017, Note_off_c, 0, 59, 60
1, 62027, Control_c, 0, 64, 66
1, 62031, Note_on_c, 0, 80, 60
1, 62042, Control_c, 0, 64, 71
1, 62042, Control_c, 0, 67, 104
1, 62057, Control_c, 0, 64, 81
1, 62057, Control_c, 0, 67, 103
1, 62072, Control_c, 0, 64, 95
1, 62072, Control_c, 0, 67, 101
1, 62080, Note_on_c, 0, 85, 71
1, 62087, Control_c, 0, 64, 103
1, 62087, Control_c, 0, 67, 101
1, 62100, Note_off_c, 0, 80, 62
1, 62102, Control_c, 0, 64, 103
1, 62102, Control_c, 0, 67, 100
1, 62116, Control_c, 0, 67, 99
1, 62130, Note_on_c, 0, 49, 67
1, 62131, Control_c, 0, 64, 103
1, 62131, Control_c, 0, 67, 96
1, 62141, Note_on_c, 0, 61, 64
1, 62142, Note_off_c, 0, 85, 63
1, 62146, Control_c, 0, 64, 101
1, 62146, Control_c, 0, 67, 95
1, 62161, Control_c, 0, 64, 94
1, 62164, Note_on_c, 0, 87, 72
1, 62175, Control_c, 0, 64, 85
1, 62175, Control_c, 0, 67, 95
1, 62177, Note_off_c, 0, 49, 59
1, 62190, Control_c, 0, 64, 78
1, 62190, Control_c, 0, 67, 97
1, 62197, Note_off_c, 0, 61, 61
1, 62205, Control_c, 0, 64, 72
1, 62218, Note_on_c, 0, 85, 77
1, 62220, Control_c, 0, 64, 67
1, 62223, Note_off_c, 0, 87, 64
1, 62234, Control_c, 0, 64, 61
1, 62249, Control_c, 0, 64, 52
1, 62249, Control_c, 0, 67, 96
1, 62264, Control_c, 0, 64, 39
1, 62264, Control_c, 0, 67, 96
1, 62273, Note_on_c, 0, 80, 58
1, 62279, Control_c, 0, 64, 25
1, 62279, Control_c, 0, 67, 95
1, 62294, Control_c, 0, 64, 23
1, 62294, Control_c, 0, 67, 94
1, 62296, Note_off_c, 0, 80, 63
1, 62296, Note_off_c, 0, 85, 64
1, 62308, Control_c, 0, 64, 26
1, 62308, Control_c, 0, 67, 93
1, 62323, Control_c, 0, 64, 33
1, 62323, Control_c, 0, 67, 91
1, 62333, Note_on_c, 0, 78, 76
1, 62334, Note_on_c, 0, 54, 64
1, 62338, Control_c, 0, 64, 41
1, 62338, Control_c, 0, 67, 88
1, 62346, Note_on_c, 0, 63, 65
1, 62353, Note_on_c, 0, 58, 58
1, 62354, Control_c, 0, 64, 50
1, 62354, Control_c, 0, 67, 87
1, 62369, Control_c, 0, 64, 56
1, 62369, Control_c, 0, 67, 85
1, 62372, Note_off_c, 0, 78, 60
1, 62377, Note_off_c, 0, 54, 62
1, 62380, Note_off_c, 0, 63, 64
1, 62384, Control_c, 0, 64, 60
1, 62384, Control_c, 0, 67, 83
1, 62399, Control_c, 0, 64, 61
1, 62399, Control_c, 0, 67, 82
1, 62413, Control_c, 0, 64, 62
1, 62413, Control_c, 0, 67, 82
1, 62414, Note_on_c, 0, 85, 74
1, 62428, Control_c, 0, 64, 64
1, 62428, Control_c, 0, 67, 81
1, 62434, Note_off_c, 0, 58, 58
1, 62443, Control_c, 0, 64, 68
1, 62443, Control_c, 0, 67, 79
1, 62454, Note_on_c, 0, 90, 78
1, 62457, Control_c, 0, 64, 78
1, 62457, Control_c, 0, 67, 77
1, 62472, Control_c, 0, 64, 99
1, 62472, Control_c, 0, 67, 74
1, 62487, Control_c, 0, 64, 127
1, 62487, Control_c, 0, 67, 72
1, 62493, Note_off_c, 0, 85, 61
1, 62502, Control_c, 0, 67, 69
1, 62517, Control_c, 0, 67, 63
1, 62523, Note_off_c, 0, 90, 66
1, 62527, Note_on_c, 0, 49, 72
1, 62532, Control_c, 0, 67, 57
1, 62532, Note_on_c, 0, 61, 66
1, 62547, Note_on_c, 0, 92, 77
1, 62547, Control_c, 0, 67, 51
1, 62562, Control_c, 0, 64, 87
1, 62562, Control_c, 0, 67, 46
1, 62577, Control_c, 0, 64, 67
1, 62577, Control_c, 0, 67, 44
1, 62585, Note_off_c, 0, 61, 56
1, 62592, Control_c, 0, 64, 55
1, 62593, Note_off_c, 0, 49, 58
1, 62597, Note_on_c, 0, 90, 74
1, 62603, Note_off_c, 0, 92, 63
1, 62606, Control_c, 0, 64, 39
1, 62621, Control_c, 0, 64, 0
1, 62621, Control_c, 0, 67, 43
1, 62645, Note_on_c, 0, 87, 64
1, 62674, Note_off_c, 0, 90, 66
1, 62675, Note_off_c, 0, 87, 68
1, 62695, Control_c, 0, 64, 32
1, 62710, Control_c, 0, 64, 52
1, 62710, Control_c, 0, 67, 44
1, 62717, Note_on_c, 0, 85, 70
1, 62722, Note_on_c, 0, 53, 50
1, 62724, Note_on_c, 0, 63, 64
1, 62724, Control_c, 0, 64, 61
1, 62724, Control_c, 0, 67, 45
1, 62727, Note_on_c, 0, 59, 51
1, 62739, Control_c, 0, 64, 64
1, 62739, Control_c, 0, 67, 47
1, 62754, Control_c, 0, 64, 65
1, 62754, Control_c, 0, 67, 49
1, 62767, Note_off_c, 0, 63, 59
1, 62769, Control_c, 0, 64, 67
1, 62769, Control_c, 0, 67, 49
1, 62770, Note_off_c, 0, 85, 62
1, 62791, Control_c, 0, 64, 72
1, 62797, Note_off_c, 0, 53, 59
1, 62801, Note_on_c, 0, 92, 77
1, 62806, Control_c, 0, 64, 77
1, 62806, Control_c, 0, 67, 50
1, 62812, Note_off_c, 0, 59, 60
1, 62821, Control_c, 0, 64, 82
1, 62821, Control_c, 0, 67, 51
1, 62836, Control_c, 0, 64, 84
1, 62836, Control_c, 0, 67, 53
1, 62851, Control_c, 0, 64, 86
1, 62851, Control_c, 0, 67, 54
1, 62852, Note_on_c, 0, 97, 80
1, 62865, Control_c, 0, 64, 89
1, 62865, Control_c, 0, 67, 54
1, 62880, Control_c, 0, 64, 94
1, 62895, Control_c, 0, 64, 99
1, 62895, Control_c, 0, 67, 55
1, 62909, Note_off_c, 0, 92, 53
1, 62910, Control_c, 0, 64, 103
1, 62910, Control_c, 0, 67, 55
1, 62916, Note_off_c, 0, 97, 66
1, 62924, Control_c, 0, 64, 107
1, 62924, Control_c, 0, 67, 56
1, 62933, Note_on_c, 0, 49, 63
1, 62934, Note_on_c, 0, 99, 77
1, 62937, Note_on_c, 0, 61, 62
1, 62939, Control_c, 0, 64, 111
1, 62939, Control_c, 0, 67, 57
1, 62954, Control_c, 0, 64, 116
1, 62954, Control_c, 0, 67, 57
1, 62964, Note_off_c, 0, 49, 65
1, 62969, Control_c, 0, 64, 124
1, 62981, Note_off_c, 0, 61, 60
1, 62984, Control_c, 0, 64, 127
1, 62984, Control_c, 0, 67, 58
1, 62992, Note_on_c, 0, 97, 66
1, 62997, Note_off_c, 0, 99, 66
1, 63013, Control_c, 0, 67, 58
1, 63028, Control_c, 0, 67, 59
1, 63043, Control_c, 0, 67, 61
1, 63046, Note_on_c, 0, 92, 74
1, 63057, Control_c, 0, 67, 64
1, 63072, Note_off_c, 0, 97, 65
1, 63072, Control_c, 0, 67, 65
1, 63097, Note_off_c, 0, 92, 65
1, 63132, Control_c, 0, 67, 65
1, 63143, Note_on_c, 0, 90, 74
1, 63147, Control_c, 0, 67, 66
1, 63149, Note_on_c, 0, 66, 68
1, 63152, Note_on_c, 0, 58, 64
1, 63158, Note_on_c, 0, 54, 63
1, 63178, Control_c, 0, 64, 112
1, 63178, Control_c, 0, 67, 65
1, 63192, Note_off_c, 0, 90, 53
1, 63193, Control_c, 0, 64, 96
1, 63207, Note_on_c, 0, 92, 71
1, 63208, Control_c, 0, 64, 84
1, 63208, Control_c, 0, 67, 66
1, 63223, Control_c, 0, 64, 71
1, 63237, Control_c, 0, 64, 62
1, 63252, Control_c, 0, 64, 53
1, 63252, Control_c, 0, 67, 65
1, 63267, Control_c, 0, 64, 49
1, 63267, Control_c, 0, 67, 65
1, 63271, Note_on_c, 0, 90, 68
1, 63277, Note_off_c, 0, 92, 64
1, 63280, Note_off_c, 0, 66, 60
1, 63281, Control_c, 0, 64, 53
1, 63281, Control_c, 0, 67, 64
1, 63296, Control_c, 0, 64, 59
1, 63296, Control_c, 0, 67, 64
1, 63309, Note_off_c, 0, 90, 60
1, 63311, Control_c, 0, 64, 64
1, 63311, Control_c, 0, 67, 63
1, 63326, Control_c, 0, 64, 67
1, 63326, Control_c, 0, 67, 62
1, 63328, Note_on_c, 0, 85, 78
1, 63340, Note_on_c, 0, 61, 84
1, 63341, Control_c, 0, 64, 71
1, 63355, Control_c, 0, 64, 77
1, 63355, Control_c, 0, 67, 61
1, 63358, Note_off_c, 0, 58, 64
1, 63364, Note_off_c, 0, 85, 60
1, 63370, Control_c, 0, 64, 83
1, 63385, Control_c, 0, 64, 87
1, 63400, Control_c, 0, 64, 88
1, 63400, Control_c, 0, 67, 61
1, 63402, Note_on_c, 0, 97, 68
1, 63415, Control_c, 0, 64, 90
1, 63429, Control_c, 0, 64, 92
1, 63429, Control_c, 0, 67, 60
1, 63431, Note_off_c, 0, 97, 67
1, 63444, Control_c, 0, 64, 96
1, 63444, Control_c, 0, 67, 61
1, 63459, Control_c, 0, 64, 102
1, 63469, Note_on_c, 0, 85, 77
1, 63474, Control_c, 0, 64, 108
1, 63489, Control_c, 0, 64, 110
1, 63495, Note_off_c, 0, 85, 67
1, 63519, Control_c, 0, 64, 109
1, 63541, Control_c, 0, 64, 105
1, 63541, Control_c, 0, 67, 62
1, 63555, Control_c, 0, 64, 92
1, 63555, Control_c, 0, 67, 62
1, 63566, Note_on_c, 0, 85, 69
1, 63568, Note_on_c, 0, 68, 78
1, 63570, Control_c, 0, 64, 79
1, 63574, Note_on_c, 0, 59, 66
1, 63585, Control_c, 0, 64, 67
1, 63600, Control_c, 0, 64, 60
1, 63600, Control_c, 0, 67, 63
1, 63614, Control_c, 0, 64, 56
1, 63614, Control_c, 0, 67, 63
1, 63620, Note_off_c, 0, 85, 63
1, 63629, Control_c, 0, 64, 57
1, 63644, Note_on_c, 0, 87, 68
1, 63644, Control_c, 0, 64, 60
1, 63653, Note_off_c, 0, 68, 64
1, 63659, Control_c, 0, 64, 63
1, 63674, Control_c, 0, 64, 65
1, 63688, Control_c, 0, 64, 68
1, 63688, Control_c, 0, 67, 63
1, 63703, Note_on_c, 0, 85, 60
1, 63703, Control_c, 0, 64, 71
1, 63703, Control_c, 0, 67, 62
1, 63705, Note_off_c, 0, 87, 64
1, 63714, Note_off_c, 0, 61, 28
1, 63718, Control_c, 0, 64, 75
1, 63718, Control_c, 0, 67, 62
1, 63733, Control_c, 0, 64, 81
1, 63733, Control_c, 0, 67, 61
1, 63736, Note_off_c, 0, 85, 66
1, 63748, Control_c, 0, 64, 86
1, 63748, Control_c, 0, 67, 61
1, 63753, Note_on_c, 0, 65, 80
1, 63753, Note_off_c, 0, 59, 64
1, 63756, Note_on_c, 0, 80, 79
1, 63757, Note_on_c, 0, 56, 77
1, 63763, Control_c, 0, 64, 89
1, 63763, Control_c, 0, 67, 60
1, 63778, Control_c, 0, 64, 93
1, 63778, Control_c, 0, 67, 60
1, 63789, Note_off_c, 0, 65, 61
1, 63793, Control_c, 0, 64, 98
1, 63793, Control_c, 0, 67, 59
1, 63802, Note_off_c, 0, 80, 63
1, 63807, Control_c, 0, 64, 106
1, 63820, Note_off_c, 0, 56, 61
1, 63822, Control_c, 0, 64, 117
1, 63823, Note_on_c, 0, 92, 79
1, 63826, Note_off_c, 0, 54, 53
1, 63837, Control_c, 0, 64, 127
1, 63852, Note_off_c, 0, 92, 66
1, 63867, Control_c, 0, 67, 59
1, 63895, Note_on_c, 0, 80, 65
1, 63896, Control_c, 0, 67, 59
1, 63911, Control_c, 0, 67, 60
1, 63912, Note_off_c, 0, 80, 65
1, 63926, Control_c, 0, 67, 61
1, 63941, Control_c, 0, 64, 78
1, 63941, Control_c, 0, 67, 62
1, 63948, Note_on_c, 0, 58, 63
1, 63948, Note_on_c, 0, 66, 63
1, 63955, Note_on_c, 0, 54, 63
1, 63957, Control_c, 0, 64, 58
1, 63957, Control_c, 0, 67, 62
1, 63960, Note_on_c, 0, 80, 69
1, 63972, Control_c, 0, 64, 0
1, 63972, Control_c, 0, 67, 63
1, 63986, Control_c, 0, 67, 64
1, 63992, Note_off_c, 0, 80, 65
1, 64001, Control_c, 0, 67, 65
1, 64010, Note_on_c, 0, 82, 64
1, 64016, Control_c, 0, 67, 66
1, 64062, Note_off_c, 0, 66, 35
1, 64064, Note_on_c, 0, 80, 77
1, 64067, Note_off_c, 0, 82, 65
1, 64105, Note_off_c, 0, 80, 60
1, 64119, Control_c, 0, 67, 65
1, 64132, Note_off_c, 0, 58, 65
1, 64144, Note_on_c, 0, 78, 66
1, 64155, Note_on_c, 0, 61, 58
1, 64164, Control_c, 0, 67, 66
1, 64180, Note_off_c, 0, 78, 60
1, 64185, Note_on_c, 0, 90, 73
1, 64237, Note_off_c, 0, 90, 65
1, 64262, Note_on_c, 0, 78, 69
1, 64304, Note_off_c, 0, 78, 64
1, 64415, Note_on_c, 0, 68, 50
1, 64426, Note_on_c, 0, 59, 36
1, 64467, Control_c, 0, 67, 66
1, 64496, Note_on_c, 0, 73, 71
1, 64497, Control_c, 0, 64, 15
1, 64511, Control_c, 0, 64, 25
1, 64526, Control_c, 0, 64, 33
1, 64541, Control_c, 0, 64, 40
1, 64556, Control_c, 0, 64, 45
1, 64571, Control_c, 0, 64, 48
1, 64586, Control_c, 0, 64, 51
1, 64590, Note_off_c, 0, 68, 52
1, 64601, Control_c, 0, 64, 55
1, 64616, Control_c, 0, 64, 58
1, 64616, Control_c, 0, 67, 67
1, 64630, Control_c, 0, 64, 59
1, 64645, Control_c, 0, 64, 61
1, 64657, Note_off_c, 0, 61, 18
1, 64660, Control_c, 0, 64, 62
1, 64660, Control_c, 0, 67, 67
1, 64675, Control_c, 0, 64, 63
1, 64675, Control_c, 0, 67, 68
1, 64690, Control_c, 0, 64, 64
1, 64690, Control_c, 0, 67, 73
1, 64704, Control_c, 0, 64, 67
1, 64704, Control_c, 0, 67, 76
1, 64719, Control_c, 0, 64, 70
1, 64719, Control_c, 0, 67, 77
1, 64734, Control_c, 0, 64, 74
1, 64750, Control_c, 0, 64, 76
1, 64750, Control_c, 0, 67, 78
1, 64765, Control_c, 0, 64, 78
1, 64765, Control_c, 0, 67, 78
1, 64780, Control_c, 0, 64, 80
1, 64780, Control_c, 0, 67, 80
1, 64794, Note_off_c, 0, 59, 42
1, 64794, Control_c, 0, 64, 84
1, 64794, Control_c, 0, 67, 83
1, 64809, Control_c, 0, 64, 87
1, 64809, Control_c, 0, 67, 85
1, 64818, Note_on_c, 0, 65, 46
1, 64823, Note_on_c, 0, 56, 51
1, 64824, Control_c, 0, 64, 90
1, 64824, Control_c, 0, 67, 86
1, 64839, Control_c, 0, 64, 92
1, 64853, Control_c, 0, 64, 92
1, 64853, Control_c, 0, 67, 86
1, 64868, Control_c, 0, 67, 87
1, 64883, Control_c, 0, 64, 94
1, 64883, Control_c, 0, 67, 89
1, 64884, Note_off_c, 0, 65, 59
1, 64893, Note_off_c, 0, 56, 52
1, 64898, Control_c, 0, 64, 98
1, 64898, Control_c, 0, 67, 91
1, 64913, Control_c, 0, 64, 100
1, 64913, Control_c, 0, 67, 91
1, 64927, Control_c, 0, 64, 101
1, 64927, Control_c, 0, 67, 92
1, 64940, Note_off_c, 0, 54, 38
1, 64957, Control_c, 0, 64, 101
1, 64957, Control_c, 0, 67, 92
1, 64972, Control_c, 0, 64, 102
1, 64987, Control_c, 0, 64, 105
1, 64987, Control_c, 0, 67, 93
1, 65001, Control_c, 0, 64, 105
1, 65001, Control_c, 0, 67, 95
1, 65016, Control_c, 0, 67, 97
1, 65039, Control_c, 0, 67, 98
1, 65057, Note_off_c, 0, 73, 61
1, 65083, Control_c, 0, 67, 99
1, 65098, Control_c, 0, 64, 105
1, 65098, Control_c, 0, 67, 100
1, 65099, Note_on_c, 0, 54, 45
1, 65109, Note_on_c, 0, 66, 53
1, 65113, Note_on_c, 0, 58, 55
1, 65113, Control_c, 0, 64, 102
1, 65113, Control_c, 0, 67, 102
1, 65127, Control_c, 0, 64, 90
1, 65127, Control_c, 0, 67, 103
1, 65142, Control_c, 0, 64, 78
1, 65157, Control_c, 0, 64, 68
1, 65172, Control_c, 0, 64, 60
1, 65182, Note_on_c, 0, 78, 63
1, 65187, Control_c, 0, 64, 55
1, 65201, Control_c, 0, 64, 53
1, 65216, Control_c, 0, 64, 58
1, 65216, Control_c, 0, 67, 102
1, 65231, Control_c, 0, 64, 63
1, 65231, Control_c, 0, 67, 101
1, 65241, Note_on_c, 0, 80, 59
1, 65246, Control_c, 0, 64, 66
1, 65246, Control_c, 0, 67, 101
1, 65257, Note_off_c, 0, 66, 35
1, 65260, Control_c, 0, 64, 68
1, 65267, Note_off_c, 0, 78, 59
1, 65275, Control_c, 0, 64, 70
1, 65287, Note_off_c, 0, 80, 59
1, 65290, Control_c, 0, 64, 72
1, 65290, Control_c, 0, 67, 100
1, 65300, Note_off_c, 0, 58, 60
1, 65304, Note_off_c, 0, 54, 62
1, 65305, Control_c, 0, 64, 76
1, 65305, Control_c, 0, 67, 99
1, 65307, Note_on_c, 0, 82, 71
1, 65311, Note_on_c, 0, 61, 54
1, 65320, Control_c, 0, 64, 79
1, 65320, Control_c, 0, 67, 98
1, 65334, Control_c, 0, 64, 83
1, 65343, Note_off_c, 0, 61, 64
1, 65349, Control_c, 0, 64, 85
1, 65349, Control_c, 0, 67, 97
1, 65364, Note_off_c, 0, 82, 64
1, 65364, Control_c, 0, 64, 87
1, 65370, Note_on_c, 0, 80, 68
1, 65379, Control_c, 0, 64, 88
1, 65379, Control_c, 0, 67, 97
1, 65394, Control_c, 0, 64, 89
1, 65394, Control_c, 0, 67, 96
1, 65408, Control_c, 0, 64, 90
1, 65408, Control_c, 0, 67, 95
1, 65423, Control_c, 0, 64, 92
1, 65437, Note_off_c, 0, 80, 62
1, 65438, Control_c, 0, 64, 93
1, 65439, Note_on_c, 0, 78, 71
1, 65482, Control_c, 0, 67, 95
1, 65497, Control_c, 0, 64, 92
1, 65508, Note_off_c, 0, 78, 62
1, 65512, Control_c, 0, 64, 85
1, 65526, Control_c, 0, 64, 77
1, 65541, Note_on_c, 0, 73, 73
1, 65542, Control_c, 0, 64, 68
1, 65552, Note_on_c, 0, 53, 46
1, 65555, Note_on_c, 0, 63, 50
1, 65557, Control_c, 0, 64, 62
1, 65557, Control_c, 0, 67, 94
1, 65563, Note_on_c, 0, 59, 46
1, 65572, Control_c, 0, 64, 57
1, 65572, Control_c, 0, 67, 94
1, 65587, Control_c, 0, 64, 58
1, 65587, Control_c, 0, 67, 93
1, 65602, Control_c, 0, 64, 62
1, 65616, Control_c, 0, 64, 65
1, 65616, Control_c, 0, 67, 92
1, 65617, Note_off_c, 0, 73, 61
1, 65625, Note_off_c, 0, 63, 62
1, 65631, Control_c, 0, 64, 67
1, 65631, Control_c, 0, 67, 92
1, 65646, Control_c, 0, 64, 69
1, 65646, Control_c, 0, 67, 91
1, 65649, Note_on_c, 0, 80, 63
1, 65661, Control_c, 0, 64, 71
1, 65661, Control_c, 0, 67, 90
1, 65665, Note_off_c, 0, 53, 50
1, 65675, Control_c, 0, 64, 73
1, 65675, Control_c, 0, 67, 90
1, 65690, Control_c, 0, 64, 78
1, 65690, Control_c, 0, 67, 89
1, 65701, Note_off_c, 0, 59, 48
1, 65702, Note_on_c, 0, 85, 59
1, 65705, Control_c, 0, 64, 82
1, 65705, Control_c, 0, 67, 87
1, 65713, Note_off_c, 0, 80, 60
1, 65720, Control_c, 0, 64, 85
1, 65720, Control_c, 0, 67, 85
1, 65735, Control_c, 0, 64, 87
1, 65735, Control_c, 0, 67, 81
1, 65749, Control_c, 0, 64, 89
1, 65749, Control_c, 0, 67, 79
1, 65755, Note_off_c, 0, 85, 58
1, 65757, Note_on_c, 0, 61, 63
1, 65758, Note_on_c, 0, 49, 62
1, 65772, Control_c, 0, 64, 90
1, 65772, Control_c, 0, 67, 79
1, 65787, Control_c, 0, 64, 92
1, 65787, Control_c, 0, 67, 78
1, 65794, Note_on_c, 0, 87, 69
1, 65802, Control_c, 0, 64, 93
1, 65802, Control_c, 0, 67, 78
1, 65804, Note_off_c, 0, 49, 63
1, 65816, Control_c, 0, 64, 96
1, 65816, Control_c, 0, 67, 77
1, 65827, Note_off_c, 0, 61, 50
1, 65831, Control_c, 0, 64, 98
1, 65831, Control_c, 0, 67, 74
1, 65835, Note_on_c, 0, 85, 75
1, 65846, Control_c, 0, 64, 100
1, 65846, Control_c, 0, 67, 71
1, 65848, Note_off_c, 0, 87, 62
1, 65861, Control_c, 0, 64, 101
1, 65861, Control_c, 0, 67, 70
1, 65875, Control_c, 0, 64, 102
1, 65890, Control_c, 0, 64, 104
1, 65890, Control_c, 0, 67, 70
1, 65897, Note_on_c, 0, 80, 74
1, 65905, Control_c, 0, 64, 105
1, 65905, Control_c, 0, 67, 69
1, 65917, Note_off_c, 0, 85, 63
1, 65920, Control_c, 0, 67, 67
1, 65935, Control_c, 0, 64, 94
1, 65935, Control_c, 0, 67, 63
1, 65940, Note_off_c, 0, 80, 63
1, 65949, Control_c, 0, 64, 76
1, 65949, Control_c, 0, 67, 58
1, 65952, Note_on_c, 0, 54, 76
1, 65954, Note_on_c, 0, 63, 89
1, 65958, Note_on_c, 0, 58, 79
1, 65963, Note_on_c, 0, 78, 79
1, 65964, Control_c, 0, 64, 62
1, 65964, Control_c, 0, 67, 54
1, 65979, Control_c, 0, 64, 45
1, 65979, Control_c, 0, 67, 50
1, 65994, Control_c, 0, 64, 31
1, 65994, Control_c, 0, 67, 45
1, 66008, Control_c, 0, 64, 39
1, 66008, Control_c, 0, 67, 40
1, 66023, Control_c, 0, 64, 56
1, 66023, Control_c, 0, 67, 36
1, 66038, Control_c, 0, 64, 65
1, 66038, Control_c, 0, 67, 32
1, 66040, Note_off_c, 0, 54, 63
1, 66047, Note_off_c, 0, 78, 61
1, 66048, Note_on_c, 0, 85, 80
1, 66049, Note_off_c, 0, 63, 63
1, 66053, Control_c, 0, 64, 69
1, 66053, Control_c, 0, 67, 28
1, 66068, Control_c, 0, 64, 73
1, 66068, Control_c, 0, 67, 24
1, 66082, Control_c, 0, 64, 78
1, 66082, Control_c, 0, 67, 20
1, 66092, Note_on_c, 0, 90, 78
1, 66097, Control_c, 0, 64, 85
1, 66097, Control_c, 0, 67, 16
1, 66112, Control_c, 0, 64, 92
1, 66112, Control_c, 0, 67, 12
1, 66126, Note_off_c, 0, 58, 64
1, 66127, Control_c, 0, 64, 98
1, 66127, Control_c, 0, 67, 0
1, 66136, Note_off_c, 0, 85, 59
1, 66142, Control_c, 0, 64, 102
1, 66155, Note_on_c, 0, 49, 74
1, 66157, Note_on_c, 0, 61, 68
1, 66157, Control_c, 0, 64, 106
1, 66159, Note_off_c, 0, 90, 66
1, 66172, Control_c, 0, 64, 115
1, 66175, Note_on_c, 0, 92, 80
1, 66186, Control_c, 0, 64, 127
1, 66213, Note_off_c, 0, 61, 61
1, 66232, Note_on_c, 0, 90, 77
1, 66236, Note_off_c, 0, 49, 56
1, 66249, Note_off_c, 0, 92, 60
1, 66285, Note_on_c, 0, 85, 80
1, 66319, Note_off_c, 0, 90, 66
1, 66335, Control_c, 0, 64, 107
1, 66342, Note_off_c, 0, 85, 64
1, 66350, Control_c, 0, 64, 73
1, 66356, Note_on_c, 0, 63, 94
1, 66362, Note_on_c, 0, 53, 78
1, 66362, Note_on_c, 0, 59, 80
1, 66364, Note_on_c, 0, 80, 87
1, 66365, Control_c, 0, 64, 54
1, 66380, Control_c, 0, 64, 23
1, 66395, Control_c, 0, 64, 19
1, 66410, Control_c, 0, 64, 35
1, 66425, Control_c, 0, 64, 54
1, 66437, Note_on_c, 0, 85, 79
1, 66439, Control_c, 0, 64, 64
1, 66454, Control_c, 0, 64, 69
1, 66461, Note_off_c, 0, 80, 61
1, 66469, Control_c, 0, 64, 74
1, 66471, Note_off_c, 0, 63, 63
1, 66484, Control_c, 0, 64, 80
1, 66497, Note_on_c, 0, 92, 84
1, 66498, Control_c, 0, 64, 86
1, 66513, Control_c, 0, 64, 91
1, 66535, Control_c, 0, 64, 96
1, 66536, Note_off_c, 0, 53, 60
1, 66539, Note_off_c, 0, 85, 62
1, 66550, Control_c, 0, 64, 102
1, 66562, Note_on_c, 0, 49, 72
1, 66565, Control_c, 0, 64, 110
1, 66574, Note_on_c, 0, 61, 79
1, 66578, Note_off_c, 0, 59, 66
1, 66580, Control_c, 0, 64, 127
1, 66591, Note_on_c, 0, 94, 85
1, 66595, Note_off_c, 0, 49, 67
1, 66597, Note_off_c, 0, 92, 66
1, 66621, Note_off_c, 0, 61, 63
1, 66656, Note_on_c, 0, 92, 71
1, 66675, Note_off_c, 0, 94, 62
1, 66717, Note_on_c, 0, 85, 83
1, 66732, Note_off_c, 0, 92, 66
1, 66743, Control_c, 0, 64, 90
1, 66758, Control_c, 0, 64, 67
1, 66771, Note_on_c, 0, 54, 69
1, 66772, Control_c, 0, 64, 47
1, 66787, Control_c, 0, 64, 20
1, 66802, Control_c, 0, 64, 25
1, 66812, Note_on_c, 0, 62, 43
1, 66817, Control_c, 0, 64, 52
1, 66821, Note_on_c, 0, 61, 79
1, 66832, Control_c, 0, 64, 67
1, 66837, Note_off_c, 0, 85, 64
1, 66841, Note_off_c, 0, 54, 64
1, 66843, Note_on_c, 0, 94, 93
1, 66847, Control_c, 0, 64, 80
1, 66862, Control_c, 0, 64, 98
1, 66866, Note_off_c, 0, 62, 50
1, 66877, Control_c, 0, 64, 127
1, 66880, Note_on_c, 0, 70, 90
1, 66902, Note_off_c, 0, 61, 64
1, 66914, Note_on_c, 0, 85, 81
1, 66917, Note_off_c, 0, 94, 64
1, 66920, Note_off_c, 0, 70, 60
1, 66977, Note_on_c, 0, 92, 77
1, 66979, Note_off_c, 0, 85, 64
1, 67012, Note_off_c, 0, 92, 65
1, 67033, Note_on_c, 0, 82, 78
1, 67085, Note_off_c, 0, 82, 57
1, 67100, Note_on_c, 0, 92, 82
1, 67140, Note_on_c, 0, 85, 77
1, 67167, Note_off_c, 0, 92, 65
1, 67215, Note_on_c, 0, 90, 78
1, 67215, Note_off_c, 0, 85, 65
1, 67239, Note_off_c, 0, 90, 68
1, 67248, Note_on_c, 0, 49, 74
1, 67252, Note_on_c, 0, 82, 75
1, 67286, Note_on_c, 0, 56, 71
1, 67292, Note_off_c, 0, 82, 63
1, 67309, Note_off_c, 0, 49, 64
1, 67319, Note_on_c, 0, 59, 66
1, 67340, Note_on_c, 0, 87, 78
1, 67342, Note_off_c, 0, 56, 62
1, 67359, Note_on_c, 0, 80, 72
1, 67376, Note_on_c, 0, 65, 69
1, 67397, Note_off_c, 0, 87, 65
1, 67408, Note_off_c, 0, 65, 61
1, 67428, Note_off_c, 0, 80, 61
1, 67433, Note_on_c, 0, 85, 78
1, 67478, Note_off_c, 0, 85, 62
1, 67504, Note_on_c, 0, 73, 71
1, 67507, Control_c, 0, 64, 98
1, 67522, Control_c, 0, 64, 65
1, 67530, Note_off_c, 0, 59, 65
1, 67531, Note_off_c, 0, 73, 66
1, 67537, Control_c, 0, 64, 35
1, 67551, Note_on_c, 0, 58, 75
1, 67552, Control_c, 0, 64, 0
1, 67555, Note_on_c, 0, 54, 83
1, 67555, Note_on_c, 0, 66, 92
1, 67567, Note_on_c, 0, 82, 84
1, 67596, Control_c, 0, 64, 34
1, 67602, Note_off_c, 0, 66, 66
1, 67611, Control_c, 0, 64, 57
1, 67612, Note_on_c, 0, 73, 75
1, 67614, Note_off_c, 0, 58, 67
1, 67617, Note_off_c, 0, 54, 65
1, 67626, Control_c, 0, 64, 65
1, 67635, Note_off_c, 0, 82, 65
1, 67641, Control_c, 0, 64, 67
1, 67655, Control_c, 0, 64, 69
1, 67670, Control_c, 0, 64, 72
1, 67678, Note_off_c, 0, 73, 63
1, 67685, Control_c, 0, 64, 77
1, 67687, Note_on_c, 0, 80, 79
1, 67700, Control_c, 0, 64, 81
1, 67714, Control_c, 0, 64, 86
1, 67729, Control_c, 0, 64, 89
1, 67733, Note_off_c, 0, 80, 61
1, 67744, Control_c, 0, 64, 92
1, 67748, Note_on_c, 0, 70, 78
1, 67759, Control_c, 0, 64, 94
1, 67774, Control_c, 0, 64, 96
1, 67781, Note_off_c, 0, 70, 60
1, 67789, Control_c, 0, 64, 97
1, 67814, Note_on_c, 0, 80, 82
1, 67855, Note_on_c, 0, 73, 70
1, 67889, Note_off_c, 0, 80, 62
1, 67913, Note_off_c, 0, 73, 65
1, 67916, Note_on_c, 0, 78, 73
1, 67936, Control_c, 0, 64, 98
1, 67944, Note_off_c, 0, 78, 67
1, 67965, Note_on_c, 0, 70, 80
1, 67979, Note_on_c, 0, 37, 71
1, 67996, Note_off_c, 0, 70, 65
1, 67997, Control_c, 0, 64, 97
1, 68030, Note_on_c, 0, 47, 76
1, 68034, Control_c, 0, 64, 97
1, 68041, Note_off_c, 0, 37, 63
1, 68047, Note_on_c, 0, 75, 78
1, 68049, Control_c, 0, 64, 94
1, 68064, Control_c, 0, 64, 91
1, 68078, Control_c, 0, 64, 87
1, 68079, Note_on_c, 0, 68, 71
1, 68093, Control_c, 0, 64, 82
1, 68108, Control_c, 0, 64, 77
1, 68109, Poly_aftertouch_c, 0, 46, 0
1, 68109, Note_on_c, 0, 53, 66
1, 68112, Note_off_c, 0, 75, 64
1, 68123, Control_c, 0, 64, 72
1, 68123, Control_c, 0, 67, 8
1, 68138, Control_c, 0, 64, 70
1, 68138, Control_c, 0, 67, 8
1, 68144, Note_off_c, 0, 68, 63
1, 68146, Note_off_c, 0, 53, 64
1, 68152, Note_on_c, 0, 73, 72
1, 68152, Control_c, 0, 64, 68
1, 68167, Control_c, 0, 64, 66
1, 68182, Control_c, 0, 64, 62
1, 68182, Control_c, 0, 67, 9
1, 68184, Note_off_c, 0, 73, 66
1, 68197, Control_c, 0, 64, 56
1, 68197, Control_c, 0, 67, 9
1, 68212, Control_c, 0, 64, 43
1, 68212, Control_c, 0, 67, 10
1, 68216, Note_off_c, 0, 47, 64
1, 68226, Control_c, 0, 64, 0
1, 68228, Note_on_c, 0, 61, 75
1, 68258, Note_off_c, 0, 61, 65
1, 68285, Control_c, 0, 67, 10
1, 68292, Note_on_c, 0, 46, 64
1, 68294, Note_on_c, 0, 54, 65
1, 68295, Note_on_c, 0, 42, 55
1, 68300, Note_on_c, 0, 70, 73
1, 68330, Control_c, 0, 64, 20
1, 68337, Note_on_c, 0, 61, 70
1, 68345, Control_c, 0, 64, 41
1, 68360, Control_c, 0, 64, 53
1, 68361, Note_off_c, 0, 70, 63
1, 68374, Control_c, 0, 64, 60
1, 68377, Note_off_c, 0, 54, 65
1, 68380, Note_off_c, 0, 46, 65
1, 68389, Control_c, 0, 64, 64
1, 68392, Note_off_c, 0, 42, 62
1, 68404, Control_c, 0, 64, 65
1, 68404, Control_c, 0, 67, 10
1, 68407, Note_off_c, 0, 61, 62
1, 68417, Note_on_c, 0, 68, 73
1, 68419, Control_c, 0, 64, 66
1, 68434, Control_c, 0, 64, 68
1, 68449, Control_c, 0, 64, 70
1, 68459, Note_off_c, 0, 68, 62
1, 68464, Control_c, 0, 64, 73
1, 68464, Control_c, 0, 67, 9
1, 68478, Control_c, 0, 64, 75
1, 68485, Note_on_c, 0, 58, 71
1, 68493, Control_c, 0, 64, 75
1, 68517, Note_off_c, 0, 58, 64
1, 68547, Note_on_c, 0, 68, 83
1, 68589, Note_on_c, 0, 61, 66
1, 68611, Control_c, 0, 64, 76
1, 68616, Note_off_c, 0, 68, 64
1, 68626, Control_c, 0, 64, 77
1, 68641, Control_c, 0, 64, 79
1, 68654, Note_on_c, 0, 66, 78
1, 68655, Note_off_c, 0, 61, 64
1, 68656, Control_c, 0, 64, 80
1, 68670, Control_c, 0, 64, 80
1, 68670, Control_c, 0, 67, 9
1, 68679, Note_off_c, 0, 66, 67
1, 68708, Note_on_c, 0, 58, 75
1, 68735, Note_off_c, 0, 58, 68
1, 68761, Control_c, 0, 64, 80
1, 68783, Control_c, 0, 64, 79
1, 68786, Note_on_c, 0, 63, 79
1, 68798, Control_c, 0, 64, 75
1, 68813, Control_c, 0, 64, 69
1, 68814, Note_on_c, 0, 37, 82
1, 68821, Note_on_c, 0, 56, 56
1, 68827, Control_c, 0, 64, 60
1, 68842, Control_c, 0, 64, 46
1, 68849, Note_off_c, 0, 63, 64
1, 68857, Control_c, 0, 64, 19
1, 68860, Note_on_c, 0, 61, 74
1, 68872, Control_c, 0, 64, 0
1, 68876, Note_off_c, 0, 56, 58
1, 68880, Poly_aftertouch_c, 0, 58, 0
1, 68909, Note_off_c, 0, 61, 63
1, 68931, Control_c, 0, 64, 16
1, 68937, Note_on_c, 0, 49, 69
1, 68946, Control_c, 0, 64, 43
1, 68946, Control_c, 0, 67, 8
1, 68961, Control_c, 0, 64, 63
1, 68961, Control_c, 0, 67, 8
1, 68962, Note_off_c, 0, 49, 65
1, 68975, Control_c, 0, 64, 76
1, 68975, Control_c, 0, 67, 0
1, 68990, Control_c, 0, 64, 91
1, 68995, Note_on_c, 0, 58, 68
1, 68997, Note_on_c, 0, 42, 87
1, 68999, Note_on_c, 0, 30, 83
1, 69005, Control_c, 0, 64, 99
1, 69015, Note_off_c, 0, 37, 61
1, 69024, Note_off_c, 0, 42, 67
1, 69025, Note_off_c, 0, 30, 66
1, 69033, Note_off_c, 0, 58, 66
1, 69034, Control_c, 0, 64, 93
1, 69049, Control_c, 0, 64, 81
1, 69064, Control_c, 0, 64, 68
1, 69070, Note_on_c, 0, 54, 74
1, 69078, Control_c, 0, 64, 54
1, 69093, Control_c, 0, 64, 33
1, 69100, Note_off_c, 0, 54, 68
1, 69108, Control_c, 0, 64, 12
1, 69123, Control_c, 0, 64, 10
1, 69129, Note_on_c, 0, 63, 76
1, 69138, Control_c, 0, 64, 18
1, 69152, Control_c, 0, 64, 18
1, 69167, Note_off_c, 0, 63, 63
1, 69167, Control_c, 0, 64, 9
1, 69182, Control_c, 0, 64, 0
1, 69185, Note_on_c, 0, 37, 97
1, 69199, Note_on_c, 0, 49, 72
1, 69214, Note_off_c, 0, 37, 68
1, 69230, Note_off_c, 0, 49, 65
1, 69256, Control_c, 0, 64, 17
1, 69269, Note_on_c, 0, 61, 64
1, 69271, Control_c, 0, 64, 31
1, 69286, Control_c, 0, 64, 47
1, 69293, Note_on_c, 0, 56, 63
1, 69300, Control_c, 0, 64, 57
1, 69315, Control_c, 0, 64, 59
1, 69330, Control_c, 0, 64, 54
1, 69333, Note_off_c, 0, 61, 60
1, 69345, Control_c, 0, 64, 40
1, 69360, Control_c, 0, 64, 0
1, 69365, Note_on_c, 0, 58, 58
1, 69376, Note_on_c, 0, 42, 94
1, 69379, Note_off_c, 0, 56, 63
1, 69381, Note_on_c, 0, 30, 91
1, 69399, Note_off_c, 0, 42, 70
1, 69407, Note_off_c, 0, 30, 68
1, 69431, Note_off_c, 0, 58, 65
1, 69445, Note_on_c, 0, 54, 56
1, 69470, Note_off_c, 0, 54, 60
1, 69492, Note_on_c, 0, 63, 77
1, 69555, Note_off_c, 0, 63, 64
1, 69561, Control_c, 0, 67, 8
1, 69576, Control_c, 0, 67, 9
1, 69585, Note_on_c, 0, 37, 81
1, 69591, Control_c, 0, 67, 9
1, 69596, Note_on_c, 0, 49, 66
1, 69615, Note_off_c, 0, 37, 68
1, 69632, Note_off_c, 0, 49, 63
1, 69642, Note_on_c, 0, 61, 60
1, 69704, Note_on_c, 0, 56, 64
1, 69718, Note_off_c, 0, 61, 58
1, 69738, Control_c, 0, 64, 32
1, 69753, Control_c, 0, 64, 51
1, 69768, Control_c, 0, 64, 58
1, 69771, Note_on_c, 0, 58, 73
1, 69779, Note_on_c, 0, 42, 78
1, 69783, Control_c, 0, 64, 62
1, 69784, Note_on_c, 0, 30, 68
1, 69796, Note_off_c, 0, 56, 63
1, 69797, Control_c, 0, 64, 64
1, 69802, Note_off_c, 0, 42, 66
1, 69808, Note_off_c, 0, 58, 65
1, 69812, Control_c, 0, 64, 65
1, 69813, Note_off_c, 0, 30, 62
1, 69828, Control_c, 0, 64, 66
1, 69842, Control_c, 0, 64, 68
1, 69842, Control_c, 0, 67, 9
1, 69857, Control_c, 0, 64, 69
1, 69872, Control_c, 0, 64, 70
1, 69969, Note_on_c, 0, 58, 66
1, 69976, Control_c, 0, 67, 9
1, 69980, Note_on_c, 0, 61, 50
1, 70008, Note_off_c, 0, 61, 59
1, 70009, Note_off_c, 0, 58, 65
1, 70020, Control_c, 0, 64, 70
1, 70024, Note_on_c, 0, 56, 47
1, 70054, Note_off_c, 0, 56, 50
1, 70066, Note_on_c, 0, 54, 65
1, 70088, Note_off_c, 0, 54, 65
1, 70094, Control_c, 0, 64, 69
1, 70109, Control_c, 0, 64, 66
1, 70124, Control_c, 0, 64, 63
1, 70124, Control_c, 0, 67, 10
1, 70139, Control_c, 0, 64, 61
1, 70151, Note_on_c, 0, 66, 47
1, 70152, Note_on_c, 0, 63, 64
1, 70154, Control_c, 0, 64, 61
1, 70196, Note_off_c, 0, 66, 47
1, 70201, Note_off_c, 0, 63, 63
1, 70254, Note_on_c, 0, 58, 59
1, 70257, Control_c, 0, 64, 60
1, 70279, Control_c, 0, 64, 59
1, 70283, Note_off_c, 0, 58, 64
1, 70294, Control_c, 0, 64, 57
1, 70309, Control_c, 0, 64, 51
1, 70322, Note_on_c, 0, 42, 66
1, 70324, Control_c, 0, 64, 35
1, 70327, Note_on_c, 0, 66, 52
1, 70327, Note_on_c, 0, 70, 60
1, 70339, Control_c, 0, 64, 0
1, 70381, Note_off_c, 0, 42, 61
1, 70384, Control_c, 0, 64, 26
1, 70389, Note_off_c, 0, 70, 61
1, 70392, Note_off_c, 0, 66, 64
1, 70393, Note_on_c, 0, 49, 6
1, 70393, Note_on_c, 0, 67, 25
1, 70399, Control_c, 0, 64, 50
1, 70399, Control_c, 0, 67, 9
1, 70407, Note_on_c, 0, 58, 54
1, 70413, Control_c, 0, 64, 62
1, 70428, Control_c, 0, 64, 70
1, 70428, Control_c, 0, 67, 9
1, 70435, Note_off_c, 0, 67, 29
1, 70436, Note_off_c, 0, 58, 67
1, 70443, Control_c, 0, 64, 77
1, 70443, Control_c, 0, 67, 8
1, 70448, Note_off_c, 0, 49, 40
1, 70450, Note_on_c, 0, 63, 30
1, 70458, Control_c, 0, 64, 86
1, 70458, Control_c, 0, 67, 8
1, 70473, Control_c, 0, 64, 96
1, 70486, Note_off_c, 0, 63, 47
1, 70488, Control_c, 0, 64, 112
1, 70488, Control_c, 0, 67, 0
1, 70499, Note_on_c, 0, 42, 67
1, 70503, Control_c, 0, 64, 127
1, 70509, Note_on_c, 0, 73, 65
1, 70510, Note_on_c, 0, 70, 75
1, 70533, Note_on_c, 0, 49, 47
1, 70542, Note_on_c, 0, 68, 69
1, 70544, Note_off_c, 0, 42, 63
1, 70562, Note_off_c, 0, 49, 50
1, 70564, Note_off_c, 0, 70, 63
1, 70565, Note_off_c, 0, 73, 63
1, 70572, Note_off_c, 0, 68, 67
1, 70610, Poly_aftertouch_c, 0, 74, 0
1, 70626, Poly_aftertouch_c, 0, 74, 0
1, 70679, Note_on_c, 0, 46, 68
1, 70685, Note_on_c, 0, 78, 79
1, 70690, Poly_aftertouch_c, 0, 66, 127
1, 70705, Note_on_c, 0, 75, 44
1, 70714, Note_on_c, 0, 74, 67
1, 70717, Note_off_c, 0, 46, 66
1, 70723, Note_on_c, 0, 55, 50
1, 70724, Note_on_c, 0, 73, 62
1, 70727, Poly_aftertouch_c, 0, 66, 0
1, 70735, Note_off_c, 0, 75, 54
1, 70739, Note_off_c, 0, 74, 68
1, 70749, Note_off_c, 0, 55, 60
1, 70751, Note_off_c, 0, 73, 67
1, 70752, Note_off_c, 0, 78, 64
1, 70799, Note_on_c, 0, 70, 68
1, 70819, Note_off_c, 0, 70, 65
1, 70853, Note_on_c, 0, 78, 79
1, 70856, Note_on_c, 0, 82, 85
1, 70861, Note_on_c, 0, 51, 63
1, 70910, Note_on_c, 0, 60, 37
1, 70914, Note_off_c, 0, 51, 63
1, 70920, Note_on_c, 0, 75, 41
1, 70929, Note_off_c, 0, 78, 64
1, 70929, Note_off_c, 0, 82, 65
1, 70934, Note_on_c, 0, 59, 15
1, 70942, Note_off_c, 0, 60, 45
1, 70970, Note_off_c, 0, 75, 0
1, 70975, Note_off_c, 0, 59, 41
1, 70986, Note_on_c, 0, 75, 35
1, 71024, Note_off_c, 0, 75, 47
1, 71042, Note_on_c, 0, 56, 72
1, 71057, Note_on_c, 0, 86, 73
1, 71063, Note_on_c, 0, 85, 66
1, 71072, Note_on_c, 0, 83, 62
1, 71081, Note_on_c, 0, 84, 64
1, 71081, Note_on_c, 0, 82, 68
1, 71093, Note_off_c, 0, 56, 58
1, 71108, Note_off_c, 0, 84, 68
1, 71109, Note_off_c, 0, 83, 67
1, 71109, Note_off_c, 0, 86, 65
1, 71116, Note_off_c, 0, 85, 64
1, 71118, Note_off_c, 0, 82, 63
1, 71127, Note_on_c, 0, 62, 3
1, 71132, Note_on_c, 0, 70, 70
1, 71150, Note_off_c, 0, 62, 0
1, 71150, Note_off_c, 0, 70, 67
1, 71155, Poly_aftertouch_c, 0, 63, 0
1, 71165, Poly_aftertouch_c, 0, 62, 0
1, 71229, Note_on_c, 0, 87, 84
1, 71245, Note_on_c, 0, 91, 67
1, 71248, Note_on_c, 0, 90, 60
1, 71274, Note_on_c, 0, 67, 44
1, 71275, Note_on_c, 0, 85, 77
1, 71275, Note_off_c, 0, 90, 58
1, 71282, Note_off_c, 0, 91, 58
1, 71292, Note_on_c, 0, 66, 23
1, 71298, Note_off_c, 0, 87, 67
1, 71300, Note_off_c, 0, 67, 55
1, 71322, Note_off_c, 0, 85, 62
1, 71326, Note_on_c, 0, 73, 65
1, 71332, Note_off_c, 0, 66, 46
1, 71355, Note_off_c, 0, 73, 68
1, 71355, Control_c, 0, 64, 94
1, 71370, Control_c, 0, 64, 73
1, 71378, Note_on_c, 0, 82, 18
1, 71385, Control_c, 0, 64, 66
1, 71394, Note_on_c, 0, 94, 90
1, 71397, Note_on_c, 0, 90, 80
1, 71400, Control_c, 0, 64, 67
1, 71402, Note_on_c, 0, 63, 72
1, 71409, Note_on_c, 0, 61, 50
1, 71415, Control_c, 0, 64, 71
1, 71426, Note_off_c, 0, 82, 35
1, 71430, Control_c, 0, 64, 77
1, 71433, Note_off_c, 0, 61, 51
1, 71444, Control_c, 0, 64, 91
1, 71449, Note_on_c, 0, 71, 45
1, 71459, Control_c, 0, 64, 127
1, 71474, Note_off_c, 0, 90, 66
1, 71476, Note_off_c, 0, 63, 63
1, 71483, Note_off_c, 0, 94, 64
1, 71484, Note_on_c, 0, 87, 71
1, 71490, Note_on_c, 0, 72, 13
1, 71500, Note_off_c, 0, 71, 63
1, 71507, Note_off_c, 0, 87, 67
1, 71507, Poly_aftertouch_c, 0, 92, 0
1, 71522, Note_on_c, 0, 85, 51
1, 71529, Note_on_c, 0, 78, 63
1, 71534, Note_off_c, 0, 72, 28
1, 71543, Note_off_c, 0, 85, 61
1, 71547, Note_off_c, 0, 78, 64
1, 71575, Note_on_c, 0, 90, 91
1, 71576, Note_on_c, 0, 87, 83
1, 71582, Note_on_c, 0, 66, 77
1, 71603, Note_on_c, 0, 70, 80
1, 71631, Note_on_c, 0, 85, 73
1, 71655, Note_off_c, 0, 90, 67
1, 71656, Note_off_c, 0, 87, 67
1, 71672, Note_off_c, 0, 66, 62
1, 71678, Note_off_c, 0, 85, 66
1, 71685, Note_on_c, 0, 78, 61
1, 71700, Note_on_c, 0, 82, 71
1, 71704, Note_off_c, 0, 78, 63
1, 71709, Note_off_c, 0, 70, 63
1, 71722, Note_off_c, 0, 82, 66
1, 71740, Control_c, 0, 64, 73
1, 71755, Control_c, 0, 64, 60
1, 71758, Note_on_c, 0, 61, 84
1, 71759, Note_on_c, 0, 94, 89
1, 71767, Note_on_c, 0, 90, 88
1, 71792, Control_c, 0, 64, 68
1, 71807, Control_c, 0, 64, 78
1, 71810, Note_on_c, 0, 70, 74
1, 71817, Note_off_c, 0, 61, 63
1, 71821, Control_c, 0, 64, 98
1, 71823, Note_on_c, 0, 87, 79
1, 71836, Control_c, 0, 64, 127
1, 71845, Note_off_c, 0, 90, 67
1, 71850, Note_off_c, 0, 94, 65
1, 71866, Note_off_c, 0, 87, 66
1, 71880, Note_on_c, 0, 85, 70
1, 71883, Note_off_c, 0, 70, 61
1, 71890, Note_on_c, 0, 78, 67
1, 71907, Note_off_c, 0, 78, 64
1, 71908, Note_off_c, 0, 85, 67
1, 71937, Poly_aftertouch_c, 0, 68, 0
1, 71942, Note_on_c, 0, 66, 83
1, 71944, Note_on_c, 0, 90, 89
1, 71948, Note_on_c, 0, 87, 92
1, 71990, Note_on_c, 0, 70, 78
1, 71999, Note_on_c, 0, 85, 72
1, 72021, Note_off_c, 0, 66, 64
1, 72024, Note_off_c, 0, 90, 66
1, 72026, Note_off_c, 0, 87, 66
1, 72047, Note_off_c, 0, 85, 65
1, 72064, Note_on_c, 0, 78, 56
1, 72068, Note_on_c, 0, 82, 69
1, 72085, Note_off_c, 0, 78, 59
1, 72089, Note_off_c, 0, 70, 58
1, 72089, Note_off_c, 0, 82, 66
1, 72124, Note_on_c, 0, 94, 92
1, 72127, Note_on_c, 0, 90, 94
1, 72136, Note_on_c, 0, 61, 82
1, 72176, Note_on_c, 0, 70, 80
1, 72177, Note_off_c, 0, 61, 62
1, 72182, Note_on_c, 0, 92, 19
1, 72192, Note_on_c, 0, 87, 86
1, 72214, Note_off_c, 0, 94, 64
1, 72219, Note_off_c, 0, 90, 66
1, 72220, Note_off_c, 0, 92, 53
1, 72239, Note_off_c, 0, 87, 67
1, 72255, Note_on_c, 0, 85, 70
1, 72257, Note_off_c, 0, 70, 60
1, 72258, Note_on_c, 0, 78, 65
1, 72277, Note_off_c, 0, 78, 66
1, 72281, Note_off_c, 0, 85, 67
1, 72313, Note_on_c, 0, 66, 85
1, 72313, Note_on_c, 0, 90, 92
1, 72318, Note_on_c, 0, 87, 102
1, 72366, Note_on_c, 0, 70, 75
1, 72374, Note_on_c, 0, 85, 67
1, 72393, Note_off_c, 0, 66, 64
1, 72405, Note_off_c, 0, 90, 66
1, 72410, Note_off_c, 0, 87, 66
1, 72431, Note_off_c, 0, 85, 66
1, 72440, Note_on_c, 0, 78, 71
1, 72443, Note_on_c, 0, 82, 80
1, 72463, Note_off_c, 0, 78, 67
1, 72464, Note_off_c, 0, 70, 63
1, 72469, Note_off_c, 0, 82, 67
1, 72519, Note_on_c, 0, 94, 92
1, 72523, Note_on_c, 0, 90, 89
1, 72528, Note_on_c, 0, 61, 83
1, 72571, Note_on_c, 0, 70, 76
1, 72571, Note_on_c, 0, 92, 39
1, 72574, Note_off_c, 0, 61, 63
1, 72590, Note_on_c, 0, 87, 80
1, 72602, Note_off_c, 0, 92, 54
1, 72621, Note_off_c, 0, 94, 64
1, 72628, Note_off_c, 0, 90, 65
1, 72646, Note_on_c, 0, 85, 89
1, 72648, Note_off_c, 0, 87, 67
1, 72667, Note_off_c, 0, 85, 69
1, 72676, Note_on_c, 0, 78, 73
1, 72686, Note_off_c, 0, 70, 63
1, 72703, Note_off_c, 0, 78, 66
1, 72708, Note_on_c, 0, 66, 89
1, 72712, Note_on_c, 0, 85, 89
1, 72715, Note_on_c, 0, 82, 96
1, 72717, Note_on_c, 0, 90, 93
1, 72730, Note_off_c, 0, 66, 69
1, 72732, Note_off_c, 0, 82, 73
1, 72733, Note_off_c, 0, 85, 65
1, 72736, Note_off_c, 0, 90, 72
1, 72862, Poly_aftertouch_c, 0, 85, 0
1, 72955, Control_c, 0, 64, 98
1, 72970, Control_c, 0, 64, 81
1, 72985, Control_c, 0, 64, 68
1, 73000, Control_c, 0, 64, 59
1, 73014, Control_c, 0, 64, 51
1, 73029, Control_c, 0, 64, 41
1, 73044, Control_c, 0, 64, 0
1, 73068, Note_on_c, 0, 90, 103
1, 73072, Note_on_c, 0, 78, 101
1, 73075, Note_on_c, 0, 54, 88
1, 73075, Note_on_c, 0, 66, 89
1, 73096, Note_off_c, 0, 78, 66
1, 73099, Note_off_c, 0, 66, 67
1, 73099, Note_off_c, 0, 90, 65
1, 73109, Note_off_c, 0, 54, 60
1, 73132, Control_c, 0, 64, 17
1, 73147, Control_c, 0, 64, 56
1, 73162, Control_c, 0, 64, 65
1, 73177, Control_c, 0, 64, 74
1, 73192, Control_c, 0, 64, 86
1, 73207, Control_c, 0, 64, 107
1, 73221, Control_c, 0, 64, 127
1, 73225, Note_on_c, 0, 87, 96
1, 73229, Note_on_c, 0, 75, 98
1, 73233, Note_on_c, 0, 51, 83
1, 73233, Note_on_c, 0, 63, 84
1, 73250, Note_off_c, 0, 75, 69
1, 73264, Note_off_c, 0, 63, 72
1, 73265, Note_off_c, 0, 51, 68
1, 73274, Note_off_c, 0, 87, 61
1, 73373, Note_on_c, 0, 73, 92
1, 73373, Note_on_c, 0, 85, 94
1, 73379, Note_on_c, 0, 61, 88
1, 73381, Poly_aftertouch_c, 0, 63, 127
1, 73391, Note_on_c, 0, 49, 70
1, 73397, Note_off_c, 0, 73, 68
1, 73401, Note_off_c, 0, 85, 61
1, 73402, Note_off_c, 0, 61, 69
1, 73405, Poly_aftertouch_c, 0, 63, 0
1, 73415, Note_off_c, 0, 49, 65
1, 73484, Note_on_c, 0, 82, 88
1, 73487, Note_on_c, 0, 58, 84
1, 73487, Note_on_c, 0, 70, 89
1, 73493, Note_on_c, 0, 46, 72
1, 73507, Note_off_c, 0, 70, 70
1, 73511, Note_off_c, 0, 82, 60
1, 73511, Note_off_c, 0, 58, 69
1, 73514, Note_off_c, 0, 46, 63
1, 73584, Note_on_c, 0, 56, 79
1, 73585, Note_on_c, 0, 80, 82
1, 73586, Note_on_c, 0, 68, 92
1, 73591, Note_on_c, 0, 44, 71
1, 73600, Note_off_c, 0, 56, 67
1, 73606, Note_off_c, 0, 68, 71
1, 73608, Note_off_c, 0, 80, 68
1, 73615, Note_off_c, 0, 44, 58
1, 73634, Poly_aftertouch_c, 0, 58, 0
1, 73653, Poly_aftertouch_c, 0, 70, 0
1, 73655, Poly_aftertouch_c, 0, 58, 0
1, 73671, Note_on_c, 0, 54, 82
1, 73672, Note_on_c, 0, 78, 45
1, 73676, Note_on_c, 0, 66, 94
1, 73681, Note_on_c, 0, 42, 65
1, 73694, Note_off_c, 0, 54, 68
1, 73697, Note_off_c, 0, 66, 70
1, 73704, Note_off_c, 0, 42, 61
1, 73708, Note_off_c, 0, 78, 65
1, 73760, Note_on_c, 0, 51, 83
1, 73764, Note_on_c, 0, 75, 92
1, 73767, Note_on_c, 0, 63, 88
1, 73771, Note_on_c, 0, 39, 67
1, 73779, Note_on_c, 0, 42, 51
1, 73785, Note_off_c, 0, 51, 68
1, 73791, Note_off_c, 0, 63, 69
1, 73797, Note_off_c, 0, 39, 62
1, 73801, Poly_aftertouch_c, 0, 54, 127
1, 73804, Note_off_c, 0, 42, 62
1, 73807, Note_off_c, 0, 75, 57
1, 73846, Poly_aftertouch_c, 0, 54, 0
1, 73853, Note_on_c, 0, 49, 85
1, 73858, Note_on_c, 0, 37, 78
1, 73868, Note_on_c, 0, 63, 59
1, 73868, Note_on_c, 0, 73, 64
1, 73879, Note_off_c, 0, 49, 66
1, 73880, Note_on_c, 0, 61, 50
1, 73882, Note_off_c, 0, 63, 71
1, 73887, Note_off_c, 0, 37, 66
1, 73889, Note_off_c, 0, 73, 65
1, 73904, Note_off_c, 0, 61, 60
1, 73954, Note_on_c, 0, 58, 87
1, 73954, Note_on_c, 0, 70, 78
1, 73960, Note_on_c, 0, 46, 56
1, 73963, Note_on_c, 0, 34, 57
1, 73976, Note_off_c, 0, 58, 68
1, 73979, Note_off_c, 0, 70, 66
1, 73987, Note_off_c, 0, 46, 55
1, 73998, Note_off_c, 0, 34, 54
1, 74036, Note_on_c, 0, 44, 75
1, 74039, Note_on_c, 0, 68, 95
1, 74041, Note_on_c, 0, 56, 93
1, 74057, Note_on_c, 0, 32, 51
1, 74058, Note_on_c, 0, 58, 23
1, 74062, Note_off_c, 0, 56, 69
1, 74067, Note_off_c, 0, 44, 65
1, 74069, Note_off_c, 0, 68, 59
1, 74083, Control_c, 0, 64, 64
1, 74084, Note_off_c, 0, 58, 47
1, 74094, Note_off_c, 0, 32, 59
1, 74097, Control_c, 0, 64, 0
1, 74123, Note_on_c, 0, 42, 83
1, 74123, Note_on_c, 0, 54, 97
1, 74126, Note_on_c, 0, 66, 90
1, 74135, Note_on_c, 0, 32, 42
1, 74145, Note_off_c, 0, 54, 70
1, 74151, Note_off_c, 0, 42, 66
1, 74156, Control_c, 0, 64, 36
1, 74159, Note_off_c, 0, 66, 64
1, 74164, Note_off_c, 0, 32, 56
1, 74171, Control_c, 0, 64, 87
1, 74186, Control_c, 0, 64, 127
1, 74415, Note_on_c, 0, 54, 35
1, 74439, Note_off_c, 0, 54, 60
1, 74519, Note_on_c, 0, 54, 64
1, 74579, Note_on_c, 0, 61, 75
1, 74591, Note_off_c, 0, 54, 63
1, 74593, Note_on_c, 0, 82, 76
1, 74610, Note_off_c, 0, 61, 66
1, 74642, Note_on_c, 0, 85, 82
1, 74646, Control_c, 0, 64, 112
1, 74661, Control_c, 0, 64, 61
1, 74674, Note_on_c, 0, 90, 89
1, 74676, Control_c, 0, 64, 18
1, 74691, Control_c, 0, 64, 36
1, 74694, Note_on_c, 0, 94, 99
1, 74700, Note_on_c, 0, 70, 101
1, 74705, Control_c, 0, 64, 69
1, 74720, Control_c, 0, 64, 127
1, 74724, Note_off_c, 0, 70, 68
1, 74724, Note_off_c, 0, 82, 65
1, 74727, Note_off_c, 0, 85, 65
1, 74734, Note_off_c, 0, 90, 67
1, 74741, Note_off_c, 0, 94, 66
1, 75499, Note_on_c, 0, 54, 91
1, 75520, Note_on_c, 0, 42, 72
1, 75523, Note_on_c, 0, 30, 71
1, 75595, Control_c, 0, 64, 103
1, 75609, Control_c, 0, 64, 79
1, 75624, Control_c, 0, 64, 67
1, 75639, Control_c, 0, 64, 61
1, 75654, Control_c, 0, 64, 60
1, 75669, Control_c, 0, 64, 62
1, 75684, Control_c, 0, 64, 65
1, 75699, Control_c, 0, 64, 68
1, 75713, Control_c, 0, 64, 73
1, 75728, Control_c, 0, 64, 79
1, 75743, Control_c, 0, 64, 83
1, 75758, Control_c, 0, 64, 86
1, 75773, Control_c, 0, 64, 88
1, 75787, Control_c, 0, 64, 93
1, 75802, Control_c, 0, 64, 101
1, 75816, Control_c, 0, 64, 110
1, 75831, Control_c, 0, 64, 119
1, 75846, Control_c, 0, 64, 127
1, 76155, Note_off_c, 0, 42, 39
1, 76237, Note_off_c, 0, 30, 32
1, 76611, Note_off_c, 0, 54, 50
1, 77284, Control_c, 0, 64, 111
1, 77299, Control_c, 0, 64, 100
1, 77314, Control_c, 0, 64, 91
1, 77329, Control_c, 0, 64, 84
1, 77344, Control_c, 0, 64, 78
1, 77359, Control_c, 0, 64, 73
1, 77374, Control_c, 0, 64, 66
1, 77389, Control_c, 0, 64, 58
1, 77404, Control_c, 0, 64, 49
1, 77419, Control_c, 0, 64, 42
1, 77433, Control_c, 0, 64, 38
1, 77448, Control_c, 0, 64, 36
1, 77478, Control_c, 0, 64, 36
1, 77493, Control_c, 0, 64, 34
1, 77507, Control_c, 0, 64, 30
1, 77522, Control_c, 0, 64, 27
1, 77538, Control_c, 0, 64, 26
1, 77582, Control_c, 0, 64, 25
1, 77597, Control_c, 0, 64, 24
1, 77612, Control_c, 0, 64, 22
1, 77627, Control_c, 0, 64, 22
1, 77656, Control_c, 0, 64, 20
1, 77671, Control_c, 0, 64, 18
1, 77686, Control_c, 0, 64, 17
1, 77701, Control_c, 0, 64, 16
1, 77716, Control_c, 0, 64, 15
1, 77730, Control_c, 0, 64, 13
1, 77745, Control_c, 0, 64, 11
1, 77767, Control_c, 0, 64, 0
1, 77842, End_track
0, 0, End_of_file
